<?xml version="1.0" encoding="iso-8859-1"?>
<!-- Generator: Adobe Illustrator 19.0.0, SVG Export Plug-In . SVG Version: 6.00 Build 0)  -->
<svg version="1.1" id="Capa_1" xmlns="http://www.w3.org/2000/svg" xmlns:xlink="http://www.w3.org/1999/xlink" x="0px" y="0px"
	 viewBox="0 0 512 512" style="enable-background:new 0 0 512 512;" xml:space="preserve">
<path style="fill:#FEA832;" d="M420.5,159.399C417.8,154.3,412.7,151,407,151H105c-5.7,0-10.8,3.3-13.5,8.399L5.7,331l9.3,30
	h483.199l8.101-30L420.5,159.399z"/>
<path style="fill:#FE9923;" d="M506.3,331l-38.101,30H256V151h151c5.7,0,10.8,3.3,13.5,8.399L506.3,331z"/>
<polygon style="fill:#BF6015;" points="39.243,331 114.229,181 397.771,181 472.757,331 "/>
<polygon style="fill:#994C10;" points="256,181 256,331 472.757,331 397.771,181 "/>
<path style="fill:#CAE8F9;" d="M391.099,90H347c-8.401,0-15-6.601-15-15V30.599L302,0H135c-24.901,0-45,20.099-45,45v301
	c0,8.399,6.599,15,15,15h302c8.401,0,15-6.601,15-15V120L391.099,90z"/>
<path style="fill:#B7E0F6;" d="M422,120v226c0,8.399-6.599,15-15,15H256V0h46l30,30.599V75c0,8.399,6.599,15,15,15h44.099L422,120z"
	/>
<path style="fill:#A4D9F5;" d="M415.401,92.399L329.6,6.599C326.355,2.271,322.668,0,317,0h-15v75c0,24.899,20.099,45,45,45h75
	C422,108.011,424.155,98.974,415.401,92.399z"/>
<g>
	<path style="fill:#81C8EE;" d="M195,90h-30c-8.291,0-15-6.709-15-15s6.709-15,15-15h30c8.291,0,15,6.709,15,15S203.291,90,195,90z"
		/>
	<path style="fill:#81C8EE;" d="M302,136c0,8.399-6.599,15-15,15H165c-8.401,0-15-6.601-15-15c0-8.401,6.599-15,15-15h122
		C295.401,121,302,127.599,302,136z"/>
	<path style="fill:#81C8EE;" d="M362,196c0,8.399-6.599,15-15,15H165c-8.401,0-15-6.601-15-15c0-8.401,6.599-15,15-15h182
		C355.401,181,362,187.599,362,196z"/>
	<path style="fill:#81C8EE;" d="M362,256c0,8.399-6.599,15-15,15H165c-8.401,0-15-6.601-15-15c0-8.401,6.599-15,15-15h182
		C355.401,241,362,247.599,362,256z"/>
</g>
<g>
	<path style="fill:#4DBBEB;" d="M287,151h-31v-30h31c8.401,0,15,6.599,15,15C302,144.399,295.401,151,287,151z"/>
	<path style="fill:#4DBBEB;" d="M347,271h-91v-30h91c8.401,0,15,6.599,15,15C362,264.399,355.401,271,347,271z"/>
	<path style="fill:#4DBBEB;" d="M347,211h-91v-30h91c8.401,0,15,6.599,15,15C362,204.399,355.401,211,347,211z"/>
</g>
<path style="fill:#FEDB41;" d="M506.3,331H5.7c-2.701,5.099-5.7,9.899-5.7,15.3V467c0,24.899,20.099,45,45,45h422
	c24.901,0,45-20.101,45-45V346.3C512,340.899,509.001,336.099,506.3,331z"/>
<path style="fill:#FCBF29;" d="M512,346.3V467c0,24.899-20.099,45-45,45H256V331h250.3C509.001,336.099,512,340.899,512,346.3z"/>
<path style="fill:#FEA832;" d="M180,331v45c0,24.899,20.099,45,45,45h62c24.901,0,45-20.101,45-45v-45H180z"/>
<path style="fill:#FE9923;" d="M332,331v45c0,24.899-20.099,45-45,45h-31v-90H332z"/>
<g>
</g>
<g>
</g>
<g>
</g>
<g>
</g>
<g>
</g>
<g>
</g>
<g>
</g>
<g>
</g>
<g>
</g>
<g>
</g>
<g>
</g>
<g>
</g>
<g>
</g>
<g>
</g>
<g>
</g>
</svg>
