<svg id="Capa_1" enable-background="new 0 0 512 512" height="512" viewBox="0 0 512 512" width="512" xmlns="http://www.w3.org/2000/svg"><g><path d="m127.227 266.46v79.165c0 2.276-1.845 4.121-4.121 4.121h-22.664c-2.276 0-4.121-1.845-4.121-4.121v-26.785c0-2.276-1.845-4.121-4.121-4.121h-22.663c-2.276 0-4.121 1.845-4.121 4.121v26.785c0 2.276-1.845 4.121-4.121 4.121h-22.663c-2.276 0-4.121-1.845-4.121-4.121v-79.165z" fill="#ffc344"/><g><path d="m96.322 266.46v79.165c0 2.276 1.845 4.121 4.121 4.121h22.664c2.276 0 4.121-1.845 4.121-4.121v-79.165z" fill="#feb237"/></g><path d="m263.053 279.694h-254.812c-4.552 0-8.241-3.69-8.241-8.241v-30.905c0-4.552 3.69-8.241 8.241-8.241h254.811v47.387z" fill="#ffd15b"/><path d="m219.607 232.306h43.446v47.388h-43.446z" fill="#ffc344"/><path d="m378.076 122.076c-73.967 0-133.924 59.957-133.924 133.924s59.957 133.924 133.924 133.924 133.924-59.957 133.924-133.924-59.957-133.924-133.924-133.924zm0 236.942c-56.804 0-103.018-46.214-103.018-103.018s46.214-103.018 103.018-103.018 103.019 46.214 103.019 103.018-46.214 103.018-103.019 103.018z" fill="#ffd15b"/><g><path d="m378.076 122.076c-5.227 0-10.382.31-15.453.892 66.687 7.663 118.472 64.292 118.472 133.032s-51.785 125.369-118.471 133.031c5.071.583 10.225.892 15.453.892 73.966.001 133.923-59.956 133.923-133.923s-59.957-133.924-133.924-133.924z" fill="#ffc344"/></g></g></svg>