<svg id="Capa_1" enable-background="new 0 0 512 512" height="512" viewBox="0 0 512 512" width="512" xmlns="http://www.w3.org/2000/svg"><g><path d="m430.721 209.971c-15.936-.437-28.435-13.912-28.435-29.854v.609c0 16.159-13.099 29.257-29.257 29.257s-29.257-13.098-29.257-29.257c0 16.159-13.099 29.257-29.257 29.257-16.159 0-29.257-13.098-29.257-29.257 0 16.159-13.099 29.257-29.257 29.257s-29.257-13.098-29.257-29.257c0 16.159-13.099 29.257-29.257 29.257s-29.257-13.098-29.257-29.257c0 16.159-13.099 29.257-29.257 29.257-16.159 0-29.257-13.098-29.257-29.257 0 16.157-13.1 29.246-29.257 29.247v239.457h351.086v-239.458c-.276 0-.548.006-.824-.001z" fill="#fee55a"/><path d="m121.106 203.886c-6.926-5.35-11.392-13.732-11.392-23.161 0 16.158-13.1 29.246-29.257 29.247v239.457h40.649z" fill="#ffd301"/><g><g><path d="m253.94 283.828h89.832v165.601h-89.832z" fill="#6c7ed6"/></g></g><g><path d="m168.229 283.828h87.771v165.601h-87.771z" fill="#6c7ed6"/></g><path d="m168.229 283.828h28.846v165.601h-28.846z" fill="#4f67d2"/><path d="m253.94 283.828h28.846v165.601h-28.846z" fill="#4f67d2"/><g><path d="m357.869 70.689h30.321v34.623h-30.321z" fill="#dfebfa"/></g><g><path d="m123.811 70.689h30.321v34.623h-30.321z" fill="#dfebfa"/></g><path d="m431.932 103.251h-351.864c-7.19 0-13.072 5.882-13.072 13.072v20.339h378.008v-20.339c0-7.189-5.882-13.072-13.072-13.072z" fill="#b1dbfc"/><path d="m122.924 103.251h-42.856c-7.19 0-13.072 5.882-13.072 13.072v20.339h42.855v-20.339c0-7.189 5.883-13.072 13.073-13.072z" fill="#8bcaff"/><path d="m428.269 72.749h-344.538c-6.979 0-12.689-5.71-12.689-12.689v-47.371c0-6.979 5.71-12.689 12.689-12.689h344.538c6.979 0 12.689 5.71 12.689 12.689v47.371c0 6.979-5.71 12.689-12.689 12.689z" fill="#ff656f"/><path d="m122.113 59.677v-46.604c0-7.19 5.882-13.073 13.072-13.073h-51.071c-7.19 0-13.073 5.883-13.073 13.073v46.604c0 7.19 5.883 13.072 13.073 13.072h51.071c-7.189 0-13.072-5.882-13.072-13.072z" fill="#ff4756"/><path d="m226.743 133.057h-58.514c-.285 0-.515.23-.515.515v56.425c0 16.416 13.355 29.772 29.772 29.772 16.416 0 29.772-13.355 29.772-29.772v-56.425c0-.285-.231-.515-.515-.515z" fill="#ff656f"/><path d="m197.486 189.997v-56.425c0-.285.23-.515.515-.515h-29.772c-.285 0-.515.23-.515.515v56.425c0 16.416 13.355 29.772 29.772 29.772 5.421 0 10.503-1.463 14.886-4.005-8.89-5.156-14.886-14.771-14.886-25.767z" fill="#ff4756"/><path d="m343.772 133.057h-58.514c-.284 0-.515.23-.515.515v56.425c0 16.416 13.356 29.772 29.772 29.772s29.772-13.355 29.772-29.772v-56.425c0-.285-.231-.515-.515-.515z" fill="#ff656f"/><path d="m314.515 189.997v-56.425c0-.285.231-.515.515-.515h-29.772c-.284 0-.515.23-.515.515v56.425c0 16.416 13.356 29.772 29.772 29.772 5.421 0 10.503-1.463 14.886-4.005-8.89-5.156-14.886-14.771-14.886-25.767z" fill="#ff4756"/><path d="m109.715 133.057h-49.53c-5.239 0-9.5 4.261-9.5 9.499v46.832c0 16.309 12.981 29.932 28.936 30.369.283.008.563.012.844.012 7.803 0 15.144-2.976 20.752-8.432 5.812-5.655 9.012-13.234 9.012-21.341v-56.425c.001-.284-.23-.514-.514-.514z" fill="#ff656f"/><path d="m80.457 189.388v-46.832c0-5.238 4.262-9.499 9.5-9.499h-29.772c-5.239 0-9.5 4.261-9.5 9.499v46.832c0 16.309 12.981 29.932 28.936 30.369.283.008.563.012.844.012 5.358 0 10.498-1.404 15.008-4.049-8.942-5.282-15.016-15.177-15.016-26.332z" fill="#ff4756"/><path d="m451.815 133.057h-49.529c-.284 0-.515.23-.515.515v55.816c0 16.309 12.981 29.932 28.936 30.369.282.008.563.012.844.012 7.803 0 15.144-2.976 20.752-8.432 5.812-5.655 9.012-13.233 9.012-21.341v-47.441c0-5.237-4.262-9.498-9.5-9.498z" fill="#ff656f"/><path d="m431.543 189.388v-55.816c0-.285.231-.515.515-.515h-29.772c-.284 0-.515.23-.515.515v55.816c0 16.309 12.981 29.932 28.936 30.369.282.008.563.012.844.012 5.358 0 10.498-1.404 15.008-4.049-8.942-5.282-15.016-15.178-15.016-26.332z" fill="#ff4756"/><path d="m168.229 133.057h-58.515c-.285 0-.515.23-.515.515v56.425c0 16.416 13.355 29.772 29.772 29.772 16.416 0 29.772-13.355 29.772-29.772v-56.425c.001-.285-.23-.515-.514-.515z" fill="#23a8fe"/><path d="m138.972 189.997v-56.425c0-.285.23-.515.515-.515h-29.772c-.285 0-.515.23-.515.515v56.425c0 16.416 13.355 29.772 29.772 29.772 5.421 0 10.503-1.463 14.886-4.005-8.89-5.156-14.886-14.771-14.886-25.767z" fill="#0193fa"/><path d="m285.257 133.057h-58.514c-.284 0-.515.23-.515.515v56.425c0 16.416 13.356 29.772 29.772 29.772s29.772-13.355 29.772-29.772v-56.425c0-.285-.23-.515-.515-.515z" fill="#23a8fe"/><path d="m256 189.997v-56.425c0-.285.231-.515.515-.515h-29.772c-.284 0-.515.23-.515.515v56.425c0 16.416 13.356 29.772 29.772 29.772 5.421 0 10.503-1.463 14.886-4.005-8.89-5.156-14.886-14.771-14.886-25.767z" fill="#0193fa"/><path d="m402.286 133.057h-58.514c-.284 0-.515.23-.515.515v56.425c0 16.416 13.356 29.772 29.772 29.772s29.772-13.355 29.772-29.772v-56.425c0-.285-.231-.515-.515-.515z" fill="#23a8fe"/><path d="m373.029 189.997v-56.425c0-.285.231-.515.515-.515h-29.772c-.284 0-.515.23-.515.515v56.425c0 16.416 13.356 29.772 29.772 29.772 5.421 0 10.503-1.463 14.886-4.005-8.89-5.156-14.886-14.771-14.886-25.767z" fill="#0193fa"/><g><path d="m396.541 44.101h-281.082c-4.267 0-7.727-3.459-7.727-7.727s3.459-7.727 7.727-7.727h281.081c4.267 0 7.727 3.459 7.727 7.727s-3.459 7.727-7.726 7.727z" fill="#fc2d39"/></g><g><path d="m282.249 388.947c-4.267 0-7.727-3.459-7.727-7.727v-36.964c0-4.267 3.459-7.727 7.727-7.727s7.727 3.459 7.727 7.727v36.964c0 4.267-3.46 7.727-7.727 7.727z" fill="#b1dbfc"/></g><g><path d="m229.751 388.947c-4.267 0-7.727-3.459-7.727-7.727v-36.964c0-4.267 3.459-7.727 7.727-7.727 4.267 0 7.727 3.459 7.727 7.727v36.964c0 4.267-3.46 7.727-7.727 7.727z" fill="#b1dbfc"/></g><path d="m330.699 254.932c-18.137 0-131.222 0-149.398 0-7.19 0-13.072 5.883-13.072 13.072v15.824h175.543v-15.824c0-7.189-5.883-13.072-13.073-13.072z" fill="#23a8fe"/><path d="m210.147 254.932c-13.624 0-24.259 0-28.846 0-7.19 0-13.072 5.883-13.072 13.072v15.824h28.846v-15.824c-.001-7.189 5.882-13.072 13.072-13.072z" fill="#0193fa"/><path d="m66.996 456.371v24.859h378.008v-24.859c0-5.541-4.492-10.032-10.032-10.032h-357.943c-5.541-.001-10.033 4.491-10.033 10.032z" fill="#b1dbfc"/><path d="m121.07 446.338h-44.041c-5.541 0-10.032 4.491-10.032 10.032v24.859h44.041v-24.859c0-5.54 4.491-10.032 10.032-10.032z" fill="#8bcaff"/><path d="m454.389 479.169h-396.777c-3.585 0-6.492 2.907-6.492 6.492v19.847c0 3.586 2.907 6.492 6.492 6.492h396.777c3.585 0 6.492-2.906 6.492-6.492v-19.847c0-3.585-2.907-6.492-6.492-6.492z" fill="#dfebfa"/><path d="m95.161 505.508v-19.847c0-3.585 2.907-6.492 6.492-6.492h-44.041c-3.585 0-6.492 2.907-6.492 6.492v19.847c0 3.586 2.907 6.492 6.492 6.492h44.041c-3.585 0-6.492-2.907-6.492-6.492z" fill="#b1dbfc"/></g></svg>