<svg height="512pt" viewBox="-65 0 512 512" width="512pt" xmlns="http://www.w3.org/2000/svg"><path d="m382.199219 191.101562c0 105.378907-85.730469 191.097657-191.097657 191.097657-105.371093 0-191.101562-85.71875-191.101562-191.097657 0-105.371093 85.730469-191.101562 191.101562-191.101562 105.367188 0 191.097657 85.730469 191.097657 191.101562zm0 0" fill="#60d64d"/><path d="m382.199219 191.101562c0 105.378907-85.730469 191.097657-191.097657 191.097657v-382.199219c105.367188 0 191.097657 85.730469 191.097657 191.101562zm0 0" fill="#00b563"/><path d="m299.648438 210.21875v22.710938c0 25.359374-20.636719 46-46 46h-15.546876v230.070312h-94v-248.21875h-16.332031c-25.371093 0-46-20.640625-46-46v-22.710938h30v22.710938c0 8.820312 7.171875 16 16 16h16.332031v-78.0625h94v96.210938h15.546876c8.820312 0 16-7.179688 16-16v-22.710938zm0 0" fill="#b77445"/><path d="m299.648438 210.21875v22.710938c0 25.359374-20.636719 46-46 46h-15.546876v230.070312h-47v-356.28125h47v96.210938h15.546876c8.820312 0 16-7.179688 16-16v-22.710938zm0 0" fill="#a04010"/><path d="m103.101562 482h176v30h-176zm0 0" fill="#9ce78d"/><path d="m191.101562 482h88v30h-88zm0 0" fill="#36cb8e"/></svg>