<?xml version="1.0" encoding="iso-8859-1"?>
<!-- Generator: Adobe Illustrator 19.0.0, SVG Export Plug-In . SVG Version: 6.00 Build 0)  -->
<svg xmlns="http://www.w3.org/2000/svg" xmlns:xlink="http://www.w3.org/1999/xlink" version="1.1" id="Layer_1" x="0px" y="0px" viewBox="0 0 511.999 511.999" style="enable-background:new 0 0 511.999 511.999;" xml:space="preserve">
<path style="fill:#E6EEFF;" d="M501.703,392.834c18.974,37.948-21.431,77.123-58.373,58.707l-23.327-11.719  c-52.792,15.067-107.926,22.657-163.955,22.657h-0.782c-55.47-0.111-110.494-7.701-163.955-22.545L68.766,451.43  c-37.056,18.639-77.347-20.76-58.596-58.372l10.938-21.764c-28.126-73.551-28.126-157.036-0.112-231.48l-10.715-20.76  c-18.975-37.948,21.54-77.123,58.372-58.707l23.327,11.719c52.57-14.844,107.816-22.434,163.286-22.545  c55.582,0,111.499,7.366,165.408,22.434l22.545-11.496c37.276-18.751,77.345,20.871,58.596,58.372l-10.827,21.764  c28.014,73.551,28.014,157.036,0,231.48L501.703,392.834z"/>
<path style="fill:#DAE2F2;" d="M501.703,392.834c18.974,37.948-21.431,77.123-58.373,58.707l-23.327-11.719  c-52.792,15.067-107.926,22.657-163.955,22.657h-0.782V49.52c55.582,0,111.499,7.366,165.408,22.434l22.545-11.496  c37.276-18.751,77.345,20.871,58.596,58.372l-10.827,21.764c28.014,73.551,28.014,157.036,0,231.48L501.703,392.834z"/>
<path style="fill:#CF4529;" d="M256.305,218.622c0,0,12.763-45.583,53.18-45.583c27.28,0,47.212,19.621,52.048,45.002  c0.746,3.911,1.132,7.958,1.132,12.091c0,38.998-35.904,62.293-89.967,106.989c-9.518,7.869-23.267,7.869-32.786,0  c-54.064-44.696-89.967-67.991-89.967-106.989c0-30.961,21.697-57.093,53.18-57.093C243.543,173.04,256.305,218.622,256.305,218.622  z"/>
<path style="fill:#E55639;" d="M203.126,173.04c-31.483,0-53.18,26.134-53.18,57.093c0,38.998,35.904,62.293,89.967,106.989  c4.759,3.934,10.576,5.902,16.393,5.902V218.622C256.306,218.622,243.543,173.04,203.126,173.04z"/>
<g>
</g>
<g>
</g>
<g>
</g>
<g>
</g>
<g>
</g>
<g>
</g>
<g>
</g>
<g>
</g>
<g>
</g>
<g>
</g>
<g>
</g>
<g>
</g>
<g>
</g>
<g>
</g>
<g>
</g>
</svg>
