<?xml version="1.0" encoding="iso-8859-1"?>
<!-- Generator: Adobe Illustrator 19.0.0, SVG Export Plug-In . SVG Version: 6.00 Build 0)  -->
<svg xmlns="http://www.w3.org/2000/svg" xmlns:xlink="http://www.w3.org/1999/xlink" version="1.1" id="Layer_1" x="0px" y="0px" viewBox="0 0 512 512" style="enable-background:new 0 0 512 512;" xml:space="preserve" width="512" height="512">
<g>
	<path style="fill:#0095FF;" d="M443.441,344.415l-42.426-42.426l42.426-42.426c11.716-11.716,30.711-11.716,42.426,0l0,0   c11.716,11.716,11.716,30.711,0,42.426L443.441,344.415z"/>
	<path style="fill:#4BB9EC;" d="M188.883,132.283l-42.426-42.426l63.64-63.64c11.716-11.716,30.711-11.716,42.426,0l0,0   c11.716,11.716,11.716,30.711,0,42.426L188.883,132.283z"/>
	<path style="fill:#C5D3DD;" d="M360.102,130.769L134.42,5.397C122.788-1.098,108.07,0.964,98.634,10.4L72.21,36.823   l190.919,190.919L360.102,130.769z"/>
	<path style="fill:#9FACBA;" d="M506.698,377.674L381.314,151.984l-96.972,96.972l190.919,190.919l26.423-26.423   C511.121,404.015,513.182,389.296,506.698,377.674z"/>
	
		<rect x="81.459" y="396.553" transform="matrix(0.7071 0.7071 -0.7071 0.7071 352.0839 65.9283)" style="fill:#FDBF00;" width="30" height="122.828"/>
	
		<rect x="39.033" y="354.126" transform="matrix(0.7071 0.7071 -0.7071 0.7071 309.6575 83.5019)" style="fill:#FFDA2D;" width="30" height="122.828"/>
	<g>
		<path style="fill:#DEECF1;" d="M245.952,393.327l-42.426,42.426l-42.426-84.853l-84.853-42.426l42.426-42.426l70.64,14.212    L418.41,18.579c19.516-22.486,53.669-26.091,77.427-2.332c23.546,23.546,20.154,57.912-2.332,77.427L231.739,322.687    L245.952,393.327z"/>
	</g>
	<path style="fill:#C5D3DD;" d="M245.952,393.327l-42.426,42.426l-42.426-84.853L495.837,16.247   c23.546,23.546,20.154,57.912-2.332,77.427L231.739,322.687L245.952,393.327z"/>
</g>















</svg>
