<?xml version="1.0" encoding="iso-8859-1"?>
<!-- Generator: Adobe Illustrator 19.0.0, SVG Export Plug-In . SVG Version: 6.00 Build 0)  -->
<svg xmlns="http://www.w3.org/2000/svg" xmlns:xlink="http://www.w3.org/1999/xlink" version="1.1" id="Capa_1" x="0px" y="0px" viewBox="0 0 512.001 512.001" style="enable-background:new 0 0 512.001 512.001;" xml:space="preserve">
<path style="fill:#4DB6AC;" d="M316.855,171.042c-1.609,0-3.245-0.243-4.863-0.757c-8.44-2.684-13.107-11.702-10.422-20.142  L345.76,11.177C347.874,4.521,354.056,0,361.04,0h84.263c8.855,0,16.036,7.179,16.036,16.036s-7.18,16.036-16.036,16.036H372.77  l-40.638,127.79C329.963,166.685,323.652,171.042,316.855,171.042z"/>
<g>
	<path style="fill:#009587;" d="M315.428,159.861c-1.222,3.841-3.823,6.773-7.018,8.715c1.108,0.689,2.283,1.296,3.582,1.707   c1.617,0.517,3.254,0.76,4.863,0.76c6.797,0,13.107-4.358,15.277-11.181L372.77,32.074h-16.704L315.428,159.861z"/>
	<path style="fill:#009587;" d="M445.305,0.002h-16.704c8.855,0,16.036,7.176,16.036,16.036c0,8.855-7.18,16.036-16.036,16.036   h16.704c8.855,0,16.036-7.18,16.036-16.036C461.34,7.179,454.16,0.002,445.305,0.002z"/>
</g>
<path style="fill:#D7CCC8;" d="M384.39,146.507c-2.846-2.286-6.389-3.531-10.038-3.531H137.617c-3.649,0-7.192,1.245-10.038,3.531  C104.662,164.9,86.4,187.533,73.387,212.801h365.195C425.569,187.533,407.307,164.9,384.39,146.507z"/>
<path style="fill:#BBA9A3;" d="M384.39,146.507c-2.846-2.286-6.389-3.531-10.038-3.531h-50.661c3.649,0,7.192,1.245,10.038,3.531  c22.916,18.393,41.178,41.025,54.192,66.293h50.661C425.569,187.533,407.307,164.9,384.39,146.507z"/>
<path style="fill:#6D4C41;" d="M73.387,212.801c-14.745,28.63-22.727,60.648-22.727,93.878c0,113.215,92.109,205.32,205.324,205.32  s205.324-92.105,205.324-205.32c0-33.231-7.983-65.248-22.727-93.879L73.387,212.801L73.387,212.801z"/>
<path style="fill:#4E342E;" d="M438.582,212.801h-50.661c14.744,28.631,22.727,60.648,22.727,93.879  c0,104.633-78.694,191.175-179.994,203.704c8.308,1.026,16.748,1.617,25.33,1.617c113.215,0,205.324-92.105,205.324-205.32  C461.309,273.448,453.326,241.431,438.582,212.801z"/>
<g>
	<circle style="fill:#D7CCC8;" cx="153.751" cy="291.979" r="20.713"/>
	<path style="fill:#D7CCC8;" d="M217.39,318.802c-6.644,0-12.066-5.385-12.066-12.027s5.344-12.027,11.984-12.027h0.083   c6.644,0,12.027,5.385,12.027,12.027C229.417,313.417,224.034,318.802,217.39,318.802z"/>
	<path style="fill:#D7CCC8;" d="M166.612,370.154c-6.644,0-12.066-5.385-12.066-12.027c0-6.642,5.344-12.027,11.984-12.027h0.083   c6.644,0,12.027,5.385,12.027,12.027C178.639,364.769,173.256,370.154,166.612,370.154z"/>
</g>
<g>
</g>
<g>
</g>
<g>
</g>
<g>
</g>
<g>
</g>
<g>
</g>
<g>
</g>
<g>
</g>
<g>
</g>
<g>
</g>
<g>
</g>
<g>
</g>
<g>
</g>
<g>
</g>
<g>
</g>
</svg>
