<?xml version="1.0" encoding="iso-8859-1"?>
<!-- Generator: Adobe Illustrator 19.0.0, SVG Export Plug-In . SVG Version: 6.00 Build 0)  -->
<svg version="1.1" id="Capa_1" xmlns="http://www.w3.org/2000/svg" xmlns:xlink="http://www.w3.org/1999/xlink" x="0px" y="0px"
	 viewBox="0 0 512 512" style="enable-background:new 0 0 512 512;" xml:space="preserve">
<path style="fill:#FFDA44;" d="M468.61,104.136H34.712C15.542,104.136,0,119.678,0,138.847v260.339
	c0,19.17,15.542,34.712,34.712,34.712h266.327c-3.983-11.134-6.014-22.884-5.988-34.712c0-57.509,46.627-104.136,104.136-104.136
	s104.136,46.627,104.136,104.136V138.847C503.322,119.678,487.78,104.136,468.61,104.136z"/>
<path style="fill:#FFCD00;" d="M468.61,52.068H270.232c-11.611,0.009-22.459-5.788-28.898-15.447l-14.058-21.174
	C220.837,5.788,209.989-0.009,198.378,0H34.712C15.542,0,0,15.542,0,34.712v104.136c0-19.17,15.542-34.712,34.712-34.712H468.61
	c19.17,0,34.712,15.542,34.712,34.712V86.78C503.322,67.61,487.78,52.068,468.61,52.068z"/>
<path style="fill:#E6E7E8;" d="M399.186,295.051c-57.509,0-104.136,46.627-104.136,104.136c-0.026,11.828,2.005,23.578,5.988,34.712
	c19.17,54.22,78.666,82.64,132.894,63.471c54.22-19.17,82.64-78.666,63.471-132.894
	C482.686,322.855,443.331,295.034,399.186,295.051z M399.186,468.61c-4.79,0-8.678-3.888-8.678-8.678s3.888-8.678,8.678-8.678
	c4.79,0,8.678,3.888,8.678,8.678S403.977,468.61,399.186,468.61z M399.186,416.542c-6.908,0-13.52,2.751-18.397,7.637
	c10.136-10.162,26.581-10.179,36.743-0.052c0.017,0.017,0.035,0.035,0.052,0.052C412.707,419.293,406.094,416.542,399.186,416.542z
	 M399.186,381.831c-16.115-0.026-31.579,6.378-42.956,17.79c23.726-23.726,62.186-23.726,85.903-0.009c0,0,0,0,0.009,0.009
	C430.766,388.209,415.301,381.805,399.186,381.831z M399.186,347.119c-25.322-0.026-49.612,10.032-67.515,27.943
	c37.298-37.254,97.731-37.254,135.029,0C448.798,357.15,424.509,347.093,399.186,347.119z"/>
<circle style="fill:#FFCD00;" cx="399.186" cy="459.932" r="8.678"/>
<g>
	<path style="fill:#78B9EB;" d="M399.186,512c-47.798-0.017-90.398-30.156-106.331-75.221c-4.322-12.062-6.517-24.784-6.482-37.593
		c0-62.308,50.506-112.814,112.814-112.814S512,336.879,512,399.186S461.494,512,399.186,512z M399.186,303.729
		c-52.693,0.061-95.397,42.765-95.458,95.458c-0.026,10.83,1.822,21.573,5.476,31.77c17.547,49.716,72.071,75.793,121.787,58.247
		s75.793-72.071,58.246-121.787C475.761,329.242,439.669,303.711,399.186,303.729z"/>
	<path style="fill:#78B9EB;" d="M466.701,383.74c-2.274-0.009-4.46-0.92-6.075-2.525c-33.914-33.896-88.88-33.896-122.793,0
		c-3.341,3.436-8.834,3.515-12.271,0.174c-3.436-3.341-3.515-8.834-0.174-12.271c0.069-0.069,0.139-0.139,0.208-0.208
		c40.682-40.63,106.583-40.622,147.265,0c3.402,3.376,3.41,8.878,0.035,12.271c-1.614,1.623-3.81,2.543-6.109,2.56H466.701z"/>
	<path style="fill:#78B9EB;" d="M442.142,408.298c-2.3,0-4.513-0.911-6.135-2.543c-20.332-20.332-53.3-20.341-73.633-0.009
		c0,0,0,0-0.009,0.009c-3.445,3.332-8.938,3.237-12.271-0.208c-3.246-3.367-3.246-8.695,0-12.062c27.11-27.11,71.064-27.11,98.182,0
		l0,0c3.384,3.393,3.384,8.886,0,12.271C446.646,407.387,444.442,408.298,442.142,408.298z"/>
	<path style="fill:#78B9EB;" d="M417.584,432.857c-2.3,0-4.513-0.911-6.135-2.543c-6.856-6.569-17.668-6.569-24.524,0
		c-3.445,3.332-8.938,3.237-12.271-0.208c-3.246-3.367-3.246-8.695,0-12.062c13.72-13.13,35.345-13.13,49.065,0
		c3.384,3.393,3.384,8.886,0,12.271C422.088,431.946,419.883,432.857,417.584,432.857z"/>
	<path style="fill:#78B9EB;" d="M399.186,477.288c-9.589,0-17.356-7.767-17.356-17.356s7.767-17.356,17.356-17.356
		c9.589,0,17.356,7.767,17.356,17.356S408.776,477.288,399.186,477.288z"/>
</g>
<g>
</g>
<g>
</g>
<g>
</g>
<g>
</g>
<g>
</g>
<g>
</g>
<g>
</g>
<g>
</g>
<g>
</g>
<g>
</g>
<g>
</g>
<g>
</g>
<g>
</g>
<g>
</g>
<g>
</g>
</svg>
