<?xml version="1.0" encoding="iso-8859-1"?>
<!-- Generator: Adobe Illustrator 19.0.0, SVG Export Plug-In . SVG Version: 6.00 Build 0)  -->
<svg xmlns="http://www.w3.org/2000/svg" xmlns:xlink="http://www.w3.org/1999/xlink" version="1.1" id="Capa_1" x="0px" y="0px" viewBox="0 0 409.765 409.765" style="enable-background:new 0 0 409.765 409.765;" xml:space="preserve">
<path style="fill:#44C4A1;" d="M380.928,40.5c59.904,97.792,23.552,229.376-81.92,293.888S59.904,371.252,0,273.46"/>
<path style="fill:#EBF0F3;" d="M350.72,58.932c58.88,87.04,23.552,199.68-65.024,253.952s-198.656,36.352-256-57.856"/>
<path style="fill:#E56353;" d="M329.216,71.732c49.152,72.704,22.016,176.128-54.272,223.232s-175.616,25.6-223.232-53.248"/>
<path style="fill:#D15241;" d="M51.712,241.716c48.128,78.336,146.432,99.84,223.232,53.248l-84.48-138.24L51.712,241.716z"/>
<g>
	<path style="fill:#3A556A;" d="M295.424,120.884c4.608,2.56,6.144,8.192,3.072,13.312c-2.56,4.608-16.896,21.504-21.504,18.944   c-4.608-2.56,2.56-23.552,5.12-28.16C285.184,119.86,290.816,118.324,295.424,120.884z"/>
	<path style="fill:#3A556A;" d="M206.336,185.396c4.608,2.56,6.144,8.192,3.072,13.312c-3.072,5.12-16.896,21.504-21.504,18.944   c-4.608-2.56,2.56-23.552,5.12-28.16C195.584,184.884,202.24,182.836,206.336,185.396z"/>
	<path style="fill:#3A556A;" d="M264.704,195.636c4.608,2.56,6.144,8.192,3.072,13.312c-2.56,4.608-16.896,21.504-21.504,18.944   c-4.608-2.56,2.56-23.552,5.12-28.16C254.464,195.124,260.608,193.076,264.704,195.636z"/>
	<path style="fill:#3A556A;" d="M142.848,205.364c4.608,2.56,6.144,8.192,3.072,13.312s-16.896,21.504-21.504,18.944   s2.56-23.552,5.12-28.16C132.608,204.34,138.24,202.804,142.848,205.364z"/>
	<path style="fill:#3A556A;" d="M165.376,247.86c4.608,2.56,6.144,8.192,3.072,13.312s-16.896,21.504-21.504,18.944   c-4.608-2.56,2.56-23.552,5.12-28.16C154.624,247.348,160.768,245.3,165.376,247.86z"/>
	<path style="fill:#3A556A;" d="M223.744,264.244c4.608,2.56,6.144,8.192,3.072,13.312c-2.56,4.608-16.896,21.504-21.504,18.944   c-4.608-2.56,2.56-23.552,5.12-28.16C213.504,263.22,219.136,261.684,223.744,264.244z"/>
	<path style="fill:#3A556A;" d="M331.776,198.196c4.608,2.56,6.144,8.192,3.072,13.312c-2.56,4.608-16.896,21.504-21.504,18.944   c-4.608-2.56,2.56-23.552,5.12-28.16C321.536,197.172,327.168,195.636,331.776,198.196z"/>
	<path style="fill:#3A556A;" d="M243.712,138.292c4.608,2.56,6.144,8.192,3.072,13.312c-2.56,4.608-16.896,21.504-21.504,18.944   c-4.608-2.56,2.56-23.552,5.12-28.16C232.96,137.78,239.104,135.732,243.712,138.292z"/>
	<path style="fill:#3A556A;" d="M345.088,126.516c4.608,2.56,6.144,8.192,3.072,13.312c-2.56,4.608-16.896,21.504-21.504,18.944   c-4.608-2.56,2.56-23.552,5.12-28.16C334.848,126.004,340.992,123.956,345.088,126.516z"/>
	<path style="fill:#3A556A;" d="M101.376,230.452c4.608,2.56,6.144,8.192,3.072,13.312c-2.56,4.608-16.896,21.504-21.504,18.944   c-4.608-2.56,2.56-23.552,5.12-28.16C91.136,229.94,96.768,227.892,101.376,230.452z"/>
	<path style="fill:#3A556A;" d="M286.208,240.18c4.608,2.56,6.144,8.192,3.072,13.312c-2.56,4.608-16.896,21.504-21.504,18.944   c-4.608-2.56,2.56-23.552,5.12-28.16C275.968,239.156,281.6,237.62,286.208,240.18z"/>
</g>
<g>
</g>
<g>
</g>
<g>
</g>
<g>
</g>
<g>
</g>
<g>
</g>
<g>
</g>
<g>
</g>
<g>
</g>
<g>
</g>
<g>
</g>
<g>
</g>
<g>
</g>
<g>
</g>
<g>
</g>
</svg>
