<?xml version="1.0" encoding="iso-8859-1"?>
<!-- Generator: Adobe Illustrator 19.0.0, SVG Export Plug-In . SVG Version: 6.00 Build 0)  -->
<svg version="1.1" id="Layer_1" xmlns="http://www.w3.org/2000/svg" xmlns:xlink="http://www.w3.org/1999/xlink" x="0px" y="0px"
	 viewBox="0 0 512 512" style="enable-background:new 0 0 512 512;" xml:space="preserve">
<path style="fill:#7AB9E8;" d="M216.178,96.711c115.674,0,170.667,91.022,170.667,147.911l-307.2-56.889
	C79.644,131.413,152.462,96.711,216.178,96.711z"/>
<path style="fill:#61AAE4;" d="M363.981,240.389l22.864,4.234c0-56.889-54.992-147.911-170.667-147.911
	c-3.608,0-7.245,0.117-10.896,0.337C310.13,102.871,361.449,185.372,363.981,240.389z"/>
<path style="fill:#D1E5F5;" d="M0,278.756c0-11.378,91.692-136.533,204.8-136.533s204.8,125.156,204.8,136.533
	s-91.692,136.533-204.8,136.533S0,290.133,0,278.756z"/>
<path style="fill:#7AB9E8;" d="M48.356,273.067c0-7.843,6.38-14.222,14.222-14.222s14.222,6.38,14.222,14.222
	s-6.38,14.222-14.222,14.222S48.356,280.909,48.356,273.067z"/>
<path style="fill:#61AAE4;" d="M62.578,258.844c-2.023,0-3.945,0.431-5.689,1.196c5.016,2.199,8.533,7.208,8.533,13.026
	c0,5.819-3.517,10.827-8.533,13.026c1.744,0.765,3.666,1.196,5.689,1.196c7.843,0,14.222-6.38,14.222-14.222
	S70.42,258.844,62.578,258.844z"/>
<path style="fill:#7AB9E8;" d="M386.844,415.289c-56.554,0-102.4-45.846-102.4-102.4
	C340.999,312.889,386.844,358.735,386.844,415.289z"/>
<path style="fill:#61AAE4;" d="M364.057,412.74c7.328,1.666,14.955,2.549,22.787,2.549c0-56.554-45.846-102.4-102.4-102.4
	c0,0.852,0.011,1.702,0.032,2.549C329.265,325.616,362.894,365.152,364.057,412.74z"/>
<g>
	<path style="fill:#98C8ED;" d="M512,176.356c0,56.554-45.846,102.4-102.4,102.4C409.6,222.201,455.446,176.356,512,176.356z"/>
	<path style="fill:#98C8ED;" d="M512,381.156c-56.554,0-102.4-45.846-102.4-102.4C466.154,278.756,512,324.601,512,381.156z"/>
</g>
<g>
	<path style="fill:#7AB9E8;" d="M489.213,178.904c-1.163,47.589-34.792,87.124-79.58,97.303c-0.022,0.848-0.033,1.696-0.033,2.549
		c56.554,0,102.4-45.846,102.4-102.4C504.168,176.356,496.541,177.238,489.213,178.904z"/>
	<path style="fill:#7AB9E8;" d="M489.213,378.607c7.328,1.666,14.955,2.549,22.787,2.549c0-56.554-45.846-102.4-102.4-102.4
		c0,0.852,0.011,1.701,0.032,2.549C454.421,291.483,488.05,331.018,489.213,378.607z"/>
</g>
<path style="fill:#B4D8F1;" d="M108.378,170.904c28.736-16.783,61.558-28.682,96.422-28.682c113.108,0,204.8,125.156,204.8,136.533
	s-91.692,136.533-204.8,136.533c-34.864,0-67.686-11.898-96.422-28.682c8.435-27.658,16.778-65.666,16.778-107.851
	S116.813,198.563,108.378,170.904z"/>
<path style="fill:#98C8ED;" d="M124.22,254.15c54.873-30.068,125.125-21.872,171.602,24.606
	c-46.477,46.477-116.729,54.674-171.602,24.606c0.594-8.008,0.935-16.219,0.935-24.606S124.814,262.158,124.22,254.15z"/>
<path style="fill:#7AB9E8;" d="M177.029,237.409c31.275,3.593,61.605,17.357,85.596,41.347
	c-23.991,23.991-54.32,37.754-85.596,41.347c42.304,4.867,86.343-8.896,118.793-41.347
	C263.372,246.305,219.333,232.541,177.029,237.409z"/>
<path style="fill:#98C8ED;" d="M204.8,142.222c-5.761,0-11.465,0.331-17.105,0.95c105.14,11.465,187.772,124.782,187.772,135.583
	c0,10.801-82.632,124.118-187.772,135.583c5.64,0.619,11.345,0.95,17.105,0.95c113.108,0,204.8-125.156,204.8-136.533
	S317.908,142.222,204.8,142.222z"/>
<g>
</g>
<g>
</g>
<g>
</g>
<g>
</g>
<g>
</g>
<g>
</g>
<g>
</g>
<g>
</g>
<g>
</g>
<g>
</g>
<g>
</g>
<g>
</g>
<g>
</g>
<g>
</g>
<g>
</g>
</svg>
