<?xml version="1.0" encoding="iso-8859-1"?>
<!-- Generator: Adobe Illustrator 19.0.0, SVG Export Plug-In . SVG Version: 6.00 Build 0)  -->
<svg version="1.1" id="Capa_1" xmlns="http://www.w3.org/2000/svg" xmlns:xlink="http://www.w3.org/1999/xlink" x="0px" y="0px"
	 viewBox="0 0 490.667 490.667" style="enable-background:new 0 0 490.667 490.667;" xml:space="preserve">
<path style="fill:#F1F2F2;" d="M490.667,160v192c0,17.707-14.293,32-32,32h-21.333H384V224c0-17.707-14.293-32-32-32H117.333
	c0,0,0-21.333,0-42.667S138.667,128,138.667,128H384h74.667C476.373,128,490.667,142.293,490.667,160z"/>
<path style="fill:#65CCD8;" d="M32,192c-17.707,0-32,14.293-32,32v-74.667V32C0,14.293,14.293,0,32,0h320c17.707,0,32,14.293,32,32
	v42.667V128H138.667c0,0-21.333,0-21.333,21.333s0,42.667,0,42.667H32z"/>
<path style="fill:#FED049;" d="M384,384v32c0,17.707-14.293,32-32,32H234.667L192,490.667L149.333,448H32c-17.707,0-32-14.293-32-32
	V224c0-17.707,14.293-32,32-32h85.333H352c17.707,0,32,14.293,32,32V384z"/>
<g>
	<path style="fill:#F6B445;" d="M309.333,266.667H74.667C68.768,266.667,64,261.888,64,256s4.768-10.667,10.667-10.667h234.667
		c5.899,0,10.667,4.779,10.667,10.667S315.232,266.667,309.333,266.667z"/>
	<path style="fill:#F6B445;" d="M309.333,330.667H74.667C68.768,330.667,64,325.888,64,320s4.768-10.667,10.667-10.667h234.667
		c5.899,0,10.667,4.779,10.667,10.667S315.232,330.667,309.333,330.667z"/>
	<path style="fill:#F6B445;" d="M202.667,394.667h-128C68.768,394.667,64,389.888,64,384c0-5.888,4.768-10.667,10.667-10.667h128
		c5.899,0,10.667,4.779,10.667,10.667C213.333,389.888,208.565,394.667,202.667,394.667z"/>
</g>
<g>
</g>
<g>
</g>
<g>
</g>
<g>
</g>
<g>
</g>
<g>
</g>
<g>
</g>
<g>
</g>
<g>
</g>
<g>
</g>
<g>
</g>
<g>
</g>
<g>
</g>
<g>
</g>
<g>
</g>
</svg>
