<?xml version="1.0" encoding="iso-8859-1"?>
<!-- Generator: Adobe Illustrator 19.0.0, SVG Export Plug-In . SVG Version: 6.00 Build 0)  -->
<svg version="1.1" id="Layer_1" xmlns="http://www.w3.org/2000/svg" xmlns:xlink="http://www.w3.org/1999/xlink" x="0px" y="0px"
	 viewBox="0 0 512 512" style="enable-background:new 0 0 512 512;" xml:space="preserve">
<path style="fill:#E1744E;" d="M473.179,512H38.82V199.235h434.36V512z"/>
<path style="fill:#DD5323;" d="M473.179,512H256V199.235h217.179V512z"/>
<path style="fill:#67B7FC;" d="M415.136,117.62l-18.694-27.668c8.543-5.771,13.641-15.358,13.641-25.646
	c0-17.046-13.869-30.915-30.915-30.915c-27.982,0-71.028,29.674-85.254,41.107l-20.919-26.026C279.17,43.511,334.592,0,379.169,0
	c35.458,0,64.306,28.847,64.306,64.306C443.475,85.7,432.88,105.63,415.136,117.62z"/>
<path style="fill:#98CEFB;" d="M96.864,117.62C79.12,105.63,68.525,85.7,68.525,64.306C68.525,28.847,97.371,0,132.831,0
	c44.577,0,99.999,43.511,106.172,48.472l-20.919,26.026c-14.255-11.429-57.377-41.107-85.254-41.107
	c-17.046,0-30.915,13.869-30.915,30.915c0,10.287,5.1,19.873,13.641,25.646L96.864,117.62z"/>
<path style="fill:#F3DA49;" d="M256,119.673c-21.63,0-39.226-17.597-39.226-39.226S234.37,41.222,256,41.222
	s39.226,17.597,39.226,39.226S277.63,119.673,256,119.673z"/>
<path style="fill:#EAAB44;" d="M256,119.673V41.222c21.63,0,39.226,17.597,39.226,39.226S277.63,119.673,256,119.673z"/>
<path style="fill:#F3DA49;" d="M512,232.626H0V86.472h512V232.626z"/>
<path style="fill:#EAAB44;" d="M512,232.626H256V86.472h256V232.626z"/>
<path style="fill:#67B7FC;" d="M294.773,512h-77.547V86.472h77.547V512z"/>
<path style="fill:#5190E3;" d="M294.773,512H256V86.472h38.773V512z"/>
<g>
</g>
<g>
</g>
<g>
</g>
<g>
</g>
<g>
</g>
<g>
</g>
<g>
</g>
<g>
</g>
<g>
</g>
<g>
</g>
<g>
</g>
<g>
</g>
<g>
</g>
<g>
</g>
<g>
</g>
</svg>
