<svg id="Layer_1" enable-background="new 0 0 503.842 503.842" height="512" viewBox="0 0 503.842 503.842" width="512" xmlns="http://www.w3.org/2000/svg"><g id="XMLID_1937_"><path id="XMLID_2008_" d="m95.153 0c-23.578 7.859-41.738 24.531-52.038 45.132l13.808 14.376 19.606 3.696 37.933-33.896c-6.754-10.25-12.556-19.058-19.309-29.308z" fill="#97de3d"/><path id="XMLID_2005_" d="m43.115 45.132c-10.301 20.601-12.742 45.132-4.883 68.709h30.731l7.481-50.487c.027-.051.058-.1.085-.15z" fill="#59c36a"/><path id="XMLID_2002_" d="m114.461 29.308c-16.745 6.722-29.858 18.965-37.932 33.897l10.394 16.282 15.974-2.021 28.643-22.235c-5.973-9.065-11.107-16.858-17.079-25.923z" fill="#f0f7ff"/><path id="XMLID_2001_" d="m76.529 63.205c-8.247 15.23-11.146 33.115-7.566 50.637h9.635l12.889 7 8.524-7 2.885-36.376z" fill="#dfe7f4"/><path id="XMLID_1998_" d="m102.896 77.466 24.692 21.71 42.564 14.666c-4.691-7.121-33.911-51.472-38.613-58.611-12.768 3.207-22.819 11.474-28.643 22.235z" fill="#ff637b"/><path id="XMLID_1995_" d="m102.896 77.466c-5.873 10.855-7.284 23.886-2.885 36.376l35.071 10 35.071-10z" fill="#e63950"/><path id="XMLID_1994_" d="m266.093 351.342-7.495 15.245v107.255l4.991 10 10-10 10-52.333-10-53.667z" fill="#dfe7f4"/><path id="XMLID_1991_" d="m288.598 473.842v-107.254l-8.259-10.996-6.75 12.25v106l7.504 10z" fill="#c7cfe1"/><path id="XMLID_1986_" d="m78.597 113.842v99.458c0 43.553 35.228 79.542 79.542 79.542h26.708c7.162 42.508 44.229 74.996 88.742 75l6.75-127-6.75-127z" fill="#f0f7ff"/><path id="XMLID_1985_" d="m273.589 113.842v254h.009c44.517 0 81.588-32.489 88.75-75h26.708c44.239 0 79.542-35.923 79.542-79.542v-99.458z" fill="#dfe7f4"/><path id="XMLID_1982_" d="m108.597 188.842v24.458c0 27.125 21.938 49.542 49.542 49.542h55.458v15c0 33.081 26.911 59.995 59.992 60l10-52.667-10-37.335-4.75-18.748c.522-3.947-1.891 14.299 5.104-38.604l-.354-1.646z" fill="#ff637b"/><path id="XMLID_1978_" d="m273.589 188.842v149h.009c33.083 0 60-26.916 60-60v-15h55.458c27.556 0 49.542-22.375 49.542-49.542v-24.458h-132.544l-18.632 12.917-12.567-12.917z" fill="#e63950"/><path id="XMLID_1977_" d="m198.597 473.842v30h74.992l10-15-10-15c-7.459 0-66.458 0-74.992 0z" fill="#f0f7ff"/><path id="XMLID_1976_" d="m348.598 473.842c-8.445 0-67.57 0-75.009 0v30h75.009z" fill="#dfe7f4"/><path id="XMLID_1973_" d="m470.253 37.75-3.312-29.816-145.001 16.111-47.085 164.797 13.734 5.75 17.466-5.75 39.201-137.203z" fill="#c7cfe1"/><path id="XMLID_1175_" d="m259.174 243.721 14.415 4.119 10-14.498-10-40.07z" fill="#e63950"/><path id="XMLID_1171_" d="m306.055 188.842h-31.2l-1.266 4.43v54.568l14.431 4.123z" fill="#cd0000"/></g></svg>