<svg id="Capa_1" enable-background="new 0 0 512 512" height="512" viewBox="0 0 512 512" width="512" xmlns="http://www.w3.org/2000/svg"><g><path d="m369.503 511.999h-227.006c-17.293 0-31.312-14.019-31.312-31.312v-449.374c0-17.293 14.019-31.312 31.312-31.312h227.006c17.293 0 31.312 14.019 31.312 31.312v449.375c0 17.293-14.019 31.311-31.312 31.311z" fill="#acacac"/><path d="m400.815 31.314v449.373c0 17.296-14.017 31.314-31.313 31.314h-20.493c17.296 0 31.313-14.017 31.313-31.314v-449.373c-.001-17.297-14.018-31.314-31.314-31.314h20.493c17.296 0 31.314 14.017 31.314 31.314z" fill="#9c9c9c"/><path d="m318.361 37.213-8.337 14.162c-2.187 3.716-6.177 5.997-10.489 5.997h-43.535-43.535c-4.312 0-8.302-2.281-10.489-5.997l-8.336-14.162c-2.187-3.716-6.177-5.997-10.489-5.997h-23.833c-6.722 0-12.171 5.449-12.171 12.171v425.225c0 6.722 5.449 12.171 12.171 12.171h96.682 96.683c6.722 0 12.171-5.449 12.171-12.171v-425.224c0-6.722-5.449-12.171-12.171-12.171h-23.833c-4.312-.001-8.302 2.28-10.489 5.996z" fill="#d8ecfe"/><path d="m364.849 43.384v425.232c0 6.722-5.441 12.173-12.163 12.173h-20.493c6.722 0 12.163-5.451 12.163-12.173v-425.232c0-6.722-5.441-12.173-12.163-12.173h20.493c6.722 0 12.163 5.451 12.163 12.173z" fill="#c4e2ff"/><path d="m320.888 288.197h-129.776c-5.114 0-9.259-4.146-9.259-9.259v-119.18c0-5.114 4.146-9.259 9.259-9.259h129.776c5.114 0 9.259 4.146 9.259 9.259v119.18c0 5.114-4.145 9.259-9.259 9.259z" fill="#f9f3f1"/><path d="m330.144 159.754v119.188c0 5.113-4.14 9.252-9.253 9.252h-20.493c5.113 0 9.253-4.14 9.253-9.252v-119.188c0-5.113-4.14-9.253-9.253-9.253h20.493c5.113.001 9.253 4.14 9.253 9.253z" fill="#efe2dd"/><g><g><path d="m239.12 215.309h-22.692c-6.983 0-12.663-5.68-12.663-12.662v-20.086c0-6.983 5.68-12.663 12.663-12.663h22.692c6.983 0 12.663 5.68 12.663 12.663v20.086c0 6.982-5.681 12.662-12.663 12.662zm-19.921-15.434h17.15v-14.543h-17.15z" fill="#e1d3ce"/></g><g><path d="m295.573 215.309h-22.693c-6.983 0-12.663-5.68-12.663-12.662v-20.086c0-6.983 5.68-12.663 12.663-12.663h22.692c6.983 0 12.663 5.68 12.663 12.663v20.086c.001 6.982-5.68 12.662-12.662 12.662zm-19.921-15.434h17.15v-14.543h-17.15z" fill="#e1d3ce"/></g><g><path d="m239.12 268.797h-22.692c-6.983 0-12.663-5.68-12.663-12.663v-20.086c0-6.982 5.68-12.662 12.663-12.662h22.692c6.983 0 12.663 5.68 12.663 12.662v20.086c0 6.983-5.681 12.663-12.663 12.663zm-19.921-15.434h17.15v-14.543h-17.15z" fill="#e1d3ce"/></g><g><path d="m289.072 268.797h-9.692c-10.567 0-19.163-8.596-19.163-19.163 0-5.987 2.858-11.712 7.644-15.315 3.405-2.564 8.243-1.881 10.807 1.524 2.563 3.405 1.881 8.243-1.524 10.807-.949.714-1.493 1.802-1.493 2.985 0 2.056 1.673 3.728 3.729 3.728h9.692c2.056 0 3.729-1.673 3.729-3.728v-18.531c0-4.262 3.455-7.717 7.717-7.717s7.717 3.455 7.717 7.717v18.531c.001 10.566-8.596 19.162-19.163 19.162z" fill="#e1d3ce"/></g></g><path d="m325.458 361.502h-138.916c-2.59 0-4.689-2.099-4.689-4.689v-32.36c0-2.59 2.099-4.689 4.689-4.689h138.917c2.59 0 4.689 2.099 4.689 4.689v32.36c-.001 2.59-2.1 4.689-4.69 4.689z" fill="#8ac9fe"/><path d="m330.144 324.457v32.359c0 2.582-2.101 4.682-4.683 4.682h-20.493c2.582 0 4.683-2.101 4.683-4.682v-32.359c0-2.592-2.101-4.693-4.683-4.693h20.493c2.583 0 4.683 2.101 4.683 4.693z" fill="#60b7ff"/><g><path d="m280.674 38.933h-49.348c-4.262 0-7.717-3.455-7.717-7.717s3.455-7.717 7.717-7.717h49.348c4.262 0 7.717 3.455 7.717 7.717s-3.455 7.717-7.717 7.717z" fill="#838383"/></g></g></svg>