<?xml version="1.0" encoding="iso-8859-1"?>
<!-- Generator: Adobe Illustrator 19.0.0, SVG Export Plug-In . SVG Version: 6.00 Build 0)  -->
<svg version="1.1" id="Capa_1" xmlns="http://www.w3.org/2000/svg" xmlns:xlink="http://www.w3.org/1999/xlink" x="0px" y="0px"
	 viewBox="0 0 512 512" style="enable-background:new 0 0 512 512;" xml:space="preserve">
<path style="fill:#8AD7F8;" d="M490.731,270.299l-48.704-114.88c-3.104-7.339-10.315-12.107-18.283-12.107h-99.339
	c-10.965,0-19.851,8.875-19.851,19.851v177.003h187.776v-62.123C492.309,275.376,491.776,272.731,490.731,270.299"/>
<path style="fill:#415A6B;" d="M349.323,234.256v-59.147c0-2.933,2.4-5.333,5.333-5.333h61.173c2.144,0,4.075,1.291,4.907,3.253
	l33.344,78.645c1.685,3.957-1.771,8.171-5.995,7.317l-94.507-19.499C351.104,238.96,349.323,236.773,349.323,234.256"/>
<path style="fill:#E8EAE9;" d="M490.624,340.176H21.365C9.568,340.176,0,349.733,0,361.552c0,11.787,9.568,21.365,21.365,21.365
	h469.259c11.819,0,21.376-9.579,21.376-21.365C512,349.733,502.443,340.176,490.624,340.176"/>
<path style="fill:#F3705A;" d="M284.683,68.731H19.84C8.885,68.731,0,77.605,0,88.592v231.733c0,10.976,8.885,19.851,19.84,19.851
	h284.693V88.592C304.544,77.605,295.659,68.731,284.683,68.731"/>
<g>
	<path style="fill:#F05540;" d="M50.891,101.819c-9.365,0-16.971,7.605-16.971,16.981v171.339c0,9.355,7.605,16.96,16.971,16.96
		s16.971-7.605,16.971-16.96V118.8C67.861,109.424,60.256,101.819,50.891,101.819"/>
	<path style="fill:#F05540;" d="M118.763,101.819c-9.365,0-16.971,7.605-16.971,16.981v171.339c0,9.355,7.605,16.96,16.971,16.96
		s16.971-7.605,16.971-16.96V118.8C135.733,109.424,128.128,101.819,118.763,101.819"/>
	<path style="fill:#F05540;" d="M186.624,101.819c-9.365,0-16.971,7.605-16.971,16.981v171.339c0,9.355,7.605,16.96,16.971,16.96
		s16.971-7.605,16.971-16.96V118.8C203.595,109.424,195.989,101.819,186.624,101.819"/>
	<path style="fill:#F05540;" d="M254.485,101.819c-9.365,0-16.971,7.605-16.971,16.981v171.339c0,9.355,7.605,16.96,16.971,16.96
		s16.971-7.605,16.971-16.96V118.8C271.456,109.424,263.851,101.819,254.485,101.819"/>
</g>
<path style="fill:#415A6B;" d="M169.6,382.917c0,33.333-27.029,60.352-60.363,60.352c-33.344,0-60.373-27.019-60.373-60.352
	c0-33.355,27.029-60.352,60.373-60.352C142.571,322.565,169.6,349.563,169.6,382.917"/>
<path style="fill:#E8EAE9;" d="M137.269,382.917c0,15.477-12.565,28.021-28.032,28.021c-15.477,0-28.043-12.544-28.043-28.021
	c0-15.477,12.565-28.043,28.043-28.043C124.704,354.885,137.269,367.44,137.269,382.917"/>
<path style="fill:#415A6B;" d="M464.501,382.917c0,33.333-27.029,60.352-60.363,60.352c-33.344,0-60.373-27.019-60.373-60.352
	c0-33.355,27.029-60.352,60.373-60.352C437.472,322.565,464.501,349.563,464.501,382.917"/>
<path style="fill:#E8EAE9;" d="M432.171,382.917c0,15.477-12.565,28.021-28.043,28.021c-15.467,0-28.032-12.544-28.032-28.021
	c0-15.477,12.565-28.043,28.032-28.043C419.605,354.885,432.171,367.44,432.171,382.917"/>
<g>
</g>
<g>
</g>
<g>
</g>
<g>
</g>
<g>
</g>
<g>
</g>
<g>
</g>
<g>
</g>
<g>
</g>
<g>
</g>
<g>
</g>
<g>
</g>
<g>
</g>
<g>
</g>
<g>
</g>
</svg>
