<?xml version="1.0" encoding="iso-8859-1"?>
<!-- Generator: Adobe Illustrator 19.0.0, SVG Export Plug-In . SVG Version: 6.00 Build 0)  -->
<svg xmlns="http://www.w3.org/2000/svg" xmlns:xlink="http://www.w3.org/1999/xlink" version="1.1" id="Layer_1" x="0px" y="0px" viewBox="0 0 512 512" style="enable-background:new 0 0 512 512;" xml:space="preserve">
<rect x="221.867" y="364.8" style="fill:#344A5E;" width="57.6" height="107.733"/>
<rect x="23.467" y="38.4" style="fill:#E8EAE9;" width="466.133" height="290.133"/>
<path style="fill:#FFD15C;" d="M402.133,512C361.6,480,311.467,461.867,256,461.867S150.4,480,109.867,512H402.133z"/>
<g>
	<path style="fill:#66C6B9;" d="M342.4,169.6l-8.533,30.933l-29.867-6.4l20.267,34.133h-50.133v-18.133l-38.4,40.533l38.4,39.467   V272H326.4c6.4,0,11.733-3.2,14.933-8.533L364.8,224c3.2-5.333,3.2-11.733,0-17.067L342.4,169.6z"/>
	<path style="fill:#66C6B9;" d="M209.067,250.667L230.4,227.2h-43.733l29.867-49.067l14.933,8.533l-14.933-53.333l-54.4,12.8   l16,8.533L147.2,206.933c-3.2,5.333-3.2,11.733,0,17.067l23.467,39.467C173.867,268.8,179.2,272,185.6,272h45.867L209.067,250.667z   "/>
	<path style="fill:#66C6B9;" d="M320,131.2l-25.6-42.667C291.2,83.2,285.867,80,279.467,80h-46.933c-6.4,0-11.733,3.2-14.933,8.533   l-17.067,28.8l28.8-7.467l8.533,30.933l17.067-27.733l24.533,41.6l-16,8.533l54.4,12.8l14.933-53.333L320,131.2z"/>
</g>
<g>
	<path style="fill:#415A6B;" d="M512,23.467L512,23.467C512,10.667,501.333,0,488.533,0H23.467C10.667,0,0,10.667,0,23.467l0,0   c0,12.8,10.667,23.467,23.467,23.467H489.6C501.333,45.867,512,36.267,512,23.467z"/>
	<path style="fill:#415A6B;" d="M512,347.733L512,347.733c0-12.8-10.667-23.467-23.467-23.467H23.467   C10.667,324.267,0,334.933,0,347.733l0,0c0,12.8,10.667,23.467,23.467,23.467H489.6C501.333,371.2,512,360.533,512,347.733z"/>
</g>
<g>
</g>
<g>
</g>
<g>
</g>
<g>
</g>
<g>
</g>
<g>
</g>
<g>
</g>
<g>
</g>
<g>
</g>
<g>
</g>
<g>
</g>
<g>
</g>
<g>
</g>
<g>
</g>
<g>
</g>
</svg>
