<?xml version="1.0" encoding="iso-8859-1"?>
<!-- Generator: Adobe Illustrator 19.0.0, SVG Export Plug-In . SVG Version: 6.00 Build 0)  -->
<svg xmlns="http://www.w3.org/2000/svg" xmlns:xlink="http://www.w3.org/1999/xlink" version="1.1" id="Capa_1" x="0px" y="0px" viewBox="0 0 512 512" style="enable-background:new 0 0 512 512;" xml:space="preserve">
<path d="M0,355.2v-324c0-5.6,4.8-10.4,10.4-10.4h491.2c5.6,0,10.4,4.8,10.4,10.4v324H0z"/>
<g>
	<path style="fill:#CFDCE5;" d="M512,355.2v41.6c0,5.6-4.8,10.4-10.4,10.4H10.4c-5.6,0-10.4-4.8-10.4-10.4v-41.6H512z"/>
	<rect x="146.4" y="480.8" style="fill:#CFDCE5;" width="219.2" height="10.4"/>
</g>
<polygon style="fill:#AAC1CE;" points="328.8,480.8 183.2,480.8 193.6,407.2 318.4,407.2 "/>
<rect x="20.8" y="41.6" style="fill:#FFFFFF;" width="470.4" height="292.8"/>
<polygon style="fill:#8BA0AE;" points="318.4,407.2 193.6,407.2 187.792,448.28 320.272,420.424 "/>
<rect x="65" y="75.248" style="fill:#25B6D2;" width="382" height="74"/>
<rect x="65" y="188" style="fill:#E04F5F;" width="222" height="146.4"/>
<rect x="317.336" y="188" style="fill:#FFD983;" width="129.664" height="146.4"/>
<g>
</g>
<g>
</g>
<g>
</g>
<g>
</g>
<g>
</g>
<g>
</g>
<g>
</g>
<g>
</g>
<g>
</g>
<g>
</g>
<g>
</g>
<g>
</g>
<g>
</g>
<g>
</g>
<g>
</g>
</svg>
