<svg id="Layer_1" enable-background="new 0 0 1600 1600" height="512" viewBox="0 0 1600 1600" width="512" xmlns="http://www.w3.org/2000/svg"><g><path d="m1568 800c0 49.9-44.7 94.8-54.1 142-9.6 48.6 14.3 107.2-4.2 151.9-18.9 45.5-77.4 69.9-104.5 110.4-27.3 40.8-27.6 104.1-62.2 138.7s-97.9 34.9-138.7 62.2c-40.5 27.1-64.8 85.6-110.4 104.5-44.8 18.6-103.3-5.4-151.9 4.2-47.2 9.3-92.1 54.1-142 54.1s-94.8-44.7-142-54.1c-48.6-9.6-107.2 14.3-151.9-4.2-45.5-18.9-69.9-77.4-110.4-104.5-40.8-27.3-104.1-27.6-138.7-62.2s-34.9-97.9-62.2-138.7c-27.1-40.5-85.6-64.8-104.5-110.4-18.6-44.8 5.4-103.3-4.2-151.9-9.4-47.2-54.1-92.1-54.1-142s44.7-94.8 54.1-142c9.6-48.6-14.3-107.2 4.2-151.9 18.9-45.5 77.4-69.9 104.5-110.4 27.3-40.8 27.6-104.1 62.2-138.7s97.9-34.9 138.7-62.2c40.5-27.1 64.8-85.6 110.4-104.5 44.8-18.6 103.3 5.4 151.9-4.2 47.2-9.4 92.1-54.1 142-54.1s94.8 44.7 142 54.1c48.6 9.6 107.2-14.3 151.9 4.2 45.5 18.9 69.9 77.4 110.4 104.5 40.8 27.3 104.1 27.6 138.7 62.2s34.9 97.9 62.2 138.7c27.1 40.5 85.6 64.8 104.5 110.4 18.6 44.8-5.4 103.3 4.2 151.9 9.4 47.2 54.1 92.1 54.1 142z" fill="#f59c40"/><path d="m1431.3 800c0 41.1-36.8 78-44.4 116.8-7.9 40 11.8 88.1-3.5 124.9-15.5 37.4-63.6 57.5-85.9 90.7-22.4 33.5-22.7 85.6-51.1 114s-80.5 28.7-114 51.1c-33.3 22.3-53.3 70.4-90.7 85.9-36.8 15.3-84.9-4.4-124.9 3.5-38.8 7.7-75.7 44.4-116.8 44.4-41 0-78-36.8-116.8-44.4-40-7.9-88.1 11.8-124.9-3.5-37.4-15.5-57.5-63.6-90.7-85.9-33.5-22.4-85.6-22.7-114-51.1s-28.7-80.5-51.1-114c-22.3-33.3-70.4-53.3-85.9-90.7-15.3-36.8 4.4-84.9-3.5-124.9-7.7-38.8-44.4-75.7-44.4-116.8 0-41 36.8-78 44.4-116.8 7.9-40-11.8-88.1 3.5-124.9 15.5-37.4 63.6-57.5 85.9-90.7 22.4-33.5 22.7-85.6 51.1-114s80.5-28.7 114-51.1c33.3-22.3 53.3-70.4 90.7-85.9 36.8-15.3 84.9 4.4 124.9-3.5 38.8-7.7 75.7-44.4 116.8-44.4s78 36.8 116.8 44.4c40 7.9 88.1-11.8 124.9 3.5 37.4 15.5 57.5 63.6 90.7 85.9 33.5 22.4 85.6 22.7 114 51.1s28.7 80.5 51.1 114c22.3 33.3 70.4 53.3 85.9 90.7 15.3 36.8-4.4 84.9 3.5 124.9 7.6 38.8 44.4 75.8 44.4 116.8z" fill="#f2bd5a"/><g fill="#c75c29"><path d="m864.1 493.1c0 98.5-64.1 177.2-64.1 177.2s-64.1-78.7-64.1-177.2c0-35.4 28.7-64.1 64.1-64.1s64.1 28.7 64.1 64.1z"/><path d="m628.3 537.7c69.6 69.6 79.9 170.6 79.9 170.6s-101-10.3-170.6-79.9c-25-25-25-65.6 0-90.7s65.7-25.1 90.7 0z"/><path d="m493.1 735.9c98.5 0 177.2 64.1 177.2 64.1s-78.7 64.1-177.2 64.1c-35.4 0-64.1-28.7-64.1-64.1s28.7-64.1 64.1-64.1z"/><path d="m537.7 971.7c69.6-69.6 170.6-79.9 170.6-79.9s-10.3 101-79.9 170.6c-25 25-65.6 25-90.7 0-25.1-25.1-25.1-65.7 0-90.7z"/><path d="m735.9 1106.9c0-98.5 64.1-177.2 64.1-177.2s64.1 78.7 64.1 177.2c0 35.4-28.7 64.1-64.1 64.1s-64.1-28.7-64.1-64.1z"/><path d="m971.7 1062.3c-69.6-69.6-79.9-170.6-79.9-170.6s101 10.3 170.6 79.9c25 25 25 65.6 0 90.7-25.1 25.1-65.7 25.1-90.7 0z"/><path d="m1106.9 864.1c-98.5 0-177.2-64.1-177.2-64.1s78.7-64.1 177.2-64.1c35.4 0 64.1 28.7 64.1 64.1s-28.7 64.1-64.1 64.1z"/><path d="m1062.3 628.3c-69.6 69.6-170.6 79.9-170.6 79.9s10.3-101 79.9-170.6c25-25 65.6-25 90.7 0 25.1 25.1 25.1 65.7 0 90.7z"/></g><circle cx="800" cy="800" fill="#f59c40" r="164.9"/></g></svg>