<svg id="Layer_1" height="512" viewBox="0 0 32 32" width="512" xmlns="http://www.w3.org/2000/svg" data-name="Layer 1"><path d="m26 3h-10a1 1 0 0 0 -1 1v2a3 3 0 0 0 3 3h10a1 1 0 0 0 1-1v-2a3 3 0 0 0 -3-3z" fill="#ffce66"/><path d="m28 7h-10a1 1 0 0 1 -1-1v-2a3 3 0 0 0 -3-3h-10a3 3 0 0 0 -3 3v19a3 3 0 0 0 3 3h24a3 3 0 0 0 3-3v-13a3 3 0 0 0 -3-3z" fill="#ffd98c"/><path d="m3 23v-19a3 3 0 0 1 3-3h-2a3 3 0 0 0 -3 3v19a3 3 0 0 0 3 3h2a3 3 0 0 1 -3-3z" fill="#ffce66"/><circle cx="24" cy="24" fill="#fb8890" r="7"/><path d="m26 23h-1v-1a1 1 0 0 0 -2 0v1h-1a1 1 0 0 0 0 2h1v1a1 1 0 0 0 2 0v-1h1a1 1 0 0 0 0-2z" fill="#d5eafe"/></svg>