<svg height="512" viewBox="0 0 64 64" width="512" xmlns="http://www.w3.org/2000/svg"><g id="Icon"><path d="m33.667 9.689a8.031 8.031 0 0 0 -7.746-5.689h-7.091a1 1 0 0 0 -1 1 8.055 8.055 0 0 0 8.091 8h5.508a1 1 0 0 0 .89-.543 12.162 12.162 0 0 1 1.181-1.867 1 1 0 0 0 .167-.901z" fill="#81c785"/><path d="m43.049 4.7a2.987 2.987 0 0 0 -2.452-.65 14.164 14.164 0 0 0 -11.622 13.918 1 1 0 0 0 .648.937 14.664 14.664 0 0 1 1.895.866 1 1 0 0 0 .964 0 14.523 14.523 0 0 1 1.9-.867 1 1 0 0 0 .648-.934 8.112 8.112 0 0 1 6.67-7.97 2.992 2.992 0 0 0 2.444-2.964 3.036 3.036 0 0 0 -1.095-2.336z" fill="#a1887f"/><path d="m39.475 16a16.7 16.7 0 0 0 -7.475 1.767 16.7 16.7 0 0 0 -7.475-1.767 16.444 16.444 0 0 0 -16.525 16.324c0 8.255 6.978 27.676 16.525 27.676a16.7 16.7 0 0 0 7.475-1.767 16.7 16.7 0 0 0 7.475 1.767c9.547 0 16.525-19.421 16.525-27.676a16.444 16.444 0 0 0 -16.525-16.324z" fill="#e57373"/></g></svg>