<svg id="Cloud" enable-background="new 0 0 512 512" height="512" viewBox="0 0 512 512" width="512" xmlns="http://www.w3.org/2000/svg"><g><path d="m359.465 216.007c-9.723-.299-19.133.909-27.99 3.399-6.407-48.586-47.985-86.086-98.32-86.086-54.774 0-99.184 44.41-99.184 99.184 0 .317 0 .634.011.94-39.085 2.558-69.982 35.073-69.982 74.804v1.122c0 37.903 30.727 68.63 68.63 68.63h247.58c37.903 0 68.63-30.727 68.63-68.63v-.03c.001-50.022-39.377-91.793-89.375-93.333z" fill="#99d1ff"/><path d="m356.652 216.304c-8.875-.049-17.469 1.157-25.597 3.443-6.407-48.586-47.985-86.086-98.32-86.086-36.955 0-69.189 20.217-86.252 50.192 14.453-8.228 31.173-12.932 48.992-12.932 50.335 0 91.914 37.5 98.32 86.086 8.128-2.286 16.722-3.491 25.597-3.443 50.95.279 91.769 42.455 91.769 93.406 0 9.275-1.85 18.115-5.185 26.185 24.911-10.293 42.445-34.817 42.445-63.445-.001-50.951-40.819-93.127-91.769-93.406z" fill="#88bee2"/></g></svg>