<svg id="Capa_1" enable-background="new 0 0 511.999 511.999" height="512" viewBox="0 0 511.999 511.999" width="512" xmlns="http://www.w3.org/2000/svg"><g clip-rule="evenodd" fill-rule="evenodd"><path d="m109.757 343.574c6.265 15.336 51.023 7.172 77.811 17.234 9.581 3.601 13.436.681 15.052-8.701 4.818-28.205 34.129-62.901 23.98-75.998-10.176-13.124-23.47 8.363-31.294 0-7.852-8.361 29.395-63.949 11.905-73.898-17.461-9.979-24.916 10.034-34.837 2.977-9.921-7.059 30.217-64.857 7.427-81.865-22.791-16.979-34.044 14.769-41.868 11.112s-2.523-46.97-26.022-49.578c-14.371-1.616-22.365 18.255-28.686 17.064-16.526-3.146-22.451-32.797-46.318-19.417-23.499 13.975-.793 33.902-6.35 49.805-2.098 6.066-23.329 3.09-29.111 16.299-9.468 21.686 30.67 38.75 29.934 47.339-.737 8.589-33.874 2.466-30.557 30.727 3.345 28.232 73.474 22.365 74.607 34.469 1.134 12.133-19.899 8.59-20.013 28.688-.085 20.125 66.67 15.675 69.987 26.645 3.317 10.94-21.939 11.734-15.647 27.098z" fill="#b3e59f"/><path d="m202.62 352.107c4.818-28.205 34.129-62.901 23.98-75.998-10.176-13.124-23.47 8.363-31.294 0-7.852-8.361 29.395-63.949 11.905-73.898-17.461-9.979-24.916 10.006-34.837 2.977-7.937-5.642 16.158-43.768 14.456-67.493-44.589 12.388-81.438 45.241-82.289 95.329 0 9.553 5.442 16.951 14.655 19.559 5.726 1.588 5.471 2.807 5.499 8.76 0 22.648 5.584 50.854 13.493 72.057 2.154 5.811 4.592 11.537 7.313 17.093l.397.794c.567 1.105 1.134 2.211 1.729 3.345 13.635.907 28.432 1.87 39.94 6.179 9.583 3.598 13.438.678 15.053-8.704z" fill="#95d6a4"/><path d="m402.263 343.574c-6.264 15.336-51.023 7.172-77.811 17.234-9.609 3.601-13.436.681-15.052-8.701-4.847-28.205-34.157-62.901-23.98-75.998 10.148-13.124 23.442 8.363 31.294 0 7.824-8.361-29.395-63.949-11.934-73.898 17.489-9.979 24.916 10.034 34.837 2.977 9.921-7.059-30.217-64.857-7.427-81.865 22.79-16.979 34.072 14.769 41.896 11.112 7.795-3.657 2.495-46.97 26.022-49.578 14.343-1.616 22.365 18.255 28.658 17.064 16.555-3.146 22.451-32.797 46.318-19.417 23.527 13.975.794 33.902 6.35 49.805 2.126 6.066 23.329 3.09 29.111 16.299 9.496 21.686-30.67 38.75-29.905 47.339.737 8.589 33.873 2.466 30.529 30.727-3.316 28.232-73.445 22.365-74.607 34.469-1.134 12.133 19.899 8.59 20.013 28.688.113 20.125-66.642 15.675-69.958 26.645-3.318 10.94 21.91 11.734 15.646 27.098z" fill="#b3e59f"/><path d="m402.263 343.574c-6.264 15.336-51.023 7.172-77.811 17.234-7.341 2.75-11.31 1.701-13.493-3.146 26.504-5.158 60.86-.793 66.302-14.088 6.265-15.363-18.964-16.157-15.647-27.099 3.316-10.971 70.072-6.52 69.958-26.645-.113-20.098-21.146-16.555-19.984-28.688 1.134-12.104 71.263-6.236 74.58-34.469 3.345-28.262-29.792-22.139-30.529-30.727-.737-8.589 39.401-25.653 29.906-47.339-5.783-13.209-26.986-10.232-29.112-16.299-5.386-15.449 15.959-34.753-4.536-48.671 5.924-4.677 12.869-6.917 23.188-1.134 23.527 13.975.822 33.902 6.35 49.805 2.126 6.066 23.329 3.09 29.111 16.299 9.496 21.686-30.67 38.75-29.905 47.339.737 8.589 33.873 2.466 30.529 30.727-3.316 28.232-73.445 22.365-74.607 34.469-1.134 12.133 19.899 8.59 20.013 28.688.113 20.125-66.642 15.675-69.958 26.645-3.319 10.941 21.909 11.735 15.645 27.099z" fill="#95d6a4"/><path d="m362.55 253.46c-.113 48.529-14.854 105.704-51.874 139.493-8.9 8.136-17.971 14.06-29.31 18.198-6.321 2.324-4.309 5.557-7.228 11.111-3.6 6.804-10.573 10.488-18.142 10.688-10.035-.256-17.32-6.038-20.013-15.676-1.275-4.592-1.445-4.734-6.038-6.35-26.305-9.241-47.055-35.434-59.045-59.641-14.938-30.161-21.373-64.318-21.458-97.824l105.08-4.195z" fill="#f1c395"/><path d="m362.55 253.46c-.113 48.529-14.854 105.704-51.874 139.493-8.9 8.136-17.971 14.06-29.31 18.198-6.321 2.324-4.309 5.557-7.228 11.111-3.6 6.804-10.573 10.488-18.142 10.688-4.876-.113-9.128-1.56-12.501-4.11 2.296-1.701 4.224-3.912 5.641-6.577 2.92-5.555.907-8.787 7.228-11.111 11.338-4.139 20.409-10.062 29.31-18.198 37.02-33.789 51.76-90.964 51.873-139.493h25.003z" fill="#e8b888"/><path d="m382.449 233.023c.312 11.141-8.731 20.438-19.899 20.438h-213.107c-11.169 0-20.211-9.297-19.899-20.438.964-56.693 48.076-91.332 100.318-99.156 7.937-1.19 4.649-3.26 7.285-10.488 2.92-7.993 10.687-12.075 18.851-12.473 10.29.482 18.085 6.236 19.984 16.583 1.247 6.661 1.275 5.755 8.334 6.747 19.644 2.834 39.712 10.743 56.012 22.025 26.077 18.17 41.781 44.674 42.121 76.762z" fill="#b2a17d"/><path d="m382.449 233.023c.312 11.141-8.731 20.438-19.899 20.438h-25.002c11.169 0 20.211-9.297 19.899-20.438-.34-32.088-16.044-58.592-42.095-76.762-16.327-11.282-36.396-19.191-56.04-22.025-7.058-.992-7.086-.086-8.305-6.747-1.021-5.471-3.685-9.666-7.512-12.472 3.544-2.552 7.966-3.912 12.501-4.111 10.29.482 18.085 6.236 19.984 16.583 1.247 6.661 1.275 5.755 8.334 6.747 19.644 2.834 39.712 10.743 56.012 22.025 26.079 18.17 41.783 44.674 42.123 76.762z" fill="#a39474"/></g></svg>