<svg height="512" viewBox="0 0 58 58" width="512" xmlns="http://www.w3.org/2000/svg"><g id="Page-1" fill="none" fill-rule="evenodd"><g id="001---Copywriter" fill-rule="nonzero"><path id="Shape" d="m22 45v-30.17c.0027431-.5324096.214644-1.0424085.59-1.42l12.82-12.82c.3761733-.37747734.8870877-.58975868 1.42-.59h19.17c1.1032019.0032948 1.9967052.89679813 2 2v41c-.0032948 1.1032019-.8967981 1.9967052-2 2z" fill="#f9eab0"/><path id="Shape" d="m19.938 33 6.082 3.53c1.8468087 1.0757639 2.9819394 3.0527198 2.98 5.19v13.28c0 1.6568542-1.3431458 3-3 3s-3-1.3431458-3-3c0 1.6568542-1.3431458 3-3 3h-11c-1.65685425 0-3-1.3431458-3-3 0 1.6568542-1.34314575 3-3 3s-3-1.3431458-3-3v-13.28c-.00193943-2.1372802 1.13319131-4.1142361 2.98-5.19l5.982-3.5z" fill="#3b97d3"/><g fill="#cbb292"><path id="Shape" d="m53 6h-12c-.5522847 0-1-.44771525-1-1s.4477153-1 1-1h12c.5522847 0 1 .44771525 1 1s-.4477153 1-1 1z"/><path id="Shape" d="m53 11h-12c-.5522847 0-1-.4477153-1-1 0-.55228475.4477153-1 1-1h12c.5522847 0 1 .44771525 1 1 0 .5522847-.4477153 1-1 1z"/><path id="Shape" d="m53 16h-12c-.5522847 0-1-.4477153-1-1s.4477153-1 1-1h12c.5522847 0 1 .4477153 1 1s-.4477153 1-1 1z"/><path id="Shape" d="m53 21h-12c-.5522847 0-1-.4477153-1-1s.4477153-1 1-1h12c.5522847 0 1 .4477153 1 1s-.4477153 1-1 1z"/><path id="Shape" d="m53 26h-6c-.5522847 0-1-.4477153-1-1s.4477153-1 1-1h6c.5522847 0 1 .4477153 1 1s-.4477153 1-1 1z"/></g><path id="Shape" d="m23 28.5c.0063507 1.8153238-.5761114 3.5837629-1.66 5.04-2.2452742 3.0497437-6.2373368 4.2462099-9.7898952 2.934142-3.55255838-1.3120678-5.80856997-4.8161379-5.53250772-8.5931714.27606226-3.7770336 3.01759929-6.9158343 6.72318122-7.6974069 3.7055819-.7815725 7.4812498.9826347 9.2592217 4.3264363.6588591 1.2265695 1.0024952 2.5976775 1 3.99z" fill="#fdd7ad"/><path id="Shape" d="m8 44.27v13.55c-1.20183597-.41463-2.00611673-1.5486659-2-2.82v-10.73c0-.5522847.44771525-1 1-1s1 .4477153 1 1z" fill="#2980ba"/><path id="Shape" d="m23 44.27v10.73c.0061167 1.2713341-.798164 2.40537-2 2.82v-13.55c0-.5522847.4477153-1 1-1s1 .4477153 1 1z" fill="#2980ba"/><path id="Shape" d="m36 .18v11.82c-.0032948 1.1032019-.8967981 1.9967052-2 2h-11.81c.0930008-.2211857.2289585-.4217233.4-.59l12.82-12.82c.1705448-.17087467.3703812-.30974401.59-.41z" fill="#f3d55b"/><path id="Shape" d="m56.77 55.63-2.44 1.79c-.6413474.470804-1.4437534.6668828-2.2299516.5449188-.7861982-.1219639-1.4914847-.5519329-1.9600484-1.1949188l-3.57-4.86 7.29-5.34 3.56 4.87c.4705406.6414391.6664587 1.4437705.5445073 2.2298878s-.5517446 1.4913813-1.1945073 1.9601122z" fill="#ff5364"/><path id="Rectangle-path" d="m44.362 45.163h9.037v4.514h-9.037z" fill="#bdc3c7" transform="matrix(.807 -.591 .591 .807 -18.574 38.05)"/><path id="Shape" d="m51.19 42.93-7.29 5.34c-14.682-20.057-12.648-17.254-12.79-17.49l7.26-5.32c.102.102-.41-.58 12.82 17.47z" fill="#3b97d3"/><path id="Shape" d="m38.37 25.46-7.26 5.32c-.06-.1.05.258-1.53-5.59l3.92-2.88h.01c3.995 2.576 4.758 3.047 4.86 3.15z" fill="#fdd7ad"/><path id="Shape" d="m33.5 22.31-3.92 2.88-1.16-4.27c-.1038933-.3619512.0285359-.7503179.3319173-.9733925.3033814-.2230745.7135685-.2336905 1.0280827-.0266075z" fill="#464f5d"/></g></g></svg>