<svg id="Capa_1" enable-background="new 0 0 512.005 512.005" height="512" viewBox="0 0 512.005 512.005" width="512" xmlns="http://www.w3.org/2000/svg"><g><path d="m422.083 302.773c0 82.93-60.8 151.65-140.24 164.06h-.01c-.54.09-1.08.17-1.62.24-.51.08-1.01.15-1.52.22-.67.09-1.34.18-2.02.26h-41.34c-81.96-10.17-145.41-80.06-145.41-164.78 0-10.56.52-20.88 1.5-30.97.01-.18 2.43-.53 2.46-.71.27-2.87 1.2-10.82 1.59-13.37.04-.24-1.91-3.18-1.87-3.42 6.86-45.25 22.76-85.32 42.06-119.55 1.28-2.27 5.91-2.17 7.22-4.37 1.31-2.24-.69-6.81.66-8.99 31.27-50.83 68.95-87.29 91.79-106.77 7.07-6.04 12.72-10.46 16.32-13.16 2.58-1.95 6.12-1.95 8.7 0 3.6 2.7 9.25 7.12 16.32 13.16 1.65 1.41 3.38 2.9 5.17 4.48 23.08 20.34 57.61 55.13 86.62 102.29.09.15.19.3.28.46-.33 1.81-1.05 3.26-1.05 3.26s4.37 7.22 5.62 9.42l3 .17.03.05c19.3 34.24 35.21 74.33 42.07 119.6 0 .27-2.16 3.69-2.16 3.96.39 2.55 1.17 8.98 1.63 12.25 0 .03 2.65.67 2.65.7 1.01 10.26 1.55 20.76 1.55 31.51z" fill="#c6ea7c"/><g fill="#b2e254"><path d="m281.833 466.833c-.54.09-1.08.17-1.62.24-.51.08-1.01.15-1.52.22-.67.09-1.34.18-2.02.26h-41.34c-81.96-10.17-145.41-80.06-145.41-164.78 0-10.56.52-20.88 1.5-30.97.01-.18 2.43-.53 2.46-.71.27-2.87 1.2-10.82 1.59-13.37.04-.24-1.91-3.18-1.87-3.42 6.86-45.25 22.76-85.32 42.06-119.55 1.28-2.27 5.91-2.17 7.22-4.37 1.31-2.24-.69-6.81.66-8.99 31.27-50.83 68.95-87.29 91.79-106.77 7.07-6.04 12.72-10.46 16.32-13.16 2.58-1.95 6.12-1.95 8.7 0 3.6 2.7 9.25 7.12 16.32 13.16 1.65 1.41 3.38 2.9 5.17 4.48-24.13 21.28-60.83 58.38-90.62 108.93-22.24 37.73-40.64 82.94-47.11 134.67-1.63 12.96-2.5 26.31-2.5 40.07 0 82.929 60.77 151.639 140.22 164.06z"/><path d="m93.603 254.303 48.52 30.34c-.3 5.27-.47 10.61-.5 16.01-.28.03-.57.05-.86.05-1.41 0-2.82-.38-4.11-1.18l-45.23-27.72c.01-.18.03-.36.05-.54.28-2.87.6-5.72.95-8.56.32-2.57.68-5.13 1.07-7.68.04-.24.07-.48.11-.72z"/><path d="m281.833 466.833c-.54.09-1.08.17-1.62.24-.51.08-1.01.15-1.52.22-.67.09-1.34.18-2.02.26h-41.34v-15.27c12.93 6.27 26.8 10.91 41.34 13.66 1.71.32 3.43.62 5.16.89z"/></g><g fill="#97d729"><path d="m147.343 297.063c-1.47 2.35-4 3.64-6.58 3.64-1.41 0-2.82-.38-4.11-1.18l-45.23-27.72c.01-.18.03-.36.05-.54.28-2.87.6-5.72.95-8.56.32-2.57.68-5.13 1.07-7.68.04-.24.07-.48.11-.72l51.28 32.07c3.63 2.28 4.74 7.059 2.46 10.69z"/><path d="m420.523 271.182-139.73 87.5c-1.28.79-2.7 1.18-4.11 1.18 0 0 0 0-.01 0v131.47c0 11.65-9.65 21.07-21.41 20.66-11.21-.4-19.93-9.94-19.93-21.16v-130.97c-.01 0-.01 0-.01 0-1.4 0-2.83-.38-4.1-1.18l-60.78-38.03c-3.63-2.27-4.73-7.06-2.46-10.69 2.27-3.62 7.05-4.73 10.68-2.46l56.67 35.46v-147.25c-.01 0-.01 0-.01 0-1.41 0-2.83-.38-4.11-1.18l-95.55-59.78 7.88-13.36h.01l91.78 57.42v-164.189c7.07-6.04 12.72-10.46 16.32-13.16 2.58-1.95 6.12-1.95 8.7 0 3.6 2.7 9.25 7.12 16.32 13.16v164.19l92.07-56.96c1.26 2.03 2.49 4.1 3.72 6.18 1.27 2.15 2.52 4.33 3.77 6.53l.08.14-95.52 59.83c-1.28.8-2.7 1.18-4.11 1.18 0 0 0 0-.01 0v147.25l141.74-88.61c.03.22.07.45.1.67.39 2.55.75 5.11 1.07 7.68.35 2.81.66 5.64.94 8.479z"/></g><path d="m142.123 284.643c-.3 5.27-.47 10.61-.5 16.01-.28.03-.57.05-.86.05-1.41 0-2.82-.38-4.11-1.18l-45.23-27.72c.01-.18.03-.36.05-.54.28-2.87.6-5.72.95-8.56.32-2.57.68-5.13 1.07-7.68.04-.24.07-.48.11-.72z" fill="#8bc727"/><path d="m181.653 145.232c-2.39 4.55-4.71 9.2-6.95 13.95l-39.04-24.43 7.88-13.36h.01z" fill="#8bc727"/><path d="m276.673 14.623v9.12c-12 10.91-26.44 25.23-41.34 42.7v-51.82c7.07-6.04 12.72-10.46 16.32-13.16 2.58-1.95 6.12-1.95 8.7 0 3.6 2.699 9.25 7.12 16.32 13.16z" fill="#97d729"/><path d="m276.673 465.942v1.61h-41.34v-15.27c12.93 6.271 26.8 10.91 41.34 13.66z" fill="#8bc727"/><path d="m276.676 14.619v9.107c-12.001 10.926-26.441 25.252-41.346 42.731v-51.838c7.075-6.041 12.727-10.453 16.32-13.159 2.581-1.943 6.124-1.943 8.705 0 3.594 2.706 9.246 7.119 16.321 13.159z" fill="#8bc727"/></g></svg>