<svg id="Capa_1" enable-background="new 0 0 512 512" height="512" viewBox="0 0 512 512" width="512" xmlns="http://www.w3.org/2000/svg"><g><path d="m165.667 73-42.333 24.667-42.334-24.667v-68c0-2.761 2.239-5 5-5h74.667c2.761 0 5 2.239 5 5z" fill="#8dc5e8"/><path d="m431 73-43.25 24.667-41.417-24.667v-68c0-2.761 2.239-5 5-5h74.667c2.761 0 5 2.239 5 5z" fill="#5e9ff6"/><path d="m0 183.08v318.92c0 5.52 4.48 10 10 10h281.5l-35.5-375.67z" fill="#fff5f5"/><path d="m512 183.08v318.92c0 5.52-4.48 10-10 10h-246v-375.67z" fill="#e1ebf0"/><path d="m256 73 35.5 55.04-35.5 55.04h-256v-100.08c0-5.52 4.48-10 10-10z" fill="#0b799d"/><path d="m512 83v100.08h-256v-110.08h246c5.52 0 10 4.48 10 10z" fill="#07485e"/><path d="m256 266.61 9.5 73.43-9.5 73.43-32.41 33.07c-5.8 5.92-15.29 6.01-21.21.21s-6.01-15.29-.21-21.21l38.83-39.62v-30.88h-30.88l-39.62 38.83c-5.91 5.8-15.41 5.71-21.21-.21s-5.71-15.41.21-21.21l33.07-32.41-33.07-32.41c-5.92-5.8-6.01-15.29-.21-21.21s15.29-6.01 21.21-.21l39.62 38.83h30.88v-30.88l-38.83-39.62c-5.8-5.92-5.71-15.41.21-21.21s15.41-5.71 21.21.21z" fill="#8dc5e8"/><path d="m362.5 372.45c5.92 5.8 6.01 15.29.21 21.21-5.79 5.92-15.29 6.01-21.21.21l-39.62-38.83h-30.88v30.88l38.83 39.62c5.8 5.92 5.71 15.41-.21 21.21s-15.41 5.71-21.21-.21l-32.41-33.07v-146.86l32.41-33.07c5.8-5.92 15.29-6.01 21.21-.21s6.01 15.29.21 21.21l-38.83 39.62v30.88h30.88l39.62-38.83c5.92-5.8 15.42-5.71 21.21.21 5.8 5.92 5.71 15.41-.21 21.21l-33.07 32.41z" fill="#5e9ff6"/></g></svg>