<svg id="Layer_1" enable-background="new 0 0 504.5 504.5" height="512" viewBox="0 0 504.5 504.5" width="512" xmlns="http://www.w3.org/2000/svg"><g><g><path d="m381.037 504.5h-310.009c-20.354 0-39.218-10.665-49.704-28.101l-8.887-14.777h427.189l-8.887 14.777c-10.485 17.436-29.349 28.101-49.702 28.101z" fill="#9b4f1d"/><path d="m399.627 461.622-8.887 14.777c-10.486 17.436-29.35 28.101-49.703 28.101h40c20.354 0 39.218-10.665 49.703-28.101l8.887-14.777z" fill="#8c471a"/><g><g><path d="m163.671 88.517c-4.142 0-7.5-3.358-7.5-7.5 0-10.063 7.292-15.096 12.117-18.426 4.367-3.014 5.637-4.178 5.637-6.081s-1.27-3.066-5.637-6.081c-4.825-3.33-12.117-8.363-12.117-18.426s7.292-15.095 12.118-18.425c4.367-3.014 5.637-4.177 5.637-6.079 0-4.142 3.358-7.5 7.5-7.5s7.5 3.358 7.5 7.5c0 10.063-7.292 15.095-12.117 18.424-4.368 3.014-5.637 4.177-5.637 6.079s1.27 3.066 5.637 6.08c4.825 3.33 12.117 8.363 12.117 18.426s-7.292 15.096-12.117 18.426c-4.367 3.014-5.637 4.178-5.637 6.081-.001 4.144-3.359 7.502-7.501 7.502z" fill="#f0aa7d"/></g><g><path d="m268.152 88.517c-4.142 0-7.5-3.358-7.5-7.5 0-10.063 7.292-15.096 12.117-18.426 4.368-3.014 5.638-4.178 5.638-6.081s-1.27-3.066-5.638-6.081c-4.825-3.33-12.117-8.363-12.117-18.426s7.292-15.095 12.118-18.425c4.367-3.014 5.637-4.177 5.637-6.079 0-4.142 3.358-7.5 7.5-7.5s7.5 3.358 7.5 7.5c0 10.063-7.292 15.095-12.118 18.424-4.367 3.014-5.637 4.177-5.637 6.079s1.27 3.066 5.637 6.08c4.826 3.33 12.118 8.363 12.118 18.426s-7.292 15.096-12.117 18.426c-4.368 3.014-5.638 4.178-5.638 6.081 0 4.144-3.358 7.502-7.5 7.502z" fill="#f0aa7d"/></g><g><path d="m215.911 88.517c-4.142 0-7.5-3.358-7.5-7.5 0-10.063 7.292-15.096 12.117-18.426 4.367-3.014 5.637-4.178 5.637-6.081s-1.27-3.066-5.637-6.081c-4.825-3.33-12.117-8.363-12.117-18.426s7.292-15.095 12.118-18.425c4.367-3.014 5.637-4.177 5.637-6.079 0-4.142 3.358-7.5 7.5-7.5s7.5 3.358 7.5 7.5c0 10.063-7.292 15.095-12.117 18.424-4.368 3.014-5.637 4.177-5.637 6.079s1.27 3.066 5.637 6.08c4.825 3.33 12.117 8.363 12.117 18.426s-7.292 15.096-12.117 18.426c-4.367 3.014-5.637 4.178-5.637 6.081-.001 4.144-3.358 7.502-7.501 7.502z" fill="#f0aa7d"/></g></g><path d="m416.094 148.873c-6.39 0-12.594.795-18.523 2.284l3.695-32.033c.622-5.391-3.596-10.12-9.026-10.12h-332.416c-5.43 0-9.647 4.729-9.026 10.12l28.259 245.022c6.407 55.551 53.466 97.475 109.414 97.475h75.12c55.948 0 103.007-41.924 109.414-97.475l8.24-71.442c10.439 5.412 22.285 8.476 34.848 8.476 41.956 0 75.968-34.095 75.968-76.154s-34.011-76.153-75.967-76.153zm0 122.048c-11.922 0-22.784-4.602-30.939-12.113l8.509-73.773c6.633-3.754 14.285-5.902 22.43-5.902 25.244 0 45.782 20.588 45.782 45.894s-20.537 45.894-45.782 45.894z" fill="#f9f2d7"/></g><g><path d="m416.094 270.921c25.244 0 45.782-20.588 45.782-45.894s-20.538-45.894-45.782-45.894c-8.145 0-15.797 2.148-22.43 5.902l-3.525 30.565-4.983 43.209c8.155 7.51 19.017 12.112 30.938 12.112z" fill="none"/><g fill="#f2eacb"><path d="m385.156 258.808 4.983-43.209z"/><path d="m397.571 151.157 3.695-32.033z"/><path d="m416.094 148.873c-6.39 0-12.594.795-18.523 2.284l3.695-32.033c.622-5.391-3.596-10.12-9.026-10.12h-40c5.43 0 9.647 4.729 9.026 10.12l-28.259 245.022c-6.407 55.551-53.466 97.475-109.414 97.475h40c55.948 0 103.007-41.924 109.414-97.475l8.24-71.442c10.439 5.412 22.285 8.476 34.848 8.476 41.956 0 75.968-34.095 75.968-76.154s-34.013-76.153-75.969-76.153zm0 122.048c-11.922 0-22.784-4.602-30.939-12.113l4.983-43.209 3.525-30.565c6.633-3.754 14.285-5.902 22.43-5.902 25.244 0 45.782 20.588 45.782 45.894.001 25.307-20.536 45.895-45.781 45.895z"/></g></g></g></svg>