<svg id="icon" height="512" viewBox="0 0 128 128" width="512" xmlns="http://www.w3.org/2000/svg"><path d="m56.1 106c-.313 0-.621-.014-.927-.042a8.871 8.871 0 0 1 -7.379-5.353 9.472 9.472 0 0 1 1.086-9.547l.173-.228a2.312 2.312 0 1 1 3.688 2.788l-.173.229a4.847 4.847 0 0 0 -.545 4.887 4.251 4.251 0 0 0 3.566 2.619q.253.023.511.023a5.6 5.6 0 0 0 5.589-5.589v-55.873a2.312 2.312 0 0 1 4.624 0v55.873a10.224 10.224 0 0 1 -10.213 10.213z" fill="#eeefee"/><path d="m66.2 24.227v6.889h-4.45v-6.889a2.227 2.227 0 0 1 2.227-2.227 2.227 2.227 0 0 1 2.223 2.227z" fill="#eeefee"/><path d="m103.472 66.419c-5.332-3.673-10.02-3.271-14.254 0 0-21.8-11.293-39.472-25.218-39.472a39.475 39.475 0 0 1 39.472 39.472z" fill="#69b0ee"/><path d="m64 26.947c-13.925 0-25.218 17.675-25.218 39.472-4.781-3.45-9.533-3.494-14.254 0a39.475 39.475 0 0 1 39.472-39.472z" fill="#69b0ee"/><path d="m89.218 66.419c-5.765-4.543-11.821-4.04-16.858 0 0-21.8-3.361-39.472-8.36-39.472 13.925 0 25.218 17.675 25.218 39.472z" fill="#eeefee"/><path d="m64 26.947c-5 0-8.406 17.675-8.406 39.472-5.728-3.7-11.759-3.79-16.812 0 0-21.797 11.293-39.472 25.218-39.472z" fill="#eeefee"/><path d="m72.36 66.419c-6.03-4.188-10.758-4.21-16.766 0 0-21.8 3.406-39.472 8.406-39.472s8.36 17.675 8.36 39.472z" fill="#69b0ee"/></svg>