<svg id="Layer_1" enable-background="new 0 0 512 512" height="512" viewBox="0 0 512 512" width="512" xmlns="http://www.w3.org/2000/svg"><g clip-rule="evenodd" fill-rule="evenodd"><g><path d="m315.407 390.535c-39.009 0-80.976 0-119.928 0 2.614 22.696.239 49.268-4.661 71.494h129.936c-5.214-22.226-7.961-48.798-5.347-71.494z" fill="#656565"/><path d="m142.745 474.529c-6.903 0-12.5-5.596-12.5-12.5s5.597-12.5 12.5-12.5h226.082c6.904 0 12.5 5.596 12.5 12.5s-5.596 12.5-12.5 12.5z" fill="#515151"/><path d="m502 355.214c0 19.508-15.813 35.321-35.321 35.321h-421.358c-19.508 0-35.32-15.813-35.32-35.321 0-95.914 0-191.829 0-287.743 0-16.523 13.476-30 30-30h432c16.523 0 30 13.477 30 30-.001 95.914-.001 191.829-.001 287.743z" fill="#6a676b"/><path d="m480 298.278v-230.807c0-4.38-3.62-8-8-8-144 0-288 0-432 0-4.38 0-8 3.62-8 8v230.807z" fill="#92d2fe"/><path d="m45.321 390.535h150.159 119.928 151.272c19.508 0 35.321-15.813 35.321-35.321 0 0 0-13.604 0-34.937h-492.001v34.937c0 19.508 15.813 35.321 35.321 35.321z" fill="#e6e6e6"/></g><g><g fill="#f2f2f2"><path d="m154.305 188.639h25.656l9.272 69.712c.48 3.605-1.898 6.945-5.453 7.715l-11.091 2.403c-1.981.429-3.848.05-5.505-1.117s-2.634-2.799-2.904-4.807z"/><path d="m299.485 89.109c9.049 0 16.453 7.404 16.453 16.453v134.983c0 9.049-7.404 16.453-16.453 16.453-8.444 0-15.455-6.447-16.355-14.663l-.001-.001c-23.022-18.41-59.409-32.94-100.279-37.412v3.43h-31.952c-19.415 0-35.3-15.885-35.3-35.299v-.001c0-19.415 15.885-35.299 35.3-35.299h31.952v3.43c40.871-4.472 77.238-18.811 100.26-37.221h.001c.81-8.306 7.864-14.853 16.374-14.853z"/><path d="m314.327 154.048v38.012c1.365.303 2.782.464 4.238.464 10.753 0 19.47-8.717 19.47-19.47s-8.717-19.47-19.47-19.47c-1.456 0-2.873.161-4.238.464z"/></g><path d="m182.85 137.754h-31.952c-19.415 0-35.299 15.885-35.299 35.299 0 19.415 15.884 35.299 35.299 35.299h31.952z" fill="#eb745e"/><path d="m299.485 89.109c9.049 0 16.453 7.404 16.453 16.453v134.984c0 9.05-7.404 16.453-16.453 16.453-9.049 0-16.453-7.403-16.453-16.453v-134.984c0-9.049 7.404-16.453 16.453-16.453z" fill="#eb745e"/><path d="m346.349 215.067 21.553 12.443c3.447 1.991 7.862.786 9.843-2.661 1.983-3.452.781-7.86-2.663-9.848l-21.553-12.443c-3.447-1.99-7.862-.785-9.843 2.661-1.983 3.452-.78 7.86 2.663 9.848zm7.181-71.517 21.553-12.443c3.443-1.988 4.646-6.396 2.663-9.848-1.981-3.447-6.396-4.652-9.843-2.661l-21.553 12.443c-3.443 1.988-4.646 6.396-2.663 9.848 1.98 3.446 6.395 4.651 9.843 2.661zm12.028 36.755h23.593c4.005 0 7.251-3.246 7.251-7.251s-3.246-7.251-7.251-7.251h-23.593c-4.005 0-7.251 3.246-7.251 7.251s3.245 7.251 7.251 7.251z" fill="#eb745e"/></g></g></svg>