<?xml version="1.0" encoding="iso-8859-1"?>
<!-- Generator: Adobe Illustrator 19.0.0, SVG Export Plug-In . SVG Version: 6.00 Build 0)  -->
<svg version="1.1" id="Capa_1" xmlns="http://www.w3.org/2000/svg" xmlns:xlink="http://www.w3.org/1999/xlink" x="0px" y="0px"
	 viewBox="0 0 512 512" style="enable-background:new 0 0 512 512;" xml:space="preserve">
<path style="fill:#F2F2F2;" d="M357.867,0H65.6C53.867,0,44.267,9.6,44.267,21.333v469.333C44.267,502.4,53.867,512,65.6,512h380.8
	c11.733,0,21.333-9.6,21.333-21.333v-380.8L357.867,0z"/>
<g>
	<path style="fill:#CDD6E0;" d="M357.867,88.533V0l109.867,109.867H379.2C366.4,109.867,357.867,100.267,357.867,88.533z"/>
	<rect x="258.667" y="160" style="fill:#CDD6E0;" width="157.867" height="26.667"/>
	<rect x="94.4" y="243.2" style="fill:#CDD6E0;" width="323.2" height="26.667"/>
	<rect x="94.4" y="325.333" style="fill:#CDD6E0;" width="323.2" height="26.667"/>
	<rect x="94.4" y="408.533" style="fill:#CDD6E0;" width="323.2" height="26.667"/>
</g>
<path style="fill:#F8B64C;" d="M134.933,137.6c6.4,7.467,14.933,12.8,24.533,12.8s19.2-4.267,24.533-12.8
	c0-1.067,1.067-1.067,1.067-2.133l-6.4-2.133l0,0l0,0l0,0c-4.267,6.4-11.733,9.6-19.2,9.6c-7.467,0-13.867-3.2-19.2-9.6l0,0l0,0l0,0
	l0,0l-6.4,2.133C133.867,136.533,133.867,137.6,134.933,137.6z"/>
<g>
	<path style="fill:#ACB3BA;" d="M159.467,144L159.467,144L159.467,144z"/>
	<path style="fill:#ACB3BA;" d="M159.467,144L159.467,144L159.467,144z"/>
</g>
<g>
	<path style="fill:#F8B64C;" d="M140.267,133.333L140.267,133.333L140.267,133.333z"/>
	<path style="fill:#F8B64C;" d="M178.667,133.333L178.667,133.333L178.667,133.333z"/>
	
		<ellipse transform="matrix(-0.0871 -0.9962 0.9962 -0.0871 49.8354 237.7057)" style="fill:#F8B64C;" cx="133.828" cy="96.02" rx="8.533" ry="6.4"/>
	
		<ellipse transform="matrix(0.0871 -0.9962 0.9962 0.0871 73.3507 272.0264)" style="fill:#F8B64C;" cx="185.105" cy="95.99" rx="8.533" ry="6.4"/>
</g>
<path style="fill:#FFD15C;" d="M133.867,70.4c-2.133,3.2-3.2,7.467-3.2,11.733v8.533c0,2.133,0,4.267,0,6.4l0,0
	c1.067,10.667,6.4,21.333,13.867,29.867l3.2,3.2c2.133,3.2,6.4,4.267,9.6,4.267h4.267c3.2,0,7.467-1.067,9.6-4.267l3.2-3.2
	c7.467-8.533,12.8-19.2,13.867-29.867c0-2.133,0-4.267,0-6.4V83.2c0-4.267-1.067-8.533-3.2-11.733h-51.2V70.4z"/>
<path style="fill:#F8B64C;" d="M174.4,128l-3.2,3.2c-2.133,3.2-6.4,4.267-9.6,4.267h-4.267c-3.2,0-7.467-1.067-9.6-4.267l-3.2-3.2
	c-2.133-2.133-3.2-4.267-5.333-6.4v11.733L158.4,160l19.2-26.667V121.6C177.6,123.733,175.467,125.867,174.4,128z"/>
<path style="fill:#40596B;" d="M131.733,98.133L136,99.2c0-3.2,0-8.533,2.133-10.667c0,0-2.133-16,9.6-14.933c0,0,9.6,3.2,27.733,0
	c0,0,7.467,0,6.4,7.467c0,0,0,8.533,4.267,10.667V99.2l4.267-1.067c1.067-3.2,0-21.333,0-21.333
	c-2.133-13.867-19.2-21.333-19.2-21.333c-1.067-2.133,2.133-1.067,2.133-1.067c-21.333-12.8-35.2-1.067-35.2-1.067
	C123.2,67.2,130.667,83.2,130.667,83.2C129.6,89.6,130.667,94.933,131.733,98.133z"/>
<path style="fill:#FF7058;" d="M94.4,186.667h131.2V169.6c0-8.533-5.333-16-12.8-20.267L179.733,134.4l0,0l0,0l0,0
	c-4.267,6.4-11.733,9.6-19.2,9.6s-13.867-3.2-19.2-9.6l0,0l0,0l0,0l0,0l-33.067,14.933c-7.467,3.2-12.8,11.733-12.8,20.267v17.067
	H94.4z"/>
<g>
</g>
<g>
</g>
<g>
</g>
<g>
</g>
<g>
</g>
<g>
</g>
<g>
</g>
<g>
</g>
<g>
</g>
<g>
</g>
<g>
</g>
<g>
</g>
<g>
</g>
<g>
</g>
<g>
</g>
</svg>
