<?xml version="1.0" encoding="iso-8859-1"?>
<!-- Generator: Adobe Illustrator 19.0.0, SVG Export Plug-In . SVG Version: 6.00 Build 0)  -->
<svg version="1.1" id="Capa_1" xmlns="http://www.w3.org/2000/svg" xmlns:xlink="http://www.w3.org/1999/xlink" x="0px" y="0px"
	 viewBox="0 0 512.008 512.008" style="enable-background:new 0 0 512.008 512.008;" xml:space="preserve">
<rect x="230.852" y="421.8" style="fill:#A4856D;" width="50.288" height="90.208"/>
<path style="fill:#8BC540;" d="M256.004,114.664L89.524,413c-5.664,12.784,3.696,27.168,17.68,27.168h297.6
	c13.984,0,23.344-14.384,17.68-27.168L256.004,114.664z"/>
<path style="fill:#7FB241;" d="M256.004,83.912L100.196,318.136c-6.432,12.848,2.912,27.984,17.296,27.984h277.04
	c14.368,0,23.728-15.12,17.296-27.984L256.004,83.912z"/>
<path style="fill:#8BC540;" d="M239.3,81.8L111.876,222.984c-7.52,12.896,1.776,29.072,16.704,29.072h254.864
	c14.928,0,24.224-16.192,16.704-29.072L272.724,81.8C265.252,69.016,246.756,69.016,239.3,81.8z"/>
<path style="fill:#FFD83B;" d="M297.268,82.216c-1.632,1.632-2.448,3.904-1.952,6.192l6.016,35.328
	c0.976,5.856-5.04,10.256-10.256,7.488l-31.744-16.608c-2.112-1.136-4.56-1.136-6.672,0l-31.744,16.608
	c-5.216,2.768-11.232-1.632-10.256-7.488l6.016-35.328c0.496-2.272-0.32-4.56-1.952-6.192l-25.728-25.072
	c-4.224-4.064-1.792-11.232,3.904-12.048l35.488-5.216c2.272-0.32,4.4-1.792,5.376-3.904l15.952-32.064
	c2.448-5.216,10.096-5.216,12.704,0l15.792,32.064c0.976,2.112,3.088,3.584,5.376,3.904l35.488,5.216
	c5.696,0.816,8.144,7.984,3.904,12.048L297.268,82.216z"/>
<g>
	<circle style="fill:#8E6D53;" cx="185.972" cy="205.912" r="14.176"/>
	<circle style="fill:#8E6D53;" cx="330.436" cy="300.072" r="14.176"/>
</g>
<g>
	<circle style="fill:#FFFFFF;" cx="284.788" cy="172.456" r="14.176"/>
	<circle style="fill:#FFFFFF;" cx="238.74" cy="281.512" r="14.176"/>
	<circle style="fill:#FFFFFF;" cx="284.788" cy="369.768" r="14.176"/>
</g>
<circle style="fill:#8E6D53;" cx="188.164" cy="395.416" r="14.176"/>
<g>
</g>
<g>
</g>
<g>
</g>
<g>
</g>
<g>
</g>
<g>
</g>
<g>
</g>
<g>
</g>
<g>
</g>
<g>
</g>
<g>
</g>
<g>
</g>
<g>
</g>
<g>
</g>
<g>
</g>
</svg>
