<?xml version="1.0" encoding="iso-8859-1"?>
<!-- Generator: Adobe Illustrator 19.0.0, SVG Export Plug-In . SVG Version: 6.00 Build 0)  -->
<svg version="1.1" id="Capa_1" xmlns="http://www.w3.org/2000/svg" xmlns:xlink="http://www.w3.org/1999/xlink" x="0px" y="0px"
	 viewBox="0 0 511.989 511.989" style="enable-background:new 0 0 511.989 511.989;" xml:space="preserve">
<rect x="362.923" y="456.722" transform="matrix(-0.7071 -0.7071 0.7071 -0.7071 358.0421 1091.5656)" style="fill:#BABAC0;" width="84.338" height="29.816"/>
<g>
	<rect x="241.082" y="14.91" style="fill:#D3D3D8;" width="29.819" height="60.632"/>
	
		<rect x="91.99" y="429.461" transform="matrix(-0.7071 -0.7071 0.7071 -0.7071 -151.0064 880.7106)" style="fill:#D3D3D8;" width="29.816" height="84.338"/>
</g>
<rect x="255.992" y="14.91" style="fill:#BABAC0;" width="14.91" height="60.632"/>
<path style="fill:#D3D3D8;" d="M72.81,210.136l-8.357-1.31c-36.459-5.722-62.914-36.692-62.914-73.645
	c0-41.104,33.444-74.548,74.548-74.548c31.639,0,59.915,20.049,70.354,49.897l2.796,7.979L72.81,210.136z"/>
<path style="fill:#BABAC0;" d="M439.18,210.136l-76.427-91.627l2.796-7.979c10.44-29.848,38.715-49.897,70.354-49.897
	c41.104,0,74.548,33.444,74.548,74.548c0,36.954-26.456,67.923-62.914,73.645L439.18,210.136z"/>
<path style="fill:#9CDD05;" d="M255.995,60.632c-123.451,0-223.644,100.192-223.644,223.644s100.192,224.638,223.644,224.638
	s223.644-101.186,223.644-224.638S379.446,60.632,255.995,60.632z"/>
<path style="fill:#79AB03;" d="M479.638,284.276c0,123.451-100.192,224.638-223.644,224.638V60.632
	C379.446,60.632,479.638,160.825,479.638,284.276z"/>
<path style="fill:#E7E7E7;" d="M255.995,120.271c-90.353,0-164.005,73.652-164.005,164.005c0,90.351,73.652,164.999,164.005,164.999
	S420,374.627,420,284.276C420,193.923,346.348,120.271,255.995,120.271z"/>
<path style="fill:#D3D3D8;" d="M420,284.276c0-90.353-73.652-164.005-164.005-164.005v329.005
	C346.348,449.275,420,374.627,420,284.276z"/>
<rect x="241.082" y="135.18" style="fill:#BABAC0;" width="29.819" height="44.729"/>
<rect x="255.992" y="135.18" style="fill:#A1A1A7;" width="14.91" height="44.729"/>
<rect x="241.082" y="179.909" style="fill:#53433F;" width="29.819" height="74.548"/>
<rect x="360.359" y="269.366" style="fill:#A1A1A7;" width="44.729" height="29.819"/>
<rect x="106.896" y="269.366" style="fill:#BABAC0;" width="44.729" height="29.819"/>
<rect x="330.698" y="172.289" transform="matrix(-0.7071 -0.7071 0.7071 -0.7071 452.3477 576.6703)" style="fill:#A1A1A7;" width="29.816" height="44.723"/>
<g>
	
		<rect x="151.47" y="352.517" transform="matrix(-0.7071 -0.7071 0.7071 -0.7071 18.9446 757.6052)" style="fill:#BABAC0;" width="29.816" height="44.723"/>
	<rect x="241.082" y="389.637" style="fill:#BABAC0;" width="29.819" height="44.729"/>
	
		<rect x="144.016" y="179.749" transform="matrix(-0.7071 -0.7071 0.7071 -0.7071 146.381 449.9462)" style="fill:#BABAC0;" width="44.723" height="29.816"/>
</g>
<rect x="323.259" y="359.978" transform="matrix(-0.7071 -0.7071 0.7071 -0.7071 324.9262 884.3615)" style="fill:#A1A1A7;" width="44.723" height="29.816"/>
<rect x="181.444" y="269.366" style="fill:#53433F;" width="44.729" height="29.819"/>
<rect x="255.992" y="179.909" style="fill:#3E322E;" width="14.91" height="74.548"/>
<rect x="255.992" y="389.637" style="fill:#A1A1A7;" width="14.91" height="44.729"/>
<path style="fill:#E7E7E7;" d="M350.52,16.101L340.383,44.43c-10.736-3.876-22.066-7.157-33.397-9.542
	c-16.699-3.28-33.696-5.068-50.992-5.068s-34.293,1.789-50.992,5.068c-11.331,2.387-22.661,5.666-33.397,9.542l-10.138-28.328
	c12.225-4.175,24.749-7.753,37.572-10.436C217.825,1.789,236.909,0,255.995,0s38.17,1.789,56.954,5.666
	C325.772,8.348,338.296,11.927,350.52,16.101z"/>
<path style="fill:#D3D3D8;" d="M350.52,16.101L340.383,44.43c-10.736-3.876-22.066-7.157-33.397-9.542
	c-16.699-3.28-33.696-5.068-50.992-5.068V0c19.084,0,38.17,1.789,56.954,5.666C325.772,8.348,338.296,11.927,350.52,16.101z"/>
<path style="fill:#68544F;" d="M255.995,239.547c-24.751,0-44.729,19.978-44.729,44.729c0,24.749,19.978,45.723,44.729,45.723
	s44.729-20.974,44.729-45.723C300.723,259.525,280.745,239.547,255.995,239.547z"/>
<path style="fill:#53433F;" d="M300.723,284.276c0,24.749-19.978,45.723-44.729,45.723v-90.451
	C280.745,239.547,300.723,259.525,300.723,284.276z"/>
<g>
</g>
<g>
</g>
<g>
</g>
<g>
</g>
<g>
</g>
<g>
</g>
<g>
</g>
<g>
</g>
<g>
</g>
<g>
</g>
<g>
</g>
<g>
</g>
<g>
</g>
<g>
</g>
<g>
</g>
</svg>
