<?xml version="1.0" encoding="iso-8859-1"?>
<!-- Generator: Adobe Illustrator 19.0.0, SVG Export Plug-In . SVG Version: 6.00 Build 0)  -->
<svg xmlns="http://www.w3.org/2000/svg" xmlns:xlink="http://www.w3.org/1999/xlink" version="1.1" id="Layer_1" x="0px" y="0px" viewBox="0 0 512 512" style="enable-background:new 0 0 512 512;" xml:space="preserve">
<path style="fill:#415B6B;" d="M272.748,464.893l-64.735-154.596h-15.04l-2.187-4.796h-63.041l76.578,185.432  c4.846,12.603,17.161,21.066,30.665,21.066c4.007,0,7.952-0.731,11.728-2.175l7.022-2.686  C270.564,500.705,279.091,481.752,272.748,464.893z M190.08,315.633l-2.397,4.896l0,0l2.462-5.169L190.08,315.633z"/>
<path style="fill:#2B4B5B;" d="M223.804,486.497l-74.745-180.995h-21.313l76.578,185.432C209.17,503.537,221.485,512,234.989,512  c4.007,0,7.952-0.731,11.728-2.176l6.081-2.327C239.96,506.831,228.45,498.576,223.804,486.497z"/>
<rect x="118.588" y="61.02" style="fill:#DBDCDD;" width="48.286" height="42.187"/>
<path style="fill:#EAEAE9;" d="M24.69,204.351c0,28.438,20.365,52.361,48.422,56.885l12.782,2.061V145.408l-12.778,2.055  C45.057,151.978,24.69,175.903,24.69,204.351z"/>
<path style="fill:#DBDCDD;" d="M44.538,204.351c0-25.997,17.013-48.207,41.357-55.288v-3.655l-12.778,2.055  c-28.059,4.515-48.426,28.44-48.426,56.888c0,28.438,20.365,52.361,48.422,56.885l12.782,2.061v-3.662  C61.55,252.549,44.538,230.339,44.538,204.351z"/>
<polygon style="fill:#F2F2F2;" points="236.099,99.18 236.099,309.521 439.658,392.171 439.658,16.53 "/>
<polygon style="fill:#DBDCDD;" points="261.46,110.207 439.658,37.855 439.658,16.53 236.099,99.18 236.099,309.521 261.46,319.818   "/>
<path style="fill:#EF5440;" d="M80.381,129.996v148.707c0,17.815,14.495,32.311,32.311,32.311h81.269V97.689h-81.269  C94.876,97.689,80.381,112.182,80.381,129.996z"/>
<path style="fill:#DC5542;" d="M100.228,278.704V129.996c0-17.814,14.495-32.308,32.311-32.308h-19.847  c-17.814,0-32.311,14.494-32.311,32.308v148.707c0,17.815,14.495,32.311,32.311,32.311h19.847  C114.724,311.015,100.228,296.52,100.228,278.704z"/>
<path style="fill:#EF5440;" d="M466.684,0h-11.913c-11.373,0-20.626,9.252-20.626,20.625v367.451  c0,11.373,9.253,20.625,20.626,20.625h11.913c11.373,0,20.626-9.252,20.626-20.625V20.625C487.31,9.252,478.056,0,466.684,0z"/>
<path style="fill:#DC5542;" d="M453.993,388.076V20.625c0-10.015,7.178-18.378,16.659-20.233C469.365,0.14,468.041,0,466.684,0  h-11.913c-11.373,0-20.626,9.252-20.626,20.625v367.451c0,11.373,9.253,20.625,20.626,20.625h11.913c1.357,0,2.683-0.14,3.968-0.391  C461.171,406.453,453.993,398.091,453.993,388.076z"/>
<rect x="188.451" y="92.897" style="fill:#E04335;" width="53.169" height="222.92"/>
<g>
</g>
<g>
</g>
<g>
</g>
<g>
</g>
<g>
</g>
<g>
</g>
<g>
</g>
<g>
</g>
<g>
</g>
<g>
</g>
<g>
</g>
<g>
</g>
<g>
</g>
<g>
</g>
<g>
</g>
</svg>
