<?xml version="1.0" encoding="iso-8859-1"?>
<!-- Generator: Adobe Illustrator 19.0.0, SVG Export Plug-In . SVG Version: 6.00 Build 0)  -->
<svg version="1.1" id="Capa_1" xmlns="http://www.w3.org/2000/svg" xmlns:xlink="http://www.w3.org/1999/xlink" x="0px" y="0px"
	 viewBox="0 0 512.019 512.019" style="enable-background:new 0 0 512.019 512.019;" xml:space="preserve">
<path style="fill:#607D8B;" d="M182.717,105.055c-1.211-15.155-10.371-28.53-24.064-35.136l-48.384-23.147
	c-13.725-6.549-29.899-5.297-42.453,3.285L23.485,80.393c-12.535,8.609-19.54,23.238-18.389,38.4l4.224,53.504
	c1.185,15.164,10.353,28.551,24.064,35.136l48.384,23.147c13.725,6.549,29.899,5.297,42.453-3.285l44.331-30.336
	c12.535-8.609,19.54-23.238,18.389-38.4L182.717,105.055z M96.018,181.343c-23.564,0-42.667-19.103-42.667-42.667
	s19.103-42.667,42.667-42.667s42.667,19.103,42.667,42.667S119.582,181.343,96.018,181.343z"/>
<path style="fill:#CFD8DC;" d="M507.751,354.143c0,0-76.011-57.365-128-96c-41.088-30.549-39.744-72.235-38.656-105.728
	c0.107-4.885,0.256-9.472,0.256-13.739c0-41.771-36.501-128-149.333-128c-103.765,0-123.456,19.392-127.104,27.733
	c-2.308,5.281-0.003,11.441,5.205,13.909c0.64,0.299,64.235,30.357,106.155,53.056c9.362,4.43,16.452,12.564,19.563,22.443
	c2.791,20.614-1.869,41.546-13.141,59.029c-20.843,37.739-43.648,49.835-71.872,37.995c-43.733-18.368-95.125-42.261-95.637-42.496
	c-5.336-2.496-11.685-0.194-14.181,5.143c-0.751,1.605-1.09,3.371-0.987,5.14c4.743,52.078,28.926,100.459,67.733,135.509
	c28.864,24.533,67.947,34.539,134.933,34.539c36.744,3.094,71.695,17.223,100.267,40.533l128,96c1.846,1.385,4.092,2.133,6.4,2.133
	c0.826,0,1.649-0.093,2.453-0.277c3.076-0.729,5.67-2.783,7.083-5.611l64-128C513.199,362.843,511.878,357.238,507.751,354.143z"/>
<g>
</g>
<g>
</g>
<g>
</g>
<g>
</g>
<g>
</g>
<g>
</g>
<g>
</g>
<g>
</g>
<g>
</g>
<g>
</g>
<g>
</g>
<g>
</g>
<g>
</g>
<g>
</g>
<g>
</g>
</svg>
