<svg height="512pt" viewBox="0 -31 512.00076 512" width="512pt" xmlns="http://www.w3.org/2000/svg"><path d="m432.074219 82.964844-122.65625 122.660156c-.1875.183594-.394531.347656-.582031.523438l-243 238.023437c-6.988282 6.921875-18.308594 6.898437-25.277344-.070313l-35.316406-35.320312c-6.992188-6.988281-6.984376-18.363281 0-25.347656l.140624-.140625 187.175782-187.871094 34.890625-59.0625c.460937-3.089844 1.859375-6.082031 4.242187-8.460937l122.65625-122.65625c6.988282-6.992188 18.363282-6.984376 25.347656 0l52.375 52.375c6.992188 6.992187 6.992188 18.359374.003907 25.347656zm0 0" fill="#9b5e34"/><path d="m432.074219 82.964844-122.65625 122.660156c-.1875.183594-.394531.347656-.582031.523438l-243 238.023437c-6.988282 6.921875-18.308594 6.898437-25.277344-.070313l-23.675782-23.671874 389-389 26.1875 26.1875c6.992188 6.992187 6.992188 18.359374.003907 25.347656zm0 0" fill="#824e2b"/><path d="m343.339844 313.410156c-4.972656 1.550782-10.371094.851563-14.789063-1.90625-1.167969-.738281-2.238281-1.582031-3.191406-2.535156-2.671875-2.671875-4.453125-6.144531-5.042969-9.945312l-12.363281-79.972657-101.855469-101.851562c-6.988281-6.992188-6.988281-18.359375 0-25.351563l83.53125-83.53125c6.984375-6.984375 18.359375-6.988281 25.351563 0l101.851562 101.855469 79.972657 12.359375c5.164062.804688 9.710937 3.804688 12.484374 8.234375 2.753907 4.421875 3.453126 9.820313 1.902344 14.792969-24.917968 80.191406-87.660156 142.933594-167.851562 167.851562zm0 0" fill="#f7ecd9"/><path d="m343.339844 313.410156c-4.972656 1.550782-10.371094.851563-14.789063-1.90625-1.167969-.738281-2.238281-1.582031-3.191406-2.535156-2.671875-2.671875-4.453125-6.144531-5.042969-9.945312l-12.363281-79.972657-44.84375-44.84375 108.878906-108.882812 44.84375 44.847656 79.972657 12.359375c5.164062.804688 9.710937 3.804688 12.484374 8.234375 2.753907 4.421875 3.453126 9.820313 1.902344 14.792969-24.917968 80.191406-87.660156 142.933594-167.851562 167.851562zm0 0" fill="#edd7b0"/></svg>