<svg id="SVGRoot" height="512" viewBox="0 0 64 64" width="512" xmlns="http://www.w3.org/2000/svg" xmlns:svg="http://www.w3.org/2000/svg"><path id="path4" d="m12 32c-3.3067 0-6 2.6933-6 6s2.6933 6 6 6h40c3.3067 0 6-2.6933 6-6s-2.6933-6-6-6z" fill="#cf7b44" font-feature-settings="normal" font-variant-alternates="normal" font-variant-caps="normal" font-variant-east-asian="normal" font-variant-ligatures="normal" font-variant-numeric="normal" font-variant-position="normal" font-variation-settings="normal" inline-size="0" isolation="auto" mix-blend-mode="normal" paint-order="fill markers stroke" shape-margin="0" shape-padding="0" text-decoration-color="#000000" text-decoration-line="none" text-decoration-style="solid" text-indent="0" text-orientation="mixed" text-transform="none" white-space="normal"/><path id="path902" d="m18 32c-3.3067 0-6 2.6933-6 6s2.6933 6 6 6h34c3.3067 0 6-2.6933 6-6s-2.6933-6-6-6z" fill="#d38d5f" font-variant-ligatures="normal" font-variant-position="normal" font-variant-caps="normal" font-variant-numeric="normal" font-variant-alternates="normal" font-variant-east-asian="normal" font-feature-settings="normal" font-variation-settings="normal" text-indent="0" text-decoration-line="none" text-decoration-style="solid" text-decoration-color="#000000" text-transform="none" text-orientation="mixed" white-space="normal" shape-padding="0" shape-margin="0" inline-size="0" isolation="auto" mix-blend-mode="normal" paint-order="fill markers stroke"/><path id="path8" d="m7 42c-1.645 0-3 1.355-3 3v2c0 2.7496 2.2504 5 5 5h46c2.7496 0 5-2.2504 5-5v-2c0-1.645-1.355-3-3-3z" fill="#ff8c3e" font-feature-settings="normal" font-variant-alternates="normal" font-variant-caps="normal" font-variant-east-asian="normal" font-variant-ligatures="normal" font-variant-numeric="normal" font-variant-position="normal" font-variation-settings="normal" inline-size="0" isolation="auto" mix-blend-mode="normal" paint-order="fill markers stroke" shape-margin="0" shape-padding="0" text-decoration-color="#000000" text-decoration-line="none" text-decoration-style="solid" text-indent="0" text-orientation="mixed" text-transform="none" white-space="normal"/><path id="path12" d="m8.834 32c-.9097 0-1.6738.46118-2.1523.99219-.47858.53101-.75384 1.1234-.9668 1.6016-.30324.68089-.61255 1.554-.69727 2.4785-.084719.92454.089272 2.0669 1.0254 2.7402.69521.50004 1.569.56334 2.2637.38867.69466-.17466 1.2868-.51766 1.8535-.86328 1.1333-.69124 2.1946-1.3379 2.8105-1.3379.80964 0 1.7036.40039 2.7344.90039s2.1991 1.0996 3.6094 1.0996 2.5767-.59962 3.6074-1.0996 1.9247-.90039 2.7344-.90039 1.7036.40039 2.7344.90039 2.1991 1.0996 3.6094 1.0996 2.5767-.59962 3.6074-1.0996 1.9247-.90039 2.7344-.90039 1.7056.40039 2.7363.90039 2.1972 1.0996 3.6074 1.0996 2.5767-.59962 3.6074-1.0996 1.9247-.90039 2.7344-.90039c.61598 0 1.6792.64664 2.8125 1.3379.56667.34562 1.1569.68862 1.8516.86328.69465.17466 1.5685.11138 2.2637-.38867.93612-.67333 1.1101-1.8157 1.0254-2.7402-.084719-.92454-.39207-1.7976-.69531-2.4785-.21294-.47823-.49016-1.0705-.96875-1.6016-.47859-.53102-1.2426-.99219-2.1523-.99219h-46.33z" fill="#47d07d" font-feature-settings="normal" font-variant-alternates="normal" font-variant-caps="normal" font-variant-east-asian="normal" font-variant-ligatures="normal" font-variant-numeric="normal" font-variant-position="normal" font-variation-settings="normal" inline-size="0" isolation="auto" mix-blend-mode="normal" paint-order="fill markers stroke" shape-margin="0" shape-padding="0" text-decoration-color="#000000" text-decoration-line="none" text-decoration-style="solid" text-indent="0" text-orientation="mixed" text-transform="none" white-space="normal"/><path id="path897" d="m14.833984 32c-.9097 0-1.673843.461177-2.152343.992188-.47858.53101-.753837 1.123362-.966797 1.601562-.30324.68089-.612546 1.554016-.697266 2.478516-.047897.522692-.005328 1.112577.203125 1.65039.698241-.398085 1.338284-.722656 1.75-.722656.80964 0 1.703575.400391 2.734375.900391.855759.415094 1.808978.892602 2.914063 1.044921.230388.026995.461162.051012.695312.054688.352575 0 .689894-.037536 1.013672-.101562.971334-.19208 1.820725-.623062 2.59375-.998047s1.469984-.694027 2.111328-.830079c.213781-.04535.420622-.070312.623047-.070312.8097 0 1.703575.400391 2.734375.900391.2577.125.524261.256287.800781.382812.829561.379575 1.750869.716797 2.808594.716797.176288 0 .348701-.009971.517578-.027344 1.182139-.121606 2.187981-.634783 3.089844-1.072265.773025-.374985 1.469984-.694027 2.111328-.830079.213781-.04535.420622-.070312.623047-.070312.8097 0 1.705628.400391 2.736328.900391.257675.125.524445.256287.800781.382812.829008.379575 1.748991.716797 2.806641.716797.176275 0 .348708-.009971.517578-.027344 1.182091-.121606 2.187981-.634783 3.089844-1.072265.773025-.374985 1.469984-.694027 2.111328-.830079.213781-.04535.420622-.070312.623047-.070312.61598 0 1.6792.646631 2.8125 1.337891.283335.17281.571724.345308.876953.496093s.627259.279858.974609.367188c.173663.043665.358357.073168.548828.083984.571414.032448 1.193444-.097618 1.714844-.472656.93612-.67333 1.110091-1.815734 1.025391-2.740234-.084719-.92454-.392073-1.797616-.695313-2.478516-.21294-.47823-.49016-1.070463-.96875-1.601562-.47859-.53102-1.242644-.992188-2.152344-.992188z" fill="#5fd38d" font-variant-ligatures="normal" font-variant-position="normal" font-variant-caps="normal" font-variant-numeric="normal" font-variant-alternates="normal" font-variant-east-asian="normal" font-feature-settings="normal" font-variation-settings="normal" text-indent="0" text-decoration-line="none" text-decoration-style="solid" text-decoration-color="#000000" text-transform="none" text-orientation="mixed" white-space="normal" shape-padding="0" shape-margin="0" inline-size="0" isolation="auto" mix-blend-mode="normal" paint-order="fill markers stroke"/><path id="path16" d="m9 28c-1.6447 0-3 1.3553-3 3s1.3553 3 3 3h46c1.6447 0 3-1.3553 3-3s-1.3553-3-3-3z" fill="#ff4747" font-feature-settings="normal" font-variant-alternates="normal" font-variant-caps="normal" font-variant-east-asian="normal" font-variant-ligatures="normal" font-variant-numeric="normal" font-variant-position="normal" font-variation-settings="normal" inline-size="0" isolation="auto" mix-blend-mode="normal" paint-order="fill markers stroke" shape-margin="0" shape-padding="0" text-decoration-color="#000000" text-decoration-line="none" text-decoration-style="solid" text-indent="0" text-orientation="mixed" text-transform="none" white-space="normal"/><path id="path892" d="m15 28c-1.6447 0-3 1.3553-3 3s1.3553 3 3 3h40c1.6447 0 3-1.3553 3-3s-1.3553-3-3-3z" fill="#f55" font-variant-ligatures="normal" font-variant-position="normal" font-variant-caps="normal" font-variant-numeric="normal" font-variant-alternates="normal" font-variant-east-asian="normal" font-feature-settings="normal" font-variation-settings="normal" text-indent="0" text-decoration-line="none" text-decoration-style="solid" text-decoration-color="#000000" text-transform="none" text-orientation="mixed" white-space="normal" shape-padding="0" shape-margin="0" inline-size="0" isolation="auto" mix-blend-mode="normal" paint-order="fill markers stroke"/><path id="path20" d="m19.5 26.371a1.0001 1.0001 0 0 0 -.53906 1.8418l11.436 7.3184c.97524.62415 2.2318.62415 3.207 0l11.436-7.3184a1.0001 1.0001 0 0 0 -.53906-1.8418h-25z" fill="#fd5" font-feature-settings="normal" font-variant-alternates="normal" font-variant-caps="normal" font-variant-east-asian="normal" font-variant-ligatures="normal" font-variant-numeric="normal" font-variant-position="normal" font-variation-settings="normal" inline-size="0" isolation="auto" mix-blend-mode="normal" shape-margin="0" shape-padding="0" text-decoration-color="#000000" text-decoration-line="none" text-decoration-style="solid" text-indent="0" text-orientation="mixed" text-transform="none" white-space="normal"/><path id="path24" d="m57 30c1.645 0 3-1.355 3-3 0-8.2724-6.7276-15-15-15h-26c-8.2724 0-15 6.7276-15 15 0 1.645 1.355 3 3 3z" fill="#ff8c3e" font-feature-settings="normal" font-variant-alternates="normal" font-variant-caps="normal" font-variant-east-asian="normal" font-variant-ligatures="normal" font-variant-numeric="normal" font-variant-position="normal" font-variation-settings="normal" inline-size="0" isolation="auto" mix-blend-mode="normal" paint-order="fill markers stroke" shape-margin="0" shape-padding="0" text-decoration-color="#000000" text-decoration-line="none" text-decoration-style="solid" text-indent="0" text-orientation="mixed" text-transform="none" white-space="normal"/><g fill="#f95"><path id="path881" d="m19.546875 12c-4.502295 2.591322-7.546875 7.441742-7.546875 13 0 1.645 1.355 3 3 3h44.8125c.113558-.314893.1875-.648151.1875-1 0-8.2724-6.7276-15-15-15z" font-variant-ligatures="normal" font-variant-position="normal" font-variant-caps="normal" font-variant-numeric="normal" font-variant-alternates="normal" font-variant-east-asian="normal" font-feature-settings="normal" font-variation-settings="normal" text-indent="0" text-decoration-line="none" text-decoration-style="solid" text-decoration-color="#000000" text-transform="none" text-orientation="mixed" white-space="normal" shape-padding="0" shape-margin="0" inline-size="0" isolation="auto" mix-blend-mode="normal" paint-order="fill markers stroke"/><path id="path907" d="m12.787109 42c-.48298.53335-.787109 1.231402-.787109 2v1c0 2.7496 2.2504 5 5 5h41.970703c.636538-.839052 1.029297-1.872029 1.029297-3v-2c0-1.645-1.355-3-3-3z" font-variant-ligatures="normal" font-variant-position="normal" font-variant-caps="normal" font-variant-numeric="normal" font-variant-alternates="normal" font-variant-east-asian="normal" font-feature-settings="normal" font-variation-settings="normal" text-indent="0" text-decoration-line="none" text-decoration-style="solid" text-decoration-color="#000000" text-transform="none" text-orientation="mixed" white-space="normal" shape-padding="0" shape-margin="0" inline-size="0" isolation="auto" mix-blend-mode="normal" paint-order="fill markers stroke"/></g></svg>