<svg id="_01-Rainbow" height="512" viewBox="0 0 64 64" width="512" xmlns="http://www.w3.org/2000/svg" data-name="01-Rainbow"><path d="m19 31a4.941 4.941 0 0 1 3 1 5.01 5.01 0 0 1 2 4v1a5.106 5.106 0 0 1 2 .41 5 5 0 0 1 -2 9.59h-18a5 5 0 0 1 0-10v-1a6.97 6.97 0 0 1 4-6.32 6.844 6.844 0 0 1 3-.68 5.365 5.365 0 0 1 .99.08 6.923 6.923 0 0 1 4.01 2.02 5.468 5.468 0 0 1 1-.1z" fill="#cff9ff"/><path d="m26 37.41a5.106 5.106 0 0 0 -2-.41v-1a5.01 5.01 0 0 0 -2-4 4.941 4.941 0 0 0 -3-1 5.468 5.468 0 0 0 -1 .1 6.923 6.923 0 0 0 -4.01-2.02 5.365 5.365 0 0 0 -.99-.08 6.881 6.881 0 0 0 -2.008.3 6.958 6.958 0 0 1 3.008 1.8 5.468 5.468 0 0 1 1-.1 4.941 4.941 0 0 1 3 1 5.01 5.01 0 0 1 2 4v1a5.106 5.106 0 0 1 2 .41 5 5 0 0 1 -2 9.59h4a5 5 0 0 0 2-9.59z" fill="#e3fbff"/><path d="m5 42a5 5 0 0 1 5-5v-1a6.97 6.97 0 0 1 4-6.32 6.729 6.729 0 0 1 .992-.376 6.675 6.675 0 0 0 -1-.224 5.365 5.365 0 0 0 -.992-.08 6.844 6.844 0 0 0 -3 .68 6.97 6.97 0 0 0 -4 6.32v1a5 5 0 0 0 0 10h4a5 5 0 0 1 -5-5z" fill="#b5efff"/><path d="m24 36a5.01 5.01 0 0 0 -2-4v-5a10 10 0 0 1 20 0v21a5.01 5.01 0 0 0 -2 4v1a5.106 5.106 0 0 0 -2 .41v-26.41a6.009 6.009 0 0 0 -6-6 6 6 0 0 0 -6 6v10.41a5.106 5.106 0 0 0 -2-.41z" fill="#aeabd6"/><path d="m46 27v20.1a5.468 5.468 0 0 0 -1-.1 4.941 4.941 0 0 0 -3 1v-21a10 10 0 0 0 -20 0v5a4.941 4.941 0 0 0 -3-1 5.468 5.468 0 0 0 -1 .1v-4.1a14 14 0 1 1 28 0z" fill="#80dbff"/><path d="m50 27v18.08a6.955 6.955 0 0 0 -4 2.02v-20.1a14 14 0 0 0 -28 0v4.1a6.923 6.923 0 0 0 -4.01-2.02l.01-.08v-2a18 18 0 1 1 36 0z" fill="#c3dc4b"/><path d="m14 27v2l-.01.08a5.365 5.365 0 0 0 -.99-.08 6.844 6.844 0 0 0 -3 .68v-2.68a22 22 0 1 1 44 0v18.68a6.844 6.844 0 0 0 -3-.68 5.546 5.546 0 0 0 -1 .08v-18.08a18 18 0 0 0 -36 0z" fill="#ffe45c"/><path d="m58 27v25a6.97 6.97 0 0 0 -4-6.32v-18.68a22 22 0 0 0 -44 0v2.68a6.97 6.97 0 0 0 -4 6.32v-9a26 26 0 0 1 52 0z" fill="#ff8257"/><rect fill="#988fc4" height="26" rx="2" width="4" x="38" y="33"/><rect fill="#19cffc" height="26" rx="2" width="4" x="42" y="30"/><rect fill="#b4d241" height="26" rx="2" width="4" x="46" y="35"/><rect fill="#ffbc36" height="26" rx="2" width="4" x="50" y="30"/><rect fill="#ff7045" height="30" rx="2" width="4" x="54" y="26"/><path d="m54 45.68a6.97 6.97 0 0 1 4 6.32v1a5 5 0 0 1 0 10h-18a5 5 0 0 1 -2-9.59 5.106 5.106 0 0 1 2-.41v-1a5.01 5.01 0 0 1 2-4 4.941 4.941 0 0 1 3-1 5.468 5.468 0 0 1 1 .1 6.955 6.955 0 0 1 4-2.02 5.546 5.546 0 0 1 1-.08 6.844 6.844 0 0 1 3 .68z" fill="#cff9ff"/><path d="m58 53v-1a6.97 6.97 0 0 0 -4-6.32 6.844 6.844 0 0 0 -3-.68 5.546 5.546 0 0 0 -1 .08 6.892 6.892 0 0 0 -.989.225 6.8 6.8 0 0 1 .989.375 6.97 6.97 0 0 1 4 6.32v1a5 5 0 0 1 0 10h4a5 5 0 0 0 0-10z" fill="#e3fbff"/><path d="m39 58a5.029 5.029 0 0 1 3-4.59 5.106 5.106 0 0 1 2-.41v-1a5.01 5.01 0 0 1 2-4 4.941 4.941 0 0 1 3-1 5.468 5.468 0 0 1 1 .1 6.947 6.947 0 0 1 3.011-1.8 6.9 6.9 0 0 0 -2.011-.3 5.546 5.546 0 0 0 -1 .08 6.955 6.955 0 0 0 -4 2.02 5.468 5.468 0 0 0 -1-.1 4.941 4.941 0 0 0 -3 1 5.01 5.01 0 0 0 -2 4v1a5.106 5.106 0 0 0 -2 .41 5 5 0 0 0 2 9.59h4a5 5 0 0 1 -5-5z" fill="#b5efff"/></svg>