<svg height="512pt" viewBox="-36 0 512 512" width="512pt" xmlns="http://www.w3.org/2000/svg"><path d="m195.355469 10.289062-181.542969 179.917969c-8.839844 8.761719-13.8125 20.6875-13.8125 33.136719v263.054688c0 14.140624 11.460938 25.601562 25.601562 25.601562h389.507813c14.136719 0 25.601563-11.460938 25.601563-25.601562v-263.054688c0-12.449219-4.976563-24.375-13.816407-33.136719l-181.539062-179.917969c-13.84375-13.71875-36.15625-13.71875-50 0zm0 0" fill="#e3b542"/><path d="m396.273438 409.511719h-351.835938v-330.789063c0-11.625 9.421875-21.046875 21.046875-21.046875h309.742187c11.625 0 21.046876 9.421875 21.046876 21.046875zm0 0" fill="#fafaff"/><path d="m375.226562 57.675781h-34.605468v351.835938h55.652344v-330.789063c0-11.625-9.421876-21.046875-21.046876-21.046875zm0 0" fill="#e6e6f2"/><path d="m437.578125 206.582031-191.570313 164.480469c-14.753906 12.667969-36.546874 12.667969-51.304687 0l-191.574219-164.480469c-2.039062 5.300781-3.128906 10.972657-3.128906 16.761719v263.054688c0 14.140624 11.460938 25.601562 25.601562 25.601562h389.507813c14.136719 0 25.601563-11.460938 25.601563-25.601562v-263.054688c0-5.789062-1.089844-11.460938-3.132813-16.761719zm0 0" fill="#ffe591"/><path d="m437.578125 206.582031-191.570313 164.480469c-14.753906 12.667969-36.546874 12.667969-51.304687 0l-191.574219-164.480469c-2.039062 5.300781-3.128906 10.972657-3.128906 16.761719v263.054688c0 14.140624 11.460938 25.601562 25.601562 25.601562h389.507813c14.136719 0 25.601563-11.460938 25.601563-25.601562v-263.054688c0-5.789062-1.089844-11.460938-3.132813-16.761719zm0 0" fill="#ffe591"/><path d="m437.578125 206.582031-52.519531 45.09375v191.953125c0 14.136719-11.460938 25.597656-25.597656 25.597656h-359.460938v17.171876c0 14.140624 11.460938 25.601562 25.601562 25.601562h389.507813c14.136719 0 25.601563-11.460938 25.601563-25.601562v-263.054688c0-5.789062-1.089844-11.460938-3.132813-16.761719zm0 0" fill="#ff9d00"/><path d="m204.589844 349.683594-196.203125 155.664062c4.546875 4.132813 10.585937 6.652344 17.214843 6.652344h389.507813c6.628906 0 12.667969-2.519531 17.214844-6.652344l-196.207031-155.664062c-9.230469-7.324219-22.292969-7.324219-31.527344 0zm0 0" fill="#f2c546"/><path d="m8.386719 505.347656c4.546875 4.132813 10.585937 6.652344 17.214843 6.652344h389.507813c6.628906 0 12.667969-2.519531 17.214844-6.652344l-54.859375-43.523437c-4.625 4.574219-10.984375 7.402343-18.003906 7.402343h-305.546876zm0 0" fill="#e3b542"/><path d="m221.023438 162.164062c19.253906 0 32.757812 9.960938 32.757812 28.554688v36.964844c.882812 7.082031 5.753906 10.84375 11.066406 10.84375 12.175782 0 14.386719-19.917969 14.386719-33.199219 0-38.957031-18.148437-61.757813-56.882813-61.757813-44.269531 0-57.992187 30.546876-57.992187 64.191407 0 31.210937 12.394531 60.207031 51.128906 60.207031 19.035157 0 26.339844-6.640625 30.769531-6.640625 3.316407 0 5.308594 3.761719 5.308594 5.753906 0 7.082031-21.910156 12.839844-38.070312 12.839844-32.316406 0-62.195313-22.355469-62.195313-71.9375 0-42.71875 21.46875-76.804687 71.273438-76.804687 44.488281 0 69.722656 26.117187 69.722656 71.933593 0 24.351563-7.746094 46.484375-28.554687 46.484375-11.507813 0-20.140626-6.863281-21.914063-14.832031-7.523437 8.191406-14.605469 13.058594-27.222656 13.058594-14.832031 0-27.890625-6.636719-27.890625-24.566407 0-20.363281 17.488281-25.675781 43.828125-25.675781h8.851562v-3.984375c0-11.953125-6.417969-17.707031-20.804687-17.707031-13.945313 0-17.484375 5.535156-21.027344 5.535156-3.320312 0-5.535156-4.871093-5.535156-7.527343 0-6.640626 15.492187-11.734376 28.996094-11.734376zm18.8125 45.375h-7.96875c-17.484376 0-29.660157 2.65625-29.660157 15.71875 0 9.296876 6.199219 13.277344 14.832031 13.277344 13.5 0 22.796876-9.738281 22.796876-18.148437zm0 0" fill="#76c0cf"/></svg>