<svg id="Layer_1" height="512" viewBox="0 0 64 64" width="512" xmlns="http://www.w3.org/2000/svg" data-name="Layer 1"><path d="m45.1006 32.6274a1 1 0 0 1 -.707-1.707l12.02-12.021-5.6563-5.6567a1 1 0 1 1 1.4141-1.4141l6.3633 6.3638a1 1 0 0 1 0 1.414l-12.7271 12.7281a.9967.9967 0 0 1 -.707.2929z" fill="#eceef0"/><path d="m54.4109 5.756a3 3 0 0 1 3 3v4.6661a0 0 0 0 1 0 0h-6a0 0 0 0 1 0 0v-4.6661a3 3 0 0 1 3-3z" fill="#aacb6c" transform="matrix(.707 .707 -.707 .707 22.717 -35.666)"/><path d="m30.353 3.783h8v51.727h-8z" fill="#d44539" transform="matrix(.707 .707 -.707 .707 31.025 -15.608)"/><path d="m12.364 45.979-3.536 3.536-2.828 8.485 8.485-2.828 3.536-3.536z" fill="#eceef0"/><path d="m46.465 10.536h10v4h-10z" fill="#c02f2b" transform="matrix(.707 .707 -.707 .707 23.938 -32.719)"/><path d="m33.08 31.92a1 1 0 0 1 -.7071-1.707l9.9-9.8994a1 1 0 0 1 1.414 1.414l-9.8994 9.8994a.9964.9964 0 0 1 -.7075.293z" fill="#eceef0"/><path d="m21.7989 26.2011h8a1 1 0 0 1 1 1v23a0 0 0 0 1 0 0h-10a0 0 0 0 1 0 0v-23a1 1 0 0 1 1-1z" fill="#c02f2b" transform="matrix(.707 .707 -.707 .707 34.569 -7.054)"/><path d="m10.8994 46.1005h10a0 0 0 0 1 0 0v3a1 1 0 0 1 -1 1h-8a1 1 0 0 1 -1-1v-3a0 0 0 0 1 0 0z" fill="#aacb6c" transform="matrix(.707 .707 -.707 .707 38.669 2.846)"/></svg>