<svg height="512" viewBox="0 0 128 128" width="512" xmlns="http://www.w3.org/2000/svg"><g><path d="m117.9 45.1a28.683 28.683 0 0 0 -14.923-18.04 34.311 34.311 0 0 0 -9.57-2.815c-9.521-1.635-18.194 5.19-29.336 5.19h-.058a37.778 37.778 0 0 1 -14.9-3.058 28.748 28.748 0 0 0 -24.052.672l-.035.011a28.795 28.795 0 0 0 -14.932 18.059 67.419 67.419 0 0 0 8.493 54.86l11.157 17.113a15.193 15.193 0 0 0 18.689 5.689 39.878 39.878 0 0 1 31.132 0 15.2 15.2 0 0 0 18.688-5.689l11.169-17.113a67.414 67.414 0 0 0 8.481-54.86z" fill="#e6646e"/><path d="m76.517 16.965c-4.326.79-12.517 2.992-14.193 5.943a40.436 40.436 0 0 1 1.449 5.04c.116.5.208 1 .3 1.483.88 0 1.761-.034 2.642-.092 14.2 6.083 22.419.382 26.694-5.1a25.178 25.178 0 0 0 3.939-7.126c-8.827-2.836-15.686-2.164-20.831-.148z" fill="#b4e6a0"/><path d="m59.358 16.745a31.965 31.965 0 0 1 2.966 6.163 23.882 23.882 0 0 0 6.141-.869 15.818 15.818 0 0 0 8.052-5.074c4.658-5.538 4.229-12.965 4.229-12.965-13.127.707-18.897 7.542-21.388 12.745z" fill="#7db267"/><path d="m52.687 7.5a1.75 1.75 0 1 0 -1.882 2.95 22.8 22.8 0 0 1 7.048 7.191c3.6 6.081 6.13 15.978 5.222 25.114a1.75 1.75 0 0 0 1.561 1.919 1.6 1.6 0 0 0 .182.01 1.749 1.749 0 0 0 1.738-1.569 46.881 46.881 0 0 0 -5.715-27.295 26.326 26.326 0 0 0 -8.154-8.32z" fill="#ffaa5f"/><path d="m78.591 38.455c-9.7 6.379-27.729-.115-27.91-.181a1.75 1.75 0 0 0 -1.207 3.286 57.563 57.563 0 0 0 17.7 3.2c4.669 0 9.476-.842 13.342-3.384a1.75 1.75 0 0 0 -1.924-2.924z" fill="#ce4159"/></g></svg>