<svg id="Capa_1" enable-background="new 0 0 512 512" height="512" viewBox="0 0 512 512" width="512" xmlns="http://www.w3.org/2000/svg"><path d="m371.684 512c-.238 0-.472-.001-.711-.002-34.93-.184-67.769-13.9-92.467-38.622l-239.957-240.179c-51.357-51.406-51.357-135.049 0-186.455l42.305-42.344c2.813-2.816 6.631-4.398 10.611-4.398s7.798 1.582 10.611 4.398l107.314 107.414c5.852 5.856 5.852 15.347 0 21.203l-49.529 49.575c-3.263 3.266-3.263 8.581 0 11.847l157.857 158.005c1.576 1.578 3.671 2.446 5.898 2.446 2.228 0 4.322-.869 5.898-2.447l49.529-49.575c2.813-2.816 6.631-4.398 10.611-4.398s7.798 1.582 10.611 4.398l107.315 107.414c2.83 2.832 4.41 6.677 4.389 10.681-.021 4.003-1.642 7.832-4.501 10.634l-43.627 42.758c-24.786 24.292-57.493 37.646-92.157 37.647z" fill="#b4d241"/><path d="m370.973 511.998c.239.001.473.002.711.002 34.665-.001 67.371-13.355 92.157-37.647l43.627-42.758c2.859-2.802 4.48-6.631 4.501-10.634s-1.559-7.849-4.389-10.681l-107.314-107.414c-2.813-2.816-6.631-4.398-10.611-4.398s-7.798 1.582-10.611 4.398l-49.529 49.575c-1.577 1.578-3.671 2.447-5.898 2.447s-4.322-.869-5.898-2.446l-79.027-79.101-80.055 80.055 119.869 119.981c24.698 24.721 57.537 38.437 92.467 38.621z" fill="#9ebd2a"/><path d="m161.819 180.631 21.203-21.223-128.542-128.611-15.93 15.945c-1.77 1.771-3.472 3.585-5.12 5.43z" fill="#8aa818"/><path d="m352.669 329.265-21.203 21.223 127.948 128.007c1.501-1.344 2.979-2.723 4.427-4.142l17.098-16.758z" fill="#738c28"/><g fill="#6ad9eb"><path d="m489.064 233.096c-8.284 0-15-6.716-15-15 0-99.182-80.609-179.873-179.691-179.873-8.284 0-15-6.716-15-15s6.716-15 15-15c115.624 0 209.691 94.148 209.691 209.873 0 8.284-6.716 15-15 15z"/><path d="m429.064 233.096c-8.284 0-15-6.716-15-15 0-66.067-53.693-119.817-119.691-119.817-8.284 0-15-6.716-15-15s6.716-15 15-15c82.54 0 149.691 67.208 149.691 149.817 0 8.284-6.716 15-15 15z"/><path d="m369.064 233.096c-8.284 0-15-6.716-15-15 0-32.953-26.777-59.761-59.691-59.761-8.284 0-15-6.716-15-15s6.716-15 15-15c49.456 0 89.691 40.267 89.691 89.761 0 8.284-6.716 15-15 15z"/></g><path d="m474.064 218.096c0 8.284 6.716 15 15 15s15-6.716 15-15c0-57.941-23.582-110.471-61.643-148.486l-21.203 21.203c32.628 32.584 52.846 77.614 52.846 127.283z" fill="#28c1d1"/><path d="m414.064 218.096c0 8.284 6.716 15 15 15s15-6.716 15-15c0-41.393-16.862-78.917-44.069-106.059l-21.203 21.203c21.774 21.71 35.272 51.734 35.272 84.856z" fill="#28c1d1"/><path d="m354.064 218.096c0 8.284 6.716 15 15 15s15-6.716 15-15c0-24.846-10.141-47.364-26.496-63.633l-21.205 21.205c10.922 10.837 17.701 25.853 17.701 42.428z" fill="#28c1d1"/></svg>