<svg id="Layer_1" enable-background="new 0 0 504.062 504.062" height="512" viewBox="0 0 504.062 504.062" width="512" xmlns="http://www.w3.org/2000/svg"><g><g><path d="m110.077 334.599h88.772v30h-88.772z" fill="#295a96" transform="matrix(.707 -.707 .707 .707 -201.963 211.617)"/></g><path d="m115.38 347.402h88.772v15h-88.772z" fill="#163756" transform="matrix(.707 -.707 .707 .707 -204.159 216.92)"/><g><path d="m14.332 489.73c-19.109-19.109-19.109-50.201 0-69.311l50.042-50.042c19.109-19.109 50.201-19.109 69.31 0s19.109 50.201 0 69.31l-50.042 50.043c-19.109 19.109-50.201 19.109-69.31 0z" fill="#ffd474"/></g><path d="m83.642 489.73 50.042-50.042c19.109-19.109 19.109-50.201 0-69.31l-119.352 119.352c19.109 19.109 50.201 19.109 69.31 0z" fill="#ffa238"/><g><path d="m175.242 328.82c-75.122-75.122-75.122-197.355 0-272.478s197.355-75.122 272.478 0 75.123 197.355 0 272.478-197.355 75.122-272.478 0z" fill="#163756"/></g><g><path d="m215.379 288.683c-52.991-52.991-52.991-139.213 0-192.204s139.213-52.991 192.204 0 52.991 139.213 0 192.204-139.213 52.991-192.204 0z" fill="#295a96"/></g><path d="m447.72 328.82c75.123-75.122 75.123-197.355 0-272.478l-272.478 272.478c75.123 75.122 197.356 75.122 272.478 0z" fill="#0a1f33"/><path d="m407.584 288.683c52.991-52.991 52.991-139.213 0-192.204l-192.205 192.204c52.991 52.991 139.214 52.991 192.205 0z" fill="#163756"/></g></svg>