<svg id="Capa_1" enable-background="new 0 0 512 512" height="512" viewBox="0 0 512 512" width="512" xmlns="http://www.w3.org/2000/svg"><g><path d="m436 91h-360c-8.284 0-15-6.716-15-15v-60c0-8.284 6.716-15 15-15h360c8.284 0 15 6.716 15 15v60c0 8.284-6.716 15-15 15z" fill="#50aa00"/><path d="m436 1h-180v90h180c8.284 0 15-6.716 15-15v-60c0-8.284-6.716-15-15-15z" fill="#3c8c00"/><path d="m456 151h-400c-8.284 0-15-6.716-15-15v-60c0-8.284 6.716-15 15-15h400c8.284 0 15 6.716 15 15v60c0 8.284-6.716 15-15 15z" fill="#64c83c"/><path d="m456 61h-200v90h200c8.284 0 15-6.716 15-15v-60c0-8.284-6.716-15-15-15z" fill="#50aa00"/><path d="m476 211h-440c-8.284 0-15-6.716-15-15v-60c0-8.284 6.716-15 15-15h440c8.284 0 15 6.716 15 15v60c0 8.284-6.716 15-15 15z" fill="#50aa00"/><path d="m476 121h-220v90h220c8.284 0 15-6.716 15-15v-60c0-8.284-6.716-15-15-15z" fill="#3c8c00"/><path d="m497 511h-482c-8.284 0-15-6.716-15-15v-300c0-8.284 6.716-15 15-15h482c8.284 0 15 6.716 15 15v300c0 8.284-6.716 15-15 15z" fill="#85e65a"/><path d="m497 181h-241v330h241c8.284 0 15-6.716 15-15v-300c0-8.284-6.716-15-15-15z" fill="#64c83c"/><path d="m108.844 181c9.86 64.065-44.779 118.704-108.844 108.844v-93.844c0-8.284 6.716-15 15-15z" fill="#64c83c"/><path d="m15 511c-8.284 0-15-6.716-15-15v-93.844c64.065-9.86 118.704 44.779 108.844 108.844z" fill="#64c83c"/><g fill="#50aa00"><path d="m497 181c8.284 0 15 6.716 15 15v93.844c-64.065 9.86-118.704-44.779-108.844-108.844z"/><path d="m403.156 511c-9.86-64.065 44.779-118.704 108.844-108.844v93.844c0 8.284-6.716 15-15 15z"/><path d="m416 371h-40c-8.284 0-15-6.716-15-15s6.716-15 15-15h40c8.284 0 15 6.716 15 15s-6.716 15-15 15z"/></g><path d="m136 371h-40c-8.284 0-15-6.716-15-15s6.716-15 15-15h40c8.284 0 15 6.716 15 15s-6.716 15-15 15z" fill="#64c83c"/><path d="m277.094 330.961c-2.332-.824-4.704-1.679-7.08-2.558v-44.949c3.114 1.338 4.948 3.038 5.785 3.967 5.542 6.159 15.026 6.657 21.184 1.115s6.657-15.026 1.116-21.184c-3.263-3.625-12.433-12.167-28.084-14.941v-6.411c0-8.284-6.716-15-15-15s-15 6.716-15 15v8.352c-.716.197-1.427.386-2.157.606-17.189 5.178-30.025 19.844-33.499 38.275-3.191 16.935 2.322 33.334 14.388 42.798 5.553 4.356 12.295 8.351 21.267 12.49v59.04c-5.959-.969-10.638-3.156-17.904-7.908-6.933-4.535-16.229-2.591-20.764 4.341s-2.591 16.229 4.341 20.764c13.003 8.506 22.511 11.837 34.327 12.986v8.256c0 8.284 6.716 15 15 15s15-6.716 15-15v-9.668c8.973-2.34 17.144-6.768 24.095-13.155 9.58-8.802 16.046-20.727 18.207-33.578 4.384-26.077-9.771-49.641-35.222-58.638zm-39.833-18.535c-3.171-2.487-4.514-7.839-3.421-13.637.723-3.839 2.694-8.208 6.174-11.394v27.01c-.968-.653-1.9-1.311-2.753-1.979zm45.47 72.199c-1.211 7.206-5.517 14.777-12.717 19.356v-43.55c13.987 6.461 13.606 18.904 12.717 24.194z" fill="#64c83c"/><path d="m277.094 330.961c-2.332-.824-4.704-1.679-7.08-2.558v-44.949c3.114 1.338 4.948 3.038 5.785 3.967 5.542 6.159 15.026 6.657 21.184 1.115s6.657-15.026 1.116-21.184c-3.263-3.625-12.433-12.167-28.084-14.941v-6.411c0-7.951-6.192-14.44-14.014-14.95v229.9c7.822-.51 14.014-6.999 14.014-14.95v-9.668c8.973-2.34 17.144-6.768 24.095-13.155 9.58-8.802 16.046-20.727 18.207-33.578 4.383-26.077-9.772-49.641-35.223-58.638zm5.637 53.664c-1.211 7.206-5.517 14.777-12.717 19.356v-43.55c13.987 6.461 13.606 18.904 12.717 24.194z" fill="#50aa00"/></g></svg>