<svg id="Capa_1" enable-background="new 0 0 512 512" height="512" viewBox="0 0 512 512" width="512" xmlns="http://www.w3.org/2000/svg"><g><g><path d="m221 325.294v73.8h-49.519l84.519 112.906 37.72-94.28-37.72-92.426z" fill="#ffe377"/><path d="m291 399.094v-73.8h-35v186.706l84.519-112.906z" fill="#ffb555"/></g><g><g><path d="m0 141.593v46.833l140.093 141.589h115.907l98.2-161.415-98.2-168.6h-114.406z" fill="#a4e786"/><path d="m371.907 0h-115.907v330.015h115.907l140.093-141.589v-46.852z" fill="#00cb76"/></g><g><g><g><g><path d="m111 150h30v30h-30z" fill="#00cb76" transform="matrix(.707 -.707 .707 .707 -79.768 137.423)"/></g></g></g><g><g><g><path d="m371 150h30v30h-30z" fill="#00a98f" transform="matrix(.707 -.707 .707 .707 -3.616 321.271)"/></g></g></g></g><g><path d="m141.594 0h-141.594v141.593c78.2 0 141.593-63.393 141.594-141.593z" fill="#00cb76"/><path d="m0 188.426v141.589h140.093c0-77.698-62.585-140.783-140.093-141.589z" fill="#00cb76"/><g fill="#00a98f"><path d="m512 188.426c-77.508.806-140.093 63.891-140.093 141.589h140.093z"/><path d="m512 141.574v-141.574h-140.093c0 77.698 62.585 140.768 140.093 141.574z"/></g></g></g><g><path d="m227.761 200.573-10.072-11.115-22.23 20.145 10.072 11.115c9.208 10.161 21.718 17.563 35.469 21.372v87.925h15l13.6-62.055-13.6-53.336c-11.065-1.388-21.318-6.414-28.239-14.051z" fill="#00cb76"/><path d="m242.918 137.124c-4.241-3.288-4.106-7.937-3.83-9.86.368-2.563 2.21-8.821 11.343-11.572 1.876-.565 3.737-.936 5.568-1.153l12.52-53.458-12.519-61.081h-15v87.215c-17.13 5.455-29.211 19.096-31.607 35.785-2.278 15.864 4.597 31.123 17.941 39.823.663.432 1.359.811 2.081 1.133.595.266 11.904 5.298 26.585 11.076l10.36-12.913-10.36-19.439c-6.184-2.555-10.923-4.61-13.082-5.556z" fill="#00cb76"/><g fill="#00a98f"><path d="m287.661 124.264-.078-.065 19.304-22.965c-.849-.713-15.277-12.597-35.887-16.022v-85.212h-15v114.538c17.022-2.021 31.501 9.595 31.661 9.726z"/><path d="m278.756 151.609c-8.308-3.064-16.315-6.268-22.756-8.929v32.353c3.931 1.547 8.1 3.146 12.374 4.723 6.05 2.231 19.915 8.579 18.001 19.298-1.402 7.853-10.824 15.975-24.165 15.975-2.089 0-4.162-.147-6.211-.404v115.391h15.222l-.221-85.633c9.772-1.42 18.97-5.18 26.528-10.95 9.844-7.517 16.371-17.854 18.38-29.106 3.16-17.696-4.941-40.837-37.152-52.718z"/></g></g></g></svg>