<?xml version="1.0" encoding="iso-8859-1"?>
<!-- Generator: Adobe Illustrator 19.0.0, SVG Export Plug-In . SVG Version: 6.00 Build 0)  -->
<svg version="1.1" id="Capa_1" xmlns="http://www.w3.org/2000/svg" xmlns:xlink="http://www.w3.org/1999/xlink" x="0px" y="0px"
	 viewBox="0 0 468.388 468.388" style="enable-background:new 0 0 468.388 468.388;" xml:space="preserve">
<path style="fill:#E1E6E9;" d="M340.917,234.806l109.893-95.532c4.995-3.746,8.117-9.99,8.117-16.234
	c0-6.244-1.873-12.488-6.244-16.859l-16.234-15.61l-9.366,9.366l15.61,15.61c1.873,1.873,2.498,4.371,2.498,6.868
	s-1.249,4.995-3.746,6.868L320.312,236.055c-1.873,1.249-1.873,4.371-0.624,6.244l5.62,6.868l0,0l0.624,0.624
	c3.746,3.746,10.615,3.746,14.361,0C344.663,245.421,344.663,239.177,340.917,234.806z"/>
<ellipse style="fill:#27A2DB;" cx="430.913" cy="37.535" rx="37.465" ry="37.465"/>
<polygon style="fill:#FCD462;" points="377.132,24.387 84.917,322.221 146.107,383.411 444.566,91.821 "/>
<path style="fill:#64798A;" d="M96.78,445.85l29.346-64.937l-38.712-38.712l-64.937,29.346C31.844,427.743,0,455.216,0,455.216
	l13.112,13.112C13.112,468.328,40.585,436.484,96.78,445.85z"/>
<path style="fill:#F6C358;" d="M129.249,359.684L421.463,69.967l-22.478-22.478l-290.341,291.59l-24.976-24.976
	c-3.746-3.746-9.99-3.746-13.737,0l-0.624,0.624c-3.746,3.746-3.746,9.99,0,13.737l71.18,71.181c3.746,3.746,9.99,3.746,13.737,0
	l0.624-0.624c3.746-3.746,3.746-9.99,0-13.737L129.249,359.684z"/>
<rect x="-5.855" y="428.521" transform="matrix(-0.7071 0.7071 -0.7071 -0.7071 368.7691 710.5377)" style="fill:#EBF0F3;" width="86.165" height="6.244"/>
<ellipse style="fill:#E1E6E9;" cx="67.434" cy="400.894" rx="11.863" ry="11.863"/>
<path style="fill:#F6C358;" d="M440.819,94.318l-66.81-66.81c-4.995-4.995-4.995-13.112,0-18.107l1.249-1.249
	c4.995-4.995,13.112-4.995,18.107,0l66.81,66.81c4.995,4.995,4.995,13.112,0,18.107l-1.249,1.249
	C453.932,99.313,445.815,99.313,440.819,94.318z"/>
<g>
</g>
<g>
</g>
<g>
</g>
<g>
</g>
<g>
</g>
<g>
</g>
<g>
</g>
<g>
</g>
<g>
</g>
<g>
</g>
<g>
</g>
<g>
</g>
<g>
</g>
<g>
</g>
<g>
</g>
</svg>
