<svg clip-rule="evenodd" fill-rule="evenodd" height="512" stroke-linejoin="round" stroke-miterlimit="2" viewBox="0 0 356 356" width="512" xmlns="http://www.w3.org/2000/svg" xmlns:serif="http://www.serif.com/"><g id="Exp-8.-F2" serif:id="Exp 8. F2"><g><path d="m322.222 116.667c0-12.273-9.949-22.223-22.222-22.223-53.811 0-190.633 0-244.444 0-12.273 0-22.223 9.95-22.223 22.223v150c0 12.273 9.95 22.222 22.223 22.222h244.444c12.273 0 22.222-9.949 22.222-22.222 0-37.421 0-112.58 0-150z" fill="#176f93"/><path d="m232.936 92.381s-5.026-12.565-8.317-20.793c-2.531-6.328-8.66-10.477-15.475-10.477-14.869 0-47.864 0-62.733 0-6.815 0-12.943 4.149-15.474 10.477-3.292 8.228-8.317 20.793-8.317 20.793-1.139 2.847.248 6.083 3.094 7.222 2.847 1.138 6.083-.248 7.222-3.095 0 0 5.026-12.565 8.317-20.793.844-2.11 2.887-3.493 5.158-3.493h62.733c2.272 0 4.315 1.383 5.158 3.493 3.292 8.228 8.318 20.793 8.318 20.793 1.138 2.847 4.374 4.233 7.221 3.095 2.847-1.139 4.234-4.375 3.095-7.222z" fill="#176f93"/><path d="m322.222 116.667c0-12.273-9.949-22.223-22.222-22.223-53.811 0-190.633 0-244.444 0-12.273 0-22.223 9.95-22.223 22.223v38.525c0 10.048 6.743 18.846 16.445 21.458 32.097 8.641 101.739 27.391 122.223 32.906 3.784 1.019 7.77 1.019 11.554 0 20.483-5.515 90.126-24.265 122.222-32.906 9.703-2.612 16.445-11.41 16.445-21.458 0-11.312 0-26.279 0-38.525z" fill="#f8932b"/><path d="m211.111 200c0-6.137-4.974-11.111-11.111-11.111-12.331 0-32.114 0-44.445 0-6.136 0-11.111 4.974-11.111 11.111v11.111c0 6.137 4.975 11.111 11.111 11.111h44.445c6.137 0 11.111-4.974 11.111-11.111 0-3.575 0-7.536 0-11.111z" fill="#e8e5ee"/></g></g></svg>