<svg height="512" viewBox="0 0 58 58" width="512" xmlns="http://www.w3.org/2000/svg"><g id="Page-1" fill="none" fill-rule="evenodd"><g id="002---Desktop-Reading" fill-rule="nonzero"><path id="Shape" d="m58 40v-31c0-1.65685425-1.3431458-3-3-3h-52c-1.65685425 0-3 1.34314575-3 3v31z" fill="#35495e"/><path id="Rectangle-path" d="m4 10h50v30h-50z" fill="#67b9cc"/><path id="Shape" d="m54 21.94v18.06h-50v-4.69c7.61-5.88 27.12-18.4 50-13.37z" fill="#2fa8cc"/><path id="Shape" d="m0 40h58v5c0 1.6568542-1.3431458 3-3 3h-52c-1.65685425 0-3-1.3431458-3-3z" fill="#95a5a5"/><path id="Shape" d="m36.34 48c.6142866 1.7669123 1.77319 3.2934437 3.31 4.36.847667.5478659 1.3568072 1.4907181 1.35 2.5v1.14c-.0032948 1.1032019-.8967981 1.9967052-2 2h-20c-1.1032019-.0032948-1.9967052-.8967981-2-2v-1.14c-.0068072-1.0092819.502333-1.9521341 1.35-2.5 1.53681-1.0665563 2.6957134-2.5930877 3.31-4.36z" fill="#547580"/><path id="Shape" d="m31 45h-4c-.5522847 0-1-.4477153-1-1s.4477153-1 1-1h4c.5522847 0 1 .4477153 1 1s-.4477153 1-1 1z" fill="#7f8c8d"/><rect id="Rectangle-path" fill="#cb8252" height="31" rx="2" width="40" x="9" y="3.99"/><path id="Shape" d="m30 30.99v4h-2v-4c0-.5522847.4477153-1 1-1s1 .4477153 1 1z" fill="#a56a43"/><path id="Shape" d="m45 1v27c-.003059.5432691-.4369035.9859676-.98 1-5.0523258.2551595-10.0755416.9206854-15.02 1.99v-29c4.9341294-1.07048202 9.9474745-1.73602949 14.99-1.99.2669449-.00266958.5238754.10150756.7135801.28933407.1897048.1878265.2964332.4437077.2964199.71066593z" fill="#f5efca"/><path id="Shape" d="m29 1.99v29c-4.9444584-1.0693146-9.9676742-1.7348405-15.02-1.99-.5430965-.0140324-.976941-.4567309-.98-1v-27c-.0000133-.26695823.1067151-.52283943.2964199-.71066593.1897047-.18782651.4466352-.29200365.7135801-.28933407 5.0425255.25397051 10.0558706.91951798 14.99 1.99z" fill="#f9eab0"/><path id="Shape" d="m41 54.86v1.14c-.0032948 1.1032019-.8967981 1.9967052-2 2h-20c-1.1032019-.0032948-1.9967052-.8967981-2-2v-1.14c-.0031645-.2917901.040732-.5821823.13-.86h23.74c.089268.2778177.1331645.5682099.13.86z" fill="#95a5a5"/></g></g></svg>