<svg id="icons" enable-background="new 0 0 64 64" height="512" viewBox="0 0 64 64" width="512" xmlns="http://www.w3.org/2000/svg"><path d="m55 6c-.553 0-1 .447-1 1 0 1.654-1.346 3-3 3h-9c-4.963 0-9-4.037-9-9 0-.553-.447-1-1-1s-1 .447-1 1c0 4.963-4.037 9-9 9h-9c-1.654 0-3-1.346-3-3 0-.553-.447-1-1-1s-1 .447-1 1v32.999c0 12.129 9.866 21.997 21.994 22 .002 0 .004.001.006.001.552 0 1 .448 1 1 0 .553.447 1 1 1s1-.447 1-1c0-.552.449-1.001 1.001-1.001 12.131-.001 21.999-9.869 21.999-22v-32.999c0-.553-.447-1-1-1z" fill="#545c66"/><path d="m51 14h-9c-3.515 0-6.813-1.393-9.285-3.92-.377-.385-1.053-.385-1.43 0-2.472 2.527-5.77 3.92-9.285 3.92h-9c-.553 0-1 .447-1 1v24.999c0 9.911 8.053 17.978 17.958 18 .021.001.042.002.062.002h.001l3.979-.002c9.925 0 18-8.075 18-18v-24.999c0-.553-.447-1-1-1z" fill="#656d78"/><path d="m39.001 46.999h-14c-.553 0-1-.447-1-1s.447-1 1-1h14c.553 0 1 .447 1 1s-.447 1-1 1z" fill="#545c66"/><path d="m35 49.999h-5.998c-.553 0-1-.447-1-1s.447-1 1-1h5.998c.553 0 1 .447 1 1s-.447 1-1 1z" fill="#545c66"/><path d="m17.99 32.99c0 2.76 2.24 4.99 5 4.99h17c3.31 0 6-2.681 6-5.99v3c0 3.31-2.69 6-6 6h-17c-2.76 0-5-2.24-5-4.99z" fill="#ccd1d9"/><path d="m22.99 28h.06c.49-4.5 4.311-8 8.94-8 3.92 0 7.26 2.51 8.479 6.01 3.091.25 5.521 2.83 5.521 5.98 0 3.31-2.69 5.99-6 5.99h-17c-2.76 0-5-2.23-5-4.99 0-2.75 2.24-4.99 5-4.99z" fill="#e6e9ed"/></svg>