<svg id="Capa_1" enable-background="new 0 0 512 512" height="512" viewBox="0 0 512 512" width="512" xmlns="http://www.w3.org/2000/svg"><g><path d="m512 512h-512v-313.046l256-169.959 256 169.958z" fill="#388cb3"/><path d="m512 198.954-256-169.959v483.005h256z" fill="#265d77"/><path d="m416 414h-320v-414h235c46.869 0 85 38.131 85 85z" fill="#fff8d5"/><path d="m416 85c0-46.869-38.131-85-85-85h-75v414h160z" fill="#ffe3ba"/><g><path d="m512 512h-512v-302.963l256 169.958 256-169.958z" fill="#b7e4f8"/></g><path d="m512 209.037-256 169.958v133.005h256z" fill="#6fc8f1"/><path d="m512 512h-512v-43.046l231.11-153.434c15.12-10.039 34.659-10.038 49.779 0l231.111 153.434z" fill="#6fc8f1"/><path d="m512 468.954-231.11-153.435c-7.56-5.019-16.225-7.528-24.89-7.528v204.009h256z" fill="#4bbaed"/><path d="m416 90h-88v-90h3c46.869 0 85 38.131 85 85z" fill="#ffcd82"/></g></svg>