<?xml version="1.0" encoding="iso-8859-1"?>
<!-- Generator: Adobe Illustrator 19.0.0, SVG Export Plug-In . SVG Version: 6.00 Build 0)  -->
<svg version="1.1" id="Capa_1" xmlns="http://www.w3.org/2000/svg" xmlns:xlink="http://www.w3.org/1999/xlink" x="0px" y="0px"
	 viewBox="0 0 512 512" style="enable-background:new 0 0 512 512;" xml:space="preserve">
<g>
	<path style="fill:#E8EAE9;" d="M490.667,308.373H329.685c-11.776,0-21.333,9.547-21.333,21.333v160.96
		c0,11.787,9.557,21.333,21.333,21.333h160.981c11.776,0,21.333-9.547,21.333-21.333v-160.96
		C512,317.92,502.443,308.373,490.667,308.373"/>
	<path style="fill:#E8EAE9;" d="M182.304,308.373H21.333C9.547,308.373,0,317.92,0,329.707v160.96C0,502.453,9.547,512,21.333,512
		h160.971c11.776,0,21.333-9.547,21.333-21.333v-160.96C203.637,317.92,194.08,308.373,182.304,308.373"/>
</g>
<g>
	<rect x="384.32" y="308.373" style="fill:#ADB3BA;" width="51.637" height="56.523"/>
	<rect x="76" y="308.373" style="fill:#ADB3BA;" width="51.637" height="56.523"/>
</g>
<path style="fill:#8AD7F8;" d="M512,253.12c-15.637-17.835-38.56-28.939-64.139-28.939c-25.419,0-48.203,10.976-63.979,28.651
	c-15.637-17.664-38.56-28.651-63.989-28.651c-25.408,0-48.203,10.976-63.819,28.651c-15.776-17.664-38.571-28.651-63.979-28.651
	c-25.419,0-48.224,10.976-63.989,28.651c-15.776-17.664-38.56-28.651-63.979-28.651c-25.568,0-48.501,11.104-64.128,28.939
	C8.32,118.581,119.477,12.107,256.075,12.107C392.512,12.107,503.808,118.581,512,253.12"/>
<g>
	<path style="fill:#40596B;" d="M220.405,512c24.821,0,44.939-20.107,44.939-44.939V218.496c0-5.163-4.181-9.355-9.344-9.355
		c-5.152,0-9.355,4.192-9.355,9.355v248.565c0,14.475-11.744,26.251-26.24,26.251c-14.485,0-26.24-11.776-26.24-26.251v-6.955
		c0-5.163-4.192-9.333-9.355-9.333c-5.163,0-9.344,4.171-9.344,9.333v6.955C175.467,491.893,195.584,512,220.405,512"/>
	<path style="fill:#40596B;" d="M265.355,58.891V9.355C265.355,4.192,261.152,0,256,0c-5.163,0-9.344,4.192-9.344,9.355v49.547
		h18.699V58.891z"/>
</g>
<path style="fill:#55C0EB;" d="M256.043,12.107c-0.021,0-0.032,0-0.053,0c-68.16,0.043-123.637,106.336-127.872,240.704
	c15.776-17.664,38.56-28.608,63.968-28.608c25.429,0,48.213,10.955,63.979,28.629c15.648-17.664,38.432-28.629,63.84-28.629
	c25.408,0,48.331,10.933,63.968,28.608C379.712,118.443,324.149,12.107,256.043,12.107"/>
<g>
</g>
<g>
</g>
<g>
</g>
<g>
</g>
<g>
</g>
<g>
</g>
<g>
</g>
<g>
</g>
<g>
</g>
<g>
</g>
<g>
</g>
<g>
</g>
<g>
</g>
<g>
</g>
<g>
</g>
</svg>
