<svg id="Cloud_x5F_Wind" enable-background="new 0 0 512 512" height="512" viewBox="0 0 512 512" width="512" xmlns="http://www.w3.org/2000/svg"><g><g><path d="m334.251 167.367c-8.894-.274-17.5.831-25.601 3.109-5.86-44.44-43.89-78.74-89.93-78.74-50.1 0-90.72 40.62-90.72 90.72 0 .29 0 .58.01.86-35.75 2.34-64.01 32.08-64.01 68.42v1.026c0 34.669 28.105 62.774 62.774 62.774h226.453c34.669 0 62.774-28.105 62.774-62.774v-.027c-.001-45.753-36.019-83.959-81.75-85.368z" fill="#99d1ff"/><path d="m331.678 167.639c-8.117-.044-15.978 1.058-23.412 3.149-5.86-44.44-43.89-78.74-89.93-78.74-33.801 0-63.284 18.492-78.892 45.908 13.22-7.526 28.513-11.828 44.811-11.828 46.04 0 84.07 34.3 89.93 78.74 7.434-2.091 15.295-3.193 23.412-3.149 46.602.255 83.938 38.832 83.938 85.435 0 8.483-1.692 16.569-4.742 23.951 22.785-9.415 38.823-31.846 38.823-58.031 0-46.603-37.336-85.18-83.938-85.435z" fill="#88bee2"/></g><g><g><path d="m313.201 339.31c9.072 0 18.132 1.846 26.719 5.534 10.804 4.639 19.155 13.209 23.514 24.129s4.205 22.884-.435 33.689c-3.062 7.13-8.717 12.641-15.923 15.517-7.207 2.876-15.103 2.774-22.231-.287-9.932-4.265-14.543-15.816-10.278-25.748 2.969-6.914 11.01-10.122 17.921-7.154 1.754.753 2.565 2.786 1.812 4.54s-2.786 2.565-4.539 1.812c-1.653-.71-3.483-.733-5.152-.067-1.67.667-2.98 1.944-3.69 3.596-2.761 6.43.224 13.908 6.654 16.669 5.434 2.333 11.45 2.411 16.942.219s9.801-6.391 12.134-11.825c3.911-9.108 4.041-19.193.366-28.399-3.675-9.205-10.714-16.429-19.822-20.34-14.931-6.411-31.465-6.626-46.557-.601-15.092 6.024-26.934 17.565-33.347 32.496-.753 1.754-2.786 2.565-4.539 1.812-1.754-.753-2.565-2.786-1.812-4.539 7.141-16.628 20.329-29.48 37.135-36.189 8.126-3.244 16.632-4.864 25.128-4.864z" fill="#58a2cc"/></g><g><path d="m388.07 221.064c6.675 0 13.301 2.857 17.884 8.386 12.231 14.754 10.178 36.709-4.576 48.94-10.912 9.047-24.695 13.307-38.807 11.982-14.113-1.319-26.868-8.056-35.914-18.968-1.218-1.469-1.014-3.649.455-4.866 1.468-1.219 3.648-1.015 4.866.455 7.868 9.491 18.961 15.35 31.236 16.498 12.273 1.145 24.261-2.553 33.752-10.421 11.82-9.799 13.464-27.387 3.666-39.207-5.734-6.916-16.025-7.878-22.941-2.145-3.822 3.169-4.354 8.856-1.185 12.679 1.549 1.87 4.332 2.13 6.203.579 1.47-1.217 3.648-1.015 4.866.455 1.218 1.469 1.014 3.648-.455 4.866-4.804 3.984-11.953 3.314-15.936-1.49-5.601-6.757-4.661-16.81 2.095-22.412 4.323-3.583 9.572-5.33 14.791-5.331z" fill="#58a2cc"/></g><g><path d="m286.028 308.88c5.156 0 10.379.264 15.667.793l.068.008c13.271 1.592 25.281 6.232 36.897 10.719 6.663 2.574 13.552 5.235 20.61 7.293 26.661 8.146 55.638 5.67 83.842-7.151 1.737-.79 3.787-.022 4.577 1.716s.021 3.787-1.716 4.577c-29.76 13.527-60.426 16.114-88.68 7.481-7.298-2.128-14.326-4.843-21.123-7.469-11.724-4.529-22.799-8.807-35.196-10.3-24.394-2.431-47.333 1.032-68.186 10.299-1.745.774-3.787-.011-4.562-1.755-.776-1.744.01-3.787 1.755-4.562 17.435-7.748 36.231-11.649 56.047-11.649z" fill="#58a2cc"/></g><g><path d="m281.496 281.503c4.749 0 9.56.265 14.431.796l.074.009c12.239 1.602 23.284 6.254 33.966 10.753 6.101 2.57 12.409 5.227 18.862 7.279 24.323 8.103 50.765 5.634 76.509-7.126 1.711-.846 3.784-.148 4.632 1.562s.148 3.784-1.562 4.631c-27.415 13.588-55.672 16.183-81.719 7.505-6.707-2.133-13.163-4.852-19.406-7.482-10.719-4.515-20.845-8.78-32.143-10.264-22.264-2.422-43.21 1.028-62.25 10.255-1.717.832-3.784.115-4.617-1.603-.833-1.717-.115-3.785 1.603-4.617 16.059-7.781 33.369-11.698 51.62-11.698z" fill="#58a2cc"/></g></g></g></svg>