<svg height="512" viewBox="0 0 58 58" width="512" xmlns="http://www.w3.org/2000/svg"><g id="Page-1" fill="none" fill-rule="evenodd"><g id="002---Pen-and-Paper" fill-rule="nonzero"><path id="Shape" d="m44 2c-.0032948-1.10320187-.8967981-1.9967052-2-2h-27.172c-.5303896.00011327-1.0390145.21090125-1.414.586l-12.828 12.828c-.37509875.3749855-.58588673.8836104-.586 1.414v41.172c.0032948 1.1032019.89679813 1.9967052 2 2h40c1.1045695 0 2-.8954305 2-2z" fill="#f9eab0"/><g fill="#cbb292"><path id="Shape" d="m37 21h-31c-.55228475 0-1-.4477153-1-1s.44771525-1 1-1h31c.5522847 0 1 .4477153 1 1s-.4477153 1-1 1z"/><path id="Shape" d="m29.77 26h-23.77c-.55228475 0-1-.4477153-1-1s.44771525-1 1-1h23.77c.5522847 0 1 .4477153 1 1s-.4477153 1-1 1z"/><path id="Shape" d="m22.53 31h-16.53c-.55228475 0-1-.4477153-1-1s.44771525-1 1-1h16.53c.5522847 0 1 .4477153 1 1s-.4477153 1-1 1z"/><path id="Shape" d="m13.52 40h-7.52c-.55228475 0-1-.4477153-1-1s.44771525-1 1-1h7.52c.5522847 0 1 .4477153 1 1s-.4477153 1-1 1z"/><path id="Shape" d="m10.11 45h-4.11c-.55228475 0-1-.4477153-1-1s.44771525-1 1-1h4.11c.5522847 0 1 .4477153 1 1s-.4477153 1-1 1z"/><path id="Shape" d="m15.84 50h-9.84c-.55228475 0-1-.4477153-1-1s.44771525-1 1-1h9.84c.5522847 0 1 .4477153 1 1s-.4477153 1-1 1z"/></g><path id="Shape" d="m39 54h-5c-.5522847 0-1-.4477153-1-1s.4477153-1 1-1h4v-4c0-.5522847.4477153-1 1-1s1 .4477153 1 1v5c0 .5522847-.4477153 1-1 1z" fill="#fff"/><path id="Shape" d="m39 6h-8c-.5522847 0-1-.44771525-1-1s.4477153-1 1-1h8c.5522847 0 1 .44771525 1 1s-.4477153 1-1 1z" fill="#cbb292"/><path id="Shape" d="m39 10h-5c-.5522847 0-1-.44771525-1-1s.4477153-1 1-1h5c.5522847 0 1 .44771525 1 1s-.4477153 1-1 1z" fill="#cbb292"/><path id="Shape" d="m14 .18v10.82c0 1.6568542-1.3431458 3-3 3h-10.82c.10025599-.2196188.23912533-.4194552.41-.59l12.82-12.82c.1705448-.17087467.3703812-.30974401.59-.41z" fill="#f3d55b"/><path id="Shape" d="m57.47 22.581-2.28-3.29c-.9425488-1.3599811-2.8082671-1.7000161-4.17-.76l-5.76 3.98-4.11 2.84-19.59 13.549c-.0533684.0314446-.1007631.0720687-.14.12l5.67 8.19c.0565081-.0239693.1101719-.0541552.16-.09l19.59-13.54 4.11-2.84 5.76-3.99c1.3593568-.9424971 1.6993349-2.8074562.76-4.169z" fill="#bdc3c7"/><path id="Shape" d="m56.71 26.751-5.76 3.99-5.69-8.23 5.76-3.98c1.3617329-.9400161 3.2274512-.5999811 4.17.76l2.28 3.29c.9400161 1.3617329.5999811 3.2274512-.76 4.17z" fill="#ff5364"/><path id="Rectangle-path" d="m43.552 23.044h4.996v10.005h-4.996z" fill="#bdc3c7" transform="matrix(.823 -.568 .568 .823 -7.779 31.151)"/><path id="Shape" d="m46.84 33.581c-20.832 14.4-19.649 13.6-19.75 13.63l-5.67-8.19c.081-.1-1.193.8 19.73-13.67z" fill="#3b97d3"/><path id="Shape" d="m27.09 47.211c-.1.061.169-.022-6.24 1.54l-3.06-4.44c3.71-5.443 3.516-5.176 3.63-5.29z" fill="#fdd7ad"/><path id="Shape" d="m20.85 48.751-4.76 1.149c-.4033646.098565-.825673-.0623965-1.0611027-.4044358-.2354297-.3420394-.2349908-.7939827.0011027-1.1355642l2.76-4.05z" fill="#464f5d"/></g></g></svg>