<svg height="512" viewBox="0 0 48 48" width="512" xmlns="http://www.w3.org/2000/svg"><g id="Line"><path d="m38.87 29.42a8 8 0 0 0 -13.61-7 9 9 0 0 0 -17.26 3.58 2.81 2.81 0 0 0 0 .29 8.14 8.14 0 0 0 -6 7.81 9.16 9.16 0 0 0 9.26 8.9h28.74a6 6 0 0 0 6-6 7.29 7.29 0 0 0 -7.13-7.58z" fill="#bee1f4"/><path d="m27.33 19h15a3.64 3.64 0 0 0 3.67-3.62 4.3 4.3 0 0 0 -3.68-4.38 4.37 4.37 0 0 0 -.15-1.52 4.67 4.67 0 0 0 -7.37-2.48 5.19 5.19 0 0 0 -9.65 2.46 4.68 4.68 0 0 0 -3.15 4.41 5.28 5.28 0 0 0 5.33 5.13z" fill="#7dbdc3"/></g></svg>