<?xml version="1.0" encoding="iso-8859-1"?>
<!-- Generator: Adobe Illustrator 19.0.0, SVG Export Plug-In . SVG Version: 6.00 Build 0)  -->
<svg xmlns="http://www.w3.org/2000/svg" xmlns:xlink="http://www.w3.org/1999/xlink" version="1.1" id="Layer_1" x="0px" y="0px" viewBox="0 0 512 512" style="enable-background:new 0 0 512 512;" xml:space="preserve">
<path style="fill:#76CC5B;" d="M122.824,6.101c-7.972,34.718,2.825,72.597,31.406,97.829c28.581,25.233,67.505,31.25,100.967,19.036  c7.972-34.718-2.825-72.597-31.406-97.829C195.21-0.097,156.286-6.113,122.824,6.101z"/>
<path style="opacity:0.2;enable-background:new    ;" d="M166.122,80.144c-22.92-20.235-34.391-48.602-33.929-76.95  c-3.161,0.815-6.289,1.782-9.369,2.907c-7.972,34.718,2.825,72.597,31.406,97.829c28.581,25.233,67.505,31.25,100.967,19.036  c1.579-6.876,2.41-13.878,2.524-20.879C226.549,110.12,192.073,103.053,166.122,80.144z"/>
<path style="fill:#599944;" d="M255.194,131.885c-2.098,0-4.204-0.736-5.9-2.232l-75.219-66.407  c-3.693-3.261-4.044-8.897-0.784-12.59c3.26-3.692,8.897-4.042,12.59-0.784l75.219,66.407c3.693,3.261,4.044,8.897,0.784,12.59  C260.122,130.866,257.663,131.885,255.194,131.885z"/>
<path style="fill:#B5763B;" d="M258.036,228.066c-9.469,0.875-17.954-5.938-19.074-15.431c-0.174-1.474-4.13-36.562,6.953-79.673  c14.857-57.794,49.733-102.78,100.854-130.093c8.571-4.579,19.225-1.342,23.801,7.225c4.578,8.568,1.343,19.224-7.224,23.8  c-42.445,22.676-70.391,58.563-83.061,106.665c-9.736,36.961-6.419,67.686-6.384,67.992c1.091,9.636-5.82,18.357-15.454,19.471  C258.309,228.038,258.172,228.052,258.036,228.066z"/>
<path style="fill:#FF704D;" d="M284.445,177.693c-18.227,7.541-38.66,7.541-56.887,0C103.393,126.324,18.626,202.273,18.626,320.22  c0,114.894,107.066,220.972,206.841,184.457c19.715-7.215,41.353-7.215,61.067,0c99.775,36.516,206.841-69.563,206.841-184.457  C493.375,202.273,408.608,126.324,284.445,177.693z"/>
<g style="opacity:0.2;">
	<path d="M78.091,320.22c0-80.969,39.951-142.143,105.168-155.925C83.67,145.818,18.626,216.904,18.626,320.22   c0,110.438,98.923,212.706,195.207,188.044C140.168,490.061,78.091,407.703,78.091,320.22z"/>
</g>
<g>
</g>
<g>
</g>
<g>
</g>
<g>
</g>
<g>
</g>
<g>
</g>
<g>
</g>
<g>
</g>
<g>
</g>
<g>
</g>
<g>
</g>
<g>
</g>
<g>
</g>
<g>
</g>
<g>
</g>
</svg>
