<?xml version="1.0" encoding="iso-8859-1"?>
<!-- Generator: Adobe Illustrator 19.0.0, SVG Export Plug-In . SVG Version: 6.00 Build 0)  -->
<svg version="1.1" id="Capa_1" xmlns="http://www.w3.org/2000/svg" xmlns:xlink="http://www.w3.org/1999/xlink" x="0px" y="0px"
	 viewBox="0 0 468.293 468.293" style="enable-background:new 0 0 468.293 468.293;" xml:space="preserve">
<path style="fill:#1A76A1;" d="M18.243,355.408V127.943c0-6.897,5.591-12.488,12.488-12.488h406.831
	c6.897,0,12.488,5.591,12.488,12.488v227.465H18.243z"/>
<path style="fill:#E0E5E8;" d="M18.243,355.408v51.563c0,6.897,5.591,12.488,12.488,12.488h406.831
	c6.897,0,12.488-5.591,12.488-12.488v-51.563H18.243z"/>
<rect x="36.34" y="133.551" style="fill:#4EBD9E;" width="395.614" height="203.764"/>
<circle style="fill:#3B566A;" cx="234.146" cy="387.434" r="21.111"/>
<path style="fill:#29A1DA;" d="M371.435,55.342c0,30.565-55.342,145.816-55.342,145.816S260.751,85.907,260.751,55.342
	S285.528,0,316.093,0S371.435,24.778,371.435,55.342z"/>
<circle style="fill:#EBEFF2;" cx="316.066" cy="56.357" r="36.19"/>
<path style="fill:#E0E5E8;" d="M316.094,214.537H216.82c-3.331,0-6.032,2.701-6.032,6.032v38.26h-107.9
	c-3.331,0-6.032,2.701-6.032,6.032v50.317c0,3.331,2.701,6.032,6.032,6.032c3.331,0,6.032-2.701,6.032-6.032v-44.286h107.9
	c3.331,0,6.032-2.701,6.032-6.032V226.6h93.242c3.331,0,6.032-2.701,6.032-6.032C322.125,217.238,319.425,214.537,316.094,214.537z"
	/>
<rect x="143.391" y="419.465" style="fill:#D4D5DB;" width="181.51" height="30.452"/>
<path style="fill:#647989;" d="M130.843,449.907H337.45c5.077,0,9.193,4.116,9.193,9.193v0c0,5.077-4.116,9.193-9.193,9.193H130.843
	c-5.077,0-9.193-4.116-9.193-9.193v0C121.65,454.023,125.766,449.907,130.843,449.907z"/>
<g>
</g>
<g>
</g>
<g>
</g>
<g>
</g>
<g>
</g>
<g>
</g>
<g>
</g>
<g>
</g>
<g>
</g>
<g>
</g>
<g>
</g>
<g>
</g>
<g>
</g>
<g>
</g>
<g>
</g>
</svg>
