<?xml version="1.0" encoding="iso-8859-1"?>
<!-- Generator: Adobe Illustrator 19.0.0, SVG Export Plug-In . SVG Version: 6.00 Build 0)  -->
<svg version="1.1" id="Capa_1" xmlns="http://www.w3.org/2000/svg" xmlns:xlink="http://www.w3.org/1999/xlink" x="0px" y="0px"
	 viewBox="0 0 512 512" style="enable-background:new 0 0 512 512;" xml:space="preserve">
<path style="fill:#8BC540;" d="M376.263,121.632c0-0.432,0.064-0.864,0.064-1.312C376.327,53.872,322.455,0,256.007,0
	s-120.32,53.872-120.32,120.32c0,0.448,0.064,0.864,0.064,1.312C75.159,130.128,28.999,183.6,32.423,247.296
	C35.831,310.8,91.095,362.048,154.679,360.96c10.816-0.192,21.28-1.808,31.216-4.672c45.552-13.152,94.688-13.152,140.224,0
	c9.936,2.864,20.4,4.496,31.216,4.672c63.584,1.088,118.832-50.16,122.24-113.664C483.015,183.6,436.855,130.128,376.263,121.632z"
	/>
<path style="fill:#997960;" d="M315.095,272.592c-5.12-5.12-13.424-5.12-18.544,0l-18.992,18.992l-6.576-91.104
	c-0.56-7.856-7.104-13.936-14.992-13.936s-14.416,6.08-14.992,13.936l-4.688,64.944l-41.728-41.728c-5.12-5.12-13.424-5.12-18.544,0
	c-5.12,5.12-5.12,13.424,0,18.544l57.76,57.76l-12.608,174.624C219.767,494.816,235.767,512,256.007,512s36.24-17.184,34.784-37.376
	l-10.72-148.448l35.04-35.04C320.215,286.016,320.215,277.712,315.095,272.592z"/>
<g>
	<circle style="fill:#7FB241;" cx="106.583" cy="208.96" r="22.4"/>
	<circle style="fill:#7FB241;" cx="207.351" cy="92.192" r="22.4"/>
	<circle style="fill:#7FB241;" cx="329.879" cy="132.928" r="22.4"/>
	<circle style="fill:#7FB241;" cx="352.327" cy="256" r="22.4"/>
</g>
<g>
</g>
<g>
</g>
<g>
</g>
<g>
</g>
<g>
</g>
<g>
</g>
<g>
</g>
<g>
</g>
<g>
</g>
<g>
</g>
<g>
</g>
<g>
</g>
<g>
</g>
<g>
</g>
<g>
</g>
</svg>
