<svg id="Capa_1" enable-background="new 0 0 512 512" height="512" viewBox="0 0 512 512" width="512" xmlns="http://www.w3.org/2000/svg"><g><path d="m126.408 92.583 29.975 406.877c.521 7.067 6.406 12.535 13.492 12.535h172.245c7.086 0 12.971-5.468 13.492-12.535l29.975-406.877c.578-7.842-5.629-14.523-13.492-14.523h-232.195c-7.863.001-14.07 6.681-13.492 14.523z" fill="#c8effe"/><path d="m385.592 92.582-29.984 406.881c-.516 7.068-6.397 12.536-13.486 12.536h-20.884c7.088 0 12.97-5.469 13.486-12.536l29.984-406.881c.578-7.842-5.634-14.517-13.496-14.517h20.884c7.863 0 14.074 6.676 13.496 14.517z" fill="#99e6fc"/><path d="m290.841 151.782 12.653-108.738c.528-4.453 3.163-8.381 7.082-10.56l56.902-31.64c3.93-2.185 8.851.071 9.759 4.475l3.437 16.657c.607 2.941-.83 5.925-3.508 7.284l-42.994 21.83c-1.778.903-2.981 2.64-3.202 4.622l-10.668 96.07z" fill="#f3f0f3"/><path d="m377.162 29.261-42.995 21.833c-1.775.898-2.972 2.641-3.199 4.622l-10.442 93.935h-14.59l12.536-101.88c.217-1.981 1.424-3.725 3.199-4.622l57.141-30.191 1.857 9.018c.61 2.941-.824 5.923-3.507 7.285z" fill="#e2dee2"/><path d="m166.928 156.413 24.173 314.966c.251 3.271 2.978 5.797 6.259 5.797h117.277c3.28 0 6.008-2.526 6.259-5.797l24.173-314.966c.28-3.645-2.603-6.757-6.259-6.757h-165.623c-3.656-.001-6.538 3.111-6.259 6.757z" fill="#62dbfb"/><path d="m345.063 156.41-24.165 314.968c-.258 3.271-2.982 5.799-6.263 5.799h-19.573c3.281 0 6.005-2.528 6.253-5.799l24.175-314.968c.279-3.642-2.6-6.758-6.263-6.758h19.584c3.652 0 6.541 3.116 6.252 6.758z" fill="#01d0fb"/><g><path d="m309.244 293.102-36.926 36.926c-3.181 3.181-8.338 3.181-11.519 0l-36.926-36.926c-3.181-3.181-3.181-8.338 0-11.519l36.926-36.926c3.181-3.181 8.338-3.181 11.519 0l36.926 36.926c3.181 3.181 3.181 8.338 0 11.519z" fill="#f3f0f3"/><path d="m309.24 293.101-36.92 36.929c-3.187 3.178-8.336 3.178-11.523 0l-4.27-4.279 32.642-32.65c3.178-3.178 3.178-8.336 0-11.514l-32.642-32.65 4.27-4.279c3.187-3.178 8.336-3.178 11.523 0l36.92 36.929c3.187 3.178 3.187 8.336 0 11.514z" fill="#e2dee2"/><path d="m297.48 407.218-36.926 36.926c-3.181 3.181-8.338 3.181-11.519 0l-36.926-36.926c-3.181-3.181-3.181-8.338 0-11.519l36.926-36.926c3.181-3.181 8.338-3.181 11.519 0l36.926 36.927c3.18 3.18 3.18 8.337 0 11.518z" fill="#f3f0f3"/><path d="m297.476 407.217-36.92 36.929c-3.187 3.178-8.336 3.178-11.523 0l-4.27-4.279 32.641-32.65c3.178-3.178 3.178-8.336 0-11.514l-32.641-32.65 4.27-4.279c3.187-3.178 8.336-3.178 11.523 0l36.92 36.929c3.187 3.178 3.187 8.336 0 11.514z" fill="#e2dee2"/><path d="m297.48 231.13-36.926 36.926c-3.181 3.181-8.338 3.181-11.519 0l-36.926-36.926c-3.181-3.181-3.181-8.338 0-11.519l36.926-36.926c3.181-3.181 8.338-3.181 11.519 0l36.926 36.926c3.181 3.182 3.181 8.339 0 11.519z" fill="#f3f0f3"/><path d="m297.484 231.13-36.929 36.929c-3.178 3.178-8.336 3.178-11.514 0l-4.279-4.279 32.642-32.65c3.187-3.178 3.187-8.336 0-11.514l-32.642-32.65 4.279-4.279c3.178-3.178 8.336-3.178 11.514 0l36.929 36.929c3.178 3.178 3.178 8.336 0 11.514z" fill="#e2dee2"/></g></g></svg>