<svg id="Capa_1" enable-background="new 0 0 497 497" height="512" viewBox="0 0 497 497" width="512" xmlns="http://www.w3.org/2000/svg"><g><path d="m381.323 488.771-4.577-19.807 60.129-5.464 60.125 5.464-4.576 19.807c-.857 3.708-4.159 6.335-7.965 6.335h-95.17c-3.807 0-7.11-2.626-7.966-6.335z" fill="#d8ecfe"/><path d="m497 468.96-4.58 19.81c-.85 3.71-4.16 6.34-7.96 6.34h-25c3.8 0 7.11-2.63 7.96-6.34l4.58-19.81 12.5-5.46z" fill="#b3dafe"/><path d="m497 226.54-62.833 7.5-57.417-7.5 6.04-26.14 54.083-6.9 54.087 6.9z" fill="#ffd15b"/><path d="m497 226.54-12.5 3.46-12.5-3.46-6.04-26.14 14.04-4.9 10.96 4.9z" fill="#ffc344"/><path d="m137.076 439.895c3.768 7.699 5.713 16.01 5.713 24.411v14.141c0 9.2-8.352 16.659-18.656 16.659h-105.477c-10.304 0-18.656-7.458-18.656-16.659v-14.141c0-8.402 1.945-16.713 5.713-24.411 3.858-7.881 5.181-16.566 3.823-25.081l-7.89-49.466c-1.096-6.876-1.646-13.813-1.646-20.758v-55.245l71.394-6.845 71.395 6.845v55.245c0 6.945-.55 13.881-1.647 20.757l-7.89 49.466c-1.357 8.516-.033 17.201 3.824 25.082z" fill="#d8ecfe"/><path d="m133.25 414.81c-1.36 8.52-.03 17.2 3.83 25.09 3.76 7.69 5.71 16 5.71 24.41v14.14c0 9.2-8.35 16.66-18.66 16.66h-25c10.31 0 18.66-7.46 18.66-16.66v-14.14c0-8.41-1.95-16.72-5.71-24.41-3.86-7.89-5.18-16.57-3.83-25.09l7.89-49.46c1.1-6.88 1.65-13.81 1.65-20.76v-55.24l12.5-6.85 12.5 6.85v55.24c0 6.95-.55 13.88-1.65 20.76z" fill="#b3dafe"/><path d="m142.788 188.404-71.228 11.994-71.559-11.994c0-14.272 3.613-28.302 10.49-40.731l15.332-27.712c10.956-19.802 16.714-42.156 16.714-64.896v-27.028l29.023-6.537 28.692 6.537v27.028c0 22.739 5.757 45.093 16.714 64.896l15.332 27.712c6.877 12.429 10.49 26.459 10.49 40.731z" fill="#d8ecfe"/><path d="m142.79 188.4-12.5 5.1-12.5-5.1c0-14.27-3.62-28.3-10.49-40.73l-15.33-27.71c-10.96-19.8-16.72-42.15-16.72-64.89v-27.03l12.583-6.54 12.417 6.54v27.03c0 22.74 5.76 45.09 16.72 64.89l15.33 27.71c6.87 12.43 10.49 26.46 10.49 40.73z" fill="#b3dafe"/><path d="m376.75 226.54h120.25v242.42h-120.25z" fill="#ffd15b"/><path d="m472 226.54h25v242.42h-25z" fill="#ffc344"/><path d="m382.786 200.398v-19.624c0-3.6 2.918-6.518 6.518-6.518h95.137c3.6 0 6.518 2.918 6.518 6.518v19.624z" fill="#d8ecfe"/><path d="m490.96 180.78v19.62h-25v-19.62c0-3.6-2.92-6.52-6.52-6.52h25c3.6 0 6.52 2.92 6.52 6.52z" fill="#b3dafe"/><path d="m.001 188.402h142.787v100.937h-142.787z" fill="#a4ccff"/><path d="m117.79 188.4h25v100.94h-25z" fill="#8bb3ea"/><path d="m102.695 28.036h-62.601c-2.613 0-4.731-2.118-4.731-4.731v-10.548c0-5.999 4.863-10.863 10.863-10.863h50.339c5.999 0 10.863 4.863 10.863 10.863v10.548c-.001 2.613-2.119 4.731-4.733 4.731z" fill="#557983"/><path d="m107.43 12.76v10.548c0 2.613-2.118 4.731-4.731 4.731h-22.032c1.127-1.091 1.763-2.593 1.763-4.162v-11.117c0-6-4.87-10.87-10.87-10.87h25c6.003 0 10.87 4.867 10.87 10.87z" fill="#3e5959"/><path d="m296.148 137.233-39.656 9.767-39.656-9.767c7.103-15.445 10.803-32.521 10.803-49.848v-35.292l28.853-6.093 28.853 6.093v35.292c0 17.327 3.7 34.403 10.803 49.848z" fill="#b3e59f"/><path d="m296.15 137.23-11.65 6.77-12.35-6.77c-7.11-15.44-10.81-32.52-10.81-49.85v-35.29l10.71-2.805 13.29 2.805v35.29c0 17.33 3.7 34.41 10.81 49.85z" fill="#95d6a4"/><path d="m292.524 52.091h-72.064v-15.279c0-5.999 4.863-10.863 10.863-10.863h50.339c5.999 0 10.863 4.863 10.863 10.863v15.279z" fill="#ffd15b"/><path d="m292.52 36.81v15.28h-24v-15.28c0-6-4.86-10.86-10.86-10.86h24c6 0 10.86 4.86 10.86 10.86z" fill="#ffc344"/><path d="m337.464 454.303v20.987c0 10.948-8.036 19.816-17.937 19.816h-126.07c-9.901 0-17.937-8.868-17.937-19.816v-20.987c0-15.204 5.484-29.091 8.917-43.574 4.93-12.308 5.432-25.63 5.432-39.098v-93.848l66.623-9.617 66.623 9.617v93.848c0 13.468.502 26.79 5.432 39.098 3.434 14.483 8.917 28.37 8.917 43.574z" fill="#b3e59f"/><path d="m337.46 454.3v20.99c0 10.95-8.03 19.82-17.93 19.82h-24c9.9 0 17.93-8.87 17.93-19.82v-20.99c0-15.2-5.48-29.09-8.91-43.57-4.93-12.31-5.44-25.63-5.44-39.1v-93.85l11.89-3.92 12.11 3.92v93.85c0 13.47.51 26.79 5.44 39.1 3.43 14.48 8.91 28.37 8.91 43.57z" fill="#95d6a4"/><path d="m323.115 217.426v60.357h-133.245v-60.357c0-14.159 3.024-28.119 8.825-40.74l18.142-39.454h79.312l18.142 39.454c5.8 12.622 8.824 26.582 8.824 40.74z" fill="#d8ecfe"/><path d="m323.11 217.43v60.35h-24.09v-60.35c0-14.16-3.02-28.12-8.83-40.74l-18.14-39.46h24.1l18.14 39.46c5.8 12.62 8.82 26.58 8.82 40.74z" fill="#b3dafe"/><path d="m86.463 220.5h-30.138c-10.145 0-18.37 8.225-18.37 18.37 0 10.145 8.225 18.37 18.37 18.37h30.138c10.145 0 18.37-8.225 18.37-18.37 0-10.146-8.224-18.37-18.37-18.37z" fill="#d8ecfe"/><path d="m436.875 395.5c-16.063 0-29.085-13.022-29.085-29.085v-63.47c0-16.063 13.022-29.085 29.085-29.085 16.063 0 29.085 13.022 29.085 29.085v63.47c0 16.063-13.022 29.085-29.085 29.085z" fill="#ffd15b"/><path d="m465.96 302.94v63.48c0 16.06-13.02 29.08-29.08 29.08h-.01c-4.28 0-8.34-.92-11.99-2.59 10.07-4.56 17.08-14.71 17.08-26.49v-63.48c0-11.78-7.01-21.93-17.08-26.49 3.65-1.67 7.71-2.59 11.99-2.59h.01c16.06 0 29.08 13.02 29.08 29.08z" fill="#ffc344"/><g><path d="m274.269 203.254h-35.553c-4.142 0-7.5-3.358-7.5-7.5s3.358-7.5 7.5-7.5h35.553c4.142 0 7.5 3.358 7.5 7.5s-3.358 7.5-7.5 7.5z" fill="#ffd15b"/></g><g><path d="m274.269 234.04h-35.553c-4.142 0-7.5-3.358-7.5-7.5s3.358-7.5 7.5-7.5h35.553c4.142 0 7.5 3.358 7.5 7.5s-3.358 7.5-7.5 7.5z" fill="#ffd15b"/></g><g><path d="m451.125 429h-28.5c-4.142 0-7.5-3.358-7.5-7.5s3.358-7.5 7.5-7.5h28.5c4.142 0 7.5 3.358 7.5 7.5s-3.358 7.5-7.5 7.5z" fill="#ffd15b"/></g></g></svg>