<svg id="Capa_1" enable-background="new 0 0 512 512" height="512" viewBox="0 0 512 512" width="512" xmlns="http://www.w3.org/2000/svg"><g><path d="m375.694 136.177c-27.683 37.957-80.138 50.026-108.122 53.82-5.466.746-10.736-.757-14.86-3.825-4.019-2.991-6.943-7.462-7.885-12.761-4.927-27.808-9.464-81.443 18.227-119.395 27.689-37.965 80.144-50.034 108.128-53.828 5.466-.746 10.73.765 14.854 3.833 4.019 2.991 6.949 7.453 7.891 12.753 4.927 27.809 9.465 81.443-18.233 119.403z" fill="#009859"/><path d="m375.694 136.177c-27.683 37.957-80.138 50.026-108.122 53.82-5.466.746-10.736-.757-14.86-3.825l133.324-182.151c4.019 2.991 6.949 7.453 7.891 12.753 4.927 27.809 9.465 81.443-18.233 119.403z" fill="#007554"/><g><path d="m246.202 182.133c-7.645-30.546-35.559-113.844-72.457-132.306-7.408-3.706-10.409-12.716-6.702-20.124 3.707-7.407 12.716-10.409 20.124-6.702 24.535 12.276 46.898 41.96 66.468 88.229 13.964 33.015 21.363 62.406 21.671 63.641 2.005 8.037-2.884 16.178-10.921 18.183-8.033 2.005-16.177-2.881-18.183-10.921z" fill="#9d7552"/></g><g><g><path d="m459.589 310.712c-10.259 93.83-55.534 141.625-98.48 176.012-49.781 39.875-75.376 20.298-105.199 20.298-30.243.04-52.493 19.771-105.059-19.608-40.956-30.677-89.181-78.502-98.68-176.892-5.719-59.274 7.879-102.779 40.436-129.286 54.394-44.306 142.625-23.938 163.393-18.308.05.01.09.03.14.04 20.858-4.989 111.688-23.228 165.743 22.838 31.176 26.577 43.865 68.592 37.706 124.906z" fill="#afea93"/></g></g><path d="m459.589 310.712c-10.259 93.83-55.534 141.625-98.48 176.012-49.955 40.014-75.792 20.181-105.109 20.298v-344.094c.05.01.09.03.14.04 20.858-4.989 111.688-23.228 165.743 22.838 31.176 26.577 43.865 68.592 37.706 124.906z" fill="#00da80"/><path d="m382.622 283.288c-6.91 0-13.126-4.804-14.645-11.832-2.132-9.859-6.781-16.225-14.215-19.463-5.317-2.316-10.195-2.229-10.235-2.228-8.268.501-15.379-5.792-15.882-14.06s5.791-15.379 14.06-15.882c15.63-.954 47.374 7.29 55.591 45.294 1.751 8.096-3.394 16.079-11.49 17.829-1.068.231-2.134.342-3.184.342z" fill="#eef4ff"/></g></svg>