<svg id="Capa_1" enable-background="new 0 0 512 512" height="512" viewBox="0 0 512 512" width="512" xmlns="http://www.w3.org/2000/svg"><g><path d="m165.667 73-42.333 24.667-42.334-24.667v-68c0-2.761 2.239-5 5-5h74.667c2.761 0 5 2.239 5 5z" fill="#8dc5e8"/><path d="m431 73-43.25 24.667-41.417-24.667v-68c0-2.761 2.239-5 5-5h74.667c2.761 0 5 2.239 5 5z" fill="#5e9ff6"/><path d="m0 183.08v318.92c0 5.52 4.48 10 10 10h281.5l-35.5-375.67z" fill="#fff5f5"/><path d="m512 183.08v318.92c0 5.52-4.48 10-10 10h-246v-375.67z" fill="#e1ebf0"/><path d="m256 73 35.5 55.04-35.5 55.04h-256v-100.08c0-5.52 4.48-10 10-10z" fill="#0b799d"/><path d="m512 83v100.08h-256v-110.08h246c5.52 0 10 4.48 10 10z" fill="#07485e"/><path d="m148.653 298.983-11.166-11.166c-5.857-5.858-15.355-5.858-21.213 0s-5.858 15.355 0 21.213l11.166 11.166c2.929 2.929 6.768 4.394 10.606 4.394s7.678-1.464 10.606-4.394c5.859-5.858 5.859-15.355.001-21.213z" fill="#ff7c48"/><path d="m149.61 428c0 8.28 6.71 15 15 15h91.39l19.117-58.014-19.117-63.376c-58.67 0-106.39 47.72-106.39 106.39z" fill="#ff7c48"/><path d="m362.39 428c0 8.28-6.71 15-15 15h-91.39v-121.39c58.67 0 106.39 47.72 106.39 106.39z" fill="#ff415b"/><g><path d="m241 244.2v15.79c0 8.29 6.72 15 15 15l6.25-22.895-6.25-22.895c-8.28 0-15 6.72-15 15z" fill="#ff7c48"/><path d="m271 244.2v15.79c0 8.29-6.72 15-15 15v-45.79c8.28 0 15 6.72 15 15z" fill="#ff415b"/></g><path d="m374.513 287.817-11.166 11.166c-5.858 5.858-5.858 15.355 0 21.213 2.929 2.929 6.768 4.394 10.606 4.394s7.678-1.464 10.606-4.394l11.166-11.166c5.858-5.858 5.858-15.355 0-21.213-5.857-5.859-15.355-5.859-21.212 0z" fill="#ff415b"/><path d="m95.697 413h-15.791c-8.284 0-15 6.716-15 15s6.716 15 15 15h15.791c8.284 0 15-6.716 15-15s-6.716-15-15-15z" fill="#ff7c48"/><path d="m432.094 413h-15.791c-8.284 0-15 6.716-15 15s6.716 15 15 15h15.791c8.284 0 15-6.716 15-15s-6.716-15-15-15z" fill="#ff415b"/></g></svg>