<svg height="512" viewBox="0 0 58 58" width="512" xmlns="http://www.w3.org/2000/svg"><g id="Page-1" fill="none" fill-rule="evenodd"><g id="002---Folder-Cross" fill-rule="nonzero"><path id="Shape" d="m58 19v29c0 3.3137085-2.6862915 6-6 6h-46c-3.3137085 0-6-2.6862915-6-6v-44c0-2.209139 1.790861-4 4-4h22c2.209139 0 4 1.790861 4 4v2h18c2.209139 0 4 1.790861 4 4v3c3.3116533.0049563 5.9950437 2.6883467 6 6z" fill="#f0c419"/><path id="Shape" d="m52 10v3h-52v-9c0-2.209139 1.790861-4 4-4h22c2.209139 0 4 1.790861 4 4v2h18c2.209139 0 4 1.790861 4 4z" fill="#f29c1f"/><path id="Shape" d="m18 13h-4c-.5522847 0-1-.4477153-1-1s.4477153-1 1-1h4c.5522847 0 1 .4477153 1 1s-.4477153 1-1 1z" fill="#e57e25"/><path id="Shape" d="m52 11v2h-29c-.5522847 0-1-.4477153-1-1s.4477153-1 1-1z" fill="#e57e25"/><path id="Shape" d="m19.832 43 10.246-9.836c.7731228-.7423979 1.0914531-1.8408579.835079-2.8816008-.256374-1.0407429-1.0485032-1.8656551-2.078-2.164-1.0294968-.298345-2.1399563-.0247971-2.913079.7176008l-10.422 10.005-10.422-10.005c-.77312273-.7423979-1.88358218-1.0159458-2.913079-.7176008-1.02949682.2983449-1.82162596 1.1232571-2.07800002 2.164-.25637407 1.0407429.06195626 2.1392029.83507902 2.8816008l10.246 9.836-10.246 9.836c-1.19514416 1.1476477-1.23364765 3.0468558-.08599995 4.242 1.14764769 1.1951441 3.04685574 1.2336477 4.24199995.086l10.422-10.005 10.422 10.005c1.1951442 1.1476476 3.0943522 1.1091441 4.2419999-.0860001s1.1091442-3.0943522-.0859999-4.2419999z" fill="#e64c3c"/></g></g></svg>