<svg id="Capa_1" enable-background="new 0 0 512 512" height="512" viewBox="0 0 512 512" width="512" xmlns="http://www.w3.org/2000/svg"><g><path d="m103.11 10.829-58.415 15.652c-8.889 2.382-15.833 9.325-18.214 18.214l-15.652 58.415c-2.382 8.889.16 18.374 6.667 24.881l40.401 40.401c6.507 6.507 15.992 9.049 24.881 6.667l58.414-15.652c8.889-2.382 15.833-9.325 18.214-18.214l15.652-58.414c2.382-8.889-.16-18.374-6.667-24.881l-40.401-40.401c-6.506-6.508-15.991-9.05-24.88-6.668zm5.013 97.294c-8.383 8.383-21.974 8.383-30.357 0s-8.383-21.974 0-30.357 21.974-8.383 30.357 0c8.383 8.382 8.383 21.974 0 30.357z" fill="#f7e365"/><path d="m168.392 57.897-35.957-35.957c10.344 22.294 11.918 52.471 2.177 82.707-11.434 35.49-35.472 61.84-61.4 71.116 3.157.358 6.399.146 9.566-.703l58.414-15.652c8.889-2.382 15.833-9.325 18.214-18.214l15.652-58.414c2.383-8.891-.158-18.375-6.666-24.883z" fill="#f3d332"/><path d="m180.713.019-28.96.603c-4.123.086-8.165 1.502-11.243 4.247-7.268 6.482-7.508 17.639-.718 24.429l54.942 54.942c10.658 10.658 14.919 26.133 11.21 40.742-3.128 12.322-6.955 27.399-10.124 39.885-3.862 15.216-15.738 27.091-30.953 30.954-12.473 3.166-27.533 6.989-39.849 10.115-14.629 3.713-30.129-.552-40.802-11.224l-54.919-54.919c-6.559-6.559-17.192-6.559-23.751 0-3.064 3.064-4.825 7.193-4.915 11.525l-.612 29.396c-.486 23.322 8.565 45.833 25.06 62.328l32.107 32.107c25.695 25.695 62.672 36.598 98.198 28.953l31.083-6.689c14.21-3.058 29.001 1.303 39.279 11.581l199.963 199.963c4.057 4.057 10.634 4.057 14.691 0l68.558-68.558c4.057-4.057 4.057-10.634 0-14.691l-199.963-199.963c-10.278-10.278-14.639-25.069-11.581-39.279l6.689-31.082c7.645-35.525-3.258-72.503-28.953-98.198l-32.107-32.107c-16.496-16.495-39.007-25.546-62.33-25.06z" fill="#9facba"/><g fill="#8d9ca8"><path d="m160.775 19.957c23.322-.486 45.833 8.565 62.328 25.06l20.201 20.201c25.695 25.695 36.598 62.672 28.953 98.198l-6.689 31.082c-3.058 14.21 1.303 29.001 11.581 39.279l219.214 219.214 12.593-12.593c4.057-4.057 4.057-10.634 0-14.691l-199.961-199.962c-10.278-10.278-14.639-25.069-11.581-39.279l6.689-31.082c7.645-35.525-3.258-72.503-28.953-98.198l-32.107-32.107c-16.495-16.495-39.006-25.546-62.328-25.06l-28.96.603c-3.938.082-7.813 1.363-10.833 3.892-4.902 4.105-6.814 10.262-5.757 15.977z"/><path d="m9.358 159.731 46.105 46.105c10.673 10.673 26.172 14.938 40.802 11.224 12.316-3.126 27.376-6.949 39.849-10.115 5.914-1.501 11.313-4.226 15.944-7.874-9.172 2.328-18.73 4.754-27.041 6.864-14.629 3.713-30.129-.552-40.802-11.224l-54.919-54.919c-6.559-6.559-17.192-6.559-23.751 0-3.064 3.064-4.825 7.193-4.915 11.525l-.079 3.782c3.227.597 6.312 2.137 8.807 4.632z"/></g><path d="m492.085 457.271-34.814 34.814-199.939-199.939c-9.613-9.613-9.613-25.2 0-34.814 9.613-9.613 25.2-9.613 34.814 0z" fill="#596c76"/></g></svg>