<?xml version="1.0" encoding="iso-8859-1"?>
<!-- Generator: Adobe Illustrator 19.0.0, SVG Export Plug-In . SVG Version: 6.00 Build 0)  -->
<svg version="1.1" id="Capa_1" xmlns="http://www.w3.org/2000/svg" xmlns:xlink="http://www.w3.org/1999/xlink" x="0px" y="0px"
	 viewBox="0 0 512 512" style="enable-background:new 0 0 512 512;" xml:space="preserve">
<path style="fill:#FAFAFA;" d="M415.04,160H96.96c0.32-6.72,1.6-13.12,2.88-19.2L128,16h256l28.16,124.8
	C413.44,146.88,414.72,153.28,415.04,160z"/>
<path style="fill:#F44336;" d="M416,176c0,88.32-71.68,160-160,160S96,264.32,96,176c0-5.44,0.32-10.88,0.96-16h318.08
	C415.68,165.12,416,170.56,416,176z"/>
<g>
	<path style="fill:#ECEFF1;" d="M336,512H176c-8.832,0-16-7.168-16-16s7.168-16,16-16h160c8.832,0,16,7.168,16,16
		S344.832,512,336,512z"/>
	<path style="fill:#ECEFF1;" d="M256,512c-8.832,0-16-7.168-16-16V336c0-8.832,7.168-16,16-16s16,7.168,16,16v160
		C272,504.832,264.832,512,256,512z"/>
	<path style="fill:#ECEFF1;" d="M256,352c-97.056,0-176-78.944-176-176c0-13.408,1.408-26.464,4.256-38.752
		c0.064-0.352,0.16-0.672,0.256-1.024l27.872-123.712C114.016,5.216,120.512,0,128,0h256c7.456,0,13.984,5.184,15.584,12.48
		l27.904,123.808c0.096,0.32,0.192,0.64,0.256,0.96C430.56,149.536,432,162.592,432,176C432,273.056,353.024,352,256,352z
		 M115.232,145.28C113.088,154.976,112,165.312,112,176c0,79.392,64.608,144,144,144s144-64.608,144-144
		c0-10.688-1.088-21.056-3.264-30.784c-0.096-0.32-0.192-0.672-0.256-0.992L371.232,32H140.8l-25.28,112.192
		C115.424,144.576,115.328,144.928,115.232,145.28z"/>
</g>
<g>
</g>
<g>
</g>
<g>
</g>
<g>
</g>
<g>
</g>
<g>
</g>
<g>
</g>
<g>
</g>
<g>
</g>
<g>
</g>
<g>
</g>
<g>
</g>
<g>
</g>
<g>
</g>
<g>
</g>
</svg>
