<svg height="512" viewBox="0 0 58 58" width="512" xmlns="http://www.w3.org/2000/svg"><g id="Page-1" fill="none" fill-rule="evenodd"><g id="002---Eggs-and-Bacon" fill-rule="nonzero"><circle id="Oval" cx="29" cy="29" fill="#f3d55b" r="29"/><circle id="Oval" cx="29" cy="29" fill="#f0c419" r="25"/><path id="Shape" d="m20.585 5.6c-5.767 1.655-7.824 5.366-7.406 10.448s-2.465 5.906-3.279 10.303 2.2 7.689 13.736 4.379 10.564-10.314 10.147-15.396-3.583-12.496-13.198-9.734z" fill="#ecf0f1"/><circle id="Oval" cx="24.001" cy="17.001" fill="#f0c419" r="5"/><path id="Shape" d="m51.05 39.41-1.87.71c-4.68 1.78-5.73 4.32-10.41 6.09s-7.36.66-12.03 2.43l-1.87.71c-.516179.1896886-1.0893098-.067998-1.29-.58l-.81-2.14v-.01l-.77-.62 6.55-4 6.27-5c.13-.04.27-.09.4-.14 4.68-1.77 5.74-4.31 10.41-6.09l1.87-.7c.247862-.0958651.5237906-.0884845.7661733.0204938.2423828.1089783.431033.3104781.5238267.5595062l1.06 2.8.36.94.36.94 1.06 2.8c.1895668.5134966-.0689327 1.0839782-.58 1.28z" fill="#df4d60"/><path id="Shape" d="m50.57 35.33-2.82 1.06c-1.7936001.7038441-3.4669054 1.6821879-4.96 2.9-1.630232 1.3407872-3.4630607 2.4141565-5.43 3.18-2.0245941.7378263-4.1480002 1.1692485-6.3 1.28-1.8484511.0873336-3.675859.4306036-5.43 1.02-.1056268.0392101-.2173314.0595201-.33.06-.4226818-.0023768-.8002873-.2647132-.95-.66-.1824222-.5217712.0898313-1.0930572.61-1.28 1.1640284-.4155251 2.3666717-.7136735 3.59-.89.81-.11 1.57-.18 2.33-.25 1.9714941-.0804391 3.9183108-.4684529 5.77-1.15 1.7875896-.7036153 3.4543362-1.6820698 4.94-2.9 1.6400035-1.3426137 3.4829981-2.4160061 5.46-3.18l2.8-1.07.36.94z" fill="#ecf0f1"/><path id="Shape" d="m40.95 28.74-1.43 1.4c-2.52 2.49-3.23 4.59-4.7 6.86-.6766555 1.0570517-1.4718064 2.0333763-2.37 2.91-1.3117837 1.2664894-2.7965707 2.3405191-4.41 3.19l-.01.01c-1.9009237.9320948-3.6697056 2.1124036-5.26 3.51v.01c-.12.11-.24.22-.36.34l-1.42 1.4c-.1890965.1879965-.4454436.2926865-.7120832.2908087-.2666396-.0018777-.5214867-.1101676-.7079168-.3008087l-2.1-2.14-.7-.71-.7-.72-2.11-2.13c-.3849712-.3927817-.3805035-1.0227181.01-1.41l1.43-1.41c3.56-3.5 6.47-3.56 10.04-7.06 1.2029331-1.1940697 2.2329139-2.5505477 3.06-4.03l5.26-6.96.18-.18c.3927817-.3849712 1.0227181-.3805035 1.41.01l2.11 2.14.69.71.71.72 2.1 2.14c.3849712.3927817.3805035 1.0227181-.01 1.41z" fill="#ff5364"/><path id="Shape" d="m38.86 25.19-2.14 2.1c-1.3576691 1.3696188-2.4945341 2.9416635-3.37 4.66-.9625171 1.883453-2.214385 3.6043496-3.71 5.1-1.5489882 1.4873377-3.3118457 2.7344836-5.23 3.7-1.7616705.8733665-3.3801939 2.0097048-4.8 3.37-1.36 1.33-1.91 1.87-2.11 2.07l-.03.03-.7-.71-.7-.72c.23-.23.79-.78 2.14-2.1 1.5516494-1.4813963 3.3140942-2.7248803 5.23-3.69 1.7616705-.8733665 3.3801939-2.0097048 4.8-3.37 1.3554535-1.3714971 2.4920563-2.9431793 3.37-4.66.9590048-1.8856073 2.211254-3.607028 3.71-5.1l2.14-2.11.69.71z" fill="#ecf0f1"/><circle id="Oval" cx="23" cy="16" fill="#f3d55b" r="2"/></g></g></svg>