<svg height="512" viewBox="0 0 48 48" width="512" xmlns="http://www.w3.org/2000/svg"><g id="box"><path d="m1 3h46v8h-46z" fill="#a87e6b"/><path d="m47 3v6h-38a6 6 0 0 1 -6-6z" fill="#be927c"/><path d="m3 11h42v34h-42z" fill="#a87e6b"/><path d="m45 11v32h-28a12 12 0 0 1 -12-12v-20z" fill="#be927c"/><path d="m15 28h18v10h-18z" fill="#f6ccaf"/><g fill="#ffdec7"><path d="m33 28v8h-8a8 8 0 0 1 -8-8z"/><path d="m28 18h-8a1 1 0 0 1 0-2h8a1 1 0 0 1 0 2z"/><path d="m30 22h-12a1 1 0 0 1 0-2h12a1 1 0 0 1 0 2z"/></g><path d="m45 39v6h-6a6 6 0 0 1 6-6z" fill="#f6ccaf"/><path d="m45 39v4h-5.65a6 6 0 0 1 5.65-4z" fill="#ffdec7"/><path d="m9 45h-6v-6a6 6 0 0 1 6 6z" fill="#f6ccaf"/></g></svg>