<svg id="Layer_1" height="512" viewBox="0 0 512 512" width="512" xmlns="http://www.w3.org/2000/svg" data-name="Layer 1"><path d="m484.85 66.93 5.15 5.12a4 4 0 0 1 -.38 5.72l-207.36 202.23a4 4 0 0 1 -5.64.3 4 4 0 0 1 .3-5.64l202.2-207.35a4.05 4.05 0 0 1 5.73-.38z" fill="#f8a501"/><path d="m456.32 41 5.54 4.66a4 4 0 0 1 .11 5.73l-189.24 219.24a4 4 0 0 1 -5.59.77 4 4 0 0 1 -.19-5.64l183.7-223.89a4 4 0 0 1 5.67-.87z" fill="#f8a501"/><path d="m462.86 236.49c0 122.57-99.36 221.93-221.93 221.93s-221.93-99.36-221.93-221.93z" fill="#a9cad9"/><path d="m417.1 236.49c0 114.85-87.23 209.31-199 220.77a224.68 224.68 0 0 0 22.88 1.16c122.57 0 221.93-99.36 221.93-221.93z" fill="#77b5e6"/><rect fill="#5aa2da" height="18.3" rx="9.15" width="175.71" x="152.62" y="444.7"/></svg>