<svg id="Capa_1" enable-background="new 0 0 497 497" height="512" viewBox="0 0 497 497" width="512" xmlns="http://www.w3.org/2000/svg"><g><path d="m98.937 19.4c-.906-11.753 9.569-21.207 21.168-19.107 19.897 3.604 49.401 12.549 69.414 34.721 32.719 36.249 27.679 94.126 27.679 94.126s-58.089-.895-90.808-37.144c-20.013-22.171-25.9-52.434-27.453-72.596z" fill="#bbf49b"/><path d="m415.651 84.063c9.849 5.739 10.958 18.074 3.365 26.577-16.37 18.33-46.21 45.458-85.578 51.695-11.034 1.748-21.964 2.657-32.448 1.343-46.056-5.775-83.513-35.088-83.513-35.088s40.034-59.462 99.543-68.89c.961-.152 1.921-.29 2.88-.415 38.334-4.983 75.036 12.708 95.751 24.778z" fill="#bbf49b"/><path d="m415.651 83.059c-20.807-12.125-57.745-28.891-96.264-23.691 26.9 3.383 50.863 14.791 66.136 23.691 9.849 5.739 11.962 19.079 4.369 27.581-16.37 18.33-47.214 46.463-86.582 52.699-.773.123-1.546.231-2.319.335 10.484 1.315 21.412 1.413 32.447-.335 39.368-6.236 70.212-34.37 86.582-52.699 7.593-8.502 5.48-21.842-4.369-27.581z" fill="#9be69d"/><g><path d="m143.421 336.313c-4.105 0-7.455-3.306-7.498-7.421-.342-32.583 6.397-117.63 76.179-203.423 1.838-2.261 4.82-3.252 7.647-2.541s4.985 2.996 5.536 5.857c.21 1.093 21.627 109.826 72.428 152.129 3.183 2.65 3.615 7.379.964 10.563s-7.38 3.614-10.563.964c-43.232-36-65.899-112.049-74.032-145.093-57.673 77.626-63.47 151.997-63.162 181.387.043 4.142-3.279 7.535-7.421 7.578-.024 0-.051 0-.078 0z" fill="#6fd7a3"/></g><path d="m227.588 412.373c0 46.738-36.884 83.622-83.622 83.622-5.143 0-10.179.546-15.069-.333-39.549-7.108-69.558-41.694-69.558-83.289s30.009-76.181 69.558-83.289c4.89-.879 9.926-.333 15.069-.333 46.737 0 83.622 36.884 83.622 83.622z" fill="#ed5469"/><path d="m143.965 327.747c-5.145 0-10.173.484-15.064 1.364 39.547 7.11 69.562 41.669 69.562 83.263s-30.016 76.153-69.562 83.263c4.891.879 9.92 1.364 15.064 1.364 46.738 0 84.627-37.889 84.627-84.627s-37.889-84.627-84.627-84.627z" fill="#e63850"/><path d="m436.657 345.21c-.048 46.428-36.884 83.622-83.622 83.622-5.143 0-10.179.546-15.069-.333-39.549-7.108-69.558-41.694-69.558-83.289s30.009-76.181 69.558-83.289c4.89-.879 9.926-.333 15.069-.333 44.059 0 83.668 39.135 83.622 83.622z" fill="#ed5469"/><path d="m353.034 260.583c-5.145 0-10.173.484-15.064 1.364 39.547 7.11 69.562 41.669 69.562 83.263s-30.016 76.153-69.562 83.263c4.891.879 9.92 1.364 15.064 1.364 46.738 0 84.626-37.889 84.626-84.627.001-46.738-37.888-84.627-84.626-84.627z" fill="#e63850"/></g></svg>