<?xml version="1.0" encoding="iso-8859-1"?>
<!-- Generator: Adobe Illustrator 19.0.0, SVG Export Plug-In . SVG Version: 6.00 Build 0)  -->
<svg version="1.1" id="Capa_1" xmlns="http://www.w3.org/2000/svg" xmlns:xlink="http://www.w3.org/1999/xlink" x="0px" y="0px"
	 viewBox="0 0 511.126 511.126" style="enable-background:new 0 0 511.126 511.126;" xml:space="preserve">
<path style="fill:#FF7058;" d="M396.775,29.625c-23.467,0-44.8,10.667-59.733,26.667c-14.933-16-36.267-26.667-59.733-26.667
	c-44.8,0-80,36.267-80,80c0,68.267,139.733,170.667,139.733,170.667s139.733-102.4,139.733-170.667
	C476.775,65.892,441.575,29.625,396.775,29.625z"/>
<path style="fill:#FFD15C;" d="M487.441,321.892c0,0-51.2,40.533-80,53.333c0,0-62.933,34.133-122.667,36.267h-92.8
	c0,0-17.067-3.2-39.467,11.733c-3.2,2.133-5.333,4.267-8.533,6.4c-4.267,3.2-9.6,7.467-13.867,12.8l-74.667-108.8
	c0,0,6.4-4.267,14.933-11.733c2.133-2.133,5.333-4.267,7.467-7.467c6.4-5.333,12.8-12.8,19.2-20.267c0,0,39.467-51.2,128-20.267
	c61.867,21.333,69.333,22.4,69.333,22.4s37.333,4.267,73.6,4.267c0,0,29.867,0,28.8,22.4c0,7.467-4.267,13.867-9.6,19.2
	c-7.467,6.4-21.333,13.867-46.933,17.067c-10.667,1.067-22.4,1.067-33.067,0c-27.733-2.133-60.8-7.467-67.2-3.2
	c0,0-8.533,6.4,24.533,10.667c0,0,24.533,3.2,68.267,4.267c0,0,78.933-3.2,75.733-58.667c0,0,27.733-17.067,44.8-23.467
	c0,0,44.8-26.667,55.467-9.6C508.775,278.158,521.575,296.292,487.441,321.892z"/>
<path style="fill:#FFFFFF;" d="M385.041,316.558c-3.2-3.2-11.733-5.333-16-5.333h-5.333c-4.267,0-7.467,0-11.733,0v35.2
	c14.933-3.2,23.467-8.533,28.8-11.733c3.2-3.2,5.333-7.467,6.4-11.733C387.175,318.692,385.041,317.625,385.041,316.558z"/>
<path style="fill:#F8B64C;" d="M152.508,423.225c-3.2,2.133-5.333,4.267-8.533,6.4c-4.267,3.2-9.6,7.467-13.867,12.8l-74.667-108.8
	c0,0,6.4-4.267,14.933-11.733c2.133-2.133,5.333-4.267,7.467-7.467L152.508,423.225z"/>
<rect x="43.355" y="303.911" transform="matrix(-0.8238 0.5668 -0.5668 -0.8238 361.8893 669.2106)" style="fill:#40596B;" width="67.197" height="173.859"/>
<circle style="fill:#CDD6E0;" cx="111.975" cy="439.225" r="14.933"/>
<g>
</g>
<g>
</g>
<g>
</g>
<g>
</g>
<g>
</g>
<g>
</g>
<g>
</g>
<g>
</g>
<g>
</g>
<g>
</g>
<g>
</g>
<g>
</g>
<g>
</g>
<g>
</g>
<g>
</g>
</svg>
