<svg id="Layer_1" enable-background="new 0 0 64 64" height="512" viewBox="0 0 64 64" width="512" xmlns="http://www.w3.org/2000/svg"><g><path d="m55 34.056c0-.019 0-.037 0-.056 0-7.72-6.28-14-14-14-.19 0-.385.005-.587.015-1.75-5.939-7.148-10.015-13.413-10.015-6.223 0-11.73 4.195-13.443 10.103-.52-.068-1.041-.103-1.557-.103-6.617 0-12 5.383-12 12s5.383 12 12 12h2.17c.956 5.762 5.89 10 11.83 10h28c5.514 0 10-4.486 10-10 0-5.163-3.932-9.424-9-9.944z" fill="#787680"/><path d="m55 34.056c0-.019 0-.037 0-.056 0-7.72-6.28-14-14-14-6.223 0-11.73 4.195-13.443 10.103-.52-.068-1.041-.103-1.557-.103-6.617 0-12 5.383-12 12s5.383 12 12 12h28c5.514 0 10-4.486 10-10 0-5.163-3.932-9.424-9-9.944z" fill="#78b9eb"/></g></svg>