<?xml version="1.0" encoding="iso-8859-1"?>
<!-- Generator: Adobe Illustrator 19.0.0, SVG Export Plug-In . SVG Version: 6.00 Build 0)  -->
<svg version="1.1" id="Capa_1" xmlns="http://www.w3.org/2000/svg" xmlns:xlink="http://www.w3.org/1999/xlink" x="0px" y="0px"
	 viewBox="0 0 512 512" style="enable-background:new 0 0 512 512;" xml:space="preserve">
<g>
	<path style="fill:#E2E2E2;" d="M392.499,174.392c9.718,26.23,13.604,53.432,13.604,81.608s-4.859,55.378-13.604,81.608l9.718,3.886
		c9.718-27.203,14.572-56.351,14.572-85.494s-4.859-58.291-14.572-85.494L392.499,174.392z"/>
	<path style="fill:#E2E2E2;" d="M476.052,125.814l-8.745,4.859c22.344,37.888,34.002,81.608,34.002,125.327
		s-11.658,87.439-34.002,125.327l8.745,4.859C499.369,347.325,512,301.66,512,256S499.369,164.675,476.052,125.814z"/>
	<polygon style="fill:#E2E2E2;" points="160.302,128.727 160.302,128.727 160.302,383.273 160.302,383.273 160.302,383.273 
		320.609,511.514 320.609,0.486 	"/>
</g>
<path style="fill:#20262D;" d="M26.23,128.727c-6.799,0-12.631,2.913-18.458,7.772C2.913,141.358,0,148.157,0,154.962v204.022
	c0,6.799,2.913,12.631,7.772,18.458c4.859,4.859,11.658,7.772,18.458,7.772h134.072V128.727H26.23z"/>
<g>
</g>
<g>
</g>
<g>
</g>
<g>
</g>
<g>
</g>
<g>
</g>
<g>
</g>
<g>
</g>
<g>
</g>
<g>
</g>
<g>
</g>
<g>
</g>
<g>
</g>
<g>
</g>
<g>
</g>
</svg>
