<svg id="Capa_1" enable-background="new 0 0 512 512" height="512" viewBox="0 0 512 512" width="512" xmlns="http://www.w3.org/2000/svg"><g><g><path d="m310.562 384.109h-54.562-54.563l-9.275 69.658h63.838 63.838z" fill="#537983"/><path d="m319.84 453.767h-22.541l-9.276-69.653h22.541z" fill="#426970"/><path d="m489.887 21.544h-467.774c-12.213 0-22.113 9.901-22.113 22.113v321.845c0 12.213 9.9 22.113 22.113 22.113h467.774c12.213 0 22.113-9.9 22.113-22.113v-321.845c0-12.212-9.901-22.113-22.113-22.113z" fill="#2b3838"/><path d="m512 43.661v321.84c0 12.213-9.905 22.118-22.108 22.118h-19.449c12.213 0 22.108-9.905 22.108-22.118v-321.84c0-12.214-9.895-22.118-22.108-22.118h19.449c12.203 0 22.108 9.904 22.108 22.118z" fill="#212d2d"/><path d="m512 323.633h-512v41.869c0 12.212 9.9 22.113 22.113 22.113h467.774c12.212 0 22.113-9.9 22.113-22.113z" fill="#7ca1b1"/><path d="m512 323.635v41.866c0 12.213-9.905 22.118-22.108 22.118h-19.449c12.213 0 22.108-9.905 22.108-22.118v-41.866z" fill="#678d98"/><path d="m36.498 323.635v-259.98c0-5.416 4.391-9.807 9.807-9.807h419.389c5.416 0 9.807 4.391 9.807 9.807v259.98z" fill="#d4f2f6"/><g><g><path d="m101.389 284.104c-1.77 0-3.546-.623-4.974-1.89-3.099-2.749-3.382-7.489-.633-10.587l68.804-77.561c2.749-3.098 7.488-3.382 10.587-.633s3.382 7.489.633 10.587l-68.804 77.561c-1.482 1.671-3.543 2.523-5.613 2.523z" fill="#8cd7dd"/></g><g><g><path d="m141.468 281.73c-1.77 0-3.546-.623-4.974-1.89-3.099-2.749-3.382-7.489-.633-10.587l18.637-21.009c2.749-3.098 7.489-3.383 10.587-.633 3.099 2.749 3.382 7.489.633 10.587l-18.637 21.009c-1.481 1.671-3.542 2.523-5.613 2.523z" fill="#8cd7dd"/></g><g><path d="m181.126 237.025c-1.77 0-3.546-.623-4.974-1.889-3.099-2.749-3.382-7.489-.634-10.588l5.051-5.694c2.749-3.098 7.489-3.382 10.588-.634 3.099 2.749 3.382 7.489.634 10.588l-5.051 5.694c-1.482 1.67-3.544 2.523-5.614 2.523z" fill="#8cd7dd"/></g></g></g><path d="m475.504 63.656v259.979h-22.129v-259.979c0-5.421-4.391-9.812-9.812-9.812h22.129c5.421 0 9.812 4.391 9.812 9.812z" fill="#a6e7f0"/><g><path d="m272.232 363.124h-32.464c-4.142 0-7.5-3.358-7.5-7.5s3.358-7.5 7.5-7.5h32.464c4.142 0 7.5 3.358 7.5 7.5s-3.358 7.5-7.5 7.5z" fill="#537983"/></g><path d="m385.435 490.456h-258.871v-22.809c0-9.602 7.784-17.386 17.386-17.386h224.1c9.602 0 17.386 7.784 17.386 17.386v22.809z" fill="#2b3838"/><path d="m385.433 467.648v22.809h-24.736v-22.809c0-9.606-7.782-17.388-17.388-17.388h24.736c9.606.001 17.388 7.782 17.388 17.388z" fill="#212d2d"/></g></g></svg>