<svg id="Layer_1" height="512" viewBox="0 0 512 512" width="512" xmlns="http://www.w3.org/2000/svg" data-name="Layer 1"><path d="m435.6 107.23c-.12-.06-.16-.13-.28-.2-.45-.23-.87-.45-1.32-.68-38.03-19.08-100.42-29.96-162.37-30.1l138.78 360.75h22.72a19.035 19.035 0 0 0 19.03-18.9l1.35-183.565a36.839 36.839 0 0 1 12.18-26.613 79.814 79.814 0 0 0 11-12.331 51.167 51.167 0 0 0 9.29-27.81l.02-.161c-.03-23.07-18.9-44.18-50.4-60.39z" fill="#7f3d32"/><path d="m271.63 76.24c48.6 3.5 91.54 14.45 122.76 30.11.45.23.87.45 1.32.68.12.07.15.14.28.2 31.49 16.21 50.37 37.32 50.4 60.39l-.02.16a51.248 51.248 0 0 1 -9.29 27.81 79.807 79.807 0 0 1 -11 12.33 36.793 36.793 0 0 0 -12.18 26.61l-1.49 202.45-331.44-.01a19.041 19.041 0 0 1 -19.04-18.95l-.83-183.5a36.706 36.706 0 0 0 -11.78-26.81 78.28 78.28 0 0 1 -11.03-12.43 50.816 50.816 0 0 1 -9.08-27.64v-.04c.03-23.58 19.76-45.1 52.53-61.46 38.28-19.09 93.89-31.12 156.04-31.12h.01c11.53 0 22.83.41 33.84 1.22z" fill="#e1b7a3"/><g fill="#c79a83"><circle cx="376.95" cy="196.14" r="11.42"/><path d="m315.57 340.79a6.185 6.185 0 1 1 -6.19 6.18 6.184 6.184 0 0 1 6.19-6.18z"/><path d="m280.35 244.67a7.135 7.135 0 1 1 -7.13 7.14 7.138 7.138 0 0 1 7.13-7.14z"/><path d="m257.99 128.57a15.225 15.225 0 1 1 -15.23 15.22 15.23 15.23 0 0 1 15.23-15.22z"/><path d="m146.17 328.41a16.655 16.655 0 1 1 -16.65 16.66 16.661 16.661 0 0 1 16.65-16.66z"/><path d="m134.28 191.38a10.465 10.465 0 1 1 -10.47 10.47 10.458 10.458 0 0 1 10.47-10.47z"/></g><path d="m111.635 106.14c35.152-17.53 84.974-29.109 141-30.884-4.924-.156-9.835-.256-14.845-.256h-.01c-62.15 0-117.865 12.04-156.145 31.13-32.77 16.36-52.635 37.89-52.635 61.47v.04c0 9.84 3.495 19.41 9.185 27.64a78.621 78.621 0 0 0 11.083 12.43 36.733 36.733 0 0 1 11.806 26.81l.843 183.51a19.063 19.063 0 0 0 19.046 18.97h30.007a19.054 19.054 0 0 1 -19.04-18.965l-.83-183.508a36.715 36.715 0 0 0 -11.78-26.813 78.97 78.97 0 0 1 -11.135-12.432c-5.685-8.23-9.185-17.802-9.185-27.642v-.04c0-23.58 19.865-45.1 52.635-61.46z" fill="#af8777"/><path d="m91 278.648a6 6 0 0 1 -6-6v-6.3a6 6 0 0 1 12 0v6.3a6 6 0 0 1 -6 6z" fill="#f4f8fc"/><path d="m91 383.648a6 6 0 0 1 -6-6v-86a6 6 0 0 1 12 0v86a6 6 0 0 1 -6 6z" fill="#f4f8fc"/></svg>