<svg id="Capa_1" enable-background="new 0 0 421.66 421.66" height="512" viewBox="0 0 421.66 421.66" width="512" xmlns="http://www.w3.org/2000/svg"><g><g><path d="m419.55 351.312-306.655-306.606c-2.984-3.016-7.848-3.044-10.864-.06-.021.021-.041.04-.06.06l-14.718 14.717c-3.016 2.984-3.044 7.848-.06 10.864.021.021.04.041.06.06l306.657 306.607c2.984 3.016 7.848 3.044 10.864.06.021-.021.041-.04.06-.06l14.716-14.966c2.816-2.997 2.811-7.674 0-10.676z" fill="#fcd462"/><path d="m130.206 240.014 71.887-118.98c2.002-3.21 1.46-7.387-1.297-9.977l-51.233-51.333c-2.643-2.67-6.777-3.166-9.977-1.197l-118.783 71.786c1.552 3.144 1.552 6.833 0 9.977-2.01 4.251-5.065 7.924-8.88 10.676l102.319 102.069.947-1.247c.749-.749 1.446-1.496 2.145-2.295l.599-.649c.957-1.257 1.809-2.592 2.545-3.991 2.002-3.391 5.814-5.287 9.728-4.839z" fill="#3a556a"/><path d="m132.799 235.774c-49.219-19.697-88.205-58.718-107.856-107.956l-24.943 14.966c19.619 54.896 62.745 98.151 117.584 117.933z" fill="#e1e6e9"/></g></g></svg>