<svg height="512" viewBox="0 0 128 128" width="512" xmlns="http://www.w3.org/2000/svg"><g><path d="m23.273 55.149h15.953v54.607h-15.953z" fill="#9b6e42" transform="matrix(.707 .707 -.707 .707 67.456 2.053)"/><path d="m46.558 49.174h27.304v8.639h-27.304z" fill="#ffca28" transform="matrix(.707 -.707 .707 .707 -20.19 58.242)"/><path d="m91.742 21.96a4.32 4.32 0 0 0 -6.108 0l-2.647 2.647 6.113 6.109 2.646-2.647a4.32 4.32 0 0 0 -.004-6.109z" fill="#ffca28"/><path d="m67.967 24.31h19.971v22.88h-19.971z" fill="#65727f" transform="matrix(.707 .707 -.707 .707 48.111 -44.65)"/><path d="m121.7 46.055-28.6-11.333-16.176 16.178 11.333 28.593c6.552-1.311 14.258-5.663 21.018-12.423s11.111-14.465 12.425-21.017z" fill="#65727f"/><path d="m104.275 62.07c-5.67 5.67-12.18 9.76-18.36 11.53l-1.29-3.27c.05-.02.11-.04.17-.06 5.58-1.56 11.78-5.45 17-10.67a1.75 1.75 0 0 1 2.48 2.47z" fill="#525d66"/><path d="m109.209 55.128a1.75 1.75 0 0 1 -1.449-2.728 40.878 40.878 0 0 0 2.231-3.71 1.75 1.75 0 1 1 3.092 1.639 44.432 44.432 0 0 1 -2.421 4.028 1.75 1.75 0 0 1 -1.453.771z" fill="#525d66"/><g fill="#825a3a"><path d="m51.8 64.39-15.71 15.7a1.747 1.747 0 0 1 -2.47-2.47l15.7-15.71z"/><path d="m27.077 88.376a1.75 1.75 0 0 1 -1.238-2.987l2.591-2.589a1.75 1.75 0 1 1 2.475 2.474l-2.591 2.591a1.745 1.745 0 0 1 -1.237.511z"/><path d="m20.915 95.27-7.73 7.73-2.48-2.48 7.73-7.73a1.754 1.754 0 0 1 2.48 2.48z"/></g></g></svg>