<svg id="Capa_1" enable-background="new 0 0 512 512" height="512" viewBox="0 0 512 512" width="512" xmlns="http://www.w3.org/2000/svg"><g><path d="m474.099 2.701-29.399 72.299-30 137v195c0 8.401-6.599 15-15 15h-200.1c-3.6 0-7.2-1.199-9.901-3.9l-18.3-16.199c-7.251-6.045-6.77-17.422 1.199-23.401 20.099-14.099 32.1-36.899 32.1-61.5 0-41.4-33.6-75-75-75-8.401 0-15-6.599-15-15v-167c0-32.999 27.001-60 60-60h285c5.101 0 9.902.901 14.401 2.701z" fill="#f0f7ff"/><path d="m264.7 0v422h135c8.401 0 15-6.599 15-15v-195l30-137 29.399-72.299c-4.499-1.8-9.3-2.701-14.399-2.701z" fill="#dfe7f4"/><g><g id="_Diploma_1_"><g><path d="m339.7 122h-150c-8.291 0-15-6.709-15-15s6.709-15 15-15h150c8.291 0 15 6.709 15 15s-6.709 15-15 15z" fill="#dfe7f4"/></g><g><path d="m339.7 182h-150c-8.291 0-15-6.709-15-15s6.709-15 15-15h150c8.291 0 15 6.709 15 15s-6.709 15-15 15z" fill="#dfe7f4"/></g><g><g><path d="m339.7 242h-90c-8.291 0-15-6.709-15-15s6.709-15 15-15h90c8.291 0 15 6.709 15 15s-6.709 15-15 15z" fill="#dfe7f4"/></g></g><g><g><path d="m339.7 332h-60c-8.291 0-15-6.709-15-15s6.709-15 15-15h60c8.291 0 15 6.709 15 15s-6.709 15-15 15z" fill="#c7cfe1"/></g></g></g><path d="m504.7 45v152c0 8.284-6.716 15-15 15h-75v-165.013c0-23.099 16.677-43.978 39.619-46.665 7.134-.836 13.73-.041 19.78 2.379 17.701 5.7 30.601 22.5 30.601 42.299z" fill="#c7cfe1"/><path d="m247.063 429.075-55.84-49.512c-5.186-4.585-12.832-5.054-18.486-1.084-12.744 8.848-27.627 13.521-43.037 13.521s-30.293-4.673-43.037-13.521c-5.654-3.94-13.33-3.501-18.516 1.099l-55.811 49.497c-6.064 5.376-6.738 14.619-1.553 20.845l47.402 56.704c2.872 3.413 7.091 5.376 11.515 5.376.264 0 .527 0 .82-.015 4.717-.264 9.023-2.725 11.66-6.665l47.52-71.279 47.52 71.279c2.637 3.94 6.943 6.401 11.66 6.665.292.015.556.015.82.015 4.424 0 8.643-1.963 11.514-5.376l47.402-56.704c5.185-6.226 4.512-15.454-1.553-20.845z" fill="#ff6c6c"/><path d="m177.219 505.32c2.637 3.94 6.943 6.401 11.66 6.665.293.015.557.015.821.015 4.424 0 8.643-1.963 11.514-5.376l47.402-56.704c5.186-6.226 4.512-15.454-1.553-20.845l-55.84-49.512c-5.186-4.585-12.832-5.054-18.486-1.084-12.744 8.848-27.627 13.521-43.037 13.521v42.041z" fill="#e63950"/><g><path d="m129.7 422c-58.611 0-105-47.627-105-105 0-57.891 47.109-105 105-105s105 47.109 105 105c0 57.476-46.466 105-105 105z" fill="#fed843"/></g><path d="m234.7 317c0-57.891-47.109-105-105-105v210c58.533 0 105-47.525 105-105z" fill="#fabe2c"/><g><path d="m129.7 362c-24.814 0-45-20.186-45-45s20.186-45 45-45 45 20.186 45 45-20.186 45-45 45z" fill="#fabe2c"/></g><path d="m174.7 317c0-24.814-20.186-45-45-45v90c24.814 0 45-20.186 45-45z" fill="#ff9100"/></g><g fill="#c7cfe1"><path d="m339.7 212h-75v30h75c8.291 0 15-6.709 15-15s-6.709-15-15-15z"/><path d="m339.7 152h-75v30h75c8.291 0 15-6.709 15-15s-6.709-15-15-15z"/><path d="m339.7 92h-75v30h75c8.291 0 15-6.709 15-15s-6.709-15-15-15z"/></g></g></svg>