<svg id="Capa_1" enable-background="new 0 0 512 512" height="512" viewBox="0 0 512 512" width="512" xmlns="http://www.w3.org/2000/svg"><g><g><path d="m372.46 465.667h-232.92l50.976-139.333h130.969z" fill="#55696e"/></g><path d="m256 465.667h116.46l-50.976-139.334h-65.484z" fill="#3f4a4a"/><path d="m467 15h-422c-16.569 0-30 13.431-30 30v245h482v-245c0-16.569-13.431-30-30-30z" fill="#fff5f5"/><path d="m467 15h-211v275h241v-245c0-16.569-13.431-30-30-30z" fill="#f5f0eb"/><g><path d="m345.552 71.362c-1.669-6.677-7.669-11.362-14.552-11.362s-12.883 4.685-14.552 11.362l-25 100c-.298 1.19-.448 2.411-.448 3.638 0 8.284 6.716 15 15 15h50c8.284 0 15-6.716 15-15 0-1.227-.15-2.448-.448-3.638z" fill="#f2d1a5"/><path d="m291 283c0 8.284 6.716 15 15 15h50c8.284 0 15-6.716 15-15v-108h-80z" fill="#ffde55"/></g><g><g><path d="m386 512h-260c-8.284 0-15-6.716-15-15v-20c0-19.299 15.701-35 35-35h220c19.299 0 35 15.701 35 35v20c0 8.284-6.716 15-15 15z" fill="#738c96"/></g><path d="m401 497v-20c0-19.299-15.701-35-35-35h-110v70h130c8.284 0 15-6.716 15-15z" fill="#55696e"/><g><g><path d="m196 298h-40c-8.284 0-15-6.716-15-15v-93.047c0-8.284 6.716-15 15-15h40c8.284 0 15 6.716 15 15v93.047c0 8.284-6.716 15-15 15z" fill="#ff9100"/></g></g></g><g><path d="m467 0h-422c-24.813 0-45 20.187-45 45v280c0 24.813 20.187 45 45 45h316l15-12 15 12h30l15-12 15 12h16c24.813 0 45-20.187 45-45v-280c0-24.813-20.187-45-45-45zm15 275h-452v-230c0-8.271 6.729-15 15-15h422c8.271 0 15 6.729 15 15z" fill="#738c96"/><path d="m467 0h-211v30h211c8.271 0 15 6.729 15 15v230h-226v95h105l15-12 15 12h30l15-12 15 12h16c24.813 0 45-20.187 45-45v-280c0-24.813-20.187-45-45-45z" fill="#55696e"/><g fill="#3f4a4a"><path d="m436 310c-8.284 0-15 6.716-15 15v45h30v-45c0-8.284-6.716-15-15-15z"/><path d="m376 310c-8.284 0-15 6.716-15 15v45h30v-45c0-8.284-6.716-15-15-15z"/></g></g><g><path d="m211 194.508c6.638-10.849 10-24.109 10-39.508 0-16.046-9.002-28.994-16.235-39.397-2.618-3.765-5.09-7.321-6.479-10.122-4.2-8.473-.57-20.098 1.217-23.947 2.978-5.927 1.66-13.01-3.174-17.559-4.844-4.559-12.161-5.282-17.904-1.922-1.938 1.134-47.425 28.492-47.425 92.947 0 15.398 3.362 28.659 10 39.508z" fill="#738c96"/></g></g></svg>