<svg height="512pt" viewBox="-94 0 511 512" width="512pt" xmlns="http://www.w3.org/2000/svg"><path d="m305.890625 176.550781-8.878906 109.710938-9.601563 118.71875-8.664062 107.019531h-232.578125l-8.660157-107.019531-9.601562-118.71875-8.882812-109.710938zm0 0" fill="#b38a65"/><path d="m305.890625 176.550781-27.144531 335.449219h-113.757813v-335.449219zm0 0" fill="#8a6746"/><path d="m297.011719 286.261719-9.601563 118.71875h-249.902344l-9.601562-118.71875zm0 0" fill="#fff5cb"/><g fill="#ffdba9"><path d="m297.011719 286.261719-9.601563 118.71875h-122.421875v-118.71875zm0 0"/><path d="m.5 115.933594h323.914062v90.625h-323.914062zm0 0"/><path d="m138.628906 101.0625-18.234375-23.828125s-.078125.054687-.210937.164063c.027344-.019532 2.667968-2.238282 3.9375-5.546876.558594-1.445312 2.03125-5.292968-2.878906-12.207031-17.820313-25.09375-5.6875-49.417969 6.816406-59.644531l18.996094 23.226562.183593-.152343c-.027343.023437-2.875 2.550781-4.285156 6.28125-1.039063 2.746093-1.664063 6.699219 2.753906 12.914062 18.015625 25.367188 5.636719 49.058594-7.078125 58.792969zm0 0"/></g><path d="m196.574219 102.195312-18.238281-23.824218s-.078126.050781-.210938.164062c.027344-.023437 2.667969-2.238281 3.9375-5.546875.558594-1.449219 2.03125-5.296875-2.875-12.207031-17.824219-25.09375-5.691406-49.417969 6.8125-59.648438l19 23.226563.179688-.152344c-.027344.023438-2.875 2.550781-4.285157 6.28125-1.035156 2.75-1.660156 6.699219 2.753907 12.917969 18.015624 25.367188 5.640624 49.058594-7.074219 58.789062zm0 0" fill="#ffbdad"/><path d="m149.820312 327.453125h30.335938v30.335937h-30.335938zm0 0" fill="#ff7a53"/><path d="m164.988281 327.453125h15.167969v30.335937h-15.167969zm0 0" fill="#ff3b62"/><path d="m164.988281 115.933594h159.425781v90.625h-159.425781zm0 0" fill="#ffbdad"/></svg>