<svg id="Capa_1" enable-background="new 0 0 512.001 512.001" height="512" viewBox="0 0 512.001 512.001" width="512" xmlns="http://www.w3.org/2000/svg"><g><path clip-rule="evenodd" d="m48.559 87.195c26.816 0 48.529 21.742 48.529 48.558l-50.74 3.515-46.348-3.515c0-26.816 21.743-48.558 48.559-48.558z" fill="#66b394" fill-rule="evenodd"/><path clip-rule="evenodd" d="m232.812 135.753c.028.737.057 1.503.057 2.268v353.764c-77.642 0-142.755-.936-220.368 0-10.602.113-12.501-2.609-12.501-12.501 0-114.52 0-229.011 0-343.531z" fill="#b2a17d" fill-rule="evenodd"/><path clip-rule="evenodd" d="m409.186 135.753h-176.374s-63.355 13.493-67.834 90.794c-4.507 77.329.425 166.677-61.145 191.452v73.786h284.545l5.868-84.133 48.983-226.063z" fill="#62d9fa" fill-rule="evenodd"/><path clip-rule="evenodd" d="m498.818 114.323c-9.61-4.677-20.382-7.342-31.777-7.342-40.025 0-72.794 32.769-72.794 72.822v192.047 119.934h105.252c8.646 0 12.558-2.892 12.501-12.501-.511-119.282-.028-225.609 0-344.154 0-9.808-4.649-16.639-13.182-20.806z" fill="#b2a17d" fill-rule="evenodd"/><path clip-rule="evenodd" d="m96.861 405.073c7.823 0 15.307 1.474 22.196 4.167 12.557-26.532 39.571-44.873 70.865-44.873 43.286 0 78.38 35.093 78.38 78.378 0 18.567-6.463 35.603-17.235 49.04h-99.355-22.932-86.77c-3.741-7.881-5.839-16.725-5.839-26.022.001-33.535 27.156-60.69 60.69-60.69z" fill="#c8effc" fill-rule="evenodd"/><path clip-rule="evenodd" d="m174.899 365.813c4.876-.936 9.894-1.446 15.023-1.446 43.286 0 78.38 35.093 78.38 78.378 0 18.567-6.463 35.603-17.235 49.04h-30.019c10.8-13.436 17.234-30.473 17.234-49.04.001-38.154-27.268-69.931-63.383-76.932z" fill="#bbecfc" fill-rule="evenodd"/><path clip-rule="evenodd" d="m457.914 491.785c.396-3.09.595-6.265.595-9.439 0-41.726-33.817-75.543-75.516-75.543-21.09 0-40.139 8.645-53.83 22.592-9.411-8.731-22.025-14.032-35.859-14.032-29.168 0-52.81 23.641-52.81 52.81 0 8.476 2.013 16.497 5.557 23.613h62.022 32.514 117.327z" fill="#98e5fa" fill-rule="evenodd"/><path clip-rule="evenodd" d="m457.914 491.785c.396-3.09.595-6.265.595-9.439 0-41.726-33.817-75.543-75.516-75.543-21.09 0-40.139 8.645-53.83 22.592-9.411-8.731-22.025-14.032-35.859-14.032-29.168 0-52.81 23.641-52.81 52.81 0 8.476 2.013 16.497 5.557 23.613h62.022 32.514 117.327z" fill="#98e5fa" fill-rule="evenodd"/><path d="m237.008 180.569c3.799-1.616 8.192.142 9.808 3.968 1.616 3.798-.142 8.192-3.94 9.808-1.814.765-3.656 1.757-5.357 2.863-1.813 1.162-3.543 2.466-4.96 3.742-4.62 4.167-7.767 9.241-9.837 14.797-2.211 5.868-3.26 12.331-3.656 18.936-.596 10.233-.964 20.324-1.36 30.586-.737 19.474-1.474 39.543-3.515 59.301-.426 4.11-4.11 7.086-8.222 6.689-4.11-.425-7.087-4.11-6.662-8.22 2.014-19.418 2.75-39.147 3.459-58.309.396-10.658.793-21.175 1.36-30.869.454-7.937 1.814-15.902 4.594-23.329 2.891-7.738 7.284-14.854 13.805-20.693 1.898-1.701 4.309-3.544 6.944-5.244 2.436-1.56 5.045-2.949 7.539-4.026zm106.356 197.262c0 4.139-3.344 7.512-7.482 7.512-4.139 0-7.512-3.373-7.512-7.512v-177.874c0-7.143 1.19-14.031 3.4-20.522 2.269-6.69 5.613-12.898 9.809-18.426 2.522-3.26 7.2-3.912 10.488-1.389 3.288 2.495 3.912 7.2 1.417 10.488-3.232 4.224-5.811 8.986-7.54 14.116-1.672 4.933-2.58 10.205-2.58 15.732zm-58.337-25.511c0 4.167-3.374 7.512-7.513 7.512-4.138 0-7.483-3.345-7.483-7.512v-121.266c0-4.139 3.346-7.483 7.483-7.483 4.139 0 7.513 3.345 7.513 7.483z" fill="#30bce3"/><g clip-rule="evenodd" fill-rule="evenodd"><path d="m458.509 482.345c0-37.899-27.893-69.279-64.262-74.693-3.686-.566-7.428-.85-11.254-.85-4.252 0-8.419.369-12.501 1.049 8.249 1.361 16.072 4.081 23.188 7.909.17.085.368.198.567.311 23.387 12.812 39.261 37.673 39.261 66.274 0 3.175-.199 6.35-.567 9.439h24.974c.395-3.089.594-6.264.594-9.439z" fill="#8bdef5"/><path d="m394.247 371.85v-192.047c0-16.526 5.556-31.805 14.939-44.05h-25.003c-9.383 12.246-14.939 27.525-14.939 44.05v192.047 36.227c.397-.085.822-.17 1.247-.227 4.082-.68 8.249-1.049 12.501-1.049 3.826 0 7.568.284 11.254.85v-35.801z" fill="#54d0f2"/><path d="m164.979 226.546c4.479-77.272 67.777-90.794 67.834-90.794h-48.161c-27.411 15.364-42.605 54.624-44.646 89.348-2.238 38.835-1.02 101.367-16.44 138.387-6.095 5.074-11.566 10.857-16.328 17.206-3.431-.425-6.889-.624-10.375-.624-47.31 0-85.692 38.353-85.692 85.691 0 8.845 1.36 17.603 4.025 25.994 9.043-.114 17.915-.199 26.675-.255-3.657-7.824-5.697-16.526-5.697-25.739 0-33.534 27.155-60.689 60.689-60.689 7.823 0 15.307 1.474 22.196 4.167 5.641-11.906 14.201-22.195 24.746-29.878 19.444-39.626 18.055-99.125 21.174-152.814z" fill="#a39474"/><path d="m486.997 135.129c-.028 118.545-.51 224.872 0 344.154.057 9.609-3.854 12.501-12.501 12.501h25.003c8.646 0 12.558-2.892 12.501-12.501-.511-119.282-.028-225.609 0-344.154 0-9.808-4.649-16.64-13.182-20.807-9.61-4.677-20.382-7.342-31.777-7.342-4.252 0-8.418.369-12.5 1.106 6.803 1.162 13.266 3.316 19.275 6.236 8.533 4.168 13.181 10.999 13.181 20.807z" fill="#a39474"/><path d="m124.103 20.213c38.382 0 69.506 31.125 69.506 69.505 0 17.66-6.604 33.789-17.461 46.035h-104.119c-10.828-12.246-17.433-28.374-17.433-46.035.001-38.381 31.125-69.505 69.507-69.505z" fill="#95d6a4"/><path d="m124.103 20.213c38.382 0 69.506 31.125 69.506 69.505 0 17.66-6.604 33.789-17.461 46.035h-24.974c10.828-12.246 17.433-28.374 17.433-46.035 0-34.129-24.576-62.504-57.005-68.372 4.053-.736 8.221-1.133 12.501-1.133z" fill="#78c2a4"/><path d="m189.271 92.213c24.067 0 43.541 19.502 43.541 43.54h-87.081c0-24.038 19.502-43.54 43.54-43.54z" fill="#b3e59f"/><path d="m192.418 102.531c9.411 7.994 15.393 19.899 15.393 33.222h25.002c0-22.592-17.206-41.187-39.261-43.342-1.417-.113-2.834-.198-4.28-.198-4.337 0-8.532.652-12.501 1.814 5.839 1.758 11.14 4.677 15.647 8.504z" fill="#95d6a4"/><path d="m72.029 135.753c-10.828-12.246-17.433-28.374-17.433-46.035 0-.709.028-1.418.028-2.126-1.984-.255-4.025-.397-6.066-.397-6.718 0-13.124 1.389-18.936 3.855.312 17.122 6.832 32.74 17.434 44.703z" fill="#5aa687"/></g></g></svg>