<?xml version="1.0" encoding="iso-8859-1"?>
<!-- Generator: Adobe Illustrator 19.0.0, SVG Export Plug-In . SVG Version: 6.00 Build 0)  -->
<svg version="1.1" id="Capa_1" xmlns="http://www.w3.org/2000/svg" xmlns:xlink="http://www.w3.org/1999/xlink" x="0px" y="0px"
	 viewBox="0 0 512 512" style="enable-background:new 0 0 512 512;" xml:space="preserve">
<g>
	<rect x="241" y="177.28" style="fill:#A17852;" width="30" height="46.97"/>
	<path style="fill:#A17852;" d="M424.37,168.37v50.02h-30v-50.02C394.37,92.07,332.3,30,256,30S117.63,92.07,117.63,168.37v55.88
		h-30v-55.88C87.63,75.53,163.16,0,256,0S424.37,75.53,424.37,168.37z"/>
</g>
<path style="fill:#009100;" d="M424.37,264.08V426.5c0,47.15-38.35,85.5-85.49,85.5H173.12c-47.14,0-85.49-38.35-85.49-85.5V264.08
	H424.37z"/>
<g>
	<rect x="256" y="177.28" style="fill:#715539;" width="15" height="46.97"/>
	<path style="fill:#715539;" d="M424.37,168.37v50.02h-30v-50.02C394.37,92.07,332.3,30,256,30V0
		C348.84,0,424.37,75.53,424.37,168.37z"/>
</g>
<path style="fill:#008300;" d="M256,264.08h168.37V426.5c0,47.15-38.35,85.5-85.49,85.5H256V264.08z"/>
<rect x="57" y="209.25" style="fill:#C8AD92;" width="398" height="84.83"/>
<rect x="256" y="209.25" style="fill:#B38A65;" width="199" height="84.83"/>
<rect x="218.38" y="160.17" style="fill:#009100;" width="75.24" height="30"/>
<rect x="256" y="160.17" style="fill:#008300;" width="37.62" height="30"/>
<g>
</g>
<g>
</g>
<g>
</g>
<g>
</g>
<g>
</g>
<g>
</g>
<g>
</g>
<g>
</g>
<g>
</g>
<g>
</g>
<g>
</g>
<g>
</g>
<g>
</g>
<g>
</g>
<g>
</g>
</svg>
