<svg id="Capa_1" enable-background="new 0 0 512 512" height="512" viewBox="0 0 512 512" width="512" xmlns="http://www.w3.org/2000/svg"><g><path d="m301 452 30 30h30v-30z" fill="#ff9f40"/><path d="m331 332-30 30h60v-30z" fill="#ff9f40"/><path d="m391 135c0-74.443-60.557-135-135-135s-135 60.557-135 135c0 57.686 36.46 108.472 90 127.324v249.676h45 45v-30h30v-150h-30v-69.676c53.54-18.852 90-69.638 90-127.324zm-135 75c-41.353 0-75-33.647-75-75s33.647-75 75-75 75 33.647 75 75-33.647 75-75 75z" fill="#ffdf40"/><path d="m301 482h30v-150h-30v-69.676c53.54-18.853 90-69.639 90-127.324 0-74.443-60.557-135-135-135v60c41.353 0 75 33.647 75 75s-33.647 75-75 75v302h45z" fill="#ffbe40"/><path d="m271 392h90v30h-90z" fill="#ff9f40"/></g></svg>