<svg id="Flat" height="512" viewBox="0 0 64 64" width="512" xmlns="http://www.w3.org/2000/svg"><path d="m51 15h-1a12 12 0 0 0 -24 0h-1a10 10 0 0 0 0 20h26a10 10 0 0 0 0-20z" fill="#56a9d0"/><path d="m28 30h26v2h-26z" fill="#4a91b2"/><path d="m45 14h2v2h-2z" fill="#4a91b2"/><path d="m45 10h2v2h-2z" fill="#4a91b2"/><path d="m39 27h-1a12 12 0 0 0 -24 0h-1a10 10 0 0 0 0 20h26a10 10 0 0 0 0-20z" fill="#66bae1"/><g fill="#56a9d0"><path d="m7 50h2v12h-2z"/><path d="m39 50h2v12h-2z"/><path d="m11 50h2v6h-2z"/><path d="m15 50h2v12h-2z"/><path d="m19 56h2v6h-2z"/><path d="m23 50h2v12h-2z"/><path d="m27 50h2v6h-2z"/><path d="m31 50h2v12h-2z"/><path d="m35 56h2v6h-2z"/><path d="m11 58h2v2h-2z"/><path d="m19 52h2v2h-2z"/><path d="m27 58h2v2h-2z"/><path d="m35 52h2v2h-2z"/><path d="m55 38h2v24h-2z"/><path d="m43 50h2v6h-2z"/><path d="m47 50h2v12h-2z"/><path d="m51 42h2v20h-2z"/><path d="m43 58h2v2h-2z"/><path d="m51 38h2v2h-2z"/></g><g fill="#9ecce3"><path d="m12 42h26v2h-26z"/><path d="m40 42h2v2h-2z"/><path d="m17 26h2v2h-2z"/><path d="m17 22h2v2h-2z"/></g></svg>