<svg id="Capa_1" enable-background="new 0 0 511.999 511.999" height="512" viewBox="0 0 511.999 511.999" width="512" xmlns="http://www.w3.org/2000/svg"><g><path d="m255.998 0c-113.111 0-204.805 91.694-204.805 204.805 0 .21 0 .421.001.632.019 6.451.71 14.378 1.953 23.115 3.334 23.452 9.814 46.233 19.118 67.809 11.319 26.248 27.041 50.368 45.975 71.781l120.21 135.951c9.323 10.544 25.773 10.544 35.095 0l120.29-136.042c17.93-20.278 32.995-42.982 44.117-67.659 10.259-22.762 17.353-46.922 20.895-71.84 1.242-8.737 1.933-16.664 1.953-23.115.001-.211.001-.421.001-.632.001-113.111-91.693-204.805-204.803-204.805z" fill="#fd9468"/><path d="m460.806 204.808v.625c-.021 6.455-.717 14.386-1.957 23.116-3.545 24.92-10.636 49.081-20.893 71.839-11.128 24.684-26.19 47.38-44.122 67.658l-120.284 136.044c-9.324 10.543-25.78 10.543-35.105 0l-1.814-2.049c6.968.492 14.12-2.131 19.182-7.849l120.295-136.033c17.931-20.278 32.994-42.984 44.112-67.658 10.267-22.768 17.358-46.929 20.903-71.849 1.24-8.73 1.926-16.661 1.947-23.106v-.635c0-73.304-38.507-137.611-96.4-173.792 67.627 33.443 114.136 103.13 114.136 183.689z" fill="#fe7d43"/><circle cx="255.998" cy="204.988" fill="#f9f3f1" r="152.459"/><path d="m408.456 204.992c0 84.196-68.263 152.459-152.459 152.459-25.985 0-50.454-6.507-71.869-17.973 16.364 6.005 34.049 9.283 52.503 9.283 84.196 0 152.459-68.252 152.459-152.459 0-58.211-32.625-108.798-80.589-134.486 58.334 21.396 99.955 77.424 99.955 143.176z" fill="#efe2dd"/><path d="m228.815 128.553c-11.697-15.328-26.806-26.762-45.361-12.81-10.363 7.793-17.449 19.501-20.785 32.03-7.093 26.637-.64 54.071 13.448 77.26 17.358 28.571 45.425 53.647 75.902 67.372 33.564 15.115 65.167 9.096 90.538-17.575 10.722-11.271 14.869-29.724.099-39.841-12.164-8.332-30.692-21.252-45.039-10.227-9.875 7.589-12.243 19.235-25.898 21.236-23.348 3.422-51.094-31.138-55.722-51.248-1.435-6.237-.139-11.861 3.253-17.183 3.555-5.579 8.209-7.262 12.623-11.284 10.493-9.563 6.432-25.295-3.058-37.73z" fill="#b0e7c9"/><path d="m342.561 274.833c-25.381 26.672-56.981 32.687-90.539 17.573-30.484-13.731-58.549-38.804-75.907-67.371-14.089-23.188-20.544-50.628-13.443-77.259 1.219-4.59 2.941-9.078 5.154-13.29-3.494 23.577 2.992 47.309 15.411 67.75 17.358 28.567 45.423 53.651 75.896 67.371 33.568 15.114 65.168 9.099 90.539-17.573.81-.85 1.588-1.742 2.316-2.674 1.311 8.792-2.798 18.505-9.427 25.473z" fill="#91deb6"/></g></svg>