<svg height="512pt" viewBox="0 0 512 512" width="512pt" xmlns="http://www.w3.org/2000/svg"><path d="m249.175781 445.808594c100.742188 0 182.902344-82.042969 182.902344-182.648438 0-100.601562-82.160156-182.644531-182.902344-182.644531-100.742187 0-182.902343 82.042969-182.902343 182.644531 0 100.605469 82.160156 182.648438 182.902343 182.648438zm0 0" fill="#8ebfe8" fill-rule="evenodd"/><path d="m177.222656 332.195312c-50.8125 17.824219-58.222656-37.261718-93.363281 9.222657 25.050781 52.707031 74.628906 91.496093 134.027344 101.714843 37.671875-35.765624 8.707031-128.289062-40.664063-110.9375zm0 0" fill="#8bc34a" fill-rule="evenodd"/><path d="m390.734375 378.828125s-58.078125-7.429687-36.40625-63.984375c21.671875-56.527344-21.757813-77.902344-68.453125-89.765625-36.40625-9.25-43.078125-61.402344-30.433594-83.425781 17.554688-30.597656 67.894532-42.785156 122.414063-8.308594 33.492187 33.121094 54.222656 79.046875 54.222656 129.816406 0 43.902344-15.5 84.1875-41.34375 115.667969zm0 0" fill="#8bc34a" fill-rule="evenodd"/><path d="m157.578125 200.527344c40.199219-8.164063 46.578125-88.035156-7.554687-90.882813-50.402344 32.539063-83.746094 89.121094-83.746094 153.515625 0 5.582032.234375 11.070313.734375 16.535156 61.839843 6.078126 4.9375-61.8125 90.566406-79.167968zm0 0" fill="#8bc34a" fill-rule="evenodd"/><path d="m232.445312 81.25c32.140626 2.9375 61.867188 14.125 87.039063 31.480469 17.847656 1.261719 37.816406 7.632812 58.367187 20.613281-33.050781-32.652344-78.511718-52.828125-128.675781-52.828125-5.644531 0-11.234375.234375-16.730469.734375zm0 0" fill="#519ad6" fill-rule="evenodd"/><path d="m319.484375 112.730469c47.8125 32.945312 79.128906 88.03125 79.128906 150.429687 0 39.261719-12.410156 75.644532-33.492187 105.417969 2.058594 1.5 4.203125 2.789063 6.320312 3.90625 22.996094 2.964844 29.699219-6.460937 31.613282-10.542969 18.378906-28.480468 29.023437-62.398437 29.023437-98.78125 0-50.769531-20.730469-96.695312-54.222656-129.816406-20.554688-12.980469-40.523438-19.351562-58.371094-20.613281zm0 0" fill="#689f38" fill-rule="evenodd"/><path d="m365.121094 368.578125c-30.109375 42.460937-77.894532 71.53125-132.675782 76.464844 5.5.5 11.085938.761719 16.730469.761719 47.402344 0 90.597657-18 123.089844-47.539063l-1.46875-14.359375c-.292969-4.289062-.085937-8.132812.648437-11.421875-2.121093-1.117187-4.265624-2.40625-6.324218-3.90625zm0 0" fill="#519ad6" fill-rule="evenodd"/><path d="m249.175781 512c-73.902343 0-143.535156-32.464844-191.039062-89.070312-2.726563-3.246094-2.300781-8.082032.941406-10.804688 3.246094-2.722656 8.082031-2.304688 10.808594.941406 44.582031 53.125 109.929687 83.59375 179.289062 83.59375 47.554688 0 93.347657-14.1875 132.421875-41.027344 3.492188-2.398437 8.265625-1.511718 10.664063 1.980469 2.398437 3.492188 1.511719 8.269531-1.980469 10.667969-41.640625 28.601562-90.433594 43.71875-141.105469 43.71875zm213.417969-128.203125c-1.21875 0-2.449219-.289063-3.597656-.902344-3.742188-1.988281-5.160156-6.632812-3.171875-10.371093 17.804687-33.457032 27.214843-71.273438 27.214843-109.363282 0-4.4375-.132812-8.921875-.40625-13.566406-2.371093-1.304688-3.976562-3.828125-3.976562-6.722656 0-4.234375 3.433594-7.671875 7.671875-7.671875.777344 0 1.628906-.058594 2.527344-.171875 2.074219-.265625 4.171875.328125 5.796875 1.648437 1.628906 1.316407 2.648437 3.242188 2.820312 5.328125.609375 7.390625.90625 14.308594.90625 21.15625 0 40.59375-10.03125 80.902344-29.007812 116.566406-1.378906 2.59375-4.035156 4.070313-6.777344 4.070313zm-427.1875-.644531c-2.753906 0-5.417969-1.488282-6.792969-4.09375-18.71875-35.492188-28.613281-75.570313-28.613281-115.898438 0-55.050781 17.628906-107.214844 50.980469-150.851562 32.28125-42.234375 78.0625-73.570313 128.910156-88.230469 4.070313-1.175781 8.320313 1.175781 9.496094 5.246094 1.171875 4.070312-1.175781 8.320312-5.246094 9.496093-99.386719 28.65625-168.800781 120.910157-168.800781 224.339844 0 37.84375 9.28125 75.445313 26.84375 108.742188 1.976562 3.746094.542968 8.386718-3.207032 10.363281-1.140624.601563-2.363281.886719-3.570312.886719zm444.6875-183.144532c-3.28125 0-6.316406-2.121093-7.332031-5.421874-30.292969-98.660157-120.148438-164.949219-223.585938-164.949219-5.253906 0-10.675781.1875-16.113281.566406-4.214844.292969-7.886719-2.894531-8.183594-7.121094-.292968-4.226562 2.894532-7.890625 7.121094-8.183593 5.789062-.402344 11.566406-.605469 17.175781-.605469 54.402344 0 106.085938 17.195312 149.472657 49.730469 41.949218 31.460937 73.480468 76.230468 88.78125 126.0625 1.242187 4.046874-1.035157 8.339843-5.082032 9.582031-.75.230469-1.507812.339843-2.253906.339843zm0 0" fill="#546e7a"/><g fill-rule="evenodd"><path d="m496.386719 456.144531-36.050781-40.523437 7.378906-6.550782c16.734375-16.53125 3.792968-31.859374-12.40625-35.46875l-55.988282-12.511718c-22.261718-5.960938-29.730468 4.464844-28.523437 22.816406l6.054687 59.285156c1.707032 16.503906 15.410157 31.128906 33.816407 16.472656l7.382812-6.546874 36.078125 40.523437c2.675782 2.996094 7.324219 3.289063 10.320313.617187l31.320312-27.777343c3.027344-2.671875 3.292969-7.34375.617188-10.335938zm0 0" fill="#c4cccf"/><path d="m464.628906 422.609375c0 21.875-9.585937 41.519531-24.789062 55l14.289062 16.03125c2.675782 2.996094 7.324219 3.289063 10.320313.617187l31.320312-27.777343c3.027344-2.671875 3.292969-7.34375.617188-10.335938l-31.789063-35.738281c.03125.734375.03125 1.46875.03125 2.203125zm0 0" fill="#90a4ae"/><path d="m74.242188 397.503906c0-14.183594-11.496094-25.664062-25.667969-25.664062-4.824219 0-9.320313 1.320312-13.175781 3.640625-7.496094 4.460937-12.527344 12.65625-12.527344 22.023437 0 14.152344 11.496094 25.632813 25.699218 25.632813 5.792969 0 11.117188-1.90625 15.410157-5.136719 6.234375-4.699219 10.261719-12.128906 10.261719-20.496094zm0 0" fill="#ffd54f"/><path d="m207.039062 51.269531c14.203126 0 25.699219-11.480469 25.699219-25.632812 0-1.058594-.058593-2.085938-.207031-3.085938-1.527344-12.714843-12.347656-22.550781-25.492188-22.550781-14.175781 0-25.671874 11.480469-25.671874 25.636719 0 1.996093.234374 3.933593.648437 5.785156 2.644531 11.390625 12.847656 19.847656 25.023437 19.847656zm0 0" fill="#ffd54f"/><path d="m460.628906 217.207031c0 14.183594 11.496094 25.664063 25.699219 25.664063 1.175781 0 2.351563-.089844 3.5-.234375 12.527344-1.734375 22.171875-12.449219 22.171875-25.429688 0-14.152343-11.496094-25.636719-25.671875-25.636719-2.144531 0-4.234375.265626-6.203125.765626-11.203125 2.757812-19.496094 12.859374-19.496094 24.871093zm0 0" fill="#ffd54f"/><path d="m473.480469 239.433594c3.792969 2.175781 8.171875 3.4375 12.847656 3.4375 1.175781 0 2.351563-.089844 3.5-.234375 12.527344-1.734375 22.171875-12.449219 22.171875-25.429688 0-14.152343-11.496094-25.636719-25.671875-25.636719-2.144531 0-4.234375.265626-6.203125.765626-2.351562.585937-4.585938 1.496093-6.644531 2.671874 7.671875 4.433594 12.847656 12.714844 12.847656 22.199219 0 9.515625-5.175781 17.792969-12.847656 22.226563zm0 0" fill="#e6a235"/><path d="m196.277344 48.921875c3.261718 1.527344 6.910156 2.347656 10.761718 2.347656 1.203126 0 2.382813-.058593 3.527344-.234375 12.527344-1.703125 22.171875-12.421875 22.171875-25.398437 0-14.15625-11.496093-25.636719-25.699219-25.636719-2.117187 0-4.203124.265625-6.203124.734375-1.589844.410156-3.117188.941406-4.558594 1.613281 8.792968 4.082032 14.878906 12.980469 14.878906 23.289063 0 10.304687-6.089844 19.203125-14.878906 23.285156zm0 0" fill="#e6a235"/><path d="m37.78125 420.789062c3.292969 1.496094 6.941406 2.347657 10.792969 2.347657 1.175781 0 2.351562-.085938 3.5-.234375 12.527343-1.703125 22.171875-12.421875 22.171875-25.398438 0-14.183594-11.5-25.664062-25.671875-25.664062-2.148438 0-4.234375.261718-6.207031.761718-1.585938.382813-3.113282.9375-4.585938 1.613282 8.792969 4.054687 14.910156 12.949218 14.910156 23.289062 0 10.304688-6.117187 19.203125-14.910156 23.285156zm0 0" fill="#e6a235"/></g></svg>