<?xml version="1.0" encoding="iso-8859-1"?>
<!-- Generator: Adobe Illustrator 19.0.0, SVG Export Plug-In . SVG Version: 6.00 Build 0)  -->
<svg version="1.1" id="Capa_1" xmlns="http://www.w3.org/2000/svg" xmlns:xlink="http://www.w3.org/1999/xlink" x="0px" y="0px"
	 viewBox="0 0 512.001 512.001" style="enable-background:new 0 0 512.001 512.001;" xml:space="preserve">
<path style="fill:#994C0F;" d="M511.822,494.398c0.601,4.8-0.899,9.601-4.201,12.902c-3.3,3.3-8.1,4.8-12.601,4.201l-66.909-9.601
	l-7.201-35.405l23.102-22.803l23.104-23.104l35.104,6.9L511.822,494.398z"/>
<path style="fill:#713708;" d="M507.621,507.3c-3.3,3.3-8.1,4.8-12.601,4.201l-66.909-9.601l-7.201-35.405l23.102-22.803
	L507.621,507.3z"/>
<path style="fill:#FEC478;" d="M502.221,427.488l-37.205,37.207L428.111,501.9l-81.613-11.702c-3.3-0.3-6.3-1.8-8.7-4.201
	l-37.805-38.107l33.605-30.004v-27.303c0-8.4,6.602-15.002,15.002-15.002h27.305v-27.603c0-8.102,6.9-15.002,15.002-15.002h27.603
	l30.004-33.605l37.805,38.104c2.399,2.401,3.901,5.401,4.5,8.402L502.221,427.488z"/>
<path style="fill:#FEB756;" d="M465.016,464.694l-36.904,37.205l-81.613-11.702c-3.3-0.3-6.3-1.8-8.7-4.201l-37.805-38.107
	l33.605-30.004v-27.303c0-8.4,6.602-15.002,15.002-15.002h27.305L465.016,464.694z"/>
<path style="fill:#FD003A;" d="M193.688,44.857c-3.3,7.801-5.701,13.502-8.7,21.304c-18.603,24.604-34.506,45.906-51.007,67.81
	c-11.702,16.201-24.003,32.404-37.505,50.707c-18.603,3.3-32.704,5.701-51.306,8.7c-11.702-11.402-20.405-20.102-31.805-31.805
	c-17.704-17.404-17.704-45.908,0-63.609L55.67,55.659l42.605-42.606c17.404-17.404,45.908-17.404,63.609,0
	C173.286,24.755,181.989,33.456,193.688,44.857z"/>
<path style="fill:#E50027;" d="M133.98,133.971c-11.702,16.201-24.003,32.404-37.505,50.707c-18.603,3.3-32.704,5.701-51.306,8.7
	c-11.702-11.402-20.405-20.102-31.805-31.805c-17.704-17.404-17.704-45.908,0-63.609L55.67,55.659L133.98,133.971z"/>
<g>
	<path style="fill:#994C0F;" d="M76.059,512.001H15.051c-8.292,0-15.002-6.71-15.002-15.002s6.71-15.002,15.002-15.002h61.009
		c8.292,0,15.002,6.71,15.002,15.002S84.352,512.001,76.059,512.001z"/>
	<path style="fill:#994C0F;" d="M196.077,512.001h-60.009c-8.292,0-15.002-6.71-15.002-15.002s6.71-15.002,15.002-15.002h60.009
		c8.292,0,15.002,6.71,15.002,15.002S204.369,512.001,196.077,512.001z"/>
	<path style="fill:#994C0F;" d="M316.094,512.001h-60.009c-8.292,0-15.002-6.71-15.002-15.002s6.71-15.002,15.002-15.002h60.009
		c8.292,0,15.002,6.71,15.002,15.002S324.386,512.001,316.094,512.001z"/>
</g>
<polygon style="fill:#CAE8F9;" points="235.996,87.463 227.293,138.471 182.888,182.878 138.783,226.985 87.474,235.985 
	45.169,193.38 119.279,119.268 193.688,44.857 "/>
<polygon style="fill:#B7E0F6;" points="119.279,119.268 182.888,182.878 138.783,226.985 87.474,235.985 45.169,193.38 "/>
<path style="fill:#FEA832;" d="M236.08,87.402l-42.439,42.439l8.79,51.218l173.544,173.231l51.218,8.79h6.212
	c8.292,0,15.002-6.71,15.002-15.002v-48.643L236.08,87.402z"/>
<path style="fill:#FEDB41;" d="M427.21,362.979h-21.302v21.302c0,8.102-0.3,14.103-4.201,17.102
	c-3.001,3.001-8.102,4.201-17.102,4.201h-21.003v21.003L130.079,193.38c12.003-12.003,22.203-22.203,31.805-31.505
	c10.503-10.802,20.703-21.003,31.805-32.105L427.21,362.979z"/>
<path style="fill:#FE9923;" d="M354.747,375.505L181.21,202.281l-51.218-8.79l-42.43,42.43l212.32,212.017h48.653
	c8.292,0,15.002-6.71,15.002-15.002v-6.212L354.747,375.505z"/>
<path style="fill:#FCBF29;" d="M401.707,401.384c-3.001,3.001-8.102,4.201-17.102,4.201h-21.003v21.003L130.079,193.38
	c12.003-12.003,22.203-22.203,31.805-31.505L401.707,401.384z"/>
<g>
</g>
<g>
</g>
<g>
</g>
<g>
</g>
<g>
</g>
<g>
</g>
<g>
</g>
<g>
</g>
<g>
</g>
<g>
</g>
<g>
</g>
<g>
</g>
<g>
</g>
<g>
</g>
<g>
</g>
</svg>
