<svg id="Capa_1" enable-background="new 0 0 510 510" height="512" viewBox="0 0 510 510" width="512" xmlns="http://www.w3.org/2000/svg"><g><path d="m182.309 420c3.494 20.964 6.506 39.036 10 60l31.354 10 31.354-10 10-30-10-30-36.354-10z" fill="#9d6b5d"/><path d="m327.723 420-36.354-10-36.354 10v60l31.354 10 31.354-10c3.494-20.964 6.506-39.036 10-60z" fill="#895050"/><path d="m240.016 238.072v151.928l7.5 10 7.5-10 10-90-10-60.008-6.5-9.117z" fill="#bee75e"/><path d="m270.016 238.286-8.334-7.786-6.666 9.5v150l7.5 10 7.5-10c0-5.085 0-144.734 0-151.714z" fill="#00cb75"/><path d="m212.594 17.584c-33.646.063-59.933 27.331-59.994 59.994-11.161 11.203-17.585 26.541-17.585 42.422 0 15.88 6.422 31.218 17.585 42.422.061 32.778 26.458 59.932 59.994 59.994 11.203 11.161 26.541 17.584 42.422 17.584l10-120-10-120c-15.878 0-31.216 6.421-42.422 17.584z" fill="#fa235e"/><path d="m357.432 162.421c23.713-23.804 23.091-61.665 0-84.843-.061-32.784-26.458-59.933-59.994-59.994-11.204-11.161-26.542-17.584-42.422-17.584v240c15.877 0 31.217-6.421 42.422-17.584 33.625-.064 59.931-27.305 59.994-59.995z" fill="#c91341"/><path d="m210.016 120c0 24.812 20.187 45 45 45l10-45-10-45c-24.813 0-45 20.187-45 45z" fill="#fad42b"/><path d="m300.016 120c0-24.812-20.186-45-45-45v90c24.812 0 45-20.186 45-45z" fill="#fbc000"/><path d="m188.802 336.213c11.716 11.716 30.711 11.716 42.427 0 11.715-11.715 11.715-30.71 0-42.426-11.716-11.716-66.213-23.787-66.213-23.787s12.071 54.498 23.786 66.213z" fill="#00cb75"/><path d="m300.016 345c7.678 0 15.355-2.929 21.213-8.787 11.701-11.7 23.756-66.112 23.787-66.213-.101.031-54.512 12.086-66.213 23.787-5.858 5.857-8.787 13.535-8.787 21.213 0 16.558 13.416 30 30 30z" fill="#00a78e"/><path d="m192.309 480c1.749 10.492 3.251 19.508 5 30h57.707l10-15-10-15c-20.912 0-41.81 0-62.707 0z" fill="#895050"/><path d="m317.723 480c-20.912 0-41.81 0-62.707 0v30h57.707c1.748-10.492 3.251-19.508 5-30z" fill="#5a344b"/><path d="m150.016 390v30h105l10-15-10-15c-28.278 0-88.527 0-105 0z" fill="#895050"/><path d="m360.016 390c-28.278 0-88.527 0-105 0v30h105c0-10.492 0-19.508 0-30z" fill="#5a344b"/></g></svg>