<svg height="512" viewBox="0 0 128 128" width="512" xmlns="http://www.w3.org/2000/svg"><g><path d="m48.087 17.145c3.261 5.1.97 12.387.97 12.387s-7.578-.976-10.839-6.073-.97-12.387-.97-12.387 7.578.976 10.839 6.073z" fill="#bae543"/><path d="m56.2 53.376-11.517-.131c.66-15.6 4.37-32.054 15.492-46.745l4.783 3.621c-9.1 12.022-7.983 24.963-8.758 43.255z" fill="#663325"/><path d="m98.479 72.51c0 21.491-15.521 38.909-34.662 38.909-5.27 0-7.512-.965-11.328-2.14-3.815 1.175-6.068 2.14-11.327 2.14-19.142 0-34.662-17.419-34.662-38.909s15.52-38.919 34.662-38.919a31.171 31.171 0 0 1 11.327 2.134 31.176 31.176 0 0 1 11.328-2.134c19.141 0 34.662 17.428 34.662 38.919z" fill="#ffd203"/><path d="m121.5 85.529c0 19.869-13.977 35.971-31.215 35.971-4.747 0-6.766-.892-10.2-1.978-3.436 1.086-5.464 1.978-10.2 1.978-17.238 0-31.215-16.1-31.215-35.971s13.977-35.98 31.215-35.98a27.409 27.409 0 0 1 10.2 1.973 27.418 27.418 0 0 1 10.2-1.973c17.238 0 31.215 16.112 31.215 35.98z" fill="#f09418"/><path d="m106.545 110.169a1.751 1.751 0 0 1 -1.241-2.984 27.238 27.238 0 0 0 4.093-5.312 1.75 1.75 0 0 1 3.01 1.787 30.735 30.735 0 0 1 -4.621 5.993 1.747 1.747 0 0 1 -1.241.516z" fill="#ffd203"/><ellipse cx="78.983" cy="85.524" fill="#663325" rx="10.684" ry="19.858"/></g></svg>