<svg id="Capa_1" enable-background="new 0 0 497 497" height="512" viewBox="0 0 497 497" width="512" xmlns="http://www.w3.org/2000/svg"><g><path d="m383.05 497h-279.1c-13.807 0-25-11.193-25-25v-94.847l55.463-342.153c0-13.807 11.193-25 25-25h223.637c13.807 0 25 11.193 25 25v437c0 13.807-11.193 25-25 25z" fill="#245e7c"/><path d="m388.05 25v447c0 13.807-11.193 25-25 25h30c13.807 0 25-11.193 25-25v-94.847s-7.444-250.835-17.679-343.382c-2.316-20.936-12.321-22.578-12.321-8.771z" fill="#1a4c65"/><path d="m383.05 0h-279.1c-13.807 0-25 11.193-25 25v352.153h309.1l20-352.153c0-13.807-11.193-25-25-25z" fill="#f9f6f9"/><path d="m393.05 0h-30c13.807 0 25 11.193 25 25v352.153h30v-352.153c0-13.807-11.193-25-25-25z" fill="#dedbec"/><path d="m273.219 407.153h-49.439c-16.191 0-29.317 13.126-29.317 29.317 0 16.191 13.126 29.317 29.317 29.317h49.439c16.191 0 29.317-13.126 29.317-29.317.001-16.192-13.125-29.317-29.317-29.317z" fill="#f9f6f9"/><path d="m462 88.594h-437c-13.807 0-25 11.193-25 25v131.471c0 13.807 11.193 25 25 25h173.162c5.359 0 10.311 2.859 12.99 7.5l33.165 57.443c1.924 3.333 6.736 3.333 8.66 0l33.165-57.443c2.68-4.641 7.631-7.5 12.99-7.5h162.868c13.807 0 25-11.193 25-25v-131.471c0-13.807-11.193-25-25-25z" fill="#95c7f8"/><g><path d="m472 88.594h-30c13.807 0 25 11.193 25 25v131.471c0 13.807-11.193 25-25 25h30c13.807 0 25-11.193 25-25v-131.471c0-13.807-11.193-25-25-25z" fill="#75b5f8"/></g><g fill="#ffe187"><path d="m92.036 215.966-24.731 13.002c-3.668 1.928-7.955-1.186-7.255-5.271l4.723-27.539c.278-1.622-.26-3.277-1.438-4.426l-20.008-19.502c-2.968-2.893-1.33-7.932 2.771-8.528l27.65-4.018c1.629-.237 3.036-1.26 3.765-2.735l12.366-25.055c1.834-3.716 7.133-3.716 8.967 0l12.366 25.055c.728 1.476 2.136 2.499 3.765 2.735l27.65 4.018c4.101.596 5.739 5.636 2.771 8.528l-20.008 19.503c-1.179 1.149-1.716 2.804-1.438 4.426l4.723 27.539c.701 4.084-3.587 7.199-7.255 5.271l-24.731-13.002c-1.457-.767-3.197-.767-4.653-.001z"/><path d="m246.173 215.966-24.731 13.002c-3.668 1.928-7.955-1.186-7.255-5.271l4.723-27.539c.278-1.622-.26-3.277-1.438-4.426l-20.008-19.503c-2.968-2.893-1.33-7.932 2.771-8.528l27.65-4.018c1.629-.237 3.036-1.26 3.765-2.735l12.365-25.055c1.834-3.716 7.133-3.716 8.967 0l12.366 25.055c.728 1.476 2.136 2.499 3.765 2.735l27.65 4.018c4.101.596 5.739 5.636 2.771 8.528l-20.008 19.503c-1.178 1.149-1.716 2.804-1.438 4.426l4.723 27.539c.701 4.084-3.587 7.199-7.255 5.271l-24.731-13.002c-1.455-.766-3.195-.766-4.652 0z"/><path d="m400.311 215.966-24.731 13.002c-3.668 1.928-7.955-1.186-7.255-5.271l4.723-27.539c.278-1.622-.259-3.277-1.438-4.426l-20.008-19.503c-2.968-2.893-1.33-7.932 2.771-8.528l27.65-4.018c1.629-.237 3.036-1.26 3.765-2.735l12.365-25.055c1.834-3.716 7.133-3.716 8.967 0l12.366 25.055c.728 1.476 2.136 2.499 3.765 2.735l27.65 4.018c4.101.596 5.739 5.636 2.771 8.528l-20.008 19.503c-1.178 1.149-1.716 2.804-1.438 4.426l4.723 27.539c.701 4.084-3.587 7.199-7.255 5.271l-24.731-13.002c-1.455-.766-3.195-.766-4.652 0z"/></g><g><path d="m302.537 56.45h-108.074c-4.143 0-7.5-3.358-7.5-7.5s3.357-7.5 7.5-7.5h108.074c4.143 0 7.5 3.358 7.5 7.5s-3.357 7.5-7.5 7.5z" fill="#245e7c"/></g></g></svg>