<?xml version="1.0" encoding="iso-8859-1"?>
<!-- Generator: Adobe Illustrator 19.0.0, SVG Export Plug-In . SVG Version: 6.00 Build 0)  -->
<svg version="1.1" id="Layer_1" xmlns="http://www.w3.org/2000/svg" xmlns:xlink="http://www.w3.org/1999/xlink" x="0px" y="0px"
	 viewBox="0 0 512 512" style="enable-background:new 0 0 512 512;" xml:space="preserve">
<path style="fill:#E1E1E3;" d="M256.001,85.053c-4.956,0-8.974-4.018-8.974-8.974V40.293c0-4.956,4.018-8.974,8.974-8.974
	s8.974,4.018,8.974,8.974V76.08C264.975,81.037,260.957,85.053,256.001,85.053z"/>
<path style="fill:#D9D9DB;" d="M439.464,353.729H72.537c-23.455,0-42.469-19.014-42.469-42.469l0,0h451.865l0,0
	C481.933,334.715,462.919,353.729,439.464,353.729z"/>
<path style="fill:#F9DE8F;" d="M416.062,152.597H95.938c-17.826,0-32.276,14.45-32.276,32.276V311.26h384.676V184.873
	C448.338,167.047,433.888,152.597,416.062,152.597z"/>
<path style="fill:#F7CF6D;" d="M416.062,152.597h-44.869c17.826,0,32.276,14.45,32.276,32.276V311.26h44.869V184.873
	C448.338,167.047,433.888,152.597,416.062,152.597z"/>
<path style="fill:#F09EA0;" d="M416.079,152.597H95.955c-17.826,0-32.276,14.45-32.276,32.276v50.632
	c21.416-0.506,21.087-27.301,41.496-27.416c20.48-0.114,28.148,31.856,49.112,31.916c21.097,0.06,29.19-32.276,51.09-32.463
	c21.367-0.183,29.368,30.46,51.433,30.439c21.868-0.019,30.919-30.127,51.107-29.537c19.782,0.579,24.653,29.897,44.443,30.478
	c20.326,0.597,30.107-29.907,51.107-29.537c20.659,0.364,24.763,31.553,44.888,31.861v-56.374
	C448.355,167.047,433.905,152.597,416.079,152.597z"/>
<path style="fill:#E1E1E3;" d="M57.587,311.26h-27.52c0,23.455,19.014,42.469,42.469,42.469h27.52
	C76.601,353.729,57.587,334.715,57.587,311.26z"/>
<path style="fill:#C8C6CD;" d="M437.064,311.26c0,23.455-19.014,42.469-42.469,42.469h44.869c23.455,0,42.469-19.014,42.469-42.469
	H437.064z"/>
<path style="fill:#EF8990;" d="M416.079,152.597H371.21c17.826,0,32.276,14.45,32.276,32.276v24.514
	c20.642,0.383,24.75,31.552,44.869,31.86v-56.374C448.355,167.047,433.905,152.597,416.079,152.597z"/>
<path style="fill:#D9D9DB;" d="M276.904,152.597h-41.807V64.813c0-2.421,1.962-4.383,4.383-4.383h33.041
	c2.421,0,4.383,1.962,4.383,4.383v87.784H276.904z"/>
<path style="fill:#EDA156;" d="M273.538,26.398c0,9.686-7.852,17.537-17.537,17.537s-17.537-7.852-17.537-17.537
	c0-6.957,9.046-18.729,14.144-24.812c1.772-2.114,5.013-2.114,6.787,0C264.491,7.669,273.538,19.441,273.538,26.398z"/>
<rect x="237.664" y="353.726" style="fill:#C8C6CD;" width="36.679" height="70.008"/>
<path style="fill:#D9D9DB;" d="M337.489,512H174.512v-22.894c0-36.1,29.264-65.364,65.364-65.364h32.248
	c36.1,0,65.364,29.264,65.364,65.364V512z"/>
<g>
	<path style="fill:#E1E1E3;" d="M259.619,423.742h-19.743c-36.1,0-65.364,29.264-65.364,65.364V512h19.743v-22.894
		C194.255,453.006,223.519,423.742,259.619,423.742z"/>
	<path style="fill:#E1E1E3;" d="M259.769,423.742h-11.679c-21.357,0-38.669,29.264-38.669,65.364V512H221.1v-22.894
		C221.1,453.006,238.412,423.742,259.769,423.742z"/>
</g>
<path style="fill:#C8C6CD;" d="M272.125,423.742H246.6c36.1,0,65.364,29.264,65.364,65.364V512h25.525v-22.894
	C337.489,453.006,308.224,423.742,272.125,423.742z"/>
<g>
</g>
<g>
</g>
<g>
</g>
<g>
</g>
<g>
</g>
<g>
</g>
<g>
</g>
<g>
</g>
<g>
</g>
<g>
</g>
<g>
</g>
<g>
</g>
<g>
</g>
<g>
</g>
<g>
</g>
</svg>
