<svg id="Capa_1" enable-background="new 0 0 512 512" height="512" viewBox="0 0 512 512" width="512" xmlns="http://www.w3.org/2000/svg"><g><g><g><path d="m118.98 460.042 32.02 51.958 7.5-33.235-7.5-18.723-14.004-5.229z" fill="#ff5c5c"/><path d="m151 460.042v51.958l32.02-51.958-18.687-5.229z" fill="#c63d4f"/></g><g><path d="m76 121.443v268.603l42.98 7.189 32.02-7.189 46.992-143.802-46.992-124.801-41.294-4.796z" fill="#ffdc75"/><path d="m226 121.443-31.412-4.796-43.588 4.796v268.603l37.5 7.189 37.5-7.189z" fill="#ffc649"/></g><g><path d="m76 75.022v16.421l37.5 5.471 37.5-5.471 10.941-40.208-10.941-51.235c-41.355 0-75 33.655-75 75.022z" fill="#ff5c5c"/><path d="m226 75.022c0-41.367-33.645-75.022-75-75.022v91.443l37.5 5.471 37.5-5.471z" fill="#c63d4f"/></g><g><path d="m136 121.443v268.603l7.823 2.483 7.177-2.483 13.333-134.302-13.333-134.301z" fill="#ffc649"/><path d="m166 121.443h-15v268.603l7.5 2.483 7.5-2.483z" fill="#ffa951"/></g><g><path d="m76 390.046 42.98 69.996h32.02l15-34.263-15-35.733z" fill="#f0e6e6"/><path d="m151 390.046v69.996h32.02l42.98-69.996z" fill="#d2cbd7"/></g><g><path d="m76 91.443v30h75l4.353-15-4.353-15z" fill="#f0e6e6"/><path d="m151 91.443h75v30h-75z" fill="#d2cbd7"/></g></g><g><g><path d="m328.98 460.042 32.02 51.958 7.5-33.235-7.5-18.723-14.004-5.229z" fill="#8e89fa"/><path d="m361 460.042v51.958l32.02-51.958-18.686-5.229z" fill="#716dd4"/></g><g><path d="m286 121.443v268.603l42.98 7.189 32.02-7.189 46.992-143.802-46.992-124.801-41.294-4.796z" fill="#ffdc75"/><path d="m436 121.443-31.412-4.796-43.588 4.796v268.603l37.5 7.189 37.5-7.189z" fill="#ffc649"/></g><g><path d="m286 75.022v16.421l37.5 5.471 37.5-5.471 10.941-40.208-10.941-51.235c-41.355 0-75 33.655-75 75.022z" fill="#8e89fa"/><path d="m436 75.022c0-41.367-33.645-75.022-75-75.022v91.443l37.5 5.471 37.5-5.471z" fill="#716dd4"/></g><g><path d="m346 121.443v268.603l7.824 2.483 7.176-2.483 13.334-134.302-13.334-134.301z" fill="#ffc649"/><path d="m376 121.443h-15v268.603l7.5 2.483 7.5-2.483z" fill="#ffa951"/></g><g><path d="m286 390.046 42.98 69.996h32.02l15-34.263-15-35.733z" fill="#f0e6e6"/><path d="m361 390.046v69.996h32.02l42.98-69.996z" fill="#d2cbd7"/></g><g><path d="m286 91.443v30h75l4.353-15-4.353-15z" fill="#f0e6e6"/><path d="m361 91.443h75v30h-75z" fill="#d2cbd7"/></g></g></g></svg>