<svg id="Capa_1" enable-background="new 0 0 497 497" height="512" viewBox="0 0 497 497" width="512" xmlns="http://www.w3.org/2000/svg"><g id="_x3C_Group_x3E__12_"><path d="m454.737 492h-174.488c-8.284 0-15-6.716-15-15v-457c0-5.523 4.477-10 10-10l5-10h189.488c5.523 0 10 4.477 10 10v80.516l-10 108.644 10 175.915v96.925l-10 5c0 8.284-6.716 15-15 15z" fill="#edf6ff"/><path d="m327.005 472c-4.365 0-6.656-5.221-3.663-8.398 32.258-34.233 52.036-80.352 52.036-131.102 0-70.583-38.24-132.225-95.128-165.364v-167.136h-15c-5.523 0-10 4.477-10 10v80.516l10 64.403-10 43.667v267.829 15.585c0 8.284 6.716 15 15 15h11.467 183.021c8.284 0 15-6.716 15-15v-10z" fill="#ddebfd"/><path d="m479.736 90.516h-199.487l-12 3v224.613c0 28.419-3.43 107.535 54.539 107.535l101.983-.065c23.111-.015 42.886-4.283 51.012-24.487 2.55-6.339 3.953-13.262 3.953-20.513z" fill="#ffd064"/><path d="m475.825 400.966c-8.835 6.066-19.527 9.625-31.053 9.632l-71.421.065c-7.022 0-11.812-7.03-9.326-13.597 7.345-19.401 11.901-40.163 11.901-61.748 0-76.007-35.288-131.437-90.735-164.117-3.055-1.801-4.942-5.071-4.942-8.618v-72.067h-25v65.999 45.055 116.558c0 28.419 3.721 56.716 11.069 84.169v.001c4.129 15.428 15.981 27.169 30.725 31.523.004.001.008.002.011.003 4.786 1.632 12.138 1.838 12.734 1.838h35.299 80.11c.026-.026.049-.049.075-.075 22.948-.218 42.52-14.49 50.553-34.621z" fill="#ffc250"/><path d="m126.134 191.237c-7.844-14.398-20.646-27.601-34.66-39.005v-.002c-18.574-15.113-39.278-27.065-53.394-34.438-1.522-.795-10.963 14.218-10.963 14.218s-3.788 73.738 15.574 109.277c25.771 47.301 45.951 53.559 71.724 39.518 16.479-8.978 14.286-12.898 3.826-26.92.515.135 1.027.277 1.549.4 5.998 1.419 11.951 1.954 17.73 1.435 5.932-15.602 3.717-36.762-11.386-64.483z" fill="#daf1a1"/><path d="m134.415 260.805c-25.773 14.042-55.842 8.583-81.613-38.717-16.329-29.971-16.667-75.185-14.723-104.294-1.519-.793-2.97-1.54-4.326-2.225-6.238-3.155-13.711.917-14.442 7.869-2.75 26.137-5.871 83.112 13.491 118.651 25.771 47.301 55.84 52.759 81.613 38.717 9.181-5.002 16.563-11.816 21.118-20.639-.373.211-.739.431-1.118.638z" fill="#c9eb74"/><path d="m213.32 195.435c-12.4 52.419-44.757 45.852-49.097 45.852-29.35 0-53.591-23.837-41.191-76.255 9.317-39.384 37.447-71.915 56-91.202l.955-.929c5.196-3.714 12.699-1.622 15.092 4.521 9.537 24.489 27.558 78.629 18.241 118.013z" fill="#daf1a1"/><path d="m174.79 224.285c-28.562-6.756-47.3-30.898-34.9-83.316 5.73-24.224 23.208-48.797 40.351-68.232-.402.269-.794.562-1.168.899-19.499 17.62-59.867 57.948-69.183 97.333-12.4 52.419 6.339 76.56 34.9 83.316 22.614 5.349 44.603-1.809 58.936-31.037-9.123 3.319-18.968 3.395-28.936 1.037z" fill="#c9eb74"/><circle cx="184.122" cy="334.5" fill="#ffe07d" r="142.234"/><path d="m184.122 172c-89.746 0-162.5 72.754-162.5 162.5s72.754 162.5 162.5 162.5 162.5-72.754 162.5-162.5-72.753-162.5-162.5-162.5zm0 291.317c-71.144 0-128.817-57.673-128.817-128.817s57.673-128.817 128.817-128.817 128.817 57.674 128.817 128.817-57.673 128.817-128.817 128.817z" fill="#ffd064"/><g><path d="m204.114 488c-98.578 0-173.492-74.914-173.492-173.492 0-13.707 1.55-32.052 4.475-44.872-8.661 19.871-13.475 41.804-13.475 64.864 0 89.746 72.754 162.5 162.5 162.5 23.061 0 44.994-4.814 64.864-13.475-12.82 2.925-31.164 4.475-44.872 4.475z" fill="#ffc250"/></g><g fill="#ffd064"><path d="m168.705 360.284-21.138 36.613c-6.633 11.489 1.658 25.851 14.925 25.851h42.277c13.267 0 21.558-14.362 14.925-25.851l-21.138-36.613c-6.634-11.49-23.217-11.49-29.851 0z"/><path d="m199.05 309.107 21.116-36.575c6.633-11.489-1.658-25.851-14.925-25.851h-42.233c-13.267 0-21.558 14.361-14.925 25.851l21.116 36.575c6.634 11.489 23.218 11.489 29.851 0z"/><path d="m154.516 334.266-42.274-.439c-13.266-.138-21.706 14.137-15.193 25.694l20.757 36.83c6.514 11.558 23.096 11.73 29.848.31l21.518-36.391c6.752-11.419-1.39-25.866-14.656-26.004z"/><path d="m213.408 334.797 42.23.439c13.266.138 21.706-14.137 15.193-25.694l-20.735-36.792c-6.514-11.558-23.096-11.73-29.848-.31l-21.495 36.353c-6.753 11.42 1.389 25.867 14.655 26.004z"/><path d="m169.58 308.938-20.948-36.722c-6.574-11.523-23.157-11.609-29.849-.155l-21.328 36.503c-6.693 11.455 1.524 25.859 14.791 25.928l42.276.219c13.266.068 21.631-14.25 15.058-25.773z"/><path d="m198.706 360.533 20.927 36.683c6.574 11.523 23.157 11.609 29.849.155l21.305-36.465c6.693-11.455-1.524-25.859-14.791-25.928l-42.232-.219c-13.266-.068-21.632 14.251-15.058 25.774z"/></g><path d="m220.768 404.747h-47.539c-7.025 0-11.86-7.053-9.327-13.606l15.007-38.819c-4.077 1.143-7.797 3.792-10.204 7.961l-21.138 36.613c-6.633 11.489 1.658 25.851 14.925 25.851h42.277c10.351 0 17.672-8.743 17.24-18.043-.409.028-.822.043-1.241.043z" fill="#ffc250"/><path d="m170.607 316.786-47.539-.247c-7.025-.037-11.824-7.115-9.256-13.654l15.209-38.74c-4.083 1.122-7.816 3.751-10.245 7.908l-21.329 36.502c-6.693 11.455 1.524 25.859 14.79 25.928l42.276.22c10.351.054 17.718-8.651 17.334-17.953-.408.025-.822.038-1.24.036z" fill="#ffc250"/><path d="m189.2 309.107-21.116-36.575c-9.818-16.436 1.658-25.851 14.925-25.851h-20c-13.267 0-21.558 14.362-14.925 25.851l21.116 36.575c5.328 9.228 17.07 11.037 24.925 5.442-1.925-1.372-3.619-3.181-4.925-5.442z" fill="#ffc250"/><path d="m273.056 317.22-45.911-.556c-7.025-.085-11.774-7.196-9.162-13.718l15.581-38.895c-5.221.452-10.27 3.236-13.317 8.389l-21.495 36.353c-6.752 11.42 1.39 25.867 14.655 26.004l42.23.439c10.408.108 17.842-8.654 17.419-18.016z" fill="#ffc250"/><path d="m239.633 397.217-20.927-36.683c-9.291-15.586 1.042-24.49 13.223-25.679l-18.165-.094c-13.266-.069-21.632 14.25-15.059 25.773l20.927 36.683c5.297 9.284 17.088 11.138 24.971 5.519-1.947-1.387-3.66-3.222-4.97-5.519z" fill="#ffc250"/><path d="m134.806 387.351-20.757-36.83c-3.138-5.568-2.798-11.763-.127-16.677l-1.68-.017c-13.266-.138-21.706 14.137-15.193 25.694l20.757 36.83c6.514 11.557 23.096 11.73 29.848.31l.377-.638c-5.242-.537-10.27-3.428-13.225-8.672z" fill="#ffc250"/></g></svg>