<svg id="Capa_1" enable-background="new 0 0 512 512" height="512" viewBox="0 0 512 512" width="512" xmlns="http://www.w3.org/2000/svg"><g><path d="m470.557 139.891v312.798c0 32.753-26.548 59.311-59.311 59.311h-310.49c-32.763 0-59.311-26.559-59.311-59.311v-312.798z" fill="#f9f6f9"/><path d="m470.557 139.891v56.261c-3.937 1.175-8.111 1.804-12.429 1.804h-404.254c-4.318 0-8.492-.629-12.429-1.804v-56.261z" fill="#dddaec"/><path d="m128.187 511.997h-27.435c-32.763 0-59.311-26.559-59.311-59.311v-312.797h27.435v312.798c0 32.752 26.558 59.31 59.311 59.31z" fill="#dddaec"/><path d="m458.124 173.434h-404.248c-24.016 0-43.486-19.469-43.486-43.486v-39.043c0-24.016 19.469-43.486 43.486-43.486h404.249c24.016 0 43.486 19.469 43.486 43.486v39.043c-.001 24.017-19.47 43.486-43.487 43.486z" fill="#9dc6fb"/><path d="m102.907 173.436h-49.026c-24.023 0-43.491-19.468-43.491-43.491v-39.04c0-24.013 19.468-43.491 43.491-43.491h49.026c-24.013 0-43.481 19.478-43.481 43.491v39.039c0 24.024 19.468 43.492 43.481 43.492z" fill="#80b4fb"/><g><g><path d="m83.301 0c-12.225 0-22.136 9.911-22.136 22.137v66.002c0 12.226 9.911 22.137 22.137 22.137 12.226 0 22.137-9.911 22.137-22.137v-66.002c-.001-12.226-9.912-22.137-22.138-22.137z" fill="#ffe07d"/><path d="m94.366 107.316c-3.257 1.883-7.035 2.969-11.067 2.969-12.23 0-22.134-9.915-22.134-22.145v-66.003c0-12.219 9.904-22.134 22.134-22.134 4.032 0 7.81 1.086 11.067 2.969-6.614 3.822-11.067 10.978-11.067 19.165v66.003c0 8.197 4.453 15.354 11.067 19.176z" fill="#f1ce64"/></g><g><path d="m169.651 0c-12.226 0-22.137 9.911-22.137 22.137v66.002c0 12.226 9.911 22.137 22.137 22.137 12.226 0 22.137-9.911 22.137-22.137v-66.002c-.001-12.226-9.912-22.137-22.137-22.137z" fill="#ffe07d"/><path d="m180.715 107.316c-3.257 1.883-7.035 2.969-11.067 2.969-12.23 0-22.134-9.915-22.134-22.145v-66.003c0-12.219 9.904-22.134 22.134-22.134 4.032 0 7.81 1.086 11.067 2.969-6.614 3.822-11.067 10.979-11.067 19.165v66.003c0 8.197 4.454 15.354 11.067 19.176z" fill="#f1ce64"/></g><g><path d="m256 0c-12.226 0-22.137 9.911-22.137 22.137v66.002c0 12.226 9.911 22.137 22.137 22.137 12.226 0 22.137-9.911 22.137-22.137v-66.002c0-12.226-9.911-22.137-22.137-22.137z" fill="#ffe07d"/><path d="m267.064 107.316c-3.257 1.883-7.035 2.969-11.067 2.969-12.23 0-22.134-9.915-22.134-22.145v-66.003c0-12.219 9.904-22.134 22.134-22.134 4.032 0 7.81 1.086 11.067 2.969-6.614 3.822-11.067 10.979-11.067 19.165v66.003c0 8.197 4.454 15.354 11.067 19.176z" fill="#f1ce64"/></g><g><path d="m342.349 0c-12.226 0-22.137 9.911-22.137 22.137v66.002c0 12.226 9.911 22.137 22.137 22.137 12.226 0 22.137-9.911 22.137-22.137v-66.002c0-12.226-9.911-22.137-22.137-22.137z" fill="#ffe07d"/><path d="m353.414 107.316c-3.257 1.883-7.035 2.969-11.067 2.969-12.23 0-22.134-9.915-22.134-22.145v-66.003c0-12.219 9.904-22.134 22.134-22.134 4.032 0 7.81 1.086 11.067 2.969-6.614 3.822-11.067 10.979-11.067 19.165v66.003c0 8.197 4.453 15.354 11.067 19.176z" fill="#f1ce64"/></g><g><path d="m428.699 0c-12.226 0-22.137 9.911-22.137 22.137v66.002c0 12.226 9.911 22.137 22.137 22.137 12.226 0 22.137-9.911 22.137-22.137v-66.002c-.001-12.226-9.912-22.137-22.137-22.137z" fill="#ffe07d"/><path d="m439.763 107.316c-3.257 1.883-7.035 2.969-11.067 2.969-12.23 0-22.134-9.915-22.134-22.145v-66.003c0-12.219 9.904-22.134 22.134-22.134 4.032 0 7.81 1.086 11.067 2.969-6.614 3.822-11.067 10.979-11.067 19.165v66.003c0 8.197 4.453 15.354 11.067 19.176z" fill="#f1ce64"/></g></g><g><path d="m250.202 426.766c-9.973 0-19.447-4.602-25.612-12.553l-54.195-69.906c-10.967-14.147-8.39-34.506 5.757-45.474 14.148-10.968 34.507-8.39 45.474 5.757l24.329 31.382 47.476-84.065c8.803-15.586 28.572-21.086 44.161-12.283 15.586 8.803 21.085 28.574 12.283 44.16l-71.447 126.509c-5.335 9.449-15.046 15.6-25.868 16.388-.788.056-1.575.085-2.358.085z" fill="#a2e19f"/><g fill="#97cf92"><path d="m349.049 250.524c-.454-.303-.929-.583-1.404-.854-15.59-8.805-35.361-3.306-44.166 12.284l-47.472 84.065-10.048-10.048 47.472-84.065c8.805-15.59 28.576-21.089 44.166-12.284 4.84 2.734 8.697 6.515 11.452 10.902z"/><path d="m273.432 416.951c-5.456 5.629-12.857 9.151-20.873 9.734-.789.054-1.577.086-2.355.086-9.983 0-19.447-4.602-25.616-12.554l-54.192-69.912c-10.966-14.142-8.395-34.497 5.759-45.473 4.181-3.252 8.924-5.305 13.797-6.223-11.106 11.387-12.403 29.516-2.377 42.448l54.192 69.912c6.169 7.952 15.644 12.554 25.616 12.554 2.011-.004 4.083-.182 6.049-.572z"/></g></g></g></svg>