<svg height="512pt" viewBox="-56 0 512 512" width="512pt" xmlns="http://www.w3.org/2000/svg"><path d="m352.402344 64.265625h-176.734375c-3.980469 0-7.792969 1.582031-10.605469 4.394531l-96.402344 96.402344c-2.8125 2.8125-4.394531 6.625-4.394531 10.605469v289.199219c0 25.988281 21.144531 47.132812 47.132813 47.132812h241c25.992187 0 47.132812-21.144531 47.132812-47.132812v-353.46875c.003906-25.988282-21.140625-47.132813-47.128906-47.132813zm0 0" fill="#3ab4fb"/><path d="m399.535156 111.398438v353.472656c0 25.988281-21.148437 47.128906-47.136718 47.128906h-152.632813v-447.730469h152.632813c25.988281 0 47.136718 21.140625 47.136718 47.128907zm0 0" fill="#1d9cfd"/><path d="m288.132812 0h-176.730468c-3.980469 0-7.792969 1.582031-10.605469 4.394531l-96.402344 96.398438c-2.8125 2.8125-4.394531 6.628906-4.394531 10.605469v289.203124c0 25.988282 21.144531 47.132813 47.132812 47.132813h241c25.988282 0 47.132813-21.144531 47.132813-47.132813v-353.46875c0-25.988281-21.144531-47.132812-47.132813-47.132812zm0 0" fill="#eff6fe"/><g fill="#d9e4ef"><path d="m95.335938 351.332031h80.332031c8.28125 0 15-6.714843 15-15 0-8.28125-6.71875-15-15-15h-80.332031c-8.285157 0-15 6.71875-15 15 0 8.285157 6.714843 15 15 15zm0 0"/><path d="m335.265625 47.128906v353.472656c0 25.988282-21.136719 47.128907-47.128906 47.128907h-88.371094v-447.730469h88.371094c25.992187 0 47.128906 21.140625 47.128906 47.128906zm0 0"/><path d="m95.335938 222.800781h144.597656c8.285156 0 15-6.714843 15-15 0-8.285156-6.714844-15-15-15h-144.597656c-8.285157 0-15 6.714844-15 15 0 8.285157 6.714843 15 15 15zm0 0"/><path d="m95.335938 287.066406h144.597656c8.285156 0 15-6.714844 15-15s-6.714844-15-15-15h-144.597656c-8.285157 0-15 6.714844-15 15s6.714843 15 15 15zm0 0"/></g><path d="m254.9375 207.800781c0 8.277344-6.71875 15-15 15h-40.171875v-30h40.171875c8.28125 0 15 6.71875 15 15zm0 0" fill="#c1cedb"/><path d="m254.9375 272.070312c0 8.28125-6.71875 15-15 15h-40.171875v-30h40.171875c8.28125 0 15 6.710938 15 15zm0 0" fill="#c1cedb"/><path d="m95.335938 112.46875c9.445312 0 17.132812-7.6875 17.132812-17.132812v-95.335938h-1.070312c-3.976563 0-7.792969 1.582031-10.605469 4.394531l-96.398438 96.398438c-2.8125 2.8125-4.394531 6.628906-4.394531 10.605469v1.070312zm0 0" fill="#d9e4ef"/></svg>