<svg id="Capa_1" enable-background="new 0 0 512 512" height="512" viewBox="0 0 512 512" width="512" xmlns="http://www.w3.org/2000/svg"><g><g><path d="m232.737 328.226c-14.022 19.506-15.643 29.266-15.643 34.91 0 21.453 17.453 38.906 38.906 38.906.021 0 .042-.002.062-.002l13.299-45.669-13.261-55.92c0 .001-16.384 18.068-23.363 27.775z" fill="#98f9fd"/><path d="m294.906 363.137c0-5.644-1.622-15.404-15.643-34.91-6.676-9.287-21.858-26.315-23.162-27.774l-.038 101.589c21.424-.035 38.843-17.474 38.843-38.905z" fill="#74dbf2"/></g><g><path d="m156.641 328.226c-6.676-9.287-21.858-26.315-23.162-27.774 0 0-16.384 18.067-23.363 27.774-14.022 19.506-15.643 29.266-15.643 34.91 0 21.453 17.453 38.906 38.906 38.906.021 0 .042-.002.062-.002 21.424-.034 38.844-17.472 38.844-38.904 0-5.644-1.622-15.403-15.644-34.91z" fill="#98f9fd"/><g><path d="m218.48 438.184c-6.676-9.287-21.858-26.315-23.162-27.774 0 0-16.384 18.067-23.363 27.774-14.022 19.506-15.643 29.266-15.643 34.91 0 21.453 17.453 38.906 38.906 38.906.021 0 .042-.002.062-.002 21.424-.034 38.844-17.472 38.844-38.904 0-5.644-1.622-15.404-15.644-34.91z" fill="#98f9fd"/><path d="m340.045 438.184c-6.676-9.287-21.858-26.315-23.162-27.774 0 0-16.384 18.067-23.363 27.774-14.022 19.506-15.643 29.266-15.643 34.91 0 21.453 17.453 38.906 38.906 38.906.021 0 .042-.002.062-.002 21.424-.034 38.844-17.472 38.844-38.904-.001-5.644-1.623-15.404-15.644-34.91z" fill="#74dbf2"/></g><path d="m401.884 328.226c-6.676-9.287-21.858-26.315-23.162-27.774 0 0-16.384 18.067-23.363 27.774-14.022 19.506-15.643 29.266-15.643 34.91 0 21.453 17.453 38.906 38.906 38.906.021 0 .042-.002.062-.002 21.424-.034 38.844-17.472 38.844-38.904-.001-5.644-1.623-15.403-15.644-34.91z" fill="#74dbf2"/></g><g><path d="m123.692 74.193v32.778l-13.454 1.784c-36.543 4.846-64.1 36.33-64.1 73.235 0 40.737 33.142 73.879 73.879 73.879h77.683l56.827-114.357-56.827-141.507c-40.825.101-74.008 33.34-74.008 74.188z" fill="#ebf4fe"/><path d="m397.515 119.177h-16.955c.118-1.695.2-3.401.2-5.126 0-40.232-32.614-72.846-72.846-72.846-14.179 0-27.402 4.065-38.594 11.072l-3.495-7.999c-11.753-26.898-38.421-44.278-67.94-44.278-.062 0-.123.005-.185.005v255.865h199.815c37.687 0 68.347-30.66 68.347-68.347 0-37.686-30.66-68.346-68.347-68.346z" fill="#d2e5fc"/></g></g></svg>