<?xml version="1.0" encoding="iso-8859-1"?>
<!-- Generator: Adobe Illustrator 19.0.0, SVG Export Plug-In . SVG Version: 6.00 Build 0)  -->
<svg version="1.1" id="Capa_1" xmlns="http://www.w3.org/2000/svg" xmlns:xlink="http://www.w3.org/1999/xlink" x="0px" y="0px"
	 viewBox="0 0 512 512" style="enable-background:new 0 0 512 512;" xml:space="preserve">
<path style="fill:#F3F3F3;" d="M437.333,0H160L42.667,117.333V480c0,18.133,13.867,32,32,32h362.667c18.133,0,32-13.867,32-32V32
	C469.333,13.867,455.467,0,437.333,0z"/>
<rect x="115.2" y="379.733" style="fill:#8AD7F8;" width="24.533" height="59.733"/>
<rect x="179.2" y="308.267" style="fill:#415A6B;" width="24.533" height="130.133"/>
<rect x="308.267" y="308.267" style="fill:#66C6B9;" width="24.533" height="130.133"/>
<rect x="373.333" y="237.867" style="fill:#F3705A;" width="24.533" height="201.6"/>
<rect x="244.267" y="344.533" style="fill:#FFD15C;" width="24.533" height="94.933"/>
<g>
	<polygon style="fill:#CED6E0;" points="405.333,144 341.333,161.067 356.267,177.067 254.933,278.4 194.133,216.533 
		98.133,312.533 114.133,328.533 194.133,248.533 254.933,309.333 372.267,192 388.267,208 	"/>
	<polygon style="fill:#CED6E0;" points="160,0 42.667,117.333 160,117.333 	"/>
</g>
<g>
</g>
<g>
</g>
<g>
</g>
<g>
</g>
<g>
</g>
<g>
</g>
<g>
</g>
<g>
</g>
<g>
</g>
<g>
</g>
<g>
</g>
<g>
</g>
<g>
</g>
<g>
</g>
<g>
</g>
</svg>
