<svg height="512pt" viewBox="-39 0 511 512" width="512pt" xmlns="http://www.w3.org/2000/svg"><path d="m434.160156 95.730469v398.710937c0 9.6875-7.878906 17.558594-17.570312 17.558594h-398.519532c-9.691406 0-17.570312-7.871094-17.570312-17.558594v-476.871094c0-9.691406 7.878906-17.570312 17.570312-17.570312h320.019532c4.699218 0 9.109375 1.828125 12.421875 5.148438l78.476562 78.140624c3.339844 3.351563 5.171875 7.761719 5.171875 12.441407zm0 0" fill="#ffe8cc"/><path d="m434.160156 95.730469v398.710937c0 9.6875-7.878906 17.558594-17.570312 17.558594h-200.011719v-512h121.511719c4.699218 0 9.109375 1.828125 12.421875 5.148438l78.476562 78.140624c3.339844 3.351563 5.171875 7.761719 5.171875 12.441407zm0 0" fill="#f9cea0"/><path d="m434.160156 95.730469v13.910156h-93.289062c-9.222656 0-16.710938-7.5-16.710938-16.710937v-92.929688h13.929688c4.699218 0 9.109375 1.828125 12.421875 5.148438l78.476562 78.140624c3.339844 3.351563 5.171875 7.761719 5.171875 12.441407zm0 0" fill="#ea9963"/><path d="m434.160156 320.820312v173.621094c0 9.6875-7.878906 17.558594-17.570312 17.558594h-398.519532c-9.691406 0-17.570312-7.871094-17.570312-17.558594v-173.621094zm0 0" fill="#f9cea0"/><path d="m434.160156 320.820312v173.621094c0 9.6875-7.878906 17.558594-17.570312 17.558594h-200.011719v-191.179688zm0 0" fill="#ea9963"/></svg>