<svg id="Layer_1" enable-background="new 0 0 512 512" height="512" viewBox="0 0 512 512" width="512" xmlns="http://www.w3.org/2000/svg"><g><path d="m459.078 106.911c-5.752-24.714-26.254-43.891-51.775-47.883-6.57-27.915-31.864-48.772-61.976-48.772h-3.498c-30.114 0-55.409 20.859-61.977 48.777-15.201 2.391-28.743 10.206-38.388 21.474v138.893h149.845 63.948c31.288 0 56.743-25.26 56.743-56.308 0-29.774-23.408-54.225-52.922-56.181z" fill="#e7f9fb"/><path d="m346.354 117.749c-2.391-5.543-7.85-9.134-13.887-9.134s-11.496 3.59-13.887 9.134l-47.338 109.749c-1.649 3.823-1.649 8.157 0 11.98l28.167 65.303 34.983-34.591 95.582 41.379z" fill="#f9f1b4"/><path d="m459.078 106.911c-5.752-24.714-26.254-43.891-51.775-47.883-6.57-27.915-31.864-48.772-61.976-48.772h-3.498c-3.182 0-6.305.246-9.363.696v208.449h58.842 63.948c31.288 0 56.743-25.26 56.743-56.308.001-29.775-23.407-54.226-52.921-56.182z" fill="#d8f1fb"/><path d="m429.974 311.569-83.62-193.82c-2.391-5.543-7.85-9.134-13.887-9.134v163.479l1.925-1.904z" fill="#ffe79b"/><path d="m429.974 311.569-113.142-58.997-113.123 249.172h308.291z" fill="#804012"/><path d="m303.437 191.427-192.712 71.027-15.564 18.667-95.161 220.623h437.286z" fill="#b95e1a"/><path d="m303.437 191.427-84.794 31.252v279.065h218.643z" fill="#9d4f14"/><path d="m232.53 27.035c-2.391-5.543-7.85-9.134-13.887-9.134s-11.496 3.59-13.887 9.134l-91.33 211.74-18.265 42.347 94.53-47.039 30.141 43.142c2.83 4.051 7.459 6.462 12.398 6.462h.067c4.964-.022 9.6-2.479 12.407-6.573l58.734-85.686z" fill="#fff9e2"/><path d="m232.53 27.035c-2.391-5.543-7.85-9.134-13.887-9.134v257.622l1.188 1.701c2.83 4.051 7.459 6.462 12.398 6.462h.067c4.964-.022 9.601-2.479 12.407-6.573l58.734-85.686z" fill="#f9f4c8"/></g></svg>