<?xml version="1.0" encoding="iso-8859-1"?>
<!-- Generator: Adobe Illustrator 19.0.0, SVG Export Plug-In . SVG Version: 6.00 Build 0)  -->
<svg xmlns="http://www.w3.org/2000/svg" xmlns:xlink="http://www.w3.org/1999/xlink" version="1.1" id="Capa_1" x="0px" y="0px" viewBox="0 0 512 512" style="enable-background:new 0 0 512 512;" xml:space="preserve">
<path style="fill:#E0F7FC;" d="M404.004,0H107.996c-6.952,0-12.59,5.636-12.59,12.59c0,217.338,57.27,410.4,63.791,431.653v55.167  c0,6.954,5.637,12.59,12.589,12.59h168.428c6.954,0,12.59-5.637,12.59-12.59v-55.167c6.52-21.253,63.79-214.315,63.79-431.653  C416.594,5.636,410.958,0,404.004,0z"/>
<path style="fill:#BEEDF4;" d="M181.028,499.41v-55.167c-6.521-21.253-63.791-214.315-63.791-431.653  c0-6.954,5.638-12.59,12.59-12.59h-21.831c-6.952,0-12.59,5.636-12.59,12.59c0,217.338,57.27,410.4,63.791,431.653v55.167  c0,6.954,5.637,12.59,12.589,12.59h21.831C186.665,512,181.028,506.363,181.028,499.41z"/>
<path style="fill:#49B5CE;" d="M250.126,140.17c-55.712-28.914-114.083-21.387-149.643-11.865  c14.151,166.388,53.383,298.565,58.714,315.937h193.608c5.046-16.452,40.496-135.859,56.26-289.772  C364.345,162.597,300.952,166.548,250.126,140.17z"/>
<path style="fill:#30A5B2;" d="M100.483,128.305c9.91,116.527,35.478,240.584,58.714,315.937h21.831  c-5.381-17.538-45.32-152.078-59.117-320.707C114.123,124.925,106.924,126.58,100.483,128.305z"/>
<path style="fill:#88E9FF;" d="M212.412,239.723c-3.551,6.884-12.008,9.585-18.891,6.035L167.039,232.1  c-6.882-3.551-9.583-12.007-6.033-18.891l13.658-26.481c3.548-6.882,12.008-9.585,18.89-6.034l26.481,13.657  c6.884,3.551,9.585,12.008,6.034,18.891L212.412,239.723z"/>
<path style="fill:#6EDCF9;" d="M182.672,225.357l14.359-27.84c2.713-5.262,8.159-8.185,13.712-7.959l-17.188-8.864  c-6.882-3.552-15.341-0.848-18.89,6.034l-13.658,26.481c-3.551,6.884-0.849,15.34,6.033,18.891l16.813,8.672  C180.691,236.408,180.033,230.474,182.672,225.357z"/>
<g>
	<path style="fill:#88E9FF;" d="M344.838,252.518c4.265,6.466,2.478,15.162-3.988,19.426l-24.876,16.401   c-6.465,4.263-15.162,2.478-19.426-3.989l-16.4-24.875c-4.262-6.465-2.478-15.163,3.989-19.426l24.874-16.401   c6.465-4.263,15.164-2.478,19.426,3.988L344.838,252.518z"/>
	<path style="fill:#88E9FF;" d="M256.641,334.363c1.674,7.56-3.098,15.047-10.661,16.722l-29.088,6.443   c-7.564,1.674-15.049-3.098-16.724-10.66l-6.443-29.09c-1.673-7.563,3.099-15.049,10.661-16.722l29.089-6.443   c7.562-1.676,15.049,3.097,16.722,10.658L256.641,334.363z"/>
</g>
<g>
	<path style="fill:#6EDCF9;" d="M225.469,342.127l-5.846-30.775c-1.148-6.045,1.577-11.926,6.429-15.095l-21.666,4.799   c-7.562,1.673-12.334,9.16-10.661,16.722l6.443,29.09c1.675,7.562,9.16,12.334,16.724,10.66l18.558-4.111   C230.478,351.817,226.512,347.621,225.469,342.127z"/>
	<path style="fill:#6EDCF9;" d="M296.218,259.52l26.61-16.529c5.036-3.128,11.219-2.838,15.871,0.216l-10.263-15.564   c-4.262-6.466-12.96-8.251-19.426-3.988l-24.874,16.401c-6.467,4.263-8.251,12.961-3.989,19.426l9.18,13.924   C288.833,268.022,291.312,262.566,296.218,259.52z"/>
</g>
<g>
</g>
<g>
</g>
<g>
</g>
<g>
</g>
<g>
</g>
<g>
</g>
<g>
</g>
<g>
</g>
<g>
</g>
<g>
</g>
<g>
</g>
<g>
</g>
<g>
</g>
<g>
</g>
<g>
</g>
</svg>
