<svg id="Layer_3" height="512" viewBox="0 0 64 64" width="512" xmlns="http://www.w3.org/2000/svg" data-name="Layer 3"><path d="m40.6 13.011a11.115 11.115 0 0 0 -4.6-1.011c-7.732 0-14 8.059-14 18s6.268 18 14 18a11.126 11.126 0 0 0 4.679-1.049 3.144 3.144 0 0 1 2.642 0 11.126 11.126 0 0 0 4.679 1.049c7.732 0 14-8.059 14-18s-6.268-18-14-18a11.434 11.434 0 0 0 -6 1.756" fill="#a72b25"/><path d="m42 13v.915a12.275 12.275 0 0 1 -3.6 8.685 12.278 12.278 0 0 1 -5.7 3.229l-4.7 1.171 1.175-4.7a12.278 12.278 0 0 1 3.225-5.7 12.275 12.275 0 0 1 8.685-3.6z" fill="#7bdf45"/><path d="m22 28.756a35.476 35.476 0 0 0 -1.82-11.216l-.18-.54h7a16.057 16.057 0 0 1 -3.935 10.53z" fill="#976947"/><path d="m20.6 27.011a11.115 11.115 0 0 0 -4.6-1.011c-7.732 0-14 8.059-14 18s6.268 18 14 18a11.126 11.126 0 0 0 4.679-1.049 3.144 3.144 0 0 1 2.642 0 11.126 11.126 0 0 0 4.679 1.049c7.732 0 14-8.059 14-18s-6.268-18-14-18a11.434 11.434 0 0 0 -6 1.756" fill="#d23f34"/><path d="m22 27.737v.915a12.274 12.274 0 0 1 -3.6 8.681 12.278 12.278 0 0 1 -5.7 3.229l-4.7 1.175 1.175-4.7a12.283 12.283 0 0 1 3.229-5.7 12.28 12.28 0 0 1 8.681-3.6z" fill="#6bc13b"/><path d="m42 13.756a35.476 35.476 0 0 0 -1.82-11.216l-.18-.54h7a16.057 16.057 0 0 1 -3.935 10.53z" fill="#674025"/></svg>