<svg id="Layer_1" enable-background="new 0 0 510 510" height="512" viewBox="0 0 510 510" width="512" xmlns="http://www.w3.org/2000/svg"><g><path d="m45 0v120l120 10 90-10 10-60-10-60z" fill="#575f64"/><path d="m465 0h-210v120l105 10 105-10z" fill="#474f54"/><path d="m45 120v390h210l10-195-10-195z" fill="#e6f2ff"/><path d="m255 120h210v390h-210z" fill="#cdf"/><path d="m105 60h60v30h-60z" fill="#e6f2ff"/><path d="m315 60h30v30h-30z" fill="#ffda2d"/><path d="m375 60h30v30h-30z" fill="#a733c1"/><path d="m135 315c0 66.168 53.832 120 120 120l10-120-10-120c-66.168 0-120 53.831-120 120z" fill="#6cf"/><path d="m255 195v240c66.168 0 120-53.832 120-120 0-66.169-53.832-120-120-120z" fill="#4596e6"/><path d="m195 315c0 33.084 26.916 60 60 60l10-60-10-60c-33.084 0-60 26.916-60 60z" fill="#4596e6"/><path d="m255 255v120c33.084 0 60-26.916 60-60s-26.916-60-60-60z" fill="#3e6dcc"/></g></svg>