<?xml version="1.0" encoding="iso-8859-1"?>
<!-- Generator: Adobe Illustrator 19.0.0, SVG Export Plug-In . SVG Version: 6.00 Build 0)  -->
<svg version="1.1" id="Capa_1" xmlns="http://www.w3.org/2000/svg" xmlns:xlink="http://www.w3.org/1999/xlink" x="0px" y="0px"
	 viewBox="0 0 512 512" style="enable-background:new 0 0 512 512;" xml:space="preserve">
<path style="fill:#CAE8F9;" d="M408.704,113.13H50.125L0,128.137v30.015c0,106.252,42.921,202.901,112.256,252.425
	c2.702,1.801,5.703,2.702,8.705,2.702h195.295c3.003,0,6.003-0.901,8.705-2.702c69.335-49.524,111.856-146.173,111.856-252.425
	v-30.015L408.704,113.13z"/>
<path style="fill:#81C8EE;" d="M391.111,356.225c-8.354,0-16.385-1.305-23.801-4.016c-7.782-2.843-11.783-11.461-8.94-19.258
	c2.857-7.782,11.446-11.754,19.258-8.94c20.474,7.489,51.281-3.825,74.92-27.48c28.769-28.754,38.486-67.637,21.237-84.9
	c-9.966-9.951-27.875-11.256-47.88-3.488c-7.68,3.02-16.414-0.864-19.405-8.588s0.85-16.414,8.588-19.405
	c31.437-12.164,61.291-8.339,79.918,10.259c29.218,29.233,19.882,86.24-21.237,127.343
	C449.192,342.346,418.355,356.225,391.111,356.225z"/>
<path style="fill:#A4D9F5;" d="M436.818,128.137v30.015c0,106.252-42.521,202.901-111.856,252.425
	c-2.702,1.801-5.703,2.702-8.705,2.702h-97.147V113.13h189.594L436.818,128.137z"/>
<path style="fill:#1BD9DE;" d="M405.702,404.874l-21.912,43.522c-7.504,15.308-23.111,24.913-40.219,24.913H93.647
	c-17.109,0-32.715-9.605-40.219-24.913l-21.912-43.522H405.702z"/>
<path style="fill:#14B7BF;" d="M405.702,404.874l-21.912,43.522c-7.504,15.308-23.111,24.913-40.219,24.913H219.109v-68.435H405.702
	z"/>
<path style="fill:#1DE8F1;" d="M436.818,398.272c0,8.403-6.202,15.007-14.607,15.007H15.007C6.602,413.279,0,406.675,0,398.272
	c0-8.405,6.602-15.007,15.007-15.007H422.21C430.615,383.264,436.818,389.866,436.818,398.272z"/>
<path style="fill:#1BD9DE;" d="M436.818,398.272c0,8.403-6.202,15.007-14.607,15.007H219.109v-30.015H422.21
	C430.615,383.264,436.818,389.866,436.818,398.272z"/>
<path style="fill:#FEDBAB;" d="M377.188,68.107c-4.503,0-9.004,0.599-13.207,1.501c-21.91-17.41-53.127-21.312-78.339-9.605
	c-16.508-14.106-45.523-21.312-66.533-21.312s-51.026,7.206-67.534,21.312c-25.212-11.706-56.728-7.804-78.339,9.605
	C36.617,61.203,0,90.618,0,128.137s36.617,66.932,73.236,58.529c21.61,17.408,53.127,21.31,78.339,9.603
	c16.209,14.108,46.223,21.912,67.534,21.912s50.324-7.804,66.533-21.912c25.212,11.706,56.428,7.804,78.339-9.603
	c4.202,0.899,8.703,1.501,13.207,1.501c33.015,0,59.63-27.014,59.63-60.03C436.818,95.12,410.203,68.107,377.188,68.107z"/>
<path style="fill:#FEC478;" d="M285.642,196.27c-16.209,14.108-45.223,21.912-66.533,21.912V38.692
	c21.01,0,50.026,7.206,66.533,21.312c25.212-11.706,56.428-7.804,78.339,9.605c4.202-0.901,8.703-1.501,13.207-1.501
	c33.015,0,59.63,27.012,59.63,60.03c0,33.015-26.614,60.03-59.63,60.03c-4.503,0-9.004-0.601-13.207-1.501
	C342.071,204.074,310.854,207.976,285.642,196.27z"/>
<g>
</g>
<g>
</g>
<g>
</g>
<g>
</g>
<g>
</g>
<g>
</g>
<g>
</g>
<g>
</g>
<g>
</g>
<g>
</g>
<g>
</g>
<g>
</g>
<g>
</g>
<g>
</g>
<g>
</g>
</svg>
