<?xml version="1.0" encoding="iso-8859-1"?>
<!-- Generator: Adobe Illustrator 19.0.0, SVG Export Plug-In . SVG Version: 6.00 Build 0)  -->
<svg version="1.1" id="Capa_1" xmlns="http://www.w3.org/2000/svg" xmlns:xlink="http://www.w3.org/1999/xlink" x="0px" y="0px"
	 viewBox="0 0 512 512" style="enable-background:new 0 0 512 512;" xml:space="preserve">
<path style="fill:#B0C4D8;" d="M488.727,453.818H23.273C10.473,453.818,0,443.345,0,430.545v-384
	c0-12.8,10.473-23.273,23.273-23.273h465.455c12.8,0,23.273,10.473,23.273,23.273v384C512,443.345,501.527,453.818,488.727,453.818z
	"/>
<rect x="23.273" y="93.091" style="fill:#ECEFF9;" width="465.455" height="337.455"/>
<g>
	<path style="fill:#D5E3EF;" d="M64,267.636h93.091c3.491,0,5.818,2.327,5.818,5.818l0,0c0,3.491-2.327,5.818-5.818,5.818H64
		c-3.491,0-5.818-2.327-5.818-5.818l0,0C58.182,269.964,60.509,267.636,64,267.636z"/>
	<path style="fill:#D5E3EF;" d="M64,290.909h93.091c3.491,0,5.818,2.327,5.818,5.818l0,0c0,3.491-2.327,5.818-5.818,5.818H64
		c-3.491,0-5.818-2.327-5.818-5.818l0,0C58.182,293.236,60.509,290.909,64,290.909z"/>
	<path style="fill:#D5E3EF;" d="M64,314.182h93.091c3.491,0,5.818,2.327,5.818,5.818l0,0c0,3.491-2.327,5.818-5.818,5.818H64
		c-3.491,0-5.818-2.327-5.818-5.818l0,0C58.182,316.509,60.509,314.182,64,314.182z"/>
	<path style="fill:#D5E3EF;" d="M64,337.455h93.091c3.491,0,5.818,2.327,5.818,5.818l0,0c0,3.491-2.327,5.818-5.818,5.818H64
		c-3.491,0-5.818-2.327-5.818-5.818l0,0C58.182,339.782,60.509,337.455,64,337.455z"/>
	<path style="fill:#D5E3EF;" d="M64,360.727h93.091c3.491,0,5.818,2.327,5.818,5.818l0,0c0,3.491-2.327,5.818-5.818,5.818H64
		c-3.491,0-5.818-2.327-5.818-5.818l0,0C58.182,363.055,60.509,360.727,64,360.727z"/>
	<path style="fill:#D5E3EF;" d="M64,384h93.091c3.491,0,5.818,2.327,5.818,5.818l0,0c0,3.491-2.327,5.818-5.818,5.818H64
		c-3.491,0-5.818-2.327-5.818-5.818l0,0C58.182,386.327,60.509,384,64,384z"/>
	<path style="fill:#D5E3EF;" d="M203.636,267.636h104.727c3.491,0,5.818,2.327,5.818,5.818l0,0c0,3.491-2.327,5.818-5.818,5.818
		H203.636c-3.491,0-5.818-2.327-5.818-5.818l0,0C197.818,269.964,200.145,267.636,203.636,267.636z"/>
	<path style="fill:#D5E3EF;" d="M203.636,290.909h104.727c3.491,0,5.818,2.327,5.818,5.818l0,0c0,3.491-2.327,5.818-5.818,5.818
		H203.636c-3.491,0-5.818-2.327-5.818-5.818l0,0C197.818,293.236,200.145,290.909,203.636,290.909z"/>
	<path style="fill:#D5E3EF;" d="M203.636,314.182h104.727c3.491,0,5.818,2.327,5.818,5.818l0,0c0,3.491-2.327,5.818-5.818,5.818
		H203.636c-3.491,0-5.818-2.327-5.818-5.818l0,0C197.818,316.509,200.145,314.182,203.636,314.182z"/>
	<path style="fill:#D5E3EF;" d="M203.636,337.455h104.727c3.491,0,5.818,2.327,5.818,5.818l0,0c0,3.491-2.327,5.818-5.818,5.818
		H203.636c-3.491,0-5.818-2.327-5.818-5.818l0,0C197.818,339.782,200.145,337.455,203.636,337.455z"/>
	<path style="fill:#D5E3EF;" d="M203.636,384h104.727c3.491,0,5.818,2.327,5.818,5.818l0,0c0,3.491-2.327,5.818-5.818,5.818H203.636
		c-3.491,0-5.818-2.327-5.818-5.818l0,0C197.818,386.327,200.145,384,203.636,384z"/>
	<path style="fill:#D5E3EF;" d="M203.636,360.727h104.727c3.491,0,5.818,2.327,5.818,5.818l0,0c0,3.491-2.327,5.818-5.818,5.818
		H203.636c-3.491,0-5.818-2.327-5.818-5.818l0,0C197.818,363.055,200.145,360.727,203.636,360.727z"/>
	<path style="fill:#D5E3EF;" d="M354.909,267.636H448c3.491,0,5.818,2.327,5.818,5.818l0,0c0,3.491-2.327,5.818-5.818,5.818h-93.091
		c-3.491,0-5.818-2.327-5.818-5.818l0,0C349.091,269.964,351.418,267.636,354.909,267.636z"/>
	<path style="fill:#D5E3EF;" d="M354.909,290.909H448c3.491,0,5.818,2.327,5.818,5.818l0,0c0,3.491-2.327,5.818-5.818,5.818h-93.091
		c-3.491,0-5.818-2.327-5.818-5.818l0,0C349.091,293.236,351.418,290.909,354.909,290.909z"/>
	<path style="fill:#D5E3EF;" d="M354.909,314.182H448c3.491,0,5.818,2.327,5.818,5.818l0,0c0,3.491-2.327,5.818-5.818,5.818h-93.091
		c-3.491,0-5.818-2.327-5.818-5.818l0,0C349.091,316.509,351.418,314.182,354.909,314.182z"/>
	<path style="fill:#D5E3EF;" d="M354.909,337.455H448c3.491,0,5.818,2.327,5.818,5.818l0,0c0,3.491-2.327,5.818-5.818,5.818h-93.091
		c-3.491,0-5.818-2.327-5.818-5.818l0,0C349.091,339.782,351.418,337.455,354.909,337.455z"/>
	<path style="fill:#D5E3EF;" d="M354.909,360.727H448c3.491,0,5.818,2.327,5.818,5.818l0,0c0,3.491-2.327,5.818-5.818,5.818h-93.091
		c-3.491,0-5.818-2.327-5.818-5.818l0,0C349.091,363.055,351.418,360.727,354.909,360.727z"/>
	<path style="fill:#D5E3EF;" d="M354.909,384H448c3.491,0,5.818,2.327,5.818,5.818l0,0c0,3.491-2.327,5.818-5.818,5.818h-93.091
		c-3.491,0-5.818-2.327-5.818-5.818l0,0C349.091,386.327,351.418,384,354.909,384z"/>
	<rect x="58.182" y="151.273" style="fill:#D5E3EF;" width="395.636" height="93.091"/>
</g>
<circle style="fill:#F04D4E;" cx="34.909" cy="58.182" r="11.636"/>
<circle style="fill:#FFCB5B;" cx="81.455" cy="58.182" r="11.636"/>
<circle style="fill:#3BB54A;" cx="128" cy="58.182" r="11.636"/>
<path style="fill:#E2E7F0;" d="M477.091,69.818H174.545c-6.982,0-11.636-4.655-11.636-11.636l0,0
	c0-6.982,4.655-11.636,11.636-11.636h302.545c6.982,0,11.636,4.655,11.636,11.636l0,0C488.727,65.164,484.073,69.818,477.091,69.818
	z"/>
<g>
	<path style="fill:#B0C4D8;" d="M87.273,116.364h69.818c3.491,0,5.818,2.327,5.818,5.818l0,0c0,3.491-2.327,5.818-5.818,5.818
		H87.273c-3.491,0-5.818-2.327-5.818-5.818l0,0C81.455,118.691,83.782,116.364,87.273,116.364z"/>
	<path style="fill:#B0C4D8;" d="M424.727,116.364H448c3.491,0,5.818,2.327,5.818,5.818l0,0c0,3.491-2.327,5.818-5.818,5.818h-23.273
		c-3.491,0-5.818-2.327-5.818-5.818l0,0C418.909,118.691,421.236,116.364,424.727,116.364z"/>
	<path style="fill:#B0C4D8;" d="M378.182,116.364h23.273c3.491,0,5.818,2.327,5.818,5.818l0,0c0,3.491-2.327,5.818-5.818,5.818
		h-23.273c-3.491,0-5.818-2.327-5.818-5.818l0,0C372.364,118.691,374.691,116.364,378.182,116.364z"/>
	<path style="fill:#B0C4D8;" d="M331.636,116.364h23.273c3.491,0,5.818,2.327,5.818,5.818l0,0c0,3.491-2.327,5.818-5.818,5.818
		h-23.273c-3.491,0-5.818-2.327-5.818-5.818l0,0C325.818,118.691,328.145,116.364,331.636,116.364z"/>
	<path style="fill:#B0C4D8;" d="M64,116.364c-3.491,0-5.818,2.327-5.818,5.818l0,0c0,3.491,2.327,5.818,5.818,5.818
		c3.491,0,5.818-2.327,5.818-5.818l0,0C69.818,118.691,67.491,116.364,64,116.364z M64,119.855C64,119.855,64,118.691,64,119.855
		L64,119.855C64,118.691,64,119.855,64,119.855z"/>
</g>
<circle style="fill:#F6B545;" cx="302.545" cy="314.182" r="81.455"/>
<path style="fill:#FFCB5B;" d="M302.545,232.727c-45.382,0-81.455,36.073-81.455,81.455s36.073,81.455,81.455,81.455
	S384,359.564,384,314.182S347.927,232.727,302.545,232.727z M302.545,372.364c-32.582,0-58.182-25.6-58.182-58.182
	S269.964,256,302.545,256s58.182,25.6,58.182,58.182S335.127,372.364,302.545,372.364z"/>
<path style="fill:#F6B545;" d="M302.545,394.473L302.545,394.473C347.927,395.636,384,358.4,384,314.182h-1.164
	c-5.818,0-10.473,4.655-11.636,10.473c-2.327,16.291-10.473,31.418-22.109,41.891c-9.309,9.309-22.109,15.127-36.073,17.454
	C307.2,384,302.545,388.655,302.545,394.473z"/>
<path style="fill:#FFE27A;" d="M302.545,233.891L302.545,233.891c-45.382-1.164-81.455,36.073-81.455,80.291h1.164
	c5.818,0,10.473-4.655,11.636-10.473c2.327-16.291,10.473-31.418,22.109-41.891c9.309-9.309,22.109-15.127,36.073-17.455
	C297.891,244.364,302.545,239.709,302.545,233.891z"/>
<path style="fill:#F19920;" d="M252.509,322.327c0-32.582,25.6-58.182,58.182-58.182c13.964,0,26.764,4.655,37.236,13.964
	C336.291,264.145,321.164,256,302.545,256c-32.582,0-58.182,25.6-58.182,58.182c0,18.618,8.145,33.745,20.945,44.218
	C257.164,349.091,252.509,336.291,252.509,322.327z"/>
<path style="fill:#FFCB5B;" d="M337.455,350.255c-1.164,0-2.327,0-3.491-1.164c-2.327-2.327-2.327-5.818,0-8.145
	c6.982-6.982,10.473-17.455,10.473-26.764c0-3.491,2.327-5.818,5.818-5.818c3.491,0,5.818,2.327,5.818,5.818
	c0,12.8-4.655,25.6-12.8,34.909C340.945,350.255,338.618,350.255,337.455,350.255z"/>
<g>
	<path style="fill:#F19920;" d="M302.545,349.091c-6.982,0-11.636-4.655-11.636-11.636v-46.545c0-6.982,4.655-11.636,11.636-11.636
		c6.982,0,11.636,4.655,11.636,11.636v46.545C314.182,344.436,309.527,349.091,302.545,349.091z"/>
	<path style="fill:#F19920;" d="M345.6,382.836c-8.145-29.091-29.091-52.364-55.855-62.836c-4.655-26.764-22.109-50.036-44.218-64
		c-13.964,15.127-23.273,34.909-23.273,57.018c0,45.382,36.073,81.455,81.455,81.455C318.836,395.636,332.8,390.982,345.6,382.836z"
		/>
</g>
<g>
	<path style="fill:#E78825;" d="M265.309,358.4c-8.145-10.473-13.964-23.273-13.964-37.236c0-16.291,6.982-31.418,18.618-41.891
		c-2.327-3.491-4.655-5.818-6.982-8.145c-11.636,10.473-18.618,25.6-18.618,43.055C244.364,332.8,252.509,347.927,265.309,358.4z"/>
	<path style="fill:#E78825;" d="M290.909,321.164v16.291c0,6.982,4.655,11.636,11.636,11.636c6.982,0,11.636-4.655,11.636-11.636
		v-2.327C307.2,329.309,299.055,324.655,290.909,321.164z"/>
</g>
<path style="fill:#F6B545;" d="M345.6,382.836c-2.327-8.145-4.655-15.127-9.309-22.109c-9.309,6.982-20.945,11.636-33.745,11.636
	c-32.582,0-58.182-25.6-58.182-58.182c0-17.455,6.982-32.582,18.618-43.055c-5.818-5.818-11.636-10.473-18.618-13.964
	c-13.964,15.127-23.273,34.909-23.273,57.018c0,45.382,36.073,81.455,81.455,81.455C318.836,395.636,332.8,390.982,345.6,382.836z"
	/>
<path style="fill:#F19920;" d="M342.109,372.364c-8.145,5.818-18.618,9.309-29.091,11.636c-5.818,1.164-10.473,5.818-10.473,11.636
	l0,0c16.291,0,30.255-4.655,43.055-12.8C344.436,379.345,343.273,375.855,342.109,372.364z"/>
<path style="fill:#FFCB5B;" d="M244.364,257.164c-13.964,15.127-23.273,34.909-23.273,57.018h1.164
	c5.818,0,10.473-4.655,11.636-10.473c2.327-16.291,10.473-30.255,20.945-40.727C251.345,261.818,247.855,259.491,244.364,257.164z"
	/>
<circle style="fill:#F6B545;" cx="197.818" cy="337.455" r="81.455"/>
<path style="fill:#F19920;" d="M186.182,395.636c0,8.145,1.164,15.127,3.491,23.273c2.327,0,5.818,0,8.145,0
	c45.382,0,81.455-36.073,81.455-81.455c0-8.145-1.164-15.127-3.491-23.273c-2.327,0-5.818,0-8.145,0
	C222.255,314.182,186.182,350.255,186.182,395.636z"/>
<path style="fill:#FFCB5B;" d="M197.818,256c-45.382,0-81.455,36.073-81.455,81.455s36.073,81.455,81.455,81.455
	s81.455-36.073,81.455-81.455S243.2,256,197.818,256z M197.818,395.636c-32.582,0-58.182-25.6-58.182-58.182
	s25.6-58.182,58.182-58.182S256,304.873,256,337.455S230.4,395.636,197.818,395.636z"/>
<path style="fill:#F6B545;" d="M197.818,417.745L197.818,417.745c45.382,1.164,81.455-36.073,81.455-80.291h-1.164
	c-5.818,0-10.473,4.655-11.636,10.473c-2.327,16.291-10.473,31.418-22.109,41.891c-9.309,9.309-22.109,15.127-36.073,17.455
	C202.473,407.273,197.818,411.927,197.818,417.745z"/>
<path style="fill:#FFE27A;" d="M197.818,257.164L197.818,257.164c-45.382-1.164-81.455,36.073-81.455,80.291h1.164
	c5.818,0,10.473-4.655,11.636-10.473c2.327-16.291,10.473-31.418,22.109-41.891c9.309-9.309,22.109-15.127,36.073-17.455
	C193.164,267.636,197.818,262.982,197.818,257.164z"/>
<path style="fill:#F19920;" d="M147.782,345.6c0-32.582,25.6-58.182,58.182-58.182c13.964,0,26.764,4.655,37.236,13.964
	c-11.636-13.964-26.764-22.109-45.382-22.109c-32.582,0-58.182,25.6-58.182,58.182c0,18.618,8.145,33.745,20.945,44.218
	C152.436,372.364,147.782,359.564,147.782,345.6z"/>
<path style="fill:#FFCB5B;" d="M232.727,373.527c-1.164,0-2.327,0-3.491-1.164c-2.327-2.327-2.327-5.818,0-8.145
	c6.982-6.982,10.473-17.455,10.473-26.764c0-3.491,2.327-5.818,5.818-5.818s5.818,2.327,5.818,5.818c0,12.8-4.655,25.6-12.8,34.909
	C236.218,373.527,233.891,373.527,232.727,373.527z"/>
<path style="fill:#F19920;" d="M197.818,372.364c-6.982,0-11.636-4.655-11.636-11.636v-46.545c0-6.982,4.655-11.636,11.636-11.636
	c6.982,0,11.636,4.655,11.636,11.636v46.545C209.455,367.709,204.8,372.364,197.818,372.364z"/>
<g>
	<path style="fill:#F6B545;" d="M251.345,315.345c2.327,6.982,4.655,13.964,4.655,22.109c0,32.582-25.6,58.182-58.182,58.182
		c-3.491,0-8.145,0-11.636-1.164v1.164c0,8.145,1.164,15.127,3.491,23.273c2.327,0,5.818,0,8.145,0
		c45.382,0,81.455-36.073,81.455-81.455c0-8.145-1.164-15.127-3.491-23.273c-2.327,0-5.818,0-8.145,0
		C261.818,314.182,257.164,314.182,251.345,315.345z"/>
	<circle style="fill:#F6B545;" cx="256" cy="407.273" r="81.455"/>
</g>
<path style="fill:#FFCB5B;" d="M256,325.818c-45.382,0-81.455,36.073-81.455,81.455s36.073,81.455,81.455,81.455
	s81.455-36.073,81.455-81.455S301.382,325.818,256,325.818z M256,465.455c-32.582,0-58.182-25.6-58.182-58.182
	s25.6-58.182,58.182-58.182s58.182,25.6,58.182,58.182S288.582,465.455,256,465.455z"/>
<path style="fill:#F6B545;" d="M256,487.564L256,487.564c45.382,1.164,81.455-36.073,81.455-80.291h-1.164
	c-5.818,0-10.473,4.655-11.636,10.473c-2.327,16.291-10.473,31.418-22.109,41.891c-9.309,9.309-22.109,15.127-36.073,17.455
	C260.655,477.091,256,481.745,256,487.564z"/>
<path style="fill:#FFE27A;" d="M256,326.982L256,326.982c-45.382-1.164-81.455,36.073-81.455,80.291h1.164
	c5.818,0,10.473-4.655,11.636-10.473c2.327-16.291,10.473-31.418,22.109-41.891c9.309-9.309,22.109-15.127,36.073-17.455
	C251.345,337.455,256,332.8,256,326.982z"/>
<path style="fill:#F19920;" d="M205.964,415.418c0-32.582,25.6-58.182,58.182-58.182c13.964,0,26.764,4.655,37.236,13.964
	c-11.636-13.964-26.764-22.109-45.382-22.109c-32.582,0-58.182,25.6-58.182,58.182c0,18.618,8.145,33.745,20.945,44.218
	C210.618,442.182,205.964,429.382,205.964,415.418z"/>
<path style="fill:#FFCB5B;" d="M290.909,443.345c-1.164,0-2.327,0-3.491-1.164c-2.327-2.327-2.327-5.818,0-8.145
	c6.982-6.982,10.473-17.455,10.473-26.764c0-3.491,2.327-5.818,5.818-5.818s5.818,2.327,5.818,5.818c0,12.8-4.655,25.6-12.8,34.909
	C294.4,443.345,292.073,443.345,290.909,443.345z"/>
<path style="fill:#F19920;" d="M256,442.182c-6.982,0-11.636-4.655-11.636-11.636V384c0-6.982,4.655-11.636,11.636-11.636
	c6.982,0,11.636,4.655,11.636,11.636v46.545C267.636,437.527,262.982,442.182,256,442.182z"/>
<g>
</g>
<g>
</g>
<g>
</g>
<g>
</g>
<g>
</g>
<g>
</g>
<g>
</g>
<g>
</g>
<g>
</g>
<g>
</g>
<g>
</g>
<g>
</g>
<g>
</g>
<g>
</g>
<g>
</g>
</svg>
