<svg id="Layer_1" enable-background="new 0 0 472.003 472.003" height="512" viewBox="0 0 472.003 472.003" width="512" xmlns="http://www.w3.org/2000/svg"><path d="m425.991 15.943-51.58 6.45-50.38 109.32c-2.91-.12-14.39-.68-17.22-.85l54.92-119.21c1.16-2.51 3.53-4.25 6.28-4.59l56-7c4.4-.55 8.38 2.56 8.93 6.95.55 4.38-2.56 8.38-6.95 8.93z" fill="#b5d5f5"/><path d="m458.94 110.173v-12.18c0-10.76-8.72-19.49-19.49-19.49h-406.9c-10.77 0-19.49 8.73-19.49 19.49 0 16.656-.13 13.156-.13 16.85 0 35.21 22.5 67.13 58.6 76.96 0 68.73 89.8 77.95 146.57 84.34-.99 148.43-14.67 145-61.04 157.52-8.5 2.3-14.54 9.79-14.54 18.6 0 11.913 9.134 19.74 19.16 19.74h148.64c10.58 0 19.16-8.58 19.16-19.16 0-9.907-6.368-16.969-14.54-19.18-46.37-12.52-60.022-9.12-61.002-157.55 28.55-3.28 64.132-7.09 93.112-18.15 30.36-11.58 53.42-31.08 53.42-66.16 37.69-10.26 60.561-44.61 58.47-81.63z" fill="#cbe3fa"/><g fill="#eef7ff"><path d="m238.091 277.373c-1.05 158.79-14.78 155.14-61.03 168.61-6.356 1.855-11.689 5.852-14.368 11.456-4.797 10.034-19.989 6.841-20.17-4.279-.162-9.988 6.221-17.247 14.537-19.497 46.37-12.52 60.05-9.09 61.04-157.52 6.045.671 11.291 1.395 19.991 1.23z"/><path d="m439.632 100.503h-375.081c-23.478 0-24.616 34.927-14.297 63.517 2.88 7.979-7.035 14.273-13.142 8.385-15.398-14.845-24.181-35.56-24.181-57.563 0-3.783.13.625.13-16.85 0-10.76 8.72-19.49 19.49-19.49h406.9c15.4.001 14.424 22.001.181 22.001z"/><path d="m98.322 243.845c-11.049-8.088-19.484-18.373-23.732-31.579-1.691-5.258 4.039-9.804 8.785-6.979 3.489 2.076 7.183 3.909 11.068 5.47 5.307 2.131 8.955 7.049 9.719 12.716.65 4.826 1.792 9.319 3.369 13.505 2.092 5.551-4.423 10.371-9.209 6.867z"/></g><path d="m246.592 292.982c-5.971.441-13.856.577-21.186.017-4.2-.321-7.428-3.845-7.383-8.057.031-2.871.055-5.803.077-8.799 14.062 1.562 18.896 1.839 35.838-.03v8.818c.043 4.212-3.144 7.741-7.346 8.051z" fill="#b5d5f5"/><path d="m347.243 81.34-22.652 49.156c-.34.737-1.091 1.196-1.902 1.161-4.004-.17-8.754-.395-12.945-.625-1.41-.078-2.296-1.551-1.705-2.834l22.356-48.531c.327-.709 1.036-1.163 1.817-1.163h13.216c1.458-.001 2.426 1.511 1.815 2.836z" fill="#9ec7f0"/><path d="m394.771 151.913c-3.8 4.47-8.45 8.23-13.76 11.05-12.68 6.73-22.5 18.17-25.84 32.22-13.68 57.59-222.35 59.27-238.1 1.04-3.82-14.14-12.96-26.39-25.86-33.14-7.88-4.12-14.3-10.32-18.73-17.81-5.92-10.03.92-22.79 12.52-23.84 109.084-9.911 173.29 13.988 300.31 10.72 10.359-.27 16.19 11.87 9.46 19.76z" fill="#ff6d7a"/><path d="m385.471 150.099c-95.99-2.69-156.621-19.191-250.471-10.666-11.6 1.05-18.44 13.81-12.52 23.84 4.43 7.49 10.85 13.69 18.73 17.81 9.732 5.092 15.014 10.693 18.513 16.511 8.464 14.073-7.4 30.312-21.635 22.124-10.933-6.289-18.48-14.115-21.018-23.495-3.82-14.14-12.96-26.39-25.86-33.14-7.88-4.12-14.3-10.32-18.73-17.81-5.92-10.03.92-22.79 12.52-23.84 109.08-9.91 173.29 13.99 300.31 10.72 13.126-.339 11.984 18.277.161 17.946z" fill="#ff8c95"/></svg>