<svg height="512" viewBox="0 0 64 64" width="512" xmlns="http://www.w3.org/2000/svg"><g id="Icon"><path d="m46.591 26.35a9.479 9.479 0 0 1 -2.438-5.793l-.419-5.657a11.768 11.768 0 0 0 -23.471 0l-.422 5.692a9.439 9.439 0 0 1 -2.441 5.764 19.982 19.982 0 0 0 12.328 33.518 21.312 21.312 0 0 0 2.3.127 19.772 19.772 0 0 0 13.307-5.1 19.966 19.966 0 0 0 1.256-28.551z" fill="#66bb6a"/><path d="m43.673 29.086a13.492 13.492 0 0 1 -3.509-8.233l-.419-5.66a7.768 7.768 0 0 0 -15.493 0l-.421 5.692a13.452 13.452 0 0 1 -3.513 8.207 15.811 15.811 0 0 0 -4.233 12.592 16 16 0 0 0 14.082 14.216 16.582 16.582 0 0 0 1.833.1 15.98 15.98 0 0 0 11.673-26.914z" fill="#ffe0b2"/><circle cx="31.999" cy="39.999" fill="#a1887f" r="11"/></g></svg>