<svg height="512pt" viewBox="0 -37 512 512" width="512pt" xmlns="http://www.w3.org/2000/svg"><path d="m468.242188 0h-173.574219l-20.015625 99.226562 156.371094-20.015624zm0 0" fill="#cdbfba"/><path d="m85.289062.0117188c-47.027343 0-85.289062 38.2617192-85.289062 85.2890622v206.222657h30v-206.222657c0-30.484375 24.804688-55.289062 55.289062-55.289062h56.621094c7.472656 22.417969 16.402344 49.199219 16.402344 49.199219l136.355469 20.015624v-99.226562zm0 0" fill="#efe2dd"/><path d="m431.023438 79.210938h-136.355469s-19.625 214.949218-19.429688 214.964843c90.855469 7.246094 204.429688-42.226562 236.21875-62.605469-4.308593-62.097656-34.886719-116.75-80.433593-152.359374zm0 0" fill="#efe2dd"/><path d="m158.3125 79.210938c-37.6875 29.464843-65.117188 71.96875-75.910156 120.933593 26.539062 30.140625 121.582031 86.539063 212.265625 93.980469v-214.914062zm0 0" fill="#fff5f5"/><path d="m511.457031 231.570312c-67.863281-1.851562-70.117187-31.691406-142.320312-31.691406-37.226563 0-55.855469 7.929688-74.46875 15.871094l-20.015625 115.058594 20.015625 106.472656h99.289062c69.757813-33.6875 118.042969-106.355469 118.042969-190.582031 0-5.089844-.199219-10.132813-.542969-15.128907zm0 0" fill="#38211a"/><path d="m220.105469 231.664062c-70.53125 0-74.3125-28.476562-137.703125-31.519531-3.300782 14.976563-5.066406 30.554688-5.066406 46.554688 0 84.226562 48.285156 156.894531 118.046874 190.582031h99.285157v-221.53125c-18.644531 7.953125-37.273438 15.914062-74.5625 15.914062zm0 0" fill="#71390f"/></svg>