<?xml version="1.0"?>
<svg xmlns="http://www.w3.org/2000/svg" id="flat" viewBox="0 0 512 512" width="512" height="512"><path d="M408,224l-33.00007-25.66672A144,144,0,0,0,286.59248,168H208l80,64H408Z" style="fill:#f78e00"/><path d="M416,312h0a57.94108,57.94108,0,0,0,40.97053-16.97055L472,280h16V248H472l-26.23831-15.743A57.9411,57.9411,0,0,0,415.95125,224H355.22494A146.03106,146.03106,0,0,1,264,192L264,192a146.03106,146.03106,0,0,0-91.2249-32H152V312Z" style="fill:#ffa100"/><path d="M160,384l-3.6402,3.6402A42.199,42.199,0,0,1,126.5206,400h-.00006a102.52044,102.52044,0,0,1-67.5102-25.366l-.00007-.00005A102.52049,102.52049,0,0,1,24,297.47946V257.88492a75.66129,75.66129,0,0,1,45.86782-69.54256l.64466-.27628a71.02664,71.02664,0,0,0,17.51144-10.73635L128,144h16Z" style="fill:#ffb401"/><path d="M264,400H376A79.99993,79.99993,0,0,0,440,368l0,0h24V336H440l-5.3288-7.10507a79.9999,79.9999,0,0,0-49.25687-30.62974L322.52281,286.473a99.79947,99.79947,0,0,1-57.37892-33.13849l0-.00006a99.79842,99.79842,0,0,0-63.48992-34.08907l-20.76186-2.57429L189.8436,360Z" style="fill:#ffb401"/><path d="M128,112v64L98.15711,217.78A54.53,54.53,0,0,0,88,249.475v26.37149A124.1535,124.1535,0,0,0,145.49853,380.59l.00008.00006a124.15351,124.15351,0,0,0,66.655,19.41h46.59163A109.25471,109.25471,0,0,0,336,368l0,0h16V336H336l0,0a109.25471,109.25471,0,0,0-77.25476-32h-4.219A54.52619,54.52619,0,0,1,200,249.47381v-.00007A54.52628,54.52628,0,0,0,189.8436,217.781L160,176V112Z" style="fill:#ffc431"/></svg>
