<?xml version="1.0" encoding="iso-8859-1"?>
<!-- Generator: Adobe Illustrator 19.0.0, SVG Export Plug-In . SVG Version: 6.00 Build 0)  -->
<svg xmlns="http://www.w3.org/2000/svg" xmlns:xlink="http://www.w3.org/1999/xlink" version="1.1" id="Layer_1" x="0px" y="0px" viewBox="0 0 511.999 511.999" style="enable-background:new 0 0 511.999 511.999;" xml:space="preserve">
<path style="fill:#8AD6F7;" d="M428.264,71.616h-77.86c-6.08,0-11.011,4.931-11.011,11.011v12.006  c0,6.08,4.931,11.011,11.011,11.011h54.791v373.265H106.802V105.643h54.792c6.081,0,11.011-4.931,11.011-11.011V82.627  c0-6.08-4.93-11.011-11.011-11.011H83.735c-6.08,0-11.011,4.931-11.011,11.011v418.361c0,6.08,4.931,11.011,11.011,11.011h344.529  c6.08,0,11.011-4.931,11.011-11.011V82.627C439.274,76.546,434.345,71.616,428.264,71.616z"/>
<path style="fill:#415B6B;" d="M341.648,43.936c-2.065-2.049-4.854-3.199-7.76-3.199c-0.024,0-0.05,0-0.074,0l-25.892,0.173  c-5.535-23.203-25.665-39.878-49.613-40.85c-1.697-0.085-3.18-0.073-4.426-0.01c-24.147,0.983-44.325,17.695-49.829,40.952  l-25.958,0.035c-6.076,0.009-10.995,4.935-10.995,11.011v42.4c0,6.08,4.931,11.011,11.011,11.011h155.778  c6.08,0,11.011-4.931,11.011-11.011V51.747C344.898,48.814,343.729,46.002,341.648,43.936z M240.218,52.057  c0-8.701,7.081-15.781,15.783-15.781c8.701,0,15.781,7.08,15.781,15.781c0,8.702-7.08,15.783-15.781,15.783  C247.299,67.84,240.218,60.76,240.218,52.057z"/>
<path style="fill:#F2F3F3;" d="M399.689,100.138H112.308c-6.08,0-11.011,4.931-11.011,11.011v362.254  c0,6.08,4.931,11.011,11.011,11.011h287.381c6.08,0,11.011-4.931,11.011-11.011V111.149  C410.699,105.069,405.77,100.138,399.689,100.138z"/>
<path style="fill:#415B6B;" d="M368.505,245.666l-32.446-26.616c-3.528-2.893-8.732-2.379-11.624,1.147  c-2.893,3.527-2.378,8.73,1.147,11.623l15.021,12.32c-44.551,2.611-86.693,20.415-119.71,50.82  c-35.616,32.799-57.548,77.324-61.755,125.373c-0.397,4.544,2.963,8.55,7.506,8.947c0.246,0.022,0.489,0.031,0.73,0.031  c4.235,0,7.841-3.239,8.217-7.538c7.626-87.105,79.651-156.041,166.147-161.149l-16.507,15.174  c-3.357,3.087-3.577,8.311-0.49,11.669c1.628,1.771,3.852,2.669,6.081,2.669c1.996,0,4-0.72,5.587-2.179l32.448-29.828  c1.761-1.619,2.733-3.921,2.666-6.311C371.455,249.427,370.355,247.183,368.505,245.666z"/>
<path style="fill:#8AD6F7;" d="M315.599,339.623c-24.646,0-44.698,20.051-44.698,44.697c0,24.646,20.052,44.698,44.698,44.698  c24.646,0,44.697-20.052,44.697-44.698C360.296,359.674,340.246,339.623,315.599,339.623z M315.599,412.502  c-15.539,0-28.182-12.643-28.182-28.182c0-15.538,12.641-28.181,28.182-28.181c15.538,0,28.181,12.643,28.181,28.181  C343.78,399.86,331.138,412.502,315.599,412.502z"/>
<path style="fill:#F27158;" d="M161.981,240.933l26.317-29.523l26.317,29.523c1.632,1.83,3.895,2.764,6.168,2.764  c1.954,0,3.918-0.69,5.491-2.093c3.406-3.035,3.704-8.255,0.669-11.659l-27.584-30.945l27.584-30.945  c3.035-3.405,2.735-8.625-0.669-11.659c-3.403-3.035-8.626-2.733-11.659,0.669l-26.317,29.523l-26.317-29.523  c-3.033-3.403-8.254-3.704-11.659-0.669c-3.406,3.035-3.704,8.255-0.669,11.659l27.584,30.945l-27.584,30.945  c-3.035,3.405-2.735,8.625,0.669,11.659c1.575,1.403,3.537,2.093,5.491,2.093C158.086,243.695,160.35,242.763,161.981,240.933z"/>
<path style="fill:#DBDCDD;" d="M399.689,100.138H132.127h-19.819c-6.08,0-11.011,4.931-11.011,11.011v19.818v342.436  c0,6.08,4.931,11.011,11.011,11.011h8.809v-11.011V305.345V119.957h250.409h28.163h11.011v-8.808  C410.699,105.069,405.77,100.138,399.689,100.138z"/>
<g>
</g>
<g>
</g>
<g>
</g>
<g>
</g>
<g>
</g>
<g>
</g>
<g>
</g>
<g>
</g>
<g>
</g>
<g>
</g>
<g>
</g>
<g>
</g>
<g>
</g>
<g>
</g>
<g>
</g>
</svg>
