<svg id="Capa_1" enable-background="new 0 0 512 512" height="512" viewBox="0 0 512 512" width="512" xmlns="http://www.w3.org/2000/svg"><g><path d="m320 325.31v64h-160l-96 53.38v-53.38h-64v-256h64z" fill="#d8e5ef"/><path d="m320 325.31v64h-160v-184z" fill="#bfd0d8"/><path d="m512 69.31v256h-64v53.38l-90.89-53.38h-293.11v-256z" fill="#eff4f9"/><path d="m512 69.31v256h-64v53.38l-90.89-53.38h-69.11v-256z" fill="#d8e5ef"/><path d="m122.38 152.18h331.24v30h-331.24z" fill="#54528e"/><path d="m288 152.18h165.62v30h-165.62z" fill="#443c67"/><path d="m122.38 212.43h210.74v30h-210.74z" fill="#54528e"/><g fill="#443c67"><path d="m288 212.43h45.12v30h-45.12z"/><path d="m363.375 212.433h30v30h-30z"/></g></g></svg>