<svg clip-rule="evenodd" fill-rule="evenodd" height="512" stroke-linejoin="round" stroke-miterlimit="2" viewBox="0 0 64 64" width="512" xmlns="http://www.w3.org/2000/svg" xmlns:serif="http://www.serif.com/"><g id="bin"><g fill="#425b72"><path d="m40 8c0-2.209-1.791-4-4-4-2.443 0-5.557 0-8 0-2.209 0-4 1.791-4 4v4h16z"/><path d="m6 14h52c1.104 0 2-.896 2-2s-.896-2-2-2h-52c-1.104 0-2 .896-2 2s.896 2 2 2z"/><path d="m12 20h40s-2.657 26.566-3.64 36.398c-.204 2.045-1.925 3.602-3.98 3.602-6.158 0-18.602 0-24.76 0-2.055 0-3.776-1.557-3.98-3.602-.983-9.832-3.64-36.398-3.64-36.398z"/></g><path d="m30 28v24c0 1.104.896 2 2 2s2-.896 2-2v-24c0-1.104-.896-2-2-2s-2 .896-2 2z" fill="#edebf1"/><path d="m22 28v24c0 1.104.896 2 2 2s2-.896 2-2v-24c0-1.104-.896-2-2-2s-2 .896-2 2z" fill="#edebf1"/><path d="m38 28v24c0 1.104.896 2 2 2s2-.896 2-2v-24c0-1.104-.896-2-2-2s-2 .896-2 2z" fill="#edebf1"/></g></svg>