<svg id="Clouds" enable-background="new 0 0 512 512" height="512" viewBox="0 0 512 512" width="512" xmlns="http://www.w3.org/2000/svg"><g><g><path d="m395.978 161.711c-5.66-.174-11.137.529-16.292 1.978-3.729-28.28-27.93-50.107-57.228-50.107-31.882 0-57.731 25.849-57.731 57.731 0 .185 0 .369.006.547-22.749 1.489-40.733 20.415-40.733 43.54v.653c0 22.062 17.885 39.947 39.947 39.947h144.106c22.062 0 39.947-17.885 39.947-39.947v-.017c0-29.116-22.92-53.429-52.022-54.325z" fill="#99d1ff"/><path d="m394.341 161.883c-5.166-.028-10.168.673-14.899 2.004-3.729-28.28-27.93-50.107-57.228-50.107-21.51 0-40.272 11.768-50.204 29.214 8.413-4.789 18.145-7.527 28.516-7.527 29.298 0 53.499 21.827 57.228 50.107 4.731-1.33 9.733-2.032 14.899-2.004 29.656.162 53.415 24.711 53.415 54.368 0 5.399-1.077 10.544-3.018 15.241 14.499-5.991 24.705-20.265 24.705-36.929 0-29.655-23.759-54.204-53.414-54.367z" fill="#88bee2"/></g><g><path d="m295.851 224.884c-7.63-.235-15.014.713-21.963 2.667-5.028-38.125-37.654-67.551-77.152-67.551-42.981 0-77.829 34.848-77.829 77.829 0 .249 0 .498.009.738-30.671 2.008-54.916 27.522-54.916 58.698v.881c0 29.743 24.111 53.854 53.854 53.854h194.276c29.743 0 53.854-24.111 53.854-53.854v-.024c0-39.251-30.9-72.029-70.133-73.238z" fill="#99d1ff"/><path d="m293.643 225.117c-6.964-.038-13.708.908-20.086 2.701-5.027-38.125-37.654-67.552-77.152-67.552-28.999 0-54.292 15.865-67.682 39.385 11.341-6.456 24.461-10.147 38.444-10.147 39.498 0 72.124 29.426 77.152 67.552 6.378-1.794 13.122-2.739 20.086-2.701 39.98.219 72.011 33.315 72.011 73.295 0 7.278-1.452 14.215-4.069 20.548 19.547-8.077 33.306-27.321 33.306-49.785.001-39.981-32.029-73.077-72.01-73.296z" fill="#88bee2"/></g></g></svg>