<?xml version="1.0" encoding="iso-8859-1"?>
<!-- Generator: Adobe Illustrator 19.0.0, SVG Export Plug-In . SVG Version: 6.00 Build 0)  -->
<svg xmlns="http://www.w3.org/2000/svg" xmlns:xlink="http://www.w3.org/1999/xlink" version="1.1" id="Layer_1" x="0px" y="0px" viewBox="0 0 512 512" style="enable-background:new 0 0 512 512;" xml:space="preserve">
<path style="fill:#A66342;" d="M507.548,78.024C475.27,43.409,423.625,21.927,372.87,21.927c-43.075,0-84.814,16.028-116.87,44.299  c-32.056-28.271-73.795-44.299-116.87-44.299c-50.756,0-102.4,21.482-134.678,56.097C1.558,81.03,0,85.148,0,89.377v384  c0,15.026,18.587,22.483,28.939,11.353c25.71-27.603,69.01-45.412,110.191-45.412c39.513,0,77.69,16.584,104.626,45.412  c3.338,3.562,7.791,5.343,12.243,5.231c4.562,0,9.017-1.781,12.243-5.231c26.936-28.828,65.113-45.412,104.626-45.412  c41.183,0,84.481,17.809,110.191,45.412c10.352,11.02,28.939,3.784,28.939-11.353v-384C512,85.148,510.442,81.03,507.548,78.024z"/>
<path style="fill:#995B3D;" d="M512,89.377v384c0,15.137-18.587,22.372-28.939,11.353c-25.71-27.603-69.01-45.412-110.191-45.412  c-39.513,0-77.69,16.584-104.626,45.412c-3.227,3.45-7.681,5.231-12.243,5.231V66.226c32.056-28.271,73.795-44.299,116.87-44.299  c50.756,0,102.4,21.482,134.678,56.097C510.442,81.03,512,85.148,512,89.377z"/>
<path style="fill:#E6EEFF;" d="M372.87,55.29c-37.444,0-90.224,15.015-116.87,41.146v-0.265  C229.358,70.117,176.522,55.29,139.13,55.29c-38.87,0-79.598,15.908-105.739,40.934v341.478  c30.294-20.076,68.25-31.804,105.739-31.804c35.923,0,87.62,11.104,116.87,31.206v0.1c29.255-20.125,80.927-31.307,116.87-31.307  c37.49,0,75.445,11.728,105.739,31.804V96.225C452.468,71.198,411.739,55.29,372.87,55.29z"/>
<path style="fill:#DAE2F2;" d="M478.609,437.703V96.225C452.468,71.198,411.739,55.29,372.87,55.29  c-37.444,0-90.224,15.015-116.87,41.146v340.67v0.1c29.255-20.125,80.927-31.307,116.87-31.307  C410.359,405.899,448.315,417.627,478.609,437.703z"/>
<g>
	<path style="fill:#A1A7B3;" d="M189.217,157.287H89.043c-9.217-1.128-16.696-8.6-16.696-17.823s7.479-16.696,16.696-16.696h100.174   c9.217,0,16.696,7.473,16.696,16.696C205.913,148.687,198.435,156.16,189.217,157.287z"/>
	<path style="fill:#A1A7B3;" d="M189.217,224.07H89.043c-9.217,0-16.696-7.473-16.696-16.696s7.479-16.696,16.696-16.696h100.174   c9.217,0,16.696,7.473,16.696,16.696S198.435,224.07,189.217,224.07z"/>
	<path style="fill:#A1A7B3;" d="M189.217,290.853H89.043c-9.217,0-16.696-7.473-16.696-16.696c0-9.223,7.479-16.696,16.696-16.696   h100.174c9.217,0,16.696,7.473,16.696,16.696C205.913,283.38,198.435,290.853,189.217,290.853z"/>
	<path style="fill:#A1A7B3;" d="M189.217,356.508H89.043c-9.217,0-16.696-7.473-16.696-16.696s7.479-16.696,16.696-16.696h100.174   c9.217,0,16.696,7.473,16.696,16.696S198.435,356.508,189.217,356.508z"/>
</g>
<g>
	<path style="fill:#979CA7;" d="M422.957,156.16H322.783c-9.217,0-16.696-7.473-16.696-16.696s7.479-16.696,16.696-16.696h100.174   c9.217,0,16.696,7.473,16.696,16.696C439.652,148.687,432.174,156.16,422.957,156.16z"/>
	<path style="fill:#979CA7;" d="M422.957,222.943H322.783c-9.217,0-16.696-7.473-16.696-16.696s7.479-16.696,16.696-16.696h100.174   c9.217,0,16.696,7.473,16.696,16.696S432.174,222.943,422.957,222.943z"/>
	<path style="fill:#979CA7;" d="M422.957,289.725H322.783c-9.217,0-16.696-7.473-16.696-16.696c0-9.223,7.479-16.696,16.696-16.696   h100.174c9.217,0,16.696,7.473,16.696,16.696C439.652,282.252,432.174,289.725,422.957,289.725z"/>
	<path style="fill:#979CA7;" d="M422.957,356.508H322.783c-9.217,0-16.696-7.473-16.696-16.696s7.479-16.696,16.696-16.696h100.174   c9.217,0,16.696,7.473,16.696,16.696S432.174,356.508,422.957,356.508z"/>
</g>
<g>
</g>
<g>
</g>
<g>
</g>
<g>
</g>
<g>
</g>
<g>
</g>
<g>
</g>
<g>
</g>
<g>
</g>
<g>
</g>
<g>
</g>
<g>
</g>
<g>
</g>
<g>
</g>
<g>
</g>
</svg>
