<svg id="Capa_1" enable-background="new 0 0 512 512" height="512" viewBox="0 0 512 512" width="512" xmlns="http://www.w3.org/2000/svg"><g><path d="m385.219 184.136c17.619-42.989-8.475-92.636-54.472-101.914 4.164-44.061-30.538-82.222-74.747-82.222-44.265 0-78.914 38.206-74.75 82.223-45.814 9.248-72.17 58.761-54.472 101.914-27.226 16.619-45.708 46.842-45.708 81.486 0 52.65 42.833 95.484 95.483 95.484h158.892c52.65 0 95.483-42.834 95.483-95.484.001-34.622-18.463-64.856-45.709-81.487z" fill="#24bf93"/><path d="m430.93 265.62c0 52.65-42.83 95.49-95.48 95.49h-79.45v-361.11c44.21 0 78.91 38.16 74.75 82.22 45.99 9.28 72.09 58.93 54.47 101.92 27.25 16.63 45.71 46.86 45.71 81.48z" fill="#00ac7f"/><path d="m344.505 260.527c6.558-13.568-8.881-27.294-21.591-19.162l-67.169 42.988-67.028-40.216c-12.826-7.697-27.818 6.186-21.137 19.564l43.42 86.943v96.814l-27.481 41.221c-6.631 9.946.509 23.321 12.481 23.321h120c11.952 0 19.122-13.358 12.481-23.32l-27.481-41.222v-96.917z" fill="#b65d49"/><path d="m301 447.46 27.48 41.22c6.64 9.96-.53 23.32-12.48 23.32h-60v-227.81l66.91-42.82c12.71-8.14 28.15 5.59 21.6 19.16l-43.51 90.01z" fill="#a14e3d"/></g></svg>