<svg height="512pt" viewBox="-47 0 512 512" width="512pt" xmlns="http://www.w3.org/2000/svg"><path d="m218.121094 245.640625v266.359375h-218.121094v-266.359375c0-38.902344 20.859375-74.730469 53.980469-94.140625.417969-.25.847656-.5 1.28125-.738281v-150.761719h107.589843v150.761719c.429688.238281.859376.488281 1.277344.738281 33.132813 19.410156 53.992188 55.238281 53.992188 94.140625zm0 0" fill="#60dd4e"/><path d="m218.121094 245.640625v266.359375h-109.0625v-512h53.792968v150.761719c.429688.238281.859376.488281 1.277344.738281 33.132813 19.410156 53.992188 55.238281 53.992188 94.140625zm0 0" fill="#00ad00"/><path d="m55.261719 0h107.589843v68h-107.589843zm0 0" fill="#ff7a53"/><path d="m109.058594 0h53.792968v68h-53.792968zm0 0" fill="#ff3b62"/><path d="m411.378906 340.28125c-11.820312 27.949219-36.847656 47.410156-66.050781 52.429688v89.289062h26v30h-82v-30h26v-89.289062c-29.1875-5.019532-54.21875-24.480469-66.039063-52.429688-5.417968-12.820312-7.597656-27.28125-6.300781-41.8125l8.832031-98.46875h157.019532l8.839844 98.46875c1.300781 14.53125-.878907 28.992188-6.300782 41.8125zm0 0" fill="#dcfffd"/><path d="m55.261719 57.519531h107.589843v30h-107.589843zm0 0" fill="#ffe470"/><path d="m55.261719 120.691406h107.589843v30h-107.589843zm0 0" fill="#ffe470"/><path d="m0 248h148.050781v179h-148.050781zm0 0" fill="#fff5cb"/><path d="m109.058594 248h38.992187v179h-38.992187zm0 0" fill="#ffdba9"/><path d="m109.058594 57.519531h53.792968v30h-53.792968zm0 0" fill="#ffd400"/><path d="m109.058594 120.691406h53.792968v30h-53.792968zm0 0" fill="#ffd400"/><path d="m411.378906 340.28125c-11.820312 27.949219-36.847656 47.410156-66.050781 52.429688v89.289062h26v30h-41v-312h78.511719l8.839844 98.46875c1.300781 14.53125-.878907 28.992188-6.300782 41.8125zm0 0" fill="#8afffc"/><path d="m411.378906 340.28125c-13.808594 32.628906-45.617187 53.71875-81.050781 53.71875-35.429687 0-67.238281-21.089844-81.039063-53.71875-5.417968-12.820312-7.597656-27.28125-6.300781-41.8125l1.640625-18.257812h171.410156l1.640626 18.257812c1.300781 14.53125-.878907 28.992188-6.300782 41.8125zm0 0" fill="#ff7a53"/><path d="m411.378906 340.28125c-13.808594 32.628906-45.617187 53.71875-81.050781 53.71875v-113.789062h85.710937l1.640626 18.257812c1.300781 14.53125-.878907 28.992188-6.300782 41.8125zm0 0" fill="#ff3b62"/></svg>