<svg enable-background="new 0 0 58 59" height="512" viewBox="0 0 58 59" width="512" xmlns="http://www.w3.org/2000/svg"><path d="m43 46c-.552 0-1-.447-1-1v-10c0-.553.448-1 1-1s1 .447 1 1v10c0 .553-.448 1-1 1z" fill="#8db0c6"/><path d="m20.521 40.475c-.581-2.972-1.408-5.829-1.667-8.864-.211-2.474 1.902-4.399 4.139-4.883-.038-2.53-.639-5.02-1.771-7.285-.804-1.607-1.222-3.378-1.222-5.173 0-.844-.092-1.685-.275-2.509l-1.725-7.761v-1h-8v1l-1.725 7.761c-.183.823-.275 1.665-.275 2.509 0 1.796-.418 3.567-1.221 5.172-1.051 2.102-1.645 4.398-1.756 6.74 2.361.301 4.352 2.582 4.295 4.964-.031 1.273-.262 2.54-.233 3.813 0 .132.016.264.025.396.006-.043.033.08.088.415.221.88.306 1.822.213 2.725-.267 2.6-1.833 4.552-4.412 4.922v6.583h18v-6.455c-1.229-.642-2.218-1.738-2.478-3.07z" fill="#426d5f"/><path d="m51 17h-8-8s-3 3-3 7c0 6.08 4.92 11 11 11s11-4.92 11-11c0-4-3-7-3-7z" fill="#c6e2f7"/><path d="m36 24c0 3.859 3.14 7 7 7s7-3.141 7-7z" fill="#dd352e"/><path d="m45 45h-4c-2.209 0-4 1.791-4 4v1h12v-1c0-2.209-1.791-4-4-4z" fill="#c6e2f7"/><path d="m12.001 14c-.061 0-.123-.006-.186-.018-.543-.102-.9-.624-.799-1.167.194-1.036.451-2.013.699-2.957.178-.679.358-1.362.517-2.075.12-.539.654-.874 1.193-.76.539.12.879.654.759 1.193-.164.739-.35 1.446-.534 2.15-.25.952-.486 1.851-.667 2.817-.09.482-.51.817-.982.817z" fill="#6f9b8b"/><path d="m10.356 22.231c-.149 0-.301-.033-.443-.104-.495-.245-.697-.845-.452-1.34.173-.35.339-.662.494-.956.546-1.034.907-1.718 1.052-2.948.065-.549.561-.941 1.111-.876.549.065.94.562.876 1.11-.189 1.601-.69 2.549-1.27 3.647-.148.279-.305.578-.47.911-.176.352-.53.556-.898.556z" fill="#6f9b8b"/><path d="m5 26h18v18h-18z" fill="#f7e6a1"/><path d="m10.464 31.464h7.071v7.071h-7.071z" fill="#c4b36c" transform="matrix(.707 -.707 .707 .707 -20.648 20.151)"/><path d="m8 53v2c0 2.209 1.791 4 4 4h34c2.209 0 4-1.791 4-4v-2z" fill="#afb6bb"/><path d="m52 55h-46c-3.314 0-6-2.686-6-6h58c0 3.314-2.686 6-6 6z" fill="#e7eced"/><path d="m42.999 25c-.201 0-.404-.061-.581-.187-.449-.32-.553-.945-.232-1.395l10-14c.321-.45.946-.554 1.395-.232.449.32.553.945.232 1.395l-10 14c-.194.273-.502.419-.814.419z" fill="#8db0c6"/><path d="m18 4h-8c-1.105 0-2-.895-2-2 0-1.105.895-2 2-2h8c1.105 0 2 .895 2 2 0 1.105-.895 2-2 2z" fill="#2d5144"/></svg>