<svg height="503pt" viewBox="0 -40 503.97515 503" width="503pt" xmlns="http://www.w3.org/2000/svg"><path d="m374 96.488281s-35.121094 31.359375-59.359375 7.277344c-24.320313-24-12.640625-103.277344-12.640625-103.277344s-168 96-168 264v13.902344c21.664062 10.59375 55 58.328125 85 74.816406l127.878906-30.71875c31.28125-8.96875 57.441406-18.640625 99.121094-42.488281v-15.511719c0-101.511719-72-168-72-168zm0 0" fill="#e9573f"/><path d="m342 312.488281-1.207031 19.671875c-63.792969 18.3125-116.839844 3.40625-134.792969-5.375v-22.296875c0-88 53.601562-114.5625 53.601562-114.5625s2.398438 66.5625 53.917969 33.691407c0 0 28.480469 24.871093 28.480469 88.871093zm0 0" fill="#ffce54"/><path d="m4 219.6875c53.039062 55.03125 88.640625 59.265625 88.640625 59.265625-10.402344 6.09375-20.640625 17.199219-24.242187 31.765625h-.078126c-11.839843-30.71875-68.320312-76.800781-68.320312-76.800781zm0 0" fill="#a0d468"/><path d="m503.191406 260.488281c-99.191406 243.511719-392.953125 167.03125-432.640625 80.078125-4.160156-10.96875-4.390625-21.046875-2.160156-29.839844 3.601563-14.558593 13.839844-25.671874 24.242187-31.765624 6.320313-3.671876 12.71875-5.511719 17.597657-5.183594 1.363281-.167969 2.800781-.25 4.160156-.25 20.640625 0 41.28125 18.886718 71.28125 35.359375 35.441406 19.457031 84.082031 35.6875 161.199219 13.609375 31.28125-8.96875 67.28125-24.160156 108.953125-48 10.96875-6.328125 22.40625-13.199219 34.167969-20.71875 6.246093-3.929688 16.96875-3.058594 13.199218 6.710937zm0 0" fill="#ed5564"/><path d="m68.398438 326.71875c3.601562-14.558594 13.839843-25.671875 24.242187-31.765625 6.320313-3.671875 12.71875-5.511719 17.597656-5.1875 1.363281-.167969 2.800781-.246094 4.160157-.246094 20.640624 0 41.28125 18.886719 71.28125 35.359375 35.441406 19.457032 84.082031 35.6875 161.199218 13.609375 31.28125-8.96875 67.28125-24.160156 108.953125-48 10.96875-6.328125 22.40625-13.199219 34.167969-20.722656 3.007812-1.886719 7.039062-2.621094 10.007812-1.828125 1.082032-2.472656 2.160157-4.921875 3.183594-7.457031 3.769532-9.769531-6.953125-10.640625-13.191406-6.722657-11.761719 7.515626-23.191406 14.394532-34.167969 20.722657-41.671875 23.839843-77.671875 39.03125-108.953125 48-77.125 22.078125-125.765625 5.839843-161.199218-13.609375-30-16.472656-50.640626-35.359375-71.28125-35.359375-1.359376 0-2.796876.078125-4.160157.246093-4.878906-.328124-11.277343 1.515626-17.597656 5.1875-10.402344 6.09375-20.640625 17.199219-24.242187 31.765626-1.503907 5.90625-1.75 12.425781-.582032 19.359374.191406-1.09375.3125-2.269531.582032-3.351562zm0 0" fill="#fc6e51"/></svg>