<svg id="Layer_1" enable-background="new 0 0 512 512" height="512" viewBox="0 0 512 512" width="512" xmlns="http://www.w3.org/2000/svg"><g><path d="m400.599 126.4h-24.1c-39.344 0-71.233-31.832-71.233-71.233v-40.167c0-8.284 6.716-15 15-15h24.1c39.339 0 71.233 31.824 71.233 71.233v40.167c0 8.284-6.716 15-15 15z" fill="#41d76c"/><path d="m333.401 193.6c-3.839 0-7.678-1.464-10.606-4.394-5.858-5.857-5.858-15.355 0-21.213l67.198-67.199c2.813-2.813 6.628-4.394 10.606-4.394h96.401c8.284 0 15 6.716 15 15s-6.716 15-15 15h-90.188l-62.805 62.805c-2.928 2.93-6.767 4.395-10.606 4.395z" fill="#6d3700"/><g><ellipse cx="231.151" cy="144.52" fill="#78116e" rx="63.199" ry="63.203"/><path d="m275.839 99.837c24.658 24.658 24.658 64.706 0 89.375-24.669 24.658-64.717 24.658-89.385 0z" fill="#50003c"/><circle cx="299.314" cy="212.687" fill="#a021a0" r="63.199"/><path d="m344.002 167.999c24.658 24.658 24.658 64.706 0 89.375-24.669 24.658-64.717 24.658-89.385 0z" fill="#78116e"/><ellipse cx="367.481" cy="280.85" fill="#c832d2" rx="63.203" ry="63.2"/><path d="m412.174 236.162c24.658 24.658 24.658 64.706 0 89.375-24.669 24.658-64.717 24.658-89.385 0z" fill="#a021a0"/><ellipse cx="63.187" cy="448.818" fill="#78116e" rx="63.203" ry="63.2"/><path d="m107.879 404.131c24.658 24.658 24.658 64.706 0 89.375-24.669 24.658-64.717 24.658-89.385 0z" fill="#50003c"/><ellipse cx="88.134" cy="355.7" fill="#c832d2" rx="63.2" ry="63.203"/><path d="m132.822 311.018c24.658 24.658 24.658 64.706 0 89.375-24.669 24.658-64.717 24.658-89.385 0z" fill="#a021a0"/><circle cx="113.086" cy="262.582" fill="#a021a0" r="63.198"/><path d="m157.774 217.894c24.658 24.658 24.658 64.706 0 89.375-24.669 24.658-64.717 24.658-89.385 0z" fill="#78116e"/><path d="m200.993 379.18c24.658 24.658 24.658 64.706 0 89.374-24.669 24.669-64.716 24.669-89.385 0-24.658-24.669-24.658-64.716 0-89.374 24.669-24.669 64.717-24.669 89.385 0z" fill="#78116e"/><path d="m200.993 379.179c24.658 24.658 24.658 64.706 0 89.375-24.669 24.658-64.717 24.658-89.385 0z" fill="#50003c"/><ellipse cx="181.252" cy="330.753" fill="#c832d2" rx="63.203" ry="63.199"/><path d="m225.945 286.065c24.658 24.658 24.658 64.706 0 89.375-24.669 24.658-64.717 24.658-89.385 0z" fill="#a021a0"/><circle cx="249.419" cy="398.915" fill="#78116e" r="63.198"/><path d="m294.107 354.228c24.658 24.658 24.658 64.706 0 89.375-24.669 24.658-64.717 24.658-89.385 0z" fill="#50003c"/><path d="m182.725 124.779c24.669 24.67 24.669 64.718 0 89.376-24.669 24.67-64.718 24.67-89.376 0-24.669-24.658-24.669-64.706 0-89.376 24.659-24.669 64.707-24.669 89.376 0z" fill="#78116e"/><path d="m182.725 124.78c24.658 24.658 24.658 64.706 0 89.375-24.669 24.658-64.717 24.658-89.385 0z" fill="#50003c"/><path d="m250.888 192.941c24.669 24.669 24.669 64.717 0 89.386-24.658 24.658-64.706 24.658-89.375 0-24.669-24.669-24.669-64.716 0-89.386 24.668-24.658 64.716-24.658 89.375 0z" fill="#a021a0"/><path d="m250.888 192.952c24.658 24.658 24.658 64.706 0 89.375-24.669 24.658-64.717 24.658-89.385 0z" fill="#78116e"/><path d="m319.059 261.114c24.658 24.658 24.658 64.706 0 89.374-24.669 24.669-64.716 24.669-89.385 0-24.658-24.669-24.658-64.716 0-89.374 24.669-24.669 64.717-24.669 89.385 0z" fill="#c832d2"/><path d="m319.059 261.113c24.658 24.658 24.658 64.706 0 89.375-24.669 24.658-64.717 24.658-89.385 0z" fill="#a021a0"/><path d="m387.222 329.276c24.669 24.67 24.669 64.718 0 89.376-24.669 24.669-64.717 24.669-89.376 0-24.669-24.659-24.669-64.707 0-89.376 24.658-24.669 64.706-24.669 89.376 0z" fill="#78116e"/><path d="m387.222 329.277c24.658 24.658 24.658 64.706 0 89.375-24.669 24.658-64.717 24.658-89.385 0z" fill="#50003c"/></g></g></svg>