<svg id="Layer_1" enable-background="new 0 0 512 512" height="512" viewBox="0 0 512 512" width="512" xmlns="http://www.w3.org/2000/svg"><g><path d="m510.639 214.122c-2.55-5.58-8.258-9.042-14.369-8.747l-101.655 4.933 19.348-100.041c1.165-6.026-1.458-12.153-6.622-15.47-5.165-3.317-11.83-3.152-16.822.415l-82.843 59.158-37.745-94.611c-2.274-5.701-7.793-9.442-13.932-9.442s-11.658 3.74-13.932 9.442l-37.745 94.611-82.842-59.158c-4.995-3.567-11.658-3.731-16.823-.415-5.164 3.316-7.787 9.444-6.621 15.47l19.348 100.041-101.654-4.933c-6.124-.294-11.82 3.167-14.369 8.747-2.55 5.58-1.445 12.151 2.79 16.59l82.609 86.582h94.787c.007-.364.016-.728-.004-1.094-.079-1.435-.119-2.84-.119-4.178 0-41.121 33.455-74.576 74.576-74.576 41.122 0 74.576 33.455 74.576 74.576 0 1.332-.04 2.738-.119 4.178-.02.366-.01.73-.004 1.094h94.787l82.609-86.582c4.235-4.439 5.34-11.01 2.79-16.59z" fill="#ffd92e"/><path d="m510.639 214.122c-2.55-5.58-8.258-9.042-14.369-8.747l-101.655 4.933 19.348-100.041c1.165-6.026-1.458-12.153-6.622-15.47-5.165-3.317-11.83-3.152-16.822.415l-82.843 59.158-37.745-94.611c-2.274-5.701-7.793-9.442-13.932-9.442v187.128c41.122 0 74.576 33.455 74.576 74.576 0 1.332-.04 2.738-.119 4.178-.02.366-.01.73-.004 1.094h94.787l82.609-86.582c4.236-4.438 5.341-11.009 2.791-16.589z" fill="#fb3"/><path d="m360.552 310.235c-.958-56.842-47.487-102.789-104.553-102.789s-103.595 45.948-104.553 102.789z" fill="#fb3"/><path d="m503.173 366.197c-2.503-1.131-4.941-2.435-7.522-3.815-9.869-5.278-22.153-11.847-44.75-11.847s-34.88 6.569-44.749 11.847c-8.674 4.638-15.524 8.302-30.603 8.302s-21.929-3.664-30.601-8.302c-9.87-5.278-22.152-11.847-44.748-11.847s-34.88 6.569-44.749 11.847c-8.673 4.638-15.523 8.302-30.603 8.302-15.079 0-21.93-3.664-30.603-8.301-9.87-5.278-22.153-11.847-44.75-11.847-22.596 0-34.879 6.569-44.748 11.847-8.673 4.638-15.523 8.301-30.601 8.301-14.643 0-21.393-3.612-29.938-8.185-7.016-3.754-14.967-8.01-26.675-10.011-8.167-1.395-15.917 4.092-17.313 12.257-1.396 8.166 4.092 15.917 12.258 17.313 6.905 1.181 11.614 3.701 17.575 6.891 9.769 5.228 21.927 11.735 44.093 11.735 22.596 0 34.879-6.569 44.748-11.847 8.673-4.638 15.523-8.301 30.601-8.301 15.079 0 21.93 3.664 30.603 8.302 9.87 5.278 22.153 11.847 44.75 11.847s34.88-6.569 44.75-11.847c8.673-4.638 15.523-8.302 30.602-8.302 15.078 0 21.928 3.664 30.6 8.301 9.87 5.278 22.153 11.847 44.749 11.847 22.597 0 34.88-6.569 44.75-11.847 8.673-4.638 15.523-8.302 30.602-8.302 15.08 0 21.93 3.664 30.604 8.302 2.9 1.551 5.9 3.155 9.315 4.698 7.551 3.412 16.435.057 19.845-7.492 3.412-7.549.058-16.434-7.492-19.846z" fill="#00e4ef"/><path d="m503.173 427.197c-2.504-1.131-4.941-2.435-7.522-3.815-9.87-5.278-22.153-11.847-44.75-11.847s-34.88 6.569-44.749 11.847c-8.674 4.638-15.524 8.302-30.603 8.302s-21.929-3.664-30.601-8.302c-9.87-5.278-22.152-11.847-44.748-11.847s-34.88 6.569-44.749 11.847c-8.673 4.638-15.523 8.302-30.603 8.302-15.079 0-21.93-3.664-30.603-8.301-9.87-5.278-22.153-11.847-44.75-11.847-22.596 0-34.879 6.569-44.748 11.847-8.673 4.638-15.523 8.301-30.601 8.301-14.643 0-21.393-3.612-29.938-8.185-7.016-3.754-14.967-8.01-26.675-10.011-8.167-1.395-15.917 4.092-17.313 12.257-1.396 8.166 4.092 15.917 12.258 17.313 6.905 1.181 11.614 3.701 17.575 6.891 9.769 5.228 21.927 11.735 44.093 11.735 22.596 0 34.879-6.569 44.748-11.847 8.673-4.638 15.523-8.301 30.601-8.301 15.079 0 21.93 3.664 30.603 8.302 9.87 5.278 22.153 11.847 44.75 11.847s34.88-6.569 44.75-11.847c8.673-4.638 15.523-8.302 30.602-8.302 15.078 0 21.928 3.664 30.6 8.301 9.87 5.278 22.153 11.847 44.749 11.847 22.597 0 34.88-6.569 44.75-11.847 8.673-4.638 15.523-8.302 30.602-8.302 15.08 0 21.93 3.664 30.603 8.301 2.901 1.551 5.901 3.155 9.316 4.699 7.548 3.412 16.435.057 19.845-7.492 3.412-7.55.058-16.435-7.492-19.846z" fill="#00e4ef"/><path d="m256 207.445v102.789h104.552c-.958-56.841-47.486-102.788-104.552-102.789z" fill="#ff884d"/><path d="m12.475 321.059c6.905 1.18 11.614 3.7 17.575 6.891 9.769 5.228 21.927 11.735 44.093 11.735 22.596 0 34.879-6.569 44.748-11.847 8.673-4.638 15.523-8.301 30.601-8.301 15.079 0 21.93 3.664 30.603 8.302 9.87 5.278 22.153 11.847 44.75 11.847s34.88-6.569 44.75-11.847c8.673-4.638 15.523-8.302 30.602-8.302 15.078 0 21.928 3.664 30.6 8.301 9.87 5.278 22.153 11.847 44.749 11.847 22.597 0 34.88-6.569 44.75-11.847 8.673-4.638 15.523-8.302 30.602-8.302 15.08 0 21.93 3.664 30.604 8.302 2.9 1.551 5.9 3.155 9.315 4.698 7.551 3.412 16.435.057 19.845-7.492 3.412-7.549.058-16.435-7.492-19.846-2.503-1.131-4.941-2.435-7.522-3.815-9.869-5.278-22.153-11.847-44.75-11.847s-34.88 6.569-44.749 11.847c-8.674 4.638-15.524 8.302-30.603 8.302s-21.929-3.664-30.601-8.302c-9.87-5.278-22.152-11.847-44.748-11.847s-34.88 6.569-44.749 11.847c-8.673 4.638-15.523 8.302-30.603 8.302-15.079 0-21.93-3.664-30.603-8.301-9.87-5.278-22.153-11.847-44.75-11.847-22.596 0-34.879 6.569-44.748 11.847-8.673 4.638-15.523 8.301-30.601 8.301-14.643 0-21.393-3.612-29.938-8.185-7.016-3.754-14.967-8.01-26.675-10.012-8.171-1.397-15.917 4.093-17.313 12.258-1.396 8.166 4.092 15.917 12.258 17.313z" fill="#00e4ef"/><g fill="#00d5dd"><path d="m300.198 380.535c15.078 0 21.928 3.664 30.6 8.301 9.87 5.278 22.153 11.847 44.749 11.847 22.597 0 34.88-6.569 44.75-11.847 8.673-4.638 15.523-8.302 30.602-8.302 15.08 0 21.93 3.664 30.604 8.302 2.9 1.551 5.9 3.155 9.315 4.698 7.551 3.412 16.435.057 19.845-7.492 3.412-7.549.058-16.435-7.492-19.846-2.503-1.131-4.941-2.435-7.522-3.815-9.869-5.278-22.153-11.847-44.75-11.847s-34.88 6.569-44.749 11.847c-8.674 4.638-15.524 8.302-30.603 8.302s-21.929-3.664-30.601-8.302c-9.87-5.278-22.152-11.847-44.748-11.847-22.179 0-34.421 6.328-44.199 11.552v33.232c5.265-2.029 9.627-4.36 13.597-6.483 8.673-4.636 15.523-8.3 30.602-8.3z"/><path d="m269.596 449.836c8.673-4.638 15.523-8.302 30.602-8.302 15.078 0 21.928 3.664 30.6 8.301 9.87 5.278 22.153 11.847 44.749 11.847 22.597 0 34.88-6.569 44.75-11.847 8.673-4.638 15.523-8.302 30.602-8.302 15.08 0 21.93 3.664 30.603 8.301 2.901 1.551 5.901 3.155 9.316 4.699 7.548 3.412 16.435.057 19.845-7.492 3.412-7.549.058-16.434-7.492-19.846-2.504-1.131-4.941-2.435-7.522-3.815-9.87-5.278-22.153-11.847-44.75-11.847s-34.88 6.569-44.749 11.847c-8.674 4.638-15.524 8.302-30.603 8.302s-21.929-3.664-30.601-8.302c-9.87-5.278-22.152-11.847-44.748-11.847-22.179 0-34.421 6.328-44.199 11.552v33.232c5.265-2.027 9.627-4.358 13.597-6.481z"/><path d="m300.198 319.536c15.078 0 21.928 3.664 30.6 8.301 9.87 5.278 22.153 11.847 44.749 11.847 22.597 0 34.88-6.569 44.75-11.847 8.673-4.638 15.523-8.302 30.602-8.302 15.08 0 21.93 3.664 30.604 8.302 2.9 1.551 5.9 3.155 9.315 4.698 7.551 3.412 16.435.057 19.845-7.492 3.412-7.549.058-16.435-7.492-19.846-2.503-1.131-4.941-2.435-7.522-3.815-9.869-5.278-22.153-11.847-44.75-11.847s-34.88 6.569-44.749 11.847c-8.674 4.638-15.524 8.302-30.603 8.302s-21.929-3.664-30.601-8.302c-9.87-5.278-22.152-11.847-44.748-11.847-22.179 0-34.421 6.328-44.199 11.552v33.232c5.265-2.029 9.627-4.36 13.597-6.483 8.673-4.636 15.523-8.3 30.602-8.3z"/></g></g></svg>