<svg id="Layer_1" enable-background="new 0 0 509.674 509.674" height="512" viewBox="0 0 509.674 509.674" width="512" xmlns="http://www.w3.org/2000/svg"><g id="XMLID_408_"><path id="XMLID_891_" d="m150.177 164.674-7.294-43.759 9.396-16.741 20.196 11.809 8.115 48.691-13.061 10.493z" fill="#7ec8e3"/><path id="XMLID_886_" d="m68.645 133.288 70.293-133.288 107.289 103.691z" fill="#a1e2f8"/><path id="XMLID_881_" d="m111.029 164.674v285c0 33.084 26.916 60 60 60h90l10-131.746-10-213.254z" fill="#f0f7ff"/><path id="XMLID_792_" d="m261.029 164.674v345h90c33.084 0 60-26.916 60-60v-285z" fill="#dfe7f4"/><path id="XMLID_787_" d="m141.029 299.674v150c0 16.542 13.458 30 30 30h90l10-82.5-10-97.5z" fill="#ff637b"/><g fill="#e63950"><path id="XMLID_782_" d="m261.029 299.674v180h90c16.542 0 30-13.458 30-30v-150h-72.968l-17.699 16.667-13.032-16.667z"/><path id="XMLID_751_" d="m186.029 359.674h30v30h-30z"/><path id="XMLID_742_" d="m211.029 419.674h30v30h-30z"/></g><path id="XMLID_448_" d="m321.029 389.674h30v30h-30z" fill="#cd0000"/><path id="XMLID_442_" d="m323.997 89.674-46.667 210 15.699 10 15.032-10 40-180h92.968v-30z" fill="#c7cfe1"/><path id="XMLID_409_" d="m261.387 371.42 29.285 6.508 17.389-78.254h-30.731z" fill="#cd0000"/></g></svg>