<svg id="Capa_1" enable-background="new 0 0 512 512" height="512" viewBox="0 0 512 512" width="512" xmlns="http://www.w3.org/2000/svg"><g><g><path d="m164.2 110.062h30.214v49.395h-30.214z" fill="#ecfaff" transform="matrix(.707 -.707 .707 .707 -42.771 166.26)"/><path d="m307.273 119.652h49.395v30.214h-49.395z" fill="#c4e6fe" transform="matrix(.707 -.707 .707 .707 1.943 274.209)"/></g><g><path d="m240.532 53.429v81.829h15.468l7.003-38.192-7.003-43.637z" fill="#ecfaff"/><path d="m256 53.429h14.746v81.829h-14.746z" fill="#c4e6fe"/></g><g><g><path d="m77.844 241.762-77.844 24.408 48.63 65.504-.841 81.578 77.325-26.01 20.684-91.475-20.684-120.497z" fill="#fff06d"/></g><path d="m250.228 266.17-77.845-24.408-47.269-66.492v211.972l77.325 26.01-.842-81.578z" fill="#fed943"/></g><g><g><path d="m339.617 241.762-77.845 24.408 48.63 65.504-.841 81.578 77.325-26.01 20.684-91.475-20.684-120.497z" fill="#fff06d"/></g><path d="m512 266.17-77.844-24.408-47.27-66.492v211.972l77.325 26.01-.842-81.578z" fill="#fed943"/></g><g><g><path d="m208.73 287.081-77.844 24.409 48.63 65.503-.841 81.578 77.325-26.009 20.684-91.475-20.684-120.498z" fill="#fff06d"/></g><path d="m381.114 311.49-77.844-24.409-47.27-66.492v211.973l77.325 26.009-.842-81.578z" fill="#fed943"/></g></g></svg>