<?xml version="1.0" encoding="iso-8859-1"?>
<!-- Generator: Adobe Illustrator 19.0.0, SVG Export Plug-In . SVG Version: 6.00 Build 0)  -->
<svg version="1.1" id="Capa_1" xmlns="http://www.w3.org/2000/svg" xmlns:xlink="http://www.w3.org/1999/xlink" x="0px" y="0px"
	 viewBox="0 0 468.293 468.293" style="enable-background:new 0 0 468.293 468.293;" xml:space="preserve">
<path style="fill:#2F4859;" d="M468.293,99.903V31.689C468.293,14.188,454.105,0,436.604,0H31.689C14.188,0,0,14.188,0,31.689
	v68.213H468.293z"/>
<path style="fill:#E1E6E9;" d="M0,84.608v351.996c0,17.501,14.188,31.689,31.689,31.689h404.915
	c17.501,0,31.689-14.188,31.689-31.689V84.608H0z"/>
<rect x="184.222" y="160.557" transform="matrix(-0.7071 0.7071 -0.7071 -0.7071 508.4525 270.5059)" style="fill:#F7BE56;" width="27.96" height="160.001"/>
<polygon style="fill:#2F4859;" points="118.245,140 97.696,160.549 131.383,221.051 178.746,173.687 "/>
<polygon style="fill:#D5D6DB;" points="131.243,147.238 118.245,140 97.696,160.549 104.933,173.547 "/>
<path style="fill:#E56353;" d="M212.553,316.117l84.097,84.097c16.916,16.916,44.343,16.917,61.26,0
	c16.917-16.917,16.916-44.343,0-61.26l-84.097-84.097L212.553,316.117z"/>
<path style="fill:#27A2DB;" d="M360.967,231.399c-17.482,17.482-43.333,21.354-64.624,11.738l-95.532,95.532
	c9.616,21.291,5.745,47.142-11.739,64.624c-14.423,14.423-34.591,19.606-53.073,15.547l19.543-19.543l1.186-45.456l-45.455,1.249
	L91.73,374.634c-3.996-18.544,1.123-38.649,15.61-53.136c17.483-17.421,43.332-21.292,64.624-11.739l95.469-95.469
	c-9.616-21.293-5.745-47.204,11.739-64.688c14.486-14.424,34.654-19.605,53.136-15.547L312.763,153.6l-1.186,45.456l45.393-1.187
	l19.606-19.605C380.573,196.808,375.39,216.976,360.967,231.399z"/>
<path style="fill:#FCD462;" d="M68.252,29.138c-7.471,0-13.529,6.057-13.529,13.528c0,7.472,6.058,13.529,13.529,13.529
	s13.529-6.057,13.529-13.529C81.781,35.195,75.723,29.138,68.252,29.138z"/>
<path style="fill:#44C4A1;" d="M114.469,29.138c-7.471,0-13.529,6.057-13.529,13.528c0,7.472,6.058,13.529,13.529,13.529
	c7.471,0,13.529-6.057,13.529-13.529C127.998,35.195,121.94,29.138,114.469,29.138z"/>
<path style="fill:#E56353;" d="M160.686,29.138c-7.471,0-13.529,6.057-13.529,13.528c0,7.472,6.058,13.529,13.529,13.529
	s13.529-6.057,13.529-13.529C174.215,35.195,168.157,29.138,160.686,29.138z"/>
<g>
</g>
<g>
</g>
<g>
</g>
<g>
</g>
<g>
</g>
<g>
</g>
<g>
</g>
<g>
</g>
<g>
</g>
<g>
</g>
<g>
</g>
<g>
</g>
<g>
</g>
<g>
</g>
<g>
</g>
</svg>
