<svg id="Layer_3" height="512" viewBox="0 0 64 64" width="512" xmlns="http://www.w3.org/2000/svg" data-name="Layer 3"><path d="m2 62v-60h34l12 12v48z" fill="#e2e2e2"/><path d="m45 57v-46l-9-9h-34v55z" fill="#f2f2f2"/><path d="m5 30h21.875v2h-21.875z" fill="#ccc"/><path d="m5 34h20.322v2h-20.322z" fill="#ccc"/><path d="m5 38h20.035v2h-20.035z" fill="#ccc"/><path d="m5 42h20.919v2h-20.919z" fill="#ccc"/><circle cx="38" cy="38" fill="#78a0d4" r="14"/><path d="m51.058 43.058a14.045 14.045 0 0 1 -8 8l1.821 1.821a3 3 0 0 0 4.242 0l3.758-3.758a3 3 0 0 0 0-4.242z" fill="#3b5892"/><circle cx="38" cy="38" fill="#fff" r="9"/><circle cx="17" cy="17" fill="#f0ae42" r="9"/><path d="m24 16a8.991 8.991 0 0 0 -3.977-7.469 9 9 0 0 0 -8.046 15.938 8.981 8.981 0 0 0 12.023-8.469z" fill="#f9d266"/><path d="m36 2v12h12" fill="#ccc"/><path d="m21 15v-1a3 3 0 0 0 -3-3v-1h-2v1a3 3 0 0 0 -3 3v1a3 3 0 0 0 3 3v3a1 1 0 0 1 -1-1v-1h-2v1a3 3 0 0 0 3 3v1h2v-1a3 3 0 0 0 3-3v-1a3 3 0 0 0 -3-3v-3a1 1 0 0 1 1 1v1zm-2 4v1a1 1 0 0 1 -1 1v-3a1 1 0 0 1 1 1zm-3-3a1 1 0 0 1 -1-1v-1a1 1 0 0 1 1-1z" fill="#f4a93c"/><g fill="#ccc"><path d="m29 19h16v2h-16z"/><path d="m29.231 36h12.769v-2h-12.053a8.852 8.852 0 0 0 -.716 2z"/><path d="m42 40v-2h-13a8.971 8.971 0 0 0 .231 2z"/><path d="m31.305 44h10.695v-2h-12.053a8.974 8.974 0 0 0 1.358 2z"/><path d="m21 55h20v2h-20z"/></g><path d="m49 53 8.172 8.172a2.828 2.828 0 0 0 2 .828 2.828 2.828 0 0 0 2.828-2.828 2.828 2.828 0 0 0 -.828-2l-8.172-8.172" fill="#f0ae42"/></svg>