<svg height="512" viewBox="0 0 128 128" width="512" xmlns="http://www.w3.org/2000/svg"><g><path d="m84.771 6.306h-41.542c-16.958 0-30.7 13.3-30.7 29.7a7.146 7.146 0 0 0 7.261 7.023h88.43a7.146 7.146 0 0 0 7.261-7.023c-.005-16.406-13.752-29.7-30.71-29.7z" fill="#ef983b"/><rect fill="#8c3f07" height="18.36" rx="7.637" width="91.777" x="18.111" y="66.611"/><path d="m108.215 84.971a7.146 7.146 0 0 1 7.261 7.023c0 16.4-13.747 29.7-30.7 29.7h-41.547c-16.958 0-30.7-13.3-30.7-29.7a7.146 7.146 0 0 1 7.261-7.023z" fill="#ef983b"/><path d="m53.245 66.611v8.148a5.184 5.184 0 0 0 5.185 5.185h3.77a5.184 5.184 0 0 1 5.185 5.185v1.7a5.184 5.184 0 0 0 5.185 5.181 5.184 5.184 0 0 1 5.184 5.19v6.221a5.184 5.184 0 0 0 5.185 5.185h1.7a5.184 5.184 0 0 0 5.184-5.185v-22.445a5.185 5.185 0 0 1 5.185-5.185h.565a5.184 5.184 0 0 0 5.185-5.184v-4z" fill="#ef3829"/><path d="m32.307 66.611v21.721a4.956 4.956 0 0 0 4.956 4.957h1.6a4.956 4.956 0 0 0 4.956-4.957v-21.721z" fill="#ef3829"/><path d="m121.637 54.862c-.621-3.9-6.139-9.358-9.927-12.7a7.417 7.417 0 0 1 -3.494.868h-88.431a7.421 7.421 0 0 1 -3.493-.867c-3.787 3.343-9.305 8.8-9.926 12.7-.955 6 10.368-4.438 16.083-4.438 3.846 0 5.959 6.253 11.416 6.25 7.5-.005 9.716-5.107 15.657-5.107 6.486 0 7.164 5.155 14.481 5.155s8-5.155 14.481-5.155c5.941 0 8.153 5.1 15.657 5.107 5.457 0 7.57-6.25 11.416-6.25 5.712-.001 17.035 10.439 16.08 4.437z" fill="#64bc0f"/><path d="m105.554 50.424c-3.846 0-5.959 6.253-11.416 6.25-7.5-.005-9.716-5.107-15.657-5.107-6.481 0-7.164 5.155-14.481 5.155s-7.995-5.155-14.481-5.155c-5.941 0-8.153 5.1-15.657 5.107-5.457 0-7.57-6.25-11.416-6.25a8.143 8.143 0 0 0 -2.479.474 7.607 7.607 0 0 0 -1.856 4.99v3.086a7.637 7.637 0 0 0 7.637 7.637h76.5a7.637 7.637 0 0 0 7.637-7.637v-3.086a7.6 7.6 0 0 0 -1.857-4.99 8.132 8.132 0 0 0 -2.474-.474z" fill="#8c3f07"/><g fill="#d87c30"><path d="m36.324 113.893a1.756 1.756 0 0 1 -.494-.071 23.772 23.772 0 0 1 -15.565-14.443 1.75 1.75 0 0 1 3.329-1.079 20.239 20.239 0 0 0 13.221 12.163 1.75 1.75 0 0 1 -.491 3.43z"/><path d="m98.146 31.69a1.746 1.746 0 0 1 -1.237-.512l-1.98-1.98a1.75 1.75 0 0 1 2.471-2.476l1.981 1.98a1.75 1.75 0 0 1 -1.238 2.988z"/><path d="m28.332 34.023a1.751 1.751 0 0 1 -1.389-2.813l1.55-2.027a1.75 1.75 0 0 1 2.78 2.126l-1.549 2.027a1.751 1.751 0 0 1 -1.392.687z"/><path d="m67.361 34.023a1.749 1.749 0 0 1 -1.417-.721l-.952-1.312a1.75 1.75 0 0 1 2.831-2.058l.953 1.312a1.751 1.751 0 0 1 -1.415 2.779z"/><path d="m52.882 19.973h-2.741a1.75 1.75 0 0 1 0-3.5h2.741a1.75 1.75 0 0 1 0 3.5z"/><path d="m77.985 22.235a1.752 1.752 0 0 1 -1.585-2.485l1.044-2.26a1.75 1.75 0 0 1 3.178 1.467l-1.044 2.261a1.751 1.751 0 0 1 -1.593 1.017z"/></g></g></svg>