<svg id="Capa_1" enable-background="new 0 0 509.731 509.731" height="512" viewBox="0 0 509.731 509.731" width="512" xmlns="http://www.w3.org/2000/svg"><g><path d="m239.89 302.619-25.941 52.362-19.084 2.384-6.757-17.801 25.526-51.526 15.141 2.994z" fill="#cfcfe6"/><path d="m296.097 288.038c5.333 10.765 20.112 40.596 25.525 51.524l-8.507 13.303-17.337 2.111c-13.021-26.283-12.083-24.391-25.938-52.357l10.691-11.587z" fill="#b9b9d6"/><path d="m251.829 184.588-79.599-184.588-13.774 5.939c-48.995 21.128-67.203 101.621-38.201 168.877 8.3 19.248 22.613 35.701 41.39 47.58 10.762 6.808 22.307 11.665 33.745 14.307z" fill="#fff5f5"/><path d="m257.902 184.588c4.414-10.234 75.176-174.332 79.599-184.588 4.816 2.077 8.957 3.862 13.773 5.939 26.781 11.549 44.364 40.834 50.066 75.999 4.729 29.169 1.285 62.384-11.865 92.878-8.549 19.826-18.256 33.53-28.367 43.001-15.476 14.498-31.897 19.08-46.559 20.527z" fill="#ece6f2"/><path d="m194.865 244.511c0 33.083 26.915 60 60 60.001l10-60.001-10-60c-33.083 0-60 26.915-60 60z" fill="#ece6f2"/><path d="m297.272 202.105c-19.008-19.008-41.971-17.501-42.406-17.594v120.001c16.542 0 31.542-6.729 42.406-17.593 23.454-23.455 23.468-61.347 0-84.814z" fill="#cfcfe6"/><path d="m233.662 265.715c5.432 5.432 12.932 8.796 21.203 8.796l10-30.001-10-30c-8.271 0-15.771 3.364-21.203 8.797-11.726 11.727-11.734 30.673 0 42.408z" fill="#cfcfe6"/><path d="m276.069 223.308c-5.432-5.433-12.932-8.797-21.203-8.797v60.001c8.271 0 15.771-3.364 21.203-8.796 11.726-11.728 11.734-30.674 0-42.408z" fill="#b9b9d6"/><path d="m351.759 324.496c-12.717 6.358-31.275 15.637-44.013 22.006h-.001c-23.61 11.806-33.48 40.751-21.999 64.523 10.251 21.223 2.716 5.622 34.702 71.847 11.985 23.97 41.109 33.721 65.125 21.708 23.897-11.947 33.655-41.091 21.759-65.022l-27.786-57.531z" fill="#c91341"/><path d="m124.156 504.581c-23.905-11.952-33.65-41.102-21.758-65.022l55.574-115.062 44.013 22.006c23.612 11.807 33.482 40.752 21.999 64.523l-34.703 71.847c-5.798 11.598-15.766 20.242-28.066 24.343-12.273 4.09-25.434 3.177-37.059-2.635z" fill="#fa235e"/></g></svg>