<svg id="Capa_1" enable-background="new 0 0 497 497" height="512" viewBox="0 0 497 497" width="512" xmlns="http://www.w3.org/2000/svg"><g><path d="m408.315 66.59-10 44.33v170.924l2 36.83c0 10.236 4.158 9.033 12.971 12.89 3.062 1.34 6.446 1.084 10.002 1.084 13.792 0 14.973-.181 14.973-13.973v-252.085z" fill="#245e7c"/><path d="m423.289 43.617c-3.557 0-6.938.749-10 2.089 8.813 3.857 14.973 10.649 14.973 20.884v36.83 178.424 36.83c0 10.236-6.16 18.028-14.973 21.884 3.062 1.34 6.443 2.089 10 2.089 13.792 0 14.973-10.181 14.973-23.973l10-36.83v-178.424l-10-36.83c0-13.792-1.181-22.973-14.973-22.973z" fill="#1a4c65"/><path d="m428.262 103.42 10-36.83c0-13.792-1.181-23.973-14.973-23.973-3.557 0-6.94-.257-10.002 1.084-8.813 3.857-14.971 12.654-14.971 22.89v29.33z" fill="#f9f6f9"/><path d="m448.262 103.42v-36.83c0-13.792-11.181-24.973-24.973-24.973-3.557 0-6.937.749-10 2.089 8.813 3.857 14.973 12.649 14.973 22.884v36.83z" fill="#dedbec"/><path d="m356.315 452.717-296.796 44.283c-26.512 0-48.004-21.492-48.004-48.004v-438.996c0-5.523 4.477-10 10-10h324.8c5.523 0 10 4.477 10 10z" fill="#f9f6f9"/><path d="m358.315 0h-30c5.523 0 10 4.477 10 10v487h30v-487c0-5.523-4.477-10-10-10z" fill="#dedbec"/><g><path d="m423.289 378.095c-4.142 0-7.5-3.358-7.5-7.5v-36.947c0-4.142 3.358-7.5 7.5-7.5s7.5 3.358 7.5 7.5v36.947c0 4.142-3.358 7.5-7.5 7.5z" fill="#245e7c"/></g><g><path d="m113.283 346.204h-38.559c-4.142 0-7.5-3.358-7.5-7.5s3.358-7.5 7.5-7.5h38.559c4.142 0 7.5 3.358 7.5 7.5s-3.358 7.5-7.5 7.5z" fill="#245e7c"/></g><g><path d="m156.815 365.65c-2.751.001-5.399-1.519-6.713-4.146-1.853-3.705-.353-8.21 3.352-10.063l67.749-33.891c2.873-1.436 6.343-.884 8.628 1.373l17.926 17.717 7.34-16.099c.933-2.046 2.735-3.566 4.91-4.14 2.175-.573 4.492-.142 6.314 1.177l43.186 31.277c3.354 2.43 4.104 7.119 1.675 10.474-2.43 3.354-7.118 4.104-10.474 1.675l-35.764-25.902-7.995 17.534c-1.017 2.229-3.059 3.822-5.469 4.265s-4.884-.319-6.627-2.042l-21.744-21.49-62.943 31.487c-1.078.539-2.223.794-3.351.794z" fill="#ea7bc1"/></g><g><path d="m305.107 72.136h-230.383c-4.142 0-7.5-3.358-7.5-7.5s3.358-7.5 7.5-7.5h230.383c4.142 0 7.5 3.358 7.5 7.5s-3.358 7.5-7.5 7.5z" fill="#245e7c"/></g><g><path d="m305.107 142.862h-230.383c-4.142 0-7.5-3.358-7.5-7.5s3.358-7.5 7.5-7.5h230.383c4.142 0 7.5 3.358 7.5 7.5s-3.358 7.5-7.5 7.5z" fill="#245e7c"/></g><g><path d="m305.107 213.587h-230.383c-4.142 0-7.5-3.358-7.5-7.5s3.358-7.5 7.5-7.5h230.383c4.142 0 7.5 3.358 7.5 7.5 0 4.143-3.358 7.5-7.5 7.5z" fill="#245e7c"/></g><g><path d="m305.107 284.314h-230.383c-4.142 0-7.5-3.358-7.5-7.5s3.358-7.5 7.5-7.5h230.383c4.142 0 7.5 3.358 7.5 7.5s-3.358 7.5-7.5 7.5z" fill="#245e7c"/></g><path d="m117.523 400.595c-5.523 0-10 4.477-10 10v38.004c0 26.444-21.384 47.89-47.803 47.999l-.201.402h346.8c26.512 0 48.004-21.492 48.004-48.004v-38.401c0-5.523-4.477-10-10-10z" fill="#95c7f8"/><path d="m454.323 400.595h-30c5.523 0 10 4.477 10 10v38.401c0 26.512-21.492 48.004-48.004 48.004h30c26.512 0 48.004-21.492 48.004-48.004v-38.401c0-5.523-4.477-10-10-10z" fill="#75b5f8"/><path d="m467.985 95.92h-69.669v15h69.669c1.378 0 2.5 1.122 2.5 2.5v86.787c0 4.142 3.358 7.5 7.5 7.5s7.5-3.358 7.5-7.5v-86.787c0-9.649-7.851-17.5-17.5-17.5z" fill="#ffe187"/><path d="m398.315 281.844v36.83c0 10.236 6.158 19.033 14.971 22.89 3.062 1.34 5.446 1.084 9.002 1.084h1c13.792 0 14.973-10.181 14.973-23.973l-10-36.83h-29.946z" fill="#f9f6f9"/><path d="m428.262 281.844v36.83c0 10.236-6.16 19.028-14.973 22.884 3.062 1.34 6.443 2.089 10 2.089 13.792 0 24.973-11.181 24.973-24.973v-36.83z" fill="#dedbec"/></g></svg>