<svg height="512pt" viewBox="0 -16 512 511" width="512pt" xmlns="http://www.w3.org/2000/svg"><g fill-rule="evenodd"><path d="m27.039062.605469c-14.863281 0-27.039062 12.140625-27.039062 27.027343v315.59375h512v-315.59375c0-14.859374-12.175781-26.824218-27.039062-27.027343-14.632813-.234375-388.390626 0-457.921876 0zm0 0" fill="#546e7a"/><path d="m44.941406 307.617188h421.882813c3.183593 0 5.78125-2.597657 5.78125-5.777344v-256.113282c0-3.152343-2.597657-5.75-5.78125-5.75-10.542969 0-410.582031 0-421.882813 0-3.152344 0-5.753906 2.597657-5.753906 5.75v256.113282c0 3.183594 2.601562 5.777344 5.753906 5.777344zm0 0" fill="#8ebfe8"/><path d="m512 343.226562h-512v21.015626c0 14.855468 12.175781 27.027343 27.039062 27.027343h457.917969c14.863281 0 27.042969-12.171875 27.042969-27.027343zm0 0" fill="#eceff1"/><path d="m336.058594 391.269531h-148.726563l-11.128906 42.582031h170.949219zm0 0" fill="#c4cccf"/><path d="m347.152344 433.851562h-195.417969c-12.558594 0-22.835937 10.273438-22.835937 22.824219v12.519531c0 5.664063 4.640624 10.304688 10.308593 10.304688h244.945313c5.664062 0 10.308594-4.640625 10.308594-10.304688v-12.519531c0-12.550781-10.277344-22.824219-22.835938-22.824219zm0 0" fill="#eceff1"/><path d="m472.605469 45.726562v256.113282c0 3.179687-2.597657 5.777344-5.78125 5.777344h-31.453125v35.609374h76.628906v-315.59375c0-14.859374-12.175781-26.707031-27.039062-27.027343-3.066407-.058594-21.640626-.089844-49.792969-.089844v27.027344c.117187 1.023437.203125 2.070312.203125 3.152343v9.28125h31.453125c3.183593 0 5.78125 2.597657 5.78125 5.75zm0 0" fill="#35505c"/><path d="m512 343.226562h-76.625v48.042969h49.585938c14.863281 0 27.039062-12.171875 27.039062-27.027343zm0 0" fill="#c4cccf"/><path d="m331.824219 433.851562c12.554687 0 22.835937 10.273438 22.835937 22.824219v12.519531c0 5.664063-4.644531 10.304688-10.308594 10.304688h39.800782c5.664062 0 10.308594-4.640625 10.308594-10.304688v-12.519531c0-12.550781-10.277344-22.824219-22.835938-22.824219zm0 0" fill="#c4cccf"/><path d="m296.253906 391.269531h-108.921875l-6.046875 23.171875h98.265625c12.148438 0 23.800781-.496094 25.988281 7.792969l1.8125 11.617187h39.800782l-11.09375-42.582031zm0 0" fill="#90a4ae"/><path d="m435.167969 39.976562v267.644532h31.65625c3.183593 0 5.78125-2.597656 5.78125-5.78125v-256.113282c0-3.152343-2.597657-5.75-5.78125-5.75zm0 0" fill="#519ad6"/><path d="m233.5 250.820312h111.726562c12.847657 0 23.390626-10.503906 23.390626-23.378906v-64.0625l-95.375 22.269532c-11.035157 2.742187-17.109376 4.113281-23.15625 4.113281-6.074219 0-12.117188-1.371094-23.183594-4.113281l-95.375-22.269532v64.0625c0 12.492188 9.957031 22.796875 22.339844 23.351563 8.820312.40625 18.25.292969 27.566406.175781v-.148438zm0 0" fill="#546e7a"/><path d="m341.722656 217.929688v32.890624h3.503906c12.847657 0 23.390626-10.507812 23.390626-23.378906v-64.0625l-95.375 22.265625c-11.035157 2.746094-17.109376 4.117188-23.15625 4.117188-6.074219 0-12.117188-1.371094-23.183594-4.117188l-95.375-22.265625v20.574219l95.375 22.269531c11.066406 2.746094 17.109375 4.117188 23.183594 4.117188 6.046874 0 12.121093-1.375 23.15625-4.117188l57.878906-13.511718c13.316406-3.09375 10.601562 10.886718 10.601562 25.21875zm0 0" fill="#37474f"/></g><path d="m409.792969 207.171875c-4.265625 0-7.722657-3.457031-7.722657-7.71875v-54.199219c0-4.261718 3.457032-7.71875 7.722657-7.71875s7.722656 3.457032 7.722656 7.71875v54.199219c0 4.261719-3.457031 7.71875-7.722656 7.71875zm0 0" fill="#eceff1"/><path d="m226.898438 185.648438c11.070312 2.742187 17.113281 4.113281 23.1875 4.113281 6.046874 0 12.117187-1.371094 23.15625-4.113281l95.375-22.269532 39.335937-9.195312c.640625-.144532 1.253906-.320313 1.839844-.523438 6.074219-2.070312 8.527343-6.714844 8.203125-11.265625.351562-5.019531-2.625-10.070312-10.042969-11.820312l-134.710937-31.433594c-11.039063-2.746094-17.109376-4.117187-23.15625-4.117187-6.074219 0-12.117188 1.371093-23.1875 4.117187l-134.679688 31.429687c-7.445312 1.753907-10.394531 6.800782-10.042969 11.824219-.351562 4.988281 2.597657 10.066407 10.042969 11.789063l39.308594 9.195312zm0 0" fill="#7c8c94" fill-rule="evenodd"/><path d="m407.953125 130.570312-102.351563-23.871093c18.832032 16.34375 31.917969 38.292969 36.121094 62.953125l26.894532-6.273438 39.335937-9.195312c.640625-.144532 1.257813-.320313 1.839844-.523438 6.074219-2.070312 8.527343-6.714844 8.207031-11.265625.347656-5.023437-2.628906-10.070312-10.046875-11.824219zm0 0" fill="#546e7a" fill-rule="evenodd"/><path d="m395.542969 210.632812v22.386719c0 7.820313 6.394531 14.242188 14.25 14.242188 7.824219 0 14.25-6.421875 14.25-14.242188v-22.386719c0-7.824218-6.421875-14.242187-14.25-14.242187-7.855469 0-14.25 6.417969-14.25 14.242187zm0 0" fill="#ffd54f" fill-rule="evenodd"/><path d="m404.625 197.351562c5.3125 2.101563 6.480469 7.269532 6.480469 13.28125v22.386719c0 6.011719-1.167969 11.207031-6.480469 13.277344 1.605469.613281 3.355469.964844 5.167969.964844 7.824219 0 14.25-6.421875 14.25-14.242188v-22.386719c0-7.824218-6.421875-14.242187-14.25-14.242187-1.8125 0-3.5625.347656-5.167969.960937zm0 0" fill="#e6a235" fill-rule="evenodd"/></svg>