<?xml version="1.0" encoding="iso-8859-1"?>
<!-- Generator: Adobe Illustrator 19.0.0, SVG Export Plug-In . SVG Version: 6.00 Build 0)  -->
<svg version="1.1" id="Capa_1" xmlns="http://www.w3.org/2000/svg" xmlns:xlink="http://www.w3.org/1999/xlink" x="0px" y="0px"
	 viewBox="0 0 512 512" style="enable-background:new 0 0 512 512;" xml:space="preserve">
<path style="fill:#6F7070;" d="M512,122.336V41.28C512,18.48,493.52,0,470.72,0H41.28C18.48,0,0,18.48,0,41.28v81.056H512z"/>
<path style="fill:#F3F3F3;" d="M0,470.72C0,493.52,18.48,512,41.28,512h429.44c22.8,0,41.28-18.48,41.28-41.28V122.336H0V470.72z"/>
<circle style="fill:#FFCC5B;" cx="56.128" cy="61.168" r="24.496"/>
<circle style="fill:#FFE28F;" cx="127.904" cy="61.168" r="24.496"/>
<circle style="fill:#EC9922;" cx="199.696" cy="61.168" r="24.496"/>
<path style="fill:#E5E5E5;" d="M175.296,482.832c0-16.112-13.056-29.168-29.168-29.168h-39.024c-13.488,0-24.464-11.04-24.4-24.528
	v-0.32c0-0.592-0.016-1.2-0.048-1.776c-0.816-13.296,9.744-24.512,23.072-24.512h51.696c15.792,0,29.952-11.824,30.784-27.6
	c0.88-16.816-12.496-30.736-29.136-30.736h-15.984c-13.568,0-24.528-11.04-24.448-24.592l0.016-1.696v-0.352
	c-0.08-14.272,11.52-25.936,25.792-25.936h20.656c15.792,0,29.952-11.824,30.784-27.6c0.88-16.832-12.496-30.736-29.136-30.736
	h-74.56c-14.096,0-24.608-11.84-24.448-25.936c0-0.112,0-0.24,0-0.352s0-0.24,0-0.352c-0.16-14.096,10.352-25.936,24.448-25.936
	h24.112c15.792,0,29.952-11.824,30.784-27.6c0.864-16.848-12.528-30.768-29.152-30.768H0V470.72C0,493.52,18.48,512,41.28,512
	h104.848C162.24,512,175.296,498.944,175.296,482.832z"/>
<rect x="48" y="170.336" style="fill:#3789C9;" width="176.16" height="203.856"/>
<g>
	<path style="fill:#CACACA;" d="M448,282.928H295.584c-8.832,0-16-7.168-16-16l0,0c0-8.832,7.168-16,16-16H448
		c8.832,0,16,7.168,16,16l0,0C464,275.76,456.832,282.928,448,282.928z"/>
	<path style="fill:#CACACA;" d="M448,372.576H295.584c-8.832,0-16-7.168-16-16l0,0c0-8.832,7.168-16,16-16H448
		c8.832,0,16,7.168,16,16l0,0C464,365.424,456.832,372.576,448,372.576z"/>
	<path style="fill:#CACACA;" d="M448,462.224H64c-8.832,0-16-7.168-16-16l0,0c0-8.832,7.168-16,16-16h384c8.832,0,16,7.168,16,16
		l0,0C464,455.056,456.832,462.224,448,462.224z"/>
</g>
<g>
</g>
<g>
</g>
<g>
</g>
<g>
</g>
<g>
</g>
<g>
</g>
<g>
</g>
<g>
</g>
<g>
</g>
<g>
</g>
<g>
</g>
<g>
</g>
<g>
</g>
<g>
</g>
<g>
</g>
</svg>
