<svg id="Capa_1" enable-background="new 0 0 512 512" height="512" viewBox="0 0 512 512" width="512" xmlns="http://www.w3.org/2000/svg"><g><path d="m212.955 127.619v-42.748c-.323.029-.649.05-.979.05h-71.962c-.33 0-.656-.021-.979-.05v42.748z" fill="#4bcd5c"/><g><path d="m140.014 84.921c-.33 0-.656-.021-.979-.05v42.748h38.117v-42.698z" fill="#00b327"/></g><path d="m255.524 283.054c-.759-6.315-2.439-12.5-5.029-18.34l-24.02-54.155c-8.914-20.097-13.519-41.838-13.519-63.823v-21.991h-73.92v21.991c0 21.985-4.605 43.726-13.519 63.823l-24.02 54.155c-2.591 5.841-4.27 12.025-5.029 18.34z" fill="#ff656f"/><path d="m163.632 210.558c8.914-20.097 13.519-41.838 13.519-63.823v-21.991h-38.117v21.991c0 21.985-4.605 43.726-13.519 63.823l-24.02 54.155c-2.591 5.841-4.27 12.025-5.029 18.34h38.117c.76-6.315 2.439-12.5 5.029-18.34z" fill="#ff4756"/><path d="m95.99 404.087v86.523c0 11.814 9.576 21.39 21.39 21.39h117.229c11.814 0 21.391-9.577 21.391-21.39v-86.523z" fill="#ff656f"/><path d="m134.107 490.61v-86.523h-38.117v86.523c0 11.814 9.576 21.39 21.39 21.39h38.117c-11.814 0-21.39-9.577-21.39-21.39z" fill="#ff4756"/><path d="m217.46 57.873h-82.93c-1.933 0-3.761-.456-5.4-1.246v19.47c0 5.987 4.898 10.885 10.885 10.885h71.962c5.987 0 10.885-4.898 10.885-10.885v-19.47c-1.641.79-3.468 1.246-5.402 1.246z" fill="#ffd301"/><g><path d="m167.246 76.097v-18.224h-32.716c-1.934 0-3.761-.456-5.401-1.246v19.47c0 5.987 4.898 10.885 10.885 10.885h38.117c-5.987 0-10.885-4.899-10.885-10.885z" fill="#ffc20c"/></g><path d="m210.382 276.441c-5.403-13.709-18.758-23.413-34.387-23.413s-28.984 9.704-34.387 23.413c-1.215 3.083-4.196 5.105-7.51 5.105h-37.434c-.437 3.027-.674 6.086-.674 9.159v114.889h160.01v-114.889c0-3.073-.237-6.132-.674-9.159h-37.434c-3.315.001-6.295-2.021-7.51-5.105z" fill="#4bcd5c"/><g><path d="m134.098 281.546h-37.434c-.437 3.027-.674 6.086-.674 9.159v114.889h38.117v-114.889c0-3.073.237-6.184.674-9.21-.227.019-.452.051-.683.051z" fill="#00b327"/></g><circle cx="175.995" cy="339.04" fill="#74d579" r="32.928"/><path d="m181.183 339.041c0-11.081 5.479-20.876 13.87-26.844-5.38-3.827-11.954-6.084-19.058-6.084-18.186 0-32.929 14.743-32.929 32.928 0 18.186 14.742 32.928 32.929 32.928 7.105 0 13.678-2.258 19.058-6.084-8.39-5.968-13.87-15.763-13.87-26.844z" fill="#00b327"/><path d="m217.46 0h-82.93c-6.899 0-12.544 5.645-12.544 12.544v34.845c0 6.899 5.645 12.544 12.544 12.544h82.931c6.899 0 12.544-5.645 12.544-12.544v-34.845c-.001-6.899-5.645-12.544-12.545-12.544z" fill="#fee55a"/><path d="m160.102 47.389v-34.845c0-6.899 5.645-12.544 12.545-12.544h-38.117c-6.899 0-12.544 5.645-12.544 12.544v34.845c0 6.899 5.645 12.544 12.544 12.544h38.117c-6.9 0-12.545-5.645-12.545-12.544z" fill="#ffd301"/><path d="m372.965 127.619v-42.748c-.323.029-.649.05-.979.05h-71.962c-.331 0-.656-.021-.979-.05v42.748z" fill="#4bcd5c"/><g><path d="m300.024 84.921c-.331 0-.656-.021-.979-.05v42.748h38.117v-42.698z" fill="#00b327"/></g><path d="m415.534 283.054c-.759-6.315-2.439-12.5-5.029-18.34l-24.02-54.155c-8.914-20.097-13.519-41.838-13.519-63.823v-21.991h-73.92v21.991c0 21.985-4.605 43.726-13.519 63.823l-24.02 54.155c-2.591 5.841-4.27 12.025-5.029 18.34z" fill="#ff656f"/><path d="m323.643 210.558c8.914-20.097 13.519-41.838 13.519-63.823v-21.991h-38.117v21.991c0 21.985-4.605 43.726-13.519 63.823l-24.02 54.155c-2.591 5.841-4.27 12.025-5.029 18.34h38.117c.76-6.315 2.439-12.5 5.029-18.34z" fill="#ff4756"/><path d="m256 404.087v86.523c0 11.814 9.576 21.39 21.39 21.39h117.229c11.814 0 21.391-9.577 21.391-21.39v-86.523z" fill="#ff656f"/><path d="m294.117 490.61v-86.523h-38.117v86.523c0 11.814 9.576 21.39 21.39 21.39h38.117c-11.814 0-21.39-9.577-21.39-21.39z" fill="#ff4756"/><path d="m377.47 57.873h-82.93c-1.933 0-3.761-.456-5.4-1.246v19.47c0 5.987 4.898 10.885 10.885 10.885h71.962c5.987 0 10.885-4.898 10.885-10.885v-19.47c-1.641.79-3.468 1.246-5.402 1.246z" fill="#ffd301"/><g><path d="m327.256 76.097v-18.224h-32.716c-1.934 0-3.761-.456-5.401-1.246v19.47c0 5.987 4.898 10.885 10.885 10.885h38.117c-5.987 0-10.885-4.899-10.885-10.885z" fill="#ffc20c"/></g><path d="m370.392 276.441c-5.403-13.709-18.758-23.413-34.387-23.413s-28.984 9.704-34.387 23.413c-1.215 3.083-4.196 5.105-7.51 5.105h-37.434c-.437 3.027-.674 6.086-.674 9.159v114.889h160.01v-114.889c0-3.073-.237-6.132-.674-9.159h-37.434c-3.315.001-6.295-2.021-7.51-5.105z" fill="#4bcd5c"/><g><path d="m294.108 281.546h-37.434c-.437 3.027-.674 6.086-.674 9.159v114.889h38.117v-114.889c0-3.073.237-6.184.674-9.21-.227.019-.452.051-.683.051z" fill="#00b327"/></g><circle cx="336.005" cy="339.04" fill="#74d579" r="32.928"/><path d="m341.193 339.041c0-11.081 5.479-20.876 13.87-26.844-5.38-3.827-11.954-6.084-19.058-6.084-18.186 0-32.929 14.743-32.929 32.928 0 18.186 14.742 32.928 32.929 32.928 7.105 0 13.678-2.258 19.058-6.084-8.39-5.968-13.87-15.763-13.87-26.844z" fill="#00b327"/><path d="m377.47 0h-82.93c-6.899 0-12.544 5.645-12.544 12.544v34.845c0 6.899 5.645 12.544 12.544 12.544h82.931c6.899 0 12.544-5.645 12.544-12.544v-34.845c0-6.899-5.645-12.544-12.545-12.544z" fill="#fee55a"/><path d="m320.112 47.389v-34.845c0-6.899 5.645-12.544 12.545-12.544h-38.117c-6.899 0-12.544 5.645-12.544 12.544v34.845c0 6.899 5.645 12.544 12.544 12.544h38.117c-6.9 0-12.545-5.645-12.545-12.544z" fill="#ffd301"/><g><path d="m192.023 439.802h-32.057c-4.267 0-7.726-3.459-7.726-7.726s3.459-7.726 7.726-7.726h32.057c4.267 0 7.726 3.459 7.726 7.726.001 4.267-3.459 7.726-7.726 7.726z" fill="#74d579"/></g><g><path d="m352.033 439.802h-32.057c-4.267 0-7.726-3.459-7.726-7.726s3.459-7.726 7.726-7.726h32.057c4.267 0 7.726 3.459 7.726 7.726.001 4.267-3.458 7.726-7.726 7.726z" fill="#74d579"/></g></g></svg>