<?xml version="1.0" encoding="iso-8859-1"?>
<!-- Generator: Adobe Illustrator 19.0.0, SVG Export Plug-In . SVG Version: 6.00 Build 0)  -->
<svg version="1.1" id="Capa_1" xmlns="http://www.w3.org/2000/svg" xmlns:xlink="http://www.w3.org/1999/xlink" x="0px" y="0px"
	 viewBox="0 0 512 512" style="enable-background:new 0 0 512 512;" xml:space="preserve">
<path style="fill:#4A5054;" d="M413.891,471.378c-0.768,10.732-5.366,20.695-13.03,29.128C392.433,508.165,381.701,512,370.97,512
	H141.03c-10.732,0-21.463-3.835-29.891-11.5c-8.433-7.665-13.03-18.396-13.03-29.128L78.945,114.964h354.109L413.891,471.378z"/>
<g>
	<path style="fill:#20262D;" d="M351.811,457.58C351.811,457.58,351.043,457.58,351.811,457.58c-7.665,0-13.03-6.134-13.03-13.03
		l9.195-285.891c0-6.897,6.134-13.03,13.03-12.262c6.897,0,13.03,6.134,12.262,13.03l-9.195,285.891
		C364.073,452.214,358.707,457.58,351.811,457.58z"/>
	<path style="fill:#20262D;" d="M288.189,457.58C288.189,457.58,287.427,457.58,288.189,457.58c-6.897,0-13.03-6.134-13.03-13.03
		l3.067-285.891c0-6.897,6.134-13.03,13.03-13.03s13.03,6.134,13.03,13.03l-3.067,285.891
		C300.457,452.214,295.091,457.58,288.189,457.58z"/>
	<path style="fill:#20262D;" d="M223.811,457.58c-6.897,0-13.03-5.366-13.03-13.03l-3.067-285.891c0-6.897,5.366-13.03,13.03-13.03
		c6.897,0,13.03,5.366,13.03,13.03l3.067,285.891C236.836,451.451,231.475,457.58,223.811,457.58
		C224.573,457.58,223.811,457.58,223.811,457.58z"/>
	<path style="fill:#20262D;" d="M160.189,457.58c-6.897,0-12.262-5.366-13.03-12.262l-9.196-285.891
		c0-6.897,5.366-13.03,12.262-13.03c6.897,0,13.03,5.366,13.03,12.262l9.196,285.891C173.22,451.451,167.854,457.58,160.189,457.58
		C160.957,457.58,160.189,457.58,160.189,457.58z"/>
	<path style="fill:#20262D;" d="M449.152,72.049c0-5.366-2.299-10.732-6.134-15.329c-3.83-3.835-9.964-6.134-15.329-6.134H84.311
		c-5.366,0-10.732,2.299-15.329,6.134c-3.835,3.835-6.134,9.964-6.134,15.329v42.921h386.299
		C449.152,114.97,449.152,72.049,449.152,72.049z"/>
</g>
<path style="fill:#4A5054;" d="M320.384,50.586h-23.762V23.757h-81.244v26.829h-23.762V22.994c0-6.134,2.299-11.5,6.897-16.097
	C203.116,2.299,208.481,0,214.61,0h83.543c6.134,0,11.5,2.299,16.097,6.897s6.897,9.964,6.897,16.097v27.592H320.384z"/>
<g>
</g>
<g>
</g>
<g>
</g>
<g>
</g>
<g>
</g>
<g>
</g>
<g>
</g>
<g>
</g>
<g>
</g>
<g>
</g>
<g>
</g>
<g>
</g>
<g>
</g>
<g>
</g>
<g>
</g>
</svg>
