<svg id="Capa_1" enable-background="new 0 0 512 512" height="512" viewBox="0 0 512 512" width="512" xmlns="http://www.w3.org/2000/svg"><g><path d="m384.328 74.82c-.1 2.41-2.45 48.55-27.64 90.53h-201.38c-25.18-41.98-27.53-88.12-27.64-90.53-.18-4.12 1.34-8.13 4.21-11.09 2.86-2.96 6.81-4.59 10.94-4.57 1.86.02 29.65.52 61.86 11.59 14.53-38.34 38.97-64.52 40.43-66.06 2.83-3 6.77-4.69 10.89-4.69s8.06 1.69 10.89 4.69c1.46 1.54 25.91 27.72 40.43 66.06 32.21-11.07 60.01-11.57 61.87-11.59 4.11-.03 8.07 1.61 10.94 4.57 2.86 2.96 4.38 6.97 4.2 11.09z" fill="#00da80"/><path d="m384.328 74.82c-.1 2.41-2.45 48.55-27.64 90.53h-100.69v-165.35c4.12 0 8.06 1.69 10.89 4.69 1.46 1.54 25.91 27.72 40.43 66.06 32.21-11.07 60.01-11.57 61.87-11.59 4.11-.03 8.07 1.61 10.94 4.57 2.86 2.96 4.38 6.97 4.2 11.09z" fill="#009859"/><path d="m435.378 296.9-76.9 152.08c-21.24 42.02-61.86 63.02-102.48 63.02s-81.24-21-102.48-63.02l-76.9-152.08c-25.45-50.38-5.02-111.77 45.44-136.87 27.76-13.81 59.49-17.45 89.67-10.28l11.59 2.76c10.74 2.55 21.72 3.83 32.68 3.83 10.97 0 21.94-1.28 32.68-3.83l11.6-2.76c30.14-7.16 61.84-3.56 89.67 10.28 50.49 25.12 70.87 86.54 45.43 136.87z" fill="#db686b"/><path d="m435.378 296.9-76.9 152.08c-21.24 42.02-61.86 63.02-102.48 63.02v-355.66c10.97 0 21.94-1.28 32.68-3.83l11.6-2.76c30.14-7.16 61.84-3.56 89.67 10.28 50.49 25.12 70.87 86.54 45.43 136.87z" fill="#cc2f51"/><ellipse cx="161.312" cy="223.733" fill="#e8a2a4" rx="15.001" ry="15.001" transform="matrix(.763 -.646 .646 .763 -106.388 157.289)"/><ellipse cx="214.671" cy="282.486" fill="#e8a2a4" rx="15.001" ry="15.001" transform="matrix(.707 -.707 .707 .707 -136.872 234.533)"/><ellipse cx="176.313" cy="359.24" fill="#e8a2a4" rx="15.001" ry="15.001" transform="matrix(.788 -.615 .615 .788 -183.738 184.59)"/><ellipse cx="145.194" cy="296.257" fill="#e8a2a4" rx="15.001" ry="15.001" transform="matrix(.25 -.968 .968 .25 -177.929 362.9)"/><ellipse cx="218.043" cy="416.658" fill="#e8a2a4" rx="15.001" ry="15.001" transform="matrix(.442 -.897 .897 .442 -252.074 428.36)"/><g fill="#db686b"><ellipse cx="350.688" cy="223.733" rx="15.001" ry="15.001" transform="matrix(.707 -.707 .707 .707 -55.489 313.504)"/><ellipse cx="297.329" cy="282.486" rx="15.001" ry="15.001" transform="matrix(.763 -.646 .646 .763 -112.131 259.13)"/><ellipse cx="335.686" cy="359.24" rx="15.001" ry="15.001" transform="matrix(.57 -.822 .822 .57 -150.787 430.528)"/><ellipse cx="366.806" cy="296.257" rx="15.001" ry="15.001" transform="matrix(.615 -.788 .788 .615 -92.442 403.055)"/><ellipse cx="293.957" cy="416.658" rx="15.001" ry="15.001" transform="matrix(.851 -.526 .526 .851 -175.148 216.769)"/></g><path d="m271.518 347.81c0 8.57-6.95 15.51-15.52 15.51s-15.51-6.94-15.51-15.51 6.94-15.52 15.51-15.52 15.52 6.95 15.52 15.52z" fill="#e8a2a4"/><path d="m271.518 219.9c0 8.57-6.95 15.52-15.52 15.52s-15.51-6.95-15.51-15.52 6.94-15.51 15.51-15.51 15.52 6.94 15.52 15.51z" fill="#e8a2a4"/><path d="m271.518 347.81c0 8.57-6.95 15.51-15.52 15.51v-31.03c8.57 0 15.52 6.95 15.52 15.52z" fill="#db686b"/><path d="m271.518 219.9c0 8.57-6.95 15.52-15.52 15.52v-31.03c8.57 0 15.52 6.94 15.52 15.51z" fill="#db686b"/></g></svg>