<?xml version="1.0" encoding="iso-8859-1"?>
<!-- Generator: Adobe Illustrator 19.0.0, SVG Export Plug-In . SVG Version: 6.00 Build 0)  -->
<svg version="1.1" id="Capa_1" xmlns="http://www.w3.org/2000/svg" xmlns:xlink="http://www.w3.org/1999/xlink" x="0px" y="0px"
	 viewBox="0 0 512 512" style="enable-background:new 0 0 512 512;" xml:space="preserve">
<path style="fill:#E4EAF8;" d="M48.674,0h206.576l116.534,116.534v380.351c0,8.348-6.767,15.115-15.115,15.115H49.38
	c-8.575,0-15.527-6.952-15.527-15.527c0-6.033,0-467.933,0-481.652C33.853,6.636,40.489,0,48.674,0z"/>
<g>
	<path style="fill:#D8DCE5;" d="M54.329,496.473c0-6.033,0-467.934,0-481.652C54.329,6.636,60.965,0,69.151,0H48.674
		c-8.186,0-14.821,6.636-14.821,14.821c0,6.583,0,474.98,0,481.652c0,8.575,6.951,15.527,15.527,15.527h20.476
		C61.28,512,54.329,505.048,54.329,496.473z"/>
	<path style="fill:#D8DCE5;" d="M270.072,116.534h101.713L255.251,0v101.712C255.251,109.898,261.885,116.534,270.072,116.534z"/>
</g>
<path style="fill:#C3C8D1;" d="M275.855,101.713V20.605L255.251,0v101.712c0,8.186,6.635,14.821,14.821,14.821h20.605
	C282.491,116.534,275.855,109.898,275.855,101.713z"/>
<rect x="417.427" y="127.94" style="fill:#9E6B57;" width="31.23" height="316.69"/>
<rect x="417.427" y="127.94" style="fill:#8C5A4B;" width="20.605" height="316.69"/>
<rect x="447.788" y="127.94" style="fill:#AD7B64;" width="30.359" height="316.69"/>
<path style="fill:#E4EAF8;" d="M417.423,444.629l24.504,62.648c2.402,6.14,9.307,6.14,11.709,0l24.504-62.648H417.423z"/>
<path style="fill:#D8DCE5;" d="M438.029,444.629h-20.605l24.504,62.648c2.402,6.14,9.307,6.14,11.709,0l4.448-11.372
	L438.029,444.629z"/>
<path style="fill:#707487;" d="M428.556,473.091l13.372,34.186c2.402,6.14,9.308,6.14,11.709,0l13.372-34.186H428.556z"/>
<path style="fill:#5E6377;" d="M449.161,473.091h-20.605l13.372,34.187c0.3,0.768,0.671,1.439,1.094,2.015
	c0.212,0.288,0.437,0.552,0.673,0.792c1.179,1.199,2.634,1.799,4.088,1.799c2.327,0,4.654-1.535,5.854-4.605l4.448-11.372
	L449.161,473.091z"/>
<path style="fill:#FF5050;" d="M457.507,47.591h-19.448c-11.396,0-20.635,9.238-20.635,20.635v22.532h60.718V68.226
	C478.142,56.83,468.904,47.591,457.507,47.591z"/>
<path style="fill:#ED3A3A;" d="M458.086,47.621c-0.194-0.005-0.383-0.029-0.578-0.029H438.06c-11.396,0-20.635,9.238-20.635,20.635
	v22.532h20.605V68.226C438.029,57.025,446.958,47.93,458.086,47.621z"/>
<path style="fill:#00C3FF;" d="M171.43,246.603h72.531c0-42.76-34.664-77.425-77.425-77.425s-77.425,34.664-77.425,77.425
	s34.664,77.425,77.425,77.425v-72.531C166.537,248.794,168.729,246.603,171.43,246.603z"/>
<path style="fill:#00AAF0;" d="M109.717,246.603c0-34.384,20.566-63.946,50.057-77.113c-39.591,3.429-70.662,36.632-70.662,77.113
	s31.071,73.684,70.662,77.113C130.283,310.55,109.717,280.987,109.717,246.603z"/>
<path style="fill:#FF80BD;" d="M304.151,246.603h-60.19c0,42.761-34.664,77.425-77.425,77.425v60.19
	c0,2.703,2.191,4.894,4.894,4.894h132.721c2.703,0,4.894-2.191,4.894-4.894V251.497
	C309.046,248.794,306.854,246.603,304.151,246.603z"/>
<path style="fill:#F962B1;" d="M187.565,384.218v-63.104c-6.689,1.884-13.736,2.914-21.028,2.914v60.19
	c0,2.703,2.191,4.894,4.894,4.894h21.028C189.757,389.112,187.565,386.921,187.565,384.218z"/>
<path style="fill:#00AAF0;" d="M243.962,246.603h-72.531c-2.703,0-4.894,2.191-4.894,4.894v72.531
	C209.298,324.028,243.962,289.364,243.962,246.603z"/>
<path style="fill:#039ADD;" d="M187.143,251.497c0-2.703,2.191-4.894,4.894-4.894h-20.605c-2.703,0-4.894,2.191-4.894,4.894v72.531
	c7.138,0,14.042-0.986,20.605-2.794V251.497z"/>
<rect x="417.427" y="90.62" style="fill:#E4EAF8;" width="60.718" height="37.674"/>
<rect x="417.427" y="90.62" style="fill:#D8DCE5;" width="20.605" height="37.674"/>
<g>
</g>
<g>
</g>
<g>
</g>
<g>
</g>
<g>
</g>
<g>
</g>
<g>
</g>
<g>
</g>
<g>
</g>
<g>
</g>
<g>
</g>
<g>
</g>
<g>
</g>
<g>
</g>
<g>
</g>
</svg>
