<svg height="512" viewBox="0 0 58 58" width="512" xmlns="http://www.w3.org/2000/svg"><g id="Page-1" fill="none" fill-rule="evenodd"><g id="003---Home" transform="translate(0 -1)"><path id="Path" d="m54 30v27c-.0032948 1.1032019-.8967981 1.9967052-2 2h-46c-1.10320187-.0032948-1.9967052-.8967981-2-2v-27l25-24.84z" fill="#f5efca"/><path id="Path" d="m54 29v5.89c-.490833-.1335338-.9387102-.3919246-1.3-.75l-23.7-23.55-23.69 23.53c-.35951201.3676414-.812397.6303839-1.31.76v-5.88l25-24.84z" fill="#e4c05c"/><path id="Path" d="m43 16v-8c0-.55228475.4477153-1 1-1h6c.5522847 0 1 .44771525 1 1v15.95z" fill="#c03a2b"/><path id="Path" d="m57.7 30.55-2.17 2.16c-.3968635.3900745-1.0331365.3900745-1.43 0l-.1-.1-25-24.84-25 24.84-.1.1c-.39686348.3900745-1.03313652.3900745-1.43 0l-2.17-2.16c-.40009034-.4044378-.40009034-1.0555622 0-1.46l27.99-27.8c.3930079-.38997787 1.0269921-.38997787 1.42 0l27.99 27.8c.4000903.4044378.4000903 1.0555622 0 1.46z" fill="#e64c3c"/><path id="Path" d="m25.4 23.257 1.194-1.808c.1844098-.2792984.4963163-.4478255.831-.449h3.15c.3361023-.0001663.6498077.1685208.835.449l1.19 1.808 4.273 1.77 2.127-.434c.3291426-.0676458.6702554.0345378.908.272l2.228 2.228c.2374622.2377446.3396458.5788574.272.908l-.434 2.122 1.77 4.273 1.808 1.194c.2804792.1851923.4491663.4988977.449.835v3.15c.0001663.3361023-.1685208.6498077-.449.835l-1.809 1.19-1.77 4.273.434 2.127c.0676458.3291426-.0345378.6702554-.272.908l-2.228 2.228c-.2377446.2374622-.5788574.3396458-.908.272l-2.122-.434-4.277 1.769-1.19 1.808c-.1851923.2804792-.4988977.4491663-.835.449h-3.15c-.3361023.0001663-.6498077-.1685208-.835-.449l-1.19-1.808-4.273-1.77-2.127.434c-.3291426.0676458-.6702554-.0345378-.908-.272l-2.228-2.228c-.236772-.2377255-.3385457-.5783482-.271-.907l.434-2.122-1.77-4.278-1.808-1.19c-.2804792-.1851923-.4491663-.4988977-.449-.835v-3.15c-.0001663-.3361023.1685208-.6498077.449-.835l1.808-1.19 1.77-4.273-.434-2.127c-.0676458-.3291426.0345378-.6702554.272-.908l2.228-2.228c.2377255-.236772.5783482-.3385457.907-.271l2.122.434z" fill="#bdc3c7"/><circle id="Oval" cx="29" cy="38" fill="#7f8c8d" r="10"/><path id="Path" d="m11 56h-3c-.55228475 0-1-.4477153-1-1v-3c0-.5522847.44771525-1 1-1s1 .4477153 1 1v2h2c.5522847 0 1 .4477153 1 1s-.4477153 1-1 1z" fill="#f0c419"/></g></g></svg>