<svg id="Flat" height="512" viewBox="0 0 64 64" width="512" xmlns="http://www.w3.org/2000/svg"><path d="m13 35v14h4v-14a28 28 0 0 1 28-28h16v-4h-16a32 32 0 0 0 -32 32z" fill="#e2434b"/><path d="m17 35v14h4v-14a24 24 0 0 1 24-24h16v-4h-16a28 28 0 0 0 -28 28z" fill="#f8cb3f"/><path d="m21 35v14h4v-14a20 20 0 0 1 20-20h16v-4h-16a24 24 0 0 0 -24 24z" fill="#abcc51"/><path d="m25 35v14h4v-14a16 16 0 0 1 16-16h16v-4h-16a20 20 0 0 0 -20 20z" fill="#9ecce3"/><path d="m29 35v14h4v-14a12 12 0 0 1 12-12h16v-4h-16a16 16 0 0 0 -16 16z" fill="#be93d4"/><path d="m39 41h-1a12 12 0 0 0 -24 0h-1a10 10 0 0 0 0 20h26a10 10 0 0 0 0-20z" fill="#66bae1"/><g fill="#9ecce3"><path d="m12 56h26v2h-26z"/><path d="m40 56h2v2h-2z"/><path d="m17 40h2v2h-2z"/><path d="m17 36h2v2h-2z"/></g></svg>