<svg enable-background="new 0 0 64 64" height="512" viewBox="0 0 64 64" width="512" xmlns="http://www.w3.org/2000/svg"><g id="_x33_-Apple"><g><path d="m30.2361832 11.0850449c-1.6992188-1.699707-3.9555664-2.6357422-6.3530273-2.6357422-.9111328 0-1.8139648.137207-2.6835938.4077148-.3144531.0981445-.5605469.34375-.6582031.6582031-.9960938 3.2036133-.1425781 6.6665039 2.2280273 9.0366211 1.6992188 1.699707 3.9550781 2.6357422 6.3525391 2.6357422.9111328 0 1.8144531-.137207 2.684082-.4077148.3144531-.0981445.5600586-.34375.6582031-.6582031.9960938-3.203125.1425781-6.6655274-2.2280273-9.0366211z" fill="#049c1f"/><path d="m20.8566055 9.0642319c-.1416626.1209106-.2584229.2679443-.3152466.4509888-.9960938 3.2036133-.1425781 6.6665039 2.2280273 9.0366211 1.6992188 1.699707 3.9550781 2.6357422 6.3525391 2.6357422.9111328 0 1.8144531-.137207 2.684082-.4077148.1830444-.0571289.3300171-.1737061.4509277-.3153076z" fill="#04811f"/><g><path d="m32.0028915 22.6363144c-.5522461 0-1-.4477539-1-1v-3.09375c0-4.5927734 2.6777344-8.8432617 6.8222656-10.828125.4960938-.2397461 1.0957031-.027832 1.3339844.4697266.2382813.4980469.0273438 1.0952148-.4707031 1.3339844-3.4541016 1.6547852-5.6855469 5.1967773-5.6855469 9.0244141v3.09375c0 .552246-.4477539.9999999-1 .9999999z" fill="#9e4c0b"/></g><path d="m41.7069931 18.9766464c-3.2041016-.6967773-6.6376953-.0341797-9.7041016 1.8583984-3.0639648-1.8930664-6.4951172-2.5546875-9.703125-1.8583984-3.9624023.8618164-7.2446299 3.6323242-9.2421885 7.8007813-1.9570313 4.0834961-2.4458008 9.0390625-1.3764648 13.953125 1.9726563 9.0703125 8.7563486 15.6538086 16.1303711 15.6538086.8613281 0 1.7241211-.0927734 2.5654297-.2758789.5175781-.112793 1.0419922-.2719727 1.6259766-.4956055.5844727.2236328 1.109375.3833008 1.6259766.4956055.8408203.1831055 1.7041016.2758789 2.5654297.2758789h.0009766c7.3730469 0 14.15625-6.5834961 16.1298828-15.6538086 2.2265634-10.2368164-2.5361319-19.9956055-10.6181632-21.7539063z" fill="#f51200"/><g><path d="m19.5561142 40.7305527c-1.0693359-4.9140625-.5805664-9.8696289 1.3764648-13.953125 1.7635498-3.6801758 4.5305786-6.265564 7.8807983-7.414978-2.1549072-.6987915-4.3826294-.8483276-6.5136108-.3858032-3.9624023.8618164-7.2446299 3.6323242-9.2421885 7.8007813-1.9570313 4.0834961-2.4458008 9.0390625-1.3764648 13.953125 1.9726563 9.0703125 8.7563486 15.6538086 16.1303711 15.6538086.8613281 0 1.7241211-.0927734 2.5654297-.2758789.4144897-.090332.8418579-.2212524 1.2921753-.3803101-5.7085562-1.8752442-10.5064688-7.6107789-12.1129751-14.9976197z" fill="#dd1200"/></g></g></g></svg>