<svg id="Flat_Icons" height="512" viewBox="0 0 64 64" width="512" xmlns="http://www.w3.org/2000/svg" data-name="Flat Icons"><path d="m10.5 10.5h11a0 0 0 0 1 0 0v5a0 0 0 0 1 0 0h-10a3 3 0 0 1 -3-3 2 2 0 0 1 2-2z" fill="#3d4d62"/><path d="m45.5 10.5h10a0 0 0 0 1 0 0v5a0 0 0 0 1 0 0h-11a2 2 0 0 1 -2-2 3 3 0 0 1 3-3z" fill="#3d4d62" transform="matrix(-1 0 0 -1 98 26)"/><path d="m21.5 10.5v5h-9.5v-3.35a3.11 3.11 0 0 1 .47-1.65z" fill="#2e3a4a"/><path d="m52 12.15v3.35h-9.5v-5h9a3.11 3.11 0 0 1 .5 1.65z" fill="#2e3a4a"/><path d="m42.4 54h-20.8a3.79 3.79 0 0 1 -3.78-3.6l-1.82-36.4h32l-1.82 36.4a3.79 3.79 0 0 1 -3.78 3.6z" fill="#e0e0de"/><path d="m48 14-1.82 36.4a3.79 3.79 0 0 1 -3.78 3.6h-.9l.76-15.2a14.1 14.1 0 0 0 -9.26-13.95 13.14 13.14 0 0 0 -2-.57 14.5 14.5 0 0 0 -2.82-.28h-11.68l-.5-10z" fill="#d1d1cf"/><rect fill="#ccc" height="8" rx="2.15" width="38" x="13" y="10"/><path d="m12.47 10.5h9v5h-9.47v-3.35a3.11 3.11 0 0 1 .47-1.65z" fill="#2e3a4a"/><path d="m52 12.15v3.35h-9.5v-5h9a3.11 3.11 0 0 1 .5 1.65z" fill="#2e3a4a"/><rect fill="#ececeb" height="8" rx="2.15" width="38" x="13" y="10"/><rect fill="#f3f3f2" height="8" rx="2.12" width="6" x="38" y="10"/><g fill="#a8a8a7"><path d="m32 48a1 1 0 0 1 -1-1v-23a1 1 0 0 1 2 0v23a1 1 0 0 1 -1 1z"/><path d="m24 48a1 1 0 0 1 -1-1l-1-23a1 1 0 0 1 2 0l1 23a1 1 0 0 1 -1 1z"/><path d="m40 48a1 1 0 0 1 -1-1l1-23a1 1 0 1 1 2 0l-1 23a1 1 0 0 1 -1 1z"/></g><path d="m33 24v.85a13.14 13.14 0 0 0 -2-.57v-.28a1 1 0 0 1 2 0z" fill="#7e7e7d"/><path d="m24 24h-2a1 1 0 0 1 2 0z" fill="#7e7e7d"/><path d="m42 24-.42 9.67a14.09 14.09 0 0 0 -1.84-3.67l.26-6a1 1 0 1 1 2 0z" fill="#7e7e7d"/></svg>