<?xml version="1.0" encoding="iso-8859-1"?>
<!-- Generator: Adobe Illustrator 19.0.0, SVG Export Plug-In . SVG Version: 6.00 Build 0)  -->
<svg version="1.1" id="Capa_1" xmlns="http://www.w3.org/2000/svg" xmlns:xlink="http://www.w3.org/1999/xlink" x="0px" y="0px"
	 viewBox="0 0 512.066 512.066" style="enable-background:new 0 0 512.066 512.066;" xml:space="preserve">
<path style="fill:#90A4AE;" d="M405.036,298.7h-0.299c-15.968,0.543-31.497-5.29-43.157-16.213L231.042,151.948
	c-11.4-10.765-17.801-25.793-17.664-41.472c-0.064-29.174-12.278-57.003-33.707-76.8c-19.035-21.015-45.932-33.196-74.283-33.643
	c-23.875,0.362-46.92,8.816-65.365,23.979c-4.58,3.705-5.29,10.421-1.586,15.001c0.79,0.976,1.745,1.805,2.823,2.449l65.152,39.104
	c-1.914,19.645-13.69,36.967-31.253,45.973L16.791,91.51c-3.441-1.863-7.589-1.863-11.029,0c-3.235,1.762-5.332,5.069-5.547,8.747
	c-1.876,29.399,8.584,58.25,28.864,79.616c20.191,21.335,48.257,33.444,77.632,33.493c8.23-0.061,16.421-1.143,24.384-3.221
	l149.867,149.909c11.453,10.78,17.886,25.851,17.749,41.579c0.066,28.936,12.124,56.549,33.301,76.267
	c18.709,20.998,45.252,33.348,73.365,34.133h0.149c22.066-0.052,43.564-7.004,61.483-19.883c4.798-3.419,5.916-10.079,2.497-14.877
	c-0.852-1.196-1.942-2.203-3.201-2.958l-71.36-42.816c1.914-19.645,13.69-36.967,31.253-45.973l68.437,41.045
	c5.054,3.026,11.605,1.382,14.631-3.672c0.761-1.271,1.249-2.687,1.433-4.157l0.363-2.603c0.569-3.565,0.897-7.164,0.981-10.773
	C511.938,346.367,464.036,298.617,405.036,298.7z"/>
<path style="fill:#CFD8DC;" d="M505.879,91.297c-3.338-1.84-7.405-1.759-10.667,0.213L436.93,126.54
	c-17.564-9.006-29.339-26.328-31.253-45.973l65.173-39.104c5.057-3.021,6.708-9.57,3.687-14.628
	c-0.644-1.078-1.473-2.034-2.449-2.823C453.637,8.843,430.583,0.389,406.7,0.033h-1.109c-27.964,0.67-54.416,12.832-73.131,33.621
	c-21.46,19.797-33.691,47.646-33.749,76.843c0.114,15.681-6.31,30.702-17.728,41.451L150.508,282.486
	c-11.911,10.935-27.638,16.757-43.797,16.213C47.83,298.77,0.115,346.485,0.044,405.366c0.07,3.615,0.383,7.222,0.939,10.795
	l0.363,2.603c0.73,5.846,6.061,9.992,11.907,9.262c1.47-0.184,2.886-0.672,4.157-1.433l68.416-41.067
	c17.564,9.006,29.339,26.328,31.253,45.973L45.74,474.316c-5.052,3.03-6.692,9.582-3.662,14.634
	c0.755,1.259,1.762,2.349,2.958,3.201c17.913,12.875,39.402,19.826,61.461,19.883h0.213c28.135-0.768,54.705-13.119,73.429-34.133
	c21.159-19.734,33.193-47.355,33.237-76.288c-0.118-15.737,6.339-30.808,17.813-41.579l149.867-149.888
	c7.943,2.073,16.111,3.155,24.32,3.221c29.375-0.05,57.441-12.158,77.632-33.493c20.261-21.36,30.712-50.192,28.843-79.573
	C511.479,96.493,509.241,93.12,505.879,91.297z"/>
<g>
</g>
<g>
</g>
<g>
</g>
<g>
</g>
<g>
</g>
<g>
</g>
<g>
</g>
<g>
</g>
<g>
</g>
<g>
</g>
<g>
</g>
<g>
</g>
<g>
</g>
<g>
</g>
<g>
</g>
</svg>
