<svg id="Capa_1" enable-background="new 0 0 512 512" height="512" viewBox="0 0 512 512" width="512" xmlns="http://www.w3.org/2000/svg"><g><g><path d="m111.879 74.671c0 88.952 123.76 158.494 141.774 167.757 1.476.759 3.217.759 4.693 0 18.014-9.262 141.775-75.652 141.775-167.757.001.001.002.002.003.002-.138-1.501-.308-3.007-.515-4.519-12.768-93.332-125.793-84.112-143.609-27.259-17.817-56.853-130.841-66.073-143.609 27.259-.207 1.513-.377 3.02-.515 4.521.001-.002.002-.003.003-.004z" fill="#da4a54"/><path d="m253.654 233.428c-18.014-9.262-133.877-72.056-141.774-158.757-8.834 96.192 122.441 167.395 141.762 177.331 1.484.763 3.233.763 4.718 0 19.321-9.936 150.596-81.139 141.762-177.331-7.898 86.701-123.76 149.494-141.775 158.757-1.476.759-3.218.759-4.693 0z" fill="#d82e3d"/><g><g><path d="m68.633 175.919 11.065 80.081c.81 2.882 3.887 4.452 6.709 3.455 4.045-1.428 21.894-10.137 21.894-10.137v-60.65c0-12.092-9.802-21.894-21.893-21.894-7.334 0-13.82 3.609-17.793 9.145.005.001.012 0 .018 0z" fill="#edbca4"/><path d="m85.59 293.478.007.009c-1.802-8.235.865-17.166 7.715-23.024 4.353-3.723 9.672-5.582 14.988-5.662v-76.132c0-12.092-9.802-21.893-21.893-21.893-12.091 0-21.893 9.802-21.893 21.893v29.82z" fill="#edbca4"/><path d="m108.301 249.318c-4.347.04-8.628.802-12.673 2.231-2.823.997-5.9-.573-6.71-3.455l-20.286-72.175c-2.582 3.593-4.119 7.987-4.119 12.749v47.901l19.886 74.251 23.901-46.02v-15.482z" fill="#eaab92"/><path d="m228.907 397.348c-4.225-48.684-57.998-73.362-57.998-73.362l-44.411-51.071c-8.512-9.789-23.326-10.883-33.184-2.452-6.85 5.859-9.517 14.79-7.715 23.025l-.007-.01-32.914-117.099c-3.485-12.398-15.164-20.35-27.611-19.512-12.354 3.959-16.77 14.818-14.815 23.425l25.689 113.147c4.089 18.009 11.206 35.193 21.047 50.819l48.245 76.603c8.075 12.822 12.36 27.665 12.36 42.818v39.681l9 8.64h79.1c2.85 0 5.161-2.311 5.161-5.161v-30.043c0-11.641 2.804-23.11 8.227-33.411 5.52-10.486 11.5-26.737 9.826-46.037z" fill="#ffd6bd"/><g fill="#f9c6aa"><path d="m102.047 286.462c-4.487-5.298-6.212-11.997-5.365-18.381-1.169.691-2.303 1.47-3.37 2.382-9.882 8.452-11.077 23.302-2.672 33.225l42.242 49.873c8.572-6.667 9.862-19.134 2.836-27.414z"/><path d="m108.013 506.839v-33.87c0-15.152-4.285-29.996-12.36-42.818l-48.245-76.603c-9.842-15.626-16.958-32.81-21.047-50.819l-25.689-113.147c-3.254-14.332 5.625-28.615 19.917-32.04 1.496-.358 2.992-.576 4.479-.676-5.343 6.23-7.77 14.818-5.815 23.425l25.689 113.147c4.089 18.009 11.206 35.193 21.047 50.819l48.245 76.603c8.075 12.822 12.36 27.665 12.36 42.818v48.322h-13.419c-2.852 0-5.162-2.311-5.162-5.161z"/></g></g><g><path d="m443.367 175.919-11.065 80.081c-.81 2.882-3.887 4.452-6.709 3.455-4.045-1.428-21.893-10.137-21.893-10.137v-60.65c0-12.092 9.802-21.894 21.893-21.894 7.333 0 13.82 3.609 17.793 9.145-.006.001-.013 0-.019 0z" fill="#edbca4"/><path d="m426.41 293.478-.008.009c1.802-8.235-.865-17.166-7.715-23.024-4.353-3.723-9.672-5.582-14.988-5.662v-76.132c0-12.092 9.802-21.893 21.893-21.893 12.091 0 21.893 9.802 21.893 21.893v29.82z" fill="#edbca4"/><path d="m403.699 249.318c4.347.04 8.628.802 12.673 2.231 2.823.997 5.9-.573 6.71-3.455l20.286-72.175c2.582 3.593 4.119 7.987 4.119 12.749v47.901l-19.886 74.251-23.901-46.02v-15.482z" fill="#eaab92"/><path d="m283.093 397.348c4.225-48.684 57.998-73.362 57.998-73.362l44.411-51.071c8.513-9.789 23.326-10.883 33.184-2.452 6.85 5.859 9.517 14.79 7.715 23.025l.008-.01 32.912-117.099c3.485-12.398 15.164-20.35 27.611-19.512 12.354 3.959 16.77 14.818 14.815 23.425l-25.689 113.147c-4.089 18.009-11.206 35.193-21.047 50.819l-48.245 76.603c-8.075 12.822-12.36 27.665-12.36 42.818v39.681l-9 8.64h-79.1c-2.85 0-5.161-2.311-5.161-5.161v-30.043c0-11.641-2.804-23.11-8.227-33.411-5.519-10.486-11.5-26.737-9.825-46.037z" fill="#ffd6bd"/><g fill="#f9c6aa"><path d="m409.953 286.462c4.487-5.298 6.212-11.997 5.365-18.381 1.169.691 2.303 1.47 3.37 2.382 9.882 8.452 11.077 23.302 2.672 33.225l-42.242 49.873c-8.572-6.667-9.862-19.134-2.836-27.414z"/><path d="m403.988 506.839v-33.87c0-15.152 4.285-29.996 12.36-42.818l48.245-76.603c9.842-15.626 16.958-32.81 21.047-50.819l25.689-113.147c3.254-14.332-5.625-28.615-19.917-32.04-1.496-.358-2.992-.576-4.479-.676 5.343 6.23 7.77 14.818 5.815 23.425l-25.689 113.147c-4.089 18.009-11.205 35.193-21.047 50.819l-48.245 76.603c-8.075 12.822-12.36 27.665-12.36 42.818v48.322h13.419c2.851 0 5.162-2.311 5.162-5.161z"/></g></g></g></g></g></svg>