<?xml version="1.0" encoding="iso-8859-1"?>
<!-- Generator: Adobe Illustrator 19.0.0, SVG Export Plug-In . SVG Version: 6.00 Build 0)  -->
<svg xmlns="http://www.w3.org/2000/svg" xmlns:xlink="http://www.w3.org/1999/xlink" version="1.1" id="Capa_1" x="0px" y="0px" viewBox="0 0 410.112 410.112" style="enable-background:new 0 0 410.112 410.112;" xml:space="preserve">
<path style="fill:#31978C;" d="M106.507,410.112L106.507,410.112c-11.264,0-19.968-9.216-19.456-20.48l13.824-294.4h11.776  l13.312,294.4C126.475,400.896,117.771,410.112,106.507,410.112z"/>
<path style="fill:#3EA69B;" d="M50.187,64.512c5.632-2.56,9.216-8.192,9.728-14.336c1.024-15.872,3.072-44.032,40.448-44.032  c0,0,41.984-1.536,47.616,41.472c1.024,7.68,6.144,13.824,13.312,17.408c12.288,6.144,27.136,20.992,16.896,51.712  c-2.56,6.656-0.512,14.336,4.608,19.456c14.848,13.824,36.864,44.544-6.144,75.264c-5.12,3.584-7.68,9.728-6.656,15.872  c2.56,15.36,0.512,43.52-45.056,44.032H92.683c0,0-57.856,3.584-53.248-41.984c0.512-7.68-2.048-14.848-7.68-19.968  c-16.384-13.824-42.496-45.056-2.56-74.752c5.12-3.584,6.656-10.752,3.584-16.384C25.099,105.472,17.931,80.384,50.187,64.512z"/>
<path style="fill:#44C4A1;" d="M100.363,271.36c0,0-66.048,9.728-61.44-41.472c0.512-7.68-2.048-14.848-7.68-19.968  c-16.384-13.824-42.496-45.056-2.56-74.752c5.12-3.584,6.656-10.752,3.584-16.384C25.099,104.96,17.419,79.872,50.187,64  c5.632-2.56,9.216-8.192,9.728-14.336c1.024-15.872,3.072-44.032,40.448-44.032"/>
<g>
	<path style="fill:#31978C;" d="M106.507,235.008c-3.072,0-6.144-2.56-6.144-6.144V57.344c0-3.072,2.56-6.144,6.144-6.144   c3.072,0,6.144,2.56,6.144,6.144v172.032C112.139,232.448,109.579,235.008,106.507,235.008z"/>
	<path style="fill:#31978C;" d="M105.483,125.952c-1.024,0-2.56-0.512-3.584-1.024c-2.56-2.048-3.072-5.632-1.536-8.192   l30.208-41.984c2.048-2.56,5.632-3.072,8.192-1.536c2.56,2.048,3.072,5.632,1.536,8.192l-30.208,41.984   C109.067,124.928,107.531,125.952,105.483,125.952z"/>
	<path style="fill:#31978C;" d="M105.483,125.952c-2.048,0-3.584-1.024-4.608-2.56L70.667,81.408   c-2.048-2.56-1.536-6.144,1.536-8.192c2.56-2.048,6.144-1.536,8.192,1.536l30.208,41.984c2.048,2.56,1.536,6.144-1.536,8.192   C108.043,125.44,106.507,125.952,105.483,125.952z"/>
	<path style="fill:#31978C;" d="M105.483,201.728c-1.024,0-2.048-0.512-3.072-1.024c-2.56-1.536-3.584-5.632-1.536-8.192   l42.496-65.536c1.536-2.56,5.632-3.584,8.192-1.536c2.56,1.536,3.584,5.632,1.536,8.192l-42.496,65.536   C109.579,200.704,107.531,201.728,105.483,201.728z"/>
	<path style="fill:#31978C;" d="M105.483,201.728c-2.048,0-3.584-1.024-4.608-2.56l-48.64-65.536   c-2.048-2.56-1.536-6.144,1.024-8.192c2.56-2.048,6.144-1.536,8.192,1.024L110.091,192c2.048,2.56,1.536,6.144-1.024,8.192   C108.043,201.728,107.019,201.728,105.483,201.728z"/>
	<path style="fill:#31978C;" d="M306.699,404.48L306.699,404.48c-11.264,0-19.968-9.216-19.456-20.48l13.824-294.4h11.264   L326.155,384C326.667,395.264,317.963,404.48,306.699,404.48z"/>
</g>
<path style="fill:#3EA69B;" d="M250.891,58.88c5.632-2.56,9.216-8.192,9.728-14.336c1.024-15.872,3.072-44.032,40.448-44.032  c0,0,41.984-1.536,47.616,41.472c1.024,7.68,6.144,13.824,13.312,17.408c12.288,6.144,27.136,20.992,16.896,51.712  c-2.56,6.656-0.512,14.336,4.608,19.456c14.848,13.824,36.864,44.544-6.144,75.264c-5.12,3.584-7.68,9.728-6.656,15.872  c2.56,15.36,0.512,43.52-45.056,44.032h-32.256c0,0-57.856,3.584-53.248-41.984c0.512-7.68-2.048-14.848-7.68-19.968  c-16.384-13.824-42.496-45.056-2.56-74.752c5.12-3.584,6.656-10.752,3.584-16.384C225.291,99.84,218.123,74.752,250.891,58.88z"/>
<path style="fill:#44C4A1;" d="M300.555,265.728c0,0-66.048,9.728-61.44-41.472c0.512-7.68-2.048-14.848-7.68-19.968  c-16.384-13.824-42.496-45.056-2.56-74.752c5.12-3.584,6.656-10.752,3.584-16.384c-7.168-13.824-14.848-38.912,17.92-54.784  c5.632-2.56,9.216-8.192,9.728-14.336C261.131,28.16,263.179,0,300.555,0"/>
<g>
	<path style="fill:#31978C;" d="M306.699,229.376c-3.072,0-6.144-2.56-6.144-6.144V51.712c0-3.072,2.56-6.144,6.144-6.144   s5.632,3.072,5.632,6.144v172.032C312.331,226.816,309.771,229.376,306.699,229.376z"/>
	<path style="fill:#31978C;" d="M305.675,120.32c-1.024,0-2.56-0.512-3.584-1.024c-2.56-2.048-3.072-5.632-1.536-8.192   l30.208-41.984c2.048-2.56,5.632-3.072,8.192-1.536c2.56,2.048,3.072,5.632,1.536,8.192l-30.208,41.984   C309.259,119.296,307.723,120.32,305.675,120.32z"/>
	<path style="fill:#31978C;" d="M305.675,120.32c-2.048,0-3.584-1.024-4.608-2.56l-30.208-41.984   c-2.048-2.56-1.536-6.144,1.536-8.192c2.56-2.048,6.144-1.536,8.192,1.536l30.208,41.984c2.048,2.56,1.536,6.144-1.536,8.192   C308.235,119.808,307.211,120.32,305.675,120.32z"/>
	<path style="fill:#31978C;" d="M305.675,196.096c-1.024,0-2.048-0.512-3.072-1.024c-2.56-1.536-3.584-5.632-1.536-8.192   l42.496-65.536c1.536-2.56,5.632-3.584,8.192-1.536c2.56,1.536,3.584,5.632,1.536,8.192l-42.496,65.536   C309.771,195.072,307.723,196.096,305.675,196.096z"/>
	<path style="fill:#31978C;" d="M305.675,196.096c-2.048,0-3.584-1.024-4.608-2.56L252.427,128c-2.048-2.56-1.536-6.144,1.024-8.192   c2.56-2.048,6.144-1.536,8.192,1.024l48.64,65.536c2.048,2.56,1.536,6.144-1.024,8.192   C308.235,196.096,307.211,196.096,305.675,196.096z"/>
</g>
<g>
</g>
<g>
</g>
<g>
</g>
<g>
</g>
<g>
</g>
<g>
</g>
<g>
</g>
<g>
</g>
<g>
</g>
<g>
</g>
<g>
</g>
<g>
</g>
<g>
</g>
<g>
</g>
<g>
</g>
</svg>
