<?xml version="1.0" encoding="iso-8859-1"?>
<!-- Generator: Adobe Illustrator 19.0.0, SVG Export Plug-In . SVG Version: 6.00 Build 0)  -->
<svg version="1.1" id="Capa_1" xmlns="http://www.w3.org/2000/svg" xmlns:xlink="http://www.w3.org/1999/xlink" x="0px" y="0px"
	 viewBox="0 0 512 512" style="enable-background:new 0 0 512 512;" xml:space="preserve">
<path style="fill:#4CDBC4;" d="M469.333,128H170.667C147.104,128,128,147.104,128,170.667v298.667
	C128,492.896,147.104,512,170.667,512h298.667C492.896,512,512,492.896,512,469.333V170.667C512,147.104,492.896,128,469.333,128"/>
<rect x="170.667" y="235.627" style="fill:#F2F2F2;" width="298.667" height="233.707"/>
<g>
	<path style="fill:#FFFFFF;" d="M244.875,181.813c0,12.896-10.453,23.349-23.339,23.349c-12.896,0-23.349-10.453-23.349-23.349
		s10.453-23.349,23.349-23.349C234.421,158.453,244.875,168.917,244.875,181.813"/>
	<path style="fill:#FFFFFF;" d="M441.813,181.813c0,12.896-10.453,23.349-23.349,23.349c-12.875,0-23.339-10.453-23.339-23.349
		s10.453-23.349,23.339-23.349C431.349,158.453,441.813,168.917,441.813,181.813"/>
</g>
<g>
	<path style="fill:#40596B;" d="M221.525,102.539c-9.792,0-17.749,7.957-17.749,17.771v54.645c0,9.813,7.957,17.749,17.749,17.749
		c9.813,0,17.771-7.936,17.771-17.749v-54.645C239.296,110.496,231.339,102.539,221.525,102.539"/>
	<path style="fill:#40596B;" d="M418.475,102.539c-9.813,0-17.771,7.957-17.771,17.771v54.645c0,9.813,7.957,17.749,17.771,17.749
		c9.792,0,17.749-7.936,17.749-17.749v-54.645C436.224,110.496,428.267,102.539,418.475,102.539"/>
	<polygon style="fill:#40596B;" points="272.587,328.896 272.587,286.837 367.413,286.837 367.413,309.003 314.272,418.123 
		282.379,418.123 333.045,312 300,312 300,328.896 	"/>
</g>
<path style="fill:#FF7058;" d="M307.52,153.771c0,84.917-68.832,153.749-153.749,153.749S0,238.688,0,153.771S68.853,0,153.771,0
	S307.52,68.853,307.52,153.771"/>
<path style="fill:#FFFFFF;" d="M153.749,271.541c-64.939,0-117.771-52.832-117.771-117.771S88.811,36,153.749,36
	s117.792,52.832,117.792,117.771S218.688,271.541,153.749,271.541"/>
<path style="fill:#FFD15C;" d="M153.771,58.997c-6.101,0-11.061,4.96-11.061,11.061v72.672H93.504c-6.08,0-11.04,4.96-11.04,11.04
	s4.96,11.04,11.04,11.04h60.267c6.08,0,11.04-4.96,11.04-11.04V70.059C164.811,63.957,159.851,58.997,153.771,58.997"/>
<path style="fill:#40596B;" d="M153.771,183.083c-16.192,0-29.333-13.141-29.333-29.333c0-16.149,13.141-29.312,29.333-29.312
	c16.171,0,29.312,13.163,29.312,29.312C183.083,169.941,169.941,183.083,153.771,183.083"/>
<path style="fill:#334A5E;" d="M153.771,167.296c-7.477,0-13.547-6.059-13.547-13.547c0-7.435,6.059-13.525,13.547-13.525
	c7.456,0,13.525,6.08,13.525,13.525C167.296,161.227,161.227,167.296,153.771,167.296"/>
<g>
</g>
<g>
</g>
<g>
</g>
<g>
</g>
<g>
</g>
<g>
</g>
<g>
</g>
<g>
</g>
<g>
</g>
<g>
</g>
<g>
</g>
<g>
</g>
<g>
</g>
<g>
</g>
<g>
</g>
</svg>
