<?xml version="1.0" encoding="iso-8859-1"?>
<!-- Generator: Adobe Illustrator 19.0.0, SVG Export Plug-In . SVG Version: 6.00 Build 0)  -->
<svg xmlns="http://www.w3.org/2000/svg" xmlns:xlink="http://www.w3.org/1999/xlink" version="1.1" id="Layer_1" x="0px" y="0px" viewBox="0 0 512.001 512.001" style="enable-background:new 0 0 512.001 512.001;" xml:space="preserve">
<path style="fill:#D6E0E0;" d="M510.123,7.983c-0.616-3.091-3.032-5.506-6.122-6.124C497.828,0.627,491.492,0,485.165,0  c-26.075,0-50.696,10.262-69.33,28.893L217.337,227.392c-1.464,1.464-2.286,3.449-2.286,5.518s0.823,4.054,2.286,5.518  l56.217,56.218c1.524,1.523,3.521,2.285,5.518,2.285s3.994-0.763,5.518-2.285l198.5-198.499  C506.391,72.846,516.496,39.887,510.123,7.983z"/>
<path style="fill:#774633;" d="M282.147,291.855l-62.018-62.016c-3.483-3.481-9.128-3.481-12.612,0L13.232,424.125  c-17.636,17.634-17.636,46.331,0,63.97l10.66,10.658c8.543,8.542,19.901,13.247,31.983,13.248h0.002  c12.082,0,23.441-4.706,31.983-13.247l194.286-194.285c1.672-1.673,2.613-3.941,2.613-6.306  C284.76,295.797,283.819,293.528,282.147,291.855z M72.962,468.539c-3.943,3.943-9.184,6.114-14.759,6.114  s-10.816-2.171-14.756-6.111c-3.943-3.943-6.114-9.185-6.114-14.76c0-5.575,2.17-10.817,6.114-14.759  c3.941-3.942,9.181-6.112,14.755-6.112c5.576,0,10.817,2.171,14.758,6.114C81.097,447.162,81.097,460.403,72.962,468.539z"/>
<path style="fill:#636D77;" d="M284.76,298.161c0-2.362-0.939-4.626-2.606-6.299l-62.028-62.027c-3.48-3.475-9.117-3.476-12.6-0.006  l-20.771,20.771l-7.359,7.358l38.138,38.138l18.211,18.212l18.28,18.279l28.126-28.125  C283.821,302.789,284.76,300.525,284.76,298.161z"/>
<g style="opacity:0.15;">
	<path style="fill:#020202;" d="M23.822,438.896l166.165-166.167l3.699-3.699l24.421-24.419c0.001-0.002,0.003-0.003,0.004-0.006   l0.004-0.003c0.043-0.045,0.094-0.081,0.137-0.124c0.176-0.168,0.353-0.334,0.54-0.486c0.023-0.02,0.05-0.036,0.076-0.056   c2.497-1.988,5.811-2.439,8.685-1.36c0.122-0.14,0.242-0.282,0.375-0.414L426.426,43.663c18.634-18.631,43.255-28.893,69.33-28.893   c5.233,0,10.47,0.453,15.62,1.3c-0.304-2.699-0.716-5.398-1.253-8.088c-0.616-3.091-3.032-5.506-6.122-6.124   C497.828,0.627,491.492,0,485.165,0c-26.075,0-50.696,10.262-69.33,28.893L217.337,227.392c-0.133,0.132-0.253,0.273-0.375,0.414   c-2.874-1.079-6.188-0.628-8.685,1.36c-0.026,0.02-0.052,0.036-0.076,0.056c-0.186,0.152-0.363,0.317-0.54,0.486   c-0.043,0.042-0.094,0.079-0.137,0.124l-0.004,0.003c-0.001,0.002-0.003,0.003-0.004,0.006l-24.421,24.419l-3.699,3.699   L13.232,424.125c-17.636,17.634-17.636,46.331,0,63.97l1.327,1.324C7.103,472.782,10.185,452.533,23.822,438.896z"/>
</g>
<path style="fill:#EBEDED;" d="M274.487,245.86c-2.14,0-4.281-0.817-5.913-2.448c-3.265-3.266-3.265-8.559,0-11.825L462.789,37.37  c3.265-3.264,8.559-3.264,11.823,0c3.266,3.266,3.266,8.559,0,11.825L280.399,243.412  C278.766,245.043,276.626,245.86,274.487,245.86z"/>
<g>
</g>
<g>
</g>
<g>
</g>
<g>
</g>
<g>
</g>
<g>
</g>
<g>
</g>
<g>
</g>
<g>
</g>
<g>
</g>
<g>
</g>
<g>
</g>
<g>
</g>
<g>
</g>
<g>
</g>
</svg>
