<?xml version="1.0" encoding="iso-8859-1"?>
<!-- Generator: Adobe Illustrator 19.0.0, SVG Export Plug-In . SVG Version: 6.00 Build 0)  -->
<svg version="1.1" id="Capa_1" xmlns="http://www.w3.org/2000/svg" xmlns:xlink="http://www.w3.org/1999/xlink" x="0px" y="0px"
	 viewBox="0 0 468.293 468.293" style="enable-background:new 0 0 468.293 468.293;" xml:space="preserve">
<path style="fill:#2D92BA;" d="M31.718,394.649V18.732C31.718,8.386,40.104,0,50.449,0h207.503c10.345,0,18.732,8.386,18.732,18.732
	v375.917c0,10.345-8.386,18.732-18.732,18.732H50.449C40.104,413.38,31.718,404.994,31.718,394.649z"/>
<rect x="47.017" y="40.835" style="fill:#EBEFF2;" width="214.353" height="306.201"/>
<g>
	<circle style="fill:#3B566A;" cx="154.224" cy="380.191" r="19.294"/>
	<path style="fill:#3B566A;" d="M178.354,25.925h-55.117c-3.044,0-5.512-2.468-5.512-5.512v0c0-3.044,2.468-5.512,5.512-5.512
		h55.117c3.044,0,5.512,2.468,5.512,5.512v0C183.865,23.458,181.398,25.925,178.354,25.925z"/>
	<path style="fill:#3B566A;" d="M200.401,25.925L200.401,25.925c-3.044,0-5.512-2.468-5.512-5.512v0
		c0-3.044,2.468-5.512,5.512-5.512h0c3.044,0,5.512,2.468,5.512,5.512v0C205.912,23.458,203.445,25.925,200.401,25.925z"/>
	<path style="fill:#3B566A;" d="M101.189,25.925L101.189,25.925c-3.044,0-5.512-2.468-5.512-5.512v0
		c0-3.044,2.468-5.512,5.512-5.512h0c3.044,0,5.512,2.468,5.512,5.512v0C106.701,23.458,104.233,25.925,101.189,25.925z"/>
</g>
<path style="fill:#D4D5DB;" d="M436.575,358.872l0-23.675l-20.78-4.022c-2.551-16.269-8.916-31.233-18.208-43.984l11.843-17.528
	l-16.741-16.741l-17.528,11.843c-12.751-9.292-27.715-15.657-43.984-18.208l-4.022-20.78H303.48l-4.022,20.78
	c-16.269,2.551-31.233,8.916-43.983,18.208l-17.529-11.844l-16.741,16.741l11.844,17.529c-9.292,12.751-15.657,27.715-18.208,43.983
	l-20.782,4.022l0,23.675l20.782,4.022c2.551,16.268,8.916,31.233,18.208,43.984l-11.844,17.529l16.741,16.741l17.529-11.844
	c12.751,9.292,27.715,15.658,43.984,18.209l4.022,20.78h23.675l4.022-20.78c16.269-2.551,31.233-8.916,43.984-18.208l17.527,11.843
	l16.741-16.741l-11.843-17.527c9.292-12.751,15.658-27.716,18.209-43.985L436.575,358.872z"/>
<circle style="fill:#EBEFF2;" cx="315.317" cy="347.036" r="75.926"/>
<circle style="fill:#FFFFFF;" cx="315.317" cy="347.036" r="60.741"/>
<g>
</g>
<g>
</g>
<g>
</g>
<g>
</g>
<g>
</g>
<g>
</g>
<g>
</g>
<g>
</g>
<g>
</g>
<g>
</g>
<g>
</g>
<g>
</g>
<g>
</g>
<g>
</g>
<g>
</g>
</svg>
