<svg id="Capa_1" enable-background="new 0 0 512 512" height="512" viewBox="0 0 512 512" width="512" xmlns="http://www.w3.org/2000/svg"><g><path d="m251 315h20v122h-20z" fill="#4ad0ff"/><path d="m241 315h15v122h-15z" fill="#86e0ff"/><path d="m256 422-30 75h150v-15c-23.787 0-35.087-11.3-49.394-25.606-15.323-15.324-34.393-34.394-70.606-34.394z" fill="#86e0ff"/><path d="m185.394 456.394c-14.307 14.306-25.607 25.606-49.394 25.606v15h120v-75c-36.213 0-55.283 19.07-70.606 34.394z" fill="#c3efff"/><path d="m421 166c0-12.149-1.338-24.299-3.977-36.114 0 .001-29.003-129.886-29.003-129.886h-132.02l-60 166 60 165c90.981 0 165-74.019 165-165z" fill="#86e0ff"/><path d="m123.98 0-29.002 129.885c-2.64 11.814-3.978 23.965-3.978 36.115 0 90.981 74.019 165 165 165v-331z" fill="#c3efff"/><path d="m421 482h-165l-15 15 15 15h165z" fill="#4ad0ff"/><path d="m91 482h165v30h-165z" fill="#86e0ff"/></g></svg>