<?xml version="1.0" encoding="iso-8859-1"?>
<!-- Generator: Adobe Illustrator 19.0.0, SVG Export Plug-In . SVG Version: 6.00 Build 0)  -->
<svg version="1.1" id="Capa_1" xmlns="http://www.w3.org/2000/svg" xmlns:xlink="http://www.w3.org/1999/xlink" x="0px" y="0px"
	 viewBox="0 0 512.016 512.016" style="enable-background:new 0 0 512.016 512.016;" xml:space="preserve">
<g>
	<path style="fill:#4CAF50;" d="M432,112.008c-6.464,0-12.576-3.968-14.976-10.368c-3.136-8.288,1.056-17.504,9.344-20.608
		c40.512-15.2,54.368-53.888,54.496-54.272c2.944-8.352,12.192-12.768,20.384-9.856c8.352,2.912,12.736,12,9.888,20.352
		c-0.768,2.176-19.104,53.344-73.504,73.728C435.776,111.688,433.888,112.008,432,112.008z"/>
	<path style="fill:#4CAF50;" d="M496,176.008c-6.592,0-12.768-4.096-15.104-10.688c-0.416-1.12-14.88-39.456-54.528-54.336
		c-8.288-3.104-12.48-12.32-9.344-20.608c3.104-8.288,12.384-12.448,20.608-9.344c54.4,20.416,72.704,71.552,73.504,73.728
		c2.88,8.352-1.536,17.44-9.888,20.352C499.52,175.72,497.76,176.008,496,176.008z"/>
</g>
<path style="fill:#CFD8DC;" d="M336,134.376c-8.832,0-16,7.168-16,16v89.6c0,17.664-14.336,32-32,32h-16v-112
	c0-8.832-7.168-16-16-16s-16,7.168-16,16v112h-16c-17.632,0-32-14.336-32-32v-89.6c0-8.832-7.168-16-16-16s-16,7.168-16,16v89.6
	c0,35.296,28.704,64,64,64h16v176.032c0,8.832,7.168,16,16,16s16-7.168,16-16V303.976h16c35.296,0,64-28.704,64-64v-89.6
	C352,141.544,344.832,134.376,336,134.376z"/>
<path style="fill:#FF9800;" d="M368,16.008c-3.008,0-5.984,0.064-8.608,0.48L43.168,48.232v0.16C18.56,50.856,0,71.336,0,96.008
	s18.56,45.152,43.168,47.616l315.872,31.872c2.72,0.448,5.792,0.512,8.96,0.512c44.128,0,80-35.904,80-80S412.128,16.008,368,16.008
	z"/>
<g>
	<path style="fill:#FFD54F;" d="M122.048,78.856c1.952,0.8,3.968,1.152,5.952,1.152c6.336,0,12.352-3.808,14.848-10.048
		c4.192-10.496,7.36-21.536,9.888-32.736l-34.56,3.488c-1.664,5.792-2.816,11.808-5.024,17.344
		C109.856,66.248,113.856,75.56,122.048,78.856z"/>
	<path style="fill:#FFD54F;" d="M202.016,78.856c1.984,0.768,4,1.152,5.984,1.152c6.336,0,12.352-3.808,14.848-10.016
		c5.344-13.344,8.832-26.976,11.392-40.928l-33.088,3.296c-2.08,8.704-4.608,17.248-8,25.664
		C189.856,66.248,193.856,75.56,202.016,78.856z"/>
	<path style="fill:#FFD54F;" d="M298.912,22.568c-2.08,12-5.024,23.872-9.728,35.392c-3.328,8.192,0.608,17.536,8.8,20.864
		c1.952,0.8,4,1.184,6.016,1.184c6.304,0,12.288-3.744,14.816-9.952c6.72-16.448,10.432-33.504,12.64-50.784L298.912,22.568z"/>
</g>
<g>
</g>
<g>
</g>
<g>
</g>
<g>
</g>
<g>
</g>
<g>
</g>
<g>
</g>
<g>
</g>
<g>
</g>
<g>
</g>
<g>
</g>
<g>
</g>
<g>
</g>
<g>
</g>
<g>
</g>
</svg>
