<svg id="Capa_1" enable-background="new 0 0 512 512" height="512" viewBox="0 0 512 512" width="512" xmlns="http://www.w3.org/2000/svg"><g><path d="m256 0-20 256 20 256c141.385 0 256-114.615 256-256s-114.615-256-256-256z" fill="#e1bb78"/><path d="m0 256c0 141.385 114.615 256 256 256v-512c-141.385 0-256 114.615-256 256z" fill="#edd7b0"/><path d="m256 45-20 211 20 211c116.532 0 211-94.468 211-211s-94.468-211-211-211z" fill="#c9885b"/><path d="m45 256c0 116.532 94.468 211 211 211v-422c-116.532 0-211 94.468-211 211z" fill="#e1bb78"/><path d="m299.975 80.391-43.975 20-20 155.609 20 181c99.964 0 181-81.036 181-181 0-84.796-58.314-155.961-137.025-175.609z" fill="#ffda44"/><path d="m212.025 80.391c-78.711 19.648-137.025 90.813-137.025 175.609 0 36.773 10.977 70.977 29.817 99.535l35.328 12.892 16.32 38.755c28.558 18.841 62.762 29.818 99.535 29.818v-336.609z" fill="#fff79f"/><circle cx="181" cy="226" fill="#ff415b" r="45"/><circle cx="181" cy="226" fill="#ff8859" r="15"/><circle cx="338.5" cy="293.5" fill="#d10050" r="52.5"/><circle cx="338.5" cy="293.5" fill="#ff415b" r="22.5"/><path d="m181.023 330.978c-17.567-17.567-46.049-17.567-63.615 0-6.933 6.933-11.13 15.566-12.59 24.558 13.535 20.517 31.131 38.113 51.648 51.648 8.991-1.46 17.625-5.657 24.558-12.59 17.565-17.568 17.565-46.05-.001-63.616z" fill="#ff415b"/><path d="m311 177.333h30v30h-30z" fill="#ffb655"/><path d="m301 89.983c0-3.292-.354-6.501-1.025-9.592-14.079-3.514-28.807-5.391-43.975-5.391l-20 29.991 20 29.991c24.853.001 45-20.146 45-44.999z" fill="#d10050"/><path d="m212.025 80.391c-.671 3.091-1.025 6.3-1.025 9.592 0 24.853 20.147 45 45 45v-59.983c-15.168 0-29.896 1.877-43.975 5.391z" fill="#ff415b"/><path d="m271 392v-30h-15l-10 15 10 15z" fill="#ffb655"/><path d="m241 362h15v30h-15z" fill="#ffda44"/></g></svg>