<svg id="Capa_1" enable-background="new 0 0 512 512" height="512" viewBox="0 0 512 512" width="512" xmlns="http://www.w3.org/2000/svg"><g><path d="m154.394 477.606c-5.858-5.857-5.858-15.355 0-21.213l4.393-4.394h-33.787c-24.813 0-45-20.187-45-45v-70c0-8.284 6.716-15 15-15s15 6.716 15 15v70c0 8.271 6.729 15 15 15h33.787l-4.393-4.394c-5.858-5.857-5.858-15.355 0-21.213s15.355-5.858 21.213 0l30 30c2.929 2.93 4.393 6.769 4.393 10.608s-1.464 7.678-4.394 10.606l-30 30c-5.857 5.859-15.355 5.859-21.212 0z" fill="#738c96"/><g><g><g><circle cx="377" cy="377" fill="#fff79f" r="135"/><path d="m377 242v270c74.439 0 135-60.561 135-135s-60.561-135-135-135z" fill="#ffde55"/><circle cx="377" cy="377" fill="#ffde55" r="105"/><path d="m377 272v210c57.897 0 105-47.103 105-105s-47.103-105-105-105z" fill="#eebf00"/><path d="m393.209 366.855c-2.301-.813-4.651-1.661-6.998-2.542v-39.825c5.203 1.419 7.856 4.039 8.045 4.232 3.634 4.126 9.924 4.545 14.072.929 4.164-3.628 4.599-9.945.97-14.109-3.784-4.344-11.752-9.82-23.087-11.471v-7.069c0-5.523-4.478-10-10-10s-10 4.477-10 10v8.23c-1.036.255-2.082.53-3.147.851-13.035 3.926-22.771 15.068-25.411 29.077-2.414 12.811 1.717 25.185 10.779 32.293 4.556 3.573 10.171 6.847 17.779 10.278v50.795c-6.202-.614-10.438-2.362-17.417-6.928-4.623-3.024-10.819-1.727-13.843 2.894-3.023 4.622-1.729 10.819 2.894 13.843 11.076 7.246 18.763 9.578 28.366 10.245v8.422c0 5.523 4.478 10 10 10s10-4.477 10-10v-9.323c19.01-4.322 31.215-20.336 33.87-36.13 3.393-20.18-7.156-37.723-26.872-44.692zm-32.435-15.141c-3.117-2.445-4.479-7.49-3.468-12.853.849-4.51 3.626-9.847 8.904-12.566v29.029c-2.012-1.167-3.853-2.369-5.436-3.61zm39.583 56.517c-1.217 7.24-6.02 14.904-14.146 18.497v-41.135c.113.04.218.079.332.119 15.415 5.448 14.471 18.614 13.814 22.519z" fill="#fff79f"/><path d="m393.209 366.855c-2.301-.813-4.651-1.661-6.998-2.542v-39.825c5.203 1.419 7.856 4.039 8.045 4.232 3.634 4.126 9.924 4.545 14.072.929 4.164-3.628 4.599-9.945.97-14.109-3.784-4.344-11.752-9.82-23.087-11.471v-7.069c0-5.257-4.058-9.557-9.211-9.96v179.92c5.153-.403 9.211-4.704 9.211-9.96v-9.323c19.01-4.322 31.215-20.336 33.87-36.13 3.393-20.18-7.156-37.723-26.872-44.692zm7.148 41.376c-1.217 7.24-6.02 14.904-14.146 18.497v-41.135c.113.04.218.079.332.119 15.415 5.448 14.471 18.614 13.814 22.519z" fill="#ffde55"/></g><g><circle cx="145" cy="145" fill="#55696e" r="130"/><path d="m145 15c71.797 0 130 58.203 130 130s-58.203 130-130 130z" fill="#3f4a4a"/><g><g><path d="m130 15v30c0 8.284 6.716 15 15 15 8.284 0 15-6.716 15-15v-30z" fill="#fff5f5"/><path d="m145 60c8.284 0 15-6.716 15-15v-30h-15z" fill="#f5f0eb"/><path d="m145 230c-8.284 0-15 6.716-15 15v30h30v-30c0-8.284-6.716-15-15-15z" fill="#fff5f5"/><path d="m160 275v-30c0-8.284-6.716-15-15-15v45z" fill="#f5f0eb"/></g><g><path d="m245 130c-8.284 0-15 6.716-15 15 0 8.284 6.716 15 15 15h30v-30z" fill="#f5f0eb"/><path d="m45 130h-30v30h30c8.284 0 15-6.716 15-15 0-8.284-6.716-15-15-15z" fill="#fff5f5"/></g><g><path d="m226.317 42.47-21.213 21.213c-5.858 5.858-5.858 15.355 0 21.213s15.355 5.858 21.213 0l21.213-21.213z" fill="#f5f0eb"/><path d="m84.896 205.104c-5.858-5.858-15.355-5.858-21.213 0l-21.213 21.213 21.213 21.213 21.213-21.213c5.857-5.857 5.857-15.355 0-21.213z" fill="#fff5f5"/></g><g><path d="m84.896 63.683-21.213-21.213-21.213 21.213 21.213 21.213c5.858 5.858 15.355 5.858 21.213 0 5.857-5.858 5.857-15.356 0-21.213z" fill="#fff5f5"/><path d="m226.318 205.104c-5.858-5.858-15.355-5.858-21.213 0s-5.858 15.355 0 21.213l21.213 21.213 21.213-21.213z" fill="#f5f0eb"/></g></g><g><path d="m145 290c-79.953 0-145-65.047-145-145s65.047-145 145-145 145 65.047 145 145-65.047 145-145 145zm0-260c-63.411 0-115 51.589-115 115s51.589 115 115 115 115-51.589 115-115-51.589-115-115-115z" fill="#beebfa"/></g><path d="m145 0v30c63.411 0 115 51.589 115 115s-51.589 115-115 115v30c79.953 0 145-65.047 145-145s-65.047-145-145-145z" fill="#7ed8f7"/><g><path d="m185 160h-40c-8.284 0-15-6.716-15-15v-50c0-8.284 6.716-15 15-15s15 6.716 15 15v35h25c8.284 0 15 6.716 15 15s-6.716 15-15 15z" fill="#fff5f5"/></g><path d="m185 160c8.284 0 15-6.716 15-15s-6.716-15-15-15h-25v-35c0-8.284-6.716-15-15-15v80z" fill="#f5f0eb"/></g></g></g><path d="m477.606 154.394c-5.857-5.858-15.355-5.858-21.213 0l-4.393 4.393v-33.787c0-24.813-20.187-45-45-45h-70c-8.284 0-15 6.716-15 15s6.716 15 15 15h70c8.271 0 15 6.729 15 15v33.787l-4.394-4.393c-5.857-5.858-15.355-5.858-21.213 0s-5.858 15.355 0 21.213l30 30c2.929 2.929 6.768 4.393 10.607 4.393s7.678-1.464 10.606-4.394l30-30c5.859-5.857 5.859-15.355 0-21.212z" fill="#55696e"/></g></svg>