<svg height="512" viewBox="0 0 58 58" width="512" xmlns="http://www.w3.org/2000/svg"><g id="Page-1" fill="none" fill-rule="evenodd"><g id="003---Magnifying-Glass" fill-rule="nonzero" transform="translate(-1 -1)"><path id="Shape" d="m19.905 43.246-4.569 4.569-3.151-3.151 4.569-4.564c.9591593 1.1361798 2.0132984 2.1886462 3.151 3.146z" fill="#7f8c8d"/><path id="Shape" d="m59 25c-.0013556 9.3438058-5.4255785 17.8374144-13.9020743 21.7687917s-18.4641316 2.5857497-25.5979257-3.4487917c-1.0182992-.8582964-1.9617036-1.8017008-2.82-2.82-6.85837793-8.1040088-7.57739404-19.751146-1.7678677-28.6371862 5.8095262-8.88604026 16.7670146-12.89929803 26.9415246-9.86752442 10.1745101 3.03177361 17.1481635 12.38810552 17.1463431 23.00471062z" fill="#bdc3c7"/><circle id="Oval" cx="35" cy="25" fill="#4fba6f" r="20"/><path id="Shape" d="m35 46c-11.5979797 0-21-9.4020203-21-21s9.4020203-21 21-21 21 9.4020203 21 21c-.012676 11.5927251-9.4072749 20.987324-21 21zm0-40c-10.4934102 0-19 8.5065898-19 19s8.5065898 19 19 19 19-8.5065898 19-19c-.0115735-10.4886126-8.5113874-18.9884265-19-19z" fill="#ecf0f1"/><path id="Shape" d="m16.12 49.54-8.29 8.29c-1.56296585 1.5629658-4.09703412 1.5629658-5.65999994-.0000001-1.56296582-1.5629658-1.56296585-4.097034-.00000006-5.6599999l8.29-8.29c.3930079-.3899779 1.0269921-.3899779 1.42 0l.71.71 2.82 2.82.71.71c.3899779.3930079.3899779 1.0269921 0 1.42z" fill="#e64c3c"/><path id="Shape" d="m29.461 36c-.2693277.0004997-.5274707-.1076608-.716-.3l-6.461-6.632c-.2615582-.2533902-.3646899-.6289365-.2692271-.9803709.0954627-.3514344.3744257-.6231895.7282381-.709422.3538125-.0862324.7265311.0266926.972989.2947929l5.745 5.9 16.823-17.273c.2500859-.2558022.6176437-.3587539.9642178-.2700742s.6195118.3555182.716.7.0018681.714272-.2482178.9700742l-17.538 18c-.1887717.1925879-.4473256.3007694-.717.3z" fill="#fff"/></g></g></svg>