<svg height="512" viewBox="0 0 58 54" width="512" xmlns="http://www.w3.org/2000/svg"><g id="Page-1" fill="none" fill-rule="evenodd"><g id="003---Laptop-Reading" fill-rule="nonzero"><path id="Shape" d="m3 44v-40c0-2.209139 1.790861-4 4-4h44c2.209139 0 4 1.790861 4 4v40z" fill="#2c3e50"/><path id="Rectangle-path" d="m7 4h44v36h-44z" fill="#67b9cc"/><path id="Shape" d="m51 18.49v21.51h-44v-7.35c5.35-6.31 19.47-18.95 44-14.16z" fill="#2fa8cc"/><path id="Shape" d="m1 44h56c.5522847 0 1 .4477153 1 1v4c0 2.7614237-2.2385763 5-5 5h-48c-1.32608245 0-2.59785201-.5267842-3.53553391-1.4644661-.93768189-.9376819-1.46446609-2.2094515-1.46446609-3.5355339v-4c0-.5522847.44771525-1 1-1z" fill="#547580"/><path id="Shape" d="m38 44-2.4 3.2c-.3777088.5036117-.9704854.8-1.6.8h-10c-.6295146 0-1.2222912-.2963883-1.6-.8l-2.4-3.2z" fill="#3f5c6c"/><circle id="Oval" cx="5" cy="48" fill="#f0c419" r="1"/><circle id="Oval" cx="9" cy="48" fill="#ff5364" r="1"/><rect id="Rectangle-path" fill="#cb8252" height="24" rx="2" width="32" x="13" y="12"/><path id="Shape" d="m30 32v4h-2v-4c0-.5522847.4477153-1 1-1s1 .4477153 1 1z" fill="#a56a43"/><path id="Shape" d="m41 9.02v20c-.0054183.5445018-.4454982.9845817-.99.99-3.7527127.0712098-7.4697957.7430532-11.01 1.99v-22c3.5299789-1.24643657 7.2371113-1.9183121 10.98-1.99.2696777-.00294032.5293087.10220282.7209481.29196335.1916393.18976054.2993352.44834308.2990519.71803665z" fill="#f5efca"/><path id="Shape" d="m29 10v22c-3.5402043-1.2469468-7.2572873-1.9187902-11.01-1.99-.5445018-.0054183-.9845817-.4454982-.99-.99v-20c-.0002833-.26969357.1074126-.52827611.2990519-.71803665.1916394-.18976053.4512704-.29490367.7209481-.29196335 3.7428887.0716879 7.4500211.74356343 10.98 1.99z" fill="#f9eab0"/></g></g></svg>