<?xml version="1.0" encoding="iso-8859-1"?>
<!-- Generator: Adobe Illustrator 19.0.0, SVG Export Plug-In . SVG Version: 6.00 Build 0)  -->
<svg version="1.1" id="Capa_1" xmlns="http://www.w3.org/2000/svg" xmlns:xlink="http://www.w3.org/1999/xlink" x="0px" y="0px"
	 viewBox="0 0 511.911 511.911" style="enable-background:new 0 0 511.911 511.911;" xml:space="preserve">
<path style="fill:#E8EAE9;" d="M19.911,492L19.911,492c0,0-44.8-117.333,0-162.133l90.667-90.667l162.133,162.133L182.044,492
	C137.244,536.8,19.911,492,19.911,492z"/>
<rect x="167.06" y="223.954" transform="matrix(-0.7071 0.7071 -0.7071 -0.7071 625.6882 237.8065)" style="fill:#FFD15C;" width="193.065" height="49.066"/>
<path style="fill:#CED6E0;" d="M196.978,280.8l-29.867,29.867c-25.6,25.6-45.867,56.533-58.667,92.8
	c36.267-12.8,67.2-33.067,92.8-58.667l29.867-29.867L196.978,280.8z"/>
<path style="fill:#F3705A;" d="M506.311,125.067c7.467-7.467,7.467-18.133,0-25.6c-6.4-6.4-16-7.467-22.4-2.133L414.578,28
	c4.267-7.467,4.267-17.067-2.133-22.4c-7.467-7.467-18.133-7.467-25.6,0c-37.333,37.333-53.333,84.267-43.733,119.467
	l-34.133,33.067l44.8,44.8l34.133-34.133C422.044,178.4,468.978,162.4,506.311,125.067z M384.711,127.2
	c-11.733-11.733-10.667-36.267,3.2-62.933L447.644,124C420.978,137.867,395.378,138.933,384.711,127.2z"/>
<g>
</g>
<g>
</g>
<g>
</g>
<g>
</g>
<g>
</g>
<g>
</g>
<g>
</g>
<g>
</g>
<g>
</g>
<g>
</g>
<g>
</g>
<g>
</g>
<g>
</g>
<g>
</g>
<g>
</g>
</svg>
