<svg id="Layer_1" enable-background="new 0 0 512 512" height="512" viewBox="0 0 512 512" width="512" xmlns="http://www.w3.org/2000/svg"><g><path d="m392.538 390.177c-14.463-25.054-41.435-40.617-70.39-40.617-14.183 0-28.201 3.767-40.541 10.892-10.275 5.933-18.937 13.87-25.607 23.263-6.67-9.394-15.33-17.332-25.606-23.266-12.339-7.123-26.356-10.888-40.537-10.888-28.955 0-55.93 15.563-70.396 40.615-22.387 38.777-9.052 88.543 29.728 110.937 12.34 7.123 26.358 10.888 40.539 10.888 26.401 0 51.148-12.942 66.271-34.214 15.126 21.271 39.873 34.213 66.271 34.213 14.183 0 28.202-3.767 40.542-10.891 18.787-10.845 32.227-28.356 37.84-49.311 5.614-20.952 2.732-42.837-8.114-61.621z" fill="#265c76"/><path d="m392.538 390.177c-14.463-25.054-41.435-40.617-70.39-40.617-14.183 0-28.201 3.767-40.541 10.892-10.275 5.933-18.937 13.87-25.607 23.263v94.074c15.126 21.27 39.873 34.211 66.27 34.211 14.183 0 28.202-3.767 40.542-10.891 18.787-10.845 32.227-28.356 37.84-49.311 5.614-20.952 2.732-42.837-8.114-61.621z" fill="#1d4659"/><path d="m388.414 234.894c-27.283 0-51.449 13.54-66.182 34.238-15.121-21.293-39.88-34.25-66.295-34.25-14.183 0-28.202 3.766-40.544 10.891-10.467 6.044-19.061 14.095-25.617 23.373-14.732-20.706-38.905-34.252-66.198-34.252-44.776 0-81.205 36.431-81.205 81.21 0 44.777 36.43 81.207 81.207 81.207 27.285 0 51.452-13.54 66.186-34.238 15.123 21.294 39.883 34.251 66.297 34.251 14.183 0 28.203-3.767 40.546-10.892 10.467-6.044 19.061-14.093 25.617-23.371 14.731 20.705 38.901 34.25 66.19 34.25 44.78 0 81.211-36.431 81.211-81.209s-36.431-81.208-81.213-81.208z" fill="#1d4659"/><path d="m388.414 234.894c-27.283 0-51.449 13.54-66.182 34.238-15.109-21.276-39.841-34.229-66.232-34.249v162.439c.021 0 .041.001.063.001 14.183 0 28.203-3.767 40.546-10.892 10.467-6.044 19.061-14.093 25.617-23.371 14.731 20.705 38.901 34.25 66.19 34.25 44.78 0 81.211-36.431 81.211-81.209s-36.431-81.207-81.213-81.207z" fill="#0e232c"/><path d="m399.427 14.259c-.421-7.635-6.518-13.73-14.152-14.151-.201-.011-2.042-.108-5.096-.108-15.492 0-68.674 2.638-102.607 36.569-39.73 39.729-36.614 104.947-36.463 107.704.422 7.635 6.518 13.73 14.151 14.151.2.011 2.041.107 5.099.107 15.49 0 68.669-2.637 102.604-36.568 39.729-39.728 36.615-104.946 36.464-107.704z" fill="#54e360"/><path d="m395.054 4.477-149.576 149.576c2.531 2.532 5.964 4.161 9.782 4.372.2.011 2.041.107 5.099.107 15.49 0 68.669-2.637 102.604-36.568 39.73-39.729 36.616-104.947 36.465-107.705-.211-3.819-1.842-7.252-4.374-9.782z" fill="#1fbf66"/><path d="m400.65 180.407c-5.614-20.953-19.052-38.465-37.838-49.31-12.341-7.125-26.36-10.891-40.543-10.891-26.399 0-51.146 12.942-66.27 34.214-15.124-21.273-39.87-34.216-66.269-34.216-14.183 0-28.203 3.767-40.543 10.892-38.775 22.385-52.112 72.147-29.728 110.934 14.466 25.052 41.438 40.614 70.392 40.614 14.183 0 28.202-3.767 40.542-10.892 10.275-5.932 18.937-13.869 25.606-23.263 6.671 9.394 15.331 17.33 25.605 23.262 12.339 7.126 26.358 10.893 40.541 10.893 28.955 0 55.927-15.563 70.39-40.614 10.848-18.786 13.73-40.671 8.115-61.623z" fill="#265c76"/><path d="m281.606 271.752c12.339 7.126 26.358 10.893 40.541 10.893 28.955 0 55.927-15.563 70.39-40.614 10.846-18.786 13.728-40.671 8.113-61.623-5.614-20.953-19.052-38.465-37.838-49.31-12.341-7.125-26.36-10.891-40.543-10.891-26.399 0-51.146 12.942-66.27 34.214v94.07s.001 0 .001-.001c6.672 9.394 15.332 17.33 25.606 23.262z" fill="#1d4659"/></g></svg>