<svg id="Capa_1" enable-background="new 0 0 512 512" height="512" viewBox="0 0 512 512" width="512" xmlns="http://www.w3.org/2000/svg"><g><path d="m211.692 151.589c-16.943 10.759-35.364 17.107-55.304 22.737-62.301 17.589-131.795 34.791-151.944 105.207-10.529 36.798-1.352 77.088 17.06 109.812 36.562 64.982 118.406 97.359 190.513 97.202 79.83-.175 159.876-36.399 216.685-91.722 61.18-59.58 88.558-146.349 82.467-230.096-2.046-28.134-8.295-49.324-21.528-74.58-16.843-32.146-45.776-54.545-81.431-61.9-15.181-3.131-30.966-3.792-46.275-1.165-35.887 6.159-67.092 32.322-90.75 58.632-18.113 20.14-36.713 51.407-59.493 65.873z" fill="#d77f4a"/><path d="m428.701 394.827c-56.814 55.32-136.854 91.546-216.679 91.72-48.223.102-100.792-14.339-141.262-43.354 37.33 21.263 81.799 31.828 123.077 31.736 79.836-.174 159.876-36.4 216.69-91.72 61.181-59.575 88.56-146.345 82.464-230.098-2.046-28.126-8.294-49.317-21.529-74.579-8.243-15.75-19.412-29.159-32.83-39.601 21.662 11.148 39.273 28.821 51.004 51.219 13.234 25.252 19.483 46.443 21.529 74.579 6.096 83.743-21.283 170.513-82.464 230.098z" fill="#c86d36"/><path d="m208.389 195.402c-13.941 7.089-28.339 12.898-41.526 16.621-20.12 5.68-40.968 8.482-60.95 14.705-9.416 2.932-19.379 6.105-27.814 11.374-35.23 22.005-47.189 68.014-34.952 106.21 14.622 45.641 52.477 75.166 96.642 91.245 38.314 13.949 78.999 16.897 118.927 8.71 86.54-17.747 149.817-64.733 191.625-143.274 12.176-22.875 22.059-46.906 26.523-72.547 10.548-60.598-12.324-167.312-90.398-164.736-22.933.757-44.286 10.53-61.985 24.756-27.248 21.902-43.99 53.997-70.319 76.887-12.582 10.939-28.84 21.438-45.773 30.049z" fill="#9e5528"/><path d="m476.862 228.447c-4.459 25.64-14.349 49.675-26.52 72.544-41.81 78.547-105.087 125.532-191.622 143.277-39.928 8.192-80.613 5.236-118.925-8.714-24.617-8.959-47.272-22.091-65.026-39.867 14.533 10.872 31.153 19.422 48.775 25.845 38.312 13.94 78.997 16.896 118.925 8.704 86.545-17.745 149.822-64.73 191.632-143.267 12.171-22.879 22.05-46.913 26.52-72.554 7.221-41.524-1.238-104.688-32.401-139.513 44.388 28.636 56.998 105.557 48.642 153.545z" fill="#904d24"/><ellipse cx="177.595" cy="326.43" fill="#ecbba3" rx="62.955" ry="55.922" transform="matrix(.986 -.165 .165 .986 -51.345 33.714)"/><path d="m186.811 381.593c-34.18 5.707-65.998-14.186-71.255-44.479 13.265 16.129 36.216 24.853 60.332 20.823 34.303-5.727 57.98-35.06 52.886-65.527-.02-.102-.031-.194-.051-.297 5.584 6.801 9.46 14.912 10.964 23.943 5.093 30.467-18.583 59.81-52.876 65.537z" fill="#e8ad8c"/><g><path d="m342.157 272.826c-.175 0-.351-.006-.527-.018-55.798-3.786-74.585-54.484-75.357-56.64-1.429-3.988.646-8.379 4.634-9.808 3.981-1.426 8.366.639 9.802 4.616.654 1.796 16.356 43.431 61.959 46.526 4.227.287 7.421 3.946 7.133 8.172-.275 4.05-3.645 7.152-7.644 7.152z" fill="#8e431a"/></g><g><path d="m366.749 226.924c-.175 0-.351-.006-.527-.018-43.529-2.954-58.189-42.513-58.792-44.196-1.429-3.988.646-8.379 4.634-9.808 3.976-1.426 8.364.639 9.801 4.614.507 1.382 12.09 31.825 45.395 34.084 4.227.287 7.421 3.946 7.133 8.172-.274 4.049-3.644 7.152-7.644 7.152z" fill="#8e431a"/></g><g><path d="m397.923 177.809c-.175 0-.351-.006-.527-.018-34.155-2.318-45.661-33.368-46.135-34.689-1.429-3.988.646-8.379 4.634-9.808 3.978-1.424 8.358.635 9.798 4.605.379 1.022 8.802 22.96 32.741 24.585 4.227.287 7.421 3.946 7.133 8.173-.274 4.05-3.645 7.152-7.644 7.152z" fill="#8e431a"/></g></g></svg>