<svg id="Capa_1" enable-background="new 0 0 512 512" height="512" viewBox="0 0 512 512" width="512" xmlns="http://www.w3.org/2000/svg"><g><g><path d="m336 285c0 44.183-35.817 80-80 80s-80-35.817-80-80c0-10.613 2.085-20.733 5.837-30h-147.837v70c0 8.284 6.716 15 15 15h30.327c4.21 13.559 9.958 26.534 17.181 38.782l-22.233 22.234c-5.858 5.858-5.858 15.355 0 21.213l49.497 49.497c5.857 5.858 15.355 5.858 21.213 0l23.636-23.635c11.896 6.392 24.402 11.432 37.38 15.063v33.846c0 8.284 6.716 15 15 15h70c8.284 0 15-6.716 15-15v-33.846c12.978-3.632 25.484-8.672 37.38-15.063l23.636 23.635c5.857 5.858 15.355 5.858 21.213 0l49.497-49.497c5.858-5.857 5.858-15.355 0-21.213l-22.233-22.234c7.223-12.248 12.971-25.223 17.181-38.782h30.325c8.284 0 15-6.716 15-15v-70h-147.837c3.752 9.267 5.837 19.387 5.837 30z" fill="#738c96"/></g><path d="m306 497v-33.846c12.978-3.632 25.484-8.672 37.38-15.063l23.636 23.635c5.857 5.858 15.355 5.858 21.213 0l49.497-49.497c5.858-5.857 5.858-15.355 0-21.213l-22.233-22.234c7.223-12.248 12.971-25.223 17.181-38.782h30.326c8.284 0 15-6.716 15-15v-70h-147.837c3.753 9.267 5.837 19.387 5.837 30 0 44.183-35.817 80-80 80v147h35c8.284 0 15-6.716 15-15z" fill="#55696e"/><g><path d="m256 380c-52.383 0-95-42.617-95-95 0-12.28 2.333-24.268 6.934-35.63l5.63-13.903 27.807 11.26-5.63 13.903c-3.146 7.768-4.741 15.968-4.741 24.37 0 35.841 29.159 65 65 65s65-29.159 65-65c0-8.402-1.595-16.602-4.741-24.37l-5.63-13.903 27.807-11.26 5.63 13.903c4.601 11.362 6.934 23.35 6.934 35.63 0 52.383-42.617 95-95 95z" fill="#55696e"/></g><path d="m351 285c0-12.28-2.333-24.268-6.934-35.63l-5.63-13.903-27.807 11.26 5.63 13.903c3.146 7.768 4.741 15.968 4.741 24.37 0 35.841-29.159 65-65 65v30c52.383 0 95-42.617 95-95z" fill="#3f4a4a"/><g><path d="m271 270h165c41.355 0 75-33.645 75-75 0-39.192-30.221-71.459-68.581-74.728-12.379-23.68-36.674-39.253-63.733-40.224-9.099-40.302-45.075-70.048-87.686-70.048-22.209 0-43.011 7.962-59.255 22.304-19.632-20.484-46.841-32.304-75.745-32.304-57.897 0-105 47.103-105 105 0 6.274.578 12.536 1.725 18.738-11.991 3.904-22.879 10.808-31.646 20.222-12.948 13.904-20.079 32.03-20.079 51.04 0 41.355 33.645 75 75 75h165l13-12z" fill="#fff5f5"/></g><path d="m442.419 120.272c-12.379-23.68-36.674-39.253-63.733-40.224-9.099-40.302-45.075-70.048-87.686-70.048-12.275 0-24.116 2.444-35 7.041v242.37l15 10.589h165c41.355 0 75-33.645 75-75 0-39.192-30.221-71.459-68.581-74.728z" fill="#f5f0eb"/><path d="m306.606 174.394c5.858 5.858 5.858 15.355 0 21.213-5.857 5.858-15.355 5.858-21.213 0l-14.393-14.394v88.787h-30v-88.787l-14.394 14.393c-5.857 5.858-15.355 5.858-21.213 0s-5.858-15.355 0-21.213l40-40c5.857-5.858 15.355-5.858 21.213 0z" fill="#beebfa"/><path d="m271 270v-88.787l14.394 14.393c5.857 5.858 15.355 5.858 21.213 0s5.858-15.355 0-21.213l-40-40c-2.929-2.929-6.768-4.393-10.607-4.393v140z" fill="#7ed8f7"/></g></svg>