<svg enable-background="new 0 0 24 24" height="512" viewBox="0 0 24 24" width="512" xmlns="http://www.w3.org/2000/svg"><path d="m15.854 23.146c-1.313-1.313-1.353-2.586-1.354-2.649-.002-.275-.225-.497-.5-.497h-4.02c-.276 0-.5.227-.5.503 0 .054-.018 1.328-1.333 2.644-.143.143-.186.358-.108.545.076.186.259.308.461.308h7c.202 0 .385-.122.462-.309s.034-.401-.108-.545z" fill="#90a4ae"/><path d="m22.25 4h-20.5c-.965 0-1.75.785-1.75 1.75v13.5c0 .965.785 1.75 1.75 1.75h20.5c.965 0 1.75-.785 1.75-1.75v-13.5c0-.965-.785-1.75-1.75-1.75z" fill="#607d8b"/><path d="m2 5.75h20v11h-20z" fill="#fafafa"/><path d="m19 1.75v.45l-6.31 3.29c-.43.22-.95.22-1.38 0l-6.31-3.29v-.45c0-.96.79-1.75 1.75-1.75h10.5c.96 0 1.75.79 1.75 1.75z" fill="#2196f3"/><path d="m19 2.2v6.05c0 .96-.79 1.75-1.75 1.75h-10.5c-.96 0-1.75-.79-1.75-1.75v-6.05l6.31 3.29c.43.22.95.22 1.38 0z" fill="#64b5f6"/></svg>