<?xml version="1.0" encoding="iso-8859-1"?>
<!-- Generator: Adobe Illustrator 19.0.0, SVG Export Plug-In . SVG Version: 6.00 Build 0)  -->
<svg xmlns="http://www.w3.org/2000/svg" xmlns:xlink="http://www.w3.org/1999/xlink" version="1.1" id="Layer_1" x="0px" y="0px" viewBox="0 0 512.001 512.001" style="enable-background:new 0 0 512.001 512.001;" xml:space="preserve">
<rect x="163.206" y="255.863" transform="matrix(-0.7071 -0.7071 0.7071 -0.7071 110.1877 678.2724)" style="fill:#636D77;" width="64.724" height="120.905"/>
<path style="fill:#774633;" d="M200.928,381.949c0,0,0.009-0.004,0.012-0.006c0.255-0.139,0.505-0.276,0.751-0.409  c2.088-1.25,7.361-5.294,1.145-11.518l-53.362-53.362L11.454,454.674c-21.909,21.91-4.288,33.831-1.603,35.452l26.367,15.345  c34.222,19.891,56.662-10.915,63.664-22.715c0.767-1.442,1.545-2.857,2.329-4.258c0.008-0.019,0.016-0.031,0.016-0.031l0.001,0.001  C133.11,423.35,181.014,392.85,200.928,381.949L200.928,381.949z"/>
<path style="fill:#5B3327;" d="M51.057,474.256c-2.156,0-4.31-0.822-5.954-2.466c-3.288-3.29-3.288-8.62,0-11.909l93.112-93.111  c3.288-3.287,8.62-3.287,11.908,0c3.288,3.29,3.288,8.62,0,11.909L57.011,471.79C55.367,473.433,53.211,474.256,51.057,474.256z"/>
<path style="fill:#D6E0E0;" d="M477.482,3.001c-2.055-1.955-8.063-6.294-15.73,1.374L180.578,285.549l67.885,67.885  c13.057,13.06,34.235,13.06,47.294,0l179.951-179.951C522.687,126.506,523.274,50.709,477.482,3.001z"/>
<g style="opacity:0.15;">
	<path style="fill:#020202;" d="M25.488,466.463L143.98,347.971l-0.001-0.001l85.493-85.494l0.001,0.001L475.785,16.164   c3.56-3.56,6.761-4.529,9.376-4.354c-2.397-3.026-4.953-5.968-7.679-8.809c-2.055-1.955-8.063-6.294-15.73,1.374L215.439,250.688   l-0.001-0.001l-85.493,85.494l0.001,0.001L11.454,454.674c-21.909,21.91-4.288,33.831-1.603,35.452l6.502,3.784   C13.348,487.963,13.155,478.796,25.488,466.463z"/>
</g>
<path style="fill:#EBEDED;" d="M511.274,82.279l-49.144,49.142l-19.648,19.648L244.289,349.263l4.173,4.173  c13.057,13.059,34.235,13.059,47.294,0l179.952-179.952C500.783,148.409,512.629,115.123,511.274,82.279z"/>
<g>
</g>
<g>
</g>
<g>
</g>
<g>
</g>
<g>
</g>
<g>
</g>
<g>
</g>
<g>
</g>
<g>
</g>
<g>
</g>
<g>
</g>
<g>
</g>
<g>
</g>
<g>
</g>
<g>
</g>
</svg>
