<?xml version="1.0" encoding="iso-8859-1"?>
<!-- Generator: Adobe Illustrator 19.0.0, SVG Export Plug-In . SVG Version: 6.00 Build 0)  -->
<svg version="1.1" id="Capa_1" xmlns="http://www.w3.org/2000/svg" xmlns:xlink="http://www.w3.org/1999/xlink" x="0px" y="0px"
	 viewBox="0 0 512 512" style="enable-background:new 0 0 512 512;" xml:space="preserve">
<path style="fill:#E8C8AF;" d="M326.353,10.049c-43.474,0-83.454,10.215-115.092,27.32c-0.581,0.306-138.394,73.503-138.969,73.813
	C28.325,134.382,0,170.751,0,211.646c0,29.459,14.697,56.571,39.35,78.104v185.538c0,14.725,11.937,26.663,26.663,26.663h239.268
	c4.831,0,9.357-1.291,13.265-3.538c0.593-0.285,1.169-0.596,1.737-0.922c0.593-0.285,136.665-72.565,137.233-72.891
	c8.954-4.3,15.135-13.452,15.135-24.048V215.014C497.303,193.481,512,166.369,512,136.91C512,66.847,428.883,10.049,326.353,10.049z
	"/>
<g>
	<path style="fill:#D8B59E;" d="M326.353,10.049c-9.478,0-18.789,0.486-27.885,1.423c89.31,9.187,157.783,61.847,157.783,125.439
		c0,29.459-14.697,56.571-39.35,78.103V446.19c22.665-12.041,40.41-21.473,40.614-21.591c8.954-4.299,15.135-13.451,15.135-24.048
		V215.014C497.303,193.481,512,166.369,512,136.91C512,66.847,428.883,10.049,326.353,10.049z"/>
	<path style="fill:#D8B59E;" d="M371.294,211.646c0-70.064-83.117-126.862-185.647-126.862S0,141.582,0,211.646
		c0,29.459,14.697,56.571,39.35,78.104v185.538c0,14.726,11.937,26.663,26.663,26.663h239.268c14.726,0,26.663-11.937,26.663-26.663
		V289.75C356.596,268.217,371.294,241.105,371.294,211.646z"/>
</g>
<path style="fill:#F3E8D6;" d="M66.193,463.089V281.659c0-2.772-1.222-5.403-3.34-7.191l-5.844-4.934
	c-13.761-12.02-30.166-31.82-30.166-57.888c0-24.749,15.156-48.736,42.677-67.542c30.647-20.943,71.889-32.477,116.128-32.477
	s85.48,11.534,116.128,32.477c27.521,18.806,42.677,42.793,42.677,67.542c0,26.067-16.404,45.868-30.166,57.888l-5.922,5.111
	c-2.072,1.788-3.262,4.389-3.262,7.125v181.319c0,6.638-5.381,12.02-12.02,12.02H78.213
	C71.574,475.108,66.193,469.727,66.193,463.089z"/>
<path style="fill:#E5D8C6;" d="M301.775,144.104c-30.648-20.943-71.889-32.477-116.128-32.477c-9.46,0-18.78,0.532-27.892,1.566
	c33.498,3.801,64.142,14.446,88.236,30.911c27.521,18.806,42.677,42.793,42.677,67.542c0,26.067-16.404,45.868-30.166,57.888
	l-9.184,7.926v197.648h43.763c6.638,0,12.02-5.382,12.02-12.02V281.77c0-2.736,1.191-5.337,3.262-7.125l5.922-5.111
	c13.762-12.02,30.166-31.821,30.166-57.888C344.452,186.896,329.295,162.91,301.775,144.104z"/>
<g>
</g>
<g>
</g>
<g>
</g>
<g>
</g>
<g>
</g>
<g>
</g>
<g>
</g>
<g>
</g>
<g>
</g>
<g>
</g>
<g>
</g>
<g>
</g>
<g>
</g>
<g>
</g>
<g>
</g>
</svg>
