<svg id="Capa_1" enable-background="new 0 0 512 512" height="512" viewBox="0 0 512 512" width="512" xmlns="http://www.w3.org/2000/svg"><g><path d="m255.999 46.083 54.72 219.334-54.72 200.504c-34.03 0-66.26 14.88-88.419 40.82-4.22 4.94-11.14 6.6-17.15 4.12-6-2.49-9.72-8.56-9.21-15.04 2.68-34.01-9.59-67.32-33.65-91.39-24.07-24.06-57.37-36.33-91.39-33.65-6.49.51-12.55-3.21-15.04-9.21-2.48-6.01-.82-12.93 4.12-17.15 25.94-22.16 40.82-54.39 40.82-88.419s-14.88-66.26-40.82-88.419c-4.94-4.22-6.6-11.14-4.12-17.15 2.49-6 8.57-9.72 15.04-9.21 34.02 2.67 67.32-9.59 91.39-33.65 24.06-24.07 36.33-57.38 33.65-91.39-.51-6.48 3.21-12.55 9.21-15.04 6.01-2.48 12.93-.82 17.15 4.12 22.16 25.94 54.389 40.82 88.419 40.82z" fill="#ff7c48"/><path d="m511.998 355.841c0 1.92-.37 3.87-1.14 5.73-2.49 6-8.56 9.72-15.04 9.21-34.02-2.68-67.32 9.59-91.39 33.65-24.06 24.07-36.33 57.38-33.65 91.39.51 6.48-3.21 12.55-9.21 15.04-1.86.77-3.81 1.14-5.74 1.14-4.3 0-8.5-1.85-11.41-5.26-22.16-25.94-54.39-40.82-88.419-40.82v-419.838c34.03 0 66.26-14.88 88.419-40.82 4.22-4.94 11.14-6.61 17.15-4.12 6 2.49 9.72 8.56 9.21 15.04-2.68 34.01 9.59 67.32 33.65 91.39 24.07 24.06 57.37 36.33 91.39 33.65 6.48-.51 12.55 3.21 15.04 9.21.77 1.86 1.14 3.81 1.14 5.73 0 4.3-1.85 8.51-5.26 11.42-25.94 22.16-40.82 54.39-40.82 88.419s14.88 66.26 40.82 88.419c3.41 2.91 5.26 7.12 5.26 11.42z" fill="#ff415b"/><path d="m255.999 112.232 30 153.184-30 134.354c-79.28 0-143.769-64.49-143.769-143.769s64.49-143.769 143.769-143.769z" fill="#ffd845"/><path d="m399.768 256.001c0 79.28-64.49 143.769-143.769 143.769v-287.538c79.28 0 143.769 64.49 143.769 143.769z" fill="#ffb454"/></g></svg>