<svg height="512" viewBox="0 0 58 55" width="512" xmlns="http://www.w3.org/2000/svg"><g id="Page-1" fill="none" fill-rule="evenodd"><g id="004---Word-Processing" fill-rule="nonzero"><path id="Shape" d="m38.8 47h16.2c1.6568542 0 3-1.3431458 3-3v-34h-58v34c0 1.6568542 1.34314575 3 3 3z" fill="#ecf0f1"/><path id="Shape" d="m54 44h-4c-.5522847 0-1-.4477153-1-1s.4477153-1 1-1h3v-3c0-.5522847.4477153-1 1-1s1 .4477153 1 1v4c0 .5522847-.4477153 1-1 1z" fill="#95a5a5"/><path id="Shape" d="m3 0h52c1.6568542 0 3 1.34314575 3 3v9h-58v-9c0-1.65685425 1.34314575-3 3-3z" fill="#464f5d"/><circle id="Oval" cx="6" cy="6" fill="#24ae5f" r="2"/><circle id="Oval" cx="14" cy="6" fill="#f3d55b" r="2"/><circle id="Oval" cx="22" cy="6" fill="#ff5364" r="2"/><g fill="#bdc3c7"><path id="Shape" d="m26 18h-21c-.55228475 0-1-.4477153-1-1s.44771525-1 1-1h21c.5522847 0 1 .4477153 1 1s-.4477153 1-1 1z"/><path id="Shape" d="m26 23h-21c-.55228475 0-1-.4477153-1-1s.44771525-1 1-1h21c.5522847 0 1 .4477153 1 1s-.4477153 1-1 1z"/><path id="Shape" d="m26 28h-21c-.55228475 0-1-.4477153-1-1s.44771525-1 1-1h21c.5522847 0 1 .4477153 1 1s-.4477153 1-1 1z"/><path id="Shape" d="m26 33h-21c-.55228475 0-1-.4477153-1-1s.44771525-1 1-1h21c.5522847 0 1 .4477153 1 1s-.4477153 1-1 1z"/><path id="Shape" d="m21.62 38h-16.62c-.55228475 0-1-.4477153-1-1s.44771525-1 1-1h16.62c.5522847 0 1 .4477153 1 1s-.4477153 1-1 1z"/><path id="Shape" d="m15 43h-10c-.55228475 0-1-.4477153-1-1s.44771525-1 1-1h10c.5522847 0 1 .4477153 1 1s-.4477153 1-1 1z"/><path id="Shape" d="m53 18h-21c-.5522847 0-1-.4477153-1-1s.4477153-1 1-1h21c.5522847 0 1 .4477153 1 1s-.4477153 1-1 1z"/><path id="Shape" d="m43 23h-11c-.5522847 0-1-.4477153-1-1s.4477153-1 1-1h11c.5522847 0 1 .4477153 1 1s-.4477153 1-1 1z"/><path id="Shape" d="m36 28h-4c-.5522847 0-1-.4477153-1-1s.4477153-1 1-1h4c.5522847 0 1 .4477153 1 1s-.4477153 1-1 1z"/><path id="Shape" d="m50.949 35.741-4.11 2.84-5.69-8.22 2.38-1.65 1.73-1.2z"/></g><path id="Shape" d="m46.839 38.581-2.84 1.97-16.9 11.68-5.69-8.22 19.74-13.65z" fill="#3b97d3"/><path id="Shape" d="m56.709 31.761-5.76 3.98-5.69-8.23 5.76-3.98c1.3617329-.9400161 3.2274512-.5999811 4.17.76l2.28 3.29c.9410084 1.3648761.6012203 3.2337109-.76 4.18z" fill="#ff5364"/><path id="Shape" d="m27.099 52.231-6.25 1.52-3.06-4.43 3.62-5.31z" fill="#fdd7ad"/><path id="Shape" d="m20.849 53.751-4.76 1.15c-.4001172.094232-.8171417-.0659868-1.0512382-.4038807-.2340964-.337894-.2375722-.7846237-.0087618-1.1261193l2.76-4.05z" fill="#464f5d"/></g></g></svg>