<svg id="Capa_1" enable-background="new 0 0 512 512" height="512" viewBox="0 0 512 512" width="512" xmlns="http://www.w3.org/2000/svg"><g><path d="m421 0h-330c-8.401 0-15 6.599-15 15v482c0 8.401 6.599 15 15 15h330c8.401 0 15-6.599 15-15v-482c0-8.401-6.599-15-15-15z" fill="#f0f7ff"/><path d="m436 15v482c0 8.401-6.599 15-15 15h-165v-512h165c8.401 0 15 6.599 15 15z" fill="#dfe7f4"/><path d="m211 211h-60c-8.291 0-15-6.709-15-15v-60c0-8.291 6.709-15 15-15h60c8.291 0 15 6.709 15 15v60c0 8.291-6.709 15-15 15z" fill="#3aaaff"/><path d="m376 256c0 8.401-6.599 15-15 15h-210c-8.401 0-15-6.599-15-15s6.599-15 15-15h210c8.401 0 15 6.599 15 15z" fill="#dfe7f4"/><path d="m376 316c0 8.401-6.599 15-15 15h-210c-8.401 0-15-6.599-15-15s6.599-15 15-15h210c8.401 0 15 6.599 15 15z" fill="#dfe7f4"/><path d="m361 421h-60c-8.291 0-15-6.709-15-15s6.709-15 15-15h60c8.291 0 15 6.709 15 15s-6.709 15-15 15z" fill="#474f54"/><g fill="#c7cfe1"><path d="m361 151h-90c-8.291 0-15-6.709-15-15s6.709-15 15-15h90c8.291 0 15 6.709 15 15s-6.709 15-15 15z"/><path d="m361 211h-90c-8.291 0-15-6.709-15-15s6.709-15 15-15h90c8.291 0 15 6.709 15 15s-6.709 15-15 15z"/><path d="m376 316c0 8.401-6.599 15-15 15h-105v-30h105c8.401 0 15 6.599 15 15z"/><path d="m361 271h-105v-30h105c8.401 0 15 6.599 15 15s-6.599 15-15 15z"/></g></g></svg>