<svg height="512" viewBox="0 0 128 128" width="512" xmlns="http://www.w3.org/2000/svg"><path d="m74.223 47.542-10.043 6.42 10.4 10.4 6.474-10.152a13.318 13.318 0 0 1 -6.831-6.668z" fill="#a1c7d7"/><path d="m104.47 20.564a20.343 20.343 0 0 1 -9.934 2.96c-22.35.943-21.814 16.656-21.814 16.656s-.731 10.008 8.36 14.038c10.8 4.789 22.043-.5 27.739-11.145s0-27.74 0-27.74c-.396 2.18-2.258 3.923-4.351 5.231z" fill="#fdcd8d"/><path d="m41.209 72.722c-19.746 15.252-29.327 34.939-24.83 39.436s24.478-4.9 39.444-24.822c6.777-9.015 12.828-17.679 17.214-24.516l-7.311-7.312c-6.838 4.386-15.505 10.253-24.517 17.214z" fill="#004d8e"/></svg>