<?xml version="1.0" encoding="iso-8859-1"?>
<!-- Generator: Adobe Illustrator 19.0.0, SVG Export Plug-In . SVG Version: 6.00 Build 0)  -->
<svg version="1.1" id="Capa_1" xmlns="http://www.w3.org/2000/svg" xmlns:xlink="http://www.w3.org/1999/xlink" x="0px" y="0px"
	 viewBox="0 0 512 512" style="enable-background:new 0 0 512 512;" xml:space="preserve">
<path style="fill:#9196AA;" d="M357.926,189.991c-1.995,0-4.019-0.397-5.968-1.235c-7.67-3.3-11.212-12.192-7.913-19.862
	l54.423-126.489c3.3-7.669,12.193-11.212,19.862-7.913c7.67,3.3,11.212,12.192,7.913,19.862L371.82,180.844
	C369.359,186.565,363.784,189.991,357.926,189.991z"/>
<path style="fill:#FF3C3C;" d="M343.684,478.741H168.316c-8.349,0-15.118-6.769-15.118-15.118v-54.24
	c-43.303-18.979-80.325-49.425-107.522-88.538C15.794,277.872,0,227.394,0,174.869c0-8.349,6.769-15.118,15.118-15.118h481.764
	c8.349,0,15.118,6.769,15.118,15.118c0,52.525-15.794,103.004-45.676,145.977c-27.197,39.113-64.219,69.559-107.522,88.538v54.24
	C358.802,471.973,352.033,478.741,343.684,478.741z"/>
<g>
	<path style="fill:#DC1428;" d="M153.198,463.624c0,8.349,6.769,15.118,15.118,15.118h175.368c8.349,0,15.118-6.769,15.118-15.118
		v-54.24H153.198L153.198,463.624L153.198,463.624z"/>
	<path style="fill:#DC1428;" d="M496.882,159.751H256.001v318.99h87.683c8.349,0,15.118-6.769,15.118-15.118v-54.24
		c43.303-18.979,80.325-49.425,107.522-88.538C496.205,277.872,512,227.394,512,174.869C512,166.52,505.231,159.751,496.882,159.751
		z"/>
</g>
<path style="fill:#BE1423;" d="M256.001,478.741h87.683c8.349,0,15.118-6.769,15.118-15.118v-54.24H256.001V478.741z"/>
<g>
</g>
<g>
</g>
<g>
</g>
<g>
</g>
<g>
</g>
<g>
</g>
<g>
</g>
<g>
</g>
<g>
</g>
<g>
</g>
<g>
</g>
<g>
</g>
<g>
</g>
<g>
</g>
<g>
</g>
</svg>
