<svg id="Cloudy" enable-background="new 0 0 512 512" height="512" viewBox="0 0 512 512" width="512" xmlns="http://www.w3.org/2000/svg"><g><g><g><circle cx="197.714" cy="230.954" fill="#ffb40d" r="79"/></g><g><path d="m276.775 231.438c0-43.584-35.332-78.916-78.916-78.916-18.061 0-34.702 6.072-48.002 16.28 3.028-.353 6.106-.54 9.229-.54 43.584 0 78.916 35.332 78.916 78.916 0 25.523-12.12 48.211-30.914 62.636 39.235-4.571 69.687-37.914 69.687-78.376z" fill="#f2a60f"/></g><g><path d="m198.214 144.954c-1.933 0-3.5-1.567-3.5-3.5v-43c0-1.933 1.567-3.5 3.5-3.5s3.5 1.567 3.5 3.5v43c0 1.933-1.567 3.5-3.5 3.5z" fill="#ffb40d"/></g><g><path d="m261.374 171.424c-.896 0-1.791-.342-2.475-1.025-1.367-1.367-1.367-3.583 0-4.95l30.803-30.803c1.367-1.366 3.582-1.366 4.949 0 1.367 1.367 1.367 3.583 0 4.95l-30.803 30.803c-.683.683-1.578 1.025-2.474 1.025z" fill="#ffb40d"/></g><g><path d="m331.214 234.954h-44c-1.933 0-3.5-1.567-3.5-3.5s1.567-3.5 3.5-3.5h44c1.933 0 3.5 1.567 3.5 3.5s-1.568 3.5-3.5 3.5z" fill="#ffb40d"/></g><g><path d="m292.177 329.256c-.896 0-1.791-.342-2.475-1.025l-30.803-30.803c-1.367-1.366-1.367-3.583 0-4.949 1.367-1.367 3.582-1.367 4.949 0l30.803 30.803c1.367 1.366 1.367 3.583 0 4.949-.683.683-1.579 1.025-2.474 1.025z" fill="#ffb40d"/></g><g><path d="m198.214 367.953c-1.933 0-3.5-1.567-3.5-3.5v-43c0-1.933 1.567-3.5 3.5-3.5s3.5 1.567 3.5 3.5v43c0 1.933-1.567 3.5-3.5 3.5z" fill="#ffb40d"/></g><g><path d="m103.542 329.256c-.896 0-1.792-.342-2.475-1.025-1.367-1.366-1.367-3.583 0-4.949l30.803-30.803c1.368-1.367 3.584-1.367 4.95 0 1.367 1.366 1.367 3.583 0 4.949l-30.803 30.803c-.684.683-1.58 1.025-2.475 1.025z" fill="#ffb40d"/></g><g><path d="m108.214 234.954h-44c-1.933 0-3.5-1.567-3.5-3.5s1.567-3.5 3.5-3.5h44c1.933 0 3.5 1.567 3.5 3.5s-1.567 3.5-3.5 3.5z" fill="#ffb40d"/></g><g><path d="m134.345 171.424c-.896 0-1.792-.342-2.475-1.025l-30.803-30.803c-1.367-1.367-1.367-3.583 0-4.95 1.367-1.366 3.583-1.366 4.95 0l30.803 30.803c1.367 1.367 1.367 3.583 0 4.95-.684.683-1.58 1.025-2.475 1.025z" fill="#ffb40d"/></g><g><path d="m232.229 151.953c-.446 0-.9-.086-1.338-.268-1.786-.739-2.634-2.787-1.894-4.573l8.334-20.124c.74-1.785 2.787-2.634 4.573-1.894 1.786.739 2.634 2.787 1.894 4.573l-8.334 20.124c-.559 1.348-1.862 2.162-3.235 2.162z" fill="#ffb40d"/></g><g><path d="m163.484 151.955c-1.374 0-2.677-.813-3.235-2.162l-8.336-20.123c-.74-1.786.108-3.833 1.894-4.573 1.787-.739 3.833.108 4.573 1.894l8.336 20.123c.74 1.786-.108 3.833-1.894 4.573-.438.182-.892.268-1.338.268z" fill="#ffb40d"/></g><g><path d="m114.871 200.568c-.446 0-.9-.086-1.338-.268l-20.124-8.334c-1.786-.739-2.634-2.787-1.894-4.573.739-1.785 2.788-2.634 4.573-1.894l20.124 8.334c1.786.739 2.634 2.787 1.894 4.573-.558 1.348-1.861 2.162-3.235 2.162z" fill="#ffb40d"/></g><g><path d="m94.753 277.652c-1.374 0-2.677-.813-3.235-2.161-.74-1.786.108-3.834 1.894-4.573l20.123-8.336c1.788-.739 3.833.108 4.573 1.894s-.108 3.834-1.894 4.573l-20.123 8.336c-.438.181-.891.267-1.338.267z" fill="#ffb40d"/></g><g><path d="m155.152 338.05c-.446 0-.9-.086-1.338-.268-1.786-.739-2.634-2.787-1.894-4.572l8.334-20.124c.74-1.787 2.788-2.636 4.573-1.895 1.786.739 2.634 2.787 1.894 4.572l-8.334 20.124c-.558 1.349-1.861 2.163-3.235 2.163z" fill="#ffb40d"/></g><g><path d="m240.573 338.047c-1.374 0-2.677-.813-3.235-2.161l-8.336-20.123c-.74-1.786.108-3.834 1.894-4.573 1.787-.741 3.833.108 4.573 1.894l8.336 20.123c.74 1.786-.108 3.834-1.894 4.573-.438.181-.891.267-1.338.267z" fill="#ffb40d"/></g><g><path d="m300.969 277.645c-.446 0-.9-.086-1.338-.268l-20.124-8.335c-1.786-.739-2.635-2.787-1.895-4.572.739-1.787 2.788-2.635 4.572-1.895l20.124 8.335c1.786.739 2.635 2.787 1.895 4.572-.557 1.349-1.861 2.163-3.234 2.163z" fill="#ffb40d"/></g><g><path d="m280.845 200.562c-1.373 0-2.676-.813-3.234-2.162-.74-1.786.108-3.833 1.894-4.573l20.123-8.336c1.787-.74 3.833.108 4.573 1.894s-.108 3.833-1.894 4.573l-20.123 8.336c-.439.183-.893.268-1.339.268z" fill="#ffb40d"/></g></g><g><g><path d="m378.79 281.029c-8.067-.248-15.873.754-23.221 2.82-5.315-40.308-39.809-71.419-81.569-71.419-45.442 0-82.285 36.843-82.285 82.285 0 .263 0 .526.009.78-32.426 2.122-58.058 29.097-58.058 62.058v.931c0 31.445 25.492 56.937 56.937 56.937h205.398c31.445 0 56.937-25.492 56.937-56.937v-.025c0-41.498-32.669-76.152-74.148-77.43z" fill="#99d1ff"/></g><g><path d="m376.623 280.904c-7.363-.04-14.493.96-21.236 2.856-5.315-40.308-39.809-71.419-81.569-71.419-30.659 0-57.4 16.773-71.557 41.64 11.991-6.826 25.862-10.728 40.645-10.728 41.759 0 76.253 31.111 81.569 71.419 6.743-1.896 13.873-2.896 21.236-2.856 42.269.232 76.133 35.222 76.133 77.491 0 7.695-1.535 15.029-4.301 21.724 20.666-8.539 35.213-28.885 35.213-52.636 0-42.269-33.864-77.259-76.133-77.491z" fill="#88bee2"/></g></g></g></svg>