<svg id="Capa_1" enable-background="new 0 0 512 512" height="512" viewBox="0 0 512 512" width="512" xmlns="http://www.w3.org/2000/svg"><g><circle cx="298.309" cy="157.246" fill="#fef48b" r="94.055"/><path d="m271.44 69.833v177.561c-38.858-11.547-67.182-47.535-67.182-90.144 0-42.588 28.304-78.567 67.131-90.144.04.902.051 1.814.051 2.727z" fill="#fef056"/><path d="m271.44 210.437v-106.38c12.329-17.945 30.709-31.407 52.209-37.408-8.059-2.251-16.565-3.457-25.344-3.457-9.355 0-18.388 1.373-26.915 3.916 0-.001 0-.002 0-.002-.05.015-.098.031-.148.047-38.75 11.625-66.983 47.561-66.983 90.098 0 51.945 42.102 94.047 94.047 94.047 8.779 0 17.285-1.206 25.344-3.457-21.502-6.002-39.881-19.461-52.21-37.404z" fill="#fef056"/><path d="m251.169 275.004v-205.167c0-33.593-27.233-60.826-60.826-60.826-33.593 0-60.826 27.233-60.826 60.826v205.167c-39.507 21.754-66.121 64.034-65.457 112.474.933 68.014 56.368 123.508 124.381 124.508 70.622 1.039 128.197-55.897 128.197-126.281 0-47.697-26.445-89.213-65.469-110.701z" fill="#ecf6fe"/><path d="m200.547 511.59c-3.984.324-8.019.456-12.104.395-68.013-1.004-123.446-56.497-124.379-124.511-.669-48.438 25.942-90.722 65.449-112.467v-205.174c0-16.798 6.812-32.004 17.822-43.004 10.999-11.009 26.206-17.822 43.004-17.822 3.457 0 6.843.284 10.138.852-12.733 2.129-24.128 8.222-32.866 16.97-11.01 10.999-17.822 26.206-17.822 43.004v205.176c-39.506 21.745-66.118 64.029-65.449 112.467.892 65.265 51.975 119.005 116.207 124.114z" fill="#dbebfc"/><g><g><g><g><path d="m298.309 37.734c-4.2 0-7.603-3.404-7.603-7.603v-22.528c0-4.199 3.404-7.603 7.603-7.603 4.2 0 7.603 3.404 7.603 7.603v22.528c0 4.199-3.404 7.603-7.603 7.603z" fill="#fef48b"/></g><g><path d="m298.309 314.492c-4.2 0-7.603-3.404-7.603-7.603v-22.528c0-4.199 3.404-7.603 7.603-7.603 4.2 0 7.603 3.404 7.603 7.603v22.528c0 4.199-3.404 7.603-7.603 7.603z" fill="#fef48b"/></g></g><g><path d="m373.137 294.445c-2.627 0-5.183-1.364-6.591-3.803l-11.264-19.509c-2.1-3.636-.853-8.286 2.783-10.386 3.634-2.099 8.286-.854 10.386 2.783l11.264 19.51c2.1 3.636.853 8.286-2.783 10.386-1.197.69-2.505 1.019-3.795 1.019z" fill="#fef48b"/></g><g><path d="m427.896 239.672c-1.29 0-2.598-.329-3.795-1.02l-19.509-11.264c-3.636-2.1-4.883-6.75-2.783-10.386 2.099-3.637 6.751-4.883 10.386-2.783l19.509 11.264c3.636 2.1 4.883 6.75 2.783 10.386-1.407 2.439-3.963 3.803-6.591 3.803z" fill="#fef48b"/></g><g><path d="m447.952 164.849h-22.528c-4.2 0-7.603-3.404-7.603-7.603s3.404-7.603 7.603-7.603h22.528c4.2 0 7.603 3.404 7.603 7.603s-3.404 7.603-7.603 7.603z" fill="#fef48b"/></g><g><path d="m408.401 101.293c-2.627 0-5.183-1.364-6.591-3.803-2.1-3.636-.853-8.286 2.783-10.386l19.509-11.264c3.635-2.1 8.285-.854 10.386 2.783 2.1 3.636.853 8.286-2.783 10.386l-19.509 11.264c-1.197.692-2.505 1.02-3.795 1.02z" fill="#fef48b"/></g><g><path d="m361.859 54.766c-1.29 0-2.598-.329-3.795-1.02-3.636-2.1-4.883-6.75-2.783-10.386l11.264-19.51c2.099-3.637 6.75-4.884 10.386-2.783 3.636 2.1 4.883 6.75 2.783 10.386l-11.264 19.51c-1.407 2.439-3.963 3.803-6.591 3.803z" fill="#fef48b"/></g></g></g><path d="m210.618 302.404v-232.567c0-11.198-9.078-20.275-20.275-20.275-11.198 0-20.275 9.078-20.275 20.275v232.567c-37.499 9.129-65.433 42.963-65.469 83.223-.04 45.33 35.801 83.28 81.067 85.697 49.394 2.638 90.421-36.79 90.421-85.619 0-40.294-27.946-74.166-65.469-83.301z" fill="#fd8087"/><path d="m200.436 470.847c-4.815.578-9.752.74-14.77.477-45.265-2.413-81.111-40.368-81.071-85.693.04-40.267 27.97-74.096 65.469-83.23v-232.568c0-5.596 2.271-10.665 5.941-14.335s8.739-5.941 14.335-5.941c3.7 0 7.157.984 10.138 2.727-1.541.882-2.95 1.967-4.197 3.214-3.67 3.67-5.941 8.739-5.941 14.335v232.567c-37.499 9.134-65.428 42.963-65.469 83.23-.042 43.47 32.936 80.158 75.565 85.217z" fill="#fe646f"/><g><g><path d="m94.461 109.088h-30.413c-4.2 0-7.603-3.404-7.603-7.603s3.404-7.603 7.603-7.603h30.413c4.2 0 7.603 3.404 7.603 7.603s-3.403 7.603-7.603 7.603z" fill="#fe646f"/></g><g><path d="m94.461 156.226h-30.413c-4.2 0-7.603-3.404-7.603-7.603s3.404-7.603 7.603-7.603h30.413c4.2 0 7.603 3.404 7.603 7.603s-3.403 7.603-7.603 7.603z" fill="#fe646f"/></g><g><path d="m94.461 203.363h-30.413c-4.2 0-7.603-3.404-7.603-7.603s3.404-7.603 7.603-7.603h30.413c4.2 0 7.603 3.404 7.603 7.603s-3.403 7.603-7.603 7.603z" fill="#fe646f"/></g><g><path d="m94.461 250.501h-30.413c-4.2 0-7.603-3.404-7.603-7.603s3.404-7.603 7.603-7.603h30.413c4.2 0 7.603 3.404 7.603 7.603s-3.403 7.603-7.603 7.603z" fill="#fe646f"/></g></g></g></svg>