<svg height="512pt" viewBox="-66 0 512 512" width="512pt" xmlns="http://www.w3.org/2000/svg"><path d="m45.304688 244.210938v82.085937c0 42.097656 13.992187 83.925781 39.398437 117.78125 25.882813 34.496094 62.050781 58.484375 101.828125 67.546875 1.097656.25 2.214844.375 3.332031.375 1.117188 0 2.234375-.125 3.332031-.375 39.78125-9.0625 75.945313-33.050781 101.832032-67.546875 25.40625-33.855469 39.398437-75.683594 39.398437-117.78125v-82.085937l-144.5625-10.210938zm0 0" fill="#ebab28"/><path d="m189.863281 234v278c1.121094 0 2.238281-.125 3.332031-.375 39.78125-9.0625 75.949219-33.050781 101.832032-67.546875 25.40625-33.855469 39.398437-75.683594 39.398437-117.78125v-82.085937zm0 0" fill="#e59824"/><path d="m289.789062 0c-58.308593 0-106.609374 43.839844-113.953124 100.425781 0 22.101563 30.367187 22.101563 30.367187 0 7.070313-39.972656 41.847656-70.425781 83.585937-70.425781 8.285157 0 15-6.714844 15-15s-6.714843-15-15-15zm0 0" fill="#9d621c"/><path d="m304.773438 100.425781h-229.816407c-41.332031 0-74.957031 33.625-74.957031 74.957031 0 41.332032 33.625 74.957032 74.957031 74.957032h229.816407c41.332031 0 74.957031-33.625 74.957031-74.957032 0-41.332031-33.625-74.957031-74.957031-74.957031zm0 0" fill="#e59824"/><path d="m304.773438 100.425781h-114.910157v149.914063h114.910157c41.332031 0 74.957031-33.625 74.957031-74.957032 0-41.332031-33.625-74.957031-74.957031-74.957031zm0 0" fill="#cd7c10"/></svg>