<?xml version="1.0" encoding="iso-8859-1"?>
<!-- Generator: Adobe Illustrator 19.0.0, SVG Export Plug-In . SVG Version: 6.00 Build 0)  -->
<svg version="1.1" id="Capa_1" xmlns="http://www.w3.org/2000/svg" xmlns:xlink="http://www.w3.org/1999/xlink" x="0px" y="0px"
	 viewBox="0 0 488.157 488.157" style="enable-background:new 0 0 488.157 488.157;" xml:space="preserve">
<path style="fill:#B2CC93;" d="M389.508,306.025c-7.732-29.85-22.533-49.997-32.709-61.031
	c-7.698-8.348-12.989-18.604-15.694-29.632c-4.131-16.837-10.463-43.479-17.363-75.515c-7.264-33.725-25.852-50.148-39.362-57.854
	c-10.838-6.181-24.079-6.133-34.69-0.068c-3.484,1.992-7.738,1.992-11.223,0c-10.611-6.064-23.853-6.112-34.69,0.068
	c-13.511,7.705-32.099,24.129-39.362,57.854c-6.9,32.035-13.232,58.678-17.363,75.515c-2.705,11.028-7.996,21.284-15.694,29.632
	c-10.176,11.034-24.977,31.182-32.709,61.031c-9.554,36.882-4.001,75.849,13.104,109.892
	c18.715,37.246,55.844,81.582,126.727,70.514c3.704-0.578,7.495-0.578,11.199,0c70.883,11.068,108.012-33.268,126.727-70.514
	C393.509,381.874,399.061,342.907,389.508,306.025z"/>
<path style="fill:#92AF71;" d="M103.114,19.317c11.635,20.327,49.333,72.005,118.366,40.058c3.712-1.718,5.356-6.11,3.696-9.85
	c-8.42-18.968-39.078-69.594-118.121-40.926C102.716,10.174,100.82,15.31,103.114,19.317z"/>
<path style="fill:#FFE6D2;" d="M350.339,298.604c-6.099-16.949-14.662-28.518-21.426-35.686
	c-7.241-7.676-12.399-17.074-14.584-27.398l-16.158-76.347c-5.717-22.867-17.048-32.453-23.031-36.057
	c-1.793-1.08-3.711-1.952-5.748-2.433c-0.574-0.135-1.135-0.243-1.683-0.326c-9.805-1.488-18.472,6.634-18.472,16.55v1.201
	c0,2.851-2.311,5.16-5.16,5.16l0,0l0,0c-2.85,0-5.16-2.31-5.16-5.16v-1.201c0-9.916-8.668-18.038-18.472-16.55
	c-0.548,0.083-1.109,0.191-1.683,0.326c-2.037,0.48-3.955,1.353-5.748,2.433c-5.983,3.604-17.314,13.189-23.031,36.057
	l-16.158,76.347c-2.185,10.324-7.343,19.723-14.585,27.398c-6.763,7.168-15.327,18.736-21.425,35.686
	c-10.076,28.008-8.447,59,3.73,86.16c10.567,23.57,30.397,49.887,66.974,55.459c13.83,2.105,27.182-7.061,29.259-20.896
	c0.12-0.799,0.226-1.627,0.314-2.484c0.321-3.106,2.852-5.51,5.975-5.51h0.01h0.01c3.123,0,5.653,2.403,5.975,5.51
	c0.089,0.857,0.194,1.686,0.313,2.484c2.078,13.836,15.43,23.002,29.26,20.896c36.575-5.572,56.406-31.889,66.974-55.459
	C358.786,357.604,360.415,326.612,350.339,298.604z"/>
<g>
	<path style="fill:#AD4444;" d="M226.247,353.872c2.162-1.232,4.716,0.868,3.897,3.219c-2.039,5.857-5.512,14.622-9.819,20.743
		c0,0-3.654,4.872-9.181,4.131c-2.903-0.39-5.458-2.397-6.401-5.17c-0.762-2.239-0.762-5.333,2.285-8.749
		C207.028,368.046,215.741,359.861,226.247,353.872z"/>
	<path style="fill:#AD4444;" d="M261.907,353.872c-2.162-1.232-4.717,0.868-3.898,3.219c2.04,5.857,5.513,14.622,9.82,20.743
		c0,0,3.653,4.872,9.181,4.131c2.903-0.39,5.458-2.397,6.401-5.17c0.762-2.239,0.762-5.333-2.286-8.749
		C281.125,368.046,272.412,359.861,261.907,353.872z"/>
</g>
<path style="fill:#92AF71;" d="M245.729,52.348c1.712-10.944,7.4-31.164,26.279-41.35c5.144-2.774,11.565-0.788,14.049,4.502
	l0.709,1.513c2.463,5.246-0.023,11.413-5.388,13.605c-7.896,3.226-18.188,10.136-23.188,24.812
	c-0.887,2.605-3.329,4.373-6.082,4.373l0,0C248.138,59.803,245.116,56.271,245.729,52.348z"/>
<g>
</g>
<g>
</g>
<g>
</g>
<g>
</g>
<g>
</g>
<g>
</g>
<g>
</g>
<g>
</g>
<g>
</g>
<g>
</g>
<g>
</g>
<g>
</g>
<g>
</g>
<g>
</g>
<g>
</g>
</svg>
