<svg height="512pt" viewBox="0 0 512 512" width="512pt" xmlns="http://www.w3.org/2000/svg"><path d="m0 29h377.179688v483h-377.179688zm0 0" fill="#e0e4fa"/><path d="m0 29h377.179688v105.320312h-377.179688zm0 0" fill="#0087ff"/><path d="m69.761719 0h30v88h-30zm0 0" fill="#ffb74f"/><path d="m139.011719 0h30v88h-30zm0 0" fill="#ffb74f"/><g fill="#84caff"><path d="m92.761719 208h191.988281v30h-191.988281zm0 0"/><path d="m92.761719 273h191.988281v30h-191.988281zm0 0"/><path d="m92.761719 338h191.988281v30h-191.988281zm0 0"/><path d="m263.511719 403v24.160156l-28.113281 5.839844h-142.636719v-30zm0 0"/></g><path d="m188.75 29h188.429688v483h-188.429688zm0 0" fill="#c4c9f7"/><path d="m188.75 403h74.761719v24.160156l-28.113281 5.839844h-46.648438zm0 0" fill="#97a1f0"/><path d="m188.75 208h96v30h-96zm0 0" fill="#97a1f0"/><path d="m188.75 273h96v30h-96zm0 0" fill="#97a1f0"/><path d="m188.75 338h96v30h-96zm0 0" fill="#97a1f0"/><path d="m188.75 29h188.429688v105.320312h-188.429688zm0 0" fill="#4b5be4"/><path d="m208.261719 0h30v88h-30zm0 0" fill="#ff9a00"/><path d="m277.511719 0h30v88h-30zm0 0" fill="#ff9a00"/><path d="m511.878906 230.160156-183.550781 183.550782-92.800781 19.289062 19.285156-92.808594 183.550781-183.550781zm0 0" fill="#ffb74f"/><path d="m511.878906 230.160156-183.550781 183.550782-92.800781 19.289062 239.597656-239.597656zm0 0" fill="#ff9a00"/><path d="m328.328125 413.710938-92.800781 19.289062 19.285156-92.808594zm0 0" fill="#ffdba9"/><path d="m291.574219 376.953125 36.753906 36.757813-92.800781 19.289062zm0 0" fill="#ffc473"/><path d="m262.269531 427.441406-26.742187 5.558594 5.558594-26.742188zm0 0" fill="#78777f"/><path d="m385.523438 209.476562 52.835937-52.832031 73.515625 73.515625-52.835938 52.835938zm0 0" fill="#ffdf48"/><path d="m262.269531 427.441406-26.742187 5.558594 16.152344-16.148438zm0 0" fill="#57555c"/><path d="m422.285156 246.238281 52.835938-52.832031 36.753906 36.753906-52.835938 52.835938zm0 0" fill="#fec000"/></svg>