<svg height="512" viewBox="0 0 58 58" width="512" xmlns="http://www.w3.org/2000/svg"><g id="Page-1" fill="none" fill-rule="evenodd"><g id="004---Toast" fill-rule="nonzero" transform="translate(-1 -1)"><path id="Shape" d="m51 48v7c0 2.209139-1.790861 4-4 4h-36c-2.209139 0-4-1.790861-4-4v-41.08c.00070662-.4893829-.35626644-.9058515-.84-.98-3.0283625-.4268037-5.25109382-3.06306645-5.16-6.12.18822385-3.30086602 2.94410798-5.86714533 6.25-5.82h43.5c3.305892-.04714533 6.0617762 2.51913398 6.25 5.82.0910938 3.05693355-2.1316375 5.6931963-5.16 6.12-.4837336.0741485-.8407066.4906171-.84.98z" fill="#cb8252"/><path id="Shape" d="m47 48v7h-36v-41.08c-.0046367-2.483597-1.8315652-4.58733293-4.29-4.94-1.00546498-.14686678-1.74099239-1.02433808-1.71-2.04.12645764-1.13598701 1.10777156-1.98209768 2.25-1.94h43.5c1.1422284-.04209768 2.1235424.80401299 2.25 1.94.0309924 1.01566192-.704535 1.89313322-1.71 2.04-2.4584348.35266707-4.2853633 2.456403-4.29 4.94z" fill="#f9eab0"/><path id="Shape" d="m23 41.54v-4.54c.0032948-1.1032019.8967981-1.9967052 2-2 1.1011688.0081672 1.9918328.8988312 2 2v1c.0032948 1.1032019.8967981 1.9967052 2 2 1.1011688-.0081672 1.9918328-.8988312 2-2v-3c.0032948-1.1032019.8967981-1.9967052 2-2 1.1011688.0081672 1.9918328.8988312 2 2v5h4v-1c.0032948-1.1032019.8967981-1.9967052 2-2 1.1011688-.0081672 1.9918328-.8988312 2-2v-11c-.0032948-1.1032019-.8967981-1.9967052-2-2-1.1011688-.0081672-1.9918328-.8988312-2-2v-1c-.0032948-1.1032019-.8967981-1.9967052-2-2-1.1011688.0081672-1.9918328.8988312-2 2 0 1.1045695-.8954305 2-2 2s-2-.8954305-2-2v-3c-.0032948-1.1032019-.8967981-1.9967052-2-2-1.1011688.0081672-1.9918328.8988312-2 2v5c-.0032948 1.1032019-.8967981 1.9967052-2 2-1.1011688-.0081672-1.9918328-.8988312-2-2 0-1.1045695-.8954305-2-2-2s-2 .8954305-2 2v3c-.0032948 1.1032019-.8967981 1.9967052-2 2-1.1011688.0081672-1.9918328.8988312-2 2v11c.0032948 1.1032019.8967981 1.9967052 2 2 1.1011688.0081672 1.9918328.8988312 2 2v1c.0032948 1.1032019.8967981 1.9967052 2 2z" fill="#cc4b4c"/><path id="Shape" d="m45.368 44c-.3997186.0087955-.769223-.2118969-.951-.568-.9900808-2.0952612-3.0995921-3.4317653-5.417-3.432h-12c-3.3137085 0-6 2.6862915-6 6v2h29v-4z" fill="#bdc3c7"/><path id="Shape" d="m51 42h7c.5522847 0 1 .4477153 1 1v4c0 .5522847-.4477153 1-1 1h-8v-5c0-.5522847.4477153-1 1-1z" fill="#35495e"/></g></g></svg>