<?xml version="1.0" encoding="iso-8859-1"?>
<!-- Generator: Adobe Illustrator 19.0.0, SVG Export Plug-In . SVG Version: 6.00 Build 0)  -->
<svg xmlns="http://www.w3.org/2000/svg" xmlns:xlink="http://www.w3.org/1999/xlink" version="1.1" id="Layer_1" x="0px" y="0px" viewBox="0 0 512 512" style="enable-background:new 0 0 512 512;" xml:space="preserve">
<path style="fill:#E8EAE9;" d="M93.867,320.557c-51.2,0-93.867-41.6-93.867-93.867c0-49.067,37.333-89.6,85.333-92.8  c6.4-36.267,24.533-70.4,54.4-96c67.2-56.533,167.467-48,225.067,19.2c23.467,27.733,36.267,61.867,37.333,96  c7.467-2.133,16-3.2,24.533-3.2c46.933,0,85.333,38.4,85.333,85.333s-38.4,85.333-85.333,85.333H93.867L93.867,320.557z"/>
<g>
	<polygon style="fill:#415A6B;" points="215.467,511.491 242.133,403.758 179.2,403.758 282.667,236.291 254.933,350.424    332.8,350.424  "/>
	<polygon style="fill:#415A6B;" points="72.533,511.491 90.667,437.891 48,437.891 118.4,323.758 99.2,401.624 152.533,401.624  "/>
	<polygon style="fill:#415A6B;" points="385.067,511.491 402.133,437.891 359.467,437.891 430.933,323.758 411.733,401.624    464,401.624  "/>
</g>
<g>
</g>
<g>
</g>
<g>
</g>
<g>
</g>
<g>
</g>
<g>
</g>
<g>
</g>
<g>
</g>
<g>
</g>
<g>
</g>
<g>
</g>
<g>
</g>
<g>
</g>
<g>
</g>
<g>
</g>
</svg>
