<?xml version="1.0" encoding="iso-8859-1"?>
<!-- Generator: Adobe Illustrator 19.0.0, SVG Export Plug-In . SVG Version: 6.00 Build 0)  -->
<svg version="1.1" id="Capa_1" xmlns="http://www.w3.org/2000/svg" xmlns:xlink="http://www.w3.org/1999/xlink" x="0px" y="0px"
	 viewBox="0 0 490.667 490.667" style="enable-background:new 0 0 490.667 490.667;" xml:space="preserve">
<path style="fill:#F1F2F2;" d="M490.667,106.667v330.667c0,17.707-14.293,32-32,32H32c-17.707,0-32-14.293-32-32V106.667H490.667z"
	/>
<path style="fill:#A4B0C0;" d="M490.667,53.333v53.333H0V53.333c0-17.707,14.293-32,32-32h426.667
	C476.373,21.333,490.667,35.627,490.667,53.333z"/>
<g>
	<path style="fill:#768BA0;" d="M64,74.667H53.333c-5.888,0-10.667-4.779-10.667-10.667s4.779-10.667,10.667-10.667H64
		c5.888,0,10.667,4.779,10.667,10.667S69.888,74.667,64,74.667z"/>
	<path style="fill:#768BA0;" d="M117.333,74.667h-10.667C100.779,74.667,96,69.888,96,64s4.779-10.667,10.667-10.667h10.667
		C123.221,53.333,128,58.112,128,64S123.221,74.667,117.333,74.667z"/>
	<path style="fill:#768BA0;" d="M437.333,74.667h-10.667C420.779,74.667,416,69.888,416,64s4.779-10.667,10.667-10.667h10.667
		C443.221,53.333,448,58.112,448,64S443.221,74.667,437.333,74.667z"/>
</g>
<path style="fill:#FED049;" d="M437.333,192v192c0,17.707-14.293,32-32,32H288l-42.667,42.667L202.667,416H85.333
	c-17.707,0-32-14.293-32-32V192c0-17.707,14.293-32,32-32h320C423.04,160,437.333,174.293,437.333,192z"/>
<g>
	<path style="fill:#F6B445;" d="M362.667,245.333H128c-5.888,0-10.667-4.779-10.667-10.667S122.112,224,128,224h234.667
		c5.888,0,10.667,4.779,10.667,10.667S368.555,245.333,362.667,245.333z"/>
	<path style="fill:#F6B445;" d="M362.667,298.667H128c-5.888,0-10.667-4.779-10.667-10.667s4.779-10.667,10.667-10.667h234.667
		c5.888,0,10.667,4.779,10.667,10.667S368.555,298.667,362.667,298.667z"/>
	<path style="fill:#F6B445;" d="M234.667,352H128c-5.888,0-10.667-4.779-10.667-10.667s4.779-10.667,10.667-10.667h106.667
		c5.888,0,10.667,4.779,10.667,10.667S240.555,352,234.667,352z"/>
</g>
<g>
</g>
<g>
</g>
<g>
</g>
<g>
</g>
<g>
</g>
<g>
</g>
<g>
</g>
<g>
</g>
<g>
</g>
<g>
</g>
<g>
</g>
<g>
</g>
<g>
</g>
<g>
</g>
<g>
</g>
</svg>
