<svg id="Capa_1" enable-background="new 0 0 512 512" height="512" viewBox="0 0 512 512" width="512" xmlns="http://www.w3.org/2000/svg"><g><g><circle cx="247.467" cy="247.467" fill="#ffe278" r="247.467"/><path d="m247.467 0c-3.972 0-7.921.103-11.847.288 131.17 6.184 235.62 114.479 235.62 247.178s-104.45 240.995-235.62 247.178c3.927.185 7.875.288 11.847.288 136.672 0 247.467-110.795 247.467-247.467s-110.795-247.465-247.467-247.465z" fill="#ffcc4a"/><g fill="#ffb54c"><path d="m247.467 0c-2.586 0-5.159.053-7.726.131v32.864c0 4.267 3.459 7.726 7.726 7.726s7.726-3.459 7.726-7.726v-32.863c-2.567-.079-5.14-.132-7.726-.132z"/><path d="m67.113 78.04 23.236 23.236c1.509 1.508 3.486 2.263 5.463 2.263s3.955-.755 5.463-2.263c3.018-3.017 3.018-7.91 0-10.927l-23.235-23.235c-3.755 3.528-7.398 7.172-10.927 10.926z"/><path d="m.132 255.193h32.864c4.267 0 7.726-3.459 7.726-7.726s-3.459-7.726-7.726-7.726h-32.864c-.079 2.567-.132 5.14-.132 7.726s.053 5.159.132 7.726z"/><path d="m90.35 393.658-23.236 23.236c3.528 3.754 7.172 7.398 10.927 10.927l23.236-23.236c3.018-3.017 3.018-7.909 0-10.927s-7.91-3.018-10.927 0z"/><path d="m247.467 454.211c-4.267 0-7.726 3.459-7.726 7.726v32.864c2.567.079 5.14.132 7.726.132s5.16-.053 7.726-.132v-32.864c0-4.266-3.459-7.726-7.726-7.726z"/><path d="m494.802 239.741h-32.864c-4.267 0-7.726 3.459-7.726 7.726s3.459 7.726 7.726 7.726h32.864c.079-2.567.132-5.14.132-7.727-.001-2.585-.054-5.158-.132-7.725z"/><path d="m416.894 67.114-23.237 23.236c-3.018 3.017-3.018 7.91 0 10.927 1.509 1.508 3.486 2.263 5.463 2.263s3.955-.755 5.463-2.263l23.237-23.237c-3.528-3.754-7.172-7.398-10.926-10.926z"/></g><circle cx="247.467" cy="247.467" fill="#ffcc4a" r="214.471"/><circle cx="247.467" cy="247.467" fill="#ffb54c" r="181.475"/><path d="m247.467 32.996c-3.976 0-7.924.117-11.847.33 112.938 6.15 202.624 99.668 202.624 214.141s-89.686 207.991-202.624 214.14c3.923.214 7.871.331 11.847.331 118.449 0 214.471-96.022 214.471-214.471s-96.022-214.471-214.471-214.471z" fill="#ffb54c"/><path d="m247.467 65.991c-3.982 0-7.929.143-11.847.395 94.702 6.105 169.628 84.836 169.628 181.08s-74.926 174.976-169.628 181.08c3.918.253 7.865.395 11.847.395 100.226 0 181.475-81.249 181.475-181.476 0-100.224-81.249-181.474-181.475-181.474z" fill="#ff9959"/></g><path d="m317.771 349.868-110.801-1.006c21.392-29.309 26.353-47.148 22.754-80.146h35.432c9.426 0 17.067-7.641 17.067-17.067s-7.641-17.067-17.067-17.067h-43.628c-7.296-10.714-20.495-34.164-20.41-53.732 0-.023-.003-.045-.003-.068s.003-.044.003-.067c-.045-12.671 5.471-21.957 16.864-28.391 16.967-9.582 43.362-9.723 58.837-.311 12.267 7.457 21.199 17.583 23.895 27.085 2.573 9.067 12.003 14.338 21.076 11.762 9.068-2.572 14.334-12.008 11.762-21.076-5.059-17.837-19.274-34.945-38.999-46.937-26.17-15.911-65.431-16.015-93.354-.245-22.102 12.479-34.245 33.096-34.212 58.063 0 .012-.002.024-.002.037 0 .02.001.04.001.059 0 .025-.001.051-.001.076 0 .018.003.034.003.052-.035 19.457 7.55 39.072 15.045 53.693h-21.78c-9.426 0-17.067 7.641-17.067 17.067s7.641 17.067 17.067 17.067h35.116l.374 3.221c2.7 24.152 1.287 33.149-17.975 59.016l-19.118 24.035c-4.061 5.106-4.856 12.08-2.048 17.969s8.727 9.661 15.251 9.721l145.608 1.322c.053.001.105.001.158.001 9.353 0 16.978-7.54 17.062-16.911.086-9.427-7.485-17.137-16.91-17.222z" fill="#ffe278"/><g><g><ellipse cx="426.667" cy="426.667" fill="#b0d16f" rx="85.333" ry="85.333" transform="matrix(.707 -.707 .707 .707 -176.731 426.667)"/><path d="m443.733 469.333v-40.798c0-2.356 1.91-4.267 4.267-4.267h12.224c3.617 0 5.594-4.219 3.278-6.998l-33.557-40.268c-1.706-2.047-4.85-2.047-6.556 0l-33.557 40.268c-2.316 2.779-.34 6.998 3.278 6.998h12.224c2.356 0 4.267 1.91 4.267 4.267v40.798c0 4.713 3.82 8.533 8.533 8.533h17.066c4.713.001 8.533-3.82 8.533-8.533z" fill="#f4fbff"/><path d="m426.667 341.333c-4.022 0-7.973.299-11.847.837 41.518 5.77 73.486 41.39 73.486 84.496s-31.969 78.726-73.486 84.496c3.874.538 7.825.837 11.847.837 47.128.001 85.333-38.204 85.333-85.332s-38.205-85.334-85.333-85.334z" fill="#89c247"/><path d="m463.502 417.271-33.557-40.269c-1.706-2.047-4.85-2.047-6.556 0l-8.569 10.283 24.988 29.986c2.316 2.779.34 6.998-3.278 6.998h-12.224c-2.356 0-4.267 1.91-4.267 4.267v40.798c0 3.538-2.153 6.572-5.22 7.866 1.019.43 2.138.668 3.314.668h17.067c4.713 0 8.533-3.82 8.533-8.533v-40.798c0-2.356 1.91-4.267 4.267-4.267h12.224c3.617-.001 5.593-4.22 3.278-6.999z" fill="#bfebff"/></g></g></g></svg>