<?xml version="1.0" encoding="iso-8859-1"?>
<!-- Generator: Adobe Illustrator 19.0.0, SVG Export Plug-In . SVG Version: 6.00 Build 0)  -->
<svg version="1.1" id="Capa_1" xmlns="http://www.w3.org/2000/svg" xmlns:xlink="http://www.w3.org/1999/xlink" x="0px" y="0px"
	 viewBox="0 0 512 512" style="enable-background:new 0 0 512 512;" xml:space="preserve">
<path style="fill:#008CFF;" d="M371.515,0H188.966c-7.233,0-13.097,5.864-13.097,13.098v46.335h137.423l102.981,102.98V452.45
	h44.867c7.377,0,13.357-5.98,13.357-13.357V102.98L371.515,0z"/>
<g>
	<path style="fill:#0385DD;" d="M432.297,177.282l-16.024-16.129V452.45h20.336V187.739
		C436.608,183.821,435.058,180.062,432.297,177.282z"/>
	<path style="fill:#0385DD;" d="M209.571,0h-20.605c-7.233,0-13.097,5.864-13.097,13.098v46.335h20.605V13.098
		C196.474,5.864,202.337,0,209.571,0z"/>
	<path style="fill:#0385DD;" d="M384.613,102.98h89.883L371.515,0v89.882C371.515,97.116,377.379,102.98,384.613,102.98z"/>
</g>
<path style="fill:#0276C4;" d="M392.12,89.883V20.605L371.515,0v89.883c0,7.233,5.864,13.098,13.098,13.098h20.605
	C397.984,102.98,392.12,97.116,392.12,89.883z"/>
<path style="fill:#E4EAF8;" d="M130.733,58.542h182.956l103.21,103.209v336.862c0,7.393-5.993,13.387-13.387,13.387H131.358
	c-7.595,0-13.751-6.157-13.751-13.751c0-5.6,0-422.432,0-426.58C117.607,64.419,123.484,58.542,130.733,58.542z"/>
<g>
	<path style="fill:#D8DCE5;" d="M138.252,498.249c0-18.732,0-407.96,0-426.58c0-7.249,5.877-13.127,13.127-13.127h-20.645
		c-7.25,0-13.127,5.877-13.127,13.127c0,7.3,0,420.607,0,426.58c0,7.594,6.157,13.751,13.751,13.751h20.645
		C144.409,512,138.252,505.843,138.252,498.249z"/>
	<path style="fill:#D8DCE5;" d="M326.816,161.751h90.083L313.689,58.542v90.083C313.689,155.874,319.566,161.751,326.816,161.751z"
		/>
</g>
<path style="fill:#C3C8D1;" d="M334.335,148.625V79.187l-20.646-20.645v90.083c0,7.25,5.877,13.127,13.127,13.127h20.645
	C340.211,161.751,334.335,155.874,334.335,148.625z"/>
<path style="fill:#707487;" d="M176.01,392.032c-4.267,0-7.727-3.459-7.727-7.727v-38.737c0-27.922-22.716-50.638-50.638-50.638
	s-50.638,22.716-50.638,50.638v38.737c0,4.267-3.459,7.727-7.727,7.727c-4.268,0-7.727-3.459-7.727-7.727v-38.737
	c0-36.443,29.649-66.092,66.092-66.092s66.092,29.649,66.092,66.092v38.737C183.737,388.573,180.277,392.032,176.01,392.032z"/>
<path style="fill:#FFC850;" d="M189.906,511.882H45.385c-4.353,0-7.882-3.529-7.882-7.882V389.097c0-4.353,3.529-7.882,7.882-7.882
	h144.521c4.353,0,7.882,3.529,7.882,7.882V504C197.788,508.354,194.259,511.882,189.906,511.882z"/>
<path style="fill:#F9B428;" d="M58.627,503.762V389.335c0-4.485,3.636-8.12,8.12-8.12H45.623c-4.485,0-8.12,3.636-8.12,8.12v114.427
	c0,4.485,3.636,8.12,8.12,8.12h21.124C62.263,511.882,58.627,508.247,58.627,503.762z"/>
<circle style="fill:#E4EAF8;" cx="117.649" cy="428.29" r="18.259"/>
<path style="fill:#D8DCE5;" d="M119.991,428.29c0-6.261,3.154-11.781,7.956-15.071c-2.933-2.009-6.479-3.188-10.302-3.188
	c-10.084,0-18.259,8.175-18.259,18.259s8.175,18.259,18.259,18.259c3.824,0,7.369-1.179,10.302-3.188
	C123.145,440.071,119.991,434.55,119.991,428.29z"/>
<g>
</g>
<g>
</g>
<g>
</g>
<g>
</g>
<g>
</g>
<g>
</g>
<g>
</g>
<g>
</g>
<g>
</g>
<g>
</g>
<g>
</g>
<g>
</g>
<g>
</g>
<g>
</g>
<g>
</g>
</svg>
