<?xml version="1.0" encoding="iso-8859-1"?>
<!-- Generator: Adobe Illustrator 19.0.0, SVG Export Plug-In . SVG Version: 6.00 Build 0)  -->
<svg version="1.1" id="Capa_1" xmlns="http://www.w3.org/2000/svg" xmlns:xlink="http://www.w3.org/1999/xlink" x="0px" y="0px"
	 viewBox="0 0 512.001 512.001" style="enable-background:new 0 0 512.001 512.001;" xml:space="preserve">
<path style="fill:#CAE8F9;" d="M455.308,89.852L375.606,9.348l-30.84,22.529v80.805c0,8.41-6.608,15.019-15.019,15.019h-67.287
	l-15.019,10.814l-23.431,16.622l82.907,83.108c2.704,3.003,6.61,4.507,10.515,4.507s7.81-1.503,10.513-4.507L455.308,110.88
	C461.316,105.173,461.316,95.56,455.308,89.852z"/>
<path style="fill:#B7E0F6;" d="M455.308,110.881L327.943,238.246c-2.703,3.003-6.608,4.507-10.513,4.507s-7.81-1.503-10.515-4.507
	l-59.476-59.676v-40.253l15.019-10.613h67.287c8.412,0,15.019-6.61,15.019-15.019V31.879l30.84-22.529l79.702,80.504
	C461.316,95.56,461.316,105.173,455.308,110.881z"/>
<path style="fill:#FEDB41;" d="M350.172,3.942L247.44,106.674c-13.518,13.518-23.431,23.431-25.532,25.534
	c-6.91,6.608-5.409,17.221,2.101,22.929c2.404,1.502,5.409,2.404,8.412,2.404h97.326c24.933,0,45.859-19.925,45.859-44.858V9.349
	C367.795,1.538,360.987-4.169,350.172,3.942z"/>
<path style="fill:#FCBF29;" d="M329.746,157.541h-82.307v-50.866L350.172,3.942c10.815-8.112,17.623-2.404,25.434,5.407v103.334
	C375.606,137.615,354.679,157.541,329.746,157.541z"/>
<path style="fill:#17ACE8;" d="M408.748,185.376c-2.703-3.003-6.908-4.805-11.114-4.805H97.244c-4.205,0-8.412,1.802-11.114,4.805
	c-3.003,3.304-4.205,7.51-3.905,11.715l27.036,274.956c2.702,22.83,21.927,39.953,45.058,39.953h186.24
	c23.131,0,42.356-17.122,45.058-39.953c0-0.3,0-0.3,0-0.3l27.036-274.656C412.954,192.886,411.752,188.68,408.748,185.376z"/>
<path style="fill:#1689FC;" d="M412.654,197.092l-27.036,274.656c0,0,0,0,0,0.3c-2.702,22.83-21.927,39.953-45.058,39.953h-93.12
	V180.572h150.194c4.205,0,8.412,1.802,11.114,4.805C411.752,188.68,412.954,192.886,412.654,197.092z"/>
<path style="fill:#B7E0F6;" d="M262.459,255.668v181.235c0,8.41-6.608,15.019-15.019,15.019s-15.019-6.61-15.019-15.019V255.668
	c0-8.412,6.608-15.019,15.019-15.019S262.459,247.256,262.459,255.668z"/>
<path style="fill:#A4D9F5;" d="M307.518,451.922c-8.302,0-15.019-6.718-15.019-15.019V255.668c0-8.302,6.718-15.019,15.019-15.019
	c8.302,0,15.019,6.718,15.019,15.019v181.235C322.537,445.205,315.82,451.922,307.518,451.922z"/>
<path style="fill:#B7E0F6;" d="M187.362,451.922c-8.302,0-15.019-6.718-15.019-15.019V255.668c0-8.302,6.718-15.019,15.019-15.019
	c8.302,0,15.019,6.718,15.019,15.019v181.235C202.382,445.205,195.664,451.922,187.362,451.922z"/>
<path style="fill:#A4D9F5;" d="M262.459,255.668v181.235c0,8.41-6.608,15.019-15.019,15.019V240.649
	C255.851,240.649,262.459,247.256,262.459,255.668z"/>
<path style="fill:#1689FC;" d="M442.693,195.59c0,8.41-6.608,15.019-15.019,15.019H67.207c-8.412,0-15.019-6.61-15.019-15.019
	c0-8.412,6.608-15.019,15.019-15.019h360.467C436.084,180.571,442.693,187.178,442.693,195.59z"/>
<path style="fill:#136EF1;" d="M442.693,195.59c0,8.41-6.608,15.019-15.019,15.019H247.44v-30.039h180.233
	C436.084,180.571,442.693,187.178,442.693,195.59z"/>
<g>
</g>
<g>
</g>
<g>
</g>
<g>
</g>
<g>
</g>
<g>
</g>
<g>
</g>
<g>
</g>
<g>
</g>
<g>
</g>
<g>
</g>
<g>
</g>
<g>
</g>
<g>
</g>
<g>
</g>
</svg>
