<?xml version="1.0" encoding="iso-8859-1"?>
<!-- Generator: Adobe Illustrator 19.0.0, SVG Export Plug-In . SVG Version: 6.00 Build 0)  -->
<svg version="1.1" id="Capa_1" xmlns="http://www.w3.org/2000/svg" xmlns:xlink="http://www.w3.org/1999/xlink" x="0px" y="0px"
	 viewBox="0 0 512 512" style="enable-background:new 0 0 512 512;" xml:space="preserve">
<path style="fill:#EEF5FF;" d="M321.674,159.741V29.91c0-11.548,9.362-20.91,20.91-20.91h55.535c11.548,0,20.91,9.362,20.91,20.91
	v129.831c0,5.232,1.955,10.27,5.493,14.125c12.732,13.872,43.184,50.026,43.184,78.521V491.09c0,11.548-9.362,20.91-20.91,20.91
	h-152.89c-11.548,0-20.91-9.362-20.91-20.91V252.387c0-28.495,30.452-64.649,43.184-78.521
	C319.721,170.011,321.674,164.973,321.674,159.741z"/>
<g>
	<path style="fill:#DAE7FD;" d="M424.523,173.866c-3.538-3.855-5.493-8.893-5.493-14.125V29.91c0-11.548-9.362-20.91-20.91-20.91
		h-27.768v503h76.445c11.548,0,20.91-9.362,20.91-20.91V252.387C467.708,223.892,437.256,187.738,424.523,173.866z"/>
	<path style="fill:#DAE7FD;" d="M423.978,30h-107.25c-8.284,0-15-6.716-15-15s6.716-15,15-15h107.25c8.284,0,15,6.716,15,15
		S432.262,30,423.978,30z"/>
</g>
<path style="fill:#BED7FD;" d="M423.978,0h-53.625v30h53.625c8.284,0,15-6.716,15-15S432.262,0,423.978,0z"/>
<rect x="272.996" y="288.5" style="fill:#ECB53A;" width="194.71" height="107.22"/>
<rect x="370.355" y="288.5" style="fill:#E18933;" width="97.36" height="107.22"/>
<path style="fill:#EEF5FF;" d="M198.736,326.604V140.023c0-8.284-6.716-15-15-15H59.35c-8.284,0-15,6.716-15,15v186.581h-0.001
	c0,37.41,26.753,68.679,62.129,75.707V482H65.607c-8.284,0-15,6.716-15,15s6.716,15,15,15h111.871c8.284,0,15-6.716,15-15
	s-6.716-15-15-15h-41v-79.666C171.918,395.357,198.736,364.059,198.736,326.604z"/>
<path style="fill:#DAE7FD;" d="M198.736,326.604V140.023c0-8.284-6.716-15-15-15h-62.193l-0.001,139.387v109.387l0,0v30l0,0V482
	h-0.065v30h56c8.284,0,15-6.716,15-15s-6.716-15-15-15h-41v-79.666C171.918,395.357,198.736,364.059,198.736,326.604z"/>
<path style="fill:#FF415B;" d="M44.286,291v35.604h-0.001c0,37.41,26.753,68.679,62.129,75.707l30,0.023
	c35.44-6.977,62.258-38.275,62.258-75.73V291H44.286z"/>
<path style="fill:#C60051;" d="M121.542,402.311l14.871,0.023c35.44-6.977,62.258-38.275,62.258-75.73V291h-77.128"/>
<g>
</g>
<g>
</g>
<g>
</g>
<g>
</g>
<g>
</g>
<g>
</g>
<g>
</g>
<g>
</g>
<g>
</g>
<g>
</g>
<g>
</g>
<g>
</g>
<g>
</g>
<g>
</g>
<g>
</g>
</svg>
