<svg id="Capa_1" enable-background="new 0 0 512 512" height="512" viewBox="0 0 512 512" width="512" xmlns="http://www.w3.org/2000/svg"><path d="m114.997 498.914c-1.933 0-3.882-.373-5.737-1.142-5.606-2.322-9.26-7.792-9.26-13.858v-101.802c-56.352-7.371-100-55.696-100-114.026v-140c0-63.411 51.589-115 115-115h282c63.411 0 115 51.589 115 115v140c0 63.411-51.589 115-115 115h-159.96l-111.434 111.434c-2.869 2.869-6.706 4.394-10.609 4.394z" fill="#2698d1"/><path d="m397 13.086h-140.999v370h140.999c63.411 0 115-51.589 115-115v-140c0-63.411-51.589-115-115-115z" fill="#176cad"/><path d="m346.001 309.39h-180c-8.284 0-15-6.716-15-15v-50c0-30.327 24.673-55 55-55h100c30.327 0 55 24.673 55 55v50c0 8.284-6.716 15-15 15z" fill="#ffcf2c"/><path d="m306.001 189.39h-50v120h90c8.284 0 15-6.716 15-15v-50c0-30.327-24.673-55-55-55z" fill="#ff9300"/><path d="m261.001 219.39h-10c-30.327 0-55-24.673-55-55v-30c0-30.327 24.673-55 55-55h10c30.327 0 55 24.673 55 55v30c0 30.327-24.673 55-55 55z" fill="#ffedcd"/><path d="m261.001 79.39h-5v140h5c30.327 0 55-24.673 55-55v-30c0-30.327-24.673-55-55-55z" fill="#ffdaab"/></svg>