<?xml version="1.0" encoding="iso-8859-1"?>
<!-- Generator: Adobe Illustrator 19.0.0, SVG Export Plug-In . SVG Version: 6.00 Build 0)  -->
<svg version="1.1" id="Capa_1" xmlns="http://www.w3.org/2000/svg" xmlns:xlink="http://www.w3.org/1999/xlink" x="0px" y="0px"
	 viewBox="0 0 512.01 512.01" style="enable-background:new 0 0 512.01 512.01;" xml:space="preserve">
<path style="fill:#455A64;" d="M384.005,277.343h-96v65.963h-64v-65.963h-96c-17.673,0-32,14.327-32,32V480.01
	c0,17.673,14.327,32,32,32h256c17.673,0,32-14.327,32-32V309.343C416.005,291.67,401.678,277.343,384.005,277.343z"/>
<rect x="117.338" y="330.676" style="fill:#FAFAFA;" width="277.333" height="128"/>
<path style="fill:#BBDEFB;" d="M367.344,78.239C345.96,30.382,298.309-0.311,245.893,0.01
	c-67.869-0.822-125.047,50.496-131.541,118.059c-34.568,4.517-60.565,33.749-61.013,68.608c0.585,38.815,32.48,69.832,71.296,69.333
	h99.371v-95.851c0-17.673,14.327-32,32-32c17.673,0,32,14.327,32,32v95.851h79.168c49.788,0.653,90.715-39.109,91.499-88.896
	C457.876,117.403,417.058,77.681,367.344,78.239z"/>
<path style="fill:#2196F3;" d="M306.224,381.023l-42.667,42.667c-0.973,0.914-2.109,1.638-3.349,2.133l0,0l0,0
	c-1.741,0.658-3.626,0.842-5.461,0.533c-0.417-0.052-0.83-0.13-1.237-0.235c-1.841-0.406-3.538-1.306-4.907-2.603l-42.667-42.667
	c-4.093-4.237-3.975-10.99,0.262-15.083c4.134-3.993,10.687-3.993,14.821,0l24.32,24.64V181.492c0-5.891,4.776-10.667,10.667-10.667
	c5.891,0,10.667,4.776,10.667,10.667V390.41l24.448-24.448c4.093-4.237,10.845-4.354,15.083-0.262
	c4.237,4.093,4.354,10.845,0.262,15.083c-0.086,0.089-0.173,0.176-0.262,0.262L306.224,381.023z"/>
<g>
</g>
<g>
</g>
<g>
</g>
<g>
</g>
<g>
</g>
<g>
</g>
<g>
</g>
<g>
</g>
<g>
</g>
<g>
</g>
<g>
</g>
<g>
</g>
<g>
</g>
<g>
</g>
<g>
</g>
</svg>
