<svg id="Capa_1" enable-background="new 0 0 512 512" height="512" viewBox="0 0 512 512" width="512" xmlns="http://www.w3.org/2000/svg"><g><g><path d="m7.612 512c-1.947 0-3.894-.742-5.381-2.227-2.973-2.972-2.975-7.791-.003-10.765l20.303-20.317c2.97-2.974 7.79-2.975 10.764-.003 2.973 2.972 2.975 7.791.003 10.765l-20.303 20.317c-1.485 1.486-3.435 2.23-5.383 2.23z" fill="#9aafb7"/></g><g><path d="m195.903 155.308c-1.949 0-3.898-.744-5.385-2.231-2.971-2.974-2.969-7.793.005-10.765l106.083-105.997c23.771-23.751 60.767-15.865 72.987-3.654l10.474 10.465c2.974 2.971 2.976 7.791.005 10.765-2.972 2.974-7.792 2.974-10.764.004l-10.474-10.465c-7.096-7.09-34.603-13.197-51.469 3.654l-106.082 105.997c-1.486 1.484-3.434 2.227-5.38 2.227z" fill="#9aafb7"/></g><g><path clip-rule="evenodd" d="m54.538 486.82 71.882-22.684-12.96-60.394-65.592-18.095-22.703 71.824c-5.032 10.699-3.101 20.58 2.75 26.601 6.027 5.847 15.916 7.805 26.623 2.748z" fill="#edf3f4" fill-rule="evenodd"/></g><g><path clip-rule="evenodd" d="m293.589 297.102 121.354-121.255-25.804-58.991-52.748-19.498-121.354 121.256 20.45 63.785z" fill="#edf3f4" fill-rule="evenodd"/></g><g><path clip-rule="evenodd" d="m500.459 67.424c15.389-15.376 15.389-40.516 0-55.892s-40.549-15.376-55.938 0l-28.642 28.618 8.543 49.461 47.395 6.431z" fill="#edf3f4" fill-rule="evenodd"/></g><g><path clip-rule="evenodd" d="m471.817 96.043 28.642-28.618c15.389-15.376 15.389-40.516 0-55.892-3.569-3.566-7.694-6.314-12.083-8.214 6.319 14.47 3.598 32.039-8.221 43.819l-28.642 28.618 11.849 11.81z" fill="#d7e7ec" fill-rule="evenodd"/></g><g><path clip-rule="evenodd" d="m293.589 297.102 121.354-121.256-19.923-19.906c-.029 0-.029-.029-.059-.029l-.322-.322-121.353 121.226z" fill="#d7e7ec" fill-rule="evenodd"/></g><g><path clip-rule="evenodd" d="m126.42 464.136-20.245-20.229c-.029-.029-.029-.029-.059-.058l-71.882 22.684c-4.184 1.988-8.221 2.865-11.966 2.894-.029 5.846 2.077 10.962 5.646 14.645 6.027 5.846 15.915 7.805 26.623 2.748z" fill="#d7e7ec" fill-rule="evenodd"/></g><g><path clip-rule="evenodd" d="m425.212 176.198 58.454-58.377c2.721-2.748 2.721-7.22 0-9.968l-11.849-11.81-55.938-55.892-11.439-11.43c-2.75-2.748-7.226-2.748-9.947 0l-19.806 19.79-38.647 38.587c-2.721 2.719-2.721 7.191 0 9.939l.351.322 78.552 78.489.322.351c2.75 2.717 7.226 2.717 9.947-.001z" fill="#b5c4cf" fill-rule="evenodd"/></g><g><path clip-rule="evenodd" d="m483.666 117.821c2.721-2.748 2.721-7.22 0-9.968l-11.849-11.81-8.455-8.477c2.721 2.748 2.721 7.22 0 9.968l-58.454 58.377c-2.721 2.719-7.168 2.719-9.889.029l19.923 19.907.322.351c2.75 2.719 7.226 2.719 9.947 0z" fill="#9aafb7" fill-rule="evenodd"/></g><g><path clip-rule="evenodd" d="m137.04 464.136 156.549-156.422c2.926-2.923 2.926-7.688 0-10.611l-42.129-42.094-36.424-36.394c-2.926-2.923-7.694-2.923-10.62 0l-156.548 156.421c-2.926 2.923-2.926 7.688 0 10.611l78.552 78.489c2.926 2.923 7.695 2.923 10.62 0z" fill="#b5c4cf" fill-rule="evenodd"/></g><g><path clip-rule="evenodd" d="m137.04 464.136 156.549-156.422c2.926-2.923 2.926-7.688 0-10.611l-20.304-20.287c2.926 2.923 2.926 7.688 0 10.611l-156.548 156.422c-2.896 2.923-7.665 2.923-10.561.058l20.245 20.229c2.925 2.923 7.694 2.923 10.619 0z" fill="#9aafb7" fill-rule="evenodd"/></g></g></svg>