<svg xmlns="http://www.w3.org/2000/svg" height="512pt" version="1.1" viewBox="-18 0 512 512.00023" width="512pt">
<g id="surface1">
<path d="M 215.953125 52.964844 C 222.308594 63.878906 222.308594 77.363281 215.953125 88.277344 L 317.824219 88.277344 L 317.824219 52.964844 Z M 215.953125 52.964844 " style=" stroke:none;fill-rule:nonzero;fill:rgb(75.294118%,67.058824%,56.862745%);fill-opacity:1;" />
<path d="M 168.992188 70.972656 L 44.433594 195.441406 C 56.65625 198.660156 66.199219 208.203125 69.417969 220.425781 L 193.886719 95.867188 C 181.761719 92.570312 172.289062 83.097656 168.992188 70.972656 Z M 168.992188 70.972656 " style=" stroke:none;fill-rule:nonzero;fill:rgb(75.294118%,67.058824%,56.862745%);fill-opacity:1;" />
<path d="M 24.835938 263.238281 L 81.953125 476.6875 L 118.5 476.6875 L 59.265625 255.46875 C 52.996094 261.296875 44.523438 256 35.34375 256 C 31.722656 256 28.191406 264.296875 24.835938 263.238281 Z M 24.835938 263.238281 " style=" stroke:none;fill-rule:nonzero;fill:rgb(75.294118%,67.058824%,56.862745%);fill-opacity:1;" />
<path d="M 0.03125 476.691406 L 0.03125 512 L 317.824219 512 L 317.824219 476.691406 Z M 0.03125 476.691406 " style=" stroke:none;fill-rule:nonzero;fill:rgb(65.490196%,53.72549%,40%);fill-opacity:1;" />
<path d="M 370.789062 0 L 370.789062 123.585938 L 423.753906 123.585938 L 423.753906 52.964844 C 423.753906 23.714844 400.042969 0 370.789062 0 Z M 370.789062 0 " style=" stroke:none;fill-rule:nonzero;fill:rgb(58.823529%,78.431373%,93.72549%);fill-opacity:1;" />
<path d="M 333.359375 15.539062 C 323.378906 25.429688 317.78125 38.914062 317.824219 52.964844 L 317.824219 123.585938 L 370.789062 123.585938 L 370.789062 0 C 356.738281 -0.0429688 343.253906 5.554688 333.359375 15.539062 Z M 333.359375 15.539062 " style=" stroke:none;fill-rule:nonzero;fill:rgb(47.058824%,72.54902%,92.156863%);fill-opacity:1;" />
<path d="M 370.789062 344.277344 C 365.914062 344.277344 361.960938 340.324219 361.960938 335.449219 L 361.960938 282.484375 C 361.960938 277.609375 365.914062 273.65625 370.789062 273.65625 C 375.664062 273.65625 379.617188 277.609375 379.617188 282.484375 L 379.617188 335.449219 C 379.617188 340.324219 375.664062 344.277344 370.789062 344.277344 Z M 370.789062 344.277344 " style=" stroke:none;fill-rule:nonzero;fill:rgb(34.117647%,64.313725%,100%);fill-opacity:1;" />
<path d="M 457.105469 315.835938 C 454.765625 315.832031 452.519531 314.902344 450.863281 313.246094 L 408.246094 270.628906 C 404.859375 267.121094 404.953125 261.53125 408.460938 258.144531 C 411.882812 254.839844 417.304688 254.839844 420.726562 258.144531 L 463.347656 300.765625 C 466.792969 304.210938 466.792969 309.800781 463.347656 313.25 C 461.691406 314.902344 459.445312 315.832031 457.105469 315.835938 Z M 457.105469 315.835938 " style=" stroke:none;fill-rule:nonzero;fill:rgb(34.117647%,64.313725%,100%);fill-opacity:1;" />
<path d="M 284.472656 315.835938 C 279.597656 315.832031 275.648438 311.878906 275.648438 307.003906 C 275.648438 304.664062 276.578125 302.421875 278.234375 300.765625 L 320.851562 258.144531 C 324.359375 254.757812 329.949219 254.855469 333.335938 258.363281 C 336.640625 261.78125 336.640625 267.207031 333.335938 270.628906 L 290.714844 313.25 C 289.058594 314.902344 286.816406 315.832031 284.472656 315.835938 Z M 284.472656 315.835938 " style=" stroke:none;fill-rule:nonzero;fill:rgb(34.117647%,64.313725%,100%);fill-opacity:1;" />
<path d="M 224.78125 52.964844 C 215.03125 36.222656 193.554688 30.554688 176.8125 40.308594 C 160.070312 50.058594 154.402344 71.535156 164.152344 88.277344 C 173.902344 105.019531 195.382812 110.6875 212.125 100.9375 C 222.914062 94.652344 229.546875 83.109375 229.546875 70.621094 C 229.546875 64.417969 227.902344 58.328125 224.78125 52.964844 Z M 224.78125 52.964844 " style=" stroke:none;fill-rule:nonzero;fill:rgb(47.058824%,72.54902%,92.156863%);fill-opacity:1;" />
<path d="M 44.433594 195.441406 C 41.472656 194.625 38.414062 194.210938 35.34375 194.207031 C 15.839844 194.1875 0.0195312 209.984375 0 229.484375 C -0.015625 244.964844 10.054688 258.648438 24.835938 263.238281 C 43.457031 269.039062 63.25 258.652344 69.054688 240.03125 C 70.113281 236.628906 70.652344 233.082031 70.652344 229.519531 C 70.652344 226.445312 70.234375 223.386719 69.417969 220.425781 C 66.199219 208.203125 56.65625 198.660156 44.433594 195.441406 Z M 44.433594 195.441406 " style=" stroke:none;fill-rule:nonzero;fill:rgb(47.058824%,72.54902%,92.156863%);fill-opacity:1;" />
<path d="M 370.789062 123.585938 L 317.824219 123.585938 C 285.261719 141.011719 264.910156 174.929688 264.859375 211.863281 L 370.789062 211.863281 Z M 370.789062 123.585938 " style=" stroke:none;fill-rule:nonzero;fill:rgb(35.294118%,66.666667%,90.588235%);fill-opacity:1;" />
<path d="M 423.753906 123.585938 L 370.789062 123.585938 L 370.789062 211.863281 L 476.722656 211.863281 C 476.667969 174.929688 456.320312 141.011719 423.753906 123.585938 Z M 423.753906 123.585938 " style=" stroke:none;fill-rule:nonzero;fill:rgb(48.235294%,73.333333%,92.54902%);fill-opacity:1;" />
<path d="M 370.789062 238.34375 C 388.34375 238.304688 404.226562 227.925781 411.308594 211.863281 L 370.789062 211.863281 Z M 370.789062 238.34375 " style=" stroke:none;fill-rule:nonzero;fill:rgb(80.784314%,89.803922%,97.254902%);fill-opacity:1;" />
<path d="M 330.273438 211.863281 C 337.355469 227.925781 353.234375 238.304688 370.789062 238.34375 L 370.789062 211.863281 Z M 330.273438 211.863281 " style=" stroke:none;fill-rule:nonzero;fill:rgb(76.078431%,87.45098%,96.470588%);fill-opacity:1;" />
</g>
</svg>