<svg id="Capa_1" enable-background="new 0 0 512 512" height="512" viewBox="0 0 512 512" width="512" xmlns="http://www.w3.org/2000/svg"><g><g><path d="m293.846 97.462c-49.203 68.449-54.894 102.695-54.894 122.502 0 75.279 61.245 136.524 136.524 136.524.073 0 .146-.005.219-.006l46.665-160.256-46.532-196.226s-57.495 63.398-81.982 97.462z" fill="#74dbf2"/><path d="m512 219.965c0-19.807-5.691-54.053-54.894-122.502-23.426-32.588-76.701-92.34-81.278-97.463l-.133 356.483c75.179-.12 136.305-61.313 136.305-136.518z" fill="#38bdf0"/></g><g><g><path d="m145.313 274.536c0-50.217 40.855-91.072 91.072-91.072 25.382 0 48.369 10.442 64.901 27.25l26.172-8.029 7.942-26.085c-25.273-25.548-60.325-41.404-99.015-41.404-76.832 0-139.339 62.507-139.339 139.339 0 33.299 11.747 63.903 31.307 87.898l-30.055 30.055 10.607 10.607 49.245-36.554 14.414-27.105c-16.809-16.532-27.251-39.518-27.251-64.9z" fill="#ebf4fe"/><path d="m301.286 210.714c16.175 16.446 26.172 38.987 26.172 63.822 0 50.217-40.855 91.072-91.072 91.072-24.835 0-47.376-9.996-63.822-26.172l-63.659 63.659 10.606 10.606 30.171-30.171c23.813 18.982 53.954 30.345 86.703 30.345 76.832 0 139.34-62.507 139.34-139.339 0-38.142-15.41-72.749-40.325-97.936z" fill="#d2e5fc"/></g><g><path d="m13.357 434.042c-17.81 17.811-17.81 46.79 0 64.6l46.766-26.519 18.53-38.777-41.191-23.41z" fill="#9690dc"/><path d="m45.657 512c11.696 0 23.396-4.454 32.3-13.358l24.106-24.106-23.409-41.19-65.296 65.296c8.906 8.906 20.601 13.358 32.299 13.358z" fill="#806fd7"/></g><g><path d="m76.604 370.795-39.141 39.141 32.3 32.301 28.535-8.891 10.606-30.25z" fill="#b4b0e6"/><path d="m77.807 415.977h55.354v45.679h-55.354z" fill="#9690dc" transform="matrix(.707 -.707 .707 .707 -279.394 203.115)"/></g><path d="m68.391 341.37-21.213 21.213 51.12 51.119 21.213-3.766v-17.447z" fill="#9690dc"/><path d="m119.464 392.508h30v72.294h-30z" fill="#806fd7" transform="matrix(.707 -.707 .707 .707 -263.721 220.63)"/></g></g></svg>