<?xml version="1.0" encoding="iso-8859-1"?>
<!-- Generator: Adobe Illustrator 19.0.0, SVG Export Plug-In . SVG Version: 6.00 Build 0)  -->
<svg xmlns="http://www.w3.org/2000/svg" xmlns:xlink="http://www.w3.org/1999/xlink" version="1.1" id="Capa_1" x="0px" y="0px" viewBox="0 0 511.992 511.992" style="enable-background:new 0 0 511.992 511.992;" xml:space="preserve">
<g>
	<polygon style="fill:#FFD07D;" points="210.556,167.688 159.804,141.896 210.556,116.104  "/>
	<polygon style="fill:#FFD07D;" points="409.636,167.688 460.388,141.896 409.636,116.104  "/>
	<polygon style="fill:#FFD07D;" points="209.42,104.24 182.292,54.192 238.716,61.76  "/>
	<polygon style="fill:#FFD07D;" points="410.772,104.24 437.9,54.192 381.476,61.76  "/>
	<polygon style="fill:#FFD07D;" points="319.244,37.328 362.228,0 367.052,56.728  "/>
	<polygon style="fill:#FFD07D;" points="300.948,37.328 257.964,0 253.132,56.728  "/>
	<polygon style="fill:#FFD07D;" points="209.42,181.224 182.292,231.272 238.716,223.704  "/>
	<polygon style="fill:#FFD07D;" points="410.772,181.224 437.9,231.272 381.476,223.704  "/>
	<polygon style="fill:#FFD07D;" points="319.244,248.136 362.228,285.464 367.052,228.736  "/>
	<polygon style="fill:#FFD07D;" points="300.948,248.136 257.964,285.464 253.132,228.736  "/>
	<path style="fill:#FFD07D;" d="M309.212,56.728c-47.504,0-86.008,38.504-86.008,86.008s38.504,86.008,86.008,86.008   s86.008-38.504,86.008-86.008S356.716,56.728,309.212,56.728L309.212,56.728z"/>
</g>
<path d="M269.836,511.992c-28.856,0-52.336-23.488-52.336-52.344V295.744h24v163.904c0,15.624,12.712,28.344,28.336,28.344  s28.344-12.72,28.344-28.344l24-0.048C322.18,488.504,298.7,511.992,269.836,511.992z"/>
<path style="fill:#FE585D;" d="M229.5,161.192c-84.664,0-155.896,56.928-177.896,134.544h355.792  C385.396,218.12,314.164,161.192,229.5,161.192L229.5,161.192z"/>
<g>
</g>
<g>
</g>
<g>
</g>
<g>
</g>
<g>
</g>
<g>
</g>
<g>
</g>
<g>
</g>
<g>
</g>
<g>
</g>
<g>
</g>
<g>
</g>
<g>
</g>
<g>
</g>
<g>
</g>
</svg>
