<svg id="Layer_1" enable-background="new 0 0 1600 1600" height="512" viewBox="0 0 1600 1600" width="512" xmlns="http://www.w3.org/2000/svg"><g><path d="m1100.2 1017.2c39.1-57.8 61.9-127.5 61.9-202.5 0-200-162.1-362-362-362s-362 162.1-362 362c0 75 22.8 144.7 61.9 202.5z" fill="#f7e07f"/><g><path d="m1551.8 1033.4h-1503.6c-8.9 0-16.2-7.2-16.2-16.2s7.2-16.2 16.2-16.2h1503.7c8.9 0 16.2 7.2 16.2 16.2s-7.3 16.2-16.3 16.2z" fill="#75c0f2"/></g><g><path d="m1400.3 1153.5h-1200.5c-8.9 0-16.2-7.2-16.2-16.2s7.2-16.2 16.2-16.2h1200.5c8.9 0 16.2 7.2 16.2 16.2s-7.3 16.2-16.2 16.2z" fill="#75c0f2"/></g><g><path d="m1198.2 1273.6h-796.4c-8.9 0-16.2-7.2-16.2-16.2s7.2-16.2 16.2-16.2h796.3c8.9 0 16.2 7.2 16.2 16.2s-7.2 16.2-16.1 16.2z" fill="#75c0f2"/></g><g><path d="m1046.6 1393.7h-493.2c-8.9 0-16.2-7.2-16.2-16.2s7.2-16.2 16.2-16.2h493.1c8.9 0 16.2 7.2 16.2 16.2s-7.2 16.2-16.1 16.2z" fill="#75c0f2"/></g><g><path d="m800 366.7c-8.9 0-16.2-7.2-16.2-16.2v-128c0-8.9 7.2-16.2 16.2-16.2 8.9 0 16.2 7.2 16.2 16.2v128.1c0 8.9-7.3 16.1-16.2 16.1z" fill="#f7e07f"/></g><g><path d="m567.9 428.9c-5.6 0-11-2.9-14-8.1l-64-110.9c-4.5-7.7-1.8-17.6 5.9-22.1s17.6-1.8 22.1 5.9l64 110.9c4.5 7.7 1.8 17.6-5.9 22.1-2.6 1.5-5.3 2.2-8.1 2.2z" fill="#f7e07f"/></g><g><path d="m398 598.8c-2.7 0-5.5-.7-8.1-2.2l-110.9-64c-7.7-4.5-10.4-14.3-5.9-22.1 4.5-7.7 14.4-10.4 22.1-5.9l110.9 64c7.7 4.5 10.4 14.3 5.9 22.1-3 5.2-8.5 8.1-14 8.1z" fill="#f7e07f"/></g><g><path d="m335.8 830.9h-128.1c-8.9 0-16.2-7.2-16.2-16.2s7.2-16.2 16.2-16.2h128.1c8.9 0 16.2 7.2 16.2 16.2s-7.3 16.2-16.2 16.2z" fill="#f7e07f"/></g><g><path d="m1392.3 830.9h-128.1c-8.9 0-16.2-7.2-16.2-16.2s7.2-16.2 16.2-16.2h128.1c8.9 0 16.2 7.2 16.2 16.2s-7.3 16.2-16.2 16.2z" fill="#f7e07f"/></g><g><path d="m1202 598.8c-5.6 0-11-2.9-14-8.1-4.5-7.7-1.8-17.6 5.9-22.1l110.9-64c7.7-4.5 17.6-1.8 22.1 5.9s1.8 17.6-5.9 22.1l-110.9 64c-2.5 1.5-5.3 2.2-8.1 2.2z" fill="#f7e07f"/></g><g><path d="m1032.1 428.9c-2.7 0-5.5-.7-8.1-2.2-7.7-4.5-10.4-14.3-5.9-22.1l64-110.9c4.5-7.7 14.3-10.4 22.1-5.9 7.7 4.5 10.4 14.4 5.9 22.1l-64 110.9c-3 5.2-8.4 8.1-14 8.1z" fill="#f7e07f"/></g></g></svg>