<svg id="Capa_1" enable-background="new 0 0 512 512" height="512" viewBox="0 0 512 512" width="512" xmlns="http://www.w3.org/2000/svg"><g><g><g><path d="m0 93.644h48.604v30h-48.604z" fill="#ff7037"/></g><g><path d="m32.966 20.673h30v54.585h-30z" fill="#ff7037" transform="matrix(.707 -.707 .707 .707 -19.868 47.965)"/></g><g><path d="m93.645 0h30v48.605h-30z" fill="#ff7037"/></g></g><g><g><path d="m463.396 93.644h48.604v30h-48.604z" fill="#ff4c04"/></g><g><g><path d="m436.742 32.966h54.585v30h-54.585z" fill="#ff4c04" transform="matrix(.707 -.707 .707 .707 101.996 342.171)"/></g></g><g><path d="m388.355 0h30v48.605h-30z" fill="#ff4c04"/></g></g><g><path d="m181.49 89.934 13.617 186.701-19.22 235.365h-37.257v-40.186l-60.397-70.804v-137.79c0-10.154 8.262-18.416 18.416-18.416 10.155 0 18.417 8.262 18.417 18.416l29.592 80.428v-253.714c0-10.154 8.262-18.416 18.416-18.416s18.416 8.262 18.416 18.416z" fill="#e3a76f"/><path d="m115.082 225.117c0-10.154 8.262-18.416 18.416-18.416 10.155 0 18.417 8.262 18.417 18.416v80.428h30v-253.713c0-10.154 8.262-18.416 18.416-18.416s18.416 8.262 18.416 18.416v186.701h30v-220.117c0-10.154 8.262-18.416 18.416-18.416 10.155 0 18.416 8.262 18.416 18.416v220.117h30v-186.701c0-10.154 8.262-18.416 18.417-18.416s18.416 8.262 18.416 18.416v186.701h30v-119.868c0-10.155 8.261-18.417 18.416-18.417s18.416 8.262 18.416 18.417v287.135l-34.709 50.811v55.389h-208.648v-78.288l-60.805-70.805z" fill="#f2bb88"/></g></g></svg>