<?xml version="1.0" encoding="iso-8859-1"?>
<!-- Generator: Adobe Illustrator 19.0.0, SVG Export Plug-In . SVG Version: 6.00 Build 0)  -->
<svg version="1.1" id="Capa_1" xmlns="http://www.w3.org/2000/svg" xmlns:xlink="http://www.w3.org/1999/xlink" x="0px" y="0px"
	 viewBox="0 0 448 448" style="enable-background:new 0 0 448 448;" xml:space="preserve">
<path style="fill:#B6C1CC;" d="M287.232,183.584c0.304-2.512,0.768-4.992,0.768-7.584c0-1.872-0.4-3.632-0.544-5.456
	C332.144,115.328,315.408,51.6,272.992,0l-48,107.952L176.992,0c-42.048,51.168-58.016,113.408-16.304,169.04
	c-0.24,2.32-0.688,4.576-0.688,6.96c0,2.592,0.464,5.072,0.768,7.584C111.808,220.064,80,278.24,80,344
	c0,31.12,7.36,60.432,20.016,86.704c5.36,10.208,15.952,17.296,28.24,17.296c17.6,0,32-14.4,32-32
	c0-5.568-1.568-10.736-4.096-15.296c-7.904-17.28-12.352-36.464-12.352-56.704c0-44.8,21.824-84.224,55.184-109.088
	C206.672,238.192,215.12,240,224,240s17.328-1.808,25.008-5.088C282.352,259.776,304.192,299.2,304.192,344
	c0,20.24-4.448,39.424-12.352,56.704c-2.528,4.576-4.096,9.744-4.096,15.296c0,17.6,14.4,32,32,32
	c12.272,0,22.864-7.088,28.24-17.296C360.64,404.432,368,375.12,368,344C368,278.24,336.192,220.064,287.232,183.584z M224,200
	c-13.248,0-24-10.752-24-24s10.752-24,24-24c13.248,0,24,10.752,24,24S237.248,200,224,200z"/>
<path style="fill:#DDE4EA;" d="M283.792,14.528C280.384,9.744,276.768,4.944,272.704,0l-49.888,112.192
	c0.656-0.016,1.248-0.192,1.888-0.192c5.152,0,10.064,0.8,14.848,1.952L283.792,14.528z"/>
<path style="fill:#92A2B3;" d="M246.144,99.504L239.728,114c26.16,6.368,45.936,28.752,48.416,56.304
	c4.544-5.92,8.704-12.096,12.368-18.656C292.32,126.256,271.872,106.704,246.144,99.504z"/>
<path style="fill:#ABB8C4;" d="M239.552,113.952L246,99.456c-5.216-1.456-10.56-2.576-16.144-2.944l-6.96,15.664
	c0.624-0.016,1.2-0.176,1.808-0.176c3.232,0,6.352,0.384,9.424,0.896C235.984,113.184,237.776,113.52,239.552,113.952z"/>
<path style="fill:#DDE4EA;" d="M165.632,14.528C169.04,9.744,172.656,4.944,176.704,0l49.888,112.192
	c-0.64-0.016-1.232-0.192-1.888-0.192c-5.152,0-10.064,0.8-14.848,1.952L165.632,14.528z"/>
<path style="fill:#D84234;" d="M143.808,344c0-32.752,11.76-62.608,31.008-86.096l-49.424-40.56C97.104,251.856,80,295.872,80,344
	c0,31.12,7.36,60.432,20.016,86.704c5.36,10.208,15.952,17.296,28.24,17.296c17.6,0,32-14.4,32-32
	c0-5.568-1.568-10.736-4.096-15.296C148.256,383.424,143.808,364.24,143.808,344z"/>
<g>
	<path style="fill:#AE362B;" d="M112.624,343.68c0,37.184,12.256,71.424,32.736,99.232c8.912-5.696,14.88-15.616,14.88-26.928
		c0-5.568-1.568-10.736-4.096-15.296c-7.904-17.28-12.352-36.464-12.352-56.704c0-32.752,11.76-62.608,31.008-86.096l-24.496-20.096
		C126.784,266.688,112.624,303.52,112.624,343.68z"/>
	<path style="fill:#AE362B;" d="M273.344,258.128c19.136,23.456,30.832,53.232,30.832,85.872c0,20.24-4.448,39.424-12.352,56.704
		c-2.528,4.576-4.096,9.744-4.096,15.296c0,17.6,14.4,32,32,32c12.272,0,22.864-7.088,28.24-17.296
		C360.64,404.432,368,375.12,368,344c0-47.744-16.832-91.44-44.72-125.824L273.344,258.128z"/>
</g>
<path style="fill:#D84234;" d="M291.84,400.704c-2.528,4.576-4.096,9.744-4.096,15.296c0,11.488,6.176,21.52,15.328,27.168
	C323.68,415.312,336,380.976,336,343.68c0-40.064-14.096-76.816-37.536-105.664l-25.12,20.096
	c19.136,23.456,30.832,53.232,30.832,85.872C304.192,364.24,299.744,383.424,291.84,400.704z"/>
<path style="fill:#ABB8C4;" d="M298.256,238.192l24.896-19.92c-10.528-12.96-22.496-24.704-35.904-34.704
	c-1.376,11.552-5.712,22.096-12.416,30.928C283.424,221.584,291.216,229.584,298.256,238.192z"/>
<path style="fill:#92A2B3;" d="M198.992,234.912c-20.672-8.784-35.456-28.208-38.224-51.328c-4.912,3.664-9.632,7.52-14.176,11.6
	c5.456,21.968,19.968,40.16,39.376,50.752C190.08,242,194.416,238.336,198.992,234.912z"/>
<g>
</g>
<g>
</g>
<g>
</g>
<g>
</g>
<g>
</g>
<g>
</g>
<g>
</g>
<g>
</g>
<g>
</g>
<g>
</g>
<g>
</g>
<g>
</g>
<g>
</g>
<g>
</g>
<g>
</g>
</svg>
