<?xml version="1.0" encoding="iso-8859-1"?>
<!-- Generator: Adobe Illustrator 19.0.0, SVG Export Plug-In . SVG Version: 6.00 Build 0)  -->
<svg version="1.1" id="Layer_1" xmlns="http://www.w3.org/2000/svg" xmlns:xlink="http://www.w3.org/1999/xlink" x="0px" y="0px"
	 viewBox="0 0 512 512" style="enable-background:new 0 0 512 512;" xml:space="preserve">
<path style="fill:#F09EA0;" d="M296.95,168.184h164.315v315.599c0,15.584-12.633,28.217-28.217,28.217H78.952
	c-15.584,0-28.217-12.633-28.217-28.217V168.184h163.643"/>
<path style="fill:#88E2E2;" d="M214.376,168.184H43.946c-4.051,0-7.335-3.284-7.335-7.335v-56.354c0-4.051,3.284-7.335,7.335-7.335
	h424.108c4.051,0,7.335,3.284,7.335,7.335v56.355c0,4.051-3.284,7.335-7.335,7.335H296.951"/>
<path style="fill:#67D1D3;" d="M425.262,97.161v71.024h42.792c4.051,0,7.335-3.284,7.335-7.335v-56.355
	c0-4.051-3.284-7.335-7.335-7.335h-42.792V97.161z"/>
<g>
	<path style="fill:#F9DE8F;" d="M256,97.161h-62.019c-34.34,0-62.177-27.837-62.177-62.177V11.37c0-6.28,5.09-11.37,11.37-11.37
		h50.649C228.163,0,256,27.837,256,62.177L256,97.161L256,97.161z"/>
	<path style="fill:#F9DE8F;" d="M318.019,97.161H256V62.177C256,27.837,283.837,0,318.176,0h50.649c6.28,0,11.37,5.09,11.37,11.37
		v23.613C380.196,69.324,352.359,97.161,318.019,97.161z"/>
	<rect x="215.053" y="97.155" style="fill:#F9DE8F;" width="81.902" height="414.841"/>
</g>
<rect x="50.734" y="168.181" style="fill:#EF8990;" width="410.531" height="25.159"/>
<rect x="215.053" y="168.181" style="fill:#F7CF6D;" width="81.902" height="25.159"/>
<g>
</g>
<g>
</g>
<g>
</g>
<g>
</g>
<g>
</g>
<g>
</g>
<g>
</g>
<g>
</g>
<g>
</g>
<g>
</g>
<g>
</g>
<g>
</g>
<g>
</g>
<g>
</g>
<g>
</g>
</svg>
