<svg id="color" enable-background="new 0 0 24 24" height="512" viewBox="0 0 24 24" width="512" xmlns="http://www.w3.org/2000/svg"><path d="m15 6.5c-.552 0-1-.448-1-1v-1.5h-4v1.5c0 .552-.448 1-1 1s-1-.448-1-1v-1.5c0-1.103.897-2 2-2h4c1.103 0 2 .897 2 2v1.5c0 .552-.448 1-1 1z" fill="#455a64"/><path d="m12.24 13.96c-.08.03-.16.04-.24.04s-.16-.01-.24-.04l-11.76-3.92v9.21c0 1.52 1.23 2.75 2.75 2.75h18.5c1.52 0 2.75-1.23 2.75-2.75v-9.21z" fill="#607d8b"/><path d="m24 7.75v2.29l-11.76 3.92c-.08.03-.16.04-.24.04s-.16-.01-.24-.04l-11.76-3.92v-2.29c0-1.52 1.23-2.75 2.75-2.75h18.5c1.52 0 2.75 1.23 2.75 2.75z" fill="#78909c"/></svg>