<svg enable-background="new 0 0 64 64" height="512" viewBox="0 0 64 64" width="512" xmlns="http://www.w3.org/2000/svg"><g id="_x34_-Banana"><g><path d="m43.4215927 20.8834629c-.3800049.9899902-.9199829 1.9000244-1.4299927 2.6799927-4.0599976 6.3099976-8.710022 10.4999981-14.210022 12.8099957-1.8399658.7700195-3.7999878 1.3200073-5.7799683 1.7700195-1.0200195.2399902-2.0499878.460022-3.0700073.6699829-1.0999756.2400513-2.210022.4700317-3.2999868.7300415-.1799927.039978-.4000244.0799561-.6500244.1399536-.7600098.1500244-1.75.3600464-2.7000122.6900024-2.2799683-1.3499756-3.9299927-2.9899902-4.9199834-4.8999634-1.6199951-3.0900268-1.8099975-5.7200298-.5800171-7.2600078.1800537-.2199707.3900146-.4099731.6199951-.5900269.4700317-.3399658 1.02002-.5199585 1.6200566-.5199585.9099731 0 1.7799683.3999634 2.4699707.7199707l.3200073.1500244c3.6300049 1.6099854 8.1500235 2.3099976 12.7700186 1.9899902 6.0199585-.4199829 11.8099976-2.7700195 16.2999878-6.6199951l.3499756-.3099976c.2200317-.2000122.4500122-.3800049.6699829-.5700073.6000366-.4899902 1.1200562-.9199829 1.4700317-1.5200195.0200197-.0199584.0399781-.0299682.0499879-.0599975z" fill="#fcc835"/><path d="m43.4215927 20.8834629c-.3800049.9899902-.9199829 1.9000244-1.4299927 2.6799927-4.0599976 6.3099976-8.710022 10.4999981-14.210022 12.8099957-1.8399658.7700195-3.7999878 1.3200073-5.7799683 1.7700195-4.2000122-.5899658-8.0100088-2.2600098-11.0599966-4.8300171-1.0100098-.8499756-1.9400024-1.8199444-2.7700195-2.8599834-.3800054-.4799805-.7099614-.9799805-1.0299687-1.5499878-.1300049-.2299805-.25-.460022-.3600464-.6900024.1800537-.2199707.3900146-.4099731.6199951-.5900269.4700317-.3399658 1.02002-.5199585 1.6200566-.5199585.9099731 0 1.7799683.3999634 2.4699707.7199707l.3200073.1500244c3.6300049 1.6099854 8.1500235 2.3099976 12.7700186 1.9899902 6.0199585-.4199829 11.8099976-2.7700195 16.2999878-6.6199951l.3499756-.3099976c.2200317-.2000122.4500122-.3800049.6699829-.5700073.6000366-.4899902 1.1200562-.9199829 1.4700317-1.5200195.0200197-.0199585.0399781-.0299683.0499879-.0599976z" fill="#ffa912"/><path d="m58.0009384 17.1176548c-.2558594-2.4291992-2.328125-4.3168945-4.8203125-4.3901367-3.3740234-.1000977-8.0791016-.2631836-11.3271484-.4711914-1.4111328-.0864258-2.6484375.8442383-2.9716797 2.2055664-.34375 1.4570313.5097656 2.9521484 1.9423828 3.4038086 1.0478516.3300781 2.1347656.6157227 3.2421875.8520508-.0732422.2695313-.1542969.5795898-.2480469.9365234-.0722656.2749023-.1279297.4873047-.1464844.5488281-.3730469 1.2421875-1.0566406 2.3930664-1.6767578 3.3549805-4.0712891 6.3208008-8.7197266 10.510252-14.2109375 12.8085918-2.8037109 1.1762695-5.8867188 1.824707-8.8691406 2.4516602-1.0996094.2314453-2.1982422.4624023-3.2841787.7182617-.1826172.0429688-.4052734.0883789-.6552734.1396484-2.0410156.418457-5.8408203 1.1982422-5.7568359 4.043457.09375 2.7617188 1.9804688 5.1582031 5.0478516 6.4116211 2.600585 1.059082 5.5791006 1.6191406 8.6142569 1.6186523 2.5869141 0 5.1386719-.3862305 7.5849609-1.1489258 6.1708984-1.9233398 11.6875-6.0581055 15.5322266-11.6425781 1.6796875-2.4384766 2.8955078-4.9291992 3.6142578-7.4033184.8203125-2.8217773 1.3603516-5.769043-.2207031-8.2080078-.0771484-.1196289-.1914063-.2607422-.3183594-.4121094-.0751953-.090332-.2021484-.2421875-.2705078-.3466797.1757813-.4707031.4882813-1.3769531 1.1132813-3.1967773.8271484.0927734 2.1630859.2143555 3.4765625.2143555 2.1298828 0 3.4345703-.3164063 4.1074219-.9960938.3427734-.347168.5214844-.7817383.5166016-1.2460938-.0000003-.0629881-.0039065-.1489256-.0156253-.2460936z" fill="#ffcf3a"/><path d="m58.0058212 17.1171665c-.2597656-2.4287109-2.3339844-4.3173828-4.8261719-4.3930664-1.6679688-.0473633-7.4130859-.2211914-11.3222656-.46875-1.4208984-.0844727-2.6572266.8432617-2.9804688 2.2148438-.3378906 1.4750977.4970703 2.9350586 1.9482422 3.3984375 1.0644531.3305664 2.1513672.6157227 3.2441406.8515625-.0712891.262207-.1503906.5634766-.2421875.9091797-.0761719.2919922-.1357422.5185547-.1533203.5766602-.375 1.2495117-1.0605469 2.3964844-1.6826172 3.3564453-4.0625 6.3154297-8.7089844 10.5048809-14.2050781 12.8085918-2.7988281 1.1708984-5.8769531 1.8193359-8.8535156 2.4462891-1.1054688.2329102-2.2089844.465332-3.3007803.7226563-.1826172.043457-.4042969.0883789-.6533203.1396484-2.0419922.418457-5.84375 1.1972656-5.7568359 4.034668.0126953.40625.2695313.7641602.6503906.90625 2.1933594.8178711 4.7060547 1.3310547 7.6806631 1.5698242.8183594.0644531 1.6445313.097168 2.4580078.097168 5.0488281 0 9.8505859-1.2490234 13.8857422-3.6108398 6.5351563-3.8232422 12.0556641-11.1611309 14.7880859-19.6904278l1.2285156-3.590332c.8251953.0913086 2.1542969.2114258 3.4638672.2114258 2.1396484 0 3.4492188-.3178711 4.1210938-.9995117.3427734-.3481445.5205078-.7832031.5136719-1.2446289v-.1396484c0-.0356448-.0019531-.0712893-.0058594-.1064456z" fill="#ffb50e"/><g fill="#283157"><path d="m8.6216059 28.8134556c-.0700073.2800293-.5200195.9400024-.7200322 1.1600342-.0099487.0100098-.039978.0299683-.0599976.039978-.3399658.1500244-1.5599976.1000366-1.8199463.0900269.0999756-.7300415.3499756-1.3699951.7599487-1.8900146.1800537-.2199707.3900146-.4099731.6199951-.5900269.3400269-.25.730042-.4099731 1.1500249-.4799805.1300049.2700195.25.9299926.0700074 1.6699829z"/><path d="m11.3216181 45.093483c0 .0100098 0 .0100098-.0100098.0100098-.0999756-.0300293-1.2700195.539978-1.7200317.5100098-.0099487 0-.0099487 0-.0099487 0-.210022-.6000366-.3400269-1.2400513-.3600464-1.8900146v-.0100098c-.0199585-.7000122.1900024-1.2700195.5599976-1.7399902 0 0 1.1100464 1.0100098 1.2700195 1.4599609.1600341.4300536.3400268 1.5300292.2700195 1.6600341z"/></g></g></g></svg>