<?xml version="1.0" encoding="iso-8859-1"?>
<!-- Generator: Adobe Illustrator 19.0.0, SVG Export Plug-In . SVG Version: 6.00 Build 0)  -->
<svg version="1.1" id="Capa_1" xmlns="http://www.w3.org/2000/svg" xmlns:xlink="http://www.w3.org/1999/xlink" x="0px" y="0px"
	 viewBox="0 0 490.667 490.667" style="enable-background:new 0 0 490.667 490.667;" xml:space="preserve">
<path style="fill:#F6B445;" d="M490.667,32v298.667c-0.02,11.314-4.505,22.162-12.48,30.187L405.334,288L288,170.667l-2.987-4.587
	L490.667,32z"/>
<path style="fill:#F6A945;" d="M405.334,288l72.853,72.853c-8.025,7.975-18.873,12.46-30.187,12.48H42.667
	c-11.314-0.02-22.162-4.505-30.187-12.48L85.334,288l117.333-117.333l2.667-4.16l40,25.493l39.68-25.92l2.987,4.587L405.334,288z"/>
<path style="fill:#F6B445;" d="M205.334,166.507l-2.667,4.16L85.334,288L12.48,360.853C4.505,352.829,0.02,341.98,0,330.667V53.333
	c-0.013-4.304,0.634-8.585,1.92-12.693l8.747,2.027L205.334,166.507z"/>
<path style="fill:#FED049;" d="M490.667,32L285.014,166.08L245.334,192l-40-25.493L10.667,42.667L1.92,40.64
	c5.557-17.833,22.068-29.979,40.747-29.973h394.667C480,10.667,490.667,32,490.667,32L490.667,32z"/>
<circle style="fill:#F1F2F2;" cx="362.667" cy="352" r="128"/>
<path style="fill:#D0D7DF;" d="M412.875,323.125l-42.667-42.667c-0.993-0.995-2.176-1.782-3.477-2.315
	c-2.609-1.079-5.54-1.079-8.149,0c-1.302,0.532-2.484,1.319-3.477,2.315l-42.667,42.667c-4.093,4.237-3.975,10.99,0.262,15.083
	c4.134,3.993,10.687,3.993,14.821,0L352,313.749V416c0,5.891,4.776,10.667,10.667,10.667s10.667-4.776,10.667-10.667V313.749
	l24.459,24.459c4.237,4.093,10.99,3.975,15.083-0.262C416.867,333.813,416.867,327.259,412.875,323.125L412.875,323.125z"/>
<g>
</g>
<g>
</g>
<g>
</g>
<g>
</g>
<g>
</g>
<g>
</g>
<g>
</g>
<g>
</g>
<g>
</g>
<g>
</g>
<g>
</g>
<g>
</g>
<g>
</g>
<g>
</g>
<g>
</g>
</svg>
