<svg height="511pt" viewBox="1 -43 511.999 511" width="511pt" xmlns="http://www.w3.org/2000/svg"><path d="m396.019531 357.164062h-111.6875v-30h111.6875c47.410157 0 85.980469-38.570312 85.980469-85.980468 0-22.28125-18.128906-40.410156-40.414062-40.410156h-72.871094l20.015625-30h52.855469c38.824218 0 70.414062 31.585937 70.414062 70.410156 0 63.949218-52.027344 115.980468-115.980469 115.980468zm0 0" fill="#cdbfba"/><path d="m194.367188 170.757812-20.015626 104.265626 20.015626 151.1875c107.34375 0 194.363281-87.019532 194.363281-194.363282v-61.089844h-100.714844l-15 10.007813-15-10.007813zm0 0" fill="#efe2dd"/><path d="m0 170.757812v61.089844c0 107.34375 87.019531 194.363282 194.367188 194.363282v-255.453126zm0 0" fill="#fff5f5"/><g fill="#efe2dd"><path d="m119.0625 124.320312h-30c0-13.855468 3.894531-21.648437 6.738281-27.335937 2.226563-4.460937 3.570313-7.152344 3.570313-13.933594 0-6.777343-1.34375-9.472656-3.570313-13.933593-2.84375-5.691407-6.738281-13.484376-6.738281-27.339844 0-13.859375 3.894531-21.652344 6.738281-27.34375 2.226563-4.460938 3.570313-7.152344 3.570313-13.933594h30c0 13.855469-3.890625 21.652344-6.734375 27.339844-2.230469 4.460937-3.574219 7.15625-3.574219 13.9375 0 6.777344 1.347656 9.472656 3.574219 13.933594 2.84375 5.691406 6.734375 13.484374 6.734375 27.339843s-3.890625 21.648438-6.734375 27.339844c-2.230469 4.460937-3.574219 7.152344-3.574219 13.929687zm0 0"/><path d="m204.210938 124.320312h-30c0-13.855468 3.894531-21.648437 6.738281-27.335937 2.226562-4.460937 3.570312-7.152344 3.570312-13.933594 0-6.777343-1.34375-9.472656-3.574219-13.933593-2.839843-5.691407-6.734374-13.484376-6.734374-27.339844 0-13.859375 3.894531-21.652344 6.734374-27.34375 2.230469-4.460938 3.574219-7.152344 3.574219-13.933594h30c0 13.855469-3.890625 21.652344-6.734375 27.339844-2.230468 4.460937-3.574218 7.15625-3.574218 13.9375 0 6.777344 1.347656 9.472656 3.574218 13.933594 2.84375 5.691406 6.734375 13.484374 6.734375 27.339843s-3.890625 21.648438-6.734375 27.339844c-2.230468 4.460937-3.574218 7.152344-3.574218 13.929687zm0 0"/><path d="m289.359375 124.320312h-30c0-13.855468 3.894531-21.648437 6.738281-27.335937 2.226563-4.460937 3.570313-7.152344 3.570313-13.933594 0-6.777343-1.34375-9.472656-3.574219-13.933593-2.839844-5.691407-6.734375-13.484376-6.734375-27.339844 0-13.859375 3.894531-21.652344 6.734375-27.34375 2.230469-4.460938 3.574219-7.152344 3.574219-13.933594h30c0 13.855469-3.894531 21.652344-6.734375 27.339844-2.230469 4.460937-3.574219 7.15625-3.574219 13.9375 0 6.777344 1.34375 9.472656 3.574219 13.933594 2.84375 5.691406 6.734375 13.484374 6.734375 27.339843s-3.894531 21.648438-6.734375 27.339844c-2.230469 4.460937-3.574219 7.152344-3.574219 13.929687zm0 0"/></g><path d="m288.015625 223.691406v-52.933594h-30v52.933594h-23.546875v91.292969h77.09375v-91.292969zm0 0" fill="#00cc76"/></svg>