<svg height="512" viewBox="0 0 58 58" width="512" xmlns="http://www.w3.org/2000/svg"><g id="Page-1" fill="none" fill-rule="evenodd"><g id="004---Buy-High-Heels" fill-rule="nonzero" transform="translate(-1)"><path id="Shape" d="m12.51 28.88c-.9554538.753172-1.5121267 1.9033836-1.51 3.12v21h-4v-3c.09667316-8.0918671-1.16067078-16.1429242-3.72-23.82 1.666.259 3.237-.61 4.72-.18 1.605.466 3.106 2.246 4.51 2.88z" fill="#802f34"/><path id="Shape" d="m59 51c0 1.8565154-.7374979 3.6369928-2.0502525 4.9497475-1.3127547 1.3127546-3.0932321 2.0502525-4.9497475 2.0502525h-15.02c-1.7399538.006984-3.3001672-1.0704013-3.91-2.7-.34-.92-.81-2.43-1.5-4.3l13.43-2z" fill="#3f5c6c"/><path id="Shape" d="m11 51v6c0 .5522847-.4477153 1-1 1h-2c-.55228475 0-1-.4477153-1-1v-6z" fill="#3f5c6c"/><path id="Shape" d="m59.0000003 51h-27.4300003c-2.36-6.37-7.34-16.86-19.06-22.12-2.94029952-1.3135598-6.04532143-2.2218544-9.23-2.7-.36624573-1.0833312-.7935977-2.1450337-1.28-3.18-.68374094-1.577017-1.02460049-3.2813147-1-5 0-5.85 5.7-9.29 8-10l29.64 33.38c.8672709.9269808 2.0805719 1.4521409 3.35 1.45.7954635-.0030615 1.5769135-.2096121 2.27-.6.690351-.4036874 1.2680741-.9745329 1.68-1.66.43-.72.85-1.42 1.06-1.74l1.97.33c5.7885847.9633628 10.0313734 5.9717994 10.0300003 11.84z" fill="#e64c3c"/><path id="Shape" d="m50 0h-19.6c-.7025438.001204-1.3823833.2489331-1.921.7l-8.4 7c-.6842187.56997933-1.0798503 1.41447675-1.0798503 2.305 0 .8905233.3956316 1.7350207 1.0798503 2.305l8.4 7c.5400004.4474634 1.2197002.6916034 1.921.69h19.6c2.209139 0 4-1.790861 4-4v-12c0-2.209139-1.790861-4-4-4zm-24 12c-1.1045695 0-2-.8954305-2-2s.8954305-2 2-2 2 .8954305 2 2-.8954305 2-2 2z" fill="#f3d55b"/><g fill="#e57e25"><path id="Shape" d="m36 7c-.5522847 0-1-.44771525-1-1v-2c0-.55228475.4477153-1 1-1s1 .44771525 1 1v2c0 .55228475-.4477153 1-1 1z"/><path id="Shape" d="m36 17c-.5522847 0-1-.4477153-1-1v-2c0-.5522847.4477153-1 1-1s1 .4477153 1 1v2c0 .5522847-.4477153 1-1 1z"/><path id="Shape" d="m36 11c-1.4556384-.0009336-2.7005654-1.0466857-2.9527216-2.48031794-.2521561-1.43363224.5612283-2.84141291 1.9291876-3.33897844 1.3679593-.49756554 2.8957143.05867643 3.623534 1.31929638.2561528.47599334.0876904 1.06938359-.3803603 1.33977682-.4680507.27039322-1.0662521.11990529-1.3506397-.33977682-.2424614-.41995043-.7512754-.60542711-1.2071135-.44002598-.455838.16540114-.7273175.63400785-.6440595 1.11172531s.4972567.82685699.982173.82830067c.5522847 0 1 .44771525 1 1 0 .5522847-.4477153 1-1 1z"/><path id="Shape" d="m36 15c-1.071823-.0017784-2.0619541-.5730079-2.6-1.5-.1917488-.3099415-.19969-.6996593-.0207263-1.0171547s.5164881-.5124835.880931-.5089145c.3644428.003569.6980838.2051298.8707953.5260692.2424614.4199504.7512754.6054271 1.2071135.440026.455838-.1654012.7273175-.6340079.6440595-1.1117253-.083258-.4777175-.4972567-.826857-.982173-.8283007-.5522847 0-1-.4477153-1-1 0-.55228475.4477153-1 1-1 1.6568542.00000005 2.9999999 1.3431458 2.9999999 3s-1.3431457 3-2.9999999 3z"/><path id="Shape" d="m44 7c-.5522847 0-1-.44771525-1-1v-2c0-.55228475.4477153-1 1-1s1 .44771525 1 1v2c0 .55228475-.4477153 1-1 1z"/><path id="Shape" d="m44 17c-.5522847 0-1-.4477153-1-1v-2c0-.5522847.4477153-1 1-1s1 .4477153 1 1v2c0 .5522847-.4477153 1-1 1z"/><path id="Shape" d="m44 11c-1.4556384-.0009336-2.7005654-1.0466857-2.9527216-2.48031794-.2521561-1.43363224.5612283-2.84141291 1.9291876-3.33897844 1.3679593-.49756554 2.8957143.05867643 3.623534 1.31929638.2561528.47599334.0876904 1.06938359-.3803603 1.33977682-.4680507.27039322-1.0662521.11990529-1.3506397-.33977682-.2424614-.41995043-.7512754-.60542711-1.2071135-.44002598-.455838.16540114-.7273175.63400785-.6440595 1.11172531s.4972567.82685699.982173.82830067c.5522847 0 1 .44771525 1 1 0 .5522847-.4477153 1-1 1z"/><path id="Shape" d="m44 15c-1.071823-.0017784-2.0619541-.5730079-2.6-1.5-.1917488-.3099415-.19969-.6996593-.0207263-1.0171547s.5164881-.5124835.880931-.5089145c.3644428.003569.6980838.2051298.8707953.5260692.2424614.4199504.7512754.6054271 1.2071135.440026.455838-.1654012.7273175-.6340079.6440595-1.1117253-.083258-.4777175-.4972567-.826857-.982173-.8283007-.5522847 0-1-.4477153-1-1 0-.55228475.4477153-1 1-1 1.6568542.00000005 2.9999999 1.3431458 2.9999999 3s-1.3431457 3-2.9999999 3z"/></g></g></g></svg>