<svg id="icon" height="512" viewBox="0 0 128 128" width="512" xmlns="http://www.w3.org/2000/svg"><path d="m101.456 32.8-.482 15.416a70.142 70.142 0 0 1 -16.785 43.849c-5.407 6.216-12.139 11.646-20.183 13.935-8.044-2.289-14.776-7.719-20.184-13.935a70.078 70.078 0 0 1 -16.784-43.845l-.494-15.427c16.549-.693 37.462-10.793 37.462-10.793s20.913 10.1 37.45 10.8z" fill="#575b6d"/><path d="m64.006 98.922c-5.191-1.922-10.263-5.709-15.106-11.275a63.47 63.47 0 0 1 -15.134-39.638l-.293-9.158c12.3-1.878 24.948-7 30.533-9.452 5.584 2.457 18.228 7.576 30.526 9.46l-.287 9.15a63.522 63.522 0 0 1 -15.14 39.644c-4.837 5.561-9.905 9.347-15.099 11.269z" fill="#eeefee"/><circle cx="64" cy="58.75" fill="#ef5261" r="16.275"/><g fill="#eeefee"><rect height="23.455" rx="2.393" transform="matrix(.707 -.707 .707 .707 -22.797 62.462)" width="4.787" x="61.607" y="47.022"/><rect height="23.455" rx="2.393" transform="matrix(.707 .707 -.707 .707 60.288 -28.047)" width="4.787" x="61.607" y="47.022"/></g></svg>