<svg id="Layer_1" enable-background="new 0 0 512 512" height="512" viewBox="0 0 512 512" width="512" xmlns="http://www.w3.org/2000/svg"><g clip-rule="evenodd" fill-rule="evenodd"><g><path d="m266 281.979v170.368h184.75v20h-389.5v-20h184.75v-170.368z" fill="#515151"/><path d="m421.097 422.695h59.305c5.508 0 10 4.492 10 10v59.305c0 5.508-4.492 10-10 10h-59.305c-5.508 0-10-4.492-10-10v-59.305c.001-5.507 4.493-10 10-10zm-389.499 0h59.305c5.508 0 10 4.492 10 10v59.305c0 5.508-4.492 10-10 10h-59.305c-5.508 0-10-4.492-10-10v-59.305c0-5.507 4.492-10 10-10zm194.75 0h59.305c5.508 0 10 4.492 10 10v59.305c0 5.508-4.492 10-10 10h-59.305c-5.508 0-10-4.492-10-10v-59.305c0-5.507 4.492-10 10-10z" fill="#92d2fe"/></g><g><path d="m106.713 305.979c-53.413 0-96.713-43.3-96.713-96.712 0-45.72 31.728-84.026 74.366-94.112-.241-2.783-.371-5.597-.371-8.442 0-53.413 43.3-96.713 96.712-96.713 36.701 0 68.626 20.443 85.011 50.563 13.078-6.599 27.857-10.321 43.506-10.321 41.357 0 76.645 25.962 90.47 62.476 1.851-.105 3.715-.165 5.593-.165 53.413 0 96.712 43.299 96.712 96.712s-43.3 96.712-96.712 96.712h-298.574z" fill="#e6e6e6"/><path d="m174.707 47.5c36.701 0 68.626 20.443 85.011 50.563 13.078-6.599 27.857-10.321 43.506-10.321 41.358 0 76.645 25.963 90.47 62.476 1.851-.105 3.715-.165 5.593-.165 52.173 0 94.697 41.313 96.643 93.009 3.924-10.521 6.07-21.908 6.07-33.797 0-53.413-43.3-96.712-96.712-96.712-1.878 0-3.742.059-5.593.165-13.825-36.514-49.113-62.476-90.47-62.476-15.649 0-30.427 3.722-43.506 10.321-16.386-30.12-48.311-50.563-85.012-50.563-53.413 0-96.712 43.299-96.712 96.712 0 1.238.025 2.469.072 3.695 13.709-36.741 49.119-62.907 90.64-62.907z" fill="#ccc"/></g></g></svg>