<svg height="512" viewBox="0 0 64 64" width="512" xmlns="http://www.w3.org/2000/svg"><g id="Icon"><path d="m57 14h-4a1 1 0 0 0 -1 1v34a1 1 0 0 1 -1 1h-38a1 1 0 0 1 -1-1v-34a1 1 0 0 0 -1-1h-4a3 3 0 0 0 -3 3v38a3 3 0 0 0 3 3h50a3 3 0 0 0 3-3v-38a3 3 0 0 0 -3-3z" fill="#70b2e2"/><path d="m51 6h-13a6.938 6.938 0 0 0 -5 2.12 6.578 6.578 0 0 0 -1 1.28 6.578 6.578 0 0 0 -1-1.28 6.938 6.938 0 0 0 -5-2.12h-13a3.009 3.009 0 0 0 -3 3v40a3.009 3.009 0 0 0 3 3h38a3.009 3.009 0 0 0 3-3v-40a3.009 3.009 0 0 0 -3-3z" fill="#bdddf4"/><path d="m33 8.12v43.88h-2v-43.88a6.578 6.578 0 0 1 1 1.28 6.578 6.578 0 0 1 1-1.28z" fill="#f5f5f5"/></g></svg>