<svg id="Layer_1" enable-background="new 0 0 66 66" height="512" viewBox="0 0 66 66" width="512" xmlns="http://www.w3.org/2000/svg"><g id="_x38_5"><g><path d="m51.5 61.8c-.4.3-1 .4-1.5.4h-46c-2.5 0-3.9-2.9-2.4-4.9l9.5-11.8 3.7-4.6c2.6-3.3 4.1-7.3 4.1-11.5v-9.2h16.1v9.2c0 4.2 1.4 8.3 4.1 11.5l3.7 4.6 2.9 3.7v4.7c.1 3.7 2.5 6.8 5.8 7.9z" fill="#efefef"/></g><g><path d="m51.5 61.8c-.4.3-.9.4-1.5.4h-46c-2.5 0-3.9-2.9-2.3-4.9l9.5-11.8h31.6l.9 1.1 2.1 2.6v4.7c0 3.7 2.4 6.8 5.7 7.9z" fill="#178bff"/></g><g><path d="m39.6 17c0 .9-.4 1.7-1 2.3s-1.4 1-2.3 1h-18.7c-1.8 0-3.2-1.5-3.2-3.2 0-.9.4-1.7 1-2.3s1.4-.9 2.3-.9h18.7c1.7-.1 3.2 1.3 3.2 3.1z" fill="#fff"/></g><g><path d="m39.6 17c0 .9-.4 1.7-1 2.3s-1.4 1-2.3 1h-18.7c-1.8 0-3.2-1.5-3.2-3.2 0-.9.4-1.7 1-2.3s1.4-.9 2.3-.9h18.7c1.7-.1 3.2 1.3 3.2 3.1z" fill="#dddee0"/></g><g><path d="m23.2 52.7c0 1.8-1.4 3.2-3.2 3.2s-3.2-1.5-3.2-3.2c0-1.8 1.5-3.2 3.2-3.2 1.8 0 3.2 1.4 3.2 3.2z" fill="#efefef"/></g><g><path d="m35.7 55.5c0 1.5-1.2 2.7-2.7 2.7s-2.7-1.2-2.7-2.7 1.2-2.7 2.7-2.7c1.5-.1 2.7 1.1 2.7 2.7z" fill="#efefef"/></g><g><path d="m30.3 35.4c0 1.6-1.3 3-3 3-1.6 0-3-1.3-3-3 0-1.6 1.3-3 3-3s3 1.3 3 3z" fill="#fff"/></g><g><path d="m62.4 24.5v29.4c0 4.6-3.7 8.3-8.3 8.3-4.6 0-8.3-3.7-8.3-8.3v-29.4z" fill="#efefef"/></g><g opacity=".15"><path d="m51.5 61.8c-.4.3-.9.4-1.5.4h-2.1c-2.5-1.9-4.1-4.9-4.1-8.3v-7.3l2.1 2.6v4.7c-.1 3.7 2.3 6.8 5.6 7.9z" fill="#3b3e3f"/></g><g><path d="m45.8 41.1v12.8c0 4.6 3.7 8.3 8.3 8.3s8.3-3.7 8.3-8.3v-12.8z" fill="#f95353"/></g><g><path d="m57.2 50.7c0 1.7-1.4 3.1-3.1 3.1s-3.1-1.4-3.1-3.1 1.4-3.1 3.1-3.1c1.7-.1 3.1 1.3 3.1 3.1z" fill="#efefef"/></g><g><path d="m65 21.6c0 1.6-1.3 2.9-2.9 2.9h-16.1c-1.6 0-2.9-1.3-2.9-2.9 0-1.6 1.3-2.9 2.9-2.9h16.2c1.5.1 2.8 1.3 2.8 2.9z" fill="#fff"/></g><g><path d="m65 21.6c0 1.6-1.3 2.9-2.9 2.9h-16.1c-1.6 0-2.9-1.3-2.9-2.9 0-1.6 1.3-2.9 2.9-2.9h16.2c1.5.1 2.8 1.3 2.8 2.9z" fill="#dddee0"/></g><g><g><path d="m53.7 15.3c-.3 0-.5-.1-.7-.3-.4-.4-.4-1.1 0-1.5.6-.6 1.2-1.2 1.4-1.8.2-.4.1-.9-.2-1.2-.1-.1-.4-.2-.6-.3-.4-.2-.9-.4-1.3-.8-.7-.8-.9-1.9-.3-3.1.4-.8.9-1.6 1.6-2.2.4-.4 1-.4 1.4.1.4.4.3 1.1-.1 1.5-.5.3-.9.8-1.1 1.4-.1.3-.2.7-.1.9.1.1.4.2.7.4.3.1.7.3 1 .5 1.1.8 1.5 2.2 1 3.6-.4 1-1.2 1.8-1.9 2.5-.3.2-.5.3-.8.3z" fill="#48495b"/></g></g><g><g><path d="m47.1 15.3c-.3 0-.5-.1-.7-.3-.4-.4-.4-1.1 0-1.5.6-.6 1.2-1.2 1.4-1.8.2-.4.1-.9-.2-1.2-.1-.1-.4-.2-.6-.3-.5-.2-1-.4-1.4-.8-.7-.8-.9-1.9-.3-3.1.4-.8.9-1.6 1.6-2.2.4-.4 1.1-.3 1.5.1s.3 1.1-.1 1.5c-.5.4-.9.9-1.1 1.4-.1.3-.2.7-.1.9.1.1.4.2.7.4.3.1.7.3 1 .5 1.1.8 1.5 2.2 1 3.6-.4 1-1.2 1.8-1.9 2.5-.3.2-.5.3-.8.3z" fill="#48495b"/></g></g><g><g><path d="m60.3 15.3c-.3 0-.5-.1-.7-.3-.4-.4-.4-1.1 0-1.5.6-.6 1.2-1.2 1.4-1.8.2-.4.1-.9-.2-1.2-.1-.1-.4-.2-.6-.3-.4-.2-.9-.4-1.3-.8-.7-.8-.8-1.9-.3-3.1.4-.8.9-1.6 1.6-2.2.4-.4 1.1-.3 1.5.1s.3 1.1-.1 1.5c-.6.3-1 .8-1.2 1.4-.1.3-.2.7-.1.9.1.1.4.2.7.4.3.1.7.3 1 .5 1.1.8 1.5 2.2 1 3.6-.4 1-1.2 1.8-1.9 2.5-.3.2-.5.3-.8.3z" fill="#48495b"/></g></g></g></svg>