<svg id="Capa_1" enable-background="new 0 0 512 512" height="512" viewBox="0 0 512 512" width="512" xmlns="http://www.w3.org/2000/svg"><g><path d="m256 0 23 188-23 148c-.98 0-1.96-.01-2.94-.03-41.88-.95-79.12-23.48-99.62-60.29-20.78-37.32-20.29-81.53 1.33-118.26l88.3-150.03c2.7-4.58 7.62-7.39 12.93-7.39z" fill="#9de1f7"/><path d="m358.56 275.68c-20.5 36.81-57.74 59.34-99.62 60.29-.98.02-1.96.03-2.94.03v-336c5.31 0 10.23 2.81 12.93 7.39l88.3 150.03c21.62 36.73 22.11 80.94 1.33 118.26z" fill="#7ed7f5"/><path d="m256 393 23 58.5-23 60.5h-.01c-25.58 0-39.04-11.4-49.85-20.55-9.23-7.81-15.89-13.45-30.48-13.45-14.58 0-21.25 5.64-30.47 13.45-10.82 9.15-24.28 20.55-49.86 20.55s-39.04-11.4-49.86-20.55c-9.22-7.81-15.88-13.45-30.47-13.45-8.28 0-15-6.72-15-15v-89c0-8.28 6.72-15 15-15 25.58 0 39.04 11.4 49.86 20.55 9.22 7.81 15.89 13.45 30.47 13.45 14.59 0 21.25-5.64 30.48-13.45 10.81-9.15 24.27-20.55 49.85-20.55s39.04 11.4 49.86 20.55c9.22 7.81 15.89 13.45 30.47 13.45z" fill="#9de1f7"/><path d="m512 374v89c0 8.28-6.72 15-15 15-14.59 0-21.25 5.64-30.48 13.45-10.81 9.15-24.28 20.55-49.86 20.55s-39.04-11.4-49.86-20.55c-9.22-7.81-15.88-13.45-30.47-13.45s-21.25 5.64-30.48 13.45c-10.81 9.15-24.28 20.55-49.85 20.55v-119c14.58 0 21.25-5.64 30.47-13.45 10.82-9.15 24.28-20.55 49.86-20.55s39.04 11.4 49.86 20.55c9.22 7.81 15.89 13.45 30.47 13.45 14.59 0 21.26-5.64 30.48-13.45 10.82-9.15 24.28-20.55 49.86-20.55 8.28 0 15 6.72 15 15z" fill="#7ed7f5"/></g></svg>