<svg height="512" viewBox="0 0 512 512" width="512" xmlns="http://www.w3.org/2000/svg"><g id="Flat"><path d="m120 408h168v40h-168z" fill="#649441"/><path d="m208 368-28.81 28.81-13.53 13.53-11.32 11.32-66.34 66.34-64-64 14.34-14.34 11.32-11.32 8.68-8.68 5.66-5.66v-160h40v120l40-40z" fill="#6a9c46"/><path d="m144 304-15.68 15.68a96.433 96.433 0 0 0 50.87 77.13l28.81-28.81zm-80-45.39a88.345 88.345 0 0 0 40 31.39v-66h-40z" fill="#638f43"/><path d="m452.13 217.1a24.627 24.627 0 0 1 -6.87-30.94 88.021 88.021 0 0 0 -119.42-119.42 24.627 24.627 0 0 1 -30.94-6.87 88.018 88.018 0 0 0 -154.81 25.55l-.03.11a15.834 15.834 0 0 1 -13.65 10.99c-.28.03-.55.06-.79.09a88.014 88.014 0 0 0 -8.13 173.44c.77.16 1.55.32 2.34.46a10.274 10.274 0 0 1 8.4 10.83c-.06.88-.11 1.77-.15 2.66-.07 1.67-.09 3.34-.07 5.03a94.6 94.6 0 0 0 5.58 31.11c13.12 36.6 47.96 63.16 88.78 63.85q4.485.075 8.88-.26c.03 0 .06-.01.09-.01a9.364 9.364 0 0 1 10 7.68c.08.45.17.89.25 1.33a88.016 88.016 0 0 0 173.83-6.53c.05-.49.1-1.08.15-1.74a13.707 13.707 0 0 1 9.72-12.15l.09-.03a88.017 88.017 0 0 0 26.75-155.18z" fill="#57823e"/><path d="m488 288a88.034 88.034 0 0 1 -62.62 84.28l-.09.03a13.707 13.707 0 0 0 -9.72 12.15c-.05.66-.1 1.25-.15 1.74a88.016 88.016 0 0 1 -173.83 6.53c-.08-.44-.17-.88-.25-1.33a9.364 9.364 0 0 0 -10-7.68c-.03 0-.06.01-.09.01q-4.4.33-8.88.26c-40.82-.69-75.66-27.25-88.78-63.85 134.97-40.36 234.51-106.6 283.3-249.2a87.88 87.88 0 0 1 28.37 115.22 24.627 24.627 0 0 0 6.87 30.94 87.878 87.878 0 0 1 35.87 70.9z" fill="#537d3a"/><path d="m68 379.029h16v33.941h-16z" fill="#638f43" transform="matrix(.707 -.707 .707 .707 -257.754 169.726)"/><path d="m74.75 435.325h16v14.849h-16z" fill="#638f43" transform="matrix(.707 -.707 .707 .707 -288.835 188.192)"/><path d="m48.246 398.926h16.009v34.648h-16.009z" fill="#638f43" transform="matrix(.707 -.707 .707 .707 -277.86 161.694)"/><path d="m142.375 392.763h16v27.224h-16z" fill="#638f43" transform="matrix(.707 -.707 .707 .707 -243.307 225.356)"/><path d="m117.625 373.67h16v15.91h-16z" fill="#638f43" transform="matrix(.707 -.707 .707 .707 -233.055 200.606)"/><g fill="#4c7535"><path d="m295.28 123.559s-3.9 6.463-10.568 3.8c-6.81-2.724-4.234-9.871-4.234-9.871.476-1.161.962-2.411 1.476-3.734 2.458-6.323 5.517-14.19 11.059-22.4a74.271 74.271 0 0 1 18.631-19.125 7.861 7.861 0 0 1 11.371 2.538l.127.223a7.918 7.918 0 0 1 -2.315 10.354c-14.815 10.688-20.033 24.109-23.96 34.211-.552 1.413-1.075 2.756-1.587 4.004z"/><path d="m100 144a12 12 0 1 0 12 12 12.013 12.013 0 0 0 -12-12z"/><path d="m100 184a12 12 0 1 0 12 12 12.013 12.013 0 0 0 -12-12z"/><path d="m372 112a12 12 0 1 0 -12-12 12.013 12.013 0 0 0 12 12z"/><path d="m332 176a12 12 0 1 0 -12-12 12.013 12.013 0 0 0 12 12z"/><path d="m412 152a12 12 0 1 0 12 12 12.013 12.013 0 0 0 -12-12z"/><path d="m412 136a12 12 0 1 0 -12-12 12.013 12.013 0 0 0 12 12z"/><path d="m292 384a12 12 0 1 0 12 12 12.013 12.013 0 0 0 -12-12z"/><path d="m372 384a12 12 0 1 0 12 12 12.013 12.013 0 0 0 -12-12z"/><path d="m332 416a12 12 0 1 0 12 12 12.013 12.013 0 0 0 -12-12z"/><path d="m188 256a12 12 0 1 0 12 12 12.013 12.013 0 0 0 -12-12z"/><path d="m228 232a12 12 0 1 0 12 12 12.013 12.013 0 0 0 -12-12z"/><path d="m188 296a12 12 0 1 0 12 12 12.013 12.013 0 0 0 -12-12z"/><path d="m268 296a12 12 0 1 0 12 12 12.013 12.013 0 0 0 -12-12z"/><path d="m228 328a12 12 0 1 0 12 12 12.013 12.013 0 0 0 -12-12z"/><path d="m228 280a12 12 0 1 0 12 12 12.013 12.013 0 0 0 -12-12z"/><path d="m268 280a12 12 0 1 0 -12-12 12.013 12.013 0 0 0 12 12z"/><path d="m396 224a12 12 0 1 0 12 12 12.013 12.013 0 0 0 -12-12z"/><path d="m368 300a12 12 0 1 0 -12 12 12.013 12.013 0 0 0 12-12z"/><path d="m436 288a12 12 0 1 0 12 12 12.013 12.013 0 0 0 -12-12z"/><path d="m396 320a12 12 0 1 0 12 12 12.013 12.013 0 0 0 -12-12z"/><path d="m180 96a12 12 0 1 0 -12-12 12.013 12.013 0 0 0 12 12z"/><path d="m220 72a12 12 0 1 0 -12-12 12.013 12.013 0 0 0 12 12z"/><path d="m192 124a12 12 0 1 0 -12 12 12.013 12.013 0 0 0 12-12z"/><path d="m232 156a12 12 0 1 0 -12 12 12.013 12.013 0 0 0 12-12z"/><path d="m220 120a12 12 0 1 0 -12-12 12.013 12.013 0 0 0 12 12z"/></g></g></svg>