<?xml version="1.0"?>
<svg xmlns="http://www.w3.org/2000/svg" id="Layer_1" data-name="Layer 1" viewBox="0 0 512 512" width="512" height="512"><title>Banana</title><path d="M421.16,213.18l46.87-40.65,26.31,25.18-34.35,43.98S432.34,214.14,421.16,213.18Z" style="fill:#eaab3b"/><path d="M50.09,303.57l45.47-47.11v-.01c.88.27,1.76.53,2.64.79,139.03,40.86,261.39-11.38,305.37-34.3,11.22-5.84,17.34-9.78,17.34-9.78a2.286,2.286,0,0,1,.25.02c11.18.96,38.83,28.51,38.83,28.51s23.95,140.28-179.21,147.72C154.93,393.87,85.4,344.22,49.9,303.74Z" style="fill:#fedb41"/><path d="M108.27,158.87c119.62,86.17,255.54,70.97,295.3,64.07-43.98,22.92-166.34,75.16-305.37,34.3a224.159,224.159,0,0,1-45.77-69.88l.24-.1Z" style="fill:#f4b844"/><path d="M52.67,187.26l-.24.1c-12.99-31.72-13.58-55.04-13.58-55.04l26.27-10.01a363.07,363.07,0,0,0,43.15,36.56Z" style="fill:#eaab3b"/><path d="M95.56,256.46,50.09,303.57l-.19.17c-23.71-27.02-32.24-49.95-32.24-49.95L40.3,234.9a379.975,379.975,0,0,0,55.26,21.55Z" style="fill:#eaab3b"/><path d="M258.4,345.234c-58.377,0-103.372-15.612-136.771-29.714a8,8,0,1,1,6.224-14.74c35.161,14.847,83.714,31.442,147.606,27.991,46.039-2.688,85.072-16.223,119.294-41.377a8,8,0,1,1,9.476,12.892c-36.79,27.041-78.617,41.584-127.872,44.46Q267.178,345.243,258.4,345.234Z" style="fill:#f4b844"/></svg>
