<svg id="Capa_1" enable-background="new 0 0 511.606 511.606" height="512" viewBox="0 0 511.606 511.606" width="512" xmlns="http://www.w3.org/2000/svg"><g><g><g><path d="m408.776 261.296c-4.118 0-8.267-.431-12.392-1.303-10.618-2.246-20.205-7.23-27.982-14.417-12.407 6.774-26.659 8.883-40.631 5.928-15.581-3.295-28.941-12.488-37.62-25.885-16.76-25.869-10.927-60.07 12.528-79.031-12.633-26.581-3.993-59.203 21.245-75.706 13.315-8.706 29.215-11.69 44.76-8.401 12.956 2.74 24.377 9.558 32.847 19.479 12.126-6.274 25.922-8.163 39.452-5.301 15.581 3.295 28.941 12.488 37.62 25.885 17.007 26.251 10.75 61.082-13.579 79.86 8.498 25.212-.674 54.014-23.879 69.187-9.782 6.397-20.96 9.705-32.369 9.705z" fill="#00b44b"/><path d="m254.806 289.067c-2.86 0-5.751-.816-8.309-2.522-6.893-4.596-8.754-13.91-4.157-20.802 48.537-72.782 114.916-97.308 117.718-98.317 7.798-2.804 16.389 1.24 19.193 9.034 2.806 7.794-1.238 16.388-9.033 19.193-.562.205-60.107 22.539-102.919 86.734-2.89 4.335-7.647 6.68-12.493 6.68z" fill="#00a03c"/></g><g><path d="m155.739 196.54c-.532 0-1.064-.007-1.599-.021-14.297-.376-27.689-5.757-38.2-15.258-9.204 5.157-19.652 7.759-30.495 7.483-15.905-.418-30.692-7.03-41.638-18.62-19.049-20.172-21.293-50.325-7.196-72.854-19.319-23.94-17.337-59.284 5.288-80.85 11.533-10.993 26.668-16.821 42.543-16.399 13.848.364 26.846 5.423 37.2 14.373 10.518-7.655 23.17-11.604 36.396-11.27 15.905.418 30.693 7.031 41.638 18.62 20.716 21.937 21.561 55.673 3.124 78.576 18.427 23.915 16.179 58.548-6.116 79.8-11.146 10.624-25.633 16.42-40.945 16.42z" fill="#5bc980"/><path d="m235.81 289.068c-7.236 0-13.607-5.249-14.792-12.624-13.036-81.158-92.348-145.938-93.148-146.583-6.448-5.201-7.46-14.644-2.259-21.092 5.2-6.45 14.644-7.459 21.093-2.259 3.63 2.928 89.091 72.776 103.934 165.177 1.314 8.179-4.252 15.875-12.432 17.189-.803.129-1.606.192-2.396.192z" fill="#00b44b"/></g></g><g><g><path d="m235.799 511.606c-3.177 0-6.354-1.006-9.025-3.019-1.021-.768-25.267-19.113-49.849-44.451-21.278-21.932-36.13-42.222-44.444-60.669-2.319-5.146 4.571-15.003 4.571-15.003s-12.187-10.171-12.408-15.001c-.042-.915-.063-1.824-.063-2.727 0-61.573 49.892-111.666 111.217-111.666s111.217 50.093 111.217 111.666c0 .903-.021 1.812-.063 2.727l-10.852 13.074 3.008 16.926c-8.313 18.447-23.157 38.741-44.435 60.673-24.582 25.338-48.828 43.682-49.849 44.451-2.671 2.013-5.848 3.019-9.025 3.019z" fill="#ff405c"/><path d="m235.799 259.07v252.536c3.177 0 6.354-1.006 9.025-3.019 1.02-.768 25.267-19.113 49.849-44.451 21.278-21.932 36.121-42.226 44.435-60.673l-3.008-16.926 10.853-13.074c.042-.915.063-1.824.063-2.727 0-61.572-49.891-111.666-111.217-111.666z" fill="#f90024"/></g><g><path d="m180.99 373.463h-56.34c.428 9.362 3.054 19.377 7.84 30h48.499c8.284 0 15-6.716 15-15 .001-8.284-6.715-15-14.999-15z" fill="#ff1f3d"/><path d="m339.108 403.463c4.787-10.623 7.412-20.638 7.841-30h-81.149c-8.284 0-15 6.716-15 15s6.716 15 15 15z" fill="#c6001c"/></g></g></g></svg>