<svg id="Capa_1" enable-background="new 0 0 512 512" height="512" viewBox="0 0 512 512" width="512" xmlns="http://www.w3.org/2000/svg"><g><path clip-rule="evenodd" d="m193.638 502.925c-47.905-68.23-94.364-111.203-169.227-162.68-1.021-.68-35.802-21.685-20.551-19.927 102.84 11.764 185.355 90.028 224.841 182.607z" fill="#66b394" fill-rule="evenodd"/><path clip-rule="evenodd" d="m193.638 502.925c-26.079-132.661-66.019-220.053-142.95-338.088-.964-1.446-35.518-48.161-16.299-37.559 133.057 73.559 199.613 228.104 197.884 375.647z" fill="#b3e59f" fill-rule="evenodd"/><path clip-rule="evenodd" d="m318.389 502.925c47.877-68.23 94.364-111.203 169.227-162.68.992-.68 35.773-21.685 20.522-19.927-102.812 11.764-185.327 90.028-224.841 182.607z" fill="#66b394" fill-rule="evenodd"/><path clip-rule="evenodd" d="m318.389 502.925c26.051-132.661 66.019-220.053 142.95-338.088.936-1.446 35.517-48.161 16.299-37.559-133.057 73.559-199.613 228.104-197.912 375.647z" fill="#b3e59f" fill-rule="evenodd"/><path d="m237.404 256.084c.965 3.997-1.502 8.051-5.527 9.014-3.996.964-8.05-1.502-9.014-5.499-5.755-23.528-37.842-94.734-51.845-116.249-2.268-3.458-1.275-8.079 2.183-10.318 3.458-2.268 8.106-1.275 10.347 2.183 14.853 22.79 47.706 95.754 53.856 120.869z" fill="#b2a17d"/><path d="m289.165 259.117c-.964 4.025-5.017 6.491-9.014 5.499-4.025-.964-6.491-4.989-5.528-9.014 6.01-24.577 39.316-97.682 53.886-120.076 2.24-3.458 6.86-4.45 10.347-2.183 3.458 2.239 4.423 6.86 2.183 10.318-13.749 21.119-46.261 92.467-51.874 115.456z" fill="#b2a17d"/><path clip-rule="evenodd" d="m117.642 32.232c9.608-5.357 21.826-1.871 27.184 7.767l41.272 74.296c5.357 9.609 1.871 21.827-7.767 27.185-9.61 5.329-21.827 1.842-27.184-7.767l-41.271-74.296c-5.358-9.611-1.871-21.856 7.766-27.185z" fill="#917d52" fill-rule="evenodd"/><path clip-rule="evenodd" d="m394.414 32.232c-9.608-5.357-21.854-1.871-27.184 7.767l-41.301 74.296c-5.329 9.609-1.843 21.827 7.767 27.185 9.639 5.329 21.856 1.842 27.213-7.767l41.271-74.296c5.358-9.611 1.843-21.856-7.766-27.185z" fill="#917d52" fill-rule="evenodd"/><path d="m124.161 28.575c2.014 3.629.709 8.164-2.89 10.177-3.629 2.013-8.164.708-10.177-2.892l-8.702-15.676c-2.013-3.6-.709-8.164 2.892-10.176 3.628-1.984 8.163-.709 10.176 2.919z" fill="#b2a17d"/><path d="m400.962 35.86c-2.013 3.6-6.576 4.904-10.177 2.892-3.599-2.013-4.902-6.548-2.89-10.177l8.701-15.647c2.013-3.628 6.548-4.904 10.177-2.919 3.6 2.012 4.903 6.576 2.891 10.176z" fill="#b2a17d"/><g clip-rule="evenodd" fill-rule="evenodd"><path d="m232.246 502.925c-7.229-50.825-11.311-108.907-11.311-170.589 0-82.289 7.653-189.383 31.352-267.392 2.238-7.37 5.782-5.783 7.426 0 23.642 83.027 31.352 180.34 31.352 267.392 0 61.682-4.11 119.764-11.338 170.589z" fill="#d6f6b2"/><path d="m243.357 98.846c2.693-11.764 5.641-23.13 8.93-33.902 2.238-7.37 5.782-5.783 7.426 0 23.642 83.027 31.352 180.34 31.352 267.392 0 61.682-4.11 119.764-11.338 170.589h-24.974c7.229-50.825 11.339-108.907 11.339-170.589 0-75.458-5.812-158.599-22.735-233.49z" fill="#ccf49f"/><path d="m436.338 164.837c-69.873 107.206-109.246 189.127-135.408 302.683-2.637 11.452-5.16 23.244-7.541 35.404h23.896 1.105c.142-.709.283-1.445.425-2.154 6.293-31.748 13.38-60.888 21.629-88.498 25.852-86.768 62.843-158.371 120.896-247.436.936-1.446 35.517-48.161 16.299-37.559-9.353 5.187-18.396 10.743-27.099 16.696-6.152 9.865-13.777 20.183-14.202 20.864z" fill="#95d6a4"/><path d="m462.615 340.244c-56.75 39.005-97.199 73.163-134.305 117.128-3.515 14.627-6.831 29.764-9.921 45.553 47.877-68.23 94.364-111.203 169.227-162.68.992-.68 35.773-21.685 20.522-19.927-7.738.878-15.364 2.154-22.847 3.77-5.442 5.669-21.995 15.674-22.676 16.156z" fill="#5aa687"/><path d="m36.459 143.973c102.612 70.101 159.391 191.679 169.284 314.532 1.19 14.825 1.7 29.65 1.53 44.419h24.973c-4.451-31.436-7.739-65.679-9.582-101.792-22.789-112.535-85.804-217.218-188.275-273.854-10.345-5.698-5.101 5.187 2.07 16.695z" fill="#95d6a4"/><path d="m171.585 412.273c-43.342-49.011-101.309-84.359-167.724-91.956-4.79-.539-4.62 1.162-2.126 3.77 79.114 17.065 144.366 73.56 184.363 143.434-4.45-19.248-9.241-37.56-14.513-55.248z" fill="#5aa687"/></g></g></svg>