<svg id="Capa_1" enable-background="new 0 0 512 512" height="512" viewBox="0 0 512 512" width="512" xmlns="http://www.w3.org/2000/svg"><g><path d="m446.108 203.663-19.722-19.722c-2.029-2.03-3.17-4.782-3.17-7.652v-15.427c0-12.981-5.157-25.43-14.336-34.609l-4.75-4.75c-2.517-2.517-4.514-5.506-5.877-8.795l-10.113-24.414c-22.137-53.446-74.29-88.294-132.14-88.294-57.85 0-110.003 34.848-132.141 88.294l-10.113 24.414c-1.362 3.289-3.359 6.278-5.877 8.795l-4.75 4.75c-9.179 9.179-14.336 21.628-14.336 34.609v15.427c0 2.87-1.14 5.623-3.17 7.652l-19.722 19.722c-13.426 13.426-18.278 33.2-12.593 51.316l8.352 26.611c5.649 18 22.331 30.248 41.196 30.248.546 0 1.07.217 1.456.603l10.43 10.43c6.717 6.717 15.827 10.491 25.327 10.491h25.792c2.147 0 4.207.853 5.725 2.371l4.701 4.701c9.253 9.253 21.802 14.451 34.888 14.451h89.669c13.085 0 25.635-5.198 34.888-14.451l4.701-4.701c1.518-1.518 3.578-2.371 5.725-2.371h25.793c9.499 0 18.609-3.774 25.326-10.491l10.43-10.43c.386-.386.91-.603 1.456-.603 18.866 0 35.547-12.248 41.196-30.248l8.352-26.611c5.686-18.115.833-37.89-12.593-51.316z" fill="#95d6a4"/><path d="m169.958 334.282c-.121 0-.243-.001-.364-.002.725.378 1.395.866 1.983 1.454l4.701 4.701c9.253 9.253 21.802 14.451 34.888 14.451h16.571l7.43-20.604z" fill="#78c2a4"/><path d="m446.108 203.663-19.722-19.722c-2.029-2.03-3.17-4.782-3.17-7.652v-15.427c0-12.981-5.156-25.43-14.336-34.609l-4.75-4.75c-2.517-2.517-4.514-5.506-5.877-8.795l-10.113-24.414c-16.523-39.894-49.772-69.426-89.63-81.837 21.068 15.207 38.045 36.176 48.424 61.234l10.113 24.414c1.362 3.289 3.359 6.278 5.877 8.795l4.75 4.75c9.179 9.179 14.336 21.628 14.336 34.609v15.427c0 2.87 1.14 5.623 3.17 7.652l19.722 19.722c13.426 13.426 18.278 33.2 12.593 51.316l-8.352 26.611c-5.649 18-22.33 30.248-41.196 30.248-.546 0-1.07.217-1.456.603l-10.43 10.43c-6.717 6.717-15.827 10.491-25.326 10.491h-25.792c-2.147 0-4.207.853-5.725 2.371l-4.701 4.701c-3.085 3.085-6.536 5.718-10.252 7.859l-8.351 12.361 8.351 14.835h16.571c13.085 0 25.635-5.198 34.888-14.451l4.701-4.701c1.518-1.518 3.578-2.371 5.725-2.371h25.793c9.499 0 18.609-3.774 25.326-10.491l10.43-10.43c.386-.386.91-.603 1.456-.603 18.866 0 35.547-12.248 41.196-30.248l8.352-26.611c5.684-18.116.831-37.891-12.595-51.317z" fill="#78c2a4"/><path d="m310.944 501.887c-17.083-17.083-26.68-40.253-26.68-64.412v-132.857c-1.313-.219-2.59-.562-3.821-1.072-7.146-2.963-11.331-10.663-16.716-16.048-2.189-2.189-4.761-4.18-7.242-6.253-1.242 3.444-2.793 6.661-5.298 9.166-5.385 5.385-14.062 6.365-21.208 9.328-.748.31-1.495.652-2.242 1.015v136.719c0 24.159-9.597 47.329-26.68 64.412l-8.539 8.539c-.581.581-.17 1.574.652 1.574h125.66c.822 0 1.233-.993.652-1.574z" fill="#dab46b"/><path d="m319.483 510.426-8.539-8.539c-17.083-17.083-26.68-40.253-26.68-64.412v-132.857c-1.313-.219-2.59-.562-3.821-1.072-7.146-2.963-11.331-10.663-16.716-16.048-2.189-2.189-4.761-4.18-7.242-6.253-.836 2.319-1.813 4.535-3.127 6.501v129.124c0 24.159 9.597 47.329 26.68 64.412 3.732 3.732 1.089 10.113-4.189 10.113h-65.786c-2.716 3.697-5.723 7.206-9.007 10.49l-8.539 8.539c-.581.581-.17 1.574.652 1.574h125.661c.822.002 1.234-.991.653-1.572z" fill="#cba763"/><path d="m348.96 282.035c-3.018-3.017-7.909-3.017-10.928 0-1.946 1.947-3.661 4.036-5.319 6.057-2.962 3.609-5.76 7.019-8.893 8.317-2.955 1.225-7.321.818-11.94.388-5.278-.632-11.26-.631-16.538 0-4.622.431-8.987.837-11.94-.387-3.133-1.299-5.931-4.709-8.893-8.318-1.658-2.021-3.373-4.111-5.319-6.057-1.206-1.206-2.467-2.323-3.733-3.393 1.335-4.632 2.648-7.952 5.032-12.161 2.883-5.362 6.151-11.44 6.151-18.868 0-4.267-3.459-7.726-7.726-7.726s-7.726 3.459-7.726 7.726c0 3.537-2.093 7.429-4.308 11.55-2.587 4.501-4.742 9.771-6.136 14.753-1.374 4.466-2.671 8.684-5.02 11.033s-6.566 3.646-11.032 5.02c-4.982 1.394-10.253 3.549-14.754 6.136-4.121 2.216-8.013 4.308-11.549 4.308s-7.429-2.093-11.549-4.308c-4.501-2.587-9.773-4.742-14.754-6.136-4.466-1.374-8.684-2.671-11.033-5.021-2.349-2.349-3.646-6.566-5.02-11.032-.772-2.51-1.57-5.106-2.634-7.672-1.634-3.942-6.155-5.811-10.097-4.178-3.942 1.634-5.812 6.155-4.178 10.097.784 1.889 1.442 4.03 2.138 6.295 1.781 5.79 3.799 12.353 8.863 17.417 5.063 5.063 11.626 7.082 17.416 8.863 4.581 1.323 7.813 2.625 11.979 4.977 5.362 2.883 11.44 6.151 18.867 6.151s13.505-3.268 18.867-6.151c4.165-2.353 7.398-3.655 11.979-4.977 5.79-1.781 12.352-3.799 17.415-8.863.77-.77 1.469-1.575 2.108-2.406 1.245 1.304 2.493 2.826 3.806 4.425 3.85 4.691 8.213 10.008 14.92 12.789 6.49 2.691 13.293 2.058 19.292 1.5 7.464-1.098 14.181.361 21.727.492 3.707 0 7.522-.452 11.235-1.991 6.707-2.781 11.07-8.098 14.92-12.789 1.487-1.812 2.891-3.524 4.302-4.933 3.019-3.018 3.019-7.91.002-10.927z" fill="#78c2a4"/><g><g><path d="m130.781 192.953c-.662 0-1.335-.086-2.005-.265-4.122-1.104-6.568-5.341-5.464-9.463.516-1.925.876-4.109 1.258-6.422.988-5.988 2.109-12.775 6.527-18.537 4.276-5.578 10.483-8.43 15.959-10.946 4.529-1.977 7.86-3.9 11.838-6.835 4.917-3.484 10.489-7.433 17.458-8.348 7.194-.946 13.634 1.478 19.314 3.616 2.194.825 4.266 1.606 6.191 2.121 4.122 1.105 6.568 5.341 5.464 9.463-1.105 4.122-5.342 6.569-9.463 5.464-2.659-.713-5.189-1.664-7.636-2.586-4.37-1.645-8.494-3.192-11.86-2.757-3.171.416-6.747 2.951-10.534 5.635-4.254 3.185-9.435 6.176-14.321 8.268-4.217 1.938-8.201 3.768-10.147 6.306-2.064 2.692-2.783 7.044-3.543 11.651-.426 2.579-.866 5.245-1.578 7.904-.925 3.455-4.047 5.731-7.458 5.731z" fill="#78c2a4"/></g></g><g><g><path d="m246.054 71.929c-1.977 0-3.954-.754-5.463-2.263-3.017-3.017-3.018-7.909-.001-10.927 1.193-1.193 2.401-2.665 3.68-4.224 3.428-4.177 7.313-8.911 13.385-11.429 5.883-2.441 11.937-1.876 17.28-1.378 4.241.476 7.48.476 11.721.001 5.342-.498 11.395-1.062 17.281 1.378 6.07 2.518 9.955 7.251 13.382 11.427 1.28 1.559 2.488 3.032 3.681 4.225 3.018 3.017 3.018 7.909.001 10.927-3.018 3.017-7.91 3.018-10.927.001-1.73-1.73-3.24-3.57-4.701-5.35-2.498-3.044-4.858-5.92-7.356-6.955-2.343-.973-6.026-.629-9.928-.267-4.63.555-9.958.555-14.589 0-3.899-.364-7.583-.706-9.927.266-2.5 1.037-4.86 3.913-7.359 6.958-1.46 1.779-2.969 3.618-4.698 5.348-1.507 1.508-3.485 2.262-5.462 2.262z" fill="#78c2a4"/></g></g><g><g><path d="m380.1 212.924c-4.268 0-7.726-3.459-7.726-7.726 0-2.447.233-4.815.459-7.105.386-3.92.751-7.622-.283-10.121-.971-2.346-3.817-4.707-6.831-7.207-3.667-2.882-7.434-6.649-10.316-10.317-2.501-3.014-4.862-5.861-7.209-6.832-2.5-1.035-6.203-.669-10.122-.283-2.29.226-4.658.459-7.104.459-4.268.001-7.727-3.459-7.727-7.726s3.459-7.726 7.725-7.727c1.688 0 3.583-.187 5.591-.385 5.378-.529 11.472-1.13 17.545 1.383 5.886 2.436 9.769 7.116 13.194 11.245 2.663 3.336 4.953 5.625 8.289 8.289 4.129 3.425 8.808 7.306 11.243 13.192 2.512 6.073 1.912 12.167 1.382 17.544-.197 2.007-.384 3.902-.384 5.59 0 4.268-3.459 7.727-7.726 7.727z" fill="#78c2a4"/></g></g><path d="m258.509 398.389c-4.267 0-7.726-3.459-7.726-7.726v-70.828c0-4.267 3.459-7.726 7.726-7.726 4.268 0 7.726 3.459 7.726 7.726v70.828c0 4.267-3.458 7.726-7.726 7.726zm-8.594 91.083c7.499-16.316 11.302-33.81 11.302-51.997v-8.853c0-4.267-3.459-7.726-7.726-7.726s-7.726 3.459-7.726 7.726v8.853c0 15.943-3.327 31.267-9.89 45.544-1.782 3.877-.084 8.465 3.793 10.247 1.046.481 2.142.708 3.222.708 2.925 0 5.724-1.67 7.025-4.502z" fill="#cba763"/><g fill="#bc9b5c"><path d="m253.358 314.076v82.345c1.367 1.224 3.172 1.968 5.151 1.968 4.268 0 7.726-3.459 7.726-7.726v-70.828c0-4.267-3.459-7.726-7.726-7.726-1.979-.001-3.784.743-5.151 1.967z"/><path d="m248.656 491.396h-11.522c.686.768 1.538 1.411 2.534 1.869 1.046.481 2.142.708 3.222.708 2.182.001 4.294-.929 5.766-2.577z"/><path d="m261.217 437.475v-8.853c0-4.267-3.459-7.726-7.726-7.726-.015 0-.029.001-.044.001.476 10.769 2.855 21.282 6.948 31.081.547-4.779.822-9.616.822-14.503z"/></g></g></svg>