<?xml version="1.0" encoding="iso-8859-1"?>
<!-- Generator: Adobe Illustrator 21.0.0, SVG Export Plug-In . SVG Version: 6.00 Build 0)  -->
<svg version="1.1" id="Capa_1" xmlns="http://www.w3.org/2000/svg" xmlns:xlink="http://www.w3.org/1999/xlink" x="0px" y="0px"
	 viewBox="0 0 512 512" style="enable-background:new 0 0 512 512;" xml:space="preserve">
<path style="fill:#444444;" d="M512,61v255l-30,30H32.701L0,316V61c0-24.901,20.099-45,45-45h422C491.901,16,512,36.099,512,61z"/>
<path style="fill:#292929;" d="M512,61v255l-30,30H256V16h211C491.901,16,512,36.099,512,61z"/>
<path style="fill:#A8EBFA;" d="M482,61v285H30V61c0-8.401,6.599-15,15-15h422C475.401,46,482,52.599,482,61z"/>
<path style="fill:#76E2F8;" d="M482,61v285H256V46h211C475.401,46,482,52.599,482,61z"/>
<path style="fill:#444444;" d="M361.099,476.199H150.901l30-90C182.701,380.2,188.401,376,195,376h122
	c6.599,0,12.299,4.2,14.099,10.199L361.099,476.199z"/>
<path style="fill:#292929;" d="M331.099,386.199l30,90H256V376h61C323.599,376,329.299,380.2,331.099,386.199z"/>
<path style="fill:#5A5A5A;" d="M512,316v45c0,24.899-20.099,45-45,45H45c-24.901,0-45-20.101-45-45v-45H512z"/>
<path style="fill:#444444;" d="M512,316v45c0,24.899-20.099,45-45,45H256v-90H512z"/>
<path style="fill:#5A5A5A;" d="M422,481c0,8.399-6.599,15-15,15H105c-8.401,0-15-6.601-15-15c0-8.401,6.599-15,15-15h302
	C415.401,466,422,472.599,422,481z"/>
<path style="fill:#444444;" d="M422,481c0,8.399-6.599,15-15,15H256v-30h151C415.401,466,422,472.599,422,481z"/>
<polygon style="fill:#5A5A5A;" points="512,256 512,406 482,436 332,436 302,406 302,256 332,226 482,226 "/>
<polygon style="fill:#444444;" points="512,256 512,406 482,436 407,436 407,226 482,226 "/>
<rect x="332" y="226" style="fill:#ECECF1;" width="150" height="210"/>
<rect x="407" y="226" style="fill:#E2E2E7;" width="75" height="210"/>
<path style="fill:#6E6E6E;" d="M512,406v45c0,24.899-20.099,45-45,45H347c-24.901,0-45-20.101-45-45v-45H512z"/>
<path style="fill:#5A5A5A;" d="M407,406h105v45c0,24.899-20.099,45-45,45h-60V406z"/>
<path style="fill:#6E6E6E;" d="M512,211v45H302v-45c0-24.901,20.099-45,45-45h120C491.901,166,512,186.099,512,211z"/>
<path style="fill:#5A5A5A;" d="M512,211v45H407v-90h60C491.901,166,512,186.099,512,211z"/>
<g>
</g>
<g>
</g>
<g>
</g>
<g>
</g>
<g>
</g>
<g>
</g>
<g>
</g>
<g>
</g>
<g>
</g>
<g>
</g>
<g>
</g>
<g>
</g>
<g>
</g>
<g>
</g>
<g>
</g>
</svg>
