<svg id="Capa_1" enable-background="new 0 0 512 512" height="512" viewBox="0 0 512 512" width="512" xmlns="http://www.w3.org/2000/svg"><g><path d="m511.249 322.021-23.742-25.015c-.661-.696-1.632-.995-2.568-.783-7.891 1.793-44.384 11.872-60.533 47.703 12.941 16.1 20.701 36.542 20.701 58.805 4.656-55.362 50.26-72.212 64.897-76.216 1.983-.542 2.66-3.004 1.245-4.494z" fill="#ffd301"/><path d="m495.618 305.552-8.114-8.549c-.657-.693-1.631-.993-2.562-.781-7.885 1.792-44.385 11.869-60.535 47.704 12.941 16.1 20.701 36.542 20.701 58.805 1.281-15.231 5.665-27.541 11.647-37.477-.929-2.646-1.974-5.24-3.128-7.778-4.567-10.036-2.743-21.894 4.985-29.759 11.993-12.207 26.215-18.725 37.006-22.165z" fill="#ffc20c"/><path d="m397.397 16.623h-134.734v144.586c0 1.473-1.763 2.215-2.823 1.192-2.814-2.716-6.642-4.388-10.862-4.388-4.794 0-9.082 2.156-11.952 5.551-1.267 1.498-3.553 1.498-4.82 0-2.871-3.394-7.158-5.551-11.952-5.551s-9.082 2.156-11.952 5.551c-1.267 1.498-3.553 1.498-4.82 0-2.871-3.394-7.158-5.551-11.952-5.551s-9.082 2.156-11.952 5.551c-1.267 1.498-3.553 1.498-4.82 0-2.871-3.394-7.158-5.551-11.952-5.551-4.221 0-8.048 1.672-10.862 4.388-1.06 1.023-2.823.281-2.823-1.192v-144.586h-134.737c-7.944 0-14.384 6.441-14.384 14.385v421.867c0 7.944 6.44 14.384 14.384 14.384h274.146c-16.45-16.832-25.562-39.854-25.562-65.248 0-51.564 37.68-89.244 89.244-89.244 22.644 0 43.404 7.033 59.57 20.442v-302.201c-.001-7.944-6.441-14.385-14.385-14.385z" fill="#bc7c63"/><g><path d="m41.339 452.875v-421.867c0-7.944 6.44-14.384 14.385-14.384h-41.34c-7.944-.001-14.384 6.44-14.384 14.384v421.867c0 7.944 6.44 14.384 14.384 14.384h41.339c-7.943 0-14.384-6.44-14.384-14.384z" fill="#ab6b51"/></g><path d="m148.684 16.623v145.691c0 1.485 1.776 2.232 2.845 1.201 2.836-2.737 6.693-4.421 10.945-4.421 4.831 0 9.151 2.173 12.044 5.593 1.277 1.51 3.58 1.51 4.857 0 2.893-3.42 7.213-5.593 12.044-5.593s9.151 2.173 12.044 5.593c1.277 1.51 3.58 1.51 4.857 0 2.893-3.42 7.213-5.593 12.044-5.593s9.151 2.173 12.044 5.593c1.277 1.51 3.58 1.51 4.857 0 2.892-3.42 7.213-5.593 12.044-5.593 4.253 0 8.11 1.685 10.945 4.421 1.068 1.031 2.845.284 2.845-1.201v-145.691z" fill="#fee55a"/><path d="m190.023 16.623h-41.339v145.691c0 1.485 1.776 2.232 2.845 1.201 2.836-2.737 6.693-4.421 10.945-4.421 4.831 0 9.151 2.173 12.044 5.593 1.277 1.51 3.58 1.51 4.857 0 2.61-3.086 6.388-5.14 10.649-5.515v-142.549z" fill="#ffd301"/><path d="m168.483 288.931h-119.429c-4.932 0-8.93 3.998-8.93 8.93v119.429c0 4.932 3.998 8.93 8.93 8.93h119.429c4.932 0 8.93-3.998 8.93-8.93v-119.43c0-4.931-3.998-8.929-8.93-8.929z" fill="#dfebfa"/><path d="m81.464 417.29v-119.43c0-4.932 3.998-8.93 8.93-8.93h-41.34c-4.932 0-8.93 3.998-8.93 8.93v119.43c0 4.932 3.998 8.93 8.93 8.93h41.339c-4.931-.001-8.929-3.999-8.929-8.93z" fill="#b1dbfc"/><g><path d="m129.226 335.537h-40.914c-4.268 0-7.727-3.46-7.727-7.727 0-4.268 3.46-7.727 7.727-7.727h40.914c4.268 0 7.727 3.46 7.727 7.727s-3.46 7.727-7.727 7.727z" fill="#b1dbfc"/></g><g><path d="m142.751 365.302h-67.964c-4.268 0-7.727-3.46-7.727-7.727 0-4.268 3.46-7.727 7.727-7.727h67.964c4.268 0 7.727 3.46 7.727 7.727 0 4.268-3.46 7.727-7.727 7.727z" fill="#b1dbfc"/></g><g><path d="m142.751 395.068h-67.964c-4.268 0-7.727-3.46-7.727-7.727 0-4.268 3.46-7.727 7.727-7.727h67.964c4.268 0 7.727 3.46 7.727 7.727s-3.46 7.727-7.727 7.727z" fill="#b1dbfc"/></g><path d="m352.212 308.646c-51.564 0-93.366 41.801-93.366 93.365s41.801 93.366 93.366 93.366 93.365-41.801 93.365-93.366-41.801-93.365-93.365-93.365z" fill="#fee55a"/><path d="m300.185 402.011c0-44.461 31.079-81.658 72.696-91.065-6.649-1.503-13.566-2.3-20.669-2.3-51.564 0-93.365 41.801-93.365 93.365s41.801 93.366 93.365 93.366c7.104 0 14.02-.797 20.669-2.3-41.617-9.406-72.696-46.605-72.696-91.066z" fill="#ffd301"/><circle cx="352.212" cy="402.011" fill="#bc7c63" r="59.568"/></g></svg>