<svg id="Capa_1" enable-background="new 0 0 497 497" height="512" viewBox="0 0 497 497" width="512" xmlns="http://www.w3.org/2000/svg"><g id="_x3C_Group_x3E__15_"><path d="m50.606 209.628c-.742-18.401-6.054-53.797 23.489-87.319 14.636-16.607 28.53-31.432 43.299-36.024 12.221-3.8 22.386-4.783 27.016-5.097 51.214-3.468 91.123 33.818 101.944 45.082 1.558 1.622 4.162 1.6 5.645-.092 10.46-11.937 47.065-48.602 100.392-44.99 10.227.693 47.447 4.653 74.194 35.001 29.544 33.522 26.67 76.957 25.454 95.332-6.093 92.079-115.246 160.491-171.174 189.667-13.856 7.228-24.444 6.048-29.39 8.223-1.973.868-4.175.868-6.148 0-13.696-6.024-190.543-96.154-194.721-199.783z" fill="#df646e"/><g><path d="m280.862 401.181s-199.92-102.031-204.098-205.66c-.742-18.401-4.09-61.81 25.454-95.332 4.794-5.44 9.928-10.019 15.179-13.897-14.771 4.591-32.54 13.287-47.179 29.897-29.544 33.522-26.196 76.932-25.454 95.332 4.178 103.629 186.867 197.866 200.563 203.889.985.433 2.028.65 3.071.651 1.478.001 2.594-.45 3.078-.651 8.867-3.679 24.194-11.565 24.195-11.565.665-.342 5.191-2.664 5.191-2.664z" fill="#dc4955"/></g><g><path d="m216.779 323.059c-4.961 3.158-11.485 2.328-15.833-1.632-2.104-1.916-4.439-4.352-5.714-6.684l-54.413-98.477c-.693-1.268-3.94-1.199-5.18-.909-.717.168-1.384.601-1.834 1.306l-6.083 9.525-7.968 9.476c-2.824 4.422-7.708 7.098-12.955 7.098h-90.994c-8.213 0-12.178-9.912-12.178-13.218 0-.681.768-11.97 7.436-13.913 1.367-.398 2.812-.612 4.307-.612h81.363c1.024 0 1.977-.522 2.528-1.385l25.342-39.68c2.924-4.579 8.064-7.272 13.477-7.089 5.43.185 10.359 3.221 12.964 7.988l55.166 100.892c1.134 2.073 4.108 2.083 5.255.017l57.8-104.072c2.598-4.677 7.44-7.668 12.786-7.894 5.348-.233 10.425 2.342 13.409 6.783l48.857 72.694c1.089 1.62 3.41 1.785 4.718.336l21.206-23.513c2.914-3.232 7.062-5.077 11.414-5.077h99.537c8.104 0 15.102 6.098 15.755 14.114.014.17-1.975 2.342-1.967 2.514.416 8.827-6.618 12.114-15.354 12.114l-87.278-.175c-.849 0-4.182 2.535-4.751 3.166l-20.915 23.19-10.581 8.732c-3.17 3.516-7.797 5.376-12.505 5.038-4.722-.336-9.027-2.83-11.666-6.758l-42.475-64.261c-.529-.787-4.101-1.28-4.932-1.369-1.134-.122-2.324.395-2.952 1.526l-53.572 96.46-7.845 10.523c-.908 1.336-2.078 2.4-3.375 3.226z" fill="#ddebfd"/></g><g fill="#bed9fd"><path d="m387.6 246.751c.569-.631 1.378-.991 2.228-.991h91.801c8.9 0 16.033-7.564 15.322-16.613-.008-.006-.011-.008-.019-.013-1.367.399-2.807.627-4.303.627l-81.017.168c-5.653.012-11.037 2.415-14.82 6.616z"/><path d="m368.734 267.673c-3.17 3.516-7.797 5.376-12.505 5.038-4.722-.336-9.027-2.83-11.667-6.758l-33.849-48.098c-2.778-3.948-7.286-6.317-12.113-6.367l-14.078-.145c.831.089 1.634.501 2.163 1.288l45.246 67.322c2.64 3.929 6.944 6.422 11.667 6.758 4.708.338 9.335-1.522 12.505-5.038l31.496-34.922"/><path d="m117.8 229.76h-90.995c-8.103 0-15.082-6.102-15.737-14.116-6.617 1.929-11.395 8.172-11.051 15.488.389 8.267 7.511 14.628 15.788 14.628h90.995c5.247 0 10.131-2.676 12.955-7.098l8.061-12.622c-2.752 2.365-6.29 3.72-10.016 3.72z"/><path d="m219.719 311.739c-.017 0-.034 0-.051 0-5.601-.018-10.749-3.082-13.436-7.997l-44.497-81.142c-2.634-4.804-7.678-7.789-13.157-7.788l-9.965.003c-1.123-.048-2.242.174-3.262.648 1.307-.45 2.865.004 3.614 1.373l56.267 102.905c2.687 4.915 7.835 7.978 13.436 7.997h.051c5.583 0 10.727-3.027 13.438-7.908l5.845-10.524c-2.433 1.558-5.293 2.433-8.283 2.433z"/></g></g></svg>