<svg height="512" viewBox="0 0 58 58" width="512" xmlns="http://www.w3.org/2000/svg"><g id="Page-1" fill="none" fill-rule="evenodd"><g id="005---Folder-Settings" fill-rule="nonzero"><path id="Shape" d="m58 19v29c0 3.3137085-2.6862915 6-6 6h-46c-3.3137085 0-6-2.6862915-6-6v-44c0-2.209139 1.790861-4 4-4h22c2.209139 0 4 1.790861 4 4v2h18c2.209139 0 4 1.790861 4 4v3c3.3116533.0049563 5.9950437 2.6883467 6 6z" fill="#f0c419"/><path id="Shape" d="m52 10v3h-52v-9c0-2.209139 1.790861-4 4-4h22c2.209139 0 4 1.790861 4 4v2h18c2.209139 0 4 1.790861 4 4z" fill="#f29c1f"/><path id="Shape" d="m18 13h-4c-.5522847 0-1-.4477153-1-1s.4477153-1 1-1h4c.5522847 0 1 .4477153 1 1s-.4477153 1-1 1z" fill="#e57e25"/><path id="Shape" d="m52 11v2h-29c-.5522847 0-1-.4477153-1-1s.4477153-1 1-1z" fill="#e57e25"/><path id="Shape" d="m35.316 37.772-3.773-1.258c-.326506-1.2724071-.8315176-2.4921785-1.5-3.623l1.78-3.56c.1924198-.3848395.1171045-.8496198-.187-1.154l-1.81-1.81c-.3043802-.3041045-.7691605-.3794198-1.154-.187l-3.56 1.78c-1.1306164-.6688929-2.3504478-1.1739294-3.623-1.5l-1.258-3.773c-.1353747-.4107787-.5194904-.6879714-.952-.687h-2.558c-.4306074-.0001037-.8129281.2754572-.949.684l-1.258 3.773c-1.2725522.3260706-2.4923836.8311071-3.623 1.5l-3.56-1.78c-.3848395-.1924198-.8496198-.1171045-1.154.187l-1.81 1.81c-.30410446.3043802-.37941982.7691605-.187 1.154l1.78 3.56c-.66848235 1.1308215-1.17349397 2.3505929-1.5 3.623l-3.776 1.261c-.40854275.1360719-.68410369.5183926-.684.949v2.558c-.00010369.4306074.27545725.8129281.684.949l3.773 1.258c.32607062 1.2725522.83110707 2.4923836 1.5 3.623l-1.78 3.56c-.19241982.3848395-.11710446.8496198.187 1.154l1.81 1.809c.30414468.3044429.76895207.3801654 1.154.188l3.56-1.78c1.1308215.6684824 2.3505929 1.173494 3.623 1.5l1.258 3.773c.1360719.4085428.5183926.6841037.949.684h2.558c.4306074.0001037.8129281-.2754572.949-.684l1.258-3.773c1.2724071-.326506 2.4921785-.8315176 3.623-1.5l3.56 1.78c.3850479.1921654.8498553.1164429 1.154-.188l1.81-1.809c.3041045-.3043802.3794198-.7691605.187-1.154l-1.78-3.56c.6688929-1.1306164 1.1739294-2.3504478 1.5-3.623l3.773-1.258c.4109142-.1339832.6892492-.5167947.69-.949v-2.558c.0001037-.4306074-.2754572-.8129281-.684-.949z" fill="#95a5a5"/><circle id="Oval" cx="18" cy="40" fill="#7f8c8d" r="10"/><circle id="Oval" cx="18" cy="40" fill="#35495e" r="3"/></g></g></svg>