<?xml version="1.0"?>
<svg xmlns="http://www.w3.org/2000/svg" id="flat" viewBox="0 0 512 512" width="512" height="512"><path d="M312,88H216a63.95258,63.95258,0,0,1-64-64h96a63.94738,63.94738,0,0,1,64,64Z" style="fill:#a2ba18"/><path d="M312,88H295.87988l-25.46-14.55A71.89636,71.89636,0,0,0,234.82007,64a88.22134,88.22134,0,0,1-39.24-9.26L152.66992,33.28A64.5713,64.5713,0,0,1,152,24h17.87988L202.74,40.43A72.18367,72.18367,0,0,0,234.82007,48a87.87584,87.87584,0,0,1,43.53,11.56l32.93017,18.82A63.67264,63.67264,0,0,1,312,88Z" style="fill:#93ad10"/><path d="M272,208h27.15562A53.8962,53.8962,0,0,1,344,232l0,0h16l16-16,0,0a53.8962,53.8962,0,0,1,44.84436-24h.0001A67.15552,67.15552,0,0,1,488,259.15552V296A104,104,0,0,1,384,400H232V288Z" style="fill:#e04f2b"/><path d="M344,248v-.00006a261.78926,261.78926,0,0,0-14.64677-124.3913l-6.77029-18.0541L340.898,81.17562l13.12542,28.87592a263.14012,263.14012,0,0,1,21.97673,137.94705L376,248Z" style="fill:#b1712c"/><path d="M248,304l0,0a53.8962,53.8962,0,0,1,44.84436-24h.0001A67.15552,67.15552,0,0,1,360,347.15552v12.84461A127.99987,127.99987,0,0,1,232.00013,488h-.00026A127.99987,127.99987,0,0,1,104,360.00013V347.15552A67.15552,67.15552,0,0,1,171.15552,280h.0001A53.8962,53.8962,0,0,1,216,304l0,0Z" style="fill:#ef5e3b"/><path d="M312,88l-9.39014,12.52L213.6001,219.2A152.02316,152.02316,0,0,1,92,280H24l8.59009-12.88,74.28979-111.43A151.99352,151.99352,0,0,1,233.3501,88Z" style="fill:#b9cd2a"/><path d="M312,88l-9.39014,12.52-88.41992,36.41a64.8817,64.8817,0,0,0-38.61987,45.9,81.421,81.421,0,0,1-44.51,55.63L42.79,280H24l8.59009-12.88L124.25,223.98a65.28788,65.28788,0,0,0,35.7-44.62,80.92656,80.92656,0,0,1,48.15015-57.23L290.99023,88Z" style="fill:#acc221"/><path d="M216,336v-.00009A317.7076,317.7076,0,0,1,261.27558,172.5407L336,48l24,16L284.27868,193.808A266.322,266.322,0,0,0,248,327.99993V328Z" style="fill:#c78640"/><path d="M233.57812,344H176V328h57.57812a39.5091,39.5091,0,0,0,21.98438-6.65625A55.45584,55.45584,0,0,1,286.42188,312H312v16H286.42188a39.5091,39.5091,0,0,0-21.98438,6.65625A55.45584,55.45584,0,0,1,233.57812,344Z" style="fill:#e04f2b"/><path d="M361.57813,256H304V240h57.57813a39.50909,39.50909,0,0,0,21.98437-6.65625A55.45584,55.45584,0,0,1,414.42188,224H440v16H414.42188a39.5091,39.5091,0,0,0-21.98438,6.65625A55.45584,55.45584,0,0,1,361.57813,256Z" style="fill:#e04f2b"/><path d="M361.57812,256H304V240h57.57812a39.5091,39.5091,0,0,0,21.98438-6.65625A55.45584,55.45584,0,0,1,414.42188,224H440v16H414.42188a39.5091,39.5091,0,0,0-21.98438,6.65625A55.45584,55.45584,0,0,1,361.57812,256Z" style="fill:#d14521"/></svg>
