<svg id="Flat" height="512" viewBox="0 0 512 512" width="512" xmlns="http://www.w3.org/2000/svg"><g fill="#f7cc38"><path d="m431.165 192.125-7.165-136.125h-48l-7.165 136.125a63.952 63.952 0 0 0 -32.835 55.875v192h128v-192a63.952 63.952 0 0 0 -32.835-55.875z"/><path d="m287.165 192.125-7.165-136.125h-48l-7.165 136.125a63.952 63.952 0 0 0 -32.835 55.875v192h128v-192a63.952 63.952 0 0 0 -32.835-55.875z"/><path d="m143.165 192.125-7.165-136.125h-48l-7.165 136.125a63.952 63.952 0 0 0 -32.835 55.875v192h128v-192a63.952 63.952 0 0 0 -32.835-55.875z"/></g><path d="m24 248v240h464v-240zm288 64a16 16 0 0 1 -16 16h-80a16 16 0 0 1 -16-16 16 16 0 0 1 16-16h80a16 16 0 0 1 16 16z" fill="#ad6643"/><path d="m368 24h64v32h-64z" fill="#d4a811"/><path d="m224 24h64v32h-64z" fill="#d4a811"/><path d="m80 24h64v32h-64z" fill="#d4a811"/><path d="m24 376h464v56h-464z" fill="#95573a"/><path d="m24 432h464v56h-464z" fill="#7a4830"/></svg>