<svg id="Capa_1" enable-background="new 0 0 495 495" height="512" viewBox="0 0 495 495" width="512" xmlns="http://www.w3.org/2000/svg"><g><path d="m432.199 268.674h60v30h-60z" fill="#e5f2fa"/><path d="m434.199 328.674h58v30h-58z" fill="#e5f2fa"/><path d="m284.533 381v20.5c0 35.014-28.366 63.5-63.231 63.5s-63.231-28.486-63.231-63.5v-48.482h-29.873v48.482c0 51.556 41.767 93.5 93.104 93.5s93.104-41.944 93.104-93.5v-20.5c0-27.019 21.888-49 48.792-49v-30c-43.375 0-78.665 35.439-78.665 79z" fill="#cad4e4"/><path d="m453.199 239h-42.5c-33.911 0-61.5 27.589-61.5 61.5v13.5l55 13 49-13z" fill="#6354b1"/><path d="m349.199 314v13.5c0 33.911 27.589 61.5 61.5 61.5h42.5v-75z" fill="#463b84"/><path d="m2.801 140.397c0 1.077.013 2.151.037 3.225.634 28.072 11.429 55.511 30.397 77.264l14.503 16.631c14.881 17.063 23.075 38.929 23.075 61.568l11.385 14.346 61 10.399 20-147.83-20-176c-77.414 0-140.397 62.982-140.397 140.397z" fill="#fc0"/><path d="m143.199 0v323.83l57-9.717 15.385-15.028c0-22.639 8.194-44.504 23.074-61.567l14.505-16.632c18.968-21.752 29.763-49.191 30.396-77.266.024-1.071.037-2.145.037-3.222 0-77.416-62.982-140.398-140.397-140.398z" fill="#ffaf00"/><path d="m70.814 125.817v185.673l30 17.51v-157.02l42.385 18.838 8-17.818-8-15.012z" fill="#ffe370"/><path d="m143.199 157.988v32.83l42.384-18.838v151.02l30-11.51v-185.673z" fill="#fc0"/><path d="m70.814 311.49v23.248l30.462 51.262h41.923l14-41-14-33.51z" fill="#e5f2fa"/><path d="m143.199 311.49v74.51h41.923l30.461-51.262v-23.248z" fill="#cee9f8"/></g></svg>