<svg id="Capa_1" enable-background="new 0 0 512 512" height="512" viewBox="0 0 512 512" width="512" xmlns="http://www.w3.org/2000/svg"><g><path d="m320.512 331.585 76.764 34.304 34.324 76.741-35.817 35.803c-44.774 44.756-117.625 44.756-162.399 0l-51.112-51.092-41.717-55.844-.113-.085-55.746-41.609-51.112-51.092c-44.774-44.756-44.781-117.586-.007-162.342l36.093-36.079 76.495 34.587 34.601 76.465-21.499 21.49 21.223 21.215 41.625 55.724.085.113 55.866 41.701 21.223 21.215z" fill="#8dd4ff"/><path d="m397.275 365.889 34.325 76.741-35.817 35.803c-44.774 44.756-117.625 44.756-162.399 0l-51.112-51.092-41.717-55.844-.113-.085 81.673-81.641.085.113 55.866 41.701 21.223 21.215 21.223-21.215z" fill="#45afff"/><path d="m113.658 261.711h135.446v137.967h-135.446z" fill="#45afff" transform="matrix(.707 -.707 .707 .707 -180.732 225.185)"/><path d="m357.27 0 154.73 154.669-112.128 112.084-46.45-46.432-61.837.007.007-61.812-46.45-46.432z" fill="#ff7f3b"/><path d="m116.433 36.061h60.016v157.082h-60.016z" fill="#fbf3f3" transform="matrix(.707 -.707 .707 .707 -38.14 137.152)"/><path d="m367.214 287.219h60.406v157.072h-60.406z" fill="#e8e3f0" transform="matrix(.707 -.707 .707 .707 -142.223 388.25)"/><path d="m142.048 25.453h30.008v157.082h-30.008z" fill="#e8e3f0" transform="matrix(.707 -.707 .707 .707 -27.528 141.548)"/><path d="m393.162 276.474h30.008v157.072h-30.008z" fill="#d3cbe4" transform="matrix(.707 -.707 .707 .707 -131.488 392.491)"/><path d="m138.001 320.463h135.446v69.128h-135.446z" fill="#1384ea" transform="matrix(.707 -.707 .707 .707 -190.766 249.376)"/><path d="m434.635 77.335 77.365 77.334-112.128 112.084-46.45-46.432-61.837.007z" fill="#ff3044"/></g></svg>