<svg height="512pt" viewBox="0 -76 512 512" width="512pt" xmlns="http://www.w3.org/2000/svg"><path d="m27.101562 0h457.796876v278.75h-457.796876zm0 0" fill="#84caff"/><path d="m256 0h228.898438v278.75h-228.898438zm0 0" fill="#97a1f0"/><g fill="#e0e4fa"><path d="m120.5 57.738281h271v30h-271zm0 0"/><path d="m120.5 118.738281h271v30h-271zm0 0"/><path d="m120.5 179.738281h217.5v30h-217.5zm0 0"/></g><path d="m256 179.738281h82v30h-82zm0 0" fill="#c4c9f7"/><path d="m256 57.738281h135.5v30h-135.5zm0 0" fill="#c4c9f7"/><path d="m256 118.738281h135.5v30h-135.5zm0 0" fill="#c4c9f7"/><path d="m512 263.75v53.761719c0 23.136719-18.828125 41.96875-41.980469 41.96875h-428.039062c-23.152344 0-41.980469-18.832031-41.980469-41.96875v-53.761719h230v10.25h52v-10.25zm0 0" fill="#0087ff"/><path d="m512 263.75v53.761719c0 23.136719-18.828125 41.96875-41.980469 41.96875h-214.019531v-85.480469h26v-10.25zm0 0" fill="#4b5be4"/></svg>