<svg height="512" viewBox="0 0 58 52" width="512" xmlns="http://www.w3.org/2000/svg"><g id="Page-1" fill="none" fill-rule="evenodd"><g id="005---Thinking-about-Copy" fill-rule="nonzero"><g fill="#8697cb"><circle id="Oval" cx="14" cy="43" r="5"/><circle id="Oval" cx="3" cy="49" r="3"/><path id="Shape" d="m22.905 0c-3.3242025.00258253-6.3688421 1.86077338-7.891 4.816-.6285782-.13339322-1.2694238-.20042727-1.912-.2-5.11385312.00606136-9.25793864 4.15014688-9.264 9.264-.00010525.4137618.02795964.8270508.084 1.237-3.61604165 2.2446455-4.9451735 6.8626828-3.07561617 10.6861558 1.86955733 3.8234731 6.33049041 5.6103518 10.32261617 4.1348442 1.8993686 2.9992468 5.1999237 4.8196444 8.75 4.826.349031.0000149.6978296-.0180092 1.045-.054 2.429009 2.8734336 6.5087397 3.7117741 9.874 2.029 2.0957926 2.3732952 5.2039855 3.5954948 8.3549653 3.2853286 3.1509798-.3101663 5.9612125-2.1149451 7.5540347-4.8513286 6.0397897-.0826013 10.9726665-4.8504215 11.2606938-10.8839049.2880273-6.0334835-4.1682386-11.2495239-10.1726938-11.9070951-.2124187-4.186624-2.6525304-7.93820239-6.3935069-9.82977238-3.7409765-1.89157-8.2088141-1.63289501-11.7064931.67777238-1.6808578-2.04160015-4.1854965-3.22607793-6.83-3.23z"/></g><path id="Shape" d="m43.839 13.583c-.5333335.0006671-.9733337-.4173332-1-.95-.1786005-3.55262839-3.1128867-6.34042026-6.67-6.337-.5522847 0-1-.44771525-1-1s.4477153-1 1-1c4.6228606-.00470354 8.4360992 3.61890707 8.667 8.236.0277644.5514115-.396601 1.0209888-.948 1.049z" fill="#fff"/><path id="Shape" d="m19.84 12.22-2.46 7.95-5.09-1.58c-1.5817523-.4894273-2.46792438-2.1677834-1.98-3.75l.69-2.22c.2349322-.7619273.7635084-1.3989907 1.4689939-1.7704964.7054856-.3715057 1.5298398-.4468897 2.2910061-.2095036z" fill="#ff5364"/><path id="Shape" d="m23.82 13.45-2.47 7.95-3.97-1.23 2.46-7.95z" fill="#bdc3c7"/><path id="Shape" d="m42.89 19.38-2.45 7.91c-.148 0 .987.336-19.09-5.89l2.47-7.95c20.062 6.221 18.938 5.864 19.07 5.93z" fill="#f3d55b"/><path id="Shape" d="m46.58 22.27-1.46 4.73c-4.743.314-4.569.312-4.68.29l2.45-7.91c.1.04-.05-.062 3.69 2.89z" fill="#fdd7ad"/><path id="Shape" d="m49.84 26.69-4.72.31 1.46-4.73 3.72 2.93c.2709825.2140475.3824722.5726805.2806065.9026369s-.3961213.5633258-.7406065.5873631z" fill="#464f5d"/></g></g></svg>