<svg id="Layer_1" enable-background="new 0 0 512 512" height="512" viewBox="0 0 512 512" width="512" xmlns="http://www.w3.org/2000/svg"><g><path d="m360.96 243.757h-35.923c-36.431 0-66.07 29.639-66.07 66.07v8.796c0 8.284 6.716 15 15 15h35.923c36.431 0 66.07-29.639 66.07-66.07v-8.796c-.001-8.285-6.716-15-15-15z" fill="#009398"/><path d="m369.248 441.056-16.86 60.002c-1.818 6.471-7.718 10.942-14.439 10.942h-163.898c-6.721 0-12.622-4.471-14.44-10.942l-16.86-60.002c-1.27-4.52-.351-9.374 2.485-13.116 2.835-3.742 7.26-5.941 11.955-5.941h197.617c4.695 0 9.12 2.198 11.955 5.941 2.836 3.742 3.756 8.596 2.485 13.116z" fill="#9d4f14"/><path d="m256 176.394c-8.284 0-15 6.715-15 15v185.231c0 8.284 6.716 15 15 15s15-6.716 15-15v-185.232c0-8.284-6.716-14.999-15-14.999z" fill="#00da80"/><path d="m256 176.394v215.23c8.284 0 15-6.716 15-15v-185.231c0-8.284-6.716-14.999-15-14.999z" fill="#00b9a0"/><path d="m360.96 112.572c2.769-3.675 4.851-7.96 6.144-12.785 5.523-20.614-5.019-46.066-23.501-56.737-4.326-2.498-8.829-4.056-13.385-4.696-.64-4.556-2.198-9.059-4.695-13.385-10.672-18.481-36.124-29.023-56.738-23.5-4.825 1.293-9.11 3.375-12.785 6.144-3.675-2.769-7.96-4.851-12.785-6.144-20.615-5.524-46.067 5.019-56.737 23.501-2.497 4.326-4.056 8.829-4.695 13.385-4.556.64-9.059 2.198-13.385 4.696-18.482 10.671-29.024 36.123-23.501 56.737 1.293 4.825 3.375 9.11 6.144 12.785-2.769 3.675-4.851 7.96-6.144 12.785-5.523 20.614 5.019 46.066 23.501 56.737 4.326 2.498 8.829 4.056 13.385 4.696.64 4.556 2.198 9.059 4.695 13.385 8.75 15.154 27.434 24.971 45.243 24.97 3.911 0 7.783-.474 11.495-1.468 4.825-1.293 9.11-3.375 12.785-6.144 3.675 2.769 7.96 4.851 12.785 6.144 3.713.995 7.583 1.469 11.495 1.469 17.808 0 36.494-9.817 45.243-24.97 2.497-4.326 4.056-8.829 4.695-13.385 4.556-.64 9.059-2.198 13.385-4.696 18.482-10.671 29.024-36.123 23.501-56.737-1.294-4.827-3.376-9.112-6.145-12.787z" fill="#ff4d4d"/><path d="m366.763 427.94c-2.835-3.742-7.26-5.941-11.955-5.941h-98.808v90.001h81.949c6.721 0 12.622-4.471 14.44-10.942l16.86-60.002c1.27-4.52.35-9.374-2.486-13.116z" fill="#804012"/><path d="m280.28 225.145c17.808 0 36.494-9.817 45.243-24.97 2.497-4.326 4.056-8.829 4.695-13.385 4.556-.64 9.059-2.198 13.385-4.696 18.482-10.671 29.024-36.123 23.501-56.737-1.293-4.825-3.375-9.11-6.144-12.785 2.769-3.675 4.851-7.96 6.144-12.785 5.523-20.614-5.019-46.066-23.501-56.737-4.326-2.498-8.829-4.056-13.385-4.696-.64-4.556-2.198-9.059-4.695-13.385-10.672-18.481-36.124-29.023-56.738-23.5-4.825 1.293-9.11 3.375-12.785 6.144v209.919c3.675 2.769 7.96 4.851 12.785 6.144 3.713.995 7.583 1.469 11.495 1.469z" fill="#e20059"/><path d="m381.996 361.625h-251.992c-8.284 0-15 6.716-15 15v59.992c0 8.284 6.716 15 15 15h251.992c8.284 0 15-6.716 15-15v-59.992c0-8.285-6.716-15-15-15z" fill="#b95e1a"/><path d="m381.996 361.625h-125.996v89.991h125.996c8.284 0 15-6.716 15-15v-59.992c0-8.284-6.716-14.999-15-14.999z" fill="#9d4f14"/></g></svg>