<svg id="Capa_1" enable-background="new 0 0 512 512" height="512" viewBox="0 0 512 512" width="512" xmlns="http://www.w3.org/2000/svg"><g><path d="m165.667 73-42.333 24.667-42.334-24.667v-68c0-2.761 2.239-5 5-5h74.667c2.761 0 5 2.239 5 5z" fill="#8dc5e8"/><path d="m431 73-43.25 24.667-41.417-24.667v-68c0-2.761 2.239-5 5-5h74.667c2.761 0 5 2.239 5 5z" fill="#5e9ff6"/><path d="m0 183.08v318.92c0 5.52 4.48 10 10 10h281.5l-35.5-375.67z" fill="#fff5f5"/><path d="m512 183.08v318.92c0 5.52-4.48 10-10 10h-246v-375.67z" fill="#e1ebf0"/><path d="m256 73 35.5 55.04-35.5 55.04h-256v-100.08c0-5.52 4.48-10 10-10z" fill="#0b799d"/><path d="m512 83v100.08h-256v-110.08h246c5.52 0 10 4.48 10 10z" fill="#07485e"/><path d="m256 244.28 30.333 57.387-30.333 83.783-8.01 33.48c-4.85 20.24-24.53 33.8-46.79 32.24-18.83-1.32-34.81-13.97-39.69-31.11-.6-1.45-1.11-3.04-1.67-4.77-.97-3.02-2.22-7.08-3.51-11.44-1.98-6.69-5.9-20.27-9.9-36.12-9.48-37.64-13.45-64.11-11.8-78.7 1.82-15.98 9.75-30.87 22.33-41.93 12.4-10.9 28.58-17.37 45.56-18.21 17.4-.87 34.51 4.02 48.19 13.75 1.53 1.09 3.4 1.64 5.29 1.64z" fill="#8dc5e8"/><path d="m365.57 367.73c-5.745 22.764-13.127 47.61-15.08 52.33-4.88 17.14-20.86 29.79-39.69 31.11-22.485 1.552-41.987-12.171-46.79-32.24l-8.01-33.48v-141.17c1.88 0 3.76-.54 5.29-1.64 13.68-9.73 30.81-14.62 48.19-13.75 35.4 1.75 64.161 27.401 67.89 60.14 1.65 14.59-2.32 41.06-11.8 78.7z" fill="#5e9ff6"/></g></svg>