<svg id="Capa_1" enable-background="new 0 0 512 512" height="512" viewBox="0 0 512 512" width="512" xmlns="http://www.w3.org/2000/svg"><g><path d="m446.271 428.5-210.271-20 20 65h160.271z" fill="#895140"/><path d="m65.729 428.5 30 45h160.271v-65z" fill="#c9885b"/><path d="m452 368.5h-56.963v-30h56.963c16.542 0 30-13.458 30-30s-13.458-30-30-30h-45v-30h45c33.084 0 60 26.916 60 60s-26.916 60-60 60z" fill="#f7ecd9"/><path d="m256 218.5-20 210h118.127l4.072-3.186c40.546-31.717 63.801-79.397 63.801-130.814v-76z" fill="#edd7b0"/><path d="m90 218.5v76c0 51.417 23.255 99.097 63.801 130.814l4.072 3.186h98.127v-210z" fill="#f7ecd9"/><path d="m271 173.5c0-8.271 6.729-15 15-15h91c24.813 0 45-20.187 45-45s-20.187-45-45-45h-121l-10 15.268 10 14.732h121c8.271 0 15 6.729 15 15s-6.729 15-15 15h-91c-11.517 0-22.032 4.354-30 11.495l-10 27.253 10 21.253h15z" fill="#ece6f2"/><path d="m135 68.5c-8.271 0-15-6.729-15-15v-15h-30v15c0 24.813 20.187 45 45 45h121v-30z" fill="#fff5f5"/><path d="m241 173.5v15h15v-48.505c-9.199 8.245-15 20.208-15 33.505z" fill="#fff5f5"/><path d="m512 398.5h-256l-10 15 10 15h256z" fill="#c9885b"/><path d="m0 398.5h256v30h-256z" fill="#e1bb78"/></g></svg>