<svg id="Capa_1" enable-background="new 0 0 512 512" height="512" viewBox="0 0 512 512" width="512" xmlns="http://www.w3.org/2000/svg"><g id="Medal_45_"><g><path d="m191.203.901c-3.904 1.199-6.903 3.898-8.701 7.798l-54.002 116.002c-3.3 6.899-.901 15.298 5.999 19.199l114.001 66c2.402 1.5 4.797 2.1 7.5 2.1 1.802 0 3.3-.3 4.797-.901l-4.647-103.649z" fill="#e63950"/><path d="m377.501 143.899-114.001 66c-.901.601-1.802.901-2.703 1.199l-69.594-210.197c1.497-.601 3.296-.901 4.797-.901h120c5.698 0 11.1 3.3 13.499 8.699l54.001 116.002c3.3 6.899.901 15.298-5.999 19.198z" fill="#ff6c6c"/></g></g><g><g><path d="m256 272c-24.814 0-45-20.186-45-45s20.186-45 45-45 45 20.186 45 45-20.186 45-45 45zm0-60c-8.262 0-15 6.724-15 15s6.738 15 15 15 15-6.724 15-15-6.738-15-15-15z" fill="#fabe2c"/></g><path d="m301 227c0-24.814-20.186-45-45-45-.015 0-.022.004-.037.004v30.004c.015 0 .022-.007.037-.007 8.262 0 15 6.724 15 15s-6.738 15-15 15c-.015 0-.022-.007-.037-.007v30.004c.015 0 .022.004.037.004 24.814-.002 45-20.188 45-45.002z" fill="#ff9100"/><g><path d="m256 512c-74.443 0-135-60.557-135-135s60.557-135 135-135 135 60.557 135 135-60.557 135-135 135z" fill="#fed843"/></g><path d="m255.963 511.996c.015 0 .022.004.037.004 74.443 0 135-60.557 135-135s-60.557-135-135-135c-.015 0-.022.004-.037.004z" fill="#fabe2c"/><g><path d="m279.936 432.796-23.936-12.437-23.936 12.437c-5.01 2.593-11.133 2.139-15.732-1.172-4.6-3.34-6.914-8.994-5.977-14.59l4.395-26.646c-12.149-14.321-27.463-20.426-22.939-34.263 1.758-5.391 6.416-9.346 12.041-10.195l26.66-4.014 12.07-24.126c5.098-10.166 21.738-10.166 26.836 0l12.07 24.126 26.66 4.014c5.625.85 10.283 4.805 12.041 10.195 1.758 5.405.322 11.338-3.75 15.322l-19.189 18.94 4.395 26.646c.938 5.596-1.377 11.25-5.977 14.59-4.569 3.312-10.681 3.801-15.732 1.173z" fill="#fabe2c"/></g><path d="m255.963 420.378.037-.018 23.936 12.437c5.054 2.628 11.162 2.139 15.732-1.172 4.6-3.34 6.914-8.994 5.977-14.59l-4.395-26.646 19.189-18.94c4.072-3.984 5.508-9.917 3.75-15.322-1.758-5.391-6.416-9.346-12.041-10.195l-26.66-4.014-12.07-24.126c-2.556-5.096-8.005-7.628-13.455-7.615z" fill="#ff9100"/></g></svg>