<?xml version="1.0" encoding="iso-8859-1"?>
<!-- Generator: Adobe Illustrator 19.0.0, SVG Export Plug-In . SVG Version: 6.00 Build 0)  -->
<svg version="1.1" id="Capa_1" xmlns="http://www.w3.org/2000/svg" xmlns:xlink="http://www.w3.org/1999/xlink" x="0px" y="0px"
	 viewBox="0 0 512.022 512.022" style="enable-background:new 0 0 512.022 512.022;" xml:space="preserve">
<g>
	<path style="fill:#B0BEC5;" d="M505.835,91.268c-3.338-1.84-7.405-1.759-10.667,0.213l-58.283,35.029
		c-17.564-9.006-29.339-26.328-31.253-45.973l65.195-39.104c5.053-3.028,6.695-9.579,3.667-14.632
		c-0.645-1.076-1.475-2.03-2.451-2.818C453.592,8.816,430.538,0.362,406.656,0.004c-28.329,0.422-55.21,12.592-74.219,33.6
		c-21.479,19.794-33.721,47.655-33.771,76.864c0.109,15.685-6.323,30.705-17.749,41.451l-30.635,30.72
		c-4.164,4.165-4.164,10.917,0,15.083c5.857,5.865,13.001,10.284,20.864,12.907c11.836,4.536,22.434,11.802,30.933,21.205
		c1.349,1.667,1.349,4.05,0,5.717l-16.213,16.32c-4.164,4.165-4.164,10.917,0,15.083l10.667,10.667
		c4.165,4.164,10.917,4.164,15.083,0l69.419-69.419c7.936,2.059,16.1,3.113,24.299,3.136c29.375-0.05,57.441-12.158,77.632-33.493
		c20.264-21.358,30.715-50.192,28.843-79.573C511.438,96.463,509.199,93.089,505.835,91.268z"/>
	<path style="fill:#B0BEC5;" d="M279.467,296.538L268.8,285.871c-4.165-4.164-10.917-4.164-15.083,0l-16.277,16.277
		c-1.861,1.42-4.488,1.228-6.123-0.448c-9.219-8.402-16.336-18.852-20.779-30.507c-2.602-7.842-6.982-14.976-12.8-20.843
		c-4.165-4.164-10.917-4.164-15.083,0l-32.192,32.107c-11.776,10.986-27.448,16.822-43.541,16.213h-0.256
		C47.786,298.742,0.071,346.457,0,405.338c0.065,3.652,0.386,7.294,0.96,10.901l0.341,2.517c0.752,5.843,6.098,9.97,11.941,9.217
		c1.458-0.188,2.862-0.675,4.123-1.431l68.416-41.045c17.563,8.996,29.34,26.312,31.253,45.952l-71.36,42.837
		c-5.052,3.03-6.692,9.582-3.662,14.634c0.755,1.259,1.762,2.349,2.958,3.201c17.926,12.88,39.431,19.832,61.504,19.883h0.192
		c28.132-0.759,54.698-13.112,73.408-34.133c21.188-19.707,33.234-47.331,33.259-76.267c-0.087-15.737,6.364-30.803,17.813-41.6
		l48.32-48.533c4.164-4.165,4.164-10.917,0-15.083V296.538z"/>
</g>
<path style="fill:#CFD8DC;" d="M510.869,475.226l-36.779-73.536c-5.389-10.863-16.482-17.721-28.608-17.685h-14.4L306.197,259.119
	c-4.165-4.164-10.917-4.164-15.083,0l-32,32c-4.164,4.165-4.164,10.917,0,15.083L384,431.087v14.4
	c-0.049,12.135,6.812,23.241,17.685,28.629l73.536,36.779c4.107,2.05,9.065,1.242,12.309-2.005l21.333-21.333
	C512.121,484.309,512.93,479.338,510.869,475.226z"/>
<path style="fill:#F44336;" d="M316.693,216.282c-10.698-11.589-23.999-20.466-38.805-25.899
	c-9.545-3.208-17.037-10.7-20.245-20.245c-5.431-14.807-14.309-28.109-25.899-38.805L118.613,18.202
	c-24.594-23.457-63.278-23.457-87.872,0L18.197,30.724c-24.248,24.272-24.248,63.6,0,87.872l113.067,113.067
	c10.698,11.589,23.999,20.466,38.805,25.899c9.545,3.208,17.037,10.7,20.245,20.245c5.533,14.972,14.55,28.412,26.304,39.211
	c4.75,4.806,11.227,7.51,17.984,7.509l0,0c6.729,0.015,13.183-2.666,17.92-7.445l64.533-64.533
	c9.915-10.079,9.782-26.288-0.297-36.203C316.737,216.324,316.715,216.303,316.693,216.282z"/>
<g>
</g>
<g>
</g>
<g>
</g>
<g>
</g>
<g>
</g>
<g>
</g>
<g>
</g>
<g>
</g>
<g>
</g>
<g>
</g>
<g>
</g>
<g>
</g>
<g>
</g>
<g>
</g>
<g>
</g>
</svg>
