<?xml version="1.0" encoding="iso-8859-1"?>
<!-- Generator: Adobe Illustrator 19.0.0, SVG Export Plug-In . SVG Version: 6.00 Build 0)  -->
<svg xmlns="http://www.w3.org/2000/svg" xmlns:xlink="http://www.w3.org/1999/xlink" version="1.1" id="Layer_1" x="0px" y="0px" viewBox="0 0 511.893 511.893" style="enable-background:new 0 0 511.893 511.893;" xml:space="preserve">
<path style="fill:#8AD7F8;" d="M52.83,165.333C52.83,131.2,114.697,38.4,114.697,38.4s61.867,92.8,61.867,126.933  S148.83,227.2,114.697,227.2S52.83,199.467,52.83,165.333z"/>
<path style="fill:#FFFFFF;" d="M115.763,211.2c25.6,0,45.867-20.267,45.867-45.867c0-3.2-2.133-5.333-5.333-5.333  s-5.333,2.133-5.333,5.333c0,19.2-14.933,34.133-34.133,34.133c-3.2,0-5.333,2.133-5.333,5.333  C111.497,208,112.563,211.2,115.763,211.2z"/>
<path style="fill:#8AD7F8;" d="M171.23,76.8c0-20.267,37.333-76.8,37.333-76.8s37.333,55.467,37.333,76.8  s-17.067,37.333-37.333,37.333S171.23,97.067,171.23,76.8z"/>
<path style="fill:#FFFFFF;" d="M208.563,103.467c14.933,0,27.733-12.8,27.733-27.733c0-2.133-1.067-3.2-3.2-3.2  c-2.133,0-3.2,1.067-3.2,3.2c0,11.733-9.6,20.267-20.267,20.267c-2.133,0-3.2,1.067-3.2,3.2S206.43,103.467,208.563,103.467z"/>
<path style="fill:#FFD15C;" d="M303.497,418.133L414.43,307.2l-70.4-70.4c-6.4-6.4-13.867-9.6-22.4-9.6h-140.8  c-18.133,0-33.067,16-30.933,34.133c1.067,16,16,27.733,33.067,27.733h54.4c9.6,0,18.133,7.467,18.133,18.133  c0,9.6-7.467,18.133-18.133,18.133H142.43L52.83,236.8c-12.8-12.8-34.133-11.733-45.867,2.133c-10.667,12.8-8.533,30.933,3.2,42.667  l97.067,97.067c6.4,6.4,13.867,9.6,22.4,9.6h144L303.497,418.133z"/>
<rect x="353.801" y="262.829" transform="matrix(0.7071 0.7071 -0.7071 0.7071 368.2051 -152.0702)" style="fill:#ADB3BA;" width="27.733" height="211.198"/>
<rect x="367.661" y="283.973" transform="matrix(-0.7071 -0.7071 0.7071 -0.7071 402.8287 972.6684)" style="fill:#344A5E;" width="70.399" height="237.864"/>
<g>
</g>
<g>
</g>
<g>
</g>
<g>
</g>
<g>
</g>
<g>
</g>
<g>
</g>
<g>
</g>
<g>
</g>
<g>
</g>
<g>
</g>
<g>
</g>
<g>
</g>
<g>
</g>
<g>
</g>
</svg>
