<svg id="Flat" height="512" viewBox="0 0 64 64" width="512" xmlns="http://www.w3.org/2000/svg"><path d="m51 15h-1a12 12 0 0 0 -24 0h-1a10 10 0 0 0 0 20h26a10 10 0 0 0 0-20z" fill="#56a9d0"/><path d="m28 30h26v2h-26z" fill="#4a91b2"/><path d="m39 27h-1a12 12 0 0 0 -24 0h-1a10 10 0 0 0 0 20h26a10 10 0 0 0 0-20z" fill="#66bae1"/><path d="m45 14h2v2h-2z" fill="#4a91b2"/><path d="m45 10h2v2h-2z" fill="#4a91b2"/><g fill="#9ecce3"><path d="m12 42h26v2h-26z"/><path d="m40 42h2v2h-2z"/><path d="m17 26h2v2h-2z"/><path d="m17 22h2v2h-2z"/></g><g fill="#f8cb3f"><path d="m13 51h-2v10l8-10h2v-12z"/><path d="m29 51h-2v10l8-10h2v-12z"/></g></svg>