<?xml version="1.0" encoding="iso-8859-1"?>
<!-- Generator: Adobe Illustrator 19.0.0, SVG Export Plug-In . SVG Version: 6.00 Build 0)  -->
<svg version="1.1" id="Capa_1" xmlns="http://www.w3.org/2000/svg" xmlns:xlink="http://www.w3.org/1999/xlink" x="0px" y="0px"
	 viewBox="0 0 512 512" style="enable-background:new 0 0 512 512;" xml:space="preserve">
<path style="fill:#BD2B0F;" d="M181.456,128.377L64.072,10.993c-14.657-14.657-38.422-14.657-53.079,0l0,0l133.916,153.932
	L181.456,128.377z"/>
<path style="fill:#DB5925;" d="M10.993,10.993L10.993,10.993c-14.657,14.657-14.657,38.422,0,53.079l117.384,117.384l26.54-26.54
	L10.993,10.993z"/>
<path style="fill:#BDC4CB;" d="M512,512c-13.746-78.327-56.248-148.697-119.177-197.318l-31.702-24.495
	c-17.373-13.423-33.313-28.603-47.569-45.299l-81.906-95.928l-59.036-11.736l-17.693,17.693L253,293.667L512,512L512,512z"/>
<path style="fill:#DCE4EC;" d="M154.917,154.917l-17.693,17.693l11.736,59.036l95.928,81.906
	c16.696,14.255,31.876,30.196,45.299,47.569l24.495,31.702C363.303,455.752,433.673,498.254,512,512L154.917,154.917z"/>
<polygon style="fill:#788B9E;" points="246.435,84.61 225.223,63.397 144.31,144.31 144.909,164.925 165.523,165.523 "/>
<rect x="57.24" y="180.368" transform="matrix(-0.7071 0.7071 -0.7071 -0.7071 333.5311 252.5822)" style="fill:#BDC4CB;" width="114.429" height="30"/>
<g>
</g>
<g>
</g>
<g>
</g>
<g>
</g>
<g>
</g>
<g>
</g>
<g>
</g>
<g>
</g>
<g>
</g>
<g>
</g>
<g>
</g>
<g>
</g>
<g>
</g>
<g>
</g>
<g>
</g>
</svg>
