<svg id="Flat" height="512" viewBox="0 0 512 512" width="512" xmlns="http://www.w3.org/2000/svg"><rect fill="#ffb632" height="320" rx="32" width="464" x="24" y="32"/><path d="m488 64v9.27l-211.77 124.14a40.018 40.018 0 0 1 -40.46 0l-211.77-124.14v-9.27a31.906 31.906 0 0 1 .99-7.93 7.824 7.824 0 0 1 3.06 1.03l215.81 126.51a24.027 24.027 0 0 0 24.28 0l215.81-126.51a7.824 7.824 0 0 1 3.06-1.03 31.906 31.906 0 0 1 .99 7.93z" fill="#e09f2c"/><path d="m408 208c-104.4 0-192 87.148-192 192h-48l80 80 88-80h-56c0-104.852 79.881-192 128-192z" fill="#fbe9d8"/></svg>