<?xml version="1.0" encoding="iso-8859-1"?>
<!-- Generator: Adobe Illustrator 19.0.0, SVG Export Plug-In . SVG Version: 6.00 Build 0)  -->
<svg xmlns="http://www.w3.org/2000/svg" xmlns:xlink="http://www.w3.org/1999/xlink" version="1.1" id="Capa_1" x="0px" y="0px" viewBox="0 0 512 512" style="enable-background:new 0 0 512 512;" xml:space="preserve">
<path style="fill:#DBDBDB;" d="M68.988,443.012c-30.173-30.173-30.173-79.094,0-109.267l132.378-132.378  c30.173-30.173,79.094-30.173,109.267,0l30.959-1.821l1.821-30.959c-48.277-48.277-126.551-48.277-174.828,0L36.208,300.965  c-48.277,48.277-48.277,126.551,0,174.828l30.959-1.821L68.988,443.012z"/>
<path style="fill:#9F9F9F;" d="M300.965,36.208L168.586,168.586c-48.277,48.277-48.277,126.551,0,174.828l30.959-1.821l1.821-30.959  c-30.173-30.173-30.173-79.094,0-109.267L333.745,68.988c30.173-30.173,79.094-30.173,109.267,0l30.959-1.821l1.821-30.959  C427.515-12.069,349.242-12.069,300.965,36.208z"/>
<path style="fill:#808080;" d="M168.586,343.414c48.277,48.277,126.551,48.277,174.828,0  c26.453-26.453,105.925-105.925,132.378-132.378c48.277-48.277,48.277-126.551,0-174.828l-32.78,32.78  c30.173,30.173,30.173,79.094,0,109.267L310.634,310.634c-30.173,30.173-79.094,30.173-109.267,0L168.586,343.414z"/>
<path style="fill:#BFBFBF;" d="M310.634,201.367c30.173,30.173,30.173,79.094,0,109.267L178.256,443.012  c-30.173,30.173-79.094,30.173-109.267,0l-32.78,32.78c48.277,48.277,126.551,48.277,174.828,0l132.378-132.378  c48.277-48.277,48.277-126.551,0-174.828L310.634,201.367z"/>
<g>
</g>
<g>
</g>
<g>
</g>
<g>
</g>
<g>
</g>
<g>
</g>
<g>
</g>
<g>
</g>
<g>
</g>
<g>
</g>
<g>
</g>
<g>
</g>
<g>
</g>
<g>
</g>
<g>
</g>
</svg>
