<?xml version="1.0" encoding="iso-8859-1"?>
<!-- Generator: Adobe Illustrator 19.0.0, SVG Export Plug-In . SVG Version: 6.00 Build 0)  -->
<svg version="1.1" id="Capa_1" xmlns="http://www.w3.org/2000/svg" xmlns:xlink="http://www.w3.org/1999/xlink" x="0px" y="0px"
	 viewBox="0 0 512 512" style="enable-background:new 0 0 512 512;" xml:space="preserve">
<path style="fill:#A5BFCE;" d="M452.267,230.4H358.4c-4.71,0-8.533-3.814-8.533-8.533c0-4.719,3.823-8.533,8.533-8.533h93.867
	c23.526,0,42.667-19.14,42.667-42.667S475.793,128,452.267,128S409.6,147.14,409.6,170.667c0,4.719-3.823,8.533-8.533,8.533
	s-8.533-3.814-8.533-8.533c0-32.93,26.795-59.733,59.733-59.733S512,137.737,512,170.667S485.205,230.4,452.267,230.4z"/>
<path style="fill:#E7ECED;" d="M70.153,174.217c-1.28-5.359-2.031-10.923-2.031-16.674c0-39.885,32.606-72.209,72.823-72.209
	c32.171,0,63.189,17.263,72.823,45.952c10.829-6.323,19.627-6.562,33.101-6.562c40.235-0.009,77.397,31.667,77.397,71.543
	c40.226,0,68.267,32.981,68.267,72.858s-32.606,72.209-72.823,72.209h-19.866h-192H94.601C47.07,341.333,8.533,303.13,8.533,256
	C8.533,217.301,34.534,184.661,70.153,174.217z"/>
<path style="fill:#A5BFCE;" d="M426.667,503.467c-47.053,0-85.333-38.281-85.333-85.333c0-4.719,3.823-8.533,8.533-8.533
	c4.71,0,8.533,3.814,8.533,8.533c0,37.641,30.626,68.267,68.267,68.267s68.267-30.626,68.267-68.267s-30.626-68.267-68.267-68.267
	H110.933c-4.71,0-8.533-3.814-8.533-8.533c0-4.719,3.823-8.533,8.533-8.533h315.733c47.053,0,85.333,38.281,85.333,85.333
	S473.719,503.467,426.667,503.467z"/>
<path style="fill:#C6E2F7;" d="M247.467,494.933c-32.939,0-59.733-26.803-59.733-59.733c0-4.719,3.823-8.533,8.533-8.533
	s8.533,3.814,8.533,8.533c0,23.526,19.14,42.667,42.667,42.667s42.667-19.14,42.667-42.667s-19.14-42.667-42.667-42.667h-179.2
	c-4.71,0-8.533-3.814-8.533-8.533c0-4.719,3.823-8.533,8.533-8.533h179.2c32.939,0,59.733,26.803,59.733,59.733
	S280.405,494.933,247.467,494.933z"/>
<g>
	<path style="fill:#A5BFCE;" d="M34.133,392.533h-25.6C3.823,392.533,0,388.719,0,384c0-4.719,3.823-8.533,8.533-8.533h25.6
		c4.71,0,8.533,3.814,8.533,8.533C42.667,388.719,38.844,392.533,34.133,392.533z"/>
	<path style="fill:#A5BFCE;" d="M503.467,281.6h-8.533c-4.71,0-8.533-3.814-8.533-8.533s3.823-8.533,8.533-8.533h8.533
		c4.71,0,8.533,3.814,8.533,8.533S508.177,281.6,503.467,281.6z"/>
</g>
<g>
	<path style="fill:#C6E2F7;" d="M460.8,281.6h-34.133c-4.71,0-8.533-3.814-8.533-8.533s3.823-8.533,8.533-8.533H460.8
		c4.71,0,8.533,3.814,8.533,8.533S465.51,281.6,460.8,281.6z"/>
	<path style="fill:#C6E2F7;" d="M358.4,25.6H256c-4.71,0-8.533-3.814-8.533-8.533S251.29,8.533,256,8.533h102.4
		c4.71,0,8.533,3.814,8.533,8.533S363.11,25.6,358.4,25.6z"/>
</g>
<path style="fill:#A5BFCE;" d="M418.133,25.6h-25.6c-4.71,0-8.533-3.814-8.533-8.533s3.823-8.533,8.533-8.533h25.6
	c4.71,0,8.533,3.814,8.533,8.533S422.844,25.6,418.133,25.6z"/>
<path style="fill:#C6E2F7;" d="M384,68.267H281.6c-4.71,0-8.533-3.814-8.533-8.533S276.89,51.2,281.6,51.2H384
	c4.71,0,8.533,3.814,8.533,8.533S388.71,68.267,384,68.267z"/>
<path style="fill:#A5BFCE;" d="M247.467,68.267h-25.6c-4.71,0-8.533-3.814-8.533-8.533s3.823-8.533,8.533-8.533h25.6
	c4.71,0,8.533,3.814,8.533,8.533S252.177,68.267,247.467,68.267z"/>
<g>
</g>
<g>
</g>
<g>
</g>
<g>
</g>
<g>
</g>
<g>
</g>
<g>
</g>
<g>
</g>
<g>
</g>
<g>
</g>
<g>
</g>
<g>
</g>
<g>
</g>
<g>
</g>
<g>
</g>
</svg>
