<svg xmlns="http://www.w3.org/2000/svg" height="512pt" version="1.1" viewBox="-9 0 512 512.00002" width="512pt">
<g id="surface1">
<path d="M 119.464844 187.734375 C 119.464844 164.171875 76.800781 93.867188 76.800781 93.867188 C 76.800781 93.867188 34.132812 164.171875 34.132812 187.734375 C 34.132812 211.296875 53.234375 230.398438 76.800781 230.398438 C 100.363281 230.398438 119.464844 211.296875 119.464844 187.734375 Z M 119.464844 187.734375 " style=" stroke:none;fill-rule:nonzero;fill:rgb(100%,31.372549%,13.72549%);fill-opacity:1;" />
<path d="M 460.800781 187.734375 C 460.800781 164.171875 418.132812 93.867188 418.132812 93.867188 C 418.132812 93.867188 375.464844 164.171875 375.464844 187.734375 C 375.464844 211.296875 394.570312 230.398438 418.132812 230.398438 C 441.695312 230.398438 460.800781 211.296875 460.800781 187.734375 Z M 460.800781 187.734375 " style=" stroke:none;fill-rule:nonzero;fill:rgb(100%,31.372549%,13.72549%);fill-opacity:1;" />
<path d="M 324.265625 17.066406 L 170.667969 17.066406 C 165.953125 17.066406 162.132812 13.246094 162.132812 8.535156 C 162.132812 3.820312 165.953125 0 170.667969 0 L 324.265625 0 C 328.980469 0 332.800781 3.820312 332.800781 8.53125 C 332.800781 13.246094 328.980469 17.066406 324.265625 17.066406 Z M 324.265625 17.066406 " style=" stroke:none;fill-rule:nonzero;fill:rgb(34.509804%,34.901961%,35.686275%);fill-opacity:1;" />
<path d="M 76.800781 264.535156 C 72.085938 264.535156 68.265625 260.710938 68.265625 256 L 68.265625 221.867188 C 68.265625 217.152344 72.085938 213.332031 76.800781 213.332031 C 81.511719 213.332031 85.332031 217.152344 85.332031 221.867188 L 85.332031 256 C 85.332031 260.710938 81.511719 264.535156 76.800781 264.535156 Z M 76.800781 264.535156 " style=" stroke:none;fill-rule:nonzero;fill:rgb(100%,47.45098%,33.72549%);fill-opacity:1;" />
<path d="M 418.132812 264.535156 C 413.417969 264.535156 409.601562 260.710938 409.601562 256 L 409.601562 221.867188 C 409.601562 217.152344 413.421875 213.332031 418.132812 213.332031 C 422.84375 213.332031 426.664062 217.152344 426.664062 221.867188 L 426.664062 256 C 426.664062 260.710938 422.847656 264.535156 418.132812 264.535156 Z M 418.132812 264.535156 " style=" stroke:none;fill-rule:nonzero;fill:rgb(100%,47.45098%,33.72549%);fill-opacity:1;" />
<path d="M 375.464844 256 L 418.132812 256 L 418.132812 409.601562 L 375.464844 409.601562 Z M 375.464844 256 " style=" stroke:none;fill-rule:nonzero;fill:rgb(100%,59.607843%,6.666667%);fill-opacity:1;" />
<path d="M 418.132812 256 L 460.800781 256 L 460.800781 409.601562 L 418.132812 409.601562 Z M 418.132812 256 " style=" stroke:none;fill-rule:nonzero;fill:rgb(100%,65.490196%,20%);fill-opacity:1;" />
<path d="M 76.800781 256 L 119.464844 256 L 119.464844 409.601562 L 76.800781 409.601562 Z M 76.800781 256 " style=" stroke:none;fill-rule:nonzero;fill:rgb(100%,65.490196%,20%);fill-opacity:1;" />
<path d="M 34.132812 256 L 76.800781 256 L 76.800781 409.601562 L 34.132812 409.601562 Z M 34.132812 256 " style=" stroke:none;fill-rule:nonzero;fill:rgb(100%,59.607843%,6.666667%);fill-opacity:1;" />
<path d="M 145.066406 418.132812 L 8.53125 418.132812 C 3.820312 418.132812 0 414.3125 0 409.601562 C 0 404.886719 3.820312 401.066406 8.53125 401.066406 L 145.066406 401.066406 C 149.78125 401.066406 153.597656 404.886719 153.597656 409.601562 C 153.597656 414.3125 149.78125 418.132812 145.066406 418.132812 Z M 145.066406 418.132812 " style=" stroke:none;fill-rule:nonzero;fill:rgb(34.509804%,34.901961%,35.686275%);fill-opacity:1;" />
<path d="M 162.132812 512 C 110.316406 511.9375 68.328125 469.949219 68.265625 418.132812 L 68.265625 409.601562 C 68.265625 404.886719 72.085938 401.066406 76.796875 401.066406 C 81.511719 401.066406 85.332031 404.886719 85.332031 409.601562 L 85.332031 418.132812 C 85.332031 460.546875 119.714844 494.933594 162.132812 494.933594 C 204.546875 494.933594 238.933594 460.546875 238.933594 418.132812 L 238.933594 392.53125 C 238.933594 387.820312 242.753906 384 247.464844 384 C 252.179688 384 255.996094 387.820312 255.996094 392.53125 L 255.996094 418.132812 C 255.9375 469.949219 213.949219 511.9375 162.132812 512 Z M 162.132812 512 " style=" stroke:none;fill-rule:nonzero;fill:rgb(34.509804%,34.901961%,35.686275%);fill-opacity:1;" />
<path d="M 486.398438 418.132812 L 349.867188 418.132812 C 345.152344 418.132812 341.332031 414.3125 341.332031 409.601562 C 341.332031 404.886719 345.152344 401.066406 349.867188 401.066406 L 486.398438 401.066406 C 491.113281 401.066406 494.933594 404.886719 494.933594 409.601562 C 494.933594 414.3125 491.113281 418.132812 486.398438 418.132812 Z M 486.398438 418.132812 " style=" stroke:none;fill-rule:nonzero;fill:rgb(34.509804%,34.901961%,35.686275%);fill-opacity:1;" />
<path d="M 332.800781 512 C 280.984375 511.9375 238.996094 469.949219 238.933594 418.132812 C 238.933594 413.417969 242.753906 409.601562 247.464844 409.601562 C 252.179688 409.601562 256 413.421875 256 418.132812 C 256 460.546875 290.382812 494.933594 332.800781 494.933594 C 375.214844 494.933594 409.597656 460.546875 409.597656 418.132812 L 409.597656 409.601562 C 409.597656 404.886719 413.417969 401.066406 418.132812 401.066406 C 422.84375 401.066406 426.664062 404.886719 426.664062 409.601562 L 426.664062 418.132812 C 426.605469 469.949219 384.617188 511.9375 332.800781 512 Z M 332.800781 512 " style=" stroke:none;fill-rule:nonzero;fill:rgb(34.509804%,34.901961%,35.686275%);fill-opacity:1;" />
<path d="M 247.464844 401.066406 C 242.753906 401.066406 238.933594 397.246094 238.933594 392.535156 L 238.933594 8.53125 C 238.933594 3.820312 242.753906 0 247.464844 0 C 252.179688 0 256 3.820312 256 8.53125 L 256 392.53125 C 256 397.246094 252.179688 401.066406 247.464844 401.066406 Z M 247.464844 401.066406 " style=" stroke:none;fill-rule:nonzero;fill:rgb(34.509804%,34.901961%,35.686275%);fill-opacity:1;" />
</g>
</svg>