<svg height="512pt" viewBox="0 0 512.01067 512" width="512pt" xmlns="http://www.w3.org/2000/svg"><g fill="#607d8b"><path d="m53.316406 512.011719c-4.734375 0-9.472656-1.558594-13.4375-4.800781-9.152344-7.445313-10.519531-20.886719-3.09375-30.015626l46.675782-57.34375c7.425781-9.109374 20.863281-10.519531 29.996093-3.074218 9.152344 7.445312 10.515625 20.886718 3.09375 30.015625l-46.679687 57.34375c-4.203125 5.1875-10.347656 7.875-16.554688 7.875zm0 0"/><path d="m458.691406 512.011719c-6.207031 0-12.351562-2.6875-16.554687-7.875l-46.675781-57.34375c-7.445313-9.128907-6.058594-22.570313 3.09375-30.015625 9.171874-7.445313 22.613281-6.035156 29.996093 3.074218l46.675781 57.34375c7.445313 9.128907 6.058594 22.570313-3.09375 30.015626-3.96875 3.242187-8.703124 4.800781-13.441406 4.800781zm0 0"/><path d="m21.339844 144.011719c-5.460938 0-10.925782-2.089844-15.082032-6.25-8.34375-8.34375-8.34375-21.824219 0-30.167969l101.332032-101.332031c8.339844-8.339844 21.824218-8.339844 30.164062 0 8.34375 8.339843 8.34375 21.824219 0 30.164062l-101.332031 101.335938c-4.160156 4.160156-9.621094 6.25-15.082031 6.25zm0 0"/><path d="m490.671875 144.011719c-5.460937 0-10.921875-2.089844-15.082031-6.25l-101.332032-101.335938c-8.34375-8.339843-8.34375-21.824219 0-30.164062 8.339844-8.339844 21.820313-8.339844 30.164063 0l101.332031 101.332031c8.34375 8.34375 8.34375 21.824219 0 30.167969-4.160156 4.160156-9.621094 6.25-15.082031 6.25zm0 0"/></g><path d="m256.003906 64.011719c-123.519531 0-224 100.480469-224 224s100.480469 224 224 224c123.519532 0 224-100.480469 224-224s-100.480468-224-224-224zm133.335938 245.332031h-133.335938c-11.796875 0-21.332031-9.535156-21.332031-21.332031v-128c0-11.796875 9.535156-21.335938 21.332031-21.335938s21.335938 9.539063 21.335938 21.335938v106.664062h112c11.796875 0 21.332031 9.539063 21.332031 21.335938s-9.535156 21.332031-21.332031 21.332031zm0 0" fill="#4caf50"/></svg>