<svg height="511pt" viewBox="-31 0 511 511.99953" width="511pt" xmlns="http://www.w3.org/2000/svg"><path d="m329.527344 11.554688c-1.613282-6.765626-7.644532-11.554688-14.601563-11.554688h-29.992187c-49.9375 0-93.226563 35.5-102.953125 84.414062l88.628906 31.996094c-4.464844-38.632812 13.167969-69.0625 51.023437-88 6.226563-3.117187 9.492188-10.089844 7.894532-16.855468zm0 0" fill="#56c225"/><path d="m256.441406 158.359375-84.878906-11.695313c19.796875-51.589843 3.898438-94.480468-43.1875-118.171874-6.300781-3.300782-9.597656-10.199219-8.097656-16.796876 1.796875-6.898437 7.796875-11.695312 14.695312-11.695312h29.992188c21.894531 0 42.589844 6.597656 59.984375 18.894531 11.695312 8.097657 21.894531 18.597657 29.691406 31.492188 19.796875 32.390625 20.394531 71.980469 1.800781 107.972656zm0 0" fill="#90e36a"/><path d="m256.441406 158.359375-31.492187-4.199219v-135.265625c11.695312 8.097657 21.894531 18.597657 29.691406 31.492188 19.796875 32.390625 20.394531 71.980469 1.800781 107.972656zm0 0" fill="#70da40"/><path d="m447.492188 387.097656c-10.195313 59.386719-52.1875 105.273438-110.070313 119.96875-37.789063 9.597656-53.988281 2.703125-83.679687 0l-57.882813-.296875c-26.996094 3.300781-40.789063 8.097657-71.382813 3-59.984374-10.5-107.371093-56.988281-120.570312-118.769531-12.894531-60.285156 11.398438-119.371094 62.984375-153.863281 45.289063-30.292969 75.582031-80.277344 83.078125-134.261719 1.199219-7.5 7.5-12.898438 14.996094-12.898438h119.96875c7.5 0 13.796875 5.398438 14.996094 12.898438 7.5 53.984375 38.09375 104.269531 83.382812 134.5625 49.785156 33.292969 74.378906 90.578125 64.179688 149.660156zm0 0" fill="#cb75f6"/><path d="m447.492188 387.097656c-10.195313 59.386719-52.1875 105.273438-110.070313 119.96875-37.789063 9.597656-53.988281 2.703125-83.679687 0h-28.792969v-417.089844h59.984375c7.5 0 13.796875 5.398438 14.996094 12.898438 7.5 53.984375 38.09375 104.269531 83.382812 134.5625 49.785156 33.292969 74.378906 90.578125 64.179688 149.660156zm0 0" fill="#b760ea"/><path d="m316.726562 307.621094c-9.898437-18.296875-19.195312-35.691406-22.496093-56.6875l-24.59375-148.359375c-1.199219-7.199219-7.496094-12.597657-14.695313-12.597657h-59.984375c-7.199219 0-13.496093 5.398438-14.695312 12.597657l-23.996094 145.363281c-3.898437 23.691406-14.394531 42.886719-24.292969 61.484375-19.796875 36.589844-40.191406 74.378906-8.097656 138.5625 19.792969 40.191406 57.582031 63.882813 100.472656 63.882813h.601563c42.886719-.296876 80.976562-23.992188 100.175781-62.082032 32.691406-65.382812 10.796875-106.171875-8.398438-142.164062zm0 0" fill="#da90f8"/><path d="m325.125 449.785156c-19.195312 38.089844-57.285156 61.78125-100.175781 62.082032v-421.890626h29.992187c7.199219 0 13.496094 5.398438 14.695313 12.597657l24.59375 148.359375c3.300781 20.996094 12.597656 38.390625 22.496093 56.6875 19.195313 35.992187 41.089844 76.78125 8.398438 142.164062zm0 0" fill="#cb75f6"/></svg>