<svg height="512pt" viewBox="-19 0 512 512" width="512pt" xmlns="http://www.w3.org/2000/svg"><path d="m453.15625 512h-432.34375c-11.496094 0-20.8125-9.316406-20.8125-20.8125v-432.34375c0-11.492188 9.316406-20.8125 20.8125-20.8125h432.34375c11.492188 0 20.8125 9.320312 20.8125 20.8125v432.34375c0 11.496094-9.320312 20.8125-20.8125 20.8125zm0 0" fill="#ededed"/><path d="m453.15625 38.03125h-32.386719v473.96875h32.386719c11.496094 0 20.8125-9.316406 20.8125-20.8125v-432.34375c0-11.492188-9.320312-20.8125-20.8125-20.8125zm0 0" fill="#d6d6d6"/><path d="m453.15625 38.03125h-432.34375c-11.496094 0-20.8125 9.320312-20.8125 20.8125v64.566406h473.96875v-64.566406c0-11.492188-9.320312-20.8125-20.8125-20.8125zm0 0" fill="#345863"/><path d="m473.96875 123.410156v-64.566406c0-11.492188-9.320312-20.8125-20.8125-20.8125h-32.386719v85.378906zm0 0" fill="#1e4751"/><path d="m245.265625 181.808594 28.121094 86.539062c1.164062 3.589844 4.507812 6.015625 8.28125 6.015625h90.992187c8.4375 0 11.945313 10.796875 5.121094 15.757813l-73.617188 53.484375c-3.050781 2.21875-4.328124 6.148437-3.164062 9.738281l28.117188 86.539062c2.609374 8.023438-6.574219 14.695313-13.402344 9.738282l-73.613282-53.484375c-3.054687-2.21875-7.1875-2.21875-10.238281 0l-73.617187 53.484375c-6.824219 4.957031-16.007813-1.714844-13.402344-9.738282l28.117188-86.539062c1.167968-3.589844-.109376-7.519531-3.164063-9.738281l-73.613281-53.484375c-6.828125-4.960938-3.320313-15.757813 5.117187-15.757813h90.996094c3.769531 0 7.113281-2.429687 8.28125-6.015625l28.117187-86.539062c2.613282-8.023438 13.964844-8.023438 16.570313 0zm0 0" fill="#f43b45"/><g fill="#ff9c43"><path d="m71.085938 76.378906c-12.070313 0-21.855469-9.785156-21.855469-21.855468v-32.667969c0-12.070313 9.785156-21.855469 21.855469-21.855469 12.066406 0 21.855468 9.785156 21.855468 21.855469v32.667969c0 12.070312-9.785156 21.855468-21.855468 21.855468zm0 0"/><path d="m181.683594 76.378906c-12.070313 0-21.855469-9.785156-21.855469-21.855468v-32.667969c0-12.070313 9.785156-21.855469 21.855469-21.855469 12.070312 0 21.855468 9.785156 21.855468 21.855469v32.667969c0 12.070312-9.785156 21.855468-21.855468 21.855468zm0 0"/><path d="m292.285156 76.378906c-12.070312 0-21.855468-9.785156-21.855468-21.855468v-32.667969c0-12.070313 9.785156-21.855469 21.855468-21.855469 12.070313 0 21.855469 9.785156 21.855469 21.855469v32.667969c0 12.070312-9.785156 21.855468-21.855469 21.855468zm0 0"/><path d="m402.882812 76.378906c-12.070312 0-21.855468-9.785156-21.855468-21.855468v-32.667969c0-12.070313 9.785156-21.855469 21.855468-21.855469 12.070313 0 21.855469 9.785156 21.855469 21.855469v32.667969c0 12.070312-9.785156 21.855468-21.855469 21.855468zm0 0"/></g></svg>