<svg height="512" viewBox="0 0 64 64" width="512" xmlns="http://www.w3.org/2000/svg"><g id="Icon"><path d="m59.387 33.214a1 1 0 0 0 -1.087.208 8.95 8.95 0 0 1 -6.3 2.578h-40a8.95 8.95 0 0 1 -6.3-2.578 1 1 0 0 0 -1.7.714v17.864a5.006 5.006 0 0 0 5 5h46a5.006 5.006 0 0 0 5-5v-17.864a1 1 0 0 0 -.613-.922z" fill="#8d6e63"/><path d="m39 7h-14a7.008 7.008 0 0 0 -7 7v4a1 1 0 0 0 1 1h4a1 1 0 0 0 1-1v-4a1 1 0 0 1 1-1h14a1 1 0 0 1 1 1v4a1 1 0 0 0 1 1h4a1 1 0 0 0 1-1v-4a7.008 7.008 0 0 0 -7-7z" fill="#ffcb29"/><path d="m55 17h-46a5.006 5.006 0 0 0 -5 5v12.136a1 1 0 0 0 .3.714 10.935 10.935 0 0 0 7.7 3.15h40a10.935 10.935 0 0 0 7.7-3.15 1 1 0 0 0 .3-.714v-12.136a5.006 5.006 0 0 0 -5-5z" fill="#a1887f"/><rect fill="#ffcb29" height="10" rx="3" width="14" x="25" y="32"/></g></svg>