<svg id="Layer_1" height="512" viewBox="0 0 128 128" width="512" xmlns="http://www.w3.org/2000/svg"><g clip-rule="evenodd" fill-rule="evenodd"><g><g><path d="m68.956 115.459c28.357 0 51.461-23.104 51.461-51.46 0-28.32-23.104-51.46-51.461-51.46s-51.461 23.14-51.461 51.46c0 28.357 23.104 51.46 51.461 51.46z" fill="#89afd9"/><path d="m61.653 114.938c-19.303-2.72-35.141-16.172-41.327-34.096 6.895-4.248 16.062-3.353 22.061 2.608 7.007-7.005 18.37-7.005 25.377 0 7.006 7.005 7.006 18.371 0 25.413z" fill="#6595cd"/></g><g><path d="m68.956 12.539c11.217 0 21.575 3.577 30.034 9.651 7.415 8.943 11.925 20.42 11.925 32.94 0 28.432-23.066 51.461-51.498 51.461-11.179 0-21.539-3.578-29.997-9.651-7.453-8.944-11.925-20.42-11.925-32.941 0-28.432 23.028-51.46 51.461-51.46z" fill="#a6c2e2"/><path d="m70.447 105.398c-3.541.782-7.23 1.193-11.03 1.193-11.179 0-21.539-3.578-29.997-9.651-3.95-4.733-7.043-10.174-9.094-16.098 6.895-4.248 16.062-3.353 22.061 2.608 7.007-7.005 18.37-7.005 25.377 0 5.962 5.962 6.856 15.055 2.683 21.948z" fill="#89afd9"/></g></g><g><path d="m33.444 101.262c-9.838-9.391-15.949-22.618-15.949-37.263 0-13.452 5.181-25.674 13.603-34.841-.672 7.043.11 17.142 6.595 27.538 9.873 15.948 14.791 35.101-4.249 44.566z" fill="#c6df9a"/><g><path d="m77.639 13.284c24.295 4.099 42.778 25.264 42.778 50.715 0 7.042-1.416 13.75-3.95 19.861-27.836.411-31.637-13.339-31.115-26.866.56-15.8-10.545-10.248-15.502-19.004-3.242-5.702 3.018-17.254 7.789-24.706z" fill="#bdd88d"/><path d="m77.639 13.284c7.861 1.341 15.129 4.435 21.352 8.906 7.415 8.943 11.925 20.42 11.925 32.94 0 10.136-2.944 19.564-7.975 27.5-15.613-3.614-17.999-14.718-17.589-25.636.56-15.8-10.545-10.248-15.502-19.004-3.242-5.702 3.018-17.254 7.789-24.706z" fill="#c6df9a"/></g><g><g><path d="m90.345 110.839c-6.521 2.981-13.75 4.62-21.389 4.62-5.217 0-10.248-.783-15.017-2.199 2.16-7.117 6.036-15.427 12.669-15.911 6.074-.446 15.762 6.559 23.737 13.49z" fill="#bdd88d"/><path d="m61.653 114.938c-2.647-.374-5.218-.932-7.714-1.678 2.16-7.117 6.036-15.427 12.669-15.911 1.825-.149 3.913.372 6.223 1.379-.521 3.689-2.235 7.266-5.067 10.135z" fill="#aacd6d"/></g><g><path d="m56.511 106.517c2.272-4.808 5.551-8.832 10.098-9.167 3.465-.261 8.124 1.937 12.968 5.143-6.186 2.646-13.005 4.099-20.159 4.099-.971-.001-1.939-.038-2.907-.075z" fill="#c6df9a"/><path d="m56.511 106.517c2.272-4.808 5.551-8.832 10.098-9.167 1.825-.149 3.913.372 6.223 1.379-.335 2.311-1.117 4.62-2.384 6.67-3.541.782-7.23 1.193-11.03 1.193-.971-.001-1.939-.038-2.907-.075z" fill="#bdd88d"/></g></g></g><g><path d="m38.215 66.905c7.042-7.005 18.406-7.005 25.413 0 7.005 7.005 7.005 18.371 0 25.376l-21.65 21.65c-2.051 2.049-5.439 2.049-7.49 0l-21.65-21.65c-7.005-7.005-7.005-18.371 0-25.376 7.006-7.005 18.37-7.005 25.377 0z" fill="#f35b65"/><path d="m38.215 66.905c5.327-5.328 13.153-6.595 19.71-3.838l.113.112c7.006 7.005 7.006 18.371 0 25.376l-24.445 24.481-20.756-20.755c-7.005-7.005-7.005-18.371 0-25.376 5.329-5.328 13.153-6.595 19.675-3.838l.149.112.074-.037c1.976.857 3.877 2.124 5.48 3.763z" fill="#f1404b"/></g></g></svg>