<svg id="Layer_1" enable-background="new 0 0 510 510" height="512" viewBox="0 0 510 510" width="512" xmlns="http://www.w3.org/2000/svg"><g><path d="m268.54 79.999-13.54-6.77-10 100.271 10 81.5 21.353 10 21.354-10z" fill="#eceae7"/><path d="m150 255 10-88-10-129.209-73.186 58.548-43.271 158.661 63.228 10z" fill="#f4f1f1"/><path d="m255 255v-181.771l-75-37.5-10 109.636 10 109.635 37 10z" fill="#f4f1f1"/><path d="m0 255v30h255l10-15-10-15z" fill="#bcfbff"/><path d="m255 255h75v30h-75z" fill="#9ddff6"/><path d="m180 315-15 15-15-15v-315h30z" fill="#c08478"/><path d="m465 20.377c-11.003-12.481-27.093-20.377-45-20.377v30c16.542 0 30 13.458 30 30h30c0-16.542 13.458-30 30-30v-30c-17.907 0-33.997 7.896-45 20.377z" fill="#45417e"/><path d="m405 90v-30c-17.907 0-33.997 7.896-45 20.377-11.003-12.481-27.093-20.377-45-20.377v30c16.542 0 30 13.458 30 30h30c0-16.542 13.458-30 30-30z" fill="#45417e"/><path d="m420 170.377c-11.003-12.482-27.093-20.377-45-20.377v30c16.542 0 30 13.458 30 30h30c0-16.542 13.458-30 30-30v-30c-17.907 0-33.997 7.895-45 20.377z" fill="#45417e"/><path d="m255 315h-230.812c5.974 17.611 6.943 21.625 10.438 30l128.04 10 92.334-10 10-14.167z" fill="#a35d4e"/><path d="m255 315v30l111.667 10 108.706-10c3.501-8.389 4.483-12.443 10.439-30z" fill="#774132"/><path d="m255 420 10-35-10-40h-220.373c13.271 31.793 37.062 57.62 67.478 73.418z" fill="#c08478"/><path d="m407.892 418.42c30.417-15.798 54.211-41.626 67.481-73.42h-220.373v75z" fill="#a35d4e"/><path d="m0 430v30l10 14.75-10 15.25v20h255l10-32.5-10-27.5-95.75-30z" fill="#bcfbff"/><g fill="#9ddff6"><path d="m510 430-201-5.667-54 25.667v60h255v-20l-9.667-13.25 9.667-16.75z"/><path d="m218.882 471.428c-11.382-5.357-24.283-11.428-48.886-11.428-24.604 0-37.504 6.071-48.887 11.428-9.774 4.6-18.215 8.572-36.111 8.572s-26.338-3.973-36.112-8.572c-11.382-5.357-24.283-11.428-48.886-11.428v30c17.896 0 26.338 3.973 36.111 8.572 11.383 5.357 24.284 11.428 48.887 11.428 24.602 0 37.503-6.071 48.886-11.428 9.774-4.6 18.216-8.572 36.112-8.572s26.338 3.973 36.111 8.572c11.382 5.357 24.284 11.428 48.886 11.428h.007l10-14-10-16c-.002 0-.005 0-.007 0-17.895 0-26.337-3.973-36.111-8.572z"/><path d="m254.993 420c-17.895 0-26.337-3.973-36.111-8.572-11.382-5.357-24.283-11.428-48.886-11.428-24.604 0-37.504 6.071-48.887 11.428-9.774 4.6-18.215 8.572-36.111 8.572s-26.338-3.973-36.112-8.572c-11.382-5.357-24.283-11.428-48.886-11.428v30c17.896 0 26.338 3.973 36.111 8.572 11.383 5.357 24.284 11.428 48.887 11.428 24.602 0 37.503-6.071 48.886-11.428 9.774-4.6 18.216-8.572 36.112-8.572s26.338 3.973 36.111 8.572c11.382 5.357 24.284 11.428 48.886 11.428h.007l10-15.667-10-14.333c-.002 0-.005 0-.007 0z"/></g><path d="m339.993 430c17.897 0 26.339 3.973 36.114 8.572 11.383 5.357 24.285 11.428 48.889 11.428s37.506-6.071 48.889-11.428c9.775-4.599 18.217-8.572 36.115-8.572v-30c-24.603 0-37.506 6.071-48.889 11.428-9.775 4.6-18.217 8.572-36.115 8.572s-26.34-3.973-36.115-8.572c-11.383-5.357-24.284-11.428-48.888-11.428s-37.504 6.071-48.887 11.428c-9.773 4.599-18.215 8.571-36.106 8.572v30c24.6-.001 37.498-6.072 48.88-11.428 9.774-4.599 18.217-8.572 36.113-8.572z" fill="#5ecbf1"/><path d="m303.88 498.572c9.774-4.6 18.217-8.572 36.113-8.572 17.897 0 26.339 3.973 36.114 8.572 11.383 5.357 24.285 11.428 48.889 11.428s37.506-6.071 48.889-11.428c9.775-4.599 18.217-8.572 36.115-8.572v-30c-24.603 0-37.506 6.071-48.889 11.428-9.775 4.6-18.217 8.572-36.115 8.572s-26.34-3.973-36.115-8.572c-11.383-5.357-24.284-11.428-48.888-11.428s-37.504 6.071-48.887 11.428c-9.773 4.599-18.215 8.571-36.106 8.572v30c24.6-.001 37.498-6.072 48.88-11.428z" fill="#5ecbf1"/></g></svg>