<svg id="Capa_1" enable-background="new 0 0 497.003 497.003" height="512" viewBox="0 0 497.003 497.003" width="512" xmlns="http://www.w3.org/2000/svg"><g><path d="m376.54 105.28c-12.58-12.58-12.58-32.97 0-45.54l48.829-48.829c1.028-1.028.646-2.765-.71-3.29-40.536-15.683-88.279-7.16-120.989 25.549-31.96 31.96-40.821 78.254-26.596 118.171.259.727.083 1.536-.463 2.082l-214.344 214.344c-.348.348-.812.55-1.303.576-15.336.807-30.438 7.046-42.13 18.734-25.11 25.11-25.11 65.97 0 91.09 25.12 25.11 65.98 25.11 91.09 0 11.881-11.886 18.131-27.295 18.769-42.893l215.839-215.839c39.581 14.484 85.806 6.269 117.867-24.694.6-.58 1.2-1.17 1.78-1.76zm-293.186 346.317c-10.46 10.46-27.49 10.46-37.95 0s-10.46-27.49 0-37.95c10.46-10.47 27.49-10.47 37.95 0 10.47 10.46 10.47 27.49 0 37.95z" fill="#e9edf1"/><path d="m128.69 435.27-8.05 8.05-4.73-4.73c2.72-7.52 3.99-15.44 3.82-23.34l5.03-5.02c2.97 8.05 4.28 16.57 3.93 25.04z" fill="#dce6eb"/><path d="m141.937 333.352 108.396-108.396c5.996-5.996 15.716-5.996 21.712 0 5.996 5.996 5.996 15.716 0 21.712l-108.397 108.396c-5.996 5.996-15.716 5.996-21.712 0-5.995-5.996-5.995-15.716.001-21.712z" fill="#dce6eb"/><path d="m464.18 192.98-41.105-22.203-31.355-50.317c12.58 12.58 32.97 12.58 45.54 0l48.829-48.829c1.028-1.028 2.765-.646 3.289.71 15.628 40.394 7.226 87.932-25.198 120.639z" fill="#e9edf1"/><g fill="#dce6eb"><path d="m464.18 192.98-19.99-20.01c24.89-25.11 35.62-58.97 32.18-91.62l9.718-9.719c1.028-1.028 2.765-.646 3.289.71 15.629 40.394 7.227 87.932-25.197 120.639z"/><path d="m464.18 192.98c-.58.59-1.18 1.18-1.78 1.76-31.72 30.641-77.32 39.004-116.624 25.145-.726-.256-1.532-.079-2.076.465l-214.47 214.39c-.35.35-.55.81-.58 1.3-.8 15.35-7.04 30.44-18.73 42.13-25.11 25.11-65.97 25.11-91.09 0-6.53-6.54-11.37-14.14-14.49-22.26 1.67 2.18 3.5 4.27 5.49 6.26 25.12 25.11 65.98 25.11 91.09 0 6.89-6.89 11.89-14.97 14.99-23.58 2.62-7.25 3.9-14.88 3.83-22.5 0-.54.2-1.05.58-1.43l.58-.57 204.16-203.99 7.134-7.134c.505-.505 1.239-.695 1.928-.51 7.777 2.095 15.739 3.343 23.737 3.744 30.33 1.57 61.19-8.91 84.54-31.46.6-.58 1.2-1.17 1.78-1.76z"/><path d="m356.54 85.28c-12.58-12.58-12.58-32.97 0-45.54l39.11-39.11c9.875 1.035 19.635 3.363 29.01 6.992 1.356.525 1.737 2.261.709 3.289l-48.829 48.829c-12.58 12.57-12.58 32.96 0 45.54z"/><path d="m357.941 184.603-45.543-45.543c-4.192-4.192-4.192-10.989 0-15.181l10.627-10.627c4.192-4.192 10.989-4.192 15.181 0l45.543 45.543c4.192 4.192 4.192 10.989 0 15.181l-10.627 10.627c-4.192 4.192-10.989 4.192-15.181 0z"/></g></g></svg>