<?xml version="1.0" encoding="iso-8859-1"?>
<!-- Generator: Adobe Illustrator 19.0.0, SVG Export Plug-In . SVG Version: 6.00 Build 0)  -->
<svg version="1.1" id="Capa_1" xmlns="http://www.w3.org/2000/svg" xmlns:xlink="http://www.w3.org/1999/xlink" x="0px" y="0px"
	 viewBox="0 0 468.293 468.293" style="enable-background:new 0 0 468.293 468.293;" xml:space="preserve">
<path style="fill:#D5D6DB;" d="M234.146,28.448c-113.423,0-205.698,92.275-205.698,205.698s92.275,205.698,205.698,205.698
	s205.698-92.275,205.698-205.698S347.569,28.448,234.146,28.448z M234.146,422.338c-103.768,0-188.192-84.424-188.192-188.192
	S130.378,45.954,234.146,45.954s188.192,84.424,188.192,188.192S337.914,422.338,234.146,422.338z"/>
<path style="fill:#2F4859;" d="M196.945,7.933v58.536c0,4.381,3.552,7.933,7.933,7.933h58.537c4.381,0,7.933-3.552,7.933-7.933
	V7.933c0-4.381-3.552-7.933-7.933-7.933h-58.537C200.497,0,196.945,3.552,196.945,7.933z"/>
<rect x="214.453" y="17.508" style="fill:#EBF0F3;" width="39.387" height="39.387"/>
<path style="fill:#2F4859;" d="M7.933,271.348h58.536c4.381,0,7.933-3.552,7.933-7.933v-58.537c0-4.381-3.552-7.933-7.933-7.933
	H7.933c-4.381,0-7.933,3.552-7.933,7.933v58.537C0,267.796,3.552,271.348,7.933,271.348z"/>
<rect x="17.508" y="214.453" style="fill:#EBF0F3;" width="39.387" height="39.387"/>
<path style="fill:#2F4859;" d="M271.348,460.36v-58.536c0-4.381-3.552-7.933-7.933-7.933h-58.537c-4.381,0-7.933,3.552-7.933,7.933
	v58.536c0,4.381,3.552,7.933,7.933,7.933h58.537C267.796,468.293,271.348,464.741,271.348,460.36z"/>
<rect x="214.453" y="411.411" style="fill:#EBF0F3;" width="39.387" height="39.387"/>
<path style="fill:#2F4859;" d="M460.36,196.945h-58.536c-4.381,0-7.933,3.552-7.933,7.933v58.537c0,4.381,3.552,7.933,7.933,7.933
	h58.536c4.381,0,7.933-3.552,7.933-7.933v-58.537C468.293,200.497,464.741,196.945,460.36,196.945z"/>
<rect x="411.411" y="214.453" style="fill:#EBF0F3;" width="39.387" height="39.387"/>
<polygon style="fill:#2F4859;" points="271.995,169.227 279.748,110.873 188.545,110.873 196.298,169.227 "/>
<polygon style="fill:#FCD462;" points="317.111,253.873 241.419,348.347 234.146,357.42 226.874,348.347 151.182,253.873 
	190.758,188.395 277.535,188.395 "/>
<g>
	<path style="fill:#EBF0F3;" d="M253.269,253.414c0-10.561-8.562-19.123-19.123-19.123s-19.123,8.562-19.123,19.123
		c0,7.985,4.898,14.82,11.85,17.683v77.25l7.273,9.073l7.273-9.073v-77.25C248.372,268.234,253.269,261.399,253.269,253.414z"/>
	<rect x="186.487" y="163.684" style="fill:#EBF0F3;" width="95.319" height="26.187"/>
</g>
<g>
</g>
<g>
</g>
<g>
</g>
<g>
</g>
<g>
</g>
<g>
</g>
<g>
</g>
<g>
</g>
<g>
</g>
<g>
</g>
<g>
</g>
<g>
</g>
<g>
</g>
<g>
</g>
<g>
</g>
</svg>
