<?xml version="1.0" encoding="iso-8859-1"?>
<!-- Generator: Adobe Illustrator 21.0.0, SVG Export Plug-In . SVG Version: 6.00 Build 0)  -->
<svg xmlns="http://www.w3.org/2000/svg" xmlns:xlink="http://www.w3.org/1999/xlink" version="1.1" id="Capa_1" x="0px" y="0px" viewBox="0 0 502.759 502.759" style="enable-background:new 0 0 502.759 502.759;" xml:space="preserve" width="512" height="512">
<g>
	<path style="fill:#3FB9DD;" d="M373.95,0H128.809c-12.407,0-22.5,10.094-22.5,22.5v53.281l20,144.622l-20,178.064v81.792   c0,12.407,10.093,22.5,22.5,22.5H373.95c12.406,0,22.5-10.093,22.5-22.5v-81.792l-20-173.768l20-148.917V22.5   C396.45,10.094,386.356,0,373.95,0z"/>
	<path style="fill:#06A2C6;" d="M396.45,22.5c0-12.406-10.094-22.5-22.5-22.5h-13c12.406,0,22.5,10.094,22.5,22.5v53.281   l-20,148.917l20,173.768v81.792c0,12.407-10.094,22.5-22.5,22.5h13c12.406,0,22.5-10.093,22.5-22.5v-81.792l-20-173.768l20-148.917   V22.5z"/>
	<rect x="106.309" y="75.781" style="fill:#FFF4F1;" width="290.141" height="322.685"/>
	<rect x="383.45" y="75.781" style="fill:#ECEDEF;" width="13" height="322.685"/>
	<path style="fill:#FFF4F1;" d="M249.266,50.462h-47.554c-4.142,0-7.5-3.358-7.5-7.5s3.358-7.5,7.5-7.5h47.554   c4.142,0,7.5,3.358,7.5,7.5S253.408,50.462,249.266,50.462z"/>
	<path style="fill:#FFF4F1;" d="M301.047,50.462h-23.777c-4.143,0-7.5-3.358-7.5-7.5s3.357-7.5,7.5-7.5h23.777   c4.143,0,7.5,3.358,7.5,7.5S305.189,50.462,301.047,50.462z"/>
	<path style="fill:#FFF4F1;" d="M251.38,425.551c-12.992,0-23.563,10.57-23.563,23.562s10.57,23.562,23.563,23.562   s23.562-10.57,23.562-23.562S264.372,425.551,251.38,425.551z"/>
	<path style="fill:#D0CFD1;" d="M326.415,232.378c-2.855,0-5.584-1.639-6.838-4.409c-11.899-26.292-37.2-43.187-66.026-44.093   c-30.21-0.945-57.886,16.175-70.526,43.625c-1.732,3.762-6.185,5.407-9.95,3.675c-3.762-1.732-5.408-6.187-3.675-9.95   c15.166-32.936,48.365-53.493,84.622-52.343c34.589,1.086,64.944,21.356,79.222,52.899c1.708,3.774,0.033,8.217-3.74,9.925   C328.499,232.163,327.448,232.378,326.415,232.378z"/>
	<path style="fill:#D0CFD1;" d="M306.174,256.273c-2.855,0-5.583-1.639-6.838-4.409c-8.504-18.787-26.582-30.86-47.18-31.507   c-21.588-0.665-41.363,11.558-50.396,31.173c-1.732,3.762-6.187,5.408-9.95,3.675c-3.762-1.732-5.408-6.187-3.675-9.95   c11.559-25.101,36.899-40.754,64.491-39.891c26.359,0.828,49.493,16.275,60.375,40.314c1.708,3.773,0.033,8.217-3.74,9.925   C308.259,256.058,307.207,256.273,306.174,256.273z"/>
	<path style="fill:#D0CFD1;" d="M276.635,275.46c-2.855,0-5.584-1.639-6.838-4.41c-3.203-7.078-10.013-11.625-17.771-11.87   c-8.154-0.239-15.581,4.354-18.983,11.743c-1.733,3.762-6.187,5.407-9.95,3.675c-3.762-1.732-5.408-6.187-3.675-9.95   c5.928-12.874,18.899-20.919,33.079-20.46c13.521,0.424,25.387,8.348,30.967,20.677c1.708,3.774,0.033,8.217-3.741,9.925   C278.719,275.245,277.668,275.46,276.635,275.46z"/>
</g>















</svg>
