<svg id="Capa_1" enable-background="new 0 0 512 512" height="512" viewBox="0 0 512 512" width="512" xmlns="http://www.w3.org/2000/svg"><g><g><path d="m102.469 437.232v74.768h106.224v-117.545z" fill="#9de1f7"/><path d="m190.026 347.098-70.498-70.498-11.22 11.22c-12.445 12.445-12.445 32.622 0 45.067l23.916 23.916-18.814 18.814-64.676-64.677v-59.334c0-17.6-14.267-31.867-31.867-31.867h-16.867v117.601l99.892 99.892c24.89 24.89 65.244 24.89 90.134 0 24.89-24.89 24.89-65.245 0-90.134z" fill="#f2d1a5"/><g><g><path d="m409.531 437.232v74.768h-106.224v-117.545z" fill="#2fbfef"/></g></g><path d="m321.974 347.098 70.498-70.498 11.22 11.22c12.445 12.445 12.445 32.622 0 45.067l-23.916 23.916 18.814 18.814 64.676-64.676v-59.334c0-17.6 14.267-31.867 31.867-31.867h16.867v117.6l-99.892 99.892c-24.89 24.89-65.244 24.89-90.134 0-24.89-24.89-24.89-65.245 0-90.134z" fill="#f2bb88"/></g><g><path d="m203.277 133.119c-20.034 6.52-34.519 25.336-34.519 47.545v52.187h87.242l10-20.518-10-30.243z" fill="#607882"/><path d="m343.241 180.664c0-22.209-14.485-41.025-34.519-47.545l-52.722 48.971v50.761h87.241z" fill="#495959"/></g><g><path d="m218.759 130.664c-5.405 0-10.605.869-15.481 2.455l52.722 68.971 10-46.09-10-25.336z" fill="#fff5f5"/><path d="m308.723 133.119c-4.876-1.587-10.076-2.455-15.481-2.455h-37.242v71.426z" fill="#dce6eb"/></g><path d="m204.788 61.811v18.421c0 28.284 22.928 51.212 51.212 51.212l10-38.777-10-40.856z" fill="#ffcdbe"/><path d="m256 131.444c28.284 0 51.212-22.928 51.212-51.212v-18.421l-51.212-10z" fill="#faa68e"/><path d="m256 0c-28.284 0-51.212 22.928-51.212 51.212v10.599h51.212l10-30.906z" fill="#b46e5a"/><path d="m256 0v61.811h51.212v-10.599c0-28.284-22.928-51.212-51.212-51.212z" fill="#915041"/></g></svg>