<?xml version="1.0" encoding="iso-8859-1"?>
<!-- Generator: Adobe Illustrator 19.0.0, SVG Export Plug-In . SVG Version: 6.00 Build 0)  -->
<svg version="1.1" id="Capa_1" xmlns="http://www.w3.org/2000/svg" xmlns:xlink="http://www.w3.org/1999/xlink" x="0px" y="0px"
	 viewBox="0 0 511.989 511.989" style="enable-background:new 0 0 511.989 511.989;" xml:space="preserve">
<path style="fill:#40596B;" d="M469.269,68.581H42.731c-11.787,0-21.333,9.557-21.333,21.333v301.792
	c0,11.776,9.547,21.333,21.333,21.333h426.539c11.776,0,21.333-9.557,21.333-21.333V89.915
	C490.603,78.139,481.056,68.581,469.269,68.581"/>
<rect x="50.731" y="97.915" style="fill:#FFFFFF;" width="410.549" height="255.563"/>
<g>
	<path style="fill:#84DBFF;" d="M207.541,299.312c-2.603,3.211-8.875,1.6-9.589-2.475c-0.619,1.397-2.72,0.48-3.787-0.608
		c-3.072-3.083-6.315-6.443-6.987-10.731c-0.299-1.941-0.171-4.149-1.557-5.525c-0.565-0.565-1.344-0.896-1.845-1.547
		c-0.928-1.141-0.629-2.837-0.715-4.331c-0.277-4.437-4.32-7.541-7.883-10.187c-1.899-1.397-3.883-3.104-4.139-5.44
		c-0.149-1.376,0.363-2.731,0.363-4.128c-0.011-4.373-4.651-6.997-7.477-10.315c-3.477-4.128-4.533-10.123-8.768-13.483
		c-0.811-0.672-1.792-1.184-2.837-1.291c-2.517-0.245-4.523,1.941-6.187,3.829c-3.648,4.107-7.829,7.776-12.395,10.816
		c-2.101,1.419-4.811,2.709-7.04,1.547c-1.685-0.875-2.955-3.04-4.811-2.667c-1.28,0.267-1.941,1.664-2.773,2.688
		c-2.955,3.648-8.576,2.891-13.227,3.627c-6.539,1.045-12.672,6.997-11.712,13.557c0.48,3.189,2.453,5.92,4.373,8.523
		c2.816,3.776,5.6,7.563,8.405,11.339c1.973,2.688,4.8,5.685,8.021,4.832c0.821-0.213,1.589-0.672,2.432-0.608
		c0.939,0.085,1.685,0.768,2.368,1.397c2.069,1.877,4.597,3.541,7.381,3.563c3.381,0.021,6.272-2.272,9.333-3.712
		c4.523-2.144,9.675-2.421,14.688-2.645c5.547-0.245,11.232-0.48,16.501,1.227c5.984,1.941,10.88,6.187,15.701,10.208
		c4.821,4.021,9.995,8.043,16.128,9.376c6.144,1.312,13.515-0.917,16.139-6.603"/>
	<path style="fill:#84DBFF;" d="M142.133,262.832c-5.888-0.064-10.432-7.189-8.043-12.565c-2.368-1.12-5.643,0.96-7.616-0.768
		c-1.589-1.397-0.8-4.043,0.373-5.813c1.163-1.771,2.688-3.733,2.165-5.792c-0.875-1.621-3.477-0.651-4.48,0.896
		c-0.992,1.547-1.568,3.605-3.285,4.288c-1.557,0.629-3.381-0.288-4.256-1.707c-0.896-1.44-0.981-3.211-0.811-4.853
		c0.789-7.872,7.328-14.816,15.125-16.043c0.352,1.376,0.672,2.752,1.013,4.128c0.939-1.205,2.027-2.517,3.552-2.688
		c2.976-0.373,4.469,3.52,4.597,6.517c0.139,3.019,0.555,6.88,3.456,7.669c-1.333,0.149-2.656,0.288-3.989,0.459
		c4.704,5.376,10.976,9.376,17.867,11.371c1.056,0.309,2.155,0.587,3.008,1.269c0.821,0.672,1.333,1.664,2.101,2.4
		c0.768,0.704,2.08,1.12,2.869,0.395c-0.021-3.168-2.944-5.557-5.899-6.752c-2.933-1.184-6.208-1.728-8.768-3.627
		c-3.904-2.859-5.131-8.064-6.091-12.811c-0.576-2.752-1.045-5.899,0.672-8.128c0.832-1.109,2.08-1.792,3.093-2.752
		c2.027-1.92,2.859-4.725,4.043-7.253c3.328-7.147,10.069-12.565,17.749-14.293c0.224,0.853,0.437,1.707,0.661,2.56
		c3.349-0.629,5.067-5.376,2.891-8c-0.672,0.021-1.344,0.043-2.005,0.085c-0.565-0.789,0.171-1.984,1.109-2.293
		c0.928-0.309,1.941-0.085,2.912-0.043c2.592,0.149,5.227-1.045,6.837-3.104c0.224,2.379,0.459,4.768,0.672,7.147
		c1.248,1.291,3.861-0.725,2.901-2.251c-0.32-0.501-0.843-0.832-1.216-1.291c-0.576-0.725-0.661-1.749-0.715-2.688
		c-0.352-4.832-0.683-9.664-1.035-14.496c-0.832,0.917-1.707,1.856-2.869,2.251s-2.667,0.064-3.168-1.067
		c-0.416-0.96,0-2.059-0.224-3.083c-0.469-2.037-3.424-2.517-5.195-1.376c-1.749,1.141-2.624,3.211-3.563,5.109
		c-2.347,4.704-5.685,8.917-9.749,12.267c0.064-1.984,0.437-3.979,1.152-5.835c-5.717,0.149-9.557-7.435-6.763-12.437
		c2.795-5.003,10.101-6.251,15.019-3.339c1.771-3.936,4.437-7.456,7.723-10.251c0.672-0.587,1.44-1.163,2.336-1.269
		c1.867-0.213,3.392,1.92,3.029,3.755c-0.373,1.835-2.123,3.125-3.947,3.541c-0.864,0.192-1.941,0.352-2.187,1.205
		c-0.16,0.608,0.224,1.205,0.619,1.685c2.037,2.539,4.789,4.501,7.851,5.579c0.523-1.92,0.128-4.107-1.045-5.728
		c1.931-0.224,3.851-0.459,5.792-0.683c-1.312-4.149-2.624-8.288-3.936-12.437c-0.427-1.333-0.843-2.859-0.224-4.107
		c0.629-1.291,2.101-1.899,3.435-2.4c4.085-1.483,8.149-2.976,12.224-4.459c-1.248,2.421-3.925,4.043-6.656,4.021
		c0.288,3.499,6.123,2.496,8.608,4.981c1.525,1.547,1.376,4.107,0.48,6.059c-0.907,1.963-2.4,3.584-3.435,5.461
		c-1.643,3.061-1.952,6.912-0.459,10.037c1.504,3.147,4.875,5.397,8.331,5.227c-0.181-2.379-0.352-4.789,0.427-7.04
		c0.768-2.229,2.741-4.224,5.109-4.267c1.312-0.021,2.603,0.565,3.893,0.395c2.539-0.331,4.021-3.275,6.485-3.893
		c2.485-0.651,5.845,0.981,7.285-1.141c0.48-0.704,0.523-1.6,0.597-2.453c0.64-7.829,5.803-15.168,12.981-18.421
		c-7.797-2.144-16.021-2.773-24.053-1.856c-3.893,0.459-7.84,1.248-11.691,0.48c-1.856-0.373-3.605-1.12-5.419-1.664
		c-7.083-2.187-15.019-1.44-21.589,2.005c-1.131,0.608-2.325,1.397-2.624,2.624c-0.32,1.227,0.928,2.795,2.069,2.251
		c-1.269,2.315-3.893,3.808-6.528,3.755c2.272,1.877,5.173,2.997,8.128,3.125c-5.461,0.544-10.304,4.981-11.328,10.379
		c-1.835-0.917-2.315-3.435-1.589-5.355c0.725-1.92,2.293-3.339,3.819-4.683c-4.48-0.704-9.28,1.92-11.104,6.059
		c-0.523,1.141-0.832,2.443-1.675,3.349c-0.843,0.939-2.485,1.312-3.307,0.373c-2.048-3.392,1.909-7.52,5.792-8.288
		c1.205-0.245,2.528-0.352,3.477-1.141c1.771-1.461,1.376-4.331,2.667-6.251c1.173-1.749,3.851-2.933,3.403-5.024
		c-0.363-1.707-2.592-2.123-4.341-2.123c-1.493,0.021-3.04,0.085-4.352,0.789c-1.312,0.725-2.272,2.272-1.813,3.691
		c0.203,0.672,0.672,1.248,0.683,1.941c0.011,1.579-2.187,1.984-3.776,1.941c-6.336-0.213-12.693,0.896-18.581,3.232
		c3.179,1.643,6.037,3.893,8.416,6.56c-7.061,1.333-13.312-7.04-20.341-5.6c-2.048,0.416-4.053,1.664-6.08,1.205
		c-1.557-0.373-2.699-1.643-4.011-2.539c-5.109-3.499-12.032-1.088-17.557,1.685c-5.024,2.517-10.357,5.707-12.128,11.04
		c-0.171,0.459-0.288,1.003-0.096,1.461c0.235,0.565,0.907,0.811,1.515,0.96c4.683,1.024,10.357-1.749,14.005,1.355
		c2.187,1.856,2.56,5.067,2.528,7.915c-0.064,6.059-1.259,12.128-3.477,17.771c-1.28,3.232-2.891,6.336-3.776,9.685
		c-2.005,7.776,0.16,16.043-1.024,23.979c-0.352,2.421-1.013,4.811-0.811,7.232c0.224,2.421,1.568,4.981,3.904,5.643
		c-0.459-5.483,0.555-11.083,2.901-16.064c2.016,4.459,2.891,9.419,2.496,14.272c-0.128,1.643-0.373,3.317,0.043,4.896
		c0.853,3.125,4.064,4.896,6.752,6.773c8.416,5.899,13.728,15.776,22.859,20.523c2.4,1.248,5.205,2.101,7.808,1.355
		c2.603-0.747,4.704-3.584,3.851-6.165"/>
	<path style="fill:#84DBFF;" d="M242.955,183.749c0.597,0.96,1.248,1.941,1.248,3.104c-0.021,1.877-2.208,2.624-3.819,1.664
		c-1.696-1.045-1.536-4.064,0.011-5.163c0.651-0.459,1.248-0.352,2.08-0.352c0.395,0.768-0.853,1.397-1.504,1.6
		c0.085,0.629,0.832,0.939,1.419,0.565c0.405-0.245,0.48-1.024,0.683-1.419c0.448-0.896,0.683-3.435,0.352-4.352
		c-0.331-0.875-1.707-1.547-0.043-2.123c1.099-0.352,1.557,0.107,2.517-0.789s1.685-1.664,2.859-2.379
		c1.163,2.08-2.165,3.563-2.251,5.44c0.544,0.149,1.088,0.149,1.621,0c0.683,1.045-0.373,1.621-0.427,2.453
		c-0.107,1.6,1.259,1.835,2.603,2.688c1.291,0.811,1.173,1.813,1.365,3.275c0.171,1.44-0.085,2.795-1.707,3.339
		c-0.853,0.288-1.888,0.107-2.816,0.416c-0.555,0.171-1.291,0.853-1.771,0.939c-1.44,0.288-1.664-1.333-1.205-2.4
		c0.224-0.523,0.736-0.811,0.896-1.461c0.203-0.789-0.309-1.643,0.395-2.336c0.459-0.416,0.939-0.021,1.216-0.587
		c0.203-0.395-0.117-1.184-0.277-1.525c-0.523-0.917-1.963-1.547-2.848-1.984"/>
	<path style="fill:#84DBFF;" d="M257.995,177.893c1.088-0.224,2.069-1.024,3.211-1.312c1.568-0.373,2.069,0.789,2.923,2.037
		c0.459,0.672,2.027,2.773,0.96,3.605c-0.768,0.587-0.917-0.213-1.216-0.725c-0.779-1.248-0.363-1.397-1.845-1.685
		c-2.091-0.395-4.288-1.024-3.893,1.728c0.309,2.101,0.917,2.795-0.704,4.608c-1.376,1.504-3.168,3.541-4.768,4.704
		c-1.227,0.917-5.024,1.045-5.216,2.837c-0.693-0.213-2.635,0.192-3.435,0.373c0.096,1.088,0.693,1.088,1.429,1.504
		c0.875,0.501,0.875,0.107,1.589,1.088c0.693,0.96,1.867,3.04,1.003,4.213c-1.451,1.984-5.568-0.565-7.275,2.165
		c-1.056,1.728-0.693,4.544-0.661,6.453c0.064,2.581,0.256,4.48,3.125,4.725c2.56,0.213,6.005-1.067,7.456-3.253
		c0.587-0.853,0.779-2.475,1.611-3.104c0.533-0.416,1.408-0.107,1.92-0.629c0.619-0.651,0.117-1.6,0.363-2.421
		c0.352-1.088,0.981-1.419,2.016-1.813c2.741-1.024,4,1.312,5.749-1.547c1.077,0.192,1.749,1.355,2.496,2.08
		c1.024,1.003,2.24,1.643,3.317,2.539c1.813,1.525,2.432,3.733,0.224,4.917c-0.821,0.437-1.792,0.171-1.664,1.547
		c0.085,1.109,0.96,1.269,2.005,1.205c2.187-0.128,3.573-2.123,3.648-4.192c0.16-4.021-6.315-4.523-5.803-8.373
		c0.405-3.061,5.451,2.709,6.592,3.563c1.131,0.853,2.677,1.877,3.115,3.349c0.309,1.003-0.192,2.251,0,3.296
		c0.245,1.397,1.013,1.088,1.579,2.005c0.48,0.789-0.085,1.899,0.939,2.144c1.355-1.504-0.043-4.245,0.651-6.101
		c0.587-1.557,3.712-3.168,5.141-1.621c0.619,0.672,0.309,1.835,0.309,2.688c-0.011,2.603,1.227,3.52,4.021,3.733
		c1.856,0.149,4.416-0.544,6.155,0.309c1.739,0.832,1.301,5.067,1.109,6.997c-0.203,1.963-0.587,1.6-2.272,1.579
		c-2.229-0.021-3.253,1.248-5.248,1.728c-2.069,0.501-3.445-0.896-5.323-1.579c-1.205-0.437-3.989-1.813-5.291-1.44
		c-1.653,0.501-0.992,2.315-1.995,3.317c-0.896,0.896-3.328,0.768-4.309,0.128c-1.173-0.811-1.44-2.517-2.795-3.253
		c-1.632-0.875-3.819-0.171-5.451-1.045c-1.515-0.789-1.931-2.379-1.611-4.043c0.192-0.939,1.312-2.144,0.373-2.976
		c-0.832-0.747-3.957,0.587-4.715,0.747c-1.931,0.437-3.861,0.651-5.675,1.397c-1.92,0.789-3.083,1.376-5.195,1.397
		c-3.691,0.021-5.888,0.288-8.405,3.253c-0.875,1.045-1.013,1.856-1.312,3.083c-0.437,1.899-1.12,3.147-2.208,4.811
		c-1.909,2.912-3.872,5.685-5.92,8.523c-1.323,1.856-3.413,4.213-2.805,6.688c0.491,2.059,1.931,3.691,2.293,5.899
		c0.416,2.645,0.395,3.083-2.027,3.936c0,1.749-0.331,3.211,0.896,4.48c0.832,0.875,2.688,1.312,3.488,2.123
		c1.301,1.291,0.832,3.829,2.208,5.355c1.557,1.685,3.968,3.851,6.304,4.043c1.973,0.149,3.691-1.024,5.589-1.227
		c0.427-0.064,1.259-0.171,1.664-0.043c0.405,0.128,0.864,0.917,1.088,0.939c2.827,0.331,5.237-2.795,8.48-2.037
		c2.112,0.523,1.653,2.517,4.203,2.517c2.496,0,3.595,0.149,3.691,2.88c0.096,2.816-2.187,5.024-1.739,8.171
		c0.341,2.357,2.656,4.523,3.829,6.667c1.739,3.211,1.835,6.731,1.835,10.336c-0.011,3.563-0.352,7.168-0.181,10.731
		c0.171,3.061,2.464,5.547,2.208,8.725c-0.096,1.045,0.085,1.643,0.277,2.645c0.235,1.248,0.075,2.336,0.021,3.605
		c-0.149,3.872,3.701,3.755,5.013,6.667c0.939,2.08-0.395,4.981-0.277,7.061c3.445,0.939,5.76-0.629,8.981-0.917
		c1.536-0.128,2.688,0.213,3.744-1.024c1.312-1.525,2.016-3.936,2.944-5.728c1.173-2.293,2.944-4.917,4.661-6.816
		c1.931-2.08,2.869-1.877,2.859-4.811c-0.011-3.808,1.163-6.955,3.776-9.813c2.88-3.125,6.08-4.939,8.149-8.747
		c-1.557-3.232-4.341-4.651-4.715-8.48c-0.341-3.563,0.117-7.605,1.76-10.795c1.504-2.88,3.947-5.547,5.963-8.085
		c1.813-2.293,4-4.373,5.515-6.912c1.376-2.336,2.293-5.024,3.072-7.584c-1.205,0.107-2.336,0.768-3.563,0.917
		c-1.984,0.224-3.989,0.192-5.995,0.192c-2.016-1.557-2.923-4.96-4.779-6.859c-2.229-2.293-5.035-3.296-6.293-6.453
		c-1.707-4.352-4.224-8.789-5.333-13.333c-0.352-1.483-0.64-4.523,1.984-3.477c-0.459,4.437,5.248,6.837,7.499,9.835
		c2.005,2.667,3.755,5.643,4.832,8.789c0.704,2.101,0.277,5.963,2.368,7.275c4.096,2.603,7.883-3.605,10.773-5.547
		c3.744-2.496,7.029-5.643,6.848-10.624c-0.128-2.795-2.624-3.733-4.341-5.6c-1.269,0.789-1.216,1.557-2.624,1.877
		c-1.653,0.373-3.509-0.043-4.576-1.291c-0.875-1.045-1.419-2.4-2.208-3.52c-0.48-0.683-1.568-1.461-1.899-2.187
		c-0.331-0.747-0.213-1.504,0.128-2.251c2.88,0.672,5.056,5.899,8.331,5.664c1.067-0.085,1.621-1.163,2.752-1.141
		c1.877,0.043,1.792,2.581,3.456,3.413c2.091,1.067,5.92,0.373,8.203,0.373c3.445-0.021,4.299,0.395,6.091,3.211
		c1.675,2.667,2.752,2.56,5.6,2.752c1.579,4.352,3.232,8.683,4.704,13.067c0.992,2.933,1.547,7.168,3.605,9.525
		c2.677,3.019,3.477-2.037,3.477-4.064c-0.021-2.165-1.067-5.333-0.224-7.413c0.331-0.853,1.301-1.6,1.739-2.453
		c0.843-1.685,1.376-3.456,2.411-5.067c0.8-1.248,1.813-2.773,2.965-3.669c1.557-1.205,4.437-2.603,6.464-2.645
		c3.52-0.064,4.768,4.672,5.621,7.477c0.875,2.859-0.245,6.08,3.232,4.523c0.96-0.416,0.48-1.728,1.941-0.245
		c0.885,0.896,0.704,3.317,0.992,4.459c0.203,0.789,0.555,1.355,0.555,2.165c0.043,2.315-0.075,4.331,1.131,6.421
		c0.96,1.621,3.243,2.731,3.947,4.395c0.651,1.547-0.128,3.339,0.853,4.981c0.853,1.483,4.288,2.603,4.203,4.416
		c-2.005,0.149-4.256-0.501-5.525-2.037c-1.493-1.835-2.283-4-5.056-3.712c-0.309,1.6,1.557,2.603,2.432,3.584
		c0.885,1.003,1.813,2.144,2.656,3.232c2.304,3.019,1.301,7.584,4,10.4c0.811,0.832,1.867,0.939,2.752,1.579
		c0.875,0.651,0.587,0.917,1.237,1.771c1.483,1.856,7.957,4.565,10.005,2.144c-3.339-1.643-8.235-1.643-9.92-5.621
		c-0.587-1.397,0.299-2.955-0.171-4.245c-0.544-1.525-4.757-3.829-4.352-5.504c2.613,0.064,3.317-2.101,2.357-4.171
		c-0.725-1.557-1.451-2.443-1.621-4.192c-0.309-3.189-2.496-5.109-4.064-7.851c-1.013-1.771-3.189-5.92,0-5.856
		c2.731,0.043,2.933,3.392,4.224,5.184c3.445,4.853,7.029-1.728,8.149-4.917c-2.571-1.643-4.779-6.016-6.507-8.629
		c-1.611-2.443-3.541-8.587,0.235-10.165c1.099,0.789,1.312,3.211,1.269,4.48c-0.032,0.789-0.341,1.419,0.107,1.92
		c0.363,0.437,3.125,0.608,3.84,0.416c0.747-2.795-2.539-3.605,0.224-5.397c2.517-1.621,4.459-3.104,6.315-5.525
		c3.317-4.331,3.659-10.453,0.16-14.731c-1.323-1.621-5.227-3.605-5.653-5.728c-0.267-1.397,1.621-3.061,0.981-4.352
		c-1.099-2.187-6.368,0.565-7.936-1.312c-1.419-1.728,0.224-5.12,2.603-3.893c1.109,0.565,1.568,3.456,3.232,2.933
		c1.067-0.331,0.875-2.208,2.752-1.397c1.205,0.544,1.643,2.645,2.72,3.52c1.056,0.875,2.645,1.12,3.68,1.835
		c0.384,0.245,0.629,0.043,0.939,0.395c0.501,0.587-0.032,2.293,0.565,2.731c2.453,1.792,1.184-2.752,0.949-3.349
		c-1.333-3.317-3.179-2.837-5.728-4.544c-1.813-1.205-1.952-3.232-1.259-5.227c0.373-1.067,0.341-1.227,1.291-1.643
		c1.035-0.48,2.443,0.395,2.912-0.939c2.165-6.037,1.173-12.875-4.16-17.643c-2.176-1.963-4.992-1.941-7.573-2.709
		c-4.192-1.269-2.517-6.645-5.109-9.643c2.624-1.899,10.88,2.379,12.277-0.725c1.013-2.187-6.304-5.333-1.696-6.272
		c2.315-0.459,2.901,2.933,5.152,0.896c1.099,1.088,1.077,3.211,1.835,4.565c0.821,1.504,1.739,2.603,2.848,3.787
		c1.109,1.184,0.811,1.728,1.451,3.168c0.779,1.771,3.221,2.229,4.821,3.04c1.408,0.704,1.088,0.683,1.771,1.707
		c0.768,1.12,0.747,2.101,2.496,1.963c0.629-1.856-0.619-2.56-1.92-3.851c-1.237-1.227-2.581-2.293-3.531-3.755
		c-0.64-0.939-0.789-2.336-1.632-3.168c-1.269-1.184-8.523-4.416-4.309-6.731c1.152-0.651,3.264,0.149,4.16-1.291
		c1.195-1.877-0.832-4.48-2.091-5.525c-0.288-0.224-0.661-0.064-0.949-0.309c-0.448-0.416-0.779-1.227-1.216-1.685
		c-0.533-0.608-0.992-1.067-1.728-1.376c-1.003-0.459-2.517-0.501-3.648-0.704c-2.379-0.437-3.829-1.685-5.995-2.731
		c-2.869-1.376-5.813,0.437-8.843,0.875c-3.029,0.459-5.259-0.373-7.925-1.664c-2.379-1.12-3.584-0.587-6.069-0.224
		c-2.763,0.395-3.808-0.245-6.315-1.184c-1.771-0.651-4-0.587-5.845-0.501c-0.224,1.376,1.301,2.016,0.907,3.435
		c-0.416,0-0.907-0.064-1.323,0c-0.971,0.149-1.76-0.064-2.731,0.267c-0.512,0.213-1.013,0.768-1.515,0.917
		c-2.059,0.587-3.147-1.355-4.747-2.379c-1.739-1.12-3.808-1.141-5.835-1.163c-1.589-0.021-3.051,0.213-4.629,0.395
		c-2.827,0.352-4.256-0.768-6.603-2.208c-2.848-1.728-4.789-2.539-7.979-2.56c-1.771-2.56-5.163-3.541-8.107-3.413
		c-1.109,0.043-1.824,0.149-2.891-0.395c-1.216-0.587-1.749-1.44-3.296-1.525c-0.917-0.043-2.08-0.149-2.165,1.045
		c-0.107,1.461,2.912,1.685,4,1.92c3.787,0.853,7.413,1.205,10.773,3.456c-0.288,2.773-6.187,1.291-7.424,2.955
		c-0.501,0.672,0,1.6-0.64,2.229c-0.661,0.651-1.813,0.352-2.624,1.109c-1.941,1.771-3.349,5.557-0.768,7.275
		c1.728,1.141,1.984,0.608,1.856,2.955c-0.053,0.96,0.011,2.357-0.619,3.104c-0.789-0.523-0.811-2.272-1.493-3.168
		c-0.96-1.227-2.688-1.483-3.563-2.773c-0.768-1.163-0.64-2.123-1.728-3.083c-0.992-0.853-3.627-2.453-5.056-2.315
		c-1.856,3.392,3.563,4.608,3.84,7.211c0.288,2.773-2.752-1.109-3.648-1.579c-2.667-1.419-6.731,0.064-8.8-2.453
		c-0.757-0.939-1.248-3.339-0.896-4.501c0.437-1.525,2.528-1.963,2.304-3.712c-2.539-0.832-5.483,2.891-5.579,5.067
		c-0.128,2.315-0.331,2.624,1.877,3.563c1.269,0.523,4.171,0.981,4.48,2.603c0.288,1.547-2.037,1.856-3.125,2.336
		c-2.176,0.96-3.755,2.581-5.739,3.691c-1.173,0.672-2.987,0-3.904,0.96c-0.437,0.48-0.288,1.483-0.747,2.016
		c-1.387,1.707-3.915,1.397-5.088-0.043c-4.704-5.792,3.392-2.059,5.419-3.648c-1.44-2.336-7.339-2.517-9.888-3.669
		c-2.827-1.269-6.133-3.019-9.387-2.517c-3.083,0.459-5.525,3.787-6.411,6.539c-0.565,1.749-1.28,3.563-2.549,4.96
		c-1.109,1.184-2.528,1.557-3.776,2.475c-1.664,1.248-2.229,3.957-1.589,5.963c0.384,1.205,0.395,1.547,1.419,1.419"/>
	<path style="fill:#84DBFF;" d="M239.093,189.829c0.533-1.067,1.973-0.725,2.901-1.109c1.141-0.459,1.269-1.227,1.365-2.443
		c0.085-1.44,0.565-3.477-1.184-3.541c-1.109-0.043-1.109,0.192-1.675,1.109c-0.416,0.629-1.024,1.248-1.184,1.963
		c-0.085,0.309,0.235,0.672,0.107,1.024c-0.171,0.416-0.704,0.395-0.928,0.789c-0.576,1.109-0.16,2.123,1.152,1.877"/>
	<path style="fill:#84DBFF;" d="M264.565,146.533c-0.053-0.459,0.672-1.984,1.184-2.165c0.875-0.309,0.853,0.501,1.376,0.683
		c0.352,0.128,1.12,0.352,1.493-0.149c0.896-1.291-1.611-1.461-2.187-1.856c0.224-1.44,4.427-0.501,3.659-2.859
		c-1.312-0.064-2.624-0.213-3.936-0.309c-1.163-0.085-1.632,0.395-2.645,0.939c-0.725,0.352-1.333,0.608-2.208,0.501
		c-0.896-0.149-2.688-1.227-3.627-0.48c-0.437,0.352-0.224,1.376,0,1.707c0.523,0.747,1.536,0.629,2.293,0.896
		c1.728,0.629,1.643,1.547,2.293,3.04c0.373,0.917,1.365,1.707,2.421,0.811"/>
</g>
<path style="fill:#FF7058;" d="M337.419,186.555c0,29.461-53.333,100.288-53.333,100.288s-53.333-70.837-53.333-100.288
	s23.872-53.333,53.333-53.333C313.536,133.221,337.419,157.104,337.419,186.555"/>
<path style="fill:#FFFFFF;" d="M313.973,186.555c0,16.501-13.387,29.899-29.888,29.899s-29.899-13.397-29.899-29.899
	s13.397-29.899,29.899-29.899C300.587,156.656,313.973,170.053,313.973,186.555"/>
<path style="fill:#ACB3BA;" d="M0,389.765c0,29.621,24.021,53.643,53.643,53.643h404.704c29.621,0,53.643-24.021,53.643-53.643H0z"
	/>
<polygon style="fill:#CDD6E0;" points="177.589,389.765 191.115,410.928 320.875,410.928 334.4,389.765 "/>
<g>
</g>
<g>
</g>
<g>
</g>
<g>
</g>
<g>
</g>
<g>
</g>
<g>
</g>
<g>
</g>
<g>
</g>
<g>
</g>
<g>
</g>
<g>
</g>
<g>
</g>
<g>
</g>
<g>
</g>
</svg>
