<svg height="512pt" viewBox="0 0 511 512" width="512pt" xmlns="http://www.w3.org/2000/svg"><g fill="#4dd0e1"><path d="m440.5 277.332031h-157.332031c-11.777344 0-21.335938-9.554687-21.335938-21.332031s9.558594-21.332031 21.335938-21.332031h157.332031c11.777344 0 21.332031 9.554687 21.332031 21.332031s-9.554687 21.332031-21.332031 21.332031zm0 0"/><path d="m243.1875 254.230469c-7.378906 0-14.550781-3.820313-18.496094-10.667969l-76.160156-131.925781c-5.886719-10.21875-2.386719-23.253907 7.808594-29.140625 10.199218-5.910156 23.230468-2.390625 29.140625 7.808594l76.160156 131.925781c5.890625 10.21875 2.390625 23.253906-7.808594 29.140625-3.371093 1.960937-7.039062 2.859375-10.644531 2.859375zm0 0"/><path d="m169.886719 427.308594c-3.605469 0-7.273438-.917969-10.644531-2.859375-10.21875-5.890625-13.695313-18.945313-7.808594-29.140625l73.257812-126.894532c5.886719-10.214843 18.902344-13.714843 29.140625-7.804687 10.21875 5.886719 13.699219 18.941406 7.808594 29.140625l-73.257813 126.890625c-3.945312 6.847656-11.113281 10.667969-18.496093 10.667969zm0 0"/></g><path d="m484.402344 200.40625-40.105469-5.097656c-3.304687-10.179688-7.382813-19.992188-12.136719-29.3125l24.765625-31.894532c10.027344-12.90625 8.855469-31.125-2.601562-42.21875l-33.601563-33.601562c-11.199218-11.5625-29.417968-12.714844-42.34375-2.707031l-31.851562 24.765625c-9.324219-4.753906-19.136719-8.832032-29.335938-12.136719l-5.097656-40.042969c-1.917969-16.0625-15.550781-28.160156-31.699219-28.160156h-47.789062c-16.148438 0-29.78125 12.097656-31.699219 28.097656l-5.097656 40.105469c-10.199219 3.304687-20.011719 7.359375-29.335938 12.136719l-31.871094-24.765625c-12.886718-10.007813-31.105468-8.855469-42.21875 2.601562l-33.601562 33.578125c-11.5625 11.222656-12.734375 29.441406-2.707031 42.367188l24.765625 31.875c-4.777344 9.320312-8.832032 19.132812-12.136719 29.3125l-40.042969 5.097656c-16.0625 1.917969-28.160156 15.550781-28.160156 31.699219v47.789062c0 16.148438 12.097656 29.78125 28.097656 31.699219l40.105469 5.097656c3.304687 10.179688 7.382813 19.992188 12.136719 29.3125l-24.765625 31.894532c-10.027344 12.90625-8.855469 31.125 2.601562 42.21875l33.601563 33.601562c11.21875 11.539062 29.417968 12.691406 42.34375 2.6875l31.875-24.769531c9.320312 4.777343 19.132812 8.855469 29.3125 12.140625l5.097656 40.019531c1.917969 16.105469 15.550781 28.203125 31.699219 28.203125h47.789062c16.148438 0 29.78125-12.097656 31.699219-28.097656l5.097656-40.105469c10.179688-3.304687 19.992188-7.382813 29.3125-12.136719l31.894532 24.765625c12.90625 10.027344 31.125 8.855469 42.21875-2.601562l33.601562-33.601563c11.5625-11.21875 12.734375-29.417968 2.707031-42.34375l-24.765625-31.875c4.777344-9.320312 8.851563-19.132812 12.136719-29.3125l40.023437-5.097656c16.0625-1.917969 28.160157-15.550781 28.160157-31.699219v-47.789062c.019531-16.148438-12.078125-29.78125-28.078125-31.699219zm-227.902344 183.59375c-70.570312 0-128-57.429688-128-128s57.429688-128 128-128 128 57.429688 128 128-57.429688 128-128 128zm0 0" fill="#00bcd4"/><path d="m309.832031 256c0 29.457031-23.875 53.332031-53.332031 53.332031s-53.332031-23.875-53.332031-53.332031 23.875-53.332031 53.332031-53.332031 53.332031 23.875 53.332031 53.332031zm0 0" fill="#00bcd4"/></svg>