<svg height="512" viewBox="0 0 128 128" width="512" xmlns="http://www.w3.org/2000/svg"><g><g><g><path d="m61.647 76.508h-7.192a1.749 1.749 0 0 1 -1.75-1.75v-16.81a1.75 1.75 0 0 1 1.75-1.75h7.192a10.155 10.155 0 1 1 0 20.31zm-5.442-3.5h5.442a6.655 6.655 0 1 0 0-13.31h-5.442z" fill="#ff984b"/><path d="m17.381 53.557v20.543a20.545 20.545 0 0 0 20.545 20.548 20.546 20.546 0 0 0 20.546-20.548v-20.543z" fill="#ffc766"/><path d="m56.115 98.148h-36.377l-6.829-7h50.035z" fill="#ff984b"/></g><g fill="#d8d8e8"><path d="m26.65 45.785a1.752 1.752 0 0 1 -1.572-2.517c1.272-2.61.476-4.031-.531-5.828-1.168-2.085-2.767-4.942.826-8.783a1.75 1.75 0 1 1 2.556 2.39c-1.846 1.973-1.432 2.711-.328 4.682 1.138 2.032 2.7 4.815.624 9.072a1.752 1.752 0 0 1 -1.575.984z"/><path d="m38.377 45.785a1.752 1.752 0 0 1 -1.572-2.517c1.272-2.61.476-4.031-.531-5.828-1.168-2.085-2.767-4.942.827-8.783a1.749 1.749 0 1 1 2.555 2.39c-1.846 1.973-1.432 2.711-.328 4.682 1.138 2.032 2.7 4.815.624 9.072a1.752 1.752 0 0 1 -1.575.984z"/><path d="m50.1 45.785a1.752 1.752 0 0 1 -1.572-2.517c1.272-2.61.476-4.031-.531-5.828-1.168-2.085-2.767-4.942.827-8.783a1.749 1.749 0 1 1 2.555 2.39c-1.845 1.973-1.432 2.711-.328 4.682 1.138 2.032 2.7 4.815.624 9.072a1.752 1.752 0 0 1 -1.575.984z"/></g></g><g><path d="m115.09 91.63v2.16a4.357 4.357 0 0 1 -4.36 4.36h-56.72a4.357 4.357 0 0 1 -4.36-4.36v-2.16a15.556 15.556 0 0 1 15.56-15.55h34.33a15.547 15.547 0 0 1 15.55 15.55z" fill="#e0a990"/><g fill="#ad836e"><path d="m71.83 76.08v11.84a1.75 1.75 0 0 1 -3.5 0v-11.84z"/><path d="m84.12 76.08v11.84a1.75 1.75 0 1 1 -3.5 0v-11.84z"/><path d="m96.42 76.08v11.84a1.75 1.75 0 0 1 -3.5 0v-11.84z"/></g></g></g></svg>