<svg height="512" viewBox="0 0 58 58" width="512" xmlns="http://www.w3.org/2000/svg"><g id="Page-1" fill="none" fill-rule="evenodd"><g id="005---Laptop-Optimisation"><path id="Path" d="m47.4 8h4.6c2.209139 0 4 1.790861 4 4v38h-54v-38c0-2.209139 1.790861-4 4-4z" fill="#90bae1"/><path id="Path" d="m52.95 8.12c-11.41.71-50.95 5.65-50.95 39.88v-36c0-2.209139 1.790861-4 4-4h46c.3205339-.00142005.6398873.03891933.95.12z" fill="#b0d3f0"/><path id="Path" d="m34.99 27.34c-.01.34-.03.66-.06.99-.0520701.3832601-.3482869.6875924-.73.75l-1.42.23c-.309409 1.5774484-.9316482 3.0769428-1.83 4.41l.84 1.17c.2321388.3090713.228039.7354497-.01 1.04-.27.34-.57.66-.88.98s-.64.59-.98.87c-.3045503.238039-.7309287.2421388-1.04.01l-1.17-.83c-1.3385094.892936-2.8408254 1.5115367-4.42 1.82l-.23 1.42c-.0557871.3851257-.3635075.6846402-.75.73-.43.04-.86.07-1.31.07s-.88-.03-1.31-.07c-.3847783-.0489379-.6906825-.3466846-.75-.73l-.23-1.42c-1.5791746-.3084633-3.0814906-.927064-4.42-1.82l-1.17.83c-.3090713.2321388-.7354497.228039-1.04-.01-.34-.28-.66-.56-.98-.87s-.61-.64-.88-.98c-.238039-.3045503-.24213879-.7309287-.01-1.04l.84-1.17c-.8983518-1.3330572-1.52059096-2.8325516-1.83-4.41l-1.42-.23c-.38171313-.0624076-.67792986-.3667399-.73-.75-.04-.43-.07-.86-.07-1.31s.03-.88.07-1.31c.04535979-.3864925.34487434-.6942129.73-.75l1.42-.23c.30755173-1.5780092.9299395-3.0778618 1.83-4.41l-.84-1.17c-.23206931-.3127829-.22798445-.7416938.01-1.05.27-.33.57-.66.88-.97s.64-.61.98-.88c.3045503-.238039.7309287-.2421388 1.04-.01l1.17.84c1.3341291-.9011306 2.8381655-1.5204397 4.42-1.82l.23-1.42c.0593175-.3833154.3652217-.6810621.75-.73.43-.04.86-.07 1.31-.07s.88.03 1.31.07c.3192845.0344532.5909844.2479318.7.55-.01.11-.01.21-.01.32 0 .45.03.88.07 1.31.0495432.3826117.3480977.685256.73.74l1.42.24c.3075517 1.5780092.9299395 3.0778618 1.83 4.41l-.84 1.17c-.2321388.3090713-.228039.7354497.01 1.04.2746686.3397877.5684782.6636461.88.97.32.32.64.61.98.89.3085156.230006.7314844.230006 1.04 0l1.17-.83c1.3363736.8969387 2.8395235 1.5158827 4.42 1.82l.23 1.43c.0120381.0579265.0287597.11478.05.17z" fill="#2980ba"/><path id="Path" d="m27.36 24.113c.4276829.908714.6463706 1.9016927.64 2.906.0099842 3.3599116-2.3664076 6.2539865-5.6640496 6.8979298s-6.588216-1.1435213-7.8429722-4.2603615-.1204684-6.6856352 2.7035366-8.5061026c2.824005-1.8204675 6.5427424-1.380128 8.8634852 1.0495343" fill="#285680"/><path id="Path" d="m21 30c-1.2133867 0-2.3072956-.7309265-2.7716386-1.8519497s-.2076757-2.4113767.6503183-3.2693706c.8579939-.857994 2.1483474-1.1146613 3.2693706-.6503183s1.8519497 1.5582519 1.8519497 2.7716386c0 1.6568542-1.3431458 3-3 3z" fill="#2c3e50"/><path id="Path" d="m51 13.98c0 .45-.03.88-.07 1.31-.0495432.3826117-.3480977.685256-.73.74l-1.42.24c-.3075517 1.5780092-.9299395 3.0778618-1.83 4.41l.84 1.17c.2321388.3090713.228039.7354497-.01 1.04-.2746686.3397877-.5684782.6636461-.88.97-.32.32-.64.61-.98.89-.3085156.230006-.7314844.230006-1.04 0l-1.17-.83c-1.3363736.8969387-2.8395235 1.5158827-4.42 1.82l-.23 1.43c-.0602129.3810529-.3668078.6753839-.75.72-.8708398.0933322-1.7491602.0933322-2.62 0-.3192845-.0344532-.5909844-.2479318-.7-.55-.0212403-.05522-.0379619-.1120735-.05-.17l-.23-1.43c-1.5804765-.3041173-3.0836264-.9230613-4.42-1.82l-1.17.83c-.3085156.230006-.7314844.230006-1.04 0-.34-.28-.66-.57-.98-.89-.3115218-.3063539-.6053314-.6302123-.88-.97-.238039-.3045503-.2421388-.7309287-.01-1.04l.84-1.17c-.9000605-1.3321382-1.5224483-2.8319908-1.83-4.41l-1.42-.24c-.3819023-.054744-.6804568-.3573883-.73-.74-.04-.43-.07-.86-.07-1.31 0-.11 0-.21.01-.32.01-.3333333.03-.6633333.06-.99.0495432-.3826117.3480977-.685256.73-.74l1.42-.24c.3075517-1.5780092.9299395-3.07786178 1.83-4.41l-.84-1.17c-.2321388-.30907128-.228039-.73544966.01-1.04.2746686-.33978772.5684782-.66364611.88-.97.3095015-.31190411.63671-.60572394.98-.88.3045503-.238039.7309287-.24213879 1.04-.01l1.17.84c1.3335497-.90424163 2.8375461-1.52693698 4.42-1.83l.23-1.42c.0593175-.38331539.3652217-.6810621.75-.73.43-.04.86-.07 1.31-.07s.88.03 1.31.07c.3864925.04535979.6942129.34487434.75.73l.23 1.42c1.5824539.30306302 3.0864503.92575837 4.42 1.83l1.17-.84c.3090713-.23213879.7354497-.228039 1.04.01.34329.27427606.6704985.56809589.98.88.3115218.30635389.6053314.63021228.88.97.238039.30455034.2421388.73092872.01 1.04l-.84 1.17c.9000605 1.33213822 1.5224483 2.8319908 1.83 4.41l1.42.24c.3819023.054744.6804568.3573883.73.74.04.43.07.87.07 1.31z" fill="#3b97d3"/><ellipse id="Oval" cx="37" cy="13.981" fill="#285680" rx="7" ry="6.99"/><path id="Path" d="m37 17c-1.6568542 0-3-1.3431458-3-3s1.3431458-3 3-3 3 1.3431458 3 3-1.3431458 3-3 3z" fill="#2c3e50"/><path id="Path" d="m52 58h-46c-3.3137085 0-6-2.6862915-6-6v-3c0-.5522847.44771525-1 1-1h56c.5522847 0 1 .4477153 1 1v3c0 3.3137085-2.6862915 6-6 6z" fill="#547580"/><path id="Path" d="m19 48h20v2c0 1.6568542-1.3431458 3-3 3h-14c-1.6568542 0-3-1.3431458-3-3z" fill="#3f5c6c"/><path id="Path" d="m15 53h-3c-.5522847 0-1-.4477153-1-1s.4477153-1 1-1h3c.5522847 0 1 .4477153 1 1s-.4477153 1-1 1z" fill="#3f5c6c"/><g fill="#65ddb9"><circle id="Oval" cx="4" cy="52" r="1"/><circle id="Oval" cx="8" cy="52" r="1"/></g></g></g></svg>