<?xml version="1.0" encoding="iso-8859-1"?>
<!-- Generator: Adobe Illustrator 19.0.0, SVG Export Plug-In . SVG Version: 6.00 Build 0)  -->
<svg version="1.1" id="Capa_1" xmlns="http://www.w3.org/2000/svg" xmlns:xlink="http://www.w3.org/1999/xlink" x="0px" y="0px"
	 viewBox="0 0 512.794 512.794" style="enable-background:new 0 0 512.794 512.794;" xml:space="preserve">
<path style="fill:#F3F3F3;" d="M512,145.6v193.067H0V145.6H512z"/>
<g>
	<rect x="32" y="179.733" style="fill:#CED6E0;" width="179.2" height="18.133"/>
	<rect x="32" y="233.067" style="fill:#CED6E0;" width="448" height="18.133"/>
	<rect x="32" y="285.333" style="fill:#CED6E0;" width="448" height="18.133"/>
</g>
<rect y="72" style="fill:#66C6B9;" width="512" height="73.6"/>
<rect x="32" y="98.667" style="fill:#415A6B;" width="142.933" height="19.2"/>
<path style="fill:#FFD15C;" d="M496,400.533L325.333,274.667c-49.067-35.2-71.467-45.867-118.4-66.133l-6.4,8.533
	c33.067,38.4,50.133,56.533,99.2,92.8l171.733,125.867c4.267,3.2,10.667,2.133,13.867-2.133l13.867-19.2
	C501.333,409.067,500.267,403.733,496,400.533z"/>
<path style="fill:#415A6B;" d="M497.067,414.4l-11.733,17.067L496,438.933c4.267,3.2,10.667,2.133,14.933-2.133
	c3.2-4.267,2.133-10.667-2.133-14.933L497.067,414.4z"/>
<path style="fill:#FFFFFF;" d="M193.067,202.133c-2.133-1.067-3.2,1.067-2.133,3.2c3.2,4.267,6.4,7.467,9.6,11.733l6.4-8.533
	C202.667,206.4,197.333,204.267,193.067,202.133z"/>
<g>
	<path style="fill:#415A6B;" d="M478.933,362.133l-74.667-54.4l-5.333,7.467l70.4,51.2l-3.2,4.267l-6.4-4.267
		c-2.133-1.067-5.333-1.067-6.4,1.067l-25.6,34.133c-1.067,2.133-1.067,5.333,1.067,6.4l20.267,14.933
		c2.133,1.067,5.333,1.067,6.4-1.067l25.6-34.133c1.067-2.133,1.067-5.333-1.067-6.4l-6.4-4.267l6.4-8.533
		C482.133,367.467,481.067,364.267,478.933,362.133z"/>
	<path style="fill:#415A6B;" d="M240,223.467c-9.6-4.267-20.267-9.6-33.067-14.933l-6.4,8.533
		c8.533,10.667,17.067,19.2,24.533,26.667L240,223.467z"/>
</g>
<g>
</g>
<g>
</g>
<g>
</g>
<g>
</g>
<g>
</g>
<g>
</g>
<g>
</g>
<g>
</g>
<g>
</g>
<g>
</g>
<g>
</g>
<g>
</g>
<g>
</g>
<g>
</g>
<g>
</g>
</svg>
