<svg height="512" viewBox="0 0 512 512" width="512" xmlns="http://www.w3.org/2000/svg"><g id="Flat"><path d="m109.821 450.507-16.164-16.164-32.165-32.164a19.105 19.105 0 0 0 -26.985 0l-24.164 24.164 11.314 11.314 24.163-24.164a3.086 3.086 0 0 1 4.359 0l10.507 10.507-12.686 12.687a11.243 11.243 0 0 1 -8 3.313 27.135 27.135 0 0 0 -19.314 8l-10.343 10.343 11.314 11.314 10.343-10.344a11.243 11.243 0 0 1 8-3.313 27.135 27.135 0 0 0 19.314-8l12.686-12.686 4.686 4.686-13.373 13.373a24.809 24.809 0 0 0 -7.313 17.656 8.981 8.981 0 0 1 -8.971 8.971h-7.029v16h7.029a25 25 0 0 0 24.971-24.971 8.913 8.913 0 0 1 2.628-6.343l13.372-13.372 10.508 10.507a3.082 3.082 0 0 1 0 4.358l-16.165 16.164 11.314 11.314 16.163-16.164a19.081 19.081 0 0 0 0-26.986z" fill="#f0e39f"/><path d="m310.88 278.694 48.838-27.907a70.616 70.616 0 0 1 35.035-9.3h41.247a52 52 0 0 0 52-52 52 52 0 0 0 -52-52h-14.461a52 52 0 0 1 -36.769-15.231l-20.022-20.026a52 52 0 0 0 -73.518-.022l-65.289 65.212a70.616 70.616 0 0 0 -.081 99.844 70.615 70.615 0 0 0 85.02 11.43z" fill="#5f8c46"/><path d="m422.1 210.045-9.2-13.09a72.945 72.945 0 0 1 43.7-12.933l-1.162 15.958a57.609 57.609 0 0 0 -33.338 10.065z" fill="#649441"/><path d="m320 96 24-24a67.882 67.882 0 0 1 96 0 67.882 67.882 0 0 1 0 96l-24 24z" fill="#58853f"/><path d="m372.094 101.5h60.811v16h-60.811z" fill="#5f8c46" transform="matrix(.707 -.707 .707 .707 40.47 316.698)"/><path d="m234.788 201.12 27.912-48.838a70.616 70.616 0 0 0 9.3-35.035v-41.247a52 52 0 0 1 52-52 52 52 0 0 1 52 52v14.461a52 52 0 0 0 15.23 36.769l20.022 20.022a52 52 0 0 1 .022 73.518l-65.211 65.289a70.616 70.616 0 0 1 -99.844.081 70.618 70.618 0 0 1 -11.431-85.02z" fill="#5f8c46"/><path d="m323.256 104.784-13.512-8.568c11.477-18.1 10.285-39.5 10.272-39.717l15.968-1c.069 1.088 1.498 26.851-12.728 49.285z" fill="#649441"/><path d="m131.882 172.118a96 96 0 0 0 28.118-67.882v-18.011a62.225 62.225 0 0 1 62.225-62.225 62.225 62.225 0 0 1 44 18.225l57.775 57.775a62.225 62.225 0 0 1 0 88l-156 156-36.118-36.118a96 96 0 0 1 0-135.764z" fill="#649441"/><path d="m339.882 379.882a96 96 0 0 1 67.882-28.118h18.011a62.225 62.225 0 0 0 62.225-62.225 62.228 62.228 0 0 0 -18.225-44l-57.775-57.775a62.226 62.226 0 0 0 -88 0l-156 156 36.118 36.118a96 96 0 0 0 135.764 0z" fill="#649441"/><g fill="#6a9c46"><path d="m220.785 133.577-12.318-10.209 12.851-15.508c16.993-24.425 12.489-43.878 12.288-44.7l15.487-4.02c.29 1.1 6.845 27.206-14.854 58.16-.123.176-.253.347-.392.513z"/><path d="m269.592 155.7-10.518-12.057 6.669-5.817a93.46 93.46 0 0 0 22.4-28.981l.312-.635 14.426 6.92s-.144.3-.412.839a109.348 109.348 0 0 1 -26.208 33.914z"/><path d="m379.09 307.1-8.554-13.521 24.85-15.722c31.427-20.89 57.327-13.728 58.418-13.412l-2.228 7.684-2.16 7.7c-.818-.217-20.292-5.221-45.241 11.395-.051.035-.1.069-.157.1z"/><path d="m369.6 251.675-12.2-10.35a137.813 137.813 0 0 1 30.517-26.747l8.083-5.206 8.662 13.452-8.086 5.206a121.847 121.847 0 0 0 -26.976 23.645z"/><path d="m456 369.33a54.674 54.674 0 0 1 -54.67 54.67h-31.84q-3.765 0-7.5.3h-.01a95.978 95.978 0 0 0 -40.12 12.35l-17.02 9.73-13.91 7.94-16.49 9.43a64 64 0 0 1 -77.01-10.32l-53.43-53.43 43.98-43.98a208.882 208.882 0 0 1 230.03-44.3 62.678 62.678 0 0 1 37.99 57.61z"/></g><path d="m144 400-15.96 15.96-32.04 32.04-32-32 48-48z" fill="#f0e39f"/><path d="m217.18 176.24a208.9 208.9 0 0 1 -61.2 147.78l-43.98 43.98-53.43-53.43a64 64 0 0 1 -10.32-77.01l9.22-16.13 7.94-13.9 9.94-17.39a95.972 95.972 0 0 0 12.31-39.56q.345-4.02.34-8.07v-31.84a54.674 54.674 0 0 1 54.67-54.67 62.678 62.678 0 0 1 57.61 37.99 208.657 208.657 0 0 1 16.9 82.25z" fill="#6a9c46"/><path d="m112 288 16.977-16.977a133.232 133.232 0 0 0 39.023-94.21v-8a56.813 56.813 0 0 1 56.813-56.813h7.02a56.815 56.815 0 0 1 48.717 27.583 258.934 258.934 0 0 0 83.022 85.235l10.117 6.438a56.815 56.815 0 0 1 26.311 47.931 56.813 56.813 0 0 1 -56.813 56.813 133.232 133.232 0 0 0 -94.21 39.023l-24.977 24.977a56.569 56.569 0 0 1 -80 0l-32-32a56.569 56.569 0 0 1 0-80z" fill="#72a64e"/><path d="m332.446 272.833c-1.647.809-38.374 18.315-72.485-9.48l33.7-33.7-11.314-11.314-34.062 34.063c-27.743-33.867-9.932-71.189-9.114-72.851l-7.171-3.551-7.155-3.578a89.639 89.639 0 0 0 -7.831 32.108 82.458 82.458 0 0 0 19.907 59.235l-52.477 52.477c-14-19.262-8.922-41.308-8.675-42.333l-7.769-1.909-7.761-1.94c-.345 1.378-7.585 31.745 12.79 57.6l-18.686 18.687 11.314 11.313 19.148-19.148c14.612 11.051 30.511 13.507 41.729 13.507a65.816 65.816 0 0 0 14.826-1.535l-3.881-15.522c-.244.062-21.949 5.239-41.2-7.925l52.325-52.325c19.23 16.211 39.322 20.226 54.475 20.226 1.461 0 2.877-.038 4.24-.1a87.843 87.843 0 0 0 32.258-7.676z" fill="#84b562"/><path d="m158.86 116.12c-10.88 18.13-24.65 29.57-40.95 34a58.692 58.692 0 0 1 -15.48 2.04 76.175 76.175 0 0 1 -14.62-1.55l-.15-.03q.345-4.02.34-8.07v-8.25l1.68.42c.33.06.69.13 1.08.2 9.39 1.76 34.32 6.43 54.38-27z" fill="#79ad54"/><path d="m134.4 212.8c-9.82 13.09-23.25 19.85-39.2 19.85a62.805 62.805 0 0 1 -9.42-.74 79.061 79.061 0 0 1 -25.8-8.99c-.8-.46-1.64-.96-2.51-1.49l7.94-13.9c.89.55 1.75 1.06 2.56 1.52l.15.09c1.36.81 34.16 19.82 53.48-5.94z" fill="#79ad54"/><path d="m377.88 421.99.54 2.01h-8.93q-3.765 0-7.5.3h-.01c-6.51-28.64 5.71-53.86 34.54-71.16l8.24 13.72c-23.46 14.08-32.51 32.62-26.88 55.13z" fill="#79ad54"/><path d="m296.55 423.78a63.148 63.148 0 0 0 6.95 20.1c.07.13.14.25.21.37l1.13 2.13-13.91 7.94-1.28-2.42a79.056 79.056 0 0 1 -8.92-25.68c-3.09-20.11 3.52-36.92 19.11-48.62l9.6 12.8c-10.73 8.04-15.06 19.28-12.89 33.38z" fill="#79ad54"/><path d="m88 388.686h16v22.627h-16z" fill="#e6d791" transform="matrix(.707 -.707 .707 .707 -254.725 185.04)"/><path d="m144 400-15.96 15.96a479.981 479.981 0 0 0 -19.11-44.89l3.07-3.07z" fill="#e6d791"/></g></svg>