<svg id="Layer_1" height="512" viewBox="0 0 512 512" width="512" xmlns="http://www.w3.org/2000/svg" data-name="Layer 1"><path d="m492 222.41c0 15.64-15.81 27.13-32.11 23.29a141.8 141.8 0 0 0 -16.21-2.85c-31.45-3.65-50.81 4.85-88 10.49a395.22 395.22 0 0 1 -52.68 4.36c-14.41.24-26.23-10.6-26.23-24v-11.29c0-13.26 11.56-24 25.81-24h163.61c14.25 0 25.81 10.75 25.81 24z" fill="#4f4f4f"/><path d="m113.37 120.26h77a50.56 50.56 0 0 1 50.63 50.56v233.32a15 15 0 0 1 -15 15h-112.63a15 15 0 0 1 -15-15v-268.88a15 15 0 0 1 15-15z" fill="#b2b2b2" transform="matrix(0 -1 1 0 -100.03 439.37)"/><path d="m309.79 198.4h-39.85q.29 3 .29 6c0 65.1-99.85 117.88-223 117.88q-13.69 0-27-.86v10.27a9.32 9.32 0 0 0 9.33 9.31h280.23a9.32 9.32 0 0 0 9.32-9.32v-124a9.32 9.32 0 0 0 -9.32-9.28z" fill="#8c8989"/><g fill="#b2b2b2"><path d="m468.2 217.45a9 9 0 1 0 7.74 7.75 9 9 0 0 0 -7.74-7.75zm0 15.81a7 7 0 1 1 5.71-5.71 7 7 0 0 1 -5.7 5.71z"/><path d="m341.38 216.73a9 9 0 0 0 -12.38 12.36z"/><path d="m332.26 232.2a9 9 0 0 0 12.23-12.2z"/></g></svg>