<svg id="Layer_1" enable-background="new 0 0 512 512" height="512" viewBox="0 0 512 512" width="512" xmlns="http://www.w3.org/2000/svg"><g><path d="m15 512c-8.284 0-15-6.716-15-15l.005-228.095c.001-3.995 1.559-8.063 4.405-11.018l-.016-.015c10.874-10.88 25.339-16.872 40.731-16.872 15.326 0 29.735 5.943 40.594 16.736 3.499 3.412 9.828 8.224 19.656 8.224 9.938 0 16.167-4.869 19.716-8.282 10.851-10.758 25.235-16.678 40.534-16.678 15.326 0 29.735 5.943 40.594 16.736 3.499 3.412 9.828 8.224 19.656 8.224 9.938 0 16.167-4.869 19.716-8.282 10.851-10.758 25.235-16.678 40.534-16.678 15.326 0 29.735 5.943 40.593 16.736 3.497 3.41 9.835 8.224 19.657 8.224 9.938 0 16.167-4.869 19.716-8.282 10.851-10.758 25.235-16.678 40.534-16.678 15.326 0 29.735 5.943 40.593 16.736 3.497 3.41 9.835 8.224 19.657 8.224 7.32 0 14.208-2.833 19.412-7.981 3.304-3.369 8.136-5.12 13.161-4.305 7.325 1.189 12.552 7.783 12.552 15.203v228.123c0 8.284-6.716 15-15 15z" fill="#9bf0ff"/><path d="m512 497v-228.123c0-7.42-5.227-14.014-12.552-15.203-5.025-.815-9.857.936-13.161 4.305-5.204 5.147-12.092 7.981-19.412 7.981-9.822 0-16.16-4.814-19.657-8.224-10.858-10.793-25.267-16.736-40.593-16.736-15.299 0-29.683 5.92-40.534 16.678-3.548 3.413-9.778 8.282-19.716 8.282-9.822 0-16.16-4.814-19.657-8.224-10.858-10.793-25.267-16.736-40.593-16.736-10.808 0-21.153 2.968-30.125 8.495v262.505h241c8.284 0 15-6.716 15-15z" fill="#2de1fd"/><path d="m499.448 331.043c-5.025-.815-9.857.936-13.161 4.305-5.204 5.147-12.092 7.981-19.412 7.981-9.822 0-16.16-4.814-19.657-8.224-10.857-10.793-25.267-16.736-40.593-16.736-15.299 0-29.683 5.92-40.534 16.678-3.548 3.413-9.778 8.282-19.716 8.282-9.822 0-16.16-4.814-19.657-8.224-10.857-10.793-25.267-16.736-40.593-16.736-15.299 0-29.683 5.92-40.534 16.678-3.548 3.413-9.778 8.282-19.716 8.282-9.829 0-16.157-4.812-19.656-8.224-10.858-10.793-25.268-16.736-40.594-16.736-15.299 0-29.683 5.92-40.534 16.678-3.548 3.413-9.778 8.282-19.716 8.282-9.829 0-16.157-4.812-19.656-8.224-10.858-10.793-25.268-16.736-40.594-16.736-15.392 0-29.856 5.992-40.73 16.873l.016.015c-2.847 2.955-4.404 7.022-4.405 11.018l-.004 150.761c.019 8.267 6.726 14.964 14.998 14.964h482c8.284 0 15-6.716 15-15v-150.754c0-7.42-5.227-14.014-12.552-15.203z" fill="#2de1fd"/><path d="m512 497v-150.754c0-7.42-5.227-14.014-12.552-15.203-5.025-.815-9.857.936-13.161 4.305-5.204 5.147-12.092 7.981-19.412 7.981-9.822 0-16.16-4.814-19.657-8.224-10.857-10.793-25.267-16.736-40.593-16.736-15.299 0-29.683 5.92-40.534 16.678-3.548 3.413-9.778 8.282-19.716 8.282-9.822 0-16.16-4.814-19.657-8.224-10.857-10.793-25.267-16.736-40.593-16.736-10.808 0-21.153 2.968-30.125 8.495v185.136h241c8.284 0 15-6.716 15-15z" fill="#17bcfe"/><path d="m499.448 408.412c-5.025-.815-9.857.936-13.161 4.305-5.204 5.147-12.092 7.981-19.412 7.981-9.822 0-16.16-4.814-19.657-8.224-10.857-10.793-25.267-16.736-40.593-16.736-15.299 0-29.683 5.92-40.534 16.678-3.548 3.413-9.778 8.282-19.716 8.282-9.822 0-16.16-4.814-19.657-8.224-10.857-10.793-25.267-16.736-40.593-16.736-15.299 0-29.683 5.92-40.534 16.678-3.548 3.413-9.778 8.282-19.716 8.282-9.829 0-16.157-4.812-19.656-8.224-10.858-10.793-25.268-16.736-40.594-16.736-15.299 0-29.683 5.92-40.534 16.678-3.548 3.413-9.778 8.282-19.716 8.282-9.829 0-16.157-4.812-19.656-8.224-10.858-10.793-25.268-16.736-40.594-16.736-15.392 0-29.856 5.992-40.73 16.873l.016.015c-2.847 2.955-4.404 7.022-4.405 11.018l-.001 73.419c.032 8.254 6.732 14.937 14.995 14.937h482c8.284 0 15-6.716 15-15v-73.385c0-7.42-5.227-14.014-12.552-15.203z" fill="#17bcfe"/><path d="m512 497v-73.385c0-7.42-5.227-14.014-12.552-15.203-5.025-.815-9.857.936-13.161 4.305-5.204 5.147-12.092 7.981-19.412 7.981-9.822 0-16.16-4.814-19.657-8.224-10.857-10.793-25.267-16.736-40.593-16.736-15.299 0-29.683 5.92-40.534 16.678-3.548 3.413-9.778 8.282-19.716 8.282-9.822 0-16.16-4.814-19.657-8.224-10.857-10.793-25.267-16.736-40.593-16.736-10.808 0-21.153 2.968-30.125 8.495v107.767h241c8.284 0 15-6.716 15-15z" fill="#0096ff"/><circle cx="256" cy="87.3" fill="#fadc5c" r="87.3"/><path d="m343.3 87.3c0-48.137-39.163-87.3-87.3-87.3v174.6c48.137 0 87.3-39.162 87.3-87.3z" fill="#fdb442"/></g></svg>