<svg id="Capa_1" enable-background="new 0 0 512 512" height="512" viewBox="0 0 512 512" width="512" xmlns="http://www.w3.org/2000/svg"><g><path d="m443.156 75.114c0-14.968-12.134-27.102-27.102-27.102h-388.952c-14.968 0-27.102 12.134-27.102 27.102v68.659l22.09 22.09h388.944l32.122-22.09z" fill="#e28086"/><path d="m416.874 75.114v90.749l32.122-22.09v-68.659c0-14.968-12.134-27.102-27.102-27.102h-32.122c14.968 0 27.102 12.134 27.102 27.102z" fill="#dd636e"/><path d="m446.076 416.153v-272.379h-446.076v272.379c0 14.968 12.134 27.102 27.102 27.102h391.871c14.969 0 27.103-12.134 27.103-27.102z" fill="#e7ecf6"/><path d="m416.874 143.774v272.379c0 14.968-12.134 27.102-27.102 27.102h32.122c14.968 0 27.102-12.134 27.102-27.102v-272.379z" fill="#d8e2f1"/><path d="m174.319 96.042c-10.727 0-19.424-8.696-19.424-19.423v-71.235c0-2.319 1.88-4.2 4.2-4.2h30.448c2.319 0 4.2 1.88 4.2 4.2v71.235c-.001 10.727-8.697 19.423-19.424 19.423z" fill="#bed8fb"/><path d="m73.96 96.042c-10.727 0-19.424-8.696-19.424-19.423v-71.235c0-2.319 1.88-4.2 4.2-4.2h30.448c2.319 0 4.2 1.88 4.2 4.2v71.235c0 10.727-8.696 19.423-19.424 19.423z" fill="#bed8fb"/><path d="m274.677 96.042c-10.727 0-19.424-8.696-19.424-19.423v-71.235c0-2.319 1.88-4.2 4.2-4.2h30.448c2.319 0 4.2 1.88 4.2 4.2v71.235c0 10.727-8.696 19.423-19.424 19.423z" fill="#bed8fb"/><path d="m375.036 96.042c-10.727 0-19.424-8.696-19.424-19.423v-71.235c0-2.319 1.88-4.2 4.2-4.2h30.448c2.319 0 4.2 1.88 4.2 4.2v71.235c-.001 10.727-8.697 19.423-19.424 19.423z" fill="#bed8fb"/><g fill="#407093"><path d="m192.352 234.763h-37.625c-3.493 0-6.324-2.831-6.324-6.324v-37.625c0-3.493 2.831-6.324 6.324-6.324h37.625c3.493 0 6.324 2.831 6.324 6.324v37.625c0 3.493-2.832 6.324-6.324 6.324z"/><path d="m291.254 234.763h-37.625c-3.493 0-6.324-2.831-6.324-6.324v-37.625c0-3.493 2.831-6.324 6.324-6.324h37.625c3.493 0 6.324 2.831 6.324 6.324v37.625c0 3.493-2.831 6.324-6.324 6.324z"/><path d="m93.449 402.539h-37.625c-3.493 0-6.324-2.831-6.324-6.324v-37.625c0-3.493 2.831-6.324 6.324-6.324h37.625c3.493 0 6.324 2.831 6.324 6.324v37.625c0 3.493-2.831 6.324-6.324 6.324z"/><path d="m192.352 402.539h-37.625c-3.493 0-6.324-2.831-6.324-6.324v-37.625c0-3.493 2.831-6.324 6.324-6.324h37.625c3.493 0 6.324 2.831 6.324 6.324v37.625c0 3.493-2.832 6.324-6.324 6.324z"/><path d="m291.254 402.539h-37.625c-3.493 0-6.324-2.831-6.324-6.324v-37.625c0-3.493 2.831-6.324 6.324-6.324h37.625c3.493 0 6.324 2.831 6.324 6.324v37.625c0 3.493-2.831 6.324-6.324 6.324z"/><path d="m93.449 318.651h-37.625c-3.493 0-6.324-2.831-6.324-6.324v-37.625c0-3.493 2.831-6.324 6.324-6.324h37.625c3.493 0 6.324 2.831 6.324 6.324v37.625c0 3.493-2.831 6.324-6.324 6.324z"/></g><path d="m192.352 318.651h-37.625c-3.493 0-6.324-2.831-6.324-6.324v-37.625c0-3.493 2.831-6.324 6.324-6.324h37.625c3.493 0 6.324 2.831 6.324 6.324v37.625c0 3.493-2.832 6.324-6.324 6.324z" fill="#dd636e"/><path d="m291.254 318.651h-37.625c-3.493 0-6.324-2.831-6.324-6.324v-37.625c0-3.493 2.831-6.324 6.324-6.324h37.625c3.493 0 6.324 2.831 6.324 6.324v37.625c0 3.493-2.831 6.324-6.324 6.324z" fill="#407093"/><path d="m93.449 234.763h-37.625c-3.493 0-6.324-2.831-6.324-6.324v-37.625c0-3.493 2.831-6.324 6.324-6.324h37.625c3.493 0 6.324 2.831 6.324 6.324v37.625c0 3.493-2.831 6.324-6.324 6.324z" fill="#407093"/><path d="m421.566 348.222c-39.874 0-72.198-32.324-72.198-72.198v-72.644h144.396v72.644c0 39.873-32.324 72.198-72.198 72.198z" fill="#bed8fb"/><path d="m421.566 348.222c39.874 0 72.198 32.324 72.198 72.198v72.644h-144.396v-72.644c0-39.874 32.324-72.198 72.198-72.198z" fill="#bed8fb"/><path d="m189.543 1.184h-20.441c2.319 0 4.2 1.88 4.2 4.2v71.235c0 6.972-3.686 13.068-9.203 16.494 2.971 1.845 6.465 2.929 10.221 2.929 10.727 0 19.423-8.696 19.423-19.424v-71.234c-.001-2.32-1.881-4.2-4.2-4.2z" fill="#9dc6fb"/><path d="m89.184 1.184h-20.441c2.319 0 4.2 1.88 4.2 4.2v71.235c0 6.972-3.686 13.068-9.203 16.494 2.971 1.845 6.465 2.929 10.221 2.929 10.727 0 19.423-8.696 19.423-19.424v-71.234c0-2.32-1.88-4.2-4.2-4.2z" fill="#9dc6fb"/><path d="m289.901 1.184h-20.441c2.319 0 4.2 1.88 4.2 4.2v71.235c0 6.972-3.686 13.068-9.203 16.494 2.971 1.845 6.465 2.929 10.221 2.929 10.727 0 19.423-8.696 19.423-19.424v-71.234c0-2.32-1.88-4.2-4.2-4.2z" fill="#9dc6fb"/><path d="m390.26 1.184h-20.441c2.319 0 4.2 1.88 4.2 4.2v71.235c0 6.972-3.686 13.068-9.203 16.494 2.971 1.845 6.465 2.929 10.221 2.929 10.727 0 19.423-8.696 19.423-19.424v-71.234c-.001-2.32-1.881-4.2-4.2-4.2z" fill="#9dc6fb"/><path d="m470.402 203.379v72.645c0 35.895-26.2 65.659-60.517 71.243 3.804.619 7.702.954 11.681.954 39.874 0 72.198-32.324 72.198-72.198v-72.645h-23.362z" fill="#9dc6fb"/><path d="m421.566 348.222c-3.979 0-7.877.335-11.681.954 34.317 5.585 60.517 35.348 60.517 71.243v72.645h23.362v-72.644c0-39.874-32.324-72.198-72.198-72.198z" fill="#9dc6fb"/><path d="m509.08 495.185v-.474c0-8.633-6.998-15.632-15.632-15.632h-146.685c-8.633 0-15.631 6.998-15.631 15.632v.474c0 8.633 6.998 15.632 15.631 15.632h146.685c8.633-.001 15.632-6.999 15.632-15.632z" fill="#365e7d"/><path d="m509.08 200.121c0-8.633-6.998-15.631-15.632-15.631h-146.685c-8.633 0-15.631 6.998-15.631 15.631v.474c0 8.633 6.998 15.632 15.631 15.632h146.685c8.122 0 15.632-6.318 15.632-16.106z" fill="#365e7d"/><path d="m496.369 479.079h-29.202c8.633 0 15.631 6.998 15.631 15.632v.474c0 8.633-6.998 15.632-15.631 15.632h29.202c8.633 0 15.631-6.998 15.631-15.632v-.474c0-8.633-6.998-15.632-15.631-15.632z" fill="#2b4d66"/><path d="m496.369 184.49h-29.202c8.633 0 15.631 6.998 15.631 15.631v.474c0 8.633-6.998 15.632-15.631 15.632h29.202c8.633 0 15.631-6.998 15.631-15.632v-.474c0-8.633-6.998-15.631-15.631-15.631z" fill="#2b4d66"/><path d="m380.273 256v20.023c0 22.769 18.524 41.293 41.293 41.293s41.293-18.524 41.293-41.293v-20.023z" fill="#eab14d"/><path d="m462.859 452.797v-2.509c0-22.769-18.524-41.292-41.293-41.292s-41.293 18.524-41.293 41.292v2.509z" fill="#eab14d"/></g></svg>