<?xml version="1.0" encoding="iso-8859-1"?>
<!-- Generator: Adobe Illustrator 19.0.0, SVG Export Plug-In . SVG Version: 6.00 Build 0)  -->
<svg version="1.1" id="Capa_1" xmlns="http://www.w3.org/2000/svg" xmlns:xlink="http://www.w3.org/1999/xlink" x="0px" y="0px"
	 viewBox="0 0 295.2 295.2" style="enable-background:new 0 0 295.2 295.2;" xml:space="preserve">
<g>
	<path style="fill:#E5E5E5;" d="M65.6,45h202.8c14.8,0,26.8,12,26.8,26.8V257c0,14.8-12,26.8-26.8,26.8H27.2
		c-14.8,0-26.8-12-26.8-26.8v-5.6c0-18,14.8-32.8,32.8-32.8S66,233.4,66,251.4V45H65.6z"/>
	<path style="fill:#C9C9C9;" d="M65.6,251.4V44.2c0-18-14.8-32.8-32.8-32.8l0,0C14.8,11.4,0,26.2,0,44.2V251
		c0-18,14.8-32.8,32.8-32.8C50.8,218.6,65.6,233.4,65.6,251.4z"/>
	<path style="fill:#FFCC03;" d="M125.6,147.4h107.6V217c0,6.4-5.2,11.6-11.6,11.6h-84.8c-6.4,0-11.6-5.2-11.6-11.6v-69.6H125.6z"/>
	<path style="fill:#FFFFFF;" d="M171.2,171.4h16c7.6,0,13.6,6,13.6,13.6v43.6H158v-44C158,177.4,164,171.4,171.2,171.4z"/>
	<path style="fill:#F05F61;" d="M128.4,98.6H230c0.8,0,1.6,0.4,2,1.6l20.4,46.8c0.4,1.2,0,2.4-1.2,2.8c-0.4,0-0.4,0-0.8,0l0,0H108
		c-1.2,0-2-0.8-2-2c0-0.4,0-0.8,0.4-0.8l20-47.2C126.8,99,127.6,98.6,128.4,98.6L128.4,98.6z"/>
</g>
<g>
</g>
<g>
</g>
<g>
</g>
<g>
</g>
<g>
</g>
<g>
</g>
<g>
</g>
<g>
</g>
<g>
</g>
<g>
</g>
<g>
</g>
<g>
</g>
<g>
</g>
<g>
</g>
<g>
</g>
</svg>
