<svg height="512pt" viewBox="-80 0 512 512" width="512pt" xmlns="http://www.w3.org/2000/svg"><path d="m351.558594 310.589844c0 57.558594-46.828125 104.390625-104.386719 104.390625-1.03125 0-35.683594-.058594-71.390625-.121094-36.992188-.058594-75.109375-.121094-78.171875-.128906l-1.019531-.03125c-26.308594-1.839844-50.691406-13.488281-68.667969-32.820313-18-19.367187-27.921875-44.6875-27.921875-71.289062 0-31.320313 13.679688-60.25 37.230469-79.941406-6.910157-12.878907-10.511719-27.1875-10.511719-42.117188 0-21.679688 7.859375-42.601562 22.121094-58.910156 10.429687-11.921875 23.761718-20.800782 38.539062-25.839844-.757812-4.691406-1.140625-9.453125-1.140625-14.242188 0-49.367187 40.171875-89.539062 89.542969-89.539062 49.367188 0 89.539062 40.171875 89.539062 89.539062 0 4.789063-.378906 9.550782-1.140624 14.242188 14.78125 5.039062 28.109374 13.917969 38.539062 25.839844 14.261719 16.308594 22.121094 37.230468 22.121094 58.910156 0 14.929688-3.601563 29.238281-10.511719 42.117188 23.550781 19.691406 37.230469 48.613281 37.230469 79.941406zm0 0" fill="#00b44b"/><path d="m351.558594 310.589844c0 57.558594-46.828125 104.390625-104.386719 104.390625-1.03125 0-35.683594-.058594-71.390625-.121094v-414.859375c49.367188 0 89.539062 40.171875 89.539062 89.539062 0 4.789063-.378906 9.550782-1.140624 14.242188 14.78125 5.039062 28.109374 13.917969 38.539062 25.839844 14.261719 16.308594 22.121094 37.230468 22.121094 58.910156 0 14.929688-3.601563 29.238281-10.511719 42.117188 23.550781 19.691406 37.230469 48.613281 37.230469 79.941406zm0 0" fill="#007f40"/><path d="m284.328125 289.425781v22.710938c0 25.359375-20.636719 46-46 46h-15.546875v150.863281h-94v-169.011719h-16.332031c-25.371094 0-46-20.640625-46-46v-22.710937h30v22.710937c0 8.820313 7.171875 16 16 16h16.332031v-141.988281h94v160.136719h15.546875c8.820313 0 16-7.179688 16-16v-22.710938zm0 0" fill="#f8bd2d"/><path d="m284.328125 289.425781v22.710938c0 25.359375-20.636719 46-46 46h-15.546875v150.863281h-47v-341h47v160.136719h15.546875c8.820313 0 16-7.179688 16-16v-22.710938zm0 0" fill="#ff8900"/><path d="m87.78125 482h176v30h-176zm0 0" fill="#9ce78d"/><path d="m175.78125 482h88v30h-88zm0 0" fill="#36cb8e"/></svg>