<svg id="Capa_1" enable-background="new 0 0 512 512" height="512" viewBox="0 0 512 512" width="512" xmlns="http://www.w3.org/2000/svg"><g clip-rule="evenodd" fill-rule="evenodd"><path d="m152.552 105.422s-16.526-54.002-66.897-54.002h-66.984c-4.081 0-4.875 3.232-3.203 5.527.369.482.851 1.361 1.19 1.928 9.326 14.799 32.769 46.547 62.561 46.547z" fill="#95d6a4"/><path d="m201.931 41.527v95.783l-28.487 9.242-25.881-9.242v-95.783c0-10.885-18.113-10.006-18.113-31.012 0-5.781 6.18-10.516 13.748-10.516h63.1c7.568 0 13.748 4.734 13.748 10.516-.001 21.006-18.115 20.128-18.115 31.012z" fill="#b3e59f"/><path d="m201.931 178.84v95.756l-28.487 9.014-25.881-9.014v-95.756c0-10.885-18.113-10.035-18.113-31.039 0-5.783 6.18-10.49 13.748-10.49h63.1c7.568 0 13.748 4.707 13.748 10.49-.001 21.004-18.115 20.154-18.115 31.039z" fill="#d6f6b2"/><path d="m152.552 380.018s-16.526-54.002-66.897-54.002h-66.984c-3.515 0-4.677 2.836-3.203 5.527.284.482.624.965.936 1.504 9.185 14.684 32.825 46.971 62.815 46.971z" fill="#95d6a4"/><path d="m201.931 316.123v95.785l-28.743 12.5-25.625-12.5v-95.785c0-10.885-18.113-10.006-18.113-31.012 0-5.783 6.18-10.516 13.748-10.516h63.1c7.568 0 13.748 4.732 13.748 10.516-.001 21.006-18.115 20.127-18.115 31.012z" fill="#b3e59f"/><path d="m364.696 6.633v72.229l-28.006 5.018-26.362-5.018v-72.229c0-4.678 1.928-6.633 6.633-6.633h41.103c4.789 0 6.632 2.238 6.632 6.633z" fill="#d6f6b2"/><path d="m364.696 6.633v72.229h-25.001v-78.862h18.368c4.79 0 6.633 2.238 6.633 6.633z" fill="#ccf49f"/><path d="m359.707 216.172s16.526-54.029 66.898-54.029h66.982c5.442 0 3.826 4.508 2.268 7.031-9.128 14.598-32.74 46.998-62.816 46.998-38.834 0-73.332 0-73.332 0z" fill="#95d6a4"/><path d="m364.696 120.389v143.576l-28.488 5.018-25.88-5.018v-143.576c0-10.885-18.113-10.006-18.113-31.012 0-5.781 6.18-10.516 13.748-10.516h63.099c7.568 0 13.748 4.734 13.748 10.516 0 21.006-18.114 20.127-18.114 31.012z" fill="#b3e59f"/><path d="m359.707 369.389s16.526-54.002 66.898-54.002h66.982c3.26 0 4.224 3.855 3.203 5.527-.227.34-.539.85-.766 1.219-9.014 14.484-32.712 47.256-62.986 47.256-38.833 0-73.331 0-73.331 0z" fill="#95d6a4"/><path d="m364.696 305.494v95.783l-29.99 4.988-24.378-4.988v-95.783c0-10.857-18.113-10.008-18.113-31.012 0-5.783 6.18-10.518 13.748-10.518h63.099c7.568 0 13.748 4.734 13.748 10.518 0 21.004-18.114 20.155-18.114 31.012z" fill="#d6f6b2"/><path d="m364.696 442.805v62.59c0 4.82-2.098 6.605-6.633 6.605h-41.103c-5.584 0-6.633-1.332-6.633-6.605v-62.59c0-10.885-18.113-10.006-18.113-31.039 0-5.754 6.18-10.488 13.748-10.488h63.099c7.568 0 13.748 4.734 13.748 10.488.001 21.033-18.113 20.154-18.113 31.039z" fill="#b3e59f"/><path d="m364.696 442.805v62.59c0 4.82-2.098 6.605-6.633 6.605h-25.002c4.536 0 6.634-1.785 6.634-6.605v-62.59c0-10.885 18.113-10.006 18.113-31.039 0-5.754-6.18-10.488-13.748-10.488h25.001c7.568 0 13.748 4.734 13.748 10.488.001 21.033-18.113 20.154-18.113 31.039z" fill="#95d6a4"/><path d="m339.695 263.965h25.001v-46.348-8.107-89.121c0-10.885 18.113-10.006 18.113-31.012 0-5.781-6.18-10.516-13.748-10.516h-4.365-20.636c3.147 0 6.066.822 8.391 2.182 3.26 1.928 5.357 4.961 5.357 8.334 0 21.006-18.113 20.127-18.113 31.012z" fill="#95d6a4"/><path d="m196.942 242.734s16.554-54.029 66.897-54.029h66.983c4.961 0 4.054 4.137 2.523 6.633-8.958 14.428-32.712 47.396-63.071 47.396-38.835 0-73.332 0-73.332 0z" fill="#95d6a4"/><path d="m176.93 137.311h25.001c0-47.877 0-47.934 0-95.783 0-10.885 18.114-10.006 18.114-31.012 0-5.781-6.18-10.516-13.748-10.516h-4.366-20.636c3.146 0 6.066.822 8.391 2.182 3.26 1.928 5.386 4.961 5.386 8.334 0 21.006-18.142 20.127-18.142 31.012z" fill="#95d6a4"/><path d="m176.93 411.908h25.001c0-47.879 0-47.908 0-95.785 0-10.885 18.114-10.006 18.114-31.012 0-5.783-6.18-10.516-13.748-10.516h-4.366-20.636c3.146 0 6.066.822 8.391 2.182 3.26 1.928 5.386 4.961 5.386 8.334 0 21.006-18.142 20.127-18.142 31.012z" fill="#95d6a4"/><path d="m357.809 274.482c0 21.004-18.113 20.154-18.113 31.012v95.783h25.001v-35.434-8.08-52.27c0-10.857 18.113-10.008 18.113-31.012 0-5.783-6.18-10.518-13.748-10.518h-4.365-20.637c3.117 0 6.009.822 8.334 2.154 3.289 1.93 5.415 4.963 5.415 8.365z" fill="#ccf49f"/><path d="m195.071 147.801c0 21.004-18.142 20.154-18.142 31.039v95.756h25.001v-35.404-8.107-52.245c0-10.885 18.114-10.035 18.114-31.039 0-5.783-6.18-10.49-13.748-10.49h-4.366-20.636c3.118 0 6.01.795 8.334 2.154 3.289 1.928 5.443 4.961 5.443 8.336z" fill="#ccf49f"/><path d="m196.942 512s16.554-54 66.897-54h66.983c6.208 0 3.345 5.328 1.758 7.822-9.468 14.996-32.769 46.178-62.306 46.178-38.835 0-73.332 0-73.332 0z" fill="#95d6a4"/><path d="m201.931 453.435v51.959c0 5.217-1.757 6.605-6.633 6.605h-41.103c-4.677 0-6.633-1.246-6.633-6.605v-51.959c0-10.885-18.113-10.035-18.113-31.039 0-5.783 6.18-10.488 13.748-10.488h63.1c7.568 0 13.748 4.705 13.748 10.488 0 21.004-18.114 20.155-18.114 31.039z" fill="#d6f6b2"/><path d="m201.931 453.435v51.959c0 5.217-1.757 6.605-6.633 6.605h-25.001c4.875 0 6.633-1.389 6.633-6.605v-51.959c0-10.885 18.142-10.035 18.142-31.039 0-5.783-6.208-10.488-13.776-10.488h25.002c7.568 0 13.748 4.705 13.748 10.488-.001 21.004-18.115 20.155-18.115 31.039z" fill="#ccf49f"/><g fill="#78c2a4"><path d="m470.853 169.174c-9.127 14.598-32.74 46.998-62.815 46.998h25.001c30.076 0 53.688-32.4 62.816-46.998 1.559-2.523 3.175-7.031-2.268-7.031h-25.002c5.443 0 3.828 4.507 2.268 7.031z"/><path d="m147.562 93.629c-8.079-15.902-26.759-42.209-61.908-42.209h-25.002c50.371 0 66.898 54.002 66.898 54.002h20.013v-11.793z"/><path d="m147.562 368.225c-8.079-15.902-26.759-42.209-61.908-42.209h-25.002c50.371 0 66.898 54.002 66.898 54.002h20.013v-11.793z"/><path d="m270.274 242.734c15.421 0 29.111-8.504 40.054-18.738 10.602-9.951 18.623-21.543 23.018-28.658 1.53-2.496 2.438-6.633-2.523-6.633h-20.494-4.508c4.961 0 4.054 4.137 2.523 6.633-8.958 14.428-32.712 47.396-63.071 47.396z"/><path d="m307.578 465.822c-9.468 14.996-32.768 46.178-62.306 46.178h25.002c15.421 0 29.111-8.477 40.054-18.738 10.034-9.383 17.717-20.268 22.252-27.439 1.587-2.494 4.45-7.822-1.758-7.822h-20.494-4.508c6.208-.001 3.346 5.327 1.758 7.821z"/><path d="m433.039 369.389c30.274 0 53.973-32.772 62.986-47.256l.766-1.219c1.021-1.672.057-5.527-3.203-5.527h-25.002c3.26 0 4.224 3.855 3.203 5.527l-.766 1.219c-9.014 14.484-32.711 47.256-62.985 47.256z"/></g></g></svg>