<svg id="_x30_1_Earth" enable-background="new 0 0 48 48" height="512" viewBox="0 0 48 48" width="512" xmlns="http://www.w3.org/2000/svg"><circle cx="24" cy="24" fill="#5a99cc" r="19"/><path d="m37.435 10.565c-7.42-7.42-19.45-7.42-26.87 0s-7.42 19.45 0 26.87c.518.518 1.058.994 1.618 1.439l26.692-26.692c-.445-.56-.922-1.1-1.44-1.617z" fill="#8bcbef"/><path d="m41.608 31.15c-.928 2.287-2.313 4.435-4.173 6.285-2.368 2.355-5.758 4.555-10.261 5.3-.759-.326-1.457-.935-1.835-1.895-.364-.924-.29-2.001.216-2.857.267-.452.607-.811.99-1.08 1.23-.861 1.991-2.25 1.94-3.751-.064-1.859.642-3.737 2.123-5.119 2.283-2.129 5.875-2.351 8.436-.565 1.363.95 2.173 2.271 2.564 3.682zm-1.825-12.467c.369-.739.623-1.613.784-2.537.25.012.509-.003.725-.039-.916-2.006-2.205-3.89-3.856-5.542-1.653-1.653-3.541-2.941-5.55-3.857-.098.58-.045 1.3.227 2.114.389 1.167 1.134 2.366 2.065 3.455-.284 2.22-.005 4.669.864 6.407 1.308 2.618 3.431 2.618 4.741-.001zm-16.946-5.19c-.221-1.947-1.86-3.464-3.867-3.464-2.057 0-3.724 1.593-3.881 3.609-.25-.384-.54-.749-.877-1.086-1.057-1.057-2.388-1.669-3.761-1.873-3.214 3.268-5.006 7.402-5.378 11.644 1.277 1.113 2.875 1.671 4.464 1.658 1.611-.014 3.024.896 4.044 2.142.186.228.408.436.665.62 1.122.801 2.699.812 3.829.023 1.766-1.235 1.923-3.686.472-5.137-.149-.149-.311-.276-.479-.391 2.031-1.449 3.833-3.632 4.525-5.711.067-.197.35-1.099.244-2.034zm-5.682 22.455c-.524 1.571.325 2.421 1.897 1.897 1.571-.524 3.27-2.222 3.794-3.794s-.325-2.421-1.897-1.897c-1.572.525-3.27 2.223-3.794 3.794z" fill="#74cc5e"/><path d="m39.92 28.201-13.815 13.815c-.311-.31-.577-.696-.766-1.177-.364-.924-.29-2.001.216-2.857.267-.452.607-.811.99-1.08 1.23-.862 1.991-2.25 1.94-3.751-.064-1.859.642-3.737 2.123-5.119 2.283-2.129 5.875-2.351 8.436-.565.322.226.613.471.876.734zm-1.045-16.019-4.517 4.517c-.31-1.394-.368-2.959-.181-4.423-.931-1.089-1.676-2.288-2.065-3.455-.271-.814-.325-1.534-.227-2.114 2.009.917 3.897 2.204 5.55 3.857.519.519.997 1.056 1.44 1.618zm-17.435-1.266-12.986 12.986c-1.217-.187-2.393-.718-3.38-1.578.372-4.243 2.164-8.377 5.378-11.644 1.373.204 2.704.816 3.761 1.873.337.337.627.702.877 1.086.157-2.016 1.825-3.609 3.881-3.609.94-.001 1.799.332 2.469.886zm1.243 21.401-5.365 5.365c-.343-.343-.425-.948-.163-1.734.524-1.571 2.222-3.27 3.794-3.794.785-.261 1.39-.18 1.734.163z" fill="#a8ea92"/></svg>