<svg height="512pt" viewBox="0 0 512 512" width="512pt" xmlns="http://www.w3.org/2000/svg"><path d="m373.332031 0c-76.457031 0-138.664062 62.207031-138.664062 138.667969 0 76.457031 62.207031 138.664062 138.664062 138.664062 76.460938 0 138.667969-62.207031 138.667969-138.664062 0-76.460938-62.207031-138.667969-138.667969-138.667969zm52.417969 191.082031c-4.160156 4.160157-9.621094 6.25-15.082031 6.25-5.460938 0-10.925781-2.089843-15.082031-6.25l-37.335938-37.332031c-4.011719-3.988281-6.25-9.410156-6.25-15.082031v-58.667969c0-11.796875 9.535156-21.332031 21.332031-21.332031s21.335938 9.535156 21.335938 21.332031v49.835938l31.082031 31.082031c8.339844 8.339843 8.339844 21.824219 0 30.164062zm0 0" fill="#ffc107"/><path d="m298.667969 426.667969c0 47.128906-38.207031 85.332031-85.335938 85.332031-47.128906 0-85.332031-38.203125-85.332031-85.332031 0-47.128907 38.203125-85.335938 85.332031-85.335938 47.128907 0 85.335938 38.207031 85.335938 85.335938zm0 0" fill="#ffa000"/><path d="m380.160156 319.660156c-2.28125.082032-4.523437.339844-6.828125.339844-99.988281 0-181.332031-81.34375-181.332031-181.332031 0-35.136719 10.21875-67.863281 27.585938-95.679688-2.09375-.085937-4.140626-.320312-6.253907-.320312-82.34375 0-149.332031 66.984375-149.332031 149.332031v59.476562c0 42.21875-18.496094 82.070313-50.945312 109.503907-8.296876 7.082031-13.054688 17.429687-13.054688 28.351562 0 20.589844 16.746094 37.335938 37.332031 37.335938h352c20.589844 0 37.335938-16.746094 37.335938-37.335938 0-10.921875-4.757813-21.269531-13.269531-28.542969-13.761719-11.648437-24.855469-25.683593-33.238282-41.128906zm0 0" fill="#ffc107"/></svg>