<svg id="Capa_1" enable-background="new 0 0 512 512" height="512" viewBox="0 0 512 512" width="512" xmlns="http://www.w3.org/2000/svg"><g><g><path d="m497 471.207h-81.596c-8.291 0-15-6.709-15-15s6.709-15 15-15h81.596c8.291 0 15 6.709 15 15s-6.709 15-15 15z" fill="#edf5ff"/></g><path d="m429.297 471.207h67.703c8.291 0 15-6.709 15-15s-6.709-15-15-15h-81.596c-4.433 0-8.311 2-11.056 5.052z" fill="#d5e8fe"/><g><g><g><path d="m383.5 318.207v.299l-22.494 82.494-83.407 23.407-243.098-243.101 22.206-82.058 83.993-23.841z" fill="#f66"/></g></g><path d="m57.198 99.109 302.312 302.311 1.495-.42 22.495-82.494v-.299l-242.8-242.8z" fill="#e64d2e"/><g><g id="Writer_1_"><g><path d="m330.561 386.348c-3.838 0-7.676-1.465-10.605-4.395l-243.14-243.123c-5.859-5.859-5.859-15.352 0-21.211s15.352-5.859 21.211 0l243.139 243.124c5.859 5.859 5.859 15.352 0 21.211-2.93 2.929-6.768 4.394-10.605 4.394z" fill="#ff8e8e"/></g></g></g><g><path d="m340.492 382.402c.207-.185.474-.249.674-.449 5.859-5.859 5.859-15.352 0-21.211l-243.139-243.123c-5.859-5.859-15.352-5.859-21.211 0-.196.196-.258.461-.441.665z" fill="#f66"/></g><path d="m140.7 75.407-106.199 105.899-21.301-21.3c-8.401-8.399-13.2-19.799-13.2-31.8 0-11.999 4.799-23.399 13.2-31.8l42.299-42.299c17.701-17.701 46.201-17.701 63.6-.3z" fill="#5c6699"/><path d="m87.023 128.933 53.677-53.526-21.601-21.601c-17.399-17.401-45.899-17.401-63.6.3l-21.65 21.65z" fill="#404a80"/><path d="m415.3 471.207c-1.5 0-2.999-.3-4.501-.901l-127.5-42.299c-2.098-.601-4.199-2.1-5.7-3.6l105.901-105.901c1.8 1.8 2.999 3.602 3.6 5.7l42.599 127.202c3.216 9.645-4.027 19.799-14.399 19.799z" fill="#fff7cc"/><path d="m387.1 324.206c-.601-2.098-1.8-3.9-3.6-5.7l-53.452 53.452 95.27 95.27c.242-.214.549-.289.782-.522 3.9-3.9 5.4-9.899 3.6-15.298z" fill="#ffca80"/></g></g></svg>