<svg id="Capa_1" enable-background="new 0 0 512 512" height="512" viewBox="0 0 512 512" width="512" xmlns="http://www.w3.org/2000/svg"><g><path d="m165.667 73-42.333 24.667-42.334-24.667v-68c0-2.761 2.239-5 5-5h74.667c2.761 0 5 2.239 5 5z" fill="#8dc5e8"/><path d="m431 73-43.25 24.667-41.417-24.667v-68c0-2.761 2.239-5 5-5h74.667c2.761 0 5 2.239 5 5z" fill="#5e9ff6"/><path d="m0 183.08v318.92c0 5.52 4.48 10 10 10h281.5l-35.5-375.67z" fill="#fff5f5"/><path d="m512 183.08v318.92c0 5.52-4.48 10-10 10h-246v-375.67z" fill="#e1ebf0"/><path d="m256 73 35.5 55.04-35.5 55.04h-256v-100.08c0-5.52 4.48-10 10-10z" fill="#0b799d"/><path d="m512 83v100.08h-256v-110.08h246c5.52 0 10 4.48 10 10z" fill="#07485e"/><g><g><path d="m427.25 355.04h-68c-8.284 0-15-6.716-15-15s6.716-15 15-15h68c8.284 0 15 6.716 15 15s-6.716 15-15 15z" fill="#5e9ff6"/></g><path d="m256 276.04 16.5 68.46-16.5 59.54h-103.25c-8.28 0-15-6.72-15-15v-98c0-8.28 6.72-15 15-15h53.25l15 6.21 15-6.21z" fill="#00ccb3"/><path d="m152.75 246.54c-8.284 0-15 6.716-15 15v63.5h-38v-34c0-8.284-6.716-15-15-15s-15 6.716-15 15v98c0 8.284 6.716 15 15 15s15-6.716 15-15v-34h38v63.5c0 8.284 6.716 15 15 15s15-6.716 15-15v-157c0-8.284-6.716-15-15-15z" fill="#8dc5e8"/><path d="m374.25 291.04v98c0 8.28-6.72 15-15 15h-103.25v-128h20l15.5 6.21 14.5-6.21h53.25c8.28 0 15 6.72 15 15z" fill="#00969b"/><g><g><g><path d="m236 276.04v46.46c0 8.28-6.72 15-15 15s-15-6.72-15-15v-46.46z" fill="#8dc5e8"/></g><g><g><path d="m306 276.04v46.46c0 8.28-6.72 15-15 15s-15-6.72-15-15v-46.46z" fill="#5e9ff6"/></g></g></g></g></g></g></svg>