<?xml version="1.0" encoding="iso-8859-1"?>
<!-- Generator: Adobe Illustrator 19.0.0, SVG Export Plug-In . SVG Version: 6.00 Build 0)  -->
<svg version="1.1" id="Capa_1" xmlns="http://www.w3.org/2000/svg" xmlns:xlink="http://www.w3.org/1999/xlink" x="0px" y="0px"
	 viewBox="0 0 513.067 513.067" style="enable-background:new 0 0 513.067 513.067;" xml:space="preserve">
<path style="fill:#40596B;" d="M498.133,14.206L498.133,14.206c-19.2-19.2-50.133-19.2-74.667,8.533l-242.133,272l38.4,38.4
	L489.6,88.873C517.333,64.34,518.4,33.406,498.133,14.206z"/>
<path style="fill:#F8B64C;" d="M249.6,375.806l-117.333,118.4c-6.4,6.4-2.133,18.133,7.467,18.133h220.8
	c9.6,0,13.867-11.733,7.467-18.133L249.6,375.806z"/>
<path style="fill:#F4AA40;" d="M347.733,473.94c-28.8,10.667-59.733,16-91.733,16c-35.2,0-69.333-6.4-100.267-19.2l94.933-94.933
	L347.733,473.94z"/>
<polygon style="fill:#334A5E;" points="263.467,201.94 233.6,235.006 293.333,265.94 364.8,201.94 "/>
<path style="fill:#FFD15C;" d="M0,217.94c0,141.867,114.133,256,256,256s256-114.133,256-256L0,217.94L0,217.94z"/>
<path style="fill:#FF7058;" d="M0,217.94c0,20.267,2.133,40.533,7.467,59.733H505.6c4.267-19.2,7.467-39.467,7.467-59.733H0z"/>
<g>
	<path style="fill:#4CDBC4;" d="M147.2,161.406c7.467-14.933,17.067-28.8,30.933-39.467c0-26.667-10.667-53.333-30.933-73.6
		c-20.267,20.267-30.933,46.933-30.933,73.6C129.067,132.606,139.733,146.473,147.2,161.406z"/>
	<path style="fill:#4CDBC4;" d="M185.6,127.273c-3.2,2.133-6.4,5.333-9.6,7.467c-11.733,10.667-20.267,24.533-25.6,39.467
		c-2.133,7.467-4.267,14.933-4.267,22.4l0,0c3.2,0,6.4,0,8.533,0c1.067,0,2.133,0,3.2,0c46.933-2.133,85.333-39.467,88.533-86.4
		C225.067,108.073,203.733,114.473,185.6,127.273z"/>
	<path style="fill:#4CDBC4;" d="M116.267,134.74c-3.2-3.2-6.4-5.333-9.6-7.467c-17.067-11.733-38.4-19.2-60.8-17.067
		c3.2,48,41.6,84.267,88.533,86.4c1.067,0,2.133,0,3.2,0c3.2,0,5.333,0,8.533,0l0,0c0-7.467-2.133-14.933-4.267-22.4
		C136.533,159.273,128,145.406,116.267,134.74z"/>
</g>
<g>
</g>
<g>
</g>
<g>
</g>
<g>
</g>
<g>
</g>
<g>
</g>
<g>
</g>
<g>
</g>
<g>
</g>
<g>
</g>
<g>
</g>
<g>
</g>
<g>
</g>
<g>
</g>
<g>
</g>
</svg>
