<?xml version="1.0" encoding="iso-8859-1"?>
<!-- Generator: Adobe Illustrator 19.0.0, SVG Export Plug-In . SVG Version: 6.00 Build 0)  -->
<svg version="1.1" id="Capa_1" xmlns="http://www.w3.org/2000/svg" xmlns:xlink="http://www.w3.org/1999/xlink" x="0px" y="0px"
	 viewBox="0 0 510.848 510.848" style="enable-background:new 0 0 510.848 510.848;" xml:space="preserve">
<rect y="469.36" style="fill:#7FB241;" width="510.848" height="25.68"/>
<path style="fill:#719C40;" d="M375.52,132.432c0-23.52-19.072-42.592-42.592-42.592c-23.52,0-42.592,19.072-42.592,42.592v118.48
	h85.184L375.52,132.432z"/>
<path style="fill:#7FB241;" d="M476.576,206.864c-16.64-16.64-43.6-16.64-60.24,0l-83.424,83.424v120.48l143.664-143.664
	C493.216,250.464,493.216,223.488,476.576,206.864z"/>
<path style="fill:#8BC540;" d="M189.264,206.864c16.64-16.64,43.6-16.64,60.24,0l83.424,83.424v120.48L189.264,267.104
	C172.64,250.464,172.64,223.488,189.264,206.864z"/>
<polygon style="fill:#719C40;" points="272.688,230.624 332.928,290.864 332.928,290.848 "/>
<path style="fill:#8BC540;" d="M416.672,207.136l-83.712,83.712V170.432l23.568-23.568c16.528-16.64,43.504-16.64,60.144,0
	S433.312,190.496,416.672,207.136z"/>
<g>
	<path style="fill:#7FB241;" d="M332.944,170.432v120.416l-60.256-60.256l-23.568-23.456c-16.64-16.64-16.64-43.616,0-60.256
		c16.64-16.64,43.616-16.64,60.256,0L332.944,170.432z"/>
	<polygon style="fill:#7FB241;" points="332.928,290.864 332.928,290.864 393.168,230.624 393.168,230.624 332.928,290.848 	"/>
</g>
<g>
	<polygon style="fill:#997960;" points="343.52,469.36 322.32,469.36 332.944,174 	"/>
	<polygon style="fill:#997960;" points="332.688,340.496 332.688,356.784 404.528,276.352 	"/>
	<polygon style="fill:#997960;" points="332.944,340.496 332.944,356.784 261.104,276.352 	"/>
	<polygon style="fill:#997960;" points="332.736,225.92 332.736,235.232 373.824,189.232 	"/>
	<polygon style="fill:#997960;" points="332.896,225.92 332.896,235.232 291.808,189.232 	"/>
</g>
<path style="fill:#719C40;" d="M131.968,275.44c0-13.536-10.976-24.512-24.512-24.512s-24.512,10.976-24.512,24.512v68.192h49.04
	L131.968,275.44z"/>
<path style="fill:#7FB241;" d="M190.144,318.272c-9.568-9.584-25.104-9.584-34.672,0l-48.016,48.016v69.344l82.688-82.688
	C199.712,343.376,199.712,327.84,190.144,318.272z"/>
<path style="fill:#8BC540;" d="M24.768,318.272c9.568-9.584,25.104-9.584,34.672,0l48.016,48.016v69.344l-82.688-82.688
	C15.2,343.376,15.2,327.84,24.768,318.272z"/>
<polygon style="fill:#719C40;" points="72.784,331.952 107.456,366.624 107.456,366.624 "/>
<path style="fill:#8BC540;" d="M155.664,318.432l-48.192,48.192v-69.312l13.568-13.568c9.504-9.584,25.04-9.584,34.624,0
	C165.232,293.328,165.232,308.848,155.664,318.432z"/>
<g>
	<path style="fill:#7FB241;" d="M107.472,297.312v69.312l-34.688-34.688l-13.568-13.504c-9.584-9.584-9.584-25.104,0-34.688
		c9.584-9.584,25.104-9.584,34.688,0L107.472,297.312z"/>
	<polygon style="fill:#7FB241;" points="107.456,366.624 107.456,366.624 142.128,331.952 142.128,331.952 	"/>
</g>
<g>
	<polygon style="fill:#997960;" points="113.552,469.36 101.36,469.36 107.472,299.36 	"/>
	<polygon style="fill:#997960;" points="107.328,395.2 107.328,404.56 148.672,358.272 	"/>
	<polygon style="fill:#997960;" points="107.472,395.2 107.472,404.56 66.128,358.272 	"/>
	<polygon style="fill:#997960;" points="107.36,329.248 107.36,334.592 130.992,308.128 	"/>
	<polygon style="fill:#997960;" points="107.44,329.248 107.44,334.592 83.792,308.128 	"/>
</g>
<circle style="fill:#FFD83B;" cx="113.584" cy="89.824" r="74.016"/>
<circle style="fill:#F3C432;" cx="113.584" cy="89.824" r="44.96"/>
<g>
</g>
<g>
</g>
<g>
</g>
<g>
</g>
<g>
</g>
<g>
</g>
<g>
</g>
<g>
</g>
<g>
</g>
<g>
</g>
<g>
</g>
<g>
</g>
<g>
</g>
<g>
</g>
<g>
</g>
</svg>
