<?xml version="1.0" encoding="iso-8859-1"?>
<!-- Generator: Adobe Illustrator 19.0.0, SVG Export Plug-In . SVG Version: 6.00 Build 0)  -->
<svg version="1.1" id="Capa_1" xmlns="http://www.w3.org/2000/svg" xmlns:xlink="http://www.w3.org/1999/xlink" x="0px" y="0px"
	 viewBox="0 0 512 512" style="enable-background:new 0 0 512 512;" xml:space="preserve">
<path style="fill:#EDF6FF;" d="M375.741,512H136.258c-8.404,0-15.217-6.813-15.217-15.217V134.674
	c0-8.404,6.813-15.217,15.217-15.217H375.74c8.404,0,15.217,6.813,15.217,15.217v362.109C390.958,505.187,384.145,512,375.741,512z"
	/>
<path style="fill:#4FD9E0;" d="M375.741,149.891H136.258c-5.429,0-10.446-2.892-13.167-7.589s-2.733-10.489-0.033-15.198
	l40.578-70.763c2.713-4.73,7.748-7.647,13.201-7.647h158.325c5.453,0,10.488,2.917,13.201,7.647l40.578,70.763
	c2.699,4.709,2.687,10.501-0.033,15.198S381.17,149.891,375.741,149.891z"/>
<path style="fill:#EDF6FF;" d="M161.62,63.911V15.217C161.62,6.813,168.433,0,176.837,0h158.325c8.404,0,15.217,6.813,15.217,15.217
	v48.694H161.62z"/>
<path style="fill:#4FD9E0;" d="M375.741,396.655H136.258c-8.404,0-15.217-6.813-15.217-15.217V250.019
	c0-8.404,6.813-15.217,15.217-15.217H375.74c8.404,0,15.217,6.813,15.217,15.217v131.418
	C390.958,389.842,384.145,396.655,375.741,396.655z"/>
<path style="fill:#EDF6FF;" d="M286.437,330.946h-60.874c-8.404,0-15.217-6.813-15.217-15.217s6.813-15.217,15.217-15.217h60.874
	c8.404,0,15.217,6.813,15.217,15.217S294.841,330.946,286.437,330.946z"/>
<path style="fill:#D6E9FF;" d="M375.741,119.457H256V512h119.741c8.404,0,15.217-6.813,15.217-15.217V134.674
	C390.958,126.27,384.145,119.457,375.741,119.457z"/>
<path style="fill:#16A9C7;" d="M348.363,56.341c-2.712-4.73-7.747-7.647-13.2-7.647H256v101.197h119.741
	c5.429,0,10.446-2.892,13.167-7.589s2.733-10.489,0.033-15.198L348.363,56.341z"/>
<path style="fill:#D6E9FF;" d="M335.163,0H256v63.911h94.379V15.217C350.38,6.813,343.567,0,335.163,0z"/>
<path style="fill:#16A9C7;" d="M375.741,234.802H256v161.852h119.741c8.404,0,15.217-6.813,15.217-15.217V250.019
	C390.958,241.615,384.145,234.802,375.741,234.802z"/>
<path style="fill:#D6E9FF;" d="M286.437,300.512H256v30.434h30.437c8.404,0,15.217-6.813,15.217-15.217
	S294.841,300.512,286.437,300.512z"/>
<g>
</g>
<g>
</g>
<g>
</g>
<g>
</g>
<g>
</g>
<g>
</g>
<g>
</g>
<g>
</g>
<g>
</g>
<g>
</g>
<g>
</g>
<g>
</g>
<g>
</g>
<g>
</g>
<g>
</g>
</svg>
