<svg height="512" viewBox="0 0 128 128" width="512" xmlns="http://www.w3.org/2000/svg"><g><path d="m117.09 45.92v12.89c-55.75 21.98-72.74-11.66-106.18 2v-14.89z" fill="#ffe7a6"/><path d="m117.09 58.81v16.42c-55.75 21.98-72.74-11.65-106.18 2v-16.42c33.44-13.66 50.43 19.98 106.18-2z" fill="#ffc244"/><path d="m117.09 75.23v16.42c-55.75 21.99-72.74-11.65-106.18 2.01v-16.43c33.44-13.65 50.43 19.98 106.18-2z" fill="#ffe7a6"/><path d="m117.09 91.65v14.18a5 5 0 0 1 -5 5h-96.18a5 5 0 0 1 -5-5v-12.17c33.44-13.66 50.43 19.98 106.18-2.01z" fill="#f9b741"/><path d="m117.09 45.92h-106.18a70.049 70.049 0 0 1 16.12-14.19 67.77 67.77 0 0 1 18.23-8.16 72.2 72.2 0 0 1 9.06-1.92 5.05 5.05 0 0 1 2.55.31z" fill="#ffd392"/><path d="m34.324 25.152a1.744 1.744 0 0 1 -1.282-.559c-6.106-6.572-11.584-11.429-21.783-9.35a1.75 1.75 0 0 1 -.7-3.429c12.928-2.645 19.934 4.894 25.047 10.4a1.749 1.749 0 0 1 -1.282 2.941z" fill="#90949b"/><circle cx="36.098" cy="27.561" fill="#cf462a" r="9.984"/></g></svg>