<svg height="512" viewBox="0 0 58 58" width="512" xmlns="http://www.w3.org/2000/svg"><g id="Page-1" fill="none" fill-rule="evenodd"><g id="006---Edit-Folder" fill-rule="nonzero"><path id="Shape" d="m58 19v29c0 3.3137085-2.6862915 6-6 6h-46c-3.3137085 0-6-2.6862915-6-6v-44c0-2.209139 1.790861-4 4-4h22c2.209139 0 4 1.790861 4 4v2h18c2.209139 0 4 1.790861 4 4v3c3.3116533.0049563 5.9950437 2.6883467 6 6z" fill="#f0c419"/><path id="Shape" d="m52 10v3h-52v-9c0-2.209139 1.790861-4 4-4h22c2.209139 0 4 1.790861 4 4v2h18c2.209139 0 4 1.790861 4 4z" fill="#f29c1f"/><path id="Shape" d="m18 13h-4c-.5522847 0-1-.4477153-1-1s.4477153-1 1-1h4c.5522847 0 1 .4477153 1 1s-.4477153 1-1 1z" fill="#e57e25"/><path id="Shape" d="m52 11v2h-29c-.5522847 0-1-.4477153-1-1s.4477153-1 1-1z" fill="#e57e25"/><path id="Shape" d="m31.11 33.96-20.5 20.5-3.53-3.53 9.18-9.19 3.54-3.54 7.78-7.77z" fill="#c03a2b"/><path id="Shape" d="m27.58 30.43-7.78 7.77-3.54 3.54-9.18 9.19h-.01l-3.53-3.54 20.5-20.5z" fill="#e64c3c"/><path id="Shape" d="m10.61 54.46-5.8 2.17-3.46 1.3c-.36536396.1409668-.77948486.0533124-1.05639862-.2236014-.27691376-.2769137-.36456818-.6910346-.22360138-1.0563986l1.3-3.46 2.17-5.8z" fill="#f9eab0"/><path id="Rectangle-path" d="m23.992 27.008h10v4h-10z" fill="#95a5a5" transform="matrix(.707 .707 -.707 .707 29.004 -12.004)"/><path id="Shape" d="m30.5269312 22.4724069h4c1.6568543 0 3 1.3431457 3 3v3h-10v-3c0-1.6568543 1.3431458-3 3-3z" fill="#fb7b76" transform="matrix(.707 .707 -.707 .707 27.539 -15.539)"/><path id="Shape" d="m4.81 56.63-3.46 1.3c-.36536396.1409668-.77948486.0533124-1.05639862-.2236014-.27691376-.2769137-.36456818-.6910346-.22360138-1.0563986l1.3-3.46c1.66481257.4739169 2.96608307 1.7751874 3.44 3.44z" fill="#3f5c6c"/></g></g></svg>