<svg id="Capa_1" enable-background="new 0 0 512 512" height="512" viewBox="0 0 512 512" width="512" xmlns="http://www.w3.org/2000/svg"><g><g><path clip-rule="evenodd" d="m306.531 346.015 43.359-25.727 31.497-18.719 45.317-26.895c0-63.573 0-137.454 0-201.027v-2.745l-78.012-70.902h-264.276c-3.272 0-5.931 2.657-5.931 5.928v264.688l126.952 75.4 30.533 18.134c23.141 13.754 16.508 13.988 39.59.263z" fill="#edf3f4" fill-rule="evenodd"/></g><g><path clip-rule="evenodd" d="m366.632 70.903h60.072v-.934c-.029-1.694-.73-1.986-3.389-4.526l-64.835-61.822c-3.039-2.891-3.535-3.621-5.347-3.621h-4.441v58.609c0 13.082 12.126 12.294 17.94 12.294z" fill="#d7e7ec" fill-rule="evenodd"/></g><g><path clip-rule="evenodd" d="m493.5 224.713v269.382c0 9.848-8.071 17.905-17.914 17.905h-439.178c-9.875 0-17.904-8.056-17.904-17.905v-269.382c60.061 35.665 120.143 71.34 180.215 107.015 4.473 2.648 8.937 5.305 13.41 7.963 7.947 4.718 15.894 9.436 23.841 14.155 23.14 13.753 16.512 13.98 39.591.258 8.091-4.801 16.183-9.612 24.274-14.412 4.463-2.658 8.937-5.305 13.41-7.963 60.081-35.676 120.173-71.351 180.255-107.016z" fill="#fcd79b" fill-rule="evenodd"/></g><g><path clip-rule="evenodd" d="m18.5 494.099c0 9.841 8.035 17.901 17.911 17.901h46.427l31.029-44.65h-95.367z" fill="#fbc56c" fill-rule="evenodd"/></g><g><path clip-rule="evenodd" d="m82.838 512h346.32l-31.058-44.65h-284.233z" fill="#fbc56c" fill-rule="evenodd"/></g><g><path clip-rule="evenodd" d="m398.1 467.35 31.058 44.65h46.427c9.846 0 17.911-8.06 17.911-17.901v-269.389l-45.697 27.129v197.61c0 9.841-8.064 17.901-17.911 17.901z" fill="#fbc56c" fill-rule="evenodd"/></g><g><path clip-rule="evenodd" d="m426.704 177.549v86.818l21.095-12.528 45.697-27.129c0-4.03-4.061-8.556-9.7-12.031z" fill="#fdb440" fill-rule="evenodd"/></g><g><path clip-rule="evenodd" d="m18.5 224.71 59.984 35.597v-82.759c-2.63 1.898-47.538 33.057-50.138 35.013-5.376 4.002-9.846 8.09-9.846 12.149z" fill="#fdb440" fill-rule="evenodd"/></g><g><path d="m367.859 126.464h-233.334c-4.303 0-7.791-3.486-7.791-7.787s3.488-7.787 7.791-7.787h233.335c4.303 0 7.791 3.486 7.791 7.787s-3.489 7.787-7.792 7.787z" fill="#9aafb7"/></g><g><path d="m367.859 183.146h-233.334c-4.303 0-7.791-3.486-7.791-7.787s3.488-7.787 7.791-7.787h233.335c4.303 0 7.791 3.486 7.791 7.787 0 4.3-3.489 7.787-7.792 7.787z" fill="#9aafb7"/></g><g><path d="m367.859 239.798h-233.334c-4.303 0-7.791-3.486-7.791-7.787s3.488-7.787 7.791-7.787h233.335c4.303 0 7.791 3.486 7.791 7.787 0 4.3-3.489 7.787-7.792 7.787z" fill="#9aafb7"/></g><g><path d="m212.128 339.692c-.093.155-.196.309-.299.464l-119.504 171.844h-19.213c1.257-1.782 2.804-3.688 3.329-4.44l122.277-175.831c4.474 2.647 8.937 5.305 13.41 7.963z" fill="#fdb440"/></g><g><path d="m438.572 512h-18.904l-119.535-171.845c-.103-.154-.206-.309-.299-.464 4.463-2.658 8.937-5.305 13.41-7.963l122.308 175.832c.587.845 1.752 2.534 3.02 4.44z" fill="#fdb440"/></g></g></svg>