<svg id="Capa_1" enable-background="new 0 0 483.254 483.254" height="512" viewBox="0 0 483.254 483.254" width="512" xmlns="http://www.w3.org/2000/svg"><g><g id="icon_5_"><path d="m28.135 4.199h426.985c15.538 0 28.135 12.596 28.135 28.135v281.331c0 15.538-12.596 28.135-28.135 28.135h-426.985c-15.539 0-28.135-12.597-28.135-28.135v-281.331c0-15.538 12.596-28.135 28.135-28.135z" fill="#575b6d"/><path d="m28.135 27.484h426.991c2.679 0 4.85 2.172 4.85 4.85v281.331c0 2.682-2.174 4.856-4.856 4.856h-426.979c-2.682 0-4.856-2.174-4.856-4.856v-281.331c0-2.679 2.171-4.85 4.85-4.85z" fill="#eeefee"/><path d="m194.557 363.216-1.308 3.324-4.432 11.274-36.539 93.115c-1.897 4.897-6.63 8.106-11.881 8.056-1.363.001-2.719-.197-4.025-.589-6.667-2.251-10.247-9.481-7.995-16.148.076-.224.158-.446.246-.666l33.215-83.768 4.532-11.256 1.308-3.324z" fill="#f6b863"/><path d="m355.54 466.308c.019 7.021-5.656 12.728-12.677 12.747-5.259.014-9.985-3.211-11.887-8.115l-36.539-93.115-4.437-11.268-1.308-3.324h26.986l1.308 3.324 4.432 11.274 33.227 83.762c.593 1.501.897 3.101.895 4.715z" fill="#f6b863"/><path d="m254.463 363.216v88.294c-.052 7.025-5.763 12.692-12.789 12.688h-.1c-7.006-.003-12.685-5.682-12.688-12.688v-88.294z" fill="#f6b863"/><path d="m363.396 354.181c0 6.835-5.541 12.376-12.376 12.376h-218.779c-6.835-.008-12.37-5.555-12.362-12.39.008-6.824 5.538-12.354 12.362-12.362h218.773c6.835-.003 12.379 5.535 12.382 12.37z" fill="#f6b863"/><path d="m166.369 366.54h26.88l-4.432 11.274h-26.98z" fill="#eaa14e"/><path d="m228.886 366.54h25.571v11.274h-25.571z" fill="#eaa14e"/><path d="m321.411 377.814h-26.979l-4.432-11.274h26.98z" fill="#eaa14e"/><path d="m321.7 230.091-32.325-37.647-32.979 33.021-14.256-14.227 48.355-48.402 32.366 37.694 101.324-100.894 14.221 14.262z" fill="#ef5261"/><g fill="#dbd8dd"><path d="m55.421 51.906h222.097v12.4h-222.097z"/><path d="m55.421 86.724h222.097v12.4h-222.097z"/><path d="m55.421 121.542h123.519v12.4h-123.519z"/><path d="m55.421 191.177h123.519v14.138h-123.519z"/><path d="m55.421 230.875h123.519v14.138h-123.519z"/><path d="m55.421 270.578h375.347v14.138h-375.347z"/></g></g></g></svg>