<svg id="Capa_1" enable-background="new 0 0 458.327 458.327" height="512" viewBox="0 0 458.327 458.327" width="512" xmlns="http://www.w3.org/2000/svg"><g><path d="m228.867 192.268h167.703v266.059h-167.703z" fill="#eaa14e"/><path d="m228.867 192.268h167.703v111.804h-167.703z" fill="#dd924e"/><path d="m441.855 268.692h-167.697l-45.291-76.424h167.703z" fill="#eaa14e"/><path d="m61.757 192.268h167.703v266.059h-167.703z" fill="#f6b863"/><path d="m61.757 192.268h167.703v111.804h-167.703z" fill="#eaa14e"/><path d="m16.472 268.692h167.697l45.291-76.424h-167.703z" fill="#f6b863"/><path d="m268.585 0c-14.552-.001-28.59 5.374-39.422 15.091-24.388-21.815-61.843-19.73-83.659 4.658-9.737 10.885-15.11 24.983-15.089 39.587 0 61.444 98.747 126.918 98.747 126.918s98.898-65.261 98.747-126.929c-.026-32.753-26.571-59.297-59.324-59.325z" fill="#ef5261"/></g></svg>