<?xml version="1.0" encoding="iso-8859-1"?>
<!-- Generator: Adobe Illustrator 19.0.0, SVG Export Plug-In . SVG Version: 6.00 Build 0)  -->
<svg version="1.1" id="Capa_1" xmlns="http://www.w3.org/2000/svg" xmlns:xlink="http://www.w3.org/1999/xlink" x="0px" y="0px"
	 viewBox="0 0 512 512" style="enable-background:new 0 0 512 512;" xml:space="preserve">
<path style="fill:#F3E8D6;" d="M408.593,266.387c-6.064-8.348-17.748-10.202-26.097-4.134c-3.304,2.4-62.839,44.927-91.595,109.588
	c-1.745,3.925-7.599,2.853-7.887-1.433l-7.423-110.611c0-10.319-8.365-18.684-18.684-18.684s-18.684,8.365-18.684,18.684
	L230.8,370.408c-0.288,4.286-6.142,5.358-7.887,1.433c-28.756-64.661-88.292-107.188-91.595-109.588
	c-8.34-6.062-20.004-4.212-26.075,4.122c-6.07,8.333-4.233,20.016,4.094,26.096c0.915,0.668,91.518,77.588,91.518,160.185v30.227
	c0,11.176,25.095,20.236,56.052,20.236s56.052-9.06,56.052-20.236v-30.227c0-82.467,90.315-159.304,91.513-160.181
	C412.809,286.407,414.654,274.73,408.593,266.387z"/>
<path style="fill:#D8CAB8;" d="M408.593,266.387c-6.064-8.347-17.748-10.202-26.097-4.134c-1.421,1.032-13.249,9.494-28.553,23.943
	c-1.287,2.402-3.101,4.568-5.452,6.28c-0.216,0.158-3.35,2.807-8.325,7.507c-17.39,18.454-36.405,42.94-49.266,71.859
	c-1.746,3.925-33.923,73.181-33.923,104.627v6.415c0,7.494-11.293,14.032-28.061,17.529c8.239,1.718,17.792,2.707,27.991,2.707
	c30.957,0,56.052-9.06,56.052-20.236v-30.227c0-82.467,90.315-159.304,91.513-160.181
	C412.809,286.407,414.654,274.73,408.593,266.387z"/>
<path style="fill:#77D057;" d="M449.689,150.072c1.555-5.987,2.399-12.231,2.399-18.662c0-43.796-38.205-79.3-85.333-79.3
	c-11.281,0-22.04,2.053-31.897,5.748C322.043,29.11,291.569,8.881,256,8.881s-66.043,20.229-78.859,48.978
	c-9.857-3.695-20.616-5.748-31.897-5.748c-47.128,0-85.333,35.504-85.333,79.3c0,6.431,0.845,12.675,2.399,18.662
	C26.371,159.411,0,190.048,0,226.427c0,43.796,38.205,79.3,85.333,79.3c21.6,0,41.326,1.753,56.358-16.294
	c9.204-11.05,24.569-13.306,36.619-8.074c21.526,9.348,44.438,15.105,67.905,15.379l14.606,0.17
	c25.333,0.296,50.199-5.426,73.576-15.191c11.78-4.921,26.317-2.995,35.28,7.599c15.295,18.08,35.31,16.411,56.99,16.411
	c47.128,0,85.333-35.504,85.333-79.3C512,190.048,485.629,159.411,449.689,150.072z"/>
<g>
	<path style="fill:#62B240;" d="M271.504,45.127c4.856,6.966,13.474,10.225,21.813,8.622c5.581-1.073,11.36-1.639,17.284-1.639
		c7.944,0,15.625,1.03,22.921,2.917C320.013,27.792,290.389,8.881,256,8.881c-9.838,0-19.284,1.554-28.077,4.402
		C245.983,19.131,261.279,30.46,271.504,45.127z"/>
	<path style="fill:#62B240;" d="M449.689,150.072c1.555-5.987,2.399-12.231,2.399-18.662c0-43.796-38.205-79.3-85.333-79.3
		c-9.84,0-19.282,1.564-28.075,4.415c33.329,10.792,57.254,40.234,57.254,74.885c0,0.064,0,0.129,0,0.193
		c-0.028,10.514,5.605,20.288,15.007,24.996c26.733,13.387,44.905,39.629,44.905,69.828c0,37.065-27.367,68.184-64.345,76.876
		c10.785,2.969,22.699,2.424,35.166,2.424c47.128,0,85.333-35.504,85.333-79.3C512,190.048,485.629,159.411,449.689,150.072z"/>
	<path style="fill:#62B240;" d="M210.299,111.574c8.344-17.555,26.283-28.898,45.701-28.898s37.357,11.343,45.701,28.898
		c1.331,2.801,4.119,4.439,7.027,4.439c1.119,0,2.256-0.243,3.333-0.755c3.878-1.843,5.528-6.481,3.684-10.36
		C304.84,81.952,281.388,67.126,256,67.126s-48.84,14.826-59.745,37.772c-1.844,3.878-0.194,8.517,3.684,10.36
		C203.82,117.103,208.456,115.452,210.299,111.574z"/>
	<path style="fill:#62B240;" d="M411.951,238.169c1.1,0.539,2.267,0.795,3.415,0.795c2.875,0,5.638-1.601,6.988-4.356
		c11.178-22.815,8.193-50.4-7.604-70.276c-15.796-19.874-41.997-29.01-66.745-23.269c-4.183,0.97-6.788,5.147-5.817,9.33
		c0.969,4.183,5.148,6.791,9.33,5.817c18.93-4.387,38.976,2.595,51.059,17.798c12.082,15.202,14.364,36.303,5.812,53.758
		C406.501,231.621,408.095,236.279,411.951,238.169z"/>
	<path style="fill:#62B240;" d="M160.481,156.21c4.182,0.971,8.361-1.634,9.33-5.817c0.971-4.183-1.634-8.36-5.817-9.33
		c-24.751-5.738-50.948,3.395-66.745,23.269c-15.797,19.876-18.782,47.461-7.604,70.276c1.351,2.756,4.113,4.356,6.989,4.356
		c1.148,0,2.314-0.256,3.415-0.795c3.856-1.889,5.451-6.547,3.562-10.403c-8.552-17.455-6.27-38.556,5.812-53.758
		C121.506,158.804,141.552,151.824,160.481,156.21z"/>
</g>
<g>
</g>
<g>
</g>
<g>
</g>
<g>
</g>
<g>
</g>
<g>
</g>
<g>
</g>
<g>
</g>
<g>
</g>
<g>
</g>
<g>
</g>
<g>
</g>
<g>
</g>
<g>
</g>
<g>
</g>
</svg>
