<svg height="512" viewBox="0 0 58 52" width="512" xmlns="http://www.w3.org/2000/svg"><g id="Page-1" fill="none" fill-rule="evenodd"><g id="006---Smartphone-Notes" fill-rule="nonzero"><rect id="Rectangle-path" fill="#2fa8cc" height="52" rx="4" width="32"/><path id="Shape" d="m32 4v3s-30.41 0-31.94 41.69c-.0406788-.2277317-.06075995-.4586649-.06-.69v-44c0-2.209139 1.790861-4 4-4h24c2.209139 0 4 1.790861 4 4z" fill="#67b9cc"/><path id="Shape" d="m28 0-3.109 4.664c-.5565411.83488466-1.4936205 1.33626155-2.497 1.336h-12.788c-1.00444212.00126576-1.94286979-.50022999-2.5-1.336l-3.106-4.664z" fill="#464f5d"/><path id="Shape" d="m25 47h-18c-.55228475 0-1-.4477153-1-1s.44771525-1 1-1h18c.5522847 0 1 .4477153 1 1s-.4477153 1-1 1z" fill="#464f5d"/><g fill="#fff"><path id="Shape" d="m26 13h-20c-.55228475 0-1-.4477153-1-1s.44771525-1 1-1h20c.5522847 0 1 .4477153 1 1s-.4477153 1-1 1z"/><path id="Shape" d="m26 18h-20c-.55228475 0-1-.4477153-1-1s.44771525-1 1-1h20c.5522847 0 1 .4477153 1 1s-.4477153 1-1 1z"/><path id="Shape" d="m26 23h-20c-.55228475 0-1-.4477153-1-1s.44771525-1 1-1h20c.5522847 0 1 .4477153 1 1s-.4477153 1-1 1z"/><path id="Shape" d="m16 28h-10c-.55228475 0-1-.4477153-1-1s.44771525-1 1-1h10c.5522847 0 1 .4477153 1 1s-.4477153 1-1 1z"/></g><path id="Shape" d="m20.85 40.75-4.76 1.15c-.4001172.094232-.8171417-.0659868-1.0512382-.4038807-.2340964-.337894-.2375722-.7846237-.0087618-1.1261193l2.76-4.05z" fill="#464f5d"/><path id="Shape" d="m27.09 39.22c-.171.068.119-.01-6.24 1.53l-3.06-4.43c3.712-5.457 3.516-5.186 3.63-5.3z" fill="#fdd7ad"/><path id="Shape" d="m57.47 14.58-2.28-3.29c-.9425488-1.35998111-2.8082671-1.70001609-4.17-.76-31.069 21.47-29.499 20.389-29.6 20.49l5.67 8.2c.133-.044-.27.193 29.62-20.46 1.3612203-.9462891 1.7010084-2.8151239.76-4.18z" fill="#f3d55b"/><path id="Shape" d="m56.71 18.76-5.76 3.98-5.69-8.23 5.76-3.98c1.3617329-.94001609 3.2274512-.59998111 4.17.76l2.28 3.29c.9410084 1.3648761.6012203 3.2337109-.76 4.18z" fill="#ff5364"/><path id="Shape" d="m50.95 22.74-4.11 2.84-5.69-8.22 4.11-2.85z" fill="#bdc3c7"/></g></g></svg>