<svg height="512pt" viewBox="-18 0 512 512" width="512pt" xmlns="http://www.w3.org/2000/svg"><g fill-rule="evenodd"><path d="m392.890625 398.609375h-353.816406c-25.125 0-38.308594 58.167969-39.074219 75.835937 0 .820313.0859375 2.570313 0 3.273438.765625 17.429688 13.640625 34.28125 39.074219 34.28125h354.328125c22.316406 0 40.066406-18.804688 40.066406-41.789062v-113.421876c0 23.011719-18.261719 41.820313-40.578125 41.820313zm0 0" fill="#eceff1"/><path d="m73.15625 439.550781 30.824219-217.371093-30.824219-221.742188c-32.550781 0-70.09375-4.058594-73.15625 43.890625v430.117187c.765625-17.667968 13.921875-34.894531 39.074219-34.894531zm0 0" fill="#fcd968"/><path d="m39.1875 470.09375h353.816406c21.265625 0 38.847656-17.109375 40.464844-38.632812l-.03125-33.699219c0 22.777343-17.949219 41.46875-40.035156 41.789062-.171875 0-.339844 0-.539063 0h-353.789062c-25.152344 0-38.308594 17.226563-39.074219 34.894531v3.273438c.199219 4.730469 1.304688 9.402344 3.289062 13.722656 5.359376-12 17.382813-21.347656 35.898438-21.347656zm0 0" fill="#c4cccf"/><path d="m73.15625.4375v439.113281h319.707031c22.316407 0 40.574219-18.808593 40.574219-41.789062l.144531-355.972657c.027344-22.984374-18.261719-41.789062-40.578125-41.789062zm0 0" fill="#f55a8e"/><path d="m393.402344 0v439.550781c22.085937-.320312 40.035156-19.011719 40.035156-41.789062l.144531-355.972657c.027344-22.835937-18.035156-41.554687-40.179687-41.789062zm0 0" fill="#ba4583"/><path d="m152.382812 59.105469h299.175782c13.4375 0 24.441406 11.328125 24.441406 25.171875v120.632812c0 13.84375-11.003906 25.171875-24.441406 25.171875h-299.175782c-13.441406 0-24.445312-11.328125-24.445312-25.171875v-120.632812c0-13.84375 11.003906-25.171875 24.445312-25.171875zm0 0" fill="#eceff1"/><path d="m443.871094 84.277344v120.632812c0 13.84375-10.972656 25.171875-24.441406 25.171875h32.128906c13.4375 0 24.441406-11.328125 24.441406-25.171875v-120.632812c0-13.84375-11.003906-25.171875-24.441406-25.171875h-32.128906c13.46875 0 24.441406 11.328125 24.441406 25.171875zm0 0" fill="#c4cccf"/><g fill="#546e7a"><path d="m172.144531 157.894531h12.050781c1.730469 0 3.203126.671875 4.480469 1.929688.539063.554687.992188 1.226562 1.332031 1.957031.371094.816406.511719 1.691406.511719 2.570312 0 1.722657-.625 3.238282-1.816406 4.464844-1.246094 1.226563-2.777344 1.8125-4.507813 1.8125h-18.742187c-1.871094 0-3.542969-.640625-4.878906-2.015625-1.359375-1.34375-2.011719-3.066406-2.011719-4.992187v-40.679688c0-1.898437.679688-3.5625 1.984375-4.933594 1.304687-1.433593 2.921875-2.160156 4.820313-2.160156h18.488281c1.671875 0 3.148437.640625 4.308593 1.894532 1.191407 1.226562 1.789063 2.746093 1.789063 4.46875 0 1.753906-.625 3.273437-1.730469 4.558593l-.027344.027344-.03125.027344c-1.1875 1.230469-2.636718 1.898437-4.308593 1.898437h-11.796875v8.03125h10.492187c1.757813 0 3.316407.644532 4.566407 1.929688 1.191406 1.222656 1.84375 2.714844 1.84375 4.464844 0 1.722656-.625 3.242187-1.816407 4.46875-1.25 1.316406-2.835937 1.898437-4.59375 1.898437h-10.40625zm100.804688-17.230469c5.726562 2.105469 8.816406 6.484376 8.816406 13.289063 0 4.671875-1.53125 8.730469-4.820313 11.972656-3.402343 3.328125-7.65625 4.703125-12.304687 4.703125h-15.765625c-1.902344 0-3.632812-.613281-5.019531-2.015625-1.390625-1.375-2.011719-3.152343-2.011719-5.140625v-40.589844c0-1.957031.621094-3.710937 2.011719-5.054687 1.359375-1.339844 3.003906-1.984375 4.875-1.984375h12.222656c4.367187 0 8.621094 1.023438 11.992187 4.03125 3.148438 2.832031 4.566407 6.539062 4.566407 10.832031 0 1.664063-.226563 3.300781-.765625 4.878907-.453125 1.285156-1.078125 2.570312-1.984375 3.5625-.507813.554687-1.132813 1.078124-1.8125 1.515624zm14.628906 1.726563c0-7.652344 2.128906-14.632813 7.316406-20.269531 5.046875-5.488282 11.425781-7.941406 18.742188-7.941406 7.316406 0 13.613281 2.542968 18.628906 8.03125 5.164063 5.664062 7.289063 12.644531 7.289063 20.355468 0 7.679688-2.183594 14.597656-7.289063 20.234375-5.019531 5.578125-11.339844 8.121094-18.683594 8.121094-7.316406 0-13.640625-2.542969-18.660156-8.03125-5.214844-5.667969-7.34375-12.734375-7.34375-20.5zm58.074219.757813c0-7.679688 2.152344-14.660157 7.316406-20.292969 5.046875-5.492188 11.425781-7.945313 18.769531-7.945313 7.285157 0 13.609375 2.542969 18.601563 8.03125 5.160156 5.664063 7.316406 12.644532 7.316406 20.355469 0 7.679687-2.183594 14.601563-7.316406 20.234375-4.992188 5.578125-11.34375 8.121094-18.6875 8.121094-7.316406 0-13.609375-2.542969-18.65625-8.03125-5.191406-5.667969-7.34375-12.734375-7.34375-20.472656zm74.429687 5.578124v15.476563c0 1.898437-.679687 3.5625-1.925781 4.933594-1.304688 1.433593-2.921875 2.164062-4.820312 2.164062-1.84375 0-3.433594-.730469-4.734376-2.046875-1.390624-1.371094-2.097656-3.09375-2.097656-5.050781v-42.050781c0-1.898438.707032-3.503906 2.011719-4.816406 1.332031-1.375 2.949219-2.074219 4.820313-2.074219 1.84375 0 3.457031.730469 4.761718 2.074219 1.304688 1.339843 1.988282 2.976562 1.988282 4.875v12.703124l15.59375-16.996093c1.386718-1.488281 3.089843-2.570313 5.132812-2.570313 1.839844 0 3.429688.671875 4.734375 2.015625 1.273437 1.34375 1.957031 2.980469 1.957031 4.847657 0 1.898437-.738281 3.5625-1.984375 4.964843l-14.234375 14.367188 16.585938 17.929687c1.191406 1.34375 1.902344 2.917969 1.902344 4.730469 0 1.898437-.625 3.621094-1.929688 4.992187-1.277344 1.375-2.890625 2.015626-4.765625 2.015626-2.097656 0-3.882813-1.019532-5.328125-2.570313zm-164.65625-20.355468v8.089844h4.394531c1.191407 0 2.210938-.378907 3.117188-1.195313.824219-.761719 1.277344-1.667969 1.277344-2.804687 0-1.140626-.425782-2.042969-1.21875-2.863282-.851563-.84375-1.84375-1.226562-3.035156-1.226562zm-.085937 20.414062v9.34375h7.882812c1.332032 0 2.4375-.4375 3.402344-1.371094.878906-.875 1.359375-1.898437 1.359375-3.15625 0-1.339843-.453125-2.453124-1.386719-3.414062-.90625-.933594-1.984375-1.402344-3.289062-1.402344zm58.242187-21.875c-3.515625 0-6.351562 1.402344-8.5625 4.179688-2.582031 3.238281-3.433593 7.300781-3.433593 11.386718 0 4.117188.796874 8.351563 3.320312 11.652344 2.210938 2.863282 5.101562 4.207032 8.675781 4.207032 3.542969 0 6.40625-1.375 8.621094-4.234376 2.523437-3.300781 3.371094-7.359374 3.371094-11.476562 0-4.089844-.820313-8.234375-3.34375-11.507812-2.210938-2.859376-5.105469-4.207032-8.648438-4.207032zm58.070313.730469c-3.515625 0-6.324219 1.402344-8.5625 4.207031-2.578125 3.210938-3.429688 7.269532-3.429688 11.359375 0 4.117188.792969 8.351563 3.34375 11.652344 2.214844 2.863281 5.105469 4.203125 8.648438 4.203125 3.542968 0 6.410156-1.371094 8.621094-4.234375 2.523437-3.296875 3.375-7.355469 3.375-11.472656 0-4.089844-.824219-8.238281-3.320313-11.507813-2.238281-2.863281-5.132813-4.207031-8.675781-4.207031zm0 0"/><path d="m211.445312 138.214844h9.160157c3.34375 0 6.09375 2.832031 6.09375 6.304687 0 3.449219-2.75 6.28125-6.09375 6.28125h-9.160157c-3.347656 0-6.097656-2.835937-6.097656-6.28125 0-3.472656 2.75-6.304687 6.097656-6.304687zm0 0"/></g></g></svg>