<svg enable-background="new 0 0 512 512" height="512" viewBox="0 0 512 512" width="512" xmlns="http://www.w3.org/2000/svg"><g id="_x30_6_Tangerine"><g><ellipse cx="287.893" cy="298.039" fill="#ffa425" rx="221.367" ry="194.513"/><g opacity=".4"><path d="m188.477 456.502c-9.731-4.642-19.101-9.96-27.849-15.81-3.749-2.51-4.757-7.58-2.249-11.332 2.507-3.752 7.578-4.757 11.332-2.249 8.096 5.416 16.775 10.343 25.796 14.645 4.073 1.944 5.799 6.817 3.858 10.888-1.928 4.043-6.785 5.813-10.888 3.858z" fill="#fff"/></g><path d="m509.269 298.022c0 107.437-99.106 194.508-221.354 194.508-5.663 0-11.326-.164-16.88-.544 114.298-7.678 204.31-91.536 204.31-193.964s-90.012-186.286-204.31-193.964c5.554-.381 11.217-.544 16.88-.544 122.248-.001 221.354 87.071 221.354 194.508z" opacity=".08"/><path d="m67.224 263.548c47.055-20.247 119.299-33.335 150.563-117.022 6.01-16.087 9.465-33.126 10.197-50.284-56.226-.178-111.277 15.861-155.511 50.571-46.205 36.258-53.076 66.055-59.903 102.128-3.98 21.029-7.216 36.764-9.696 48.176-1.229 5.657 5.764 9.236 9.695 4.987 11.387-12.312 29.271-27.634 54.655-38.556z" fill="#0bad67"/><g><path d="m181.277 130.768c37.75-23.441 70.795-39.03 79.37-83.557l-6.273-1.21c-8.089 42.01-39.512 56.331-76.464 79.348z" fill="#0bad67"/></g><g><path d="m260.847 143.521c0 7.805 12.595 14.102 28.15 14.102s28.15-6.297 28.15-14.102c0-7.858-12.595-14.156-28.15-14.156s-28.15 6.297-28.15 14.156z" fill="#0bad67"/><path d="m292.822 144.008c10.049-52.228-3.173-106.904-54.517-123.441l-.756-.244c-9.508-3.062-19.698 2.163-22.761 11.671-3.062 9.508 2.163 19.698 11.671 22.761 4.854 1.564 14.859.468 26.744 8.622 22.644 15.571 31.536 52.639 32.305 79.831l.006.207c.057 2.036 1.755 3.64 3.791 3.582 1.761-.049 3.198-1.327 3.517-2.989z" fill="#13bd79"/></g></g></g></svg>