<svg id="Capa_1" enable-background="new 0 0 512 512" height="512" viewBox="0 0 512 512" width="512" xmlns="http://www.w3.org/2000/svg"><g><path d="m406 512h-165c-33.091 0-60-26.909-60-60v-15c0-8.291 6.709-15 15-15s15 6.709 15 15v15c0 16.538 13.462 30 30 30h165c8.291 0 15 6.709 15 15s-6.709 15-15 15z" fill="#474f54"/><path d="m256 121c8.291 0 15-6.709 15-15v-91c0-8.291-6.709-15-15-15h-75c-58.462 0-90 116.928-90 226s31.538 226 90 226h75c8.291 0 15-6.709 15-15v-91c0-8.291-6.709-15-15-15h-62.988c-6.021-22.793-12.012-57.422-12.012-105s5.991-82.207 12.012-105z" fill="#575f64"/><path d="m181 452h75c8.291 0 15-6.709 15-15v-91c0-8.291-6.709-15-15-15h-62.988c-6.021-22.793-12.012-57.422-12.012-105h-90c0 109.072 31.538 226 90 226z" fill="#474f54"/><path d="m406 151h-150c-8.291 0-15 6.709-15 15v60 60c0 6.064 3.647 11.543 9.258 13.857 5.533 2.309 12.023 1.073 16.348-3.252l25.605-25.605h113.789c8.291 0 15-6.709 15-15v-30-60c0-8.291-6.709-15-15-15z" fill="#3aaaff"/><path d="m250.258 299.857c5.533 2.309 12.023 1.073 16.348-3.252l25.605-25.605h113.789c8.291 0 15-6.709 15-15v-30h-180v60c0 6.064 3.647 11.543 9.258 13.857z" fill="#6b77e8"/></g></svg>