<svg height="512" viewBox="0 0 58 58" width="512" xmlns="http://www.w3.org/2000/svg"><g id="Page-1" fill="none" fill-rule="evenodd"><g id="006---Phone" transform="translate(-1)"><path id="Path" d="m47.372 52.662c-4.99 4.99-12.506 6.239-19.466 4.748-6.789-1.476-11.48-5.549-16.123-10.192s-8.709-9.303-10.191-16.118c-1.482-6.815-.302-14.421 4.747-19.47 1.04035998-1.0409855 2.45176641-1.6258577 3.9235-1.6258577 1.4717336 0 2.88314.5848722 3.9235 1.6258577l5.281 5.281c1.0424595 1.0395767 1.6283502 2.4512767 1.6283502 3.9235s-.5858907 2.8839233-1.6283502 3.9235l-3.667 3.668c-.8010072.7929929-.9137837 2.047896-.267 2.971 1.6763184 2.316958 3.5234633 4.5053868 5.526 6.547 2.0396435 2.0020515 4.2260665 3.848862 6.541 5.525.9231924.6477778 2.1790493.5349535 2.972-.267l3.668-3.668c1.0398382-1.0419677 2.4514402-1.6275183 3.9235-1.6275183s2.8836618.5855506 3.9235 1.6275183l5.281 5.282c1.0429291 1.0388742 1.6295148 2.45011 1.6302653 3.9221699.0007504 1.4720598-.584396 2.883893-1.6262653 3.9238301z" fill="#3b97d3"/><path id="Path" d="m7.807 37.583c-.37421629.0002109-.71723475-.2085326-.889-.541-3.173-6.129-3.796-12.985-1.668-18.342.13200963-.3320784.43115326-.5685051.78474639-.6202206.35359312-.0517155.70791653.0891371.92950001.3695.22158349.2803629.27676325.6576422.1447536.9897206-1.918 4.826-1.325 11.061 1.584 16.685.15996169.3096179.14719594.6801818-.03369363.9780575s-.50380923.480094-.85230637.4809425z" fill="#fff"/><path id="Path" d="m38.4 2.257 1.19-1.808c.1851923-.28047915.4988977-.44916626.835-.449h3.15c.3361023-.00016626.6498077.16852085.835.449l1.19 1.808 4.273 1.77 2.127-.434c.3291426-.06764578.6702554.03453778.908.272l2.228 2.228c.236772.23772554.3385457.57834824.271.907l-.434 2.122 1.77 4.273 1.808 1.194c.2804792.1851923.4491663.4988977.449.835v3.15c.0001663.3361023-.1685208.6498077-.449.835l-1.808 1.191-1.77 4.273.434 2.127c.0676458.3291426-.0345378.6702554-.272.908l-2.228 2.228c-.2377446.2374622-.5788574.3396458-.908.272l-2.122-.434-4.277 1.769-1.19 1.808c-.1851923.2804792-.4988977.4491663-.835.449h-3.15c-.3361023.0001663-.6498077-.1685208-.835-.449l-1.19-1.808-4.273-1.77-2.127.434c-.3291426.0676458-.6702554-.0345378-.908-.272l-2.228-2.228c-.236772-.2377255-.3385457-.5783482-.271-.907l.434-2.122-1.77-4.278-1.808-1.19c-.2804792-.1851923-.4491663-.4988977-.449-.835v-3.15c-.0001663-.3361023.1685208-.6498077.449-.835l1.808-1.19 1.77-4.273-.434-2.127c-.0676458-.3291426.0345378-.67025539.272-.908l2.228-2.228c.2377255-.23677196.5783482-.33854566.907-.271l2.122.434z" fill="#bdc3c7"/><circle id="Oval" cx="42" cy="17" fill="#7f8c8d" r="10"/><circle id="Oval" cx="8" cy="16" fill="#fff" r="1"/></g></g></svg>