<?xml version="1.0" encoding="iso-8859-1"?>
<!-- Generator: Adobe Illustrator 19.0.0, SVG Export Plug-In . SVG Version: 6.00 Build 0)  -->
<svg version="1.1" id="Capa_1" xmlns="http://www.w3.org/2000/svg" xmlns:xlink="http://www.w3.org/1999/xlink" x="0px" y="0px"
	 viewBox="0 0 468.293 468.293" style="enable-background:new 0 0 468.293 468.293;" xml:space="preserve">
<path style="fill:#E0E5E8;" d="M390.244,0H78.049c-6.897,0-12.488,5.591-12.488,12.488V395.55l72.742,72.742h251.941
	c6.897,0,12.488-5.591,12.488-12.488V12.488C402.732,5.591,397.141,0,390.244,0z"/>
<g>
	<rect x="96.78" y="29.977" style="fill:#D4D5DB;" width="274.732" height="12.488"/>
	<rect x="96.78" y="120.301" style="fill:#D4D5DB;" width="274.732" height="12.488"/>
</g>
<g>
	<path style="fill:#647989;" d="M160.195,55.533h8.841v52.375h-9.591l-29.671-38.213v38.213h-8.841V55.533h8.841l30.421,39.113
		V55.533z"/>
	<path style="fill:#647989;" d="M220.36,55.533v8.317h-27.945v13.863h25.098v7.866h-25.098v14.012h28.848v8.317h-37.689V55.533
		H220.36z"/>
	<path style="fill:#647989;" d="M248.909,93.222l11.689-37.689h7.939l11.689,37.689l13.189-37.689h9.512l-18.28,52.375h-8.768
		l-11.012-35.89h-0.598l-11.018,35.89h-8.762l-18.287-52.375h9.518L248.909,93.222z"/>
	<path style="fill:#647989;" d="M326.945,62.426c-2.573,0-4.683,0.524-6.329,1.573c-1.652,1.052-2.476,2.637-2.476,4.759
		c0,2.125,0.823,3.747,2.476,4.869c1.646,1.125,5.152,2.338,10.524,3.634c5.366,1.302,9.415,3.125,12.14,5.47
		c2.72,2.351,4.079,5.808,4.079,10.378s-1.72,8.28-5.171,11.128c-3.445,2.848-7.963,4.271-13.561,4.271
		c-8.189,0-15.457-2.823-21.799-8.466l5.543-6.671c5.293,4.598,10.787,6.893,16.482,6.893c2.848,0,5.11-0.61,6.78-1.835
		c1.677-1.223,2.512-2.848,2.512-4.869c0-2.024-0.787-3.598-2.36-4.723c-1.573-1.122-4.287-2.146-8.128-3.07
		c-3.848-0.924-6.774-1.774-8.768-2.549c-2-0.774-3.774-1.784-5.323-3.034c-3.098-2.348-4.64-5.945-4.64-10.79
		s1.756-8.579,5.28-11.201c3.518-2.622,7.878-3.933,13.073-3.933c3.348,0,6.671,0.549,9.963,1.646
		c3.299,1.101,6.146,2.649,8.543,4.646l-4.72,6.668c-1.549-1.396-3.646-2.546-6.293-3.445
		C332.128,62.877,329.518,62.426,326.945,62.426z"/>
	<rect x="85.292" y="154.037" style="fill:#647989;" width="87.789" height="103.505"/>
</g>
<g>
	<rect x="190.252" y="154.037" style="fill:#D4D5DB;" width="87.789" height="12.488"/>
	<rect x="190.252" y="184.382" style="fill:#D4D5DB;" width="87.789" height="12.488"/>
	<rect x="190.252" y="214.69" style="fill:#D4D5DB;" width="87.789" height="12.488"/>
	<rect x="190.252" y="245.029" style="fill:#D4D5DB;" width="87.789" height="12.488"/>
	<rect x="190.252" y="275.369" style="fill:#D4D5DB;" width="87.789" height="12.488"/>
	<rect x="190.252" y="305.701" style="fill:#D4D5DB;" width="87.789" height="12.488"/>
	<rect x="190.252" y="336.047" style="fill:#D4D5DB;" width="87.789" height="12.488"/>
	<rect x="190.252" y="366.392" style="fill:#D4D5DB;" width="87.789" height="12.488"/>
	<rect x="190.252" y="396.738" style="fill:#D4D5DB;" width="87.789" height="12.488"/>
	<rect x="190.252" y="427.07" style="fill:#D4D5DB;" width="87.789" height="12.488"/>
	<rect x="85.292" y="275.369" style="fill:#D4D5DB;" width="87.789" height="12.488"/>
	<rect x="85.292" y="305.701" style="fill:#D4D5DB;" width="87.789" height="12.488"/>
	<rect x="85.292" y="336.047" style="fill:#D4D5DB;" width="87.789" height="12.488"/>
	<rect x="85.292" y="366.392" style="fill:#D4D5DB;" width="87.789" height="12.488"/>
	<rect x="85.292" y="396.738" style="fill:#D4D5DB;" width="87.789" height="12.488"/>
	<rect x="118.235" y="427.07" style="fill:#D4D5DB;" width="54.859" height="12.488"/>
	<rect x="295.199" y="154.037" style="fill:#D4D5DB;" width="87.789" height="12.488"/>
	<rect x="295.199" y="184.382" style="fill:#D4D5DB;" width="87.789" height="12.488"/>
	<rect x="295.199" y="214.69" style="fill:#D4D5DB;" width="87.789" height="12.488"/>
	<rect x="295.199" y="245.029" style="fill:#D4D5DB;" width="87.789" height="12.488"/>
	<rect x="295.199" y="275.369" style="fill:#D4D5DB;" width="87.789" height="12.488"/>
	<rect x="295.199" y="305.701" style="fill:#D4D5DB;" width="87.789" height="12.488"/>
	<rect x="295.199" y="336.047" style="fill:#D4D5DB;" width="87.789" height="12.488"/>
	<rect x="295.199" y="366.392" style="fill:#D4D5DB;" width="87.789" height="12.488"/>
	<rect x="295.199" y="396.738" style="fill:#D4D5DB;" width="87.789" height="12.488"/>
	<rect x="295.199" y="427.07" style="fill:#D4D5DB;" width="87.789" height="12.488"/>
</g>
<polygon style="fill:#EBEFF2;" points="138.303,395.55 65.561,395.55 138.303,468.293 "/>
<g>
</g>
<g>
</g>
<g>
</g>
<g>
</g>
<g>
</g>
<g>
</g>
<g>
</g>
<g>
</g>
<g>
</g>
<g>
</g>
<g>
</g>
<g>
</g>
<g>
</g>
<g>
</g>
<g>
</g>
</svg>
