<svg id="color" enable-background="new 0 0 24 24" height="512" viewBox="0 0 24 24" width="512" xmlns="http://www.w3.org/2000/svg"><circle cx="8.989" cy="12" fill="#fafafa" r="9"/><g fill="#f44336"><path d="m8.989 21c-4.962 0-9-4.038-9-9s4.038-9 9-9 9 4.038 9 9-4.037 9-9 9zm0-16.5c-4.136 0-7.5 3.364-7.5 7.5s3.364 7.5 7.5 7.5 7.5-3.364 7.5-7.5-3.364-7.5-7.5-7.5z"/><path d="m8.989 17.5c-3.033 0-5.5-2.467-5.5-5.5s2.467-5.5 5.5-5.5 5.5 2.467 5.5 5.5-2.467 5.5-5.5 5.5zm0-9.5c-2.206 0-4 1.794-4 4s1.794 4 4 4 4-1.794 4-4-1.794-4-4-4z"/><path d="m8.989 14c-1.103 0-2-.897-2-2s.897-2 2-2 2 .897 2 2-.897 2-2 2zm0-2.5c-.276 0-.5.224-.5.5s.224.5.5.5.5-.224.5-.5-.224-.5-.5-.5z"/></g><path d="m9 12.75c-.192 0-.384-.073-.53-.22-.293-.293-.293-.768 0-1.061l6.5-6.5c.293-.293.768-.293 1.061 0s.293.768 0 1.061l-6.5 6.5c-.147.147-.339.22-.531.22z" fill="#607d8b"/><path d="m18.25 6h-2.5c-.414 0-.75-.336-.75-.75v-2.5c0-.199.079-.39.22-.53l2-2c.215-.214.538-.279.817-.163.28.116.463.39.463.693v1.75h1.75c.303 0 .577.183.693.463s.052.603-.163.817l-2 2c-.14.141-.331.22-.53.22z" fill="#2196f3"/><path d="m17.5 24c-3.584 0-6.5-2.916-6.5-6.5s2.916-6.5 6.5-6.5 6.5 2.916 6.5 6.5-2.916 6.5-6.5 6.5z" fill="#2196f3"/><path d="m16.5 20c-.173 0-.347-.06-.488-.181l-1.75-1.5c-.314-.27-.351-.743-.081-1.058s.742-.352 1.058-.081l1.203 1.031 2.758-2.971c.282-.304.756-.321 1.06-.04.304.282.321.757.04 1.06l-3.25 3.5c-.148.159-.349.24-.55.24z" fill="#fafafa"/></svg>