<?xml version="1.0" encoding="iso-8859-1"?>
<!-- Generator: Adobe Illustrator 19.0.0, SVG Export Plug-In . SVG Version: 6.00 Build 0)  -->
<svg version="1.1" id="Layer_1" xmlns="http://www.w3.org/2000/svg" xmlns:xlink="http://www.w3.org/1999/xlink" x="0px" y="0px"
	 viewBox="0 0 512 512" style="enable-background:new 0 0 512 512;" xml:space="preserve">
<path style="fill:#D7EBFF;" d="M339.478,0c-34.82,0-65.52,17.882-83.478,44.924C238.042,17.882,207.342,0,172.522,0
	c-36.826,0-66.783,29.956-66.783,66.783s29.956,66.783,66.783,66.783h166.957c36.826,0,66.783-29.956,66.783-66.783
	S376.304,0,339.478,0z M139.13,66.783c0-18.413,14.978-33.391,33.391-33.391c36.826,0,66.783,29.956,66.783,66.783h-66.783
	C154.109,100.174,139.13,85.196,139.13,66.783z M339.478,100.174h-66.783c0-36.826,29.956-66.783,66.783-66.783
	c18.413,0,33.391,14.978,33.391,33.391S357.891,100.174,339.478,100.174z"/>
<path style="fill:#BDDEFF;" d="M339.478,133.565c36.826,0,66.783-29.956,66.783-66.783S376.304,0,339.478,0
	c-34.82,0-65.52,17.882-83.478,44.924v88.642H339.478z M339.478,33.391c18.413,0,33.391,14.978,33.391,33.391
	s-14.978,33.391-33.391,33.391h-66.783C272.696,63.348,302.652,33.391,339.478,33.391z"/>
<path style="fill:#38C3E0;" d="M422.957,512H89.043c-27.619,0-50.087-22.468-50.087-50.087V228.174
	c0-9.217,7.473-16.696,16.696-16.696h400.696c9.217,0,16.696,7.479,16.696,16.696v233.739C473.043,489.532,450.576,512,422.957,512z
	"/>
<path style="fill:#37AFCC;" d="M456.348,211.478H256V512h166.957c27.619,0,50.087-22.468,50.087-50.087V228.174
	C473.043,218.957,465.565,211.478,456.348,211.478z"/>
<path style="fill:#FFC033;" d="M489.739,244.87H22.261c-9.223,0-16.696-7.479-16.696-16.696v-77.913
	c0-27.619,22.468-50.087,50.087-50.087h400.696c27.619,0,50.087,22.468,50.087,50.087v77.913
	C506.435,237.391,498.956,244.87,489.739,244.87z"/>
<path style="fill:#F9A926;" d="M456.348,100.174H256V244.87h233.739c9.217,0,16.696-7.479,16.696-16.696v-77.913
	C506.435,122.642,483.967,100.174,456.348,100.174z"/>
<rect x="205.913" y="100.174" style="fill:#D7EBFF;" width="100.174" height="411.826"/>
<rect x="256" y="100.174" style="fill:#BDDEFF;" width="50.087" height="411.826"/>
<g>
</g>
<g>
</g>
<g>
</g>
<g>
</g>
<g>
</g>
<g>
</g>
<g>
</g>
<g>
</g>
<g>
</g>
<g>
</g>
<g>
</g>
<g>
</g>
<g>
</g>
<g>
</g>
<g>
</g>
</svg>
