<svg height="512" viewBox="0 0 48 48" width="512" xmlns="http://www.w3.org/2000/svg"><g id="clipboard"><path d="m6 1h36v46h-36z" fill="#a87e6b"/><path d="m42 1v44h-30a4 4 0 0 1 -4-4v-40z" fill="#be927c"/><path d="m38 5v30l-8 8h-20v-38z" fill="#dad7e5"/><path d="m38 5v30l-6 6h-14a6 6 0 0 1 -6-6v-30z" fill="#edebf2"/><path d="m16 1h16v4h-16z" fill="#fc6"/><path d="m32 1v2h-12a2 2 0 0 1 -2-2z" fill="#ffde76"/><path d="m31 5v2a3 3 0 0 1 -3 3h-8a3 3 0 0 1 -3-3v-2h2v2a1 1 0 0 0 1 1h8a1 1 0 0 0 1-1v-2z" fill="#919191"/><g fill="#c6c3d8"><path d="m38 35-8 8v-8z"/><path d="m33 20h-18a1 1 0 0 1 0-2h18a1 1 0 0 1 0 2z"/><path d="m33 15h-18a1 1 0 0 1 0-2h18a1 1 0 0 1 0 2z"/><path d="m33 25h-18a1 1 0 0 1 0-2h18a1 1 0 0 1 0 2z"/><path d="m33 30h-18a1 1 0 0 1 0-2h18a1 1 0 0 1 0 2z"/><path d="m24 35h-9a1 1 0 0 1 0-2h9a1 1 0 0 1 0 2z"/></g></g></svg>