<svg height="512pt" viewBox="0 -79 512 511" width="512pt" xmlns="http://www.w3.org/2000/svg"><path d="m0 .5v352.664062l217.589844-176.332031zm0 0" fill="#e1bb78"/><path d="m512 .5-217.585938 176.332031 217.585938 176.332031zm0 0" fill="#c78f2c"/><path d="m334.445312 176.832031-98.460937 57.886719 20.015625 118.445312h256zm0 0" fill="#e1bb78"/><path d="m256 224.710938-78.445312-47.878907-177.554688 176.332031h256zm0 0" fill="#edd7b0"/><path d="m256 .5-20.015625 114 20.015625 140.234375 256-254.234375zm0 0" fill="#edd7b0"/><path d="m0 .5 256 254.234375v-254.234375zm0 0" fill="#f7ecd9"/><path d="m339.636719 49.285156h-83.636719l-10.007812 15 10.007812 15h83.636719zm0 0" fill="#c78f2c"/><path d="m172.363281 49.285156h83.636719v30h-83.636719zm0 0" fill="#e1bb78"/></svg>