<?xml version="1.0" encoding="iso-8859-1"?>
<!-- Generator: Adobe Illustrator 19.0.0, SVG Export Plug-In . SVG Version: 6.00 Build 0)  -->
<svg version="1.1" id="Capa_1" xmlns="http://www.w3.org/2000/svg" xmlns:xlink="http://www.w3.org/1999/xlink" x="0px" y="0px"
	 viewBox="0 0 512 512" style="enable-background:new 0 0 512 512;" xml:space="preserve">
<g>
	
		<rect x="167.248" y="36.789" transform="matrix(-0.866 0.5 -0.5 -0.866 384.7189 67.6391)" style="fill:#FFA900;" width="32.099" height="97.148"/>
	
		<rect x="105.85" y="129.043" transform="matrix(-0.866 -0.5 0.5 -0.866 191.2779 341.44)" style="fill:#FFA900;" width="71.068" height="32.099"/>
	<rect x="62.04" y="195.223" style="fill:#FFA900;" width="97.15" height="32.1"/>
</g>
<g>
	
		<rect x="335.098" y="129.052" transform="matrix(0.866 -0.5 0.5 0.866 -22.895 204.7612)" style="fill:#FF8800;" width="71.068" height="32.099"/>
	<rect x="352.81" y="195.223" style="fill:#FF8800;" width="97.15" height="32.1"/>
</g>
<rect x="239.95" y="43.393" style="fill:#FFA900;" width="32.1" height="71.07"/>
<g>
	<rect x="256" y="43.393" style="fill:#FF8800;" width="16.05" height="71.07"/>
	
		<rect x="312.626" y="36.784" transform="matrix(-0.866 -0.5 0.5 -0.866 570.6356 323.6221)" style="fill:#FF8800;" width="32.099" height="97.148"/>
</g>
<path style="fill:#FFDB0C;" d="M364.629,211.272c0-59.994-48.635-108.629-108.629-108.629s-108.629,48.635-108.629,108.629
	c0,23.335,7.36,44.95,19.882,62.654h177.494C357.269,256.222,364.629,234.607,364.629,211.272z"/>
<path style="fill:#FBBF00;" d="M364.629,211.272c0-59.994-48.635-108.629-108.629-108.629c0,42.455,0,171.284,0,171.284h88.747
	C357.269,256.222,364.629,234.607,364.629,211.272z"/>
<rect x="85.42" y="321.533" style="fill:#08B7FC;" width="341.17" height="30"/>
<rect x="256" y="321.533" style="fill:#006DFF;" width="170.58" height="30"/>
<rect x="160.65" y="384.133" style="fill:#08B7FC;" width="190.71" height="30"/>
<rect x="256" y="384.133" style="fill:#006DFF;" width="95.35" height="30"/>
<rect x="229.26" y="446.733" style="fill:#08B7FC;" width="53.48" height="30"/>
<rect x="256" y="446.733" style="fill:#006DFF;" width="26.74" height="30"/>
<rect y="258.923" style="fill:#08B7FC;" width="512" height="30"/>
<rect x="256" y="258.923" style="fill:#006DFF;" width="256" height="30"/>
<g>
</g>
<g>
</g>
<g>
</g>
<g>
</g>
<g>
</g>
<g>
</g>
<g>
</g>
<g>
</g>
<g>
</g>
<g>
</g>
<g>
</g>
<g>
</g>
<g>
</g>
<g>
</g>
<g>
</g>
</svg>
