<svg id="Capa_1" enable-background="new 0 0 497 497" height="512" viewBox="0 0 497 497" width="512" xmlns="http://www.w3.org/2000/svg"><g><path d="m435.965 194.266v155.36c0 16.507-13.382 29.889-29.889 29.889h-73.819l-12.947-18.959 12.947-16.345h57.545c5.997 0 10.858-4.861 10.858-10.858v-122.814c0-5.997-4.861-10.858-10.858-10.858h-57.545l-12.947-19.515 12.947-15.79h73.819c16.507 0 29.889 13.382 29.889 29.89z" fill="#d8ecfe"/><path d="m435.96 194.27v155.36c0 16.5-13.38 29.89-29.88 29.89h-17.5c16.5 0 29.88-13.39 29.88-29.89v-155.36c0-16.51-13.38-29.89-29.88-29.89h17.5c16.5 0 29.88 13.38 29.88 29.89z" fill="#b3dafe"/><path d="m346.599 469.344v20.983c0 3.686-2.988 6.673-6.673 6.673h-260.266c-3.686 0-6.673-2.988-6.673-6.673v-20.928c0-2.895 1.896-5.376 4.622-6.35 5.572-1.989 9.72-7.233 9.72-13.49v-344.042l122.003-13.351 122.924 13.351v344.042c0 6.31 4.175 11.441 9.752 13.446 2.714.976 4.591 3.456 4.591 6.339z" fill="#d8ecfe"/><path d="m346.6 469.34v20.99c0 3.68-2.99 6.67-6.67 6.67h-12.96c3.69 0 6.68-2.99 6.68-6.67v-20.99c0-2.88-1.88-5.36-4.59-6.33-5.58-2.01-9.75-7.14-9.75-13.45v-344.04l6.69-3.664 6.26 3.664v344.04c0 6.31 4.17 11.44 9.75 13.45 2.71.97 4.59 3.45 4.59 6.33z" fill="#b3dafe"/><path d="m298.583 433.925h-177.58c-3.87 0-7.008-3.138-7.008-7.008v-321.397l95.337-13.353 96.259 13.353v321.397c0 3.87-3.137 7.008-7.008 7.008z" fill="#ffd15b"/><path d="m305.59 105.524v321.397c0 3.87-3.138 7.008-7.008 7.008h-21.582c3.228-1.645 5.26-4.961 5.26-8.584v-319.821l11.24-7.524z" fill="#ffc344"/><g fill="#fef0ae"><circle cx="165.024" cy="203.711" r="13.791"/><circle cx="255.183" cy="287.468" r="13.791"/><circle cx="222.427" cy="360.556" r="18.964"/><path d="m357.629 74.736v2.714c0 15.501-12.566 28.067-28.067 28.067h-27.792c-12.869 0-23.301 10.432-23.301 23.301v14.354c0 8.793-3.564 16.759-9.334 22.518-5.927 5.938-14.191 9.54-23.29 9.325-17.4-.412-31.091-15.089-31.091-32.494v-3.009c0-3.905-2.638-7.318-6.417-8.301l-.3-.078c-2.417-.629-4.966-.089-6.979 1.389-5.538 4.068-12.378 6.459-19.766 6.459-12.843 0-23.987-7.228-29.602-17.832-5.018-9.476-14.617-15.63-25.34-15.63h-39.024v85.041c0 7.348-6.013 13.283-13.394 13.151-7.237-.132-12.897-6.344-12.897-13.581v-80.74c0-34.633 28.076-62.708 62.708-62.708 1.759 0 3.29-1.188 3.735-2.89 6.59-25.202 29.493-43.792 56.749-43.792 19.199 0 36.228 9.228 46.928 23.487 1.304 1.738 3.798 2.011 5.515.68 7.373-5.715 16.626-9.118 26.672-9.118 18.719 0 34.673 11.802 40.863 28.372.725 1.94 2.534 3.259 4.605 3.259h20.762c15.496 0 28.057 12.561 28.057 28.056z"/></g><path d="m277.1 105.52h24.67c-12.87 0-23.3 10.43-23.3 23.3v14.35c0 8.8-3.56 16.76-9.33 22.52-5.93 5.94-14.2 9.54-23.29 9.32-4.08-.1-7.95-.98-11.49-2.49 3.8-1.62 7.22-3.95 10.1-6.83 5.77-5.76 9.33-13.72 9.33-22.52v-14.35c0-12.87 10.44-23.3 23.31-23.3z" fill="#fee97d"/><path d="m357.63 74.74v2.71c0 15.5-12.57 28.07-28.07 28.07h-24.67c15.5 0 28.07-12.57 28.07-28.07v-2.71c0-15.5-12.57-28.06-28.06-28.06h-20.76c-2.07 0-3.88-1.32-4.61-3.26-4.77-12.78-15.35-22.72-28.53-26.59 3.92-1.16 8.06-1.78 12.34-1.78 18.72 0 34.68 11.8 40.87 28.37.72 1.94 2.53 3.26 4.6 3.26h20.76c15.5 0 28.06 12.56 28.06 28.06z" fill="#fee97d"/><circle cx="168.167" cy="277" fill="#fef0ae" r="7.5"/><circle cx="253.182" cy="223.568" fill="#fef0ae" r="7.5"/></g></svg>