<?xml version="1.0" encoding="iso-8859-1"?>
<!-- Generator: Adobe Illustrator 19.0.0, SVG Export Plug-In . SVG Version: 6.00 Build 0)  -->
<svg version="1.1" id="Layer_1" xmlns="http://www.w3.org/2000/svg" xmlns:xlink="http://www.w3.org/1999/xlink" x="0px" y="0px"
	 viewBox="0 0 508.017 508.017" style="enable-background:new 0 0 508.017 508.017;" xml:space="preserve">
<path style="fill:#FFD15C;" d="M21.209,140.417c-11.7,0-21.2,9.5-21.2,21.2v140.4c0,11.7,9.5,21.2,21.2,21.2h4.1v-182.8H21.209z"/>
<path style="fill:#40596B;" d="M46.509,113.517c-11.7,0-21.2,9.5-21.2,21.2v194.1c0,11.7,9.5,21.2,21.2,21.2h169.9v-236.5H46.509z"
	/>
<path style="fill:#CDD6E0;" d="M191.109,446.717l-17.3-96.7h-106l20.5,115c4.4,24.9,26.1,43,51.4,43
	C172.209,508.017,196.809,478.717,191.109,446.717z"/>
<path style="fill:#F8B64C;" d="M177.909,372.717l9.6,53.9c7.7-5.5,12.7-14.5,12.7-24.6
	C200.209,388.017,190.809,376.317,177.909,372.717z"/>
<path style="fill:#F2F2F2;" d="M428.309,3.017l-211.9,110.5v236.4l211.9,110.5c22.5,10.1,48-6.3,48-31v-395.4
	C476.209,9.417,450.809-7.083,428.309,3.017z"/>
<path style="fill:#FFD15C;" d="M428.309,3.017l-13.3,6v445.4l13.3,6c22.5,10.1,48-6.3,48-31v-395.4
	C476.209,9.417,450.809-7.083,428.309,3.017z"/>
<path style="fill:#FF7058;" d="M476.209,161.917v139.6c19.4-17,31.8-42,31.8-69.8S495.709,178.917,476.209,161.917z"/>
<g>
</g>
<g>
</g>
<g>
</g>
<g>
</g>
<g>
</g>
<g>
</g>
<g>
</g>
<g>
</g>
<g>
</g>
<g>
</g>
<g>
</g>
<g>
</g>
<g>
</g>
<g>
</g>
<g>
</g>
</svg>
