<?xml version="1.0" encoding="iso-8859-1"?>
<!-- Generator: Adobe Illustrator 19.0.0, SVG Export Plug-In . SVG Version: 6.00 Build 0)  -->
<svg version="1.1" id="Capa_1" xmlns="http://www.w3.org/2000/svg" xmlns:xlink="http://www.w3.org/1999/xlink" x="0px" y="0px"
	 viewBox="0 0 468.293 468.293" style="enable-background:new 0 0 468.293 468.293;" xml:space="preserve">
<path style="fill:#64798A;" d="M427.302,179.527l-0.36-11.161c-0.201-6.221-5.302-11.16-11.527-11.16H315.231v148.431h46.133
	c4.06,0,8.048-1.072,11.561-3.106l0.004-0.002C422.752,273.652,428.378,213.072,427.302,179.527z M354.468,282.572h-16.173V180.271
	h54.439c6.487,0,11.722,5.318,11.545,11.803c-0.737,27.033-7.445,64.978-36.31,86.176
	C364.073,281.112,359.303,282.572,354.468,282.572z"/>
<path style="fill:#2D93BA;" d="M330.327,122.362H83.152c-5.463,0-9.891,4.428-9.891,9.891v240.679h266.957V132.253
	C340.218,126.79,335.79,122.362,330.327,122.362z"/>
<path style="fill:#27A2DB;" d="M73.261,372.931v0.123c0,5.937,1.245,11.829,3.9,17.14c8.927,17.861,37.791,50.803,129.579,53.475
	c91.788-2.672,120.651-35.615,129.578-53.475c2.655-5.31,3.9-11.203,3.9-17.14v-0.123H73.261z"/>
<g>
	<path style="fill:#64798A;" d="M328.302,468.293H85.176c-24.466,0-44.3-19.834-44.3-44.3v0h331.727v0
		C372.603,448.459,352.769,468.293,328.302,468.293z"/>
	<path style="fill:#64798A;" d="M166.937,103.759c-1.908,0-3.815-0.563-5.269-1.681c-2.883-2.233-2.864-5.832,0.043-8.043
		l0.599-0.459c7.944-6.088,7.944-16.019-0.019-22.125l-0.425-0.322c-13.919-10.676-13.919-27.824-0.174-38.362l0.599-0.459
		c3.854-2.959,5.979-6.887,5.979-11.068c0-4.184-2.125-8.113-5.979-11.072l-0.599-0.459c-2.898-2.222-2.898-5.821,0-8.043
		c2.898-2.222,7.592-2.222,10.49,0l0.599,0.459c6.66,5.106,10.325,11.894,10.325,19.114c0,7.217-3.666,14.004-10.325,19.111
		l-0.599,0.459c-7.959,6.102-7.959,16.037,0,22.14c0.024,0.015,0.58,0.444,0.599,0.459c6.66,5.106,10.325,11.894,10.325,19.114
		c0,7.221-3.666,14.008-10.325,19.114l-0.618,0.474C170.714,103.211,168.825,103.759,166.937,103.759z"/>
	<path style="fill:#64798A;" d="M206.421,103.759c-1.908,0-3.815-0.563-5.269-1.681c-2.883-2.233-2.864-5.832,0.043-8.043
		l0.599-0.459c7.944-6.088,7.944-16.019-0.019-22.125l-0.425-0.322c-13.918-10.676-13.918-27.824-0.174-38.362l0.599-0.459
		c3.854-2.959,5.979-6.887,5.979-11.068c0-4.184-2.125-8.113-5.979-11.072l-0.599-0.459c-2.898-2.222-2.898-5.821,0-8.043
		s7.592-2.222,10.49,0l0.599,0.459c6.66,5.106,10.325,11.894,10.325,19.114c0,7.217-3.666,14.004-10.325,19.111l-0.599,0.459
		c-7.959,6.102-7.959,16.037,0,22.14c0.024,0.015,0.58,0.444,0.599,0.459c6.66,5.106,10.325,11.894,10.325,19.114
		c0,7.221-3.666,14.008-10.325,19.114l-0.618,0.474C210.197,103.211,208.309,103.759,206.421,103.759z"/>
	<path style="fill:#64798A;" d="M245.904,103.759c-1.908,0-3.815-0.563-5.269-1.681c-2.883-2.233-2.864-5.832,0.043-8.043
		l0.599-0.459c7.944-6.088,7.944-16.019-0.019-22.125l-0.425-0.322c-13.919-10.676-13.919-27.824-0.174-38.362l0.599-0.459
		c3.854-2.959,5.979-6.887,5.979-11.068c0-4.184-2.125-8.113-5.979-11.072l-0.599-0.459c-2.898-2.222-2.898-5.821,0-8.043
		s7.592-2.222,10.49,0l0.599,0.459c6.66,5.106,10.325,11.894,10.325,19.114c0,7.217-3.666,14.004-10.325,19.111l-0.599,0.459
		c-7.959,6.102-7.959,16.037,0,22.14c0.024,0.015,0.58,0.444,0.599,0.459c6.66,5.106,10.325,11.894,10.325,19.114
		c0,7.221-3.666,14.008-10.325,19.114l-0.618,0.474C249.681,103.211,247.793,103.759,245.904,103.759z"/>
</g>
<g>
</g>
<g>
</g>
<g>
</g>
<g>
</g>
<g>
</g>
<g>
</g>
<g>
</g>
<g>
</g>
<g>
</g>
<g>
</g>
<g>
</g>
<g>
</g>
<g>
</g>
<g>
</g>
<g>
</g>
</svg>
