<svg id="Capa_1" enable-background="new 0 0 512 512" height="512" viewBox="0 0 512 512" width="512" xmlns="http://www.w3.org/2000/svg"><g><g><path d="m437.02 74.98c-48.35-48.35-112.64-74.98-181.02-74.98s-132.67 26.63-181.02 74.98-74.98 112.64-74.98 181.02 26.63 132.67 74.98 181.02 112.64 74.98 181.02 74.98 132.67-26.63 181.02-74.98 74.98-112.64 74.98-181.02-26.63-132.67-74.98-181.02zm-181.02 407.02c-124.62 0-226-101.38-226-226s101.38-226 226-226 226 101.38 226 226-101.38 226-226 226z" fill="#4d4d8c"/><path d="m512 256c0 68.38-26.63 132.67-74.98 181.02s-112.64 74.98-181.02 74.98v-30c124.62 0 226-101.38 226-226s-101.38-226-226-226v-30c68.38 0 132.67 26.63 181.02 74.98s74.98 112.64 74.98 181.02z" fill="#333373"/><g><path d="m33.109 411.413h104.956v30h-104.956z" fill="#ff7f3b" transform="matrix(.707 -.707 .707 .707 -276.452 185.413)"/><path d="m373.935 70.587h104.956v30h-104.956z" fill="#ff3044" transform="matrix(.707 -.707 .707 .707 64.374 326.587)"/><path d="m70.587 33.109h30v104.956h-30z" fill="#ff7f3b" transform="matrix(.707 -.707 .707 .707 -35.451 85.587)"/><path d="m411.413 373.935h30v104.956h-30z" fill="#ff3044" transform="matrix(.707 -.707 .707 .707 -176.626 426.413)"/></g></g><path d="m383.17 290.49c0 54.67-38.47 98.99-127.17 98.99s-127.17-44.32-127.17-98.99c0-41.64 21.88-58.03 21.41-113.53 0 0 16.11 6.95 28.9 17.82 29.2-58.46 76.86-94.52 76.86-94.52s47.66 36.06 76.86 94.52c12.79-10.87 28.9-17.82 28.9-17.82-.47 55.5 21.41 71.89 21.41 113.53z" fill="#ff7f3b"/><path d="m383.17 290.49c0 54.67-38.47 98.99-127.17 98.99v-289.22s47.66 36.06 76.86 94.52c12.79-10.87 28.9-17.82 28.9-17.82-.47 55.5 21.41 71.89 21.41 113.53z" fill="#ff3044"/><path d="m288.265 317.652-32.265 71.828c-35.64 0-64.53-28.89-64.53-64.53 0-52.75 64.53-91.56 64.53-91.56z" fill="#ffe652"/><path d="m320.53 324.95c0 35.64-28.89 64.53-64.53 64.53v-156.09s64.53 38.81 64.53 91.56z" fill="#f4c338"/></g></svg>