<svg id="Capa_1" enable-background="new 0 0 512 512" height="512" viewBox="0 0 512 512" width="512" xmlns="http://www.w3.org/2000/svg"><g><g><path d="m256 284.993 15.488 89.587-15.488 44.108-68.217-10c18.838 0 34.109-15.271 34.109-34.109v-89.587h34.108z" fill="#ff9f22"/><path d="m290.109 284.993v89.587c0 18.838 15.271 34.109 34.109 34.109l-68.217 10v-133.696z" fill="#ff7d45"/><g><path d="m407.625 223.282h-42.557v-30h31.389l62.492-54.014c-3.17-23.155-23.081-41.051-47.092-41.051h-34.108v-30h34.108c42.751 0 77.533 34.781 77.533 77.532v6.862z" fill="#ff7c48"/></g><g><path d="m146.936 223.282h-42.561l-81.765-70.671v-6.862c0-42.751 34.781-77.532 77.533-77.532h34.108v30h-34.108c-24.012 0-43.922 17.896-47.092 41.051l62.492 54.014h31.393z" fill="#ff9f22"/></g><path d="m333.14 164.445-77.14 130.548c-69.071 0-125.065-55.993-125.065-125.065v-154.928h125.065z" fill="#ffda44"/><path d="m256 15h125.065v154.928c0 69.071-55.993 125.065-125.065 125.065z" fill="#ff9f22"/><g><path d="m86.594 0h338.813v30h-338.813z" fill="#ff9f22"/></g><g><path d="m256 0h169.406v30h-169.406z" fill="#ff7c48"/></g><path d="m256 512h-111.02v-72.335c0-17.108 13.869-30.976 30.976-30.976h80.044l61.02 50.976z" fill="#69b1e9"/><path d="m256 408.688h80.043c17.108 0 30.976 13.869 30.976 30.976v72.336h-111.019z" fill="#2681ff"/></g><path d="m256 164.445h-15.488v-30.976h15.488l5.488 15.488z" fill="#ff9f22"/><path d="m256 133.469h15.488v30.976h-15.488z" fill="#ff7c48"/></g></svg>