<svg id="color" enable-background="new 0 0 24 24" height="512" viewBox="0 0 24 24" width="512" xmlns="http://www.w3.org/2000/svg"><path d="m21.25 0h-18.5c-1.517 0-2.75 1.233-2.75 2.75v18.5c0 1.517 1.233 2.75 2.75 2.75h18.5c1.517 0 2.75-1.233 2.75-2.75v-18.5c0-1.517-1.233-2.75-2.75-2.75z" fill="#eceff1"/><path d="m10 19.25c0 .965-.785 1.75-1.75 1.75h-3.5c-.965 0-1.75-.785-1.75-1.75v-3.5c0-.965.785-1.75 1.75-1.75h3.5c.965 0 1.75.785 1.75 1.75z" fill="#cfd8dc"/><path d="m10 9.047c0 .965-.785 1.75-1.75 1.75h-3.5c-.965 0-1.75-.785-1.75-1.75v-3.5c0-.965.785-1.75 1.75-1.75h3.5c.965 0 1.75.785 1.75 1.75z" fill="#cfd8dc"/><path d="m10.823 4.983-4.643 5.5c-.143.169-.353.267-.573.267s-.431-.098-.573-.267l-1.857-2.2c-.267-.316-.228-.789.09-1.056.316-.268.789-.226 1.057.09l1.284 1.521 4.069-4.82c.268-.317.74-.358 1.057-.09.317.266.356.739.089 1.055z" fill="#2196f3"/><g fill="#607d8b"><path d="m20.25 20.5h-6.5c-.414 0-.75-.336-.75-.75s.336-.75.75-.75h6.5c.414 0 .75.336.75.75s-.336.75-.75.75z"/><path d="m20.25 16.5h-6.5c-.414 0-.75-.336-.75-.75s.336-.75.75-.75h6.5c.414 0 .75.336.75.75s-.336.75-.75.75z"/><path d="m20.25 10.5h-6.5c-.414 0-.75-.336-.75-.75s.336-.75.75-.75h6.5c.414 0 .75.336.75.75s-.336.75-.75.75z"/><path d="m20.25 6.5h-6.5c-.414 0-.75-.336-.75-.75s.336-.75.75-.75h6.5c.414 0 .75.336.75.75s-.336.75-.75.75z"/></g></svg>