<svg id="Layer_1" enable-background="new 0 0 512 512" height="512" viewBox="0 0 512 512" width="512" xmlns="http://www.w3.org/2000/svg"><g><g><g><g><path d="m509.787 139.053-43.079 50.425c-4.407 5.159-12.658 3.901-15.377-2.328-7.472-17.112-21.619-44.866-37.262-51.744-24.793-10.903-48.172-.79-52.215 1.038l-38.999-33.606 23.058-34.988c1.574-2.388 1.081-5.595-1.157-7.374-7.613-6.053-17.382-12.512-29.442-17.84-26.123-11.542-51.834-12.308-69.092-10.901-3.692.301-5.452-4.501-2.436-6.66 24.783-17.736 48.092-22.453 58.952-23.965 72.702-10.118 130.167 51.959 138.213 63.202 4.377 6.116 11.041 16.758 23.991 29.442 11.637 11.397 31.232 24.301 42.724 31.475 4.78 2.984 5.783 9.537 2.121 13.824z" fill="#ebf4ff"/><g fill="#dae9fd"><path d="m507.666 125.229c-6.293-3.929-15.015-9.579-23.53-15.756-.086 1.974-.799 3.943-2.199 5.581l-42.029 49.196c4.611 8.008 8.522 16.255 11.423 22.9 2.72 6.229 10.97 7.486 15.377 2.328l43.079-50.425c3.662-4.287 2.659-10.84-2.121-13.824z"/><path d="m386.22 111.407c-24.793-10.903-48.172-.79-52.215 1.038l27.85 23.998c3.692-1.669 23.5-10.234 45.787-3.418-6.365-9.76-13.711-18.227-21.422-21.618z"/></g><path d="m17.58 499.796c21.941 18.907 55.179 15.44 72.754-7.588l271.52-355.765-38.999-33.606-308.863 323.586c-19.992 20.945-18.353 54.466 3.588 73.373z" fill="#ce9775"/><path d="m90.334 492.208 271.52-355.765-27.85-23.998-271.519 355.765c-13.632 17.861-36.685 23.945-56.583 16.957 2.864 5.406 6.756 10.387 11.678 14.629 21.941 18.907 55.18 15.44 72.754-7.588z" fill="#c6855b"/></g></g></g></g></svg>