<svg id="Capa_1" enable-background="new 0 0 512 512" height="512" viewBox="0 0 512 512" width="512" xmlns="http://www.w3.org/2000/svg"><g><path d="m511.222 141.834c0 8.277-6.71 14.977-14.977 14.977h-124.331c-4.591 0-13.133-7.628-13.839-9.246 0-.01 0-.01-.01-.02-2.091-5.152-1.128-3.378-1.128-132.568 0-8.267 6.709-14.977 14.977-14.977 8.277 0 14.977 6.71 14.977 14.977v90.882l77.622-77.073c5.815-5.761 15.246-5.851 21.178.08 5.831 5.871 5.801 15.347-.07 21.178l-77.362 76.813h87.986c8.267 0 14.977 6.71 14.977 14.977z" fill="#00da80"/><path d="m511.222 141.834c0 8.277-6.71 14.977-14.977 14.977h-124.331c-4.303 0-8.387-1.922-10.963-4.783l21.168-21.168 102.753-102.753c6.522 5.592 6.988 15.739.749 21.937l-77.362 76.813h87.986c8.267 0 14.977 6.71 14.977 14.977z" fill="#009859"/><g><g><path d="m403.606 287.372-105.638 78.752-21.113-3.317-3.17 21.419-151.091 112.637c-13.21 9.855-29.256 15.137-45.671 15.137-1.787 0-3.585-.06-5.372-.19-18.272-1.288-35.476-9.076-48.436-21.947-12.98-12.89-20.848-30.014-22.146-48.217-1.298-18.202 4.064-36.265 15.097-50.853l43.194-57.123 23.047 3.944-4.824-28.048 122.184-161.584 24.969 3.947-6.747-28.05 9.156-12.102c14.658-19.38 37.014-31.492 61.337-33.209 24.363-1.727 48.236 7.119 65.51 24.273l28.227 28.017 1.128 1.128 29.355 29.146c36.253 35.984 32.02 95.666-8.996 126.24z" fill="#e8a43e"/></g></g><g><path d="m280.194 206.845c-2.926 2.956-6.78 4.423-10.624 4.423-3.824 0-7.638-1.448-10.554-4.343l-59.35-58.94 18.222-24.103 62.225 61.786c5.872 5.83 5.912 15.306.081 21.177z" fill="#efe6ca"/></g><g><path d="m122.125 374.989c-5.811 5.87-15.319 5.899-21.178.08l-41.687-41.397 18.222-24.103 44.562 44.243c5.872 5.83 5.912 15.306.081 21.177z" fill="#efe6ca"/></g><path d="m403.606 287.372-105.639 78.75-21.112-3.315-3.171 21.417-151.09 112.638c-13.21 9.856-29.256 15.138-45.671 15.138-1.787 0-3.585-.06-5.372-.19-18.272-1.288-35.476-9.076-48.436-21.947l359.003-359.003 1.128 1.128 29.355 29.146c36.254 35.982 32.021 95.664-8.995 126.238z" fill="#e17b47"/><g><path d="m297.967 366.122-24.283 18.102-49.405-49.045c-5.871-5.831-5.901-15.317-.08-21.178 5.831-5.871 15.317-5.911 21.188-.08z" fill="#f0cfa3"/></g></g></svg>