<svg id="Layer_1" enable-background="new 0 0 512 512" height="512" viewBox="0 0 512 512" width="512" xmlns="http://www.w3.org/2000/svg"><g id="XMLID_1_"><g id="XMLID_3923_"><path id="XMLID_2024_" d="m348.8 34.4c-103.5 163.7 47.4 399.8 158.2 472.6h-502v-251l18.9-49.9 66.1-60.1 27.1-40 103.6-60.5 51.2-27.5z" fill="#4893cc"/><path id="XMLID_1770_" d="m192.1 72.8-6.7-6.6-68.3 39.8-27.1 40-66.1 60.1-18.9 49.9v251h351.7c-183.4-140.7-229.3-335-164.6-434.2z" fill="#3279af"/><path id="XMLID_1532_" d="m106 406h401c0 29.8-72.3 45-111.9 45s-268.1 0-268.1 0z" fill="#d84861"/><path id="XMLID_1769_" d="m88.4 183.3 1.6-37.3-66.1 60.1-18.9 49.9v251h191c-106-69.8-153.4-244.3-107.6-323.7z" fill="#275e87"/><g id="XMLID_1533_"><path id="XMLID_2060_" d="m277.1 137.3 18.7-4.1-14.5-13.1 7.8-4.9s-17.7-9.2-29.7-9.2-24 1.8-31.4 13.1-3.1 24-3.1 24l2.6 12.2z" fill="#275e87"/><path id="XMLID_1544_" d="m270.8 175s29.7-2.6 36.9 2.7c7.1 5.3 13.6 19.7 13.6 19.7l24.8 22.4 36.4 46.2s14.8 9.1 16.2 11.9c1.4 2.9 7.3 17.6 7.3 17.6l-13 6.4-12.9-7.9h-6l-5.9-18.7-37-37.3-27.4-10.9-7.3 10.9 14.8 35.8-63.3.2-24.3-36.9-15.1-9.4-22.3 27.5s-1.4 10.4-5.2 16.6-35.6 24.2-35.6 24.2l-6.9 13.3-15.6 5.7h-12.6l-4.4-5.5 9.6-3.4 16.6-13.4s23.3-31.8 28.5-38 14.7-10.9 14.7-10.9l11.9-29.1c-1.9-28.2 18.5-29.3 18.5-29.3l27-7.9" fill="#f6c9aa"/><path id="XMLID_1782_" d="m265 203.1s10.8-8.7 15.8-28.7c-5.7.2-9.9.6-9.9.6l-38 2.5-13.9 4.1 27.2 23.8z" fill="#f3ab7d"/><path id="XMLID_1545_" d="m260.2 128.2c12 0 16.9 9.2 16.9 9.2 0 35.1-13.6 51.6-13.6 51.6h-13.9l-16.9-11-2.3-11h-3.9s-10.8-14.6-6.6-20.7c6.4-9.3 10.8 5 10.8 5l9.6-19.5c-.1 0 10.2-3.6 19.9-3.6z" fill="#f6c9aa"/><g id="XMLID_1543_"><path id="XMLID_2236_" d="m245 144h10v8h-10z" fill="#275e87"/></g><g id="XMLID_1542_"><path id="XMLID_2235_" d="m264 144h10v8h-10z" fill="#275e87"/></g><g id="XMLID_1541_"><path id="XMLID_2234_" d="m264 177h-9.3c-.8 0-1.5-.2-2.2-.5l-6.4-3.1 4.3-9 5.3 2.6h8.1v10z" fill="#f3ab7d"/></g><g id="XMLID_1540_"><path id="XMLID_2142_" d="m274.4 236.2-4.9-8.7 15.9-9c1.1-.6 2.5-.8 3.7-.5l15.9 4.2-2.6 9.7-13.9-3.7z" fill="#f3ab7d"/></g><path id="XMLID_191_" d="m247.8 274-55.9 35.2c-5.1 3.2-8.6 8.5-9.4 14.5-1.1 7.2 1.8 14.4 7.4 19l51.6 42-31.3 6.3v15h70.9l-4-18.2-49-52.5 46-17.4 19.4 5.2 37.6-6.2v-26.9l-19.7-16z" fill="#f6c9aa"/><path id="XMLID_611_" d="m331 290v26.9l-37.6 6.1-19.4-5.1-45.9 17.4-29.2-30.6 48.9-30.7h63.5z" fill="#d84861"/><g id="XMLID_1534_"><path id="XMLID_1779_" d="m215.8 330.9h10v16.4h-10z" fill="#f3ab7d" transform="matrix(.463 .886 -.886 .463 418.996 -13.677)"/></g><path id="XMLID_1538_" d="m291.1 283.5c2.9-.9 6.1-.5 8.8 1.1l11.6 7c8.1 4.8 14.4 12.2 18 20.9l25.9 63.6 10.3 15.5v14.4h-57.9l1.3-15.1 26.6-8.5-47.8-68.2-4.2-17.8c-1.4-5.5 1.9-11.2 7.4-12.9z" fill="#f6c9aa"/></g><g fill="#cde9fe"><path id="XMLID_1530_" d="m196 61s72.6-56 135.2-56c51.3 0 74.8 16.7 74.8 36s-14.4 30-31.3 30-26-17.7-26-36.6c.1 0-93.9-21.2-152.7 26.6z"/><path id="XMLID_1531_" d="m5 256s12.6-110 85.5-110c36 0 51.5 22 51.5 44.5 0 26.3-53.6 40.8-53.6-7.2 0 0-57.6 5.7-83.4 72.7z"/><path id="XMLID_1527_" d="m90 146s50.3-105 114.5-105c29.5 0 41.5 17.4 41.5 37.9 0 30.7-53.9 31.5-53.9-6.1 0 0-73.8 27.7-102.1 73.2z"/></g><g id="XMLID_2068_"><path id="XMLID_2073_" d="m45 391h10v30h-10z" fill="#cde9fe"/></g><g id="XMLID_2065_"><path id="XMLID_2072_" d="m109 245h10v30h-10z" fill="#cde9fe"/></g><g id="XMLID_2063_"><path id="XMLID_2071_" d="m66 415h10v42h-10z" fill="#cde9fe"/></g></g></g></svg>