<svg id="Capa_1" enable-background="new 0 0 512 512" height="512" viewBox="0 0 512 512" width="512" xmlns="http://www.w3.org/2000/svg"><g><g><path d="m377.502 134.991c-3.479-3.479-8.86-4.187-13.121-1.727l-12.276 7.087c-6.028 3.48-12.608 5.823-19.398 7.355-5.275 1.19-10.259 3.99-14.17 8.401-8.302 9.365-8.885 23.37-1.698 33.378l6.005 6.048c10.487 7.66 25.279 6.755 34.749-2.715 3.697-3.697 6.088-8.204 7.174-12.949 1.579-6.898 3.969-13.585 7.508-19.713l6.953-12.044c2.461-4.261 1.753-9.643-1.726-13.121z" fill="#9bd069"/><path d="m392.282 218.221c-3.902-3.902-9.938-4.696-14.717-1.937l-13.769 7.95c-6.761 3.903-14.142 6.531-21.757 8.249-5.916 1.335-11.508 4.475-15.893 9.423-9.312 10.504-9.966 26.213-1.905 37.439l6.735 6.784c11.763 8.592 28.354 7.576 38.976-3.046 4.146-4.146 6.828-9.202 8.047-14.525 1.771-7.737 4.452-15.237 8.421-22.111l7.799-13.509c2.76-4.779 1.965-10.815-1.937-14.717z" fill="#9bd069"/><g fill="#aad880"><path d="m189.155 176.538 6.005-6.048c7.187-10.008 6.603-24.014-1.698-33.378-3.91-4.411-8.895-7.211-14.17-8.401-6.79-1.532-13.37-3.875-19.398-7.355l-12.276-7.087c-4.26-2.46-9.642-1.751-13.12 1.727-3.479 3.479-4.187 8.86-1.727 13.121l6.953 12.044c3.538 6.128 5.928 12.815 7.508 19.713 1.086 4.746 3.478 9.253 7.174 12.949 9.47 9.47 24.262 10.375 34.749 2.715z"/><path d="m187.759 258.039c8.061-11.225 7.406-26.935-1.905-37.439-4.386-4.947-9.977-8.088-15.893-9.423-7.615-1.718-14.996-4.346-21.757-8.249l-13.769-7.95c-4.779-2.759-10.815-1.964-14.717 1.937-3.902 3.902-4.696 9.938-1.937 14.717l7.799 13.509c3.969 6.874 6.649 14.374 8.421 22.111 1.219 5.323 3.901 10.378 8.047 14.525 10.622 10.622 27.213 11.637 38.976 3.046z"/></g></g><path d="m290.991 66.737 1.082-2.418c6.086-13.593 1.457-29.594-10.947-37.838-7.287-4.843-12.853-11.868-15.902-20.069-3.178-8.55-15.271-8.55-18.45 0-3.049 8.201-8.615 15.226-15.901 20.069-12.404 8.244-17.033 24.245-10.947 37.838l1.082 2.418c2.657 5.934 2.296 12.783-.97 18.405-5.084 8.752.404 19.856 10.445 21.133 6.254.795 11.775 4.473 14.919 9.937l3.965 6.892 12.639 1.088 4.591-7.979c3.144-5.465 8.665-9.142 14.919-9.937 10.041-1.277 15.529-12.381 10.445-21.133-3.265-5.623-3.626-12.472-.97-18.406z" fill="#aad880"/><path d="m250.611 101.124c-5.217.663-9.924 3.333-13.166 7.372 3.281 1.755 6.055 4.408 7.959 7.716l3.965 6.892 4.882-11.036-3.027-11.036c-.203.035-.407.066-.613.092z" fill="#9bd069"/><path d="m290.991 66.737 1.082-2.418c6.086-13.593 1.457-29.594-10.947-37.838-7.287-4.843-12.853-11.868-15.902-20.069-3.178-8.55-15.271-8.55-18.45 0-1.096 2.947-2.516 5.742-4.225 8.34 2.266 2.483 4.838 4.696 7.671 6.578 12.404 8.244 17.033 24.245 10.947 37.838l-1.082 2.418c-2.657 5.934-2.296 12.783.97 18.405 3.152 5.427 2.24 11.757-1.301 16.088l-4.305 13.708 6.557 14.405 4.591-7.979c3.144-5.465 8.665-9.142 14.919-9.937 10.041-1.277 15.529-12.381 10.445-21.133-3.265-5.623-3.626-12.472-.97-18.406z" fill="#9bd069"/><path d="m353.796 258.026c.726-.894-.45-2.076-1.348-1.355l-74.196 59.636c-1.594 1.281-3.969.211-4.065-1.832l-2.574-54.844c-.029-.614.169-1.217.557-1.694l71.02-87.458c.648-.797-.401-1.851-1.202-1.208l-68.069 54.712c-1.594 1.281-3.969.211-4.065-1.832l-11.891-148.431c-.219-2.73-4.215-2.738-4.444-.009l-10.911 129.816c-.096 2.043-2.471 3.113-4.065 1.832l-68.532-55.083c-.801-.644-1.849.41-1.202 1.208l71.473 88.016c.387.477.586 1.08.557 1.694l-2.461 52.431c-.096 2.043-2.471 3.114-4.065 1.832l-74.762-60.091c-.898-.722-2.074.46-1.348 1.355l74.826 92.145c2.25 2.77 3.401 6.272 3.233 9.837l-.99 21.099c0 .008-.001.016-.001.024-.06 1.035-1.385 1.46-2.118.727l-37.99-37.989c-1.449-1.449-3.414-2.263-5.463-2.263h-13.009c-4.231 0-7.92 3.26-8.047 7.489-.131 4.376 3.377 7.964 7.723 7.964h10.133l12.672 12.672c1.344 1.344 1.048 3.598-.599 4.549l-10.774 6.22c-3.767 2.175-8.409 2.175-12.176 0l-16.239-9.376c-2.035-1.175-4.34 1.04-3.248 3.12l14.48 27.579c3.242 6.174 10.997 8.37 16.994 4.811l13.747-8.158c4.541-2.695 10.301-2.155 14.263 1.335l6.853 6.038c7.064 6.224 10.918 15.32 10.477 24.724l-2.792 59.485c-.461 9.813-4.566 19.101-11.512 26.047l-15.146 15.146c-.757.757-.221 2.052.85 2.052h102.886c1.071 0 1.607-1.295.85-2.052l-15.146-15.146c-6.946-6.946-11.051-16.235-11.512-26.048l-4.748-101.148c-.418-8.9 2.456-17.642 8.072-24.558z" fill="#dab46b"/><path d="m353.796 258.026c.726-.894-.45-2.076-1.348-1.355l-74.196 59.636c-1.594 1.282-3.969.211-4.065-1.832l-2.574-54.844c-.029-.614.169-1.217.557-1.694l71.02-87.458c.648-.798-.401-1.851-1.202-1.208l-68.069 54.712c-1.594 1.281-3.969.211-4.065-1.832l-11.891-148.43c-.219-2.73-4.215-2.738-4.444-.009l-8.93 106.254 16.237 273.337c.461 9.813 4.566 19.101 11.512 26.048 6.346 6.346 1.852 17.198-7.124 17.198h-48.312l-13.401 13.401c-.757.757-.221 2.052.85 2.052h102.886c1.071 0 1.607-1.295.85-2.052l-15.146-15.146c-6.946-6.947-11.051-16.235-11.512-26.048l-4.748-101.148c-.418-8.9 2.456-17.642 8.072-24.558z" fill="#cba763"/></g></svg>