<svg height="512pt" viewBox="-55 0 512 512" width="512pt" xmlns="http://www.w3.org/2000/svg"><path d="m232.171875 251.960938v260.039062h-232.171875v-260.039062c0-10.050782 1.03125-19.972657 3.058594-29.632813 3.960937-18.898437 11.722656-36.828125 23.011718-52.898437l15.128907-21.558594c11.378906-16.222656 17.402343-35.28125 17.402343-55.101563v-92.769531h114.96875v92.769531c0 19.820313 6.019532 38.878907 17.410157 55.101563l15.121093 21.558594c11.289063 16.070312 19.046876 34 23.007813 52.898437 2.03125 9.660156 3.0625 19.582031 3.0625 29.632813zm0 0" fill="#fdbf00"/><path d="m232.171875 251.960938v260.039062h-115.832031v-512h57.230468v92.769531c0 19.820313 6.019532 38.878907 17.410157 55.101563l15.121093 21.558594c11.289063 16.070312 19.046876 34 23.007813 52.898437 2.03125 9.660156 3.0625 19.582031 3.0625 29.632813zm0 0" fill="#ff9f00"/><path d="m401.191406 163.328125v152.75c0 34.03125-24.050781 62.53125-56.042968 69.433594v96.488281h22v30h-74v-30h22v-96.488281c-31.988282-6.902344-56.039063-35.402344-56.039063-69.433594v-152.75zm0 0" fill="#dcfffd"/><path d="m58.601562 0h114.96875v79.691406h-114.96875zm0 0" fill="#ff7a53"/><path d="m232.171875 251.960938v169.367187h-232.171875v-169.367187c0-10.050782 1.03125-19.972657 3.058594-29.632813h226.050781c2.03125 9.660156 3.0625 19.582031 3.0625 29.632813zm0 0" fill="#fff5cb"/><path d="m232.171875 251.960938v169.367187h-115.832031v-199h112.769531c2.03125 9.660156 3.0625 19.582031 3.0625 29.632813zm0 0" fill="#ffdba9"/><path d="m116.339844 0h57.230468v79.691406h-57.230468zm0 0" fill="#ff3b62"/><path d="m401.191406 163.328125v152.75c0 34.03125-24.050781 62.53125-56.042968 69.433594v96.488281h22v30h-37v-348.671875zm0 0" fill="#8afffc"/><path d="m401.191406 221v95.078125c0 39.171875-31.871094 71.042969-71.042968 71.042969-39.167969 0-71.039063-31.871094-71.039063-71.042969v-95.078125zm0 0" fill="#ff9a00"/><path d="m401.191406 221v95.078125c0 39.171875-31.871094 71.042969-71.042968 71.042969v-166.121094zm0 0" fill="#e67500"/><path d="m160.601562 366.269531c-4.800781 5.730469-10.132812 10.558594-15.851562 14.339844-3.441406 2.28125-9.828125 6.511719-17.761719 6.511719h-.058593c-4.03125-.011719-7.628907-.75-10.589844-1.699219-2.960938.949219-6.550782 1.6875-10.578125 1.699219h-.070313c-7.921875 0-14.320312-4.230469-17.761718-6.511719-5.71875-3.78125-11.050782-8.609375-15.851563-14.339844-16.398437-19.609375-21.128906-45.359375-12.339844-67.199219 6.132813-15.25 19.832031-25.101562 35.742188-25.699218 4.121093-.160156 8.347656.199218 13.308593 1.128906 1.929688.359375 3.621094.839844 5.109376 1.269531.722656.199219 1.652343.46875 2.230468.601563h.429688c.5625-.132813 1.5-.390625 2.222656-.601563 1.488281-.429687 3.1875-.910156 5.109375-1.269531 4.960937-.929688 9.1875-1.289062 13.308594-1.128906 15.921875.597656 29.609375 10.449218 35.75 25.699218 8.78125 21.839844 4.050781 47.589844-12.347657 67.199219zm0 0" fill="#ff7a53"/><path d="m160.601562 366.269531c-4.800781 5.730469-10.132812 10.558594-15.851562 14.339844-3.441406 2.28125-9.828125 6.511719-17.761719 6.511719h-.058593c-4.03125-.011719-7.628907-.75-10.589844-1.699219v-109.050781h.21875c.5625-.132813 1.5-.390625 2.222656-.601563 1.488281-.429687 3.1875-.910156 5.109375-1.269531 4.960937-.929688 9.1875-1.289062 13.308594-1.128906 15.921875.597656 29.609375 10.449218 35.75 25.699218 8.78125 21.839844 4.050781 47.589844-12.347657 67.199219zm0 0" fill="#ff3b62"/><path d="m101.089844 256h30v32.328125h-30zm0 0" fill="#60dd4e"/><path d="m116.339844 256h14.75v32.328125h-14.75zm0 0" fill="#00ad00"/></svg>