<svg id="Layer_1" enable-background="new 0 0 48 48" height="512" viewBox="0 0 48 48" width="512" xmlns="http://www.w3.org/2000/svg"><path d="m20.717 23.52-1.433-3.459c-1.508-3.642-2.284-7.544-2.284-11.485v-2.576c.553-.002 1-.449 1-1.001v-2.998c0-.553-.448-1.001-1.001-1.001h-3.997c-.554 0-1.002.448-1.002 1.001v2.997c0 .553.448 1 1 1.001v2.578c0 3.94-.776 7.842-2.284 11.483l-1.433 3.46c-1.507 3.64-2.283 7.541-2.283 11.48v10.995c0 .555.45 1.005 1.005 1.005h13.991c.555 0 1.004-.45 1.004-1.004v-10.996c0-3.94-.776-7.841-2.283-11.48z" fill="#4c9933"/><path d="m37.427 34.655c1.531-1.531 3.573-4.082 3.573-7.655v-13.001c0-.552-.447-.999-.999-.999h-8.001c-.552 0-1 .447-1 .999v13.001c0 3.573 2.042 6.124 3.573 7.655.13.13.276.23.427.318v10.027h-3c-.553 0-1 .448-1 1s.447 1 1 1h8c.553 0 1-.448 1-1s-.447-1-1-1h-3v-10.028c.152-.087.297-.188.427-.317z" fill="#efefef"/><path d="m31 18v9c0 3.573 2.042 6.124 3.573 7.655.792.792 2.062.792 2.854 0 1.531-1.531 3.573-4.082 3.573-7.655v-9z" fill="#f2d6ad"/><path d="m41 20v-2h-10v9c0 .944.138 1.822.376 2.623z" fill="#fcf6f2"/><path d="m22.493 29.507c-.381-2.049-.975-4.053-1.776-5.987l-1.433-3.459c-1.508-3.642-2.284-7.544-2.284-11.485v-2.576c.553-.002 1-.449 1-1.001v-2.998c0-.553-.448-1.001-1.001-1.001h-3.997c-.554 0-1.002.448-1.002 1.001v2.997c0 .553.448 1 1 1.001v2.578c0 3.94-.776 7.842-2.284 11.483l-1.433 3.46c-1.507 3.64-2.283 7.54-2.283 11.48v10z" fill="#73b557"/><path d="m9.284 23.52c-.203.488-.392.983-.568 1.48h12.569c-.176-.497-.365-.992-.568-1.48l-1.433-3.459c-1.508-3.642-2.284-7.544-2.284-11.485v-2.576c.553-.002 1-.449 1-1.001v-2.998c0-.553-.448-1.001-1.001-1.001h-3.997c-.554 0-1.002.448-1.002 1.001v2.997c0 .553.448 1 1 1.001v2.578c0 3.94-.776 7.842-2.284 11.483z" fill="#bc9c73"/><path d="m18.997 42h-7.992c-.555 0-1.005-.449-1.005-1.004v-3.992c0-.555.45-1.004 1.004-1.004h7.992c.555 0 1.004.449 1.004 1.004v3.992c0 .555-.449 1.004-1.003 1.004z" fill="#ccc"/><path d="m11.004 36c-.554 0-1.004.449-1.004 1.004v3.992c0 .277.112.528.294.71l5.706-5.706z" fill="#efefef"/><path d="m9.284 23.52c-.202.488-.392.983-.568 1.48h12.569c-.176-.497-.366-.992-.568-1.48l-1.044-2.52h-9.346z" fill="#f9c900"/><ellipse cx="15" cy="23" fill="#4c9933" rx="2" ry="3"/></svg>