<svg id="Capa_1" enable-background="new 0 0 512 512" height="512" viewBox="0 0 512 512" width="512" xmlns="http://www.w3.org/2000/svg"><g><path d="m512 299.242v-86.484l-67.987-8.379c-4.292-15.601-10.518-30.601-18.618-44.766l41.484-53.35-61.143-61.143-53.35 41.484c-14.165-8.101-29.165-14.326-44.766-18.618l-8.378-67.986h-43.242-43.242l-8.379 67.987c-15.601 4.292-30.601 10.518-44.766 18.618l-53.35-41.484-61.143 61.143 41.484 53.35c-8.101 14.165-14.326 29.165-18.618 44.766l-67.986 8.378v86.484l67.987 8.379c4.292 15.601 10.518 30.601 18.618 44.766l-41.484 53.35 61.143 61.143 53.35-41.484c14.165 8.101 29.165 14.326 44.766 18.618l8.378 67.986h43.242 43.242l8.379-67.987c15.601-4.292 30.601-10.518 44.766-18.618l53.35 41.484 61.143-61.143-41.484-53.35c8.101-14.165 14.326-29.165 18.618-44.766zm-256 76.758c-66.275 0-120-53.725-120-120s53.725-120 120-120 120 53.725 120 120-53.725 120-120 120z" fill="#e1e6f0"/><path d="m307.621 444.013c15.601-4.292 30.601-10.518 44.766-18.618l53.35 41.484 61.143-61.143-41.484-53.35c8.101-14.165 14.326-29.165 18.618-44.766l67.986-8.378v-86.484l-67.987-8.379c-4.292-15.601-10.518-30.601-18.618-44.766l41.484-53.35-61.143-61.143-53.35 41.484c-14.165-8.101-29.165-14.326-44.766-18.618l-8.378-67.986h-43.242v136c66.275 0 120 53.725 120 120s-53.725 120-120 120v136h43.242z" fill="#cfd7e6"/><path d="m285.253 211c-12.554 0-22.192 4.526-29.253 10.532-7.061-6.006-16.699-10.532-29.253-10.532-24.814 0-44.253 18.076-44.253 41.162 0 24.434 20.859 38.95 49.717 59.033l23.789 16.817 23.789-16.816c28.857-20.083 49.717-34.6 49.717-59.033 0-23.087-19.439-41.163-44.253-41.163z" fill="#ff6b4d"/><path d="m329.506 252.162c0-23.086-19.438-41.162-44.253-41.162-12.554 0-22.192 4.526-29.253 10.532v106.479l23.789-16.816c28.857-20.083 49.717-34.599 49.717-59.033z" fill="#f24030"/><path d="m256 121c-74.443 0-135 60.557-135 135s60.557 135 135 135 135-60.557 135-135-60.557-135-135-135zm0 240c-57.891 0-105-47.109-105-105s47.109-105 105-105 105 47.109 105 105-47.109 105-105 105z" fill="#cfd7e6"/><path d="m391 256c0-74.443-60.557-135-135-135v30c57.891 0 105 47.109 105 105s-47.109 105-105 105v30c74.443 0 135-60.557 135-135z" fill="#a3b1cc"/></g></svg>