<svg id="Capa_1" enable-background="new 0 0 512 512" height="512" viewBox="0 0 512 512" width="512" xmlns="http://www.w3.org/2000/svg"><g><path d="m376 210h-120-120c-8.291 0-15 6.709-15 15v127.142c0 58.726 22.866 113.936 64.395 155.464h70.605 70.605c41.529-41.529 64.395-96.739 64.395-155.464v-127.142c0-8.291-6.709-15-15-15z" fill="#fa5d0f"/><path d="m391 352.142v-127.142c0-8.291-6.709-15-15-15h-120v297.605h70.605c41.529-41.528 64.395-96.738 64.395-155.463z" fill="#d6475c"/><path d="m436 482h-180-180c-8.291 0-15 6.709-15 15s6.709 15 15 15h180 180c8.291 0 15-6.709 15-15s-6.709-15-15-15z" fill="#fe8205"/><path d="m451 497c0-8.291-6.709-15-15-15h-180v30h180c8.291 0 15-6.709 15-15z" fill="#fa5d0f"/><path d="m376 0h-30c-8.291 0-15 6.709-15 15s6.709 15 15 15h30c8.276 0 15 6.724 15 15s-6.724 15-15 15h-120-120c-24.814 0-45 20.186-45 45s20.186 45 45 45h90c8.276 0 15 6.724 15 15 0 8.291 6.709 15 15 15s15-6.709 15-15c0-13.248-5.861-25.052-15-33.296-7.98-7.196-18.433-11.704-30-11.704h-90c-8.276 0-15-6.724-15-15s6.724-15 15-15h120 120c24.814 0 45-20.186 45-45s-20.186-45-45-45z" fill="#f0f7ff"/></g></svg>