<svg id="Capa_1" enable-background="new 0 0 512 512" height="512" viewBox="0 0 512 512" width="512" xmlns="http://www.w3.org/2000/svg"><g><path d="m394.174 150.63-7.831-11.138c-5.613-7.984-8.717-17.448-8.948-27.187h-242.789c-.231 9.74-3.335 19.203-8.949 27.187l-7.831 11.138z" fill="#dfebfa"/><path d="m183.025 112.305h-48.419c-.231 9.74-3.335 19.203-8.949 27.187l-7.831 11.138h48.419l7.831-11.138c5.614-7.984 8.718-17.448 8.949-27.187z" fill="#b1dbfc"/><path d="m412.466 211.919v-17.706c0-11.432-3.529-22.587-10.105-31.939l-9.636-13.705h-273.45l-9.636 13.705c-6.576 9.352-10.105 20.507-10.105 31.939v17.706z" fill="#ab6b51"/><path d="m158.057 162.275 9.636-13.705h-48.419l-9.636 13.705c-6.576 9.352-10.105 20.507-10.105 31.939v17.706h48.419v-17.706c0-11.433 3.529-22.587 10.105-31.939z" fill="#965a44"/><path d="m99.534 458.984v15.582c0 19.899 15.471 29.291 28.622 33.68 7.739 2.583 15.88 3.755 24.038 3.755h207.612c8.159 0 16.3-1.172 24.038-3.755 13.15-4.389 28.621-13.781 28.621-33.68v-15.582z" fill="#ab6b51"/><path d="m147.952 474.565v-15.582h-48.418v15.582c0 19.899 15.471 29.291 28.622 33.68 7.739 2.583 15.88 3.755 24.038 3.755h48.419c-8.158 0-16.3-1.172-24.038-3.755-13.151-4.388-28.623-13.781-28.623-33.68z" fill="#965a44"/><path d="m99.534 208.817h312.931v253.269h-312.931z" fill="#fee55a"/><path d="m99.534 208.817h48.419v253.269h-48.419z" fill="#ffd301"/><path d="m99.534 311.032v151.055h288.613c-13.062-6.837-275.45-144.166-288.613-151.055z" fill="#ffd301"/><path d="m99.534 311.032v151.055h48.419v-125.714c-26.444-13.841-45.144-23.628-48.419-25.341z" fill="#ffc20c"/><path d="m373.276 32.726v-14.155c0-10.214-8.357-18.571-18.571-18.571h-197.41c-10.214 0-18.571 8.357-18.571 18.571v14.155z" fill="#bc7c63"/><path d="m206.743 0h-49.449c-10.214 0-18.571 8.357-18.571 18.571v14.155h49.449v-14.155c0-10.214 8.357-18.571 18.571-18.571z" fill="#ab6b51"/><path d="m384.292 29.636h-256.585c-7.721 0-14.038 6.317-14.038 14.038v55.623c0 7.721 6.317 14.038 14.038 14.038h256.585c7.721 0 14.038-6.317 14.038-14.038v-55.623c0-7.721-6.317-14.038-14.038-14.038z" fill="#ab6b51"/><path d="m163.118 99.297v-55.623c0-7.721 6.317-14.038 14.038-14.038h-49.449c-7.721 0-14.038 6.317-14.038 14.038v55.623c0 7.721 6.317 14.038 14.038 14.038h49.449c-7.721 0-14.038-6.317-14.038-14.038z" fill="#965a44"/><g><path d="m405.837 78.697h-299.674c-4.267 0-7.726-3.459-7.726-7.726s3.459-7.726 7.726-7.726h299.674c4.267 0 7.726 3.459 7.726 7.726 0 4.266-3.459 7.726-7.726 7.726z" fill="#bc7c63"/></g><path d="m196.226 302.425 125.881 65.884c.412.215.784.48 1.136.767v-114.426c0-5.986-4.852-10.838-10.838-10.838h-112.81c-5.986 0-10.838 4.853-10.838 10.838v48.527c2.001-1.618 4.88-2.108 7.469-.752z" fill="#ab6b51"/><g><g><path d="m235.115 254.65c0-5.986 4.852-10.838 10.838-10.838h-46.358c-5.986 0-10.838 4.853-10.838 10.838v48.527c2.001-1.618 4.88-2.108 7.469-.752l38.889 20.354z" fill="#965a44"/></g></g><path d="m323.243 326.496h-37.102v-30.314h37.102v-15.453h-37.102v-36.917h-15.453v36.917h-29.376v-36.917h-15.453v36.917h-37.102v15.453h37.102v21.752l15.453 8.088v-29.84h29.376v30.314h-28.469l43.922 22.988v-7.535h37.102z" fill="#965a44"/><path d="m322.107 367.279-125.881-65.884c-4.547-2.38-9.996.918-9.996 6.05v108.403c0 6.211 5.035 11.246 11.246 11.246h117.048c6.211 0 11.246-5.035 11.246-11.246v-42.518c0-2.542-1.411-4.873-3.663-6.051z" fill="#dfebfa"/><path d="m232.588 415.847v-95.421l-36.362-19.032c-4.547-2.38-9.996.918-9.996 6.05v108.403c0 6.211 5.035 11.245 11.245 11.245h46.358c-6.21.001-11.245-5.034-11.245-11.245z" fill="#b1dbfc"/><g><path d="m278.414 394.286h-44.828c-4.267 0-7.726-3.459-7.726-7.726s3.459-7.726 7.726-7.726h44.828c4.267 0 7.726 3.459 7.726 7.726.001 4.266-3.459 7.726-7.726 7.726z" fill="#b1dbfc"/></g></g></svg>