<svg id="Capa_1" enable-background="new 0 0 512 512" height="512" viewBox="0 0 512 512" width="512" xmlns="http://www.w3.org/2000/svg"><g><path d="m258.206 334.465c15.771-3.434 30.332-10.108 42.95-19.292 7.554-5.498 17.159-7.507 26.148-4.959 7.157 2.029 14.735 3.056 22.574 2.917 41.534-.733 75.435-34.732 76.056-76.267.116-7.739-.904-15.224-2.903-22.297-1.095-3.876-.228-8.064 2.269-11.224 8.843-11.193 14.121-25.332 14.121-40.704 0-26.964-16.24-50.135-39.472-60.266-6.814-2.972-12.171-8.61-14.696-15.602-18.278-50.603-66.737-86.771-123.644-86.771-67.452 0-123.035 50.814-130.559 116.249-.938 8.156-6.888 14.899-14.853 16.886-25.055 6.249-43.618 28.904-43.618 55.895 0 10.704 2.92 20.725 8.005 29.313 2.952 4.983 3.982 10.917 2.403 16.489-1.287 4.541-1.85 9.386-1.556 14.402 1.268 21.654 18.805 39.219 40.456 40.521 1.65.099 3.282.106 4.89.024 7.838-.397 15.537 2.489 20.726 8.377 19.095 21.669 46.235 36.079 76.749 38.556z" fill="#aad880"/><path d="m425.301 203.344c8.843-11.193 14.121-25.332 14.121-40.704 0-26.964-16.24-50.135-39.472-60.266-6.814-2.972-12.171-8.61-14.696-15.602-14.128-39.113-46.287-69.602-86.441-81.432 20.497 15.262 36.394 36.357 45.233 60.828 2.525 6.992 7.882 12.631 14.696 15.602 23.232 10.131 39.472 33.302 39.472 60.266 0 15.372-5.278 29.511-14.121 40.704-2.497 3.16-3.364 7.349-2.269 11.224 1.999 7.073 3.019 14.557 2.903 22.297-.621 41.536-34.522 75.534-76.056 76.267-7.839.138-15.417-.888-22.574-2.917-4.837-1.371-9.851-1.422-14.629-.321-5.301 14.845-33.722 23.951-13.262 45.175 15.771-3.434 30.332-10.108 42.95-19.292 7.554-5.498 17.159-7.507 26.148-4.959 7.157 2.029 14.735 3.056 22.574 2.917 41.534-.733 75.435-34.732 76.056-76.267.116-7.739-.904-15.224-2.903-22.297-1.095-3.875-.227-8.063 2.27-11.223z" fill="#9bd069"/><path d="m183.045 316.114v-.005c-6.937-.563-13.7-1.743-20.233-3.485 17.201 13.51 38.355 22.214 61.44 24.089 1.815-8.953 17.765-14.744 6.248-26.674-14.683 5.153-30.73 7.408-47.455 6.075z" fill="#9bd069"/><path d="m245.738 319.783-19.403-19.403c-16.835-16.834-26.106-39.216-26.106-63.024 0-13.875-5.403-26.921-15.215-36.733l-8.618-8.618c-3.017-3.016-7.909-3.017-10.927.001-3.018 3.017-3.017 7.909 0 10.927l8.618 8.617c5.099 5.101 8.503 11.444 9.93 18.347-8.783 7.532-19.843 11.639-31.535 11.639-4.267 0-7.726 3.459-7.726 7.726s3.459 7.726 7.726 7.726c11.743 0 23.004-3.143 32.822-9.03 2.393 23.93 12.872 46.117 30.105 63.35l19.403 19.403c1.509 1.508 3.486 2.263 5.463 2.263s3.955-.755 5.463-2.263c3.018-3.019 3.018-7.91 0-10.928z" fill="#fbf6ec"/><path d="m306.379 213.252c22.163-39.958 20.921-87.754-.662-126.287-2.337-4.172-8.679-2.553-8.679 2.229v32.298c0 7.137-.492 14.249-1.461 21.284-.59 4.284-5.367 6.583-9.102 4.403-16.205-9.455-27.99-24.96-32.763-43.104l-5.005-19.027c-.983-3.736-6.483-3.024-6.483.838v6.057c0 26.069 10.356 51.069 28.789 69.502l4.48 4.48c7.128 7.128 8.86 18.049 4.253 27.016-1.159 2.255-2.374 4.484-3.644 6.684-.633 1.096-1.261 2.195-1.884 3.296-2.094 3.7-6.915 4.793-10.405 2.365l-26.645-18.533c-23.008-16.004-38.717-40.492-43.67-68.078l-2.823-15.724c-.521-2.899-4.774-2.499-4.774.447.006 35.327 14.042 69.205 39.022 94.185l4.31 4.31c17.35 17.35 23.186 43.24 14.619 66.233-18.872 50.649-28.669 104.5-28.669 158.857v22.6c0 19.09-7.583 37.398-21.082 50.896l-9.536 9.536c-.732.732-.214 1.984.822 1.984h92.655c1.036 0 1.554-1.252.822-1.984l-9.536-9.536c-13.499-13.498-21.082-31.806-21.082-50.896v-25.6c-.001-77.759 20.749-143.336 58.133-210.731z" fill="#fbf6ec"/><path d="m381.952 225.056h-1.001c-8.508 0-16.601-2.691-23.309-7.671l9.269-16.054c2.134-3.695.868-8.421-2.828-10.554-3.695-2.134-8.421-.868-10.554 2.828l-18.729 32.438c-15.214 26.351-42.437 42.948-72.821 44.397-4.262.203-7.553 3.823-7.35 8.086.198 4.137 3.613 7.358 7.712 7.358.124 0 .249-.003.374-.009 35.661-1.7 67.612-21.179 85.467-52.106l1.695-2.935c9.063 6.289 19.808 9.675 31.073 9.675h1.001c4.267 0 7.726-3.459 7.726-7.726s-3.458-7.727-7.725-7.727z" fill="#f9efda"/><path d="m306.379 213.252c22.163-39.958 20.921-87.754-.662-126.287-2.337-4.172-8.679-2.553-8.679 2.229v11.217c8.921 31.973 5.618 66.954-11.262 97.389-37.384 67.395-58.135 132.972-58.135 210.731v25.6c0 19.09 7.583 37.398 21.082 50.896 4.251 4.251 1.24 11.52-4.772 11.52h-46.202c-1.163 1.351-2.38 2.663-3.65 3.932l-9.536 9.536c-.732.732-.214 1.984.822 1.984h92.655c1.036 0 1.554-1.252.822-1.984l-9.536-9.536c-13.499-13.498-21.082-31.806-21.082-50.896v-25.6c.001-77.759 20.751-143.336 58.135-210.731z" fill="#f9efda"/><path d="m248.584 464.272h-33.738c-4.267 0-7.726-3.459-7.726-7.726 0-4.268 3.459-7.726 7.726-7.726h33.738c4.267 0 7.726 3.459 7.726 7.726s-3.459 7.726-7.726 7.726zm7.809-59.215c0-4.268-3.459-7.726-7.726-7.726h-32.945c-4.267 0-7.726 3.459-7.726 7.726s3.459 7.726 7.726 7.726h32.945c4.267.001 7.726-3.458 7.726-7.726zm5.645-51.479c0-4.268-3.459-7.726-7.726-7.726h-33.131c-4.267 0-7.726 3.459-7.726 7.726s3.459 7.726 7.726 7.726h33.131c4.267.001 7.726-3.458 7.726-7.726zm12.816-51.487c0-4.268-3.459-7.726-7.726-7.726h-34.429c-4.267 0-7.726 3.459-7.726 7.726s3.459 7.726 7.726 7.726h34.429c4.266 0 7.726-3.459 7.726-7.726zm20.222-51.489c0-4.268-3.459-7.726-7.726-7.726h-39.734c-4.267 0-7.726 3.459-7.726 7.726s3.459 7.726 7.726 7.726h39.734c4.267 0 7.726-3.459 7.726-7.726z" fill="#f4e2c1"/><g fill="#f4ddb1"><path d="m295.076 250.602c0-4.268-3.459-7.726-7.726-7.726h-24.102c-2.273 5.141-4.443 10.29-6.509 15.453h30.611c4.267-.001 7.726-3.46 7.726-7.727z"/><path d="m274.854 302.091c0-4.268-3.459-7.726-7.726-7.726h-23.001c-1.533 5.122-2.963 10.271-4.289 15.453h27.289c4.267-.001 7.727-3.46 7.727-7.727z"/><path d="m254.312 361.305c4.267 0 7.726-3.459 7.726-7.726s-3.459-7.726-7.726-7.726h-21.893c-.8 5.108-1.501 10.257-2.103 15.453h23.996z"/><path d="m248.667 397.331h-20.88c-.097 3.706-.146 7.438-.146 11.2v4.253h21.026c4.267 0 7.726-3.459 7.726-7.726s-3.459-7.727-7.726-7.727z"/><path d="m256.31 456.545c0-4.268-3.459-7.726-7.726-7.726h-19.428c1.113 5.338 2.826 10.521 5.1 15.453h14.328c4.267 0 7.726-3.459 7.726-7.727z"/></g></g></svg>