<svg height="512pt" viewBox="0 -66 512 512" width="512pt" xmlns="http://www.w3.org/2000/svg"><path d="m512 269.539062c0 30.382813-11 56.679688-32.691406 78.152344-21.660156 21.4375-48.136719 32.308594-78.707032 32.308594h-273.132812c-34.917969 0-65.199219-12.460938-90.007812-37.03125-24.859376-24.609375-37.460938-54.667969-37.460938-89.328125 0-24.75 6.820312-47.710937 20.28125-68.25 11.449219-17.5 26.25-31.410156 44-41.359375-.011719-.621094-.011719-1.210938-.011719-1.761719 0-39.121093 14.160157-72.988281 42.101563-100.640625 27.898437-27.617187 62.019531-41.628906 101.429687-41.628906 13.519531 0 26.550781 1.75 39.007813 5.21875 14.601562 4.050781 28.410156 10.480469 41.332031 19.242188 18.710937 12.6875 33.648437 28.667968 44.480469 47.558593 10.828125-5.570312 22.859375-8.378906 35.839844-8.378906 21.75 0 40.589843 7.730469 55.988281 22.980469 15.441406 15.300781 23.269531 34.019531 23.269531 55.648437 0 8.769531-1.410156 17.242188-4.199219 25.28125 17.121094 6.988281 31.910157 18.070313 44.03125 33 16.21875 19.980469 24.449219 43.1875 24.449219 68.988281zm0 0" fill="#bde8f9"/><path d="m512 269.539062c0 30.382813-11 56.679688-32.691406 78.152344-21.660156 21.4375-48.136719 32.308594-78.707032 32.308594h-153.792968v-374.78125c14.601562 4.050781 28.410156 10.480469 41.332031 19.242188 18.710937 12.6875 33.648437 28.667968 44.480469 47.558593 10.828125-5.570312 22.859375-8.378906 35.839844-8.378906 21.75 0 40.589843 7.730469 55.988281 22.980469 15.441406 15.300781 23.269531 34.019531 23.269531 55.648437 0 8.769531-1.410156 17.242188-4.199219 25.28125 17.121094 6.988281 31.910157 18.070313 44.03125 33 16.21875 19.980469 24.449219 43.1875 24.449219 68.988281zm0 0" fill="#88d9f5"/><path d="m166.457031 203.179688c10.890625 0 16.527344 5.640624 16.90625 16.925781.378907 5.894531 5.316407 8.839843 14.816407 8.839843 5.316406 0 9.117187-.972656 11.394531-2.917968 2.28125-1.941406 3.417969-5.609375 3.417969-11 0-11.660156-4.460938-20.8125-13.390626-27.460938-8.925781-6.644531-20.355468-9.96875-34.285156-9.96875-13.550781 0-24.535156 3.574219-32.953125 10.722656-8.421875 7.144532-12.632812 18.367188-12.632812 33.664063v49.839844c0 15.300781 4.210937 26.523437 12.632812 33.667969 8.417969 7.148437 19.402344 10.722656 32.953125 10.722656 13.929688 0 25.359375-3.511719 34.285156-10.535156 8.929688-7.019532 13.390626-16.613282 13.390626-28.773438 0-5.390625-1.136719-9.058594-3.417969-11.003906-2.277344-1.941406-6.144531-2.914063-11.585938-2.914063-9.246093 0-14.121093 2.945313-14.625 8.839844-.253906 2.632813-.539062 4.699219-.855469 6.207031-.316406 1.503906-.980468 3.414063-1.992187 5.734375-1.015625 2.320313-2.695313 4.042969-5.035156 5.171875-2.34375 1.128906-5.289063 1.695313-8.832031 1.695313-11.523438 0-17.285157-6.269531-17.285157-18.808594v-49.84375c0-12.535156 5.699219-18.804687 17.09375-18.804687zm0 0" fill="#fff"/><path d="m314.609375 188.320312c-8.480469-7.148437-19.820313-10.71875-34-10.71875-14.039063 0-25.308594 3.570313-33.800781 10.707032l-.007813.011718c-8.480469 7.148438-12.722656 18.371094-12.722656 33.667969v49.839844c0 15.300781 4.242187 26.523437 12.722656 33.660156l.007813.011719c8.492187 7.140625 19.761718 10.710938 33.800781 10.710938 14.179687 0 25.519531-3.570313 34-10.722657 8.480469-7.136719 12.730469-18.359375 12.730469-33.660156v-49.839844c0-15.296875-4.25-26.519531-12.730469-33.667969zm-16.898437 83.507813c0 12.542969-5.699219 18.800781-17.101563 18.800781-11.269531 0-16.898437-6.257812-16.898437-18.800781v-49.839844c0-12.539062 5.628906-18.808593 16.898437-18.808593 11.402344 0 17.101563 6.269531 17.101563 18.808593zm0 0" fill="#fff"/><g fill="#bde8f9"><path d="m314.609375 188.320312c-8.480469-7.148437-19.820313-10.71875-34-10.71875-14.039063 0-25.308594 3.570313-33.800781 10.707032v117.191406c8.492187 7.140625 19.761718 10.710938 33.800781 10.710938 14.179687 0 25.519531-3.570313 34-10.722657 8.480469-7.136719 12.730469-18.359375 12.730469-33.660156v-49.839844c0-15.296875-4.25-26.519531-12.730469-33.667969zm-16.898437 83.507813c0 12.542969-5.699219 18.800781-17.101563 18.800781-11.269531 0-16.898437-6.257812-16.898437-18.800781v-49.839844c0-12.539062 5.628906-18.808593 16.898437-18.808593 11.402344 0 17.101563 6.269531 17.101563 18.808593zm0 0"/><path d="m398.117188 300.617188h-30.53125v-1.039063c0-1.855469 1.25-3.882813 3.753906-6.085937 2.5-2.203126 5.515625-4.460938 9.046875-6.78125 3.523437-2.316407 7.035156-4.867188 10.523437-7.648438 3.492188-2.78125 6.476563-6.21875 8.957032-10.316406 2.484374-4.09375 3.726562-8.460938 3.726562-13.097656 0-7.109376-2.714844-12.761719-8.144531-16.953126-5.425781-4.191406-11.742188-6.289062-18.953125-6.289062-6.992188 0-13.082032 2.007812-18.265625 6.019531-5.1875 4.011719-7.78125 9.34375-7.78125 15.992188 0 6.191406 2.664062 9.285156 8 9.285156 2.816406 0 5.082031-.671875 6.796875-2.019531s2.570312-2.933594 2.570312-4.757813c0-3.097656.820313-5.355469 2.464844-6.785156 1.640625-1.425781 3.753906-2.140625 6.332031-2.140625 2.972657 0 5.199219.832031 6.6875 2.492188 1.484375 1.660156 2.230469 3.574218 2.230469 5.734374 0 2.707032-1.273438 5.488282-3.8125 8.347657-2.542969 2.859375-5.652344 5.601562-9.328125 8.230469l-10.628906 7.878906c-3.507813 2.617187-6.503907 5.574218-8.984375 8.882812-2.476563 3.304688-3.714844 6.613282-3.714844 9.917969v11.1875c0 1.539063.867188 2.847656 2.601562 3.925781 1.738282 1.074219 3.492188 1.613282 5.269532 1.613282h41.214844c1.464843 0 2.742187-.804688 3.824218-2.40625 1.078125-1.605469 1.621094-3.441407 1.621094-5.503907 0-2.066406-.546875-3.859375-1.632812-5.390625-1.089844-1.527344-2.371094-2.292968-3.84375-2.292968zm0 0"/></g></svg>