<svg id="Capa_1" enable-background="new 0 0 510.17 510.17" height="512" viewBox="0 0 510.17 510.17" width="512" xmlns="http://www.w3.org/2000/svg"><g><path id="XMLID_2326_" d="m271.769 173.853c-.142-.008-170.132-9.584-170.264-9.592-26.713-35.402-33.738-81.537-18.791-123.414l2.228-6.24 6.112-2.557c95.468-39.923 196.553 40.722 180.715 141.803z" fill="#b9e68b"/><path id="XMLID_2329_" d="m268.464 158.273-6.113-2.556-2.228-6.241c-25.233-70.697 45.52-138.798 115.5-109.537l6.113 2.557 2.227 6.24c11.246 31.51 3.234 67.147-20.41 90.792-25.105 25.106-62.444 32.397-95.089 18.745z" fill="#73ca7a"/><path id="XMLID_2322_" d="m240.061 0h30v165h-30z" fill="#b57a6a"/><path id="XMLID_44_" d="m255.048 0h15.013v165h-15.013z" fill="#8d5b4a"/><path id="XMLID_2325_" d="m304.761 500c-16.421 0-27.351-3.862-29.703-4.385-7.431-2.259-14.209 7.053-20.011 7.075-10.909.043-18.363 2.76-20.204 3.035-112.635 33.821-227.085-131.968-196.086-273.607 21.6-98.699 105.038-134.174 180.732-85.452 10.91 7.023 23.272 10.448 35.559 10.443 12.473-.005 24.867 6.455 35.583-.443 69.883-44.983 138.552-18.858 166.217 68.483 40.475 127.774-41.72 274.847-152.087 274.851z" fill="#db686b"/><path id="XMLID_475_" d="m466.848 215.15c-27.665-87.341-106.334-113.466-176.217-68.483-10.716 6.898-23.11 10.433-35.583 10.438v345.588c5.802-.022 12.578.709 20.01 2.968 2.353.523 13.282 4.385 29.703 4.385 110.367-.005 202.562-167.123 162.087-294.896z" fill="#c21456"/><path id="XMLID_2324_" d="m369.277 453.94c61.961-50.178 93.041-153.74 68.973-229.732-20.297-64.079-74.541-88.905-131.38-52.316-32.652 21.018-73.081 19.659-103.618 0-94.938-61.112-167.323 49.627-129.124 176.858 13.087 43.591 36.78 80.948 66.716 105.19 47.115 38.155 84.578 22.984 85.59 22.986 18.728-5.688 38.524-5.688 57.251 0 1.39-.001 38.083 15.491 85.592-22.986z" fill="#fcf7e2"/><path id="XMLID_490_" d="m438.25 224.208c-20.297-64.079-74.532-88.91-131.38-52.316-16.074 10.346-34.031 15.26-51.766 15.247v285.523c9.616.004 19.232 1.425 28.581 4.265 1.39-.002 38.083 15.49 85.592-22.986 61.961-50.178 93.041-153.741 68.973-229.733z" fill="#f6e486"/><path id="XMLID_2321_" d="m195.061 270h30v60h-30z" fill="#4e6ba6"/><path id="XMLID_2320_" d="m285.061 270h30v60h-30z" fill="#28487a"/></g></svg>