<svg id="Flat" height="512" viewBox="0 0 512 512" width="512" xmlns="http://www.w3.org/2000/svg"><path d="m192 216v-192h-48v192s-72 56-72 160v80a32 32 0 0 0 32 32h128a32 32 0 0 0 32-32v-80c0-104-72-160-72-160z" fill="#6a7073"/><path d="m144 24h48v168h-48z" fill="#d4a811"/><path d="m192 352a24 24 0 0 0 -48 0h-40v88h128v-88z" fill="#f7cc38"/><path d="m144 160 24 16 24-16v48l-24 16-24-16z" fill="#f7cc38"/><path d="m400 472h-32v-128h-16v128h-32a8 8 0 0 0 0 16h80a8 8 0 0 0 0-16z" fill="#c3c6c7"/><path d="m360 352a48 48 0 0 1 -48-48l16-96h64l16 96a48 48 0 0 1 -48 48z" fill="#dcdee0"/><path d="m408 304a48 48 0 0 1 -96 0l8-48h80z" fill="#fbe36a"/><rect fill="#e3bb33" height="32" rx="16" width="80" x="128" y="56"/></svg>