<svg id="Capa_1" enable-background="new 0 0 512 512" height="512" viewBox="0 0 512 512" width="512" xmlns="http://www.w3.org/2000/svg"><g><g><path d="m52.331 293.187v153.578h203.669l21.876-109.232-21.876-112.713z" fill="#ebf4fe"/><path d="m459.669 293.187-203.669-68.367v221.945h203.669z" fill="#d2e5fc"/></g><g><g><g><g><g><path d="m67.261 264.018v-95.036h88.129v68.546z" fill="#fa5b77"/></g></g></g></g><g><path d="m0 289.398v68.679l256-113.614 21.876-27.963-21.876-43.908z" fill="#dd3863"/><path d="m512 289.408-256-116.816v71.871l256 113.638z" fill="#be1d64"/><path d="m221.904 314.433v42.213h34.096l17.048-38.155-17.048-38.155c-18.801 0-34.096 15.296-34.096 34.097z" fill="#b5d7fb"/></g></g><path d="m255.993 423c-17.991 0-26.475-3.977-36.299-8.582-11.417-5.352-24.357-11.418-49.032-11.418-24.674 0-37.614 6.066-49.031 11.418-9.824 4.605-18.308 8.582-36.3 8.582s-26.476-3.977-36.3-8.582c-11.417-5.352-24.357-11.418-49.031-11.418v50l72.321 30.6 183.679 18.248 15-49.424-15-29.424c-.002 0-.004 0-.007 0z" fill="#74dbf2"/><path d="m462.965 414.418c-9.824 4.605-18.309 8.582-36.302 8.582s-26.479-3.977-36.303-8.582c-11.418-5.352-24.359-11.418-49.034-11.418s-37.616 6.066-49.033 11.418c-9.823 4.604-18.307 8.581-36.293 8.582v78.848l208.688-27.595 47.312-21.253v-50c-24.676 0-37.617 6.066-49.035 11.418z" fill="#38bdf0"/><path d="m219.694 464.418c-11.417-5.352-24.357-11.418-49.032-11.418-24.674 0-37.614 6.066-49.031 11.418-9.824 4.605-18.308 8.582-36.3 8.582s-26.476-3.977-36.3-8.582c-11.417-5.352-24.357-11.418-49.031-11.418v59h256l15-16.097-15-22.903c-.002 0-.004 0-.007 0-17.991 0-26.474-3.977-36.299-8.582z" fill="#98f9fd"/><path d="m512 512v-59c-24.676 0-37.617 6.066-49.035 11.418-9.824 4.605-18.309 8.582-36.302 8.582s-26.479-3.977-36.303-8.582c-11.418-5.352-24.359-11.418-49.034-11.418s-37.616 6.066-49.033 11.418c-9.823 4.604-18.307 8.581-36.293 8.582v39z" fill="#74dbf2"/><path d="m290.096 356.645v-42.213c0-18.801-15.296-34.096-34.096-34.096v76.309z" fill="#a4c9fb"/><g><path d="m433.426 30.674c-14.84 21.543-16.557 32.321-16.557 38.555 0 23.692 18.472 42.968 41.177 42.968.022 0 .044-.002.066-.002l14.075-50.437-14.034-61.758s-17.341 19.953-24.727 30.674z" fill="#98f9fd"/><path d="m499.224 69.229c0-6.234-1.716-17.012-16.557-38.555-7.065-10.256-23.134-29.062-24.514-30.674l-.04 112.195c22.674-.038 41.111-19.297 41.111-42.966z" fill="#74dbf2"/></g><g><path d="m378.924 84.423c-17.846 25.905-19.91 38.866-19.91 46.362 0 28.49 22.213 51.669 49.516 51.669.027 0 .053-.002.079-.002l16.925-60.65-16.877-74.264c.001 0-20.852 23.993-29.733 36.885z" fill="#98f9fd"/><path d="m458.047 130.786c0-7.496-2.064-20.457-19.91-46.362-8.496-12.333-27.819-34.947-29.479-36.886l-.048 134.915c27.267-.046 49.437-23.205 49.437-51.667z" fill="#74dbf2"/></g></g></svg>