<svg id="Layer_1" enable-background="new 0 0 512 512" height="512" viewBox="0 0 512 512" width="512" xmlns="http://www.w3.org/2000/svg"><g><path d="m154.261 183.799c-9.428-9.428-25.552-2.789-25.606 10.545l-.122 29.523c0 29.388-5.83 58.038-17.325 85.117-11.14 26.241-27.531 49.926-47.688 70.084l-59.127 59.125c-5.858 5.858-5.858 15.355 0 21.213l48.2 48.2c2.929 2.93 6.768 4.394 10.607 4.394s7.678-1.464 10.606-4.394l60.37-60.371c20.32-20.32 44.086-36.199 70.637-47.196 26.55-10.997 54.583-16.573 83.319-16.573l29.523-.122c13.334-.055 19.973-16.178 10.545-25.606z" fill="#82fa73"/><path d="m63.2 512c3.839 0 7.678-1.464 10.606-4.394l60.37-60.371c20.32-20.32 44.086-36.199 70.637-47.196 26.55-10.997 54.583-16.573 83.319-16.573l29.523-.122c13.334-.055 19.973-16.178 10.545-25.607l-86.97-86.97-212.736 212.739 24.1 24.1c2.928 2.93 6.767 4.394 10.606 4.394z" fill="#41d76c"/><path d="m368.467 447.733c-52.567 0-95.333-42.767-95.333-95.333 0-5.3.425-10.524 1.271-15.654-1.295.052-2.595.079-3.896.079-52.567 0-95.333-42.766-95.333-95.333 0-1.301.026-2.601.079-3.896-5.13.846-10.354 1.271-15.653 1.271-52.567 0-95.333-42.767-95.333-95.333s42.764-95.334 95.331-95.334c9.435 0 18.624 1.345 27.463 4.011 15.936-31.222 48.037-52.211 85.004-52.211 28.39 0 55.02 12.684 72.956 33.983 16.096-11.525 35.594-17.916 55.578-17.916 52.567 0 95.333 42.766 95.333 95.333 0 19.99-6.392 39.49-17.916 55.582 21.296 17.94 33.982 44.569 33.982 72.951 0 36.924-20.955 69.05-52.208 85.005 2.664 8.841 4.008 18.029 4.008 27.461 0 52.568-42.766 95.334-95.333 95.334z" fill="#41d76c"/><path d="m274.404 336.746c-.846 5.13-1.271 10.354-1.271 15.654 0 52.567 42.767 95.333 95.333 95.333s95.334-42.766 95.334-95.333c0-9.433-1.344-18.621-4.008-27.461 31.253-15.956 52.208-48.082 52.208-85.006 0-28.382-12.686-55.011-33.983-72.952 11.524-16.092 17.916-35.592 17.916-55.582 0-26.283-10.691-50.117-27.954-67.379l-264.85 264.85c17.263 17.262 41.096 27.954 67.379 27.954 1.301.001 2.601-.026 3.896-.078z" fill="#00b464"/><path d="m352.4 254.933c-8.284 0-15-6.716-15-15 0-36.025-29.308-65.333-65.333-65.333-8.284 0-15-6.716-15-15s6.716-15 15-15c52.567 0 95.333 42.766 95.333 95.333 0 8.284-6.716 15-15 15z" fill="#00b464"/><path d="m352.4 254.933c8.284 0 15-6.716 15-15 0-26.283-10.691-50.117-27.954-67.379l-21.203 21.203c11.83 11.83 19.157 28.163 19.157 46.176 0 8.284 6.716 15 15 15z" fill="#009682"/></g></svg>