<svg height="512" viewBox="0 0 58 58" width="512" xmlns="http://www.w3.org/2000/svg"><g id="Page-1" fill="none" fill-rule="evenodd"><g id="007--Word-Processing"><path id="Path" d="m24 41h-22c-1.10320187-.0032948-1.9967052-.8967981-2-2v-34h50v22.8z" fill="#ecf0f1"/><path id="Path" d="m50 2v6h-50v-6c.0032948-1.10320187.89679813-1.9967052 2-2h46c1.1032019.0032948 1.9967052.89679813 2 2z" fill="#4482c3"/><path id="Path" d="m58 39.42v3.16c-.0031474.3341542-.1716936.6450284-.45.83l-1.81 1.19-1.77 4.28.44 2.12c.0621112.3309285-.0425969.6712298-.28.91l-2.22 2.22c-.2387702.2374031-.5790715.3421112-.91.28l-2.12-.44-4.28 1.77-1.19 1.81c-.1849716.2783064-.4958458.4468526-.83.45h-3.16c-.3341542-.0031474-.6450284-.1716936-.83-.45l-1.19-1.81-4.28-1.77-2.12.44c-.3309285.0621112-.6712298-.0425969-.91-.28l-2.22-2.22c-.2374031-.2387702-.3421112-.5790715-.28-.91l.44-2.12-1.77-4.28-1.81-1.19c-.2783064-.1849716-.4468526-.4958458-.45-.83v-3.16c.0031474-.3341542.1716936-.6450284.45-.83l1.81-1.19 1.77-4.28-.44-2.12c-.0621112-.3309285.0425969-.6712298.28-.91l2.22-2.22c.2387702-.2374031.5790715-.3421112.91-.28l2.12.44 4.28-1.77 1.19-1.81c.1849716-.2783064.4958458-.4468526.83-.45h3.16c.3341542.0031474.6450284.1716936.83.45l1.19 1.81 4.28 1.77 1.12-.23 1-.21c.3309285-.0621112.6712298.0425969.91.28l2.22 2.22c.2374031.2387702.3421112.5790715.28.91l-.44 2.12 1.77 4.28 1.81 1.19c.2783064.1849716.4468526.4958458.45.83z" fill="#bdc3c7"/><circle id="Oval" cx="41" cy="41" fill="#7f8c8d" r="10"/><circle id="Oval" cx="4" cy="4" fill="#7ed09e" r="1"/><circle id="Oval" cx="8" cy="4" fill="#f3d55b" r="1"/><circle id="Oval" cx="12" cy="4" fill="#ff5364" r="1"/><g fill="#95a5a5"><path id="Path" d="m23 13h-18c-.55228475 0-1-.4477153-1-1s.44771525-1 1-1h18c.5522847 0 1 .4477153 1 1s-.4477153 1-1 1z"/><path id="Path" d="m23 17h-18c-.55228475 0-1-.4477153-1-1s.44771525-1 1-1h18c.5522847 0 1 .4477153 1 1s-.4477153 1-1 1z"/><path id="Path" d="m23 21h-18c-.55228475 0-1-.4477153-1-1s.44771525-1 1-1h18c.5522847 0 1 .4477153 1 1s-.4477153 1-1 1z"/><path id="Path" d="m23 25h-18c-.55228475 0-1-.4477153-1-1s.44771525-1 1-1h18c.5522847 0 1 .4477153 1 1s-.4477153 1-1 1z"/><path id="Path" d="m23 29h-18c-.55228475 0-1-.4477153-1-1s.44771525-1 1-1h18c.5522847 0 1 .4477153 1 1s-.4477153 1-1 1z"/><path id="Path" d="m14 33h-9c-.55228475 0-1-.4477153-1-1s.44771525-1 1-1h9c.5522847 0 1 .4477153 1 1s-.4477153 1-1 1z"/><path id="Path" d="m45 13h-18c-.5522847 0-1-.4477153-1-1s.4477153-1 1-1h18c.5522847 0 1 .4477153 1 1s-.4477153 1-1 1z"/><path id="Path" d="m45 17h-18c-.5522847 0-1-.4477153-1-1s.4477153-1 1-1h18c.5522847 0 1 .4477153 1 1s-.4477153 1-1 1z"/><path id="Path" d="m45 21h-18c-.5522847 0-1-.4477153-1-1s.4477153-1 1-1h18c.5522847 0 1 .4477153 1 1s-.4477153 1-1 1z"/></g></g></g></svg>