<svg id="Flat" height="512" viewBox="0 0 512 512" width="512" xmlns="http://www.w3.org/2000/svg"><path d="m144 24h320v464h-320z" fill="#6ed2f0"/><path d="m376 24h88v96h-88z" fill="#3cb4d7"/><path d="m96 72h48a0 0 0 0 1 0 0v416a0 0 0 0 1 0 0 48 48 0 0 1 -48-48v-368a0 0 0 0 1 0 0z" fill="#3cb4d7"/><path d="m464 120h-320a48 48 0 0 1 0-96h320a48.007 48.007 0 0 0 -47.34 40.03 48.452 48.452 0 0 0 0 15.94 48.007 48.007 0 0 0 47.34 40.03z" fill="#e9eef2"/><path d="m416 72a48.612 48.612 0 0 0 .66 7.97q-.33.03-.66.03h-192a8 8 0 0 1 0-16h192q.33 0 .66.03a48.612 48.612 0 0 0 -.66 7.97z" fill="#dcdee0"/><path d="m208 184h192v96h-192z" fill="#e9eef2"/><g fill="#dcdee0"><path d="m352 256h-96a8 8 0 0 1 0-16h96a8 8 0 0 1 0 16z"/><path d="m328 224h-48a8 8 0 0 1 0-16h48a8 8 0 0 1 0 16z"/></g></svg>