<svg id="Layer_1" height="512" viewBox="0 0 32 32" width="512" xmlns="http://www.w3.org/2000/svg" data-name="Layer 1"><circle cx="16" cy="27" fill="#ffd98c" r="4" transform="matrix(.177 -.984 .984 .177 -13.407 37.964)"/><path d="m28.832 13.929a1 1 0 0 1 -.986-.842 11.959 11.959 0 0 0 -4.079-7.221 1 1 0 1 1 1.293-1.526 13.953 13.953 0 0 1 4.76 8.43 1 1 0 0 1 -.828 1.146.968.968 0 0 1 -.16.013z" fill="#fb8890"/><path d="m3.168 13.929a.968.968 0 0 1 -.16-.013 1 1 0 0 1 -.828-1.146 13.953 13.953 0 0 1 4.76-8.43 1 1 0 1 1 1.293 1.526 11.959 11.959 0 0 0 -4.079 7.221 1 1 0 0 1 -.986.842z" fill="#fb8890"/><path d="m26.1 20.435a.171.171 0 0 1 -.1-.145v-5.29a10.406 10.406 0 0 0 -7.344-9.636 2.95 2.95 0 0 0 .344-1.364 3 3 0 0 0 -6 0 2.959 2.959 0 0 0 .346 1.369 10.009 10.009 0 0 0 -7.346 9.631v5.29a.169.169 0 0 1 -.077.136 3.469 3.469 0 0 0 1.547 6.574h17.06a3.469 3.469 0 0 0 1.57-6.565zm-11.1-16.435a1 1 0 1 1 1 1 1 1 0 0 1 -1-1z" fill="#b3dafe"/><path d="m5.377 23.53a3.452 3.452 0 0 1 1.923-3.1.169.169 0 0 0 .077-.136v-5.294a10.009 10.009 0 0 1 7.346-9.631 2.959 2.959 0 0 1 -.346-1.369 3 3 0 0 1 2.311-2.913 2.974 2.974 0 0 0 -3.688 2.913 2.959 2.959 0 0 0 .346 1.369 10.009 10.009 0 0 0 -7.346 9.631v5.29a.169.169 0 0 1 -.077.136 3.469 3.469 0 0 0 1.547 6.574h1.377a3.474 3.474 0 0 1 -3.47-3.47z" fill="#95c6f5"/><path d="m20 27a3.824 3.824 0 0 1 -.11.9h-7.78a3.824 3.824 0 0 1 -.11-.9z" fill="#ffce66"/></svg>