<svg id="Capa_1" enable-background="new 0 0 497 497" height="512" viewBox="0 0 497 497" width="512" xmlns="http://www.w3.org/2000/svg"><g><path d="m488.9 64.39-19.41 19.42h-.01l-37.895-19.842-18.395-36.448 19.42-19.42c10.8-10.8 28.31-10.8 39.11 0l17.18 17.18c10.8 10.8 10.8 28.31 0 39.11z" fill="#dce6eb"/><path d="m488.9 64.39-19.41 19.42h-.01l-14-14h.01l19.41-19.42c10.8-10.8 10.8-28.31 0-39.11l14 14c10.8 10.8 10.8 28.31 0 39.11z" fill="#c8d2dc"/><path d="m134.319 304.465 24.046-12.023 28.37 17.781 17.823 28.412-12.023 24.046c-12.763 25.527-29.559 48.829-49.74 69.01l-55.587 55.587c-12.962 12.962-33.978 12.962-46.94 0l-30.546-30.546c-12.962-12.962-12.962-33.978 0-46.94l55.587-55.587c20.18-20.181 43.483-36.976 69.01-49.74z" fill="#ab7b64"/><path d="m204.56 338.64-12.03 24.04c-12.76 25.53-29.55 48.83-49.73 69.01l-55.59 55.59c-12.96 12.96-33.98 12.96-46.94 0l-14-14c12.96 12.96 33.98 12.96 46.94 0l55.59-55.59c20.18-20.18 36.97-43.48 49.73-69.01l12.03-24.04z" fill="#9a6a53"/><path d="m17.143 404.055h109.611v42.033h-109.611z" fill="#f5de46" transform="matrix(.707 .707 -.707 .707 321.644 73.626)"/><path d="m82.666 446.91h42.037v19.799h-42.037z" fill="#f3d332" transform="matrix(.707 -.707 .707 .707 -292.603 207.046)"/><path d="m125.56 448.96-29.72 29.73-.02-.02 29.73-29.72z" fill="#f3d332"/><path d="m413.19 27.52-134.45 134.46-.28.27c-9.12 9.11-16.13 20.11-20.55 32.23l-6.95 19.04c-2.82 7.71-7.95 14.38-14.68 19.08l-42.397 29.666 39.915 41.362 30.612-43.088c4.7-6.62 11.3-11.66 18.92-14.44l19.19-7.01c12.12-4.42 23.12-11.43 32.23-20.55l.28-.27 134.45-134.46z" fill="#e9edf1"/><path d="m469.48 83.81-134.45 134.46-.28.27c-9.11 9.12-20.11 16.13-32.23 20.55l-19.19 7.01c-7.62 2.78-14.22 7.82-18.92 14.44l-30.612 43.088-13.043-15.17 29.655-41.917c4.7-6.62 11.3-11.66 18.92-14.44l19.19-7.01c12.12-4.42 23.12-11.43 32.23-20.55l.28-.27 134.45-134.461z" fill="#dce6eb"/><path d="m184.999 248.668 63.333 63.333c6.481 6.481 6.481 16.989 0 23.47l-11.735 11.735c-6.481 6.481-16.989 6.481-23.47 0l-63.333-63.333c-6.481-6.481-6.481-16.989 0-23.47l11.735-11.735c6.481-6.481 16.989-6.481 23.47 0z" fill="#f5de46"/><path d="m248.33 335.47-11.73 11.74c-6.48 6.48-16.99 6.48-23.47 0l-9.03-9.03c5.86 2.12 12.69.83 17.39-3.87l13.95-13.95c4.7-4.7 5.99-11.51 3.87-17.38l9.02 9.02c6.48 6.48 6.48 16.99 0 23.47z" fill="#f3d332"/></g></svg>