<svg id="Layer_1" enable-background="new 0 0 512 512" height="512" viewBox="0 0 512 512" width="512" xmlns="http://www.w3.org/2000/svg"><g><path d="m118.149 59.511h328.424v95.548h-328.424z" fill="#f3f0f3"/><path d="m118.149 59.511h328.424v95.548h-328.424z" fill="#f3f0f3"/><path d="m131.097 73.261v68.046c0 1.123.91 2.033 2.033 2.033h333.806c3.414 0 6.181 2.767 6.181 6.181v18.543c0 3.414-2.767 6.181-6.181 6.181h-340.99c-14.224 0-25.755-11.531-25.755-25.755v-82.413c0-14.224 11.531-25.755 25.755-25.755h340.99c3.414 0 6.181 2.767 6.181 6.181v18.543c0 3.414-2.767 6.181-6.181 6.181h-333.806c-1.123.001-2.033.911-2.033 2.034z" fill="#fec165"/><g fill="#fdb441"><path d="m466.936 143.341h-30.906c3.414 0 6.181 2.767 6.181 6.181v18.543c0 3.414-2.767 6.181-6.181 6.181h30.905c3.414 0 6.181-2.767 6.181-6.181v-18.543c.001-3.414-2.766-6.181-6.18-6.181z"/><path d="m466.936 40.323h-30.906c3.414 0 6.181 2.767 6.181 6.181v18.543c0 3.414-2.767 6.181-6.181 6.181h30.905c3.414 0 6.181-2.767 6.181-6.181v-18.543c.001-3.414-2.766-6.181-6.18-6.181z"/></g><path d="m415.668 71.229h30.905v72.113h-30.905z" fill="#e2dee2"/><path d="m75.133 191.9h328.424v95.548h-328.424z" fill="#f3f0f3"/><path d="m75.133 191.9h328.424v95.548h-328.424z" fill="#f3f0f3"/><path d="m88.08 205.65v68.046c0 1.123.91 2.033 2.033 2.033h333.807c3.414 0 6.181 2.767 6.181 6.181v18.543c0 3.414-2.767 6.181-6.181 6.181h-340.99c-14.224 0-25.755-11.531-25.755-25.755v-82.414c0-14.224 11.531-25.755 25.755-25.755h340.99c3.414 0 6.181 2.767 6.181 6.181v18.543c0 3.414-2.767 6.181-6.181 6.181h-333.806c-1.123.002-2.034.912-2.034 2.035z" fill="#fe646f"/><g fill="#fd4755"><path d="m423.919 275.729h-30.905c3.414 0 6.181 2.767 6.181 6.181v18.543c0 3.414-2.767 6.181-6.181 6.181h30.905c3.414 0 6.181-2.767 6.181-6.181v-18.543c.001-3.413-2.767-6.181-6.181-6.181z"/><path d="m423.919 172.711h-30.905c3.414 0 6.181 2.767 6.181 6.181v18.543c0 3.414-2.767 6.181-6.181 6.181h30.905c3.414 0 6.181-2.767 6.181-6.181v-18.543c.001-3.413-2.767-6.181-6.181-6.181z"/></g><path d="m372.652 203.618h30.905v72.113h-30.905z" fill="#e2dee2"/><path d="m109.129 323.033h328.424v95.548h-328.424z" fill="#f3f0f3"/><path d="m109.129 323.033h328.424v95.548h-328.424z" fill="#f3f0f3"/><path d="m122.076 336.783v68.046c0 1.123.91 2.033 2.033 2.033h333.806c3.414 0 6.181 2.767 6.181 6.181v18.543c0 3.414-2.767 6.181-6.181 6.181h-340.99c-14.224 0-25.755-11.531-25.755-25.755v-82.414c0-14.224 11.531-25.755 25.755-25.755h340.99c3.414 0 6.181 2.767 6.181 6.181v18.543c0 3.414-2.767 6.181-6.181 6.181h-333.805c-1.123.002-2.034.912-2.034 2.035z" fill="#7ca1b1"/><g fill="#678d98"><path d="m457.915 406.862h-30.905c3.414 0 6.181 2.767 6.181 6.181v18.543c0 3.414-2.767 6.181-6.181 6.181h30.905c3.414 0 6.181-2.767 6.181-6.181v-18.543c.001-3.413-2.767-6.181-6.181-6.181z"/><path d="m457.915 303.844h-30.905c3.414 0 6.181 2.767 6.181 6.181v18.543c0 3.414-2.767 6.181-6.181 6.181h30.905c3.414 0 6.181-2.767 6.181-6.181v-18.543c.001-3.414-2.767-6.181-6.181-6.181z"/></g><path d="m406.648 334.751h30.905v72.113h-30.905z" fill="#e2dee2"/><path d="m505.819 471.677h-499.638c-3.414 0-6.181-2.767-6.181-6.181v-22.664c0-3.414 2.767-6.181 6.181-6.181h499.638c3.414 0 6.181 2.767 6.181 6.181v22.664c0 3.414-2.767 6.181-6.181 6.181z" fill="#d77f4a"/><path d="m505.819 436.651h-30.905c3.414 0 6.181 2.767 6.181 6.181v22.664c0 3.414-2.767 6.181-6.181 6.181h30.905c3.414 0 6.181-2.767 6.181-6.181v-22.664c0-3.413-2.767-6.181-6.181-6.181z" fill="#c86d36"/></g></svg>