<svg id="Layer_1" enable-background="new 0 0 512 512" height="512" viewBox="0 0 512 512" width="512" xmlns="http://www.w3.org/2000/svg"><g clip-rule="evenodd" fill-rule="evenodd"><path d="m73.57 183.925c-5.415.992-10.61-2.593-11.602-8.008s2.593-10.61 8.008-11.602c35.571-6.565 74.848-20.812 111.799-38.551 37.981-18.233 73.407-40.123 99.77-61.134l-24.352-3.943c-5.437-.863-9.144-5.97-8.281-11.406.863-5.437 5.97-9.144 11.406-8.282l48.682 7.882c5.437.863 9.144 5.97 8.281 11.406-.08.503-.196.992-.346 1.463l-12.873 47.168c-1.445 5.307-6.92 8.438-12.227 6.992-5.307-1.445-8.438-6.92-6.992-12.227l5.647-20.691c-27.027 20.996-62.377 42.62-100.121 60.739-38.431 18.452-79.44 33.299-116.799 40.194z" fill="#515151"/><g fill="#f2f2f2"><path d="m79.188 328.123h45.86l16.574 124.611c.857 6.445-3.393 12.414-9.747 13.791l-19.825 4.295c-3.54.767-6.878.09-9.839-1.996s-4.708-5.003-5.192-8.593z"/><path d="m338.701 150.21c16.176 0 29.41 13.235 29.41 29.41v241.286c0 16.176-13.235 29.41-29.41 29.41-15.095 0-27.626-11.525-29.234-26.211l-.002-.001c-41.152-32.909-106.194-58.881-179.252-66.875v6.131h-57.114c-34.705.001-63.099-28.393-63.099-63.097v-.001c0-34.704 28.394-63.098 63.098-63.098h57.114v6.131c73.057-7.993 138.064-33.624 179.217-66.532l.001-.001c1.449-14.847 14.059-26.552 29.271-26.552z"/><path d="m365.231 266.291v67.946c2.439.542 4.974.829 7.577.829 19.221 0 34.802-15.582 34.802-34.803s-15.581-34.802-34.802-34.802c-2.604 0-5.138.288-7.577.83z"/></g><path d="m130.213 237.165h-57.115c-34.704 0-63.098 28.394-63.098 63.098 0 34.704 28.394 63.098 63.098 63.098h57.114v-126.196z" fill="#eb745e"/><path d="m338.701 150.21c16.176 0 29.41 13.234 29.411 29.41v241.286c0 16.176-13.235 29.41-29.411 29.41-16.176 0-29.41-13.235-29.41-29.41v-241.286c-.001-16.175 13.234-29.41 29.41-29.41z" fill="#eb745e"/><path d="m412.531 375.364 38.526 22.243c6.162 3.558 14.055 1.404 17.595-4.757 3.545-6.17 1.395-14.05-4.76-17.603l-38.526-22.243c-6.162-3.558-14.054-1.404-17.595 4.757-3.545 6.169-1.395 14.049 4.76 17.603zm12.835-127.839 38.526-22.243c6.155-3.554 8.305-11.434 4.76-17.603-3.54-6.161-11.433-8.315-17.595-4.757l-38.526 22.243c-6.155 3.554-8.305 11.433-4.76 17.604 3.541 6.16 11.433 8.314 17.595 4.756zm21.5 65.7h42.172c7.159 0 12.961-5.802 12.961-12.961s-5.802-12.961-12.961-12.961h-42.172c-7.159 0-12.961 5.802-12.961 12.961s5.802 12.961 12.961 12.961z" fill="#eb745e"/></g></svg>