<svg height="512pt" viewBox="0 -8 512 512" width="512pt" xmlns="http://www.w3.org/2000/svg"><path d="m420.96875 443.402344h-401.632812c-10.679688 0-19.335938-8.65625-19.335938-19.335938v-369.402344c0-10.679687 8.65625-19.335937 19.335938-19.335937h401.632812c10.679688 0 19.335938 8.65625 19.335938 19.335937v369.402344c0 10.679688-8.65625 19.335938-19.335938 19.335938zm0 0" fill="#ededed"/><path d="m420.96875 35.328125h-33.9375v408.074219h33.9375c10.679688 0 19.335938-8.65625 19.335938-19.335938v-369.402344c0-10.675781-8.65625-19.335937-19.335938-19.335937zm0 0" fill="#d6d6d6"/><path d="m420.96875 35.328125h-401.632812c-10.679688 0-19.335938 8.65625-19.335938 19.335937v59.980469h440.304688v-59.980469c0-10.679687-8.65625-19.335937-19.335938-19.335937zm0 0" fill="#345863"/><path d="m440.304688 114.644531v-59.980469c0-10.679687-8.65625-19.335937-19.335938-19.335937h-33.941406v79.316406zm0 0" fill="#1e4751"/><g fill="#ff9c43"><path d="m66.035156 70.953125c-11.210937 0-20.300781-9.089844-20.300781-20.300781v-30.347656c0-11.214844 9.089844-20.304688 20.300781-20.304688 11.214844 0 20.304688 9.089844 20.304688 20.304688v30.347656c0 11.210937-9.089844 20.300781-20.304688 20.300781zm0 0"/><path d="m168.78125 70.953125c-11.214844 0-20.304688-9.089844-20.304688-20.300781v-30.347656c0-11.214844 9.089844-20.304688 20.304688-20.304688 11.210938 0 20.300781 9.089844 20.300781 20.304688v30.347656c0 11.210937-9.089843 20.300781-20.300781 20.300781zm0 0"/><path d="m271.523438 70.953125c-11.210938 0-20.300782-9.089844-20.300782-20.300781v-30.347656c0-11.214844 9.089844-20.304688 20.300782-20.304688 11.214843 0 20.304687 9.089844 20.304687 20.304688v30.347656c0 11.210937-9.089844 20.300781-20.304687 20.300781zm0 0"/><path d="m374.269531 70.953125c-11.214843 0-20.304687-9.089844-20.304687-20.300781v-30.347656c0-11.214844 9.089844-20.304688 20.304687-20.304688 11.210938 0 20.300781 9.089844 20.300781 20.304688v30.347656c0 11.210937-9.089843 20.300781-20.300781 20.300781zm0 0"/></g><path d="m226.261719 166.039062 20.742187 63.832032c.859375 2.648437 3.324219 4.441406 6.109375 4.441406h67.113281c6.222657 0 8.8125 7.960938 3.777344 11.621094l-54.300781 39.449218c-2.25 1.632813-3.191406 4.535157-2.332031 7.179688l20.738281 63.832031c1.925781 5.917969-4.847656 10.839844-9.882813 7.179688l-54.300781-39.445313c-2.25-1.636718-5.300781-1.636718-7.550781 0l-54.296875 39.445313c-5.035156 3.660156-11.808594-1.261719-9.886719-7.179688l20.738282-63.832031c.859374-2.648438-.082032-5.546875-2.332032-7.179688l-54.296875-39.449218c-5.035156-3.660156-2.449219-11.621094 3.773438-11.621094h67.117187c2.78125 0 5.25-1.792969 6.109375-4.441406l20.738281-63.832032c1.925782-5.917968 10.300782-5.917968 12.222657 0zm0 0" fill="#f43b45"/><path d="m403.070312 495.660156c-6.199218 0-11.246093-5.042968-11.246093-11.246094v-6.140624c0-1.503907-.992188-2.816407-2.414063-3.191407-7.15625-1.894531-14.035156-4.746093-20.445312-8.472656-.492188-.289063-1.054688-.4375-1.625-.4375-.890625 0-1.726563.347656-2.355469.976563l-4.347656 4.347656c-2.125 2.125-4.949219 3.292968-7.953125 3.292968s-5.828125-1.167968-7.953125-3.292968l-10.945313-10.945313c-4.386718-4.386719-4.386718-11.519531 0-15.90625l4.347656-4.347656c1.0625-1.0625 1.285157-2.699219.542969-3.980469-3.730469-6.410156-6.578125-13.289062-8.476562-20.445312-.375-1.421875-1.6875-2.414063-3.191407-2.414063h-6.140624c-6.199219 0-11.246094-5.046875-11.246094-11.246093v-15.476563c0-6.203125 5.046875-11.25 11.246094-11.25h6.140624c1.503907 0 2.816407-.992187 3.191407-2.414063 1.894531-7.152343 4.746093-14.03125 8.476562-20.445312.742188-1.277344.519531-2.914062-.542969-3.980469l-4.347656-4.34375c-4.386718-4.386719-4.386718-11.523437 0-15.90625l10.945313-10.945312c2.125-2.125 4.949219-3.296875 7.953125-3.296875s5.828125 1.171875 7.953125 3.296875l4.347656 4.34375c.628906.632812 1.464844.980469 2.355469.980469.570312 0 1.132812-.152344 1.625-.4375 6.414062-3.726563 13.292968-6.578126 20.445312-8.472657 1.417969-.378906 2.414063-1.6875 2.414063-3.191406v-6.140625c0-6.203125 5.042969-11.246094 11.246093-11.246094h15.480469c6.199219 0 11.246094 5.042969 11.246094 11.246094v6.140625c0 1.503906.992187 2.816406 2.414063 3.191406 7.152343 1.894531 14.03125 4.746094 20.445312 8.472657.492188.285156 1.054688.4375 1.625.4375.886719 0 1.722656-.347657 2.355469-.976563l4.347656-4.347656c2.121094-2.125 4.945313-3.296875 7.953125-3.296875 3.003906 0 5.828125 1.171875 7.953125 3.296875l10.945313 10.945312c4.382812 4.382813 4.382812 11.519531 0 15.90625l-4.347657 4.34375c-1.0625 1.066407-1.285156 2.703125-.542969 3.980469 3.730469 6.414062 6.578126 13.292969 8.476563 20.445312.375 1.421876 1.6875 2.414063 3.191406 2.414063h6.140625c6.199219 0 11.246094 5.046875 11.246094 11.25v15.476563c0 6.199218-5.046875 11.246093-11.246094 11.246093h-6.140625c-1.503906 0-2.816406.992188-3.191406 2.414063-1.898437 7.15625-4.746094 14.035156-8.476563 20.445312-.742187 1.28125-.519531 2.917969.542969 3.980469l4.347657 4.347656c4.382812 4.386719 4.382812 11.519531 0 15.90625l-10.945313 10.945313c-2.125 2.125-4.949219 3.292968-7.953125 3.292968-3.007812 0-5.832031-1.167968-7.957031-3.292968l-4.34375-4.34375c-.632813-.632813-1.46875-.980469-2.355469-.980469-.570312 0-1.132812.152344-1.625.4375-6.414062 3.726563-13.292969 6.578125-20.445312 8.472656-1.421876.378907-2.414063 1.691407-2.414063 3.195313v6.136718c0 6.203126-5.046875 11.25-11.25 11.25h-15.476563zm7.742188-129.523437c-15.625 0-28.339844 12.710937-28.339844 28.335937s12.714844 28.335938 28.339844 28.335938 28.335938-12.710938 28.335938-28.335938-12.710938-28.335937-28.335938-28.335937zm0 0" fill="#345863"/></svg>