<svg id="Layer_1" enable-background="new 0 0 512 512" height="512" viewBox="0 0 512 512" width="512" xmlns="http://www.w3.org/2000/svg"><g clip-rule="evenodd" fill-rule="evenodd"><path d="m227.574 135.747-116.636.132-31.843 145.192 120.64 119.473c9.76 9.763 25.735 9.757 35.494-.002 9.668-9.669 9.762-25.442.264-35.225l33.059 33.06c9.759 9.762 25.735 9.757 35.494-.003 9.646-9.646 9.761-25.369.33-35.155l19.662 19.663c9.759 9.762 25.735 9.757 35.494-.003 9.757-9.757 9.762-25.733 0-35.492l-2.931-2.924c9.762 9.738 25.719 9.725 35.471-.026 8.279-8.279 9.536-21.033 3.765-30.67l6.777-2.979z" fill="#fed9a8"/><path d="m174.611 375.666 25.124 24.878c9.76 9.763 25.735 9.757 35.494-.002l-82.619-82.618c-4.914-4.914-12.957-4.914-17.871 0-4.915 4.915-4.915 12.957 0 17.871zm62.598-8.387-33.652-33.652c-4.915-4.915-4.915-12.957 0-17.871 4.915-4.915 12.957-4.915 17.871 0l82.619 82.618c-9.76 9.76-25.735 9.765-35.494.003l-33.059-33.06c.611.63 1.183 1.286 1.715 1.962zm68.83-2.151c-.516-.658-1.07-1.295-1.662-1.909l19.662 19.663c9.759 9.762 25.735 9.757 35.494-.003l-82.619-82.619c-4.914-4.914-12.957-4.914-17.871 0-4.914 4.915-4.914 12.957 0 17.871zm55.478-15.504c-.609-.775-1.269-1.523-1.983-2.237l-2.931-2.924c9.762 9.738 25.719 9.725 35.471-.026l-82.619-82.618c-4.914-4.915-12.957-4.915-17.871 0-4.914 4.914-4.914 12.957 0 17.871z" fill="#efca9e"/><path d="m401.301 145.298-20.34 8.766c-12.198 5.306-24.992 4.455-36.609-2.034-49.325-27.561-65.916-43.397-94.086-32.865-7.151 2.674-14.708 8.651-22.691 16.582-21.313 21.172-45.666 56.262-73.452 79.562 29.317 35.213 61.002 18.401 92.418-3.353 16.762-11.607 38.936-9.607 53.351 4.808l92.181 92.18c1.479 1.479 2.734 3.101 3.765 4.822l40.065-17.519z" fill="#efca9e"/><g fill="#e6e6e6"><path d="m400.041 145.762 34.34 149.936c2.358 10.299 12.716 16.795 23.014 14.437l29.684-6.798c10.298-2.358 16.796-12.716 14.437-23.014l-36.935-161.265c-2.359-10.298-12.715-16.795-23.014-14.437l-29.684 6.798c-10.299 2.359-16.796 12.715-14.437 23.014z"/><path d="m77.619 295.698 36.935-161.265c2.359-10.299-4.137-20.656-14.437-23.014l-29.684-6.798c-10.299-2.359-20.655 4.138-23.014 14.437l-36.935 161.264c-2.359 10.298 4.138 20.656 14.437 23.014l29.684 6.798c10.298 2.359 20.655-4.137 23.014-14.436z"/></g></g></svg>