<svg enable-background="new 0 0 56 54" height="512" viewBox="0 0 56 54" width="512" xmlns="http://www.w3.org/2000/svg"><path id="Stroke-24_1_" d="m10.28 12.761c-1.812.413-3.621 1.245-5.292 2.533-3.758 2.896-5.629 7.52-4.79 11.463.447 2.1 1.537 3.781 3.024 4.978 1.064.857 1.545 2.245 1.207 3.619-.457 1.852-.391 3.795.299 5.643 1.504 4.032 5.641 6.61 10.354 6.741 2.212.06 4.267 1.042 5.522 2.659 2.645 3.41 6.038 4.167 10.15 3.239 3.707-.835 6.445-3.247 7.29-6.122.496-1.687 2.361-3.042 4.68-3.336 1.375-.175 2.787-.516 4.197-1.047 5.92-2.233 9.797-7.286 8.969-12.085-.283-1.641-1.048-3.063-2.167-4.225-1.906-1.979-1.916-4.876-.184-7.588 1.679-2.629 2.251-5.541 1.287-8.123-1.152-3.088-6.986-3.65-11.706-3.505-3.576.108-6.312-1.32-7.697-3.668-.018-.032-.037-.063-.056-.093-2.36-3.875-7.924-4.926-13.171-2.668-4.193 1.804-7.196 5.104-8.496 8.516-.568 1.491-1.925 2.727-3.42 3.069z" fill="#e7eced"/><g fill="#afb6bb"><path d="m32.001 7c-.337 0-.667-.171-.855-.48-.571-.938-1.902-1.52-3.474-1.52-1.057 0-2.067.398-3.277.919-.507.214-1.096-.017-1.314-.524s.016-1.095.524-1.313c1.376-.593 2.632-1.082 4.067-1.082 2.299 0 4.237.927 5.182 2.48.287.472.137 1.087-.334 1.374-.162.099-.342.146-.519.146z"/><path d="m10.999 18c-.456 0-.868-.313-.974-.777-.123-.538.214-1.074.752-1.197 1.808-.414 4.194-1.51 5.289-4.382.197-.515.775-.774 1.291-.578.516.197.775.774.578 1.291-1.115 2.927-3.436 4.869-6.711 5.618-.076.017-.151.025-.225.025z"/><path d="m41.999 41c-.495 0-.925-.367-.99-.871-.071-.548.315-1.05.863-1.12 2.238-.291 3.948-.698 5.553-1.827.452-.319 1.075-.208 1.393.243.318.452.209 1.075-.243 1.394-1.936 1.36-3.977 1.853-6.447 2.173-.043.005-.086.008-.129.008z"/><path d="m51 36c-.222 0-.445-.073-.63-.224-.429-.349-.494-.979-.146-1.407 1.334-1.642 1.347-2.362.063-3.668-.387-.394-.382-1.027.012-1.414.393-.388 1.026-.383 1.414.012 2.512 2.556 1.442 4.635.063 6.332-.198.243-.486.369-.776.369z"/></g><circle cx="23" cy="30" fill="#ebba16" r="12"/><path d="m19.001 24c-.325 0-.643-.158-.835-.449-.304-.461-.177-1.081.283-1.386 1.477-.975 2.787-1.165 4.551-1.165.552 0 1 .447 1 1s-.448 1-1 1c-1.48 0-2.374.125-3.449.835-.17.111-.361.165-.55.165z" fill="#ed8a19"/><path d="m15 31c-.552 0-1-.447-1-.999-.001-1.607.4-3.203 1.129-4.493.271-.48.881-.65 1.363-.378.481.271.65.881.379 1.362-.554.98-.871 2.259-.871 3.507 0 .553-.447 1.001-1 1.001z" fill="#ed8a19"/><path d="m34.76 32.39c-1.749-.869-3.91-1.39-6.26-1.39-5.799 0-10.5 3.134-10.5 7 0 1.248.496 2.418 1.354 3.432 1.151.367 2.375.568 3.646.568 5.809 0 10.652-4.128 11.76-9.61z" fill="#f7e6a1"/></svg>