<?xml version="1.0" encoding="iso-8859-1"?>
<!-- Generator: Adobe Illustrator 21.0.0, SVG Export Plug-In . SVG Version: 6.00 Build 0)  -->
<svg xmlns="http://www.w3.org/2000/svg" xmlns:xlink="http://www.w3.org/1999/xlink" version="1.1" id="Capa_1" x="0px" y="0px" viewBox="0 0 505.922 505.922" style="enable-background:new 0 0 505.922 505.922;" xml:space="preserve" width="512" height="512">
<g>
	<path style="fill:#76CDE6;" d="M323.487,293.382H182.435c-4.143,0-7.5,3.358-7.5,7.5v173.172c0,4.142,3.357,7.5,7.5,7.5h141.053   c4.143,0,7.5-3.358,7.5-7.5V300.882C330.987,296.74,327.63,293.382,323.487,293.382z"/>
	<path style="fill:#06A2C6;" d="M323.487,293.382h-23c4.143,0,7.5,3.358,7.5,7.5v173.172c0,4.142-3.357,7.5-7.5,7.5h23   c4.143,0,7.5-3.358,7.5-7.5V300.882C330.987,296.74,327.63,293.382,323.487,293.382z"/>
	<path style="fill:#3FB9DD;" d="M372.702,451.861H142.147c-12.406,0-22.5,10.093-22.5,22.5v14.386c0,4.142,3.357,7.5,7.5,7.5   h260.555c4.143,0,7.5-3.358,7.5-7.5v-14.386C395.202,461.954,385.108,451.861,372.702,451.861z"/>
	<path style="fill:#06A2C6;" d="M372.702,451.861h-23c12.406,0,22.5,10.093,22.5,22.5v14.386c0,4.142-3.357,7.5-7.5,7.5h23   c4.143,0,7.5-3.358,7.5-7.5v-14.386C395.202,461.954,385.108,451.861,372.702,451.861z"/>
	<path style="fill:#3FB9DD;" d="M483.422,9.675H22.5C10.094,9.675,0,19.769,0,32.175V69.33l20,125.068L0,319.465v61.989   c0,12.407,10.094,22.5,22.5,22.5h460.922c12.406,0,22.5-10.093,22.5-22.5v-61.989l-20-144.75l20-105.386V32.175   C505.922,19.769,495.828,9.675,483.422,9.675z"/>
	<path style="fill:#06A2C6;" d="M505.922,32.175c0-12.406-10.094-22.5-22.5-22.5h-23c12.406,0,22.5,10.094,22.5,22.5V69.33   l-20,105.386l20,144.75v61.989c0,12.407-10.094,22.5-22.5,22.5h23c12.406,0,22.5-10.093,22.5-22.5v-61.989l-20-144.75l20-105.386   V32.175z"/>
	<rect y="69.33" style="fill:#FFF4F1;" width="505.922" height="250.135"/>
	<rect x="482.922" y="69.33" style="fill:#ECEDEF;" width="23" height="250.135"/>
	<circle style="fill:#FFF4F1;" cx="256.372" cy="360.66" r="14.938"/>
	<path style="fill:#B6E4F2;" d="M205.182,232.673c-1.919,0-3.839-0.732-5.304-2.197c-2.929-2.929-2.929-7.678,0-10.606   l71.026-71.026c2.93-2.929,7.678-2.929,10.607,0c2.929,2.929,2.929,7.678,0,10.606l-71.026,71.026   C209.021,231.94,207.101,232.673,205.182,232.673z"/>
	<path style="fill:#B6E4F2;" d="M253.303,232.673c-1.919,0-3.839-0.732-5.304-2.197c-2.929-2.929-2.929-7.678,0-10.606   l71.026-71.026c2.93-2.929,7.678-2.929,10.607,0c2.929,2.929,2.929,7.678,0,10.606l-71.026,71.026   C257.142,231.94,255.222,232.673,253.303,232.673z"/>
	<circle style="fill:#FFF4F1;" cx="470.755" cy="42.847" r="6.422"/>
	<circle style="fill:#FFF4F1;" cx="440.322" cy="42.847" r="6.422"/>
	<circle style="fill:#FFF4F1;" cx="409.889" cy="42.847" r="6.422"/>
</g>















</svg>
