<svg height="512" viewBox="0 0 128 128" width="512" xmlns="http://www.w3.org/2000/svg"><g><path d="m120.67 39.534v66a5 5 0 0 1 -5 5h-103.34a5 5 0 0 1 -5-5v-66a4.283 4.283 0 0 1 .06-.72 4.983 4.983 0 0 1 4.94-4.28h103.34a5 5 0 0 1 5 5z" fill="#5c5f66"/><path d="m120.67 39.556v10h-113.28v-10.72a4.983 4.983 0 0 1 4.94-4.28h26.52l10.687-15.773a3 3 0 0 1 2.484-1.317h24.018a3 3 0 0 1 2.483 1.317l10.688 15.773h26.46a5 5 0 0 1 5 5z" fill="#e6eeff"/><path d="m120.67 95.534v10a5 5 0 0 1 -5 5h-103.34a5 5 0 0 1 -5-5v-10z" fill="#e6eeff"/><circle cx="64" cy="73.034" fill="#b8bfcc" r="26.849" transform="matrix(.707 -.707 .707 .707 -32.898 66.646)"/><circle cx="64" cy="73.034" fill="#e6eeff" r="18.849" transform="matrix(.707 -.707 .707 .707 -32.897 66.646)"/><path d="m96.937 42.965h13.183v13.183h-13.183z" fill="#e5563a"/><path d="m19.121 21.443h5.273a5 5 0 0 1 5 5v8.091a0 0 0 0 1 0 0h-15.273a0 0 0 0 1 0 0v-8.091a5 5 0 0 1 5-5z" fill="#53565c"/></g></svg>