<svg height="512" viewBox="0 0 48 48" width="512" xmlns="http://www.w3.org/2000/svg"><g id="Line"><path d="m45.8 26a1 1 0 0 0 -1-.46 12 12 0 0 1 -6.63-.54l-5.66-4.6c-.1-.15-.19-.29-.28-.45a11.86 11.86 0 0 1 .89-13.44 1 1 0 0 0 .06-1.13 1 1 0 0 0 -1-.46 13.92 13.92 0 0 0 -11.29 14.84 1 1 0 0 0 .48.77l17.82 10.84a1.07 1.07 0 0 0 .91.07 14.32 14.32 0 0 0 1.75-.88 13.87 13.87 0 0 0 3.88-3.39 1 1 0 0 0 .07-1.17z" fill="#f9d67a"/><path d="m43.59 31.29a7.54 7.54 0 0 0 -4.72-1.87 8 8 0 0 0 -13.61-7 9 9 0 0 0 -17.26 3.58 2.81 2.81 0 0 0 0 .29 8.14 8.14 0 0 0 -6 7.81 9.16 9.16 0 0 0 9.26 8.9h28.74a6 6 0 0 0 6-6 7.58 7.58 0 0 0 -2.41-5.71z" fill="#005c66"/></g></svg>