<?xml version="1.0" encoding="iso-8859-1"?>
<!-- Generator: Adobe Illustrator 19.0.0, SVG Export Plug-In . SVG Version: 6.00 Build 0)  -->
<svg version="1.1" id="Capa_1" xmlns="http://www.w3.org/2000/svg" xmlns:xlink="http://www.w3.org/1999/xlink" x="0px" y="0px"
	 viewBox="0 0 512 512" style="enable-background:new 0 0 512 512;" xml:space="preserve">
<path style="fill:#FFC107;" d="M353.912,393.6c0-22.784,4.384-45.6,12.992-67.776c23.744-61.056,22.272-127.168,19.296-161.152
	c-0.736-8.256-7.68-14.592-15.968-14.592h-228.48c-8.288,0-15.2,6.336-15.936,14.592c-3.008,33.952-4.512,100.032,19.264,161.152
	c28.768,73.664,1.824,128.64,0.672,130.848c-1.152,2.272-1.76,4.768-1.76,7.328c0,26.464,21.536,48,48,48h128
	c26.464,0,48-21.536,48-48c0-2.496-0.64-4.992-1.728-7.232C366.136,456.544,353.912,431.616,353.912,393.6z"/>
<path style="fill:#FFECB3;" d="M333.464,32.032c-4.352,0.128-8.512,0.576-12.512,1.344C305.976,12.512,282.104,0,255.992,0
	s-49.984,12.512-64.928,33.376c-4.064-0.768-8.256-1.216-12.608-1.344c-35.168-0.96-68.768,21.856-78.816,55.584
	C83.384,142.08,123.96,192,175.992,192h16v64c0,17.664,14.336,32,32,32l0,0c17.664,0,32-14.336,32-32v-64h80
	c52.096,0,92.704-50.016,76.32-104.544C402.2,53.76,368.6,31.04,333.464,32.032z"/>
<g>
</g>
<g>
</g>
<g>
</g>
<g>
</g>
<g>
</g>
<g>
</g>
<g>
</g>
<g>
</g>
<g>
</g>
<g>
</g>
<g>
</g>
<g>
</g>
<g>
</g>
<g>
</g>
<g>
</g>
</svg>
