<?xml version="1.0" encoding="iso-8859-1"?>
<!-- Generator: Adobe Illustrator 19.0.0, SVG Export Plug-In . SVG Version: 6.00 Build 0)  -->
<svg version="1.1" id="Capa_1" xmlns="http://www.w3.org/2000/svg" xmlns:xlink="http://www.w3.org/1999/xlink" x="0px" y="0px"
	 viewBox="0 0 512 512" style="enable-background:new 0 0 512 512;" xml:space="preserve">
<path id="SVGCleanerId_0" style="fill:#FF9300;" d="M340.067,101.934l24.693-89.311C366.822,5.165,373.608,0,381.346,0h53.184
	c3.332,0,5.791,3.112,5.02,6.354l-6.137,25.804c-0.553,2.325-2.63,3.966-5.02,3.966H397.28c-2.366,0-4.429,1.609-5.005,3.904
	l-15.532,61.906H340.067z"/>
<g>
	<path id="SVGCleanerId_0_1_" style="fill:#FF9300;" d="M340.067,101.934l24.693-89.311C366.822,5.165,373.608,0,381.346,0h53.184
		c3.332,0,5.791,3.112,5.02,6.354l-6.137,25.804c-0.553,2.325-2.63,3.966-5.02,3.966H397.28c-2.366,0-4.429,1.609-5.005,3.904
		l-15.532,61.906H340.067z"/>
</g>
<rect x="233.8" y="319.51" style="fill:#E2EEFD;" width="44.4" height="144.53"/>
<rect x="256" y="319.51" style="fill:#C7DCF2;" width="22.2" height="144.53"/>
<path style="fill:#E2EEFD;" d="M349.627,512H162.372c-2.85,0-5.16-2.31-5.16-5.16v-16.236c0-14.67,11.893-26.563,26.563-26.563
	h144.45c14.67,0,26.563,11.893,26.563,26.563v16.236C354.787,509.69,352.477,512,349.627,512z"/>
<path style="fill:#C7DCF2;" d="M354.792,490.603v16.233c0,2.85-2.31,5.16-5.16,5.16H324.74v-21.393
	c0-14.665-11.888-26.564-26.563-26.564h30.052C342.899,464.039,354.792,475.932,354.792,490.603z"/>
<path style="fill:#E2EEFD;" d="M255.999,101.934H69.68c-3.231,0-5.668,2.936-5.071,6.112l13.108,69.807
	c6.252,24.678,28.46,41.961,53.917,41.961H256h124.366c25.457,0,47.665-17.283,53.917-41.961l13.108-69.807
	c0.596-3.176-1.84-6.112-5.071-6.112H255.999z"/>
<path style="fill:#C7DCF2;" d="M447.391,108.046l-13.105,69.812c-6.254,24.675-28.462,41.961-53.922,41.961h-27.358
	c25.459,0,47.668-17.286,53.922-41.961l14.252-75.924h21.139C445.551,101.934,447.987,104.87,447.391,108.046z"/>
<path style="fill:#E2EEFD;" d="M141.825,219.814c0,63.057,51.118,114.175,114.175,114.175s114.175-51.118,114.175-114.175
	L141.825,219.814L141.825,219.814z"/>
<path style="fill:#C7DCF2;" d="M370.179,219.818c0,63.055-51.125,114.169-114.18,114.169c-5.098,0-10.124-0.33-15.047-0.991
	c55.934-7.368,99.113-55.232,99.113-113.179L370.179,219.818L370.179,219.818z"/>
<path style="fill:#E57E03;" d="M436.763,18.064l-3.35,14.093c-0.553,2.325-2.63,3.967-5.02,3.967H397.28
	c-2.366,0-4.429,1.609-5.005,3.904l-15.532,61.906h-18.081l20.927-73.688c1.711-6.025,7.213-10.182,13.476-10.182L436.763,18.064
	L436.763,18.064z"/>
<g>
</g>
<g>
</g>
<g>
</g>
<g>
</g>
<g>
</g>
<g>
</g>
<g>
</g>
<g>
</g>
<g>
</g>
<g>
</g>
<g>
</g>
<g>
</g>
<g>
</g>
<g>
</g>
<g>
</g>
</svg>
