<?xml version="1.0" encoding="iso-8859-1"?>
<!-- Generator: Adobe Illustrator 19.0.0, SVG Export Plug-In . SVG Version: 6.00 Build 0)  -->
<svg version="1.1" id="Capa_1" xmlns="http://www.w3.org/2000/svg" xmlns:xlink="http://www.w3.org/1999/xlink" x="0px" y="0px"
	 viewBox="0 0 464 464" style="enable-background:new 0 0 464 464;" xml:space="preserve">
<path style="fill:#8DD3E7;" d="M320,120l-40-64h-96l-40,64H0v288h464V120H320z"/>
<path style="fill:#7FC0E6;" d="M400,120h64v288h-64V120z"/>
<path style="fill:#A15D30;" d="M0,192h464v184H0V192z"/>
<path style="fill:#824B27;" d="M374.744,192H89.256c-31.004,61.101-19.5,135.18,28.576,184h228.336
	C394.244,327.18,405.748,253.101,374.744,192L374.744,192z"/>
<g>
	<path style="fill:#FC88A1;" d="M80,88h48v32H80V88z"/>
	<path style="fill:#FC88A1;" d="M0,88h48v32H0V88z"/>
	<path style="fill:#FC88A1;" d="M352,80h80v40h-80V80z"/>
</g>
<path style="fill:#FC7B97;" d="M408,80h24v40h-24V80z"/>
<g>
	<path style="fill:#FDCD74;" d="M24,144h48v16H24V144z"/>
	<path style="fill:#FDCD74;" d="M88,144h16v16H88V144z"/>
	<circle style="fill:#FDCD74;" cx="388" cy="332" r="20"/>
</g>
<circle style="fill:#A2DAE7;" cx="232" cy="264" r="144"/>
<circle style="fill:#7FC0E6;" cx="232" cy="264" r="112"/>
<path style="fill:#FC5B68;" d="M231.872,335.504l-61.936-70.088c-10.674-10.595-13.007-26.992-5.712-40.144
	c9.032-16.211,29.494-22.03,45.705-12.999c4.945,2.755,9.113,6.714,12.119,11.511l9.824,15.72l9.728-15.592
	c9.847-15.765,30.61-20.563,46.375-10.716c4.836,3.02,8.825,7.22,11.593,12.204c7.277,13.093,5.027,29.419-5.52,40.056
	L231.872,335.504z"/>
<path style="fill:#F04855;" d="M298.888,224.304c-23.298,35.952-58.934,62.148-100.2,73.656l33.184,37.544l62.2-70.048
	c10.547-10.637,12.797-26.963,5.52-40.056C299.376,225.016,299.112,224.68,298.888,224.304z"/>
<g>
</g>
<g>
</g>
<g>
</g>
<g>
</g>
<g>
</g>
<g>
</g>
<g>
</g>
<g>
</g>
<g>
</g>
<g>
</g>
<g>
</g>
<g>
</g>
<g>
</g>
<g>
</g>
<g>
</g>
</svg>
