<svg id="Capa_1" enable-background="new 0 0 496.028 496.028" height="512" viewBox="0 0 496.028 496.028" width="512" xmlns="http://www.w3.org/2000/svg"><g><path d="m496.028 184.54c.013 49.007-39.704 88.745-88.711 88.758-.016 0-.032 0-.047 0l-341.907-1.855c-36.166-.066-65.43-29.439-65.363-65.605.065-35.152 27.873-63.982 63-65.316-18.141-47.284 5.483-100.321 52.766-118.463 44.344-17.014 94.341 2.648 115.216 45.311 15.795-37.504 59.003-55.102 96.507-39.306 27.312 11.503 45.074 38.249 45.083 67.884 0 2.416-.112 4.773-.337 7.13.673-.337 1.347-.591 2.02-.898 45.45-18.269 97.104 3.765 115.373 49.215 4.237 10.536 6.409 21.789 6.4 33.145z" fill="#eeefee"/><path d="m390.146 361.419v-47.114l-34.656-7.36c-2.311-8.1-5.554-15.904-9.664-23.256l19.328-29.747-33.339-33.298-29.712 19.334c-7.345-4.113-15.152-7.343-23.256-9.622l-7.36-34.698h-47.108l-7.36 34.656c-8.1 2.311-15.904 5.554-23.256 9.664l-29.706-19.334-33.339 33.298 19.328 29.724c-4.11 7.352-7.353 15.156-9.664 23.256l-34.656 7.36v47.114l34.703 7.384c2.279 8.104 5.509 15.91 9.622 23.256l-19.328 29.724 33.333 33.321 29.724-19.328c7.352 4.11 15.156 7.353 23.256 9.664l7.36 34.656h47.114l7.36-34.698c8.098-2.297 15.902-5.526 23.256-9.622l29.688 19.328 33.321-33.321-19.328-29.724c4.1-7.353 7.333-15.157 9.634-23.256zm-142.21 37.769c-33.87 0-61.326-27.457-61.326-61.326 0-33.87 27.457-61.326 61.326-61.326 33.853 0 61.303 27.431 61.326 61.285.016 33.876-27.432 61.351-61.308 61.367-.006 0-.012 0-.018 0z" fill="#575b6d"/></g></svg>