<?xml version="1.0" encoding="UTF-8"?>
<svg xmlns="http://www.w3.org/2000/svg" width="512" height="512" viewBox="0 0 128 128"><g><path d="M87,88.32V73.68H77.539a30.959,30.959,0,0,0-3.776-9.091l6.7-6.7L70.108,47.539l-6.7,6.7A30.962,30.962,0,0,0,54.32,50.46V41H39.679v9.473a31.2,31.2,0,0,0-9.085,3.768l-6.7-6.7L13.539,57.892l6.7,6.7a31.191,31.191,0,0,0-3.767,9.086H7V88.32h9.461a30.915,30.915,0,0,0,3.776,9.09l-6.7,6.7,10.353,10.353,6.7-6.7a30.938,30.938,0,0,0,9.09,3.776V121H54.32v-9.474a31.193,31.193,0,0,0,9.086-3.768l6.7,6.7,10.353-10.353-6.7-6.7a31.177,31.177,0,0,0,3.768-9.086ZM47,90.809A9.81,9.81,0,1,1,56.809,81,9.81,9.81,0,0,1,47,90.809Z" fill="#80d4ff"/><path d="M121,34.279v-8.44h-5.454a17.836,17.836,0,0,0-2.177-5.24l3.861-3.861-5.968-5.968L107.4,14.631a17.836,17.836,0,0,0-5.24-2.177V7h-8.44v5.461a18.01,18.01,0,0,0-5.238,2.172L84.62,10.77l-5.968,5.968L82.515,20.6a18.01,18.01,0,0,0-2.172,5.238H74.882v8.44h5.454a17.83,17.83,0,0,0,2.177,5.241l-3.861,3.86,5.968,5.969,3.86-3.861a17.9,17.9,0,0,0,5.241,2.177v5.453h8.44V47.657a18.01,18.01,0,0,0,5.238-2.172l3.863,3.864,5.968-5.969-3.863-3.863a18.01,18.01,0,0,0,2.172-5.238Zm-23.059,5.59a9.81,9.81,0,1,1,9.809-9.81A9.81,9.81,0,0,1,97.941,39.869Z" fill="#ffd92e"/><path d="M70.059,85.22V76.78H64.605a17.841,17.841,0,0,0-2.177-5.241l3.861-3.861-5.968-5.967-3.861,3.86a17.889,17.889,0,0,0-5.24-2.177V57.941H42.78V63.4a18.01,18.01,0,0,0-5.238,2.172l-3.863-3.863-5.968,5.967,3.863,3.864A18.01,18.01,0,0,0,29.4,76.78H23.941v8.44H29.4a17.836,17.836,0,0,0,2.177,5.24l-3.861,3.861,5.968,5.968,3.861-3.861a17.824,17.824,0,0,0,5.24,2.177v5.454h8.44V98.6a17.98,17.98,0,0,0,5.238-2.171l3.863,3.863,5.968-5.968-3.863-3.863A18.01,18.01,0,0,0,64.6,85.22ZM47,90.809A9.81,9.81,0,1,1,56.809,81,9.81,9.81,0,0,1,47,90.809Z" fill="#ff6e1d"/></g></svg>
