<svg id="Capa_1" enable-background="new 0 0 512 512" height="512" viewBox="0 0 512 512" width="512" xmlns="http://www.w3.org/2000/svg"><g><g><path d="m245.315 266.685c-17.545-17.545-17.545-46.094 0-63.64l21.213-21.213c5.858-5.858 15.355-5.858 21.213 0l42.426 42.426c5.858 5.858 5.858 15.355 0 21.213l-21.213 21.213c-17.545 17.546-46.093 17.546-63.639.001zm31.82-53.033-10.607 10.607c-5.848 5.848-5.848 15.365 0 21.213s15.365 5.848 21.213 0l10.607-10.607z" fill="#ffeb3c"/></g><g><path d="m298.348 234.865-10.607 10.607c-5.848 5.848-15.365 5.848-21.213 0l-21.213 21.213c17.545 17.545 46.094 17.545 63.64 0l21.213-21.213c5.858-5.858 5.858-15.355 0-21.213l-21.213-21.213-21.213 21.213z" fill="#ffd228"/></g><g><path d="m45.618 466.382c-60.824-60.824-60.824-159.793 0-220.617s159.793-60.824 220.617 0 60.824 159.793 0 220.617-159.792 60.824-220.617 0z" fill="#ffd228"/></g><g><path d="m266.236 245.764-220.618 220.618c60.824 60.824 159.793 60.824 220.617 0 60.825-60.825 60.825-159.793.001-220.618z" fill="#f7aa00"/></g><circle cx="155.927" cy="356.073" fill="#ffeb3c" r="126"/><path d="m245.022 445.169c49.127-49.127 49.127-129.064 0-178.191l-178.191 178.191c49.128 49.127 129.064 49.127 178.191 0z" fill="#ffd228"/><g><path d="m88.045 423.955c-37.43-37.43-37.43-98.334 0-135.764s98.334-37.43 135.765 0 37.43 98.334 0 135.764-98.335 37.431-135.765 0z" fill="#ffd228"/></g><path d="m223.809 423.955c37.43-37.43 37.43-98.334 0-135.764l-135.764 135.764c37.43 37.431 98.334 37.431 135.764 0z" fill="#f7aa00"/><g><path d="m309.027 245.399-42.426-42.426c-1.777-1.777-3.079-3.972-3.787-6.384l-32.078-109.344c-1.805-6.154.501-12.775 5.74-16.475l96.307-68.022c5.965-4.213 14.097-3.518 19.26 1.646l155.563 155.563c5.164 5.164 5.858 13.296 1.646 19.26l-68.022 96.307c-3.7 5.238-10.321 7.545-16.475 5.74l-109.343-32.078c-2.412-.708-4.608-2.01-6.385-3.787z" fill="#ff6ea0"/></g><g><path d="m441.229 275.524 68.022-96.307c4.213-5.965 3.518-14.097-1.646-19.26l-77.782-77.782-142.01 142.01 21.213 21.213c1.777 1.777 3.972 3.079 6.384 3.787l109.343 32.078c6.156 1.806 12.777-.5 16.476-5.739z" fill="#ff4182"/></g></g></svg>