<svg id="Capa_1" enable-background="new 0 0 512 512" height="512" viewBox="0 0 512 512" width="512" xmlns="http://www.w3.org/2000/svg"><g><g><circle cx="247.467" cy="247.467" fill="#ffe278" r="247.467"/><path d="m247.467 0c-3.972 0-7.92.103-11.847.288 131.169 6.184 235.619 114.479 235.619 247.178s-104.45 240.995-235.619 247.179c3.927.185 7.875.288 11.847.288 136.672 0 247.467-110.795 247.467-247.467s-110.795-247.466-247.467-247.466z" fill="#ffcc4a"/><g fill="#ffb54c"><path d="m247.467 0c-2.586 0-5.159.053-7.726.132v32.864c0 4.267 3.459 7.726 7.726 7.726s7.726-3.459 7.726-7.726v-32.864c-2.567-.079-5.14-.132-7.726-.132z"/><path d="m67.113 78.04 23.236 23.236c1.509 1.509 3.486 2.263 5.463 2.263s3.955-.755 5.463-2.263c3.018-3.017 3.018-7.91 0-10.927l-23.235-23.235c-3.755 3.528-7.398 7.172-10.927 10.926z"/><path d="m.132 255.193h32.864c4.267 0 7.726-3.459 7.726-7.726s-3.459-7.726-7.726-7.726h-32.864c-.079 2.566-.132 5.14-.132 7.726s.053 5.159.132 7.726z"/><path d="m90.35 393.658-23.236 23.236c3.528 3.754 7.172 7.398 10.927 10.927l23.236-23.236c3.018-3.017 3.018-7.91 0-10.927-3.018-3.018-7.91-3.018-10.927 0z"/><path d="m247.467 454.211c-4.267 0-7.726 3.459-7.726 7.726v32.864c2.567.079 5.14.132 7.726.132s5.16-.053 7.727-.132v-32.864c-.001-4.266-3.46-7.726-7.727-7.726z"/><path d="m494.802 239.741h-32.864c-4.267 0-7.726 3.459-7.726 7.726s3.459 7.726 7.726 7.726h32.864c.079-2.567.132-5.141.132-7.727-.001-2.585-.053-5.159-.132-7.725z"/><path d="m416.894 67.114-23.237 23.236c-3.018 3.017-3.018 7.91 0 10.927 1.509 1.509 3.486 2.263 5.463 2.263s3.955-.755 5.463-2.263l23.237-23.237c-3.528-3.754-7.172-7.398-10.926-10.926z"/></g><ellipse cx="247.467" cy="247.467" fill="#ffcc4a" rx="214.471" ry="214.471" transform="matrix(.707 -.707 .707 .707 -102.504 247.467)"/><ellipse cx="247.467" cy="247.467" fill="#ffb54c" rx="181.476" ry="181.476" transform="matrix(.707 -.707 .707 .707 -102.504 247.467)"/><path d="m247.467 32.996c-3.976 0-7.924.117-11.847.33 112.938 6.15 202.624 99.668 202.624 214.141s-89.686 207.991-202.624 214.141c3.923.214 7.871.331 11.847.331 118.449 0 214.471-96.022 214.471-214.471 0-118.45-96.022-214.472-214.471-214.472z" fill="#ffb54c"/><path d="m247.467 65.991c-3.982 0-7.929.143-11.847.395 94.702 6.105 169.628 84.836 169.628 181.08s-74.926 174.976-169.628 181.08c3.918.253 7.866.395 11.847.395 100.226 0 181.476-81.249 181.476-181.476-.001-100.224-81.25-181.474-181.476-181.474z" fill="#ff9959"/></g><path d="m346.984 294.497c0-25.6-13.406-48.114-33.555-60.935 9.451-11.181 15.164-25.618 15.164-41.37 0-28.384-18.524-52.507-44.112-60.958v-20.301c0-9.426-7.641-17.067-17.067-17.067s-17.067 7.64-17.067 17.067v17.067h-25.6v-17.067c0-9.426-7.641-17.067-17.067-17.067s-17.067 7.64-17.067 17.067v17.067h-8.533c-9.426 0-17.067 7.641-17.067 17.067s7.641 17.067 17.067 17.067h5.765v77.238.152 93.276h-5.765c-9.426 0-17.067 7.641-17.067 17.067s7.641 17.066 17.067 17.066h8.533v17.067c0 9.426 7.641 17.067 17.067 17.067s17.067-7.641 17.067-17.067v-17.15c7.865-.032 17.059-.068 25.6-.098v17.248c0 9.426 7.641 17.067 17.067 17.067s17.067-7.641 17.067-17.067v-17.979c35.24-4.752 62.503-35.004 62.503-71.524zm-52.524-102.305c0 16.574-13.483 30.057-30.057 30.057-4.398 0-12.752.024-21.842.056h-20.581v-60.172h42.423c16.574 0 30.057 13.485 30.057 30.059zm-19.668 140.364c-9.585 0-35.37.099-52.811.171v-76.209c6.374-.026 13.756-.055 20.702-.08h32.109c20.987 0 38.06 17.073 38.06 38.058-.001 20.987-17.074 38.06-38.06 38.06z" fill="#ffe278"/><g><g><ellipse cx="426.667" cy="426.667" fill="#ff4f75" rx="85.333" ry="85.333" transform="matrix(.707 -.707 .707 .707 -176.731 426.667)"/><path d="m426.667 341.333c-4.022 0-7.973.299-11.847.837 41.518 5.77 73.486 41.39 73.486 84.496s-31.968 78.726-73.486 84.496c3.874.538 7.825.837 11.847.837 47.128.001 85.333-38.204 85.333-85.332s-38.205-85.334-85.333-85.334z" fill="#f71e78"/><g><path d="m443.733 384v40.798c0 2.356 1.91 4.267 4.267 4.267h12.224c3.617 0 5.594 4.219 3.278 6.998l-33.557 40.269c-1.706 2.047-4.85 2.047-6.555 0l-33.557-40.269c-2.316-2.779-.34-6.998 3.278-6.998h12.224c2.356 0 4.267-1.91 4.267-4.267v-40.798c0-4.713 3.821-8.533 8.533-8.533h17.065c4.713 0 8.533 3.82 8.533 8.533z" fill="#f4fbff"/><path d="m463.502 436.063-33.557 40.269c-1.706 2.047-4.85 2.047-6.556 0l-8.569-10.283 24.988-29.986c2.316-2.779.34-6.998-3.278-6.998h-12.224c-2.356 0-4.267-1.91-4.267-4.267v-40.798c0-3.538-2.153-6.572-5.22-7.866 1.019-.43 2.139-.668 3.314-.668h17.067c4.713 0 8.533 3.82 8.533 8.533v40.798c0 2.356 1.91 4.267 4.267 4.267h12.224c3.617.001 5.593 4.22 3.278 6.999z" fill="#bfebff"/></g></g></g></g></svg>