<svg id="Capa_1" enable-background="new 0 0 512 512" height="512" viewBox="0 0 512 512" width="512" xmlns="http://www.w3.org/2000/svg"><g><path d="m512 271.98v79.95h-31.99v80.02h-32.01v79.98l-220.46.07-59.58-31.99-53.96-.01 6.23-128.07 7.77-159.93h39.96l56.04-64 31.87-128h38.25c30.24 0 53.24 27.13 48.29 56.96l-22.41 135.06 160-.02v79.98z" fill="#fed9b6"/><path d="m480.01 351.93v80.02h-32.01v79.98l-220.46.07-59.58-31.99-53.96-.01 6.23-128.07z" fill="#febb9c"/><path d="m0 192h128v320h-128z" fill="#00d9fa"/><path d="m0 351.93h128v160.07h-128z" fill="#40a9d4"/><path d="m51.01 421.75h30v30h-30z" fill="#443c67"/></g></svg>