<?xml version="1.0" encoding="iso-8859-1"?>
<!-- Generator: Adobe Illustrator 19.0.0, SVG Export Plug-In . SVG Version: 6.00 Build 0)  -->
<svg xmlns="http://www.w3.org/2000/svg" xmlns:xlink="http://www.w3.org/1999/xlink" version="1.1" id="Capa_1" x="0px" y="0px" viewBox="0 0 514.616 514.616" style="enable-background:new 0 0 514.616 514.616;" xml:space="preserve">
<path d="M270.824,1.308c-120.752,0-105.248,110.912-105.248,110.912s3.184,42.616,7.432,95.16l-47.944,79.184  c-7,14,3.176,30.464,18.832,30.464h38.496c1.792,19.368,3.528,37.032,5.104,51.2c8.536,76.8,8.536,85.336,42.672,85.336  s93.872,0,93.872,0l59.728,59.744h130.848v-512C514.616,1.308,410.208,1.308,270.824,1.308z"/>
<rect x="326.344" y="101.908" style="fill:#E04F5F;" width="55.872" height="87.616"/>
<rect x="74.912" y="101.916" style="fill:#FFD983;" width="251.392" height="87.616"/>
<polygon style="fill:#E8B152;" points="74.912,189.532 74.912,101.916 41.048,121.716 41.048,169.732 "/>
<polygon points="41.048,121.716 0,145.724 41.048,169.732 "/>
<rect x="309.944" y="101.884" style="fill:#B6DDF2;" width="19.888" height="87.616"/>
<g style="opacity:0.25;">
	<polygon style="fill:#FFFFFF;" points="382.176,145.724 0,145.724 74.912,101.916 382.176,101.916  "/>
</g>
<g>
</g>
<g>
</g>
<g>
</g>
<g>
</g>
<g>
</g>
<g>
</g>
<g>
</g>
<g>
</g>
<g>
</g>
<g>
</g>
<g>
</g>
<g>
</g>
<g>
</g>
<g>
</g>
<g>
</g>
</svg>
