<svg id="Capa_1" enable-background="new 0 0 512 512" height="512" viewBox="0 0 512 512" width="512" xmlns="http://www.w3.org/2000/svg"><g><path d="m287.893 0-20.016 468.231 196.284-20.016v-448.215z" fill="#e50058"/><path d="m287.893 0h-176.268l-20.016 468.231 196.284-20.016z" fill="#ff5b5b"/><path d="m47.839 0v448.215l63.786 20.016v-468.231z" fill="#e50058"/><path d="m175.41 80.678h112.483v30h-112.483z" fill="#fcf7ca"/><path d="m287.893 80.678h112.483v30h-112.483z" fill="#ffeb99"/><path d="m287.893 144.463h80.59v30h-80.59z" fill="#ffeb99"/><path d="m207.303 144.463h80.59v30h-80.59z" fill="#fcf7ca"/><path d="m317.917 399.429v-30h-30.024l-10.008 15 10.008 15z" fill="#b40042"/><path d="m257.869 369.429h30.024v30h-30.024z" fill="#e50058"/><path d="m464.161 480.107v-31.892h-176.268l-20.016 51.908z" fill="#ebebf0"/><path d="m287.893 448.215h-176.268-63.786v31.892l240.054 20.016z" fill="#fff5f5"/><path d="m287.893 480.107-10.008 15.947 10.008 15.946h176.268v-31.893z" fill="#d2d2d7"/><path d="m47.839 480.107h240.054v31.893h-240.054z" fill="#ebebf0"/></g></svg>