<svg id="Capa_1" enable-background="new 0 0 512 512" height="512" viewBox="0 0 512 512" width="512" xmlns="http://www.w3.org/2000/svg"><g><path d="m374.278 328.078s-224.479 0-236.556 0v78.489c0 9.538 7.732 17.271 17.271 17.271h202.015c9.538 0 17.271-7.732 17.271-17.271v-78.489z" fill="#c5d3dd"/><path d="m332.823 328.078v78.489c0 9.538-7.732 17.271-17.271 17.271h41.455c9.538 0 17.271-7.732 17.271-17.271v-78.489s-16.8 0-41.455 0z" fill="#b6c4cf"/><path d="m503.642 88.163h-495.284c-4.816 0-8.639 4.067-8.342 8.874 1.19 19.237 2.574 36.974 3.987 53.639h3.247l6.25 67.899h-2.276c13.713 70.745 60.413 131.351 126.497 162.346h236.556c66.084-30.995 112.784-91.601 126.497-162.346l-2.428-5.143 5.745-58.237 3.905-4.52c1.411-16.641 2.795-34.382 3.986-53.639.299-4.806-3.524-8.873-8.34-8.873z" fill="#7a8c98"/><path d="m500.776 218.575-2.428-5.143 5.745-58.237 3.905-4.52c1.411-16.641 2.795-34.382 3.986-53.639.297-4.807-3.526-8.874-8.342-8.874h-41.455c4.816 0 8.639 4.067 8.342 8.874-2.318 37.489-5.367 69.264-7.93 98.274-7.118 80.567-56.55 151.265-129.776 185.61h41.455c66.084-30.994 112.784-91.6 126.498-162.345z" fill="#596c76"/><path d="m4.003 150.676c1.333 15.723 2.693 30.492 3.943 44.635.694 7.857 1.796 15.619 3.278 23.264h489.552c1.482-7.645 2.584-15.407 3.278-23.264 1.247-14.108 2.608-28.88 3.944-44.635z" fill="#e5eef9"/><path d="m466.542 150.676c-1.336 15.755-2.697 30.527-3.944 44.635-.694 7.857-1.796 15.619-3.278 23.264h41.455c1.482-7.645 2.584-15.407 3.278-23.264 1.247-14.108 2.608-28.88 3.944-44.635z" fill="#d5e3f4"/></g></svg>