<svg id="Humidity" enable-background="new 0 0 512 512" height="512" viewBox="0 0 512 512" width="512" xmlns="http://www.w3.org/2000/svg"><g><g><path d="m183.864 447.999c-88.998 0-146.876-93.666-107.062-173.262l104.653-209.223c1.01-2.02 3.893-2.019 4.902.001l104.585 209.257c39.782 79.593-18.098 173.227-107.078 173.227z" fill="#27bdff"/><path d="m291.056 274.954-104.585-209.257c-1.01-2.02-3.892-2.021-4.902-.001l-17.969 35.922 75.208 150.477c39.78 79.593-18.099 173.227-107.08 173.227-7.07 0-13.941-.596-20.584-1.724 19.79 15.257 44.76 24.582 72.832 24.582 88.982 0 146.861-93.633 107.08-173.226z" fill="#25b4e5"/></g><g><path d="m376.273 193.053c0 4.826-.533 9.212-1.598 13.161-1.066 3.948-2.695 7.318-4.888 10.106-2.195 2.79-4.968 4.968-8.32 6.534-3.354 1.567-7.286 2.35-11.798 2.35-4.576 0-8.493-.72-11.751-2.162-3.26-1.441-5.923-3.526-7.991-6.252s-3.589-6.047-4.559-9.965c-.973-3.916-1.458-8.381-1.458-13.396 0-4.574.517-8.804 1.552-12.691 1.034-3.885 2.616-7.239 4.748-10.059 2.13-2.82 4.872-5.044 8.225-6.675 3.353-1.629 7.317-2.444 11.893-2.444 4.95 0 9.102.846 12.455 2.538 3.352 1.692 6.031 3.964 8.037 6.815 2.005 2.852 3.415 6.19 4.23 10.011.815 3.825 1.223 7.867 1.223 12.129zm-26.604 92.315c-.314.564-.69.987-1.128 1.269-.439.281-.973.532-1.598.752-.627.218-1.38.376-2.256.47-.879.094-1.943.141-3.196.141-1.38 0-2.491-.127-3.337-.376-.847-.251-1.442-.58-1.787-.987-.345-.409-.47-.91-.376-1.504.094-.595.391-1.269.893-2.021l84.606-121.175c.313-.501.689-.924 1.128-1.269.438-.344.987-.611 1.645-.799.657-.188 1.409-.329 2.255-.423.847-.094 1.928-.141 3.243-.141 1.317 0 2.397.11 3.243.329.846.22 1.457.549 1.833.987.376.439.517.972.423 1.598-.094.627-.393 1.285-.893 1.974zm13.443-91.845c0-3.509-.25-6.627-.751-9.354-.503-2.726-1.269-4.997-2.304-6.815-1.034-1.817-2.398-3.18-4.089-4.089-1.692-.908-3.699-1.363-6.016-1.363-2.195 0-4.106.439-5.735 1.316-1.631.878-2.961 2.195-3.995 3.948-1.034 1.755-1.802 3.934-2.303 6.534-.503 2.601-.752 5.656-.752 9.166 0 4.263.297 7.819.892 10.67.595 2.852 1.441 5.109 2.539 6.769 1.095 1.661 2.475 2.82 4.137 3.478 1.66.658 3.556.987 5.687.987 2.506 0 4.559-.47 6.157-1.41s2.882-2.334 3.854-4.184c.971-1.848 1.66-4.073 2.068-6.674.407-2.601.611-5.595.611-8.979zm84.888 60.352c0 4.826-.533 9.212-1.598 13.161-1.066 3.948-2.695 7.317-4.888 10.105-2.195 2.79-4.968 4.968-8.32 6.534-3.354 1.565-7.286 2.35-11.798 2.35-4.576 0-8.493-.721-11.752-2.163-3.259-1.441-5.922-3.526-7.99-6.252s-3.589-6.047-4.559-9.964c-.973-3.916-1.458-8.382-1.458-13.396 0-4.574.517-8.804 1.552-12.691 1.033-3.885 2.616-7.238 4.748-10.059 2.13-2.82 4.871-5.044 8.225-6.674 3.353-1.629 7.316-2.444 11.892-2.444 4.951 0 9.103.846 12.456 2.538 3.352 1.692 6.031 3.965 8.037 6.815 2.005 2.853 3.415 6.19 4.23 10.012.815 3.825 1.223 7.867 1.223 12.128zm-13.161.47c0-3.509-.25-6.627-.752-9.354-.502-2.726-1.268-4.997-2.303-6.815-1.034-1.817-2.398-3.181-4.089-4.089-1.692-.908-3.699-1.364-6.017-1.364-2.194 0-4.105.439-5.734 1.316-1.631.878-2.961 2.195-3.996 3.949-1.034 1.755-1.802 3.933-2.304 6.533-.502 2.602-.752 5.657-.752 9.166 0 4.262.297 7.818.893 10.67s1.441 5.109 2.539 6.769c1.095 1.661 2.475 2.82 4.136 3.478 1.66.657 3.557.987 5.688.987 2.506 0 4.559-.47 6.157-1.41s2.882-2.334 3.854-4.183c.971-1.848 1.66-4.073 2.068-6.675.408-2.6.612-5.594.612-8.978z"/></g></g></svg>