<svg height="512pt" viewBox="0 -48 512 512" width="512pt" xmlns="http://www.w3.org/2000/svg"><path d="m398.089844 42.390625h-16.859375v-27.289063c0-8.320312-6.78125-15.101562-15.109375-15.101562h-351.011719c-8.328125 0-15.109375 6.78125-15.109375 15.101562v249.207032c0 83.992187 68.328125 152.320312 152.320312 152.320312h76.589844c82.019532 0 149.101563-65.160156 152.199219-146.4375h16.980469c62.808594 0 113.910156-51.089844 113.910156-113.902344 0-62.808593-51.101562-113.898437-113.910156-113.898437zm-1.261719 155.980469-15.5-.109375-.097656-84.730469h16.488281c22.550781 0 41.050781 17.699219 42.339844 39.929688 1.429687 24.679687-18.519532 44.910156-43.230469 44.910156zm0 0" fill="#c83c50"/><path d="m398.089844 42.390625h-16.859375v-27.289063c0-8.320312-6.78125-15.101562-15.109375-15.101562h-175.109375v416.628906h37.898437c82.019532 0 149.101563-65.160156 152.199219-146.4375h16.980469c62.808594 0 113.910156-51.089844 113.910156-113.902344 0-62.808593-51.101562-113.898437-113.910156-113.898437zm-1.261719 155.980469-15.5-.109375-.097656-84.730469h16.488281c22.550781 0 41.050781 17.699219 42.339844 39.929688 1.429687 24.679687-18.519532 44.910156-43.230469 44.910156zm0 0" fill="#962a3a"/><path d="m282.46875 204.648438c0 50.507812-40.949219 91.453124-91.457031 91.453124-50.507813 0-91.453125-40.945312-91.453125-91.453124 0-50.507813 40.945312-91.457032 91.453125-91.457032 50.507812 0 91.457031 40.949219 91.457031 91.457032zm0 0" fill="#ffd15e"/><path d="m282.46875 204.648438c0 50.511718-40.949219 91.453124-91.457031 91.453124v-182.910156c50.507812 0 91.457031 40.949219 91.457031 91.457032zm0 0" fill="#ffa547"/></svg>