<?xml version="1.0" encoding="iso-8859-1"?>
<!-- Generator: Adobe Illustrator 19.0.0, SVG Export Plug-In . SVG Version: 6.00 Build 0)  -->
<svg version="1.1" id="Capa_1" xmlns="http://www.w3.org/2000/svg" xmlns:xlink="http://www.w3.org/1999/xlink" x="0px" y="0px"
	 viewBox="0 0 468.293 468.293" style="enable-background:new 0 0 468.293 468.293;" xml:space="preserve">
<path style="fill:#EBF0F3;" d="M0,302.201v37.463c0,17.242,13.978,31.22,31.22,31.22h405.854c17.242,0,31.22-13.978,31.22-31.22
	v-37.463H0z"/>
<path style="fill:#D5D6DB;" d="M315.902,415.402h0.688l-20.479-44.518h-123.93l-20.479,44.518h0.688
	c-13.147,0-23.805,10.658-23.805,23.805h211.122C339.707,426.06,329.05,415.402,315.902,415.402z"/>
<path style="fill:#64798A;" d="M468.293,60.305c0-17.242-13.978-31.22-31.22-31.22H31.22C13.978,29.085,0,43.063,0,60.305v241.896
	h468.293V60.305z"/>
<path style="fill:#D5D6DB;" d="M18.733,283.47V60.305c0-6.884,5.601-12.488,12.488-12.488h405.854
	c6.887,0,12.488,5.604,12.488,12.488V283.47H18.733z"/>
<g>
	<circle style="fill:#64798A;" cx="186.518" cy="336.546" r="14.811"/>
	<circle style="fill:#64798A;" cx="234.146" cy="336.546" r="14.811"/>
	<circle style="fill:#64798A;" cx="281.775" cy="336.546" r="14.811"/>
</g>
<path style="fill:#D15241;" d="M226.322,66.061l-88.813,59.567c-6.972,4.676-2.034,12.672,7.826,12.672H322.96
	c9.86,0,14.798-7.996,7.826-12.672l-88.812-59.567C237.652,63.162,230.644,63.162,226.322,66.061z"/>
<g>
	<rect x="169.822" y="138.302" style="fill:#E56353;" width="27.067" height="93.721"/>
	<rect x="220.616" y="138.302" style="fill:#E56353;" width="27.067" height="93.721"/>
	<rect x="271.404" y="138.302" style="fill:#E56353;" width="27.067" height="93.721"/>
	<path style="fill:#E56353;" d="M232.904,129.07v-4.129c-5.167-0.529-9.804-2.582-13.914-6.168l4.129-4.92
		c3.169,2.752,6.43,4.396,9.785,4.92v-10.973c-4.262-1.017-7.381-2.352-9.36-4.014c-1.979-1.657-2.971-4.119-2.971-7.383
		c0-3.259,1.141-5.928,3.422-8c2.281-2.076,5.252-3.208,8.909-3.397v-2.826h3.62v2.886c4.147,0.299,8.069,1.717,11.765,4.239
		l-3.678,5.206c-2.488-1.772-5.185-2.868-8.087-3.282v10.632h0.17c4.336,1.017,7.521,2.398,9.558,4.129
		c2.037,1.735,3.054,4.253,3.054,7.553c0,3.3-1.169,5.984-3.507,8.059c-2.338,2.071-5.429,3.204-9.275,3.392v4.073H232.904z
		 M228.915,92.561c-0.96,0.847-1.441,1.906-1.441,3.167c0,1.266,0.375,2.26,1.13,2.996c0.755,0.736,2.186,1.445,4.299,2.122v-9.785
		C231.207,91.213,229.877,91.714,228.915,92.561z M240.823,117.361c1.054-0.865,1.583-1.961,1.583-3.282
		c0-1.316-0.417-2.366-1.245-3.139c-0.829-0.769-2.375-1.496-4.637-2.177v10.181C238.333,118.756,239.766,118.231,240.823,117.361z"
		/>
	<path style="fill:#E56353;" d="M140.49,247.355h187.315c3.448,0,6.244,2.796,6.244,6.244V267.4H134.246v-13.801
		C134.246,250.15,137.041,247.355,140.49,247.355z"/>
</g>
<path style="fill:#D15241;" d="M161.558,232.023h145.18c6.897,0,12.488,5.591,12.488,12.488v2.844H149.07v-2.844
	C149.07,237.614,154.661,232.023,161.558,232.023z"/>
<g>
</g>
<g>
</g>
<g>
</g>
<g>
</g>
<g>
</g>
<g>
</g>
<g>
</g>
<g>
</g>
<g>
</g>
<g>
</g>
<g>
</g>
<g>
</g>
<g>
</g>
<g>
</g>
<g>
</g>
</svg>
