<?xml version="1.0" encoding="iso-8859-1"?>
<!-- Generator: Adobe Illustrator 19.0.0, SVG Export Plug-In . SVG Version: 6.00 Build 0)  -->
<svg version="1.1" id="Capa_1" xmlns="http://www.w3.org/2000/svg" xmlns:xlink="http://www.w3.org/1999/xlink" x="0px" y="0px"
	 viewBox="0 0 296.8 296.8" style="enable-background:new 0 0 296.8 296.8;" xml:space="preserve">
<path style="fill:#C9C9C9;" d="M293.2,220.4L76.4,3.6c-4.8-4.8-12.8-4.8-17.6,0L3.6,58.8c-4.8,4.8-4.8,12.8,0,17.6l216.8,216.8
	c4.8,4.8,12.8,4.8,17.6,0l55.2-55.2C298,233.2,298,225.2,293.2,220.4z M63.2,63.2c-4.4,4.4-12,4.4-16.4,0c-4.4-4.8-4.4-12,0-16.4
	s12-4.4,16.4,0S67.6,58.8,63.2,63.2z"/>
<path style="fill:#1B1B1B;" d="M51.2,124l-8.8-8.8l26-26c2.4-2.4,6.4-2.4,8.8,0c2.4,2.4,2.4,6.4,0,8.8L51.2,124z M70.8,143.6
	l-8.8-8.8L74.8,122c2.4-2.4,6.4-2.4,8.8,0c2.4,2.4,2.4,6.4,0,8.8L70.8,143.6z M90.4,163.2l-8.8-8.8l26-26c2.4-2.4,6.4-2.4,8.8,0
	c2.4,2.4,2.4,6.4,0,8.8L90.4,163.2z M110,182.8l-8.8-8.8l12.8-12.8c2.4-2.4,6.4-2.4,8.8,0c2.4,2.4,2.4,6.4,0,8.8L110,182.8z
	 M129.6,202.4l-8.8-8.8l26-26c2.4-2.4,6.4-2.4,8.8,0s2.4,6.4,0,8.8L129.6,202.4z M149.2,222l-8.8-8.8l12.8-12.8
	c2.4-2.4,6.4-2.4,8.8,0s2.4,6.4,0,8.8L149.2,222z M168.8,241.6l-8.8-8.8l26-26c2.4-2.4,6.4-2.4,8.8,0s2.4,6.4,0,8.8L168.8,241.6z
	 M188.4,261.2l-8.8-8.8l12.8-12.8c2.4-2.4,6.4-2.4,8.8,0s2.4,6.4,0,8.8L188.4,261.2z M208,280.8l-8.8-8.8l26-26
	c2.4-2.4,6.4-2.4,8.8,0s2.4,6.4,0,8.8L208,280.8z"/>
<g>
</g>
<g>
</g>
<g>
</g>
<g>
</g>
<g>
</g>
<g>
</g>
<g>
</g>
<g>
</g>
<g>
</g>
<g>
</g>
<g>
</g>
<g>
</g>
<g>
</g>
<g>
</g>
<g>
</g>
</svg>
