<?xml version="1.0" encoding="iso-8859-1"?>
<!-- Generator: Adobe Illustrator 19.0.0, SVG Export Plug-In . SVG Version: 6.00 Build 0)  -->
<svg xmlns="http://www.w3.org/2000/svg" xmlns:xlink="http://www.w3.org/1999/xlink" version="1.1" id="Capa_1" x="0px" y="0px" viewBox="0 0 512.001 512.001" style="enable-background:new 0 0 512.001 512.001;" xml:space="preserve">
<path style="fill:#F2D422;" d="M104.074,174.697c41.484,27.679,124.615,61.807,304.194,26.983  C88.918,169.772,132.48,11.546,96.354,69.97C78.8,98.353,82.411,137.467,104.074,174.697z"/>
<path style="fill:#E0BA1B;" d="M311.664,214.898c28.639-2.052,60.687-6.252,96.603-13.217  C88.918,169.772,132.48,11.546,96.354,69.97c-2.435,3.937-4.448,8.088-6.077,12.404C105.922,93.461,126.85,178.602,311.664,214.898z  "/>
<path style="fill:#F2D422;" d="M411.811,199.966C73.957,266.694,74.007,94.673,54.52,162.145  c-12.438,43.059,17.105,96.537,73.14,128.913C180.199,298.619,268.519,288.36,411.811,199.966z"/>
<path style="fill:#E5BD17;" d="M346.365,237.05c20.427-10.482,42.209-22.749,65.446-37.084  C73.957,266.694,74.007,94.673,54.52,162.145c-1.521,5.267-2.41,10.689-2.704,16.21C74.562,194.568,132.029,268.604,346.365,237.05z  "/>
<path style="fill:#C16B3D;" d="M493.688,333.249H18.335c-10.104,0-18.292,8.19-18.292,18.292v19.733  c0,46.164,37.422,83.587,83.585,83.587h344.767c46.162,0,83.586-37.423,83.586-83.587v-19.733  C511.981,341.439,503.79,333.249,493.688,333.249z"/>
<path style="fill:#B55B33;" d="M20.645,371.274v-19.733c0-10.102,8.189-18.292,18.292-18.292H18.335  c-10.104,0-18.292,8.19-18.292,18.292v19.733c0,46.164,37.422,83.587,83.585,83.587h20.602  C58.067,454.86,20.645,417.438,20.645,371.274z"/>
<path style="fill:#F2D422;" d="M420.688,192.307c-0.741,1.794-1.135,2.844-1.135,2.844  C114.449,386.87,53.379,219.734,58.437,290.784c1.08,15.188,7.056,29.606,16.957,42.465h294.788  c62.513-46.559,80.02-103.217,80.02-103.217c0.876-0.403,1.725-0.806,2.573-1.208L420.688,192.307z"/>
<path style="fill:#EDC915;" d="M60.682,304.1c35.653,9.059,139.761,57.707,378.084-91.219l-18.079-20.575  c-0.741,1.794-1.135,2.844-1.135,2.844C114.449,386.87,53.379,219.734,58.437,290.784C58.759,295.299,59.522,299.743,60.682,304.1z"/>
<path style="fill:#E29040;" d="M493.688,333.249H18.335c-10.104,0-18.292,8.19-18.292,18.292c0,21.277-0.227,24.552,0.946,32.32  h510.045c1.184-7.823,0.948-11.243,0.948-32.32C511.981,341.439,503.79,333.249,493.688,333.249z"/>
<path style="fill:#D67B32;" d="M0.988,383.86H21.59c-1.184-7.836-0.945-11.298-0.945-32.32c0-10.102,8.189-18.292,18.292-18.292  H18.335c-10.104,0-18.292,8.19-18.292,18.292C0.043,369.017-0.306,375.229,0.988,383.86z"/>
<path style="fill:#F2D422;" d="M471.481,149.255c-26.877-20.883-51.928,45.895-51.928,45.895l30.65,34.882  C521.646,197.095,498.354,170.135,471.481,149.255z"/>
<path style="fill:#EDC915;" d="M488.865,165.242c-4.766-5.674-10.972-11.004-17.385-15.986  c-26.877-20.883-51.928,45.895-51.928,45.895l16.891,19.223C439.823,206.751,463.878,154.943,488.865,165.242z"/>
<g>
</g>
<g>
</g>
<g>
</g>
<g>
</g>
<g>
</g>
<g>
</g>
<g>
</g>
<g>
</g>
<g>
</g>
<g>
</g>
<g>
</g>
<g>
</g>
<g>
</g>
<g>
</g>
<g>
</g>
</svg>
