<svg id="icon" height="512" viewBox="0 0 128 128" width="512" xmlns="http://www.w3.org/2000/svg"><rect fill="#ef5261" height="11.242" rx="1.874" width="82" x="23.667" y="51.058"/><path d="m28.445 60.96h72.443a0 0 0 0 1 0 0v36.463a5 5 0 0 1 -5 5h-62.443a5 5 0 0 1 -5-5v-36.463a0 0 0 0 1 0 0z" fill="#ef5261"/><g fill="#da364c"><path d="m28.445 62.3h72.443v3.242h-72.443z"/><rect height="26.44" rx="2.479" width="4.958" x="85.849" y="70.763"/><rect height="26.44" rx="2.479" width="4.958" x="70.075" y="70.763"/><rect height="26.44" rx="2.479" width="4.958" x="54.301" y="70.763"/><rect height="26.44" rx="2.479" width="4.958" x="38.527" y="70.763"/><path d="m91.648 56.679a4.53 4.53 0 1 1 -4.522-4.522 4.522 4.522 0 0 1 4.522 4.522z"/></g><rect fill="#eeefee" height="37.454" rx="3.106" transform="matrix(.878 -.478 .478 .878 -10.591 43.196)" width="6.212" x="76.451" y="23.676"/><path d="m37.685 56.679a4.53 4.53 0 1 0 4.522-4.522 4.523 4.523 0 0 0 -4.522 4.522z" fill="#da364c"/><rect fill="#eeefee" height="37.454" rx="3.106" transform="matrix(-.878 -.478 .478 -.878 72.97 103.38)" width="6.212" x="46.536" y="23.676"/></svg>