<?xml version="1.0" encoding="iso-8859-1"?>
<!-- Generator: Adobe Illustrator 19.0.0, SVG Export Plug-In . SVG Version: 6.00 Build 0)  -->
<svg xmlns="http://www.w3.org/2000/svg" xmlns:xlink="http://www.w3.org/1999/xlink" version="1.1" id="Capa_1" x="0px" y="0px" viewBox="0 0 512.001 512.001" style="enable-background:new 0 0 512.001 512.001;" xml:space="preserve">
<path style="fill:#FE8965;" d="M253.946,33.985c-74.977,0-135.976,60.999-135.976,135.976c0,9.075,7.359,16.434,16.434,16.434  s16.434-7.359,16.434-16.434h206.215c0,9.075,7.359,16.434,16.434,16.434c9.076,0,16.434-7.359,16.434-16.434  C389.922,94.983,328.923,33.985,253.946,33.985z"/>
<g>
	<path style="fill:#FE5252;" d="M253.946,33.985c-8.907,0-17.6,0.919-26.033,2.564c62.558,12.185,109.943,67.342,109.943,133.413   h19.199c0,9.075,7.359,16.434,16.434,16.434s16.434-7.359,16.434-16.434C389.922,94.983,328.923,33.985,253.946,33.985z"/>
	<path style="fill:#FE5252;" d="M134.404,186.395c9.075,0,16.434-7.359,16.434-16.434H117.97   C117.97,179.037,125.328,186.395,134.404,186.395z"/>
</g>
<path style="fill:#FEAA40;" d="M375.547,153.655c-9.008-1.14-17.229,5.244-18.365,14.248l-0.26,2.058H150.97l-0.26-2.058  c-1.136-9.004-9.372-15.387-18.365-14.248c-9.004,1.14-15.383,9.357-14.248,18.365l41.086,325.605  c1.039,8.213,8.025,14.376,16.306,14.376h156.913c8.281,0,15.267-6.162,16.306-14.376l41.086-325.605  C390.93,163.012,384.55,154.795,375.547,153.655z"/>
<g>
	<path style="fill:#FE9700;" d="M150.97,169.961l-0.26-2.058c-1.136-9.004-9.372-15.387-18.365-14.248   c-8.308,1.051-14.302,8.141-14.3,16.306L150.97,169.961L150.97,169.961z"/>
	<path style="fill:#FE9700;" d="M375.547,153.655c-9.008-1.14-17.229,5.244-18.365,14.248l-0.26,2.058h-19.143   c0,0.682,0.036,1.364-0.052,2.058l-41.086,325.605c-1.039,8.213-8.025,14.376-16.306,14.376h52.067   c8.281,0,15.267-6.162,16.306-14.376l41.086-325.605C390.93,163.012,384.55,154.795,375.547,153.655z"/>
</g>
<path style="fill:#870E4F;" d="M270.698,278.366c-1.649,0-3.326-0.25-4.983-0.777c-8.651-2.75-13.433-11.993-10.68-20.643  l78.063-245.487c2.752-8.648,11.98-13.433,20.639-10.682c8.651,2.75,13.433,11.993,10.68,20.643l-78.063,245.487  C284.131,273.901,277.663,278.366,270.698,278.366z"/>
<path style="fill:#BE360C;" d="M400.828,186.395H111.173c-9.076,0-16.434-7.357-16.434-16.434c0-9.076,7.359-16.434,16.434-16.434  h289.655c9.076,0,16.434,7.357,16.434,16.434C417.262,179.039,409.903,186.395,400.828,186.395z"/>
<path style="fill:#B61C1C;" d="M400.828,153.527H348.76c9.076,0,16.434,7.359,16.434,16.434c0,9.075-7.359,16.434-16.434,16.434  h52.067c9.076,0,16.434-7.359,16.434-16.434C417.262,160.886,409.903,153.527,400.828,153.527z"/>
<path style="fill:#FE5722;" d="M129.072,258.982l30.112,238.643c1.039,8.213,8.025,14.376,16.306,14.376h156.913  c8.281,0,15.267-6.162,16.306-14.376l30.112-238.643H129.072L129.072,258.982z"/>
<path style="fill:#E54A19;" d="M326.753,258.982l-30.112,238.643c-1.039,8.213-8.025,14.376-16.306,14.376h52.067  c8.281,0,15.267-6.162,16.306-14.376l30.112-238.643H326.753L326.753,258.982z"/>
<g>
</g>
<g>
</g>
<g>
</g>
<g>
</g>
<g>
</g>
<g>
</g>
<g>
</g>
<g>
</g>
<g>
</g>
<g>
</g>
<g>
</g>
<g>
</g>
<g>
</g>
<g>
</g>
<g>
</g>
</svg>
