<svg height="512pt" viewBox="0 0 512 512" width="512pt" xmlns="http://www.w3.org/2000/svg"><path d="m256 0-20.015625 256 20.015625 256c141.386719 0 256-114.613281 256-256s-114.613281-256-256-256zm0 0" fill="#087"/><path d="m0 256c0 141.386719 114.613281 256 256 256v-512c-141.386719 0-256 114.613281-256 256zm0 0" fill="#00cc76"/><path d="m256 63.734375-20.015625 191.40625 20.015625 193.125c106.015625 0 192.265625-86.25 192.265625-192.265625s-86.25-192.265625-192.265625-192.265625zm0 0" fill="#efe2dd"/><path d="m63.734375 256c0 106.015625 86.25 192.265625 192.265625 192.265625v-384.53125c-106.015625 0-192.265625 86.25-192.265625 192.265625zm0 0" fill="#fff5f5"/><path d="m241 111.574219h30v112.621093h-30zm0 0" fill="#8c8787"/><path d="m287.804688 241h80.726562v30h-80.726562zm0 0" fill="#8c8787"/><path d="m256 206.785156-20.015625 49.214844 20.015625 49.214844c27.179688 0 49.214844-22.035156 49.214844-49.214844s-22.035156-49.214844-49.214844-49.214844zm0 0" fill="#087"/><path d="m206.785156 256c0 27.179688 22.035156 49.214844 49.214844 49.214844v-98.429688c-27.179688 0-49.214844 22.035156-49.214844 49.214844zm0 0" fill="#00cc76"/></svg>