<?xml version="1.0" encoding="iso-8859-1"?>
<!-- Generator: Adobe Illustrator 21.0.0, SVG Export Plug-In . SVG Version: 6.00 Build 0)  -->
<svg version="1.1" id="Capa_1" xmlns="http://www.w3.org/2000/svg" xmlns:xlink="http://www.w3.org/1999/xlink" x="0px" y="0px"
	 viewBox="0 0 512.001 512.001" style="enable-background:new 0 0 512.001 512.001;" xml:space="preserve">
<path style="fill:#FF7816;" d="M223.399,352.35l-72.349,72.2l-51.301-8.699l-1.8-1.802l-1.8-1.8l-8.698-51.299l72.349-72.2
	c6-6,15.3-6,21.301,0l21.301,21.301l20.999,21C229.4,337.051,229.4,346.351,223.399,352.35z"/>
<path style="fill:#FF4B00;" d="M223.399,331.051c6,6,6,15.3,0,21.299l-72.349,72.2l-51.301-8.699l-1.8-1.802l104.452-103.998
	L223.399,331.051z"/>
<path style="fill:#6E6E6E;" d="M455,57.151c-75.901-76.201-199.799-76.201-275.7,0c-75.901,75.899-75.901,199.799,0,275.7
	c75.901,75.899,199.799,75.899,275.7,0c38.101-38.101,57.001-87.9,57.001-138.001C512.001,145.051,493.101,94.951,455,57.151z"/>
<path style="fill:#5A5A5A;" d="M512.001,194.85c0,50.101-18.9,99.901-57.001,138.001c-75.901,75.899-199.799,75.899-275.7,0
	L455,57.151C493.101,94.951,512.001,145.051,512.001,194.85z"/>
<path style="fill:#ECECF1;" d="M412.701,99.45c-52.8-52.5-138.301-52.5-191.102,0c-52.5,52.8-52.5,138.3,0,191.1
	c52.8,52.5,138.301,52.5,191.102,0c26.398-26.4,39.3-60.899,39.3-95.7C452.001,160.351,439.099,125.85,412.701,99.45z"/>
<path style="fill:#E2E2E7;" d="M452.001,194.85c0,34.801-12.902,69.3-39.3,95.7c-52.8,52.5-138.301,52.5-191.102,0l191.102-191.1
	C439.099,125.85,452.001,160.351,452.001,194.85z"/>
<path style="fill:#76E2F8;" d="M387.801,174.45l-30,60c-2.701,5.101-7.8,8.401-13.5,8.401s-10.8-3.3-13.5-8.401l-16.5-32.999
	l-16.5,32.999c-4.2,8.701-17.1,9.901-24,3.9c-1.201-1.199-2.1-2.401-3.001-3.9l-30-60c-3.6-7.2-0.599-16.199,6.901-20.099
	c7.2-3.6,16.199-0.601,20.099,6.899l16.5,33.001l16.5-33.001c5.099-10.199,21.901-10.199,27.001,0l7.8,15.3l8.699,17.701
	l16.5-33.001c3.9-7.5,12.9-10.499,20.099-6.899C388.399,158.251,391.4,167.25,387.801,174.45z"/>
<path style="fill:#25D9F8;" d="M387.801,174.45l-30,60c-2.701,5.101-7.8,8.401-13.5,8.401s-10.8-3.3-13.5-8.401l-16.5-32.999
	l-16.5,32.999c-4.2,8.701-17.1,9.901-24,3.9l61.8-61.8l8.699,17.701l16.5-33.001c3.9-7.5,12.9-10.499,20.099-6.899
	C388.399,158.251,391.4,167.25,387.801,174.45z"/>
<polygon style="fill:#FF9F00;" points="151.051,424.55 108.451,467.15 57.451,488.15 23.851,454.55 44.851,403.55 87.451,360.95 "/>
<g>
	<polygon style="fill:#FF7816;" points="119.251,392.75 151.051,424.55 108.451,467.15 57.451,488.15 40.651,471.35 	"/>
	<path style="fill:#FF7816;" d="M108.451,467.15l-31.8,31.8c-17.401,17.401-45.901,17.401-63.6,0
		c-17.401-17.699-17.401-46.199,0-63.6l31.8-31.8L108.451,467.15z"/>
</g>
<path style="fill:#FF4B00;" d="M76.651,435.35l31.8,31.8l-31.8,31.8c-17.401,17.401-45.901,17.401-63.6,0L76.651,435.35z"/>
<g>
</g>
<g>
</g>
<g>
</g>
<g>
</g>
<g>
</g>
<g>
</g>
<g>
</g>
<g>
</g>
<g>
</g>
<g>
</g>
<g>
</g>
<g>
</g>
<g>
</g>
<g>
</g>
<g>
</g>
</svg>
