<svg height="512pt" viewBox="0 -90 512 512" width="512pt" xmlns="http://www.w3.org/2000/svg"><path d="m0 0h512v332.5h-512zm0 0" fill="#ffb74f"/><path d="m256 0h256v332.5h-256zm0 0" fill="#ff9a00"/><path d="m512 0-147.191406 128.25-7.769532 6.769531h-21.597656c-11.339844-32.960937-42.671875-56.710937-79.441406-56.710937s-68.101562 23.75-79.441406 56.710937h-21.597656l-7.769532-6.769531-147.191406-128.25zm0 0" fill="#ffdf48"/><path d="m512 0-147.191406 128.25-7.769532 6.769531h-21.597656c-11.339844-32.960937-42.671875-56.710937-79.441406-56.710937v-78.308594zm0 0" fill="#fec000"/><path d="m364.808594 128.25c-14.519532-46.28125-57.808594-79.941406-108.808594-79.941406s-94.289062 33.660156-108.808594 79.941406c-3.371094 10.761719-5.191406 22.199219-5.191406 34.058594 0 62.863281 51.140625 114 114 114 11.808594 0 23.449219-1.796875 34.609375-5.347656l-9.097656-28.589844c-8.210938 2.617187-16.800781 3.9375-25.511719 3.9375-46.320312 0-84-37.679688-84-84 0-9.546875 1.601562-18.730469 4.558594-27.289063 11.339844-32.960937 42.671875-56.710937 79.441406-56.710937s68.101562 23.75 79.441406 56.710937c2.957032 8.558594 4.558594 17.742188 4.558594 27.289063v36.792968c0 8.976563-7.308594 16.289063-16.289062 16.289063-8.980469 0-16.289063-7.3125-16.289063-16.289063v-86.042968h-26.902344c-7.519531-3.730469-15.847656-5.707032-24.398437-5.707032h-.121094c-20.328125.039063-38.109375 11.179688-47.578125 27.667969-4.621094 8.039063-7.261719 17.359375-7.261719 27.289063 0 30.269531 24.578125 54.902344 54.839844 54.972656h.121094c8.160156 0 16.027344-1.769531 23.1875-5.109375 5.660156 19.179687 23.421875 33.21875 44.402344 33.21875 25.519531 0 46.289062-20.761719 46.289062-46.289063v-36.792968c0-11.859375-1.820312-23.296875-5.191406-34.058594zm-87.386719 47.089844c-.992187 1.621094-2.152344 3.109375-3.492187 4.46875-4.730469 4.820312-11.058594 7.472656-17.808594 7.472656h-.121094c-13.710938-.070312-24.839844-11.242188-24.839844-24.972656 0-13.71875 11.128906-24.886719 24.839844-24.957032h.121094c6.148437 0 12.050781 2.25 16.617187 6.328126 1.839844 1.648437 3.410157 3.519531 4.683594 5.601562zm0 0" fill="#ff623f"/><g fill="#e70020"><path d="m281.511719 242.371094 9.097656 28.589844c-11.160156 3.550781-22.800781 5.347656-34.609375 5.347656v-30c8.710938 0 17.300781-1.320313 25.511719-3.9375zm0 0"/><path d="m370 162.308594v36.792968c0 25.527344-20.769531 46.289063-46.289062 46.289063-20.980469 0-38.742188-14.039063-44.402344-33.21875-7.160156 3.339844-15.027344 5.109375-23.1875 5.109375h-.121094v-30h.121094c6.75 0 13.078125-2.652344 17.808594-7.472656 1.339843-1.359375 2.5-2.847656 3.492187-4.46875v-26.058594c-1.273437-2.082031-2.84375-3.953125-4.683594-5.601562-4.566406-4.078126-10.46875-6.328126-16.617187-6.328126h-.121094v-30h.121094c8.550781 0 16.878906 1.976563 24.398437 5.707032h26.902344v86.042968c0 8.976563 7.308594 16.289063 16.289063 16.289063 8.980468 0 16.289062-7.3125 16.289062-16.289063v-36.792968c0-9.546875-1.601562-18.730469-4.558594-27.289063-11.339844-32.960937-42.671875-56.710937-79.441406-56.710937v-30c51 0 94.289062 33.660156 108.808594 79.941406 3.371094 10.761719 5.191406 22.199219 5.191406 34.058594zm0 0"/></g></svg>