<svg height="512pt" viewBox="0 -20 512 512" width="512pt" xmlns="http://www.w3.org/2000/svg"><path d="m270.996094 70.144531-29.992188-.75c.035156-1.421875.511719-14.320312 6.160156-28.894531 8.152344-21.027344 22.898438-35.03125 42.648438-40.5l8.007812 28.910156c-25.675781 7.113282-26.816406 40.890625-26.824218 41.234375zm0 0" fill="#6ecd24"/><path d="m308.820312 107.585938c0 29.117187-23.699218 52.808593-52.820312 52.808593s-52.808594-23.691406-52.808594-52.808593c0-29.121094 23.6875-52.820313 52.808594-52.820313s52.820312 23.699219 52.820312 52.820313zm0 0" fill="#ff633d"/><path d="m256 160.394531v-105.628906c29.121094 0 52.820312 23.699219 52.820312 52.820313 0 29.117187-23.699218 52.808593-52.820312 52.808593zm0 0" fill="#e70021"/><path d="m464.460938 402.179688h-416.921876l41.3125-159.191407 25.167969-96.988281h283.960938l24.320312 93.71875zm0 0" fill="#8a6746"/><path d="m464.460938 402.179688h-208.460938v-256.179688h141.980469l24.320312 93.71875zm0 0" fill="#684f37"/><path d="m422.300781 239.71875h-45.628906c-7.722656 0-14 6.28125-14 14v30.421875c0 25.6875-20.902344 46.578125-46.59375 46.578125-25.679687 0-46.578125-20.890625-46.578125-46.578125v-28.671875c0-7.910156-5.878906-14.488281-13.5-15.589844-.730469-.097656-1.480469-.160156-2.25-.160156-8.679688 0-15.75 7.070312-15.75 15.75v3.589844c0 24.632812-20.039062 44.660156-44.671875 44.660156-24.628906 0-44.65625-20.027344-44.65625-44.660156v-2.070313c0-7.71875-6.28125-14-14-14h-45.820313l25.167969-96.988281h283.960938zm0 0" fill="#f0e7df"/><path d="m422.300781 239.71875h-45.628906c-7.722656 0-14 6.28125-14 14v30.421875c0 25.6875-20.902344 46.578125-46.59375 46.578125-25.679687 0-46.578125-20.890625-46.578125-46.578125v-28.671875c0-7.910156-5.878906-14.488281-13.5-15.589844v-93.878906h141.980469zm0 0" fill="#dfcdbd"/><path d="m512 372.179688v46.820312c0 29.53125-24.019531 53.550781-53.550781 53.550781h-404.898438c-29.53125 0-53.550781-24.019531-53.550781-53.550781v-46.820312zm0 0" fill="#ffaa20"/><path d="m512 372.179688v46.820312c0 29.53125-24.019531 53.550781-53.550781 53.550781h-202.449219v-100.371093zm0 0" fill="#ff8900"/></svg>