<?xml version="1.0" encoding="iso-8859-1"?>
<!-- Generator: Adobe Illustrator 19.0.0, SVG Export Plug-In . SVG Version: 6.00 Build 0)  -->
<svg version="1.1" id="Capa_1" xmlns="http://www.w3.org/2000/svg" xmlns:xlink="http://www.w3.org/1999/xlink" x="0px" y="0px"
	 viewBox="0 0 518.4 518.4" style="enable-background:new 0 0 518.4 518.4;" xml:space="preserve">
<path style="fill:#334A5E;" d="M112,34.8c-18.133,0-32,13.867-32,32v117.333c0,18.133,13.867,32,32,32s32-13.867,32-32V66.8
	C144,49.733,130.133,34.8,112,34.8z"/>
<path style="fill:#CDD6E0;" d="M475.733,254.533v236.8c0,11.733-9.6,21.333-21.333,21.333H64c-11.733,0-21.333-9.6-21.333-21.333
	v-236.8L259.2,38L475.733,254.533z"/>
<path style="fill:#C3D0DB;" d="M475.733,254.533v57.6c-8.533-2.133-17.067-6.4-23.467-12.8L259.2,105.2L66.133,298.267
	c-6.4,6.4-14.933,10.667-23.467,12.8v-57.6L259.2,38L475.733,254.533z"/>
<circle style="fill:#FF7058;" cx="259.2" cy="328.133" r="104.533"/>
<polygon style="fill:#FFFFFF;" points="336,308.933 278.4,308.933 278.4,251.333 240,251.333 240,308.933 182.4,308.933 
	182.4,347.333 240,347.333 240,404.933 278.4,404.933 278.4,347.333 336,347.333 "/>
<path style="fill:#40596B;" d="M508.8,241.733l-227.2-227.2c-12.8-11.733-33.067-11.733-44.8,0L9.6,241.733
	c-12.8,12.8-12.8,33.067,0,44.8c12.8,12.8,33.067,12.8,44.8,0L259.2,82.8L464,287.6c6.4,6.4,14.933,9.6,22.4,9.6
	c8.533,0,16-3.2,22.4-9.6C521.6,274.8,521.6,254.533,508.8,241.733z"/>
<g>
</g>
<g>
</g>
<g>
</g>
<g>
</g>
<g>
</g>
<g>
</g>
<g>
</g>
<g>
</g>
<g>
</g>
<g>
</g>
<g>
</g>
<g>
</g>
<g>
</g>
<g>
</g>
<g>
</g>
</svg>
