<svg id="icon" height="512" viewBox="0 0 128 128" width="512" xmlns="http://www.w3.org/2000/svg"><path d="m69.021 73.121 2.677 3.8 2.733-2.174-40.896-51.747c.037 5.144.759 10.148 3.678 14.707l23.721 35.893a6.956 6.956 0 0 0 8.087-.479z" fill="#dbd8dd"/><path d="m75.7 98.178a9.149 9.149 0 0 0 12.562 6.02c7.091-3 9.281-11.456 3.5-16.568a15.251 15.251 0 0 0 -5.947-3.414 16.414 16.414 0 0 1 -9.078-6.628l-2.7-3.927-3.737 1.212zm4.025 2.22a7.329 7.329 0 0 1 6.364-12.528 6.1 6.1 0 0 1 3.562 1.818 7.329 7.329 0 0 1 -6.41 12.5 6.129 6.129 0 0 1 -3.513-1.788z" fill="#ef5261"/><path d="m60.294 73.312-2.667 3.8-2.739-2.168 40.764-51.844c-.023 5.144-.733 10.15-3.641 14.716l-23.629 35.955a6.956 6.956 0 0 1 -8.088-.459z" fill="#eeefee"/><path d="m51.393 98.786a9.148 9.148 0 0 1 -13.016 4.962c-6.818-3.579-8.3-12.184-2.124-16.8a15.235 15.235 0 0 1 6.209-2.912 16.413 16.413 0 0 0 9.595-5.855l3.02-3.69 3.623 1.516zm-4.194 1.88a7.328 7.328 0 0 0 -5.3-13.01 6.094 6.094 0 0 0 -3.7 1.517 7.329 7.329 0 0 0 5.355 12.989 6.131 6.131 0 0 0 3.646-1.496z" fill="#ef5261"/><path d="m65.847 66.227a2.068 2.068 0 1 0 1.794 2.309 2.068 2.068 0 0 0 -1.794-2.309z" fill="#dbd8dd"/></svg>