<svg id="Capa_1" enable-background="new 0 0 510 510" height="512" viewBox="0 0 510 510" width="512" xmlns="http://www.w3.org/2000/svg"><g><path id="XMLID_1758_" d="m380 140-125 10h-135v-90h135l125 10z" fill="#eef4ff"/><path id="XMLID_1761_" d="m255 60h135v90h-135z" fill="#d9e6fc"/><path id="XMLID_1764_" d="m410 80-155 10h-165v-90h165l155 10z" fill="#4e6ba6"/><path id="XMLID_1767_" d="m255 0h165v90h-165z" fill="#28487a"/><path id="XMLID_1770_" d="m386.201 500-131.201 10h-141.201c-29.665 0-53.799-24.134-53.799-53.799v-282.403c0-29.664 24.134-53.798 53.799-53.798h141.201l131.201 10c29.665 0 53.799 24.134 53.799 53.798v262.403c0 29.665-24.134 53.799-53.799 53.799z" fill="#d9e6fc"/><path id="XMLID_1773_" d="m396.201 120h-141.201v390h141.201c29.665 0 53.799-24.134 53.799-53.799v-36.201l-10-114.667 10-95.333v-36.202c0-29.664-24.134-53.798-53.799-53.798z" fill="#bed9fd"/><path id="XMLID_1776_" d="m440 420c-8.114 0-281.94 0-290 0v-210h290z" fill="#db686b"/><path id="XMLID_1779_" d="m255 210h195v210h-195z" fill="#c21456"/><path id="XMLID_1782_" d="m210 270h180v30h-180z" fill="#eef4ff"/><path id="XMLID_1785_" d="m255 270h135v30h-135z" fill="#d9e6fc"/><path id="XMLID_1788_" d="m255 330h90v30h-90z" fill="#eef4ff"/></g></svg>