<svg id="Capa_1" enable-background="new 0 0 512 512" height="512" viewBox="0 0 512 512" width="512" xmlns="http://www.w3.org/2000/svg"><g><g><path d="m291.908 52.657c.987-8.886-5.968-16.657-14.908-16.657h-140c-8.94 0-15.896 7.771-14.908 16.656l6.482 58.344 77.426 33 79.426-33z" fill="#e1ebf0"/><path d="m277 36h-70v107.584l78.426-32.584 6.483-58.344c.986-8.885-5.969-16.656-14.909-16.656z" fill="#b3d8f4"/><g><path d="m285.426 111h-156.852l15.556 140h125.74z" fill="#ff6379"/></g><path d="m207 251h62.87l15.556-140h-78.426z" fill="#e50058"/></g><g><path d="m491.908 52.657c.987-8.886-5.968-16.657-14.908-16.657h-140c-8.94 0-15.896 7.771-14.908 16.656l6.482 58.344 77.426 33 79.426-33z" fill="#b3d8f4"/><path d="m477 36h-70v107.584l78.426-32.584 6.483-58.344c.986-8.885-5.969-16.656-14.909-16.656z" fill="#b3d8f4"/><g><path d="m485.426 111h-156.852l15.556 140h125.74z" fill="#fff04a"/></g><path d="m407 251h62.87l15.556-140h-78.426z" fill="#ffcd00"/></g><path d="m437 326h-260c-41.421 0-75-33.579-75-75 0-8.284 6.716-15 15-15h380c8.284 0 15 6.716 15 15 0 41.421-33.579 75-75 75z" fill="#e1ebf0"/><path d="m497 236h-190v90h130c41.421 0 75-33.579 75-75 0-8.284-6.716-15-15-15z" fill="#b3d8f4"/><path d="m328.405 296c20.678 0 37.5 16.822 37.5 37.5s-16.822 37.5-37.5 37.5h3.059c8.88 0 17.35-3.333 23.85-9.384l92.653-86.264c7.843-7.302 18.46-10.974 29.143-10.066 10.678.905 20.531 6.309 27.033 14.827 10.837 14.196 10.427 33.699-.996 47.428l-80.724 97.015c-21.915 26.339-54.136 41.444-88.401 41.444h-126.726c-30.37 0-60.782-6.906-88.19-20h-53.106c-8.284 0-15-6.716-15-15v-120c0-8.284 6.716-15 15-15h52.514c33.694-18.52 74.363-18.52 108.058 0z" fill="#f2d1a5"/><path d="m504.142 280.113c-6.502-8.519-16.355-13.922-27.033-14.827-10.683-.907-21.3 2.765-29.143 10.066l-92.653 86.264c-6.5 6.051-14.97 9.384-23.85 9.384h-3.059c20.678 0 37.5-16.822 37.5-37.5s-16.822-37.5-37.5-37.5h-21.404v170h27.022c34.265 0 66.485-15.105 88.4-41.444l80.724-97.015c11.423-13.729 11.833-33.231.996-47.428z" fill="#f2bb88"/><path d="m77 476h-62c-8.284 0-15-6.716-15-15v-180c0-8.284 6.716-15 15-15h62c8.284 0 15 6.716 15 15v180c0 8.284-6.716 15-15 15z" fill="#6e6e84"/><path d="m331.464 371h-100.622c-8.284 0-15 6.716-15 15s6.716 15 15 15h97.563c37.22 0 67.5-30.28 67.5-67.5 0-3.084-.227-6.115-.629-9.091l-39.963 37.207c-6.5 6.051-14.969 9.384-23.849 9.384z" fill="#f2bb88"/><path d="m395.276 324.409-39.963 37.207c-6.5 6.051-14.97 9.384-23.85 9.384h-24.463v30h21.405c37.22 0 67.5-30.28 67.5-67.5 0-3.084-.227-6.115-.629-9.091z" fill="#e3a76f"/></g></svg>