<?xml version="1.0" encoding="iso-8859-1"?>
<!-- Generator: Adobe Illustrator 19.0.0, SVG Export Plug-In . SVG Version: 6.00 Build 0)  -->
<svg version="1.1" id="Capa_1" xmlns="http://www.w3.org/2000/svg" xmlns:xlink="http://www.w3.org/1999/xlink" x="0px" y="0px"
	 viewBox="0 0 511.941 511.941" style="enable-background:new 0 0 511.941 511.941;" xml:space="preserve">
<path style="fill:#BBDEFB;" d="M402.148,149.441C384.338,62.889,299.736,7.162,213.183,24.973
	c-74.105,15.249-127.4,80.32-127.75,155.977c0,3.605,0.149,7.296,0.469,11.2C33.178,197.731-5.04,244.997,0.541,297.721
	c5.173,48.87,46.416,85.943,95.559,85.895h117.333v-53.333c0.054-42.097,27.482-79.267,67.691-91.733
	c-8.248-15.63-2.264-34.988,13.366-43.236c12.418-6.553,27.656-4.246,37.578,5.689l42.667,42.667
	c3.998,4.041,6.822,9.092,8.171,14.613l0.725,3.755c0.736,5.017,0.261,10.138-1.387,14.933l-2.347,5.184
	c-1.415,2.459-3.151,4.719-5.163,6.72l-42.667,42.667c-12.662,12.085-32.586,12.085-45.248,0c-3.381-3.357-5.962-7.434-7.552-11.925
	c-1.216,3.425-1.836,7.032-1.835,10.667v53.333h117.333c64.731-0.017,117.191-52.506,117.174-117.237
	C511.924,204.539,463.865,153.352,402.148,149.441z"/>
<path style="fill:#2196F3;" d="M362.49,264.897c-0.057-0.432-0.142-0.859-0.256-1.28c-0.412-1.827-1.312-3.507-2.603-4.864
	l-42.667-42.667c-4.237-4.092-10.99-3.975-15.083,0.262c-3.992,4.134-3.992,10.687,0,14.82l24.469,24.448h-16.917
	c-41.237,0-74.667,33.429-74.667,74.667v149.333c0,5.891,4.776,10.667,10.667,10.667s10.667-4.776,10.667-10.667V330.283
	c0-29.455,23.878-53.333,53.333-53.333h16.917l-24.448,24.448c-4.237,4.092-4.355,10.845-0.262,15.083
	c4.092,4.237,10.845,4.355,15.083,0.262c0.089-0.086,0.176-0.173,0.262-0.262l42.667-42.667c0.915-0.973,1.638-2.109,2.133-3.349
	l0,0l0,0C362.522,268.707,362.765,266.782,362.49,264.897z"/>
<g>
</g>
<g>
</g>
<g>
</g>
<g>
</g>
<g>
</g>
<g>
</g>
<g>
</g>
<g>
</g>
<g>
</g>
<g>
</g>
<g>
</g>
<g>
</g>
<g>
</g>
<g>
</g>
<g>
</g>
</svg>
