<?xml version="1.0" encoding="iso-8859-1"?>
<!-- Generator: Adobe Illustrator 19.0.0, SVG Export Plug-In . SVG Version: 6.00 Build 0)  -->
<svg version="1.1" id="Capa_1" xmlns="http://www.w3.org/2000/svg" xmlns:xlink="http://www.w3.org/1999/xlink" x="0px" y="0px"
	 viewBox="0 0 468.293 468.293" style="enable-background:new 0 0 468.293 468.293;" xml:space="preserve">
<path style="fill:#64798A;" d="M433.211,411.413H245.329V294.47h-22.366v116.943H35.082c-6.176,0-11.183,5.007-11.183,11.183
	c0,6.176,5.007,11.183,11.183,11.183h398.129c6.176,0,11.183-5.007,11.183-11.183C444.394,416.42,439.387,411.413,433.211,411.413z"
	/>
<circle style="fill:#2F4859;" cx="234.146" cy="419.778" r="34.398"/>
<path style="fill:#EBF0F3;" d="M389.992,312.911c43.244,0,78.301-35.057,78.301-78.301c0-39.496-29.274-72.072-67.293-77.436
	c1.421-5.287,2.244-10.827,2.244-16.573c0-34.577-27.471-62.607-61.359-62.607c-8.369,0-16.342,1.722-23.612,4.817
	c-4.744-38.704-37.666-68.695-77.651-68.695c-34.016,0-62.882,21.729-73.689,52.034c-7.622-2.474-15.739-3.85-24.186-3.85
	c-43.244,0-78.299,35.057-78.299,78.301c0,5.745,0.659,11.332,1.834,16.726C28.759,163.124,0,195.465,0,234.61
	c0,43.244,35.056,78.301,78.299,78.301H389.992z"/>
<g>
</g>
<g>
</g>
<g>
</g>
<g>
</g>
<g>
</g>
<g>
</g>
<g>
</g>
<g>
</g>
<g>
</g>
<g>
</g>
<g>
</g>
<g>
</g>
<g>
</g>
<g>
</g>
<g>
</g>
</svg>
