<svg id="Layer_1" enable-background="new 0 0 512 512" height="512" viewBox="0 0 512 512" width="512" xmlns="http://www.w3.org/2000/svg"><g clip-rule="evenodd" fill-rule="evenodd"><g><path d="m315.407 390.535c-39.008 0-80.976 0-119.928 0 2.614 22.696.239 49.268-4.661 71.494h129.936c-5.214-22.226-7.961-48.798-5.347-71.494z" fill="#656565"/><path d="m142.745 474.529c-6.904 0-12.5-5.596-12.5-12.5s5.596-12.5 12.5-12.5h226.082c6.904 0 12.5 5.596 12.5 12.5s-5.596 12.5-12.5 12.5z" fill="#515151"/><path d="m502 355.214c0 19.508-15.813 35.321-35.321 35.321h-421.358c-19.508 0-35.321-15.813-35.321-35.321 0-95.914 0-191.829 0-287.743 0-16.523 13.477-30 30-30h432c16.523 0 30 13.477 30 30z" fill="#6a676b"/><path d="m480 298.278v-230.807c0-4.38-3.62-8-8-8-144 0-288 0-432 0-4.38 0-8 3.62-8 8v230.807z" fill="#92d2fe"/><path d="m45.321 390.535h150.159 119.928 151.272c19.508 0 35.321-15.813 35.321-35.321 0 0 0-13.604 0-34.937h-492.001v34.937c0 19.508 15.813 35.321 35.321 35.321z" fill="#e6e6e6"/></g><g><path d="m361.442 100.349c8.297 0 15.063 6.767 15.063 15.063v126.923c0 8.296-6.767 15.063-15.063 15.063h-210.884c-8.296 0-15.063-6.767-15.063-15.063v-126.922c0-8.297 6.767-15.063 15.063-15.063h210.884z" fill="#ffc107"/><path d="m226.954 178.776-85.879 75.249c2.592 2.108 5.895 3.374 9.483 3.374h210.884c4.245 0 8.09-1.771 10.832-4.613l-85.866-74.374z" fill="#ebb000"/><path d="m141.026 103.764 85.929 75.012 29.328 25.602 30.125-25.965 85.567-73.751c-2.72-2.665-6.44-4.312-10.533-4.312h-210.884c-3.611-.001-6.932 1.281-9.532 3.414z" fill="#ffd54f"/></g></g></svg>