<svg height="512" viewBox="0 0 59 59" width="512" xmlns="http://www.w3.org/2000/svg"><g id="Page-1" fill="none" fill-rule="evenodd"><g id="008---Breakfast-Tray" fill-rule="nonzero"><path id="Shape" d="m53 42h-3c-.5522847 0-1-.4477153-1-1v-14c0-.5522847.4477153-1 1-1h3c3.3123376.0033074 5.9966926 2.6876624 6 6v4c-.0033074 3.3123376-2.6876624 5.9966926-6 6zm-2-2h2c2.209139 0 4-1.790861 4-4v-4c0-2.209139-1.790861-4-4-4h-2z" fill="#3b97d3"/><path id="Shape" d="m35.22 23c.1541697-.4888217.4059144-.9412818.74-1.33.6533533-.7378812 1.0221115-1.6845969 1.04-2.67 0-2.209139-1.790861-4-4-4h-26c-1.56249787-.0024482-2.98338607.9051332-3.63813712 2.3238322-.65475105 1.4186989-.42348966 3.0887724.59213712 4.2761678.64826401.7228893 1.01893063 1.6523907 1.046 2.623v23.777c0 1.6568542 1.34314575 3 3 3l27 4z" fill="#e4c05c"/><path id="Shape" d="m1 51h56c.5522847 0 1 .4477153 1 1 0 1.8565154-.7374979 3.6369928-2.0502525 4.9497475-1.3127547 1.3127546-3.0932321 2.0502525-4.9497475 2.0502525h-44c-1.85651543 0-3.63699282-.7374979-4.94974747-2.0502525-1.31275465-1.3127547-2.05025253-3.0932321-2.05025253-4.9497475 0-.5522847.44771525-1 1-1z" fill="#3b97d3"/><path id="Shape" d="m28.68 47h-18.68c-.55228475 0-1-.4477153-1-1v-21.79c-.00284825-1.1462582-.26254527-2.277307-.76-3.31-.18852863-.4198951-.15101071-.9067824.09962171-1.2928372.25063243-.3860548.68010318-.6184806 1.14037829-.6171628h21.04c.4602751-.0013178.8897459.231108 1.1403783.6171628s.2881503.8729421.0996217 1.2928372c-.3157147.6662438-.5378168 1.3729321-.66 2.1z" fill="#e64c3c"/><g fill="#d1d4d1"><path id="Shape" d="m41 14c-.5522847 0-1-.4477153-1-1 .0183274-.8874053-.2762087-1.7529594-.832-2.445-.7752267-1.02140984-1.186388-2.272847-1.168-3.555-.018388-1.282153.3927733-2.53359016 1.168-3.555.5557913-.69204062.8503274-1.55759465.832-2.445 0-.55228475.4477153-1 1-1s1 .44771525 1 1c.018388 1.282153-.3927733 2.53359016-1.168 3.555-.5557913.69204062-.8503274 1.55759465-.832 2.445-.0183274.88740535.2762087 1.75295938.832 2.445.7752267 1.0214098 1.186388 2.272847 1.168 3.555 0 .5522847-.4477153 1-1 1z"/><path id="Shape" d="m47.34 11c-.3429019.0006107-.6622048-.1745152-.846-.464-.1-.159-.206-.308-.312-.458-.7793696-.96417695-1.1974508-2.17031642-1.182-3.41-.0153179-1.24013523.4031254-2.44665272 1.183-3.411.5425161-.62515243.8336547-1.42943615.817-2.257 0-.55228475.4477153-1 1-1s1 .44771525 1 1c.0153179 1.24013523-.4031254 2.44665272-1.183 3.411-.5425161.62515243-.8336547 1.42943615-.817 2.257-.0162631.82732234.2744294 1.6313579.816 2.257.125.177.249.353.368.539.1955095.30793393.2078457.6978926.0321906 1.0175683s-.5114342.5183522-.8761906.5184317z"/><path id="Shape" d="m33.34 11c-.3429019.0006107-.6622048-.1745152-.846-.464-.1-.159-.206-.308-.312-.458-.7793696-.96417695-1.1974508-2.17031642-1.182-3.41-.0153179-1.24013523.4031254-2.44665272 1.183-3.411.5425161-.62515243.8336547-1.42943615.817-2.257 0-.55228475.4477153-1 1-1s1 .44771525 1 1c.0153179 1.24013523-.4031254 2.44665272-1.183 3.411-.5425161.62515243-.8336547 1.42943615-.817 2.257-.0162631.82732234.2744294 1.6313579.816 2.257.125.177.249.353.368.539.1955095.30793393.2078457.6978926.0321906 1.0175683s-.5114342.5183522-.8761906.5184317z"/></g><path id="Shape" d="m29 23h22c.5522847 0 1 .4477153 1 1v20c0 3.8659932-3.1340068 7-7 7h-10c-3.8659932 0-7-3.1340068-7-7v-20c0-.5522847.4477153-1 1-1z" fill="#b0d3f0"/><path id="Shape" d="m52 24v4h-24v-4c0-.5522847.4477153-1 1-1h22c.5522847 0 1 .4477153 1 1z" fill="#90bae1"/></g></g></svg>