<?xml version="1.0" encoding="iso-8859-1"?>
<!-- Generator: Adobe Illustrator 19.0.0, SVG Export Plug-In . SVG Version: 6.00 Build 0)  -->
<svg version="1.1" id="Capa_1" xmlns="http://www.w3.org/2000/svg" xmlns:xlink="http://www.w3.org/1999/xlink" x="0px" y="0px"
	 viewBox="0 0 479.99 479.99" style="enable-background:new 0 0 479.99 479.99;" xml:space="preserve">
<path style="fill:#607D8B;" d="M447.995,287.99c-8.832,0-16-7.168-16-16v-128c0-8.832-7.2-16-16-16h-70.08c-8.832,0-16-7.168-16-16
	s7.136-16,16-16h70.08c26.464,0,48,21.536,48,48v128C463.995,280.822,456.827,287.99,447.995,287.99z"/>
<path style="fill:#ECEFF1;" d="M398.875,351.126c-0.096-0.864-0.288-1.696-0.544-2.496L351.803,45.59
	c-1.184-7.84-7.904-13.6-15.808-13.6h-189.76L36.379,0.598c-6.56-1.824-13.568,0.608-17.472,6.176s-3.872,12.992,0.064,18.528
	L58.683,80.79l-41.6,270.336c-0.736,5.536-1.088,10.976-1.088,16.864c0,61.76,50.24,112,112,112h160
	c29.888,0,57.984-11.648,79.168-32.832s32.832-49.28,32.832-79.168C399.995,362.102,399.611,356.63,398.875,351.126z"/>
<path style="fill:#2196F3;" d="M367.067,355.734l-10.4-67.744H59.195l-10.432,67.712c-0.512,3.776-0.768,7.904-0.768,12.288
	c0,44.128,35.904,80,80,80h160c21.312,0,41.408-8.352,56.544-23.456s23.456-35.232,23.456-56.544c0-3.616-0.192-7.072-0.576-10.464
	C367.291,356.918,367.163,356.342,367.067,355.734z"/>
<g>
</g>
<g>
</g>
<g>
</g>
<g>
</g>
<g>
</g>
<g>
</g>
<g>
</g>
<g>
</g>
<g>
</g>
<g>
</g>
<g>
</g>
<g>
</g>
<g>
</g>
<g>
</g>
<g>
</g>
</svg>
