<svg enable-background="new 0 0 512 512" height="512" viewBox="0 0 512 512" width="512" xmlns="http://www.w3.org/2000/svg"><g id="_x30_8_Banana"><g><path d="m494.294 282.973c-54.898 130.232-181.732 209.714-267.872 225.268-86.14 15.555-172.159-21.133-209.787-50.37-28.247-22.119-12.803-58.626 16.904-57.824 0 0 151.096 20.005 232.502-63.842 81.368-83.736 126.301-191.305 74.855-245.999 0 0-10.16-9.822-22.527-13.209-9.457-2.633-14.835-13.252-10.057-21.853 1.208-.591 24.024-47.156 36.924-54.005 11.025-5.848 22.705 13.758 28.824 27.19 6.009 13.396 16.969 44.699 45.641 51.363 27.179 6.397 129.529 72.941 74.593 203.281z" fill="#ffc536"/><g opacity=".4"><path d="m113.775 422.056c-.524-4.48 2.685-8.535 7.168-9.056 9.141-1.066 18.205-2.449 26.942-4.113 4.44-.861 8.708 2.069 9.553 6.496.843 4.432-2.066 8.708-6.496 9.553-9.123 1.736-18.58 3.18-28.112 4.289-4.48.522-8.534-2.687-9.055-7.169z" fill="#fff"/></g><path d="m377.755 48.712c-3.306 14.526-11.106 25.566-24.039 32.628-7.953 4.343-17.617 4.048-25.573-.289-2.954-1.61-6.274-3.075-9.794-4.03-9.421-2.668-14.812-13.287-10.02-21.89.109-.055.164-.164.218-.381 8.767-15.192 25.811-47.81 36.702-53.637 10.999-5.827 22.707 13.777 28.806 27.227.581 1.302 1.222 2.784 1.927 4.401 2.185 5.013 2.986 10.639 1.773 15.971z" fill="#ffc536"/><path d="m377.755 48.712c-5.581 24.525-28.556 43.817-49.611 32.339-2.954-1.61-6.274-3.075-9.794-4.03-9.421-2.668-14.812-13.287-10.02-21.89 1.143-.571 24.002-47.107 36.92-54.018 10.999-5.827 22.707 13.777 28.806 27.227 2.879 6.45 5.529 12.327 3.699 20.372z" fill="#6d6d6d"/><path d="m494.294 282.973c-54.898 130.232-181.732 209.714-267.872 225.268-86.14 15.555-172.159-21.133-209.787-50.37-14.703-11.502-17.56-26.985-12.608-38.937 41.433 27.737 120.619 57.695 199.895 43.322 86.141-15.556 212.973-95.037 267.871-225.268 18.275-43.338 19.134-79.608 11.147-108.915 25.16 33.612 40.757 85.153 11.354 154.9z" fill="#f2b816"/><path d="m494.289 282.965c-52.556 124.717-192.343 233.994-320.786 228.759 106.097-5.024 243.386-96.518 299.114-228.759 54.944-130.308-47.429-196.85-74.601-203.275-28.697-6.644-39.642-37.954-45.632-51.35-3.267-7.133-8.059-15.955-13.505-21.836 2.287-2.505 4.465-4.356 6.371-5.391 10.999-5.827 22.707 13.777 28.806 27.227 5.99 13.395 16.989 44.706 45.632 51.35 27.172 6.425 129.544 72.967 74.601 203.275z" opacity=".08"/></g></g></svg>