<svg id="Capa_1" enable-background="new 0 0 470.578 470.578" height="512" viewBox="0 0 470.578 470.578" width="512" xmlns="http://www.w3.org/2000/svg"><g><path d="m470.578 270.353v-70.128l-63.66-13.079c-3.877-13.66-9.329-26.823-16.246-39.224l35.793-54.151-49.657-49.657-54.151 35.793c-12.401-6.918-25.564-12.37-39.224-16.246l-13.08-63.661h-70.128l-13.079 63.66c-13.616 3.878-26.734 9.33-39.087 16.246l-54.288-35.792-49.657 49.657 35.793 54.151c-6.93 12.379-12.34 25.549-16.114 39.224l-63.793 13.079v70.128l63.792 13.073c3.774 13.633 9.185 26.76 16.114 39.092l-35.793 54.289 49.657 49.658 54.289-35.793c12.333 6.93 25.459 12.34 39.092 16.114l13.073 63.792h70.128l13.073-63.792c13.676-3.774 26.846-9.184 39.224-16.114l54.151 35.793 49.658-49.658-35.787-54.289c6.917-12.355 12.369-25.474 16.246-39.092zm-235.237 62.495c-53.88.029-97.582-43.627-97.611-97.507s43.627-97.582 97.507-97.611 97.582 43.627 97.611 97.507c-.022 53.86-43.648 97.532-97.507 97.611z" fill="#575b6d"/></g></svg>