<svg height="512" viewBox="0 0 48 48" width="512" xmlns="http://www.w3.org/2000/svg"><g id="Line"><path d="m43.59 34.29a7.54 7.54 0 0 0 -4.72-1.87 7.93 7.93 0 0 0 -.15-3.49 8 8 0 0 0 -13.46-3.5 9 9 0 0 0 -17.26 3.57 2.81 2.81 0 0 0 0 .29 8.14 8.14 0 0 0 -6 7.81 9.16 9.16 0 0 0 9.26 8.9h28.74a6 6 0 0 0 6-6 7.58 7.58 0 0 0 -2.41-5.71z" fill="#005c66"/><path d="m45.5 9.64a1 1 0 0 0 -1-.26 5 5 0 0 1 -6.13-6.12 1 1 0 0 0 -.26-1 1 1 0 0 0 -1-.26 7 7 0 1 0 8.57 8.58 1 1 0 0 0 -.18-.94z" fill="#f9d67a"/></g></svg>