<?xml version="1.0" encoding="iso-8859-1"?>
<!-- Generator: Adobe Illustrator 19.0.0, SVG Export Plug-In . SVG Version: 6.00 Build 0)  -->
<svg version="1.1" id="Layer_1" xmlns="http://www.w3.org/2000/svg" xmlns:xlink="http://www.w3.org/1999/xlink" x="0px" y="0px"
	 viewBox="0 0 511.996 511.996" style="enable-background:new 0 0 511.996 511.996;" xml:space="preserve">
<circle style="fill:#F09EA0;" cx="255.997" cy="255.868" r="156.826"/>
<path style="fill:#EF8990;" d="M370.075,148.266c33.166,59.662,24.419,136.371-26.247,187.038
	c-61.244,61.243-160.538,61.243-221.781,0c-1.083-1.084-2.142-2.182-3.188-3.289c6.923,12.454,15.671,24.166,26.248,34.743
	c61.244,61.243,160.538,61.243,221.781,0C427.047,306.599,428.107,209.725,370.075,148.266z"/>
<path style="fill:#F9DE8F;" d="M137.949,194.462c13.348,9.787,2.933,34.232,16.511,44.366c13.666,10.198,34.49-6.895,48.796,3.528
	c13.958,10.17,4.397,33.913,18.729,44.525c14.204,10.517,34.578-4.668,47.397,5.436c12.563,9.901,1.607,31.278,14.173,41.184
	c12.908,10.175,33.944-4.916,47.397,5.436c13.237,10.185,2.772,32.409,15.693,42.298l1.601,1.472
	c6.519-4.753,12.756-10.066,18.639-15.949c10.031-10.031,18.409-21.089,25.154-32.828c-12.904-9.893-0.557-32.108-13.79-42.291
	c-13.453-10.352-34.49,4.739-47.397-5.436c-12.567-9.906-1.612-31.283-14.173-41.184c-12.819-10.103-33.193,5.081-47.397-5.436
	c-14.334-10.612-4.772-34.355-18.73-44.525c-14.307-10.425-35.129,6.668-48.795-3.528c-13.58-10.133-3.163-34.578-16.511-44.366
	c-13.303-9.753-25.993,7.801-40.141-2.187c-14.519,14.521-25.591,31.181-33.225,48.964
	C121.189,191.972,130.573,189.053,137.949,194.462z"/>
<path style="fill:#F7CF6D;" d="M392.042,333.931c-12.904-9.893-0.557-32.108-13.79-42.291c-0.902-0.694-1.841-1.266-2.806-1.746
	c-7.554,16.446-18.072,31.863-31.619,45.41c-2.857,2.857-5.797,5.581-8.812,8.171c6.843,11.225,0.393,29.159,11.633,37.762
	l1.601,1.472l0.001-0.001C375.038,363.613,389.531,338.301,392.042,333.931z"/>
<g>
	<path style="fill:#F9DE8F;" d="M366.888,144.978c6.034,6.034,11.465,12.444,16.31,19.144l121.099-38.446
		c5.663-1.797,8.147-8.424,5.05-13.493c-4.38-7.172-11.143-16.966-19.669-25.296c-15.553-15.196-46.478-18.091-46.478-18.091
		s-4.916-30.842-19.135-47.878c-8.672-10.389-17.72-16.46-24.352-19.882c-5.062-2.612-11.252-0.086-12.975,5.344l-38.856,122.39
		C354.533,133.586,360.895,138.985,366.888,144.978z"/>
	<path style="fill:#F9DE8F;" d="M145.107,366.76c-5.971-5.971-11.354-12.309-16.16-18.934L7.697,386.319
		c-5.663,1.797-8.147,8.424-5.05,13.493c4.38,7.172,11.143,16.966,19.669,25.296c15.553,15.196,46.478,18.091,46.478,18.091
		s4.916,30.842,19.135,47.878c8.672,10.389,17.72,16.46,24.351,19.882c5.062,2.612,11.252,0.086,12.975-5.344l38.923-122.6
		C157.505,378.186,151.12,372.772,145.107,366.76z"/>
</g>
<g>
	<path style="fill:#F7CF6D;" d="M132.539,408.801c-6.109,19.242-27.395,20.302-44.114,8.985
		c-25.774-17.447-61.754-20.41-69.358-35.078l-11.37,3.61c-5.663,1.797-8.147,8.424-5.05,13.493
		c4.38,7.172,11.143,16.966,19.669,25.296c15.553,15.196,46.478,18.091,46.478,18.091s4.916,30.842,19.135,47.878
		c8.672,10.389,17.72,16.46,24.351,19.882c5.062,2.612,11.252,0.086,12.975-5.344l38.923-122.6
		c-6.457-4.675-12.635-9.906-18.475-15.685L132.539,408.801z"/>
	<path style="fill:#F7CF6D;" d="M383.199,164.121l121.812-38.673c1.231-0.391,0.851-2.224-0.436-2.091L359.75,138.31
		C362.176,140.453,373.039,149.953,383.199,164.121z"/>
</g>
<g>
</g>
<g>
</g>
<g>
</g>
<g>
</g>
<g>
</g>
<g>
</g>
<g>
</g>
<g>
</g>
<g>
</g>
<g>
</g>
<g>
</g>
<g>
</g>
<g>
</g>
<g>
</g>
<g>
</g>
</svg>
