<svg id="Capa_1" enable-background="new 0 0 512 512" height="512" viewBox="0 0 512 512" width="512" xmlns="http://www.w3.org/2000/svg"><path d="m397 13.086h-282c-63.411 0-115 51.589-115 115v140c0 58.33 43.648 106.655 100 114.026v101.801c0 6.067 3.655 11.537 9.26 13.858 1.856.769 3.805 1.142 5.737 1.142 3.904 0 7.741-1.524 10.61-4.394l111.433-111.433h159.96c63.411 0 115-51.589 115-115v-140c0-63.411-51.589-115-115-115z" fill="#ff674f"/><path d="m397 13.086h-140.992v370h140.992c63.411 0 115-51.589 115-115v-140c0-63.411-51.589-115-115-115z" fill="#f2472c"/><path d="m343.745 216.476-77.137 77.137c-2.93 2.929-6.768 4.394-10.607 4.394s-7.677-1.464-10.606-4.393l-77.139-77.136c-24.205-24.205-24.206-63.59-.003-87.795 24.189-24.189 63.546-24.213 87.755-.057 11.718-11.695 27.28-18.128 43.841-18.128 16.583 0 32.173 6.458 43.897 18.185 11.726 11.725 18.184 27.314 18.184 43.896 0 16.581-6.458 32.171-18.185 43.897z" fill="#fff"/><path d="m299.849 110.497c-16.557 0-32.123 6.438-43.841 18.128v169.381c3.836-.002 7.672-1.466 10.6-4.393l77.137-77.137c11.727-11.726 18.185-27.315 18.185-43.897s-6.458-32.172-18.184-43.896c-11.724-11.728-27.314-18.186-43.897-18.186z" fill="#ffedcd"/></svg>