<svg height="512" viewBox="0 0 56 58" width="512" xmlns="http://www.w3.org/2000/svg"><g id="Page-1" fill="none" fill-rule="evenodd"><g id="008---Bell" fill-rule="nonzero"><path id="Shape" d="m23 5.67v-.67c0-2.76142375 2.2385763-5 5-5s5 2.23857625 5 5v.67z" fill="#f0c419"/><path id="Shape" d="m37.92 50.57c-.61 4.18-4.82 7.43-9.92 7.43s-9.31-3.24-9.92-7.43z" fill="#f29c1f"/><path id="Shape" d="m37.92 50.57c-3.34.33-6.79.43-9.92.43s-6.58-.1-9.92-.43c-8.92-.9-17-3.51-16-10.57 1-7 6.06-9.1 7.98-14 1.69-4.3 2.4-17.23 12.94-20.33 1.6259627-.46171394 3.3098423-.68735381 5-.67 1.6901577-.01735381 3.3740373.20828606 5 .67 10.54 3.1 11.25 16.03 12.94 20.33 1.92 4.9 6.98 7 7.98 14 1 7.06-7.08 9.67-16 10.57z" fill="#f3d55b"/><path id="Shape" d="m22 11.428c-.4525881-.0000199-.8487411-.3040116-.9658809-.7411777-.1171399-.4371661.0739396-.89850836.4658809-1.1248223.7038419-.40259817 1.4504766-.72526779 2.226-.962.3442678-.11625756.7245069-.03661939.9931885.20801572s.3835178.61576402.2999534.96939252c-.0835644.35362846-.3523773.63409896-.7021419.73259176-.6328679.1948699-1.2422397.4591434-1.817.788-.1520949.0871381-.3247236.1320216-.5.13z" fill="#fff"/><path id="Shape" d="m13.782 28.46c-.3304293-.0003328-.6393622-.1638712-.8254121-.4369445s-.2251948-.6204233-.1045879-.9280555c.4476313-1.2658605.8173232-2.5579454 1.107-3.869.916-3.716 2.079-7.91 4.35-10.839.2174205-.2869205.57228-.4348344.9291182-.3872787.3568382.0475556.6605756.2832405.7952668.6170868.1346912.3338462.079546.7143233-.144385.9961919-2.031 2.619-3.121 6.575-3.985 10.077-.3092089 1.4021196-.7070068 2.7832234-1.191 4.135-.1501646.3830257-.5195902.6349969-.931.635z" fill="#fff"/><g fill="#ff5364"><path id="Shape" d="m5.2 24.93c-.49573419-.0007098-.91611898-.3645043-.988-.855-.14584899-1.018428-.21670623-2.0461923-.212-3.075-.02660738-6.6264474 2.71580824-12.9628232 7.565-17.479.4026156-.37831504 1.0356849-.35861557 1.414.04400001.378315.40261558.3586156 1.03568493-.044 1.41399999-4.44523159 4.13917509-6.95930424 9.9470998-6.935 16.021-.00482626.9316947.05834147 1.8624997.189 2.785.07983393.5461472-.29792119 1.0536997-.844 1.134-.04796053.0075459-.09645001.0112244-.145.011z"/><path id="Shape" d="m1.249 25.61c-.49709927-.0004308-.91841206-.3659378-.989-.858-.17537581-1.242935-.26226102-2.4967554-.26-3.752-.03330412-7.6874192 3.12956815-15.04294451 8.732-20.307.40123487-.37969575 1.03430422-.36223485 1.414.03900001.3796957.40123487.3622349 1.03430422-.039 1.41399999-5.20209878 4.88701388-8.13870339 11.7165123-8.107 18.854-.00241568 1.1598991.07778725 2.3184972.24 3.467.03800123.262576-.02990024.5294909-.18875692.7419875s-.39564625.3531554-.65824308.3910125c-.0477497.0062813-.09584042.009621-.144.01z"/><path id="Shape" d="m50.8 24.93c-.0488837.0002782-.0977098-.0034005-.146-.011-.5460788-.0803003-.9238339-.5878528-.844-1.134.1309931-.9224758.194495-1.8532809.19-2.785.0243042-6.0739002-2.4897684-11.88182491-6.935-16.021-.4026155-.37831506-.422315-1.0113844-.044-1.41399996.3783151-.40261557 1.0113844-.42231506 1.414-.04400004 4.8491918 4.5161768 7.5916074 10.8525526 7.565 17.479.0050374 1.0287832-.0654856 2.0565473-.211 3.075-.0719365.4908707-.4928862.8547858-.989.855z"/><path id="Shape" d="m54.751 25.61c-.0481582-.0004139-.0962468-.0037534-.144-.01-.2625968-.0378571-.4993864-.1785159-.6582431-.3910125s-.2267581-.4794115-.1887569-.7419875c.1622128-1.1485028.2424157-2.3071009.24-3.467.0317034-7.1374877-2.9049012-13.96698612-8.107-18.854-.2595535-.24562009-.368354-.61105254-.2854175-.95864248s.3450101-.62453018.6875-.72650002c.34249-.10196983.7133641-.01347761.9729175.2321425 5.6024318 5.26405549 8.7653041 12.6195808 8.732 20.307.002261 1.2552446-.0846242 2.509065-.26 3.752-.0705879.4920622-.4919007.8575692-.989.858z"/></g></g></g></svg>