<?xml version="1.0" encoding="iso-8859-1"?>
<!-- Generator: Adobe Illustrator 19.0.0, SVG Export Plug-In . SVG Version: 6.00 Build 0)  -->
<svg version="1.1" id="Capa_1" xmlns="http://www.w3.org/2000/svg" xmlns:xlink="http://www.w3.org/1999/xlink" x="0px" y="0px"
	 viewBox="0 0 468.293 468.293" style="enable-background:new 0 0 468.293 468.293;" xml:space="preserve">
<path style="fill:#F6C358;" d="M455.805,328.383H12.488C5.591,328.383,0,322.792,0,315.896V37.559
	c0-6.897,5.591-12.488,12.488-12.488h443.317c6.897,0,12.488,5.591,12.488,12.488v278.337
	C468.293,322.792,462.702,328.383,455.805,328.383z"/>
<path style="fill:#FCD462;" d="M31.219,284.674V68.777c0-6.897,5.591-12.488,12.488-12.488h380.878
	c6.897,0,12.488,5.591,12.488,12.488v215.896c0,6.897-5.591,12.488-12.488,12.488H43.706
	C36.81,297.162,31.219,291.571,31.219,284.674z"/>
<g>
	<rect x="78.049" y="114.288" style="fill:#EBF0F3;" width="312.195" height="12.488"/>
	<rect x="78.049" y="151.752" style="fill:#EBF0F3;" width="312.195" height="12.488"/>
	<rect x="78.049" y="189.215" style="fill:#EBF0F3;" width="312.195" height="12.488"/>
	<rect x="78.049" y="226.679" style="fill:#EBF0F3;" width="312.195" height="12.488"/>
</g>
<g>
	<path style="fill:#44C4A1;" d="M185.525,439.822l-2.85-6.882c-1.185-2.86-4.29-4.146-7.15-2.962l-6.882,2.85
		c-4.798,1.987-9.183-2.904-7.104-7.924l37.996-91.731l34.612,14.337l-37.996,91.731
		C194.071,444.262,187.512,444.619,185.525,439.822z"/>
	<path style="fill:#44C4A1;" d="M282.769,439.822l2.85-6.882c1.185-2.86,4.29-4.146,7.15-2.962l6.882,2.85
		c4.798,1.987,9.183-2.904,7.104-7.924l-37.996-91.731l-34.612,14.337l37.996,91.731
		C274.222,444.262,280.782,444.619,282.769,439.822z"/>
</g>
<path style="fill:#1C75A1;" d="M234.145,379.357c-6.271,0-12.308-3.073-16.558-8.421l-5.799-7.299
	c-0.912-1.152-2.11-2.055-3.466-2.616l-1.079-0.451c-1.338-0.549-2.826-0.756-4.29-0.598l-9.262,1.061
	c-6.771,0.799-13.223-1.317-17.662-5.75c-4.436-4.439-6.53-10.872-5.753-17.665l1.061-9.262c0.168-1.457-0.04-2.945-0.601-4.299
	l-0.442-1.067c-0.561-1.354-1.466-2.555-2.613-3.463l-7.302-5.799c-5.351-4.25-8.421-10.287-8.421-16.561
	c-0.003-6.268,3.067-12.305,8.418-16.561l7.302-5.799c1.149-0.909,2.055-2.11,2.619-3.47l0.439-1.061
	c0.561-1.354,0.768-2.841,0.601-4.299l-1.061-9.262c-0.777-6.793,1.317-13.226,5.753-17.665c4.439-4.433,10.863-6.549,17.665-5.75
	l9.262,1.061c1.457,0.171,2.948-0.043,4.299-0.604l1.055-0.439c1.372-0.567,2.567-1.47,3.482-2.616l5.796-7.305
	c4.25-5.348,10.287-8.421,16.558-8.421c6.274,0,12.311,3.073,16.561,8.421l5.799,7.305c0.912,1.146,2.104,2.049,3.454,2.604
	l1.095,0.457c1.338,0.561,2.832,0.762,4.287,0.598l9.259-1.061c6.774-0.799,13.223,1.311,17.662,5.75
	c4.436,4.433,6.534,10.872,5.756,17.665l-1.064,9.262c-0.168,1.451,0.043,2.945,0.604,4.299l0.442,1.067
	c0.561,1.354,1.463,2.555,2.61,3.463l7.305,5.799c5.351,4.256,8.421,10.287,8.421,16.561s-3.07,12.305-8.421,16.561l-7.302,5.799
	c-1.149,0.909-2.052,2.11-2.613,3.463l-0.442,1.067c-0.561,1.354-0.768,2.841-0.601,4.299l1.061,9.262
	c0.777,6.793-1.317,13.226-5.753,17.665c-4.433,4.433-10.863,6.549-17.668,5.75l-9.259-1.061c-1.47-0.159-2.951,0.049-4.305,0.604
	l-1.052,0.439c-1.369,0.567-2.567,1.47-3.476,2.616l-5.799,7.305C246.456,376.284,240.42,379.357,234.145,379.357z"/>
<path style="fill:#2D93BA;" d="M234.145,360.625c-0.332,0-1.11-0.36-1.893-1.341l-5.796-7.299
	c-2.866-3.622-6.668-6.494-10.976-8.274l-1.012-0.421c-3.436-1.409-6.948-2.098-10.555-2.098c-0.994,0-1.988,0.049-2.979,0.159
	l-9.375,1.073l-0.671,0.043c-0.817,0-1.405-0.22-1.625-0.439c-0.223-0.22-0.521-1.024-0.378-2.28l1.061-9.256
	c0.53-4.61-0.128-9.317-1.905-13.604l-0.442-1.067c-1.78-4.293-4.643-8.091-8.284-10.976l-7.287-5.787
	c-0.982-0.78-1.338-1.555-1.338-1.89c0-0.341,0.36-1.116,1.348-1.902l7.29-5.787c3.613-2.86,6.485-6.659,8.271-10.963l0.445-1.073
	c1.774-4.28,2.433-8.988,1.902-13.604l-1.061-9.256c-0.143-1.25,0.155-2.055,0.393-2.293c0.189-0.183,0.735-0.421,1.604-0.421
	c0.207,0,0.415,0.012,0.625,0.037l9.317,1.067c1.003,0.116,2.061,0.177,3.116,0.177c3.622,0,7.152-0.701,10.5-2.091l1.067-0.445
	c4.244-1.75,8.037-4.604,10.927-8.226l5.826-7.348c0.774-0.97,1.552-1.329,1.884-1.329s1.113,0.36,1.896,1.341l5.793,7.299
	c2.909,3.659,6.713,6.518,11.006,8.287l0.991,0.415c3.32,1.39,6.866,2.098,10.521,2.098c1.034,0,2.067-0.055,3.095-0.171
	l9.284-1.067l0.674-0.043c0.817,0,1.396,0.213,1.613,0.427c0.238,0.238,0.534,1.043,0.39,2.293l-1.064,9.25
	c-0.53,4.604,0.128,9.311,1.909,13.61l0.442,1.067c1.78,4.299,4.643,8.091,8.28,10.976l7.293,5.787
	c0.976,0.774,1.335,1.555,1.335,1.89s-0.36,1.116-1.351,1.902l-7.29,5.787c-3.613,2.86-6.485,6.659-8.268,10.963l-0.442,1.067
	c-1.777,4.287-2.436,8.994-1.905,13.61l1.061,9.256c0.143,1.25-0.155,2.055-0.393,2.293c-0.192,0.189-0.735,0.421-1.607,0.421
	c-0.207,0-0.415-0.012-0.628-0.037l-9.311-1.067c-1.113-0.122-2.104-0.171-3.091-0.171c-3.607,0-7.122,0.689-10.448,2.049
	l-1.165,0.488c-4.256,1.762-8.055,4.628-10.939,8.268l-5.79,7.293C235.258,360.265,234.478,360.625,234.145,360.625z"/>
<g>
</g>
<g>
</g>
<g>
</g>
<g>
</g>
<g>
</g>
<g>
</g>
<g>
</g>
<g>
</g>
<g>
</g>
<g>
</g>
<g>
</g>
<g>
</g>
<g>
</g>
<g>
</g>
<g>
</g>
</svg>
