<svg height="512pt" viewBox="-47 0 511 512" width="512pt" xmlns="http://www.w3.org/2000/svg"><path d="m353.035156 0h-176.265625l-20.015625 127.570312 20.015625 170.871094 176.265625-234.707031zm0 0" fill="#b4aaaa"/><path d="m.5 0v448.214844h63.785156l112.484375-149.773438v-298.441406zm0 0" fill="#e1d3ce"/><path d="m240.554688 63.785156-20.015626 206.355469 20.015626 241.859375h80.589843l27.824219-67.855469 67.851562-27.824219v-352.535156zm0 0" fill="#efe2dd"/><path d="m64.285156 63.785156h176.269532v448.214844h-176.269532zm0 0" fill="#fff5f5"/><g fill="#b4aaaa"><path d="m321.144531 512v-95.679688h95.675781zm0 0"/><path d="m368.984375 176.355469h-128.429687l-10.007813 15 10.007813 15h128.429687zm0 0"/><path d="m368.984375 270.140625v-30h-128.429687l-10.007813 15.859375 10.007813 14.140625zm0 0"/><path d="m368.984375 333.925781v-30h-128.429687l-10.007813 15 10.007813 15zm0 0"/><path d="m305.195312 112.570312h-64.640624l-10.007813 15 10.007813 15h64.640624zm0 0"/></g><path d="m112.125 176.355469h128.429688v30h-128.429688zm0 0" fill="#e1d3ce"/><path d="m112.125 240.140625h128.429688v30h-128.429688zm0 0" fill="#e1d3ce"/><path d="m112.125 303.925781h128.429688v30h-128.429688zm0 0" fill="#e1d3ce"/><path d="m175.910156 112.570312h64.644532v30h-64.644532zm0 0" fill="#e1d3ce"/></svg>