<?xml version="1.0" encoding="iso-8859-1"?>
<!-- Generator: Adobe Illustrator 19.0.0, SVG Export Plug-In . SVG Version: 6.00 Build 0)  -->
<svg version="1.1" id="Capa_1" xmlns="http://www.w3.org/2000/svg" xmlns:xlink="http://www.w3.org/1999/xlink" x="0px" y="0px"
	 viewBox="0 0 512 512" style="enable-background:new 0 0 512 512;" xml:space="preserve">
<path style="fill:#FFC107;" d="M495.95,270.6c-0.7-8.3-7.6-14.6-15.9-14.6h-192c-8.3,0-15.2,6.3-15.9,14.6L256.05,448
	c0,35.3,28.7,64,64,64h128c35.3,0,64-28.7,63.9-65.4L495.95,270.6z"/>
<path style="fill:#455A64;" d="M432.05,320c-8.8,0-16-7.2-16-16v-80c0-17.6-14.3-32-32-32s-32,14.4-32,32v80c0,8.8-7.2,16-16,16
	s-16-7.2-16-16v-80c0-35.3,28.7-64,64-64s64,28.7,64,64v80C448.05,312.8,440.85,320,432.05,320z"/>
<path style="fill:#2196F3;" d="M192.05,0c-105.9,0-192,86.1-192,192c0,134.1,173.3,308,180.7,315.3c3.1,3.1,7.2,4.7,11.3,4.7
	s8.2-1.6,11.3-4.7c1.7-1.7,11.7-11.8,26.3-28c-3.3-9.7-5.6-20.5-5.6-31.3l15.5-172.6c-14,8-30.2,12.6-47.5,12.6c-53,0-96-43-96-96
	s43-96,96-96s96,43,96,96c0,11.3-2,22.2-5.6,32.3c1.8-0.2,3.7-0.3,5.6-0.3c0-49,37.9-89.1,85.4-94.8C347.45,54.1,275.95,0,192.05,0z
	"/>
<g>
</g>
<g>
</g>
<g>
</g>
<g>
</g>
<g>
</g>
<g>
</g>
<g>
</g>
<g>
</g>
<g>
</g>
<g>
</g>
<g>
</g>
<g>
</g>
<g>
</g>
<g>
</g>
<g>
</g>
</svg>
