<svg id="Capa_1" enable-background="new 0 0 512 512" height="512" viewBox="0 0 512 512" width="512" xmlns="http://www.w3.org/2000/svg"><g><path clip-rule="evenodd" d="m20.013 332.619h472.003v48.02h-472.003z" fill="#c6865c" fill-rule="evenodd"/><path clip-rule="evenodd" d="m20.013 229.635h21.119l200.072-25.002 197.917 25.002h52.896c10.998 0 19.984 8.986 19.984 19.985v72.001c0 10.998-8.986 20.012-19.984 20.012h-472.004c-10.998 0-20.013-9.014-20.013-20.012v-72.001c0-10.998 9.015-19.985 20.013-19.985z" fill="#ce9875" fill-rule="evenodd"/><path clip-rule="evenodd" d="m20.013 371.625h472.003c10.998 0 19.984 9.014 19.984 20.013v72.001c0 10.998-8.986 19.984-19.984 19.984h-472.003c-10.998 0-20.013-8.987-20.013-19.985v-72.001c0-10.998 9.015-20.012 20.013-20.012z" fill="#ce9875" fill-rule="evenodd"/><path clip-rule="evenodd" d="m467.013 371.625h25.002c10.998 0 19.984 9.014 19.984 20.013v72.001c0 10.998-8.986 19.984-19.984 19.984h-25.002c10.999 0 19.984-8.986 19.984-19.984v-72.001c.001-10.999-8.985-20.013-19.984-20.013zm0-141.99h25.002c10.998 0 19.984 8.986 19.984 19.985v72.001c0 10.998-8.986 20.012-19.984 20.012h-25.002c10.999 0 19.984-9.014 19.984-20.012v-72.001c.001-10.998-8.985-19.985-19.984-19.985z" fill="#c6865c" fill-rule="evenodd"/><path clip-rule="evenodd" d="m467.013 341.633h25.002v29.991h-25.002z" fill="#c17d4f" fill-rule="evenodd"/><path d="m35.009 435.121c-4.139 0-7.512-3.345-7.512-7.483s3.374-7.512 7.512-7.512h9.297c4.167 0 7.512 3.373 7.512 7.512s-3.345 7.483-7.512 7.483zm0-141.989c-4.139 0-7.512-3.345-7.512-7.512 0-4.139 3.374-7.484 7.512-7.484h9.326c4.139 0 7.483 3.345 7.483 7.484 0 4.167-3.345 7.512-7.483 7.512zm432.685 0c-4.139 0-7.512-3.345-7.512-7.512 0-4.139 3.373-7.484 7.512-7.484h9.326c4.138 0 7.483 3.345 7.483 7.484 0 4.167-3.345 7.512-7.483 7.512zm0 141.989c-4.139 0-7.512-3.345-7.512-7.483s3.373-7.512 7.512-7.512h9.326c4.138 0 7.483 3.373 7.483 7.512s-3.345 7.483-7.483 7.483z" fill="#c6865c"/><path clip-rule="evenodd" d="m137.907 83.309c53.434 0 96.748 65.509 96.748 146.326h-193.524c0-80.817 43.343-146.326 96.776-146.326z" fill="#f5a96c" fill-rule="evenodd"/><path clip-rule="evenodd" d="m260.365 83.309c-53.434 0-96.747 65.509-96.747 146.326h193.523c0-80.817-43.314-146.326-96.776-146.326z" fill="#f5a96c" fill-rule="evenodd"/><path clip-rule="evenodd" d="m260.365 83.309c-4.224 0-8.391.425-12.5 1.219 47.537 9.269 84.275 70.697 84.275 145.107h25.001c0-80.817-43.314-146.326-96.776-146.326z" fill="#ef995e" fill-rule="evenodd"/><path d="m206.62 84.018c.113 4.223-3.118 7.71-7.257 7.852-4.11.142-7.568-3.175-7.683-7.37-.963-25.201 5.188-46.545 31.409-55.248 3.912-1.304 8.135.907 9.411 4.904 1.275 3.997-.851 8.306-4.79 9.581-18.624 6.179-21.742 22.876-21.09 40.281z" fill="#78c2a4" stroke="#78c2a4" stroke-miterlimit="10"/><g clip-rule="evenodd" fill-rule="evenodd"><path d="m199.137 83.309c42.86 0 77.613 65.509 77.613 146.326h-155.199c0-80.817 34.725-146.326 77.586-146.326z" fill="#f5a96c"/><path d="m199.137 83.309c42.86 0 77.613 65.509 77.613 146.326h-25.002c0-72.795-28.205-133.145-65.113-144.427 4.082-1.247 8.25-1.899 12.502-1.899z" fill="#ef995e"/><path d="m457.234 74.21-24.548-8.929c-5.669-2.069-11.991.879-14.032 6.548l-9.779 26.872c-2.069 5.641.878 11.963 6.548 14.032l24.548 8.929c5.641 2.069 11.962-.879 14.032-6.548l9.779-26.874c2.069-5.639-.879-11.961-6.548-14.03z" fill="#95d6a4" stroke="#95d6a4" stroke-miterlimit="10"/><path d="m457.234 74.21-24.548-8.929c-4.876-1.786-10.262.17-12.954 4.366l12.501 4.563c5.669 2.069 8.617 8.391 6.548 14.031l-9.781 26.874c-.284.793-.652 1.502-1.077 2.183l12.047 4.365c5.641 2.069 11.962-.879 14.032-6.548l9.779-26.874c2.07-5.64-.878-11.962-6.547-14.031z" fill="#78c2a4" stroke="#78c2a4" stroke-miterlimit="10"/><path d="m433.763 100.516c-26.334-9.581-48.416-15.222-75.714 59.727-7.852 21.544-14.627 45.695-19.701 69.393h100.772c5.301-11.679 10.12-23.357 14.23-34.725 27.298-74.95 6.719-84.814-19.587-94.395z" fill="#f37c7c"/><path d="m433.763 100.516c-12.132-4.422-23.357-7.994-34.612-3.231 3.146.936 6.35 2.041 9.61 3.231 26.306 9.582 46.886 19.446 19.616 94.395-4.139 11.367-8.958 23.046-14.258 34.725h25.001c5.301-11.679 10.12-23.357 14.23-34.725 27.298-74.95 6.719-84.814-19.587-94.395z" fill="#ee6161"/><path d="m158.005 86.484c-35.122 14.003-61.456 72.767-61.456 143.151h25.002c0-62.732 20.92-116.222 50.344-137.028-4.479-2.551-9.127-4.592-13.89-6.123z" fill="#ef995e"/></g></g></svg>