<svg id="Capa_1" enable-background="new 0 0 512 512" height="512" viewBox="0 0 512 512" width="512" xmlns="http://www.w3.org/2000/svg"><g><g><path d="m369.503 511.999h-227.006c-17.293 0-31.312-14.019-31.312-31.312v-449.374c0-17.293 14.019-31.312 31.312-31.312h227.006c17.293 0 31.312 14.019 31.312 31.312v449.375c0 17.293-14.019 31.311-31.312 31.311z" fill="#acacac"/><path d="m400.815 31.314v449.373c0 17.296-14.017 31.314-31.313 31.314h-20.493c17.296 0 31.313-14.017 31.313-31.314v-449.373c-.001-17.297-14.018-31.314-31.314-31.314h20.493c17.296 0 31.314 14.017 31.314 31.314z" fill="#9c9c9c"/><path d="m318.361 37.213-8.337 14.162c-2.187 3.716-6.177 5.997-10.489 5.997h-43.535-43.535c-4.312 0-8.302-2.281-10.489-5.997l-8.336-14.162c-2.187-3.716-6.177-5.997-10.489-5.997h-23.833c-6.722 0-12.171 5.449-12.171 12.171v425.225c0 6.722 5.449 12.171 12.171 12.171h96.682 96.683c6.722 0 12.171-5.449 12.171-12.171v-425.224c0-6.722-5.449-12.171-12.171-12.171h-23.833c-4.312-.001-8.302 2.28-10.489 5.996z" fill="#d8ecfe"/><path d="m364.849 43.384v425.232c0 6.722-5.441 12.173-12.163 12.173h-20.493c6.722 0 12.163-5.451 12.163-12.173v-425.232c0-6.722-5.441-12.173-12.163-12.173h20.493c6.722 0 12.163 5.451 12.163 12.173z" fill="#c4e2ff"/><g><path d="m280.674 38.928h-49.348c-4.259 0-7.712-3.453-7.712-7.712s3.453-7.712 7.712-7.712h49.348c4.26 0 7.712 3.453 7.712 7.712s-3.452 7.712-7.712 7.712z" fill="#838383"/></g></g><path d="m261.345 102.468h-201.128c-10.574 0-19.225 8.651-19.225 19.225v48.429c0 10.574 8.651 19.225 19.225 19.225h143.794v32.323c0 4.236 4.975 6.515 8.183 3.748l41.808-36.07h7.342c10.574 0 19.225-8.651 19.225-19.225v-48.429c.001-10.575-8.65-19.226-19.224-19.226z" fill="#8ac9fe"/><path d="m280.571 121.688v48.435c0 10.575-8.648 19.223-19.223 19.223h-7.347l-41.806 36.068c-3.207 2.767-8.187.492-8.187-3.74v-21.56l30.043-23.413h7.347c10.574 0 19.223-8.648 19.223-19.223v-35.79c0-10.564-8.648-19.223-19.223-19.223h19.95c10.575.001 19.223 8.659 19.223 19.223z" fill="#60b7ff"/><path d="m451.783 279.522h-201.128c-10.574 0-19.225 8.652-19.225 19.225v48.429c0 10.574 8.651 19.225 19.225 19.225h7.342l41.808 36.071c3.207 2.767 8.183.489 8.183-3.748v-32.323h143.794c10.574 0 19.225-8.651 19.225-19.225v-48.429c.001-10.574-8.651-19.225-19.224-19.225z" fill="#fd9468"/><path d="m293.978 366.407h14.013v32.318c0 4.238-4.978 6.518-8.187 3.75l-12.306-10.615v-18.973c0-3.579 2.901-6.48 6.48-6.48z" fill="#fe7d43"/><path d="m471.003 298.749v48.425c0 10.574-8.648 19.233-19.223 19.233h-20.493c10.574 0 19.223-8.658 19.223-19.233v-48.425c0-10.574-8.648-19.223-19.223-19.223h20.493c10.575 0 19.223 8.648 19.223 19.223z" fill="#fe7d43"/><g fill="#fd6930"><circle cx="270.867" cy="322.962" r="7.685"/><circle cx="311.043" cy="322.962" r="7.685"/><circle cx="351.219" cy="322.962" r="7.685"/><circle cx="391.395" cy="322.962" r="7.685"/><circle cx="431.571" cy="322.962" r="7.685"/></g></g></svg>