<svg id="Flat" height="512" viewBox="0 0 512 512" width="512" xmlns="http://www.w3.org/2000/svg"><path d="m208 488-48-34.286v-189.714h-16v189.714l-48 34.286z" fill="#c3c6c7"/><path d="m232 128c0 53.97-33.06 101.36-56.68 128.34a94.068 94.068 0 0 0 -15.32 23.66h-16a94.068 94.068 0 0 0 -15.32-23.66c-23.62-26.98-56.68-74.37-56.68-128.34 0-40.28 8.31-76.8 21.77-104h116.46c13.46 27.2 21.77 63.72 21.77 104z" fill="#e9eef2"/><path d="m232 128c0 53.97-33.06 101.36-56.68 128.34a94.068 94.068 0 0 0 -15.32 23.66h-16a94.068 94.068 0 0 0 -15.32-23.66c-23.62-26.98-56.68-74.37-56.68-128.34a273.262 273.262 0 0 1 5.65-56h148.7a273.262 273.262 0 0 1 5.65 56z" fill="#fbe36a"/><circle cx="160" cy="184" fill="#f7cc38" r="16"/><circle cx="192" cy="112" fill="#f7cc38" r="16"/><g fill="#e6be34"><circle cx="192" cy="152" r="8"/><circle cx="152" cy="104" r="8"/><circle cx="144" cy="224" r="8"/></g><path d="m416 488-48-34.286v-189.714h-16v189.714l-48 34.286z" fill="#c3c6c7"/><path d="m440 128c0 53.97-33.06 101.36-56.68 128.34a94.068 94.068 0 0 0 -15.32 23.66h-16a94.068 94.068 0 0 0 -15.32-23.66c-23.62-26.98-56.68-74.37-56.68-128.34 0-40.28 8.31-76.8 21.77-104h116.46c13.46 27.2 21.77 63.72 21.77 104z" fill="#e9eef2"/><path d="m440 128c0 53.97-33.06 101.36-56.68 128.34a94.068 94.068 0 0 0 -15.32 23.66h-16a94.068 94.068 0 0 0 -15.32-23.66c-23.62-26.98-56.68-74.37-56.68-128.34a273.262 273.262 0 0 1 5.65-56h148.7a273.262 273.262 0 0 1 5.65 56z" fill="#fbe36a"/><circle cx="368" cy="184" fill="#f7cc38" r="16"/><circle cx="400" cy="112" fill="#f7cc38" r="16"/><circle cx="400" cy="152" fill="#e6be34" r="8"/><circle cx="360" cy="104" fill="#e6be34" r="8"/><circle cx="352" cy="224" fill="#e6be34" r="8"/></svg>