<svg id="icon" height="512" viewBox="0 0 128 128" width="512" xmlns="http://www.w3.org/2000/svg"><path d="m82.92 22.706h11.615v23.265h-11.615z" fill="#eeefee"/><path d="m97.917 50.053v45.597h-67.834v-45.597l33.917-26z" fill="#eeefee"/><g fill="#ef5261"><path d="m100.8 54.943-36.8-27.558-36.794 27.558a2 2 0 0 1 -2.8-.39l-1.806-2.393a2 2 0 0 1 .39-2.8l40.405-30.29a1 1 0 0 1 1.206 0l40.418 30.291a2 2 0 0 1 .39 2.8l-1.809 2.392a2 2 0 0 1 -2.8.39z"/><rect height="6.353" rx="1.23" width="78.032" x="24.984" y="92.781"/><rect height="5.021" rx=".606" width="15.346" x="81.054" y="19.651"/></g><path d="m58.01 63.834v-6.255a5.99 5.99 0 0 1 11.98 0v6.256h3.316v-6.256a9.306 9.306 0 0 0 -18.613 0v6.256z" fill="#bbbbcd"/><rect fill="#575b6d" height="17.905" rx="1.533" width="24.619" x="51.69" y="63.142"/><path d="m63.07 72.219-.623 3.017h3.106l-.623-3.017a2.037 2.037 0 1 0 -1.861 0z" fill="#dbd8dd"/></svg>