<svg id="Layer_1" enable-background="new 0 0 512 512" height="512" viewBox="0 0 512 512" width="512" xmlns="http://www.w3.org/2000/svg"><g><path d="m460.04 112.07v347.84c0 28.72-23.37 52.09-52.1 52.09h-303.88c-28.73 0-52.1-23.37-52.1-52.09v-407.82c0-28.72 23.37-52.09 52.1-52.09h243.91z" fill="#f6f6f6"/><path d="m460.04 112.07v347.84c0 28.72-23.37 52.09-52.1 52.09h-152.83v-512h92.86z" fill="#efefef"/><path d="m460.039 97.07v15h-97.07c-8.28 0-15-6.72-15-15v-97.07h15c3.98 0 7.8 1.58 10.61 4.39l82.07 82.07c2.809 2.81 4.39 6.63 4.39 10.61z" fill="#58adf9"/><path d="m512 252.89v168.22c0 8.29-6.72 15-15 15h-482c-8.28 0-15-6.71-15-15v-168.22c0-8.29 6.72-15 15-15h482c8.28 0 15 6.71 15 15z" fill="#71e1ff"/><path d="m512 252.89v168.22c0 8.29-6.72 15-15 15h-241.89v-198.22h241.89c8.28 0 15 6.71 15 15z" fill="#58adf9"/><g><path d="m180.462 279.274h-49.157c-8.284 0-15 6.716-15 15v85.451c0 8.284 6.716 15 15 15s15-6.716 15-15v-21.294h34.157c8.284 0 15-6.716 15-15v-49.157c0-8.284-6.715-15-15-15zm-15 49.158h-19.157v-19.157h19.157z" fill="#fff"/><path d="m294.69 337v42.73c0 8.28-6.71 15-15 15h-49.15c-8.29 0-15-6.72-15-15 0-8.29 6.71-15 15-15h34.15v-12.73h-34.15c-8.29 0-15-6.72-15-15v-42.73c0-8.28 6.71-15 15-15h49.15c8.29 0 15 6.72 15 15 0 8.29-6.71 15-15 15h-34.15v12.73h34.15c8.29 0 15 6.72 15 15z" fill="#fff"/><path d="m362.062 279.274h-30.525c-8.284 0-15 6.716-15 15v85.451c0 8.284 6.716 15 15 15h30.525c18.545 0 33.632-15.087 33.632-33.632v-48.187c-.001-18.544-15.088-33.632-33.632-33.632zm3.631 81.819c0 2.003-1.629 3.632-3.632 3.632h-15.525v-55.451h15.525c2.003 0 3.632 1.629 3.632 3.632z" fill="#d7ffff"/></g><g fill="#d7ffff"><path d="m279.69 309.27h-24.58v-30h24.58c8.29 0 15 6.72 15 15 0 8.29-6.71 15-15 15z"/><path d="m294.69 337v42.73c0 8.28-6.71 15-15 15h-24.58v-30h9.58v-12.73h-9.58v-30h24.58c8.29 0 15 6.72 15 15z"/></g></g></svg>