<svg height="512" viewBox="0 0 64 64" width="512" xmlns="http://www.w3.org/2000/svg"><g id="Icon"><path d="m44.312 39.572a8.923 8.923 0 0 1 -3.259-1.846 1 1 0 0 0 -1.636.514l-2.879 12a5.031 5.031 0 0 1 -1.538 2.59v-13.03a1 1 0 0 0 -1.2-.98 9.053 9.053 0 0 1 -3.6 0 1 1 0 0 0 -1.2.98v13.03a5.031 5.031 0 0 1 -1.538-2.594l-2.879-12a1 1 0 0 0 -1.636-.514 8.923 8.923 0 0 1 -3.259 1.846 1 1 0 0 0 -.671 1.188l2.611 10.877a10.613 10.613 0 0 0 20.744 0l2.611-10.873a1 1 0 0 0 -.671-1.188z" fill="#a5d5a7"/><path d="m49.623 20.315a10.854 10.854 0 0 0 1.377-5.315 11.013 11.013 0 0 0 -11-11 10.879 10.879 0 0 0 -8 3.464 10.879 10.879 0 0 0 -8-3.464 11.013 11.013 0 0 0 -11 11 10.854 10.854 0 0 0 1.377 5.315 11 11 0 1 0 10.649 18.193 11 11 0 0 0 13.948 0 10.9 10.9 0 0 0 8.026 3.492 11 11 0 0 0 2.623-21.685z" fill="#81c785"/></g></svg>