<svg id="Capa_1" enable-background="new 0 0 494.878 494.878" height="512" viewBox="0 0 494.878 494.878" width="512" xmlns="http://www.w3.org/2000/svg"><g><path d="m434.049 202.988-7.75-18.02-8.69-20.66h-334.54l-13.49 20.66-7.75 18.02c-5.22 12.11-7.91 25.17-7.91 38.36v157.44c0 9.38 1.36 18.66 4 27.56s6.55 17.42 11.66 25.29l28.282 26.971h306.357l22.081-26.971c10.22-15.73 15.66-34.09 15.66-52.85v-157.44c0-13.19-2.69-26.25-7.91-38.36z" fill="#fae2c0"/><path d="m408.041 143.928c-26.973-48.552-62.353-90.321-106.457-125.052-31.504-24.808-75.877-25.295-107.531-.68-45.34 35.257-81.079 77.168-107.215 125.732l-17.253 41.044 356.95-6.336z" fill="#fdf6ec"/><g><g><path d="m426.534 178.637-18.493-34.708c-3.339-6.01-6.81-11.921-10.407-17.723l-2.409.628c-17.526 4.513-35.552 6.797-53.651 6.797h-139.584c-16.321 0-25.933-18.468-16.43-31.738 22.306-31.15 49.3-59.051 80.993-83.697 5.339-4.152 11.066-7.579 17.007-10.307-28.967-13.182-63.528-9.895-89.507 10.307-45.34 35.257-81.078 77.168-107.215 125.732l-17.253 41.044 73.045-1.297 10.03-23.859v23.681z" fill="#fef1da"/><path d="m433.027 431.638h-273.137c-17.888 0-32.814-14.098-33.337-31.979-.009-.301-.013-.592-.013-.871v-157.44c0-.08 0-.16 0-.239.031-12.547 10.449-22.574 22.996-22.485.64.005 1.279.007 1.919.007h192.969c23.333 0 46.621-2.95 69.218-8.767l11.605-2.988c3.026-.779 5.886-1.877 8.567-3.233.089-.247.147-.408.235-.655l-7.75-18.02-8.69-20.66h-261.92-40.864-31.756l-13.49 20.66-7.75 18.02c-5.22 12.11-7.91 25.17-7.91 38.36v157.44c0 9.38 1.36 18.66 4 27.56s6.55 17.42 11.66 25.29l28.282 26.971h26.259 46.361 233.737l22.081-26.971c3.719-5.724 6.796-11.799 9.217-18.112z" fill="#fdd79b"/><path d="m344.423 198.631h-192.969c-21.652 0-43.262-2.737-64.231-8.135l-11.605-2.988c-12.034-3.098-19.278-15.365-16.18-27.399 3.098-12.034 15.365-19.278 27.399-16.18l8.845 2.277c19.151 4.93 38.847 7.425 58.622 7.425h187.269c19.777 0 39.475-2.495 58.627-7.426l8.839-2.276c12.034-3.098 24.301 4.146 27.399 16.18 3.098 12.034-4.146 24.301-16.18 27.399l-11.605 2.988c-20.966 5.397-42.577 8.135-64.23 8.135z" fill="#fae2c0"/></g><g id="XMLID_172_"><g><path d="m449.089 473.298v14.27c0 4.04-3.28 7.31-7.32 7.31h-388.66c-4.04 0-7.32-3.27-7.32-7.31v-14.15c0-2.83 1.35-5.48 3.64-7.14l20.15-14.64h356.72l19.3 14.64c2.2 1.66 3.49 4.26 3.49 7.02z" fill="#fae2c0"/></g></g><path d="m114.92 478.609c-11.852 0-21.46-9.608-21.46-21.46 0-2.032.705-3.965 1.946-5.511h-25.827l-20.15 14.64c-2.29 1.66-3.64 4.31-3.64 7.14v14.15c0 4.037 3.273 7.31 7.31 7.31h388.67c4.043 0 7.32-3.277 7.32-7.32v-8.949z" fill="#fdd79b"/><g><path d="m197.019 65.034h-4.626c-4.142 0-7.5-3.358-7.5-7.5s3.358-7.5 7.5-7.5h4.626c4.142 0 7.5 3.358 7.5 7.5s-3.358 7.5-7.5 7.5z" fill="#fddeb0"/></g><g><path d="m234.692 84.403h-4.626c-4.142 0-7.5-3.358-7.5-7.5s3.358-7.5 7.5-7.5h4.626c4.142 0 7.5 3.358 7.5 7.5s-3.357 7.5-7.5 7.5z" fill="#fef1da"/></g><g><path d="m247.439 127.708h-4.626c-4.142 0-7.5-3.358-7.5-7.5s3.358-7.5 7.5-7.5h4.626c4.143 0 7.5 3.358 7.5 7.5s-3.357 7.5-7.5 7.5z" fill="#fef1da"/></g><g><path d="m164.785 121.138h-4.626c-4.142 0-7.5-3.358-7.5-7.5s3.358-7.5 7.5-7.5h4.626c4.142 0 7.5 3.358 7.5 7.5s-3.358 7.5-7.5 7.5z" fill="#fddeb0"/></g><g><path d="m313.059 113.55h-4.626c-4.143 0-7.5-3.358-7.5-7.5s3.357-7.5 7.5-7.5h4.626c4.143 0 7.5 3.358 7.5 7.5s-3.357 7.5-7.5 7.5z" fill="#fef1da"/></g><g><path d="m287.679 69.041h-4.627c-4.143 0-7.5-3.358-7.5-7.5s3.357-7.5 7.5-7.5h4.627c4.143 0 7.5 3.358 7.5 7.5s-3.357 7.5-7.5 7.5z" fill="#fef1da"/></g><circle cx="247.939" cy="325.135" fill="#fef1da" r="99.51"/><g fill="#fdd79b"><path d="m229.466 301.791h18.472v-18.472c0-10.327-8.372-18.699-18.699-18.699h-15.686c-1.539 0-2.787 1.248-2.787 2.787v15.686c.001 10.326 8.373 18.698 18.7 18.698z"/><path d="m266.411 301.791h-18.472v-18.472c0-10.327 8.372-18.699 18.699-18.699h15.389c1.703 0 3.083 1.38 3.083 3.083v15.389c0 10.327-8.371 18.699-18.699 18.699z"/><path d="m229.466 338.962h18.472v-18.472c0-10.327-8.372-18.699-18.699-18.699h-15.917c-1.411 0-2.555 1.144-2.555 2.555v15.917c0 10.328 8.372 18.699 18.699 18.699z"/><path d="m266.411 338.962h-18.472v-18.472c0-10.327 8.372-18.699 18.699-18.699h16.044c1.341 0 2.429 1.087 2.429 2.429v16.044c-.001 10.327-8.372 18.698-18.7 18.698z"/><path d="m229.466 376.134h18.472v-18.472c0-10.327-8.372-18.699-18.699-18.699h-14.921c-1.962 0-3.552 1.59-3.552 3.552v14.921c.001 10.326 8.373 18.698 18.7 18.698z"/><path d="m266.411 376.134h-18.472v-18.472c0-10.327 8.372-18.699 18.699-18.699h15.443c1.673 0 3.029 1.356 3.029 3.029v15.443c0 10.327-8.371 18.699-18.699 18.699z"/></g><g><path d="m247.939 406.642c-4.142 0-7.5-3.358-7.5-7.5v-103.96c0-4.142 3.358-7.5 7.5-7.5 4.143 0 7.5 3.358 7.5 7.5v103.96c0 4.142-3.357 7.5-7.5 7.5z" fill="#fdd79b"/></g></g></g></svg>