<?xml version="1.0" encoding="iso-8859-1"?>
<!-- Generator: Adobe Illustrator 19.0.0, SVG Export Plug-In . SVG Version: 6.00 Build 0)  -->
<svg version="1.1" id="Capa_1" xmlns="http://www.w3.org/2000/svg" xmlns:xlink="http://www.w3.org/1999/xlink" x="0px" y="0px"
	 viewBox="0 0 512 512" style="enable-background:new 0 0 512 512;" xml:space="preserve">
<path style="fill:#E8EAE9;" d="M42.667,512h426.667C492.8,512,512,492.8,512,469.333V42.667C512,19.2,492.8,0,469.333,0H42.667
	C19.2,0,0,19.2,0,42.667v426.667C0,492.8,19.2,512,42.667,512z"/>
<rect x="42.667" y="113.067" style="fill:#F3F3F3;" width="426.667" height="356.267"/>
<circle style="fill:#F3705A;" cx="65.067" cy="56.533" r="22.4"/>
<circle style="fill:#66C6B9;" cx="134.4" cy="56.533" r="22.4"/>
<circle style="fill:#415A6B;" cx="203.733" cy="56.533" r="22.4"/>
<g>
	<rect x="87.467" y="402.133" style="fill:#CED6E0;" width="341.333" height="24.533"/>
	<rect x="309.333" y="334.933" style="fill:#CED6E0;" width="119.467" height="24.533"/>
	<rect x="309.333" y="266.667" style="fill:#CED6E0;" width="119.467" height="24.533"/>
</g>
<rect x="309.333" y="200.533" style="fill:#66C6B9;" width="119.467" height="24.533"/>
<polygon style="fill:#F3705A;" points="282.667,256 182.4,155.733 83.2,256 "/>
<rect x="106.667" y="256" style="fill:#FFD15C;" width="152.533" height="112"/>
<rect x="160" y="308.267" style="fill:#415A6B;" width="45.867" height="58.667"/>
<g>
</g>
<g>
</g>
<g>
</g>
<g>
</g>
<g>
</g>
<g>
</g>
<g>
</g>
<g>
</g>
<g>
</g>
<g>
</g>
<g>
</g>
<g>
</g>
<g>
</g>
<g>
</g>
<g>
</g>
</svg>
