<?xml version="1.0" encoding="iso-8859-1"?>
<!-- Generator: Adobe Illustrator 19.0.0, SVG Export Plug-In . SVG Version: 6.00 Build 0)  -->
<svg version="1.1" id="Capa_1" xmlns="http://www.w3.org/2000/svg" xmlns:xlink="http://www.w3.org/1999/xlink" x="0px" y="0px"
	 viewBox="0 0 510.848 510.848" style="enable-background:new 0 0 510.848 510.848;" xml:space="preserve">
<g>
	<polygon style="fill:#F3C432;" points="137.728,13.344 118.064,6.064 109.696,37.008 118.432,40.288 	"/>
	<polygon style="fill:#F3C432;" points="145.008,56.672 186.16,27.552 167.952,11.888 137.728,49.76 	"/>
	<polygon style="fill:#F3C432;" points="151.2,71.968 151.2,84.72 188.704,89.824 188.704,66.88 	"/>
	<polygon style="fill:#F3C432;" points="145.376,109.488 164.32,128.784 172.32,112.752 149.024,98.928 	"/>
	<polygon style="fill:#F3C432;" points="126.432,128.784 154.112,175.024 169.952,159.728 132.272,121.136 	"/>
	<polygon style="fill:#F3C432;" points="103.504,131.328 100.944,169.568 121.344,167.376 112.24,131.328 	"/>
	<polygon style="fill:#F3C432;" points="63.44,148.08 79.456,153.904 84.56,128.784 72.176,123.68 	"/>
	<polygon style="fill:#F3C432;" points="15.008,121.136 26.288,139.024 60.16,110.944 53.248,100.736 	"/>
	<polygon style="fill:#F3C432;" points="51.056,78.352 6.624,71.968 6.624,93.088 51.056,87.632 	"/>
	<polygon style="fill:#F3C432;" points="60.16,48.672 33.216,18.448 23.744,40.288 56.88,56.672 	"/>
	<polygon style="fill:#F3C432;" points="88.56,37.552 86.384,6.064 66.352,13.712 77.456,37.552 	"/>
	<circle style="fill:#F3C432;" cx="99.12" cy="82.528" r="40.416"/>
</g>
<rect x="301.024" y="398.256" style="fill:#997960;" width="59.616" height="95.456"/>
<polygon style="fill:#8BC540;" points="330.832,22.352 188.704,425.408 472.96,425.408 "/>
<rect x="171.232" y="409.2" style="fill:#997960;" width="30.72" height="84.512"/>
<g>
	<path style="fill:#7FB241;" d="M251.984,286.992c3.024-7.84,4.848-16.288,4.848-25.2c0-38.8-31.456-70.256-70.256-70.256
		s-70.256,31.456-70.256,70.256c0,8.912,1.824,17.36,4.848,25.2c-19.904,17.92-32.496,43.808-32.496,72.688
		c0,54.064,43.824,97.888,97.888,97.888s97.888-43.824,97.888-97.888C284.48,330.8,271.888,304.912,251.984,286.992z"/>
	<rect y="479.104" style="fill:#7FB241;" width="510.848" height="25.68"/>
</g>
<g>
</g>
<g>
</g>
<g>
</g>
<g>
</g>
<g>
</g>
<g>
</g>
<g>
</g>
<g>
</g>
<g>
</g>
<g>
</g>
<g>
</g>
<g>
</g>
<g>
</g>
<g>
</g>
<g>
</g>
</svg>
