<svg id="Layer_1" enable-background="new 0 0 512 512" height="512" viewBox="0 0 512 512" width="512" xmlns="http://www.w3.org/2000/svg"><g><g><g><path d="m404.74 89.072 24.227-30.077c6.964-8.645 5.662-21.33-2.906-28.333l-32.022-26.17c-8.716-7.123-21.556-5.606-28.425 3.359l-20.932 27.011-58.806 80.992c-26.716 34.106-45.556 65.336-56.67 86.214-10.812 20.311-16.408 33.957-30.715 52.771-21.655 28.476-44.469 44.059-51.241 48.975-26.479 19.225-59.054 40.322-144.714 169.69-3.799 5.738-3.295 13.346 1.275 18.493 6.965 7.844 19.084 17.797 36.794 19.692 18.058 1.932 32-5.576 38.85-10.309 2.688-1.857 4.699-4.539 5.755-7.645 6.832-20.09 7.074-30.767 22.437-55.962 39.41-64.632 81.786-76.596 131.243-123.96 29.754-28.495 70.766-73.515 110.626-140.692z" fill="#ce9775"/><path d="m349.516 173.121 55.224-84.049 24.227-30.077c6.964-8.645 5.662-21.33-2.906-28.333l-29.214-23.875c8.568 7.003 9.87 19.688 2.906 28.333l-24.227 30.077-55.224 84.049c-39.86 67.177-80.872 112.197-110.626 140.692-49.456 47.364-91.832 59.328-131.242 123.96-15.363 25.195-15.606 35.872-22.437 55.962-1.056 3.107-3.067 5.788-5.755 7.645-6.85 4.732-20.792 12.241-38.85 10.309-3.94-.422-7.588-1.259-10.98-2.367.562 2.375 1.698 4.633 3.4 6.55 6.965 7.844 19.084 17.797 36.794 19.692 18.058 1.932 32-5.576 38.85-10.309 2.688-1.857 4.699-4.539 5.755-7.645 6.832-20.09 7.074-30.767 22.437-55.962 39.41-64.632 81.786-76.596 131.242-123.96 29.754-28.495 70.766-73.516 110.626-140.692z" fill="#c6855b"/><path d="m271.759 97.556c-1.119 3.563.105 7.443 3.069 9.698 21.844 16.62 45.743 37.026 70 61.843 30.302 31 54.008 61.563 72.338 88.62 2.55 3.765 7.496 4.972 11.467 2.794 14.247-7.815 34.33-21.378 52.561-43.781 16.287-20.016 25.282-39.943 30.313-54.431 1.467-4.224-.428-8.87-4.417-10.851-30.134-14.962-64.617-34.953-100.512-61.674-28.402-21.143-52.383-42.549-72.313-62.446-3.046-3.041-7.809-3.432-11.288-.915-9.655 6.986-22.108 17.885-33.128 33.938-9.42 13.721-14.868 26.945-18.09 37.205z" fill="#ebf4ff"/><g><path d="m511.506 162.298c1.467-4.224-.428-8.87-4.417-10.851-7.981-3.962-16.273-8.289-24.809-12.989-5.034 14.484-14.026 34.395-30.301 54.395-17.397 21.379-36.468 34.694-50.557 42.659 5.637 7.607 10.885 15.031 15.744 22.203 2.551 3.765 7.496 4.972 11.467 2.794 14.247-7.815 34.331-21.378 52.561-43.781 16.286-20.015 25.28-39.943 30.312-54.43z" fill="#dae9fd"/></g></g></g></g></svg>