<svg id="Layer_1" enable-background="new 0 0 511.619 511.619" height="512" viewBox="0 0 511.619 511.619" width="512" xmlns="http://www.w3.org/2000/svg"><g><path d="m443.854 269.88h-.012c110.383-132.323-61.966-286.75-179.482-185.987-5.181 4.443-12.763 4.538-18.013.176-126.708-105.293-286.033 63.859-179.32 185.811 2.069 2.163 139.636 145.953 178.382 186.452 5.466 5.713 14.584 5.715 20.05.002 38.495-40.234 173.674-181.52 178.395-186.454z" fill="#ff4a4a"/><path d="m264.36 83.902c-2.526 2.166-5.623 3.29-8.742 3.377v373.339c3.584-.047 7.154-1.467 9.84-4.275 38.495-40.234 173.673-181.52 178.395-186.454h-.012c110.384-132.322-61.965-286.75-179.481-185.987z" fill="#e20059"/><g><path d="m288.636 361.425c-6.569 0-12.381-4.277-14.327-10.562l-29.748-96.048h-37.299c-6.507 0-12.271-4.195-14.273-10.386l-18.133-56.09-20.105 59.151c-2.067 6.083-7.778 10.173-14.202 10.173h-125.549c-8.284 0-15-6.716-15-15s6.716-15 15-15h114.805l31.207-91.81c2.081-6.122 7.829-10.264 14.314-10.172 6.465.048 12.171 4.234 14.161 10.385l28.691 88.749h37.441c6.575 0 12.384 4.282 14.328 10.562l18.24 58.894 43.729-150.321c1.883-6.473 7.834-10.866 14.594-10.809 6.741.086 12.597 4.658 14.314 11.176l24.35 92.393h111.444c8.284 0 15 6.716 15 15s-6.716 15-15 15h-123.002c-6.812 0-12.769-4.59-14.505-11.177l-13.504-51.241-42.566 146.323c-1.851 6.359-7.651 10.752-14.274 10.81-.044 0-.088 0-.131 0z" fill="#fff5f5"/></g><path d="m274.309 350.862c1.946 6.285 7.758 10.563 14.327 10.562h.13c6.623-.057 12.424-4.451 14.274-10.81l42.566-146.323 13.504 51.241c1.736 6.587 7.692 11.177 14.505 11.177h123.003c8.284 0 15-6.716 15-15s-6.716-15-15-15h-111.444l-24.35-92.393c-1.718-6.519-7.573-11.09-14.314-11.176-6.76-.057-12.711 4.336-14.594 10.809l-43.729 150.321-18.24-58.894c-1.944-6.281-7.753-10.562-14.328-10.562v65.701z" fill="#f4f1f1"/></g></svg>