<?xml version="1.0" encoding="iso-8859-1"?>
<!-- Generator: Adobe Illustrator 19.0.0, SVG Export Plug-In . SVG Version: 6.00 Build 0)  -->
<svg xmlns="http://www.w3.org/2000/svg" xmlns:xlink="http://www.w3.org/1999/xlink" version="1.1" id="Capa_1" x="0px" y="0px" viewBox="0 0 512 512" style="enable-background:new 0 0 512 512;" xml:space="preserve">
<g>
	<path style="fill:#FEC007;" d="M296.733,4.201C294.437,1.535,291.09,0,287.57,0h-63.142c-3.52,0-6.866,1.535-9.161,4.201   c-2.299,2.665-3.319,6.201-2.799,9.681l8.449,56.528c0.886,5.921,5.972,10.307,11.961,10.307h46.244   c5.989,0,11.075-4.386,11.961-10.307l8.449-56.528C300.051,10.401,299.032,6.866,296.733,4.201z"/>
	<path style="fill:#FEC007;" d="M296.733,4.201C294.437,1.535,291.09,0,287.57,0h-22.173c3.52,0,6.866,1.535,9.161,4.201   c2.299,2.665,3.319,6.201,2.799,9.681l-8.449,56.528c-0.886,5.921-5.972,10.307-11.961,10.307h22.173   c5.989,0,11.075-4.386,11.961-10.307l8.449-56.528C300.051,10.401,299.032,6.866,296.733,4.201z"/>
</g>
<path style="fill:#FE5252;" d="M329.008,135.429h-24.819V68.622c0-8.906-7.221-16.126-16.126-16.126h-63.142  c-8.906,0-16.126,7.221-16.126,16.126v66.807h-25.802c-37.996-0.001-68.91,30.913-68.91,68.909v238.755  c0,37.992,30.914,68.906,68.91,68.906h146.015c37.996,0,68.91-30.914,68.91-68.906V204.338  C397.917,166.342,367.004,135.429,329.008,135.429z"/>
<path style="fill:#D22F2F;" d="M329.008,135.429h-24.819V68.622c0-8.906-7.221-16.126-16.126-16.126h-33.26  c8.906,0,16.126,7.221,16.126,16.126v66.807h24.819c37.996,0,68.91,30.914,68.91,68.91v238.755c0,37.992-30.914,68.906-68.91,68.906  h33.26c37.996,0,68.91-30.914,68.91-68.906V204.338C397.917,166.342,367.004,135.429,329.008,135.429z"/>
<path style="fill:#AC1457;" d="M329.008,221.35H182.992c-6.681,0-12.094,5.413-12.094,12.094v170.677  c0,6.681,5.413,12.094,12.094,12.094h146.015c6.681,0,12.094-5.413,12.094-12.094V233.445  C341.102,226.764,335.689,221.35,329.008,221.35z"/>
<path style="fill:#870E4F;" d="M329.008,221.35h-30.236c6.681,0,12.094,5.413,12.094,12.094v170.677  c0,6.681-5.413,12.094-12.094,12.094h30.237c6.681,0,12.094-5.413,12.094-12.094V233.445  C341.102,226.764,335.689,221.35,329.008,221.35z"/>
<g>
</g>
<g>
</g>
<g>
</g>
<g>
</g>
<g>
</g>
<g>
</g>
<g>
</g>
<g>
</g>
<g>
</g>
<g>
</g>
<g>
</g>
<g>
</g>
<g>
</g>
<g>
</g>
<g>
</g>
</svg>
