<?xml version="1.0" encoding="iso-8859-1"?>
<!-- Generator: Adobe Illustrator 19.0.0, SVG Export Plug-In . SVG Version: 6.00 Build 0)  -->
<svg version="1.1" id="Capa_1" xmlns="http://www.w3.org/2000/svg" xmlns:xlink="http://www.w3.org/1999/xlink" x="0px" y="0px"
	 viewBox="0 0 512 512" style="enable-background:new 0 0 512 512;" xml:space="preserve">
<path style="fill:#FFDA44;" d="M468.61,104.136H34.712C15.542,104.136,0,119.678,0,138.847v260.339
	c0,19.17,15.542,34.712,34.712,34.712h266.327c-3.983-11.134-6.014-22.884-5.988-34.712c0-57.509,46.627-104.136,104.136-104.136
	s104.136,46.627,104.136,104.136V138.847C503.322,119.678,487.78,104.136,468.61,104.136z"/>
<path style="fill:#FFCD00;" d="M468.61,52.068H270.232c-11.611,0.009-22.459-5.788-28.898-15.447l-14.058-21.174
	C220.837,5.788,209.989-0.009,198.378,0H34.712C15.542,0,0,15.542,0,34.712v104.136c0-19.17,15.542-34.712,34.712-34.712H468.61
	c19.17,0,34.712,15.542,34.712,34.712V86.78C503.322,67.61,487.78,52.068,468.61,52.068z"/>
<g>
	<path style="fill:#E6E7E8;" d="M399.186,295.051c-57.509,0-104.136,46.627-104.136,104.136
		c-0.026,11.828,2.005,23.578,5.988,34.712c19.17,54.22,78.666,82.64,132.894,63.471c54.22-19.17,82.64-78.666,63.471-132.894
		C482.686,322.855,443.331,295.034,399.186,295.051z M468.61,416.542h-20.393c-0.529,1.744-1.224,3.428-2.083,5.033l14.405,14.405
		l-24.559,24.559l-14.405-14.405c-1.605,0.859-3.289,1.553-5.033,2.083v20.393H381.83v-20.393c-1.744-0.529-3.428-1.224-5.033-2.083
		l-14.405,14.405l-24.559-24.559l14.405-14.405c-0.859-1.605-1.553-3.289-2.083-5.033h-20.393V381.83h20.393
		c0.529-1.744,1.224-3.428,2.083-5.033l-14.405-14.405l24.559-24.559l14.405,14.405c1.605-0.859,3.289-1.553,5.033-2.083v-20.393
		h34.712v20.393c1.744,0.529,3.428,1.224,5.033,2.083l14.405-14.405l24.559,24.559l-14.405,14.405
		c0.859,1.605,1.553,3.289,2.083,5.033h20.393V416.542z"/>
	<path style="fill:#E6E7E8;" d="M446.134,376.797l14.405-14.405l-24.559-24.559l-14.405,14.405
		c-1.605-0.859-3.289-1.553-5.033-2.083v-20.393H381.83v20.393c-1.744,0.529-3.428,1.224-5.033,2.083l-14.405-14.405l-24.559,24.559
		l14.405,14.405c-0.859,1.605-1.553,3.289-2.083,5.033h-20.393v34.712h20.393c0.529,1.744,1.224,3.428,2.083,5.033l-14.405,14.405
		l24.559,24.559l14.405-14.405c1.605,0.859,3.289,1.553,5.033,2.083v20.393h34.712v-20.393c1.744-0.529,3.428-1.224,5.033-2.083
		l14.405,14.405l24.559-24.559l-14.405-14.405c0.859-1.605,1.553-3.289,2.083-5.033h20.393V381.83h-20.393
		C447.688,380.086,446.993,378.403,446.134,376.797z M399.186,416.542c-9.589,0-17.356-7.767-17.356-17.356
		c0-9.589,7.767-17.356,17.356-17.356c9.589,0,17.356,7.767,17.356,17.356C416.542,408.776,408.776,416.542,399.186,416.542z"/>
	<circle style="fill:#E6E7E8;" cx="399.186" cy="399.186" r="17.356"/>
</g>
<g>
	<path style="fill:#78B9EB;" d="M399.186,512c-47.798-0.017-90.398-30.156-106.331-75.221c-4.322-12.062-6.517-24.784-6.482-37.593
		c0-62.308,50.506-112.814,112.814-112.814S512,336.879,512,399.186S461.494,512,399.186,512z M399.186,303.729
		c-52.693,0.061-95.397,42.765-95.458,95.458c-0.026,10.83,1.822,21.573,5.476,31.77c17.547,49.716,72.071,75.793,121.787,58.247
		s75.793-72.071,58.246-121.787C475.761,329.242,439.669,303.711,399.186,303.729z"/>
	<path style="fill:#78B9EB;" d="M425.22,477.288h-52.068V462.05l-10.761,10.761l-36.829-36.829l10.761-10.761h-15.239v-52.068
		h15.239l-10.761-10.761l36.829-36.829l10.761,10.761v-15.239h52.068v15.239l10.761-10.761l36.829,36.829l-10.761,10.761h15.239
		v52.068H462.05l10.761,10.761l-36.829,36.829L425.22,462.05V477.288z M390.508,459.932h17.356v-18.172l6.187-1.857
		c1.198-0.373,2.36-0.868,3.471-1.458l5.658-2.951l12.774,12.774l12.288-12.288l-12.783-12.783l2.959-5.649
		c0.607-1.119,1.093-2.3,1.467-3.523l1.866-6.161h18.18v-17.356h-18.154l-1.866-6.161c-0.373-1.224-0.859-2.404-1.467-3.523
		l-2.959-5.649l12.783-12.783l-12.288-12.288l-12.774,12.774l-5.658-2.951c-1.111-0.59-2.274-1.085-3.471-1.458l-6.213-1.857
		v-18.172h-17.356v18.172l-6.187,1.857c-1.198,0.373-2.36,0.868-3.471,1.458l-5.658,2.951l-12.8-12.774l-12.288,12.288
		l12.783,12.783l-2.959,5.649c-0.607,1.119-1.093,2.3-1.467,3.523l-1.866,6.161h-18.154v17.356h18.154l1.866,6.161
		c0.373,1.224,0.859,2.404,1.467,3.523l2.959,5.649l-12.783,12.783l12.288,12.288l12.774-12.774l5.658,2.951
		c1.111,0.59,2.274,1.085,3.471,1.458l6.187,1.857L390.508,459.932z"/>
	<path style="fill:#78B9EB;" d="M399.186,425.22c-14.379,0-26.034-11.654-26.034-26.034c0-14.379,11.654-26.034,26.034-26.034
		c14.379,0,26.034,11.654,26.034,26.034C425.22,413.566,413.566,425.22,399.186,425.22z M399.186,390.508
		c-4.79,0-8.678,3.888-8.678,8.678s3.888,8.678,8.678,8.678c4.79,0,8.678-3.888,8.678-8.678S403.977,390.508,399.186,390.508z"/>
</g>
<g>
</g>
<g>
</g>
<g>
</g>
<g>
</g>
<g>
</g>
<g>
</g>
<g>
</g>
<g>
</g>
<g>
</g>
<g>
</g>
<g>
</g>
<g>
</g>
<g>
</g>
<g>
</g>
<g>
</g>
</svg>
