<svg id="Capa_1" enable-background="new 0 0 512 512" height="512" viewBox="0 0 512 512" width="512" xmlns="http://www.w3.org/2000/svg"><g><g><g><path d="m256 405.904c-59.165 0-107.3-47.989-107.3-106.977v-191.95c0-58.988 48.135-106.977 107.3-106.977s107.3 47.989 107.3 106.977v191.951c0 58.987-48.135 106.976-107.3 106.976z" fill="#fee17f"/><path d="m256.65.008v405.887c58.866-.351 106.649-48.198 106.649-106.968v-191.95c.001-58.771-47.782-106.618-106.649-106.969z" fill="#fecb69"/></g><g><path d="m226 282.775c-8.284 0-15-6.716-15-15v-15.598c0-8.284 6.716-15 15-15s15 6.716 15 15v15.598c0 8.285-6.716 15-15 15z" fill="#fef1ac"/><path d="m286 282.775c-8.284 0-15-6.716-15-15v-15.598c0-8.284 6.716-15 15-15s15 6.716 15 15v15.598c0 8.285-6.716 15-15 15z" fill="#fee17f"/><path d="m226 211.275c-8.284 0-15-6.716-15-15v-15.598c0-8.284 6.716-15 15-15s15 6.716 15 15v15.598c0 8.285-6.716 15-15 15z" fill="#fef1ac"/><path d="m286 211.275c-8.284 0-15-6.716-15-15v-15.598c0-8.284 6.716-15 15-15s15 6.716 15 15v15.598c0 8.285-6.716 15-15 15z" fill="#fee17f"/><path d="m226 139.775c-8.284 0-15-6.716-15-15v-15.598c0-8.284 6.716-15 15-15s15 6.716 15 15v15.598c0 8.285-6.716 15-15 15z" fill="#fef1ac"/><path d="m286 139.775c-8.284 0-15-6.716-15-15v-15.598c0-8.284 6.716-15 15-15s15 6.716 15 15v15.598c0 8.285-6.716 15-15 15z" fill="#fee17f"/></g></g><g><path d="m256 512c-53.476 0-92.738-16.785-116.696-49.888-48.631-67.194-13.63-176.06-12.116-180.661 2.558-7.774 10.876-12.064 18.69-9.64 1.273.395 31.53 9.926 61.955 32.786 21.783 16.367 38.17 35.438 48.818 56.575 10.632-20.314 26.51-38.84 47.33-55.002 30.359-23.566 60.55-33.829 61.82-34.254 3.784-1.268 7.919-.975 11.488.816 3.568 1.789 6.275 4.928 7.523 8.72 1.514 4.601 36.515 113.467-12.116 180.661-23.958 33.102-63.22 49.887-116.696 49.887z" fill="#5bc980"/><path d="m384.813 281.451c-1.248-3.792-3.955-6.931-7.523-8.72-3.569-1.791-7.704-2.084-11.488-.816-1.271.425-31.461 10.688-61.82 34.254-20.82 16.162-36.698 34.688-47.33 55.002v150.823c53.141-.137 92.186-16.914 116.046-49.882 48.629-67.194 13.628-176.06 12.115-180.661z" fill="#00b44b"/></g></g></svg>