<svg height="512" viewBox="0 0 54 58" width="512" xmlns="http://www.w3.org/2000/svg"><g id="Page-1" fill="none" fill-rule="evenodd"><g id="008---Dekstop-Wordprocessing" fill-rule="nonzero" transform="translate(0 -1)"><path id="Rectangle-path" d="m17 47h16v9h-16z" fill="#7f8c8d"/><path id="Shape" d="m50 17v26h-50v-26c0-1.6568542 1.34314575-3 3-3h44c1.6568542 0 3 1.3431458 3 3z" fill="#2fa8cc"/><path id="Shape" d="m47.61 14.06c-9.95.41-47.61 3.51-47.61 26.94v-24c0-1.6568542 1.34314575-3 3-3h44c.2048232-.0003458.4091695.0197538.61.06z" fill="#67b9cc"/><path id="Shape" d="m5 41v-36c.0032948-1.10320187.89679813-1.9967052 2-2h37.89l.11 12.09v25.91z" fill="#f5efca"/><g fill="#cbb292"><path id="Shape" d="m30.64 9h-20.64c-.55228475 0-1-.44771525-1-1s.44771525-1 1-1h20.64c.5522847 0 1 .44771525 1 1s-.4477153 1-1 1z"/><path id="Shape" d="m23.41 14h-13.41c-.55228475 0-1-.4477153-1-1s.44771525-1 1-1h13.41c.5522847 0 1 .4477153 1 1s-.4477153 1-1 1z"/><path id="Shape" d="m16.18 19h-6.18c-.55228475 0-1-.4477153-1-1s.44771525-1 1-1h6.18c.5522847 0 1 .4477153 1 1s-.4477153 1-1 1z"/><path id="Shape" d="m40 34h-13.87c-.5522847 0-1-.4477153-1-1s.4477153-1 1-1h13.87c.5522847 0 1 .4477153 1 1s-.4477153 1-1 1z"/><path id="Shape" d="m40 29h-6.64c-.5522847 0-1-.4477153-1-1s.4477153-1 1-1h6.64c.5522847 0 1 .4477153 1 1s-.4477153 1-1 1z"/></g><path id="Shape" d="m50 41v5c0 1.6568542-1.3431458 3-3 3h-44c-1.65685425 0-3-1.3431458-3-3v-5z" fill="#95a5a5"/><path id="Shape" d="m38 58c0 .5522847-.4477153 1-1 1h-24c-.5522847 0-1-.4477153-1-1-.0013291-1.0612728.4196715-2.0794609 1.1701053-2.8298947s1.7686219-1.1714344 2.8298947-1.1701053h18c2.209139 0 4 1.790861 4 4z" fill="#95a5a5"/><path id="Shape" d="m27 46h-3c-.5522847 0-1-.4477153-1-1s.4477153-1 1-1h3c.5522847 0 1 .4477153 1 1s-.4477153 1-1 1z" fill="#ecf0f1"/><path id="Rectangle-path" d="m18.124 14.296h24v9.997h-24z" fill="#f3d55b" transform="matrix(.823 -.569 .569 .823 -5.627 20.558)"/><path id="Shape" d="m46.95 13.74-4.11 2.84-5.69-8.22 4.11-2.85z" fill="#bdc3c7"/><path id="Shape" d="m52.71 9.76-5.76 3.98-5.69-8.23 5.76-3.98c1.3617329-.94001609 3.2274512-.59998111 4.17.76l2.28 3.29c.9410084 1.36487609.6012203 3.23371094-.76 4.18z" fill="#ff5364"/><path id="Shape" d="m16.85 31.75-4.76 1.15c-.4001172.094232-.8171417-.0659868-1.0512382-.4038807-.2340964-.337894-.2375722-.7846237-.0087618-1.1261193l2.76-4.05z" fill="#464f5d"/><path id="Shape" d="m23.1 30.23-6.25 1.52-3.06-4.43 3.62-5.31z" fill="#fdd7ad"/></g></g></svg>