<svg id="Capa_1" enable-background="new 0 0 512 512" height="512" viewBox="0 0 512 512" width="512" xmlns="http://www.w3.org/2000/svg"><g><path d="m165.667 73-42.333 24.667-42.334-24.667v-68c0-2.761 2.239-5 5-5h74.667c2.761 0 5 2.239 5 5z" fill="#8dc5e8"/><path d="m431 73-43.25 24.667-41.417-24.667v-68c0-2.761 2.239-5 5-5h74.667c2.761 0 5 2.239 5 5z" fill="#5e9ff6"/><path d="m0 183.08v318.92c0 5.52 4.48 10 10 10h281.5l-35.5-375.67z" fill="#fff5f5"/><path d="m512 183.08v318.92c0 5.52-4.48 10-10 10h-246v-375.67z" fill="#e1ebf0"/><path d="m256 73 35.5 55.04-35.5 55.04h-256v-100.08c0-5.52 4.48-10 10-10z" fill="#0b799d"/><path d="m512 83v100.08h-256v-110.08h246c5.52 0 10 4.48 10 10z" fill="#07485e"/><path d="m256 230.77 17.475 109.27-17.475 109.27c-60.25 0-109.27-49.02-109.27-109.27s49.02-109.27 109.27-109.27z" fill="#ff7c48"/><path d="m365.27 340.04c0 60.25-49.02 109.27-109.27 109.27v-218.54c60.25 0 109.27 49.02 109.27 109.27z" fill="#ff415b"/><path d="m256 305.09 10.167 34.95-10.167 34.95c-19.3 0-34.95-15.65-34.95-34.95s15.65-34.95 34.95-34.95z" fill="#8dc5e8"/><path d="m290.95 340.04c0 19.3-15.65 34.95-34.95 34.95v-69.9c19.3 0 34.95 15.65 34.95 34.95z" fill="#5e9ff6"/><path d="m431.939 283.47-27.882-7.279 13.052-25.691c3.752-7.386.807-16.415-6.579-20.167-7.387-3.753-16.415-.807-20.167 6.579l-19.138 37.671-86.594 40.254c-7.512 3.492-10.771 12.413-7.279 19.925 3.492 7.513 12.416 10.77 19.926 7.279l86.403-40.166 40.681 10.621c8.027 2.095 16.213-2.719 18.303-10.725 2.092-8.014-2.71-16.208-10.726-18.301z" fill="#00969b"/></g></svg>