<svg height="512pt" viewBox="0 -31 512.00025 512" width="512pt" xmlns="http://www.w3.org/2000/svg"><path d="m443.9375 48.375-21.253906-21.285156-21.453125-21.484375-.007813-.003907c-3.613281-3.613281-8.414062-5.601562-13.519531-5.601562s-9.914063 1.992188-13.527344 5.605469l-368.597656 369c-7.4375 7.453125-7.4375 19.570312 0 27.023437l21.269531 21.285156 21.457032 21.480469.003906.007813c3.609375 3.605468 8.410156 5.59375 13.507812 5.601562 5.121094 0 9.914063-1.996094 13.527344-5.609375l368.59375-368.996093c7.449219-7.445313 7.449219-19.578126 0-27.023438zm0 0" fill="#57545c"/><path d="m443.9375 48.375-21.253906-21.285156-395.835938 395.824218 21.457032 21.480469.003906.007813c3.609375 3.605468 8.410156 5.59375 13.507812 5.601562 5.121094 0 9.914063-1.996094 13.527344-5.609375l368.59375-368.996093c7.449219-7.445313 7.449219-19.578126 0-27.023438zm0 0" fill="#3a373f"/><path d="m512 197.835938c-.015625-14.300782-9.757812-26.617188-23.703125-29.953126-15.492187-3.714843-34.039063-11.851562-54.257813-23.613281-20.34375-11.828125-42.378906-27.34375-64.707031-45.710937-3.203125-2.640625-6.429687-5.46875-9.648437-8.472656-1.582032-1.472657-3.171875-2.992188-4.742188-4.546876-10.59375-10.464843-31.488281-30.976562-42.996094-42.269531-12.089843-11.878906-31.675781-11.78125-43.664062.21875l-85.667969 85.75c-7 7.015625-10.195312 16.660157-8.753906 26.460938 1.429687 9.785156 7.226563 18.085937 15.925781 22.78125 12.210938 6.597656 21.714844 13.257812 27.464844 19.21875 5.742188 5.953125 11.121094 12.199219 16.136719 18.683593 14.410156 18.636719 25.683593 39.257813 33.066406 60.640626 3.207031 9.292968 5.695313 18.46875 7.445313 27.46875 2.085937 10.6875 3.140624 21.128906 3.132812 31.234374 0 9.859376-1.011719 19.285157-3.007812 28.039063-2.042969 8.984375.007812 18.347656 5.644531 25.667969.835937 1.085937 1.734375 2.113281 2.6875 3.066406 5.53125 5.53125 12.933593 8.789062 20.859375 9.082031 50.050781 1.835938 104.570312-21.722656 145.832031-63.027343 40.007813-40.0625 62.953125-91.292969 62.953125-140.578126zm0 0" fill="#bde8f9"/><path d="m512 197.835938c-.015625-14.300782-9.757812-26.617188-23.703125-29.953126-15.492187-3.714843-34.039063-11.851562-54.257813-23.613281-20.34375-11.828125-42.378906-27.34375-64.707031-45.710937-3.203125-2.640625-6.429687-5.46875-9.648437-8.472656l-126.296875 126.296874c14.410156 18.636719 25.683593 39.257813 33.066406 60.640626 3.207031 9.289062 5.695313 18.46875 7.445313 27.46875 2.085937 10.683593 3.140624 21.128906 3.132812 31.234374 0 9.855469-1.011719 19.28125-3.007812 28.035157-2.042969 8.988281.007812 18.351562 5.644531 25.667969.835937 1.089843 1.734375 2.117187 2.6875 3.070312 5.53125 5.53125 12.933593 8.789062 20.859375 9.078125 50.050781 1.839844 104.570312-21.722656 145.832031-63.023437 40.007813-40.0625 62.953125-91.292969 62.953125-140.578126zm0 0" fill="#88d9f5"/><path d="m512 197.835938c-.015625-14.300782-9.757812-26.617188-23.703125-29.953126-15.492187-3.714843-34.039063-11.851562-54.257813-23.613281l-160.140624 160.222657c2.085937 10.6875 3.140624 21.128906 3.132812 31.234374 0 9.859376-1.011719 19.285157-3.007812 28.039063-2.042969 8.984375.007812 18.347656 5.644531 25.667969.835937 1.085937 1.734375 2.113281 2.6875 3.066406 5.53125 5.53125 12.933593 8.789062 20.859375 9.082031 50.050781 1.835938 104.570312-21.722656 145.832031-63.027343 40.007813-40.0625 62.953125-91.292969 62.953125-140.578126zm0 0" fill="#4fc8ef"/></svg>