<svg id="Capa_1" enable-background="new 0 0 512 512" height="512" viewBox="0 0 512 512" width="512" xmlns="http://www.w3.org/2000/svg"><g><g><path d="m223.842 56.126h-75.491l-17.274-17.274-131.077 131.078 32.372 32.372v75.491l185.057 185.057c10.428 10.428 25.773 12.932 38.571 7.528l10-218.139-10-163.955z" fill="#ffcdbe"/><path d="m466.175 313.602-11.178-11.178-198.975-214.118-.022-.022v382.094c4.062-1.715 7.869-4.219 11.178-7.528 5.31-5.31 8.568-11.896 9.773-18.771 1.912-10.911-5.803-27.008-14.23-35.436 0 0 41.108 32.725 52.018 30.813 6.875-1.205 13.461-4.463 18.771-9.773s8.568-11.896 9.773-18.771c1.912-10.911-5.782-26.987-14.209-35.414 0 0 41.087 32.705 51.997 30.792 6.875-1.205 13.461-4.463 18.771-9.773s8.568-11.896 9.773-18.771c1.912-10.911-7.719-28.924-16.146-37.351 0 0 43.024 34.642 53.935 32.729 6.875-1.205 13.461-4.463 18.771-9.773 13.738-13.737 13.738-36.011 0-49.749z" fill="#faa68e"/></g><path d="m302.438 228.151-21.213 21.213 128.381 128.381c1.912-10.911-1.336-22.549-9.764-30.976l16.583 16.583c8.428 8.428 20.066 11.676 30.977 9.764z" fill="#e09380"/><g><path d="m181.727 348.862 74.273 74.274 10-23.563-10-18.863-53.061-53.061z" fill="#faa68e"/><path d="m276.942 444.078c1.912-10.911-1.336-22.549-9.764-30.977l16.583 16.583c8.427 8.427 20.066 11.676 30.976 9.764l-58.737-58.738v42.426z" fill="#e09380"/><path d="m252.689 277.9-21.212 21.213 24.523 24.524 10-21.213-10-21.213z" fill="#faa68e"/><path d="m256 281.211v42.426l87.274 87.275c1.912-10.911-1.336-22.549-9.764-30.977l16.583 16.583c8.427 8.427 20.066 11.676 30.976 9.764z" fill="#e09380"/></g><g><path d="m194.253 150.075c-13.738 13.738-13.738 36.011 0 49.749s36.011 13.738 49.749 0l11.998-11.997 10-62.088-10-37.411z" fill="#c38778"/><path d="m380.945 38.875-32.372 32.372h-75.491l-17.082 17.082v99.498l42.2-42.2 156.797 156.797 39.729-39.729v-75.491l17.274-17.274z" fill="#b46e5a"/></g></g></svg>