<svg id="color" enable-background="new 0 0 24 24" height="512" viewBox="0 0 24 24" width="512" xmlns="http://www.w3.org/2000/svg"><g><g><path d="m14.25 14.98c-.414 0-.75-.336-.75-.75v-2c0-.414.336-.75.75-.75s.75.336.75.75v2c0 .415-.336.75-.75.75z" fill="#ff9800"/></g></g><g><g><path d="m9.75 14.98c-.414 0-.75-.335-.75-.75v-2c0-.414.336-.75.75-.75s.75.336.75.75v2c0 .415-.336.75-.75.75z" fill="#ff9800"/></g></g><g><g><path d="m9.75 11.48c-.414 0-.75.336-.75.75v2c0 .414.336.75.75.75z" fill="#de8400"/></g></g><g><g><path d="m14.25 11.48c-.414 0-.75.336-.75.75v2c0 .414.336.75.75.75z" fill="#de8400"/></g></g><g><g><path d="m22 5.75v11h-6.65c.771-.34 1.351-1.02 1.561-1.86 1.2-.3 2.09-1.37 2.09-2.66v-.92c0-1.27-.49-2.46-1.39-3.36l-.611-.61v-1.59z" fill="#fafafa"/></g></g><g><g><path d="m15.854 23.146c-1.313-1.313-1.353-2.586-1.354-2.649-.002-.275-.225-.497-.5-.497h-4.02c-.276 0-.5.227-.5.503 0 .054-.018 1.328-1.334 2.644-.143.143-.186.358-.108.545.077.186.26.308.462.308h7c.202 0 .385-.122.462-.309s.034-.401-.108-.545z" fill="#90a4ae"/></g></g><g><g><path d="m24 5.75v13.5c0 .96-.79 1.75-1.75 1.75h-20.5c-.96 0-1.75-.79-1.75-1.75v-13.5c0-.96.79-1.75 1.75-1.75h5.41c-.11.5-.16 1.02-.16 1.54v.21h-5v11h6.65c.34.15.71.23 1.1.23.38 0 .75-.08 1.08-.23h2.34c.33.15.7.23 1.08.23.39 0 .76-.08 1.1-.23h6.65v-11h-5v-.21c0-.52-.05-1.04-.16-1.54h5.41c.96 0 1.75.79 1.75 1.75z" fill="#607d8b"/></g></g><g><g><path d="m8.65 16.75h-6.65v-11h5v1.59l-.61.61c-.9.9-1.39 2.09-1.39 3.36v.92c0 1.29.89 2.36 2.09 2.66.21.84.79 1.52 1.56 1.86z" fill="#fafafa"/></g></g><g><g><path d="m13.17 16.75h-2.34c.47-.2.88-.53 1.17-.95.29.42.7.75 1.17.95z" fill="#fafafa"/></g></g><g><g><path d="m16.25 12.98h-8.5c-.414 0-.75-.335-.75-.75v-.92c0-.735.286-1.426.806-1.945l1.194-1.195v-2.627c0-1.175.354-2.307 1.022-3.273l1.362-1.966c.279-.405.953-.405 1.232 0l1.361 1.966c.67.966 1.023 2.098 1.023 3.273v2.627l1.194 1.194c.52.52.806 1.21.806 1.946v.921c0 .414-.336.749-.75.749z" fill="#eceff1"/></g></g><g><g><path d="m12 21h-2.591c-.118.501-.431 1.315-1.263 2.146-.143.143-.186.358-.108.545.077.187.26.309.462.309h3.5z" fill="#7d8f97"/></g></g><g><g><path d="m7.16 4h-5.41c-.96 0-1.75.79-1.75 1.75v13.5c0 .96.79 1.75 1.75 1.75h7.659 2.591v-4.25h-1.17c-.33.15-.7.23-1.08.23-.39 0-.76-.08-1.1-.23h-6.65v-11h5v-.21c0-.52.05-1.04.16-1.54z" fill="#546d79"/></g></g><g><g><path d="m7 5.75h-5v11h6.65c-.77-.34-1.35-1.02-1.56-1.86-1.2-.3-2.09-1.37-2.09-2.66v-.92c0-1.27.49-2.46 1.39-3.36l.61-.61z" fill="#dadada"/></g></g><g><g><path d="m12 15.8c-.29.42-.7.75-1.17.95h1.17z" fill="#dadada"/></g></g><g><g><path d="m12 0c-.238 0-.477.101-.616.304l-1.363 1.966c-.667.966-1.021 2.098-1.021 3.273v2.627l-1.194 1.194c-.52.52-.806 1.21-.806 1.946v.921c0 .414.336.75.75.75h1.25 1.5 1.5z" fill="#cdd0d2"/></g></g></svg>