<?xml version="1.0" encoding="iso-8859-1"?>
<!-- Generator: Adobe Illustrator 19.0.0, SVG Export Plug-In . SVG Version: 6.00 Build 0)  -->
<svg version="1.1" id="Capa_1" xmlns="http://www.w3.org/2000/svg" xmlns:xlink="http://www.w3.org/1999/xlink" x="0px" y="0px"
	 viewBox="0 0 512 512" style="enable-background:new 0 0 512 512;" xml:space="preserve">
<path style="fill:#464646;" d="M472.736,375.816H39.248V115.864c0-17.68,14.32-32,32-32h369.488c17.68,0,32,14.32,32,32
	L472.736,375.816L472.736,375.816z"/>
<rect x="71.248" y="115.992" style="fill:#4B9FD8;" width="369.44" height="227.936"/>
<path style="fill:#3789C9;" d="M246.352,343.8c9.424,0,17.072-7.648,17.072-17.072c0-9.424-7.648-17.072-17.072-17.072H223.52
	c-7.888,0-14.32-6.464-14.272-14.352v-0.192c0-0.352-0.016-0.704-0.032-1.04c-0.48-7.776,5.696-14.336,13.488-14.336h30.24
	c9.248,0,17.52-6.912,18-16.144c0.512-9.84-7.312-17.984-17.04-17.984h-9.36c-7.936,0-14.352-6.448-14.304-14.384v-0.992v-0.208
	c-0.048-8.352,6.736-15.168,15.088-15.168h12.08c9.248,0,17.52-6.912,18-16.144c0.512-9.84-7.312-17.984-17.04-17.984h-43.616
	c-8.24,0-14.4-6.928-14.304-15.168c0-0.064,0-0.144,0-0.208s0-0.144,0-0.208c-0.096-8.24,6.048-15.168,14.304-15.168h14.096
	c9.248,0,17.52-6.912,18-16.144c0.512-9.84-7.312-17.984-17.04-17.984H71.248v227.936h175.104V343.8z"/>
<path style="fill:#E5E5E5;" d="M485.824,375.816H26.16c-14.448,0-26.16,11.712-26.16,26.16s11.712,26.16,26.16,26.16h459.664
	c14.448,0,26.176-11.712,26.176-26.16S500.288,375.816,485.824,375.816z"/>
<g>
	<path style="fill:#D8D9D8;" d="M434.928,388.712H326.8c-7.328,0-13.264,5.936-13.264,13.264s5.936,13.264,13.264,13.264h108.128
		c7.328,0,13.264-5.936,13.264-13.264S442.256,388.712,434.928,388.712z"/>
	<path style="fill:#D8D9D8;" d="M475.424,388.712h-7.168c-7.328,0-13.264,5.936-13.264,13.264s5.936,13.264,13.264,13.264h7.168
		c7.328,0,13.264-5.936,13.264-13.264S482.736,388.712,475.424,388.712z"/>
</g>
<polygon style="fill:#FFFFFF;" points="137.536,293.88 120.544,276.888 219.824,177.592 291.232,249 374.448,165.784 
	391.44,182.776 291.232,282.984 219.824,211.576 "/>
<g>
	<circle style="fill:#FEE218;" cx="128.96" cy="285.384" r="34.464"/>
	<circle style="fill:#FEE218;" cx="220.512" cy="195.496" r="34.464"/>
	<circle style="fill:#FEE218;" cx="289.44" cy="264.28" r="34.448"/>
	<circle style="fill:#FEE218;" cx="382.944" cy="174.28" r="34.448"/>
</g>
<g>
	<circle style="fill:#F8D41D;" cx="377.856" cy="165.784" r="18.832"/>
	<circle style="fill:#F8D41D;" cx="284.976" cy="257.448" r="18.832"/>
	<circle style="fill:#F8D41D;" cx="213.664" cy="187.352" r="18.832"/>
	<circle style="fill:#F8D41D;" cx="120.832" cy="280.184" r="18.832"/>
</g>
<g>
</g>
<g>
</g>
<g>
</g>
<g>
</g>
<g>
</g>
<g>
</g>
<g>
</g>
<g>
</g>
<g>
</g>
<g>
</g>
<g>
</g>
<g>
</g>
<g>
</g>
<g>
</g>
<g>
</g>
</svg>
