<svg id="Layer_1" enable-background="new 0 0 512 512" height="512" viewBox="0 0 512 512" width="512" xmlns="http://www.w3.org/2000/svg"><g><path d="m136 88v32c0 4.42-3.58 8-8 8h-80c-4.42 0-8-3.58-8-8v-32c0-13.23 10.77-24 24-24h48c13.23 0 24 10.77 24 24z" fill="#595965"/><path d="m112 64h-32c13.23 0 24 10.77 24 24v32c0 4.42-3.58 8-8 8h32c4.42 0 8-3.58 8-8v-32c0-13.23-10.77-24-24-24z" fill="#44454e"/><path d="m352 128h-192c-5.356 0-9.208-5.169-7.66-10.3l20.58-68.6c3.07-10.23 12.3-17.1 22.98-17.1h120.2c10.68 0 19.91 6.87 22.98 17.1l20.58 68.6c1.548 5.129-2.301 10.3-7.66 10.3z" fill="#595965"/><path d="m359.66 117.7-20.58-68.6c-3.07-10.23-12.3-17.1-22.98-17.1h-40c10.68 0 19.91 6.87 22.98 17.1l20.58 68.6c1.548 5.129-2.301 10.3-7.66 10.3h40c5.356 0 9.208-5.169 7.66-10.3z" fill="#44454e"/><path d="m512 136v64c0 4.42-3.58 8-8 8h-496c-4.42 0-8-3.58-8-8v-64c0-13.23 10.77-24 24-24h464c13.23 0 24 10.77 24 24z" fill="#e48c9b"/><path d="m488 112h-40c13.23 0 24 10.77 24 24v64c0 4.42-3.58 8-8 8h40c4.42 0 8-3.58 8-8v-64c0-13.23-10.77-24-24-24z" fill="#cc5b6f"/><path d="m512 192v264c0 13.255-10.745 24-24 24h-464c-13.255 0-24-10.745-24-24v-264z" fill="#c8effd"/><path d="m472 192v264c0 13.255-10.745 24-24 24h40c13.255 0 24-10.745 24-24v-264z" fill="#a0e1fd"/><path d="m112 168h-48c-4.418 0-8-3.582-8-8s3.582-8 8-8h48c4.418 0 8 3.582 8 8s-3.582 8-8 8z" fill="#edebfd"/><circle cx="440" cy="408" fill="#595965" r="32"/><path d="m428 378.343c26.626 10.813 26.603 48.509 0 59.313 20.943 8.505 44-6.973 44-29.657 0-22.696-23.067-38.157-44-29.656z" fill="#44454e"/><circle cx="256" cy="304" fill="#595965" r="144"/><path d="m240 160.894c71.897 7.986 128 69.115 128 143.106s-56.103 135.121-128 143.106c85.667 9.515 160-57.767 160-143.106 0-85.44-74.437-152.61-160-143.106z" fill="#44454e"/><circle cx="256" cy="304" fill="#edebfd" r="96"/><path d="m240 209.341c45.342 7.641 80 47.18 80 94.659s-34.658 87.018-80 94.659c58.891 9.925 112-35.719 112-94.659 0-58.965-53.137-104.579-112-94.659z" fill="#d2d2fc"/></g></svg>