<svg id="Capa_1" enable-background="new 0 0 512 512" height="512" viewBox="0 0 512 512" width="512" xmlns="http://www.w3.org/2000/svg"><g><g><path d="m143.294 393.607-95.417 18.316h-32.877v45.075c0 30.377 24.624 55.002 55 55.002l138.852-.049 3.703-.001 22.97-45.656-22.97-61.554z" fill="#adcfff"/><path d="m257.243 451.915v-39.992l-44.688-7.183v107.21l104.572-.037z" fill="#6aa8ff"/></g><g><path d="m152.877 0c-57.99 0-105 47.012-105 105.005v306.918h164.678l117.999-188.589-117.999-223.333z" fill="#d7e8ff"/><path d="m212.555.001v411.922h44.688v39.992c0 33.093 26.793 59.937 59.884 59.998 33.178.062 60.107-26.818 60.107-59.998v-192.735l60.874-259.175z" fill="#adcfff"/></g><path d="m497 259.18h-119.767v-199.297c0-33.073 26.81-59.883 59.88-59.883h.007c33.071 0 59.88 26.81 59.88 59.883z" fill="#6aa8ff"/><g><path d="m219.881 223.334c9.764-.568 16.554-6.507 17.585-12.27 1.455-8.142-10.674-13.298-14.426-14.684-3.616-1.336-7.146-2.691-10.485-4.005v30.601c1.214.172 2.441.293 3.676.357h3.65z" fill="none"/><path d="m200.169 149.094c-.188 1.305-.285 4.416 2.434 6.67 1.817.796 5.365 2.334 9.953 4.243v-20.27c-1.281.183-2.574.454-3.877.847-6.875 2.074-8.242 6.643-8.51 8.51z" fill="none"/><path d="m202.603 155.765c-2.719-2.255-2.621-5.366-2.434-6.67.268-1.868 1.635-6.436 8.509-8.51 1.303-.393 2.597-.664 3.877-.847l8.798-22.19-8.798-30.151h-15v25.298c-14.683 5.333-24.969 17.434-27.082 32.133-2.095 14.576 4.214 28.6 16.465 36.6.663.433 1.359.813 2.082 1.136.524.235 10.561 4.708 23.535 9.814l12.516-14.082-12.516-18.287c-4.587-1.911-8.136-3.449-9.952-4.244z" fill="#ffb555"/><path d="m189.836 211.435-10.063-11.123-22.246 20.127 10.063 11.123c7.984 8.825 18.383 15.244 29.965 18.755v25.055h15l12.516-32.607-12.516-19.788c-8.92-1.261-17.14-5.376-22.719-11.542z" fill="#ffb555"/><path d="m227.555 252.629c20.146-3.36 36.098-17.587 39.442-36.284 2.896-16.192-4.4-37.333-33.561-48.105-7.707-2.847-15.116-5.833-20.881-8.233v32.369c3.339 1.314 6.869 2.669 10.485 4.005 3.752 1.386 15.881 6.542 14.426 14.684-1.031 5.763-7.821 11.702-17.585 12.27h-3.65c-1.235-.064-2.462-.186-3.676-.357v52.395h15z" fill="#ff9e22"/><path d="m137.701 305.044v30h74.854l12.516-15-12.516-15z" fill="#ffb555"/><g fill="#ff9e22"><path d="m212.555 305.044h74.854v30h-74.854z"/><path d="m239.264 147.699-.091-.076 19.322-22.949c-.744-.627-13.113-10.843-30.94-14.186v-23.092h-15v52.341c14.21-2.035 26.575 7.853 26.709 7.962z"/></g></g></g></svg>