<?xml version="1.0" encoding="iso-8859-1"?>
<!-- Generator: Adobe Illustrator 19.0.0, SVG Export Plug-In . SVG Version: 6.00 Build 0)  -->
<svg version="1.1" id="Capa_1" xmlns="http://www.w3.org/2000/svg" xmlns:xlink="http://www.w3.org/1999/xlink" x="0px" y="0px"
	 viewBox="0 0 512 512" style="enable-background:new 0 0 512 512;" xml:space="preserve">
<path style="fill:#81C8EE;" d="M382.352,393.974c-8.35,0-16.377-1.304-23.789-4.014c-7.778-2.842-11.777-11.455-8.936-19.248
	c2.842-7.778,11.47-11.792,19.248-8.936c20.479,7.529,51.24-3.838,74.883-27.466c28.755-28.74,38.467-67.603,21.226-84.858
	c-9.961-9.976-27.861-11.25-47.856-3.486c-7.705,2.974-16.406-0.85-19.395-8.584c-2.988-7.72,0.85-16.406,8.584-19.395
	c31.421-12.129,61.26-8.335,79.878,10.254c29.736,29.751,20.405,85.664-21.226,127.28
	C440.404,380.102,409.585,393.974,382.352,393.974z"/>
<path style="fill:#CAE8F9;" d="M413.436,181h-390c-8.401,0-15,6.599-15,15c0,106.199,42.9,202.8,112.2,252.299
	c2.701,1.8,5.7,2.701,8.701,2.701h178.198c3.001,0,6-0.901,8.701-2.701c69.3-49.499,112.2-146.1,112.2-252.299
	C428.436,187.599,421.837,181,413.436,181z"/>
<path style="fill:#A4D9F5;" d="M428.436,196c0,106.199-42.9,202.8-112.2,252.299c-2.701,1.8-5.7,2.701-8.701,2.701h-89.099V181h195
	C421.837,181,428.436,187.599,428.436,196z"/>
<g>
	<path style="fill:#1BD9DE;" d="M345.636,74.099c-5.7,5.7-15.3,5.7-21.299,0C296.137,45.601,258.337,30,218.436,30
		s-77.701,15.601-105.901,44.099c-5.999,5.7-15.599,5.7-21.299,0c-6-5.999-6-15.599,0-21.299c33.9-34.2,79.2-52.8,127.2-52.8
		s93.3,18.6,127.2,52.8C351.637,58.5,351.637,68.101,345.636,74.099z"/>
	<path style="fill:#1BD9DE;" d="M303.337,116.4c-6,6-15.3,6-21.301,0c-16.8-16.8-40.199-25.499-63.6-25.499s-46.8,8.699-63.6,25.499
		c-6,6-15.3,6-21.301,0c-5.7-6-5.7-15.3,0-21.301c22.8-22.5,53.701-33.9,84.901-33.9s62.1,11.4,84.901,33.9
		C309.037,101.1,309.037,110.4,303.337,116.4z"/>
	<path style="fill:#1BD9DE;" d="M260.736,158.699c-5.7,6-15.298,6-20.999,0c-5.7-5.7-13.5-8.399-21.301-8.399
		s-15.601,2.699-21.301,8.399c-5.7,6-15.298,6-20.999,0c-6-5.7-6-15.298,0-20.999c11.1-11.4,26.699-17.1,42.299-17.1
		s31.199,5.7,42.299,17.1C266.736,143.401,266.736,152.999,260.736,158.699z"/>
</g>
<path style="fill:#BF6015;" d="M276.637,374.2c-14.101,14.099-35.7,20.099-58.2,15.601c-16.199-3.001-32.999-11.4-47.701-26.1
	c-34.199-34.2-35.4-81.301-10.499-105.901l28.801,3.9l75.899,75.899L276.637,374.2z"/>
<path style="fill:#1BD9DE;" d="M396.938,443.599c-7.8,15.901-13.801,27.902-21.901,43.5c-7.5,15.3-23.099,24.901-40.199,24.901
	h-232.8c-17.1,0-32.699-9.6-40.199-24.901c-8.101-15.599-14.101-27.599-21.901-43.5H396.938z"/>
<path style="fill:#1DE8F1;" d="M428.436,436c0,8.401-6.599,15-15,15h-390c-8.401,0-15-6.599-15-15s6.599-15,15-15h390
	C421.837,421,428.436,427.599,428.436,436z"/>
<path style="fill:#14B7BF;" d="M396.938,443.599c-7.8,15.901-13.801,27.902-21.901,43.5c-7.5,15.3-23.099,24.901-40.199,24.901
	h-116.4v-68.401H396.938z"/>
<path style="fill:#1BD9DE;" d="M428.436,436c0,8.401-6.599,15-15,15h-195v-30h195C421.837,421,428.436,427.599,428.436,436z"/>
<g>
	<path style="fill:#14B7BF;" d="M260.736,137.701c6,5.7,6,15.298,0,20.999c-5.7,6-15.298,6-20.999,0
		c-5.7-5.7-13.5-8.399-21.301-8.399v-29.7C234.037,120.601,249.636,126.301,260.736,137.701z"/>
	<path style="fill:#14B7BF;" d="M303.337,95.099c5.7,6,5.7,15.3,0,21.301c-6,6-15.3,6-21.301,0
		c-16.8-16.8-40.199-25.499-63.6-25.499V61.199C249.636,61.199,280.537,72.599,303.337,95.099z"/>
	<path style="fill:#14B7BF;" d="M345.636,74.099c-5.7,5.7-15.3,5.7-21.299,0C296.137,45.601,258.337,30,218.436,30V0
		c47.999,0,93.3,18.6,127.2,52.8C351.637,58.5,351.637,68.101,345.636,74.099z"/>
</g>
<path style="fill:#994C0F;" d="M276.637,374.2l-116.4-116.4c14.101-14.399,36.301-19.2,58.2-15c17.1,3.3,34.2,12.001,47.701,25.499
	C296.137,298.299,304.837,346.3,276.637,374.2z"/>
<g>
</g>
<g>
</g>
<g>
</g>
<g>
</g>
<g>
</g>
<g>
</g>
<g>
</g>
<g>
</g>
<g>
</g>
<g>
</g>
<g>
</g>
<g>
</g>
<g>
</g>
<g>
</g>
<g>
</g>
</svg>
