<?xml version="1.0" encoding="iso-8859-1"?>
<!-- Generator: Adobe Illustrator 19.0.0, SVG Export Plug-In . SVG Version: 6.00 Build 0)  -->
<svg xmlns="http://www.w3.org/2000/svg" xmlns:xlink="http://www.w3.org/1999/xlink" version="1.1" id="Layer_1" x="0px" y="0px" viewBox="0 0 512.001 512.001" style="enable-background:new 0 0 512.001 512.001;" xml:space="preserve">
<path style="fill:#C8CEDB;" d="M458.103,121.713H53.896c-10.002,0-18.14,8.136-18.14,18.139v272.825  c0,10.004,8.139,18.141,18.14,18.141h404.207c10.003,0,18.142-8.138,18.142-18.141V139.852  C476.245,129.85,468.106,121.713,458.103,121.713z M432.66,387.882H79.342V165.159H432.66V387.882z"/>
<path style="fill:#60B7E2;" d="M433.692,171.603h-321.27h-7.233H78.307c-4.564,0-8.266,3.462-8.266,7.727v24.004v6.761V358.69v6.761  v24.003c0,4.269,3.701,7.729,8.266,7.729h26.882h7.233h321.27c4.566,0,8.265-3.46,8.265-7.729v-24.003v-6.761V210.094v-6.761V179.33  C441.957,175.064,438.258,171.603,433.692,171.603z"/>
<path style="opacity:0.15;fill:#30302F;enable-background:new    ;" d="M89.385,397.133v-6.76V241.777v-6.761v-24.004  c0-4.265,3.699-7.725,8.264-7.725h25.793h7.233h311.283V179.33c0-4.265-3.699-7.727-8.265-7.727H112.422h-7.233H78.307  c-4.564,0-8.266,3.462-8.266,7.727v24.004v6.761V358.69v6.761v24.003c0,4.269,3.701,7.729,8.266,7.729h11.077v-0.05H89.385z"/>
<path style="fill:#DFE3EA;" d="M434.167,155.86H131.318h-6.817H99.161c-4.303,0-7.791,3.7-7.791,8.264v23.223h350.587v-23.223  C441.957,159.56,438.471,155.86,434.167,155.86z"/>
<path style="fill:#EF5440;" d="M112.695,155.86h-0.272h-7.233H78.307c-4.564,0-8.266,3.7-8.266,8.264v23.223h42.653V155.86H112.695z  "/>
<path style="opacity:0.15;fill:#30302F;enable-background:new    ;" d="M55.385,412.677V139.852c0-10.003,8.139-18.139,18.14-18.139  H53.897c-10.002,0-18.14,8.136-18.14,18.139v272.825c0,10.004,8.139,18.141,18.14,18.141h19.629  C63.522,430.818,55.385,422.682,55.385,412.677z"/>
<g>
	<path style="fill:#F2F2F2;" d="M400.282,241.272H113.786c-1.427,0-2.584,1.158-2.584,2.584v32.717c0,1.426,1.158,2.585,2.584,2.585   h286.496c1.428,0,2.584-1.159,2.584-2.585v-32.717C402.865,242.429,401.71,241.272,400.282,241.272z"/>
	<path style="fill:#F2F2F2;" d="M241.547,304.503H113.786c-1.427,0-2.584,1.158-2.584,2.584v66.255c0,1.428,1.158,2.583,2.584,2.583   h127.761c1.426,0,2.583-1.156,2.583-2.583v-66.255C244.13,305.661,242.973,304.503,241.547,304.503z"/>
</g>
<g>
	<path style="fill:#415B6B;" d="M400.282,314.835H272.67c-4.282,0-7.749-3.469-7.749-7.748c0-4.281,3.468-7.75,7.749-7.75h127.612   c4.283,0,7.749,3.47,7.749,7.75C408.03,311.366,404.565,314.835,400.282,314.835z"/>
	<path style="fill:#415B6B;" d="M400.282,347.966H272.67c-4.282,0-7.749-3.47-7.749-7.748c0-4.281,3.468-7.749,7.749-7.749h127.612   c4.283,0,7.749,3.469,7.749,7.749C408.03,344.496,404.565,347.966,400.282,347.966z"/>
	<path style="fill:#415B6B;" d="M336.475,381.091H272.67c-4.282,0-7.749-3.47-7.749-7.749c0-4.281,3.468-7.75,7.749-7.75h63.805   c4.281,0,7.75,3.469,7.75,7.75C344.224,377.621,340.755,381.091,336.475,381.091z"/>
</g>
<g>
	<path style="fill:#FFD05C;" d="M412.102,159.858l-6.997-55.684c-0.42-3.336-2.238-6.177-4.816-7.99   c0.013-0.22,0.034-0.436,0.034-0.659c0-2.611-0.869-5.016-2.33-6.948l-30.63-46.612c-2.134-3.242-5.753-5.196-9.633-5.196h-60.542   c-3.458,0-6.736,1.554-8.924,4.233c-2.191,2.679-3.062,6.2-2.373,9.588l9.582,47.226c0.296,1.452,0.863,2.789,1.631,3.975   c-0.498,1.411-0.725,2.914-0.642,4.44l2.957,54.928c0.097,29.563,24.175,53.581,53.759,53.581h5.252   c29.144,0,53.256-23.703,53.756-52.878l0.004-0.407C412.2,160.922,412.169,160.388,412.102,159.858z"/>
	<path style="fill:#FFD05C;" d="M214.808,36.769h-60.536c-3.882,0-7.504,1.954-9.635,5.196l-31.035,47.228   c-1.38,2.098-1.991,4.544-1.857,6.97c-2.597,1.809-4.429,4.663-4.849,8.01l-6.971,55.463l-0.025,0.202   c-0.068,0.534-0.1,1.076-0.091,1.615l0.007,0.454c0.499,29.134,24.612,52.833,53.753,52.833h5.252   c29.535,0,53.585-23.939,53.761-53.434l2.956-55.077c0.083-1.526-0.145-3.029-0.642-4.44c0.767-1.187,1.334-2.523,1.629-3.973   l9.582-47.226c0.689-3.387-0.183-6.909-2.371-9.588C221.547,38.323,218.271,36.769,214.808,36.769z"/>
</g>
<g>
	<path style="fill:#EF5440;" d="M312.377,160.781c-0.002-0.124-0.007-0.251-0.013-0.371l-2.465-45.834l-0.007-0.075l-0.51-9.509   c-0.007-0.099-0.027-0.191-0.036-0.291l-0.254-4.569l-1.151-5.931c-0.058-0.512-0.151-1.013-0.272-1.5l-0.347-1.71l-0.002-0.014   l-10.937-54.208h-80.301l-11.403,54.208l-0.002,0.014l-0.346,1.71c-0.124,0.487-0.217,0.988-0.273,1.5l-1.149,5.931l-0.255,4.569   c-0.01,0.1-0.032,0.192-0.036,0.291l-0.514,9.509l-0.004,0.075l-2.464,45.834c-0.007,0.121-0.011,0.247-0.014,0.371l-0.005,0.265   c-0.003,0.111-0.003,0.221-0.003,0.333c0.203,27.587,21.41,50.35,48.31,53.086c1.793,0.181,3.613,0.273,5.452,0.273h5.251   c1.839,0,3.659-0.093,5.45-0.273c26.9-2.737,48.108-25.5,48.309-53.086c0-0.112,0-0.221-0.001-0.333L312.377,160.781z"/>
	<path style="fill:#EF5440;" d="M83.215,36.769H83.21c-2.841,0-5.581,1.05-7.695,2.945l-48.975,43.89l0,0l-0.002,0.002l-2.524,2.261   l0,0l0,0l-1.194,1.07c-0.11,0.096-0.208,0.206-0.314,0.308c-0.534,0.499-1.045,0.987-1.534,1.466   c-4.528,4.932-10.513,13.462-12.713,25.693L0.273,158.88l-0.1,0.571c-0.132,0.747-0.187,1.507-0.169,2.271l0.014,0.578   c0.7,28.916,24.808,52.439,53.742,52.439h5.254c29.506,0,53.536-23.891,53.761-53.342l6.178-49.154l1.385-9.768   c0.158-0.199,0.316-0.405,0.461-0.62l43.271-65.087H83.215V36.769z"/>
</g>
<path style="opacity:0.15;fill:#30302F;enable-background:new    ;" d="M18.719,167.036l-0.015-0.61  c-0.019-0.806,0.039-1.608,0.179-2.396l0.106-0.602l8.426-46.925c2.321-12.905,8.635-21.904,13.414-27.108  c0.516-0.505,1.055-1.021,1.617-1.547c0.113-0.108,0.216-0.224,0.332-0.326l1.258-1.128l2.663-2.386l0.002-0.002l51.672-46.306  c0.379-0.34,0.782-0.643,1.196-0.93H83.215H83.21c-2.841,0-5.581,1.05-7.695,2.945L26.539,83.604l-0.002,0.002l-2.524,2.261  l-1.194,1.07c-0.11,0.096-0.208,0.206-0.314,0.308c-0.534,0.499-1.045,0.987-1.534,1.466c-4.528,4.932-10.513,13.462-12.713,25.693  L0.273,158.88l-0.1,0.571c-0.132,0.747-0.187,1.507-0.169,2.271l0.014,0.578c0.639,26.397,20.789,48.288,46.305,51.904  C30.226,204.464,19.201,186.966,18.719,167.036z"/>
<path style="fill:#EF5440;" d="M511.829,159.451l-0.1-0.571l-7.987-44.475c-2.2-12.232-8.184-20.761-12.713-25.693  c-0.489-0.478-1.001-0.967-1.531-1.466c-0.108-0.102-0.206-0.212-0.317-0.308l-1.194-1.07h-0.001l0,0l-2.52-2.261l-0.004-0.002  h0.003l-45.28-41.025c-0.002-0.002-0.004-0.004-0.009-0.007c-6.051-5.482-14.072-5.804-14.072-5.804h-78.173l43.271,65.087  c0.144,0.215,0.302,0.422,0.461,0.62l1.385,9.768l6.18,49.154c0.222,29.451,24.255,53.342,53.759,53.342h5.253  c28.935,0,53.044-23.523,53.742-52.439l0.014-0.578C512.017,160.958,511.959,160.197,511.829,159.451z"/>
<path style="fill:#D1D6E4;" d="M490.008,417.388h-156.52c-4.565,0-8.266,3.7-8.266,8.265v16.008H186.781v-16.008  c0-4.565-3.7-8.265-8.266-8.265H21.994c-4.565,0-8.266,3.7-8.266,8.265v30.059c0,10.764,8.757,19.521,19.521,19.521h445.507  c10.763,0,19.52-8.757,19.52-19.521v-30.059C498.274,421.089,494.574,417.388,490.008,417.388z"/>
<path style="opacity:0.15;fill:#30302F;enable-background:new    ;" d="M33.333,455.712v-30.059c0-4.565,3.7-8.265,8.266-8.265  H21.994c-4.565,0-8.266,3.7-8.266,8.265v30.059c0,10.764,8.757,19.521,19.521,19.521h19.606  C42.091,475.233,33.333,466.476,33.333,455.712z"/>
<path style="fill:#F5F5F5;" d="M177.481,418.938v17.041c0,4.563,3.701,8.264,8.265,8.264h140.51c4.564,0,8.265-3.7,8.265-8.264  v-17.041c0-0.53-0.054-1.048-0.15-1.55H177.632C177.537,417.89,177.481,418.408,177.481,418.938z"/>
<g>
</g>
<g>
</g>
<g>
</g>
<g>
</g>
<g>
</g>
<g>
</g>
<g>
</g>
<g>
</g>
<g>
</g>
<g>
</g>
<g>
</g>
<g>
</g>
<g>
</g>
<g>
</g>
<g>
</g>
</svg>
