<svg height="512" viewBox="0 0 128 128" width="512" xmlns="http://www.w3.org/2000/svg"><g><path d="m44 40.56c.75-18.06 16.281-29.393 33.083-30.227s25.584-3.833 25.584-3.833c.166 25.833-8.667 46.127-47.667 47.23h-10.167z" fill="#a5cc2a"/><path d="m66.863 66.73c17.479 4.607 30.262.77 38.137-18.23a71.69 71.69 0 0 1 16.5-24.408c-24.636-7.774-53.619-5.216-66.17 31.726l-3 9.714z" fill="#bae543"/><g fill="#a5cc2a"><path d="m63.116 68.172a1.751 1.751 0 0 1 -1.528-2.6c.677-1.221 16.874-29.983 43.118-37.146a1.75 1.75 0 0 1 .922 3.377c-24.835 6.778-40.82 35.18-40.98 35.466a1.749 1.749 0 0 1 -1.532.903z"/><path d="m99.752 42.667a1.755 1.755 0 0 1 -.287-.024 27.813 27.813 0 0 1 -10.1-4.257 1.75 1.75 0 0 1 -.764-1.447c0-.26.04-6.439 3.538-10.786a1.75 1.75 0 1 1 2.726 2.194 14.853 14.853 0 0 0 -2.715 7.676 24.577 24.577 0 0 0 7.89 3.167 1.751 1.751 0 0 1 -.286 3.477z"/><path d="m89.647 51.127a18.784 18.784 0 0 1 -11.447-3.985 1.754 1.754 0 0 1 -.564-.926c-.072-.3-1.748-7.489-.77-12.469a1.75 1.75 0 1 1 3.434.673c-.685 3.49.253 8.648.612 10.391a15.408 15.408 0 0 0 10.535 2.7 1.75 1.75 0 0 1 .44 3.472 17.926 17.926 0 0 1 -2.24.144z"/></g><circle cx="29.417" cy="98.583" fill="#954acd" r="22.917"/><path d="m24.193 101.247a7.917 7.917 0 1 1 7.916-7.917 7.927 7.927 0 0 1 -7.916 7.917z" fill="#b560e8"/><circle cx="69.655" cy="76.647" fill="#954acd" r="22.917"/><path d="m74.78 82.563a7.917 7.917 0 1 1 7.92-7.917 7.926 7.926 0 0 1 -7.92 7.917z" fill="#b560e8"/><circle cx="37.92" cy="56.228" fill="#b560e8" r="22.917"/><path d="m50.233 69.567a1.749 1.749 0 0 1 -1.274-2.949 15.2 15.2 0 0 0 2.859-4.318 1.75 1.75 0 0 1 3.205 1.407 18.714 18.714 0 0 1 -3.515 5.311 1.745 1.745 0 0 1 -1.275.549z" fill="#954acd"/><path d="m33.753 61.647a7.917 7.917 0 1 1 7.917-7.917 7.926 7.926 0 0 1 -7.917 7.917z" fill="#954acd"/></g></svg>