<?xml version="1.0" encoding="iso-8859-1"?>
<!-- Generator: Adobe Illustrator 19.0.0, SVG Export Plug-In . SVG Version: 6.00 Build 0)  -->
<svg xmlns="http://www.w3.org/2000/svg" xmlns:xlink="http://www.w3.org/1999/xlink" version="1.1" id="Capa_1" x="0px" y="0px" viewBox="0 0 409.569 409.569" style="enable-background:new 0 0 409.569 409.569;" xml:space="preserve">
<path style="fill:#44C4A1;" d="M240.562,65.024c0,0-10.752-34.816-2.048-65.024c0,0,36.352,32.768,37.376,71.168  c0,0,16.896-41.472,53.248-59.392c0,0,4.096,29.184-28.16,73.728c0,0,40.96-8.192,84.48,5.12c0,0-28.16,27.648-63.488,30.208  L240.562,65.024z"/>
<path style="fill:#D15241;" d="M280.498,89.088c48.64,34.816,170.496,131.584,32.256,236.544  c-42.496,32.768-86.016,59.392-198.656,80.384c-28.672,5.12-68.096,18.432-82.944-81.92c-7.168-48.64-14.336-131.072,8.192-196.608  C59.314,69.632,132.018-16.896,280.498,89.088z"/>
<g>
	<path style="fill:#E56353;" d="M183.218,128c0.512,2.048,0.512,8.192-16.384,9.728c-5.12,0.512-10.24,0.512-18.944-1.024   c-2.048-0.512-5.632-0.512,1.024-4.608c3.584-2.048,9.216-5.12,15.872-7.168C170.93,122.88,182.194,120.832,183.218,128z"/>
	<path style="fill:#E56353;" d="M273.842,190.976c0.512,2.048,0.512,8.192-16.384,9.728c-5.12,0.512-10.24,0.512-18.944-1.024   c-2.048-0.512-5.632-0.512,1.024-4.608c3.584-2.048,9.216-5.12,15.872-7.168C261.554,185.856,272.818,183.808,273.842,190.976z"/>
	<path style="fill:#E56353;" d="M131.506,192.512c0.512,2.048,0.512,8.192-16.384,9.728c-5.12,0.512-10.24,0.512-18.944-1.024   c-2.048-0.512-5.632-0.512,1.024-4.608c3.584-2.048,9.216-5.12,15.872-7.168C119.218,187.392,130.482,185.344,131.506,192.512z"/>
	<path style="fill:#E56353;" d="M142.258,75.264c0.512,2.048,0.512,8.192-16.384,9.728c-5.12,0.512-10.24,0.512-18.944-1.024   c-2.048-0.512-5.632-0.512,1.024-4.608c3.584-2.048,9.216-5.12,15.872-7.168C129.97,70.144,141.234,68.608,142.258,75.264z"/>
	<path style="fill:#E56353;" d="M184.242,268.288c0.512,2.048,0.512,8.192-16.384,9.728c-5.12,0.512-10.24,0.512-18.944-1.024   c-2.048-0.512-5.632-0.512,1.024-4.608c3.584-2.048,9.216-5.12,15.872-7.168C171.442,262.656,182.706,261.12,184.242,268.288z"/>
	<path style="fill:#E56353;" d="M284.082,233.984c0.512,2.048,0.512,8.192-16.384,9.728c-5.12,0.512-10.24,0.512-18.944-1.024   c-2.048-0.512-5.632-0.512,1.024-4.608c3.584-2.048,9.216-5.12,15.872-7.168C271.794,228.864,283.058,226.816,284.082,233.984z"/>
	<path style="fill:#E56353;" d="M204.722,197.12c0.512,2.048,0.512,8.192-16.384,9.728c-5.12,0.512-10.24,0.512-18.944-1.024   c-2.048-0.512-5.632-0.512,1.024-4.608c3.584-2.048,9.216-5.12,15.872-7.168C192.434,192,203.698,189.952,204.722,197.12z"/>
	<path style="fill:#E56353;" d="M252.85,128c0.512,2.048,0.512,8.192-16.384,9.728c-5.12,0.512-10.24,0.512-18.944-1.024   c-2.048-0.512-5.632-0.512,1.024-4.608c3.584-2.048,9.216-5.12,15.872-7.168C240.562,122.368,251.826,120.832,252.85,128z"/>
	<path style="fill:#E56353;" d="M362.418,216.064c0.512,2.048,0.512,8.192-16.384,9.728c-5.12,0.512-10.24,0.512-18.944-1.024   c-2.048-0.512-5.632-0.512,1.024-4.608c3.584-2.048,9.216-5.12,15.872-7.168C350.13,210.944,361.394,208.896,362.418,216.064z"/>
	<path style="fill:#E56353;" d="M244.146,291.84c0.512,2.048,0.512,8.192-16.384,9.728c-5.12,0.512-10.24,0.512-18.944-1.024   c-2.048-0.512-5.632-0.512,1.024-4.608c3.584-2.048,9.216-5.12,15.872-7.168C231.858,286.72,243.122,284.672,244.146,291.84z"/>
	<path style="fill:#E56353;" d="M109.49,234.496c0.512,2.048,0.512,8.192-16.384,9.728c-5.12,0.512-10.24,0.512-18.944-1.024   c-2.048-0.512-5.632-0.512,1.024-4.608c3.584-2.048,9.216-5.12,15.872-7.168C97.202,229.376,108.466,227.328,109.49,234.496z"/>
	<path style="fill:#E56353;" d="M100.274,135.68c0.512,2.048,0.512,8.192-16.384,9.728c-5.12,0.512-10.24,0.512-18.944-1.024   c-2.048-0.512-5.632-0.512,1.024-4.608c3.584-2.048,9.216-5.12,15.872-7.168C87.986,130.56,99.25,129.024,100.274,135.68z"/>
	<path style="fill:#E56353;" d="M103.346,292.864c0.512,2.048,0.512,8.192-16.384,9.728c-5.12,0.512-10.24,0.512-18.944-1.024   c-2.048-0.512-5.632-0.512,1.024-4.608c3.584-2.048,9.216-5.12,15.872-7.168C90.546,287.744,101.81,285.696,103.346,292.864z"/>
	<path style="fill:#E56353;" d="M152.498,339.456c0.512,2.048,0.512,8.192-16.384,9.728c-5.12,0.512-10.24,0.512-18.944-1.024   c-2.048-0.512-5.632-0.512,1.024-4.608c3.584-2.048,9.216-5.12,15.872-7.168C139.698,334.336,151.474,332.288,152.498,339.456z"/>
	<path style="fill:#E56353;" d="M101.298,372.224c0.512,2.048,0.512,8.192-16.384,9.728c-5.12,0.512-10.24,0.512-18.944-1.024   c-2.048-0.512-5.632-0.512,1.024-4.608c3.584-2.048,9.216-5.12,15.872-7.168C89.01,367.104,100.274,365.056,101.298,372.224z"/>
	<path style="fill:#E56353;" d="M232.37,346.112c0.512,2.048,0.512,8.192-16.384,9.728c-5.12,0.512-10.24,0.512-18.944-1.024   c-2.048-0.512-5.632-0.512,1.024-4.608c3.584-2.048,9.216-5.12,15.872-7.168C220.082,340.992,231.346,339.456,232.37,346.112z"/>
	<path style="fill:#E56353;" d="M326.578,286.208c0.512,2.048,0.512,8.192-16.384,9.728c-5.12,0.512-10.24,0.512-18.944-1.024   c-2.048-0.512-5.632-0.512,1.024-4.608c3.584-2.048,9.216-5.12,15.872-7.168C314.29,281.088,325.554,279.552,326.578,286.208z"/>
	<path style="fill:#E56353;" d="M322.994,152.576c0.512,2.048,0.512,8.192-16.384,9.728c-5.12,0.512-10.24,0.512-18.944-1.024   c-2.048-0.512-5.632-0.512,1.024-4.608c3.584-2.048,9.216-5.12,15.872-7.168C310.706,147.456,321.97,145.408,322.994,152.576z"/>
	<path style="fill:#E56353;" d="M205.234,70.656c0.512,2.048,0.512,8.192-16.384,9.728c-5.12,0.512-10.24,0.512-18.944-1.024   c-2.048-0.512-5.632-0.512,1.024-4.608c3.584-2.048,9.216-5.12,15.872-7.168C192.434,65.536,204.21,64,205.234,70.656z"/>
</g>
<g>
</g>
<g>
</g>
<g>
</g>
<g>
</g>
<g>
</g>
<g>
</g>
<g>
</g>
<g>
</g>
<g>
</g>
<g>
</g>
<g>
</g>
<g>
</g>
<g>
</g>
<g>
</g>
<g>
</g>
</svg>
