<?xml version="1.0" encoding="iso-8859-1"?>
<!-- Generator: Adobe Illustrator 19.0.0, SVG Export Plug-In . SVG Version: 6.00 Build 0)  -->
<svg version="1.1" id="Capa_1" xmlns="http://www.w3.org/2000/svg" xmlns:xlink="http://www.w3.org/1999/xlink" x="0px" y="0px"
	 viewBox="0 0 468.293 468.293" style="enable-background:new 0 0 468.293 468.293;" xml:space="preserve">
<rect x="6.887" y="188.653" style="fill:#4EBD9E;" width="454.531" height="279.639"/>
<path style="fill:#3CA59A;" d="M461.415,188.626l-58.441,47.337l-11.234,9.091L245.638,363.3l-11.493,9.286l-11.494-9.286
	L76.549,245.054l-11.234-9.091L6.874,188.626L221.472,4.69c7.295-6.253,18.06-6.253,25.355,0L461.415,188.626z"/>
<path style="fill:#E0E5E8;" d="M402.974,56.44v179.523l-11.234,9.091L245.638,363.3c-7.273,3.636-15.714,3.636-22.987,0
	L76.549,245.054l-11.234-9.091V111.159l67.207-67.207h257.964C397.383,43.952,402.974,49.543,402.974,56.44z"/>
<polygon style="fill:#EBEFF2;" points="132.493,111.13 132.493,43.952 65.315,111.13 "/>
<path style="fill:#E56354;" d="M232.568,268.665c-22.086,0-40.585-7.365-55.499-22.086c-14.922-14.721-22.382-33.124-22.382-55.202
	c0-22.086,7.822-40.978,23.465-56.686c15.636-15.7,34.536-23.562,56.686-23.562c22.142,0,40.81,7.862,55.988,23.562
	c15.178,15.708,22.775,34.865,22.775,57.472c0,14.2-2.695,25.663-8.087,34.408c-5.391,8.736-12.555,13.109-21.492,13.109
	c-6.442,0-11.568-2.198-15.379-6.602c-3.811-4.404-5.848-10.678-6.113-18.828c-7.357,16.951-19.117,25.431-35.29,25.431
	c-11.303,0-21.259-4.533-29.867-13.606c-8.608-9.065-12.916-20.569-12.916-34.504c0-13.927,4.075-25.631,12.226-35.09
	c8.151-9.466,18.925-14.2,32.338-14.2c6.041,0,11.761,1.58,17.152,4.733c5.383,3.153,9.266,6.899,11.632,11.239v-13.213h18.925
	v68.808c0,9.202,3.61,13.806,10.846,13.806c4.067,0,7.782-2.992,11.135-8.969c3.353-5.985,5.03-13.839,5.03-23.562
	c0-21.027-6.346-38.844-19.029-53.429c-12.683-14.593-29.049-21.885-49.089-21.885c-20.048,0-37.103,7.028-51.167,21.091
	c-14.063,14.071-21.091,30.894-21.091,50.477c0,19.583,6.634,35.916,19.911,48.992c13.277,13.076,29.699,19.615,49.289,19.615
	c15.772,0,27.862-3.939,36.277-11.825l4.34,7.292c-4.605,3.947-10.718,7.132-18.339,9.563
	C247.225,267.446,239.796,268.665,232.568,268.665z M257.999,190.688c0-8.48-2.495-15.475-7.493-21.003
	c-4.998-5.519-11.504-8.279-19.518-8.279c-8.014,0-14.456,2.832-19.318,8.48c-4.862,5.656-7.292,12.587-7.292,20.802
	c0,8.215,2.391,15.379,7.196,21.492c4.789,6.105,11.336,9.162,19.615,9.162s14.817-2.984,19.615-8.969
	C255.6,206.395,257.999,199.167,257.999,190.688z"/>
<path style="fill:#30968B;" d="M461.419,468.293H6.885l218.214-134.251c5.606-3.449,12.5-3.449,18.107,0L461.419,468.293z"/>
<g>
</g>
<g>
</g>
<g>
</g>
<g>
</g>
<g>
</g>
<g>
</g>
<g>
</g>
<g>
</g>
<g>
</g>
<g>
</g>
<g>
</g>
<g>
</g>
<g>
</g>
<g>
</g>
<g>
</g>
</svg>
