<svg id="Capa_1" enable-background="new 0 0 512 512" height="512" viewBox="0 0 512 512" width="512" xmlns="http://www.w3.org/2000/svg"><g><path d="m473.895 236.887 14.215-85.087c.53-3.17.152-6.425-1.091-9.388l-15.343-36.607-29.895 33.581-16.289 97.502c19.062-.001 37.019-.001 48.403-.001z" fill="#b1dbfc"/><path d="m464.498 151.561c.614-3.678 2.256-7.107 4.735-9.891l11.882-13.346-9.438-22.519-29.895 33.581-16.289 97.502h24.751z" fill="#8bcaff"/><path d="m471.677 105.804-122.124-20.487-27.835 33.581 122.123 20.487z" fill="#b1dbfc"/><path d="m374.494 89.501-24.941-4.183-27.835 33.58 24.941 4.184z" fill="#8bcaff"/><path d="m470.495 72.38-108.961-18.278c-3.634-.61-7.074 1.849-7.682 5.49l-4.298 25.726 122.123 20.486 4.298-25.726c.608-3.642-1.845-7.088-5.48-7.698z" fill="#dfebfa"/><path d="m377.946 68.69c.793-4.748 3.832-8.548 7.839-10.52l-24.252-4.068c-3.634-.61-7.074 1.849-7.682 5.49l-4.298 25.726 24.917 4.18z" fill="#b1dbfc"/><path d="m427.552 236.887 16.289-97.502-122.124-20.486-19.712 117.988z" fill="#dfebfa"/><path d="m346.78 123.103-25.062-4.204-19.712 117.988h25.765z" fill="#b1dbfc"/><path d="m427.552 236.887 2.763-16.536-115.289-61.392-13.019 77.929c46.786-.001 91.271-.001 125.545-.001z" fill="#23a8fe"/><path d="m315.025 158.958-13.019 77.929h25.765l10.914-65.33z" fill="#0193fa"/><path d="m155.754 170.468-64.849-110.815c-10.988-19.03-35.547-25.61-54.577-14.623l-.276.16c-14.203 12.609-18.15 33.99-8.304 51.043l81.001 142.341h23.433c-2.331-6.228-3.638-13.121-3.638-20.383-.001-22.366 10.239-41.301 27.21-47.723z" fill="#ab6b51"/><path d="m128.739 212.986-71.374-125.424c-8.954-15.51-6.497-34.597 4.705-47.411-8.604-1.271-17.67.218-25.742 4.878l-.276.16c-14.203 12.609-18.15 33.99-8.304 51.043l81.001 142.341h23.433c-2.331-6.228-3.638-13.121-3.638-20.383-.001-1.758.07-3.492.195-5.204z" fill="#965a44"/><g><g><path d="m71.327 108.901c-2.67 0-5.267-1.386-6.698-3.865-2.134-3.696-.868-8.421 2.828-10.554l32.667-18.86c3.695-2.133 8.421-.868 10.554 2.828 2.134 3.696.867 8.421-2.828 10.554l-32.667 18.86c-1.216.703-2.545 1.037-3.856 1.037z" fill="#965a44"/></g></g><g><g><path d="m90.332 141.817c-2.67 0-5.267-1.386-6.698-3.865-2.134-3.696-.868-8.421 2.828-10.554l32.666-18.86c3.696-2.134 8.421-.868 10.554 2.828s.868 8.421-2.828 10.554l-32.666 18.86c-1.217.703-2.546 1.037-3.856 1.037z" fill="#965a44"/></g></g><g><g><path d="m109.335 174.732c-2.67 0-5.267-1.386-6.698-3.865-2.134-3.696-.868-8.421 2.828-10.554l32.667-18.86c3.695-2.134 8.421-.868 10.554 2.828s.868 8.421-2.828 10.554l-32.667 18.86c-1.217.703-2.545 1.037-3.856 1.037z" fill="#965a44"/></g></g><path d="m26.27 276.407 44.623 202.427c2.869 12.882 14.297 22.045 27.494 22.045h320.518c13.197 0 24.625-9.163 27.494-22.045l44.623-202.427z" fill="#ff4756"/><path d="m115.449 478.834-44.624-202.427h-44.555l44.623 202.427c2.869 12.882 14.297 22.045 27.494 22.045h44.555c-13.196 0-24.624-9.163-27.493-22.045z" fill="#fc2d39"/><g><path d="m78.904 238.574h32.475l-81.701-143.571c-10.208-17.682-5.244-40.13 10.775-52.036-1.398.603-2.776 1.284-4.125 2.063l-16.382 9.458c-19.03 10.987-25.611 35.547-14.624 54.576z" fill="#bc7c63"/></g><g><path d="m223.871 238.574c-.065.107-.121.221-.185.33 3.424-5.784 10.293-12.712 16.043-16.188v-46.686c-7.007-6.256-17.768-9.962-27.195-9.962-5.2 0-10.179 1.131-14.774 3.196-5.264 2.365-11.322 2.365-16.586 0-4.595-2.065-9.573-3.196-14.774-3.196-23.184 0-41.978 22.414-41.978 50.064 0 7.261 1.307 16.216 3.639 22.444 28.938-.002 61.865-.002 95.81-.002z" fill="#4bcd5c"/></g><g><path d="m185.032 170.535c-1.316-.295-2.61-.712-3.857-1.272-4.595-2.065-9.573-3.196-14.774-3.196-23.184 0-41.978 22.414-41.978 50.064 0 7.261 1.307 16.216 3.639 22.444h35.962c-2.332-6.228-3.639-15.182-3.639-22.444-.001-20.278 10.113-37.726 24.647-45.596z" fill="#00b327"/></g><path d="m491.023 236.513c-20.078 0-443.862 0-464.753 0-11.586 0-20.978 9.392-20.978 20.977s9.392 20.977 20.978 20.977h464.753c11.585 0 20.977-9.392 20.977-20.977s-9.391-20.977-20.977-20.977z" fill="#ff656f"/><path d="m52.423 257.491c0-11.586 9.392-20.977 20.978-20.977-25.929 0-43.302 0-47.131 0-11.586 0-20.978 9.392-20.978 20.977s9.392 20.977 20.978 20.977h47.131c-11.586 0-20.978-9.392-20.978-20.977z" fill="#ff4756"/><path d="m279.623 222.715h-41.954c-11.766 7.112-19.631 20.025-19.631 34.776 0 22.427 18.181 40.608 40.608 40.608 22.428 0 40.608-18.181 40.608-40.608.001-14.751-7.865-27.664-19.631-34.776z" fill="#ff4756"/><path d="m258.646 257.491c0-14.751 7.866-27.663 19.631-34.776h-40.608c-11.766 7.112-19.631 20.025-19.631 34.776 0 22.427 18.181 40.608 40.608 40.608 7.399 0 14.33-1.989 20.304-5.446-12.134-7.022-20.304-20.134-20.304-35.162z" fill="#fc2d39"/><path d="m258.646 11.122c-11.585 0-20.977 9.392-20.977 20.978v214.903c0 11.585 9.392 20.977 20.977 20.977 11.585 0 20.977-9.392 20.977-20.977v-214.904c.001-11.585-9.391-20.977-20.977-20.977z" fill="#ff656f"/><path d="m258.646 247.002v-214.903c0-7.76 4.225-14.52 10.489-18.148-3.088-1.789-6.663-2.829-10.489-2.829-11.585 0-20.977 9.392-20.977 20.978v214.903c0 11.585 9.392 20.977 20.977 20.977 3.825 0 7.401-1.04 10.489-2.829-6.264-3.63-10.489-10.389-10.489-18.149z" fill="#ff4756"/><g><g><path d="m105.571 456.775-25.222-126.408c-1.456-7.299 3.28-14.396 10.579-15.853 7.3-1.458 14.396 3.28 15.853 10.579l25.222 126.408c1.456 7.299-3.28 14.396-10.579 15.853-7.295 1.456-14.396-3.276-15.853-10.579z" fill="#ff656f"/></g></g><g><g><path d="m160.06 455.476-12.611-126.408c-.739-7.406 4.666-14.009 12.072-14.748 7.405-.742 14.009 4.666 14.747 12.072l12.611 126.408c.739 7.406-4.666 14.009-12.072 14.748-7.387.74-14.007-4.651-14.747-12.072z" fill="#ff656f"/></g></g><g><g><path d="m217.845 454.81-6.305-126.408c-.371-7.434 5.355-13.76 12.788-14.131 7.433-.368 13.76 5.355 14.131 12.788l6.305 126.408c.371 7.434-5.355 13.76-12.788 14.131-7.439.369-13.76-5.358-14.131-12.788z" fill="#ff656f"/></g></g><g><g><path d="m395.869 467.354c-7.299-1.456-12.035-8.554-10.579-15.853l25.222-126.408c1.456-7.299 8.552-12.037 15.853-10.579 7.299 1.456 12.035 8.554 10.579 15.853l-25.222 126.408c-1.456 7.298-8.553 12.036-15.853 10.579z" fill="#ff656f"/></g></g><g><g><path d="m342.485 467.548c-7.406-.739-12.811-7.341-12.072-14.748l12.611-126.408c.739-7.406 7.34-12.815 14.747-12.072 7.406.739 12.811 7.341 12.072 14.748l-12.611 126.408c-.739 7.413-7.351 12.812-14.747 12.072z" fill="#ff656f"/></g></g><g><g><path d="m285.316 467.598c-7.434-.371-13.159-6.698-12.788-14.131l6.305-126.408c.371-7.433 6.7-13.152 14.131-12.788 7.434.371 13.159 6.698 12.788 14.131l-6.305 126.408c-.37 7.421-6.683 13.157-14.131 12.788z" fill="#ff656f"/></g></g><g><path d="m189.468 177.722c-4.267 0-7.726-3.459-7.726-7.726 0-31.391 27.604-47.041 28.779-47.692 3.733-2.068 8.435-.717 10.503 3.016 2.063 3.726.722 8.418-2.995 10.491-.951.539-20.834 12.086-20.834 34.185-.001 4.267-3.46 7.726-7.727 7.726z" fill="#bc7c63"/></g></g></svg>