<?xml version="1.0" encoding="UTF-8"?>
<svg xmlns="http://www.w3.org/2000/svg" xmlns:xlink="http://www.w3.org/1999/xlink" width="512" height="512" viewBox="0 0 58 58" version="1.1"><!-- Generator: Sketch 49.3 (51167) - http://www.bohemiancoding.com/sketch --><title>042 - Upload to cloud</title><desc>Created with Sketch.</desc><defs/><g id="Page-1" stroke="none" stroke-width="1" fill="none" fill-rule="evenodd"><g id="042---Upload-to-cloud" transform="translate(-1.000000, 0.000000)" fill-rule="nonzero"><path d="M14,40 L9.92,40 C4.85887144,39.8634319 0.865976774,35.6511966 1,30.59 C0.918186199,26.1340475 4.01715656,22.2498367 8.38,21.34 C7.92429136,19.7567289 7.69204599,18.1175478 7.69,16.47 C7.69,7.36 14.67,0 23.31,0 C28.9060192,0.054656022 34.0337438,3.13511742 36.71,8.05 C38.0989637,7.39684653 39.6151293,7.05878257 41.15,7.06 C47.31,7.06 52.31,12.33 52.31,18.82 C52.306952,19.6912614 52.2097204,20.5596401 52.02,21.41 C56.1898108,22.4873596 59.076534,26.2839382 59,30.59 C59.1340232,35.6511966 55.1411286,39.8634319 50.08,40 L14,40 Z" id="Shape" fill="#B0D3F0"/><polygon id="Shape" fill="#24AE5F" points="34 19 34 28 26 28 26 19 22 19 30 10 38 19"/><path d="M34,58 L19,58 C18.4392855,57.9890146 17.9926022,57.5274433 18,56.96667 L18,28.03333 C17.9926022,27.4725567 18.4392855,27.0109854 19,27 L41,27 C41.5607145,27.0109854 42.0073978,27.4725567 42,28.03333 L42,49.73333" id="Shape" fill="#FDD7AD"/><path d="M42,50 L34,58 L34,50.88889 C34,50.3979696 34.3979696,50 34.88889,50 L42,50 Z" id="Shape" fill="#F09372"/><path d="M24,34 L22,34 C21.4477153,34 21,33.5522847 21,33 C21,32.4477153 21.4477153,32 22,32 L24,32 C24.5522847,32 25,32.4477153 25,33 C25,33.5522847 24.5522847,34 24,34 Z" id="Shape" fill="#F09372"/><path d="M38,34 L28,34 C27.4477153,34 27,33.5522847 27,33 C27,32.4477153 27.4477153,32 28,32 L38,32 C38.5522847,32 39,32.4477153 39,33 C39,33.5522847 38.5522847,34 38,34 Z" id="Shape" fill="#F09372"/><path d="M24,38 L22,38 C21.4477153,38 21,37.5522847 21,37 C21,36.4477153 21.4477153,36 22,36 L24,36 C24.5522847,36 25,36.4477153 25,37 C25,37.5522847 24.5522847,38 24,38 Z" id="Shape" fill="#F09372"/><path d="M38,38 L28,38 C27.4477153,38 27,37.5522847 27,37 C27,36.4477153 27.4477153,36 28,36 L38,36 C38.5522847,36 39,36.4477153 39,37 C39,37.5522847 38.5522847,38 38,38 Z" id="Shape" fill="#F09372"/><path d="M24,42 L22,42 C21.4477153,42 21,41.5522847 21,41 C21,40.4477153 21.4477153,40 22,40 L24,40 C24.5522847,40 25,40.4477153 25,41 C25,41.5522847 24.5522847,42 24,42 Z" id="Shape" fill="#F09372"/><path d="M38,42 L28,42 C27.4477153,42 27,41.5522847 27,41 C27,40.4477153 27.4477153,40 28,40 L38,40 C38.5522847,40 39,40.4477153 39,41 C39,41.5522847 38.5522847,42 38,42 Z" id="Shape" fill="#F09372"/></g></g></svg>
