<?xml version="1.0" encoding="iso-8859-1"?>
<!-- Generator: Adobe Illustrator 19.0.0, SVG Export Plug-In . SVG Version: 6.00 Build 0)  -->
<svg version="1.1" id="Capa_1" xmlns="http://www.w3.org/2000/svg" xmlns:xlink="http://www.w3.org/1999/xlink" x="0px" y="0px"
	 viewBox="0 0 511.999 511.999" style="enable-background:new 0 0 511.999 511.999;" xml:space="preserve">
<path style="fill:#DDDDDD;" d="M357.688,0H154.311c-23.393,0-42.425,19.032-42.425,42.425v427.148
	c0,23.394,19.032,42.425,42.425,42.425h203.377c23.393,0,42.425-19.032,42.425-42.425V42.425C400.113,19.032,381.082,0,357.688,0z"
	/>
<path style="fill:#C6C5CA;" d="M357.688,0h-32.068c23.393,0,42.425,19.032,42.425,42.425v427.148
	c0,23.394-19.032,42.425-42.425,42.425h32.068c23.393,0,42.425-19.032,42.425-42.425V42.425C400.113,19.032,381.082,0,357.688,0z"/>
<path style="fill:#4CE166;" d="M360.544,69.913H151.456c-4.143,0-7.502,3.358-7.502,7.502v335.713c0,4.144,3.359,7.502,7.502,7.502
	h209.086c4.143,0,7.502-3.358,7.502-7.502V77.416C368.046,73.271,364.687,69.913,360.544,69.913z"/>
<path style="fill:#44C868;" d="M360.544,69.913h-27.008v350.718h27.008c4.143,0,7.502-3.358,7.502-7.502V77.416
	C368.046,73.271,364.687,69.913,360.544,69.913z"/>
<path style="fill:#A8EEFC;" d="M360.544,69.913H216.836l151.21,246.056V77.416C368.046,73.271,364.687,69.913,360.544,69.913z"/>
<path style="fill:#7EE5F2;" d="M360.544,69.913h-27.008v189.9l34.51,56.156V77.416C368.046,73.271,364.687,69.913,360.544,69.913z"
	/>
<path style="fill:#FFDB56;" d="M216.836,69.913h-65.379c-1.435,0-2.771,0.41-3.911,1.108l109.591,179.162l-113.183,94.891v68.054
	c0,1.838,0.662,3.518,1.759,4.822L287.603,298.79l76.971,120.659c2.085-1.332,3.47-3.662,3.47-6.32V315.97L216.836,69.913z"/>
<path style="fill:#FFBB24;" d="M333.536,370.791l31.04,48.658c2.085-1.332,3.47-3.662,3.47-6.32V315.97l-34.51-56.156V370.791z"/>
<g>
	<path style="fill:#475D63;" d="M292.398,50.605h-37.535c-4.143,0-7.502-3.358-7.502-7.502s3.359-7.502,7.502-7.502h37.535
		c4.143,0,7.502,3.358,7.502,7.502C299.9,47.246,296.541,50.605,292.398,50.605z"/>
	<path style="fill:#475D63;" d="M233.062,50.605h-13.46c-4.143,0-7.502-3.358-7.502-7.502s3.359-7.502,7.502-7.502h13.46
		c4.143,0,7.502,3.358,7.502,7.502C240.564,47.246,237.205,50.605,233.062,50.605z"/>
</g>
<path style="fill:#FF4A4A;" d="M256,110.009c-40.576,0-73.588,33.011-73.588,73.587c0,58.586,66.179,110.471,68.996,112.652
	c1.351,1.046,2.972,1.568,4.591,1.568c1.619,0,3.24-0.522,4.591-1.568c0.701-0.542,17.356-13.512,34.204-33.634
	c23.087-27.573,34.792-54.16,34.792-79.018C329.588,143.019,296.576,110.009,256,110.009z M256,157.238
	c14.557,0,26.358,11.801,26.358,26.358c0,14.557-11.8,26.358-26.358,26.358c-14.557,0-26.358-11.8-26.358-26.358
	C229.642,169.04,241.443,157.238,256,157.238z"/>
<path style="fill:#E7343F;" d="M256,110.009c-4.5,0-8.9,0.428-13.179,1.205c34.306,6.232,60.409,36.306,60.409,72.381
	c0,24.858-11.706,51.445-34.792,79.018c-9.571,11.43-19.076,20.549-25.632,26.397c4.785,4.252,8.027,6.79,8.605,7.237
	c1.351,1.046,2.972,1.568,4.591,1.568c1.619,0,3.24-0.522,4.591-1.568c0.701-0.542,17.356-13.512,34.204-33.634
	c23.087-27.573,34.792-54.16,34.792-79.018C329.588,143.019,296.576,110.009,256,110.009z"/>
<circle style="fill:#FFFFFF;" cx="256.005" cy="183.594" r="26.358"/>
<circle style="fill:#475D63;" cx="256.005" cy="458.574" r="23.895"/>
<g>
</g>
<g>
</g>
<g>
</g>
<g>
</g>
<g>
</g>
<g>
</g>
<g>
</g>
<g>
</g>
<g>
</g>
<g>
</g>
<g>
</g>
<g>
</g>
<g>
</g>
<g>
</g>
<g>
</g>
</svg>
