<svg id="Capa_1" enable-background="new 0 0 389.76 389.76" height="512" viewBox="0 0 389.76 389.76" width="512" xmlns="http://www.w3.org/2000/svg"><g><path d="m226.451 58.951h-63.143c-10.325 0-18.725-8.4-18.725-18.727v-21.497c.001-10.327 8.401-18.727 18.726-18.727h63.143c10.325 0 18.725 8.4 18.725 18.727v21.496c0 10.327-8.401 18.728-18.726 18.728zm-63.142-41.926c-.939 0-1.7.763-1.7 1.702v21.496c0 .939.761 1.702 1.7 1.702h63.143c.939 0 1.7-.763 1.7-1.702v-21.496c0-.939-.761-1.702-1.7-1.702z" fill="#4d5c7d"/><path d="m210.529 34.742h-31.299c-1.888 0-3.419 1.531-3.419 3.419v41.437c0 1.888 1.531 3.419 3.419 3.419h31.299c1.888 0 3.419-1.531 3.419-3.419v-41.437c.001-1.888-1.53-3.419-3.419-3.419z" fill="#ebf0f3"/><ellipse cx="194.88" cy="230.056" fill="#4d5c7d" rx="159.659" ry="159.66" transform="matrix(.707 -.707 .707 .707 -105.596 205.183)"/><ellipse cx="194.88" cy="230.056" fill="#d5d6db" rx="130.87" ry="130.871" transform="matrix(.944 -.331 .331 .944 -65.165 77.475)"/><ellipse cx="194.88" cy="230.056" fill="#ebf0f3" rx="121.544" ry="121.544" transform="matrix(.944 -.331 .331 .944 -65.165 77.475)"/><g fill="#4d5c7d"><path d="m192.111 115.33h5.539v19.488h-5.539z"/><path d="m192.111 325.294h5.539v19.488h-5.539z"/><path d="m309.606 227.287v5.539h-19.488v-5.539z"/><path d="m99.642 227.287v5.539h-19.488v-5.539z"/><path d="m192.111 115.33h5.539v19.488h-5.539z"/><path d="m192.111 325.294h5.539v19.488h-5.539z"/><path d="m309.606 227.287v5.539h-19.488v-5.539z"/><path d="m99.642 227.287v5.539h-19.488v-5.539z"/><path d="m274.777 147.678 3.882 3.951-4.793 4.709-3.882-3.951z"/><path d="m115.894 303.775 3.882 3.951-4.793 4.709-3.882-3.951z"/><path d="m277.259 309.953-3.951 3.882-4.709-4.793 3.951-3.882z"/><path d="m121.162 151.071-3.951 3.882-4.709-4.793 3.951-3.882z"/><path d="m300.27 184.639 2.069 5.138-6.233 2.51-2.069-5.138z"/><path d="m93.655 267.826 2.069 5.138-6.233 2.51-2.069-5.138z"/><path d="m240.297 335.446-5.138 2.069-2.51-6.233 5.138-2.069z"/><path d="m157.111 128.831-5.138 2.069-2.51-6.233 5.138-2.069z"/><path d="m236.225 123.003 5.117 2.12-2.571 6.208-5.117-2.12z"/><path d="m150.989 328.782 5.117 2.12-2.571 6.208-5.117-2.12z"/><path d="m301.933 271.401-2.12 5.117-6.208-2.571 2.12-5.117z"/><path d="m96.155 186.165-2.12 5.117-6.208-2.571 2.12-5.117z"/><path d="m195.709 153.172c-.122-.975-1.535-.975-1.658 0l-12.391 98.809c-.324 2.583 1.69 4.865 4.292 4.865h17.856c2.603 0 4.616-2.282 4.293-4.865z"/></g><circle cx="194.88" cy="230.056" fill="#e56353" r="18.212"/><circle cx="194.88" cy="230.056" fill="#ebf0f3" r="9.067"/></g></svg>