<svg height="512pt" viewBox="0 -44 512 512" width="512pt" xmlns="http://www.w3.org/2000/svg"><path d="m0 0h512v424.480469h-512zm0 0" fill="#e0e4fa"/><path d="m256 0h256v424.480469h-256zm0 0" fill="#c4c9f7"/><path d="m0 0h512v97.21875h-512zm0 0" fill="#ff623f"/><path d="m36 30.058594h29.625v29.625h-29.625zm0 0" fill="#fff"/><path d="m79 30.058594h29.625v29.625h-29.625zm0 0" fill="#fff"/><path d="m122 30.058594h29.625v29.625h-29.625zm0 0" fill="#fff"/><g fill="#0087ff"><path d="m82.667969 168.144531h150.664062v30h-150.664062zm0 0"/><path d="m82.667969 226.140625h150.664062v30h-150.664062zm0 0"/><path d="m82.667969 284.136719h150.664062v30h-150.664062zm0 0"/><path d="m82.667969 342.136719h150.664062v30h-150.664062zm0 0"/></g><path d="m278.667969 168.144531h150.664062v30h-150.664062zm0 0" fill="#4b5be4"/><path d="m278.667969 226.140625h150.664062v30h-150.664062zm0 0" fill="#4b5be4"/><path d="m278.667969 284.136719h150.664062v30h-150.664062zm0 0" fill="#4b5be4"/><path d="m278.667969 342.136719h150.664062v30h-150.664062zm0 0" fill="#4b5be4"/><path d="m256 0h256v97.21875h-256zm0 0" fill="#e70020"/></svg>