<svg height="512pt" viewBox="0 0 512 512" width="512pt" xmlns="http://www.w3.org/2000/svg"><path d="m512 256c0 39.601562-30.902344 72.300781-69.902344 74.699219-17.398437 36.601562-55.296875 60.300781-96.097656 60.300781-6.597656 0-13.199219-.601562-19.5-1.800781h-141c-6.300781 1.199219-12.902344 1.800781-19.5 1.800781-40.800781 0-77.699219-23.699219-95.097656-60.300781-39-2.398438-70.902344-35.097657-70.902344-74.699219 0-25.5 12.898438-48.898438 33.601562-62.699219-2.402343-8.699219-3.601562-18-3.601562-27.300781 0-57.898438 48.101562-106 106-106 2.699219 0 5.398438 0 8.101562.300781 24.898438-37.5 66.898438-60.300781 111.898438-60.300781s87 22.800781 111.898438 60.300781c2.703124-.300781 5.402343-.300781 8.101562-.300781 57.898438 0 106 48.101562 106 106 0 9.300781-1.199219 18.601562-3.601562 27.300781 20.703124 13.800781 33.601562 37.199219 33.601562 62.699219zm0 0" fill="#70da40"/><path d="m512 256c0 39.601562-30.902344 72.300781-69.902344 74.699219-17.398437 36.601562-55.296875 60.300781-96.097656 60.300781-6.597656 0-13.199219-.601562-19.5-1.800781h-70.5v-389.199219c45 0 87 22.800781 111.898438 60.300781 2.703124-.300781 5.402343-.300781 8.101562-.300781 57.898438 0 106 48.101562 106 106 0 9.300781-1.199219 18.601562-3.601562 27.300781 20.703124 13.800781 33.601562 37.199219 33.601562 62.699219zm0 0" fill="#56c225"/><path d="m377.234375 302.589844c-1.164063-1.445313-2.269531-2.933594-3.316406-4.457032-3.136719-4.574218-5.722657-9.492187-7.761719-14.660156-1.699219-4.300781-3.019531-8.78125-3.957031-13.375-1.875-.296875-3.730469-.636718-5.574219-1.015625-.921875-.191406-1.839844-.390625-2.753906-.601562-4.570313-1.058594-9.070313-2.394531-13.570313-4.082031l-54.300781 81.601562v-78.601562c-7.425781 1.800781-14.851562 2.757812-22.402344 3.121093-2.515625.125-5.046875.179688-7.597656.179688-10.199219 0-20.097656-.902344-30-3.300781v78.601562l-54.300781-81.300781c-7.199219 2.398437-14.398438 4.199219-21.898438 5.398437-3 15-10.199219 28.5-20.699219 38.703125l66.898438 100.5v87.699219c0 8.398438 6.597656 15 15 15h90c8.402344 0 15-6.601562 15-15v-87.699219l66.898438-100.5c-.675782-.65625-1.335938-1.324219-1.976563-2.003906-1.289063-1.359375-2.519531-2.761719-3.6875-4.207031zm0 0" fill="#b9dd39"/><path d="m301 512c8.402344 0 15-6.601562 15-15v-87.699219l66.898438-100.5c-.675782-.65625-1.335938-1.324219-1.976563-2.003906-1.289063-1.359375-2.519531-2.761719-3.6875-4.207031-1.164063-1.445313-2.269531-2.933594-3.316406-4.457032-3.136719-4.574218-5.722657-9.492187-7.761719-14.660156-1.699219-4.300781-3.019531-8.78125-3.957031-13.375-1.875-.296875-3.730469-.636718-5.574219-1.015625-.921875-.191406-1.839844-.390625-2.753906-.601562-4.570313-1.058594-9.070313-2.394531-13.570313-4.082031l-54.300781 81.601562v-78.601562c-7.425781 1.800781-14.851562 2.757812-22.402344 3.121093-2.515625.125-5.046875.179688-7.597656.179688v241.300781zm0 0" fill="#a8d32a"/></svg>