<svg id="Layer_1" enable-background="new 0 0 510 510" height="512" viewBox="0 0 510 510" width="512" xmlns="http://www.w3.org/2000/svg"><g><path d="m420 345h-30v-75l15-10 15 10z" fill="#a733c1"/><path d="m255 270-15-10-15 10v180l15.5 10 14.5-10 10-105z" fill="#e6f2ff"/><path d="m285 450v-180l-15-10-15 10v180l15 10z" fill="#cdf"/><path d="m165 450v60h90l10-30-10-30c-11.008 0-80.336 0-90 0z" fill="#cdf"/><path d="m343 450c-8.52 0-78.836 0-88 0v60h88z" fill="#9bf"/><path d="m401.712 0h-146.712v89.999l78.999 30.001 90.213-30.001z" fill="#fdbf00"/><path d="m108.288 0-22.5 90 80.545 25.333 88.667-25.334v-89.999z" fill="#ffda2d"/><path d="m85.788 90-45 180h214.212l10-96-10-84z" fill="#fdbf00"/><path d="m424.212 90h-169.212v180h214.212z" fill="#ff9100"/></g></svg>