<svg id="Capa_1" enable-background="new 0 0 479 479" height="512" viewBox="0 0 479 479" width="512" xmlns="http://www.w3.org/2000/svg"><g><path d="m4.397 221.587c-.557-9.999 10.382-16.265 18.826-10.882 55.258 35.227 239.674 3.243 332.021-177.051 4.039-7.886 15.272-7.964 19.487-.171 23.09 42.69 45.671 163.753-78.395 253.264-179.281 129.347-288.083 4.045-291.939-65.16z" fill="#ffca28"/><path d="m5.724 311.19c-.499-2.353-1.424-4.609-.857-6.664 2.145-7.769 10.966-12.652 19.293-8.991 68.905 30.296 272.634-38.356 345.838-259.213 3.202-9.66 15.939-11.719 22.091-3.611 33.698 44.41 80.564 177.873-44.569 301.241-115.413 113.784-216.429 104.774-278.703 63.117-.339-.227-.677-1.48-1.014-1.709-8.507-5.778-15.191-11.138-22.071-17.898-21.198-20.829-35.541-45.207-40.008-66.272z" fill="#ffd54f"/><path d="m347.519 333.952c125.133-123.368 78.267-256.831 44.569-301.241-2.662-3.508-6.557-5.109-10.379-5.018-4.505 10.201-5.674 23.007-3.945 38.841 13.414 122.817-152.256 276.797-243.51 297.183-96.991 21.668-129.38-59.189-129.38-59.189-.568 2.055-.675 4.308-.175 6.662 16.515 77.881 161.998 201.034 342.82 22.762z" fill="#ffca28"/><path d="m60.658 421.755c-6.795-7.402-4.653-19.565 4.569-23.555 2.794-1.209 6.034-1.599 9.431-.835 73.482 16.528 291.97-103.496 311.024-299.484l61.112 14.398c3.361.792 6.718.544 9.756-.51 0 0 73.696 226.135-115.244 327.192-168.532 90.14-262.346 2.73-280.648-17.206z" fill="#ffd54f"/><path d="m456.55 111.769c-3.038 1.053-6.395 1.301-9.756.51l-7.286-1.717c12.845 58.705 32.919 223.646-120.759 305.842-135.346 72.391-222.501 30.27-261.057.549.659 1.718 1.636 3.352 2.966 4.802 18.301 19.936 112.116 107.346 280.647 17.205 188.94-101.056 115.245-327.191 115.245-327.191z" fill="#ffca28"/><path d="m472.345 77.05-5.464 22.166c-2.223 9.437-10.651 14.26-20.088 12.036l-15.672-2.667-68.374-16.109c-25.339-5.97-41.04-31.35-35.071-56.689l4.861-20.632c2.49-10.569 13.077-17.118 23.645-14.628l82.508 19.438c25.057 5.905 39.559 32.028 33.655 57.085z" fill="#b67f5f"/><path d="m438.691 19.967s23.314 7.722 14.044 51.93l-5.464 23.192c-1.83 7.769-8.562 13.093-16.149 13.497l15.672 3.692c9.437 2.223 18.89-3.625 21.113-13.062l5.464-23.192c5.903-25.056-9.624-50.154-34.68-56.057z" fill="#a06e50"/></g></svg>