<?xml version="1.0" encoding="iso-8859-1"?>
<!-- Generator: Adobe Illustrator 19.0.0, SVG Export Plug-In . SVG Version: 6.00 Build 0)  -->
<svg version="1.1" id="Capa_1" xmlns="http://www.w3.org/2000/svg" xmlns:xlink="http://www.w3.org/1999/xlink" x="0px" y="0px"
	 viewBox="0 0 274 274" style="enable-background:new 0 0 274 274;" xml:space="preserve">
<path style="fill:#C9C9C9;" d="M99.2,175.6c9.6,9.6,23.2,16,38.4,16c14.8,0,28.4-6,38.4-16c9.6-9.6,16-23.2,16-38.4
	c0-14.8-6-28.4-16-38.4c-9.6-9.6-23.2-16-38.4-16c-14.8,0-28.4,6-38.4,16c-9.6,9.6-16,23.2-16,38.4C83.6,152,89.6,165.6,99.2,175.6z
	 M20.8,211.6L42,190.4c-2-3.6-3.6-7.2-5.2-11.2c-1.6-4-2.8-7.6-4-11.6H2.4c-1.2,0-2-0.8-2-2v-56.4c0-1.2,0.8-2,2-2h30.4
	c1.2-4,2.4-8,4-11.6c1.6-4,3.2-7.6,5.2-11.2L20.4,62.8c-0.8-0.8-0.8-2,0-2.8L60,20.4c0.8-0.8,2-0.8,2.8,0L84,41.6
	c3.6-2,7.2-3.6,11.2-5.2c4-1.6,7.6-2.8,11.6-4V2c0-1.2,0.8-2,2-2h56c1.2,0,2,0.8,2,2v30.4c4,1.2,8,2.4,11.6,4
	c4,1.6,7.6,3.2,11.2,5.2L211.2,20c0.8-0.8,2-0.8,2.8,0l39.6,39.6c0.8,0.8,0.8,2,0,2.8L232,84c2,3.6,3.6,7.2,5.2,11.2s2.8,7.6,4,11.6
	h30.4c1.2,0,2,0.8,2,2v56c0,1.2-0.8,2-2,2h-30.4c-1.2,4-2.4,8-4,11.6c-1.6,4-3.2,7.6-5.2,11.2l21.6,21.6c0.8,0.8,0.8,2,0,2.8
	L214,253.6c-0.8,0.8-2,0.8-2.8,0L190,232.4c-3.6,2-7.2,3.6-11.2,5.2s-7.6,2.8-11.6,4V272c0,1.2-0.8,2-2,2h-55.6c-1.2,0-2-0.8-2-2
	v-30.4c-4-1.2-8-2.4-11.6-4c-4-1.6-7.6-3.2-11.2-5.2L63.2,254c-0.8,0.8-2,0.8-2.8,0l-39.6-39.6C20,213.6,20,212.4,20.8,211.6z"/>
<g>
</g>
<g>
</g>
<g>
</g>
<g>
</g>
<g>
</g>
<g>
</g>
<g>
</g>
<g>
</g>
<g>
</g>
<g>
</g>
<g>
</g>
<g>
</g>
<g>
</g>
<g>
</g>
<g>
</g>
</svg>
