<?xml version="1.0" encoding="iso-8859-1"?>
<!-- Generator: Adobe Illustrator 19.0.0, SVG Export Plug-In . SVG Version: 6.00 Build 0)  -->
<svg version="1.1" id="Capa_1" xmlns="http://www.w3.org/2000/svg" xmlns:xlink="http://www.w3.org/1999/xlink" x="0px" y="0px"
	 viewBox="0 0 512.001 512.001" style="enable-background:new 0 0 512.001 512.001;" xml:space="preserve">
<g>
	<path style="fill:#0CA656;" d="M196,330c-8.291,0-15-6.709-15-15v-65.142c0-22.002-3.779-43.638-11.221-64.307
		c-2.813-7.793,1.26-16.392,9.053-19.204c7.705-2.769,16.377,1.245,19.189,9.038c8.613,23.95,12.979,48.999,12.979,74.473V315
		C211,323.291,204.291,330,196,330z"/>
	<path style="fill:#0CA656;" d="M316,330c-8.291,0-15-6.709-15-15v-35.142c0-25.474,4.365-50.522,12.979-74.473
		c2.813-7.808,11.514-11.807,19.189-9.038c7.793,2.813,11.865,11.411,9.053,19.204C334.78,236.22,331,257.856,331,279.858V315
		C331,323.291,324.291,330,316,330z"/>
</g>
<g>
	<path style="fill:#10BB67;" d="M332.875,330H316c-8.291,0-15-6.709-15-15v-15c0-33.091,26.924-60,60-60h15c8.291,0,15,6.709,15,15
		v16.875C391,303.926,364.926,330,332.875,330z"/>
	<path style="fill:#10BB67;" d="M212.875,330H196c-8.291,0-15-6.709-15-15v-15c0-33.091,26.924-60,60-60h15c8.291,0,15,6.709,15,15
		v16.875C271,303.926,244.926,330,212.875,330z"/>
</g>
<path style="fill:#32D736;" d="M196,330h-16.875C147.074,330,121,303.926,121,271.875V255c0-8.291,6.709-15,15-15h15
	c33.076,0,60,26.909,60,60v15C211,323.291,204.291,330,196,330z"/>
<path style="fill:#994C0F;" d="M402.7,367.7c-2.699-3.3-6.903-5.7-11.7-5.7H151c-4.797,0-9.001,2.401-11.7,5.7
	c-2.699,3.6-3.9,8.101-2.999,12.9l30,120c0.901,3.3,2.999,6.301,5.398,8.101c2.703,2.1,6.002,3.3,9.302,3.3h180
	c3.3,0,6.599-1.199,9.302-3.3c2.399-1.8,4.497-4.801,5.398-8.101l30-120C406.6,375.801,405.399,371.3,402.7,367.7z"/>
<path style="fill:#BF6015;" d="M421,300H121c-8.401,0-15,6.599-15,15v32c0,24.901,20.098,45,45,45h240
	c24.902,0,45.811-20.099,45.811-45v-32C436.811,306.599,429.401,300,421,300z"/>
<path style="fill:#713708;" d="M405.7,380.6l-30,120c-0.901,3.3-2.999,6.301-5.398,8.101c-2.703,2.1-6.002,3.3-9.302,3.3h-86.7V362
	H391c4.797,0,9.001,2.401,11.7,5.7C405.399,371.3,406.6,375.801,405.7,380.6z"/>
<path style="fill:#994C10;" d="M436.811,315v32c0,24.901-20.909,45-45.811,45H274.3v-92H421
	C429.401,300,436.811,306.599,436.811,315z"/>
<path style="fill:#FEDB41;" d="M96.244,196.875c-7.939,0-15.498-2.227-21.973-6.914c-17.256-12.554-20.273-38.027-8.848-62.021
	c-23.32-12.715-35.859-35.083-29.297-55.371c6.621-20.273,29.971-30.981,56.25-27.612C97.269,18.823,114.672,0,136,0
	s38.73,18.823,43.623,44.956c26.426-3.354,49.658,7.31,56.25,27.583c0,0,0,0.015,0,0.029c6.563,20.273-5.947,42.642-29.297,55.356
	c11.426,23.994,8.408,49.468-8.848,62.021c-17.256,12.524-42.422,7.573-61.729-10.723C123.9,190.649,109.545,196.875,96.244,196.875
	z"/>
<circle style="fill:#FD4E26;" cx="136.001" cy="105" r="15"/>
<path style="fill:#FCBF29;" d="M336.244,226.875c-7.939,0-15.498-2.227-21.973-6.914c-17.256-12.554-20.273-38.027-8.848-62.021
	c-23.32-12.715-35.859-35.083-29.297-55.371c6.621-20.288,29.971-30.952,56.25-27.612C337.269,48.823,354.672,30,376,30
	s38.73,18.823,43.623,44.956c26.426-3.325,49.658,7.324,56.25,27.583c0,0,0,0.015,0,0.029c6.563,20.273-5.947,42.642-29.297,55.356
	c11.426,23.994,8.408,49.468-8.848,62.021c-17.256,12.51-42.422,7.559-61.729-10.723C363.9,220.649,349.545,226.875,336.244,226.875
	z"/>
<circle style="fill:#FD3018;" cx="376.001" cy="135" r="15"/>
<g>
</g>
<g>
</g>
<g>
</g>
<g>
</g>
<g>
</g>
<g>
</g>
<g>
</g>
<g>
</g>
<g>
</g>
<g>
</g>
<g>
</g>
<g>
</g>
<g>
</g>
<g>
</g>
<g>
</g>
</svg>
