<svg height="512pt" viewBox="0 -56 512 512" width="512pt" xmlns="http://www.w3.org/2000/svg"><path d="m313.085938 313.03125c-63.507813 0-115.175782-51.667969-115.175782-115.175781 0-63.507813 51.667969-115.175781 115.175782-115.175781 63.507812 0 115.175781 51.667968 115.175781 115.175781 0 63.507812-51.667969 115.175781-115.175781 115.175781zm0 0" fill="#ffdd84"/><path d="m313.085938 82.679688v230.351562c63.507812 0 115.175781-51.667969 115.175781-115.175781 0-63.507813-51.667969-115.175781-115.175781-115.175781zm0 0" fill="#ffaf48"/><path d="m205.082031 104.832031c-3.851562 0-7.699219-1.464843-10.636719-4.402343l-15.921874-15.921876c-5.875-5.875-5.875-15.398437 0-21.269531 5.871093-5.875 15.394531-5.875 21.269531-.003906l15.921875 15.921875c5.875 5.875 5.875 15.398438 0 21.269531-2.9375 2.941407-6.785156 4.40625-10.632813 4.40625zm0 0" fill="#ffaf48"/><path d="m430.003906 104.832031c-3.847656 0-7.699218-1.464843-10.632812-4.402343-5.875-5.875-5.875-15.398438 0-21.273438l15.917968-15.917969c5.875-5.875 15.402344-5.875 21.273438 0 5.875 5.875 5.875 15.394531 0 21.269531l-15.921875 15.921876c-2.9375 2.933593-6.785156 4.402343-10.636719 4.402343zm0 0" fill="#ff7136"/><path d="m495.902344 212.898438h-22.519532c-8.304687 0-15.039062-6.734376-15.039062-15.042969 0-8.304688 6.734375-15.039063 15.039062-15.039063h22.519532c8.304687 0 15.039062 6.734375 15.039062 15.039063 0 8.308593-6.734375 15.042969-15.039062 15.042969zm0 0" fill="#ff7136"/><path d="m313.085938 52.597656c-8.308594 0-15.042969-6.734375-15.042969-15.042968v-22.515626c0-8.304687 6.734375-15.039062 15.042969-15.039062 8.304687 0 15.039062 6.734375 15.039062 15.039062v22.519532c0 8.304687-6.734375 15.039062-15.039062 15.039062zm0 0" fill="#ffaf48"/><path d="m313.085938 0v52.597656c8.304687 0 15.039062-6.734375 15.039062-15.039062v-22.519532c0-8.304687-6.734375-15.039062-15.039062-15.039062zm0 0" fill="#ff7136"/><path d="m461.140625 400.8125h-410.28125c-28.042969 0-50.859375-22.558594-50.859375-50.285156 0-19.636719 11.515625-36.734375 28.222656-44.996094-6.539062-14.890625-9.933594-30.992188-9.933594-47.453125 0-65.957031 54.425782-119.613281 121.324219-119.613281 39.5625 0 75.992188 18.75 98.597657 49.875 15.3125-8.992188 32.898437-13.824219 50.917968-13.824219 37.8125 0 71.855469 21.195313 88.636719 53.421875 10.144531-5.042969 21.40625-7.714844 33.007813-7.714844 40.542968 0 73.523437 32.558594 73.523437 72.582032 0 4.183593-.351563 8.3125-1.0625 12.375 17.1875 8.117187 28.765625 25.394531 28.765625 45.347656 0 27.726562-22.816406 50.285156-50.859375 50.285156zm0 0" fill="#c9f2fa"/><path d="m483.234375 305.179688c.707031-4.0625 1.0625-8.191407 1.0625-12.375 0-40.023438-32.980469-72.582032-73.523437-72.582032-11.601563 0-22.863282 2.671875-33.007813 7.714844-13.136719-25.230469-36.855469-43.695312-64.679687-50.527344v223.402344h148.054687c28.042969 0 50.859375-22.558594 50.859375-50.285156 0-19.953125-11.578125-37.230469-28.765625-45.347656zm0 0" fill="#76e3fb"/></svg>