<?xml version="1.0" encoding="iso-8859-1"?>
<!-- Generator: Adobe Illustrator 19.0.0, SVG Export Plug-In . SVG Version: 6.00 Build 0)  -->
<svg version="1.1" id="Capa_1" xmlns="http://www.w3.org/2000/svg" xmlns:xlink="http://www.w3.org/1999/xlink" x="0px" y="0px"
	 viewBox="0 0 511.995 511.995" style="enable-background:new 0 0 511.995 511.995;" xml:space="preserve">
<path style="fill:#64B5F6;" d="M432,15.998H80c-8.832,0-16,7.168-16,16v320c0,8.832,7.168,16,16,16h352c8.832,0,16-7.168,16-16v-320
	C448,23.166,440.832,15.998,432,15.998z"/>
<g>
	<polygon style="fill:#2196F3;" points="320,15.998 320,143.998 256,101.342 192,143.998 192,15.998 	"/>
	<path style="fill:#2196F3;" d="M80,239.998H16c-8.832,0-16,7.168-16,16v224c0,8.832,7.168,16,16,16h64c8.832,0,16-7.168,16-16v-224
		C96,247.166,88.832,239.998,80,239.998z"/>
</g>
<path style="fill:#FFD54F;" d="M501.888,274.526c-16.256-20.96-46.464-24.704-67.328-8.416l-118.016,91.776
	c-8.448,6.56-18.816,10.112-29.472,10.112H176c44.192,0,80-35.808,80-80c0-8.832-7.168-16-16-16H96v96v96h212.992
	c17.792,0,35.072-5.92,49.12-16.864l135.36-105.28C514.4,325.598,518.144,295.454,501.888,274.526z"/>
<g>
</g>
<g>
</g>
<g>
</g>
<g>
</g>
<g>
</g>
<g>
</g>
<g>
</g>
<g>
</g>
<g>
</g>
<g>
</g>
<g>
</g>
<g>
</g>
<g>
</g>
<g>
</g>
<g>
</g>
</svg>
