<svg enable-background="new 0 0 24 24" height="512" viewBox="0 0 24 24" width="512" xmlns="http://www.w3.org/2000/svg"><path d="m17.5 9c1.654 0 3.193.482 4.5 1.302v-7.702l-10.16 5.03c-.52.26-1.16.26-1.68 0l-10.16-5.03v9.15c0 1.24 1.01 2.25 2.25 2.25h7.513c1.337-2.944 4.298-5 7.737-5z" fill="#eceff1"/><path d="m22 2.25v.6l-10.16 5.03c-.52.26-1.16.26-1.68 0l-10.16-5.03v-.6c0-1.24 1.01-2.25 2.25-2.25h17.5c1.24 0 2.25 1.01 2.25 2.25z" fill="#b0bec5"/><circle cx="17.5" cy="17.5" fill="#4caf50" r="6.5"/><path d="m20.582 16.223-3.25 4c-.134.165-.332.265-.543.276-.013 0-.026.001-.039.001-.198 0-.389-.079-.53-.22l-2-2c-.293-.293-.293-.768 0-1.061s.768-.293 1.061 0l1.412 1.412 2.726-3.355c.26-.321.733-.371 1.055-.109.32.262.369.734.108 1.056z" fill="#fafafa"/></svg>