<svg height="512pt" viewBox="0 -51 512.001 512" width="512pt" xmlns="http://www.w3.org/2000/svg"><path d="m333.859375 409.152344h-151.597656c-14.3125 0-23.535157-15.15625-16.960938-27.867188l42.890625-82.910156h99.738282l42.890624 82.910156c6.574219 12.707032-2.648437 27.867188-16.960937 27.867188zm0 0" fill="#666"/><path d="m350.820312 381.285156-42.890624-82.910156h-99.738282l-7.707031 14.902344-16.726563 32.328125h78.621094c20.691406 0 39.660156 11.542969 49.167969 29.925781l17.394531 33.621094h4.917969c14.3125 0 23.535156-15.160156 16.960937-27.867188zm0 0" fill="#4d4d4d"/><path d="m481.003906 326.445312h-450.007812c-17.117188 0-30.996094-13.878906-30.996094-30.996093v-264.453125c0-17.117188 13.878906-30.996094 30.996094-30.996094h450.007812c17.117188 0 30.996094 13.878906 30.996094 30.996094v264.453125c0 17.117187-13.878906 30.996093-30.996094 30.996093zm0 0" fill="#e1e3fa"/><path d="m488.957031 1.035156c.441407 6.09375-.003906 34.082032.160157 269.09375 0 17.847656-14.46875 32.316406-32.316407 32.316406-389.347656-.160156-445.792969.25-456.027343-.117187 3.132812 13.804687 15.46875 24.117187 30.222656 24.117187h450.007812c17.117188 0 30.996094-13.878906 30.996094-30.996093v-264.453125c0-14.367188-9.777344-26.449219-23.042969-29.960938zm0 0" fill="#b1b2c4"/><path d="m0 240.269531v54.242188c0 17.636719 14.296875 31.933593 31.933594 31.933593h448.132812c17.636719 0 31.933594-14.296874 31.933594-31.933593v-54.242188zm0 0" fill="#666"/><path d="m489.453125 268.664062c0 17.875-14.488281 32.363282-32.363281 32.363282-387.023438-.160156-445.582032.246094-456.445313-.109375 2.964844 14.566406 15.84375 25.527343 31.289063 25.527343h448.132812c17.636719 0 31.933594-14.296874 31.933594-31.933593v-54.242188h-22.546875zm0 0" fill="#4d4d4d"/><g fill="#17ace8"><path d="m275.160156 283.355469c0 10.582031-8.578125 19.160156-19.160156 19.160156s-19.160156-8.578125-19.160156-19.160156 8.578125-19.160157 19.160156-19.160157 19.160156 8.578126 19.160156 19.160157zm0 0"/><path d="m114.734375 186.570312c-4.007813 0-7.972656-1.792968-10.613281-5.210937-4.519532-5.855469-3.433594-14.269531 2.421875-18.789063l69.652343-53.757812c4.976563-3.84375 11.953126-3.707031 16.777344.328125l56.929688 47.601563 103.421875-63.042969c6.320312-3.851563 14.5625-1.851563 18.410156 4.464843 3.851563 6.316407 1.851563 14.558594-4.464844 18.410157l-111.621093 68.039062c-4.902344 2.988281-11.164063 2.519531-15.566407-1.164062l-56.035156-46.855469-61.136719 47.183594c-2.4375 1.882812-5.316406 2.792968-8.175781 2.792968zm0 0"/><path d="m397.203125 65.664062-59.445313-4.851562c-11.707031-.953125-19.363281 12-12.882812 21.796875l40.667969 61.460937c6.480469 9.792969 21.402343 7.808594 25.097656-3.339843l18.777344-56.609375c2.871093-8.65625-3.125-17.714844-12.214844-18.457032zm0 0"/></g><path d="m399.113281 65.820312-10.195312-.832031c1.371093 6.101563-.351563 4.722657-20.683594 68.054688-1.023437 3.097656-3.019531 5.398437-5.457031 6.84375l4.480468 6.765625c5.785157 8.746094 19.109376 6.976562 22.410157-2.976563l20.355469-61.371093c2.5625-7.734376-2.792969-15.824219-10.910157-16.484376zm0 0" fill="#1391c4"/></svg>