<?xml version="1.0" encoding="iso-8859-1"?>
<!-- Generator: Adobe Illustrator 19.0.0, SVG Export Plug-In . SVG Version: 6.00 Build 0)  -->
<svg version="1.1" id="Capa_1" xmlns="http://www.w3.org/2000/svg" xmlns:xlink="http://www.w3.org/1999/xlink" x="0px" y="0px"
	 viewBox="0 0 468.293 468.293" style="enable-background:new 0 0 468.293 468.293;" xml:space="preserve">
<path style="fill:#E1E6E9;" d="M355.658,12.488v401.079H70.378c-6.897,0-12.488-5.591-12.488-12.488V74.662L132.553,0H343.17
	C350.067,0,355.658,5.591,355.658,12.488z"/>
<polygon style="fill:#EBF0F3;" points="132.553,0 132.553,74.662 57.89,74.662 "/>
<g>
	<rect x="168.532" y="56.002" style="fill:#D5D6DB;" width="156.847" height="18.432"/>
	<rect x="143.051" y="112.628" style="fill:#D5D6DB;" width="182.384" height="18.432"/>
	<rect x="143.051" y="169.253" style="fill:#D5D6DB;" width="182.384" height="18.432"/>
	<rect x="143.051" y="225.879" style="fill:#D5D6DB;" width="182.384" height="18.432"/>
	<rect x="143.051" y="282.512" style="fill:#D5D6DB;" width="182.384" height="18.432"/>
	<rect x="143.051" y="339.138" style="fill:#D5D6DB;" width="182.384" height="18.432"/>
</g>
<g>
	<rect x="88.142" y="112.628" style="fill:#64798A;" width="24.969" height="18.432"/>
	<rect x="88.142" y="169.253" style="fill:#64798A;" width="24.969" height="18.432"/>
	<rect x="88.142" y="225.879" style="fill:#64798A;" width="24.969" height="18.432"/>
	<rect x="88.142" y="282.512" style="fill:#64798A;" width="24.969" height="18.432"/>
	<rect x="88.142" y="339.138" style="fill:#64798A;" width="24.969" height="18.432"/>
</g>
<circle style="fill:#44C4A1;" cx="311.562" cy="369.452" r="98.841"/>
<path style="fill:#EBF0F3;" d="M290.76,424.313c-2.915,0-5.772-1.182-7.828-3.246l-30.58-30.575
	c-2.091-2.091-3.246-4.872-3.246-7.828c0-2.959,1.156-5.74,3.246-7.831c2.091-2.093,4.872-3.246,7.828-3.246
	s5.737,1.153,7.828,3.246l19.901,19.892c18.229-32.865,41.939-59.848,68.745-78.196c1.852-1.269,4.013-1.937,6.248-1.937
	c3.658,0,7.079,1.8,9.146,4.82c1.667,2.442,2.288,5.386,1.742,8.293c-0.54,2.909-2.183,5.43-4.628,7.099
	c-27.398,18.751-51.068,47.552-68.449,83.28c-1.556,3.211-4.593,5.482-8.118,6.074C291.985,424.26,291.369,424.313,290.76,424.313z"
	/>
<g>
</g>
<g>
</g>
<g>
</g>
<g>
</g>
<g>
</g>
<g>
</g>
<g>
</g>
<g>
</g>
<g>
</g>
<g>
</g>
<g>
</g>
<g>
</g>
<g>
</g>
<g>
</g>
<g>
</g>
</svg>
