<?xml version="1.0" encoding="iso-8859-1"?>
<!-- Generator: Adobe Illustrator 19.0.0, SVG Export Plug-In . SVG Version: 6.00 Build 0)  -->
<svg version="1.1" id="Capa_1" xmlns="http://www.w3.org/2000/svg" xmlns:xlink="http://www.w3.org/1999/xlink" x="0px" y="0px"
	 viewBox="0 0 512.001 512.001" style="enable-background:new 0 0 512.001 512.001;" xml:space="preserve">
<path style="fill:#E1E5FA;" d="M480.806,155.157c-16.819-17.698-38.499-29.295-62.139-33.459V105.35
	C418.667,47.26,371.524,0,313.577,0h-8.704c-52.851,0-96.715,39.316-104.022,90.302h-25.554c-55.237,0-100.984,41.519-107.82,95.059
	C29.227,191.849,0,225.298,0,265.46c0,44.794,36.352,81.236,81.036,81.236h318.258C461.44,346.696,512,296.011,512,233.768
	C512.112,204.361,501.034,176.443,480.806,155.157z"/>
<path style="fill:#C5CAF6;" d="M480.806,155.157c-16.819-17.698-38.499-29.295-62.139-33.459V105.35
	C418.667,47.26,371.524,0,313.577,0h-8.704c-27.866,0-53.23,10.933-72.058,28.74v317.956h166.478
	c62.146,0,112.706-50.685,112.706-112.928C512.112,204.361,501.034,176.443,480.806,155.157z"/>
<polygon style="fill:#0D53C4;" points="316.035,266.433 316.035,172.043 149.596,172.043 149.596,266.433 96.881,266.433 
	232.816,512 368.749,266.433 "/>
<polygon style="fill:#084795;" points="368.749,266.433 316.035,266.433 316.035,172.043 232.815,172.043 232.815,511.999 
	232.816,512 "/>
<g>
</g>
<g>
</g>
<g>
</g>
<g>
</g>
<g>
</g>
<g>
</g>
<g>
</g>
<g>
</g>
<g>
</g>
<g>
</g>
<g>
</g>
<g>
</g>
<g>
</g>
<g>
</g>
<g>
</g>
</svg>
