<svg id="Layer_1" height="512" viewBox="0 0 512 512" width="512" xmlns="http://www.w3.org/2000/svg" data-name="Layer 1"><path d="m441.65 273.15c-26.06 65.82-87.9 131.62-195.06 175.14a14.04 14.04 0 0 1 -10.8 0c-167.28-66.53-224.48-189.86-206.68-282.89 11.88-62.75 55.59-102.77 112.25-102.77 31.84 0 65.83 12.98 99.83 38.4 33.46-24.34 67.99-37.32 99.29-37.32 56.66 0 100.37 40.03 112.78 101.69 6.44 33.23 3.15 70.5-11.61 107.75z" fill="#e87187"/><path d="m59.11 165.4c10.817-57.135 48.025-95.421 97.367-101.816a121.964 121.964 0 0 0 -15.117-.954c-56.66 0-100.37 40.02-112.25 102.77-17.8 93.03 39.4 216.36 206.68 282.89a14.04 14.04 0 0 0 10.8 0q4.823-1.959 9.521-3.978c-159.796-67.375-214.453-187.703-197.001-278.912z" fill="#af5166"/><path d="m362.08 318.907c-.142 0-.285 0-.427-.015a6 6 0 0 1 -5.114-3.678l-42.757-102.672-27.6 47.317a6 6 0 0 1 -5.182 2.977h-58.27a6 6 0 0 1 0-12h54.823l31.947-54.766a6 6 0 0 1 10.721.716l42.806 102.79 44.219-74.348a6 6 0 0 1 10.434.213l30.32 56.064h33a6 6 0 0 1 0 12h-36.58a6 6 0 0 1 -5.278-3.146l-26.989-49.909-44.918 75.524a6 6 0 0 1 -5.155 2.933z" fill="#6994fe"/><path d="m52.7 175.862a6.067 6.067 0 0 1 -1.123-.1 6 6 0 0 1 -4.78-7.011c7.89-41.7 31.511-72.075 64.8-83.342a6 6 0 1 1 3.847 11.366c-29.073 9.84-49.8 36.887-56.86 74.207a6 6 0 0 1 -5.884 4.88z" fill="#f4f8fc"/><path d="m135.074 92.838a6 6 0 0 1 -.4-11.986c2.2-.149 4.448-.225 6.684-.225a6 6 0 0 1 0 12c-1.966 0-3.942.067-5.873.2-.138.007-.275.011-.411.011z" fill="#f4f8fc"/><path d="m151.16 183.95a72.05 72.05 0 1 1 -72.07 72.05 72.066 72.066 0 0 1 72.07-72.05z" fill="#f3ce7d"/><path d="m189.96 246.17v21.73h-26.9v26.9h-22.76v-26.9h-27.94v-21.73h27.94v-28.97h22.76v28.97z" fill="#5fcda4"/><path d="m109.09 256a72.078 72.078 0 0 1 57.072-70.477 72.05 72.05 0 1 0 0 140.954 72.078 72.078 0 0 1 -57.072-70.477z" fill="#cead6b"/></svg>