<svg id="Capa_1" enable-background="new 0 0 512 512" height="512" viewBox="0 0 512 512" width="512" xmlns="http://www.w3.org/2000/svg"><g><g><path d="m479.669 198.014h-158.976v-96.336c0-30.709-24.894-55.603-55.603-55.603h-25.804l-9.972 123.582c-2.832 35.104-32.148 62.149-67.366 62.149h-19.375l-14.794 100.162 14.794 100.162h65.683c-.001.479-.001.956-.002 1.43-.02 17.869 14.459 32.362 32.329 32.362h251.72l19.582-232.872c1.585-18.854-13.293-35.036-32.216-35.036z" fill="#ffcdbe"/><path d="m127.779 331.969 14.794 100.162h65.682c0 .479-.001.956-.002 1.43-.02 17.869 14.459 32.362 32.329 32.362h251.72l11.264-133.955h-375.787z" fill="#faa68e"/><path d="m0 211.722h142.573v240.494h-142.573z" fill="#69b1e9"/><path d="m0 331.969h142.573v120.247h-142.573z" fill="#2681ff"/></g></g></svg>