<svg id="Capa_1" enable-background="new 0 0 512 512" height="512" viewBox="0 0 512 512" width="512" xmlns="http://www.w3.org/2000/svg"><g><g><g><path d="m136.779 0-27.354 47.354-47.353 27.353v437.293h193.928l30-236.291-30-275.709z" fill="#fff5f5"/><path d="m256 0h193.928v512h-193.928z" fill="#dce6eb"/></g><path d="m136.779 0v74.707h-74.707z" fill="#dce6eb"/></g><g><path d="m224.382 299.645c0-17.462 14.156-31.618 31.618-31.618l20-42.36-20-54.377h-34.506v39.558c-9.846 3.829-18.898 9.237-26.84 15.931l-34.723-18.984-33.106 60.552 34.725 18.986c-.521 4.034-.819 8.137-.819 12.312s.298 8.279.819 12.312l-34.725 18.986 33.106 60.553 34.723-18.984c7.942 6.693 16.994 12.102 26.84 15.931v39.557h34.506l20-48.216-20-48.521c-17.462 0-31.618-14.156-31.618-31.618z" fill="#c8d2dc"/><path d="m351.268 299.645c0-4.175-.298-8.279-.818-12.312l34.725-18.986-33.106-60.552-34.723 18.984c-7.942-6.694-16.994-12.102-26.84-15.931v-39.558h-34.506v96.737c17.462 0 31.618 14.156 31.618 31.618s-14.156 31.618-31.618 31.618v96.737h34.506v-39.558c9.846-3.829 18.898-9.237 26.84-15.931l34.723 18.984 33.106-60.553-34.725-18.986c.52-4.032.818-8.136.818-12.311z" fill="#a2abb8"/></g></g></svg>