<svg id="Capa_1" enable-background="new 0 0 453.54 453.54" height="512" viewBox="0 0 453.54 453.54" width="512" xmlns="http://www.w3.org/2000/svg"><g><g><path d="m21.417-.001v453.543h410.706zm67.421 188.584 179.402 198.11h-179.402z" fill="#f5cd69"/></g><g><g><path d="m60.441 414.412v-371.318l-39.024-43.095v453.543h410.706l-35.434-39.13z" fill="#efaa61"/></g></g><g><g><g><path d="m21.417 9.858h7.699v1.778h-7.699z" fill="#303357"/></g><g><path d="m21.417 16.984h7.699v1.778h-7.699z" fill="#303357"/></g><g><path d="m21.417 24.113h7.699v1.778h-7.699z" fill="#303357"/></g><g><path d="m21.417 31.241h7.699v1.778h-7.699z" fill="#303357"/></g></g><g><g><path d="m21.417 39.19h7.699v1.778h-7.699z" fill="#303357"/></g><g><path d="m21.417 46.319h7.699v1.777h-7.699z" fill="#303357"/></g><g><path d="m21.417 53.445h7.699v1.778h-7.699z" fill="#303357"/></g><g><path d="m21.417 60.574h7.699v1.778h-7.699z" fill="#303357"/></g></g><g><g><path d="m21.417 68.524h7.699v1.778h-7.699z" fill="#303357"/></g><g><path d="m21.417 75.651h7.699v1.778h-7.699z" fill="#303357"/></g><g><path d="m21.417 82.78h7.699v1.777h-7.699z" fill="#303357"/></g><g><path d="m21.417 89.907h7.699v1.778h-7.699z" fill="#303357"/></g></g><g><g><path d="m21.417 97.857h7.699v1.778h-7.699z" fill="#303357"/></g><g><path d="m21.417 104.985h7.699v1.778h-7.699z" fill="#303357"/></g><g><path d="m21.417 112.112h7.699v1.778h-7.699z" fill="#303357"/></g><g><path d="m21.417 119.24h7.699v1.778h-7.699z" fill="#303357"/></g></g><g><g><path d="m21.417 127.191h7.699v1.778h-7.699z" fill="#303357"/></g><g><path d="m21.417 134.318h7.699v1.778h-7.699z" fill="#303357"/></g><g><path d="m21.417 141.445h7.699v1.778h-7.699z" fill="#303357"/></g><g><path d="m21.417 148.574h7.699v1.778h-7.699z" fill="#303357"/></g></g><g><g><path d="m21.417 156.523h7.699v1.778h-7.699z" fill="#303357"/></g><g><path d="m21.417 163.651h7.699v1.778h-7.699z" fill="#303357"/></g><g><path d="m21.417 170.778h7.699v1.778h-7.699z" fill="#303357"/></g><g><path d="m21.417 177.906h7.699v1.778h-7.699z" fill="#303357"/></g></g><g><g><path d="m21.417 185.858h7.699v1.777h-7.699z" fill="#303357"/></g><g><path d="m21.417 192.983h7.699v1.778h-7.699z" fill="#303357"/></g><g><path d="m21.417 200.112h7.699v1.778h-7.699z" fill="#303357"/></g><g><path d="m21.417 207.241h7.699v1.777h-7.699z" fill="#303357"/></g></g><g><g><path d="m21.417 215.189h7.699v1.778h-7.699z" fill="#303357"/></g><g><path d="m21.417 222.318h7.699v1.778h-7.699z" fill="#303357"/></g><g><path d="m21.417 229.444h7.699v1.778h-7.699z" fill="#303357"/></g><g><path d="m21.417 236.573h7.699v1.778h-7.699z" fill="#303357"/></g></g><g><g><path d="m21.417 244.523h7.699v1.778h-7.699z" fill="#303357"/></g><g><path d="m21.417 251.65h7.699v1.778h-7.699z" fill="#303357"/></g><g><path d="m21.417 258.779h7.699v1.778h-7.699z" fill="#303357"/></g><g><path d="m21.417 265.906h7.699v1.778h-7.699z" fill="#303357"/></g></g><g><g><path d="m21.417 273.856h7.699v1.778h-7.699z" fill="#303357"/></g><g><path d="m21.417 280.984h7.699v1.778h-7.699z" fill="#303357"/></g><g><path d="m21.417 288.11h7.699v1.778h-7.699z" fill="#303357"/></g><g><path d="m21.417 295.239h7.699v1.778h-7.699z" fill="#303357"/></g></g><g><g><path d="m21.417 303.19h7.699v1.778h-7.699z" fill="#303357"/></g><g><path d="m21.417 310.317h7.699v1.778h-7.699z" fill="#303357"/></g><g><path d="m21.417 317.444h7.699v1.778h-7.699z" fill="#303357"/></g><g><path d="m21.417 324.573h7.699v1.778h-7.699z" fill="#303357"/></g></g><g><g><path d="m21.417 332.522h7.699v1.778h-7.699z" fill="#303357"/></g><g><path d="m21.417 339.65h7.699v1.777h-7.699z" fill="#303357"/></g><g><path d="m21.417 346.777h7.699v1.778h-7.699z" fill="#303357"/></g><g><path d="m21.417 353.905h7.699v1.778h-7.699z" fill="#303357"/></g></g><g><g><path d="m21.417 361.857h7.699v1.778h-7.699z" fill="#303357"/></g><g><path d="m21.417 368.982h7.699v1.778h-7.699z" fill="#303357"/></g><g><path d="m21.417 376.111h7.699v1.777h-7.699z" fill="#303357"/></g><g><path d="m21.417 383.24h7.699v1.778h-7.699z" fill="#303357"/></g></g><g><g><path d="m21.417 391.188h7.699v1.778h-7.699z" fill="#303357"/></g><g><path d="m21.417 398.317h7.699v1.778h-7.699z" fill="#303357"/></g><g><path d="m21.417 405.443h7.699v1.778h-7.699z" fill="#303357"/></g><g><path d="m21.417 412.572h7.699v1.777h-7.699z" fill="#303357"/></g></g><g><g><path d="m21.417 420.522h7.699v1.778h-7.699z" fill="#303357"/></g><g><path d="m21.417 427.649h7.699v1.778h-7.699z" fill="#303357"/></g><g><path d="m21.417 434.778h7.699v1.778h-7.699z" fill="#303357"/></g><g><path d="m21.417 441.905h7.699v1.778h-7.699z" fill="#303357"/></g></g></g></g></svg>