<svg enable-background="new 0 0 64 64" height="512" viewBox="0 0 64 64" width="512" xmlns="http://www.w3.org/2000/svg"><g id="_x39_-Avocado"><g><path d="m44.8007813 25.991087c-2.59375-3.6347656-4.2988281-7.4414063-5.0654297-11.3134756l-.5283203-2.668457c-.6386719-3.2260742-3.0654297-5.6552734-6.0390625-6.0444336-3.6904297-.4824219-7.0410156 2.1044922-7.7734375 5.7973633l-.3808594 1.9243164c-.8583984 4.3369131-2.6474609 8.2954092-5.1748047 11.4482412-2.9160156 3.6376953-4.5224609 8.39258-4.5224609 13.3891621 0 10.7905273 7.484375 19.5693359 16.6835938 19.5693359s16.6835938-8.7788086 16.6835938-19.5693359c-.0000001-4.5766602-1.3789064-9.027834-3.8828126-12.5327168z" fill="#83a519"/><path d="m32 56.0931396c-8.0966797 0-14.6835938-7.8813477-14.6835938-17.5693359 0-4.5429688 1.4501953-8.8535175 4.0830078-12.1381855 2.7275391-3.4023438 4.6552734-7.6591797 5.5761719-12.3110342l.3808594-1.9243164c.4873047-2.4584961 2.5595703-4.2431641 4.9257813-4.2431641.2070313 0 .4160156.0131836.6269531.0405273 2.1210938.277832 3.8642578 2.065918 4.3359375 4.449707l.5283203 2.6689453c.8222656 4.150878 2.6386719 8.2177725 5.3994141 12.0864248 2.2636719 3.1694336 3.5107422 7.2075214 3.5107422 11.3710957 0 9.6879884-6.5869141 17.569336-14.6835938 17.569336z" fill="#ffff50"/><path d="m32 30.3021221c-3.1992188 0-5.9013672 3.7651386-5.9013672 8.2216816s2.7021485 8.2211914 5.9013672 8.2211914c3.1982422 0 5.9003906-3.7646484 5.9003906-8.2211914s-2.7021484-8.2216816-5.9003906-8.2216816z" fill="#914106"/><g><path d="m45.0791626 30.5938702c.3915405 1.5914936.6044312 3.2486591.6044312 4.9299335 0 9.6879883-6.5869141 17.5693359-14.6835938 17.5693359-5.7095337 0-10.6560059-3.9274902-13.0837402-9.6355591 1.7874756 7.291504 7.4194336 12.6355591 14.0837402 12.6355591 8.0966797 0 14.6835938-7.8813477 14.6835938-17.5693359 0-2.7745361-.5650635-5.4867554-1.6044312-7.9299335z" fill="#f2ed4e"/></g><path d="m36.7459717 33.7220459c.0978394.5826416.1544189 1.1843872.1544189 1.8017578 0 4.456543-2.7021484 8.2211914-5.9003906 8.2211914-1.9234009 0-3.6621094-1.3660889-4.7470093-3.4197998.6083985 3.6234131 2.9908447 6.4197998 5.7470093 6.4197998 3.1982422 0 5.9003906-3.7646484 5.9003906-8.2211914 0-1.7773437-.4347534-3.439331-1.1544189-4.8017578z" fill="#6d3103"/></g></g></svg>