<svg id="Capa_1" enable-background="new 0 0 512 512" height="512" viewBox="0 0 512 512" width="512" xmlns="http://www.w3.org/2000/svg"><g><path d="m165.667 73-42.333 24.667-42.334-24.667v-68c0-2.761 2.239-5 5-5h74.667c2.761 0 5 2.239 5 5z" fill="#8dc5e8"/><path d="m431 73-43.25 24.667-41.417-24.667v-68c0-2.761 2.239-5 5-5h74.667c2.761 0 5 2.239 5 5z" fill="#5e9ff6"/><g><path d="m0 183.08v318.92c0 5.52 4.48 10 10 10h159.74l86.26-27.667v-348.003z" fill="#fff5f5"/><path d="m512 183.08v318.92c0 5.52-4.48 10-10 10h-159.74l-86.26-27.667v-348.003z" fill="#e1ebf0"/></g><path d="m256 73 35.5 55.04-35.5 55.04h-256v-100.08c0-5.52 4.48-10 10-10z" fill="#0b799d"/><path d="m512 83v100.08h-256v-110.08h246c5.52 0 10 4.48 10 10z" fill="#07485e"/><g><path d="m256 372.88 7.5 30.787-7.5 38.873c-8.28 0-15-6.71-15-15v-39.66c0-8.29 6.72-15 15-15z" fill="#8dc5e8"/></g><g><path d="m271 387.88v39.66c0 8.29-6.72 15-15 15v-69.66c8.28 0 15 6.71 15 15z" fill="#5e9ff6"/></g><path d="m256 418.07 20.333 93.93h-106.593v-78.93c0-8.29 6.71-15 15-15z" fill="#ffe14d"/><path d="m342.26 433.07v78.93h-86.26v-93.93h71.26c8.29 0 15 6.71 15 15z" fill="#ffc34d"/><path d="m256 233.49 20.333 93.51-20.333 64.17h-.1c-5.15 0-10.14-.67-14.9-1.95-24.75-6.58-43.04-29.19-43.04-55.99 0-24.06 13.44-37.33 23.26-47.01 11.57-11.42 16.86-16.64 8.66-37.16-2.38-5.97-.7-12.8 4.2-16.98 4.9-4.17 11.91-4.76 17.43-1.45 1.47.88 2.97 1.83 4.49 2.86z" fill="#ff7c48"/><path d="m313.78 334.55c-1.34 15.11-7.55 29.11-17.51 39.43-7.08 7.34-15.76 12.49-25.27 15.14-4.82 1.34-9.86 2.04-15 2.05v-157.68c27.54 18.52 61.43 59.65 57.78 101.06z" fill="#ff415b"/></g></svg>