<svg id="Layer_1" enable-background="new 0 0 497 497" height="512" viewBox="0 0 497 497" width="512" xmlns="http://www.w3.org/2000/svg"><g><path d="m435.734 220.864c11.185-3.884 22.518-9.927 31.877-19.286 27.893-27.893 24.37-79.489 24.37-79.489s-49.018-6.101-79.489 24.37c-14.652 14.652-21.177 34.139-24.012 50.327l6.02 39.714z" fill="#67b856"/><g><path d="m388.531 204.293c-.356 0-.717-.025-1.079-.078-4.087-.589-6.927-4.368-6.359-8.453.14-1.082 2.834-24.329-19.485-46.155-2.962-2.896-3.015-7.645-.119-10.606 2.894-2.961 7.643-3.016 10.605-.119 28.032 27.411 24.035 57.703 23.851 58.979-.539 3.738-3.746 6.432-7.414 6.432z" fill="#9b4f1d"/></g><g><g><g><path d="m57.004 472.184c1.71 14.162 13.728 24.816 27.993 24.816h166.125c10.906 0 20.499-6.228 25.176-15.49l36.5-288.334 12.028-99.634-155.759-38.345-157.774 38.345z" fill="#ff9117"/><path d="m169.067 55.197-20.129 4.892 135.887 33.453-12.028 99.634-36.5 288.334c-4.677 9.262-14.269 15.49-25.176 15.49h40c10.906 0 20.499-6.228 25.176-15.49l36.5-288.334 12.028-99.634z" fill="#f58100"/><path d="m0 0 11.293 93.542h313.532l11.293-93.542z" fill="#c6e7f7"/><path d="m296.118 0-11.293 93.542h40l11.293-93.542z" fill="#bae3f7"/></g><path d="m209.19 421.248v75.636h-82.263v-256.794c0-22.716 18.415-41.131 41.131-41.131 22.716 0 41.131 18.415 41.131 41.131v29.28 151.878z" fill="#f58100"/><g><path d="m24 198.958 3.649 30.071-3.63-30.071z" fill="#fc6533"/><g fill="#f58100"><path d="m28.982 198.958h-4.963l3.63 30.071 29.355 243.154c1.001 8.293 5.541 15.379 11.993 19.832.33.227.664.447 1.004.661l.112-252.587c0-22.716-18.415-41.131-41.131-41.131z"/><path d="m305.817 199.958h4.963l-3.63 30.071-29.355 243.154c-1.001 8.293-5.541 15.379-11.993 19.832-.33.227-.664.447-1.004.661l-.112-252.587c0-22.716 18.415-41.131 41.131-41.131z"/></g></g></g><circle cx="343.546" cy="343.546" fill="#ffa745" r="153.454"/><path d="m343.546 190.093c-6.779 0-13.453.444-20 1.297 75.3 9.801 133.454 74.185 133.454 152.156s-58.154 142.355-133.454 152.157c6.547.852 13.221 1.297 20 1.297 84.75 0 153.454-68.704 153.454-153.454s-68.704-153.453-153.454-153.453z" fill="#ff9117"/><g><path d="m295.893 407.372c9.652 0 9.668-15 0-15-9.651 0-9.667 15 0 15z" fill="#f58100"/></g><g><path d="m243.5 410.504c9.652 0 9.668-15 0-15-9.652 0-9.668 15 0 15z" fill="#f58100"/></g><g><path d="m297.459 461.238c9.652 0 9.668-15 0-15-9.652 0-9.668 15 0 15z" fill="#f58100"/></g></g></g></svg>