<svg id="Capa_1" enable-background="new 0 0 512.001 512.001" height="512" viewBox="0 0 512.001 512.001" width="512" xmlns="http://www.w3.org/2000/svg"><g><g clip-rule="evenodd" fill-rule="evenodd"><path d="m240.474 503.575c-35.036-25.172-58.337-69.676-58.337-120.416 0-57.855 30.331-107.66 73.87-129.856 43.541 22.195 73.871 72 73.871 129.856 0 51.363-23.867 96.35-59.669 121.323-14.967 10.46-14.683 9.865-29.735-.907z" fill="#b3e59f"/><path d="m480.171 371.424c-37.898 7.625-81.326-5.188-113.527-37.389-35.547-35.547-47.48-84.757-34.355-125.093 40.337-13.125 89.546-1.162 125.064 34.355 32.484 32.485 45.27 76.337 37.219 114.463-2.524 12.048-2.183 11.198-14.401 13.664z" fill="#b3e59f"/><path d="m35.245 372.048c37.077 6.236 78.859-6.775 110.126-38.013 35.518-35.547 47.48-84.757 34.356-125.093-40.338-13.125-89.547-1.162-125.094 34.355-31.123 31.153-44.162 72.795-38.097 109.759 2.694 16.298 2.467 16.27 18.709 18.992z" fill="#b3e59f"/><path d="m256.007 0c16.696.368 28.007 26.164 32.287 39.316 4.705 14.4 8.306 11.311 18.028 2.608 9.468-8.447 31.521-23.697 44.73-16.696l.992.511c12.812 7.767 11.537 31.549 9.496 44.135-.681 4.195-4.393 15.421-.425 18.113 3.43 2.324 13.946-.935 18.255-1.587 12.473-1.814 35.319-3.005 43.002 9.666 7.228 13.124-5.811 33.052-13.862 42.944-2.579 3.176-10.828 10.744-9.751 14.854 1.106 4.225 12.897 6.832 16.895 8.391 11.707 4.564 32.146 15.138 32.457 29.85-.368 16.695-26.164 28.006-39.316 32.314-15.364 5.018-11.226 7.908-2.495 18.028 8.675 10.063 23.698 31.833 16.073 45.694-8.845 14.57-37.701 11.112-51.392 8.107-13.975-3.061-12.756 1.615-10.261 13.379 2.721 12.699 5.102 40.479-8.192 48.559l-.482.283c-14.797 8.135-38.268-9.185-48.528-18.652-11.537-10.63-12.076-3.345-15.96 7.682-4.224 12.02-15.448 36.113-30.444 36.652l-1.105.057c-17.008-.368-28.402-27.07-32.74-40.393-4.336-13.408-7.652-10.488-16.639-2.324-9.638 8.759-32.542 24.746-46.177 17.234l-.51-.255c-14.23-8.646-11.254-36.737-8.277-50.23 3.231-14.654.907-14.598-13.011-11.564-13.267 2.862-40.592 5.385-49.012-8.533-8.277-15.052 9.241-38.098 18.737-48.557 9.468-10.461 5.301-11.85-6.378-15.562-12.812-4.11-37.758-15.789-38.098-31.918.369-17.207 27.014-28.29 40.422-32.712 13.295-4.366 10.29-7.767 2.268-16.696-8.702-9.666-24.746-32.485-17.234-46.148l.283-.481c7.768-12.841 31.55-11.509 44.136-9.496 4.025.651 15.023 4.195 17.887 1.19 2.863-2.92-.538-13.89-1.191-17.858-2.041-12.586-3.345-36.396 9.468-44.163 14.939-8.192 38.183 9.24 48.558 18.651 10.006 9.1 11.225 7.144 15.193-5.074 4.279-13.155 15.618-38.951 32.313-39.319z" fill="#ffc343"/><path d="m256.007 332.079c77.074 0 139.976-62.873 139.976-139.975 0-77.103-62.901-139.975-139.976-139.975-77.102 0-139.975 62.872-139.975 139.975 0 77.102 62.873 139.975 139.975 139.975z" fill="#de9252"/><path d="m256.007 52.13c77.301 0 139.976 62.674 139.976 139.975s-62.675 139.975-139.976 139.975c-4.252 0-8.475-.198-12.613-.567 71.376-6.378 127.332-66.358 127.332-139.407s-55.956-133.032-127.332-139.41c4.138-.369 8.361-.566 12.613-.566z" fill="#d48748"/><path d="m432.124 248.344c32.484 32.485 45.24 76.337 37.219 114.463-1.304 6.151-1.843 8.957-3.686 10.545 4.904-.341 9.752-.964 14.514-1.928 12.218-2.466 11.877-1.616 14.4-13.663 8.051-38.126-4.734-81.978-37.219-114.463-11.112-11.111-23.557-19.928-36.681-26.391-.142.113-.312.227-.454.312-5.073 3.344-10.317 6.576-15.76 9.637 9.809 5.784 19.135 12.955 27.667 21.488z" fill="#95d6a4"/><path d="m270.209 504.482c35.802-24.974 59.669-69.96 59.669-121.323 0-10.772-1.049-21.26-3.061-31.379-3.516-1.531-7.002-3.176-10.461-4.904-6.207-3.09-12.415-6.491-18.538-10.233 4.422 14.599 6.831 30.246 6.831 46.517 0 51.363-23.896 96.35-59.669 121.323-.567.397-1.105.765-1.644 1.134 12.218 8.758 12.927 8.616 26.873-1.135z" fill="#95d6a4"/><path d="m41.085 372.869c35.574 3.997 74.664-9.241 104.286-38.834 2.466-2.495 4.847-5.046 7.115-7.653-.142-1.56-.255-3.09-.341-4.649-.51-8.362-.623-16.866-.312-25.483-1.616.085-3.231.113-4.876.142-6.49 13.465-15.448 26.249-26.844 37.645-22.704 22.703-51.022 35.771-79.028 38.832z" fill="#95d6a4"/></g><path d="m235.116 183.374c0-4.139 3.345-7.513 7.483-7.513s7.512 3.374 7.512 7.513c0 6.973-2.835 13.294-7.398 17.857-4.564 4.564-10.885 7.398-17.858 7.398s-13.295-2.834-17.858-7.398c-4.592-4.563-7.398-10.885-7.398-17.857 0-4.139 3.345-7.513 7.483-7.513 4.139 0 7.512 3.374 7.512 7.513 0 2.834 1.135 5.385 3.005 7.256 1.843 1.843 4.423 3.005 7.257 3.005 2.835 0 5.386-1.162 7.257-3.005 1.841-1.871 3.003-4.422 3.003-7.256zm31.153 45.723c0-4.168 3.346-7.512 7.483-7.512 4.139 0 7.513 3.344 7.513 7.512 0 6.973-2.835 13.266-7.398 17.857-4.564 4.564-10.886 7.398-17.859 7.398s-13.294-2.834-17.857-7.398c-4.593-4.592-7.398-10.885-7.398-17.857 0-4.168 3.345-7.512 7.483-7.512 4.139 0 7.512 3.344 7.512 7.512 0 2.834 1.134 5.386 3.005 7.256 1.842 1.843 4.422 3.005 7.256 3.005 2.835 0 5.387-1.162 7.258-3.005 1.84-1.871 3.002-4.422 3.002-7.256zm-62.305 0c0-4.168 3.344-7.512 7.482-7.512s7.512 3.344 7.512 7.512c0 6.973-2.834 13.266-7.398 17.857-4.563 4.564-10.885 7.398-17.857 7.398-6.974 0-13.295-2.834-17.858-7.398-4.593-4.592-7.398-10.885-7.398-17.857 0-4.168 3.345-7.512 7.483-7.512s7.512 3.344 7.512 7.512c0 2.834 1.134 5.386 3.005 7.256 1.843 1.843 4.422 3.005 7.257 3.005 2.834 0 5.386-1.162 7.256-3.005 1.841-1.871 3.004-4.422 3.004-7.256zm124.61 0c0-4.168 3.345-7.512 7.512-7.512 4.139 0 7.483 3.344 7.483 7.512 0 6.973-2.834 13.266-7.398 17.857-4.564 4.564-10.885 7.398-17.857 7.398-6.974 0-13.295-2.834-17.859-7.398-4.564-4.592-7.398-10.885-7.398-17.857 0-4.168 3.346-7.512 7.484-7.512 4.166 0 7.512 3.344 7.512 7.512 0 2.834 1.162 5.386 3.004 7.256 1.871 1.843 4.423 3.005 7.258 3.005 2.834 0 5.385-1.162 7.256-3.005 1.841-1.871 3.003-4.422 3.003-7.256zm-31.152 45.949c0-4.139 3.345-7.512 7.483-7.512 4.167 0 7.512 3.373 7.512 7.512 0 6.973-2.835 13.295-7.398 17.858-4.564 4.564-10.885 7.398-17.858 7.398-6.974 0-13.294-2.835-17.858-7.398-4.564-4.564-7.398-10.886-7.398-17.858 0-4.139 3.345-7.512 7.483-7.512s7.512 3.373 7.512 7.512c0 2.835 1.134 5.386 3.005 7.257 1.843 1.843 4.422 3.005 7.257 3.005s5.386-1.162 7.257-3.005c1.84-1.871 3.003-4.422 3.003-7.257zm-62.306 0c0-4.139 3.345-7.512 7.483-7.512s7.512 3.373 7.512 7.512c0 6.973-2.835 13.295-7.398 17.858s-10.885 7.398-17.858 7.398-13.295-2.835-17.858-7.398c-4.592-4.564-7.398-10.886-7.398-17.858 0-4.139 3.345-7.512 7.483-7.512 4.139 0 7.512 3.373 7.512 7.512 0 2.835 1.135 5.386 3.005 7.257 1.843 1.843 4.423 3.005 7.257 3.005 2.835 0 5.386-1.162 7.257-3.005 1.841-1.871 3.003-4.422 3.003-7.257zm62.306-183.629c0-4.139 3.345-7.512 7.483-7.512 4.167 0 7.512 3.373 7.512 7.512 0 6.974-2.835 13.295-7.398 17.859-4.564 4.563-10.885 7.398-17.858 7.398-6.974 0-13.294-2.835-17.858-7.398-4.564-4.564-7.398-10.886-7.398-17.859 0-4.139 3.345-7.512 7.483-7.512s7.512 3.373 7.512 7.512c0 2.835 1.134 5.387 3.005 7.258 1.843 1.842 4.422 3.004 7.257 3.004s5.386-1.162 7.257-3.004c1.84-1.871 3.003-4.423 3.003-7.258zm-62.306 0c0-4.139 3.345-7.512 7.483-7.512s7.512 3.373 7.512 7.512c0 6.974-2.835 13.295-7.398 17.859-4.564 4.563-10.885 7.398-17.858 7.398s-13.295-2.835-17.858-7.398c-4.592-4.564-7.398-10.886-7.398-17.859 0-4.139 3.345-7.512 7.483-7.512 4.139 0 7.512 3.373 7.512 7.512 0 2.835 1.135 5.387 3.005 7.258 1.843 1.842 4.423 3.004 7.257 3.004 2.835 0 5.386-1.162 7.257-3.004 1.841-1.871 3.003-4.423 3.003-7.258zm31.153 46.035c0-4.139 3.346-7.512 7.483-7.512 4.139 0 7.513 3.373 7.513 7.512 0 6.973-2.835 13.295-7.398 17.858-4.564 4.563-10.886 7.398-17.859 7.398s-13.294-2.835-17.857-7.398c-4.593-4.563-7.398-10.886-7.398-17.858 0-4.139 3.345-7.512 7.483-7.512 4.139 0 7.512 3.373 7.512 7.512 0 2.835 1.134 5.386 3.005 7.257 1.842 1.843 4.422 3.005 7.256 3.005 2.835 0 5.387-1.162 7.258-3.005 1.84-1.871 3.002-4.422 3.002-7.257zm-62.305 0c0-4.139 3.344-7.512 7.482-7.512s7.512 3.373 7.512 7.512c0 6.973-2.834 13.295-7.398 17.858-4.563 4.563-10.885 7.398-17.857 7.398-6.974 0-13.295-2.835-17.858-7.398-4.593-4.563-7.398-10.886-7.398-17.858 0-4.139 3.345-7.512 7.483-7.512s7.512 3.373 7.512 7.512c0 2.835 1.134 5.386 3.005 7.257 1.843 1.843 4.422 3.005 7.257 3.005 2.834 0 5.386-1.162 7.256-3.005 1.841-1.871 3.004-4.422 3.004-7.257zm124.61 0c0-4.139 3.345-7.512 7.512-7.512 4.139 0 7.483 3.373 7.483 7.512 0 6.973-2.834 13.295-7.398 17.858s-10.885 7.398-17.857 7.398c-6.974 0-13.295-2.835-17.859-7.398-4.564-4.593-7.398-10.886-7.398-17.858 0-4.139 3.346-7.512 7.484-7.512 4.166 0 7.512 3.373 7.512 7.512 0 2.835 1.162 5.386 3.004 7.257 1.871 1.843 4.423 3.005 7.258 3.005 2.834 0 5.385-1.162 7.256-3.005 1.841-1.871 3.003-4.422 3.003-7.257zm-155.763 45.922c0-4.139 3.345-7.513 7.483-7.513 4.139 0 7.512 3.374 7.512 7.513 0 6.973-2.834 13.294-7.398 17.857-4.592 4.564-10.885 7.398-17.858 7.398s-13.294-2.834-17.858-7.398c-4.592-4.563-7.398-10.885-7.398-17.857 0-4.139 3.346-7.513 7.484-7.513 4.139 0 7.512 3.374 7.512 7.513 0 2.834 1.134 5.385 3.004 7.256 1.843 1.843 4.422 3.005 7.257 3.005s5.386-1.162 7.257-3.005c1.841-1.871 3.003-4.422 3.003-7.256zm186.917 0c0-4.139 3.345-7.513 7.512-7.513 4.139 0 7.483 3.374 7.483 7.513 0 6.973-2.835 13.294-7.398 17.857-4.564 4.564-10.886 7.398-17.858 7.398-6.974 0-13.295-2.834-17.858-7.398-4.564-4.563-7.398-10.885-7.398-17.857 0-4.139 3.345-7.513 7.512-7.513 4.139 0 7.483 3.374 7.483 7.513 0 2.834 1.162 5.385 3.005 7.256 1.871 1.843 4.422 3.005 7.257 3.005 2.834 0 5.414-1.162 7.257-3.005 1.841-1.871 3.003-4.422 3.003-7.256zm-62.306 0c0-4.139 3.345-7.513 7.483-7.513 4.167 0 7.512 3.374 7.512 7.513 0 6.973-2.835 13.294-7.398 17.857-4.564 4.564-10.885 7.398-17.858 7.398-6.974 0-13.294-2.834-17.858-7.398-4.564-4.563-7.398-10.885-7.398-17.857 0-4.139 3.345-7.513 7.483-7.513s7.512 3.374 7.512 7.513c0 2.834 1.134 5.385 3.005 7.256 1.843 1.843 4.422 3.005 7.257 3.005s5.386-1.162 7.257-3.005c1.84-1.871 3.003-4.422 3.003-7.256z" fill="#c47637"/></g></svg>