<?xml version="1.0" encoding="iso-8859-1"?>
<!-- Generator: Adobe Illustrator 19.0.0, SVG Export Plug-In . SVG Version: 6.00 Build 0)  -->
<svg version="1.1" id="Layer_1" xmlns="http://www.w3.org/2000/svg" xmlns:xlink="http://www.w3.org/1999/xlink" x="0px" y="0px"
	 viewBox="0 0 512 512" style="enable-background:new 0 0 512 512;" xml:space="preserve">
<circle style="fill:#F8E99B;" cx="256" cy="256" r="256"/>
<g>
	<path style="fill:#F6E27D;" d="M256,0c-7.185,0-14.298,0.311-21.333,0.892C366.067,11.735,469.333,121.801,469.333,256
		S366.067,500.265,234.667,511.108C241.702,511.689,248.815,512,256,512c141.385,0,256-114.615,256-256S397.385,0,256,0z"/>
	<circle style="fill:#F6E27D;" cx="256" cy="256" r="184.889"/>
</g>
<path style="fill:#EFC27B;" d="M256,71.111c-7.216,0-14.332,0.428-21.333,1.233C326.727,82.923,398.222,161.105,398.222,256
	s-71.495,173.077-163.556,183.657c7.002,0.805,14.117,1.232,21.333,1.232c102.111,0,184.889-82.778,184.889-184.889
	S358.111,71.111,256,71.111z"/>
<path style="fill:#F8F8F9;" d="M266.667,246.407v-63.239C279.081,187.571,288,199.427,288,213.333
	c0,5.891,4.776,10.667,10.667,10.667c5.891,0,10.667-4.776,10.667-10.667c0-25.756-18.352-47.305-42.667-52.26v-18.852
	c0-5.891-4.776-10.667-10.667-10.667s-10.667,4.776-10.667,10.667v18.852c-24.314,4.955-42.667,26.505-42.667,52.26
	s18.352,47.305,42.667,52.26v63.239C232.919,324.429,224,312.573,224,298.667c0-5.891-4.776-10.667-10.667-10.667
	c-5.891,0-10.667,4.776-10.667,10.667c0,25.756,18.352,47.305,42.667,52.26v18.852c0,5.891,4.776,10.667,10.667,10.667
	s10.667-4.776,10.667-10.667v-18.852c24.314-4.955,42.667-26.505,42.667-52.26C309.333,272.912,290.981,251.362,266.667,246.407z
	 M224,213.333c0-13.906,8.919-25.762,21.333-30.165v60.331C232.919,239.095,224,227.24,224,213.333z M266.667,328.832v-60.331
	C279.081,272.905,288,284.76,288,298.667C288,312.573,279.081,324.429,266.667,328.832z"/>
<g>
</g>
<g>
</g>
<g>
</g>
<g>
</g>
<g>
</g>
<g>
</g>
<g>
</g>
<g>
</g>
<g>
</g>
<g>
</g>
<g>
</g>
<g>
</g>
<g>
</g>
<g>
</g>
<g>
</g>
</svg>
