<?xml version="1.0" encoding="iso-8859-1"?>
<!-- Generator: Adobe Illustrator 19.0.0, SVG Export Plug-In . SVG Version: 6.00 Build 0)  -->
<svg version="1.1" id="Capa_1" xmlns="http://www.w3.org/2000/svg" xmlns:xlink="http://www.w3.org/1999/xlink" x="0px" y="0px"
	 viewBox="0 0 511.997 511.997" style="enable-background:new 0 0 511.997 511.997;" xml:space="preserve">
<path style="fill:#307E45;" d="M296.685,58.614c-14.945,14.857-23.331,35.071-23.304,56.142v9.181
	c-0.318-0.071-0.644-0.106-0.971-0.088c-1.942-0.177-3.884-0.265-5.914-0.265h-21.539c-2.216-0.018-4.423,0.106-6.621,0.353
	c-0.053-0.071-0.159-0.088-0.238-0.026c-0.009,0.009-0.018,0.018-0.026,0.026v-9.181C238.071,51.376,289.446,0,352.827,0v35.31
	C331.756,35.283,311.541,43.669,296.685,58.614z"/>
<path style="fill:#348A45;" d="M344,421.731v12.756c0.053,22.342-9.613,43.608-26.482,58.261
	c14.106,12.394,32.247,19.235,51.023,19.244h0.177c40.73-0.053,74.495-31.576,77.328-72.208l11.617-170.687
	C436.388,330.464,396.691,383.764,344,421.731z"/>
<path style="fill:#2A7038;" d="M344,434.486v-12.756c-47.342,34.18-103.299,54.43-161.542,58.482
	c3.354,4.59,7.203,8.792,11.476,12.535c3.407,2.948,7.035,5.632,10.858,8.033h0.088c3.937,2.383,8.068,4.423,12.358,6.091
	c1.942,0.706,3.884,1.412,5.914,2.03c2.56,0.706,5.208,1.324,7.856,1.854c1.942,0.353,3.972,0.618,6.003,0.794
	c0.441,0.071,0.883,0.106,1.324,0.088c2.198,0.247,4.405,0.371,6.621,0.353h21.539c2.216,0.018,4.423-0.106,6.621-0.353
	c0.441,0.018,0.883-0.018,1.324-0.088c2.03-0.177,4.061-0.441,6.003-0.794c2.648-0.53,5.296-1.148,7.856-1.854
	c2.03-0.618,3.972-1.324,5.914-2.03c4.29-1.668,8.421-3.708,12.358-6.091h0.088c3.822-2.401,7.45-5.085,10.858-8.033
	C334.387,478.094,344.053,456.829,344,434.486z"/>
<path style="fill:#348A45;" d="M182.458,480.212c-7.389,0.512-14.821,0.883-22.342,0.883c-29.298,0-58.446-4.096-86.606-12.164
	c18.97,38.302,65.402,53.98,103.705,35.01c6.038-2.992,11.652-6.753,16.719-11.193C189.652,489.005,185.803,484.803,182.458,480.212
	z"/>
<path style="fill:#3C9E4F;" d="M384.606,123.584H368.54c-18.776,0.009-36.916,6.85-51.023,19.244
	c16.869,14.654,26.535,35.919,26.482,58.261v220.642c52.7-37.967,92.388-91.267,113.662-152.635l4.272-62.675
	c2.922-42.725-29.342-79.729-72.058-82.651C388.119,123.646,386.363,123.584,384.606,123.584z"/>
<path style="fill:#328542;" d="M317.517,142.828c-3.407-2.948-7.035-5.632-10.858-8.033h-0.088
	c-3.937-2.383-8.068-4.423-12.358-6.091c-1.942-0.706-3.884-1.412-5.914-2.03c-2.56-0.706-5.208-1.324-7.856-1.854
	c-1.942-0.353-3.972-0.618-6.003-0.794c-0.344-0.071-0.706-0.106-1.059-0.088c-0.318-0.071-0.644-0.106-0.971-0.088
	c-1.942-0.177-3.884-0.265-5.914-0.265h-21.539c-2.216-0.018-4.423,0.106-6.621,0.353c-0.053-0.071-0.159-0.088-0.238-0.026
	c-0.009,0.009-0.018,0.018-0.026,0.026c-0.353-0.018-0.715,0.018-1.059,0.088c-2.03,0.177-4.061,0.441-6.003,0.794
	c-2.648,0.53-5.296,1.148-7.856,1.854c-2.03,0.618-3.972,1.324-5.914,2.03c-4.29,1.668-8.421,3.708-12.358,6.091h-0.088
	c-3.822,2.401-7.45,5.085-10.858,8.033c-16.869,14.654-26.535,35.919-26.482,58.261v233.397
	c-0.018,16.454,5.243,32.485,15.007,45.726c58.243-4.052,114.201-24.302,161.542-58.482V201.089
	C344.053,178.747,334.387,157.481,317.517,142.828z"/>
<path style="fill:#3C9E4F;" d="M182.458,480.212c-9.772-13.241-15.024-29.272-15.007-45.726V201.089
	c-0.053-22.342,9.613-43.608,26.482-58.261c-14.106-12.394-32.247-19.235-51.023-19.244h-15.536
	c-42.795-0.009-77.496,34.683-77.496,77.478c0,1.721,0.053,3.434,0.168,5.146l15.536,233.397c0.68,10.204,3.381,20.171,7.945,29.325
	c28.151,8.059,57.29,12.155,86.571,12.164C167.619,481.095,175.051,480.733,182.458,480.212z"/>
<g>
</g>
<g>
</g>
<g>
</g>
<g>
</g>
<g>
</g>
<g>
</g>
<g>
</g>
<g>
</g>
<g>
</g>
<g>
</g>
<g>
</g>
<g>
</g>
<g>
</g>
<g>
</g>
<g>
</g>
</svg>
