<?xml version="1.0" encoding="iso-8859-1"?>
<!-- Generator: Adobe Illustrator 19.0.0, SVG Export Plug-In . SVG Version: 6.00 Build 0)  -->
<svg version="1.1" id="Capa_1" xmlns="http://www.w3.org/2000/svg" xmlns:xlink="http://www.w3.org/1999/xlink" x="0px" y="0px"
	 viewBox="0 0 512 512" style="enable-background:new 0 0 512 512;" xml:space="preserve">
<path style="fill:#AD7B64;" d="M500.16,11.84L500.16,11.84C485.6-2.72,462.444-4.001,446.34,8.829
	c-83.51,66.53-166.918,146.318-237.393,223.496c24.52,20.902,48.603,44.46,71.223,70.273
	c76.846-70.217,156.464-153.421,223.001-236.939C516.001,49.555,514.72,26.399,500.16,11.84z"/>
<path style="fill:#9E6B57;" d="M460.077,25.312c14.198-11.311,33.873-11.648,48.31-1.594c-1.957-4.315-4.698-8.35-8.226-11.878l0,0
	c-14.559-14.559-37.715-15.841-53.82-3.01c-83.51,66.53-166.918,146.318-237.393,223.496c5.344,4.556,10.669,9.244,15.968,14.054
	C295.381,169.451,377.819,90.844,460.077,25.312z"/>
<path style="fill:#707487;" d="M222.259,353.53c19.614-16.576,39.58-34.147,59.737-52.608
	c-21.631-24.889-45.855-48.852-71.375-70.421c-18.295,19.988-35.712,39.787-52.152,59.24L222.259,353.53z"/>
<path style="fill:#5E6377;" d="M222.69,248.814c-0.003-0.002-0.005-0.004-0.007-0.006c0.4-0.439,1.091-1.187,1.674-1.824h0.001
	c0.755-0.824,1.522-1.651,2.28-2.476c-5.314-4.803-10.655-9.476-16.016-14.007c-18.295,19.988-35.712,39.787-52.152,59.24
	l14.998,14.998C189.034,286.358,205.47,267.673,222.69,248.814z"/>
<path style="fill:#E4EAF8;" d="M158.945,289.185l63.87,63.87c-12.109,10.241-24.086,20.111-35.89,29.57
	c-8.462-26.737-30.814-49.089-57.551-57.551C138.833,313.272,148.704,301.294,158.945,289.185z"/>
<path style="fill:#D8DCE5;" d="M172.21,306.228l-0.005-0.004c0.574-0.679,1.158-1.362,1.735-2.042l-14.996-14.996
	c-10.241,12.108-20.112,24.086-29.57,35.889c6.895,2.182,13.495,5.295,19.644,9.162C156.515,324.993,164.246,315.652,172.21,306.228
	z"/>
<path style="fill:#9E6B57;" d="M458.867,53.801c-3.018-3.017-3.018-7.91,0-10.927l8.623-8.623c3.017-3.017,7.91-3.017,10.927,0
	c3.018,3.017,3.018,7.91,0,10.927l-8.623,8.623C466.776,56.819,461.885,56.818,458.867,53.801z"/>
<path style="fill:#F0A479;" d="M164.265,463.915c-40.584,40.584-97.11,55.458-149.416,44.698
	c-5.765-1.186-10.276-5.697-11.462-11.462C-7.374,444.844,7.5,388.319,48.085,347.735
	C127.309,268.51,243.685,384.496,164.265,463.915z"/>
<path style="fill:#E59770;" d="M68.002,358.339c34.167-31.612,75.3-26.713,103.883-4.833c-26.613-32.7-78.898-50.674-123.8-5.771
	C7.5,388.319-7.374,444.844,3.387,497.15c1.186,5.765,5.697,10.276,11.462,11.462c0.987,0.203,1.977,0.379,2.967,0.564
	C7.764,454.307,25.768,397.416,68.002,358.339z"/>
<g>
</g>
<g>
</g>
<g>
</g>
<g>
</g>
<g>
</g>
<g>
</g>
<g>
</g>
<g>
</g>
<g>
</g>
<g>
</g>
<g>
</g>
<g>
</g>
<g>
</g>
<g>
</g>
<g>
</g>
</svg>
