<?xml version="1.0" encoding="iso-8859-1"?>
<!-- Generator: Adobe Illustrator 19.0.0, SVG Export Plug-In . SVG Version: 6.00 Build 0)  -->
<svg version="1.1" id="Layer_1" xmlns="http://www.w3.org/2000/svg" xmlns:xlink="http://www.w3.org/1999/xlink" x="0px" y="0px"
	 viewBox="0 0 511.985 511.985" style="enable-background:new 0 0 511.985 511.985;" xml:space="preserve">
<rect x="239.038" y="15.024" style="fill:#BEEFEF;" width="33.909" height="101.59"/>
<rect x="255.798" y="15.024" style="fill:#92DBDE;" width="17.15" height="101.59"/>
<rect x="-5.156" y="125.436" transform="matrix(0.6428 0.766 -0.766 0.6428 125.3745 15.8998)" style="fill:#BEEFEF;" width="101.587" height="33.907"/>
<rect x="449.394" y="91.595" transform="matrix(0.766 0.6428 -0.6428 0.766 200.6457 -266.4599)" style="fill:#92DBDE;" width="33.907" height="101.587"/>
<rect x="137.468" y="394.584" style="fill:#7F7F80;" width="237.04" height="74.02"/>
<rect x="255.988" y="394.584" style="fill:#666666;" width="118.52" height="74.02"/>
<rect x="227.628" y="180.264" style="fill:#E6B844;" width="56.718" height="40.871"/>
<rect x="255.988" y="180.264" style="fill:#E49524;" width="28.359" height="40.871"/>
<rect x="65.618" y="440.244" style="fill:#E6B844;" width="380.76" height="56.718"/>
<rect x="255.988" y="440.244" style="fill:#E49524;" width="190.37" height="56.718"/>
<path style="fill:#F1D849;" d="M442.759,422.942H69.223v-28.361c0-102.984,83.784-186.768,186.768-186.768
	s186.768,83.784,186.768,186.768L442.759,422.942L442.759,422.942z"/>
<path style="fill:#E6B844;" d="M442.759,422.942H255.991c0,0,0-135.279,0-215.13c102.984,0,186.768,83.784,186.768,186.768V422.942z
	"/>
<rect x="208.678" y="166.084" style="fill:#E49524;" width="94.62" height="28.359"/>
<rect x="255.988" y="166.084" style="fill:#DC5323;" width="47.31" height="28.359"/>
<g>
</g>
<g>
</g>
<g>
</g>
<g>
</g>
<g>
</g>
<g>
</g>
<g>
</g>
<g>
</g>
<g>
</g>
<g>
</g>
<g>
</g>
<g>
</g>
<g>
</g>
<g>
</g>
<g>
</g>
</svg>
