<svg id="Capa_1" enable-background="new 0 0 512 512" height="512" viewBox="0 0 512 512" width="512" xmlns="http://www.w3.org/2000/svg"><g><path d="m441.185 491.396v-426.233c0-11.379-9.224-20.604-20.604-20.604h-332.082c-11.379 0-20.604 9.225-20.604 20.604v426.233c0 11.379 9.225 20.604 20.604 20.604h332.082c11.379 0 20.604-9.225 20.604-20.604z" fill="#e28086"/><path d="m410.279 475.944v-395.328c0-2.845-2.306-5.151-5.151-5.151h-301.176c-2.845 0-5.151 2.306-5.151 5.151v395.328c0 2.845 2.306 5.151 5.151 5.151h301.176c2.845 0 5.151-2.307 5.151-5.151z" fill="#e7ecf6"/><g fill="#b3e59f"><path d="m206.214 223.799h-62.823c-5.576 0-10.096-4.52-10.096-10.096v-62.823c0-5.576 4.52-10.096 10.096-10.096h62.823c5.576 0 10.096 4.52 10.096 10.096v62.823c0 5.576-4.52 10.096-10.096 10.096z"/><path d="m206.214 337.687h-62.823c-5.576 0-10.096-4.52-10.096-10.096v-62.823c0-5.576 4.52-10.096 10.096-10.096h62.823c5.576 0 10.096 4.52 10.096 10.096v62.823c0 5.576-4.52 10.096-10.096 10.096z"/><path d="m206.214 451.574h-62.823c-5.576 0-10.096-4.52-10.096-10.096v-62.823c0-5.576 4.52-10.096 10.096-10.096h62.823c5.576 0 10.096 4.52 10.096 10.096v62.823c0 5.576-4.52 10.096-10.096 10.096z"/></g><g><path d="m379.551 188.826h-133.923c-4.268 0-7.726-3.459-7.726-7.726s3.459-7.726 7.726-7.726h133.924c4.268 0 7.726 3.459 7.726 7.726s-3.459 7.726-7.727 7.726z" fill="#407093"/></g><g><path d="m159.154 196.868-6.718-13.578c-1.893-3.825-.327-8.459 3.498-10.352 3.825-1.892 8.46-.326 10.351 3.498l2.039 4.12 16.585-15.959c3.074-2.958 7.965-2.865 10.925.21 2.959 3.075 2.865 7.966-.21 10.925l-24.187 23.276c-3.766 3.626-9.971 2.536-12.283-2.14z" fill="#407093"/></g><g><path d="m379.551 302.714h-133.923c-4.268 0-7.726-3.459-7.726-7.726s3.459-7.726 7.726-7.726h133.924c4.268 0 7.726 3.459 7.726 7.726 0 4.266-3.459 7.726-7.727 7.726z" fill="#407093"/></g><g><path d="m159.154 310.756-6.718-13.577c-1.893-3.824-.327-8.459 3.498-10.352 3.825-1.892 8.46-.326 10.351 3.498l2.039 4.12 16.585-15.959c3.074-2.958 7.965-2.865 10.925.21 2.959 3.075 2.865 7.966-.21 10.925l-24.187 23.276c-3.766 3.624-9.971 2.536-12.283-2.141z" fill="#407093"/></g><g><path d="m379.551 416.601h-133.923c-4.268 0-7.726-3.459-7.726-7.726s3.459-7.726 7.726-7.726h133.924c4.268 0 7.726 3.459 7.726 7.726s-3.459 7.726-7.727 7.726z" fill="#407093"/></g><g><path d="m159.154 424.644-6.718-13.577c-1.893-3.824-.327-8.459 3.498-10.352 3.825-1.892 8.46-.326 10.351 3.499l2.039 4.12 16.585-15.959c3.074-2.959 7.965-2.865 10.925.21 2.959 3.075 2.865 7.966-.21 10.925l-24.187 23.276c-3.766 3.623-9.971 2.534-12.283-2.142z" fill="#407093"/></g><path d="m423.501 44.559h-30.906c11.379 0 20.604 9.225 20.604 20.604v426.233c0 11.379-9.225 20.604-20.604 20.604h30.906c11.379 0 20.604-9.225 20.604-20.604v-426.233c0-11.379-9.225-20.604-20.604-20.604z" fill="#dd636e"/><path d="m408.048 75.465h-26.023c2.845 0 5.151 2.306 5.151 5.151v395.328c0 2.845-2.306 5.151-5.151 5.151h26.023c2.845 0 5.151-2.306 5.151-5.151v-395.328c0-2.845-2.306-5.151-5.151-5.151z" fill="#d8e2f1"/><path d="m277.447 0h-45.814c-12.146 0-21.991 9.846-21.991 21.991v40.85h89.796v-40.85c0-12.145-9.846-21.991-21.991-21.991z" fill="#365e7d"/><path d="m283.729 0h-29.644c12.145 0 21.991 9.846 21.991 21.991v40.85h26.282v-44.212c0-10.288-8.34-18.629-18.629-18.629z" fill="#2b4d66"/><path d="m354.148 101.993v-61.301c0-5.121-4.151-9.272-9.272-9.272h-180.673c-5.121 0-9.272 4.151-9.272 9.272v61.301c0 5.12 4.151 9.272 9.272 9.272h180.673c5.121 0 9.272-4.152 9.272-9.272z" fill="#407093"/><path d="m347.797 31.421h-26.282c5.12 0 9.272 4.151 9.272 9.272v61.301c0 5.12-4.151 9.272-9.272 9.272h26.282c5.121 0 9.272-4.151 9.272-9.272v-61.302c-.001-5.121-4.152-9.271-9.272-9.271z" fill="#365e7d"/></g></svg>