<svg id="Capa_1" enable-background="new 0 0 512 512" height="512" viewBox="0 0 512 512" width="512" xmlns="http://www.w3.org/2000/svg"><g><path d="m398 32-6.22 128-7.78 160h-39.96l-56.04 64-31.87 128h-38.25c-30.24 0-53.24-27.14-48.29-56.96l22.41-135.06-160 .02v-79.98h-32v-80.02h32v-79.95h32v-79.98l220.46-.07 59.58 31.99z" fill="#fed9b6"/><path d="m391.78 160-7.78 160h-39.96l-56.04 64-31.87 128h-38.25c-30.24 0-53.24-27.14-48.29-56.96l22.41-135.06-160 .02v-79.98h-32v-80.02h32z" fill="#febb9c"/><path d="m384 0h128v320h-128z" fill="#ff5754"/><path d="m384 160h128v160h-128z" fill="#e93754"/><path d="m430.991 60.249h30v30h-30z" fill="#54528e"/></g></svg>