<svg id="Layer_3" height="512" viewBox="0 0 64 64" width="512" xmlns="http://www.w3.org/2000/svg" data-name="Layer 3"><rect fill="#f9d266" height="6" rx="2" width="18" x="44" y="50"/><path d="m59.5 50h-13.5a2 2 0 0 0 -2 2v2h13.5a2 2 0 0 0 2-2z" fill="#fce797"/><rect fill="#f4a93c" height="6" rx="2" width="18" x="44" y="56"/><path d="m59.5 56h-13.5a2 2 0 0 0 -2 2v2h13.5a2 2 0 0 0 2-2z" fill="#f6b940"/><rect fill="#f4a93c" height="6" rx="2" width="18" x="22" y="56"/><path d="m37.5 56h-13.5a2 2 0 0 0 -2 2v2h13.5a2 2 0 0 0 2-2z" fill="#f6b940"/><rect fill="#f9d266" height="6" rx="2" width="18" x="22" y="50"/><path d="m37.5 50h-13.5a2 2 0 0 0 -2 2v2h13.5a2 2 0 0 0 2-2z" fill="#fce797"/><path d="m6 2h56v28h-56z" fill="#3b7019"/><path d="m10 7h48v11h-48z" fill="#6bc13b"/><path d="m2 18h56v28h-56z" fill="#4d8c28"/><path d="m6 23h48v18h-48z" fill="#6bc13b"/><path d="m6 23h44v14h-44z" fill="#7bdf45"/><circle cx="30" cy="32" fill="#559b2d" r="10"/><path d="m20 32a9.992 9.992 0 0 0 5.36 8.854 9.992 9.992 0 0 0 6.28-18.708 9.942 9.942 0 0 0 -11.64 9.854z" fill="#6aad3e"/><path d="m34 30v-1a3 3 0 0 0 -3-3v-1h-2v1a3 3 0 0 0 -3 3v1a3 3 0 0 0 3 3v3a1 1 0 0 1 -1-1v-1h-2v1a3 3 0 0 0 3 3v1h2v-1a3 3 0 0 0 3-3v-1a3 3 0 0 0 -3-3v-3a1 1 0 0 1 1 1v1zm-2 4v1a1 1 0 0 1 -1 1v-3a1 1 0 0 1 1 1zm-3-3a1 1 0 0 1 -1-1v-1a1 1 0 0 1 1-1z" fill="#7bdf45"/><path d="m44 30h6v4h-6z" fill="#559b2d"/><path d="m48 31v-1h-4v2h3a1 1 0 0 0 1-1z" fill="#6aad3e"/><path d="m10 30h6v4h-6z" fill="#559b2d"/><path d="m24.2 18.015a10 10 0 1 1 19.6-.015" fill="#559b2d"/><path d="m41 16a9.993 9.993 0 0 0 -8.5-9.875 10 10 0 0 0 -8.3 11.888l16.6-.013a10.057 10.057 0 0 0 .2-2z" fill="#6aad3e"/><path d="m48 14h6v4h-6z" fill="#3b7019"/><path d="m14 14h6v4h-6z" fill="#3b7019"/><rect fill="#f9d266" height="6" rx="2" width="18" x="44" y="38"/><path d="m14 31v-1h-4v2h3a1 1 0 0 0 1-1z" fill="#6aad3e"/><path d="m52 15v-1h-4v2h3a1 1 0 0 0 1-1z" fill="#559b2d"/><path d="m18 15v-1h-4v2h3a1 1 0 0 0 1-1z" fill="#559b2d"/><path d="m59.5 38h-13.5a2 2 0 0 0 -2 2v2h13.5a2 2 0 0 0 2-2z" fill="#fce797"/><rect fill="#f4a93c" height="6" rx="2" width="18" x="44" y="44"/><path d="m59.5 44h-13.5a2 2 0 0 0 -2 2v2h13.5a2 2 0 0 0 2-2z" fill="#f6b940"/></svg>