<svg id="Capa_1" enable-background="new 0 0 512 512" height="512" viewBox="0 0 512 512" width="512" xmlns="http://www.w3.org/2000/svg"><g><g><path d="m0 9.609v171.638c0 5.1 4.134 9.234 9.234 9.234h309.517c5.1 0 9.234-4.134 9.234-9.234v-171.638c0-5.1-4.134-9.234-9.234-9.234h-309.517c-5.1 0-9.234 4.134-9.234 9.234z" fill="#d4f2f6"/><path d="m327.983 9.611v171.641c0 5.097-4.127 9.225-9.235 9.225h-23.186c5.097 0 9.235-4.127 9.235-9.225v-171.641c0-5.097-4.138-9.235-9.235-9.235h23.186c5.108 0 9.235 4.137 9.235 9.235z" fill="#a6e7f0"/><path d="m14.835 190.481 143.668-130.29c3.395-3.079 7.583-3.079 10.978 0l143.668 130.29z" fill="#a6e7f0"/><path d="m313.145 190.474h-35.414l-131.449-119.214 12.217-11.075c3.395-3.068 7.584-3.068 10.979 0z" fill="#6bd9e7"/><path d="m163.992.375h-149.157l141.872 126.513c4.151 3.702 10.418 3.702 14.569 0l141.873-126.513z" fill="#03bed7"/><path d="m313.145.376-141.872 126.517c-4.148 3.694-10.412 3.694-14.57 0l-10.422-9.297 131.45-117.22h35.414z" fill="#07b2cd"/></g><path d="m358.785 171.106h-241.039c-9.972 0-18.056 8.084-18.056 18.056v132.334c0 9.972 8.084 18.057 18.057 18.057h10.079c2.923 0 5.708 1.244 7.658 3.421l28.471 31.781c3.273 3.653 9.326 1.338 9.326-3.567v-21.354c0-5.678 4.603-10.281 10.281-10.281h175.222c9.972 0 18.057-8.084 18.057-18.057v-132.334c0-9.972-8.084-18.056-18.056-18.056z" fill="#fea613"/><path d="m376.842 189.166v132.327c0 9.978-8.09 18.058-18.058 18.058h-22.835c9.968 0 18.058-8.079 18.058-18.058v-132.327c0-9.978-8.09-18.058-18.058-18.058h22.835c9.968 0 18.058 8.08 18.058 18.058z" fill="#fb8801"/><path d="m252.905 306.186h241.038c9.972 0 18.056 8.084 18.056 18.056v132.334c0 9.972-8.084 18.057-18.057 18.057h-10.079c-2.923 0-5.708 1.244-7.658 3.421l-28.471 31.781c-3.273 3.653-9.326 1.338-9.326-3.567v-21.354c0-5.678-4.603-10.281-10.281-10.281h-175.221c-9.972 0-18.057-8.084-18.057-18.057v-132.333c0-9.972 8.084-18.057 18.056-18.057z" fill="#26a6fe"/><path d="m511.996 324.248v132.326c0 9.978-8.08 18.058-18.047 18.058h-8.957c2.611-3.23 4.169-7.336 4.169-11.805v-137.837c0-10.38-8.42-18.8-18.811-18.8h23.599c9.967 0 18.047 8.08 18.047 18.058z" fill="#0593fc"/><g fill="#f8f6f6"><circle cx="159.931" cy="255.328" r="17.96"/><circle cx="238.265" cy="255.328" r="17.96"/><circle cx="316.6" cy="255.328" r="17.96"/></g><g fill="#ebebeb"><path d="m177.888 255.329c0 9.916-8.038 17.954-17.954 17.954-8.234 0-15.179-5.541-17.294-13.105 2.146.908 4.499 1.414 6.975 1.414 9.916 0 17.954-8.038 17.954-17.954 0-1.692-.237-3.323-.671-4.87 6.46 2.724 10.99 9.111 10.99 16.561z"/><path d="m256.227 255.329c0 9.916-8.038 17.954-17.965 17.954-8.234 0-15.168-5.541-17.284-13.094 2.136.908 4.489 1.403 6.965 1.403 9.927 0 17.965-8.038 17.965-17.954 0-1.692-.237-3.323-.671-4.87 6.46 2.724 10.99 9.111 10.99 16.561z"/><path d="m334.556 255.329c0 9.916-8.038 17.954-17.955 17.954-8.234 0-15.179-5.541-17.294-13.094 2.146.908 4.499 1.403 6.975 1.403 9.916 0 17.955-8.038 17.955-17.954 0-1.692-.237-3.323-.671-4.87 6.46 2.724 10.99 9.111 10.99 16.561z"/></g><g><g><path d="m470.632 381.896h-97.207c-4.143 0-7.5-3.358-7.5-7.5s3.357-7.5 7.5-7.5h97.207c4.143 0 7.5 3.358 7.5 7.5s-3.358 7.5-7.5 7.5z" fill="#0586d6"/></g><g><path d="m470.632 413.923h-194.415c-4.143 0-7.5-3.358-7.5-7.5s3.357-7.5 7.5-7.5h194.415c4.143 0 7.5 3.358 7.5 7.5s-3.358 7.5-7.5 7.5z" fill="#0586d6"/></g></g></g></svg>