<?xml version="1.0" encoding="iso-8859-1"?>
<!-- Generator: Adobe Illustrator 19.0.0, SVG Export Plug-In . SVG Version: 6.00 Build 0)  -->
<svg version="1.1" id="Layer_1" xmlns="http://www.w3.org/2000/svg" xmlns:xlink="http://www.w3.org/1999/xlink" x="0px" y="0px"
	 viewBox="0 0 512 512" style="enable-background:new 0 0 512 512;" xml:space="preserve">
<path style="fill:#E1E1E3;" d="M275.464,248.702c58.17-18.264,103.072-117.072,105.604-237.922C381.192,4.857,376.391,0,370.468,0
	H141.531c-5.923,0-10.722,4.857-10.599,10.779c2.532,120.851,47.434,219.658,105.604,237.922v210.021l-61.713,37.54
	c-7.33,4.459-4.169,15.736,4.41,15.736h153.535c8.58,0,11.74-11.277,4.41-15.736l-61.713-37.54v-210.02H275.464z"/>
<path style="fill:#D9D9DB;" d="M337.178,496.264l-61.713-37.54V248.696c58.166-18.264,103.066-117.054,105.602-237.895
	C381.192,4.872,376.395,0,370.465,0h-26.309c0,126.379-26.848,225.872-87.203,243.866v214.857L329.787,512h2.981
	C341.348,512,344.508,500.722,337.178,496.264z"/>
<path style="fill:#F09EA0;" d="M168.373,100.966c12.055,74.283,46.779,127.962,87.741,127.962s75.687-53.679,87.741-127.962H168.373
	z"/>
<g>
	<circle style="fill:#EF8990;" cx="208.572" cy="140.533" r="7.113"/>
	<circle style="fill:#EF8990;" cx="225.491" cy="168.497" r="7.113"/>
	<circle style="fill:#EF8990;" cx="237.515" cy="140.533" r="7.113"/>
</g>
<g>
</g>
<g>
</g>
<g>
</g>
<g>
</g>
<g>
</g>
<g>
</g>
<g>
</g>
<g>
</g>
<g>
</g>
<g>
</g>
<g>
</g>
<g>
</g>
<g>
</g>
<g>
</g>
<g>
</g>
</svg>
