<svg id="Capa_1" enable-background="new 0 0 511.997 511.997" height="512" viewBox="0 0 511.997 511.997" width="512" xmlns="http://www.w3.org/2000/svg"><g><g><path d="m0 323.731v90.884c0 18.017 14.606 32.623 32.623 32.623h446.747c18.017 0 32.624-14.606 32.624-32.623v-90.884" fill="#bbcfd4"/><path d="m0 291.9v90.884c0 18.017 14.606 32.623 32.623 32.623h446.747c18.017 0 32.624-14.606 32.624-32.623v-90.884" fill="#d4e1e6"/><path d="m185.431 376.672h-152.807c-18.018 0-32.624-14.606-32.624-32.623v-305.78c0-18.018 14.606-32.624 32.624-32.624h152.808c38.972 0 70.566 31.593 70.566 70.566v371.027c-.001-38.972-31.594-70.566-70.567-70.566z" fill="#f1f4f6"/><path d="m511.997 38.264v305.789c0 18.018-14.608 32.615-32.626 32.615h-152.806c-6.346 0-12.486.835-18.327 2.411-12.125 3.245-22.952 9.642-31.575 18.255-12.764 12.774-20.665 30.422-20.665 49.902v-371.03c0-32.636 22.149-60.09 52.24-68.146 5.841-1.576 11.981-2.411 18.327-2.411h152.807c18.017 0 32.625 14.597 32.625 32.615z" fill="#f1f4f6"/><path d="m308.238 8.06v371.02c-12.125 3.245-22.952 9.642-31.575 18.255-12.764 12.774-20.665 30.422-20.665 49.902v-371.031c-.001-32.636 22.148-60.09 52.24-68.146z" fill="#d4e1e6"/></g><g fill="#a3b8bf"><path d="m480.133 77.434h-171.895c-4.267 0-7.726-3.459-7.726-7.726s3.459-7.726 7.726-7.726h171.896c4.267 0 7.726 3.459 7.726 7.726s-3.459 7.726-7.727 7.726z"/><path d="m480.133 121.873h-171.895c-4.267 0-7.726-3.459-7.726-7.726s3.459-7.726 7.726-7.726h171.896c4.267 0 7.726 3.459 7.726 7.726s-3.459 7.726-7.727 7.726z"/><path d="m480.133 166.311h-171.895c-4.267 0-7.726-3.459-7.726-7.726s3.459-7.726 7.726-7.726h171.896c4.267 0 7.726 3.459 7.726 7.726s-3.459 7.726-7.727 7.726z"/><path d="m480.133 210.75h-171.895c-4.267 0-7.726-3.459-7.726-7.726s3.459-7.726 7.726-7.726h171.896c4.267 0 7.726 3.459 7.726 7.726s-3.459 7.726-7.727 7.726z"/><path d="m480.133 255.186h-171.895c-4.267 0-7.726-3.459-7.726-7.726s3.459-7.726 7.726-7.726h171.896c4.267 0 7.726 3.459 7.726 7.726s-3.459 7.726-7.727 7.726z"/></g><g fill="#a3b8bf"><path d="m203.566 77.434h-171.896c-4.267 0-7.726-3.459-7.726-7.726s3.459-7.726 7.726-7.726h171.896c4.267 0 7.726 3.459 7.726 7.726s-3.459 7.726-7.726 7.726z"/><path d="m203.566 121.873h-171.896c-4.267 0-7.726-3.459-7.726-7.726s3.459-7.726 7.726-7.726h171.896c4.267 0 7.726 3.459 7.726 7.726s-3.459 7.726-7.726 7.726z"/><path d="m203.561 166.311h-171.896c-4.267 0-7.726-3.459-7.726-7.726s3.459-7.726 7.726-7.726h171.896c4.267 0 7.726 3.459 7.726 7.726s-3.459 7.726-7.726 7.726z"/><path d="m203.566 210.75h-171.896c-4.267 0-7.726-3.459-7.726-7.726s3.459-7.726 7.726-7.726h171.896c4.267 0 7.726 3.459 7.726 7.726s-3.459 7.726-7.726 7.726z"/><path d="m203.566 255.188h-171.896c-4.267 0-7.726-3.459-7.726-7.726s3.459-7.726 7.726-7.726h171.896c4.267 0 7.726 3.459 7.726 7.726s-3.459 7.726-7.726 7.726z"/><path d="m203.566 299.626h-171.896c-4.267 0-7.726-3.459-7.726-7.726s3.459-7.726 7.726-7.726h171.896c4.267 0 7.726 3.459 7.726 7.726s-3.459 7.726-7.726 7.726z"/></g><g><path d="m480.507 345.948c-.217-13.014-10.817-23.501-23.883-23.501-12.805 0-23.228 10.077-23.844 22.73l-.059-.001v-10.437c0-12.961-10.079-24-23.032-24.461-13.599-.483-24.775 10.397-24.775 23.887v-12.184c0-13.201-10.702-23.903-23.903-23.903-13.201 0-23.903 10.702-23.903 23.903v-70.543c0-15.675-12.707-28.382-28.382-28.382-15.675 0-28.382 12.707-28.382 28.382v141.5l-36.817-36.817c-13.479-13.479-35.332-13.479-48.811 0-13.479 13.479-13.479 35.332 0 48.811l71.793 71.793c18.968 18.967 44.693 29.623 71.517 29.623h41.359c55.858 0 101.14-45.282 101.14-101.14v-58.858-.401z" fill="#d2a572"/><g fill="#c59760"><path d="m308.721 223.062c3.521 0 6.884.646 9.991 1.815-3.814 1.438-7.237 3.667-10.076 6.494-5.129 5.142-8.309 12.233-8.309 20.067v141.505h-19.982v-141.504c0-7.834 3.18-14.925 8.309-20.067 5.142-5.13 12.233-8.31 20.067-8.31z"/><path d="m404.123 490.89c14.45 0 28.194-3.034 40.621-8.492-17.63 14.95-40.439 23.954-65.355 23.954h-41.365c-26.817 0-52.55-10.661-71.52-29.619l-71.788-71.8c-6.738-6.738-10.1-15.571-10.1-24.405 0-8.833 3.363-17.667 10.1-24.405 5.666-5.665 12.805-8.943 20.189-9.833-3.704 5.69-5.556 12.233-5.556 18.788 0 8.821 3.363 17.667 10.1 24.405l71.788 71.788c18.971 18.971 44.691 29.619 71.52 29.619z"/></g></g></g></svg>