<svg id="Capa_1" enable-background="new 0 0 497 497" height="512" viewBox="0 0 497 497" width="512" xmlns="http://www.w3.org/2000/svg"><g><path d="m469.801 347.484c-1.942-35.403-3.296-70.835-4.039-106.282v-240.841c-63.297-10.663-63.793 218.278-63.535 251.356.017 2.196 1.801 3.959 3.997 3.959h13.592c-.785 30.618-2.022 61.224-3.699 91.808z" fill="#c5d3dd"/><path d="m465.762 241.202v-240.841c-11.339-1.91-20.661 3.876-28.326 14.841v226c.742 35.447 2.097 70.879 4.039 106.282h28.326c-1.942-35.403-3.297-70.835-4.039-106.282z" fill="#b6c4cf"/><path d="m118.56 347.484c-1.942-35.404-3.297-70.838-4.038-106.287v-99.881h-45.607v99.881c-.742 35.449-2.097 70.883-4.038 106.287z" fill="#c5d3dd"/><path d="m57.27 459.996c-1.432 19.994 14.403 37.004 34.448 37.004s35.88-17.01 34.448-37.004c-4.56-63.666-6.814-92.151-9.043-140.839h-50.811c-2.23 48.724-4.49 77.277-9.042 140.839z" fill="#596c76"/><path d="m126.167 459.996c-4.56-63.666-6.814-92.151-9.043-140.839h-28.326c2.236 48.838 4.508 77.528 9.043 140.839 1.071 14.948-7.511 28.224-20.286 33.975 4.313 1.942 9.103 3.028 14.163 3.028 20.046.001 35.881-17.009 34.449-37.003z" fill="#465a61"/><path d="m299.846 347.484c-1.942-35.404-3.297-70.838-4.039-106.287v-99.881h-45.607v99.881c-.742 35.449-2.097 70.883-4.039 106.287z" fill="#c5d3dd"/><path d="m238.555 459.996c-1.432 19.994 14.403 37.004 34.449 37.004s35.88-17.01 34.448-37.004c-4.56-63.666-6.814-92.151-9.042-140.839h-50.812c-2.236 48.838-4.508 77.529-9.043 140.839z" fill="#596c76"/><path d="m307.452 459.996c-4.56-63.666-6.814-92.151-9.042-140.839h-28.326c2.236 48.838 4.508 77.528 9.043 140.839 1.07 14.948-7.511 28.224-20.286 33.975 4.313 1.942 9.103 3.028 14.163 3.028 20.046.001 35.88-17.009 34.448-37.003z" fill="#465a61"/><path d="m408.511 459.996c-1.432 19.994 14.402 37.004 34.448 37.004s35.881-17.01 34.449-37.004c-4.56-63.666-6.814-92.151-9.043-140.839h-50.812c-2.23 48.714-4.488 77.253-9.042 140.839z" fill="#596c76"/><ellipse cx="91.718" cy="92.544" fill="#c5d3dd" rx="72.216" ry="92.183"/><ellipse cx="91.718" cy="92.544" fill="#b6c4cf" rx="47.234" ry="67.201"/><path d="m91.718 25.343c-4.909 0-9.67 1.14-14.163 3.226 18.938 8.792 33.071 34.533 33.071 63.975s-14.133 55.183-33.071 63.975c4.493 2.086 9.254 3.226 14.163 3.226 25.603 0 47.234-30.775 47.234-67.201s-21.63-67.201-47.234-67.201z" fill="#9facba"/><path d="m328.039.377c-7.525.354-13.313 6.836-13.313 14.369v84.731c0 7.658-6.208 13.866-13.866 13.866-7.658 0-13.866-6.208-13.866-13.866v-84.731c0-7.533-5.789-14.015-13.314-14.369-8.034-.378-14.666 6.023-14.666 13.974v85.126c0 7.658-6.208 13.866-13.866 13.866-7.658 0-13.866-6.208-13.866-13.866v-85.126c0-7.726-6.263-13.99-13.99-13.99-7.726 0-13.99 6.263-13.99 13.99v98.992 27.973 5.687c0 20.835 16.89 37.724 37.724 37.724h63.954c20.835 0 37.724-16.89 37.724-37.724v-5.687-27.973-98.992c.001-7.951-6.631-14.353-14.665-13.974z" fill="#c5d3dd"/><g><path d="m328.039.377c-7.524.354-13.313 6.836-13.313 14.369v84.731c0 1.048-.126 2.064-.346 3.045v10.821 27.973 5.687c0 20.835-16.89 37.724-37.724 37.724h28.326c20.834 0 37.724-16.89 37.724-37.724v-5.687-27.973-98.992c-.001-7.951-6.633-14.353-14.667-13.974z" fill="#b6c4cf"/></g><path d="m477.408 459.996c-4.56-63.666-6.814-92.151-9.043-140.839h-28.326c2.229 48.688 4.482 77.173 9.042 140.839 1.071 14.948-7.511 28.224-20.286 33.975 4.313 1.942 9.103 3.028 14.163 3.028 20.047.001 35.882-17.009 34.45-37.003z" fill="#465a61"/></g></svg>