<?xml version="1.0" encoding="iso-8859-1"?>
<!-- Generator: Adobe Illustrator 19.0.0, SVG Export Plug-In . SVG Version: 6.00 Build 0)  -->
<svg xmlns="http://www.w3.org/2000/svg" xmlns:xlink="http://www.w3.org/1999/xlink" version="1.1" id="Layer_1" x="0px" y="0px" viewBox="0 0 512.471 512.471" style="enable-background:new 0 0 512.471 512.471;" xml:space="preserve">
<g>
	<path style="fill:#66C6B9;" d="M248.533,219.035C362.667,85.701,166.4,32.368,86.4,0.368   C118.4,83.568,94.933,213.701,248.533,219.035z"/>
	<path style="fill:#66C6B9;" d="M309.333,241.435c-71.467-96,64-122.667,120.533-140.8C403.2,156.101,412.8,245.701,309.333,241.435   z"/>
</g>
<path style="fill:#415A6B;" d="M395.733,128.368c0,0-13.867,12.8-32,33.067c1.067-9.6,4.267-19.2,8.533-27.733  c-6.4,10.667-10.667,21.333-13.867,33.067c-8.533,9.6-18.133,21.333-27.733,35.2c-3.2-16-4.267-30.933,0-43.733  c-5.333,14.933-6.4,33.067-4.267,51.2c-17.067,24.533-34.133,53.333-44.8,83.2c-12.8-43.733-34.133-86.4-56.533-123.733  c4.267-26.667,5.333-53.333-1.067-75.733c3.2,19.2,1.067,41.6-5.333,65.067c-12.8-20.267-25.6-38.4-37.333-54.4  c-2.133-18.133-8.533-34.133-16-50.133c5.333,13.867,8.533,26.667,10.667,41.6c-24.533-32-43.733-52.267-43.733-52.267  s25.6,34.133,55.467,85.333c-19.2-6.4-36.267-14.933-51.2-23.467c16,11.733,34.133,22.4,55.467,32  c33.067,58.667,68.267,136.533,75.733,211.2h25.6c-1.067-19.2,0-38.4,5.333-56.533c12.8-37.333,33.067-73.6,51.2-102.4  c14.933-5.333,28.8-11.733,39.467-19.2c-9.6,5.333-22.4,9.6-36.267,13.867C376.533,150.768,395.733,128.368,395.733,128.368z"/>
<path style="fill:#F3705A;" d="M410.667,413.168c-4.267-55.467-60.8-99.2-130.133-99.2s-125.867,43.733-130.133,99.2H410.667z"/>
<path style="fill:#FFD15C;" d="M492.8,347.035c-21.333-3.2-48,18.133-48,18.133c-33.067,3.2-61.867,30.933-61.867,30.933  s-12.8,3.2-21.333,9.6c0,0-3.2-12.8-19.2-18.133c0,0-54.4-7.467-67.2-2.133c-12.8,5.333-32-4.267-45.867-14.933  c-13.867-10.667-32-25.6-88.533-30.933C100.267,334.235,35.2,388.635,0,420.635l68.267,83.2c36.267-30.933,83.2-18.133,83.2-18.133  s73.6,16,105.6,24.533s49.067-14.933,49.067-14.933c14.933-6.4,208-123.733,204.8-126.933  C514.133,367.301,514.133,349.168,492.8,347.035z"/>
<path style="fill:#F7B64C;" d="M361.6,404.635C361.6,405.701,361.6,405.701,361.6,404.635c0,3.2,0,6.4-1.067,10.667  c-1.067,3.2-3.2,7.467-6.4,10.667c-3.2,3.2-7.467,6.4-12.8,7.467c-5.333,2.133-11.733,2.133-17.067,3.2  c-12.8,1.067-25.6,1.067-39.467,0c-6.4-1.067-12.8-1.067-20.267-3.2c-6.4-1.067-12.8-3.2-19.2-3.2s-12.8,0-18.133,0  c-6.4,0-11.733,1.067-16,1.067c-9.6,0-18.133,0-24.533-1.067c-6.4,0-9.6-1.067-9.6-1.067s3.2,1.067,9.6,2.133  c5.333,1.067,13.867,2.133,24.533,2.133c5.333,0,10.667-1.067,16-1.067c5.333,0,11.733,0,18.133,1.067  c6.4,1.067,12.8,2.133,19.2,3.2s13.867,2.133,20.267,3.2c13.867,1.067,27.733,1.067,40.533,0c6.4-1.067,12.8-1.067,18.133-3.2  c5.333-2.133,10.667-5.333,14.933-9.6c3.2-4.267,6.4-8.533,7.467-12.8c1.067-4.267,1.067-8.533,0-11.733c0-1.067,0-1.067,0-1.067  C362.667,403.568,362.667,404.635,361.6,404.635L361.6,404.635z"/>
<g>
</g>
<g>
</g>
<g>
</g>
<g>
</g>
<g>
</g>
<g>
</g>
<g>
</g>
<g>
</g>
<g>
</g>
<g>
</g>
<g>
</g>
<g>
</g>
<g>
</g>
<g>
</g>
<g>
</g>
</svg>
