<?xml version="1.0" encoding="iso-8859-1"?>
<!-- Generator: Adobe Illustrator 19.0.0, SVG Export Plug-In . SVG Version: 6.00 Build 0)  -->
<svg version="1.1" id="Capa_1" xmlns="http://www.w3.org/2000/svg" xmlns:xlink="http://www.w3.org/1999/xlink" x="0px" y="0px"
	 viewBox="0 0 416.846 416.846" style="enable-background:new 0 0 416.846 416.846;" xml:space="preserve">
<path style="fill:#FF4979;" d="M381.596,54.768c-47.093-46.999-123.347-46.999-170.44,0l-4,4l-4-4
	C154.705,9.129,78.43,11.409,32.791,59.86c-43.662,46.353-43.73,118.673-0.155,165.108l170.8,170.8c1.233,0.891,2.685,1.43,4.2,1.56
	c1.187-0.004,2.323-0.479,3.16-1.32l170.8-170.8C428.596,178.114,428.596,101.861,381.596,54.768L381.596,54.768z M244.636,207.688
	v78.76c-0.022,16.714-13.566,30.258-30.28,30.28h-14.48c-16.714-0.022-30.258-13.566-30.28-30.28v-78.76
	c-26.189-20.733-30.612-58.77-9.879-84.959s58.77-30.612,84.959-9.879s30.612,58.77,9.879,84.959
	c-2.9,3.664-6.216,6.979-9.879,9.879H244.636z"/>
<g>
</g>
<g>
</g>
<g>
</g>
<g>
</g>
<g>
</g>
<g>
</g>
<g>
</g>
<g>
</g>
<g>
</g>
<g>
</g>
<g>
</g>
<g>
</g>
<g>
</g>
<g>
</g>
<g>
</g>
</svg>
