<svg id="_x30_1_Grass" enable-background="new 0 0 48 48" height="512" viewBox="0 0 48 48" width="512" xmlns="http://www.w3.org/2000/svg"><path d="m25 40h-6c0-10.634-5.033-20.089-12.844-26.123-.455-.351-.049-1.069.486-.858 6.434 2.542 11.735 7.322 14.96 13.377 2.921-7.374 8.134-13.592 14.77-17.757.499-.312 1.028.342.628.773-7.446 8.028-12 18.775-12 30.588zm6.002-.065c.02-9.113 4.246-17.234 10.837-22.536.435-.35.029-1.046-.494-.853-9.541 3.521-16.345 12.691-16.345 23.454h5.999.001 5.999c0-4.636 1.861-8.833 4.872-11.899.339-.345.039-.93-.435-.836-5.93 1.186-10.403 6.398-10.434 12.67zm-24.875-15.442c4.217 3.838 6.873 9.356 6.873 15.507h6c0-7.802-5.262-14.359-12.427-16.356-.5-.139-.83.5-.446.849z" fill="#74cc5e"/><path d="m45 41h-42c-.553 0-1-.447-1-1s.447-1 1-1h42c.553 0 1 .447 1 1s-.447 1-1 1z" fill="#bc9c73"/><path d="m12.099 33.899c-1.115-3.662-3.209-6.891-5.972-9.405-.384-.349-.054-.989.446-.849 3.791 1.056 7.047 3.387 9.275 6.505zm29.772-5.798c.339-.345.039-.93-.435-.836-5.615 1.123-9.944 5.883-10.388 11.685l10.375-10.375c.105-.12.372-.396.448-.474zm-16.236 6.268c1.916-8.287 7.905-14.94 15.715-17.823.523-.193.926.503.492.853-2.492 2.005-4.653 4.422-6.37 7.135zm-7.615-2.389c-1.824-7.304-6.084-13.637-11.864-18.103-.455-.352-.049-1.069.486-.858 6.434 2.542 11.735 7.322 14.96 13.377 2.921-7.374 8.134-13.592 14.77-17.757.499-.313 1.028.341.628.773-3.065 3.305-5.655 7.101-7.624 11.212z" fill="#a8ea92"/></svg>