<?xml version="1.0" encoding="iso-8859-1"?>
<!-- Generator: Adobe Illustrator 19.0.0, SVG Export Plug-In . SVG Version: 6.00 Build 0)  -->
<svg version="1.1" id="Capa_1" xmlns="http://www.w3.org/2000/svg" xmlns:xlink="http://www.w3.org/1999/xlink" x="0px" y="0px"
	 viewBox="0 0 511.995 511.995" style="enable-background:new 0 0 511.995 511.995;" xml:space="preserve">
<path style="fill:#2196F3;" d="M80,239.998H16c-8.832,0-16,7.168-16,16v224c0,8.832,7.168,16,16,16h64c8.832,0,16-7.168,16-16v-224
	C96,247.166,88.832,239.998,80,239.998z"/>
<path style="fill:#FFD54F;" d="M501.888,274.526c-16.256-20.96-46.464-24.704-67.328-8.416l-118.016,91.776
	c-8.448,6.56-18.816,10.112-29.472,10.112H176c44.192,0,80-35.808,80-80c0-8.832-7.168-16-16-16H96v96v96h212.992
	c17.792,0,35.072-5.92,49.12-16.864l135.36-105.28C514.4,325.598,518.144,295.454,501.888,274.526z"/>
<g>
	<path style="fill:#2196F3;" d="M272,111.998c26.464,0,48-21.536,48-48s-21.536-48-48-48s-48,21.536-48,48
		S245.536,111.998,272,111.998z M272,47.998c8.832,0,16,7.168,16,16s-7.168,16-16,16s-16-7.168-16-16S263.168,47.998,272,47.998z"/>
	<path style="fill:#2196F3;" d="M368,143.998c-26.464,0-48,21.536-48,48s21.536,48,48,48s48-21.536,48-48
		S394.464,143.998,368,143.998z M368,207.998c-8.8,0-16-7.168-16-16s7.2-16,16-16s16,7.168,16,16S376.8,207.998,368,207.998z"/>
	<path style="fill:#2196F3;" d="M410.24,19.71c-6.752-5.6-16.832-4.736-22.528,2.048l-160,192
		c-5.664,6.784-4.736,16.896,2.048,22.528c2.976,2.496,6.624,3.712,10.24,3.712c4.608,0,9.152-1.952,12.32-5.76l160-192
		C417.952,35.454,417.024,25.342,410.24,19.71z"/>
</g>
<g>
</g>
<g>
</g>
<g>
</g>
<g>
</g>
<g>
</g>
<g>
</g>
<g>
</g>
<g>
</g>
<g>
</g>
<g>
</g>
<g>
</g>
<g>
</g>
<g>
</g>
<g>
</g>
<g>
</g>
</svg>
