<svg height="512" viewBox="0 0 58 58" width="512" xmlns="http://www.w3.org/2000/svg"><g id="Page-1" fill="none" fill-rule="evenodd"><g id="010---Smartphone"><path id="Path" d="m27.96 52h-23.96c-2.209139 0-4-1.790861-4-4v-44c0-2.209139 1.790861-4 4-4h26c2.209139 0 4 1.790861 4 4v23.67z" fill="#2fa8cc"/><path id="Path" d="m34 4v1s-32.38 0-33.94 43.69c-.0406788-.2277317-.06075995-.4586649-.06-.69v-44c0-2.209139 1.790861-4 4-4h26c2.209139 0 4 1.790861 4 4z" fill="#67b9cc"/><path id="Path" d="m58 39.42v3.16c-.0031474.3341542-.1716936.6450284-.45.83l-1.81 1.19-1.77 4.28.44 2.12c.0621112.3309285-.0425969.6712298-.28.91l-2.22 2.22c-.2387702.2374031-.5790715.3421112-.91.28l-2.12-.44-4.28 1.77-1.19 1.81c-.1849716.2783064-.4958458.4468526-.83.45h-3.16c-.3341542-.0031474-.6450284-.1716936-.83-.45l-1.19-1.81-4.28-1.77-2.12.44c-.3309285.0621112-.6712298-.0425969-.91-.28l-2.22-2.22c-.2374031-.2387702-.3421112-.5790715-.28-.91l.44-2.12-1.77-4.28-1.81-1.19c-.2783064-.1849716-.4468526-.4958458-.45-.83v-3.16c.0031474-.3341542.1716936-.6450284.45-.83l1.81-1.19 1.77-4.28-.44-2.12c-.0621112-.3309285.0425969-.6712298.28-.91l2.22-2.22c.2387702-.2374031.5790715-.3421112.91-.28l2.12.44.88-.36 3.4-1.41 1.19-1.81c.1849716-.2783064.4958458-.4468526.83-.45h3.16c.3341542.0031474.6450284.1716936.83.45l1.19 1.81 4.28 1.77 2.12-.44c.3309285-.0621112.6712298.0425969.91.28l2.22 2.22c.2374031.2387702.3421112.5790715.28.91l-.44 2.12 1.77 4.28 1.81 1.19c.2783064.1849716.4468526.4958458.45.83z" fill="#bdc3c7"/><circle id="Oval" cx="41" cy="41" fill="#7f8c8d" r="10"/><g fill="#547580"><path id="Path" d="m29 0-2.417 4.029c-.3614512.60241189-1.012471.97100676-1.715.971h-15.736c-.70252903.00000676-1.35354881-.36858811-1.715-.971l-2.417-4.029z"/><path id="Path" d="m22.63 48h-15.63c-.55228475 0-1-.4477153-1-1s.44771525-1 1-1h15.63c.5522847 0 1 .4477153 1 1s-.4477153 1-1 1z"/></g></g></g></svg>