<?xml version="1.0" encoding="iso-8859-1"?>
<!-- Generator: Adobe Illustrator 19.0.0, SVG Export Plug-In . SVG Version: 6.00 Build 0)  -->
<svg version="1.1" id="Capa_1" xmlns="http://www.w3.org/2000/svg" xmlns:xlink="http://www.w3.org/1999/xlink" x="0px" y="0px"
	 viewBox="0 0 512.001 512.001" style="enable-background:new 0 0 512.001 512.001;" xml:space="preserve">
<path style="fill:#10BB67;" d="M406.173,299.751h-59.777c-9.898,0-17.189-9.469-14.431-19.153
	c3.872-13.551,6.893-26.457,8.976-38.395c4.165-23.802,5.808-48.91,4.869-74.663c-0.117-3.564,1.026-7.069,3.256-9.87
	c24.931-31.458,60.716-49.101,62.241-49.834c4.224-2.067,9.21-2.009,13.434,0.146c4.194,2.171,7.156,6.174,7.948,10.838
	C440.396,164.664,436.286,299.751,406.173,299.751z"/>
<path style="fill:#0CA656;" d="M165.598,299.751h-59.777c-30.369,0-34.107-135.782-26.515-180.93
	c1.672-9.816,12.294-15.344,21.353-10.999c20.831,10.149,44.099,27.841,62.065,49.584c2.347,2.845,3.578,6.453,3.461,10.134
	c-0.939,25.753,0.704,50.861,4.869,74.649c2.082,11.952,5.104,24.858,8.976,38.409c1.291,4.531,0.41,9.415-2.435,13.184
	C174.75,297.537,170.32,299.751,165.598,299.751z"/>
<path style="fill:#10BB67;" d="M222.353,299.751h-56.756c-6.717,0-12.583-4.443-14.431-10.882
	c-4.165-14.578-7.421-28.54-9.679-41.504c-4.546-25.841-6.335-53.075-5.338-80.91c2.171-63.399,18.185-109.978,18.889-111.928
	c3.855-11.058,18.383-13.652,25.782-4.575c1.056,1.291,26.105,32.089,48.573,81.028c1.261,2.728,1.672,5.778,1.173,8.74
	c-3.051,18.42-4.605,36.884-4.605,54.908c0,28.246,3.695,57.342,10.97,86.469C239.317,290.702,232.003,299.751,222.353,299.751z"/>
<path style="fill:#0CA656;" d="M346.396,299.751H289.64c-9.649,0-16.964-9.049-14.578-18.655
	c7.275-29.126,10.97-58.222,10.97-86.469c0-18.024-1.555-36.488-4.605-54.908c-0.499-2.962-0.088-6.013,1.173-8.74
	c22.467-48.939,47.517-79.738,48.573-81.028c7.415-9.095,21.936-6.46,25.782,4.575c0.704,1.95,16.719,48.514,18.889,111.928l0,0
	c0.997,27.836-0.792,55.07-5.338,80.925c-2.259,12.95-5.514,26.912-9.679,41.489C358.979,295.308,353.113,299.751,346.396,299.751z"
	/>
<path style="fill:#32D736;" d="M269.21,7.208C266.508,2.402,261.401,0,255.997,0c-5.404,0-10.511,2.402-13.214,7.208
	c-24.029,43.251-46.857,118.639-46.857,187.42c0,30.637,3.905,62.173,11.714,93.71c1.8,6.609,7.809,11.413,14.717,11.413h67.279
	c6.907,0,12.917-4.805,14.717-11.413c7.809-31.537,11.714-63.073,11.714-93.71C316.068,121.041,290.835,45.953,269.21,7.208z"/>
<path style="fill:#10BB67;" d="M289.636,299.751h-33.639V0c5.404,0,10.511,2.402,13.214,7.208
	c21.624,38.744,46.857,113.833,46.857,187.42c0,30.637-3.905,62.173-11.714,93.71C302.553,294.946,296.544,299.751,289.636,299.751z
	"/>
<path style="fill:#994C0F;" d="M376.138,331.788H135.856c-9.313,0-16.52,8.709-14.717,18.02l30.035,150.176
	c1.503,6.909,7.509,12.015,14.717,12.015h180.212c7.208,0,13.214-5.105,14.717-12.015l30.035-150.176
	C392.658,340.499,385.451,331.788,376.138,331.788z"/>
<path style="fill:#BF6015;" d="M406.173,269.716H105.821c-8.411,0-14.874,6.607-14.874,15.018v32.038
	c0,24.93,19.977,45.053,44.91,45.053h240.282c24.931,0,45.053-20.123,45.053-45.053v-32.038
	C421.191,276.323,414.584,269.716,406.173,269.716z"/>
<path style="fill:#713708;" d="M390.855,349.81L360.82,499.986c-1.503,6.909-7.509,12.015-14.717,12.015h-90.106V331.789h120.141
	C385.451,331.788,392.658,340.499,390.855,349.81z"/>
<path style="fill:#994C10;" d="M421.191,284.733v32.038c0,24.93-20.122,45.053-45.053,45.053H255.997v-92.108h150.176
	C414.584,269.716,421.191,276.323,421.191,284.733z"/>
<g>
</g>
<g>
</g>
<g>
</g>
<g>
</g>
<g>
</g>
<g>
</g>
<g>
</g>
<g>
</g>
<g>
</g>
<g>
</g>
<g>
</g>
<g>
</g>
<g>
</g>
<g>
</g>
<g>
</g>
</svg>
