<?xml version="1.0" encoding="iso-8859-1"?>
<!-- Generator: Adobe Illustrator 19.0.0, SVG Export Plug-In . SVG Version: 6.00 Build 0)  -->
<svg version="1.1" id="Capa_1" xmlns="http://www.w3.org/2000/svg" xmlns:xlink="http://www.w3.org/1999/xlink" x="0px" y="0px"
	 viewBox="0 0 512.01 512.01" style="enable-background:new 0 0 512.01 512.01;" xml:space="preserve">
<g>
	<path style="fill:#455A64;" d="M416.009,80.005c0-8.832-7.168-16-16-16H253.066c1.792-5.024,2.944-10.368,2.944-16
		c0-26.464-21.536-48-48-48s-48,21.536-48,48c0,5.632,1.152,10.976,2.944,16H16.01c-8.832,0-16,7.168-16,16s7.168,16,16,16h384
		C408.841,96.005,416.009,88.837,416.009,80.005z"/>
	<path style="fill:#455A64;" d="M464.009,192.005h-64c-8.832,0-16,7.168-16,16s7.168,16,16,16h64c8.8,0,16,7.168,16,16v128
		c0,8.832,7.168,16,16,16s16-7.168,16-16v-128C512.01,213.541,490.473,192.005,464.009,192.005z"/>
</g>
<path style="fill:#ECEFF1;" d="M400.009,128.005h-384c-6.144,0-11.744,3.52-14.432,9.056c-2.656,5.536-1.92,12.128,1.92,16.928
	l60.512,75.616v218.4c0,35.296,28.704,64,64,64h224c35.296,0,64-28.704,64-64v-304C416.009,135.173,408.841,128.005,400.009,128.005
	z"/>
<path style="fill:#2196F3;" d="M96.009,352.005v96c0,17.664,14.368,32,32,32h224c17.664,0,32-14.336,32-32v-96H96.009z"/>
<g>
</g>
<g>
</g>
<g>
</g>
<g>
</g>
<g>
</g>
<g>
</g>
<g>
</g>
<g>
</g>
<g>
</g>
<g>
</g>
<g>
</g>
<g>
</g>
<g>
</g>
<g>
</g>
<g>
</g>
</svg>
