<svg id="Layer_1" enable-background="new 0 0 512 512" height="512" viewBox="0 0 512 512" width="512" xmlns="http://www.w3.org/2000/svg"><g><path d="m396.67 296.943-128.533-232.472c-2.641-4.777-7.67-7.742-13.127-7.742-5.459 0-10.486 2.965-13.127 7.742l-128.533 232.472c-4.01 7.25-1.381 16.377 5.869 20.385 2.301 1.272 4.789 1.876 7.244 1.876 5.281 0 10.404-2.796 13.141-7.745l115.406-208.73 115.406 208.73c4.008 7.25 13.137 9.878 20.385 5.869 7.25-4.008 9.879-13.135 5.869-20.385z" fill="#ca6d36"/><path d="m396.67 296.943-128.533-232.472c-2.641-4.777-7.67-7.742-13.127-7.742v46l115.406 208.73c4.008 7.25 13.137 9.878 20.385 5.869 7.25-4.008 9.879-13.135 5.869-20.385z" fill="#b24d00"/><path d="m493.1 61.722c-2.258-2.52-56.057-61.72-124.631-61.722-68.576 0-122.377 59.2-124.635 61.72-5.1 5.696-5.1 14.317 0 20.014 2.258 2.52 56.057 61.72 124.631 61.722 68.576 0 122.377-59.2 124.635-61.72 5.099-5.697 5.099-14.318 0-20.014z" fill="#54e360"/><g><path d="m126.477 289.201c-61.428 0-111.4 49.973-111.4 111.398 0 61.427 49.973 111.4 111.4 111.4 61.426 0 111.4-49.974 111.4-111.4 0-61.425-49.975-111.398-111.4-111.398z" fill="#ff5b5b"/><path d="m383.543 289.201c-61.426 0-111.4 49.973-111.4 111.398 0 61.427 49.975 111.4 111.4 111.4s111.398-49.974 111.398-111.4c0-61.425-49.972-111.398-111.398-111.398z" fill="#ff2323"/></g><path d="m493.1 61.722c-2.258-2.52-56.057-61.72-124.631-61.722h-.002v143.455c68.576 0 122.375-59.2 124.633-61.72 5.099-5.696 5.099-14.317 0-20.013z" fill="#1fbf66"/></g></svg>