<svg height="512" viewBox="0 0 64 64" width="512" xmlns="http://www.w3.org/2000/svg"><g id="Icon"><path d="m45.344 8.611a2.8 2.8 0 0 0 -1.511-1.987c-1.5-.7-3.406.206-4.25 2.017l-5.566 11.936a1 1 0 0 0 .09.96 1.048 1.048 0 0 0 .872.463 4.937 4.937 0 0 1 3.121 1.1 1 1 0 0 0 1.531-.358l5.389-11.565a4.077 4.077 0 0 0 .324-2.566z" fill="#66bb6a"/><path d="m29.983 20.577-5.566-11.936c-.844-1.811-2.75-2.718-4.25-2.017a2.8 2.8 0 0 0 -1.511 1.987 4.073 4.073 0 0 0 .324 2.565l5.392 11.563a1 1 0 0 0 1.528.361 4.937 4.937 0 0 1 3.121-1.1h.056a1 1 0 0 0 .906-1.423z" fill="#66bb6a"/><path d="m32 4c-1.654 0-3 1.626-3 3.625v13.375a1 1 0 0 0 1 1h4a1 1 0 0 0 1-1v-13.375c0-1.999-1.346-3.625-3-3.625z" fill="#81c785"/><path d="m41.89 28.09-.46 2.91-.31 2-2.21 13.99-.32 2-1.07 6.79a4.973 4.973 0 0 1 -4.94 4.22h-1.16a4.973 4.973 0 0 1 -4.94-4.22l-2.33-14.78-.32-2-1.72-10.91a6.993 6.993 0 0 1 6.91-8.09h5.96a6.993 6.993 0 0 1 6.91 8.09z" fill="#f37046"/><g fill="#f9aa92"><path d="m41.43 31-.31 2h-9.12a1 1 0 0 1 0-2z"/><path d="m33 40a1 1 0 0 1 -1 1h-7.85l-.32-2h8.17a1 1 0 0 1 1 1z"/><path d="m38.91 46.99-.32 2-6.6-.04a1.01 1.01 0 0 1 -.99-1.01.994.994 0 0 1 1-.99h.01z"/></g></g></svg>