<svg height="512" viewBox="0 0 128 128" width="512" xmlns="http://www.w3.org/2000/svg"><g><circle cx="64" cy="64" fill="#ffca28" r="57.694"/><circle cx="64" cy="64" fill="#eaeaea" r="47.962"/><path d="m82.973 45.027-22.39 15.556-15.556 22.39 22.39-15.556z" fill="#ff6e6e"/><g fill="#65727f"><circle cx="64" cy="64" r="4.749"/><path d="m99.119 96.65c-.791.86-1.611 1.68-2.47 2.47l-4.549-4.55a1.75 1.75 0 0 1 0-2.47 1.732 1.732 0 0 1 2.47 0z"/><path d="m35.9 35.9a1.736 1.736 0 0 1 -1.23.52 1.757 1.757 0 0 1 -1.24-.52l-4.55-4.55c.79-.86 1.61-1.68 2.47-2.47l4.55 4.55a1.732 1.732 0 0 1 0 2.47z"/><path d="m35.9 94.57-4.55 4.55c-.86-.79-1.68-1.61-2.47-2.47l4.55-4.55a1.747 1.747 0 0 1 2.47 2.47z"/><path d="m99.119 31.35-4.55 4.55a1.747 1.747 0 0 1 -2.47-2.47l4.55-4.55c.859.79 1.679 1.61 2.47 2.47z"/><path d="m100.063 60.93v1.725h5.414v2.465h-5.414v1.95h5.963v2.465h-8.718v-11.07h8.718v2.465z"/><path d="m22.515 58.465h2.985l1.693 6.913 2.3-6.913h2.965l2.289 6.913 1.692-6.913h2.98l-3.206 11.07h-2.773l-2.466-7.009-2.465 7.009h-2.771z"/><path d="m58.835 22.515h2.756l4.819 6.542v-6.542h2.755v11.07h-2.755l-4.819-6.542v6.542h-2.756z"/><path d="m59.239 103.632 1.547-1.853a5.657 5.657 0 0 0 3.641 1.4c1.031 0 1.563-.419 1.563-1.015 0-.661-.516-.806-2.127-1.193-2.368-.531-4.125-1.176-4.125-3.4 0-2.126 1.709-3.544 4.238-3.544a6.692 6.692 0 0 1 4.48 1.514l-1.4 1.966a5.307 5.307 0 0 0 -3.156-1.174c-.887 0-1.387.419-1.387.967 0 .676.533.9 2.176 1.256 2.482.532 4.076 1.241 4.076 3.32 0 2.223-1.691 3.609-4.43 3.609a7.493 7.493 0 0 1 -5.096-1.853z"/></g></g></svg>