<svg height="512pt" viewBox="-85 0 512 512" width="512pt" xmlns="http://www.w3.org/2000/svg"><path d="m171.109375 0c-94.347656 0-171.109375 83.757812-171.109375 186.714844 0 39.769531 24.449219 102.382812 72.679688 186.121094 35.890624 62.332031 73.660156 116.707031 84.378906 131.886718 3.222656 4.554688 8.46875 7.277344 14.050781 7.277344h.011719c5.574218 0 10.828125-2.730469 14.039062-7.285156 26.203125-37.171875 156.742188-227.015625 157.0625-318v-.320313c-.160156-102.816406-76.863281-186.394531-171.113281-186.394531zm0 247.421875c-42.703125 0-77.453125-34.746094-77.453125-77.453125 0-42.703125 34.75-77.453125 77.453125-77.453125 42.707031 0 77.453125 34.75 77.453125 77.453125 0 42.707031-34.746094 77.453125-77.453125 77.453125zm0 0" fill="#ff6426"/><path d="m342.222656 186.394531v.320313c-.320312 90.984375-130.859375 280.828125-157.0625 318-3.210937 4.554687-8.464844 7.285156-14.039062 7.285156-.011719 0-.011719 0-.011719 0v-264.578125c42.707031 0 77.453125-34.746094 77.453125-77.453125 0-42.703125-34.746094-77.453125-77.453125-77.453125v-92.515625c94.25 0 170.953125 83.578125 171.113281 186.394531zm0 0" fill="#d03b00"/></svg>