<?xml version="1.0" encoding="iso-8859-1"?>
<!-- Generator: Adobe Illustrator 19.0.0, SVG Export Plug-In . SVG Version: 6.00 Build 0)  -->
<svg version="1.1" id="Capa_1" xmlns="http://www.w3.org/2000/svg" xmlns:xlink="http://www.w3.org/1999/xlink" x="0px" y="0px"
	 viewBox="0 0 512.001 512.001" style="enable-background:new 0 0 512.001 512.001;" xml:space="preserve">
<path style="fill:#FED42D;" d="M424.7,385.601h-17.133V191.734c0-5.855-0.292-11.764-0.868-17.561
	c-0.819-8.243-8.155-14.262-16.411-13.442c-2.273,0.227-4.367,0.963-6.206,2.064L329.42,71.369c1.831-1.094,3.465-2.581,4.738-4.465
	c4.638-6.864,2.834-16.189-4.03-20.827c-24.936-16.848-53.486-26.873-83.332-29.38c0.064-0.563,0.107-1.128,0.107-1.697
	c0-3.949-1.6-7.81-4.4-10.609c-2.79-2.79-6.66-4.391-10.6-4.391c-3.95,0-7.811,1.601-10.61,4.391c-2.79,2.79-4.39,6.66-4.39,10.609
	c0,0.571,0.043,1.139,0.108,1.703c-89.92,7.584-160.778,83.183-160.778,175.03v193.868H39.101c-8.284,0-15,6.716-15,15
	s6.716,15,15,15h32.133h50.281c7.349,54.358,54.047,96.4,110.387,96.4s103.037-42.042,110.385-96.4h50.281h32.133
	c8.284,0,15-6.716,15-15C439.7,392.316,432.984,385.601,424.7,385.601z"/>
<path style="fill:#FCBF29;" d="M424.7,385.601h-17.133V191.734c0-5.855-0.292-11.764-0.868-17.561
	c-0.819-8.243-8.155-14.262-16.411-13.442c-2.273,0.227-4.367,0.963-6.206,2.064L329.42,71.369c1.831-1.094,3.465-2.581,4.738-4.465
	c4.638-6.864,2.834-16.189-4.03-20.827c-24.936-16.848-53.486-26.873-83.332-29.38c0.064-0.563,0.107-1.128,0.107-1.697
	c0-3.949-1.6-7.81-4.4-10.609c-2.79-2.79-6.66-4.391-10.6-4.391H231.9v512h0.001c56.34,0,103.037-42.042,110.385-96.4h50.281H424.7
	c8.284,0,15-6.716,15-15S432.984,385.601,424.7,385.601z"/>
<path style="fill:#FD3018;" d="M392.567,0.001c-52.567,0-95.334,42.767-95.334,95.334c0,52.566,42.767,95.333,95.334,95.333
	s95.334-42.767,95.334-95.333C487.901,42.768,445.135,0.001,392.567,0.001z"/>
<path style="fill:#FED42D;" d="M231.901,512.001c56.34,0,103.037-42.042,110.385-96.4H121.515
	C128.863,469.959,175.562,512.001,231.901,512.001z"/>
<path style="fill:#FCBF29;" d="M121.515,415.601c7.349,54.358,54.047,96.4,110.386,96.4v-96.4H121.515z"/>
<path style="fill:#E61E14;" d="M487.901,95.335c0-52.219-42.203-94.759-94.291-95.32v190.641
	C445.698,190.093,487.901,147.553,487.901,95.335z"/>
<g>
</g>
<g>
</g>
<g>
</g>
<g>
</g>
<g>
</g>
<g>
</g>
<g>
</g>
<g>
</g>
<g>
</g>
<g>
</g>
<g>
</g>
<g>
</g>
<g>
</g>
<g>
</g>
<g>
</g>
</svg>
