<svg id="Capa_1" enable-background="new 0 0 497 497" height="512" viewBox="0 0 497 497" width="512" xmlns="http://www.w3.org/2000/svg"><g><path d="m71.329 0h-46.329c-13.807 0-25 11.193-25 25v447c0 13.807 11.193 25 25 25h42.828l384.172-20c13.807 0 25-11.193 25-25v-382.733c0-13.807-11.193-25-25-25h-318.462c-7.07 0-13.809-2.993-18.549-8.239l-25.111-27.789c-4.74-5.246-11.479-8.239-18.549-8.239z" fill="#ffe187"/><g><path d="m472 44.267h-30c13.807 0 25 11.193 25 25v382.733c0 13.807-11.193 25-25 25h20c13.807 0 25-11.193 25-25l10-340.351v-42.382c0-13.807-11.193-25-25-25z" fill="#ffd26f"/></g><path d="m453 477-345.566 20h-39.606c-13.807 0-25-11.193-25-25v-360.351c0-13.807 11.193-25 25-25h385.172c13.807 0 25 11.193 25 25v340.351c0 13.807-11.193 25-25 25z" fill="#f9f6f9"/><path d="m472 86.649h-30c13.807 0 25 11.193 25 25v350.351c0 13.807-11.193 25-25 25h20c13.807 0 25-11.193 25-25l10-314.566v-35.784c0-13.808-11.193-25.001-25-25.001z" fill="#dedbec"/><path d="m453 497h-345.566c-13.807 0-25-11.193-25-25v-324.566c0-13.807 11.193-25 25-25h345.566c13.807 0 25 11.193 25 25v324.566c0 13.807-11.193 25-25 25z" fill="#ffe187"/><path d="m472 122.434h-30c13.807 0 25 11.193 25 25v324.566c0 13.807-11.193 25-25 25h30c13.807 0 25-11.193 25-25v-324.566c0-13.807-11.193-25-25-25z" fill="#ffd26f"/><path d="m222.217 254.389c-15.03 15.03-15.03 39.398 0 54.428l63.964 63.964c1.953 1.953 5.119 1.953 7.071 0l63.964-63.964c15.03-15.03 15.03-39.398 0-54.428-15.03-15.03-39.398-15.03-54.428 0l-9.536 9.536c-1.953 1.953-5.118 1.953-7.071 0l-9.536-9.536c-15.03-15.029-39.398-15.029-54.428 0z" fill="#ea7bc1"/><path d="m361.256 457h90.744c2.761 0 5-2.239 5-5v-24.422c0-2.762-2.239-5-5-5h-90.744c-2.761 0-5 2.238-5 5v24.422c0 2.761 2.239 5 5 5z" fill="#f9f6f9"/></g></svg>