<?xml version="1.0" encoding="iso-8859-1"?>
<!-- Generator: Adobe Illustrator 19.0.0, SVG Export Plug-In . SVG Version: 6.00 Build 0)  -->
<svg xmlns="http://www.w3.org/2000/svg" xmlns:xlink="http://www.w3.org/1999/xlink" version="1.1" id="Capa_1" x="0px" y="0px" viewBox="0 0 512.001 512.001" style="enable-background:new 0 0 512.001 512.001;" xml:space="preserve">
<path style="fill:#B1DEDA;" d="M428.801,5.195C425.774,1.886,421.488,0,417,0H95c-4.488,0-8.773,1.886-11.801,5.195  c-3.031,3.313-4.531,7.746-4.137,12.219l42.547,480c0.73,8.254,7.649,14.586,15.938,14.586h236.91  c8.289,0,15.207-6.332,15.938-14.586l42.543-480C433.332,12.941,431.832,8.508,428.801,5.195z"/>
<g>
	<path style="fill:#7FCAC3;" d="M428.801,5.195C425.774,1.886,421.488,0,417,0h-68.746c4.488,0,8.774,1.886,11.801,5.195   c3.031,3.313,4.531,7.746,4.137,12.219l-42.543,480c-0.73,8.254-7.648,14.586-15.938,14.586h68.746   c8.289,0,15.207-6.332,15.938-14.586l42.543-480C433.332,12.941,431.832,8.508,428.801,5.195z"/>
	<path style="fill:#7FCAC3;" d="M256,202c-13.531,0-26.543,5.332-35.703,14.633c-8.453,8.578-13.008,19.742-12.836,31.438   L211.429,512h89.14l3.969-263.93c0.172-11.696-4.383-22.859-12.836-31.438C282.543,207.332,269.532,202,256,202z"/>
</g>
<path style="fill:#4DB5AB;" d="M291.704,216.633C282.543,207.332,269.532,202,256,202c-5.137,0-10.195,0.777-15,2.238  c7.852,2.39,15.02,6.625,20.703,12.395c8.453,8.578,13.008,19.742,12.836,31.438L270.571,512h30l3.969-263.93  C304.712,236.375,300.156,225.211,291.704,216.633z"/>
<path style="fill:#7FCAC3;" d="M157.995,258.75c-1.346-11.617-7.31-22.098-16.805-29.508c-10.289-8.035-23.883-11.633-37.299-9.879  c-2.317,0.305-4.575,0.816-6.801,1.418l24.52,276.632c0.73,8.254,7.649,14.586,15.938,14.586h49.707L157.995,258.75z"/>
<g>
	<path style="fill:#4DB5AB;" d="M157.995,258.75c-1.346-11.617-7.31-22.098-16.805-29.508c-10.289-8.035-23.883-11.633-37.299-9.879   c-0.726,0.094-1.416,0.312-2.131,0.446c7.799,1.429,15.17,4.613,21.34,9.434c9.495,7.41,15.459,17.891,16.805,29.508l29.259,253.25   h18.09L157.995,258.75z"/>
	<path style="fill:#4DB5AB;" d="M407.395,219.364c-13.418-1.754-27.011,1.844-37.301,9.879c-9.492,7.41-15.457,17.891-16.805,29.508   L324.03,512h50.428c8.289,0,15.207-6.332,15.938-14.586l24.5-276.433C412.445,220.281,409.954,219.699,407.395,219.364z"/>
</g>
<g>
</g>
<g>
</g>
<g>
</g>
<g>
</g>
<g>
</g>
<g>
</g>
<g>
</g>
<g>
</g>
<g>
</g>
<g>
</g>
<g>
</g>
<g>
</g>
<g>
</g>
<g>
</g>
<g>
</g>
</svg>
