<svg height="512" viewBox="0 0 58 58" width="512" xmlns="http://www.w3.org/2000/svg"><g id="Page-1" fill="none" fill-rule="evenodd"><g id="010---Watermelon" fill-rule="nonzero" transform="translate(0 -1)"><path id="Shape" d="m48.73 44.03c7.4224083-10.0600541 6.9678099-23.8999203-1.0987725-33.4512072-8.0665825-9.55128685-21.6351767-12.31566867-32.7955379-6.68156087-11.16036124 5.63410779-16.9932789 18.19299427-14.09826756 30.35505587 2.89501133 12.1620616 13.76070486 20.7460735 26.26257796 20.7477122 2.1842665.004113 4.3607-.2612238 6.48-.79" fill="#4fba6f"/><path id="Shape" d="m43.49 38.79c1.0138995-3.5065557 1.5223553-7.1398257 1.51-10.79 0-14.91-8.06-27-18-27s-18 12.09-18 27 8.06 27 18 27c2.0250786-.0091833 4.0180796-.506576 5.81-1.45" fill="#24ae5f"/><path id="Shape" d="m36.88 32.18c.08-1.36.12-2.76.12-4.18 0-14.91-4.48-27-10-27s-10 12.09-10 27 4.48 27 10 27c1.63 0 3.17-1.05 4.52-2.92z" fill="#4fba6f"/><path id="Shape" d="m55.6 50.9 2.1 2.1c.1929593.1911859.2998408.4526426.2960685.724251-.0037724.2716083-.117874.5299958-.3160685.715749-7.1220613 6.3550328-17.9664401 6.045619-24.7145639-.7051605-6.7481239-6.7507796-7.0532708-17.5952792-.6954361-24.7148395.1832529-.1989374.4402482-.3137658.7106986-.3175483.2704504-.0037826.5305565.1038137.7193014.2975483l2.1 2.1z" fill="#71c285"/><path id="Shape" d="m55.6 50.9c-5.467619 5.4676189-14.3323809 5.4676188-19.7999999-.0000001-5.4676189-5.467619-5.467619-14.3323809-.0000001-19.7999999z" fill="#ff5364"/><g fill="#802d40"><path id="Shape" d="m39.339 48.364c-.4043959-.0000863-.7689341-.2437275-.923678-.6173454-.1547439-.373618-.0692299-.8036603.216678-1.0896546l1.414-1.414c.3923789-.3789722 1.0160848-.3735524 1.4018186.0121814s.3911536 1.0094397.0121814 1.4018186l-1.414 1.414c-.1874927.1875494-.4418052.2929434-.707.293z"/><path id="Shape" d="m38.632 42h-1.414c-.5522847 0-1-.4477153-1-1s.4477153-1 1-1h1.414c.5522847 0 1 .4477153 1 1s-.4477153 1-1 1z"/><path id="Shape" d="m45.7 50.485c-.5522847 0-1-.4477153-1-1v-1.414c0-.5522847.4477153-1 1-1s1 .4477153 1 1v1.414c0 .5522847-.4477153 1-1 1z"/></g></g></g></svg>