<svg id="Capa_1" enable-background="new 0 0 512 512" height="512" viewBox="0 0 512 512" width="512" xmlns="http://www.w3.org/2000/svg"><g><path d="m229.045 114.683v130.079h58.614c4.209 0 7.621 3.426 7.621 7.652v20.769c0 4.226-3.412 7.652-7.621 7.652h-5.022v143.117h5.022 211.38v-309.269z" fill="#ff656f"/><path d="m314.472 114.683h-85.427v134.197l53.591 182.278h5.022 211.38v-195.687c.001-100.566-184.566-120.788-184.566-120.788z" fill="#ff4756"/><path d="m319.676 295.164c4.098-6.119 6.489-13.472 6.489-21.372v-20.684c0-21.267-17.24-38.507-38.507-38.507h-5.5c-8.864 0-16.05-7.186-16.05-16.05v-83.867h-37.064v134.196l53.591 182.278h5.022 38.491c-.082-7.699-2.422-14.867-6.406-20.857-4.149-6.238-6.221-13.628-6.221-21.119v-72.999c.002-7.451 2.01-14.829 6.155-21.019z" fill="#fc2d39"/><path d="m504.379 423.951h-280.038c-4.209 0-7.621 3.412-7.621 7.621v20.685c0 4.209 3.412 7.621 7.621 7.621h280.038c4.209 0 7.621-3.412 7.621-7.621v-20.685c0-4.209-3.412-7.621-7.621-7.621z" fill="#dfebfa"/><path d="m216.721 431.572v20.685c0 4.209 3.412 7.621 7.621 7.621h101.067c.495-2.464.757-5.012.757-7.621v-20.685c0-2.611-.285-5.154-.782-7.621h-101.043c-4.209 0-7.62 3.412-7.62 7.621z" fill="#b1dbfc"/><path d="m361.168 185.35c-40.031 0-74.231 24.945-87.917 60.137l9.385 86.378c16.901 25.369 45.762 42.087 78.532 42.087 52.081 0 94.301-42.22 94.301-94.301s-42.22-94.301-94.301-94.301z" fill="#dfebfa"/><path d="m292.611 214.928c-8.281 8.77-14.91 19.117-19.359 30.559l9.385 86.378c7.936 11.912 18.51 21.916 30.886 29.178v-44.86c0-7.451 2.008-14.828 6.154-21.019 4.097-6.119 6.489-13.471 6.489-21.372v-20.684c0-19.588-14.629-35.748-33.555-38.18z" fill="#b1dbfc"/><g><g><path d="m298.387 82.065v-22.322c0-4.209-3.412-7.621-7.621-7.621h-20.685c-4.209 0-7.621 3.412-7.621 7.621v22.323h35.927z" fill="#b1dbfc"/></g><path d="m288.045 52.122h-17.963c-4.209 0-7.621 3.412-7.621 7.621v22.323h17.963v-22.323c0-4.209 3.412-7.621 7.621-7.621z" fill="#8bcaff"/><path d="m504.061 80.006h-280.038c-4.209 0-7.621 3.412-7.621 7.621v20.685c0 4.209 3.412 7.621 7.621 7.621h280.038c4.209 0 7.621-3.412 7.621-7.621v-20.685c0-4.209-3.412-7.621-7.621-7.621z" fill="#dfebfa"/><path d="m262.461 108.312v-20.685c0-4.209 3.412-7.621 7.621-7.621h-46.058c-4.209 0-7.621 3.412-7.621 7.621v20.685c0 4.209 3.412 7.621 7.621 7.621h46.058c-4.209 0-7.621-3.412-7.621-7.621z" fill="#b1dbfc"/></g><path d="m348.051 252.06c-19.066 0-35.861 9.677-45.772 24.379-1.302 1.931-1.302 4.49 0 6.421 9.911 14.703 26.706 24.38 45.772 24.38 19.065 0 35.861-9.677 45.772-24.38 1.302-1.931 1.302-4.49 0-6.421-9.911-14.702-26.707-24.379-45.772-24.379z" fill="#fee55a"/><path d="m388.764 270.05c-10.086 11.043-24.578 17.99-40.713 17.99s-30.627-6.947-40.713-17.99c-1.832 2.005-3.536 4.13-5.059 6.389-1.302 1.931-1.302 4.49 0 6.421 9.911 14.703 26.706 24.38 45.772 24.38 19.065 0 35.86-9.677 45.772-24.38 1.302-1.931 1.302-4.49 0-6.421-1.524-2.259-3.227-4.383-5.059-6.389z" fill="#ffd301"/><path d="m416.546 258.048c-8.389 4.274-15.539 10.631-20.77 18.391-1.302 1.931-1.302 4.49 0 6.421 5.231 7.761 12.381 14.117 20.77 18.392 3.538 1.803 7.736-.7 7.736-4.671v-33.863c0-3.969-4.199-6.472-7.736-4.67z" fill="#fee55a"/><path d="m416.546 282.053c-5.946-3.03-11.252-7.122-15.711-12.002-1.832 2.005-3.536 4.129-5.059 6.389-1.302 1.931-1.302 4.49 0 6.421 5.231 7.761 12.381 14.117 20.77 18.392 3.538 1.803 7.736-.7 7.736-4.671v-19.2c0 3.97-4.198 6.473-7.736 4.671z" fill="#ffd301"/><path d="m302.279 276.44c-1.302 1.931-1.302 4.49 0 6.421 6.572 9.75 16.183 17.267 27.464 21.241 5.88-6.453 9.465-15.033 9.465-24.451s-3.586-17.998-9.465-24.451c-11.281 3.973-20.892 11.49-27.464 21.24z" fill="#ffd301"/><path d="m307.329 270.041c-1.833 2.004-3.527 4.138-5.05 6.399-1.302 1.931-1.302 4.49 0 6.421 6.572 9.75 16.183 17.267 27.464 21.241 4.267-4.683 7.317-10.49 8.674-16.92-12.231-2.158-23.056-8.344-31.088-17.141z" fill="#ffc20c"/><g><path d="m81.985 247.545v-22.323c0-4.209-3.412-7.621-7.621-7.621h-20.685c-4.209 0-7.621 3.412-7.621 7.621v22.323z" fill="#b1dbfc"/></g><path d="m71.643 217.602h-17.964c-4.209 0-7.621 3.412-7.621 7.621v22.323h17.963v-22.323c.001-4.209 3.413-7.621 7.622-7.621z" fill="#8bcaff"/><path d="m12.643 281.204h269.994v143.993h-269.994z" fill="#fee55a"/><path d="m12.643 425.197h269.994v-22.466c0-101.181-184.567-121.527-184.567-121.527h-85.427z" fill="#ffd301"/><path d="m12.643 281.204h46.058v143.993h-46.058z" fill="#ffc20c"/><path d="m287.659 245.486h-280.038c-4.209 0-7.621 3.412-7.621 7.621v20.685c0 4.209 3.412 7.621 7.621 7.621h280.038c4.209 0 7.621-3.412 7.621-7.621v-20.685c-.001-4.209-3.413-7.621-7.621-7.621z" fill="#dfebfa"/><path d="m46.058 273.792v-20.685c0-4.209 3.412-7.621 7.621-7.621h-46.058c-4.209 0-7.621 3.412-7.621 7.621v20.685c0 4.209 3.412 7.621 7.621 7.621h46.058c-4.209 0-7.621-3.412-7.621-7.621z" fill="#b1dbfc"/><path d="m287.659 423.951h-280.038c-4.209 0-7.621 3.412-7.621 7.621v20.685c0 4.209 3.412 7.621 7.621 7.621h280.038c4.209 0 7.621-3.412 7.621-7.621v-20.685c-.001-4.209-3.413-7.621-7.621-7.621z" fill="#dfebfa"/><path d="m46.058 452.257v-20.685c0-4.209 3.412-7.621 7.621-7.621h-46.058c-4.209 0-7.621 3.412-7.621 7.621v20.685c0 4.209 3.412 7.621 7.621 7.621h46.058c-4.209 0-7.621-3.412-7.621-7.621z" fill="#b1dbfc"/><path d="m132.125 334.392c-18.658 0-35.094 9.47-44.793 23.858-1.274 1.89-1.274 4.394 0 6.284 9.699 14.389 26.135 23.858 44.793 23.858s35.093-9.47 44.792-23.858c1.274-1.89 1.274-4.394 0-6.284-9.698-14.389-26.134-23.858-44.792-23.858z" fill="#bc7c63"/><path d="m171.967 351.997c-9.871 10.807-24.052 17.605-39.842 17.605s-29.972-6.799-39.842-17.605c-1.793 1.962-3.46 4.041-4.951 6.253-1.274 1.89-1.274 4.394 0 6.284 9.699 14.389 26.135 23.858 44.793 23.858 18.657 0 35.093-9.47 44.792-23.858 1.274-1.89 1.274-4.394 0-6.284-1.49-2.212-3.157-4.291-4.95-6.253z" fill="#ab6b51"/><path d="m199.154 340.252c-8.209 4.183-15.207 10.404-20.326 17.998-1.274 1.89-1.274 4.394 0 6.284 5.119 7.595 12.116 13.815 20.326 17.998 3.462 1.764 7.571-.685 7.571-4.571v-33.138c0-3.886-4.108-6.335-7.571-4.571z" fill="#bc7c63"/><path d="m199.155 363.742c-5.819-2.965-11.011-6.97-15.375-11.745-1.793 1.962-3.46 4.041-4.951 6.252-1.274 1.89-1.274 4.394 0 6.284 5.119 7.595 12.116 13.815 20.326 17.998 3.462 1.764 7.57-.685 7.57-4.571v-18.789c0 3.886-4.108 6.336-7.57 4.571z" fill="#ab6b51"/><path d="m87.333 358.25c-1.274 1.89-1.274 4.394 0 6.284 6.432 9.542 15.837 16.898 26.877 20.786 5.754-6.315 9.262-14.712 9.262-23.928 0-9.217-3.509-17.613-9.262-23.928-11.041 3.888-20.446 11.244-26.877 20.786z" fill="#ab6b51"/><path d="m92.275 351.988c-1.794 1.961-3.451 4.05-4.942 6.262-1.274 1.89-1.274 4.394 0 6.284 6.432 9.541 15.837 16.898 26.877 20.786 4.176-4.583 7.16-10.265 8.488-16.558-11.97-2.111-22.564-8.166-30.423-16.774z" fill="#965a44"/></g></svg>