<svg id="Capa_1" enable-background="new 0 0 512 512" height="512" viewBox="0 0 512 512" width="512" xmlns="http://www.w3.org/2000/svg"><g><g><path d="m288.943 11.723v249.685c-35.061 13.791-30.135 11.853-32.945 12.96-9.663-5.779-19.316-11.136-28.866-16.081v-246.564c0-6.48 5.244-11.723 11.723-11.723h38.364c6.481 0 11.724 5.244 11.724 11.723z" fill="#f0ce46"/></g><path d="m288.943 11.723v249.685l-30.905 12.156v-273.564h19.182c6.48 0 11.723 5.244 11.723 11.723z" fill="#e8a43e"/><g><path d="m412.565 77.099v135.685c-6.551 2.577-55.26 21.735-61.811 24.312v-159.997c0-6.48 5.244-11.723 11.723-11.723h38.364c6.48-.001 11.724 5.243 11.724 11.723z" fill="#f0ce46"/></g><g><path d="m350.754 111.909v125.188l-61.811 24.312v-149.5c0-6.48 5.244-11.723 11.723-11.723h38.364c6.481-.001 11.724 5.243 11.724 11.723z" fill="#f0ce46"/></g><g><path d="m165.322 111.909v118.718c-20.793-7.96-41.794-14.765-61.811-20.089v-98.63c0-6.48 5.244-11.723 11.723-11.723h38.364c6.48 0 11.724 5.244 11.724 11.724z" fill="#f0ce46"/></g><g><path d="m227.132 44.112v214.175c-20.27-10.513-40.935-19.668-61.811-27.66v-186.515c0-6.48 5.244-11.723 11.723-11.723h38.364c6.481 0 11.724 5.244 11.724 11.723z" fill="#f0ce46"/></g><g fill="#e8a43e"><path d="m350.754 111.909v125.188l-30.905 12.156v-149.068h19.182c6.48 0 11.723 5.244 11.723 11.724z"/><path d="m412.565 77.099v135.685l-30.905 12.156v-159.565h19.182c6.479 0 11.723 5.244 11.723 11.724z"/><path d="m227.132 44.112v214.175c-10.487-5.439-20.841-10.394-30.905-14.876v-211.022h19.182c6.48 0 11.723 5.244 11.723 11.723z"/><path d="m165.322 111.909v118.718c-11.033-4.224-21.417-7.85-30.905-10.941v-119.501h19.182c6.479 0 11.723 5.244 11.723 11.724z"/></g><g><path d="m448.436 220.3-32.925 206.432c-2.253 14.137-22.184 17.222-29.01 4.542-30.97-57.485-81.778-101.425-138.446-133.874-5.048-2.897-7.943-8.286-7.459-13.903.484-5.606 4.265-10.474 9.745-12.533l177.16-66.646c11.097-4.168 22.727 4.765 20.935 15.982z" fill="#b72148"/></g><g><path d="m415.511 426.732-11.6 72.716c-1.153 7.222-7.644 12.552-15.277 12.552h-265.272c-7.634 0-14.124-5.33-15.278-12.553l-44.524-279.147c-1.595-10.033 7.647-18.625 18.121-16.76 125.843 25.344 269.337 97.336 332.285 214.196 1.494 2.768 2.04 5.921 1.545 8.996z" fill="#db686b"/></g><path d="m415.511 426.732-11.6 72.716c-1.153 7.222-7.644 12.552-15.277 12.552h-130.596v-243.282c63.918 35.342 121.294 84.721 155.928 149.018 1.494 2.768 2.04 5.921 1.545 8.996z" fill="#cc2f51"/></g></svg>