<svg clip-rule="evenodd" fill-rule="evenodd" height="512" stroke-linejoin="round" stroke-miterlimit="2" viewBox="0 0 32 32" width="512" xmlns="http://www.w3.org/2000/svg"><path d="m20.854 6.27c.32-.123.663-.169 1.016-.169 2.409 0 4.391 2.131 4.391 4.784 0 2.654-1.982 4.785-4.391 4.785-.501 0-.983-.091-1.431-.26-.572-.213-1.214-.106-1.682.277-.857.718-1.91 1.125-3.044 1.125-1.187 0-2.287-.447-3.186-1.214-.426-.373-1.011-.509-1.558-.363-.019.005-.038.009-.058.012-.334.048-.672.094-1.02.094-2.41 0-4.391-2.132-4.391-4.785 0-2.654 1.981-4.785 4.391-4.785.369 0 .727.05 1.07.143h-.003c.56.149 1.158.01 1.585-.364.871-.799 1.977-1.25 3.17-1.25 1.335 0 2.56.564 3.502 1.506.432.424 1.05.599 1.639.464z" fill="#b0ebfb"/><g fill="#d8f7ff"><path d="m10.873 16.339c-.083-.174-.258-.285-.451-.285s-.369.111-.452.285c0 0-.871 1.879-.871 2.682 0 .729.593 1.322 1.323 1.322s1.322-.593 1.322-1.322c0-.803-.871-2.682-.871-2.682z"/><path d="m11.483 22.785c-.083-.174-.259-.285-.452-.285-.192 0-.368.111-.451.285 0 0-.871 1.879-.871 2.682 0 .73.593 1.322 1.322 1.322.73 0 1.323-.592 1.323-1.322 0-.803-.871-2.682-.871-2.682z"/><path d="m20.24 16.498c-.083-.174-.259-.285-.452-.285s-.368.111-.451.285c0 0-.962 2.071-.962 2.955 0 .78.633 1.413 1.413 1.413s1.413-.633 1.413-1.413c0-.884-.961-2.955-.961-2.955z"/><path d="m22.561 21.524c-.083-.174-.258-.285-.451-.285s-.369.111-.452.285c0 0-.938 2.022-.938 2.886 0 .767.622 1.39 1.39 1.39.767 0 1.39-.623 1.39-1.39 0-.864-.939-2.886-.939-2.886z"/><path d="m16.217 18.597c-.083-.174-.259-.285-.452-.285s-.368.111-.451.285c0 0-1.049 2.252-1.049 3.215 0 .828.672 1.5 1.5 1.5s1.5-.672 1.5-1.5c0-.963-1.048-3.215-1.048-3.215z"/></g></svg>