<svg id="Layer_1" height="512" viewBox="0 0 512 512" width="512" xmlns="http://www.w3.org/2000/svg" data-name="Layer 1"><path d="m302.06 237.16 93.51-93.51-26.87-26.87-93.5 93.51a146.76 146.76 0 1 0 26.86 26.87z" fill="#ddd"/><circle cx="185.73" cy="326.62" fill="#b2b2b2" r="114.13"/><rect fill="#f8a501" height="169.01" rx="34.39" transform="matrix(.707 .707 -.707 .707 195.6 -253.01)" width="68.78" x="368.82" y="25.1"/><path d="m473 73.55a34.21 34.21 0 0 1 -6.78 9.65l-70.87 70.87a34.49 34.49 0 0 1 -48.64 0 34.3 34.3 0 0 1 -10-23.7 34.54 34.54 0 0 0 6.78 39 34.51 34.51 0 0 0 48.64 0l70.87-70.88a34.33 34.33 0 0 0 10-24.94z" fill="#ec8c36"/><circle cx="435.87" cy="77.41" fill="#ffce76" r="13.1"/><path d="m297.05 301.38c-12.68 67.84-69.93 121.64-143 134.9a114.16 114.16 0 0 0 143-134.9z" fill="#8c8989"/></svg>