<svg id="Capa_1" enable-background="new 0 0 364.81 364.81" height="512" viewBox="0 0 364.81 364.81" width="512" xmlns="http://www.w3.org/2000/svg"><g><path d="m322.864 315.719h-89.052c-16.713-.021-30.256-13.564-30.277-30.277v-203.818c.021-16.712 13.565-30.253 30.277-30.271h89.052c16.711.018 30.253 13.56 30.271 30.271v203.818c-.018 16.712-13.559 30.256-30.271 30.277zm-89.052-237.792c-2.042.003-3.697 1.656-3.703 3.698v203.818c.003 2.044 1.659 3.7 3.703 3.703h89.052c2.042-.006 3.695-1.661 3.698-3.703v-203.819c-.003-2.041-1.657-3.695-3.698-3.698h-89.052z" fill="#d5d6db"/><path d="m11.675 0v334.577c0 16.697 13.536 30.233 30.233 30.233h205.102c16.697 0 30.233-13.536 30.233-30.233v-334.577z" fill="#e1e6e9"/><path d="m24.964 78.563v256.014c.012 9.355 7.594 16.935 16.949 16.944h205.096c9.353-.012 16.932-7.591 16.944-16.944v-256.014z" fill="#fcd462"/><g fill="#fff"><path d="m48.02 18.863h17.286v163.906h-17.286z" opacity=".5"/><path d="m48.02 207.69h17.286v84.37h-17.286z" opacity=".5"/></g></g></svg>