<?xml version="1.0" encoding="iso-8859-1"?>
<!-- Generator: Adobe Illustrator 19.0.0, SVG Export Plug-In . SVG Version: 6.00 Build 0)  -->
<svg version="1.1" id="Capa_1" xmlns="http://www.w3.org/2000/svg" xmlns:xlink="http://www.w3.org/1999/xlink" x="0px" y="0px"
	 viewBox="0 0 512 512" style="enable-background:new 0 0 512 512;" xml:space="preserve">
<path style="fill:#FCE67A;" d="M303.162,92.814l15.165,27.729c0.479,0.875,1.198,1.595,2.073,2.073l27.729,15.165
	c3.617,1.978,3.617,7.174,0,9.152L320.4,162.099c-0.875,0.479-1.595,1.198-2.073,2.073l-15.165,27.729
	c-1.978,3.617-7.174,3.617-9.152,0l-15.165-27.729c-0.479-0.875-1.198-1.595-2.073-2.073l-27.729-15.165
	c-3.617-1.978-3.617-7.174,0-9.152l27.729-15.165c0.875-0.479,1.595-1.198,2.073-2.073l15.165-27.729
	C295.988,89.197,301.183,89.197,303.162,92.814z"/>
<path style="fill:#EAC615;" d="M348.129,146.93l-27.727,15.167c-0.876,0.48-1.596,1.199-2.076,2.076L303.159,191.9
	c-1.972,3.62-7.166,3.62-9.148,0l-5.038-9.211c0.803-0.49,1.513-1.189,2.013-2.118l16.283-29.782
	c0.522-0.939,1.293-1.711,2.232-2.232l29.166-15.95l9.461,5.174C351.749,139.764,351.749,144.959,348.129,146.93z"/>
<path style="fill:#FCE67A;" d="M66.259,410.197l15.165,27.729c0.479,0.875,1.198,1.595,2.073,2.073l27.729,15.165
	c3.617,1.978,3.617,7.174,0,9.152l-27.729,15.165c-0.875,0.479-1.595,1.198-2.073,2.073l-15.165,27.729
	c-1.978,3.617-7.174,3.617-9.152,0l-15.165-27.729c-0.479-0.875-1.198-1.595-2.073-2.073L12.14,464.316
	c-3.617-1.978-3.617-7.174,0-9.152l27.729-15.165c0.875-0.479,1.595-1.198,2.073-2.073l15.165-27.729
	C59.085,406.58,64.28,406.58,66.259,410.197z"/>
<path style="fill:#EAC615;" d="M111.222,464.316l-27.727,15.167c-0.876,0.48-1.596,1.199-2.076,2.076l-15.157,27.726
	c-1.982,3.62-7.177,3.62-9.159,0l-3.557-6.499l16.283-29.781c0.532-0.98,1.346-1.784,2.326-2.326l31.086-17.003
	c0.845-0.459,1.513-1.074,1.992-1.784l5.988,3.276C114.842,457.139,114.842,462.334,111.222,464.316z"/>
<path style="fill:#FFD800;" d="M501.403,370.621c-43.621,61.853-115.521,102.329-196.874,102.643
	C171.325,473.777,62.038,365.234,61.683,232.03C61.394,123.132,133.05,30.941,231.794,0.301c5.394-1.674,10.126,4.03,7.48,9.02
	c-17.43,32.867-27.494,70.228-28.017,109.89c-1.755,133.165,105.689,243.512,238.856,245.14c15.374,0.188,30.421-1.058,45.019-3.615
	C500.682,359.764,504.651,366.015,501.403,370.621z"/>
<path style="fill:#E8C207;" d="M501.397,370.621c-4.068,5.758-8.376,11.339-12.904,16.711c0,0,0,0-0.01,0
	c-11.506,1.387-23.252,2.024-35.175,1.878c-145.831-1.784-263.486-122.621-261.567-268.452
	C192.294,78.803,202.59,39.206,220.5,4.114c3.724-1.367,7.49-2.639,11.297-3.818c5.393-1.669,10.118,4.037,7.479,9.023
	c-17.431,32.869-27.497,70.234-28.019,109.894c-1.752,133.167,105.691,243.51,238.858,245.138
	c15.365,0.188,30.418-1.054,45.011-3.62C500.678,359.762,504.652,366.01,501.397,370.621z"/>
<path style="fill:#FCE67A;" d="M422.216,319.187l8.908,16.287c0.479,0.875,1.198,1.595,2.073,2.073l16.287,8.908
	c3.617,1.978,3.617,7.174,0,9.152l-16.287,8.908c-0.875,0.479-1.595,1.198-2.073,2.073l-8.908,16.287
	c-1.978,3.617-7.174,3.617-9.152,0l-8.908-16.287c-0.479-0.875-1.198-1.595-2.073-2.073l-16.287-8.908
	c-3.617-1.978-3.617-7.174,0-9.152l16.287-8.908c0.875-0.479,1.595-1.198,2.073-2.073l8.908-16.287
	C415.042,315.569,420.237,315.569,422.216,319.187z"/>
<path style="fill:#EAC615;" d="M449.48,355.61l-16.283,8.908c-0.876,0.469-1.596,1.189-2.076,2.065l-8.908,16.294
	c-1.971,3.609-7.166,3.609-9.148,0l-4.433-8.105c0.219-0.261,0.417-0.563,0.595-0.876l10.035-18.338
	c0.532-0.98,1.346-1.794,2.326-2.326l18.338-10.035c0.584-0.323,1.074-0.71,1.492-1.158l8.063,4.412
	C453.1,348.433,453.1,353.628,449.48,355.61z"/>
<path style="fill:#FCE67A;" d="M151.639,373.135l8.908,16.287c0.479,0.875,1.198,1.595,2.073,2.073l16.287,8.908
	c3.617,1.978,3.617,7.174,0,9.152l-16.287,8.908c-0.875,0.479-1.595,1.198-2.073,2.073l-8.908,16.287
	c-1.978,3.617-7.174,3.617-9.152,0l-8.908-16.287c-0.479-0.875-1.198-1.595-2.073-2.073l-16.287-8.908
	c-3.617-1.978-3.617-7.174,0-9.152l16.287-8.908c0.875-0.479,1.595-1.198,2.073-2.073l8.908-16.287
	C144.465,369.518,149.66,369.518,151.639,373.135z"/>
<path style="fill:#EAC615;" d="M178.911,409.551l-16.294,8.908c-0.876,0.48-1.596,1.199-2.076,2.076l-8.898,16.284
	c-1.982,3.619-7.177,3.619-9.159,0l-3.129-5.717c0.553-0.438,1.022-0.991,1.398-1.669l9.357-17.097
	c0.501-0.918,1.252-1.679,2.17-2.18l17.107-9.357c1.648-0.897,2.587-2.441,2.806-4.068l6.718,3.672
	C182.52,402.384,182.52,407.579,178.911,409.551z"/>
<g>
</g>
<g>
</g>
<g>
</g>
<g>
</g>
<g>
</g>
<g>
</g>
<g>
</g>
<g>
</g>
<g>
</g>
<g>
</g>
<g>
</g>
<g>
</g>
<g>
</g>
<g>
</g>
<g>
</g>
</svg>
