<svg height="512" viewBox="0 0 128 128" width="512" xmlns="http://www.w3.org/2000/svg"><g><path d="m106.29 56.11c-3.86-3.34-9.2-4.37-14.72-2.88h-5.12a3.5 3.5 0 0 0 -3.5 3.5v29.72a3.5 3.5 0 0 0 3.5 3.5h5.61a1.829 1.829 0 0 0 .33-.02c10.51-.99 17.42-7.55 18.95-18.02.94-6.45-.9-12.22-5.05-15.8zm-1.88 14.79c-1.06 7.26-5.27 11.31-12.52 12.05h-1.94v-22.72h2.11a3.715 3.715 0 0 0 1-.14c3.37-1.01 6.52-.53 8.66 1.31 2.33 2.02 3.29 5.4 2.69 9.5z" fill="#f0f0f0"/><path d="m22.169 49.736v27.391c0 14.023 15.431 23.391 34.465 23.391 19.034 0 34.465-9.368 34.465-23.391v-27.391z" fill="#ad826e"/><path d="m22.169 49.736h68.931v7h-68.931z" fill="#f0f0f0"/><g><g fill="#fec666"><path d="m39.314 38a1.751 1.751 0 0 1 -1.572-2.517c2.169-4.451.774-6.94-.841-9.822-1.744-3.115-3.916-6.991 1.137-12.391a1.749 1.749 0 1 1 2.555 2.39c-3.3 3.532-2.357 5.222-.638 8.29 1.647 2.942 3.9 6.97.934 13.067a1.752 1.752 0 0 1 -1.575.983z"/><path d="m57.328 38a1.751 1.751 0 0 1 -1.572-2.517c2.169-4.45.774-6.94-.841-9.822-1.744-3.113-3.915-6.989 1.137-12.389a1.749 1.749 0 1 1 2.555 2.39c-3.3 3.532-2.357 5.222-.638 8.29 1.648 2.942 3.9 6.97.934 13.067a1.749 1.749 0 0 1 -1.575.981z"/><path d="m75.342 38a1.751 1.751 0 0 1 -1.572-2.517c2.168-4.45.774-6.939-.84-9.822-1.745-3.115-3.916-6.991 1.136-12.391a1.75 1.75 0 1 1 2.556 2.39c-3.3 3.532-2.357 5.223-.639 8.29 1.648 2.942 3.9 6.97.934 13.067a1.749 1.749 0 0 1 -1.575.983z"/></g><g><path d="m31.918 104.454h49.432v9.079h-49.432z" fill="#dddbdb"/><path d="m81.351 106.659h-49.433l-12-8.626h73.433z" fill="#c8c8c8"/></g></g></g></svg>