<svg id="Capa_1" enable-background="new 0 0 512 512" height="512" viewBox="0 0 512 512" width="512" xmlns="http://www.w3.org/2000/svg"><g><g><path d="m479.669 313.985h-158.976v96.336c0 30.709-24.894 55.603-55.603 55.603h-25.804l-9.972-123.582c-2.832-35.104-32.148-62.149-67.366-62.149h-19.375l-14.794-100.162 14.794-100.162h65.683c-.001-.479-.001-.956-.002-1.43-.02-17.869 14.459-32.362 32.329-32.362h135.713 37.727 78.28l19.582 232.872c1.585 18.855-13.293 35.036-32.216 35.036z" fill="#ffcdbe"/><path d="m503.566 180.031h-375.787l14.794 100.162h19.375c35.218 0 64.534 27.045 67.366 62.149l9.971 123.582h25.804c30.708 0 55.603-24.894 55.603-55.603v-96.336h158.976c18.923 0 33.801-16.181 32.215-35.038z" fill="#faa68e"/><path d="m0 59.784h142.573v240.494h-142.573z" fill="#69b1e9"/><path d="m0 180.031h142.573v120.247h-142.573z" fill="#2681ff"/></g></g></svg>