<svg id="Capa_1" enable-background="new 0 0 512 512" height="512" viewBox="0 0 512 512" width="512" xmlns="http://www.w3.org/2000/svg"><g><path d="m123.693 0h-60.506c-7.977 0-14.444 6.467-14.444 14.444v79.601c0 7.977 6.467 14.444 14.444 14.444h60.506c7.977 0 14.444-6.467 14.444-14.444v-79.601c0-7.977-6.467-14.444-14.444-14.444z" fill="#8dc5e8"/><path d="m313.312 0h-60.506c-7.977 0-14.444 6.467-14.444 14.444v79.601c0 7.977 6.467 14.444 14.444 14.444h60.506c7.977 0 14.444-6.467 14.444-14.444v-79.601c0-7.977-6.467-14.444-14.444-14.444z" fill="#5e9ff6"/><path d="m214.73 76.513-26.48 120.297-4.333.587-183.917-26.047v-85.208c0-5.315 4.314-9.629 9.629-9.629z" fill="#0b799d"/><path d="m376.499 86.142v85.208l-188.25 25.46v-120.297h178.62c5.316 0 9.63 4.314 9.63 9.629z" fill="#07485e"/><path d="m188.249 171.35 14.251 190.869h-192.871c-5.315 0-9.629-4.314-9.629-9.629v-181.24z" fill="#fff5f5"/><path d="m376.499 171.35v181.24c0 5.315-4.314 9.629-9.629 9.629h-178.62v-190.869z" fill="#e1ebf0"/><path d="m376.5 241 11.25 135.17-11.25 135.83c-74.71 0-135.5-60.79-135.5-135.5s60.79-135.5 135.5-135.5z" fill="#00ccb3"/><path d="m512 376.5c0 74.71-60.79 135.5-135.5 135.5v-271c74.71 0 135.5 60.79 135.5 135.5z" fill="#00969b"/><path d="m376.5 314 8 62.5-8 62.5c-8.28 0-15-6.72-15-15v-32.5h-32.5c-8.28 0-15-6.72-15-15s6.72-15 15-15h32.5v-32.5c0-8.28 6.72-15 15-15z" fill="#ff7c48"/><path d="m439 376.5c0 8.28-6.72 15-15 15h-32.5v32.5c0 8.28-6.72 15-15 15v-125c8.28 0 15 6.72 15 15v32.5h32.5c8.28 0 15 6.72 15 15z" fill="#ff415b"/><g><path d="m92.871 253.023h-16.995c-8.282 0-14.995-6.714-14.995-14.995 0-8.282 6.714-14.995 14.995-14.995h16.995c8.282 0 14.995 6.714 14.995 14.995 0 8.282-6.713 14.995-14.995 14.995z" fill="#ff7c48"/></g><g><path d="m92.871 313.901h-16.995c-8.282 0-14.995-6.714-14.995-14.995 0-8.282 6.714-14.995 14.995-14.995h16.995c8.282 0 14.995 6.714 14.995 14.995s-6.713 14.995-14.995 14.995z" fill="#ff7c48"/></g><g><path d="m188.251 223.029 5.813 14.999-5.813 14.992h-8.787c-8.277 0-14.995-6.708-14.995-14.995 0-8.277 6.718-14.995 14.995-14.995h8.787z" fill="#ff7c48"/></g><g><path d="m211.453 238.025c0 8.287-6.708 14.995-14.995 14.995h-8.207v-29.991h8.207c8.287 0 14.995 6.718 14.995 14.996z" fill="#ff415b"/></g><g><path d="m188.251 283.91 5.813 16.37-5.813 13.621h-8.787c-8.277 0-14.995-6.718-14.995-14.995s6.718-14.995 14.995-14.995h8.787z" fill="#ff7c48"/></g><g><path d="m211.453 298.905c0 8.277-6.708 14.995-14.995 14.995h-8.207v-29.99h8.207c8.287 0 14.995 6.718 14.995 14.995z" fill="#ff415b"/></g><g><path d="m283.05 253.02h8.787 8.207c8.287 0 14.995-6.708 14.995-14.995 0-8.277-6.708-14.995-14.995-14.995h-8.207-8.787c-8.277 0-14.995 6.718-14.995 14.995 0 8.287 6.718 14.995 14.995 14.995z" fill="#ff415b"/></g></g></svg>