<svg enable-background="new 0 0 512 512" height="512" viewBox="0 0 512 512" width="512" xmlns="http://www.w3.org/2000/svg"><g id="_x31_0_Apricot"><g><g><path d="m225.622 63.054c.736 3.226-1.153 6.469-4.337 7.37-7.921 2.242-22.893 7.233-34.288 15.519-50.497 36.718-124.277-20.64-134.349-68.165-.934-4.407 2.964-8.272 7.363-7.298 10.432 2.309 29.104 4.136 48.338-5.242 28.154-13.729 103.631-1.97 117.273 57.816z" fill="#0bad67"/><path d="m261.878 127.58c0-.609-.673-61.144-66.538-76.051l-1.657 7.3c59.916 13.562 60.705 66.499 60.71 68.746z" fill="#0bad67"/><path d="m255.13 148.696c-15.886-46.078-10.98-97.393 33.455-119.051l.654-.319c8.229-4.011 18.15-.591 22.161 7.637 4.011 8.229.591 18.15-7.637 22.161-4.201 2.048-13.419 2.35-23.144 11.288-18.524 17.062-21.786 51.841-18.958 76.609l.022.189c.212 1.855-1.12 3.53-2.975 3.741-1.604.185-3.073-.789-3.578-2.255z" fill="#6d6d6d"/></g><path d="m468.779 281.619c0 111.829-69.876 230.231-155.95 230.231-20.061 0-39.174-6.439-56.795-17.621-17.621 11.183-36.734 17.621-56.795 17.621-86.142 0-156.018-118.403-156.018-230.231 0-141.638 115.227-201.853 212.813-164.693 94.343-35.924 212.745 18.894 212.745 164.693z" fill="#ffa425"/><g opacity=".4"><path d="m71.134 260.696c-5.54-.884-9.319-6.096-8.439-11.639 2.528-15.885 7.049-31.078 13.423-45.166 2.31-5.116 8.353-7.39 13.449-5.073 5.116 2.313 7.386 8.339 5.07 13.452-5.626 12.44-9.617 25.892-11.861 39.983-.89 5.567-6.111 9.32-11.642 8.443z" fill="#fff"/></g><path d="m468.746 281.619c0 111.549-75.945 248.737-175.063 228.266 77.06-15.859 136.77-124.841 136.77-228.266 0-107.423-64.318-165.506-135.957-174.114 85.193-10.369 174.25 47.646 174.25 174.114z" opacity=".08"/><path d="m256.034 494.23c56.436-41.871 89.189-125.862 93.059-193.901 5.383-78.879-20.853-150.175-93.059-183.402 60.702 18.73 110.204 80.603 103.917 184.151-5.195 73.089-42.525 159.05-103.917 193.152z" fill="#ff9515"/></g></g></svg>