<svg id="Flat_" height="512" viewBox="0 0 64 64" width="512" xmlns="http://www.w3.org/2000/svg" data-name="Flat'"><path d="m47 60h-36v-48a8 8 0 0 1 8-8h36a4 4 0 0 0 -4 4v48a4 4 0 0 1 -4 4z" fill="#ecf0f1"/><path d="m59 8a4 4 0 0 0 -4-4 4 4 0 0 0 -4 4" fill="#ced4d6"/><path d="m5 29 3.879-2.121 2.121-3.879 2.121 3.879 3.879 2.121-3.879 2.121-2.121 3.879-2.121-3.879z" fill="#f9be19"/><path d="m19 13 1.414 2.586 2.586 1.414-2.586 1.414-1.414 2.586-1.414-2.586-2.586-1.414 2.586-1.414z" fill="#f9be19"/><path d="m43 56a4 4 0 0 1 4-4h-37a4 4 0 0 0 0 8h37a4 4 0 0 1 -4-4z" fill="#ced4d6"/></svg>