<svg height="512pt" viewBox="-67 0 512 512" width="512pt" xmlns="http://www.w3.org/2000/svg"><path d="m357.496094 512h-336.285156c-11.714844 0-21.210938-9.496094-21.210938-21.210938v-447.167968c0-11.714844 9.496094-21.210938 21.210938-21.210938h336.285156c11.714844 0 21.210937 9.496094 21.210937 21.210938v447.167968c0 11.714844-9.496093 21.210938-21.210937 21.210938zm0 0" fill="#ffe591"/><path d="m357.496094 22.410156h-35.28125v489.589844h35.28125c11.714844 0 21.210937-9.496094 21.210937-21.210938v-447.167968c0-11.714844-9.496093-21.210938-21.210937-21.210938zm0 0" fill="#ffa442"/><path d="m34.738281 443.753906v-421.34375h309.230469v421.34375c0 6.925782-5.617188 12.542969-12.542969 12.542969h-284.144531c-6.925781 0-12.542969-5.617187-12.542969-12.542969zm0 0" fill="#fafaff"/><path d="m287.476562 22.410156v421.34375c0 6.925782-5.617187 12.542969-12.542968 12.542969h56.492187c6.925781 0 12.542969-5.617187 12.542969-12.542969v-421.34375zm0 0" fill="#e6e6f2"/><path d="m240.640625 44.816406h-102.574219c-5.621094 0-10.175781-4.554687-10.175781-10.175781v-24.464844c0-5.621093 4.554687-10.175781 10.175781-10.175781h102.574219c5.621094 0 10.175781 4.554688 10.175781 10.175781v24.464844c0 5.621094-4.554687 10.175781-10.175781 10.175781zm0 0" fill="#293e7d"/><path d="m240.640625 0h-46.316406v44.816406h46.316406c5.621094 0 10.175781-4.554687 10.175781-10.175781v-24.464844c0-5.621093-4.554687-10.175781-10.175781-10.175781zm0 0" fill="#292f5a"/><path d="m256.433594 146.84375h18.355468c6.042969 0 10.945313 4.898438 10.945313 10.945312v152.1875h-40.25v-152.1875c0-6.046874 4.902344-10.945312 10.949219-10.945312zm0 0" fill="#ff4a4a"/><path d="m186.082031 207.539062h18.355469c6.046875 0 10.945312 4.902344 10.945312 10.945313v91.492187h-40.246093v-91.492187c0-6.042969 4.898437-10.945313 10.945312-10.945313zm0 0" fill="#ff5fa8"/><path d="m115.730469 256.820312h18.359375c6.042968 0 10.941406 4.902344 10.941406 10.945313v42.210937h-40.246094v-42.210937c0-6.042969 4.902344-10.945313 10.945313-10.945313zm0 0" fill="#aae1e7"/><path d="m309.300781 367.089844h-239.894531c-4.269531 0-7.726562-3.460938-7.726562-7.726563 0-4.269531 3.460937-7.726562 7.726562-7.726562h239.894531c4.269531 0 7.726563 3.457031 7.726563 7.726562 0 4.265625-3.457032 7.726563-7.726563 7.726563zm0 0" fill="#0076c2"/><path d="m309.300781 408.296875h-239.894531c-4.269531 0-7.726562-3.460937-7.726562-7.726563 0-4.269531 3.460937-7.726562 7.726562-7.726562h239.894531c4.269531 0 7.726563 3.457031 7.726563 7.726562 0 4.265626-3.457032 7.726563-7.726563 7.726563zm0 0" fill="#0076c2"/><path d="m309.300781 317.699219h-230.128906c-9.644531 0-17.492187-7.84375-17.492187-17.488281v-164.929688c0-4.269531 3.460937-7.726562 7.726562-7.726562 4.269531 0 7.726562 3.457031 7.726562 7.726562v164.929688c0 1.121093.914063 2.035156 2.039063 2.035156h230.128906c4.269531 0 7.726563 3.460937 7.726563 7.726562 0 4.269532-3.457032 7.726563-7.726563 7.726563zm0 0" fill="#293e7d"/></svg>