<?xml version="1.0" encoding="iso-8859-1"?>
<!-- Generator: Adobe Illustrator 19.0.0, SVG Export Plug-In . SVG Version: 6.00 Build 0)  -->
<svg version="1.1" id="Capa_1" xmlns="http://www.w3.org/2000/svg" xmlns:xlink="http://www.w3.org/1999/xlink" x="0px" y="0px"
	 viewBox="0 0 511.995 511.995" style="enable-background:new 0 0 511.995 511.995;" xml:space="preserve">
<path style="fill:#20262D;" d="M504.166,470.759L394.522,361.114c-4.895-4.895-10.767-6.851-17.623-6.851
	c-3.917,0-8.812,0.978-12.728,2.939h-0.978l-6.851,6.851v0.978c-1.956,3.917-2.939,7.834-2.939,12.728
	c0,6.851,2.939,12.728,6.851,17.623l109.645,109.645c4.895,4.895,10.767,6.851,17.623,6.851c6.851,0,12.728-2.939,17.623-6.851
	c4.895-4.895,6.851-10.767,6.851-17.623C511.022,481.526,508.083,475.654,504.166,470.759z"/>
<rect x="337.865" y="319.912" transform="matrix(-0.7072 0.7071 -0.7071 -0.7072 829.4826 345.23)" style="fill:#C4C4C4;" width="10.768" height="48.955"/>
<path style="fill:#191919;" d="M55.803,56.653c-74.404,74.404-74.404,195.794,0,271.176c74.404,74.404,195.794,74.404,271.176,0
	c74.404-74.404,74.404-195.794,0-271.176S131.18-18.728,55.803,56.653z M320.123,319.996c-70.487,70.487-186.004,70.487-256.492,0
	s-70.487-186.004,0-256.492s186.004-70.487,256.492,0C390.61,134.969,390.61,249.508,320.123,319.996z"/>
<circle style="fill:#71CFF4;" cx="191.877" cy="191.75" r="181.094"/>
<path style="fill:#9EDEF7;" d="M191.877,372.859c-99.855,0-181.11-80.276-181.11-181.11c0-99.855,81.254-181.11,181.11-181.11
	C191.877,152.592,191.877,235.802,191.877,372.859z"/>
<g>
</g>
<g>
</g>
<g>
</g>
<g>
</g>
<g>
</g>
<g>
</g>
<g>
</g>
<g>
</g>
<g>
</g>
<g>
</g>
<g>
</g>
<g>
</g>
<g>
</g>
<g>
</g>
<g>
</g>
</svg>
