<svg height="512pt" viewBox="-110 0 512 512.0003" width="512pt" xmlns="http://www.w3.org/2000/svg"><path d="m59.550781 91.578125h32.027344l-13.761719-78.660156c-1.308594-7.46875-7.792968-12.917969-15.375-12.917969h-52.035156c-5.746094 0-10.40625 4.660156-10.40625 10.40625v10.40625c0 5.75 4.660156 10.410156 10.40625 10.410156h38.917969zm0 0" fill="#5acef2"/><path d="m77.816406 12.917969c-1.308594-7.46875-7.792968-12.917969-15.375-12.917969h-7.5c7.582032 0 14.066406 5.449219 15.375 12.917969l13.761719 78.660156h7.5zm0 0" fill="#22b9dd"/><path d="m129.042969 133.203125h96.777343l19.027344 19.027344c7.808594 7.804687 12.195313 18.394531 12.195313 29.433593v265.125c0 6.4375-2.558594 12.613282-7.113281 17.167969l-6.589844 6.589844c-4.554688 4.554687-7.113282 10.726563-7.113282 17.167969v.007812c0 13.40625-10.867187 24.277344-24.277343 24.277344h-166.160157c-13.410156 0-24.277343-10.871094-24.277343-24.277344v-.007812c0-6.441406-2.558594-12.613282-7.113281-17.167969l-6.589844-6.589844c-4.550782-4.554687-7.109375-10.730469-7.109375-17.167969v-265.125c0-11.039062 4.386719-21.628906 12.191406-29.433593l19.027344-19.027344zm0 0" fill="#d7f1ff"/><path d="m244.847656 152.230469-19.027344-19.027344h-19.429687l19.027344 19.027344c7.808593 7.804687 12.191406 18.394531 12.191406 29.433593v265.125c0 6.4375-2.554687 12.613282-7.109375 17.167969l-6.589844 6.589844c-4.554687 4.554687-7.113281 10.726563-7.113281 17.167969v.007812c0 13.40625-10.867187 24.277344-24.277344 24.277344h19.429688c13.410156 0 24.277343-10.871094 24.277343-24.277344v-.007812c0-6.441406 2.558594-12.613282 7.113282-17.167969l6.589844-6.589844c4.550781-4.554687 7.109374-10.730469 7.109374-17.167969v-265.125c.003907-11.039062-4.382812-21.628906-12.191406-29.433593zm0 0" fill="#b8e9ff"/><path d="m62.402344 480.78125c-5.527344 0-10.390625-3.636719-11.960938-8.933594-2.59375-8.742187-7.339844-16.75-13.964844-23.375l-1.511718-1.511718c-1.953125-1.949219-3.046875-4.597657-3.046875-7.359376v-257.9375c0-2.757812 1.09375-5.40625 3.046875-7.355468l6.835937-6.835938c1.953125-1.953125 4.597657-3.050781 7.359375-3.050781h159.421875c2.757813 0 5.40625 1.097656 7.355469 3.050781l6.835938 6.835938c1.953124 1.949218 3.046874 4.597656 3.046874 7.355468v257.941407c0 2.757812-1.09375 5.40625-3.046874 7.359375l-1.507813 1.507812c-6.628906 6.628906-11.375 14.636719-13.96875 23.375-1.570313 5.296875-6.433594 8.933594-11.960937 8.933594zm0 0" fill="#f781bf"/><path d="m222.773438 174.304688-6.835938-6.835938c-1.953125-1.949219-4.597656-3.046875-7.355469-3.046875h-21.707031l9.882812 9.882813c1.953126 1.953124 3.046876 4.597656 3.046876 7.359374v257.941407c0 2.757812-1.09375 5.40625-3.046876 7.355469l-1.507812 1.511718c-8.832031 8.828125-14.320312 20.109375-15.832031 32.308594h15.917969c5.527343 0 10.390624-3.636719 11.964843-8.933594 2.59375-8.742187 7.335938-16.746094 13.964844-23.375l1.507813-1.511718c1.953124-1.949219 3.050781-4.597657 3.050781-7.355469v-257.941407c-.003907-2.761718-1.097657-5.40625-3.050781-7.359374zm0 0" fill="#f464b7"/><path d="m225.820312 133.203125v-31.21875c0-5.75-4.65625-10.410156-10.402343-10.410156h-173.09375c-5.746094 0-10.40625 4.660156-10.40625 10.410156v31.21875zm0 0" fill="#d7f1ff"/><path d="m207.089844 91.578125v12.488281c0 5.746094-4.660156 10.40625-10.40625 10.40625h-164.765625v18.730469h193.902343v-31.21875c0-5.746094-4.65625-10.40625-10.402343-10.40625zm0 0" fill="#b8e9ff"/><path d="m116.25 454.996094c17.5625 6.554687 38.28125-5.496094 45.691406-25.34375 8.652344-23.175782-.363281-51.855469-8.542968-62.160156-1.867188-2.355469-4.914063-3.492188-7.867188-2.9375-12.933594 2.421874-38.535156 18.179687-47.191406 41.355468-7.40625 19.847656.347656 42.527344 17.910156 49.085938zm0 0" fill="#8bcc3f"/><path d="m161.941406 429.652344c8.652344-23.175782-.359375-51.855469-8.539062-62.160156-1.871094-2.355469-4.917969-3.492188-7.871094-2.9375-.074219.011718-.152344.03125-.222656.046874 4.625 13.339844 6.902344 31.617188 1.027344 47.363282-.496094 1.324218-1.058594 2.617187-1.667969 3.871094-7.902344 1.964843-15.15625 5.597656-21.347657 10.511718-7.710937-6.117187-17.050781-10.257812-27.257812-11.648437-.058594.394531-.113281.796875-.167969 1.199219-2.121093 16.914062 5.695313 33.625 20.355469 39.097656 17.5625 6.554687 38.28125-5.496094 45.691406-25.34375zm0 0" fill="#659922"/><path d="m130.082031 470.375c0 22.988281-18.636719 41.625-41.625 41.625-22.992187 0-41.625-18.636719-41.625-41.625 0-22.992188 18.632813-41.628906 41.625-41.628906 22.988281 0 41.625 18.636718 41.625 41.628906zm0 0" fill="#541f99"/><path d="m106.265625 432.792969c2.566406 5.40625 4.042969 11.425781 4.042969 17.808593 0 22.988282-18.636719 41.625-41.625 41.625-6.382813 0-12.402344-1.476562-17.808594-4.042968 6.679688 14.066406 20.972656 23.816406 37.582031 23.816406 22.988281 0 41.625-18.636719 41.625-41.625 0-16.609375-9.75-30.902344-23.816406-37.582031zm0 0" fill="#38067a"/><path d="m199.804688 470.375c0 22.988281-18.636719 41.625-41.625 41.625-22.988282 0-41.625-18.636719-41.625-41.625 0-22.992188 18.636718-41.628906 41.625-41.628906 22.988281 0 41.625 18.636718 41.625 41.628906zm0 0" fill="#541f99"/><path d="m175.988281 432.792969c2.566407 5.40625 4.042969 11.425781 4.042969 17.808593 0 22.988282-18.636719 41.625-41.625 41.625-6.382812 0-12.402344-1.476562-17.808594-4.042968 6.679688 14.066406 20.972656 23.816406 37.582032 23.816406 22.988281 0 41.625-18.636719 41.625-41.625 0-16.609375-9.75-30.902344-23.816407-37.582031zm0 0" fill="#38067a"/><path d="m236.398438 396.769531c-.847657 0-1.710938-.140625-2.558594-.433593-4.070313-1.414063-6.222656-5.855469-4.8125-9.925782.746094-2.152344 18.714844-52.785156 55.867187-53.953125 4.359375-.152343 7.910157 3.246094 8.046875 7.554688.132813 4.308593-3.25 7.910156-7.558594 8.046875-26.417968.832031-41.460937 43.046875-41.609374 43.472656-1.125 3.21875-4.144532 5.238281-7.375 5.238281zm0 0" fill="#659922"/><path d="m236.402344 388.96875s17.472656-32.726562-14.238282-40.1875c-5.035156-1.183594-10.179687 1.582031-12.019531 6.414062-4.363281 11.449219-7.277343 31.871094 26.257813 33.773438zm0 0" fill="#8bcc3f"/><path d="m223.238281 349.058594c11 12.257812.121094 32.640625.121094 32.640625-4.472656-.253907-8.292969-.839844-11.554687-1.6875 4.085937 4.699219 11.601562 8.21875 24.597656 8.957031 0 0 17.058594-31.96875-13.164063-39.910156zm0 0" fill="#659922"/><path d="m236.402344 388.96875s7.652344-36.300781 36.734375-21.632812c4.640625 2.339843 6.777343 7.796874 5.066406 12.703124-4.035156 11.570313-14.9375 28.992188-41.800781 8.929688zm0 0" fill="#8bcc3f"/><path d="m270.082031 365.953125c-2.222656 8.972656-10.058593 30.367187-32.8125 19.855469-.605469 1.925781-.867187 3.160156-.867187 3.160156 26.855468 20.058594 37.761718 2.648438 41.796875-8.925781 1.722656-4.941407-.472657-10.40625-5.15625-12.75-1.011719-.507813-1.996094-.953125-2.960938-1.339844zm0 0" fill="#659922"/><path d="m192.269531 510.222656c-20.640625-7.511718-43.851562-48.097656-28.355469-90.664062 19.09375-52.460938 72.488282-30.589844 72.488282-30.589844s54.960937 17.566406 35.867187 70.027344c-15.496093 42.566406-59.363281 58.738281-80 51.226562zm0 0" fill="#fb4239"/><path d="m266.578125 409.925781c1.691406 8.433594 1.128906 18.410157-3.140625 30.132813-15.492188 42.570312-59.359375 58.742187-80 51.230468-7.195312-2.621093-14.703125-9.269531-20.773438-18.613281 6.007813 19.121094 18.191407 33.394531 29.605469 37.546875 20.636719 7.511719 64.503907-8.660156 80-51.226562 8.054688-22.136719 2.925781-38.058594-5.691406-49.070313zm0 0" fill="#e31f1d"/></svg>