<svg height="512pt" viewBox="-101 0 512 512" width="512pt" xmlns="http://www.w3.org/2000/svg"><path d="m310.28125 152v138c0 83.808594-68.191406 152-152 152h-6.28125c-83.808594 0-152-68.191406-152-152v-138c0-83.808594 68.191406-152 152-152h6.28125c83.808594 0 152 68.191406 152 152zm0 0" fill="#c8fb78"/><path d="m310.28125 152v138c0 83.808594-68.191406 152-152 152h-3.140625v-442h3.140625c83.808594 0 152 68.191406 152 152zm0 0" fill="#82e36f"/><path d="m263.691406 243.289062v22.710938c0 25.359375-20.640625 46-46 46h-15.550781v197h-94v-215.148438h-16.332031c-25.367188 0-46-20.640624-46-46v-22.710937h30v22.710937c0 8.820313 7.171875 16 16 16h16.332031v-82.636718h94v100.785156h15.550781c8.820313 0 16-7.179688 16-16v-22.710938zm0 0" fill="#b77445"/><path d="m263.691406 243.289062v22.710938c0 25.359375-20.640625 46-46 46h-15.550781v197h-47v-327.785156h47v100.785156h15.550781c8.820313 0 16-7.179688 16-16v-22.710938zm0 0" fill="#a04010"/><path d="m67.140625 482h176v30h-176zm0 0" fill="#00b44b"/><path d="m155.140625 482h88v30h-88zm0 0" fill="#007e40"/></svg>