<?xml version="1.0" encoding="iso-8859-1"?>
<!-- Generator: Adobe Illustrator 19.0.0, SVG Export Plug-In . SVG Version: 6.00 Build 0)  -->
<svg version="1.1" id="Capa_1" xmlns="http://www.w3.org/2000/svg" xmlns:xlink="http://www.w3.org/1999/xlink" x="0px" y="0px"
	 viewBox="0 0 313.2 313.2" style="enable-background:new 0 0 313.2 313.2;" xml:space="preserve">
<g>
	<path style="fill:#C9C9C9;" d="M83.4,0h26.4c1.2,0,2,0.8,2,2l2.4,11.6l8,38.4l8-38.4L132.6,2c0.4-0.8,1.2-1.6,2-1.6l0,0h42
		c1.2,0,2,0.8,2,2l4.4,26.4l8,50l8-50l4.4-26.4c0-1.2,1.2-1.6,2-1.6l0,0h24.4c3.2,0,6.4,1.2,8.4,3.6c2,2,3.6,5.2,3.6,8.4v126.8
		c0,1.2-0.8,2-2,2H73.4c-1.2,0-2-0.8-2-2v-128c0-3.2,1.2-6.4,3.6-8.4l0,0C77,1.2,80.2,0,83.4,0z"/>
	<path style="fill:#F05F61;" d="M156.6,271.6c6.4,0,11.2,5.2,11.2,11.2c0,6.4-5.2,11.2-11.2,11.2c-6.4,0-11.2-5.2-11.2-11.2
		C145.4,276.4,150.2,271.6,156.6,271.6z M225.8,173.6h-54l14.4,110c2,16.4-13.6,29.6-29.6,29.6l0,0c-16.4,0-32-13.6-29.6-29.6
		l14.4-110h-54c-4.4,0-8.4-2-11.2-4.8l0,0l0,0l0,0c-2.8-2.8-4.8-6.8-4.8-11.2v-18.8c0-1.2,0.8-2,2-2h166.4c1.2,0,2,0.8,2,2v18.8
		c0,4.4-2,8.4-4.8,11.2l0,0l0,0l0,0C234.2,171.6,230.2,173.6,225.8,173.6z"/>
</g>
<g>
</g>
<g>
</g>
<g>
</g>
<g>
</g>
<g>
</g>
<g>
</g>
<g>
</g>
<g>
</g>
<g>
</g>
<g>
</g>
<g>
</g>
<g>
</g>
<g>
</g>
<g>
</g>
<g>
</g>
</svg>
