<?xml version="1.0" encoding="iso-8859-1"?>
<!-- Generator: Adobe Illustrator 19.0.0, SVG Export Plug-In . SVG Version: 6.00 Build 0)  -->
<svg version="1.1" id="Layer_1" xmlns="http://www.w3.org/2000/svg" xmlns:xlink="http://www.w3.org/1999/xlink" x="0px" y="0px"
	 viewBox="0 0 511.999 511.999" style="enable-background:new 0 0 511.999 511.999;" xml:space="preserve">
<path style="fill:#F9DE8F;" d="M265.538,17.937l70.867,143.593c1.549,3.139,4.545,5.316,8.01,5.82l158.464,23.026
	c8.725,1.268,12.209,11.99,5.896,18.145L394.109,320.293c-2.508,2.443-3.651,5.964-3.059,9.416l27.068,157.824
	c1.49,8.69-7.631,15.317-15.435,11.214l-141.735-74.515c-3.098-1.63-6.801-1.63-9.9,0l-141.735,74.513
	c-7.804,4.103-16.925-2.524-15.435-11.214l27.068-157.824c0.592-3.451-0.552-6.972-3.059-9.416L3.224,208.52
	c-6.313-6.155-2.829-16.877,5.896-18.145l158.464-23.026c3.465-0.503,6.459-2.68,8.01-5.82l70.867-143.593
	C250.362,10.03,261.636,10.03,265.538,17.937z"/>
<path style="fill:#F7CF6D;" d="M508.775,208.52c6.313-6.155,2.829-16.877-5.896-18.145l-74.471-10.821l-57.167,55.724
	c-17.296,16.86-25.188,41.15-21.105,64.955l0,0c10.283,59.948-52.641,105.665-106.478,77.36l0,0c-21.379-11.24-46.92-11.24-68.299,0
	l-68.831,36.186l-12.65,73.75c-1.49,8.69,7.631,15.317,15.435,11.214l141.735-74.515c3.098-1.63,6.801-1.63,9.9,0l141.735,74.515
	c7.804,4.103,16.925-2.524,15.435-11.214l-27.068-157.824c-0.592-3.451,0.552-6.972,3.059-9.416L508.775,208.52z"/>
<g>
</g>
<g>
</g>
<g>
</g>
<g>
</g>
<g>
</g>
<g>
</g>
<g>
</g>
<g>
</g>
<g>
</g>
<g>
</g>
<g>
</g>
<g>
</g>
<g>
</g>
<g>
</g>
<g>
</g>
</svg>
