<svg id="Capa_1" enable-background="new 0 0 510 510" height="512" viewBox="0 0 510 510" width="512" xmlns="http://www.w3.org/2000/svg"><g><path d="m277.5 60c0 .101 0 .781 0 .68l2.666 29.32 11.294 14.238-8.553 15.921c.716 7.87 2.036 22.397 2.713 29.836l11.34 14.742-8.612 15.26 4.706 51.768c11.653 11.653 26.685 26.684 37.152 37.152l7.294-7.706 10-123.107-10-138.104c-33.083 0-60 26.915-60 60z" fill="#9d6b5d"/><path d="m98.053 278.233-4.705 51.767 8.703 14.255-11.431 15.745c-.68 7.476-2.009 22.09-2.728 30l8.637 15-11.364 15-2.665 29.319c0 .101 0 .781 0 .681 0 33.083 26.915 60 60 60l10-138.106-10-123.106-7.648-7.352c-6.614 6.612-27.89 27.889-36.799 36.797z" fill="#9d6b5d"/><path d="m186.947 278.233c-12.502-12.502-26.548-26.548-37.591-37.59l-6.856 8.143v261.213c33.083 0 60-26.915 60-60 0-.101 0-.781 0-.681l-2.658-29.237-11.446-15.914 8.712-14.167c-.721-7.924-2.05-22.545-2.728-30.001l-11.324-14.566 8.599-15.414z" fill="#895050"/><path d="m127.5 0v128.787c-10.499-10.499-19.501-19.501-30-30 0-26.744 0-82.989 0-98.787-10.492 0-19.508 0-30 0v111.213l59.997 59.997 7.503 10.002 7.5-9.999 10-78.106-10-93.107c-5.246 0-9.754 0-15 0z" fill="#fff5f5"/><path d="m187.5 0v98.787c-10.499 10.499-19.501 19.502-30 30 0-15.577 0-113.107 0-128.787-5.246 0-9.754 0-15 0v171.213l6.875 9.225 8.125-9.224 60-60c0-12.531 0-98.008 0-111.213-10.492-.001-19.508-.001-30-.001z" fill="#ece6f2"/><path d="m337.5 0v261.213l7.919 7.081c8.078-8.079 28.913-28.913 36.527-36.527l4.706-51.768-8.637-14.998 11.365-15.001c.68-7.476 2.008-22.091 2.727-30l-8.634-15.033 11.36-14.967 2.666-29.32c0-.101 0-.781 0-.68.001-33.083-26.914-60-59.999-60z" fill="#895050"/><path d="m90.62 360h51.88l10-15-10-15c-15.615 0-33.537 0-49.152 0-.954 10.491-1.775 19.509-2.728 30z" fill="#fad42b"/><path d="m85.165 420h57.335l10-15-10-15c-17.37 0-37.237 0-54.607 0-.955 10.492-1.774 19.508-2.728 30z" fill="#fad42b"/><path d="m127.5 171.213v77.573h15l10-38.787-10-38.787c-5.246.001-9.754.001-15 .001z" fill="#ece6f2"/><path d="m157.5 171.213c-5.246 0-9.754 0-15 0v77.573h15c0-9.426 0-68.118 0-77.573z" fill="#cfcfe6"/><path d="m194.38 360c-.953-10.491-1.773-19.509-2.728-30-15.615 0-33.537 0-49.152 0v30z" fill="#fbc000"/><path d="m199.835 420c-.954-10.492-1.774-19.508-2.728-30-17.37 0-37.237 0-54.607 0v30z" fill="#fbc000"/><path d="m288.348 180h49.152l10-15-10-15c-16.509 0-35.371 0-51.88 0 .954 10.491 1.774 19.509 2.728 30z" fill="#fad42b"/><path d="m282.893 120h54.607l10-15-10-15c-18.214 0-39.121 0-57.335 0 .954 10.491 1.775 19.509 2.728 30z" fill="#fad42b"/><path d="m386.652 180c.954-10.492 1.773-19.508 2.728-30-16.509 0-35.371 0-51.88 0v30z" fill="#fbc000"/><path d="m392.107 120c.953-10.491 1.773-19.509 2.727-30-18.213 0-39.12 0-57.334 0v30z" fill="#fbc000"/><path d="m322.5 315 7.5 10 7.5-10 10-26.894-10-26.894c-5.246 0-9.754 0-15 0z" fill="#ece6f2"/><path d="m352.5 315c0-17.115 0-36.672 0-53.787-5.246 0-9.754 0-15 0v53.787l7.5 10z" fill="#cfcfe6"/><path d="m442.5 510c-10.492 0-19.508 0-30 0 0-28.278 0-88.527 0-105l15-10 15 10z" fill="#b9b9d6"/><path d="m382.5 510c-10.492 0-19.508 0-30 0 0-28.278 0-88.527 0-105l15-10 15 10z" fill="#b9b9d6"/><path d="m322.5 510c-10.492 0-19.508 0-30 0 0-28.278 0-88.527 0-105l15-10 15 10z" fill="#cfcfe6"/><path d="m262.5 510c-10.492 0-19.508 0-30 0 0-28.278 0-88.527 0-105l15-10 15 10z" fill="#cfcfe6"/><path d="m292.5 315c-33.083 0-60 26.915-60 60 6.567 1.251 45.925 8.748 52.5 10l52.5-10 10-25-10-35c-14.981 0-30.019 0-45 0z" fill="#fff5f5"/><path d="m442.5 375c0-33.083-26.915-60-60-60-14.981 0-30.019 0-45 0v60l52.5 10c6.567-1.251 45.925-8.748 52.5-10z" fill="#ece6f2"/><path d="m337.5 405h-105v-30h105l10 15z" fill="#ece6f2"/><path d="m337.5 375h105v30h-105z" fill="#cfcfe6"/></g></svg>