<?xml version="1.0" encoding="iso-8859-1"?>
<!-- Generator: Adobe Illustrator 19.0.0, SVG Export Plug-In . SVG Version: 6.00 Build 0)  -->
<svg version="1.1" id="Capa_1" xmlns="http://www.w3.org/2000/svg" xmlns:xlink="http://www.w3.org/1999/xlink" x="0px" y="0px"
	 viewBox="0 0 512 512" style="enable-background:new 0 0 512 512;" xml:space="preserve">
<polygon style="fill:#FFB242;" points="450.962,79.335 225.481,79.335 207.851,250.109 225.481,420.885 450.962,420.885 "/>
<polygon style="fill:#FFD69B;" points="159.936,79.335 150.573,51.244 37.454,51.244 28.091,79.335 0,79.335 0,420.885 
	225.481,420.885 225.481,79.335 "/>
<path style="fill:#782E1C;" d="M349.041,494.14L349.041,494.14c17.614,0,31.893-14.279,31.893-31.893V340.654l-51.909-20.018
	L349.041,494.14L349.041,494.14z"/>
<g>
	<path style="fill:#BD2B0F;" d="M317.148,462.247c0,17.614,14.279,31.893,31.893,31.893V320.635l-31.893,20.014V462.247z"/>
	<path style="fill:#BD2B0F;" d="M349.041,17.86L349.041,17.86l-20.016,162.959l20.016,162.959l0,0
		c90,0,162.959-72.959,162.959-162.959S439.041,17.86,349.041,17.86z"/>
</g>
<path style="fill:#DB5925;" d="M186.081,180.819c0,90,72.959,162.959,162.959,162.959V17.86
	C259.041,17.86,186.081,90.819,186.081,180.819z"/>
<path style="fill:#00B9ED;" d="M457.852,180.819c0-59.999-48.813-108.811-108.811-108.811l-20.016,108.811l20.016,108.811
	C409.039,289.63,457.852,240.818,457.852,180.819z"/>
<path style="fill:#8AEEFF;" d="M240.229,180.819c0,59.999,48.813,108.811,108.811,108.811V72.008
	C289.042,72.008,240.229,120.82,240.229,180.819z"/>
<g>
</g>
<g>
</g>
<g>
</g>
<g>
</g>
<g>
</g>
<g>
</g>
<g>
</g>
<g>
</g>
<g>
</g>
<g>
</g>
<g>
</g>
<g>
</g>
<g>
</g>
<g>
</g>
<g>
</g>
</svg>
