<svg enable-background="new 0 0 24 24" height="512" viewBox="0 0 24 24" width="512" xmlns="http://www.w3.org/2000/svg"><path d="m17.5 9c1.654 0 3.193.482 4.5 1.302v-7.702l-10.16 5.03c-.52.26-1.16.26-1.68 0l-10.16-5.03v9.15c0 1.24 1.01 2.25 2.25 2.25h7.513c1.337-2.944 4.298-5 7.737-5z" fill="#eceff1"/><path d="m22 2.25v.6l-10.16 5.03c-.52.26-1.16.26-1.68 0l-10.16-5.03v-.6c0-1.24 1.01-2.25 2.25-2.25h17.5c1.24 0 2.25 1.01 2.25 2.25z" fill="#b0bec5"/><circle cx="17.5" cy="17.5" fill="#ffc107" r="6.5"/><path d="m20 18.5h-5c-.552 0-1-.448-1-1s.448-1 1-1h5c.552 0 1 .448 1 1s-.448 1-1 1z" fill="#fafafa"/></svg>