<svg id="color" enable-background="new 0 0 24 24" height="512" viewBox="0 0 24 24" width="512" xmlns="http://www.w3.org/2000/svg"><path d="m19.93 8.1c-.201 0-.393-.081-.534-.224l-4.169-4.219c-.289-.291-.29-.759-.003-1.052l1.771-1.81c.506-.514 1.178-.795 1.894-.795h.009c.714.002 1.382.285 1.88.796l1.448 1.479c1.035 1.049 1.036 2.759-.001 3.811l-1.76 1.79c-.141.143-.333.224-.535.224z" fill="#f44336"/><path d="m2.96 24-.188-.024c-.26-.067-.464-.269-.535-.528l-1.21-4.41c-.071-.257.001-.533.188-.723l3.98-4.06c.141-.144.334-.225.536-.225.201 0 .395.082.536.226l2.768 2.818c.287.292.288.759.001 1.051l-5.54 5.65c-.143.146-.337.225-.536.225z" fill="#cfd8dc"/><path d="m6.553 15.624 10.761-10.909c.141-.144.333-.225.535-.225h.001c.201 0 .393.081.534.224l2.597 2.635-10.561 10.781c-.392.4-1.036.4-1.428 0z" fill="#ffd54f"/><path d="m5.193 14.214c-.378-.39-.376-1.01.004-1.397l10.557-10.754 2.629 2.649-11.279 11.484z" fill="#ffb300"/><path d="m13.711 9.311c-.673-.673-1.771-.674-2.446 0-.327.327-.506.761-.506 1.222 0 .462.18.895.507 1.222.337.337.78.505 1.223.505s.886-.168 1.222-.505c.327-.327.507-.76.507-1.222-.001-.462-.18-.896-.507-1.222z" fill="#795548"/><path d="m21.542 1.577-3.128 3.167 2.567 2.604-.514.525 1.758-1.788c1.037-1.052 1.036-2.762.001-3.811z" fill="#d43a2f"/><path d="m7.108 16.194-5.369 5.438.498 1.816c.071.259.275.46.535.528l.188.024c.199 0 .393-.079.536-.225l5.516-5.625c-.007-.006-.013-.013-.02-.02z" fill="#b4bcc0"/><path d="m18.414 4.744-4.609 4.668c.267.313.412.706.412 1.121 0 .462-.18.895-.507 1.222-.336.337-.779.505-1.222.505-.393 0-.785-.132-1.104-.397l-4.277 4.331 1.884 1.936.02.02c.193.187.444.281.694.281.259 0 .518-.1.714-.3l10.048-10.257.514-.525z" fill="#deb945"/><path d="m13.805 9.412-2.42 2.451c.319.265.711.397 1.104.397.443 0 .886-.168 1.222-.505.327-.327.507-.76.507-1.222-.001-.415-.146-.808-.413-1.121z" fill="#694a3f"/></svg>