<svg id="Capa_1" enable-background="new 0 0 511.999 511.999" height="512" viewBox="0 0 511.999 511.999" width="512" xmlns="http://www.w3.org/2000/svg"><g><g clip-rule="evenodd" fill-rule="evenodd"><path d="m264.319 66.909c60.039-52.979 145.561-57.571 204.948 1.786 56.976 56.977 56.976 150.236 0 207.212l-206.025 206.022c-5.953 5.953-8.731 5.782-14.485 0l-206.025-206.022c-56.977-56.976-56.977-150.235 0-207.212 59.358-59.357 144.908-54.766 204.947-1.758 6.492 5.726 10.177 5.669 16.64-.028z" fill="#fc636e"/><path d="m355.879 26.232c39.97-3.544 80.647 9.751 113.389 42.463 56.976 56.977 56.976 150.236 0 207.212l-206.026 206.022c-5.953 5.953-8.731 5.782-14.485 0l-5.272-5.244 200.78-200.778c56.978-56.976 56.978-150.235 0-207.212-25.91-25.909-56.807-39.629-88.386-42.463z" fill="#da4a54"/><path d="m226.052 270.691c-38.438 12.359-87.054-.566-122.94-36.453-32.57-32.57-46.234-75.629-39.231-112.054 2.239-11.707 1.389-11.282 13.436-13.606 3.346-.652 6.747-1.134 10.177-1.445 35.234-1.389 68.202 12.728 97.853 42.378 35.885 35.886 41.81 83.508 40.705 121.18zm59.895 0c38.411 12.359 87.026-.566 122.94-36.453 32.57-32.57 46.234-75.629 39.232-112.054-2.269-11.707-1.418-11.282-13.465-13.606-36.454-7.115-79.626 6.52-112.281 39.175-35.887 35.886-48.813 84.529-36.426 122.938z" fill="#95d6a4"/><path d="m226.052 270.691c-13.324 4.281-27.895 5.527-42.72 3.827 6.095-.709 12.02-1.984 17.717-3.827 12.359-38.409-.566-87.052-36.453-122.939-23.442-23.442-52.329-37.077-80.25-40.28 34.866-4.195 74.666 9.723 105.251 40.28 35.887 35.887 48.813 84.53 36.455 122.939zm77.585 3.827c34.866 4.195 74.665-9.694 105.251-40.28 32.57-32.57 46.234-75.629 39.232-112.054-2.269-11.707-1.418-11.282-13.465-13.606-10.262-2.013-21.061-2.353-32.031-1.105 2.381.283 4.733.652 7.029 1.105 12.047 2.324 11.197 1.899 13.465 13.606 7.002 36.425-6.662 79.483-39.231 112.054-23.444 23.442-52.329 37.105-80.25 40.28z" fill="#78c2a4"/></g><path d="m403.899 142.112c2.947-2.92 7.682-2.92 10.63 0 2.919 2.92 2.919 7.682 0 10.602l-28.829 28.828h24.379c4.139 0 7.483 3.345 7.483 7.483s-3.345 7.512-7.483 7.512h-39.375l-19.983 19.984h24.351c4.138 0 7.512 3.373 7.512 7.512s-3.374 7.483-7.512 7.483h-39.375l-72.228 72.255v174.274c0 4.11-3.345 7.455-7.483 7.455-4.11 0-7.455-3.345-7.455-7.455v-174.274l-72.256-72.255h-39.375c-4.138 0-7.482-3.345-7.482-7.483 0-4.139 3.345-7.512 7.482-7.512h24.38l-20.013-19.984h-39.346c-4.167 0-7.512-3.373-7.512-7.512s3.345-7.483 7.512-7.483h24.35l-28.801-28.828c-2.919-2.92-2.919-7.682 0-10.602 2.92-2.92 7.683-2.92 10.602 0l28.801 28.8v-24.35c0-4.139 3.374-7.512 7.513-7.512s7.483 3.373 7.483 7.512v39.373l20.013 19.984v-24.35c0-4.167 3.345-7.512 7.512-7.512 4.139 0 7.483 3.345 7.483 7.512v39.345l69.109 69.108 69.109-69.108v-39.344c0-4.167 3.374-7.512 7.512-7.512 4.139 0 7.483 3.345 7.483 7.512v24.35l20.013-19.984v-39.373c0-4.139 3.345-7.512 7.513-7.512 4.138 0 7.483 3.373 7.483 7.512v24.35z" fill="#5aa687"/><path clip-rule="evenodd" d="m341.593 403.58-78.351 78.35c-5.953 5.953-8.731 5.782-14.485 0l-78.379-78.35 54.682-39.799c17.093-12.416 44.787-12.416 61.852 0z" fill="#f1c395" fill-rule="evenodd"/><path clip-rule="evenodd" d="m341.593 403.58-78.351 78.35c-5.953 5.953-8.731 5.782-14.485 0l-5.272-5.244 68.798-68.797c3.005-3.005 2.948-5.301-.198-7.597l-50.174-36.511c-5.329-3.883-11.679-6.548-18.426-7.993 14.91-3.231 31.691-.567 43.427 7.993z" fill="#e8b888" fill-rule="evenodd"/></g></svg>