<svg id="Capa_1" enable-background="new 0 0 504.5 504.5" height="512" viewBox="0 0 504.5 504.5" width="512" xmlns="http://www.w3.org/2000/svg"><g><path d="m337 139.25h-11v110h11c30.376 0 55-24.624 55-55 0-30.376-24.624-55-55-55z" fill="#ffc682"/><path d="m392 194.25c0 30.38-24.62 55-55 55h-11v-35h11c24.26 0 44.85-15.7 52.16-37.5 1.84 5.5 2.84 11.38 2.84 17.5z" fill="#ffac5c"/><path d="m109.25 365.28c0 1.72-.3 3.4-.86 4.97-2.03 5.7-7.44 10-14.15 10h-39.24c-2.76 0-5-2.24-5-5v-129h45v30.54c0 27.83 4.35 55.48 12.9 81.96.19.6.38 1.19.58 1.79.35 1.07.58 2.15.68 3.21.03.17.04.33.05.5.03.35.04.69.04 1.03z" fill="#f5f5f5"/><path d="m109.25 365.28c0 1.72-.3 3.4-.86 4.97-2.03 5.7-7.44 10-14.15 10h-39.24c-2.76 0-5-2.24-5-5v-127l45 .49v22.01h-22.5c-1.1 0-2 .9-2 2v84c0 1.1.9 2 2 2h35.4c.19.6.38 1.19.58 1.79.35 1.07.58 2.15.68 3.21.03.17.04.33.05.5.03.35.04.69.04 1.03z" fill="#e6e6e6"/><path d="m415.623 153.449c-2.285 0-4.541-1.04-6.014-3.011-2.479-3.318-1.8-8.018 1.519-10.497l44.996-33.623c3.318-2.48 8.019-1.799 10.497 1.519 2.479 3.318 1.8 8.018-1.519 10.497l-44.996 33.623c-1.347 1.006-2.922 1.492-4.483 1.492z" fill="#ffe7c9"/><path d="m415.623 237.051c-2.285 0-4.541 1.04-6.014 3.011-2.479 3.318-1.8 8.018 1.519 10.497l44.996 33.623c3.318 2.48 8.019 1.799 10.497-1.519 2.479-3.318 1.8-8.018-1.519-10.497l-44.996-33.623c-1.347-1.006-2.922-1.492-4.483-1.492z" fill="#ffe7c9"/><path d="m117.56 139.25v110h-62.56c-15.19 0-28.94-6.16-38.89-16.11s-16.11-23.7-16.11-38.89c0-30.38 24.62-55 55-55z" fill="#fd646f"/><path d="m117.56 216.25v33h-62.56c-15.19 0-28.94-6.16-38.89-16.11-7.67-7.67-13.09-17.6-15.16-28.71 9.37 7.41 21.19 11.82 34.05 11.82z" fill="#fc4755"/><path d="m286.5 33.32v321.86l-54.91-33.92-28.93-17.87-35.16-21.72-15-9.26-37.5-23.16v-110l37.5-23.16 15-9.27z" fill="#f0ecec"/><path d="m167.5 106.82v174.85l-15-9.26v-156.32z" fill="#fd646f"/><path d="m286.5 33.32v321.86l-1.5-.93-53.41-32.99-28.93-17.87-35.16-21.72-15-9.26-37.5-23.16v-110l27.5-16.98 10-6.18 15-9.27z" fill="#f5f5f5"/><path d="m167.5 106.82v153.69l-15-9.26v-135.16z" fill="#fd646f"/><path d="m337 34.25v320c0 14.36-11.64 26-26 26-7.18 0-13.68-2.91-18.38-7.62-4.71-4.7-7.62-11.2-7.62-18.38v-320c0-14.36 11.64-26 26-26s26 11.64 26 26z" fill="#fd646f"/><path d="m167.5 245.29v36.38l-15-9.26v-36.38z" fill="#fc4755"/><path d="m291.003 319.71c-1.933 2.456-5.981 1.159-6.003-1.966 0-.025 0-.049 0-.074v10.36 26.22c0 .449.011.895.034 1.338.247 4.875 1.837 9.395 4.409 13.197.234.346.476.685.725 1.019.5.667 1.03 1.309 1.591 1.924.28.307.567.608.862.902 4.805 4.816 11.492 7.75 18.864 7.616 14.266-.26 25.515-12.313 25.515-26.583v-34.973-34.89c-18.105 8.099-33.872 20.506-45.997 35.91z" fill="#fc4755"/><path d="m285 317.87v36.38l-53.41-32.99-28.93-17.87-35.16-21.72v-36.38l9.46 5.84z" fill="#e6e6e6"/><path d="m152.5 236.03v36.38l-37.5-23.16v-33c.86.1 1.71.24 2.56.42 3.54.72 6.94 2.07 10.04 3.98l14.9 9.2z" fill="#e6e6e6"/><path d="m488 394.75c0 56.06-45.44 101.5-101.5 101.5-19.58 0-37.86-5.54-53.36-15.14-4.95-3.07-9.61-6.54-13.94-10.39-3.6-3.18-6.97-6.61-10.06-10.28-7.35-8.63-13.27-18.5-17.4-29.26-4.36-11.31-6.74-23.59-6.74-36.43 0-56.06 45.44-101.5 101.5-101.5 12.84 0 25.12 2.38 36.42 6.74 10.76 4.13 20.64 10.05 29.28 17.4 3.66 3.1 7.1 6.46 10.26 10.06 3.86 4.33 7.33 8.99 10.4 13.94 9.6 15.5 15.14 33.78 15.14 53.36z" fill="#fad207"/><path clip-rule="evenodd" d="m384.5 397.89v-37.71c10.6 2.49 18.5 9.76 18.5 18.07 0 4.14 3.36 7.5 7.5 7.5 2.245 0 4.096-1.117 5.629-2.557l9.619-9.588h-8.136c-2.411-14.399-15.862-25.947-33.112-28.715v-26.81h-2.93l-9.79 9.79c-.06.05-.11.1-.16.16l-.11.11.01.01c-1.25 1.34-2.02 3.13-2.02 5.1v11.49c-5.855.82-11.29 2.654-16.041 5.262v-2.297l-9.753 9.738v.003c-5.454 5.753-8.707 12.973-8.707 20.804 0 16.79 14.94 30.77 34.5 33.51v37.78c-11.1-2.26-19.5-9.72-19.5-18.29 0-2.22-.972-4.209-2.506-5.583l-.042-9.965-10.043 10.042.003.008c-1.48 1.37-2.412 3.323-2.412 5.497 0 16.79 14.94 30.77 34.5 33.51v11.49c0 4.14 3.36 7.5 7.5 7.5 1.857 0 3.553-.679 4.863-1.798l9.98-9.976h-7.342v-7.366c19.07-3.06 33.5-16.85 33.5-33.36s-14.43-30.299-33.5-33.359zm-15-1.348c-11.096-2.265-19.5-9.723-19.5-18.292s8.404-16.027 19.5-18.292zm15 52.782v-36.149c10.597 2.498 18.5 9.765 18.5 18.074s-7.903 15.577-18.5 18.075z" fill="#f8c201" fill-rule="evenodd"/><path d="m394.5 387.89v-37.715c10.597 2.498 18.5 9.765 18.5 18.074 0 4.143 3.357 7.5 7.5 7.5s7.5-3.357 7.5-7.5c0-16.506-14.433-30.296-33.5-33.36v-11.64c0-4.143-3.357-7.5-7.5-7.5s-7.5 3.357-7.5 7.5v11.493c-19.56 2.735-34.5 16.714-34.5 33.507s14.94 30.772 34.5 33.507v37.785c-11.096-2.265-19.5-9.723-19.5-18.292 0-4.143-3.357-7.5-7.5-7.5s-7.5 3.357-7.5 7.5c0 16.793 14.94 30.772 34.5 33.507v11.493c0 4.143 3.357 7.5 7.5 7.5s7.5-3.357 7.5-7.5v-11.64c19.067-3.064 33.5-16.854 33.5-33.36s-14.433-30.295-33.5-33.359zm-34.5-19.64c0-8.569 8.404-16.027 19.5-18.292v36.584c-11.096-2.265-19.5-9.723-19.5-18.292zm34.5 71.074v-36.149c10.597 2.498 18.5 9.765 18.5 18.074s-7.903 15.577-18.5 18.075z" fill="#f5f5f5"/><path d="m497 202.75h-70c-4.143 0-7.5-3.357-7.5-7.5s3.357-7.5 7.5-7.5h70c4.143 0 7.5 3.357 7.5 7.5s-3.357 7.5-7.5 7.5z" fill="#ffe7c9"/></g></svg>