<svg xmlns="http://www.w3.org/2000/svg" height="512pt" version="1.1" viewBox="0 -62 512 512" width="512pt">
<g id="surface1">
<path d="M 229.515625 344.277344 L 256 344.277344 L 256 317.792969 L 0 317.792969 L 0 335.449219 C 0 364.699219 23.714844 388.414062 52.964844 388.414062 L 256 388.414062 L 256 344.277344 Z M 229.515625 344.277344 " style=" stroke:none;fill-rule:nonzero;fill:rgb(67.45098%,67.058824%,69.411765%);fill-opacity:1;" />
<path d="M 494.34375 317.792969 L 256 317.792969 L 256 388.414062 L 459.035156 388.414062 C 488.285156 388.414062 512 364.699219 512 335.449219 L 512 317.792969 Z M 494.34375 317.792969 " style=" stroke:none;fill-rule:nonzero;fill:rgb(74.117647%,73.72549%,75.686275%);fill-opacity:1;" />
<path d="M 467.863281 26.484375 L 467.863281 291.3125 L 256 291.3125 L 256 317.792969 L 494.34375 317.792969 L 494.34375 17.65625 C 494.34375 7.90625 486.441406 0 476.691406 0 L 256 0 L 256 26.484375 Z M 467.863281 26.484375 " style=" stroke:none;fill-rule:nonzero;fill:rgb(92.156863%,92.54902%,92.941176%);fill-opacity:1;" />
<path d="M 256 291.3125 L 44.136719 291.3125 L 44.136719 26.484375 L 256 26.484375 L 256 0 L 35.3125 0 C 25.558594 0 17.65625 7.90625 17.65625 17.65625 L 17.65625 317.792969 L 256 317.792969 Z M 256 291.3125 " style=" stroke:none;fill-rule:nonzero;fill:rgb(90.196078%,90.588235%,90.980392%);fill-opacity:1;" />
<path d="M 44.136719 26.484375 L 256 26.484375 L 256 291.3125 L 44.136719 291.3125 Z M 44.136719 26.484375 " style=" stroke:none;fill-rule:nonzero;fill:rgb(69.803922%,84.313725%,95.686275%);fill-opacity:1;" />
<path d="M 256 26.484375 L 467.863281 26.484375 L 467.863281 291.3125 L 256 291.3125 Z M 256 26.484375 " style=" stroke:none;fill-rule:nonzero;fill:rgb(75.686275%,87.45098%,96.470588%);fill-opacity:1;" />
<path d="M 282.484375 353.105469 L 229.515625 353.105469 C 224.640625 353.105469 220.6875 349.152344 220.6875 344.277344 C 220.6875 339.402344 224.640625 335.449219 229.515625 335.449219 L 282.484375 335.449219 C 287.359375 335.449219 291.3125 339.398438 291.3125 344.277344 C 291.3125 349.152344 287.359375 353.105469 282.484375 353.105469 Z M 282.484375 353.105469 " style=" stroke:none;fill-rule:nonzero;fill:rgb(57.647059%,58.431373%,59.607843%);fill-opacity:1;" />
</g>
</svg>