<svg height="512" viewBox="0 0 48 48" width="512" xmlns="http://www.w3.org/2000/svg"><g id="Line"><g fill="#bedee1"><path d="m11.45 29.11a1 1 0 0 0 -1.34.44l-1 2a1 1 0 0 0 .44 1.34.93.93 0 0 0 .45.11 1 1 0 0 0 .89-.55l1-2a1 1 0 0 0 -.44-1.34z"/><path d="m38.45 29.11a1 1 0 0 0 -1.34.44l-1 2a1 1 0 0 0 .44 1.34.93.93 0 0 0 .45.11 1 1 0 0 0 .89-.55l1-2a1 1 0 0 0 -.44-1.34z"/><path d="m9.89 42.45 1-2a1 1 0 0 0 -1.78-.9l-1 2a1 1 0 0 0 .44 1.34.93.93 0 0 0 .45.11 1 1 0 0 0 .89-.55z"/><path d="m27.89 42.45 1-2a1 1 0 0 0 -1.78-.9l-1 2a1 1 0 0 0 .44 1.34.93.93 0 0 0 .45.11 1 1 0 0 0 .89-.55z"/><path d="m36.89 42.45 1-2a1 1 0 0 0 -1.78-.9l-1 2a1 1 0 0 0 .44 1.34.93.93 0 0 0 .45.11 1 1 0 0 0 .89-.55z"/><path d="m15.45 34.11a1 1 0 0 0 -1.34.44l-1 2a1 1 0 0 0 .44 1.34.93.93 0 0 0 .45.11 1 1 0 0 0 .89-.55l1-2a1 1 0 0 0 -.44-1.34z"/><path d="m33.45 34.11a1 1 0 0 0 -1.34.44l-1 2a1 1 0 0 0 .44 1.34.93.93 0 0 0 .45.11 1 1 0 0 0 .89-.55l1-2a1 1 0 0 0 -.44-1.34z"/><path d="m40.55 37.89a.93.93 0 0 0 .45.11 1 1 0 0 0 .89-.55l1-2a1 1 0 0 0 -1.78-.9l-1 2a1 1 0 0 0 .44 1.34z"/><path d="m6.45 34.11a1 1 0 0 0 -1.34.44l-1 2a1 1 0 0 0 .44 1.34.93.93 0 0 0 .45.11 1 1 0 0 0 .89-.55l1-2a1 1 0 0 0 -.44-1.34z"/></g><path d="m30.91 31.58a1 1 0 0 0 -.91-.58h-3.52l1.45-3.63a1 1 0 0 0 -.1-.93 1 1 0 0 0 -.83-.44h-6a1 1 0 0 0 -.94.65l-3 8a1 1 0 0 0 .94 1.35h2.66l-2.66 8.71a1 1 0 0 0 .48 1.17 1 1 0 0 0 .52.12 1 1 0 0 0 .76-.35l11-13a1 1 0 0 0 .15-1.07z" fill="#f5c12e"/><path d="m11.26 28h28.74a6 6 0 0 0 6-6 7.29 7.29 0 0 0 -7.13-7.58 7.93 7.93 0 0 0 -.15-3.49 8 8 0 0 0 -13.46-3.5 9 9 0 0 0 -17.26 3.57 2.81 2.81 0 0 0 0 .29 8.11 8.11 0 0 0 -6 7.71v.1a9.16 9.16 0 0 0 9.26 8.9z" fill="#d1d1d1"/></g></svg>