<svg height="512" viewBox="0 0 58 58" width="512" xmlns="http://www.w3.org/2000/svg"><g id="Page-1" fill="none" fill-rule="evenodd"><g id="010---Locked-Folder" fill-rule="nonzero"><path id="Shape" d="m58 19v29c0 3.3137085-2.6862915 6-6 6h-46c-3.3137085 0-6-2.6862915-6-6v-44c0-2.209139 1.790861-4 4-4h22c2.209139 0 4 1.790861 4 4v2h18c2.209139 0 4 1.790861 4 4v3c3.3116533.0049563 5.9950437 2.6883467 6 6z" fill="#f0c419"/><path id="Shape" d="m52 10v3h-52v-9c0-2.209139 1.790861-4 4-4h22c2.209139 0 4 1.790861 4 4v2h18c2.209139 0 4 1.790861 4 4z" fill="#f29c1f"/><path id="Shape" d="m18 13h-4c-.5522847 0-1-.4477153-1-1s.4477153-1 1-1h4c.5522847 0 1 .4477153 1 1s-.4477153 1-1 1z" fill="#e57e25"/><path id="Shape" d="m52 11v2h-29c-.5522847 0-1-.4477153-1-1s.4477153-1 1-1z" fill="#e57e25"/><path id="Shape" d="m22 38v-6c0-3.8659932-3.1340068-7-7-7s-7 3.1340068-7 7v6h-4v-6c0-6.0751322 4.92486775-11 11-11 6.0751322 0 11 4.9248678 11 11v6z" fill="#7f8c8d"/><path id="Shape" d="m4 36h22c1.1045695 0 2 .8954305 2 2v15c0 2.7614237-2.2385763 5-5 5h-16c-2.76142375 0-5-2.2385763-5-5v-15c0-1.1045695.8954305-2 2-2z" fill="#2fa8cc"/><path id="Shape" d="m18 45c.0032158-1.3740425-.9274623-2.5746319-2.2589269-2.9140511-1.3314645-.3394192-2.7233249.2691049-3.3783008 1.4769996s-.405622 2.7063604.6052277 3.6370515l-.58 3.476c-.0950865.5792001.0690551 1.1709318.4489262 1.6183826.379871.4474508.9371205.7054467 1.5240738.7056174h1.278c.5879836.0000723 1.1462101-.2585952 1.5262725-.7072345.3800625-.4486394.5434508-1.041792.4467275-1.6217655l-.58-3.476c.6157228-.5638904.9668458-1.3600835.968-2.195z" fill="#285680"/></g></g></svg>