<svg id="Capa_1" enable-background="new 0 0 512 512" height="512" viewBox="0 0 512 512" width="512" xmlns="http://www.w3.org/2000/svg"><g><path d="m334.876 117.144-9.626 32.833c-2.402 8.194-9.919 13.823-18.458 13.823h-2.87c-7.444 0-14.323 3.971-18.046 10.419l-23.304 40.363c-2.011 3.482-7.037 3.482-9.047 0l-16.849-29.183c-3.929-6.805-3.206-15.336 1.813-21.383l38.899-46.871-15.704-22.688-10.05 22.688-29.142 29.142c-4.769 4.769-12.502 4.769-17.271 0l-29.142-29.142-10.674-22.688-15.081 22.688 48.385 58.3c3.56 4.29 6.751 8.873 9.538 13.7l19.302 33.432c9.96 17.251 15.204 36.821 15.204 56.741v193.001c0 7.171-2.849 14.049-7.92 19.12l-18.628 18.628c-.714.714-.208 1.934.801 1.934h77.987c1.009 0 1.515-1.22.801-1.934l-18.628-18.628c-5.071-5.071-7.92-11.949-7.92-19.12v-73.592c0-4.185 1.662-8.198 4.622-11.158l11.976-11.976c2.42-2.42 2.42-6.343 0-8.763l-11.976-11.976c-2.959-2.959-4.622-6.973-4.622-11.158v-57.279c0-19.92 5.243-39.489 15.203-56.741l21.06-36.477c1.038-1.798 2.956-2.905 5.032-2.905 17.983 0 33.724-12.078 38.378-29.449l11.71-43.701-15.757-22.688z" fill="#dab46b"/><path d="m373.361 73.582c-7.132 0-13.448-4.282-16.453-10.749-6.792-14.615-21.602-24.748-38.78-24.748h-4.017c-7.965 0-15.175-4.416-19.111-11.342-8.063-14.188-21.398-26.743-39-26.743s-30.937 12.555-39 26.744c-3.936 6.925-11.146 11.342-19.111 11.342h-4.017c-17.177 0-31.987 10.133-38.78 24.748-3.006 6.467-9.321 10.749-16.453 10.749-12.029 0-21.781 9.751-21.781 21.781 0 12.029 9.752 21.781 21.781 21.781h234.723c12.029 0 21.781-9.752 21.781-21.781-.001-12.03-9.753-21.782-21.782-21.782z" fill="#478089"/><g fill="#3d6b73"><path d="m373.361 73.582c-7.132 0-13.448-4.281-16.453-10.749-6.792-14.615-21.602-24.748-38.78-24.748h-4.017c-.21 0-.419-.004-.628-.01.812 1.339 1.554 2.725 2.218 4.154 3.006 6.467 9.321 10.749 16.453 10.749 12.029 0 21.781 9.752 21.781 21.781s-9.751 21.781-21.781 21.781h-215.264c.612 11.482 10.115 20.604 21.749 20.604h234.723c12.029 0 21.781-9.752 21.781-21.781-.001-12.029-9.753-21.781-21.782-21.781z"/><path d="m249.152 58.114c-4.55 0-8.978 1.252-12.821 3.521-5.561-5.571-13.245-9.023-21.721-9.023-16.931 0-30.705 13.775-30.705 30.706 0 4.268 3.459 7.726 7.726 7.726s7.726-3.459 7.726-7.726c0-8.41 6.842-15.254 15.253-15.254 8.41 0 15.253 6.843 15.253 15.254 0 4.268 3.459 7.726 7.726 7.726s7.726-3.459 7.726-7.726c0-2.905-.405-5.716-1.163-8.382 1.485-.889 3.198-1.37 4.999-1.37 5.377 0 9.751 4.374 9.751 9.752 0 4.268 3.459 7.726 7.726 7.726s7.726-3.459 7.726-7.726c.002-13.897-11.305-25.204-25.202-25.204z"/></g></g></svg>