<svg height="512" viewBox="0 0 128 128" width="512" xmlns="http://www.w3.org/2000/svg"><g><path d="m96.336 55.2a32.337 32.337 0 1 0 -55.919 22.123 24.5 24.5 0 0 1 6.8 16.731v3.319a4 4 0 0 0 4 4h25.569a4 4 0 0 0 4-4v-3.318a23.56 23.56 0 0 1 6.476-16.4 32.227 32.227 0 0 0 9.074-22.455z" fill="#ffd92e"/><path d="m54.859 59.668h18.282v41.705h-18.282z" fill="#ff6e1d"/><path d="m60.953 59.668h6.094v41.705h-6.094z" fill="#f75b0d"/><path d="m54.859 59.668a4.283 4.283 0 0 0 6.094 0 4.283 4.283 0 0 0 6.094 0 4.283 4.283 0 0 0 6.094 0l-9.141-18.282z" fill="#fee1ba"/><path d="m59.473 50.44h9.054l-4.527-9.054z" fill="#404a80"/><path d="m76.786 101.373v15.627a4 4 0 0 1 -4 4h-17.572a4 4 0 0 1 -4-4v-15.627z" fill="#80d4ff"/><g fill="#ffd92e"><path d="m64 16.361a1.749 1.749 0 0 1 -1.75-1.75v-7.611a1.75 1.75 0 0 1 3.5 0v7.611a1.749 1.749 0 0 1 -1.75 1.75z"/><path d="m112.2 56.949h-7.611a1.75 1.75 0 0 1 0-3.5h7.611a1.75 1.75 0 0 1 0 3.5z"/><path d="m23.412 56.949h-7.612a1.75 1.75 0 0 1 0-3.5h7.611a1.75 1.75 0 0 1 0 3.5z"/><path d="m92.7 28.25a1.75 1.75 0 0 1 -1.237-2.987l5.382-5.383a1.749 1.749 0 0 1 2.474 2.474l-5.382 5.383a1.741 1.741 0 0 1 -1.237.513z"/><path d="m29.918 91.031a1.75 1.75 0 0 1 -1.237-2.987l5.381-5.382a1.75 1.75 0 0 1 2.475 2.475l-5.382 5.382a1.746 1.746 0 0 1 -1.237.512z"/><path d="m98.082 91.031a1.744 1.744 0 0 1 -1.237-.512l-5.382-5.382a1.75 1.75 0 1 1 2.474-2.475l5.382 5.382a1.75 1.75 0 0 1 -1.237 2.987z"/><path d="m35.3 28.25a1.745 1.745 0 0 1 -1.238-.513l-5.381-5.383a1.749 1.749 0 1 1 2.474-2.474l5.382 5.383a1.75 1.75 0 0 1 -1.237 2.987z"/></g><path d="m51.214 109.436h25.572v3.5h-25.572z" fill="#6ebaff"/></g></svg>