<svg id="Capa_1" enable-background="new 0 0 512 512" height="512" viewBox="0 0 512 512" width="512" xmlns="http://www.w3.org/2000/svg"><g><path d="m73.224 453.599v2.689c0 30.772 24.941 55.712 55.712 55.712h315.071c30.772 0 55.712-24.941 55.712-55.712v-400.576c0-30.771-24.94-55.712-55.712-55.712h-315.07c-30.772 0-55.713 24.941-55.713 55.712v29.082 19.089" fill="#f1f4f6"/><path d="m101.24 456.288v-2.689-349.716-19.089-29.082c0-30.771 24.941-55.712 55.712-55.712h-28.016c-30.771 0-55.712 24.941-55.712 55.712l-7.073 13.344 7.073 15.738v19.089 56.278l-7.073 16.07 7.073 14.836v75.366l-9.034 14.685 9.034 16.22v75.366l-10.994 17.223 10.994 13.683v49.989 2.689c0 30.772 24.941 55.712 55.712 55.712h28.016c-30.771 0-55.712-24.941-55.712-55.712z" fill="#d4e1e6"/><g fill="#f5dd81"><path d="m73.222 84.795h-20.492c-5.263 0-9.544 4.281-9.544 9.544s4.281 9.544 9.544 9.544h37.393c5.263 0 9.544-4.281 9.544-9.544 0-8.534 6.919-15.453 15.453-15.453s15.453 6.919 15.453 15.453c0 22.304-18.145 40.449-40.449 40.449h-37.394c-22.304 0-40.449-18.145-40.449-40.449s18.145-40.45 40.449-40.45h20.492"/><path d="m73.222 191.067h-20.492c-5.263 0-9.544 4.281-9.544 9.544s4.281 9.544 9.544 9.544h37.393c5.263 0 9.544-4.281 9.544-9.544 0-8.534 6.919-15.453 15.453-15.453s15.453 6.919 15.453 15.453c0 22.304-18.145 40.449-40.449 40.449h-37.394c-22.304 0-40.449-18.145-40.449-40.449s18.145-40.449 40.449-40.449h20.492"/><path d="m73.222 297.338h-20.492c-5.263 0-9.544 4.281-9.544 9.544s4.281 9.544 9.544 9.544h37.393c5.263 0 9.544-4.281 9.544-9.544 0-8.534 6.919-15.453 15.453-15.453s15.453 6.919 15.453 15.453c0 22.304-18.145 40.449-40.449 40.449h-37.394c-22.304 0-40.449-18.145-40.449-40.449s18.145-40.449 40.449-40.449h20.492"/><path d="m73.222 403.61h-20.492c-5.263 0-9.544 4.281-9.544 9.544s4.281 9.544 9.544 9.544h37.393c5.263 0 9.544-4.281 9.544-9.544 0-8.534 6.919-15.453 15.453-15.453s15.453 6.919 15.453 15.453c0 22.304-18.145 40.449-40.449 40.449h-37.394c-22.304 0-40.449-18.145-40.449-40.449s18.145-40.449 40.449-40.449h20.492"/></g><path d="m29.268 413.154c0 22.304 18.152 40.445 40.455 40.445h-16.997c-22.303 0-40.445-18.141-40.445-40.445 0-22.303 18.141-40.445 40.445-40.445h16.998c-22.304 0-40.456 18.142-40.456 40.445z" fill="#f1cd6b"/><path d="m29.268 306.882c0 22.304 18.152 40.445 40.455 40.445h-16.997c-22.303 0-40.445-18.141-40.445-40.445 0-22.303 18.141-40.445 40.445-40.445h16.998c-22.304 0-40.456 18.142-40.456 40.445z" fill="#f1cd6b"/><path d="m29.268 200.61c0 22.304 18.152 40.445 40.455 40.445h-16.997c-22.303 0-40.445-18.141-40.445-40.445 0-22.303 18.141-40.445 40.445-40.445h16.998c-22.304.001-40.456 18.142-40.456 40.445z" fill="#f1cd6b"/><path d="m29.268 94.339c0 22.304 18.152 40.445 40.455 40.445h-16.997c-22.303 0-40.445-18.141-40.445-40.445 0-22.303 18.141-40.445 40.445-40.445h16.998c-22.304 0-40.456 18.141-40.456 40.445z" fill="#f1cd6b"/><g fill="#bbcfd4"><path d="m445.838 90.293h-288.885c-4.268 0-7.726-3.459-7.726-7.726s3.459-7.726 7.726-7.726h288.885c4.268 0 7.726 3.459 7.726 7.726s-3.458 7.726-7.726 7.726z"/><path d="m445.842 158.318h-288.894c-4.268 0-7.726-3.459-7.726-7.726s3.459-7.726 7.726-7.726h288.894c4.268 0 7.726 3.459 7.726 7.726s-3.458 7.726-7.726 7.726z"/><path d="m445.838 226.344h-288.885c-4.268 0-7.726-3.459-7.726-7.726s3.459-7.726 7.726-7.726h288.885c4.268 0 7.726 3.459 7.726 7.726s-3.458 7.726-7.726 7.726z"/><path d="m445.838 294.369h-288.885c-4.268 0-7.726-3.459-7.726-7.726s3.459-7.726 7.726-7.726h288.885c4.268 0 7.726 3.459 7.726 7.726s-3.458 7.726-7.726 7.726z"/><path d="m445.838 362.394h-288.885c-4.268 0-7.726-3.459-7.726-7.726s3.459-7.726 7.726-7.726h288.885c4.268 0 7.726 3.459 7.726 7.726s-3.458 7.726-7.726 7.726z"/><path d="m445.838 430.42h-288.885c-4.268 0-7.726-3.459-7.726-7.726s3.459-7.726 7.726-7.726h288.885c4.268 0 7.726 3.459 7.726 7.726s-3.458 7.726-7.726 7.726z"/></g></g></svg>