<svg id="Layer_1" height="512" viewBox="0 0 100 100" width="512" xmlns="http://www.w3.org/2000/svg" data-name="Layer 1"><path d="m11.8 12.84h54.8a3.55 3.55 0 0 1 3.55 3.55v77.42a0 0 0 0 1 0 0h-61.9a0 0 0 0 1 0 0v-77.42a3.55 3.55 0 0 1 3.55-3.55z" fill="#ddd"/><path d="m11.8 12.84h54.8a3.55 3.55 0 0 1 3.55 3.55v16.66a0 0 0 0 1 0 0h-61.9a0 0 0 0 1 0 0v-16.66a3.55 3.55 0 0 1 3.55-3.55z" fill="#b5504e"/><g opacity=".05"><path d="m70.15 93.16v.65h-61.9v-77.42a3.55 3.55 0 0 1 3.55-3.55h5.45v19.06a61.93 61.93 0 0 0 52.9 61.26z"/></g><g fill="#845a3d"><rect height="13.47" rx="3.21" width="6.43" x="43.12" y="6.23"/><rect height="13.47" rx="3.21" width="6.43" x="57.66" y="6.23"/><rect height="13.47" rx="3.21" width="6.43" x="28.57" y="6.23"/><rect height="13.47" rx="3.21" width="6.43" x="14.03" y="6.23"/></g><path d="m91.28 85.39-4.78 8.91a.55.55 0 0 1 -.84 0l-5.1-8.92a1.8 1.8 0 0 1 -.43-1.17v-66.9a5.78 5.78 0 0 1 5.77-5.78 5.78 5.78 0 0 1 5.78 5.78v67a1.79 1.79 0 0 1 -.4 1.08z" fill="#c4a182"/><path d="m80.13 79.79v-62.79a5.61 5.61 0 0 1 5.77-5.42 5.61 5.61 0 0 1 5.78 5.42v62.82c0 .38-11.55.37-11.55-.03z" fill="#b5504e"/><path d="m80.13 84.23v-63.93h11.55v63.96z" fill="#efac5e"/><g opacity=".05"><path d="m88 91.46-1.5 2.84a.55.55 0 0 1 -.84 0l-5.1-8.92a1.8 1.8 0 0 1 -.43-1.17v-66.9a5.77 5.77 0 0 1 7.78-5.42 5.78 5.78 0 0 0 -3.78 5.42v66.92a1.8 1.8 0 0 0 .43 1.17z"/></g></svg>