<svg id="Layer_1" enable-background="new 0 0 512 512" height="512" viewBox="0 0 512 512" width="512" xmlns="http://www.w3.org/2000/svg"><g><path d="m506 512h-500c-3.314 0-6-2.686-6-6v-358.865c0-3.314 2.686-6 6-6h500c3.314 0 6 2.686 6 6v358.865c0 3.314-2.686 6-6 6z" fill="#fec165"/><path d="m505.819 141.135h-30.905c3.414 0 6.181 2.767 6.181 6.181v358.503c0 3.414-2.767 6.181-6.181 6.181h30.905c3.414 0 6.181-2.767 6.181-6.181v-358.503c0-3.414-2.767-6.181-6.181-6.181z" fill="#fdb441"/><path d="m256 512h-250c-3.314 0-6-2.686-6-6v-358.403c0-3.314 2.686-6 6-6h250z" fill="#fdb441"/><path d="m256 479.034h-221.095c-2.209 0-4-1.791-4-4v-33.469h225.095z" fill="#b5adb6"/><path d="m477.095 479.034h-221.095v-37.469h225.095v33.469c0 2.209-1.791 4-4 4z" fill="#cbc4cc"/><path d="m256 448.129h-221.095c-2.209 0-4-1.791-4-4v-326.749c0-1.105.895-2 2-2h223.095z" fill="#e2dee2"/><path d="m477.095 448.129h-221.095v-332.749h223.095c1.105 0 2 .895 2 2v326.749c0 2.209-1.791 4-4 4z" fill="#e2dee2"/><path d="m256 448.129-180.028-29.931c-1.929-.321-3.344-1.99-3.344-3.946v-326.316c0-1.273 1.143-2.241 2.398-2.032l180.974 30.088z" fill="#f3f0f3"/><path d="m421.993 18.007v108.541c0 9.945-8.062 18.007-18.007 18.007h-42.262c-2.211 0-4.004 1.793-4.004 4.004v30.353c0 2.857-3.646 4.058-5.344 1.759l-24.272-32.864c-1.511-2.046-3.903-3.253-6.447-3.253h-149.318c-9.945 0-18.007-8.062-18.007-18.007v-108.54c-.001-9.945 8.062-18.007 18.007-18.007h231.647c9.945 0 18.007 8.062 18.007 18.007z" fill="#7ca1b1"/><g><path d="m403.986 0h-30.906c9.945 0 18.007 8.062 18.007 18.007v108.541c0 9.945-8.062 18.007-18.007 18.007h30.905c9.945 0 18.007-8.062 18.007-18.007v-108.541c.001-9.945-8.061-18.007-18.006-18.007z" fill="#678d98"/></g><g fill="#678d98"><path d="m288.162 226.302h90.905c4.143 0 7.5-3.358 7.5-7.5s-3.357-7.5-7.5-7.5h-90.905c-4.143 0-7.5 3.358-7.5 7.5s3.358 7.5 7.5 7.5z"/><path d="m288.162 257.478h153.667c4.143 0 7.5-3.358 7.5-7.5s-3.357-7.5-7.5-7.5h-153.667c-4.143 0-7.5 3.358-7.5 7.5s3.358 7.5 7.5 7.5z"/><path d="m441.829 274.254h-153.667c-4.143 0-7.5 3.358-7.5 7.5s3.357 7.5 7.5 7.5h153.667c4.143 0 7.5-3.358 7.5-7.5s-3.357-7.5-7.5-7.5z"/><path d="m441.829 306.032h-153.667c-4.143 0-7.5 3.358-7.5 7.5s3.357 7.5 7.5 7.5h153.667c4.143 0 7.5-3.358 7.5-7.5s-3.357-7.5-7.5-7.5z"/><path d="m441.829 337.809h-153.667c-4.143 0-7.5 3.358-7.5 7.5s3.357 7.5 7.5 7.5h153.667c4.143 0 7.5-3.358 7.5-7.5s-3.357-7.5-7.5-7.5z"/><path d="m368.547 369.586h-80.385c-4.143 0-7.5 3.358-7.5 7.5s3.357 7.5 7.5 7.5h80.385c4.143 0 7.5-3.358 7.5-7.5s-3.358-7.5-7.5-7.5z"/></g><g><g fill="#f3f0f3"><path d="m197.306 57.147h56.736c4.143 0 7.5-3.358 7.5-7.5s-3.357-7.5-7.5-7.5h-56.736c-4.143 0-7.5 3.358-7.5 7.5s3.357 7.5 7.5 7.5z"/><path d="m329.169 72.577h-131.863c-4.143 0-7.5 3.358-7.5 7.5s3.357 7.5 7.5 7.5h131.863c4.143 0 7.5-3.358 7.5-7.5s-3.357-7.5-7.5-7.5z"/></g></g></g></svg>