<svg id="Capa_1" enable-background="new 0 0 512 512" height="512" viewBox="0 0 512 512" width="512" xmlns="http://www.w3.org/2000/svg"><g><path d="m256 272c-24.814 0-45-20.186-45-45s20.186-45 45-45 45 20.186 45 45-20.186 45-45 45zm0-60c-8.262 0-15 6.724-15 15s6.738 15 15 15 15-6.724 15-15-6.738-15-15-15z" fill="#dfe7f4"/></g><path d="m271 227c0 8.276-6.738 15-15 15v30c24.814 0 45-20.186 45-45s-20.186-45-45-45v30c8.262 0 15 6.724 15 15z" fill="#c7cfe1"/><g><g><g><path d="m256 512c-5.684 0-10.869-3.208-13.418-8.291l-27.744-55.444-61.846 3.706c-6.387.322-11.074-2.563-13.887-7.471-2.842-4.922-2.666-11.016.469-15.762l34.131-51.738-34.131-51.738c-3.135-4.746-3.311-10.84-.469-15.762 2.813-4.922 7.705-7.749 13.887-7.471l61.846 3.706 27.744-55.444c5.098-10.166 21.738-10.166 26.836 0l27.744 55.444 61.846-3.706c6.123-.498 11.074 2.563 13.887 7.471 2.842 4.922 2.666 11.016-.469 15.762l-34.131 51.738 34.131 51.738c3.135 4.746 3.311 10.84.469 15.762-2.813 4.907-7.559 7.998-13.887 7.471l-61.846-3.706-27.744 55.444c-2.549 5.083-7.734 8.291-13.418 8.291z" fill="#f0f7ff"/></g></g><path d="m269.418 503.709 27.744-55.444 61.846 3.706c6.328.527 11.074-2.563 13.887-7.471 2.842-4.922 2.666-11.016-.469-15.762l-34.131-51.738 34.131-51.738c3.135-4.746 3.311-10.84.469-15.762-2.813-4.907-7.764-7.969-13.887-7.471l-61.846 3.706-27.744-55.444c-2.549-5.083-7.983-7.625-13.418-7.625v269.334c5.684 0 10.869-3.208 13.418-8.291z" fill="#dfe7f4"/><g><path d="m256 212c-1.611 0-3.193-.264-4.746-.776l-90-30c-6.123-2.036-10.254-7.764-10.254-14.224v-92c0-8.291 6.709-15 15-15h180c8.291 0 15 6.709 15 15v92c0 6.46-4.131 12.188-10.254 14.224l-90 30c-1.553.512-3.135.776-4.746.776z" fill="#6aa9ff"/></g><path d="m350.746 181.224c6.123-2.036 10.254-7.764 10.254-14.224v-92c0-8.291-6.709-15-15-15h-90v152c1.611 0 3.193-.264 4.746-.776z" fill="#2682ff"/><g id="Medal_20_"><g><g><g><path d="m376 90h-240c-8.291 0-15-6.709-15-15v-60c0-8.291 6.709-15 15-15h240c8.291 0 15 6.709 15 15v60c0 8.291-6.709 15-15 15z" fill="#f0f7ff"/></g></g></g></g><path d="m256 90h120c8.291 0 15-6.709 15-15v-60c0-8.291-6.709-15-15-15h-120z" fill="#dfe7f4"/></g></svg>