<svg height="512" viewBox="0 0 128 128" width="512" xmlns="http://www.w3.org/2000/svg"><g><path d="m33.097 36.201 7.658 85.493h46.49l7.658-85.493z" fill="#ef983b"/><path d="m70.32 6.306-.955 10.659h7l.955-10.659z" fill="#8c3f07"/><g fill="#f2e7cb"><path d="m100.677 36.2v-4.27a7.726 7.726 0 0 0 -7.726-7.726h-57.9a7.726 7.726 0 0 0 -7.726 7.726v4.27z"/><path d="m43.073 16.965h41.854v7.24h-41.854z"/><path d="m30.787 52.43 3.583 40h59.26l3.583-40z"/></g><ellipse cx="64" cy="72.43" fill="#8c3f07" rx="13.559" ry="9.861" transform="matrix(.707 -.707 .707 .707 -32.47 66.469)"/><path d="m74.85 64.566a16.143 16.143 0 0 1 -10.34 9.54 12.707 12.707 0 0 0 -8.4 8.34c-.01.03-.09.3-.19.71a6.592 6.592 0 0 1 -1.51-1.14 6.8 6.8 0 0 1 -1.26-1.72 16.1 16.1 0 0 1 10.34-9.54 12.726 12.726 0 0 0 8.4-8.34c.01-.05.03-.09.04-.14 0-.01.07-.21.16-.57a6.981 6.981 0 0 1 2.76 2.86z" fill="#723307"/><path d="m61.811 115.435h-13.065a1.75 1.75 0 0 1 0-3.5h13.065a1.75 1.75 0 1 1 0 3.5z" fill="#d87c30"/></g></svg>