<svg height="512" viewBox="0 0 128 128" width="512" xmlns="http://www.w3.org/2000/svg"><g><circle cx="64" cy="72.372" fill="#3ea2e5" r="49.321"/><circle cx="64" cy="72.372" fill="#dfeef4" r="37.912"/><circle cx="64" cy="72.372" fill="#f45858" r="6.243"/><path d="m54.576 6.306h18.847v8.249h-18.847z" fill="#f45858"/><path d="m91.966 31.752.1.055 5.833-10.154-7.152-4.109-5.83 10.147.088.051a49.189 49.189 0 0 1 6.961 4.01z" fill="#f45858"/><path d="m36.035 31.751a49.213 49.213 0 0 1 6.965-4.009l.088-.051-5.83-10.147-7.152 4.109 5.833 10.154z" fill="#f45858"/><path d="m59.876 14.555v8.666h.194c1.3-.1 2.606-.17 3.93-.17s2.632.068 3.93.17h.194v-8.666z" fill="#f45858"/><g fill="#6d7a84"><path d="m65.75 34.5v6.22a1.75 1.75 0 0 1 -3.5 0v-6.22c.58-.03 1.16-.04 1.75-.04s1.17.01 1.75.04z"/><path d="m65.75 104.03v6.21c-.58.03-1.16.04-1.75.04s-1.17-.01-1.75-.04v-6.21a1.75 1.75 0 0 1 3.5 0z"/><path d="m101.91 72.37c0 .59-.01 1.17-.04 1.75h-6.22a1.75 1.75 0 0 1 0-3.5h6.22c.03.58.04 1.16.04 1.75z"/><path d="m34.1 72.37a1.752 1.752 0 0 1 -1.75 1.75h-6.22c-.03-.58-.04-1.16-.04-1.75s.01-1.17.04-1.75h6.22a1.758 1.758 0 0 1 1.75 1.75z"/><path d="m48.88 46.57a1.669 1.669 0 0 1 -.88.24 1.748 1.748 0 0 1 -1.51-.86l-3.15-5.37c.98-.64 1.98-1.23 3.02-1.77l3.15 5.37a1.758 1.758 0 0 1 -.63 2.39z"/><path d="m84.66 104.17c-.98.63-1.98 1.22-3.02 1.76l-3.15-5.36a1.768 1.768 0 0 1 .63-2.4 1.741 1.741 0 0 1 2.39.63z"/><path d="m97.56 54.73-5.37 3.15a1.75 1.75 0 0 1 -1.77-3.02l5.37-3.15c.64.98 1.23 1.98 1.77 3.02z"/><path d="m37.58 89.89-5.37 3.14c-.64-.98-1.23-1.98-1.77-3.02l5.37-3.14a1.75 1.75 0 0 1 1.77 3.02z"/><path d="m84.48 40.46-3.11 5.39a1.762 1.762 0 0 1 -1.52.88 1.7 1.7 0 0 1 -.87-.24 1.739 1.739 0 0 1 -.64-2.39l3.11-5.39c1.04.53 2.05 1.12 3.03 1.75z"/><path d="m49.66 100.65-3.11 5.38c-1.04-.53-2.05-1.12-3.03-1.75l3.11-5.39a1.752 1.752 0 1 1 3.03 1.76z"/><path d="m97.66 89.83c-.54 1.04-1.12 2.04-1.75 3.02l-5.39-3.11a1.75 1.75 0 0 1 1.75-3.03z"/><path d="m38.12 57.4a1.752 1.752 0 0 1 -1.52.87 1.7 1.7 0 0 1 -.87-.24l-5.39-3.11c.53-1.04 1.12-2.05 1.75-3.03l5.39 3.11a1.762 1.762 0 0 1 .64 2.4z"/><path d="m88.644 70.623h-18.4a1.845 1.845 0 0 0 -.247.024 6.151 6.151 0 0 1 .003 3.453 1.845 1.845 0 0 0 .247.025h18.4a1.75 1.75 0 0 0 0-3.5z"/><path d="m64 66.129a6.216 6.216 0 0 1 1.725.247 1.667 1.667 0 0 0 .025-.247v-18.4a1.75 1.75 0 0 0 -3.5 0v18.4a1.667 1.667 0 0 0 .025.247 6.216 6.216 0 0 1 1.725-.247z"/></g></g></svg>