<svg id="Capa_1" enable-background="new 0 0 512 512" height="512" viewBox="0 0 512 512" width="512" xmlns="http://www.w3.org/2000/svg"><g><path d="m403.293 222.535h-294.586c-4.474 0-8.714-1.997-11.564-5.446s-4.011-7.99-3.167-12.384c6.175-32.142 21.677-61.48 44.83-84.844 23.14-23.351 52.315-39.115 84.373-45.589.978-.197 1.972-.297 2.969-.297h59.704c.997 0 1.992.1 2.969.297 32.058 6.474 61.233 22.238 84.373 45.589 23.152 23.363 38.654 52.702 44.83 84.844.844 4.394-.317 8.935-3.167 12.384s-7.089 5.446-11.564 5.446z" fill="#ff6ea0"/><path d="m373.194 119.861c-23.14-23.351-52.315-39.115-84.373-45.589-.978-.197-1.972-.297-2.969-.297h-29.852v148.56h147.293c4.474 0 8.714-1.997 11.564-5.446s4.011-7.99 3.167-12.384c-6.175-32.142-21.677-61.481-44.83-84.844z" fill="#ff4182"/><path d="m416 411h-320c-6.921 0-12.943-4.735-14.576-11.46l-43.92-180.848c-1.379-5.677.664-11.638 5.235-15.276l19.74-15.712c4.113-3.274 9.642-4.158 14.571-2.322 30.884 11.489 64.524 9.912 94.724-4.441 30.076-14.295 52.476-39.361 63.075-70.581 2.065-6.084 7.778-10.178 14.204-10.178h13.896c6.426 0 12.138 4.093 14.204 10.178 10.599 31.22 33 56.286 63.075 70.581 30.2 14.354 63.84 15.93 94.724 4.441 4.928-1.833 10.457-.953 14.571 2.322l19.74 15.712c4.571 3.638 6.614 9.599 5.235 15.276l-43.92 180.848c-1.635 6.725-7.657 11.46-14.578 11.46z" fill="#ffeb3c"/><path d="m469.262 203.416-19.74-15.712c-4.115-3.275-9.644-4.156-14.571-2.322-30.884 11.489-64.524 9.913-94.724-4.441-30.076-14.295-52.476-39.361-63.075-70.581-2.065-6.084-7.778-10.178-14.204-10.178h-6.948v310.818h160c6.921 0 12.943-4.735 14.576-11.46l43.92-180.848c1.379-5.677-.663-11.638-5.234-15.276z" fill="#ffd228"/><path d="m41 433.5c0 20.711 16.789 37.5 37.5 37.5h355c20.711 0 37.5-16.789 37.5-37.5 0-20.711-16.789-37.5-37.5-37.5h-355c-20.711 0-37.5 16.789-37.5 37.5z" fill="#ffd228"/><path d="m433.5 396h-177.5v75h177.5c20.711 0 37.5-16.789 37.5-37.5 0-20.711-16.789-37.5-37.5-37.5z" fill="#f7aa00"/><path d="m45 231c-24.813 0-45-20.187-45-45s20.187-45 45-45 45 20.187 45 45-20.187 45-45 45z" fill="#6ba7ff"/><path d="m256 131c-24.813 0-45-20.187-45-45s20.187-45 45-45 45 20.187 45 45-20.187 45-45 45z" fill="#6ba7ff"/><g><path d="m376 321h-20c-8.284 0-15-6.716-15-15s6.716-15 15-15h20c8.284 0 15 6.716 15 15s-6.716 15-15 15z" fill="#f7aa00"/></g><g><path d="m156 321h-20c-8.284 0-15-6.716-15-15s6.716-15 15-15h20c8.284 0 15 6.716 15 15s-6.716 15-15 15z" fill="#ffd228"/></g><path d="m301 86c0-24.813-20.187-45-45-45v90c24.813 0 45-20.187 45-45z" fill="#2681ff"/><path d="m467 231c-24.813 0-45-20.187-45-45s20.187-45 45-45 45 20.187 45 45-20.187 45-45 45z" fill="#2681ff"/><g><path d="m296.171 351c-2.388 0-4.784-.569-6.979-1.723l-33.192-17.45-33.192 17.45c-5.053 2.657-11.177 2.215-15.797-1.142-4.619-3.356-6.933-9.043-5.967-14.671l6.339-36.96-26.853-26.175c-4.088-3.985-5.56-9.946-3.795-15.376 1.764-5.43 6.458-9.388 12.109-10.209l37.11-5.392 16.596-33.627c2.527-5.12 7.742-8.361 13.451-8.361s10.924 3.242 13.451 8.361l16.596 33.627 37.11 5.392c5.65.821 10.345 4.779 12.109 10.209 1.765 5.43.293 11.391-3.795 15.376l-26.853 26.175 6.339 36.96c.965 5.627-1.348 11.315-5.967 14.671-2.615 1.899-5.71 2.865-8.82 2.865z" fill="#ffd228"/></g><path d="m289.192 349.277c2.195 1.154 4.591 1.723 6.979 1.723 3.11 0 6.205-.966 8.818-2.865 4.619-3.356 6.933-9.043 5.967-14.671l-6.339-36.96 26.853-26.175c4.088-3.985 5.56-9.946 3.795-15.376-1.764-5.43-6.458-9.388-12.109-10.209l-37.11-5.392-16.596-33.627c-2.527-5.12-7.742-8.361-13.451-8.361v134.464z" fill="#f7aa00"/></g></svg>