<svg height="512pt" viewBox="-78 0 512 512" width="512pt" xmlns="http://www.w3.org/2000/svg"><path d="m299.878906 331.320312v46.300782c0 35.5-28.878906 64.378906-64.378906 64.378906h-42.25v67h-30v-98.558594h-48.160156c-32.441406 0-58.839844-26.402344-58.839844-58.839844v-12.28125h30v12.28125c0 15.898438 12.941406 28.839844 28.839844 28.839844h48.160156v-79.792968h30v111.351562h42.25c18.960938 0 34.378906-15.421875 34.378906-34.378906v-46.300782zm0 0" fill="#b77445"/><path d="m299.878906 331.320312v46.300782c0 35.5-28.878906 64.378906-64.378906 64.378906h-42.25v67h-15v-208.351562h15v111.351562h42.25c18.960938 0 34.378906-15.421875 34.378906-34.378906v-46.300782zm0 0" fill="#a04010"/><path d="m271.21875 92.96875v132.710938c0 51.269531-41.699219 92.96875-92.96875 92.96875s-92.96875-41.699219-92.96875-92.96875v-132.710938c0-51.257812 41.699219-92.96875 92.96875-92.96875s92.96875 41.710938 92.96875 92.96875zm0 0" fill="#00b44b"/><path d="m271.21875 92.96875v132.710938c0 51.269531-41.699219 92.96875-92.96875 92.96875v-318.648438c51.269531 0 92.96875 41.710938 92.96875 92.96875zm0 0" fill="#007f40"/><path d="m90.25 482h176v30h-176zm0 0" fill="#9ce78d"/><path d="m142.5 215.570312v70.5c0 39.289063-31.960938 71.25-71.25 71.25s-71.25-31.960937-71.25-71.25v-70.5c0-39.28125 31.960938-71.242187 71.25-71.242187s71.25 31.960937 71.25 71.242187zm0 0" fill="#c8fb78"/><path d="m356.5 215.570312v70.5c0 39.289063-31.960938 71.25-71.25 71.25s-71.25-31.960937-71.25-71.25v-70.5c0-39.28125 31.960938-71.242187 71.25-71.242187s71.25 31.960937 71.25 71.242187zm0 0" fill="#c8fb78"/><path d="m178.25 482h88v30h-88zm0 0" fill="#36cb8e"/><g fill="#82e36f"><path d="m142.5 215.570312v70.5c0 39.289063-31.960938 71.25-71.25 71.25v-212.992187c39.289062 0 71.25 31.960937 71.25 71.242187zm0 0"/><path d="m356.5 215.570312v70.5c0 39.289063-31.960938 71.25-71.25 71.25v-212.992187c39.289062 0 71.25 31.960937 71.25 71.242187zm0 0"/></g></svg>