<svg id="Capa_1" enable-background="new 0 0 512 512" height="512" viewBox="0 0 512 512" width="512" xmlns="http://www.w3.org/2000/svg"><path d="m181.424 511.382-15.974-6.838c-5.081-2.175-10.832-2.175-15.913 0l-15.974 6.838c-4.983 2.133-10.525-1.522-10.525-6.943v-71.917h68.91v71.917c.001 5.421-5.541 9.077-10.524 6.943z" fill="#fcdd2e"/><path d="m156.153 432.522v70.459c3.15-.209 6.337.297 9.297 1.564l15.974 6.838c4.983 2.133 10.525-1.523 10.525-6.943v-71.918z" fill="#f9c301"/><path d="m423.985 463.732h-335.97c-8.182 0-14.816-6.633-14.816-14.815v-423.333c0-8.182 6.633-14.816 14.816-14.816h335.97c8.182 0 14.815 6.633 14.815 14.816v423.332c.001 8.183-6.632 14.816-14.815 14.816z" fill="#8db9c2"/><path d="m423.985 10.769h-20.894v438.147c0 8.182-6.633 14.815-14.815 14.815h35.71c8.182 0 14.816-6.633 14.816-14.815v-423.332c-.001-8.182-6.634-14.815-14.817-14.815z" fill="#7ba0b0"/><path d="m123.039 10.769h-35.024c-8.182 0-14.815 6.633-14.815 14.815v423.332c0 8.182 6.633 14.815 14.815 14.815h35.024z" fill="#3c5959"/><path d="m374.404 474.501h-13.653c-4.687 0-8.487-3.8-8.487-8.487v-457.527c0-4.687 3.8-8.487 8.487-8.487h13.653c4.687 0 8.487 3.8 8.487 8.487v457.526c.001 4.688-3.799 8.488-8.487 8.488z" fill="#fb636f"/><g fill="#fbd307"><path d="m310.251 120.543h-134.678c-4.267 0-7.726-3.459-7.726-7.726s3.459-7.726 7.726-7.726h134.678c4.267 0 7.726 3.459 7.726 7.726s-3.459 7.726-7.726 7.726z"/><path d="m310.251 161.06h-134.678c-4.267 0-7.726-3.459-7.726-7.726s3.459-7.726 7.726-7.726h134.678c4.267 0 7.726 3.459 7.726 7.726s-3.459 7.726-7.726 7.726z"/></g></svg>