<svg xmlns="http://www.w3.org/2000/svg" height="599.318pt" version="1.1" viewBox="0 0 599.318 599.318" width="599.318pt">
<g id="surface1">
<path d="M 0 289.171875 L 0 599 L 41.308594 599 L 41.308594 330.484375 L 557.6875 330.484375 L 557.6875 599 L 599 599 L 599 289.171875 Z M 0 289.171875 " style=" stroke:none;fill-rule:nonzero;fill:rgb(61.176471%,36.862745%,24.313725%);fill-opacity:1;" />
<path d="M 309.828125 20.65625 C 309.828125 9.242188 300.585938 0 289.171875 0 L 20.65625 0 C 9.242188 0 0 9.242188 0 20.65625 L 0 185.894531 L 309.828125 185.894531 Z M 309.828125 20.65625 " style=" stroke:none;fill-rule:nonzero;fill:rgb(52.941176%,80.784314%,85.098039%);fill-opacity:1;" />
<path d="M 0 185.894531 L 0 206.550781 C 0 217.964844 9.242188 227.207031 20.65625 227.207031 L 289.171875 227.207031 C 300.585938 227.207031 309.828125 217.964844 309.828125 206.550781 L 309.828125 185.894531 Z M 0 185.894531 " style=" stroke:none;fill-rule:nonzero;fill:rgb(85.490196%,86.666667%,87.45098%);fill-opacity:1;" />
<path d="M 103.277344 289.171875 L 206.550781 289.171875 L 185.894531 227.207031 L 123.929688 227.207031 Z M 103.277344 289.171875 " style=" stroke:none;fill-rule:nonzero;fill:rgb(78.039216%,79.215686%,80%);fill-opacity:1;" />
<path d="M 196.222656 599 L 92.949219 599 L 82.621094 454.414062 L 206.550781 454.414062 Z M 196.222656 599 " style=" stroke:none;fill-rule:nonzero;fill:rgb(85.490196%,86.666667%,87.45098%);fill-opacity:1;" />
<path d="M 351.136719 206.550781 L 351.136719 382.121094 L 294.335938 382.121094 C 280.074219 382.121094 268.515625 393.675781 268.515625 407.9375 C 268.515625 422.203125 280.074219 433.757812 294.335938 433.757812 L 516.378906 433.757812 C 539.191406 433.757812 557.6875 415.261719 557.6875 392.449219 L 557.6875 206.550781 C 557.6875 183.738281 539.191406 165.242188 516.378906 165.242188 L 392.449219 165.242188 C 369.636719 165.242188 351.136719 183.738281 351.136719 206.550781 Z M 351.136719 206.550781 " style=" stroke:none;fill-rule:nonzero;fill:rgb(26.27451%,59.607843%,81.960784%);fill-opacity:1;" />
<path d="M 526.707031 537.035156 L 464.742188 526.707031 L 464.742188 433.757812 L 423.429688 433.757812 L 423.429688 526.707031 L 361.464844 537.035156 C 344.351562 537.035156 330.484375 550.902344 330.484375 568.015625 C 330.484375 585.128906 344.351562 599 361.464844 599 C 378.578125 599 392.449219 585.128906 392.449219 568.015625 L 495.726562 568.015625 C 495.726562 585.128906 509.59375 599 526.707031 599 C 543.820312 599 557.691406 585.128906 557.691406 568.015625 C 557.6875 550.902344 543.820312 537.035156 526.707031 537.035156 Z M 526.707031 537.035156 " style=" stroke:none;fill-rule:nonzero;fill:rgb(85.490196%,86.666667%,87.45098%);fill-opacity:1;" />
<path d="M 423.429688 433.757812 L 464.742188 433.757812 L 464.742188 454.414062 L 423.429688 454.414062 Z M 423.429688 433.757812 " style=" stroke:none;fill-rule:nonzero;fill:rgb(78.039216%,79.215686%,80%);fill-opacity:1;" />
<path d="M 289.171875 0 L 263.351562 0 L 77.457031 185.894531 L 309.828125 185.894531 L 309.828125 20.65625 C 309.828125 9.242188 300.585938 0 289.171875 0 Z M 289.171875 0 " style=" stroke:none;fill-rule:nonzero;fill:rgb(44.313725%,76.862745%,81.960784%);fill-opacity:1;" />
</g>
</svg>