<svg id="Capa_1" enable-background="new 0 0 512 512" height="512" viewBox="0 0 512 512" width="512" xmlns="http://www.w3.org/2000/svg"><g><g><path d="m95.805 476.001c-4.014-3.721-5.684-9.331-4.365-14.634l33.311-133.198c1.289-5.068 5.068-9.111 10.049-10.679 5.01-1.611 10.43-.41 14.355 2.988 15.059 13.096 32.168 23.042 50.859 29.561 7.207 2.505 11.367 9.99 9.727 17.417l-17.08 76.802c-1.143 5.142-4.922 9.316-9.902 10.972l-72.012 23.994c-5.102 1.732-10.888.536-14.942-3.223z" fill="#e63950"/></g><g><path d="m401.254 479.224-72.012-23.994c-4.98-1.655-8.76-5.83-9.902-10.972l-17.08-76.802c-1.641-7.427 2.52-14.912 9.727-17.417 18.691-6.519 35.801-16.465 50.859-29.561 3.896-3.398 9.287-4.6 14.355-2.988 4.98 1.567 8.76 5.61 10.049 10.679l33.311 133.198c1.318 5.303-.352 10.913-4.365 14.634-4.049 3.753-9.834 4.957-14.942 3.223z" fill="#ae2538"/></g><g><path d="m341.254 511.199-85.254-28.418-85.254 28.418c-5.156 1.772-10.752.542-14.795-3.091-4.014-3.618-5.771-9.111-4.6-14.385l29.092-132.771c1.959-8.908 11.476-14.033 19.98-10.767 34.219 13.037 76.934 13.037 111.152 0 8.633-3.292 18.043 1.957 19.98 10.767l29.092 132.771c1.172 5.273-.586 10.767-4.6 14.385-4.209 3.795-9.942 4.739-14.793 3.091z" fill="#ff6c6c"/></g><path d="m341.254 511.199c4.85 1.648 10.583.703 14.795-3.091 4.014-3.618 5.771-9.111 4.6-14.385l-29.092-132.771c-1.937-8.811-11.347-14.059-19.98-10.767-17.109 6.519-36.343 9.778-55.576 9.778v122.818z" fill="#e63950"/><g id="Medal_47_"><g><path d="m256 390c-108.252 0-195-87.932-195-195 0-107.52 87.48-195 195-195s195 87.48 195 195c0 108.331-88.261 195-195 195z" fill="#fabe2c"/></g></g><path d="m451 195c0-107.52-87.48-195-195-195v390c106.74 0 195-86.669 195-195z" fill="#ff9100"/><g><path d="m256 330c-74.443 0-135-60.557-135-135s60.557-135 135-135 135 60.557 135 135-60.557 135-135 135z" fill="#fed843"/></g><path d="m391 195c0-74.443-60.557-135-135-135v270c74.443 0 135-60.557 135-135z" fill="#fabe2c"/><g><path d="m279.936 250.796-23.936-12.437-23.936 12.437c-5.01 2.593-11.162 2.139-15.732-1.172-4.6-3.34-6.914-8.994-5.977-14.59l4.395-26.646-19.189-18.94c-4.177-4.072-5.454-10.109-3.75-15.322 1.758-5.391 6.416-9.346 12.041-10.195l26.66-4.014 12.07-24.126c5.098-10.166 21.738-10.166 26.836 0l12.07 24.126 26.66 4.014c5.625.85 10.283 4.805 12.041 10.195 1.758 5.405.322 11.338-3.75 15.322l-19.189 18.94 4.395 26.646c.938 5.596-1.377 11.25-5.977 14.59-4.569 3.311-10.681 3.8-15.732 1.172z" fill="#fabe2c"/></g><path d="m279.936 250.796c5.052 2.628 11.164 2.139 15.732-1.172 4.6-3.34 6.914-8.994 5.977-14.59l-4.395-26.646 19.189-18.94c4.072-3.984 5.508-9.917 3.75-15.322-1.758-5.391-6.416-9.346-12.041-10.195l-26.66-4.014-12.07-24.126c-2.549-5.083-7.983-7.625-13.418-7.625v110.193z" fill="#ff9100"/></g></svg>