<?xml version="1.0" encoding="iso-8859-1"?>
<!-- Generator: Adobe Illustrator 19.0.0, SVG Export Plug-In . SVG Version: 6.00 Build 0)  -->
<svg version="1.1" id="Layer_1" xmlns="http://www.w3.org/2000/svg" xmlns:xlink="http://www.w3.org/1999/xlink" x="0px" y="0px"
	 viewBox="0 0 512 512" style="enable-background:new 0 0 512 512;" xml:space="preserve">
<polygon style="fill:#E1744E;" points="124.793,204.356 34.164,465.966 111.568,457.335 167.044,512 258.57,247.804 "/>
<polygon style="fill:#DD5323;" points="387.207,204.356 477.836,465.966 400.432,457.335 344.956,512 253.43,247.804 "/>
<circle style="fill:#F3DA49;" cx="256" cy="157.729" r="157.729"/>
<path style="fill:#EAAB44;" d="M413.727,157.727c0,87.11-70.617,157.727-157.727,157.727V0C343.11,0,413.727,70.617,413.727,157.727
	z"/>
<path style="fill:#FFFFFF;" d="M300.626,181.053v28.435h-85.305v-28.435h28.04v-50.354c-4.739,6.121-21.918,14.02-31.989,14.02
	v-29.225c8.688,0,29.225-13.428,31.989-18.759h32.187v84.317h25.078V181.053z"/>
<g>
</g>
<g>
</g>
<g>
</g>
<g>
</g>
<g>
</g>
<g>
</g>
<g>
</g>
<g>
</g>
<g>
</g>
<g>
</g>
<g>
</g>
<g>
</g>
<g>
</g>
<g>
</g>
<g>
</g>
</svg>
