<svg height="512" viewBox="0 0 58 56" width="512" xmlns="http://www.w3.org/2000/svg"><g id="Page-1" fill="none" fill-rule="evenodd"><g id="011---Chesnut" fill-rule="nonzero"><path id="Shape" d="m5.53 48.08c-3.56058799-3.4161053-5.56020817-8.1457675-5.53-13.08 0-11 3.99-18.54 14-24 7.7-4.2 11.48-7.42 13.4-10 .3801052-.49989445.9720076-.79340639 1.6-.79340639s1.2198948.29351194 1.6.79340639c1.92 2.58 5.7 5.8 13.4 10 10.01 5.46 14 13 14 24 .0302082 4.9342325-1.969412 9.6638947-5.53 13.08z" fill="#a56a43"/><path id="Shape" d="m4 36c-.55228475 0-1-.4477153-1-1 0-10.358 3.6-16.548 12.437-21.366.484906-.2659251 1.0935749-.088406 1.3595.3965s.088406 1.0935749-.3965 1.3595c-8.1 4.41-11.4 10.095-11.4 19.61 0 .5522847-.44771525 1-1 1z" fill="#fac176"/><path id="Shape" d="m53 46c-.0048656.7261202-.1867912 1.4400922-.53 2.08-2.3 4.52-11.94 7.92-23.47 7.92s-21.17-3.4-23.47-7.92c-.3432088-.6399078-.52513437-1.3538798-.53-2.08 0-5.52 10.75-10 24-10s24 4.48 24 10z" fill="#fdd7ad"/></g></g></svg>