<svg id="Capa_1" enable-background="new 0 0 481.554 481.554" height="512" viewBox="0 0 481.554 481.554" width="512" xmlns="http://www.w3.org/2000/svg"><g><path d="m429.023 212.464c14.277-21.866 22.648-48.407 22.648-77.032 0-74.746-46.865-131.271-117.24-131.271-12.807 0-25.17-2.059-36.83 1.676-21.775 6.977-41.1 19.974-56.244 37.175-23.238-15.943-51.361-25.279-81.674-25.279-79.822 0-144.541 64.712-144.541 144.541 0 33.895 11.678 65.062 31.215 89.712-17.389 23.86-27.658 53.242-27.658 85.027 0 79.826 64.717 144.541 144.541 144.541 30.592 0 58.951-9.51 82.312-25.725 15.982 8.489 33.533 14.045 52.049 16.052 5.08.551 10.232-9.328 15.445-9.328 84.701 0 143.184-64.106 143.184-155.738 0-35.054-10.057-67.561-27.207-94.351z" fill="#eef4ff"/><path d="m439.201 212.464c14.277-21.866 22.652-48.407 22.652-77.032 0-90.797-82.623-155.738-164.252-129.595v466.044c90.973 9.863 168.811-67.414 168.811-165.066 0-35.054-10.057-67.561-27.211-94.351z" fill="#d9e6fc"/><path d="m297.601 229.454c42.728 0 77.361 34.635 77.361 77.361 0 42.725-34.633 77.36-77.361 77.36-42.721 0-77.359-34.635-77.359-77.361 0-42.725 34.638-77.36 77.359-77.36z" fill="#f0ce46"/><path d="m297.601 229.454v154.721c42.728 0 77.361-34.635 77.361-77.36 0-42.726-34.632-77.361-77.361-77.361z" fill="#e8a43e"/></g></svg>