<?xml version="1.0" encoding="iso-8859-1"?>
<!-- Generator: Adobe Illustrator 19.0.0, SVG Export Plug-In . SVG Version: 6.00 Build 0)  -->
<svg version="1.1" id="Capa_1" xmlns="http://www.w3.org/2000/svg" xmlns:xlink="http://www.w3.org/1999/xlink" x="0px" y="0px"
	 viewBox="0 0 511.968 511.968" style="enable-background:new 0 0 511.968 511.968;" xml:space="preserve">
<g>
	<path style="fill:#6DAFDF;" d="M54.944,390.463c0,0-17.264,28.048-17.088,37.856c0.176,9.808,8.256,17.6,18.064,17.424
		s17.6-8.256,17.424-18.064C73.2,417.871,54.944,390.463,54.944,390.463z"/>
	<path style="fill:#6DAFDF;" d="M182.544,390.463c0,0-17.264,28.048-17.088,37.856c0.176,9.808,8.256,17.6,18.064,17.424
		c9.808-0.176,17.6-8.256,17.424-18.064C200.8,417.871,182.544,390.463,182.544,390.463z"/>
	<path style="fill:#6DAFDF;" d="M310.144,390.463c0,0-17.264,28.048-17.088,37.856c0.176,9.808,8.256,17.6,18.064,17.424
		c9.808-0.176,17.6-8.256,17.424-18.064C328.4,417.871,310.144,390.463,310.144,390.463z"/>
	<path style="fill:#6DAFDF;" d="M118.752,451.695c0,0-17.264,28.048-17.088,37.856c0.176,9.808,8.256,17.6,18.064,17.424
		s17.6-8.256,17.424-18.064C137.008,479.103,118.752,451.695,118.752,451.695z"/>
	<path style="fill:#6DAFDF;" d="M246.352,451.695c0,0-17.264,28.048-17.088,37.856c0.176,9.808,8.256,17.6,18.064,17.424
		c9.808-0.176,17.6-8.256,17.424-18.064C264.592,479.103,246.352,451.695,246.352,451.695z"/>
</g>
<path style="fill:#FFD83B;" d="M434.304,203.551c-66.768,0-120.896-54.128-120.896-120.896c0-29.584,10.656-56.656,28.288-77.664
	c-54.496,17.488-93.968,68.544-93.968,128.864c0,74.768,60.608,135.376,135.376,135.376c60.32,0,111.376-39.472,128.864-93.968
	C490.976,192.895,463.888,203.551,434.304,203.551z"/>
<path style="fill:#E9EFF4;" d="M317.792,215.519c-0.864,0-1.696,0.096-2.528,0.128c-17.84-45.856-62.304-78.416-114.48-78.416
	s-96.64,32.544-114.48,78.416c-0.848-0.032-1.696-0.128-2.528-0.128C37.504,215.519,0,253.023,0,299.295
	s37.504,83.776,83.776,83.776c19.856,0,38.064-6.944,52.416-18.48c18.784,11.648,40.864,18.48,64.592,18.48
	c23.728,0,45.808-6.848,64.592-18.48c14.352,11.552,32.56,18.48,52.416,18.48c46.272,0,83.776-37.504,83.776-83.776
	S364.048,215.519,317.792,215.519z"/>
<path style="opacity:0.05;fill:#2F3133;enable-background:new    ;" d="M315.248,215.647c0.848-0.032,1.696-0.128,2.528-0.128
	c35.376,0,65.472,22,77.76,52.976c5.472-0.528,10.88-1.296,16.16-2.432c-12.864-36.288-46.096-62.992-85.936-66.192
	c-16.016-33.392-44.176-58-77.872-70.112c-0.048,1.36-0.16,2.688-0.16,4.064c0,4.512,0.24,8.96,0.672,13.36
	C278.88,160.111,303.2,184.703,315.248,215.647z"/>
<g>
</g>
<g>
</g>
<g>
</g>
<g>
</g>
<g>
</g>
<g>
</g>
<g>
</g>
<g>
</g>
<g>
</g>
<g>
</g>
<g>
</g>
<g>
</g>
<g>
</g>
<g>
</g>
<g>
</g>
</svg>
