<?xml version="1.0" encoding="iso-8859-1"?>
<!-- Generator: Adobe Illustrator 19.0.0, SVG Export Plug-In . SVG Version: 6.00 Build 0)  -->
<svg xmlns="http://www.w3.org/2000/svg" xmlns:xlink="http://www.w3.org/1999/xlink" version="1.1" id="Capa_1" x="0px" y="0px" viewBox="0 0 409.559 409.559" style="enable-background:new 0 0 409.559 409.559;" xml:space="preserve">
<g>
	<path style="fill:#FCD462;" d="M282.216,109.056l19.968,10.752c0,0-2.56-86.528,52.736-97.28l-23.552-2.56L329.832,0   C329.832,0,270.44,71.168,282.216,109.056z"/>
	<path style="fill:#FCD462;" d="M328.808,211.968l-21.504-7.68c0,0,65.536-56.32,36.352-104.96l17.408,15.36l15.36-12.288   C376.424,102.912,364.136,194.56,328.808,211.968z"/>
</g>
<path style="fill:#3EA69B;" d="M269.416,225.28c8.192-21.504,29.184-74.752,76.8-52.224c24.576,11.776,46.08,32.256-8.192,108.544  c-34.304,47.616-56.32,108.032-197.632,127.488c-8.192,1.024-61.44,3.584,2.56-33.28C185.96,351.232,238.184,307.712,269.416,225.28  z"/>
<path style="fill:#44C4A1;" d="M112.232,402.944c-5.12,0,7.168-13.312,31.232-27.136c42.496-24.576,95.232-68.096,126.464-150.528  c8.192-21.504,29.184-74.752,76.8-52.224C346.728,173.056,275.56,402.432,112.232,402.944z"/>
<path style="fill:#3EA69B;" d="M207.464,167.424c8.192-25.6,29.696-88.576,86.528-65.024c29.184,11.776,55.296,34.816-3.584,126.464  C253.544,286.72,231.016,357.888,68.2,388.608c-9.728,2.048-71.168,7.68,1.024-38.912  C117.352,318.464,175.72,264.704,207.464,167.424z"/>
<path style="fill:#44C4A1;" d="M34.408,382.976c-5.632,0.512,7.68-15.872,34.816-33.28c48.128-30.72,106.496-84.48,138.24-181.76  c8.192-25.6,29.696-88.576,86.528-65.024C293.992,102.4,224.36,373.248,34.408,382.976z"/>
<g>
</g>
<g>
</g>
<g>
</g>
<g>
</g>
<g>
</g>
<g>
</g>
<g>
</g>
<g>
</g>
<g>
</g>
<g>
</g>
<g>
</g>
<g>
</g>
<g>
</g>
<g>
</g>
<g>
</g>
</svg>
