<?xml version="1.0" encoding="iso-8859-1"?>
<!-- Generator: Adobe Illustrator 19.0.0, SVG Export Plug-In . SVG Version: 6.00 Build 0)  -->
<svg version="1.1" id="Capa_1" xmlns="http://www.w3.org/2000/svg" xmlns:xlink="http://www.w3.org/1999/xlink" x="0px" y="0px"
	 viewBox="0 0 468.293 468.293" style="enable-background:new 0 0 468.293 468.293;" xml:space="preserve">
<path style="fill:#64798A;" d="M448.797,382.109H19.495V112.807c0-10.345,8.386-18.732,18.732-18.732h391.839
	c10.345,0,18.732,8.386,18.732,18.732V382.109z"/>
<path style="fill:#EBF0F3;" d="M36.278,365.328V123.348c0-6.897,5.591-12.488,12.488-12.488h370.76
	c6.897,0,12.488,5.591,12.488,12.488v241.979H36.278z"/>
<path style="fill:#D5D6DB;" d="M424.585,446.369H43.707C19.568,446.369,0,426.8,0,402.661v-20.552h468.293v20.552
	C468.293,426.8,448.724,446.369,424.585,446.369z"/>
<g>
	<path style="fill:#64798A;" d="M270.51,422.631h-72.727c-4.634,0-8.392-3.757-8.392-8.392v0c0-4.634,3.757-8.392,8.392-8.392
		h72.727c4.635,0,8.392,3.757,8.392,8.392v0C278.901,418.874,275.144,422.631,270.51,422.631z"/>
	<path style="fill:#64798A;" d="M331.954,227.022H136.338c-4.911,0-8.892-3.981-8.892-8.892v0c0-4.911,3.981-8.892,8.892-8.892
		h195.616c4.911,0,8.892,3.981,8.892,8.892v0C340.846,223.041,336.865,227.022,331.954,227.022z"/>
</g>
<path style="fill:#31978C;" d="M311.207,227.022l-0.001-199.17c0-3.274-2.654-5.928-5.928-5.928H163.013
	c-3.274,0-5.928,2.654-5.928,5.928l0.001,199.17H311.207z"/>
<path style="fill:#44C4A1;" d="M296.001,227.022V71.985c-19.25,0-34.855-15.605-34.855-34.855h-54
	c0,19.249-15.605,34.855-34.855,34.855v155.037H296.001z"/>
<g>
	<ellipse style="fill:#31978C;" cx="234.147" cy="164.514" rx="46.729" ry="46.729"/>
	<path style="fill:#31978C;" d="M227.302,73.592l0-13.619c0-3.78,3.064-6.844,6.844-6.844h0c3.78,0,6.844,3.064,6.844,6.844
		l0,13.619c0,3.78-3.064,6.844-6.844,6.844h0C230.366,80.436,227.302,77.372,227.302,73.592z"/>
</g>
<path style="fill:#44C4A1;" d="M204.388,162.91l5.241,0c0.669-6.561,3.278-12.451,7.823-17.662l6.246,5.241
	c-3.494,4.02-5.574,8.156-6.246,12.421l13.929,0c1.291-5.41,2.991-9.372,5.098-11.884c2.106-2.512,5.229-3.769,9.369-3.768
	c4.14,0,7.525,1.443,10.16,4.341c2.632,2.898,4.066,6.666,4.306,11.311h3.59v4.592l-3.66,0c-0.386,5.264-2.179,10.242-5.387,14.934
	l-6.605-4.668c2.249-3.161,3.637-6.579,4.166-10.266h-13.496v0.216c-1.294,5.504-3.041,9.547-5.241,12.129
	c-2.203,2.588-5.399,3.88-9.585,3.88c-4.189,0-7.601-1.484-10.23-4.452c-2.635-2.968-4.069-6.888-4.309-11.773h-5.168
	L204.388,162.91z M250.729,157.845c-1.075-1.221-2.416-1.829-4.02-1.829s-2.872,0.479-3.804,1.437
	c-0.935,0.952-1.832,2.775-2.693,5.457l12.421,0C252.441,160.755,251.807,159.066,250.729,157.845z M219.249,172.96
	c1.098,1.338,2.486,2.01,4.163,2.01c1.674,0,3.003-0.526,3.985-1.578c0.982-1.058,1.902-3.021,2.764-5.889l-12.921,0
	C217.476,169.799,218.148,171.616,219.249,172.96z"/>
<g>
</g>
<g>
</g>
<g>
</g>
<g>
</g>
<g>
</g>
<g>
</g>
<g>
</g>
<g>
</g>
<g>
</g>
<g>
</g>
<g>
</g>
<g>
</g>
<g>
</g>
<g>
</g>
<g>
</g>
</svg>
