<svg height="512" viewBox="0 0 512 512" width="512" xmlns="http://www.w3.org/2000/svg"><g id="_19.Hot_dog" data-name="19.Hot dog"><g id="c"><path d="m399.627 21.0414a50.742 50.742 0 0 1 8.2051 10.7241 50.14 50.14 0 0 0 -4.5224 4.0068l-367.536 367.5361a50.1443 50.1443 0 0 0 -4.0069 4.5224 50.7386 50.7386 0 0 1 -10.724-8.2052 51.7055 51.7055 0 0 1 0-72.9179l305.6662-305.6663a51.7057 51.7057 0 0 1 72.918 0z" fill="#ffebb9"/><path d="m28.7992 405.9973a51.5461 51.5461 0 0 1 -7.7569-79.2873l305.6677-305.6687a51.5462 51.5462 0 0 1 79.2878 7.757 51.7565 51.7565 0 0 0 -65.1456 6.3852l-305.6678 305.6681a51.7569 51.7569 0 0 0 -6.3852 65.1457z" fill="#e5d2a8"/><path d="m490.9577 112.3725a51.71 51.71 0 0 1 0 72.918l-305.6663 305.6662a51.7057 51.7057 0 0 1 -72.918 0 50.74 50.74 0 0 1 -8.2051-10.7241 50.1277 50.1277 0 0 0 4.5224-4.0068l367.5361-367.5358a50.1425 50.1425 0 0 0 4.0068-4.5225 50.7425 50.7425 0 0 1 10.7241 8.205z" fill="#ffebb9"/><path d="m476.2268 35.7718a51.7226 51.7226 0 0 1 4.0068 68.3955 50.1425 50.1425 0 0 1 -4.0068 4.5225l-367.5361 367.536a50.1277 50.1277 0 0 1 -4.5224 4.0068 51.5488 51.5488 0 0 1 -72.4024-72.4026 50.1568 50.1568 0 0 1 4.0068-4.5224l367.5361-367.5358a50.1426 50.1426 0 0 1 4.5224-4.0069 51.7177 51.7177 0 0 1 68.3956 4.0069z" fill="#e05050"/><path d="m84.1728 413.6836a10 10 0 0 1 0-14.1421c13.3-13.3 24.5312-15.8678 34.44-18.1341 8.6765-1.9839 15.5287-3.5508 24.757-12.7791s10.7951-16.08 12.779-24.757c2.2664-9.9091 4.8348-21.141 18.1345-34.4407s24.53-15.8671 34.4393-18.1331c8.6759-1.9832 15.5284-3.55 24.756-12.778s10.7941-16.0794 12.777-24.7549c2.2663-9.9092 4.8341-21.14 18.1327-34.439s24.53-15.8661 34.439-18.1314c8.6748-1.9835 15.5267-3.55 24.7532-12.7766s10.7938-16.0791 12.7773-24.7539c2.2653-9.91 4.8334-21.141 18.1321-34.44s24.53-15.8667 34.44-18.132c8.6751-1.9839 15.5273-3.5507 24.7546-12.778a10 10 0 0 1 14.1421 14.1421c-13.2986 13.2987-24.53 15.8664-34.4387 18.1324-8.6758 1.9832-15.528 3.55-24.7556 12.7777s-10.7941 16.0794-12.7769 24.7549c-2.266 9.9088-4.8341 21.14-18.1324 34.4387s-24.5292 15.8657-34.438 18.1317c-8.6755 1.9828-15.5273 3.5493-24.7543 12.7762s-10.794 16.0794-12.7773 24.7553c-2.2656 9.9085-4.8337 21.14-18.1323 34.4387s-24.5306 15.8671-34.4394 18.133c-8.6759 1.9833-15.5284 3.55-24.756 12.778s-10.7957 16.0815-12.7792 24.7576c-2.2664 9.9092-4.8352 21.1414-18.1342 34.44s-24.5305 15.8671-34.44 18.1334c-8.6766 1.9839-15.5295 3.5514-24.7578 12.78a10 10 0 0 1 -14.1417.0002z" fill="#f5d367"/></g></g></svg>