<svg id="Capa_1" enable-background="new 0 0 470.578 470.578" height="512" viewBox="0 0 470.578 470.578" width="512" xmlns="http://www.w3.org/2000/svg"><g><g fill="#575b6d"><path d="m195.95 398.683h78.673v71.895h-78.673z"/><path d="m148.749 24.677h-64.389c.006 37.134 18.544 71.816 49.416 92.451l14.972 10.008z"/><path d="m321.83 24.677h64.389c-.006 37.134-18.544 71.816-49.416 92.451l-14.972 10.008v-102.459z"/><path d="m148.749 146.08h-64.389c-.001 37.143 18.54 71.836 49.422 92.474l14.972 10.008z"/><path d="m321.83 146.08h64.389c.001 37.143-18.54 71.836-49.422 92.474l-14.967 10.008z"/><path d="m148.749 267.507h-64.389c-.001 37.143 18.54 71.836 49.422 92.474l14.972 10.008z"/><path d="m321.83 267.507h64.389c.001 37.143-18.54 71.836-49.422 92.474l-14.967 10.008z"/></g><path d="m151.543 0h167.497c8.675 0 15.707 7.032 15.707 15.707v372.382c0 8.675-7.032 15.707-15.707 15.707h-167.497c-8.675 0-15.707-7.032-15.707-15.707v-372.382c0-8.675 7.033-15.707 15.707-15.707z" fill="#62667c"/><path d="m281.142 79.424c.07 25.254-20.346 45.783-45.6 45.853-.084 0-.169 0-.253 0-25.324.031-45.878-20.472-45.909-45.796s20.472-45.878 45.796-45.909c17.833-.022 34.061 10.297 41.604 26.456 2.885 6.058 4.375 12.686 4.362 19.396z" fill="#ef5261"/><path d="m281.142 201.947c-.06 25.28-20.572 45.741-45.853 45.738-25.292 0-45.795-20.503-45.795-45.795s20.503-45.795 45.795-45.795c25.323.002 45.85 20.53 45.853 45.852z" fill="#f6c863"/><path d="m281.142 324.412c-.048 19.093-11.908 36.162-29.784 42.869-5.144 1.899-10.585 2.87-16.069 2.869-6.724.026-13.369-1.444-19.454-4.304-16.09-7.523-26.379-23.672-26.398-41.434.032-25.311 20.542-45.821 45.853-45.853 17.786-.014 33.968 10.282 41.491 26.398 2.897 6.075 4.388 12.725 4.361 19.455z" fill="#2cbfae"/></g></svg>