<svg id="Capa_1" enable-background="new 0 0 512.055 512.055" height="512" viewBox="0 0 512.055 512.055" width="512" xmlns="http://www.w3.org/2000/svg"><g><path d="m396.404 0h-80.376c-33.137 0-60 26.863-60 60v14.028h80.376c33.137 0 60-26.863 60-60z" fill="#58b454"/><g><path d="m222.65 43.561h-28.079v30h28.079c10.133 0 18.377 8.244 18.377 18.377v65.411h15l10-45.849-10-54.531c-8.688-8.297-20.443-13.408-33.377-13.408z" fill="#bd8472"/><path d="m271.028 91.938c0-13.742-5.769-26.153-15-34.969v100.38h15z" fill="#a05f4b"/></g><g><path d="m66.625 303.064c0 104.604 84.264 218.18 189.403 189.403l20-176.8-20-158.317c-103.363-29.882-189.403 9.232-189.403 145.714z" fill="#ffe477"/><path d="m256.028 157.349v335.117c105.139 28.777 189.403-84.799 189.403-189.403 0-136.481-86.041-175.595-189.403-145.714z" fill="#ffb655"/></g><g><path d="m252.068 477.999c-43.055 11.783-76.991-4.743-97.879-20.683-43.402-33.12-72.563-95.109-72.563-154.253 0-29.589 4.263-55.104 12.671-75.834 7.58-18.689 18.577-33.544 32.688-44.153 29.375-22.086 73.724-26.104 124.878-11.317l4.166 1.205 10-15.614-10-15.582c-27.673-7.563-53.766-10.304-77.609-8.142-26.846 2.431-50.217 11.001-69.463 25.472-18.521 13.925-32.806 33.054-42.46 56.857-9.867 24.329-14.87 53.637-14.87 87.109 0 33.383 7.881 67.811 22.792 99.562 15.109 32.173 36.4 59.332 61.572 78.54 36.531 27.875 77.952 37.1 120.039 26.796l10-15.495-10-15.552z" fill="#ff5b5b"/><path d="m445.56 215.954c-9.654-23.803-23.939-42.932-42.46-56.857-19.247-14.471-42.617-23.041-69.463-25.472-23.844-2.161-49.937.58-77.609 8.142v31.196l4.166-1.205c51.154-14.787 95.503-10.768 124.878 11.317 14.11 10.609 25.108 25.464 32.688 44.153 8.408 20.731 12.671 46.245 12.671 75.834 0 59.144-29.161 121.133-72.563 154.253-20.889 15.939-54.826 32.466-97.879 20.683l-3.96-1.084v31.046c11.172 2.735 22.292 4.094 33.291 4.094 30.437-.001 59.915-10.414 86.748-30.89 25.171-19.208 46.463-46.367 61.572-78.54 14.911-31.751 22.792-66.179 22.792-99.562-.001-33.471-5.004-62.779-14.872-87.108z" fill="#c83c50"/></g><g><path d="m210.094 309.336h30v67.023h-30z" fill="#5a5555"/></g><g><path d="m271.961 309.336h30v67.023h-30z" fill="#2d2d2d"/></g></g></svg>