<svg id="Flat" height="512" viewBox="0 0 64 64" width="512" xmlns="http://www.w3.org/2000/svg"><path d="m26 6 2 4h4l-3 3 2 5-5-3-5 3 2-5-3-3h4z" fill="#f8cb3f"/><circle cx="44" cy="27" fill="#f8cb3f" r="17"/><path d="m39 38h-1a12 12 0 0 0 -24 0h-1a10 10 0 0 0 0 20h26a10 10 0 0 0 0-20z" fill="#66bae1"/><path d="m9 18 2 4h4l-3 3 2 5-5-3-5 3 2-5-3-3h4z" fill="#f8cb3f"/><path d="m55 46 2 4h4l-3 3 2 5-5-3-5 3 2-5-3-3h4z" fill="#f8cb3f"/><g fill="#9ecce3"><path d="m12 53h26v2h-26z"/><path d="m40 53h2v2h-2z"/><path d="m17 37h2v2h-2z"/><path d="m17 33h2v2h-2z"/></g><g fill="#e7bb2f"><path d="m58 29h-2v-2a12.013 12.013 0 0 0 -12-12h-2v-2h2a14.016 14.016 0 0 1 14 14z"/><path d="m56 31h2v2h-2z"/><path d="m46 35h2v2h-2z"/><path d="m50 35h2v2h-2z"/><circle cx="39" cy="28" r="4"/><path d="m48 29h-2v-1a7.008 7.008 0 0 0 -7-7h-1v-2h1a9.01 9.01 0 0 1 9 9z"/></g></svg>