<svg height="512pt" viewBox="-67 0 512 512" width="512pt" xmlns="http://www.w3.org/2000/svg"><path d="m188.9375 512c-4.265625 0-7.722656-3.457031-7.722656-7.722656v-150.203125c0-4.265625 3.457031-7.722657 7.722656-7.722657 4.261719 0 7.71875 3.457032 7.71875 7.722657v150.203125c0 4.265625-3.457031 7.722656-7.71875 7.722656zm0 0" fill="#666"/><path d="m15.824219 512c-1.976563 0-3.953125-.753906-5.460938-2.261719-3.015625-3.015625-3.015625-7.90625 0-10.921875l150.203125-150.203125c3.015625-3.011719 7.90625-3.011719 10.921875 0 3.015625 3.015625 3.015625 7.90625 0 10.921875l-150.203125 150.203125c-1.507812 1.507813-3.484375 2.261719-5.460937 2.261719zm0 0" fill="#666"/><path d="m362.046875 512c-1.976563 0-3.953125-.753906-5.457031-2.261719l-150.203125-150.203125c-3.019531-3.015625-3.019531-7.90625 0-10.921875 3.011719-3.015625 7.902343-3.015625 10.917969 0l150.203124 150.203125c3.015626 3.015625 3.015626 7.90625 0 10.921875-1.507812 1.507813-3.484374 2.261719-5.460937 2.261719zm0 0" fill="#666"/><path d="m355.839844 318.953125h-333.804688c-12.171875 0-22.035156-9.863281-22.035156-22.035156v-242.121094c0-12.167969 9.863281-22.035156 22.035156-22.035156h333.804688c12.167968 0 22.03125 9.867187 22.03125 22.035156v242.121094c0 12.171875-9.863282 22.035156-22.03125 22.035156zm0 0" fill="#e1e3fa"/><path d="m355.839844 32.761719h-1.652344v238.65625c0 12.742187-10.332031 23.070312-23.074219 23.070312h-331.113281v2.429688c0 12.171875 9.863281 22.035156 22.035156 22.035156h333.804688c12.167968 0 22.03125-9.863281 22.03125-22.035156v-242.121094c0-12.167969-9.863282-22.035156-22.03125-22.035156zm0 0" fill="#b1b2c4"/><path d="m234.035156 361.519531h-90.199218c-11.769532 0-21.3125-9.539062-21.3125-21.308593v-21.257813h132.824218v21.257813c0 11.769531-9.542968 21.308593-21.3125 21.308593zm0 0" fill="#666"/><path d="m232.390625 339.515625c0 9.828125-5.898437 18.273437-14.34375 22.003906h15.988281c11.769532 0 21.3125-9.539062 21.3125-21.308593v-21.257813h-22.957031zm0 0" fill="#4d4d4d"/><path d="m213.132812 32.761719h-48.394531v-9.261719c0-12.980469 10.523438-23.5 23.5-23.5h1.394531c12.976563 0 23.5 10.519531 23.5 23.5zm0 0" fill="#666"/><path d="m105.175781 242.417969c36.363281-.476563 65.699219-30.082031 65.699219-66.558594 0-36.773437-29.808594-66.582031-66.582031-66.582031-36.773438 0-66.582031 29.808594-66.582031 66.582031h67.464843zm0 0" fill="#fd481e"/><path d="m104.292969 109.273438c-.714844 0-1.421875.03125-2.128907.054687 26.429688 10.539063 45.117188 36.339844 45.117188 66.53125 0 29.027344-17.28125 53.996094-42.105469 65.242187v1.316407c36.363281-.476563 65.699219-30.085938 65.699219-66.5625 0-36.769531-29.808594-66.582031-66.582031-66.582031zm0 0" fill="#d63d19"/><path d="m104.292969 242.441406c.296875 0 .585937-.019531.882812-.023437v-66.558594h-67.464843c0 36.769531 29.808593 66.582031 66.582031 66.582031zm0 0" fill="#32d736"/><g fill="#666"><path d="m342.351562 99.183594h-135.226562c-4.265625 0-7.722656 3.457031-7.722656 7.722656s3.457031 7.722656 7.722656 7.722656h135.226562c4.261719 0 7.71875-3.457031 7.71875-7.722656s-3.457031-7.722656-7.71875-7.722656zm0 0"/><path d="m342.351562 145.152344h-135.226562c-4.265625 0-7.722656 3.457031-7.722656 7.722656s3.457031 7.722656 7.722656 7.722656h135.226562c4.261719 0 7.71875-3.457031 7.71875-7.722656s-3.457031-7.722656-7.71875-7.722656zm0 0"/><path d="m342.351562 191.117188h-135.226562c-4.265625 0-7.722656 3.457031-7.722656 7.722656s3.457031 7.722656 7.722656 7.722656h135.226562c4.261719 0 7.71875-3.457031 7.71875-7.722656s-3.457031-7.722656-7.71875-7.722656zm0 0"/><path d="m342.351562 237.085938h-135.226562c-4.265625 0-7.722656 3.457031-7.722656 7.722656s3.457031 7.722656 7.722656 7.722656h135.226562c4.261719 0 7.71875-3.457031 7.71875-7.722656s-3.457031-7.722656-7.71875-7.722656zm0 0"/></g></svg>