<?xml version="1.0" encoding="iso-8859-1"?>
<!-- Generator: Adobe Illustrator 19.0.0, SVG Export Plug-In . SVG Version: 6.00 Build 0)  -->
<svg xmlns="http://www.w3.org/2000/svg" xmlns:xlink="http://www.w3.org/1999/xlink" version="1.1" id="Capa_1" x="0px" y="0px" viewBox="0 0 512 512" style="enable-background:new 0 0 512 512;" xml:space="preserve">
<rect x="102.232" y="437.12" style="fill:#E04F5F;" width="117.384" height="74.848"/>
<rect x="102.232" y="100.352" style="fill:#FFD983;" width="117.384" height="336.8"/>
<polygon style="fill:#E8B152;" points="102.272,100.368 219.656,100.368 193.12,55 128.8,55 "/>
<polygon points="193.12,55 160.96,0 128.8,55 "/>
<rect x="102.232" y="415.24" style="fill:#B6DDF2;" width="117.384" height="26.648"/>
<g style="opacity:0.25;">
	<polygon style="fill:#FFFFFF;" points="160.96,512 160.96,0 219.656,100.368 219.656,512  "/>
</g>
<rect x="292.384" style="fill:#25B6D2;" width="117.384" height="512"/>
<g>
	<rect x="351.024" y="46.368" style="fill:#FFFFFF;" width="58.696" height="8"/>
	<rect x="380.384" y="92.064" style="fill:#FFFFFF;" width="29.352" height="8"/>
	<rect x="351.024" y="137.76" style="fill:#FFFFFF;" width="58.696" height="8"/>
	<rect x="380.384" y="183.456" style="fill:#FFFFFF;" width="29.352" height="8"/>
	<rect x="351.024" y="229.152" style="fill:#FFFFFF;" width="58.696" height="8"/>
	<rect x="380.384" y="274.88" style="fill:#FFFFFF;" width="29.352" height="8"/>
	<rect x="351.024" y="320.56" style="fill:#FFFFFF;" width="58.696" height="8"/>
	<rect x="380.384" y="366.24" style="fill:#FFFFFF;" width="29.352" height="8"/>
	<rect x="351.024" y="411.92" style="fill:#FFFFFF;" width="58.696" height="8"/>
	<rect x="380.384" y="457.6" style="fill:#FFFFFF;" width="29.352" height="8"/>
</g>
<g>
</g>
<g>
</g>
<g>
</g>
<g>
</g>
<g>
</g>
<g>
</g>
<g>
</g>
<g>
</g>
<g>
</g>
<g>
</g>
<g>
</g>
<g>
</g>
<g>
</g>
<g>
</g>
<g>
</g>
</svg>
