<svg id="color" enable-background="new 0 0 24 24" height="512" viewBox="0 0 24 24" width="512" xmlns="http://www.w3.org/2000/svg"><path d="m15.25 12.5h-6.5c-.965 0-1.75-.785-1.75-1.75v-7.5c0-.965.785-1.75 1.75-1.75h6.5c.965 0 1.75.785 1.75 1.75v7.5c0 .965-.785 1.75-1.75 1.75z" fill="#03a9f4"/><path d="m12 1.5h-3.25c-.965 0-1.75.785-1.75 1.75v7.5c0 .965.785 1.75 1.75 1.75h3.25z" fill="#0393d4"/><path d="m13.25 9.5h-2.5c-.414 0-.75-.336-.75-.75s.336-.75.75-.75h2.5c.414 0 .75.336.75.75s-.336.75-.75.75z" fill="#fff"/><path d="m13.25 6.5h-2.5c-.414 0-.75-.336-.75-.75s.336-.75.75-.75h2.5c.414 0 .75.336.75.75s-.336.75-.75.75z" fill="#fff"/><path d="m13.5 3c-.414 0-.75-.336-.75-.75v-1.5c0-.414.336-.75.75-.75s.75.336.75.75v1.5c0 .414-.336.75-.75.75z" fill="#0288d1"/><path d="m10.5 3c-.414 0-.75-.336-.75-.75v-1.5c0-.414.336-.75.75-.75s.75.336.75.75v1.5c0 .414-.336.75-.75.75z" fill="#0288d1"/><path d="m10.5 0c-.414 0-.75.336-.75.75v1.5c0 .414.336.75.75.75z" fill="#0276b6"/><path d="m13.5 0c-.414 0-.75.336-.75.75v1.5c0 .414.336.75.75.75z" fill="#0276b6"/><path d="m14 5.75h-4c0 .414.336.75.75.75h2.5c.414 0 .75-.336.75-.75z" fill="#dedede"/><path d="m14 8.75h-4c0 .414.336.75.75.75h2.5c.414 0 .75-.336.75-.75z" fill="#dedede"/><path d="m15.853 23.146c-1.313-1.313-1.353-2.586-1.354-2.649-.001-.274-.224-.497-.499-.497h-4.02c-.276 0-.5.227-.5.503 0 .054-.018 1.327-1.333 2.644-.143.143-.186.357-.108.545.076.187.259.308.461.308h7c.202 0 .385-.121.462-.309.077-.187.034-.402-.109-.545z" fill="#90a4ae"/><path d="m24 5.75v13.5c0 .96-.79 1.75-1.75 1.75h-20.5c-.96 0-1.75-.79-1.75-1.75v-13.5c0-.96.79-1.75 1.75-1.75h3.25v2h-3v11h20v-11h-3v-2h3.25c.96 0 1.75.79 1.75 1.75z" fill="#607d8b"/><path d="m22 6v11h-20v-11h3v4.75c0 2.07 1.68 3.75 3.75 3.75h6.5c2.07 0 3.75-1.68 3.75-3.75v-4.75z" fill="#fafafa"/><path d="m12 21h-2.591c-.118.501-.431 1.315-1.262 2.146-.143.143-.186.357-.108.545.076.188.259.309.461.309h3.5z" fill="#7d8f97"/><path d="m5 4h-3.25c-.96 0-1.75.79-1.75 1.75v13.5c0 .96.79 1.75 1.75 1.75h7.659 2.591v-4h-10v-11h3z" fill="#546d79"/><path d="m5 6h-3v11h10v-2.5h-3.25c-2.07 0-3.75-1.68-3.75-3.75z" fill="#dadada"/></svg>