<svg id="Layer_1" enable-background="new 0 0 1600 1600" height="512" viewBox="0 0 1600 1600" width="512" xmlns="http://www.w3.org/2000/svg"><g><g><g><g><g><path d="m820.6 558.5c-4.5 0-9-1.8-12.2-5.5-6.1-6.8-5.5-17.2 1.2-23.3l192.5-173.3 41.8-161.9c.7-2.9 2.2-5.5 4.3-7.5l100.6-100.6c6.4-6.4 16.8-6.4 23.3 0s6.4 16.9 0 23.3l-97.4 97.4-41.9 162.4c-.8 3.1-2.5 6-4.9 8.1l-196.3 176.7c-3.2 2.8-7.1 4.2-11 4.2z" fill="#a55a3c"/></g></g><g><g><path d="m1059.8 215.2c-4.2 0-8.4-1.6-11.6-4.8l-102.5-102.6c-6.4-6.4-6.4-16.9 0-23.3s16.8-6.4 23.3 0l102.5 102.5c6.4 6.4 6.4 16.9 0 23.3-3.3 3.3-7.5 4.9-11.7 4.9z" fill="#a55a3c"/></g></g></g><g><g><path d="m738 471.3c-2.6 0-5.3-.6-7.7-1.9l-241.7-128.6c-2.5-1.3-4.7-3.3-6.2-5.8l-81.2-129.3h-155.3c-9.1 0-16.5-7.4-16.5-16.5s7.4-16.5 16.5-16.5h164.4c5.7 0 10.9 2.9 13.9 7.7l83.8 133.2 237.9 126.5c8 4.3 11.1 14.2 6.8 22.3-3.1 5.7-8.8 8.9-14.7 8.9z" fill="#a55a3c"/></g></g><g><g><path d="m410.3 205.8c-9.1 0-16.5-7.4-16.5-16.5v-140.8c0-9.1 7.4-16.5 16.5-16.5s16.5 7.4 16.5 16.5v140.9c-.1 9-7.5 16.4-16.5 16.4z" fill="#a55a3c"/></g></g></g><path d="m798.5 210.5 54 211.3 58.7 266.1 164.3-54.8 101.7-167.5 86.1 32.6-78.3 205.3-255.6 129.1 9.1 484.6c0 40.4 5.5 80.6 16.9 119.4 15.5 52.5 45 109.3 97.8 131.4h-538.7c52.8-22.2 82.4-79 97.8-131.4 11.4-38.7 16.9-79 16.9-119.4l9.1-484.6-228-97.8-156.5-227 82.2-60.1 140.9 173.6 148.7 50.9 43-254.3 57.9-219.1z" fill="#a55a3c"/><g><path d="m875.4 1476.6c-7.1 0-13.7-4.6-15.8-11.8-13.8-47-20.9-96.3-21-146.6l-2.9-156.7c-.2-9.1 7.1-16.6 16.2-16.8h.3c8.9 0 16.3 7.2 16.4 16.2l2.9 156.8v.3c.1 47.2 6.7 93.4 19.7 137.5 2.6 8.7-2.4 17.9-11.1 20.4-1.6.4-3.1.7-4.7.7zm-162.8-142.1c-.1 0-.3 0-.4 0-9.1-.2-16.3-7.7-16.1-16.8l9-396c.2-9.1 7.8-16.3 16.8-16.1 9.1.2 16.3 7.7 16.1 16.8l-9 396c-.2 8.9-7.5 16.1-16.4 16.1zm117.1-628.7c-8.9 2-17.7-3.7-19.6-12.5l-47-213c-2-8.9 3.7-17.7 12.5-19.6s17.7 3.7 19.6 12.5l47 213c2 8.8-3.6 17.6-12.5 19.6z" fill="#783c28"/></g><g fill="#44c086"><path d="m1059.8 1019.2v-22.3c0-62.7 50.8-113.5 113.5-113.5h22.3v22.3c0 62.7-50.8 113.5-113.5 113.5z"/><path d="m435.1 1082.8-19.3-11.2c-54.3-31.3-72.9-100.8-41.6-155.1l11.2-19.3 19.3 11.2c54.3 31.3 72.9 100.8 41.6 155.1z"/><path d="m561.2 209.9-7.3-21.1c-20.5-59.3 11-123.9 70.3-144.4l21.1-7.3 7.3 21.1c20.5 59.3-11 123.9-70.3 144.4z"/><path d="m1181.3 320.3 12.8-18.3c36-51.4 106.8-63.9 158.1-27.9l18.3 12.8-12.8 18.3c-36 51.4-106.8 63.9-158.1 27.9z"/></g></g></svg>