<?xml version="1.0" encoding="iso-8859-1"?>
<!-- Generator: Adobe Illustrator 19.0.0, SVG Export Plug-In . SVG Version: 6.00 Build 0)  -->
<svg xmlns="http://www.w3.org/2000/svg" xmlns:xlink="http://www.w3.org/1999/xlink" version="1.1" id="Layer_1" x="0px" y="0px" viewBox="0 0 512 512" style="enable-background:new 0 0 512 512;" xml:space="preserve">
<path style="fill:#FF6243;" d="M256,0C154.713,0,72.348,82.365,72.348,183.652c0,56.097,11.464,74.017,101.065,213.482  c19.033,29.607,41.628,64.779,68.451,107.075C244.981,509.106,250.323,512,256,512s11.019-2.894,14.136-7.791  c27.157-42.741,49.864-78.247,69.009-107.965c89.043-138.574,100.508-156.383,100.508-212.591C439.652,82.365,357.287,0,256,0z"/>
<path style="fill:#FF0C38;" d="M439.652,183.652c0,56.209-11.464,74.017-100.508,212.591  c-19.144,29.718-41.85,65.224-69.009,107.965C267.019,509.106,261.677,512,256,512V0C357.287,0,439.652,82.365,439.652,183.652z"/>
<path style="fill:#7CCC92;" d="M265.351,80.696c-2.894-1.892-6.122-2.783-9.351-2.783c-3.229,0-6.457,0.89-9.351,2.783  c-3.004,2.115-74.128,50.643-74.128,114.087c0,65.67,73.795,97.503,77.021,98.838c2.005,0.89,4.231,1.336,6.457,1.336  s4.452-0.445,6.457-1.336c3.227-1.336,77.021-33.169,77.021-98.838C339.478,131.339,268.355,82.81,265.351,80.696z"/>
<path style="fill:#34B772;" d="M339.478,194.783c0,65.67-73.795,97.503-77.021,98.838c-2.005,0.89-4.231,1.336-6.457,1.336V77.913  c3.228,0,6.457,0.89,9.351,2.783C268.355,82.81,339.478,131.339,339.478,194.783z"/>
<path style="fill:#DDDD47;" d="M272.696,194.783v100.174c0,9.238-7.456,16.696-16.696,16.696s-16.696-7.457-16.696-16.696V194.783  c0-9.238,7.456-16.696,16.696-16.696S272.696,185.544,272.696,194.783z"/>
<path style="fill:#C7D100;" d="M272.696,194.783v100.174c0,9.238-7.456,16.696-16.696,16.696V178.087  C265.239,178.087,272.696,185.544,272.696,194.783z"/>
<g>
</g>
<g>
</g>
<g>
</g>
<g>
</g>
<g>
</g>
<g>
</g>
<g>
</g>
<g>
</g>
<g>
</g>
<g>
</g>
<g>
</g>
<g>
</g>
<g>
</g>
<g>
</g>
<g>
</g>
</svg>
