<svg height="512" viewBox="0 0 512 512" width="512" xmlns="http://www.w3.org/2000/svg"><g id="Flat"><rect fill="#804a32" height="280" rx="24" width="464" x="24" y="208"/><rect fill="#92563a" height="232" rx="24" width="464" x="24" y="208"/><path d="m456 208v136a39.972 39.972 0 0 1 -40 40h-312v-80a24 24 0 0 0 0-48v-48z" fill="#875036"/><path d="m432 168v176a39.972 39.972 0 0 1 -40 40h-312v-80a24 24 0 0 0 0-48v-80l208-152a143.875 143.875 0 0 1 144 144z" fill="#ffb531"/><path d="m432 168v176a40.008 40.008 0 0 1 -35.88 39.79l-2.09-180.14c4.42-109.49-46.79-157.64-89.66-178.73a144.028 144.028 0 0 1 127.63 143.08z" fill="#fcac1f"/><path d="m80 176v80a24 24 0 0 1 0 48v80h312a40 40 0 0 0 40-40v-128a40 40 0 0 0 -40-40z" fill="#fad86b"/><path d="m384 208h-304v48a24 24 0 0 1 0 48v48h304a16 16 0 0 0 16-16v-112a16 16 0 0 0 -16-16z" fill="#ffe287"/><g fill="#fad86b"><circle cx="312" cy="264" r="24"/><circle cx="152" cy="256" r="16"/><circle cx="232" cy="304" r="16"/></g></g></svg>