<svg id="Layer_1" enable-background="new 0 0 512 512" height="512" viewBox="0 0 512 512" width="512" xmlns="http://www.w3.org/2000/svg"><g id="XMLID_1_"><g id="XMLID_4023_"><path id="XMLID_1699_" d="m507 378v129h-502v-210h1.2c97.9.6 245.2 81 322.1 81z" fill="#f6c9aa"/><path id="XMLID_2452_" d="m507 378v129h-316.3c0-82.9 187.3-83 187.3-112.3 0-13.6-31.7-16.7-31.7-16.7z" fill="#4893cc"/><path id="XMLID_1510_" d="m219.8 130.2s13-125.2 95.3-125.2c52.5 0 73.7 19.9 73.7 19.9l-30 13.7-41.3-18.7 26.3 26.2-54.5 29.2-22.7-20.7 12.6 29.6z" fill="#47b85c"/><path id="XMLID_1506_" d="m401.3 238.6-36.1-21.5 4-50.9-22.8 39.7-49.1-29.3 14.3-35.8-29 27-63-37.6s71.9-33.1 131.8-6.6c68.3 30.3 49.9 115 49.9 115z" fill="#47b85c"/><path id="XMLID_1505_" d="m150.1 87.2 12.3-30-26 21.6-40.2-24.9 13.2-25.8-25.7 18.1-24.3-15.1s26.9-26.1 82.8-26.1c56 0 77.2 125.2 77.2 125.2z" fill="#47b85c"/><path id="XMLID_1504_" d="m158.6 169.9-23.4-24.7 16.1 29.5-50 32.5-15.3-41.8v51.7l-32.7 21.5s-15.6-79.9 33.7-108.4 132.4 0 132.4 0z" fill="#47b85c"/><path id="XMLID_612_" d="m190.7 507c0-82.9 187.3-83 187.3-112.3 0-13.5-31.7-16.7-31.7-16.7h58s39.7 5.2 31.7 22.7-171.9 75.6-27.4 106.3z" fill="#cde9fe"/><path id="XMLID_1512_" d="m507 435.8c-33.5 14.9-78.5 37.2 0 52.1z" fill="#3279af"/><path id="XMLID_1511_" d="m219.8 130c-69 121-52.2 330-52.2 330h-70.6s19.2-238 105.9-330z" fill="#d84861"/><circle id="XMLID_1509_" cx="243.1" cy="130.2" fill="#399349" r="25"/><circle id="XMLID_1508_" cx="195.8" cy="130.2" fill="#399349" r="25"/><circle id="XMLID_1507_" cx="219.4" cy="153.8" fill="#47b85c" r="25"/><g fill="#c22945"><path id="XMLID_2056_" d="m161.7 193c-3.1 6.5-6.1 13.2-8.9 20h34.6c1.8-6.7 3.7-13.4 5.8-20z"/><path id="XMLID_2054_" d="m142.8 239c-2.3 6.6-4.6 13.3-6.7 20h41.3c1.2-6.7 2.4-13.3 3.8-20z"/><path id="XMLID_2047_" d="m125.4 296c-1.7 6.7-3.4 13.4-5 20h49.3c.6-6.6 1.3-13.3 2.1-20z"/><path id="XMLID_2048_" d="m113.1 350c-1.4 6.8-2.6 13.5-3.8 20h57c.2-6.5.5-13.1.9-20z"/><path id="XMLID_2049_" d="m99.5 436h66.9c-.2-5.8-.4-12.5-.5-20h-63.8c-1.1 7.5-1.9 14.2-2.6 20z"/></g><g id="XMLID_2168_"><path id="XMLID_2180_" d="m456 400h30v10h-30z" fill="#cde9fe"/></g><g id="XMLID_2167_"><path id="XMLID_2179_" d="m441 421h30v10h-30z" fill="#cde9fe"/></g><g id="XMLID_2162_"><g id="XMLID_2165_"><path id="XMLID_2178_" d="m33 355h12v10h-12z" fill="#f3ab7d"/></g><g id="XMLID_2164_"><path id="XMLID_2177_" d="m45 335h12v10h-12z" fill="#f3ab7d"/></g><g id="XMLID_2163_"><path id="XMLID_2176_" d="m57 355h12v10h-12z" fill="#f3ab7d"/></g></g><g id="XMLID_2143_"><g id="XMLID_2161_"><path id="XMLID_2173_" d="m232 391h12v10h-12z" fill="#f3ab7d"/></g><g id="XMLID_2160_"><path id="XMLID_2172_" d="m220 411h12v10h-12z" fill="#f3ab7d"/></g><g id="XMLID_2157_"><path id="XMLID_2171_" d="m208 391h12v10h-12z" fill="#f3ab7d"/></g></g></g></g></svg>