<?xml version="1.0" encoding="iso-8859-1"?>
<!-- Generator: Adobe Illustrator 19.0.0, SVG Export Plug-In . SVG Version: 6.00 Build 0)  -->
<svg version="1.1" id="Capa_1" xmlns="http://www.w3.org/2000/svg" xmlns:xlink="http://www.w3.org/1999/xlink" x="0px" y="0px"
	 viewBox="0 0 512 512" style="enable-background:new 0 0 512 512;" xml:space="preserve">
<path style="fill:#CEC8D7;" d="M502.461,75.727l-1.219-2.943L158.297,214.837l54.996,46.53l96.308-39.892
	c34.351,27.12,81.965,35.359,125.274,17.42l0,0C498.596,212.5,528.855,139.448,502.461,75.727z"/>
<path style="fill:#D40000;" d="M29.66,233.465c-24.505,10.15-36.142,38.244-25.991,62.749c10.15,24.505,38.244,36.141,62.748,25.991
	l146.876-60.838l-36.757-88.74L29.66,233.465z"/>
<path style="fill:#E4ECF5;" d="M436.273,9.539l2.943,1.219L297.884,351.964l-47.25-53.257l39.892-96.308
	c-27.12-34.351-35.359-81.965-17.42-125.274l0,0C299.499,13.404,372.552-16.855,436.273,9.539z"/>
<path style="fill:#FF0F0F;" d="M278.535,482.34c-10.15,24.505-38.244,36.142-62.749,25.991
	c-24.505-10.15-36.141-38.244-25.991-62.748l60.838-146.876l88.74,36.757L278.535,482.34z"/>
<g>
</g>
<g>
</g>
<g>
</g>
<g>
</g>
<g>
</g>
<g>
</g>
<g>
</g>
<g>
</g>
<g>
</g>
<g>
</g>
<g>
</g>
<g>
</g>
<g>
</g>
<g>
</g>
<g>
</g>
</svg>
