<svg height="512" viewBox="0 0 58 58" width="512" xmlns="http://www.w3.org/2000/svg"><g id="Page-1" fill="none" fill-rule="evenodd"><g id="011---Computer-Updating" transform="translate(-1)"><path id="Path" d="m59 2.18v41.82h-58v-41.82c-.04521019-1.152631.84774936-2.12595691 2-2.18h54c1.1522506.05404309 2.0452102 1.027369 2 2.18z" fill="#90bae1"/><path id="Path" d="m57.39.04c-9.36.38-56.39 4.14-56.39 41.96v-39.82c-.04521019-1.152631.84774936-2.12595691 2-2.18h54c.1311216-.00207169.2620289.01135469.39.04z" fill="#b0d3f0"/><path id="Path" d="m41 54-11 2-11-2 3-6 8-2 8 2z" fill="#3f5c6c"/><path id="Path" d="m59 42v3.82c.0452102 1.152631-.8477494 2.1259569-2 2.18h-54c-1.15225064-.0540431-2.04521019-1.027369-2-2.18v-3.82z" fill="#547580"/><path id="Path" d="m47 56c-.0032948 1.1032019-.8967981 1.9967052-2 2h-30c-1.1011688-.0081672-1.9918328-.8988312-2-2 .0032948-1.1032019.8967981-1.9967052 2-2h30c1.1011688.0081672 1.9918328.8988312 2 2z" fill="#547580"/><path id="Path" d="m40.2 13.839-1.535-.307c-.1889103-.6657534-.4543481-1.3073678-.791-1.912l.868-1.3c.2645074-.39667649.2121853-.92492065-.125-1.262l-1.673-1.671c-.3370794-.33718529-.8653235-.38950742-1.262-.125l-1.308.872c-.6011304-.33316569-1.2386747-.59590105-1.9-.783l-.313-1.551c-.0951286-.46603466-.5053558-.80057265-.981-.8h-2.36c-.4756442-.00057265-.8858714.33396534-.981.8l-.309 1.551c-.6613253.18709895-1.2988696.44983431-1.9.783l-1.308-.872c-.3966765-.26450742-.9249206-.21218529-1.262.125l-1.669 1.669c-.3371853.33707935-.3895074.86532351-.125 1.262l.868 1.3c-.3366519.6046322-.6020897 1.2462466-.791 1.912l-1.535.307c-.4660347.0951286-.8005727.5053558-.8.981v2.36c-.0005727.4756442.3339653.8858714.8.981l1.535.307c.1889103.6657534.4543481 1.3073678.791 1.912l-.868 1.3c-.2645074.3966765-.2121853.9249206.125 1.262l1.669 1.669c.3370794.3371853.8653235.3895074 1.262.125l1.308-.872c.6011304.3331657 1.2386747.595901 1.9.783l.309 1.547c.0951286.4660347.5053558.8005727.981.8h2.36c.4756442.0005727.8858714-.3339653.981-.8l.309-1.547c.6613253-.187099 1.2988696-.4498343 1.9-.783l1.308.872c.3966765.2645074.9249206.2121853 1.262-.125l1.669-1.669c.3371853-.3370794.3895074-.8653235.125-1.262l-.868-1.3c.3366519-.6046322.6020897-1.2462466.791-1.912l1.535-.307c.4660347-.0951286.8005727-.5053558.8-.981v-2.358c.0013582-.4732009-.3291463-.8825758-.792-.981z" fill="#3b97d3"/><path id="Path" d="m38 33v4h-30c-1.10320187-.0032948-1.9967052-.8967981-2-2 .00816722-1.1011688.89883122-1.9918328 2-2z" fill="#e64c3c"/><path id="Path" d="m54 35c-.0081672 1.1011688-.8988312 1.9918328-2 2h-14v-4h14c1.1032019.0032948 1.9967052.8967981 2 2z" fill="#3f5c6c"/><path id="Path" d="m49.707 15.293-2-2c-.3904999-.3903819-1.0235001-.3903819-1.414 0l-2 2c-.3789722.3923789-.3735524 1.0160848.0121814 1.4018186s1.0094397.3911536 1.4018186.0121814l.272-.272c-.0955909 4.0846239-1.7655035 7.9743987-4.661 10.857-.3910176.3904653-.3914653 1.0239824-.001 1.415s1.0239824.3914653 1.415.001c3.2804108-3.2661661 5.1626386-7.6796657 5.249-12.308l.312.312c.3923789.3789722 1.0160848.3735524 1.4018186-.0121814s.3911536-1.0094397.0121814-1.4018186z" fill="#e64c3c"/><path id="Path" d="m17.268 3.292c-3.2816029 3.26740176-5.163929 7.682925-5.249 12.313l-.312-.312c-.3923789-.3789722-1.0160848-.3735524-1.4018186.0121814-.38573377.3857338-.39115361 1.0094397-.0121814 1.4018186l2 2c.3904999.3903819 1.0235001.3903819 1.414 0l2-2c.3789722-.3923789.3735524-1.0160848-.0121814-1.4018186s-1.0094397-.3911536-1.4018186-.0121814l-.272.272c.0955909-4.0846239 1.7655035-7.97439872 4.661-10.857.3910176-.39046532.3914653-1.0239824.001-1.415s-1.0239824-.39146532-1.415-.001z" fill="#e64c3c"/><ellipse id="Oval" cx="30" cy="16" fill="#285680" rx="5.007" ry="5"/></g></g></svg>