<svg id="Capa_1" enable-background="new 0 0 497 497" height="512" viewBox="0 0 497 497" width="512" xmlns="http://www.w3.org/2000/svg"><g><path d="m437.123 410.219-30.219-25.177h-319.606l-27.422 25.177c13.658 33.63 46.646 57.347 85.179 57.347h206.888c38.534 0 71.523-23.717 85.18-57.347z" fill="#9facba"/><path d="m437.123 410.219-30.219-25.177h-39.685l30.219 25.177c-13.658 33.63-46.646 57.347-85.179 57.347h39.685c38.533 0 71.522-23.717 85.179-57.347z" fill="#8d9ca8"/><path d="m86.538 267.567h-66.774c-10.916 0-19.764-8.848-19.764-19.764 0-10.915 8.848-19.764 19.764-19.764h66.775c10.915 0 19.764 8.848 19.764 19.764-.001 10.916-8.849 19.764-19.765 19.764z" fill="#9facba"/><path d="m477.236 267.567h-66.775c-10.915 0-19.764-8.848-19.764-19.764 0-10.915 8.848-19.764 19.764-19.764h66.775c10.915 0 19.764 8.848 19.764 19.764 0 10.916-8.849 19.764-19.764 19.764z" fill="#8d9ca8"/><path d="m53.151 178.047v197.615c0 12.225 2.393 23.889 6.726 34.558h377.247c4.333-10.669 6.726-22.333 6.726-34.558v-197.615z" fill="#e8edf2"/><path d="m404.164 178.047v197.615c0 12.225-2.393 23.889-6.726 34.558h39.685c4.333-10.669 6.726-22.333 6.726-34.558v-197.615z" fill="#d9e7ec"/><path d="m281.874 111.958h-66.747v-56.299c0-14.484 11.742-26.226 26.226-26.226h14.296c14.484 0 26.226 11.742 26.226 26.226v56.299z" fill="#b6c4cf"/><path d="m443.849 176.998h-390.698v-32.231c0-35.501 28.779-64.28 64.28-64.28h262.137c35.501 0 64.28 28.779 64.28 64.28v32.231z" fill="#9facba"/><path d="m379.569 80.487h-39.685c35.501 0 64.28 28.779 64.28 64.28v32.231h39.685v-32.231c0-35.501-28.779-64.28-64.28-64.28z" fill="#8d9ca8"/><path d="m447.816 196.405h-398.632c-10.139 0-18.358-8.219-18.358-18.358 0-10.139 8.219-18.358 18.358-18.358h398.633c10.139 0 18.358 8.219 18.358 18.358 0 10.139-8.22 18.358-18.359 18.358z" fill="#c5d3dd"/><path d="m447.816 159.689h-39.685c10.139 0 18.358 8.219 18.358 18.358 0 10.139-8.219 18.358-18.358 18.358h39.685c10.139 0 18.358-8.219 18.358-18.358.001-10.139-8.219-18.358-18.358-18.358z" fill="#b6c4cf"/></g></svg>