<?xml version="1.0" encoding="iso-8859-1"?>
<!-- Generator: Adobe Illustrator 19.0.0, SVG Export Plug-In . SVG Version: 6.00 Build 0)  -->
<svg version="1.1" id="Capa_1" xmlns="http://www.w3.org/2000/svg" xmlns:xlink="http://www.w3.org/1999/xlink" x="0px" y="0px"
	 viewBox="0 0 512 512" style="enable-background:new 0 0 512 512;" xml:space="preserve">
<path style="fill:#E2EEFD;" d="M367.38,151.751c8.863-2.147,18.12-3.285,27.642-3.285c64.605,0,116.977,52.372,116.977,116.977
	S459.626,382.42,395.022,382.42c-10.346,0-20.379-1.343-29.933-3.865l2.119-45.626c8.03,3.079,16.75,4.767,25.864,4.767
	c39.904,0,72.253-32.349,72.253-72.253s-32.349-72.253-72.253-72.253c-9.049,0-17.709,1.663-25.692,4.701V151.751z"/>
<path style="fill:#C7DCF2;" d="M512,265.446c0,64.606-52.376,116.971-116.982,116.971c-10.343,0-20.377-1.341-29.926-3.857
	l0.629-13.53c4.125,0.443,8.322,0.67,12.581,0.67c64.606,0,116.982-52.365,116.982-116.971c0-28.049-9.879-53.799-26.358-73.949
	C495.212,196.22,512,228.868,512,265.446z"/>
<path style="fill:#00C37A;" d="M362.14,509.199H10.802C4.836,509.199,0,504.363,0,498.397v-26.994
	c0-5.966,4.836-10.802,10.802-10.802H362.14c5.966,0,10.802,4.836,10.802,10.802v26.994
	C372.942,504.363,368.106,509.199,362.14,509.199z"/>
<path style="fill:#02A562;" d="M372.94,471.401v26.998c0,5.96-4.836,10.797-10.797,10.797h-15.396v-48.591h15.396
	C368.103,460.604,372.94,465.441,372.94,471.401z"/>
<path style="fill:#E2EEFD;" d="M285.806,460.601H87.136c-44.933,0-81.359-36.426-81.359-81.359V111.543
	c0-2.848,2.308-5.156,5.156-5.156h351.076c2.848,0,5.156,2.308,5.156,5.156v267.698
	C367.165,424.175,330.739,460.601,285.806,460.601z"/>
<path style="fill:#C7DCF2;" d="M362.009,106.39c2.848,0,5.156,2.308,5.156,5.156v267.695c0,44.93-36.423,81.363-81.363,81.363
	h-27.843c44.941,0,81.363-36.433,81.363-81.363V106.39H362.009z"/>
<g>
	<path style="fill:#707487;" d="M58.493,86.561c4.272,0,7.734-3.462,7.734-7.734V63.251c0-4.272-3.462-7.734-7.734-7.734
		s-7.734,3.462-7.734,7.734v15.576C50.759,83.099,54.222,86.561,58.493,86.561z"/>
	<path style="fill:#707487;" d="M121.994,86.561c4.272,0,7.734-3.462,7.734-7.734V37.454c0-4.272-3.462-7.734-7.734-7.734
		s-7.734,3.462-7.734,7.734v41.373C114.26,83.099,117.722,86.561,121.994,86.561z"/>
	<path style="fill:#707487;" d="M89.567,86.561c4.272,0,7.734-3.462,7.734-7.734V10.535c0-4.272-3.462-7.734-7.734-7.734
		s-7.734,3.462-7.734,7.734v68.292C81.833,83.099,85.295,86.561,89.567,86.561z"/>
	<path style="fill:#707487;" d="M153.144,86.561c4.272,0,7.734-3.462,7.734-7.734V10.535c0-4.272-3.462-7.734-7.734-7.734
		s-7.734,3.462-7.734,7.734v68.292C145.41,83.099,148.872,86.561,153.144,86.561z"/>
	<path style="fill:#707487;" d="M270.169,97.711v118.106c0,4.269-3.465,7.734-7.734,7.734c-4.279,0-7.734-3.465-7.734-7.734V97.711
		c0-9.951-8.095-18.046-18.046-18.046s-18.046,8.095-18.046,18.046v8.683H203.14v-8.683c0-18.479,15.035-33.515,33.515-33.515
		S270.169,79.231,270.169,97.711z"/>
</g>
<path style="fill:#00C37A;" d="M262.173,203.429l-48.834,26.169c-1.675,0.898-2.721,2.644-2.721,4.545v81.546
	c0,2.848,2.308,5.156,5.156,5.156h46.399h46.399c2.848,0,5.156-2.308,5.156-5.156v-81.546c0-1.901-1.046-3.647-2.721-4.545
	L262.173,203.429z"/>
<path style="fill:#02A562;" d="M313.727,234.148v81.539c0,2.846-2.31,5.156-5.156,5.156h-9.992v-78.858
	c0-1.99-1.093-3.815-2.846-4.754l-48.313-25.894l14.757-7.909l48.828,26.172C312.686,230.498,313.727,232.24,313.727,234.148z"/>
<g>
</g>
<g>
</g>
<g>
</g>
<g>
</g>
<g>
</g>
<g>
</g>
<g>
</g>
<g>
</g>
<g>
</g>
<g>
</g>
<g>
</g>
<g>
</g>
<g>
</g>
<g>
</g>
<g>
</g>
</svg>
