<svg id="Capa_1" enable-background="new 0 0 512 512" height="512" viewBox="0 0 512 512" width="512" xmlns="http://www.w3.org/2000/svg"><g><path d="m390.123 160c0-27.735 15.67-53.09 40.477-65.493l31.25-15.625c6.017-3.008 12.4 3.375 9.391 9.391l-15.625 31.25c-12.404 24.807-37.758 40.477-65.493 40.477z" fill="#aad667"/><path d="m450.6 94.507 21.291-10.645c-.799-4.201-5.523-7.239-10.041-4.979l-31.25 15.624c-24.807 12.404-40.477 37.758-40.477 65.493 6.886 0 13.626-.968 20.057-2.8 1.015-26.632 16.45-50.709 40.42-62.693z" fill="#99c94f"/><path d="m390.123 160c0 27.735 15.67 53.09 40.477 65.493l31.25 15.625c6.017 3.008 12.4-3.375 9.391-9.391l-15.625-31.25c-12.404-24.807-37.758-40.477-65.493-40.477z" fill="#aad667"/><path d="m450.6 225.493c-23.969-11.985-39.405-36.061-40.42-62.693-6.431-1.832-13.17-2.8-20.057-2.8 0 27.735 15.67 53.09 40.477 65.493l31.25 15.625c4.519 2.259 9.242-.778 10.041-4.979z" fill="#99c94f"/><path d="m297.997 512h76.014c4.844 0 8.199-4.794 6.585-9.361-17.46-49.434-16.592-98.867 2.604-148.301.588-1.513.638-3.181.136-4.725-20.286-62.409-20.286-124.817 0-187.226.502-1.544.452-3.212-.136-4.725-19.196-49.434-20.064-98.867-2.604-148.301 1.614-4.567-1.74-9.361-6.584-9.361h-75.781c-4.822 0-8.205 4.767-6.598 9.314 17.467 49.402 16.622 98.851-2.589 148.349-.587 1.513-.637 3.18-.135 4.724 20.275 62.377 20.28 124.753.025 187.13-.52 1.602-.444 3.335.206 4.889 19.893 47.62 19.306 97.217 2.215 148.406-1.51 4.52 1.876 9.188 6.642 9.188z" fill="#aad667"/><path d="m311.354 502.811c17.091-51.189 17.678-100.785-2.215-148.406-.649-1.554-.726-3.287-.206-4.889 20.254-62.377 20.25-124.753-.025-187.13-.502-1.543-.452-3.211.135-4.724 19.211-49.498 20.056-98.947 2.589-148.349-1.606-4.546 1.776-9.313 6.599-9.313h-20c-4.822 0-8.205 4.767-6.598 9.313 17.467 49.402 16.622 98.851-2.589 148.349-.587 1.513-.637 3.18-.135 4.724 20.275 62.377 20.28 124.753.025 187.13-.52 1.602-.444 3.335.206 4.889 19.893 47.62 19.306 97.217 2.215 148.406-1.51 4.521 1.876 9.189 6.643 9.189h20c-4.767 0-8.153-4.668-6.644-9.189z" fill="#99c94f"/><path d="m121.877 352c0-27.735-15.67-53.09-40.477-65.493l-31.25-15.625c-6.017-3.008-12.4 3.375-9.391 9.392l15.625 31.25c12.404 24.806 37.758 40.476 65.493 40.476z" fill="#aad667"/><path d="m76.384 311.523-15.625-31.25c-.749-1.498-.915-3.019-.65-4.412l-9.959-4.979c-6.017-3.008-12.4 3.375-9.391 9.391l15.625 31.25c12.404 24.807 37.758 40.477 65.493 40.477 0-.936-.021-1.87-.057-2.8-19.469-5.547-36.112-19.03-45.436-37.677z" fill="#99c94f"/><path d="m121.877 352c0 27.735-15.67 53.09-40.477 65.493l-31.25 15.625c-6.017 3.008-12.4-3.375-9.391-9.391l15.625-31.25c12.404-24.807 37.758-40.477 65.493-40.477z" fill="#aad667"/><path d="m60.759 423.727 15.625-31.25c9.324-18.648 25.966-32.13 45.437-37.677.035-.931.057-1.864.057-2.8-27.735 0-53.09 15.67-65.493 40.477l-15.625 31.25c-3.008 6.017 3.375 12.4 9.391 9.391l9.959-4.979c-.265-1.393-.1-2.914.649-4.412z" fill="#99c94f"/><path d="m214.003 512h-76.014c-4.844 0-8.199-4.794-6.585-9.361 17.46-49.434 16.592-98.867-2.604-148.301-.588-1.513-.638-3.181-.136-4.725 20.286-62.409 20.286-124.817 0-187.226-.502-1.544-.452-3.212.136-4.725 19.196-49.434 20.064-98.867 2.604-148.301-1.614-4.567 1.74-9.361 6.584-9.361h75.781c4.822 0 8.205 4.767 6.598 9.314-17.467 49.402-16.622 98.851 2.589 148.349.587 1.513.637 3.18.135 4.724-20.275 62.377-20.28 124.753-.025 187.13.52 1.602.444 3.335-.206 4.889-19.893 47.62-19.306 97.217-2.215 148.406 1.51 4.52-1.876 9.188-6.642 9.188z" fill="#aad667"/><path d="m151.403 502.639c17.46-49.434 16.592-98.867-2.604-148.301-.588-1.513-.638-3.181-.136-4.725 20.286-62.409 20.286-124.817 0-187.226-.502-1.544-.452-3.212.136-4.725 19.196-49.434 20.064-98.867 2.604-148.301-1.613-4.567 1.741-9.361 6.585-9.361h-20c-4.844 0-8.199 4.794-6.585 9.361 17.46 49.434 16.592 98.867-2.604 148.301-.588 1.513-.638 3.181-.136 4.725 20.286 62.409 20.286 124.817 0 187.226-.502 1.544-.452 3.212.136 4.725 19.196 49.434 20.064 98.867 2.604 148.301-1.613 4.567 1.742 9.361 6.585 9.361h20c-4.844 0-8.198-4.794-6.585-9.361z" fill="#99c94f"/><path d="m224.123 176h-96.245c-8.837 0-16-7.163-16-16 0-8.837 7.163-16 16-16h96.245c8.837 0 16 7.163 16 16 0 8.837-7.164 16-16 16z" fill="#82b339"/><path d="m132.481 160c0-8.837 7.163-16 16-16h-20.604c-8.837 0-16 7.163-16 16s7.163 16 16 16h20.604c-8.836 0-16-7.163-16-16z" fill="#78a635"/><path d="m224.123 368h-96.245c-8.837 0-16-7.163-16-16 0-8.837 7.163-16 16-16h96.245c8.837 0 16 7.163 16 16 0 8.837-7.164 16-16 16z" fill="#82b339"/><path d="m132.481 352c0-8.837 7.163-16 16-16h-20.604c-8.837 0-16 7.163-16 16s7.163 16 16 16h20.604c-8.836 0-16-7.163-16-16z" fill="#78a635"/><path d="m287.877 176h96.245c8.837 0 16-7.163 16-16 0-8.837-7.163-16-16-16h-96.245c-8.837 0-16 7.163-16 16 0 8.837 7.164 16 16 16z" fill="#82b339"/><path d="m292.481 160c0-8.837 7.163-16 16-16h-20.604c-8.837 0-16 7.163-16 16s7.163 16 16 16h20.604c-8.836 0-16-7.163-16-16z" fill="#78a635"/><path d="m287.877 368h96.245c8.837 0 16-7.163 16-16 0-8.837-7.163-16-16-16h-96.245c-8.837 0-16 7.163-16 16 0 8.837 7.164 16 16 16z" fill="#82b339"/><path d="m292.481 352c0-8.837 7.163-16 16-16h-20.604c-8.837 0-16 7.163-16 16s7.163 16 16 16h20.604c-8.836 0-16-7.163-16-16z" fill="#78a635"/></g></svg>