<svg height="512pt" viewBox="0 0 512 512" width="512pt" xmlns="http://www.w3.org/2000/svg"><path d="m0 0h344.578125v466.515625h-344.578125zm0 0" fill="#e0e4fa"/><path d="m172.289062 0h172.289063v466.515625h-172.289063zm0 0" fill="#c4c9f7"/><path d="m418.144531 376.34375c0 66.523438-53.925781 120.449219-120.449219 120.449219-66.523437 0-120.449218-53.925781-120.449218-120.449219s53.925781-120.449219 120.449218-120.449219c66.523438 0 120.449219 53.925781 120.449219 120.449219zm0 0" fill="#fff"/><path d="m418.144531 376.34375c0 66.523438-53.925781 120.449219-120.449219 120.449219v-240.898438c66.523438 0 120.449219 53.925781 120.449219 120.449219zm0 0" fill="#e0e4fa"/><g fill="#0087ff"><path d="m84.644531 79.648438h175.925781v29.984374h-175.925781zm0 0"/><path d="m84.644531 139.941406h175.925781v29.988282h-175.925781zm0 0"/><path d="m84.644531 200.238281h101.429688v29.984375h-101.429688zm0 0"/></g><path d="m297.695312 240.898438c-74.6875 0-135.441406 60.765624-135.441406 135.445312s60.753906 135.441406 135.441406 135.441406c74.679688 0 135.445313-60.761718 135.445313-135.441406s-60.765625-135.445312-135.445313-135.445312zm0 240.902343c-58.144531 0-105.457031-47.3125-105.457031-105.457031s47.3125-105.457031 105.457031-105.457031c58.148438 0 105.457032 47.3125 105.457032 105.457031s-47.308594 105.457031-105.457032 105.457031zm0 0" fill="#ff623f"/><path d="m297.695312 305.023438c-39.324218 0-71.320312 31.996093-71.320312 71.320312s31.996094 71.320312 71.320312 71.320312c39.324219 0 71.320313-31.996093 71.320313-71.320312s-31.996094-71.320312-71.320313-71.320312zm0 112.652343c-22.789062 0-41.332031-18.542969-41.332031-41.332031s18.542969-41.332031 41.332031-41.332031c22.792969 0 41.332032 18.542969 41.332032 41.332031s-18.539063 41.332031-41.332032 41.332031zm0 0" fill="#ff623f"/><path d="m172.289062 200.238281h13.785157v29.984375h-13.785157zm0 0" fill="#4b5be4"/><path d="m172.289062 79.648438h88.28125v29.984374h-88.28125zm0 0" fill="#4b5be4"/><path d="m172.289062 139.941406h88.28125v29.988282h-88.28125zm0 0" fill="#4b5be4"/><path d="m297.695312 447.664062v-29.988281c22.792969 0 41.332032-18.542969 41.332032-41.332031s-18.539063-41.332031-41.332032-41.332031v-29.988281c39.324219 0 71.320313 31.996093 71.320313 71.320312s-31.996094 71.320312-71.320313 71.320312zm0 0" fill="#e70020"/><path d="m433.140625 376.34375c0 74.679688-60.765625 135.441406-135.445313 135.441406v-29.984375c58.148438 0 105.457032-47.3125 105.457032-105.457031s-47.308594-105.457031-105.457032-105.457031v-29.988281c74.679688 0 135.445313 60.765624 135.445313 135.445312zm0 0" fill="#e70020"/><path d="m287.03125 365.824219 122.558594-124.023438 21.332031 21.078125-122.558594 124.023438zm0 0" fill="#fec000"/><path d="m446.265625 160.5625-59.964844 59.964844 11.078125 54.65625 54.65625 11.078125 59.964844-59.964844zm0 0" fill="#4b5be4"/></svg>