<?xml version="1.0" encoding="iso-8859-1"?>
<!-- Generator: Adobe Illustrator 19.0.0, SVG Export Plug-In . SVG Version: 6.00 Build 0)  -->
<svg version="1.1" id="Layer_1" xmlns="http://www.w3.org/2000/svg" xmlns:xlink="http://www.w3.org/1999/xlink" x="0px" y="0px"
	 viewBox="0 0 514.133 514.133" style="enable-background:new 0 0 514.133 514.133;" xml:space="preserve">
<path style="fill:#40596B;" d="M513.067,290.133V220.8L464,200.533c-5.333-19.2-12.8-36.267-22.4-53.333l20.267-49.067L412.8,49.067
	l-49.067,20.267c-16-9.6-34.133-17.067-53.333-22.4L291.2,0h-69.333L201.6,49.067c-19.2,5.333-36.267,12.8-53.333,22.4l-48-21.333
	L51.2,99.2l20.267,49.067c-9.6,16-17.067,34.133-22.4,53.333l-48,20.267V291.2l49.067,20.267c5.333,19.2,12.8,36.267,22.4,53.333
	l-20.267,49.067l49.067,49.067l49.067-20.267c16,9.6,34.133,17.067,53.333,22.4L224,514.133h69.333l20.267-49.067
	c19.2-5.333,36.267-12.8,53.333-22.4L416,462.933l49.067-49.067L444.8,364.8c9.6-16,17.067-34.133,22.4-53.333L513.067,290.133z"/>
<circle style="fill:#FFFFFF;" cx="257.067" cy="256" r="153.6"/>
<path style="fill:#84DBFF;" d="M257.067,129.067V256H384C384,186.667,326.4,129.067,257.067,129.067z"/>
<path style="fill:#F2F2F2;" d="M257.067,256l89.6,89.6C369.067,323.2,384,291.2,384,256L257.067,256L257.067,256z"/>
<path style="fill:#FF7058;" d="M346.667,345.6c-22.4,22.4-54.4,37.333-89.6,37.333s-66.133-13.867-89.6-37.333
	c-22.4-22.4-37.333-54.4-37.333-89.6c0-69.333,56.533-125.867,126.933-125.867V256L346.667,345.6z"/>
<g>
</g>
<g>
</g>
<g>
</g>
<g>
</g>
<g>
</g>
<g>
</g>
<g>
</g>
<g>
</g>
<g>
</g>
<g>
</g>
<g>
</g>
<g>
</g>
<g>
</g>
<g>
</g>
<g>
</g>
</svg>
