<svg id="Capa_1" enable-background="new 0 0 512 512" height="512" viewBox="0 0 512 512" width="512" xmlns="http://www.w3.org/2000/svg"><g><path d="m499.322 216.632c-3.313-10.203-1.211-23.261-7.392-31.754-6.243-8.578-19.353-10.585-27.931-16.828-8.493-6.181-14.42-18.064-24.623-21.377-8.925-2.898-19.402 1.782-29.411 2.683-1.388.125-2.514-1.053-2.447-2.445.021-.435.032-.871.032-1.31 0-15.519-13.485-28.718-18.032-42.721-4.712-14.512-1.723-33.085-10.514-45.164-8.879-12.201-27.526-15.056-39.726-23.936-12.08-8.792-20.51-25.694-35.022-30.406-14.003-4.547-30.693 4.023-46.212 4.023-15.518 0-32.209-8.57-46.211-4.024-14.513 4.713-22.943 21.615-35.023 30.406-12.201 8.879-30.847 11.734-39.727 23.935-8.792 12.08-5.803 30.652-10.515 45.165-4.547 14.003-18.032 27.202-18.032 42.721v.039c.001 2.014-1.818 3.564-3.799 3.197-9.038-1.674-18.162-4.678-26.139-2.088-11.043 3.586-17.457 16.447-26.649 23.136-9.284 6.756-23.472 8.929-30.229 18.212-6.689 9.192-4.415 23.324-8.001 34.367-3.458 10.656-13.719 20.699-13.719 32.508 0 11.808 10.261 21.852 13.72 32.506 3.586 11.043 1.311 25.174 8 34.366 6.756 9.284 20.945 11.456 30.228 18.213 9.192 6.69 15.606 19.551 26.649 23.136 10.655 3.46 23.355-3.061 35.163-3.061s24.508 6.521 35.163 3.062c11.043-3.586 17.457-16.447 26.648-23.136 3.159-2.299 6.885-4.067 10.693-5.765l17.773-10.346c.631-.659 1.22-1.357 1.762-2.101 2.717-3.734 3.956-8.283 4.709-13.108 1.647-10.561 10.025-18.756 20.556-20.593 3.498-.61 7.048-1.412 10.607-2.159 1.952-22.676 90.068 30.223 90.068 30.223 5.986 3.072 12.839 5.299 18.031 9.078 8.493 6.181 14.42 18.065 24.623 21.378 9.845 3.197 21.58-2.829 32.491-2.829s22.645 6.026 32.49 2.829c10.203-3.313 16.13-15.196 24.623-21.377 8.578-6.243 21.688-8.25 27.931-16.828 6.181-8.493 4.08-21.551 7.393-31.754 3.197-9.845 12.678-19.125 12.678-30.036.001-10.912-9.48-20.192-12.677-30.037z" fill="#478089"/><path d="m499.322 216.632c-3.313-10.203-1.211-23.261-7.392-31.754-6.243-8.578-19.353-10.586-27.93-16.828-8.493-6.181-14.42-18.064-24.623-21.378-5.269-1.711-11.079-.78-17.014.454.143.108.286.215.43.32 8.578 6.243 21.688 8.251 27.93 16.828 6.181 8.493 4.079 21.551 7.392 31.754 3.197 9.845 12.678 19.125 12.678 30.036s-9.481 20.191-12.678 30.036c-3.313 10.203-1.212 23.261-7.393 31.754-6.243 8.578-19.353 10.585-27.931 16.828-8.493 6.181-14.42 18.064-24.623 21.377-9.845 3.197-21.579-2.829-32.49-2.829-5.072 0-10.321 1.302-15.477 2.374 8.265 6.262 14.163 17.801 24.193 21.058 9.845 3.197 21.58-2.829 32.491-2.829s22.645 6.026 32.49 2.829c10.203-3.313 16.13-15.196 24.623-21.377 8.578-6.243 21.688-8.25 27.931-16.828 6.181-8.493 4.08-21.551 7.393-31.754 3.197-9.845 12.678-19.125 12.678-30.036 0-10.91-9.481-20.19-12.678-30.035z" fill="#3d6b73"/><path d="m430.462 213.617-106.097 69.162c-3.366 2.194-7.663-.922-6.623-4.803l2.61-9.741c7.214-26.925 17.927-52.787 31.864-76.927l16.728-28.973c2.333-4.041-2.882-8.179-6.287-4.988l-55.166 51.705c-5.747 5.386-14.668 5.454-20.495.155l-57.4-52.193c-2.453 1.145-4.988 2.209-7.445 3.343l33.635 58.258c.908 1.573-.903 3.31-2.436 2.336l-58.702-37.28c-1.607 1.077-3.314 1.957-5.161 2.557-2.375.771-4.86 1.006-7.417.917l37.065 37.065c19.684 19.684 27.372 48.375 20.167 75.265l-7.508 28.022c-1.378 5.145-7.207 7.644-11.884 5.096l-69.22-37.706c-1.402-.764-2.768 1.063-1.639 2.192l62.518 62.517c5.673 5.673 7.889 13.942 5.812 21.691l-11.133 41.547c-4.565 17.037-13.534 32.571-26.006 45.043l-39.705 39.705c-.876.876-.256 2.375.984 2.375h170.893c1.239 0 1.86-1.498.984-2.375l-26.324-26.324c-11.615-11.615-16.151-28.544-11.9-44.411.972-3.627 4.37-6.063 8.117-5.819l5.952.388c2.441.159 4.654-1.428 5.288-3.79l5.348-19.96c.633-2.363-.491-4.844-2.684-5.926l-5.348-2.64c-3.367-1.662-5.092-5.471-4.12-9.098l.426-1.592c6.861-25.607 20.342-48.956 39.088-67.702l104.956-104.956c1.173-1.174-.343-3.043-1.735-2.135z" fill="#9d6b6b"/><path d="m430.462 213.616-106.097 69.162c-3.366 2.194-7.663-.922-6.623-4.803l2.61-9.741c.302-1.127.611-2.252.925-3.375l-35.246 35.246c-18.745 18.745-32.226 42.095-39.088 67.702l-.426 1.592c-.972 3.627.753 7.436 4.12 9.098l5.348 2.64c2.194 1.083 3.317 3.564 2.684 5.926l-5.348 19.96c-.633 2.363-2.847 3.949-5.287 3.79l-5.951-.388c-3.747-.244-7.145 2.192-8.117 5.819-4.251 15.867.285 32.796 11.9 44.411 10.591 10.591 3.09 28.699-11.888 28.699h-75.212l-18.229 18.229c-.876.876-.256 2.375.984 2.375h170.893c1.239 0 1.86-1.499.984-2.375l-26.324-26.324c-11.615-11.615-16.151-28.544-11.9-44.411.972-3.627 4.37-6.063 8.117-5.819l5.951.388c2.441.159 4.654-1.428 5.287-3.79l5.348-19.96c.633-2.363-.491-4.844-2.684-5.926l-5.348-2.64c-3.367-1.662-5.092-5.47-4.12-9.098l.426-1.592c6.861-25.607 20.342-48.956 39.088-67.702l104.956-104.956c1.175-1.175-.341-3.044-1.733-2.137z" fill="#8b5e5e"/><g><g><path d="m183.095 194.88c-4.992 0-9.905-1.05-14.438-2.02-4.178-.893-8.125-1.737-11.659-1.737-3.533 0-7.479.844-11.657 1.737l-1.813.385c-4.184.878-8.273-1.797-9.15-5.973s1.798-8.272 5.973-9.149l1.76-.374c4.779-1.022 9.72-2.078 14.887-2.078 5.168 0 10.11 1.057 14.889 2.078 5.796 1.24 11.27 2.409 15.214 1.128 4.223-1.371 8.023-5.638 12.046-10.156 3.158-3.547 6.425-7.215 10.417-10.12 4.046-2.945 8.582-4.948 12.97-6.885 5.502-2.429 10.699-4.724 13.26-8.242 2.518-3.459 3.102-9.086 3.72-15.043.497-4.792 1.011-9.746 2.572-14.551 1.319-4.058 5.681-6.279 9.734-4.962 4.058 1.318 6.281 5.677 4.962 9.735-1.055 3.251-1.465 7.196-1.898 11.373-.765 7.368-1.632 15.719-6.596 22.541-5.009 6.882-12.714 10.284-19.513 13.286-3.811 1.683-7.41 3.272-10.119 5.242-2.649 1.928-5.233 4.83-7.97 7.903-4.972 5.583-10.608 11.912-18.813 14.576-2.912.947-5.859 1.306-8.778 1.306z" fill="#3d6b73"/></g></g><path d="m257.727 410.988c-.662 0-1.335-.086-2.005-.265-4.122-1.105-6.567-5.341-5.463-9.463l5.751-21.462c8.053-30.059 23.73-57.795 45.334-80.209 2.963-3.072 7.854-3.163 10.926-.201 3.072 2.961 3.162 7.853.201 10.925-19.794 20.536-34.156 45.946-41.535 73.485l-5.75 21.462c-.925 3.452-4.047 5.728-7.459 5.728zm13.717-102.902c5.731-21.389 4.942-43.828-2.284-64.892-1.384-4.037-5.782-6.184-9.815-4.801-4.036 1.385-6.186 5.779-4.801 9.815 6.224 18.145 6.906 37.468 1.974 55.879-1.105 4.122 1.341 8.358 5.463 9.463.67.179 1.343.265 2.005.265 3.411-.001 6.533-2.277 7.458-5.729zm-66.072 181.691c15.74-16.288 27.158-36.459 33.018-58.332 1.105-4.122-1.341-8.358-5.463-9.463-4.123-1.104-8.359 1.342-9.463 5.464-5.184 19.345-15.283 37.186-29.205 51.593-2.965 3.068-2.881 7.96.187 10.925 1.5 1.45 3.436 2.171 5.368 2.171 2.023-.001 4.042-.79 5.558-2.358z" fill="#8b5e5e"/><g fill="#785252"><path d="m255.691 380.99.295.146c2.194 1.083 3.317 3.564 2.684 5.926l-5.348 19.96c-.184.688-.503 1.31-.922 1.842.905.861 2.031 1.514 3.322 1.86.67.18 1.343.265 2.005.265 3.411 0 6.533-2.277 7.458-5.729l5.75-21.462c7.379-27.539 21.741-52.949 41.535-73.485 2.961-3.072 2.871-7.963-.201-10.925-3.071-2.962-7.963-2.871-10.926.201-21.604 22.414-37.281 50.15-45.334 80.209z"/><path d="m232.928 421.982c-.037-.01-.073-.019-.11-.028-.961 7.07-.253 14.199 1.979 20.84 1.364-3.723 2.565-7.509 3.594-11.349 1.104-4.122-1.342-8.358-5.463-9.463z"/><path d="m205.372 489.777c.136-.141.271-.283.407-.424h-11.9c.176.211.365.415.568.611 1.5 1.45 3.436 2.171 5.368 2.171 2.022-.001 4.041-.79 5.557-2.358z"/></g></g></svg>