<svg id="Capa_1" enable-background="new 0 0 484.367 484.367" height="512" viewBox="0 0 484.367 484.367" width="512" xmlns="http://www.w3.org/2000/svg"><g><circle cx="170.28" cy="170.281" fill="#62667c" r="170.28"/><path d="m270.824 270.823c-55.525 55.525-145.549 55.526-201.074.001s-55.526-145.549-.001-201.074 145.549-55.526 201.074-.001c0 0 0 0 .001.001 55.426 55.565 55.426 145.508 0 201.073z" fill="#69b0ee"/><path d="m272.768 271.936h68.29v69.962h-68.29z" fill="#62667c" transform="matrix(.707 -.707 .707 .707 -127.13 306.914)"/><path d="m468.618 468.618c-20.99 20.994-55.024 20.998-76.019.008-.892-.892-1.752-1.815-2.579-2.767l-113.024-130.094c-1.576-1.814-1.48-4.538.219-6.238l52.312-52.312c1.7-1.699 4.423-1.794 6.238-.219l130.101 113.03c22.411 19.47 24.796 53.421 5.326 75.832-.825.95-1.684 1.871-2.574 2.76z" fill="#f6b863"/><path d="m274.037 187.47v-34.373l-25.288-5.369c-1.687-5.909-4.054-11.602-7.053-16.965l14.106-21.684-24.313-24.313-21.684 14.106c-5.358-3.002-11.053-5.359-16.965-7.023l-5.369-25.317h-34.373l-5.369 25.288c-5.909 1.687-11.602 4.054-16.965 7.053l-21.684-14.106-24.313 24.313 14.106 21.684c-2.999 5.363-5.366 11.056-7.053 16.965l-25.288 5.369v34.373l25.317 5.369c1.664 5.912 4.022 11.607 7.023 16.965l-14.106 21.684 24.313 24.313 21.684-14.106c5.363 2.999 11.056 5.366 16.965 7.053l5.369 25.288h34.373l5.369-25.317c5.908-1.677 11.601-4.034 16.965-7.023l21.684 14.106 24.313-24.313-14.106-21.684c2.99-5.364 5.346-11.057 7.023-16.965zm-103.738 27.538c-24.712.02-44.761-19.998-44.781-44.71s19.998-44.761 44.71-44.781 44.761 19.998 44.781 44.71v.041c-.007 24.696-20.016 44.718-44.71 44.74z" fill="#eeefee"/></g></svg>