<?xml version="1.0" encoding="iso-8859-1"?>
<!-- Generator: Adobe Illustrator 19.0.0, SVG Export Plug-In . SVG Version: 6.00 Build 0)  -->
<svg version="1.1" id="Capa_1" xmlns="http://www.w3.org/2000/svg" xmlns:xlink="http://www.w3.org/1999/xlink" x="0px" y="0px"
	 viewBox="0 0 512 512" style="enable-background:new 0 0 512 512;" xml:space="preserve">
<path style="fill:#FFDA45;" d="M375.404,512h-238.81c-50.097,0-90.709-40.612-90.709-90.709V178.04
	c0-50.097,40.612-90.709,90.709-90.709h238.811c50.097,0,90.709,40.612,90.709,90.709v243.251
	C466.113,471.388,425.502,512,375.404,512z"/>
<path style="fill:#FFBC36;" d="M375.404,512H255.999c0-64.425,0-377.319,0-424.669h119.405c50.097,0,90.709,40.612,90.709,90.709
	v243.251C466.113,471.388,425.502,512,375.404,512z"/>
<rect x="104.099" style="fill:#636978;" width="303.79" height="87.33"/>
<rect x="255.999" style="fill:#555A66;" width="151.9" height="87.33"/>
<rect x="45.885" y="197.59" style="fill:#E9EDF5;" width="420.23" height="204.16"/>
<rect x="255.999" y="197.59" style="fill:#DCE1EB;" width="210.11" height="204.16"/>
<polygon style="fill:#F92814;" points="264.697,360.367 237.082,348.645 251.505,314.665 215.167,314.665 247.301,238.964 
	274.916,250.686 260.493,284.665 296.831,284.665 "/>
<g>
</g>
<g>
</g>
<g>
</g>
<g>
</g>
<g>
</g>
<g>
</g>
<g>
</g>
<g>
</g>
<g>
</g>
<g>
</g>
<g>
</g>
<g>
</g>
<g>
</g>
<g>
</g>
<g>
</g>
</svg>
