<svg id="Capa_1" enable-background="new 0 0 504.72 504.72" height="512" viewBox="0 0 504.72 504.72" width="512" xmlns="http://www.w3.org/2000/svg"><g><circle cx="252.36" cy="252.36" fill="#3e6b82" r="252.36"/><circle cx="252.36" cy="252.36" fill="#e1e6e9" r="216.14"/><g fill="#3e6b82"><path d="m248.189 48.205h8.341v19.222h-8.341z"/><path d="m248.189 437.293h8.341v19.222h-8.341z"/><path d="m437.293 248.189h19.222v8.341h-19.222z"/><path d="m48.205 248.189h19.222v8.341h-19.222z"/><path d="m380.315 110.628h19.222v8.341h-19.222z" transform="matrix(.707 -.707 .707 .707 33.032 309.343)"/><path d="m105.184 385.751h19.222v8.341h-19.222z" transform="matrix(.707 -.707 .707 .707 -242.093 195.378)"/><path d="m385.749 380.312h8.341v19.222h-8.341z" transform="matrix(.707 -.707 .707 .707 -161.512 389.921)"/><path d="m110.626 105.186h8.341v19.222h-8.341z" transform="matrix(.707 -.707 .707 .707 -47.551 114.797)"/><path d="m263.866 279.635h-23.012l4.078-187.424h14.856z"/><path d="m225.433 263.866v-23.012l164.319 4.078v14.856z"/></g><path d="m107.817 310.844h167.381v4.736h-167.381z" fill="#fe7058" transform="matrix(.707 -.707 .707 .707 -165.384 227.154)"/><circle cx="252.36" cy="252.36" fill="#3a556a" r="17.232"/></g></svg>