<svg height="512pt" viewBox="-91 0 512 512" width="512pt" xmlns="http://www.w3.org/2000/svg"><path d="m327.894531 134.308594v-.007813c-4.992187-36.761719-17.941406-66.589843-38.492187-88.679687-28.167969-30.269532-70.027344-45.621094-124.410156-45.621094-54.378907 0-96.230469 15.351562-124.410157 45.621094-20.539062 22.078125-33.488281 51.917968-38.488281 88.679687-3.921875 28.890625-2.332031 59.910157 4.730469 92.199219 14.929687 68.390625 40.769531 132.921875 76.800781 191.800781 28.808594 47.078125 55.976562 76.789063 66.347656 87.398438 3.921875 4 9.402344 6.300781 15.019532 6.300781h.019531c5.632812-.011719 11.101562-2.308594 15.011719-6.320312 10.351562-10.589844 37.53125-40.308594 66.328124-87.378907 36.03125-58.878906 61.871094-123.410156 76.800782-191.800781 7.070312-32.269531 8.660156-63.289062 4.742187-92.191406zm-162.902343 118.152344c-41.5 0-75.25-33.699219-75.25-75.121094 0-41.429688 33.75-75.128906 75.25-75.128906s75.25 33.699218 75.25 75.128906c0 41.421875-33.75 75.121094-75.25 75.121094zm0 0" fill="#ff771a"/><path d="m323.152344 226.5c-14.929688 68.390625-40.769532 132.921875-76.800782 191.800781-28.796874 47.070313-55.976562 76.789063-66.328124 87.378907-3.910157 4.011718-9.378907 6.308593-15.011719 6.320312h-.019531v-259.539062c41.5 0 75.25-33.699219 75.25-75.121094 0-41.429688-33.75-75.128906-75.25-75.128906v-102.210938c54.382812 0 96.242187 15.351562 124.410156 45.621094 20.550781 22.089844 33.5 51.917968 38.492187 88.679687v.007813c3.917969 28.902344 2.328125 59.921875-4.742187 92.191406zm0 0" fill="#ff4a05"/></svg>