<svg id="Capa_1" enable-background="new 0 0 512 512" height="512" viewBox="0 0 512 512" width="512" xmlns="http://www.w3.org/2000/svg"><g><g><path d="m512 310.53c0 99.4-80.87 180.27-180.28 180.27-26.3 0-52.15-5.78-75.72-16.68-10.51-4.86-20.56-10.73-30-17.57-24.4 18.52-54.17 28.59-85.1 28.59-77.69 0-140.9-63.21-140.9-140.91 0-27 7.66-53.24 22.16-75.88 11.66-18.21 27.27-33.42 45.6-44.57-4.61-14.91-6.95-30.39-6.95-46.2 0-86.23 70.16-156.38 156.39-156.38 2.95 0 5.88.08 8.8.25 10.25.57 20.29 2.15 30 4.63 52.64 13.5 95.62 53.89 111.35 107.71 38.66 7.77 73.91 28.16 100.11 58.11 28.72 32.83 44.54 74.96 44.54 118.63z" fill="#eef4ff"/></g><path d="m512 310.53c0 99.4-80.87 180.27-180.28 180.27-26.3 0-52.15-5.78-75.72-16.68-10.51-4.86-20.56-10.73-30-17.57v-435.1c10.25.57 20.29 2.15 30 4.63 52.64 13.5 95.62 53.89 111.35 107.71 38.66 7.77 73.91 28.16 100.11 58.11 28.72 32.83 44.54 74.96 44.54 118.63z" fill="#d9e6fc"/><circle cx="226" cy="269.006" fill="#f6e486" r="84.108"/><path d="m310.108 269.006c0 46.452-37.656 84.108-84.108 84.108v-168.216c46.452 0 84.108 37.657 84.108 84.108z" fill="#f0ce46"/></g></svg>