<svg id="Layer_1" enable-background="new 0 0 48 48" height="512" viewBox="0 0 48 48" width="512" xmlns="http://www.w3.org/2000/svg"><path d="m29 6h-10c-1.654 0-3 1.346-3 3v2h2v-2c0-.551.449-1 1-1h10c.551 0 1 .449 1 1v2h2v-2c0-1.654-1.346-3-3-3z" fill="#8e8e93"/><path d="m9 11h30v8h-30z" fill="#f6695e"/><path d="m45 19h-6v-8h4c1.105 0 2 .895 2 2z" fill="#f44336"/><path d="m39 19h6v22h-6z" fill="#e53935"/><path d="m3 19h6v-8h-4c-1.105 0-2 .895-2 2z" fill="#f44336"/><path d="m3 19h6v22h-6z" fill="#e53935" transform="matrix(-1 0 0 -1 12 60)"/><path d="m9 19h30v22h-30z" fill="#f44336"/><path d="m36 22h-2c-.552 0-1-.448-1-1v-2c0-.552.448-1 1-1h2c.552 0 1 .448 1 1v2c0 .552-.448 1-1 1z" fill="#e04931"/><path d="m36 21h-2c-.552 0-1-.448-1-1v-3c0-.552.448-1 1-1h2c.552 0 1 .448 1 1v3c0 .552-.448 1-1 1z" fill="#dfe9e9"/><circle cx="24" cy="30" fill="#fff" r="6"/><path d="m23 26h2v8h-2z" fill="#f44336" transform="matrix(0 1 -1 0 54 6)"/><path d="m23 26h2v8h-2z" fill="#f44336" transform="matrix(-1 0 0 -1 48 60)"/><path d="m34 18h2v1h-2z" fill="#959f9f"/><path d="m14 22h-2c-.552 0-1-.448-1-1v-2c0-.552.448-1 1-1h2c.552 0 1 .448 1 1v2c0 .552-.448 1-1 1z" fill="#e04931"/><path d="m14 21h-2c-.552 0-1-.448-1-1v-3c0-.552.448-1 1-1h2c.552 0 1 .448 1 1v3c0 .552-.448 1-1 1z" fill="#dfe9e9"/><path d="m12 18h2v1h-2z" fill="#959f9f"/></svg>