<svg id="Capa_1" enable-background="new 0 0 512 512" height="512" viewBox="0 0 512 512" width="512" xmlns="http://www.w3.org/2000/svg"><g><path d="m389.01 144.27v259.34h-232.09l-92.08 54.07v-54.07h-64.84v-259.34z" fill="#eff4f9"/><path d="m194.51 144.27h194.5v259.34h-194.5z" fill="#d8e5ef"/><path d="m60.25 228.81h246.15v30h-246.15z" fill="#54528e"/><path d="m194.51 228.81h111.89v30h-111.89z" fill="#443c67"/><path d="m271 289.06-23.72 30h-187.03v-30z" fill="#54528e"/><path d="m271 289.06-23.72 30h-52.77v-30z" fill="#443c67"/><g><path d="m327.8 284.37-34.67 34.67h-45.85v-45.84l34.67-34.68 27.9 17.95z" fill="#ffe127"/><path d="m327.8 284.37-34.67 34.67h-45.85l62.57-62.57z" fill="#ffbf2d"/><path d="m266.726 136.924h260.498v64.842h-260.498z" fill="#ffbf2d" transform="matrix(.707 -.707 .707 .707 -3.474 330.304)"/><path d="m278.191 164.603h260.498v32.414h-260.498z" fill="#ffa032" transform="matrix(.707 -.707 .707 .707 -8.223 341.769)"/></g></g></svg>