<?xml version="1.0" encoding="iso-8859-1"?>
<!-- Generator: Adobe Illustrator 19.0.0, SVG Export Plug-In . SVG Version: 6.00 Build 0)  -->
<svg xmlns="http://www.w3.org/2000/svg" xmlns:xlink="http://www.w3.org/1999/xlink" version="1.1" id="Layer_1" x="0px" y="0px" viewBox="0 0 513.094 513.094" style="enable-background:new 0 0 513.094 513.094;" xml:space="preserve">
<g>
	<circle style="fill:#4EC0AA;" cx="395.509" cy="259.227" r="82.133"/>
	<circle style="fill:#4EC0AA;" cx="445.642" cy="355.227" r="67.2"/>
	<circle style="fill:#4EC0AA;" cx="331.509" cy="355.227" r="77.867"/>
</g>
<path style="fill:#344A5E;" d="M437.109,316.827c0,0-21.333,26.667-36.267,68.267l-13.867-120.533l-9.6,81.067l-34.133-42.667  l30.933,70.4l-11.733,138.667h50.133l-6.4-78.933C408.309,405.361,414.709,354.161,437.109,316.827z"/>
<path style="fill:#4EC0AA;" d="M512.842,512.027v-36.267c-33.067-8.533-73.6-12.8-117.333-12.8c-89.6,0-166.4,21.333-194.133,50.133  h311.467V512.027z"/>
<path style="fill:#66C6B9;" d="M345.375,253.894c0,59.733-49.067,108.8-108.8,108.8c-24.533,0-48-8.533-66.133-22.4  c-14.933,11.733-35.2,20.267-56.533,22.4c-56.533,6.4-106.667-28.8-113.067-77.867c-4.267-35.2,14.933-67.2,46.933-86.4  c-6.4-23.467-7.467-50.133-2.133-76.8c16-78.933,83.2-133.333,151.467-119.467c65.067,12.8,106.667,83.2,94.933,158.933  C324.042,180.294,345.375,214.427,345.375,253.894z"/>
<path style="fill:#415A6B;" d="M236.575,186.694c-21.333,29.867-39.467,65.067-52.267,100.267  c-1.067-61.867,1.067-122.667,8.533-179.2c-19.2,61.867-30.933,129.067-36.267,198.4c-19.2-25.6-36.267-55.467-48-83.2  c7.467,39.467,25.6,78.933,45.867,110.933c-4.267,59.733-4.267,119.467,0,178.133h50.133c-4.267-24.533-7.467-50.133-10.667-75.733  c-8.533-72.533,1.067-146.133,27.733-214.4C226.975,210.161,231.242,197.361,236.575,186.694z"/>
<g>
	<path style="fill:#66C6B9;" d="M110.709,512.027c-1.067-29.867-24.533-54.4-55.467-54.4s-53.333,24.533-54.4,54.4H110.709z"/>
	<path style="fill:#66C6B9;" d="M192.842,512.027c3.2-7.467,5.333-16,5.333-25.6c0-36.267-29.867-66.133-66.133-66.133   s-66.133,29.867-66.133,66.133c0,8.533,2.133,17.067,5.333,25.6H192.842z"/>
	<path style="fill:#66C6B9;" d="M290.975,512.027c-13.867-24.533-40.533-40.533-70.4-40.533s-55.467,16-70.4,40.533H290.975z"/>
</g>
<g>
</g>
<g>
</g>
<g>
</g>
<g>
</g>
<g>
</g>
<g>
</g>
<g>
</g>
<g>
</g>
<g>
</g>
<g>
</g>
<g>
</g>
<g>
</g>
<g>
</g>
<g>
</g>
<g>
</g>
</svg>
