<?xml version="1.0" encoding="iso-8859-1"?>
<!-- Generator: Adobe Illustrator 19.0.0, SVG Export Plug-In . SVG Version: 6.00 Build 0)  -->
<svg xmlns="http://www.w3.org/2000/svg" xmlns:xlink="http://www.w3.org/1999/xlink" version="1.1" id="Layer_1" x="0px" y="0px" viewBox="0 0 512 512" style="enable-background:new 0 0 512 512;" xml:space="preserve">
<path style="fill:#5C5F66;" d="M136,466.065c-24.814,0-45-20.186-45-45v-120c0-8.291,6.709-15,15-15h60c8.291,0,15,6.709,15,15v120  C181,445.879,160.814,466.065,136,466.065z"/>
<path style="fill:#53565C;" d="M166,286.065h-30v180c24.814,0,45-20.186,45-45v-120C181,292.774,174.291,286.065,166,286.065z"/>
<path style="fill:#5C5F66;" d="M76,166.065H46c-24.901,0-46,20.099-46,45v30c0,24.899,21.099,45,46,45h30c8.401,0,15-6.601,15-15  v-90C91,172.664,84.401,166.065,76,166.065z"/>
<path style="fill:#53565C;" d="M91,226.065v45c0,8.399-6.599,15-15,15H46c-24.901,0-46-20.101-46-45v-15H91z"/>
<path style="fill:#F55C4A;" d="M181,136.065h-75c-24.901,0-45,20.099-45,45v90c0,24.899,20.099,45,45,45h75l30-30v-120L181,136.065z  "/>
<path style="fill:#E35043;" d="M211,226.065v60l-30,30h-75c-24.901,0-45-20.101-45-45v-45H211z"/>
<path style="fill:#F23051;" d="M512,211.065v30c0,24.899-20.099,45-45,45h-31c-8.401,0-15-6.601-15-15v-90c0-8.401,6.599-15,15-15  h31C491.901,166.065,512,186.164,512,211.065z"/>
<path style="fill:#D92C48;" d="M512,226.065v15c0,24.899-20.099,45-45,45h-31c-8.401,0-15-6.601-15-15v-45H512z"/>
<path style="fill:#FCB33B;" d="M451,90.765v270.899c0,40.501-48.3,59.101-76.8,31.501c-51.301-49.801-120.901-77.1-193.2-77.1v-180  c72.599,0,142.5-27.601,193.2-77.1C402.7,31.365,451,50.265,451,90.765z"/>
<path style="fill:#F69838;" d="M451,226.065v135.599c0,40.501-48.3,59.101-76.8,31.501c-51.301-49.801-120.901-77.1-193.2-77.1v-90  H451z"/>
<g>
</g>
<g>
</g>
<g>
</g>
<g>
</g>
<g>
</g>
<g>
</g>
<g>
</g>
<g>
</g>
<g>
</g>
<g>
</g>
<g>
</g>
<g>
</g>
<g>
</g>
<g>
</g>
<g>
</g>
</svg>
