<svg id="Rainbow" enable-background="new 0 0 512 512" height="512" viewBox="0 0 512 512" width="512" xmlns="http://www.w3.org/2000/svg"><g><g><path d="m256 141c-105.323 0-190.841 84.8-192 189.849-.013 1.191.959 2.163 2.149 2.163h25.269c0-90.896 73.686-164.582 164.582-164.582s164.582 73.686 164.582 164.582h25.269c1.191 0 2.162-.972 2.149-2.163-1.159-105.049-86.677-189.849-192-189.849z" fill="#f55"/><path d="m256 168.43c-90.896 0-164.582 73.686-164.582 164.582h27.43c0-75.747 61.405-137.151 137.151-137.151s137.151 61.405 137.151 137.151h27.43c.002-90.896-73.684-164.582-164.58-164.582z" fill="#ffe757"/><path d="m256 195.861c-75.747 0-137.151 61.405-137.151 137.151h27.43c0-60.597 49.124-109.721 109.721-109.721s109.721 49.124 109.721 109.721h27.43c0-75.747-61.404-137.151-137.151-137.151z" fill="#86db4f"/><path d="m256 223.291c-60.597 0-109.721 49.124-109.721 109.721h27.43c0-45.448 36.843-82.291 82.291-82.291s82.291 36.843 82.291 82.291h27.43c0-60.597-49.124-109.721-109.721-109.721z" fill="#508ed8"/><path d="m256 250.721c-45.448 0-82.291 36.843-82.291 82.291h25.329c1.141 0 2.096-.895 2.138-2.035 1.071-29.356 25.206-52.825 54.823-52.825s53.753 23.47 54.823 52.825c.042 1.141.997 2.035 2.138 2.035h25.329c.002-45.448-36.841-82.291-82.289-82.291z" fill="#3f72a5"/></g><path d="m256 141c-19.065 0-37.476 2.792-54.861 7.967 15.828 4.711 30.805 11.395 44.633 19.789 3.384-.208 6.792-.326 10.228-.326 90.896 0 164.582 73.686 164.582 164.582h25.269c1.191 0 2.162-.972 2.149-2.163-1.159-105.049-86.677-189.849-192-189.849z" fill="#e54e4e"/><path d="m256 168.43c-3.436 0-6.844.118-10.228.326 13.767 8.357 26.391 18.405 37.605 29.841 62.628 12.688 109.774 68.044 109.774 134.415h27.43c.001-90.896-73.685-164.582-164.581-164.582z" fill="#e5cc51"/><path d="m283.377 198.596c12.082 12.321 22.514 26.262 30.944 41.47 30.875 19.415 51.4 53.781 51.4 92.945h27.43c0-66.37-47.145-121.727-109.774-134.415z" fill="#76bf47"/><path d="m314.321 240.066c15.266 27.542 23.969 59.225 23.969 92.945h27.43c.001-39.164-20.523-73.53-51.399-92.945z" fill="#4882bc"/></g></svg>