<?xml version="1.0" encoding="iso-8859-1"?>
<!-- Generator: Adobe Illustrator 19.0.0, SVG Export Plug-In . SVG Version: 6.00 Build 0)  -->
<svg version="1.1" id="Capa_1" xmlns="http://www.w3.org/2000/svg" xmlns:xlink="http://www.w3.org/1999/xlink" x="0px" y="0px"
	 viewBox="0 0 512 512" style="enable-background:new 0 0 512 512;" xml:space="preserve">
<path style="fill:#BFFB32;" d="M463.324,322.064H48.676c-8.656,0-15.673-7.018-15.673-15.673v-73.713
	c0-8.656,7.018-15.673,15.673-15.673h414.649c8.656,0,15.673,7.018,15.673,15.673v73.713
	C478.998,315.046,471.98,322.064,463.324,322.064z"/>
<path style="fill:#8CDC52;" d="M463.324,217.003H256v105.06h207.324c8.656,0,15.673-7.018,15.673-15.673v-73.713
	C478.998,224.021,471.98,217.003,463.324,217.003z"/>
<path style="fill:#BD6F06;" d="M463.324,395.776H48.676c-8.656,0-15.673-7.018-15.673-15.673V306.39h445.996v73.712
	C478.998,388.758,471.98,395.776,463.324,395.776z"/>
<g>
	<path style="fill:#FFE475;" d="M496.327,248.35H15.673C7.018,248.35,0,241.333,0,232.677c0-39.008,28.607-87.227,74.658-125.838
		C126.585,63.3,190.987,39.322,256,39.322S385.415,63.3,437.342,106.839C483.393,145.45,512,193.669,512,232.677
		C512,241.333,504.982,248.35,496.327,248.35z"/>
	<path style="fill:#FFE475;" d="M455.382,472.678H56.618C25.398,472.678,0,447.281,0,416.062v-35.959
		c0-8.656,7.018-15.673,15.673-15.673h480.653c8.656,0,15.673,7.018,15.673,15.673v35.959
		C512,447.281,486.602,472.678,455.382,472.678z"/>
</g>
<path style="fill:#8F4F0B;" d="M256,395.776h207.324c8.656,0,15.673-7.018,15.673-15.673V306.39H256V395.776z"/>
<rect x="33.002" y="290.722" style="fill:#FF5957;" width="445.994" height="31.347"/>
<rect x="256" y="290.722" style="fill:#FC1B5B;" width="223.002" height="31.347"/>
<g>
	<path style="fill:#FFB726;" d="M496.327,364.429H256v108.249h199.382c31.219,0,56.618-25.398,56.618-56.617v-35.959
		C512,371.447,504.982,364.429,496.327,364.429z"/>
	<path style="fill:#FFB726;" d="M496.327,248.35c8.656,0,15.673-7.018,15.673-15.673c0-39.008-28.607-87.227-74.658-125.838
		C385.415,63.3,321.012,39.322,256,39.322V248.35H496.327z"/>
</g>
<g>
	<path style="fill:#FC8B25;" d="M362.32,150.409c8.198,0,16.053-7.209,15.673-15.673c-0.38-8.492-6.887-15.673-15.673-15.673
		c-8.198,0-16.053,7.209-15.673,15.673C347.027,143.227,353.534,150.409,362.32,150.409L362.32,150.409z"/>
	<path style="fill:#FC8B25;" d="M325.64,196.722c8.198,0,16.053-7.209,15.673-15.673c-0.38-8.492-6.887-15.673-15.673-15.673
		c-8.198,0-16.053,7.209-15.673,15.673C310.347,189.54,316.853,196.722,325.64,196.722L325.64,196.722z"/>
	<path style="fill:#FC8B25;" d="M399.002,196.722c8.198,0,16.053-7.209,15.673-15.673c-0.38-8.492-6.887-15.673-15.673-15.673
		c-8.198,0-16.053,7.209-15.673,15.673C383.708,189.54,390.214,196.722,399.002,196.722L399.002,196.722z"/>
</g>
<g>
</g>
<g>
</g>
<g>
</g>
<g>
</g>
<g>
</g>
<g>
</g>
<g>
</g>
<g>
</g>
<g>
</g>
<g>
</g>
<g>
</g>
<g>
</g>
<g>
</g>
<g>
</g>
<g>
</g>
</svg>
