<?xml version="1.0" encoding="iso-8859-1"?>
<!-- Generator: Adobe Illustrator 19.0.0, SVG Export Plug-In . SVG Version: 6.00 Build 0)  -->
<svg version="1.1" id="Capa_1" xmlns="http://www.w3.org/2000/svg" xmlns:xlink="http://www.w3.org/1999/xlink" x="0px" y="0px"
	 viewBox="0 0 512 512" style="enable-background:new 0 0 512 512;" xml:space="preserve">
<path style="fill:#E5EBF6;" d="M309.218,148.32V88.394H202.782v59.926c0,12.678-9.133,23.514-21.628,25.66l-85.666,14.713
	c-12.275,2.108-21.246,12.752-21.246,25.206v272.526c0,14.125,11.45,25.575,25.575,25.575h312.366
	c14.125,0,25.575-11.45,25.575-25.575V213.899c0-12.454-8.971-23.098-21.246-25.206l-85.666-14.713
	C318.351,171.833,309.218,160.998,309.218,148.32z"/>
<path style="fill:#D1DCED;" d="M416.512,188.693l-85.666-14.713c-12.496-2.146-21.628-12.981-21.628-25.66V88.394h-47.867v80.399
	c0,12.679,9.133,23.514,21.628,25.66l85.666,14.713c12.275,2.108,21.246,12.752,21.246,25.206v272.526
	c0,1.747-0.176,3.453-0.51,5.102h22.802c14.125,0,25.575-11.45,25.575-25.575V213.899
	C437.758,201.445,428.787,190.801,416.512,188.693z"/>
<path style="fill:#EDF7F6;" d="M108.123,467.668V231.351c0-5.772,4.679-10.45,10.45-10.45h274.853c5.772,0,10.45,4.679,10.45,10.45
	v236.317c0,5.772-4.679,10.45-10.45,10.45H118.574C112.802,478.118,108.123,473.439,108.123,467.668z"/>
<path style="fill:#FFBF14;" d="M281.575,176.787h-51.151c-6.983,0-12.645-5.661-12.645-12.645V58.182h76.44v105.961
	C294.22,171.126,288.559,176.787,281.575,176.787z"/>
<path style="fill:#F2AA0A;" d="M245.931,58.182v108.924c0,5.347-4.335,9.681-9.682,9.681h45.326c6.983,0,12.645-5.661,12.645-12.645
	V58.182H245.931z"/>
<path style="fill:#E5EBF6;" d="M314.135,118.029h-116.27c-5.703,0-10.326-4.623-10.326-10.326v-8.811
	c0-5.703,4.623-10.326,10.326-10.326h116.271c5.703,0,10.326,4.623,10.326,10.326v8.811
	C324.462,113.405,319.838,118.029,314.135,118.029z"/>
<path style="fill:#D1DCED;" d="M314.135,88.566h-37.963v29.463h37.963c5.703,0,10.326-4.623,10.326-10.326v-8.81
	C324.462,93.189,319.838,88.566,314.135,88.566z"/>
<path style="fill:#FFBF14;" d="M341.858,88.307H170.142c-9.019,0-16.33-7.311-16.33-16.33V16.33c0-9.019,7.311-16.33,16.33-16.33
	h171.717c9.019,0,16.33,7.311,16.33,16.33v55.647C358.188,80.996,350.877,88.307,341.858,88.307z"/>
<path style="fill:#F2AA0A;" d="M341.858,0h-39.664c4.421,0,8.005,3.584,8.005,8.005v72.297c0,4.421-3.584,8.005-8.005,8.005h39.664
	c9.019,0,16.33-7.311,16.33-16.33V16.33C358.188,7.311,350.877,0,341.858,0z"/>
<path style="fill:#DCEAE8;" d="M393.426,220.9h-7.394c2.445,3.937,3.859,8.558,3.859,13.472v243.746h3.535
	c5.772,0,10.45-4.679,10.45-10.45V231.351C403.876,225.579,399.198,220.9,393.426,220.9z"/>
<path style="fill:#FDA061;" d="M108.123,285.144v182.523c0,5.772,4.679,10.45,10.45,10.45h274.853c5.771,0,10.45-4.679,10.45-10.45
	V285.144H108.123z"/>
<path style="fill:#EF9152;" d="M389.891,478.118h3.535c3.968,0,7.419-2.211,9.189-5.469c0.483-0.888,0.84-1.855,1.049-2.875
	c0.07-0.34,0.123-0.686,0.158-1.038c0.036-0.351,0.054-0.708,0.054-1.069V285.144H389.89v192.974H389.891z"/>
<g>
</g>
<g>
</g>
<g>
</g>
<g>
</g>
<g>
</g>
<g>
</g>
<g>
</g>
<g>
</g>
<g>
</g>
<g>
</g>
<g>
</g>
<g>
</g>
<g>
</g>
<g>
</g>
<g>
</g>
</svg>
