<?xml version="1.0" encoding="iso-8859-1"?>
<!-- Generator: Adobe Illustrator 19.0.0, SVG Export Plug-In . SVG Version: 6.00 Build 0)  -->
<svg version="1.1" id="Capa_1" xmlns="http://www.w3.org/2000/svg" xmlns:xlink="http://www.w3.org/1999/xlink" x="0px" y="0px"
	 viewBox="0 0 512 512" style="enable-background:new 0 0 512 512;" xml:space="preserve">
<path style="fill:#BD6F06;" d="M220.112,512H62.724c-8.348,0-15.115-6.768-15.115-15.115V215.592
	c0-32.23,17.351-61.398,44.966-76.878V15.115C92.575,6.768,99.342,0,107.69,0h67.455c8.348,0,15.115,6.768,15.115,15.115v123.6
	c27.615,15.479,44.967,44.647,44.967,76.878v281.292C235.227,505.232,228.461,512,220.112,512z"/>
<path style="fill:#8CDC52;" d="M220.112,401.663H62.724c-8.348,0-15.115-6.768-15.115-15.115V268.655
	c0-8.348,6.768-15.115,15.115-15.115h157.388c8.348,0,15.115,6.768,15.115,15.115v117.893
	C235.227,394.895,228.461,401.663,220.112,401.663z"/>
<path style="fill:#8F4F0B;" d="M190.261,138.715v-123.6C190.261,6.768,183.494,0,175.146,0h-33.727v512h78.694
	c8.348,0,15.115-6.768,15.115-15.115V215.592C235.227,183.363,217.876,154.194,190.261,138.715z"/>
<path style="fill:#5DC378;" d="M220.112,253.54h-78.694v148.123h78.694c8.348,0,15.115-6.768,15.115-15.115V268.655
	C235.227,260.307,228.461,253.54,220.112,253.54z"/>
<path style="fill:#BD6F06;" d="M449.276,512H291.888c-8.348,0-15.115-6.768-15.115-15.115V215.592
	c0-32.23,17.351-61.398,44.966-76.878V15.115C321.739,6.768,328.506,0,336.854,0h67.455c8.348,0,15.115,6.768,15.115,15.115v123.6
	c27.615,15.479,44.967,44.647,44.967,76.878v281.292C464.391,505.232,457.623,512,449.276,512z"/>
<path style="fill:#8CDC52;" d="M449.276,401.663H291.888c-8.348,0-15.115-6.768-15.115-15.115V268.655
	c0-8.348,6.768-15.115,15.115-15.115h157.388c8.348,0,15.115,6.768,15.115,15.115v117.893
	C464.391,394.895,457.623,401.663,449.276,401.663z"/>
<path style="fill:#8F4F0B;" d="M419.424,138.715v-123.6C419.424,6.768,412.657,0,404.309,0h-33.727v512h78.694
	c8.348,0,15.115-6.768,15.115-15.115V215.592C464.391,183.363,447.04,154.194,419.424,138.715z"/>
<path style="fill:#5DC378;" d="M449.276,253.54h-78.694v148.123h78.694c8.348,0,15.115-6.768,15.115-15.115V268.655
	C464.391,260.307,457.623,253.54,449.276,253.54z"/>
<g>
</g>
<g>
</g>
<g>
</g>
<g>
</g>
<g>
</g>
<g>
</g>
<g>
</g>
<g>
</g>
<g>
</g>
<g>
</g>
<g>
</g>
<g>
</g>
<g>
</g>
<g>
</g>
<g>
</g>
</svg>
