<svg id="Layer_1" enable-background="new 0 0 64 64" height="512" viewBox="0 0 64 64" width="512" xmlns="http://www.w3.org/2000/svg"><g><g><path d="m32 4c-14.888 0-27 12.112-27 27 0 .552.448 1 1 1h52c.552 0 1-.448 1-1 0-14.888-12.112-27-27-27z" fill="#787680"/><path d="m32 4c-9.374 0-17 12.112-17 27 0 .552.448 1 1 1h32c.552 0 1-.448 1-1 0-14.888-7.626-27-17-27z" fill="#78b9eb"/><path d="m32 4c-5.136 0-7 16.147-7 27 0 .552.448 1 1 1h12c.552 0 1-.448 1-1 0-10.853-1.864-27-7-27z" fill="#787680"/></g><g fill="#ffdaaa"><path d="m32 4c.673 0 1.339.033 2 .082v-2.082c0-1.105-.896-2-2-2-1.105 0-2 .896-2 2v2.082c.661-.049 1.327-.082 2-.082z"/><path d="m30 32v26c0 1.103-.897 2-2 2s-2-.897-2-2v-3c0-1.104-.896-2-2-2-1.105 0-2 .896-2 2v3c0 3.309 2.691 6 6 6s6-2.691 6-6v-26z"/></g></g></svg>