<svg id="Capa_1" enable-background="new 0 0 512 512" height="512" viewBox="0 0 512 512" width="512" xmlns="http://www.w3.org/2000/svg"><g><path d="m512 182.86c0 100.99-81.87 182.85-182.86 182.85-45.09 0-86.37-16.33-118.25-43.39l-72.12 72.12-10.6-10.6-10.61-10.61 72.12-72.12c-27.06-31.88-43.39-73.16-43.39-118.25 0-100.99 81.86-182.86 182.85-182.86 50.5 0 96.21 20.47 129.3 53.56s53.56 78.8 53.56 129.3z" fill="#1e608b"/><path d="m512 182.86c0 100.99-81.87 182.85-182.86 182.85-45.09 0-86.37-16.33-118.25-43.39l-72.12 72.12-10.6-10.6 330.27-330.28c33.09 33.09 53.56 78.8 53.56 129.3z" fill="#1e3f6b"/><path d="m448.802 182.86c0 66.08-53.571 119.652-119.662 119.652-33.046 0-62.95-13.393-84.61-35.042-21.649-21.66-35.042-51.564-35.042-84.61 0-66.091 53.571-119.662 119.652-119.662 33.046 0 62.961 13.393 84.61 35.052 21.659 21.649 35.052 51.565 35.052 84.61z" fill="#f5fbff"/><path d="m448.802 182.86c0 66.08-53.571 119.652-119.662 119.652-33.046 0-62.95-13.393-84.61-35.042l169.22-169.22c21.659 21.649 35.052 51.565 35.052 84.61z" fill="#cbe1fa"/><path d="m165.87 397.85-103.44 103.44c-14.28 14.28-37.44 14.28-51.72 0s-14.28-37.44 0-51.72l103.44-103.44z" fill="#ef4a50"/><path d="m165.87 397.85-103.44 103.44c-14.28 14.28-37.44 14.28-51.72 0l129.3-129.3z" fill="#d53136"/></g></svg>