<svg id="Capa_1" enable-background="new 0 0 497 497" height="512" viewBox="0 0 497 497" width="512" xmlns="http://www.w3.org/2000/svg"><g><path d="m299.14 189.5v7.5h-101.28v-7.5c10.6 0 21.67-8.34 24.58-18.54l7.56-26.46h37l7.56 26.46c2.91 10.2 13.98 18.54 24.58 18.54z" fill="#3d5168"/><path d="m317 242h-212l152 75h60z" fill="#bfdcff"/><path d="m45 242h212v75h-212z" fill="#dfedff"/><path d="m467 242h-150l120 255h22.5c4.142 0 7.5-3.358 7.5-7.5z" fill="#3d5168"/><path d="m437 242h-150v247.5c0 4.142 3.358 7.5 7.5 7.5h142.5v-30l-60-90 60-90z" fill="#57697d"/><path d="m437 287h-30l-63.75 90 63.75 90h30v-60l-37.5-30 37.5-30z" fill="#bfdcff"/><path d="m317 287v60l30 30-30 30v60h90v-180z" fill="#dfedff"/><path d="m437 347v60h-30l-30-30 30-30z" fill="#dfedff"/><path d="m317 347h90v60h-90z" fill="#fff"/><path d="m60 242h-30v247.5c0 4.142 3.358 7.5 7.5 7.5h15c4.142 0 7.5-3.358 7.5-7.5z" fill="#57697d"/><g fill="#3d5168"><circle cx="377" cy="317" r="7.5"/><circle cx="377" cy="377" r="7.5"/><circle cx="377" cy="437" r="7.5"/></g><path d="m497 234.5v15c0 4.142-3.358 7.5-7.5 7.5h-22.5l-40-15 40-15h22.5c4.142 0 7.5 3.358 7.5 7.5z" fill="#ffb739"/><path d="m467 227v30h-459.5c-4.142 0-7.5-3.358-7.5-7.5v-15c0-4.142 3.358-7.5 7.5-7.5z" fill="#ffd17e"/><path d="m362 152h-22.5l-60-76 60-76h22.5c4.142 0 7.5 3.358 7.5 7.5v137c0 4.142-3.358 7.5-7.5 7.5z" fill="#1e8aff"/><path d="m339.5 152h-204.5c-4.142 0-7.5-3.358-7.5-7.5v-137c0-4.142 3.358-7.5 7.5-7.5h204.5z" fill="#54a5ff"/><path d="m324.5 204.5h-152c-4.142 0-7.5-3.358-7.5-7.5s3.358-7.5 7.5-7.5h152c4.142 0 7.5 3.358 7.5 7.5s-3.358 7.5-7.5 7.5z" fill="#3d5168"/></g></svg>