<svg id="Capa_1" enable-background="new 0 0 512 512" height="512" viewBox="0 0 512 512" width="512" xmlns="http://www.w3.org/2000/svg"><g><g id="Upload_4_"><g><path d="m391 105h.293zm-1.199-13.801c-7.5-39.6-46.201-69-89.101-59.399-12.6-12.9-27.9-22.2-44.7-27.299-9.6-3.001-19.799-4.501-30-4.501-53.401 0-97.5 39.901-104.099 91.199-34.501 6.902-60.901 37.2-60.901 73.801 0 41.4 33.6 75 75 75h240c41.4 0 75-33.6 75-75 0-36.601-26.4-67.2-61.199-73.801z" fill="#edf5ff"/></g><g><path d="m286 512h-60c-8.291 0-15-6.709-15-15v-105h-30c-5.83 0-11.104-3.369-13.594-8.643-2.461-5.259-1.67-11.484 2.08-15.967l75-90c5.684-6.826 17.344-6.826 23.027 0l75 90c3.75 4.482 4.541 10.708 2.08 15.967-2.489 5.274-7.763 8.643-13.593 8.643h-30v105c0 8.291-6.709 15-15 15z" fill="#80bfff"/></g></g><g id="Upload_1_"><path d="m286 512c8.291 0 15-6.709 15-15v-105h30c5.83 0 11.104-3.369 13.594-8.643 2.461-5.259 1.67-11.484-2.08-15.967l-75-90c-2.842-3.413-7.178-5.12-11.514-5.12v239.73z" fill="#69f"/><path d="m451 165c0 41.4-33.6 75-75 75h-120v-235.499c16.8 5.099 32.1 14.399 44.7 27.299 42.9-9.6 81.601 19.799 89.101 59.399 34.799 6.601 61.199 37.2 61.199 73.801z" fill="#d5e8fe"/></g></g></svg>