<svg height="512" viewBox="0 0 512 512" width="512" xmlns="http://www.w3.org/2000/svg"><g id="_2.Boiled_Egg" data-name="2.Boiled Egg"><g id="c"><path d="m505.98 255.07c-.03 12.73-.89 62.83-37.33 105.87-11.24 13.27-42.11 49.72-91.1 50.69-37.99.76-66.12-20.22-81.74-35.36 29.84-28.21 48.63-63.41 42.84-98.48-6.18-37.37-38.73-65.2-79.28-81.79 19.12-61.6 63.23-119.69 118.18-119.76 72.24-.09 128.61 100.14 128.43 178.83z" fill="#ffebb9"/><path d="m466.03 272.47c0 55.9-39.64 101.22-88.53 101.22-22.18 0-42.47-9.34-58.01-24.76 15.28-22.17 23.2-46.69 19.16-71.14-3.79-22.94-17.53-42.29-36.95-57.64 15.51-29.32 43.65-48.91 75.8-48.91 48.89 0 88.53 45.32 88.53 101.23z" fill="#f5d367"/><path d="m319.49 348.93a173.424 173.424 0 0 1 -23.68 27.34c-30.81 29.14-73.4 50.81-112.86 57.19-12.57 2.03-62.15 9.28-110.52-19.72-14.91-8.94-55.87-33.5-64.76-81.7-9.37-50.82 23.89-90.15 32.39-100.19 35.55-42.04 84.89-49.6 101.34-51.87 36.56-5.04 80.65.73 117.97 16.02 15.65 6.41 30.12 14.49 42.33 24.15 19.42 15.35 33.16 34.7 36.95 57.64 4.04 24.45-3.88 48.97-19.16 71.14z" fill="#ffebb9"/><path d="m31 320a209.487 209.487 0 0 0 13.32 73.75c-15.44-13.61-31.48-33.66-36.65-61.71-9.37-50.82 23.89-90.15 32.39-100.19a137.5757 137.5757 0 0 1 20.9-20 208.9822 208.9822 0 0 0 -29.96 108.15z" fill="#e5d2a8"/><ellipse cx="144.989" cy="309.438" fill="#f5d367" rx="101.225" ry="86.868" transform="matrix(.987 -.162 .162 .987 -48.141 27.526)"/></g></g></svg>