<svg height="512pt" viewBox="-13 0 512 512.00007" width="512pt" xmlns="http://www.w3.org/2000/svg"><path d="m104.289062 0h268.707032c12.191406 0 22.070312 9.882812 22.070312 22.070312v467.859376c0 12.1875-9.878906 22.070312-22.070312 22.070312h-350.925782c-12.1875 0-22.070312-9.882812-22.070312-22.070312v-385.640626zm0 0" fill="#fafaff"/><path d="m372.996094 0h-34.378906v455.964844c0 11.585937-9.390626 20.976562-20.972657 20.976562h-317.644531v12.988282c0 12.1875 9.882812 22.070312 22.070312 22.070312h350.925782c12.191406 0 22.070312-9.882812 22.070312-22.070312v-467.859376c.003906-12.1875-9.878906-22.070312-22.070312-22.070312zm0 0" fill="#e6e6f2"/><path d="m104.289062 93.753906v-93.753906l-104.289062 104.289062h93.753906c5.820313 0 10.535156-4.714843 10.535156-10.535156zm0 0" fill="#aae1e7"/><path d="m426.21875 301.949219c-1.238281 0-2.5-.296875-3.667969-.929688-3.753906-2.03125-5.148437-6.71875-3.121093-10.472656l48.539062-89.710937c1.367188-2.527344.425781-5.691407-2.101562-7.058594l-24.179688-12.855469c-3.765625-2.003906-5.195312-6.683594-3.191406-10.449219 2.003906-3.769531 6.679687-5.199218 10.449218-3.195312l24.226563 12.882812c10.066406 5.445313 13.808594 18.007813 8.390625 28.027344l-48.542969 89.710938c-1.394531 2.585937-4.054687 4.050781-6.800781 4.050781zm0 0" fill="#293e7d"/><path d="m458.4375 144.097656-27.578125-14.921875 26.300781-48.601562c4.117188-7.617188 13.632813-10.449219 21.246094-6.328125 7.617188 4.117187 10.449219 13.632812 6.328125 21.246094zm0 0" fill="#ffa442"/><path d="m269.875 416.839844-4.742188 8.765625-27.765624 71.597656c-4.589844 11.84375 11.460937 20.527344 18.859374 10.207031l44.746094-62.414062 4.742188-8.765625zm0 0" fill="#293e7d"/><path d="m294.804688 447.679688-28.542969-15.445313c-4.640625-2.507813-6.367188-8.308594-3.855469-12.949219l162.011719-299.429687c3.371093-6.234375 11.160156-8.554688 17.394531-5.179688l22.773438 12.320313c6.234374 3.371094 8.554687 11.160156 5.179687 17.394531l-162.011719 299.433594c-2.511718 4.640625-8.308594 6.367187-12.949218 3.855469zm0 0" fill="#ff7e7e"/><path d="m415.0625 137.132812 45.351562 24.539063-17.066406 31.539063-45.351562-24.539063zm0 0" fill="#ff9d00"/><g fill="#0076c2"><path d="m320.117188 254.074219h-266.285157c-4.269531 0-7.726562-3.460938-7.726562-7.726563s3.457031-7.726562 7.726562-7.726562h266.285157c4.269531 0 7.726562 3.460937 7.726562 7.726562.003906 4.265625-3.457031 7.726563-7.726562 7.726563zm0 0"/><path d="m279.140625 329.8125h-225.308594c-4.269531 0-7.726562-3.460938-7.726562-7.726562 0-4.269532 3.457031-7.726563 7.726562-7.726563h225.308594c4.265625 0 7.726563 3.457031 7.726563 7.726563 0 4.265624-3.460938 7.726562-7.726563 7.726562zm0 0"/><path d="m238.160156 405.546875h-184.328125c-4.269531 0-7.726562-3.457031-7.726562-7.726563 0-4.265624 3.457031-7.722656 7.726562-7.722656h184.328125c4.269532 0 7.726563 3.457032 7.726563 7.722656 0 4.269532-3.457031 7.726563-7.726563 7.726563zm0 0"/><path d="m320.117188 108.183594h-118.265626c-4.265624 0-7.726562-3.460938-7.726562-7.726563 0-4.269531 3.460938-7.726562 7.726562-7.726562h118.265626c4.269531 0 7.726562 3.457031 7.726562 7.726562.003906 4.265625-3.457031 7.726563-7.726562 7.726563zm0 0"/><path d="m320.117188 59.871094h-118.265626c-4.265624 0-7.726562-3.460938-7.726562-7.726563s3.460938-7.726562 7.726562-7.726562h118.265626c4.269531 0 7.726562 3.460937 7.726562 7.726562s-3.457031 7.726563-7.726562 7.726563zm0 0"/></g></svg>