<svg id="Layer_1" enable-background="new 0 0 65 65" height="512" viewBox="0 0 65 65" width="512" xmlns="http://www.w3.org/2000/svg"><g><path d="m13.7 6.7h42.9v57.8h-42.9z" fill="#dbdfe0"/><path d="m13.7 6.7h39.1v53h-39.1z" fill="#d3d3d3"/><path d="m8.4.5h42.9v57.8h-42.9z" fill="#eff3f5"/><path d="m12.3 4.7h35.2v10.1h-35.2z" fill="#5ac8ae"/><path d="m12.3 13.2h35.2v1.5h-35.2z" fill="#52afa8"/><g fill="#dbdfe0"><path d="m12.3 17.4h16.5v2.2h-16.5z"/><path d="m12.3 22.1h16.5v2.2h-16.5z"/><path d="m12.3 26.7h16.5v2.2h-16.5z"/><path d="m12.3 31.4h16.5v2.2h-16.5z"/></g><path d="m31.3 17.4h16.1v16.1h-16.1z" fill="#41b3e2"/><path d="m31.3 32.5h16.1v1.1h-16.1z" fill="#379fc8"/><path d="m30.9 37.1h16.5v2.2h-16.5z" fill="#dbdfe0"/><path d="m30.9 41.8h16.5v2.2h-16.5z" fill="#dbdfe0"/><path d="m30.9 46.5h16.5v2.2h-16.5z" fill="#dbdfe0"/><path d="m30.9 51.1h16.5v2.2h-16.5z" fill="#dbdfe0"/><path d="m12.3 37.1h16.1v16.1h-16.1z" fill="#f1786b"/><path d="m12.3 52.2h16.1v1.1h-16.1z" fill="#d45947"/></g></svg>