<svg height="512" viewBox="0 0 58 54" width="512" xmlns="http://www.w3.org/2000/svg"><g id="Page-1" fill="none" fill-rule="evenodd"><g id="012---Orange-Juice" fill-rule="nonzero"><path id="Shape" d="m57.99 2.15-3.53 47.31-.06.84c-.1707937 2.0965891-1.926483 3.7085122-4.03 3.7h-20.81c-1.6171365-.0213732-3.0636621-1.0106863-3.67-2.51l-2.45-30.22-1.43-19.12c-.0419591-.55765065.1514732-1.10739796.5333823-1.51590772.3819091-.40850977.9174078-.63846474 1.4766177-.63409228h31.96c.5592099-.00437246 1.0947086.22558251 1.4766177.63409228.3819091.40850976.5753414.95825707.5333823 1.51590772z" fill="#67b9cc"/><path id="Shape" d="m57.18 13-2.72 36.46c-.7334911.3624227-1.5418895.5473952-2.36.54h-26.33l-2.33-28.73-.62-8.27z" fill="#f29c1f"/><circle id="Oval" cx="17" cy="37" fill="#e57e25" r="17"/><ellipse id="Oval" cx="8.082" cy="30.664" fill="#f29c1f" rx="6" ry="4.5" transform="matrix(.5 -.866 .866 .5 -22.515 22.331)"/><path id="Shape" d="m14 25c-.4444444 0-.8355556-.2933333-.96-.72-.076-.257-1.97-6.28-11.04-6.28-.55228475 0-1-.4477153-1-1s.44771525-1 1-1c10.632 0 12.872 7.41 12.961 7.725.1516249.5307166-.1554131 1.083922-.686 1.236-.0893416.0260301-.1819438.0391628-.275.039z" fill="#805333"/><path id="Shape" d="m14 11c0 4.418-4 8-4 8s-4-3.582-4-8 4-8 4-8 4 3.582 4 8z" fill="#4fba6f"/><g fill="#d25627"><circle id="Oval" cx="4" cy="37" r="1"/><circle id="Oval" cx="6" cy="32" r="1"/><circle id="Oval" cx="8" cy="36" r="1"/><circle id="Oval" cx="7" cy="41" r="1"/><circle id="Oval" cx="8" cy="46" r="1"/><circle id="Oval" cx="11" cy="43" r="1"/><circle id="Oval" cx="12" cy="39" r="1"/><circle id="Oval" cx="12" cy="49" r="1"/><circle id="Oval" cx="15" cy="46" r="1"/></g><path id="Shape" d="m58 2.15-.813 10.85h-12.023c2.658835-4.79140832 6.0004854-9.17058722 9.92-13h.9c.5602488-.00606274 1.0973516.22315453 1.4805892.63186522.3832375.40871069.5774647.95943368.5354108 1.51813478z" fill="#2fa8cc"/><path id="Shape" d="m54.466 49.46c-.7334911.3624227-1.5418895.5473952-2.36.54h-18.942c-.21 1.31-.41 2.64-.6 4.0000336l17.812-.0000336c2.103517.0085122 3.8592063-1.6034109 4.03-3.7z" fill="#2fa8cc"/><path id="Shape" d="m57.18 13-2.72 36.46c-.7334911.3624227-1.5418895.5473952-2.36.54l-18.94.0002133c2.68-16.5902133 7.14-28.4902133 12-37.0002133z" fill="#e57e25"/></g></g></svg>