<svg id="Flat" height="512" viewBox="0 0 512 512" width="512" xmlns="http://www.w3.org/2000/svg"><path d="m296 112a79.918 79.918 0 1 1 56 76.337" fill="#fbe36a"/><g fill="#d4a811"><path d="m376 120h-80a8 8 0 0 1 0-16h80a8 8 0 0 1 0 16z"/><path d="m456 120h-80a8 8 0 0 1 0-16h80a8 8 0 0 1 0 16z"/><path d="m376 120a8 8 0 0 1 -8-8v-80a8 8 0 0 1 16 0v80a8 8 0 0 1 -8 8z"/><path d="m376 200a8 8 0 0 1 -8-8v-80a8 8 0 0 1 16 0v80a8 8 0 0 1 -8 8z"/><path d="m376 120a7.976 7.976 0 0 1 -5.657-2.343l-56-56a8 8 0 0 1 11.314-11.314l56 56a8 8 0 0 1 -5.657 13.657z"/><path d="m376 120a8 8 0 0 1 -5.657-13.657l56-56a8 8 0 0 1 11.314 11.314l-56 56a7.976 7.976 0 0 1 -5.657 2.343z"/><path d="m424 176a7.978 7.978 0 0 1 -6.078-2.794l-48-56a8 8 0 1 1 12.148-10.412l48 56a8 8 0 0 1 -6.07 13.206z"/></g><path d="m376 200a88 88 0 1 1 88-88 88.1 88.1 0 0 1 -88 88zm0-160a72 72 0 1 0 72 72 72.081 72.081 0 0 0 -72-72z" fill="#f7cc38"/><path d="m304 488-88-44v-180a8 8 0 0 0 -16 0v180l-88 44z" fill="#c3c6c7"/><path d="m368 104a160 160 0 0 1 -320 0z" fill="#dcdee0"/><path d="m328 136c0 53.019-53.726 96-120 96s-120-42.981-120-96z" fill="#ed6f6d"/></svg>