<?xml version="1.0" encoding="iso-8859-1"?>
<!-- Generator: Adobe Illustrator 19.0.0, SVG Export Plug-In . SVG Version: 6.00 Build 0)  -->
<svg xmlns="http://www.w3.org/2000/svg" xmlns:xlink="http://www.w3.org/1999/xlink" version="1.1" id="Capa_1" x="0px" y="0px" viewBox="0 0 512.001 512.001" style="enable-background:new 0 0 512.001 512.001;" xml:space="preserve">
<path style="fill:#E0F7FC;" d="M423.161,168.923H96.056c-9.528,0-17.25,7.724-17.25,17.25v95.824  c0.015,65.118,34.462,122.184,86.118,154.003v24.434c0,8.367,6.783,15.149,15.149,15.149H339.14c8.367,0,15.149-6.782,15.149-15.149  V436c51.67-31.826,86.122-88.91,86.122-154.047v-95.781C440.411,176.647,432.688,168.923,423.161,168.923z"/>
<path style="fill:#BEEDF4;" d="M190.681,460.433v-24.434c-51.656-31.819-91.254-88.885-91.269-154.003v-95.824  c0-9.526,7.722-17.25,17.25-17.25H96.056c-9.528,0-17.25,7.724-17.25,17.25v95.824c0.015,65.118,34.462,122.184,86.118,154.003  v24.434c0,8.367,6.783,15.149,15.149,15.149h25.756C197.464,475.582,190.681,468.8,190.681,460.433z"/>
<path style="fill:#3BBC56;" d="M241.571,265.12l7.32,12.225c7.369,12.307,3.367,28.256-8.94,35.626l-10.04,6.011  c-12.308,7.369-28.255,3.366-35.626-8.94l-20.846-34.814c-53.951-1.372-94.633-26.764-94.633-26.764v33.532  c0.015,65.118,34.462,122.184,86.118,154.003H354.29c51.669-31.826,86.121-88.91,86.121-154.046v-10.489  C335.096,219.585,297.011,247.882,241.571,265.12z"/>
<path style="fill:#31AD45;" d="M190.681,435.999c-51.656-31.819-91.254-88.885-91.269-154.003v-23.285  c-12.995-5.499-20.605-10.247-20.605-10.247v33.532c0.015,65.118,34.462,122.184,86.118,154.003L190.681,435.999L190.681,435.999z"/>
<path style="fill:#CECECE;" d="M177.157,234.53l-59.135-98.759c-2.192-3.661-1.002-8.406,2.66-10.598  c3.661-2.193,8.407-1.002,10.599,2.66l59.134,98.759c2.192,3.661,1.002,8.406-2.66,10.598  C184.098,239.38,179.351,238.195,177.157,234.53z"/>
<path style="fill:#C16B3D;" d="M458.457,475.582c-10.141,0-391.49,0-397.702,0c-9.526,0-17.25,7.724-17.25,17.25v1.919  c0,9.526,7.724,17.25,17.25,17.25c10.141,0,391.489,0,397.702,0c9.526,0,17.25-7.724,17.25-17.25v-1.919  C475.707,483.306,467.983,475.582,458.457,475.582z"/>
<path style="fill:#B55B33;" d="M458.457,493.791c-10.141,0-391.49,0-397.702,0c-6.579,0-12.295-3.686-15.204-9.104  c-1.303,2.427-2.045,5.199-2.045,8.145v1.919c0,9.526,7.724,17.25,17.25,17.25c10.141,0,391.489,0,397.702,0  c9.526,0,17.25-7.724,17.25-17.25c0-2.337,0.224-5.837-2.045-10.064C470.752,490.104,465.037,493.791,458.457,493.791z"/>
<path style="fill:#CECECE;" d="M249.334,277.081l-24.46-40.851c-7.367-12.303-23.585-16.751-36.333-9.118l-10.039,6.012  c-12.53,7.503-16.621,23.801-9.119,36.331l24.46,40.852c7.355,12.28,23.56,16.764,36.333,9.117l10.04-6.011  C252.747,305.911,256.836,289.612,249.334,277.081z"/>
<path style="fill:#ADAAAA;" d="M219.73,295.884l-24.46-40.852c-6.132-10.241-4.516-22.997,3.12-31.413  c-6.49,0.931-9.319,3.175-19.888,9.506c-12.53,7.503-16.621,23.801-9.119,36.331l24.46,40.852  c7.355,12.28,23.56,16.764,36.333,9.117c10.739-6.43,12.772-7.329,16.039-10.929C235.469,310.038,225.066,304.794,219.73,295.884z"/>
<path style="fill:#EA473B;" d="M72.78,5.643C69.487,0.146,62.361-1.642,56.863,1.65l-14.932,8.94  c-5.497,3.292-7.286,10.419-3.994,15.916l63.332,105.769c3.293,5.498,10.419,7.287,15.918,3.995l14.933-8.94  c5.496-3.293,7.285-10.418,3.994-15.916L72.78,5.643z"/>
<path style="fill:#C42A1E;" d="M119.271,121.973L55.939,16.204c-3.245-5.419-1.545-12.414,3.769-15.766  c-2.057,0.575-1.535,0.427-17.777,10.152c-5.497,3.292-7.286,10.419-3.994,15.916l63.332,105.769  c3.293,5.498,10.419,7.287,15.918,3.995c18.665-11.175,14.22-8.506,15.158-9.091C127.432,128.553,122.018,126.561,119.271,121.973z"/>
<g>
</g>
<g>
</g>
<g>
</g>
<g>
</g>
<g>
</g>
<g>
</g>
<g>
</g>
<g>
</g>
<g>
</g>
<g>
</g>
<g>
</g>
<g>
</g>
<g>
</g>
<g>
</g>
<g>
</g>
</svg>
