<svg height="512" viewBox="0 0 64 64" width="512" xmlns="http://www.w3.org/2000/svg"><g id="Computer"><path d="m57 3h-50a4 4 0 0 0 -4 4v32h58v-32a4 4 0 0 0 -4-4z" fill="#d1e7f8"/><path d="m61 39v6a4 4 0 0 1 -4 4h-50a4 4 0 0 1 -4-4v-6z" fill="#006df0"/><circle cx="32" cy="44" fill="#ed1c24" r="2"/><path d="m22 57h20l-3-8h-14z" fill="#808285"/><path d="m19 57a2 2 0 0 0 -2 2v2h30v-2a2 2 0 0 0 -2-2z" fill="#58595b"/><path d="m23 39h38v-32c0 17.688-17 32-38 32z" fill="#bddbff"/><path d="m39.75 51-.75-2h-14l-.75 2z" fill="#6d6e71"/></g></svg>