<svg id="Capa_1" enable-background="new 0 0 512 512" height="512" viewBox="0 0 512 512" width="512" xmlns="http://www.w3.org/2000/svg"><g><g><path d="m436 512h-360c-8.284 0-15-6.716-15-15v-482c0-8.284 6.716-15 15-15h360c8.284 0 15 6.716 15 15v482c0 8.284-6.716 15-15 15z" fill="#fff5f5"/></g><path d="m451 497v-482c0-8.284-6.716-15-15-15h-180v512h180c8.284 0 15-6.716 15-15z" fill="#f5f0eb"/><path d="m370.6 124.945c-1.741-.616-3.515-1.255-5.29-1.914v-32.311c3.056 1.127 4.647 2.658 4.873 2.887 3.638 4.102 9.909 4.513 14.051.904 4.164-3.628 4.599-9.945.97-14.109-3.323-3.814-10.186-8.593-19.894-10.274v-5.128c0-5.523-4.478-10-10-10s-10 4.477-10 10v6.223c-.616.163-1.238.337-1.865.526-11.853 3.571-20.705 13.689-23.102 26.407-2.199 11.67 1.59 22.963 9.889 29.473 3.916 3.072 8.69 5.888 15.078 8.816v42.235c-4.52-.636-7.905-2.171-13.306-5.704-4.621-3.024-10.821-1.728-13.843 2.894-3.023 4.622-1.729 10.819 2.894 13.843 9.488 6.207 16.181 8.388 24.255 9.085v6.202c0 5.523 4.478 10 10 10s10-4.477 10-10v-7.162c16.616-4.215 27.266-18.408 29.619-32.403 3.026-18.004-6.751-34.277-24.329-40.49zm-28.026-13.053c-2.365-1.855-3.376-5.792-2.577-10.032.579-3.072 2.261-6.615 5.312-8.955v20.912c-.984-.631-1.902-1.272-2.735-1.925zm32.631 50.228c-.911 5.42-4.271 11.118-9.896 14.34v-32.121c10.822 4.557 10.553 13.872 9.896 17.781z" fill="#ffde55"/><g><path d="m276 90h-140c-8.284 0-15-6.716-15-15s6.716-15 15-15h140c8.284 0 15 6.716 15 15s-6.716 15-15 15z" fill="#ebe1dc"/></g><path d="m276 60h-20v30h20c8.284 0 15-6.716 15-15s-6.716-15-15-15z" fill="#dcd2cd"/><g><path d="m276 150h-140c-8.284 0-15-6.716-15-15s6.716-15 15-15h140c8.284 0 15 6.716 15 15s-6.716 15-15 15z" fill="#ebe1dc"/></g><path d="m276 120h-20v30h20c8.284 0 15-6.716 15-15s-6.716-15-15-15z" fill="#dcd2cd"/><g><path d="m276 210h-140c-8.284 0-15-6.716-15-15s6.716-15 15-15h140c8.284 0 15 6.716 15 15s-6.716 15-15 15z" fill="#ebe1dc"/></g><path d="m276 180h-20v30h20c8.284 0 15-6.716 15-15s-6.716-15-15-15z" fill="#dcd2cd"/><path d="m136 255h60v180h-60z" fill="#dcd2cd"/><path d="m136 255h240v60h-240z" fill="#beebfa"/><path d="m256 255h120v60h-120z" fill="#7ed8f7"/><path d="m376 240h-240c-8.284 0-15 6.716-15 15v180c0 8.284 6.716 15 15 15h240c8.284 0 15-6.716 15-15v-180c0-8.284-6.716-15-15-15zm-15 60h-150v-30h150zm-180-30v30h-30v-30zm-30 60h30v90h-30zm60 90v-90h150v90z" fill="#ebe1dc"/><path d="m376 240h-120v30h105v30h-105v30h105v90h-105v30h120c8.284 0 15-6.716 15-15v-180c0-8.284-6.716-15-15-15z" fill="#dcd2cd"/></g></svg>