<?xml version="1.0" encoding="iso-8859-1"?>
<!-- Generator: Adobe Illustrator 19.0.0, SVG Export Plug-In . SVG Version: 6.00 Build 0)  -->
<svg version="1.1" id="Capa_1" xmlns="http://www.w3.org/2000/svg" xmlns:xlink="http://www.w3.org/1999/xlink" x="0px" y="0px"
	 viewBox="0 0 512.005 512.005" style="enable-background:new 0 0 512.005 512.005;" xml:space="preserve">
<path style="fill:#FCC153;" d="M512,443.668c0,9.902-7.921,17.828-17.828,17.828H17.828C7.921,461.491,0,453.571,0,443.668V128.742
	c0-9.902,7.921-17.828,17.828-17.828h476.349c9.902,0,17.828,7.921,17.828,17.828v314.926H512z"/>
<path style="fill:#20262D;" d="M99.031,94.08H17.828C7.921,94.08,0,102.006,0,111.908v331.761c0,9.902,7.921,17.828,17.828,17.828
	h98.043V110.915C115.871,102.006,107.945,94.08,99.031,94.08z"/>
<circle style="fill:#F7F7F7;" cx="313.907" cy="286.203" r="150.528"/>
<circle style="fill:#20262D;" cx="313.907" cy="286.203" r="138.65"/>
<circle style="fill:#D3D3D3;" cx="313.907" cy="286.203" r="96.061"/>
<polygon style="fill:#20262D;" points="410.988,110.915 217.871,110.915 247.583,50.509 381.276,50.509 "/>
<rect x="277.299" y="63.38" style="fill:#F7F7F7;" width="74.276" height="34.662"/>
<rect x="36.644" y="76.257" style="fill:#FCC153;" width="43.576" height="17.828"/>
<circle style="fill:#F7F7F7;" cx="465.459" cy="148.531" r="12.877"/>
<path style="fill:#FFFFFF;" d="M247.583,278.282c-0.988,0-0.988,0-1.981,0c-4.951-0.988-7.921-5.944-6.932-10.895
	c1.981-5.944,3.963-12.877,6.932-17.828c1.981-3.963,7.921-5.944,11.884-3.963c3.963,1.981,5.944,7.921,3.963,11.883
	c-1.981,3.963-3.963,8.914-4.951,13.865C254.515,276.301,251.546,278.282,247.583,278.282z M269.368,242.632
	c-1.981,0-4.951-0.988-6.932-2.97c-2.97-3.963-2.97-8.914,0.988-11.884c11.884-9.902,25.748-16.835,41.595-18.816
	c4.951-0.988,8.914,2.97,9.902,7.921s-2.97,8.914-7.921,9.902c-11.884,0.988-22.779,5.944-32.681,13.865
	C273.331,242.632,271.35,242.632,269.368,242.632z"/>
<g>
</g>
<g>
</g>
<g>
</g>
<g>
</g>
<g>
</g>
<g>
</g>
<g>
</g>
<g>
</g>
<g>
</g>
<g>
</g>
<g>
</g>
<g>
</g>
<g>
</g>
<g>
</g>
<g>
</g>
</svg>
