<svg clip-rule="evenodd" fill-rule="evenodd" height="512" stroke-linejoin="round" stroke-miterlimit="2" viewBox="0 0 356 356" width="512" xmlns="http://www.w3.org/2000/svg"><g id="Exp-4.-F--Updated-"><g><path d="m153.284 183.333c-32.313-13.112-64.395-42.425-64.395-83.333 0-20.756 6.71-34.402 18.081-50h141.616c11.37 15.598 18.081 29.244 18.081 50 0 40.908-32.082 70.221-64.395 83.333 32.313 13.113 64.395 42.426 64.395 83.334 0 20.756-6.711 34.402-18.081 50h-141.616c-11.371-15.598-18.081-29.244-18.081-50 0-40.908 32.082-70.221 64.395-83.334z" fill="#e7eadf"/><path d="m255.556 305.556c-14-38.585-53.969-66.667-77.778-66.667-23.81 0-63.778 28.082-77.778 66.667z" fill="#ff977b"/><path d="m263.352 122.222c-4.681 15.257-13.951 28.308-25.446 38.812-19.951 17.199-44.385 27.855-60.128 27.855-15.744 0-40.177-10.656-60.129-27.855-11.494-10.502-20.766-23.555-25.445-38.812z" fill="#ff977b"/><g fill="#fa890f"><path d="m277.778 50c0-6.136-4.975-11.111-11.111-11.111-35.009 0-142.77 0-177.778 0-6.137 0-11.111 4.975-11.111 11.111s4.974 11.111 11.111 11.111h177.778c6.136 0 11.111-4.975 11.111-11.111z"/><path d="m277.778 316.667c0-6.137-4.975-11.111-11.111-11.111-35.009 0-142.77 0-177.778 0-6.137 0-11.111 4.974-11.111 11.111 0 6.136 4.974 11.111 11.111 11.111h177.778c6.136 0 11.111-4.975 11.111-11.111z"/></g></g></g></svg>