<?xml version="1.0" encoding="iso-8859-1"?>
<!-- Generator: Adobe Illustrator 19.0.0, SVG Export Plug-In . SVG Version: 6.00 Build 0)  -->
<svg version="1.1" id="Layer_1" xmlns="http://www.w3.org/2000/svg" xmlns:xlink="http://www.w3.org/1999/xlink" x="0px" y="0px"
	 viewBox="0 0 512 512" style="enable-background:new 0 0 512 512;" xml:space="preserve">
<path style="fill:#0778B8;" d="M138.084,152.511H66.186c-9.024,0-16.34-7.316-16.34-16.34V76.255c0-9.024,7.316-16.34,16.34-16.34
	h71.898c9.024,0,16.34,7.316,16.34,16.34v59.915C154.425,145.194,147.11,152.511,138.084,152.511z"/>
<path style="fill:#A2D5F2;" d="M447.728,452.085H64.272C28.832,452.085,0,423.253,0,387.813V184.102
	c0-35.44,28.832-64.272,64.272-64.272h106.434l9.355-46.779c1.527-7.638,8.234-13.136,16.023-13.136h119.83
	c7.789,0,14.496,5.498,16.022,13.136l9.357,46.779h106.434c35.44,0,64.272,28.832,64.272,64.272v203.711
	C512,423.253,483.168,452.085,447.728,452.085z"/>
<g>
	<path style="fill:#0778B8;" d="M447.728,119.83H341.294l-9.355-46.779c-1.527-7.638-8.234-13.136-16.023-13.136H256v392.17h191.728
		c35.44,0,64.272-28.832,64.272-64.272V184.102C512,148.662,483.168,119.83,447.728,119.83z"/>
	<path style="fill:#0778B8;" d="M256,410.145c-68.477,0-124.187-55.71-124.187-124.187S187.523,161.77,256,161.77
		s124.187,55.71,124.187,124.187S324.477,410.145,256,410.145z"/>
</g>
<path style="fill:#224F9C;" d="M256,161.77v248.374c68.477,0,124.187-55.71,124.187-124.187S324.477,161.77,256,161.77z"/>
<path style="fill:#D7FBE8;" d="M256,350.23c-35.44,0-64.272-28.832-64.272-64.272S220.56,221.685,256,221.685
	s64.272,28.832,64.272,64.272C320.272,321.398,291.44,350.23,256,350.23z"/>
<path style="fill:#9DF3C4;" d="M256,221.685V350.23c35.44,0,64.272-28.832,64.272-64.272S291.44,221.685,256,221.685z"/>
<path style="fill:#224F9C;" d="M435.745,212.426h-27.353c-9.024,0-16.34-7.316-16.34-16.34c0-9.024,7.316-16.34,16.34-16.34h27.353
	c9.024,0,16.34,7.316,16.34,16.34C452.085,205.109,444.769,212.426,435.745,212.426z"/>
<g>
</g>
<g>
</g>
<g>
</g>
<g>
</g>
<g>
</g>
<g>
</g>
<g>
</g>
<g>
</g>
<g>
</g>
<g>
</g>
<g>
</g>
<g>
</g>
<g>
</g>
<g>
</g>
<g>
</g>
</svg>
