<svg id="Capa_1" enable-background="new 0 0 511.996 511.996" height="512" viewBox="0 0 511.996 511.996" width="512" xmlns="http://www.w3.org/2000/svg"><g><path d="m13.19 387.793c4.022 3.975 82.615 81.664 86.31 85.31 29.047 29.068 76.652 29.298 106.01-.06l251.52-251.52c29.227-29.227 29.367-76.598.1-105.97-1.101-1.145-82.194-85.242-82.32-85.35-22.333-22.332-60.244-15.295-73.01 13.69l-36.3 82.5c-7.53 17.12-3.85 36.72 9.37 49.94 7.97 7.97 7.99 20.91.07 28.9l-99.99 97.25-14.63-14.63c-13.22-13.22-32.82-16.9-49.94-9.37l-83.44 36.271c-29.04 12.797-36.11 50.679-13.75 73.039z" fill="#eef4ff"/><path d="m97.19 470.823 2.31 2.28c29.047 29.068 76.652 29.298 106.01-.06l251.52-251.52c29.227-29.227 29.367-76.598.1-105.97l-2.29-2.38z" fill="#d9e6fc"/><path d="m208 145.013c8.284 0 15 6.716 15 15s-6.716 15-15 15c-27.019 0-49 21.981-49 49 0 8.284-6.716 15-15 15s-15-6.716-15-15c0-43.56 35.439-79 79-79z" fill="#dd5958"/><path d="m208 81.013c8.284 0 15 6.716 15 15s-6.716 15-15 15c-62.309 0-113 50.691-113 113 0 8.284-6.716 15-15 15s-15-6.716-15-15c0-78.85 64.149-143 143-143z" fill="#ffe278"/><path d="m208 17.013c8.284 0 15 6.716 15 15s-6.716 15-15 15c-98.149 0-178 79.402-178 177 0 8.284-6.716 15-15 15s-15-6.716-15-15c0-114.14 93.309-207 208-207z" fill="#94dfda"/><path d="m350.71 234.943c-1.75 8.45-9.87 13.38-17.64 11.77-2.94-.56-5.6-2.02-7.67-4.1-3.31-3.31-5.11-8.2-4.11-13.53.79-3.8 2.89-7.18 6.38-9.54 6.59-4.33 14.24-2.79 18.92 1.88 3.31 3.28 5.14 8.1 4.12 13.52z" fill="#425796"/><path d="m346.59 221.423c3.31 3.28 5.14 8.1 4.12 13.52-1.75 8.45-9.87 13.38-17.64 11.77-2.94-.56-5.6-2.02-7.67-4.1z" fill="#283758"/><path d="m507.56 82.663-117 116c-5.86 5.81-15.32 5.8-21.16-.05-.02-.01-.03-.02-.05-.04-5.83-5.88-5.79-15.38.09-21.21l117-116c5.7-5.65 14.8-5.79 20.66-.45.19.18.37.36.55.54 5.83 5.88 5.79 15.38-.09 21.21z" fill="#425796"/><path d="m507.56 82.663-117 116c-5.86 5.81-15.32 5.8-21.16-.05l137.7-137.7c.19.18.37.36.55.54 5.83 5.88 5.79 15.38-.09 21.21z" fill="#283758"/></g></svg>