<?xml version="1.0" encoding="iso-8859-1"?>
<!-- Generator: Adobe Illustrator 19.0.0, SVG Export Plug-In . SVG Version: 6.00 Build 0)  -->
<svg version="1.1" id="Capa_1" xmlns="http://www.w3.org/2000/svg" xmlns:xlink="http://www.w3.org/1999/xlink" x="0px" y="0px"
	 viewBox="0 0 512 512" style="enable-background:new 0 0 512 512;" xml:space="preserve">
<path style="fill:#B7E0F6;" d="M498.8,347.8c-8.101,8.101-19.501,13.2-31.8,13.2H45c-12.299,0-23.699-5.099-31.8-13.2l1.8-35.4
	l134.2-133.2L181,181l14.399-14.399h125.4L331,181h39.3l124.3,123.3L498.8,347.8z"/>
<g>
	<path style="fill:#A4D9F5;" d="M498.8,347.8c-8.101,8.101-19.501,13.2-31.8,13.2H256V166.601h64.799L331,181h39.3l124.3,123.3
		L498.8,347.8z"/>
	<path style="fill:#A4D9F5;" d="M179.09,147.754L44.531,13.195H13.195C5.046,21.343,0,32.593,0,45v271
		c0,12.407,5.046,23.657,13.195,31.805L181,181L179.09,147.754z"/>
</g>
<path style="fill:#81C8EE;" d="M498.805,13.195H467L335.722,144.472L331,181l167.805,166.805C506.954,339.657,512,328.407,512,316
	V45C512,32.593,506.954,21.343,498.805,13.195z"/>
<path style="fill:#CAE8F9;" d="M498.8,13.2L298.299,213.701C286.601,225.399,271.3,231.4,256,231.4s-30.601-6-42.299-17.699
	L13.2,13.2C21.301,5.099,32.701,0,45,0h422C479.299,0,490.699,5.099,498.8,13.2z"/>
<path style="fill:#B7E0F6;" d="M298.299,213.701C286.601,225.399,271.3,231.4,256,231.4V0h211c12.299,0,23.699,5.099,31.8,13.2
	L298.299,213.701z"/>
<path style="fill:#FD3018;" d="M256,257c-57.9,0-105,47.1-105,105c0,82.2,92.701,144.899,96.599,147.599
	c2.701,1.5,5.402,2.401,8.401,2.401c2.999,0,5.7-0.901,8.401-2.401C268.299,506.899,361,444.2,361,362C361,304.1,313.9,257,256,257z
	 M256,407c-24.901,0-45-20.101-45-45c0-24.901,20.099-45,45-45s45,20.099,45,45C301,386.899,280.901,407,256,407z"/>
<path style="fill:#E61E14;" d="M256,257v60c24.901,0,45,20.099,45,45c0,24.899-20.099,45-45,45v105c2.999,0,5.7-0.901,8.401-2.401
	C268.299,506.899,361,444.2,361,362C361,304.1,313.9,257,256,257z"/>
<g>
</g>
<g>
</g>
<g>
</g>
<g>
</g>
<g>
</g>
<g>
</g>
<g>
</g>
<g>
</g>
<g>
</g>
<g>
</g>
<g>
</g>
<g>
</g>
<g>
</g>
<g>
</g>
<g>
</g>
</svg>
