<svg id="Capa_1" enable-background="new 0 0 512.013 512.013" height="512" viewBox="0 0 512.013 512.013" width="512" xmlns="http://www.w3.org/2000/svg"><g><g><path d="m146.966 45.94v73.719h15l10-58.026-10-49.618c-9.211 8.406-15 20.501-15 33.925z" fill="#bd8472"/><path d="m192.901.005c-11.905 0-22.766 4.554-30.935 12.01v107.645h15v-73.72c0-8.787 7.148-15.935 15.935-15.935h20.854v-30h-20.854z" fill="#a05f4b"/></g><g><path d="m243.271 106.773v57.33c0 8.055-3.394 15.692-9.228 21.246-28.092 26.747-45.581 64.528-45.5 106.399.156 80.027 66.696 146.163 146.503 146.199l20-235.982-20-186.963c-50.684.002-91.775 41.085-91.775 91.771z" fill="#86c983"/><path d="m436.002 185.303c-5.818-5.535-9.179-13.165-9.179-21.195v-56.183c0-50.605-40.477-92.55-91.08-92.926-.233-.002-.464.004-.696.004v422.944c.65 0 1.298.008 1.95 0 80.013-1.044 144.553-66.23 144.553-146.491.001-41.778-17.492-79.465-45.548-106.153z" fill="#58b454"/></g><g><path d="m243.082 384.789c-25.428-25.05-39.47-58.103-39.538-93.07-.071-36.444 14.434-70.362 40.843-95.506 8.824-8.401 13.884-20.104 13.884-32.109v-57.331c0-20.615 8.058-39.967 22.69-54.491 14.492-14.385 33.678-22.285 54.085-22.285h.001l10-14.994-10-14.999c-28.413.021-55.064 10.979-75.221 30.986-20.349 20.199-31.556 47.112-31.556 75.783v57.331c0 3.833-1.666 7.617-4.571 10.382-32.431 30.877-50.243 72.532-50.156 117.292.084 43.043 17.303 83.666 48.485 114.383 30.679 30.222 70.737 46.791 113.018 46.799l10-15.012-10-14.998c-34.348-.019-66.947-13.516-91.964-38.161z" fill="#58b454"/><path d="m446.341 174.436c-2.871-2.731-4.518-6.496-4.518-10.328v-56.183c0-59.077-47.537-107.492-105.968-107.925-.27-.002-.538.004-.807.005v29.993c.194 0 .39 0 .585.002 42.012.312 76.191 35.269 76.191 77.926v56.183c0 12.009 5.044 23.696 13.84 32.063 26.367 25.081 40.887 58.92 40.887 95.285 0 34.821-13.475 67.64-37.943 92.41-24.447 24.749-57.051 38.628-91.806 39.082-.586.008-1.17.001-1.755.001v30.01h.031c.704 0 1.411-.005 2.115-.014 42.689-.557 82.734-17.603 112.757-47.997 30.051-30.422 46.601-70.728 46.601-113.493 0-44.662-17.832-86.221-50.21-117.02z" fill="#3f893c"/></g><g><path d="m262.635 296.66c0 39.992 32.42 72.412 72.412 72.412l20-74.39-20-70.435c-39.992.001-72.412 32.421-72.412 72.413z" fill="#bd8472"/><path d="m335.047 224.248v144.825c39.992 0 72.412-32.42 72.412-72.412s-32.419-72.413-72.412-72.413z" fill="#a05f4b"/></g><path d="m21.583 16.036h80.383c33.137 0 60 26.863 60 60v14.031h-80.383c-33.137 0-60-26.863-60-60z" fill="#86c983"/><g><path d="m70.19 180.835v57.33c0 8.055-3.394 15.692-9.228 21.246-28.092 26.747-45.581 64.528-45.5 106.399.156 80.027 66.696 146.163 146.503 146.199v-422.944c-50.685.001-91.775 41.084-91.775 91.77z" fill="#58b454"/><path d="m262.921 259.365c-5.818-5.535-9.179-13.165-9.179-21.195v-56.183c0-50.605-40.477-92.55-91.08-92.926-.233-.002-.464.004-.696.004v422.944c.65 0 1.298.008 1.95 0 80.013-1.044 144.553-66.23 144.553-146.491 0-41.778-17.493-79.466-45.548-106.153z" fill="#3f893c"/></g></g></svg>