<?xml version="1.0" encoding="iso-8859-1"?>
<!-- Generator: Adobe Illustrator 19.0.0, SVG Export Plug-In . SVG Version: 6.00 Build 0)  -->
<svg version="1.1" id="Capa_1" xmlns="http://www.w3.org/2000/svg" xmlns:xlink="http://www.w3.org/1999/xlink" x="0px" y="0px"
	 viewBox="0 0 512 512" style="enable-background:new 0 0 512 512;" xml:space="preserve">
<g>
	<path style="fill:#334A5E;" d="M434.885,32.437h-91.947v121.419h39.883c0-45.419,36.267-59.541,73.387-60.501V53.771
		C456.219,41.984,446.661,32.437,434.885,32.437"/>
	<path style="fill:#334A5E;" d="M434.885,195.296h-91.947v121.44h39.883c0-45.419,36.267-59.541,73.387-60.501v-39.605
		C456.219,204.832,446.661,195.296,434.885,195.296"/>
	<path style="fill:#334A5E;" d="M434.885,358.315h-91.947v121.44h39.883c0-45.419,36.267-59.541,73.387-60.501v-39.605
		C456.219,367.851,446.661,358.315,434.885,358.315"/>
	<path style="fill:#334A5E;" d="M55.792,53.771v39.584c37.109,0.96,73.387,15.083,73.387,60.501h39.872V32.437H77.125
		C65.339,32.437,55.792,41.984,55.792,53.771"/>
	<path style="fill:#334A5E;" d="M55.792,216.629v39.605c37.109,0.96,73.387,15.083,73.387,60.501h39.872v-121.44H77.125
		C65.339,195.296,55.792,204.832,55.792,216.629"/>
	<path style="fill:#334A5E;" d="M55.792,379.648v39.605c37.109,0.96,73.387,15.083,73.387,60.501h29.205v-121.44H77.125
		C65.339,358.315,55.792,367.851,55.792,379.648"/>
</g>
<path style="fill:#40596B;" d="M321.616,0H190.405c-23.563,0-42.667,19.104-42.667,42.667v426.667
	c0,23.584,19.104,42.667,42.667,42.667h131.221c23.563,0,42.667-19.083,42.667-42.667V42.667C364.283,19.104,345.179,0,321.616,0"/>
<path style="fill:#FF7058;" d="M298.928,50.187c23.723,23.712,23.723,62.144,0,85.856c-23.712,23.712-62.144,23.712-85.856,0
	s-23.712-62.144,0-85.856S275.227,26.475,298.928,50.187"/>
<path style="fill:#FFFFFF;" d="M239.397,55.371c2.891,2.88,0.491,9.963-5.344,15.787c-5.835,5.824-12.907,8.224-15.776,5.333
	c-2.891-2.88-0.491-9.941,5.344-15.776S236.528,52.501,239.397,55.371"/>
<path style="fill:#FFD15C;" d="M316.709,256c0,33.547-27.179,60.704-60.693,60.704c-33.547,0-60.715-27.168-60.715-60.704
	c0-33.525,27.179-60.683,60.715-60.683C289.541,195.317,316.709,222.475,316.709,256"/>
<path style="fill:#FFFFFF;" d="M239.397,218.272c2.891,2.88,0.491,9.963-5.344,15.787c-5.835,5.824-12.907,8.224-15.776,5.333
	c-2.891-2.88-0.491-9.941,5.344-15.776C229.456,217.781,236.528,215.392,239.397,218.272"/>
<path style="fill:#4CDBC4;" d="M316.752,419.147c0,33.547-27.189,60.672-60.725,60.608c-33.547-0.085-60.725-27.317-60.725-60.832
	c0-33.547,27.189-60.672,60.725-60.608C289.563,358.4,316.752,385.621,316.752,419.147"/>
<path style="fill:#FFFFFF;" d="M239.397,381.163c2.891,2.88,0.491,9.963-5.344,15.787c-5.835,5.824-12.907,8.224-15.776,5.333
	c-2.891-2.88-0.491-9.941,5.344-15.776S236.528,378.293,239.397,381.163"/>
<g>
</g>
<g>
</g>
<g>
</g>
<g>
</g>
<g>
</g>
<g>
</g>
<g>
</g>
<g>
</g>
<g>
</g>
<g>
</g>
<g>
</g>
<g>
</g>
<g>
</g>
<g>
</g>
<g>
</g>
</svg>
