<svg height="512" viewBox="0 0 128 128" width="512" xmlns="http://www.w3.org/2000/svg"><path d="m64 18.833h10.75a4.25 4.25 0 1 0 0-8.5h-21.5a4.25 4.25 0 0 0 0 8.5z" fill="#efe1e1"/><path d="m64 18.833h-9v19.357a20.088 20.088 0 0 1 -1.785 8.276l-27.926 61.722a6.712 6.712 0 0 0 6.114 9.479h65.197a6.713 6.713 0 0 0 6.115-9.479l-27.93-61.722a20.072 20.072 0 0 1 -1.785-8.276v-19.357z" fill="#fff5f5"/><g fill="#efe1e1"><path d="m72.675 36.847a1.747 1.747 0 0 0 .325-.033v-3.434a1.747 1.747 0 0 0 -.325-.033h-9.975a1.75 1.75 0 0 0 0 3.5z"/><path d="m72.675 27.71a1.747 1.747 0 0 0 .325-.033v-3.434a1.747 1.747 0 0 0 -.325-.033h-9.975a1.75 1.75 0 0 0 0 3.5z"/></g><path d="m64 110.52h28.21a2 2 0 0 0 1.82-2.821l-10.278-22.714c-13.417 0-20.753-10.08-34.943-10.08l-14.838 32.795a2 2 0 0 0 1.82 2.821z" fill="#00b7f0"/><g fill="#0094ce"><circle cx="71.761" cy="67.977" r="5.116" transform="matrix(.707 -.707 .707 .707 -27.049 70.652)"/><path d="m65.5 55.177a3.815 3.815 0 1 0 -3.815 3.815 3.815 3.815 0 0 0 3.815-3.815z"/></g></svg>