<svg id="Flat" height="512" viewBox="0 0 64 64" width="512" xmlns="http://www.w3.org/2000/svg"><circle cx="44" cy="20" fill="#f8cb3f" r="17"/><g fill="#e7bb2f"><path d="m58 22h-2v-2a12.013 12.013 0 0 0 -12-12h-2v-2h2a14.016 14.016 0 0 1 14 14z"/><path d="m56 24h2v2h-2z"/><path d="m46 28h2v2h-2z"/><path d="m50 28h2v2h-2z"/><circle cx="39" cy="21" r="4"/><path d="m48 22h-2v-1a7.008 7.008 0 0 0 -7-7h-1v-2h1a9.01 9.01 0 0 1 9 9z"/></g><path d="m39 27h-1a12 12 0 0 0 -24 0h-1a10 10 0 0 0 0 20h26a10 10 0 0 0 0-20z" fill="#66bae1"/><g fill="#9ecce3"><path d="m12 42h26v2h-26z"/><path d="m40 42h2v2h-2z"/><path d="m17 26h2v2h-2z"/><path d="m17 22h2v2h-2z"/></g><path d="m13 51h-2v10l8-10h2v-12z" fill="#f8cb3f"/><path d="m29 51h-2v10l8-10h2v-12z" fill="#f8cb3f"/></svg>