<?xml version="1.0" encoding="iso-8859-1"?>
<!-- Generator: Adobe Illustrator 19.0.0, SVG Export Plug-In . SVG Version: 6.00 Build 0)  -->
<svg version="1.1" id="Capa_1" xmlns="http://www.w3.org/2000/svg" xmlns:xlink="http://www.w3.org/1999/xlink" x="0px" y="0px"
	 viewBox="0 0 468.293 468.293" style="enable-background:new 0 0 468.293 468.293;" xml:space="preserve">
<path style="fill:#3A556A;" d="M398.518,25.065v418.163c0,13.847-11.218,25.065-25.065,25.065H94.839
	c-13.847,0-25.065-11.218-25.065-25.065V25.065C69.774,11.217,80.992,0,94.839,0h278.614C387.301,0,398.518,11.217,398.518,25.065z"
	/>
<rect x="96.612" y="54.565" style="fill:#EBF0F3;" width="275.044" height="335.454"/>
<path style="fill:#3A556A;" d="M69.774,390.02v53.207c0,13.847,11.218,25.065,25.065,25.065h278.614
	c13.847,0,25.065-11.218,25.065-25.065V390.02H69.774z"/>
<path style="fill:#31978C;" d="M267.524,117.799c-35.952,5.9-41.264,42.657-39.049,61.273c0.536,4.507,4.36,7.812,8.789,7.812
	c0.346,0,0.701-0.017,1.055-0.061c4.862-0.58,8.331-4.991,7.751-9.844c-0.182-1.514-4.083-37.034,24.326-41.705
	c4.827-0.787,8.097-5.346,7.301-10.173C276.91,120.273,272.36,116.995,267.524,117.799z"/>
<path style="fill:#D15241;" d="M293.596,156.071c-6.225-2.973-13.113-4.776-20.473-4.776c-14.35,0-27.106,6.466-35.876,16.566
	c-7.441-8.681-17.982-14.705-29.852-16.211c-1.949-0.266-3.898-0.355-5.935-0.355c-26.309,0-47.658,21.261-47.658,47.57
	s21.348,103.021,47.658,103.021c7.087,0,13.73-1.594,19.754-4.429c6.201-2.923,11.604-7.086,16.033-12.223
	c8.77,10.098,21.526,16.653,35.876,16.653c17.718,0,33.154-34.778,41.367-65.535C286.776,220.919,279.836,182.912,293.596,156.071z"
	/>
<path style="fill:#CE412D;" d="M221.214,297.456c-6.024,2.835-12.667,4.429-19.754,4.429c-26.309,0-47.658-76.712-47.658-103.021
	s21.348-47.57,47.658-47.57c2.037,0,3.986,0.089,5.935,0.355c-10.984,10.453-17.717,25.158-17.717,41.457
	C189.678,215.517,202.434,268.313,221.214,297.456z"/>
<path style="fill:#31978C;" d="M184.732,115.759c0,29.027,23.532,52.559,52.559,52.559
	C237.292,139.291,213.76,115.759,184.732,115.759z"/>
<path style="fill:#EBF0F3;" d="M237.292,412.383c-11.239,0-20.351,9.112-20.351,20.351c0,11.239,9.111,20.351,20.351,20.351
	c11.24,0,20.351-9.112,20.351-20.351C257.642,421.495,248.531,412.383,237.292,412.383z"/>
<g>
</g>
<g>
</g>
<g>
</g>
<g>
</g>
<g>
</g>
<g>
</g>
<g>
</g>
<g>
</g>
<g>
</g>
<g>
</g>
<g>
</g>
<g>
</g>
<g>
</g>
<g>
</g>
<g>
</g>
</svg>
