<?xml version="1.0" encoding="iso-8859-1"?>
<!-- Generator: Adobe Illustrator 19.0.0, SVG Export Plug-In . SVG Version: 6.00 Build 0)  -->
<svg version="1.1" id="Capa_1" xmlns="http://www.w3.org/2000/svg" xmlns:xlink="http://www.w3.org/1999/xlink" x="0px" y="0px"
	 viewBox="0 0 509.317 509.317" style="enable-background:new 0 0 509.317 509.317;" xml:space="preserve">
<path style="fill:#4B9FD8;" d="M504.322,365.978L329.634,191.273l-74.976,74.976l-74.976-74.976L4.994,365.978
	c-9.744,9.744-4.448,26.416,9.12,28.768l56.144,9.712c7.088,1.232,12.624,6.768,13.856,13.856l9.712,56.144
	c2.352,13.568,19.024,18.864,28.768,9.12l132.064-132.08l132.08,132.08c9.744,9.744,26.416,4.448,28.768-9.12l9.712-56.144
	c1.232-7.088,6.768-12.624,13.856-13.856l56.144-9.712C508.77,392.393,514.066,375.721,504.322,365.978z"/>
<g style="opacity:0.15;">
	<path style="fill:#010101;" d="M332.514,188.745l-74.976,74.976l-74.976-74.976l-110,110c0.608,1.168,1.248,2.336,1.728,3.472
		c3.104,7.472,4.56,17.056,6.08,27.216c2.768,18.272,5.904,38.96,20.496,53.552c14.608,14.592,35.312,17.728,53.568,20.496
		c10.16,1.536,19.744,2.992,27.2,6.08c3.168,1.312,6.464,3.232,9.84,5.456l66.064-66.064l66.064,66.064
		c3.376-2.224,6.672-4.144,9.84-5.456c7.456-3.088,17.056-4.544,27.216-6.08c18.256-2.768,38.96-5.904,53.552-20.496
		c14.608-14.592,17.728-35.296,20.496-53.568c1.536-10.16,2.992-19.728,6.08-27.2c0.464-1.136,1.12-2.32,1.728-3.488
		L332.514,188.745z"/>
</g>
<path style="fill:#E95454;" d="M463.106,226.313c0,26.304-27.616,46.912-37.104,69.776c-9.824,23.696-5.248,57.728-23.104,75.584
	c-17.856,17.856-51.872,13.28-75.584,23.104c-22.864,9.488-43.488,37.104-69.776,37.104c-26.304,0-46.912-27.616-69.776-37.104
	c-23.696-9.824-57.728-5.248-75.584-23.104c-17.856-17.856-13.28-51.872-23.104-75.584c-9.488-22.864-37.104-43.488-37.104-69.776
	c0-26.304,27.616-46.912,37.104-69.776c9.824-23.712,5.248-57.728,23.104-75.584s51.872-13.28,75.584-23.104
	c22.864-9.488,43.488-37.104,69.776-37.104c26.304,0,46.912,27.616,69.776,37.104c23.696,9.824,57.728,5.248,75.584,23.104
	s13.28,51.872,23.104,75.584C435.49,179.401,463.106,200.009,463.106,226.313z"/>
<path style="fill:#ED6362;" d="M220.738,63.001c0,15.888,12.88,28.752,28.752,28.752h38.464c13.296,0,24.128,10.88,24.048,24.176
	v0.304c0,0.592,0.016,1.168,0.048,1.76c0.8,13.104-9.6,24.16-22.736,24.16h-82.96c-15.568,0-29.536,11.664-30.352,27.216
	c-0.864,16.592,12.32,30.304,28.72,30.304h47.76c13.376,0,24.192,10.88,24.112,24.256l-0.016,1.664v0.336
	c0.08,14.064-11.36,25.568-25.424,25.568h-84.368c-15.568,0-29.536,11.664-30.352,27.216c-0.864,16.592,12.32,30.304,28.72,30.304
	h137.504c13.904,0,24.256,11.68,24.096,25.568c0,0.112,0,0.224,0,0.352c0,0.112,0,0.224,0,0.336
	c0.16,13.904-10.192,25.568-24.096,25.568h-23.776c-15.568,0-29.536,11.664-30.352,27.216c-0.864,16.592,12.32,30.304,28.72,30.304
	h14.192c12.096-8.432,23.648-18.56,35.824-23.6c23.696-9.824,57.712-5.248,75.584-23.104c17.872-17.856,13.28-51.888,23.104-75.584
	c9.488-22.864,37.104-43.488,37.104-69.776s-27.616-46.912-37.104-69.776c-9.824-23.696-5.248-57.712-23.104-75.584
	c-17.856-17.872-51.888-13.28-75.584-23.104c-12.176-5.056-23.728-15.168-35.824-23.6h-42
	C233.618,34.233,220.738,47.113,220.738,63.001z"/>
<path style="fill:#F3F3F3;" d="M257.538,379.178c-84.288,0-152.864-68.576-152.864-152.864c0-84.304,68.576-152.88,152.864-152.88
	s152.864,68.576,152.864,152.88C410.402,310.602,341.826,379.178,257.538,379.178z M257.538,105.433
	c-66.656,0-120.864,54.224-120.864,120.88c0,66.64,54.224,120.864,120.864,120.864s120.864-54.224,120.864-120.864
	C378.402,159.657,324.194,105.433,257.538,105.433z"/>
<path style="fill:#FEE218;" d="M346.85,214.553c6.928-5.04,3.376-16-5.2-16h-51.408c-3.824,0-7.232-2.464-8.416-6.112
	l-15.888-48.896c-2.64-8.144-14.176-8.144-16.816,0l-15.888,48.896c-1.184,3.648-4.576,6.112-8.416,6.112H173.41
	c-8.56,0-12.128,10.96-5.2,16l41.584,30.224c3.104,2.256,4.4,6.24,3.216,9.888l-15.888,48.896
	c-2.64,8.144,6.672,14.928,13.616,9.888l41.584-30.224c3.104-2.256,7.296-2.256,10.4,0l41.584,30.224
	c6.928,5.04,16.256-1.744,13.616-9.888l-15.888-48.896c-1.184-3.648,0.112-7.632,3.216-9.888L346.85,214.553z"/>
<g>
</g>
<g>
</g>
<g>
</g>
<g>
</g>
<g>
</g>
<g>
</g>
<g>
</g>
<g>
</g>
<g>
</g>
<g>
</g>
<g>
</g>
<g>
</g>
<g>
</g>
<g>
</g>
<g>
</g>
</svg>
