<?xml version="1.0" encoding="iso-8859-1"?>
<!-- Generator: Adobe Illustrator 19.0.0, SVG Export Plug-In . SVG Version: 6.00 Build 0)  -->
<svg xmlns="http://www.w3.org/2000/svg" xmlns:xlink="http://www.w3.org/1999/xlink" version="1.1" id="Layer_1" x="0px" y="0px" viewBox="0 0 512 512" style="enable-background:new 0 0 512 512;" xml:space="preserve">
<path style="fill:#FFD664;" d="M384.102,222.552c-16.79-13.931-39.173-18.263-59.878-11.583c-6.092,1.964-12.764-0.154-16.605-5.278  c-9.167-12.227-21.039-22.613-34.333-30.038c-7.675-4.286-7.776-11.575-7.776-16.6c0-46.071,37.454-83.553,83.49-83.553  c46.031,0,83.48,37.481,83.48,83.553c0,24.342-10.571,47.419-29.003,63.314C397.931,227.149,389.74,227.23,384.102,222.552z"/>
<path style="fill:#FFBB54;" d="M349,75.5c-0.002,0-0.003,0-0.005,0v132.619c12.678,1.071,24.922,5.982,35.107,14.432  c5.638,4.679,13.829,4.597,19.375-0.185c18.432-15.896,29.003-38.973,29.003-63.314C432.48,112.981,395.031,75.5,349,75.5z"/>
<path style="fill:#F9F4F7;" d="M422,436.5H90c-49.741,0-90-40.301-90-90.079c0-46.796,35.84-85.373,81.488-89.681  c7.314-70.081,66.684-124.891,138.602-124.891c40.239,0,78.596,17.359,105.116,47.896c52.463-10.668,102.919,25.229,110.761,77.666  C478.253,263.97,512,300.653,512,346.421C512,396.091,471.626,436.5,422,436.5z"/>
<path style="fill:#F5EDF0;" d="M435.967,257.412c-7.842-52.437-58.298-88.333-110.761-77.666  c-18.454-21.25-42.643-36.109-69.206-43.188V436.5h166c49.626,0,90-40.409,90-90.079C512,300.653,478.253,263.97,435.967,257.412z"/>
<g>
</g>
<g>
</g>
<g>
</g>
<g>
</g>
<g>
</g>
<g>
</g>
<g>
</g>
<g>
</g>
<g>
</g>
<g>
</g>
<g>
</g>
<g>
</g>
<g>
</g>
<g>
</g>
<g>
</g>
</svg>
