<svg id="Capa_1" enable-background="new 0 0 511.855 511.855" height="512" viewBox="0 0 511.855 511.855" width="512" xmlns="http://www.w3.org/2000/svg"><g><g><path d="m255.927.006c-.345 0-.689-.008-1.034-.006-76.853.542-140.136 62.363-142.372 139.185-1.222 41.974 15.593 80.035 43.265 107.012 16.553 16.136 26.208 38.052 26.208 61.169v33.015l73.933 20 20-169.026z" fill="#ffe377"/><path d="m255.927.006v360.375l73.933-20v-33.017c0-23.06 9.563-44.976 26.094-61.055 26.796-26.064 43.442-62.508 43.442-102.843 0-79.235-64.234-143.458-143.469-143.46z" fill="#ffb555"/></g><g><path d="m213.92 166.621c0-23.163 18.845-42.008 42.008-42.008l10-18.258-10-11.742c-39.705 0-72.008 32.303-72.008 72.008 0 34.562 24.479 63.504 57.008 70.426v113.335h15l10-79.026-10-62.726c-23.164-.001-42.008-18.846-42.008-42.009z" fill="#ffb555"/><path d="m255.927 94.613v30c23.163 0 42.008 18.845 42.008 42.008 0 23.164-18.845 42.008-42.008 42.008v141.752h15v-113.335c32.528-6.921 57.008-35.864 57.008-70.426 0-39.705-32.302-72.007-72.008-72.007z" fill="#ff9000"/></g><path d="m209.542 435.327v44.661c0 17.6 14.268 31.868 31.868 31.868h14.518l10-41.667-10-44.862z" fill="#607882"/><path d="m255.927 511.855h14.518c17.6 0 31.868-14.268 31.868-31.868v-44.661l-46.385-10v86.529z" fill="#495959"/><path d="m255.927 340.381h-73.933v94.946h73.933l20-47.473z" fill="#dce6eb"/><path d="m255.927 340.381h73.933v94.945h-73.933z" fill="#c8d2dc"/></g></svg>