<?xml version="1.0" encoding="iso-8859-1"?>
<!-- Generator: Adobe Illustrator 19.0.0, SVG Export Plug-In . SVG Version: 6.00 Build 0)  -->
<svg version="1.1" id="Capa_1" xmlns="http://www.w3.org/2000/svg" xmlns:xlink="http://www.w3.org/1999/xlink" x="0px" y="0px"
	 viewBox="0 0 512 512" style="enable-background:new 0 0 512 512;" xml:space="preserve">
<path style="fill:#536080;" d="M102.2,512c-8.432,0-15.268-6.836-15.268-15.268v-38.551c0-8.432,6.836-15.268,15.268-15.268
	s15.268,6.836,15.268,15.268v38.551C117.468,505.164,110.632,512,102.2,512z"/>
<path style="fill:#394257;" d="M267.865,512c-8.432,0-15.268-6.836-15.268-15.268v-38.551c0-8.432,6.836-15.268,15.268-15.268
	s15.268,6.836,15.268,15.268v38.551C283.133,505.164,276.297,512,267.865,512z"/>
<path style="fill:#536080;" d="M235.771,120.617H134.295c-8.432,0-15.268-6.836-15.268-15.268V41.227
	C119.026,18.494,137.52,0,160.251,0h49.56c22.733,0,41.227,18.494,41.227,41.227v64.122
	C251.039,113.781,244.203,120.617,235.771,120.617z M149.562,90.08h70.939V41.227c0-5.895-4.795-10.69-10.69-10.69h-49.56
	c-5.894,0-10.689,4.795-10.689,10.69V90.08z"/>
<path style="fill:#394257;" d="M209.812,0h-24.781v30.537h24.781c5.895,0,10.69,4.795,10.69,10.69V90.08h-35.471v30.537h50.739
	c8.432,0,15.268-6.836,15.268-15.268V41.227C251.039,18.494,232.545,0,209.812,0z"/>
<path style="fill:#45CC5C;" d="M279.702,90.08H90.362c-32.721,0-59.342,26.62-59.342,59.342v264.685
	c0,32.721,26.62,59.342,59.342,59.342h189.34c32.721,0,59.342-26.62,59.342-59.342V149.423
	C339.044,116.7,312.424,90.08,279.702,90.08z"/>
<path style="fill:#05B036;" d="M279.702,90.08h-94.67v383.369h94.67c32.721,0,59.342-26.62,59.342-59.342V149.423
	C339.044,116.7,312.424,90.08,279.702,90.08z"/>
<circle style="fill:#B4E8FF;" cx="323.772" cy="296.003" r="102.247"/>
<path style="fill:#536080;" d="M476.508,427.143L416.965,367.6c35.427-46.044,32.065-112.53-10.095-154.689
	c-45.817-45.818-120.369-45.816-166.186,0c-45.818,45.817-45.818,120.369,0,166.186c22.909,22.909,53.001,34.364,83.094,34.364
	c25.286,0,50.571-8.092,71.596-24.269l59.544,59.544c2.981,2.981,6.889,4.473,10.796,4.473c3.907,0,7.815-1.491,10.796-4.473
	C482.471,442.773,482.471,433.105,476.508,427.143z M262.276,357.504c-33.911-33.911-33.911-89.089,0-123.001
	c16.956-16.955,39.229-25.433,61.501-25.433c22.272,0,44.544,8.478,61.5,25.433c33.911,33.911,33.911,89.089,0,123.001
	C351.363,391.415,296.187,391.413,262.276,357.504z"/>
<g>
</g>
<g>
</g>
<g>
</g>
<g>
</g>
<g>
</g>
<g>
</g>
<g>
</g>
<g>
</g>
<g>
</g>
<g>
</g>
<g>
</g>
<g>
</g>
<g>
</g>
<g>
</g>
<g>
</g>
</svg>
