<svg height="512" viewBox="0 0 58 50" width="512" xmlns="http://www.w3.org/2000/svg"><g id="Page-1" fill="none" fill-rule="evenodd"><g id="012---Download-Document"><path id="Path" d="m26.19 0h-18.19c-4.418278 0-8 3.581722-8 8v24c0 4.418278 3.581722 8 8 8h4c.5522847 0 1 .4477153 1 1v7.845c-.0019864.391258.2243935.747735.5793605.9123107.3549671.1645756.7733097.1070153 1.0706395-.1473107l11.07-9.373c.1805176-.152931.4094107-.2369057.646-.237h23.634c4.418278 0 8-3.581722 8-8v-24c0-4.418278-3.581722-8-8-8z" fill="#b0d3f0"/><path id="Path" d="m28 16v15c0 .5522847-.4477153 1-1 1h-16c-.5522847 0-1-.4477153-1-1v-22c0-.55228475.4477153-1 1-1h9z" fill="#ecf0f1"/><path id="Path" d="m20 8v7c0 .5522847.4477153 1 1 1h7z" fill="#fff"/><path id="Path" d="m54 31c-.5522847 0-1 .4477153-1 1 0 1.6568542-1.3431458 3-3 3-.5522847 0-1 .4477153-1 1s.4477153 1 1 1c2.7600532-.0033061 4.9966939-2.2399468 5-5 0-.5522847-.4477153-1-1-1z" fill="#90bae1"/><path id="Path" d="m8 3c-2.76005315.00330612-4.99669388 2.23994685-5 5 .00000001.55228474.44771526.99999998 1 .99999998s.99999999-.44771524 1-.99999998c0-1.65685425 1.34314575-3 3-3 .55228473-.00000002.99999996-.44771527.99999996-1s-.44771523-.99999998-.99999996-1z" fill="#ecf0f1"/><path id="Path" d="m51 27v-5c0-.5522847-.4477153-1-1-1s-1 .4477153-1 1v5h-14v-5c0-.5522847-.4477153-1-1-1s-1 .4477153-1 1v5c0 1.1045695.8954305 2 2 2h14c1.1045695 0 2-.8954305 2-2z" fill="#3f5c6c"/><path id="Path" d="m41.293 24.707c.3904999.3903819 1.0235001.3903819 1.414 0l3-3c.3789722-.3923789.3735524-1.0160848-.0121814-1.4018186s-1.0094397-.3911536-1.4018186-.0121814l-1.293 1.293v-7.586c0-.5522847-.4477153-1-1-1s-1 .4477153-1 1v7.586l-1.293-1.293c-.3923789-.3789722-1.0160848-.3735524-1.4018186.0121814s-.3911536 1.0094397-.0121814 1.4018186z" fill="#547580"/></g></g></svg>