<?xml version="1.0" encoding="iso-8859-1"?>
<!-- Generator: Adobe Illustrator 19.0.0, SVG Export Plug-In . SVG Version: 6.00 Build 0)  -->
<svg xmlns="http://www.w3.org/2000/svg" xmlns:xlink="http://www.w3.org/1999/xlink" version="1.1" id="Layer_1" x="0px" y="0px" viewBox="0 0 511.999 511.999" style="enable-background:new 0 0 511.999 511.999;" xml:space="preserve">
<path style="fill:#EAEAE9;" d="M464.403,232.278c-1.582-1.579-3.728-2.462-5.962-2.462c-0.009,0-0.02,0-0.02,0l-9.789,0.03  c-14.453,0-27.612-7.394-35.204-19.777l-3.599-5.872c-1.536-2.507-4.261-4.034-7.201-4.034c-2.938,0-5.665,1.527-7.201,4.034  l-3.601,5.872c-7.59,12.383-20.752,19.777-35.204,19.777h-5.115c-14.451,0-27.613-7.393-35.203-19.775l-3.599-5.872  c-1.536-2.507-4.264-4.033-7.2-4.033c-2.94,0-5.667,1.526-7.201,4.033l-3.6,5.872c-7.591,12.382-20.75,19.775-35.205,19.775h-5.11  c-14.451,0-27.61-7.394-35.204-19.775l-3.598-5.876c-1.535-2.504-4.261-4.031-7.199-4.031c-2.939,0-5.667,1.526-7.203,4.031  l-3.599,5.876c-7.593,12.381-20.754,19.775-35.206,19.775h-5.113c-14.452,0-27.613-7.394-35.204-19.777l-3.599-5.872  c-1.536-2.507-4.261-4.034-7.201-4.034c-2.939,0-5.665,1.527-7.201,4.034l-3.6,5.872c-7.59,12.383-20.749,19.777-35.168,19.777  l-9.816-0.03c-2.271-0.039-4.4,0.877-5.99,2.462c-1.589,1.585-2.483,3.738-2.483,5.983v247.175c0,4.664,3.783,8.445,8.446,8.445  h246.364c4.662,0,8.444-3.781,8.444-8.445V304.463h102.867v180.973c0,4.664,3.782,8.445,8.446,8.445h36.871  c4.664,0,8.444-3.781,8.444-8.445V238.26C466.885,236.017,465.992,233.863,464.403,232.278z M258.236,304.464v90.486H103.815  v-90.486H258.236z"/>
<path style="opacity:0.15;fill:#30302F;enable-background:new    ;" d="M67.242,485.436V238.26c0-2.245,0.896-4.397,2.483-5.983  c1.591-1.585,3.72-2.501,5.99-2.462l2.189,0.007c0.065,0,0.128-0.008,0.194-0.007l7.644,0.023  c14.336-0.071,27.404-34.187,34.958-46.509l0.682-1.112l-2.918-4.762c-1.536-2.507-4.261-4.034-7.201-4.034  c-2.939,0-5.665,1.527-7.201,4.034l-3.6,5.872c-7.59,12.383-20.749,46.515-35.168,46.515l-9.816-0.03  c-2.271-0.039-4.4,0.877-5.99,2.462c-1.589,1.585-2.483,3.738-2.483,5.983v247.175c0,4.664,3.783,8.445,8.446,8.445h20.239  C71.025,493.881,67.242,490.1,67.242,485.436z"/>
<g>
	<path style="fill:#FFD05C;" d="M412.101,189.77l-6.999-55.683c-0.418-3.336-2.237-6.178-4.815-7.99   c0.014-0.221,0.032-0.438,0.032-0.662c0-2.609-0.866-5.016-2.326-6.947l-30.631-46.61c-2.132-3.241-5.753-5.196-9.635-5.196h-60.54   c-3.457,0-6.736,1.555-8.925,4.234c-2.19,2.677-3.059,6.2-2.373,9.588l9.583,47.227c0.294,1.453,0.861,2.789,1.63,3.973   c-0.496,1.412-0.725,2.916-0.644,4.442l2.958,54.927c0.097,29.563,24.176,53.582,53.762,53.582h5.251   c29.143,0,53.259-23.704,53.756-52.879l0.006-0.407C412.198,190.835,412.167,190.3,412.101,189.77z"/>
	<path style="fill:#FFD05C;" d="M214.806,66.68h-60.537c-3.88,0-7.501,1.955-9.632,5.196l-31.035,47.227   c-1.379,2.099-1.992,4.547-1.857,6.973c-2.594,1.808-4.429,4.664-4.849,8.009l-6.971,55.46l-0.025,0.201   c-0.069,0.536-0.1,1.075-0.091,1.617l0.004,0.455c0.497,29.133,24.612,52.833,53.754,52.833h5.251   c29.537,0,53.588-23.938,53.763-53.434l2.957-55.077c0.08-1.527-0.146-3.033-0.642-4.442c0.767-1.187,1.334-2.521,1.63-3.971   l9.582-47.227c0.688-3.388-0.184-6.91-2.373-9.588C221.543,68.236,218.269,66.68,214.806,66.68z"/>
</g>
<g>
	<path style="fill:#EF5440;" d="M152.348,72.738c-2.012-3.73-5.909-6.057-10.146-6.057H83.208c-2.841,0-5.58,1.052-7.695,2.945   L26.54,113.517l0,0l-0.002,0.002l-2.525,2.26h-0.001l0,0l-1.192,1.07c-0.111,0.097-0.209,0.208-0.314,0.31   c-0.534,0.497-1.045,0.986-1.534,1.464c-4.528,4.932-10.515,13.463-12.714,25.695l-7.987,44.471l-0.099,0.572   c-0.131,0.749-0.186,1.508-0.168,2.272l0.013,0.579c0.701,28.917,24.811,52.439,53.743,52.439h5.254   c29.504,0,53.536-23.891,53.762-53.343l6.18-49.156l1.383-9.765c0.159-0.199,0.318-0.404,0.462-0.621l49.176-73.97   C172.302,54.258,154.36,76.467,152.348,72.738z"/>
	<path style="fill:#EF5440;" d="M359.65,72.738c2.013-3.73,5.908-6.057,10.147-6.057h58.992c2.842,0,5.582,1.052,7.696,2.945   l48.973,43.892l0,0l0.002,0.002l2.526,2.26l0,0l0,0l1.192,1.07c0.111,0.097,0.209,0.208,0.314,0.31   c0.533,0.497,1.045,0.986,1.533,1.464c4.53,4.932,10.516,13.463,12.715,25.695l7.987,44.471l0.099,0.572   c0.13,0.749,0.186,1.508,0.168,2.272l-0.013,0.579c-0.701,28.917-24.811,52.439-53.744,52.439h-5.253   c-29.506,0-53.536-23.891-53.763-53.343l-6.179-49.156l-1.383-9.765c-0.159-0.199-0.319-0.404-0.462-0.621l-49.174-73.968   C339.698,54.258,357.641,76.467,359.65,72.738z"/>
	<path style="fill:#EF5440;" d="M312.386,191.291c0-0.113,0-0.221-0.003-0.332l-0.008-0.265c0-0.124-0.007-0.251-0.012-0.373   l-2.465-45.831l-0.003-0.078l-0.511-9.508c-0.007-0.099-0.029-0.191-0.038-0.29l-0.255-4.569l-1.147-5.934   c-0.059-0.51-0.153-1.009-0.276-1.5l-0.346-1.71l-0.002-0.012l-9.126-44.971c-1.091-5.374-5.817-9.238-11.299-9.238h-61.792   c-5.481,0-10.205,3.864-11.298,9.238l-9.126,44.971l-0.002,0.012l-0.348,1.71c-0.123,0.489-0.216,0.989-0.273,1.5l-1.15,5.934   l-0.255,4.569c-0.007,0.099-0.029,0.191-0.035,0.29l-0.514,9.508l-0.002,0.078l-2.464,45.831c-0.009,0.123-0.013,0.25-0.014,0.373   l-0.007,0.265c-0.002,0.111-0.002,0.219-0.002,0.332l0,0l0,0c0.203,27.587,21.409,50.35,48.309,53.086   c1.793,0.182,3.611,0.274,5.451,0.274h5.251c1.84,0,3.659-0.092,5.451-0.274C290.976,241.642,312.183,218.878,312.386,191.291   L312.386,191.291L312.386,191.291z"/>
</g>
<g style="opacity:0.15;">
	<path style="fill:#30302F;" d="M169.974,57.799c1.276-1.943-3.547,3.86-8.493,8.883h2.585L169.974,57.799z"/>
	<path style="fill:#30302F;" d="M184.754,74.17c1.787-1.097,3.863-1.725,6.024-1.725h-12.069   C180.885,72.446,182.966,73.066,184.754,74.17z"/>
	<path style="fill:#30302F;" d="M170.605,68.405c1.791-1.097,3.863-1.725,6.024-1.725h-12.068   C166.737,66.68,168.819,67.302,170.605,68.405z"/>
	<path style="fill:#30302F;" d="M22.375,192.213l-0.013-0.579c-0.018-0.763,0.037-1.523,0.168-2.272l0.099-0.572l7.987-44.471   c2.2-12.233,8.186-20.764,12.714-25.695c0.489-0.479,1-0.967,1.534-1.464c0.106-0.103,0.204-0.213,0.314-0.31l1.192-1.07h0.001   l2.525-2.26l0.002-0.002l48.974-43.893c2.115-1.892,4.854-2.945,7.695-2.945h-22.36c-2.841,0-5.58,1.052-7.695,2.945L26.54,113.517   l-0.002,0.002l-2.525,2.26h-0.001l-1.192,1.07c-0.111,0.097-0.209,0.208-0.314,0.31c-0.534,0.497-1.045,0.986-1.534,1.464   c-4.528,4.932-10.515,13.463-12.714,25.695l-7.987,44.471l-0.099,0.572c-0.131,0.749-0.186,1.508-0.168,2.272l0.013,0.579   c0.701,28.917,24.811,52.439,53.743,52.439h5.254c2.178,0,4.322-0.154,6.433-0.408c-0.696-0.368-1.379-0.755-2.059-1.152   C40.431,237.406,22.969,216.756,22.375,192.213z"/>
</g>
<path style="fill:#415B6B;" d="M441.064,74.004V26.977c0-4.893-3.966-8.859-8.857-8.859H80.593c-4.893,0-8.856,3.966-8.856,8.859  v47.028H441.064z"/>
<path style="fill:#698593;" d="M412.191,55.034H101.7c-4.374,0-7.918-3.544-7.918-7.918c0-4.373,3.545-7.918,7.918-7.918h310.491  c4.374,0,7.919,3.546,7.919,7.918C420.11,51.491,416.565,55.034,412.191,55.034z"/>
<polygon style="fill:#FFD05C;" points="300.757,294.964 300.757,337.188 300.757,346.689 300.757,493.881 422.628,493.881   422.628,346.689 422.628,337.188 422.628,294.964 "/>
<polygon style="fill:#FBB85F;" points="300.757,294.964 300.757,297.563 300.757,337.188 300.757,339.787 300.757,346.689   300.757,349.288 300.757,493.881 320.814,493.881 320.814,366.735 320.814,364.136 320.814,357.234 320.814,354.635   320.814,315.008 422.628,315.008 422.628,312.409 422.628,297.563 422.628,294.964 "/>
<rect x="94.319" y="294.965" style="fill:#60B7E2;" width="173.419" height="109.493"/>
<polygon style="opacity:0.15;fill:#30302F;enable-background:new    ;" points="114.495,404.451 114.495,314.884 267.736,314.884   267.736,296.914 267.736,294.964 94.314,294.964 94.314,404.451 95.289,404.451 "/>
<rect x="300.76" y="336.131" style="fill:#EAEAE9;" width="121.87" height="17.959"/>
<g>
</g>
<g>
</g>
<g>
</g>
<g>
</g>
<g>
</g>
<g>
</g>
<g>
</g>
<g>
</g>
<g>
</g>
<g>
</g>
<g>
</g>
<g>
</g>
<g>
</g>
<g>
</g>
<g>
</g>
</svg>
