<?xml version="1.0" encoding="iso-8859-1"?>
<!-- Generator: Adobe Illustrator 19.0.0, SVG Export Plug-In . SVG Version: 6.00 Build 0)  -->
<svg version="1.1" id="Capa_1" xmlns="http://www.w3.org/2000/svg" xmlns:xlink="http://www.w3.org/1999/xlink" x="0px" y="0px"
	 viewBox="0 0 512 512" style="enable-background:new 0 0 512 512;" xml:space="preserve">
<path style="fill:#00459F;" d="M512,76.452c0,11.16-4.244,21.739-11.961,29.806l-250.47,261.96L227.87,347.46l0.13-0.13
	l-15.554-15.233l-14.793-14.503l-0.35,0.34l-20.758-21.699L439.026,45.255c8.087-7.727,18.656-11.961,29.816-11.961h0.49
	c11.34,0.13,22.009,4.614,30.026,12.631C507.516,54.093,512,64.932,512,76.452z"/>
<path style="fill:#002D6B;" d="M512,76.452c0,11.16-4.244,21.739-11.961,29.806l-250.47,261.96L227.87,347.46l0.13-0.13
	l-15.554-15.233L499.359,45.925C507.516,54.093,512,64.932,512,76.452z"/>
<path style="fill:#FFC473;" d="M247.267,416.071c-22.68,46.281-75.987,62.635-119.875,62.635c-1.411,0-2.802-0.02-4.194-0.05
	c-15.814-0.38-32.939-3.153-49.233-8.437c-30.267-9.819-57.631-28.295-68.16-56.129L0,398.745l15.804-4.424
	c19.577-5.485,43.919-14.182,58.511-32.889c3.863-4.954,7.196-10.139,10.719-15.634c7.837-12.211,15.934-24.832,30.136-35.051
	c18.877-13.582,41.426-20.558,63.516-19.637c20.008,0.841,38.164,8.938,51.996,22.8c4.804,4.804,9.098,10.319,12.751,16.464
	C258.928,356.428,260.399,389.267,247.267,416.071z"/>
<path style="fill:#FFAA20;" d="M247.267,416.071c-22.68,46.281-75.987,62.635-119.875,62.635c-1.411,0-2.802-0.02-4.194-0.05
	c-15.814-0.38-32.939-3.153-49.233-8.437l156.718-156.307c4.804,4.804,9.098,10.319,12.751,16.464
	C258.928,356.428,260.399,389.267,247.267,416.071z"/>
<g>
</g>
<g>
</g>
<g>
</g>
<g>
</g>
<g>
</g>
<g>
</g>
<g>
</g>
<g>
</g>
<g>
</g>
<g>
</g>
<g>
</g>
<g>
</g>
<g>
</g>
<g>
</g>
<g>
</g>
</svg>
