<svg id="Capa_1" enable-background="new 0 0 512 512" height="512" viewBox="0 0 512 512" width="512" xmlns="http://www.w3.org/2000/svg"><g><path d="m471.737 162.933c0-2.81-2.278-5.088-5.088-5.088h-46.856c-2.81 0-5.088 2.278-5.088 5.088l.001 267.516h57.031z" fill="#e28086"/><path d="m414.706 430.449 26.1 44.109c.549.928 1.43 1.534 2.415 1.835.985-.3 1.866-.907 2.415-1.835l26.1-44.109z" fill="#bed8fb"/><path d="m456.749 122.702c0-3.672-3.416-6.649-7.63-6.649h-11.796c-4.214 0-7.629 2.977-7.629 6.649v35.144h27.055z" fill="#90d8f9"/><path d="m474.657 162.933c0-2.81-2.278-5.088-5.088-5.088h-23.361c2.81 0 5.087 2.278 5.087 5.088l.001 267.516h-36.59 59.951z" fill="#dd636e"/><path d="m100.996 49.497c0-27.294-22.118-49.497-49.497-49.497-27.336 0-49.496 22.16-49.496 49.497v408.168c0 7.397 5.996 13.392 13.392 13.392h337.851v-421.56z" fill="#407093"/><path d="m360.15 98.994h-308.65.003-3.899v399.614c0 7.396 5.996 13.392 13.392 13.392h317.233c7.396 0 13.392-5.996 13.392-13.392v-408.709c-8.892 5.721-19.744 9.095-31.471 9.095z" fill="#e7ecf6"/><g><path d="m502.271 316.596c-4.267 0-7.726-3.459-7.726-7.726l-.001-111.764c0-1.587-2.049-3.355-4.99-3.355h-74.848c-4.267 0-7.726-3.459-7.726-7.726s3.459-7.726 7.726-7.726h74.848c11.273 0 20.443 8.437 20.443 18.808v111.764c0 4.266-3.459 7.725-7.726 7.725z" fill="#407093"/></g><circle cx="169.85" cy="211.603" fill="#95d6a4" r="55.702"/><g><path d="m341.962 335.839h-232.821c-4.267 0-7.726-3.459-7.726-7.726s3.459-7.726 7.726-7.726h232.821c4.267 0 7.726 3.459 7.726 7.726.001 4.267-3.459 7.726-7.726 7.726z" fill="#407093"/></g><g><path d="m341.962 394.243h-232.821c-4.267 0-7.726-3.459-7.726-7.726s3.459-7.726 7.726-7.726h232.821c4.267 0 7.726 3.459 7.726 7.726s-3.459 7.726-7.726 7.726z" fill="#407093"/></g><g><path d="m341.962 452.647h-232.821c-4.267 0-7.726-3.459-7.726-7.726s3.459-7.726 7.726-7.726h232.821c4.267 0 7.726 3.459 7.726 7.726.001 4.267-3.459 7.726-7.726 7.726z" fill="#407093"/></g><g><path d="m181.373 200.349c-2.311-3.587-1.277-8.369 2.31-10.68l62.486-40.263c1.248-.804 2.701-1.231 4.185-1.231h74.849c4.267 0 7.726 3.459 7.726 7.726s-3.459 7.726-7.726 7.726h-72.575l-60.575 39.032c-3.587 2.311-8.368 1.277-10.68-2.31z" fill="#e28086"/></g><g><path d="m325.203 263.726h-68.668c-4.267 0-7.726-3.459-7.726-7.726s3.459-7.726 7.726-7.726h68.668c4.267 0 7.726 3.459 7.726 7.726s-3.459 7.726-7.726 7.726z" fill="#e28086"/></g><path d="m451.296 430.449-18.295 30.918 7.806 13.191c1.624 2.744 6.127 2.744 7.751 0l26.1-44.109z" fill="#9dc6fb"/><path d="m442.148 122.702v35.144h17.521v-35.144c0-3.672-3.416-6.649-7.63-6.649-15.856 0-15.088-.05-16.119.117 3.544.574 6.228 3.277 6.228 6.532z" fill="#75cef9"/><path d="m362.418 98.95v399.658c0 7.396-5.996 13.392-13.392 13.392h29.202c7.396 0 13.392-5.996 13.392-13.392v-408.709c-8.315 5.35-18.345 8.646-29.202 9.051z" fill="#d8e2f1"/><path d="m438.022 49.497c0-27.337-24.406-49.497-54.511-49.497-10.5 0-312.053 0-332.011 0 27.336 0 49.497 22.16 49.497 49.497 0 27.336-22.161 49.497-49.497 49.497h332.012c30.104 0 54.51-22.161 54.51-49.497z" fill="#9dc6fb"/><path d="m386.432 0c-10.767 0-18.598 0-29.202 0 30.105 0 54.51 22.16 54.51 49.497 0 27.336-24.405 49.497-54.51 49.497h29.202c30.105 0 54.51-22.16 54.51-49.497 0-27.337-24.405-49.497-54.51-49.497z" fill="#80b4fb"/></g></svg>