<svg height="512" viewBox="0 0 58 58" width="512" xmlns="http://www.w3.org/2000/svg"><g id="Page-1" fill="none" fill-rule="evenodd"><g id="012---Search"><path id="Path" d="m29 58h2.69c.5728325-.0010317 1.1066273-.2904838 1.42-.77l2.04-3.08 7.29-3.02 3.62.74c.5610882.1156624 1.1428413-.0569869 1.55-.46l3.8-3.8c.4030131-.4071587.5756624-.9889118.46-1.55l-.74-3.62 3.02-7.29 3.08-2.04c.4795162-.3133727.7689683-.8471675.77-1.42v-5.38c-.0010317-.5728325-.2904838-1.1066273-.77-1.42l-3.08-2.04-3.02-7.29.74-3.62c.1156624-.5610882-.0569869-1.1428413-.46-1.55l-3.8-3.8c-.4071587-.40301307-.9889118-.5756624-1.55-.46l-3.62.74-7.29-3.02-2.04-3.08c-.3133727-.47951616-.8471675-.76896826-1.42-.77h-5.38c-.5728325.00103174-1.1066273.29048384-1.42.77l-2.04 3.08-7.29 3.02-3.62-.74c-.5610882-.1156624-1.1428413.05698693-1.55.46l-3.8 3.8c-.40301307.4071587-.5756624.9889118-.46 1.55l.74 3.62-3.02 7.29-3.08 2.04c-.47951616.3133727-.76896826.8471675-.77 1.42v5.38c.00103174.5728325.29048384 1.1066273.77 1.42l3.08 2.04 3.02 7.29-.74 3.62c-.1156624.5610882.05698693 1.1428413.46 1.55l3.8 3.8c.4071587.4030131.9889118.5756624 1.55.46l3.62-.74 7.29 3.02 2.04 3.08c.3133727.4795162.8471675.7689683 1.42.77z" fill="#bdc3c7"/><circle id="Oval" cx="29" cy="29" fill="#67b9cc" r="17"/><path id="Path" d="m16 30c-.5522847 0-1-.4477153-1-1-.003552-6.0267066 3.8528414-11.3783541 9.571-13.282.5246705-.1750742 1.0919257.1083295 1.267.633.1750742.5246705-.1083295 1.0919257-.633 1.267-4.8992323 1.6332049-8.2040916 6.2177155-8.205 11.382 0 .5522847-.4477153 1-1 1z" fill="#fff"/><path id="Path" d="m42.95 38.71 12.29 12.29c1.1698135 1.1712702 1.1698135 3.0687298 0 4.24-.5617198.5632738-1.3245087.8798486-2.12.8798486s-1.5582802-.3165748-2.12-.8798486l-12.29-12.29z" fill="#e64c3c"/><circle id="Oval" cx="29" cy="16" fill="#fff" r="1"/><path id="Shape" d="m29 47c-9.9411255 0-18-8.0588745-18-18s8.0588745-18 18-18 18 8.0588745 18 18c-.0115721 9.9363282-8.0636718 17.9884279-18 18zm0-34c-8.836556 0-16 7.163444-16 16s7.163444 16 16 16 16-7.163444 16-16c-.0104696-8.8322157-7.1677843-15.9895304-16-16z" fill="#7f8c8d" fill-rule="nonzero"/></g></g></svg>