<svg height="512" viewBox="0 0 128 128" width="512" xmlns="http://www.w3.org/2000/svg"><g id="icon"><g fill="#2f3a5a"><path d="m72.836 109.38a.982.982 0 0 1 -.261-.035 1 1 0 0 1 -.7-1.226l4.073-15.1a1 1 0 1 1 1.931.52l-4.079 15.101a1 1 0 0 1 -.964.74z"/><path d="m53.646 109.379a1 1 0 0 1 -.984-.827l-2.646-15.1a1 1 0 0 1 1.97-.345l2.646 15.1a1 1 0 0 1 -.813 1.157.926.926 0 0 1 -.173.015z"/><path d="m67.254 109.946a1.046 1.046 0 0 1 -.124-.008 1 1 0 0 1 -.87-1.114l1.925-15.667a1 1 0 1 1 1.985.244l-1.925 15.667a1 1 0 0 1 -.991.878z"/><path d="m59.875 109.946a1 1 0 0 1 -.987-.849l-2.388-15.667a1 1 0 1 1 1.977-.3l2.388 15.67a1 1 0 0 1 -.838 1.14 1.122 1.122 0 0 1 -.152.006z"/></g><path d="m102.8 33.588c-2.493-15.51-10.679-23.657-18.243-27.926a37.359 37.359 0 0 0 -18.387-4.662h-4.34a37.359 37.359 0 0 0 -18.387 4.662c-7.564 4.269-15.75 12.416-18.243 27.926-3.731 23.212 16.445 37.717 25.064 60.512h27.472c8.619-22.795 28.795-37.3 25.064-60.512z" fill="#da2a47"/><path d="m96.412 33.588c-2.083-15.51-8.921-23.657-15.239-27.926a27.259 27.259 0 0 0 -15.361-4.662h-3.624a27.259 27.259 0 0 0 -15.361 4.662c-6.318 4.269-13.156 12.416-15.239 27.926-3.116 23.212 13.738 37.717 20.937 60.512h22.95c7.199-22.795 24.053-37.3 20.937-60.512z" fill="#ef5361"/><path d="m89.312 33.588c-1.626-15.51-6.967-23.657-11.9-27.926a18.155 18.155 0 0 0 -11.997-4.662h-2.83a18.155 18.155 0 0 0 -12 4.662c-4.934 4.269-10.275 12.416-11.9 27.926-2.431 23.212 10.731 37.717 16.354 60.512h17.922c5.623-22.795 18.785-37.3 16.351-60.512z" fill="#dbe2eb"/><path d="m74.233 33.588c-.658-15.51-2.817-23.657-4.811-27.926-1.475-3.157-3.156-4.662-4.85-4.662h-1.144c-1.694 0-3.375 1.505-4.85 4.662-1.994 4.269-4.153 12.416-4.811 27.926-.984 23.212 4.333 37.717 6.61 60.512h7.246c2.277-22.795 7.594-37.3 6.61-60.512z" fill="#ef5361"/><path d="m51.486 108.378v16.265a2.358 2.358 0 0 0 2.358 2.357h20.312a2.358 2.358 0 0 0 2.358-2.357v-16.265z" fill="#d0aa79"/><path d="m76.51 108.38v16.26a2.356 2.356 0 0 1 -2.35 2.36h-.69v-12.85h-21.98v-5.77z" fill="#bf9a71"/><path d="m77.5 107.241h-27a2.061 2.061 0 0 0 0 4.121h27a2.061 2.061 0 0 0 0-4.121z" fill="#d0aa79"/></g></svg>