<svg id="Capa_1" enable-background="new 0 0 512 512" height="512" viewBox="0 0 512 512" width="512" xmlns="http://www.w3.org/2000/svg"><g><path d="m256 373.12 37.903 78.547-37.903 60.333h-187.82v-106.5z" fill="#e2a66f"/><path d="m497.073 458.753c0 14.704-5.962 28.018-15.595 37.651s-22.957 15.595-37.661 15.595h-187.817v-138.879l187.817 32.377c29.419 0 53.256 23.837 53.256 53.256z" fill="#c38858"/><circle cx="68.179" cy="458.748" fill="#c38858" r="53.252"/><path d="m256 298.994 29.383 48.672-29.383 57.831h-187.817c-29.419 0-53.256-23.837-53.256-53.256s23.846-53.246 53.256-53.246h187.817z" fill="#ffd298"/><path d="m256 298.994h187.817v106.502h-187.817z" fill="#e2a66f"/><path d="m256 38.886 14.5 144.114-14.5 115.994c-25.898-.02-49.825-10.033-67.63-28.339-18.646-19.186-28.569-45.424-27.218-72.012.97-19.136 8.613-38.022 21.527-53.176 20.976-24.627 49.935-73.032 8.122-120.547-4.881-5.552-4.992-13.844-.26-19.526 4.741-5.682 12.914-7.062 19.256-3.251.93.56 23.007 13.914 44.113 34.651.71.691 1.4 1.391 2.09 2.092z" fill="#ffd944"/><path d="m392.541 88.552-13.021 13.338c-5.789 5.93-5.675 15.429.255 21.218 5.929 5.788 15.429 5.675 21.218-.255l13.021-13.338c5.789-5.93 5.675-15.429-.255-21.218-5.928-5.788-15.428-5.674-21.218.255z" fill="#ff7c48"/><path d="m478.86 188.836-13.338-13.021c-5.93-5.789-15.429-5.675-21.218.255s-5.675 15.429.255 21.218l13.338 13.021c5.929 5.788 15.429 5.675 21.218-.255s5.675-15.429-.255-21.218z" fill="#ff7c48"/><path d="m119.459 88.552c-5.79-5.93-15.289-6.043-21.218-.255-5.93 5.789-6.044 15.289-.255 21.218l13.021 13.338c5.788 5.928 15.286 6.045 21.218.255 5.93-5.789 6.044-15.289.255-21.218z" fill="#ffb555"/><path d="m46.477 175.815-13.337 13.021c-5.93 5.789-6.044 15.288-.255 21.218 5.79 5.93 15.29 6.043 21.218.255l13.338-13.021c5.93-5.789 6.044-15.288.255-21.218-5.79-5.93-15.29-6.043-21.219-.255z" fill="#ffb555"/><circle cx="443.821" cy="352.245" fill="#c38858" r="53.252"/><path d="m338.725 250.34c-16.535 29.689-46.574 47.864-80.364 48.625-.76.02-1.52.03-2.271.03h-.09v-260.109c28.439 28.739 41.072 58.218 36.541 85.386-1.01 6.072-1.981 16.915 2.911 21.407 5.752 5.282 19.646 3.901 25.478 2.411 6.512-1.73 13.304 1.11 16.725 6.912 17.425 29.608 17.825 65.249 1.07 95.338z" fill="#ffb555"/></g></svg>