<svg enable-background="new 0 0 24 24" height="512" viewBox="0 0 24 24" width="512" xmlns="http://www.w3.org/2000/svg"><path d="m22 2.25v.6l-10.16 5.03c-.52.26-1.16.26-1.68 0l-10.16-5.03v-.6c0-1.24 1.01-2.25 2.25-2.25h17.5c1.24 0 2.25 1.01 2.25 2.25z" fill="#b0bec5"/><path d="m18.612 10.418c.639-.641 1.542-1.01 2.474-1.01.312 0 .617.056.914.135v-6.943l-10.16 5.03c-.52.26-1.16.26-1.68 0l-10.16-5.03v9.15c0 1.24 1.01 2.25 2.25 2.25h12.78z" fill="#eceff1"/><path d="m18.677 13.182-6.429 6.429c-.07.07-.117.159-.137.255l-.707 3.536c-.033.164.019.333.137.452.094.094.222.146.353.146.033 0 .065-.003.098-.01l3.535-.707c.097-.02.186-.067.255-.137l6.429-6.429z" fill="#607d8b"/><path d="m23.561 13.247-1.414-1.414c-.567-.566-1.556-.566-2.121 0l-1.349 1.349 3.535 3.535 1.349-1.349c.585-.585.585-1.536 0-2.121z" fill="#90a4ae"/></svg>