<svg height="512pt" viewBox="-102 0 512 512" width="512pt" xmlns="http://www.w3.org/2000/svg"><path d="m104.292969 418.882812h100.167969v90.109376h-100.167969zm0 0" fill="#b77445"/><path d="m154.367188 418.882812h50.09375v90.109376h-50.09375zm0 0" fill="#a04010"/><path d="m301.121094 417.339844c-8.296875 12.261718-22.085938 19.59375-36.898438 19.59375h-219.691406c-14.8125 0-28.601562-7.332032-36.894531-19.59375-8.292969-12.277344-9.9375-27.8125-4.414063-41.550782l20.28125-50.414062 12.101563-30.085938 37.078125-92.175781 12.09375-30.085937 69.589844-173.0078128.011718-.0195312 69.597656 173.027344 12.097657 30.085937 37.074219 92.175781 12.105468 30.085938 20.277344 50.414062c5.527344 13.738282 3.882812 29.273438-4.410156 41.550782zm0 0" fill="#60d64d"/><path d="m301.121094 417.339844c-8.296875 12.261718-22.085938 19.59375-36.898438 19.59375h-109.855468v-436.9140628l.011718-.0195312 69.597656 173.027344 12.097657 30.085937 37.074219 92.175781 12.105468 30.085938 20.277344 50.414062c5.527344 13.738282 3.882812 29.273438-4.410156 41.550782zm0 0" fill="#00b563"/><path d="m66.125 481.914062h176.507812v30.085938h-176.507812zm0 0" fill="#9ce78d"/><path d="m154.367188 481.914062h88.265624v30.085938h-88.265624zm0 0" fill="#36cb8e"/><path d="m236.074219 203.113281h-163.390625l12.09375-30.085937h139.199218zm0 0" fill="#00b44b"/><path d="m285.253906 325.375h-261.75l12.101563-30.085938h237.542969zm0 0" fill="#00b44b"/><g fill="#007f40"><path d="m236.074219 203.113281h-81.707031v-30.085937h69.609374zm0 0"/><path d="m285.253906 325.375h-130.886718v-30.085938h118.78125zm0 0"/></g></svg>