<svg enable-background="new 0 0 64 64" height="512" viewBox="0 0 64 64" width="512" xmlns="http://www.w3.org/2000/svg"><g id="_x31_2-Lychee"><g><g><path d="m41.760006 45.6235352c-.4038086 0-.784668-.2460938-.9355469-.6474609-4.3217773-11.4550781-2.1313477-19.90625-.418457-23.9594727-15.8354492 7.9418945-17.769043 23.2495117-17.7875977 23.4106445-.0629883.5478516-.5576172.9375-1.105957.8808594-.5483398-.0625-.9428711-.5556641-.8813477-1.1044922.0200195-.1816406 2.2587891-18.265625 21.6010742-26.2133789.4091797-.1674805.878418-.046875 1.1567383.2949219.2783203.3432617.2983398.828125.0493164 1.1933594-.0634766.09375-6.4111328 9.7670898-.7426758 24.7924805.1948242.5166016-.065918 1.0927734-.5825195 1.2880859-.1162109.0439452-.2353516.0644531-.3530273.0644531z" fill="#6d3103"/></g><path d="m41.389122 10.081543c-1.6992188-1.699707-3.9555664-2.6357422-6.3530273-2.6357422-.9111328 0-1.8139648.137207-2.6835938.4077148-.3144531.0981445-.5605469.34375-.6582031.6582031-.9960938 3.2036133-.1425781 6.6665039 2.2280273 9.0366211 1.6992188 1.699707 3.9550781 2.6357422 6.3525391 2.6357422.9111328 0 1.8144531-.137207 2.684082-.4077148.3144531-.0981445.5600586-.34375.6582031-.6582031.9960938-3.203125.1425782-6.6655274-2.2280273-9.0366211z" fill="#049c1f"/><path d="m32.0095444 8.06073c-.1416626.1209106-.2584229.2679443-.3152466.4509888-.9960938 3.2036133-.1425781 6.6665039 2.2280273 9.0366211 1.6992188 1.699707 3.9550781 2.6357422 6.3525391 2.6357422.9111328 0 1.8144531-.137207 2.684082-.4077148.1830444-.0571289.3300171-.1737061.4509277-.3153076z" fill="#04811f"/><path d="m20.2453575 40.3081055c-4.3813477.515625-7.5263672 4.4990234-7.0112305 8.8798828.4736328 4.0283203 3.8862305 7.0664063 7.9375 7.0664063.3110352 0 .6254883-.0185547.9423828-.0556641 2.1220703-.2490234 4.0200195-1.3105469 5.3442383-2.9882813 1.3242188-1.6767578 1.9160156-3.7695313 1.6665039-5.8916016-.5107421-4.3378906-4.4414062-7.5322265-8.8793945-7.0107421z" fill="#f51200"/><path d="m50.7658653 47.6176758c-.5107422-4.3369141-4.4428711-7.5283203-8.8798828-7.0097656-2.1220703.2490234-4.0200195 1.3105469-5.3442383 2.9873047-1.3242188 1.6777344-1.9160156 3.7695313-1.6665039 5.8925781.4736328 4.0283203 3.8862305 7.0664063 7.9375 7.0664063.3110352 0 .6254883-.0185547.9428711-.0556641 4.3808594-.515625 7.5253906-4.5 7.0102539-8.8808594z" fill="#f51200"/><g fill="#d30a00"><path d="m29.124752 47.3188477c-.276001-2.3442993-1.5557861-4.3477783-3.3696899-5.6181641.7255249 1.0464478 1.211792 2.2770996 1.3696899 3.6181641.2495117 2.1220703-.3422852 4.2148438-1.6665039 5.8916016-1.3242188 1.6777344-3.222168 2.7392578-5.3442383 2.9882813-.3168945.0371094-.6313477.0556641-.9423828.0556641-1.6853638 0-3.2560425-.5316162-4.5547485-1.43573 1.4525757 2.0864868 3.859436 3.43573 6.5547485 3.43573.3110352 0 .6254883-.0185547.9423828-.0556641 2.1220703-.2490234 4.0200195-1.3105469 5.3442383-2.9882813 1.3242188-1.6767579 1.9160157-3.7695313 1.6665039-5.8916016z"/><path d="m50.7658653 47.6176758c-.2759399-2.3430176-1.555481-4.3449707-3.3687744-5.6149292.7249756 1.0456543 1.2109985 2.2750244 1.3687744 3.6149292.5151367 4.3808594-2.6293945 8.3652344-7.0102539 8.8808594-.3173828.0371094-.6318359.0556641-.9428711.0556641-1.6853638 0-3.2560425-.5316162-4.5547485-1.43573 1.4525757 2.0864868 3.859436 3.43573 6.5547485 3.43573.3110352 0 .6254883-.0185547.9428711-.0556641 4.3808594-.515625 7.5253906-4.5 7.0102539-8.8808594z"/></g></g></g></svg>