<svg id="Capa_1" enable-background="new 0 0 512 512" height="512" viewBox="0 0 512 512" width="512" xmlns="http://www.w3.org/2000/svg"><g><g><g><path d="m388.047 15v482c0 8.28-6.72 15-15 15h-346.5c-8.28 0-15-6.72-15-15v-371.11l125.9-125.89h235.6c8.28 0 15 6.72 15 15z" fill="#f0f7ff"/></g><g><path d="m137.447 0v110.89c0 8.28-6.72 15-15 15h-110.9v-14.99c0-3.81 1.45-7.66 4.66-10.87l95.63-95.64c2.72-2.72 6.53-4.39 10.61-4.39h15z" fill="#dfe7f4"/></g><path d="m388.047 15v482c0 8.28-6.72 15-15 15h-173.25v-512h173.25c8.28 0 15 6.72 15 15z" fill="#dfe7f4"/></g><g><g><g><path d="m169.797 222.143h-103.671c-8.284 0-15-6.716-15-15s6.716-15 15-15h103.672c8.284 0 15 6.716 15 15s-6.716 15-15.001 15z" fill="#4793ff"/></g><g><path d="m169.797 282.143h-103.671c-8.284 0-15-6.716-15-15s6.716-15 15-15h103.672c8.284 0 15 6.716 15 15s-6.716 15-15.001 15z" fill="#4793ff"/></g><g><path d="m169.797 342.143h-103.671c-8.284 0-15-6.716-15-15s6.716-15 15-15h103.672c8.284 0 15 6.716 15 15s-6.716 15-15.001 15z" fill="#4793ff"/></g><g><path d="m169.797 402.143h-103.671c-8.284 0-15-6.716-15-15s6.716-15 15-15h103.672c8.284 0 15 6.716 15 15s-6.716 15-15.001 15z" fill="#4793ff"/></g></g><g><g><g><path d="m458.054 255.539c-8.284 0-15-6.716-15-15v-64.105c0-38.836-31.595-70.431-70.431-70.431s-70.431 31.595-70.431 70.431v64.105c0 8.284-6.716 15-15 15s-15-6.716-15-15v-64.105c0-55.378 45.053-100.431 100.431-100.431s100.431 45.053 100.431 100.431v64.105c0 8.284-6.716 15-15 15z" fill="#453d81"/></g></g></g><g><path d="m500.453 240.54v170.35c0 8.29-6.72 15-15 15h-225.66c-8.28 0-15-6.71-15-15v-170.35c0-8.28 6.72-15 15-15h225.66c8.28 0 15 6.72 15 15z" fill="#fabe2c"/></g><g fill="#453d81"><circle cx="372.623" cy="325.719" r="15"/><circle cx="312.623" cy="325.719" r="15"/><circle cx="432.623" cy="325.719" r="15"/></g></g></g></svg>