<svg id="Flat" height="512" viewBox="0 0 128 128" width="512" xmlns="http://www.w3.org/2000/svg"><circle cx="64" cy="64" fill="#474463" r="58.21"/><circle cx="64" cy="64" fill="#e4ebf7" r="46.446"/><g fill="#474463"><path d="m64 65.5a1.5 1.5 0 0 1 -1.393-.942l-10.951-27.378a1.5 1.5 0 1 1 2.785-1.116l10.459 26.127 14.1-3.914a1.5 1.5 0 1 1 .8 2.891l-15.4 4.273a1.457 1.457 0 0 1 -.4.059z"/><path d="m110.446 65.5h-8.2a1.5 1.5 0 0 1 0-3h8.2a1.5 1.5 0 0 1 0 3z"/><path d="m25.76 65.5h-8.2a1.5 1.5 0 1 1 0-3h8.2a1.5 1.5 0 1 1 0 3z"/><path d="m64 27.255a1.5 1.5 0 0 1 -1.5-1.5v-8.2a1.5 1.5 0 0 1 3 0v8.2a1.5 1.5 0 0 1 -1.5 1.5z"/><path d="m64 111.94a1.5 1.5 0 0 1 -1.5-1.5v-8.2a1.5 1.5 0 0 1 3 0v8.2a1.5 1.5 0 0 1 -1.5 1.5z"/><path d="m36.957 38.455a1.5 1.5 0 0 1 -1.061-.439l-5.8-5.8a1.5 1.5 0 0 1 2.122-2.116l5.8 5.8a1.5 1.5 0 0 1 -1.061 2.56z"/><path d="m96.839 98.337a1.5 1.5 0 0 1 -1.061-.44l-5.8-5.8a1.5 1.5 0 0 1 2.122-2.12l5.8 5.8a1.5 1.5 0 0 1 -1.06 2.561z"/><path d="m31.157 98.337a1.5 1.5 0 0 1 -1.06-2.561l5.8-5.8a1.5 1.5 0 1 1 2.121 2.124l-5.8 5.8a1.5 1.5 0 0 1 -1.061.437z"/><path d="m91.039 38.455a1.5 1.5 0 0 1 -1.06-2.56l5.8-5.8a1.5 1.5 0 1 1 2.121 2.121l-5.8 5.8a1.5 1.5 0 0 1 -1.061.439z"/></g></svg>