<svg id="Capa_1" enable-background="new 0 0 512 512" height="512" viewBox="0 0 512 512" width="512" xmlns="http://www.w3.org/2000/svg"><g><g><path d="m51.701 317.08v179.92h165.105l104.794-276.719-104.794-110.544z" fill="#d7e8ff"/><path d="m292.245 15-75.439 94.737v387.263h66.253l35.353-70.651 63.5-28.133v-383.216z" fill="#adcfff"/></g><path d="m283.059 497v-98.784h98.853z" fill="#6aa8ff"/><g><path d="m0 15v302.08h146.123l82.237-117.319-82.237-184.761z" fill="#55696e"/><path d="m146.123 15h146.123v302.08h-146.123z" fill="#3f4a4a"/></g><path d="m202.162 134.2h60.083v152.88h-60.083z" fill="#ff5592"/><g><g><g><path d="m30 134.2h56.081v61.44h-56.081z" fill="#ebf3ff"/></g><g><path d="m30 225.28h56.081v61.8h-56.081z" fill="#d7e8ff"/></g></g></g><g><g><path d="m474.6 90.12-36.65 15v299.624l37.025 78.057 32.265-214.88-32.265-177.65z" fill="#ffe377"/><path d="m474.975 90.271v392.53l37.025-78.057v-299.624z" fill="#ffb555"/></g><g><path d="m437.95 15v60.12l36.53 18.801.495-.248 15.945-47.512-15.945-31.161z" fill="#c37e4e"/><path d="m512 15h-37.025v78.673l37.025-18.553z" fill="#9a5e34"/></g><g><path d="m437.95 75.12v30h37.025l14.025-16.239-14.025-13.761z" fill="#d7e8ff"/><path d="m474.975 75.12h37.025v30h-37.025z" fill="#adcfff"/></g></g><g><path d="m30 45v59.2h116.123l26.797-28.279-26.797-30.921z" fill="#6aa8ff"/><path d="m146.123 45h116.123v59.2h-116.123z" fill="#7c83e7"/></g><g><path d="m118.082 134.2v61.44h28.041l19.855-28.279-19.855-33.161z" fill="#d7e8ff"/><path d="m146.123 134.2h28.04v61.44h-28.04z" fill="#adcfff"/><path d="m118.082 287.08h28.041l21.037-28.279-21.037-33.521h-28.041z" fill="#d7e8ff"/><path d="m146.123 225.28h28.04v61.8h-28.04z" fill="#adcfff"/></g></g></svg>