<svg id="icon" height="512" viewBox="0 0 128 128" width="512" xmlns="http://www.w3.org/2000/svg"><path d="m56.287 105c-.306 0-.607-.014-.905-.041a8.659 8.659 0 0 1 -7.2-5.225 9.248 9.248 0 0 1 1.06-9.32l.169-.223a2.257 2.257 0 0 1 3.6 2.722l-.169.224a4.733 4.733 0 0 0 -.531 4.771 4.149 4.149 0 0 0 3.481 2.556c.165.015.331.022.5.022a5.463 5.463 0 0 0 5.456-5.456v-54.543a2.257 2.257 0 1 1 4.514 0v54.543a9.981 9.981 0 0 1 -9.975 9.97z" fill="#575b6d"/><path d="m66.152 25.174v6.726h-4.352v-6.726a2.174 2.174 0 0 1 2.178-2.174 2.174 2.174 0 0 1 2.174 2.174z" fill="#575b6d"/><path d="m102.532 66.362c-5.2-3.586-9.781-3.194-13.914 0 0-21.279-11.025-38.532-24.618-38.532a38.535 38.535 0 0 1 38.532 38.532z" fill="#ef5261"/><path d="m64 27.83c-13.593 0-24.618 17.253-24.618 38.532-4.667-3.368-9.306-3.412-13.914 0a38.535 38.535 0 0 1 38.532-38.532z" fill="#ef5261"/><path d="m88.618 66.362c-5.628-4.435-11.54-3.944-16.457 0 0-21.279-3.28-38.532-8.161-38.532 13.593 0 24.618 17.253 24.618 38.532z" fill="#eeefee"/><path d="m64 27.83c-4.881 0-8.206 17.253-8.206 38.532-5.591-3.614-11.479-3.7-16.412 0 0-21.279 11.025-38.532 24.618-38.532z" fill="#eeefee"/><path d="m72.161 66.362c-5.887-4.089-10.5-4.111-16.367 0 0-21.279 3.325-38.532 8.206-38.532s8.161 17.253 8.161 38.532z" fill="#ef5261"/></svg>