<?xml version="1.0" encoding="iso-8859-1"?>
<!-- Generator: Adobe Illustrator 19.0.0, SVG Export Plug-In . SVG Version: 6.00 Build 0)  -->
<svg version="1.1" id="Capa_1" xmlns="http://www.w3.org/2000/svg" xmlns:xlink="http://www.w3.org/1999/xlink" x="0px" y="0px"
	 viewBox="0 0 512 512" style="enable-background:new 0 0 512 512;" xml:space="preserve">
<path style="fill:#B4E8FF;" d="M256.014,411.835c-58.292,0-105.715-47.424-105.715-105.715c0-23.658,15.414-63.053,47.125-120.441
	c22.619-40.935,44.857-75.113,45.793-76.547c2.82-4.326,7.635-6.935,12.798-6.935c5.164,0,9.978,2.609,12.798,6.933
	c0.936,1.435,23.174,35.614,45.793,76.548c31.709,57.388,47.125,96.785,47.125,120.441
	C361.731,364.412,314.307,411.835,256.014,411.835z"/>
<path style="fill:#FF7632;" d="M437.019,74.981C388.667,26.629,324.38,0,256,0S123.333,26.629,74.981,74.981S0,187.62,0,256
	s26.629,132.667,74.981,181.019C123.333,485.372,187.62,512,256,512s132.667-26.629,181.019-74.981
	C485.372,388.667,512,324.38,512,256S485.372,123.333,437.019,74.981z M481.443,256c0,56.668-21.023,108.514-55.672,148.164
	L107.836,86.229C147.486,51.581,199.332,30.557,256,30.557C380.31,30.557,481.443,131.69,481.443,256z M30.557,256
	c0-56.668,21.024-108.514,55.672-148.164l317.935,317.936c-39.65,34.648-91.496,55.672-148.164,55.672
	C131.69,481.443,30.557,380.31,30.557,256z"/>
<path style="fill:#6AD3FF;" d="M268.813,109.13c-2.819-4.325-7.634-6.933-12.798-6.933v309.638
	c58.292,0,105.715-47.424,105.715-105.715c0-23.658-15.415-63.053-47.125-120.441C291.986,144.743,269.749,110.565,268.813,109.13z"
	/>
<path style="fill:#F74825;" d="M256.014,0v30.557C380.318,30.566,481.443,131.695,481.443,256
	c0,56.668-21.023,108.514-55.672,148.164L256.014,234.407v43.214l148.15,148.15c-39.647,34.645-91.487,55.668-148.15,55.672V512
	c68.374-0.004,132.656-26.632,181.004-74.981C485.371,388.667,511.999,324.38,511.999,256S485.37,123.333,437.018,74.981
	C388.671,26.632,324.39,0.004,256.014,0z"/>
<g>
</g>
<g>
</g>
<g>
</g>
<g>
</g>
<g>
</g>
<g>
</g>
<g>
</g>
<g>
</g>
<g>
</g>
<g>
</g>
<g>
</g>
<g>
</g>
<g>
</g>
<g>
</g>
<g>
</g>
</svg>
