<svg height="512" viewBox="0 0 48 48" width="512" xmlns="http://www.w3.org/2000/svg"><g id="Line"><path d="m14 31.08v-21.08a4 4 0 0 0 -8 0v21.08a8 8 0 0 0 -4 7.21 8.11 8.11 0 0 0 7.86 7.71h.14a8 8 0 0 0 8-8 8 8 0 0 0 -4-6.92z" fill="#bee1f4"/><path d="m11 36.28v-1.28a1 1 0 0 0 -2 0v1.28a2 2 0 1 0 2 0z" fill="#005c66"/><path d="m45 16h-2l1.6-1.2a1 1 0 1 0 -1.2-1.6l-3.73 2.8h-6.26l3.72-3.71 4.62-.66a1 1 0 0 0 .85-1.14 1 1 0 0 0 -1.14-.84l-2 .28 2.13-2.12a1 1 0 1 0 -1.42-1.42l-2.1 2.12.28-2a1 1 0 0 0 -.84-1.14 1 1 0 0 0 -1.14.85l-.66 4.62-3.71 3.75v-5.26l2.8-3.73a1 1 0 0 0 -1.6-1.2l-1.2 1.6v-3a1 1 0 0 0 -2 0v3l-1.2-1.6a1 1 0 0 0 -1.6 1.2l2.8 3.73v5.26l-3.71-3.72-.66-4.62a1 1 0 0 0 -1.13-.85 1 1 0 0 0 -.85 1.13l.28 2-2.12-2.14a1 1 0 0 0 -1.42 1.42l2.13 2.12-2-.28a1 1 0 0 0 -1.14.84 1 1 0 0 0 .85 1.14l4.62.66 3.74 3.71h-5.26l-3.73-2.8a1 1 0 0 0 -1.2 1.6l1.6 1.2h-3a1 1 0 0 0 0 2h3l-1.6 1.2a1 1 0 0 0 -.2 1.4 1 1 0 0 0 .8.4 1 1 0 0 0 .6-.2l3.73-2.8h5.26l-4.43 4.42-4.62.66a1 1 0 0 0 .29 2l2-.28-1.42 1.41a1 1 0 0 0 0 1.42 1 1 0 0 0 1.42 0l1.41-1.42-.28 2a1 1 0 0 0 .85 1.13h.14a1 1 0 0 0 1-.85l.66-4.62 4.39-4.46v6.26l-2.8 3.73a1 1 0 1 0 1.6 1.2l1.2-1.6v2a1 1 0 0 0 2 0v-2l1.2 1.6a1 1 0 0 0 .8.4 1 1 0 0 0 .6-.2 1 1 0 0 0 .2-1.4l-2.8-3.73v-6.26l4.42 4.43.66 4.62a1 1 0 0 0 1 .85h.14a1 1 0 0 0 .85-1.13l-.28-2 1.41 1.42a1 1 0 0 0 1.42 0 1 1 0 0 0 0-1.42l-1.42-1.41 2 .28a1 1 0 0 0 1.13-.85 1 1 0 0 0 -.84-1.13l-4.62-.66-4.46-4.41h6.26l3.73 2.8a1 1 0 0 0 .6.2 1 1 0 0 0 .8-.4 1 1 0 0 0 -.2-1.4l-1.6-1.2h2a1 1 0 0 0 0-2z" fill="#bee1f4"/></g></svg>