<?xml version="1.0" encoding="iso-8859-1"?>
<!-- Generator: Adobe Illustrator 19.0.0, SVG Export Plug-In . SVG Version: 6.00 Build 0)  -->
<svg version="1.1" id="Capa_1" xmlns="http://www.w3.org/2000/svg" xmlns:xlink="http://www.w3.org/1999/xlink" x="0px" y="0px"
	 viewBox="0 0 512 512" style="enable-background:new 0 0 512 512;" xml:space="preserve">
<path style="fill:#AD644B;" d="M40.652,125.603h302.037c1.247,0,2.441,0.218,3.568,0.588L199.962,3.03
	c-4.799-4.04-11.784-4.04-16.583,0L37.085,126.19C38.212,125.82,39.406,125.603,40.652,125.603z"/>
<path style="fill:#99523F;" d="M202.961,5.554l-2.998-2.524c-4.799-4.04-11.784-4.04-16.583,0L37.085,126.19
	c1.127-0.37,2.321-0.588,3.568-0.588h19.71L202.961,5.554z"/>
<path style="fill:#BA7052;" d="M157.645,283.444c0-6.416,5.25-11.666,11.666-11.666h185.044V136.475
	c0-6.416-5.25-11.666-11.666-11.666H40.652c-6.416,0-11.666,5.25-11.666,11.666v216.89c0,6.416,5.25,11.666,11.666,11.666h116.993
	L157.645,283.444L157.645,283.444z"/>
<path style="fill:#AD644B;" d="M49.591,353.365v-216.89c0-6.416,5.25-11.666,11.666-11.666H40.652
	c-6.416,0-11.666,5.25-11.666,11.666v216.89c0,6.416,5.25,11.666,11.666,11.666h20.605
	C54.841,365.031,49.591,359.781,49.591,353.365z"/>
<path style="fill:#99523F;" d="M181.206,233.92c6.056-5.066,14.872-5.066,20.928,0l12.497,10.454l137.355-114.903
	c-2.134-2.822-5.507-4.662-9.297-4.662H40.652c-3.79,0-7.163,1.84-9.297,4.662l137.354,114.903L181.206,233.92z"/>
<path style="fill:#8E4739;" d="M40.652,124.809c-0.443,0-0.88,0.03-1.311,0.079c-3.157,0.359-6.051,2.024-7.986,4.583l18.236,15.255
	v-8.252c0-6.416,5.248-11.664,11.663-11.666L40.652,124.809L40.652,124.809z"/>
<path style="fill:#AD644B;" d="M202.135,233.92c-6.056-5.066-14.872-5.066-20.928,0L30.869,359.684l0,0
	c2.205,3.394,5.968,5.346,9.783,5.346h116.993v-81.587c0-6.416,5.25-11.666,11.666-11.666h78.079L202.135,233.92z"/>
<path style="fill:#99523F;" d="M30.869,359.684C30.869,359.685,30.869,359.685,30.869,359.684c2.152,3.312,5.876,5.347,9.783,5.347
	h20.604c-6.415-0.001-11.665-5.25-11.665-11.666v-9.343L30.869,359.684z"/>
<path style="fill:#DDCDC7;" d="M471.312,512H168.357c-6.436,0-11.701-5.266-11.701-11.701v-217.55
	c0-6.436,5.266-11.701,11.701-11.701h302.956c6.436,0,11.701,5.266,11.701,11.701v217.55C483.014,506.734,477.748,512,471.312,512z"
	/>
<path style="fill:#C9BCB8;" d="M177.26,500.299v-217.55c0-6.436,5.266-11.701,11.701-11.701h-20.605
	c-6.436,0-11.701,5.266-11.701,11.701v217.55c0,6.436,5.266,11.701,11.701,11.701h20.605C182.526,512,177.26,506.734,177.26,500.299
	z"/>
<path style="fill:#EADCD6;" d="M299.091,373.112c6.555-0.861,12.714,0.692,17.724,3.888c1.854,1.183,4.184,1.183,6.037,0
	c5.011-3.196,11.169-4.749,17.724-3.888c6.044,0.794,11.453,3.696,15.488,7.917l125.06-104.619c-2.091-3.218-5.71-5.363-9.813-5.363
	H168.357c-4.103,0-7.722,2.145-9.813,5.363l125.06,104.619C287.639,376.808,293.047,373.907,299.091,373.112z"/>
<path style="fill:#DDCDC7;" d="M158.544,276.41l18.716,15.657v-9.319c0-6.436,5.266-11.701,11.701-11.701h-20.605
	C164.531,271.047,160.755,273.005,158.544,276.41z"/>
<path style="fill:#EADCD6;" d="M361.9,407.994c-3.606,10.275-13.385,17.645-24.892,17.645c-5.155,0-9.962-1.482-14.025-4.04
	c-1.912-1.204-4.388-1.204-6.299,0c-4.062,2.558-8.869,4.04-14.025,4.04c-11.507,0-21.286-7.37-24.892-17.645L159.03,507.323
	c2.141,2.831,5.524,4.676,9.326,4.676h302.956c3.802,0,7.185-1.846,9.326-4.676L361.9,407.994z"/>
<path style="fill:#DDCDC7;" d="M188.96,512c-6.435-0.001-11.7-5.266-11.7-11.701v-8.224l-18.229,15.249
	c2.268,2.998,5.766,4.676,9.326,4.676H188.96z"/>
<path style="fill:#C64757;" d="M363.739,396.213c-2.125-19.335-24.198-30.469-41.164-19.648c-1.691,1.079-3.792,1.079-5.481,0
	c-16.997-10.838-39.044,0.353-41.164,19.648c-2.476,22.523,22.113,37.739,41.03,25.823c1.746-1.101,4.002-1.1,5.748,0
	C341.585,433.926,366.219,418.775,363.739,396.213z"/>
<path style="fill:#B2364B;" d="M361.883,388.974c-6.03,14.471-24.37,21.782-39.175,12.457c-1.746-1.1-4.002-1.101-5.748,0
	c-14.833,9.343-33.147,2.003-39.173-12.457c-0.93,2.249-1.575,4.669-1.858,7.239c-2.476,22.523,22.113,37.739,41.031,25.823
	c1.746-1.101,4.002-1.1,5.748,0c18.877,11.89,43.511-3.262,41.03-25.823C363.456,393.642,362.812,391.223,361.883,388.974z"/>
<g>
</g>
<g>
</g>
<g>
</g>
<g>
</g>
<g>
</g>
<g>
</g>
<g>
</g>
<g>
</g>
<g>
</g>
<g>
</g>
<g>
</g>
<g>
</g>
<g>
</g>
<g>
</g>
<g>
</g>
</svg>
