<svg id="Raindrops" enable-background="new 0 0 512 512" height="512" viewBox="0 0 512 512" width="512" xmlns="http://www.w3.org/2000/svg"><g><g><path d="m322.769 343.141c-64.696 0-106.769-68.089-77.827-125.949l76.076-152.09c.734-1.468 2.83-1.468 3.564.001l76.026 152.115c28.918 57.858-13.156 125.923-77.839 125.923z" fill="#27bdff"/><path d="m400.691 217.349-76.027-152.116c-.734-1.468-2.829-1.469-3.564-.001l-13.062 26.113 54.671 109.387c28.918 57.859-13.157 125.924-77.84 125.924-5.139 0-10.134-.433-14.963-1.253 14.386 11.091 32.538 17.87 52.944 17.87 64.684 0 106.758-68.065 77.841-125.924z" fill="#25b4e5"/></g><g><path d="m200.678 447.842c-77.723 0-128.269-81.799-93.499-151.311l91.395-182.716c.882-1.764 3.4-1.763 4.281.001l91.335 182.746c34.742 69.509-15.804 151.28-93.512 151.28z" fill="#27bdff"/><path d="m294.291 296.72-91.335-182.746c-.882-1.764-3.399-1.765-4.281-.001l-15.692 31.371 65.68 131.413c34.741 69.51-15.806 151.28-93.514 151.28-6.174 0-12.174-.52-17.976-1.505 17.282 13.324 39.088 21.468 63.604 21.468 77.708 0 128.254-81.771 93.514-151.28z" fill="#25b4e5"/></g></g></svg>