<svg id="Layer_1" enable-background="new 0 0 464 464" height="512" viewBox="0 0 464 464" width="512" xmlns="http://www.w3.org/2000/svg"><path d="m420.93 153.429c4.9-9.74 1.27-21.69-8.43-26.66-29.35-15.01-49.87-43.26-55.08-75.8-1.72-10.77-11.97-17.91-22.74-16.26-32.47 4.99-65.54-5.81-88.81-29-7.64-7.61-20.1-7.61-27.74 0-23.27 23.19-56.34 33.99-88.81 29-10.77-1.65-21.02 5.49-22.74 16.26-5.21 32.54-25.73 60.79-55.08 75.8-9.7 4.97-13.33 16.92-8.43 26.66 14.73 29.24 14.73 63.9 0 93.14-4.9 9.74-1.27 21.69 8.43 26.66 29.35 15.01 49.87 43.26 55.08 75.8 1.72 10.77 11.97 17.91 22.74 16.26 32.47-4.99 65.54 5.81 88.81 29 7.64 7.61 20.1 7.61 27.74 0 23.27-23.19 56.34-33.99 88.81-29 10.77 1.65 21.02-5.49 22.74-16.26 5.21-32.54 25.73-60.79 55.08-75.8 9.7-4.97 13.33-16.92 8.43-26.66-14.73-29.24-14.73-63.9 0-93.14z" fill="#fff8d6"/><path d="m232 58.999c77.87 0 141 63.13 141 141s-63.13 141-141 141-141-63.129-141-140.999 63.13-141.001 141-141.001z" fill="#ffe773"/><path d="m141.555 273.624c5.516 13.403-12.431 23.878-21.281 12.401-18.356-23.805-29.273-53.641-29.274-86.025-.001-77.985 64.196-141.81 142.501-140.993 14.489.151 17.109 20.76 3.092 24.433-83.667 21.93-127.17 112.102-95.038 190.184z" fill="#fff0a6"/><path d="m397.71 230.349c-20.146 7.527-46.1 7.54-66.28 0-20.05-7.491-46.036-7.575-66.29 0-20.125 7.527-46.12 7.54-66.28 0-19.84-7.42-45.828-7.645-66.29 0-20.146 7.527-46.1 7.54-66.28 0-18.639-6.964-41.749-7.362-60.546-1.901-3.41.99-5.744 4.131-5.744 7.682v219.869c0 4.418 3.582 8 8 8h448c4.418 0 8-3.582 8-8v-219.869c0-3.551-2.332-6.691-5.742-7.682-19.182-5.574-42.237-4.941-60.548 1.901z" fill="#9cbcff"/><path d="m464 236.13v20.577c0 4.4-3.553 7.932-7.953 7.997-11.96.176-23.851 2.06-34.327 5.645-21.965 7.528-50.261 7.54-72.26 0-21.815-7.477-50.154-7.59-72.28 0-21.94 7.53-50.28 7.54-72.26 0-21.64-7.42-49.97-7.65-72.28 0-21.97 7.53-50.26 7.54-72.27 0-15.675-5.369-34.265-6.839-51.362-4.714-4.782.594-9.008-3.111-9.008-7.93v-21.575c0-3.551 2.334-6.693 5.744-7.682 19.254-5.589 42.325-4.907 60.546 1.901 20.146 7.527 46.1 7.54 66.28 0 20.05-7.491 46.036-7.575 66.29 0 20.125 7.527 46.12 7.54 66.28 0 19.84-7.42 45.828-7.645 66.29 0 20.146 7.527 46.1 7.54 66.28 0 18.31-6.84 41.359-7.48 60.548-1.9 3.41.989 5.742 4.131 5.742 7.681z" fill="#c2d6ff"/><path d="m350.632 402.844c-18.381-6.867-42.359-6.857-60.689-.001-4.143 1.548-8.749-.553-10.296-4.691-1.548-4.138.553-8.748 4.69-10.295 21.945-8.208 49.915-8.212 71.893-.001 18.429 6.88 42.248 6.88 60.683 0 4.138-1.545 8.748.557 10.293 4.697 1.545 4.139-.558 8.748-4.697 10.292-21.833 8.149-50.045 8.149-71.877-.001z" fill="#719efa"/><path d="m363.582 318.999c-10.971 0-23.82-1.999-34.951-6.155-18.342-6.853-42.324-6.87-60.688-.001-18.995 7.104-42.842 8.167-63.544 2.646-4.269-1.139-6.807-5.522-5.668-9.792 1.139-4.268 5.519-6.806 9.792-5.668 16.874 4.501 37.386 3.972 53.815-2.173 21.945-8.208 49.915-8.212 71.893-.001 8.736 3.262 18.913 5.042 29.429 5.145 4.418.043 7.965 3.66 7.922 8.078-.046 4.391-3.619 7.921-8 7.921z" fill="#719efa"/><path d="m207.995 463.999h-199.995c-4.418 0-8-3.582-8-8v-162.873c0-4.125 3.133-7.569 7.239-7.967 22.545-2.187 70.326-2.845 117.761 25.84 69.964 42.302 86.936 116.846 90.911 143.838.711 4.831-3.033 9.162-7.916 9.162z" fill="#ffd9ad"/><path d="m173.007 380.773c-58.445-51.026-132.919-59.746-163.918-55.229-4.803.7-9.089-3.071-9.089-7.924v-24.494c0-4.13 3.129-7.567 7.239-7.967 70.965-6.895 138.935 23.312 177.854 85.384 4.9 7.817-5.136 16.298-12.086 10.23z" fill="#ffebd2"/><g fill="#ffca8c"><path d="m78.5 361.499c-2.047 0-4.095-.781-5.657-2.343l-5.5-5.5c-3.125-3.124-3.125-8.189 0-11.313 3.124-3.124 8.189-3.124 11.313 0l5.5 5.5c5.055 5.053 1.407 13.656-5.656 13.656z"/><path d="m138.5 379.499c-2.047 0-4.095-.781-5.657-2.343l-5.5-5.5c-3.125-3.124-3.125-8.189 0-11.313 3.124-3.124 8.189-3.124 11.313 0l5.5 5.5c5.055 5.053 1.407 13.656-5.656 13.656z"/><path d="m98.5 409.499c-2.047 0-4.095-.781-5.657-2.343l-5.5-5.5c-3.125-3.124-3.125-8.189 0-11.313 3.124-3.124 8.189-3.124 11.313 0l5.5 5.5c5.055 5.053 1.407 13.656-5.656 13.656z"/></g></svg>