<?xml version="1.0" encoding="iso-8859-1"?>
<!-- Generator: Adobe Illustrator 19.0.0, SVG Export Plug-In . SVG Version: 6.00 Build 0)  -->
<svg version="1.1" id="Capa_1" xmlns="http://www.w3.org/2000/svg" xmlns:xlink="http://www.w3.org/1999/xlink" x="0px" y="0px"
	 viewBox="0 0 512 512" style="enable-background:new 0 0 512 512;" xml:space="preserve">
<path style="fill:#BDF052;" d="M460.07,272.17c0,39.602-11.363,78.013-32.86,111.073c-20.846,32.059-50.115,57.557-84.655,73.762
	c-50.155,27.208-72.291,40.912-76.002,44.383L256,511.95l-0.05,0.05l-10.563-10.663c-3.651-3.421-25.788-17.115-75.942-44.333
	c-34.55-16.205-63.809-41.702-84.655-73.762c-21.496-33.06-32.86-71.471-32.86-111.073c0-71.241,36.701-134.079,92.187-170.6
	C176.267,80.424,214.728,68.1,256,68.1s79.733,12.324,111.883,33.47C423.369,138.09,460.07,200.929,460.07,272.17z"/>
<g>
	<path style="fill:#11A892;" d="M241.187,85.518c-0.375-2.304-8.821-56.738,22.699-85.515l20.234,22.16
		c-19.346,17.663-13.38,58.129-13.314,58.533L241.187,85.518z"/>
	<path style="fill:#11A892;" d="M367.883,101.57c-28.508-18.755-61.978-30.569-97.979-32.99c-0.27-13.464,1.54-34.84,14.214-46.414
		L263.882,0c-2.971,2.711-5.582,5.652-7.882,8.753c-13.984,18.856-16.345,43.713-16.105,59.978
		c-35.16,2.761-67.85,14.474-95.778,32.84c4.971,5.372,10.893,10.313,17.585,14.734c-6.262,13.904-15.545,35.83-21.446,55.856
		l28.778,8.482c5.222-17.705,13.614-37.661,19.506-50.805c6.482,2.451,13.324,4.561,20.426,6.272l-2.631,31.049l29.909,2.541
		l2.441-28.818c5.692,0.48,11.473,0.72,17.315,0.72c3.381,0,6.752-0.09,10.093-0.25c4.781,9.123,12.224,26.718,13.284,49.364
		l29.979-1.4c-1.01-21.506-6.562-39.342-11.953-51.935c6.382-1.33,12.574-2.981,18.515-4.901
		c3.881,5.952,9.023,15.635,12.434,29.089l29.089-7.372c-3.671-14.474-8.893-25.698-13.704-33.86
		C353.158,114.944,361.351,108.642,367.883,101.57z"/>
</g>
<path style="fill:#92D700;" d="M460.07,272.17c0,39.602-11.363,78.013-32.86,111.073c-20.846,32.059-50.115,57.557-84.655,73.762
	c-50.155,27.208-72.291,40.912-76.002,44.383L256,511.95V68.1c41.272,0,79.733,12.324,111.883,33.47
	C423.369,138.09,460.07,200.929,460.07,272.17z"/>
<path style="fill:#0F9887;" d="M343.736,120.335c4.811,8.162,10.033,19.386,13.704,33.86l-29.089,7.372
	c-3.411-13.454-8.552-23.137-12.434-29.089c-5.942,1.921-12.134,3.571-18.515,4.901c5.392,12.594,10.943,30.429,11.953,51.935
	l-29.979,1.4c-1.06-22.647-8.503-40.242-13.284-49.364c-3.341,0.16-6.712,0.25-10.093,0.25V8.753
	c2.301-3.101,4.911-6.042,7.882-8.753l20.236,22.166c-12.674,11.573-14.484,32.95-14.214,46.414
	c36.001,2.421,69.47,14.234,97.979,32.99C361.351,108.642,353.158,114.944,343.736,120.335z"/>
<g>
</g>
<g>
</g>
<g>
</g>
<g>
</g>
<g>
</g>
<g>
</g>
<g>
</g>
<g>
</g>
<g>
</g>
<g>
</g>
<g>
</g>
<g>
</g>
<g>
</g>
<g>
</g>
<g>
</g>
</svg>
