<?xml version="1.0" encoding="iso-8859-1"?>
<!-- Generator: Adobe Illustrator 19.0.0, SVG Export Plug-In . SVG Version: 6.00 Build 0)  -->
<svg version="1.1" id="Capa_1" xmlns="http://www.w3.org/2000/svg" xmlns:xlink="http://www.w3.org/1999/xlink" x="0px" y="0px"
	 viewBox="0 0 511.733 511.733" style="enable-background:new 0 0 511.733 511.733;" xml:space="preserve">
<polygon style="fill:#F3F3F3;" points="468.133,511.733 468.133,273.867 255.867,62.667 43.6,273.867 43.6,511.733 "/>
<path style="fill:#415A6B;" d="M504.4,237.6L274,7.2c-9.6-9.6-26.667-9.6-36.267,0L7.333,237.6c-9.6,9.6-9.6,26.667,0,36.267
	c9.6,9.6,26.667,9.6,36.267,0l212.267-211.2l212.267,211.2c9.6,9.6,26.667,9.6,36.267,0C514,264.267,514,247.2,504.4,237.6z"/>
<polygon style="fill:#F05540;" points="368.933,455.2 318.8,447.733 297.467,493.6 219.6,353.867 292.133,314.4 "/>
<polygon style="fill:#F3705A;" points="142.8,455.2 192.933,447.733 214.267,493.6 292.133,353.867 219.6,314.4 "/>
<path style="fill:#FFD15C;" d="M372.133,293.067c0,11.733-12.8,21.333-17.067,32c-3.2,10.667,1.067,26.667-5.333,36.267
	c-6.4,9.6-23.467,9.6-33.067,16c-9.6,6.4-13.867,22.4-25.6,25.6c-10.667,3.2-24.533-6.4-36.267-6.4c-11.733,0-25.6,9.6-36.267,6.4
	c-10.667-3.2-16-19.2-25.6-25.6c-9.6-6.4-25.6-6.4-33.067-16c-6.4-9.6-2.133-24.533-5.333-36.267
	c-3.2-10.667-17.067-20.267-17.067-32s12.8-21.333,17.067-32c3.2-10.667-1.067-26.667,5.333-36.267c6.4-9.6,23.467-9.6,33.067-16
	c9.6-6.4,13.867-22.4,25.6-25.6c10.667-3.2,24.533,6.4,36.267,6.4c11.733,0,25.6-9.6,36.267-6.4c10.667,3.2,16,19.2,25.6,25.6
	c9.6,6.4,25.6,6.4,33.067,16c6.4,9.6,2.133,24.533,5.333,36.267C359.333,270.667,372.133,281.333,372.133,293.067z"/>
<circle style="fill:#F7B64C;" cx="255.867" cy="290.933" r="65.067"/>
<g>
</g>
<g>
</g>
<g>
</g>
<g>
</g>
<g>
</g>
<g>
</g>
<g>
</g>
<g>
</g>
<g>
</g>
<g>
</g>
<g>
</g>
<g>
</g>
<g>
</g>
<g>
</g>
<g>
</g>
</svg>
