<?xml version="1.0" encoding="iso-8859-1"?>
<!-- Generator: Adobe Illustrator 19.0.0, SVG Export Plug-In . SVG Version: 6.00 Build 0)  -->
<svg version="1.1" id="Capa_1" xmlns="http://www.w3.org/2000/svg" xmlns:xlink="http://www.w3.org/1999/xlink" x="0px" y="0px"
	 viewBox="0 0 490.667 490.667" style="enable-background:new 0 0 490.667 490.667;" xml:space="preserve">
<g>
	<path style="fill:#D0D7DF;" d="M330.667,426.667v32c0,17.707-14.293,32-32,32h-256c-17.707,0-32-14.293-32-32v-32H330.667z"/>
	<path style="fill:#D0D7DF;" d="M330.667,32v32h-320V32c0-17.707,14.293-32,32-32h256C316.373,0,330.667,14.293,330.667,32z"/>
</g>
<path style="fill:#65CCD8;" d="M10.667,64h320v362.667h-320V64z"/>
<path style="fill:#F1F2F2;" d="M480,64v170.667c0,17.707-14.293,32-32,32h-96l-42.667,42.667l-42.667-42.667h-96
	c-17.707,0-32-14.293-32-32V64c0-17.707,14.293-32,32-32H448C465.707,32,480,46.293,480,64z"/>
<path style="fill:#FED049;" d="M352,74.667c23.573,0,42.667,19.093,42.667,42.667c0,53.333-85.333,106.667-85.333,106.667
	S224,170.667,224,117.333c0-23.573,19.093-42.667,42.667-42.667c23.573,0,42.667,19.093,42.667,42.667
	C309.333,93.76,328.427,74.667,352,74.667z"/>
<g>
</g>
<g>
</g>
<g>
</g>
<g>
</g>
<g>
</g>
<g>
</g>
<g>
</g>
<g>
</g>
<g>
</g>
<g>
</g>
<g>
</g>
<g>
</g>
<g>
</g>
<g>
</g>
<g>
</g>
</svg>
