<svg id="Flat" height="512" viewBox="0 0 512 512" width="512" xmlns="http://www.w3.org/2000/svg"><path d="m440 264h-368a8 8 0 0 1 0-16h368a8 8 0 0 1 0 16z" fill="#fbe9d8"/><circle cx="40" cy="256" fill="#9aa3a8" r="32"/><circle cx="472" cy="256" fill="#9aa3a8" r="32"/><path d="m256 432a8 8 0 0 1 -8-8v-336a8 8 0 0 1 16 0v336a8 8 0 0 1 -8 8z" fill="#fbe9d8"/><path d="m448 456a7.976 7.976 0 0 1 -5.657-2.343l-384-384a8 8 0 0 1 11.314-11.314l384 384a8 8 0 0 1 -5.657 13.657z" fill="#fbe9d8"/><path d="m64 456a8 8 0 0 1 -5.657-13.657l384-384a8 8 0 0 1 11.314 11.314l-384 384a7.976 7.976 0 0 1 -5.657 2.343z" fill="#fbe9d8"/><g fill="#ffb632"><circle cx="56" cy="56" r="32"/><circle cx="456" cy="56" r="32"/><circle cx="56" cy="456" r="32"/><circle cx="456" cy="456" r="32"/><rect height="176" rx="32" width="240" x="136" y="168"/></g><path d="m376 200v9.07l-101.18 53.96a39.955 39.955 0 0 1 -37.64 0l-101.18-53.96v-9.07a31.986 31.986 0 0 1 .99-7.94 7.925 7.925 0 0 1 2.77.88l104.95 55.97a23.954 23.954 0 0 0 22.58 0l104.95-55.97a7.925 7.925 0 0 1 2.77-.88 31.986 31.986 0 0 1 .99 7.94z" fill="#e09f2c"/><circle cx="256" cy="72" fill="#9aa3a8" r="32"/><circle cx="256" cy="440" fill="#9aa3a8" r="32"/></svg>