<svg id="Capa_1" enable-background="new 0 0 512 512" height="512" viewBox="0 0 512 512" width="512" xmlns="http://www.w3.org/2000/svg"><g><g><path d="m286 332h75v30h-75z" fill="#ff9100"/></g><g><path d="m286 392h45v30h-45z" fill="#ff9100"/></g><g><path d="m286 452h75v30h-75z" fill="#ff9100"/></g><g><g><path d="m256 0c-74.44 0-135 60.56-135 135 0 57.28 36.46 107.87 90 126.82v250.18h90v-250.18c53.54-18.95 90-69.54 90-126.82 0-74.44-60.56-135-135-135zm0 210c-41.35 0-75-33.64-75-75s33.65-75 75-75c41.36 0 75 33.64 75 75s-33.64 75-75 75z" fill="#fed843"/></g></g><path d="m391 135c0 57.28-36.46 107.87-90 126.82v250.18h-45v-302c41.36 0 75-33.64 75-75s-33.64-75-75-75v-60c74.44 0 135 60.56 135 135z" fill="#fabe2c"/></g></svg>