<?xml version="1.0" encoding="iso-8859-1"?>
<!-- Generator: Adobe Illustrator 19.0.0, SVG Export Plug-In . SVG Version: 6.00 Build 0)  -->
<svg xmlns="http://www.w3.org/2000/svg" xmlns:xlink="http://www.w3.org/1999/xlink" version="1.1" id="Layer_1" x="0px" y="0px" viewBox="0 0 512 512" style="enable-background:new 0 0 512 512;" xml:space="preserve">
<path style="fill:#ACABB1;" d="M13.056,498.943c-2.027-2.027-3.538-4.57-4.319-7.433c-23.467-86.106,1.137-178.783,64.216-241.861  l22.95-22.95c6.546-6.546,17.159-6.546,23.705,0l165.693,165.693c6.546,6.546,6.546,17.159,0,23.705l-22.95,22.95  c-63.079,63.079-155.755,87.683-241.861,64.216C17.626,502.481,15.083,500.97,13.056,498.943z"/>
<path style="fill:#8B8A8F;" d="M262.35,439.048l22.95-22.95c6.546-6.546,6.547-17.159,0-23.705l-82.847-82.847L13.056,498.943  c2.027,2.027,4.57,3.538,7.433,4.319C106.596,526.729,199.272,502.126,262.35,439.048z"/>
<path style="fill:#E1E3FA;" d="M139.528,325.122c0,0,74.768-74.749,74.779-74.749l47.335,47.335  c0,0.012-74.765,74.765-74.765,74.765c-1.225,1.225-2.719,2.148-4.363,2.696l-57.897,19.299c-4.379,1.46-8.546-2.706-7.086-7.086  l19.299-57.897C137.379,327.841,138.302,326.348,139.528,325.122z"/>
<path style="fill:#C1C2D6;" d="M237.967,274.032L118.886,393.114c1.406,1.406,3.543,2.083,5.732,1.353l57.897-19.299  c1.644-0.548,3.137-1.471,4.363-2.696c0,0,74.764-74.752,74.765-74.765L237.967,274.032z"/>
<polygon style="fill:#997B57;" points="387.891,76.759 435.24,124.108 261.64,297.708 214.307,250.373 "/>
<g>
	
		<rect x="319.864" y="76.323" transform="matrix(0.7071 0.7071 -0.7071 0.7071 239.3565 -179.7079)" style="fill:#806749;" width="33.481" height="245.504"/>
	<path style="fill:#806749;" d="M447.094,159.605l-94.699-94.699c-6.539-6.539-6.536-17.139,0-23.675l28.568-28.568   c16.886-16.886,44.356-16.881,61.237,0l57.137,57.137c16.881,16.881,16.886,44.351,0,61.237l-28.568,28.568   C464.233,166.14,453.633,166.144,447.094,159.605z M387.907,53.069l71.025,71.025l16.731-16.731c3.83-3.83,3.83-10.057,0-13.887   l-57.137-57.139c-3.83-3.83-10.057-3.83-13.887,0L387.907,53.069z"/>
</g>
<path style="fill:#665247;" d="M499.337,69.799l-28.568-28.568l-23.675,23.675l28.568,28.568c3.83,3.83,3.83,10.057,0,13.887  l-16.731,16.731l-35.512-35.512l-23.675,23.675l47.349,47.349c6.539,6.539,17.139,6.536,23.675,0l28.568-28.568  C516.223,114.151,516.218,86.681,499.337,69.799z"/>
<g>
</g>
<g>
</g>
<g>
</g>
<g>
</g>
<g>
</g>
<g>
</g>
<g>
</g>
<g>
</g>
<g>
</g>
<g>
</g>
<g>
</g>
<g>
</g>
<g>
</g>
<g>
</g>
<g>
</g>
</svg>
