<?xml version="1.0" encoding="iso-8859-1"?>
<!-- Generator: Adobe Illustrator 19.0.0, SVG Export Plug-In . SVG Version: 6.00 Build 0)  -->
<svg version="1.1" id="Capa_1" xmlns="http://www.w3.org/2000/svg" xmlns:xlink="http://www.w3.org/1999/xlink" x="0px" y="0px"
	 viewBox="0 0 512 512" style="enable-background:new 0 0 512 512;" xml:space="preserve">
<path style="fill:#FFC107;" d="M384,64c-20.938,0.557-41.097,8.062-57.301,21.333H185.301C169.097,72.062,148.938,64.557,128,64
	C92.032,64,23.467,90.709,21.333,191.765c0.755,44.648,8.109,88.939,21.824,131.435C82.688,448.469,125.589,512,170.667,512
	c17.228-2.479,33.372-9.888,46.485-21.333h77.717c13.108,11.442,29.243,18.85,46.464,21.333c45.077,0,87.979-63.531,127.509-188.8
	c13.715-42.496,21.069-86.787,21.824-131.435C488.533,90.709,419.968,64,384,64z"/>
<path style="fill:#4CAF50;" d="M266.667,85.333c-5.891,0-10.667-4.776-10.667-10.667c0-22.784-15.829-53.333-32-53.333
	c-5.891,0-10.667-4.776-10.667-10.667S218.109,0,224,0c32.555,0,53.333,44.224,53.333,74.667
	C277.333,80.558,272.558,85.333,266.667,85.333z"/>
<path style="fill:#FFB300;" d="M256,64c-58.881,0.071-106.596,47.786-106.667,106.667C149.333,184.597,150.549,512,256,512
	s106.667-327.403,106.667-341.333C362.596,111.786,314.881,64.071,256,64z"/>
<g>
</g>
<g>
</g>
<g>
</g>
<g>
</g>
<g>
</g>
<g>
</g>
<g>
</g>
<g>
</g>
<g>
</g>
<g>
</g>
<g>
</g>
<g>
</g>
<g>
</g>
<g>
</g>
<g>
</g>
</svg>
