<svg id="Layer_1" height="512" viewBox="0 0 32 32" width="512" xmlns="http://www.w3.org/2000/svg" data-name="Layer 1"><path d="m29 21.46v5.54h-10v-12h5.34a1 1 0 0 1 .92.61l1.44 3.39 2 1.7a1 1 0 0 1 .3.76z" fill="#00baf0"/><path d="m26.7 19h-7.7v-4h5.34a1 1 0 0 1 .92.61z" fill="#00ccfa"/><path d="m4 11h16a1 1 0 0 1 1 1v15a0 0 0 0 1 0 0h-17a1 1 0 0 1 -1-1v-14a1 1 0 0 1 1-1z" fill="#edebf2"/><circle cx="25" cy="27" fill="#004e6d" r="2"/><circle cx="9" cy="27" fill="#004e6d" r="2"/><path d="m15 7.54c0 3.08-2.49 6.24-3.76 7.67a1 1 0 0 1 -1.49 0c-1.28-1.44-3.75-4.62-3.75-7.71a4.49 4.49 0 0 1 4.52-4.5 4.56 4.56 0 0 1 4.48 4.54z" fill="#ff3645"/><circle cx="10.5" cy="7.5" fill="#edebf2" r="1.5"/></svg>