<svg id="Layer_1" enable-background="new 0 0 512 512" height="512" viewBox="0 0 512 512" width="512" xmlns="http://www.w3.org/2000/svg"><g><path d="m497 512h-482c-8.284 0-15-6.716-15-15v-317.569c0-8.284 6.716-15 15-15h482c8.284 0 15 6.716 15 15v317.569c0 8.284-6.716 15-15 15z" fill="#f6d3ae"/><path d="m497 164.431h-241v347.569h241c8.284 0 15-6.716 15-15v-317.569c0-8.284-6.716-15-15-15z" fill="#f1c290"/><g><path d="m432.733 512h-128.533c-8.284 0-15-6.716-15-15v-224.933c0-8.284 6.716-15 15-15h128.533c8.284 0 15 6.716 15 15v224.933c0 8.284-6.715 15-15 15z" fill="#9c6114"/><path d="m336.333 399.533h-32.133c-8.284 0-15-6.716-15-15s6.716-15 15-15h32.133c8.284 0 15 6.716 15 15s-6.716 15-15 15z" fill="#c78a42"/></g><path d="m159.6 447.733h-80.334c-8.284 0-15-6.716-15-15v-80.333c0-52.567 42.767-95.333 95.334-95.333h80.333c8.284 0 15 6.716 15 15v80.333c0 52.567-42.766 95.333-95.333 95.333z" fill="#41d76c"/><path d="m170.207 341.794c-5.857-5.858-15.355-5.858-21.213 0l-80.334 80.333c-5.858 5.857-5.858 15.355 0 21.213 5.857 5.858 15.355 5.858 21.213 0l80.334-80.333c5.858-5.858 5.858-15.355 0-21.213z" fill="#00b464"/><g><path d="m256 0h-85.333c-8.284 0-15 6.716-15 15v150.133c0 8.284 6.716 15 15 15 0 23.564 19.103 42.667 42.667 42.667s42.667-19.103 42.667-42.667c8.284 0 15-6.716 15-15v-150.133c-.001-8.284-6.717-15-15.001-15z" fill="#fff4eb"/><path d="m426.667 0h-85.333c-8.284 0-15 6.716-15 15v150.133c0 8.284 6.716 15 15 15 0 23.564 19.103 42.667 42.667 42.667s42.667-19.103 42.667-42.667c8.284 0 15-6.716 15-15v-150.133c-.001-8.284-6.717-15-15.001-15z" fill="#fae3cd"/><path d="m85.333 0h-70.333c-8.284 0-15 6.716-15 15v164.431c0 23.397 18.543 42.972 41.937 43.363 23.898.399 43.396-18.854 43.396-42.661 8.284 0 15-6.716 15-15v-150.133c0-8.284-6.715-15-15-15z" fill="#fff4eb"/><path d="m426.667 0v179.431c0 23.397 18.543 42.972 41.937 43.363 23.898.399 43.396-18.854 43.396-42.661v-165.133c0-8.284-6.716-15-15-15z" fill="#ff5050"/><path d="m256 0v180.133c0 23.564 19.103 42.667 42.667 42.667s42.667-19.103 42.667-42.667v-180.133z" fill="#ff5050"/><path d="m85.333 0v180.133c0 23.564 19.103 42.667 42.667 42.667s42.667-19.103 42.667-42.667v-180.133z" fill="#ff8291"/></g></g></svg>