<svg height="512" viewBox="0 0 57 58" width="512" xmlns="http://www.w3.org/2000/svg"><g id="013---Carrot" fill="none" fill-rule="evenodd" transform="translate(-1)"><g fill-rule="nonzero"><path id="Shape" d="m56.83 14.09c-1.1160939-1.0333668-2.5036502-1.727145-4-2 2.64-2.91 2.57-5.35 1-6.91-1.55-1.53-4-1.6-6.89 1-.2669318-1.49831922-.9615037-2.88746303-2-4-.7859574-.78713796-1.8526533-1.22944684-2.965-1.22944684s-2.1790426.44230888-2.965 1.22944684c-1.77 1.77-1.77 6-1.49 9.17.1502568 1.7135837-.2415139 3.4310787-1.12 4.91l3.13 3.13 3.26 3.26c1.5354004-.8034403 3.2843939-1.1042672 5-.86 2.72.4 6.29.41 8.59-1.46.920129-.7466784 1.4904327-1.8406904 1.5756663-3.0225962s-.3221951-2.3464273-1.1256663-3.2174038z" fill="#24ae5f"/><path id="Shape" d="m53.83 5.17-14.27 14.27-3.13-3.13c.8784861-1.4789213 1.2702568-3.1964163 1.12-4.91-.28-3.12-.28-7.4 1.45-9.17.7859574-.78713796 1.8526533-1.22944684 2.965-1.22944684s2.1790426.44230888 2.965 1.22944684c1.0384963 1.11253697 1.7330682 2.50168078 2 4 2.9-2.66 5.35-2.59 6.9-1.06z" fill="#4fba6f"/><path id="Shape" d="m39.39 20.61c-.265803.0015368-.5212812-.1028135-.71-.29-.1893127-.1877666-.2957983-.4433625-.2957983-.71s.1064856-.5222334.2957983-.71l8.11-8.11c.3921222-.3921221 1.0278778-.3921221 1.42 0 .3921221.3921222.3921221 1.0278778 0 1.42l-8.11 8.11c-.1887188.1871865-.444197.2915368-.71.29z" fill="#4c8056"/><path id="Shape" d="m39.37 20.59c-.2430724-.0003498-.4776958-.0892223-.66-.25-.4137044-.3647578-.4539711-.9956033-.09-1.41 2.57-2.91 2.72-7.44 2.58-9.88-.0303757-.55228475.3927153-1.02462434.945-1.055s1.0246243.39271525 1.055.945c.15 2.75 0 7.87-3.08 11.31-.1895698.2157843-.4627728.3396363-.75.34z" fill="#4c8056"/><path id="Shape" d="m39.41 20.63c-.2872272-.0003637-.5604302-.1242157-.75-.34-.3639711-.4143967-.3237044-1.0452422.09-1.41 3.44-3 8.56-3.24 11.31-3.08.5522847.0331371.9731371.5077153.94 1.06s-.5077153.9731371-1.06.94c-2.44-.14-7 0-9.87 2.58-.1823042.1607777-.4169276.2496502-.66.25z" fill="#4c8056"/><path id="Shape" d="m46.79 33.41c-.0651243.0564963-.1354361.1067191-.21.15l-1.5.94-8.14 5.06-1.73 1.07-11.21 6.98-1.72 1.08-13.83 8.59c-1.92449494 1.198039-4.42426374.8897341-6-.74-1.62973414-1.5757363-1.93803896-4.0755051-.74-6l3.61-5.8 1.08-1.74 8.51-13.69 1.09-1.71 5.56-8.93 1.05-1.67 2.83-4.55c.7885175-1.3033006 2.1281457-2.176067 3.6389233-2.3707548 1.5107776-.19468786 3.0279051.3099399 4.1210767 1.3707548l14.38 14.35c1.0246603 1.0615017 1.5282046 2.5213516 1.375864 3.9888348-.1523406 1.4674831-.9450122 2.7927719-2.165864 3.6211652z" fill="#e57e25"/><path id="Shape" d="m40.39 18.61-7.72 7.72-1.41 1.41-28.8 28.8c-1.62973414-1.5757363-1.93803896-4.0755051-.74-6l3.61-5.8 1.07-1.74 8.51-13.69 1.09-1.71 5.56-8.93 1.05-1.67 2.83-4.55c.7885175-1.3033006 2.1281457-2.176067 3.6389233-2.3707548 1.5107776-.19468786 3.0279051.3099399 4.1210767 1.3707548z" fill="#f29c1f"/><path id="Shape" d="m46.79 33.41c-.0651243.0564963-.1354361.1067191-.21.15l-1.5.94-8.14 5.06-1.73 1.07-11.21 6.98-1.72 1.08-13.83 8.59c-1.92449494 1.198039-4.42426374.8897341-6-.74l28.8-28.8 1.41-1.41 7.72-7.72 7.19 7.19c1.025677 1.0601318 1.5308992 2.519067 1.3804952 3.9864699-.1504039 1.467403-.9410841 2.7935125-2.1604952 3.6235301z" fill="#e57e25"/><path id="Shape" d="m28.73 24c-.3900375.3877236-1.0199625.3877236-1.41 0l-5.77-5.39 1.06-1.61c.0595721.0309249.1136319.0714697.16.12l5.91 5.52c.3701416.3703346.3919486.9634857.05 1.36z" fill="#f3d55b"/><path id="Shape" d="m33 29c-.2526349-.0008725-.4955769-.0973348-.68-.27l-1.07-1c-.3591803-.3838307-.3598607-.9802259-.0015573-1.3648753.3583035-.3846493.9532489-.4262149 1.3615573-.0951247l1.07 1c.3877236.3900375.3877236 1.0199625 0 1.41-.1764388.1910227-.4203487.3058039-.68.32z" fill="#f3d55b"/><path id="Shape" d="m36.94 39.56-1.73 1.07-5.92-5.92c-.3921221-.3921222-.3921221-1.0278778 0-1.42.3921222-.3921221 1.0278778-.3921221 1.42 0l6.09 6.09c.0527766.0549878.0996953.1153119.14.18z" fill="#f3d55b"/><path id="Shape" d="m22.71 35.71c-.1877666.1893127-.4433625.2957983-.71.2957983s-.5222334-.1064856-.71-.2957983l-6.38-6.38 1.09-1.73.18.15 6.54 6.54c.1879965.1890965.2926865.4454436.2908087.7120832-.0018777.2666396-.1101676.5214867-.3008087.7079168z" fill="#f3d55b"/><path id="Shape" d="m46.79 33.41c-.0651243.0564963-.1354361.1067191-.21.15l-1.5.94-7.79-7.79c-.3921222-.3921222-.3921222-1.0278778 0-1.42s1.0278778-.3921222 1.42 0l7.95 8c.0482341.0343409.0919162.0746629.13.12z" fill="#f3d55b"/><path id="Shape" d="m16 42c-.265803.0015368-.5212812-.1028135-.71-.29l-1-1c-.3921221-.3921222-.3921221-1.0278778 0-1.42.3921222-.3921221 1.0278778-.3921221 1.42 0l1 1c.1893127.1877666.2957983.4433625.2957983.71s-.1064856.5222334-.2957983.71c-.1887188.1871865-.444197.2915368-.71.29z" fill="#f3d55b"/><path id="Shape" d="m24 47.61-1.72 1.08-4-4c-.2536586-.2536586-.3527235-.623374-.259878-.969878.0928454-.3465041.3634959-.6171546.71-.71.346504-.0928455.7162194.0062194.969878.259878l4.14 4.14c.0647032.0567164.11887.124425.16.2z" fill="#f3d55b"/><path id="Shape" d="m9.71 47.71c-.1877666.1893127-.44336246.2957983-.71.2957983s-.5222334-.1064856-.71-.2957983l-3-3 1.11-1.71c.06468814.0403047.1250122.0872234.18.14l3.13 3.13c.19555187.1884832.3060259.4484002.3060259.72s-.11047403.5315168-.3060259.72z" fill="#f3d55b"/></g><path id="Shape" d="m39.56 19.44-2.56 2.56"/></g></svg>