<svg height="512pt" viewBox="-16 0 512 512" width="512pt" xmlns="http://www.w3.org/2000/svg"><path d="m336.335938 0h-224.933594c-3.980469 0-7.792969 1.582031-10.605469 4.394531l-96.402344 96.398438c-2.8125 2.8125-4.394531 6.628906-4.394531 10.605469v353.46875c0 25.988281 21.144531 47.132812 47.132812 47.132812h289.203126c25.914062 0 47.132812-20.953125 47.132812-47.132812v-417.734376c0-25.914062-20.953125-47.132812-47.132812-47.132812zm0 0" fill="#eff6fe"/><g fill="#d9e4ef"><path d="m336.335938 0h-144.605469v512h144.605469c25.914062 0 47.132812-20.953125 47.132812-47.132812v-417.734376c0-25.914062-20.953125-47.132812-47.132812-47.132812zm0 0"/><path d="m95.335938 112.46875c9.445312 0 17.132812-7.6875 17.132812-17.132812v-95.335938h-1.070312c-3.976563 0-7.792969 1.582031-10.605469 4.394531l-96.398438 96.398438c-2.8125 2.8125-4.394531 6.628906-4.394531 10.605469v1.070312zm0 0"/><path d="m288.132812 192.800781h-192.796874c-8.285157 0-15 6.714844-15 15 0 8.285157 6.714843 15 15 15h192.796874c8.285157 0 15-6.714843 15-15 0-8.285156-6.714843-15-15-15zm0 0"/><path d="m288.132812 257.066406h-192.796874c-8.285157 0-15 6.714844-15 15s6.714843 15 15 15h192.796874c8.285157 0 15-6.714844 15-15s-6.714843-15-15-15zm0 0"/><path d="m288.132812 321.332031h-192.796874c-8.285157 0-15 6.71875-15 15 0 8.285157 6.714843 15 15 15h192.796874c8.285157 0 15-6.714843 15-15 0-8.28125-6.714843-15-15-15zm0 0"/><path d="m176.734375 385.601562h-81.398437c-8.285157 0-15 6.714844-15 15 0 8.28125 6.714843 15 15 15h81.398437c8.285156 0 15-6.71875 15-15 0-8.285156-6.714844-15-15-15zm0 0"/></g><path d="m303.132812 207.800781c0 8.277344-6.710937 15-15 15h-96.402343v-30h96.402343c8.289063 0 15 6.71875 15 15zm0 0" fill="#c1cedb"/><path d="m303.132812 272.070312c0 8.28125-6.710937 15-15 15h-96.402343v-30h96.402343c8.289063 0 15 6.710938 15 15zm0 0" fill="#c1cedb"/><path d="m303.132812 336.328125c0 8.292969-6.710937 15-15 15h-96.402343v-30h96.402343c8.289063 0 15 6.722656 15 15zm0 0" fill="#c1cedb"/><path d="m320.265625 335.265625c-8.28125 0-15-6.714844-15-15v-48.199219c0-34.847656 28.351563-63.199218 63.203125-63.199218 34.847656 0 63.199219 28.351562 63.199219 63.199218 0 8.285156-6.71875 15-15 15-8.285157 0-15-6.714844-15-15 0-18.304687-14.894531-33.199218-33.199219-33.199218-18.308594 0-33.203125 14.894531-33.203125 33.199218v48.199219c0 8.285156-6.714844 15-15 15zm0 0" fill="#ff7579"/><path d="m464.867188 512h-192.800782c-8.285156 0-15-6.714844-15-15v-176.734375c0-8.28125 6.714844-15 15-15h192.800782c8.285156 0 15 6.71875 15 15v176.734375c0 8.285156-6.714844 15-15 15zm0 0" fill="#ffcc4b"/><path d="m464.867188 305.265625h-96.398438v206.734375h96.398438c8.285156 0 15-6.714844 15-15v-176.734375c0-8.285156-6.714844-15-15-15zm0 0" fill="#ffb826"/><path d="m368.46875 447.734375c-8.285156 0-15-6.71875-15-15v-48.203125c0-8.28125 6.714844-15 15-15 8.28125 0 15 6.71875 15 15v48.203125c0 8.285156-6.71875 15-15 15zm0 0" fill="#ff7579"/><path d="m368.46875 369.53125v78.203125c8.28125 0 15-6.71875 15-15v-48.203125c0-8.28125-6.71875-15-15-15zm0 0" fill="#ff244e"/><path d="m368.46875 208.867188v30c18.304688 0 33.199219 14.894531 33.199219 33.199218 0 8.285156 6.714843 15 15 15 8.28125 0 15-6.714844 15-15 0-34.847656-28.351563-63.199218-63.199219-63.199218zm0 0" fill="#ff244e"/></svg>