<svg id="Capa_1" enable-background="new 0 0 483.253 483.253" height="512" viewBox="0 0 483.253 483.253" width="512" xmlns="http://www.w3.org/2000/svg"><g><g id="icon_12_"><path d="m398.932 12.963 77.327 77.327c10.932-10.932 2.487-37.128-18.859-58.456-21.345-21.329-47.535-29.78-58.468-18.871z" fill="#575b6d"/><path d="m0 468.336 32.903 8.922 26.761-26.767-20.909-20.91z" fill="#ef5261"/><path d="m24.116 437.248 27.881 27.881c50.023-31.383 107.519-48.837 166.546-50.559l-143.868-143.868c-1.723 59.027-19.177 116.523-50.559 166.546z" fill="#575b6d"/><path d="m367.845 12.963-268.636 236.176 140.898 140.904 236.181-268.643c9.763-11.167 9.198-27.99-1.291-38.478l-68.675-68.675c-10.489-10.487-27.312-11.048-38.477-1.284z" fill="#2cbfae"/><path d="m74.675 270.702 143.868 143.869 21.564-24.528-140.898-140.904z" fill="#16a897"/></g></g></svg>