<svg height="512" viewBox="0 0 58 58" width="512" xmlns="http://www.w3.org/2000/svg"><g id="Page-1" fill="none" fill-rule="evenodd"><g id="013---Chat"><rect id="Rectangle" fill="#90bae1" height="53" rx="3" width="34" x="12"/><path id="Path" d="m46 3v21.23c-5.79 12.14-16.23 24.88-34 21.32v-42.55c0-1.65685425 1.3431458-3 3-3h28c1.6568542 0 3 1.34314575 3 3z" fill="#b0d3f0"/><path id="Path" d="m46 50v5c0 1.6568542-1.3431458 3-3 3h-28c-1.6568542 0-3-1.3431458-3-3v-5c0 1.6568542 1.3431458 3 3 3h28c1.6568542 0 3-1.3431458 3-3z" fill="#547580"/><path id="Path" d="m39 0-2.861 3.052c-.5672653.60498515-1.3596648.94815313-2.189.948h-9.9c-.8293352.00015313-1.6217347-.34301485-2.189-.948l-2.861-3.052z" fill="#547580"/><path id="Path" d="m25 25h-22c-1.65685425 0-3-1.3431458-3-3v-8c0-1.6568542 1.34314575-3 3-3h22c1.6568542 0 3 1.3431458 3 3v1l4 3-4 3v1c0 1.6568542-1.3431458 3-3 3z" fill="#f0c419"/><circle id="Oval" cx="39" cy="18" fill="#3b97d3" r="3"/><path id="Path" d="m33 45h22c1.6568542 0 3-1.3431458 3-3v-8c0-1.6568542-1.3431458-3-3-3h-22c-1.6568542 0-3 1.3431458-3 3v1l-4 3 4 3v1c0 1.6568542 1.3431458 3 3 3z" fill="#ff5364"/><circle id="Oval" cx="19" cy="38" fill="#3b97d3" r="3"/><g fill="#35495e"><path id="Path" d="m23 17h-18c-.55228475 0-1-.4477153-1-1s.44771525-1 1-1h18c.5522847 0 1 .4477153 1 1s-.4477153 1-1 1z"/><path id="Path" d="m9 21h-4c-.55228475 0-1-.4477153-1-1s.44771525-1 1-1h4c.55228475 0 1 .4477153 1 1s-.44771525 1-1 1z"/><path id="Path" d="m23 21h-10c-.5522847 0-1-.4477153-1-1s.4477153-1 1-1h10c.5522847 0 1 .4477153 1 1s-.4477153 1-1 1z"/><path id="Path" d="m53 37h-18c-.5522847 0-1-.4477153-1-1s.4477153-1 1-1h18c.5522847 0 1 .4477153 1 1s-.4477153 1-1 1z"/><path id="Path" d="m39 41h-4c-.5522847 0-1-.4477153-1-1s.4477153-1 1-1h4c.5522847 0 1 .4477153 1 1s-.4477153 1-1 1z"/><path id="Path" d="m53 41h-10c-.5522847 0-1-.4477153-1-1s.4477153-1 1-1h10c.5522847 0 1 .4477153 1 1s-.4477153 1-1 1z"/></g></g></g></svg>