<svg id="Layer_1" enable-background="new 0 0 512 512" height="512" viewBox="0 0 512 512" width="512" xmlns="http://www.w3.org/2000/svg"><path d="m307.66 417h-155.76c0 53.88 43.68 78 97.55 78s97.55-24.16 97.55-78c0-.35.05-.69.05-1v-312c.007-10.88-8.808-19.705-19.688-19.712s-19.705 8.808-19.712 19.688v.024z" fill="#ddd"/><path d="m328.85 218.16h-2.78c-17.414 0-31.53-14.116-31.53-31.53v-138.1c0-17.414 14.116-31.53 31.53-31.53h2.78c17.414 0 31.53 14.116 31.53 31.53v138.1c0 17.414-14.116 31.53-31.53 31.53z" fill="#f8a501"/><path d="m353.19 29.43c.241 1.605.362 3.227.36 4.85v135.39c-.06 18.136-14.744 32.824-32.88 32.89h-.07c-10.011-.018-19.468-4.598-25.69-12.44 2.463 16.07 16.263 27.951 32.52 28h.07c18.132-.066 32.814-14.748 32.88-32.88v-135.36c-.003-7.436-2.539-14.649-7.19-20.45z" fill="#ec8c36"/><path d="m347 398.88c-28.56 61-82 75.63-140.75 75.63-10.576.001-21.128-.986-31.52-2.95 17.89 15.94 44.72 23.44 74.72 23.44 53.88 0 97.55-24.16 97.55-78 0-.35.05-.69.05-1z" fill="#b2b2b2"/></svg>