<?xml version="1.0" encoding="iso-8859-1"?>
<!-- Generator: Adobe Illustrator 19.0.0, SVG Export Plug-In . SVG Version: 6.00 Build 0)  -->
<svg version="1.1" id="Capa_1" xmlns="http://www.w3.org/2000/svg" xmlns:xlink="http://www.w3.org/1999/xlink" x="0px" y="0px"
	 viewBox="0 0 512 512" style="enable-background:new 0 0 512 512;" xml:space="preserve">
<path style="fill:#F4CC78;" d="M196.267,4.267c-0.145,0-0.282,0.026-0.427,0.026c0.247,2.807,0.427,5.632,0.427,8.508
	c0,51.84-42.027,93.867-93.867,93.867c-5.658,0-11.17-0.589-16.555-1.545c-0.307,3.319-0.512,6.673-0.512,10.078
	c0,37.171,18.355,69.973,46.413,90.103C142.114,189.38,184.73,194.637,204.8,192c2.927-12.45,42.436-16.196,51.2-25.6
	c13.363-23.279,14.302-25.6,42.667-25.6c13.474,0,6.238-23.39,17.067-17.067c1.732-5.154-13.329-23.714-10.334-28.092
	C296.149,43.716,250.846,4.267,196.267,4.267z"/>
<path style="fill:#A5BFCE;" d="M221.867,507.733c-32.939,0-59.733-26.803-59.733-59.733s26.795-59.733,59.733-59.733h221.867
	c4.71,0,8.533,3.814,8.533,8.533s-3.823,8.533-8.533,8.533H221.867c-23.526,0-42.667,19.14-42.667,42.667
	s19.14,42.667,42.667,42.667s42.667-19.14,42.667-42.667c0-4.719,3.823-8.533,8.533-8.533c4.71,0,8.533,3.814,8.533,8.533
	C281.6,480.93,254.805,507.733,221.867,507.733z"/>
<g>
	<path style="fill:#C6E2F7;" d="M503.467,405.333h-25.6c-4.71,0-8.533-3.814-8.533-8.533s3.823-8.533,8.533-8.533h25.6
		c4.71,0,8.533,3.814,8.533,8.533S508.177,405.333,503.467,405.333z"/>
	<path style="fill:#C6E2F7;" d="M59.733,473.6C26.795,473.6,0,446.797,0,413.867s26.795-59.733,59.733-59.733h179.2
		c4.71,0,8.533,3.814,8.533,8.533s-3.823,8.533-8.533,8.533h-179.2c-23.526,0-42.667,19.14-42.667,42.667
		s19.14,42.667,42.667,42.667s42.667-19.14,42.667-42.667c0-4.719,3.823-8.533,8.533-8.533c4.71,0,8.533,3.814,8.533,8.533
		C119.467,446.797,92.672,473.6,59.733,473.6z"/>
</g>
<path style="fill:#A5BFCE;" d="M298.667,371.2h-25.6c-4.71,0-8.533-3.814-8.533-8.533s3.823-8.533,8.533-8.533h25.6
	c4.71,0,8.533,3.814,8.533,8.533S303.377,371.2,298.667,371.2z"/>
<path style="fill:#E7ECED;" d="M441.847,152.883c1.28-5.359,2.031-10.923,2.031-16.674c0-39.876-32.606-72.209-72.823-72.209
	c-32.171,0-63.189,17.263-72.823,45.952c-10.829-6.323-19.627-6.562-33.101-6.562c-40.235-0.009-77.397,31.667-77.397,71.543
	c-40.226,0-68.267,32.981-68.267,72.858S152.073,320,192.29,320h19.866h192H417.4c47.531,0,86.067-38.204,86.067-85.333
	C503.467,195.968,477.466,163.328,441.847,152.883z"/>
<g>
	<path style="fill:#AFB6BB;" d="M384,294.4h-59.733c-4.71,0-8.533-3.814-8.533-8.533c0-4.719,3.823-8.533,8.533-8.533H384
		c4.71,0,8.533,3.814,8.533,8.533C392.533,290.586,388.71,294.4,384,294.4z"/>
	<path style="fill:#AFB6BB;" d="M420.326,294.443c-0.836,0-1.681-0.017-2.534-0.051c-4.71-0.179-8.371-4.147-8.192-8.858
		c0.188-4.719,4.053-8.644,8.866-8.192c11.511,0.478,22.101-3.371,29.773-10.769c8.124-7.834,12.587-19.157,12.553-31.881
		c-0.009-4.719,3.797-8.55,8.516-8.559c0.009,0,0.017,0,0.017,0c4.702,0,8.525,3.806,8.533,8.508
		c0.043,17.434-6.272,33.135-17.775,44.228C449.613,288.956,435.567,294.443,420.326,294.443z"/>
</g>
<g>
</g>
<g>
</g>
<g>
</g>
<g>
</g>
<g>
</g>
<g>
</g>
<g>
</g>
<g>
</g>
<g>
</g>
<g>
</g>
<g>
</g>
<g>
</g>
<g>
</g>
<g>
</g>
<g>
</g>
</svg>
