<svg id="Layer_1" enable-background="new 0 0 512 512" height="512" viewBox="0 0 512 512" width="512" xmlns="http://www.w3.org/2000/svg"><g><path d="m406.627 511.508-147.394-73.547c-1.149-.573-2.5-.578-3.653-.013l-150.233 73.626c-2.738 1.342-5.934-.651-5.934-3.7v-503.753c0-2.276 1.845-4.121 4.121-4.121h304.934c2.276 0 4.121 1.845 4.121 4.121v503.7c-.001 3.062-3.222 5.054-5.962 3.687z" fill="#fec165"/><g><path d="m408.467 0h-30.905c2.276 0 4.121 1.845 4.121 4.121v494.94l24.945 12.447c2.74 1.367 5.961-.625 5.961-3.687v-503.7c-.001-2.276-1.846-4.121-4.122-4.121z" fill="#fdb441"/></g><circle cx="256" cy="202.114" fill="#01d0fb" r="108.54"/><path d="m256 93.574c-5.247 0-10.405.38-15.453 1.1 52.624 7.502 93.087 52.742 93.087 107.439s-40.463 99.937-93.087 107.439c5.048.72 10.206 1.1 15.453 1.1 59.945 0 108.54-48.595 108.54-108.539s-48.595-108.539-108.54-108.539z" fill="#01c0fa"/><path d="m239.28 153.796c1.544 4.617-.289 9.764-3.198 13.662-2.914 3.903-6.816 6.927-10.193 10.429s-6.348 7.8-6.619 12.663c-.246 4.404 1.746 8.572 3.112 12.769 4.129 11.742-2.759 19.281-14.805 15.688-16.474-5.789-21.607-24.723-24.848-40.203-1.833-8.051-3.816-16.204-7.892-23.382-3.353-5.446-6.575-9.725-8.543-14.429 17.217-25.22 44.781-42.803 76.581-46.634h.005c1.659.598 3.14 1.64 4.014 3.155 3.965 8.273-6.508 18.794-10.82 25.456-3.898 5.803-6.739 13.309-3.864 19.677 1.812 4.029 5.671 6.957 7.07 11.149z" fill="#00f2a6"/><path d="m305.156 250.493c-3.715 7.405-6.059 15.929-4.168 23.999 1.404 5.982 5.002 11.216 6.942 17.048.613 1.804.974 3.584 1.1 5.297-6.594 3.7-13.608 6.729-20.96 9.002-.878-1.042-1.79-2.094-3-2.933-6.435-4.443-15.316-4.983-20.598-11.177-6.146-7.197-4.361-19.566-11.901-25.292-3.42-2.595-8.196-3.237-11.081-6.421-2.851-3.14-3.025-7.81-3.044-12.055-.024-5.774-.043-11.602 1.172-17.246 2.861-13.025 10.063-18.119 22.33-21.713 10.54-3.44 21.081-6.874 31.626-10.309 7.328-2.499 16.189-4.94 23.136-.299 4.674 3.189 6.84 9.199 6.594 14.853-1.056 14.217-12.224 24.897-18.148 37.246z" fill="#00f2a6"/><path d="m288.07 305.839c7.352-2.272 14.366-5.302 20.96-9.002-.125-1.713-.487-3.493-1.1-5.297-1.501-4.513-3.985-8.671-5.687-13.092-7.861 7.943-16.939 14.68-26.934 19.904 3.38 1.31 6.824 2.526 9.759 4.553 1.212.84 2.124 1.892 3.002 2.934z" fill="#05e39c"/><path d="m349.436 146.85c-3.763 4.94-11.143 6.565-20.574 5.374-6.903-.627-14.732-1.066-19.812 3.652-1.225 1.138-2.311 2.59-3.927 3.034-3.84.883-6.213-3.16-7.019-6.382-2.769-9.199-2.827-19.359.796-28.259 2.542-6.257 6.976-11.751 12.629-15.432 15.591 9.301 28.65 22.398 37.907 38.013z" fill="#00f2a6"/><path d="m311.529 108.837c-5.282 3.439-9.477 8.471-12.082 14.218 8.798 8.276 16.216 18.002 21.868 28.799 2.523-.048 5.093.147 7.547.369 9.431 1.192 16.812-.434 20.574-5.374-9.257-15.614-22.316-28.711-37.907-38.012z" fill="#05e39c"/></g></svg>