<svg id="Layer_1" enable-background="new 0 0 65 65" height="512" viewBox="0 0 65 65" width="512" xmlns="http://www.w3.org/2000/svg"><g><path d="m60.3.5h-55.6c-2.3 0-4.2 1.9-4.2 4.2v38.8c0 2.3 1.9 4.2 4.2 4.2h4.3v16.8l16.8-16.8h34.5c2.3 0 4.2-1.9 4.2-4.2v-38.8c0-2.3-1.9-4.2-4.2-4.2z" fill="#f0b972"/><path d="m60.3.5h-55.6c-2.3 0-4.2 1.9-4.2 4.2v2.7c0-2.3 1.9-4.2 4.2-4.2h55.6c2.3 0 4.2 1.9 4.2 4.2v-2.7c0-2.3-1.9-4.2-4.2-4.2z" fill="#fdc77c"/><path d="m32.5 7.9 3.6 11.1h11.6l-9.4 6.8 3.6 11.1-9.4-6.9-9.4 6.9 3.6-11.1-9.4-6.8h11.6z" fill="#eff3f5"/></g></svg>