<?xml version="1.0" encoding="iso-8859-1"?>
<!-- Generator: Adobe Illustrator 19.0.0, SVG Export Plug-In . SVG Version: 6.00 Build 0)  -->
<svg xmlns="http://www.w3.org/2000/svg" xmlns:xlink="http://www.w3.org/1999/xlink" version="1.1" id="Capa_1" x="0px" y="0px" viewBox="0 0 512 512" style="enable-background:new 0 0 512 512;" xml:space="preserve">
<path style="fill:#FFAE45;" d="M316.983,105.918L280.505,16.47C276.424,6.465,266.806,0,256,0s-20.424,6.465-24.505,16.471  l-36.479,89.447c-1.886,4.625-1.346,9.886,1.44,14.031c2.786,4.146,7.454,6.633,12.449,6.633h94.188  c4.995,0,9.663-2.486,12.449-6.633C318.329,115.804,318.868,110.543,316.983,105.918z"/>
<path style="fill:#BD0058;" d="M316.482,96.582H195.518c-8.284,0-15,6.716-15,15v40.956c0,8.284,6.716,15,15,15h120.965  c8.284,0,15-6.716,15-15v-40.956C331.482,103.298,324.767,96.582,316.482,96.582z"/>
<path style="fill:#FFAE45;" d="M384.237,231.01l-5.994-29.096c-6.008-29.166-31.982-50.335-61.762-50.335H195.518  c-29.779,0-55.754,21.169-61.762,50.335l-5.994,29.096c-0.86,4.177-1.297,8.457-1.297,12.723v178.273  c0,4.397,0.463,8.807,1.376,13.104l5.723,26.936c6.149,28.945,32.09,49.954,61.682,49.954h121.506  c29.592,0,55.533-21.009,61.684-49.955l5.721-26.935c0.914-4.298,1.377-8.707,1.377-13.104V243.732  C385.534,239.467,385.098,235.187,384.237,231.01z"/>
<path style="fill:#BD0058;" d="M385.534,243.732c0-1.803-0.095-3.608-0.25-5.408H126.716c-0.155,1.8-0.25,3.604-0.25,5.408v178.273  c0,1.859,0.101,3.719,0.266,5.574h258.537c0.165-1.854,0.266-3.714,0.266-5.574L385.534,243.732L385.534,243.732z"/>
<path style="fill:#FFD75E;" d="M256,0c-10.806,0-20.424,6.465-24.505,16.471l-36.479,89.447c-1.886,4.625-1.346,9.886,1.44,14.031  c2.786,4.146,7.454,6.633,12.449,6.633H256V0z"/>
<path style="fill:#E83A71;" d="M256,96.582h-60.482c-8.284,0-15,6.716-15,15v40.956c0,8.284,6.716,15,15,15H256V96.582z"/>
<path style="fill:#FFD75E;" d="M256,151.579h-60.481c-29.779,0-55.754,21.169-61.762,50.335l-5.994,29.096  c-0.86,4.177-1.297,8.457-1.297,12.723v178.273c0,4.397,0.463,8.807,1.376,13.104l5.723,26.936  c6.149,28.945,32.09,49.954,61.682,49.954H256V151.579z"/>
<path style="fill:#E83A71;" d="M256,238.325H126.716c-0.155,1.8-0.25,3.604-0.25,5.408v178.273c0,1.859,0.101,3.719,0.266,5.574H256  V238.325z"/>
<g>
</g>
<g>
</g>
<g>
</g>
<g>
</g>
<g>
</g>
<g>
</g>
<g>
</g>
<g>
</g>
<g>
</g>
<g>
</g>
<g>
</g>
<g>
</g>
<g>
</g>
<g>
</g>
<g>
</g>
</svg>
