<?xml version="1.0" encoding="iso-8859-1"?>
<!-- Generator: Adobe Illustrator 19.0.0, SVG Export Plug-In . SVG Version: 6.00 Build 0)  -->
<svg version="1.1" id="Capa_1" xmlns="http://www.w3.org/2000/svg" xmlns:xlink="http://www.w3.org/1999/xlink" x="0px" y="0px"
	 viewBox="0 0 512 512" style="enable-background:new 0 0 512 512;" xml:space="preserve">
<path style="fill:#EDF6FF;" d="M104.927,485.201L26.8,407.074c-24.439-24.439-24.439-64.205-0.001-88.644l195.421-195.421
	c28.103-28.103,67.374-41.264,106.43-36.04l8.625-8.625c-11.598-16.844-9.913-40.141,5.056-55.109
	c16.867-16.867,44.311-16.867,61.178,0l85.259,85.259c16.867,16.867,16.867,44.311,0.001,61.178
	c-14.968,14.968-38.266,16.654-55.11,5.055l-8.625,8.625c5.224,39.056-7.938,78.327-36.04,106.43L193.572,485.202
	C169.132,509.64,129.367,509.64,104.927,485.201z"/>
<path style="fill:#FF5619;" d="M486.293,507.589L4.411,25.707c-5.881-5.881-5.881-15.415,0-21.296s15.415-5.881,21.296,0
	l481.882,481.882c5.881,5.881,5.881,15.415,0,21.296C501.709,513.47,492.174,513.47,486.293,507.589z"/>
<path style="fill:#D6E9FF;" d="M425.033,183.351l8.625-8.625c16.843,11.599,40.142,9.914,55.11-5.055
	c16.867-16.867,16.867-44.311-0.001-61.178l-42.632-42.632L69.299,442.697l56.174,56.174c22.677,9.261,49.719,4.707,68.097-13.669
	L388.992,289.78C417.095,261.678,430.257,222.406,425.033,183.351z"/>
<path style="fill:#B53312;" d="M507.589,486.293L266.646,245.35l-21.296,21.296l240.943,240.943c5.881,5.881,15.415,5.881,21.296,0
	C513.47,501.709,513.47,492.174,507.589,486.293z"/>
<g>
</g>
<g>
</g>
<g>
</g>
<g>
</g>
<g>
</g>
<g>
</g>
<g>
</g>
<g>
</g>
<g>
</g>
<g>
</g>
<g>
</g>
<g>
</g>
<g>
</g>
<g>
</g>
<g>
</g>
</svg>
