<svg id="Capa_1" enable-background="new 0 0 512 512" height="512" viewBox="0 0 512 512" width="512" xmlns="http://www.w3.org/2000/svg"><path d="m31 166h450v315h-450z" fill="#ffda2d"/><path d="m256 166h225v315h-225z" fill="#fdbf00"/><path d="m0 31v150h512v-150z" fill="#fdbf00"/><path d="m256 31h256v150h-256z" fill="#ff9100"/><path d="m316 211h-120c-24.81 0-45 20.19-45 45s20.19 45 45 45h120c24.81 0 45-20.19 45-45s-20.19-45-45-45z" fill="#6c6fa9"/><path d="m361 256c0 24.81-20.19 45-45 45h-60v-90h60c24.81 0 45 20.19 45 45z" fill="#574f7f"/></svg>