<svg id="Capa_1" enable-background="new 0 0 512 512" height="512" viewBox="0 0 512 512" width="512" xmlns="http://www.w3.org/2000/svg"><g><path d="m223.621 230.094-223.621 5.151v49.06c0 4.452 3.706 8.086 8.15 7.832 1.563-.089 3.163-.045 4.788.146 12.902 1.51 23.033 12.263 23.816 25.23.95 15.73-11.526 28.784-27.051 28.784-.488 0-.974-.013-1.456-.039-4.514-.241-8.247 3.51-8.247 8.03v72.639c0 8.448 6.849 15.296 15.296 15.296h270.12c4.394 0 7.848-3.608 7.835-8.003-.004-1.511.088-3.046.287-4.601 2.184-17.068 16.554-30.327 33.746-31.057 20.358-.864 37.135 15.384 37.135 35.551v.083c-.011 4.403 3.434 8.026 7.837 8.026h124.448c8.448 0 15.296-6.848 15.296-15.296v-191.681z" fill="#ffc365"/><g><path d="m51.338 426.928v-72.639c0-4.52 3.733-8.271 8.247-8.03.482.026.968.039 1.456.039 15.525 0 28.001-13.054 27.051-28.784-.783-12.967-10.913-23.72-23.816-25.23-1.625-.19-3.225-.235-4.788-.146-4.445.253-8.15-3.38-8.15-7.832v-50.242l-51.338 1.181v49.06c0 4.452 3.706 8.086 8.15 7.832 1.563-.089 3.163-.045 4.788.146 12.902 1.51 23.033 12.263 23.816 25.23.95 15.73-11.526 28.784-27.051 28.784-.488 0-.974-.013-1.456-.039-4.514-.241-8.247 3.51-8.247 8.03v72.639c0 8.448 6.849 15.296 15.296 15.296h51.338c-8.448.001-15.296-6.848-15.296-15.295z" fill="#ffa90f"/></g><path d="m363.809 138.818c-2.495-1.623-5.631-1.78-8.339-.547-6.333 2.883-14.082 4.582-22.457 4.582-21.387 0-38.725-11.057-38.725-24.697 0-3.881 1.405-7.553 3.909-10.82 3.085-4.027 2.149-9.813-2.103-12.58l-32.406-21.086c-5.1-3.319-11.267-4.589-17.258-3.528-37.084 6.571-172.883 38.686-246.43 165.103h512z" fill="#ffd086"/><path d="m240.272 71.304c-44.105 8.789-170.332 43.724-240.272 163.941h51.856c50.427-86.677 125.435-136.107 188.416-163.941z" fill="#ffc365"/><circle cx="272.272" cy="323.509" fill="#ffa90f" r="35.584"/><ellipse cx="201.104" cy="153.966" fill="#ffc365" rx="35.584" ry="22.694"/><path d="m190.864 153.966c0-9.686 9.519-17.95 22.912-21.207-3.938-.958-8.207-1.487-12.672-1.487-19.652 0-35.584 10.16-35.584 22.694s15.932 22.694 35.584 22.694c4.465 0 8.734-.529 12.672-1.487-13.394-3.257-22.912-11.521-22.912-21.207z" fill="#ffa90f"/><ellipse cx="305.641" cy="184.827" fill="#ffc365" rx="22.694" ry="14.473"/><g fill="#ffa90f"><path d="m308.291 184.827c0-5 3.976-9.408 10.022-12.008-3.619-1.556-7.979-2.465-12.672-2.465-12.534 0-22.694 6.48-22.694 14.473s10.16 14.473 22.694 14.473c4.693 0 9.053-.909 12.672-2.465-6.046-2.6-10.022-7.007-10.022-12.008z"/><path d="m209.217 434.114c0-34.294-27.801-62.094-62.094-62.094-34.294 0-62.094 27.8-62.094 62.094 0 2.751.197 5.454.544 8.11h123.098c.348-2.656.546-5.359.546-8.11z"/><circle cx="423.901" cy="319.195" r="27.102"/><circle cx="100.971" cy="319.195" r="21.222"/></g><path d="m274.312 323.509c0-12.744 6.703-23.916 16.772-30.201-5.459-3.407-11.903-5.383-18.812-5.383-19.653 0-35.584 15.932-35.584 35.584 0 19.653 15.931 35.584 35.584 35.584 6.909 0 13.354-1.975 18.812-5.383-10.068-6.285-16.772-17.457-16.772-30.201z" fill="#ff9a00"/><path d="m165.935 374.93c-5.935-1.885-12.254-2.909-18.812-2.909-34.293 0-62.094 27.8-62.094 62.094 0 2.75.198 5.454.544 8.11h37.624c-.347-2.656-.544-5.359-.544-8.11.001-27.735 18.187-51.215 43.282-59.185z" fill="#ff9a00"/><path d="m423.901 319.195c0-10.03 5.452-18.781 13.551-23.467-3.987-2.308-8.613-3.635-13.551-3.635-14.968 0-27.102 12.134-27.102 27.102s12.134 27.102 27.102 27.102c4.938 0 9.564-1.327 13.551-3.635-8.098-4.686-13.551-13.437-13.551-23.467z" fill="#ff9a00"/><path d="m100.971 319.195c0-7.851 4.274-14.689 10.611-18.36-3.124-1.81-6.741-2.862-10.611-2.862-11.721 0-21.222 9.502-21.222 21.222 0 11.721 9.502 21.222 21.222 21.222 3.87 0 7.487-1.053 10.611-2.862-6.337-3.671-10.611-10.509-10.611-18.36z" fill="#ff9a00"/></g></svg>