<svg id="Capa_1" enable-background="new 0 0 512 512" height="512" viewBox="0 0 512 512" width="512" xmlns="http://www.w3.org/2000/svg"><g><path d="m208.521 263.85c-58.163-26.496-139.898-15.389-175.026 42.965-11.671 19.389-17.73 42.097-17.441 64.714.424 33.274 11.594 70.222 32.877 96.15 11.647 14.19 26.019 26.038 42.842 33.561 26.95 12.045 59.008 13.672 87.398 6.404 24.374-6.24 45.44-20.617 61.321-39.966 21.283-25.928 32.453-62.876 32.877-96.15.568-44.584-23.549-88.864-64.848-107.678z" fill="#e94444"/><path d="m273.369 371.528c-.42 33.273-11.593 70.222-32.873 96.152-15.884 19.345-36.949 33.723-61.322 39.97-25.674 6.565-54.348 5.858-79.531-3.246 19.345 3.349 39.602 2.417 58.271-2.366 24.373-6.237 45.439-20.615 61.323-39.96 21.281-25.93 32.453-62.879 32.873-96.152.573-44.589-23.544-88.86-64.845-107.683-4.229-1.925-8.592-3.656-13.047-5.182 11.951 2.263 23.534 5.889 34.307 10.794 41.3 18.812 65.417 63.094 64.844 107.673z" fill="#d83131"/><g><path d="m161.146 324.865c-6.173 0-12.525-1.176-18.327-3.204-20.616-7.204-32.196-23.195-28.161-38.886 1.032-4.013 5.122-6.427 9.131-5.396 4.012 1.032 6.428 5.12 5.396 9.131-1.647 6.407 3.465 15.708 18.582 20.991 11.263 3.935 24.621 3.546 28.36-4.812 1.692-3.781 6.127-5.475 9.909-3.783 3.781 1.692 5.475 6.128 3.783 9.909-5.153 11.52-16.564 16.049-28.673 16.05z" fill="#cc2121"/></g><path d="m431.099 263.85c-58.163-26.496-139.898-15.389-175.026 42.965-11.671 19.389-17.73 42.097-17.441 64.714.424 33.274 11.594 70.222 32.877 96.15 11.647 14.19 26.019 26.038 42.842 33.561 26.95 12.045 59.008 13.672 87.398 6.404 24.374-6.24 45.44-20.617 61.321-39.966 21.283-25.928 32.453-62.876 32.877-96.15.569-44.584-23.549-88.864-64.848-107.678z" fill="#e94444"/><path d="m495.944 371.528c-.42 33.273-11.593 70.222-32.873 96.152-15.884 19.345-36.949 33.723-61.323 39.97-21.209 5.428-44.476 5.889-66.126.748 15.802 1.383 31.88.021 46.924-3.83 24.373-6.237 45.439-20.615 61.323-39.97 21.281-25.92 32.453-62.869 32.873-96.141.573-44.589-23.544-88.871-64.845-107.683-9.227-4.209-19.058-7.465-29.197-9.739 16.897 1.669 33.426 6.001 48.399 12.822 41.301 18.81 65.419 63.092 64.845 107.671z" fill="#d83131"/><path d="m340.183 259.342c-6.178-18.678-15.184-36.209-26.769-52.11-7.39-10.142-15.603-19.296-23.547-28.149-7.13-7.946-13.864-15.451-19.853-23.425-24.277-32.323-25.039-81.06-25.711-124.059-.155-9.942-8.263-17.895-18.171-17.895-.053 0-.106.001-.159.001-.148-.01-.292-.034-.441-.04-10.036-.393-18.49 7.407-18.89 17.439-3.3 82.609-18.991 184.567-53.132 222.983-6.669 7.505-5.992 18.995 1.513 25.664 3.463 3.078 7.774 4.591 12.069 4.591 5.012 0 10.003-2.061 13.595-6.103 24.278-27.319 39.18-73.532 48.33-120.076 3.388 6.721 7.32 13.197 11.926 19.329 6.941 9.241 14.527 17.696 21.863 25.872 7.674 8.552 14.922 16.63 21.222 25.277 9.363 12.851 16.642 27.022 21.636 42.119 2.526 7.637 9.629 12.475 17.257 12.475 1.892 0 3.817-.298 5.712-.925 9.532-3.153 14.703-13.436 11.55-22.968z" fill="#00c27a"/><path d="m328.629 282.309c-1.895.625-3.82.922-5.704.922-1.792 0-3.543-.266-5.223-.768 4.127-4.69 5.725-11.378 3.625-17.737-6.175-18.679-15.187-36.212-26.77-52.116-7.394-10.138-15.607-19.294-23.544-28.142-7.128-7.947-13.866-15.453-19.857-23.431-24.271-32.32-25.039-81.057-25.705-124.058-.143-8.52-6.114-15.576-14.051-17.42 3.482-3.81 8.572-6.114 14.132-5.889.154 0 .297.031.44.041.051-.01.102-.01.164-.01 9.903 0 18.014 7.957 18.167 17.901.676 43.002 1.434 91.738 25.715 124.058 5.981 7.967 12.719 15.474 19.847 23.421 7.947 8.858 16.16 18.014 23.544 28.152 11.593 15.904 20.594 33.426 26.77 52.106 3.155 9.534-2.016 19.816-11.55 22.97z" fill="#08b865"/><g><path d="m332.106 325.719c-13.229 0-24.045-5.773-28.654-16.239-1.669-3.791.051-8.217 3.842-9.887 3.788-1.669 8.216.05 9.887 3.841 2.666 6.054 12.435 10.203 27.581 5.01 11.286-3.87 21.546-12.435 19.317-21.316-1.008-4.018 1.432-8.092 5.449-9.1 4.015-1.009 8.092 1.431 9.1 5.449 4.637 18.48-11.782 33.252-29.001 39.156-6.075 2.083-12.008 3.086-17.521 3.086z" fill="#cc2121"/></g><g><path d="m215.073 50.106c-14.416 0-28.842-1.229-43.116-3.705-8.791-1.526-18.01-3.883-25.883-10.739-7.572-6.593-8.365-18.076-1.772-25.647 3.176-3.647 7.748-5.904 12.575-6.206 3.927-.246 7.427 1.05 10.918 2.688 17.165 8.053 38.587 7.873 57.159 7.027 21.535-.98 42.913-5.18 63.208-12.453 9.451-3.387 19.859 1.529 23.246 10.979 3.388 9.452-1.528 19.859-10.979 23.246-27.426 9.831-56.361 14.81-85.356 14.81z" fill="#00c27a"/></g><g><path d="m300.425 35.298c-8.039 2.888-16.222 5.346-24.486 7.394 1.915-.635 3.82-1.29 5.714-1.966 9.452-3.39 14.368-13.794 10.978-23.247-2.786-7.773-10.323-12.473-18.167-12.013 4.619-1.311 9.186-2.775 13.702-4.393 9.442-3.39 19.857 1.526 23.247 10.978 3.38 9.453-1.536 19.858-10.988 23.247z" fill="#08b865"/></g></g></svg>