<?xml version="1.0" encoding="iso-8859-1"?>
<!-- Generator: Adobe Illustrator 19.0.0, SVG Export Plug-In . SVG Version: 6.00 Build 0)  -->
<svg version="1.1" id="Capa_1" xmlns="http://www.w3.org/2000/svg" xmlns:xlink="http://www.w3.org/1999/xlink" x="0px" y="0px"
	 viewBox="0 0 468.293 468.293" style="enable-background:new 0 0 468.293 468.293;" xml:space="preserve">
<polygon style="fill:#E1E6E9;" points="76.761,0 151.018,110.255 234.146,0 "/>
<polygon style="fill:#EBF0F3;" points="19.53,110.255 151.018,110.255 76.761,0 "/>
<polygon style="fill:#D5D6DB;" points="151.018,110.255 317.275,110.255 234.146,0 "/>
<polygon style="fill:#EBF0F3;" points="391.532,0 317.275,110.255 448.763,110.255 "/>
<g>
	<polygon style="fill:#E1E6E9;" points="234.146,0 317.275,110.255 391.532,0 	"/>
	<polygon style="fill:#E1E6E9;" points="19.53,110.255 234.146,428.243 151.018,110.255 	"/>
	<polygon style="fill:#E1E6E9;" points="317.275,110.255 234.146,428.243 448.763,110.255 	"/>
</g>
<polygon style="fill:#EBF0F3;" points="151.018,110.255 234.146,428.243 317.275,110.255 "/>
<circle style="fill:#F6C358;" cx="161.093" cy="345.269" r="123.024"/>
<circle style="fill:#FCD462;" cx="161.093" cy="345.269" r="97.792"/>
<path style="fill:#F6C358;" d="M157.162,419.343v-13.045c-16.332-1.665-30.991-8.159-43.964-19.473l13.045-15.547
	c10.006,8.697,20.302,13.874,30.919,15.547v-34.671c-13.467-3.214-23.327-7.446-29.581-12.689c-6.254-5.243-9.38-13.016-9.38-23.32
	c0-10.304,3.592-18.731,10.805-25.29c7.213-6.552,16.594-10.122,28.155-10.718V271.2h11.431v9.111
	c13.103,0.96,25.494,5.425,37.172,13.409l-11.62,16.441c-7.868-5.599-16.375-9.053-25.552-10.369v33.594h0.538
	c13.7,3.221,23.763,7.57,30.191,13.045c6.443,5.483,9.657,13.438,9.657,23.858c0,10.427-3.694,18.921-11.082,25.465
	c-7.388,6.559-17.146,10.129-29.304,10.726v12.863H157.162z M144.554,303.994c-3.039,2.676-4.552,6.014-4.552,10.006
	s1.193,7.148,3.578,9.467c2.371,2.327,6.908,4.559,13.583,6.704v-30.919C151.796,299.733,147.593,301.311,144.554,303.994z
	 M182.176,382.352c3.33-2.734,5.003-6.188,5.003-10.362c0-4.167-1.309-7.475-3.927-9.918c-2.632-2.443-7.519-4.734-14.659-6.879
	v32.162C174.309,386.766,178.832,385.094,182.176,382.352z"/>
<g>
</g>
<g>
</g>
<g>
</g>
<g>
</g>
<g>
</g>
<g>
</g>
<g>
</g>
<g>
</g>
<g>
</g>
<g>
</g>
<g>
</g>
<g>
</g>
<g>
</g>
<g>
</g>
<g>
</g>
</svg>
