<?xml version="1.0" encoding="iso-8859-1"?>
<!-- Generator: Adobe Illustrator 19.0.0, SVG Export Plug-In . SVG Version: 6.00 Build 0)  -->
<svg version="1.1" id="Capa_1" xmlns="http://www.w3.org/2000/svg" xmlns:xlink="http://www.w3.org/1999/xlink" x="0px" y="0px"
	 viewBox="0 0 512 512" style="enable-background:new 0 0 512 512;" xml:space="preserve">
<path style="fill:#D40000;" d="M390.905,0H256l-20.016,233.18L256,512l0,0c134.66-37.714,227.751-160.458,227.751-300.3V92.847
	C432.473,92.847,390.905,51.278,390.905,0z"/>
<path style="fill:#FF0F0F;" d="M121.095,0c0,51.278-41.569,92.847-92.847,92.847V211.7C28.248,351.542,121.34,474.286,256,512l0,0V0
	H121.095z"/>
<path style="fill:#FFCD00;" d="M340.733,63.734H256L235.984,233.18L256,445.149c45.249-16.217,84.255-44.834,113.591-83.515
	c32.989-43.497,50.425-95.343,50.425-149.935v-68.683C384.827,127.276,356.475,98.924,340.733,63.734z"/>
<path style="fill:#FFED94;" d="M171.267,63.734c-15.742,35.19-44.093,63.542-79.283,79.283V211.7
	c0,54.591,17.437,106.438,50.425,149.935c29.336,38.681,68.343,67.298,113.591,83.515V63.734H171.267z"/>
<path style="fill:#FF8E00;" d="M271,188.763v-35.314h-15l-20.016,79.732L256,312.912h15v-35.314
	c18.52-6.272,31.893-23.807,31.893-44.418S289.52,195.034,271,188.763z"/>
<path style="fill:#FFCD00;" d="M241,153.448v35.314c-18.52,6.272-31.893,23.807-31.893,44.418S222.48,271.326,241,277.598v35.314h15
	V153.448H241z"/>
<g>
</g>
<g>
</g>
<g>
</g>
<g>
</g>
<g>
</g>
<g>
</g>
<g>
</g>
<g>
</g>
<g>
</g>
<g>
</g>
<g>
</g>
<g>
</g>
<g>
</g>
<g>
</g>
<g>
</g>
</svg>
