<?xml version="1.0" encoding="iso-8859-1"?>
<!-- Generator: Adobe Illustrator 19.0.0, SVG Export Plug-In . SVG Version: 6.00 Build 0)  -->
<svg version="1.1" id="Layer_1" xmlns="http://www.w3.org/2000/svg" xmlns:xlink="http://www.w3.org/1999/xlink" x="0px" y="0px"
	 viewBox="0 0 508 508" style="enable-background:new 0 0 508 508;" xml:space="preserve">
<ellipse style="fill:#40596B;" cx="254" cy="469.1" rx="121.2" ry="38.9"/>
<path style="fill:#FF7058;" d="M254,0C153.1,0,71.2,81.8,71.2,182.8S254,482.6,254,482.6s182.8-198.9,182.8-299.8S354.9,0,254,0z"/>
<path style="fill:#FFFFFF;" d="M254,62.5c-66.3,0-120.3,53.9-120.3,120.3s54,120.3,120.3,120.3s120.3-54,120.3-120.3
	S320.3,62.5,254,62.5z"/>
<path style="fill:#84DBFF;" d="M254,87.4c-52.6,0-95.4,42.8-95.4,95.4s42.8,95.4,95.4,95.4s95.4-42.8,95.4-95.4S306.6,87.4,254,87.4
	z"/>
<path style="fill:#54C0EB;" d="M254,134.5c-26.6,0-48.3,21.7-48.3,48.3s21.7,48.3,48.3,48.3s48.3-21.7,48.3-48.3
	S280.6,134.5,254,134.5z"/>
<path style="fill:#FFFFFF;" d="M212.2,180.6c-9.5,0-17.2-7.7-17.2-17.2s7.7-17.2,17.2-17.2s17.2,7.7,17.2,17.2
	S221.7,180.6,212.2,180.6z"/>
<g>
</g>
<g>
</g>
<g>
</g>
<g>
</g>
<g>
</g>
<g>
</g>
<g>
</g>
<g>
</g>
<g>
</g>
<g>
</g>
<g>
</g>
<g>
</g>
<g>
</g>
<g>
</g>
<g>
</g>
</svg>
