<svg id="Capa_1" enable-background="new 0 0 512 512" height="512" viewBox="0 0 512 512" width="512" xmlns="http://www.w3.org/2000/svg"><g><path d="m165.667 73-42.333 24.667-42.334-24.667v-68c0-2.761 2.239-5 5-5h74.667c2.761 0 5 2.239 5 5z" fill="#8dc5e8"/><path d="m431 73-43.25 24.667-41.417-24.667v-68c0-2.761 2.239-5 5-5h74.667c2.761 0 5 2.239 5 5z" fill="#5e9ff6"/><path d="m0 183.08v318.92c0 5.52 4.48 10 10 10h281.5l-35.5-375.67z" fill="#fff5f5"/><path d="m512 183.08v318.92c0 5.52-4.48 10-10 10h-246v-375.67z" fill="#e1ebf0"/><path d="m256 73 35.5 55.04-35.5 55.04h-256v-100.08c0-5.52 4.48-10 10-10z" fill="#0b799d"/><path d="m512 83v100.08h-256v-110.08h246c5.52 0 10 4.48 10 10z" fill="#07485e"/><g><path d="m178 263.04c-42.46 0-77 34.54-77 77s34.54 77 77 77h78l35.5-79.519-35.5-74.481z" fill="#00ccb3"/></g><g><path d="m334 263.04h-78v154h78c27.41 0 51.52-14.39 65.15-36.02 7.51-11.87 11.85-25.93 11.85-40.98 0-42.46-34.54-77-77-77z" fill="#00969b"/></g></g></svg>