<?xml version="1.0" encoding="iso-8859-1"?>
<!-- Generator: Adobe Illustrator 19.0.0, SVG Export Plug-In . SVG Version: 6.00 Build 0)  -->
<svg xmlns="http://www.w3.org/2000/svg" xmlns:xlink="http://www.w3.org/1999/xlink" version="1.1" id="Layer_1" x="0px" y="0px" viewBox="0 0 491.52 491.52" style="enable-background:new 0 0 491.52 491.52;" xml:space="preserve">
<path style="fill:#64798A;" d="M469.312,44.332H22.207C9.942,44.332,0,54.274,0,66.538v284.253c0,12.264,9.942,22.207,22.207,22.207  h447.105c12.265,0,22.208-9.943,22.208-22.207V66.538C491.52,54.274,481.577,44.332,469.312,44.332z"/>
<rect x="31.027" y="75.341" style="fill:#EBF0F3;" width="429.517" height="266.65"/>
<g>
	<circle style="fill:#D15241;" cx="119.091" cy="133.99" r="27.832"/>
	<path style="fill:#D15241;" d="M119.091,174.551c-34.263,0-62.039,27.776-62.039,62.041H181.13   C181.13,202.327,153.354,174.551,119.091,174.551z"/>
</g>
<g>
	<circle style="fill:#2D93BA;" cx="372.429" cy="133.99" r="27.832"/>
	<path style="fill:#2D93BA;" d="M372.428,174.551c-34.263,0-62.039,27.776-62.039,62.041h124.078   C434.467,202.327,406.692,174.551,372.428,174.551z"/>
</g>
<g>
	<circle style="fill:#3EA69B;" cx="245.76" cy="187.213" r="35.164"/>
	<path style="fill:#3EA69B;" d="M245.759,238.438c-43.288,0-78.38,35.092-78.38,78.381H324.14   C324.14,273.53,289.048,238.438,245.759,238.438z"/>
</g>
<path style="fill:#3A556A;" d="M118.053,431.454c0,8.69,57.176,15.734,127.707,15.734c70.53,0,127.707-7.044,127.707-15.734v-18.097  H118.053C118.053,413.358,118.053,431.454,118.053,431.454z"/>
<rect x="31.027" y="327.101" style="fill:#E1E6E9;" width="429.517" height="14.884"/>
<ellipse style="fill:#64798A;" cx="245.76" cy="413.338" rx="127.708" ry="15.734"/>
<path style="fill:#3A556A;" d="M287.628,409.435c-0.001,8.379-83.737,8.379-83.735,0l-0.001-36.437h83.737L287.628,409.435z"/>
<g>
	<circle style="fill:#E56353;" cx="119.091" cy="127.816" r="27.832"/>
	<path style="fill:#E56353;" d="M119.091,168.364c-34.263,0-62.04,27.776-62.04,62.041H181.13   C181.13,196.141,153.354,168.364,119.091,168.364z"/>
</g>
<g>
	<circle style="fill:#27A2DB;" cx="372.429" cy="127.816" r="27.832"/>
	<path style="fill:#27A2DB;" d="M372.428,168.364c-34.263,0-62.04,27.776-62.04,62.041h124.079   C434.468,196.141,406.692,168.364,372.428,168.364z"/>
</g>
<g>
	<circle style="fill:#44C4A1;" cx="245.76" cy="181.043" r="35.164"/>
	<path style="fill:#44C4A1;" d="M245.759,232.251c-43.288,0-78.38,35.092-78.38,78.38H324.14   C324.14,267.343,289.048,232.251,245.759,232.251z"/>
</g>
<g>
</g>
<g>
</g>
<g>
</g>
<g>
</g>
<g>
</g>
<g>
</g>
<g>
</g>
<g>
</g>
<g>
</g>
<g>
</g>
<g>
</g>
<g>
</g>
<g>
</g>
<g>
</g>
<g>
</g>
</svg>
