<?xml version="1.0" encoding="iso-8859-1"?>
<!-- Generator: Adobe Illustrator 19.0.0, SVG Export Plug-In . SVG Version: 6.00 Build 0)  -->
<svg version="1.1" id="Capa_1" xmlns="http://www.w3.org/2000/svg" xmlns:xlink="http://www.w3.org/1999/xlink" x="0px" y="0px"
	 viewBox="0 0 512 512" style="enable-background:new 0 0 512 512;" xml:space="preserve">
<path style="fill:#FFDA44;" d="M468.61,104.136H34.712C15.542,104.136,0,119.678,0,138.847v260.339
	c0,19.17,15.542,34.712,34.712,34.712h266.327c-3.983-11.134-6.014-22.884-5.988-34.712c0-57.509,46.627-104.136,104.136-104.136
	s104.136,46.627,104.136,104.136V138.847C503.322,119.678,487.78,104.136,468.61,104.136z"/>
<path style="fill:#FFCD00;" d="M468.61,52.068H270.232c-11.611,0.009-22.459-5.788-28.898-15.447l-14.058-21.174
	C220.837,5.788,209.989-0.009,198.378,0H34.712C15.542,0,0,15.542,0,34.712v104.136c0-19.17,15.542-34.712,34.712-34.712H468.61
	c19.17,0,34.712,15.542,34.712,34.712V86.78C503.322,67.61,487.78,52.068,468.61,52.068z"/>
<path style="fill:#E6E7E8;" d="M399.186,295.051c-57.509,0-104.136,46.627-104.136,104.136c-0.026,11.828,2.005,23.578,5.988,34.712
	c19.17,54.22,78.666,82.64,132.894,63.471c54.22-19.17,82.64-78.666,63.471-132.894
	C482.686,322.855,443.331,295.034,399.186,295.051z M416.985,394.283c-10.865,6.239-17.634,17.746-17.799,30.269l0,0
	C399.351,412.03,406.12,400.523,416.985,394.283c16.462-9.832,21.834-31.145,12.002-47.599
	c-9.832-16.462-31.145-21.834-47.599-12.002c-10.492,6.257-16.913,17.573-16.913,29.791c0-19.17,15.551-34.712,34.721-34.703
	c19.17,0,34.712,15.551,34.703,34.721C433.898,376.702,427.477,388.018,416.985,394.283z"/>
<g>
	<path style="fill:#78B9EB;" d="M399.186,512c-47.798-0.017-90.398-30.156-106.331-75.221c-4.322-12.062-6.517-24.784-6.482-37.593
		c0-62.308,50.506-112.814,112.814-112.814S512,336.879,512,399.186S461.494,512,399.186,512z M399.186,303.729
		c-52.693,0.061-95.397,42.765-95.458,95.458c-0.026,10.83,1.822,21.573,5.476,31.77c17.547,49.716,72.071,75.793,121.787,58.247
		s75.793-72.071,58.246-121.787C475.761,329.242,439.669,303.711,399.186,303.729z"/>
	<path style="fill:#78B9EB;" d="M399.186,442.576c-4.79,0-8.678-3.888-8.678-8.678v-9.346c0.121-15.594,8.504-29.948,22.025-37.714
		c12.349-7.368,16.375-23.352,9.008-35.701c-7.368-12.349-23.352-16.375-35.701-9.008c-7.862,4.703-12.687,13.182-12.687,22.346
		c0,4.79-3.888,8.678-8.678,8.678s-8.678-3.888-8.678-8.678c-0.095-23.96,19.256-43.468,43.216-43.563
		c20.194-0.078,37.775,13.789,42.409,33.454c4.339,18.449-3.723,37.593-19.959,47.373c-8.261,4.651-13.434,13.338-13.598,22.814
		v9.346C407.864,438.689,403.977,442.576,399.186,442.576z"/>
	<path style="fill:#78B9EB;" d="M399.186,477.288c-4.79,0-8.678-3.888-8.678-8.678v-8.678c0-4.79,3.888-8.678,8.678-8.678
		c4.79,0,8.678,3.888,8.678,8.678v8.678C407.864,473.4,403.977,477.288,399.186,477.288z"/>
</g>
<g>
</g>
<g>
</g>
<g>
</g>
<g>
</g>
<g>
</g>
<g>
</g>
<g>
</g>
<g>
</g>
<g>
</g>
<g>
</g>
<g>
</g>
<g>
</g>
<g>
</g>
<g>
</g>
<g>
</g>
</svg>
