<svg height="512pt" viewBox="-37 0 511 512" width="512pt" xmlns="http://www.w3.org/2000/svg"><path d="m384.9375 512 21.261719-373.796875-206.917969-20.015625 20.015625 393.8125zm0 0" fill="#efe2dd"/><path d="m53.65625 512h165.640625v-393.8125l-186.902344 20.015625zm0 0" fill="#fff5f5"/><path d="m153.695312 184.996094v-84h-30v84l-26.476562 15.128906v84.203125h82.953125v-84.203125zm0 0" fill="#cdbfba"/><path d="m406.199219 0h-186.902344l-20.015625 83.804688 206.917969-20.015626zm0 0" fill="#07485e"/><path d="m32.394531 0v63.789062l186.902344 20.015626v-83.804688zm0 0" fill="#09607d"/><path d="m438.09375 63.789062h-218.796875l-20.015625 37.207032 20.015625 37.207031h218.796875zm0 0" fill="#03232e"/><path d="m.5 63.789062h218.796875v74.417969h-218.796875zm0 0" fill="#07485e"/></svg>