<svg id="Capa_1" enable-background="new 0 0 512 512" height="512" viewBox="0 0 512 512" width="512" xmlns="http://www.w3.org/2000/svg"><g><g><g><path d="m192.002 71.726c-4.267 0-7.726-3.459-7.726-7.726v-32c0-4.267 3.459-7.726 7.726-7.726s7.726 3.459 7.726 7.726v32c0 4.267-3.459 7.726-7.726 7.726z" fill="#365e7d"/></g></g><path d="m327.795 142.879-22.642-22.642 29.006-29.006c2.734-2.734 7.166-2.734 9.9 0l12.743 12.743c2.734 2.734 2.734 7.166 0 9.899z" fill="#2b4d66"/><path d="m78.85 120.237-22.642 22.642-29.006-29.006c-2.734-2.734-2.734-7.166 0-9.899l12.742-12.744c2.734-2.734 7.166-2.734 9.899 0z" fill="#2b4d66"/><ellipse cx="192.001" cy="255.999" fill="#f25a74" rx="191.999" ry="191.999" transform="matrix(.707 -.707 .707 .707 -124.783 210.746)"/><path d="m108.849 392.725c28.897 28.464 66.756 47.883 108.911 53.549-8.427 1.133-17.019 1.72-25.755 1.72-105.871.001-192.005-86.123-192.005-191.995s86.134-191.996 192.006-191.996c8.736 0 17.328.587 25.755 1.72-42.155 5.666-80.014 25.085-108.911 53.549-35.377 34.841-57.34 83.27-57.34 136.726s21.963 101.886 57.339 136.727z" fill="#e83d5a"/><path d="m347.17 256c0 2.59 4.77 5.16 4.64 7.71-3.9 82.22-69.85 148.19-152.08 152.1-2.56.13-5.14-4.39-7.73-4.39s-5.17 4.52-7.73 4.39c-23.53-1.11-45.72-7.31-65.51-17.52-2.03-1.05-1.86-6.82-3.84-7.96-1.99-1.13-5.32.66-7.81.66h-.01c-.64 0-1.22-.12-1.71-.44-19.2-12.38-35.57-28.76-47.95-47.96-1.44-2.23.47-6.46-.86-8.76-1.24-2.16-5.73-2.37-6.88-4.6-10.2-19.79-16.4-41.99-17.51-65.52-.13-2.55 6.06-5.13 6.06-7.72 0-2.6-6.19-5.17-6.06-7.73 1.12-23.53 7.32-45.72 17.52-65.51 1.26-2.43 7.66-2.23 9.04-4.58 1.22-2.1-2.6-6.76-1.29-8.79 12.37-19.19 28.75-35.56 47.94-47.94.57-.37 1.25-.58 1.98-.71 2.26-.39 5.04.01 6.87-1.03 2.06-1.18 2.42-4.91 4.53-6 19.79-10.2 41.97-16.4 65.49-17.51 2.56-.13 5.14 9.81 7.73 9.81s5.17-9.94 7.73-9.81c23.52 1.11 45.7 7.31 65.49 17.51 2.13 1.1 2.12 6.03 4.2 7.22 2.39 1.37 6.86-.97 9.18.53 19.2 12.37 35.57 28.74 47.94 47.93 1.35 2.08-1.37 6.39-.12 8.54 1.34 2.31 6.64 2.46 7.87 4.84 10.21 19.79 16.4 41.98 17.52 65.5.13 2.56-4.64 5.14-4.64 7.74z" fill="#eaf6ff"/><path d="m217.001 31.979h-50c-3.866 0-7-3.134-7-7v-17.979c0-3.866 3.134-7 7-7h50c3.866 0 7 3.134 7 7v17.979c0 3.866-3.134 7-7 7z" fill="#365e7d"/><path d="m187 31.98h-20c-3.86 0-7-3.14-7-7v-17.98c0-3.87 3.14-7 7-7h20c-3.86 0-7 3.13-7 7v17.98c0 3.86 3.14 7 7 7z" fill="#2b4d66"/><path d="m68.96 335.95c9.45 20.54 22.42 39.15 38.14 55.04-.64 0-1.22-.12-1.71-.44-19.2-12.38-35.57-28.76-47.95-47.96-1.44-2.23.47-6.46-.86-8.76-1.24-2.16-5.73-2.37-6.88-4.6-10.2-19.79-16.4-41.99-17.51-65.52v-.08c0-2.52 6.06-5.08 6.06-7.64 0-2.57-6.06-5.12-6.06-7.65v-.08c1.12-23.53 7.32-45.72 17.52-65.51 1.26-2.43 7.66-2.23 9.04-4.58 1.22-2.1-2.6-6.76-1.29-8.79 12.37-19.19 28.75-35.56 47.94-47.94.57-.37 1.25-.58 1.98-.71-15.84 15.94-28.92 34.64-38.41 55.3-2.17 4.71-4.15 9.52-5.93 14.42-6.72 18.43-10.69 38.17-11.41 58.72-.08 2.27-.12 4.54-.12 6.83 0 2.28.04 4.54.12 6.8.72 20.55 4.68 40.3 11.39 58.73 1.8 4.91 3.78 9.71 5.94 14.41z" fill="#d8ecfe"/><g><g><path d="m199.73 96.19v15.79c0 4.26-3.46 7.72-7.73 7.72s-7.73-3.46-7.73-7.72v-15.79c2.56-.13 5.14-.19 7.73-.19s5.17.06 7.73.19z" fill="#365e7d"/></g><g><g><path d="m199.73 400v15.81c-2.56.13-5.14.19-7.73.19s-5.17-.06-7.73-.19v-15.81c0-4.27 3.46-7.73 7.73-7.73s7.73 3.46 7.73 7.73z" fill="#365e7d"/></g></g></g><g><g><path d="m123.86 137.96c-1.22.7-2.55 1.04-3.86 1.04-2.67 0-5.26-1.39-6.69-3.87l-7.91-13.69c4.32-2.79 8.79-5.37 13.38-7.74l7.91 13.71c2.13 3.69.87 8.42-2.83 10.55z" fill="#365e7d"/></g></g><path d="m73.98 187.84c-1.43 2.48-4.03 3.87-6.7 3.87-1.31 0-2.64-.34-3.86-1.04l-13.71-7.92c2.37-4.59 4.96-9.05 7.75-13.37l13.69 7.91c3.69 2.13 4.96 6.86 2.83 10.55z" fill="#365e7d"/><g><path d="m55.72 255.99c0 4.26-3.46 7.72-7.73 7.72h-15.8c-.13-2.55-.19-5.12-.19-7.71 0-2.6.06-5.18.19-7.74h15.8c4.27 0 7.73 3.46 7.73 7.73z" fill="#365e7d"/></g><g><path d="m352 256c0 2.59-.06 5.16-.19 7.71h-15.8c-4.26 0-7.72-3.46-7.72-7.72 0-4.27 3.46-7.73 7.72-7.73h15.8c.13 2.56.19 5.14.19 7.74z" fill="#365e7d"/></g><g><path d="m71.15 334.68-13.71 7.91c-2.79-4.32-5.37-8.77-7.74-13.36l13.72-7.93c3.7-2.13 8.42-.87 10.56 2.83 2.13 3.69.86 8.42-2.83 10.55z" fill="#365e7d"/></g><path d="m68.97 176.03c-2.17 4.71-4.15 9.52-5.93 14.42l-13.33-7.7c2.37-4.59 4.96-9.05 7.75-13.37z" fill="#2b4d66"/><g><g><path d="m51.51 256c0 2.28.04 4.54.12 6.8-1.09.58-2.33.91-3.64.91h-15.8v-.08c-.13-2.52-.19-5.07-.19-7.63 0-2.57.06-5.13.19-7.66v-.08h15.8c1.31 0 2.55.33 3.64.91-.08 2.27-.12 4.54-.12 6.83z" fill="#2b4d66"/></g></g><g><g><path d="m68.96 335.94v.01l-11.52 6.64c-2.79-4.32-5.37-8.77-7.74-13.36l13.32-7.7c1.8 4.91 3.78 9.71 5.94 14.41z" fill="#2b4d66"/></g></g><g><g><path d="m334.29 182.76-13.71 7.91c-1.21.7-2.54 1.04-3.85 1.04-2.67 0-5.27-1.39-6.7-3.87-2.14-3.69-.87-8.42 2.83-10.55l13.68-7.91c2.8 4.32 5.38 8.79 7.75 13.38z" fill="#365e7d"/></g></g><g><g><g><path d="m126.69 384.57-7.93 13.72c-4.59-2.37-9.05-4.95-13.37-7.74l7.92-13.71c2.13-3.7 6.85-4.96 10.55-2.83s4.96 6.86 2.83 10.56z" fill="#365e7d"/></g><g><path d="m278.6 121.45-7.9 13.68c-1.43 2.48-4.03 3.87-6.7 3.87-1.31 0-2.64-.34-3.86-1.04-3.69-2.14-4.96-6.86-2.82-10.56l7.9-13.7c4.59 2.37 9.06 4.95 13.38 7.75z" fill="#365e7d"/></g></g></g><g><g><path d="m192.001 247.726c-4.267 0-7.726-3.459-7.726-7.726v-79.938c0-4.267 3.459-7.726 7.726-7.726s7.726 3.459 7.726 7.726v79.938c.001 4.267-3.459 7.726-7.726 7.726z" fill="#2b4d66"/></g></g><path d="m512 395.759v-23.521c0-3.192-2.16-5.98-5.251-6.778l-19.765-5.101c-2.398-.619-4.28-2.462-4.969-4.84-2.105-7.262-4.99-14.191-8.567-20.688-1.195-2.171-1.17-4.806.089-6.94l10.368-17.581c1.622-2.75 1.177-6.248-1.08-8.506l-16.632-16.632c-2.257-2.257-5.756-2.701-8.506-1.08l-17.581 10.368c-2.135 1.259-4.769 1.284-6.94.089-6.497-3.577-13.426-6.462-20.688-8.567-2.378-.689-4.221-2.571-4.84-4.969l-5.1-19.765c-.798-3.091-3.586-5.251-6.778-5.251h-23.52c-3.192 0-5.98 2.16-6.778 5.251l-5.1 19.765c-.619 2.398-2.462 4.28-4.84 4.969-7.262 2.105-14.191 4.99-20.688 8.567-2.171 1.195-4.806 1.17-6.94-.089l-17.581-10.368c-2.75-1.622-6.248-1.177-8.506 1.08l-16.632 16.632c-2.257 2.257-2.701 5.756-1.08 8.506l10.368 17.581c1.259 2.135 1.284 4.769.089 6.94-3.577 6.497-6.462 13.426-8.567 20.688-.689 2.378-2.571 4.221-4.969 4.84l-19.765 5.101c-3.091.798-5.251 3.586-5.251 6.778v23.521c0 3.192 2.16 5.98 5.251 6.778l19.765 5.101c2.398.619 4.28 2.462 4.969 4.84 2.105 7.262 4.99 14.191 8.567 20.688 1.195 2.171 1.17 4.806-.089 6.94l-10.368 17.581c-1.622 2.75-1.177 6.248 1.08 8.506l16.632 16.632c2.257 2.257 5.756 2.701 8.506 1.08l17.581-10.368c2.135-1.259 4.769-1.284 6.94-.089 6.497 3.577 13.426 6.462 20.688 8.567 2.378.689 4.221 2.571 4.84 4.969l5.1 19.765c.798 3.091 3.586 5.251 6.778 5.251h23.521c3.192 0 5.98-2.16 6.778-5.251l5.1-19.765c.619-2.398 2.462-4.28 4.84-4.969 7.262-2.105 14.191-4.99 20.688-8.567 2.171-1.195 4.806-1.17 6.94.089l17.581 10.368c2.75 1.622 6.248 1.177 8.506-1.08l16.632-16.632c2.257-2.257 2.701-5.756 1.08-8.506l-10.368-17.581c-1.259-2.135-1.284-4.769-.089-6.94 3.577-6.497 6.462-13.426 8.567-20.688.689-2.378 2.571-4.221 4.969-4.84l19.765-5.101c3.09-.798 5.25-3.586 5.25-6.778z" fill="#9bd8f9"/><g fill="#73c3f9"><path d="m318.605 288.986-12.824 12.824c-2.257 2.257-2.701 5.755-1.08 8.505l10.364 17.578c1.258 2.134 1.284 4.768.09 6.938-3.574 6.495-6.461 13.424-8.565 20.691-.689 2.379-2.572 4.224-4.97 4.842l-19.763 5.097c-3.091.797-5.252 3.586-5.252 6.778v23.52c0 3.193 2.16 5.981 5.252 6.778l19.764 5.097c2.398.619 4.281 2.462 4.97 4.841 2.104 7.262 4.991 14.195 8.565 20.692 1.194 2.17 1.168 4.804-.09 6.938l-10.364 17.579c-1.621 2.75-1.177 6.248 1.08 8.505l12.824 12.824-8.289 4.889c-2.75 1.622-6.249 1.178-8.506-1.08l-16.633-16.633c-2.257-2.257-2.701-5.755-1.08-8.505l10.364-17.579c1.258-2.134 1.284-4.767.09-6.938-3.574-6.497-6.461-13.43-8.565-20.692-.689-2.379-2.572-4.223-4.97-4.841l-19.764-5.097c-3.092-.797-5.252-3.586-5.252-6.778v-23.52c0-3.193 2.16-5.981 5.252-6.778l19.763-5.097c2.399-.619 4.282-2.463 4.97-4.842 2.104-7.267 4.991-14.195 8.565-20.691 1.194-2.17 1.169-4.804-.09-6.938l-10.364-17.578c-1.621-2.75-1.177-6.248 1.08-8.505l16.633-16.633c2.257-2.257 5.756-2.702 8.506-1.08z"/><path d="m380.97 486.985 6.452 25.015h-15.18c-3.193 0-5.981-2.16-6.778-5.252l-5.098-19.765c-.618-2.397-2.46-4.28-4.838-4.969-4.537-1.315-8.943-2.933-13.198-4.834l6.167-3.639c2.134-1.259 4.769-1.285 6.94-.091 6.495 3.574 13.423 6.461 20.69 8.564 2.38.689 4.224 2.572 4.843 4.971z"/><path d="m372.242 255.999h15.18l-6.452 25.015c-.619 2.399-2.463 4.282-4.842 4.97-7.266 2.104-14.195 4.99-20.69 8.564-2.171 1.195-4.806 1.169-6.94-.091l-6.167-3.639c4.255-1.902 8.66-3.52 13.198-4.834 2.378-.689 4.219-2.572 4.838-4.969l5.098-19.765c.796-3.091 3.584-5.251 6.777-5.251z"/></g><circle cx="384.001" cy="383.999" fill="#eaf6ff" r="71.548"/><circle cx="192.001" cy="255.999" fill="#f25a74" r="15.999"/></g></svg>