<?xml version="1.0" encoding="iso-8859-1"?>
<!-- Generator: Adobe Illustrator 19.0.0, SVG Export Plug-In . SVG Version: 6.00 Build 0)  -->
<svg xmlns="http://www.w3.org/2000/svg" xmlns:xlink="http://www.w3.org/1999/xlink" version="1.1" id="Layer_1" x="0px" y="0px" viewBox="0 0 512 512" style="enable-background:new 0 0 512 512;" xml:space="preserve">
<path style="fill:#7CCC92;" d="M250.35,167.045h-33.409c-64.48,0-116.932-52.457-116.932-116.932V16.705  C100.009,7.477,107.492,0,116.714,0h33.409c64.48,0,116.932,52.457,116.932,116.932v33.409  C267.055,159.569,259.573,167.045,250.35,167.045z"/>
<path style="fill:#DDDD47;" d="M333.873,50.114c0,9.243-7.46,16.705-16.705,16.705c-27.618,0-50.225,22.495-50.225,50.114v55.682  c0,7.239-4.565,13.475-11.025,15.702c-1.781,0.668-3.565,1.002-5.568,1.002c-9.244,0-16.705-7.461-16.705-16.705v-55.682  c0-21.827,8.464-41.761,22.273-56.573c15.145-16.593,36.974-26.95,61.25-26.95C326.413,33.409,333.873,40.87,333.873,50.114z"/>
<path style="fill:#C7D100;" d="M333.873,50.114c0,9.243-7.46,16.705-16.705,16.705c-27.618,0-50.225,22.495-50.225,50.114v55.682  c0,7.239-4.565,13.475-11.025,15.702V60.359c15.145-16.593,36.974-26.95,61.25-26.95C326.413,33.409,333.873,40.87,333.873,50.114z"/>
<path style="fill:#FF6243;" d="M395.681,476.525c-33.52,33.409-70.828,46.995-111.809,24.166  c-13.586-7.573-20.825-11.247-27.952-11.247c-7.239,0-14.366,3.786-27.841,11.247c-41.092,22.83-78.511,9.02-111.809-24.166  C57.692,418.171-4.114,270.057,80.857,182.859c46.549-47.664,101.452-58.243,154.683-29.734c9.578,5.234,14.924,7.907,20.381,7.907  c5.345,0,10.691-2.673,20.602-7.907c53.12-28.509,108.024-17.93,154.573,29.734C516.175,270.057,454.258,418.171,395.681,476.525z"/>
<path style="fill:#FF0C38;" d="M395.681,476.525c-33.52,33.409-70.828,46.995-111.809,24.166  c-13.586-7.573-20.825-11.247-27.952-11.247V161.032c5.345,0,10.691-2.673,20.602-7.907c53.12-28.509,108.024-17.93,154.573,29.734  C516.175,270.057,454.258,418.171,395.681,476.525z"/>
<g>
</g>
<g>
</g>
<g>
</g>
<g>
</g>
<g>
</g>
<g>
</g>
<g>
</g>
<g>
</g>
<g>
</g>
<g>
</g>
<g>
</g>
<g>
</g>
<g>
</g>
<g>
</g>
<g>
</g>
</svg>
