<?xml version="1.0" encoding="iso-8859-1"?>
<!-- Generator: Adobe Illustrator 19.0.0, SVG Export Plug-In . SVG Version: 6.00 Build 0)  -->
<svg xmlns="http://www.w3.org/2000/svg" xmlns:xlink="http://www.w3.org/1999/xlink" version="1.1" id="Layer_1" x="0px" y="0px" viewBox="0 0 481.9 481.9" style="enable-background:new 0 0 481.9 481.9;" xml:space="preserve">
<path style="fill:#3A556A;" d="M368.345,224.8h-257.5h-35.5v217.7c0,19.6,15.7,36.2,35.5,37.4c0.6,0,1.8,0,2.4,0h255.1  c21.1,0,38.3-16.6,38.3-37.4V224.8H368.345z"/>
<path style="fill:#64798A;" d="M110.845,224.8v255.1c0.6,0,1.8,0,2.4,0h255.1V224.8H110.845z"/>
<g>
	<path style="fill:#F6C358;" d="M368.345,260.8h-255.1c-0.6,0-1.2,0-2.4,0c-19.9-1.2-35.5-17.5-35.5-37.9v22.3   c0,20.5,15.7,36.7,35.5,37.9c0.6,0,1.8,0,2.4,0h255.1c21.1,0,38.3-16.9,38.3-37.9v-22.3C406.545,243.9,388.845,260.8,368.345,260.8   z"/>
	<path style="fill:#F6C358;" d="M368.345,459.6c0,0-256.3,0-257.5,0c-19.9-1.2-35.5-17.5-35.5-37.9v22.2c0,19.9,15.7,36.1,35.5,37.9   c0.6,0,1.8,0,2.4,0h255.1c21.1,0,38.3-16.9,38.3-37.9v-22.3C406.545,442.1,388.845,459.6,368.345,459.6z"/>
</g>
<g>
	<path style="fill:#FCD462;" d="M110.845,260.8v22.3c0.6,0,1.8,0,2.4,0h255.1v-22.3h-255.1   C112.645,260.8,112.045,260.8,110.845,260.8z"/>
	<path style="fill:#FCD462;" d="M110.845,459.6v22.3c0.6,0,1.8,0,2.4,0h255.1v-22.3C368.345,459.6,112.045,459.6,110.845,459.6z"/>
</g>
<path style="fill:#2F4859;" d="M368.345,260.8h-254.5c-21.1,0-38.6-17.5-38.6-38.6l0,0c0-21.1,17.5-38.6,38.6-38.6h253.6  c21.1,0,39.2,17.5,39.2,38.6l0,0C407.145,243.3,389.445,260.8,368.345,260.8z"/>
<path style="fill:#3A556A;" d="M266.245,343.9c0-14.5-12-26.5-26.5-26.5s-26.5,12-26.5,26.5c0,8.4,4.2,15.7,9.6,20.5l-9.6,46.4h53  l-10.2-46.4C262.045,359.6,266.245,352.3,266.245,343.9z"/>
<path style="fill:#EBF0F3;" d="M240.945,0c-75.3,0-136.1,62-136.1,137.9v86.7h30.7v-86.7c0-59,47.6-107.2,105.4-107.2  s105.4,48.2,105.4,107.2h30.7C377.045,62,316.245,0,240.945,0z"/>
<g>
</g>
<g>
</g>
<g>
</g>
<g>
</g>
<g>
</g>
<g>
</g>
<g>
</g>
<g>
</g>
<g>
</g>
<g>
</g>
<g>
</g>
<g>
</g>
<g>
</g>
<g>
</g>
<g>
</g>
</svg>
