<?xml version="1.0" encoding="iso-8859-1"?>
<!-- Generator: Adobe Illustrator 19.0.0, SVG Export Plug-In . SVG Version: 6.00 Build 0)  -->
<svg version="1.1" id="Capa_1" xmlns="http://www.w3.org/2000/svg" xmlns:xlink="http://www.w3.org/1999/xlink" x="0px" y="0px"
	 viewBox="0 0 512.01 512.01" style="enable-background:new 0 0 512.01 512.01;" xml:space="preserve">
<path style="fill:#BBDEFB;" d="M367.236,78.239C345.852,30.382,298.201-0.311,245.785,0.01
	c-67.869-0.822-125.047,50.496-131.541,118.059c-34.568,4.517-60.565,33.749-61.013,68.608c0.585,38.815,32.48,69.832,71.296,69.333
	h99.371v-95.851c0-17.673,14.327-32,32-32s32,14.327,32,32v95.851h96c0.716,0.003,1.43-0.061,2.133-0.192
	c48.6-9.315,80.446-56.265,71.131-104.865c-8.223-42.903-46.187-73.622-89.862-72.713H367.236z"/>
<path style="fill:#455A64;" d="M319.897,234.676h-32v96.149c17.673-0.008,32.007,14.312,32.015,31.985
	c0.004,8.496-3.371,16.644-9.38,22.649l-32,32c-1.673,1.672-3.526,3.153-5.525,4.416l-3.477,1.899l-0.405,0.171l-0.576,0.256l0,0
	c-3.949,1.615-8.171,2.462-12.437,2.496c-1.427-0.01-2.852-0.11-4.267-0.299l-3.904-0.768c-5.504-1.35-10.539-4.166-14.571-8.149
	l-32-32c-12.489-12.505-12.476-32.766,0.028-45.255c5.998-5.991,14.129-9.357,22.606-9.358v-96.192h-32.107
	c-17.673,0-32,14.327-32,32V480.01c0,17.673,14.327,32,32,32h128c17.673,0,32-14.327,32-32V266.676
	C351.897,249.003,337.57,234.676,319.897,234.676z"/>
<path style="fill:#ECEFF1;" d="M191.897,256.01h128c5.891,0,10.667,4.776,10.667,10.667V448.01H181.23V266.676
	C181.23,260.785,186.006,256.01,191.897,256.01z"/>
<path style="fill:#2196F3;" d="M295.449,370.356l-32,32c-0.973,0.915-2.109,1.638-3.349,2.133l0,0l0,0
	c-1.741,0.658-3.626,0.842-5.461,0.533c-0.417-0.052-0.83-0.13-1.237-0.235c-1.841-0.406-3.538-1.306-4.907-2.603l-32-32
	c-4.093-4.237-3.975-10.99,0.262-15.083c4.134-3.993,10.687-3.993,14.821,0l13.781,13.781V160.159
	c0-5.891,4.776-10.667,10.667-10.667c5.891,0,10.667,4.776,10.667,10.667v208.917l13.781-13.781
	c4.093-4.237,10.845-4.354,15.083-0.262c4.237,4.093,4.354,10.845,0.262,15.083c-0.086,0.089-0.173,0.176-0.262,0.262
	L295.449,370.356z"/>
<g>
</g>
<g>
</g>
<g>
</g>
<g>
</g>
<g>
</g>
<g>
</g>
<g>
</g>
<g>
</g>
<g>
</g>
<g>
</g>
<g>
</g>
<g>
</g>
<g>
</g>
<g>
</g>
<g>
</g>
</svg>
