<svg xmlns="http://www.w3.org/2000/svg" height="512pt" version="1.1" viewBox="0 -97 512 512" width="512pt">
<g id="surface1">
<path d="M 308.964844 211.863281 C 308.964844 182.609375 285.253906 158.898438 256 158.898438 L 256 264.828125 C 285.253906 264.828125 308.964844 241.113281 308.964844 211.863281 Z M 308.964844 211.863281 " style=" stroke:none;fill-rule:nonzero;fill:rgb(0%,65.098039%,31.764706%);fill-opacity:1;" />
<path d="M 256 158.898438 C 285.253906 158.898438 308.964844 182.609375 308.964844 211.863281 C 308.964844 241.113281 285.253906 264.828125 256 264.828125 C 226.746094 264.828125 203.035156 241.113281 203.035156 211.863281 C 203.035156 241.113281 226.746094 264.828125 256 264.828125 L 256 158.898438 L 0 158.898438 L 0 247.171875 C 39.003906 247.171875 70.621094 278.789062 70.621094 317.792969 L 441.378906 317.792969 C 441.378906 278.789062 472.996094 247.171875 512 247.171875 L 512 158.898438 Z M 256 158.898438 " style=" stroke:none;fill-rule:nonzero;fill:rgb(0%,65.098039%,31.764706%);fill-opacity:1;" />
<path d="M 203.035156 105.929688 C 203.035156 76.679688 226.746094 52.964844 256 52.964844 C 285.253906 52.964844 308.964844 76.679688 308.964844 105.929688 C 308.964844 76.679688 285.253906 52.964844 256 52.964844 L 256 158.898438 L 512 158.898438 L 512 70.621094 C 472.996094 70.621094 441.378906 39.003906 441.378906 0 L 70.621094 0 C 70.621094 39.003906 39.003906 70.621094 0 70.621094 L 0 158.898438 L 256 158.898438 C 226.746094 158.898438 203.035156 135.183594 203.035156 105.929688 Z M 203.035156 105.929688 " style=" stroke:none;fill-rule:nonzero;fill:rgb(20%,72.156863%,45.490196%);fill-opacity:1;" />
<path d="M 203.035156 105.929688 C 203.035156 135.183594 226.746094 158.898438 256 158.898438 L 256 52.964844 C 226.746094 52.964844 203.035156 76.679688 203.035156 105.929688 Z M 203.035156 105.929688 " style=" stroke:none;fill-rule:nonzero;fill:rgb(20%,72.156863%,45.490196%);fill-opacity:1;" />
<path d="M 70.621094 0 L 0 0 L 0 70.621094 C 39.003906 70.621094 70.621094 39.003906 70.621094 0 Z M 70.621094 0 " style=" stroke:none;fill-rule:nonzero;fill:rgb(63.529412%,85.882353%,69.411765%);fill-opacity:1;" />
<path d="M 0 247.171875 L 0 317.792969 L 70.621094 317.792969 C 70.621094 278.789062 39.003906 247.171875 0 247.171875 Z M 0 247.171875 " style=" stroke:none;fill-rule:nonzero;fill:rgb(39.215686%,76.470588%,49.019608%);fill-opacity:1;" />
<path d="M 512 70.621094 L 512 0 L 441.378906 0 C 441.378906 39.003906 472.996094 70.621094 512 70.621094 Z M 512 70.621094 " style=" stroke:none;fill-rule:nonzero;fill:rgb(63.529412%,85.882353%,69.411765%);fill-opacity:1;" />
<path d="M 441.378906 317.792969 L 512 317.792969 L 512 247.171875 C 472.996094 247.171875 441.378906 278.789062 441.378906 317.792969 Z M 441.378906 317.792969 " style=" stroke:none;fill-rule:nonzero;fill:rgb(39.215686%,76.470588%,49.019608%);fill-opacity:1;" />
<path d="M 256 167.722656 C 221.871094 167.722656 194.207031 140.058594 194.207031 105.929688 C 194.207031 71.804688 221.871094 44.136719 256 44.136719 C 290.128906 44.136719 317.792969 71.804688 317.792969 105.929688 C 317.792969 110.804688 313.839844 114.757812 308.964844 114.757812 C 304.089844 114.757812 300.136719 110.804688 300.136719 105.929688 C 300.136719 81.554688 280.375 61.792969 256 61.792969 C 231.625 61.792969 211.863281 81.554688 211.863281 105.929688 C 211.863281 130.308594 231.625 150.070312 256 150.070312 C 260.875 150.070312 264.828125 154.019531 264.828125 158.898438 C 264.828125 163.773438 260.875 167.722656 256 167.722656 Z M 256 167.722656 " style=" stroke:none;fill-rule:nonzero;fill:rgb(94.509804%,94.901961%,94.901961%);fill-opacity:1;" />
<path d="M 256 273.65625 C 221.890625 273.613281 194.25 245.972656 194.207031 211.863281 L 211.863281 211.863281 C 211.863281 236.238281 231.625 256 256 256 C 280.375 256 300.136719 236.238281 300.136719 211.863281 C 300.136719 187.484375 280.375 167.722656 256 167.722656 L 256 150.070312 C 290.128906 150.070312 317.792969 177.734375 317.792969 211.863281 C 317.792969 245.992188 290.128906 273.65625 256 273.65625 Z M 256 273.65625 " style=" stroke:none;fill-rule:nonzero;fill:rgb(94.509804%,94.901961%,94.901961%);fill-opacity:1;" />
<path d="M 247.171875 26.484375 L 264.828125 26.484375 L 264.828125 291.3125 L 247.171875 291.3125 Z M 247.171875 26.484375 " style=" stroke:none;fill-rule:nonzero;fill:rgb(94.509804%,94.901961%,94.901961%);fill-opacity:1;" />
</g>
</svg>