<?xml version="1.0" encoding="iso-8859-1"?>
<!-- Generator: Adobe Illustrator 19.0.0, SVG Export Plug-In . SVG Version: 6.00 Build 0)  -->
<svg version="1.1" id="Capa_1" xmlns="http://www.w3.org/2000/svg" xmlns:xlink="http://www.w3.org/1999/xlink" x="0px" y="0px"
	 viewBox="0 0 468.287 468.287" style="enable-background:new 0 0 468.287 468.287;" xml:space="preserve">
<path style="fill:#E1E6E9;" d="M409.01,181.288c-48.18,48.181-95.751,41.125-129.444,7.432s-40.75-81.263,7.429-129.443
	S420.346-19.449,454.04,14.244C487.733,47.936,457.189,133.108,409.01,181.288z"/>
<path style="fill:#D5D6DB;" d="M292.079,64.361c46.961-46.961,129.043-77.14,164.368-47.44c-0.771-0.917-1.554-1.825-2.406-2.677
	c-33.693-33.692-118.866-3.146-167.045,45.034c-48.18,48.181-41.122,95.751-7.43,129.443c0.859,0.859,1.764,1.622,2.639,2.444
	C250.711,157.651,245.126,111.315,292.079,64.361z"/>
<g>
	<path style="fill:#EBF0F3;" d="M413.79,40.69c0,0-41.989-0.807-76.71,33.914"/>
	<path style="fill:#EBF0F3;" d="M332.528,79.158c-2.515-2.515-2.515-6.592,0-9.107c36.241-36.241,79.559-35.836,81.384-35.804
		c3.552,0.076,6.384,3.008,6.315,6.564c-0.066,3.552-2.997,6.377-6.549,6.315c-0.55-0.005-39.878-0.132-72.041,32.033
		C339.12,81.674,335.043,81.674,332.528,79.158z"/>
</g>
<path style="fill:#D5D6DB;" d="M72.32,451.398l218.684-251.239l-11.439-11.438L10.231,458.059
	C26.17,473.997,54.543,470.954,72.32,451.398z"/>
<path style="fill:#E1E6E9;" d="M268.126,177.282L16.89,395.97c-19.555,17.777-22.599,46.15-6.66,62.089l269.335-269.339
	L268.126,177.282z"/>
<g>
</g>
<g>
</g>
<g>
</g>
<g>
</g>
<g>
</g>
<g>
</g>
<g>
</g>
<g>
</g>
<g>
</g>
<g>
</g>
<g>
</g>
<g>
</g>
<g>
</g>
<g>
</g>
<g>
</g>
</svg>
