<?xml version="1.0" encoding="iso-8859-1"?>
<!-- Generator: Adobe Illustrator 19.0.0, SVG Export Plug-In . SVG Version: 6.00 Build 0)  -->
<svg xmlns="http://www.w3.org/2000/svg" xmlns:xlink="http://www.w3.org/1999/xlink" version="1.1" id="Capa_1" x="0px" y="0px" viewBox="0 0 512 512" style="enable-background:new 0 0 512 512;" xml:space="preserve">
<g>
	<path style="fill:#686D6D;" d="M295.748,75.633h-79.496c-4.179,0-7.567-3.387-7.567-7.567V35.232   C208.686,15.805,224.491,0,243.917,0h24.166c19.427,0,35.232,15.805,35.232,35.232v32.835   C303.314,72.246,299.927,75.633,295.748,75.633z M223.819,60.5h64.363V35.232c0-11.083-9.016-20.099-20.099-20.099h-24.166   c-11.082,0-20.099,9.016-20.099,20.099L223.819,60.5L223.819,60.5z"/>
	<path style="fill:#686D6D;" d="M60.332,130.545H42.797c-16.574,0-30.059-13.485-30.059-30.059s13.484-30.058,30.059-30.058h17.535   c4.179,0,7.567,3.387,7.567,7.567c0,4.179-3.388,7.567-7.567,7.567H42.797c-8.23,0-14.926,6.696-14.926,14.925   c0,8.231,6.696,14.926,14.926,14.926h17.535c4.179,0,7.567,3.387,7.567,7.567S64.51,130.545,60.332,130.545z"/>
	<path style="fill:#686D6D;" d="M469.203,130.545h-17.535c-4.179,0-7.567-3.387-7.567-7.567s3.388-7.567,7.567-7.567h17.535   c8.23,0,14.926-6.696,14.926-14.926s-6.696-14.925-14.926-14.925h-17.535c-4.179,0-7.567-3.387-7.567-7.567   c0-4.179,3.388-7.567,7.567-7.567h17.535c16.574,0,30.059,13.484,30.059,30.058S485.777,130.545,469.203,130.545z"/>
</g>
<path style="fill:#D7DCDD;" d="M446.624,57.726H65.376c-2.786,0-5.044,2.259-5.044,5.044v75.431c0,2.786,2.258,5.044,5.044,5.044  H78.67v363.709c0,2.786,2.258,5.044,5.044,5.044h344.572c2.786,0,5.044-2.258,5.044-5.044V143.246h13.294  c2.786,0,5.044-2.258,5.044-5.044V62.77C451.669,59.985,449.41,57.726,446.624,57.726z"/>
<path style="fill:#BDBDBD;" d="M428.286,512h-19.511V143.246h24.555v363.709C433.33,509.742,431.072,512,428.286,512z"/>
<g>
	<path style="fill:#686D6D;" d="M159.085,468.936L159.085,468.936c-11.636,0-21.069-9.433-21.069-21.068v-239.13   c0-11.636,9.433-21.068,21.068-21.068l0,0c11.636,0,21.068,9.433,21.068,21.068v239.13   C180.153,459.504,170.721,468.936,159.085,468.936z"/>
	<path style="fill:#686D6D;" d="M256,468.936L256,468.936c-11.636,0-21.069-9.433-21.069-21.068v-239.13   c0-11.636,9.433-21.068,21.069-21.068l0,0c11.636,0,21.068,9.433,21.068,21.068v239.13   C277.069,459.504,267.636,468.936,256,468.936z"/>
	<path style="fill:#686D6D;" d="M352.915,468.936L352.915,468.936c-11.636,0-21.069-9.433-21.069-21.068v-239.13   c0-11.636,9.433-21.068,21.069-21.068l0,0c11.636,0,21.069,9.433,21.069,21.068v239.13   C373.984,459.504,364.551,468.936,352.915,468.936z"/>
</g>
<path style="fill:#BDBDBD;" d="M446.624,143.246h-37.849v-85.52h37.849c2.786,0,5.044,2.258,5.044,5.044v75.431  C451.669,140.988,449.41,143.246,446.624,143.246z"/>
<g>
	<path style="fill:#555656;" d="M373.301,209.433v237.74c0,11.562-9.383,20.944-20.954,20.944c-3.642,0-7.062-0.928-10.038-2.572   c6.487-3.551,10.886-10.452,10.886-18.371v-237.74c0-5.791-2.341-11.017-6.134-14.81c-1.402-1.402-3.006-2.613-4.752-3.571   c2.976-1.634,6.396-2.563,10.038-2.563c5.791,0,11.027,2.341,14.82,6.134C370.951,198.416,373.301,203.642,373.301,209.433z"/>
	<path style="fill:#555656;" d="M276.946,209.433v237.74c0,11.562-9.383,20.944-20.954,20.944c-3.642,0-7.062-0.928-10.038-2.572   c6.487-3.551,10.886-10.452,10.886-18.371v-237.74c0-5.791-2.341-11.017-6.134-14.81c-1.402-1.402-3.006-2.613-4.752-3.571   c2.976-1.634,6.396-2.563,10.038-2.563c5.791,0,11.027,2.341,14.82,6.134C274.595,198.416,276.946,203.642,276.946,209.433z"/>
	<path style="fill:#555656;" d="M180.595,209.433v237.74c0,11.562-9.383,20.944-20.954,20.944c-3.642,0-7.062-0.928-10.038-2.572   c6.487-3.551,10.886-10.452,10.886-18.371v-237.74c0-5.791-2.341-11.017-6.134-14.81c-1.402-1.402-3.006-2.613-4.752-3.571   c2.976-1.634,6.396-2.563,10.038-2.563c5.791,0,11.027,2.341,14.82,6.134C178.244,198.416,180.595,203.642,180.595,209.433z"/>
</g>
<g>
</g>
<g>
</g>
<g>
</g>
<g>
</g>
<g>
</g>
<g>
</g>
<g>
</g>
<g>
</g>
<g>
</g>
<g>
</g>
<g>
</g>
<g>
</g>
<g>
</g>
<g>
</g>
<g>
</g>
</svg>
