<svg id="Capa_1" enable-background="new 0 0 497 497" height="512" viewBox="0 0 497 497" width="512" xmlns="http://www.w3.org/2000/svg"><g><path d="m385.907 138.562 3.721 66.979c28.773-16.442 38.763-53.098 22.326-81.863z" fill="#ffd17e"/><path d="m307.765 183.214 78.142-44.653c16.437 28.765 18.108 58.758 3.721 66.979-28.774 16.443-65.426 6.439-81.863-22.326z" fill="#ffeac3"/><path d="m232.775 82.218-18.605 27.908 33.489-1.861 52.095-29.768-14.884-26.047z" fill="#8c98a7"/><path d="m146.264 131.653c-32.633 18.647-52.905 53.58-52.905 91.166v229.181h30v-229.181c0-26.847 14.481-51.799 37.79-65.119l86.511-49.435-14.884-26.047z" fill="#a6b0bd"/><path d="m78.359 429.5v52.5h60v-52.5c0-4.142-3.358-7.5-7.5-7.5h-45c-4.142 0-7.5 3.358-7.5 7.5z" fill="#3d5168"/><path d="m275.567 5.937 66.979 117.213 39.071-22.326-44.653-78.142c-12.33-21.579-39.819-29.076-61.397-16.745z" fill="#233952"/><path d="m275.567 5.937c-21.578 12.33-29.075 39.819-16.745 61.397l44.652 78.142 52.095-29.768-44.653-78.142c-12.329-21.579-28.156-35.739-35.349-31.629z" fill="#3d5168"/><path d="m366.733 74.776-26.047 14.884 99.173 52.619 19.286-11.021c3.815-2.18 4.918-7.14 2.453-10.777-21.602-31.868-58.269-48.479-94.865-45.705z" fill="#09213d"/><path d="m439.859 142.279-149.523 85.441c-3.815 2.18-8.648.613-10.53-3.358-16.488-34.79-12.184-74.813 8.786-104.933l52.095-29.768c39.156-2.969 78.394 16.256 99.172 52.618z" fill="#233952"/><path d="m288.359 452h-30l45 45h21.749c4.685 0 8.297-4.263 7.38-8.857-4.115-20.611-22.308-36.143-44.129-36.143z" fill="#09213d"/><path d="m258.359 452h-180c-21.821 0-40.015 15.532-44.129 36.143-.917 4.594 2.695 8.857 7.38 8.857h261.749c0-24.853-20.148-45-45-45z" fill="#233952"/></g></svg>