<svg height="511pt" viewBox="-65 1 511 511.99998" width="511pt" xmlns="http://www.w3.org/2000/svg"><path d="m380.84375 48.714844v414.570312c0 26.90625-21.808594 48.714844-48.714844 48.714844h-282.914062c-26.90625 0-48.714844-21.808594-48.714844-48.714844v-414.570312c0-26.90625 21.808594-48.714844 48.714844-48.714844h282.914062c26.90625 0 48.714844 21.808594 48.714844 48.714844zm0 0" fill="#e8590c"/><path d="m380.84375 48.714844v414.570312c0 26.90625-21.808594 48.714844-48.714844 48.714844h-239.03125c-26.90625 0-48.710937-21.808594-48.710937-48.714844v-414.570312c0-26.90625 21.804687-48.714844 48.710937-48.714844h239.03125c26.90625 0 48.714844 21.808594 48.714844 48.714844zm0 0" fill="#ff9216"/><path d="m239.78125 283.789062v-176.164062c0-27.121094-21.988281-49.109375-49.109375-49.109375s-49.109375 21.988281-49.109375 49.109375v176.164062c-25.394531 16.074219-42.375 44.242188-42.832031 76.410157-.722657 50.542969 40.085937 92.574219 90.632812 93.277343 51.382813.714844 93.257813-40.722656 93.257813-91.941406 0-32.722656-17.09375-61.449218-42.839844-77.746094zm0 0" fill="#e6e6e6"/><path d="m208.433594 208.21875v92.828125l14.582031 9.230469c17.695313 11.199218 28.261719 30.363281 28.261719 51.257812 0 16.191406-6.304688 31.410156-17.75 42.855469-11.449219 11.445313-26.664063 17.75-42.851563 17.75 0 0-.585937-.003906-.875-.007813-16.066406-.222656-31.15625-6.773437-42.492187-18.445312-11.34375-11.675781-17.460938-26.960938-17.234375-43.042969.292969-20.527343 10.855469-39.355469 28.253906-50.367187l14.578125-9.230469v-92.828125zm0 0" fill="#ff694f"/><path d="m190.3125 422.136719h-.523438c-16.058593-.230469-31.148437-6.78125-42.484374-18.453125-11.347657-11.671875-17.460938-26.957032-17.230469-43.039063.292969-20.53125 10.84375-39.359375 28.253906-50.375l14.574219-9.226562v-92.828125h10.617187v92.828125l-5.859375 9.226562c-7.003906 11.015625-11.253906 29.84375-11.371094 50.375-.09375 16.082031 2.371094 31.367188 6.929688 43.039063 4.566406 11.671875 10.636719 18.222656 17.09375 18.453125zm0 0" fill="#ed2867"/><g fill="#e6e6e6"><path d="m320.238281 259.9375h-37.617187c-4.328125 0-7.835938-3.507812-7.835938-7.835938 0-4.328124 3.507813-7.835937 7.835938-7.835937h37.617187c4.328125 0 7.835938 3.507813 7.835938 7.835937 0 4.328126-3.507813 7.835938-7.835938 7.835938zm0 0"/><path d="m320.238281 205.269531h-37.617187c-4.328125 0-7.835938-3.511719-7.835938-7.839843 0-4.328126 3.507813-7.835938 7.835938-7.835938h37.617187c4.328125 0 7.835938 3.507812 7.835938 7.835938 0 4.328124-3.507813 7.839843-7.835938 7.839843zm0 0"/><path d="m320.238281 150.597656h-37.617187c-4.328125 0-7.835938-3.511718-7.835938-7.839844 0-4.328124 3.507813-7.835937 7.835938-7.835937h37.617187c4.328125 0 7.835938 3.507813 7.835938 7.835937 0 4.328126-3.507813 7.839844-7.835938 7.839844zm0 0"/><path d="m320.238281 95.925781h-37.617187c-4.328125 0-7.835938-3.511719-7.835938-7.835937 0-4.328125 3.507813-7.839844 7.835938-7.839844h37.617187c4.328125 0 7.835938 3.511719 7.835938 7.839844 0 4.324218-3.507813 7.835937-7.835938 7.835937zm0 0"/></g></svg>