<svg enable-background="new 0 0 24 24" height="512" viewBox="0 0 24 24" width="512" xmlns="http://www.w3.org/2000/svg"><path d="m22 2.75c0-1.519-1.231-2.75-2.75-2.75h-14.5c-1.519 0-2.75 1.231-2.75 2.75v18.5c0 1.519 1.231 2.75 2.75 2.75h14.5c1.519 0 2.75-1.231 2.75-2.75z" fill="#2196f3"/><path d="m12 6c-3.309 0-6 2.691-6 6s2.691 6 6 6c.414 0 .75-.336.75-.75s-.336-.75-.75-.75c-2.481 0-4.5-2.019-4.5-4.5s2.019-4.5 4.5-4.5 4.5 2.019 4.5 4.5v1.75c0 .413-.337.75-.75.75s-.75-.337-.75-.75v-1.75c0-1.654-1.346-3-3-3s-3 1.346-3 3 1.346 3 3 3c.606 0 1.168-.184 1.64-.494.313.868 1.136 1.494 2.11 1.494 1.24 0 2.25-1.01 2.25-2.25v-1.75c0-3.309-2.691-6-6-6zm0 7.5c-.827 0-1.5-.673-1.5-1.5s.673-1.5 1.5-1.5 1.5.673 1.5 1.5-.673 1.5-1.5 1.5z" fill="#fafafa"/></svg>