<svg id="Capa_1" enable-background="new 0 0 512 512" height="512" viewBox="0 0 512 512" width="512" xmlns="http://www.w3.org/2000/svg"><g><path d="m512 315.825s-3.59 62.008-48.197 147.977c-85.978 44.615-147.977 48.197-147.977 48.197-42.302-20.3-102.164-66.298-142.02-125.248-7.845-11.604-14.928-23.722-20.938-36.238l197.645-197.645c12.517 6.01 24.635 13.093 36.239 20.938 58.95 39.855 104.948 99.717 125.248 142.019z" fill="#efecef"/><path d="m386.752 173.806-212.945 212.945c-7.845-11.604-14.928-23.722-20.938-36.238l197.645-197.645c12.516 6.009 24.635 13.092 36.238 20.938z" fill="#b4acb7"/><path d="m186.554 141.237 158.703 158.703c12.517 12.517 12.517 32.799 0 45.316s-32.799 12.517-45.316 0l-158.703-158.703z" fill="#e2dfe2"/><path d="m352.207 334.866c-1.56 3.776-3.874 7.313-6.95 10.389-12.517 12.517-32.799 12.517-45.316 0l-158.703-158.702 17.33-17.33 158.703 158.703c9.45 9.449 23.323 11.763 34.936 6.94z" fill="#c3bec6"/><path d="m169.045 172.986h64.086v56.201h-64.086z" fill="#c3bec6" transform="matrix(.707 -.707 .707 .707 -83.292 201.087)"/><path d="m192.494 112.853c3.546 3.776 7.083 7.562 10.602 11.364 12.942 13.988 13.439 35.388 1.197 50.005-4.574 5.461-9.361 10.691-14.37 15.699-5.017 5.017-10.247 9.804-15.699 14.369-14.618 12.242-36.017 11.745-50.005-1.197-3.803-3.519-7.588-7.056-11.364-10.602-35.468-33.321-69.739-67.84-102.804-103.564-12.942-13.988-13.43-35.379-1.188-49.996 9.131-10.904 19.157-20.93 30.069-30.069 14.618-12.242 36.008-11.754 49.997 1.188 35.724 33.065 70.242 67.335 103.565 102.803z" fill="#da387d"/><path d="m192.494 112.853c3.546 3.776 7.083 7.562 10.602 11.364 12.942 13.988 13.439 35.388 1.197 50.005-4.574 5.461-9.361 10.691-14.37 15.699-5.017 5.017-10.247 9.804-15.699 14.369-14.618 12.242-36.017 11.745-50.005-1.197-3.803-3.519-7.588-7.056-11.364-10.602 1.268-4.441 3.643-8.625 7.145-12.127l60.368-60.368c3.5-3.5 7.684-5.876 12.126-7.143z" fill="#d80a61"/><path d="m185.643 192.872c1.649-.762 3.076-1.746 4.273-2.943-5.008 5.008-10.239 9.795-15.699 14.369-14.609 12.233-36.017 11.745-49.996-1.206-39.527-36.584-77.583-74.64-114.167-114.167-12.951-13.98-13.43-35.379-1.197-49.987 4.574-5.461 9.361-10.691 14.369-15.699-1.197 1.197-2.181 2.624-2.943 4.273-2.039 4.414 6.382 17.871 19.724 31.46 37.701 38.41 75.757 76.466 114.167 114.167 13.589 13.341 27.054 21.771 31.469 19.733z" fill="#d80a61"/><path d="m194.075 133.709-33.404 33.404-19.196 32.533-14.653 5.697c-3.111 9.705-.816 20.768 6.887 28.471 10.973 10.973 28.765 10.973 39.738 0l60.366-60.366c10.973-10.973 10.973-28.765 0-39.738-10.973-10.974-28.765-10.974-39.738-.001z" fill="#da387d"/><path d="m184.893 210.73c7.189-.009 14.379-2.748 19.866-8.235l-31.31 31.31c-5.487 5.487-12.685 8.235-19.866 8.235-7.198 0-14.387-2.739-19.874-8.226-10.974-10.974-10.966-28.765.009-39.74l31.31-31.31c-10.974 10.974-10.974 28.757 0 39.731 5.487 5.487 12.676 8.226 19.865 8.235z" fill="#d80a61"/></g></svg>