<svg height="512pt" viewBox="-63 0 512 512.00001" width="512pt" xmlns="http://www.w3.org/2000/svg"><path d="m143.070312 419.355469h99.660157v89.652343h-99.660157zm0 0" fill="#b77445"/><path d="m192.890625 419.355469h49.839844v89.652343h-49.839844zm0 0" fill="#a04010"/><path d="m385.800781 437.316406h-385.800781l192.890625-285.753906.011719-.011719zm0 0" fill="#00b44b"/><path d="m105.097656 482.066406h175.605469v29.933594h-175.605469zm0 0" fill="#9ce78d"/><path d="m385.800781 437.316406h-192.910156v-285.753906l.011719-.011719zm0 0" fill="#007f40"/><path d="m192.890625 482.066406h87.8125v29.933594h-87.8125zm0 0" fill="#36cb8e"/><path d="m365.496094 329.105469h-345.191406l172.585937-255.667969.011719-.011719zm0 0" fill="#60d64d"/><path d="m365.496094 329.105469h-172.605469v-255.667969l.011719-.011719zm0 0" fill="#00b563"/><path d="m335.0625 210.589844h-284.324219l142.152344-210.5781252.011719-.0117188zm0 0" fill="#c8fb78"/><path d="m335.0625 210.589844h-142.171875v-210.5781252l.011719-.0117188zm0 0" fill="#9ce78d"/></svg>