<svg id="Layer_1" enable-background="new 0 0 512 512" height="512" viewBox="0 0 512 512" width="512" xmlns="http://www.w3.org/2000/svg"><g><path d="m4.394 425.028c-5.858-5.859-5.859-15.358 0-21.217l45.646-45.65c2.814-2.813 6.63-4.394 10.609-4.394 3.978 0 7.794 1.58 10.608 4.394 79.099 79.096 207.804 79.096 286.903 0 78.687-78.684 79.749-207.154 0-286.9-5.858-5.859-5.859-15.358-.001-21.217l45.647-45.65c5.859-5.859 15.365-5.855 21.217 0 115.967 115.97 115.967 304.666 0 420.635-115.99 115.986-304.685 115.938-420.629-.001z" fill="#41d76c"/><path d="m425.025 4.393c-5.853-5.855-15.358-5.859-21.217 0l-45.647 45.65c-5.858 5.859-5.857 15.358.001 21.217 79.749 79.746 78.687 208.216 0 286.9-.001.001-.001.001-.002.002l66.865 66.865c115.967-115.969 115.967-304.665 0-420.634z" fill="#00b464"/><path d="m50.041 379.378c-2.814-2.813-4.394-6.63-4.394-10.609s1.58-7.795 4.394-10.609l68.104-68.102c4.63-4.629 11.724-5.722 17.53-2.702 8.88 4.619 18.681.522 22.831-6.804 5.321-9.392 15.072-7.343 17.208-7.343 9.451 0 17.14-7.689 17.14-17.14 0-1.845-2.145-11.856 7.352-17.224 7.715-4.36 11.251-14.34 6.826-22.837-3.026-5.809-1.935-12.909 2.697-17.541l148.432-148.424c5.859-5.858 15.357-5.858 21.216 0 90.887 90.885 91.036 238.3 0 329.335-90.817 90.814-238.556 90.776-329.336 0z" fill="#ff8291"/><path d="m379.378 50.043c-5.859-5.858-15.357-5.858-21.216 0l-148.433 148.425c-2.044 2.044-3.396 4.57-4.011 7.252l173.659 173.659s.001-.001.001-.001c91.036-91.035 90.887-238.45 0-329.335z" fill="#ff5050"/><path d="m309.72 330.938-16.096-16.092c-5.858-5.857-5.859-15.355-.002-21.213 5.857-5.859 15.355-5.859 21.213-.002l16.096 16.092c5.858 5.857 5.859 15.355.002 21.213-5.858 5.859-15.356 5.858-21.213.002z" fill="#e10032"/><path d="m229.354 363.071-16.096-16.093c-5.858-5.857-5.859-15.354-.002-21.213s15.355-5.859 21.213-.002l16.096 16.093c5.858 5.857 5.859 15.354.002 21.213-5.859 5.859-15.357 5.858-21.213.002z" fill="#e10032"/><g fill="#a00"><path d="m330.933 330.936c5.857-5.858 5.856-15.356-.002-21.213l-16.096-16.092c-5.856-5.855-15.351-5.857-21.209-.001z"/><path d="m346.948 213.283c-5.857-5.856-15.355-5.857-21.213.002-5.857 5.858-5.856 15.356.002 21.213l16.096 16.092c5.857 5.856 15.355 5.857 21.213-.002 5.857-5.858 5.856-15.356-.002-21.213z"/></g></g></svg>