<svg id="Capa_1" enable-background="new 0 0 512 512" height="512" viewBox="0 0 512 512" width="512" xmlns="http://www.w3.org/2000/svg"><g clip-rule="evenodd" fill-rule="evenodd"><path d="m142.994 40.282c-14.684 32.146-13.04 73.305 7.738 109.277 23.641 40.933 65.424 63.78 105.279 61.683 21.713-33.479 22.847-81.072-.793-122.005-20.693-35.858-55.361-57.827-90.425-61.313-15.477-1.531-15.364-1.73-21.799 12.358z" fill="#5aa687"/><path d="m222.931 211.242h66.133l24.264 300.758h-114.661z" fill="#de9252"/><path d="m264.062 211.242h25.002l24.264 300.758h-25.002z" fill="#d48748"/><path d="m292.125 249.113 1.191 14.995c-.057 0-.114.028-.199.028h-74.239c-.057 0-.142-.028-.199-.028l1.219-14.995zm4.025 50.003 1.219 14.996c-.085 0-.142 0-.198 0h-82.318c-.085 0-.142 0-.198 0l1.19-14.996zm4.025 50.003 1.219 14.995c-.057 0-.142 0-.199 0h-90.396c-.057 0-.114 0-.199 0l1.219-14.995z" fill="#c47637"/><path d="m72.638 119.681c3.373 35.207 25.37 70.016 61.37 90.795 40.932 23.612 88.526 22.507 122.003.766 2.069-39.856-20.749-81.639-61.682-105.28-35.858-20.693-76.876-22.394-108.964-7.881-14.172 6.406-14.201 6.179-12.727 21.6z" fill="#78c2a4"/><path d="m228.09 223.459c9.837-2.807 19.134-6.945 27.553-12.416-35.178-17.916-59.783-57.885-60.321-104.459-.453-.283-.907-.539-1.36-.793-7.597-4.395-15.42-7.938-23.357-10.631-.199 3.26-.312 6.549-.312 9.836-.001 45.98 20.493 91.674 57.797 118.463z" fill="#66b394"/><path d="m86.018 162.087c2.466 4.48 5.216 8.816 8.306 13.012l57.571-15.421 34.583 19.984-64.318 17.235c-1.701.453-3.118 1.474-4.082 2.777 4.536 3.572 9.354 6.916 14.485 9.95l72.255-19.361 43.767 25.343c2.551-1.36 5.017-2.806 7.427-4.365.142-2.864.17-5.727.057-8.618l-45.978-26.589c-.312-.199-.624-.397-.964-.539l-49.719-28.771-15.364-57.431c-5.188-.567-10.318-.794-15.421-.709 0 .681.085 1.361.255 2.041l12.189 45.469-61.285-35.434c-6.973 3.373-8.135 5.215-7.682 12.841l61.483 35.575-45.695 12.218c-.68.199-1.303.453-1.87.793z" fill="#5aa687"/><path d="m369.028 40.282c14.655 32.146 13.011 73.305-7.767 109.277-23.613 40.933-65.424 63.78-105.251 61.683-21.742-33.479-22.875-81.072.765-122.005 20.722-35.858 55.361-57.827 90.425-61.313 15.479-1.531 15.394-1.73 21.828 12.358z" fill="#5aa687"/><path d="m439.356 119.681c-3.373 35.207-25.37 70.016-61.341 90.795-40.933 23.612-88.555 22.507-122.003.766-2.098-39.856 20.721-81.639 61.654-105.28 35.886-20.693 76.875-22.394 108.992-7.881 14.144 6.406 14.172 6.179 12.698 21.6z" fill="#78c2a4"/><path d="m439.356 119.681c-3.373 35.207-25.37 70.016-61.341 90.795-24.435 14.089-51.25 19.39-75.997 16.725 17.178-1.786 34.611-7.285 50.995-16.725 35.972-20.779 57.969-55.588 61.342-90.795 1.474-15.421 1.446-15.194-12.699-21.601-10.261-4.62-21.401-7.597-32.995-8.844 20.466-2.154 40.535.963 57.996 8.844 14.145 6.407 14.173 6.18 12.699 21.601z" fill="#66b394"/><path d="m425.977 162.087c-2.438 4.48-5.216 8.816-8.277 13.012l-57.6-15.421-34.583 19.984 64.347 17.235c1.701.453 3.09 1.474 4.054 2.777-4.507 3.572-9.355 6.916-14.485 9.95l-72.227-19.361-43.795 25.343c-2.523-1.36-5.017-2.806-7.398-4.365-.17-2.864-.17-5.727-.085-8.618l45.978-26.589c.312-.199.624-.397.964-.539l49.719-28.771 15.392-57.431c5.159-.567 10.318-.794 15.393-.709.028.681-.057 1.361-.255 2.041l-12.189 45.469 61.314-35.434c6.945 3.373 8.135 5.215 7.653 12.841l-61.483 35.575 45.694 12.218c.678.199 1.302.453 1.869.793z" fill="#5aa687"/><path d="m165.785 421.801c49.833 0 90.226 40.393 90.226 90.199h-180.453c0-49.805 40.393-90.199 90.227-90.199z" fill="#917d52"/><path d="m346.21 421.801c49.834 0 90.227 40.393 90.227 90.199h-180.426c0-49.805 40.394-90.199 90.199-90.199z" fill="#917d52"/><path d="m243.596 6.662c-11.867 8.465-22.099 19.64-30.027 32.765-1.653 2.737 1.549 11.783 1.549 11.783s-7.886.155-8.67 1.935c-4.49 10.187-7.703 21.231-9.401 32.859-.44 3.014 3.163 12.149 3.163 12.149s-4.549 3.661-4.549 7.042c0 47.255 24.775 87.932 60.35 106.046 35.546-18.114 60.321-58.791 60.321-106.046 0-3.607-5.743-7.677-5.743-7.677s4.776-8.638 4.376-11.399c-1.682-11.604-4.874-22.629-9.337-32.802-1.123-2.56-5.495-1.245-6.775-3.692-1.105-2.112.902-8.001-.314-10.024-7.878-13.1-18.051-24.265-29.857-32.74-12.642-9.043-12.472-9.185-25.086-.199z" fill="#b3e59f"/><path d="m243.596 6.662-.085.085.17.113c28.63 20.552 47.65 56.921 47.65 98.335 0 41.5-19.105 77.897-47.821 98.448 3.969 2.834 8.164 5.386 12.501 7.598 35.546-18.114 60.321-58.791 60.321-106.046 0-3.371-5.743-7.677-5.743-7.677s4.808-8.413 4.376-11.399c-1.682-11.604-4.874-22.629-9.337-32.802-1.12-2.554-6.775-3.692-6.775-3.692s.905-7.996-.314-10.024c-7.878-13.1-18.051-24.265-29.857-32.74-12.642-9.043-12.472-9.185-25.086-.199z" fill="#95d6a4"/><path d="m213.577 39.432c-2.636 4.365-5.018 8.957-7.115 13.72l42.18 42.179-.057 39.913-47.083-47.112c-1.247-1.219-2.835-1.956-4.45-2.126-.822 5.697-1.304 11.565-1.361 17.546l52.895 52.896-.057 50.542c2.438 1.531 4.932 2.949 7.483 4.253 2.551-1.304 5.017-2.722 7.455-4.253l.057-50.514 52.81-52.811c-.085-5.98-.539-11.82-1.361-17.546-1.644.17-3.203.907-4.45 2.126l-46.999 46.999.057-39.884 42.038-42.038c-2.098-4.791-4.479-9.355-7.087-13.72-.595.312-1.134.736-1.644 1.247l-33.308 33.278.057-70.81c-6.378-4.338-8.589-4.422-14.938-.199l-.057 71.009-33.449-33.448c-.482-.481-1.049-.907-1.616-1.247z" fill="#78c2a4"/><path d="m256.011 386.509c69.307 0 125.49 56.183 125.49 125.491h-251.008c0-69.308 56.183-125.491 125.518-125.491z" fill="#b2a17d"/><path d="m356.5 512h25.001c0-50.911-30.728-96.634-77.527-115.994-14.797-6.124-30.983-9.497-47.962-9.497-4.224 0-8.391.197-12.501.623 22.904 2.268 44.022 10.688 61.654 23.614 32.258 23.668 51.335 61.086 51.335 101.254z" fill="#a39474"/><g fill="#8a764b"><path d="m346.975 425.514c37.275 11.084 64.46 45.609 64.46 86.486h25.001c0-49.806-40.393-90.199-90.227-90.199-.963 0-1.927 0-2.891.028 1.248 1.219 2.467 2.438 3.657 3.685z"/><path d="m130.493 512c0-35.377 14.655-67.352 38.211-90.171-.964-.028-1.928-.028-2.919-.028-8.929 0-17.575 1.304-25.71 3.713-21.43 22.508-34.583 52.98-34.583 86.486z"/></g></g></svg>