<svg id="Capa_1" enable-background="new 0 0 512 512" height="512" viewBox="0 0 512 512" width="512" xmlns="http://www.w3.org/2000/svg"><path d="m389.084 512h-344.87c-10.55 0-19.102-8.552-19.102-19.102v-448.755c0-10.55 8.552-19.102 19.102-19.102h344.87c10.55 0 19.102 8.552 19.102 19.102v448.755c0 10.55-8.552 19.102-19.102 19.102z" fill="#fba615"/><path d="m389.084 25.04h-16.609v467.858c0 10.55-8.552 19.102-19.102 19.102h35.712c10.55 0 19.102-8.552 19.102-19.102v-448.755c-.001-10.55-8.553-19.103-19.103-19.103z" fill="#fa9801"/><path d="m372.477 25.04h-311.656v430.832c0 8.208 6.654 14.862 14.862 14.862h197.704c6.208 0 12.161-2.466 16.551-6.855l75.685-75.685c4.389-4.389 6.855-10.343 6.855-16.551v-346.603z" fill="#f1faff"/><path d="m337.003 25.04v391.773l28.619-28.619c4.389-4.389 6.856-10.343 6.856-16.551v-346.603z" fill="#dcf5ff"/><path d="m297.944 381.339c-8.208 0-14.862 6.654-14.862 14.862v72.403c2.523-1.15 4.856-2.726 6.854-4.723l75.687-75.687c1.999-1.999 3.575-4.332 4.725-6.855z" fill="#c7eefb"/><path d="m301.993 50.081h-170.688c-4.81 0-8.709-3.899-8.709-8.709v-32.663c0-4.81 3.899-8.709 8.709-8.709h170.687c4.81 0 8.709 3.899 8.709 8.709v32.663c.001 4.81-3.899 8.709-8.708 8.709z" fill="#d58956"/><path d="m301.993 0h-26.874v41.372c0 4.81-3.899 8.709-8.709 8.709h35.583c4.81 0 8.709-3.899 8.709-8.709v-32.663c0-4.81-3.9-8.709-8.709-8.709z" fill="#c27b45"/><path d="m486.888 32.05c0-3.871-3.138-7.009-7.009-7.009h-27.035c-3.871 0-7.009 3.138-7.009 7.009v39.555l5.164 7.541h30.726l5.164-7.541v-39.555z" fill="#c7eefb"/><path d="m479.633 93.447h-26.543l-7.255 7.163v333.931c0 2.698.293 5.388.873 8.023l14.359 9.553h10.589l14.359-9.553c.58-2.635.873-5.325.873-8.023v-333.931z" fill="#fa4954"/><path d="m486.015 442.564-14.359 65.181c-1.25 5.673-9.339 5.673-10.589 0l-14.359-65.181c11.316-9.675 27.991-9.675 39.307 0z" fill="#3c5959"/><path d="m445.834 71.605h41.054v29.005h-41.054z" fill="#fbd307"/><g fill="#0e80ac"><path d="m329.2 135.625h-225.36c-4.268 0-7.726-3.459-7.726-7.726s3.459-7.726 7.726-7.726h225.36c4.268 0 7.726 3.459 7.726 7.726s-3.458 7.726-7.726 7.726z"/><path d="m329.2 205.02h-225.36c-4.268 0-7.726-3.459-7.726-7.726s3.459-7.726 7.726-7.726h225.36c4.268 0 7.726 3.459 7.726 7.726s-3.458 7.726-7.726 7.726z"/><path d="m329.2 274.415h-225.36c-4.268 0-7.726-3.459-7.726-7.726s3.459-7.726 7.726-7.726h225.36c4.268 0 7.726 3.459 7.726 7.726.001 4.267-3.458 7.726-7.726 7.726z"/><path d="m221.064 343.811h-117.224c-4.268 0-7.726-3.459-7.726-7.726s3.459-7.726 7.726-7.726h117.224c4.268 0 7.726 3.459 7.726 7.726.001 4.267-3.458 7.726-7.726 7.726z"/></g></svg>