<svg id="Capa_1" enable-background="new 0 0 512 512" height="512" viewBox="0 0 512 512" width="512" xmlns="http://www.w3.org/2000/svg"><g><path d="m375.986 112.002c-2.915 0-5.86-.848-8.449-2.617l-111.537-76.217-111.537 76.217c-6.839 4.673-16.174 2.917-20.848-3.922-4.674-6.84-2.918-16.174 3.922-20.848l120-82c5.104-3.487 11.822-3.487 16.926 0l120 82c6.84 4.674 8.596 14.008 3.922 20.848-2.905 4.251-7.61 6.539-12.399 6.539z" fill="#646464"/><path d="m256 33.168 111.537 76.217c2.589 1.769 5.534 2.617 8.449 2.617 4.788 0 9.493-2.288 12.398-6.539 4.674-6.84 2.918-16.174-3.922-20.848l-120-82c-2.55-1.742-5.503-2.614-8.456-2.615h-.006z" fill="#414141"/><path d="m497 412h-482c-8.284 0-15-6.716-15-15v-300c0-8.284 6.716-15 15-15h482c8.284 0 15 6.716 15 15v300c0 8.284-6.716 15-15 15z" fill="#dcf0ff"/><path d="m497 82h-241v330h241c8.284 0 15-6.716 15-15v-300c0-8.284-6.716-15-15-15z" fill="#bedceb"/><path d="m30 112h452v270h-452z" fill="#ff6ea0"/><path d="m256 112h226v270h-226z" fill="#ff4182"/><path d="m397 352h-282c-8.284 0-15-6.716-15-15 0-13.785-11.215-25-25-25-8.284 0-15-6.716-15-15v-100c0-8.284 6.716-15 15-15 13.785 0 25-11.215 25-25 0-8.284 6.716-15 15-15h282c8.284 0 15 6.716 15 15 0 13.785 11.215 25 25 25 8.284 0 15 6.716 15 15v100c0 8.284-6.716 15-15 15-13.785 0-25 11.215-25 25 0 8.284-6.716 15-15 15z" fill="#dcf0ff"/><path d="m437 182c-13.785 0-25-11.215-25-25 0-8.284-6.716-15-15-15h-141v210h141c8.284 0 15-6.716 15-15 0-13.785 11.215-25 25-25 8.284 0 15-6.716 15-15v-100c0-8.284-6.716-15-15-15z" fill="#bedceb"/><path d="m356 232h-200c-8.284 0-15-6.716-15-15s6.716-15 15-15h200c8.284 0 15 6.716 15 15s-6.716 15-15 15z" fill="#646464"/><path d="m291.003 512c-3.516 0-6.992-1.234-9.765-3.611l-25.238-21.632-25.238 21.632c-4.447 3.812-10.708 4.687-16.029 2.239-5.323-2.448-8.733-7.77-8.733-13.628v-89.441c0-8.284 6.716-15 15-15h70c8.284 0 15 6.716 15 15v89.441c0 5.858-3.41 11.18-8.732 13.628-2.004.922-4.142 1.372-6.265 1.372z" fill="#ff6ea0"/><path d="m356 202h-100v30h100c8.284 0 15-6.716 15-15s-6.716-15-15-15z" fill="#414141"/><path d="m306 497v-89.441c0-8.284-6.716-15-15-15h-35v94.197l25.238 21.632c2.772 2.377 6.249 3.612 9.765 3.611 2.123 0 4.261-.451 6.265-1.372 5.322-2.447 8.732-7.769 8.732-13.627z" fill="#ff4182"/><path d="m256 429c-46.869 0-85-38.131-85-85s38.131-85 85-85 85 38.131 85 85-38.131 85-85 85z" fill="#ffd228"/><path d="m341 344c0-46.869-38.131-85-85-85v170c46.869 0 85-38.131 85-85z" fill="#f7aa00"/><circle cx="256" cy="344" fill="#ffeb3c" r="55"/><path d="m311 344c0-30.327-24.673-55-55-55v110c30.327 0 55-24.673 55-55z" fill="#ffd228"/><circle cx="256" cy="344" fill="#ffd228" r="15"/><path d="m271 344c0-8.284-6.716-15-15-15v30c8.284 0 15-6.715 15-15z" fill="#f7aa00"/></g></svg>