<svg id="Flat_Icons" height="512" viewBox="0 0 64 64" width="512" xmlns="http://www.w3.org/2000/svg" data-name="Flat Icons"><path d="m14.11 16h34.89a0 0 0 0 1 0 0v11a0 0 0 0 1 0 0h-38a0 0 0 0 1 0 0v-7.89a3.11 3.11 0 0 1 3.11-3.11z" fill="#fcb62e"/><path d="m25 6h33v33h-33z" fill="#f8efe3"/><path d="m55.17 58h-46.34a2.83 2.83 0 0 1 -2.83-2.83v-30.34a2.83 2.83 0 0 1 2.83-2.83h11.4a2.79 2.79 0 0 1 2.12 1l2.65 3a2.83 2.83 0 0 0 2.13 1h28a2.83 2.83 0 0 1 2.87 2.83v25.34a2.83 2.83 0 0 1 -2.83 2.83z" fill="#fdc558"/><path d="m58 50v5.17a2.83 2.83 0 0 1 -2.83 2.83h-46.34a2.83 2.83 0 0 1 -2.83-2.83v-30.34a2.83 2.83 0 0 1 2.83-2.83h6.17v10.78a17.19 17.19 0 0 0 14 16.91 16.28 16.28 0 0 0 3.22.31z" fill="#f7b94b"/><g fill="#ead4bb"><path d="m28.67 12h15.39a1 1 0 0 0 0-2h-15.39a1 1 0 0 0 0 2z"/><path d="m28.67 16h15.39a1 1 0 0 0 0-2h-15.39a1 1 0 0 0 0 2z"/><path d="m28.67 20h25.33a1 1 0 0 0 0-2h-25.33a1 1 0 0 0 0 2z"/><path d="m54 22h-25.33a1 1 0 0 0 0 2h25.33a1 1 0 0 0 0-2z"/></g><path d="m11 45h18v8h-18z" fill="#feedcd"/><path d="m29 49.69v3.31h-18v-8h9.08a17.1 17.1 0 0 0 8.92 4.69z" fill="#fee2ab"/><rect fill="#fdd079" height="4" rx="2" width="16" x="39" y="29"/><rect fill="#fdd079" height="4" rx="2" width="5" x="32" y="29"/></svg>