<?xml version="1.0" encoding="iso-8859-1"?>
<!-- Generator: Adobe Illustrator 19.0.0, SVG Export Plug-In . SVG Version: 6.00 Build 0)  -->
<svg xmlns="http://www.w3.org/2000/svg" xmlns:xlink="http://www.w3.org/1999/xlink" version="1.1" id="Capa_1" x="0px" y="0px" viewBox="0 0 512 512" style="enable-background:new 0 0 512 512;" xml:space="preserve">
<path style="fill:#696969;" d="M324.503,83.726H309.28V38.057c0-12.59-10.243-22.834-22.835-22.834h-60.892  c-12.591,0-22.834,10.244-22.834,22.834v45.669h-15.223V38.057C187.497,17.072,204.569,0,225.554,0h60.892  c20.985,0,38.057,17.072,38.057,38.057V83.726z"/>
<polygon style="fill:#808080;" points="377.784,98.949 377.784,481.554 438.676,451.108 438.676,129.395 "/>
<g>
	<polygon style="fill:#BFBFBF;" points="164.662,98.949 73.324,129.395 73.324,451.108 164.662,481.554  "/>
	<rect x="256" y="98.949" style="fill:#BFBFBF;" width="91.338" height="382.605"/>
</g>
<g>
	<rect x="347.338" y="98.949" style="fill:#9F9F9F;" width="60.892" height="382.605"/>
	<rect x="164.662" y="98.949" style="fill:#9F9F9F;" width="91.338" height="382.605"/>
</g>
<path style="fill:#696969;" d="M408.23,451.108L377.784,512h30.446c16.745,0,30.446-13.701,30.446-30.446v-30.446H408.23z"/>
<path style="fill:#808080;" d="M408.23,481.554v-30.446H73.324v30.446c0,16.745,13.701,30.446,30.446,30.446h274.014  C394.529,512,408.23,498.299,408.23,481.554z"/>
<path style="fill:#696969;" d="M408.23,53.28h-30.446l30.446,76.115h30.446V83.726C438.676,66.981,424.975,53.28,408.23,53.28z"/>
<path style="fill:#808080;" d="M377.784,53.28H103.77c-16.745,0-30.446,13.701-30.446,30.446v45.669H408.23V83.726  C408.23,66.981,394.529,53.28,377.784,53.28z"/>
<path style="fill:#696969;" d="M443.75,137.007H68.25c-4.204,0-7.611-3.407-7.611-7.611c0-4.205,3.408-7.611,7.611-7.611H443.75  c4.204,0,7.611,3.407,7.611,7.611S447.954,137.007,443.75,137.007z"/>
<g>
</g>
<g>
</g>
<g>
</g>
<g>
</g>
<g>
</g>
<g>
</g>
<g>
</g>
<g>
</g>
<g>
</g>
<g>
</g>
<g>
</g>
<g>
</g>
<g>
</g>
<g>
</g>
<g>
</g>
</svg>
