<svg enable-background="new 0 0 512 512" height="512" viewBox="0 0 512 512" width="512" xmlns="http://www.w3.org/2000/svg"><g id="_x31_4_Pear"><g><path d="m220.222 68.535c-10.037 7.207-93.348 49.427-129.912 67.852-3.625 1.826-7.107-2.687-4.412-5.722 27.444-30.903 90.689-101.666 100.746-108.888 12.908-9.269 30.899-6.317 40.168 6.591s6.317 30.899-6.59 40.167z" fill="#0bad67"/><path d="m274.585 38.218c-18.667-9.198-49.091-16.181-84.738 6.308l4.133 6.56c35.254-22.24 64.298-13.521 80.605-4.399z" fill="#0bad67"/><path d="m267.354 125.453c-16.456-47.729-11.373-100.882 34.653-123.315l.678-.33c8.523-4.154 18.8-.612 22.955 7.911 4.154 8.523.612 18.8-7.911 22.955-4.351 2.121-13.9 2.435-23.973 11.693-19.187 17.673-22.566 53.698-19.637 79.353l.022.196c.219 1.921-1.16 3.656-3.081 3.875-1.661.188-3.183-.82-3.706-2.338z" fill="#6d6d6d"/><path d="m348.885 498.17c-22.001 13.072-48.144 16.048-73.471 12.196-4.518-.645-8.703-.599-13.013 0-25.852 3.968-52.521.642-74.93-12.838-45.985-27.661-76.681-78.081-76.681-135.621 0-36.94 12.722-70.962 33.964-97.864 48.436-61.45 49.953-122.199 49.778-121.674 6.828-67.402 72.713-67.752 74.405-67.227 38.399 0 70.553 29.062 74.405 67.227.525 2.159 2.976 65.301 47.269 118.581 61.909 74.38 42.928 187.232-41.726 237.22z" fill="#0bad67"/><path d="m348.885 498.17c-20.892 12.43-45.518 15.698-69.619 12.722 13.188-1.692 25.968-5.777 37.64-12.722 84.676-50.012 103.641-162.815 41.725-237.22-44.293-53.28-46.744-116.422-47.269-118.581-3.326-32.796-27.545-58.882-58.649-65.534 9.104-1.926 15.698-1.867 16.223-1.692 38.399 0 70.553 29.062 74.405 67.227.525 2.159 2.976 65.301 47.269 118.581 61.917 74.404 42.951 187.207-41.725 237.219z" opacity=".08"/><g opacity=".4"><path d="m133.372 370.367h-.006c-4.671-.003-8.455-3.792-8.455-8.466.006-10.311 1.113-20.647 3.294-30.722.986-4.566 5.442-7.461 10.058-6.483 4.566.989 7.469 5.492 6.478 10.058-1.922 8.907-2.903 18.045-2.908 27.158 0 4.671-3.79 8.455-8.461 8.455z" fill="#fff"/></g></g></g></svg>