<?xml version="1.0" encoding="iso-8859-1"?>
<!-- Generator: Adobe Illustrator 19.0.0, SVG Export Plug-In . SVG Version: 6.00 Build 0)  -->
<svg version="1.1" id="Capa_1" xmlns="http://www.w3.org/2000/svg" xmlns:xlink="http://www.w3.org/1999/xlink" x="0px" y="0px"
	 viewBox="0 0 468.293 468.293" style="enable-background:new 0 0 468.293 468.293;" xml:space="preserve">
<path style="fill:#EBF0F3;" d="M0,326.722c0,12.254,9.935,22.19,22.19,22.19H382.77c12.255,0,22.19-9.935,22.19-22.19V287.89H0
	V326.722z"/>
<path style="fill:#64798A;" d="M382.77,57.586H22.19C9.935,57.586,0,67.521,0,79.775V90.87v197.02h404.96V90.87V79.775
	C404.96,67.521,395.026,57.586,382.77,57.586z"/>
<path style="fill:#2D93BA;" d="M16.642,260.153V85.323c0-6.127,4.967-11.095,11.095-11.095h349.486
	c6.128,0,11.095,4.967,11.095,11.095v174.83c0,6.127-4.967,11.095-11.095,11.095H27.737
	C21.609,271.248,16.642,266.28,16.642,260.153z"/>
<rect x="144.908" y="348.909" style="fill:#D5D6DB;" width="115.144" height="32.918"/>
<g>
	<path style="fill:#64798A;" d="M260.053,381.828H144.907l-13.277,19.509c-3.36,3.532-0.856,9.37,4.02,9.37h133.66
		c4.876,0,7.38-5.838,4.02-9.37L260.053,381.828z"/>
	<circle style="fill:#64798A;" cx="202.477" cy="318.377" r="18.026"/>
</g>
<path style="fill:#FCD462;" d="M399.413,410.707L399.413,410.707c-38.042,0-68.88-30.839-68.88-68.88v-40.841
	c0-8.79,7.126-15.917,15.916-15.917h105.927c8.79,0,15.917,7.126,15.917,15.917v40.841
	C468.293,379.868,437.454,410.707,399.413,410.707z"/>
<path style="fill:#F6C358;" d="M399.413,405.401L399.413,405.401c-38.042,0-68.88-30.839-68.88-68.88v5.306
	c0,38.041,30.839,68.88,68.88,68.88h0c38.041,0,68.88-30.839,68.88-68.88v-5.306C468.293,374.563,437.454,405.401,399.413,405.401z"
	/>
<path style="fill:#D5D6DB;" d="M399.413,201.876L399.413,201.876c-27.589,0-49.954,22.365-49.954,49.954v33.239h13.263v-33.238
	c0-20.232,16.458-36.69,36.69-36.69c20.232,0,36.69,16.458,36.69,36.69v33.238h13.265v-33.239
	C449.367,224.242,427.002,201.876,399.413,201.876z"/>
<path style="fill:#3A556A;" d="M411.476,338.477c0-6.662-5.401-12.063-12.064-12.063c-6.662,0-12.063,5.401-12.063,12.063
	c0,4.669,2.681,8.672,6.561,10.677l-2.455,22.273h15.917l-2.455-22.273C408.795,347.149,411.476,343.146,411.476,338.477z"/>
<g>
</g>
<g>
</g>
<g>
</g>
<g>
</g>
<g>
</g>
<g>
</g>
<g>
</g>
<g>
</g>
<g>
</g>
<g>
</g>
<g>
</g>
<g>
</g>
<g>
</g>
<g>
</g>
<g>
</g>
</svg>
