<svg id="Layer_1" enable-background="new 0 0 511.419 511.419" height="512" viewBox="0 0 511.419 511.419" width="512" xmlns="http://www.w3.org/2000/svg"><g><path d="m271.709 43.959c0 4.8-2.16 9.35-5.87 12.38-10.53 8.61-19.14 18.23-24.24 27.07-7.4 12.81-9.43 27.75-5.71 42.06 1.17 4.48.34 9.25-2.28 13.07-2.61 3.82-6.75 6.32-11.35 6.85-21.25 2.48-41.27 7.14-59.51 13.85-1.81.66-3.68.98-5.52.98-5.83 0-11.4-3.2-14.21-8.65-10.59-20.47-16.39-49.45-15.14-75.63 1.56-32.59 13.44-56.9 33.44-68.46 14.94-8.62 33.89-9.81 54.83-3.44 16.47 5.02 34.12 14.8 49.69 27.54 3.721 3.04 5.87 7.58 5.87 12.38z" fill="#98d7ce"/><path d="m271.709 43.959c0 4.8-2.16 9.35-5.87 12.38-10.53 8.61-19.14 18.23-24.24 27.07-7.4 12.81-9.43 27.75-5.71 42.06 1.17 4.48.34 9.25-2.28 13.07-1.3 1.9-2.98 3.48-4.91 4.65-13.17-3.88-26.22-6.64-38.98-8.24-1.92-.24-3.72-.82-5.36-1.66-5.18-2.68-8.66-8.08-8.65-14.21-.01-23.05 8.14-51.46 21.27-74.14 9.31-16.09 20.37-28.25 32.43-35.94 12.41 5.44 24.98 13.21 36.43 22.58 3.721 3.04 5.87 7.58 5.87 12.38z" fill="#84c3ba"/><path d="m368.399 151.569c-2.81 5.45-8.38 8.65-14.21 8.65-1.84 0-3.71-.32-5.52-.98-18.24-6.71-38.26-11.37-59.51-13.85-11.09-1.31-22.33-1.97-33.45-1.97s-22.36.66-33.42 1.97c-7.95.94-15.35-4.13-17.36-11.86-5.86-22.5-2.68-45.98 8.95-66.12 7-12.11 18.26-24.84 31.7-35.83 15.57-12.74 33.22-22.52 49.69-27.54 20.94-6.37 39.89-5.18 54.83 3.44 20 11.56 31.88 35.87 33.44 68.46 1.25 26.18-4.55 55.16-15.14 75.63z" fill="#acebe2"/><path d="m368.399 151.569c-2.81 5.45-8.38 8.65-14.21 8.65-1.84 0-3.71-.32-5.52-.98-2.68-.99-5.39-1.93-8.14-2.82 1.56-1.3 2.88-2.94 3.87-4.85 10.59-20.47 16.39-49.45 15.14-75.63-1.56-32.59-13.44-56.9-33.44-68.46-5.45-3.15-11.43-5.31-17.86-6.47 15.79-2.51 30.07-.33 41.86 6.47 20 11.56 31.88 35.87 33.44 68.46 1.25 26.18-4.55 55.16-15.14 75.63z" fill="#98d7ce"/><path d="m463.709 255.419c0 23.4-6.48 51.77-18.74 82.04-11.68 28.84-27.99 58.05-47.17 84.49-44.92 61.94-96.71 89.47-142.09 89.47s-97.17-27.53-142.09-89.47c-19.18-26.44-35.49-55.65-47.17-84.49-12.26-30.27-18.74-58.64-18.74-82.04 0-30.35 10.52-57.27 31.26-80.01 17.75-19.45 42.22-35 72.74-46.21 20.6-7.58 43.09-12.82 66.85-15.59 12.28-1.45 24.78-2.19 37.15-2.19s24.87.74 37.18 2.19c23.73 2.77 46.22 8.01 66.82 15.59 30.52 11.21 54.99 26.76 72.74 46.21 20.74 22.74 31.26 49.66 31.26 80.01z" fill="#f79caf"/><path d="m463.709 255.419c0 23.4-6.48 51.77-18.74 82.04-11.68 28.84-27.99 58.05-47.17 84.49-44.92 61.94-96.71 89.47-142.09 89.47-6.55 0-13.23-.74-20-2.19 40.18-8.61 83.65-34.27 122.09-87.28 19.18-26.44 35.49-55.65 47.17-84.49 12.26-30.27 18.74-58.64 18.74-82.04 0-30.35-10.52-57.27-31.26-80.01-17.75-19.45-42.22-35-72.74-46.21-20.6-7.58-43.09-12.82-66.82-15.59-5.7-.67-11.43-1.19-17.18-1.55 6.67-.43 13.35-.64 20-.64 12.37 0 24.87.74 37.18 2.19 23.73 2.77 46.22 8.01 66.82 15.59 30.52 11.21 54.99 26.76 72.74 46.21 20.74 22.74 31.26 49.66 31.26 80.01z" fill="#e3889b"/><g fill="#f3d4b7"><path d="m175.709 247.419c-13.233 0-24-10.767-24-24s10.767-24 24-24 24 10.767 24 24-10.766 24-24 24z"/><path d="m255.709 247.419c-13.233 0-24-10.767-24-24s10.767-24 24-24 24 10.767 24 24-10.766 24-24 24z"/><path d="m335.709 247.419c-13.233 0-24-10.767-24-24s10.767-24 24-24 24 10.767 24 24-10.766 24-24 24z"/><path d="m215.709 327.419c-13.233 0-24-10.767-24-24s10.767-24 24-24 24 10.767 24 24-10.766 24-24 24z"/><path d="m295.709 327.419c-13.233 0-24-10.767-24-24s10.767-24 24-24 24 10.767 24 24-10.766 24-24 24z"/><path d="m255.709 407.419c-13.233 0-24-10.767-24-24s10.767-24 24-24 24 10.767 24 24-10.766 24-24 24z"/></g></g></svg>