<svg id="Capa_1" enable-background="new 0 0 510 510" height="512" viewBox="0 0 510 510" width="512" xmlns="http://www.w3.org/2000/svg"><g><g fill="#00a78e"><path d="m270 105h30c33.137 0 60-26.863 60-60h-30c-33.137 0-60 26.863-60 60z"/><path d="m270 225h60c33.137 0 60-26.863 60-60h-60c-33.137 0-60 26.863-60 60z"/><path d="m270 345h90c33.137 0 60-26.863 60-60h-90c-33.137 0-60 26.863-60 60z"/></g><path d="m240 105h-30c-33.137 0-60-26.863-60-60h30c33.137 0 60 26.863 60 60z" fill="#00cb75"/><path d="m240 225h-60c-33.137 0-60-26.863-60-60h60c33.137 0 60 26.863 60 60z" fill="#00cb75"/><path d="m240 345h-90c-33.137 0-60-26.863-60-60h90c33.137 0 60 26.863 60 60z" fill="#00cb75"/><g id="XMLID_110_"><g><path d="m255 390-7.5 10-7.5-10v-390h15l10 203.336z" fill="#bee75e"/></g></g><g id="XMLID_64_"><g><path d="m270 390-7.5 10-7.5-10v-390h15z" fill="#00cb75"/></g></g><g><path d="m182.293 420c3.494 20.964 6.506 39.036 10 60l31.353 10 31.354-10 10-30-10-30-36.354-10z" fill="#9d6b5d"/><path d="m327.707 420-36.354-10-36.353 10v60l31.353 10 31.354-10c3.494-20.964 6.506-39.036 10-60z" fill="#895050"/><path d="m192.293 480c1.749 10.492 3.251 19.508 5 30h57.707l10-15-10-15c-20.912 0-41.81 0-62.707 0z" fill="#895050"/><path d="m317.707 480c-20.912 0-41.81 0-62.707 0v30h57.707c1.749-10.492 3.251-19.508 5-30z" fill="#5a344b"/><path d="m150 390v30h105l10-15-10-15c-28.278 0-88.527 0-105 0z" fill="#895050"/><path d="m360 390c-28.278 0-88.527 0-105 0v30h105c0-10.492 0-19.508 0-30z" fill="#5a344b"/></g></g></svg>