<?xml version="1.0" encoding="iso-8859-1"?>
<!-- Generator: Adobe Illustrator 19.0.0, SVG Export Plug-In . SVG Version: 6.00 Build 0)  -->
<svg version="1.1" id="Capa_1" xmlns="http://www.w3.org/2000/svg" xmlns:xlink="http://www.w3.org/1999/xlink" x="0px" y="0px"
	 viewBox="0 0 512 512" style="enable-background:new 0 0 512 512;" xml:space="preserve">
<path style="fill:#FD3018;" d="M407.783,62.871C367.24,22.328,313.337,0,256.003,0c-57.335,0-111.239,22.328-151.784,62.871
	c-40.542,40.543-62.87,94.445-62.87,151.779c0,57.336,22.327,111.24,62.87,151.783l141.178,141.172
	c2.929,2.93,6.768,4.395,10.606,4.395c3.839,0,7.678-1.465,10.607-4.395l141.172-141.172c40.542-40.543,62.87-94.447,62.87-151.783
	C470.652,157.314,448.325,103.412,407.783,62.871z M302.201,260.848c-12.341,12.34-28.748,19.137-46.199,19.137
	s-33.858-6.797-46.197-19.135c-12.34-12.34-19.136-28.748-19.136-46.199s6.796-33.857,19.136-46.197s28.746-19.135,46.197-19.135
	c17.452,0,33.859,6.795,46.199,19.135C327.674,193.926,327.674,235.375,302.201,260.848z"/>
<path style="fill:#E61E14;" d="M407.783,62.871C367.24,22.328,313.337,0,256.003,0c-0.001,0-0.001,0-0.002,0v149.318h0.001
	c17.452,0,33.859,6.795,46.199,19.135c25.473,25.473,25.473,66.922,0,92.395c-12.341,12.34-28.748,19.137-46.199,19.137H256V512
	c0.001,0,0.001,0,0.002,0c3.839,0,7.678-1.465,10.607-4.395l141.172-141.172c40.542-40.543,62.87-94.447,62.87-151.783
	C470.652,157.314,448.325,103.412,407.783,62.871z"/>
<g>
</g>
<g>
</g>
<g>
</g>
<g>
</g>
<g>
</g>
<g>
</g>
<g>
</g>
<g>
</g>
<g>
</g>
<g>
</g>
<g>
</g>
<g>
</g>
<g>
</g>
<g>
</g>
<g>
</g>
</svg>
