<svg height="512" viewBox="0 0 58 55" width="512" xmlns="http://www.w3.org/2000/svg"><g id="Page-1" fill="none" fill-rule="evenodd"><g id="014---Favourite-Message"><path id="Path" d="m36.25 5h-28.25c-4.418278 0-8 3.581722-8 8v24c0 4.418278 3.581722 8 8 8h4c.5522847 0 1 .4477153 1 1v8c-.0000257.390353.2270897.7450391.5816401.9083471.3545504.1633081.7717173.1053824 1.0683599-.1483471l11.07-9.52c.1796813-.1573781.4111588-.2428467.65-.24h19.63c4.418278 0 8-3.581722 8-8v-16.049z" fill="#b0d3f0"/><path id="Path" d="m46 42c-.5522847 0-1-.4477153-1-1s.4477153-1 1-1c1.6568542 0 3-1.3431458 3-3 0-.5522847.4477153-1 1-1s1 .4477153 1 1c-.0033061 2.7600532-2.2399468 4.9966939-5 5z" fill="#90bae1"/><path id="Path" d="m4 14c-.55228475 0-1-.4477153-1-1 .00330612-2.7600532 2.23994685-4.99669388 5-5 .55228475 0 1 .44771525 1 1s-.44771525 1-1 1c-1.65685425 0-3 1.3431458-3 3 0 .5522847-.44771525 1-1 1z" fill="#ecf0f1"/><circle id="Oval" cx="46" cy="12.001" fill="#f0c419" r="12"/><g fill="#35495e"><path id="Path" d="m33 26h-25c-.55228475 0-1-.4477153-1-1s.44771525-1 1-1h25c.5522847 0 1 .4477153 1 1s-.4477153 1-1 1z"/><path id="Path" d="m28 18h-3c-.5522847 0-1-.4477153-1-1s.4477153-1 1-1h3c.5522847 0 1 .4477153 1 1s-.4477153 1-1 1z"/><path id="Path" d="m46 34h-27c-.5522847 0-1-.4477153-1-1s.4477153-1 1-1h27c.5522847 0 1 .4477153 1 1s-.4477153 1-1 1z"/><path id="Path" d="m21 18h-13c-.55228475 0-1-.4477153-1-1s.44771525-1 1-1h13c.5522847 0 1 .4477153 1 1s-.4477153 1-1 1z"/><path id="Path" d="m15 34h-7c-.55228475 0-1-.4477153-1-1s.44771525-1 1-1h7c.5522847 0 1 .4477153 1 1s-.4477153 1-1 1z"/></g><path id="Path" d="m45.476 16.559-2.576 1.313c-.3727628.1986413-.8255757.1706744-1.1710615-.0723278-.3454857-.2430023-.5248763-.6597044-.4639385-1.0776722l.493-2.782c.0622682-.3560691-.059624-.7194886-.324-.966l-2.092-1.974c-.3056117-.289837-.41546-.730573-.2816236-1.12993724.1338363-.39936427.487078-.68490793.9056236-.73206276l2.885-.4c.3636113-.04971213.6801187-.27365604.848-.6l1.291-2.53c.1981512-.37399889.5867517-.60788412 1.01-.60788412s.8118488.23388523 1.01.60788412l1.29 2.532c.1678813.32634396.4843887.55028787.848.6l2.885.4c.4178315.04746218.7704158.33250628.9043594.73112252.1339436.39861628.0250292.83873378-.2793594 1.12887748l-2.087 1.97c-.264376.2465114-.3862682.6099309-.324.966l.493 2.782c.0609378.4179678-.1184528.8346699-.4639385 1.0776722-.3454858.2430022-.7982987.2709691-1.1710615.0723278l-2.581-1.313c-.3300217-.1657016-.7192528-.164216-1.048.004z" fill="#ecf0f1"/></g></g></svg>