<svg height="512pt" viewBox="-83 0 511 512" width="512pt" xmlns="http://www.w3.org/2000/svg"><path d="m230.058594 256.019531c0 5.402344 1.882812 8.5 2.570312 9.011719 49.851563 33.480469 77.3125 79.949219 77.3125 130.847656v60.222656h-275.472656v-60.222656c0-50.898437 27.460938-97.367187 77.320312-130.847656.671876-.511719 2.5625-3.609375 2.5625-9.011719 0-5.398437-1.882812-8.5-2.570312-9.007812-49.851562-33.472657-77.3125-79.953125-77.3125-130.851563v-60.21875h275.472656v60.21875c0 50.898438-27.460937 97.371094-77.320312 130.851563-.691406.527343-2.5625 3.617187-2.5625 9.007812zm0 0" fill="#ffe8cc"/><path d="m230.058594 256.019531c0 5.402344 1.882812 8.5 2.570312 9.011719 49.851563 33.480469 77.3125 79.949219 77.3125 130.847656v60.222656h-136.453125v-400.160156h136.453125v60.21875c0 50.898438-27.460937 97.371094-77.320312 130.851563-.691406.527343-2.5625 3.617187-2.5625 9.007812zm0 0" fill="#f9cea0"/><path d="m182.371094 159.160156c.097656.480469.21875.960938.359375 1.429688.140625.460937.308593.929687.5 1.378906.179687.453125.398437.902344.617187 1.332031.230469.429688.492188.847657.761719 1.257813s.5625.8125.871094 1.179687c.308593.382813.648437.75.988281 1.101563.351562.351562.722656.679687 1.101562.988281.371094.3125.769532.601563 1.179688.871094s.828125.53125 1.261719.761719c.429687.230468.878906.4375 1.328125.617187.449218.191406.921875.363281 1.378906.5.472656.140625.953125.261719 1.433594.363281.476562.097656.96875.167969 1.449218.21875.488282.050782.988282.070313 1.476563.070313.492187 0 .980469-.019531 1.472656-.070313.488281-.050781.980469-.121094 1.460938-.21875.476562-.101562.957031-.222656 1.417969-.363281.472656-.136719.929687-.308594 1.378906-.5.460937-.179687.902344-.386719 1.332031-.617187.429687-.230469.859375-.492188 1.261719-.761719.40625-.269531.808594-.558594 1.1875-.871094.378906-.308594.75-.636719 1.089844-.988281.351562-.351563.679687-.71875 1-1.101563.300781-.367187.601562-.769531.871093-1.179687s.519531-.828125.75-1.257813c.230469-.429687.4375-.878906.628907-1.332031.191406-.449219.351562-.917969.5-1.378906.140624-.46875.261718-.949219.359374-1.429688.089844-.480468.171876-.96875.222657-1.449218.039062-.492188.066406-.992188.066406-1.480469 0-.492188-.027344-.980469-.066406-1.46875-.050781-.492188-.132813-.980469-.222657-1.460938-.097656-.480469-.21875-.960937-.359374-1.421875-.148438-.46875-.308594-.929687-.5-1.378906-.1875-.460938-.398438-.898438-.628907-1.328125-.230469-.433594-.480469-.863281-.75-1.261719-.269531-.410156-.570312-.808594-.871093-1.191406-.320313-.378906-.648438-.75-1-1.089844-.339844-.347656-.710938-.679687-1.089844-.988281-.378906-.3125-.78125-.609375-1.1875-.878906-.402344-.273438-.832032-.523438-1.261719-.75-.429687-.230469-.871094-.441407-1.332031-.632813-.449219-.179687-.90625-.347656-1.378906-.488281-.460938-.152344-.9375-.269531-1.417969-.359375-.480469-.101562-.972657-.171875-1.460938-.222656-.972656-.097656-1.972656-.097656-2.949219 0-.480468.050781-.972656.121094-1.449218.222656-.480469.089844-.960938.207031-1.433594.359375-.457031.140625-.929688.308594-1.378906.488281-.449219.191406-.898438.402344-1.328125.632813-.433594.226562-.851563.476562-1.261719.75-.410156.269531-.808594.566406-1.179688.878906-.378906.308594-.75.640625-1.101562.988281-.339844.339844-.679688.710938-.988281 1.089844-.3125.382812-.601563.78125-.871094 1.191406-.269531.398438-.53125.828125-.761719 1.261719-.21875.429687-.4375.867187-.617187 1.328125-.191407.449219-.359375.910156-.5 1.378906-.140625.460938-.261719.941406-.359375 1.421875-.101563.480469-.171875.96875-.222656 1.460938-.050782.488281-.070313.976562-.070313 1.46875 0 .488281.023437.988281.070313 1.480469.050781.480468.121093.96875.222656 1.449218zm0 0" fill="#ffe8cc"/><g fill="#fff"><path d="m134.371094 159.160156c.097656.480469.21875.960938.359375 1.429688.140625.460937.308593.929687.5 1.378906.179687.453125.398437.902344.617187 1.332031.230469.429688.492188.847657.761719 1.257813s.5625.8125.871094 1.179687c.308593.382813.648437.75.988281 1.101563.351562.339844.722656.679687 1.101562.988281.371094.3125.769532.601563 1.179688.871094s.828125.53125 1.261719.761719c.429687.230468.878906.4375 1.328125.617187.449218.191406.921875.363281 1.378906.5.472656.140625.953125.261719 1.433594.363281.476562.097656.96875.167969 1.449218.21875.488282.050782.988282.070313 1.476563.070313.492187 0 .980469-.019531 1.472656-.070313.488281-.050781.980469-.121094 1.460938-.21875.476562-.101562.957031-.222656 1.417969-.363281.472656-.136719.929687-.308594 1.390624-.5.449219-.179687.890626-.386719 1.320313-.617187.429687-.230469.859375-.492188 1.261719-.761719.40625-.269531.808594-.558594 1.1875-.871094.378906-.308594.75-.648437 1.089844-.988281.351562-.351563.679687-.71875 1-1.101563.300781-.367187.601562-.769531.871093-1.179687s.519531-.828125.75-1.257813c.230469-.429687.4375-.878906.628907-1.332031.191406-.449219.351562-.917969.5-1.378906.140624-.46875.261718-.949219.359374-1.429688.089844-.480468.171876-.96875.210938-1.449218.050781-.492188.078125-.992188.078125-1.480469 0-.492188-.027344-.980469-.078125-1.46875-.039062-.492188-.121094-.980469-.210938-1.460938-.097656-.480469-.21875-.949219-.359374-1.421875-.148438-.46875-.308594-.929687-.5-1.378906-.1875-.460938-.398438-.898438-.628907-1.328125-.230469-.433594-.480469-.863281-.75-1.261719-.269531-.410156-.570312-.808594-.871093-1.191406-.320313-.378906-.648438-.75-1-1.089844-.339844-.347656-.710938-.679687-1.089844-.988281-.378906-.3125-.78125-.609375-1.1875-.878906-.402344-.273438-.832032-.523438-1.261719-.75-.429687-.230469-.871094-.441407-1.320313-.632813-.460937-.179687-.917968-.347656-1.390624-.488281-.460938-.152344-.9375-.269531-1.417969-.359375-.480469-.101562-.972657-.171875-1.460938-.222656-.980469-.097656-1.972656-.097656-2.949219 0-.480468.050781-.972656.121094-1.449218.222656-.480469.089844-.960938.207031-1.433594.359375-.457031.140625-.929688.308594-1.378906.488281-.449219.191406-.898438.402344-1.328125.632813-.433594.226562-.851563.476562-1.261719.75-.410156.269531-.808594.566406-1.179688.878906-.378906.308594-.75.640625-1.101562.988281-.339844.339844-.679688.710938-.988281 1.089844-.3125.382812-.601563.78125-.871094 1.191406-.269531.398438-.53125.828125-.761719 1.261719-.21875.429687-.4375.867187-.617187 1.328125-.191407.449219-.359375.910156-.5 1.378906-.140625.472656-.261719.941406-.359375 1.421875-.101563.480469-.171875.96875-.222656 1.460938-.050782.488281-.070313.976562-.070313 1.46875 0 .488281.023437.988281.070313 1.480469.050781.480468.121093.96875.222656 1.449218zm0 0"/><path d="m188.078125 196.230469c0 .488281-.027344.988281-.078125 1.480469-.039062.480468-.121094.96875-.210938 1.449218-.097656.480469-.21875.960938-.359374 1.429688-.148438.460937-.308594.929687-.5 1.378906-.191407.453125-.398438.902344-.628907 1.332031-.230469.429688-.480469.847657-.75 1.257813s-.570312.8125-.871093 1.179687c-.320313.382813-.648438.75-1 1.101563-.339844.351562-.710938.679687-1.089844.988281-.378906.3125-.78125.601563-1.191406.871094-.398438.269531-.828126.53125-1.257813.761719-.429687.230468-.871094.4375-1.320313.617187-.460937.191406-.921874.363281-1.390624.5-.460938.140625-.941407.261719-1.417969.363281-.480469.097656-.972657.167969-1.460938.21875-.351562.039063-.699219.058594-1.0625.058594-.128906.011719-.269531.011719-.410156.011719-.488281 0-.988281-.019531-1.476563-.070313-.480468-.050781-.972656-.121094-1.453124-.21875-.476563-.101562-.957032-.222656-1.429688-.363281-.457031-.136719-.929688-.308594-1.378906-.5-.449219-.179687-.898438-.386719-1.328125-.617187-.433594-.230469-.851563-.492188-1.261719-.761719s-.800781-.558594-1.179688-.871094c-.378906-.308594-.75-.636719-1.101562-.988281-.339844-.351563-.679688-.71875-.988281-1.101563-.308594-.367187-.601563-.769531-.871094-1.179687s-.53125-.828125-.757813-1.257813c-.222656-.429687-.441406-.878906-.621093-1.332031-.191407-.449219-.359375-.917969-.5-1.378906-.140625-.46875-.261719-.949219-.359375-1.429688-.101563-.480468-.171875-.96875-.222656-1.449218-.046876-.492188-.070313-.992188-.070313-1.480469 0-.492188.023437-.980469.070313-1.46875.050781-.492188.121093-.980469.222656-1.460938.097656-.480469.21875-.960937.359375-1.421875.140625-.46875.308593-.929687.5-1.378906.179687-.460938.398437-.898438.621093-1.328125.226563-.433594.488282-.863281.757813-1.261719.269531-.410156.5625-.808594.871094-1.191406.308593-.378906.648437-.75.988281-1.089844.351562-.347656.722656-.679687 1.101562-.988281.378907-.3125.769532-.609375 1.179688-.878906.410156-.273438.828125-.523438 1.261719-.75.429687-.230469.878906-.441407 1.328125-.632813.449218-.179687.921875-.347656 1.378906-.488281.472656-.152344.953125-.269531 1.429688-.359375.480468-.101562.972656-.171875 1.453124-.222656.628907-.058594 1.257813-.089844 1.886719-.058594.363281 0 .710938.019531 1.0625.058594.488281.050781.980469.121094 1.460938.222656.476562.089844.957031.207031 1.417969.359375.46875.140625.929687.308594 1.390624.488281.449219.191406.890626.402344 1.320313.632813.429687.226562.859375.476562 1.257813.75.410156.269531.8125.566406 1.191406.878906.378906.308594.75.640625 1.089844.988281.351562.339844.679687.710938 1 1.089844.300781.382812.601562.78125.871093 1.191406.269531.398438.519531.828125.75 1.261719.230469.429687.4375.867187.628907 1.328125.191406.449219.351562.910156.5 1.378906.140624.460938.261718.941406.359374 1.421875.089844.480469.171876.96875.210938 1.460938.050781.488281.078125.976562.078125 1.46875zm0 0"/><path d="m163.789062 357.300781c-.097656-.480469-.21875-.960937-.359374-1.421875-.148438-.46875-.308594-.929687-.5-1.378906-.1875-.460938-.398438-.898438-.628907-1.328125-.230469-.433594-.480469-.863281-.75-1.261719-.269531-.410156-.570312-.808594-.871093-1.191406-.320313-.378906-.648438-.75-1-1.097656-.339844-.339844-.710938-.671875-1.089844-.992188-.378906-.300781-.78125-.597656-1.1875-.867187-.402344-.273438-.832032-.523438-1.261719-.75-.429687-.230469-.871094-.441407-1.320313-.632813-.460937-.179687-.917968-.347656-1.390624-.488281-.460938-.152344-.9375-.269531-1.417969-.359375-.480469-.101562-.972657-.171875-1.460938-.222656-.980469-.097656-1.972656-.097656-2.949219 0-.480468.050781-.972656.121094-1.449218.222656-.480469.089844-.960938.207031-1.433594.359375-.457031.140625-.929688.308594-1.378906.488281-.449219.191406-.898438.402344-1.328125.632813-.433594.226562-.851563.476562-1.261719.75-.410156.269531-.808594.566406-1.179688.867187-.378906.320313-.75.652344-1.101562.992188-.339844.347656-.679688.71875-.988281 1.097656-.3125.382812-.601563.78125-.871094 1.191406-.269531.398438-.53125.828125-.761719 1.261719-.21875.429687-.4375.867187-.617187 1.328125-.191407.449219-.359375.910156-.5 1.378906-.140625.460938-.261719.941406-.359375 1.421875-.101563.480469-.171875.96875-.222656 1.460938-.050782.488281-.070313.976562-.070313 1.46875 0 .488281.023437.988281.070313 1.480469.050781.480468.121093.96875.222656 1.449218.097656.480469.21875.960938.359375 1.429688.140625.460937.308593.929687.5 1.378906.179687.453125.398437.902344.617187 1.332031.230469.429688.492188.847657.761719 1.257813s.5625.8125.871094 1.179687c.308593.382813.648437.75.988281 1.101563.351562.351562.722656.679687 1.101562.988281.371094.3125.769532.601563 1.179688.871094s.828125.53125 1.261719.761719c.429687.230468.878906.4375 1.328125.617187.449218.191406.921875.363281 1.378906.5.472656.140625.953125.261719 1.433594.363281.476562.097656.96875.167969 1.449218.21875.488282.050782.988282.070313 1.476563.070313.492187 0 .980469-.019531 1.472656-.070313.488281-.050781.980469-.121094 1.460938-.21875.476562-.101562.957031-.222656 1.417969-.363281.472656-.136719.929687-.308594 1.390624-.5.449219-.179687.890626-.386719 1.320313-.617187.429687-.230469.859375-.492188 1.261719-.761719.40625-.269531.808594-.558594 1.1875-.871094.378906-.308594.75-.636719 1.089844-.988281.351562-.351563.679687-.71875 1-1.101563.300781-.367187.601562-.769531.871093-1.179687s.519531-.828125.75-1.257813c.230469-.429687.4375-.878906.628907-1.332031.191406-.449219.351562-.917969.5-1.378906.140624-.46875.261718-.949219.359374-1.429688.089844-.480468.171876-.96875.210938-1.449218.050781-.492188.078125-.992188.078125-1.480469 0-.492188-.027344-.980469-.078125-1.46875-.039062-.492188-.121094-.980469-.210938-1.460938zm0 0"/></g><path d="m211.789062 357.300781c-.097656-.472656-.21875-.949219-.359374-1.421875-.148438-.46875-.308594-.929687-.5-1.378906-.1875-.449219-.398438-.898438-.628907-1.328125-.230469-.433594-.480469-.863281-.75-1.261719-.269531-.410156-.570312-.808594-.871093-1.191406-.320313-.378906-.648438-.75-1-1.089844-.339844-.347656-.710938-.679687-1.089844-.988281-.378906-.3125-.78125-.609375-1.1875-.878906-.402344-.273438-.832032-.523438-1.261719-.75-.429687-.230469-.871094-.441407-1.332031-.632813-.449219-.179687-.90625-.347656-1.378906-.488281-.460938-.152344-.9375-.269531-1.417969-.359375-.480469-.101562-.972657-.171875-1.460938-.222656-.972656-.097656-1.972656-.097656-2.949219 0-.480468.050781-.972656.121094-1.449218.222656-.480469.089844-.960938.207031-1.433594.359375-.457031.140625-.929688.308594-1.378906.488281-.449219.191406-.898438.402344-1.328125.632813-.433594.226562-.851563.476562-1.261719.75-.410156.269531-.808594.566406-1.179688.878906-.378906.308594-.75.640625-1.101562.988281-.339844.339844-.679688.710938-.988281 1.089844-.3125.382812-.601563.78125-.871094 1.191406-.269531.398438-.53125.828125-.761719 1.261719-.21875.429687-.4375.878906-.617187 1.328125-.191407.449219-.359375.910156-.5 1.378906-.140625.472656-.261719.949219-.359375 1.421875-.101563.480469-.171875.96875-.222656 1.460938-.050782.488281-.070313.976562-.070313 1.46875 0 .488281.023437.988281.070313 1.480469.050781.480468.121093.96875.222656 1.449218.097656.480469.21875.960938.359375 1.429688.140625.460937.308593.929687.5 1.378906.179687.453125.398437.902344.617187 1.332031.230469.429688.492188.847657.761719 1.257813s.5625.8125.871094 1.179687c.308593.382813.648437.75.988281 1.101563.351562.351562.722656.679687 1.101562.988281.371094.3125.769532.601563 1.179688.871094s.828125.53125 1.261719.761719c.429687.230468.878906.4375 1.328125.617187.449218.191406.921875.363281 1.378906.5.472656.140625.953125.261719 1.433594.363281.476562.097656.96875.167969 1.449218.21875.488282.050782.988282.070313 1.476563.070313.492187 0 .980469-.019531 1.472656-.070313.488281-.050781.980469-.121094 1.460938-.21875.476562-.101562.957031-.222656 1.417969-.363281.472656-.136719.929687-.308594 1.378906-.5.460937-.179687.902344-.386719 1.332031-.617187.429687-.230469.859375-.492188 1.261719-.761719.40625-.269531.808594-.558594 1.1875-.871094.378906-.308594.75-.636719 1.089844-.988281.351562-.351563.679687-.71875 1-1.101563.300781-.367187.601562-.769531.871093-1.179687s.519531-.828125.75-1.257813c.230469-.429687.4375-.878906.628907-1.332031.191406-.449219.351562-.917969.5-1.378906.140624-.46875.261718-.949219.359374-1.429688.089844-.480468.171876-.96875.222657-1.449218.039062-.492188.066406-.992188.066406-1.480469 0-.492188-.027344-.980469-.066406-1.46875-.050781-.492188-.132813-.980469-.222657-1.460938zm0 0" fill="#ffe8cc"/><path d="m188.078125 320.230469c0 .488281-.027344.988281-.078125 1.480469-.039062.480468-.121094.96875-.210938 1.449218-.097656.480469-.21875.960938-.359374 1.429688-.148438.460937-.308594.929687-.5 1.378906-.191407.453125-.398438.902344-.628907 1.332031-.230469.429688-.480469.847657-.75 1.257813s-.570312.8125-.871093 1.179687c-.320313.382813-.648438.75-1 1.101563-.339844.351562-.710938.679687-1.089844.988281-.378906.3125-.78125.601563-1.191406.871094-.398438.269531-.828126.53125-1.257813.761719-.429687.230468-.871094.4375-1.320313.617187-.460937.191406-.921874.363281-1.390624.5-.460938.140625-.941407.261719-1.417969.363281-.480469.097656-.972657.167969-1.460938.21875-.351562.039063-.699219.058594-1.0625.058594-.128906.011719-.269531.011719-.410156.011719-.488281 0-.988281-.019531-1.476563-.070313-.480468-.050781-.972656-.121094-1.453124-.21875-.476563-.101562-.957032-.222656-1.429688-.363281-.457031-.136719-.929688-.308594-1.378906-.5-.449219-.179687-.898438-.386719-1.328125-.617187-.433594-.230469-.851563-.492188-1.261719-.761719s-.800781-.558594-1.179688-.871094c-.378906-.308594-.75-.636719-1.101562-.988281-.339844-.351563-.679688-.71875-.988281-1.101563-.308594-.367187-.601563-.769531-.871094-1.179687s-.53125-.828125-.757813-1.257813c-.222656-.429687-.441406-.878906-.621093-1.332031-.191407-.449219-.359375-.917969-.5-1.378906-.140625-.46875-.261719-.949219-.359375-1.429688-.101563-.480468-.171875-.96875-.222656-1.449218-.046876-.492188-.070313-.992188-.070313-1.480469 0-.492188.023437-.980469.070313-1.46875.050781-.492188.121093-.980469.222656-1.460938.097656-.480469.21875-.949219.359375-1.421875.140625-.46875.308593-.929687.5-1.378906.179687-.460938.398437-.898438.621093-1.328125.226563-.433594.488282-.863281.757813-1.261719.269531-.410156.5625-.808594.871094-1.191406.308593-.378906.648437-.75.988281-1.089844.351562-.347656.722656-.679687 1.101562-.988281.378907-.3125.769532-.609375 1.179688-.878906.410156-.273438.828125-.523438 1.261719-.75.429687-.230469.878906-.441407 1.328125-.632813.449218-.179687.921875-.347656 1.378906-.488281.472656-.152344.953125-.269531 1.429688-.359375.480468-.101562.972656-.171875 1.453124-.222656.628907-.058594 1.257813-.089844 1.886719-.058594.363281 0 .710938.019531 1.0625.058594.488281.050781.980469.121094 1.460938.222656.476562.089844.957031.207031 1.417969.359375.46875.140625.929687.308594 1.390624.488281.449219.191406.890626.402344 1.320313.632813.429687.226562.859375.476562 1.257813.75.410156.269531.8125.566406 1.191406.878906.378906.308594.75.640625 1.089844.988281.351562.339844.679687.710938 1 1.089844.300781.382812.601562.78125.871093 1.191406.269531.398438.519531.828125.75 1.261719.230469.429687.4375.867187.628907 1.328125.191406.449219.351562.910156.5 1.378906.140624.472656.261718.941406.359374 1.421875.089844.480469.171876.96875.210938 1.460938.050781.488281.078125.976562.078125 1.46875zm0 0" fill="#fff"/><path d="m346.480469 442.789062v52.519532c0 9.210937-7.492188 16.691406-16.699219 16.691406h-312.582031c-9.210938 0-16.699219-7.480469-16.699219-16.691406v-52.519532c0-9.199218 7.488281-16.6875 16.699219-16.6875h312.582031c9.207031 0 16.699219 7.488282 16.699219 16.6875zm0 0" fill="#ffb14a"/><path d="m346.480469 16.699219v52.519531c0 9.203125-7.492188 16.691406-16.699219 16.691406h-312.582031c-9.210938 0-16.699219-7.488281-16.699219-16.691406v-52.519531c0-9.210938 7.488281-16.699219 16.699219-16.699219h312.582031c9.207031 0 16.699219 7.488281 16.699219 16.699219zm0 0" fill="#ffb14a"/><path d="m188 318.761719c.050781.488281.078125.976562.078125 1.46875 0 .488281-.027344.988281-.078125 1.480469-.039062.480468-.121094.96875-.210938 1.449218-.097656.480469-.21875.960938-.359374 1.429688-.148438.460937-.308594.929687-.5 1.378906-.191407.453125-.398438.902344-.628907 1.332031-.230469.429688-.480469.847657-.75 1.257813s-.570312.8125-.871093 1.179687c-.320313.382813-.648438.75-1 1.101563-.339844.351562-.710938.679687-1.089844.988281-.378906.3125-.78125.601563-1.191406.871094-.398438.269531-.828126.53125-1.257813.761719-.429687.230468-.871094.4375-1.320313.617187-.460937.191406-.921874.363281-1.390624.5-.460938.140625-.941407.261719-1.417969.363281-.480469.097656-.972657.167969-1.460938.21875-.351562.039063-.699219.058594-1.0625.058594v-29.96875c.363281 0 .710938.019531 1.0625.058594.488281.050781.980469.121094 1.460938.222656.476562.089844.957031.207031 1.417969.359375.46875.140625.929687.308594 1.390624.488281.449219.191406.890626.402344 1.320313.632813.429687.226562.859375.476562 1.257813.75.410156.269531.8125.566406 1.191406.878906.378906.308594.75.640625 1.089844.988281.351562.339844.679687.710938 1 1.089844.300781.382812.601562.78125.871093 1.191406.269531.398438.519531.828125.75 1.261719.230469.429687.4375.867187.628907 1.328125.191406.449219.351562.910156.5 1.378906.140624.472656.261718.941406.359374 1.421875.089844.480469.171876.96875.210938 1.460938zm0 0" fill="#ffe8cc"/><path d="m174.550781 211.160156c-.351562.039063-.699219.058594-1.0625.058594v-29.96875c.363281 0 .710938.019531 1.0625.058594.488281.050781.980469.121094 1.460938.222656.476562.089844.957031.207031 1.417969.359375.46875.140625.929687.308594 1.390624.488281.449219.191406.890626.402344 1.320313.632813.429687.226562.859375.476562 1.257813.75.410156.269531.8125.566406 1.191406.878906.378906.308594.75.640625 1.089844.988281.351562.339844.679687.710938 1 1.089844.300781.382812.601562.78125.871093 1.191406.269531.398438.519531.828125.75 1.261719.230469.429687.4375.867187.628907 1.328125.191406.449219.351562.910156.5 1.378906.140624.460938.261718.941406.359374 1.421875.089844.480469.171876.96875.210938 1.460938.050781.488281.078125.976562.078125 1.46875 0 .488281-.027344.988281-.078125 1.480469-.039062.480468-.121094.96875-.210938 1.449218-.097656.480469-.21875.960938-.359374 1.429688-.148438.460937-.308594.929687-.5 1.378906-.191407.453125-.398438.902344-.628907 1.332031-.230469.429688-.480469.847657-.75 1.257813s-.570312.8125-.871093 1.179687c-.320313.382813-.648438.75-1 1.101563-.339844.351562-.710938.679687-1.089844.988281-.378906.3125-.78125.601563-1.191406.871094-.398438.269531-.828126.53125-1.257813.761719-.429687.230468-.871094.4375-1.320313.617187-.460937.191406-.921874.363281-1.390624.5-.460938.140625-.941407.261719-1.417969.363281-.480469.097656-.972657.167969-1.460938.21875zm0 0" fill="#ffe8cc"/><path d="m346.480469 16.699219v52.519531c0 9.203125-7.492188 16.691406-16.699219 16.691406h-156.292969v-85.910156h156.292969c9.207031 0 16.699219 7.488281 16.699219 16.699219zm0 0" fill="#ff8b00"/><path d="m346.480469 442.789062v52.519532c0 9.210937-7.492188 16.691406-16.699219 16.691406h-156.292969v-85.898438h156.292969c9.207031 0 16.699219 7.488282 16.699219 16.6875zm0 0" fill="#ff8b00"/></svg>