<?xml version="1.0" encoding="iso-8859-1"?>
<!-- Generator: Adobe Illustrator 19.0.0, SVG Export Plug-In . SVG Version: 6.00 Build 0)  -->
<svg version="1.1" id="Layer_1" xmlns="http://www.w3.org/2000/svg" xmlns:xlink="http://www.w3.org/1999/xlink" x="0px" y="0px"
	 viewBox="0 0 508.1 508.1" style="enable-background:new 0 0 508.1 508.1;" xml:space="preserve">
<path style="fill:#F2F2F2;" d="M0,73.6v413.2c0,11.7,9.5,21.3,21.3,21.3h452.8c18.7,0,33.9-15.2,33.9-33.9V73.6H0z"/>
<rect x="45.2" y="182" style="fill:#FFFFFF;" width="417.6" height="280.8"/>
<path style="fill:#40596B;" d="M486.7,0H33.9C15.2,0,0,15.2,0,33.9v39.7h508V21.3C508,9.5,498.5,0,486.7,0z"/>
<g>
	<path style="fill:#F1543F;" d="M101.6,235.6c0,27.9,22.6,50.6,50.6,50.6h0.5c27.9,0,50.6-22.6,50.6-50.6v-39.8H101.6V235.6z"/>
	<path style="fill:#F1543F;" d="M304.8,195.9v39.8c0,27.9,22.6,50.6,50.6,50.6h0.5c27.9,0,50.6-22.6,50.6-50.6v-39.8L304.8,195.9
		L304.8,195.9z"/>
</g>
<g>
	<path style="fill:#54C0EB;" d="M0,235.6c0,27.9,22.6,50.6,50.6,50.6H51c27.9,0,50.6-22.6,50.6-50.6v-39.8H0V235.6z"/>
	<path style="fill:#54C0EB;" d="M203.2,235.6c0,27.9,22.6,50.6,50.6,50.6h0.5c27.9,0,50.6-22.6,50.6-50.6v-39.8H203.2V235.6z"/>
	<path style="fill:#54C0EB;" d="M406.4,195.9v39.8c0,27.9,22.6,50.6,50.6,50.6h0.5c27.9,0,50.6-22.6,50.6-50.6v-39.8L406.4,195.9
		L406.4,195.9z"/>
</g>
<polygon style="fill:#84DBFF;" points="101.6,195.9 0,195.9 50.8,119 132.1,119 "/>
<polygon style="fill:#FF7058;" points="203.2,195.9 101.6,195.9 132.1,119 213.4,119 "/>
<polygon style="fill:#84DBFF;" points="304.8,195.9 203.2,195.9 213.4,119 294.6,119 "/>
<polygon style="fill:#FF7058;" points="406.4,195.9 304.8,195.9 294.6,119 375.9,119 "/>
<polygon style="fill:#84DBFF;" points="508,195.9 406.4,195.9 375.9,119 457.2,119 "/>
<rect x="69.5" y="319.9" style="fill:#FFD15C;" width="120.4" height="120.4"/>
<circle style="fill:#CDD6E0;" cx="61.6" cy="36.8" r="16.4"/>
<circle style="fill:#FF7058;" cx="117.6" cy="36.8" r="16.4"/>
<circle style="fill:#4CDBC4;" cx="173.5" cy="36.8" r="16.4"/>
<rect x="250.7" y="397.5" style="fill:#CDD6E0;" width="103.5" height="20.4"/>
<rect x="250.7" y="342.2" style="fill:#F2F2F2;" width="189.5" height="20.4"/>
<g>
</g>
<g>
</g>
<g>
</g>
<g>
</g>
<g>
</g>
<g>
</g>
<g>
</g>
<g>
</g>
<g>
</g>
<g>
</g>
<g>
</g>
<g>
</g>
<g>
</g>
<g>
</g>
<g>
</g>
</svg>
