<?xml version="1.0" encoding="iso-8859-1"?>
<!-- Generator: Adobe Illustrator 19.0.0, SVG Export Plug-In . SVG Version: 6.00 Build 0)  -->
<svg version="1.1" id="Capa_1" xmlns="http://www.w3.org/2000/svg" xmlns:xlink="http://www.w3.org/1999/xlink" x="0px" y="0px"
	 viewBox="0 0 512.001 512.001" style="enable-background:new 0 0 512.001 512.001;" xml:space="preserve">
<circle style="fill:#4CAF50;" cx="391.332" cy="394.667" r="117.333"/>
<path style="fill:#FAFAFA;" d="M369.998,448.001c-2.831,0.005-5.548-1.115-7.552-3.115l-42.667-42.667
	c-4.093-4.237-3.975-10.99,0.262-15.083c4.134-3.993,10.687-3.993,14.821,0l35.115,35.115l67.115-67.115
	c4.237-4.093,10.99-3.976,15.083,0.261c3.993,4.134,3.993,10.688,0,14.821l-74.667,74.667
	C375.514,446.875,372.814,447.994,369.998,448.001z"/>
<path style="fill:#455A64;" d="M431.417,82.305c-5.502-9.73-17.297-13.967-27.733-9.963l-52.885,21.333
	c-9.871-7.141-20.434-13.273-31.531-18.304l-7.979-56.171c-1.49-11.039-10.941-19.257-22.08-19.2h-93.867
	c-11.074-0.078-20.5,8.044-22.059,19.008l-8.064,56.277c-11.062,5.08-21.607,11.217-31.488,18.325L80.718,72.278
	c-10.301-4.054-22.012,0.129-27.413,9.792L6.372,163.179c-5.603,9.632-3.266,21.919,5.483,28.821l44.8,35.029
	c-1.389,12.149-1.389,24.416,0,36.565l-44.843,35.072c-8.63,6.94-10.936,19.122-5.44,28.736l46.805,81.067
	c5.51,9.721,17.308,13.942,27.733,9.92l52.885-21.333c9.881,7.131,20.451,13.256,31.552,18.283l8.043,56.107
	c1.49,11.039,10.941,19.257,22.08,19.2h73.301c5.891-0.001,10.665-4.778,10.664-10.669c-0.001-2.181-0.67-4.31-1.917-6.099
	c-16.274-23.214-24.99-50.882-24.96-79.232c0.02-13.386,1.968-26.699,5.781-39.531c0.978-3.318,0.286-6.905-1.856-9.621
	c-2.111-2.763-5.47-4.279-8.939-4.032c-1.195,0-2.325,0.213-5.205,0.555c-53.149,0.121-96.332-42.867-96.453-96.016
	c-0.121-53.149,42.867-96.332,96.016-96.453s96.332,42.867,96.453,96.016c0.001,0.656-0.004,1.312-0.016,1.968
	c-0.171,1.131-0.32,2.283-0.384,3.456c-0.316,5.883,4.197,10.907,10.08,11.223c1.221,0.066,2.444-0.079,3.616-0.428
	c20.86-6.378,42.961-7.564,64.384-3.456c3.037,0.324,6.074-0.609,8.405-2.581c2.429-2.03,3.961-4.935,4.267-8.085
	c0-0.341,0.128-2.133,0.128-2.368c-0.016-6.108-0.358-12.211-1.024-18.283l44.928-35.008c8.646-6.93,10.955-19.125,5.44-28.736
	L431.417,82.305z"/>
<g>
</g>
<g>
</g>
<g>
</g>
<g>
</g>
<g>
</g>
<g>
</g>
<g>
</g>
<g>
</g>
<g>
</g>
<g>
</g>
<g>
</g>
<g>
</g>
<g>
</g>
<g>
</g>
<g>
</g>
</svg>
