<svg height="512" viewBox="0 0 512 512" width="512" xmlns="http://www.w3.org/2000/svg"><g id="Flat"><path d="m280 240c0 101.62-57.31 152-128 152-42.99 0-81.03-18.63-104.24-56.09-14.96-24.13-23.76-56.09-23.76-95.91 0-101.62 57.31-216 128-216 48.39 0 90.51 53.6 112.27 120.01 10.03 30.61 15.73 63.93 15.73 95.99z" fill="#f2dec2"/><path d="m280 240c0 101.62-57.31 152-128 152-42.99 0-81.03-18.63-104.24-56.09 82.76-36.84 161.18-97.57 216.51-191.9 10.03 30.61 15.73 63.93 15.73 95.99z" fill="#eed8ba"/><g fill="#fae5c9"><path d="m97.785 106.245-13.564-8.486a170.164 170.164 0 0 1 10.269-14.7l12.592 9.872a154.151 154.151 0 0 0 -9.297 13.314z"/><path d="m64.987 208.726-15.933-1.452c3.069-33.692 12.731-67.625 27.207-95.546l14.2 7.364c-13.54 26.124-22.588 57.957-25.474 89.634z"/><path d="m488 336c0 101.62-57.31 152-128 152-57.99 0-106.97-33.9-122.7-102.17a221.748 221.748 0 0 1 -5.3-49.83c0-101.62 57.31-216 128-216 33.02 0 63.13 24.97 85.83 61.93 25.9 42.16 42.17 99.93 42.17 154.07z"/></g><path d="m488 336c0 101.62-57.31 152-128 152-57.99 0-106.97-33.9-122.7-102.17 78.58-39.96 153.43-104.73 208.53-203.9 25.9 42.16 42.17 99.93 42.17 154.07z" fill="#f2dec2"/><path d="m440 360a79.976 79.976 0 1 1 -39.6-69.06 80 80 0 0 1 39.6 69.06z" fill="#ffb531"/><path d="m440 360a80.006 80.006 0 0 1 -156.06 24.83c52.06-.83 108.06-40.83 116.46-93.89a79.969 79.969 0 0 1 39.6 69.06z" fill="#fcac1f"/></g></svg>