<svg id="Capa_1" enable-background="new 0 0 512 512" height="512" viewBox="0 0 512 512" width="512" xmlns="http://www.w3.org/2000/svg"><g><path d="m237.233 404.622 16.762-29.433 13.595-23.873 94.807-166.48c2.194-3.853 5.855-6.023 9.702-6.513-17.543-32.886-44.548-63.182-79.699-86.519-95.829-63.619-215.827-51.455-268.025 27.169s-16.827 193.935 79.001 257.554c42.487 28.207 89.724 41.504 133.698 40.729-2.047-3.85-2.139-8.598.159-12.634z" fill="#74d579"/><path d="m167.576 398.476c-110.602-73.427-151.425-206.516-91.18-297.261 12.397-18.673 28.113-34.09 46.212-46.173-40.456 8.403-75.677 29.956-98.233 63.932-52.198 78.624-16.828 193.936 79.001 257.554 28.412 18.863 58.948 31.048 89.212 36.826-8.461-4.486-16.815-9.436-25.012-14.878z" fill="#4bcd5c"/><path d="m253.995 375.189 13.595-23.873 82.782-145.364c-20.213-28.007-48.141-54.982-82.228-77.611-83.117-55.181-175.836-66.621-225.093-32.005-6.905 6.802-13.172 14.345-18.676 22.637s-10.024 16.995-13.613 25.999c-12.78 58.831 33.753 139.838 116.87 195.019 39.285 26.081 80.714 42.385 118.686 48.678z" fill="#00c53b"/><path d="m76.396 101.215c5.619-8.464 11.921-16.259 18.815-23.38-20.148 2.38-37.962 8.523-52.16 18.501-6.905 6.802-13.172 14.345-18.676 22.637-5.505 8.292-10.024 16.995-13.613 25.999-9.715 44.717 14.846 102.244 63.686 151.506-33.866-64.992-35.782-138.431 1.948-195.263z" fill="#00b327"/><path d="m267.59 351.316 61.23-107.52c-23.163-24.686-53.399-50.164-88.536-73.491-86.574-57.476-173.632-82.463-208.002-62.105-2.782 3.441-5.422 7.03-7.907 10.772s-4.768 7.569-6.858 11.469c-5.421 39.577 51.4 110.109 137.975 167.585 38.278 25.412 76.646 44.467 110.517 56.066z" fill="#74d579"/><path d="m76.032 101.781c-18.37-1.711-33.435.309-43.751 6.419-2.782 3.441-5.422 7.03-7.906 10.772-2.485 3.742-4.768 7.569-6.858 11.469-2.586 18.882 9.003 44.811 31.223 73.005-1.44-36.059 7.261-71.223 27.292-101.665z" fill="#4bcd5c"/><path d="m308.409 279.639c-26.278-21.023-58.906-44.773-95.054-68.771-87.558-58.129-165.785-97.819-186.477-95.54-.851 1.199-1.685 2.414-2.502 3.645-.818 1.231-1.613 2.472-2.388 3.721 5.932 19.954 72.876 76.641 160.434 134.769 37.293 24.758 72.888 46.167 103.071 62.418z" fill="#00c53b"/><path d="m63.144 125.394c-16.976-7.179-29.605-10.8-36.266-10.067-.851 1.199-1.685 2.414-2.503 3.645s-1.614 2.472-2.388 3.721c2.229 7.496 13.069 20.177 30.377 36.171 2.41-11.478 5.99-22.68 10.78-33.47z" fill="#00b327"/><g><path d="m24.368 126.697c-1.477 0-2.97-.423-4.289-1.306-13.171-8.816-19.926-19.029-20.077-30.353-.244-18.386 17.784-31.372 18.551-31.915 3.481-2.465 8.301-1.643 10.767 1.837 2.462 3.475 1.646 8.286-1.82 10.755-3.407 2.453-12.195 10.663-12.051 19.164.1 5.923 4.549 11.87 13.223 17.676 3.545 2.372 4.495 7.17 2.122 10.714-1.49 2.225-3.935 3.428-6.426 3.428z" fill="#00c53b"/></g><path d="m372.694 408.401c45.366 0 87.611-10.93 123.072-29.735l-111.596-195.96c-5.065-8.895-17.888-8.895-22.953 0l-111.595 195.96c35.461 18.805 77.705 29.735 123.072 29.735z" fill="#ff656f"/><path d="m398.398 207.691-14.228-24.985c-5.065-8.895-17.888-8.895-22.953 0l-111.595 195.96c12.993 6.89 26.899 12.718 41.533 17.344z" fill="#ff4756"/><path d="m372.694 408.401c45.366 0 87.611-10.929 123.072-29.735l-16.077-28.23c-31.329 15.272-67.909 24.052-106.995 24.052-39.087 0-75.667-8.78-106.995-24.052l-16.076 28.23c35.46 18.805 77.704 29.735 123.071 29.735z" fill="#ff4756"/><path d="m308.152 366.163c-14.952-3.966-29.178-9.257-42.453-15.728l-16.076 28.23c12.993 6.89 26.899 12.718 41.533 17.344z" fill="#fc2d39"/><path d="m493.386 374.487c-34.137 19.734-75.759 31.335-120.693 31.335s-86.556-11.601-120.692-31.335l-16.887 29.654c-3.432 6.027-1.592 13.643 4.152 17.531 36.265 24.546 82.744 39.297 133.428 39.297s97.163-14.751 133.428-39.297c5.744-3.888 7.585-11.503 4.152-17.531z" fill="#74d579"/><path d="m292.911 392.925c-14.526-4.907-28.235-11.111-40.91-18.438l-16.887 29.654c-3.432 6.027-1.592 13.643 4.152 17.531 8.801 5.957 18.208 11.332 28.127 16.064z" fill="#4bcd5c"/><g><path d="m327.173 336.315c-4.265 0-7.723-3.458-7.723-7.723v-10.089c0-4.265 3.458-7.723 7.723-7.723s7.723 3.458 7.723 7.723v10.089c0 4.265-3.458 7.723-7.723 7.723z" fill="#7b6c79"/></g><g><path d="m372.694 343.003c-4.265 0-7.723-3.458-7.723-7.723v-10.089c0-4.265 3.458-7.723 7.723-7.723s7.723 3.458 7.723 7.723v10.089c0 4.265-3.458 7.723-7.723 7.723z" fill="#7b6c79"/></g><g><path d="m372.694 245.273c-4.265 0-7.723-3.458-7.723-7.723v-10.089c0-4.265 3.458-7.723 7.723-7.723s7.723 3.458 7.723 7.723v10.089c0 4.265-3.458 7.723-7.723 7.723z" fill="#7b6c79"/></g><g><path d="m418.215 336.315c-4.265 0-7.723-3.458-7.723-7.723v-10.089c0-4.265 3.458-7.723 7.723-7.723s7.723 3.458 7.723 7.723v10.089c0 4.265-3.458 7.723-7.723 7.723z" fill="#7b6c79"/></g><g><path d="m349.933 289.493c-4.265 0-7.723-3.458-7.723-7.723v-10.089c0-4.265 3.458-7.723 7.723-7.723s7.723 3.458 7.723 7.723v10.089c.001 4.265-3.457 7.723-7.723 7.723z" fill="#7b6c79"/></g><g><path d="m395.454 289.493c-4.265 0-7.723-3.458-7.723-7.723v-10.089c0-4.265 3.458-7.723 7.723-7.723s7.723 3.458 7.723 7.723v10.089c0 4.265-3.457 7.723-7.723 7.723z" fill="#7b6c79"/></g></g></svg>