<svg clip-rule="evenodd" fill-rule="evenodd" height="512" stroke-linejoin="round" stroke-miterlimit="2" viewBox="0 0 32 32" width="512" xmlns="http://www.w3.org/2000/svg"><path d="m15.559 18.493s.395 2.355-.159 4.603c-.349 1.418-1.078 2.805-2.6 3.443-.255.106-.375.4-.268.654.107.255.4.375.654.268 1.84-.77 2.763-2.413 3.185-4.125.603-2.446.174-5.008.174-5.008-.045-.272-.303-.456-.575-.41-.273.045-.457.303-.411.575z" fill="#46a479"/><path d="m18.8 16.19c-.368-.214-.81-.643-1.24-1.15-.931-1.098-1.835-2.556-1.835-2.556-.106-.171-.099-.388.017-.552 0 0 .073-.107.2-.284.033-.046.075-.087.122-.119.769-.532 2.465-1.731 2.902-2.538.003-.005.005-.009.008-.013.115-.199.214-.398.295-.595.051-.121.146-.218.267-.269 1.576-.669 3.046-.45 3.809.48.775.944.858 2.691-.378 3.788 1.183 1.155 1.017 2.896.198 3.803-.897.992-2.643 1.057-4.365.005z" fill="#68dba2"/><path d="m15.936 5.4c1.126-1.21 2.87-1.086 3.796-.288 1.014.873 1.12 2.617.109 4.363-.204.373-.623.825-1.12 1.268-1.075.956-2.512 1.894-2.512 1.894-.168.11-.385.109-.551-.003 0 0-.096-.062-.255-.171-.053-.035-.098-.08-.133-.133-.513-.757-1.722-2.506-2.538-2.956-.005-.003-.009-.005-.013-.008-.259-.153-.519-.277-.773-.372-.132-.049-.237-.152-.289-.282-.596-1.48-.387-2.851.482-3.6.926-.798 2.67-.922 3.797.288z" fill="#52b98a"/><path d="m9.118 12.376c-1.201-1.136-1.064-2.879-.258-3.799.881-1.006 2.626-1.099 4.363-.074.372.207.821.629 1.259 1.13.948 1.083 1.875 2.527 1.875 2.527.108.168.105.386-.008.551 0 0-.063.095-.173.254-.036.052-.081.096-.134.131-.761.507-2.52 1.703-2.976 2.515-.003.004-.005.009-.008.013-.155.258-.282.516-.379.77-.05.131-.153.236-.284.287-1.484.584-2.853.364-3.595-.511-.791-.932-.901-2.678.318-3.794z" fill="#68dba2"/><path d="m12.199 15.113c.21-.37.636-.816 1.14-1.25 1.09-.939 2.541-1.855 2.541-1.855.17-.107.387-.102.552.012 0 0 .094.064.252.175.051.037.096.082.13.135.501.766 1.683 2.533 2.491 2.997.005.002.009.005.013.007.257.157.514.286.767.385.131.051.235.155.285.286.572 1.489.341 2.857-.54 3.592-.938.783-2.684.88-3.791-.348-1.145 1.192-2.887 1.04-3.801.228-.999-.889-1.078-2.635-.039-4.364z" fill="#52b98a"/></svg>