<?xml version="1.0" encoding="iso-8859-1"?>
<!-- Generator: Adobe Illustrator 19.0.0, SVG Export Plug-In . SVG Version: 6.00 Build 0)  -->
<svg version="1.1" id="Capa_1" xmlns="http://www.w3.org/2000/svg" xmlns:xlink="http://www.w3.org/1999/xlink" x="0px" y="0px"
	 viewBox="0 0 512 512" style="enable-background:new 0 0 512 512;" xml:space="preserve">
<path style="fill:#FFB123;" d="M358.026,209.594l-55.62-55.62c0,0-104.319,67.239-178.298,163.466
	C87.596,364.932,41.732,428.099,4.639,479.901c-14.363,20.059,7.4,41.823,27.46,27.46c51.802-37.092,114.969-82.957,162.461-119.468
	C290.787,313.913,358.026,209.594,358.026,209.594z"/>
<path style="fill:#FED9A8;" d="M466.247,148.038C497.322,112.74,509.327,26.94,511.969,4.75c0.326-2.734-1.985-5.045-4.719-4.719
	c-22.19,2.643-107.989,14.647-143.288,45.722c-28.708,25.274-30.982,79.689-30.982,79.689l53.578,53.578
	C386.558,179.02,440.974,176.746,466.247,148.038z"/>
<path style="fill:#F4C892;" d="M466.247,148.038C497.322,112.74,509.327,26.94,511.969,4.75c0.186-1.562-0.505-2.967-1.627-3.84
	c-11.366,28.151-50.694,82.639-77.797,113.425c-18.18,20.65-55.307,31.493-74.718,35.953l28.731,28.731
	C386.558,179.02,440.974,176.746,466.247,148.038z"/>
<path style="fill:#FF4C4C;" d="M482.216,122.687c19.4-40.784,27.622-100.042,29.753-117.937c0.326-2.734-1.985-5.045-4.719-4.719
	c-16.638,1.981-69.034,9.226-109.092,25.825c9.881,9.881-6.407,29.681,9.69,39.924c16.096,10.243,28.388-13.755,35.12,11.121
	c6.731,24.876-4.39,38.339,18.438,43.607C468.381,122.118,475.578,122.679,482.216,122.687z"/>
<path style="fill:#F33939;" d="M511.958,3.687c-0.033-0.253-0.095-0.496-0.171-0.734c-0.032-0.098-0.067-0.195-0.106-0.29
	c-0.066-0.163-0.145-0.317-0.23-0.469c-0.096-0.168-0.201-0.33-0.318-0.484c-0.03-0.04-0.062-0.077-0.093-0.116
	c-0.206-0.251-0.437-0.482-0.694-0.682c-0.001-0.001-0.002-0.001-0.002-0.002c-9.629,23.848-39.324,66.593-64.654,97.822
	c0.379,11.37,0.778,18.329,15.718,21.777c6.975,1.61,14.173,2.171,20.811,2.179c13.927-29.279,22.093-68.078,26.381-94.26
	c0.011-0.066,0.022-0.132,0.032-0.198c0.358-2.192,0.689-4.294,0.994-6.295c0.011-0.07,0.022-0.141,0.032-0.21
	c0.148-0.973,0.289-1.921,0.425-2.843c0.013-0.086,0.025-0.17,0.037-0.255c0.267-1.823,0.51-3.541,0.73-5.146
	c0.018-0.129,0.036-0.259,0.053-0.387c0.103-0.758,0.202-1.493,0.295-2.197c0.012-0.088,0.022-0.172,0.034-0.26
	c0.085-0.643,0.165-1.261,0.241-1.855c0.013-0.103,0.027-0.211,0.04-0.312c0.079-0.624,0.154-1.218,0.224-1.784
	c0.014-0.112,0.027-0.22,0.041-0.33c0.069-0.562,0.135-1.105,0.194-1.605c0.036-0.306,0.029-0.604,0.003-0.896
	C511.967,3.798,511.965,3.742,511.958,3.687z"/>
<path style="fill:#FFB123;" d="M351.421,208.342l-47.763-47.763c-9.6-9.6-9.6-25.166,0-34.766l0,0c9.6-9.6,25.166-9.6,34.766,0
	l47.763,47.763c9.6,9.6,9.6,25.166,0,34.766l0,0C376.587,217.942,361.022,217.942,351.421,208.342z"/>
<g>
	<path style="fill:#FF901D;" d="M377.185,199.339l-64.523-64.523c-3.64-3.64-4.603-8.932-2.914-13.459
		c-2.192,1.134-4.25,2.618-6.089,4.456c-9.6,9.6-9.6,25.166,0,34.766l47.763,47.763c9.6,9.6,25.166,9.6,34.766,0
		c1.838-1.838,3.322-3.897,4.456-6.089C386.116,203.942,380.824,202.979,377.185,199.339z"/>
	<path style="fill:#FF901D;" d="M330.216,181.784L5.461,506.539c6.153,6.153,16.609,8.003,26.638,0.821
		c51.802-37.092,114.969-82.957,162.461-119.468c96.227-73.979,163.466-178.298,163.466-178.298L330.216,181.784z"/>
</g>
<g>
</g>
<g>
</g>
<g>
</g>
<g>
</g>
<g>
</g>
<g>
</g>
<g>
</g>
<g>
</g>
<g>
</g>
<g>
</g>
<g>
</g>
<g>
</g>
<g>
</g>
<g>
</g>
<g>
</g>
</svg>
