<svg height="512" viewBox="0 0 48 58" width="512" xmlns="http://www.w3.org/2000/svg"><g id="Page-1" fill="none" fill-rule="evenodd"><g id="014---Book" fill-rule="nonzero"><path id="Shape" d="m45 47v8h-38.929c-1.895 0-3.391-2.24-3.012-4.8.11619653-1.692331 1.44540947-3.0491034 3.135-3.2z" fill="#f5efca"/><path id="Shape" d="m4.06 50.4c-.18019364.8827649.04589782 1.799775.6157913 2.4976038.56989348.6978287 1.4232406 1.1025801 2.3242087 1.1023962h38.89c1.0040088-.0238741 1.8805886.675704 2.08 1.66.1002551.5811514-.0610858 1.176925-.4408962 1.6280703-.3798104.4511454-.9393683.7116678-1.5291038.7119297h-39c-1.85651543 0-3.63699282-.7374979-4.94974747-2.0502525-1.31275465-1.3127547-2.05025253-3.0932321-2.05025253-4.9497475v-44c0-3.86599325 3.13400675-7 7-7h39c1.1032019.0032948 1.9967052.89679813 2 2v44c-.0032948 1.1032019-.8967981 1.9967052-2 2h-38.88c-1.46034062-.0276627-2.73890092.9751297-3.06 2.4z" fill="#e64c3c"/><path id="Shape" d="m7 45c-.55228475 0-1-.4477153-1-1v-40c0-.55228475.44771525-1 1-1s1 .44771525 1 1v40c0 .5522847-.44771525 1-1 1z" fill="#fff"/><rect id="Rectangle-path" fill="#f3d55b" height="16" rx="2" width="29" x="13" y="8"/></g></g></svg>