<?xml version="1.0" encoding="utf-8"?>
<!-- Generator: Adobe Illustrator 21.1.0, SVG Export Plug-In . SVG Version: 6.00 Build 0)  -->
<svg xmlns="http://www.w3.org/2000/svg" xmlns:xlink="http://www.w3.org/1999/xlink" version="1.1" id="Layer_1" x="0px" y="0px" width="512" height="512" viewBox="0 0 200 200" enable-background="new 0 0 200 200" xml:space="preserve">
<g>
	<g>
		<g>
			<g>
				<polygon fill="#0684BA" points="70.038,33.434 0,33.434 0,166.566 94.12,166.566 94.12,57.522     "/>
				<polygon fill="#026AA2" points="70.038,57.522 94.12,81.616 94.12,57.522 82.067,45.48     "/>
				<polygon fill="#E1EFFA" points="94.12,57.522 70.038,57.522 70.038,33.434     "/>
			</g>
			<g>
				<polygon fill="#E1EFFA" points="175.907,33.434 105.867,33.434 105.867,166.566 200,166.566 200,57.522     "/>
				<polygon fill="#BCD4E8" points="175.907,57.522 200,81.616 200,57.522 187.943,45.48     "/>
				<polygon fill="#0684BA" points="200,57.522 175.907,57.522 175.907,33.434     "/>
			</g>
		</g>
		<polygon fill="#34495E" points="85.88,111.541 128.478,111.541 128.478,97.183 85.88,97.183 85.88,90 71.513,104.357     85.88,118.724   "/>
		<polygon fill="#34495E" points="114.113,139.14 71.513,139.14 71.513,124.777 114.113,124.777 114.113,117.596 128.478,131.956     114.113,146.318   "/>
	</g>
</g>
</svg>
