<svg id="Capa_1" enable-background="new 0 0 497 497" height="512" viewBox="0 0 497 497" width="512" xmlns="http://www.w3.org/2000/svg"><g><path d="m497 250.673v49.568c0 23.69-19.205 42.895-42.895 42.895h-107.371v-29.815h105.383c8.322 0 15.068-6.746 15.068-15.068v-45.593c0-8.322-6.746-15.068-15.068-15.068h-52.289l-8.828-15.842 8.828-13.973h54.277c23.69 0 42.895 19.205 42.895 42.896z" fill="#e5646e"/><path d="m497 250.67v49.57c0 23.69-19.2 42.9-42.9 42.9h-14.5c23.7 0 42.9-19.21 42.9-42.9v-49.57c0-23.69-19.2-42.89-42.9-42.89h14.5c23.7 0 42.9 19.2 42.9 42.89z" fill="#db4655"/><path d="m282.179 426.289-40.99 12.961-40.99-12.961c-64.973 0-117.644-52.671-117.644-117.644v-113.229c0-4.874 3.951-8.825 8.825-8.825h299.618c4.874 0 8.825 3.951 8.825 8.825v113.229c.001 64.973-52.67 117.644-117.644 117.644z" fill="#e5646e"/><path d="m399.82 195.415v113.225c0 64.976-52.674 117.65-117.65 117.65l-11.843 3.747-13.147-3.747c64.97 0 117.64-52.67 117.64-117.65v-111.218c0-4.997-3.281-9.402-8.07-10.832h24.245c4.874 0 8.825 3.951 8.825 8.825z" fill="#db4655"/><path d="m482.379 440.928c0 4.728-2.972 9.165-7.979 11.913-23.764 13.042-52.237 20.052-81.44 20.052h-303.541c-29.203 0-57.676-7.011-81.44-20.052-5.007-2.748-7.979-7.185-7.979-11.913 0-8.085 8.53-14.639 19.052-14.639h444.276c10.522 0 19.051 6.554 19.051 14.639z" fill="#e5646e"/><path d="m482.38 440.93c0 4.73-2.97 9.16-7.98 11.91-11.88 6.52-24.94 11.53-38.68 14.91-13.74 3.39-28.16 5.14-42.76 5.14h-25c14.6 0 29.02-1.75 42.76-5.14 13.74-3.38 26.8-8.39 38.68-14.91 5.01-2.75 7.98-7.18 7.98-11.91 0-8.09-8.53-14.64-19.05-14.64h25c10.52 0 19.05 6.55 19.05 14.64z" fill="#db4655"/><g><g><path d="m179.612 140.498c-2.199 0-4.382-.959-5.869-2.799-.854-1.055-20.665-26.227-.59-59.509 14.675-24.331.782-41.635.64-41.807-2.638-3.194-2.188-7.921 1.006-10.559 3.191-2.637 7.919-2.188 10.559 1.005.856 1.037 20.745 25.776.64 59.108-14.508 24.053-1.13 41.64-.554 42.377 2.604 3.221 2.087 7.92-1.135 10.525-1.382 1.117-3.044 1.659-4.697 1.659z" fill="#d8ecfe"/></g><g><path d="m241.227 140.498c-2.199 0-4.382-.959-5.869-2.799-.854-1.055-20.665-26.227-.59-59.509 14.675-24.331.782-41.635.64-41.807-2.638-3.194-2.188-7.921 1.006-10.559 3.191-2.637 7.92-2.188 10.559 1.005.856 1.037 20.745 25.776.64 59.108-14.508 24.053-1.13 41.64-.554 42.377 2.604 3.221 2.087 7.92-1.135 10.525-1.383 1.117-3.045 1.659-4.697 1.659z" fill="#d8ecfe"/></g><g><path d="m302.842 140.498c-2.199 0-4.382-.959-5.869-2.799-.854-1.055-20.665-26.227-.59-59.509 14.675-24.331.782-41.635.64-41.807-2.638-3.194-2.188-7.921 1.006-10.559 3.191-2.637 7.92-2.188 10.559 1.005.856 1.037 20.745 25.776.64 59.108-14.508 24.053-1.13 41.64-.554 42.377 2.604 3.221 2.087 7.92-1.135 10.525-1.383 1.117-3.045 1.659-4.697 1.659z" fill="#d8ecfe"/></g></g></g></svg>