<?xml version="1.0" encoding="iso-8859-1"?>
<!-- Generator: Adobe Illustrator 19.0.0, SVG Export Plug-In . SVG Version: 6.00 Build 0)  -->
<svg version="1.1" id="Capa_1" xmlns="http://www.w3.org/2000/svg" xmlns:xlink="http://www.w3.org/1999/xlink" x="0px" y="0px"
	 viewBox="0 0 468.293 468.293" style="enable-background:new 0 0 468.293 468.293;" xml:space="preserve">
<path style="fill:#E56354;" d="M199.828,268.465c52.472,52.472,81.848,71.446,99.324,76.011c8.754,2.287,18.041-0.286,24.438-6.684
	l17.984-17.984c5.706-5.706,13.785-8.352,21.775-7.227c72.422,10.195,96.19,53.965,103.65,76.009
	c2.523,7.454,1.288,15.667-3.111,22.191l-7.16,10.621c-5.079,7.534-11.439,14.139-18.904,19.318
	c-11.932,8.278-32.002,19.766-58.393,26.051c-12.512,2.98-25.66,1.553-37.247-4.03c-29.781-14.353-100.175-49.132-193.838-142.795
	S19.904,155.889,5.551,126.108c-5.584-11.586-7.01-24.735-4.03-37.247C7.806,62.471,19.294,42.4,27.572,30.469
	c5.179-7.466,11.784-13.825,19.318-18.904l10.621-7.16c6.525-4.399,14.738-5.633,22.192-3.111
	c22.044,7.46,65.814,31.228,76.009,103.65c1.125,7.99-1.522,16.069-7.227,21.775L130.5,144.703
	c-6.398,6.398-8.971,15.684-6.684,24.438C128.382,186.617,147.356,215.993,199.828,268.465z"/>
<path style="fill:#4EBD9E;" d="M308.873,119.748v2.792c24.146,9.13,40.069,32.145,40.069,57.952v46.256H237.188v-46.256
	c0-25.806,15.998-48.821,40.069-57.952v-2.792c-0.831-0.302-1.584-0.604-2.34-0.981c-14.865-6.339-26.486-18.035-32.598-32.447
	c-3.32-7.546-5.131-15.922-5.131-24.524V15.465h111.753v46.331c0,8.602-1.811,16.978-5.132,24.524
	c-6.111,14.412-17.656,26.108-32.596,32.447C310.457,119.144,309.702,119.446,308.873,119.748z"/>
<g>
	<path style="fill:#30968B;" d="M349.841,15.503H236.306c-3.377,0-6.114-2.737-6.114-6.114v-2.55c0-3.377,2.737-6.114,6.114-6.114
		h113.535c3.377,0,6.114,2.737,6.114,6.114v2.55C355.955,12.765,353.218,15.503,349.841,15.503z"/>
	<path style="fill:#30968B;" d="M349.841,241.562H236.306c-3.377,0-6.114-2.737-6.114-6.114v-2.55c0-3.377,2.737-6.114,6.114-6.114
		h113.535c3.377,0,6.114,2.737,6.114,6.114v2.55C355.955,238.824,353.218,241.562,349.841,241.562z"/>
</g>
<g>
	<polygon style="fill:#3CA59A;" points="237.188,207.975 298.065,180.806 348.567,226.785 237.581,226.785 	"/>
	<path style="fill:#3CA59A;" d="M343.809,86.32c-6.111,14.412-17.656,26.108-32.596,32.447h-36.296
		c-14.865-6.339-26.486-18.035-32.598-32.447H343.809z"/>
	<rect x="285.534" y="115.25" style="fill:#3CA59A;" width="15.092" height="84.261"/>
</g>
<g>
</g>
<g>
</g>
<g>
</g>
<g>
</g>
<g>
</g>
<g>
</g>
<g>
</g>
<g>
</g>
<g>
</g>
<g>
</g>
<g>
</g>
<g>
</g>
<g>
</g>
<g>
</g>
<g>
</g>
</svg>
