<svg height="512" viewBox="0 0 54 58" width="512" xmlns="http://www.w3.org/2000/svg"><g id="Page-1" fill="none" fill-rule="evenodd"><g id="014---Bok-Choi" fill-rule="nonzero" transform="translate(0 -1)"><path id="Shape" d="m42.05 32.45v-.02c.95-4.15 3.62-6.43 5.8-6.04 2.7413157.4539509 5.3371236-1.3836314 5.82-4.12.2815678-1.5295618-.170008-3.1026742-1.22-4.25 1.5369583-1.4330705 2.0072469-3.6775432 1.1748592-5.6070672-.8323876-1.9295239-2.7877652-3.12757559-4.8848592-2.9929328.1534246-.3530535.2674471-.72194979.34-1.1.3906768-2.12185044-.6282639-4.25415277-2.5245956-5.28313468s-4.239425-.72097654-5.8054044.76313468c-.6177057-1.26552658-1.7429035-2.20990622-3.0963755-2.59879113s-2.8083567-.18582474-4.0036245.55879113c-2.207054-1.38430063-5.1084084-.83020738-6.65 1.27-1.5415916-2.10020738-4.442946-2.65430063-6.65-1.27-1.1952678-.74461587-2.6501525-.94767604-4.0036245-.55879113s-2.4786698 1.33326455-3.0963755 2.59879113c-1.5659794-1.48411122-3.90907271-1.79211659-5.80540441-.76313468-1.89633171 1.02898191-2.91527242 3.16128424-2.52459559 5.28313468.07255292.37805021.1865754.7469465.34 1.1-2.08722858-.11202035-4.0232457 1.0881921-4.85120509 3.0074511-.82795939 1.9192589-.37252768 4.1511313 1.14120509 5.5925489-1.04999205 1.1473258-1.50156785 2.7204382-1.22 4.25.48287644 2.7363686 3.07868433 4.5739509 5.82 4.12 2.17-.39 4.85 1.89 5.79 6.03v.01z" fill="#4c8056"/><path id="Shape" d="m37 44.17c0 6.94-2.95 12.76-7.43 14.38-1.6608074.5999813-3.4791926.5999813-5.14 0-4.48-1.62-7.43-7.44-7.43-14.38 0-4.53 1.66-9.22 3.63-13.18 1.7722395-3.5412738 3.9069938-6.8891851 6.37-9.99 2.3937307 3.0163111 4.4775802 6.2660442 6.22 9.7v.01c2.04 4.02 3.78 8.82 3.78 13.46z" fill="#f5efca"/><path id="Shape" d="m43 19c.0001843 2.4515907-1.7795269 4.5406326-4.2 4.93-.2638603.0485255-.5317219.0719634-.8.07-2.89 0-4.73 2.62-4.78 6.7-1.7424198-3.4339558-3.8262693-6.6836889-6.22-9.7-2.4630062 3.1008149-4.5977605 6.4487262-6.37 9.99-.19-4.26-2.42-6.99-4.63-6.99-.2688316.0036189-.5372084-.0232188-.8-.08-2.4320093-.4265121-4.2045319-2.5408784-4.2-5.01-.0019478-1.5566765.7229722-3.0250092 1.96-3.97-1.1052404-1.5203826-1.2644113-3.5321753-.4120073-5.2074445.852404-1.67526924 2.5723486-2.73093776 4.4520073-2.7325555.3839869.00468066.7662908.05163027 1.14.14-.0883697-.37370925-.1353193-.75601315-.14-1.14-.0066523-2.15685989 1.374564-4.07335922 3.4227897-4.74927369 2.0482257-.67591448 4.2988266.04208517 5.5772103 1.77927369 1.280338-1.73316775 3.5288768-2.44823536 5.5751306-1.77297159 2.0462539.67526377 3.4275581 2.58817956 3.4248694 4.74297159-.0046807.38398685-.0516303.76629075-.14 1.14.3737092-.08836973.7560131-.13531934 1.14-.14 1.3260824 0 2.597852.5267842 3.5355339 1.46446609.9376819.9376819 1.4644661 2.20945151 1.4644661 3.53553391.0055673 1.0843718-.3497552 2.139785-1.01 3 1.2675588.9381782 2.0136912 2.4230187 2.01 4z" fill="#4fba6f"/><path id="Shape" d="m24.43 58.55c-.4004837.1428175-.8118114.2531737-1.23.33-5.8 1.05-11.02-4.76-12.48-12.82-.81-4.46-.01-9.37 1.22-13.63v-.01c.8678837-2.9124687 1.957743-5.7541262 3.26-8.5.2627916.0567812.5311684.0836189.8.08 2.21 0 4.44 2.73 4.63 6.99-1.97 3.96-3.63 8.65-3.63 13.18 0 6.94 2.95 12.76 7.43 14.38z" fill="#f9eab0"/><path id="Shape" d="m11.94 32.42v.01c.01.01.01.01.01.02" fill="#24ae5f"/><path id="Shape" d="m43.28 46.06c-1.46 8.06-6.68 13.87-12.48 12.82-.4181886-.0768263-.8295163-.1871825-1.23-.33 4.48-1.62 7.43-7.44 7.43-14.38 0-4.64-1.74-9.44-3.78-13.46v-.01c.05-4.08 1.89-6.7 4.78-6.7.2682781.0019634.5361397-.0214745.8-.07 1.3026779 2.7445271 2.3893065 5.5864789 3.25 8.5v.02c1.24 4.25 2.04 9.15 1.23 13.61z" fill="#f9eab0"/><g fill="#fff"><path id="Shape" d="m27 56c-.1273562-.0001189-.2535525-.0242047-.372-.071-4.648-1.86-6.024-6.735-6.4-8.745-.0773675-.3558561.0448325-.7256376.3190055-.9653216.274173-.2396841.6569678-.3113729.9992933-.187145.3423255.1242278.5900544.42473.6467012.7844666.316 1.685 1.452 5.765 5.179 7.255.4459179.1776349.702724.6470461.6118332 1.118359-.0908908.4713128-.5038373.811565-.9838332.810641z"/><circle id="Oval" cx="21" cy="43" r="1"/></g></g></g></svg>