<svg height="512" viewBox="0 0 48 48" width="512" xmlns="http://www.w3.org/2000/svg"><g id="Calendar"><path d="m47 18v26a1.7 1.7 0 0 1 -.07.51 2 2 0 0 1 -1.42 1.42 1.7 1.7 0 0 1 -.51.07h-42a1.7 1.7 0 0 1 -.51-.07 2 2 0 0 1 -1.42-1.42 1.7 1.7 0 0 1 -.07-.51v-26a2 2 0 0 1 .14-.74 2 2 0 0 1 1.63-1.26.86.86 0 0 1 .23 0h42a.86.86 0 0 1 .23 0 2 2 0 0 1 1.63 1.24 2 2 0 0 1 .14.76z" fill="#fc6"/><path d="m47 18v26h-15a28 28 0 0 1 -28-28h7.05a11 11 0 0 0 21.95 0h12a.86.86 0 0 1 .23 0 2 2 0 0 1 1.63 1.24 2 2 0 0 1 .14.76z" fill="#ffde76"/><path d="m46.93 44.51a2 2 0 0 1 -1.42 1.42l-15-15-2.1 1.72a7 7 0 0 1 -8.86 0l-2.08-1.65-15 15a2 2 0 0 1 -1.42-1.42l14.86-14.91-14.77-12.41a2 2 0 0 1 1.63-1.26l18.06 15.1a5 5 0 0 0 6.34 0l18.06-15.1a2 2 0 0 1 1.63 1.24l-14.77 12.43z" fill="#fc6"/><path d="m35 13a10.91 10.91 0 0 1 -2.29 6.72 11.53 11.53 0 0 1 -1.2 1.28 11 11 0 1 1 -14.22-16.71 10.23 10.23 0 0 1 2.2-1.29 11 11 0 0 1 15.51 10z" fill="#9dcc6b"/><path d="m35 13a10.91 10.91 0 0 1 -2.29 6.72 11 11 0 0 1 -15.42-15.43 10.23 10.23 0 0 1 2.2-1.29 11 11 0 0 1 15.51 10z" fill="#b5e08c"/></g><g id="Email"><path d="m29.61 7.3a7.9 7.9 0 0 0 -5.61-2.3h-.13a8 8 0 0 0 -2.76 15.46.92.92 0 0 0 .36.07 1 1 0 0 0 .93-.64 1 1 0 0 0 -.57-1.29 6 6 0 0 1 -3.83-5.6 6.11 6.11 0 0 1 5.91-6 5.85 5.85 0 0 1 4.3 1.72 6 6 0 0 1 1.65 5.56.94.94 0 0 1 -1.86-.22v-4.06a1 1 0 0 0 -1-1 1 1 0 0 0 -.92.6 4 4 0 0 0 -2.08-.6 4 4 0 1 0 2.7 6.94 2.93 2.93 0 0 0 5.12-1.23 8.14 8.14 0 0 0 .18-1.71 7.93 7.93 0 0 0 -2.39-5.7zm-5.61 7.7a2 2 0 1 1 2-2 2 2 0 0 1 -2 2z" fill="#edebf2"/></g></svg>