<svg id="Layer_1" enable-background="new 0 0 65 65" height="512" viewBox="0 0 65 65" width="512" xmlns="http://www.w3.org/2000/svg"><g><path d="m41.6.5h-37.4v64h49.6v-51.8z" fill="#eff3f5"/><path d="m41.6 12.7h12.2l-12.2-12.2z" fill="#dbdfe0"/><g fill="#dbdfe0"><path d="m11.4 10h25v2.8h-25z"/><path d="m11.4 18.5h35.2v2.8h-35.2z"/><path d="m11.4 27.1h35.2v2.8h-35.2z"/><path d="m11.4 35.6h35.2v2.8h-35.2z"/><path d="m11.4 44.2h35.2v2.8h-35.2z"/></g><path d="m27.9 42h32.9v18.6h-32.9z" fill="#d45947"/><g fill="#fbd984"><path d="m55.2 50.3h-2.7v-2.8h2.7c.5 0 .9-.4.9-.9s-.4-.9-.9-.9h-3.7c-.5 0-.9.4-.9.9v9.3c0 .5.4.9.9.9s.9-.4.9-.9v-3.7h2.7c.5 0 .9-.4.9-.9.1-.6-.3-1-.8-1z"/><path d="m35.4 45.7h-1.9c-.5 0-.9.4-.9.9v9.3c0 .5.4.9.9.9s.9-.4.9-.9v-3.7h1c1.8 0 3.3-1.5 3.3-3.3-.1-1.8-1.5-3.2-3.3-3.2zm0 4.6h-1v-2.8h1c.8 0 1.4.6 1.4 1.4s-.6 1.4-1.4 1.4z"/><path d="m43.4 45.7h-2.4c-.5 0-.9.4-.9.9v9.3c0 .5.4.9.9.9h2.4c3.1 0 5.6-2.5 5.6-5.6 0-3-2.5-5.5-5.6-5.5zm0 9.3h-1.5v-7.4h1.5c2.1 0 3.7 1.7 3.7 3.7s-1.6 3.7-3.7 3.7z"/></g></g></svg>