<svg id="color" enable-background="new 0 0 24 24" height="512" viewBox="0 0 24 24" width="512" xmlns="http://www.w3.org/2000/svg"><path d="m15.354 1.792c-.708-1.1-1.982-1.792-3.354-1.792-1.738 0-3.26 1.107-3.764 2.656-1.275.253-2.236 1.343-2.236 2.644 0 1.489 1.258 2.7 2.805 2.7h5.935c1.797 0 3.26-1.406 3.26-3.133 0-1.522-1.132-2.801-2.646-3.075z" fill="#03a9f4"/><g fill="#4caf50"><circle cx="4" cy="17" r="2"/><path d="m5.25 20h-2.5c-1.517 0-2.75 1.233-2.75 2.75v.5c0 .414.336.75.75.75h6.5c.414 0 .75-.336.75-.75v-.5c0-1.517-1.233-2.75-2.75-2.75z"/><circle cx="20" cy="17" r="2"/><path d="m21.25 20h-2.5c-1.517 0-2.75 1.233-2.75 2.75v.5c0 .414.336.75.75.75h6.5c.414 0 .75-.336.75-.75v-.5c0-1.517-1.233-2.75-2.75-2.75z"/></g><path d="m20 14c-.414 0-.75-.336-.75-.75v-.25h-14.5v.25c0 .414-.336.75-.75.75s-.75-.336-.75-.75v-1c0-.414.336-.75.75-.75h16c.414 0 .75.336.75.75v1c0 .414-.336.75-.75.75z" fill="#607d8b"/><path d="m12 13c-.414 0-.75-.336-.75-.75v-1.5c0-.414.336-.75.75-.75s.75.336.75.75v1.5c0 .414-.336.75-.75.75z" fill="#607d8b"/></svg>