<svg id="Layer_1" height="512" viewBox="0 0 128 128" width="512" xmlns="http://www.w3.org/2000/svg" data-name="Layer 1"><path d="m30.317 6.5h82.337v97.308h-82.337z" fill="#c7cfd4"/><path d="m15.346 24.192h82.337v97.308h-82.337z" fill="#e1ebf0"/><g fill="#694b4b"><path d="m85.265 38.6h-21.265a1.75 1.75 0 0 1 0-3.5h21.265a1.75 1.75 0 0 1 0 3.5z"/><path d="m85.265 56.6h-57.5a1.75 1.75 0 1 1 0-3.5h57.5a1.75 1.75 0 0 1 0 3.5z"/><path d="m85.265 65.6h-57.5a1.75 1.75 0 1 1 0-3.5h57.5a1.75 1.75 0 0 1 0 3.5z"/><path d="m85.265 74.6h-57.5a1.75 1.75 0 0 1 0-3.5h57.5a1.75 1.75 0 0 1 0 3.5z"/><path d="m85.265 83.6h-57.5a1.75 1.75 0 0 1 0-3.5h57.5a1.75 1.75 0 0 1 0 3.5z"/><path d="m85.265 92.6h-57.5a1.75 1.75 0 0 1 0-3.5h57.5a1.75 1.75 0 0 1 0 3.5z"/><path d="m85.265 101.6h-57.5a1.75 1.75 0 0 1 0-3.5h57.5a1.75 1.75 0 0 1 0 3.5z"/><path d="m74.5 110.6h-35.97a1.75 1.75 0 0 1 0-3.5h35.97a1.75 1.75 0 0 1 0 3.5z"/></g></svg>