<svg height="512.00002pt" viewBox="0 0 512.00002 512.00002" width="512.00002pt" xmlns="http://www.w3.org/2000/svg"><path d="m336.332031 0h-224.933593c-3.976563 0-7.792969 1.582031-10.605469 4.394531l-96.398438 96.398438c-2.8125 2.8125-4.394531 6.628906-4.394531 10.605469v353.46875c0 25.988281 21.144531 47.132812 47.132812 47.132812h289.199219c25.914063 0 47.132813-20.953125 47.132813-47.132812v-417.734376c.003906-25.914062-20.949219-47.132812-47.132813-47.132812zm0 0" fill="#eff6fe"/><g fill="#d9e4ef"><path d="m336.332031 0h-144.601562v512h144.601562c25.914063 0 47.132813-20.953125 47.132813-47.132812v-417.734376c.003906-25.914062-20.949219-47.132812-47.132813-47.132812zm0 0"/><path d="m95.332031 112.46875c9.449219 0 17.132813-7.6875 17.132813-17.132812v-95.335938h-1.066406c-3.976563 0-7.792969 1.582031-10.605469 4.394531l-96.398438 96.398438c-2.8125 2.8125-4.394531 6.628906-4.394531 10.605469v1.070312zm0 0"/><path d="m288.132812 192.800781h-192.800781c-8.28125 0-15 6.714844-15 15 0 8.285157 6.71875 15 15 15h192.800781c8.285157 0 15-6.714843 15-15 0-8.285156-6.714843-15-15-15zm0 0"/><path d="m288.132812 257.066406h-192.800781c-8.28125 0-15 6.714844-15 15s6.71875 15 15 15h192.800781c8.285157 0 15-6.714844 15-15s-6.714843-15-15-15zm0 0"/><path d="m288.132812 321.332031h-192.800781c-8.28125 0-15 6.71875-15 15 0 8.285157 6.71875 15 15 15h192.800781c8.285157 0 15-6.714843 15-15 0-8.28125-6.714843-15-15-15zm0 0"/><path d="m176.734375 385.601562h-81.402344c-8.28125 0-15 6.714844-15 15 0 8.28125 6.71875 15 15 15h81.402344c8.28125 0 15-6.71875 15-15 0-8.285156-6.714844-15-15-15zm0 0"/></g><path d="m303.128906 207.800781c0 8.277344-6.707031 15-15 15h-96.398437v-30h96.398437c8.292969 0 15 6.71875 15 15zm0 0" fill="#c1cedb"/><path d="m303.128906 272.070312c0 8.28125-6.707031 15-15 15h-96.398437v-30h96.398437c8.292969 0 15 6.710938 15 15zm0 0" fill="#c1cedb"/><path d="m303.128906 336.328125c0 8.292969-6.707031 15-15 15h-96.398437v-30h96.398437c8.292969 0 15 6.722656 15 15zm0 0" fill="#c1cedb"/><path d="m512 368.46875c0 79.269531-64.261719 143.53125-143.53125 143.53125-79.273438 0-143.535156-64.261719-143.535156-143.53125 0-79.273438 64.261718-143.535156 143.535156-143.535156 79.269531 0 143.53125 64.261718 143.53125 143.535156zm0 0" fill="#3ab4fb"/><path d="m512 368.46875c0-79.273438-64.261719-143.535156-143.53125-143.535156v287.066406c79.269531 0 143.53125-64.261719 143.53125-143.53125zm0 0" fill="#1d9cfd"/><path d="m442.609375 333.078125c-20.53125-17.964844-46.863281-27.859375-74.144531-27.859375-27.277344 0-53.609375 9.894531-74.144532 27.859375-6.234374 5.453125-6.867187 14.929687-1.410156 21.164063 5.453125 6.238281 14.933594 6.867187 21.164063 1.414062 31.011719-27.128906 77.773437-27.128906 108.78125 0 2.84375 2.488281 6.363281 3.710938 9.871093 3.710938 4.175782 0 8.328126-1.734376 11.292969-5.125 5.457031-6.234376 4.828125-15.710938-1.410156-21.164063zm0 0" fill="#eff6fe"/><path d="m368.46875 356.222656c-15.855469 0-31.371094 6.402344-42.605469 17.570313-5.714843 5.558593-6.085937 14.683593-.734375 20.703125 5.503906 6.191406 14.984375 6.746094 21.179688 1.242187.21875-.195312.433594-.398437.640625-.605469 5.664062-5.664062 13.503906-8.910156 21.519531-8.910156 8.011719 0 15.855469 3.25 21.527344 8.917969 2.925781 2.925781 6.761718 4.390625 10.601562 4.390625 3.835938 0 7.675782-1.464844 10.605469-4.394531 5.859375-5.859375 5.855469-15.359375-.003906-21.21875-11.414063-11.410157-26.589844-17.695313-42.730469-17.695313zm0 0" fill="#eff6fe"/><path d="m383.464844 424.699219c0 8.285156-6.714844 14.996093-14.996094 14.996093-8.285156 0-15-6.710937-15-14.996093 0-8.28125 6.714844-14.996094 15-14.996094 8.28125 0 14.996094 6.714844 14.996094 14.996094zm0 0" fill="#eff6fe"/><path d="m411.199219 373.921875c5.859375 5.859375 5.859375 15.359375 0 21.21875-2.929688 2.929687-6.769531 4.390625-10.609375 4.390625-3.828125 0-7.667969-1.460938-10.601563-4.390625-5.667969-5.671875-13.507812-8.921875-21.519531-8.921875h-.007812v-30h.007812c16.140625 0 31.320312 6.292969 42.730469 17.703125zm0 0" fill="#d9e4ef"/><path d="m444.019531 354.238281c-2.960937 3.390625-7.121093 5.132813-11.289062 5.132813-3.511719 0-7.03125-1.222656-9.871094-3.710938-15.507813-13.570312-34.960937-20.351562-54.398437-20.351562v-30.089844h.007812c27.28125 0 53.609375 9.890625 74.140625 27.859375 6.242187 5.453125 6.871094 14.933594 1.410156 21.160156zm0 0" fill="#d9e4ef"/><path d="m383.460938 424.699219c0 8.28125-6.710938 15-14.992188 15h-.007812v-30h.007812c8.28125 0 14.992188 6.722656 14.992188 15zm0 0" fill="#d9e4ef"/></svg>