<svg id="Layer_1" enable-background="new 0 0 491.326 491.326" height="512" viewBox="0 0 491.326 491.326" width="512" xmlns="http://www.w3.org/2000/svg"><g><g fill="#d8f1fb"><path d="m109.404 332.122c-2.842-7.782-11.458-11.786-19.235-8.944-7.782 2.842-11.786 11.454-8.944 19.236l10.697 29.29c2.222 6.084 7.97 9.858 14.091 9.858 1.709 0 3.447-.294 5.145-.914 7.782-2.842 11.786-11.454 8.944-19.236z"/><path d="m169.404 332.122c-2.842-7.782-11.459-11.786-19.235-8.944-7.782 2.842-11.786 11.454-8.944 19.236l10.697 29.29c2.222 6.084 7.97 9.858 14.091 9.858 1.709 0 3.447-.294 5.145-.914 7.782-2.842 11.786-11.454 8.944-19.236z"/><path d="m229.404 332.122c-2.842-7.782-11.459-11.786-19.235-8.944-7.782 2.842-11.786 11.454-8.944 19.236l10.697 29.29c2.222 6.084 7.97 9.858 14.091 9.858 1.709 0 3.447-.294 5.145-.914 7.782-2.842 11.786-11.454 8.944-19.236z"/></g><path d="m289.404 332.122c-2.842-7.782-11.46-11.786-19.235-8.944-7.782 2.842-11.786 11.454-8.944 19.236l10.697 29.29c2.222 6.084 7.97 9.858 14.091 9.858 1.709 0 3.447-.294 5.145-.914 7.782-2.842 11.786-11.454 8.944-19.236z" fill="#bceaf9"/><path d="m349.404 332.122c-2.842-7.782-11.459-11.786-19.235-8.944-7.782 2.842-11.786 11.454-8.944 19.236l10.697 29.29c2.222 6.084 7.97 9.858 14.091 9.858 1.709 0 3.447-.294 5.145-.914 7.782-2.842 11.786-11.454 8.944-19.236z" fill="#bceaf9"/><path d="m420.102 361.412-10.697-29.29c-2.842-7.782-11.459-11.786-19.235-8.944-7.782 2.842-11.786 11.454-8.944 19.236l10.697 29.29c2.222 6.084 7.97 9.858 14.091 9.858 1.709 0 3.447-.294 5.145-.914 7.78-2.842 11.784-11.454 8.943-19.236z" fill="#bceaf9"/><path d="m159.404 412.122c-2.842-7.782-11.459-11.786-19.235-8.944-7.782 2.842-11.786 11.454-8.944 19.236l10.697 29.29c2.222 6.084 7.97 9.858 14.091 9.858 1.709 0 3.447-.294 5.145-.914 7.782-2.842 11.786-11.454 8.944-19.236z" fill="#d8f1fb"/><path d="m219.404 412.122c-2.842-7.782-11.459-11.786-19.235-8.944-7.782 2.842-11.786 11.454-8.944 19.236l10.697 29.29c2.222 6.084 7.97 9.858 14.091 9.858 1.709 0 3.447-.294 5.145-.914 7.782-2.842 11.786-11.454 8.944-19.236z" fill="#d8f1fb"/><path d="m279.404 412.122c-2.842-7.782-11.458-11.786-19.235-8.944-7.782 2.842-11.786 11.454-8.944 19.236l10.697 29.29c2.222 6.084 7.97 9.858 14.091 9.858 1.709 0 3.447-.294 5.145-.914 7.782-2.842 11.786-11.454 8.944-19.236z" fill="#bceaf9"/><path d="m339.404 412.122c-2.842-7.782-11.459-11.786-19.235-8.944-7.782 2.842-11.786 11.454-8.944 19.236l10.697 29.29c2.222 6.084 7.97 9.858 14.091 9.858 1.709 0 3.447-.294 5.145-.914 7.782-2.842 11.786-11.454 8.944-19.236z" fill="#bceaf9"/><path d="m399.404 412.122c-2.842-7.782-11.459-11.786-19.235-8.944-7.782 2.842-11.786 11.454-8.944 19.236l10.697 29.29c2.222 6.084 7.97 9.858 14.091 9.858 1.709 0 3.447-.294 5.145-.914 7.782-2.842 11.786-11.454 8.944-19.236z" fill="#bceaf9"/><path d="m424.562 159.822h-37.149c-1.906-36.107-29.936-65.469-65.652-69.8-6.808-34.301-37.366-60.257-73.923-60.257h-4.35c-36.557 0-67.115 25.956-73.923 60.257-35.717 4.331-63.746 33.693-65.652 69.8h-37.149c-36.814 0-66.764 29.707-66.764 66.222s29.95 66.223 66.764 66.223h357.799c36.813 0 66.764-29.708 66.764-66.223s-29.951-66.222-66.765-66.222z" fill="#e7f9fb"/><path d="m424.562 159.822h-37.149c-1.906-36.107-29.936-65.469-65.652-69.8-6.808-34.301-37.366-60.257-73.923-60.257h-2.175v262.503h178.899c36.813 0 66.764-29.708 66.764-66.223s-29.95-66.223-66.764-66.223z" fill="#d8f1fb"/></g></svg>