<svg xmlns="http://www.w3.org/2000/svg" height="512pt" version="1.1" viewBox="0 -22 512 512" width="512pt">
<g id="surface1">
<path d="M 256 300.136719 L 0 300.136719 L 0 335.449219 C 0 345.199219 7.90625 353.101562 17.65625 353.101562 L 256 353.101562 Z M 256 300.136719 " style=" stroke:none;fill-rule:nonzero;fill:rgb(67.45098%,67.058824%,69.411765%);fill-opacity:1;" />
<path d="M 256 353.101562 L 494.34375 353.101562 C 504.09375 353.101562 512 345.199219 512 335.449219 L 512 300.136719 L 256 300.136719 Z M 256 353.101562 " style=" stroke:none;fill-rule:nonzero;fill:rgb(74.117647%,73.72549%,75.686275%);fill-opacity:1;" />
<path d="M 256 0 L 17.65625 0 C 7.90625 0 0 7.90625 0 17.65625 L 0 35.308594 L 256 35.308594 Z M 256 0 " style=" stroke:none;fill-rule:nonzero;fill:rgb(67.45098%,67.058824%,69.411765%);fill-opacity:1;" />
<path d="M 494.34375 0 L 256 0 L 256 35.3125 L 512 35.3125 L 512 17.65625 C 512 7.90625 504.09375 0 494.34375 0 Z M 494.34375 0 " style=" stroke:none;fill-rule:nonzero;fill:rgb(74.117647%,73.72549%,75.686275%);fill-opacity:1;" />
<path d="M 203.035156 353.101562 L 179.464844 459.035156 L 256 459.035156 L 256 353.101562 Z M 203.035156 353.101562 " style=" stroke:none;fill-rule:nonzero;fill:rgb(50.588235%,50.196078%,52.156863%);fill-opacity:1;" />
<path d="M 256 459.035156 L 332.535156 459.035156 L 308.964844 353.101562 L 256 353.101562 Z M 256 459.035156 " style=" stroke:none;fill-rule:nonzero;fill:rgb(60.392157%,60%,61.568627%);fill-opacity:1;" />
<path d="M 0 35.308594 L 0 300.136719 L 256 300.136719 L 256 35.308594 Z M 0 35.308594 " style=" stroke:none;fill-rule:nonzero;fill:rgb(69.803922%,84.313725%,95.686275%);fill-opacity:1;" />
<path d="M 256 35.308594 L 256 300.136719 L 512 300.136719 L 512 35.308594 Z M 256 35.308594 " style=" stroke:none;fill-rule:nonzero;fill:rgb(75.686275%,87.45098%,96.470588%);fill-opacity:1;" />
<path d="M 120.9375 209.300781 C 118.339844 203.816406 113.90625 199.414062 108.402344 196.855469 C 104.902344 195.078125 101.027344 194.171875 97.101562 194.207031 C 82.476562 194.207031 70.621094 206.0625 70.621094 220.6875 C 70.621094 235.316406 82.476562 247.171875 97.101562 247.171875 C 111.730469 247.171875 123.585938 235.316406 123.585938 220.6875 C 123.578125 216.742188 122.671875 212.847656 120.9375 209.300781 Z M 97.101562 229.515625 C 92.226562 229.515625 88.277344 225.566406 88.277344 220.6875 C 88.277344 215.8125 92.226562 211.863281 97.101562 211.863281 C 101.980469 211.863281 105.929688 215.8125 105.929688 220.6875 C 105.929688 225.566406 101.976562 229.515625 97.101562 229.515625 Z M 97.101562 229.515625 " style=" stroke:none;fill-rule:nonzero;fill:rgb(94.509804%,94.901961%,94.901961%);fill-opacity:1;" />
<path d="M 194.207031 88.277344 C 179.597656 88.320312 167.769531 100.148438 167.722656 114.757812 C 167.730469 127.542969 176.867188 138.5 189.441406 140.800781 C 191.011719 141.082031 192.609375 141.230469 194.207031 141.242188 C 195.691406 141.273438 197.171875 141.125 198.621094 140.800781 C 204.605469 139.816406 210.0625 136.789062 214.070312 132.238281 C 223.722656 121.25 222.640625 104.515625 211.652344 94.863281 C 206.828125 90.625 200.628906 88.285156 194.207031 88.277344 Z M 194.207031 123.585938 C 190.929688 123.582031 187.929688 121.742188 186.4375 118.820312 C 185.726562 117.585938 185.363281 116.183594 185.378906 114.757812 C 185.378906 109.882812 189.332031 105.929688 194.207031 105.929688 C 199.082031 105.929688 203.035156 109.882812 203.035156 114.757812 C 203.050781 116.210938 202.6875 117.640625 201.976562 118.90625 C 200.460938 121.792969 197.464844 123.59375 194.207031 123.585938 Z M 194.207031 123.585938 " style=" stroke:none;fill-rule:nonzero;fill:rgb(94.509804%,94.901961%,94.901961%);fill-opacity:1;" />
<path d="M 314.792969 217.335938 C 312.027344 212.066406 307.585938 207.875 302.167969 205.417969 C 298.761719 203.851562 295.058594 203.039062 291.3125 203.035156 C 287.625 203.019531 283.984375 203.800781 280.628906 205.328125 C 270.96875 209.472656 264.738281 219.007812 264.828125 229.515625 C 264.828125 244.144531 276.683594 256 291.3125 256 C 305.9375 256 317.792969 244.144531 317.792969 229.515625 C 317.804688 225.273438 316.773438 221.089844 314.792969 217.335938 Z M 294.753906 237.636719 C 294.367188 237.835938 293.949219 237.957031 293.519531 237.992188 C 292.085938 238.464844 290.539062 238.464844 289.105469 237.992188 C 288.671875 237.957031 288.253906 237.835938 287.867188 237.636719 C 286.839844 237.167969 285.886719 236.542969 285.042969 235.785156 C 283.402344 234.109375 282.484375 231.859375 282.484375 229.515625 C 282.484375 224.640625 286.4375 220.6875 291.3125 220.6875 C 296.1875 220.6875 300.140625 224.640625 300.140625 229.515625 C 300.140625 231.859375 299.21875 234.109375 297.582031 235.785156 C 296.734375 236.542969 295.785156 237.167969 294.753906 237.636719 Z M 294.753906 237.636719 " style=" stroke:none;fill-rule:nonzero;fill:rgb(94.509804%,94.901961%,94.901961%);fill-opacity:1;" />
<path d="M 414.898438 70.621094 C 400.289062 70.664062 388.457031 82.496094 388.414062 97.101562 C 388.445312 101.371094 389.472656 105.574219 391.414062 109.375 C 394.261719 114.726562 398.832031 118.960938 404.390625 121.378906 C 407.703125 122.835938 411.28125 123.589844 414.898438 123.585938 C 429.523438 123.585938 441.378906 111.730469 441.378906 97.105469 C 441.378906 82.476562 429.523438 70.621094 414.898438 70.621094 Z M 423.371094 99.308594 C 423.335938 99.742188 423.214844 100.160156 423.019531 100.546875 C 422.589844 101.601562 421.960938 102.558594 421.164062 103.371094 C 419.492188 105.011719 417.238281 105.929688 414.898438 105.929688 C 410.023438 105.929688 406.070312 101.976562 406.070312 97.101562 C 406.070312 94.757812 406.988281 92.507812 408.628906 90.835938 C 409.441406 90.039062 410.398438 89.410156 411.453125 88.980469 C 411.839844 88.78125 412.257812 88.664062 412.6875 88.628906 C 414.125 88.1875 415.664062 88.1875 417.101562 88.628906 C 417.53125 88.664062 417.953125 88.78125 418.339844 88.980469 C 420.476562 89.828125 422.171875 91.519531 423.015625 93.660156 C 423.214844 94.042969 423.335938 94.464844 423.371094 94.894531 C 423.8125 96.335938 423.8125 97.871094 423.371094 99.308594 Z M 423.371094 99.308594 " style=" stroke:none;fill-rule:nonzero;fill:rgb(94.509804%,94.901961%,94.901961%);fill-opacity:1;" />
<path d="M 421.164062 103.371094 L 404.390625 121.378906 L 314.792969 217.335938 L 297.578125 235.785156 C 299.21875 234.109375 300.136719 231.859375 300.136719 229.515625 C 300.136719 224.640625 296.183594 220.6875 291.308594 220.6875 C 286.433594 220.6875 282.480469 224.640625 282.480469 229.515625 C 282.480469 231.859375 283.402344 234.109375 285.042969 235.785156 L 267.917969 216.980469 L 198.621094 140.800781 L 194.207031 136.03125 L 189.441406 140.800781 L 120.9375 209.300781 L 112.199219 218.128906 C 110.527344 219.777344 108.277344 220.695312 105.929688 220.6875 C 105.929688 215.8125 101.980469 211.863281 97.101562 211.863281 C 97.097656 209.515625 98.015625 207.265625 99.664062 205.59375 L 186.4375 118.820312 C 188.636719 123.121094 193.90625 124.828125 198.207031 122.632812 C 199.820312 121.808594 201.136719 120.507812 201.976562 118.90625 L 214.070312 132.238281 L 280.628906 205.332031 L 291.3125 217.070312 L 302.167969 205.417969 L 391.414062 109.375 L 408.628906 90.835938 C 406.988281 92.507812 406.070312 94.761719 406.070312 97.101562 C 406.070312 101.976562 410.023438 105.929688 414.898438 105.929688 C 417.242188 105.929688 419.492188 105.011719 421.164062 103.371094 Z M 421.164062 103.371094 " style=" stroke:none;fill-rule:nonzero;fill:rgb(94.509804%,94.901961%,94.901961%);fill-opacity:1;" />
<path d="M 114.757812 450.207031 C 109.882812 450.207031 105.929688 454.160156 105.929688 459.035156 C 105.929688 463.910156 109.882812 467.863281 114.757812 467.863281 L 256 467.863281 L 256 450.207031 Z M 114.757812 450.207031 " style=" stroke:none;fill-rule:nonzero;fill:rgb(50.588235%,50.196078%,52.156863%);fill-opacity:1;" />
<path d="M 397.242188 450.207031 L 256 450.207031 L 256 467.863281 L 397.242188 467.863281 C 402.117188 467.863281 406.070312 463.910156 406.070312 459.035156 C 406.070312 454.160156 402.117188 450.207031 397.242188 450.207031 Z M 397.242188 450.207031 " style=" stroke:none;fill-rule:nonzero;fill:rgb(60.392157%,60%,61.568627%);fill-opacity:1;" />
</g>
</svg>