<svg id="Capa_1" enable-background="new 0 0 512 512" height="512" viewBox="0 0 512 512" width="512" xmlns="http://www.w3.org/2000/svg"><g><path d="m46.608 288.151 1.75-28.097c.099-1.593.637-3.057 1.498-4.282l-11.941-.128c-10.386-.111-18.971 7.404-19.955 17.468-.975 9.974 5.827 19.321 15.874 21.815l16.116 4c-2.321-3.043-3.587-6.831-3.342-10.776z" fill="#ffd301"/><g><path d="m19.95 283.82c3.67-4.62 9.438-7.51 15.906-7.441l11.479.123 1.025-16.446c.099-1.593.637-3.057 1.498-4.282l-11.941-.128c-10.386-.111-18.971 7.404-19.955 17.468h.001c-.37 3.77.376 7.45 1.987 10.706z" fill="#ffc20c"/></g><g><path d="m394.357 142.603c-111.181 83.019-266.64 103.909-338.436 109.163-4.308.315-7.726 3.691-8.052 7.937l-2.137 27.819c-.571 7.439 4.199 14.264 11.449 16.407 49.958 14.772 94.772 22.209 134.937 23.997 71.578-40.839 154.158-102.143 202.239-185.323z" fill="#fee55a"/></g><g><path d="m302.455 250.78c35.446-30.75 67.953-66.747 91.902-108.178-111.18 83.019-266.641 103.91-338.436 109.164-4.308.315-7.726 3.691-8.052 7.936l-1.304 16.975c106.431 13.503 190.588-.505 255.89-25.897z" fill="#ffd301"/></g><path d="m94.56 414.092-7.294-27.204c-.414-1.542-.373-3.099.048-4.529l-11.281 3.598c-9.812 3.13-15.502 12.934-13.226 22.789h.001c2.256 9.767 11.634 16.517 21.885 15.754l16.444-1.225c-3.156-2.165-5.554-5.364-6.577-9.183z" fill="#ffd301"/><g><path d="m82.343 405.789 9.204-2.936-4.28-15.965c-.414-1.542-.373-3.099.048-4.529l-11.281 3.598c-9.812 3.13-15.503 12.934-13.226 22.789h.001c.978 4.235 3.299 7.899 6.445 10.633 1.643-6.229 6.406-11.458 13.089-13.59z" fill="#ffc20c"/></g><path d="m415.258 93.782c.051-1.57.317-3.081.734-4.527-.414.783-.794 1.59-1.1 2.447-56.863 159.469-243.67 251.969-323.152 284.964-3.954 1.641-6.097 5.909-5.054 10.038l6.837 27.059c1.828 7.236 8.488 12.224 15.992 11.999 58.692-1.76 108.142-10.42 149.816-23.868 69.376-72.079 151.887-183.398 155.927-308.112z" fill="#fee55a"/><path d="m368.893 254.64c26.088-49.127 44.509-103.577 46.365-160.858.051-1.57.317-3.081.734-4.527-.414.783-.794 1.59-1.1 2.447-56.863 159.468-243.67 251.969-323.152 284.964-3.953 1.641-6.097 5.908-5.054 10.038l4.172 16.511c138.312-26.946 224.542-87.485 278.035-148.575z" fill="#ffd301"/><path d="m459.376 8.331c-1.06-6.173-7.473-9.857-13.345-7.72l-28.482 10.362c-5.609 2.04-8.251 8.508-5.623 13.878 6.481 13.241 12.792 30.648 15.605 51.657 1.177-.236 2.395-.359 3.642-.357l31.948.056c.83-19.468.413-43.671-3.745-67.876z" fill="#ffd301"/><path d="m435.134 14.743c-1.224-3.891-.345-7.891 1.932-10.871l-19.517 7.1c-5.609 2.04-8.252 8.508-5.623 13.878 6.481 13.241 12.792 30.648 15.605 51.657 1.177-.236 2.395-.359 3.642-.357l13.141.023c.147-24.297-4.065-45.163-9.18-61.43z" fill="#ffc20c"/><path d="m208.298 496.558-14.686-23.72c-.833-1.344-1.253-2.84-1.288-4.33l-11.349 7.861c-8.079 5.942-10.416 17.001-5.431 25.703h.001c4.94 8.625 15.526 12.229 24.703 8.409l16.782-7.157c-3.532-1.11-6.671-3.436-8.732-6.766z" fill="#ffd301"/><g><path d="m191.791 494.399 10.616-7.354-8.796-14.207c-.833-1.345-1.253-2.84-1.288-4.33l-11.349 7.862c-8.079 5.942-10.416 17-5.431 25.703h.001c1.98 3.457 4.876 6.091 8.216 7.78.137-5.936 2.942-11.711 8.031-15.454z" fill="#ffc20c"/></g><path d="m480.637 87.94c-2.107-7.087-8.616-11.942-16.01-11.955l-33.454-.058c-9.954-.018-18.05 7.906-18.37 17.855-5.444 169.098-154.264 313.584-219.513 368.997-3.246 2.756-3.98 7.47-1.739 11.089l14.686 23.72c3.927 6.343 11.748 9.087 18.785 6.609 324.077-114.105 272.512-359.408 255.615-416.257z" fill="#fee55a"/><path d="m448.052 75.956-16.879-.029c-9.954-.018-18.05 7.906-18.37 17.855-5.444 169.097-154.264 313.583-219.513 368.997-3.246 2.756-3.98 7.469-1.739 11.089l8.961 14.474c291.822-160.169 247.54-412.386 247.54-412.386z" fill="#ffd301"/></g></svg>