<svg id="Layer_1" enable-background="new 0 0 512 512" height="512" viewBox="0 0 512 512" width="512" xmlns="http://www.w3.org/2000/svg"><g><path d="m298.098 65.282-40.646-14.833 16.011-43.874c1.893-5.188 7.634-7.859 12.822-5.966l21.858 7.977c5.188 1.893 7.859 7.634 5.966 12.822z" fill="#fdb441"/><path d="m218.551 307.211-5.449 14.932-41.624 52.154c-6.382 6.609-17.579 2.522-18.203-6.643l1.762-66.701 5.449-14.932z" fill="#a8d3d8"/><path d="m213.1 322.146-58.065-21.19 97.184-266.301c.757-2.075 3.054-3.144 5.129-2.386l50.55 18.448c2.075.757 3.144 3.054 2.386 5.129z" fill="#fe646f"/><path d="m282.622 41.492-98.555 270.059 29.033 10.595 97.184-266.301c.757-2.075-.311-4.372-2.386-5.129z" fill="#fd4755"/><path d="m184.067 311.551-30.79 56.106c.626 9.167 11.822 13.253 18.205 6.644l41.618-52.155z" fill="#8ebac5"/><path d="m211.801 145.096 58.041 21.201-38.162 104.473-58.041-21.201z" fill="#78909c"/><path d="m202.747 260.343 38.162-104.473 29.02 10.6-38.162 104.473z" fill="#607d8b"/><path d="m21.023 415.015 13.474-47.097c.622-2.175 2.882-3.442 5.062-2.838l212.08 58.738c2.317.642 3.548 3.167 2.627 5.388l-17.697 42.654z" fill="#f3f0f3"/><g><g><g><path d="m228.28 417.349-19.569 47.164 27.857 7.347 17.697-42.653c.921-2.22-.31-4.746-2.627-5.388z" fill="#e2dee2"/></g></g></g><path d="m490.977 415.015-13.474-47.097c-.622-2.175-2.882-3.442-5.062-2.838l-212.08 58.738c-2.317.642-3.548 3.167-2.627 5.388l17.697 42.654z" fill="#f3f0f3"/><g><g><g><path d="m462.931 422.411 28.046-7.397-13.474-47.097c-.622-2.175-2.882-3.442-5.062-2.838l-24.648 6.827z" fill="#e2dee2"/></g></g></g><path d="m247.995 422.809 8.005 2.217 9.259-2.564-3.732 15.886-11.092.091z" fill="#e2dee2"/><path d="m511.509 412.299c-2.128-8.229-10.564-13.185-18.843-11.071l-214.723 54.849c-6.842 1.749-11.625 7.878-11.625 14.9 0 5.655-4.629 10.256-10.318 10.256-5.69 0-10.318-4.601-10.318-10.256 0-7.022-4.783-13.151-11.625-14.9l-214.723-54.849c-8.281-2.112-16.716 2.841-18.843 11.071-2.128 8.229 2.859 16.613 11.138 18.729l205.032 52.373c5.307 16.567 20.935 28.599 39.339 28.599s34.032-12.032 39.34-28.599l205.032-52.373c8.278-2.115 13.265-10.5 11.137-18.729z" fill="#01d0fb"/><g><path d="m511.509 412.299c-2.128-8.229-10.564-13.185-18.843-11.071l-26.742 6.831c7.595-.493 15.633 4.617 17.533 11.966 1.781 6.888-1.433 13.87-7.38 17.208l24.295-6.206c8.278-2.115 13.265-10.499 11.137-18.728z" fill="#01c0fa"/></g></g></svg>