<svg height="512" viewBox="0 0 50 58" width="512" xmlns="http://www.w3.org/2000/svg"><g id="Page-1" fill="none" fill-rule="evenodd"><g id="015---Margarita-Glass" fill-rule="nonzero"><path id="Shape" d="m50 1v3c0 3-2 5-7 5-6 0-4.52 6.28-7 10-4 6-5 2-8 9-1.25 2.91-1 9-1 14s0 9 3 12h-10c3-3 3-7 3-12s.25-11.09-1-14c-3-7-4-3-8-9-2.48-3.72-1-10-7-10-5 0-7-2-7-5v-3c0-.55228475.44771525-1 1-1h48c.5522847 0 1 .44771525 1 1z" fill="#f5efca"/><path id="Shape" d="m34 54h-18c-1.2590292 0-2.4445825.5927766-3.2 1.6l-1.8 2.4h28l-1.8-2.4c-.7554175-1.0072234-1.9409708-1.6-3.2-1.6z" fill="#3b97d3"/><path id="Shape" d="m50 1v3h-50v-3c0-.55228475.44771525-1 1-1h48c.5522847 0 1 .44771525 1 1z" fill="#67b9cc"/><path id="Shape" d="m23 42c0-5 .25-11.09-1-14-.3642526-.8881187-.7954951-1.7472609-1.29-2.57 1.395242.3948619 2.8400576.5868304 4.29.57 1.4499424.0168304 2.894758-.1751381 4.29-.57-.4945049.8227391-.9257474 1.6818813-1.29 2.57-1.25 2.91-1 9-1 14s0 9 3 12h-10c3-3 3-7 3-12z" fill="#2fa8cc"/></g></g></svg>