<svg id="Capa_1" enable-background="new 0 0 512 512" height="512" viewBox="0 0 512 512" width="512" xmlns="http://www.w3.org/2000/svg"><g><path d="m249.456 60.546c-70.98 3.267-128.575 60.906-131.793 131.888-2.08 45.887 18.187 87.125 50.835 113.77 13.085 10.679 20.968 26.445 20.968 43.336v31.92h133.07v-31.936c0-16.629 7.46-32.411 20.398-42.857 31.439-25.384 51.55-64.234 51.55-107.788 0-78.653-65.57-141.991-145.028-138.333z" fill="#fee55a"/><path d="m207.062 306.204c-32.648-26.645-52.915-67.883-50.835-113.77 3.024-66.686 54.042-121.591 119.063-130.703-8.394-1.17-17.029-1.591-25.834-1.186-70.98 3.267-128.575 60.906-131.793 131.888-2.081 45.887 18.187 87.125 50.835 113.77 13.085 10.68 20.968 26.445 20.968 43.336v31.92h38.565v-31.92c-.001-16.889-7.883-32.655-20.969-43.335z" fill="#ffd301"/><g><path d="m447.267 206.49h-26.391c-4.204 0-7.611-3.408-7.611-7.611 0-4.204 3.408-7.611 7.611-7.611h26.391c4.204 0 7.611 3.408 7.611 7.611s-3.408 7.611-7.611 7.611z" fill="#fee55a"/></g><g><path d="m91.125 206.49h-26.392c-4.204 0-7.611-3.408-7.611-7.611 0-4.204 3.408-7.611 7.611-7.611h26.391c4.204 0 7.611 3.408 7.611 7.611.001 4.203-3.407 7.611-7.61 7.611z" fill="#fee55a"/></g><g><path d="m367.202 87.676c-2.973-2.972-2.973-7.792 0-10.764l18.662-18.662c2.972-2.972 7.792-2.972 10.764 0 2.973 2.972 2.973 7.792 0 10.764l-18.662 18.662c-2.972 2.973-7.791 2.972-10.764 0z" fill="#fee55a"/></g><g><path d="m115.372 339.507c-2.973-2.972-2.973-7.791 0-10.764l18.662-18.662c2.972-2.972 7.792-2.972 10.764 0 2.973 2.972 2.973 7.791 0 10.764l-18.662 18.662c-2.973 2.973-7.792 2.972-10.764 0z" fill="#fee55a"/></g><g><path d="m256 41.614c-4.204 0-7.611-3.408-7.611-7.611v-26.392c0-4.203 3.408-7.611 7.611-7.611s7.611 3.408 7.611 7.611v26.391c.001 4.205-3.407 7.612-7.611 7.612z" fill="#fee55a"/></g><g><path d="m134.033 87.676-18.662-18.662c-2.973-2.972-2.973-7.792 0-10.764 2.972-2.972 7.792-2.972 10.764 0l18.662 18.662c2.973 2.972 2.973 7.792 0 10.764-2.972 2.973-7.791 2.972-10.764 0z" fill="#fee55a"/></g><g><path d="m385.864 339.507-18.662-18.662c-2.973-2.973-2.973-7.792 0-10.764 2.972-2.973 7.792-2.973 10.764 0l18.662 18.662c2.973 2.973 2.973 7.792 0 10.764-2.972 2.972-7.792 2.973-10.764 0z" fill="#fee55a"/></g><g><g><path d="m258.274 268.97c-2.299-3.519-1.309-8.236 2.21-10.535l18.776-12.264c.091-.059.182-.116.275-.171 1.892-1.123 3.067-3.188 3.067-5.388v-34.085c0-4.204 3.408-7.611 7.611-7.611s7.612 3.408 7.612 7.611v34.085c0 7.484-3.965 14.51-10.361 18.384l-18.655 12.185c-3.52 2.298-8.236 1.308-10.535-2.211z" fill="#ffc20c"/></g></g><g><g><path d="m244.599 271.296-19.96-12.239c-6.456-3.86-10.464-10.922-10.464-18.446v-34.085c0-4.204 3.408-7.611 7.611-7.611 4.204 0 7.611 3.408 7.611 7.611v34.085c0 2.2 1.175 4.265 3.067 5.388.031.018.061.037.091.055l20 12.264c3.584 2.197 4.708 6.884 2.51 10.467-2.197 3.587-6.886 4.707-10.466 2.511z" fill="#ffc20c"/></g></g><g><g><path d="m301.364 227.017h-91.007c-4.204 0-7.611-3.408-7.611-7.611 0-4.204 3.408-7.611 7.611-7.611h91.007c4.204 0 7.611 3.408 7.611 7.611.001 4.203-3.407 7.611-7.611 7.611z" fill="#ffc20c"/></g></g><path d="m277.009 313.42c-3.252-1.861-5.215-5.363-5.215-9.11v-38.383c0-5.404-4.381-9.784-9.784-9.784h-12.02c-5.404 0-9.784 4.381-9.784 9.784v38.383c0 3.747-1.963 7.249-5.215 9.11-5.692 3.258-9.529 9.383-9.529 16.413v51.627h61.077v-51.627c-.001-7.029-3.838-13.155-9.53-16.413z" fill="#ffd301"/><path d="m266.749 313.42c2.871-1.643 4.732-4.566 5.13-7.807-.053-.43-.085-.865-.085-1.304v-38.383c0-5.404-4.381-9.784-9.784-9.784h-12.02c-5.404 0-9.784 4.381-9.784 9.784v38.383c0 3.747-1.963 7.249-5.215 9.11-5.692 3.258-9.529 9.383-9.529 16.413v51.627h31.758v-51.627c0-7.028 3.837-13.154 9.529-16.412z" fill="#ffc20c"/><g><path d="m256 389.071c-4.204 0-7.611-3.408-7.611-7.611v-45.292c0-4.204 3.408-7.611 7.611-7.611s7.611 3.408 7.611 7.611v45.292c.001 4.203-3.407 7.611-7.611 7.611z" fill="#fee55a"/></g><g><g><path d="m208.749 472.165c4.352 22.127 23.849 39.835 47.251 39.835s42.899-17.708 47.251-39.834h-94.502z" fill="#23a8fe"/></g></g><path d="m245.961 472.165h-37.212c4.352 22.127 23.849 39.835 47.251 39.835 6.596 0 12.882-1.408 18.606-3.924-14.584-6.41-25.52-20.021-28.645-35.911z" fill="#0193fa"/><path d="m306.693 440.577h-101.387c-5.404 0-9.784 4.381-9.784 9.784v13.035c0 5.404 4.381 9.784 9.784 9.784h101.387c5.404 0 9.784-4.381 9.784-9.784v-13.035c.001-5.403-4.38-9.784-9.784-9.784z" fill="#60b8fe"/><path d="m232.734 463.396v-13.035c0-5.404 4.381-9.784 9.784-9.784h-37.212c-5.404 0-9.784 4.381-9.784 9.784v13.035c0 5.404 4.381 9.784 9.784 9.784h37.212c-5.404 0-9.784-4.38-9.784-9.784z" fill="#23a8fe"/><path d="m327.607 408.989h-143.214c-5.404 0-9.784 4.381-9.784 9.784v13.035c0 5.404 4.381 9.784 9.784 9.784h143.214c5.404 0 9.784-4.381 9.784-9.784v-13.035c0-5.404-4.38-9.784-9.784-9.784z" fill="#b1dbfc"/><path d="m211.821 431.808v-13.035c0-5.404 4.381-9.784 9.784-9.784h-37.212c-5.404 0-9.784 4.381-9.784 9.784v13.035c0 5.404 4.381 9.784 9.784 9.784h37.212c-5.404 0-9.784-4.381-9.784-9.784z" fill="#8bcaff"/><path d="m327.607 378.415h-143.214c-5.404 0-9.784 4.381-9.784 9.784v12.02c0 5.404 4.381 9.784 9.784 9.784h143.213c5.404 0 9.784-4.381 9.784-9.784v-12.02c.001-5.403-4.38-9.784-9.783-9.784z" fill="#dfebfa"/><path d="m211.821 400.219v-12.019c0-5.404 4.381-9.784 9.784-9.784h-37.212c-5.404 0-9.784 4.381-9.784 9.784v12.02c0 5.404 4.381 9.784 9.784 9.784h37.212c-5.404 0-9.784-4.381-9.784-9.785z" fill="#b1dbfc"/></g></svg>