<svg id="Capa_1" enable-background="new 0 0 504.5 504.5" height="512" viewBox="0 0 504.5 504.5" width="512" xmlns="http://www.w3.org/2000/svg"><path d="m432.25 7.5h-30v497h30c16.5 0 30-13.5 30-30v-437c0-16.5-13.5-30-30-30z" fill="#3a6fd8"/><path d="m258.75 256 173.5-218.5c0-16.5-13.5-30-30-30h-60l-90 21.097-90-21.097h-90c-16.5 0-30 13.5-30 30v437c0 16.5 13.5 30 30 30h330c16.5 0 30-13.5 30-30z" fill="#3b88f5"/><path d="m342.25 7.5v50h-93.5l63.5-50z" fill="#93b7c0"/><path d="m162.25 7.5h150v50h-150z" fill="#acd5df"/><path d="m252.25 294.5h180v180h-180z" fill="#14cfff"/><path d="m267.25 309.5 16.82 151.82 135-135z" fill="#8ae7ff"/><path d="m402.25 37.5-45 302h30c24.853 0 45-20.147 45-45v-257z" fill="#c4f3ff"/><path d="m402.25 294.5v-257h-330v437h180c24.853 0 45-20.147 45-45v-90h60c24.853 0 45-20.147 45-45z" fill="#fff"/><path d="m327.25 85h-150c-12.406 0-22.5-10.093-22.5-22.5v-55c0-4.142 3.357-7.5 7.5-7.5s7.5 3.358 7.5 7.5v55c0 4.136 3.364 7.5 7.5 7.5h150c4.136 0 7.5-3.364 7.5-7.5v-55c0-4.142 3.357-7.5 7.5-7.5s7.5 3.358 7.5 7.5v55c0 12.407-10.094 22.5-22.5 22.5z" fill="#83a3ab"/></svg>