<svg id="icons" enable-background="new 0 0 64 64" height="512" viewBox="0 0 64 64" width="512" xmlns="http://www.w3.org/2000/svg"><path d="m49 40.5h-21-3.011-12.989c-6.07 0-11-4.92-11-11v4c0 6.08 4.93 11 11 11h11.988 4.012 21c7.73 0 14-6.26 14-14v-4c0 7.73-6.27 14-14 14z" fill="#4a89dc"/><path d="m30 40.49h4l2 1.001v.01 2.999 14c0 2.21-1.79 4-4 4s-4-1.79-4-4v-14-2.999-.01z" fill="#656d78"/><path d="m34 34.36v6.13h-4v-6.13c.65.09 1.32.14 2 .14s1.35-.05 2-.14z" fill="#ccd1d9"/><path d="m32 31.5c6.07 0 11-4.93 11-11s-4.93-11-11-11-11 4.93-11 11 4.93 11 11 11zm0-25c7.73 0 14 6.27 14 14 0 7.05-5.22 12.89-12 13.86-.65.09-1.32.14-2 .14s-1.35-.05-2-.14c-6.78-.97-12-6.81-12-13.86 0-7.73 6.27-14 14-14z" fill="#e6e9ed"/><path d="m49.25 12.51c7.62.14 13.75 6.34 13.75 13.99 0 7.73-6.27 14-14 14h-13v-.01h-2v-6.13c6.78-.971 12-6.811 12-13.86 0-7.73-6.27-14-14-14s-14 6.27-14 14c0 7.05 5.22 12.89 12 13.86v6.13h-2v.01h-16c-6.07 0-11-4.92-11-11 0-6.07 4.93-11 11-11h1.11c1-9.55 9.08-17 18.89-17 7.64 0 14.23 4.51 17.25 11.01z" fill="#5d9cec"/><path d="m32 9.5c6.07 0 11 4.93 11 11s-4.93 11-11 11-11-4.93-11-11 4.93-11 11-11z" fill="#87bcf4"/><path d="m35 42.495h-5.998c-.553 0-1-.447-1-1s.447-1 1-1h5.998c.553 0 1 .447 1 1s-.447 1-1 1z" fill="#656d78"/></svg>