<svg height="512" viewBox="0 0 64 64" width="512" xmlns="http://www.w3.org/2000/svg"><g id="_15-Rain" data-name="15-Rain"><g fill="#a3d4ff"><path d="m6.17 58.47a2.478 2.478 0 0 1 0 3.7 2.478 2.478 0 0 1 -3.7 0c-1.19-1.19-1.85-4.32-1.23-4.93s3.74.04 4.93 1.23z"/><path d="m15.17 47.47a2.478 2.478 0 0 1 0 3.7 2.478 2.478 0 0 1 -3.7 0c-1.19-1.19-1.85-4.32-1.23-4.93s3.74.04 4.93 1.23z"/><path d="m26.17 55.47a2.616 2.616 0 0 1 -3.7 3.7c-1.19-1.19-1.85-4.32-1.23-4.93s3.74.04 4.93 1.23z"/><path d="m35.17 45.47a2.616 2.616 0 0 1 -3.7 3.7c-1.19-1.19-1.85-4.32-1.23-4.93s3.74.04 4.93 1.23z"/><path d="m44.17 58.47a2.616 2.616 0 0 1 -3.7 3.7c-1.19-1.19-1.85-4.32-1.23-4.93s3.74.04 4.93 1.23z"/><path d="m62.17 58.47a2.616 2.616 0 0 1 -3.7 3.7c-1.19-1.19-1.85-4.32-1.23-4.93s3.74.04 4.93 1.23z"/></g><path d="m62.17 60.17a2.478 2.478 0 0 1 -3.7 0 6.064 6.064 0 0 1 -1.319-2.8c-.455.826.194 3.68 1.319 4.805a2.635 2.635 0 0 0 4.3-2.847 2.97 2.97 0 0 1 -.6.842z" fill="#65b1fc"/><path d="m44.17 60.17a2.478 2.478 0 0 1 -3.7 0 6.064 6.064 0 0 1 -1.319-2.8c-.455.826.194 3.68 1.319 4.805a2.635 2.635 0 0 0 4.3-2.847 2.97 2.97 0 0 1 -.6.842z" fill="#65b1fc"/><path d="m26.17 57.17a2.478 2.478 0 0 1 -3.7 0 6.064 6.064 0 0 1 -1.319-2.8c-.455.826.194 3.68 1.319 4.805a2.635 2.635 0 0 0 4.3-2.847 2.97 2.97 0 0 1 -.6.842z" fill="#65b1fc"/><path d="m15.17 49.17a2.478 2.478 0 0 1 -3.7 0 6.064 6.064 0 0 1 -1.319-2.8c-.455.826.194 3.68 1.319 4.805a2.478 2.478 0 0 0 3.7 0 2.471 2.471 0 0 0 .6-2.847 2.97 2.97 0 0 1 -.6.842z" fill="#65b1fc"/><path d="m35.17 47.17a2.478 2.478 0 0 1 -3.7 0 6.064 6.064 0 0 1 -1.319-2.8c-.455.826.194 3.68 1.319 4.805a2.635 2.635 0 0 0 4.3-2.847 2.97 2.97 0 0 1 -.6.842z" fill="#65b1fc"/><path d="m6.17 60.17a2.478 2.478 0 0 1 -3.7 0 6.064 6.064 0 0 1 -1.319-2.8c-.455.826.194 3.68 1.319 4.805a2.478 2.478 0 0 0 3.7 0 2.471 2.471 0 0 0 .6-2.847 2.97 2.97 0 0 1 -.6.842z" fill="#65b1fc"/><path d="m49.17 48.47a2.616 2.616 0 0 1 -3.7 3.7c-1.19-1.19-1.85-4.32-1.23-4.93s3.74.04 4.93 1.23z" fill="#a3d4ff"/><path d="m58.17 37.47a2.616 2.616 0 0 1 -3.7 3.7c-1.19-1.19-1.85-4.32-1.23-4.93s3.74.04 4.93 1.23z" fill="#a3d4ff"/><path d="m57 13a6 6 0 0 1 0 12h-.42a5 5 0 0 1 -4.58 3 4.9 4.9 0 0 1 -3.04-1.06 7.991 7.991 0 0 1 -5.96 3.99 6 6 0 0 0 -6-5.93 5 5 0 0 0 -5-5 4.932 4.932 0 0 0 -2.03.44 7.971 7.971 0 0 0 -5.3-6.97 6.021 6.021 0 0 1 2.33-.47 5 5 0 0 1 5-5 4.932 4.932 0 0 1 2.03.44 7.989 7.989 0 0 1 15.94 0 4.932 4.932 0 0 1 2.03-.44 5 5 0 0 1 5 5z" fill="#96e8ff"/><path d="m52.96 26.94a8.063 8.063 0 0 1 -.723 1.042 4.951 4.951 0 0 0 1.786-.419 5.022 5.022 0 0 1 -1.063-.623z" fill="#80dbff"/><path d="m53.966 8.4v.036l.036-.014c-.01-.002-.022-.012-.036-.022z" fill="#80dbff"/><path d="m36 8a4.932 4.932 0 0 1 2.03.44 7.994 7.994 0 0 1 5.97-7.179 7.963 7.963 0 0 0 -9.966 7.139 4.976 4.976 0 0 1 1.966-.4z" fill="#80dbff"/><path d="m41 25a5 5 0 0 0 -5-5 4.934 4.934 0 0 0 -1.994.426 5 5 0 0 1 2.994 4.574 6 6 0 0 1 6 5.93 7.871 7.871 0 0 0 3.775-1.53 6 6 0 0 0 -5.775-4.4z" fill="#80dbff"/><path d="m28.67 13.47a6.021 6.021 0 0 1 2.33-.47 5 5 0 0 1 2.994-4.574 4.934 4.934 0 0 0 -1.994-.426 5 5 0 0 0 -5 5 6.021 6.021 0 0 0 -2.33.47 7.971 7.971 0 0 1 5.3 6.97 4.932 4.932 0 0 1 2.03-.44 4.988 4.988 0 0 1 1.965.4 7.969 7.969 0 0 0 -5.295-6.93z" fill="#80dbff"/><path d="m43 30.93v.07a6 6 0 0 1 -6 6h-.42a5 5 0 0 1 -4.58 3 4.9 4.9 0 0 1 -3.04-1.06 8 8 0 0 1 -13.92 0 4.9 4.9 0 0 1 -3.04 1.06 5 5 0 0 1 -4.58-3h-.42a6 6 0 0 1 0-12 5 5 0 0 1 5-5 4.932 4.932 0 0 1 2.03.44 7.99 7.99 0 0 1 7.97-7.44 7.6 7.6 0 0 1 2.66.47s.01-.02.01 0a7.971 7.971 0 0 1 5.3 6.97 4.932 4.932 0 0 1 2.03-.44 5 5 0 0 1 5 5 6 6 0 0 1 6 5.93z" fill="#cff9ff"/><path d="m37 33h-.42a5 5 0 0 1 -4.58 3 4.9 4.9 0 0 1 -3.04-1.06 8 8 0 0 1 -13.92 0 4.9 4.9 0 0 1 -3.04 1.06 5 5 0 0 1 -4.58-3h-.42a6 6 0 0 1 -5.65-4 5.984 5.984 0 0 0 5.65 8h.42a5 5 0 0 0 4.58 3 4.9 4.9 0 0 0 3.04-1.06 8 8 0 0 0 13.92 0 4.9 4.9 0 0 0 3.04 1.06 5 5 0 0 0 4.58-3h.42a6 6 0 0 0 6-6v-.07a5.973 5.973 0 0 0 -.349-1.93 6 6 0 0 1 -5.651 4z" fill="#b5efff"/><path d="m49.17 50.17a2.478 2.478 0 0 1 -3.7 0 6.064 6.064 0 0 1 -1.319-2.8c-.455.826.194 3.68 1.319 4.805a2.635 2.635 0 0 0 4.3-2.847 2.97 2.97 0 0 1 -.6.842z" fill="#65b1fc"/><path d="m58.17 39.17a2.478 2.478 0 0 1 -3.7 0 6.064 6.064 0 0 1 -1.319-2.8c-.455.826.194 3.68 1.319 4.805a2.635 2.635 0 0 0 4.3-2.847 2.97 2.97 0 0 1 -.6.842z" fill="#65b1fc"/></g></svg>