<?xml version="1.0" encoding="iso-8859-1"?>
<!-- Generator: Adobe Illustrator 19.0.0, SVG Export Plug-In . SVG Version: 6.00 Build 0)  -->
<svg version="1.1" id="Capa_1" xmlns="http://www.w3.org/2000/svg" xmlns:xlink="http://www.w3.org/1999/xlink" x="0px" y="0px"
	 viewBox="0 0 512 512" style="enable-background:new 0 0 512 512;" xml:space="preserve">
<path style="fill:#F2F2F2;" d="M506.155,207.804L369.269,13.575c-10.176-14.453-30.144-17.899-44.587-7.733L18.923,221.329v14.08
	h491.595C513.237,226.311,512.043,216.167,506.155,207.804"/>
<path style="fill:#E8EAEA;" d="M446.699,197.521L358.976,73.02c-14.453,10.187-34.411,6.731-44.597-7.712L73.024,235.409h362.432
	C430.144,221.98,434.389,206.204,446.699,197.521"/>
<g>
	<path style="fill:#F2F2F2;" d="M285.205,235.409c-2.155-4.107-4.565-8.149-7.328-12.085
		c-25.856-36.683-68.939-50.837-96.235-31.584c-13.547,9.547-20.629,25.525-21.195,43.669H285.205z"/>
	<path style="fill:#F2F2F2;" d="M375.595,154.471c6.976,9.899,4.608,23.563-5.291,30.539c-9.888,6.976-23.563,4.608-30.539-5.291
		c-6.965-9.899-4.608-23.563,5.291-30.539C354.955,142.204,368.619,144.583,375.595,154.471"/>
</g>
<path style="fill:#4CDBC4;" d="M480,210.396H32c-17.675,0-32,14.315-32,32v237.6c0,17.685,14.325,32,32,32h448
	c17.675,0,32-14.315,32-32v-237.6C512,224.7,497.675,210.396,480,210.396"/>
<path style="fill:#3DC9AE;" d="M437.333,253.063H74.667c0,17.664-14.325,32-32,32v152.267c17.675,0,32,14.336,32,32h362.667
	c0-17.664,14.325-32,32-32V285.063C451.659,285.063,437.333,270.727,437.333,253.063"/>
<g>
	<path style="fill:#4CDBC4;" d="M316.469,361.201c0,44.875-27.072,81.248-60.459,81.248c-33.408,0-60.469-36.373-60.469-81.248
		s27.061-81.269,60.469-81.269C289.397,279.932,316.469,316.327,316.469,361.201"/>
	<path style="fill:#4CDBC4;" d="M119.829,361.201c0,12.107-9.813,21.92-21.92,21.92s-21.92-9.813-21.92-21.92
		c0-12.128,9.813-21.941,21.92-21.941S119.829,349.084,119.829,361.201"/>
	<path style="fill:#4CDBC4;" d="M436,361.201c0,12.107-9.813,21.92-21.92,21.92c-12.096,0-21.909-9.813-21.909-21.92
		c0-12.128,9.813-21.941,21.909-21.941C426.187,339.271,436,349.084,436,361.201"/>
</g>
<g>
</g>
<g>
</g>
<g>
</g>
<g>
</g>
<g>
</g>
<g>
</g>
<g>
</g>
<g>
</g>
<g>
</g>
<g>
</g>
<g>
</g>
<g>
</g>
<g>
</g>
<g>
</g>
<g>
</g>
</svg>
