<svg height="512pt" viewBox="-31 0 512 512.00057" width="512pt" xmlns="http://www.w3.org/2000/svg"><path d="m359.992188 15.011719c0 69.597656-51 94.796875-81.300782 110.097656-6.898437 3.300781-13.199218 6.300781-17.695312 9.597656l-69.300782 2.101563c-3-3.300782-11.699218-7.5-20.398437-11.699219-30.300781-15.300781-81.300781-40.5-81.300781-110.097656 0-6 3.601562-11.398438 9.300781-13.800781 5.699219-2.398438 12-1.1992192 16.199219 3.300781 20.699218 20.398437 57.300781 47.398437 79.5 54.597656v-44.097656c0-8.398438 6.597656-15.0000002 15-15.0000002h29.996094c8.402343 0 15 6.6015622 15 15.0000002v44.097656c22.199218-7.199219 58.800781-34.199219 79.5-54.597656 4.199218-4.5000002 10.5-5.699219 16.199218-3.300781 5.699219 2.402343 9.300782 7.800781 9.300782 13.800781zm0 0" fill="#b9dd39"/><path d="m359.992188 15.011719c0 69.597656-51 94.796875-81.300782 110.097656-6.898437 3.300781-13.199218 6.300781-17.695312 9.597656l-36 1.199219v-135.8945312h15c8.398437 0 15 6.6015622 15 15.0000002v44.097656c22.199218-7.199219 58.796875-34.199219 79.496094-54.597656 4.199218-4.5000002 10.5-5.699219 16.199218-3.300781 5.699219 2.402343 9.300782 7.800781 9.300782 13.800781zm0 0" fill="#93bf00"/><path d="m432.289062 335.40625c-8.097656 26.398438-18.296874 60.796875-29.097656 106.695312-9.601562 41.101563-45.898437 69.898438-88.199218 69.898438-15.910157 0-31.230469-4-44.957032-11.828125-13.289062 7.570313-28.679687 11.828125-45.039062 11.828125h-.300782c-16.148437 0-31.441406-4.269531-44.710937-11.847656-13.738281 7.839844-29.066406 11.847656-44.988281 11.847656-42.296875 0-78.597656-28.796875-88.195313-69.597656 0-.300782 0-.300782 0-.300782s-46.800781-185.59375-46.800781-187.09375c0-49.5 27-94.800781 70.199219-118.5 33.578125-18.238281 74.128906-21.386718 110.085937-8.917968 14.28125-5 29.371094-7.582032 44.710938-7.582032 15.359375 0 31.507812 2.941407 45.085937 7.660157 23.640625-8.308594 49.269531-9.957031 74.609375-4.359375 49.5 10.5 90.296875 50.699218 101.699219 99.597656 9 39 .300781 66.597656-14.101563 112.5zm0 0" fill="#ff6c6c"/><path d="m432.289062 335.40625c-8.097656 26.398438-18.296874 60.796875-29.097656 106.695312-9.601562 41.101563-45.898437 69.898438-88.199218 69.898438-15.910157 0-31.230469-4-44.957032-11.828125-13.289062 7.570313-28.679687 11.828125-45.039062 11.828125v-391.992188c15.359375 0 31.507812 2.941407 45.085937 7.660157 23.640625-8.308594 49.269531-9.957031 74.609375-4.359375 49.5 10.5 90.296875 50.699218 101.699219 99.597656 9 39 .300781 66.597656-14.101563 112.5zm0 0" fill="#ff4949"/></svg>