<?xml version="1.0" encoding="iso-8859-1"?>
<!-- Generator: Adobe Illustrator 19.0.0, SVG Export Plug-In . SVG Version: 6.00 Build 0)  -->
<svg version="1.1" id="Capa_1" xmlns="http://www.w3.org/2000/svg" xmlns:xlink="http://www.w3.org/1999/xlink" x="0px" y="0px"
	 viewBox="0 0 291.025 291.025" style="enable-background:new 0 0 291.025 291.025;" xml:space="preserve">
<path style="fill:#C9C9C9;" d="M212.713,173.513c10.4-3.2,21.6-3.6,32-1.2c10.8,2.4,20.8,8,28.8,16c8.4,8.4,13.6,18.4,16,28.8
	c2.4,10.8,2,22.4-1.6,33.2c-0.4,1.2-1.6,1.6-2.8,1.2c-0.4,0-0.4-0.4-0.8-0.4l0,0l-38-37.6l-32.8,32.8l38,38c0.8,0.8,0.8,2,0,2.8
	c-0.4,0.4-0.4,0.4-0.8,0.4c-10.8,3.6-22,4.4-33.2,1.6c-10.8-2.4-20.8-8-28.8-16c-8.4-8.4-13.6-18.4-16-28.8s-2-21.6,1.2-32
	l-95.6-94.8c-10.4,3.2-21.6,3.6-32,1.2c-10.8-2.4-20.8-8-28.8-16c-8.4-8.4-13.6-18.4-16-28.8c-2.4-10.8-2-22.4,1.6-33.2
	c0.4-1.2,1.6-1.6,2.8-1.2c0.4,0,0.4,0.4,0.8,0.4l0,0l38,38l33.2-33.2l-38-38c-0.8-0.8-0.8-2,0-2.8c0.4-0.4,0.4-0.4,0.8-0.4
	c10.8-3.6,22-4.4,33.2-1.6c10.8,2.4,20.8,8,28.8,16c8.4,8.4,13.6,18.4,16,28.8c2.4,10.4,2,21.6-1.2,32L212.713,173.513z"/>
<g>
</g>
<g>
</g>
<g>
</g>
<g>
</g>
<g>
</g>
<g>
</g>
<g>
</g>
<g>
</g>
<g>
</g>
<g>
</g>
<g>
</g>
<g>
</g>
<g>
</g>
<g>
</g>
<g>
</g>
</svg>
