<?xml version="1.0" encoding="iso-8859-1"?>
<!-- Generator: Adobe Illustrator 19.0.0, SVG Export Plug-In . SVG Version: 6.00 Build 0)  -->
<svg version="1.1" id="Capa_1" xmlns="http://www.w3.org/2000/svg" xmlns:xlink="http://www.w3.org/1999/xlink" x="0px" y="0px"
	 viewBox="0 0 512.293 512.293" style="enable-background:new 0 0 512.293 512.293;" xml:space="preserve">
<path style="fill:#BBDEFB;" d="M402.148,149.606C384.338,63.054,299.735,7.328,213.183,25.138
	C139.07,40.389,85.774,105.472,85.434,181.136c0,3.605,0.149,7.296,0.469,11.2C33.178,197.917-5.04,245.183,0.541,297.908
	c5.173,48.87,46.416,85.943,95.559,85.895h11.2c-0.256-3.541-0.533-7.061-0.533-10.667c0-76.583,62.083-138.667,138.667-138.667
	S384.1,296.553,384.1,373.136c0,3.605-0.277,7.125-0.533,10.667h11.2c64.73,0.177,117.348-52.154,117.525-116.885
	C512.462,204.807,464.148,153.348,402.148,149.606L402.148,149.606z"/>
<circle style="fill:#4CAF50;" cx="245.434" cy="373.136" r="117.333"/>
<g>
	<path style="fill:#FAFAFA;" d="M245.434,447.803c-26.383,2.516-49.996-16.375-53.333-42.667v-64
		c3.337-26.292,26.95-45.182,53.333-42.667c33.579,0,51.499,10.453,53.333,31.104c0.492,5.867-3.862,11.023-9.728,11.52
		c-5.799,0.287-10.832-3.962-11.52-9.728c-0.64-7.659-11.413-11.563-32-11.563c-17.365,0-32,9.771-32,21.333v64
		c0,11.563,14.656,21.333,32,21.333c20.587,0,31.36-3.904,32-11.563c0.698-5.76,5.724-10.005,11.52-9.728
		c5.866,0.497,10.22,5.653,9.728,11.52C296.975,437.35,279.055,447.803,245.434,447.803z"/>
	<path style="fill:#FAFAFA;" d="M245.434,362.47h-64c-5.891,0-10.667-4.776-10.667-10.667s4.776-10.667,10.667-10.667h64
		c5.891,0,10.667,4.776,10.667,10.667S251.325,362.47,245.434,362.47z"/>
	<path style="fill:#FAFAFA;" d="M245.434,405.136h-64c-5.891,0-10.667-4.776-10.667-10.667c0-5.891,4.776-10.667,10.667-10.667h64
		c5.891,0,10.667,4.776,10.667,10.667C256.1,400.361,251.325,405.136,245.434,405.136z"/>
</g>
<g>
</g>
<g>
</g>
<g>
</g>
<g>
</g>
<g>
</g>
<g>
</g>
<g>
</g>
<g>
</g>
<g>
</g>
<g>
</g>
<g>
</g>
<g>
</g>
<g>
</g>
<g>
</g>
<g>
</g>
</svg>
