<svg enable-background="new 0 0 512 512" height="512" viewBox="0 0 512 512" width="512" xmlns="http://www.w3.org/2000/svg"><g id="_x31_5_Newspaper"><g><g><path d="m479.624 115.522-122.604 384.468c-2.82 8.843-12.275 13.726-21.119 10.906l-292.62-93.314c-8.843-2.82-13.726-12.275-10.906-21.119l122.605-384.468c2.82-8.843 12.275-13.726 21.119-10.906l292.62 93.314c8.843 2.82 13.726 12.275 10.905 21.119z" fill="#e5e3e5"/><path d="m479.613 115.494-122.618 384.513c-2.809 8.807-12.259 13.732-21.119 10.906l-21.083-6.723c8.86 2.825 18.31-2.099 21.119-10.906l122.618-384.514c2.808-8.807-2.046-18.293-10.906-21.119l21.083 6.723c8.86 2.826 13.715 12.313 10.906 21.12z" opacity=".08"/></g><g><path d="m426.376 54.22v403.544c0 9.282-7.525 16.807-16.807 16.807h-307.138c-9.282 0-16.807-7.525-16.807-16.807v-403.544c0-9.282 7.525-16.807 16.807-16.807h307.138c9.282 0 16.807 7.525 16.807 16.807z" fill="#f2f0f0"/><path d="m426.357 54.197v403.591c0 9.244-7.507 16.807-16.807 16.807h-22.129c9.3 0 16.807-7.563 16.807-16.807v-403.591c0-9.244-7.507-16.807-16.807-16.807h22.129c9.3 0 16.807 7.563 16.807 16.807z" opacity=".08"/></g><g fill="#e5e3e5"><path d="m385.882 71.004h-100.169c-4.223 0-7.647 3.424-7.647 7.647v.056c0 4.223 3.424 7.647 7.647 7.647h100.756c4.352 0 7.827-3.571 7.67-7.961-.152-4.227-4.027-7.389-8.257-7.389z"/><path d="m385.953 115.374h-100.24c-4.223 0-7.647 3.424-7.647 7.647 0 4.223 3.424 7.647 7.647 7.647h100.756c4.343 0 7.813-3.556 7.671-7.934-.137-4.203-3.981-7.36-8.187-7.36z"/><path d="m386.468 159.688h-100.755c-4.223 0-7.647 3.424-7.647 7.647 0 4.223 3.424 7.647 7.647 7.647h100.239c4.206 0 8.051-3.156 8.188-7.36.141-4.376-3.328-7.934-7.672-7.934z"/><path d="m394.153 211.668c0 4.234-3.433 7.667-7.667 7.667h-260.972c-4.234 0-7.667-3.433-7.667-7.667 0-4.234 3.433-7.667 7.667-7.667h260.973c4.234 0 7.666 3.433 7.666 7.667z"/><path d="m394.153 255.992c0 4.234-3.433 7.667-7.667 7.667h-260.972c-4.234 0-7.667-3.433-7.667-7.667 0-4.234 3.433-7.667 7.667-7.667h260.973c4.234 0 7.666 3.433 7.666 7.667z"/><path d="m394.153 300.317c0 4.234-3.433 7.667-7.667 7.667h-260.972c-4.234 0-7.667-3.433-7.667-7.667 0-4.234 3.433-7.667 7.667-7.667h260.973c4.234 0 7.666 3.432 7.666 7.667z"/><path d="m233.848 344.649c0-4.223-3.424-7.647-7.647-7.647h-100.688c-4.258 0-7.675 3.417-7.675 7.619 0 4.258 3.417 7.675 7.675 7.675h100.688c4.223 0 7.647-3.424 7.647-7.647z"/><path d="m233.848 388.963c0-4.223-3.424-7.647-7.647-7.647h-100.688c-4.258 0-7.675 3.418-7.675 7.675 0 4.202 3.417 7.619 7.675 7.619h100.688c4.223.001 7.647-3.423 7.647-7.647z"/><path d="m233.848 433.278c0-4.223-3.424-7.647-7.647-7.647h-100.688c-4.258 0-7.675 3.417-7.675 7.675 0 4.202 3.417 7.675 7.675 7.675h100.688c4.223 0 7.647-3.424 7.647-7.647z"/></g><path d="m254.61 163.806v-81.574c0-6.188-5.016-11.205-11.205-11.205h-114.354c-6.188 0-11.205 5.016-11.205 11.205v81.573c0 6.188 5.016 11.205 11.205 11.205h114.354c6.189 0 11.205-5.016 11.205-11.204z" fill="#f96464"/><path d="m394.153 429.752v-81.573c0-6.188-5.016-11.205-11.205-11.205h-114.354c-6.188 0-11.205 5.016-11.205 11.205v81.573c0 6.188 5.016 11.205 11.205 11.205h114.354c6.189 0 11.205-5.017 11.205-11.205z" fill="#66d5f2"/><path d="m254.59 82.209v81.57c0 6.218-4.986 11.205-11.205 11.205h-15.574c6.162 0 11.205-4.986 11.205-11.205v-81.57c0-6.163-5.042-11.205-11.205-11.205h15.574c6.219 0 11.205 5.042 11.205 11.205z" opacity=".08"/><path d="m394.144 348.206v81.57c0 6.162-4.986 11.205-11.205 11.205h-15.631c6.219 0 11.205-5.042 11.205-11.205v-81.57c0-6.219-4.986-11.205-11.205-11.205h15.631c6.218.001 11.205 4.987 11.205 11.205z" opacity=".08"/><g fill="#fff"><path d="m139.85 91.841v12.846c0 3.03-2.456 5.486-5.486 5.486-3.03 0-5.486-2.456-5.486-5.486v-12.846c0-3.03 2.456-5.486 5.486-5.486 3.03-.001 5.486 2.456 5.486 5.486z" opacity=".4"/><path d="m280.789 357.782v12.846c0 3.03-2.456 5.486-5.486 5.486-3.03 0-5.486-2.456-5.486-5.486v-12.846c0-3.03 2.456-5.486 5.486-5.486 3.03 0 5.486 2.456 5.486 5.486z" opacity=".4"/></g></g></g></svg>