<?xml version="1.0" encoding="iso-8859-1"?>
<!-- Generator: Adobe Illustrator 19.0.0, SVG Export Plug-In . SVG Version: 6.00 Build 0)  -->
<svg version="1.1" id="Capa_1" xmlns="http://www.w3.org/2000/svg" xmlns:xlink="http://www.w3.org/1999/xlink" x="0px" y="0px"
	 viewBox="0 0 490.667 490.667" style="enable-background:new 0 0 490.667 490.667;" xml:space="preserve">
<path style="fill:#65CCD8;" d="M405.333,117.333V64h-320v256H32l53.333,53.333v53.333h320v-256h53.333L405.333,117.333z"/>
<g>
	<path style="fill:#D0D7DF;" d="M405.333,426.667v32c0,17.707-14.293,32-32,32h-256c-17.707,0-32-14.293-32-32v-32H405.333z"/>
	<path style="fill:#D0D7DF;" d="M405.333,32v32h-320V32c0-17.707,14.293-32,32-32h256C391.04,0,405.333,14.293,405.333,32z"/>
</g>
<g>
	<path style="fill:#F1F2F2;" d="M341.333,288v64c0,11.733-9.6,21.333-21.333,21.333H192c-11.733,0-21.333-9.6-21.333-21.333v-10.667
		L149.333,320l21.333-21.333V288c0-11.733,9.6-21.333,21.333-21.333h128C331.733,266.667,341.333,276.267,341.333,288z"/>
	<path style="fill:#F1F2F2;" d="M341.333,170.667L320,192v10.667C320,214.4,310.4,224,298.667,224h-128
		c-11.733,0-21.333-9.6-21.333-21.333v-64c0-11.733,9.6-21.333,21.333-21.333h128c11.733,0,21.333,9.6,21.333,21.333v10.667
		L341.333,170.667z"/>
</g>
<g>
	<path style="fill:#D0D7DF;" d="M181.333,170.667c0,5.888,4.779,10.667,10.667,10.667h85.333c5.888,0,10.667-4.779,10.667-10.667
		S283.221,160,277.333,160H192C186.112,160,181.333,164.779,181.333,170.667z"/>
	<path style="fill:#D0D7DF;" d="M202.667,320c0,5.888,4.779,10.667,10.667,10.667h85.333c5.888,0,10.667-4.779,10.667-10.667
		s-4.779-10.667-10.667-10.667h-85.333C207.445,309.333,202.667,314.112,202.667,320z"/>
</g>
<g>
</g>
<g>
</g>
<g>
</g>
<g>
</g>
<g>
</g>
<g>
</g>
<g>
</g>
<g>
</g>
<g>
</g>
<g>
</g>
<g>
</g>
<g>
</g>
<g>
</g>
<g>
</g>
<g>
</g>
</svg>
