<svg id="Capa_1" enable-background="new 0 0 512 512" height="512" viewBox="0 0 512 512" width="512" xmlns="http://www.w3.org/2000/svg"><g><path d="m358.215 229.322-292.554-43.411h-50.661c-8.284 0-15 6.716-15 15v212.184c0 8.284 6.716 15 15 15h50.723v68.905c0 5.937 3.501 11.315 8.931 13.717 1.95.862 4.015 1.283 6.066 1.283 3.661 0 7.275-1.341 10.092-3.9l88.03-80.006h252.498c8.284 0 15-6.716 15-15v-102.005z" fill="#b3d9ff"/><path d="m223.17 209.283v218.812h208.17c8.284 0 15-6.716 15-15v-102.006l-88.125-81.767z" fill="#80aaff"/><path d="m497 0h-416.339c-8.284 0-15 6.716-15 15v212.184c0 8.284 6.716 15 15 15h252.499l88.029 80.006c2.816 2.56 6.43 3.9 10.092 3.9 2.051 0 4.117-.421 6.066-1.283 5.429-2.402 8.931-7.78 8.931-13.717v-68.905h50.722c8.284 0 15-6.716 15-15v-212.185c0-8.284-6.716-15-15-15z" fill="#3a5d7e"/><path d="m497 0h-208.17v242.184h44.329l88.029 80.006c2.816 2.56 6.43 3.9 10.092 3.9 2.051 0 4.117-.421 6.066-1.283 5.429-2.402 8.931-7.78 8.931-13.717v-68.905h50.723c8.284 0 15-6.716 15-15v-212.185c0-8.284-6.716-15-15-15z" fill="#293f65"/><g fill="#ece6f2"><path d="m311.46 326.089h-176.58c-8.284 0-15-6.716-15-15s6.716-15 15-15h176.58c8.284 0 15 6.716 15 15s-6.716 15-15 15z"/><path d="m412.906 104.516h-248.15c-8.284 0-15-6.716-15-15s6.716-15 15-15h248.15c8.284 0 15 6.716 15 15s-6.716 15-15 15z"/><path d="m412.906 165.779h-248.15c-8.284 0-15-6.716-15-15s6.716-15 15-15h248.15c8.284 0 15 6.716 15 15s-6.716 15-15 15z"/></g><path d="m412.906 135.779h-124.075v30h124.075c8.284 0 15-6.716 15-15s-6.716-15-15-15z" fill="#cfcfe6"/><path d="m412.906 74.516h-124.075v30h124.075c8.284 0 15-6.716 15-15s-6.716-15-15-15z" fill="#cfcfe6"/><path d="m311.46 296.089h-88.29v30h88.29c8.284 0 15-6.716 15-15s-6.716-15-15-15z" fill="#cfcfe6"/></g></svg>