<?xml version="1.0" encoding="iso-8859-1"?>
<!-- Generator: Adobe Illustrator 19.0.0, SVG Export Plug-In . SVG Version: 6.00 Build 0)  -->
<svg xmlns="http://www.w3.org/2000/svg" xmlns:xlink="http://www.w3.org/1999/xlink" version="1.1" id="Layer_1" x="0px" y="0px" viewBox="0 0 512 512" style="enable-background:new 0 0 512 512;" xml:space="preserve" width="512" height="512">
<g>
	<path style="fill:#4BB9EC;" d="M512,391c0,32.999-13.5,63.999-35.099,85.899C454.999,498.5,423.999,512,391,512   c-66.301,0-120-54.701-120-121c0-33.001,13.5-63.001,35.099-84.901C328.001,284.5,358.001,271,391,271s63.999,13.5,85.901,35.099   C498.5,327.999,512,357.999,512,391z"/>
	<path style="fill:#0095FF;" d="M512,391c0,32.999-13.5,63.999-35.099,85.899C454.999,498.5,423.999,512,391,512V271   c32.999,0,63.999,13.5,85.901,35.099C498.5,327.999,512,357.999,512,391z"/>
	<path style="fill:#DEECF1;" d="M482,391c0,49.499-41.499,91-91,91s-90-41.501-90-91c0-49.501,40.499-90,90-90S482,341.499,482,391z   "/>
	<path style="fill:#C5D3DD;" d="M482,391c0,49.499-41.499,91-91,91V301C440.501,301,482,341.499,482,391z"/>
	<path style="fill:#4BB9EC;" d="M512,121c0,32.999-13.5,62.999-35.099,84.899C454.999,227.5,423.999,241,391,241   c-66.301,0-120-53.701-120-120c0-33.001,13.5-64.001,35.099-85.901C328.001,13.5,358.001,0,391,0s63.999,13.5,85.901,35.099   C498.5,56.999,512,87.999,512,121z"/>
	<path style="fill:#0095FF;" d="M512,121c0,32.999-13.5,62.999-35.099,84.899C454.999,227.5,423.999,241,391,241V0   c32.999,0,63.999,13.5,85.901,35.099C498.5,56.999,512,87.999,512,121z"/>
	<path style="fill:#DEECF1;" d="M482,121c0,49.499-41.499,90-91,90s-90-40.501-90-90c0-49.501,40.499-91,90-91S482,71.499,482,121z"/>
	<path style="fill:#C5D3DD;" d="M482,121c0,49.499-41.499,90-91,90V30C440.501,30,482,71.499,482,121z"/>
	<polygon style="fill:#C5D3DD;" points="444.401,138.399 427.599,163.599 391,138.999 391,45 406,45 406,112.899  "/>
	<path style="fill:#4BB9EC;" d="M241,121c0,32.999-13.5,62.999-35.099,84.899C183.999,227.5,153.999,241,121,241   C54.699,241,0,187.299,0,121c0-33.001,14.5-64.001,36.099-85.901C58.001,13.5,88.001,0,121,0s62.999,13.5,84.901,35.099   C227.5,56.999,241,87.999,241,121z"/>
	<path style="fill:#0095FF;" d="M241,121c0,32.999-13.5,62.999-35.099,84.899C183.999,227.5,153.999,241,121,241V0   c32.999,0,62.999,13.5,84.901,35.099C227.5,56.999,241,87.999,241,121z"/>
	<path style="fill:#DEECF1;" d="M211,121c0,49.499-40.499,90-90,90s-91-40.501-91-90c0-49.501,41.499-91,91-91S211,71.499,211,121z"/>
	<path style="fill:#C5D3DD;" d="M211,121c0,49.499-40.499,90-90,90V30C170.501,30,211,71.499,211,121z"/>
	<path style="fill:#4BB9EC;" d="M241,391c0,32.999-13.5,63.999-35.099,85.899C183.999,498.5,153.999,512,121,512   C54.699,512,0,457.299,0,391c0-33.001,13.5-63.001,35.099-84.901C57.001,284.5,88.001,271,121,271s62.999,13.5,84.901,35.099   C227.5,327.999,241,357.999,241,391z"/>
	<path style="fill:#0095FF;" d="M241,391c0,32.999-13.5,63.999-35.099,85.899C183.999,498.5,153.999,512,121,512V271   c32.999,0,62.999,13.5,84.901,35.099C227.5,327.999,241,357.999,241,391z"/>
	<path style="fill:#DEECF1;" d="M211,391c0,49.499-40.499,91-90,91s-91-41.501-91-91c0-49.501,41.499-90,91-90S211,341.499,211,391z   "/>
	<path style="fill:#C5D3DD;" d="M211,391c0,49.499-40.499,91-90,91V301C170.501,301,211,341.499,211,391z"/>
	<polygon style="fill:#537983;" points="166,106 166,136 106,136 106,45 136,45 136,106  "/>
	<polygon style="fill:#537983;" points="444.401,138.399 427.599,163.599 391,138.999 376,129.099 376,45 406,45 406,112.899  "/>
	<polygon style="fill:#3E5959;" points="444.401,138.399 427.599,163.599 391,138.999 391,45 406,45 406,112.899  "/>
	<polygon style="fill:#537983;" points="190,357.999 126.099,406 76,406 76,376 115.901,376 121,372.1 172,333.999  "/>
	<polygon style="fill:#3E5959;" points="190,357.999 126.099,406 121,406 121,372.1 172,333.999  "/>
	<polygon style="fill:#537983;" points="406,346 406,398.5 391,409.9 340,447.999 322,423.999 376,383.5 376,346  "/>
	<polygon style="fill:#3E5959;" points="166,106 166,136 121,136 121,45 136,45 136,106  "/>
	<polygon style="fill:#3E5959;" points="406,346 406,398.5 391,409.9 391,346  "/>
</g>















</svg>
