<svg height="464pt" viewBox="-64 0 464 464" width="464pt" xmlns="http://www.w3.org/2000/svg"><path d="m16 0h304c8.835938 0 16 7.164062 16 16v32c0 8.835938-7.164062 16-16 16h-304c-8.835938 0-16-7.164062-16-16v-32c0-8.835938 7.164062-16 16-16zm0 0" fill="#ffbf75"/><path d="m40 64h256v40h-256zm0 0" fill="#5e9acc"/><path d="m296 104 35.3125 35.3125c3 3 4.6875 7.070312 4.6875 11.316406v266.742188c0 4.246094-1.6875 8.316406-4.6875 11.316406l-30.625 30.625c-3 3-7.070312 4.6875-11.316406 4.6875h-242.742188c-4.246094 0-8.316406-1.6875-11.316406-4.6875l-30.625-30.625c-3-3-4.6875-7.070312-4.6875-11.316406v-266.742188c0-4.246094 1.6875-8.316406 4.6875-11.316406l35.3125-35.3125zm0 0" fill="#75c1ff"/><path d="m0 168h336v232h-336zm0 0" fill="#efefef"/></svg>