<svg height="512pt" viewBox="0 0 512 512" width="512pt" xmlns="http://www.w3.org/2000/svg"><g fill="#cfd8dc"><path d="m440 277.332031h-157.332031c-11.777344 0-21.335938-9.554687-21.335938-21.332031s9.558594-21.332031 21.335938-21.332031h157.332031c11.777344 0 21.332031 9.554687 21.332031 21.332031s-9.554687 21.332031-21.332031 21.332031zm0 0"/><path d="m242.6875 254.230469c-7.378906 0-14.550781-3.820313-18.496094-10.667969l-76.160156-131.925781c-5.886719-10.21875-2.386719-23.253907 7.808594-29.140625 10.199218-5.910156 23.230468-2.390625 29.140625 7.808594l76.160156 131.925781c5.890625 10.21875 2.390625 23.253906-7.808594 29.140625-3.371093 1.960937-7.039062 2.859375-10.644531 2.859375zm0 0"/><path d="m169.386719 427.308594c-3.605469 0-7.273438-.917969-10.644531-2.859375-10.21875-5.890625-13.695313-18.945313-7.808594-29.140625l73.257812-126.894532c5.886719-10.214843 18.902344-13.714843 29.140625-7.804687 10.21875 5.886719 13.699219 18.941406 7.808594 29.140625l-73.257813 126.890625c-3.945312 6.847656-11.113281 10.667969-18.496093 10.667969zm0 0"/></g><path d="m490.667969 213.332031h-25.621094c-1.664063-8.320312-3.863281-16.617187-6.59375-24.851562l22.230469-12.863281c4.949218-2.882813 8.46875-7.488282 9.917968-12.972657 1.429688-5.460937.640626-11.199219-2.195312-16.042969l-21.375-37.203124c-5.910156-10.113282-18.945312-13.546876-29.015625-7.703126l-22.355469 12.84375c-5.675781-6.421874-11.734375-12.5-18.175781-18.175781l12.796875-22.273437c5.910156-10.109375 2.476562-23.167969-7.722656-29.140625l-37.054688-21.289063c-4.929687-2.882812-10.667968-3.691406-16.128906-2.242187-5.480469 1.453125-10.089844 4.972656-12.992188 9.941406l-12.863281 22.1875c-8.234375-2.730469-16.53125-4.929687-24.851562-6.59375v-25.621094c0-11.964843-9.367188-21.332031-21.335938-21.332031h-42.664062c-11.96875 0-21.335938 9.367188-21.335938 21.332031v25.621094c-8.320312 1.664063-16.617187 3.863281-24.851562 6.59375l-12.863281-22.230469c-2.882813-4.949218-7.488282-8.46875-12.972657-9.917968-5.417969-1.429688-11.199219-.621094-16.0625 2.195312l-37.207031 21.375c-10.132812 5.933594-13.566406 18.988281-7.699219 29.015625l12.839844 22.355469c-6.417969 5.675781-12.5 11.734375-18.175781 18.175781l-22.269532-12.796875c-10.113281-5.910156-23.167968-2.476562-29.140624 7.742188l-21.292969 37.054687c-2.878907 4.929687-3.667969 10.667969-2.238281 16.128906 1.449218 5.484375 4.96875 10.089844 9.941406 12.992188l22.207031 12.84375c-2.730469 8.234375-4.929687 16.53125-6.59375 24.851562h-25.621094c-11.964843 0-21.332031 9.367188-21.332031 21.335938v42.664062c0 11.96875 9.367188 21.335938 21.332031 21.335938h25.621094c1.664063 8.296875 3.863281 16.617187 6.59375 24.851562l-22.230469 12.863281c-4.949218 2.882813-8.46875 7.488282-9.917968 12.972657-1.429688 5.460937-.640626 11.199219 2.195312 16.042969l21.375 37.203124c5.953125 10.132813 18.96875 13.570313 29.015625 7.703126l22.355469-12.84375c5.675781 6.421874 11.734375 12.5 18.175781 18.175781l-12.796875 22.273437c-5.890625 10.132813-2.453125 23.167969 7.742188 29.140625l37.054687 21.289063c4.910156 2.859375 10.667969 3.671875 16.128906 2.21875 5.484375-1.429688 10.089844-4.96875 12.972657-9.941406l12.839843-22.207032c8.234375 2.753906 16.554688 4.972656 24.875 6.636719v25.621094c0 11.964843 9.367188 21.332031 21.335938 21.332031h42.664062c11.96875 0 21.335938-9.367188 21.335938-21.332031v-25.621094c8.320312-1.664063 16.640625-3.882813 24.875-6.59375l12.863281 22.230469c2.878906 4.949218 7.488281 8.46875 12.96875 9.917968 5.460938 1.453126 11.179688.640626 16.066406-2.195312l37.203125-21.375c10.132813-5.910156 13.570313-18.96875 7.703125-29.035156l-12.84375-22.335938c6.421875-5.675781 12.5-11.734375 18.175782-18.175781l22.273437 12.796875c10.109375 5.890625 23.144531 2.476562 29.140625-7.722656l21.289062-37.054688c2.882813-4.929687 3.671876-10.667968 2.242188-16.128906-1.453125-5.480469-4.972656-10.089844-9.941406-12.992188l-22.207032-12.863281c2.730469-8.234375 4.925782-16.554687 6.589844-24.851562h25.601563c11.964843 0 21.332031-9.367188 21.332031-21.335938v-42.664062c0-11.96875-9.367188-21.335938-21.332031-21.335938zm-234.667969 192c-82.347656 0-149.332031-66.984375-149.332031-149.332031s66.984375-149.332031 149.332031-149.332031 149.332031 66.984375 149.332031 149.332031-66.984375 149.332031-149.332031 149.332031zm0 0" fill="#90a4ae"/><path d="m309.332031 256c0 29.457031-23.875 53.332031-53.332031 53.332031s-53.332031-23.875-53.332031-53.332031 23.875-53.332031 53.332031-53.332031 53.332031 23.875 53.332031 53.332031zm0 0" fill="#607d8b"/></svg>