<?xml version="1.0" encoding="iso-8859-1"?>
<!-- Generator: Adobe Illustrator 19.0.0, SVG Export Plug-In . SVG Version: 6.00 Build 0)  -->
<svg version="1.1" id="Capa_1" xmlns="http://www.w3.org/2000/svg" xmlns:xlink="http://www.w3.org/1999/xlink" x="0px" y="0px"
	 viewBox="0 0 492.232 492.232" style="enable-background:new 0 0 492.232 492.232;" xml:space="preserve">
<circle style="fill:#FFC107;" cx="310.898" cy="192.782" r="181.333"/>
<path style="fill:#455A64;" d="M441.266,353.593c-3.985-1.654-8.574-0.745-11.627,2.304L383.858,401.7l-67.115-67.115
	c-4.165-4.164-10.917-4.164-15.083,0l-77.803,77.781L18.077,206.564c-4.237-4.093-10.99-3.975-15.083,0.262
	c-3.992,4.134-3.992,10.687,0,14.82L216.328,434.98c4.165,4.164,10.917,4.164,15.083,0l77.781-77.781l59.584,59.584l-45.781,45.781
	c-4.171,4.16-4.179,10.914-0.019,15.085c2.001,2.006,4.717,3.133,7.55,3.134h106.667c5.891,0,10.667-4.776,10.667-10.667V363.449
	C447.858,359.133,445.255,355.242,441.266,353.593z"/>
<path style="fill:#FAFAFA;" d="M362.525,224.782c0-19.989-13.973-33.451-42.667-40.533v-43.477
	c10.322,1.28,18.797,8.772,21.333,18.859c0.678,5.771,5.717,10.026,11.52,9.728c5.866-0.497,10.22-5.653,9.728-11.52
	c-3.553-21.251-21.178-37.316-42.667-38.891v-11.499c0-5.891-4.776-10.667-10.667-10.667c-5.891,0-10.667,4.776-10.667,10.667
	v11.541c-22.452,1.757-40.404,19.377-42.581,41.792c0,20.032,13.995,33.493,42.667,40.533v43.499
	c-10.322-1.28-18.797-8.772-21.333-18.859c-0.668-5.776-5.713-10.037-11.52-9.728c-5.866,0.497-10.22,5.653-9.728,11.52
	c3.553,21.251,21.178,37.316,42.667,38.891v11.477c0,5.891,4.776,10.667,10.667,10.667c5.891,0,10.667-4.776,10.667-10.667v-11.541
	C342.396,264.817,360.348,247.198,362.525,224.782z M277.192,160.782c0-9.067,9.067-16.96,21.333-19.968v38.4
	C284.317,175.182,277.192,169.316,277.192,160.782z M319.858,244.75v-38.4c14.208,4.096,21.333,10.027,21.333,18.496
	C341.192,233.849,332.125,241.742,319.858,244.75z"/>
<g>
</g>
<g>
</g>
<g>
</g>
<g>
</g>
<g>
</g>
<g>
</g>
<g>
</g>
<g>
</g>
<g>
</g>
<g>
</g>
<g>
</g>
<g>
</g>
<g>
</g>
<g>
</g>
<g>
</g>
</svg>
