<?xml version="1.0" encoding="iso-8859-1"?>
<!-- Generator: Adobe Illustrator 19.0.0, SVG Export Plug-In . SVG Version: 6.00 Build 0)  -->
<svg version="1.1" id="Capa_1" xmlns="http://www.w3.org/2000/svg" xmlns:xlink="http://www.w3.org/1999/xlink" x="0px" y="0px"
	 viewBox="0 0 512.001 512.001" style="enable-background:new 0 0 512.001 512.001;" xml:space="preserve">
<path style="fill:#E8B19C;" d="M417.868,0H198.643c-2.856,0-5.172,2.315-5.172,5.172v63.345H423.04V5.172
	C423.04,2.315,420.725,0,417.868,0z"/>
<path style="fill:#D09C84;" d="M417.868,0h-49.33v68.516h54.502V5.172C423.04,2.315,420.725,0,417.868,0z"/>
<path style="fill:#E8B19C;" d="M423.04,52.542H193.47l-35.847,76.351v370.862c0,6.763,5.483,12.246,12.246,12.246h276.771
	c6.763,0,12.246-5.483,12.246-12.246V128.893L423.04,52.542z"/>
<g>
	<path style="fill:#D09C84;" d="M423.04,52.542h-90.816V512h114.417c6.763,0,12.246-5.483,12.246-12.246V128.893L423.04,52.542z"/>
	<polygon style="fill:#D09C84;" points="423.04,52.542 193.47,52.542 157.624,128.893 458.887,128.893 	"/>
</g>
<path style="fill:#754A41;" d="M446.642,512h-59.447V128.893l35.847-76.351l35.847,76.351v370.862
	C458.887,506.517,453.405,512,446.642,512z"/>
<polygon style="fill:#663E32;" points="458.887,128.893 440.964,90.717 423.04,52.542 423.04,52.542 387.194,128.893 "/>
<path style="fill:#D9DDE2;" d="M227.518,512H109.031c-6.725,0-12.374-5.057-13.115-11.742L68.23,250.583H268.32l-27.686,249.676
	C239.893,506.943,234.243,512,227.518,512z"/>
<path style="fill:#C8CBCE;" d="M213.139,250.583L184.152,512h43.366c6.725,0,12.374-5.058,13.115-11.742l27.686-249.676
	L213.139,250.583L213.139,250.583z"/>
<path style="fill:#D9DDE2;" d="M264.19,237.471l-7.059-29.505c-0.339-1.417-1.606-2.416-3.063-2.416H82.482
	c-1.457,0-2.724,0.999-3.063,2.416l-7.059,29.505c-0.339,1.417-1.606,2.416-3.063,2.416H56.262c-1.739,0-3.149,1.41-3.149,3.149
	v21.916c0,1.739,1.41,3.149,3.149,3.149h224.027c1.739,0,3.149-1.41,3.149-3.149v-21.916c0-1.739-1.41-3.149-3.149-3.149h-13.036
	C265.796,239.887,264.529,238.888,264.19,237.471z"/>
<path style="fill:#E9EAEB;" d="M280.309,239.889c-0.007,0-0.013,0.002-0.02,0.002H56.262c-0.007,0-0.013-0.002-0.02-0.002
	c-1.73,0.011-3.129,1.415-3.129,3.147v21.916c0,1.739,1.41,3.149,3.149,3.149h224.027c1.739,0,3.149-1.41,3.149-3.149v-21.916
	C283.438,241.304,282.039,239.9,280.309,239.889z"/>
<path style="fill:#D9DDE2;" d="M283.374,242.403c-0.019-0.094-0.057-0.181-0.084-0.272c-0.032-0.106-0.056-0.216-0.098-0.317
	c-0.055-0.131-0.13-0.251-0.201-0.372c-0.031-0.052-0.053-0.11-0.087-0.161c-0.101-0.15-0.218-0.288-0.343-0.418
	c-0.014-0.014-0.024-0.032-0.038-0.046c-0.565-0.567-1.344-0.92-2.207-0.927c-0.002,0-0.004-0.001-0.006-0.001
	c-0.007,0-0.013,0.002-0.02,0.002h-62.178c5.727,0.043,10.357,4.695,10.357,10.432v17.778h51.821c0.87,0,1.657-0.352,2.227-0.922
	c0.285-0.285,0.515-0.624,0.675-1.001c0.08-0.188,0.142-0.386,0.183-0.591c0.042-0.205,0.064-0.417,0.064-0.635v-21.916
	C283.438,242.819,283.415,242.607,283.374,242.403z"/>
<g>
	<polygon style="fill:#77D057;" points="269.902,52.542 234.054,128.893 296.974,128.893 332.821,52.542 	"/>
	<rect x="269.93" y="0.17" style="fill:#77D057;" width="62.893" height="52.37"/>
</g>
<polygon style="fill:#BC8975;" points="368.667,52.542 332.821,128.893 387.194,128.893 423.04,52.542 "/>
<g>
	<path style="fill:#D9DDE2;" d="M282.56,240.863c0.125,0.13,0.242,0.268,0.343,0.418C282.802,241.13,282.685,240.993,282.56,240.863
		z"/>
	<path style="fill:#D9DDE2;" d="M282.99,241.441c0.072,0.121,0.146,0.241,0.201,0.372
		C283.135,241.683,283.062,241.562,282.99,241.441z"/>
	<path style="fill:#D9DDE2;" d="M283.29,242.131c0.027,0.091,0.065,0.178,0.084,0.272
		C283.355,242.308,283.316,242.222,283.29,242.131z"/>
</g>
<path style="fill:#C8CBCE;" d="M218.031,239.887L218.031,239.887c0.027,0,0.052,0.004,0.079,0.004h62.178
	c0.007,0,0.013-0.002,0.02-0.002c-0.007,0-0.013-0.002-0.02-0.002h-13.036c-1.457,0-2.724-0.999-3.063-2.416l-7.059-29.505
	c-0.339-1.417-1.606-2.416-3.063-2.416h-52.485l6.3,26.33C209.005,236.575,213.203,239.887,218.031,239.887z"/>
<path style="fill:#D9DDE2;" d="M282.521,240.816c-0.565-0.568-1.344-0.92-2.207-0.927
	C281.177,239.897,281.957,240.249,282.521,240.816z"/>
<g>
	<polygon style="fill:#754A41;" points="245.343,457.784 261.036,316.262 75.514,316.262 91.206,457.784 	"/>
	<polygon style="fill:#754A41;" points="245.343,457.784 261.036,316.262 75.514,316.262 91.206,457.784 	"/>
</g>
<circle style="fill:#77D057;" cx="168.279" cy="387.34" r="50.975"/>
<circle style="fill:#CDEAE0;" cx="168.279" cy="387.34" r="23.836"/>
<g>
</g>
<g>
</g>
<g>
</g>
<g>
</g>
<g>
</g>
<g>
</g>
<g>
</g>
<g>
</g>
<g>
</g>
<g>
</g>
<g>
</g>
<g>
</g>
<g>
</g>
<g>
</g>
<g>
</g>
</svg>
