<?xml version="1.0" encoding="iso-8859-1"?>
<!-- Generator: Adobe Illustrator 19.0.0, SVG Export Plug-In . SVG Version: 6.00 Build 0)  -->
<svg version="1.1" id="Capa_1" xmlns="http://www.w3.org/2000/svg" xmlns:xlink="http://www.w3.org/1999/xlink" x="0px" y="0px"
	 viewBox="0 0 446.989 446.989" style="enable-background:new 0 0 446.989 446.989;" xml:space="preserve">
<path style="fill:#B6C1CC;" d="M239.629,141.433l-17.408,14.208l10.128-10.528l-15.664,15.008l-86,33.312l-47.744,26.256
	l9.744,38.64l32.944-8.24l5.888,21.296l32.24-8.448l8.592,32.832l32.832-8.592l8.592,32.832l32.832-8.592l8.592,32.832l32.832-8.592
	l8.592,32.832l32.832-8.592l8.592,32.832l32.832-8.592l8.592,32.832l67.472-68.128L239.629,141.433z M390.061,358.169
	c-5.632-5.68-5.552-14.896,0.128-20.544c5.76-5.632,14.896-5.584,20.544,0.144c5.68,5.712,5.6,14.896-0.128,20.496
	C404.893,363.881,395.725,363.801,390.061,358.169z"/>
<path style="fill:#643A20;" d="M239.373,164.105c5.808-6.256,5.904-16.272,0.096-22.512c-0.608-0.656-46.112-49.632-46.704-50.272
	c-10.528-11.376-18.064-5.024-25.136-19.712c-6.992-15.104-21.232-31.952-39.328-40.944c-4.944-2.352-10.32,2.064-9.136,7.984
	c3.232,15.008,12.272,24.048,0.208,34.592c-3.76,3.376-23.408,8.96-28.48,10.576c-31.888,9.712-45.968,28.368-60.112,44.096
	c-8.256,9.76-16.704,0.912-25.392,8.448c-9.36,8.224-5.472,21.584,3.6,27.168c15.344,9.456,19.504,23.856,28.944,36.336
	c13.856,18.4,32.8,34.864,54.048,29.152l106.72-31.152C215.757,192.905,226.573,177.865,239.373,164.105z M170.413,149.529
	c-10.288,9.456-49.824,28.736-88.464,35.168c-5.392,0.8-11.104-1.344-14.784-6.24c-7.488-9.92-2.688-24.88,8.88-27.728
	c24.688-7.344,48.576-19.008,70.72-35.28c8.416-6.256,20.048-4.576,26.576,4.176C180.221,128.745,178.925,142.137,170.413,149.529z"
	/>
<g>
	<polygon style="fill:#92A2B3;" points="181.997,269.433 367.629,269.433 351.629,253.433 177.805,253.433 	"/>
	<path style="fill:#92A2B3;" d="M225.213,300.441l32.832-8.592l8.592,32.832l32.848-8.592l8.592,32.832l32.832-8.592l8.608,32.832
		l32.832-8.592l10.256,39.152l54.384-54.928l-63.36-63.36H221.277L225.213,300.441z M390.189,337.625
		c5.76-5.632,14.896-5.584,20.544,0.144c5.68,5.712,5.6,14.896-0.128,20.496c-5.696,5.616-14.864,5.552-20.528-0.096
		C384.429,352.473,384.493,343.273,390.189,337.625z"/>
</g>
<g>
	<path style="fill:#482C1B;" d="M173.437,99.321c-11.376-5.712-20.576-8.352-36.144,3.248
		c-20.112,14.768-42.256,25.808-65.088,32.624c-10.448,2.576-18.928,10.368-22.64,20.848c-1.856,5.248-2.416,10.752-1.712,16.048
		c0.528,3.952,3.104,7.328,6.768,8.864c3.68,1.536,7.888,1.024,11.072-1.376l1.472-1.104c-7.488-9.92-2.688-24.88,8.88-27.728
		c24.688-7.344,48.576-19.008,70.72-35.28c8.416-6.256,20.048-4.576,26.576,4.176c3.12-2.32,6.576-7.408,6.24-11.28
		C179.245,104.473,176.909,101.065,173.437,99.321z"/>
	<path style="fill:#482C1B;" d="M91.997,229.033l106.736-31.152c17.024-4.976,27.856-20,40.64-33.776
		c5.744-6.192,5.872-16.064,0.224-22.32l-11.936,11.424c-2.256,2.416-4.448,4.88-6.624,7.328
		c-9.152,10.272-17.04,19.12-26.784,21.968L87.837,213.561c-1.952,0.544-4.56,0.96-7.952,0.272
		c-7.648-1.552-15.488,1.6-19.936,8.016C69.661,228.585,80.477,232.137,91.997,229.033z"/>
</g>
<g>
</g>
<g>
</g>
<g>
</g>
<g>
</g>
<g>
</g>
<g>
</g>
<g>
</g>
<g>
</g>
<g>
</g>
<g>
</g>
<g>
</g>
<g>
</g>
<g>
</g>
<g>
</g>
<g>
</g>
</svg>
