<svg id="Layer_1" height="512" viewBox="0 0 128 128" width="512" xmlns="http://www.w3.org/2000/svg"><g><g clip-rule="evenodd" fill-rule="evenodd"><path d="m75.048 61.009c17.49 0 32.088 12.217 35.83 28.572l-11.225 11.227h-61.172c-.085-1.049-.142-2.041-.142-3.119 0-20.239 16.413-36.68 36.709-36.68z" fill="#a28982"/><path d="m108.837 91.622-22.309 16.867-47.792-7.682c2.523-17.803 17.83-31.465 36.312-31.465 15.165.001 28.177 9.157 33.789 22.28z" fill="#94776f"/></g><g clip-rule="evenodd" fill-rule="evenodd"><path d="m86.755 99.729 22.45-12.955c3.401-1.982 7.795-.793 9.751 2.609 1.956 3.4.794 7.766-2.607 9.75l-26.816 15.479c-1.616.936-3.345 1.162-5.131.68l-46.176-12.387-15.194 8.787-14.938-25.88 25.909-14.996c3.912-3.174 9.241-4.506 14.457-3.09 5.244 1.391 9.185 5.217 10.97 9.922l25.2 6.746c3.798 1.021 6.066 4.934 5.045 8.73-1.021 3.799-4.96 6.066-8.73 5.047z" fill="#fed1ad"/><path d="m60.251 100.921c-1.786-.482-2.863-2.354-2.381-4.168l1.19-4.449 21.884 5.867 5.811 1.559-1.191 4.451c-.482 1.814-2.353 2.891-4.167 2.408-4.875-1.332-16.242-4.365-21.146-5.668z" fill="#fdbf8c"/></g><g><path d="m77.713 65.475c-.552 0-1-.447-1-1v-26.162c0-.553.448-1 1-1s1 .447 1 1v26.162c0 .552-.448 1-1 1z" fill="#94776f"/></g><g clip-rule="evenodd" fill-rule="evenodd"><g><path d="m103.848 19.368s4.819 11.848-4.734 21.43c-9.553 9.553-21.401 4.732-21.401 4.732s-4.819-11.848 4.734-21.43c9.553-9.552 21.401-4.732 21.401-4.732z" fill="#59a2a0"/><path d="m103.848 19.368s4.819 11.848-4.734 21.43c-9.553 9.553-21.401 4.732-21.401 4.732z" fill="#3d9390"/></g><g><path d="m46.135 13.925s-5.839 14.314 5.726 25.881c11.537 11.537 25.852 5.725 25.852 5.725s5.839-14.342-5.726-25.879c-11.537-11.538-25.852-5.727-25.852-5.727z" fill="#bdd88d"/><path d="m46.135 13.925s-5.839 14.314 5.726 25.881c11.537 11.537 25.852 5.725 25.852 5.725z" fill="#aacd6d"/></g></g></g></svg>