<?xml version="1.0" encoding="iso-8859-1"?>
<!-- Generator: Adobe Illustrator 19.0.0, SVG Export Plug-In . SVG Version: 6.00 Build 0)  -->
<svg xmlns="http://www.w3.org/2000/svg" xmlns:xlink="http://www.w3.org/1999/xlink" version="1.1" id="Layer_1" x="0px" y="0px" viewBox="0 0 512 512" style="enable-background:new 0 0 512 512;" xml:space="preserve">
<path style="fill:#91DC5A;" d="M495.094,95.099h-54.516l42.629-42.629c6.566-6.561,6.566-17.21,0-23.772  c-6.566-6.566-17.206-6.566-23.772,0l-42.629,42.629V16.811c0-9.286-7.53-16.811-16.811-16.811c-9.281,0-16.811,7.525-16.811,16.811  v95.099c0,9.177,7.512,16.811,16.811,16.811h95.099c9.281,0,16.811-7.525,16.811-16.811S504.375,95.099,495.094,95.099z"/>
<path style="fill:#88CC2A;" d="M495.094,95.099h-54.516l42.629-42.629c6.566-6.561,6.566-17.21,0-23.772  c-6.566-6.566-17.206-6.566-23.772,0l-42.629,42.629V16.811c0-9.286-7.53-16.811-16.811-16.811c-9.281,0-16.811,7.525-16.811,16.811  v95.099c0,9.177,7.512,16.811,16.811,16.811h95.099c9.281,0,16.811-7.525,16.811-16.811S504.375,95.099,495.094,95.099z"/>
<path style="fill:#FF9F19;" d="M413.99,97.926C361.608,45.543,286.876,34.844,247.57,74.151  c-4.596,4.596-12.996,14.265-24.012,27.816c-6.181,7.609-13.313,16.484-21,26.391c-17.911,22.981-39.227,51.274-61.099,81.705  c-6.499,9.034-13.078,18.305-19.654,27.737C67.361,316.092-31.198,461.069,9.826,502.092  c29.877,29.877,112.532-13.472,178.705-54.918c10.064-6.26,19.733-12.602,28.846-18.545c36.623-24.011,71.688-48.358,112.137-78.216  c8.614-6.315,27.103-20.289,27.103-20.289c16.671-12.676,66.386-51.011,81.149-65.776  C478.419,223.692,465.502,149.437,413.99,97.926z"/>
<path style="fill:#7FB335;" d="M495.095,95.099h-54.516l42.629-42.629c6.555-6.55,6.563-17.167,0.033-23.733l-95.068,95.068  c3.035,3.02,7.204,4.917,11.823,4.917h95.099c9.28-0.001,16.811-7.525,16.811-16.811C511.905,102.624,504.375,95.098,495.095,95.099  z"/>
<g>
	<path style="fill:#F28618;" d="M437.765,264.347c-14.765,14.765-64.483,53.103-81.149,65.776   c-7.863,5.979-18.283,13.822-27.103,20.289c-40.492,29.89-75.563,54.238-112.137,78.216c-9.113,5.944-18.781,12.284-28.846,18.545   c-66.173,41.446-148.828,84.795-178.705,54.918L413.99,97.926C465.502,149.437,478.419,223.692,437.765,264.347z"/>
	<path style="fill:#F28618;" d="M259.457,161.641c-3.249,3.249-7.528,4.835-11.887,4.913c-4.28,0-8.559-1.743-11.809-4.993   l-33.204-33.204c7.687-9.906,14.82-18.781,21-26.391l35.899,35.899C266.115,144.366,266.034,155.064,259.457,161.641z"/>
	<path style="fill:#F28618;" d="M188.134,280.513c-3.249,3.249-7.528,4.835-11.887,4.913c-4.28,0-8.559-1.743-11.809-4.993   l-42.635-42.635c6.576-9.432,13.154-18.703,19.654-27.737l46.676,46.676C194.712,263.317,194.711,273.936,188.134,280.513z"/>
</g>
<g>
	<path style="fill:#E67400;" d="M356.615,330.122c0,0-15.17,11.54-27.103,20.289l-30.353-30.353   c-6.656-6.498-6.578-17.198-0.078-23.696c6.578-6.578,17.198-6.578,23.774,0L356.615,330.122z"/>
	<path style="fill:#E67400;" d="M217.376,428.627c-9.113,5.944-18.781,12.284-28.846,18.545l-32.016-32.016   c-6.656-6.498-6.578-17.198,0-23.774c6.498-6.498,17.118-6.498,23.696,0.078L217.376,428.627z"/>
</g>
<g>
</g>
<g>
</g>
<g>
</g>
<g>
</g>
<g>
</g>
<g>
</g>
<g>
</g>
<g>
</g>
<g>
</g>
<g>
</g>
<g>
</g>
<g>
</g>
<g>
</g>
<g>
</g>
<g>
</g>
</svg>
