<?xml version="1.0"?>
<svg xmlns="http://www.w3.org/2000/svg" id="Layer_1" data-name="Layer 1" viewBox="0 0 512 512" width="512" height="512"><title>Garlic</title><path d="M223.89,129.75c10.05-7.54,20.76-11.76,31.89-11.76,11.23,0,22.04,4.3,32.18,11.96,41.69,31.51,71.82,119.86,71.82,199.28,0,50.84-12.35,88.11-32.19,112.29-18.66,22.77-43.95,33.95-71.81,33.95-27.77,0-52.99-11.11-71.63-33.74-19.94-24.18-32.36-61.51-32.36-112.5C151.79,249.63,182.06,161.07,223.89,129.75Z" style="fill:#cec291"/><path d="M288.12,129.74c.73-.4,1.47-.77,2.21-1.13a47.654,47.654,0,0,1,5.89-2.37c54.63-17.73,131.66,68.8,160.39,157.31s-1.73,145.5-56.36,163.23c-24.41,7.93-49.52,6.67-72.39-5.04l-.27-.22c19.84-24.18,32.19-61.45,32.19-112.29,0-79.42-30.13-167.77-71.82-199.28Z" style="fill:#e8e2ba"/><path d="M255.78,117.99c-11.13,0-21.84,4.22-31.89,11.76l-.01-.01c-.18-.1-.36-.19-.54-.28v-.01l7.96-38.82c2.89-14.14,6.73-17.99.89-31.19l-.55-1.25,52.62-21.66c-3.28,7.78-4.72,19.75-4.72,31.17a105.01,105.01,0,0,0,2.04,21.78l8.75,39.13c-.74.36-1.48.73-2.21,1.13l-.16.21C277.82,122.29,267.01,117.99,255.78,117.99Z" style="fill:#7ead79"/><path d="M184.14,441.74c-22.87,11.71-47.98,12.97-72.39,5.04-54.63-17.73-85.09-74.71-56.36-163.23S161.15,108.51,215.78,126.24a48.469,48.469,0,0,1,7.56,3.21v.01c.18.09.36.18.54.28l.01.01c-41.83,31.32-72.1,119.88-72.1,199.48,0,50.99,12.42,88.32,32.36,112.5Z" style="fill:#e8e2ba"/></svg>
