<svg id="color" enable-background="new 0 0 24 24" height="512" viewBox="0 0 24 24" width="512" xmlns="http://www.w3.org/2000/svg"><path d="m21 15.75c-.414 0-.75-.336-.75-.75v-1.5h-16.5v1.5c0 .414-.336.75-.75.75s-.75-.336-.75-.75v-2.25c0-.414.336-.75.75-.75h18c.414 0 .75.336.75.75v2.25c0 .414-.336.75-.75.75z" fill="#607d8b"/><path d="m12 16c-.414 0-.75-.336-.75-.75v-4.5c0-.414.336-.75.75-.75s.75.336.75.75v4.5c0 .414-.336.75-.75.75z" fill="#607d8b"/><g fill="#4caf50"><circle cx="3" cy="18.5" r="1.5"/><path d="m3.75 21h-1.5c-1.24 0-2.25 1.009-2.25 2.25 0 .414.336.75.75.75h4.5c.414 0 .75-.336.75-.75 0-1.241-1.01-2.25-2.25-2.25z"/><circle cx="12" cy="18.5" r="1.5"/><path d="m12.75 21h-1.5c-1.24 0-2.25 1.009-2.25 2.25 0 .414.336.75.75.75h4.5c.414 0 .75-.336.75-.75 0-1.241-1.01-2.25-2.25-2.25z"/><circle cx="21" cy="18.5" r="1.5"/><path d="m21.75 21h-1.5c-1.24 0-2.25 1.009-2.25 2.25 0 .414.336.75.75.75h4.5c.414 0 .75-.336.75-.75 0-1.241-1.01-2.25-2.25-2.25z"/></g><circle cx="12" cy="2" fill="#2196f3" r="2"/><path d="m13.25 5h-2.5c-1.517 0-2.75 1.233-2.75 2.75v.5c0 .414.336.75.75.75h6.5c.414 0 .75-.336.75-.75v-.5c0-1.517-1.233-2.75-2.75-2.75z" fill="#2196f3"/></svg>