<svg id="Capa_1" enable-background="new 0 0 512 512" height="512" viewBox="0 0 512 512" width="512" xmlns="http://www.w3.org/2000/svg"><g><g><path d="m446.137 301.326-4.043-29.736c22.177-3.003 39.906-22.178 39.906-44.59v-91c0-24.814-20.186-45-45-45h-31v-30h31c41.367 0 75 33.647 75 75v91c0 37.354-28.891 69.316-65.863 74.326z" fill="#d9e5ff"/></g><g id="Olive_Oil_4_"><g><path d="m286 31c-8.401 0-12.001-4.3-19.501-11.501-8.098-8.399-19.198-19.499-40.499-19.499-22.5 0-39.3 17.999-41.1 20.099l-8.401 9 7.5 9.901c.301.6 27.001 37.3 27.001 97 0 9.6-.3 18.6-1.199 26.999l16.199 18.001h135l45-15 15-41.1v-93.9z" fill="#f2f6ff"/><path d="m315.941 181h45.059l45-15 15-41.1v-93.9h-105.059z" fill="#d9e5ff"/><path d="m481 377c0 50.905-31.587 100.878-69.3 135h-191.4c-5.164-4.569-6.53-5.68-27.299-27.601l18.9-8.699c17.999-8.4 29.099-23.4 29.099-38.7 0-25.727-32.596-50.199-72.299-44.101l-17.701 3.301c2.762-18.915-10.667-39.446 28.2-126.901 13.2-29.7 26.7-60.7 30.601-106.3l16.199-11.999s20.099-15 45-15c45 0 45 15 90 15 24.901 0 45-15 45-15l15-11.1v11.1c0 61.199 16.199 98.2 31.8 133.299 14.399 32.401 28.2 62.701 28.2 107.701z" fill="#ffdf40"/></g></g><g><path d="m90 347h-30v-60c0-41.353 33.633-75 75-75v30c-24.814 0-45 20.186-45 45z" fill="#663d3d"/></g><g id="Olive_Oil_2_"><g><path d="m90 362h-15c-41.367 0-75-33.647-75-75v-75h15c41.367 0 75 33.647 75 75z" fill="#3d995b"/></g></g><g><path d="m181 512c-28.301 0-55.404-10.737-72.631-29.443l-8.438-9.17c3.091-5.472 20.069-19.782 20.069-51.387 0-16.893-5.478-28.329-7.441-35.508l8.877-6.387c15.695-11.26 36.855-18.105 59.564-18.105 49.629 0 90 33.647 90 75 0 38.418-36.523 75-90 75z" fill="#8cd96b"/></g><path d="m271 437c0-41.353-40.371-75-90-75v150c53.478 0 90-36.583 90-75z" fill="#5ab267"/><g><path d="m75 512c-41.367 0-75-40.371-75-90s33.633-90 75-90c39.251 0 75 37.49 75 90 0 53.527-36.73 90-75 90z" fill="#8cd96b"/></g><path d="m150 422c0-52.511-35.75-90-75-90v180c38.271 0 75-36.473 75-90z" fill="#5ab267"/><g><path d="m481 377c0-45-13.801-75.3-28.2-107.701-15.601-35.099-31.8-72.1-31.8-133.299v-11.1l-15 11.1s-20.099 15-45 15c-22.538 0-33.79-3.763-45.059-7.518v368.518h95.759c37.712-34.122 69.3-84.095 69.3-135z" fill="#ffbe40"/></g></g></svg>