<?xml version="1.0" encoding="iso-8859-1"?>
<!-- Generator: Adobe Illustrator 19.0.0, SVG Export Plug-In . SVG Version: 6.00 Build 0)  -->
<svg version="1.1" id="Capa_1" xmlns="http://www.w3.org/2000/svg" xmlns:xlink="http://www.w3.org/1999/xlink" x="0px" y="0px"
	 viewBox="0 0 512 512" style="enable-background:new 0 0 512 512;" xml:space="preserve">
<polygon style="fill:#00DD7E;" points="343.371,30.691 280.959,118.602 268.614,109.839 256,107.428 255.48,107.328 
	243.766,109.569 231.041,118.602 168.629,30.691 193.098,13.315 222.638,54.919 213.205,5.642 242.685,0 255.48,66.924 256,64.203 
	268.284,0 297.765,5.642 287.951,56.91 318.902,13.315 "/>
<polygon style="fill:#00CB7E;" points="343.371,30.691 280.959,118.602 268.614,109.839 256,107.428 256,64.203 268.284,0 
	297.765,5.642 287.951,56.91 318.902,13.315 "/>
<path style="fill:#FFDBA9;" d="M356.505,200.661v130.386c0,0.68-0.02,4.692-0.51,10.894c-1.751,22.598-9.603,74.446-44.546,101.336
	c-10.274,7.903-18.717,17.356-25.109,28.11c-9.883,16.646-15.335,31.061-15.335,40.614h-30.011c0-9.553-5.452-23.968-15.335-40.614
	c-6.392-10.754-14.835-20.207-25.109-28.11c-15.365-11.824-25.489-28.46-32.161-45.316c-4.061-10.274-6.842-20.627-8.753-30.011
	c-4.041-19.897-4.141-35.482-4.141-36.903V200.661c0-0.92,0-1.841,0.01-2.771c0.1-9.984,0.73-20.077,2.711-30.011
	c3.941-19.727,13.165-38.854,33.962-55.319c22.768-18.026,58.941-20.527,62.992-20.747l0.83-0.05l0.83,0.05
	c4.051,0.22,40.224,2.721,62.992,20.747C352.054,138.089,356.505,169.99,356.505,200.661z"/>
<path style="fill:#FFC473;" d="M356.505,200.661v130.386c0,0.68-0.02,4.692-0.51,10.894c-1.751,22.598-9.603,74.446-44.546,101.336
	c-10.274,7.903-18.717,17.356-25.109,28.11c-9.883,16.646-15.335,31.061-15.335,40.614H256V91.762l0.83,0.05
	c4.051,0.22,40.224,2.721,62.992,20.747C352.054,138.089,356.505,169.99,356.505,200.661z"/>
<path style="fill:#FFB74F;" d="M206.983,167.879v30.011h-51.478c0.1-9.984,0.73-20.077,2.711-30.011H206.983z"/>
<rect x="298.405" y="218.567" style="fill:#FF9500;" width="58.1" height="30.011"/>
<rect x="155.495" y="255.91" style="fill:#FFB74F;" width="65.826" height="30.011"/>
<path style="fill:#FF9500;" d="M356.505,311.93v19.117c0,0.68-0.02,4.692-0.51,10.894h-69.317V311.93H356.505z"/>
<path style="fill:#FFB74F;" d="M212.985,367.949v30.011h-44.596c-4.061-10.274-6.842-20.627-8.753-30.011H212.985z"/>
<g>
</g>
<g>
</g>
<g>
</g>
<g>
</g>
<g>
</g>
<g>
</g>
<g>
</g>
<g>
</g>
<g>
</g>
<g>
</g>
<g>
</g>
<g>
</g>
<g>
</g>
<g>
</g>
<g>
</g>
</svg>
