<svg height="512" viewBox="0 0 64 64" width="512" xmlns="http://www.w3.org/2000/svg"><g id="flat"><circle cx="32" cy="32" fill="#f4f4e6" r="28"/><path d="m46 32a4.955 4.955 0 0 0 -3.053 1.066l-3.3-2.825c1.625-1.207 4.208-2.241 8.353-2.241v-2h-11l-4-3h-3.969l.75-3h4.25v-2h-5.031a1 1 0 0 0 -.97.758l-.991 4.242h-7.039v6h4.132l-2.249 3.373a4.993 4.993 0 1 0 1.665 1.107l2.63-3.945 2.822 8.465h8v-4a5.818 5.818 0 0 1 1.2-2.374l3.452 2.96a4.937 4.937 0 0 0 -.652 2.414 5 5 0 1 0 5-5zm-24 5a2 2 0 1 1 -2-2c.042 0 .082.01.123.012l-.955 1.433 1.664 1.11.956-1.434a1.985 1.985 0 0 1 .212.879zm24 2a1.984 1.984 0 0 1 -1.963-2.366l1.312 1.125 1.3-1.518-1.306-1.121a1.967 1.967 0 0 1 .657-.12 2 2 0 0 1 0 4z" fill="#143441"/><path d="m32 3a29 29 0 1 0 29 29 29 29 0 0 0 -29-29zm0 54a25 25 0 0 1 -25-25 24.694 24.694 0 0 1 6-16l35 35a24.694 24.694 0 0 1 -16 6zm19-9-35-35a24.694 24.694 0 0 1 16-6 25 25 0 0 1 25 25 24.694 24.694 0 0 1 -6 16z" fill="#dd3e46"/></g></svg>