<svg height="512pt" viewBox="0 -65 512 512" width="512pt" xmlns="http://www.w3.org/2000/svg"><path d="m482.109375 40.988281v297.972657h-452.28125v-297.972657c0-22.597656 18.53125-40.988281 41.3125-40.988281h369.660156c22.777344 0 41.308594 18.390625 41.308594 40.988281zm0 0" fill="#bde8f9"/><path d="m482.109375 40.988281v297.972657h-226.109375v-338.960938h184.800781c22.777344 0 41.308594 18.390625 41.308594 40.988281zm0 0" fill="#88d9f5"/><g fill="#fff"><path d="m287.070312 58.761719c0 8.277343-6.730468 15-15.023437 15h-33.765625c-8.296875 0-15.027344-6.722657-15.027344-15 0-8.292969 6.730469-15 15.027344-15h33.765625c8.292969 0 15.023437 6.707031 15.023437 15zm0 0"/><path d="m401.433594 131.191406c0 8.289063-6.71875 15-15.023438 15h-260.820312c-8.292969 0-15.023438-6.710937-15.023438-15 0-8.28125 6.730469-15 15.023438-15h260.820312c8.304688 0 15.023438 6.71875 15.023438 15zm0 0"/><path d="m230.171875 195.136719h-104.578125c-8.296875 0-15.023438-6.714844-15.023438-15 0-8.285157 6.726563-15 15.023438-15h104.578125c8.300781 0 15.027344 6.714843 15.027344 15 0 8.285156-6.726563 15-15.027344 15zm0 0"/><path d="m360.566406 229.519531c0 8.28125-6.722656 15-15.027344 15h-219.949218c-8.292969 0-15.023438-6.71875-15.023438-15s6.730469-15 15.023438-15h219.949218c8.304688 0 15.027344 6.71875 15.027344 15zm0 0"/></g><path d="m272.046875 73.761719h-16.046875v-30h16.046875c8.292969 0 15.023437 6.707031 15.023437 15 0 8.277343-6.730468 15-15.023437 15zm0 0" fill="#bde8f9"/><path d="m360.566406 229.519531c0 8.28125-6.722656 15-15.027344 15h-89.539062v-30h89.539062c8.304688 0 15.027344 6.71875 15.027344 15zm0 0" fill="#bde8f9"/><path d="m401.433594 131.191406c0 8.289063-6.71875 15-15.023438 15h-130.410156v-30h130.410156c8.304688 0 15.023438 6.71875 15.023438 15zm0 0" fill="#bde8f9"/><path d="m512 314.179688v19.261718c0 26.679688-21.945312 48.386719-48.921875 48.386719h-414.15625c-26.976563 0-48.921875-21.707031-48.921875-48.386719v-19.261718c0-5.417969 4.4375-9.808594 9.917969-9.808594h191.601562c5.519531-.082032 10.125 4.339844 10.125 9.808594 0 8.28125 6.800781 15.011718 15.175781 15.011718h58.359376c8.375 0 15.183593-6.730468 15.183593-15.011718 0-4.699219 3.367188-8.738282 8.035157-9.628907l193.6875-.179687c5.476562 0 9.914062 4.390625 9.914062 9.808594zm0 0" fill="#57545c"/><path d="m512 314.179688v19.261718c0 26.679688-21.945312 48.386719-48.921875 48.386719h-207.078125v-52.636719h29.179688c8.375 0 15.183593-6.730468 15.183593-15.011718 0-4.699219 3.367188-8.738282 8.035157-9.628907l193.683593-.179687c5.480469 0 9.917969 4.390625 9.917969 9.808594zm0 0" fill="#3a373f"/></svg>