<svg id="Capa_1" enable-background="new 0 0 512 512" height="512" viewBox="0 0 512 512" width="512" xmlns="http://www.w3.org/2000/svg"><g><path d="m241 297v54.73h-174.324v90.54h30v-60.54h144.324v60.54h15l10-72.635-10-72.635z" fill="#145383"/><path d="m271 351.73v-54.73h-15v145.27h15v-60.54h144.324v60.54h30v-90.54z" fill="#001737"/><path d="m205.292 0-22.646 42.646-40.381 20.381v237.272h113.735l20-170.565-20-129.734z" fill="#fff5f5"/><path d="m256 0h113.751v300.299h-113.751z" fill="#dce6eb"/><path d="m205.292 0v63.027h-63.027z" fill="#dce6eb"/><g><path d="m256 159.104h-67.335v-30h67.335l10 15z" fill="#dce6eb"/></g><g><path d="m256 129.104h67.352v30h-67.352z" fill="#c8d2dc"/></g><g><path d="m256 220.972h-67.335v-30h67.335l10 15z" fill="#dce6eb"/></g><g><path d="m256 190.972h67.352v30h-67.352z" fill="#c8d2dc"/></g><path d="m378.027 436.798h104.595v75.202h-104.595z" fill="#3d9ae2"/><path d="m29.378 436.798h104.595v75.202h-104.595z" fill="#69b1e9"/><path d="m203.703 436.798v75.202h52.297l20-34.152-20-41.05z" fill="#69b1e9"/><path d="m256 436.798h52.297v75.202h-52.297z" fill="#3d9ae2"/></g></svg>