<svg id="Capa_1" enable-background="new 0 0 512 512" height="512" viewBox="0 0 512 512" width="512" xmlns="http://www.w3.org/2000/svg"><g><path d="m382.959 337.922v-34.804c0-4.506-2.928-8.489-7.229-9.833l-39.321-12.288c-3.173-.992-5.654-3.461-6.706-6.614-2.181-6.542-4.812-12.878-7.86-18.97-1.488-2.976-1.482-6.478.062-9.425l19.116-36.495c2.091-3.991 1.345-8.878-1.841-12.065l-24.61-24.61c-3.186-3.186-8.073-3.932-12.065-1.841l-36.495 19.116c-2.948 1.544-6.449 1.55-9.425.062-6.092-3.047-12.428-5.678-18.97-7.86-3.154-1.052-5.623-3.532-6.614-6.706l-12.288-39.321c-1.344-4.301-5.327-7.229-9.833-7.229h-34.804c-4.506 0-8.489 2.928-9.833 7.229l-12.288 39.321c-.992 3.173-3.461 5.654-6.614 6.706-6.542 2.181-12.878 4.812-18.97 7.86-2.976 1.488-6.478 1.482-9.425-.062l-36.495-19.116c-3.991-2.091-8.878-1.345-12.065 1.841l-24.61 24.61c-3.186 3.186-3.932 8.073-1.841 12.065l19.116 36.495c1.544 2.948 1.55 6.449.062 9.425-3.047 6.092-5.678 12.428-7.86 18.97-1.052 3.154-3.532 5.623-6.706 6.614l-39.318 12.289c-4.301 1.344-7.229 5.327-7.229 9.832v34.804c0 4.506 2.928 8.489 7.229 9.833l39.321 12.288c3.173.992 5.654 3.461 6.706 6.614 2.181 6.542 4.812 12.878 7.86 18.97 1.488 2.976 1.482 6.478-.062 9.425l-19.116 36.495c-2.091 3.991-1.345 8.878 1.841 12.065l24.61 24.61c3.186 3.186 8.073 3.932 12.065 1.841l36.495-19.116c2.948-1.544 6.449-1.55 9.425-.062 6.092 3.047 12.428 5.678 18.97 7.86 3.154 1.052 5.623 3.532 6.614 6.706l12.288 39.321c1.344 4.301 5.327 7.229 9.833 7.229h34.804c4.506 0 8.489-2.928 9.833-7.229l12.288-39.321c.992-3.173 3.461-5.654 6.614-6.706 6.542-2.181 12.878-4.812 18.97-7.86 2.976-1.488 6.478-1.482 9.425.062l36.495 19.116c3.991 2.091 8.878 1.345 12.065-1.841l24.61-24.61c3.186-3.186 3.932-8.073 1.841-12.065l-19.116-36.495c-1.544-2.948-1.55-6.449-.062-9.425 3.047-6.092 5.678-12.428 7.86-18.97 1.052-3.154 3.532-5.623 6.706-6.614l39.321-12.288c4.298-1.344 7.226-5.327 7.226-9.833zm-191.479 32.55c-27.587 0-49.951-22.364-49.951-49.951s22.364-49.951 49.951-49.951 49.951 22.364 49.951 49.951-22.364 49.951-49.951 49.951z" fill="#9facba"/><path d="m382.959 337.922v-34.804c0-4.506-2.928-8.489-7.229-9.833l-39.321-12.288c-3.173-.992-5.654-3.461-6.706-6.614-2.181-6.542-4.812-12.878-7.86-18.97-1.488-2.976-1.482-6.478.062-9.425l19.116-36.495c2.091-3.991 1.345-8.878-1.841-12.065l-24.61-24.61c-3.186-3.186-8.073-3.932-12.065-1.841l-10.885 5.701c7.085 20.272 10.871 42.093 10.68 64.826-.872 104.09-85.748 188.965-189.837 189.837-22.734.19-44.554-3.595-64.826-10.68l-5.701 10.885c-2.091 3.991-1.345 8.878 1.841 12.065l24.61 24.61c3.186 3.186 8.073 3.932 12.065 1.841l36.495-19.116c2.948-1.544 6.449-1.55 9.425-.062 6.092 3.047 12.428 5.678 18.97 7.86 3.154 1.052 5.623 3.532 6.614 6.706l12.288 39.321c1.344 4.301 5.327 7.229 9.833 7.229h34.804c4.506 0 8.489-2.928 9.833-7.229l12.288-39.321c.992-3.173 3.461-5.654 6.614-6.706 6.542-2.181 12.878-4.812 18.97-7.86 2.976-1.488 6.478-1.482 9.425.062l36.495 19.116c3.991 2.091 8.878 1.345 12.065-1.841l24.61-24.61c3.186-3.186 3.932-8.073 1.841-12.065l-19.116-36.495c-1.544-2.948-1.55-6.449-.062-9.425 3.047-6.092 5.678-12.428 7.86-18.97 1.052-3.154 3.532-5.623 6.706-6.614l39.321-12.288c4.3-1.343 7.228-5.326 7.228-9.832z" fill="#8d9ca8"/><path d="m191.48 226.862c-51.644 0-93.659 42.015-93.659 93.659s42.015 93.659 93.659 93.659 93.659-42.015 93.659-93.659-42.016-93.659-93.659-93.659zm0 143.61c-27.587 0-49.951-22.364-49.951-49.951s22.364-49.951 49.951-49.951 49.951 22.364 49.951 49.951-22.364 49.951-49.951 49.951z" fill="#596c76"/><g><path d="m512 100.091v-10.783c0-4.77-3.275-8.917-7.916-10.022l-17.026-4.054c-3.209-.764-5.87-3.015-7.119-6.069-.092-.225-.185-.449-.279-.672-1.286-3.05-1.004-6.533.731-9.352l9.173-14.907c2.5-4.063 1.884-9.31-1.489-12.684l-7.625-7.625c-3.373-3.373-8.621-3.989-12.684-1.489l-14.907 9.173c-2.819 1.735-6.302 2.017-9.352.731-.224-.094-.448-.187-.672-.279-3.053-1.249-5.304-3.909-6.069-7.119l-4.054-17.026c-1.103-4.639-5.249-7.914-10.02-7.914h-10.783c-4.77 0-8.917 3.275-10.022 7.916l-4.054 17.026c-.764 3.209-3.015 5.869-6.069 7.119-.225.092-.449.185-.672.279-3.05 1.287-6.533 1.004-9.352-.731l-14.907-9.173c-4.063-2.5-9.31-1.884-12.684 1.489l-7.625 7.625c-3.373 3.373-3.989 8.621-1.489 12.684l9.173 14.907c1.735 2.819 2.017 6.302.731 9.352-.094.223-.187.448-.279.672-1.249 3.053-3.909 5.304-7.119 6.069l-17.026 4.054c-4.641 1.105-7.916 5.251-7.916 10.022v10.783c0 4.77 3.275 8.917 7.916 10.022l17.026 4.054c3.209.764 5.869 3.015 7.119 6.069.092.225.185.449.279.672 1.286 3.05 1.004 6.533-.731 9.352l-9.173 14.907c-2.5 4.063-1.884 9.31 1.489 12.684l7.625 7.625c3.373 3.373 8.621 3.989 12.684 1.489l14.907-9.173c2.819-1.735 6.302-2.017 9.352-.731.224.094.448.187.672.279 3.053 1.249 5.304 3.909 6.069 7.119l4.054 17.026c1.105 4.641 5.251 7.916 10.022 7.916h10.783c4.77 0 8.917-3.275 10.022-7.916l4.054-17.026c.764-3.209 3.015-5.869 6.069-7.119.225-.092.449-.185.672-.279 3.05-1.286 6.533-1.004 9.352.731l14.907 9.173c4.063 2.5 9.31 1.884 12.684-1.489l7.625-7.625c3.373-3.373 3.989-8.621 1.489-12.684l-9.173-14.907c-1.735-2.819-2.017-6.302-.731-9.352.094-.223.187-.448.279-.672 1.249-3.053 3.909-5.305 7.119-6.069l17.026-4.054c4.639-1.108 7.914-5.254 7.914-10.024zm-94.699 21.665c-14.943 0-27.057-12.114-27.057-27.057s12.114-27.057 27.057-27.057 27.057 12.114 27.057 27.057-12.114 27.057-27.057 27.057z" fill="#8d9ca8"/><path d="m451.551 124.511c-16.854 16.854-35.094 30.59-53.485 40.921l3.822 16.051c1.105 4.641 5.251 7.916 10.022 7.916h10.783c4.77 0 8.917-3.275 10.022-7.916l4.054-17.026c.764-3.209 3.015-5.869 6.068-7.119.225-.092.449-.185.672-.279 3.05-1.287 6.533-1.004 9.352.731l14.907 9.173c4.063 2.5 9.31 1.884 12.684-1.489l7.625-7.625c3.373-3.373 3.989-8.621 1.489-12.684l-9.173-14.907c-1.735-2.819-2.017-6.302-.731-9.352.094-.223.187-.448.279-.672 1.249-3.053 3.909-5.305 7.119-6.069l17.026-4.054c4.641-1.105 7.916-5.251 7.916-10.022v-10.781c0-4.77-3.275-8.917-7.916-10.022l-14.405-3.43c-9.971 16.747-22.753 33.278-38.13 48.655z" fill="#7a8c98"/></g></g></svg>