<svg height="512pt" viewBox="0 -44 512.00052 512" width="512pt" xmlns="http://www.w3.org/2000/svg"><path d="m268.785156 191.863281c0 65.652344-53.21875 118.871094-118.871094 118.871094-65.648437 0-118.871093-53.21875-118.871093-118.871094 0-65.648437 53.21875-191.863281 118.871093-191.863281 65.652344 0 118.871094 126.214844 118.871094 191.863281zm0 0" fill="#f0a65f"/><path d="m149.914062 0c-4.941406 0-9.8125.726562-14.597656 2.078125 58.761719 16.597656 104.273438 129.078125 104.273438 189.785156s-45.511719 110.78125-104.273438 117.980469c4.785156.585938 9.65625.890625 14.597656.890625 65.652344 0 118.871094-53.21875 118.871094-118.871094 0-65.648437-53.21875-191.863281-118.871094-191.863281zm0 0" fill="#e28540"/><path d="m291.476562 191.863281h-283.125c-4.78125 0-8.613281 4.011719-8.335937 8.785157 3.046875 52.574218 33.269531 97.980468 76.800781 122.339843 12.171875 6.8125 14.429688 23.257813 4.65625 33.214844-15.007812 15.289063-24.945312 35.570313-27.066406 58.089844-.457031 4.867187 3.425781 9.058593 8.316406 9.058593h174.382813c4.890625 0 8.773437-4.191406 8.316406-9.058593-2.121094-22.519531-12.058594-42.800781-27.066406-58.089844-9.769531-9.957031-7.515625-26.402344 4.660156-33.214844 43.527344-24.359375 73.75-69.765625 76.800781-122.339843.273438-4.773438-3.558594-8.785157-8.339844-8.785157zm0 0" fill="#d7f1ff"/><path d="m291.476562 191.863281h-25.820312c0 50.695313-25.25 95.601563-63.839844 122.800781-16.890625 11.90625-21.160156 35.390626-8.929687 52.054688.167969.230469.332031.457031.5.691406 9.921875 13.773438.011719 33.003906-16.960938 33.003906h-119.65625c-1.105469 4.484376-1.898437 9.09375-2.347656 13.800782-.472656 4.898437 3.390625 9.136718 8.3125 9.136718h174.375c4.886719 0 8.773437-4.191406 8.3125-9.058593-2.117187-22.519531-12.058594-42.800781-27.0625-58.089844-9.773437-9.957031-7.519531-26.402344 4.65625-33.214844 43.527344-24.359375 73.753906-69.765625 76.800781-122.339843.273438-4.773438-3.558594-8.785157-8.339844-8.785157zm0 0" fill="#b8e9ff"/><path d="m503.636719 304.480469c5.1875 0 9.1875 4.699219 8.21875 9.796875-11.601563 61.070312-128.582031 109.074218-190.933594 109.074218-62.667969 0-114.007813-48.492187-118.542969-110-.355468-4.804687 3.511719-8.871093 8.324219-8.871093zm0 0" fill="#fff3d7"/><path d="m482.464844 304.480469c-25.5 53.894531-128.792969 94.367187-186.046875 94.367187-26.574219 0-51.113281-8.722656-70.90625-23.457031 21.667969 29.105469 56.335937 47.960937 95.414062 47.960937 62.351563 0 179.328125-48.003906 190.929688-109.070312.96875-5.101562-3.03125-9.800781-8.21875-9.800781zm0 0" fill="#f9dbaa"/><path d="m388.074219 304.480469c-7.765625-28.25-33.621094-49.007813-64.335938-49.007813-30.71875 0-56.570312 20.757813-64.335937 49.007813zm0 0" fill="#ffd15f"/><path d="m323.738281 255.472656c-5.460937 0-10.765625.667969-15.847656 1.90625 23.488281 5.726563 42.101563 23.875 48.488281 47.101563h31.695313c-7.765625-28.25-33.621094-49.007813-64.335938-49.007813zm0 0" fill="#fcbf35"/></svg>