<svg id="Layer_1" enable-background="new 0 0 1600 1600" height="512" viewBox="0 0 1600 1600" width="512" xmlns="http://www.w3.org/2000/svg"><g><path d="m651.2 747.4-108.1 820.6h201s-32-486.3 27.3-835.7c12.6-74.3 35-146.6 66.4-215.2l17-37-181.3-25.3c-2.1 97.9-9.5 195.6-22.3 292.6z" fill="#a55a3c"/><path d="m741.9 570c-.1 0-.1 0 0 0-14.6 5.4-28.7 11.2-42.3 17.5-10 4.6-19.7 9.3-29.2 14.3-209 109.4-313.1 311.6-313.1 311.6s-127.5-216.4 35.8-358.2c59.1-51.3 121.5-66.9 177.1-65.7l97.2-51.7 95.5 52z" fill="#3ba674"/><path d="m741.9 570c.1 0 38.8 14.7 56.6 23.5 1.2.6 2.4 1.2 3.6 1.8 237.8 120.9 269.7 412 269.7 412s93.3-127.1 80.3-266.6c-6.7-71.1-47.7-134.2-109.2-170.5-34.8-20.5-81.1-39.7-135.6-42.7l-118.7-106.8z" fill="#44c086"/><path d="m694.2 384.5c-30.1-89.3-105.1-222.7-293-307.9 48-50 131.3-44.4 131.3-44.4 99.7 1.7 183.4 74.7 232.6 156.2 22.3 37 37.9 76.6 48.8 117.6l30.4 152.9-60.4 30.1-38.5-53.1z" fill="#3ba674"/><path d="m986.2 365.3c180.6-88 349.8-125.5 349.8-125.5s-61.9-130.4-296.9-76.5c-85.3 19.6-162.4 66-218 133.6-2.4 2.9-4.8 5.9-7.1 8.9-27.4 35.3-52.8 81.9-67.2 135.3l58 77 187.5-61.2z" fill="#41b880"/><path d="m783.4 484.6c-9.7-14.8-20.1-28.4-30.1-40.5-27.9-33.4-53-54.5-53-54.5-45.5-41.9-122.2-82.8-232.8-92.7-320.4-28.6-314.3 215.3-314.3 215.3s329.9-124.2 581.3 52.3c2.5 1.7 4.9 3.6 7.4 5.4z" fill="#44c086"/><path d="m1446.1 622.5s-280.8-200.5-704.3-52.6c0 0 31.8-200.5 325.7-213.8 293.9-13.2 387.8 134.8 378.6 266.4z" fill="#3ba674"/></g></svg>