<?xml version="1.0" encoding="iso-8859-1"?>
<!-- Generator: Adobe Illustrator 19.0.0, SVG Export Plug-In . SVG Version: 6.00 Build 0)  -->
<svg version="1.1" id="Capa_1" xmlns="http://www.w3.org/2000/svg" xmlns:xlink="http://www.w3.org/1999/xlink" x="0px" y="0px"
	 viewBox="0 0 452.397 452.397" style="enable-background:new 0 0 452.397 452.397;" xml:space="preserve">
<g>
	<circle style="fill:#E06565;" cx="309.519" cy="343.787" r="108.61"/>
	<path style="fill:#E06565;" d="M196.113,263.523c-20.896-19.059-49.25-30.076-80.184-28.121
		C62.12,238.8,18.384,282.22,14.638,336.007c-4.423,63.5,45.781,116.387,108.336,116.387c28.176,0,53.833-10.74,73.131-28.339
		c4.664-4.253,5.811-11.215,2.662-16.685c-10.777-18.723-16.951-40.43-16.951-63.584c0-23.156,6.174-44.863,16.951-63.586
		C201.915,274.734,200.773,267.774,196.113,263.523z"/>
</g>
<g>
	<path style="fill:#92AF71;" d="M102.288,210.05c2.269-38.325,21.701-167.721,179.981-189.846c8.076-1.129,15.72-4.45,21.827-9.854
		c2.389-2.115,4.888-4.512,7.175-7.061c3.539-3.945,9.53-4.439,13.52-0.948l0.228,0.199c3.624,3.171,4.351,8.561,1.625,12.531
		c-14.436,21.024-52.766,90.15-16.141,189.815c2.521,6.859-2.563,14.138-9.87,14.138l0,0c-4.305,0-8.187-2.604-9.771-6.606
		c-7.36-18.6-25.086-75.163-6.597-153.034c1.269-5.343-0.376-10.969-4.322-14.788l0,0c-3.886-3.76-9.421-5.228-14.667-3.919
		c-31.118,7.764-135.622,43.226-142.824,170.516c-0.303,5.348-4.713,9.547-10.07,9.547l0,0
		C106.56,220.74,101.944,215.86,102.288,210.05z"/>
	<path style="fill:#92AF71;" d="M330.382,41.078c-4.781,26.962-10.921,111.132,100.782,104.154c4.677-0.292,7.896-4.875,6.564-9.367
		c-6.905-23.283-31.46-86.531-97.468-101.396C335.703,33.442,331.197,36.479,330.382,41.078z"/>
</g>
<g>
	<path style="fill:#992B2B;" d="M378.444,347.185c-3.157,9.732-3.859,18.007,2.214,19.977c6.074,1.971,14.555-3.736,17.711-13.469
		c3.157-9.732-0.205-19.805-6.278-21.775C386.016,329.948,381.6,337.453,378.444,347.185z"/>
	<path style="fill:#992B2B;" d="M348.814,365.43c-1.881,5.798-2.299,10.728,1.319,11.901s8.671-2.227,10.552-8.025
		s-0.122-11.799-3.74-12.973C353.326,355.16,350.695,359.632,348.814,365.43z"/>
</g>
<g>
</g>
<g>
</g>
<g>
</g>
<g>
</g>
<g>
</g>
<g>
</g>
<g>
</g>
<g>
</g>
<g>
</g>
<g>
</g>
<g>
</g>
<g>
</g>
<g>
</g>
<g>
</g>
<g>
</g>
</svg>
