<svg id="Capa_1" enable-background="new 0 0 512 512" height="512" viewBox="0 0 512 512" width="512" xmlns="http://www.w3.org/2000/svg"><g><path d="m384 165.31v256h-229.11l-90.89 53.38v-53.38h-64v-256z" fill="#eff4f9"/><path d="m192 165.31h192v256h-192z" fill="#d8e5ef"/><path d="m60.25 248.18h271v30h-271z" fill="#54528e"/><path d="m192 248.18h139.25v30h-139.25z" fill="#443c67"/><path d="m60.25 308.43h150.5v30h-150.5z" fill="#54528e"/><path d="m192 308.43h18.75v30h-18.75z" fill="#443c67"/><path d="m241 308.434h30v30h-30z" fill="#443c67"/><circle cx="384" cy="165.31" fill="#2fe6a9" r="128"/><path d="m512 165.31c0 70.69-57.31 128-128 128v-256c70.69 0 128 57.31 128 128z" fill="#26bfb8"/><path d="m457.67 137.69-73.67 73.66-13.4 13.4-60.27-60.27 21.21-21.21 39.06 39.06 13.4-13.4 52.46-52.46z" fill="#eff4f9"/><path d="m457.67 137.69-73.67 73.66v-42.42l52.46-52.46z" fill="#d8e5ef"/></g></svg>