<?xml version="1.0" encoding="iso-8859-1"?>
<!-- Generator: Adobe Illustrator 19.0.0, SVG Export Plug-In . SVG Version: 6.00 Build 0)  -->
<svg version="1.1" id="Capa_1" xmlns="http://www.w3.org/2000/svg" xmlns:xlink="http://www.w3.org/1999/xlink" x="0px" y="0px"
	 viewBox="0 0 514.112 514.112" style="enable-background:new 0 0 514.112 514.112;" xml:space="preserve">
<path style="fill:#464646;" d="M514.112,351.128V41.064c0-17.68-14.32-32-32-32H32c-17.68,0-32,14.32-32,32v310.064H514.112z"/>
<rect x="32" y="41.064" style="fill:#4B9FD8;" width="450.08" height="300.384"/>
<path style="fill:#E5E5E5;" d="M0,341.496v51.088c0,17.68,14.32,32,32,32h450.112c17.68,0,32-14.32,32-32v-51.088H0z"/>
<rect x="170.528" y="424.568" style="fill:#CACACA;" width="173.056" height="51.584"/>
<path style="fill:#E5E5E5;" d="M382.64,476.152H131.472c-7.984,0-14.448,6.464-14.448,14.448l0,0
	c0,7.984,6.464,14.448,14.448,14.448h251.184c7.984,0,14.448-6.464,14.448-14.448l0,0
	C397.104,482.632,390.624,476.152,382.64,476.152z"/>
<path style="fill:#CACACA;" d="M266.608,399.032h-19.12c-8.832,0-16-7.152-16-16s7.168-16,16-16h19.12c8.832,0,16,7.152,16,16
	S275.456,399.032,266.608,399.032z"/>
<g style="opacity:0.07;">
	<polygon style="fill:#010101;" points="170.528,424.568 343.584,464.456 343.584,424.568 	"/>
</g>
<path style="fill:#3789C9;" d="M116.064,341.496c12.416,0,22.496-10.064,22.496-22.496c0-12.416-10.064-22.496-22.496-22.496h-30.08
	c-10.4,0-18.864-8.512-18.816-18.912v-0.24c0-0.464-0.016-0.912-0.048-1.376c-0.624-10.256,7.52-18.896,17.792-18.896h71.856
	c12.176,0,23.088-9.12,23.728-21.28c0.672-12.976-9.632-23.696-22.464-23.696h-44.32c-10.448,0-18.912-8.512-18.848-18.96v-1.296
	v-0.272c-0.064-10.992,8.88-20,19.888-20h4.576c12.176,0,23.088-9.12,23.728-21.28c0.672-12.976-9.632-23.696-22.464-23.696H74.464
	c-10.864,0-18.976-9.136-18.848-20c0-0.096,0-0.176,0-0.272s0-0.176,0-0.272c-0.128-10.864,7.984-20,18.848-20h18.592
	c12.176,0,23.088-9.12,23.728-21.28c0.688-12.976-9.632-23.712-22.448-23.712H32V341.48h84.064V341.496z"/>
<g>
	<path style="fill:#D9DADB;" d="M80.416,367.32H47.712C39.04,367.32,32,374.344,32,383.032c0,8.688,7.04,15.712,15.712,15.712
		h32.704c8.672,0,15.712-7.024,15.712-15.712C96.112,374.344,89.088,367.32,80.416,367.32z"/>
	<path style="fill:#D9DADB;" d="M121.84,367.32h-1.968c-8.672,0-15.712,7.024-15.712,15.712c0,8.688,7.04,15.712,15.712,15.712
		h1.968c8.672,0,15.712-7.024,15.712-15.712S130.512,367.32,121.84,367.32z"/>
</g>
<g>
	<path style="fill:#FFFFFF;" d="M446.368,114.216H309.664c-8.672,0-15.712,7.024-15.712,15.712s7.04,15.712,15.712,15.712h136.704
		c8.672,0,15.712-7.024,15.712-15.712S455.04,114.216,446.368,114.216z"/>
	<path style="fill:#FFFFFF;" d="M446.368,191.256H309.664c-8.672,0-15.712,7.024-15.712,15.712s7.04,15.712,15.712,15.712h136.704
		c8.672,0,15.712-7.024,15.712-15.712C462.08,198.28,455.04,191.256,446.368,191.256z"/>
	<path style="fill:#FFFFFF;" d="M446.368,268.296H205.664c-8.672,0-15.712,7.024-15.712,15.712s7.04,15.712,15.712,15.712h240.704
		c8.672,0,15.712-7.024,15.712-15.712S455.04,268.296,446.368,268.296z"/>
</g>
<path style="fill:#FEE218;" d="M226.8,149.24c0-48.816-39.568-88.384-88.384-88.384v88.384H226.8z"/>
<path style="fill:#EC9922;" d="M138.416,149.24l62.496,62.496c16-16,25.888-38.096,25.888-62.496H138.416z"/>
<path style="fill:#CD494C;" d="M138.416,60.856c-48.816,0-88.384,39.568-88.384,88.384s39.568,88.384,88.384,88.384
	c24.416,0,46.512-9.888,62.496-25.888l-62.496-62.496V60.856z"/>
<g style="opacity:0.2;">
	<path style="fill:#FFFFFF;" d="M138.464,215.032c-36.32,0-65.856-29.504-65.856-65.776c0-36.32,29.552-65.872,65.856-65.872
		c36.272,0,65.776,29.552,65.776,65.872c0,17.536-6.848,34.032-19.296,46.464C172.496,208.184,156,215.032,138.464,215.032z
		 M138.464,113.176c-19.888,0-36.064,16.192-36.064,36.08c0,19.84,16.176,35.968,36.064,35.968c9.568,0,18.592-3.76,25.408-10.576
		c6.816-6.816,10.576-15.824,10.576-25.392C174.448,129.368,158.304,113.176,138.464,113.176z"/>
</g>
<path style="fill:#FFFFFF;" d="M138.336,245.64c-53.104,0-96.32-43.2-96.32-96.32c0-53.2,43.216-96.48,96.32-96.48
	c53.2,0,96.48,43.28,96.48,96.48c0,25.664-10.032,49.824-28.272,68.048C188.32,235.608,164.096,245.64,138.336,245.64z
	 M138.336,68.84c-44.288,0-80.32,36.112-80.32,80.48c0,44.288,36.032,80.32,80.32,80.32c21.488,0,41.696-8.368,56.912-23.584
	s23.584-35.36,23.584-56.736C218.816,104.952,182.72,68.84,138.336,68.84z"/>
<g>
</g>
<g>
</g>
<g>
</g>
<g>
</g>
<g>
</g>
<g>
</g>
<g>
</g>
<g>
</g>
<g>
</g>
<g>
</g>
<g>
</g>
<g>
</g>
<g>
</g>
<g>
</g>
<g>
</g>
</svg>
