<svg enable-background="new 0 0 30 58" height="512" viewBox="0 0 30 58" width="512" xmlns="http://www.w3.org/2000/svg"><path d="m27.252 15.656c-.738-.841-1.608-1.618-2.589-2.279-1.651-1.113-2.663-2.953-2.663-4.945v-1.432h-14v1.432c0 1.991-1.012 3.832-2.664 4.945-.98.66-1.85 1.437-2.589 2.279-1.738 1.981-2.747 4.322-2.747 6.344v34.135c0 .644.326 1.211.822 1.546.298.202.657.319 1.043.319h26.271c.386 0 .745-.117 1.043-.318.495-.336.821-.903.821-1.547v-34.135c0-2.022-1.009-4.363-2.748-6.344z" fill="#ed8a19"/><path d="m25 8h-20v-6.83c0-.646.524-1.17 1.17-1.17h17.66c.646 0 1.17.524 1.17 1.17z" fill="#e7eced"/><g fill="#afb6bb"><path d="m9 4c-.552 0-1 .447-1 1v3h2v-3c0-.553-.448-1-1-1z"/><path d="m13 4c-.552 0-1 .447-1 1v3h2v-3c0-.553-.448-1-1-1z"/><path d="m17 4c-.552 0-1 .447-1 1v3h2v-3c0-.553-.448-1-1-1z"/><path d="m21 4c-.552 0-1 .447-1 1v3h2v-3c0-.553-.448-1-1-1z"/></g><path d="m11 25h19v25h-19z" fill="#f7e6a1"/><path d="m0 25h5v25h-5z" fill="#f7e6a1"/><path d="m18.279 41.155-.056-.049c-1.556-1.361-1.556-3.781 0-5.142l2.305-2.016 2.305 2.016c1.556 1.361 1.556 3.781 0 5.142l-.056.049c-1.287 1.127-3.21 1.127-4.498 0z" fill="#dd352e"/></svg>