<svg id="color" enable-background="new 0 0 24 24" height="512" viewBox="0 0 24 24" width="512" xmlns="http://www.w3.org/2000/svg"><path d="m7 24c-.552 0-1-.448-1-1v-1.75c0-.552.448-1 1-1s1 .448 1 1v1.75c0 .552-.448 1-1 1z" fill="#78909c"/><path d="m7 20.25c-.552 0-1 .448-1 1v1.75c0 .552.448 1 1 1z" fill="#687d88"/><path d="m12 11.5h-9v-9.75c0-.966.784-1.75 1.75-1.75h7.25z" fill="#90a4ae"/><path d="m12 22h-7.25c-.966 0-1.75-.784-1.75-1.75v-8.75h9z" fill="#607d8b"/><path d="m12 0h-7.25c-.966 0-1.75.784-1.75 1.75v9.75h9z" fill="#7d8f97"/><path d="m12 11.5h-9v8.75c0 .966.784 1.75 1.75 1.75h7.25z" fill="#546d79"/><path d="m17 24c-.552 0-1-.448-1-1v-1.75c0-.552.448-1 1-1s1 .448 1 1v1.75c0 .552-.448 1-1 1z" fill="#78909c"/><path d="m17 20.25c-.552 0-1 .448-1 1v1.75c0 .552.448 1 1 1z" fill="#687d88"/><path d="m21 11.5h-9v-11.5h7.25c.966 0 1.75.784 1.75 1.75z" fill="#607d8b"/><path d="m19.25 22h-7.25v-10.5h9v8.75c0 .966-.784 1.75-1.75 1.75z" fill="#90a4ae"/><g fill="#f5f5f5"><path d="m14.75 19c-.414 0-.75-.336-.75-.75v-1.5c0-.414.336-.75.75-.75s.75.336.75.75v1.5c0 .414-.336.75-.75.75z"/><path d="m14.75 9c-.414 0-.75-.336-.75-.75v-1.5c0-.414.336-.75.75-.75s.75.336.75.75v1.5c0 .414-.336.75-.75.75z"/><path d="m9.25 9c-.414 0-.75-.336-.75-.75v-1.5c0-.414.336-.75.75-.75s.75.336.75.75v1.5c0 .414-.336.75-.75.75z"/><path d="m9.25 19c-.414 0-.75-.336-.75-.75v-1.5c0-.414.336-.75.75-.75s.75.336.75.75v1.5c0 .414-.336.75-.75.75z"/></g><path d="m9.25 6c-.414 0-.75.336-.75.75v1.5c0 .414.336.75.75.75z" fill="#d5d5d5"/><path d="m9.25 16c-.414 0-.75.336-.75.75v1.5c0 .414.336.75.75.75z" fill="#d5d5d5"/><path d="m14.75 6c-.414 0-.75.336-.75.75v1.5c0 .414.336.75.75.75z" fill="#d5d5d5"/><path d="m14.75 16c-.414 0-.75.336-.75.75v1.5c0 .414.336.75.75.75z" fill="#d5d5d5"/></svg>