<svg id="Capa_1" enable-background="new 0 0 512 512" height="512" viewBox="0 0 512 512" width="512" xmlns="http://www.w3.org/2000/svg"><g><path d="m459.267 167.512c-10.228-3.317-21.311 1.785-26.066 11.429-6.91 14.014-13.479 25.736-19.177 35.149-2.513 4.151-8.896 2.353-8.896-2.498l-.63-.366v-71.71l.63-4.491v-13.88-65.27c0-12.063-9.779-21.841-21.841-21.841-12.063 0-21.842 9.779-21.842 21.842v-33.511c0-11.843-9.209-21.93-21.045-22.351-12.426-.442-22.638 9.5-22.638 21.827v34.034c0-12.328-10.212-22.269-22.638-21.827-11.835.421-21.044 10.508-21.044 22.352v33.832c0-12.327-10.212-22.268-22.637-21.827-11.836.42-21.045 10.506-21.045 22.35v33.019l14.14 289.548v85.476c0 7.292 5.911 13.204 13.204 13.204h123.578c7.292 0 13.203-5.912 13.203-13.204v-102.749c0-29.981 17.765-59.321 31.483-77.508 11.087-14.699 19.455-31.251 24.702-48.899l22.49-75.648c3.308-11.12-2.841-22.884-13.931-26.482z" fill="#ffcebe"/><g><path d="m271.754 498.796v-85.476l-14.14-289.548v-33.018c0-7.01 3.242-13.386 8.33-17.525-3.939-3.179-9.002-5.02-14.502-4.825-11.836.42-21.045 10.506-21.045 22.35v33.019l14.14 289.548v85.476c0 7.292 5.911 13.204 13.204 13.204h27.217c-7.292-.001-13.204-5.913-13.204-13.205z" fill="#ffb1a0"/></g><g fill="#ffb1a0"><path d="m361.446 55.876-.001 87.44c0 5.69 4.612 10.302 10.302 10.302s10.302-4.612 10.302-10.302v-109.22c-11.484.646-20.603 10.135-20.603 21.78z"/><path d="m317.762 143.315c0 5.69 4.612 10.302 10.302 10.302s10.302-4.612 10.302-10.302v-143.275c-11.486.642-20.603 10.154-20.603 21.801v34.034c0-.007-.001-.013-.001-.019z"/><path d="m284.382 153.618c5.69 0 10.302-4.612 10.302-10.302v-109.23c-11.62.656-20.604 10.619-20.604 22.313v33.832 53.085c0 5.689 4.613 10.302 10.302 10.302z"/></g><g><g><path d="m393.877 123.773h-263.929v165.344h263.929c6.214 0 11.252-5.038 11.252-11.252 0-4.942 0-137.999 0-142.841-.001-6.214-5.038-11.251-11.252-11.251z" fill="#95d6a4"/><path d="m132.3 277.865c0-4.843 0-137.899 0-142.841 0-6.214 5.038-11.251 11.252-11.251h-35.204c-6.214 0-11.252 5.037-11.252 11.251v142.841c0 6.214 5.038 11.252 11.252 11.252h35.204c-6.214 0-11.252-5.038-11.252-11.252z" fill="#78c2a4"/><path d="m262.513 124.574c-35.397 10.405-61.251 43.105-61.251 81.871s25.854 71.466 61.252 81.871c40.26-5.557 71.271-40.082 71.271-81.871-.001-41.789-31.012-76.314-71.272-81.871z" fill="#ccf49f"/><path d="m203.379 206.445c0-39.663 27.937-72.787 65.203-80.806-5.633-1.212-11.474-1.866-17.469-1.866-45.659 0-82.672 37.013-82.672 82.672s37.013 82.672 82.672 82.672c5.995 0 11.836-.654 17.469-1.866-37.266-8.019-65.203-41.143-65.203-80.806z" fill="#b3e59f"/></g><path d="m258.839 199.583v-31.347c5.983 2.594 10.132 8.083 10.132 14.44 0 4.267 3.459 7.726 7.726 7.726s7.726-3.459 7.726-7.726c0-14.851-10.932-27.326-25.585-30.63v-1.004c0-4.267-3.459-7.726-7.726-7.726s-7.726 3.459-7.726 7.726v1.004c-14.653 3.304-25.585 15.779-25.585 30.63s10.932 27.326 25.585 30.63v31.347c-5.983-2.594-10.132-8.083-10.132-14.44 0-4.267-3.459-7.726-7.726-7.726s-7.726 3.459-7.726 7.726c0 14.851 10.932 27.326 25.585 30.63v1.004c0 4.267 3.459 7.726 7.726 7.726s7.726-3.459 7.726-7.726v-1.004c14.653-3.304 25.585-15.779 25.585-30.63s-10.933-27.326-25.585-30.63zm-25.585-16.907c0-6.357 4.148-11.846 10.132-14.44v28.881c-5.983-2.594-10.132-8.083-10.132-14.441zm25.585 61.977v-28.881c5.983 2.594 10.132 8.083 10.132 14.44s-4.149 11.847-10.132 14.441z" fill="#66b394"/><g><path d="m373.796 214.171h-7.743c-4.267 0-7.726-3.459-7.726-7.726s3.459-7.726 7.726-7.726h7.743c4.267 0 7.726 3.459 7.726 7.726s-3.459 7.726-7.726 7.726z" fill="#ecf4ff"/></g><g><path d="m136.172 214.171h-7.743c-4.267 0-7.726-3.459-7.726-7.726s3.459-7.726 7.726-7.726h7.743c4.267 0 7.726 3.459 7.726 7.726s-3.459 7.726-7.726 7.726z" fill="#ecf4ff"/></g><g><path d="m334.688 247.976h-263.929v165.344h263.929c6.214 0 11.252-5.038 11.252-11.252 0-4.942 0-137.999 0-142.841 0-6.213-5.038-11.251-11.252-11.251z" fill="#95d6a4"/><path d="m73.111 402.069c0-4.843 0-137.899 0-142.841 0-6.214 5.038-11.251 11.252-11.251h-35.204c-6.214 0-11.252 5.037-11.252 11.251v142.841c0 6.214 5.038 11.252 11.252 11.252h35.204c-6.214-.001-11.252-5.038-11.252-11.252z" fill="#78c2a4"/><path d="m203.324 248.778c-35.397 10.405-61.251 43.105-61.251 81.871s25.854 71.466 61.252 81.87c40.26-5.557 71.271-40.082 71.271-81.87 0-41.789-31.011-76.315-71.272-81.871z" fill="#ccf49f"/><path d="m144.19 330.648c0-39.663 27.937-72.787 65.203-80.806-5.633-1.212-11.474-1.866-17.469-1.866-45.659 0-82.672 37.013-82.672 82.672s37.013 82.672 82.672 82.672c5.995 0 11.836-.654 17.469-1.866-37.266-8.019-65.203-41.143-65.203-80.806z" fill="#b3e59f"/></g><g><path d="m314.608 338.375h-7.743c-4.267 0-7.726-3.459-7.726-7.726s3.459-7.726 7.726-7.726h7.743c4.267 0 7.726 3.459 7.726 7.726s-3.459 7.726-7.726 7.726z" fill="#ecf4ff"/></g><g><path d="m76.983 338.375h-7.743c-4.267 0-7.726-3.459-7.726-7.726s3.459-7.726 7.726-7.726h7.743c4.267 0 7.726 3.459 7.726 7.726s-3.459 7.726-7.726 7.726z" fill="#ecf4ff"/></g><path d="m199.65 323.786v-31.347c5.983 2.594 10.132 8.083 10.132 14.44 0 4.267 3.459 7.726 7.726 7.726s7.726-3.459 7.726-7.726c0-14.851-10.932-27.326-25.585-30.63v-1.004c0-4.267-3.459-7.726-7.726-7.726s-7.726 3.459-7.726 7.726v1.004c-14.653 3.304-25.585 15.779-25.585 30.63s10.932 27.326 25.585 30.63v31.347c-5.983-2.594-10.132-8.083-10.132-14.44 0-4.267-3.459-7.726-7.726-7.726s-7.726 3.459-7.726 7.726c0 14.851 10.932 27.326 25.585 30.63v1.004c0 4.267 3.459 7.726 7.726 7.726s7.726-3.459 7.726-7.726v-1.004c14.653-3.304 25.585-15.779 25.585-30.63s-10.932-27.325-25.585-30.63zm-25.584-16.906c0-6.357 4.148-11.846 10.132-14.44v28.881c-5.984-2.595-10.132-8.084-10.132-14.441zm25.584 61.977v-28.881c5.983 2.594 10.132 8.083 10.132 14.44s-4.149 11.847-10.132 14.441z" fill="#66b394"/></g></g></svg>