<svg id="Capa_1" enable-background="new 0 0 512 512" height="512" viewBox="0 0 512 512" width="512" xmlns="http://www.w3.org/2000/svg"><g><g><path d="m366.395 235.605-25.606-25.605h-169.578l-25.605 25.605c-5.859 5.859-15.352 5.859-21.211 0l-25.606-25.605h-53.789c-24.814 0-45-20.186-45-45v-120c0-24.814 20.186-45 45-45h422c24.814 0 45 20.186 45 45v120c0 24.814-20.186 45-45 45h-53.789l-25.605 25.605c-5.86 5.86-15.352 5.86-21.211 0z" fill="#edf5ff"/></g><path d="m467 0h-211v210h84.789l25.605 25.605c5.859 5.859 15.351 5.86 21.211 0l25.606-25.605h53.789c24.814 0 45-20.186 45-45v-120c0-24.814-20.186-45-45-45z" fill="#d5e8fe"/><g id="Consultant_2_"><g><g><path d="m136 392c-33.076 0-60-26.909-60-60s26.924-60 60-60 60 26.909 60 60-26.924 60-60 60z" fill="#80bfff"/></g></g><g><path d="m226 512h-180c-8.291 0-15-6.709-15-15 0-57.891 47.109-105 105-105s105 47.109 105 105c0 8.291-6.709 15-15 15z" fill="#80bfff"/></g><g><g><path d="m376 392c-33.076 0-60-26.909-60-60s26.924-60 60-60 60 26.909 60 60-26.924 60-60 60z" fill="#e64d2e"/></g></g><g><g><path d="m466 512h-180c-8.291 0-15-6.709-15-15 0-57.891 47.109-105 105-105s105 47.109 105 105c0 8.291-6.709 15-15 15z" fill="#e64d2e"/></g></g><g><path d="m195 90h-120c-8.291 0-15-6.709-15-15s6.709-15 15-15h120c8.291 0 15 6.709 15 15s-6.709 15-15 15z" fill="#80bfff"/></g><g><path d="m195 150h-120c-8.291 0-15-6.709-15-15s6.709-15 15-15h120c8.291 0 15 6.709 15 15s-6.709 15-15 15z" fill="#80bfff"/></g><g><path d="m437 90h-120c-8.291 0-15-6.709-15-15s6.709-15 15-15h120c8.291 0 15 6.709 15 15s-6.709 15-15 15z" fill="#69f"/></g><g><path d="m437 150h-120c-8.291 0-15-6.709-15-15s6.709-15 15-15h120c8.291 0 15 6.709 15 15s-6.709 15-15 15z" fill="#69f"/></g></g></g></svg>