<svg height="512pt" viewBox="-45 0 511 512" width="512pt" xmlns="http://www.w3.org/2000/svg"><path d="m299.164062 229.640625-50.160156 125.808594c-2.242187 5.625-10.605468 4.019531-10.605468-2.039063v-127.066406h-51.71875v127.066406c0 6.058594-8.363282 7.664063-10.605469 2.039063l-50.160157-125.808594-47.179687 21.1875 53.214844 133.472656c5.871093 14.722657 9.773437 30.15625 11.605469 45.898438l8.4375 72.597656c.609374 5.246094 5.054687 9.203125 10.335937 9.203125h93.308594c5 0 9.292969-3.554688 10.226562-8.464844l15.1875-80.027344c2.148438-11.324218 5.378907-22.417968 9.648438-33.121093l55.644531-139.558594zm0 0" fill="#c2f47a"/><path d="m299.164062 229.640625-24.867187 62.371094c7.257813 4.238281 15.199219 7.273437 23.542969 8.96875 2.222656.449219 3.472656 2.832031 2.632812 4.9375l-33.679687 84.464843c-4.269531 10.707032-7.5 21.796876-9.648438 33.121094l-16.792969 88.496094h15.285157c5 0 9.292969-3.554688 10.226562-8.464844l15.1875-80.03125c2.148438-11.320312 5.378907-22.414062 9.648438-33.117187l55.644531-139.558594zm0 0" fill="#a6d845"/><path d="m186.679688 226.339844v66.261718c8.621093-.796874 16.765624-3.554687 23.929687-7.851562 1.183594-.710938 2.652344-.75 3.835937-.039062.015626.007812.03125.019531.046876.027343v98.988281c0 6.058594 8.363281 7.664063 10.605468 2.035157l13.300782-33.351563v-126.066406h-51.71875zm0 0" fill="#a6d845"/><path d="m150.78125 292.011719-24.871094-62.371094-20.273437 9.105469-26.902344 12.082031 20.195313 50.648437c4.183593.695313 8.449218 1.070313 12.761718 1.070313 5.292969 0 10.5-.535156 15.558594-1.566406 1.722656-.351563 3.445312.605469 4.097656 2.242187l33.324219 83.59375c2.246094 5.628906 10.605469 4.023438 10.605469-2.035156v-31.316406zm0 0" fill="#a6d845"/><path d="m380.273438 124.851562c.21875-1.9375.34375-3.90625.34375-5.902343 0-28.5625-23.152344-51.71875-51.714844-51.71875-4.039063 0-7.960938.480469-11.730469 1.355469-4.511719-16.429688-19.539063-28.503907-37.402344-28.503907-5.765625 0-11.234375 1.265625-16.152343 3.523438-3.890626-24.707031-25.277344-43.605469-51.078126-43.605469-25.800781 0-47.1875 18.898438-51.078124 43.605469-4.921876-2.257813-10.386719-3.523438-16.152344-3.523438-17.863282 0-32.894532 12.074219-37.402344 28.503907-3.769531-.875-7.691406-1.355469-11.730469-1.355469-28.5625 0-51.714843 23.15625-51.714843 51.71875 0 1.644531.082031 3.269531.234374 4.875-25.878906 10.21875-44.195312 35.433593-44.195312 64.941406 0 38.5625 31.257812 69.820313 69.816406 69.820313.6875 0 1.367188-.03125 2.046875-.054688 9.484375 11.105469 23.578125 18.15625 39.328125 18.15625 18.375 0 34.5-9.585938 43.671875-24.027344 5.515625 8.613282 15.160157 14.328125 26.148438 14.328125 15.601562 0 28.511719-11.515625 30.699219-26.511719.109374 0 .21875.007813.328124.007813.113282 0 .222657-.007813.332032-.007813 2.1875 14.996094 15.097656 26.511719 30.699218 26.511719 10.984376 0 20.628907-5.714843 26.144532-14.328125 9.171875 14.441406 25.300781 24.027344 43.671875 24.027344 15.730469 0 29.8125-7.035156 39.296875-18.117188 38.324218-.273437 69.308594-31.414062 69.308594-69.804687 0-28.558594-17.15625-53.097656-41.71875-63.914063zm0 0" fill="#8bcc3f"/><g fill="#659922"><path d="m87.460938 173.4375c4.308593 0 7.804687-3.492188 7.804687-7.804688s-3.496094-7.804687-7.804687-7.804687c-20.804688 0-38.265626-14.546875-42.773438-34.003906-5.019531 1.984375-9.753906 4.539062-14.125 7.574219 7.484375 24.316406 30.160156 42.039062 56.898438 42.039062zm0 0"/><path d="m170.03125 86.648438c3.339844-2.726563 3.835938-7.640626 1.109375-10.980469-6.367187-7.800781-9.878906-17.65625-9.878906-27.753907 0-1.511718.078125-3.003906.226562-4.480468-.007812.058594-.019531.113281-.027343.171875-4.671876-2.140625-9.835938-3.378907-15.277344-3.5-.339844 2.558593-.53125 5.160156-.53125 7.808593 0 13.683594 4.757812 27.046876 13.398437 37.625 1.542969 1.890626 3.785157 2.867188 6.050781 2.867188 1.734376 0 3.480469-.574219 4.929688-1.757812zm0 0"/><path d="m72.359375 258.535156c.023437.023438.042969.046875.066406.070313-4.125-7.886719-5.914062-17.082031-4.550781-26.546875.613281-4.265625-2.347656-8.222656-6.613281-8.835938-4.269531-.613281-8.222657 2.347656-8.835938 6.613282-1.351562 9.375-.414062 18.554687 2.363281 26.996093 4.996094 1.132813 10.1875 1.753907 15.527344 1.753907.6875 0 1.363282-.03125 2.042969-.050782zm0 0"/><path d="m99.515625 82.351562c4.3125 0 7.804687-3.492187 7.804687-7.804687 0-2.039063.207032-4.03125.582032-5.960937-3.769532-.875-7.691406-1.355469-11.726563-1.355469-1.316406 0-2.621093.066406-3.914062.164062-.359375 2.332031-.550781 4.722657-.550781 7.15625 0 4.308594 3.496093 7.800781 7.804687 7.800781zm0 0"/><path d="m380.273438 124.851562c.21875-1.9375.34375-3.90625.34375-5.902343 0-28.5625-23.152344-51.71875-51.714844-51.71875-4.039063 0-7.960938.480469-11.730469 1.355469-4.511719-16.429688-19.539063-28.503907-37.402344-28.503907-5.765625 0-11.234375 1.265625-16.152343 3.523438-3.890626-24.707031-25.277344-43.605469-51.078126-43.605469-11.535156 0-22.179687 3.785156-30.777343 10.167969.011719.03125.019531.0625.03125.09375 1.675781 4.832031 6.574219 7.785156 11.578125 6.75 2.792968-.578125 5.6875-.878907 8.652344-.878907 16.953124 0 31.59375 9.878907 38.488281 24.195313 1.910156 3.960937 5.996093 6.355469 10.371093 5.945313 1.726563-.160157 3.476563-.242188 5.242188-.242188 25.152344 0 46.480469 16.3125 54.023438 38.929688-2.835938 14.175781-15.378907 24.890624-30.375 24.890624-4.3125 0-7.804688 3.496094-7.804688 7.804688 0 4.3125 3.492188 7.808594 7.804688 7.808594 14.089843 0 26.730468-6.296875 35.277343-16.214844.890625 1.253906 2.046875 2.320312 3.449219 3.089844 16.667969 9.085937 29.59375 24.15625 35.902344 42.328125-7.195313 5.148437-15.996094 8.195312-25.5 8.195312-4.308594 0-7.804688 3.492188-7.804688 7.804688 0 4.308593 3.496094 7.804687 7.804688 7.804687 10.726562 0 20.707031-2.425781 29.296875-6.859375.289062 2.710938.441406 5.464844.441406 8.253907 0 40.910156-31.953125 74.34375-72.257813 76.738281-2.511718.148437-4.90625 1.171875-6.671874 2.960937-.796876.808594-1.621094 1.59375-2.464844 2.359375 9.320312 9.125 22.066406 14.761719 36.140625 14.761719 15.730469 0 29.808593-7.03125 39.296875-18.113281 38.324218-.273438 69.308594-31.417969 69.308594-69.804688 0-28.5625-17.15625-53.101562-41.71875-63.917969zm0 0"/><path d="m254.953125 216.976562c-4.308594 0-7.804687-3.496093-7.804687-7.804687 0-4.3125 3.492187-7.804687 7.804687-7.804687 10.929687 0 19.820313-8.890626 19.820313-19.820313 0-4.3125 3.492187-7.804687 7.804687-7.804687 4.308594 0 7.804687 3.492187 7.804687 7.804687 0 19.535156-15.894531 35.429687-35.429687 35.429687zm0 0"/><path d="m177.945312 206.097656c-19.535156 0-35.429687-15.894531-35.429687-35.429687 0-4.3125 3.496094-7.804688 7.804687-7.804688 4.3125 0 7.804688 3.492188 7.804688 7.804688 0 10.925781 8.890625 19.820312 19.820312 19.820312 4.3125 0 7.804688 3.492188 7.804688 7.804688 0 4.308593-3.492188 7.804687-7.804688 7.804687zm0 0"/></g></svg>