<svg height="512" viewBox="0 0 32 58" width="512" xmlns="http://www.w3.org/2000/svg"><g id="Page-1" fill="none" fill-rule="evenodd"><g id="016---Sherry-Glass" fill-rule="nonzero" transform="translate(-1 -1)"><path id="Shape" d="m17 38c6 0 7-2 7-2l9-33.75c.0789068-.30494293.0095249-.62924042-.1872456-.87520352-.1967705-.24596311-.4979281-.38484001-.8127544-.37479648h-30c-.3148263-.01004353-.61598392.12883337-.8127544.37479648-.19677049.2459631-.26615238.57026059-.1872456.87520352l9 33.75s1 2 7 2z" fill="#2fa8cc"/><path id="Shape" d="m23 55c-6-4-1-10-1-10-1.4965279-2.0984197-2.4639691-4.5273145-2.82-7.08h-4.36c-.3560309 2.5526855-1.3234721 4.9815803-2.82 7.08 0 0 5 6-1 10z" fill="#3b97d3"/><path id="Shape" d="m26 55h-18c-1.25902921 0-2.44458247.5927766-3.2 1.6l-1.8 2.4h28l-1.8-2.4c-.7554175-1.0072234-1.9409708-1.6-3.2-1.6z" fill="#67b9cc"/><path id="Shape" d="m29.32 16-5.32 20s-1 2-7 2-7-2-7-2l-5.32-20z" fill="#802d40"/><g fill="#67b9cc"><path id="Shape" d="m7 6h-1c-.55228475 0-1-.44771525-1-1s.44771525-1 1-1h1c.55228475 0 1 .44771525 1 1s-.44771525 1-1 1z"/><path id="Shape" d="m20 6h-9c-.5522847 0-1-.44771525-1-1s.4477153-1 1-1h9c.5522847 0 1 .44771525 1 1s-.4477153 1-1 1z"/></g></g></g></svg>