<svg id="Layer_1" height="512" viewBox="0 0 128 128" width="512" xmlns="http://www.w3.org/2000/svg" data-name="Layer 1"><path d="m6.5 48.744h115v72.756h-115z" fill="#c7cfd4"/><path d="m121.5 48.74-17.69 13-39.81 29.26-39.81-29.26-17.69-13 17.69-13 20.07-14.74 11.57-8.5 8.17-6 8.17 6 11.57 8.5 20.07 14.74z" fill="#e1ebf0"/><path d="m121.5 121.5h-115l35.41-46.74 22.09 16.24 22.09-16.24z" fill="#e1ebf0"/><path d="m103.81 21v40.74l-39.81 29.26-39.81-29.26v-40.74z" fill="#e97b83"/><g fill="#e1ebf0"><path d="m92.75 33.558h-21.265a1.75 1.75 0 0 1 0-3.5h21.265a1.75 1.75 0 0 1 0 3.5z"/><path d="m92.75 51.558h-57.5a1.75 1.75 0 0 1 0-3.5h57.5a1.75 1.75 0 0 1 0 3.5z"/><path d="m92.75 60.558h-57.5a1.75 1.75 0 0 1 0-3.5h57.5a1.75 1.75 0 0 1 0 3.5z"/></g></svg>