<svg id="Capa_1" enable-background="new 0 0 510 510" height="512" viewBox="0 0 510 510" width="512" xmlns="http://www.w3.org/2000/svg"><g><path d="m350.016 157.667 32.5-20.474 10-68.596-10-68.597c-41.42 0-75 33.577-75 75v90z" fill="#fff5f5"/><path d="m367.513 263.787c-9.824 9.824-19.583 19.583-29.393 29.393l-5.182 51.821 5.004 16.666-8.004 13.334-3 29.999 6.754 15.438-9.754 14.563-1.351 13.507c.02.1-2.223 24.157 17.519 43.898 19.008 19.008 41.971 17.501 42.407 17.594l10-130.606-10-115.607-8.071-7.496z" fill="#9d6b5d"/><path d="m426.905 293.18c-11.987-11.987-26.836-26.836-37.243-37.244l-7.149 7.877v246.187c33.083 0 60-26.915 60-60 0-.101 0-.849 0-.748l-1.425-14.251-12.396-13.584 9.396-16.416-3-30.001-9.896-14.416 6.895-15.584z" fill="#895050"/><path d="m329.938 375h52.575l10-15-10-15c-15.776 0-33.799 0-49.575 0-1.049 10.492-1.951 19.508-3 30z" fill="#fad42b"/><path d="m323.938 435h58.575l10-15-10-15c-17.676 0-37.899 0-55.575 0-1.049 10.492-1.951 19.508-3 30z" fill="#fad42b"/><path d="m435.087 375c-1.049-10.491-1.951-19.509-3-30-15.776 0-33.799 0-49.575 0v30z" fill="#fbc000"/><path d="m441.087 435c-1.049-10.492-1.951-19.508-3-30-17.676 0-37.899 0-55.575 0v30z" fill="#fbc000"/><path d="m122.337 263.787c-9.823 9.824-19.582 19.583-29.393 29.393l-5.182 51.821 5.004 16.666-8.004 13.334-3 29.999 6.754 15.438-9.754 14.563-1.351 13.507c.02.1-2.222 24.157 17.519 43.898 19.008 19.008 41.971 17.501 42.406 17.594l10-130.606-10-115.607-8.071-7.496z" fill="#9d6b5d"/><path d="m181.73 293.18c-10.806-10.806-26.44-26.44-37.243-37.244l-7.149 7.877v246.187c33.083 0 60-26.915 60-60 0-.101 0-.849 0-.748l-1.425-14.251-12.396-13.584 9.396-16.416-3-30.001-9.896-14.416 6.895-15.584z" fill="#895050"/><path d="m122.337 263.787h15l10-19.393-10-19.394-7.5-10-7.5 10z" fill="#fff5f5"/><path d="m152.337 263.787c0-13.565 0-25.221 0-38.787l-7.5-10-7.5 10v38.787z" fill="#ece6f2"/><path d="m63.908 195 36.714 10 36.714-10 10-76.412-10-116.412v0c-4.067 10.683-69.351 182.117-73.428 192.824z" fill="#fff5f5"/><path d="m210.766 195c-4.069-10.684-69.351-182.117-73.429-192.824v192.824l36.714 10z" fill="#ece6f2"/><path d="m52.484 225h84.853l10-15-10-15c-19.856 0-61.663 0-73.429 0-3.995 10.492-7.429 19.508-11.424 30z" fill="#ece6f2"/><path d="m222.189 225c-3.995-10.491-7.429-19.509-11.424-30-8.915 0-64.483 0-73.429 0v30z" fill="#cfcfe6"/><path d="m84.763 375h52.574l10-15-10-15c-15.776 0-33.799 0-49.574 0-1.05 10.492-1.951 19.508-3 30z" fill="#fad42b"/><path d="m78.762 435h58.575l10-15-10-15c-17.676 0-37.898 0-55.575 0-1.049 10.492-1.95 19.508-3 30z" fill="#fad42b"/><path d="m189.912 375c-1.049-10.491-1.951-19.509-3-30-15.776 0-33.799 0-49.575 0v30z" fill="#fbc000"/><path d="m195.912 435c-1.049-10.492-1.951-19.508-3-30-17.676 0-37.899 0-55.575 0v30z" fill="#fbc000"/><path d="m417.516 156.334-34.552-19.146c-.156 0-.293.004-.448.005 0-16.686 0-120.474 0-137.192 41.42 0 75 33.577 75 75v90h-.001v.001c0-.001 0-.001 0-.001z" fill="#ece6f2"/><path d="m457.515 165c-19.318-18.827-47.525-27.887-74.999-27.808v77.808l7.813 5.989c7.811-6.508 58.711-48.926 67.186-55.989.001 0 .001 0 0 0z" fill="#cfcfe6"/><path d="m307.516 165c8.509 7.091 59.496 49.58 67.186 55.989l7.814-5.989c0-16.315 0-59.923 0-77.808-33.707.109-59.779 12.202-75 27.808z" fill="#ece6f2"/><path d="m367.513 263.787h15v-48.787h-15z" fill="#fff5f5"/><path d="m397.513 263.787c0-9.356 0-36.895 0-48.787h-15v48.787z" fill="#ece6f2"/></g></svg>