<svg id="Layer_1" height="512" viewBox="0 0 512 512" width="512" xmlns="http://www.w3.org/2000/svg" data-name="Layer 1"><g id="_Path_" data-name=" Path "><path d="m444.58 182.42-27.28 27.28 43.62 43.62.01.01 27.27-27.28z" fill="#6d7486"/><path d="m273.4 42.385-249.4-.385v428h318v-365.68z" fill="#e0eff9"/></g><path d="m341.56 104.08v.24h-68.38v-61.77l.24.02z" fill="#c1d8e5"/><path d="m307.54 319.46-9.99 33.97 18.73 18.73.91.92 33.98-10z" fill="#e1b7a3"/><path d="m316.28 372.16.91.92-27.83 8.19 8.19-27.84z" fill="#6d7486"/><path d="m460.93 253.33-109.76 109.75-13.41-13.4 109.76-109.76 13.4 13.4z" fill="#95c7ef"/><path d="m306.618 274.496h155.224v23.787h-155.224z" fill="#74b4e8" transform="matrix(.707 -.707 .707 .707 -89.97 355.573)"/><path d="m430.7 223.1-109.76 109.76-13.4-13.4 34.08-34.08 75.68-75.68z" fill="#95c7ef"/><path d="m24 42v428h30v-427.954z" fill="#c9d9e2"/><g fill="#b2c5ce"><path d="m76 140h74v12h-74z"/><path d="m76 183h212v12h-212z"/><path d="m76 225h212v12h-212z"/><path d="m76 268h212v12h-212z"/><path d="m76 311h212v12h-212z"/><path d="m76 353h212v12h-212z"/><path d="m76 396h212v12h-212z"/></g><path d="m48 67h12v15h-12z" fill="#fff"/><path d="m48 94h12v99h-12z" fill="#fff"/></svg>