<svg id="Flat" height="512" viewBox="0 0 64 64" width="512" xmlns="http://www.w3.org/2000/svg"><path d="m52.506 52.506-2.085-10.424a20.867 20.867 0 0 0 1.722-4.182l8.857-5.9-8.857-5.9a20.868 20.868 0 0 0 -1.722-4.178l2.085-10.424-10.424 2.081a20.867 20.867 0 0 0 -4.182-1.722l-5.9-8.857-5.9 8.857a20.867 20.867 0 0 0 -4.178 1.722l-10.428-2.085 2.085 10.424a20.868 20.868 0 0 0 -1.722 4.182l-8.857 5.9 8.857 5.9a20.867 20.867 0 0 0 1.722 4.178l-2.085 10.428 10.424-2.085a20.867 20.867 0 0 0 4.182 1.722l5.9 8.857 5.9-8.857a20.867 20.867 0 0 0 4.178-1.722z" fill="#f8cb3f"/><circle cx="32" cy="32" fill="#f68110" r="17"/><g fill="#e57100"><path d="m46 34h-2v-2a12.013 12.013 0 0 0 -12-12h-2v-2h2a14.016 14.016 0 0 1 14 14z"/><path d="m44 36h2v2h-2z"/><path d="m18 36h2v2h-2z"/><path d="m18 32h2v2h-2z"/><path d="m22 36h2v2h-2z"/></g></svg>