<svg id="Capa_1" enable-background="new 0 0 512 512" height="512" viewBox="0 0 512 512" width="512" xmlns="http://www.w3.org/2000/svg"><g><g><g><path d="m13.965 244.965c-7.713 0-13.965 6.252-13.965 13.965v19.758c0 18.581 6.252 22.965 13.965 22.965h12.138l7.33-9 9-23.843-9-23.843h-19.468z" fill="#ffe08c"/><path d="m0 278.687v18.581c0 7.712 6.252 13.965 13.965 13.965h19.468l9-9.581-9-9h-19.468c-7.713 0-13.965-6.252-13.965-13.965z" fill="#f9d375"/><path d="m298.307 152.524-181.621 60.718-9 60.067 9 51.066 88.273 38.511 93.348 22.207 9-121.927z" fill="#edf4fa"/><path d="m116.686 342.956 181.621 60.718 9-10.272-9-8.309-181.621-60.718-10.584 9z" fill="#d8e5ef"/><path d="m61.362 333.375h44.74l10.583-9v-111.133h-55.323c-15.425 0-27.93 12.504-27.93 27.929v55.275c.001 24.77 12.505 36.929 27.93 36.929z" fill="#da4a54"/><path d="m73.878 342.956v18.581l21.404 9 21.404-9v-18.581l-21.404-9z" fill="#365e7d"/><path d="m73.878 361.537v129.059c0 11.821 9.583 21.404 21.403 21.404h.001c11.821 0 21.404-9.583 21.404-21.404v-129.059z" fill="#407093"/><path d="m372.618 268.809c-2.77-21.153-14.87-39.364-32.026-50.395l-9 54.332 9 46.458h13.23c10.955-10.807 18.704-31.132 18.796-50.395z" fill="#ffe08c"/><path d="m340.592 319.203-9 8.059 9 10.522c19.621-12.617 32.63-34.625 32.63-59.685 0-3.149-.206-6.25-.604-9.29-2.77 21.153-14.87 39.363-32.026 50.394z" fill="#f9d375"/><path d="m319.45 415.473c11.677 0 21.142-11.562 21.142-30.142v-233.045c0-11.677-9.466-21.142-21.142-21.142-11.677 0-21.143 9.466-21.143 21.142v233.045c0 18.343 9.466 30.142 21.143 30.142z" fill="#da4a54"/><g fill="#d82e3d"><path d="m319.45 406.473c-11.677 0-21.143-9.466-21.143-21.142v18.581c0 11.677 9.466 21.142 21.143 21.142s21.142-9.466 21.142-21.142v-18.581c0 11.676-9.466 21.142-21.142 21.142z"/><path d="m33.433 296.446v18.581c0 15.425 12.504 27.929 27.93 27.929h55.323v-18.581h-55.324c-15.425 0-27.929-12.504-27.929-27.929z"/></g></g><g fill="#da4a54"><path d="m411.093 129.197c1.5.789 3.285.789 4.786 0 12.444-6.544 76.762-44.169 76.762-92.058-8.16-49.838-69.409-44.521-79.154-13.424-9.745-31.097-70.994-36.413-79.154 13.424-.001 51.115 64.316 85.514 76.76 92.058z"/><path d="m421.199 210.213c0 27.886 33.883 47.779 42.285 52.331 1.53.829 3.366.829 4.896 0 8.402-4.553 42.286-25.003 42.286-52.331-7.137-24.484-39.387-20.895-44.734-3.831-5.347-17.064-37.596-20.653-44.733 3.831z"/><path d="m152.066 58.642c0 32.379 41.006 56.589 50.471 61.666 1.515.813 3.329.813 4.844 0 9.465-5.077 50.471-32.054 50.471-61.666-7.407-30.478-46.506-26.496-52.894-6.114-6.386-20.382-45.485-24.364-52.892 6.114z"/></g><path d="m257.853 58.642c-6.707 27.518-41.006 47.589-50.471 52.666-1.515.813-3.329.813-4.844 0-9.465-5.077-43.764-25.148-50.471-52.666-.317 1.303-.597 2.646-.793 4.076-4.765 34.829 40.185 61.228 51.257 67.167 1.519.815 3.339.815 4.858 0 11.072-5.939 56.022-32.338 51.257-67.167-.196-1.43-.476-2.772-.793-4.076z" fill="#d82e3d"/><path d="m492.64 37.139c-7.284 44.3-64.317 76.514-76.762 83.058-1.5.789-3.285.789-4.786 0-12.444-6.544-69.478-38.758-76.761-83.058-.089.546-.181 1.09-.258 1.65-7.236 52.893 63.042 92.642 77.021 99.99 1.498.787 3.284.787 4.782 0 13.978-7.348 84.257-47.098 77.021-99.99-.076-.56-.167-1.104-.257-1.65z" fill="#d82e3d"/><path d="m510.666 210.213c-6.385 22.406-33.883 38.778-42.286 43.331-1.53.829-3.366.829-4.896 0-8.402-4.553-35.9-20.925-42.286-43.331-.441 1.514-.796 3.124-1.033 4.856-4.009 29.308 33.274 51.613 43.316 57.054 1.533.831 3.369.831 4.902 0 10.042-5.441 47.326-27.747 43.316-57.054-.236-1.732-.592-3.342-1.033-4.856z" fill="#d82e3d"/></g></g></svg>