<svg id="Capa_1" enable-background="new 0 0 512 512" height="512" viewBox="0 0 512 512" width="512" xmlns="http://www.w3.org/2000/svg"><g><path d="m512 0h-256l-20.016 256 20.016 256h256z" fill="#4895ff"/><path d="m0 0h256v512h-256z" fill="#8cbcff"/><path d="m256 95.678-20.016 160.322 20.016 160.322c88.543 0 160.322-71.779 160.322-160.322s-71.779-160.322-160.322-160.322z" fill="#04303e"/><path d="m95.678 256c0 88.543 71.779 160.322 160.322 160.322v-320.644c-88.543 0-160.322 71.779-160.322 160.322z" fill="#09607d"/><path d="m256 135.678-20.016 120.322 20.016 120.322c66.346 0 120.322-53.976 120.322-120.322s-53.976-120.322-120.322-120.322z" fill="#e1ebf0"/><path d="m135.678 256c0 66.346 53.976 120.322 120.322 120.322v-240.644c-66.346 0-120.322 53.976-120.322 120.322z" fill="#fff5f5"/><path d="m314.795 271h-73.795v-73.795h30v43.795h43.795z" fill="#87a0af"/></g></svg>