<svg clip-rule="evenodd" fill-rule="evenodd" height="512" stroke-linejoin="round" stroke-miterlimit="2" viewBox="0 0 356 356" width="512" xmlns="http://www.w3.org/2000/svg" xmlns:serif="http://www.serif.com/"><g id="Exp-8.-F2" serif:id="Exp 8. F2"><g><circle cx="116.667" cy="83.333" fill="#176f93" r="27.778"/><circle cx="238.889" cy="83.333" fill="#176f93" r="27.778"/><path d="m316.667 105.556c0-5.894-2.342-11.546-6.509-15.714-4.168-4.167-9.82-6.509-15.714-6.509-52.034 0-181.299 0-233.333 0-5.894 0-11.546 2.342-15.713 6.509-4.168 4.168-6.509 9.82-6.509 15.714v172.222c0 5.894 2.341 11.546 6.509 15.713 4.167 4.168 9.819 6.509 15.713 6.509h233.333c5.894 0 11.546-2.341 15.714-6.509 4.167-4.167 6.509-9.819 6.509-15.713 0-41.572 0-130.65 0-172.222z" fill="#e8e5ee"/><path d="m316.667 105.556c0-5.894-2.342-11.546-6.509-15.714-4.168-4.167-9.82-6.509-15.714-6.509-52.034 0-181.299 0-233.333 0-5.894 0-11.546 2.342-15.713 6.509-4.168 4.168-6.509 9.82-6.509 15.714v27.777h277.778z" fill="#f65252"/><g fill="#176f93"><path d="m150.477 188.889h-19.921c-3.067 0-5.556-2.489-5.556-5.556 0-3.066 2.489-5.555 5.556-5.555h33.333c2.247 0 4.273 1.353 5.133 3.429.859 2.076.384 4.466-1.205 6.055l-18.727 18.727c11.581 2.177 20.354 12.355 20.354 24.567 0 13.797-11.202 25-25 25-6.992 0-13.318-2.876-17.857-7.51-2.146-2.19-2.109-5.711.081-7.856 2.19-2.146 5.711-2.11 7.856.081 2.522 2.574 6.036 4.173 9.92 4.173 7.666 0 13.889-6.223 13.889-13.888 0-7.666-6.223-13.889-13.889-13.889h-8.333c-2.247 0-4.273-1.354-5.133-3.43-.859-2.076-.384-4.465 1.205-6.054z"/><path d="m202.778 191.041-9.355 3.118c-2.908.97-6.057-.604-7.027-3.513-.969-2.909.605-6.058 3.514-7.028l16.667-5.555c1.694-.565 3.556-.281 5.005.763 1.448 1.045 2.307 2.722 2.307 4.507v66.667c0 3.066-2.489 5.556-5.556 5.556-3.066 0-5.555-2.49-5.555-5.556z"/><path d="m225 244.444h-33.333c-3.067 0-5.556 2.49-5.556 5.556s2.489 5.556 5.556 5.556h33.333c3.066 0 5.556-2.49 5.556-5.556s-2.49-5.556-5.556-5.556z"/></g></g></g></svg>