<?xml version="1.0" encoding="iso-8859-1"?>
<!-- Generator: Adobe Illustrator 19.0.0, SVG Export Plug-In . SVG Version: 6.00 Build 0)  -->
<svg version="1.1" id="Capa_1" xmlns="http://www.w3.org/2000/svg" xmlns:xlink="http://www.w3.org/1999/xlink" x="0px" y="0px"
	 viewBox="0 0 511.917 511.917" style="enable-background:new 0 0 511.917 511.917;" xml:space="preserve">
<path style="fill:#CFD8DC;" d="M252.878,205.774L127.992,80.91v-14.4c0.044-12.134-6.815-23.237-17.685-28.629L36.771,1.123
	c-4.107-2.05-9.065-1.242-12.309,2.005L3.128,24.462c-3.247,3.244-4.055,8.202-2.005,12.309l36.757,73.515
	c5.382,10.882,16.489,17.752,28.629,17.707h14.4l124.885,124.885c4.165,4.164,10.917,4.164,15.083,0l32-32
	c4.171-4.16,4.179-10.914,0.019-15.085C252.89,205.786,252.884,205.78,252.878,205.774z"/>
<path style="fill:#F44336;" d="M493.795,393.379L380.728,280.312c-10.698-11.589-23.999-20.466-38.805-25.899
	c-9.542-3.218-17.026-10.718-20.224-20.267c-5.588-14.938-14.597-28.359-26.304-39.189c-9.934-9.908-26.013-9.908-35.947,0
	l-64.597,64.427c-4.778,4.746-7.459,11.207-7.445,17.941c0.027,6.947,2.876,13.584,7.893,18.389
	c10.698,11.589,23.999,20.466,38.805,25.899c9.542,3.218,17.026,10.718,20.224,20.267c5.459,14.792,14.341,28.082,25.92,38.784
	l113.067,113.067c24.272,24.248,63.6,24.248,87.872,0l12.544-12.544c24.248-24.272,24.248-63.6,0-87.872L493.795,393.379z"/>
<g>
</g>
<g>
</g>
<g>
</g>
<g>
</g>
<g>
</g>
<g>
</g>
<g>
</g>
<g>
</g>
<g>
</g>
<g>
</g>
<g>
</g>
<g>
</g>
<g>
</g>
<g>
</g>
<g>
</g>
</svg>
