<svg id="Layer_1" height="512" viewBox="0 0 32 32" width="512" xmlns="http://www.w3.org/2000/svg" data-name="Layer 1"><path d="m16.33 19.41 2.93 9.59 2.29-2.79 3.45 1.04-2.93-9.6z" fill="#f5a321"/><path d="m15.67 19.41-2.93 9.59-2.29-2.79-3.45 1.04 2.93-9.6z" fill="#f5a321"/><circle cx="16" cy="12" fill="#ffbf3b" r="9"/><path d="m16.46 8.46 1 1.94 2.14.31a.52.52 0 0 1 .29.88l-1.59 1.51.37 2.13a.52.52 0 0 1 -.75.54l-1.91-1-1.91 1a.52.52 0 0 1 -.75-.54l.37-2.13-1.55-1.51a.52.52 0 0 1 .29-.88l2.14-.31 1-1.94a.52.52 0 0 1 .86 0z" fill="#ff3645"/></svg>