<?xml version="1.0" encoding="iso-8859-1"?>
<!-- Generator: Adobe Illustrator 19.0.0, SVG Export Plug-In . SVG Version: 6.00 Build 0)  -->
<svg xmlns="http://www.w3.org/2000/svg" xmlns:xlink="http://www.w3.org/1999/xlink" version="1.1" id="Capa_1" x="0px" y="0px" viewBox="0 0 512 512" style="enable-background:new 0 0 512 512;" xml:space="preserve">
<polygon style="fill:#808080;" points="410.527,202.946 379.622,357.473 410.527,512 441.433,512 441.433,202.946 "/>
<polygon style="fill:#9F9F9F;" points="379.622,202.946 328.113,357.473 379.622,512 410.527,512 410.527,202.946 "/>
<path style="fill:#808080;" d="M256,0l-20.604,23.179L256,46.358c42.671,0,77.264,34.592,77.264,77.264s0,110.229,0,110.229h46.358  V123.622C379.622,55.348,324.274,0,256,0z"/>
<path style="fill:#9F9F9F;" d="M132.378,123.622v110.229h46.358c0,0,0-67.558,0-110.229S213.329,46.358,256,46.358V0  C187.726,0,132.378,55.348,132.378,123.622z"/>
<polygon style="fill:#DBDBDB;" points="132.378,202.946 80.869,357.473 132.378,512 379.622,512 379.622,202.946 "/>
<rect x="70.567" y="202.946" style="fill:#BFBFBF;" width="61.811" height="309.054"/>
<path style="fill:#696969;" d="M256,295.662c-17.069,0-30.905,13.836-30.905,30.905c0,11.437,6.218,21.416,15.453,26.761v50.503  c0,8.534,6.919,15.453,15.453,15.453s15.453-6.919,15.453-15.453v-50.503c9.235-5.345,15.453-15.323,15.453-26.761  C286.905,309.498,273.069,295.662,256,295.662z"/>
<g>
</g>
<g>
</g>
<g>
</g>
<g>
</g>
<g>
</g>
<g>
</g>
<g>
</g>
<g>
</g>
<g>
</g>
<g>
</g>
<g>
</g>
<g>
</g>
<g>
</g>
<g>
</g>
<g>
</g>
</svg>
