<svg id="Capa_1" enable-background="new 0 0 512 512" height="512" viewBox="0 0 512 512" width="512" xmlns="http://www.w3.org/2000/svg"><g><path d="m352.907 207.138c.037-1.267.049-2.541.037-3.82-.501-52.405-43.211-95.29-95.613-95.994-54.155-.727-98.283 42.954-98.283 96.941 0 .837.011 1.671.032 2.503.69 27.176-8.098 53.631-23.541 76.004-16.357 23.698-25.901 52.459-25.799 83.457.266 81.014 67.235 146.833 148.242 145.756 79.863-1.061 144.276-66.132 144.276-146.246 0-31.234-9.793-60.179-26.475-83.936-15.36-21.873-23.654-47.947-22.876-74.665z" fill="#bbec6c"/><path d="m402.261 365.741c0 80.11-64.413 145.181-144.276 146.242-4.282.062-8.522-.072-12.712-.381 75.715-5.548 135.413-68.736 135.413-145.861 0-31.239-9.789-60.183-26.473-83.939-15.357-21.872-23.653-47.944-22.871-74.665.031-1.266.051-2.542.031-3.819-.463-49.21-38.166-90.032-86.152-95.395 3.963-.453 8.008-.649 12.104-.597 52.411.7 95.117 43.591 95.621 95.992.01 1.276 0 2.553-.041 3.819-.782 26.72 7.514 52.792 22.881 74.665 16.676 23.756 26.475 52.7 26.475 83.939z" fill="#a2e62e"/><path d="m330.949 106.867c8.388-4.464 15.959-10.577 22.348-17.568 9.981-10.921 16.652-24.514 18.266-39.231.179-1.628-.621-3.211-2.039-4.031-12.64-7.313-27.323-10.023-41.847-8.573-11.808 1.179-24.047 4.563-33.931 11.385-15.742 10.866-28.517 27.063-32.565 46.129-.631 2.972-2.897 10.238.959 12.338 3.636 1.98 7.461 3.614 11.404 4.878 18.492 5.927 40.188 3.835 57.405-5.327z" fill="#00c27a"/><path d="m371.567 50.068c-1.616 14.719-8.286 28.305-18.27 39.226-6.392 6.999-13.957 13.113-22.346 17.57-17.22 9.161-38.917 11.26-57.404 5.332-3.942-1.266-7.771-2.903-11.404-4.879-1.431-.782-2.264-2.326-2.131-3.942.103-1.276.206-2.604.247-2.913.021-.144.031-.278.062-.422 18.085 5.26 38.969 3.016 55.643-5.867 8.389-4.457 15.954-10.571 22.346-17.56 9.336-10.21 15.779-22.768 17.889-36.385 4.621 1.42 9.089 3.355 13.329 5.805 1.412.823 2.214 2.409 2.039 4.035z" fill="#08b865"/><path d="m237.537 117.778c-2.675-18.312-6.265-67.865-2.92-98.233 1.506-13.673 15.038-22.626 28.177-18.552.188.058.376.116.565.174 10.52 3.233 16.949 13.824 15.04 24.663-3.37 19.129-7.743 64.827-8.054 89.714-.113 9.055-7.433 16.357-16.488 16.357-8.195 0-15.136-6.015-16.32-14.123z" fill="#d77f4a"/><path d="m278.396 25.828c-3.366 19.134-7.74 64.825-8.049 89.713-.113 9.058-7.431 16.356-16.489 16.356-3.808 0-7.359-1.297-10.169-3.51 3.808-2.985 6.268-7.627 6.33-12.846.309-24.888 4.683-70.579 8.049-89.713 1.709-9.665-3.222-19.135-11.765-23.355 4.869-2.553 10.715-3.273 16.489-1.482.185.062.381.113.566.175 10.519 3.232 16.952 13.824 15.038 24.662z" fill="#c86d36"/><g><path d="m253.449 169.179c-10.704 0-21.404-3.492-29.653-10.51-3.247-2.763-3.64-7.635-.877-10.882 2.764-3.247 7.635-3.639 10.882-.877 10.987 9.349 29.327 9.09 40.047-.564 3.168-2.854 8.05-2.599 10.902.57 2.853 3.168 2.598 8.049-.57 10.902-8.394 7.56-19.565 11.361-30.731 11.361z" fill="#97d819"/></g></g></svg>