<svg id="Layer_1" height="512" viewBox="0 0 64 64" width="512" xmlns="http://www.w3.org/2000/svg" data-name="Layer 1"><path d="m29 53.2192h6a0 0 0 0 1 0 0v2.7808a2 2 0 0 1 -2 2h-2a2 2 0 0 1 -2-2v-2.7808a0 0 0 0 1 0 0z" fill="#eceef0"/><path d="m32 6a17.987 17.987 0 0 0 -11.51 31.82 9.8587 9.8587 0 0 1 3.51 7.6v2.1168h16v-2.1168a9.8587 9.8587 0 0 1 3.51-7.6 17.987 17.987 0 0 0 -11.51-31.82z" fill="#f4d45a"/><path d="m25 50h14a0 0 0 0 1 0 0v2a2 2 0 0 1 -2 2h-10a2 2 0 0 1 -2-2v-2a0 0 0 0 1 0 0z" fill="#c3ccd1"/><path d="m36 25a3.0033 3.0033 0 0 0 -3 3v1h-2v-1a3 3 0 1 0 -3 3h1v17.5132a1 1 0 0 0 2 0v-17.5132h2v17.5132a1 1 0 0 0 2 0v-17.5132h1a3 3 0 0 0 0-6zm-9 3a1 1 0 0 1 2 0v1h-1a1.0013 1.0013 0 0 1 -1-1zm9 1h-1v-1a1 1 0 1 1 1 1z" fill="#ecb12a"/><path d="m24 46h16a0 0 0 0 1 0 0v2a2 2 0 0 1 -2 2h-12a2 2 0 0 1 -2-2v-2a0 0 0 0 1 0 0z" fill="#eceef0"/><g fill="#ecb12a"><path d="m9.522 17.7656a1.0018 1.0018 0 0 1 -.382-.0766l-1.848-.7652a1 1 0 0 1 .7656-1.8476l1.8477.7651a1 1 0 0 1 -.3833 1.9243z"/><path d="m8 25.4189h-2a1 1 0 0 1 0-2h2a1 1 0 0 1 0 2z"/><path d="m7.6753 33.8384a1 1 0 0 1 -.3833-1.9243l1.848-.7652a1 1 0 0 1 .7657 1.8477l-1.8477.7651a1 1 0 0 1 -.3827.0767z"/><path d="m54.478 17.7656a1 1 0 0 1 -.3833-1.9243l1.8477-.7651a1 1 0 1 1 .7656 1.8476l-1.848.7652a1.0018 1.0018 0 0 1 -.382.0766z"/><path d="m58 25.4189h-2a1 1 0 0 1 0-2h2a1 1 0 0 1 0 2z"/><path d="m56.3247 33.8384a1 1 0 0 1 -.3823-.0767l-1.8477-.7651a1 1 0 1 1 .7657-1.8477l1.8476.7652a1 1 0 0 1 -.3833 1.9243z"/></g></svg>