<svg height="512pt" viewBox="-5 0 512 512" width="512pt" xmlns="http://www.w3.org/2000/svg"><path d="m245.203125 0h-200.953125c-24.398438 0-44.25 19.859375-44.25 44.269531v268.066407c0 24.410156 19.851562 44.273437 44.25 44.273437h56.429688l-6.859376 101.644531c-.007812.097656-.011718.195313-.015624.292969-.675782 14.078125 4.304687 27.449219 14.027343 37.648437 9.714844 10.191407 22.820313 15.804688 36.894531 15.804688 14.078126 0 27.179688-5.613281 36.898438-15.804688 9.722656-10.199218 14.703125-23.570312 14.027344-37.648437-.003906-.097656-.007813-.195313-.015625-.289063l-6.859375-101.648437h85.679687c8.285157 0 15-6.714844 15-15v-297.339844c0-24.410156-19.851562-44.269531-44.253906-44.269531zm0 0" fill="#ff7816"/><path d="m481.574219 330.96875-123.277344-74.59375c-3.40625-2.058594-6.917969-2.351562-10.78125-1.402344-3.863281.953125-7.191406 3.398438-9.25 6.804688l-27.148437 44.917968c-4.28125 7.085938-2.011719 16.304688 5.074218 20.589844l122.679688 74.25c6.523437 3.949219 13.839844 5.976563 21.273437 5.976563 3.308594 0 6.640625-.402344 9.9375-1.214844 10.699219-2.636719 19.730469-9.28125 25.429688-18.710937 0 0 .003906-.007813.003906-.007813 11.753906-19.449219 5.5-44.84375-13.941406-56.609375zm0 0" fill="#ff4b00"/><path d="m245.203125 0h-100.476563v512c14.078126 0 27.179688-5.613281 36.898438-15.804688 9.722656-10.199218 14.703125-23.570312 14.027344-37.648437-.003906-.097656-.007813-.195313-.015625-.289063l-6.859375-101.648437h85.679687c8.285157 0 15-6.714844 15-15v-297.339844c0-24.410156-19.851562-44.269531-44.253906-44.269531zm0 0" fill="#ff4b00"/><path d="m358.867188 256.707031-59.191407-35.824219-145.40625-88.003906-33.898437-20.515625c-3.402344-2.058593-7.484375-2.679687-11.351563-1.730469-3.863281.953126-7.191406 3.398438-9.25 6.804688-17.113281 28.316406-23.972656 60.476562-19.320312 90.558594 3.917969 25.332031 18.167969 61.328125 63.789062 88.9375l139.332031 84.328125c2.363282 1.429687 5.050782 2.167969 7.765626 2.167969 1.199218 0 2.402343-.144532 3.585937-.4375 3.863281-.953126 7.191406-3.398438 9.25-6.804688l16.828125-27.839844 34.84375-57.65625 8.09375-13.394531h.003906l7.75-12.828125zm0 0" fill="#deecf1"/><path d="m358.867188 256.707031-59.191407-35.824219-145.40625-88.003906-9.542969-5.773437v170.125l138.84375 84.03125c2.359376 1.429687 5.050782 2.164062 7.765626 2.164062 1.199218 0 2.402343-.144531 3.585937-.433593 3.863281-.953126 7.191406-3.398438 9.25-6.804688l16.828125-27.84375 34.84375-57.652344 8.09375-13.394531 7.753906-12.828125zm0 0" fill="#a8d3d8"/></svg>