<?xml version="1.0" encoding="iso-8859-1"?>
<!-- Generator: Adobe Illustrator 19.0.0, SVG Export Plug-In . SVG Version: 6.00 Build 0)  -->
<svg version="1.1" id="Capa_1" xmlns="http://www.w3.org/2000/svg" xmlns:xlink="http://www.w3.org/1999/xlink" x="0px" y="0px"
	 viewBox="0 0 488.284 488.284" style="enable-background:new 0 0 488.284 488.284;" xml:space="preserve">
<g>
	<path style="fill:#92AF71;" d="M300.872,38.026c-39.864-22.422-84.088-33.637-103.49-37.807
		c-5.424-1.166-10.703,2.441-11.626,7.912l-0.004,0.022c-0.864,5.121,2.43,10.03,7.504,11.134
		c11.085,2.41,31.147,7.343,53.572,15.561c1.408,7.509,3.573,22.903,1.65,39.495c-0.296,2.56,1.505,4.891,4.048,5.302l9.651,1.56
		c2.749,0.443,5.289-1.516,5.617-4.281c1.495-12.59,0.979-24.442-0.026-33.632c7.933,3.51,15.904,7.423,23.656,11.779
		c4.535,2.549,10.27,1.043,13.002-3.384l0,0C307.348,46.957,305.718,40.75,300.872,38.026z"/>
	<circle style="fill:#92AF71;" cx="244.142" cy="292.634" r="195.65"/>
</g>
<circle style="fill:#FFE6D2;" cx="244.142" cy="292.634" r="172.33"/>
<g>
	<path style="fill:#EA9D7F;" d="M263.097,196.498v192.278c0,7.87,7.688,13.309,15.187,10.921
		c45.365-14.45,78.231-56.905,78.231-107.061c0-50.154-32.866-92.61-78.231-107.06C270.785,183.189,263.097,188.628,263.097,196.498
		z"/>
	<path style="fill:#EA9D7F;" d="M225.187,196.498c0-7.87-7.688-13.31-15.187-10.921c-45.365,14.45-78.231,56.905-78.231,107.06
		s32.866,92.61,78.231,107.061c7.499,2.388,15.187-3.051,15.187-10.921V196.498z"/>
</g>
<g>
	<path style="fill:#FDF5ED;" d="M280.011,227.089l2.97-7.01c0.886-2.091,2.692-3.959,4.846-5.01l0,0
		c2.772-1.354,5.604-1.108,7.099,0.615l0.767,0.883l0.766,0.883c1.495,1.724,1.337,4.562-0.396,7.115l0,0
		c-1.345,1.983-3.449,3.507-5.645,4.088l-7.359,1.948C280.248,231.346,278.877,229.765,280.011,227.089z"/>
	<path style="fill:#FDF5ED;" d="M301.074,265.697l5.533-5.228c1.65-1.56,4.056-2.546,6.449-2.644l0,0
		c3.084-0.127,5.578,1.234,6.256,3.413l0.347,1.116l0.348,1.117c0.677,2.178-0.606,4.714-3.218,6.357l0,0
		c-2.028,1.276-4.568,1.828-6.813,1.479l-7.521-1.17C299.582,269.691,298.961,267.693,301.074,265.697z"/>
	<path style="fill:#FDF5ED;" d="M280.011,357.839l2.97,7.01c0.886,2.092,2.692,3.959,4.846,5.011l0,0
		c2.772,1.354,5.604,1.108,7.099-0.615l0.767-0.884l0.766-0.883c1.495-1.723,1.337-4.561-0.396-7.115l0,0
		c-1.345-1.982-3.449-3.507-5.645-4.088l-7.359-1.948C280.248,353.583,278.877,355.164,280.011,357.839z"/>
	<path style="fill:#FDF5ED;" d="M301.074,319.232l5.533,5.229c1.65,1.559,4.056,2.545,6.449,2.643l0,0
		c3.084,0.127,5.578-1.234,6.256-3.412l0.347-1.117l0.348-1.116c0.677-2.179-0.606-4.714-3.218-6.358l0,0
		c-2.028-1.275-4.568-1.827-6.813-1.479l-7.521,1.17C299.582,315.238,298.961,317.236,301.074,319.232z"/>
	<path style="fill:#FDF5ED;" d="M208.273,227.089l-2.97-7.01c-0.886-2.091-2.692-3.959-4.846-5.01l0,0
		c-2.772-1.354-5.604-1.108-7.099,0.615l-0.767,0.883l-0.766,0.883c-1.495,1.724-1.337,4.562,0.395,7.115l0,0
		c1.346,1.983,3.45,3.507,5.646,4.088l7.359,1.948C208.035,231.346,209.407,229.765,208.273,227.089z"/>
	<path style="fill:#FDF5ED;" d="M187.21,265.697l-5.533-5.228c-1.651-1.56-4.056-2.546-6.449-2.644l0,0
		c-3.084-0.127-5.578,1.234-6.256,3.413l-0.347,1.116l-0.348,1.117c-0.677,2.178,0.606,4.714,3.219,6.357l0,0
		c2.027,1.276,4.567,1.828,6.812,1.479l7.521-1.17C188.702,269.691,189.323,267.693,187.21,265.697z"/>
	<path style="fill:#FDF5ED;" d="M208.273,357.839l-2.97,7.01c-0.886,2.092-2.692,3.959-4.846,5.011l0,0
		c-2.772,1.354-5.604,1.108-7.099-0.615l-0.767-0.884l-0.766-0.883c-1.495-1.723-1.337-4.561,0.395-7.115l0,0
		c1.346-1.982,3.45-3.507,5.646-4.088l7.359-1.948C208.035,353.583,209.407,355.164,208.273,357.839z"/>
	<path style="fill:#FDF5ED;" d="M187.21,319.232l-5.533,5.229c-1.651,1.559-4.056,2.545-6.449,2.643l0,0
		c-3.084,0.127-5.578-1.234-6.256-3.412l-0.347-1.117l-0.348-1.116c-0.677-2.179,0.606-4.714,3.219-6.358l0,0
		c2.027-1.275,4.567-1.827,6.812-1.479l7.521,1.17C188.702,315.238,189.323,317.236,187.21,319.232z"/>
</g>
<g>
</g>
<g>
</g>
<g>
</g>
<g>
</g>
<g>
</g>
<g>
</g>
<g>
</g>
<g>
</g>
<g>
</g>
<g>
</g>
<g>
</g>
<g>
</g>
<g>
</g>
<g>
</g>
<g>
</g>
</svg>
