<?xml version="1.0" encoding="iso-8859-1"?>
<!-- Generator: Adobe Illustrator 19.0.0, SVG Export Plug-In . SVG Version: 6.00 Build 0)  -->
<svg xmlns="http://www.w3.org/2000/svg" xmlns:xlink="http://www.w3.org/1999/xlink" version="1.1" id="Layer_1" x="0px" y="0px" viewBox="0 0 512 512" style="enable-background:new 0 0 512 512;" xml:space="preserve">
<path style="fill:#74DBC9;" d="M290.839,511.997h-69.677c-71.512,0-129.484-57.972-129.484-129.484V241.452  c0-14.274,11.572-25.846,25.846-25.846h276.953c14.274,0,25.846,11.572,25.846,25.846v141.061  C420.323,454.025,362.351,511.997,290.839,511.997z"/>
<path style="fill:#6DCCBA;" d="M420.32,241.454V382.51c0,71.519-57.97,129.49-129.48,129.49h-53.743  c71.51,0,129.48-57.971,129.48-129.491V241.454c0-14.273-11.565-25.849-25.849-25.849h53.743  C408.755,215.605,420.32,227.18,420.32,241.454z"/>
<path style="fill:#FFFFFF;" d="M278.741,342.645c0-12.559-10.181-22.741-22.741-22.741c-12.559,0-22.741,10.181-22.741,22.741  c0,7.656,3.787,14.423,9.587,18.545v19.952c0,7.235,5.919,13.154,13.154,13.154l0,0c7.235,0,13.154-5.919,13.154-13.154V361.19  C274.953,357.068,278.741,350.301,278.741,342.645z"/>
<path style="fill:#F07B52;" d="M343.957,215.663V87.957C343.957,39.38,304.577,0,256,0l0,0c-48.577,0-87.957,39.38-87.957,87.957  v127.706h36.402V86.006c0-28.473,23.082-51.555,51.555-51.555l0,0c28.473,0,51.555,23.082,51.555,51.555v129.656L343.957,215.663  L343.957,215.663z"/>
<g>
</g>
<g>
</g>
<g>
</g>
<g>
</g>
<g>
</g>
<g>
</g>
<g>
</g>
<g>
</g>
<g>
</g>
<g>
</g>
<g>
</g>
<g>
</g>
<g>
</g>
<g>
</g>
<g>
</g>
</svg>
