<svg id="_x30_1_Moon" enable-background="new 0 0 48 48" height="512" viewBox="0 0 48 48" width="512" xmlns="http://www.w3.org/2000/svg"><path d="m13.979 36.021c6.297 6.297 16.291 6.607 22.983.974.424-.357.242-1.765-.936-1.607-3.428.461-7.022-.621-9.658-3.256-4.491-4.491-4.491-11.772 0-16.263 2.636-2.636 6.23-3.717 9.658-3.256 1.177.158 1.36-1.25.936-1.607-6.691-5.633-16.686-5.323-22.983.974-6.639 6.638-6.639 17.402 0 24.041z" fill="#f99f10"/><path d="m13.979 11.979c-5.683 5.683-6.5 14.397-2.453 20.95l11.849-11.849c.501-1.903 1.501-3.721 2.993-5.213 2.636-2.635 6.23-3.717 9.658-3.256 1.177.158 1.36-1.25.936-1.607-6.691-5.632-16.686-5.321-22.983.975z" fill="#f9c900"/></svg>