<svg id="Layer_1" height="512" viewBox="0 0 100 100" width="512" xmlns="http://www.w3.org/2000/svg" data-name="Layer 1"><path d="m69.53 53.42h12a0 0 0 0 1 0 0v38.69a5.89 5.89 0 0 1 -5.91 5.89h-.2a5.89 5.89 0 0 1 -5.89-5.89v-38.69a0 0 0 0 1 0 0z" fill="#565656" transform="matrix(.707 -.707 .707 .707 -31.41 75.58)"/><circle cx="42.53" cy="42.71" fill="#ddd" r="35.55"/><path d="m42.53 80.27a37.56 37.56 0 1 1 26.55-11 37.35 37.35 0 0 1 -26.55 11zm0-71.09a33.54 33.54 0 1 0 23.72 9.82 33.46 33.46 0 0 0 -23.72-9.82z" fill="#565656"/><g opacity=".05"><path d="m63.29 71.58a35.56 35.56 0 1 1 -31.37-62.81 35.56 35.56 0 0 0 31.37 62.81z"/></g><path d="m65.5 36.59v11.98h-17.11v17.11h-11.98v-17.11h-17.11v-11.98h17.11v-17.11h11.98v17.11z" fill="#88bdd3"/></svg>