<svg id="Capa_1" enable-background="new 0 0 512 512" height="512" viewBox="0 0 512 512" width="512" xmlns="http://www.w3.org/2000/svg"><g><path d="m285.919 376.09c-7.939-7.939-144.238-144.238-150.013-150.012-5.858-5.858-15.356-5.857-21.214.001l-83.974 83.974c-25.932 25.932-36.516 64.142-27.62 99.719l17.642 70.57c1.343 5.375 5.539 9.572 10.915 10.915l70.569 17.642c35.991 8.998 74.093-1.992 99.721-27.62l83.974-83.974c5.854-5.853 5.858-15.359 0-21.215z" fill="#1c6c94"/><path d="m285.922 397.308-83.977 83.966c-25.632 25.632-63.735 36.623-99.718 27.622-72.789-18.955-72.333-16.396-77.546-21.582 6.887-6.887 179.351-179.349 186.235-186.233.888.888 68.527 68.548 75.006 75.005 5.851 5.861 5.851 15.361 0 21.222z" fill="#165771"/><path d="m384.4 175.462c-2.134 5.509 7.36-6.215-197.955 199.734-13.714 13.714-35.923 13.721-49.644 0-13.715-13.715-13.722-35.922 0-49.643 205.997-205.35 194.192-195.797 199.766-197.974 7.372 23.73 24.913 40.795 47.833 47.883z" fill="#f4a56d"/><path d="m384.4 175.462c-2.167 5.586 2.591-1.478-197.955 199.734-13.711 13.711-35.923 13.721-49.644 0 .121-.12 185.439-185.432 217.647-217.645 8.2 8.23 18.391 14.331 29.952 17.911z" fill="#e7985b"/><path d="m321.665 239.967c-15.071 15.001-33.823 33.722-57.194 57.074l-49.514-49.514c23.352-23.372 42.063-42.123 57.085-57.184z" fill="#e7985b"/><path d="m321.665 239.967c-4.98 4.928-49.83 49.71-57.194 57.074l-24.752-24.752 57.135-57.134z" fill="#d38853"/><path d="m507.606 110.467-106.075-106.074c-5.858-5.858-15.357-5.858-21.215 0l-22.329 22.329c-34.626 34.626-42.849 98.583-7.071 134.359 35.718 35.72 99.674 27.615 134.36-7.071l22.329-22.329c5.86-5.857 5.86-15.356.001-21.214zm-43.544 22.329c-23.306 23.305-68.551 30.451-91.931 7.071-23.379-23.379-16.243-68.616 7.071-91.93l11.722-11.722 84.86 84.86z" fill="#165771"/><path d="m507.609 110.467-53.034-53.034-21.222 21.212 42.434 42.433-11.721 11.721c-23.312 23.302-68.555 30.452-91.937 7.07l-21.212 21.212c35.443 35.483 99.391 27.899 134.361-7.071l22.332-22.332c5.85-5.849 5.85-15.35-.001-21.211z" fill="#0c3f60"/></g></svg>