<svg id="Capa_1" enable-background="new 0 0 483.282 483.282" height="512" viewBox="0 0 483.282 483.282" width="512" xmlns="http://www.w3.org/2000/svg"><g><g id="icon_98_"><path d="m74.176 46.656h334.931c7.893 0 14.291 6.398 14.291 14.291v408.038c0 7.894-6.398 14.294-14.291 14.297h-334.931c-7.893 0-14.291-6.398-14.291-14.291v-408.044c-.001-7.893 6.398-14.291 14.291-14.291z" fill="#f6b863"/><path d="m82.255 67.813h318.771v394.312h-318.771z" fill="#eeefee"/><path d="m162.794 175.649h-59.423v-55.745h59.423zm-48.62-10.136h37.818v-35.472h-37.818z" fill="#575b6d"/><path d="m184.499 127.011h196.366v9.918h-196.366z" fill="#dbd8dd"/><path d="m184.499 158.635h108.874v9.918h-108.874z" fill="#dbd8dd"/><path d="m162.794 292.85h-59.423v-55.763h59.423zm-48.62-10.136h37.818v-35.49h-37.818z" fill="#575b6d"/><path d="m184.499 244.195h196.366v9.918h-196.366z" fill="#dbd8dd"/><path d="m184.499 275.824h108.874v9.918h-108.874z" fill="#dbd8dd"/><path d="m162.794 410.033h-59.423v-55.763h59.423zm-48.62-10.136h37.818v-35.49h-37.818z" fill="#575b6d"/><path d="m184.499 361.378h196.366v9.918h-196.366z" fill="#dbd8dd"/><path d="m184.499 393.008h108.874v9.918h-108.874z" fill="#dbd8dd"/><path d="m333.235 82.894-12.252-37.387c-2.844-8.649-10.933-14.482-20.037-14.45h-29.714c.783-16.35-11.836-30.238-28.186-31.021-16.35-.783-30.238 11.836-31.021 28.186-.042.878-.045 1.757-.009 2.635v.2h-29.708c-9.082-.03-17.143 5.811-19.943 14.45l-12.246 37.387z" fill="#575b6d"/><ellipse cx="241.641" cy="24.768" fill="#eeefee" rx="13.319" ry="13.319" transform="matrix(.383 -.924 .924 .383 126.287 238.537)"/></g></g></svg>