<svg id="Capa_1" enable-background="new 0 0 512 512" height="512" viewBox="0 0 512 512" width="512" xmlns="http://www.w3.org/2000/svg"><g><g><g><path d="m396 452h-280c-8.284 0-15-6.716-15-15v-362c0-8.284 6.716-15 15-15h280c8.284 0 15 6.716 15 15v362c0 8.284-6.716 15-15 15z" fill="#dcf0ff"/></g></g><path d="m456 512h-400c-8.284 0-15-6.716-15-15v-482c0-8.284 6.716-15 15-15h400c8.284 0 15 6.716 15 15v482c0 8.284-6.716 15-15 15zm-340-75h280v-362h-280z" fill="#c6865c"/><g fill="#b46e3d"><path d="m471 15c0-4.142-1.679-7.892-4.393-10.607l-70.607 70.607v362l70.607 70.607c2.714-2.715 4.393-6.465 4.393-10.607z"/><path d="m396 75 70.607-70.607c-2.715-2.714-6.465-4.393-10.607-4.393h-400c-4.142 0-7.892 1.679-10.607 4.393l70.607 70.607z"/><path d="m116 437-70.607 70.607c2.715 2.714 6.465 4.393 10.607 4.393h400c4.142 0 7.892-1.679 10.607-4.393l-70.607-70.607z"/></g><path d="m396 60h-140v392h140c8.284 0 15-6.716 15-15v-362c0-8.284-6.716-15-15-15z" fill="#bedceb"/><path d="m471 497v-482c0-8.284-6.716-15-15-15h-200v75h140v362h-140v75h200c8.284 0 15-6.716 15-15z" fill="#b46e3d"/><path d="m396 75 70.607-70.607c-2.715-2.714-6.465-4.393-10.607-4.393h-200v75z" fill="#985e33"/><path d="m396 437h-140v75h200c4.142 0 7.892-1.679 10.607-4.393z" fill="#985e33"/><g><path d="m294.989 271c-2.388 0-4.784-.569-6.979-1.723l-32.01-16.829-32.01 16.829c-5.053 2.657-11.178 2.214-15.797-1.142s-6.933-9.043-5.967-14.671l6.113-35.644-25.897-25.243c-4.088-3.985-5.56-9.946-3.795-15.376 1.764-5.43 6.458-9.388 12.108-10.209l35.789-5.2 16.005-32.43c2.527-5.12 7.742-8.361 13.451-8.361s10.924 3.242 13.451 8.361l16.005 32.43 35.789 5.2c5.65.821 10.344 4.779 12.108 10.209 1.765 5.43.293 11.391-3.795 15.376l-25.897 25.243 6.113 35.644c.965 5.627-1.348 11.315-5.967 14.671-2.613 1.899-5.708 2.865-8.818 2.865z" fill="#ffeb3c"/></g><path d="m288.01 269.277c2.195 1.154 4.591 1.723 6.979 1.723 3.11 0 6.205-.966 8.818-2.865 4.619-3.356 6.933-9.043 5.967-14.671l-6.113-35.644 25.897-25.243c4.088-3.985 5.56-9.946 3.795-15.376-1.764-5.43-6.458-9.388-12.108-10.209l-35.789-5.2-16.005-32.43c-2.527-5.12-7.742-8.362-13.451-8.362v131.448z" fill="#ffd228"/><g><path d="m336 331h-160c-8.284 0-15-6.716-15-15s6.716-15 15-15h160c8.284 0 15 6.716 15 15s-6.716 15-15 15z" fill="#646464"/></g><g><path d="m306 391h-100c-8.284 0-15-6.716-15-15s6.716-15 15-15h100c8.284 0 15 6.716 15 15s-6.716 15-15 15z" fill="#646464"/></g><path d="m336 301h-80v30h80c8.284 0 15-6.716 15-15s-6.716-15-15-15z" fill="#414141"/><path d="m306 361h-50v30h50c8.284 0 15-6.716 15-15s-6.716-15-15-15z" fill="#414141"/></g></svg>