<svg height="506pt" viewBox="-101 0 506 506.06513" width="506pt" xmlns="http://www.w3.org/2000/svg"><path d="m152.03125 506.066406c-2.207031 0-4-1.792968-4-4v-8c0-2.210937 1.792969-4 4-4 2.210938 0 4 1.789063 4 4v8c0 2.207032-1.789062 4-4 4zm0 0" fill="#f6bb42"/><path d="m168.03125 506.066406c-2.207031 0-4-1.792968-4-4v-8.800781c0-2.207031 1.792969-4 4-4 2.210938 0 4 1.792969 4 4v8.800781c0 2.207032-1.789062 4-4 4zm0 0" fill="#f6bb42"/><path d="m136.03125 506.066406c-2.207031 0-4-1.792968-4-4v-8.800781c0-2.207031 1.792969-4 4-4 2.210938 0 4 1.792969 4 4v8.800781c0 2.207032-1.789062 4-4 4zm0 0" fill="#f6bb42"/><path d="m129.199219 88.890625c1.554687-1.554687 2.832031-1.035156 2.832031 1.167969v120.824218 4.039063c0 .023437-.429688.070313-.957031.121094-.53125.046875-3.699219.503906-5.875.820312l-5.238281.867188c-2.160157.4375-3.921876.78125-3.921876.757812 0-.023437 0-1.832031 0-4.039062v-107.382813c0-2.203125 1.273438-5.273437 2.832032-6.832031zm0 0" fill="#8cc152"/><path d="m153.199219 19.234375c1.5625 1.558594 2.832031 4.628906 2.832031 6.832031v72 8 104.023438 4.078125c0 .050781-1.199219.050781-2.679688 0-1.480468-.046875-7.117187-.023438-9.320312.042969l-8.015625.421874c-2.183594.175782-3.984375.3125-3.984375.289063s0-1.832031 0-4.039063v-120.816406c0-2.203125 0-5.800781 0-8v-80c0-2.203125 1.273438-2.730468 2.832031-1.167968zm0 0" fill="#a0d468"/><path d="m156.03125 214.167969c0-.046875 0-1.871094 0-4.078125v-104.023438c0-2.203125 1.273438-2.730468 2.832031-1.167968l10.34375 10.34375c1.554688 1.550781 2.832031 4.621093 2.832031 6.832031v89.941406c0 2.203125-.757812 3.875-1.679687 3.722656-.917969-.152343-5.054687-.617187-7.039063-.839843-1.984374-.226563-7.289062-.6875-7.289062-.730469zm0 0" fill="#8cc152"/><path d="m187.390625 46.066406c.355469 0 .640625 1.796875.640625 4v165.382813c0 2.199219-1.75 3.558593-3.878906 3.03125l-8.183594-1.742188c-2.160156-.402343-3.929688-2.519531-3.929688-4.730469v-89.941406c0-2.203125 0-5.800781 0-8v-56c0-2.203125 1.578126-4.855468 3.511719-5.90625l7.683594-4.191406c1.941406-1.046875 3.804687-1.902344 4.15625-1.902344zm0 0" fill="#a0d468"/><path d="m304.03125 350.074219c0 83.945312-68.050781 152-152 152-83.945312 0-152-68.054688-152-152 0-83.949219 68.054688-152 152-152 83.949219 0 152 68.050781 152 152zm0 0" fill="#ffce54"/><path d="m160.03125 198.226562v-.160156c-1.09375 0-2.167969.0625-3.246094.09375 1.085938.023438 2.175782.039063 3.246094.066406zm0 0" fill="#fff"/><g fill="#f6bb42"><path d="m136.03125 482.074219c-1.023438 0-2.046875-.394531-2.832031-1.167969-1.679688-1.679688-41.167969-42.183594-41.167969-130.832031 0-88.648438 39.496094-129.152344 41.167969-130.832031 1.5625-1.554688 4.089843-1.5625 5.648437 0 1.5625 1.550781 1.570313 4.085937.015625 5.648437-.382812.390625-38.832031 40.101563-38.832031 125.183594 0 85.359375 38.441406 124.78125 38.832031 125.167969 1.5625 1.558593 1.5625 4.09375 0 5.65625-.78125.78125-1.808593 1.175781-2.832031 1.175781zm0 0"/><path d="m96.023438 474.074219c-.6875 0-1.382813-.175781-2.015626-.546875 0 0-1.457031-.847656-3.933593-2.566406-12.722657-9.128907-54.042969-44.710938-54.042969-120.886719 0-76.136719 41.320312-111.753907 53.984375-120.855469 2.546875-1.746094 3.992187-2.59375 3.992187-2.59375 1.890626-1.105469 4.351563-.472656 5.472657 1.433594 1.121093 1.902344.488281 4.351562-1.425781 5.46875-.0625.050781-1.324219.792968-3.4375 2.242187-11.808594 8.480469-50.585938 41.976563-50.585938 114.304688 0 72.375 38.777344 105.824219 50.65625 114.34375 2.050781 1.421875 3.296875 2.167969 3.367188 2.207031 1.90625 1.121094 2.539062 3.558594 1.425781 5.472656-.742188 1.261719-2.078125 1.976563-3.457031 1.976563zm0 0"/><path d="m168.03125 482.074219c-1.015625 0-2.039062-.394531-2.824219-1.167969-1.558593-1.554688-1.566406-4.089844-.015625-5.648438.394532-.394531 38.832032-40.105468 38.832032-125.175781 0-85.359375-38.4375-124.785156-38.832032-125.167969-1.558594-1.5625-1.558594-4.097656 0-5.65625 1.5625-1.5625 4.097656-1.5625 5.65625 0 1.679688 1.679688 41.167969 42.183594 41.167969 130.832032 0 88.648437-39.496094 129.152344-41.167969 130.832031-.765625.757813-1.792968 1.152344-2.816406 1.152344zm0 0"/><path d="m208.039062 474.074219c-1.390624 0-2.734374-.722657-3.476562-2.007813-1.097656-1.914062-.441406-4.359375 1.476562-5.464844.539063-.3125 53.992188-32.097656 53.992188-116.527343 0-84.695313-53.445312-116.21875-53.984375-116.519531-1.917969-1.105469-2.582031-3.546876-1.496094-5.464844 1.113281-1.921875 3.5625-2.5625 5.464844-1.496094 2.367187 1.359375 58.015625 34.175781 58.015625 123.480469 0 89.304687-55.648438 122.117187-58.015625 123.480469-.625.34375-1.304687.519531-1.976563.519531zm0 0"/></g></svg>