<svg height="512" viewBox="0 0 58 57" width="512" xmlns="http://www.w3.org/2000/svg"><g id="Page-1" fill="none" fill-rule="evenodd"><g id="016---Brig-htness"><path id="Path" d="m33.59 50h22.41c1.1032019.0032948 1.9967052.8967981 2 2-.0081672 1.1011688-.8988312 1.9918328-2 2h-54c-1.10320187-.0032948-1.9967052-.8967981-2-2-.00282307-.5305905.2101411-1.0395388.59-1.41.3704612-.3798589.87940947-.5928231 1.41-.59z" fill="#3b97d3"/><circle id="Oval" cx="29" cy="52" fill="#9fc9d3" r="5"/><circle id="Oval" cx="29" cy="22" fill="#f3d55b" r="12"/><path id="Path" d="m21.812 26.635c-.3937524.0005372-.751168-.2300409-.913-.589-2.0925337-4.2935134-.5048732-9.4741622 3.634-11.858.479107-.2761424 1.0913576-.111607 1.3675.3675s.111607 1.0913576-.3675 1.3675c-3.2343821 1.8805432-4.4608615 5.9440482-2.807 9.3.1398484.3092897.1132554.6684037-.0706245.9537207-.18388.2853171-.4999384.4578776-.8393755.4582793z" fill="#fff"/><g fill="#f0c419"><path id="Path" d="m29 6c-.5522847 0-1-.44771525-1-1v-4c0-.55228475.4477153-1 1-1s1 .44771525 1 1v4c0 .55228475-.4477153 1-1 1z"/><path id="Path" d="m29 44c-.5522847 0-1-.4477153-1-1v-4c0-.5522847.4477153-1 1-1s1 .4477153 1 1v4c0 .5522847-.4477153 1-1 1z"/><path id="Path" d="m50 23h-4c-.5522847 0-1-.4477153-1-1s.4477153-1 1-1h4c.5522847 0 1 .4477153 1 1s-.4477153 1-1 1z"/><path id="Path" d="m12 23h-4c-.55228475 0-1-.4477153-1-1s.44771525-1 1-1h4c.5522847 0 1 .4477153 1 1s-.4477153 1-1 1z"/><path id="Path" d="m10.814 33.5c-.4525881-.0000199-.84874105-.3040116-.96588095-.7411777s.07393969-.8985084.46588095-1.1248223l3.464-2c.3095704-.1814844.6926495-.1831833 1.0038174-.0044519.311168.1787315.5027136.5104885.5019247.8693336s-.1937913.6897567-.5057421.8671183l-3.464 2c-.1518701.0881308-.3244113.1343718-.5.134z"/><path id="Path" d="m43.724 14.5c-.4525881-.0000199-.8487411-.3040116-.9658809-.7411777-.1171399-.4371661.0739396-.8985084.4658809-1.1248223l3.464-2c.47786-.2716903 1.0854205-.1067416 1.3602745.3693057.2748541.4760473.1139391 1.0846885-.3602745 1.3626943l-3.464 2c-.1520167.0877772-.324461.1339923-.5.134z"/><path id="Path" d="m20.5 8.277c-.3576137.00034843-.6881932-.19029718-.867-.5l-2-3.464c-.2716903-.47785996-.1067416-1.08542045.3693057-1.36027453s1.0846885-.11393908 1.3626943.36027453l2 3.464c.1785415.30924248.1786393.6902222.0002566.99955632-.1783827.30933411-.5081742.50007763-.8652566.50044368z"/><path id="Path" d="m39.5 41.187c-.3576137.0003484-.6881932-.1902972-.867-.5l-2-3.464c-.1814844-.3095704-.1831833-.6926495-.0044519-1.0038174.1787315-.311168.5104885-.5027136.8693336-.5019247s.6897567.1937913.8671183.5057421l2 3.464c.1785415.3092425.1786393.6902222.0002566.9995563s-.5081742.5000777-.8652566.5004437z"/><path id="Path" d="m47.186 33.5c-.1755887.0003718-.3481299-.0458692-.5-.134l-3.464-2c-.3119508-.1773616-.5049532-.5082732-.5057421-.8671183s.1907567-.6906021.5019247-.8693336c.3111679-.1787314.694247-.1770325 1.0038174.0044519l3.464 2c.3919413.2263139.5830208.6876562.4658809 1.1248223-.1171398.4371661-.5132928.7411578-.9658809.7411777z"/><path id="Path" d="m14.276 14.5c-.175539-.0000077-.3479833-.0462228-.5-.134l-3.464-2c-.47421361-.2780058-.63512861-.886647-.36027453-1.3626943.27485403-.4760473.88241453-.640996 1.36027453-.3693057l3.464 2c.3919413.2263139.5830208.6876562.4658809 1.1248223-.1171398.4371661-.5132928.7411578-.9658809.7411777z"/><path id="Path" d="m37.5 8.277c-.3570824-.00036605-.6868739-.19110957-.8652566-.50044368-.1783827-.30933412-.1782849-.69031384.0002566-.99955632l2-3.464c.2780058-.47421361.886647-.63512861 1.3626943-.36027453s.640996.88241457.3693057 1.36027453l-2 3.464c-.1788068.30970282-.5093863.50034843-.867.5z"/><path id="Path" d="m18.5 41.187c-.3570824-.000366-.6868739-.1911096-.8652566-.5004437s-.1782849-.6903138.0002566-.9995563l2-3.464c.1773616-.3119508.5082732-.5049532.8671183-.5057421s.6906021.1907567.8693336.5019247c.1787314.3111679.1770325.694247-.0044519 1.0038174l-2 3.464c-.1788068.3097028-.5093863.5003484-.867.5z"/></g><circle id="Oval" cx="29" cy="14" fill="#fff" r="1"/></g></g></svg>