<?xml version="1.0" encoding="iso-8859-1"?>
<!-- Generator: Adobe Illustrator 19.0.0, SVG Export Plug-In . SVG Version: 6.00 Build 0)  -->
<svg version="1.1" id="Capa_1" xmlns="http://www.w3.org/2000/svg" xmlns:xlink="http://www.w3.org/1999/xlink" x="0px" y="0px"
	 viewBox="0 0 490.68 490.68" style="enable-background:new 0 0 490.68 490.68;" xml:space="preserve">
<path style="fill:#F1F2F2;" d="M426.673,192.014L245.34,309.347L64.007,192.014V10.68C63.882,4.914,68.455,0.139,74.221,0.014
	c0.151-0.003,0.302-0.003,0.453,0h341.333c5.766-0.125,10.542,4.448,10.667,10.214c0.003,0.151,0.003,0.302,0,0.453V192.014z"/>
<g>
	<path style="fill:#F6B445;" d="M64.007,192.014l-64-42.667l64-64V192.014z"/>
	<path style="fill:#F6B445;" d="M490.673,149.347l-64,42.667V85.347L490.673,149.347z"/>
</g>
<path style="fill:#FED049;" d="M426.673,191.054l64-41.707v298.667c-0.02,11.314-4.505,22.162-12.48,30.187l-72.853-72.853
	L288.007,288.014l-2.987-4.587L426.673,191.054z"/>
<path style="fill:#F6B445;" d="M405.34,405.347l72.853,72.853c-8.025,7.975-18.873,12.46-30.187,12.48H42.673
	c-11.314-0.02-22.162-4.505-30.187-12.48l72.853-72.853l117.333-117.333l2.987-4.587l39.68,25.92l39.68-25.92l2.987,4.587
	L405.34,405.347z"/>
<path style="fill:#FED049;" d="M205.66,283.427l-2.987,4.587L85.34,405.347L12.487,478.2c-7.975-8.025-12.46-18.873-12.48-30.187
	V149.347L205.66,283.427z"/>
<path style="fill:#A4B0C0;" d="M192.007,64.014h106.667c17.673,0,32,14.327,32,32v85.333c0,17.673-14.327,32-32,32H192.007
	c-17.673,0-32-14.327-32-32V96.014C160.007,78.34,174.334,64.014,192.007,64.014z"/>
<g>
	<path style="fill:#768BA0;" d="M266.673,106.68h-42.667c-5.891,0-10.667,4.776-10.667,10.667s4.776,10.667,10.667,10.667h10.667v32
		c0,5.891,4.776,10.667,10.667,10.667s10.667-4.776,10.667-10.667v-32h10.667c5.891,0,10.667-4.776,10.667-10.667
		S272.564,106.68,266.673,106.68z"/>
	<path style="fill:#768BA0;" d="M213.34,32.142c-0.578-5.377,3.312-10.205,8.689-10.783c0.657-0.071,1.32-0.075,1.978-0.012h42.539
		c5.384-0.572,10.211,3.329,10.783,8.713c0.069,0.649,0.073,1.304,0.012,1.954V42.68h21.333V32.014
		c0.502-17.171-13.01-31.498-30.181-32c-0.606-0.018-1.213-0.018-1.819,0h-42.667c-17.171-0.502-31.498,13.01-32,30.181
		c-0.018,0.606-0.018,1.213,0,1.819v32h21.333L213.34,32.142z"/>
</g>
<g>
</g>
<g>
</g>
<g>
</g>
<g>
</g>
<g>
</g>
<g>
</g>
<g>
</g>
<g>
</g>
<g>
</g>
<g>
</g>
<g>
</g>
<g>
</g>
<g>
</g>
<g>
</g>
<g>
</g>
</svg>
