<svg id="Capa_1" enable-background="new 0 0 508.963 508.963" height="512" viewBox="0 0 508.963 508.963" width="512" xmlns="http://www.w3.org/2000/svg"><g><g><g><path d="m337.681 460.39c-17.765 0-35.282-2.714-52.065-8.066-20.078-6.403-42.192-6.403-62.27 0-16.783 5.353-34.3 8.066-52.065 8.066-94.443 0-171.28-76.836-171.281-171.28 0-45.692 17.721-88.642 49.899-120.94 32.179-32.299 75.064-50.177 120.754-50.342 17.561-.059 34.928 2.531 51.568 7.711 21.104 6.57 43.415 6.57 64.519 0 16.641-5.18 33.982-7.747 51.569-7.711 45.69.165 88.575 18.043 120.754 50.342 32.178 32.298 49.899 75.249 49.899 120.94 0 94.444-76.837 171.28-171.281 171.28z" fill="#ff405c"/><path d="m459.064 168.17c-32.179-32.299-75.064-50.177-120.754-50.342-17.587-.036-34.928 2.531-51.569 7.711-8.335 2.595-16.859 4.148-25.421 4.693v317.528c8.248.543 16.429 2.054 24.297 4.563 16.783 5.353 34.3 8.066 52.065 8.066 94.444 0 171.281-76.836 171.282-171.28-.001-45.691-17.722-88.641-49.9-120.939z" fill="#ff1f3d"/></g><g fill="#c6001c"><path d="m392.261 301.548c-6.287 0-11.98-4.063-14.115-9.952-2.13-5.875-.236-12.697 4.605-16.647 4.857-3.963 11.834-4.488 17.216-1.265 5.368 3.215 8.237 9.654 7.004 15.795-1.39 6.92-7.643 12.069-14.71 12.069z"/><path d="m381.251 378.639c-6.284 0-11.986-4.065-14.119-9.953-2.134-5.891-.226-12.682 4.609-16.647 4.863-3.988 11.815-4.458 17.213-1.27 5.379 3.177 8.239 9.684 7.008 15.8-1.393 6.916-7.644 12.07-14.711 12.07z"/><path d="m321.781 314.758c-6.286 0-11.98-4.051-14.115-9.946-2.131-5.882-.234-12.687 4.605-16.644 4.861-3.974 11.825-4.478 17.217-1.27 5.372 3.197 8.232 9.665 7.003 15.79-1.391 6.93-7.638 12.07-14.71 12.07z"/></g></g><g><g><path d="m258.821 160.349c-.182 0-.364-.003-.547-.01-8.279-.297-14.75-7.248-14.453-15.528.087-2.433 2.681-59.981 50.057-93.484 6.762-4.783 16.125-3.179 20.908 3.586 4.783 6.764 3.178 16.124-3.586 20.908-35.384 25.022-37.382 69.617-37.398 70.065-.291 8.095-6.946 14.463-14.981 14.463z" fill="#c97340"/><path d="m314.786 54.914c-4.783-6.765-14.146-8.37-20.908-3.586-14.787 10.457-25.211 23.257-32.559 35.992v72.806c6.872-1.16 12.223-7.002 12.482-14.238.016-.448 2.014-45.043 37.398-70.065 6.764-4.785 8.37-14.146 3.587-20.909z" fill="#964c22"/></g><g><path d="m378.151 211.981c-.208-2.039-5.479-50.19-39.142-72.675v-.001c-28.03-18.722-64.954-12.446-77.662-9.481-13.457-3.441-54.639-11.486-86.154 8.81-37.393 24.083-44.088 77.062-44.354 79.305-.849 7.143 3.492 13.883 10.346 16.064 1.231.392 18.429 5.731 39.926 5.731 16.1 0 34.611-2.997 50.624-13.309 13.464-8.671 22.947-21.09 29.585-33.537 5.699 9.937 13.486 19.572 24.094 26.657 15.105 10.09 32.795 12.919 47.886 12.919 18.54 0 33.156-4.27 34.238-4.595 6.89-2.066 11.343-8.732 10.613-15.888z" fill="#5bc980"/><path d="m378.151 211.981c-.208-2.039-5.479-50.19-39.142-72.675v-.001c-28.03-18.722-64.954-12.446-77.662-9.481-.009-.002-.019-.005-.028-.007v63.072c5.699 9.937 13.486 19.572 24.094 26.657 15.105 10.09 32.795 12.919 47.886 12.919 18.54 0 33.156-4.27 34.238-4.595 6.891-2.067 11.344-8.733 10.614-15.889z" fill="#00b44b"/></g></g></g></svg>