<svg height="512" viewBox="0 0 128 128" width="512" xmlns="http://www.w3.org/2000/svg"><g><path d="m89.182 94.155h7.365v26.845h-7.365z" fill="#ff941f"/><path d="m31.453 94.155h7.365v26.845h-7.365z" fill="#ff941f"/><path d="m58.857 94.13h10.286v26.87h-10.286z" fill="#ffa64d"/><path d="m121 90.608a102.611 102.611 0 0 1 -13.67-16.837l6.835-3.5c-5.334-4.5-13.836-16.505-13.836-16.505l5.671-2.166c-8.5-7.5-13.132-19.831-13.132-19.831s-4.633 12.331-13.135 19.831l5.667 2.167s-8.5 12.006-13.836 16.505l6.835 3.5a102.576 102.576 0 0 1 -13.669 16.836 111.517 111.517 0 0 0 56.27 0z" fill="#79ce00"/><path d="m63.27 90.608a102.576 102.576 0 0 1 -13.67-16.837l6.834-3.5c-5.334-4.498-13.834-16.504-13.834-16.504l5.667-2.167c-8.5-7.5-13.132-19.831-13.132-19.831s-4.63 12.331-13.135 19.831l5.668 2.167s-8.5 12.006-13.836 16.505l6.834 3.5a102.576 102.576 0 0 1 -13.666 16.836 111.517 111.517 0 0 0 56.27 0z" fill="#79ce00"/><path d="m103.294 89.178c-10.709-10.245-19.094-23.515-19.094-23.515l9.546-4.887c-7.446-6.284-19.322-23.052-19.322-23.052l7.916-3.024c-11.873-10.48-18.34-27.7-18.34-27.7s-6.467 17.22-18.341 27.7l7.916 3.027s-11.875 16.765-19.324 23.049l9.549 4.887s-8.382 13.27-19.092 23.515a155.768 155.768 0 0 0 78.586 0z" fill="#a5e23b"/></g></svg>