<svg height="512" viewBox="0 0 48 48" width="512" xmlns="http://www.w3.org/2000/svg"><g id="envelop"><path d="m47 9v30l-18.16-15.79z" fill="#ffba55"/><path d="m47 9-23 18-23-18z" fill="#fc6"/><path d="m47 39h-46l18.16-15.79 4.84 3.79 4.84-3.79z" fill="#fc6"/><path d="m19.16 23.21-18.16 15.79v-30z" fill="#ffba55"/><path d="m44.7 37h-35.7a5.93 5.93 0 0 1 -4-1.51l14.16-12.28 4.84 3.79 4.84-3.79z" fill="#ffde76"/><path d="m19.16 23.21-14.16 12.28a5.94 5.94 0 0 1 -2-4.49v-20.44z" fill="#fc6"/><path d="m47 9v28h-2.3l-15.86-13.79z" fill="#fc6"/><path d="m47 9-23 18-21-16.44v-1.56z" fill="#ffde76"/><path d="m47 10.27-16.59 13 16.59 14.41v1.32h-1.52l-16.67-14.49-4.19 3.28a1 1 0 0 1 -1.24 0l-4.19-3.28-16.67 14.49h-1.52v-1.32l16.59-14.43-16.59-12.98v-1.27h1.63l21.37 16.73 21.37-16.73h1.63z" fill="#ffba55"/></g></svg>