<?xml version="1.0" encoding="iso-8859-1"?>
<!-- Generator: Adobe Illustrator 19.0.0, SVG Export Plug-In . SVG Version: 6.00 Build 0)  -->
<svg version="1.1" id="Layer_1" xmlns="http://www.w3.org/2000/svg" xmlns:xlink="http://www.w3.org/1999/xlink" x="0px" y="0px"
	 viewBox="0 0 512 512" style="enable-background:new 0 0 512 512;" xml:space="preserve">
<path style="fill:#F09EA0;" d="M158.353,487.576L333.439,33.297c1-2.499,3.053-4.43,5.61-5.273l83.503-27.563
	c4.78-1.578,9.94,1.019,11.52,5.802c1.578,4.784-1.019,9.941-5.802,11.52L348.8,44.016l-167.743,443.56
	C172.524,487.576,169.837,487.576,158.353,487.576z"/>
<path style="fill:#88E2E2;" d="M318.934,512H130.776c-13.35,0-24.451-10.274-25.481-23.585L77.511,129.433
	c-0.647-8.352,5.956-15.485,14.333-15.485h266.021c8.377,0,14.979,7.133,14.333,15.485l-27.784,358.982
	C343.385,501.724,332.284,512,318.934,512z"/>
<path style="fill:#67D1D3;" d="M319.655,113.948l-28.983,374.467c-1.03,13.31-12.131,23.585-25.481,23.585h53.742
	c13.35,0,24.451-10.274,25.481-23.585l27.784-358.982c0.647-8.352-5.956-15.485-14.333-15.485L319.655,113.948L319.655,113.948z"/>
<path style="fill:#E1E1E3;" d="M301.689,487.576H148.02c-10.903,0-19.969-8.935-20.81-20.511l-22.691-312.188
	c-0.528-7.263,4.864-13.466,11.706-13.466h217.261c6.841,0,12.233,6.203,11.706,13.466l-22.691,312.19
	C321.658,478.64,312.592,487.576,301.689,487.576z"/>
<path style="fill:#F9DE8F;" d="M114.882,297.441l12.329,169.625c0.841,11.576,9.907,20.511,20.81,20.511H301.69
	c10.903,0,19.969-8.935,20.81-20.511l12.329-169.625H114.882z"/>
<path style="fill:#F09EA0;" d="M291.771,141.41L158.353,487.576c11.483,0,14.171,0,22.704,0l130.911-346.167h-20.196V141.41z"/>
<g>
	<path style="fill:#F7CF6D;" d="M231.634,297.441l-73.281,190.134c11.483,0,14.171,0,22.704,0l71.903-190.134H231.634z"/>
	<path style="fill:#F7CF6D;" d="M290.737,487.576h10.953c10.903,0,19.969-8.935,20.81-20.511L334.83,297.44h-29.376L290.737,487.576
		z"/>
	<circle style="fill:#F7CF6D;" cx="172.374" cy="330.739" r="6.891"/>
	<circle style="fill:#F7CF6D;" cx="158.596" cy="353.807" r="6.891"/>
	<circle style="fill:#F7CF6D;" cx="224.858" cy="470.547" r="6.891"/>
	<circle style="fill:#F7CF6D;" cx="261.923" cy="470.547" r="6.891"/>
	<circle style="fill:#F7CF6D;" cx="144.332" cy="330.739" r="6.891"/>
</g>
<g>
</g>
<g>
</g>
<g>
</g>
<g>
</g>
<g>
</g>
<g>
</g>
<g>
</g>
<g>
</g>
<g>
</g>
<g>
</g>
<g>
</g>
<g>
</g>
<g>
</g>
<g>
</g>
<g>
</g>
</svg>
