<svg id="Capa_1" enable-background="new 0 0 497.517 497.517" height="512" viewBox="0 0 497.517 497.517" width="512" xmlns="http://www.w3.org/2000/svg"><g><path d="m360.713 375.45-40.014 59.118c-56.808 83.932-180.428 83.932-237.237 0l-40.013-59.118c-64.841-95.799-55.641-223.54 22.258-309.059l9.366-10.282c68.147-74.813 185.87-74.813 254.016 0l9.366 10.282c77.898 85.519 87.098 213.26 22.258 309.059z" fill="#c68d7a"/><path d="m361.137 95.278c-18.942-5.371-38.741-8.16-58.971-8.16-57.415 0-111.394 22.359-151.993 62.958-29.761 29.761-49.703 98.797-58.223 133.987-1.289 5.325-8.929 5.163-9.994-.21-15.101-76.165 5.685-157.27 60.513-217.461l9.366-10.282c24.627-27.036 55.743-44.299 88.64-51.795-58.134-13.245-121.883 4.018-165.402 51.795l-9.366 10.282c-77.899 85.519-87.099 213.26-22.258 309.059l40.014 59.118c30.426 44.952 80.014 65.8 128.24 62.598.012.006.024.011.036.017 41.807-2.783 82.585-23.646 108.961-62.615l40.014-59.118c57.885-85.524 56.755-196.503.423-280.173z" fill="#bc7c63"/><path d="m124.473 431.271-28.943-59.119c-8.558-17.479-15.443-36.406-20.465-56.256-1.016-4.015-5.092-6.448-9.111-5.432-4.015 1.016-6.447 5.095-5.431 9.11 5.276 20.855 12.522 40.764 21.536 59.173l28.943 59.119c9.62 19.651 22.928 36.664 37.911 49.526 16.79 6.658 34.638 10.039 52.491 10.123-28.305-4.316-59.599-30.843-76.931-66.244z" fill="#aa6a51"/><path d="m196.033.106.004 70.527c0 4.142 3.358 7.5 7.5 7.5s7.5-3.358 7.5-7.5l.009-70.401c-4.996-.259-10.014-.301-15.013-.126z" fill="#bc7c63"/><g><path d="m137.983 124.183c-4.142 0-7.5-3.358-7.5-7.5v-13.955c0-4.142 3.358-7.5 7.5-7.5s7.5 3.358 7.5 7.5v13.955c0 4.142-3.358 7.5-7.5 7.5z" fill="#bc7c63"/></g><circle cx="302.166" cy="302.069" fill="#bc7c63" r="194.95"/><path d="m186.032 302.069c0-94.167 66.766-172.739 155.542-190.964-12.728-2.613-25.908-3.987-39.409-3.987-107.668 0-194.95 87.282-194.95 194.95s87.282 194.95 194.95 194.95c13.501 0 26.681-1.374 39.409-3.987-88.776-18.223-155.542-96.795-155.542-190.962z" fill="#aa6a51"/><path d="m419.674 201.88h-21.214c-5.837 0-10.195-5.37-8.995-11.081l2.444-11.631c.787-3.747-.846-7.565-4.059-9.647-25.022-16.21-54.923-25.529-87.018-25.264-86.488.714-156.751 71.819-156.485 158.31.188 60.97 34.956 113.794 85.716 139.912 1.285.661 2.808.681 4.122.079l25.7-11.784c2.735-1.254 5.93.326 6.595 3.26l4.498 19.855c.425 1.877 1.946 3.296 3.843 3.628 8.882 1.553 18.017 2.371 27.344 2.371 87.16 0 157.818-70.657 157.818-157.818 0-36.399-12.324-69.918-33.025-96.617-1.746-2.252-4.435-3.573-7.284-3.573z" fill="#f3f0f3"/><path d="m144.349 302.566c.188 60.97 34.956 113.794 85.716 139.912 1.285.661 2.808.681 4.122.079l7.954-3.647c-34.693-35.197-56.109-83.515-56.109-136.84 0-61.245 28.235-115.888 72.407-151.628-65.931 19.12-114.312 80.318-114.09 152.124z" fill="#e2dee2"/></g></svg>