<svg id="Capa_1" enable-background="new 0 0 512 512" height="512" viewBox="0 0 512 512" width="512" xmlns="http://www.w3.org/2000/svg"><g clip-rule="evenodd" fill-rule="evenodd"><path d="m10.006 498.078h492.016c5.499 0 9.978-4.478 9.978-9.978v-116.871c0-5.5-4.479-10.006-9.978-10.006h-492.016c-5.499 0-10.006 4.506-10.006 10.006v116.871c0 5.5 4.507 9.978 10.006 9.978z" fill="#62d9fa"/><path d="m0 404.649h512v25.002h-512z" fill="#52cef0"/><path d="m256 309.149c89.406 0 161.889 53.973 161.889 120.502h-323.778c0-66.53 72.483-120.502 161.889-120.502z" fill="#ffe177"/><path d="m10.006 498.078h492.016c5.499 0 9.978-4.478 9.978-9.978 0-19.473 0-38.975 0-58.449-170.648 0-341.324 0-512 0v58.449c0 5.5 4.507 9.978 10.006 9.978z" fill="#98e5fa"/><path d="m10.006 498.078h492.016c5.499 0 9.978-4.478 9.978-9.978v-15.023h-512v15.023c0 5.5 4.507 9.978 10.006 9.978z" fill="#8bdef5"/><path d="m229.977 314.166c.028-40.365 9.61-134.305 92.836-186.717l13.748 11.508s-57.827 69.449-54.539 174.729c.113 12.131-16.64 16.895-26.022 16.895-14.372-.001-26.023-7.343-26.023-16.415z" fill="#c2954e"/><path d="m256.624 87.963c32.372 0 59.415 19.02 66.19 44.504h-124.641c-6.151 0-6.775-3.998-4.564-8.646 9.978-21.034 34.441-35.858 63.015-35.858z" fill="#78c2a4"/><path d="m389.031 77.955c28.545 0 52.98 14.826 62.987 35.803 2.381 4.988 2.126 8.701-4.536 8.701h-124.668c6.774-25.482 33.845-44.504 66.217-44.504z" fill="#78c2a4"/><path d="m401.107 142.813c-22.904-22.904-55.475-28.574-78.293-15.363l88.159 88.156c4.819 4.82 7.285 2.807 9.297-2.807 7.852-21.91 1.077-49.775-19.163-69.986z" fill="#b3e59f"/><path d="m330.099 59.588c-10.403-26.533-33.024-43.854-56.184-45.582-5.868-.426-9.185.709-6.577 7.398l45.497 116.051c21.232-15.59 29.084-47.736 17.264-77.867z" fill="#b3e59f"/><path d="m324.685 158.715c14.059 0 25.512-11.451 25.512-25.512 0-14.031-11.452-25.484-25.512-25.484-14.032 0-25.484 11.453-25.484 25.484 0 14.061 11.451 25.512 25.484 25.512z" fill="#82635c"/><path d="m324.685 107.719c14.088 0 25.512 11.396 25.512 25.484s-11.424 25.512-25.512 25.512c-3.544 0-6.917-.736-9.979-2.041 9.1-3.883 15.478-12.926 15.478-23.471s-6.378-19.559-15.478-23.471c3.062-1.304 6.435-2.013 9.979-2.013z" fill="#785851"/><path d="m417.889 429.651c0-25.398-10.573-48.982-28.602-68.428-24.548-26.42-62.93-45.213-107.349-50.514.028.992.057 1.984.085 2.977 0 .537-.028 1.049-.085 1.559 33.732 8.305 62.533 24.66 82.347 45.979 18.029 19.445 28.602 43.029 28.602 68.428h25.002z" fill="#f7d96c"/><path d="m281.938 310.709c-1.446-70.611 24.435-124.725 41.103-152.051-4.848-.312-9.298-1.984-13.04-4.621-14.938 20.467-50.429 76.904-53.859 155.111-.312 6.975-.368 14.146-.142 21.432 8.957 0 24.662-4.365 25.938-15.336.057-.51.085-1.021.085-1.559-.029-.991-.057-1.984-.085-2.976z" fill="#b88b44"/><path d="m376.105 142.813c17.149 17.15 24.633 39.799 21.742 59.641l13.125 13.152c4.819 4.82 7.285 2.807 9.297-2.807 7.852-21.91 1.077-49.775-19.163-69.986-10.375-10.375-22.734-17.207-35.263-20.354-6.378-1.615-12.785-2.268-19.021-1.928.368.625.708 1.277.992 1.928.397.822.737 1.645 1.021 2.523 9.724 3.713 19.106 9.667 27.27 17.831z" fill="#95d6a4"/><path d="m422.48 122.459h25.002c6.662 0 6.917-3.713 4.536-8.701-10.007-20.977-34.441-35.803-62.987-35.803-4.28 0-8.447.34-12.5.965 23.017 3.6 41.981 16.978 50.485 34.838 2.381 4.988 2.126 8.701-4.536 8.701z" fill="#66b394"/><path d="m330.099 59.588c-10.403-26.533-33.024-43.854-56.184-45.582-4.819-.369-7.909.369-7.427 4.309 16.413 6.945 30.898 21.572 38.608 41.273 6.435 16.412 7.03 33.447 2.806 48.047-.879 3.09-1.984 6.037-3.288 8.873l.255.65c1.843-2.268 4.082-4.223 6.605-5.754 3.855-2.354 8.391-3.686 13.21-3.686 1.531 0 3.033.113 4.478.369 1.162.199 2.268.482 3.345.85.794-2.551 1.446-5.158 1.928-7.852 2.41-13.009 1.163-27.466-4.336-41.497z" fill="#95d6a4"/><path d="m301.071 107.465h-95.528c-5.018 4.791-9.071 10.318-11.934 16.355-2.211 4.648-1.587 8.646 4.564 8.646h101.028c.17-5.783 2.268-11.113 5.669-15.309l-.255-.65z" fill="#66b394"/></g></svg>