<svg id="Storm" enable-background="new 0 0 512 512" height="512" viewBox="0 0 512 512" width="512" xmlns="http://www.w3.org/2000/svg"><g><g><g><path d="m358.694 149.862c-9.723-.299-19.133.909-27.99 3.399-6.407-48.586-47.985-86.086-98.32-86.086-54.774 0-99.184 44.41-99.184 99.184 0 .317 0 .634.011.94-39.085 2.558-69.982 35.073-69.982 74.803v1.122c0 37.903 30.727 68.63 68.63 68.63h247.58c37.903 0 68.63-30.727 68.63-68.63v-.03c.001-50.021-39.377-91.792-89.375-93.332z" fill="#b9d9ed"/></g><path d="m356.76 150.314c-8.875-.049-17.469 1.157-25.597 3.443-6.407-48.586-47.985-86.086-98.32-86.086-36.955 0-69.189 20.217-86.252 50.192 14.453-8.228 31.173-12.932 48.992-12.932 50.335 0 91.914 37.5 98.32 86.086 8.128-2.286 16.722-3.491 25.597-3.443 50.95.279 91.769 42.455 91.769 93.406 0 9.275-1.85 18.115-5.185 26.185 24.911-10.293 42.445-34.817 42.445-63.445 0-50.951-40.819-93.127-91.769-93.406z" fill="#a5c1d6"/></g><g><g><path d="m239.921 445.879 16.648-83.008c.157-.784-.442-1.515-1.241-1.515h-27.995c-.791 0-1.389-.718-1.245-1.496l18.837-102.224c.111-.601.634-1.037 1.245-1.037h62.599c.818 0 1.421.764 1.232 1.56l-18.332 76.879c-.19.796.414 1.56 1.232 1.56h26.197c1.032 0 1.631 1.168 1.028 2.006l-77.936 108.264c-.796 1.106-2.537.347-2.269-.989z" fill="#ffbc28"/><path d="m319.098 336.599h-26.197c-.818 0-1.421-.764-1.232-1.56l18.332-76.879c.19-.796-.414-1.56-1.232-1.56h-24.716c-.6 0-1.118.421-1.24 1.009l-18.549 89.242c-.163.786.437 1.524 1.24 1.524h26.427c.996 0 1.602 1.096 1.073 1.939l-49.723 79.239c-.082.13-.139.274-.169.424l-3.19 15.903c-.268 1.336 1.473 2.094 2.269.989l77.936-108.263c.602-.838.003-2.007-1.029-2.007z" fill="#f2ae28"/></g><g><path d="m139.363 402.064 12.795-63.793c.121-.602-.34-1.164-.954-1.164h-21.514c-.608 0-1.067-.551-.957-1.149l14.476-78.561c.085-.462.488-.797.957-.797h48.108c.629 0 1.092.587.947 1.199l-14.088 59.083c-.146.612.318 1.199.947 1.199h20.133c.793 0 1.253.898.79 1.542l-59.894 83.202c-.614.848-1.952.265-1.746-.761z" fill="#ffbc28"/><path d="m200.212 318.08h-20.133c-.629 0-1.092-.587-.947-1.199l14.088-59.083c.146-.612-.318-1.199-.947-1.199h-18.995c-.461 0-.859.324-.953.775l-14.255 68.583c-.126.604.336 1.171.953 1.171h20.309c.765 0 1.231.842.824 1.49l-38.213 60.896c-.063.1-.107.21-.13.326l-2.451 12.222c-.206 1.026 1.132 1.609 1.744.76l59.894-83.202c.465-.642.005-1.54-.788-1.54z" fill="#f2ae28"/></g></g></g></svg>