<?xml version="1.0" encoding="iso-8859-1"?>
<!-- Generator: Adobe Illustrator 19.0.0, SVG Export Plug-In . SVG Version: 6.00 Build 0)  -->
<svg version="1.1" id="Capa_1" xmlns="http://www.w3.org/2000/svg" xmlns:xlink="http://www.w3.org/1999/xlink" x="0px" y="0px"
	 viewBox="0 0 510.229 510.229" style="enable-background:new 0 0 510.229 510.229;" xml:space="preserve">
<circle style="fill:#FFC107;" cx="181.333" cy="212.388" r="181.333"/>
<path style="fill:#455A64;" d="M499.563,201.721H392.896c-5.891-0.011-10.675,4.757-10.686,10.648
	c-0.005,2.84,1.123,5.565,3.134,7.571l45.803,45.781L286.229,410.639l-77.781-77.803c-4.165-4.164-10.917-4.164-15.083,0l-128,128
	c-4.237,4.093-4.354,10.845-0.262,15.083c4.093,4.237,10.845,4.354,15.083,0.262c0.089-0.086,0.176-0.173,0.262-0.262
	l120.448-120.448l77.781,77.781c4.165,4.164,10.917,4.164,15.083,0l152.469-152.448l45.781,45.781
	c4.16,4.171,10.914,4.179,15.085,0.019c2.006-2.001,3.133-4.717,3.134-7.55V212.388
	C510.229,206.497,505.454,201.721,499.563,201.721z"/>
<g>
	<path style="fill:#FAFAFA;" d="M179.563,287.055c-25.365,2.505-48.469-14.703-53.333-39.723c-0.492-5.867,3.862-11.023,9.728-11.52
		c5.799-0.287,10.832,3.962,11.52,9.728c0.939,11.115,15.296,20.181,32,20.181c17.365,0,32-9.771,32-21.333
		c0-10.389-10.112-17.067-31.787-21.099l-2.261-0.469c-34.581-6.315-51.2-20.48-51.2-42.432
		c3.337-26.292,26.95-45.182,53.333-42.667c25.365-2.505,48.469,14.703,53.333,39.723c0.492,5.867-3.862,11.023-9.728,11.52
		c-5.821,0.302-10.886-3.944-11.605-9.728c-0.896-11.115-15.253-20.181-32-20.181c-17.365,0-32,9.771-32,21.333
		c0,10.432,10.155,17.067,32,21.12l2.24,0.427c34.603,6.4,51.2,20.565,51.2,42.453C229.665,270.725,205.985,289.631,179.563,287.055
		z"/>
	<path style="fill:#FAFAFA;" d="M179.563,308.388c-5.891,0-10.667-4.776-10.667-10.667V127.055c0-5.891,4.776-10.667,10.667-10.667
		s10.667,4.776,10.667,10.667v170.667C190.229,303.612,185.454,308.388,179.563,308.388z"/>
</g>
<g>
</g>
<g>
</g>
<g>
</g>
<g>
</g>
<g>
</g>
<g>
</g>
<g>
</g>
<g>
</g>
<g>
</g>
<g>
</g>
<g>
</g>
<g>
</g>
<g>
</g>
<g>
</g>
<g>
</g>
</svg>
