<svg enable-background="new 0 0 64 64" height="512" viewBox="0 0 64 64" width="512" xmlns="http://www.w3.org/2000/svg"><g id="_x31_6-Mango"><g><path d="m30.0611057 7.7663574c-1.6992188-1.699707-3.9555664-2.6357422-6.3530273-2.6357422-.9111328 0-1.8139648.137207-2.6835938.4077148-.3144531.0981445-.5605469.34375-.6582031.6582031-.9960938 3.2036133-.1425781 6.6665039 2.2280273 9.0366211 1.6992188 1.699707 3.9550781 2.6357422 6.3525391 2.6357422.9111328 0 1.8144531-.137207 2.684082-.4077148.3144531-.0981445.5600567-.34375.6582012-.6582031.9960938-3.203125.1425782-6.6655273-2.2280254-9.0366211z" fill="#049c1f"/><path d="m20.6815281 5.7455444c-.1416626.1209106-.2584229.2679443-.3152466.4509888-.9960938 3.2036133-.1425781 6.6665039 2.2280273 9.0366211 1.6992188 1.699707 3.9550781 2.6357422 6.3525391 2.6357422.9111328 0 1.8144531-.137207 2.684082-.4077148.1830444-.0571289.3300171-.1737061.4509258-.3153076z" fill="#04811f"/><g><path d="m31.6968479 18.4348145c-.5522461 0-1-.4472656-1-1v-.9326172c0-4.5927734 2.6777325-8.8427734 6.8212872-10.828125.4970703-.2402344 1.0952148-.0292969 1.3339844.4697266.2387695.4980469.0283203 1.0947266-.4697266 1.3330078-3.4536133 1.6552734-5.6855469 5.1982422-5.6855469 9.0253906v.9326172c0 .5527343-.4477539 1-.9999981 1z" fill="#9e4c0b"/></g><path d="m44.3057327 25.7346191c-2.1323242-5.6123047-7.2568359-9.3828125-12.7524395-9.3828125-1.3398438 0-2.6855469.2167969-4.0004883.6455078-3.8764648 1.2636719-7.059082 4.6181641-8.5141602 8.9746094-1.5268555 4.5703125-.7099609 9.2050781.0795898 13.6875l.1420898.8105469c.4052734 2.3251953.2939453 4.3994141-.3320313 6.1630859-1.0805664 3.0449219-.7285156 6.1669922.9663086 8.5673828 1.6464844 2.3310547 4.3364258 3.6689453 7.3813477 3.6689453h.0009766c2.3916016 0 4.9389629-.8349609 7.3666973-2.4160156 6.3569336-4.1396484 10.7304688-12.1923828 11.1420898-20.515625.1796877-3.6523437-.3320311-7.180664-1.4799803-10.203125z" fill="#ffa300"/><path d="m24.8946018 55.2004395c-1.6948242-2.4003906-2.046875-5.5224609-.9663086-8.5673828.6259766-1.7636719.7373047-3.8378906.3320313-6.1630859l-.1420898-.8105469c-.7895508-4.4824219-1.6064453-9.1171875-.0795898-13.6875 1.4550781-4.3564453 4.6376953-7.7109375 8.5141582-8.9746094.4880981-.1591187.9812622-.2791138 1.4759521-.3795776-.8110962-.168335-1.6378784-.2659302-2.475462-.2659302-1.3398438 0-2.6855469.2167969-4.0004883.6455078-3.8764648 1.2636719-7.059082 4.6181641-8.5141602 8.9746094-1.5268555 4.5703125-.7099609 9.2050781.0795898 13.6875l.1420898.8105469c.4052734 2.3251953.2939453 4.3994141-.3320313 6.1630859-1.0805664 3.0449219-.7285156 6.1669922.9663086 8.5673828 1.6464844 2.3310547 4.3364258 3.6689453 7.3813477 3.6689453h.0009766c.840271 0 1.7003174-.1088867 2.5671387-.3111572-2.0200805-.5170899-3.7595214-1.6730958-4.9494628-3.3577881z" fill="#ff8500"/></g></g></svg>