<?xml version="1.0" encoding="iso-8859-1"?>
<!-- Generator: Adobe Illustrator 19.0.0, SVG Export Plug-In . SVG Version: 6.00 Build 0)  -->
<svg xmlns="http://www.w3.org/2000/svg" xmlns:xlink="http://www.w3.org/1999/xlink" version="1.1" id="Layer_1" x="0px" y="0px" viewBox="0 0 512 512" style="enable-background:new 0 0 512 512;" xml:space="preserve">
<path style="fill:#C8C6CD;" d="M391.069,129.92v82.577l-68.409-0.02v-79.957c0-16.977-7.459-32.345-19.527-43.473  C291.074,77.918,274.407,71.039,256,71.039c-36.814,0-66.66,27.526-66.66,61.48v79.898h-68.409V129.92  C120.931,58.171,181.402,0,256,0S391.069,58.171,391.069,129.92z"/>
<path style="fill:#AEADB3;" d="M391.069,129.92v82.577l-68.409-0.02v-79.957c0-16.977-7.459-32.345-19.527-43.473  C291.074,77.918,274.407,71.039,256,71.039V0C330.598,0,391.069,58.171,391.069,129.92z"/>
<path style="fill:#BD9B7B;" d="M438.501,206.048v123.451C438.501,430.133,356.634,512,256,512S73.498,430.133,73.498,329.498  V206.048H438.501z"/>
<path style="fill:#A17852;" d="M438.501,206.048v123.451C438.501,430.133,356.634,512,256,512V206.048L438.501,206.048  L438.501,206.048z"/>
<path style="fill:#8A6746;" d="M280.206,359.854l4.349,49.832h-57.111l4.349-49.832c-5.989-6.109-9.688-14.478-9.688-23.706  c0-18.727,15.178-33.895,33.895-33.895s33.895,15.168,33.895,33.895C289.895,345.376,286.195,353.745,280.206,359.854z"/>
<path style="fill:#654B33;" d="M280.206,359.854l4.349,49.832H256V302.253c18.717,0,33.895,15.168,33.895,33.895  C289.895,345.376,286.195,353.745,280.206,359.854z"/>
<g>
</g>
<g>
</g>
<g>
</g>
<g>
</g>
<g>
</g>
<g>
</g>
<g>
</g>
<g>
</g>
<g>
</g>
<g>
</g>
<g>
</g>
<g>
</g>
<g>
</g>
<g>
</g>
<g>
</g>
</svg>
