<?xml version="1.0" encoding="iso-8859-1"?>
<!-- Generator: Adobe Illustrator 19.0.0, SVG Export Plug-In . SVG Version: 6.00 Build 0)  -->
<svg xmlns="http://www.w3.org/2000/svg" xmlns:xlink="http://www.w3.org/1999/xlink" version="1.1" id="Layer_1" x="0px" y="0px" viewBox="0 0 512.001 512.001" style="enable-background:new 0 0 512.001 512.001;" xml:space="preserve">
<path style="fill:#EC7B5E;" d="M420.238,162.456l89.039-136.484c4.35-6.721,3.4-15.42-2.214-21.034  c-5.614-5.614-14.313-6.564-21.034-2.214L349.544,91.762c-8.856,5.852-10.201,18.425-2.688,25.937l47.445,47.445  C401.814,172.656,414.386,171.312,420.238,162.456z"/>
<path style="fill:#DB6A4B;" d="M394.302,165.145l-23.722-23.722L507.063,4.938c5.614,5.614,6.564,14.313,2.214,21.034  l-89.039,136.484C414.386,171.312,401.814,172.656,394.302,165.145z"/>
<path style="fill:#E55639;" d="M382.441,248.174L263.828,129.561l47.445-47.445c13.102-13.102,34.344-13.102,47.445,0l71.168,71.168  c13.102,13.102,13.102,34.344,0,47.445L382.441,248.174z"/>
<path style="fill:#CF4529;" d="M429.885,153.283l-35.584-35.584l-71.168,71.168l59.307,59.307l47.445-47.445  C442.987,187.627,442.987,166.385,429.885,153.283z"/>
<path style="fill:#FFEACC;" d="M109.63,497.262L14.74,402.371c-19.653-19.653-19.653-51.515,0-71.168l213.504-213.504  c19.653-19.653,51.515-19.653,71.168,0l94.891,94.891c19.653,19.653,19.653,51.515,0,71.168L180.799,497.262  C161.146,516.913,129.283,516.913,109.63,497.262z"/>
<path style="fill:#FFDBB2;" d="M394.302,212.59l-47.445-47.445L62.186,449.816l47.445,47.445c19.653,19.653,51.515,19.653,71.168,0  l213.504-213.504C413.954,264.105,413.955,232.243,394.302,212.59z"/>
<path style="fill:#4DA6FF;" d="M358.718,319.342L216.383,461.677l-83.029-83.029c-6.564-6.564-6.563-17.16,0-23.722l118.613-118.613  c6.563-6.563,17.159-6.564,23.722,0L358.718,319.342z"/>
<rect x="145.392" y="290.291" transform="matrix(-0.7071 0.7071 -0.7071 -0.7071 666.7932 421.8073)" style="fill:#4596E6;" width="201.291" height="117.42"/>
<g>
</g>
<g>
</g>
<g>
</g>
<g>
</g>
<g>
</g>
<g>
</g>
<g>
</g>
<g>
</g>
<g>
</g>
<g>
</g>
<g>
</g>
<g>
</g>
<g>
</g>
<g>
</g>
<g>
</g>
</svg>
