<svg height="512pt" viewBox="-35 0 512 512" width="512pt" xmlns="http://www.w3.org/2000/svg"><path d="m226.191406 411.558594c-4.265625 0-7.726562-3.460938-7.726562-7.726563v-175.65625c0-4.269531 3.460937-7.726562 7.726562-7.726562 4.269532 0 7.726563 3.457031 7.726563 7.726562v175.65625c0 4.265625-3.457031 7.726563-7.726563 7.726563zm0 0" fill="#666"/><path d="m247.941406 54.34375h-43.292968v-33.84375c0-11.320312 9.179687-20.5 20.5-20.5h2.292968c11.324219 0 20.5 9.179688 20.5 20.5zm0 0" fill="#666"/><path d="m192.683594 512c-28.722656 0-52.09375-23.367188-52.09375-52.09375v-9.660156c0-10.203125 8.273437-18.476563 18.480468-18.476563 10.207032 0 18.480469 8.273438 18.480469 18.476563v9.660156c0 8.347656 6.789063 15.136719 15.132813 15.136719s15.136718-6.789063 15.136718-15.136719v-53.554688c0-10.203124 8.269532-18.480468 18.476563-18.480468s18.480469 8.273437 18.480469 18.480468v53.554688c-.003906 28.726562-23.371094 52.09375-52.09375 52.09375zm0 0" fill="#0d70b2"/><path d="m221.195312 36.050781c-111.28125 0-203.601562 81.199219-220.9375 187.582031-2.355468 14.464844 11.878907 26.15625 25.558594 20.894532 27.214844-10.46875 54.96875-9.328125 83.203125 2.203125 12.179688 4.976562 25.671875-3.449219 26.347657-16.589844 5.632812-109.5625 41.914062-194.089844 85.828124-194.089844zm0 0" fill="#17ace8"/><path d="m221.195312 36.050781c43.738282 0 79.902344 83.847657 85.757813 192.765625.710937 13.21875 14.292969 21.597656 26.523437 16.523438 25.902344-10.75 53.652344-10.804688 83.382813.625 13.652344 5.25 27.757813-6.46875 25.5-20.917969-16.746094-107.078125-109.390625-188.996094-221.164063-188.996094zm0 0" fill="#17ace8"/><path d="m442.359375 225.046875c-16.746094-107.078125-109.390625-188.996094-221.164063-188.996094 10.671876 0 20.886719 5.003907 30.328126 14.128907 74.460937 27.855468 130.128906 94.222656 142.742187 174.867187.808594 5.171875-.488281 9.988281-3.101563 13.808594 8.398438 1.394531 16.957032 3.753906 25.695313 7.109375 13.652344 5.25 27.757813-6.46875 25.5-20.917969zm0 0" fill="#1391c4"/><path d="m221.195312 36.050781c-43.171874 0-78.96875 81.695313-85.515624 188.554688-.886719 14.492187 14.074218 24.765625 27.164062 18.488281 38.902344-18.660156 77.804688-18.660156 116.703125 0 13.089844 6.277344 28.054687-3.996094 27.167969-18.488281-6.550782-106.859375-42.34375-188.554688-85.519532-188.554688zm0 0" fill="#0d70b2"/></svg>