<svg id="Capa_1" enable-background="new 0 0 512 512" height="512" viewBox="0 0 512 512" width="512" xmlns="http://www.w3.org/2000/svg"><g><g><g><path d="m403.666 81.048h-21.739c-4.204 0-7.611-3.408-7.611-7.611s3.408-7.611 7.611-7.611h21.739c4.347 0 7.884-3.537 7.884-7.884v-34.834c0-4.347-3.537-7.885-7.884-7.885h-295.331c-4.347 0-7.885 3.537-7.885 7.885v34.833c0 4.347 3.537 7.884 7.885 7.884h20.228c4.204 0 7.611 3.408 7.611 7.611s-3.408 7.611-7.611 7.611h-20.228c-12.741 0-23.108-10.366-23.108-23.107v-34.832c0-12.742 10.366-23.108 23.108-23.108h295.331c12.741 0 23.107 10.366 23.107 23.108v34.833c0 12.741-10.366 23.107-23.107 23.107z" fill="#b1dbfc"/></g></g><path d="m382.932 54.372h-253.344c-4.489 0-8.129 3.639-8.129 8.129v160.381c0 8.471 4.625 16.266 12.06 20.325l101.45 55.393c5.793-4.153 12.888-6.606 20.56-6.606 7.714 0 14.846 2.479 20.656 6.675l102.723-55.483c7.486-4.044 12.152-11.867 12.152-20.376v-160.309c.001-4.489-3.639-8.129-8.128-8.129z" fill="#ff8188"/><path d="m210.182 65.536c0-4.98 3.032-9.282 7.338-11.164h-87.932c-4.489 0-8.129 3.639-8.129 8.129v160.381c0 8.471 4.625 16.266 12.06 20.325l76.663 41.859z" fill="#ff656f"/><path d="m329.271 54.372h-147.484v215.19l53.182 29.038c5.793-4.153 12.888-6.606 20.56-6.606 7.714 0 14.846 2.479 20.656 6.675l53.086-28.673z" fill="#ff656f"/><path d="m210.182 65.536c0-4.98 3.032-9.282 7.338-11.164h-35.733v215.19l28.395 15.504z" fill="#ff4756"/><path d="m255.529 324.312c12.441 0 24.316 2.598 35.188 7.308.088-1.084.148-2.177.148-3.286 0-20.979-15.82-37.986-35.335-37.986s-35.335 17.007-35.335 37.986c0 1.109.059 2.202.147 3.286 10.871-4.71 22.746-7.308 35.187-7.308z" fill="#ffd301"/><g><path d="m274.389 296.217c-5.459-3.712-11.923-5.869-18.86-5.869-19.515 0-35.335 17.007-35.335 37.986 0 1.109.059 2.202.147 3.285 10.873-4.71 22.748-7.308 35.188-7.308.862 0 1.721.015 2.578.04 1.148-11.85 7.368-22.072 16.282-28.134z" fill="#ffc20c"/></g><circle cx="255.529" cy="417.794" fill="#fee55a" r="94.206"/><path d="m199.042 417.794c0-45.569 32.356-83.58 75.347-92.316-6.094-1.238-12.4-1.89-18.86-1.89-52.029 0-94.206 42.178-94.206 94.206s42.177 94.206 94.206 94.206c6.459 0 12.766-.652 18.86-1.89-42.991-8.736-75.347-46.747-75.347-92.316z" fill="#ffd301"/><circle cx="255.529" cy="417.794" fill="#ffd301" r="57.64"/><path d="m235.608 417.794c0-25.227 16.212-46.653 38.781-54.467-5.911-2.047-12.252-3.173-18.86-3.173-31.834 0-57.641 25.806-57.641 57.64s25.807 57.64 57.641 57.64c6.607 0 12.948-1.126 18.86-3.173-22.569-7.814-38.781-29.241-38.781-54.467z" fill="#ffc20c"/></g></svg>