<?xml version="1.0" encoding="iso-8859-1"?>
<!-- Generator: Adobe Illustrator 19.0.0, SVG Export Plug-In . SVG Version: 6.00 Build 0)  -->
<svg version="1.1" id="Capa_1" xmlns="http://www.w3.org/2000/svg" xmlns:xlink="http://www.w3.org/1999/xlink" x="0px" y="0px"
	 viewBox="0 0 468.293 468.293" style="enable-background:new 0 0 468.293 468.293;" xml:space="preserve">
<path style="fill:#64798A;" d="M307.757,468.293H70.489c-13.794,0-24.976-11.182-24.976-24.976V24.976
	C45.513,11.182,56.695,0,70.489,0h237.268c13.794,0,24.976,11.182,24.976,24.976v418.341
	C332.733,457.111,321.551,468.293,307.757,468.293z"/>
<rect x="72.909" y="58.761" style="fill:#E1E6E9;" width="232.398" height="317.278"/>
<g>
	<circle style="fill:#EBF0F3;" cx="189.12" cy="421.838" r="24.407"/>
	<path style="fill:#EBF0F3;" d="M226.586,35.623H151.66c-3.448,0-6.244-2.795-6.244-6.244v0c0-3.448,2.795-6.244,6.244-6.244h74.927
		c3.448,0,6.244,2.795,6.244,6.244v0C232.83,32.828,230.035,35.623,226.586,35.623z"/>
</g>
<circle style="fill:#F6C358;" cx="316.383" cy="217.413" r="106.396"/>
<circle style="fill:#FCD462;" cx="316.383" cy="217.413" r="84.561"/>
<path style="fill:#F6C358;" d="M313.016,281.448v-11.28c-14.122-1.44-26.798-7.055-38.016-16.839l11.28-13.443
	c8.652,7.52,17.555,11.997,26.735,13.443v-29.98c-11.645-2.779-20.171-6.439-25.578-10.972c-5.407-4.533-8.111-11.255-8.111-20.165
	c0-8.91,3.106-16.197,9.344-21.869c6.237-5.665,14.349-8.753,24.346-9.268v-7.728h9.884v7.879
	c11.33,0.83,22.045,4.691,32.143,11.595l-10.048,14.217c-6.803-4.842-14.16-7.828-22.095-8.966v29.049h0.465
	c11.846,2.785,20.548,6.546,26.107,11.28c5.571,4.741,8.35,11.62,8.35,20.63c0,9.017-3.194,16.361-9.583,22.02
	c-6.388,5.672-14.826,8.759-25.34,9.274v11.123H313.016z M302.113,181.706c-2.628,2.314-3.936,5.2-3.936,8.652
	c0,3.452,1.031,6.181,3.094,8.187c2.05,2.012,5.973,3.942,11.745,5.797v-26.735C308.376,178.021,304.742,179.386,302.113,181.706z
	 M334.646,249.462c2.88-2.364,4.326-5.351,4.326-8.96c0-3.603-1.132-6.464-3.395-8.576c-2.276-2.113-6.501-4.093-12.676-5.948
	v27.811C327.843,253.279,331.754,251.833,334.646,249.462z"/>
<g>
</g>
<g>
</g>
<g>
</g>
<g>
</g>
<g>
</g>
<g>
</g>
<g>
</g>
<g>
</g>
<g>
</g>
<g>
</g>
<g>
</g>
<g>
</g>
<g>
</g>
<g>
</g>
<g>
</g>
</svg>
