<svg id="Flat" height="512" viewBox="0 0 512 512" width="512" xmlns="http://www.w3.org/2000/svg"><path d="m440 376h-400a32 32 0 0 1 -32-32v-256a32 32 0 0 1 32-32h400a32 32 0 0 1 32 32v256z" fill="#ffb632"/><path d="m472 88v9.27l-211.77 124.14a40.018 40.018 0 0 1 -40.46 0l-211.77-124.14v-9.27a31.906 31.906 0 0 1 .99-7.93 7.824 7.824 0 0 1 3.06 1.03l215.81 126.51a24.027 24.027 0 0 0 24.28 0l215.81-126.51a7.824 7.824 0 0 1 3.06-1.03 31.906 31.906 0 0 1 .99 7.93z" fill="#e09f2c"/><path d="m456 456-64-40-64 40 8-80-56-48 80-16 32-64 32 64 80 16-56 48z" fill="#fbe9d8"/></svg>