<svg id="Capa_1" enable-background="new 0 0 512 512" height="512" viewBox="0 0 512 512" width="512" xmlns="http://www.w3.org/2000/svg"><g><path d="m287.915 479.911-53.582 10h-122.935l-15.45-10h-24.991c-3.866 0-7-3.134-7-7v-17.994c0-3.866 3.134-7 7-7h24.992l15.45-10h122.268l54.249 10v31.994z" fill="#fff292"/><path d="m287.915 415.923-30.533 10h-145.984l-15.45-10h-24.991c-3.866 0-7-3.134-7-7v-17.994c0-3.866 3.134-7 7-7h24.992l15.45-10h145.951l30.566 10v31.994z" fill="#fff292"/><path d="m287.915 351.891-20.915 10h-155.602l-15.45-10h-24.991c-3.866 0-7-3.134-7-7v-17.994c0-3.866 3.134-7 7-7h24.992l15.45-10h155.601l20.915 10z" fill="#fff292"/><path d="m287.915 287.831-16.915 10h-159.602l-15.45-10h-24.991c-3.866 0-7-3.134-7-7v-17.994c0-3.866 3.134-7 7-7h24.992l15.45-10h159.601l16.915 10z" fill="#fff292"/><path d="m95.949 447.92v31.992h-24.992c-3.866 0-7-3.134-7-7v-17.992c0-3.866 3.134-7 7-7z" fill="#f9e77d"/><path d="m95.949 383.926v32.002h-24.992c-3.866 0-7-3.134-7-7v-18.002c0-3.866 3.134-7 7-7z" fill="#f9e77d"/><path d="m95.949 319.901v31.992h-24.992c-3.866 0-7-3.134-7-7v-17.992c0-3.866 3.134-7 7-7z" fill="#f9e77d"/><path d="m95.949 255.835v31.992h-24.992c-3.866 0-7-3.134-7-7v-17.992c0-3.866 3.134-7 7-7z" fill="#f9e77d"/><g fill="#f9d264"><path d="m95.95 480.006h223.959v31.994h-223.959z"/><path d="m95.95 415.923h223.959v31.994h-223.959z"/><path d="m95.95 287.903h223.959v31.994h-223.959z"/><path d="m312.908 255.765h-216.958v-24.994c0-3.866 3.134-7 7-7h209.959c3.866 0 7 3.134 7 7v17.994c-.001 3.866-3.135 7-7.001 7z"/><path d="m95.951 351.891h223.959v31.994h-223.959z"/></g><path d="m95.949 480.004h30.9v31.992h-30.9z" fill="#efc356"/><path d="m95.949 415.928h30.9v31.992h-30.9z" fill="#efc356"/><path d="m95.949 287.899h30.9v32.002h-30.9z" fill="#efc356"/><path d="m126.848 223.772v31.992h-30.9v-24.992c0-3.866 3.134-7 7-7z" fill="#efc356"/><path d="m95.949 351.893h30.9v31.992h-30.9z" fill="#efc356"/><path d="m282.219 56.897-63.987-53.175c-5.972-4.962-14.633-4.963-20.605 0l-63.988 53.175c-6.847 5.69-7.785 15.853-2.095 22.7 3.188 3.836 7.78 5.817 12.406 5.817 3.631 0 7.283-1.221 10.294-3.723l37.689-31.32v173.587h31.994v-173.586l37.688 31.319c6.847 5.691 17.01 4.753 22.7-2.095 5.689-6.846 4.751-17.009-2.096-22.699z" fill="#aee69c"/><circle cx="335.906" cy="399.782" fill="#fff292" r="112.137"/><path d="m346.207 511.44c-3.389.319-6.829.474-10.3.474-61.934 0-112.136-50.202-112.136-112.136 0-61.924 50.202-112.136 112.136-112.136 3.471 0 6.911.155 10.3.474-57.103 5.191-101.836 53.21-101.836 111.662 0 58.462 44.733 106.47 101.836 111.662z" fill="#f9e77d"/><circle cx="335.751" cy="399.846" fill="#f9d264" r="79.985"/><path d="m275.766 399.846c0-40.788 30.53-74.445 69.985-79.366-3.276-.409-6.613-.619-10-.619-44.175 0-79.985 35.811-79.985 79.985s35.811 79.985 79.985 79.985c3.387 0 6.724-.211 10-.619-39.455-4.921-69.985-38.578-69.985-79.366z" fill="#efc356"/><path d="m363.867 416.873c0-13.081-10.642-23.722-23.722-23.722h-8.787c-4.562 0-8.272-3.711-8.272-8.272s3.711-8.272 8.272-8.272h7.851c2.994 0 5.584 1.927 6.445 4.795 1.226 4.087 5.542 6.407 9.619 5.179 4.087-1.226 6.405-5.533 5.179-9.62-2.417-8.056-8.981-13.844-16.975-15.383v-9.566c0-4.266-3.458-7.725-7.725-7.725s-7.725 3.459-7.725 7.725v9.383c-11.508 1.625-20.391 11.534-20.391 23.483 0 13.081 10.642 23.722 23.722 23.722h8.787c4.562 0 8.272 3.711 8.272 8.272s-3.711 8.272-8.272 8.272h-9.911c-2.994 0-5.585-1.927-6.445-4.794-1.226-4.087-5.533-6.407-9.619-5.18-4.086 1.226-6.405 5.532-5.179 9.618 2.621 8.74 10.119 14.817 19.035 15.687v9.263c0 4.266 3.458 7.725 7.725 7.725s7.725-3.459 7.725-7.725v-9.382c11.508-1.624 20.391-11.533 20.391-23.483z" fill="#fff292"/></g></svg>