<?xml version="1.0" encoding="iso-8859-1"?>
<!-- Generator: Adobe Illustrator 19.0.0, SVG Export Plug-In . SVG Version: 6.00 Build 0)  -->
<svg version="1.1" id="Capa_1" xmlns="http://www.w3.org/2000/svg" xmlns:xlink="http://www.w3.org/1999/xlink" x="0px" y="0px"
	 viewBox="0 0 512 512" style="enable-background:new 0 0 512 512;" xml:space="preserve">
<path style="fill:#67BD00;" d="M393.01,444.67c0,20.35-15.92,38.39-44.82,50.79C323.32,506.12,290.58,512,256,512
	s-67.32-5.88-92.19-16.54c-28.9-12.4-44.82-30.44-44.82-50.79c0-32.77,41.08-58.51,104.66-65.58h64.7
	C351.93,386.16,393.01,411.9,393.01,444.67z"/>
<path style="fill:#5EAD00;" d="M393.01,444.67c0,20.35-15.92,38.39-44.82,50.79C323.32,506.12,290.58,512,256,512V379.09h32.35
	C351.93,386.16,393.01,411.9,393.01,444.67z"/>
<path style="fill:#FF4F19;" d="M403.16,147.16c0,81.27-147.16,293.13-147.16,293.13S108.84,228.43,108.84,147.16S174.73,0,256,0
	S403.16,65.89,403.16,147.16z"/>
<path style="fill:#FF0C2F;" d="M403.16,147.16c0,81.27-147.16,293.13-147.16,293.13V0C337.27,0,403.16,65.89,403.16,147.16z"/>
<path style="fill:#FFA92F;" d="M349.39,144.04c0,51.5-41.9,93.39-93.39,93.39s-93.39-41.89-93.39-93.39
	c0-51.49,41.9-93.39,93.39-93.39S349.39,92.55,349.39,144.04z"/>
<path style="fill:#FF8A1D;" d="M256,237.43V50.65c51.49,0,93.39,41.9,93.39,93.39C349.39,195.54,307.49,237.43,256,237.43z"/>
<g>
</g>
<g>
</g>
<g>
</g>
<g>
</g>
<g>
</g>
<g>
</g>
<g>
</g>
<g>
</g>
<g>
</g>
<g>
</g>
<g>
</g>
<g>
</g>
<g>
</g>
<g>
</g>
<g>
</g>
</svg>
