<svg id="icon" height="512" viewBox="0 0 128 128" width="512" xmlns="http://www.w3.org/2000/svg"><path d="m84.981 96.3a1.63 1.63 0 0 1 -1.63 1.63h-38.7a1.63 1.63 0 0 1 0-3.26h2.849a5.55 5.55 0 0 0 5.2-3.59l.619-1.63.96-2.509.57-1.48h18.3l.56 1.48.96 2.509.62 1.63a5.563 5.563 0 0 0 5.21 3.59h2.85a1.63 1.63 0 0 1 1.632 1.63z" fill="#575b6d"/><path d="m105 75.835v-44.056a1.709 1.709 0 0 0 -1.709-1.708h-78.583a1.708 1.708 0 0 0 -1.708 1.708v44.056z" fill="#575b6d"/><path d="m26.075 33.145h75.848v42.69h-75.848z" fill="#69b0ee"/><path d="m105 75.83v9.4a1.716 1.716 0 0 1 -1.71 1.71h-78.578a1.709 1.709 0 0 1 -1.712-1.71v-9.4z" fill="#575b6d"/><path d="m64 79.4a1.984 1.984 0 1 0 1.983 1.984 1.984 1.984 0 0 0 -1.983-1.984z" fill="#9a9eaf"/><path d="m74.671 89.449h-21.35l.96-2.509h19.43z" fill="#4d5160"/><path d="m62.335 65.481a2.431 2.431 0 1 1 -2.427-2.433 2.424 2.424 0 0 1 2.427 2.433z" fill="#414451"/><path d="m59.907 66.579a1.1 1.1 0 1 1 1.1-1.1 1.1 1.1 0 0 1 -1.1 1.1z" fill="#dbd8dd"/><path d="m72.605 65.481a2.431 2.431 0 1 1 -2.428-2.433 2.425 2.425 0 0 1 2.428 2.433z" fill="#414451"/><path d="m70.177 66.579a1.1 1.1 0 1 1 1.1-1.1 1.1 1.1 0 0 1 -1.1 1.1z" fill="#dbd8dd"/><path d="m79.122 47.308-2.539 8.38a1.2 1.2 0 0 1 -1.016.847l-17.917 2.523-2.709-14.234 23.645 1.708a.6.6 0 0 1 .536.776z" fill="#f6c863"/><path d="m75.074 62.271h-18.589a2.013 2.013 0 0 1 0-4.026h.272l-2.677-15.629h-3.032a.6.6 0 0 1 0-1.2h3.539a.6.6 0 0 1 .594.5l2.884 16.834a.6.6 0 0 1 -.593.7h-.987a.808.808 0 0 0 0 1.616h18.589a.6.6 0 1 1 0 1.2z" fill="#eeefee"/><path d="m52.906 41.158v1.658a.086.086 0 0 1 -.087.086h-3.052a.915.915 0 0 1 -.915-.915.916.916 0 0 1 .915-.916h3.052a.087.087 0 0 1 .087.087z" fill="#575b6d"/><g fill="#eab54e"><path d="m71.9 55.037a.337.337 0 0 1 -.069-.007.387.387 0 0 1 -.313-.45l1.1-6.15a.389.389 0 0 1 .765.137l-1.1 6.15a.388.388 0 0 1 -.383.32z"/><path d="m61.816 56.091a.389.389 0 0 1 -.382-.32l-1.418-7.925a.388.388 0 1 1 .764-.137l1.42 7.926a.387.387 0 0 1 -.314.45.322.322 0 0 1 -.07.006z"/><path d="m66.762 55.037a.389.389 0 0 1 -.388-.389v-6.148a.389.389 0 0 1 .777 0v6.15a.389.389 0 0 1 -.389.387z"/></g></svg>