<?xml version="1.0" encoding="iso-8859-1"?>
<!-- Generator: Adobe Illustrator 19.0.0, SVG Export Plug-In . SVG Version: 6.00 Build 0)  -->
<svg xmlns="http://www.w3.org/2000/svg" xmlns:xlink="http://www.w3.org/1999/xlink" version="1.1" id="Layer_1" x="0px" y="0px" viewBox="0 0 512 512" style="enable-background:new 0 0 512 512;" xml:space="preserve">
<path style="fill:#FF7A53;" d="M394.502,167.856c-13.596-47.585-44.3-87.642-67.665-112.866  C301.466,27.599,272.98,5.256,257.565,0.66c-5.13-1.529-10.687-0.37-14.733,3.128c-4.048,3.5-6.035,8.79-5.265,14.084  c0.383,2.8,8.645,68.922-55.339,101.125c-37.314,18.784-63.479,54.154-69.989,94.621c-6.098,37.89,6.039,75.258,33.303,102.525  c29.062,29.064,69.271,45.735,110.312,45.735c41.485,0,78.927-16.489,105.428-46.43c19.868-22.455,32.493-47.326,37.521-73.923  C403.229,218.118,401.782,193.331,394.502,167.856z"/>
<path style="fill:#FF4F19;" d="M361.281,315.447c19.868-22.454,32.493-47.326,37.521-73.923c4.426-23.405,2.98-48.193-4.3-73.668  c-13.596-47.585-44.3-87.642-67.665-112.866C301.466,27.599,272.98,5.256,257.565,0.66c-0.517-0.155-1.04-0.274-1.564-0.373v361.589  C297.426,361.837,334.812,345.354,361.281,315.447z"/>
<path style="fill:#FFC473;" d="M305.074,291.074c-12.377,13.984-29.802,21.681-49.072,21.681c-18.835,0-37.288-7.649-50.622-20.985  c-13.028-13.029-18.828-30.893-15.913-49.015c3.074-19.104,15.395-35.787,32.96-44.628c18.653-9.387,17.245-27.979,16.952-30.561  c-0.876-5.314,1.069-10.53,5.106-14.104c4.056-3.588,9.704-4.649,14.893-3.102c9.524,2.839,23.096,14.851,31.826,24.275  c10.008,10.804,23.182,28.038,29.11,48.787C327.441,248.358,322.172,271.754,305.074,291.074z"/>
<g>
	<path style="fill:#B28964;" d="M255.999,512c-8.656,0-15.673-7.018-15.673-15.673V389.128c0-8.655,7.017-15.673,15.673-15.673   c8.656,0,15.673,7.018,15.673,15.673v107.199C271.673,504.982,264.656,512,255.999,512z"/>
	<path style="fill:#B28964;" d="M129.956,361.878H22.759c-8.656,0-15.673-7.016-15.673-15.673c0-8.655,7.017-15.673,15.673-15.673   h107.198c8.656,0,15.673,7.018,15.673,15.673C145.63,354.861,138.612,361.878,129.956,361.878z"/>
</g>
<g>
	<path style="fill:#896746;" d="M489.241,361.878H382.044c-8.656,0-15.673-7.016-15.673-15.673c0-8.655,7.017-15.673,15.673-15.673   h107.198c8.656,0,15.673,7.018,15.673,15.673C504.915,354.861,497.897,361.878,489.241,361.878z"/>
	<path style="fill:#896746;" d="M435.628,468.798c-2.673,0-5.378-0.683-7.855-2.122l-130.552-75.801   c-7.487-4.345-10.032-13.937-5.684-21.422c4.347-7.488,13.941-10.033,21.423-5.685l130.552,75.801   c7.487,4.345,10.032,13.937,5.684,21.422C446.288,466,441.03,468.798,435.628,468.798z"/>
</g>
<path style="fill:#B28964;" d="M76.37,468.798c-5.403,0-10.66-2.798-13.568-7.806c-4.347-7.488-1.802-17.08,5.683-21.424  l130.552-75.801c7.481-4.345,17.078-1.802,21.423,5.685c4.347,7.486,1.802,17.078-5.683,21.422L84.226,466.676  C81.751,468.113,79.042,468.798,76.37,468.798z"/>
<path style="fill:#896746;" d="M255.999,373.455V512c8.656,0,15.673-7.018,15.673-15.673V389.128  C271.673,380.473,264.656,373.455,255.999,373.455z"/>
<path style="fill:#FFA81F;" d="M320.315,223.422c-5.93-20.749-19.103-37.984-29.11-48.787c-8.729-9.425-22.302-21.437-31.826-24.275  c-1.112-0.331-2.244-0.536-3.378-0.629v163.024c0.001,0,0.002,0,0.003,0c19.269,0,36.695-7.698,49.072-21.681  C322.172,271.754,327.441,248.358,320.315,223.422z"/>
<g>
</g>
<g>
</g>
<g>
</g>
<g>
</g>
<g>
</g>
<g>
</g>
<g>
</g>
<g>
</g>
<g>
</g>
<g>
</g>
<g>
</g>
<g>
</g>
<g>
</g>
<g>
</g>
<g>
</g>
</svg>
