<?xml version="1.0" encoding="iso-8859-1"?>
<!-- Generator: Adobe Illustrator 19.0.0, SVG Export Plug-In . SVG Version: 6.00 Build 0)  -->
<svg version="1.1" id="Capa_1" xmlns="http://www.w3.org/2000/svg" xmlns:xlink="http://www.w3.org/1999/xlink" x="0px" y="0px"
	 viewBox="0 0 490.667 490.667" style="enable-background:new 0 0 490.667 490.667;" xml:space="preserve">
<path style="fill:#F6B445;" d="M490.667,133.333V432c-0.02,11.314-4.505,22.162-12.48,30.187l-72.853-72.853L288,272l-2.987-4.587
	L490.667,133.333z"/>
<path style="fill:#F6A945;" d="M405.334,389.333l72.853,72.853c-8.025,7.975-18.873,12.46-30.187,12.48H42.667
	c-11.314-0.02-22.162-4.505-30.187-12.48l72.853-72.853L202.667,272l2.667-4.16l40,25.493l39.68-25.92L288,272L405.334,389.333z"/>
<path style="fill:#F6B445;" d="M205.334,267.84l-2.667,4.16L85.334,389.333L12.48,462.187C4.505,454.162,0.02,443.314,0,432V154.667
	c-0.013-4.304,0.634-8.585,1.92-12.693L10.667,144L205.334,267.84z"/>
<path style="fill:#FED049;" d="M490.667,133.333l-205.653,134.08l-39.68,25.92l-40-25.493L10.667,144l-8.747-2.027
	C7.477,124.14,23.988,111.995,42.667,112h394.667C480,112,490.667,133.333,490.667,133.333L490.667,133.333z"/>
<circle style="fill:#35DC86;" cx="362.667" cy="144" r="128"/>
<path style="fill:#F1F2F2;" d="M416,133.333h-42.667V90.667c0-5.891-4.776-10.667-10.667-10.667S352,84.776,352,90.667v42.667
	h-42.667c-5.891,0-10.667,4.776-10.667,10.667c0,5.891,4.776,10.667,10.667,10.667H352v42.667c0,5.891,4.776,10.667,10.667,10.667
	s10.667-4.776,10.667-10.667v-42.667H416c5.891,0,10.667-4.776,10.667-10.667C426.667,138.109,421.891,133.333,416,133.333z"/>
<g>
</g>
<g>
</g>
<g>
</g>
<g>
</g>
<g>
</g>
<g>
</g>
<g>
</g>
<g>
</g>
<g>
</g>
<g>
</g>
<g>
</g>
<g>
</g>
<g>
</g>
<g>
</g>
<g>
</g>
</svg>
