<svg height="512pt" viewBox="0 -65 512 512" width="512pt" xmlns="http://www.w3.org/2000/svg"><path d="m325.09375.0351562c-4.195312-.2460942-8.355469.7773438-11.957031 2.9414058l-46.714844 28.09375c-4.394531 2.640626-6.132813 8.054688-4.277344 12.835938 2.203125 5.683594 3.355469 11.890625 3.207031 18.386719-.574218 25.382812-21.339843 46.164062-46.71875 46.753906-15.007812.347656-28.484374-6.21875-37.488281-16.726563-3.273437-3.820312-8.867187-4.644531-13.175781-2.050781l-162.925781 97.96875c-3.128907 1.878907-5.042969 5.265625-5.042969 8.917969v133.371094c0 5.402344 4.136719 9.910156 9.519531 10.371094l491.1875 41.929687c6.074219.519531 11.292969-4.273437 11.292969-10.371094v-181.1875c0-170.636719-152.886719-189.210937-186.90625-191.2343748zm0 0" fill="#ffd15f"/><path d="m447.480469 191.269531v108.683594c0 24.386719-20.871094 43.550781-45.167969 41.476563l-402.3125-34.34375v23.441406c0 5.402344 4.136719 9.910156 9.519531 10.367187l491.1875 41.933594c6.074219.515625 11.292969-4.273437 11.292969-10.371094v-181.1875zm0 0" fill="#fcbf35"/><path d="m351.246094 3.140625c40.925781 18.65625 83.21875 53.847656 97.460937 120.253906 5.589844 26.070313-13.570312 50.910157-40.210937 51.949219l-406.667969 15.925781h510.171875c0-141.777343-105.539062-178.578125-160.753906-188.128906zm0 0" fill="#fcbf35"/><path d="m478.699219 191.269531v189.679688l22.007812 1.878906c6.074219.515625 11.292969-4.273437 11.292969-10.371094v-181.1875zm0 0" fill="#e31f1d"/><path d="m276.261719 25.152344s207.640625-9.753906 202.4375 166.117187h33.300781c0-170.636719-152.886719-189.210937-186.90625-191.2343748-4.195312-.2460942-8.355469.7773438-11.957031 2.9414058zm0 0" fill="#fb4239"/><path d="m504.4375 191.269531h7.5625c0-144.050781-108.953125-179.730469-163.375-188.570312 59.070312 13.171875 152.96875 55.105469 155.8125 188.570312zm0 0" fill="#e31f1d"/><path d="m276.40625 25.066406-.144531.085938s.714843-.035156 2.046875-.0625c-.664063-.011719-1.296875-.019532-1.902344-.023438zm0 0" fill="#e31f1d"/><g fill="#fe9700"><path d="m370.472656 85.125c0 12.066406-9.785156 21.851562-21.855468 21.851562-12.070313 0-21.851563-9.785156-21.851563-21.851562 0-12.070312 9.78125-21.855469 21.851563-21.855469 12.070312 0 21.855468 9.785157 21.855468 21.855469zm0 0"/><path d="m181.074219 146.523438c0 8.621093-6.988281 15.609374-15.609375 15.609374s-15.613282-6.988281-15.613282-15.609374c0-8.621094 6.992188-15.613282 15.613282-15.613282s15.609375 6.992188 15.609375 15.613282zm0 0"/><path d="m167.546875 271.402344c0 17.816406-14.445313 32.257812-32.261719 32.257812s-32.261718-14.441406-32.261718-32.257812c0-17.820313 14.445312-32.261719 32.261718-32.261719s32.261719 14.441406 32.261719 32.261719zm0 0"/><path d="m430.828125 308.863281c0 9.195313-7.453125 16.648438-16.648437 16.648438-9.195313 0-16.652344-7.453125-16.652344-16.648438 0-9.195312 7.457031-16.648437 16.652344-16.648437 9.195312 0 16.648437 7.453125 16.648437 16.648437zm0 0"/><path d="m317.398438 265.15625c0 11.496094-9.320313 20.8125-20.8125 20.8125-11.496094 0-20.8125-9.316406-20.8125-20.8125s9.316406-20.8125 20.8125-20.8125c11.492187 0 20.8125 9.316406 20.8125 20.8125zm0 0"/><path d="m413.136719 191.269531c0 17.816407-14.441407 32.261719-32.257813 32.261719s-32.261718-14.445312-32.261718-32.261719c0-17.816406 14.445312-32.261719 32.261718-32.261719s32.257813 14.445313 32.257813 32.261719zm0 0"/></g></svg>