<?xml version="1.0" encoding="iso-8859-1"?>
<!-- Generator: Adobe Illustrator 19.0.0, SVG Export Plug-In . SVG Version: 6.00 Build 0)  -->
<svg version="1.1" id="Capa_1" xmlns="http://www.w3.org/2000/svg" xmlns:xlink="http://www.w3.org/1999/xlink" x="0px" y="0px"
	 viewBox="0 0 512 512" style="enable-background:new 0 0 512 512;" xml:space="preserve">
<circle style="fill:#FFBF14;" cx="126.582" cy="94.21" r="94.21"/>
<path style="fill:#F2AA0A;" d="M126.586,0c-8.631,0-16.988,1.167-24.93,3.341c39.932,10.93,69.282,47.47,69.282,90.87
	s-29.349,79.94-69.282,90.87c7.941,2.174,16.298,3.341,24.93,3.341c52.031,0,94.211-42.18,94.211-94.211
	C220.798,42.18,178.618,0,126.586,0z"/>
<path style="fill:#E5EBF6;" d="M414.288,512H192.523c-19.55,0-35.794-15.073-37.253-34.569l-28.066-374.977
	c-0.333-4.449,3.187-8.243,7.649-8.243h337.105c4.462,0,7.982,3.794,7.649,8.243l-28.066,374.977
	C450.082,496.927,433.838,512,414.288,512z"/>
<path style="fill:#CCDFED;" d="M471.958,94.211h-40.615l-28.683,383.22C401.201,496.927,384.957,512,365.407,512h48.881
	c19.55,0,35.794-15.073,37.253-34.569l28.066-374.977C479.94,98.005,476.42,94.211,471.958,94.211z"/>
<path style="fill:#EDF7F6;" d="M194.796,457.656h217.218c23.126,0,42.341-17.831,44.067-40.892l23.525-314.309
	c0.333-4.449-3.187-8.243-7.649-8.243H134.852c-4.462,0-7.982,3.794-7.649,8.243l23.525,314.309
	C152.455,439.825,171.67,457.656,194.796,457.656z"/>
<path style="fill:#DCEAE8;" d="M471.958,94.211h-40.615L404.14,457.656h7.874c23.126,0,42.341-17.83,44.067-40.892l18.357-245.256
	l5.169-69.054c0.021-0.278,0.026-0.554,0.018-0.826c-0.034-1.089-0.298-2.124-0.746-3.058c-0.112-0.233-0.235-0.46-0.37-0.68
	C477.167,95.693,474.747,94.211,471.958,94.211z"/>
<path style="fill:#C8E8E5;" d="M133.638,188.422l17.091,228.341c1.726,23.062,20.941,40.892,44.067,40.892h217.218
	c23.126,0,42.341-17.831,44.067-40.892l17.091-228.341H133.638z"/>
<path style="fill:#B6D8D4;" d="M427.798,454.739c1.132-0.433,2.24-0.912,3.326-1.434c0.568-0.273,1.129-0.556,1.683-0.852
	c0.858-0.459,1.702-0.941,2.525-1.454c0.11-0.069,0.224-0.132,0.334-0.201c0.881-0.559,1.734-1.158,2.572-1.777
	c0.636-0.469,1.259-0.953,1.868-1.455c1.131-0.932,2.218-1.916,3.252-2.956c0.055-0.055,0.112-0.107,0.167-0.162
	c0.114-0.116,0.221-0.238,0.334-0.355c0.556-0.578,1.094-1.173,1.619-1.781c0.892-1.034,1.737-2.11,2.532-3.225
	c1.788-2.508,3.331-5.206,4.571-8.073c0.673-1.557,1.249-3.166,1.744-4.812c0.5-1.665,0.915-3.367,1.219-5.112
	c0.059-0.34,0.104-0.684,0.155-1.026c0.164-1.089,0.3-2.187,0.384-3.302l17.091-228.341h-48.882l-20.151,269.233h7.874
	c4.799,0,9.426-0.778,13.767-2.201C426.461,455.232,427.133,454.994,427.798,454.739z"/>
<circle style="fill:#FFDC6C;" cx="126.582" cy="94.21" r="63.776"/>
<path style="fill:#F7CE5E;" d="M126.586,30.435c-8.872,0-17.318,1.815-24.994,5.088c22.799,9.722,38.782,32.337,38.782,58.687
	c0,26.351-15.983,48.965-38.782,58.687c7.676,3.273,16.122,5.088,24.994,5.088c35.222,0,63.776-28.553,63.776-63.776
	C190.362,58.989,161.809,30.435,126.586,30.435z"/>
<g>
	<path style="fill:#FFBF14;" d="M126.587,50.722c-4.408,0-7.98,3.573-7.98,7.98v4.723c0,4.407,3.572,7.98,7.98,7.98
		s7.98-3.573,7.98-7.98v-4.723C134.567,54.295,130.995,50.722,126.587,50.722z"/>
	<path style="fill:#FFBF14;" d="M126.587,117.017c-4.408,0-7.98,3.573-7.98,7.98v4.723c0,4.407,3.572,7.98,7.98,7.98
		s7.98-3.573,7.98-7.98v-4.723C134.567,120.589,130.995,117.017,126.587,117.017z"/>
	<path style="fill:#FFBF14;" d="M162.095,86.231h-4.723c-4.408,0-7.98,3.573-7.98,7.98c0,4.407,3.572,7.98,7.98,7.98h4.723
		c4.408,0,7.98-3.573,7.98-7.98S166.503,86.231,162.095,86.231z"/>
	<path style="fill:#FFBF14;" d="M103.781,94.211c0-4.407-3.572-7.98-7.98-7.98h-4.723c-4.408,0-7.98,3.573-7.98,7.98
		c0,4.407,3.572,7.98,7.98,7.98h4.723C100.208,102.191,103.781,98.618,103.781,94.211z"/>
	<path style="fill:#FFBF14;" d="M148.355,80.423c2.042,0,4.085-0.779,5.643-2.337l3.34-3.34c3.116-3.116,3.116-8.169,0-11.286
		c-3.117-3.116-8.169-3.116-11.287,0l-3.34,3.34c-3.116,3.116-3.116,8.169,0,11.286C144.27,79.643,146.313,80.423,148.355,80.423z"
		/>
	<path style="fill:#FFBF14;" d="M99.175,110.337l-3.34,3.34c-3.116,3.116-3.116,8.169,0,11.286c1.559,1.558,3.601,2.337,5.643,2.337
		s4.085-0.779,5.643-2.337l3.34-3.34c3.116-3.116,3.116-8.169,0-11.286C107.344,107.221,102.292,107.221,99.175,110.337z"/>
	<path style="fill:#FFBF14;" d="M153.998,110.337c-3.117-3.116-8.169-3.116-11.287,0c-3.116,3.116-3.116,8.169,0,11.286l3.34,3.34
		c1.559,1.558,3.601,2.337,5.643,2.337s4.085-0.779,5.643-2.337c3.116-3.116,3.116-8.169,0-11.286L153.998,110.337z"/>
	<path style="fill:#FFBF14;" d="M107.122,63.46c-3.117-3.116-8.169-3.116-11.287,0c-3.116,3.116-3.116,8.169,0,11.286l3.34,3.34
		c1.559,1.558,3.601,2.337,5.643,2.337s4.085-0.779,5.643-2.337c3.116-3.116,3.116-8.169,0-11.286L107.122,63.46z"/>
</g>
<path style="fill:#FFDC6C;" d="M127.203,102.454l6.415,85.707c48.747-3.597,87.179-44.284,87.179-93.95l0,0h-85.945
	C130.391,94.211,126.87,98.005,127.203,102.454z"/>
<path style="fill:#F7E5B2;" d="M127.203,102.454l4.142,55.338c32.997-2.437,59.017-29.961,59.017-63.58l0,0h-55.51
	C130.391,94.211,126.87,98.005,127.203,102.454z"/>
<path style="fill:#EDF7F6;" d="M369.891,413.517l-59.562,44.292l-44.292-59.562c-3.562-4.79-2.567-11.561,2.224-15.124
	l59.562-44.292l44.292,59.562C375.677,403.183,374.681,409.954,369.891,413.517z"/>
<path style="fill:#D9EFEE;" d="M398.819,392.824l-37.641-48.71c-2.222-2.875-5.621-4.597-9.253-4.687l-24.102-0.597l44.292,59.562
	c3.562,4.79,2.567,11.561-2.224,15.124l-59.562,44.292l39.484-0.31c3.181-0.025,6.274-1.048,8.842-2.924l35.03-25.585
	C405.269,420.528,407.591,404.176,398.819,392.824z"/>
<path style="fill:#EDF7F6;" d="M369.721,281.31l-54.162,28.224l-28.224-54.162c-2.27-4.356-0.579-9.728,3.777-11.997l54.162-28.224
	l28.224,54.162C375.768,273.668,374.077,279.04,369.721,281.31z"/>
<path style="fill:#D9EFEE;" d="M395.92,268.268l-24.234-44.479c-1.431-2.626-3.968-4.467-6.907-5.013l-19.504-3.626l28.224,54.162
	c2.27,4.356,0.579,9.728-3.777,11.997l-54.162,28.224l32.119,4.893c2.587,0.394,5.233-0.034,7.565-1.223l31.793-16.222
	C397.551,291.617,401.568,278.634,395.92,268.268z"/>
<path style="fill:#EDF7F6;" d="M249.307,339.546l-59.562,44.292l-44.292-59.562c-3.562-4.79-2.567-11.561,2.224-15.124
	l59.562-44.292l44.292,59.562C255.093,329.212,254.097,335.983,249.307,339.546z"/>
<path style="fill:#D9EFEE;" d="M278.235,318.854l-37.641-48.71c-2.222-2.875-5.621-4.597-9.253-4.687l-24.102-0.597l44.292,59.562
	c3.562,4.79,2.567,11.561-2.224,15.124l-59.562,44.292l39.484-0.31c3.181-0.025,6.274-1.048,8.842-2.924l35.03-25.585
	C284.686,346.558,287.007,330.205,278.235,318.854z"/>
<g>
</g>
<g>
</g>
<g>
</g>
<g>
</g>
<g>
</g>
<g>
</g>
<g>
</g>
<g>
</g>
<g>
</g>
<g>
</g>
<g>
</g>
<g>
</g>
<g>
</g>
<g>
</g>
<g>
</g>
</svg>
