<svg height="512pt" viewBox="-27 0 512 512.01353" width="512pt" xmlns="http://www.w3.org/2000/svg"><path d="m344.746094 102.984375 66.152344-102.984375 25.238281 16.210938-66.15625 102.984374zm0 0" fill="#ff3b62"/><path d="m87.683594 11.203125c-48.34375 0-87.6757815 39.332031-87.6757815 87.679687 0 48.34375 39.3320315 87.675782 87.6757815 87.675782 7.097656 0 14.164062-.851563 21.003906-2.535156 19.828125-4.878907 37.449219-16.660157 49.621094-33.175782 11.15625-15.140625 17.054687-33.113281 17.054687-51.964844 0-48.347656-39.332031-87.679687-87.679687-87.679687zm0 0" fill="#ff9f00"/><path d="m458.84375 84.761719v14.996093c0 96.25-78.304688 174.554688-174.554688 174.554688h-3.539062v145.011719c32.335938 6.566406 56.738281 35.210937 56.738281 69.453125v23.234375h-141.738281v-23.234375c0-33.621094 23.542969-61.835938 55.007812-69.054688v-145.410156h-3.53125c-96.25 0-174.550781-78.304688-174.550781-174.554688v-14.996093zm0 0" fill="#dcfffd"/><path d="m458.84375 84.761719v14.996093c0 96.25-78.304688 174.554688-174.554688 174.554688h-3.539062v145.011719c32.335938 6.566406 56.738281 35.210937 56.738281 69.453125v23.234375h-71.734375v-427.25zm0 0" fill="#8afffc"/><path d="m449.117188 157.226562c-23.804688 68.097657-88.703126 117.085938-164.828126 117.085938h-37.0625c-76.132812 0-141.019531-48.988281-164.824218-117.085938zm0 0" fill="#60dd4e"/><path d="m449.117188 157.226562c-23.804688 68.097657-88.703126 117.085938-164.828126 117.085938h-18.535156v-117.085938zm0 0" fill="#00ad00"/></svg>