<svg id="Capa_1" enable-background="new 0 0 512 512" height="512" viewBox="0 0 512 512" width="512" xmlns="http://www.w3.org/2000/svg"><g><g><ellipse cx="119.467" cy="392.516" fill="#ffcc4a" rx="119.467" ry="119.467" transform="matrix(.707 -.707 .707 .707 -242.56 199.441)"/><path d="m119.467 273.05c-3.998 0-7.95.201-11.847.584 60.418 5.948 107.619 56.901 107.619 118.883 0 61.981-47.202 112.934-107.619 118.882 3.897.384 7.849.584 11.847.584 65.979 0 119.466-53.487 119.466-119.467 0-65.979-53.487-119.466-119.466-119.466z" fill="#ffb54c"/><g fill="#ffe278"><path d="m119.467 273.05c-2.597 0-5.171.092-7.726.255v33.878c0 4.267 3.459 7.726 7.726 7.726s7.726-3.459 7.726-7.726v-33.878c-2.555-.163-5.13-.255-7.726-.255z"/><path d="m29.709 313.685 23.955 23.955c1.508 1.509 3.486 2.263 5.463 2.263s3.955-.754 5.463-2.263c3.018-3.017 3.018-7.91 0-10.927l-23.955-23.955c-3.873 3.404-7.522 7.054-10.926 10.927z"/><path d="m34.133 384.79h-33.877c-.164 2.556-.256 5.13-.256 7.727 0 2.596.092 5.171.255 7.726h33.878c4.267 0 7.726-3.459 7.726-7.726.001-4.268-3.459-7.727-7.726-7.727z"/><path d="m53.664 447.393-23.955 23.955c3.404 3.873 7.054 7.523 10.927 10.927l23.955-23.955c3.018-3.017 3.018-7.909 0-10.927-3.018-3.017-7.91-3.017-10.927 0z"/><path d="m119.467 470.123c-4.267 0-7.726 3.459-7.726 7.726v33.878c2.555.163 5.13.256 7.726.256s5.171-.092 7.726-.256v-33.878c0-4.267-3.459-7.726-7.726-7.726z"/><path d="m209.225 471.348-23.955-23.955c-3.017-3.017-7.909-3.017-10.926 0-3.018 3.017-3.018 7.91 0 10.927l23.955 23.955c3.872-3.404 7.522-7.054 10.926-10.927z"/><path d="m198.298 302.758-23.955 23.955c-3.018 3.017-3.018 7.91 0 10.927 1.508 1.509 3.486 2.263 5.463 2.263s3.955-.754 5.463-2.263l23.955-23.955c-3.403-3.873-7.053-7.523-10.926-10.927z"/><path d="m238.678 384.79h-33.878c-4.267 0-7.726 3.459-7.726 7.726s3.459 7.726 7.726 7.726h33.878c.163-2.555.255-5.13.255-7.726s-.092-5.17-.255-7.726z"/></g><ellipse cx="119.467" cy="392.516" fill="#ffb54c" rx="85.333" ry="85.333" transform="matrix(.707 -.707 .707 .707 -242.56 199.441)"/><path d="m119.467 307.183c-4.022 0-7.973.299-11.847.837 41.518 5.77 73.486 41.39 73.486 84.496s-31.969 78.726-73.486 84.496c3.874.538 7.825.837 11.847.837 47.128 0 85.333-38.205 85.333-85.333s-38.205-85.333-85.333-85.333z" fill="#ff9959"/></g><g><g><circle cx="392.533" cy="119.467" fill="#ffcc4a" r="119.467"/><path d="m392.533 0c-3.998 0-7.95.2-11.847.584 60.418 5.948 107.62 56.901 107.62 118.883 0 61.981-47.202 112.934-107.62 118.882 3.897.384 7.849.584 11.847.584 65.98 0 119.467-53.487 119.467-119.466 0-65.98-53.487-119.467-119.467-119.467z" fill="#ffb54c"/><g fill="#ffe278"><path d="m392.533 0c-2.596 0-5.171.092-7.726.255v33.878c0 4.267 3.459 7.726 7.726 7.726s7.726-3.459 7.726-7.726v-33.878c-2.555-.163-5.129-.255-7.726-.255z"/><path d="m302.775 40.635 23.955 23.955c1.509 1.509 3.486 2.263 5.463 2.263s3.955-.755 5.463-2.263c3.018-3.017 3.018-7.909 0-10.926l-23.955-23.955c-3.872 3.403-7.522 7.053-10.926 10.926z"/><path d="m307.2 111.74h-33.878c-.163 2.555-.255 5.13-.255 7.726s.092 5.171.255 7.726h33.878c4.267 0 7.726-3.459 7.726-7.726 0-4.266-3.459-7.726-7.726-7.726z"/><path d="m326.73 174.343-23.955 23.955c3.404 3.873 7.054 7.523 10.927 10.926l23.955-23.955c3.018-3.017 3.018-7.91 0-10.927-3.017-3.016-7.91-3.016-10.927.001z"/><path d="m392.533 197.073c-4.267 0-7.726 3.459-7.726 7.726v33.878c2.555.163 5.13.255 7.726.255s5.171-.092 7.726-.255v-33.877c.001-4.267-3.458-7.727-7.726-7.727z"/><path d="m482.291 198.298-23.955-23.955c-3.017-3.017-7.909-3.017-10.927 0s-3.018 7.91 0 10.927l23.955 23.955c3.873-3.404 7.523-7.054 10.927-10.927z"/><path d="m471.365 29.708-23.955 23.956c-3.018 3.017-3.018 7.909 0 10.926 1.509 1.509 3.486 2.263 5.463 2.263s3.955-.755 5.463-2.263l23.955-23.955c-3.404-3.873-7.054-7.523-10.926-10.927z"/><path d="m511.744 111.74h-33.878c-4.267 0-7.726 3.459-7.726 7.726s3.459 7.726 7.726 7.726h33.878c.163-2.555.255-5.13.255-7.726.001-2.596-.091-5.17-.255-7.726z"/></g><circle cx="392.533" cy="119.467" fill="#ffb54c" r="85.333"/><path d="m392.533 34.133c-4.022 0-7.973.299-11.847.837 41.518 5.77 73.486 41.39 73.486 84.496s-31.969 78.726-73.486 84.496c3.874.538 7.825.837 11.847.837 47.128 0 85.333-38.205 85.333-85.333.001-47.128-38.205-85.333-85.333-85.333z" fill="#ff9959"/></g></g><path d="m320.984 296.848-39.425-39.424-26.983-26.983-39.424-39.425-24.136 24.136 39.425 39.424 26.983 26.983 39.424 39.425z" fill="#89c247"/><path d="m191.013 296.852 39.426-39.426 26.986-26.987 39.427-39.426 24.135 24.135-39.426 39.426-26.987 26.987-39.425 39.426z" fill="#89c247"/><g><ellipse cx="119.467" cy="119.467" fill="#ffcc4a" rx="119.467" ry="119.467" transform="matrix(.707 -.707 .707 .707 -49.485 119.467)"/><path d="m119.467 0c-3.998 0-7.95.2-11.847.584 60.418 5.948 107.619 56.901 107.619 118.883 0 61.981-47.202 112.934-107.619 118.882 3.897.384 7.849.584 11.847.584 65.979 0 119.466-53.487 119.466-119.467 0-65.979-53.487-119.466-119.466-119.466z" fill="#ffb54c"/><g fill="#ffe278"><path d="m119.467 0c-2.597 0-5.171.092-7.726.256v33.878c0 4.267 3.459 7.726 7.726 7.726s7.726-3.459 7.726-7.726v-33.878c-2.555-.164-5.13-.256-7.726-.256z"/><path d="m29.709 40.635 23.955 23.955c1.508 1.508 3.486 2.263 5.463 2.263s3.955-.755 5.463-2.263c3.018-3.017 3.018-7.91 0-10.927l-23.955-23.954c-3.873 3.403-7.522 7.054-10.926 10.926z"/><path d="m34.133 111.741h-33.877c-.164 2.555-.256 5.129-.256 7.726 0 2.596.092 5.171.255 7.726h33.878c4.267 0 7.726-3.459 7.726-7.726.001-4.267-3.459-7.726-7.726-7.726z"/><path d="m53.664 174.343-23.955 23.955c3.404 3.873 7.054 7.523 10.927 10.927l23.954-23.955c3.018-3.017 3.018-7.909 0-10.927-3.017-3.017-7.909-3.017-10.926 0z"/><path d="m119.467 197.074c-4.267 0-7.726 3.459-7.726 7.726v33.878c2.555.163 5.13.256 7.726.256s5.171-.092 7.726-.256v-33.878c0-4.267-3.459-7.726-7.726-7.726z"/><path d="m209.225 198.298-23.955-23.955c-3.017-3.017-7.909-3.017-10.926 0-3.018 3.017-3.018 7.91 0 10.927l23.955 23.955c3.872-3.404 7.522-7.054 10.926-10.927z"/><path d="m198.298 29.709-23.955 23.955c-3.018 3.017-3.018 7.909 0 10.927 1.508 1.508 3.486 2.263 5.463 2.263s3.955-.755 5.463-2.263l23.955-23.955c-3.403-3.874-7.053-7.524-10.926-10.927z"/><path d="m238.678 111.741h-33.878c-4.267 0-7.726 3.459-7.726 7.726s3.459 7.726 7.726 7.726h33.878c.163-2.555.255-5.13.255-7.726 0-2.597-.092-5.171-.255-7.726z"/></g><ellipse cx="119.467" cy="119.467" fill="#ffb54c" rx="85.333" ry="85.333" transform="matrix(.707 -.707 .707 .707 -49.485 119.467)"/><path d="m119.467 111.741c-7.033 0-12.754-5.721-12.754-12.754 0-7.032 5.721-12.754 12.754-12.754 7.032 0 12.754 5.721 12.754 12.754 0 4.267 3.459 7.726 7.726 7.726s7.726-3.459 7.726-7.726c0-12.874-8.673-23.753-20.48-27.122v-3.598c0-4.267-3.459-7.726-7.726-7.726s-7.726 3.459-7.726 7.726v3.598c-11.807 3.369-20.48 14.248-20.48 27.122 0 15.553 12.653 28.207 28.207 28.207 7.032 0 12.754 5.721 12.754 12.754 0 7.032-5.721 12.754-12.754 12.754s-12.754-5.721-12.754-12.754c0-4.267-3.459-7.726-7.726-7.726s-7.726 3.459-7.726 7.726c0 12.874 8.673 23.753 20.48 27.122v3.598c0 4.267 3.459 7.726 7.726 7.726s7.726-3.459 7.726-7.726v-3.598c11.807-3.369 20.48-14.248 20.48-27.122-.001-15.554-12.654-28.207-28.207-28.207z" fill="#ffe278"/><path d="m119.467 34.133c-4.022 0-7.973.299-11.847.837 41.518 5.77 73.486 41.39 73.486 84.496s-31.969 78.726-73.486 84.496c3.874.538 7.825.837 11.847.837 47.128 0 85.333-38.205 85.333-85.333s-38.205-85.333-85.333-85.333z" fill="#ff9959"/></g><g><g><circle cx="392.533" cy="392.533" fill="#ffcc4a" r="119.467"/><path d="m392.533 273.067c-3.998 0-7.95.201-11.847.584 60.418 5.948 107.62 56.901 107.62 118.883 0 61.981-47.202 112.934-107.62 118.883 3.897.384 7.849.584 11.847.584 65.98-.001 119.467-53.488 119.467-119.468s-53.487-119.466-119.467-119.466z" fill="#ffb54c"/><g fill="#ffe278"><path d="m392.533 273.067c-2.596 0-5.171.092-7.726.256v33.877c0 4.267 3.459 7.726 7.726 7.726s7.726-3.459 7.726-7.726v-33.878c-2.555-.163-5.129-.255-7.726-.255z"/><path d="m302.775 313.702 23.955 23.955c1.509 1.508 3.486 2.263 5.463 2.263s3.955-.755 5.463-2.263c3.018-3.017 3.018-7.91 0-10.927l-23.955-23.955c-3.872 3.404-7.522 7.054-10.926 10.927z"/><path d="m307.2 384.807h-33.878c-.163 2.555-.255 5.13-.255 7.726s.092 5.171.255 7.727h33.878c4.267 0 7.726-3.459 7.726-7.726 0-4.268-3.459-7.727-7.726-7.727z"/><path d="m326.73 447.41-23.955 23.955c3.404 3.873 7.054 7.523 10.927 10.927l23.955-23.955c3.018-3.017 3.018-7.909 0-10.927-3.017-3.018-7.91-3.018-10.927 0z"/><path d="m392.533 470.14c-4.267 0-7.726 3.459-7.726 7.726v33.878c2.555.163 5.13.256 7.726.256s5.171-.092 7.726-.256v-33.878c.001-4.267-3.458-7.726-7.726-7.726z"/><path d="m482.291 471.365-23.955-23.955c-3.017-3.017-7.909-3.017-10.927 0s-3.018 7.91 0 10.927l23.955 23.955c3.873-3.404 7.523-7.055 10.927-10.927z"/><path d="m471.365 302.775-23.955 23.955c-3.018 3.017-3.018 7.909 0 10.927 1.509 1.508 3.486 2.263 5.463 2.263s3.955-.755 5.463-2.263l23.955-23.955c-3.404-3.873-7.054-7.523-10.926-10.927z"/><path d="m511.744 384.807h-33.878c-4.267 0-7.726 3.459-7.726 7.726s3.459 7.726 7.726 7.726h33.878c.163-2.555.255-5.13.255-7.727.001-2.595-.091-5.17-.255-7.725z"/></g><circle cx="392.533" cy="392.533" fill="#ffb54c" r="85.333"/><path d="m392.533 307.2c-4.022 0-7.973.299-11.847.837 41.518 5.77 73.486 41.39 73.486 84.496s-31.969 78.726-73.486 84.496c3.874.538 7.825.837 11.847.837 47.128 0 85.333-38.205 85.333-85.333.001-47.128-38.205-85.333-85.333-85.333z" fill="#ff9959"/></g><path d="m426.735 435.423-47.574-.422c8.554-11.913 10.611-19.49 9.218-32.97h14.467c4.267 0 7.726-3.459 7.726-7.726s-3.459-7.726-7.726-7.726h-18.222c-3.085-4.58-8.449-14.224-8.415-22.268 0-.01-.001-.02-.001-.031 0-.01.001-.02.001-.03-.019-5.173 2.236-8.966 6.893-11.596 7.049-3.981 18.007-4.044 24.427-.14 5.017 3.05 8.812 7.337 9.904 11.188 1.165 4.105 5.435 6.487 9.542 5.324 4.105-1.165 6.488-5.437 5.324-9.542-2.178-7.676-8.281-15.029-16.743-20.174-11.231-6.829-28.076-6.876-40.053-.112-9.513 5.371-14.744 14.242-14.745 24.986 0 .02-.003.04-.003.06 0 .009.001.018.001.028 0 .011-.001.022-.001.033 0 .031.005.062.005.093.003 8.075 2.957 16.062 6.02 22.181h-8.38c-4.267 0-7.726 3.459-7.726 7.726s3.459 7.726 7.726 7.726h14.437l.108.925c1.127 10.076.536 13.833-7.515 24.645l-8.096 10.178c-1.838 2.312-2.199 5.47-.927 8.136s3.952 4.374 6.906 4.4l63.286.56h.07c4.235 0 7.687-3.414 7.724-7.658.037-4.266-3.391-7.756-7.658-7.794z" fill="#ffe278"/></g><path d="m441.22 150.294c-3.27-2.744-8.143-2.316-10.885.953-1.051 1.254-2.187 2.426-3.375 3.484-6.116 5.447-13.841 8.209-22.961 8.209-15.802 0-29.658-8.477-37.27-21.119h42.426c4.268 0 7.726-3.459 7.726-7.726s-3.459-7.726-7.726-7.726h-48.076c-.36-2.249-.554-4.553-.554-6.902s.193-4.653.554-6.903h48.076c4.268 0 7.726-3.459 7.726-7.726s-3.459-7.726-7.726-7.726h-42.425c7.612-12.642 21.467-21.119 37.269-21.119 8.712 0 17.116 2.566 24.3 7.42 3.539 2.39 8.339 1.459 10.728-2.076 2.388-3.536 1.459-8.339-2.076-10.727-9.75-6.587-21.144-10.069-32.952-10.069-24.581 0-45.685 15.135-54.509 36.571h-13.477c-4.268 0-7.726 3.459-7.726 7.726s3.459 7.726 7.726 7.726h9.478c-.266 2.266-.418 4.566-.418 6.903 0 2.336.152 4.636.418 6.902h-9.478c-4.268 0-7.726 3.459-7.726 7.726s3.459 7.726 7.726 7.726h13.477c8.824 21.436 29.928 36.571 54.51 36.571 12.841 0 24.334-4.192 33.238-12.122 1.743-1.553 3.405-3.267 4.937-5.092 2.741-3.268 2.315-8.142-.955-10.884z" fill="#ffe278"/><path d="m151.967 403.929c4.268 0 7.726-3.459 7.726-7.726s-3.459-7.726-7.726-7.726h-21.777l28.623-42.851c2.37-3.549 1.415-8.347-2.133-10.717-3.548-2.371-8.347-1.416-10.716 2.133l-26.497 39.669-26.497-39.669c-2.369-3.548-7.166-4.503-10.716-2.133-3.548 2.37-4.503 7.168-2.133 10.717l28.622 42.851h-21.776c-4.268 0-7.726 3.459-7.726 7.726s3.459 7.726 7.726 7.726h24.775l.001 6.496h-24.776c-4.268 0-7.726 3.459-7.726 7.726s3.459 7.726 7.726 7.726h24.778l.002 17.857c0 4.267 3.46 7.726 7.727 7.725 4.267 0 7.725-3.46 7.725-7.727l-.002-17.855h24.77c4.268 0 7.726-3.459 7.726-7.726s-3.459-7.726-7.726-7.726h-24.771l-.001-6.496z" fill="#ffe278"/><circle cx="256" cy="256" fill="#f4fbff" r="25.6"/><path d="m256 230.4c-4.276 0-8.304 1.054-11.847 2.908 8.172 4.276 13.753 12.83 13.753 22.692s-5.581 18.417-13.753 22.692c3.543 1.854 7.571 2.908 11.847 2.908 14.139 0 25.6-11.462 25.6-25.6 0-14.139-11.461-25.6-25.6-25.6z" fill="#bfebff"/></g></svg>