<svg id="Capa_1" enable-background="new 0 0 422.692 422.692" height="512" viewBox="0 0 422.692 422.692" width="512" xmlns="http://www.w3.org/2000/svg"><g><g><path d="m257.624 82.263-33.025 147.916-58.817 25.692-33.974 75.329 8.282 5.488 34.87-75.329 93.688-33.974 39.71-189.171-32.326-38.214z" fill="#e1e6e9"/><path d="m276.032 0 9.578 11.324-45.546 214.066-15.465 4.789z" fill="#d5d6db"/><path d="m161.591 82.263 33.075 147.916 58.767 25.692 34.023 75.329-8.281 5.488-34.922-75.329-93.686-33.974-39.662-189.171 32.328-38.214z" fill="#e1e6e9"/><path d="m143.233 0-9.579 11.324 45.547 214.066 15.465 4.789z" fill="#d5d6db"/><path d="m93.375 401.293 48.815-125.592c2.006-5.162 7.817-7.72 12.979-5.714l19.901 7.735c5.162 2.006 7.72 7.817 5.714 12.979l-48.816 125.593c-2.006 5.162-7.817 7.72-12.979 5.714l-19.901-7.735c-5.162-2.007-7.72-7.818-5.713-12.98z" fill="#dc8744"/><path d="m247.622 277.655 19.901-7.735c5.162-2.006 10.973.552 12.979 5.714l48.815 125.592c2.006 5.162-.552 10.973-5.714 12.979l-19.901 7.735c-5.162 2.006-10.973-.552-12.979-5.714l-48.815-125.592c-2.006-5.162.552-10.973 5.714-12.979z" fill="#dc8744"/><path d="m208.235 227.784c-8.789-.028-15.936 7.075-15.964 15.864s7.075 15.936 15.864 15.964 15.936-7.075 15.964-15.864c0-.016 0-.034 0-.05.001-8.77-7.094-15.886-15.864-15.914z" fill="#d5d6db"/><circle cx="208.235" cy="243.698" fill="#e1e6e9" r="7.583"/></g></g></svg>