<svg id="Capa_1" enable-background="new 0 0 497 497" height="512" viewBox="0 0 497 497" width="512" xmlns="http://www.w3.org/2000/svg"><g><path d="m280.774 76.457c-13.138-59.937-42.059-74.833-64.806-76.403-12.438-.858-23.216 8.53-24.074 20.967v.001c-.858 12.438 8.53 23.216 20.968 24.073h.001c8.237.569 15.914 12.106 21.368 31.248z" fill="#b67f5f"/><path d="m148.578 478.243 10.426-.357c4.598-.158 9.071-.81 13.365-1.905 26.291-6.705 45.909-30.02 47.018-58.17l9.591-243.459c1.542-39.151-26.379-72.215-63.391-78.715-5.184-.91-10.546-.298-16.03-.11l-15.301-.477-16.301.559c-44.776 1.535-79.434 39.758-76.592 84.47l13.553 213.239c2.994 47.112 41.5 83.721 88.082 84.95 1.848.046 3.708.039 5.58-.025z" fill="#ed5469"/><path d="m348.422 476.24-10.426 1.645c-32.754-1.123-59.092-27.327-60.383-60.075l-9.591-243.459c-1.561-39.638 27.078-73.037 64.776-78.946 4.752-.745 9.648-1.053 14.645-.882l31.602 2.085c44.776 1.535 78.432 38.756 75.591 83.468l-13.553 213.239c-3.114 48.983-43.609 84.607-92.661 82.925z" fill="#ed5469"/><path d="m149.557 94.525-15.301.525c-14.75 13.484-23.785 33.08-23.094 54.692l8.912 278.518c.634 19.817 9.357 37.509 22.923 49.987 1.849.049 3.707.061 5.58-.003l10.426-.357c32.754-1.123 59.092-27.327 60.383-60.075l9.591-243.459c1.759-44.636-34.777-81.359-79.42-79.828z" fill="#e63850"/><path d="m379.045 95.608-31.602-1.083c-5.109-.175-10.104.174-14.955.955l3.746.128c44.776 1.535 79.434 39.758 76.592 84.47l-13.553 213.239c-2.652 41.731-33.173 75.201-72.484 83.161 3.629.79 7.371 1.278 11.207 1.409l10.427.357c49.051 1.682 90.549-35.945 93.662-84.927l13.553-213.239c2.841-44.712-31.817-82.935-76.593-84.47z" fill="#e63850"/><path d="m273.841 495.999-50.682 1.001c-38.335 0-69.75-30.426-70.976-68.741l-8.912-278.518c-1.283-40.088 30.867-73.283 70.976-73.283h66.527l1.979 1.002c18.815 0 34.876 7.304 47.559 19.198 14.354 13.461 24.098 31.8 23.417 53.084l-8.912 278.518c-.595 18.606-8.31 35.351-20.478 47.656-12.89 13.033-30.779 20.083-50.498 20.083z" fill="#ed5469"/><path d="m282.753 76.457h-42.811c40.109 0 72.259 33.195 70.976 73.283l-8.912 278.518c-1.227 38.316-32.642 68.742-70.977 68.742h42.811c38.335 0 69.75-30.426 70.976-68.741l8.912-278.518c1.284-40.089-30.866-73.284-70.975-73.284z" fill="#e63850"/><path d="" fill="#fd4755"/></g></svg>