<?xml version="1.0" encoding="iso-8859-1"?>
<!-- Generator: Adobe Illustrator 19.0.0, SVG Export Plug-In . SVG Version: 6.00 Build 0)  -->
<svg version="1.1" id="Layer_1" xmlns="http://www.w3.org/2000/svg" xmlns:xlink="http://www.w3.org/1999/xlink" x="0px" y="0px"
	 viewBox="0 0 512.003 512.003" style="enable-background:new 0 0 512.003 512.003;" xml:space="preserve">
<rect x="288.4" y="280.55" style="fill:#E9E9EA;" width="33.703" height="214.59"/>
<rect x="187.51" y="478.3" style="fill:#C8C8CB;" width="235.47" height="33.703"/>
<circle style="fill:#F1D849;" cx="106.96" cy="98.5" r="98.5"/>
<path style="fill:#E6B844;" d="M106.967,0v197.018c54.406,0,98.509-44.104,98.509-98.509S161.372,0,106.967,0z"/>
<path style="fill:#FFFFFF;" d="M106.967,16.144c-45.417,0-82.366,36.95-82.366,82.365c0,45.417,36.95,82.366,82.366,82.366
	s82.366-36.95,82.366-82.366S152.383,16.144,106.967,16.144z M113.803,30.157c13.821,1.371,26.447,6.856,36.64,15.211l-36.64,36.639
	C113.803,82.007,113.803,30.157,113.803,30.157z M100.132,82.006l-36.64-36.639c10.192-8.353,22.82-13.838,36.64-15.211V82.006z
	 M90.464,91.674h-51.85c1.371-13.821,6.857-26.447,15.211-36.639L90.464,91.674z M90.464,105.344l-36.64,36.639
	c-8.353-10.192-13.838-22.819-15.211-36.639H90.464z M100.132,115.012v51.85c-13.821-1.371-26.447-6.857-36.639-15.211
	L100.132,115.012z M113.803,115.012l36.639,36.639c-10.192,8.353-22.819,13.838-36.639,15.211V115.012z M123.469,105.344h51.85
	c-1.371,13.821-6.857,26.447-15.211,36.639L123.469,105.344z M123.469,91.674l36.639-36.639
	c8.353,10.192,13.838,22.819,15.211,36.639H123.469z"/>
<g>
	<path style="fill:#E9E9EA;" d="M106.967,16.144v164.732c45.417,0,82.366-36.95,82.366-82.366S152.383,16.144,106.967,16.144z
		 M175.32,91.674h-51.85l36.639-36.639C168.464,65.227,173.949,77.853,175.32,91.674z M113.803,30.157
		c13.821,1.371,26.447,6.856,36.64,15.211l-36.64,36.639C113.803,82.007,113.803,30.157,113.803,30.157z M113.803,166.862v-51.85
		l36.639,36.639C140.251,160.004,127.624,165.491,113.803,166.862z M160.109,141.984l-36.639-36.64h51.85
		C173.949,119.165,168.464,131.792,160.109,141.984z"/>
	<path style="fill:#E9E9EA;" d="M305.254,307.161L106.967,98.509h396.575L305.254,307.161z"/>
</g>
<path style="fill:#C8C8CB;" d="M305.254,307.161V98.509h198.288L305.254,307.161z"/>
<polygon style="fill:#E27E4F;" points="449.867,154.989 160.642,154.989 305.254,307.161 "/>
<polygon style="fill:#DC5323;" points="449.867,154.989 305.254,154.989 305.254,307.161 "/>
<g>
</g>
<g>
</g>
<g>
</g>
<g>
</g>
<g>
</g>
<g>
</g>
<g>
</g>
<g>
</g>
<g>
</g>
<g>
</g>
<g>
</g>
<g>
</g>
<g>
</g>
<g>
</g>
<g>
</g>
</svg>
