<?xml version="1.0" encoding="iso-8859-1"?>
<!-- Generator: Adobe Illustrator 19.0.0, SVG Export Plug-In . SVG Version: 6.00 Build 0)  -->
<svg xmlns="http://www.w3.org/2000/svg" xmlns:xlink="http://www.w3.org/1999/xlink" version="1.1" id="Capa_1" x="0px" y="0px" viewBox="0 0 409.409 409.409" style="enable-background:new 0 0 409.409 409.409;" xml:space="preserve">
<path style="fill:#31978C;" d="M148.897,111.265c0,0-30.72,5.12-58.88,28.672c0,0-68.096,46.08-41.472,165.376  c5.12,23.552,15.36,56.832,50.688,82.944c0,0,67.072,14.848,101.888,13.312c22.016-1.024,64.512-3.584,88.576-8.704  c33.28-5.632,61.952-39.424,75.264-111.104c8.192-44.032,14.336-123.392-75.264-163.328c0,0-17.92-4.608-23.552-5.632  c-10.24-2.56-26.624-6.656-40.96,3.584c0,0-23.04-9.728-45.056,1.024C179.617,117.409,175.521,108.705,148.897,111.265z"/>
<g>
	<path style="fill:#DC8744;" d="M289.697,118.433c0,0,103.424-38.4,119.296,126.464c4.096,43.008-21.504,133.12-99.328,140.8   c0,0,66.56-53.248,55.808-152.064C361.377,199.841,349.601,147.617,289.697,118.433z"/>
	<path style="fill:#DC8744;" d="M239.009,124.065c0,0,99.84-35.84,116.736,129.024c4.608,43.008-22.528,133.12-104.448,140.8   c0,0,50.176-52.736,38.912-151.552C285.601,208.033,280.481,162.465,239.009,124.065z"/>
	<path style="fill:#DC8744;" d="M119.713,121.505c0,0-103.424-38.4-119.296,126.464c-4.096,43.008,21.504,133.12,99.328,140.8   c0,0-66.56-53.248-55.808-152.064C48.033,202.913,59.809,150.177,119.713,121.505z"/>
	<path style="fill:#DC8744;" d="M170.401,126.625c0,0-99.84-35.84-116.736,129.024c-4.608,43.008,22.528,133.12,104.448,140.8   c0,0-50.176-52.736-38.912-151.552C123.809,211.105,128.929,165.025,170.401,126.625z"/>
	<ellipse style="fill:#DC8744;" cx="204.193" cy="262.817" rx="77.824" ry="139.264"/>
</g>
<path style="fill:#44C4A1;" d="M148.897,111.265c0,0,26.624-1.024,31.232,6.144c0,0,30.72-8.704,43.008,0  c0,0,26.112-10.752,42.496-4.608c0,0-35.328-8.192-35.328-36.864c0-17.92,10.752-47.616-19.456-68.608l-22.528,22.016  c0,0,29.184,28.672,8.704,52.736C188.321,93.345,169.377,108.705,148.897,111.265z"/>
<g>
</g>
<g>
</g>
<g>
</g>
<g>
</g>
<g>
</g>
<g>
</g>
<g>
</g>
<g>
</g>
<g>
</g>
<g>
</g>
<g>
</g>
<g>
</g>
<g>
</g>
<g>
</g>
<g>
</g>
</svg>
