<?xml version="1.0" encoding="iso-8859-1"?>
<!-- Generator: Adobe Illustrator 19.0.0, SVG Export Plug-In . SVG Version: 6.00 Build 0)  -->
<svg version="1.1" id="Capa_1" xmlns="http://www.w3.org/2000/svg" xmlns:xlink="http://www.w3.org/1999/xlink" x="0px" y="0px"
	 viewBox="0 0 512 512" style="enable-background:new 0 0 512 512;" xml:space="preserve">
<path style="fill:#FFDA44;" d="M468.61,104.136H34.712C15.542,104.136,0,119.678,0,138.847v260.339
	c0,19.17,15.542,34.712,34.712,34.712h266.327c-3.983-11.134-6.014-22.884-5.988-34.712c0-57.509,46.627-104.136,104.136-104.136
	s104.136,46.627,104.136,104.136V138.847C503.322,119.678,487.78,104.136,468.61,104.136z"/>
<path style="fill:#FFCD00;" d="M468.61,52.068H270.232c-11.611,0.009-22.459-5.788-28.898-15.447l-14.058-21.174
	C220.837,5.788,209.989-0.009,198.378,0H34.712C15.542,0,0,15.542,0,34.712v104.136c0-19.17,15.542-34.712,34.712-34.712H468.61
	c19.17,0,34.712,15.542,34.712,34.712V86.78C503.322,67.61,487.78,52.068,468.61,52.068z"/>
<g>
	<path style="fill:#E6E7E8;" d="M399.186,295.051c-57.509,0-104.136,46.627-104.136,104.136
		c-0.026,11.828,2.005,23.578,5.988,34.712c19.17,54.22,78.666,82.64,132.894,63.471c54.22-19.17,82.64-78.666,63.471-132.894
		C482.686,322.855,443.331,295.034,399.186,295.051z M445.457,346.494l2.248,8.383l-100.586,26.954l-2.248-8.383L445.457,346.494z
		 M451.254,451.254H347.119v-60.746h104.136V451.254z"/>
	<rect x="347.119" y="390.508" style="fill:#E6E7E8;" width="104.136" height="60.746"/>
</g>
<rect x="344.324" y="359.78" transform="matrix(-0.9659 0.259 -0.259 -0.9659 873.5653 613.1512)" style="fill:#FFCD00;" width="104.138" height="8.678"/>
<g>
	<path style="fill:#78B9EB;" d="M399.186,512c-47.798-0.017-90.398-30.156-106.331-75.221c-4.322-12.062-6.508-24.784-6.482-37.593
		c0-62.308,50.506-112.814,112.814-112.814S512,336.879,512,399.186S461.494,512,399.186,512z M399.186,303.729
		c-52.693,0.061-95.397,42.765-95.458,95.458c-0.026,10.83,1.822,21.573,5.476,31.77c17.547,49.716,72.071,75.793,121.787,58.247
		s75.793-72.071,58.246-121.787C475.761,329.242,439.669,303.711,399.186,303.729z"/>
	<path style="fill:#78B9EB;" d="M451.254,459.932H347.119c-4.79,0-8.678-3.888-8.678-8.678v-60.746c0-4.79,3.888-8.678,8.678-8.678
		h104.136c4.79,0,8.678,3.888,8.678,8.678v60.746C459.932,456.044,456.044,459.932,451.254,459.932z M355.797,442.576h86.78v-43.39
		h-86.78V442.576z"/>
	<path style="fill:#78B9EB;" d="M347.119,390.508c-3.931,0-7.368-2.638-8.383-6.43l-2.248-8.383
		c-1.241-4.625,1.501-9.39,6.135-10.63l0,0l100.595-26.902c4.625-1.232,9.381,1.51,10.622,6.135l2.248,8.383
		c1.232,4.625-1.51,9.381-6.135,10.622l-100.586,26.91C348.629,390.404,347.874,390.508,347.119,390.508z"/>
</g>
<g>
</g>
<g>
</g>
<g>
</g>
<g>
</g>
<g>
</g>
<g>
</g>
<g>
</g>
<g>
</g>
<g>
</g>
<g>
</g>
<g>
</g>
<g>
</g>
<g>
</g>
<g>
</g>
<g>
</g>
</svg>
