<svg height="512" viewBox="0 0 128 128" width="512" xmlns="http://www.w3.org/2000/svg"><g><path d="m79.211 13.043h-60.557a7.586 7.586 0 0 0 -7.586 7.586v3.585h75.732v-3.585a7.586 7.586 0 0 0 -7.589-7.586z" fill="#efe1e1"/><path d="m101.971 64v-43.371a7.586 7.586 0 0 0 -7.586-7.586h-75.731a7.586 7.586 0 0 1 7.587 7.586v86.742a7.586 7.586 0 0 0 7.586 7.586h75.731a7.586 7.586 0 0 1 -7.587-7.586z" fill="#fff5f5"/><path d="m117.144 107.371v-3.585h-75.73v3.585a7.586 7.586 0 0 1 -7.585 7.586h75.729a7.586 7.586 0 0 0 7.586-7.586z" fill="#efe1e1"/><g fill="#3c4465"><path d="m74.668 29.09a1.75 1.75 0 0 0 0-3.5h-21.124a1.75 1.75 0 0 0 0 3.5z"/><path d="m91.383 39.559a1.75 1.75 0 1 0 0-3.5h-54.554a1.75 1.75 0 0 0 0 3.5z"/><path d="m91.383 48.893a1.75 1.75 0 1 0 0-3.5h-54.554a1.75 1.75 0 0 0 0 3.5z"/><path d="m91.383 58.227a1.75 1.75 0 0 0 0-3.5h-49.915a1.75 1.75 0 0 0 0 3.5z"/><path d="m91.383 67.561a1.75 1.75 0 1 0 0-3.5h-43.532a1.75 1.75 0 0 0 0 3.5z"/><path d="m91.383 76.9a1.75 1.75 0 0 0 0-3.5h-40.083a1.75 1.75 0 0 0 0 3.5z"/><path d="m91.383 86.229a1.75 1.75 0 0 0 0-3.5h-7.948a1.75 1.75 0 0 0 0 3.5z"/><path d="m75.314 86.229a1.75 1.75 0 0 0 0-3.5h-3.271a1.75 1.75 0 0 0 0 3.5z"/></g><path d="m33.921 83.032h-16.048v23.925l8.024-6.074 8.024 6.074z" fill="#f3963c"/><path d="m14.565 82.219 1.04 5.932 5.963-.843 4.329 4.187 4.328-4.187 5.964.843 1.04-5.932 5.32-2.822-2.645-5.411 2.645-5.411-5.32-2.822-1.04-5.932-5.964.843-4.328-4.187-4.329 4.187-5.963-.843-1.04 5.932-5.32 2.822 2.645 5.411-2.645 5.411z" fill="#ffbe40"/><circle cx="25.897" cy="73.986" fill="#e21e69" r="7.843" transform="matrix(.973 -.23 .23 .973 -16.306 7.929)"/></g></svg>