<?xml version="1.0" encoding="iso-8859-1"?>
<!-- Generator: Adobe Illustrator 21.0.0, SVG Export Plug-In . SVG Version: 6.00 Build 0)  -->
<svg xmlns="http://www.w3.org/2000/svg" xmlns:xlink="http://www.w3.org/1999/xlink" version="1.1" id="Capa_1" x="0px" y="0px" viewBox="0 0 512.002 512.002" style="enable-background:new 0 0 512.002 512.002;" xml:space="preserve" width="512" height="512">
<g>
	<path style="fill:#E6E6E6;" d="M373.988,512.002c-2.109,0-4.252-0.447-6.292-1.392L43.699,360.612   c-5.215-2.414-8.592-7.596-8.696-13.342c-0.104-5.746,3.085-11.046,8.209-13.646l134-68c7.387-3.749,16.415-0.8,20.165,6.588   c3.749,7.388,0.799,16.416-6.588,20.165L84.368,346.381l295.932,137.006c7.518,3.48,10.791,12.396,7.31,19.914   C385.074,508.778,379.652,512.002,373.988,512.002z"/>
	<path style="fill:#F1543F;" d="M184.001,0c-56.79,0-103,46.21-103,103c0,93.14,88.62,182.83,92.39,186.61   c2.93,2.93,6.77,4.39,10.61,4.39c3.84,0,7.68-1.46,10.61-4.39c3.77-3.78,92.39-93.47,92.39-186.61   C287.001,46.21,240.791,0,184.001,0z M184.001,128.5c-14.065,0-25.5-11.435-25.5-25.5s11.435-25.5,25.5-25.5   c14.065,0,25.5,11.435,25.5,25.5S198.066,128.5,184.001,128.5z"/>
	<path style="fill:#F1543F;" d="M374.001,218c-56.79,0-103,46.21-103,103c0,93.14,88.62,182.83,92.39,186.61   c2.93,2.93,6.77,4.39,10.61,4.39c3.84,0,7.68-1.46,10.61-4.39c3.77-3.78,92.39-93.47,92.39-186.61   C477.001,264.21,430.791,218,374.001,218z M374.001,346.5c-14.065,0-25.5-11.435-25.5-25.5s11.435-25.5,25.5-25.5   s25.5,11.435,25.5,25.5S388.066,346.5,374.001,346.5z"/>
	<path style="fill:none;" d="M184.001,128.5c14.065,0,25.5-11.435,25.5-25.5s-11.435-25.5-25.5-25.5c-0.168,0-0.333,0.009-0.5,0.013   v50.975C183.668,128.491,183.833,128.5,184.001,128.5z"/>
	<path style="fill:#EA2A1F;" d="M184.001,0c-0.167,0-0.333,0.006-0.5,0.006v77.506c0.167-0.003,0.332-0.013,0.5-0.013   c14.065,0,25.5,11.435,25.5,25.5s-11.435,25.5-25.5,25.5c-0.168,0-0.333-0.009-0.5-0.013v165.489   c0.167,0.005,0.333,0.024,0.5,0.024c3.84,0,7.68-1.46,10.61-4.39c3.77-3.78,92.39-93.47,92.39-186.61   C287.001,46.21,240.791,0,184.001,0z"/>
	<path style="fill:none;" d="M399.501,321c0-13.898-11.166-25.219-25-25.487v50.975C388.335,346.219,399.501,334.898,399.501,321z"/>
	<path style="fill:none;" d="M348.501,321c0,14.065,11.435,25.5,25.5,25.5c0.168,0,0.333-0.009,0.5-0.013v-50.975   c-0.167-0.003-0.332-0.013-0.5-0.013C359.936,295.5,348.501,306.935,348.501,321z"/>
	<path style="fill:#EA2A1F;" d="M477.001,321c0-56.623-45.939-102.723-102.5-102.994v77.506c13.834,0.268,25,11.59,25,25.487   s-11.166,25.219-25,25.487v165.489c3.672-0.121,7.307-1.564,10.11-4.366C388.381,503.83,477.001,414.14,477.001,321z"/>
	<path style="fill:#FEC03F;" d="M183.501,146.501c-23.986,0-43.5-19.514-43.5-43.5s19.514-43.5,43.5-43.5s43.5,19.514,43.5,43.5   S207.487,146.501,183.501,146.501z M183.501,89.501c-7.444,0-13.5,6.056-13.5,13.5s6.056,13.5,13.5,13.5s13.5-6.056,13.5-13.5   S190.945,89.501,183.501,89.501z"/>
	<path style="fill:#FEC03F;" d="M373.501,365.001c-23.986,0-43.5-19.514-43.5-43.5s19.514-43.5,43.5-43.5s43.5,19.514,43.5,43.5   S397.487,365.001,373.501,365.001z M373.501,308.001c-7.444,0-13.5,6.056-13.5,13.5s6.056,13.5,13.5,13.5s13.5-6.056,13.5-13.5   S380.945,308.001,373.501,308.001z"/>
	<path style="fill:none;" d="M170.001,103.001c0,7.444,6.056,13.5,13.5,13.5c0.169,0,0.333-0.019,0.5-0.025V89.526   c-0.167-0.006-0.331-0.025-0.5-0.025C176.057,89.501,170.001,95.557,170.001,103.001z"/>
	<path style="fill:none;" d="M197.001,103.001c0-7.275-5.789-13.209-13-13.475v26.949   C191.212,116.21,197.001,110.276,197.001,103.001z"/>
	<path style="fill:#ED961F;" d="M227.001,103.001c0-23.818-19.245-43.217-43-43.487v30.013c7.211,0.266,13,6.2,13,13.475   s-5.789,13.209-13,13.475v30.013C207.756,146.218,227.001,126.819,227.001,103.001z"/>
	<path style="fill:none;" d="M373.501,335.001c7.444,0,13.5-6.056,13.5-13.5s-6.056-13.5-13.5-13.5c-0.169,0-0.333,0.019-0.5,0.025   v26.949C373.168,334.982,373.332,335.001,373.501,335.001z"/>
	<path style="fill:none;" d="M360.001,321.501c0,7.275,5.789,13.209,13,13.475v-26.949   C365.79,308.292,360.001,314.226,360.001,321.501z"/>
	<path style="fill:#ED961F;" d="M373.501,278.001c-0.168,0-0.333,0.011-0.5,0.013v30.013c0.167-0.006,0.331-0.025,0.5-0.025   c7.444,0,13.5,6.056,13.5,13.5s-6.056,13.5-13.5,13.5c-0.169,0-0.333-0.019-0.5-0.025v30.013c0.167,0.002,0.332,0.013,0.5,0.013   c23.986,0,43.5-19.514,43.5-43.5S397.487,278.001,373.501,278.001z"/>
</g>















</svg>
