<svg id="Capa_1" enable-background="new 0 0 512 512" height="512" viewBox="0 0 512 512" width="512" xmlns="http://www.w3.org/2000/svg"><g><g><path d="m452 272.006h-15c-8.291 0-15-6.709-15-15v-90c0-8.291 6.709-15 15-15h15c33.076 0 60 26.909 60 60s-26.924 60-60 60zm0-30h.293z" fill="#5c6699"/></g><path d="m422 257.006c0 8.291 6.709 15 15 15h15c33.076 0 60-26.909 60-60h-90z" fill="#404a80"/><g id="Megaphone_1_"><g><g><g><path d="m135 211.899 29.299-89.893 212.701-83.702 30 173.595-30 173.806-212.701-83.699z" fill="#edf5ff"/></g></g></g></g><path d="m135.033 212.006 29.266 90 212.701 83.699 29.982-173.699z" fill="#b5dbff"/><g><path d="m105 482.006c-24.814 0-45-20.186-45-45v-150c0-8.291 6.709-15 15-15h60c8.291 0 15 6.709 15 15v150c0 24.814-20.186 45-45 45z" fill="#404a80"/></g><path d="m452 75.206v273.6c0 15.3-7.5 29.399-20.4 37.8-12.943 8.282-29.288 9.328-42.9 3.6l-11.7-4.501v-347.401l12.299-4.799c13.5-5.7 29.702-4.501 42.301 3.9 12.9 8.399 20.4 22.5 20.4 37.801z" fill="#f66"/><g><g><path d="m377 212.006v173.699l11.7 4.501c13.61 5.727 29.955 4.684 42.9-3.6 12.9-8.401 20.4-22.5 20.4-37.8v-136.8z" fill="#e64d2e"/></g></g><g><path d="m164.299 122.006v180h-89.299c-41.4 0-75-33.6-75-75v-30c0-41.4 33.6-75 75-75z" fill="#f66"/></g><path d="m0 212.006v15c0 41.4 33.6 75 75 75h89.299v-90z" fill="#e64d2e"/></g></svg>