<svg height="512" viewBox="0 0 128 128" width="512" xmlns="http://www.w3.org/2000/svg"><g><rect fill="#9b6e42" height="61.793" rx="2.19" transform="matrix(.707 .707 -.707 .707 76.699 4.148)" width="17.277" x="24.704" y="63.761"/><path d="m115.105 41.526-3.624 3.623-7.069-7.069-.013.013a12.78 12.78 0 0 0 -14.493-14.493l.014-.013-7.069-7.069 3.623-3.618-6.6-6.6-18.124 18.117 6.6 6.6 3.624-3.624 7.07 7.07.013-.012a12.779 12.779 0 0 0 14.49 14.49l-.012.013 7.07 7.07-3.624 3.624 6.6 6.6 18.123-18.123z" fill="#65727f"/><path d="m82.667 45.333a12.7 12.7 0 0 1 -2.678-3.953l-.03-.031-28.115 28.116 6.691 6.691 28.116-28.115-.031-.03a12.7 12.7 0 0 1 -3.953-2.678z" fill="#ffca28"/><g fill="#825a3a"><path d="m34.987 98.053a1.745 1.745 0 0 1 -1.237-.513l-3.29-3.29a1.75 1.75 0 0 1 2.475-2.475l3.29 3.29a1.751 1.751 0 0 1 -1.238 2.988z"/><path d="m28.164 104.876a1.744 1.744 0 0 1 -1.238-.512l-3.29-3.29a1.75 1.75 0 0 1 2.475-2.474l3.29 3.29a1.75 1.75 0 0 1 -1.237 2.987z"/><path d="m48.635 84.406a1.745 1.745 0 0 1 -1.238-.513l-3.29-3.29a1.75 1.75 0 0 1 2.474-2.475l3.291 3.29a1.751 1.751 0 0 1 -1.237 2.988z"/><path d="m41.811 91.229a1.741 1.741 0 0 1 -1.237-.513l-3.29-3.29a1.749 1.749 0 1 1 2.474-2.474l3.29 3.29a1.75 1.75 0 0 1 -1.237 2.987z"/><path d="m21.34 111.7a1.745 1.745 0 0 1 -1.237-.513l-3.29-3.29a1.75 1.75 0 0 1 2.475-2.475l3.29 3.29a1.751 1.751 0 0 1 -1.238 2.988z"/></g></g></svg>