<svg enable-background="new 0 0 58 29" height="512" viewBox="0 0 58 29" width="512" xmlns="http://www.w3.org/2000/svg"><path d="m54.765 7.116c.483-.156.952-.215 1.399-.195 1.019.044 1.836-.85 1.836-1.87v-5.051h-18c-.044 2.088-2.266 4-5 4-2.5 0-4.631-2.162-5-4h-16.141c-.446 1.722-1.997 3-3.859 3s-3.413-1.278-3.859-3h-6.141v18c1.657 0 3 1.343 3 3s-1.343 3-3 3v2.05c0 1.62 1.38 2.978 3 2.95h50.302c2.608-.046 4.698-2.173 4.698-4.782v-7.433c0-1.076-.902-1.874-1.978-1.867-.007 0-.015 0-.022 0-2.477 0-4.428-2.251-3.919-4.819.276-1.39 1.335-2.548 2.684-2.983z" fill="#ebba16"/><g fill="#f7e6a1"><circle cx="43" cy="9" r="3"/><circle cx="32" cy="18" r="3"/><circle cx="11" cy="11" r="4"/><path d="m49 28.252c0-2.348-2.015-4.252-4.5-4.252s-4.5 1.904-4.5 4.252c0 .257.037.504.083.748h8.837c.049-.243.08-.492.08-.748z"/><path d="m22 7h4v4h-4z"/><path d="m15 20h4v4h-4z"/></g></svg>