<svg height="512" viewBox="0 0 58 58" width="512" xmlns="http://www.w3.org/2000/svg"><g id="Page-1" fill="none" fill-rule="evenodd"><g id="017---Cereal" fill-rule="nonzero" transform="translate(-1)"><path id="Shape" d="m46 0h-44c-.30049777-.00036187-.58522855.13442741-.7754202.36707774-.19019164.23265033-.26567961.53849561-.2055798.83292226l1.981 8.8v44c0 2.209139 1.790861 4 4 4h38v-48l1.981-8.8c.0600998-.29442665-.0153882-.60027193-.2055798-.83292226s-.4749224-.36743961-.7754202-.36707774z" fill="#f0c419"/><path id="Shape" d="m45 16v42h-38c-2.209139 0-4-1.790861-4-4v-30h10c5 0 11-1 15-4s10-4 17-4z" fill="#f29c1f"/><path id="Shape" d="m46 0h-44c-.30049777-.00036187-.58522855.13442741-.7754202.36707774-.19019164.23265033-.26567961.53849561-.2055798.83292226l1.981 8.8h42l1.981-8.8c.0600998-.29442665-.0153882-.60027193-.2055798-.83292226s-.4749224-.36743961-.7754202-.36707774z" fill="#e57e25"/><path id="Shape" d="m45 54h-8c-6.627417 0-12-5.372583-12-12v-4l16-1 16 1v4c0 6.627417-5.372583 12-12 12z" fill="#955ba5"/><path id="Shape" d="m34 54h14c1.1045695 0 2 .8954305 2 2v1c0 .5522847-.4477153 1-1 1h-16c-.5522847 0-1-.4477153-1-1v-1c0-1.1045695.8954305-2 2-2z" fill="#894b9d"/><path id="Shape" d="m26.18 34c-.1211006-.3193958-.1821256-.6584234-.18-1 0-1.6568542 1.3431458-3 3-3 .4588781.0027274.9108152.1122879 1.32.32-.2077121-.4091848-.3172726-.8611219-.32-1.32 0-1.6568542 1.3431458-3 3-3 .5166213.0019521 1.02362.1399109 1.47.4.7678632-1.2285594 2.308265-1.7265523 3.65-1.18.3442122-1.3083715 1.5271075-2.2203167 2.88-2.2203167s2.5357878.9119452 2.88 2.2203167c1.341735-.5465523 2.8821368-.0485594 3.65 1.18.44638-.2600891.9533787-.3980479 1.47-.4 1.6568542 0 3 1.3431458 3 3-.0027274.4588781-.1122879.9108152-.32 1.32.4091848-.2077121.8611219-.3172726 1.32-.32 1.6568542 0 3 1.3431458 3 3 .0021256.3415766-.0588994.6806042-.18 1z" fill="#f9eab0"/><rect id="Rectangle-path" fill="#ecf0f1" height="4" rx="1" width="14" x="7" y="50"/><rect id="Rectangle-path" fill="#894b9d" height="4" rx="2" width="36" x="23" y="34"/></g></g></svg>