<svg enable-background="new 0 0 512 512" height="512" viewBox="0 0 512 512" width="512" xmlns="http://www.w3.org/2000/svg"><g id="_x31_7_Sandwich"><g><path d="m494.745 318.924v62.637c0 14.73-11.813 26.541-26.541 26.541h-424.398c-14.732 0-26.541-11.811-26.541-26.541v-62.637z" fill="#c17d61"/><path d="m494.736 318.939v62.622c0 14.744-11.806 26.55-26.55 26.55h-38.792c14.744 0 26.55-11.806 26.55-26.55v-62.622z" opacity=".08"/><path d="m477.653 318.924-121.569 59.868c-2.834 1.396-6.089 1.395-8.923-.002l-121.464-59.866z" fill="#eff1f4"/><path d="m328.2 318.924-150.026 68.38c-3.498 1.594-7.514 1.593-11.012-.002l-149.897-68.378z" fill="#e5e3e5"/><path d="m490.287 340.45c-4.949-1.715-11.04-3.239-19.604-3.239-27.596 0-14.274 11.04-42.061 11.04-27.601 0-27.601-11.04-55.197-11.04s-27.596 11.04-55.383 11.04c-27.596 0-27.596-11.04-55.192-11.04-27.791 0-27.791 11.04-55.387 11.04s-27.596-11.04-55.192-11.04c-27.787 0-27.787 11.04-55.387 11.04-27.787 0-27.787-11.04-55.383-11.04-8.754 0-14.846 1.524-19.794 3.427-12.56 4.57-23.219-9.895-15.227-20.364l17.322-23.219h464.389l17.322 23.028c7.993 10.661-2.666 25.125-15.226 20.367z" fill="#13bd79"/><path d="m490.274 340.429c-4.951-1.687-11.044-3.21-19.586-3.21-.544 0-1.088 0-1.578.054 4.081-4.298 5.332-11.317.979-17.193l-17.356-23.014h35.473l17.301 23.014c7.999 10.665-2.665 25.137-15.233 20.349z" opacity=".08"/><path d="m494.745 246.702v32.278c0 14.597-11.813 26.541-26.541 26.541h-424.398c-14.732 0-26.541-11.944-26.541-26.541v-32.278z" fill="#ea4e4e"/><path d="m494.736 246.687v32.317c0 14.581-11.806 26.496-26.55 26.496h-30.304c14.744 0 26.55-11.915 26.55-26.496v-32.317z" opacity=".08"/><path d="m162.057 241.804c0 18.921-29.793 34.307-66.475 34.307s-66.417-15.386-66.417-34.307 29.736-34.238 66.417-34.238 66.475 15.317 66.475 34.238z" fill="#f2f0f0"/><path d="m268.983 241.804c0 18.921-29.793 34.307-66.475 34.307s-66.417-15.386-66.417-34.307 29.736-34.238 66.417-34.238 66.475 15.317 66.475 34.238z" fill="#e5e3e5"/><path d="m375.909 241.804c0 18.921-29.793 34.307-66.475 34.307s-66.417-15.386-66.417-34.307 29.736-34.238 66.417-34.238 66.475 15.317 66.475 34.238z" fill="#f2f0f0"/><path d="m482.835 241.804c0 18.921-29.793 34.307-66.475 34.307s-66.417-15.386-66.417-34.307 29.736-34.238 66.417-34.238 66.475 15.317 66.475 34.238z" fill="#e5e3e5"/><path d="m511.698 230.01v-31.459h-511.402v31.459c0 9.218 7.473 16.691 16.691 16.691h478.019c9.219.001 16.692-7.472 16.692-16.691z" fill="#f2b816"/><path d="m511.698 456.254v-31.459c0-9.218-7.473-16.691-16.691-16.691h-478.019c-9.218 0-16.691 7.473-16.691 16.691v31.459c0 9.218 7.473 16.691 16.691 16.691h478.019c9.218 0 16.691-7.473 16.691-16.691z" fill="#f2b816"/><path d="m511.71 424.814v31.447c0 9.195-7.508 16.703-16.703 16.703h-53.482c9.249 0 16.703-7.508 16.703-16.703v-31.447c0-9.249-7.454-16.703-16.703-16.703h53.482c9.195 0 16.703 7.454 16.703 16.703z" opacity=".08"/><path d="m511.71 198.566h-511.42l217.793-147.874c22.889-15.541 52.944-15.541 75.833 0z" fill="#ffce29"/><g opacity=".4"><path d="m71.071 176.83c-2.532-3.728-1.563-8.803 2.165-11.336l36.886-25.054c3.728-2.532 8.803-1.563 11.335 2.165 2.532 3.728 1.563 8.803-2.165 11.336l-36.886 25.054c-3.727 2.533-8.802 1.564-11.335-2.165z" fill="#fff"/></g><path d="m511.71 198.537v31.447c0 9.249-7.508 16.703-16.703 16.703h-45.593c9.195 0 16.703-7.454 16.703-16.703v-31.447h-.054l-217.734-147.822c-4.788-3.264-9.848-5.821-15.125-7.671 19.967-7.236 42.6-4.624 60.717 7.671l217.735 147.823h.054z" opacity=".08"/></g></g></svg>