<svg id="Layer_1" enable-background="new 0 0 512 512" height="512" viewBox="0 0 512 512" width="512" xmlns="http://www.w3.org/2000/svg"><g><path d="m352.4 415.6h-192.8c-3.979 0-7.794-1.581-10.607-4.394l-70.754-70.757c-46.566-46.568-46.566-122.339 0-168.906 70.853-70.847 167.154-167.149 167.154-167.149 2.814-2.813 6.629-4.394 10.607-4.394s7.793 1.581 10.607 4.394c0 0 96.301 96.303 167.153 167.149 46.566 46.568 46.566 122.339.001 168.907l-70.754 70.757c-2.813 2.813-6.629 4.393-10.607 4.393z" fill="#87e752"/><path d="m363.007 411.206 70.754-70.757c46.565-46.568 46.565-122.339-.001-168.907-70.852-70.846-167.153-167.148-167.153-167.148-2.814-2.813-6.628-4.394-10.607-4.394v415.6h96.4c3.978 0 7.794-1.58 10.607-4.394z" fill="#4ec95f"/><path d="m363.006 245.394c-5.857-5.858-15.355-5.858-21.213 0l-70.793 70.793v-156.587c0-8.284-6.716-15-15-15s-15 6.716-15 15v156.586l-70.793-70.793c-5.857-5.858-15.355-5.858-21.213 0s-5.858 15.355 0 21.213l92.006 92.007v138.387c0 8.284 6.716 15 15 15s15-6.716 15-15v-138.387l92.006-92.006c5.858-5.858 5.858-15.356 0-21.213z" fill="#14aa6b"/></g></svg>