<svg id="Layer_1" enable-background="new 0 0 512 512" height="512" viewBox="0 0 512 512" width="512" xmlns="http://www.w3.org/2000/svg"><g clip-rule="evenodd" fill-rule="evenodd"><circle cx="237.88" cy="237.88" fill="#ffd54f" r="227.88"/><ellipse cx="237.88" cy="237.88" fill="#ffc107" rx="163.638" ry="163.638" transform="matrix(.707 -.707 .707 .707 -98.533 237.88)"/><path d="m179.425 194.569c1.304-13.072 7.661-24.923 17.556-33.759 7.293-6.513 16.152-11.054 25.611-13.397l-.251-10.521c-.198-8.292 6.378-15.183 14.669-15.378s15.178 6.378 15.376 14.667l.276 11.551c4.845 1.275 9.641 3.019 14.14 5.111 8.287 3.855 17.289 9.762 22.384 17.515 4.548 6.92 2.618 16.252-4.302 20.801s-16.253 2.619-20.801-4.301c-1.682-2.559-7.19-5.441-9.911-6.707-4.441-2.065-11.344-4.543-16.291-4.543-7.586 0-15.173 2.509-20.874 7.6-4.41 3.938-7.374 9.223-7.744 15.128v1.255c0 6.403 3.019 12.165 7.744 16.383 5.696 5.087 13.3 7.56 20.874 7.56 14.984 0 29.688 5.277 40.901 15.289 11.15 9.957 17.844 23.731 17.844 38.781 0 15.049-6.694 28.824-17.844 38.781-7.288 6.508-16.13 11.062-25.579 13.418l.219 9.064c.2 8.293-6.378 15.185-14.67 15.379-8.29.195-15.176-6.377-15.376-14.666l-.229-9.486c-4.264-.993-8.349-2.475-12.306-4.477-7.49-3.789-13.742-9.095-19.817-14.82-6.039-5.69-6.332-15.211-.645-21.256 5.687-6.046 15.219-6.339 21.262-.645 3.759 3.542 8.12 7.529 12.756 9.873 4.245 2.148 8.768 2.78 13.483 2.78 7.574 0 15.178-2.474 20.874-7.56 4.724-4.219 7.744-9.98 7.744-16.384 0-6.403-3.019-12.165-7.743-16.383-5.696-5.086-13.3-7.56-20.875-7.56-14.984 0-29.688-5.277-40.9-15.29-11.15-9.957-17.844-23.731-17.844-38.781v-5.021h.289z" fill="#f2f2f2"/><path d="m320.229 316.392 158.273 55.219c1.152.402 1.914 1.388 2.01 2.604.097 1.217-.498 2.311-1.572 2.891l-41.361 22.329 62.954 62.954c1.955 1.955 1.955 5.145 0 7.101l-31.042 31.042c-1.955 1.955-5.146 1.955-7.1 0l-62.955-62.955-22.329 41.361c-.58 1.074-1.674 1.669-2.891 1.572s-2.203-.858-2.605-2.011l-55.22-158.272c-.39-1.118-.123-2.285.714-3.123.839-.835 2.006-1.102 3.124-.712z" fill="#656565"/></g></svg>