<svg id="Capa_1" enable-background="new 0 0 512 512" height="512" viewBox="0 0 512 512" width="512" xmlns="http://www.w3.org/2000/svg"><g><g><path d="m487 201h-30c-8.284 0-15-6.716-15-15s6.716-15 15-15h30c8.284 0 15 6.716 15 15s-6.716 15-15 15z" fill="#ebe1dc"/></g><path d="m446 461h-380c-8.284 0-15-6.716-15-15s6.716-15 15-15h380c8.284 0 15 6.716 15 15s-6.716 15-15 15z" fill="#738c96"/><path d="m446 431h-190v30h190c8.284 0 15-6.716 15-15s-6.716-15-15-15z" fill="#55696e"/><g><g><path d="m447 261h-50c-13.807 0-25-11.193-25-25v-70c0-8.284 6.716-15 15-15h70c8.284 0 15 6.716 15 15v70c0 13.807-11.193 25-25 25z" fill="#fff5f5"/></g><g><path d="m457 151h-35v110h25c13.807 0 25-11.193 25-25v-70c0-8.284-6.716-15-15-15z" fill="#f5f0eb"/></g><g><path d="m467 501h-20c-7.644 0-14.064-5.747-14.908-13.344l-20-180c-.472-4.24.886-8.481 3.731-11.66s6.91-4.996 11.177-4.996h40c8.284 0 15 6.716 15 15v180c0 8.284-6.716 15-15 15z" fill="#895140"/></g><g><path d="m65 501h-20c-8.284 0-15-6.716-15-15v-180c0-8.284 6.716-15 15-15h40c4.267 0 8.331 1.817 11.177 4.996s4.203 7.42 3.731 11.66l-20 180c-.844 7.597-7.264 13.344-14.908 13.344z" fill="#b2705b"/></g></g><g><path d="m497 321h-482c-8.284 0-15-6.716-15-15v-30c0-8.284 6.716-15 15-15h482c8.284 0 15 6.716 15 15v30c0 8.284-6.716 15-15 15z" fill="#c89889"/></g><path d="m497 261h-241v60h241c8.284 0 15-6.716 15-15v-30c0-8.284-6.716-15-15-15z" fill="#b2705b"/><g><g><path d="m305 201h-240c-8.284 0-15-6.716-15-15v-140c0-19.299 15.701-35 35-35h200c19.299 0 35 15.701 35 35v140c0 8.284-6.716 15-15 15z" fill="#55696e"/></g></g><g><path d="m285 11h-100v190h120c8.284 0 15-6.716 15-15v-140c0-19.299-15.701-35-35-35z" fill="#3f4a4a"/></g><path d="m80 201h210v-155c0-2.757-2.243-5-5-5h-200c-2.757 0-5 2.243-5 5z" fill="#beebfa"/><g><path d="m290 46c0-2.757-2.243-5-5-5h-100v160h105z" fill="#7ed8f7"/></g><g><path d="m333.613 201.878-13.613-20.42h-270l-13.614 20.421c-4.178 6.267-6.386 13.561-6.386 21.093 0 20.969 17.059 38.028 38.027 38.028h233.945c20.969 0 38.028-17.059 38.028-38.028 0-7.532-2.208-14.826-6.387-21.094z" fill="#738c96"/></g><g><path d="m333.613 201.878-13.613-20.42h-135v79.542h116.973c20.968 0 38.027-17.059 38.027-38.028 0-7.532-2.208-14.826-6.387-21.094z" fill="#55696e"/></g></g></svg>