<?xml version="1.0" encoding="iso-8859-1"?>
<!-- Generator: Adobe Illustrator 19.0.0, SVG Export Plug-In . SVG Version: 6.00 Build 0)  -->
<svg version="1.1" id="Capa_1" xmlns="http://www.w3.org/2000/svg" xmlns:xlink="http://www.w3.org/1999/xlink" x="0px" y="0px"
	 viewBox="0 0 512 512" style="enable-background:new 0 0 512 512;" xml:space="preserve">
<path style="fill:#FFE475;" d="M89.787,511.957c-22.996,0.002-45.982-8.749-63.488-26.255l0,0l0,0
	C9.34,468.743,0.001,446.196,0,422.214c0-23.983,9.339-46.53,26.298-63.488L358.725,26.298c35.009-35.009,91.971-35.006,126.976,0
	C502.66,43.256,511.999,65.803,512,89.786c0,23.983-9.339,46.53-26.298,63.488L153.275,485.702
	C135.774,503.204,112.776,511.955,89.787,511.957z"/>
<g>
	<path style="fill:#FFB726;" d="M189.848,294.105c-3.98,0-7.959-1.518-10.995-4.555l-41.752-41.752l21.991-21.991l41.752,41.752
		c6.073,6.072,6.073,15.918,0,21.991C197.807,292.587,193.828,294.105,189.848,294.105z"/>
	<path style="fill:#FFB726;" d="M241.106,242.846c-3.98,0-7.959-1.518-10.995-4.555L188.36,196.54l21.991-21.991l41.751,41.752
		c6.073,6.073,6.073,15.918,0,21.991C249.066,241.328,245.086,242.846,241.106,242.846z"/>
	<path style="fill:#FFB726;" d="M292.366,191.587c-3.98,0-7.959-1.518-10.995-4.555L239.62,145.28l21.991-21.991l41.751,41.752
		c6.073,6.073,6.073,15.918,0,21.991C300.324,190.068,296.345,191.587,292.366,191.587z"/>
	<path style="fill:#FFB726;" d="M485.701,26.298c0,0-0.001-0.001-0.002-0.002L26.297,485.699c0.001,0.001,0.002,0.002,0.002,0.003
		c17.506,17.506,40.493,26.257,63.488,26.255c22.989-0.002,45.986-8.754,63.488-26.255l332.427-332.427
		C502.661,136.317,512,113.769,512,89.786C511.999,65.803,502.661,43.256,485.701,26.298z"/>
</g>
<g>
</g>
<g>
</g>
<g>
</g>
<g>
</g>
<g>
</g>
<g>
</g>
<g>
</g>
<g>
</g>
<g>
</g>
<g>
</g>
<g>
</g>
<g>
</g>
<g>
</g>
<g>
</g>
<g>
</g>
</svg>
