<svg id="Capa_1" enable-background="new 0 0 510.011 510.011" height="512" viewBox="0 0 510.011 510.011" width="512" xmlns="http://www.w3.org/2000/svg"><g><path d="m472.134 225.006h-459.781c-1.119 7.084-11.859 14.335-12.169 21.748-.318 7.589-.113-2.967-.172 203.252h510c0-.141 0-185.276 0-203.492z" fill="#f0ce46"/><path d="m472.134 225.006-193.945 20v205h231.822c0-.141 0-185.276 0-203.492z" fill="#e8a43e"/><path id="XMLID_479_" d="m199.167 60.006h-4.155c-104.677 0-190.341 82.91-194.804 186.508h509.804z" fill="#f6e486"/><path d="m278.19 107.42v139.094h231.821z" fill="#f0ce46"/><path id="XMLID_483_" d="m135.011 360.006c-41.355 0-75 33.645-75 75v15h150v-15c0-41.356-33.644-75-75-75z" fill="#e8a43e"/><circle id="XMLID_486_" cx="345.011" cy="345.006" fill="#e17b47" r="45"/><circle id="XMLID_1_" cx="105.011" cy="289.035" fill="#e8a43e" r="42.5"/><path id="XMLID_492_" d="m244.147 94.225c-24.912 18.152-16.718 47.194 18.266 64.74 34.06 17.084 79.308 16.596 104.434 1.649l-117.031-70.219c-.1.068-6.049 4.085-5.669 3.83z" fill="#f0ce46"/><path d="m278.19 107.42v57.952c34.296 11.136 69.27 6.774 88.657-4.758z" fill="#e8a43e"/></g></svg>