<svg id="Capa_1" enable-background="new 0 0 497 497" height="512" viewBox="0 0 497 497" width="512" xmlns="http://www.w3.org/2000/svg"><g><path d="m424.284 364.279-2.932 29.292-55.53 6.93-58.99-6.93-2.932-29.292c-.363-3.629 2.487-6.779 6.134-6.779h108.116c3.647 0 6.497 3.149 6.134 6.779z" fill="#d8ecfe"/><path d="m424.284 364.279-2.932 29.292-12.197 6.93-11.803-6.93 2.917-29.15c.287-2.866-1.214-5.613-3.781-6.92h21.661c3.648-.001 6.498 3.148 6.135 6.778z" fill="#b3dafe"/><path d="m272.375 188.648v25.79l-11.778 101.729 11.778 118.333v28.722c0 2.644-.575 5.257-1.686 7.657l-7.201 15.554c-2.984 6.443-9.438 10.567-16.538 10.567h-148.84c-7.101 0-13.555-4.124-16.538-10.568l-7.201-15.554c-1.111-2.4-1.686-5.012-1.686-7.657v-28.721l11.804-116.333-11.804-103.727v-25.792c0-6.289 3.742-11.975 9.517-14.463l46.438-20.006c5.776-2.488 9.517-8.174 9.517-14.463v-77.572l34.373-7.644 34.373 7.644v77.572c0 6.289 3.742 11.975 9.517 14.463l46.438 20.006c5.776 2.489 9.517 8.174 9.517 14.463z" fill="#ffd15b"/><path d="m272.372 188.65v25.788l-11.775 101.728 11.775 118.305v28.748c0 2.65-.57 5.26-1.68 7.66l-7.2 15.55c-2.99 6.45-9.44 10.57-16.54 10.57h-23.56c7.11 0 13.56-4.12 16.54-10.57l7.2-15.55c1.11-2.4 1.69-5.01 1.69-7.66v-274.569c0-6.29-3.74-11.98-9.52-14.46l-46.44-20.01c-5.77-2.49-9.51-8.17-9.51-14.46v-77.58l14.1-7.64 9.45 7.64v77.58c0 6.29 3.74 11.97 9.52 14.46l46.44 20.01c5.77 2.48 9.51 8.17 9.51 14.46z" fill="#ffc344"/><path d="m207.542 62.146h-70.025c-2.135 0-3.866-1.731-3.866-3.866v-45.238c.001-7.203 5.84-13.042 13.043-13.042h51.671c7.203 0 13.042 5.839 13.042 13.042v45.238c.001 2.135-1.73 3.866-3.865 3.866z" fill="#557983"/><path d="m211.412 13.04v45.244c0 2.135-1.731 3.866-3.866 3.866h-20.891c1.029-.833 1.627-2.086 1.627-3.41v-45.7c0-7.2-5.84-13.04-13.04-13.04h23.12c7.21 0 13.05 5.84 13.05 13.04z" fill="#3e5959"/><path d="m72.685 214.438h199.691v220.062h-199.691z" fill="#557983"/><path d="m248.822 214.44h23.55v220.06h-23.55z" fill="#3e5959"/><path d="m228.295 279.572h-111.53c-3.444 0-6.235-2.792-6.235-6.235v-16.865c0-3.444 2.792-6.235 6.235-6.235h111.53c3.444 0 6.235 2.792 6.235 6.235v16.865c0 3.444-2.792 6.235-6.235 6.235z" fill="#d8ecfe"/><path d="m234.532 256.48v16.85c0 3.45-2.79 6.24-6.24 6.24h-24.25c3.45 0 6.24-2.79 6.24-6.24v-16.85c0-3.45-2.79-6.24-6.24-6.24h24.25c3.45 0 6.24 2.79 6.24 6.24z" fill="#b3dafe"/><ellipse cx="172.53" cy="332.5" fill="#d8ecfe" rx="60.684" ry="25"/><path d="m233.212 332.5c0 13.81-27.17 25-60.68 25-3.7 0-7.33-.14-10.84-.4 28.34-2.1 49.84-12.31 49.84-24.6s-21.5-22.5-49.84-24.6c3.51-.26 7.14-.4 10.84-.4 33.51 0 60.68 11.19 60.68 25z" fill="#b3dafe"/><path d="m421.352 393.57-8.55 85.41c-1.02 10.23-9.63 18.02-19.91 18.02h-57.6c-10.28 0-18.89-7.79-19.92-18.02l-8.54-85.41z" fill="#ffd15b"/><path d="m421.352 393.57-8.55 85.41c-1.02 10.23-9.63 18.02-19.91 18.02h-24c10.28 0 18.89-7.79 19.91-18.02l8.55-85.41z" fill="#ffc344"/><g><path d="m204.863 393.667h-64.667c-4.142 0-7.5-3.358-7.5-7.5s3.358-7.5 7.5-7.5h64.667c4.142 0 7.5 3.358 7.5 7.5s-3.357 7.5-7.5 7.5z" fill="#d8ecfe"/></g></g></svg>