<?xml version="1.0" encoding="iso-8859-1"?>
<!-- Generator: Adobe Illustrator 19.0.0, SVG Export Plug-In . SVG Version: 6.00 Build 0)  -->
<svg version="1.1" id="Capa_1" xmlns="http://www.w3.org/2000/svg" xmlns:xlink="http://www.w3.org/1999/xlink" x="0px" y="0px"
	 viewBox="0 0 512 512" style="enable-background:new 0 0 512 512;" xml:space="preserve">
<polygon style="fill:#E27726;" points="256,512 361.643,512 361.643,448.212 235.984,428.197 "/>
<polygon style="fill:#FF9F22;" points="150.357,448.212 150.357,512 256,512 256,428.197 "/>
<polygon style="fill:#04303E;" points="256,448.212 361.643,448.212 361.643,295.093 235.984,275.078 "/>
<polygon style="fill:#09607D;" points="256,275.078 150.357,295.093 150.357,448.212 256,448.212 "/>
<polygon style="fill:#E27726;" points="306.55,187.712 235.984,167.696 256,295.093 361.643,295.093 361.643,241.937 "/>
<polygon style="fill:#FF9F22;" points="256,167.696 205.453,187.712 150.357,241.937 150.357,295.093 256,295.093 "/>
<polygon style="fill:#04303E;" points="256,187.712 306.55,187.712 298.009,63.788 235.984,43.772 "/>
<polygon style="fill:#09607D;" points="256,43.772 213.992,63.788 205.453,187.712 256,187.712 "/>
<polygon style="fill:#E27726;" points="298.009,63.788 293.613,0 256,0 235.984,31.893 256,63.788 "/>
<polygon style="fill:#FF9F22;" points="256,0 218.387,0 213.992,63.788 256,63.788 "/>
<g>
</g>
<g>
</g>
<g>
</g>
<g>
</g>
<g>
</g>
<g>
</g>
<g>
</g>
<g>
</g>
<g>
</g>
<g>
</g>
<g>
</g>
<g>
</g>
<g>
</g>
<g>
</g>
<g>
</g>
</svg>
