<svg id="Capa_1" enable-background="new 0 0 512 512" height="512" viewBox="0 0 512 512" width="512" xmlns="http://www.w3.org/2000/svg"><g><path d="m499.924 112.806-161-32c-9.294-1.842-17.924 5.278-17.924 14.713v352c0 7.157 5.057 13.317 12.076 14.712l161 32c9.265 1.839 17.924-5.252 17.924-14.712v-352c0-7.157-5.057-13.317-12.076-14.713z" fill="#ffe278"/><path d="m191 115.2v377.428c-15.31 3.05-14.45 2.85-14.89 2.85h-.11c-.97 0-163.92-33.25-163.92-33.25-7.02-1.389-12.08-7.549-12.08-14.709v-352c0-9.47 8.66-16.55 17.92-14.71l160.04 31.81z" fill="#ffe278"/><path d="m337.94 463.229c-89.33 17.86-129.11 25.84-146.94 29.4-15.31 3.05-14.45 2.85-14.89 2.85h-.11v-382.46l1.96-.4 153.95-31.53c1.98-.4 4.15-.84 6.09-.44 0 391.64.04 382.58-.06 382.58z" fill="#ffb454"/><path d="m287 127.519c0 25.01-16.36 65.38-50.03 123.41-24.02 41.41-47.63 75.68-48.63 77.11-5.952 8.631-18.725 8.635-24.68 0-1-1.43-24.61-35.7-48.63-77.11-33.67-58.03-50.03-98.4-50.03-123.41 0-61.21 49.79-111 111-111s111 49.79 111 111z" fill="#dd5958"/><path d="m287 127.519c0 25.01-16.36 65.38-50.03 123.41-24.02 41.41-47.63 75.68-48.63 77.11-2.8 4.06-7.41 6.48-12.34 6.48v-318c61.21 0 111 49.79 111 111z" fill="#d8225b"/><circle cx="176" cy="127.519" fill="#e2f4ff" r="47"/><path d="m223 127.519c0 25.92-21.08 47-47 47v-94c25.92 0 47 21.08 47 47z" fill="#b9e2fd"/></g></svg>