<?xml version="1.0" encoding="iso-8859-1"?>
<!-- Generator: Adobe Illustrator 19.0.0, SVG Export Plug-In . SVG Version: 6.00 Build 0)  -->
<svg xmlns="http://www.w3.org/2000/svg" xmlns:xlink="http://www.w3.org/1999/xlink" version="1.1" id="Capa_1" x="0px" y="0px" viewBox="0 0 512 512" style="enable-background:new 0 0 512 512;" xml:space="preserve">
<path style="fill:#F7DB94;" d="M512,285.983c0,131.827-76.41,178.68-170.667,178.68c-94.255,0-170.665-46.853-170.665-178.68  s76.41-238.694,170.665-238.694C435.59,47.289,512,154.155,512,285.983z"/>
<path style="fill:#EFCB7B;" d="M225.841,285.983c0-124.754,57.372-227.135,130.498-237.765  C255.82,35.96,170.667,146.75,170.667,285.983c0,131.827,76.41,178.68,170.665,178.68c5.058,0,10.061-0.144,15.007-0.42  C283.213,459.381,225.841,410.736,225.841,285.983z"/>
<path style="fill:#FFE9B8;" d="M341.333,285.983c0,131.827-76.41,178.68-170.667,178.68C76.41,464.663,0,417.81,0,285.983  S76.41,47.289,170.665,47.289C264.922,47.289,341.333,154.155,341.333,285.983z"/>
<path style="fill:#F9DDAC;" d="M55.174,285.983c0-124.754,57.372-227.135,130.498-237.765C85.166,35.961,0,146.733,0,285.983  c0,125.986,71.375,184.631,185.672,178.261C112.546,459.381,55.174,410.736,55.174,285.983z"/>
<circle style="fill:#FFB92E;" cx="170.67" cy="319.07" r="93.7"/>
<path style="fill:#FFA92C;" d="M123.319,319.069c0-43.75,29.986-80.496,70.526-90.812c-7.413-1.886-15.178-2.891-23.178-2.891  c-51.751,0-93.705,41.954-93.705,93.704c0,61.025,57.534,105.915,116.883,90.814C153.305,399.567,123.319,362.82,123.319,319.069z"/>
<g>
</g>
<g>
</g>
<g>
</g>
<g>
</g>
<g>
</g>
<g>
</g>
<g>
</g>
<g>
</g>
<g>
</g>
<g>
</g>
<g>
</g>
<g>
</g>
<g>
</g>
<g>
</g>
<g>
</g>
</svg>
