<?xml version="1.0" encoding="iso-8859-1"?>
<!-- Generator: Adobe Illustrator 19.0.0, SVG Export Plug-In . SVG Version: 6.00 Build 0)  -->
<svg xmlns="http://www.w3.org/2000/svg" xmlns:xlink="http://www.w3.org/1999/xlink" version="1.1" id="Capa_1" x="0px" y="0px" viewBox="0 0 512.001 512.001" style="enable-background:new 0 0 512.001 512.001;" xml:space="preserve">
<path style="fill:#F34336;" d="M415.879,81.604c0-2.576-0.625-5.117-1.815-7.401l-32.231-61.712  c-2.759-5.278-8.22-8.588-14.173-8.588H144.34c-5.953,0-11.413,3.306-14.173,8.588L97.933,74.203  c-1.191,2.284-1.815,4.825-1.815,7.401l0.004,355.451c0,2.682,0.675,5.316,1.959,7.67l32.231,58.953  c2.803,5.13,8.182,8.322,14.029,8.322h223.325c5.843,0,11.226-3.193,14.029-8.322l32.231-58.953c1.285-2.354,1.959-4.989,1.959-7.67  L415.879,81.604z"/>
<path style="fill:#F46864;" d="M414.064,74.203l-32.231-61.712c-2.759-5.278-8.22-8.588-14.173-8.588H144.34  c-5.953,0-11.413,3.306-14.173,8.588L97.933,74.203c-0.615,1.179-1.064,2.428-1.368,3.712h318.868  C415.128,76.632,414.679,75.382,414.064,74.203z"/>
<path style="fill:#FE5252;" d="M414.064,74.203l-32.231-61.712c-2.759-5.278-8.22-8.588-14.173-8.588h-50.962  c5.953,0,11.413,3.31,14.173,8.588l32.231,61.712c0.615,1.179,1.064,2.428,1.368,3.712h50.962  C415.128,76.632,414.679,75.382,414.064,74.203z"/>
<path style="fill:#F34336;" d="M415.883,437.055l-0.004-355.451c0-1.245-0.16-2.483-0.447-3.689H96.564  c-0.286,1.206-0.447,2.444-0.447,3.689l0.004,355.451c0,1.811,0.416,3.564,1.011,5.262h317.74  C415.468,440.618,415.883,438.866,415.883,437.055z"/>
<path style="fill:#D22F2F;" d="M415.879,81.604c0-1.245-0.16-2.483-0.447-3.689H364.47c0.287,1.206,0.447,2.444,0.447,3.689  l0.004,355.451c0,1.811-0.416,3.564-1.011,5.262h50.962c0.595-1.698,1.011-3.451,1.011-5.262L415.879,81.604z"/>
<path style="fill:#F46864;" d="M97.133,442.316c0.287,0.815,0.531,1.643,0.949,2.408l32.231,58.953  c2.803,5.129,8.182,8.322,14.029,8.322h223.325c5.843,0,11.226-3.193,14.029-8.322l32.231-58.953  c0.417-0.765,0.662-1.593,0.949-2.408H97.133z"/>
<path style="fill:#FE5252;" d="M363.91,442.316c-0.287,0.815-0.531,1.643-0.949,2.408l-32.231,58.953  c-2.803,5.129-8.186,8.322-14.029,8.322h50.962c5.843,0,11.226-3.193,14.029-8.322l32.231-58.953  c0.417-0.765,0.662-1.593,0.949-2.408H363.91z"/>
<path style="fill:#B61C1C;" d="M395.863,31.977H116.134c-8.83,0-15.988-7.158-15.988-15.988S107.304,0,116.134,0h279.728  c8.83,0,15.988,7.158,15.988,15.988S404.692,31.977,395.863,31.977z"/>
<path style="fill:#A31919;" d="M395.863,0H344.9c8.83,0,15.988,7.159,15.988,15.988s-7.159,15.988-15.988,15.988h50.962  c8.83,0,15.988-7.159,15.988-15.988S404.692,0,395.863,0z"/>
<polygon style="fill:#EE9999;" points="96.122,401.694 415.881,207.094 415.879,101.839 96.119,296.439 "/>
<polygon style="fill:#E47373;" points="364.919,238.111 415.881,207.094 415.879,101.839 364.917,132.855 "/>
<g>
</g>
<g>
</g>
<g>
</g>
<g>
</g>
<g>
</g>
<g>
</g>
<g>
</g>
<g>
</g>
<g>
</g>
<g>
</g>
<g>
</g>
<g>
</g>
<g>
</g>
<g>
</g>
<g>
</g>
</svg>
