<svg enable-background="new 0 0 64 64" height="512" viewBox="0 0 64 64" width="512" xmlns="http://www.w3.org/2000/svg"><g id="_x31_7-Pear"><g><path d="m30.7390671 7.572113c-1.6992188-1.699707-3.9555664-2.6357422-6.3530273-2.6357422-.9111328 0-1.8139648.137207-2.6835938.4077148-.3144531.0981445-.5605469.34375-.6582031.6582031-.9960938 3.2036133-.1425781 6.6665039 2.2280273 9.0366211 1.6992188 1.699707 3.9550781 2.6357422 6.3525391 2.6357422.9111328 0 1.8144531-.137207 2.684082-.4077148.3144531-.0981445.5600586-.34375.6582031-.6582031.9960938-3.203125.1425781-6.6655273-2.2280273-9.0366211z" fill="#049c1f"/><path d="m21.3594894 5.5513c-.1416626.1209106-.2584229.2679443-.3152466.4509888-.9960938 3.2036133-.1425781 6.6665039 2.2280273 9.0366211 1.6992188 1.699707 3.9550781 2.6357422 6.3525391 2.6357422.9111328 0 1.8144531-.137207 2.684082-.4077148.1830444-.0571289.3300171-.1737061.4509277-.3153076z" fill="#04811f"/><g><path d="m32.3747711 17.9446716c-.552248 0-1.0000019-.4472656-1.0000019-1v-.6367188c0-4.5927734 2.6777363-8.8427734 6.821291-10.828125.4960938-.2412109 1.0952148-.0292969 1.3339844.46875s.0283203 1.0957031-.4697266 1.3339844c-3.4536133 1.6552734-5.6855469 5.1982422-5.6855469 9.0253906v.6367188c0 .5527344-.4477539 1-1 1z" fill="#9e4c0b"/></g><path d="m46.3903961 39.6809998-.2045898-.4765625c-1.1645508-2.7275391-2.2602539-5.7294922-3.1694336-8.6855469-.2817383-.9033203-.5161133-1.8916016-.7651367-2.9384766-.7163086-3.015625-1.5288086-6.4345703-3.8076172-8.6533203-1.7216797-1.6738281-3.9995117-2.6347656-6.4736347-2.7070313-2.4145508.0722656-4.6923828 1.0332031-6.4145508 2.7070313-2.2783203 2.21875-3.0908203 5.6386719-3.8076172 8.6552734-.2480469 1.0458984-.4829102 2.0332031-.7651367 2.9404297-.9101563 2.9560547-2.0058594 5.9580078-3.168457 8.6816406l-.2036133.4755859c-1.6479492 3.8447266-3.3520508 7.8193359-1.4848633 12.2294922 1.5981445 3.7519531 5.059082 6.4453125 9.0336914 7.0273438 2.1611328.3164063 4.3227539.0380859 6.3071289-.8076172.1650391-.0712891.340332-.1191406.5332031-.1464844.192873.0273438.3686543.0761719.5375996.1484375 1.4521484.6181641 2.9907227.9316406 4.5722656.9316406h.0004883c.5727539 0 1.1547852-.0419922 1.7319336-.1259766 3.9731445-.5820313 7.434082-3.2753906 9.0327148-7.0292969 1.866211-4.4072264.1625977-8.3818358-1.484375-12.2265623z" fill="#ffd506"/><g><path d="m22.1257458 51.9095154c-1.8671875-4.4101563-.1630859-8.3847656 1.4848633-12.2294922l.2036133-.4755859c1.1625977-2.7236328 2.2583008-5.7255859 3.168457-8.6816406.2822266-.9072266.5170898-1.8945313.7651367-2.9404297.7167969-3.0166016 1.5292969-6.4365234 3.8076172-8.6552734.9883442-.9606323 2.163332-1.6772461 3.4384785-2.1350098-.9551392-.3399048-1.9696655-.5411987-3.0239277-.5720215-2.4145508.0722656-4.6923828 1.0332031-6.4145508 2.7070313-2.2783203 2.21875-3.0908203 5.6386719-3.8076172 8.6552734-.2480469 1.0458984-.4829102 2.0332031-.7651367 2.9404297-.9101563 2.9560547-2.0058594 5.9580078-3.168457 8.6816406l-.2036133.4755859c-1.6479492 3.8447266-3.3520508 7.8193359-1.4848633 12.2294922 1.5981445 3.7519531 5.059082 6.4453125 9.0336914 7.0273438 1.6048584.2349854 3.2092896.138855 4.7418823-.270874-3.4351807-.9135133-6.3491211-3.4075929-7.7755737-6.7564698z" fill="#ffbf06"/></g></g></g></svg>