<svg id="Layer_1" enable-background="new 0 0 512 512" height="512" viewBox="0 0 512 512" width="512" xmlns="http://www.w3.org/2000/svg"><g><path d="m159.6 144.628c-61.426 0-111.4 49.974-111.4 111.4 0 8.284 6.716 15 15 15h192.8c8.284 0 15-6.716 15-15 0-61.426-49.974-111.4-111.4-111.4z" fill="#00b464"/><path d="m144.6 191.761c0 43.778 35.489 79.267 79.267 79.267h64.267c8.284 0 15-6.716 15-15v-64.267c0-43.778-35.489-79.267-79.267-79.267h-64.267c-8.284 0-15 6.716-15 15z" fill="#82fa73"/><path d="m223.867 112.495h-64.267c-4.142 0-7.892 1.679-10.607 4.393l149.747 149.747c2.714-2.714 4.393-6.465 4.393-10.607v-64.267c.001-43.777-35.488-79.266-79.266-79.266z" fill="#41d76c"/><path d="m213.261 181.155c-5.858 5.857-5.858 15.355 0 21.213l64.266 64.267c5.858 5.858 15.355 5.858 21.213 0 5.858-5.857 5.858-15.355 0-21.213l-64.266-64.267c-5.858-5.858-15.355-5.858-21.213 0z" fill="#41d76c"/><path d="m298.74 245.422-64.266-64.267c-5.858-5.858-15.355-5.858-21.213 0l85.479 85.479c5.858-5.857 5.858-15.355 0-21.212z" fill="#00b464"/><path d="m464.867 64.295h-88.367c-57.088 0-103.366 46.279-103.366 103.366v88.366c0 8.284 6.716 15 15 15h88.366c57.088 0 103.366-46.279 103.366-103.366v-88.366c.001-8.284-6.715-15-14.999-15z" fill="#82fa73"/><path d="m288.133 271.028h88.367c57.088 0 103.366-46.279 103.366-103.366v-88.366c0-4.142-1.679-7.892-4.394-10.607l-197.945 197.945c2.714 2.715 6.464 4.394 10.606 4.394z" fill="#41d76c"/><path d="m395.14 149.021c-5.857-5.858-15.355-5.858-21.213 0l-96.4 96.4c-5.858 5.857-5.858 15.355 0 21.213 5.857 5.858 15.355 5.858 21.213 0l96.4-96.4c5.858-5.857 5.858-15.355 0-21.213z" fill="#41d76c"/><path d="m298.74 266.634 96.4-96.4c5.858-5.857 5.858-15.355 0-21.213l-117.613 117.613c5.857 5.858 15.356 5.858 21.213 0z" fill="#00b464"/><path d="m384.533 447.705h-257.066c-8.284 0-15-6.716-15-15v-64.211c0-8.284 6.716-15 15-15h257.066c8.284 0 15 6.716 15 15v64.211c0 8.284-6.716 15-15 15z" fill="#fae3cd"/><path d="m384.533 353.494h-127.451v94.211h127.451c8.284 0 15-6.716 15-15v-64.211c0-8.285-6.716-15-15-15z" fill="#f6d3ae"/><path d="m497 241.036h-482c-8.284 0-15 6.716-15 15 0 70.221 56.925 127.146 127.145 127.146h257.709c70.221 0 127.146-56.925 127.146-127.146 0-8.284-6.716-15-15-15z" fill="#fff4eb"/><path d="m497 241.036h-239.918v142.146h127.772c70.221 0 127.146-56.925 127.146-127.146 0-8.284-6.716-15-15-15z" fill="#fae3cd"/></g></svg>