<svg id="Layer_1" enable-background="new 0 0 512.013 512.013" height="512" viewBox="0 0 512.013 512.013" width="512" xmlns="http://www.w3.org/2000/svg"><g><path d="m357.887 89.143c-3 3.31-7.24 5.21-11.7 5.26-7 .07-10.95 1.05-12.69 1.63-11.53 3.82-32.94 23.46-43.26 43.05-.67 1.27-.21 2.5.38 3.17 5.43 6.09 5.4 15.29-.06 21.35-3.14 3.49-7.5 5.29-11.9 5.29-3.24 0-6.51-.98-9.32-3-3.82-2.74-6.99-6.18-9.43-10.22-.8-1.31-1.58-2.68-2.35-4.09-4.25-7.76-8.11-16.97-11.13-26.63-5.61-17.96-8.29-37.47-5.02-52.1 5.36-23.91 30.67-52.86 52.05-67.04 7.98-5.29 17.51-7.04 26.83-4.96 9.33 2.09 17.2 7.74 22.17 15.92 5.68 9.38 10.59 21.01 14.12 32.95 1.31 4.43 2.42 8.91 3.32 13.34.95 4.74 1.66 9.42 2.06 13.91.4 4.45-1.08 8.86-4.07 12.17z" fill="#98d7ce"/><path d="m357.887 89.143c-3 3.31-7.24 5.21-11.7 5.26-7 .07-10.95 1.05-12.69 1.63-11.53 3.82-32.94 23.46-43.26 43.05-.67 1.27-.21 2.5.38 3.17 5.43 6.09 5.4 15.29-.06 21.35-3.14 3.49-7.5 5.29-11.9 5.29-3.24 0-6.51-.98-9.32-3-3.82-2.74-6.99-6.18-9.43-10.22-.8-1.31-1.58-2.68-2.35-4.09-4.25-7.76-8.11-16.97-11.13-26.63.14-5.19 1.44-10.39 3.96-15.16 11.96-22.7 38.23-50.8 61.49-58.51 6.24-2.07 13.78-3.17 22.44-3.26 7.06-.07 14.63.53 22.26 1.7 1.31 4.43 2.42 8.91 3.32 13.34.95 4.74 1.66 9.42 2.06 13.91.4 4.45-1.08 8.86-4.07 12.17z" fill="#84c3ba"/><path d="m388.551 326.082c-43.698-55.196-77.528-116.851-100.603-183.3-.282-3.675-1.817-7.271-4.628-10.082-6.248-6.249-16.379-6.249-22.627 0l-7.006 7.006c-55.083 55.083-99.563 118.874-132.208 189.603-3.703 8.023-.201 17.529 7.822 21.232 2.171 1.002 4.451 1.477 6.695 1.477 6.048 0 11.837-3.447 14.538-9.299 28.83-62.465 67.37-119.237 114.668-168.979 23.866 62.066 56.846 119.896 98.26 172.206 3.158 3.989 7.833 6.069 12.555 6.069 3.478 0 6.982-1.129 9.921-3.456 6.928-5.486 8.098-15.549 2.613-22.477z" fill="#b59f89"/><path d="m232.007 416.013c0 52.93-43.07 96-96 96s-96-43.07-96-96c0-20.59 6.42-40.22 18.57-56.75 18.02-24.57 46.97-39.25 77.43-39.25s59.41 14.68 77.44 39.26c12.14 16.52 18.56 36.15 18.56 56.74z" fill="#f79caf"/><path d="m472.007 416.013c0 52.93-43.07 96-96 96s-96-43.07-96-96c0-20.59 6.42-40.22 18.57-56.75 18.02-24.57 46.97-39.25 77.43-39.25s59.41 14.68 77.44 39.26c12.14 16.52 18.56 36.15 18.56 56.74z" fill="#f79caf"/><path d="m232.007 416.013c0 52.93-43.07 96-96 96-38.45 0-71.7-22.73-87-55.46 17.57 19.32 42.9 31.46 71 31.46 52.93 0 96-43.07 96-96 0-14.19-3.05-27.92-8.92-40.5 2.25 2.46 4.37 5.05 6.36 7.76 12.14 16.52 18.56 36.15 18.56 56.74z" fill="#e3889b"/><path d="m472.007 416.013c0 52.93-43.07 96-96 96-38.45 0-71.7-22.73-87-55.46 17.57 19.32 42.9 31.46 71 31.46 52.93 0 96-43.07 96-96 0-14.19-3.05-27.92-8.92-40.5 2.25 2.46 4.37 5.05 6.36 7.76 12.14 16.52 18.56 36.15 18.56 56.74z" fill="#e3889b"/><circle cx="102.007" cy="374.013" fill="#edced6" r="22"/><circle cx="342.007" cy="374.013" fill="#edced6" r="22"/><path d="m423.507 123.433c-5.98 11.34-15.54 24.04-26.51 34.86-10.97 10.83-23.35 19.78-34.99 23.64-6.91 2.29-15.11 3.3-23.83 3.3-20.63 0-44.17-5.66-60.44-13.43-4.23-2.02-7.93-4.8-11.02-8.27-9.59-10.77-11.52-26.59-4.79-39.36 11.96-22.7 38.23-50.8 61.49-58.51 6.24-2.07 13.78-3.17 22.44-3.26 20.05-.2 44.32 5.03 61.83 13.38 8.63 4.11 15.04 11.38 18.06 20.45 3.01 9.07 2.22 18.73-2.24 27.2z" fill="#acebe2"/><path d="m423.507 123.433c-5.98 11.34-15.54 24.04-26.51 34.86-10.97 10.83-23.35 19.78-34.99 23.64-6.91 2.29-15.11 3.3-23.83 3.3-20.63 0-44.17-5.66-60.44-13.43-2.76-1.32-5.29-2.96-7.57-4.9 15.05 5.46 33.5 9.11 50.07 9.11 8.72 0 16.92-1.01 23.83-3.3 11.64-3.86 24.02-12.81 34.99-23.64 10.97-10.82 20.53-23.52 26.51-34.86 4.46-8.47 5.25-18.13 2.24-27.2-2.04-6.14-5.64-11.45-10.43-15.52 3.62 1.32 7.08 2.75 10.31 4.29 8.63 4.11 15.04 11.38 18.06 20.45 3.01 9.07 2.22 18.73-2.24 27.2z" fill="#98d7ce"/></g></svg>