<svg id="Layer_1" enable-background="new 0 0 498.393 498.393" height="512" viewBox="0 0 498.393 498.393" width="512" xmlns="http://www.w3.org/2000/svg"><g><path d="m11.515 486.182c-15.97-15.97-15.232-42.08 1.613-57.123 0 0 193.671-171.628 253.8-226.646 13.806-12.633 17.732-28.731 17.495-46.172-.473-34.893 13.228-74.999 46.667-108.438 48.817-48.817 114.986-61.796 147.793-28.99 34.574 33.003 22.15 99.234-28.99 147.793-34.293 32.562-73.545 47.14-108.438 46.667-17.441-.236-33.539 3.689-46.172 17.495-55.018 60.129-226.646 253.8-226.646 253.8-15.042 16.846-41.152 17.583-57.122 1.614z" fill="#dbe4ee"/><path d="m478.884 18.813c-.955-.955-1.941-1.867-2.952-2.745 18.903 35.512 3.617 90.611-40.54 132.539-34.293 32.562-73.545 47.14-108.438 46.667-17.441-.236-33.539 3.689-46.172 17.495-55.018 60.129-226.646 253.8-226.646 253.8-13.343 14.942-35.388 17.199-51.345 6.376 1.916 4.811 4.816 9.328 8.724 13.236 15.97 15.97 42.08 15.232 57.123-1.613 0 0 171.628-193.671 226.646-253.8 12.633-13.806 28.731-17.732 46.172-17.495 34.893.473 74.144-14.105 108.438-46.667 51.14-48.559 63.564-114.79 28.99-147.793z" fill="#ccdbeb"/><path d="m443.784 116.865c-5.339 8.329-11.943 16.634-19.833 24.525-36.158 36.158-81.032 45.32-96.998 29.354s-6.804-60.84 29.354-96.998 81.032-45.319 96.998-29.354c19.628 19.629 2.528 54.138-9.521 72.473z" fill="#b8c7d7"/></g></svg>