<?xml version="1.0" encoding="iso-8859-1"?>
<!-- Generator: Adobe Illustrator 19.0.0, SVG Export Plug-In . SVG Version: 6.00 Build 0)  -->
<svg version="1.1" id="Capa_1" xmlns="http://www.w3.org/2000/svg" xmlns:xlink="http://www.w3.org/1999/xlink" x="0px" y="0px"
	 viewBox="0 0 512 512" style="enable-background:new 0 0 512 512;" xml:space="preserve">
<path style="fill:#FFDB0C;" d="M193.818,385.716c59.372,0,109.426-39.889,124.829-94.33h4.18c19.543,0,35.386-15.843,35.386-35.386
	l0,0c0-19.543-15.843-35.386-35.386-35.386h-4.18c-15.402-54.441-65.456-94.33-124.829-94.33h-29.425
	c-59.372,0-109.426,39.889-124.829,94.33h-4.18C15.843,220.614,0,236.457,0,256l0,0c0,19.543,15.843,35.386,35.386,35.386h4.18
	c15.402,54.441,65.456,94.33,124.829,94.33H193.818z"/>
<path style="fill:#FBBF00;" d="M322.827,220.614h-4.18c-15.402-54.44-65.456-94.33-124.829-94.33h-14.712v259.431h14.712
	c59.372,0,109.426-39.889,124.829-94.33h4.18c19.543,0,35.386-15.843,35.386-35.385l0,0
	C358.212,236.457,342.37,220.614,322.827,220.614z"/>
<path style="fill:#FFDB0C;" d="M178.412,218.921c0,92.118,74.676,166.794,166.794,166.794S512,311.039,512,218.921H178.412
	L178.412,218.921z"/>
<path style="fill:#FBBF00;" d="M345.206,218.921c0,92.118,0,95.079,0,166.794c92.118,0,166.794-74.676,166.794-166.794H345.206
	L345.206,218.921z"/>
<path style="fill:#FDE888;" d="M224.647,218.921c0,66.583,53.976,120.558,120.558,120.558s120.559-53.976,120.559-120.558H224.647z"
	/>
<path style="fill:#FAD72D;" d="M345.206,218.921V339.48c33.291,0,63.431-13.494,85.248-35.311L345.206,218.921z"/>
<path style="fill:#F9CF00;" d="M465.764,218.921H345.206l85.248,85.248C452.27,282.352,465.764,252.213,465.764,218.921z"/>
<path style="fill:#FCE05B;" d="M345.206,218.921l-85.248,85.248c21.817,21.817,51.956,35.311,85.248,35.311l0,0V218.921
	L345.206,218.921z"/>
<g>
</g>
<g>
</g>
<g>
</g>
<g>
</g>
<g>
</g>
<g>
</g>
<g>
</g>
<g>
</g>
<g>
</g>
<g>
</g>
<g>
</g>
<g>
</g>
<g>
</g>
<g>
</g>
<g>
</g>
</svg>
