<?xml version="1.0" encoding="iso-8859-1"?>
<!-- Generator: Adobe Illustrator 19.0.0, SVG Export Plug-In . SVG Version: 6.00 Build 0)  -->
<svg version="1.1" id="Capa_1" xmlns="http://www.w3.org/2000/svg" xmlns:xlink="http://www.w3.org/1999/xlink" x="0px" y="0px"
	 viewBox="0 0 512 512" style="enable-background:new 0 0 512 512;" xml:space="preserve">
<path style="fill:#FF475A;" d="M511.913,221.035c-0.58,15.81-2.65,30.819-6.06,45.019
	c-34.299,143.206-204.204,204.494-350.66,176.465C69.516,426.079-9.752,368.201,0.978,320.353c0.07-0.38,0.16-0.75,0.26-1.13
	c7.98-31.399,48.939-27.119,81.508-25.209c119.646,6.99,144.286-11.44,203.404-92.827c13.04-17.949,25.669-35.349,39.779-49.339
	c0.33-0.33,0.66-0.65,0.99-0.96c11.06-10.81,23.029-19.509,36.819-24.719c37.529-14.19,81.978-9.06,111.587,12.14
	c1.39,0.99,2.74,2.02,4.04,3.08C503.223,160.657,513.043,190.036,511.913,221.035z"/>
<path style="fill:#E5104D;" d="M511.913,221.035c-0.58,15.81-2.65,30.819-6.06,45.019
	c-34.299,143.206-204.204,204.494-350.66,176.465C69.516,426.079-9.752,368.201,0.978,320.353
	c317.951,169.425,474.346-182.045,474.346-182.045c1.39,0.99,2.74,2.02,4.04,3.08C503.223,160.657,513.043,190.036,511.913,221.035z
	"/>
<path style="fill:#0F9887;" d="M474.644,157.035l-18.919-23.28c21.636-17.583,26.299-57.095,26.27-70.836l29.999-0.064
	C512,65.457,511.703,126.919,474.644,157.035z"/>
<path style="fill:#11A892;" d="M511.913,221.035c-0.58,15.81-2.65,30.819-6.06,45.019c-20.589-5.3-53.288,3.09-63.898,6.76
	l-19.589,6.76c-0.88-10.61,0.38-25.259-4.07-48.629c-0.09-0.46-0.18-0.92-0.27-1.39c-1.07-5.45-2.45-11.36-4.24-17.799
	c-26.779-2.4-62.008,5.64-67.238,6.5c-2.11-8.48,1.36-24.339-19.629-67.368c11.06-10.81,23.029-19.509,36.819-24.719
	c37.529-14.19,81.978-9.06,111.587,12.14c1.39,0.99,2.74,2.02,4.04,3.08C503.223,160.657,513.043,190.036,511.913,221.035z"/>
<path style="fill:#0F9887;" d="M511.913,221.035c-0.58,15.81-2.65,30.819-6.06,45.019c-20.589-5.3-53.288,3.09-63.898,6.76
	l-19.589,6.76c-0.88-10.61,0.38-25.259-4.07-48.629c-0.09-0.46-0.18-0.92-0.27-1.39c38.279-48.489,57.298-91.247,57.298-91.247
	c1.39,0.99,2.74,2.02,4.04,3.08C503.223,160.657,513.043,190.036,511.913,221.035z"/>
<g>
</g>
<g>
</g>
<g>
</g>
<g>
</g>
<g>
</g>
<g>
</g>
<g>
</g>
<g>
</g>
<g>
</g>
<g>
</g>
<g>
</g>
<g>
</g>
<g>
</g>
<g>
</g>
<g>
</g>
</svg>
