<svg id="Capa_1" enable-background="new 0 0 512 512" height="512" viewBox="0 0 512 512" width="512" xmlns="http://www.w3.org/2000/svg"><g clip-rule="evenodd" fill-rule="evenodd"><path d="m256.011 512c-77.215-2.24-156.529-49.892-203.13-130.654-39.118-67.722-50.684-154.211-18.766-226.667 7.342-16.612 5.329-15.478 23.358-13.465 71.887 7.966 143.603 54.455 186.944 129.52 4.225 7.342 8.079 14.797 11.594 22.281 3.488-7.484 7.341-14.939 11.593-22.281 43.371-75.121 114.975-121.611 186.918-129.52 18.057-1.984 16.043-3.175 23.328 13.465 29.055 66.248 24.633 151.574-18.709 226.667-46.629 80.762-125.943 128.414-203.13 130.654z" fill="#78c2a4"/><path d="m256.011 486.997c-77.215-2.239-156.529-49.892-203.13-130.653-21.543-37.306-34.753-80.309-36.907-123.511-2.608 51.394 11.196 104.007 36.906 148.513 46.602 80.762 125.915 128.414 203.131 130.654 77.187-2.24 156.501-49.892 203.13-130.654 27.496-47.652 39.346-99.415 36.879-147.833-2.041 40.934-14.059 83.285-36.879 122.83-46.629 80.763-125.943 128.415-203.13 130.654z" fill="#66b394"/><path d="m256.011 512c-2.976-.085-5.952-.227-8.929-.454l-22.706-39.346-49.181-13.182c-3.997-1.049-6.378-5.159-5.329-9.185 1.077-3.997 5.188-6.378 9.213-5.301l34.696 9.298-25.171-43.599-69.052-18.482c-3.997-1.077-6.378-5.188-5.301-9.213 1.077-3.997 5.188-6.378 9.184-5.301l54.539 14.6-25.143-43.571-69.052-18.511c-3.997-1.077-6.378-5.188-5.301-9.185 1.049-3.997 5.188-6.378 9.184-5.329l54.539 14.628-22.28-38.581c-1.899-3.289-4.422-5.415-8.447-6.492l-43.625-11.708c-3.997-1.049-6.378-5.159-5.301-9.184 1.049-3.997 5.188-6.378 9.184-5.301l29.112 7.796c2.778.737 4.337-.681 2.693-3.487l-33.704-58.424c-2.069-3.572-.85-8.165 2.749-10.206 3.572-2.069 8.164-.822 10.205 2.75l33.704 58.396c1.757 2.976 3.486 2.749 4.394-.595l7.795-29.113c1.077-3.998 5.188-6.378 9.185-5.301 4.025 1.049 6.406 5.159 5.329 9.185l-13.181 49.183 25.143 43.598 14.627-54.54c1.077-3.997 5.188-6.378 9.184-5.301 3.997 1.049 6.378 5.188 5.329 9.185l-18.511 69.055 25.172 43.57 14.599-54.54c1.077-3.997 5.188-6.379 9.184-5.301 4.025 1.077 6.406 5.188 5.329 9.185l-18.51 69.054 25.172 43.599 9.298-34.698c1.077-3.997 5.187-6.378 9.184-5.301 3.997 1.049 6.378 5.159 5.329 9.185l-13.181 49.183 18.651 32.316 18.652-32.316-13.18-49.183c-1.078-4.025 1.303-8.136 5.301-9.213 3.996-1.049 8.135 1.332 9.184 5.329l9.297 34.698 25.172-43.599-18.51-69.054c-1.049-3.997 1.332-8.108 5.328-9.185 3.998-1.077 8.107 1.304 9.186 5.301l14.627 54.54 25.143-43.57-18.482-69.055c-1.076-3.997 1.305-8.136 5.301-9.185 3.998-1.077 8.137 1.305 9.186 5.301l14.627 54.54 25.17-43.598-13.209-49.183c-1.049-4.025 1.332-8.136 5.33-9.185 3.996-1.077 8.107 1.304 9.184 5.301l7.795 29.113c.852 3.146 2.75 3.43 4.395.595l33.703-58.396c2.07-3.572 6.633-4.819 10.205-2.75 3.6 2.041 4.818 6.634 2.777 10.206l-33.733 58.424c-1.699 2.92-.594 4.365 2.693 3.487l29.111-7.796c4.025-1.077 8.137 1.304 9.213 5.301 1.049 4.025-1.332 8.135-5.328 9.184l-43.625 11.708c-3.629.964-6.436 2.977-8.447 6.492l-22.281 38.581 54.539-14.628c4.025-1.049 8.135 1.332 9.213 5.329 1.049 3.997-1.332 8.107-5.33 9.185l-69.023 18.511-25.172 43.571 54.539-14.6c3.996-1.077 8.135 1.304 9.184 5.301 1.078 4.025-1.303 8.136-5.301 9.213l-69.051 18.482-25.145 43.599 34.697-9.298c3.996-1.077 8.107 1.304 9.184 5.301 1.078 4.026-1.303 8.136-5.328 9.185l-49.185 13.182-22.705 39.347c-2.977.226-5.954.368-8.902.453z" fill="#5aa687"/><path d="m256.011 512c-78.576-48.446-132.15-145.168-132.15-256.602 0-103.808 46.544-194.889 116.419-246 17.122-12.53 14.343-12.53 31.463 0 69.846 51.139 116.391 142.191 116.391 246-.001 111.434-53.575 208.156-132.123 256.602z" fill="#b3e59f"/><path d="m388.133 255.398c0-103.808-46.545-194.861-116.391-246-15.959-11.679-14.627-12.473-28.232-2.381.992.737 2.069 1.531 3.231 2.381 69.846 51.139 116.419 142.191 116.419 246 0 105.424-47.963 197.695-119.65 248.353 4.082 2.891 8.248 5.641 12.5 8.249 78.549-48.446 132.123-145.168 132.123-256.602z" fill="#95d6a4"/><path d="m256.011 512c-2.551-1.56-5.045-3.175-7.54-4.819v-50.374c0-3.799-1.077-6.605-3.883-9.411l-39.544-39.517c-2.92-2.948-2.92-7.711 0-10.63 2.948-2.948 7.71-2.948 10.63 0l28.914 28.886c2.126 2.126 3.883 1.531 3.883-1.616v-53.236c0-3.628-1.077-6.577-3.883-9.383l-56.892-56.922c-2.948-2.919-2.948-7.682 0-10.63 2.92-2.919 7.682-2.919 10.63 0l46.262 46.264c2.324 2.324 3.883 1.842 3.883-1.587v-58.765l-60.774-60.777c-2.948-2.948-2.948-7.71 0-10.63 2.92-2.948 7.682-2.948 10.63 0l46.262 46.263c2.211 2.211 3.883 1.248 3.883-1.616v-53.236c0-3.431-1.02-6.549-3.883-9.412l-39.544-39.545c-2.92-2.919-2.92-7.682 0-10.63 2.948-2.919 7.71-2.919 10.63 0l28.914 28.915c2.013 2.013 3.883 1.247 3.883-1.616v-85.44c0-4.139 3.374-7.512 7.54-7.512 4.138 0 7.513 3.373 7.513 7.512v85.44c0 2.863 1.869 3.628 3.883 1.616l28.912-28.915c2.949-2.919 7.684-2.919 10.631 0 2.947 2.948 2.947 7.711 0 10.63l-39.543 39.545c-2.863 2.863-3.883 5.981-3.883 9.412v53.236c0 2.863 1.672 3.827 3.883 1.616l46.289-46.263c2.92-2.948 7.682-2.948 10.631 0 2.92 2.92 2.92 7.682 0 10.63l-60.803 60.777v58.765c0 3.43 1.559 3.912 3.883 1.587l46.289-46.264c2.92-2.919 7.682-2.919 10.631 0 2.92 2.948 2.92 7.711 0 10.63l-56.92 56.922c-2.807 2.807-3.883 5.755-3.883 9.383v53.236c0 3.146 1.756 3.742 3.883 1.616l28.912-28.886c2.949-2.948 7.684-2.948 10.631 0 2.947 2.919 2.947 7.682 0 10.63l-39.543 39.517c-2.777 2.806-3.883 5.612-3.883 9.411v50.374c-2.497 1.644-4.991 3.259-7.514 4.819z" fill="#66b394"/></g></svg>