<svg id="Layer_1" enable-background="new 0 0 512 512" height="512" viewBox="0 0 512 512" width="512" xmlns="http://www.w3.org/2000/svg"><g><path d="m382.197 350.777h-252.394c-71.688 0-129.803-58.115-129.803-129.803v-99.018c0-2.209 1.791-4 4-4h504c2.209 0 4 1.791 4 4v99.018c0 71.688-58.115 129.803-129.803 129.803z" fill="#e19974"/><path d="m481.095 117.956v103.018c0 71.688-58.115 129.803-129.803 129.803h30.905c71.688 0 129.803-58.115 129.803-129.803v-99.018c0-2.209-1.791-4-4-4z" fill="#dc8758"/><path d="m367.153 394.044h-222.306c-5.748 0-10.409-4.66-10.409-10.409v-32.859h243.123v32.859c0 5.749-4.66 10.409-10.408 10.409z" fill="#dc8758"/><g fill="#d77f4a"><path d="m346.656 350.777v43.268h20.497c5.748 0 10.409-4.66 10.409-10.409v-32.859z"/><g><path d="m247.73 196.89c0 12.02-4.68 23.31-13.18 31.8-8.48 8.49-19.78 13.18-31.8 13.18h-114.03c-4.14 0-7.5-3.36-7.5-7.5 0-4.15 3.36-7.5 7.5-7.5h114.03c8.01 0 15.54-3.12 21.19-8.79 5.67-5.66 8.79-13.18 8.79-21.19 0-16.54-13.45-29.99-29.98-29.99h-202.75v-15h202.75c24.8 0 44.98 20.18 44.98 44.99z"/><path d="m189.41 196.89c0 4.14-3.36 7.5-7.5 7.5h-181.91v-15h181.91c4.14 0 7.5 3.36 7.5 7.5z"/><path d="m495.48 284.4c-2.94 5.24-6.23 10.25-9.85 15h-127c-27.21 0-49.35-22.13-49.35-49.34 0-13.19 5.14-25.59 14.46-34.9 9.3-9.31 21.69-14.44 34.89-14.44h54.04c4.14 0 7.5 3.36 7.5 7.5s-3.36 7.5-7.5 7.5h-54.04c-9.19 0-17.81 3.57-24.28 10.05-6.5 6.48-10.07 15.11-10.07 24.29 0 18.93 15.41 34.34 34.35 34.34z"/><path d="m510.21 242.56c-.85 5.11-2 10.11-3.44 15h-134.68c-4.14 0-7.5-3.36-7.5-7.5 0-4.15 3.36-7.5 7.5-7.5z"/></g></g></g></svg>