<svg id="Flat" height="512" viewBox="0 0 512 512" width="512" xmlns="http://www.w3.org/2000/svg"><path d="m24 376h464a0 0 0 0 1 0 0v27.05a36.95 36.95 0 0 1 -36.95 36.95h-390.1a36.95 36.95 0 0 1 -36.95-36.95v-27.05a0 0 0 0 1 0 0z" fill="#dcdee0"/><path d="m80.634 72h350.732a32.634 32.634 0 0 1 32.634 32.634v271.366a0 0 0 0 1 0 0h-416a0 0 0 0 1 0 0v-271.366a32.634 32.634 0 0 1 32.634-32.634z" fill="#9aa3a8"/><path d="m80 104h352v240h-352z" fill="#e9eef2"/><g fill="#c3c6c7"><path d="m208 376h96a0 0 0 0 1 0 0 32 32 0 0 1 -32 32h-32a32 32 0 0 1 -32-32 0 0 0 0 1 0 0z"/><path d="m152.007 304a8 8 0 0 1 -4.561-14.578l208-144a8 8 0 0 1 9.108 13.156l-208 144a7.967 7.967 0 0 1 -4.547 1.422z"/><path d="m168.007 240a8 8 0 0 1 -4.595-14.554l80-56a8 8 0 1 1 9.176 13.108l-80 56a7.969 7.969 0 0 1 -4.581 1.446z"/><path d="m264.007 280a8 8 0 0 1 -4.6-14.554l80-56a8 8 0 1 1 9.176 13.108l-80 56a7.969 7.969 0 0 1 -4.576 1.446z"/></g></svg>