<svg height="512pt" viewBox="0 0 512 512" width="512pt" xmlns="http://www.w3.org/2000/svg"><path d="m336.332031 0h-224.933593c-3.976563 0-7.792969 1.582031-10.605469 4.394531l-96.398438 96.398438c-2.8125 2.8125-4.394531 6.628906-4.394531 10.605469v353.46875c0 25.988281 21.144531 47.132812 47.132812 47.132812h289.199219c25.914063 0 47.132813-20.953125 47.132813-47.132812v-417.734376c.003906-25.914062-20.949219-47.132812-47.132813-47.132812zm0 0" fill="#eff6fe"/><g fill="#d9e4ef"><path d="m336.332031 0h-144.601562v512h144.601562c25.914063 0 47.132813-20.953125 47.132813-47.132812v-417.734376c.003906-25.914062-20.949219-47.132812-47.132813-47.132812zm0 0"/><path d="m95.332031 112.46875c9.449219 0 17.132813-7.6875 17.132813-17.132812v-95.335938h-1.066406c-3.976563 0-7.792969 1.582031-10.605469 4.394531l-96.398438 96.398438c-2.8125 2.8125-4.394531 6.628906-4.394531 10.605469v1.070312zm0 0"/><path d="m288.132812 192.800781h-192.800781c-8.28125 0-15 6.714844-15 15 0 8.285157 6.71875 15 15 15h192.800781c8.285157 0 15-6.714843 15-15 0-8.285156-6.714843-15-15-15zm0 0"/><path d="m288.132812 257.066406h-192.800781c-8.28125 0-15 6.714844-15 15s6.71875 15 15 15h192.800781c8.285157 0 15-6.714844 15-15s-6.714843-15-15-15zm0 0"/><path d="m288.132812 321.332031h-192.800781c-8.28125 0-15 6.71875-15 15 0 8.285157 6.71875 15 15 15h192.800781c8.285157 0 15-6.714843 15-15 0-8.28125-6.714843-15-15-15zm0 0"/><path d="m176.734375 385.601562h-81.402344c-8.28125 0-15 6.714844-15 15 0 8.28125 6.71875 15 15 15h81.402344c8.28125 0 15-6.71875 15-15 0-8.285156-6.714844-15-15-15zm0 0"/></g><path d="m303.128906 207.800781c0 8.277344-6.707031 15-15 15h-96.398437v-30h96.398437c8.292969 0 15 6.71875 15 15zm0 0" fill="#c1cedb"/><path d="m303.128906 272.070312c0 8.28125-6.707031 15-15 15h-96.398437v-30h96.398437c8.292969 0 15 6.710938 15 15zm0 0" fill="#c1cedb"/><path d="m303.128906 336.328125c0 8.292969-6.707031 15-15 15h-96.398437v-30h96.398437c8.292969 0 15 6.722656 15 15zm0 0" fill="#c1cedb"/><path d="m502.269531 193.75-128.539062-48.191406c-1.691407-.636719-3.480469-.957032-5.261719-.957032-1.777344 0-3.570312.320313-5.257812.957032l-128.539063 48.191406c-5.851563 2.199219-9.730469 7.800781-9.730469 14.050781v80.328125c0 154.359375 140.957032 223.871094 143.527344 223.871094s143.53125-69.511719 143.53125-223.871094v-80.328125c0-6.25-3.878906-11.851562-9.730469-14.050781zm0 0" fill="#00d66a"/><path d="m502.269531 193.75-128.539062-48.191406c-1.691407-.636719-3.480469-.957032-5.261719-.957032v367.398438c2.570312 0 143.53125-69.511719 143.53125-223.871094v-80.328125c0-6.25-3.878906-11.851562-9.730469-14.050781zm0 0" fill="#00b85e"/><path d="m363.210938 209.820312-64.269532 24.101563c-5.851562 2.199219-9.730468 7.789063-9.730468 14.046875v56.230469c0 44.941406 21.460937 87.859375 57.410156 114.832031 13.558594 10.167969 15.558594 12.640625 21.847656 12.640625 6.292969 0 8.292969-2.472656 21.851562-12.640625 35.949219-26.972656 57.410157-69.890625 57.410157-114.832031v-56.230469c0-6.257812-3.878907-11.847656-9.730469-14.046875l-64.269531-24.101563c-1.691407-.640624-3.480469-.949218-5.261719-.949218-1.777344 0-3.570312.308594-5.257812.949218zm0 0" fill="#00b85e"/><path d="m438 233.921875-64.269531-24.101563c-1.691407-.640624-3.480469-.949218-5.261719-.949218v222.800781c6.292969 0 8.292969-2.472656 21.851562-12.640625 35.949219-26.972656 57.410157-69.890625 57.410157-114.832031v-56.230469c0-6.257812-3.878907-11.847656-9.730469-14.046875zm0 0" fill="#00984c"/></svg>