<svg id="Capa_1" enable-background="new 0 0 483.231 483.231" height="512" viewBox="0 0 483.231 483.231" width="512" xmlns="http://www.w3.org/2000/svg"><g><g id="icon_16_"><path d="m142.684 153.722c.033 13.345-10.759 24.189-24.104 24.222s-24.189-10.759-24.222-24.104 10.759-24.189 24.104-24.222h.059c13.322 0 24.131 10.782 24.163 24.104z" fill="#f6c863"/><path d="m256.968 462.952h-19.365v-119.812l135.824-157.629-148.601-134.127 11.775-15.376 163.575 149.503-143.208 163.676z" fill="#dbd8dd"/><path d="m211.866 437.852v11.94h-19.006v-11.94c0-5.25 4.256-9.506 9.506-9.506 5.248.003 9.5 4.258 9.5 9.506z" fill="#dbd8dd"/><circle cx="384.854" cy="185.511" fill="#575b6d" r="29.16"/><circle cx="384.854" cy="185.511" fill="#9a9eaf" r="15.329"/><circle cx="246.042" cy="346.163" fill="#575b6d" r="29.16"/><ellipse cx="246.042" cy="346.163" fill="#9a9eaf" rx="15.329" ry="15.329" transform="matrix(.924 -.383 .383 .924 -113.742 120.506)"/><path d="m181.374 34.564 23.196-24.569c12.075-12.798 32.239-13.384 45.037-1.308.362.341.715.691 1.061 1.049l5.463 5.664c12.2 12.643 11.862 32.775-.754 45.002l-27.905 27.008z" fill="#575b6d"/><path d="m88.224 96.356 46.628-51.749c17.976-19.952 48.723-21.554 68.674-3.577.218.197.434.395.649.595l21.151 19.76c19.005 17.755 20.674 47.32 3.789 67.102l-48.667 57.018z" fill="#dbd8dd"/><g fill="#575b6d"><path d="m72.477 92.926c-4.886 6.076-4.208 14.904 1.55 20.161l92.296 84.275c5.129 4.682 12.977 4.7 18.128.041 5.512-5.002 5.926-13.526.923-19.039-.221-.243-.45-.478-.688-.704l-90.516-86.178c-5.908-5.624-15.256-5.394-20.88.514-.284.299-.555.609-.813.93z"/><path d="m323.404 460.418v22.813h-153.557v-22.813c0-9.803 7.947-17.751 17.751-17.751h118.056c9.803 0 17.75 7.947 17.75 17.751z"/></g></g></g></svg>