<svg enable-background="new 0 0 24 24" height="512" viewBox="0 0 24 24" width="512" xmlns="http://www.w3.org/2000/svg"><path d="m18.99 2.58-8.99 5.14c-.31.17-.69.17-1 0l-8.99-5.14c.08-1.44 1.28-2.58 2.74-2.58h13.5c1.46 0 2.66 1.14 2.74 2.58z" fill="#2196f3"/><path d="m21.5 7h-1v4.25c0 2.344-1.906 4.25-4.25 4.25h-11.25v2.75c0 1.517 1.233 2.75 2.75 2.75h1.25v2.25c0 .31.189.587.479.699.087.034.179.051.271.051.206 0 .408-.085.553-.243l2.527-2.757h8.67c1.517 0 2.75-1.233 2.75-2.75v-8.5c0-1.517-1.233-2.75-2.75-2.75z" fill="#2196f3"/><path d="m19 2.75v8.5c0 1.52-1.23 2.75-2.75 2.75h-13.5c-1.52 0-2.75-1.23-2.75-2.75v-8.5c0-.06 0-.11.01-.17l8.99 5.14c.31.17.69.17 1 0l8.99-5.14c.01.06.01.11.01.17z" fill="#64b5f6"/></svg>