<svg height="512" viewBox="0 0 128 128" width="512" xmlns="http://www.w3.org/2000/svg"><g><path d="m86.457 16.84c-8.421 0-16.2 3.5-22.457 9.41 6.614 6.243 11.521 15.169 13.721 25.488a58.966 58.966 0 0 1 1.279 12.262 54.808 54.808 0 0 1 -8.747 30.3 42.557 42.557 0 0 1 -6.253 7.45c6.254 5.907 14.036 9.41 22.457 9.41 20.683 0 37.443-21.11 37.443-47.16s-16.76-47.16-37.443-47.16z" fill="#f9ecca"/><path d="m64 26.25c-6.243-5.907-14.024-9.41-22.446-9.41-20.683 0-37.454 21.11-37.454 47.16s16.775 47.16 37.458 47.16c8.422 0 16.2-3.5 22.446-9.41a42.557 42.557 0 0 0 6.25-7.45 54.808 54.808 0 0 0 8.746-30.3 58.966 58.966 0 0 0 -1.28-12.262c-2.199-10.319-7.106-19.245-13.72-25.488z" fill="#fff6d8"/><path d="m86.457 49.717a19.931 19.931 0 0 0 -8.736 2.021 58.966 58.966 0 0 1 1.279 12.262 54.808 54.808 0 0 1 -8.747 30.3 21.25 21.25 0 0 0 16.2 7.882c12.509 0 22.693-11.767 22.693-26.23s-10.18-26.235-22.689-26.235z" fill="#ffc369"/><g fill="#fffcf3"><path d="m30.021 95.244c-12.649-10.325-11.021-34.272-11.001-34.514a1.75 1.75 0 0 0 -3.49-.262c-.08 1.056-1.792 26 12.279 37.487a1.749 1.749 0 1 0 2.212-2.711z"/><path d="m50.32 30.319a1.754 1.754 0 1 0 2.48 0 1.765 1.765 0 0 0 -2.48 0z"/><path d="m49.48 39.68a1.754 1.754 0 1 0 2.48 0 1.821 1.821 0 0 0 -2.48 0z"/><path d="m58.48 35.359a1.754 1.754 0 1 0 2.48 0 1.823 1.823 0 0 0 -2.48 0z"/></g></g></svg>