<svg id="Capa_1" enable-background="new 0 0 494.91 494.91" height="512" viewBox="0 0 494.91 494.91" width="512" xmlns="http://www.w3.org/2000/svg"><g><path d="m85.415 448.778-37-31-47.535 46.94c-1.454 1.453-1.049 3.906.796 4.814l40.224 19.798c1.152.567 2.537.338 3.445-.57z" fill="#9cd169"/><path d="m76.035 458.098-30.69 30.66c-.91.91-2.29 1.14-3.44.57l-16.84-8.29 36.96-36.93.01-.01z" fill="#8cc951"/><path d="m122.635 433.448-28.79 28.76c-3.78 3.78-9.91 3.78-13.7 0l-42.48-42.45c-3.79-3.79-3.79-9.93 0-13.71l28.78-28.75 36.97 23.48z" fill="#e9edf1"/><path d="m122.635 433.448-28.79 28.76c-3.78 3.78-9.91 3.78-13.7 0l-4.11-4.11-14.01-13.99.01-.01-1.89-1.89c3.79 3.78 9.92 3.78 13.7 0l28.78-28.75 16.79 7.32z" fill="#dce6eb"/><path d="m231.585 424.538-27.98-1.97c-25.94-1.84-58.67-2.49-80.97 10.88l-56.19-56.15c13.38-22.29 12.72-54.99 10.88-80.92l-1.98-27.96.01.01 92.06 64.35z" fill="#dce6eb"/><path d="m231.585 424.538-27.98-1.97c-25.94-1.84-58.67-2.49-80.97 10.88l-20-20c22.3-13.37 55.03-12.72 80.97-10.88l27.96 1.97z" fill="#c8d2dc"/><path d="m467.997 128.044-77.582-37.267-18.353-58.599 21.253-21.237c7.565-7.56 19.825-7.56 27.39 0l68.525 68.475c7.573 7.567 7.573 19.842 0 27.41z" fill="#e9edf1"/><path d="m489.225 106.828-21.23 21.22-19.58-1.27 6.58-11.73 21.23-21.22c7.52-7.51 7.58-19.65.17-27.23l12.83 12.82c7.58 7.57 7.58 19.84 0 27.41z" fill="#dce6eb"/><path d="m112.352 231.442 62.063 90.336 94.174 65.787 200.03-237.618c5.504-6.538 5.088-16.197-.958-22.238l-95.264-95.195c-6.046-6.041-15.712-6.457-22.254-.957z" fill="#9cd169"/><path d="m468.615 149.948-200.03 237.62-18.17-3.79-2.07-16.44 202.85-239.97c2.97-3.52 4.3-7.88 4.01-12.11l12.46 12.45c6.04 6.04 6.46 15.7.95 22.24z" fill="#8cc951"/><path d="m268.585 408.118-16.45 16.43c-5.67 5.67-14.87 5.67-20.54 0l-.01-.01-156.23-156.11-.01-.01c-5.67-5.68-5.67-14.87.01-20.55l16.45-16.43c5.67-5.67 14.87-5.67 20.54 0l156.24 156.12c5.68 5.68 5.68 14.88 0 20.56z" fill="#e9edf1"/><path d="m268.585 408.118-16.45 16.43c-5.67 5.67-14.87 5.67-20.54 0l-.01-.01-18.82-18.81 2.11 2.07.01.01c5.99 5.87 15.69 5.87 21.68 0l17.35-16.98c3.82-3.74 5.21-8.96 4.16-13.77l10.51 10.5c5.68 5.68 5.68 14.88 0 20.56z" fill="#dce6eb"/><path d="m380.95 119.122c15.525 15.513 15.525 40.677 0 56.19l-95.25 95.18c-15.509 15.497-40.641 15.497-56.15 0-15.524-15.513-15.524-40.677 0-56.19l95.25-95.181c15.509-15.496 40.641-15.496 56.15.001z" fill="#8cc951"/><path d="m380.945 175.308-95.25 95.19c-15.5 15.49-40.64 15.49-56.15 0-3.53-3.53-6.25-7.55-8.17-11.85 14.6 6.54 32.34 3.82 44.32-8.15l95.25-95.19c12-11.99 14.73-29.73 8.18-44.34 4.29 1.92 8.3 4.64 11.82 8.15 15.53 15.52 15.53 40.68 0 56.19z" fill="#7dc03a"/></g></svg>