<?xml version="1.0" encoding="iso-8859-1"?>
<!-- Generator: Adobe Illustrator 19.0.0, SVG Export Plug-In . SVG Version: 6.00 Build 0)  -->
<svg xmlns="http://www.w3.org/2000/svg" xmlns:xlink="http://www.w3.org/1999/xlink" version="1.1" id="Layer_1" x="0px" y="0px" viewBox="0 0 512 512" style="enable-background:new 0 0 512 512;" xml:space="preserve">
<path style="fill:#4DB5FF;" d="M486.201,4.501L482,90H30L25.8,4.501C31.5,1.8,38.101,0,45,0h422C473.899,0,480.5,1.8,486.201,4.501z  "/>
<path style="fill:#4D97FF;" d="M486.201,4.501L482,90H256V0h211C473.899,0,480.5,1.8,486.201,4.501z"/>
<rect x="60" y="60" style="fill:#E6EEFF;" width="392" height="30"/>
<rect x="256" y="60" style="fill:#DAE2F2;" width="196" height="30"/>
<rect x="91" y="90" style="fill:#F23051;" width="330" height="60"/>
<rect x="256" y="90" style="fill:#D92C48;" width="165" height="60"/>
<path style="fill:#4DB5FF;" d="M211,189.789L25.721,4.51C9.426,12.307,0,28.771,0,45v66.211l211,211V189.789z"/>
<path style="fill:#F23051;" d="M151,241L30,105l-30,6.22v72.358c0,12.012,4.688,23.32,13.184,31.816L181,382.211l30,16.322  c0-67.317,0-57.251,0-76.335L151,241z"/>
<polygon style="fill:#E6EEFF;" points="21.211,90 0,68.789 0,111.211 211,322.211 211,279.789 "/>
<path style="fill:#4D97FF;" d="M301,189.789L486.279,4.51C502.575,12.307,512,28.771,512,45v66.211l-211,211V189.789z"/>
<path style="fill:#D92C48;" d="M361,241l121-136l30,6.22v72.358c0,12.012-4.688,23.32-13.184,31.816L331,382.211l-30,16.322  c0-67.317,0-57.251,0-76.335L361,241z"/>
<polygon style="fill:#DAE2F2;" points="490.789,90 512,68.789 512,111.211 301,322.211 301,279.789 "/>
<g>
	<path style="fill:#FFDE33;" d="M45,421H15c-8.291,0-15-6.709-15-15s6.709-15,15-15h30c8.291,0,15,6.709,15,15S53.291,421,45,421z"/>
	<path style="fill:#FFDE33;" d="M34.395,356.605l-30-30c-5.859-5.859-5.859-15.352,0-21.211s15.352-5.859,21.211,0l30,30   c5.859,5.859,5.859,15.352,0,21.211C49.746,362.465,40.254,362.465,34.395,356.605z"/>
	<path style="fill:#FFDE33;" d="M33.395,507.605c-5.859-5.859-5.859-15.352,0-21.211l31-31c5.859-5.859,15.352-5.859,21.211,0   s5.859,15.352,0,21.211l-31,31C48.746,513.465,39.254,513.465,33.395,507.605z"/>
</g>
<g>
	<path style="fill:#FFBC33;" d="M497,421h-30c-8.291,0-15-6.709-15-15s6.709-15,15-15h30c8.291,0,15,6.709,15,15   S505.291,421,497,421z"/>
	<path style="fill:#FFBC33;" d="M456.395,356.605c-5.859-5.859-5.859-15.352,0-21.211l30-30c5.859-5.859,15.352-5.859,21.211,0   c5.859,5.859,5.859,15.352,0,21.211l-30,30C471.746,362.465,462.254,362.465,456.395,356.605z"/>
	<path style="fill:#FFBC33;" d="M457.395,507.605l-31-31c-5.859-5.859-5.859-15.352,0-21.211s15.352-5.859,21.211,0l31,31   c5.859,5.859,5.859,15.352,0,21.211C472.746,513.465,463.254,513.465,457.395,507.605z"/>
</g>
<path style="fill:#FFDE33;" d="M256,182c-90.901,0-165,74.099-165,165c0,90.899,74.099,165,165,165s165-74.101,165-165  C421,256.099,346.901,182,256,182z"/>
<path style="fill:#FFBC33;" d="M421,347c0,90.899-74.099,165-165,165V182C346.901,182,421,256.099,421,347z"/>
<path style="fill:#FCB33B;" d="M342.1,302.3l-49.501-7.202l-20.698-44.7c-3.001-6.599-9.6-9.3-15.901-8.399  c-4.501,0.599-8.699,3.3-11.1,8.099L223.6,294.2l-52.8,8.101c-11.999,2.098-16.8,17.098-8.099,25.8l36,35.099l-8.401,49.5  c-2.1,12.299,10.8,21.599,21.899,15.899L256,405.5l0.601-0.3l44.7,23.399c10.8,5.7,23.699-3.6,21.599-15.899l-8.399-49.501  l36-35.099C359.5,319.399,354.401,304.1,342.1,302.3z"/>
<path style="fill:#F69838;" d="M350.501,328.1l-36,35.099L322.9,412.7c2.1,12.299-10.8,21.599-21.599,15.899l-44.7-23.399L256,405.5  V242c6.301-0.901,12.9,1.8,15.901,8.399l20.698,44.7L342.1,302.3C354.401,304.1,359.5,319.399,350.501,328.1z"/>
<g>
</g>
<g>
</g>
<g>
</g>
<g>
</g>
<g>
</g>
<g>
</g>
<g>
</g>
<g>
</g>
<g>
</g>
<g>
</g>
<g>
</g>
<g>
</g>
<g>
</g>
<g>
</g>
<g>
</g>
</svg>
