<svg height="512pt" viewBox="0 -37 512 512" width="512pt" xmlns="http://www.w3.org/2000/svg"><path d="m408.628906 43.4375v311.199219h-232.917968l-120.609376 83.921875v-83.921875h-55.101562v-311.199219zm0 0" fill="#60dd4e"/><path d="m204.320312 43.4375h204.308594v311.199219h-204.308594zm0 0" fill="#00bb64"/><g fill="#fff"><path d="m95.320312 127.726562h218v30h-218zm0 0"/><path d="m95.320312 187.039062h218v30h-218zm0 0"/><path d="m267.328125 246.359375v23.417969l-3.578125.742187-28.109375 5.839844h-140.320313v-30zm0 0"/></g><path d="m204.320312 246.359375h63.007813v23.417969l-3.578125.742187-28.109375 5.839844h-31.320313zm0 0" fill="#e0e4fa"/><path d="m204.320312 127.726562h109v30h-109zm0 0" fill="#e0e4fa"/><path d="m204.320312 187.039062h109v30h-109zm0 0" fill="#e0e4fa"/><path d="m512 73.519531-183.550781 183.546875-92.800781 19.292969 19.28125-92.808594 183.550781-183.550781zm0 0" fill="#ffb74f"/><path d="m512 73.519531-183.550781 183.546875-92.800781 19.292969 239.597656-239.597656zm0 0" fill="#ff9a00"/><path d="m328.449219 257.066406-92.800781 19.292969 19.28125-92.808594zm0 0" fill="#ffdba9"/><path d="m291.695312 220.3125 36.753907 36.753906-92.800781 19.292969zm0 0" fill="#ffc473"/><path d="m262.390625 270.800781-26.742187 5.558594 5.558593-26.746094zm0 0" fill="#78777f"/><path d="m385.644531 52.835938 52.835938-52.83203175 73.515625 73.51562475-52.835938 52.835938zm0 0" fill="#ffdf48"/><path d="m262.390625 270.800781-26.742187 5.558594 16.152343-16.152344zm0 0" fill="#57555c"/><path d="m422.40625 89.597656 52.835938-52.832031 36.753906 36.753906-52.835938 52.835938zm0 0" fill="#fec000"/></svg>