<svg id="_x30_1_Night_sky" enable-background="new 0 0 48 48" height="512" viewBox="0 0 48 48" width="512" xmlns="http://www.w3.org/2000/svg"><path d="m23.714 7.05c4.689-4.689 12.133-4.92 17.116-.725.316.266.18 1.315-.697 1.197-2.553-.344-5.23.462-7.192 2.425-3.345 3.345-3.345 8.767 0 12.112 1.963 1.963 4.639 2.768 7.192 2.425.877-.118 1.013.931.697 1.197-4.983 4.195-12.427 3.964-17.116-.725-4.944-4.946-4.944-12.962 0-17.906zm-12.671-2.076-1.242 2.647-2.829.432c-.406.062-.572.558-.285.852l2.064 2.115-.482 2.954c-.068.416.374.727.743.523l2.489-1.376 2.489 1.376c.369.204.81-.107.743-.523l-.482-2.954 2.064-2.115c.287-.294.121-.79-.285-.852l-2.83-.432-1.243-2.647c-.181-.387-.732-.387-.914 0z" fill="#f99f10"/><path d="m40.83 6.324c.316.266.18 1.315-.697 1.197-2.553-.344-5.23.462-7.192 2.425-1.111 1.111-1.857 2.465-2.23 3.883l-8.822 8.822c-3.014-4.881-2.407-11.368 1.825-15.601 4.689-4.69 12.133-4.921 17.116-.726zm-26.607 1.453-1.023-.156-1.243-2.647c-.182-.387-.732-.387-.914 0l-1.242 2.647-2.829.432c-.406.062-.572.558-.285.852l2.064 2.115-.435 2.665z" fill="#f9c900"/><path d="m34.637 31.399c.072-.372.113-.756.113-1.149 0-3.314-2.686-6-6-6-1.084 0-2.099.292-2.977.795-1.366-1.844-3.551-3.045-6.023-3.045-4.142 0-7.5 3.358-7.5 7.5 0 .524.055 1.036.157 1.53-3.035.298-5.407 2.856-5.407 5.97 0 3.314 2.686 6 6 6 1.627 0 3.101-.65 4.182-1.702.993 2.74 3.61 4.702 6.693 4.702 2.626 0 4.914-1.425 6.15-3.539.755.343 1.591.539 2.475.539 3.314 0 6-2.686 6-6 0-2.56-1.606-4.739-3.863-5.601z" fill="#a5a5a5"/><path d="m28.75 24.25c-1.084 0-2.099.292-2.977.795-1.366-1.844-3.551-3.045-6.023-3.045-4.142 0-7.5 3.358-7.5 7.5 0 .524.055 1.036.157 1.53-3.035.298-5.407 2.856-5.407 5.97 0 3.314 2.686 6 6 6 .275 0 .536-.017.802-.053l17.914-17.914c-.875-.498-1.888-.783-2.966-.783z" fill="#d6d6d6"/></svg>