<?xml version="1.0" encoding="iso-8859-1"?>
<!-- Generator: Adobe Illustrator 19.0.0, SVG Export Plug-In . SVG Version: 6.00 Build 0)  -->
<svg xmlns="http://www.w3.org/2000/svg" xmlns:xlink="http://www.w3.org/1999/xlink" version="1.1" id="Layer_1" x="0px" y="0px" viewBox="0 0 512 512" style="enable-background:new 0 0 512 512;" xml:space="preserve">
<path style="fill:#DBE1F1;" d="M512,356.174V50.087C512,22.468,489.532,0,461.913,0H50.087C22.468,0,0,22.468,0,50.087v306.087H512z  "/>
<path style="fill:#D0D5E5;" d="M461.913,0H256v356.174h256V50.087C512,22.468,489.532,0,461.913,0z"/>
<path style="fill:#79695A;" d="M311.652,512H200.348c-9.217,0-16.696-7.473-16.696-16.696v-83.478  c0-9.223,7.479-16.696,16.696-16.696h111.304c9.217,0,16.696,7.473,16.696,16.696v83.478C328.348,504.527,320.869,512,311.652,512z"/>
<path style="fill:#91867E;" d="M395.13,512H116.87c-9.217,0-16.696-7.473-16.696-16.696s7.479-16.696,16.696-16.696H395.13  c9.217,0,16.696,7.473,16.696,16.696S404.348,512,395.13,512z"/>
<path style="fill:#7CCC92;" d="M389.565,66.783h-66.783c-27.27,0-51.534,13.245-66.783,33.614  c-15.249-20.369-39.513-33.614-66.783-33.614h-66.783c-9.239,0-16.696,7.457-16.696,16.696v66.783  c0,46.08,37.398,83.478,83.478,83.478h133.565c46.08,0,83.478-37.398,83.478-83.478V83.478  C406.261,74.24,398.805,66.783,389.565,66.783z"/>
<path style="fill:#34B772;" d="M406.261,83.478v66.783c0,46.08-37.398,83.478-83.478,83.478H256V100.397  c15.249-20.369,39.513-33.614,66.783-33.614h66.783C398.805,66.783,406.261,74.24,406.261,83.478z"/>
<path style="fill:#DDDD47;" d="M334.582,162.059l-61.886,61.885v54.317c0,9.238-7.456,16.696-16.696,16.696  s-16.696-7.457-16.696-16.696v-54.317l-61.886-61.885c-6.567-6.456-6.567-17.141,0-23.597c6.568-6.567,17.03-6.567,23.598,0  L256,193.447l54.983-54.984c6.568-6.567,17.03-6.567,23.598,0C341.148,144.918,341.148,155.603,334.582,162.059z"/>
<path style="fill:#C7D100;" d="M334.582,162.059l-61.886,61.885v54.317c0,9.238-7.456,16.696-16.696,16.696v-101.51l54.983-54.984  c6.568-6.567,17.03-6.567,23.598,0C341.148,144.918,341.148,155.603,334.582,162.059z"/>
<path style="fill:#6C5B52;" d="M311.652,395.13H256V512h55.652c9.217,0,16.696-7.473,16.696-16.696v-83.478  C328.348,402.603,320.869,395.13,311.652,395.13z"/>
<path style="fill:#847976;" d="M395.13,478.609H256V512h139.13c9.217,0,16.696-7.473,16.696-16.696S404.348,478.609,395.13,478.609z  "/>
<path style="fill:#91867E;" d="M461.913,428.522H50.087C22.424,428.522,0,406.097,0,378.435v-50.087h512v50.087  C512,406.097,489.576,428.522,461.913,428.522z"/>
<path style="fill:#847976;" d="M256,428.522h205.913c27.664,0,50.087-22.424,50.087-50.087v-50.087H256V428.522z"/>
<g>
</g>
<g>
</g>
<g>
</g>
<g>
</g>
<g>
</g>
<g>
</g>
<g>
</g>
<g>
</g>
<g>
</g>
<g>
</g>
<g>
</g>
<g>
</g>
<g>
</g>
<g>
</g>
<g>
</g>
</svg>
