<?xml version="1.0" encoding="iso-8859-1"?>
<!-- Generator: Adobe Illustrator 19.0.0, SVG Export Plug-In . SVG Version: 6.00 Build 0)  -->
<svg xmlns="http://www.w3.org/2000/svg" xmlns:xlink="http://www.w3.org/1999/xlink" version="1.1" id="Layer_1" x="0px" y="0px" viewBox="0 0 512.001 512.001" style="enable-background:new 0 0 512.001 512.001;" xml:space="preserve">
<path style="fill:#7BCC29;" d="M425.112,4.936c56.051,56.051,86.889,130.651,86.889,210.088s-30.839,154.037-86.889,210.088  s-130.651,86.889-210.088,86.889S60.985,481.162,4.936,425.113c-6.58-6.58-6.581-17.203,0-23.783l68.021-68.021  c3.488,4.282,7.214,8.484,11.257,12.527c72.144,72.144,189.476,72.144,261.619,0s72.144-189.476,0-261.619  c-4.043-4.043-8.165-7.69-12.527-11.257l68.021-68.021C407.909-1.645,418.531-1.644,425.112,4.936z"/>
<path style="fill:#6EB825;" d="M425.112,4.936c56.051,56.051,86.889,130.651,86.889,210.088s-30.839,154.037-86.889,210.088  l-79.279-79.279c72.144-72.144,72.144-189.476,0-261.619c-4.043-4.043-8.165-7.69-12.527-11.257l68.021-68.021  C407.909-1.645,418.531-1.644,425.112,4.936z"/>
<path style="fill:#E55639;" d="M369.616,60.431c85.224,85.224,85.224,223.962,0,309.186s-223.962,85.224-309.186,0  c-4.043-4.043-7.61-8.245-11.257-12.527L357.09,49.174C361.371,52.821,365.573,56.388,369.616,60.431z"/>
<path style="fill:#CF4529;" d="M369.616,60.431c85.224,85.224,85.224,223.962,0,309.186L203.132,203.133L357.091,49.174  C361.371,52.821,365.573,56.388,369.616,60.431z"/>
<path style="fill:#F9C5A7;" d="M349.563,231.618h-33.635c-9.284,0-16.818-7.303-16.818-16.593c0-9.29,7.533-16.818,16.818-16.818  h33.635c9.284,0,16.818,7.528,16.818,16.818C366.381,224.315,358.849,231.618,349.563,231.618z"/>
<g>
	<path style="fill:#F3B590;" d="M215.023,366.382c-9.284,0-16.818-7.528-16.818-16.818V315.93c0-9.29,7.533-16.818,16.818-16.818   c9.284,0,16.593,7.527,16.593,16.818v33.635C231.616,358.855,224.309,366.382,215.023,366.382z"/>
	<path style="fill:#F3B590;" d="M322.05,322.05L322.05,322.05c-6.568,6.568-17.216,6.568-23.783,0l-23.783-23.783   c-6.568-6.568-6.568-17.216,0-23.783l0,0c6.568-6.568,17.216-6.568,23.783,0l23.783,23.783   C328.618,304.834,328.618,315.483,322.05,322.05z"/>
</g>
<path style="fill:#F9C5A7;" d="M322.05,298.266l-23.783-23.783c-6.568-6.568-17.217-6.567-23.783,0l47.567,47.567  C328.616,315.483,328.618,304.834,322.05,298.266z"/>
<g>
</g>
<g>
</g>
<g>
</g>
<g>
</g>
<g>
</g>
<g>
</g>
<g>
</g>
<g>
</g>
<g>
</g>
<g>
</g>
<g>
</g>
<g>
</g>
<g>
</g>
<g>
</g>
<g>
</g>
</svg>
