<?xml version="1.0" encoding="iso-8859-1"?>
<!-- Generator: Adobe Illustrator 19.0.0, SVG Export Plug-In . SVG Version: 6.00 Build 0)  -->
<svg version="1.1" id="Capa_1" xmlns="http://www.w3.org/2000/svg" xmlns:xlink="http://www.w3.org/1999/xlink" x="0px" y="0px"
	 viewBox="0 0 512.293 512.293" style="enable-background:new 0 0 512.293 512.293;" xml:space="preserve">
<path style="fill:#BBDEFB;" d="M402.148,149.606C384.338,63.054,299.735,7.328,213.183,25.138
	C139.07,40.389,85.774,105.472,85.434,181.136c0,3.605,0.149,7.296,0.469,11.2C33.178,197.917-5.04,245.183,0.541,297.908
	c5.173,48.87,46.416,85.943,95.559,85.895h11.2c-0.256-3.541-0.533-7.061-0.533-10.667c0-76.583,62.083-138.667,138.667-138.667
	S384.1,296.553,384.1,373.136c0,3.605-0.277,7.125-0.533,10.667h11.2c64.73,0.177,117.348-52.154,117.525-116.885
	C512.462,204.807,464.148,153.348,402.148,149.606L402.148,149.606z"/>
<circle style="fill:#4CAF50;" cx="245.434" cy="373.136" r="117.333"/>
<g>
	<path style="fill:#FAFAFA;" d="M245.434,426.47c-28.715,0-51.093-12.309-53.333-29.291c-0.748-5.891,3.421-11.273,9.312-12.021
		c5.891-0.748,11.273,3.421,12.021,9.312c0.405,3.115,12.096,10.667,32,10.667c20.693,0,32-8.021,32-10.667
		c0,0-0.363-6.656-31.104-10.475l-2.325-0.192c-15.637-2.005-51.904-6.4-51.904-32c0-18.24,22.933-32,53.333-32
		c28.672,0,51.051,12.309,53.205,29.269c0.754,5.856-3.382,11.214-9.237,11.968c-5.856,0.754-11.214-3.382-11.968-9.237l0,0
		c-0.32-2.475-10.923-10.667-32-10.667c-20.693,0-32,8.021-32,10.667c0,0,0.363,6.699,31.253,10.475l2.133,0.299
		c15.659,1.941,51.861,6.4,51.861,32C298.767,412.71,275.834,426.47,245.434,426.47z"/>
	<path style="fill:#FAFAFA;" d="M245.434,447.803c-5.891,0-10.667-4.776-10.667-10.667v-128c0-5.891,4.776-10.667,10.667-10.667
		s10.667,4.776,10.667,10.667v128C256.1,443.027,251.325,447.803,245.434,447.803z"/>
</g>
<g>
</g>
<g>
</g>
<g>
</g>
<g>
</g>
<g>
</g>
<g>
</g>
<g>
</g>
<g>
</g>
<g>
</g>
<g>
</g>
<g>
</g>
<g>
</g>
<g>
</g>
<g>
</g>
<g>
</g>
</svg>
