<?xml version="1.0" encoding="iso-8859-1"?>
<!-- Generator: Adobe Illustrator 19.0.0, SVG Export Plug-In . SVG Version: 6.00 Build 0)  -->
<svg version="1.1" id="Capa_1" xmlns="http://www.w3.org/2000/svg" xmlns:xlink="http://www.w3.org/1999/xlink" x="0px" y="0px"
	 viewBox="0 0 468.293 468.293" style="enable-background:new 0 0 468.293 468.293;" xml:space="preserve">
<path style="fill:#1C75A1;" d="M352.78,0H115.512c-13.794,0-24.976,11.182-24.976,24.976v31.22v337.171v49.951
	c0,13.794,11.182,24.976,24.976,24.976H352.78c13.793,0,24.976-11.182,24.976-24.976v-49.951V56.195v-31.22
	C377.756,11.182,366.574,0,352.78,0z"/>
<rect x="115.512" y="56.195" style="fill:#E1E6E9;" width="237.268" height="337.171"/>
<path style="fill:#EBF0F3;" d="M259.122,440.195h-49.951c-5.173,0-9.366-4.193-9.366-9.366l0,0c0-5.173,4.193-9.366,9.366-9.366
	h49.951c5.173,0,9.366,4.193,9.366,9.366l0,0C268.488,436.002,264.295,440.195,259.122,440.195z"/>
<g>
	<path style="fill:#3EA69B;" d="M201.549,209.358l-11.537-4.779l20.997-50.69c1.32-3.186,4.972-4.699,8.158-3.379l0,0
		c3.186,1.32,4.699,4.972,3.379,8.158L201.549,209.358z"/>
	<path style="fill:#3EA69B;" d="M266.744,209.358l11.537-4.779l-20.997-50.69c-1.32-3.186-4.972-4.699-8.158-3.379l0,0
		c-3.186,1.32-4.699,4.972-3.379,8.158L266.744,209.358z"/>
</g>
<path style="fill:#D15241;" d="M282.209,299.529h-96.124c-2.743,0-5.165-1.79-5.969-4.412l-26.534-86.466
	c-1.232-4.014,1.77-8.076,5.969-8.076h149.192c4.199,0,7.201,4.061,5.969,8.076l-26.534,86.466
	C287.373,297.739,284.951,299.529,282.209,299.529z"/>
<g>
	<path style="fill:#E56353;" d="M234.146,275.028L234.146,275.028c-3.448,0-6.244-2.796-6.244-6.244V231.32
		c0-3.448,2.795-6.244,6.244-6.244l0,0c3.448,0,6.244,2.795,6.244,6.244v37.463C240.39,272.232,237.595,275.028,234.146,275.028z"/>
	<path style="fill:#E56353;" d="M265.366,275.028L265.366,275.028c-3.448,0-6.244-2.796-6.244-6.244V231.32
		c0-3.448,2.796-6.244,6.244-6.244l0,0c3.448,0,6.244,2.795,6.244,6.244v37.463C271.61,272.232,268.814,275.028,265.366,275.028z"/>
	<path style="fill:#E56353;" d="M202.927,275.028L202.927,275.028c-3.448,0-6.244-2.796-6.244-6.244V231.32
		c0-3.448,2.795-6.244,6.244-6.244l0,0c3.448,0,6.244,2.795,6.244,6.244v37.463C209.171,272.232,206.375,275.028,202.927,275.028z"
		/>
</g>
<g>
	<path style="fill:#EBF0F3;" d="M167.948,28.098L167.948,28.098c0-3.448,2.795-6.244,6.244-6.244h74.927
		c3.448,0,6.244,2.795,6.244,6.244v0c0,3.448-2.795,6.244-6.244,6.244h-74.927C170.743,34.341,167.948,31.546,167.948,28.098z"/>
	<path style="fill:#EBF0F3;" d="M269.125,28.098L269.125,28.098c0-3.448,2.795-6.244,6.244-6.244h18.732
		c3.448,0,6.244,2.795,6.244,6.244v0c0,3.448-2.796,6.244-6.244,6.244h-18.732C271.921,34.341,269.125,31.546,269.125,28.098z"/>
</g>
<g>
</g>
<g>
</g>
<g>
</g>
<g>
</g>
<g>
</g>
<g>
</g>
<g>
</g>
<g>
</g>
<g>
</g>
<g>
</g>
<g>
</g>
<g>
</g>
<g>
</g>
<g>
</g>
<g>
</g>
</svg>
