<svg height="512" viewBox="0 0 58 58" width="512" xmlns="http://www.w3.org/2000/svg"><g id="Page-1" fill="none" fill-rule="evenodd"><g id="018---Lightning" fill-rule="nonzero" transform="translate(-1)"><path id="Shape" d="m41 37-6.123 10.5c-.178453.3090879-.1786463.6898553-.0005074.9991243.1781389.3092689.5076037.5001532.8645074.5008757h4.72c.338503-.000043.6540489.1711633.8385433.4549697.1844944.2838065.2128889.6416815.0754567.9510303l-3.375 7.594 12.974-11.244c.3157369-.2733761.4283299-.7141802.2823702-1.1054858-.1459596-.3913055-.5197289-.6506932-.9373702-.6505142h-1.519c-.3635259.0000009-.6984185-.1972759-.8746446-.515231-.176226-.317955-.1660241-.7064999.0266446-1.014769l4.048-6.47-7-2z" fill="#f0c419"/><path id="Shape" d="m30.91 15.21-14.91 10.79h-8.95c-3.41479228-.0770319-6.12203984-2.9050988-6.05-6.32-.07203984-3.4149012 2.63520772-6.2429681 6.05-6.32.24081768.0013757.48130372.0180761.72.05-.03157909-.248782-.04827547-.4992277-.05-.75-.07144339-3.41850474 2.64151-6.24785545 6.06-6.32 1.0216973-.00029541 2.0254197.26874356 2.91.78.812041-4.07870332 4.361727-7.03677499 8.52-7.1 4.9337324.10981259 8.8455398 4.19617432 8.74 9.13.001639.26055202-.0117164.52098248-.04.78z" fill="#7f8c8d"/><path id="Shape" d="m59 29.71c-.0055084 4.023872-3.266128 7.2844916-7.29 7.29h-32.42c-4.023872-.0055084-7.2844916-3.266128-7.29-7.29.0087754-4.0241381 3.2658777-7.2857083 7.29-7.3.2908522.0047131.5812544.0247408.87.06v-.01c-.0356104-.2853636-.0556401-.5724561-.06-.86.0038023-2.5774404 1.3665039-4.9618492 3.5852889-6.2734159 2.2187849-1.3115667 4.9647633-1.3558781 7.2247111-.1165841.4502523-2.02011 1.4951342-3.8591022 3-5.28 3.7428131-3.57235226 9.5265269-3.89591228 13.6444371-.7633148 4.1179101 3.1325975 5.3495435 8.7929081 2.9055629 13.3533148v.01c2.1235073-.3924426 4.3112479.1852731 5.9641515 1.5749508 1.6529035 1.3896777 2.5977636 3.4456942 2.5758485 5.6050492z" fill="#95a5a5"/><path id="Shape" d="m18.724 30.553-7 14c-.1548588.3099025-.1382854.6778792.0438055.9726057.1820908.2947265.5037544.4742093.8501945.4743943h7.1c.3080147.0000081.5988398.1419601.7883345.3847868.1894947.2428268.2565131.5594308.1816655.8582132l-2.688 10.757 14.414-15.315c.2731544-.2905178.3475986-.7155525.1894428-1.0816136-.1581558-.366061-.5186773-.6031699-.9174428-.6033864h-3c-.3529999.0000653-.6798833-.1859856-.8600797-.4895284-.1801965-.3035427-.1870073-.679603-.0179203-.9894716l4.386-8.042c.1691727-.3100252.1622642-.6862959-.0181751-.989902-.1804394-.3036061-.5076466-.4895167-.8608249-.489098h-11.7c-.3775843.0013356-.7222211.2152347-.891.553z" fill="#f0c419"/></g></g></svg>