<svg height="512pt" viewBox="-42 0 512 512" width="512pt" xmlns="http://www.w3.org/2000/svg"><path d="m277.332031 0h-213.332031c-35.285156 0-64 28.714844-64 64v384c0 35.285156 28.714844 64 64 64h213.332031c35.285157 0 64-28.714844 64-64v-384c0-35.285156-28.714843-64-64-64zm0 0" fill="#607d8b"/><path d="m64 42.667969h213.332031c11.757813 0 21.335938 9.554687 21.335938 21.332031v341.332031h-256v-341.332031c0-11.777344 9.578125-21.332031 21.332031-21.332031zm0 0" fill="#fff"/><path d="m404.332031 223.339844c.402344-3.308594 1-6.570313 1-10.007813 0-3.433593-.597656-6.699219-1-10.003906l19.21875-14.550781c4.289063-3.242188 5.484375-9.171875 2.796875-13.84375l-17.257812-29.867188c-2.691406-4.652344-8.429688-6.589844-13.378906-4.5l-22.121094 9.320313c-5.398438-4.117188-11.136719-7.742188-17.472656-10.386719l-2.945313-23.488281c-.679687-5.335938-5.203125-9.34375-10.578125-9.34375h-34.496094c-5.378906 0-9.921875 4.007812-10.582031 9.34375l-2.945313 23.488281c-6.335937 2.644531-12.09375 6.292969-17.472656 10.386719l-22.121094-9.320313c-4.972656-2.089844-10.710937-.171875-13.398437 4.5l-17.238281 29.867188c-2.6875 4.652344-1.492188 10.582031 2.796875 13.84375l19.21875 14.550781c-.425781 3.304687-1.023438 6.570313-1.023438 10.003906 0 3.4375.597657 6.699219 1.003907 10.007813l-19.222657 14.546875c-4.285156 3.242187-5.480469 9.175781-2.792969 13.847656l17.257813 29.886719c2.6875 4.652344 8.425781 6.59375 13.375 4.5l22.125-9.34375c5.398437 4.117187 11.136719 7.746094 17.472656 10.390625l2.941407 23.488281c.683593 5.332031 5.207031 9.34375 10.582031 9.34375h34.496093c5.375 0 9.921876-4.011719 10.582032-9.34375l2.945312-23.488281c6.335938-2.644531 12.09375-6.292969 17.46875-10.390625l22.125 9.324218c4.949219 2.089844 10.6875.171876 13.375-4.5l17.257813-29.890624c2.6875-4.648438 1.496093-10.582032-2.792969-13.84375zm0 0" fill="#4caf50"/><path d="m368 213.332031c0 23.566407-19.101562 42.667969-42.667969 42.667969-23.5625 0-42.664062-19.101562-42.664062-42.667969 0-23.5625 19.101562-42.664062 42.664062-42.664062 23.566407 0 42.667969 19.101562 42.667969 42.664062zm0 0" fill="#fff"/></svg>