<svg height="511pt" viewBox="0 0 511 511.99987" width="511pt" xmlns="http://www.w3.org/2000/svg"><path d="m505.097656 43.167969-303.726562 303.726562-35.765625-35.765625 303.722656-303.726562c9.875-9.875 25.886719-9.867188 35.761719.007812 3.042968 3.042969 5.15625 6.667969 6.3125 10.519532 2.628906 8.648437.523437 18.410156-6.304688 25.238281zm0 0" fill="#7c4242"/><path d="m505.097656 43.167969-303.726562 303.726562-18.9375-18.933593 303.726562-303.726563c6.832032-6.832031 16.59375-8.933594 25.242188-6.304687 2.628906 8.648437.523437 18.410156-6.304688 25.238281zm0 0" fill="#936a60"/><path d="m286.074219 395.828125s-50.273438 50.269531-81.554688 81.554687c-69.308593 69.308594-182.527343 13.125-182.527343 13.125s-56.183594-113.21875 13.125-182.523437c31.285156-31.285156 81.554687-81.554687 81.554687-81.554687zm0 0" fill="#e6e6e6"/><g fill="#c4becc"><path d="m41.003906 471.496094s-56.183594-113.214844 13.125-182.523438c-6.695312 6.695313-13.183594 13.183594-19.011718 19.011719-69.304688 69.304687-13.125 182.523437-13.125 182.523437s113.21875 56.183594 182.523437-13.125c5.828125-5.828124 12.316406-12.316406 19.011719-19.011718-69.304688 69.308594-182.523438 13.125-182.523438 13.125zm0 0"/><path d="m219.253906 329.007812-60.109375 60.109376c-4.9375 4.933593-11.410156 7.398437-17.882812 7.40625-6.464844 0-12.933594-2.464844-17.878907-7.40625-9.878906-9.878907-9.878906-25.898438-.007812-35.765626l60.109375-60.113281zm0 0"/></g></svg>