<svg height="512.00002pt" viewBox="0 0 512.00002 512.00002" width="512.00002pt" xmlns="http://www.w3.org/2000/svg"><path d="m336.332031 0h-224.933593c-3.976563 0-7.792969 1.582031-10.605469 4.394531l-96.398438 96.398438c-2.8125 2.8125-4.394531 6.628906-4.394531 10.605469v353.46875c0 25.988281 21.144531 47.132812 47.132812 47.132812h289.199219c25.914063 0 47.132813-20.953125 47.132813-47.132812v-417.734376c.003906-25.914062-20.949219-47.132812-47.132813-47.132812zm0 0" fill="#eff6fe"/><g fill="#d9e4ef"><path d="m336.332031 0h-144.601562v512h144.601562c25.914063 0 47.132813-20.953125 47.132813-47.132812v-417.734376c.003906-25.914062-20.949219-47.132812-47.132813-47.132812zm0 0"/><path d="m95.332031 112.46875c9.449219 0 17.132813-7.6875 17.132813-17.132812v-95.335938h-1.066406c-3.976563 0-7.792969 1.582031-10.605469 4.394531l-96.398438 96.398438c-2.8125 2.8125-4.394531 6.628906-4.394531 10.605469v1.070312zm0 0"/><path d="m288.132812 192.800781h-192.800781c-8.28125 0-15 6.714844-15 15 0 8.285157 6.71875 15 15 15h192.800781c8.285157 0 15-6.714843 15-15 0-8.285156-6.714843-15-15-15zm0 0"/><path d="m288.132812 257.066406h-192.800781c-8.28125 0-15 6.714844-15 15s6.71875 15 15 15h192.800781c8.285157 0 15-6.714844 15-15s-6.714843-15-15-15zm0 0"/><path d="m288.132812 321.332031h-192.800781c-8.28125 0-15 6.71875-15 15 0 8.285157 6.71875 15 15 15h192.800781c8.285157 0 15-6.714843 15-15 0-8.28125-6.714843-15-15-15zm0 0"/><path d="m176.734375 385.601562h-81.402344c-8.28125 0-15 6.714844-15 15 0 8.28125 6.71875 15 15 15h81.402344c8.28125 0 15-6.71875 15-15 0-8.285156-6.714844-15-15-15zm0 0"/></g><path d="m303.128906 207.800781c0 8.277344-6.707031 15-15 15h-96.398437v-30h96.398437c8.292969 0 15 6.71875 15 15zm0 0" fill="#c1cedb"/><path d="m303.128906 272.070312c0 8.28125-6.707031 15-15 15h-96.398437v-30h96.398437c8.292969 0 15 6.710938 15 15zm0 0" fill="#c1cedb"/><path d="m303.128906 336.328125c0 8.292969-6.707031 15-15 15h-96.398437v-30h96.398437c8.292969 0 15 6.722656 15 15zm0 0" fill="#c1cedb"/><path d="m512 368.46875c0 79.269531-64.261719 143.53125-143.53125 143.53125-79.273438 0-143.535156-64.261719-143.535156-143.53125 0-79.273438 64.261718-143.535156 143.535156-143.535156 79.269531 0 143.53125 64.261718 143.53125 143.535156zm0 0" fill="#ffcc4b"/><path d="m512 368.46875c0-79.273438-64.261719-143.535156-143.53125-143.535156v287.066406c79.269531 0 143.53125-64.261719 143.53125-143.53125zm0 0" fill="#ffb826"/><path d="m384.53125 353.46875h-32.132812c-4.964844 0-9.097657-4.019531-9.097657-9.101562 0-4.957032 4.007813-9.101563 9.097657-9.101563h48.203124c8.28125 0 15-6.714844 15-15 0-8.28125-6.71875-15-15-15h-17.132812v-17.132813c0-8.28125-6.71875-15-15-15-8.285156 0-15 6.71875-15 15v17.132813h-1.070312c-21.597657 0-39.097657 17.46875-39.097657 39.101563 0 21.597656 17.46875 39.101562 39.097657 39.101562h32.132812c4.957031 0 9.101562 4.003906 9.101562 9.097656 0 4.949219-3.996093 9.101563-9.101562 9.101563h-48.199219c-8.28125 0-15 6.714843-15 15 0 8.28125 6.71875 15 15 15h17.136719v17.132812c0 8.285157 6.714844 15 15 15 8.28125 0 15-6.714843 15-15v-17.132812h1.0625c21.640625 0 39.101562-17.511719 39.101562-39.101563 0-21.601562-17.472656-39.097656-39.101562-39.097656zm0 0" fill="#ff7579"/><path d="m384.53125 353.46875h-16.0625v30h16.0625c4.957031 0 9.101562 4.003906 9.101562 9.097656 0 4.949219-3.996093 9.101563-9.101562 9.101563h-16.0625v62.132812c8.28125 0 15-6.714843 15-15v-17.132812h1.0625c21.640625 0 39.101562-17.511719 39.101562-39.101563 0-21.601562-17.472656-39.097656-39.101562-39.097656zm0 0" fill="#ff244e"/><path d="m400.601562 335.265625c8.28125 0 15-6.714844 15-15 0-8.28125-6.71875-15-15-15h-17.132812v-17.132813c0-8.28125-6.71875-15-15-15v62.132813zm0 0" fill="#ff244e"/></svg>