<svg height="512pt" viewBox="-49 0 512 512" width="512pt" xmlns="http://www.w3.org/2000/svg"><path d="m305.40625 0h-281.359375v116.121094c0 40.605468 20.460937 78.476562 54.425781 100.734375l51.808594 32.816406c4.644531 2.941406 4.644531 9.714844 0 12.65625l-51.808594 32.816406c-33.964844 22.253907-54.425781 60.128907-54.425781 100.734375v116.121094h281.359375v-116.121094c0-40.605468-20.460938-78.476562-54.425781-100.734375l-51.808594-32.816406c-4.644531-2.941406-4.644531-9.714844 0-12.65625l51.808594-32.816406c33.964843-22.253907 54.425781-60.128907 54.425781-100.734375zm0 0" fill="#fafaff"/><path d="m199.171875 249.671875 51.808594-32.816406c33.964843-22.253907 54.425781-60.128907 54.425781-100.734375v-116.121094h-56.484375v116.121094c0 40.605468-20.464844 78.476562-54.429687 100.734375l-24.113282 15.273437c-17.515625 11.09375-17.515625 36.648438 0 47.742188l24.113282 15.273437c33.964843 22.257813 54.429687 60.128907 54.429687 100.734375v116.121094h56.484375v-116.121094c0-40.605468-20.460938-78.476562-54.425781-100.734375l-51.808594-32.816406c-4.644531-2.941406-4.644531-9.714844 0-12.65625zm0 0" fill="#e6e6f2"/><path d="m24.046875 418.152344h281.359375v93.847656h-281.359375zm0 0" fill="#ffe591"/><path d="m317.472656 44.839844h-305.492187c-6.617188 0-11.980469-5.363282-11.980469-11.980469v-20.878906c0-6.617188 5.363281-11.980469 11.980469-11.980469h305.492187c6.617188 0 11.980469 5.363281 11.980469 11.980469v20.878906c0 6.617187-5.363281 11.980469-11.980469 11.980469zm0 0" fill="#3a90c8"/><path d="m317.472656 0h-44.226562v44.839844h44.226562c6.617188 0 11.980469-5.363282 11.980469-11.980469v-20.878906c0-6.617188-5.363281-11.980469-11.980469-11.980469zm0 0" fill="#2e6c9f"/><path d="m317.472656 512h-305.492187c-6.617188 0-11.980469-5.363281-11.980469-11.980469v-20.878906c0-6.617187 5.363281-11.980469 11.980469-11.980469h305.492187c6.617188 0 11.980469 5.363282 11.980469 11.980469v20.878906c0 6.617188-5.363281 11.980469-11.980469 11.980469zm0 0" fill="#3a90c8"/><path d="m25.292969 133.324219c4.894531 33.90625 24.070312 64.457031 53.179687 83.53125l51.808594 32.816406c2.316406 1.464844 3.476562 3.886719 3.480469 6.308594h61.929687c.007813-2.421875 1.164063-4.84375 3.480469-6.308594l51.808594-32.816406c29.109375-19.074219 48.285156-49.625 53.179687-83.53125zm0 0" fill="#ffe591"/><path d="m195.691406 255.980469c.007813-2.421875 1.164063-4.84375 3.480469-6.308594l51.808594-32.816406c29.109375-19.074219 48.285156-49.625 53.179687-83.53125h-56.488281c-4.894531 33.90625-24.070313 64.457031-53.179687 83.53125l-24.113282 15.273437c-8.75 5.542969-13.128906 14.695313-13.136718 23.851563zm0 0" fill="#ffa442"/><path d="m414.757812 412.507812c0 54.949219-44.546874 99.492188-99.496093 99.492188-54.945313 0-99.492188-44.542969-99.492188-99.492188 0-54.949218 44.546875-99.492187 99.492188-99.492187 54.949219 0 99.496093 44.542969 99.496093 99.492187zm0 0" fill="#ff7e7e"/><path d="m315.261719 313.015625c-9.8125 0-19.289063 1.425781-28.242188 4.074219 41.191407 12.171875 71.25 50.28125 71.25 95.417968 0 45.136719-30.058593 83.246094-71.25 95.417969 8.953125 2.644531 18.429688 4.074219 28.242188 4.074219 54.949219 0 99.496093-44.542969 99.496093-99.492188 0-54.949218-44.546874-99.492187-99.496093-99.492187zm0 0" fill="#ff4a4a"/><path d="m387.089844 412.507812c0 39.667969-32.160156 71.824219-71.828125 71.824219s-71.824219-32.15625-71.824219-71.824219c0-39.667968 32.15625-71.824218 71.824219-71.824218s71.828125 32.15625 71.828125 71.824218zm0 0" fill="#fafaff"/><path d="m315.261719 340.683594c-10.027344 0-19.574219 2.058594-28.242188 5.773437 25.625 10.972657 43.582031 36.410157 43.582031 66.050781 0 29.636719-17.957031 55.078126-43.582031 66.050782 8.667969 3.710937 18.214844 5.773437 28.242188 5.773437 39.667969 0 71.828125-32.15625 71.828125-71.824219 0-39.667968-32.160156-71.824218-71.828125-71.824218zm0 0" fill="#e6e6f2"/><path d="m325.332031 455.65625c0 5.015625-4.316406 9.46875-9.46875 9.46875-5.429687 0-9.46875-4.453125-9.46875-9.46875 0-5.148438 4.039063-9.46875 9.46875-9.46875 5.152344.003906 9.46875 4.320312 9.46875 9.46875zm-2.785156-24.785156c0 3.761718-4.039063 5.292968-6.824219 5.292968-3.617187 0-6.820312-1.53125-6.820312-5.292968 0-18.378906-1.8125-42.882813-1.8125-61.265625 0-4.871094 3.761718-7.65625 8.632812-7.65625 4.734375 0 8.773438 2.785156 8.773438 7.65625 0 18.382812-1.949219 42.886719-1.949219 61.265625zm0 0" fill="#ff4a4a"/></svg>