<?xml version="1.0" encoding="iso-8859-1"?>
<!-- Generator: Adobe Illustrator 19.0.0, SVG Export Plug-In . SVG Version: 6.00 Build 0)  -->
<svg xmlns="http://www.w3.org/2000/svg" xmlns:xlink="http://www.w3.org/1999/xlink" version="1.1" id="Capa_1" x="0px" y="0px" viewBox="0 0 511.999 511.999" style="enable-background:new 0 0 511.999 511.999;" xml:space="preserve">
<path style="fill:#E0F7FC;" d="M108.432,86.892h245.772c5.773,0,10.454,4.681,10.454,10.454  c0,180.451-47.551,340.748-52.964,358.394v45.805c0,5.772-4.68,10.454-10.454,10.454H161.397c-5.773,0-10.454-4.681-10.454-10.454  V455.74c-5.413-17.647-52.964-177.943-52.964-358.394C97.979,91.573,102.659,86.892,108.432,86.892z"/>
<path style="fill:#BEEDF4;" d="M171.242,501.545V455.74c-5.413-17.647-52.964-177.943-52.964-358.394  c0-5.773,4.68-10.454,10.453-10.454h-20.299c-5.773,0-10.453,4.681-10.453,10.454c0,180.451,47.551,340.748,52.964,358.394v45.805  c0,5.772,4.68,10.454,10.454,10.454h20.299C175.922,511.999,171.242,507.318,171.242,501.545z"/>
<path style="fill:#F2AA5C;" d="M226.406,203.274c-46.257-24.007-94.72-17.758-124.247-9.851  c11.751,138.149,44.325,247.893,48.749,262.317h160.751c4.19-13.661,33.624-112.801,46.711-240.594  C321.239,221.894,268.606,225.174,226.406,203.274z"/>
<path style="fill:#E2984D;" d="M102.194,193.414c11.749,138.153,44.325,247.901,48.749,262.326h20.299  c-4.47-14.575-37.685-126.468-49.112-266.652C114.838,190.311,108.129,191.826,102.194,193.414z"/>
<path style="fill:#EA473B;" d="M269.233,431.384c-4.151-0.665-6.978-4.568-6.314-8.719L329.537,6.408  c0.647-4.04,4.375-6.838,8.432-6.354l69.354,8.4c4.173,0.505,7.147,4.299,6.642,8.472c-0.506,4.173-4.297,7.145-8.472,6.642  l-62.08-7.519l-65.46,409.022C277.287,429.226,273.377,432.049,269.233,431.384z"/>
<g>
</g>
<g>
</g>
<g>
</g>
<g>
</g>
<g>
</g>
<g>
</g>
<g>
</g>
<g>
</g>
<g>
</g>
<g>
</g>
<g>
</g>
<g>
</g>
<g>
</g>
<g>
</g>
<g>
</g>
</svg>
