<?xml version="1.0" encoding="iso-8859-1"?>
<!-- Generator: Adobe Illustrator 19.0.0, SVG Export Plug-In . SVG Version: 6.00 Build 0)  -->
<svg version="1.1" id="Capa_1" xmlns="http://www.w3.org/2000/svg" xmlns:xlink="http://www.w3.org/1999/xlink" x="0px" y="0px"
	 viewBox="0 0 512 512" style="enable-background:new 0 0 512 512;" xml:space="preserve">
<path style="fill:#C6E2F7;" d="M456.547,176.617L358.448,34.814c0.759,0,1.385,0.026,2.099,0.035
	c-12.304-20.71-34.822-34.637-60.657-34.637c-34.443,0-63.083,24.697-69.283,57.341c-5.751-2.752-12.119-4.419-18.92-4.419
	c-22.28,0-40.503,16.573-43.493,38.033c-5.768-1.791-11.899-2.752-18.249-2.752c-24.891,0-46.254,14.774-56.018,35.987
	l11.916,87.497h291.069c26.135,0,48.891-14.245,61.089-35.352C457.517,176.556,457.041,176.617,456.547,176.617z"/>
<polygon style="fill:#F7E6A1;" points="149.945,405.945 114.664,405.945 132.304,326.562 52.922,423.585 88.203,423.585 
	61.742,511.788 "/>
<polygon style="fill:#EBBA16;" points="299.89,405.945 264.609,405.945 282.249,326.562 202.867,423.585 238.148,423.585 
	211.687,511.788 "/>
<polygon style="fill:#F7E6A1;" points="458.655,405.945 423.374,405.945 441.014,326.562 361.632,423.585 396.913,423.585 
	370.452,511.788 "/>
<g>
	<path style="fill:#8FB1C6;" d="M39.7,181.874c-0.829-3.51-1.305-7.153-1.305-10.92c0-26.108,21.01-47.268,46.915-47.268
		c20.728,0,40.714,11.299,46.915,30.077c6.977-4.137,12.648-4.295,21.327-4.295c25.914,0,49.852,20.736,49.852,46.836
		c25.914,0,43.978,21.592,43.978,47.7s-21.001,47.277-46.915,47.277h-12.798H63.982h-8.529C24.829,291.281,0,266.267,0,235.422
		C0,210.082,16.75,188.719,39.7,181.874z"/>
	<path style="fill:#8FB1C6;" d="M472.3,67.211c0.829-3.51,1.305-7.153,1.305-10.92c0-26.108-21.01-47.268-46.915-47.268
		c-20.728,0-40.714,11.299-46.915,30.077c-6.977-4.137-12.648-4.295-21.327-4.295c-25.914,0-49.852,20.736-49.852,46.836
		c-25.914,0-43.978,21.592-43.978,47.7s21.001,47.277,46.906,47.277h12.798h123.696h8.529c30.624,0,55.453-25.014,55.453-55.859
		C512,95.418,495.241,74.055,472.3,67.211z"/>
</g>
<g>
</g>
<g>
</g>
<g>
</g>
<g>
</g>
<g>
</g>
<g>
</g>
<g>
</g>
<g>
</g>
<g>
</g>
<g>
</g>
<g>
</g>
<g>
</g>
<g>
</g>
<g>
</g>
<g>
</g>
</svg>
