<svg id="Layer_1" height="512" viewBox="0 0 64 64" width="512" xmlns="http://www.w3.org/2000/svg"><g><g clip-rule="evenodd" fill-rule="evenodd"><path d="m21.313 38.619c5.754 0 10.432-4.678 10.432-10.404 0-5.725-4.678-10.402-10.432-10.402-5.726 0-10.403 4.678-10.403 10.402 0 5.726 4.678 10.404 10.403 10.404z" fill="#ffbc42"/><path d="m13.802 53.842h39.175c4.28 0 7.738-3.459 7.738-7.74 0-4.025-3.09-7.313-7.029-7.682.51-1.389.821-2.863.821-4.422 0-6.945-5.612-12.557-12.557-12.557-5.896 0-10.857 4.109-12.189 9.637-1.474-1.105-3.316-1.785-5.329-1.785-4.904 0-8.9 3.996-8.9 8.93v.367c-.539-.141-1.135-.197-1.729-.197-4.252 0-7.71 3.457-7.71 7.709-.001 4.281 3.457 7.74 7.709 7.74z" fill="#4f86c6"/></g><g><path d="m20.313 10.158h2v4.168h-2z" fill="#ffbc42"/></g><g><path d="m7.957 15.919h4.149v2.001h-4.149z" fill="#ffbc42" transform="matrix(.711 .704 -.704 .711 14.81 -2.161)"/></g><g><path d="m3.285 27.215h4.139v2h-4.139z" fill="#ffbc42"/></g><g><path d="m31.609 14.854h2v4.129h-2z" fill="#ffbc42" transform="matrix(.707 .707 -.707 .707 21.515 -18.103)"/></g></g></svg>