<svg id="Layer_1" enable-background="new 0 0 512 512" height="512" viewBox="0 0 512 512" width="512" xmlns="http://www.w3.org/2000/svg"><g clip-rule="evenodd" fill-rule="evenodd"><path d="m293.633 275.993h47.008v82.288h-47.008z" fill="#656565" transform="matrix(.707 -.707 .707 .707 -131.362 317.136)"/><ellipse cx="178.2" cy="178.2" fill="#ffd54f" rx="168.2" ry="168.2" transform="matrix(.707 -.707 .707 .707 -73.813 178.2)"/><ellipse cx="178.2" cy="178.2" fill="#f2f2f2" rx="121.501" ry="121.502" transform="matrix(.707 -.707 .707 .707 -73.813 178.2)"/><g fill="#515151"><path d="m323.08 348.479 25.4-25.399c8.39-8.39 22.119-8.39 30.508 0l116.719 116.719c8.39 8.39 8.39 22.118 0 30.508l-25.4 25.399c-8.39 8.39-22.118 8.39-30.508 0l-116.719-116.718c-8.389-8.39-8.389-22.119 0-30.509z"/><path d="m387.569 72.268c-5.501-.323-9.698-5.046-9.375-10.547s5.046-9.698 10.547-9.375l62.631 3.874c5.501.323 9.698 5.046 9.375 10.547-.021.357-.061.709-.118 1.055l-10.471 61.871c-.906 5.437-6.048 9.109-11.485 8.203s-9.109-6.048-8.203-11.485l6.368-37.623-132.972 93.735-.004-.006c-3.361 2.364-7.981 2.485-11.519-.033l-69.686-49.467-94.437 75.136c-4.315 3.43-10.593 2.713-14.024-1.602-3.43-4.315-2.713-10.593 1.602-14.023l100.299-79.8c3.684-2.929 8.801-2.834 12.353-.056l69.686 49.467 124.42-87.707z"/></g></g></svg>