<svg height="512pt" viewBox="0 0 512 511" width="512pt" xmlns="http://www.w3.org/2000/svg"><path d="m256 365.769531h-241.429688c-8.046874 0-14.570312 6.519531-14.570312 14.570313v2.078125c0 8.046875 6.523438 14.570312 14.570312 14.570312h482.859376c8.046874 0 14.570312-6.523437 14.570312-14.570312v-2.078125c0-8.046875-6.523438-14.570313-14.570312-14.570313zm0 0" fill="#b3bfc4"/><path d="m497.429688 365.769531h-39.542969c8.046875 0 14.566406 6.523438 14.566406 14.570313v2.078125c0 8.046875-6.519531 14.570312-14.566406 14.570312h39.542969c8.046874 0 14.570312-6.523437 14.570312-14.570312v-2.078125c0-8.050782-6.523438-14.570313-14.570312-14.570313zm0 0" fill="#9bacb2"/><path d="m256 396.988281h-234.144531l18.636719 102.507813c1.261718 6.929687 7.292968 11.964844 14.332031 11.964844h402.351562c7.039063 0 13.074219-5.035157 14.332031-11.964844l18.640626-102.507813zm0 0" fill="#b3bfc4"/><path d="m256 396.988281h-234.144531l2.648437 14.570313h408.445313c12.984375 0 22.796875 11.757812 20.476562 24.535156l-13.703125 75.367188h17.453125c7.039063 0 13.074219-5.035157 14.332031-11.964844l18.636719-102.507813zm0 0" fill="#9bacb2"/><path d="m177.949219 365.769531s0-169.105469 0-237.269531c0-37.480469-10.40625-128-78.046875-128s-78.050782 90.519531-78.050782 128v237.269531zm0 0" fill="#db8d37"/><path d="m99.902344.5c-2.878906 0-5.648438.175781-8.324219.492188 44.582031 5.285156 61.371094 42.621093 67.082031 81.605468-50.054687 20.207032-82.691406 56.003906-82.691406 97.617188 0 17.308594 5.886719 34.542968 17.027344 49.839844 2.441406 3.347656 3.785156 7.59375 3.785156 11.957031v123.757812h81.167969s0-169.109375 0-237.269531c0-37.480469-10.402344-128-78.046875-128zm0 0" fill="#bd7029"/><path d="m148.8125 137.867188c0-9.773438-21.898438-17.691407-48.910156-17.691407-27.011719 0-48.910156 7.917969-48.910156 17.691407 0 9.769531 21.898437 17.691406 48.910156 17.691406 27.011718 0 48.910156-7.921875 48.910156-17.691406zm0 0" fill="#f0a65f"/><path d="m99.902344 155.558594c27.011718 0 48.910156-7.921875 48.910156-17.691406 0-9.589844-21.089844-17.390626-47.402344-17.679688-9.601562 10.308594-16.761718 21.710938-21 33.90625 5.976563.9375 12.5625 1.464844 19.492188 1.464844zm0 0" fill="#e28540"/><path d="m148.8125 211.753906c0-9.773437-21.898438-17.691406-48.910156-17.691406-27.011719 0-48.910156 7.917969-48.910156 17.691406 0 9.769532 21.898437 17.6875 48.910156 17.6875 27.011718 0 48.910156-7.917968 48.910156-17.6875zm0 0" fill="#f0a65f"/><path d="m92.425781 229.238281c2.4375.132813 4.933594.207031 7.476563.207031 27.011718 0 48.910156-7.921874 48.910156-17.691406 0-9.773437-21.898438-17.691406-48.910156-17.691406-8.035156 0-15.609375.703125-22.296875 1.945312 2.394531 11.566407 7.40625 22.832032 14.820312 33.230469zm0 0" fill="#e28540"/><path d="m148.8125 285.640625c0-9.773437-21.898438-17.691406-48.910156-17.691406-27.011719 0-48.910156 7.917969-48.910156 17.691406 0 9.769531 21.898437 17.6875 48.910156 17.6875 27.011718 0 48.910156-7.917969 48.910156-17.6875zm0 0" fill="#f0a65f"/><path d="m99.902344 303.328125c27.011718 0 48.910156-7.917969 48.910156-17.6875 0-9.773437-21.898438-17.691406-48.910156-17.691406-1.050782 0-2.089844.015625-3.121094.039062v35.300781c1.03125.023438 2.070312.039063 3.121094.039063zm0 0" fill="#e28540"/><path d="m256 365.769531h235.1875v-113.351562c0-8.683594 2.660156-17.195313 7.773438-24.214844 8.386718-11.515625 13.039062-24.222656 13.039062-37.582031 0-52.125-70.820312-94.382813-158.179688-94.382813h-98.859374zm0 0" fill="#e28540"/><path d="m353.820312 96.238281h-33.300781c87.359375 0 158.179688 42.257813 158.179688 94.382813 0 13.359375-4.652344 26.066406-13.042969 37.582031-5.109375 7.019531-7.769531 15.53125-7.769531 24.214844v113.351562h33.300781v-113.351562c0-8.683594 2.660156-17.195313 7.773438-24.214844 8.386718-11.515625 13.039062-24.222656 13.039062-37.582031 0-52.125-70.820312-94.382813-158.179688-94.382813zm0 0" fill="#db7835"/><path d="m254.960938 96.238281c-87.363282 0-158.179688 42.257813-158.179688 94.382813 0 13.359375 4.652344 26.066406 13.039062 37.582031 5.113282 7.019531 7.773438 15.53125 7.773438 24.214844v113.351562h275.773438v-113.351562c0-8.683594 2.65625-17.195313 7.769531-24.214844 8.390625-11.515625 12-24.222656 12-37.582031 0-52.125-70.816407-94.382813-158.175781-94.382813zm0 0" fill="#f0a65f"/><path d="m148.8125 365.769531v-113.351562c0-15.511719-4.757812-30.238281-13.757812-42.59375-4.679688-6.429688-7.054688-12.890625-7.054688-19.203125 0-29.816406 54.296875-63.160156 126.960938-63.160156 72.660156 0 126.957031 33.34375 126.957031 63.160156 0 6.316406-2.375 12.773437-7.054688 19.203125-9 12.355469-13.757812 27.082031-13.757812 42.589843v113.355469zm0 0" fill="#fff3d7"/><path d="m381.917969 190.621094c0-29.816406-54.296875-63.160156-126.957031-63.160156-4.050782 0-8.039063.105468-11.96875.308593 66.578124 3.402344 114.992187 34.699219 114.992187 62.851563 0 6.316406-2.375 12.773437-7.054687 19.203125-9 12.355469-12.714844 27.003906-12.714844 42.511719v113.433593h22.890625s0-113.277343 0-113.355469c0-15.507812 4.757812-30.234374 13.757812-42.589843 4.683594-6.429688 7.054688-12.886719 7.054688-19.203125zm0 0" fill="#f9dbaa"/></svg>