<svg id="Capa_1" enable-background="new 0 0 497 497" height="512" viewBox="0 0 497 497" width="512" xmlns="http://www.w3.org/2000/svg"><g><path d="m486.942 274.855c0 98.856-45.76 178.995-114.614 178.995s-124.672-80.139-124.672-178.995 55.818-178.995 124.672-178.995 114.614 80.139 114.614 178.995z" fill="#ff8c5a"/><path d="m284.298 131.488 3.503-82.246c.217-3.303-1.598-5.087-5.157-5.087l-20.116-1.006h-37.57c-3.558 0-6.38 2.79-6.163 6.092l3.503 82.246h62z" fill="#6ed5a1"/><path d="m282.644 43.15h-20.116c3.558 0 6.38 2.79 6.163 6.092l-3.503 82.246h20.116l3.503-82.246c.217-3.303-2.604-6.092-6.163-6.092z" fill="#46cc8d"/><ellipse cx="124.672" cy="274.855" fill="#ff8c5a" rx="124.672" ry="178.995"/><path d="m372.328 95.859c-5.107 0-10.141.451-15.087 1.308 61.739 10.694 109.585 86.164 109.585 177.687s-47.846 166.994-109.585 177.688c4.946.857 9.98 1.308 15.087 1.308 68.854 0 124.672-80.139 124.672-178.995s-55.818-178.996-124.672-178.996z" fill="#ff7350"/><ellipse cx="181.67" cy="274.855" fill="#ffaa5f" rx="123.895" ry="177.879"/><ellipse cx="315.33" cy="274.855" fill="#ffaa5f" rx="123.895" ry="177.879"/><ellipse cx="248.5" cy="274.855" fill="#ffc369" rx="118.908" ry="170.72"/></g></svg>