<svg height="512" viewBox="0 0 58 46" width="512" xmlns="http://www.w3.org/2000/svg"><g id="Page-1" fill="none" fill-rule="evenodd"><g id="018---Browser"><path id="Path" d="m58 6v37c0 1.6568542-1.3431458 3-3 3h-52c-1.65685425 0-3-1.3431458-3-3v-37z" fill="#ecf0f1"/><path id="Path" d="m58 3v5h-58v-5c0-1.65685425 1.34314575-3 3-3h52c1.6568542 0 3 1.34314575 3 3z" fill="#4482c3"/><circle id="Oval" cx="4" cy="4" fill="#7ed09e" r="1"/><circle id="Oval" cx="8" cy="4" fill="#f3d55b" r="1"/><circle id="Oval" cx="12" cy="4" fill="#ff5364" r="1"/><path id="Path" d="m53 36.78v3.44c0 .5522847-.4477153 1-1 1h-46c-.55228475 0-1-.4477153-1-1v-3.44c-.00072934-.4739844.2357419-.9168988.63-1.18l2.56-1.69 2.49-6.03-.61-3c-.0915914-.4650068.0546774-.9450686.39-1.28l3.14-3.14c.3349314-.3353226.8149932-.4815914 1.28-.39l3 .61 6.03-2.49 1.69-2.56c.2631012-.3942581.7060156-.6307293 1.18-.63h4.44c.4739844-.0007293.9168988.2357419 1.18.63l1.69 2.56 6.03 2.49 3-.61c.4650068-.0915914.9450686.0546774 1.28.39l3.14 3.14c.3353226.3349314.4815914.8149932.39 1.28l-.61 3 2.49 6.03 2.56 1.69c.3942581.2631012.6307293.7060156.63 1.18z" fill="#bdc3c7"/><path id="Path" d="m43 39c-.0007614.743222-.0575893 1.4853277-.17 2.22h-27.66c-.1124107-.7346723-.1692386-1.476778-.17-2.22 0-7.7319865 6.2680135-14 14-14s14 6.2680135 14 14z" fill="#7f8c8d"/></g></g></svg>