<?xml version="1.0" encoding="iso-8859-1"?>
<!-- Generator: Adobe Illustrator 19.0.0, SVG Export Plug-In . SVG Version: 6.00 Build 0)  -->
<svg version="1.1" id="Capa_1" xmlns="http://www.w3.org/2000/svg" xmlns:xlink="http://www.w3.org/1999/xlink" x="0px" y="0px"
	 viewBox="0 0 512.014 512.014" style="enable-background:new 0 0 512.014 512.014;" xml:space="preserve">
<path style="fill:#F2F2F2;" d="M378.068,0H42.676C19.092,0,0.009,19.104,0.009,42.667v323.648c0,23.563,19.083,42.667,42.667,42.667
	h335.381c23.563,0,42.667-19.104,42.667-42.667V42.667C420.735,19.104,401.631,0,378.068,0"/>
<rect x="168.009" y="0.012" style="fill:#FFD15C;" width="84.693" height="79.083"/>
<g>
	<rect x="163.124" y="193.931" style="fill:#ACB3BA;" width="14.955" height="94.101"/>
	<rect x="304.073" y="193.931" style="fill:#ACB3BA;" width="14.955" height="94.101"/>
	<rect x="237.684" y="193.931" style="fill:#ACB3BA;" width="10.229" height="76.565"/>
	<rect x="194.452" y="193.931" style="fill:#ACB3BA;" width="7.52" height="76.565"/>
	<rect x="258.676" y="193.931" style="fill:#ACB3BA;" width="7.52" height="76.565"/>
	<rect x="215.369" y="193.931" style="fill:#ACB3BA;" width="11.317" height="76.565"/>
	<rect x="277.343" y="193.931" style="fill:#ACB3BA;" width="10.869" height="76.565"/>
</g>
<rect x="324.195" y="327.097" transform="matrix(-0.7071 0.7071 -0.7071 -0.7071 857.8467 355.3105)" style="fill:#334A5E;" width="62.282" height="56.447"/>
<path style="fill:#40596B;" d="M134.004,133.941c-59.189,59.168-59.104,155.061,0,214.165s154.901,59.104,214.091-0.085
	c59.104-59.104,59.104-154.891,0-214.005S193.108,74.837,134.004,133.941 M319.849,319.776c-43.477,43.456-114.027,43.456-157.504,0
	c-43.477-43.477-43.477-114.037,0-157.504c43.467-43.477,113.941-43.392,157.408,0.085
	C363.231,205.813,363.305,276.288,319.849,319.776"/>
<path style="fill:#FF7058;" d="M508.745,445.835c-31.349-39.253-67.733-73.483-109.248-102.581
	c-3.221-2.272-7.669-1.856-10.443,0.939l-44.853,44.853c-2.805,2.795-3.2,7.232-0.949,10.453
	c29.099,41.525,63.339,77.899,102.581,109.248c6.027,4.832,14.805,4.213,20.245-1.248l41.419-41.419
	C512.948,460.629,513.567,451.872,508.745,445.835"/>
<g>
</g>
<g>
</g>
<g>
</g>
<g>
</g>
<g>
</g>
<g>
</g>
<g>
</g>
<g>
</g>
<g>
</g>
<g>
</g>
<g>
</g>
<g>
</g>
<g>
</g>
<g>
</g>
<g>
</g>
</svg>
