<svg height="512pt" viewBox="-149 0 512 512.00003" width="512pt" xmlns="http://www.w3.org/2000/svg"><path d="m179.675781 103.65625v211.585938h-146.191406v-296.996094c0-10.058594 8.179687-18.246094 18.238281-18.246094h24.308594c10.628906 0 20.890625 1.601562 30.550781 4.597656 42.28125 13.066406 73.09375 52.535156 73.09375 99.058594zm0 0" fill="#f7ecd9"/><path d="m179.675781 103.65625v211.585938h-73.09375v-310.644532c42.28125 13.066406 73.09375 52.535156 73.09375 99.058594zm0 0" fill="#edd7b0"/><path d="m121.609375 177.820312v137.421876h-30.058594v-137.421876c0-8.304687 6.734375-15.027343 15.03125-15.027343 8.292969 0 15.027344 6.722656 15.027344 15.027343zm0 0" fill="#ffd15e"/><path d="m121.609375 177.820312v137.421876h-15.027344v-152.449219c8.292969 0 15.027344 6.722656 15.027344 15.027343zm0 0" fill="#ffa547"/><path d="m159.636719 334.878906v158.875c0 10.058594-8.179688 18.246094-18.238281 18.246094h-69.636719c-10.058594 0-18.234375-8.1875-18.234375-18.246094v-158.875zm0 0" fill="#c6865c"/><path d="m106.582031 334.878906h53.054688v158.875c0 10.058594-8.179688 18.246094-18.238281 18.246094h-34.816407zm0 0" fill="#9b5e34"/><path d="m213.160156 303.417969v43.277343c0 10.058594-8.1875 18.246094-18.246094 18.246094h-176.667968c-10.058594 0-18.246094-8.1875-18.246094-18.246094v-43.277343c0-10.058594 8.1875-18.234375 18.246094-18.234375h176.667968c10.058594 0 18.246094 8.175781 18.246094 18.234375zm0 0" fill="#9b5e34"/><path d="m213.160156 303.417969v43.277343c0 10.058594-8.1875 18.246094-18.246094 18.246094h-88.332031v-79.757812h88.332031c10.058594 0 18.246094 8.175781 18.246094 18.234375zm0 0" fill="#824e2b"/></svg>