<?xml version="1.0" encoding="iso-8859-1"?>
<!-- Generator: Adobe Illustrator 19.0.0, SVG Export Plug-In . SVG Version: 6.00 Build 0)  -->
<svg xmlns="http://www.w3.org/2000/svg" xmlns:xlink="http://www.w3.org/1999/xlink" version="1.1" id="Layer_1" x="0px" y="0px" viewBox="0 0 513.6 513.6" style="enable-background:new 0 0 513.6 513.6;" xml:space="preserve">
<path style="fill:#E8EAE9;" d="M118.4,237.539l-86.4,86.4c-42.667,42.667-42.667,113.067,0,156.8  c43.733,42.667,114.133,42.667,156.8,0l86.4-86.4L118.4,237.539z"/>
<polygon style="fill:#CED6E0;" points="347.733,130.872 179.2,298.339 120.533,392.206 214.4,333.539 381.867,165.006 "/>
<g>
	
		<rect x="328.852" y="135.143" transform="matrix(0.7071 -0.7071 0.7071 0.7071 -12.7598 294.9462)" style="fill:#8AD7F8;" width="41.6" height="55.466"/>
	<path style="fill:#8AD7F8;" d="M400,5.006l-39.467,39.467c-27.733,27.733-33.067,73.6-7.467,104.533   c28.8,35.2,81.067,37.333,113.067,5.333l42.667-42.667c6.4-6.4,6.4-17.067,0-23.467L424.533,3.939C416-0.328,406.4-0.328,400,5.006   z M433.067,123.406c-11.733,11.733-32,11.733-43.733,0s-11.733-32,0-43.733l22.4-22.4l43.733,43.733L433.067,123.406z"/>
</g>
<g>
</g>
<g>
</g>
<g>
</g>
<g>
</g>
<g>
</g>
<g>
</g>
<g>
</g>
<g>
</g>
<g>
</g>
<g>
</g>
<g>
</g>
<g>
</g>
<g>
</g>
<g>
</g>
<g>
</g>
</svg>
