<?xml version="1.0" encoding="iso-8859-1"?>
<!-- Generator: Adobe Illustrator 19.0.0, SVG Export Plug-In . SVG Version: 6.00 Build 0)  -->
<svg version="1.1" id="Capa_1" xmlns="http://www.w3.org/2000/svg" xmlns:xlink="http://www.w3.org/1999/xlink" x="0px" y="0px"
	 viewBox="0 0 512 512" style="enable-background:new 0 0 512 512;" xml:space="preserve">
<polygon style="fill:#0D53C4;" points="270.971,297.854 270.971,234.522 241.029,234.522 241.029,297.854 53.214,297.854 
	53.214,390.166 83.156,390.166 83.156,327.903 241.029,327.903 241.029,390.166 270.971,390.166 270.971,327.903 428.843,327.903 
	428.843,390.166 458.785,390.166 458.785,297.854 "/>
<polygon style="fill:#084795;" points="270.971,297.854 270.971,234.522 255.504,234.522 255.504,390.166 270.971,390.166 
	270.971,327.903 428.843,327.903 428.843,390.166 458.785,390.166 458.785,297.854 "/>
<rect y="375.14" style="fill:#FC196B;" width="136.37" height="136.86"/>
<rect x="187.81" y="375.14" style="fill:#FDDA50;" width="136.37" height="136.86"/>
<rect x="375.63" y="375.14" style="fill:#7A88E5;" width="136.37" height="136.86"/>
<rect x="255.5" y="375.14" style="fill:#FABE3D;" width="68.68" height="136.86"/>
<rect x="375.63" y="375.14" style="fill:#6F7AE2;" width="136.37" height="136.86"/>
<path style="fill:#E1E5FA;" d="M372.544,85.189V77.63c0-42.805-34.701-77.63-77.353-77.63h-6.028
	c-37.532,0-68.907,26.966-75.899,62.605h-13.836c-39.442,0-72.296,28.846-78.718,66.621c-27.022,6.154-47.256,30.454-47.256,59.409
	c0,33.587,27.227,60.912,60.695,60.912h220.404c45.561,0,82.628-37.2,82.628-82.866C437.331,126.939,409.894,93.546,372.544,85.189z
	"/>
<path style="fill:#C5CAF6;" d="M372.544,85.189V77.63c0-42.805-34.701-77.63-77.353-77.63h-6.028
	c-12.057,0-23.477,2.785-33.658,7.745v241.802h99.048c45.561,0,82.628-37.2,82.628-82.866
	C437.331,126.939,409.894,93.546,372.544,85.189z"/>
<g>
</g>
<g>
</g>
<g>
</g>
<g>
</g>
<g>
</g>
<g>
</g>
<g>
</g>
<g>
</g>
<g>
</g>
<g>
</g>
<g>
</g>
<g>
</g>
<g>
</g>
<g>
</g>
<g>
</g>
</svg>
