<svg id="Flat_Icons" height="512" viewBox="0 0 64 64" width="512" xmlns="http://www.w3.org/2000/svg" data-name="Flat Icons"><path d="m37.7 25.74h-11.33l-7.74-17.21a1.79 1.79 0 0 1 1.63-2.53h7.4a1.78 1.78 0 0 1 1.63 1.06z" fill="#ed6552"/><path d="m25.47 23.73.91 2.01h9.51l.9-2.01-5.66-12.59z" fill="#dd5547"/><path d="m26.3 26.32h11.33l7.74-17.21a1.79 1.79 0 0 0 -1.63-2.53h-7.4a1.78 1.78 0 0 0 -1.63 1.06z" fill="#ed6552"/><ellipse cx="32" cy="41.26" fill="#fedf4b" rx="16.93" ry="16.74"/><ellipse cx="32" cy="41.26" fill="#fff3ba" rx="12.09" ry="11.95"/><path d="m32 34.05 1.81 5.51h5.87l-4.75 3.41 1.81 5.51-4.74-3.41-4.74 3.41 1.81-5.51-4.75-3.41h5.87z" fill="#fdc558"/><path d="m29.32 47-2.06 1.48.8-2.44q.6.5 1.26.96z" fill="#f4a822"/><path d="m40.31 50a12.16 12.16 0 0 1 -8.31 3.22 12 12 0 0 1 -12.09-12 11.8 11.8 0 0 1 2.2-6.88 16.63 16.63 0 0 0 5.95 11.66l-.8 2.44 2.06-1.44a17 17 0 0 0 9.68 3z" fill="#feec93"/><path d="m47.66 47.63a17 17 0 0 1 -32.59-6.37 16.68 16.68 0 0 1 8.27-14.36 16.63 16.63 0 0 0 -1.27 6.36v1.12a11.8 11.8 0 0 0 -2.2 6.88 12 12 0 0 0 12.13 11.96 12.16 12.16 0 0 0 8.31-3.22 17.21 17.21 0 0 0 7.35-2.37z" fill="#f4d037"/></svg>