<?xml version="1.0" encoding="iso-8859-1"?>
<!-- Generator: Adobe Illustrator 19.0.0, SVG Export Plug-In . SVG Version: 6.00 Build 0)  -->
<svg xmlns="http://www.w3.org/2000/svg" xmlns:xlink="http://www.w3.org/1999/xlink" version="1.1" id="Capa_1" x="0px" y="0px" viewBox="0 0 512.001 512.001" style="enable-background:new 0 0 512.001 512.001;" xml:space="preserve">
<path style="fill:#8CFFF3;" d="M404.769,140.012c-9.052-9.052-23.728-9.052-32.78,0l-166.979,166.98  c-15.087,15.087-39.547,15.087-54.634,0c-15.087-15.087-15.087-39.547,0-54.634l183.369-183.37  c30.173-30.173,79.094-30.173,109.267,0l32.78-32.78c-48.277-48.277-126.551-48.277-174.828,0l-183.369,183.37  c-33.19,33.19-33.19,87.003,0,120.194s87.003,33.19,120.194,0l166.979-166.98C413.821,163.74,413.821,149.064,404.769,140.012z"/>
<path style="fill:#9F9F9F;" d="M475.792,36.208l-38.243-5.463l5.463,38.243c30.173,30.173,30.173,79.094,0,109.267L178.256,443.012  c-30.173,30.173-79.094,30.173-109.267,0l-38.243-5.463l5.463,38.243c48.277,48.277,126.551,48.277,174.828,0l264.757-264.757  C524.07,162.759,524.07,84.485,475.792,36.208z"/>
<path style="fill:#BFBFBF;" d="M68.988,333.745l81.386-81.386l-32.78-32.78l-81.386,81.386c-48.277,48.277-48.277,126.551,0,174.828  l32.78-32.78C38.815,412.839,38.815,363.918,68.988,333.745z"/>
<path style="fill:#DBDBDB;" d="M404.769,140.012c-9.052-9.052-23.728-9.052-32.78,0l-166.979,166.98  c-15.087,15.087-39.547,15.087-54.634,0c-15.087-15.087-15.087-39.547,0-54.634l183.369-183.37  c30.173-30.173,79.094-30.173,109.267,0l32.78-32.78c-48.277-48.277-126.551-48.277-174.828,0l-183.369,183.37  c-33.19,33.19-33.19,87.003,0,120.194s87.003,33.19,120.194,0l166.979-166.98C413.821,163.74,413.821,149.064,404.769,140.012z"/>
<g>
</g>
<g>
</g>
<g>
</g>
<g>
</g>
<g>
</g>
<g>
</g>
<g>
</g>
<g>
</g>
<g>
</g>
<g>
</g>
<g>
</g>
<g>
</g>
<g>
</g>
<g>
</g>
<g>
</g>
</svg>
