<svg id="Layer_1" height="512" viewBox="0 0 100 100" width="512" xmlns="http://www.w3.org/2000/svg" data-name="Layer 1"><path d="m20.53 6.49h63.11a4.28 4.28 0 0 1 4.28 4.28v78.64a4.28 4.28 0 0 1 -4.28 4.28h-63.11a2.73 2.73 0 0 1 -2.73-2.69v-81.79a2.73 2.73 0 0 1 2.73-2.72z" fill="#c4a182"/><path d="m20.53 6.49h17.68a0 0 0 0 1 0 0v87.2a0 0 0 0 1 0 0h-17.68a2.73 2.73 0 0 1 -2.73-2.69v-81.79a2.73 2.73 0 0 1 2.73-2.72z" fill="#b5504e"/><g opacity=".05"><path d="m86.35 92.72a4.23 4.23 0 0 1 -2.71 1h-63.11a2.73 2.73 0 0 1 -2.73-2.72v-81.78a2.73 2.73 0 0 1 2.73-2.73h11.27v21.36a65.85 65.85 0 0 0 54.55 64.87z"/></g><g fill="#845a3d"><rect height="6.99" rx="3.49" width="14.21" x="11.96" y="81.04"/><rect height="6.99" rx="3.49" width="14.21" x="11.96" y="63.9"/><rect height="6.99" rx="3.49" width="14.21" x="11.96" y="46.75"/><rect height="6.99" rx="3.49" width="14.21" x="11.96" y="29.61"/><rect height="6.99" rx="3.49" width="14.21" x="11.96" y="12.46"/></g></svg>