<svg height="512" viewBox="0 0 58 58" width="512" xmlns="http://www.w3.org/2000/svg"><g id="Page-1" fill="none" fill-rule="evenodd"><g id="018---Pencil" fill-rule="nonzero"><path id="Shape" d="m22.2 51.72c.3946852-.3159475.7719081-.6531114 1.13-1.01l24.79-24.79c.384351.3887775.9083066.6075665 1.455.6075665s1.070649-.218789 1.455-.6075665l1.46-1.45c.3888789-.3863314.6075642-.9118406.6075642-1.46s-.2186853-1.0736686-.6075642-1.46l2.19-2.19c4.4207906-4.4307849 4.4167403-11.60515915-.0090503-16.03094973s-11.6001648-4.42984087-16.0309497-.00905027l-2.19 2.19c-.3863314-.38887889-.9118406-.6075642-1.46-.6075642s-1.0736686.21868531-1.46.6075642l-1.45 1.46c-.3887775.38435096-.6075665.90830663-.6075665 1.455s.218789 1.07064904.6075665 1.455l-24.79 24.79c-.35688863.3580919-.69405247.7353148-1.01 1.13z" fill="#f3d55b"/><path id="Shape" d="m52.49 24.47-1.46 1.45c-.384351.3887775-.9083066.6075665-1.455.6075665s-1.070649-.218789-1.455-.6075665l-4.38-4.37-7.29-7.29-4.37-4.38c-.3887775-.38435096-.6075665-.90830663-.6075665-1.455s.218789-1.07064904.6075665-1.455l1.45-1.46c.3863314-.38887889.9118406-.6075642 1.46-.6075642s1.0736686.21868531 1.46.6075642l16.04 16.04c.3888789.3863314.6075642.9118406.6075642 1.46s-.2186853 1.0736686-.6075642 1.46z" fill="#bdc3c7"/><path id="Shape" d="m22.2 51.72c-3.41 2.75-8.71 4.73-13.22 5.67.02849543-2.2284755-.84418792-4.3740142-2.42008685-5.9499132-1.57589892-1.5758989-3.72143769-2.4485822-5.94991315-2.4200868.94-4.51 2.92-9.81 5.67-13.22l5.7 1.15c.4384175.0866007.8377771.3108025 1.14.64.2899419.3180604.4688964.7215852.51 1.15l.38 3.43c.1140974.9539146.8660854 1.7059026 1.82 1.82l3.43.38c.4284148.0411036.8319396.2200581 1.15.51.3291975.3022229.5533993.7015825.64 1.14z" fill="#fdd7ad"/><path id="Shape" d="m8.98 57.39c-3.95.82-7.29.84-8.25-.12s-.94-4.3-.12-8.25c2.22847546-.0284954 4.37401423.8441879 5.94991315 2.4200868 1.57589893 1.575899 2.44858228 3.7214377 2.42008685 5.9499132z" fill="#464f5d"/><path id="Shape" d="m54.68 19.36-2.19 2.19-16.04-16.04 2.19-2.19c4.4307849-4.4207906 11.6051591-4.41674031 16.0309497.00905027s4.4298409 11.60016483.0090503 16.03094973z" fill="#ff5364"/><path id="Shape" d="m43.74 21.55-23.33 23.33c-.3180604-.2899419-.7215852-.4688964-1.15-.51l-3.43-.38c-.9539146-.1140974-1.7059026-.8660854-1.82-1.82l-.38-3.43c-.0411036-.4284148-.2200581-.8319396-.51-1.15l23.33-23.33z" fill="#f0c419"/></g></g></svg>