<?xml version="1.0" encoding="iso-8859-1"?>
<!-- Generator: Adobe Illustrator 19.0.0, SVG Export Plug-In . SVG Version: 6.00 Build 0)  -->
<svg version="1.1" id="Capa_1" xmlns="http://www.w3.org/2000/svg" xmlns:xlink="http://www.w3.org/1999/xlink" x="0px" y="0px"
	 viewBox="0 0 512 512" style="enable-background:new 0 0 512 512;" xml:space="preserve">
<path style="fill:#11A892;" d="M354.23,321.75c-15.77,35.54-34.56,94.8-34.56,175.25v15H192.33v-15
	c0-80.46-18.79-139.71-34.56-175.25l13.71-6.08l13.71-6.09c0.87,1.96,1.75,4,2.63,6.09h136.36c0.88-2.09,1.76-4.13,2.63-6.09
	l13.71,6.09L354.23,321.75z"/>
<path style="fill:#0F9887;" d="M354.23,321.75c-15.77,35.54-34.56,94.8-34.56,175.25v15H256V315.67h68.18
	c0.88-2.09,1.76-4.13,2.63-6.09l13.71,6.09L354.23,321.75z"/>
<path style="fill:#00DD7E;" d="M506.11,268.16c0,53.84-43.8,97.65-97.65,97.65c-26.52,0-51.46-10.67-69.65-29.22
	c-22.18,21.23-51.5,33.11-82.81,33.11s-60.63-11.88-82.81-33.11c-18.19,18.55-43.13,29.22-69.65,29.22
	c-53.85,0-97.65-43.81-97.65-97.65c0-35.28,18.94-67.45,49.07-84.72c-0.01-0.48-0.02-0.97-0.02-1.46c0-42.78,33.99-77.78,76.39-79.4
	c5.11-26.2,18.37-50.16,38.19-68.59C193.09,12.07,223.8,0,256,0s62.91,12.07,86.48,33.99c19.82,18.43,33.08,42.39,38.19,68.59
	c42.4,1.62,76.39,36.62,76.39,79.4c0,0.49-0.01,0.98-0.02,1.46C487.17,200.71,506.11,232.88,506.11,268.16z"/>
<path style="fill:#00CB7E;" d="M506.11,268.16c0,53.84-43.8,97.65-97.65,97.65c-26.52,0-51.46-10.67-69.65-29.22
	c-22.18,21.23-51.5,33.11-82.81,33.11V0c32.2,0,62.91,12.07,86.48,33.99c19.82,18.43,33.08,42.39,38.19,68.59
	c42.4,1.62,76.39,36.62,76.39,79.4c0,0.49-0.01,0.98-0.02,1.46C487.17,200.71,506.11,232.88,506.11,268.16z"/>
<g>
</g>
<g>
</g>
<g>
</g>
<g>
</g>
<g>
</g>
<g>
</g>
<g>
</g>
<g>
</g>
<g>
</g>
<g>
</g>
<g>
</g>
<g>
</g>
<g>
</g>
<g>
</g>
<g>
</g>
</svg>
