<?xml version="1.0" encoding="iso-8859-1"?>
<!-- Generator: Adobe Illustrator 19.0.0, SVG Export Plug-In . SVG Version: 6.00 Build 0)  -->
<svg version="1.1" id="Capa_1" xmlns="http://www.w3.org/2000/svg" xmlns:xlink="http://www.w3.org/1999/xlink" x="0px" y="0px"
	 viewBox="0 0 512 512" style="enable-background:new 0 0 512 512;" xml:space="preserve">
<rect x="134.4" y="413.867" style="fill:#344A5E;" width="242.133" height="29.867"/>
<g>
	<path style="fill:#415A6B;" d="M137.6,357.333L78.933,473.6c-9.6,17.067,3.2,38.4,23.467,38.4c9.6,0,19.2-5.333,23.467-14.933
		l71.467-139.733H137.6z"/>
	<path style="fill:#415A6B;" d="M374.4,357.333h-58.667L387.2,497.067C391.467,505.6,401.067,512,410.667,512
		c19.2,0,32-20.267,23.467-38.4L374.4,357.333z"/>
</g>
<path style="fill:#8AD7F8;" d="M469.333,0H42.667C19.2,0,0,19.2,0,42.667v298.667C0,364.8,19.2,384,42.667,384h426.667
	C492.8,384,512,364.8,512,341.333V42.667C512,19.2,492.8,0,469.333,0z"/>
<rect x="42.667" y="42.667" style="fill:#F3F3F3;" width="426.667" height="298.667"/>
<g>
	<rect x="305.067" y="141.867" style="fill:#CED6E0;" width="126.933" height="23.467"/>
	<rect x="305.067" y="205.867" style="fill:#CED6E0;" width="126.933" height="23.467"/>
	<rect x="305.067" y="269.867" style="fill:#CED6E0;" width="126.933" height="23.467"/>
</g>
<polygon style="fill:#F3705A;" points="277.333,189.867 179.2,91.733 80,189.867 "/>
<rect x="110.933" y="189.867" style="fill:#FFD15C;" width="135.467" height="103.467"/>
<rect x="157.867" y="233.6" style="fill:#415A6B;" width="41.6" height="58.667"/>
<g>
</g>
<g>
</g>
<g>
</g>
<g>
</g>
<g>
</g>
<g>
</g>
<g>
</g>
<g>
</g>
<g>
</g>
<g>
</g>
<g>
</g>
<g>
</g>
<g>
</g>
<g>
</g>
<g>
</g>
</svg>
