<?xml version="1.0" encoding="iso-8859-1"?>
<!-- Generator: Adobe Illustrator 19.0.0, SVG Export Plug-In . SVG Version: 6.00 Build 0)  -->
<svg version="1.1" id="Capa_1" xmlns="http://www.w3.org/2000/svg" xmlns:xlink="http://www.w3.org/1999/xlink" x="0px" y="0px"
	 viewBox="0 0 464 464" style="enable-background:new 0 0 464 464;" xml:space="preserve">
<path style="fill:#FC88A1;" d="M232,8L0,200v256h464V200L232,8z"/>
<path style="fill:#FFF3C9;" d="M64,24h336v432H64V24z"/>
<path style="fill:#FDCD74;" d="M232,392L0,200v256h464V200L232,392z"/>
<path style="fill:#FC88A1;" d="M231.6,272l-81.96-82.248c-16.376-16.442-16.351-43.037,0.056-59.448
	c16.429-16.431,43.068-16.432,59.499-0.003c1.408,1.408,2.714,2.914,3.909,4.507L232,160l18.944-25.256
	c13.917-18.557,40.242-22.32,58.8-8.403c1.592,1.194,3.097,2.5,4.504,3.907c16.403,16.401,16.404,42.994,0.003,59.397
	c-0.02,0.02-0.039,0.039-0.059,0.059L231.6,272z"/>
<path style="fill:#FDC05E;" d="M464,200L232,392l-1.936-1.6L151.808,456H464V200z"/>
<g>
</g>
<g>
</g>
<g>
</g>
<g>
</g>
<g>
</g>
<g>
</g>
<g>
</g>
<g>
</g>
<g>
</g>
<g>
</g>
<g>
</g>
<g>
</g>
<g>
</g>
<g>
</g>
<g>
</g>
</svg>
