<?xml version="1.0" encoding="iso-8859-1"?>
<!-- Generator: Adobe Illustrator 19.0.0, SVG Export Plug-In . SVG Version: 6.00 Build 0)  -->
<svg version="1.1" id="Capa_1" xmlns="http://www.w3.org/2000/svg" xmlns:xlink="http://www.w3.org/1999/xlink" x="0px" y="0px"
	 viewBox="0 0 513.363 513.363" style="enable-background:new 0 0 513.363 513.363;" xml:space="preserve">
<path style="fill:#FFE28F;" d="M79.664,353.962c0,0,16.848,1.92,48.608-12.992c31.76-14.928,64.016-4.816,64.016-4.816
	s40.432,19.248,54.384,22.624c13.952,3.376,44.288,3.376,74.608,1.92c0,0,40.432-7.696,49.088,16.848c0,0,11.072-2.4,29.36-12.032
	c0,0,88.08-44.64,109.264-26.656c0,0,14.432,13.184-9.152,29.056c0,0-96.256,62.576-154.496,88.56c0,0-20.208,7.696-61.12,39.952
	c0,0-14.928,6.736-33.696-4.816c0,0-102.528-53.424-152.096-32.256L79.664,353.962z"/>
<g style="opacity:0.25;">
	<path style="fill:#EC9922;" d="M373.632,386.441c0,29.2-66.112,32.784-66.112,32.784c-9.92,5.232-24.24,6.336-24.24,6.336
		c-11.024-3.312-63.904-4.96-63.904-4.96c-30.304,3.312-45.728-7.712-45.728-7.712s11.568,13.216,40.768,12.672
		c0,0,47.936-2.208,59.232,8.816c0,0,19.472,4.96,36.592-8.272c0,0,9.952-6.064,21.536-6.064c0,0,35.264-3.312,41.872-23.136
		v-10.464H373.632z"/>
</g>
<g>
	<path style="fill:#F3F3F3;" d="M343.92,367.354l-11.504,1.408c-2.688,0.32-4.592,2.768-4.272,5.456l3.472,28.512
		c0.32,2.688,2.768,4.592,5.456,4.272l11.504-1.408c10.56-1.28,18.064-10.896,16.784-21.44
		C364.08,373.578,354.464,366.057,343.92,367.354z"/>
	<path style="fill:#F3F3F3;" d="M512.544,353.77c-33.904,2.176-31.968,25.28-31.968,25.28l0.48,0.832
		c11.616-7.312,18.8-11.984,18.8-11.984C507.44,362.81,511.072,357.978,512.544,353.77z"/>
</g>
<polygon style="fill:#E5E5E5;" points="105.424,490.346 63.952,498.378 39.744,359.338 79.776,351.514 "/>
<polygon style="fill:#4B9FD8;" points="0,512.25 64.784,501.546 38.528,351.514 0,358.777 "/>
<g style="opacity:0.25;">
	<path style="fill:#FDBC4B;" d="M393.2,406.922c4.416,7.648,14.192,10.272,21.856,5.856l40.96-23.632
		c7.664-4.416,10.272-14.208,5.856-21.856c-4.416-7.648-14.192-10.272-21.856-5.856l-40.96,23.632
		C391.408,389.497,388.784,399.273,393.2,406.922z"/>
</g>
<g style="opacity:0.3;">
	<path style="fill:#FFFFFF;" d="M205.024,386.026c-2.096,8.592,3.168,17.232,11.76,19.328l2.72,0.656
		c8.592,2.096,17.232-3.184,19.328-11.76c2.096-8.592-3.168-17.232-11.76-19.328l-2.72-0.656
		C215.76,372.169,207.12,377.434,205.024,386.026z"/>
	<path style="fill:#FFFFFF;" d="M120.752,365.53c-2.096,8.592,3.168,17.232,11.76,19.328l45.952,11.184
		c8.592,2.096,17.232-3.184,19.328-11.76c2.096-8.592-3.168-17.232-11.76-19.328L140.08,353.77
		C131.488,351.674,122.848,356.938,120.752,365.53z"/>
</g>
<path style="fill:#6F7070;" d="M479.76,200.09v-52.384l-41.696-12.32c-2.816-9.504-6.48-18.464-11.12-27.008L447.68,70.25
	l-37.04-37.056L372.512,53.93c-8.528-4.64-17.6-8.32-27.008-11.12l-12.32-41.696h-52.496l-12.32,41.696
	c-9.392,2.8-18.464,6.48-27.008,11.12l-38.112-20.72l-37.04,37.056l20.736,38.128c-4.64,8.528-8.32,17.504-11.12,27.008
	l-41.696,12.304v52.384l41.696,12.32c2.816,9.504,6.48,18.576,11.12,27.008l-20.736,38.128l37.04,37.152l38.128-20.848
	c8.528,4.64,17.6,8.416,27.008,11.12l12.32,41.808H333.2l12.32-41.808c9.392-2.704,18.464-6.48,27.008-11.12l38.128,20.848
	l37.04-37.152l-20.736-38.128c4.64-8.432,8.32-17.504,11.12-27.008L479.76,200.09z M306.944,242.538
	c-37.904,0-68.688-30.672-68.688-68.592s30.784-68.688,68.688-68.688c37.92,0,68.704,30.784,68.704,68.688
	S344.848,242.538,306.944,242.538z"/>
<path style="fill:#7D7D7D;" d="M306.944,292.169c-65.264,0-118.352-53.008-118.352-118.192c0-65.264,53.088-118.352,118.352-118.352
	s118.352,53.088,118.352,118.352C425.296,239.162,372.208,292.169,306.944,292.169z M306.944,87.626
	c-47.616,0-86.352,38.736-86.352,86.352c0,47.536,38.736,86.192,86.352,86.192s86.352-38.656,86.352-86.192
	C393.296,126.362,354.56,87.626,306.944,87.626z"/>
<g>
</g>
<g>
</g>
<g>
</g>
<g>
</g>
<g>
</g>
<g>
</g>
<g>
</g>
<g>
</g>
<g>
</g>
<g>
</g>
<g>
</g>
<g>
</g>
<g>
</g>
<g>
</g>
<g>
</g>
</svg>
