<svg id="Layer_1" enable-background="new 0 0 511.992 511.992" height="512" viewBox="0 0 511.992 511.992" width="512" xmlns="http://www.w3.org/2000/svg"><g><path d="m510.616 196.062c-3.944-12.141-15.729-20.486-32.329-22.897l-131.649-19.132-58.876-119.294c-7.424-15.043-19.003-23.671-31.767-23.671s-24.342 8.628-31.766 23.671l-58.873 119.293-131.65 19.132c-16.602 2.411-28.385 10.757-32.329 22.896-3.945 12.14.683 25.817 12.695 37.526l95.262 92.856-22.49 131.121c-2.957 17.247 2.065 27.561 6.8 33.176 5.538 6.568 13.617 10.186 22.749 10.186 6.905 0 14.257-2.024 21.851-6.018l117.752-61.907 117.752 61.905c7.595 3.993 14.946 6.019 21.853 6.019h.001c9.133 0 17.212-3.617 22.75-10.186 4.734-5.614 9.757-15.929 6.799-33.177l-22.493-131.118 95.263-92.855c12.011-11.709 16.639-25.387 12.695-37.526z" fill="#ffd400"/><path d="m510.616 196.062c-3.944-12.141-15.729-20.486-32.329-22.897l-131.649-19.132-58.876-119.294c-7.424-15.043-19.003-23.671-31.767-23.671v421.932l117.752 61.905c7.595 3.993 14.946 6.019 21.853 6.019h.001c9.133 0 17.212-3.617 22.75-10.186 4.734-5.614 9.757-15.929 6.799-33.177l-22.493-131.118 95.263-92.855c12.012-11.709 16.64-25.387 12.696-37.526z" fill="#ff9f04"/></g></svg>