<svg id="Capa_1" enable-background="new 0 0 459.101 459.101" height="512" viewBox="0 0 459.101 459.101" width="512" xmlns="http://www.w3.org/2000/svg"><g><path d="m0 97.576h459.101v263.949h-459.101z" fill="#2cbfae"/><path d="m17.658 296.625v-134.149c26.091 0 47.241-21.151 47.241-47.241h329.302c0 26.091 21.151 47.241 47.242 47.241v134.149c-26.091 0-47.242 21.151-47.242 47.241h-329.301c0-26.09-21.151-47.241-47.242-47.241z" fill="#16a897"/><path d="m298.416 229.55c0 51.144-30.794 92.67-68.865 92.67s-68.865-41.526-68.865-92.67 30.852-92.67 68.865-92.67 68.865 41.469 68.865 92.67z" fill="#2cbfae"/><path d="m224.282 293.159v-15.644c-8.382-.033-16.59-2.396-23.707-6.823l3.724-10.37c6.648 4.311 14.394 6.624 22.318 6.663 11.001 0 18.433-6.359 18.433-15.191 0-8.516-6.043-13.773-17.515-18.433-15.776-6.215-25.532-13.343-25.532-26.817 0-12.855 9.136-22.622 23.391-24.941v-15.661h9.612v15.041c7.065.053 13.998 1.916 20.137 5.412l-3.874 10.232c-5.898-3.512-12.648-5.337-19.512-5.274-11.937 0-16.424 7.128-16.424 13.337 0 8.034 5.739 12.086 19.213 17.664 15.959 6.496 24.011 14.559 24.011 28.35-.26 13.733-10.799 25.078-24.476 26.347v16.114z" fill="#16a897"/><g fill="#2cbfae"><circle cx="362.231" cy="229.55" r="23.546"/><circle cx="96.87" cy="229.55" r="23.546"/></g></g></svg>