<?xml version="1.0" encoding="iso-8859-1"?>
<!-- Generator: Adobe Illustrator 19.0.0, SVG Export Plug-In . SVG Version: 6.00 Build 0)  -->
<svg version="1.1" id="Capa_1" xmlns="http://www.w3.org/2000/svg" xmlns:xlink="http://www.w3.org/1999/xlink" x="0px" y="0px"
	 viewBox="0 0 512 512" style="enable-background:new 0 0 512 512;" xml:space="preserve">
<path style="fill:#FFC107;" d="M415.913,142.56c-0.736-8.256-7.648-14.56-15.936-14.56h-288c-8.288,0-15.2,6.304-15.936,14.56
	L68.809,442.208c-1.632,17.888,4.384,35.712,16.48,48.96S114.601,512,132.553,512h246.88c17.92,0,35.136-7.584,47.232-20.8
	c12.128-13.248,18.112-31.104,16.544-48.96L415.913,142.56z"/>
<path style="fill:#455A64;" d="M335.977,224c-8.832,0-16-7.168-16-16V96c0-17.184-6.624-33.28-18.688-45.344
	C289.449,38.784,272.937,32,255.977,32c-35.296,0-64,28.704-64,64v112c0,8.832-7.168,16-16,16s-16-7.168-16-16V96
	c0-52.928,43.072-96,96-96c25.376,0,50.144,10.24,67.936,28.064c18.08,18.08,28.064,42.208,28.064,67.936v112
	C351.977,216.832,344.809,224,335.977,224z"/>
<path style="fill:#FAFAFA;" d="M303.977,368h-96c-8.832,0-16-7.168-16-16s7.168-16,16-16h96c8.832,0,16,7.168,16,16
	S312.809,368,303.977,368z"/>
<g>
</g>
<g>
</g>
<g>
</g>
<g>
</g>
<g>
</g>
<g>
</g>
<g>
</g>
<g>
</g>
<g>
</g>
<g>
</g>
<g>
</g>
<g>
</g>
<g>
</g>
<g>
</g>
<g>
</g>
</svg>
