<svg height="512" viewBox="0 0 128 128" width="512" xmlns="http://www.w3.org/2000/svg"><g><path d="m50.982 72.635 4.886-4.885a1.943 1.943 0 0 1 2.748 0l8.093 8.093a1.943 1.943 0 0 1 0 2.748l-4.885 4.886z" fill="#9b6e42"/><path d="m35.567 109.733-4.885 4.886a1.945 1.945 0 0 1 -2.748 0l-8.094-8.094a1.945 1.945 0 0 1 0-2.748l4.886-4.885z" fill="#9b6e42"/><path d="m115.833 44.034-3.216 3.215-6.273-6.273-.012.011a11.342 11.342 0 0 0 -12.861-12.86l.012-.012-6.273-6.273 3.215-3.216-5.858-5.858-16.082 16.082 5.858 5.859 3.216-3.216 6.274 6.274.011-.011a11.341 11.341 0 0 0 12.856 12.859l-.011.011 6.274 6.274-3.213 3.216 5.859 5.858 16.082-16.082z" fill="#65727f"/><path d="m87.047 47.412a11.237 11.237 0 0 1 -2.376-3.512l-.027-.027-24.951 24.954 5.939 5.938 24.95-24.95-.027-.027a11.237 11.237 0 0 1 -3.508-2.376z" fill="#ffca28"/><path d="m14.484 54.914h13.938v28.896h-13.938z" fill="#ff6e6e" transform="matrix(.707 .707 -.707 .707 55.33 5.146)"/><path d="m59.4 100.745a4.642 4.642 0 0 0 0-6.565 4.641 4.641 0 0 0 6.564-6.564l-23.58-23.58a4.064 4.064 0 0 0 -5.747 0l-20.51 20.509a4.064 4.064 0 0 0 0 5.747l23.58 23.581a4.641 4.641 0 1 0 6.564-6.564 4.641 4.641 0 0 0 6.564-6.564 4.643 4.643 0 0 0 6.565 0z" fill="#ffca28"/><path d="m30.734 93.522a1.745 1.745 0 0 1 -1.237-.513l-4.685-4.685a1.75 1.75 0 1 1 2.474-2.475l4.686 4.686a1.75 1.75 0 0 1 -1.238 2.987z" fill="#e5af29"/></g></svg>