<svg id="Capa_1" enable-background="new 0 0 512 512" height="512" viewBox="0 0 512 512" width="512" xmlns="http://www.w3.org/2000/svg"><g><path d="m269.498 155.483c-19.756-34.154-48.926-63.633-83.056-77.539-34.51-14.061-69.26-6.77-100.593 15.457-22.092 15.672-41.074 37.375-55.365 62.082-22.481 38.863-33.337 85.357-29.84 131.708 0 0-1.057 79.517 58.563 124.812 51.558 39.17 130.482 38.809 181.566 0 59.621-45.294 58.564-124.812 58.564-124.812 3.497-46.351-7.359-92.845-29.839-131.708z" fill="#d77f4a"/><path d="m299.339 287.193s1.051 79.516-58.565 124.808c-28.463 21.631-65.583 31.318-101.786 28.876 28.917-1.937 57.184-11.593 79.938-28.876 59.616-45.292 58.555-124.808 58.555-124.808 3.504-46.353-7.358-92.851-29.834-131.712-19.755-34.152-48.93-63.635-83.061-77.537-8.337-3.401-16.684-5.544-24.99-6.544 15.437-1.824 31.163.155 46.848 6.544 34.131 13.902 63.295 43.385 83.051 77.537 22.486 38.861 33.338 85.358 29.844 131.712z" fill="#c86d36"/><path d="m350.182 441.243c-89.799.431-162.945-72.017-163.376-161.816-.007-1.419 1.138-2.575 2.558-2.582l320.052-1.535c1.419-.007 2.575 1.138 2.582 2.558.431 89.799-72.017 162.945-161.816 163.375z" fill="#d77f4a"/><path d="m512 277.866v.804c0 89.43-72.292 162.144-161.814 162.577-29.937.144-58.029-7.822-82.185-21.816 18.787 7.461 39.284 11.511 60.729 11.408 87.142-.412 157.939-69.303 161.66-155.435l19.024-.093c1.421-.011 2.576 1.133 2.586 2.555z" fill="#c86d36"/><path d="m349.972 397.46c-65.995.316-119.75-52.926-120.067-118.921l-.009-1.889 238.987-1.146.009 1.889c.317 65.995-52.926 119.75-118.92 120.067z" fill="#bbec6c"/><path d="m468.893 277.392c.32 65.995-52.928 119.748-118.923 120.067-15.643.072-30.607-2.855-44.323-8.265 8.048 1.68 16.396 2.535 24.949 2.494 64.656-.299 117.079-51.928 118.872-116.089l19.415-.093z" fill="#a2e62e"/><path d="m349.574 314.557c-20.921.1-37.962-16.778-38.063-37.699l-.003-.599 75.762-.363.003.599c.101 20.921-16.778 37.962-37.699 38.062z" fill="#00c27a"/><path d="m387.275 275.898v.598c.103 20.92-16.777 37.965-37.697 38.058-6.338.031-12.325-1.494-17.591-4.225 17.55-2.288 31.297-16.571 32.791-34.327z" fill="#08b865"/><g><g><g><g><g><path d="m320.458 363.585c-.876 0-1.766-.15-2.638-.466-4.012-1.457-6.084-5.891-4.626-9.903l3.076-8.467c1.457-4.012 5.887-6.084 9.904-4.626 4.012 1.457 6.084 5.891 4.626 9.903l-3.076 8.467c-1.142 3.141-4.107 5.092-7.266 5.092z" fill="#97d819"/></g></g><g><g><path d="m284.45 327.638c-3.097 0-6.019-1.874-7.208-4.934-1.544-3.98.43-8.458 4.409-10.002l8.397-3.259c3.978-1.544 8.457.43 10.002 4.408 1.544 3.98-.43 8.458-4.409 10.002l-8.397 3.259c-.918.357-1.864.526-2.794.526z" fill="#97d819"/></g></g></g></g><g><g><g><g><path d="m378.332 363.585c-3.16 0-6.125-1.951-7.266-5.093l-3.074-8.467c-1.457-4.012.615-8.446 4.627-9.903 4.013-1.457 8.446.615 9.903 4.627l3.074 8.467c1.457 4.012-.615 8.446-4.627 9.903-.87.316-1.761.466-2.637.466z" fill="#97d819"/></g></g><g><g><path d="m414.341 327.638c-.93 0-1.875-.169-2.795-.525l-8.398-3.26c-3.979-1.544-5.953-6.022-4.409-10.001 1.544-3.98 6.02-5.953 10.002-4.409l8.398 3.259c3.979 1.545 5.953 6.023 4.409 10.002-1.187 3.06-4.111 4.934-7.207 4.934z" fill="#97d819"/></g></g></g></g></g></g></svg>