<svg height="512pt" viewBox="-16 0 512 512.00101" width="512pt" xmlns="http://www.w3.org/2000/svg"><path d="m480.460938 202.789062c-1.351563-8.105468-5.660157-15.324218-11.777344-20.390624l-213.265625-176.789063c-9.03125-7.488281-21.714844-7.476563-30.738281.027344l-212.546876 176.773437c-6.089843 5.066406-10.378906 12.269532-11.730468 20.359375l-.402344 293.65625c0 8.601563 6.574219 15.574219 14.683594 15.574219h451.492187c8.109375 0 14.683594-6.972656 14.683594-15.574219zm0 0" fill="#ffe471"/><path d="m436.742188 412.558594h-392.625v-330.15625c0-18.222656 14.773437-32.996094 32.996093-32.996094h326.628907c18.222656 0 32.996093 14.773438 32.996093 32.996094v330.15625zm0 0" fill="#ededed"/><path d="m403.742188 49.40625h-20.59375v363.152344h53.59375v-330.15625c0-18.222656-14.777344-32.996094-33-32.996094zm0 0" fill="#d6d6d6"/><path d="m480.855469 496.425781-.394531-293.636719s-172.445313 134.828126-224.972657 176.921876c-8.914062 7.140624-21.207031 7.140624-30.117187 0-52.53125-42.09375-224.972656-176.945313-224.972656-176.945313l-.398438 293.660156c0 8.601563 6.574219 15.574219 14.683594 15.574219h451.488281c8.109375 0 14.683594-6.972656 14.683594-15.574219zm0 0" fill="#f2ca20"/><path d="m480.460938 202.789062s-21.886719 17.113282-52.441407 41.046876l.28125 208.125c0 8.601562-6.574219 15.574218-14.683593 15.574218h-413.5781255l-.0390625 28.890625c0 8.601563 6.574219 15.574219 14.683594 15.574219h451.488281c8.109375 0 14.683594-6.972656 14.683594-15.574219zm0 0" fill="#e0b917"/><path d="m225.371094 379.710938c-10.0625-8.058594-24.519532-19.523438-41.316406-32.785157l-180.128907 160.078125c2.683594 3.066406 6.503907 4.996094 10.757813 4.996094h451.488281c4.035156 0 7.691406-1.726562 10.34375-4.523438l-179.90625-160.398437c-16.71875 13.199219-31.101563 24.605469-41.121094 32.632813-8.910156 7.140624-21.207031 7.140624-30.117187 0zm0 0" fill="#ffe471"/><path d="m225.371094 379.710938c-10.0625-8.058594-24.519532-19.523438-41.316406-32.785157l-180.128907 160.078125c2.683594 3.066406 6.503907 4.996094 10.757813 4.996094h451.488281c4.035156 0 7.691406-1.726562 10.34375-4.523438l-179.90625-160.398437c-16.71875 13.199219-31.101563 24.605469-41.121094 32.632813-8.910156 7.140624-21.207031 7.140624-30.117187 0zm0 0" fill="#ffe471"/><path d="m14.683594 512h451.488281c4.035156 0 7.691406-1.726562 10.34375-4.523438l-51.410156-45.832031c-2.6875 3.585938-6.832031 5.890625-11.488281 5.890625h-365.28125l-44.410157 39.46875c2.683594 3.066406 6.503907 4.996094 10.757813 4.996094zm0 0" fill="#f2ca20"/><path d="m245.550781 111.65625 18.089844 55.679688c.75 2.308593 2.902344 3.871093 5.328125 3.871093h58.542969c5.429687 0 7.683593 6.945313 3.292969 10.136719l-47.359376 34.410156c-1.964843 1.425782-2.785156 3.957032-2.035156 6.265625l18.089844 55.675781c1.675781 5.164063-4.234375 9.457032-8.625 6.265626l-47.359375-34.410157c-1.964844-1.429687-4.625-1.429687-6.589844 0l-47.359375 34.410157c-4.390625 3.191406-10.300781-1.101563-8.621094-6.265626l18.089844-55.675781c.75-2.308593-.074218-4.839843-2.039062-6.265625l-47.359375-34.410156c-4.390625-3.191406-2.136719-10.136719 3.292969-10.136719h58.542968c2.429688 0 4.578125-1.5625 5.328125-3.871093l18.089844-55.679688c1.679687-5.164062 8.984375-5.164062 10.660156 0zm0 0" fill="#f43b45"/></svg>