<?xml version="1.0" encoding="iso-8859-1"?>
<!-- Generator: Adobe Illustrator 19.0.0, SVG Export Plug-In . SVG Version: 6.00 Build 0)  -->
<svg version="1.1" id="Capa_1" xmlns="http://www.w3.org/2000/svg" xmlns:xlink="http://www.w3.org/1999/xlink" x="0px" y="0px"
	 viewBox="0 0 511.923 511.923" style="enable-background:new 0 0 511.923 511.923;" xml:space="preserve">
<path style="fill:#455A64;" d="M508.659,429.636l-314.325-303.68c-4.182-4.03-10.821-3.973-14.933,0.128l-32,32
	c-4.101,4.113-4.158,10.751-0.128,14.933l303.659,314.347c2.005,2.08,4.769,3.258,7.659,3.264c29.455,0,53.333-23.878,53.333-53.333
	C511.917,434.406,510.74,431.642,508.659,429.636z"/>
<path style="fill:#CFD8DC;" d="M297.779,27.887c-1.649-3.989-5.539-6.591-9.856-6.592H250.59
	c-47.236-0.114-92.557,18.667-125.867,52.16l-121.6,121.6c-4.164,4.165-4.164,10.917,0,15.083l53.333,53.333
	c4.165,4.164,10.917,4.164,15.083,0l224-224C298.548,36.412,299.43,31.848,297.779,27.887z"/>
<g>
</g>
<g>
</g>
<g>
</g>
<g>
</g>
<g>
</g>
<g>
</g>
<g>
</g>
<g>
</g>
<g>
</g>
<g>
</g>
<g>
</g>
<g>
</g>
<g>
</g>
<g>
</g>
<g>
</g>
</svg>
