<svg id="Capa_1" enable-background="new 0 0 511.595 511.595" height="512" viewBox="0 0 511.595 511.595" width="512" xmlns="http://www.w3.org/2000/svg"><g><path d="m410.457 431.165h-309.32l17.87-198.53c3.08-34.24 18.75-65.87 44.13-89.07 25.37-23.19 58.28-35.97 92.66-35.97s67.29 12.78 92.66 35.97c25.38 23.2 41.05 54.83 44.13 89.07z" fill="#ff7f3b"/><path d="m410.457 431.165h-154.66v-323.57c34.38 0 67.29 12.78 92.66 35.97 25.38 23.2 41.05 54.83 44.13 89.07z" fill="#ff3044"/><g><g><path d="m240.797 351.156h30v64.96h-30z" fill="#ff3044"/><path d="m255.797 351.156h15v64.96h-15z" fill="#bd005d"/></g><g><path d="m330.259 286.846-74.461 79.31c-43.73 0-79.3-35.58-79.3-79.31 0-43.72 35.57-79.3 79.3-79.3z" fill="#ff3044"/><path d="m255.797 366.156v-158.61c43.73 0 79.3 35.58 79.3 79.3 0 43.73-35.57 79.31-79.3 79.31z" fill="#bd005d"/></g></g><path d="m255.797 401.255 185 50.34-185 30-185-30v-50.34z" fill="#fbf3f3"/><path d="m440.797 401.255v50.34l-185 30v-80.34z" fill="#e8e3f0"/><path d="m70.797 451.595h370v45h-370z" fill="#e8e3f0"/><path d="m255.797 451.595h185v45h-185z" fill="#d3cbe4"/><path d="m255.797 481.595 10 15-10 15h-215v-30z" fill="#fbf3f3"/><g><g><g fill="#ffe652"><path d="m195.189 1.95h30v79.469h-30z" transform="matrix(.986 -.167 .167 .986 -4.012 35.778)"/><path d="m118.058 47.996h30v65.989h-30z" transform="matrix(.793 -.609 .609 .793 -21.807 97.746)"/><path d="m55.614 92.118h30v86.943h-30z" transform="matrix(.464 -.886 .886 .464 -82.261 135.252)"/><path d="m23.753 204.337h66.262v30h-66.262z"/></g><path d="m261.671 26.685h79.469v30h-79.469z" fill="#f4c338" transform="matrix(.167 -.986 .986 .167 209.848 331.858)"/><path d="m345.542 65.991h65.989v30h-65.989z" fill="#f4c338" transform="matrix(.609 -.793 .793 .609 83.829 331.983)"/><path d="m397.509 120.589h86.943v30h-86.943z" fill="#f4c338" transform="matrix(.886 -.464 .464 .886 -12.582 220.024)"/><path d="m421.58 204.337h66.262v30h-66.262z" fill="#f4c338"/></g></g><path d="m255.797 481.595h215v30h-215z" fill="#e8e3f0"/></g></svg>