<svg height="463pt" viewBox="0 0 463 463.99537" width="463pt" xmlns="http://www.w3.org/2000/svg"><path d="m320.066406 5.59375 66.917969 46.679688c8.714844 6.074218 16.359375 13.546874 22.625 22.121093l54.664063 74.921875c-4.621094 42.070313-37.792969 75.320313-79.855469 80.039063h-.0625l-75.105469-54.398438c-8.605469-6.234375-16.117188-13.855469-22.222656-22.554687l-46.882813-66.808594" fill="#5c5c5b"/><path d="m319.675781 6c-12.496093-12.488281-40.347656-4.882812-62.203125 16.988281-21.851562 21.871094-29.4375 49.726563-16.941406 62.214844 12.5 12.488281 40.347656 4.882813 62.203125-16.988281s29.441406-49.722656 16.941406-62.214844zm0 0" fill="#737372"/><path d="m287.027344 152.371094-6.402344-9.097656-88.3125 86.320312-32 24-159.816406 162.488281 48.074218 47.914063 159.832032-162.472656 24-32 88.207031-86.328126-11.359375-8.230468c-8.609375-6.25-16.121094-13.882813-22.222656-22.59375zm0 0" fill="#995023"/><path d="m309.25 174.921875c-8.605469-6.234375-16.117188-13.855469-22.222656-22.550781l-6.402344-9.097656-20.3125 19.851562c11.019531 15.40625 24.367188 29.007812 39.570312 40.308594l20.71875-20.277344zm0 0" fill="#84431f"/></svg>