<svg id="color" enable-background="new 0 0 24 24" height="512" viewBox="0 0 24 24" width="512" xmlns="http://www.w3.org/2000/svg"><g><g><path d="m24 18c0 .44-1.55 1.46-3.55 2.47-2.53 1.28-5.77 2.53-7.45 2.53-.25 0-.55-.02-.88-.07h-.01c-2.31-.3-6.16-1.56-8.15-2.46l2.01-7.08c.04-.149.061-.29.07-.43 1.13.09 2.08.25 2.91.49.96.26 1.78.609 2.57 1.05 1.51.23 4.48.5 4.48 2.25 0 .72-.44 1.25-2 1.25s-4.25-.5-4.25-.5 2.25 1.53 4.25 1.53c1.87 0 5.47-2.2 7.57-2.49.15-.03.3-.04.43-.04 1 0 2 .5 2 1.5z" fill="#ffcc80"/></g></g><g><g><path d="m3.5 21h-2.75c-.414 0-.75-.336-.75-.75v-8.5c0-.414.336-.75.75-.75 3.505 0 5.138 1.217 5.205 1.268.242.186.349.498.269.793l-2 7.385c-.089.327-.385.554-.724.554z" fill="#607d8b"/></g></g><g><g><path d="m22 16.5c-.13 0-.28.01-.43.04-2.1.29-5.7 2.49-7.57 2.49-2 0-4.25-1.53-4.25-1.53l-4.539-.698-.987 3.644c-.012.042-.026.083-.045.122 2.043.891 5.703 2.073 7.93 2.362h.01c.331.05.631.07.881.07 1.68 0 4.92-1.25 7.45-2.53 2-1.01 3.55-2.03 3.55-2.47 0-1-1-1.5-2-1.5z" fill="#deb26f"/></g></g><g><g><path d="m0 16v4.25c0 .414.336.75.75.75h2.75c.295 0 .558-.172.68-.433.018-.039.033-.079.045-.122l.987-3.644z" fill="#546d79"/></g></g><g><g><path d="m0 6c0-.44 1.55-1.46 3.55-2.47 2.53-1.28 5.77-2.53 7.45-2.53.25 0 .55.02.88.07h.01c2.31.3 6.16 1.56 8.15 2.46l-2.01 7.08c-.04.149-.061.29-.07.43-1.13-.09-2.08-.25-2.91-.49-.96-.26-1.78-.609-2.57-1.05-1.51-.23-4.48-.5-4.48-2.25 0-.72.44-1.25 2-1.25s4.25.5 4.25.5-2.25-1.53-4.25-1.53c-1.87 0-5.47 2.2-7.57 2.49-.15.03-.3.04-.43.04-1 0-2-.5-2-1.5z" fill="#ffcc80"/></g></g><g><g><path d="m20.5 3h2.75c.414 0 .75.336.75.75v8.5c0 .414-.336.75-.75.75-3.505 0-5.138-1.217-5.205-1.268-.242-.186-.349-.498-.269-.793l2-7.385c.089-.327.385-.554.724-.554z" fill="#607d8b"/></g></g><g><g><path d="m10 6c-1.56 0-2 .53-2 1.25 0 1.75 2.97 2.02 4.48 2.25.79.44 1.61.79 2.57 1.05.78.226 1.667.381 2.708.473.004-.028.01-.056.018-.084l1.013-3.741-4.539-.698s-2.69-.5-4.25-.5z" fill="#deb26f"/></g></g><g><g><path d="m18.789 7.198-1.013 3.741c-.007.028-.013.056-.018.084-.041.269.067.541.287.709.067.051 1.7 1.268 5.205 1.268.414 0 .75-.336.75-.75v-4.25z" fill="#546d79"/></g></g></svg>