<svg id="Layer_1" enable-background="new 0 0 497 497" height="512" viewBox="0 0 497 497" width="512" xmlns="http://www.w3.org/2000/svg"><g><circle cx="248.5" cy="132.395" fill="#01d0fb" r="132.396"/><path d="m248.5 0c-5.073 0-10.076.295-15 .851 66.057 7.45 117.396 63.497 117.396 131.545s-51.339 124.094-117.396 131.544c4.924.555 9.927.851 15 .851 73.12 0 132.396-59.275 132.396-132.395s-59.276-132.396-132.396-132.396z" fill="#01c0fa"/><path d="m228.105 73.458c1.883 5.631-.353 11.91-3.901 16.664-3.554 4.76-8.314 8.45-12.433 12.722s-7.744 9.515-8.073 15.446c-.3 5.372 2.13 10.456 3.795 15.576 5.037 14.322-3.366 23.519-18.059 19.136-20.095-7.061-26.356-30.157-30.31-49.04-2.236-9.821-4.654-19.765-9.627-28.521-4.09-6.643-8.02-11.863-10.421-17.6 21.001-30.762 54.624-52.211 93.413-56.883h.006c2.024.73 3.831 2.001 4.896 3.848 4.837 10.092-7.938 22.925-13.198 31.051-4.754 7.079-8.22 16.235-4.713 24.002 2.211 4.914 6.919 8.486 8.625 13.599z" fill="#00f2a6"/><path d="m308.461 191.409c-4.531 9.032-7.391 19.43-5.084 29.274 1.712 7.297 6.102 13.681 8.467 20.795.747 2.201 1.189 4.372 1.342 6.461-8.044 4.513-16.6 8.209-25.567 10.98-1.071-1.271-2.183-2.554-3.66-3.578-7.85-5.419-18.683-6.078-25.126-13.634-7.497-8.779-5.319-23.867-14.517-30.851-4.172-3.166-9.997-3.948-13.516-7.832-3.478-3.831-3.689-9.527-3.713-14.705-.029-7.043-.053-14.152 1.43-21.036 3.489-15.888 12.275-22.101 27.238-26.485 12.857-4.195 25.714-8.385 38.577-12.575 8.938-3.048 19.748-6.025 28.221-.365 5.702 3.89 8.344 11.221 8.044 18.118-1.288 17.341-14.91 30.369-22.136 45.433z" fill="#00f2a6"/><path d="m307.158 230.707c-9.182 8.284-19.529 15.3-30.768 20.773 2.656 1.073 5.244 2.257 7.568 3.861 1.477 1.024 2.589 2.307 3.66 3.578 8.968-2.771 17.523-6.467 25.567-10.98-.153-2.089-.594-4.26-1.342-6.461-1.233-3.711-3.016-7.224-4.685-10.771z" fill="#05e39c"/><path d="m362.473 64.985c-4.59 6.025-13.593 8.008-25.096 6.555-8.42-.765-17.971-1.3-24.167 4.454-1.495 1.389-2.819 3.16-4.79 3.701-4.684 1.077-7.579-3.854-8.562-7.785-3.378-11.221-3.448-23.614.971-34.47 3.101-7.632 8.509-14.334 15.405-18.824 19.018 11.346 34.947 27.322 46.239 46.369z" fill="#00f2a6"/><path d="m316.234 18.617c-4.968 3.234-9.145 7.627-12.262 12.678 13.132 11.111 24.067 24.735 32.07 40.129.447.038.893.077 1.335.117 11.504 1.453 20.507-.53 25.096-6.555-11.292-19.048-27.221-35.024-46.239-46.369z" fill="#05e39c"/><path d="m233.5 199-229.246-70.142c-2.115-.647-4.254.935-4.254 3.147v283.773c0 1.412.901 2.667 2.238 3.118l231.262 78.104z" fill="#fe646f"/><path d="m263.5 199 229.246-70.142c2.115-.647 4.254.935 4.254 3.147v283.773c0 1.412-.901 2.667-2.238 3.118l-231.262 78.104z" fill="#fe646f"/><g><path d="m492.746 128.858-25.746 7.877v291.537l27.762-9.376c1.338-.452 2.238-1.707 2.238-3.118v-283.773c0-2.212-2.139-3.794-4.254-3.147z" fill="#fd4755"/></g><path d="m272.5 497h-48c-3.314 0-6-2.686-6-6v-286c0-3.314 2.686-6 6-6h48c3.314 0 6 2.686 6 6v286c0 3.314-2.686 6-6 6z" fill="#7ca1b1"/><path d="m272.5 199h-30c3.314 0 6 2.686 6 6v286c0 3.314-2.686 6-6 6h30c3.314 0 6-2.686 6-6v-286c0-3.314-2.686-6-6-6z" fill="#678d98"/><path d="m119.073 257.404 7.838 18.249c2.124 4.945 6.23 9.132 10.979 11.197l17.526 7.621c11.96 5.2 16.735 21.373 8.081 27.368l-12.682 8.785c-3.437 2.381-5.005 6.787-4.194 11.782l2.994 18.435c2.043 12.58-10.459 18.117-21.157 9.369l-15.676-12.819c-4.248-3.474-9.323-4.938-13.571-3.915l-15.676 3.773c-10.697 2.575-23.2-10.177-21.157-21.578l2.994-16.708c.811-4.527-.757-9.839-4.194-14.202l-12.682-16.103c-8.654-10.989-3.879-24.406 8.081-22.705l17.526 2.493c4.749.676 8.855-1.143 10.979-4.862l7.838-13.726c5.35-9.366 20.804-4.907 26.153 7.546z" fill="#fec165"/><path d="m155.416 294.47-17.526-7.621c-4.749-2.065-8.855-6.252-10.979-11.197l-7.838-18.249c-5.349-12.453-20.803-16.912-26.151-7.545l-1.882 3.296 5.956 13.867c2.124 4.945 6.23 9.132 10.979 11.197l7.122 3.097c16.216 7.051 22.691 28.979 10.957 37.107l-5.154 3.57c-3.437 2.381-5.005 6.787-4.194 11.782l2.994 18.436c.628 3.868-.122 7.066-1.769 9.392l10.527 8.609c10.697 8.748 23.2 3.211 21.157-9.369l-2.994-18.436c-.811-4.995.757-9.402 4.194-11.782l12.682-8.785c8.654-5.995 3.879-22.168-8.081-27.369z" fill="#fdb441"/><g fill="#f3f0f3"><path d="m348.119 375.407c.777 0 1.569-.122 2.348-.379l91.296-30.082c3.935-1.296 6.073-5.536 4.776-9.47-1.295-3.934-5.536-6.073-9.47-4.776l-91.296 30.082c-3.935 1.296-6.073 5.536-4.776 9.47 1.039 3.155 3.972 5.155 7.122 5.155z"/><path d="m437.069 360.782-91.296 30.082c-3.935 1.296-6.073 5.536-4.776 9.47 1.039 3.155 3.972 5.155 7.122 5.155.777 0 1.569-.122 2.348-.379l91.296-30.082c3.935-1.296 6.073-5.536 4.776-9.47-1.295-3.933-5.536-6.073-9.47-4.776z"/></g></g></svg>