<svg id="Capa_1" enable-background="new 0 0 512 512" height="512" viewBox="0 0 512 512" width="512" xmlns="http://www.w3.org/2000/svg"><g><path d="m371.1 45v422c0 24.81-20.19 45-45 45h-196c-24.81 0-45-20.19-45-45v-422c0-24.81 20.19-45 45-45h196c24.81 0 45 20.19 45 45z" fill="#eef4ff"/><path d="m371.1 45v422c0 24.81-20.19 45-45 45h-98v-512h98c24.81 0 45 20.19 45 45z" fill="#d9e6fc"/><path d="m326.1 0h-196c-24.81 0-45 20.19-45 45v422c0 24.81 20.19 45 45 45h196c24.81 0 45-20.19 45-45v-422c0-24.81-20.19-45-45-45zm15 417h-226v-372c0-8.27 6.73-15 15-15h196c8.27 0 15 6.73 15 15z" fill="#425796"/><path d="m371.1 45v422c0 24.81-20.19 45-45 45h-98v-95h113v-372c0-8.27-6.73-15-15-15h-98v-30h98c24.81 0 45 20.19 45 45z" fill="#283758"/><path d="m426.9 320c0 44.968-23.186 80.343-68.68 86.85-9.169 1.292-17.12-5.848-17.12-14.85v-11.53c-31.77-6.614-56-34.16-56-68.47 0-39.12 31.8-70.95 70.9-71 43.738 0 70.9 34.665 70.9 79z" fill="#dd5958"/><path d="m426.9 320c0 44.968-23.186 80.343-68.68 86.85-.807.114-1.49.15-2.22.15 0-173.902-.056-166 .1-166 41.69 0 70.8 32.49 70.8 79z" fill="#d8225b"/><g fill="#dd5958"><path d="m245.39 205.07c1.834-8.795 10.583-13.949 19.07-11.42 8.696 2.834 12.196 11.451 9.99 18.7-3.396 10.642-15.858 13.771-23.86 7.25-3.968-3.239-6.308-8.609-5.2-14.53z"/><path d="m197.39 205.07c.818-3.92 3.006-7.265 6.38-9.54 7.699-5.075 17.616-2.114 21.55 5.41 3.994 7.471.961 16.557-6.16 20.28-11.062 5.92-24.128-3.551-21.77-16.15z"/><path d="m149.39 205.07c1.834-8.795 10.583-13.949 19.07-11.42 8.585 2.798 12.206 11.273 9.99 18.71-2.758 8.464-11.132 12.241-18.71 9.99-7.027-2.141-11.856-9.234-10.35-17.28z"/></g><path d="m307.1 144c0 8.28-6.72 15-15 15h-88c-8.28 0-15-6.72-15-15s6.72-15 15-15h88c8.28 0 15 6.72 15 15z" fill="#9ce0f6"/><path d="m307.1 144c0 8.28-6.72 15-15 15h-64v-30h64c8.28 0 15 6.72 15 15z" fill="#61a7c5"/><path d="m243.1 80c0 8.28-6.72 15-15 15h-64c-8.28 0-15-6.72-15-15s6.72-15 15-15h64c8.28 0 15 6.72 15 15z" fill="#ffe278"/><path d="m243.1 80c0 8.28-6.72 15-15 15v-30c8.28 0 15 6.72 15 15z" fill="#ffb454"/></g></svg>