<?xml version="1.0" encoding="iso-8859-1"?>
<!-- Generator: Adobe Illustrator 19.0.0, SVG Export Plug-In . SVG Version: 6.00 Build 0)  -->
<svg xmlns="http://www.w3.org/2000/svg" xmlns:xlink="http://www.w3.org/1999/xlink" version="1.1" id="Capa_1" x="0px" y="0px" viewBox="0 0 512 512" style="enable-background:new 0 0 512 512;" xml:space="preserve">
<path style="fill:#FFD07D;" d="M271.068,92.713c-94.953,0-172.643,77.689-172.643,172.643c0,21.064,3.84,41.281,10.832,59.985  h40.713c-9.048-18.12-14.272-38.449-14.272-59.985c0-74.449,60.913-135.37,135.37-135.37c74.449,0,135.37,60.921,135.37,135.37  c0,21.536-5.224,41.865-14.272,59.985h40.713c6.992-18.704,10.832-38.921,10.832-59.985  C443.711,170.403,366.022,92.713,271.068,92.713z"/>
<path style="fill:#FE585D;" d="M271.068,129.986c-74.457,0-135.37,60.921-135.37,135.37c0,21.536,5.224,41.865,14.272,59.985h43.945  c-12.96-16.608-20.776-37.409-20.776-59.985c0-53.865,44.065-97.93,97.93-97.93c53.857,0,97.93,44.073,97.93,97.93  c0,22.576-7.816,43.377-20.776,59.985h43.945c9.048-18.12,14.272-38.449,14.272-59.985  C406.438,190.907,345.517,129.986,271.068,129.986z"/>
<path style="fill:#36C9AD;" d="M271.068,167.427c-53.865,0-97.93,44.065-97.93,97.93c0,22.576,7.816,43.377,20.776,59.985h68.649  c-29.36-4.176-52.153-29.52-52.153-59.985c0-33.361,27.296-60.657,60.657-60.657s60.657,27.296,60.657,60.657  c0,30.464-22.792,55.809-52.153,59.985h68.649c12.96-16.608,20.776-37.409,20.776-59.985  C368.998,211.499,324.925,167.427,271.068,167.427z"/>
<g>
	<path style="fill:#FFFFFF;" d="M331.725,265.356c0-33.361-27.296-60.657-60.657-60.657s-60.657,27.296-60.657,60.657   c0,30.464,22.792,55.809,52.153,59.985h17.008C308.933,321.165,331.725,295.821,331.725,265.356z"/>
	<path style="fill:#FFFFFF;" d="M50.089,350.893C24.672,350.893,4,330.325,4,305.045c0-22.32,16.096-41.297,38.273-45.121   l3.672-0.632l-0.376-3.712c-0.2-2.056-0.32-4.136-0.32-6.24c0-33.361,27.288-60.497,60.833-60.497   c25.76,0,48.809,16.28,57.345,40.505l1.304,3.712l3.736-1.24c2.736-0.912,6.92-2,11.272-2c15.952,0,29.664,10.824,33.353,26.312   l0.728,3.08h7.176c12.256,0,23.824,4.792,32.544,13.48c8.728,8.688,13.52,20.176,13.512,32.361   c0,25.28-20.672,45.849-46.089,45.849H50.089V350.893z"/>
</g>
<path style="fill:#B5C0D6;" d="M106.082,192.835c24.072,0,45.601,15.208,53.577,37.841l2.616,7.416l7.464-2.488  c3.464-1.152,7.016-1.792,10.016-1.792c14.088,0,26.2,9.552,29.456,23.24l1.464,6.152h6.32h4.016  c11.192,0,21.752,4.376,29.728,12.312c7.968,7.928,12.344,18.408,12.336,29.528c0,23.072-18.88,41.849-42.089,41.849H50.089  C26.88,346.893,8,328.117,8,305.045c0-20.376,14.696-37.689,34.953-41.177l7.328-1.264l-0.728-7.4  c-0.2-2.064-0.304-3.984-0.304-5.864C49.257,218.179,74.745,192.835,106.082,192.835 M106.082,184.835  c-35.809,0-64.833,28.88-64.833,64.505c0,2.248,0.128,4.456,0.336,6.648C18.064,260.036,0,280.516,0,305.045  c0,27.408,22.536,49.849,50.089,49.849h170.891c27.544,0,50.089-22.424,50.089-49.849c0.024-27.4-22.52-49.841-50.065-49.841h-4.016  c-3.992-16.8-19.128-29.384-37.241-29.384c-4.4,0-8.856,0.968-12.544,2.2C158.346,202.883,134.362,184.835,106.082,184.835  L106.082,184.835z"/>
<path style="fill:#FFFFFF;" d="M279.572,415.278c-26.84,0-48.681-21.728-48.681-48.433c0-23.584,17-43.633,40.425-47.657  l3.656-0.632l-0.352-3.688c-0.208-2.176-0.336-4.376-0.336-6.616c0-35.201,28.8-63.841,64.185-63.841  c27.184,0,51.505,17.176,60.513,42.753l1.312,3.712l3.736-1.24c2.864-0.96,7.264-2.112,11.92-2.112  c16.864,0,31.376,11.448,35.273,27.832l0.736,3.072h7.384c12.944,0,25.16,5.056,34.385,14.232  c9.208,9.176,14.28,21.32,14.272,34.185c0,26.704-21.832,48.433-48.681,48.433C459.319,415.278,279.572,415.278,279.572,415.278z"/>
<path style="fill:#B5C0D6;" d="M338.477,248.412c25.496,0,48.297,16.104,56.745,40.081l2.616,7.416l7.464-2.488  c3.68-1.224,7.472-1.904,10.664-1.904c15.016,0,27.92,10.184,31.384,24.76l1.464,6.152h6.32h4.224c11.88,0,23.088,4.64,31.56,13.072  c8.456,8.416,13.112,19.552,13.096,31.352c0,24.504-20.048,44.433-44.681,44.433H279.572c-24.64,0-44.681-19.936-44.681-44.433  c0-21.632,15.608-40.017,37.105-43.721l7.328-1.264l-0.728-7.4c-0.216-2.184-0.32-4.216-0.32-6.208  C278.284,275.26,305.285,248.412,338.477,248.412 M338.477,240.412c-37.665,0-68.193,30.376-68.193,67.849  c0,2.36,0.128,4.688,0.352,6.992c-24.752,4.256-43.745,25.808-43.745,51.601c0,28.832,23.704,52.433,52.681,52.433h179.747  c28.976,0,52.681-23.592,52.681-52.433c0.024-28.824-23.68-52.425-52.657-52.425h-4.216c-4.2-17.664-20.12-30.912-39.169-30.912  c-4.624,0-9.312,1.024-13.192,2.312C393.446,259.396,368.222,240.412,338.477,240.412L338.477,240.412z"/>
<g>
</g>
<g>
</g>
<g>
</g>
<g>
</g>
<g>
</g>
<g>
</g>
<g>
</g>
<g>
</g>
<g>
</g>
<g>
</g>
<g>
</g>
<g>
</g>
<g>
</g>
<g>
</g>
<g>
</g>
</svg>
