<svg id="Capa_1" enable-background="new 0 0 512 512" height="512" viewBox="0 0 512 512" width="512" xmlns="http://www.w3.org/2000/svg"><g><g><ellipse cx="380.718" cy="155.79" fill="#aad880" rx="73.519" ry="39.371" transform="matrix(.482 -.876 .876 .482 60.703 414.259)"/></g><path d="m351.964 241.763c0 40.26-23.818 64.325-44.823 85.567-19.543 19.748-36.417 36.808-36.417 65.324 0 8.777-7.119 15.896-15.896 15.896s-15.885-7.119-15.885-15.896c0-41.588 24.22-66.076 45.596-87.679 19.12-19.326 35.634-36.025 35.634-63.212 0-23.282-15.061-37.808-39.642-59.575-21.51-19.048-47.223-41.805-56.814-77.995l29.422-13.99c5.635 30.267 26.527 48.769 48.46 68.188 24.765 21.932 50.365 44.596 50.365 83.372z" fill="#9bd069"/><path d="m302.814 304.965c-21.387 21.613-45.606 46.101-45.606 87.689 0 5.378 2.668 10.127 6.758 13.001-2.586 1.823-5.728 2.895-9.138 2.895-8.777 0-15.896-7.119-15.896-15.896 0-41.588 24.23-66.076 45.606-87.689 19.12-19.326 35.634-36.015 35.634-63.202 0-23.282-15.072-37.808-39.652-59.565-21.51-19.058-47.213-41.825-56.804-78.005l16.493-7.84c7.737 40.806 35.562 65.447 58.587 85.845 24.58 21.758 39.652 36.283 39.652 59.565 0 27.186-16.524 43.875-35.634 63.202z" fill="#8bc852"/><g><path d="m392.348 426.763c-1.453 17.709-5.285 41.661-14.948 64.654-5.244 12.486-17.503 20.583-31.05 20.583h-185.36c-13.547 0-25.806-8.097-31.05-20.583-9.663-22.994-13.495-46.945-14.948-64.654-1.339-16.37-.649-27.403-.649-27.403h278.654s.69 11.033-.649 27.403z" fill="#eab14d"/><path d="m213.375 512h-52.375c-13.547 0-25.806-8.097-31.06-20.583-18.595-44.246-15.597-92.057-15.597-92.057h78.757s-1.308 47.811 6.779 92.057c2.277 12.486 7.613 20.583 13.496 20.583z" fill="#e49542"/><path d="m392.348 426.763c-92.448 2.132-184.907 2.132-277.356 0-1.339-16.37-.649-27.403-.649-27.403l139.327-38.265 139.327 38.265s.69 11.033-.649 27.403z" fill="#e49542"/><path d="m393.657 322.359c-93.325-2.173-186.65-2.173-279.974 0-12.654.295-23.566 9.235-26.101 21.636-2.33 11.4-2.33 22.8 0 34.2 2.535 12.401 13.447 21.341 26.101 21.636 1.396-.344 30.708-6.969 30.708-6.969s34.576 6.08 46.556 8.271c67.57.705 135.14.271 202.71-1.302 12.654-.295 23.566-9.235 26.101-21.636 2.33-11.4 2.33-22.8 0-34.2-2.535-12.401-13.447-21.341-26.101-21.636z" fill="#eab14d"/><path d="m192.554 401.152c-26.29-.268-52.58-.701-78.871-1.319-12.651-.299-23.56-9.241-26.095-21.634-2.339-11.404-2.339-22.808 0-34.202 2.534-12.403 13.444-21.345 26.095-21.644 26.259-.608 52.529-1.04 78.799-1.308-11.641 1.731-21.253 10.497-23.653 22.242-2.431 11.868-2.431 23.746 0 35.624 2.4 11.775 12.053 20.552 23.725 22.241z" fill="#e49542"/></g><g><ellipse cx="283.215" cy="53.703" fill="#aad880" rx="73.519" ry="39.371" transform="matrix(.707 -.707 .707 .707 44.978 215.993)"/></g><ellipse cx="165.094" cy="106.719" fill="#9bd069" rx="73.519" ry="39.371"/></g></svg>