<svg id="icons" enable-background="new 0 0 64 64" height="512" viewBox="0 0 64 64" width="512" xmlns="http://www.w3.org/2000/svg"><path d="m4 28.506c0 5.53 4.48 10 10 10h6v3.97h-6c-5.52 0-10-4.47-10-10z" fill="#4a89dc"/><path d="m20 54.506h24v.998h-24z" fill="#ccd1d9"/><path d="m20 55.504h24v.998h-24z" fill="#e6e9ed"/><path d="m20 56.502h24v.998h-24z" fill="#ccd1d9"/><path d="m20 57.5h24v.998h-24z" fill="#e6e9ed"/><path d="m20 58.498h24v.998h-24z" fill="#ccd1d9"/><path d="m20 59.496h24v.998h-24z" fill="#e6e9ed"/><path d="m60 29.976c0 6.91-5.59 12.5-12.5 12.5h-3.5v-3.97h3.5c6.91 0 12.5-5.59 12.5-12.5z" fill="#4a89dc"/><path d="m44 42.476v12.03h-24v-12.03-3.97-16h19v5h5v11z" fill="#e6e9ed"/><path d="m44 27.506h-5v-5z" fill="#f5f7fa"/><path d="m47.49 13.506h.01c6.91 0 12.5 5.6 12.5 12.5 0 6.91-5.59 12.5-12.5 12.5h-3.5v-11l-5-5h-19v16h-6c-5.52 0-10-4.47-10-10 0-5.52 4.48-10 10-10h1l.12.02c.97-8.46 8.16-15.02 16.88-15.02 6.89 0 12.83 4.099 15.49 10z" fill="#5d9cec"/><g fill="#ccd1d9"><path d="m38.999 35.508h-13.998c-.553 0-1-.447-1-1s.447-1 1-1h13.998c.553 0 1 .447 1 1s-.447 1-1 1z"/><path d="m38.999 39.508h-13.998c-.553 0-1-.447-1-1s.447-1 1-1h13.998c.553 0 1 .447 1 1s-.447 1-1 1z"/><path d="m38.999 43.508h-13.998c-.553 0-1-.447-1-1s.447-1 1-1h13.998c.553 0 1 .447 1 1s-.447 1-1 1z"/><path d="m32.001 47.508h-7c-.553 0-1-.447-1-1s.447-1 1-1h7c.553 0 1 .447 1 1s-.447 1-1 1z"/></g></svg>