<svg id="Capa_1" enable-background="new 0 0 512 512" height="512" viewBox="0 0 512 512" width="512" xmlns="http://www.w3.org/2000/svg"><path d="m497 360.753h-482l-15 39.797v57.73c0 8.284 6.716 15 15 15h482c8.284 0 15-6.716 15-15v-57.73z" fill="#dd4e4e"/><path d="m256 360.753v112.527h241c8.284 0 15-6.716 15-15v-57.73l-15-39.797z" fill="#c21456"/><path d="m256 62.837c-12.104-14.717-30.448-24.117-50.947-24.117h-190.053c-8.284 0-15 6.716-15 15v346.83h205.467l44.821 18.456c1.83.753 3.771 1.13 5.711 1.13l50.533-39.586z" fill="#fff5f5"/><path d="m261.711 419.006 44.821-18.456h205.468v-346.83c0-8.284-6.716-15-15-15h-190.053c-20.499 0-38.842 9.4-50.947 24.117v357.299c1.941 0 3.882-.377 5.711-1.13z" fill="#ece6f2"/><g fill="#152133"><path d="m434.941 179.904h-101.458c-8.077 0-15.027-6.207-15.407-14.275-.406-8.614 6.458-15.725 14.983-15.725h101.458c8.077 0 15.027 6.207 15.407 14.275.406 8.614-6.458 15.725-14.983 15.725z"/><path d="m434.941 244.428h-101.458c-8.077 0-15.027-6.207-15.407-14.275-.406-8.614 6.458-15.725 14.983-15.725h101.458c8.077 0 15.027 6.207 15.407 14.275.406 8.613-6.458 15.725-14.983 15.725z"/><path d="m434.941 308.951h-101.458c-8.077 0-15.027-6.207-15.407-14.275-.406-8.614 6.458-15.725 14.983-15.725h101.458c8.077 0 15.027 6.207 15.407 14.275.406 8.614-6.458 15.725-14.983 15.725z"/></g><path d="m178.941 179.904h-101.458c-8.077 0-15.027-6.207-15.407-14.275-.406-8.614 6.458-15.725 14.983-15.725h101.458c8.077 0 15.027 6.207 15.407 14.275.406 8.614-6.458 15.725-14.983 15.725z" fill="#293f65"/><path d="m178.941 244.428h-101.458c-8.077 0-15.027-6.207-15.407-14.275-.406-8.614 6.458-15.725 14.983-15.725h101.458c8.077 0 15.027 6.207 15.407 14.275.406 8.613-6.458 15.725-14.983 15.725z" fill="#293f65"/><path d="m178.941 308.951h-101.458c-8.077 0-15.027-6.207-15.407-14.275-.406-8.614 6.458-15.725 14.983-15.725h101.458c8.077 0 15.027 6.207 15.407 14.275.406 8.614-6.458 15.725-14.983 15.725z" fill="#293f65"/></svg>