<svg id="Layer_1" enable-background="new 0 0 65 65" height="512" viewBox="0 0 65 65" width="512" xmlns="http://www.w3.org/2000/svg"><g><ellipse cx="32.5" cy="53.8" fill="#fbd984" rx="32" ry="10.7"/><ellipse cx="32.5" cy="53.8" fill="#e39a61" rx="11.2" ry="3.7"/><path d="m52.1 20.1c0 10.9-19.6 33.6-19.6 33.6s-19.6-22.7-19.6-33.6 8.8-19.6 19.6-19.6 19.6 8.8 19.6 19.6z" fill="#f1786b"/><path d="m32.5 2.7c10.5 0 19 8.2 19.6 18.5 0-.4.1-.7.1-1.1 0-10.9-8.8-19.6-19.6-19.6-10.9 0-19.6 8.8-19.6 19.6 0 .3 0 .7.1 1.1.4-10.3 8.9-18.5 19.4-18.5z" fill="#ff8e85"/><circle cx="32.5" cy="20.1" fill="#fff" r="11.2"/></g></svg>