<svg id="Capa_1" enable-background="new 0 0 424.321 424.321" height="512" viewBox="0 0 424.321 424.321" width="512" xmlns="http://www.w3.org/2000/svg"><g><g id="icon_18_"><path d="m424.321 108.119v287.713c0 6.51-5.277 11.787-11.787 11.787h-400.747c-6.51 0-11.787-5.277-11.787-11.786v-287.714z" fill="#eeefee"/><path d="m424.321 61.88v63.825h-424.321v-63.825c0-6.51 5.277-11.787 11.787-11.787h400.748c6.509 0 11.786 5.278 11.786 11.787z" fill="#ef5261"/><path d="m346.6 16.702h.006c8.537 0 15.458 6.921 15.458 15.458v35.855c0 8.537-6.921 15.458-15.458 15.458h-.006c-8.537 0-15.458-6.921-15.458-15.458v-35.855c-.001-8.537 6.92-15.458 15.458-15.458z" fill="#575b6d"/><path d="m77.716 16.702h.006c8.537 0 15.458 6.921 15.458 15.458v35.855c0 8.537-6.921 15.458-15.458 15.458h-.006c-8.537 0-15.458-6.921-15.458-15.458v-35.855c-.001-8.537 6.92-15.458 15.458-15.458z" fill="#575b6d"/><g fill="#dbd8dd"><path d="m109.151 159.173h45.426v45.426h-45.426z"/><path d="m189.448 159.173h45.426v45.426h-45.426z"/><path d="m269.744 159.173h45.426v45.426h-45.426z"/><path d="m350.041 159.173h45.426v45.426h-45.426z"/><path d="m28.854 237.749h45.426v45.426h-45.426z"/><path d="m109.151 237.749h45.426v45.426h-45.426z"/><path d="m189.448 237.749h45.426v45.426h-45.426z"/><path d="m269.744 237.749h45.426v45.426h-45.426z"/><path d="m350.041 237.749h45.426v45.426h-45.426z"/><path d="m28.854 316.325h45.426v45.426h-45.426z"/><path d="m109.151 316.325h45.426v45.426h-45.426z"/><path d="m189.448 316.325h45.426v45.426h-45.426z"/></g></g></g></svg>