<?xml version="1.0" encoding="iso-8859-1"?>
<!-- Generator: Adobe Illustrator 19.0.0, SVG Export Plug-In . SVG Version: 6.00 Build 0)  -->
<svg version="1.1" id="Capa_1" xmlns="http://www.w3.org/2000/svg" xmlns:xlink="http://www.w3.org/1999/xlink" x="0px" y="0px"
	 viewBox="0 0 512 512" style="enable-background:new 0 0 512 512;" xml:space="preserve">
<path style="fill:#FEDBAB;" d="M363.637,90c5.099-9,8.099-19.2,8.099-30c0-32.999-26.999-60-60-60c-13.2,0-28.5,2.999-30,16.199
	c-0.599,7.8-7.2,13.801-15,13.801h-120c-36,0-66.299,25.8-73.2,60c-42.9,0-65.099,30-65.099,60c0,32.999,27.001,60,60,60h300
	c32.999,0,60-27.001,60-60C428.436,120,405.936,90,363.637,90z"/>
<path style="fill:#FEC478;" d="M428.436,150c0,32.999-27.001,60-60,60h-150V30h48.3c7.8,0,14.401-6,15-13.801
	c1.5-13.2,16.8-16.199,30-16.199c33.001,0,60,27.001,60,60c0,10.8-2.999,21-8.099,30C405.936,90,428.436,120,428.436,150z"/>
<path style="fill:#81C8EE;" d="M382.352,393.974c-8.35,0-16.377-1.304-23.789-4.014c-7.778-2.842-11.777-11.455-8.936-19.248
	c2.842-7.778,11.47-11.792,19.248-8.936c20.479,7.529,51.24-3.838,74.883-27.466c28.755-28.74,38.467-67.603,21.226-84.858
	c-9.961-9.976-27.861-11.25-47.856-3.486c-7.705,2.974-16.406-0.85-19.395-8.584c-2.988-7.72,0.85-16.406,8.584-19.395
	c31.421-12.129,61.26-8.335,79.878,10.254c29.736,29.751,20.405,85.664-21.226,127.28
	C440.404,380.102,409.585,393.974,382.352,393.974z"/>
<path style="fill:#CAE8F9;" d="M413.436,181h-390c-8.401,0-15,6.599-15,15c0,106.199,42.9,202.8,112.2,252.299
	c2.701,1.8,5.7,2.701,8.701,2.701h178.198c3.001,0,6-0.901,8.701-2.701c69.3-49.499,112.2-146.1,112.2-252.299
	C428.436,187.599,421.837,181,413.436,181z"/>
<path style="fill:#A4D9F5;" d="M428.436,196c0,106.199-42.9,202.8-112.2,252.299c-2.701,1.8-5.7,2.701-8.701,2.701h-89.099V181h195
	C421.837,181,428.436,187.599,428.436,196z"/>
<path style="fill:#1BD9DE;" d="M396.938,443.599c-7.8,15.901-13.801,27.902-21.901,43.5c-7.5,15.3-23.099,24.901-40.199,24.901
	h-232.8c-17.1,0-32.699-9.6-40.199-24.901c-8.101-15.599-14.101-27.599-21.901-43.5H396.938z"/>
<path style="fill:#1DE8F1;" d="M428.436,436c0,8.401-6.599,15-15,15h-390c-8.401,0-15-6.599-15-15s6.599-15,15-15h390
	C421.837,421,428.436,427.599,428.436,436z"/>
<path style="fill:#14B7BF;" d="M396.938,443.599c-7.8,15.901-13.801,27.902-21.901,43.5c-7.5,15.3-23.099,24.901-40.199,24.901
	h-116.4v-68.401H396.938z"/>
<path style="fill:#1BD9DE;" d="M428.436,436c0,8.401-6.599,15-15,15h-195v-30h195C421.837,421,428.436,427.599,428.436,436z"/>
<g>
</g>
<g>
</g>
<g>
</g>
<g>
</g>
<g>
</g>
<g>
</g>
<g>
</g>
<g>
</g>
<g>
</g>
<g>
</g>
<g>
</g>
<g>
</g>
<g>
</g>
<g>
</g>
<g>
</g>
</svg>
