<svg height="512" viewBox="0 0 58 59" width="512" xmlns="http://www.w3.org/2000/svg"><g id="Page-1" fill="none" fill-rule="evenodd"><g id="019---Tea" fill-rule="nonzero"><path id="Shape" d="m35 54.62v3.38c0 .5522847-.4477153 1-1 1h-24c-.55228475 0-1-.4477153-1-1v-3.38z" fill="#894b9d"/><path id="Shape" d="m2 7h40c1.1045695 0 2 .8954305 2 2v34c0 6.627417-5.372583 12-12 12h-20c-6.627417 0-12-5.372583-12-12v-34c0-1.1045695.8954305-2 2-2z" fill="#955ba5"/><path id="Shape" d="m44 18.36c.42-1 2.13-4.36 6-4.36 3.7 0 4 5.43 4 12 0 6.77-1.31 12-5 12-2.4 0-3.95-.78-5-2.66v5.51c1.5433185.7980334 3.2631093 1.1935853 5 1.15 5.8 0 9-4.39 9-16 0-6.37 0-16-8-16-2.1649259-.02811738-4.2770241.668875-6 1.98z" fill="#894b9d"/><path id="Shape" d="m14 22c-.5522847 0-1-.4477153-1-1v-17c0-2.209139 1.790861-4 4-4s4 1.790861 4 4v3h-2v-3c0-1.1045695-.8954305-2-2-2s-2 .8954305-2 2v17c0 .5522847-.4477153 1-1 1z" fill="#cbb292"/><path id="Shape" d="m19 42h-10c-1.1045695 0-2-.8954305-2-2v-15.714c.00025374-.5842743.25598991-1.1392217.7-1.519l5-4.286c.748448-.6401754 1.851552-.6401754 2.6 0l5 4.286c.4440101.3797783.6997463.9347257.7 1.519v15.714c0 1.1045695-.8954305 2-2 2z" fill="#f9eab0"/></g></g></svg>