<?xml version="1.0" encoding="iso-8859-1"?>
<!-- Generator: Adobe Illustrator 19.0.0, SVG Export Plug-In . SVG Version: 6.00 Build 0)  -->
<svg version="1.1" id="Capa_1" xmlns="http://www.w3.org/2000/svg" xmlns:xlink="http://www.w3.org/1999/xlink" x="0px" y="0px"
	 viewBox="0 0 468.293 468.293" style="enable-background:new 0 0 468.293 468.293;" xml:space="preserve">
<path style="fill:#D5D6DB;" d="M379.433,151.751v-19.033l-24.028-9.1c-1.775-7.213-4.55-14.039-8.213-20.254l10.599-23.639
	l-13.429-13.484l-23.473,10.543c-6.215-3.774-12.93-6.604-20.143-8.49l-9.212-24.25H272.5L263.4,68.07
	c-7.214,1.775-14.039,4.55-20.254,8.269l-23.64-10.656l-13.484,13.43l10.544,23.473c-3.718,6.215-6.604,12.93-8.491,20.143
	l-24.25,9.211v19.034l24.028,9.099c1.776,7.216,4.606,14.041,8.268,20.256l-10.654,23.694l13.485,13.43l23.418-10.543
	c6.215,3.774,12.985,6.604,20.143,8.49l9.212,24.25h0.004l19.032-0.005l9.154-24.024c7.214-1.775,13.984-4.55,20.199-8.212
	l23.695,10.599l13.429-13.429l-10.543-23.473c3.773-6.215,6.659-12.93,8.49-20.143L379.433,151.751z M281.656,185.275
	c-23.994,0-43.454-19.41-43.454-43.403c0-23.994,19.461-43.456,43.454-43.456c23.994,0,43.455,19.461,43.455,43.456
	C325.111,165.866,305.65,185.275,281.656,185.275z"/>
<polygon style="fill:#F7BE56;" points="109.944,137.557 153.076,331.834 410.18,331.834 453.313,137.557 "/>
<g>
	<path style="fill:#FCD462;" d="M407.927,183.588H155.33c-4.714,0-8.536,2.986-8.536,6.67s3.822,6.67,8.536,6.67h252.597
		c4.714,0,8.536-2.986,8.536-6.67S412.641,183.588,407.927,183.588z"/>
	<path style="fill:#FCD462;" d="M379.44,228.025H183.816c-3.651,0-6.61,2.986-6.61,6.67c0,3.684,2.96,6.67,6.61,6.67H379.44
		c3.651,0,6.61-2.986,6.61-6.67C386.051,231.011,383.091,228.025,379.44,228.025z"/>
	<path style="fill:#FCD462;" d="M366.506,272.462H196.75c-3.168,0-5.736,2.986-5.736,6.67s2.568,6.67,5.736,6.67h169.756
		c3.168,0,5.736-2.986,5.736-6.67S369.675,272.462,366.506,272.462z"/>
</g>
<g>
	<path style="fill:#2F4859;" d="M457.419,324.224H163.055L114.998,116.37c-7.132-30.85-34.227-52.394-65.892-52.394H10.874
		C4.868,63.976,0,68.844,0,74.85s4.868,10.874,10.874,10.874h38.232c21.484,0,39.868,14.616,44.705,35.548l50.002,216.277
		c1.138,4.931,5.53,8.423,10.593,8.423h303.012c6.006,0,10.874-4.868,10.874-10.874
		C468.293,329.092,463.425,324.224,457.419,324.224z"/>
	<circle style="fill:#2F4859;" cx="356.914" cy="392.906" r="31.344"/>
</g>
<path style="fill:#64798A;" d="M356.913,379.311c-7.494,0-13.569,6.075-13.569,13.568c0,7.494,6.075,13.569,13.569,13.569
	s13.569-6.075,13.569-13.569C370.482,385.386,364.407,379.311,356.913,379.311z"/>
<circle style="fill:#2F4859;" cx="206.342" cy="392.906" r="31.344"/>
<path style="fill:#64798A;" d="M206.343,379.311c-7.494,0-13.569,6.075-13.569,13.568c0,7.494,6.075,13.569,13.569,13.569
	c7.494,0,13.569-6.075,13.569-13.569C219.912,385.386,213.837,379.311,206.343,379.311z"/>
<g>
</g>
<g>
</g>
<g>
</g>
<g>
</g>
<g>
</g>
<g>
</g>
<g>
</g>
<g>
</g>
<g>
</g>
<g>
</g>
<g>
</g>
<g>
</g>
<g>
</g>
<g>
</g>
<g>
</g>
</svg>
