<svg height="512pt" viewBox="0 0 512 512" width="512pt" xmlns="http://www.w3.org/2000/svg"><path d="m426.667969 101.332031v48h-426.667969v-48c0-32.425781 26.238281-58.664062 58.667969-58.664062h309.332031c32.425781 0 58.667969 26.238281 58.667969 58.664062zm0 0" fill="#2196f3"/><path d="m202.667969 373.332031c0-94.101562 76.5625-170.664062 170.664062-170.664062 18.648438 0 36.523438 3.113281 53.335938 8.660156v-61.996094h-426.667969v197.335938c0 32.425781 26.238281 58.664062 58.667969 58.664062h147.113281c-1.984375-10.386719-3.113281-21.054687-3.113281-32zm0 0" fill="#eceff1"/><path d="m106.667969 106.667969c-11.777344 0-21.335938-9.558594-21.335938-21.335938v-64c0-11.773437 9.558594-21.332031 21.335938-21.332031 11.773437 0 21.332031 9.558594 21.332031 21.332031v64c0 11.777344-9.558594 21.335938-21.332031 21.335938zm0 0" fill="#607d8b"/><path d="m320 106.667969c-11.777344 0-21.332031-9.558594-21.332031-21.335938v-64c0-11.773437 9.554687-21.332031 21.332031-21.332031s21.332031 9.558594 21.332031 21.332031v64c0 11.777344-9.554687 21.335938-21.332031 21.335938zm0 0" fill="#607d8b"/><path d="m373.332031 234.667969c-76.457031 0-138.664062 62.207031-138.664062 138.664062 0 76.460938 62.207031 138.667969 138.664062 138.667969 76.460938 0 138.667969-62.207031 138.667969-138.667969 0-76.457031-62.207031-138.664062-138.667969-138.664062zm64.128907 115.304687-69.332032 80c-3.882812 4.480469-9.453125 7.125-15.359375 7.359375-.257812 0-.511719 0-.769531 0-5.652344 0-11.070312-2.238281-15.082031-6.25l-37.332031-37.332031c-8.34375-8.34375-8.34375-21.824219 0-30.164062 8.339843-8.34375 21.820312-8.34375 30.164062 0l21.140625 21.140624 54.316406-62.679687c7.722657-8.917969 21.203125-9.832031 30.101563-2.152344 8.894531 7.699219 9.855468 21.183594 2.152344 30.078125zm0 0" fill="#4caf50"/></svg>