<?xml version="1.0" encoding="iso-8859-1"?>
<!-- Generator: Adobe Illustrator 19.0.0, SVG Export Plug-In . SVG Version: 6.00 Build 0)  -->
<svg xmlns="http://www.w3.org/2000/svg" xmlns:xlink="http://www.w3.org/1999/xlink" version="1.1" id="Layer_1" x="0px" y="0px" viewBox="0 0 512 512" style="enable-background:new 0 0 512 512;" xml:space="preserve">
<path style="fill:#91E0FF;" d="M496.969,336.602H377.337c-31.686,0-58.595-24.949-58.595-58.607  c0.04-29.327,13.718-56.302,37.527-74.007c40.83-30.359,96.508-21.813,127.196,16.367c10.087,12.382,30.497,3.991,28.383-12.377  c-0.008-0.058-0.008-0.117-0.017-0.175C497.244,105.039,408.712,26,301.872,26C211.396,26,132.8,82.861,102.663,165.017  c-11.464,31.252-14.844,66.495-12.339,87.834c5.146,44.291-29.977,83.751-75.064,83.751H15c-8.284,0-15,6.709-15,14.986v98.706  c0,13.511,16.578,20.111,25.883,10.313c20.321-21.402,54.317-21.391,74.631,0.004c32.12,33.804,85.94,33.901,118.156-0.004  c20.278-21.357,54.28-21.433,74.632,0.004c32.121,33.804,85.998,33.839,118.156-0.004c20.276-21.354,54.329-21.385,74.625-0.002  c9.322,9.821,25.885,3.169,25.885-10.311v-98.706C511.969,343.312,505.253,336.602,496.969,336.602z"/>
<path style="fill:#61CEF3;" d="M496.969,336.602H377.337c-31.686,0-58.595-24.949-58.595-58.607  c0.04-29.327,13.718-56.302,37.527-74.007c40.83-30.359,96.508-21.813,127.196,16.367c10.087,12.382,30.497,3.991,28.383-12.377  c-0.008-0.058-0.008-0.117-0.017-0.175C497.244,105.039,408.712,26,301.872,26c-15.713,0-31.067,1.719-45.872,4.984v413.579  c13.566,0.002,27.137,5.341,37.302,16.049c32.121,33.804,85.998,33.839,118.156-0.004c20.276-21.354,54.329-21.385,74.625-0.002  c9.322,9.821,25.885,3.169,25.885-10.311v-98.706C511.969,343.312,505.253,336.602,496.969,336.602z"/>
<g>
</g>
<g>
</g>
<g>
</g>
<g>
</g>
<g>
</g>
<g>
</g>
<g>
</g>
<g>
</g>
<g>
</g>
<g>
</g>
<g>
</g>
<g>
</g>
<g>
</g>
<g>
</g>
<g>
</g>
</svg>
