<?xml version="1.0" encoding="iso-8859-1"?>
<!-- Generator: Adobe Illustrator 19.0.0, SVG Export Plug-In . SVG Version: 6.00 Build 0)  -->
<svg xmlns="http://www.w3.org/2000/svg" xmlns:xlink="http://www.w3.org/1999/xlink" version="1.1" id="Capa_1" x="0px" y="0px" viewBox="0 0 512 512" style="enable-background:new 0 0 512 512;" xml:space="preserve">
<rect y="197.208" style="fill:#25B6D2;" width="512" height="117.384"/>
<g>
	<rect x="457.6" y="255.896" style="fill:#FFFFFF;" width="8" height="58.688"/>
	<rect x="411.92" y="285.24" style="fill:#FFFFFF;" width="8" height="29.344"/>
	<rect x="366.24" y="255.896" style="fill:#FFFFFF;" width="8" height="58.688"/>
	<rect x="320.56" y="285.24" style="fill:#FFFFFF;" width="8" height="29.344"/>
	<rect x="274.88" y="255.896" style="fill:#FFFFFF;" width="8" height="58.688"/>
	<rect x="229.152" y="285.24" style="fill:#FFFFFF;" width="8" height="29.344"/>
	<rect x="183.456" y="255.896" style="fill:#FFFFFF;" width="8" height="58.688"/>
	<rect x="137.76" y="285.24" style="fill:#FFFFFF;" width="8" height="29.344"/>
	<rect x="92.064" y="255.896" style="fill:#FFFFFF;" width="8" height="58.688"/>
	<rect x="46.368" y="285.24" style="fill:#FFFFFF;" width="8" height="29.344"/>
</g>
<rect x="197.304" y="437.12" style="fill:#E04F5F;" width="117.384" height="74.848"/>
<rect x="197.304" y="100.36" style="fill:#FFD983;" width="117.384" height="336.8"/>
<polygon style="fill:#E8B152;" points="197.312,100.36 314.688,100.36 288.16,55 223.84,55 "/>
<polygon points="288.16,55 256,0 223.84,55 "/>
<rect x="197.304" y="415.24" style="fill:#B6DDF2;" width="117.384" height="26.648"/>
<g style="opacity:0.25;">
	<polygon style="fill:#FFFFFF;" points="256,511.992 256,0 314.688,100.36 314.688,512  "/>
</g>
<g>
</g>
<g>
</g>
<g>
</g>
<g>
</g>
<g>
</g>
<g>
</g>
<g>
</g>
<g>
</g>
<g>
</g>
<g>
</g>
<g>
</g>
<g>
</g>
<g>
</g>
<g>
</g>
<g>
</g>
</svg>
