<svg id="Layer_1" enable-background="new 0 0 65 65" height="512" viewBox="0 0 65 65" width="512" xmlns="http://www.w3.org/2000/svg"><g><path d="m.5 11.8h64v7h-64z" fill="#fbd984"/><path d="m.5 17.5h64v1.3h-64z" fill="#fdc77c"/><g fill="#fdc77c"><path d="m3.5 18.8h3.4v34.4h-3.4z"/><path d="m58.1 18.8h3.4v34.4h-3.4z"/></g><g fill="#e39a61"><path d="m3.5 18.8h3.4v1.6h-3.4z"/><path d="m58.1 18.8h3.4v1.6h-3.4z"/></g><path d="m31.6 18.8h26.5v25.3h-26.5z" fill="#f0b972"/><path d="m33.4 20.4h22.8v10.3h-22.8z" fill="#e39a61"/><path d="m33.4 29.3h22.8v1.3h-22.8z" fill="#db8d58"/><path d="m33.4 32.2h22.8v10.3h-22.8z" fill="#e39a61"/><circle cx="44.8" cy="25.5" fill="#fdc77c" r="1.9"/><circle cx="44.8" cy="37.3" fill="#fdc77c" r="1.9"/><path d="m33.4 41.1h22.8v1.3h-22.8z" fill="#db8d58"/></g></svg>