<svg id="Capa_1" enable-background="new 0 0 512 512" height="512" viewBox="0 0 512 512" width="512" xmlns="http://www.w3.org/2000/svg"><g><path d="m418.237 502.853h-324.474c-28.107 0-50.892-22.785-50.892-50.892v-7.767h426.258v7.767c0 28.107-22.785 50.892-50.892 50.892z" fill="#f3f0f3"/><path d="m469.125 444.192v7.769c0 28.103-22.783 50.897-50.886 50.897h-25.736c28.113 0 50.896-22.793 50.896-50.897v-7.769z" fill="#e2dee2"/><path d="m430.035 405.439h-348.07c-19.623 0-35.531-15.908-35.531-35.531v-6.995c0-19.623 15.908-35.531 35.531-35.531h348.07c19.623 0 35.531 15.908 35.531 35.531v6.995c0 19.623-15.908 35.531-35.531 35.531z" fill="#fe9738"/><path d="m465.565 362.917v6.987c0 19.624-15.909 35.533-35.533 35.533h-20.797c19.624 0 35.533-15.909 35.533-35.533v-6.987c0-19.624-15.909-35.533-35.533-35.533h20.797c19.624 0 35.533 15.909 35.533 35.533z" fill="#fe860a"/><path d="m495.141 446.527h-478.282c-9.311 0-16.859-7.548-16.859-16.859v-9.701c0-9.311 7.548-16.859 16.859-16.859h478.282c9.311 0 16.859 7.548 16.859 16.859v9.701c0 9.311-7.548 16.859-16.859 16.859z" fill="#cbc4cc"/><path d="m511.995 419.972v9.694c0 9.313-7.543 16.866-16.856 16.866h-20.91c9.313 0 16.866-7.553 16.866-16.866v-9.694c0-9.313-7.553-16.866-16.866-16.866h20.91c9.313 0 16.856 7.553 16.856 16.866z" fill="#b5adb6"/><path d="m365.035 91.192c9.863-5.249 18.765-12.437 26.277-20.657 11.736-12.841 19.58-28.825 21.478-46.129.21-1.914-.731-3.776-2.397-4.74-14.863-8.599-32.127-11.786-49.205-10.08-13.885 1.386-28.275 5.365-39.897 13.387-18.51 12.777-33.531 31.823-38.291 54.241-.78 3.671-3.481 11.997 1.128 14.507 4.276 2.328 8.772 4.249 13.409 5.735 21.742 6.97 47.253 4.51 67.498-6.264z" fill="#00c27a"/><path d="m412.795 24.408c-1.904 17.308-9.745 33.29-21.486 46.132-7.512 8.212-16.413 15.405-26.271 20.653-20.252 10.774-45.762 13.233-67.505 6.267-4.631-1.492-9.128-3.406-13.408-5.742-1.677-.906-2.655-2.727-2.501-4.631.082-1.029.165-2.079.226-2.758 21.559 6.658 46.698 4.126 66.703-6.514 9.858-5.248 18.759-12.431 26.271-20.653 11.237-12.297 18.904-27.465 21.209-43.92 4.97 1.636 9.776 3.766 14.365 6.421 1.667.968 2.603 2.83 2.397 4.745z" fill="#08b865"/><path d="m430.035 329.715h-348.07c-19.623 0-35.531-15.908-35.531-35.531v-6.995c0-19.623 15.908-35.531 35.531-35.531h348.07c19.623 0 35.531 15.908 35.531 35.531v6.995c0 19.623-15.908 35.531-35.531 35.531z" fill="#fdb97e"/><path d="m430.035 253.991h-348.07c-19.623 0-35.531-15.908-35.531-35.531v-6.995c0-19.623 15.908-35.531 35.531-35.531h348.07c19.623 0 35.531 15.908 35.531 35.531v6.995c0 19.623-15.908 35.531-35.531 35.531z" fill="#fe9738"/><path d="m465.565 287.187v6.997c0 19.624-15.909 35.533-35.533 35.533h-20.797c19.624 0 35.533-15.909 35.533-35.533v-6.997c0-19.624-15.909-35.533-35.533-35.533h20.797c19.624 0 35.533 15.909 35.533 35.533z" fill="#fea95c"/><path d="m465.565 211.468v6.987c0 19.624-15.909 35.533-35.533 35.533h-20.797c19.624 0 35.533-15.909 35.533-35.533v-6.987c0-19.624-15.909-35.533-35.533-35.533h20.797c19.624 0 35.533 15.909 35.533 35.533z" fill="#fe860a"/><path d="m381.151 126.242h-252.121c-13.722 0-24.845 11.124-24.845 24.845 0 13.722 11.124 24.845 24.845 24.845h117.871c19.13 0 34.637 15.508 34.637 34.637v59.892c0 12.458 10.1 22.558 22.558 22.558 12.458 0 22.558-10.1 22.558-22.558v-59.891c0-19.13 15.508-34.637 34.637-34.637h19.86c13.722 0 24.845-11.124 24.845-24.845.001-13.723-11.123-24.846-24.845-24.846z" fill="#7bacdf"/><circle cx="222.254" cy="99.609" fill="#0078c8" r="44.353"/><path d="m266.609 99.61c0 24.491-19.861 44.352-44.352 44.352-8.418 0-16.279-2.336-22.979-6.411 1.111.093 2.223.134 3.355.134 24.491 0 44.352-19.861 44.352-44.352 0-16.084-8.562-30.172-21.373-37.941 22.927 1.708 40.997 20.859 40.997 44.218z" fill="#0268b4"/><circle cx="289.746" cy="99.609" fill="#0078c8" r="44.353"/><path d="m334.104 99.61c0 24.491-19.861 44.352-44.362 44.352-8.407 0-16.269-2.336-22.968-6.411 1.111.093 2.223.134 3.344.134 24.502 0 44.352-19.861 44.352-44.352 0-16.084-8.562-30.172-21.373-37.941 22.937 1.708 41.007 20.859 41.007 44.218z" fill="#0268b4"/><g><path d="m304.581 108.733c-.315 0-.631-.019-.951-.058-4.231-.52-7.239-4.37-6.72-8.601.53-4.313-2.314-9.153-6.339-10.791-3.947-1.606-5.846-6.109-4.24-10.057 1.607-3.948 6.111-5.847 10.058-4.24 10.569 4.301 17.231 15.643 15.842 26.969-.48 3.91-3.808 6.778-7.65 6.778z" fill="#035c93"/></g></g></svg>