<svg height="512" viewBox="0 0 128 128" width="512" xmlns="http://www.w3.org/2000/svg"><g><path d="m97.532 16.586v94.828h-67.064v10.28h77.345v-105.108z" fill="#3ea2e5"/><path d="m40.947 6.306h56.585v105.108h-77.345v-84.348z" fill="#dfeef4"/><path d="m40.947 27.066h-20.76l20.76-20.76z" fill="#3ea2e5"/><g fill="#6d7a84"><path d="m81.61 48.524h-45.5a1.75 1.75 0 0 1 0-3.5h45.5a1.75 1.75 0 1 1 0 3.5z"/><path d="m81.61 60.61h-45.5a1.75 1.75 0 1 1 0-3.5h45.5a1.75 1.75 0 0 1 0 3.5z"/><path d="m81.61 72.7h-45.5a1.75 1.75 0 0 1 0-3.5h45.5a1.75 1.75 0 0 1 0 3.5z"/><path d="m81.61 84.781h-45.5a1.75 1.75 0 0 1 0-3.5h45.5a1.75 1.75 0 1 1 0 3.5z"/><path d="m81.61 96.867h-45.5a1.75 1.75 0 1 1 0-3.5h45.5a1.75 1.75 0 0 1 0 3.5z"/><path d="m81.61 36.438h-45.5a1.75 1.75 0 1 1 0-3.5h45.5a1.75 1.75 0 0 1 0 3.5z"/><path d="m81.61 20.853h-40.663v3.5h40.663a1.75 1.75 0 0 0 0-3.5z"/></g></g></svg>