<?xml version="1.0" encoding="iso-8859-1"?>
<!-- Generator: Adobe Illustrator 21.0.0, SVG Export Plug-In . SVG Version: 6.00 Build 0)  -->
<svg version="1.1" id="Capa_1" xmlns="http://www.w3.org/2000/svg" xmlns:xlink="http://www.w3.org/1999/xlink" x="0px" y="0px"
	 viewBox="0 0 512.001 512.001" style="enable-background:new 0 0 512.001 512.001;" xml:space="preserve">
<path style="fill:#ECECF1;" d="M501.799,211.899l-61.899-20.4c-2.1-6.899-5.099-13.5-8.101-20.099l28.5-57.301
	c2.999-5.7,1.8-12.599-2.701-17.098L415,54.399c-4.499-4.499-11.4-5.7-17.1-2.699l-57.3,28.5c-6.601-3.001-13.2-6-20.099-8.101
	l-20.402-61.901C298.299,4.2,292.599,0,286,0h-60c-6.599,0-12.299,4.2-14.099,10.199L191.499,72.1
	C184.6,74.2,178,77.199,171.4,80.201l-57.299-28.5c-5.7-3.001-12.601-1.8-17.1,2.699L54.401,97
	c-4.501,4.499-5.7,11.398-2.701,17.098L80.2,171.4c-3.001,6.599-6,13.2-8.101,20.099l-61.899,20.4c-6,1.8-10.2,7.5-10.2,14.101v60
	c0,6.599,4.2,12.299,10.201,14.099l61.899,20.4c2.1,6.901,5.099,13.5,8.101,20.101l-28.5,57.299c-2.999,5.7-1.8,12.599,2.701,17.1
	L97,457.599c4.499,4.501,11.4,5.7,17.1,2.701l57.299-28.5c6.601,2.999,13.2,6,20.099,8.101L211.9,501.8
	c1.8,6,7.5,10.201,14.099,10.201h60c6.599,0,12.299-4.2,14.099-10.201l20.402-61.899c6.899-2.1,13.499-5.101,20.099-8.101
	l57.299,28.5c5.7,2.999,12.601,1.8,17.1-2.701L457.599,415c4.501-4.501,5.7-11.4,2.701-17.1l-28.5-57.3
	c3.001-6.601,6-13.2,8.101-20.101l61.899-20.4c6-1.8,10.201-7.5,10.201-14.099v-60C512,219.399,507.8,213.699,501.799,211.899z"/>
<path style="fill:#E2E2E7;" d="M512,226v60c0,6.599-4.2,12.299-10.201,14.099l-61.899,20.4c-2.1,6.901-5.099,13.5-8.101,20.101
	l28.5,57.299c2.999,5.7,1.8,12.599-2.701,17.1L415,457.599c-4.499,4.501-11.4,5.7-17.1,2.701l-57.3-28.5
	c-6.601,2.999-13.2,6-20.099,8.101L300.099,501.8c-1.8,6-7.5,10.201-14.099,10.201h-30V0h30c6.599,0,12.299,4.2,14.099,10.199
	L320.501,72.1C327.4,74.2,334,77.199,340.6,80.201l57.299-28.5c5.7-3.001,12.601-1.8,17.1,2.699l42.6,42.6
	c4.501,4.499,5.7,11.398,2.701,17.098L431.8,171.4c3.001,6.599,6,13.2,8.101,20.099l61.899,20.4C507.8,213.699,512,219.399,512,226z
	"/>
<path style="fill:#A8EBFA;" d="M256,121c-74.399,0-135,60.599-135,135c0,74.399,60.601,135,135,135s135-60.601,135-135
	C391,181.599,330.399,121,256,121z"/>
<path style="fill:#76E2F8;" d="M391,256c0,74.399-60.601,135-135,135V121C330.399,121,391,181.599,391,256z"/>
<path style="fill:#25D9F8;" d="M256,151c-57.9,0-105,47.1-105,105s47.1,105,105,105s105-47.1,105-105S313.9,151,256,151z"/>
<path style="fill:#00C0F1;" d="M361,256c0,57.9-47.1,105-105,105V151C313.9,151,361,198.1,361,256z"/>
<g>
	<path style="fill:#A8EBFA;" d="M256,121c-42.9,0-75,57.9-75,135s32.1,135,75,135s75-57.9,75-135S298.9,121,256,121z M256,361
		c-21.301,0-45-45-45-105s23.699-105,45-105s45,45,45,105S277.301,361,256,361z"/>
	<path style="fill:#A8EBFA;" d="M371.8,213.399C348.401,230.799,305.2,241,256,241s-92.401-10.201-115.8-27.601
		c-6.601-4.799-8.101-14.099-3.3-20.698c5.099-6.901,14.399-8.401,20.999-3.301C175.901,202.599,214.3,211,256,211
		s80.099-8.401,98.101-21.601c6.599-5.099,15.899-3.6,20.999,3.301C379.9,199.3,378.401,208.599,371.8,213.399z"/>
	<path style="fill:#A8EBFA;" d="M375.099,319.3c-2.999,4.2-7.5,6.301-12.299,6.301c-2.999,0-6-0.901-8.699-3.001
		C336.099,309.399,297.7,301,256,301s-80.099,8.399-98.101,21.599c-6.599,4.801-15.899,3.6-20.999-3.3
		c-4.801-6.599-3.301-15.901,3.3-20.7C163.599,281.199,206.8,271,256,271s92.401,10.199,115.8,27.599
		C378.401,303.399,379.9,312.7,375.099,319.3z"/>
	<path style="fill:#A8EBFA;" d="M271,136v240c0,8.399-6.599,15-15,15s-15-6.601-15-15V136c0-8.401,6.599-15,15-15
		S271,127.599,271,136z"/>
</g>
<g>
	<path style="fill:#76E2F8;" d="M331,256c0,77.1-32.1,135-75,135v-30c21.301,0,45-45,45-105s-23.699-105-45-105v-30
		C298.9,121,331,178.9,331,256z"/>
	<path style="fill:#76E2F8;" d="M371.8,298.599c6.601,4.799,8.101,14.101,3.3,20.7c-2.999,4.2-7.5,6.301-12.299,6.301
		c-2.999,0-6-0.901-8.699-3.001C336.099,309.399,297.7,301,256,301v-30C305.2,271,348.401,281.199,371.8,298.599z"/>
	<path style="fill:#76E2F8;" d="M371.8,213.399C348.401,230.799,305.2,241,256,241v-30c41.7,0,80.099-8.401,98.101-21.601
		c6.599-5.099,15.899-3.6,20.999,3.301C379.9,199.3,378.401,208.599,371.8,213.399z"/>
	<path style="fill:#76E2F8;" d="M271,136v240c0,8.399-6.599,15-15,15V121C264.401,121,271,127.599,271,136z"/>
</g>
<g>
</g>
<g>
</g>
<g>
</g>
<g>
</g>
<g>
</g>
<g>
</g>
<g>
</g>
<g>
</g>
<g>
</g>
<g>
</g>
<g>
</g>
<g>
</g>
<g>
</g>
<g>
</g>
<g>
</g>
</svg>
