<?xml version="1.0" encoding="iso-8859-1"?>
<!-- Generator: Adobe Illustrator 19.0.0, SVG Export Plug-In . SVG Version: 6.00 Build 0)  -->
<svg version="1.1" id="Capa_1" xmlns="http://www.w3.org/2000/svg" xmlns:xlink="http://www.w3.org/1999/xlink" x="0px" y="0px"
	 viewBox="0 0 512 512" style="enable-background:new 0 0 512 512;" xml:space="preserve">
<path style="fill:#707487;" d="M419.853,512H92.148c-4.568,0-8.271-3.703-8.271-8.271V8.271C83.877,3.703,87.58,0,92.148,0h327.705
	c4.568,0,8.271,3.703,8.271,8.271v495.458C428.124,508.297,424.421,512,419.853,512z"/>
<path style="fill:#606575;" d="M428.12,8.273v495.454c0,4.57-3.701,8.271-8.271,8.271h-23.417V0.002h23.417
	C424.418,0.002,428.12,3.703,428.12,8.273z"/>
<circle style="fill:#E2EEFD;" cx="256" cy="359.39" r="94.65"/>
<path style="fill:#C7DCF2;" d="M350.651,359.388c0,52.273-42.379,94.651-94.651,94.651c-33.766,0-63.397-17.679-80.156-44.291
	c17.142,17.204,40.848,27.842,67.047,27.842c52.273,0,94.651-42.379,94.651-94.662c0-18.506-5.314-35.772-14.495-50.36
	C340.095,309.689,350.651,333.313,350.651,359.388z"/>
<circle style="fill:#707487;" cx="256" cy="359.39" r="67.03"/>
<circle style="fill:#E2EEFD;" cx="256" cy="112.95" r="79.66"/>
<path style="fill:#C7DCF2;" d="M335.66,112.953c0,43.991-35.669,79.65-79.66,79.65c-25.744,0-48.633-12.21-63.18-31.151
	c13.678,11.083,31.099,17.71,50.071,17.71c43.991,0,79.66-35.658,79.66-79.65c0-18.258-6.141-35.079-16.48-48.509
	C324.122,65.601,335.66,87.923,335.66,112.953z"/>
<circle style="fill:#707487;" cx="256" cy="112.95" r="53.1"/>
<g>
	<circle style="fill:#E2EEFD;" cx="256" cy="359.39" r="20.59"/>
	<circle style="fill:#E2EEFD;" cx="256" cy="112.95" r="20.59"/>
</g>
<path style="fill:#555A66;" d="M377.214,351.66H358.09c-3.772-50.306-44.057-90.591-94.362-94.363v-19.122
	c0-4.268-3.46-7.727-7.727-7.727c-4.267,0-7.727,3.459-7.727,7.727v19.122c-50.306,3.772-90.591,44.057-94.362,94.363H134.79
	c-4.268,0-7.727,3.459-7.727,7.727c0,4.268,3.46,7.727,7.727,7.727h19.123c3.772,50.305,44.057,90.59,94.362,94.362V480.6
	c0,4.268,3.46,7.727,7.727,7.727c4.267,0,7.727-3.459,7.727-7.727v-19.123c50.306-3.772,90.591-44.057,94.362-94.362h19.123
	c4.268,0,7.727-3.459,7.727-7.727C384.94,355.12,381.481,351.66,377.214,351.66z M256,446.313
	c-47.931,0-86.926-38.994-86.926-86.925S208.07,272.462,256,272.462s86.926,38.995,86.926,86.926S303.931,446.313,256,446.313z"/>
<g>
</g>
<g>
</g>
<g>
</g>
<g>
</g>
<g>
</g>
<g>
</g>
<g>
</g>
<g>
</g>
<g>
</g>
<g>
</g>
<g>
</g>
<g>
</g>
<g>
</g>
<g>
</g>
<g>
</g>
</svg>
