<?xml version="1.0" encoding="iso-8859-1"?>
<!-- Generator: Adobe Illustrator 19.0.0, SVG Export Plug-In . SVG Version: 6.00 Build 0)  -->
<svg version="1.1" id="Capa_1" xmlns="http://www.w3.org/2000/svg" xmlns:xlink="http://www.w3.org/1999/xlink" x="0px" y="0px"
	 viewBox="0 0 512 512" style="enable-background:new 0 0 512 512;" xml:space="preserve">
<path style="fill:#00663B;" d="M135.422,269.46l20.016,212.258h97.428l50.426-155.746c3.916-12.094,6.263-24.333,7.163-36.495
	L135.422,269.46z"/>
<g>
	<path style="fill:#3F893C;" d="M0.421,289.476c0.9,12.161,3.248,24.4,7.163,36.495L58.01,481.718h97.428V269.46L0.421,289.476z"/>
	<path style="fill:#3F893C;" d="M210.548,132.791l-4.946-1.77V94.074l-70.18-20.016l20.016,215.419h155.017
		C315.42,222.381,276.126,157.661,210.548,132.791z"/>
</g>
<path style="fill:#56C225;" d="M105.274,94.074v36.948l-4.946,1.77C34.75,157.661-4.544,222.381,0.421,289.476h155.017V74.057
	L105.274,94.074z"/>
<path style="fill:#BEEBFA;" d="M455.25,401.271c41.776-8.789,67.996-53.527,52.008-95.595l-11.084-29.164H440.25l-15,93.76v81.446
	h-50.695v30h131.392v-30h-50.696v-50.447H455.25z"/>
<path style="fill:#E1F4FA;" d="M384.326,276.511l-11.084,29.164c-17.828,46.912,16.823,97.15,67.008,97.15l0,0V276.511H384.326z"/>
<polygon style="fill:#4F2F25;" points="205.602,30.285 155.438,30.285 135.422,62.179 155.438,94.074 205.602,94.074 "/>
<rect x="105.271" y="30.282" style="fill:#73553A;" width="50.161" height="63.79"/>
<path style="fill:#FFCD00;" d="M155.438,202.367l-20.016,87.109l20.016,87.109c29.242-0.002,52.947-23.707,52.947-52.95v-68.318
	C208.385,226.075,184.679,202.369,155.438,202.367z"/>
<path style="fill:#FFE477;" d="M155.435,202.367L155.435,202.367c-29.243,0-52.95,23.706-52.95,52.95v68.318
	c0,29.243,23.706,52.95,52.95,52.95l0,0c0.001,0,0.002,0,0.003,0V202.367C155.437,202.367,155.436,202.367,155.435,202.367z"/>
<g>
</g>
<g>
</g>
<g>
</g>
<g>
</g>
<g>
</g>
<g>
</g>
<g>
</g>
<g>
</g>
<g>
</g>
<g>
</g>
<g>
</g>
<g>
</g>
<g>
</g>
<g>
</g>
<g>
</g>
</svg>
