<svg height="512" viewBox="0 0 64 64" width="512" xmlns="http://www.w3.org/2000/svg"><g id="_19-Plant" data-name="19-Plant"><path d="m32 1v34h-4c-2.47-1.85-3.41-4.84-3.77-8.03a52.42 52.42 0 0 1 -.23-5.97c0-13 8-20 8-20z" fill="#effaa5"/><path d="m24.23 26.97c.36 3.19 1.3 6.18 3.77 8.03h-2s-3-1-8-5c-7.81-6.25-8-17-8-17l14 14z" fill="#d7e682"/><path d="m54 13-14 14-.23-.03a52.42 52.42 0 0 0 .23-5.97c0-5 14-8 14-8z" fill="#effaa5"/><path d="m24.23 26.97-.23.03-14-14s14 3 14 8a52.42 52.42 0 0 0 .23 5.97z" fill="#85ad59"/><path d="m46 30c-5 4-8 5-8 5h-2c2.47-1.85 3.41-4.84 3.77-8.03l.23.03 14-14s-.19 10.75-8 17z" fill="#85ad59"/><path d="m40 21a52.42 52.42 0 0 1 -.23 5.97c-.36 3.19-1.3 6.18-3.77 8.03h-4v-34s8 7 8 20z" fill="#bed264"/><path d="m51 35v6h-2-34-2v-6h16z" fill="#c48958"/><path d="m19 38a2 2 0 0 1 -2-2v-1h-4v6h38v-3z" fill="#b27a49"/><path d="m49 41-.36 4h-33.28l-.36-4z" fill="#f2bb88"/><path d="m15 41 .36 4h4l-.36-4z" fill="#e3a76f"/><path d="m48.64 45-1.64 18h-30l-1.64-18z" fill="#fff2de"/><path d="m20.834 57.181-1.11-12.181h-4.364l1.64 18h30l.364-4h-24.538a2 2 0 0 1 -1.992-1.819z" fill="#ffe4c2"/></g></svg>