<svg id="Layer_1" height="512" viewBox="0 0 64 64" width="512" xmlns="http://www.w3.org/2000/svg" data-name="Layer 1"><path d="m10 10h44a2 2 0 0 1 2 2v33a0 0 0 0 1 0 0h-48a0 0 0 0 1 0 0v-33a2 2 0 0 1 2-2z" fill="#3e4950"/><path d="m21 5h22v40h-22z" fill="#eceef0" transform="matrix(0 1 -1 0 57 -7)"/><path d="m56 40h-48l-2 10v2a2 2 0 0 0 2 2h48a2 2 0 0 0 2-2v-2z" fill="#eceef0"/><path d="m6 50h52a0 0 0 0 1 0 0v2a2 2 0 0 1 -2 2h-48a2 2 0 0 1 -2-2v-2a0 0 0 0 1 0 0z" fill="#c3ccd1"/><path d="m26 50 .8-4h10.4l.8 4z" fill="#3e4950"/></svg>