<?xml version="1.0" encoding="iso-8859-1"?>
<!-- Generator: Adobe Illustrator 19.0.0, SVG Export Plug-In . SVG Version: 6.00 Build 0)  -->
<svg version="1.1" id="Capa_1" xmlns="http://www.w3.org/2000/svg" xmlns:xlink="http://www.w3.org/1999/xlink" x="0px" y="0px"
	 viewBox="0 0 512.001 512.001" style="enable-background:new 0 0 512.001 512.001;" xml:space="preserve">
<circle style="fill:#FF4C4D;" cx="246.101" cy="265.91" r="246.09"/>
<path style="fill:#F4424B;" d="M246.104,19.817c-8.538,0-16.975,0.436-25.289,1.285c124.032,12.661,220.803,117.432,220.803,244.807
	s-96.771,232.145-220.803,244.807c8.314,0.849,16.751,1.285,25.289,1.285c135.913,0,246.092-110.179,246.092-246.092
	S382.017,19.817,246.104,19.817z"/>
<g>
	<path style="fill:#E2334C;" d="M246.104,19.817c-2.686,0-5.359,0.059-8.025,0.144v92.988c0,4.432,3.593,8.025,8.025,8.025
		s8.025-3.593,8.025-8.025V19.961C251.463,19.875,248.79,19.817,246.104,19.817z"/>
	<path style="fill:#E2334C;" d="M246.104,410.844c-4.432,0-8.025,3.593-8.025,8.025v92.987c2.666,0.085,5.338,0.144,8.025,0.144
		c2.686,0,5.359-0.059,8.025-0.144v-92.987C254.129,414.437,250.536,410.844,246.104,410.844z"/>
	<path style="fill:#E2334C;" d="M492.196,265.908c0-2.687-0.059-5.359-0.144-8.025h-92.987c-4.432,0-8.025,3.593-8.025,8.025
		s3.593,8.025,8.025,8.025h92.987C492.137,271.267,492.196,268.595,492.196,265.908z"/>
	<path style="fill:#E2334C;" d="M93.143,257.883H0.156c-0.085,2.666-0.144,5.338-0.144,8.025c0,2.686,0.059,5.359,0.144,8.025
		h92.987c4.432,0,8.025-3.593,8.025-8.025S97.575,257.883,93.143,257.883z"/>
</g>
<circle style="fill:#5BCEEB;" cx="246.101" cy="265.91" r="160.45"/>
<path style="fill:#4ABDD8;" d="M246.104,105.458c-8.513,0-16.87,0.669-25.024,1.946c76.727,12.017,135.426,78.403,135.426,158.504
	S297.808,412.394,221.08,424.412c8.155,1.277,16.511,1.946,25.024,1.946c88.614,0,160.45-71.836,160.45-160.45
	S334.718,105.458,246.104,105.458z"/>
<circle style="fill:#FF4C4D;" cx="246.101" cy="265.91" r="73.828"/>
<path style="fill:#F4424B;" d="M246.104,192.081c-8.802,0-17.241,1.547-25.069,4.373c28.432,10.264,48.759,37.483,48.759,69.455
	s-20.326,59.19-48.759,69.455c7.828,2.826,16.267,4.373,25.069,4.373c40.774,0,73.827-33.054,73.827-73.828
	S286.878,192.081,246.104,192.081z"/>
<path style="fill:#48516F;" d="M482.203,29.787c-3.134-3.134-8.215-3.134-11.349,0L240.43,260.212
	c-3.134,3.134-3.134,8.215,0,11.349c1.567,1.567,3.621,2.35,5.674,2.35s4.107-0.784,5.674-2.35L482.203,41.136
	C485.337,38.002,485.337,32.921,482.203,29.787z"/>
<path style="fill:#BFE2DF;" d="M268.408,243.582L268.408,243.582c-10.949-10.949-10.173-28.924,1.678-38.889L406.554,89.944
	c4.367-3.672,10.817-3.394,14.851,0.641l0,0c4.034,4.034,4.313,10.484,0.641,14.851L307.297,241.904
	C297.332,253.755,279.356,254.531,268.408,243.582z"/>
<polygon style="fill:#F2AA0A;" points="403.441,108.549 461.259,116.892 511.99,66.161 454.172,57.818 "/>
<polygon style="fill:#F7CE5E;" points="403.441,108.549 395.098,50.731 445.829,0 454.172,57.818 "/>
<g>
</g>
<g>
</g>
<g>
</g>
<g>
</g>
<g>
</g>
<g>
</g>
<g>
</g>
<g>
</g>
<g>
</g>
<g>
</g>
<g>
</g>
<g>
</g>
<g>
</g>
<g>
</g>
<g>
</g>
</svg>
