<svg height="512pt" viewBox="-46 0 511 512" width="512pt" xmlns="http://www.w3.org/2000/svg"><g fill-rule="evenodd"><path d="m.5 26.019531v459.960938c0 14.308593 11.695312 26.019531 25.984375 26.019531h366.03125c14.289063 0 25.984375-11.738281 25.984375-26.019531v-368.089844c0-3.273437 0-6.28125-.027344-9.023437l-98.488281-108.867188h-293.5c-14.289063 0-25.984375 11.710938-25.984375 26.019531zm0 0" fill="#eceff1"/><path d="m319.957031 82.847656c-.027343 14.308594 11.664063 26.015625 25.984375 26.015625h72.53125c-.351562-21.695312-2.828125-28.792969-20.621094-48.125l-33.742187-36.734375c-17.175781-18.660156-18.722656-24.003906-44.125-24.003906zm0 0" fill="#90a4ae"/><path d="m113.800781 274.0625h-47.828125c-2.507812 0-4.550781 2.042969-4.550781 4.554688v27.859374c0 2.511719 2.042969 4.554688 4.550781 4.554688h47.828125c2.507813 0 4.546875-2.042969 4.546875-4.554688v-27.859374c.003906-2.511719-2.039062-4.554688-4.546875-4.554688zm0 0" fill="#8bc34a"/><path d="m113.800781 348.410156h-47.828125c-2.507812 0-4.550781 2.074219-4.550781 4.585938v27.828125c0 2.511719 2.042969 4.585937 4.550781 4.585937h47.828125c2.507813 0 4.546875-2.074218 4.546875-4.585937v-27.828125c.003906-2.511719-2.039062-4.585938-4.546875-4.585938zm0 0" fill="#ffd54f"/><path d="m113.800781 422.789062h-47.828125c-2.507812 0-4.550781 2.042969-4.550781 4.554688v27.832031c0 2.539063 2.042969 4.582031 4.550781 4.582031h47.828125c2.507813 0 4.546875-2.042968 4.546875-4.582031v-27.832031c.003906-2.511719-2.039062-4.554688-4.546875-4.554688zm0 0" fill="#f55a8e"/><path d="m382.25 117.890625v368.089844c0 14.25-11.664062 25.960937-25.898438 26.019531h36.164063c14.289063 0 25.984375-11.738281 25.984375-26.019531v-368.089844c0-3.273437 0-6.28125-.027344-9.023437h-36.28125c.058594 2.742187.058594 5.75.058594 9.023437zm0 0" fill="#c4cccf"/><path d="m203.273438 230.347656c48.410156 0 87.898437-39.542968 87.898437-88.015625 0-48.476562-39.484375-87.988281-87.898437-87.988281-48.382813 0-87.871094 39.511719-87.871094 87.988281 0 48.476563 39.488281 88.015625 87.871094 88.015625zm0 0" fill="#ffd54f"/><path d="m209.71875 157.632812c-.699219 4.351563-3.03125 7.386719-7.699219 7.386719-2.214843 0-4.140625-.816406-5.65625-2.453125-1.78125-1.894531-2.277343-4.523437-2.277343-7.066406 0-3.152344.378906-6.453125 1.515624-9.429688.964844-2.542968 2.277344-4.9375 3.996094-7.039062 2.011719-2.425781 4.257813-4.761719 6.503906-6.949219 1.71875-1.695312 3.5-3.417969 5.074219-5.199219 1.019531-1.140624 1.835938-2.363281 2.507813-3.707031s.960937-2.777343.960937-4.265625c0-2.921875-.933593-5.488281-2.972656-7.621094-2.101563-2.160156-4.695313-3.066406-7.699219-3.066406s-6.125.640625-8.136718 3.066406c-2.21875 2.65625-4.523438 6.480469-5.484376 9.753907-.554687 4.496093-2.65625 7.824219-7.378906 7.824219-2.449218 0-4.492187-.992188-6.066406-2.859376-1.484375-1.726562-2.421875-3.710937-2.421875-6.019531 0-4.464843 1.371094-8.671875 3.53125-12.527343 2.449219-4.410157 5.976563-7.855469 10.234375-10.484376 4.785156-2.917968 10.121094-4.117187 15.71875-4.117187 5.132812 0 10.148438.992187 14.699219 3.476563 4.171875 2.25 7.523437 5.371093 9.917969 9.460937 2.332031 4 3.5 8.351563 3.5 12.992187 0 3.359376-.585938 6.71875-2.042969 9.757813-1.226563 2.597656-2.769531 5.019531-4.695313 7.152344-3.0625 3.328125-6.269531 6.570312-9.449218 9.78125-1.050782 1.023437-2.070313 2.132812-2.945313 3.273437-.582031.757813-1.167969 1.574219-1.546875 2.480469-.347656.703125-.609375 1.460937-.816406 2.191406-.316406 1.402344-.609375 2.835938-.871094 4.207031zm-7.085938 34.195313c-2.597656 0-4.84375-.992187-6.679687-2.773437-2.097656-2.074219-2.855469-4.820313-2.855469-7.710938 0-2.773438.84375-5.253906 2.738282-7.328125 1.808593-1.988281 4.085937-3.039063 6.796874-3.039063 2.652344 0 4.929688 1.050782 6.707032 3.039063 1.835937 2.074219 2.652344 4.585937 2.652344 7.328125 0 2.863281-.757813 5.609375-2.828126 7.652344-1.808593 1.808594-3.964843 2.832031-6.53125 2.832031zm0 0" fill="#37474f"/><path d="m191.753906 55.074219c43.074219 5.664062 76.351563 42.578125 76.351563 87.257812 0 44.679688-33.277344 81.589844-76.351563 87.253907 3.761719.496093 7.613282.761718 11.519532.761718 48.558593 0 87.898437-39.394531 87.898437-88.015625 0-48.59375-39.339844-87.988281-87.898437-87.988281-3.90625 0-7.757813.265625-11.519532.730469zm0 0" fill="#e6a235"/></g><path d="m364.722656 301.238281h-204.902344c-4.296874 0-7.78125-3.484375-7.78125-7.785156s3.484376-7.789063 7.78125-7.789063h204.902344c4.296875 0 7.78125 3.488282 7.78125 7.789063s-3.484375 7.785156-7.78125 7.785156zm0 0" fill="#37474f"/><path d="m364.722656 374.683594h-84.28125c-4.300781 0-7.785156-3.488282-7.785156-7.789063s3.484375-7.785156 7.785156-7.785156h84.28125c4.296875 0 7.78125 3.484375 7.78125 7.785156s-3.484375 7.789063-7.78125 7.789063zm-119.917968 0h-84.984376c-4.296874 0-7.78125-3.488282-7.78125-7.789063s3.484376-7.785156 7.78125-7.785156h84.984376c4.296874 0 7.78125 3.484375 7.78125 7.785156s-3.484376 7.789063-7.78125 7.789063zm0 0" fill="#37474f"/><path d="m364.722656 449.058594h-204.902344c-4.296874 0-7.78125-3.484375-7.78125-7.785156 0-4.300782 3.484376-7.789063 7.78125-7.789063h204.902344c4.296875 0 7.78125 3.488281 7.78125 7.789063 0 4.300781-3.484375 7.785156-7.78125 7.785156zm0 0" fill="#37474f"/></svg>