<?xml version="1.0" encoding="iso-8859-1"?>
<!-- Generator: Adobe Illustrator 19.0.0, SVG Export Plug-In . SVG Version: 6.00 Build 0)  -->
<svg version="1.1" id="Capa_1" xmlns="http://www.w3.org/2000/svg" xmlns:xlink="http://www.w3.org/1999/xlink" x="0px" y="0px"
	 viewBox="0 0 490.672 490.672" style="enable-background:new 0 0 490.672 490.672;" xml:space="preserve">
<g>
	<path style="fill:#A4B0C0;" d="M298.671,245.338v170.667c0.03,5.66-2.242,11.088-6.293,15.04l-4.373-4.373l-42.667-42.667l-64-64
		l-3.307-5.76L298.671,245.338z"/>
	<path style="fill:#A4B0C0;" d="M120.645,314.245l-3.307,5.76l-64,64l-42.667,42.667l-7.04,1.28
		c-2.389-3.524-3.653-7.689-3.627-11.947V245.338L120.645,314.245z"/>
</g>
<path style="fill:#919CAB;" d="M288.005,426.671l4.373,4.373c-3.952,4.052-9.38,6.323-15.04,6.293h-256
	c-7.094,0.001-13.726-3.515-17.707-9.387l7.04-1.28l42.667-42.667l64-64l3.307-5.76l28.693,16.427l28.693-16.427l3.307,5.76l64,64
	L288.005,426.671z"/>
<path style="fill:#D0D7DF;" d="M277.338,224.005c11.767,0.035,21.298,9.566,21.333,21.333l-120.64,68.907l-28.693,16.427
	l-28.693-16.427L0.005,245.338c-0.244-11.538,8.911-21.089,20.449-21.333c0.295-0.006,0.589-0.006,0.884,0H277.338z"/>
<g>
	<path style="fill:#F6B445;" d="M490.671,74.671v170.667c0.03,5.66-2.241,11.088-6.293,15.04l-4.373-4.373l-42.667-42.667l-64-64
		l-3.307-5.76L490.671,74.671z"/>
	<path style="fill:#F6B445;" d="M312.645,143.578l-3.307,5.76l-64,64l-42.667,42.667l-7.04,1.28
		c-2.389-3.524-3.653-7.689-3.627-11.947V74.671L312.645,143.578z"/>
</g>
<path style="fill:#F4A543;" d="M480.005,256.005l4.373,4.373c-3.952,4.052-9.38,6.323-15.04,6.293h-256
	c-7.094,0.001-13.726-3.515-17.707-9.387l7.04-1.28l42.667-42.667l64-64l3.307-5.76l28.693,16.427l28.693-16.427l3.307,5.76l64,64
	L480.005,256.005z"/>
<g>
	<path style="fill:#FED049;" d="M469.338,53.338c11.768,0.035,21.298,9.566,21.333,21.333l-120.64,68.907l-28.693,16.427
		l-28.693-16.427l-120.64-68.907c-0.244-11.538,8.911-21.089,20.449-21.333c0.295-0.006,0.589-0.006,0.884,0H469.338z"/>
	<path style="fill:#FED049;" d="M437.338,309.338c-5.891,0-10.667,4.776-10.667,10.667v42.667c0.527,5.365-3.395,10.14-8.76,10.667
		c-0.634,0.062-1.273,0.062-1.907,0h-27.584l13.792-13.792c4.093-4.237,3.976-10.99-0.261-15.083
		c-4.134-3.993-10.688-3.993-14.821,0l-32,32c-0.995,0.993-1.782,2.176-2.315,3.477c-1.079,2.609-1.079,5.54,0,8.149
		c0.532,1.302,1.319,2.484,2.315,3.477l32,32c4.237,4.093,10.99,3.976,15.083-0.261c3.993-4.134,3.993-10.688,0-14.821
		l-13.792-13.813h27.584c17.171,0.502,31.498-13.01,32-30.181c0.018-0.606,0.018-1.213,0-1.819v-42.667
		C448.005,314.114,443.229,309.338,437.338,309.338z"/>
</g>
<path style="fill:#A4B0C0;" d="M137.85,102.597c-0.532-1.302-1.319-2.484-2.315-3.477l-32-32
	c-4.096-4.234-10.848-4.347-15.083-0.251c-4.234,4.096-4.347,10.848-0.251,15.083c0.086,0.089,0.173,0.176,0.262,0.262
	l13.792,13.792H74.671c-17.171-0.502-31.498,13.01-32,30.181c-0.018,0.606-0.018,1.213,0,1.819v42.667
	c0,5.891,4.776,10.667,10.667,10.667s10.667-4.776,10.667-10.667v-42.667c-0.527-5.365,3.395-10.14,8.76-10.667
	c0.634-0.062,1.273-0.062,1.907,0h27.584L88.463,131.13c-4.237,4.093-4.354,10.845-0.262,15.083
	c4.093,4.237,10.845,4.354,15.083,0.262c0.089-0.086,0.176-0.173,0.262-0.262l32-32c0.995-0.993,1.782-2.176,2.315-3.477
	C138.933,108.128,138.929,105.202,137.85,102.597z"/>
<g>
</g>
<g>
</g>
<g>
</g>
<g>
</g>
<g>
</g>
<g>
</g>
<g>
</g>
<g>
</g>
<g>
</g>
<g>
</g>
<g>
</g>
<g>
</g>
<g>
</g>
<g>
</g>
<g>
</g>
</svg>
