<svg id="Layer_1" enable-background="new 0 0 511.854 511.854" height="512" viewBox="0 0 511.854 511.854" width="512" xmlns="http://www.w3.org/2000/svg"><g><path d="m466.184 74.688c-29.496-29.498-68.715-45.743-110.431-45.743-36.894 0-71.837 12.708-99.827 36.051-27.99-23.343-62.932-36.051-99.825-36.051-41.716 0-80.935 16.245-110.433 45.743-60.891 60.891-60.891 159.97 0 220.865l171.249 171.249c10.389 10.387 24.242 16.107 39.01 16.107s28.621-5.721 39.009-16.108l171.248-171.248c60.892-60.895 60.892-159.975 0-220.865z" fill="#ff5b5b"/><path d="m466.184 74.688c-29.496-29.498-68.715-45.743-110.431-45.743-36.893 0-71.836 12.708-99.826 36.05v417.915c14.768 0 28.621-5.721 39.009-16.108l171.248-171.248c60.892-60.896 60.892-159.976 0-220.866z" fill="#ff0059"/></g></svg>