<?xml version="1.0" encoding="iso-8859-1"?>
<!-- Generator: Adobe Illustrator 19.0.0, SVG Export Plug-In . SVG Version: 6.00 Build 0)  -->
<svg version="1.1" id="Capa_1" xmlns="http://www.w3.org/2000/svg" xmlns:xlink="http://www.w3.org/1999/xlink" x="0px" y="0px"
	 viewBox="0 0 512 512" style="enable-background:new 0 0 512 512;" xml:space="preserve">
<path style="fill:#FFB726;" d="M369.199,512H142.8c-34.408,0-62.4-27.993-62.4-62.4V131.491c0-34.408,27.992-62.401,62.4-62.401
	h226.399c34.408,0,62.401,27.993,62.401,62.401V449.6C431.599,484.007,403.607,512,369.199,512z"/>
<path style="fill:#EDF6FF;" d="M381.906,99.386H130.099c-27.401,0-49.693-22.292-49.693-49.692C80.406,22.292,102.698,0,130.099,0
	h251.808C409.309,0,431.6,22.292,431.6,49.693C431.599,77.094,409.308,99.386,381.906,99.386z"/>
<path style="fill:#FFE475;" d="M416.451,417.944H95.554c-8.366,0-15.148-6.782-15.148-15.148V178.293
	c0-8.366,6.782-15.148,15.148-15.148h320.899c8.366,0,15.148,6.782,15.148,15.148v224.504
	C431.599,411.162,424.818,417.944,416.451,417.944z"/>
<path style="fill:#FC8B26;" d="M369.199,69.09H256.004V512h113.195c34.408,0,62.401-27.993,62.401-62.4V131.491
	C431.599,97.083,403.607,69.09,369.199,69.09z"/>
<path style="fill:#D6E9FF;" d="M381.906,0H256.003v99.386h125.904c27.402,0,49.693-22.292,49.693-49.692
	C431.599,22.292,409.308,0,381.906,0z"/>
<path style="fill:#FFB726;" d="M416.451,163.145H256.003v254.8h160.449c8.366,0,15.148-6.782,15.148-15.148V178.293
	C431.599,169.927,424.818,163.145,416.451,163.145z"/>
<g>
</g>
<g>
</g>
<g>
</g>
<g>
</g>
<g>
</g>
<g>
</g>
<g>
</g>
<g>
</g>
<g>
</g>
<g>
</g>
<g>
</g>
<g>
</g>
<g>
</g>
<g>
</g>
<g>
</g>
</svg>
