<?xml version="1.0" encoding="iso-8859-1"?>
<!-- Generator: Adobe Illustrator 19.0.0, SVG Export Plug-In . SVG Version: 6.00 Build 0)  -->
<svg version="1.1" id="Capa_1" xmlns="http://www.w3.org/2000/svg" xmlns:xlink="http://www.w3.org/1999/xlink" x="0px" y="0px"
	 viewBox="0 0 468.293 468.293" style="enable-background:new 0 0 468.293 468.293;" xml:space="preserve">
<path style="fill:#E56354;" d="M128.226,427.151h-26.998c-10.345,0-18.732-8.386-18.732-18.732V274.666h64.461v133.754
	C146.958,418.765,138.571,427.151,128.226,427.151z"/>
<path style="fill:#E0E5E8;" d="M423.549,47.534V380.82c0,5.557-6.597,8.46-10.68,4.691c-7.324-6.762-14.905-13.219-22.686-19.333
	c-65.134-51.136-145.865-79.324-229.535-79.324h-44.488V141.437h44.488c83.671,0,164.401-28.188,229.535-79.261
	c7.781-6.114,15.363-12.571,22.686-19.333C416.952,39.074,423.549,41.977,423.549,47.534z"/>
<path style="fill:#29A1DA;" d="M116.153,286.863H71.024C31.799,286.863,0,255.064,0,215.838v-3.369
	c0-39.226,31.799-71.024,71.024-71.024h45.129V286.863z"/>
<path style="fill:#1A76A1;" d="M146.958,363.692h1.951c10.455,0,18.93-8.475,18.93-18.93v-0.898c0-10.455-8.475-18.93-18.93-18.93
	h-1.951V363.692z"/>
<path style="fill:#29A1DA;" d="M423.549,47.534V380.82c0,5.557-6.597,8.46-10.68,4.691c-7.324-6.762-14.905-13.219-22.686-19.333
	V62.176c7.781-6.114,15.363-12.571,22.686-19.333C416.952,39.074,423.549,41.977,423.549,47.534z"/>
<path style="fill:#3B566A;" d="M423.549,169.41v89.488c24.711,0,44.744-20.032,44.744-44.744S448.26,169.41,423.549,169.41z"/>
<g>
</g>
<g>
</g>
<g>
</g>
<g>
</g>
<g>
</g>
<g>
</g>
<g>
</g>
<g>
</g>
<g>
</g>
<g>
</g>
<g>
</g>
<g>
</g>
<g>
</g>
<g>
</g>
<g>
</g>
</svg>
