<svg id="Capa_1" enable-background="new 0 0 511.451 511.451" height="512" viewBox="0 0 511.451 511.451" width="512" xmlns="http://www.w3.org/2000/svg"><g><g><path d="m258.101 125.293c-7.759 0-14.33-5.978-14.938-13.843-.259-3.341-5.727-82.144 47.117-109.743 7.346-3.836 16.406-.991 20.24 6.352 3.835 7.343.991 16.405-6.352 20.24-34.925 18.24-31.144 80.214-31.096 80.835.64 8.26-5.538 15.474-13.797 16.113-.394.031-.786.046-1.174.046z" fill="#964c22"/><path d="m310.52 8.06c-3.834-7.343-12.895-10.188-20.24-6.352-16.64 8.691-27.494 22.459-34.554 37.349v86.032c.777.125 1.567.204 2.375.204.389 0 .78-.015 1.175-.046 8.259-.639 14.436-7.853 13.797-16.113-.048-.621-3.829-62.596 31.096-80.835 7.342-3.835 10.185-12.896 6.351-20.239z" fill="#6f3716"/></g><g><path d="m339.441 511.451c-.042 0-.084 0-.126 0-31.031-.031-60.718-11.514-83.591-31.945-22.875 20.433-52.565 31.916-83.598 31.945-.037 0-.08 0-.117 0-68.722.002-125.084-55.86-125.67-124.579-.223-26.015 7.435-51.021 22.15-72.357l91.776-157.862c20.006-34.412 55.714-54.965 95.518-54.98h.045c39.786 0 75.49 20.523 95.515 54.907 99.651 171.101 100.99 173.916 101.634 175.268 8.5 17.865 12.571 37.024 12.102 56.947-.773 32.879-14.263 63.724-37.983 86.852-23.684 23.091-54.809 35.804-87.655 35.804zm86.446-166.715c.01.02.022.043.033.069-.011-.023-.021-.045-.032-.068 0-.001-.001-.001-.001-.001z" fill="#5bc980"/><g><path d="m431.925 328.851-84.6-150c-19.99-34.384-44.827-60.558-84.6-60.6-.005 0-6.999 13.424-6.999 13.424v307.607l9.431 25.47c22.875 20.435 57.526 29.7 57.568 29.7 68.716 0 121.8-42 124.2-87 1.385-25.981-.285-57.265-15-78.601z" fill="#fff2df"/><path d="m351.344 156.58c-20.024-34.384-55.728-54.907-95.515-54.907-.015 0-.03 0-.045 0-.02 0-.039.001-.059.001v30c.023 0 .047-.001.07-.001 29.021 0 55.035 14.955 69.624 40.004 62.535 107.374 96.315 165.575 100.47 173.108l.076.138c.026.05.053.097.076.141 6.359 13.499 9.4 27.968 9.046 43.023-.589 24.993-10.864 48.46-28.936 66.079-18.045 17.594-41.737 27.283-66.711 27.283h-.126c-23.476-.023-46.075-8.66-63.605-24.319l-19.984-17.85v40.225c22.873 20.431 52.559 31.914 83.59 31.945h.126c32.846 0 63.971-12.712 87.654-35.803 23.721-23.128 37.21-53.973 37.983-86.852.47-19.923-3.602-39.082-12.102-56.947-.642-1.352-1.981-4.167-101.632-175.268zm74.543 188.156s.001 0 .001.001c.011.023.022.045.032.068-.012-.026-.024-.049-.033-.069z" fill="#00b44b"/><path d="m359.725 402.211c-3.839 0-7.678-1.464-10.606-4.394l-31.186-31.186c-5.858-5.858-5.858-15.355 0-21.213s15.357-5.858 21.213 0l31.185 31.186c5.858 5.858 5.858 15.355 0 21.213-2.929 2.929-6.768 4.394-10.606 4.394z" fill="#964c22"/></g></g></g></svg>