<svg id="Layer_1" enable-background="new 0 0 66 66" height="512" viewBox="0 0 66 66" width="512" xmlns="http://www.w3.org/2000/svg"><g id="_x32_2"><g><path d="m12.2 15.5v-7.4c0-2.7-1.9-5-4.6-5.3-3-.2-5.6 2.2-5.6 5.1v6.6c0 .5.4 1 1 1z" fill="#dddee0"/></g><g><path d="m53.8 45.6v12.3c0 2.7 1.9 5 4.6 5.3 3 .3 5.6-2.1 5.6-5.1v-11.5c0-.5-.4-1-1-1h-5.7z" fill="#dddee0"/></g><g><path d="m7.1 2.9c2.8 0 5.1 2.3 5.1 5.1v50c0 2.8 2.3 5.1 5.1 5.1h41.6c-2.8 0-5.1-2.3-5.1-5.1v-50.1c0-2.8-2.3-5.1-5.1-5.1h-41.6z" fill="#efefef"/></g><g><path d="m33.4 10.2v12.9c0 1.1-.9 2-2 2h-12.1c-1.1 0-2-.9-2-2v-12.9c0-1.1.9-2 2-2h12.1c1.1 0 2 .9 2 2z" fill="#dddee0"/></g><g><path d="m30.1 21.4v3.6h-9.5v-3.3c0-1.2.9-2.1 2.1-2.1h5.6c1 0 1.8.8 1.8 1.8z" fill="#178bff"/></g><g><path d="m27.9 15.9c0 1.4-1.1 2.5-2.6 2.5-1.4 0-2.5-1.1-2.5-2.5s1.1-2.6 2.5-2.6 2.6 1.2 2.6 2.6z" fill="#178bff"/></g><g><g><path d="m48.8 57.8h-31.5c-.6 0-1-.4-1-1s.4-1 1-1h31.5c.6 0 1 .4 1 1s-.4 1-1 1z" fill="#dddee0"/></g></g><g><g><path d="m48.8 49.9h-31.5c-.6 0-1-.4-1-1s.4-1 1-1h31.5c.6 0 1 .4 1 1s-.4 1-1 1z" fill="#dddee0"/></g></g><g><g><path d="m48.8 41.9h-31.5c-.6 0-1-.4-1-1s.4-1 1-1h31.5c.6 0 1 .4 1 1s-.4 1-1 1z" fill="#dddee0"/></g></g><g><g><path d="m48.8 34h-31.5c-.6 0-1-.4-1-1s.4-1 1-1h31.5c.6 0 1 .4 1 1s-.4 1-1 1z" fill="#dddee0"/></g></g><g><g><path d="m48.8 26.1h-12c-.6 0-1-.4-1-1s.4-1 1-1h12c.6 0 1 .4 1 1s-.4 1-1 1z" fill="#dddee0"/></g></g><g><g><path d="m48.8 18.1h-11.1c-.6 0-1-.4-1-1s.4-1 1-1h11.1c.6 0 1 .4 1 1s-.4 1-1 1z" fill="#dddee0"/></g></g><g><g><path d="m48.8 10.2h-11.1c-.6 0-1-.4-1-1s.4-1 1-1h11.1c.6 0 1 .4 1 1s-.4 1-1 1z" fill="#dddee0"/></g></g></g></svg>