<?xml version="1.0" encoding="iso-8859-1"?>
<!-- Generator: Adobe Illustrator 21.0.0, SVG Export Plug-In . SVG Version: 6.00 Build 0)  -->
<svg xmlns="http://www.w3.org/2000/svg" xmlns:xlink="http://www.w3.org/1999/xlink" version="1.1" id="Capa_1" x="0px" y="0px" viewBox="0 0 512 512" style="enable-background:new 0 0 512 512;" xml:space="preserve" width="512" height="512">
<g>
	<path style="fill:#9DCA4A;" d="M510.067,448.664l-156.99-280c-5.725-10.212-20.449-10.197-26.165,0   c-167.948,299.543-157.67,280.728-158.397,283.447c-2.526,9.384,4.464,18.889,14.563,18.889h313.907   C508.431,471,515.666,458.65,510.067,448.664z"/>
	<path style="fill:#85BB23;" d="M510.067,448.664l-156.99-280c-2.654-4.733-7.657-7.664-13.083-7.664v310h156.99   C508.431,471,515.666,458.65,510.067,448.664z"/>
	<path style="fill:#E6E6E6;" d="M393.854,241.392l-40.777-72.728c-5.725-10.212-20.449-10.197-26.165,0l-40.754,72.687L340.994,280   L393.854,241.392z"/>
	<path style="fill:#D9D9D9;" d="M393.854,241.392l-40.777-72.728c-2.654-4.733-7.657-7.664-13.083-7.664v118.295l1,0.705   L393.854,241.392z"/>
	<path style="fill:#9DCA4A;" d="M342.554,449.587l-156.99-332c-2.479-5.243-7.759-8.587-13.559-8.587s-11.08,3.344-13.559,8.587   l-156.99,332C-3.244,459.522,4.013,471,15.014,471h313.981C339.983,471,347.257,459.532,342.554,449.587z"/>
	<path style="fill:#85BB23;" d="M342.554,449.587l-156.99-332c-2.479-5.243-7.759-8.587-13.559-8.587v362h156.99   C339.983,471,347.257,459.532,342.554,449.587z"/>
	<path style="fill:#FEC03F;" d="M276.998,41c-32.531,0-58.996,26.467-58.996,59s26.466,59,58.996,59s58.996-26.467,58.996-59   S309.528,41,276.998,41z"/>
	<path style="fill:#ED961F;" d="M276.998,159c32.531,0,58.996-26.467,58.996-59s-26.466-59-58.996-59V159z"/>
	<path style="fill:#E6E6E6;" d="M233.533,219.032l-47.969-101.445c-2.479-5.243-7.759-8.587-13.559-8.587s-11.08,3.344-13.559,8.587   l-47.937,101.376l61.544,37.776L233.533,219.032z"/>
	<path style="fill:#D9D9D9;" d="M172.052,256.74l61.481-37.708l-47.969-101.445c-2.479-5.243-7.759-8.587-13.559-8.587v147.711   L172.052,256.74z"/>
</g>















</svg>
