<svg height="512pt" viewBox="0 -78 512 512" width="512pt" xmlns="http://www.w3.org/2000/svg"><path d="m512 246.351562c0 60.839844-49.179688 110.328126-109.621094 110.328126h-292.769531c-60.4375 0-109.609375-49.488282-109.609375-110.328126 0-49.179687 32.25-92.242187 78.859375-105.910156.78125-40.910156 34.101563-73.941406 74.949219-73.941406 11.25 0 22.371094 2.550781 32.429687 7.410156 8.050781-16.128906 19.621094-35.398437 38.273438-50.019531 9.429687-7.390625 19.878906-13.039063 31.488281-16.96875 13.648438-4.640625 28.898438-6.921875 45.988281-6.921875 42.3125 0 77.542969 15.679688 101.882813 45.351562 20.570312 25.070313 32.148437 59.117188 32.769531 96.179688 20.960937 6.949219 39.71875 20.417969 53.121094 38.199219 14.546875 19.300781 22.238281 42.339843 22.238281 66.621093zm0 0" fill="#e6e4f9"/><path d="m512 246.351562c0 60.839844-49.179688 110.328126-109.621094 110.328126h-146.378906v-349.757813c13.648438-4.640625 28.898438-6.921875 45.988281-6.921875 42.3125 0 77.542969 15.679688 101.882813 45.351562 20.570312 25.070313 32.148437 59.117188 32.769531 96.179688 20.960937 6.949219 39.71875 20.417969 53.121094 38.199219 14.546875 19.300781 22.238281 42.339843 22.238281 66.621093zm0 0" fill="#c2c0e2"/></svg>