<svg id="Capa_1" enable-background="new 0 0 512 512" height="512" viewBox="0 0 512 512" width="512" xmlns="http://www.w3.org/2000/svg"><g><path d="m447.34 433.51c-.73 7.7-7.6 13.49-15.34 13.49h-352c-7.74 0-14.61-5.79-15.34-13.49-.73-7.64 4.03-14.49 11.52-16.03 2.42-.85 22.92-9.28 28.97-51.6 1.06-7.39 7.39-12.88 14.85-12.88h272c7.46 0 13.79 5.49 14.85 12.88 6.05 42.32 26.55 50.75 28.97 51.6 7.49 1.54 12.25 8.39 11.52 16.03z" fill="#283758"/><path d="m447.34 433.51c-.73 7.7-7.6 13.49-15.34 13.49h-176v-94h136c7.46 0 13.79 5.49 14.85 12.88 6.05 42.32 26.55 50.75 28.97 51.6 7.49 1.54 12.25 8.39 11.52 16.03z" fill="#182135"/><path d="m471 432c0 8.28-6.72 15-15 15h-400c-8.28 0-15-6.72-15-15s6.72-15 15-15h400c8.28 0 15 6.72 15 15z" fill="#425796"/><path d="m471 432c0 8.28-6.72 15-15 15h-200v-30h200c8.28 0 15 6.72 15 15z" fill="#283758"/><path d="m16 80h480v288h-480z" fill="#bceaf9"/><path d="m256 80h240v288h-240z" fill="#78b7ea"/><path d="m497 65h-482c-8.28 0-15 6.72-15 15v288c0 8.28 6.72 15 15 15h482c8.28 0 15-6.72 15-15v-288c0-8.28-6.72-15-15-15zm-15 288h-452v-258h452z" fill="#425796"/><path d="m512 80v288c0 8.28-6.72 15-15 15h-241v-30h226v-258h-226v-30h241c8.28 0 15 6.72 15 15z" fill="#283758"/><path d="m270.92 289.48c-.62 7.4-7.06 13.52-14.92 13.52-8.26 0-15-6.75-15-15 0-8.14 6.6-14.98 15-15 .49 0 .98.02 1.48.07 8.43.87 14.26 8.34 13.44 16.41z" fill="#dd5958"/><path d="m270.92 289.48c-.62 7.4-7.06 13.52-14.92 13.52v-30c.49 0 .98.02 1.48.07 8.43.87 14.26 8.34 13.44 16.41z" fill="#d8225b"/><path d="m294.89 246.32c-5.86 5.86-15.35 5.86-21.21 0-4.88-4.88-11.28-7.33-17.68-7.33s-12.8 2.45-17.68 7.33c-5.86 5.86-15.35 5.86-21.21 0s-5.86-15.35 0-21.21c10.72-10.72 24.81-16.08 38.89-16.08s28.17 5.36 38.89 16.08c5.86 5.86 5.86 15.35 0 21.21z" fill="#ffe278"/><path d="m294.89 246.32c-5.86 5.86-15.35 5.86-21.21 0-4.88-4.88-11.28-7.33-17.68-7.33v-29.96c14.08 0 28.17 5.36 38.89 16.08 5.86 5.86 5.86 15.35 0 21.21z" fill="#ffb454"/><path d="m340.15 201.07c-5.86 5.85-15.36 5.86-21.22 0-17.39-17.39-40.16-26.09-62.93-26.09s-45.54 8.7-62.93 26.09c-5.86 5.86-15.36 5.86-21.22 0-5.85-5.86-5.85-15.36 0-21.22 23.26-23.25 53.71-34.88 84.15-34.88 30.45 0 60.9 11.63 84.15 34.88 5.85 5.86 5.85 15.36 0 21.22z" fill="#eef4ff"/><path d="m340.15 201.07c-5.86 5.85-15.36 5.86-21.22 0-17.39-17.39-40.16-26.09-62.93-26.09v-30.01c30.45 0 60.9 11.63 84.15 34.88 5.85 5.86 5.85 15.36 0 21.22z" fill="#d9e6fc"/></g></svg>