<svg height="512pt" viewBox="-85 0 512 512" width="512pt" xmlns="http://www.w3.org/2000/svg"><path d="m261.332031 0h-181.332031c-20.585938 0-37.332031 16.746094-37.332031 37.332031v437.335938c0 20.585937 16.746093 37.332031 37.332031 37.332031h181.332031c20.589844 0 37.335938-16.746094 37.335938-37.332031v-437.335938c0-20.585937-16.746094-37.332031-37.335938-37.332031zm0 0" fill="#90a4ae"/><path d="m341.332031 256c0 94.257812-76.410156 170.667969-170.664062 170.667969-94.257813 0-170.667969-76.410157-170.667969-170.667969s76.410156-170.667969 170.667969-170.667969c94.253906 0 170.664062 76.410157 170.664062 170.667969zm0 0" fill="#607d8b"/><path d="m192 247.167969v-71.167969c0-11.777344-9.558594-21.332031-21.332031-21.332031-11.777344 0-21.335938 9.554687-21.335938 21.332031v80c0 5.652344 2.242188 11.09375 6.253907 15.082031l48 48c4.15625 4.160157 9.621093 6.25 15.082031 6.25 5.460937 0 10.921875-2.089843 15.082031-6.25 8.339844-8.339843 8.339844-21.824219 0-30.164062zm0 0" fill="#fafafa"/></svg>