<svg id="Capa_1" enable-background="new 0 0 512 512" height="512" viewBox="0 0 512 512" width="512" xmlns="http://www.w3.org/2000/svg"><path d="m256 0c-141.61 0-256 114.43-256 256 0 141.61 114.42 256 256 256 141.61 0 256-114.43 256-256 0-141.61-114.43-256-256-256z" fill="#ff9100"/><path d="m512 256c0 141.57-114.39 256-256 256v-512c141.57 0 256 114.39 256 256z" fill="#ff5e39"/><path d="m256 60c-108.08 0-196 87.93-196 196s87.92 196 196 196 196-87.93 196-196-87.92-196-196-196z" fill="#6c6fa9"/><path d="m452 256c0 108.07-87.92 196-196 196v-392c108.08 0 196 87.93 196 196z" fill="#422f5f"/><circle cx="256" cy="256" fill="#f2ebee" r="166"/><path d="m422 256c0 91.53-74.47 166-166 166v-332c91.53 0 166 74.47 166 166z" fill="#e8dde3"/><path d="m122.311 352.55h44.639v30h-44.639z" fill="#6c6fa9" transform="matrix(.707 -.707 .707 .707 -217.535 209.922)"/><path d="m344.742 129.939h45v30h-45z" fill="#422f5f" transform="matrix(.707 -.707 .707 .707 5.076 302.131)"/><path d="m129.631 122.491h30v44.639h-30z" fill="#6c6fa9" transform="matrix(.707 -.707 .707 .707 -60.035 144.683)"/><path d="m352.242 344.922h30v45h-30z" fill="#422f5f" transform="matrix(.707 -.707 .707 .707 -152.244 367.291)"/><path d="m76 241h45v30h-45z" fill="#6c6fa9"/><path d="m391 241h45v30h-45z" fill="#422f5f"/><path d="m241 76.36h30v44.64h-30z" fill="#6c6fa9"/><path d="m256 76.36h15v44.64h-15z" fill="#422f5f"/><path d="m241 391h30v45h-30z" fill="#6c6fa9"/><path d="m256 391h15v45h-15z" fill="#422f5f"/><path d="m241 151h30v75h-30z" fill="#574f7f"/><path d="m256 151h15v75h-15z" fill="#422f5f"/><path d="m281.607 269.18h30v54.853h-30z" fill="#422f5f" transform="matrix(.707 -.707 .707 .707 -122.859 296.608)"/><path d="m151 241h75v30h-75z" fill="#ff9100"/><path d="m256 211c-24.81 0-45 20.19-45 45s20.19 45 45 45 45-20.19 45-45-20.19-45-45-45z" fill="#6c6fa9"/><path d="m301 256c0 24.81-20.19 45-45 45v-90c24.81 0 45 20.19 45 45z" fill="#574f7f"/></svg>