<svg id="Wind_x5F_Rain" enable-background="new 0 0 512 512" height="512" viewBox="0 0 512 512" width="512" xmlns="http://www.w3.org/2000/svg"><g><g><g><path d="m358.465 145.007c-9.723-.299-19.133.909-27.99 3.399-6.407-48.586-47.985-86.086-98.32-86.086-54.774 0-99.184 44.41-99.184 99.184 0 .317 0 .634.011.94-39.085 2.558-69.982 35.073-69.982 74.804v1.122c0 37.903 30.727 68.63 68.63 68.63h247.58c37.903 0 68.63-30.727 68.63-68.63v-.03c.001-50.022-39.377-91.793-89.375-93.333z" fill="#b7e3f6"/></g><path d="m356.531 145.459c-8.875-.049-17.469 1.157-25.597 3.443-6.407-48.586-47.985-86.086-98.32-86.086-36.955 0-69.189 20.217-86.252 50.192 14.453-8.228 31.173-12.932 48.992-12.932 50.335 0 91.914 37.5 98.32 86.086 8.128-2.286 16.722-3.491 25.597-3.443 50.95.279 91.769 42.455 91.769 93.406 0 9.275-1.85 18.115-5.185 26.185 24.911-10.293 42.445-34.817 42.445-63.445 0-50.951-40.819-93.127-91.769-93.406z" fill="#8fc3df"/></g><g><g><path d="m189.889 440.471c-8.396-8.396-5.02-22.694 6.245-26.447l29.612-9.865c.286-.095.558.177.462.463l-9.875 29.609c-3.755 11.262-18.049 14.635-26.444 6.24z" fill="#27bdff"/><path d="m216.328 434.258 9.875-29.609c.095-.286-.177-.558-.462-.463l-5.084 1.694-7.101 21.292c-3.756 11.262-18.05 14.635-26.445 6.241-.667-.667-1.259-1.371-1.779-2.105.428 3.306 1.904 6.542 4.552 9.19 8.394 8.396 22.688 5.022 26.444-6.24z" fill="#25b4e5"/></g><g><path d="m285.889 440.471c-8.396-8.396-5.02-22.694 6.246-26.447l29.612-9.865c.286-.095.558.177.462.463l-9.875 29.609c-3.756 11.262-18.05 14.635-26.445 6.24z" fill="#27bdff"/><path d="m312.328 434.258 9.875-29.609c.095-.286-.177-.558-.462-.463l-5.084 1.694-7.101 21.292c-3.756 11.262-18.05 14.635-26.445 6.241-.667-.667-1.259-1.371-1.779-2.105.428 3.306 1.904 6.542 4.552 9.19 8.394 8.396 22.688 5.022 26.444-6.24z" fill="#25b4e5"/></g><g><path d="m141.889 363.729c-8.396-8.396-5.02-22.694 6.245-26.447l29.612-9.865c.286-.095.558.177.462.463l-9.875 29.609c-3.755 11.262-18.049 14.635-26.444 6.24z" fill="#27bdff"/><path d="m168.328 357.516 9.875-29.609c.095-.286-.177-.558-.462-.463l-5.084 1.694-7.101 21.292c-3.756 11.262-18.05 14.635-26.445 6.241-.667-.667-1.259-1.371-1.779-2.105.428 3.306 1.904 6.542 4.552 9.19 8.394 8.396 22.688 5.023 26.444-6.24z" fill="#25b4e5"/></g><g><path d="m237.889 363.729c-8.396-8.396-5.02-22.694 6.245-26.447l29.612-9.865c.286-.095.558.177.462.463l-9.875 29.609c-3.755 11.262-18.049 14.635-26.444 6.24z" fill="#27bdff"/><path d="m264.328 357.516 9.875-29.609c.095-.286-.177-.558-.462-.463l-5.084 1.694-7.101 21.292c-3.756 11.262-18.05 14.635-26.445 6.241-.667-.667-1.259-1.371-1.779-2.105.428 3.306 1.904 6.542 4.552 9.19 8.394 8.396 22.688 5.023 26.444-6.24z" fill="#25b4e5"/></g><g><path d="m333.889 363.729c-8.396-8.396-5.02-22.694 6.246-26.447l29.612-9.865c.286-.095.558.177.462.463l-9.875 29.609c-3.756 11.262-18.05 14.635-26.445 6.24z" fill="#27bdff"/><path d="m360.328 357.516 9.875-29.609c.095-.286-.177-.558-.462-.463l-5.084 1.694-7.101 21.292c-3.756 11.262-18.05 14.635-26.445 6.241-.667-.667-1.259-1.371-1.779-2.105.428 3.306 1.904 6.542 4.552 9.19 8.394 8.396 22.688 5.023 26.444-6.24z" fill="#25b4e5"/></g></g></g></svg>