<?xml version="1.0" encoding="iso-8859-1"?>
<!-- Generator: Adobe Illustrator 19.0.0, SVG Export Plug-In . SVG Version: 6.00 Build 0)  -->
<svg version="1.1" id="Capa_1" xmlns="http://www.w3.org/2000/svg" xmlns:xlink="http://www.w3.org/1999/xlink" x="0px" y="0px"
	 viewBox="0 0 512 512" style="enable-background:new 0 0 512 512;" xml:space="preserve">
<path style="fill:#366DB6;" d="M256,0c0,0,176.552,176.552,176.552,335.448C432.552,432.958,353.509,512,256,512
	S79.448,432.958,79.448,335.448C79.448,176.552,256,0,256,0z"/>
<g>
	<path style="fill:#7DAEE2;" d="M136.174,418.966c-2.94,0-5.817-1.465-7.495-4.149c-14.883-23.808-22.749-51.244-22.749-79.369
		c0-4.882,3.955-8.828,8.828-8.828s8.828,3.946,8.828,8.828c0,24.806,6.938,49.02,20.065,70.012
		c2.586,4.14,1.324,9.587-2.807,12.164C139.388,418.534,137.772,418.966,136.174,418.966z"/>
	<path style="fill:#7DAEE2;" d="M256,485.517c-0.009,0-0.009,0-0.018,0c-28.919-0.071-58.13-9.772-84.462-28.063
		c-4.008-2.781-4.996-8.28-2.216-12.288c2.772-4.017,8.28-5.014,12.288-2.216c23.375,16.234,49.117,24.841,74.434,24.903
		c4.873,0.009,8.819,3.972,8.81,8.845C264.819,481.58,260.864,485.517,256,485.517z"/>
</g>
<path style="fill:#C6E2F7;" d="M35.31,105.931c19.5,0,35.31-15.81,35.31-35.31c0,0,0-35.31-35.31-70.621C0,35.31,0,70.621,0,70.621
	C0,90.121,15.81,105.931,35.31,105.931z"/>
<path style="fill:#1F436D;" d="M476.69,194.207c19.5,0,35.31-15.81,35.31-35.31c0,0,0-35.31-35.31-70.621
	c-35.31,35.31-35.31,70.621-35.31,70.621C441.379,178.397,457.19,194.207,476.69,194.207z"/>
<g>
</g>
<g>
</g>
<g>
</g>
<g>
</g>
<g>
</g>
<g>
</g>
<g>
</g>
<g>
</g>
<g>
</g>
<g>
</g>
<g>
</g>
<g>
</g>
<g>
</g>
<g>
</g>
<g>
</g>
</svg>
