<svg id="Flat" height="512" viewBox="0 0 64 64" width="512" xmlns="http://www.w3.org/2000/svg"><path d="m54.556 40.556-1.838-7.356a15.879 15.879 0 0 0 1.782-4.3l6.5-3.9-6.5-3.9a15.879 15.879 0 0 0 -1.783-4.3l1.838-7.353-7.355 1.835a15.879 15.879 0 0 0 -4.3-1.782l-3.9-6.5-3.9 6.5a15.879 15.879 0 0 0 -4.3 1.783l-7.356-1.839 1.838 7.356a15.879 15.879 0 0 0 -1.782 4.3l-6.5 3.9 6.5 3.9a15.879 15.879 0 0 0 1.783 4.3l-1.838 7.353 7.355-1.835a15.879 15.879 0 0 0 4.3 1.782l3.9 6.5 3.9-6.5a15.879 15.879 0 0 0 4.3-1.783z" fill="#f8cb3f"/><circle cx="39" cy="25" fill="#f68110" r="12"/><path d="m39 27h-1a12 12 0 0 0 -24 0h-1a10 10 0 0 0 0 20h26a10 10 0 0 0 0-20z" fill="#66bae1"/><path d="m48 26h-2v-1a7.008 7.008 0 0 0 -7-7h-1v-2h1a9.01 9.01 0 0 1 9 9z" fill="#e57100"/><path d="m42 24h2v2h-2z" fill="#e57100"/><g fill="#9ecce3"><path d="m12 42h26v2h-26z"/><path d="m40 42h2v2h-2z"/><path d="m17 26h2v2h-2z"/><path d="m17 22h2v2h-2z"/></g><g fill="#f8cb3f"><path d="m13 51h-2v10l8-10h2v-12z"/><path d="m29 51h-2v10l8-10h2v-12z"/></g></svg>