<svg height="512" viewBox="0 0 128 128" width="512" xmlns="http://www.w3.org/2000/svg"><g id="icon"><circle cx="79.519" cy="19.494" fill="#dbe2eb" r="16.078"/><path d="m76.8 20.622h-10.312a13.025 13.025 0 0 0 3.017 7.291z" fill="#de8c34"/><g fill="#f7b521"><path d="m83.105 18.367h9.04a.368.368 0 0 0 .364-.405 13.008 13.008 0 0 0 -2.721-6.573.365.365 0 0 0 -.541-.028l-6.395 6.4a.358.358 0 0 0 .253.606z"/><path d="m76.186 17.756-6.4-6.395a.365.365 0 0 0 -.541.028 13.008 13.008 0 0 0 -2.721 6.573.368.368 0 0 0 .364.405h9.04a.358.358 0 0 0 .258-.611z"/><path d="m81.257 16.162 6.395-6.395a.366.366 0 0 0 -.027-.542 13.024 13.024 0 0 0 -6.573-2.725.368.368 0 0 0 -.405.365v9.04a.358.358 0 0 0 .61.257z"/><path d="m77.986 6.5a13.017 13.017 0 0 0 -6.572 2.721.366.366 0 0 0 -.028.542l6.4 6.4a.358.358 0 0 0 .61-.253v-9.041a.368.368 0 0 0 -.41-.369z"/><path d="m92.145 20.622h-9.04a.357.357 0 0 0 -.253.61l6.395 6.4a.366.366 0 0 0 .542-.027 13.019 13.019 0 0 0 2.72-6.573.368.368 0 0 0 -.364-.41z"/><path d="m77.781 22.827-6.4 6.4a.366.366 0 0 0 .027.542 13.011 13.011 0 0 0 6.573 2.72.368.368 0 0 0 .405-.364v-9.045a.357.357 0 0 0 -.605-.253z"/><path d="m81.257 22.827a.357.357 0 0 0 -.61.253v9.04a.368.368 0 0 0 .405.364 13.011 13.011 0 0 0 6.573-2.72.366.366 0 0 0 .027-.542z"/></g><path d="m87.65 9.77-6.39 6.39a.355.355 0 0 1 -.61-.25v-9.04a.37.37 0 0 1 .4-.37 13.031 13.031 0 0 1 6.57 2.72.376.376 0 0 1 .03.55z" fill="#dbe2eb"/><path d="m82.85 17.76 6.4-6.4a.364.364 0 0 1 .54.03 13.068 13.068 0 0 1 2.72 6.57.373.373 0 0 1 -.37.41h-9.04a.36.36 0 0 1 -.25-.61z" fill="#dbe2eb"/><path d="m92.51 21.03a13.068 13.068 0 0 1 -2.72 6.57.364.364 0 0 1 -.54.03l-6.4-6.4a.36.36 0 0 1 .25-.61h9.04a.373.373 0 0 1 .37.41z" fill="#dbe2eb"/><path d="m92.51 17.96a.373.373 0 0 1 -.37.41h-9.04a.36.36 0 0 1 -.25-.61l6.4-6.4a.364.364 0 0 1 .54.03 13.068 13.068 0 0 1 2.72 6.57z" fill="#f7b521"/><path d="m87.65 9.77-6.39 6.39a.355.355 0 0 1 -.61-.25v-9.04a.37.37 0 0 1 .4-.37 13.031 13.031 0 0 1 6.57 2.72.376.376 0 0 1 .03.55z" fill="#f7b521"/><path d="m92.51 21.03a13.068 13.068 0 0 1 -2.72 6.57.364.364 0 0 1 -.54.03l-6.4-6.4a.36.36 0 0 1 .25-.61h9.04a.373.373 0 0 1 .37.41z" fill="#f7b521"/><path d="m75.93 18.37h-9.04a.366.366 0 0 1 -.36-.41 13.068 13.068 0 0 1 2.72-6.57.364.364 0 0 1 .54-.03l6.4 6.4a.361.361 0 0 1 -.26.61z" fill="#f7b521"/><path d="m78.39 6.87v9.04a.355.355 0 0 1 -.61.25l-6.39-6.39a.367.367 0 0 1 .02-.55 13.065 13.065 0 0 1 6.58-2.72.37.37 0 0 1 .4.37z" fill="#f7b521"/><path d="m49.641-.417h5.133v88.23h-5.133z" fill="#bac2d3" transform="matrix(.979 -.206 .206 .979 -7.877 11.683)"/><path d="m78.41 126.62a1.383 1.383 0 0 1 -1.38 1.38h-39.55a1.381 1.381 0 0 1 -1.37-1.38 1.356 1.356 0 0 1 1.32-1.37c6.52-.2 11.51-3.77 14.14-6.16a6.43 6.43 0 0 0 2.07-4.77v-6.32a32.5 32.5 0 0 0 -.35-7.77 15.852 15.852 0 0 0 -7.87-10.91c-12.79-7.47-15.79-21.84-10.59-37.27 4.65-13.8 1.77-26.6.5-30.97a1.241 1.241 0 0 1 1.2-1.59h41.46a1.254 1.254 0 0 1 1.2 1.59c-.23.79-.52 1.86-.8 3.17a56.487 56.487 0 0 0 -1.13 8.12c-.07.97-.11 1.98-.12 3.02a50.233 50.233 0 0 0 2.55 16.66c5.2 15.43 2.2 29.8-10.61 37.27a15.868 15.868 0 0 0 -7.86 10.91 33.523 33.523 0 0 0 -.36 7.77v6.32a6.44 6.44 0 0 0 2.08 4.77c2.64 2.39 7.62 5.96 14.15 6.16a1.356 1.356 0 0 1 1.32 1.37z" fill="#c8cbd2"/><path d="m78.411 126.617a1.383 1.383 0 0 1 -1.383 1.383h-8.261c.448 0 .8-.619.8-1.383 0-.738-.329-1.357-.764-1.371-3.807-.2-6.706-3.767-8.234-6.152a9.018 9.018 0 0 1 -1.212-4.769v-6.325a57.1 57.1 0 0 1 .2-7.773c.475-4.651 2.214-8.537 4.585-10.909a2.738 2.738 0 0 0 .2-.21c7.285-7.523 8.985-21.778 5.981-37.06a80.276 80.276 0 0 1 -1.423-12.748 93 93 0 0 1 1.133-18.221c.132-.79-.224-1.581-.7-1.581h8.657a1.249 1.249 0 0 1 1.2 1.581c-1.264 4.374-4.163 17.18.5 30.974 5.2 15.427 2.2 29.8-10.6 37.27a15.885 15.885 0 0 0 -7.866 10.909 33.25 33.25 0 0 0 -.361 7.768v6.324a6.44 6.44 0 0 0 2.081 4.769c2.635 2.385 7.615 5.955 14.15 6.152a1.359 1.359 0 0 1 1.317 1.372z" fill="#bac2d3"/><path d="m67.753 87.04c-.435.251-.856.527-1.265.8a15.869 15.869 0 0 1 -18.47 0c-.409-.277-.83-.553-1.265-.8-11.12-6.5-14.558-18.931-9.433-34.148a51.836 51.836 0 0 0 2.608-13.6h34.663a51.789 51.789 0 0 0 2.6 13.6c5.133 15.217 1.694 27.653-9.438 34.148z" fill="#ffc943"/><path d="m67.753 87.04c-.435.251-.856.527-1.265.8a17.658 17.658 0 0 1 -2.147 1.265c7.285-7.523 8.985-21.778 5.981-37.06a80.276 80.276 0 0 1 -1.422-12.745h5.692a51.789 51.789 0 0 0 2.6 13.6c5.132 15.209 1.693 27.645-9.439 34.14z" fill="#f7b521"/><path d="m63.801 86.342-5.02 1.054-14.281-67.902h5.23z" fill="#bac2d3"/><path d="m63.801 86.342-5.02 1.054-10.118-48.1h5.23z" fill="#f7b521"/><g opacity=".35"><path d="m79.19 21.08c-.23.79-.52 1.86-.8 3.17a56.487 56.487 0 0 0 -1.13 8.12c-.07.97-.11 1.98-.12 3.02a16.082 16.082 0 0 1 -13.7-15.9h14.55a1.254 1.254 0 0 1 1.2 1.59z" fill="#dbe2eb"/><g fill="#f7b521"><path d="m75.923 20.622h-9.023a.37.37 0 0 0 -.367.408 13.01 13.01 0 0 0 2.715 6.57.368.368 0 0 0 .546.028l6.385-6.385a.362.362 0 0 0 -.256-.621z"/><path d="m78.39 23.08v1.17a56.487 56.487 0 0 0 -1.13 8.12 12.92 12.92 0 0 1 -5.85-2.61.356.356 0 0 1 -.02-.54l6.39-6.39a.355.355 0 0 1 .61.25z"/></g></g></g></svg>