<?xml version="1.0" encoding="iso-8859-1"?>
<!-- Generator: Adobe Illustrator 19.0.0, SVG Export Plug-In . SVG Version: 6.00 Build 0)  -->
<svg version="1.1" id="Capa_1" xmlns="http://www.w3.org/2000/svg" xmlns:xlink="http://www.w3.org/1999/xlink" x="0px" y="0px"
	 viewBox="0 0 512 512" style="enable-background:new 0 0 512 512;" xml:space="preserve">
<path style="fill:#E5E5E5;" d="M452,15v482c0,8.401-6.599,15-15,15H15c-8.401,0-15-6.599-15-15V15C0,6.599,6.599,0,15,0h60
	c8.401,0,15,6.599,15,15s6.599,15,15,15s15-6.599,15-15s6.599-15,15-15h61c8.401,0,15,6.599,15,15s6.599,15,15,15s16-6.599,16-15
	s6.599-15,15-15h60c8.401,0,15,6.599,15,15s6.599,15,15,15s15-6.599,15-15s6.599-15,15-15h60C445.401,0,452,6.599,452,15z"/>
<path style="fill:#D9D9D9;" d="M452,15v482c0,8.401-6.599,15-15,15H226V30c8.401,0,16-6.599,16-15s6.599-15,15-15h60
	c8.401,0,15,6.599,15,15s6.599,15,15,15s15-6.599,15-15s6.599-15,15-15h60C445.401,0,452,6.599,452,15z"/>
<g>
	<path style="fill:#A8AFF1;" d="M362,137c0,8.401-6.599,15-15,15H105c-8.401,0-15-6.599-15-15s6.599-15,15-15h242
		C355.401,122,362,128.599,362,137z"/>
	<path style="fill:#A8AFF1;" d="M332,227c0,8.401-6.599,15-15,15H105c-8.401,0-15-6.599-15-15s6.599-15,15-15h212
		C325.401,212,332,218.599,332,227z"/>
	<path style="fill:#A8AFF1;" d="M242,317c0,8.401-7.599,15-16,15H105c-8.401,0-15-6.599-15-15s6.599-15,15-15h121
		C234.401,302,242,308.599,242,317z"/>
	<path style="fill:#A8AFF1;" d="M272,407c0,8.401-6.599,15-15,15H105c-8.401,0-15-6.599-15-15s6.599-15,15-15h152
		C265.401,392,272,398.599,272,407z"/>
</g>
<g>
	<path style="fill:#97A1ED;" d="M226,332v-30c8.401,0,16,6.599,16,15S234.401,332,226,332z"/>
	<path style="fill:#97A1ED;" d="M272,407c0,8.401-6.599,15-15,15h-31v-30h31C265.401,392,272,398.599,272,407z"/>
	<path style="fill:#97A1ED;" d="M332,227c0,8.401-6.599,15-15,15h-91v-30h91C325.401,212,332,218.599,332,227z"/>
	<path style="fill:#97A1ED;" d="M362,137c0,8.401-6.599,15-15,15H226v-30h121C355.401,122,362,128.599,362,137z"/>
</g>
<path style="fill:#896748;" d="M498.951,225.344l-10.501,10.8l-21.299-9l-33.6-33.6l-9.001-21.301l10.801-10.499
	c17.399-17.401,45.899-17.401,63.6,0C516.35,179.445,516.35,207.943,498.951,225.344z"/>
<path style="fill:#FEA832;" d="M327.951,396.344c-1.8,1.8-3.6,2.999-6,3.6l-63.6,21.301c-5.099,1.8-11.1,0.298-15.3-3.6
	c-3.9-3.9-5.4-9.901-3.6-15.3l21.301-63.6c0.599-2.401,1.8-4.2,3.6-6l42.299,12.299l13.2,13.2L327.951,396.344z"/>
<path style="fill:#FE9923;" d="M327.951,396.344c-1.8,1.8-3.6,2.999-6,3.6l-63.6,21.301c-5.099,1.8-11.1,0.298-15.3-3.6
	l68.101-68.101l8.699,8.699L327.951,396.344z"/>
<path style="fill:#73553A;" d="M498.951,225.344l-10.501,10.8l-21.299-9l-16.8-16.8l48.6-48.6
	C516.35,179.445,516.35,207.943,498.951,225.344z"/>
<polygon style="fill:#FD003A;" points="488.45,236.143 327.951,396.344 264.351,332.744 424.55,172.243 "/>
<polygon style="fill:#E50027;" points="488.45,236.143 327.951,396.344 296.151,364.544 456.65,204.343 "/>
<g>
</g>
<g>
</g>
<g>
</g>
<g>
</g>
<g>
</g>
<g>
</g>
<g>
</g>
<g>
</g>
<g>
</g>
<g>
</g>
<g>
</g>
<g>
</g>
<g>
</g>
<g>
</g>
<g>
</g>
</svg>
