<svg height="512" viewBox="0 0 58 54" width="512" xmlns="http://www.w3.org/2000/svg"><g id="Page-1" fill="none" fill-rule="evenodd"><g id="020---Download-Message"><path id="Path" d="m58 8v28c0 4.418278-3.581722 8-8 8h-14l-5.31 8.35c-.3696438.5750858-1.0063625.9227307-1.69.9227307s-1.3203562-.3476449-1.69-.9227307l-5.31-8.35h-14c-4.418278 0-8-3.581722-8-8v-28c0-4.418278 3.581722-8 8-8h42c4.418278 0 8 3.581722 8 8z" fill="#b0d3f0"/><path id="Path" d="m4 9c-.55228475 0-1-.44771525-1-1 .00330612-2.76005315 2.23994685-4.99669388 5-5 .55228475 0 1 .44771525 1 1s-.44771525 1-1 1c-1.65685425 0-3 1.34314575-3 3 0 .55228475-.44771525 1-1 1z" fill="#ecf0f1"/><path id="Path" d="m50 41c-.5522847 0-1-.4477153-1-1s.4477153-1 1-1c1.6568542 0 3-1.3431458 3-3 0-.5522847.4477153-1 1-1s1 .4477153 1 1c-.0033061 2.7600532-2.2399468 4.9966939-5 5z" fill="#90bae1"/><path id="Path" d="m43 36h-28c-1.6568542 0-3-1.3431458-3-3v-6c0-.5522847.4477153-1 1-1s1 .4477153 1 1v6c0 .5522847.4477153 1 1 1h28c.5522847 0 1-.4477153 1-1v-6c0-.5522847.4477153-1 1-1s1 .4477153 1 1v6c0 1.6568542-1.3431458 3-3 3z" fill="#2980ba"/><path id="Path" d="m34.781 26.375c-.1657145-.2072013-.4069781-.3400545-.670678-.3693128-.2636998-.0292583-.5282179.0474769-.735322.2133128l-3.375 2.7v-19.919c0-.55228475-.4477153-1-1-1s-1 .44771525-1 1v19.919l-3.375-2.7c-.4313344-.345178-1.060822-.2753344-1.406.156s-.2753344 1.060822.156 1.406l5 4c.3653328.2925003.8846672.2925003 1.25 0l5-4c.2072013-.1657145.3400545-.4069781.3693128-.670678.0292583-.2636998-.0474769-.5282179-.2133128-.735322z" fill="#3b97d3"/></g></g></svg>