<svg id="_x30_1_Star" enable-background="new 0 0 48 48" height="512" viewBox="0 0 48 48" width="512" xmlns="http://www.w3.org/2000/svg"><path d="m24.908 6.935 4.963 10.574 11.199 1.711c.807.123 1.137 1.108.567 1.693l-8.137 8.338 1.91 11.709c.135.827-.743 1.445-1.476 1.04l-9.934-5.491-9.934 5.491c-.733.405-1.61-.213-1.476-1.04l1.91-11.709-8.136-8.339c-.57-.585-.241-1.569.567-1.693l11.198-1.711 4.963-10.574c.361-.768 1.455-.768 1.816.001z" fill="#f99f10"/><path d="m32.143 17.856-2.272-.347-4.963-10.574c-.361-.769-1.455-.769-1.817 0l-4.963 10.574-11.198 1.711c-.807.123-1.137 1.108-.567 1.693l8.136 8.339-1.218 7.465z" fill="#f9c900"/></svg>