<?xml version="1.0" encoding="iso-8859-1"?>
<!-- Generator: Adobe Illustrator 19.0.0, SVG Export Plug-In . SVG Version: 6.00 Build 0)  -->
<svg version="1.1" id="Capa_1" xmlns="http://www.w3.org/2000/svg" xmlns:xlink="http://www.w3.org/1999/xlink" x="0px" y="0px"
	 viewBox="0 0 512 512" style="enable-background:new 0 0 512 512;" xml:space="preserve">
<path style="fill:#32D736;" d="M120.414,223.799c-16.615,0-62.221-44.074-74.063-100.913c-1.641-7.573,2.725-15.132,10.107-17.476
	c1.406-0.439,34.541-10.84,71.66-7.236c7.002,0.659,12.598,6.138,13.447,13.125c1.113,9.038,3.545,17.9,7.266,26.367
	c2.461,5.64,1.23,12.217-3.076,16.582c-2.52,10.195-6.621,31.201-4.16,53.174c0.498,4.6-1.143,9.199-4.453,12.422
	C131.778,225.069,127.5,223.95,120.414,223.799z"/>
<path style="fill:#10BB67;" d="M316.3,84.3c2.999,11.4-9.902,18.9-15.901,29.399c-4.197,7.5-7.2,15.601-9.001,23.701
	c-2.695,12.299-18.896,15.899-26.697,5.7c-3.003-3.9-5.999-7.5-8.701-10.501c-2.703,3.001-5.698,6.601-8.701,10.501
	c-7.8,10.499-24.001,6.599-26.697-5.7c-2.703-13.2-9.001-26.4-18.904-36.601c-3.896-3.6-7.5-11.4-5.999-16.5
	c11.7-46.199,48.9-79.2,50.398-80.7C248.8,1.199,252.4,0,256,0s7.2,1.199,9.902,3.6C267.4,5.099,304.6,38.101,316.3,84.3z"/>
<path style="fill:#0CA656;" d="M264.701,143.101c-3.003-3.9-5.999-7.5-8.701-10.501V0c3.6,0,7.2,1.199,9.902,3.6
	C267.4,5.1,304.6,38.101,316.3,84.3c2.999,11.4-9.902,18.9-15.901,29.399c-4.197,7.5-7.2,15.601-9.001,23.701
	C288.703,149.7,272.501,153.3,264.701,143.101z"/>
<path style="fill:#0A8C4B;" d="M406,300h-68.086c-14.814,0-20.565-19.226-8.379-27.437c23.338-15.749,36.692-34.876,40.605-62.271
	c1.365-9.47,14.501-16.119,20.596-16.465c34.746-1.978,63.604,7.178,64.805,7.573c7.617,2.432,12.012,10.415,9.961,18.135
	C459.929,240.956,426.507,300,406,300z"/>
<g>
	<path style="fill:#0CA656;" d="M106,300c-20.507,0-53.929-59.044-59.502-80.464c-2.051-7.72,2.344-15.703,9.961-18.135
		c1.201-0.396,30.029-9.551,64.805-7.573c6.431,0.365,19.335,7.639,20.596,16.465c1.699,11.895,5.391,22.764,10.986,32.314
		c6.475,10.972,16.465,21.079,29.619,29.956c5.479,3.691,7.881,10.518,5.977,16.831C183.384,305.868,163.49,300,106,300z"/>
	<path style="fill:#0CA656;" d="M199.252,194.575c-26.25-27.451-66.797-36.108-67.207-36.182c-4.746-0.981-8.73-4.219-10.693-8.657
		c-14.74-33.628-12.5-77.005-2.256-107.417c2.402-7.178,9.404-11.47,17.197-9.932c36.771,7.599,83.147,33.562,101.338,66.577
		c5.742,10.093,9.902,20.889,12.334,31.904c0.938,4.307-0.059,8.804-2.725,12.319c-6.27,8.218-17.52,24.961-22.617,44.751
		C221.727,199.272,207.429,203.086,199.252,194.575z"/>
</g>
<g>
	<path style="fill:#10BB67;" d="M239.184,300c-7.177,0-67.562,1.45-73.477-2.563c-16.904-11.396-29.912-24.727-38.73-39.609
		c-20.414-34.782-19.87-83.219-7.91-119.473c2.52-7.559,9.756-12.451,20.01-9.141c24.37,5.521,90.662,34.615,85.693,58.037
		c-6.777,32.897,3.932,60.988,26.074,88.315C258.761,285.336,251.758,300,239.184,300z"/>
	<path style="fill:#10BB67;" d="M370.404,207.422c2.549-22.734-1.816-44.165-4.365-53.979c-3.984-4.424-4.951-10.796-2.49-16.216
		c3.428-7.588,5.684-15.981,6.885-25.664c0.85-6.943,6.387-12.349,13.33-13.081c37.441-3.75,70.43,6.489,71.807,6.943
		c7.354,2.358,11.719,9.902,10.078,17.461c-0.586,2.813-15.469,69.185-66.533,98.877
		C387.278,228.787,368.775,222.468,370.404,207.422z"/>
</g>
<path style="fill:#0A8C4B;" d="M287.377,187.939c-5.098-19.79-16.348-36.533-22.617-44.751c-2.666-3.516-3.662-8.013-2.725-12.319
	c2.432-11.016,6.592-21.812,12.422-32.065c4.131-7.222,9.287-13.945,15.352-20.01c34.453-35.449,83.76-45.952,85.84-46.392
	c7.5-1.479,14.824,2.725,17.256,9.917c0.469,1.392,11.514,34.775,7.324,72.437h-0.088c-1.67,13.564-4.57,24.229-8.936,34.072
	c-1.816,4.819-5.977,8.599-11.191,9.609c-10.371,1.992-45.029,12.905-67.266,36.138
	C304.586,203.071,290.282,199.307,287.377,187.939z M377.201,143.701h0.293H377.201z"/>
<path style="fill:#0CA656;" d="M337.914,300h-65.098c-12.575,0-19.578-14.664-11.66-24.434
	c22.143-27.328,32.851-55.418,26.074-88.315c-1.025-4.834,0.439-9.844,3.838-13.418c28.447-29.736,68.379-41.265,80.01-44.121
	c0.439-0.19,0.879-0.366,1.318-0.513c7.705-2.593,17.959,1.479,20.537,9.155c0.469,1.421,11.484,35.068,7.295,72.407l0,0
	c-3.751,37.508-22.921,65.766-53.936,86.675C343.832,299.106,340.902,300,337.914,300z"/>
<path style="fill:#32D736;" d="M266.203,99.901C263.2,97.2,259.6,96,256,96s-7.2,1.199-10.203,3.9
	C216.398,128.4,192.4,166.199,192.4,207c0,36.299,19.2,67.5,35.101,87.299c2.999,3.6,7.2,5.7,11.697,5.7h33.604
	c4.497,0,8.698-2.1,11.697-5.7C300.4,274.5,319.6,243.299,319.6,207C319.6,166.199,295.902,128.401,266.203,99.901z"/>
<path style="fill:#10BB67;" d="M272.802,300H256V96c3.6,0,7.2,1.199,10.203,3.9c29.7,28.5,53.397,66.299,53.397,107.1
	c0,36.299-19.2,67.5-35.101,87.299C281.499,297.9,277.299,300,272.802,300z"/>
<path style="fill:#994C0F;" d="M376,332H136c-9.302,0-16.501,8.699-14.7,17.999l30,150C152.802,506.901,158.8,512,166,512h180
	c7.2,0,13.198-5.099,14.7-12.001l30-150C392.501,340.699,385.302,332,376,332z"/>
<path style="fill:#713708;" d="M390.7,349.999l-30,150C359.198,506.901,353.2,512,346,512h-90V332h120
	C385.302,332,392.501,340.699,390.7,349.999z"/>
<path style="fill:#BF6015;" d="M406,270H106c-8.401,0-15,6.599-15,15v32c0,24.901,20.098,45,45,45h240c24.902,0,45-20.099,45-45v-32
	C421,276.599,414.401,270,406,270z"/>
<path style="fill:#994C10;" d="M421,285v32c0,24.901-20.098,45-45,45H256v-92h150C414.401,270,421,276.599,421,285z"/>
<g>
</g>
<g>
</g>
<g>
</g>
<g>
</g>
<g>
</g>
<g>
</g>
<g>
</g>
<g>
</g>
<g>
</g>
<g>
</g>
<g>
</g>
<g>
</g>
<g>
</g>
<g>
</g>
<g>
</g>
</svg>
