<svg id="Layer_1" enable-background="new 0 0 497 497" height="512" viewBox="0 0 497 497" width="512" xmlns="http://www.w3.org/2000/svg"><g><g><g><path d="m75.746 123.887c-3.824-5.564-6.062-12.303-6.062-19.564 0-19.098 15.482-34.581 34.581-34.581h240.025c19.098 0 34.581 15.482 34.581 34.581 0 7.162-2.177 13.815-5.906 19.334l-146.965 21.843z" fill="#f0aa7d"/></g><path d="m344.289 69.742h-40c19.098 0 34.581 15.482 34.581 34.581 0 7.162-2.177 13.815-5.906 19.334l-257.237.199c.007.01.013.021.02.031l297.218-.23c3.729-5.519 5.906-12.172 5.906-19.334-.002-19.099-15.484-34.581-34.582-34.581z" fill="#e09d70"/><path d="m134.274 69.219c-1.137-3.576-1.751-7.386-1.751-11.34.376-20.102 16.893-37.351 37.323-37.351h36.976c13.373 0 13.174-20.526 0-20.526h49.881c36.882-.276 65.672 31.732 58.113 69.217l-83.816 21.781z" fill="#f0aa7d"/><path d="m256.703.002h-40c36.882-.276 65.672 31.732 58.113 69.217h-140.542 180.542c7.56-37.486-21.231-69.494-58.113-69.217z" fill="#e09d70"/></g><path d="m423.175 160.458c-5.624 0-11.099.638-16.363 1.831v-30.529c0-4.38-3.55-7.93-7.93-7.93h-346.163c-4.38 0-7.93 3.55-7.93 7.93v169.396c0 53.868 25.397 104.588 68.544 136.89 14.799 11.079 32.792 17.067 51.284 17.067h122.385c18.479 0 36.46-5.984 51.248-17.055 41.725-31.237 66.851-79.695 68.473-131.569 5.291 1.206 10.796 1.847 16.451 1.847 40.772 0 73.825-33.104 73.825-73.939.001-40.835-33.051-73.939-73.824-73.939zm0 118.499c-5.777 0-11.295-1.118-16.363-3.134v-82.856c5.067-2.016 10.587-3.129 16.363-3.129 24.532 0 44.49 19.989 44.49 44.559.001 24.571-19.958 44.56-44.49 44.56z" fill="#fa7592"/><g><g><path d="m399.508 497h-342.222c-19.901 0-38.345-10.419-48.598-27.452l-8.688-14.435h456.794l-8.689 14.435c-10.252 17.033-28.696 27.452-48.597 27.452z" fill="#f2eacb"/></g><path d="m416.794 455.113-8.689 14.435c-10.252 17.033-28.696 27.452-48.597 27.452h40c19.901 0 38.345-10.419 48.598-27.452l8.689-14.435z" fill="#ebe0b9"/></g><g fill="#f55577"><path d="m423.175 160.459c-5.625 0-11.099.638-16.363 1.831v-30.5c-.543-4.372-3.36-7.959-7.93-7.959h-40c4.38 0 7.93 3.55 7.93 7.93 0 0-.088 159.989-.088 174.728-1.622 51.874-26.747 100.333-68.473 131.569-14.788 11.071-32.77 17.055-51.248 17.055h40c71.706 0 117.769-86.187 119.721-148.624 5.291 1.206 10.796 1.847 16.451 1.847 40.772 0 73.825-33.104 73.825-73.939s-33.052-73.938-73.825-73.938zm0 118.498c-5.777 0-11.295-1.118-16.363-3.134v-82.856c5.067-2.016 10.587-3.129 16.363-3.129 24.532 0 44.49 19.989 44.49 44.559.001 24.571-19.957 44.56-44.49 44.56z"/><path d="m400.48 123.992c.774.158 1.508.43 2.182.796-.674-.366-1.408-.638-2.182-.796z"/><path d="m398.882 123.831c.547 0 1.082.055 1.598.161-.516-.106-1.05-.161-1.598-.161z"/></g></g></svg>