<svg id="Layer_1" enable-background="new 0 0 65 65" height="512" viewBox="0 0 65 65" width="512" xmlns="http://www.w3.org/2000/svg"><g><path d="m21.7 49.5h21.7v10.1h-21.7z" fill="#445c6c"/><path d="m62.4 2.1h-59.8c-1.2 0-2.1.9-2.1 2.1v42.1c0 1.2.9 2.1 2.1 2.1h6.7c4.9 2.7 13.4 4.4 23.2 4.4s18.4-1.8 23.2-4.4h6.7c1.2 0 2.1-.9 2.1-2.1v-42.1c0-1.1-.9-2.1-2.1-2.1z" fill="#788d9a"/><path d="m62.4 47.3h-6.7c-4.9 2.7-13.4 4.4-23.2 4.4s-18.4-1.8-23.2-4.4h-6.7c-1.2 0-2.1-.9-2.1-2.1v1.1c0 1.2.9 2.1 2.1 2.1h6.7c4.9 2.7 13.4 4.4 23.2 4.4s18.4-1.8 23.2-4.4h6.7c1.2 0 2.1-.9 2.1-2.1v-1.1c0 1.2-.9 2.1-2.1 2.1z" fill="#6e838e"/><path d="m46.3 59.6h-27.6c-1.8 0-3.3 1.5-3.3 3.3h34.2c0-1.8-1.5-3.3-3.3-3.3z" fill="#788d9a"/><path d="m4 5.3h57v38h-57z" fill="#41b3e2"/><path d="m4 5.3h57v1.2h-57z" fill="#56cbef"/><path d="m4 42.1h57v1.2h-57z" fill="#39afd3"/><g fill="#445c6c"><path d="m24.1 47.1h-4.2c-.3 0-.6.3-.6.6s.3.6.6.6h4.2c.3 0 .6-.3.6-.6s-.3-.6-.6-.6z"/><path d="m31.1 47.1h-4.2c-.3 0-.6.3-.6.6s.3.6.6.6h4.2c.3 0 .6-.3.6-.6s-.3-.6-.6-.6z"/><path d="m38.1 47.1h-4.2c-.3 0-.6.3-.6.6s.3.6.6.6h4.2c.3 0 .6-.3.6-.6s-.3-.6-.6-.6z"/><path d="m45.1 47.1h-4.2c-.3 0-.6.3-.6.6s.3.6.6.6h4.2c.3 0 .6-.3.6-.6s-.3-.6-.6-.6z"/></g></g></svg>