<svg height="512" viewBox="0 0 48 48" width="512" xmlns="http://www.w3.org/2000/svg"><g id="Flash_disk" data-name="Flash disk"><path d="m17 1h14v9h-14z" fill="#dad7e5"/><path d="m31 1v7h-9a3 3 0 0 1 -3-3v-4z" fill="#edebf2"/><path d="m22 6h-1a1 1 0 0 1 0-2h1a1 1 0 0 1 0 2z" fill="#c6c3d8"/><path d="m27 6h-1a1 1 0 0 1 0-2h1a1 1 0 0 1 0 2z" fill="#c6c3d8"/><path d="m34 12v3h-20v-3a2 2 0 0 1 2-2h16a2 2 0 0 1 2 2z" fill="#6fabe6"/><path d="m34 12v1h-15a3 3 0 0 1 -3-3h16a2 2 0 0 1 2 2z" fill="#82bcf4"/><path d="m34 15c0 28.52.31 27.18-.88 29.12a6 6 0 0 1 -5.12 2.88h-8a6 6 0 0 1 -6-6v-26z" fill="#374f68"/><path d="m34 15c0 28.52.31 27.18-.88 29.12-1.91 1.17-2.83.88-11.12.88a6 6 0 0 1 -6-6v-24z" fill="#425b72"/><path d="m28 24c0 8.58.12 8.6-.36 9.64a4 4 0 0 1 -7.64-1.64v-8a4 4 0 0 1 8 0z" fill="#2c435e"/><path d="m28 24c0 8.58.12 8.6-.36 9.64a4 4 0 0 1 -5.64-3.64c0-8.58-.12-8.6.36-9.64a4 4 0 0 1 5.64 3.64z" fill="#374f68"/><path d="m28 24a4 4 0 1 1 -5.64-3.64 4 4 0 0 1 5.64 3.64z" fill="#6fabe6"/><path d="m27.64 25.64a4 4 0 0 1 -5.28-5.28 4 4 0 0 1 5.28 5.28z" fill="#82bcf4"/></g></svg>