<svg height="512pt" viewBox="0 0 512 512.00001" width="512pt" xmlns="http://www.w3.org/2000/svg"><path d="m2 122.753906-2 1.1875v20.636719l2 1.183594zm0 0" fill="#008c4a"/><path d="m82.019531 75.300781-82.019531 48.640625v20.636719l82.019531 48.640625h429.980469v-117.917969zm0 0" fill="#60dd4e"/><path d="m299.46875 75.300781h212.53125v117.917969h-212.53125zm0 0" fill="#00bb64"/><path d="m0 123.941406v20.636719l82.019531 48.640625v-117.917969zm0 0" fill="#ffdba9"/><path d="m406.171875 50.890625c-7.621094 0-14.820313 1.808594-21.210937 5-7.140626-17.332031-24.199219-29.570313-44.070313-29.570313-7.390625 0-14.390625 1.691407-20.640625 4.710938-3.878906-10.402344-11.300781-19.089844-20.78125-24.589844-7.019531-4.101562-15.167969-6.441406-23.859375-6.441406-20.4375 0-37.898437 12.929688-44.648437 31.039062-6.25-3.019531-13.261719-4.71875-20.660157-4.71875-26.269531 0-47.640625 21.371094-47.640625 47.640626v119.257812h-54.730468v89.132812l76.839843 93.5v60.4375h228v-44.878906l41.039063-84.070312v-208.808594c0-26.269531-21.367188-47.640625-47.636719-47.640625zm0 0" fill="#ffdba9"/><path d="m453.808594 98.53125v208.808594l-41.039063 84.070312v44.878906h-113.300781v-429.847656c9.480469 5.5 16.902344 14.1875 20.78125 24.589844 6.25-3.019531 13.25-4.710938 20.640625-4.710938 19.871094 0 36.929687 12.238282 44.070313 29.570313 6.390624-3.191406 13.589843-5 21.210937-5 26.269531 0 47.636719 21.371094 47.636719 47.640625zm0 0" fill="#ffc473"/><path d="m157.78125 406.289062h283.390625v105.710938h-283.390625zm0 0" fill="#ffb74f"/><path d="m196.019531 446.6875h36.648438v36.648438h-36.648438zm0 0" fill="#ff623f"/><path d="m299.46875 406.289062h141.703125v105.710938h-141.703125zm0 0" fill="#ff9a00"/></svg>