<svg height="512" viewBox="0 0 58 58" width="512" xmlns="http://www.w3.org/2000/svg"><g id="Page-1" fill="none" fill-rule="evenodd"><g id="020---Clipboard" fill-rule="nonzero"><path id="Rectangle-path" d="m48 42h10v8h-10z" fill="#bdc3c7"/><path id="Shape" d="m58 48v5c0 2.7614237-2.2385763 5-5 5s-5-2.2385763-5-5v-5z" fill="#ff5364"/><path id="Shape" d="m58 11v33h-10v-33l5-2z" fill="#f0c419"/><path id="Shape" d="m56.26 4.03c1.0171587 2.1918263 1.6076744 4.55728281 1.74 6.97h-10c.1323256-2.41271719.7228413-4.7781737 1.74-6.97z" fill="#fdd7ad"/><path id="Shape" d="m56.26 4.03c-1.9809091 1.29337072-4.5390909 1.29337072-6.52 0 1-2.26 2.26-4.03 3.26-4.03s2.26 1.77 3.26 4.03z" fill="#464f5d"/><path id="Shape" d="m32 6h6c3.3137085 0 6 2.6862915 6 6v40c0 3.3137085-2.6862915 6-6 6h-32c-3.3137085 0-6-2.6862915-6-6v-40c0-3.3137085 2.6862915-6 6-6h6" fill="#f29c1f"/><path id="Shape" d="m32 6v4c0 2.209139-1.790861 4-4 4h-12c-2.209139 0-4-1.790861-4-4v-4c.0032948-1.10320187.8967981-1.9967052 2-2h4c0-2.209139 1.790861-4 4-4s4 1.790861 4 4h4c1.1032019.0032948 1.9967052.89679813 2 2z" fill="#bdc3c7"/><path id="Shape" d="m31.87 11h5.13c1.1032019.0032948 1.9967052.8967981 2 2v38c-.0032948 1.1032019-.8967981 1.9967052-2 2h-30c-1.10320187-.0032948-1.9967052-.8967981-2-2v-38c.0032948-1.1032019.89679813-1.9967052 2-2z" fill="#f5efca"/><circle id="Oval" cx="22" cy="4" fill="#7f8c8d" r="1"/><path id="Shape" d="m27.293 26.707c.3904999.3903819 1.0235001.3903819 1.414 0l.293-.293.293.293c.3923789.3789722 1.0160848.3735524 1.4018186-.0121814s.3911536-1.0094397.0121814-1.4018186l-.293-.293.293-.293c.3789722-.3923789.3735524-1.0160848-.0121814-1.4018186s-1.0094397-.3911536-1.4018186-.0121814l-.293.293-.293-.293c-.3923789-.3789722-1.0160848-.3735524-1.4018186.0121814s-.3911536 1.0094397-.0121814 1.4018186l.293.293-.293.293c-.3903819.3904999-.3903819 1.0235001 0 1.414z" fill="#e64c3c"/><g fill="#a56a43"><path id="Shape" d="m32 31h-6c-1.6568542 0-3-1.3431458-3-3v-6c0-1.6568542 1.3431458-3 3-3h6c1.6568542 0 3 1.3431458 3 3v6c0 1.6568542-1.3431458 3-3 3zm-6-10c-.5522847 0-1 .4477153-1 1v6c0 .5522847.4477153 1 1 1h6c.5522847 0 1-.4477153 1-1v-6c0-.5522847-.4477153-1-1-1z"/><path id="Shape" d="m32 47h-6c-1.6568542 0-3-1.3431458-3-3v-6c0-1.6568542 1.3431458-3 3-3h6c1.6568542 0 3 1.3431458 3 3v6c0 1.6568542-1.3431458 3-3 3zm-6-10c-.5522847 0-1 .4477153-1 1v6c0 .5522847.4477153 1 1 1h6c.5522847 0 1-.4477153 1-1v-6c0-.5522847-.4477153-1-1-1z"/><path id="Shape" d="m19 24h-9c-.55228475 0-1-.4477153-1-1s.44771525-1 1-1h9c.5522847 0 1 .4477153 1 1s-.4477153 1-1 1z"/><path id="Shape" d="m19 28h-9c-.55228475 0-1-.4477153-1-1s.44771525-1 1-1h9c.5522847 0 1 .4477153 1 1s-.4477153 1-1 1z"/><path id="Shape" d="m19 40h-9c-.55228475 0-1-.4477153-1-1s.44771525-1 1-1h9c.5522847 0 1 .4477153 1 1s-.4477153 1-1 1z"/><path id="Shape" d="m19 44h-9c-.55228475 0-1-.4477153-1-1s.44771525-1 1-1h9c.5522847 0 1 .4477153 1 1s-.4477153 1-1 1z"/></g><path id="Shape" d="m34.091 35.876c-.2161095-.1557988-.4854539-.2189223-.7482838-.1753677-.2628299.0435547-.4974149.1901865-.6517162.4073677l-3.823 5.35-1.166-1.165c-.3923789-.3789722-1.0160848-.3735524-1.4018186.0121814s-.3911536 1.0094397-.0121814 1.4018186l2 2c.1887161.1887792.4450736.2942746.712.293h.082c.2927992-.0242327.5601279-.1759993.731-.415l4.51-6.311c.1551635-.2159693.2179138-.4848471.1743779-.7471886s-.1897721-.4965377-.4063779-.6508114z" fill="#4fba6f"/></g></g></svg>