<?xml version="1.0" encoding="iso-8859-1"?>
<!-- Generator: Adobe Illustrator 19.0.0, SVG Export Plug-In . SVG Version: 6.00 Build 0)  -->
<svg version="1.1" id="Capa_1" xmlns="http://www.w3.org/2000/svg" xmlns:xlink="http://www.w3.org/1999/xlink" x="0px" y="0px"
	 viewBox="0 0 512 512" style="enable-background:new 0 0 512 512;" xml:space="preserve">
<g>
	<path style="fill:#ACB3BA;" d="M503.467,289.327c-1.067-4.267-26.667-125.867-60.8-185.6c-11.733-21.333-36.267-33.067-60.8-29.867
		c-24.533,3.2-43.733,19.2-50.133,44.8c-2.133,10.667,4.267,20.267,14.933,23.467c10.667,3.2,21.333-4.267,24.533-14.933
		c3.2-11.733,13.867-13.867,17.067-13.867c6.4-1.067,16,1.067,21.333,10.667c23.467,40.533,42.667,116.267,52.267,153.6h36.267v32
		C502.4,305.327,505.6,297.861,503.467,289.327z"/>
	<path style="fill:#ACB3BA;" d="M180.267,118.661c-7.467-25.6-26.667-41.6-50.133-44.8c-24.533-3.2-48,8.533-60.8,29.867
		C35.2,163.461,9.6,285.061,8.533,289.327C6.4,299.994,12.8,310.661,23.467,312.794c1.067,0,2.133,0,3.2,0v-40.533h26.667
		c8.533-37.333,27.733-109.867,50.133-149.333c5.333-8.533,13.867-10.667,21.333-10.667c3.2,0,13.867,2.133,17.067,13.867
		c3.2,10.667,13.867,17.067,24.533,14.933C176,138.927,183.467,129.327,180.267,118.661z"/>
</g>
<path style="fill:#CDD6E0;" d="M425.6,235.994h-58.667c-32,0-59.733,17.067-74.667,43.733c-22.4-9.6-48-9.6-69.333,0
	c-14.933-25.6-42.667-43.733-74.667-43.733H86.4c-48,0-86.4,38.4-86.4,86.4c0,64,52.267,116.267,116.267,116.267
	s116.267-52.267,116.267-116.267c0-2.133,0-3.2,0-5.333c13.867-8.533,32-8.533,46.933,0c0,2.133,0,3.2,0,5.333
	c0,64,52.267,116.267,116.267,116.267S512,386.394,512,322.394C512,274.394,473.6,235.994,425.6,235.994z M116.267,406.661
	c-46.933,0-84.267-38.4-84.267-84.267c0-29.867,24.533-54.4,54.4-54.4h58.667c29.867,0,54.4,24.533,54.4,54.4
	C200.533,369.327,163.2,406.661,116.267,406.661z M395.733,406.661c-46.933,0-84.267-38.4-84.267-84.267
	c0-29.867,24.533-54.4,54.4-54.4h58.667c29.867,0,54.4,24.533,54.4,54.4C480,369.327,441.6,406.661,395.733,406.661z"/>
<g>
</g>
<g>
</g>
<g>
</g>
<g>
</g>
<g>
</g>
<g>
</g>
<g>
</g>
<g>
</g>
<g>
</g>
<g>
</g>
<g>
</g>
<g>
</g>
<g>
</g>
<g>
</g>
<g>
</g>
</svg>
