<svg id="Capa_1" enable-background="new 0 0 511.848 511.848" height="512" viewBox="0 0 511.848 511.848" width="512" xmlns="http://www.w3.org/2000/svg"><g><path d="m304.024 459.048h-100.9c-112.003 0-203.124-91.121-203.124-203.124s91.121-203.124 203.124-203.124h100.9c8.284 0 15 6.716 15 15v376.248c0 8.284-6.715 15-15 15z" fill="#c97340"/><path d="m0 255.924c0 112.003 91.121 203.124 203.124 203.124h100.9c8.284 0 15-6.716 15-15v-188.124z" fill="#964c22"/><path d="m308.724 451.023c-107.578 0-195.099-87.521-195.099-195.099s87.521-195.099 195.099-195.099 195.099 87.521 195.099 195.099-87.522 195.099-195.099 195.099z" fill="#5bc980"/><path d="m308.724 451.023c107.578 0 195.099-87.521 195.099-195.099h-390.198c0 107.578 87.521 195.099 195.099 195.099z" fill="#00b44b"/><path d="m308.724 52.8c-54.855 0-104.691 21.866-141.277 57.328-.931-.181-1.89-.282-2.874-.282h-30.811c-8.284 0-15 6.716-15 15s6.716 15 15 15h8.371c-7.836 11.212-14.571 23.246-20.046 35.948-1.24-.332-2.536-.525-3.88-.525h-17.157c-8.284 0-15 6.716-15 15s6.716 15 15 15h10.944c-2.969 11.524-4.943 23.442-5.839 35.655h-24.732c-8.284 0-15 6.716-15 15s6.716 15 15 15h24.732c7.703 105.025 95.611 188.124 202.569 188.124 112.003 0 203.124-91.121 203.124-203.124s-91.121-203.124-203.124-203.124zm0 376.248c-95.461 0-173.124-77.663-173.124-173.124s77.663-173.124 173.124-173.124 173.124 77.663 173.124 173.124-77.663 173.124-173.124 173.124z" fill="#964c22"/><path d="m308.724 316.528c-33.417 0-60.604-27.186-60.604-60.604s27.187-60.604 60.604-60.604 60.603 27.187 60.603 60.604-27.186 60.604-60.603 60.604z" fill="#fff2df"/><path d="m248.12 255.924c0 33.417 27.187 60.604 60.604 60.604s60.603-27.186 60.603-60.604z" fill="#feebd9"/><path d="m231.622 194.402c-3.839 0-7.678-1.464-10.606-4.394l-7.71-7.71c-5.858-5.858-5.858-15.355 0-21.213 5.857-5.858 15.355-5.858 21.213 0l7.71 7.71c5.858 5.858 5.858 15.355 0 21.213-2.929 2.93-6.768 4.394-10.607 4.394z" fill="#5b5555"/><path d="m393.535 356.316c-3.839 0-7.678-1.464-10.606-4.393l-7.71-7.711c-5.858-5.858-5.857-15.355 0-21.213 5.858-5.858 15.355-5.858 21.214 0l7.71 7.711c5.857 5.858 5.856 15.355-.001 21.213-2.929 2.928-6.768 4.393-10.607 4.393z" fill="#463f3f"/><path d="m223.912 356.316c-3.839 0-7.677-1.464-10.606-4.393-5.857-5.858-5.858-15.355-.001-21.213l7.71-7.711c5.859-5.857 15.354-5.858 21.214 0 5.857 5.858 5.858 15.355 0 21.213l-7.71 7.711c-2.929 2.928-6.768 4.393-10.607 4.393z" fill="#463f3f"/><path d="m385.825 194.402c-3.839 0-7.678-1.464-10.607-4.394-5.858-5.858-5.858-15.355 0-21.213l7.71-7.71c5.857-5.858 15.355-5.858 21.213 0s5.858 15.355 0 21.213l-7.71 7.71c-2.928 2.93-6.767 4.394-10.606 4.394z" fill="#5b5555"/><path d="m308.724 391.446c-8.284 0-15-6.716-15-15v-10.904c0-8.284 6.716-15 15-15s15 6.716 15 15v10.904c0 8.284-6.716 15-15 15z" fill="#463f3f"/><path d="m308.724 162.465c-8.284 0-15-6.716-15-15v-10.904c0-8.284 6.716-15 15-15s15 6.716 15 15v10.904c0 8.285-6.716 15-15 15z" fill="#5b5555"/><path d="m428.666 270.924h-10.904c-8.284 0-15-6.716-15-15s6.716-15 15-15h10.904c8.284 0 15 6.716 15 15s-6.716 15-15 15z" fill="#5b5555"/><path d="m417.762 270.924h10.904c8.284 0 15-6.716 15-15h-40.904c0 8.284 6.716 15 15 15z" fill="#463f3f"/><path d="m199.686 270.924h-10.904c-8.284 0-15-6.716-15-15s6.716-15 15-15h10.904c8.284 0 15 6.716 15 15s-6.716 15-15 15z" fill="#5b5555"/><path d="m188.781 270.924h10.904c8.284 0 15-6.716 15-15h-40.904c0 8.284 6.716 15 15 15z" fill="#463f3f"/><path d="m481.848 255.924c0 95.461-77.663 173.124-173.124 173.124s-173.124-77.663-173.124-173.124h-11.02-18.98-39.177c0 8.284 6.716 15 15 15h24.732c.884 12.05 2.822 23.811 5.726 35.191h-16.283c-8.284 0-15 6.716-15 15s6.716 15 15 15h26.516c5.394 12.505 12.011 24.361 19.697 35.423h-2.598c-8.284 0-15 6.716-15 15s6.716 15 15 15h27.157c.286 0 .565-.027.847-.043 36.607 35.594 86.537 57.553 141.507 57.553 112.003 0 203.124-91.121 203.124-203.124z" fill="#6f3716"/></g></svg>