<?xml version="1.0" encoding="iso-8859-1"?>
<!-- Generator: Adobe Illustrator 19.0.0, SVG Export Plug-In . SVG Version: 6.00 Build 0)  -->
<svg xmlns="http://www.w3.org/2000/svg" xmlns:xlink="http://www.w3.org/1999/xlink" version="1.1" id="Layer_1" x="0px" y="0px" viewBox="0 0 512 512" style="enable-background:new 0 0 512 512;" xml:space="preserve">
<path style="fill:#FF7F4B;" d="M67.557,485.571L0,418.009l247.274-247.301l67.557,67.563L67.557,485.571z"/>
<polygon style="fill:#FD5219;" points="314.831,238.27 281.049,204.485 33.757,451.769 67.557,485.571 "/>
<path style="fill:#EBEBEC;" d="M330.869,296.739L188.808,154.663l90.811-90.819c24.124-24.127,56.201-37.414,90.32-37.414  s66.196,13.288,90.321,37.413L512,115.589L330.869,296.739z"/>
<path style="fill:#CACACD;" d="M512,115.589l-51.74-51.747c-6.562-6.563-13.717-12.316-21.337-17.226L259.836,225.698l71.034,71.041  L512,115.589z"/>
<path style="fill:#F7BA35;" d="M499.758,499.758c16.32-16.32,16.32-42.78,0-59.1L71.342,12.242c-16.32-16.32-42.78-16.32-59.1,0  s-16.32,42.78,0,59.1l428.416,428.415C456.978,516.078,483.438,516.078,499.758,499.758z"/>
<path style="fill:#FD9702;" d="M499.758,499.758L12.242,12.242c-16.32,16.32-16.32,42.78,0,59.1l428.416,428.415  C456.978,516.078,483.438,516.078,499.758,499.758z"/>
<rect x="32.471" y="171.685" transform="matrix(-0.7071 -0.7071 0.7071 -0.7071 256.0027 618.0289)" style="fill:#FBDA35;" width="447.056" height="168.618"/>
<rect x="2.668" y="243.647" transform="matrix(-0.7071 -0.7071 0.7071 -0.7071 184.0488 647.8389)" style="fill:#F7BA35;" width="447.056" height="84.309"/>
<g>
</g>
<g>
</g>
<g>
</g>
<g>
</g>
<g>
</g>
<g>
</g>
<g>
</g>
<g>
</g>
<g>
</g>
<g>
</g>
<g>
</g>
<g>
</g>
<g>
</g>
<g>
</g>
<g>
</g>
</svg>
