<?xml version="1.0" encoding="iso-8859-1"?>
<!-- Generator: Adobe Illustrator 19.0.0, SVG Export Plug-In . SVG Version: 6.00 Build 0)  -->
<svg xmlns="http://www.w3.org/2000/svg" xmlns:xlink="http://www.w3.org/1999/xlink" version="1.1" id="Capa_1" x="0px" y="0px" viewBox="0 0 512 512" style="enable-background:new 0 0 512 512;" xml:space="preserve">
<path style="fill:#FFB74D;" d="M391.62,449.665h-57.852v-32.004h57.852c13.99,0,25.371-11.382,25.371-25.37V233.242  c0-13.989-11.38-25.371-25.371-25.371h-57.852v-32.004h57.852c31.637,0,57.375,25.738,57.375,57.375V392.29  C448.995,423.928,423.257,449.665,391.62,449.665z"/>
<path style="fill:#FFECB3;" d="M327.705,14.725c-31.368-23.91-70.298-13.764-107.948-3.95  c-26.081,6.794-53.058,13.834-79.823,11.482C97.271,18.523,78.659,38.966,71.334,51.48c-12.49,21.339-10.802,50.433,4.196,72.4  c4.985,7.298,14.936,9.173,22.242,4.192c4.534-3.098,6.966-8.115,6.97-13.217h213.092c0.008,5.79,3.094,11.377,8.591,14.217  c2.348,1.215,4.86,1.79,7.333,1.79c5.794,0,11.388-3.161,14.229-8.662C359.78,99.365,370.723,47.515,327.705,14.725z"/>
<path style="fill:#FEDF81;" d="M327.705,14.725c-21.844-16.651-47.36-16.772-73.553-12.001c8.556,2.266,16.784,6.083,24.547,12.001  c38.919,29.668,33.653,74.866,23.564,100.131h15.57c0.008,5.79,3.094,11.377,8.591,14.217c2.348,1.215,4.86,1.79,7.333,1.79  c5.794,0,11.388-3.161,14.229-8.662C359.78,99.365,370.723,47.515,327.705,14.725z"/>
<path style="fill:#FFB74D;" d="M349.771,114.855c0-8.837-7.165-16.002-16.002-16.002H88.747c-8.837,0-16.002,7.165-16.002,16.002  v38.888h277.026L349.771,114.855L349.771,114.855z"/>
<path style="fill:#FE9F00;" d="M333.769,98.853h-37.505c8.837,0,16.002,7.165,16.002,16.002v38.888h37.505v-38.888  C349.771,106.019,342.605,98.853,333.769,98.853z"/>
<path style="fill:#FB8C00;" d="M72.745,153.744V457.13c0,30.254,24.617,54.871,54.871,54.871H294.9  c30.254,0,54.871-24.617,54.871-54.871V153.744H72.745z"/>
<path style="fill:#FE6F00;" d="M312.266,153.744V457.13c0,30.254-24.617,54.871-54.871,54.871H294.9  c30.254,0,54.871-24.617,54.871-54.871V153.744H312.266z"/>
<g>
	<path style="fill:#FFB74D;" d="M157.13,441.45h-31.765c-0.987,0-1.786-0.8-1.786-1.786V209.872c0-0.987,0.8-1.786,1.786-1.786   h31.765c0.987,0,1.786,0.8,1.786,1.786v229.792C158.917,440.65,158.117,441.45,157.13,441.45z"/>
	<path style="fill:#FFB74D;" d="M227.14,441.45h-31.765c-0.987,0-1.786-0.8-1.786-1.786V209.872c0-0.987,0.8-1.786,1.786-1.786   h31.765c0.987,0,1.786,0.8,1.786,1.786v229.792C228.926,440.65,228.127,441.45,227.14,441.45z"/>
	<path style="fill:#FFB74D;" d="M297.15,441.45h-31.765c-0.987,0-1.786-0.8-1.786-1.786V209.871c0-0.987,0.8-1.786,1.786-1.786   h31.765c0.987,0,1.786,0.8,1.786,1.786v229.792C298.936,440.65,298.137,441.45,297.15,441.45z"/>
</g>
<g>
</g>
<g>
</g>
<g>
</g>
<g>
</g>
<g>
</g>
<g>
</g>
<g>
</g>
<g>
</g>
<g>
</g>
<g>
</g>
<g>
</g>
<g>
</g>
<g>
</g>
<g>
</g>
<g>
</g>
</svg>
