<?xml version="1.0" encoding="iso-8859-1"?>
<!-- Generator: Adobe Illustrator 19.0.0, SVG Export Plug-In . SVG Version: 6.00 Build 0)  -->
<svg xmlns="http://www.w3.org/2000/svg" xmlns:xlink="http://www.w3.org/1999/xlink" version="1.1" id="Capa_1" x="0px" y="0px" viewBox="0 0 512.001 512.001" style="enable-background:new 0 0 512.001 512.001;" xml:space="preserve">
<path style="fill:#CECECE;" d="M347.559,353.51c-2.407-3.446-1.564-8.192,1.882-10.598  c43.092-30.124,135.697-109.959,105.119-153.063c-14.09-19.862-34.297-26.876-60.059-20.849  c-20.24,4.736-36.177,15.783-36.336,15.894c-3.443,2.411-8.19,1.573-10.601-1.87c-2.411-3.444-1.573-8.19,1.87-10.601  c0.746-0.522,18.532-12.849,41.598-18.246c31.916-7.468,58.179,1.821,75.944,26.864c38.101,53.711-56.258,137.657-108.819,174.353  C354.717,357.796,349.97,356.963,347.559,353.51z"/>
<path style="fill:#BABABA;" d="M87.278,196.718c0,155.116-0.455,146.023,1.065,150.795c8.322,68.148,66.349,120.94,136.742,120.94  c70.395,0,128.422-52.793,136.745-120.94c1.511-4.735,1.065,4.552,1.065-150.795H87.278z"/>
<path style="fill:#CECECE;" d="M340.344,134.792H109.828c-12.454,0-22.551,10.096-22.551,22.55v44.181h275.618v-44.181  C362.895,144.888,352.799,134.792,340.344,134.792z"/>
<path style="fill:#ADAAAA;" d="M109.204,347.513c-1.51-4.738-1.065,4.483-1.065-150.795H87.278  c0,155.116-0.455,146.023,1.065,150.795c8.79,71.982,72.74,126.116,147.173,120.545  C169.893,463.144,117.111,412.263,109.204,347.513z"/>
<path style="fill:#BABABA;" d="M130.689,134.792h-20.861c-12.454,0-22.551,10.096-22.551,22.55v44.181h20.861v-44.181  C108.139,144.888,118.235,134.792,130.689,134.792z"/>
<circle style="fill:#93603E;" cx="166.573" cy="289.744" r="23.899"/>
<path style="fill:#845135;" d="M178.527,269.053c-15.849-9.171-35.849,2.271-35.849,20.696c0,18.446,20.017,29.853,35.849,20.692  C162.606,301.229,162.609,278.264,178.527,269.053z"/>
<path style="fill:#93603E;" d="M166.577,232.369c13.2,0,23.899-10.701,23.899-23.901V185.04  c3.509,8.835,12.116,15.093,22.203,15.093c13.2,0,23.899-10.701,23.899-23.901v-41.441c-10.06,0-84.325,0-93.902,0v73.675  C142.676,221.667,153.377,232.369,166.577,232.369z"/>
<path style="fill:#845135;" d="M166.577,208.467v-73.675h-23.9v73.675c0,18.438,20.005,29.864,35.849,20.696  C171.385,225.03,166.577,217.312,166.577,208.467z"/>
<path style="fill:#CECECE;" d="M413.974,491.642c0,11.243-9.117,20.359-20.36,20.359H56.558c-11.243,0-20.359-9.115-20.359-20.359  v-2.264c0-11.242,9.116-20.359,20.359-20.359h337.055c11.243,0,20.36,9.116,20.36,20.359L413.974,491.642L413.974,491.642z"/>
<path style="fill:#BABABA;" d="M393.613,490.51H56.558c-7.765,0-14.512-4.351-17.945-10.745c-2.629,4.895-2.414,8.92-2.414,11.877  c0,11.243,9.116,20.359,20.359,20.359h337.055c11.243,0,20.36-9.115,20.36-20.359c0-2.755,0.264-6.889-2.414-11.877  C408.126,486.159,401.378,490.51,393.613,490.51z"/>
<g>
	<path style="fill:#CECECE;" d="M156.164,108.816c-7.843,0-10.551-10.51-3.669-14.287c0.032-0.019,8.052-4.665,9.161-12.556   c1.123-7.996-5.329-16.508-10.939-22.24c-11.713-11.968-16.794-23.818-15.104-35.222C137.894,9.115,151.9,1.268,152.495,0.941   c3.685-2.024,8.312-0.674,10.335,3.012c2.014,3.671,0.685,8.275-2.966,10.31c-0.214,0.123-8.107,4.757-9.206,12.58   c-1.123,7.997,5.329,16.509,10.94,22.241c11.712,11.967,16.794,23.817,15.103,35.221   C174.666,98.035,161.587,108.816,156.164,108.816z"/>
	<path style="fill:#CECECE;" d="M218.414,104.865c-2.022-3.685-0.674-8.313,3.012-10.335c0.032-0.019,8.052-4.665,9.161-12.556   c1.123-7.996-5.329-16.508-10.939-22.24c-11.713-11.968-16.795-23.818-15.104-35.222c2.282-15.395,16.287-23.242,16.882-23.569   c3.686-2.024,8.313-0.674,10.335,3.012c2.014,3.671,0.685,8.275-2.966,10.31c-0.214,0.123-8.107,4.757-9.206,12.58   c-1.123,7.997,5.329,16.509,10.939,22.241c11.713,11.967,16.794,23.818,15.104,35.222c-2.282,15.395-16.287,23.242-16.882,23.569   C225.062,109.898,220.436,108.551,218.414,104.865z"/>
	<path style="fill:#CECECE;" d="M294.023,108.816c-7.843,0-10.551-10.51-3.669-14.287c0.032-0.019,8.052-4.664,9.16-12.556   c1.123-7.996-5.329-16.508-10.939-22.24c-11.713-11.968-16.795-23.818-15.104-35.222c2.283-15.395,16.287-23.242,16.882-23.569   c3.686-2.024,8.313-0.674,10.335,3.012c2.014,3.671,0.685,8.275-2.966,10.31c-0.214,0.123-8.107,4.757-9.206,12.58   c-1.123,7.997,5.329,16.509,10.939,22.241c11.713,11.967,16.794,23.818,15.104,35.222c-2.282,15.395-16.287,23.242-16.882,23.569   C296.516,108.513,295.26,108.816,294.023,108.816z"/>
</g>
<g>
</g>
<g>
</g>
<g>
</g>
<g>
</g>
<g>
</g>
<g>
</g>
<g>
</g>
<g>
</g>
<g>
</g>
<g>
</g>
<g>
</g>
<g>
</g>
<g>
</g>
<g>
</g>
<g>
</g>
</svg>
