<svg id="SVGRoot" height="512" viewBox="0 0 64 64" width="512" xmlns="http://www.w3.org/2000/svg" xmlns:svg="http://www.w3.org/2000/svg"><path id="path4" d="m12 18c-3.3067 0-6 2.6933-6 6s2.6933 6 6 6h42.5c1.9217 0 3.5-1.5783 3.5-3.5s-1.5783-3.5-3.5-3.5h-.87305c.22326-.45955.37305-.95817.37305-1.5 0-1.9217-1.5783-3.5-3.5-3.5z" fill="#ff4747" font-feature-settings="normal" font-variant-alternates="normal" font-variant-caps="normal" font-variant-east-asian="normal" font-variant-ligatures="normal" font-variant-numeric="normal" font-variant-position="normal" font-variation-settings="normal" inline-size="0" isolation="auto" mix-blend-mode="normal" paint-order="fill markers stroke" shape-margin="0" shape-padding="0" text-decoration-color="#000000" text-decoration-line="none" text-decoration-style="solid" text-indent="0" text-orientation="mixed" text-transform="none" white-space="normal"/><path id="path935" d="m17 18c-3.3067 0-6 2.6933-6 6s2.6933 6 6 6h37.5c1.9217 0 3.5-1.5783 3.5-3.5s-1.5783-3.5-3.5-3.5h-.873047c.22326-.45955.373047-.95817.373047-1.5 0-1.9217-1.5783-3.5-3.5-3.5z" fill="#f55" font-variant-ligatures="normal" font-variant-position="normal" font-variant-caps="normal" font-variant-numeric="normal" font-variant-alternates="normal" font-variant-east-asian="normal" font-feature-settings="normal" font-variation-settings="normal" text-indent="0" text-decoration-line="none" text-decoration-style="solid" text-decoration-color="#000000" text-transform="none" text-orientation="mixed" white-space="normal" shape-padding="0" shape-margin="0" inline-size="0" isolation="auto" mix-blend-mode="normal" paint-order="fill markers stroke"/><path id="path8" d="m32.025 13.422a1.0001 1.0001 0 0 0 -.083985.001953 1.0001 1.0001 0 0 0 -.21484.03711l-14.002 4a1.0001 1.0001 0 0 0 -.17188 1.8574l12.4 6.1992c1.2878.64389 2.8058.64389 4.0938 0l12.4-6.1992a1.0001 1.0001 0 0 0 -.17383-1.8574l-14-4a1.0001 1.0001 0 0 0 -.24805-.039063z" fill="#fd5" font-feature-settings="normal" font-variant-alternates="normal" font-variant-caps="normal" font-variant-east-asian="normal" font-variant-ligatures="normal" font-variant-numeric="normal" font-variant-position="normal" font-variation-settings="normal" inline-size="0" isolation="auto" mix-blend-mode="normal" shape-margin="0" shape-padding="0" text-decoration-color="#000000" text-decoration-line="none" text-decoration-style="solid" text-indent="0" text-orientation="mixed" text-transform="none" white-space="normal"/><path id="path12" d="m57 20c1.6447 0 3-1.3553 3-3v-2c0-1.6447-1.3553-3-3-3h-50c-1.6447 0-3 1.3553-3 3v2c0 1.6447 1.3553 3 3 3z" fill="#ff8c3e" font-feature-settings="normal" font-variant-alternates="normal" font-variant-caps="normal" font-variant-east-asian="normal" font-variant-ligatures="normal" font-variant-numeric="normal" font-variant-position="normal" font-variation-settings="normal" inline-size="0" isolation="auto" mix-blend-mode="normal" paint-order="fill markers stroke" shape-margin="0" shape-padding="0" text-decoration-color="#000000" text-decoration-line="none" text-decoration-style="solid" text-indent="0" text-orientation="mixed" text-transform="none" white-space="normal"/><path id="path16" d="m12 34c-3.3067 0-6 2.6933-6 6s2.6933 6 6 6h40c3.3067 0 6-2.6933 6-6s-2.6933-6-6-6z" fill="#cf7b44" font-feature-settings="normal" font-variant-alternates="normal" font-variant-caps="normal" font-variant-east-asian="normal" font-variant-ligatures="normal" font-variant-numeric="normal" font-variant-position="normal" font-variation-settings="normal" inline-size="0" isolation="auto" mix-blend-mode="normal" paint-order="fill markers stroke" shape-margin="0" shape-padding="0" text-decoration-color="#000000" text-decoration-line="none" text-decoration-style="solid" text-indent="0" text-orientation="mixed" text-transform="none" white-space="normal"/><path id="path902" d="m18.000001 34c-3.3067 0-6 2.6933-6 6s2.6933 6 6 6h33.999999c3.3067 0 6-2.6933 6-6s-2.6933-6-6-6z" fill="#d38d5f" font-variant-ligatures="normal" font-variant-position="normal" font-variant-caps="normal" font-variant-numeric="normal" font-variant-alternates="normal" font-variant-east-asian="normal" font-feature-settings="normal" font-variation-settings="normal" text-indent="0" text-decoration-line="none" text-decoration-style="solid" text-decoration-color="#000000" text-transform="none" text-orientation="mixed" white-space="normal" shape-padding="0" shape-margin="0" inline-size="0" isolation="auto" mix-blend-mode="normal" paint-order="fill markers stroke"/><path id="path20" d="m8.834 34c-.9097 0-1.6738.46118-2.1523.99219-.47858.53101-.75384 1.1234-.9668 1.6016-.30324.68089-.61255 1.554-.69727 2.4785-.084719.92454.089272 2.0669 1.0254 2.7402.69521.50004 1.569.56334 2.2637.38867.69466-.17466 1.2868-.51766 1.8535-.86328 1.1333-.69124 2.1946-1.3379 2.8105-1.3379.80964 0 1.7036.40039 2.7344.90039s2.1991 1.0996 3.6094 1.0996 2.5767-.59962 3.6074-1.0996 1.9247-.90039 2.7344-.90039 1.7036.40039 2.7344.90039 2.1991 1.0996 3.6094 1.0996 2.5767-.59962 3.6074-1.0996 1.9247-.90039 2.7344-.90039 1.7056.40039 2.7363.90039 2.1972 1.0996 3.6074 1.0996 2.5767-.59962 3.6074-1.0996 1.9247-.90039 2.7344-.90039c.61598 0 1.6792.64664 2.8125 1.3379.56667.34562 1.1569.68862 1.8516.86328.69465.17466 1.5685.11138 2.2637-.38867.93612-.67333 1.1101-1.8157 1.0254-2.7402-.08472-.92454-.39207-1.7976-.69531-2.4785-.21294-.47823-.49016-1.0705-.96875-1.6016-.47859-.53102-1.2426-.99219-2.1523-.99219h-46.33z" fill="#47d07d" font-feature-settings="normal" font-variant-alternates="normal" font-variant-caps="normal" font-variant-east-asian="normal" font-variant-ligatures="normal" font-variant-numeric="normal" font-variant-position="normal" font-variation-settings="normal" inline-size="0" isolation="auto" mix-blend-mode="normal" paint-order="fill markers stroke" shape-margin="0" shape-padding="0" text-decoration-color="#000000" text-decoration-line="none" text-decoration-style="solid" text-indent="0" text-orientation="mixed" text-transform="none" white-space="normal"/><path id="path897" d="m14.834144 34.000004c-.9097 0-1.673843.461177-2.152343.992188-.47858.53101-.753837 1.123362-.966797 1.601562-.30324.68089-.612546 1.554016-.697266 2.478516-.0479.522692-.0053 1.112577.203125 1.65039.698241-.398085 1.338284-.722656 1.75-.722656.80964 0 1.703575.400391 2.734375.900391.855759.415094 1.808978.892602 2.914063 1.044921.230388.02699.461162.05101.695312.05469.352575 0 .689894-.03754 1.013672-.101562.971334-.19208 1.820725-.623062 2.59375-.998047s1.469984-.694027 2.111328-.830079c.213781-.04535.420622-.07031.623047-.07031.8097 0 1.703575.400391 2.734375.900391.2577.125.524261.256287.800781.382812.829561.379575 1.750869.716797 2.808594.716797.176288 0 .348701-.01.517578-.02734 1.182139-.121606 2.187981-.634783 3.089844-1.072265.773025-.374985 1.469984-.694027 2.111328-.830079.213781-.04535.420622-.07032.623047-.07032.8097 0 1.705628.400391 2.736328.900391.257675.125.524445.256287.800781.382812.829008.379575 1.748993.716797 2.806643.716797.17627 0 .34871-.01.51758-.02734 1.18209-.121606 2.18798-.634783 3.08984-1.072265.77303-.374985 1.46998-.694027 2.11133-.830079.21378-.04535.42062-.07032.62305-.07032.61597 0 1.67919.646631 2.8125 1.337891.28333.17281.57172.345308.87695.496093s.62726.279858.97461.367188c.17366.04366.35835.07317.54883.08398.57141.03245 1.19344-.09762 1.71484-.472656.93612-.67333 1.11009-1.815734 1.02539-2.740234-.0847-.92454-.39207-1.797616-.69531-2.478516-.21294-.47823-.49016-1.070463-.96875-1.601562-.47859-.531016-1.24265-.992184-2.15235-.992184z" fill="#5fd38d" font-variant-ligatures="normal" font-variant-position="normal" font-variant-caps="normal" font-variant-numeric="normal" font-variant-alternates="normal" font-variant-east-asian="normal" font-feature-settings="normal" font-variation-settings="normal" text-indent="0" text-decoration-line="none" text-decoration-style="solid" text-decoration-color="#000000" text-transform="none" text-orientation="mixed" white-space="normal" shape-padding="0" shape-margin="0" inline-size="0" isolation="auto" mix-blend-mode="normal" paint-order="fill markers stroke"/><path id="path24" d="m57 36c1.6447 0 3-1.3553 3-3v-2c0-1.6447-1.3553-3-3-3h-50c-1.6447 0-3 1.3553-3 3v2c0 1.6447 1.3553 3 3 3z" fill="#ff8c3e" font-feature-settings="normal" font-variant-alternates="normal" font-variant-caps="normal" font-variant-east-asian="normal" font-variant-ligatures="normal" font-variant-numeric="normal" font-variant-position="normal" font-variation-settings="normal" inline-size="0" isolation="auto" mix-blend-mode="normal" paint-order="fill markers stroke" shape-margin="0" shape-padding="0" text-decoration-color="#000000" text-decoration-line="none" text-decoration-style="solid" text-indent="0" text-orientation="mixed" text-transform="none" white-space="normal"/><path id="path28" d="m57 52c1.6447 0 3-1.3553 3-3v-2c0-1.6447-1.3553-3-3-3h-50c-1.6447 0-3 1.3553-3 3v2c0 1.6447 1.3553 3 3 3z" fill="#ff8c3e" font-feature-settings="normal" font-variant-alternates="normal" font-variant-caps="normal" font-variant-east-asian="normal" font-variant-ligatures="normal" font-variant-numeric="normal" font-variant-position="normal" font-variation-settings="normal" inline-size="0" isolation="auto" mix-blend-mode="normal" paint-order="fill markers stroke" shape-margin="0" shape-padding="0" text-decoration-color="#000000" text-decoration-line="none" text-decoration-style="solid" text-indent="0" text-orientation="mixed" text-transform="none" white-space="normal"/><g fill="#f95"><path id="path906" d="m12.1875 44c-.113577.314875-.1875.648215-.1875 1v2c0 1.6447 1.3553 3 3 3h44.8125c.113577-.314875.1875-.648215.1875-1v-2c0-1.6447-1.3553-3-3-3z" font-variant-ligatures="normal" font-variant-position="normal" font-variant-caps="normal" font-variant-numeric="normal" font-variant-alternates="normal" font-variant-east-asian="normal" font-feature-settings="normal" font-variation-settings="normal" text-indent="0" text-decoration-line="none" text-decoration-style="solid" text-decoration-color="#000000" text-transform="none" text-orientation="mixed" white-space="normal" shape-padding="0" shape-margin="0" inline-size="0" isolation="auto" mix-blend-mode="normal" paint-order="fill markers stroke"/><path id="path911" d="m12.1875 28c-.113577.314875-.1875.648215-.1875 1v2c0 1.6447 1.3553 3 3 3h44.8125c.113577-.314875.1875-.648215.1875-1v-2c0-1.6447-1.3553-3-3-3z" font-variant-ligatures="normal" font-variant-position="normal" font-variant-caps="normal" font-variant-numeric="normal" font-variant-alternates="normal" font-variant-east-asian="normal" font-feature-settings="normal" font-variation-settings="normal" text-indent="0" text-decoration-line="none" text-decoration-style="solid" text-decoration-color="#000000" text-transform="none" text-orientation="mixed" white-space="normal" shape-padding="0" shape-margin="0" inline-size="0" isolation="auto" mix-blend-mode="normal" paint-order="fill markers stroke"/><path id="path913" d="m12.1875 12c-.113577.314875-.1875.648215-.1875 1v2c0 1.6447 1.3553 3 3 3h44.8125c.113577-.314875.1875-.648215.1875-1v-2c0-1.6447-1.3553-3-3-3z" font-variant-ligatures="normal" font-variant-position="normal" font-variant-caps="normal" font-variant-numeric="normal" font-variant-alternates="normal" font-variant-east-asian="normal" font-feature-settings="normal" font-variation-settings="normal" text-indent="0" text-decoration-line="none" text-decoration-style="solid" text-decoration-color="#000000" text-transform="none" text-orientation="mixed" white-space="normal" shape-padding="0" shape-margin="0" inline-size="0" isolation="auto" mix-blend-mode="normal" paint-order="fill markers stroke"/></g></svg>