<?xml version="1.0" encoding="iso-8859-1"?>
<!-- Generator: Adobe Illustrator 19.0.0, SVG Export Plug-In . SVG Version: 6.00 Build 0)  -->
<svg xmlns="http://www.w3.org/2000/svg" xmlns:xlink="http://www.w3.org/1999/xlink" version="1.1" id="Layer_1" x="0px" y="0px" viewBox="0 0 511.054 511.054" style="enable-background:new 0 0 511.054 511.054;" xml:space="preserve">
<path style="fill:#4EC0AA;" d="M372.694,342.521c-1.067-14.933-7.467-27.733-16-37.333c0-19.2-9.6-38.4-28.8-50.133  c-16-9.6-34.133-12.8-51.2-9.6c-7.467-11.733-21.333-18.133-35.2-13.867c-8.533,2.133-16,8.533-20.267,16l0,0  c-35.2-10.667-70.4,11.733-81.067,50.133c-8.533,34.133,5.333,68.267,30.933,84.267c-1.067,22.4,12.8,41.6,33.067,44.8  c9.6,2.133,19.2-1.067,27.733-6.4c6.4,5.333,12.8,10.667,20.267,13.867c33.067,14.933,69.333,3.2,83.2-26.667  C358.828,397.987,374.828,371.321,372.694,342.521z"/>
<g>
	<path style="fill:#415A6B;" d="M298.028,376.654c2.133-1.067,3.2-2.133,5.333-3.2C302.294,374.521,300.161,374.521,298.028,376.654   z"/>
	<path style="fill:#415A6B;" d="M252.161,427.854c-2.133-32-1.067-65.067,4.267-96c-5.333,16-10.667,30.933-13.867,46.933   c-3.2-6.4-7.467-12.8-12.8-19.2c-6.4-8.533-14.933-16-21.333-20.267c-6.4-5.333-10.667-7.467-10.667-7.467s4.267,3.2,9.6,8.533   c5.333,5.333,12.8,13.867,18.133,22.4s9.6,18.133,11.733,25.6c1.067,3.2,1.067,5.333,2.133,6.4   c-7.467,38.4-9.6,77.867-5.333,116.267h32c-5.333-18.133-8.533-36.267-10.667-54.4c4.267-50.133,30.933-73.6,41.6-81.067   C274.561,390.521,260.694,409.721,252.161,427.854z"/>
</g>
<path style="fill:#66C6B9;" d="M468.694,202.787c-2.133-26.667-12.8-50.133-28.8-68.267c1.067-35.2-17.067-69.333-52.267-90.667  c-27.733-17.067-61.867-21.333-91.733-16c-14.933-21.333-39.467-33.067-64-25.6c-16,4.267-28.8,14.933-36.267,28.8c0,0,0,0-1.067,0  c-64-20.267-130.133,21.333-148.267,91.733c-14.933,61.867,9.6,124.8,57.6,153.6c-1.067,40.533,23.467,75.733,59.733,82.133  c18.133,3.2,35.2-2.133,50.133-12.8c10.667,9.6,23.467,18.133,37.333,24.533c60.8,26.667,124.8,5.333,150.4-48  C444.161,305.187,472.961,257.187,468.694,202.787z"/>
<g>
	<path style="fill:#415A6B;" d="M332.161,265.721c3.2-2.133,5.333-3.2,8.533-5.333C341.761,260.387,337.494,262.521,332.161,265.721   z"/>
	<path style="fill:#415A6B;" d="M250.028,359.587c-4.267-58.667-2.133-118.4,6.4-176c-10.667,27.733-19.2,56.533-25.6,85.333   c-6.4-11.733-13.867-23.467-22.4-34.133c-12.8-16-27.733-28.8-39.467-37.333s-20.267-13.867-20.267-13.867s7.467,5.333,18.133,16   c10.667,9.6,23.467,24.533,33.067,40.533c9.6,16,17.067,33.067,21.333,46.933c1.067,5.333,2.133,8.533,3.2,12.8   c-13.867,70.4-17.067,141.867-10.667,211.2h61.867c-8.533-33.067-14.933-66.133-20.267-99.2   c7.467-91.733,56.533-133.333,76.8-147.2C290.561,290.254,264.961,325.454,250.028,359.587z"/>
</g>
<g>
</g>
<g>
</g>
<g>
</g>
<g>
</g>
<g>
</g>
<g>
</g>
<g>
</g>
<g>
</g>
<g>
</g>
<g>
</g>
<g>
</g>
<g>
</g>
<g>
</g>
<g>
</g>
<g>
</g>
</svg>
