<?xml version="1.0" encoding="iso-8859-1"?>
<!-- Generator: Adobe Illustrator 19.0.0, SVG Export Plug-In . SVG Version: 6.00 Build 0)  -->
<svg xmlns="http://www.w3.org/2000/svg" xmlns:xlink="http://www.w3.org/1999/xlink" version="1.1" id="Capa_1" x="0px" y="0px" viewBox="0 0 512 512" style="enable-background:new 0 0 512 512;" xml:space="preserve">
<path style="fill:#FFD07D;" d="M256,122.948L256,122.948c-89.608,0-162.928,73.32-162.928,162.928l0,0h35.176l0,0  c0-70.264,57.488-127.752,127.752-127.752l0,0c70.264,0,127.752,57.488,127.752,127.752l0,0h35.176l0,0  C418.928,196.268,345.608,122.948,256,122.948z"/>
<path style="fill:#FE585D;" d="M256,158.124L256,158.124c-70.264,0-127.752,57.488-127.752,127.752l0,0h35.336l0,0  c0-50.832,41.584-92.416,92.416-92.416s92.416,41.584,92.416,92.416l0,0h35.336l0,0C383.752,215.612,326.264,158.124,256,158.124z"/>
<path style="fill:#36C9AD;" d="M256,193.46c-50.832,0-92.416,41.584-92.416,92.416l0,0h35.176l0,0c0-31.48,25.76-57.24,57.24-57.24  s57.24,25.76,57.24,57.24l0,0h35.176l0,0C348.416,235.044,306.832,193.46,256,193.46z"/>
<rect y="281.852" style="fill:#629FD6;" width="512" height="16"/>
<rect y="327.444" style="fill:#9ABFE2;" width="512" height="16"/>
<rect y="373.052" style="fill:#CDE0F1;" width="512" height="16"/>
<g>
</g>
<g>
</g>
<g>
</g>
<g>
</g>
<g>
</g>
<g>
</g>
<g>
</g>
<g>
</g>
<g>
</g>
<g>
</g>
<g>
</g>
<g>
</g>
<g>
</g>
<g>
</g>
<g>
</g>
</svg>
