<?xml version="1.0" encoding="iso-8859-1"?>
<!-- Generator: Adobe Illustrator 19.0.0, SVG Export Plug-In . SVG Version: 6.00 Build 0)  -->
<svg version="1.1" id="Capa_1" xmlns="http://www.w3.org/2000/svg" xmlns:xlink="http://www.w3.org/1999/xlink" x="0px" y="0px"
	 viewBox="0 0 468.293 468.293" style="enable-background:new 0 0 468.293 468.293;" xml:space="preserve">
<path style="fill:#EBF0F3;" d="M354.921,89.547c0.403-3.249,0.679-6.539,0.679-9.897C355.6,35.661,319.94,0,275.949,0
	c-15.82,0-30.525,4.669-42.92,12.623C221.556,4.68,207.652,0,192.641,0c-39.257,0-71.081,31.824-71.081,71.08
	c0,6.187,0.872,12.156,2.358,17.879c-0.797-0.044-1.551-0.238-2.358-0.238c-23.598,0-42.728,19.13-42.728,42.728
	s19.13,42.728,42.728,42.728h225.172c23.598,0,42.728-19.13,42.728-42.728C389.461,110.657,374.596,93.373,354.921,89.547z"/>
<path style="fill:#44C4A1;" d="M357.013,304.653H111.279c-6.897,0-12.488-5.591-12.488-12.488v-20.166
	c0-6.897,5.591-12.488,12.488-12.488h245.734c6.897,0,12.488,5.591,12.488,12.488v20.166
	C369.501,299.062,363.91,304.653,357.013,304.653z"/>
<rect x="222.845" y="174.18" style="fill:#31978C;" width="22.572" height="85.335"/>
<circle style="fill:#F6C358;" cx="234.146" cy="93.421" r="58.037"/>
<circle style="fill:#FCD462;" cx="234.146" cy="93.421" r="46.136"/>
<path style="fill:#DC8744;" d="M232.294,128.368v-6.154c-7.705-0.786-14.621-3.849-20.741-9.187l6.154-7.334
	c4.72,4.103,9.578,6.545,14.586,7.334V96.67c-6.353-1.516-11.005-3.513-13.955-5.986c-2.95-2.473-4.425-6.141-4.425-11.002
	s1.695-8.837,5.098-11.931c3.403-3.091,7.828-4.775,13.283-5.057v-4.216h5.393v4.298c6.182,0.453,12.027,2.559,17.537,6.326
	l-5.482,7.756c-3.712-2.641-7.725-4.271-12.055-4.892v15.849h0.254c6.463,1.52,11.211,3.571,14.243,6.154
	c3.039,2.587,4.556,6.34,4.556,11.255c0,4.919-1.743,8.926-5.228,12.014c-3.485,3.094-8.089,4.779-13.825,5.06v6.069H232.294z
	 M226.345,73.95c-1.434,1.262-2.147,2.837-2.147,4.72c0,1.883,0.563,3.372,1.688,4.466c1.118,1.098,3.259,2.151,6.408,3.163V71.713
	C229.762,71.94,227.779,72.684,226.345,73.95z M244.095,110.917c1.571-1.29,2.36-2.919,2.36-4.888c0-1.966-0.617-3.527-1.852-4.679
	c-1.242-1.153-3.547-2.233-6.916-3.245v15.173C240.383,112.999,242.517,112.21,244.095,110.917z"/>
<g>
	<path style="fill:#31978C;" d="M173.05,191.381L173.05,191.381c0,27.971,22.675,50.646,50.646,50.646h0
		C223.697,214.056,201.021,191.381,173.05,191.381z"/>
	<path style="fill:#31978C;" d="M295.242,191.381L295.242,191.381c0,27.971-22.675,50.646-50.646,50.646h0
		C244.596,214.056,267.271,191.381,295.242,191.381z"/>
</g>
<g>
	<polygon style="fill:#3EA69B;" points="110.791,304.653 114.085,320.794 261.585,468.293 307.009,468.293 143.368,304.653 	"/>
	<path style="fill:#3EA69B;" d="M141.533,455.315c1.827,7.611,8.633,12.978,16.461,12.978h85.675L118.677,343.301L141.533,455.315z"
		/>
	<polygon style="fill:#3EA69B;" points="357.501,304.653 224.623,304.653 334.983,415.012 	"/>
	<path style="fill:#3EA69B;" d="M326.759,455.315l5.188-25.424L206.708,304.653h-45.424l159.76,159.759
		C323.81,462.134,325.876,458.997,326.759,455.315z"/>
</g>
<g>
	<path style="fill:#44C4A1;" d="M143.368,304.653l163.641,163.64h3.29c4.041,0,7.793-1.45,10.745-3.881l-159.76-159.759H143.368z"/>
	<polygon style="fill:#44C4A1;" points="334.983,415.012 224.623,304.653 206.708,304.653 331.947,429.891 	"/>
	<polygon style="fill:#44C4A1;" points="118.677,343.301 243.67,468.293 261.585,468.293 114.085,320.794 	"/>
</g>
<g>
</g>
<g>
</g>
<g>
</g>
<g>
</g>
<g>
</g>
<g>
</g>
<g>
</g>
<g>
</g>
<g>
</g>
<g>
</g>
<g>
</g>
<g>
</g>
<g>
</g>
<g>
</g>
<g>
</g>
</svg>
