<svg id="Capa_1" enable-background="new 0 0 512 512" height="512" viewBox="0 0 512 512" width="512" xmlns="http://www.w3.org/2000/svg"><g><path d="m466 .5c-69.3 0-126.599 52.5-134.099 120-.601 4.799-.901 9.899-.901 15h15l16.199-15c7.202-50.7 51-90 103.801-90h46v-30z" fill="#8cd96b"/><g id="Hot_Soup_1_"><g><path d="m286 466.5h-60c-107.52 0-196-87.48-196-195v-15h452v15c0 107.52-88.48 195-196 195z" fill="#ffdf40"/></g><path d="m286 466.5c107.52 0 196-87.48 196-195v-15h-226v210z" fill="#ffbe40"/><g><g><path d="m254.42 45.5c0 1.79-.08 3.5-.22 5.14-2.26 25.79-21.31 34.37-27.49 45.2-.21.37-.41.75-.59 1.12l-27.07-12.92c3.98-8.38 9.72-14.11 14.76-19.15.71-.71 1.37-1.38 2.01-2.03 4.44-4.53 7.04-7.73 8.08-12.22.35-1.53.52-3.21.52-5.14 0-8.19-7.88-16.93-10.02-18.82l20.04-22.36c2.02 1.83 19.98 18.56 19.98 41.18z" fill="#ffecd9"/></g><g><path d="m314.42 45.5c0 1.79-.08 3.5-.22 5.14-2.26 25.79-21.31 34.37-27.49 45.2-.21.37-.41.75-.59 1.12l-27.07-12.92c3.98-8.38 9.72-14.11 14.76-19.15.71-.71 1.37-1.38 2.01-2.03 4.44-4.53 7.04-7.73 8.08-12.22.35-1.53.52-3.21.52-5.14 0-8.19-7.88-16.93-10.02-18.82l20.04-22.36c2.02 1.83 19.98 18.56 19.98 41.18z" fill="#ffd9b3"/></g></g><g><path d="m151 120.5v15c0 41.4 33.6 75 75 75h60c41.4 0 75-33.6 75-75 0-5.101.3-10.201 1.199-15z" fill="#c6f243"/></g><g><path d="m256 210.5h30c41.4 0 75-33.6 75-75 0-5.101.3-10.201 1.199-15h-106.199z" fill="#8cd96b"/></g></g><g><path d="m452 511.5h-392c-33.137 0-60-26.863-60-60h512c0 33.137-26.863 60-60 60z" fill="#f2f6ff"/></g><path d="m256 511.5h196c33.137 0 60-26.863 60-60h-256z" fill="#d9e5ff"/></g></svg>