<svg id="Layer_1" enable-background="new 0 0 512 512" height="512" viewBox="0 0 512 512" width="512" xmlns="http://www.w3.org/2000/svg"><g><path d="m512 216v80c0 13.23-10.77 24-24 24h-28.31c-3.39 0-6.4 2.09-7.5 5.21-2.45 6.97-5.32 13.89-8.52 20.56-1.43 2.99-.78 6.61 1.61 9l20.02 20.02c9.405 9.405 9.358 24.592 0 33.95l-56.56 56.56c-9.36 9.36-24.59 9.36-33.95 0l-20.02-20.02c-2.39-2.39-6.01-3.04-9-1.61-6.67 3.2-13.59 6.06-20.56 8.52-3.12 1.1-5.21 4.12-5.21 7.5v28.31c0 13.23-10.77 24-24 24h-80c-13.23 0-24-10.77-24-24v-28.31c0-3.38-2.09-6.4-5.21-7.5-6.97-2.46-13.89-5.32-20.56-8.52-2.99-1.43-6.61-.78-9 1.61l-20.02 20.02c-9.36 9.36-24.59 9.36-33.95 0l-56.56-56.57c-9.351-9.33-9.412-24.528 0-33.94l20.02-20.02c2.39-2.39 3.04-6.01 1.61-9-3.2-6.67-6.07-13.59-8.52-20.56-1.1-3.12-4.11-5.21-7.5-5.21h-28.31c-13.23 0-24-10.77-24-24v-80c0-13.23 10.77-24 24-24h28.31c3.39 0 6.4-2.09 7.5-5.21 2.45-6.97 5.32-13.89 8.52-20.56 1.43-2.99.78-6.61-1.61-9l-20.02-20.02c-9.405-9.405-9.358-24.592 0-33.95l56.56-56.56c9.36-9.36 24.59-9.36 33.95 0l20.02 20.02c2.39 2.39 6.01 3.04 9 1.61 6.67-3.2 13.59-6.06 20.56-8.52 3.12-1.1 5.21-4.12 5.21-7.5v-28.31c0-13.23 10.77-24 24-24h80c13.23 0 24 10.77 24 24v28.31c0 3.38 2.09 6.4 5.21 7.5 6.97 2.46 13.89 5.32 20.56 8.52 2.99 1.43 6.61.79 9-1.61l20.02-20.02c9.36-9.36 24.59-9.36 33.95 0l56.56 56.57c9.351 9.33 9.412 24.528 0 33.94l-20.02 20.02c-2.39 2.39-3.04 6.01-1.61 9 3.2 6.67 6.07 13.59 8.52 20.56 1.1 3.12 4.11 5.21 7.5 5.21h28.31c13.23 0 24 10.77 24 24z" fill="#595965"/><circle cx="256" cy="256" fill="#edebfd" r="128"/><path d="m168 256c0-63.777 46.886-116.804 108-126.434-77.602-12.227-148 47.865-148 126.434 0 78.517 70.346 138.67 148 126.434-61.114-9.63-108-62.657-108-126.434z" fill="#d2d2fc"/><g fill="#44454e"><path d="m450.14 152.37 15.16-15.16c9.414-9.414 9.349-24.612 0-33.94l-56.56-56.57c-9.36-9.36-24.59-9.36-33.95 0l-4.793 4.793c34.606 26.1 62.369 60.78 80.143 100.877z"/><path d="m296 0h-80c36.996 0 72.152 7.861 103.909 21.982-1.03-12.289-11.359-21.982-23.909-21.982z"/><path d="m488 192h-24.065c10.757 41.793 10.759 86.199 0 128h24.065c13.23 0 24-10.77 24-24v-80c0-13.23-10.77-24-24-24z"/><path d="m450.14 359.63c-17.774 40.098-45.537 74.777-80.143 100.877l4.793 4.793c9.36 9.36 24.59 9.36 33.95 0l56.56-56.56c9.369-9.369 9.395-24.555 0-33.95z"/><path d="m216 512h80c12.55 0 22.879-9.693 23.909-21.982-31.757 14.121-66.913 21.982-103.909 21.982z"/></g></g></svg>