<?xml version="1.0" encoding="iso-8859-1"?>
<!-- Generator: Adobe Illustrator 19.0.0, SVG Export Plug-In . SVG Version: 6.00 Build 0)  -->
<svg version="1.1" id="Capa_1" xmlns="http://www.w3.org/2000/svg" xmlns:xlink="http://www.w3.org/1999/xlink" x="0px" y="0px"
	 viewBox="0 0 512 512" style="enable-background:new 0 0 512 512;" xml:space="preserve">
<polygon style="fill:#F9C050;" points="438.4,131.496 376.533,145.363 245.333,184.83 370.133,276.563 409.6,252.03 438.4,246.696 
	"/>
<path style="fill:#FFD15C;" d="M394.667,281.896c4.267-9.6-1.067-21.333-10.667-25.6l-113.067-57.6l30.933-48L230.4,127.23
	c-10.667-3.2-22.4-3.2-33.067,1.067l-67.2,27.733l-44.8-14.933v140.8l216.533,112c9.6,5.333,21.333,2.133,26.667-6.4
	c6.4-10.667,3.2-23.467-7.467-28.8L336,366.163c9.6,5.333,21.333,2.133,26.667-6.4c6.4-10.667,3.2-23.467-7.467-28.8l6.4,3.2
	c9.6,5.333,21.333,2.133,26.667-6.4c6.4-10.667,3.2-23.467-7.467-28.8l-14.933-7.467
	C376.533,297.896,389.333,292.563,394.667,281.896z"/>
<g>
	<path style="fill:#F9C050;" d="M168.533,307.496l-10.667,18.133c-6.4,9.6-19.2,12.8-28.8,7.467l0,0c-9.6-6.4-12.8-19.2-7.467-28.8
		l10.667-18.133c6.4-9.6,19.2-12.8,28.8-7.467l0,0C171.733,285.096,174.933,297.896,168.533,307.496z"/>
	<path style="fill:#F9C050;" d="M211.2,318.163l-23.467,39.467c-6.4,9.6-19.2,12.8-28.8,7.467l0,0c-9.6-6.4-12.8-19.2-7.467-28.8
		l23.467-39.467c6.4-9.6,19.2-12.8,28.8-7.467l0,0C214.4,295.763,217.6,308.563,211.2,318.163z"/>
	<path style="fill:#F9C050;" d="M244.267,344.83l-18.133,30.933c-6.4,9.6-19.2,12.8-28.8,7.467l0,0c-9.6-6.4-12.8-19.2-7.467-28.8
		L208,323.496c6.4-9.6,19.2-12.8,28.8-7.467l0,0C247.467,321.363,250.667,334.163,244.267,344.83z"/>
	<path style="fill:#F9C050;" d="M274.133,375.763l-6.4,10.667c-6.4,9.6-19.2,12.8-28.8,7.467l0,0c-9.6-6.4-12.8-19.2-7.467-28.8
		l6.4-10.667c6.4-9.6,19.2-12.8,28.8-7.467l0,0C277.333,353.363,280.533,366.163,274.133,375.763z"/>
</g>
<g>
	<rect x="424.533" y="115.496" style="fill:#415A6B;" width="87.467" height="192"/>
	<rect y="115.496" style="fill:#415A6B;" width="87.467" height="192"/>
</g>
<path style="fill:#F9C050;" d="M179.2,222.163l8.533-44.8c1.067-6.4,6.4-12.8,12.8-16l57.6-27.733
	c4.267-2.133,8.533-2.133,12.8-2.133L377.6,145.363l-102.4,50.133l-41.6,2.133c0,0-7.467,42.667-46.933,34.133
	C182.4,231.763,178.133,226.43,179.2,222.163z"/>
<g>
</g>
<g>
</g>
<g>
</g>
<g>
</g>
<g>
</g>
<g>
</g>
<g>
</g>
<g>
</g>
<g>
</g>
<g>
</g>
<g>
</g>
<g>
</g>
<g>
</g>
<g>
</g>
<g>
</g>
</svg>
