<svg height="512pt" viewBox="0 -35 512.00003 512" width="512pt" xmlns="http://www.w3.org/2000/svg"><path d="m446.414062 76.699219c-2.292968-3.859375-6.253906-6.429688-10.710937-6.960938-4.457031-.523437-8.910156 1.046875-12.042969 4.261719l-23.773437 24.398438-37.480469-68.054688c-2.320312-4.214844-6.589844-6.996094-11.382812-7.417969-4.792969-.425781-9.484376 1.570313-12.503907 5.316407l-33.679687 41.734374-36.34375-62.773437c-2.582032-4.457031-7.34375-7.203125-12.496094-7.203125s-9.914062 2.746094-12.496094 7.203125l-36.34375 62.773437-33.679687-41.734374c-3.019531-3.746094-7.707031-5.738282-12.503907-5.316407-4.792968.421875-9.058593 3.203125-11.382812 7.417969l-37.480469 68.054688-23.773437-24.398438c-3.132813-3.214844-7.582032-4.78125-12.042969-4.261719-4.457031.527344-8.417969 3.101563-10.710937 6.960938l-45.25 76.109375 233.664062 20.890625 237.664062-20.890625zm0 0" fill="#e69323"/><path d="m458.0625 152.808594-26.851562-45.167969-37.828126 38.820313-45.898437-83.339844-46.570313 57.714844-44.914062-77.574219v109.546875zm0 0" fill="#eaa827"/><path d="m256 152.808594v-152.808594c-5.152344 0-9.914062 2.746094-12.496094 7.203125l-36.34375 62.773437-33.679687-41.734374c-3.019531-3.746094-7.707031-5.738282-12.503907-5.316407-4.792968.421875-9.058593 3.203125-11.382812 7.417969l-37.480469 68.054688-23.773437-24.398438c-3.132813-3.214844-7.582032-4.78125-12.042969-4.261719-4.457031.527344-8.417969 3.101563-10.710937 6.960938l-45.25 76.109375zm0 0" fill="#eaa827"/><path d="m164.515625 63.121094-45.898437 83.339844-37.824219-38.820313-26.855469 45.167969h202.0625v-109.546875l-44.914062 77.574219zm0 0" fill="#efbe2c"/><path d="m492.269531 152.808594h-472.539062c-8.285157 0-15 6.714844-15 15 0 44.996094 27.070312 86.785156 76.222656 117.664062 46.984375 29.523438 109.152344 45.777344 175.046875 45.777344s128.0625-16.257812 175.046875-45.777344c49.152344-30.878906 76.222656-72.667968 76.222656-117.664062 0-8.285156-6.714843-15-15-15zm0 0" fill="#6a675f"/><path d="m48.765625 260.808594-46.800781 109.839844c-5.292969 12.421874.484375 26.785156 12.90625 32.078124 9.300781 3.191407 25.65625.796876 32.078125-12.910156l42.332031-99.347656c-2.824219-1.621094-5.605469-3.28125-8.328125-4.996094-12.09375-7.597656-22.84375-15.859375-32.1875-24.664062zm0 0" fill="#aeaa9c"/><g fill="#969287"><path d="m510.035156 370.648438-46.800781-109.839844c-9.34375 8.804687-20.09375 17.066406-32.1875 24.664062-2.722656 1.714844-5.503906 3.375-8.328125 4.996094l42.332031 99.347656c9.375 18.582032 27.152344 15.019532 32.078125 12.910156 12.421875-5.292968 18.199219-19.65625 12.90625-32.078124zm0 0"/><path d="m19.730469 152.808594c-8.285157 0-15 6.714844-15 15 0 44.996094 27.070312 86.785156 76.222656 117.664062 46.984375 29.523438 109.152344 45.777344 175.046875 45.777344v-178.441406zm0 0"/><path d="m256 268.070312c-13.503906 0-24.449219 10.945313-24.449219 24.449219v124.429688c0 13.503906 10.945313 24.453125 24.449219 24.453125s24.449219-10.949219 24.449219-24.453125v-124.429688c0-13.503906-10.945313-24.449219-24.449219-24.449219zm0 0"/></g><path d="m231.550781 292.519531v124.433594c0 13.503906 10.945313 24.449219 24.449219 24.449219v-173.332032c-13.503906 0-24.449219 10.945313-24.449219 24.449219zm0 0" fill="#aeaa9c"/></svg>