<svg id="Capa_1" enable-background="new 0 0 512 512" height="512" viewBox="0 0 512 512" width="512" xmlns="http://www.w3.org/2000/svg"><g><path d="m396.715 16.508c-.573-3.595-2.679-6.761-5.777-8.688-29.677-18.455-76.472-3.275-108.849 35.311-12.775 15.225-21.553 32.026-26.089 48.39-4.536-16.364-13.314-33.165-26.089-48.39-32.377-38.585-79.172-53.766-108.849-35.31-3.098 1.927-5.203 5.093-5.777 8.688-.57 3.576.438 7.219 2.766 9.993l108.812 129.677c2.328 2.774 5.74 4.399 9.361 4.459h39.552c3.621-.06 7.033-1.685 9.361-4.459l108.812-129.678c2.328-2.774 3.335-6.416 2.766-9.993z" fill="#90e36a"/><path d="m396.715 16.508c-.573-3.595-2.679-6.761-5.777-8.688-29.677-18.455-76.472-3.275-108.849 35.311-12.775 15.225-21.554 32.026-26.09 48.39v69.117h19.776c3.621-.06 7.033-1.685 9.361-4.459l108.813-129.678c2.328-2.774 3.335-6.416 2.766-9.993z" fill="#58b454"/><path d="m233.775 181.465-163.514-43.813c-3.498-.937-6.413-3.343-7.998-6.599-1.592-3.274-1.684-7.075-.251-10.43 13.724-32.14 60.764-46.545 109.417-33.508s82.188 49.031 78.004 83.727c-.437 3.622-2.417 6.868-5.433 8.907-3 2.027-6.727 2.653-10.225 1.716z" fill="#d6fc7e"/><path d="m268 179.748c-3.016-2.039-4.996-5.286-5.433-8.907-4.184-34.696 29.35-70.691 78.004-83.727s95.692 1.368 109.417 33.508c1.432 3.355 1.341 7.157-.251 10.43-1.585 3.256-4.499 5.662-7.998 6.599l-163.514 43.813c-3.498.938-7.225.312-10.225-1.716z" fill="#90e36a"/><path d="m408.925 400.67c-25.928-25.992-62.361-44.98-102.587-53.469-1.019-.215-2.057-.323-3.097-.323h-94.48c-1.041 0-2.079.108-3.097.323-40.227 8.488-76.66 27.477-102.587 53.469-27.528 27.593-42.077 60.902-42.077 96.326h390c0-35.424-14.549-68.733-42.075-96.326z" fill="#ffe4c2"/><path d="m303.24 346.878h-47.24v150.118h195c0-35.424-14.549-68.733-42.075-96.326-25.928-25.992-62.361-44.98-102.587-53.469-1.019-.215-2.057-.323-3.098-.323z" fill="#f2d1a5"/><g><path d="m211.937 263.139-6.12 73.43 50.183 23.431 50.183-23.431-6.12-73.43-44.063-23.139z" fill="#b2705b"/><path d="m306.183 336.569-6.12-73.43-44.063-23.139v120z" fill="#895140"/><path d="m201.052 393.754c-.348 4.181 1.07 8.315 3.91 11.402s6.843 4.844 11.038 4.844h80c4.195 0 8.198-1.757 11.038-4.844s4.258-7.222 3.91-11.402l-4.765-57.185h-100.366z" fill="#c89889"/><path d="m306.183 336.569h-50.183v73.431h40c4.195 0 8.198-1.757 11.038-4.844s4.258-7.222 3.91-11.402z" fill="#b2705b"/><path d="m295.09 203.462c-.648-7.774-7.147-13.754-14.948-13.754h-48.284c-7.801 0-14.3 5.979-14.948 13.754l-4.973 59.677h88.127z" fill="#c89889"/><path d="m280.142 189.708h-24.142v73.431h44.063l-4.973-59.677c-.648-7.774-7.147-13.754-14.948-13.754z" fill="#b2705b"/></g><g><path d="m511 457v40c0 8.284-6.716 15-15 15h-480c-8.284 0-15-6.716-15-15v-40c0-8.284 6.716-15 15-15 22.496 0 33.763 15.028 41.989 26.002 7.616 10.159 11.14 13.998 17.987 13.998 6.846 0 10.37-3.839 17.986-13.998 8.227-10.974 19.494-26.002 41.99-26.002s33.763 15.028 41.99 26.002c7.617 10.159 11.14 13.998 17.987 13.998 6.852 0 10.377-3.839 17.996-13.999 8.228-10.974 19.498-26.001 41.996-26.001 22.493 0 33.758 15.029 41.983 26.004 7.614 10.158 11.136 13.996 17.977 13.996 6.857 0 10.384-3.84 18.007-14.001 8.23-10.973 19.503-25.999 42.005-25.999 22.509 0 33.788 15.024 42.022 25.995 7.63 10.164 11.162 14.005 18.031 14.005s10.4-3.841 18.03-14.005c8.236-10.971 19.515-25.995 42.024-25.995 8.284 0 15 6.716 15 15z" fill="#beebfa"/></g><path d="m511 497v-40c0-8.284-6.716-15-15-15-22.509 0-33.788 15.024-42.023 25.995-7.63 10.164-11.161 14.005-18.03 14.005s-10.401-3.841-18.031-14.005c-8.235-10.971-19.513-25.995-42.022-25.995-22.502 0-33.775 15.026-42.005 25.999-7.623 10.161-11.151 14.001-18.008 14.001-6.841 0-10.364-3.838-17.977-13.996-8.215-10.962-19.464-25.967-41.904-26.002v69.998h240c8.284 0 15-6.716 15-15z" fill="#7ed8f7"/><path d="m286 215c-22.056 0-40-17.944-40-40s17.944-40 40-40 40 17.944 40 40-17.944 40-40 40z" fill="#895140"/><path d="m226 215c-22.056 0-40-17.944-40-40s17.944-40 40-40 40 17.944 40 40-17.944 40-40 40z" fill="#b2705b"/><path d="m256 201.415c6.217-7.052 10-16.298 10-26.415s-3.783-19.364-10-26.415z" fill="#895140"/><path d="m256 175c-22.056 0-40-17.944-40-40s17.944-40 40-40 40 17.944 40 40-17.944 40-40 40z" fill="#c89889"/><path d="m296 135c0-22.056-17.944-40-40-40v80c22.056 0 40-17.944 40-40z" fill="#b2705b"/></g></svg>