<svg id="Capa_1" enable-background="new 0 0 512 512" height="512" viewBox="0 0 512 512" width="512" xmlns="http://www.w3.org/2000/svg"><g><g><path d="m241 294.121v116.144h15l10-65.772-10-50.372z" fill="#607882"/><path d="m256 294.121h15v116.144h-15z" fill="#495959"/></g><g><path d="m74.985 418.588h146.959v30h-146.959z" fill="#607882"/></g><g><path d="m291.915 418.588h145.1v30h-145.1z" fill="#495959"/></g><path d="m256 473.588c-22.091 0-40-17.909-40-40s17.909-40 40-40l20 40z" fill="#ffe377"/><path d="m256 393.588c22.091 0 40 17.909 40 40s-17.909 40-40 40z" fill="#ffb555"/><circle cx="472" cy="433.588" fill="#ffb555" r="40"/><circle cx="40" cy="433.588" fill="#ffe377" r="40"/><path d="m255.988 38.412c-52.963.004-99.133 29.052-123.473 72.079-8.105-1.957-16.559-3.02-25.265-3.019-59.237.003-107.254 48.027-107.25 107.263s48.028 107.253 107.264 107.249l148.736-.01 30-125.844-30-157.718c-.004 0-.008 0-.012 0z" fill="#9de1f7"/><path d="m404.736 107.45c-8.706.001-17.16 1.065-25.265 3.023-24.344-43.02-70.513-72.06-123.471-72.061v283.562l148.751-.01c59.236-.004 107.253-48.028 107.249-107.264s-48.028-107.254-107.264-107.25z" fill="#2fbfef"/></g></svg>