<?xml version="1.0" encoding="iso-8859-1"?>
<!-- Generator: Adobe Illustrator 19.0.0, SVG Export Plug-In . SVG Version: 6.00 Build 0)  -->
<svg version="1.1" id="Capa_1" xmlns="http://www.w3.org/2000/svg" xmlns:xlink="http://www.w3.org/1999/xlink" x="0px" y="0px"
	 viewBox="0 0 512 512" style="enable-background:new 0 0 512 512;" xml:space="preserve">
<path style="fill:#FD9727;" d="M420.114,0H200.888c-2.856,0-5.172,2.315-5.172,5.172v63.345h229.569V5.172
	C425.286,2.315,422.97,0,420.114,0z"/>
<path style="fill:#ED851D;" d="M420.114,0H370.29v68.516h54.996V5.172C425.286,2.315,422.97,0,420.114,0z"/>
<path style="fill:#FDC74F;" d="M425.286,52.542h-229.57l-35.846,76.351V512h292.373c4.91,0,8.89-3.98,8.89-8.89V128.893
	L425.286,52.542z"/>
<g>
	<polygon style="fill:#FCA629;" points="425.286,52.542 195.716,52.542 159.87,128.893 461.132,128.893 	"/>
	<polygon style="fill:#FCA629;" points="425.286,52.542 195.716,52.542 159.87,128.893 461.132,128.893 	"/>
	<polygon style="fill:#FCA629;" points="370.316,52.542 334.47,128.893 334.47,512 389.439,512 389.439,128.893 425.286,52.542 	"/>
</g>
<polygon style="fill:#ED851D;" points="370.316,52.542 334.47,128.893 389.439,128.893 425.286,52.542 "/>
<path style="fill:#FC502A;" d="M452.243,512h-62.804V128.893l35.846-76.351l35.847,76.351V503.11
	C461.132,508.02,457.152,512,452.243,512z"/>
<polygon style="fill:#E60D28;" points="461.132,128.893 425.286,52.542 389.439,128.893 "/>
<path style="fill:#62B240;" d="M167.56,306.715c0.775-0.244,1.227-1.059,1.03-1.847c-1.59-6.353-9.21-32.418-28.737-39.969
	c-18.636-7.206-40.255-6.776-46.85-6.441c-1.03,0.052-1.717,1.076-1.377,2.049C95.383,271.254,116.335,322.851,167.56,306.715z"/>
<polygon style="fill:#FC502A;" points="272.147,52.542 236.3,128.893 299.219,128.893 335.066,52.542 "/>
<rect x="272.169" y="0.17" style="fill:#E60D28;" width="62.893" height="52.37"/>
<g>
	<path style="fill:#FFFFFF;" d="M211.997,169.808h-12.286c-2.317,0-3.3,2.458-3.3,4.704c0,2.598,1.194,4.844,3.3,4.844h6.108v25.626
		c0,4.774-2.317,7.021-6.389,7.021c-5.617,0-5.968-4.282-6.179-7.021c-0.211-2.598-2.598-3.3-5.406-3.3
		c-3.791,0-5.546,0.983-5.546,5.196c0,9.338,7.582,14.673,17.623,14.673c9.197,0,16.85-4.493,16.85-16.569v-31.804
		C216.772,170.932,214.384,169.808,211.997,169.808z"/>
	<path style="fill:#FFFFFF;" d="M255.948,169.808c-2.809,0-5.476,0.983-5.476,3.3v31.875c0,4.774-2.527,7.021-6.74,7.021
		c-4.212,0-6.74-2.247-6.74-7.021v-31.875c0-2.317-2.808-3.3-5.476-3.3c-2.809,0-5.476,0.983-5.476,3.3v31.875
		c0,12.076,7.723,16.569,17.693,16.569c9.899,0,17.693-4.493,17.693-16.569v-31.875
		C261.425,170.791,258.616,169.808,255.948,169.808z"/>
	<path style="fill:#FFFFFF;" d="M276.38,169.808c-2.738,0-5.476,0.983-5.476,3.3v44.652c0,2.248,2.738,3.371,5.476,3.371
		s5.476-1.123,5.476-3.371v-44.652C281.856,170.791,279.118,169.808,276.38,169.808z"/>
	<path style="fill:#FFFFFF;" d="M308.255,179.357c5.968,0,6.178,4.493,6.249,6.319c0.14,2.527,2.528,3.3,5.476,3.3
		c3.721,0,5.476-0.983,5.476-5.196c0-8.916-7.582-13.972-17.622-13.972c-9.197,0-16.85,4.493-16.85,16.569v18.606
		c0,12.076,7.653,16.569,16.85,16.569c10.04,0,17.622-5.336,17.622-14.673c0-4.213-1.755-5.196-5.546-5.196
		c-2.809,0-5.196,0.703-5.406,3.3c-0.211,2.738-0.562,7.021-6.179,7.021c-4.072,0-6.389-2.247-6.389-7.021v-18.606
		C301.936,181.603,304.253,179.357,308.255,179.357z"/>
	<path style="fill:#FFFFFF;" d="M362.879,179.357c2.106,0,3.3-2.247,3.3-4.844c0-2.247-0.983-4.704-3.3-4.704h-24.995
		c-2.387,0-4.774,1.124-4.774,3.371v44.582c0,2.248,2.387,3.371,4.774,3.371h24.995c2.317,0,3.3-2.458,3.3-4.704
		c0-2.598-1.194-4.844-3.3-4.844h-18.816V199.65h10.531c2.317,0,3.3-2.247,3.3-4.143c0-2.247-1.194-4.282-3.3-4.282h-10.531v-11.866
		h18.816V179.357z"/>
</g>
<path style="fill:#754A41;" d="M166.558,344.499c-3.863,0-7.195-2.882-7.656-6.81c-0.07-0.593-6.451-59.625,37.742-86.05
	c3.662-2.189,8.404-0.995,10.592,2.666c2.189,3.66,0.996,8.403-2.665,10.592c-35.299,21.106-30.378,70.535-30.324,71.032
	c0.458,4.228-2.585,8.044-6.81,8.52C167.141,344.482,166.848,344.499,166.558,344.499z"/>
<path style="fill:#FC502A;" d="M252.409,330.232c-19.53-9.501-35.533-10.622-48.441-8.79c-12.088,1.716-24.255,5.783-36.414,5.632
	c-10.182-0.127-20.36-4.195-30.482-5.632c-12.909-1.832-28.911-0.711-48.441,8.79c-60.199,29.286-50.688,149.373,44.875,180.985
	c8.735,2.89,23.846-3.151,36.906-3.151c12.006,0,28.499,6.015,37.277,3.1C303.112,479.475,312.576,359.503,252.409,330.232z"/>
<path style="fill:#E60D28;" d="M252.409,330.232c-19.53-9.501-35.533-10.622-48.441-8.79c-6.303,0.895-12.627,2.426-18.961,3.668
	c3.988,1.342,8.135,3.016,12.465,5.122c59.103,28.753,51.009,145.023-39.748,179.164c4.257-0.731,8.573-1.33,12.686-1.33
	c12.006,0,28.499,6.015,37.278,3.1C303.112,479.475,312.576,359.503,252.409,330.232z"/>
<g>
</g>
<g>
</g>
<g>
</g>
<g>
</g>
<g>
</g>
<g>
</g>
<g>
</g>
<g>
</g>
<g>
</g>
<g>
</g>
<g>
</g>
<g>
</g>
<g>
</g>
<g>
</g>
<g>
</g>
</svg>
