<svg height="512pt" viewBox="-23 0 512 512" width="512pt" xmlns="http://www.w3.org/2000/svg"><path d="m398.285156 373.066406v-115.007812c0-8.953125 7.257813-16.210938 16.210938-16.210938 8.949218 0 16.207031 7.257813 16.207031 16.210938v97.511718" fill="#e5a171"/><path d="m67.914062 373.066406v-115.007812c0-8.953125-7.257812-16.210938-16.210937-16.210938s-16.207031 7.257813-16.207031 16.210938v97.511718" fill="#e5a171"/><path d="m430.171875 197.597656c0-109.132812-88.230469-197.597656-197.074219-197.597656-108.839844 0-197.070312 88.464844-197.070312 197.597656 0 109.128906 88.230468 197.59375 197.070312 197.59375 108.84375 0 197.074219-88.464844 197.074219-197.59375zm0 0" fill="#89c8fd"/><path d="m233.097656 0c-8.265625 0-16.410156.519531-24.410156 1.507812 97.320312 12.058594 172.660156 95.246094 172.660156 196.089844 0 100.839844-75.339844 184.027344-172.660156 196.085938 8 .992187 16.144531 1.507812 24.414062 1.507812 108.839844 0 197.070313-88.464844 197.070313-197.59375 0-109.132812-88.230469-197.597656-197.074219-197.597656zm0 0" fill="#60b6ff"/><g fill="#baeb6c"><path d="m207.484375 76.792969c-30.359375 19.023437-53.125 49.460937-36.050781 83.707031 17.078125 34.242188 55.023437 20.925781 90.125 16.167969 35.105468-4.753907 8.539062 103.683593 29.410156 130.316406 20.871094 26.636719 79.691406-26.632813 74-60.875-8.425781-50.703125-11.382812-68.488281 56.921875-104.636719l.1875-.066406c-23.027344-77.960938-92.71875-135.808594-176.636719-141.007812l-.007812.296874s-7.589844 57.074219-37.949219 76.097657zm0 0"/><path d="m356.574219 43.601562c.011719.011719.023437.019532.039062.03125-.011719-.011718-.027343-.019531-.039062-.03125zm0 0"/><path d="m380.671875 66.652344c.003906.003906.007813.007812.007813.011718 0-.003906-.003907-.007812-.007813-.011718zm0 0"/><path d="m102.179688 287.011719c-9.113282-13.90625 16.128906-46.609375 21.820312-71.34375 5.691406-24.730469-28.460938-22.828125-38.898438-31.390625-10.433593-8.558594-24.664062-45.65625-35.101562-54.21875l-1.667969-1.316406c-7.953125 21.441406-12.304687 44.636718-12.304687 68.855468 0 65.3125 31.609375 123.210938 80.320312 159.1875l.0625-4.140625s7.589844-32.34375-14.230468-65.632812zm0 0"/></g><path d="m422.074219 141.40625c-8.273438-28.015625-22.570313-53.433594-41.394531-74.746094 0 0-.003907-.003906-.007813-.007812-7.359375-8.332032-15.410156-16.035156-24.058594-23.019532-.011719-.011718-.023437-.023437-.039062-.03125-30.789063-24.847656-69.183594-40.605468-111.132813-43.203124l-.007812.296874s-.4375 3.28125-1.519532 8.523438c70.957032 22.5625 124.511719 84.308594 135.398438 159.898438 9.414062-8.515626 23.09375-17.332032 42.578125-27.644532zm0 0" fill="#96d629"/><path d="m271.703125 512-.996094-76.871094c-.023437-2.242187.421875-4.46875 1.300781-6.53125l54.859376-124.519531c3.601562-8.425781 13.460937-12.195313 21.761718-8.320313l1.027344.480469c8.183594 3.820313 11.867188 13.433594 8.335938 21.742188l-18.609376 39.785156c-6.308593 14.847656 10.582032 28.792969 23.964844 19.789063l60.707032-40.835938c4.476562-3.011719 7.164062-8.054688 7.164062-13.449219v-91.453125c0-8.953125 7.257812-16.210937 16.207031-16.210937 10.183594 0 18.445313 8.234375 18.484375 18.417969.09375 26.15625.261719 95.398437.289063 112.203124.003906 4.03125-1.492188 7.910157-4.199219 10.898438l-100.683594 111.136719c-2.703125 2.980469-4.199218 6.859375-4.199218 10.882812v32.855469zm0 0" fill="#f1c395"/><path d="m465.910156 234.023438c-.035156-10.183594-8.300781-18.417969-18.480468-18.417969-8.953126 0-16.210938 7.257812-16.210938 16.210937v91.453125c0 5.394531-2.683594 10.4375-7.160156 13.449219l-3.15625 2.121094c.007812 3.015625.011718 5.523437.015625 7.386718.003906 4.03125-1.492188 7.910157-4.199219 10.898438l-100.683594 111.136719c-2.703125 2.980469-4.199218 6.859375-4.199218 10.882812v32.855469h45.285156v-32.855469c0-4.023437 1.492187-7.902343 4.195312-10.882812l100.6875-111.136719c2.707032-2.988281 4.203125-6.867188 4.195313-10.898438-.023438-16.804687-.191407-86.046874-.289063-112.203124zm0 0" fill="#f1ba84"/><path d="m194.496094 512 .996094-76.871094c.023437-2.242187-.421876-4.46875-1.300782-6.53125l-54.859375-124.519531c-3.601562-8.425781-13.460937-12.195313-21.761719-8.320313l-1.507812.707032c-7.914062 3.691406-11.480469 12.988281-8.0625 21.027344l18.8125 40.273437c6.3125 14.847656-10.578125 28.792969-23.964844 19.789063l-60.707031-40.835938c-4.476563-3.011719-7.160156-8.054688-7.160156-13.449219v-91.453125c0-8.953125-7.257813-16.210937-16.207031-16.210937-10.183594 0-18.449219 8.234375-18.484376 18.417969-.097656 26.15625-.2617182 95.398437-.289062 112.203124-.0078125 4.03125 1.488281 7.910157 4.195312 10.898438l100.6875 111.136719c2.699219 2.980469 4.199219 6.859375 4.199219 10.882812v32.855469zm0 0" fill="#f1c395"/></svg>