<svg id="Capa_1" enable-background="new 0 0 512 512" height="512" viewBox="0 0 512 512" width="512" xmlns="http://www.w3.org/2000/svg"><g><g fill="#8dc5e8"><path d="m264.728 0-8.729 95.987c-8.279 0-14.998-6.719-14.998-14.998v-50.993h-16.878c-8.279 0-14.998-6.719-14.998-14.998s6.719-14.998 14.998-14.998z"/><path d="m83.121 95.393 11.929-11.929c5.857-5.857 5.857-15.353 0-21.21-5.857-5.858-15.353-5.858-21.21 0l-45.075 45.075c-5.857 5.857-5.857 15.353 0 21.21 2.928 2.929 6.767 4.393 10.605 4.393s7.677-1.464 10.605-4.393l11.936-11.936 36.163 36.163c2.928 2.929 6.767 4.393 10.605 4.393s7.677-1.464 10.605-4.393c5.857-5.857 5.857-15.353 0-21.21z"/></g><path d="m302.872 14.998c0 8.279-6.719 14.998-14.998 14.998h-16.878v50.993c0 8.279-6.719 14.998-14.998 14.998v-95.987h31.876c8.279 0 14.998 6.719 14.998 14.998z" fill="#5e9ff6"/><path d="m483.235 107.324-45.075-45.075c-5.857-5.858-15.353-5.858-21.21 0-5.857 5.857-5.857 15.353 0 21.21l11.935 11.935-36.162 36.162c-5.857 5.857-5.857 15.353 0 21.21 2.928 2.929 6.767 4.393 10.605 4.393s7.677-1.464 10.605-4.393l36.162-36.162 11.93 11.93c2.928 2.929 6.767 4.393 10.605 4.393s7.677-1.464 10.605-4.393c5.857-5.857 5.857-15.353 0-21.21z" fill="#5e9ff6"/><path d="m255.999 65.991 65.991 226.143-65.991 219.866c-59.562 0-115.564-23.197-157.688-65.321-42.114-42.114-65.311-98.117-65.311-157.688 0-54.413 19.357-105.866 54.832-146.47 3.34-3.839 6.839-7.579 10.479-11.218 3.469-3.47 7.039-6.819 10.698-10.019 36.945-32.476 82.929-51.563 131.992-54.792 4.969-.331 9.968-.501 14.998-.501z" fill="#fff5f5"/><path d="m478.998 288.99c0 59.572-23.197 115.574-65.311 157.688-42.124 42.125-98.126 65.322-157.688 65.322v-446.009c5.029 0 10.029.17 14.998.5 49.063 3.23 95.047 22.317 131.992 54.792 3.659 3.2 7.229 6.549 10.699 10.019 3.639 3.639 7.139 7.389 10.489 11.228 35.464 40.605 54.821 92.048 54.821 146.46z" fill="#e1ebf0"/><g><g><path d="m255.999 411.014v34.915c-9.639 0-17.458-7.819-17.458-17.458 0-9.638 7.819-17.457 17.458-17.457z"/></g></g><g fill="#ff7c48"><path d="m255.999 411.014v34.915c-9.639 0-17.458-7.819-17.458-17.458 0-9.638 7.819-17.457 17.458-17.457z"/><circle cx="157.373" cy="387.619" r="17.461"/><ellipse cx="116.521" cy="288.994" rx="17.461" ry="17.461" transform="matrix(.383 -.924 .924 .383 -195.065 286.052)"/><circle cx="157.373" cy="190.368" r="17.461"/></g><path d="m255.999 131.482c-8.279 0-14.998 6.719-14.998 14.998v93.217c-21.117 6.429-36.525 26.096-36.525 49.293 0 28.416 23.107 51.533 51.523 51.533l8.729-59.062z" fill="#ff7c48"/><path d="m270.997 239.697v-93.217c0-8.279-6.719-14.998-14.998-14.998v209.041c28.416 0 51.523-23.117 51.523-51.533 0-23.196-15.408-42.864-36.525-49.293z" fill="#ff415b"/><g><g><path d="m273.456 428.471c0 9.639-7.819 17.458-17.458 17.458v-34.915c9.639 0 17.458 7.819 17.458 17.457z"/></g></g><g fill="#ff415b"><path d="m273.456 428.471c0 9.639-7.819 17.458-17.458 17.458v-34.915c9.639 0 17.458 7.819 17.458 17.457z"/><circle cx="354.624" cy="190.368" r="17.461"/><circle cx="395.476" cy="288.994" r="17.461"/><circle cx="354.624" cy="387.619" r="17.461"/></g></g></svg>