<?xml version="1.0" encoding="iso-8859-1"?>
<!-- Generator: Adobe Illustrator 19.0.0, SVG Export Plug-In . SVG Version: 6.00 Build 0)  -->
<svg version="1.1" id="Layer_1" xmlns="http://www.w3.org/2000/svg" xmlns:xlink="http://www.w3.org/1999/xlink" x="0px" y="0px"
	 viewBox="0 0 512 512" style="enable-background:new 0 0 512 512;" xml:space="preserve">
<rect x="243.439" y="114.512" style="fill:#DD852C;" width="25.13" height="56.074"/>
<path style="fill:#FFCA6C;" d="M465.346,367.381H46.65c0-8.076,0.457-16.037,1.348-23.873
	c11.845-104.38,100.462-185.48,208.006-185.48s196.149,81.1,208.006,185.48C464.889,351.344,465.346,359.305,465.346,367.381z"/>
<path style="fill:#E5B05C;" d="M290.669,160.902c-11.279-1.88-22.857-2.874-34.669-2.874c-115.621,0-209.35,93.729-209.35,209.35
	h69.337C115.987,263.569,191.549,177.423,290.669,160.902z"/>
<circle style="fill:#FFCA6C;" cx="256.003" cy="89.28" r="37.797"/>
<g>
	<path style="fill:#E5B05C;" d="M247.899,89.283c0-15.604,9.457-28.996,22.95-34.767c-4.559-1.95-9.578-3.032-14.849-3.032
		c-20.876,0-37.8,16.924-37.8,37.8s16.924,37.8,37.8,37.8c5.272,0,10.291-1.083,14.849-3.032
		C257.356,118.279,247.899,104.886,247.899,89.283z"/>
	<path style="fill:#E5B05C;" d="M465.346,367.381H46.65c0-8.076,0.457-16.037,1.348-23.873h416.011
		C464.889,351.344,465.346,359.305,465.346,367.381z"/>
</g>
<path style="fill:#FFCA6C;" d="M449.52,361.667H62.481C27.974,361.667,0,389.639,0,424.147v36.371h512v-36.371
	C512,389.639,484.026,361.667,449.52,361.667z"/>
<g>
	<path style="fill:#E5B05C;" d="M181.276,361.667H62.481C27.974,361.667,0,389.639,0,424.147v36.371h118.795v-36.371
		C118.795,389.639,146.769,361.667,181.276,361.667z"/>
	<rect y="415.578" style="fill:#E5B05C;" width="511.995" height="17.134"/>
</g>
<g>
</g>
<g>
</g>
<g>
</g>
<g>
</g>
<g>
</g>
<g>
</g>
<g>
</g>
<g>
</g>
<g>
</g>
<g>
</g>
<g>
</g>
<g>
</g>
<g>
</g>
<g>
</g>
<g>
</g>
</svg>
