<?xml version="1.0" encoding="iso-8859-1"?>
<!-- Generator: Adobe Illustrator 21.0.0, SVG Export Plug-In . SVG Version: 6.00 Build 0)  -->
<svg version="1.1" id="Capa_1" xmlns="http://www.w3.org/2000/svg" xmlns:xlink="http://www.w3.org/1999/xlink" x="0px" y="0px"
	 viewBox="0 0 512 512" style="enable-background:new 0 0 512 512;" xml:space="preserve">
<path style="fill:#ECECF1;" d="M361,15v482c0,8.401-6.599,15-15,15H121L0,391V15C0,6.599,6.599,0,15,0h331
	C354.401,0,361,6.599,361,15z"/>
<path style="fill:#E2E2E7;" d="M361,15v482c0,8.401-6.599,15-15,15H181V0h165C354.401,0,361,6.599,361,15z"/>
<path style="fill:#FF7816;" d="M106,151c-24.814,0-45-20.186-45-45s20.186-45,45-45s45,20.186,45,45S130.814,151,106,151z"/>
<path style="fill:#5A5A5A;" d="M301,196c0,8.401-6.599,15-15,15H76c-8.401,0-15-6.599-15-15s6.599-15,15-15h210
	C294.401,181,301,187.599,301,196z"/>
<g>
	<path style="fill:#444444;" d="M286,151h-90c-8.291,0-15-6.709-15-15s6.709-15,15-15h90c8.291,0,15,6.709,15,15
		S294.291,151,286,151z"/>
	<path style="fill:#444444;" d="M286,91h-90c-8.291,0-15-6.709-15-15s6.709-15,15-15h90c8.291,0,15,6.709,15,15S294.291,91,286,91z"
		/>
</g>
<g>
	<path style="fill:#5A5A5A;" d="M106,271H76c-8.291,0-15-6.709-15-15s6.709-15,15-15h30c8.291,0,15,6.709,15,15
		C121,264.291,114.291,271,106,271z"/>
	<path style="fill:#5A5A5A;" d="M106,331H76c-8.291,0-15-6.709-15-15s6.709-15,15-15h30c8.291,0,15,6.709,15,15S114.291,331,106,331
		z"/>
</g>
<path style="fill:#444444;" d="M301,196c0,8.401-6.599,15-15,15H181v-30h105C294.401,181,301,187.599,301,196z"/>
<path style="fill:#D3D3D8;" d="M106,391H0v15c0,3.977,1.58,7.791,4.393,10.604l91.004,91.004C98.209,510.42,102.023,512,106,512h15
	V406C121,397.716,114.284,391,106,391z"/>
<path style="fill:#FDBF00;" d="M512,256v241c0,8.401-6.599,15-15,15H166c-8.401,0-15-6.599-15-15V256c0-4.2,1.8-7.8,4.501-10.499
	l50.999,48.6h249.001l51.999-48.6C510.2,248.2,512,251.8,512,256z"/>
<path style="fill:#FF9F00;" d="M512,256v241c0,8.401-6.599,15-15,15H331V294.101h124.501l51.999-48.6C510.2,248.2,512,251.8,512,256
	z"/>
<path style="fill:#FF4B00;" d="M406,451c-24.814,0-45-20.186-45-45s20.186-45,45-45s45,20.186,45,45S430.814,451,406,451z"/>
<path style="fill:#FFE470;" d="M507.499,245.501l-51.999,78.6C452.799,328.3,448,331,442.899,331H219.101
	c-5.101,0-9.901-2.701-12.601-6.899l-50.999-78.6C158.2,242.8,161.8,241,166,241h331C501.2,241,504.8,242.8,507.499,245.501z"/>
<path style="fill:#FFD400;" d="M507.499,245.501l-51.999,78.6C452.799,328.3,448,331,442.899,331H331v-90h166
	C501.2,241,504.8,242.8,507.499,245.501z"/>
<g>
</g>
<g>
</g>
<g>
</g>
<g>
</g>
<g>
</g>
<g>
</g>
<g>
</g>
<g>
</g>
<g>
</g>
<g>
</g>
<g>
</g>
<g>
</g>
<g>
</g>
<g>
</g>
<g>
</g>
</svg>
