<svg height="512" viewBox="0 0 53 58" width="512" xmlns="http://www.w3.org/2000/svg"><g id="Page-1" fill="none" fill-rule="evenodd"><g id="021---Tick-File" fill-rule="nonzero" transform="translate(-1)"><path id="Shape" d="m6 52v-48c0-2.209139 1.790861-4 4-4h40c2.209139 0 4 1.790861 4 4v40l-12 12h-32c-2.209139 0-4-1.790861-4-4z" fill="#b0d3f0"/><path id="Shape" d="m42 56v-8c0-2.209139 1.790861-4 4-4h8z" fill="#90bae1"/><path id="Shape" d="m26.3 30 1.262-1.753c.6262866-.8699417 1.6691076-1.3396811 2.7356426-1.2322719 1.0665349.1074092 1.9947517.775649 2.435 1.753s.325644 2.1153302-.3006426 2.9852719l-18 25c-.5142263.7139791-1.3159684 1.1662157-2.193 1.237-.078.01-.159.01-.239.01-.7955844-.0001699-1.5585218-.3163519-2.121-.879l-8-8c-.77986975-.7532234-1.09263779-1.8686337-.81809147-2.917522s1.0936812-1.8680231 2.1425695-2.1425695c1.04888829-.2745463 2.16429856.0382217 2.91752197.8180915l5.506 5.505 11.796-16.384z" fill="#955ba5"/><g fill="#285680"><path id="Shape" d="m14 7h-2c-.5522847 0-1-.44771525-1-1s.4477153-1 1-1h2c.5522847 0 1 .44771525 1 1s-.4477153 1-1 1z"/><path id="Shape" d="m48 7h-30c-.5522847 0-1-.44771525-1-1s.4477153-1 1-1h30c.5522847 0 1 .44771525 1 1s-.4477153 1-1 1z"/><path id="Shape" d="m14 13h-2c-.5522847 0-1-.4477153-1-1s.4477153-1 1-1h2c.5522847 0 1 .4477153 1 1s-.4477153 1-1 1z"/><path id="Shape" d="m41 13h-23c-.5522847 0-1-.4477153-1-1s.4477153-1 1-1h23c.5522847 0 1 .4477153 1 1s-.4477153 1-1 1z"/><path id="Shape" d="m14 19h-2c-.5522847 0-1-.4477153-1-1s.4477153-1 1-1h2c.5522847 0 1 .4477153 1 1s-.4477153 1-1 1z"/><path id="Shape" d="m34 19h-16c-.5522847 0-1-.4477153-1-1s.4477153-1 1-1h16c.5522847 0 1 .4477153 1 1s-.4477153 1-1 1z"/></g><path id="Shape" d="m50 35c-.5522847 0-1-.4477153-1-1v-14c0-.5522847.4477153-1 1-1s1 .4477153 1 1v14c0 .5522847-.4477153 1-1 1z" fill="#ecf0f1"/><path id="Shape" d="m50 41c-.5522847 0-1-.4477153-1-1v-2c0-.5522847.4477153-1 1-1s1 .4477153 1 1v2c0 .5522847-.4477153 1-1 1z" fill="#ecf0f1"/></g></g></svg>