<svg id="Layer_1" enable-background="new 0 0 510 510" height="512" viewBox="0 0 510 510" width="512" xmlns="http://www.w3.org/2000/svg"><g><g id="XMLID_2033_"><path id="XMLID_2206_" d="m427.5 420v43c30.2 47.3 0 0 30 47l15-60-15-30z" fill="#e2dff4"/><path id="XMLID_2205_" d="m427.5 90v60l15 15 15-15 15-45-15-45c-16.6 0-30 13.4-30 30z" fill="#dd4e4e"/><path id="XMLID_2176_" d="m457.5 60v90l15 15 15-15c0-7.3 0-52.7 0-60 0-16.6-13.4-30-30-30z" fill="#c21456"/><path id="XMLID_2207_" d="m427.5 225 15 15 30-30c-10.5-10.5-19.5-19.5-30-30l-15 15z" fill="#ecbd2c"/><path id="XMLID_2199_" d="m457.5 225 15 15 15-15c0-10.5 0-19.5 0-30l-15-15-15 15z" fill="#e58f22"/><path id="XMLID_2170_" d="m22.5 0v510h180l15-255-15-255c-10 0-170 0-180 0z" fill="#f9f9f9"/><path id="XMLID_2036_" d="m382.5 98.8-75-23.8-23.8-75c-9.8 0-71.3 0-81.2 0v510h180c0-11.6 0-399.6 0-411.2z" fill="#e2dff4"/><g id="XMLID_2194_"><g><path id="XMLID_621_" d="m322.5 450c-18.8 0-48.3 0-59.3 0-4-8.1-7.5-15-11.5-23.1-10.8 7.2-20.1 13.4-30.9 20.6-5.8-8.7-10.8-16.2-16.6-25 7.2-4.8 51.9-34.6 59.1-39.4 6.5 12.9 12 24 18.5 36.9h40.7z" fill="#c21456"/></g></g><g id="XMLID_2187_"><g><path id="XMLID_160_" d="m202.5 345c-14.5 0-105.4 0-120 0 0-10.5 0-19.5 0-30h120l15 15z" fill="#a7cafc"/></g></g><g id="XMLID_2184_"><g><path id="XMLID_148_" d="m202.5 285c-14.5 0-105.4 0-120 0 0-10.5 0-19.5 0-30h120l15 15z" fill="#a7cafc"/></g></g><g id="XMLID_2181_"><g><path id="XMLID_146_" d="m202.5 225c-14.5 0-105.4 0-120 0 0-10.5 0-19.5 0-30h120l15 15z" fill="#a7cafc"/></g></g><g id="XMLID_2228_"><g><path id="XMLID_347_" d="m322.5 345c-14.5 0-105.4 0-120 0 0-10.5 0-19.5 0-30h120z" fill="#8493fb"/></g></g><g id="XMLID_2173_"><g><path id="XMLID_342_" d="m322.5 285c-14.5 0-105.4 0-120 0 0-10.5 0-19.5 0-30h120z" fill="#8493fb"/></g></g><g id="XMLID_1996_"><g><path id="XMLID_338_" d="m322.5 225c-14.5 0-105.4 0-120 0 0-10.5 0-19.5 0-30h120z" fill="#8493fb"/></g></g><g id="XMLID_2179_"><path id="XMLID_2180_" d="m202.5 165c-14.5 0-105.4 0-120 0 0-10.5 0-19.5 0-30h120z" fill="#bfe85f"/></g><g id="XMLID_2147_"><g><path id="XMLID_439_" d="m202.5 105c-14.5 0-105.4 0-120 0 0-10.5 0-19.5 0-30h120z" fill="#8493fb"/></g></g><path id="XMLID_2154_" d="m382.5 98.8c-11.9-12-86.8-86.8-98.8-98.8v98.8z" fill="#bebcdd"/><path id="XMLID_2201_" d="m427.5 195h30l15-22.5-15-22.5c-10.5 0-19.5 0-30 0z" fill="#f4d844"/><path id="XMLID_5_" d="m487.5 150c-10.5 0-19.5 0-30 0v45h30c0-15 0-30 0-45z" fill="#ecbd2c"/><path id="XMLID_2197_" d="m457.5 510c30.2-47.3 0 0 30-47 0-13.7 0-29.3 0-43h-30z" fill="#bebcdd"/></g><path id="XMLID_2_" d="m427.5 420 15 15 30-30c-10.5-10.5-19.5-19.5-30-30l-15 15z" fill="#ecbd2c"/><path id="XMLID_1_" d="m457.5 420 15 15 15-15c0-10.5 0-19.5 0-30l-15-15-15 15z" fill="#e58f22"/><path id="XMLID_2175_" d="m457.5 390h30c0-4.7 0-160.3 0-165-10.5 0-19.5 0-30 0z" fill="#ecbd2c"/><path id="XMLID_2203_" d="m427.5 390h30c0-4.7 0-160.3 0-165-10.5 0-19.5 0-30 0z" fill="#f4d844"/><path id="XMLID_4_" d="m427.5 420v43c30.2 47.3 0 0 30 47l15-60-15-30z" fill="#e2dff4"/><path id="XMLID_3_" d="m457.5 510c30.2-47.3 0 0 30-47 0-13.7 0-29.3 0-43h-30z" fill="#bebcdd"/></g></svg>