<?xml version="1.0" encoding="iso-8859-1"?>
<!-- Generator: Adobe Illustrator 19.0.0, SVG Export Plug-In . SVG Version: 6.00 Build 0)  -->
<svg version="1.1" id="Capa_1" xmlns="http://www.w3.org/2000/svg" xmlns:xlink="http://www.w3.org/1999/xlink" x="0px" y="0px"
	 viewBox="0 0 512 512" style="enable-background:new 0 0 512 512;" xml:space="preserve">
<path style="fill:#9DDA74;" d="M289.764,139.077l-8.307-95.068h-50.915l-8.307,95.068c-1.33,15.223-7.02,29.74-16.389,41.812l0,0
	c-10.819,13.94-16.691,31.084-16.691,48.73v186.323c0,12.473,10.111,22.584,22.584,22.584h88.52
	c12.473,0,22.584-10.111,22.584-22.584V229.619c0-17.646-5.872-34.79-16.691-48.73l0,0
	C296.785,168.816,291.094,154.3,289.764,139.077z"/>
<path style="fill:#92CC64;" d="M306.154,180.889L306.154,180.889c-9.369-12.072-15.059-26.589-16.389-41.812l-8.307-95.068H256
	v111.446c0,13.87,2.949,27.572,8.602,40.238c4.846,10.857,9.931,24.53,9.931,33.927v186.323c0,12.473-10.111,22.584-22.584,22.584
	h48.311c12.473,0,22.584-10.111,22.584-22.584V229.619C322.844,211.973,316.972,194.829,306.154,180.889z"/>
<polygon style="fill:#FFDC6C;" points="223.902,120.008 288.098,120.008 285.801,93.722 226.199,93.722 "/>
<path style="fill:#48516F;" d="M287.374,56.242h-62.749c-3.926,0-7.108-3.182-7.108-7.108V38.882c0-3.926,3.182-7.108,7.108-7.108
	h62.749c3.926,0,7.108,3.182,7.108,7.108v10.252C294.482,53.06,291.3,56.242,287.374,56.242z"/>
<polygon style="fill:#F7CE5E;" points="285.801,93.722 256,93.722 256,120.008 288.098,120.008 "/>
<path style="fill:#323C5A;" d="M287.375,31.774h-41.203v24.468h41.203c3.926,0,7.108-3.182,7.108-7.108V38.882
	C294.482,34.957,291.3,31.774,287.375,31.774z"/>
<path style="fill:#9DDA74;" d="M125.454,139.077l-8.307-95.068H66.232l-8.307,95.068c-1.33,15.223-7.02,29.74-16.389,41.812l0,0
	c-10.819,13.94-16.691,31.084-16.691,48.73v186.323c0,12.473,10.111,22.584,22.584,22.584h88.52
	c12.473,0,22.584-10.111,22.584-22.584V229.619c0-17.646-5.872-34.79-16.691-48.73l0,0
	C132.474,168.816,126.784,154.3,125.454,139.077z"/>
<path style="fill:#92CC64;" d="M141.843,180.889L141.843,180.889c-9.369-12.072-15.059-26.589-16.389-41.812l-8.307-95.068H91.69
	v111.446c0,13.87,2.949,27.572,8.602,40.238c4.846,10.857,9.931,24.53,9.931,33.927v186.323c0,12.473-10.111,22.584-22.584,22.584
	h48.311c12.473,0,22.584-10.111,22.584-22.584V229.619C158.534,211.973,152.662,194.829,141.843,180.889z"/>
<polygon style="fill:#FFDC6C;" points="59.591,120.008 123.788,120.008 121.491,93.722 61.888,93.722 "/>
<path style="fill:#48516F;" d="M123.064,56.242H60.315c-3.926,0-7.108-3.182-7.108-7.108V38.882c0-3.926,3.182-7.108,7.108-7.108
	h62.749c3.926,0,7.108,3.182,7.108,7.108v10.252C130.172,53.06,126.99,56.242,123.064,56.242z"/>
<polygon style="fill:#F7CE5E;" points="121.491,93.722 91.69,93.722 91.69,120.008 123.788,120.008 "/>
<path style="fill:#323C5A;" d="M123.064,31.774H81.861v24.468h41.203c3.926,0,7.108-3.182,7.108-7.108V38.882
	C130.172,34.957,126.99,31.774,123.064,31.774z"/>
<path style="fill:#9DDA74;" d="M454.075,139.077l-8.307-95.068h-50.915l-8.307,95.068c-1.33,15.223-7.02,29.74-16.389,41.812l0,0
	c-10.819,13.94-16.691,31.084-16.691,48.73v186.323c0,12.473,10.111,22.584,22.584,22.584h88.52
	c12.473,0,22.584-10.111,22.584-22.584V229.619c0-17.646-5.872-34.79-16.691-48.73l0,0
	C461.095,168.816,455.405,154.3,454.075,139.077z"/>
<path style="fill:#92CC64;" d="M470.464,180.889L470.464,180.889c-9.369-12.072-15.059-26.589-16.389-41.812l-8.307-95.068H420.31
	v111.446c0,13.87,2.949,27.572,8.602,40.238c4.845,10.857,9.931,24.53,9.931,33.927v186.323c0,12.473-10.111,22.584-22.584,22.584
	h48.311c12.473,0,22.584-10.111,22.584-22.584V229.619C487.155,211.973,481.282,194.829,470.464,180.889z"/>
<polygon style="fill:#FFDC6C;" points="388.212,120.008 452.409,120.008 450.112,93.722 390.509,93.722 "/>
<path style="fill:#48516F;" d="M451.685,56.242h-62.749c-3.926,0-7.108-3.182-7.108-7.108V38.882c0-3.926,3.182-7.108,7.108-7.108
	h62.749c3.926,0,7.108,3.182,7.108,7.108v10.252C458.793,53.06,455.611,56.242,451.685,56.242z"/>
<polygon style="fill:#F7CE5E;" points="450.112,93.722 420.31,93.722 420.31,120.008 452.408,120.008 "/>
<path style="fill:#323C5A;" d="M451.685,31.774h-41.203v24.468h41.203c3.926,0,7.108-3.182,7.108-7.108V38.882
	C458.793,34.957,455.611,31.774,451.685,31.774z"/>
<path style="fill:#A36A58;" d="M499.346,220.082H12.654C5.666,220.082,0,225.748,0,232.737v226.84
	c0,11.404,9.245,20.649,20.649,20.649H491.35c11.404,0,20.649-9.245,20.649-20.649v-226.84
	C512,225.748,506.335,220.082,499.346,220.082z M353.93,285.242c0,7.483-6.066,13.548-13.548,13.548H171.619
	c-7.483,0-13.549-6.066-13.549-13.548v-14.163c0-7.483,6.066-13.548,13.549-13.548h168.763c7.483,0,13.548,6.066,13.548,13.548
	L353.93,285.242L353.93,285.242z"/>
<path style="fill:#93594A;" d="M499.346,220.082h-48.311c6.989,0,12.654,5.666,12.654,12.654v226.84
	c0,11.404-9.245,20.649-20.649,20.649h48.311c11.404,0,20.649-9.245,20.649-20.649v-226.84
	C512,225.748,506.335,220.082,499.346,220.082z"/>
<g>
</g>
<g>
</g>
<g>
</g>
<g>
</g>
<g>
</g>
<g>
</g>
<g>
</g>
<g>
</g>
<g>
</g>
<g>
</g>
<g>
</g>
<g>
</g>
<g>
</g>
<g>
</g>
<g>
</g>
</svg>
