<?xml version="1.0" encoding="iso-8859-1"?>
<!-- Generator: Adobe Illustrator 19.0.0, SVG Export Plug-In . SVG Version: 6.00 Build 0)  -->
<svg xmlns="http://www.w3.org/2000/svg" xmlns:xlink="http://www.w3.org/1999/xlink" version="1.1" id="Capa_1" x="0px" y="0px" viewBox="0 0 409.6 409.6" style="enable-background:new 0 0 409.6 409.6;" xml:space="preserve">
<path style="fill:#DC8744;" d="M246.784,4.096C233.472,1.536,219.136,0,204.8,0C91.648,0,0,91.648,0,204.8s91.648,204.8,204.8,204.8  s204.8-91.648,204.8-204.8c0-12.8-1.024-25.6-3.584-37.888l-251.904,91.136L246.784,4.096z"/>
<path style="fill:#FCD462;" d="M232.96,45.568c-9.216-1.536-18.432-2.56-28.16-2.56c-89.088,0-161.792,72.192-161.792,161.792  S115.712,366.592,204.8,366.592S366.592,293.888,366.592,204.8c0-7.168-0.512-14.848-1.536-22.016l-203.264,71.168L232.96,45.568z"/>
<path style="fill:#F6C358;" d="M259.072,7.168c0,0,99.84,7.168,146.944,150.528l-233.984,83.968L259.072,7.168z"/>
<path style="fill:#FCD462;" d="M172.032,241.664l233.984-83.968c-13.312-40.448-30.72-70.144-49.152-92.16L172.032,241.664z"/>
<path style="fill:#DC8744;" d="M243.712,48.128L258.56,7.68c0,0,99.84,7.168,146.944,150.528l-43.008,15.36  C363.008,173.056,339.968,69.632,243.712,48.128z"/>
<ellipse style="fill:#E56353;" cx="217.098" cy="181.643" rx="13.824" ry="13.824"/>
<ellipse style="fill:#CE412D;" cx="271.707" cy="180.283" rx="13.824" ry="13.824"/>
<g>
	<ellipse style="fill:#E56353;" cx="249.831" cy="105.399" rx="13.824" ry="13.824"/>
	<ellipse style="fill:#E56353;" cx="313.267" cy="137.871" rx="13.824" ry="13.824"/>
</g>
<g>
	<path style="fill:#DC8744;" d="M228.864,211.456c-5.632,9.728-19.968,11.776-32.256,5.12c-2.56-1.536-3.072-4.608-2.048-6.656   c1.536-2.048,4.096-3.072,6.656-1.536c7.68,4.096,16.384,3.584,19.456-1.536c1.536-2.048,4.096-3.072,6.656-1.536   C229.376,206.336,229.888,209.408,228.864,211.456z"/>
	<path style="fill:#DC8744;" d="M217.6,152.576c3.584-10.752,17.408-15.872,30.72-11.264c2.56,1.024,4.096,3.584,3.072,6.144   s-3.584,4.096-6.144,3.072c-8.192-2.56-16.896-0.512-18.432,5.12c-1.024,2.56-3.584,4.096-6.144,3.072   C218.112,157.696,216.576,154.624,217.6,152.576z"/>
	<path style="fill:#DC8744;" d="M328.704,171.52c-8.704,7.168-23.04,4.608-32.256-6.144c-1.536-2.048-1.536-5.12,0.512-6.656   s5.12-1.536,6.656,0.512c5.632,6.656,14.336,8.704,18.432,5.12c2.048-1.536,5.12-1.536,6.656,0.512   C330.752,166.912,330.752,169.984,328.704,171.52z"/>
	<path style="fill:#DC8744;" d="M273.408,96.768c6.144-9.728,20.48-11.264,32.768-3.584c2.048,1.536,3.072,4.608,1.536,6.656   c-1.536,2.048-4.608,3.072-6.656,1.536c-7.168-4.608-16.384-4.096-19.456,0.512c-1.536,2.048-4.608,3.072-6.656,1.536   C272.896,101.888,271.872,99.328,273.408,96.768z"/>
</g>
<ellipse style="fill:#E56353;" cx="74.875" cy="181.748" rx="13.824" ry="13.824"/>
<ellipse style="fill:#CE412D;" cx="159.571" cy="129.596" rx="13.824" ry="13.824"/>
<g>
	<ellipse style="fill:#E56353;" cx="102.084" cy="143.467" rx="13.824" ry="13.824"/>
	<ellipse style="fill:#E56353;" cx="189.35" cy="74.762" rx="13.824" ry="13.824"/>
</g>
<g>
	<path style="fill:#DC8744;" d="M103.424,208.896c1.024,11.264-9.216,21.504-23.552,23.04c-2.56,0.512-5.12-1.536-5.12-4.096   c-0.512-2.56,1.536-5.12,4.096-5.12c8.704-1.024,15.36-6.656,14.848-12.288c-0.512-2.56,1.536-5.12,4.096-5.12   C100.864,204.288,103.424,205.824,103.424,208.896z"/>
	<path style="fill:#DC8744;" d="M134.144,192.512c-3.072-10.752,5.12-23.04,18.432-27.136c2.56-1.024,5.12,0.512,6.144,3.072   s-0.512,5.12-3.072,6.144c-8.192,2.56-13.824,9.216-12.288,14.848c1.024,2.56-0.512,5.12-3.072,6.144   S134.656,195.072,134.144,192.512z"/>
	<path style="fill:#DC8744;" d="M117.76,104.96c-0.512-11.264,10.24-20.992,24.576-22.016c2.56,0,5.12,2.048,5.12,4.608   c0,2.56-2.048,5.12-4.608,5.12c-8.704,0.512-15.872,6.144-15.36,11.776c0,2.56-2.048,5.12-4.608,5.12   C120.32,109.568,117.76,107.52,117.76,104.96z"/>
</g>
<ellipse style="fill:#CE412D;" cx="132.594" cy="252.925" rx="13.824" ry="13.824"/>
<g>
	<ellipse style="fill:#E56353;" cx="146.918" cy="315.453" rx="13.824" ry="13.824"/>
	<ellipse style="fill:#E56353;" cx="225.309" cy="259.106" rx="13.824" ry="13.824"/>
</g>
<ellipse style="fill:#CE412D;" cx="204.792" cy="319.515" rx="13.824" ry="13.824"/>
<g>
	<path style="fill:#DC8744;" d="M107.52,296.448c-10.24,5.12-23.552-0.512-30.208-13.312c-1.024-2.56-0.512-5.12,2.048-6.656   c2.56-1.024,5.12-0.512,6.656,2.048c4.096,7.68,11.776,11.776,16.896,9.216c2.56-1.024,5.12-0.512,6.656,2.048   C110.592,291.84,109.568,294.912,107.52,296.448z"/>
	<path style="fill:#DC8744;" d="M160.256,270.336c8.704-7.168,23.04-4.096,32.256,7.168c1.536,2.048,1.536,5.12-0.512,6.656   c-2.048,1.536-5.12,1.536-6.656-0.512c-5.632-6.656-13.824-9.216-18.432-5.632c-2.048,1.536-5.12,1.536-6.656-0.512   C157.696,274.944,158.208,271.872,160.256,270.336z"/>
	<path style="fill:#DC8744;" d="M249.856,288.256c10.24-4.608,23.552,1.536,29.696,14.336c1.024,2.56,0,5.12-2.048,6.656   c-2.56,1.024-5.12,0-6.656-2.048c-3.584-7.68-11.264-12.288-16.896-9.728c-2.56,1.024-5.12,0-6.656-2.048   C246.272,292.352,247.296,289.28,249.856,288.256z"/>
</g>
<g>
	<ellipse style="fill:#E56353;" cx="330.281" cy="226.349" rx="13.824" ry="13.824"/>
	<ellipse style="fill:#E56353;" cx="300.021" cy="272.385" rx="13.824" ry="13.824"/>
</g>
<path style="fill:#DC8744;" d="M258.048,229.376c10.24-4.608,23.552,1.536,29.696,14.336c1.024,2.56,0,5.12-2.048,6.656  c-2.56,1.024-5.12,0-6.656-2.048c-3.584-7.68-11.264-12.288-16.896-9.728c-2.56,1.024-5.12,0-6.656-2.048  C254.976,233.472,256,230.912,258.048,229.376z"/>
<g>
</g>
<g>
</g>
<g>
</g>
<g>
</g>
<g>
</g>
<g>
</g>
<g>
</g>
<g>
</g>
<g>
</g>
<g>
</g>
<g>
</g>
<g>
</g>
<g>
</g>
<g>
</g>
<g>
</g>
</svg>
