<svg id="Capa_1" enable-background="new 0 0 512 512" height="512" viewBox="0 0 512 512" width="512" xmlns="http://www.w3.org/2000/svg"><path d="m481 122v390h-390v-75l315-315z" fill="#76e2f8"/><path d="m481 122v390h-195v-270l120-120z" fill="#4bb9ec"/><path d="m421 62v285l-79.5 25.5-25.5 79.5h-285v-390z" fill="#f2ebee"/><path d="m421 62v285l-79.5 25.5-25.5 79.5h-90v-390z" fill="#e8dde3"/><path d="m316 347v105l105-105z" fill="#e2d0da"/><g fill="#6c6fa9"><path d="m121 182h210v30h-210z"/><path d="m121 242h180v30h-180z"/><path d="m121 302h105v30h-105z"/></g><path d="m181 0v122h90v-122z" fill="#ffda2d"/><path d="m226 0h45v122h-45z" fill="#fdbf00"/><path d="m226 242h75v30h-75z" fill="#574f7f"/><path d="m226 182h105v30h-105z" fill="#574f7f"/></svg>