<svg height="512" viewBox="0 0 128 128" width="512" xmlns="http://www.w3.org/2000/svg"><g><g><path d="m55.052 13.933v27.48a5.323 5.323 0 0 1 -4.793 5.287 6.726 6.726 0 0 0 -6.027 6.5l-.96 29.26a4.658 4.658 0 0 1 -3.5 1.84 4.657 4.657 0 0 1 -3.49-1.84l-.96-29.26a6.726 6.726 0 0 0 -6.022-6.5 5.324 5.324 0 0 1 -4.8-5.287v-27.48a5 5 0 0 1 5-5h20.55a5 5 0 0 1 5.002 5z" fill="#d1d5e1"/><path d="m39.777 119.067a7.5 7.5 0 0 1 -7.5-7.5v-26.545a7.5 7.5 0 0 1 15 0v26.545a7.5 7.5 0 0 1 -7.5 7.5z" fill="#cf4529"/><g fill="#b8bfcc"><path d="m31.6 39.681a1.75 1.75 0 0 1 -1.75-1.75v-20.1a1.75 1.75 0 1 1 3.5 0v20.1a1.751 1.751 0 0 1 -1.75 1.75z"/><path d="m39.777 39.681a1.75 1.75 0 0 1 -1.75-1.75v-20.1a1.75 1.75 0 0 1 3.5 0v20.1a1.75 1.75 0 0 1 -1.75 1.75z"/><path d="m47.959 39.681a1.75 1.75 0 0 1 -1.75-1.75v-20.1a1.75 1.75 0 0 1 3.5 0v20.1a1.75 1.75 0 0 1 -1.75 1.75z"/></g></g><g><path d="m103.5 23.245c0 12.672-16.63 29.945-16.63 29.945s-16.63-17.273-16.63-29.945c0-10.006 7.446-15.945 16.63-15.945s16.63 5.939 16.63 15.945z" fill="#c4cad9"/><path d="m94.367 23.245c0 12.672-7.5 29.945-7.5 29.945s-7.5-17.273-7.5-29.945 3.358-15.945 7.5-15.945 7.5 3.273 7.5 15.945z" fill="#e0e7f4"/><path d="m91.323 48.064a11.87 11.87 0 0 1 -8.91 0l.96 34.389a4.239 4.239 0 0 0 6.99 0z" fill="#d1d5e1"/><path d="m86.867 119.067a7.5 7.5 0 0 1 -7.5-7.5v-26.545a7.5 7.5 0 0 1 15 0v26.545a7.5 7.5 0 0 1 -7.5 7.5z" fill="#cf4529"/></g></g></svg>