<svg id="Capa_1" enable-background="new 0 0 512 512" height="512" viewBox="0 0 512 512" width="512" xmlns="http://www.w3.org/2000/svg"><g><g><path d="m277.163 48.81-2.271-40.902c-.213-3.843 3.813-6.476 7.248-4.739l28.829 14.576c3.435 1.737 3.702 6.541.48 8.647z" fill="#dd636e"/></g><path d="m310.969 17.745-10.208-5.161-24.713 16.159 1.114 20.067 34.287-22.418c3.222-2.107 2.955-6.911-.48-8.647z" fill="#da4a54"/><g><path d="m226.585 236.101 73.663-145.693c9.729-19.242 2.017-42.728-17.225-52.457-19.242-9.729-42.728-2.017-52.457 17.225l-10.669 21.101-1.731 18.826-14.299 12.88-46.964 92.888z" fill="#dd636e"/></g><path d="m293.994 46.189c-.69 3.173-1.788 6.311-3.321 9.343l-73.663 145.693-48.012-24.275-12.093 23.919 69.682 35.231 73.663-145.693c7.585-15.004 4.565-32.587-6.256-44.218z" fill="#da4a54"/><g><path d="m219.898 76.277 13.078 6.612c2.763 1.397 5.911 1.918 8.953 1.34 5.431-1.031 11.23-.347 16.545 2.34s9.304 6.952 11.693 11.937c1.338 2.792 3.624 5.019 6.387 6.416l13.027 6.587-16.03 31.705-13.027-6.587c-2.763-1.397-5.911-1.918-8.953-1.34-5.431 1.031-11.23.347-16.545-2.34s-9.304-6.952-11.693-11.937c-1.338-2.792-3.624-5.019-6.387-6.416l-13.078-6.612z" fill="#f4ddb1"/></g><path d="m270.167 98.506c-.192-.401-.412-.79-.625-1.181l-19.293 38.159c.441-.061.884-.114 1.321-.197 3.042-.578 6.19-.057 8.953 1.34l13.027 6.587 16.03-31.705-13.027-6.586c-2.763-1.398-5.048-3.625-6.386-6.417z" fill="#efcb84"/><g><path d="m140.723 98.073v-19.286l-3-4.912h-40.136l-3 4.912v19.286c0 4.147-2.177 7.954-5.68 10.174-15.044 9.534-25.033 26.325-25.033 45.454v84.302c0 8.805 7.138 15.942 15.942 15.942h75.677c8.805 0 15.942-7.138 15.942-15.942v-84.302c0-19.128-9.989-35.92-25.033-45.454-3.502-2.22-5.679-6.026-5.679-10.174z" fill="#b3e59f"/></g><g><path d="m146.403 108.247c-3.503-2.22-5.68-6.027-5.68-10.174v-19.286l-3-4.912h-21.548v24.198c0 4.147 2.177 7.954 5.68 10.174 15.044 9.534 25.033 26.325 25.033 45.454v84.302c0 8.805-7.138 15.942-15.942 15.942h24.548c8.805 0 15.942-7.138 15.942-15.942v-84.302c0-19.128-9.989-35.92-25.033-45.454z" fill="#95d6a4"/></g><g><path d="m94.587 20.708h46.136v58.079h-46.136z" fill="#a298a5"/></g><g><path d="m116.174 20.708h24.548v58.079h-24.548z" fill="#8b818e"/></g><g><path d="m137.167 33.381h-39.024c-4.418 0-8-3.582-8-8v-17.288c0-4.418 3.582-8 8-8h39.023c4.418 0 8 3.582 8 8v17.288c.001 4.418-3.581 8-7.999 8z" fill="#756e78"/></g><g><path d="m137.102.093h-4.422v12.737c0 4.454-3.61 8.064-8.064 8.064h-34.473v4.422c0 4.454 3.61 8.064 8.064 8.064h38.895c4.454 0 8.064-3.611 8.064-8.064v-17.159c.001-4.453-3.61-8.064-8.064-8.064z" fill="#665e66"/></g><g><g><path d="m424.973 91.701-248.991 248.991c-10.42 10.42-22.855 18.604-36.547 24.051l-20.963 8.341c-20.314 8.083-40.445-12.048-32.362-32.362l8.341-20.963c5.448-13.691 13.632-26.127 24.051-36.547l139.408-139.407 23.798-11.242 9.436-21.992 76.349-76.349c10.42-10.42 22.855-18.604 36.547-24.051l20.963-8.341c20.314-8.083 40.445 12.048 32.362 32.362l-8.341 20.963c-5.448 13.691-13.632 26.127-24.051 36.546z" fill="#ffd064"/></g><g><path d="m425.003 1.829-.511.203c3.995 6.271 5.281 14.357 2.05 22.477l-8.341 20.963c-5.448 13.691-13.632 26.127-24.051 36.547l-248.992 248.992c-10.42 10.42-22.855 18.604-36.547 24.051l-20.451 8.138c5.999 9.417 18.119 14.737 30.312 9.885l20.963-8.341c13.691-5.448 26.127-13.632 36.547-24.051l248.991-248.991c10.42-10.42 18.604-22.856 24.051-36.547l8.341-20.963c8.083-20.314-12.048-40.445-32.362-32.363z" fill="#ffc250"/></g><g><path d="m320.969 80.746c16.536 13.893 35.075 18.563 43.436 10.202s3.691-26.901-10.202-43.436z" fill="#ffc250"/></g><g><path d="m257.91 143.805c16.536 13.893 35.075 18.563 43.436 10.202s3.691-26.901-10.202-43.436z" fill="#ffc250"/></g><g><path d="m342.758 58.958c7.793 13.311 9.332 26.279 2.723 32.887-.643.643-1.354 1.2-2.112 1.691 8.741 2.662 16.433 2.016 21.036-2.587 8.361-8.361 3.691-26.901-10.202-43.436z" fill="#ebb044"/></g><g><path d="m279.699 122.016c7.793 13.311 9.332 26.279 2.723 32.887-.643.643-1.354 1.2-2.112 1.691 8.741 2.662 16.433 2.016 21.036-2.587 8.361-8.361 3.691-26.901-10.202-43.436z" fill="#ebb044"/></g></g><g><path d="m290.066 512h-229.261c-4.418 0-8-3.582-8-8v-343.096c0-4.418 3.582-8 8-8h34.075l14.88 7.596 15.361-7.596h93.637l15.596 7.596 14.644-7.596h41.067v359.096z" fill="#aa8080"/></g><g><path d="m339.095 489.38 30.635 20.87c1.673 1.14 3.651 1.75 5.675 1.75h5.103c1.67 0 3.024-1.354 3.024-3.024v-348.008c0-4.454-3.61-8.064-8.064-8.064h-88.756v359.096h8.127c2.025 0 4.002-.61 5.675-1.75l30.635-20.87c2.397-1.633 5.549-1.633 7.946 0z" fill="#9d6b6b"/></g><g><path d="m288.163 491.304h-231.753c-1.273 0-2.484-.246-3.605-.676v13.308c0 4.454 3.61 8.064 8.064 8.064h229.196v-20.885c-.624.121-1.26.189-1.902.189z" fill="#9d6b6b"/></g><g><path d="m375.468 152.904h-12.632v325.228c0 .81-.906 1.289-1.576.833l-22.146-15.088c-2.406-1.639-5.573-1.632-7.972.018l-37.267 25.634c-1.681 1.156-3.672 1.775-5.712 1.775h-1.451v20.696h8.127c2.025 0 4.002-.61 5.676-1.75l30.634-20.87c2.397-1.633 5.549-1.633 7.946 0l30.635 20.871c1.673 1.14 3.651 1.75 5.675 1.75h5.103c1.67 0 3.024-1.354 3.024-3.024v-348.009c0-4.454-3.61-8.064-8.064-8.064z" fill="#8b5e5e"/></g><g><path d="m375.468 152.904h-40.346v309.749l4.42 13.784-4.42 11.718c1.387 0 2.774.408 3.973 1.225l30.635 20.87c1.673 1.14 3.651 1.75 5.676 1.75h5.103c1.67 0 3.024-1.354 3.024-3.024v-348.008c-.001-4.454-3.611-8.064-8.065-8.064z" fill="#aa8080"/></g><g><path d="m375.468 152.904h-12.632v325.228c0 .81-.906 1.289-1.576.833l-22.146-15.088c-1.204-.82-2.599-1.228-3.992-1.224v25.502c1.387 0 2.774.408 3.973 1.225l30.635 20.87c1.673 1.14 3.651 1.75 5.676 1.75h5.103c1.67 0 3.024-1.354 3.024-3.024v-348.008c-.001-4.454-3.611-8.064-8.065-8.064z" fill="#9d6b6b"/></g><g><g><path d="m191.55 264.861h-39.22c-31.677 0-57.449-25.772-57.449-57.45v-54.508h30.241v54.508c0 15.003 12.206 27.209 27.208 27.209h39.22c15.003 0 27.208-12.206 27.208-27.209v-54.508h30.241v54.508c0 31.679-25.772 57.45-57.449 57.45z" fill="#9d6b6b"/></g></g><g><g><path d="m233.122 152.904v54.508c0 31.678-25.772 57.45-57.449 57.45h15.876c31.678 0 57.449-25.772 57.449-57.45v-54.508z" fill="#8b5e5e"/></g></g><g><ellipse cx="171.94" cy="383.826" fill="#f9efda" rx="76.924" ry="45.078"/></g><g><path d="m171.436 377.92h-33.829c-4.175 0-7.56-3.384-7.56-7.56s3.385-7.56 7.56-7.56h33.829c4.175 0 7.56 3.384 7.56 7.56s-3.385 7.56-7.56 7.56z" fill="#efcb84"/></g><g><path d="m205.264 406.869h-67.657c-4.175 0-7.56-3.384-7.56-7.56s3.385-7.56 7.56-7.56h67.657c4.175 0 7.56 3.384 7.56 7.56.001 4.176-3.384 7.56-7.56 7.56z" fill="#efcb84"/></g></g></svg>