<svg height="512pt" viewBox="0 -104 512 512" width="512pt" xmlns="http://www.w3.org/2000/svg"><path d="m389.140625 59.996094c-14.640625 0-28.8125 2.484375-42.289063 7.390625-27.40625-41.890625-74.25-67.386719-125.339843-67.386719-36.285157 0-71.269531 13.035156-98.5 36.699219-24.117188 20.953125-40.691407 48.894531-47.429688 79.605469-19.199219 4.015624-36.730469 13.828124-50.242187 28.292968-16.339844 17.492188-25.339844 40.253906-25.339844 64.089844 0 24.589844 9.496094 47.875 26.742188 65.5625 16.746093 17.179688 39.085937 27.335938 63.070312 28.710938.753906.117187 1.527344.175781 2.316406.175781h301.910156c.90625 0 1.789063-.078125 2.652344-.230469 30.855469-1.851562 59.582032-15 81.078125-37.148438 22.074219-22.75 34.230469-52.644531 34.230469-84.191406 0-67.03125-55.113281-121.570312-122.859375-121.570312zm0 0" fill="#388ef4"/><path d="m389.140625 59.996094c-14.640625 0-28.8125 2.484375-42.289063 7.390625-21.855468-33.410157-56.085937-56.375-94.964843-64.308594v300.058594h142.152343c.90625 0 1.789063-.078125 2.652344-.230469 30.855469-1.855469 59.582032-15 81.078125-37.152344 22.074219-22.746094 34.230469-52.640625 34.230469-84.1875 0-67.03125-55.113281-121.570312-122.859375-121.570312zm0 0" fill="#0078ef"/><path d="m326.765625 211.636719c-5.847656-5.890625-15.363281-5.921875-21.253906-.074219l-38.488281 38.210938v-121.53125c0-8.300782-6.730469-15.03125-15.03125-15.03125-8.300782 0-15.03125 6.730468-15.03125 15.03125v123.035156l-38.285157-39.507813c-5.773437-5.960937-15.289062-6.113281-21.25-.335937-5.960937 5.777344-6.113281 15.292968-.335937 21.25l62.867187 64.882812c2.796875 2.882813 6.632813 4.53125 10.648438 4.570313h.144531c3.964844 0 7.773438-1.566407 10.589844-4.363281l65.347656-64.878907c5.890625-5.851562 5.925781-15.367187.078125-21.257812zm0 0" fill="#d9f5ff"/><path d="m326.765625 211.636719c-5.847656-5.890625-15.363281-5.921875-21.253906-.074219l-38.488281 38.210938v-121.53125c0-8.300782-6.730469-15.03125-15.03125-15.03125-.035157 0-.070313.003906-.105469.003906v188.863281c3.550781-.269531 6.90625-1.78125 9.453125-4.308594l65.351562-64.878906c5.886719-5.847656 5.921875-15.363281.074219-21.253906zm0 0" fill="#87e4f9"/></svg>