<?xml version="1.0" encoding="iso-8859-1"?>
<!-- Generator: Adobe Illustrator 19.0.0, SVG Export Plug-In . SVG Version: 6.00 Build 0)  -->
<svg version="1.1" id="Capa_1" xmlns="http://www.w3.org/2000/svg" xmlns:xlink="http://www.w3.org/1999/xlink" x="0px" y="0px"
	 viewBox="0 0 512 512" style="enable-background:new 0 0 512 512;" xml:space="preserve">
<path style="fill:#BEB4AA;" d="M480.166,272.626c-65.61-87.235-147.749-88.68-199.717-240.241c-30.592,10.49-18.225,10.534-48.948,0
	c-51.947,151.5-134.366,153.354-199.717,240.241c-76.352,101.513-12.141,254.825,160.376,214.703
	c-4.844-20.828-8.848,27.199,45.763-390.864c6.703-13.769,12.536-28.142,18.053-43.444c5.517,15.302,11.35,29.675,18.053,43.444
	c54.616,418.09,50.608,370.039,45.763,390.864C491.649,527.3,556.891,374.638,480.166,272.626z"/>
<path style="fill:#E8E4DC;" d="M271.377,0.525h-30.879C198.589,170.232,108.69,219.48,114.87,356.797
	c9.269,206.066,272.851,206.41,282.137,0C403.164,219.945,312.91,168.707,271.377,0.525z"/>
<path style="fill:#CDC3B4;" d="M397.007,356.797c6.157-136.852-84.097-188.09-125.63-356.272H256v510.949
	C324.192,511.483,392.365,459.967,397.007,356.797z"/>
<g>
</g>
<g>
</g>
<g>
</g>
<g>
</g>
<g>
</g>
<g>
</g>
<g>
</g>
<g>
</g>
<g>
</g>
<g>
</g>
<g>
</g>
<g>
</g>
<g>
</g>
<g>
</g>
<g>
</g>
</svg>
