<svg id="Capa_1" enable-background="new 0 0 512 512" height="512" viewBox="0 0 512 512" width="512" xmlns="http://www.w3.org/2000/svg"><g><g><path d="m379.08 380.493h-301.461c-31.21 0-56.51 25.3-56.51 56.51v.004c0 1.085.038 2.161.098 3.232l195.857 19.896 162.015-19.896v-59.746z" fill="#f0e6e6"/><path d="m21.207 440.239c1.676 29.705 26.287 53.279 56.412 53.279h301.46v-53.279z" fill="#d2cbd7"/></g><g><path d="m434.381 243.44h-301.461v53.279l171.457 15.676 186.416-15.676c-1.676-29.706-26.288-53.279-56.412-53.279z" fill="#f0e6e6"/><path d="m132.92 296.719v59.745h301.46c31.21 0 56.51-25.3 56.51-56.51v-.004c0-1.085-.038-2.161-.098-3.232h-357.872z" fill="#d2cbd7"/></g><g><path d="m223.099 0v29.999c9.668 0 17.534 7.879 17.534 17.564v44.511h15.367l7.327-39.402-7.327-39.402c-8.55-8.209-20.142-13.27-32.901-13.27z" fill="#b9e68b"/><path d="m270.654 47.563c0-13.465-5.633-25.632-14.654-34.293v78.804h14.654z" fill="#73ca7a"/></g><g><path d="m252.073 71.196c-7.488-2.674-15.345-4.03-23.354-4.03-38.308 0-69.473 31.176-69.473 69.496 0 18.254 7.057 39.385 18.876 56.528 13.853 20.092 31.718 31.394 50.304 31.824 1.804.042 14.689.062 27.574.062l18.882-82.783-18.882-70.419c-1.33 0-2.661-.226-3.927-.678z" fill="#ff8559"/><path d="m283.281 67.166c-8.009 0-15.866 1.356-23.353 4.03-1.267.452-2.597.678-3.928.678v153.203c12.885 0 25.771-.021 27.574-.062 18.586-.43 36.451-11.732 50.304-31.824 11.819-17.143 18.876-38.274 18.876-56.528 0-38.321-31.165-69.497-69.473-69.497z" fill="#ff5c5c"/></g><g><path d="m512 296.717c0-39.569-32.191-71.76-71.76-71.76h-367.32v30h367.32c23.026 0 41.76 18.733 41.76 41.761l14.529 6.661 15.471-6.66c0-.001 0-.001 0-.002z" fill="#4d4d8c"/><path d="m482 296.719v.001c0 23.027-18.733 41.76-41.76 41.76h-367.32v30h367.32c39.568 0 71.76-32.191 71.76-71.761z" fill="#283366"/></g><g><path d="m30 440.237c0-23.027 18.733-41.76 41.76-41.76h367.32v-30h-367.32c-39.568 0-71.76 32.191-71.76 71.761l12.765 9.35 17.235-9.349c0-.001 0-.001 0-.002z" fill="#ffc649"/><path d="m30 440.239h-30v.001c0 39.569 32.191 71.76 71.76 71.76h367.32v-30h-367.32c-23.026 0-41.759-18.733-41.76-41.761z" fill="#ffa951"/></g></g></svg>