<?xml version="1.0" encoding="iso-8859-1"?>
<!-- Generator: Adobe Illustrator 19.0.0, SVG Export Plug-In . SVG Version: 6.00 Build 0)  -->
<svg version="1.1" id="Capa_1" xmlns="http://www.w3.org/2000/svg" xmlns:xlink="http://www.w3.org/1999/xlink" x="0px" y="0px"
	 viewBox="0 0 468.293 468.293" style="enable-background:new 0 0 468.293 468.293;" xml:space="preserve">
<path style="fill:#E1E6E9;" d="M398.851,372.454c38.351,0,69.442-31.09,69.442-69.441c0-30.795-20.065-56.868-47.82-65.963
	c1.927-6.371,2.986-13.12,2.986-20.12c0-38.352-31.09-69.441-69.44-69.441c-0.466,0-0.916,0.061-1.379,0.07
	c-7.287-40.488-42.623-71.233-85.209-71.233c-44.635,0-81.359,33.757-86.107,77.129c-10.348-5.243-22.015-8.262-34.41-8.262
	c-42.156,0-76.327,34.173-76.327,76.327c0,0.648,0.082,1.276,0.097,1.92C31.314,225.492,0,257.968,0,297.848
	c0,41.203,33.401,74.606,74.605,74.606H398.851z"/>
<path style="fill:#EBF0F3;" d="M398.851,391.966c38.351,0,69.442-31.09,69.442-69.441c0-30.795-20.065-56.868-47.82-65.963
	c1.927-6.371,2.986-13.12,2.986-20.12c0-38.352-31.09-69.441-69.44-69.441c-0.466,0-0.916,0.061-1.379,0.07
	c-7.287-40.488-42.623-71.233-85.209-71.233c-44.635,0-81.359,33.757-86.107,77.129c-10.348-5.243-22.015-8.262-34.41-8.262
	c-42.156,0-76.327,34.173-76.327,76.327c0,0.648,0.082,1.276,0.097,1.92C31.314,245.005,0,277.48,0,317.36
	c0,41.204,33.401,74.606,74.605,74.606H398.851z"/>
<g>
</g>
<g>
</g>
<g>
</g>
<g>
</g>
<g>
</g>
<g>
</g>
<g>
</g>
<g>
</g>
<g>
</g>
<g>
</g>
<g>
</g>
<g>
</g>
<g>
</g>
<g>
</g>
<g>
</g>
</svg>
