<?xml version="1.0" encoding="iso-8859-1"?>
<!-- Generator: Adobe Illustrator 19.0.0, SVG Export Plug-In . SVG Version: 6.00 Build 0)  -->
<svg version="1.1" id="Layer_1" xmlns="http://www.w3.org/2000/svg" xmlns:xlink="http://www.w3.org/1999/xlink" x="0px" y="0px"
	 viewBox="0 0 512 512" style="enable-background:new 0 0 512 512;" xml:space="preserve">
<circle style="fill:#F2F2F2;" cx="170.667" cy="170.667" r="170.667"/>
<circle style="fill:#CDD6E0;" cx="170.667" cy="170.667" r="141.867"/>
<path style="fill:#F2F2F2;" d="M245.333,204.8c-3.2,19.2-9.6,33.067-21.333,42.667c-11.733,9.6-25.6,13.867-43.733,13.867
	c-20.267,0-36.267-6.4-46.933-19.2c-11.733-12.8-18.133-28.8-21.333-49.067H97.067v-16h12.8c0-2.133,0-4.267,0-7.467
	c0-4.267,0-7.467,0-8.533h-12.8v-16H112c3.2-22.4,11.733-38.4,25.6-50.133s27.733-17.067,42.667-17.067
	c18.133,0,32,4.267,43.733,13.867s19.2,23.467,21.333,40.533l-29.867,3.2c-4.267-22.4-16-34.133-35.2-34.133
	c-8.533,0-16,3.2-22.4,10.667c-7.467,7.467-11.733,18.133-12.8,32H185.6v16H144v8.533V176h41.6v16h-40.533
	c2.133,14.933,7.467,25.6,14.933,32c7.467,6.4,16,10.667,24.533,10.667c8.533,0,16-3.2,21.333-9.6c6.4-6.4,9.6-14.933,10.667-24.533
	L245.333,204.8z"/>
<circle style="fill:#FFD15C;" cx="341.333" cy="341.333" r="170.667"/>
<circle style="fill:#F8B64C;" cx="341.333" cy="341.333" r="139.733"/>
<path style="fill:#FFD15C;" d="M332.8,414.933c-22.4-2.133-39.467-10.667-51.2-22.4l17.067-23.467
	c7.467,8.533,19.2,16,34.133,18.133v-33.067c-22.4-5.333-45.867-13.867-45.867-42.667c0-21.333,17.067-40.533,45.867-42.667v-20.267
	h20.267V268.8c17.067,2.133,32,8.533,43.733,19.2l-17.067,22.4c-7.467-7.467-17.067-11.733-26.667-13.867V326.4
	c22.4,5.333,46.933,13.867,46.933,43.733C400,393.6,384,412.8,353.067,416v19.2H332.8L332.8,414.933L332.8,414.933z M332.8,321.067
	v-25.6c-9.6,1.067-14.933,6.4-14.933,13.867C317.867,315.733,324.267,318.933,332.8,321.067z M353.067,359.467v28.8
	c10.667-2.133,16-8.533,16-14.933C369.067,365.867,362.667,362.667,353.067,359.467z"/>
<g>
	<path style="fill:#FF7058;" d="M467.2,135.467C472.533,80,439.467,25.6,384,6.4C372.267,2.133,359.467,0,347.733,0v27.733
		c9.6,0,18.133,2.133,27.733,5.333C419.2,48,444.8,91.733,440.533,136.533h-25.6l39.467,51.2l38.4-53.333L467.2,135.467z"/>
	<path style="fill:#FF7058;" d="M45.867,376.533C41.6,432,74.667,486.4,129.067,505.6c11.733,4.267,24.533,6.4,36.267,6.4v-27.733
		c-9.6,0-18.133-2.133-27.733-5.333C93.867,464,68.267,420.267,72.533,375.467h25.6l-39.467-51.2l-38.4,53.333L45.867,376.533z"/>
</g>
<g>
</g>
<g>
</g>
<g>
</g>
<g>
</g>
<g>
</g>
<g>
</g>
<g>
</g>
<g>
</g>
<g>
</g>
<g>
</g>
<g>
</g>
<g>
</g>
<g>
</g>
<g>
</g>
<g>
</g>
</svg>
