<svg id="Capa_1" enable-background="new 0 0 512 512" height="512" viewBox="0 0 512 512" width="512" xmlns="http://www.w3.org/2000/svg"><g><g><g><g><g><path d="m467 341h-422c-8.284 0-15-6.716-15-15v-250c0-24.813 20.187-45 45-45h362c24.813 0 45 20.187 45 45v250c0 8.284-6.716 15-15 15z" fill="#55696e"/><path d="m437 31h-181v310h211c8.284 0 15-6.716 15-15v-250c0-24.813-20.187-45-45-45z" fill="#3f4a4a"/><g><path d="m60 341h392v-265c0-8.271-6.729-15-15-15h-362c-8.271 0-15 6.729-15 15z" fill="#fff5f5"/></g><g><path d="m226 341h-120c-8.284 0-15-6.716-15-15v-20c0-41.355 33.645-75 75-75s75 33.645 75 75v20c0 8.284-6.716 15-15 15z" fill="#ff9100"/></g><g><path d="m166 256c-26.192 0-47.5-21.308-47.5-47.5s21.308-47.5 47.5-47.5 47.5 21.308 47.5 47.5-21.308 47.5-47.5 47.5z" fill="#ffe4c2"/></g><path d="m437 61h-181v280h196v-265c0-8.271-6.729-15-15-15z" fill="#f5f0eb"/></g><g><path d="m30 323.28-29.045 77.453c-.632 1.684-.955 3.468-.955 5.267 0 8.284 6.716 15 15 15h482c8.284 0 15-6.716 15-15 0-1.799-.323-3.583-.955-5.267l-29.045-77.453z" fill="#738c96"/></g><path d="m482 323.28h-226v97.72h241c8.284 0 15-6.716 15-15 0-1.799-.323-3.583-.955-5.267z" fill="#55696e"/><path d="m0 436c0 24.813 20.187 45 45 45h422c24.813 0 45-20.187 45-45v-30h-512z" fill="#55696e"/><path d="m256 481h211c24.813 0 45-20.187 45-45v-30h-256z" fill="#3f4a4a"/></g></g></g><g><g><path d="m406 211h-135c-5.199 0-10.027-2.692-12.76-7.114s-2.981-9.944-.657-14.594l18.417-36.833v-46.459c0-8.284 6.716-15 15-15h115c8.284 0 15 6.716 15 15v90c0 8.284-6.716 15-15 15z" fill="#7ed8f7"/></g></g></g></svg>