<?xml version="1.0" encoding="iso-8859-1"?>
<!-- Generator: Adobe Illustrator 19.0.0, SVG Export Plug-In . SVG Version: 6.00 Build 0)  -->
<svg version="1.1" id="Capa_1" xmlns="http://www.w3.org/2000/svg" xmlns:xlink="http://www.w3.org/1999/xlink" x="0px" y="0px"
	 viewBox="0 0 512.001 512.001" style="enable-background:new 0 0 512.001 512.001;" xml:space="preserve">
<polygon style="fill:#79D60D;" points="299.642,0.001 248.309,138.174 321.211,180.424 415.578,67.189 "/>
<polygon style="fill:#008100;" points="512.001,212.359 373.827,263.693 331.578,190.79 444.813,96.425 "/>
<polygon style="fill:#33BC00;" points="394.997,22.255 309.848,142.574 369.428,202.155 489.747,117.005 "/>
<polygon style="fill:#00AC00;" points="442.372,69.63 339.634,172.359 369.428,202.155 489.747,117.005 "/>
<path style="fill:#FFA900;" d="M374.221,316.3L43.086,508.134c-11.253,6.519-25.483,4.656-34.679-4.54l0,0
	c-9.196-9.196-11.059-23.426-4.54-34.679l191.834-331.134c23.309-40.235,78.421-47.449,111.301-14.569l81.788,81.788
	C421.67,237.88,414.456,292.991,374.221,316.3z"/>
<path style="fill:#FF8800;" d="M374.221,316.3L43.086,508.134c-11.253,6.519-25.483,4.656-34.679-4.54l0,0
	c0,0,327.005-327.004,339.489-339.489l40.894,40.894C421.67,237.88,414.456,292.991,374.221,316.3z"/>
<polygon style="fill:#FFA900;" points="131.287,391.589 110.074,412.802 145.864,448.592 172.728,433.03 "/>
<g>
	<polygon style="fill:#FF8800;" points="257.279,225.971 185.94,154.631 170.377,181.493 236.066,247.184 	"/>
	<polygon style="fill:#FF8800;" points="147.766,353.29 168.979,332.077 114.628,277.726 99.065,304.59 	"/>
</g>
<polygon style="fill:#FFA900;" points="240.924,306.819 219.711,328.032 268.96,377.281 295.823,361.718 "/>
<g>
</g>
<g>
</g>
<g>
</g>
<g>
</g>
<g>
</g>
<g>
</g>
<g>
</g>
<g>
</g>
<g>
</g>
<g>
</g>
<g>
</g>
<g>
</g>
<g>
</g>
<g>
</g>
<g>
</g>
</svg>
