<svg id="Capa_1" enable-background="new 0 0 512 512" height="512" viewBox="0 0 512 512" width="512" xmlns="http://www.w3.org/2000/svg"><g><g><path d="m364.138 39v466c0 3.86-3.14 7-7 7h-322c-3.87 0-7-3.14-7-7v-466c0-3.86 3.13-7 7-7h73l20.6 10h136.59l18.81-10h73c3.86 0 7 3.14 7 7z" fill="#365e7d"/><path d="m60.138 32v480h-25c-3.87 0-7-3.14-7-7v-466c0-3.86 3.13-7 7-7z" fill="#2b4d66"/><path d="m67.138 64.005h257.999c3.866 0 7 3.134 7 7v401.997c0 3.866-3.134 7-7 7h-257.999c-3.866 0-7-3.134-7-7v-401.997c0-3.866 3.134-7 7-7z" fill="#eaf6ff"/><path d="m284.138 32v15.04c0 18.2-14.76 32.96-32.97 32.96h-110.06c-18.21 0-32.97-14.76-32.97-32.96v-15.04h56c0-8.84 3.58-16.84 9.37-22.63s13.79-9.37 22.63-9.37c17.67 0 32 14.33 32 32z" fill="#f9d264"/><path d="m161.708 80h-20.6c-18.21 0-32.97-14.76-32.97-32.96v-15.04h20.6v15.04c0 18.2 14.77 32.96 32.97 32.96z" fill="#efc356"/></g><g><g><path d="m419.974 478.028c-4.267 0-7.726-3.459-7.726-7.726v-32.303c0-4.267 3.459-7.726 7.726-7.726s7.726 3.459 7.726 7.726v32.303c.001 4.266-3.458 7.726-7.726 7.726z" fill="#2b4d66"/></g></g><path d="m435.978 390v42.47c0 6.14-3.57 11.45-8.74 13.97-2.05 1-4.35 1.56-6.79 1.56h-.94c-8.58 0-15.53-6.96-15.53-15.53v-42.47z" fill="#365e7d"/><path d="m419.853 432.47v-42.47h-15.875v42.47c0 8.57 6.95 15.53 15.53 15.53h.94c2.44 0 4.74-.56 6.79-1.56.229-.112.454-.229.677-.351-4.806-2.642-8.062-7.753-8.062-13.619z" fill="#2b4d66"/><path d="m435.978 96v26h-32v-26c0-8.84 7.16-16 16-16 2.8 0 5.44.72 7.73 1.98 1.32.73 2.52 1.64 3.58 2.7 2.9 2.9 4.69 6.9 4.69 11.32z" fill="#365e7d"/><path d="m427.708 81.98c-.01.01-.01.01-.01.02-4.93 2.71-8.27 7.97-8.27 14v26h-15.45v-26c0-8.84 7.16-16 16-16 2.8 0 5.44.72 7.73 1.98z" fill="#2b4d66"/><path d="m437.136 399.999h-34.322c-3.866 0-7-3.134-7-7v-273.998c0-3.866 3.134-7 7-7h34.322c3.866 0 7 3.134 7 7v273.998c0 3.866-3.134 7-7 7z" fill="#f9d264"/><path d="m416.42 112.001v287.997h-13.604c-3.866 0-7-3.134-7-7v-273.997c0-3.866 3.134-7 7-7z" fill="#efc356"/><g><g><path d="m476.135 263.726c-4.267 0-7.726-3.459-7.726-7.726v-80.546c0-4.261-3.466-7.726-7.726-7.726h-64.546c-4.267 0-7.726-3.459-7.726-7.726s3.459-7.726 7.726-7.726h64.546c12.781 0 23.179 10.398 23.179 23.179v80.545c0 4.267-3.46 7.726-7.727 7.726z" fill="#2b4d66"/></g></g><g fill="#9bd8f9"><path d="m149.138 257.158h-49.999c-3.866 0-7-3.134-7-7v-49.999c0-3.866 3.134-7 7-7h49.999c3.866 0 7 3.134 7 7v49.999c0 3.866-3.134 7-7 7z"/><path d="m149.138 353.158h-49.999c-3.866 0-7-3.134-7-7v-49.999c0-3.866 3.134-7 7-7h49.999c3.866 0 7 3.134 7 7v49.999c0 3.866-3.134 7-7 7z"/><path d="m149.138 449.157h-49.999c-3.866 0-7-3.134-7-7v-49.999c0-3.866 3.134-7 7-7h49.999c3.866 0 7 3.134 7 7v49.999c0 3.866-3.134 7-7 7z"/></g><g><g><path d="m124.138 232.885c-1.977 0-3.955-.755-5.463-2.263l-31.999-31.999c-3.018-3.017-3.018-7.909 0-10.927 3.017-3.017 7.909-3.017 10.927 0l26.536 26.536 58.536-58.536c3.018-3.018 7.91-3.018 10.927 0 3.018 3.017 3.018 7.909 0 10.927l-63.999 63.999c-1.51 1.508-3.487 2.263-5.465 2.263z" fill="#f25a74"/></g></g><g><g><path d="m124.138 327.726c-2.049 0-4.015-.814-5.463-2.263l-31.999-32c-3.018-3.017-3.018-7.909 0-10.927 3.017-3.018 7.909-3.018 10.927 0l26.536 26.537 58.536-58.536c3.017-3.017 7.909-3.017 10.927 0s3.018 7.909 0 10.927l-63.999 63.999c-1.45 1.449-3.415 2.263-5.465 2.263z" fill="#f25a74"/></g></g><g><g><g><path d="m284.137 231.727h-63.999c-4.267 0-7.726-3.459-7.726-7.726s3.459-7.726 7.726-7.726h63.999c4.267 0 7.726 3.459 7.726 7.726s-3.459 7.726-7.726 7.726z" fill="#365e7d"/></g><g><path d="m284.137 263.726h-63.999c-4.267 0-7.726-3.459-7.726-7.726s3.459-7.726 7.726-7.726h63.999c4.267 0 7.726 3.459 7.726 7.726s-3.459 7.726-7.726 7.726z" fill="#365e7d"/></g><g><path d="m284.137 327.788h-63.999c-4.267 0-7.726-3.459-7.726-7.726s3.459-7.726 7.726-7.726h63.999c4.267 0 7.726 3.459 7.726 7.726s-3.459 7.726-7.726 7.726z" fill="#365e7d"/></g><g><path d="m284.137 359.788h-63.999c-4.267 0-7.726-3.459-7.726-7.726s3.459-7.726 7.726-7.726h63.999c4.267 0 7.726 3.459 7.726 7.726s-3.459 7.726-7.726 7.726z" fill="#365e7d"/></g><g><path d="m284.137 423.788h-63.999c-4.267 0-7.726-3.459-7.726-7.726s3.459-7.726 7.726-7.726h63.999c4.267 0 7.726 3.459 7.726 7.726 0 4.266-3.459 7.726-7.726 7.726z" fill="#365e7d"/></g><g><path d="m284.137 455.787h-63.999c-4.267 0-7.726-3.459-7.726-7.726s3.459-7.726 7.726-7.726h63.999c4.267 0 7.726 3.459 7.726 7.726s-3.459 7.726-7.726 7.726z" fill="#365e7d"/></g><g><path d="m268.137 135.727h-143.999c-4.267 0-7.726-3.459-7.726-7.726s3.459-7.726 7.726-7.726h143.999c4.267 0 7.726 3.459 7.726 7.726s-3.459 7.726-7.726 7.726z" fill="#365e7d"/></g></g></g></g></svg>