<svg height="512" viewBox="0 0 128 128" width="512" xmlns="http://www.w3.org/2000/svg"><g><path d="m83.91 42.88v72.62a6 6 0 0 1 -6 6h-5.39a5.021 5.021 0 0 1 -4-1.98 5.054 5.054 0 0 0 -4.01-1.98h-1.02a5.054 5.054 0 0 0 -4.01 1.98 5.021 5.021 0 0 1 -4 1.98h-5.39a6 6 0 0 1 -6-6v-72.62a13.987 13.987 0 0 1 6.38-11.73 14.038 14.038 0 0 0 6.46-11.78v-8.7h14.14v8.7a14.038 14.038 0 0 0 6.46 11.78 13.987 13.987 0 0 1 6.38 11.73z" fill="#2586fd"/><path d="m54.596 6.5h18.808v6h-18.808z" fill="#efeffb"/><path d="m44.092 52.083h39.808v28h-39.808z" fill="#efeffb"/><path d="m69.109 67.721a5.113 5.113 0 0 1 -10.225 0c0-2.821 5.116-8.388 5.116-8.388s5.109 5.567 5.109 8.388z" fill="#1178ce"/></g></svg>