<svg height="512pt" viewBox="-96 0 512 512" width="512pt" xmlns="http://www.w3.org/2000/svg"><path d="m320.304688 159.535156c0 10.761719-1.136719 21.625-3.375 32.269532-4.457032 21.144531-13.402344 41.054687-26.605469 59.171874l-11.324219 15.550782c-9.59375 13.433594-19.535156 29.964844-24.902344 44.105468-2.648437 6.996094-4.1875 13.402344-4.007812 18.566407l.007812.511719v57.953124c0 31.121094-25.324218 56.445313-56.453125 56.445313h-67.042969c-31.128906 0-56.445312-25.324219-56.445312-56.445313l.011719-58.535156c.089843-2.335937-.25-8.164062-4.199219-18.496094-3.714844-9.796874-10.683594-23.636718-23.554688-42.394531l-12.023437-16.410156c-18.007813-24.597656-28.433594-53.226563-30.128906-82.789063-.1718752-2.949218-.261719-5.9375-.261719-8.886718 0-88.285156 71.816406-160.1132815 160.09375-160.1406252h.058594c.378906-.0117188.769531-.0117188 1.148437-.0117188 42.035157 0 81.664063 16.371094 111.703125 46.183594 30.503906 30.261718 47.300782 70.515625 47.300782 113.351562zm0 0" fill="#ffb14a"/><path d="m320.304688 159.535156c0 10.761719-1.136719 21.625-3.375 32.269532-4.457032 21.144531-13.402344 41.054687-26.605469 59.171874l-11.324219 15.550782c-9.59375 13.433594-19.535156 29.964844-24.902344 44.105468-2.648437 6.996094-4.1875 13.402344-4.007812 18.566407l.007812.511719v57.953124c0 31.121094-25.324218 56.445313-56.453125 56.445313h-33.492187v-444.0976562c.378906-.0117188.769531-.0117188 1.148437-.0117188 42.035157 0 81.664063 16.371094 111.703125 46.183594 30.503906 30.261718 47.300782 70.515625 47.300782 113.351562zm0 0" fill="#ff8b00"/><path d="m175.144531 429.121094v67.886718c0 8.285157-6.714843 14.992188-14.992187 14.992188h-.121094c-8.222656-.070312-14.871094-6.746094-14.871094-14.992188v-67.886718c0-8.234375 6.648438-14.921875 14.871094-14.992188h.121094c8.277344 0 14.992187 6.714844 14.992187 14.992188zm0 0" fill="#e6e4f9"/><path d="m175.144531 429.121094v67.886718c0 8.285157-6.714843 14.992188-14.992187 14.992188h-.121094v-97.871094h.121094c8.277344 0 14.992187 6.714844 14.992187 14.992188zm0 0" fill="#c2c0e2"/><path d="m214.300781 183.21875c0 24.707031-16.609375 45.582031-39.238281 52.109375v75.09375c0 8.273437-6.714844 14.992187-14.988281 14.992187h-.042969c-8.261719-.019531-14.949219-6.726562-14.949219-14.992187v-75.09375c-22.636719-6.527344-39.246093-27.402344-39.246093-52.109375 0-8.285156 6.707031-14.992188 14.992187-14.992188 8.273437 0 14.988281 6.707032 14.988281 14.992188 0 13.363281 10.855469 24.226562 24.214844 24.246094h.042969c13.371093 0 24.246093-10.875 24.246093-24.246094 0-8.285156 6.714844-14.992188 14.988282-14.992188 8.285156 0 14.992187 6.707032 14.992187 14.992188zm0 0" fill="#ffe8cc"/><path d="m160.074219 325.414062h-.042969v-117.949218h.042969c13.371093 0 24.246093-10.875 24.246093-24.246094 0-8.285156 6.714844-14.992188 14.988282-14.992188 8.285156 0 14.992187 6.707032 14.992187 14.992188 0 24.707031-16.609375 45.582031-39.238281 52.109375v75.09375c0 8.273437-6.714844 14.992187-14.988281 14.992187zm0 0" fill="#f9cea0"/><path d="m250.089844 329.199219.007812.511719v57.953124c0 31.121094-25.324218 56.445313-56.453125 56.445313h-67.042969c-31.128906 0-56.445312-25.324219-56.445312-56.445313v-17.398437l.011719-41.136719c.089843-2.335937-.25-8.164062-4.199219-18.496094h188.128906c-2.648437 6.996094-4.1875 13.402344-4.007812 18.566407zm0 0" fill="#e6e4f9"/><path d="m250.089844 329.199219.007812.511719v57.953124c0 31.121094-25.324218 56.445313-56.453125 56.445313h-33.570312v-133.476563h94.023437c-2.648437 6.996094-4.1875 13.402344-4.007812 18.566407zm0 0" fill="#c2c0e2"/><path d="m250.097656 370.265625v17.398437c0 31.121094-25.324218 56.445313-56.453125 56.445313h-67.042969c-31.128906 0-56.445312-25.324219-56.445312-56.445313v-17.398437zm0 0" fill="#76c8ff"/><path d="m250.097656 370.265625v17.398437c0 31.121094-25.324218 56.445313-56.453125 56.445313h-33.613281v-73.84375zm0 0" fill="#279eff"/></svg>