<?xml version="1.0" encoding="iso-8859-1"?>
<!-- Generator: Adobe Illustrator 19.0.0, SVG Export Plug-In . SVG Version: 6.00 Build 0)  -->
<svg xmlns="http://www.w3.org/2000/svg" xmlns:xlink="http://www.w3.org/1999/xlink" version="1.1" id="Capa_1" x="0px" y="0px" viewBox="0 0 512.001 512.001" style="enable-background:new 0 0 512.001 512.001;" xml:space="preserve">
<path style="fill:#994C0F;" d="M113.466,114.028c-6.901,3.901-14.704,6.001-22.505,6.001s-15.605-2.101-22.505-6.001  c-9.904-6.001-22.505,1.199-22.505,12.903v370.067c0,8.401,6.601,15.004,15.004,15.004h60.015c8.403,0,15.004-6.603,15.004-15.004  V126.93C135.971,115.527,123.671,108.025,113.466,114.028z"/>
<path style="fill:#DD0030;" d="M294.711,388.702c-60.982-28.235-113.523-52.586-163.135-3.004  c-9.564,9.531-25.611,2.61-25.611-10.608V135.033c0-3.985,1.582-7.795,4.396-10.608c64.381-64.425,134.828-31.795,196.952-3.004  c60.923,28.22,113.495,52.557,163.135,3.004c9.564-9.531,25.611-2.61,25.611,10.608v240.058c0,3.985-1.582,7.795-4.396,10.608  C428.097,449.299,359.106,418.543,294.711,388.702z"/>
<path style="fill:#713708;" d="M135.971,126.93v370.067c0,8.401-6.601,15.004-15.004,15.004H90.961V120.029  c7.802,0,15.605-2.101,22.505-6.001C123.671,108.025,135.971,115.527,135.971,126.93z"/>
<path style="fill:#FEA832;" d="M90.961,0C49.55,0,15.942,33.608,15.942,75.018c0,42.609,34.805,75.018,75.018,75.018  s75.018-32.409,75.018-75.018C165.979,33.608,132.371,0,90.961,0z"/>
<path style="fill:#FE9923;" d="M165.979,75.018c0,42.609-34.805,75.018-75.018,75.018V0C132.371,0,165.979,33.608,165.979,75.018z"/>
<g>
</g>
<g>
</g>
<g>
</g>
<g>
</g>
<g>
</g>
<g>
</g>
<g>
</g>
<g>
</g>
<g>
</g>
<g>
</g>
<g>
</g>
<g>
</g>
<g>
</g>
<g>
</g>
<g>
</g>
</svg>
