<?xml version="1.0" encoding="iso-8859-1"?>
<!-- Generator: Adobe Illustrator 19.0.0, SVG Export Plug-In . SVG Version: 6.00 Build 0)  -->
<svg version="1.1" id="Capa_1" xmlns="http://www.w3.org/2000/svg" xmlns:xlink="http://www.w3.org/1999/xlink" x="0px" y="0px"
	 viewBox="0 0 512 512" style="enable-background:new 0 0 512 512;" xml:space="preserve">
<path style="fill:#ECEFF1;" d="M256,0C150.112,0,64,107.648,64,240c0,8.832,7.168,16,16,16h352c8.832,0,16-7.168,16-16
	C448,107.648,361.888,0,256,0z"/>
<path style="fill:#CFD8DC;" d="M159.264,175.328c-2.016,0-4.064-0.384-6.048-1.184c-8.192-3.392-12.096-12.736-8.768-20.896
	c16.032-39.168,42.048-68.064,73.248-81.344c8.128-3.456,17.504,0.32,20.992,8.448c3.456,8.128-0.32,17.536-8.448,20.992
	c-23.04,9.824-43.52,33.152-56.16,64C171.52,171.552,165.568,175.328,159.264,175.328z"/>
<path style="fill:#F44336;" d="M496,224H16c-8.832,0-16,7.168-16,16c0,97.984,63.84,186.016,160,222.496V496c0,8.832,7.168,16,16,16
	h160c8.832,0,16-7.168,16-16v-33.504C448.192,426.016,512,337.952,512,240C512,231.168,504.832,224,496,224z"/>
<g>
</g>
<g>
</g>
<g>
</g>
<g>
</g>
<g>
</g>
<g>
</g>
<g>
</g>
<g>
</g>
<g>
</g>
<g>
</g>
<g>
</g>
<g>
</g>
<g>
</g>
<g>
</g>
<g>
</g>
</svg>
