<?xml version="1.0" encoding="iso-8859-1"?>
<!-- Generator: Adobe Illustrator 19.0.0, SVG Export Plug-In . SVG Version: 6.00 Build 0)  -->
<svg version="1.1" id="Layer_1" xmlns="http://www.w3.org/2000/svg" xmlns:xlink="http://www.w3.org/1999/xlink" x="0px" y="0px"
	 viewBox="0 0 508.025 508.025" style="enable-background:new 0 0 508.025 508.025;" xml:space="preserve">
<path style="fill:#84DBFF;" d="M501.8,195.225l-189-189c-8.3-8.3-21.6-8.3-29.9,0L6.8,282.325c-4.4,4.3-6.8,10.3-6.8,16.5l0.3,185.6
	c0,12.8,10.4,23.3,23.3,23.3l185.6,0.3c6.2,0,12.1-2.4,16.5-6.8l276.1-276.1C510.1,216.925,510.1,203.525,501.8,195.225z
	 M81.9,456.625c-8.8,12-26.5,12-35.3,0c-5.5-7.5-5.5-18.1,0-25.6c8.8-12,26.5-12,35.3,0C87.3,438.525,87.3,449.125,81.9,456.625z"/>
<rect x="155.62" y="94.596" transform="matrix(0.7071 0.7071 -0.7071 0.7071 255.2919 -102.0402)" style="fill:#FFFFFF;" width="190.398" height="325.097"/>
<rect x="134.144" y="269" transform="matrix(0.7071 -0.7071 0.7071 0.7071 -117.49 274.6546)" style="fill:#FFD15C;" width="277.297" height="20.3"/>
<rect x="218.725" y="96.594" transform="matrix(0.7071 0.7071 -0.7071 0.7071 233.3772 -92.938)" style="fill:#FF7058;" width="20.3" height="277.297"/>
<g>
</g>
<g>
</g>
<g>
</g>
<g>
</g>
<g>
</g>
<g>
</g>
<g>
</g>
<g>
</g>
<g>
</g>
<g>
</g>
<g>
</g>
<g>
</g>
<g>
</g>
<g>
</g>
<g>
</g>
</svg>
