<?xml version="1.0" encoding="iso-8859-1"?>
<!-- Generator: Adobe Illustrator 19.0.0, SVG Export Plug-In . SVG Version: 6.00 Build 0)  -->
<svg xmlns="http://www.w3.org/2000/svg" xmlns:xlink="http://www.w3.org/1999/xlink" version="1.1" id="Layer_1" x="0px" y="0px" viewBox="0 0 512 512" style="enable-background:new 0 0 512 512;" xml:space="preserve">
<path style="fill:#FFFAFD;" d="M183.954,134.51h-120.3V61.052c0-33.005,26.213-60.545,59.217-61.045  c33.593-0.509,61.083,26.663,61.083,60.133L183.954,134.51L183.954,134.51z"/>
<path style="fill:#FBF3F6;" d="M123.799,0.017V134.51h60.155V60.14C183.954,26.98,156.967,0.019,123.799,0.017z"/>
<path style="fill:#FF7560;" d="M123.799,512C65.737,512,18.5,464.767,18.5,406.71c0-34.466,17.101-66.812,45.154-86.395V104.51  h120.3v215.807c28.048,19.58,45.144,51.925,45.144,86.394C229.098,464.767,181.861,512,123.799,512z"/>
<g>
	<path style="fill:#FBF3F6;" d="M478.494,30H260.85c-8.285,0-15.001-6.716-15.001-15s6.716-15,15.001-15h217.644   c8.285,0,15.001,6.716,15.001,15S486.779,30,478.494,30z"/>
	<path style="fill:#FBF3F6;" d="M399.523,134.511H260.85c-8.285,0-15.001-6.716-15.001-15s6.716-15,15.001-15h138.673   c8.285,0,15.001,6.716,15.001,15S407.808,134.511,399.523,134.511z"/>
	<path style="fill:#FBF3F6;" d="M399.523,239.021H260.85c-8.285,0-15.001-6.716-15.001-15s6.716-15,15.001-15h138.673   c8.285,0,15.001,6.716,15.001,15S407.808,239.021,399.523,239.021z"/>
	<path style="fill:#FBF3F6;" d="M478.494,343.532H260.85c-8.285,0-15.001-6.716-15.001-15s6.716-15,15.001-15h217.644   c8.285,0,15.001,6.716,15.001,15S486.779,343.532,478.494,343.532z"/>
</g>
<g>
	<path style="fill:#EDE5E8;" d="M493.5,15c0,8.28-6.721,15-15.001,15H330.186V0h148.313C486.779,0,493.5,6.72,493.5,15z"/>
	<path style="fill:#EDE5E8;" d="M414.523,119.51c0,8.28-6.721,15-15.001,15h-69.336v-30h69.336   C407.803,104.51,414.523,111.23,414.523,119.51z"/>
	<path style="fill:#EDE5E8;" d="M414.523,224.02c0,8.29-6.721,15-15.001,15h-69.336v-30h69.336   C407.803,209.02,414.523,215.74,414.523,224.02z"/>
	<path style="fill:#EDE5E8;" d="M493.5,328.53c0,8.29-6.721,15-15.001,15H330.186v-30h148.313   C486.779,313.53,493.5,320.25,493.5,328.53z"/>
</g>
<path style="fill:#FE5947;" d="M183.954,320.316V104.51h-60.15V512c58.06-0.003,105.294-47.235,105.294-105.29  C229.098,372.241,212.002,339.896,183.954,320.316z"/>
<g>
</g>
<g>
</g>
<g>
</g>
<g>
</g>
<g>
</g>
<g>
</g>
<g>
</g>
<g>
</g>
<g>
</g>
<g>
</g>
<g>
</g>
<g>
</g>
<g>
</g>
<g>
</g>
<g>
</g>
</svg>
