<?xml version="1.0" encoding="iso-8859-1"?>
<!-- Generator: Adobe Illustrator 19.0.0, SVG Export Plug-In . SVG Version: 6.00 Build 0)  -->
<svg version="1.1" id="Capa_1" xmlns="http://www.w3.org/2000/svg" xmlns:xlink="http://www.w3.org/1999/xlink" x="0px" y="0px"
	 viewBox="0 0 512 512" style="enable-background:new 0 0 512 512;" xml:space="preserve">
<g>
	<path style="fill:#719C40;" d="M192.256,141.696c11.36-53.824,63.6-109.104,116.688-123.488
		C297.6,72.032,245.36,127.312,192.256,141.696z"/>
	<path style="fill:#719C40;" d="M149.28,439.808c-11.36-53.824-63.6-109.104-116.688-123.488
		C43.936,370.144,96.176,425.44,149.28,439.808z"/>
	<path style="fill:#719C40;" d="M362.72,488.288c11.36-53.824,63.6-109.104,116.688-123.488
		C468.064,418.624,415.824,473.904,362.72,488.288z"/>
</g>
<polygon style="fill:#8BC540;" points="149.888,512 238.864,512 187.968,0 98.992,0 "/>
<polygon style="fill:#88BA40;" points="224.512,367.84 222.912,350.4 204.032,161.76 202.432,144.32 188.032,0 160.336,0 
	213.024,512 238.912,512 "/>
<polygon style="fill:#8BC540;" points="370.176,512 281.2,512 332.096,10.4 421.072,10.4 "/>
<polygon style="fill:#88BA40;" points="421.072,10.4 394.512,10.4 343.504,512 370.176,512 "/>
<ellipse style="fill:#FDE7AA;" cx="376.576" cy="10.4" rx="44.48" ry="10.4"/>
<g>
	<polygon style="fill:#719C40;" points="410.912,114.032 409.152,131.472 320.192,131.472 321.952,114.032 	"/>
	<polygon style="fill:#719C40;" points="396.832,251.952 396.512,255.472 395.552,266.192 395.232,269.712 306.272,269.712 
		306.592,266.192 307.552,255.472 307.872,251.952 	"/>
	<polygon style="fill:#719C40;" points="382.912,390.192 381.152,407.632 292.192,407.632 293.952,390.192 	"/>
	<polygon style="fill:#719C40;" points="204.032,161.712 115.072,161.712 113.472,144.272 202.432,144.272 	"/>
	<polygon style="fill:#719C40;" points="224.512,367.792 135.552,367.792 133.952,350.352 222.912,350.352 	"/>
</g>
<g>
</g>
<g>
</g>
<g>
</g>
<g>
</g>
<g>
</g>
<g>
</g>
<g>
</g>
<g>
</g>
<g>
</g>
<g>
</g>
<g>
</g>
<g>
</g>
<g>
</g>
<g>
</g>
<g>
</g>
</svg>
