<svg id="Capa_1" enable-background="new 0 0 513.385 513.385" height="512" viewBox="0 0 513.385 513.385" width="512" xmlns="http://www.w3.org/2000/svg"><g><g><path d="m425.042 62.976c-6.638-6.637-6.638-17.437 0-24.075l33.923-33.923c6.638-6.637 17.437-6.637 24.074 0l25.321 25.321c6.638 6.638 6.638 17.437 0 24.075l-33.923 33.923c-6.638 6.638-17.437 6.638-24.075 0z" fill="#007227"/><path d="m508.361 30.299-13.369-13.369-57.997 57.998 13.368 13.368c6.637 6.638 17.437 6.638 24.075 0l33.923-33.923c6.637-6.637 6.637-17.437 0-24.074z" fill="#00591d"/></g><g><g><path d="m39.32 474.037c-52.226-52.238-52.385-137.078-.355-189.121l1.925-1.925c29.486-29.493 62.434-54.58 97.929-74.563 84.43-47.537 189.66-148.148 194.099-152.408l.137-.134c17.03-16.984 39.486-26.514 63.232-26.836 23.844-.323 46.144 8.667 62.791 25.314 34.286 34.294 33.607 90.844-1.506 126.068l-.129.131c-4.259 4.432-104.849 109.512-152.359 193.808-20.113 35.686-45.333 68.759-74.958 98.301l-1.733 1.728c-25.207 25.213-58.753 39.055-94.469 38.985-35.701-.069-69.294-14.039-94.591-39.335z" fill="#00b44b"/><path d="m305.084 374.371c47.51-84.296 148.1-189.376 152.359-193.808l.129-.131c35.113-35.224 35.792-91.774 1.506-126.068-.254-.254-.521-.49-.778-.74l-419.688 419.686c.238.241.468.487.708.726l.013.013c25.297 25.295 58.89 39.265 94.591 39.335 35.716.07 69.262-13.772 94.469-38.985l1.733-1.728c29.624-29.541 54.844-62.614 74.958-98.3z" fill="#007227"/></g><g><path d="m39.233 473.92c-7.566-7.797-11.066-16.398-10.755-26.349 1.037-33.151 48.152-75.991 107.801-130.228 26.274-23.889 56.051-50.964 85.575-80.487 26.11-26.11 50.85-52.376 72.678-75.549 63.004-66.892 108.508-115.203 141.738-116.028 8.5-.212 16.306 2.862 22.576 8.888l.329.329c6.023 6.266 9.097 14.073 8.885 22.572-.825 33.23-49.136 78.734-116.001 141.713-23.2 21.852-49.465 46.592-75.575 72.702-29.523 29.523-56.598 59.301-80.485 85.572-54.24 59.654-97.079 106.769-130.231 107.805-9.951.312-18.553-3.189-26.295-10.702l-.054-.052z" fill="#1fbf66"/><path d="m195.998 377.056c23.887-26.271 50.961-56.049 80.485-85.572 26.11-26.11 52.375-50.85 75.575-72.702 66.865-62.98 115.176-108.483 116.001-141.713.211-8.499-2.863-16.306-8.885-22.572l-.329-.329c-.187-.18-.379-.348-.569-.522l-419.636 419.637c.199.212.389.426.593.637l.186.186.054.052c7.743 7.513 16.344 11.014 26.295 10.702 33.152-1.036 75.991-48.151 130.23-107.804z" fill="#00a03c"/></g></g></g></svg>