<?xml version="1.0" encoding="iso-8859-1"?>
<!-- Generator: Adobe Illustrator 19.0.0, SVG Export Plug-In . SVG Version: 6.00 Build 0)  -->
<svg version="1.1" id="Capa_1" xmlns="http://www.w3.org/2000/svg" xmlns:xlink="http://www.w3.org/1999/xlink" x="0px" y="0px"
	 viewBox="0 0 492.232 492.232" style="enable-background:new 0 0 492.232 492.232;" xml:space="preserve">
<circle style="fill:#FFC107;" cx="310.898" cy="192.782" r="181.333"/>
<path style="fill:#455A64;" d="M441.266,353.593c-3.985-1.654-8.574-0.745-11.627,2.304L383.858,401.7l-67.115-67.115
	c-4.165-4.164-10.917-4.164-15.083,0l-77.803,77.781L18.077,206.564c-4.237-4.093-10.99-3.975-15.083,0.262
	c-3.992,4.134-3.992,10.687,0,14.82L216.328,434.98c4.165,4.164,10.917,4.164,15.083,0l77.781-77.781l59.584,59.584l-45.781,45.781
	c-4.171,4.16-4.179,10.914-0.019,15.085c2.001,2.006,4.717,3.133,7.55,3.134h106.667c5.891,0,10.667-4.776,10.667-10.667V363.449
	C447.858,359.133,445.255,355.242,441.266,353.593z"/>
<path style="fill:#FAFAFA;" d="M352.754,224.782c-5.829-0.375-10.914,3.919-11.52,9.728c-0.64,7.659-11.413,11.563-32,11.563
	c-17.365,0-32-9.771-32-21.333h31.957c5.891,0,10.667-4.776,10.667-10.667s-4.776-10.667-10.667-10.667h-32v-21.291h32
	c5.891,0,10.667-4.776,10.667-10.667c0-5.891-4.776-10.667-10.667-10.667h-32c0-11.563,14.656-21.333,32-21.333
	c20.587,0,31.36,3.904,32,11.563c0.495,5.891,5.672,10.266,11.563,9.771c5.891-0.495,10.266-5.672,9.771-11.563
	c-1.771-20.651-19.691-31.104-53.333-31.104c-26.383-2.516-49.996,16.375-53.333,42.667h-10.667
	c-5.891,0-10.667,4.776-10.667,10.667c0,5.891,4.776,10.667,10.667,10.667h10.667v21.333h-10.667
	c-5.891,0-10.667,4.776-10.667,10.667s4.776,10.667,10.667,10.667h10.667c3.337,26.292,26.95,45.182,53.333,42.667
	c33.6,0,51.541-10.453,53.333-31.104c0.514-5.869-3.827-11.043-9.696-11.556C352.804,224.787,352.779,224.784,352.754,224.782z"/>
<g>
</g>
<g>
</g>
<g>
</g>
<g>
</g>
<g>
</g>
<g>
</g>
<g>
</g>
<g>
</g>
<g>
</g>
<g>
</g>
<g>
</g>
<g>
</g>
<g>
</g>
<g>
</g>
<g>
</g>
</svg>
