<?xml version="1.0" encoding="iso-8859-1"?>
<!-- Generator: Adobe Illustrator 19.0.0, SVG Export Plug-In . SVG Version: 6.00 Build 0)  -->
<svg version="1.1" id="Capa_1" xmlns="http://www.w3.org/2000/svg" xmlns:xlink="http://www.w3.org/1999/xlink" x="0px" y="0px"
	 viewBox="0 0 512 512" style="enable-background:new 0 0 512 512;" xml:space="preserve">
<path style="fill:#455A64;" d="M263.616,371.413c0.256-2.88,0.405-5.803,0.405-8.747c0-2.944-0.149-5.952-0.405-8.917l24.96-19.563
	c6.621-5.496,8.283-14.98,3.925-22.4l-27.733-48.085c-4.444-7.408-13.586-10.527-21.632-7.381l-28.949,11.648
	c-4.813-3.355-9.885-6.322-15.168-8.875l-4.395-31.296c-1.663-8.377-8.995-14.425-17.536-14.464h-55.467
	c-8.753,0.066-16.164,6.474-17.493,15.125l-4.267,30.848c-5.264,2.559-10.327,5.511-15.147,8.832l-29.227-11.733
	c-8.06-3.02-17.125,0.193-21.483,7.616L6.272,311.808c-4.479,7.574-2.716,17.288,4.139,22.805l24.64,19.307
	c-0.256,2.88-0.405,5.803-0.405,8.747c0,2.944,0.149,5.952,0.405,8.917l-24.96,19.563c-6.621,5.496-8.283,14.98-3.925,22.4
	l27.733,48.085c4.45,7.401,13.586,10.518,21.632,7.381l28.949-11.648c4.813,3.355,9.885,6.322,15.168,8.875l4.395,31.296
	c1.667,8.393,9.022,14.445,17.579,14.464h55.467c8.753-0.066,16.164-6.474,17.493-15.125l4.267-30.848
	c5.264-2.559,10.327-5.511,15.147-8.832l29.205,11.755c8.061,2.965,17.09-0.236,21.483-7.616l27.733-47.787
	c4.479-7.574,2.716-17.288-4.139-22.805L263.616,371.413z M149.355,405.333c-23.564,0-42.667-19.103-42.667-42.667
	S125.791,320,149.355,320s42.667,19.103,42.667,42.667S172.919,405.333,149.355,405.333z"/>
<path style="fill:#607D8B;" d="M476.949,158.08c0.256-2.88,0.405-5.803,0.405-8.747s-0.149-5.952-0.405-8.917l24.96-19.563
	c6.621-5.496,8.283-14.98,3.925-22.4l-27.733-48.085c-4.45-7.401-13.586-10.518-21.632-7.381L427.52,54.635
	c-4.813-3.355-9.885-6.322-15.168-8.875l-4.501-31.296C406.195,6.126,398.922,0.09,390.421,0h-55.467
	c-8.753,0.066-16.164,6.474-17.493,15.125l-4.267,30.848c-5.264,2.559-10.327,5.511-15.147,8.832l-29.227-11.733
	c-8.06-3.03-17.131,0.186-21.483,7.616l-27.733,47.787c-4.479,7.574-2.716,17.288,4.139,22.805l24.64,19.307
	c-0.256,2.88-0.405,5.803-0.405,8.747s0.149,5.952,0.405,8.917l-24.96,19.563c-6.621,5.496-8.283,14.98-3.925,22.4l27.733,48.085
	c4.45,7.401,13.586,10.518,21.632,7.381l28.949-11.648c4.813,3.355,9.885,6.322,15.168,8.875l4.395,31.296
	c1.667,8.393,9.022,14.445,17.579,14.464h55.467c8.753-0.066,16.164-6.474,17.493-15.125l4.267-30.848
	c5.264-2.559,10.327-5.511,15.147-8.832l29.205,11.755c8.061,2.974,17.095-0.229,21.483-7.616l27.733-47.787
	c4.479-7.574,2.716-17.288-4.139-22.805L476.949,158.08z M362.688,192c-23.564,0-42.667-19.103-42.667-42.667
	s19.103-42.667,42.667-42.667c23.564,0,42.667,19.103,42.667,42.667S386.252,192,362.688,192z"/>
<g>
</g>
<g>
</g>
<g>
</g>
<g>
</g>
<g>
</g>
<g>
</g>
<g>
</g>
<g>
</g>
<g>
</g>
<g>
</g>
<g>
</g>
<g>
</g>
<g>
</g>
<g>
</g>
<g>
</g>
</svg>
