<?xml version="1.0" encoding="iso-8859-1"?>
<!-- Generator: Adobe Illustrator 19.0.0, SVG Export Plug-In . SVG Version: 6.00 Build 0)  -->
<svg version="1.1" id="Capa_1" xmlns="http://www.w3.org/2000/svg" xmlns:xlink="http://www.w3.org/1999/xlink" x="0px" y="0px"
	 viewBox="0 0 512 512" style="enable-background:new 0 0 512 512;" xml:space="preserve">
<path style="fill:#F4CC78;" d="M123.586,8.828c0,8.828,0,11.723,0,17.655c0,48.755-39.521,88.276-88.276,88.276
	c-12.094,0-24.814-4.423-35.31-8.828c0,8.828,0,12.323,0,17.655c0,38.656,19.174,72.783,48.472,93.572
	c12.509-9.569,66.057,3.531,83.942,3.531c0-44.006,34.136-26.483,79.448-26.483c15.175,0,14.292-51.112,26.483-44.138
	c2.286-6.674-13.63-32.662-9.419-38.153C223.311,56.355,179.765,12.279,123.586,8.828z"/>
<path style="fill:#AFB6BB;" d="M485.517,26.483c-3.372,0-6.568,0.689-9.534,1.836C472.744,12.173,458.487,0,441.379,0
	c-17.108,0-31.364,12.173-34.604,28.319c-2.966-1.148-6.162-1.836-9.534-1.836c-14.627,0-26.483,11.855-26.483,26.483
	s11.855,26.483,26.483,26.483h88.276c14.627,0,26.483-11.855,26.483-26.483S500.145,26.483,485.517,26.483z"/>
<path style="fill:#366DB6;" d="M317.793,467.862c19.5,0,35.31-15.81,35.31-35.31c0,0,0-35.31-35.31-70.621
	c-35.31,35.31-35.31,70.621-35.31,70.621C282.483,452.052,298.293,467.862,317.793,467.862z"/>
<path style="fill:#C6E2F7;" d="M141.241,432.552c14.627,0,26.483-10.54,26.483-23.543c0,0,0-23.543-26.483-47.078
	c-26.483,23.543-26.483,47.078-26.483,47.078C114.759,422.012,126.614,432.552,141.241,432.552z"/>
<path style="fill:#7DAEE2;" d="M220.69,512c14.627,0,26.483-10.54,26.483-23.543c0,0,0-23.543-26.483-47.078
	c-26.483,23.543-26.483,47.078-26.483,47.078C194.207,501.46,206.062,512,220.69,512z"/>
<path style="fill:#E7ECED;" d="M380.796,177.523c1.439-5.914,2.286-12.058,2.286-18.397c0-44.006-36.732-79.678-82.035-79.678
	c-36.246,0-71.177,19.05-82.035,50.706c-12.191-6.974-22.113-7.247-37.288-7.247c-45.303,0-87.172,34.948-87.172,78.954
	c-45.303,0-76.897,36.396-76.897,80.393s36.732,79.678,82.035,79.678h22.369h216.276h14.919c53.548,0,96.953-42.161,96.953-94.164
	C450.207,225.068,420.917,189.052,380.796,177.523z"/>
<path style="fill:#AFB6BB;" d="M132.405,220.69c-1.333,0-2.675-0.3-3.946-0.927c-11.855-5.941-23.578-9.075-33.907-9.075
	c-4.873,0-8.828-3.946-8.828-8.828c0-4.882,3.955-8.828,8.828-8.828c13.241,0,27.313,3.681,41.807,10.937
	c4.361,2.189,6.126,7.495,3.937,11.855C138.761,218.906,135.645,220.69,132.405,220.69z"/>
<g>
</g>
<g>
</g>
<g>
</g>
<g>
</g>
<g>
</g>
<g>
</g>
<g>
</g>
<g>
</g>
<g>
</g>
<g>
</g>
<g>
</g>
<g>
</g>
<g>
</g>
<g>
</g>
<g>
</g>
</svg>
