<?xml version="1.0" encoding="iso-8859-1"?>
<!-- Generator: Adobe Illustrator 19.0.0, SVG Export Plug-In . SVG Version: 6.00 Build 0)  -->
<svg xmlns="http://www.w3.org/2000/svg" xmlns:xlink="http://www.w3.org/1999/xlink" version="1.1" id="Layer_1" x="0px" y="0px" viewBox="0 0 512 512" style="enable-background:new 0 0 512 512;" xml:space="preserve">
<rect x="198.687" y="389.186" style="fill:#D1D6E4;" width="114.627" height="89.846"/>
<rect x="198.687" y="389.186" style="opacity:0.15;fill:#30302F;enable-background:new    ;" width="19.65" height="89.846"/>
<path style="fill:#415B6B;" d="M480.082,0H31.918C15.22,0,1.638,13.584,1.638,30.28v290.337h508.725V30.28  C510.362,13.584,496.78,0,480.082,0z M42.253,278.769V41.714h424.599v237.055H42.253z"/>
<path style="fill:#EAEAE9;" d="M1.638,310.792v57.599c0,16.696,13.583,30.28,30.28,30.28h448.164c16.697,0,30.28-13.584,30.28-30.28  v-57.599H1.638z M263.31,353.913c0,5.116-4.163,9.279-9.279,9.279s-9.279-4.164-9.279-9.279c0-5.117,4.163-9.279,9.279-9.279  S263.31,348.796,263.31,353.913z"/>
<path style="opacity:0.15;fill:#30302F;enable-background:new    ;" d="M21.285,368.39v-47.773v-9.825V30.28  C21.285,13.584,34.867,0,51.565,0H31.918C15.22,0,1.638,13.584,1.638,30.28v280.512v9.825v47.774c0,16.696,13.583,30.28,30.28,30.28  h19.647C34.867,398.671,21.285,385.086,21.285,368.39z"/>
<rect x="32.427" y="31.888" style="fill:#60B7E2;" width="444.25" height="256.71"/>
<polygon style="opacity:0.15;fill:#30302F;enable-background:new    ;" points="52.079,51.538 476.677,51.538 476.677,31.889   32.427,31.889 32.427,288.594 52.079,288.594 "/>
<path style="fill:#D1D6E4;" d="M254.031,334.809c-10.534,0-19.104,8.571-19.104,19.104c0,10.534,8.571,19.104,19.104,19.104  s19.104-8.571,19.104-19.104C273.135,343.378,264.565,334.809,254.031,334.809z"/>
<path style="fill:#EAEAE9;" d="M354.252,469.205H157.748c-9.933,0-18.013,8.081-18.013,18.013v6.77  c0,9.932,8.08,18.013,18.013,18.013h196.503c9.933,0,18.013-8.081,18.013-18.013v-6.77  C372.264,477.286,364.185,469.205,354.252,469.205z"/>
<path style="opacity:0.15;fill:#30302F;enable-background:new    ;" d="M159.387,493.987v-6.77c0-9.932,8.08-18.013,18.013-18.013  h-19.651c-9.933,0-18.013,8.081-18.013,18.013v6.77c0,9.932,8.08,18.013,18.013,18.013H177.4  C167.467,512,159.387,503.919,159.387,493.987z"/>
<path style="fill:#EF5440;" d="M196.857,195.1c-1.04-13.74-7.006-26.699-16.799-36.492c-9.792-9.791-22.752-15.756-36.492-16.798  l-6.766-0.513v60.57h60.569L196.857,195.1z"/>
<path style="fill:#F2F2F2;" d="M132.426,197.149l50.723,40.517l3.825-5.599c5.704-8.352,9.121-18.087,9.884-28.15l0.513-6.767  H132.426z"/>
<path style="fill:#FFD05C;" d="M141.524,198.379l-0.004-57.08l-6.767,0.513c-29.975,2.27-53.457,27.614-53.457,57.697  c0,31.909,25.957,57.865,57.865,57.865c15.962,0,31.38-6.714,42.304-18.423l4.633-4.968L141.524,198.379z"/>
<path style="opacity:0.15;fill:#30302F;enable-background:new    ;" d="M89.159,199.508c0-29.715,22.91-54.801,52.36-57.601v-0.609  l-6.767,0.513c-29.975,2.27-53.457,27.614-53.457,57.697c0,31.909,25.957,57.865,57.865,57.865c1.306,0,2.607-0.048,3.902-0.138  C112.997,255.191,89.159,230.083,89.159,199.508z"/>
<path style="fill:#415B6B;" d="M302.138,93.698h-92.275c-4.523,0-8.188-3.665-8.188-8.188c0-4.523,3.665-8.188,8.188-8.188h92.275  c4.523,0,8.188,3.665,8.188,8.188C310.326,90.033,306.66,93.698,302.138,93.698z"/>
<path style="fill:#F46F25;" d="M327.901,177.376h-30.962c-1.809,0-3.275,1.466-3.275,3.275v75.63c0,1.809,1.466,3.275,3.275,3.275  h30.962c1.808,0,3.275-1.466,3.275-3.275v-75.63C331.176,178.841,329.709,177.376,327.901,177.376z"/>
<path style="fill:#EF5440;" d="M272.347,209.338h-30.962c-1.809,0-3.275,1.466-3.275,3.275v43.667c0,1.809,1.466,3.275,3.275,3.275  h30.962c1.808,0,3.275-1.466,3.275-3.275v-43.667C275.622,210.804,274.155,209.338,272.347,209.338z"/>
<path style="fill:#FFD05C;" d="M383.456,138.704h-30.962c-1.808,0-3.275,1.466-3.275,3.275v114.302c0,1.809,1.467,3.275,3.275,3.275  h30.962c1.809,0,3.275-1.466,3.275-3.275V141.979C386.731,140.17,385.265,138.704,383.456,138.704z"/>
<path style="fill:#67C5B7;" d="M439.011,100.603h-30.962c-1.808,0-3.275,1.466-3.275,3.275v152.402c0,1.809,1.467,3.275,3.275,3.275  h30.962c1.809,0,3.275-1.466,3.275-3.275V103.878C442.286,102.069,440.82,100.603,439.011,100.603z"/>
<g>
</g>
<g>
</g>
<g>
</g>
<g>
</g>
<g>
</g>
<g>
</g>
<g>
</g>
<g>
</g>
<g>
</g>
<g>
</g>
<g>
</g>
<g>
</g>
<g>
</g>
<g>
</g>
<g>
</g>
</svg>
