<?xml version="1.0" encoding="iso-8859-1"?>
<!-- Generator: Adobe Illustrator 19.0.0, SVG Export Plug-In . SVG Version: 6.00 Build 0)  -->
<svg version="1.1" id="Capa_1" xmlns="http://www.w3.org/2000/svg" xmlns:xlink="http://www.w3.org/1999/xlink" x="0px" y="0px"
	 viewBox="0 0 512 512" style="enable-background:new 0 0 512 512;" xml:space="preserve">
<path style="fill:#CDD6E0;" d="M0,154.667v336C0,502.4,9.6,512,21.333,512h469.333C502.4,512,512,502.4,512,490.667v-336H0z"/>
<rect x="42.667" y="197.333" style="fill:#F2F2F2;" width="426.667" height="272"/>
<path style="fill:#FF7058;" d="M490.667,53.333H21.333C9.6,53.333,0,62.933,0,74.667v80h512v-80
	C512,62.933,502.4,53.333,490.667,53.333z"/>
<circle style="fill:#FFFFFF;" cx="66.133" cy="92.8" r="22.4"/>
<path style="fill:#40596B;" d="M66.133,103.467L66.133,103.467c-8.533,0-14.933-6.4-14.933-14.933v-73.6C51.2,6.4,57.6,0,66.133,0
	l0,0c8.533,0,14.933,6.4,14.933,14.933v73.6C81.067,97.067,74.667,103.467,66.133,103.467z"/>
<circle style="fill:#FFFFFF;" cx="193.067" cy="92.8" r="22.4"/>
<path style="fill:#40596B;" d="M193.067,103.467L193.067,103.467c-8.533,0-14.933-6.4-14.933-14.933v-73.6
	C178.133,6.4,184.533,0,193.067,0l0,0C201.6,0,208,6.4,208,14.933v73.6C208,97.067,201.6,103.467,193.067,103.467z"/>
<circle style="fill:#FFFFFF;" cx="318.933" cy="92.8" r="22.4"/>
<path style="fill:#40596B;" d="M318.933,103.467L318.933,103.467c-8.533,0-14.933-6.4-14.933-14.933v-73.6
	C304,6.4,310.4,0,318.933,0l0,0c8.533,0,14.933,6.4,14.933,14.933v73.6C334.933,97.067,327.467,103.467,318.933,103.467z"/>
<circle style="fill:#FFFFFF;" cx="445.867" cy="92.8" r="22.4"/>
<path style="fill:#40596B;" d="M445.867,103.467L445.867,103.467c-8.533,0-14.933-6.4-14.933-14.933v-73.6
	C430.933,6.4,437.333,0,445.867,0l0,0C454.4,0,460.8,6.4,460.8,14.933v73.6C460.8,97.067,454.4,103.467,445.867,103.467z"/>
<circle style="fill:#FF7058;" cx="256" cy="343.467" r="92.8"/>
<polygon style="fill:#FFFFFF;" points="320,333.867 266.667,333.867 266.667,279.467 245.333,279.467 245.333,333.867 192,333.867 
	192,354.133 245.333,354.133 245.333,407.467 266.667,407.467 266.667,354.133 320,354.133 "/>
<path style="fill:#F1543F;" d="M173.867,354.133c0-51.2,41.6-92.8,92.8-92.8c22.4,0,43.733,8.533,59.733,22.4
	c-17.067-20.267-42.667-33.067-70.4-33.067c-51.2,0-92.8,41.6-92.8,92.8c0,28.8,12.8,53.333,33.067,70.4
	C182.4,397.867,173.867,377.6,173.867,354.133z"/>
<g>
</g>
<g>
</g>
<g>
</g>
<g>
</g>
<g>
</g>
<g>
</g>
<g>
</g>
<g>
</g>
<g>
</g>
<g>
</g>
<g>
</g>
<g>
</g>
<g>
</g>
<g>
</g>
<g>
</g>
</svg>
