<?xml version="1.0" encoding="iso-8859-1"?>
<!-- Generator: Adobe Illustrator 19.0.0, SVG Export Plug-In . SVG Version: 6.00 Build 0)  -->
<svg version="1.1" id="Layer_1" xmlns="http://www.w3.org/2000/svg" xmlns:xlink="http://www.w3.org/1999/xlink" x="0px" y="0px"
	 viewBox="0 0 512 512" style="enable-background:new 0 0 512 512;" xml:space="preserve">
<path style="fill:#CACACD;" d="M256,512c-68.381,0-132.667-26.628-181.02-74.98C26.628,388.667,0,324.38,0,256
	S26.628,123.333,74.98,74.98C123.333,26.628,187.619,0,256,0s132.667,26.628,181.02,74.98C485.372,123.333,512,187.62,512,256
	s-26.628,132.667-74.98,181.02C388.667,485.372,324.381,512,256,512z"/>
<path style="fill:#A8A7AD;" d="M256,512c0-33.633,0-468.358,0-512c68.381,0,132.667,26.628,181.02,74.98
	C485.372,123.333,512,187.62,512,256s-26.628,132.667-74.98,181.02C388.667,485.372,324.381,512,256,512z"/>
<path style="fill:#FFFFFF;" d="M256,33.391C133.254,33.391,33.391,133.254,33.391,256S133.254,478.609,256,478.609
	S478.609,378.746,478.609,256S378.746,33.391,256,33.391z"/>
<path style="fill:#EBEBEC;" d="M256,33.391c0,59.789,0,381.325,0,445.217c122.746,0,222.609-99.862,222.609-222.609
	S378.746,33.391,256,33.391z"/>
<path style="fill:#E1744E;" d="M256,372.098c0,0,124.859-77.536,124.859-146.727c0-37.555-30.444-67.998-67.998-67.998
	c-23.787,0-44.709,12.222-56.861,30.721c-12.152-18.499-33.074-30.721-56.861-30.721c-37.554,0-67.999,30.444-67.999,67.998
	C131.141,294.563,256,372.098,256,372.098z"/>
<path style="fill:#DD5323;" d="M256,372.098c0,0,124.859-77.536,124.859-146.727c0-37.555-30.444-67.998-67.998-67.998
	c-23.787,0-44.709,12.222-56.861,30.721V372.098z"/>
<g>
</g>
<g>
</g>
<g>
</g>
<g>
</g>
<g>
</g>
<g>
</g>
<g>
</g>
<g>
</g>
<g>
</g>
<g>
</g>
<g>
</g>
<g>
</g>
<g>
</g>
<g>
</g>
<g>
</g>
</svg>
