<?xml version="1.0" encoding="iso-8859-1"?>
<!-- Generator: Adobe Illustrator 19.0.0, SVG Export Plug-In . SVG Version: 6.00 Build 0)  -->
<svg xmlns="http://www.w3.org/2000/svg" xmlns:xlink="http://www.w3.org/1999/xlink" version="1.1" id="Layer_1" x="0px" y="0px" viewBox="0 0 512 512" style="enable-background:new 0 0 512 512;" xml:space="preserve">
<path style="fill:#E6EEFF;" d="M161.162,492.456c-26.039,26.039-68.362,26.04-94.402,0c-8.34-8.34-14.16-18.724-17.15-30.052  c-11.327-2.989-21.712-8.81-30.052-17.15c-26.118-26.118-26.039-68.363,0-94.402c22.263-22.263,55.853-25.332,81.107-10.305  l38.311-38.311c6.529-6.529,17.071-6.531,23.6,0l47.2,47.2c6.531,6.531,6.529,17.071,0,23.6l-38.311,38.311  C186.493,436.916,183.11,470.507,161.162,492.456z"/>
<path style="fill:#DAE2F2;" d="M161.162,492.456c-26.039,26.039-68.362,26.04-94.402,0c-8.34-8.34-14.16-18.724-17.15-30.052  l136.568-136.566l23.6,23.6c6.531,6.531,6.529,17.071,0,23.6l-38.311,38.311C186.493,436.916,183.11,470.507,161.162,492.456z"/>
<path style="fill:#EC7838;" d="M463.088,48.927c-65.215-65.215-170.788-65.215-236.003,0  c-64.665,64.665-139.005,238.6-70.801,306.805c19.194,19.194,46.729,27.061,77.88,27.061c79.613,0,182.51-51.448,228.923-97.862  C528.305,219.713,528.305,114.142,463.088,48.927z"/>
<path style="fill:#DB632C;" d="M463.088,284.93c-46.414,46.414-149.312,97.863-228.923,97.862c-31.153,0-58.686-7.867-77.88-27.061  L463.088,48.927C528.305,114.142,528.305,219.713,463.088,284.93z"/>
<circle style="fill:#F3B590;" cx="368.682" cy="237.725" r="16.688"/>
<g>
	<circle style="fill:#F9C5A7;" cx="274.284" cy="143.327" r="16.688"/>
	<path style="fill:#F9C5A7;" d="M380.487,131.528L380.487,131.528c-6.517-6.517-6.517-17.083,0-23.6l0,0   c6.517-6.517,17.083-6.517,23.6,0l0,0c6.517,6.517,6.517,17.083,0,23.6l0,0C397.571,138.045,387.004,138.045,380.487,131.528z"/>
</g>
<path style="fill:#F3B590;" d="M404.087,131.528c6.517-6.517,6.516-17.084,0-23.6l-23.6,23.6  C387.004,138.045,397.571,138.045,404.087,131.528z"/>
<path style="fill:#F9C5A7;" d="M215.285,296.729L215.285,296.729c-6.517-6.517-6.517-17.083,0-23.6l0,0  c6.517-6.517,17.083-6.517,23.6,0l0,0c6.517,6.517,6.517,17.083,0,23.6l0,0C232.368,303.247,221.802,303.247,215.285,296.729z"/>
<path style="fill:#F3B590;" d="M238.885,296.729c6.517-6.517,6.516-17.084,0-23.6l-23.6,23.6  C221.801,303.247,232.368,303.247,238.885,296.729z"/>
<g>
</g>
<g>
</g>
<g>
</g>
<g>
</g>
<g>
</g>
<g>
</g>
<g>
</g>
<g>
</g>
<g>
</g>
<g>
</g>
<g>
</g>
<g>
</g>
<g>
</g>
<g>
</g>
<g>
</g>
</svg>
