<?xml version="1.0" encoding="iso-8859-1"?>
<!-- Generator: Adobe Illustrator 19.0.0, SVG Export Plug-In . SVG Version: 6.00 Build 0)  -->
<svg version="1.1" id="Capa_1" xmlns="http://www.w3.org/2000/svg" xmlns:xlink="http://www.w3.org/1999/xlink" x="0px" y="0px"
	 viewBox="0 0 512 512" style="enable-background:new 0 0 512 512;" xml:space="preserve">
<path style="fill:#896748;" d="M406,60H106c-24.901,0-45,20.099-45,45v362c0,24.899,20.099,45,45,45h300c24.901,0,45-20.101,45-45
	V105C451,80.099,430.901,60,406,60z"/>
<path style="fill:#73553A;" d="M451,105v362c0,24.899-20.099,45-45,45H256V60h150C430.901,60,451,80.099,451,105z"/>
<path style="fill:#E5E5E5;" d="M406,90H106c-8.401,0-15,6.599-15,15v362c0,8.399,6.599,15,15,15h300c8.401,0,15-6.601,15-15V105
	C421,96.599,414.401,90,406,90z"/>
<path style="fill:#D9D9D9;" d="M421,105v362c0,8.399-6.599,15-15,15H256V90h150C414.401,90,421,96.599,421,105z"/>
<path style="fill:#FEA832;" d="M346,60v30H166V60c0-16.5,13.5-30,30-30h30c0-16.5,13.5-30,30-30s30,13.5,30,30h30
	C332.5,30,346,43.5,346,60z"/>
<path style="fill:#FE9923;" d="M346,60v30h-90V0c16.5,0,30,13.5,30,30h30C332.5,30,346,43.5,346,60z"/>
<path style="fill:#FD003A;" d="M316,332h-75v-75c0-8.401-6.599-15-15-15c-57.9,0-105,47.1-105,105s47.1,105,105,105
	c10.499,0,20.4-1.5,30-4.501c43.2-12.9,75-53.101,75-100.499C331,338.599,324.401,332,316,332z"/>
<path style="fill:#1689FC;" d="M376,302h-90c-8.291,0-15-6.709-15-15v-90c0-8.291,6.709-15,15-15c57.891,0,105,47.109,105,105
	C391,295.291,384.291,302,376,302z"/>
<path style="fill:#E50027;" d="M331,347c0,47.399-31.8,87.599-75,100.499V332h60C324.401,332,331,338.599,331,347z"/>
<g>
</g>
<g>
</g>
<g>
</g>
<g>
</g>
<g>
</g>
<g>
</g>
<g>
</g>
<g>
</g>
<g>
</g>
<g>
</g>
<g>
</g>
<g>
</g>
<g>
</g>
<g>
</g>
<g>
</g>
</svg>
