<?xml version="1.0" encoding="iso-8859-1"?>
<!-- Generator: Adobe Illustrator 19.0.0, SVG Export Plug-In . SVG Version: 6.00 Build 0)  -->
<svg version="1.1" id="Capa_1" xmlns="http://www.w3.org/2000/svg" xmlns:xlink="http://www.w3.org/1999/xlink" x="0px" y="0px"
	 viewBox="0 0 512 512" style="enable-background:new 0 0 512 512;" xml:space="preserve">
<path style="fill:#307E45;" d="M103.825,22.122L256.04,174.337C171.984,174.303,103.851,106.178,103.825,22.122z"/>
<path style="fill:#399D4D;" d="M211.475,66.687c28.498,28.439,44.531,67.042,44.565,107.311v0.338L103.825,22.122
	C144.196,22.097,182.926,38.13,211.475,66.687z"/>
<path style="fill:#307E45;" d="M264.496,174.007h-16.913c0.186-62.028,20.879-122.245,58.856-171.284L308.571,0l13.327,10.418
	l-2.114,2.706C284.107,59.186,264.666,115.751,264.496,174.007z"/>
<path style="fill:#941F3D;" d="M135.782,497.083c38.003,23.061,86.517,19.086,120.258-9.86
	c35.009,29.995,85.68,33.064,124.055,7.526c39.948-26.604,68.674-67.017,80.674-113.485l10.401-40.168
	c6.012-23.314,7.653-47.542,4.846-71.456C393.761,384.03,272.919,464.813,135.782,497.083z"/>
<path style="fill:#AD2447;" d="M476.016,269.64c-5.497-47.863-28.523-91.997-64.632-123.886l-4.905-4.313
	c-28.16-24.853-70.239-25.462-99.109-1.438l-32.642,27.23c-5.243,4.372-11.856,6.765-18.689,6.765v0.338
	c-44.058,0.034-85.959-19.069-114.838-52.345l-2.706,2.368c-12.203,2.909-23.5,8.778-32.895,17.082l-4.905,4.313
	C45.561,194.412,22.449,269.919,40.91,341.097l10.401,40.168c12.042,46.451,40.76,86.847,80.674,113.485
	c1.243,0.846,2.537,1.564,3.797,2.334C272.919,464.813,393.761,384.03,476.016,269.64z"/>
<g>
</g>
<g>
</g>
<g>
</g>
<g>
</g>
<g>
</g>
<g>
</g>
<g>
</g>
<g>
</g>
<g>
</g>
<g>
</g>
<g>
</g>
<g>
</g>
<g>
</g>
<g>
</g>
<g>
</g>
</svg>
