<svg id="icon" height="512" viewBox="0 0 128 128" width="512" xmlns="http://www.w3.org/2000/svg"><path d="m95.415 37.512h-62.83a2.921 2.921 0 0 0 -2.921 2.921v42.356h68.672v-42.356a2.921 2.921 0 0 0 -2.921-2.921z" fill="#575b6d"/><path d="m32.832 40.681h62.335v38.94h-62.335z" fill="#69b0ee"/><path d="m24.5 82.617c-1.312 0-1.98 2.5-1.1 4.066 1.306 2.333 3.187 3.8 5.3 3.8h70.6c2.113 0 3.995-1.471 5.3-3.8.877-1.567.209-4.066-1.1-4.066z" fill="#eeefee"/><path d="m56.304 82.617 1.362 3.106h12.668l1.362-3.106z" fill="#dbd8dd"/><g fill="#eeefee"><path d="m72.214 40.681-18 38.94h-1.488l18-38.94z" opacity=".5"/><path d="m84.255 40.681-18 38.94h-6.915l18-38.94z" opacity=".5"/></g></svg>