<svg id="Flat" height="512" viewBox="0 0 512 512" width="512" xmlns="http://www.w3.org/2000/svg"><path d="m160 445.333v-180.29c0-4.994-3.582-9.043-8-9.043s-8 4.049-8 9.043v180.29l-64 42.667h144z" fill="#dcdee0"/><circle cx="368" cy="336.001" fill="#962523" r="24"/><circle cx="384" cy="368.001" fill="#b02b28" r="24"/><circle cx="352" cy="368.001" fill="#8a2220" r="24"/><circle cx="400" cy="400.001" fill="#c7312e" r="24"/><path d="m328.008 376a7.992 7.992 0 0 1 -6.664-3.563l-32-48a8 8 0 1 1 13.312-8.875l32 48a8 8 0 0 1 -6.648 12.438z" fill="#8f9e46"/><path d="m96 24s-32 119.208-32 160c0 48 39.4 88 88 88s88-40 88-88c0-40.792-32-160-32-160z" fill="#dcdee0"/><path d="m240 184c0 48-39.4 88-88 88s-88-40-88-88c0-17.47 5.86-49.3 12.58-80h150.84c6.72 30.7 12.58 62.53 12.58 80z" fill="#962523"/><path d="m320 360s-21.49 16-48 16-48-16-48-16 21.49-16 48-16 48 16 48 16z" fill="#b1bd70"/><circle cx="320" cy="368.001" fill="#b02b28" r="24"/><circle cx="368" cy="400.001" fill="#962523" r="24"/><circle cx="336" cy="400.001" fill="#c7312e" r="24"/><circle cx="304" cy="400.001" fill="#962523" r="24"/><circle cx="272" cy="400.001" fill="#c7312e" r="24"/><circle cx="416" cy="432.001" fill="#8a2220" r="24"/><circle cx="384" cy="432.001" fill="#b02b28" r="24"/><circle cx="352" cy="432.001" fill="#8a2220" r="24"/><circle cx="320" cy="432.001" fill="#b02b28" r="24"/><circle cx="288" cy="432.001" fill="#8a2220" r="24"/><circle cx="432" cy="464.001" fill="#c7312e" r="24"/><circle cx="400" cy="464.001" fill="#8a2220" r="24"/><circle cx="368" cy="464.001" fill="#962523" r="24"/><circle cx="336" cy="464.001" fill="#c7312e" r="24"/><circle cx="304" cy="464.001" fill="#962523" r="24"/><circle cx="272" cy="464.001" fill="#c7312e" r="24"/></svg>