<svg height="512" viewBox="0 0 128 128" width="512" xmlns="http://www.w3.org/2000/svg"><path d="m29.549 25.533s2.174-8.333 16.611-10.658c11.789-1.895 12.84-8.568 21.94-8.568 8.52 0 23.425 5.3 30.354 19.226z" fill="#f3f5e6"/><path d="m102.122 38.066c7.13 40.287-5.056 70.478-5.056 70.478a22.751 22.751 0 0 1 6.214 6.742 3.056 3.056 0 0 1 -2.129 4.644c-5.059.755-15.807 1.763-37.151 1.763s-32.1-1.009-37.16-1.765a3.051 3.051 0 0 1 -2.125-4.635 22.774 22.774 0 0 1 6.219-6.749s-12.186-30.191-5.056-70.478z" fill="#fb8d4b"/><rect fill="#e86d24" height="12.533" rx="3.051" width="82.346" x="22.827" y="25.533"/><path d="m64 103.994a1.75 1.75 0 0 1 -1.75-1.75v-42.889a1.75 1.75 0 1 1 3.5 0v42.889a1.75 1.75 0 0 1 -1.75 1.75z" fill="#a8503c"/><g fill="#feea61"><path d="m64 93.4a13.576 13.576 0 0 0 -13.576-13.577 13.576 13.576 0 0 0 13.576 13.577z"/><path d="m64 93.4a13.576 13.576 0 0 1 13.576-13.577 13.576 13.576 0 0 1 -13.576 13.577z"/><path d="m64 83.455a13.576 13.576 0 0 1 13.576-13.576 13.576 13.576 0 0 1 -13.576 13.576z"/><path d="m64 73.511a13.576 13.576 0 0 0 -13.576-13.576 13.576 13.576 0 0 0 13.576 13.576z"/><path d="m64 68.955a13.575 13.575 0 0 0 0-19.2 13.575 13.575 0 0 0 0 19.2z"/><path d="m64 73.511a13.576 13.576 0 0 1 13.576-13.576 13.576 13.576 0 0 1 -13.576 13.576z"/><path d="m64 83.455a13.576 13.576 0 0 0 -13.576-13.576 13.576 13.576 0 0 0 13.576 13.576z"/></g></svg>