<svg id="Capa_1" enable-background="new 0 0 512 512" height="512" viewBox="0 0 512 512" width="512" xmlns="http://www.w3.org/2000/svg"><g><path d="m499.603 499.603c-16.529 16.529-43.327 16.529-59.856 0l-113.104-113.104 59.856-59.856 113.105 113.105c16.528 16.528 16.528 43.327-.001 59.855z" fill="#26a6fe"/><path d="m499.602 499.602c-3.993 3.993-8.584 7.029-13.491 9.088 10.433-16.369 8.51-38.349-5.789-52.649l-111.612-111.612 17.788-17.788 113.105 113.105c16.526 16.527 16.526 43.329-.001 59.856z" fill="#0593fc"/><path d="m267.078 253.757h64.321v90.963h-64.321z" fill="#537983" transform="matrix(.707 -.707 .707 .707 -123.949 299.238)"/><path d="m315.828 270.347c-6.102 8.673-13.03 16.943-20.784 24.697s-16.024 14.682-24.697 20.784l-26.008-26.008 45.481-45.481z" fill="#426970"/><circle cx="163.32" cy="163.32" fill="#7ca1b1" r="163.32"/><path d="m278.804 278.804c-63.776 63.787-167.19 63.787-230.966 0-2.932-2.932-5.73-5.957-8.394-9.045 64.169 55.186 161.026 52.367 221.86-8.456 60.824-60.834 63.642-157.691 8.456-221.86 3.087 2.664 6.112 5.462 9.045 8.394 63.785 63.777 63.785 167.19-.001 230.967z" fill="#678d98"/><circle cx="163.32" cy="163.32" fill="#d4f2f6" r="117.364"/><path d="m246.311 246.311c-45.832 45.832-120.15 45.832-165.982 0-6.432-6.432-11.956-13.412-16.582-20.804 46.09 40.948 116.681 39.338 160.851-4.822 39.41-39.42 44.934-99.893 16.561-145.198 1.755 1.549 3.469 3.159 5.152 4.842 45.832 45.832 45.832 120.15 0 165.982z" fill="#cbe5e8"/><g><g><path d="m109.237 227.132c-1.77 0-3.546-.623-4.974-1.89-3.099-2.749-3.382-7.489-.633-10.587l98.137-110.628c2.749-3.098 7.489-3.382 10.587-.633 3.099 2.749 3.382 7.489.633 10.587l-98.137 110.628c-1.481 1.671-3.542 2.523-5.613 2.523z" fill="#8cd7dd"/></g><g><g><path d="m159.737 217.079c-1.77 0-3.546-.623-4.974-1.89-3.099-2.749-3.382-7.489-.633-10.587l26.583-29.966c2.749-3.098 7.488-3.382 10.587-.633s3.382 7.489.633 10.587l-26.583 29.966c-1.482 1.67-3.543 2.523-5.613 2.523z" fill="#8cd7dd"/></g><g><path d="m209.099 161.434c-1.77 0-3.546-.623-4.974-1.89-3.099-2.749-3.382-7.489-.633-10.587l14.408-16.241c2.749-3.098 7.489-3.382 10.587-.633s3.382 7.489.633 10.587l-14.408 16.241c-1.482 1.67-3.543 2.523-5.613 2.523z" fill="#8cd7dd"/></g></g></g><path d="m393.943 324.58-69.363 69.363c-3.909 3.909-10.247 3.909-14.156 0l-18.437-18.437c-3.909-3.909-3.909-10.247 0-14.156l69.363-69.363c3.909-3.909 10.247-3.909 14.156 0l18.437 18.437c3.909 3.909 3.909 10.247 0 14.156z" fill="#2b3838"/><path d="m393.946 324.584-14.341 14.341c3.903-3.913 3.903-10.253 0-14.155l-18.44-18.44c-3.913-3.913-10.242-3.913-14.155 0l14.341-14.341c3.913-3.913 10.242-3.913 14.155 0l18.44 18.44c3.903 3.902 3.903 10.242 0 14.155z" fill="#212d2d"/></g></svg>