<?xml version="1.0" encoding="iso-8859-1"?>
<!-- Generator: Adobe Illustrator 19.0.0, SVG Export Plug-In . SVG Version: 6.00 Build 0)  -->
<svg xmlns="http://www.w3.org/2000/svg" xmlns:xlink="http://www.w3.org/1999/xlink" version="1.1" id="Layer_1" x="0px" y="0px" viewBox="0 0 512 512" style="enable-background:new 0 0 512 512;" xml:space="preserve">
<path style="fill:#EBEDED;" d="M239.267,267.541v194.27c5.388-1.661,10.987-2.537,16.732-2.537c5.745,0,11.344,0.876,16.732,2.537  v-194.27H239.267L239.267,267.541z"/>
<g style="opacity:0.2;">
	<path style="fill:#020202;" d="M257.254,267.541h-17.987v194.27c5.388-1.661,10.987-2.537,16.732-2.537   c0.421,0,0.837,0.014,1.255,0.023V267.541z"/>
</g>
<path style="fill:#E0E2E2;" d="M186.276,479.651h139.449c-12.506-25.91-39.026-43.787-69.726-43.787  C225.303,435.865,198.779,453.741,186.276,479.651z"/>
<path style="opacity:0.15;fill:#020202;enable-background:new    ;" d="M264.993,436.389c-2.95-0.341-5.95-0.524-8.994-0.524  c-30.698,0-57.22,17.875-69.723,43.787h17.987C215.527,456.309,238.172,439.495,264.993,436.389z"/>
<path style="fill:#EBEDED;" d="M336.718,0H175.283c-7.394,0-13.386,5.993-13.386,13.386l-11.155,212.161  c0,40.44,32.789,73.226,73.226,73.226h64.064c40.44,0,73.226-32.787,73.226-73.226L350.104,13.386C350.104,5.993,344.11,0,336.718,0  z"/>
<path style="fill:#FF6A5E;" d="M150.743,225.547c0,40.44,32.789,73.226,73.226,73.226h64.064c40.44,0,73.226-32.787,73.226-73.226  l-6.215-118.205H156.956L150.743,225.547z"/>
<path style="opacity:0.15;fill:#020202;enable-background:new    ;" d="M170.326,225.547l6.215-118.205l4.939-93.956  C181.481,5.993,187.474,0,194.866,0h-19.584c-7.394,0-13.386,5.993-13.386,13.386l-11.155,212.161  c0,40.44,32.789,73.226,73.226,73.226h19.587C203.115,298.774,170.326,265.987,170.326,225.547z"/>
<path style="fill:#CFD1D1;" d="M331.973,478.536H180.026c-9.239,0-16.732,7.491-16.732,16.732c0,9.241,7.493,16.732,16.732,16.732  h106.216h25.654h20.078c9.242,0,16.732-7.492,16.732-16.732C348.705,486.027,341.216,478.536,331.973,478.536z"/>
<path style="opacity:0.15;fill:#020202;enable-background:new    ;" d="M181.281,495.268c0-9.241,7.493-16.732,16.732-16.732  h-17.987c-9.239,0-16.732,7.491-16.732,16.732c0,9.241,7.493,16.732,16.732,16.732h17.987  C188.773,512,181.281,504.508,181.281,495.268z"/>
<g>
</g>
<g>
</g>
<g>
</g>
<g>
</g>
<g>
</g>
<g>
</g>
<g>
</g>
<g>
</g>
<g>
</g>
<g>
</g>
<g>
</g>
<g>
</g>
<g>
</g>
<g>
</g>
<g>
</g>
</svg>
