<svg id="Capa_1" enable-background="new 0 0 512 512" height="512" viewBox="0 0 512 512" width="512" xmlns="http://www.w3.org/2000/svg"><g><g><path d="m380.432 121.897c-8.355-20.046-15.17-43.481-16.088-67.82-.81.17-1.647.261-2.505.261h-52.536c-.858 0-1.695-.091-2.505-.261-.918 24.339-7.733 47.773-16.088 67.82z" fill="#dfebfa"/></g><g fill="#b1dbfc"><path d="m364.344 54.078c-.81.17-1.647.261-2.505.261h2.519c-.004-.088-.011-.174-.014-.261z"/><path d="m309.303 54.338c-.858 0-1.695-.091-2.505-.261-.918 24.339-7.733 47.773-16.088 67.82h38.632c8.325-19.974 15.118-43.314 16.074-67.559z"/></g><path d="m414.031 205.282c-2.285-17.625-8.08-34.673-17.058-50.151-5.694-9.816-11.917-21.825-17.393-35.294h-88.017c-5.476 13.469-11.699 25.478-17.393 35.294-8.978 15.478-14.773 32.526-17.058 50.151z" fill="#7b6c79"/><path d="m330.194 119.837h-38.632c-5.476 13.469-11.699 25.478-17.393 35.294-8.978 15.478-14.773 32.526-17.058 50.151h38.632c2.285-17.625 8.08-34.673 17.058-50.151 5.694-9.816 11.917-21.826 17.393-35.294z" fill="#665e68"/><path d="m410.803 339.838c1.634-6.206 2.788-12.522 3.498-18.889h-157.461c.71 6.367 1.864 12.683 3.498 18.889 15.185 57.663-4.338 75.235-4.338 109.112 0 21.321 7.82 39.011 14.345 50.062 4.558 7.719 12.879 12.421 21.843 12.421 2.35 0 4.604-.934 6.266-2.595l2.777-2.777c4.064-4.064 10.863-3.243 13.843 1.672 1.606 2.649 4.479 4.267 7.577 4.267h25.839c3.098 0 5.971-1.618 7.577-4.267 2.98-4.915 9.778-5.736 13.843-1.672l2.777 2.777c1.662 1.662 3.916 2.595 6.266 2.595 8.964 0 17.285-4.702 21.843-12.421 6.526-11.051 14.345-28.741 14.345-50.062 0-33.877-19.523-51.449-4.338-109.112z" fill="#7b6c79"/><path d="m309.208 499.393c-.078-.126-.155-.253-.231-.381-6.525-11.051-14.345-28.741-14.345-50.062 0-33.878 19.523-51.449 4.338-109.113-1.634-6.206-2.788-12.522-3.498-18.889h-38.632c.71 6.367 1.864 12.683 3.498 18.889 15.185 57.664-4.338 75.236-4.338 109.113 0 21.321 7.82 39.011 14.345 50.062 4.602 7.793 13.039 12.511 22.101 12.42 2.261-.023 4.409-.995 6.008-2.594l2.777-2.777c2.56-2.56 6.203-3.178 9.295-2.06 0-1.629-.46-3.222-1.318-4.608z" fill="#665e68"/><path d="m415.141 222.346c0-6.324-.467-12.612-1.358-18.827h-156.425c-.891 6.215-1.358 12.503-1.358 18.827v83.76c0 5.555.349 11.101 1.037 16.605h157.067c.688-5.503 1.037-11.049 1.037-16.605z" fill="#ff656f"/><path d="m294.632 222.346c0-6.324.467-12.613 1.358-18.827h-38.632c-.891 6.215-1.358 12.503-1.358 18.827v83.76c0 5.555.349 11.101 1.037 16.604h38.632c-.688-5.503-1.037-11.049-1.037-16.604z" fill="#ff4756"/><path d="m256 230.158h159.141v65.913h-159.141z" fill="#ff4756"/><path d="m256 230.158h38.632v65.913h-38.632z" fill="#fc2d39"/><path d="m361.838 0h-52.535c-6.755 0-12.281 5.526-12.281 12.281v30.806c0 6.755 5.526 12.281 12.281 12.281h52.535c6.754 0 12.281-5.526 12.281-12.281v-30.806c0-6.755-5.526-12.281-12.281-12.281z" fill="#ff656f"/><path d="m335.654 43.087v-30.806c0-6.755 5.527-12.281 12.281-12.281h-38.632c-6.754 0-12.281 5.526-12.281 12.281v30.806c0 6.755 5.527 12.281 12.281 12.281h38.632c-6.754 0-12.281-5.526-12.281-12.281z" fill="#ff4756"/><g><path d="m221.29 121.897c-8.355-20.046-15.17-43.481-16.088-67.82-.81.17-1.647.261-2.505.261h-52.536c-.858 0-1.695-.091-2.505-.261-.918 24.339-7.733 47.773-16.088 67.82z" fill="#dfebfa"/></g><g fill="#b1dbfc"><path d="m205.203 54.078c-.81.17-1.647.261-2.505.261h2.519c-.004-.088-.011-.174-.014-.261z"/><path d="m150.162 54.338c-.858 0-1.695-.091-2.505-.261-.918 24.339-7.733 47.773-16.088 67.82h38.631c8.325-19.974 15.118-43.314 16.074-67.559z"/></g><path d="m254.889 205.282c-2.285-17.625-8.08-34.673-17.058-50.151-5.694-9.816-11.917-21.825-17.393-35.294h-88.017c-5.476 13.469-11.699 25.478-17.393 35.294-8.978 15.478-14.773 32.526-17.058 50.151z" fill="#7b6c79"/><path d="m171.053 119.837h-38.632c-5.476 13.469-11.699 25.478-17.393 35.294-8.978 15.478-14.773 32.526-17.058 50.151h38.632c2.285-17.625 8.08-34.673 17.058-50.151 5.694-9.816 11.917-21.826 17.393-35.294z" fill="#665e68"/><path d="m251.662 339.838c1.634-6.206 2.788-12.522 3.498-18.889h-157.461c.71 6.367 1.864 12.683 3.498 18.889 15.185 57.664-4.338 75.235-4.338 109.113 0 21.321 7.82 39.011 14.345 50.062 4.558 7.719 12.879 12.421 21.843 12.421 2.35 0 4.604-.934 6.266-2.595l2.777-2.777c4.064-4.064 10.863-3.243 13.843 1.672 1.606 2.649 4.479 4.267 7.577 4.267h25.839c3.098 0 5.971-1.618 7.577-4.267 2.98-4.915 9.778-5.736 13.843-1.672l2.777 2.777c1.662 1.662 3.916 2.595 6.266 2.595 8.964 0 17.285-4.702 21.843-12.421 6.525-11.051 14.345-28.741 14.345-50.063 0-33.877-19.523-51.449-4.338-109.112z" fill="#7b6c79"/><path d="m150.067 499.393c-.078-.126-.155-.253-.231-.381-6.525-11.051-14.345-28.741-14.345-50.062 0-33.878 19.523-51.449 4.338-109.113-1.634-6.206-2.788-12.522-3.498-18.889h-38.632c.71 6.367 1.864 12.683 3.498 18.889 15.185 57.664-4.338 75.235-4.338 109.113 0 21.321 7.82 39.011 14.345 50.062 4.602 7.793 13.039 12.511 22.101 12.42 2.261-.023 4.409-.995 6.008-2.594l2.777-2.777c2.56-2.56 6.203-3.178 9.295-2.06 0-1.629-.46-3.222-1.318-4.608z" fill="#665e68"/><path d="m256 222.346c0-6.324-.467-12.612-1.358-18.827h-156.425c-.891 6.215-1.358 12.503-1.358 18.827v83.76c0 5.555.349 11.101 1.037 16.605h157.067c.688-5.503 1.037-11.049 1.037-16.605z" fill="#8bcaff"/><path d="m135.491 222.346c0-6.324.467-12.613 1.358-18.827h-38.632c-.891 6.215-1.358 12.503-1.358 18.827v83.76c0 5.555.349 11.101 1.037 16.604h38.632c-.688-5.503-1.037-11.049-1.037-16.604z" fill="#23a8fe"/><path d="m96.859 230.158h159.141v65.913h-159.141z" fill="#23a8fe"/><path d="m96.859 230.158h38.632v65.913h-38.632z" fill="#0193fa"/><path d="m202.697 0h-52.535c-6.755 0-12.281 5.526-12.281 12.281v30.806c0 6.755 5.526 12.281 12.281 12.281h52.535c6.754 0 12.281-5.526 12.281-12.281v-30.806c0-6.755-5.526-12.281-12.281-12.281z" fill="#23a8fe"/><path d="m176.513 43.087v-30.806c0-6.755 5.526-12.281 12.281-12.281h-38.632c-6.754 0-12.281 5.526-12.281 12.281v30.806c0 6.755 5.527 12.281 12.281 12.281h38.632c-6.755 0-12.281-5.526-12.281-12.281z" fill="#0193fa"/></g></svg>