<svg id="Capa_1" enable-background="new 0 0 453.54 453.54" height="512" viewBox="0 0 453.54 453.54" width="512" xmlns="http://www.w3.org/2000/svg"><g><g><path d="m214.297 240.207h24.939v34.014h-24.939z" fill="#95adbb"/></g><g><path d="m328.021 121.729c0 55.916-45.332 101.25-101.254 101.25-55.92 0-101.254-45.334-101.254-101.25 0-55.922 45.334-101.258 101.254-101.258 55.922 0 101.254 45.336 101.254 101.258z" fill="#87cedc"/></g><g><path d="m247.932 211.688c-49.688 0-89.963-40.279-89.963-89.959 0-49.688 40.275-89.969 89.963-89.969 14.514 0 28.215 3.457 40.357 9.564-17.055-13.068-38.371-20.854-61.521-20.854-55.92 0-101.254 45.336-101.254 101.258 0 55.916 45.334 101.25 101.254 101.25 23.15 0 44.467-7.785 61.525-20.854-12.147 6.105-25.844 9.564-40.361 9.564z" fill="#43bdd7"/></g><g><path d="m226.768-.002c-67.229 0-121.723 54.496-121.723 121.73 0 67.225 54.494 121.723 121.723 121.723 67.227 0 121.727-54.498 121.727-121.723-.001-67.234-54.501-121.73-121.727-121.73zm0 222.981c-55.92 0-101.254-45.334-101.254-101.25 0-55.922 45.334-101.258 101.254-101.258 55.922 0 101.254 45.336 101.254 101.258-.001 55.916-45.333 101.25-101.254 101.25z" fill="#2a3456"/></g><g><path d="m198.563 274.221v167.137c0 6.729 5.455 12.184 12.188 12.184h32.039c6.732 0 12.188-5.455 12.188-12.184v-167.137z" fill="#e94744"/></g><g><path d="m232.369 434.42c-6.732 0-12.188-5.459-12.188-12.188v-148.011h-21.619v167.137c0 6.729 5.455 12.184 12.188 12.184h32.039c6.732 0 12.188-5.455 12.188-12.184v-6.938z" fill="#d32e3a"/></g></g></svg>