<?xml version="1.0" encoding="iso-8859-1"?>
<!-- Generator: Adobe Illustrator 19.0.0, SVG Export Plug-In . SVG Version: 6.00 Build 0)  -->
<svg version="1.1" id="Capa_1" xmlns="http://www.w3.org/2000/svg" xmlns:xlink="http://www.w3.org/1999/xlink" x="0px" y="0px"
	 viewBox="0 0 512 512" style="enable-background:new 0 0 512 512;" xml:space="preserve">
<path style="fill:#4F2F25;" d="M164.695,117.365c-0.102-0.343-0.192-0.688-0.292-1.032L94.349,96.317v121.595l94.242-20.016
	c-0.099-0.341-0.193-0.683-0.294-1.024L164.695,117.365z"/>
<path style="fill:#73553A;" d="M64.328,116.333c-0.1,0.345-0.191,0.693-0.293,1.037l-23.6,79.502
	c-0.101,0.341-0.195,0.683-0.294,1.024l74.225,20.016V96.317L64.328,116.333z"/>
<g>
	<path style="fill:#4F2F25;" d="M187.189,318.794l1.27-4.69L94.35,294.088L114.365,512h79.82v-53.82
		c0-6.235-0.993-12.237-2.829-17.858C178.487,400.92,176.356,358.805,187.189,318.794z"/>
	<path style="fill:#4F2F25;" d="M359.26,301.929L379.276,512h42.094c32.439,0,58.736-26.297,58.736-58.736v-93.668
		C480.106,331.667,415.665,301.929,359.26,301.929z"/>
</g>
<g>
	<path style="fill:#73553A;" d="M278.446,344.333v108.931c0,32.439,26.297,58.736,58.736,58.736h42.094V301.929
		C336.459,298.553,278.446,307.602,278.446,344.333z"/>
	<rect x="333.16" y="176.18" style="fill:#73553A;" width="31.893" height="30"/>
	<rect x="396.94" y="144.29" style="fill:#73553A;" width="31.893" height="30"/>
	<rect x="333.16" y="112.4" style="fill:#73553A;" width="31.893" height="30"/>
	<path style="fill:#73553A;" d="M40.272,314.104l1.27,4.691c10.832,40.01,8.702,82.125-4.168,121.527
		c-1.836,5.621-2.829,11.623-2.829,17.859V512h79.82V294.088L40.272,314.104z"/>
</g>
<path style="fill:#BEEBFA;" d="M379.276,254.968L359.26,301.93l20.016,50.034c8.685-3.843,17.37-7.685,34.74-7.685
	c33.57,0,34.709,14.349,66.09,15.318V254.968H379.276z"/>
<path style="fill:#E1F4FA;" d="M278.446,254.968v89.365c31.38,0.968,32.519,15.318,66.087,15.318
	c17.372,0,26.057-3.843,34.743-7.687v-96.996L278.446,254.968L278.446,254.968z"/>
<path style="fill:#FF1F3E;" d="M114.365,314.104h74.093l1.201-4.437c9.923-36.654,9.546-75.325-1.069-111.77h-74.226L94.349,256
	L114.365,314.104z"/>
<path style="fill:#FF6C6C;" d="M114.365,197.896H40.14c-10.615,36.445-10.992,75.116-1.069,111.769l1.201,4.438h74.093
	C114.365,314.103,114.365,197.896,114.365,197.896z"/>
<path style="fill:#EFE2DD;" d="M156.767,74.498l-0.752-9.727L94.349,44.755v71.578h70.054
	C160.429,102.687,157.863,88.67,156.767,74.498z"/>
<path style="fill:#FFF5F5;" d="M114.365,44.755l-41.65,20.016l-0.753,9.735c-1.096,14.169-3.662,28.184-7.635,41.827h50.038
	C114.365,116.333,114.365,44.755,114.365,44.755z"/>
<polygon style="fill:#FF1F3E;" points="156.014,64.771 151.005,0 114.365,0 94.349,32.385 114.365,64.771 "/>
<polygon style="fill:#FF6C6C;" points="114.365,0 77.726,0 72.715,64.771 114.365,64.771 "/>
<g>
</g>
<g>
</g>
<g>
</g>
<g>
</g>
<g>
</g>
<g>
</g>
<g>
</g>
<g>
</g>
<g>
</g>
<g>
</g>
<g>
</g>
<g>
</g>
<g>
</g>
<g>
</g>
<g>
</g>
</svg>
