<svg id="Layer_1" height="512" viewBox="0 0 512 512" width="512" xmlns="http://www.w3.org/2000/svg" data-name="Layer 1"><path d="m322 124c0-41.8-29.54-104.8-66-104.8s-66 63-66 104.8c0 35.49 21.3 65.27 50 73.46l-4.6 239.54a14.72 14.72 0 0 0 14.71 15h11.8a14.72 14.72 0 0 0 14.71-15l-4.62-239.57c28.7-8.19 50-37.97 50-73.43z" fill="#b2b2b2"/><path d="m322 124c0-38.22-24.7-94.15-56.79-103.46 17.79 22.09 29.43 56.76 29.43 83.06 0 41.8-29.54 75.69-66 75.69a58.25 58.25 0 0 1 -21.12-4 64.85 64.85 0 0 0 32.52 22.13l-4.64 239.58a14.72 14.72 0 0 0 14.71 15h11.8a14.72 14.72 0 0 0 14.71-15l-4.62-239.57c28.7-8.19 50-37.97 50-73.43z" fill="#8c8989"/><rect fill="#f8a501" height="175.7" rx="35.75" transform="matrix(-1 0 0 -1 512.02 808.07)" width="71.51" x="220.26" y="316.19"/><path d="m280.8 326.4a35.59 35.59 0 0 1 2.11 12.08v104.19a35.85 35.85 0 0 1 -35.75 35.75 35.65 35.65 0 0 1 -24.79-10.05 35.89 35.89 0 0 0 33.63 23.68 35.85 35.85 0 0 0 35.75-35.76v-104.19a35.7 35.7 0 0 0 -10.95-25.7z" fill="#ec8c36"/><circle cx="255.67" cy="451.71" fill="#ffce76" r="13.62"/></svg>