<svg id="Capa_1" enable-background="new 0 0 512 512" height="512" viewBox="0 0 512 512" width="512" xmlns="http://www.w3.org/2000/svg"><g><path d="m512 196v301c0 8.399-6.599 15-15 15h-482c-8.401 0-15-6.601-15-15v-301c0-8.401 6.599-15 15-15h482c8.401 0 15 6.599 15 15z" fill="#f0f7ff"/><path d="m512 196v301c0 8.399-6.599 15-15 15h-241v-331h241c8.401 0 15 6.599 15 15z" fill="#dfe7f4"/><path d="m301 406c0 8.399-6.599 15-15 15h-150c-8.401 0-15-6.601-15-15 0-8.401 6.599-15 15-15h150c8.401 0 15 6.599 15 15z" fill="#dfe7f4"/><path d="m406 421h-60c-8.291 0-15-6.709-15-15s6.709-15 15-15h60c8.291 0 15 6.709 15 15s-6.709 15-15 15z" fill="#c7cfe1"/><path d="m271 346c0 8.399-6.599 15-15 15h-30c-8.401 0-15-6.601-15-15 0-8.401 6.599-15 15-15h30c8.401 0 15 6.599 15 15z" fill="#dfe7f4"/><path d="m331 286c0 8.399-6.599 15-15 15h-90c-8.401 0-15-6.601-15-15 0-8.401 6.599-15 15-15h90c8.401 0 15 6.599 15 15z" fill="#dfe7f4"/><g fill="#c7cfe1"><path d="m406 301h-30c-8.291 0-15-6.709-15-15s6.709-15 15-15h30c8.291 0 15 6.709 15 15s-6.709 15-15 15z"/><path d="m406 361h-90c-8.291 0-15-6.709-15-15s6.709-15 15-15h90c8.291 0 15 6.709 15 15s-6.709 15-15 15z"/><path d="m256 361v-30c8.401 0 15 6.599 15 15 0 8.399-6.599 15-15 15z"/><path d="m301 406c0 8.399-6.599 15-15 15h-30v-30h30c8.401 0 15 6.599 15 15z"/><path d="m331 286c0 8.399-6.599 15-15 15h-60v-30h60c8.401 0 15 6.599 15 15z"/></g><path d="m136 0c-24.814 0-45 20.186-45 45v15l30 30h15 15l30-30v-15c0-24.814-20.186-45-45-45z" fill="#575f64"/><path d="m181 60v-15c0-24.814-20.186-45-45-45v90h15z" fill="#474f54"/><path d="m136 60h-45v241l30 30h15 15l30-30v-241z" fill="#fe8205"/><path d="m181 301v-241h-45v271h15z" fill="#d6475c"/><path d="m136 301h-45v32.578c0 30.908 12.539 61.172 34.395 83.027 2.93 2.93 6.768 4.395 10.605 4.395s7.676-1.465 10.605-4.395c21.856-21.855 34.395-52.119 34.395-83.027v-32.578z" fill="#ffea00"/><path d="m181 333.578v-32.578h-45v120c3.838 0 7.676-1.465 10.605-4.395 21.856-21.855 34.395-52.119 34.395-83.027z" fill="#ff9100"/></g></svg>