<?xml version="1.0" encoding="iso-8859-1"?>
<!-- Generator: Adobe Illustrator 19.0.0, SVG Export Plug-In . SVG Version: 6.00 Build 0)  -->
<svg version="1.1" id="Capa_1" xmlns="http://www.w3.org/2000/svg" xmlns:xlink="http://www.w3.org/1999/xlink" x="0px" y="0px"
	 viewBox="0 0 512 512" style="enable-background:new 0 0 512 512;" xml:space="preserve">
<path style="fill:#984D00;" d="M422.447,201.787h-94.821l-10.903-70.681h-53.152l-10.903,70.681H89.553v179.106h332.894
	c49.459,0,89.553-40.094,89.553-89.553l0,0C512,241.882,471.906,201.787,422.447,201.787z"/>
<path style="fill:#4D2602;" d="M89.553,380.894h332.894c36.907,0,68.596-22.329,82.304-54.213H89.553V380.894z"/>
<path style="fill:#723802;" d="M512,291.341c0-12.551-2.586-24.497-7.249-35.341H89.553v70.681h415.198
	C509.414,315.838,512,303.892,512,291.341L512,291.341z"/>
<circle style="fill:#E47700;" cx="89.55" cy="291.34" r="89.55"/>
<path style="fill:#FFA900;" d="M89.553,346.422c-30.372,0-55.081-24.71-55.081-55.082s24.709-55.081,55.081-55.081
	s55.082,24.709,55.082,55.081S119.925,346.422,89.553,346.422z"/>
<path style="fill:#FBBF00;" d="M89.553,266.259c-13.83,0-25.081,11.251-25.081,25.081s11.251,25.082,25.081,25.082
	s25.082-11.252,25.082-25.082S103.383,266.259,89.553,266.259z"/>
<g>
</g>
<g>
</g>
<g>
</g>
<g>
</g>
<g>
</g>
<g>
</g>
<g>
</g>
<g>
</g>
<g>
</g>
<g>
</g>
<g>
</g>
<g>
</g>
<g>
</g>
<g>
</g>
<g>
</g>
</svg>
