<?xml version="1.0" encoding="iso-8859-1"?>
<!-- Generator: Adobe Illustrator 19.0.0, SVG Export Plug-In . SVG Version: 6.00 Build 0)  -->
<svg version="1.1" id="Capa_1" xmlns="http://www.w3.org/2000/svg" xmlns:xlink="http://www.w3.org/1999/xlink" x="0px" y="0px"
	 viewBox="0 0 512 512" style="enable-background:new 0 0 512 512;" xml:space="preserve">
<path style="fill:#455A64;" d="M347.456,332.907c0.427-4.267,0.683-8.533,0.683-12.907s-0.256-8.768-0.683-13.163l33.941-26.624
	c7.446-6.164,9.317-16.821,4.416-25.152l-36.267-62.827c-5.002-8.284-15.228-11.782-24.256-8.299l-39.531,15.915
	c-7.05-5.043-14.548-9.428-22.4-13.099l-5.995-42.56c-1.88-9.366-10.075-16.126-19.627-16.192h-72.533
	c-9.774,0.168-18.032,7.295-19.627,16.939l-5.931,42.133c-7.787,3.692-15.239,8.054-22.272,13.035l-39.872-16
	c-9.042-3.358-19.191,0.235-24.107,8.533l-36.288,62.571c-5.053,8.499-3.068,19.421,4.651,25.6l33.749,26.283
	c-0.427,4.267-0.661,8.533-0.661,12.907s0.256,8.768,0.683,13.163l-33.92,26.603c-7.483,6.135-9.392,16.802-4.501,25.152
	l36.267,62.827c5.004,8.294,15.243,11.794,24.277,8.299l39.531-15.893c7.054,5.036,14.552,9.421,22.4,13.099l5.995,42.517
	c1.855,9.387,10.058,16.173,19.627,16.235h72.533c9.774-0.187,18.025-7.316,19.627-16.96l5.909-42.112
	c7.823-3.697,15.311-8.065,22.379-13.056l39.765,16c9.042,3.395,19.215-0.206,24.107-8.533l36.267-62.549
	c5.048-8.495,3.074-19.41-4.629-25.6L347.456,332.907z M201.472,384c-35.346,0-64-28.654-64-64s28.654-64,64-64s64,28.654,64,64
	S236.818,384,201.472,384z"/>
<path style="fill:#607D8B;" d="M492.309,124.011l-0.533-0.448l-15.851-12.288c0.128-1.515,0.192-3.051,0.192-4.629
	s0-3.157-0.128-4.715l16.149-12.672c5.542-4.901,6.911-13.007,3.285-19.456l-19.2-33.024c-3.846-6.692-11.981-9.603-19.2-6.869
	l-18.389,7.403c-2.584-1.718-5.27-3.279-8.043-4.672l-2.688-18.816C427.155,5.976,420.556-0.014,412.672,0h-38.4
	c-7.651,0.059-14.142,5.63-15.36,13.184l-2.837,19.648c-2.729,1.385-5.385,2.909-7.957,4.565l-18.773-7.552
	c-7.1-2.513-14.987,0.324-18.859,6.784l-19.328,33.472c-3.709,6.624-2.023,14.964,3.968,19.627l15.808,12.373
	c0,1.493-0.107,3.029-0.107,4.565c0,1.536,0,3.072,0.107,4.565l-16.299,12.8c-5.56,4.897-6.947,13.012-3.328,19.477l19.2,33.024
	c3.864,6.671,11.981,9.575,19.2,6.869L348.096,176c2.577,1.718,5.256,3.278,8.021,4.672l2.837,19.712
	c1.218,7.504,7.715,13.006,15.317,12.971h38.4c7.641-0.085,14.118-5.644,15.36-13.184l2.816-19.669
	c2.706-1.361,5.334-2.871,7.872-4.523l18.859,7.552c7.094,2.546,14.996-0.3,18.837-6.784l19.349-33.472
	C499.279,136.838,497.841,128.824,492.309,124.011z M393.472,149.333c-23.564,0-42.667-19.103-42.667-42.667S369.907,64,393.472,64
	c23.564,0,42.667,19.103,42.667,42.667S417.036,149.333,393.472,149.333z"/>
<g>
</g>
<g>
</g>
<g>
</g>
<g>
</g>
<g>
</g>
<g>
</g>
<g>
</g>
<g>
</g>
<g>
</g>
<g>
</g>
<g>
</g>
<g>
</g>
<g>
</g>
<g>
</g>
<g>
</g>
</svg>
