<svg height="512pt" viewBox="-51 0 512 512" width="512pt" xmlns="http://www.w3.org/2000/svg"><path d="m0 0h409.480469v512h-409.480469zm0 0" fill="#60dd4e"/><path d="m204.738281 0h204.742188v512h-204.742188zm0 0" fill="#00bb64"/><path d="m70.449219 69h268.582031v130.648438h-268.582031zm0 0" fill="#ffdf48"/><g fill="#fff"><path d="m70.738281 241h118v30h-118zm0 0"/><path d="m70.738281 299.667969h118v30h-118zm0 0"/><path d="m70.738281 358.332031h118v30h-118zm0 0"/><path d="m70.738281 417h118v30h-118zm0 0"/></g><path d="m221.117188 241h118v30h-118zm0 0" fill="#e0e4fa"/><path d="m221.117188 299.667969h118v30h-118zm0 0" fill="#e0e4fa"/><path d="m221.117188 358.332031h118v30h-118zm0 0" fill="#e0e4fa"/><path d="m221.117188 417h118v30h-118zm0 0" fill="#e0e4fa"/><path d="m204.738281 69h134.292969v130.648438h-134.292969zm0 0" fill="#fec000"/></svg>