<svg id="color" enable-background="new 0 0 24 24" height="512" viewBox="0 0 24 24" width="512" xmlns="http://www.w3.org/2000/svg"><g fill="#607d8b"><path d="m16.5 10.6c-.208 0-.414-.086-.563-.254-.274-.311-.244-.785.066-1.059l4.564-4.025c.311-.273.784-.244 1.059.066s.244.785-.066 1.059l-4.564 4.025c-.142.127-.319.188-.496.188z"/><path d="m12 8.25c-.414 0-.75-.336-.75-.75v-4c0-.414.336-.75.75-.75s.75.336.75.75v4c0 .414-.336.75-.75.75z"/><path d="m20 21.64c-.176 0-.353-.062-.495-.187l-4.33-3.81c-.312-.273-.342-.748-.068-1.059.274-.312.748-.341 1.059-.067l4.33 3.81c.312.273.342.748.068 1.059-.149.168-.356.254-.564.254z"/><path d="m3.11 21.75c-.205 0-.409-.083-.558-.248-.277-.308-.252-.782.056-1.06l4.81-4.33c.308-.278.781-.253 1.06.056.277.308.252.782-.056 1.06l-4.81 4.33c-.143.129-.323.192-.502.192z"/><path d="m7.289 10.93c-.131 0-.265-.035-.386-.107l-4.221-2.538c-.354-.213-.47-.674-.256-1.029.212-.355.671-.471 1.029-.256l4.222 2.538c.354.213.47.674.256 1.029-.141.234-.389.363-.644.363z"/></g><path d="m12 19c-3.309 0-6-2.691-6-6s2.691-6 6-6 6 2.691 6 6-2.691 6-6 6z" fill="#ffc107"/><path d="m12 17c-.414 0-.75-.336-.75-.75v-.75c0-.414.336-.75.75-.75s.75.336.75.75v.75c0 .414-.336.75-.75.75z" fill="#fafafa"/><path d="m12 11.25c-.414 0-.75-.336-.75-.75v-.75c0-.414.336-.75.75-.75s.75.336.75.75v.75c0 .414-.336.75-.75.75z" fill="#fafafa"/><path d="m12.125 16h-1.375c-.414 0-.75-.336-.75-.75s.336-.75.75-.75h1.375c.207 0 .375-.168.375-.375s-.168-.375-.375-.375h-.25c-1.034 0-1.875-.841-1.875-1.875s.841-1.875 1.875-1.875h1.375c.414 0 .75.336.75.75s-.336.75-.75.75h-1.375c-.207 0-.375.168-.375.375s.168.375.375.375h.25c1.034 0 1.875.841 1.875 1.875s-.841 1.875-1.875 1.875z" fill="#fafafa"/><path d="m12 4c-1.103 0-2-.897-2-2s.897-2 2-2 2 .897 2 2-.897 2-2 2z" fill="#03a9f4"/><path d="m22 7c-1.103 0-2-.897-2-2s.897-2 2-2 2 .897 2 2-.897 2-2 2z" fill="#03a9f4"/><path d="m21 24c-1.103 0-2-.897-2-2s.897-2 2-2 2 .897 2 2-.897 2-2 2z" fill="#03a9f4"/><path d="m2 9c-1.103 0-2-.897-2-2s.897-2 2-2 2 .897 2 2-.897 2-2 2z" fill="#03a9f4"/><path d="m2 24c-1.103 0-2-.897-2-2s.897-2 2-2 2 .897 2 2-.897 2-2 2z" fill="#03a9f4"/></svg>