<?xml version="1.0" encoding="iso-8859-1"?>
<!-- Generator: Adobe Illustrator 19.0.0, SVG Export Plug-In . SVG Version: 6.00 Build 0)  -->
<svg xmlns="http://www.w3.org/2000/svg" xmlns:xlink="http://www.w3.org/1999/xlink" version="1.1" id="Capa_1" x="0px" y="0px" viewBox="0 0 512 512" style="enable-background:new 0 0 512 512;" xml:space="preserve">
<path style="fill:#1BA88A;" d="M427.908,147.124l-15.065-6.691V14.986C412.843,6.71,406.133,0,397.857,0h-45.992  c-8.276,0-14.986,6.71-14.986,14.986v125.448l-15.065,6.691c-16.182,7.186-26.638,23.27-26.638,40.977v308.913  c0,8.276,6.71,14.986,14.986,14.986h129.399c8.276,0,14.986-6.71,14.986-14.986V188.1  C454.546,170.394,444.091,154.31,427.908,147.124z"/>
<path style="fill:#BD0058;" d="M412.843,14.986C412.843,6.71,406.133,0,397.857,0h-45.992c-8.276,0-14.986,6.71-14.986,14.986  v77.931h75.963V14.986z"/>
<path style="fill:#73CB8B;" d="M374.86,0h-22.996c-8.276,0-14.986,6.71-14.986,14.986v125.448l-15.065,6.691  c-16.182,7.186-26.638,23.27-26.638,40.977v308.913c0,8.276,6.71,14.986,14.986,14.986h64.699V0z"/>
<path style="fill:#E83A71;" d="M374.86,0h-22.996c-8.276,0-14.986,6.71-14.986,14.986v77.931h37.981V0z"/>
<path style="fill:#FFAE45;" d="M402.235,431.147V257.049c0-5.518-4.474-9.99-9.99-9.99h-97.069v194.078h97.069  C397.762,441.138,402.235,436.664,402.235,431.147z"/>
<rect x="295.174" y="247.061" style="fill:#FFD75E;" width="79.583" height="194.082"/>
<path style="fill:#5155A2;" d="M160.03,375.379c-8.276,0-14.986,6.71-14.986,14.986v102.43c0,8.276,6.71,14.986,14.986,14.986  c8.276,0,14.986-6.71,14.986-14.986v-102.43C175.016,382.089,168.306,375.379,160.03,375.379z"/>
<path style="fill:#C8C5E8;" d="M262.22,286.511l-7.442-86.235c-0.668-7.749-7.153-13.697-14.93-13.697H80.211  c-7.776,0-14.261,5.949-14.93,13.697l-7.442,86.235c-2.778,32.198,9.55,64.134,32.978,85.428  c18.974,17.246,43.554,26.744,69.212,26.744s50.238-9.498,69.212-26.743C252.671,350.645,264.999,318.709,262.22,286.511z"/>
<path style="fill:#9CA3DB;" d="M160.03,375.379c-8.276,0-14.986,6.71-14.986,14.986v102.43c0,8.276,6.71,14.986,14.986,14.986  V375.379z"/>
<path style="fill:#E8E7F3;" d="M160.03,186.579H80.211c-7.776,0-14.261,5.949-14.93,13.697L57.84,286.51  c-2.778,32.198,9.55,64.134,32.978,85.428c18.974,17.246,43.554,26.744,69.212,26.744V186.579z"/>
<path style="fill:#C8C5E8;" d="M196.55,482.029H123.51c-8.276,0-14.986,6.71-14.986,14.986S115.234,512,123.51,512h73.038  c8.276,0,14.986-6.71,14.986-14.986S204.826,482.029,196.55,482.029z"/>
<path style="fill:#E8E7F3;" d="M160.03,482.029h-36.52c-8.276,0-14.986,6.71-14.986,14.986S115.234,512,123.51,512h36.52V482.029z"/>
<path style="fill:#BD0058;" d="M260.977,272.099H59.084l-1.244,14.412c-2.778,32.198,9.55,64.134,32.978,85.428  c18.974,17.246,43.554,26.744,69.212,26.744s50.238-9.498,69.212-26.743c23.428-21.294,35.756-53.231,32.978-85.429L260.977,272.099  z"/>
<path style="fill:#E83A71;" d="M160.03,272.099H59.084l-1.244,14.412c-2.778,32.198,9.55,64.134,32.978,85.428  c18.974,17.246,43.554,26.744,69.212,26.744V272.099z"/>
<g>
</g>
<g>
</g>
<g>
</g>
<g>
</g>
<g>
</g>
<g>
</g>
<g>
</g>
<g>
</g>
<g>
</g>
<g>
</g>
<g>
</g>
<g>
</g>
<g>
</g>
<g>
</g>
<g>
</g>
</svg>
