<svg height="512pt" viewBox="0 0 512.00126 512" width="512pt" xmlns="http://www.w3.org/2000/svg"><path d="m207.363281 338.460938-34.316406-34.316407c-2.816406-2.816406-6.628906-4.390625-10.601563-4.390625-3.980468-.007812-7.800781 1.574219-10.613281 4.390625l-140.371093 140.367188c-15.296876 15.296875-15.277344 40.195312.035156 55.507812 15.308594 15.308594 40.199218 15.324219 55.496094.027344l140.371093-140.371094c5.863281-5.863281 5.863281-15.351562 0-21.214843zm0 0" fill="#a7eaf9"/><path d="m207.363281 338.460938-17.15625-17.15625-178.710937 178.714843c15.308594 15.308594 40.203125 15.324219 55.496094.027344l140.371093-140.371094c5.863281-5.863281 5.863281-15.351562 0-21.214843zm0 0" fill="#76e1f7"/><path d="m450.867188 61.300781-.699219-.699219c-81.570313-81.042968-213.207031-80.792968-294.476563.699219-81.28125 81.5-81.511718 213.488281-.703125 295.289063l.703125.699218c81.507813 81.730469 213.65625 81.738282 295.175782 0 81.511718-81.730468 81.511718-214.257812 0-295.988281zm0 0" fill="#ddebf0"/><path d="m450.867188 61.300781-.699219-.699219-295.179688 295.988282.703125.699218c81.507813 81.730469 213.65625 81.738282 295.175782 0 81.511718-81.730468 81.511718-214.257812 0-295.988281zm0 0" fill="#c4e1e8"/><path d="m311.800781 280.371094c-2.28125-2.273438-5.570312-3.53125-8.871093-3.53125-3.289063 0-6.332032 1.257812-8.859376 3.53125-2.28125 2.527344-3.542968 5.558594-3.542968 8.839844 0 3.289062 1.261718 6.570312 3.542968 8.839843 2.527344 2.527344 5.570313 3.789063 8.859376 3.789063 3.300781 0 6.589843-1.261719 8.871093-3.789063 2.527344-2.269531 3.796875-5.550781 3.796875-8.839843 0-3.28125-1.269531-6.3125-3.796875-8.839844zm41.097657-122.242188c-7.429688-19.089844-26.058594-32.550781-47.6875-32.550781-28.101563 0-50.890626 22.730469-50.890626 51.011719 0 6.820312 5.570313 12.378906 12.410157 12.378906 5.820312 0 10.878906-3.789062 12.148437-9.089844.761719-17.429687 12.148438-29.039062 26.332032-29.039062 14.179687 0 25.578124 11.609375 25.578124 25.75 0 1.359375-.101562 2.710937-.308593 4.03125-.703125 4.570312-2.632813 8.859375-5.769531 12.386718l-21.78125 22.222657c-8.101563 9.339843-12.660157 22.46875-12.152344 35.847656 1.523437 5.5625 6.582031 9.351563 12.152344 9.351563 5.828124 0 10.890624-3.789063 12.410156-9.351563.507812-7.820313 3.039062-15.648437 8.097656-20.699219l20.511719-20.710937c7.851562-9.339844 12.410156-20.957031 12.410156-33.078125 0-6.519532-1.21875-12.742188-3.460937-18.460938zm0 0" fill="#3caafd"/><g fill="#0083db" fill-rule="evenodd"><path d="m311.800781 280.371094c2.527344 2.527344 3.796875 5.558594 3.796875 8.839844 0 3.289062-1.269531 6.570312-3.796875 8.839843-2.28125 2.527344-5.570312 3.789063-8.871093 3.789063-3.289063 0-6.332032-1.261719-8.859376-3.789063-2.28125-2.269531-3.542968-5.550781-3.542968-8.839843 0-3.28125 1.261718-6.3125 3.542968-8.839844 2.527344-2.273438 5.570313-3.53125 8.859376-3.53125 3.300781 0 6.589843 1.257812 8.871093 3.53125zm0 0"/><path d="m356.359375 176.589844c0 12.121094-4.558594 23.738281-12.410156 33.078125l-20.511719 20.710937c-5.058594 5.050782-7.589844 12.878906-8.097656 20.699219-1.519532 5.5625-6.582032 9.351563-12.410156 9.351563-5.570313 0-10.628907-3.789063-12.152344-9.351563-.507813-13.378906 4.050781-26.507813 12.152344-35.847656l21.78125-22.222657c3.136718-3.527343 5.066406-7.816406 5.769531-12.386718l22.417969-22.492188c2.242187 5.71875 3.460937 11.941406 3.460937 18.460938zm0 0"/></g></svg>