<svg height="512pt" viewBox="0 0 512 512" width="512pt" xmlns="http://www.w3.org/2000/svg"><path d="m341.332031 469.332031h-42.664062v-42.664062h-85.335938v42.664062h-42.664062c-11.777344 0-21.335938 9.558594-21.335938 21.335938 0 11.773437 9.558594 21.332031 21.335938 21.332031h170.664062c11.796875 0 21.335938-9.558594 21.335938-21.332031 0-11.777344-9.539063-21.335938-21.335938-21.335938zm0 0" fill="#607d8b"/><path d="m474.667969 85.332031h-437.335938c-20.585937 0-37.332031 16.746094-37.332031 37.335938v266.664062c0 20.589844 16.746094 37.335938 37.332031 37.335938h437.335938c20.585937 0 37.332031-16.746094 37.332031-37.335938v-266.664062c0-20.589844-16.746094-37.335938-37.332031-37.335938zm0 0" fill="#607d8b"/><path d="m42.667969 128h426.664062v256h-426.664062zm0 0" fill="#fff"/><path d="m394.667969 138.667969c0 76.582031-62.085938 138.664062-138.667969 138.664062s-138.667969-62.082031-138.667969-138.664062c0-76.585938 62.085938-138.667969 138.667969-138.667969s138.667969 62.082031 138.667969 138.667969zm0 0" fill="#4caf50"/><path d="m303.082031 185.75c-4.160156 4.160156-9.621093 6.25-15.082031 6.25s-10.921875-2.089844-15.082031-6.25l-32-32c-4.011719-3.988281-6.25-9.410156-6.25-15.082031v-53.335938c0-11.796875 9.554687-21.332031 21.332031-21.332031s21.332031 9.535156 21.332031 21.332031v44.503907l25.75 25.75c8.34375 8.339843 8.34375 21.820312 0 30.164062zm0 0" fill="#fff"/></svg>