<?xml version="1.0" encoding="iso-8859-1"?>
<!-- Generator: Adobe Illustrator 19.0.0, SVG Export Plug-In . SVG Version: 6.00 Build 0)  -->
<svg xmlns="http://www.w3.org/2000/svg" xmlns:xlink="http://www.w3.org/1999/xlink" version="1.1" id="Layer_1" x="0px" y="0px" viewBox="0 0 512.163 512.163" style="enable-background:new 0 0 512.163 512.163;" xml:space="preserve">
<path style="fill:#415A6B;" d="M289.131,486.563c0,13.867-14.933,25.6-33.067,25.6c-18.133,0-33.067-11.733-33.067-25.6H289.131z"/>
<path style="fill:#F3F3F3;" d="M264.597,0.163c-101.333-4.267-184.533,75.733-184.533,176c0,52.267,22.4,98.133,58.667,131.2  c27.733,24.533,44.8,58.667,45.867,96h142.933c1.067-37.333,18.133-71.467,45.867-96c36.267-33.067,59.733-81.067,58.667-134.4  C430.997,82.296,356.331,4.43,264.597,0.163z"/>
<path style="fill:#FFD15C;" d="M343.531,154.83c-3.2-3.2-8.533-3.2-11.733,0c-5.333,5.333-13.867,8.533-21.333,8.533l0,0  c-8.533,0-16-3.2-21.333-8.533c-18.133-18.133-48-18.133-66.133,0c-5.333,5.333-13.867,8.533-21.333,8.533l0,0  c-8.533,0-16-3.2-21.333-8.533c-3.2-3.2-8.533-3.2-11.733,0c-3.2,3.2-3.2,8.533,0,11.733c6.4,6.4,13.867,10.667,23.467,12.8  l45.867,218.667l16-3.2l-44.8-215.467c9.6-1.067,19.2-5.333,26.667-12.8c11.733-11.733,30.933-11.733,43.733,0  c7.467,7.467,17.067,11.733,26.667,12.8L259.264,394.83l16,3.2l45.867-218.667c8.533-2.133,17.067-6.4,23.467-12.8  C346.731,163.363,346.731,158.03,343.531,154.83z"/>
<path style="fill:#344A5E;" d="M184.597,403.363v58.667c0,13.867,10.667,24.533,24.533,24.533h94.933  c13.867,0,24.533-10.667,24.533-24.533v-58.667H184.597z"/>
<g>
	<path style="fill:#415A6B;" d="M184.597,410.83h144c8.533,0,14.933-6.4,14.933-14.933c0-8.533-6.4-14.933-14.933-14.933h-144   c-8.533,0-14.933,6.4-14.933,14.933C169.664,404.43,176.064,410.83,184.597,410.83z"/>
	<path style="fill:#415A6B;" d="M327.531,427.896H184.597c-8.533,0-14.933,6.4-14.933,14.933c0,8.533,6.4,14.933,14.933,14.933h144   c8.533,0,14.933-6.4,14.933-14.933C343.531,434.296,336.064,427.896,327.531,427.896z"/>
</g>
<g>
</g>
<g>
</g>
<g>
</g>
<g>
</g>
<g>
</g>
<g>
</g>
<g>
</g>
<g>
</g>
<g>
</g>
<g>
</g>
<g>
</g>
<g>
</g>
<g>
</g>
<g>
</g>
<g>
</g>
</svg>
