<?xml version="1.0" encoding="iso-8859-1"?>
<!-- Generator: Adobe Illustrator 19.0.0, SVG Export Plug-In . SVG Version: 6.00 Build 0)  -->
<svg xmlns="http://www.w3.org/2000/svg" xmlns:xlink="http://www.w3.org/1999/xlink" version="1.1" id="Layer_1" x="0px" y="0px" viewBox="0 0 512 512" style="enable-background:new 0 0 512 512;" xml:space="preserve">
<path style="fill:#FF7560;" d="M65.717,436.462c-4.618-4.35-6.001-11.133-3.454-16.942L242.262,8.957  c5.241-11.954,22.244-11.932,27.476,0L449.737,419.52c2.547,5.81,1.164,12.593-3.454,16.942  C339.395,537.124,172.721,537.234,65.717,436.462z"/>
<g>
	<path style="fill:#FE5947;" d="M449.737,419.52L269.738,8.957C267.122,2.99,261.561,0.002,256,0v511.999   c68.42-0.003,136.828-25.196,190.283-75.537C450.901,432.112,452.284,425.329,449.737,419.52z"/>
	<ellipse style="fill:#FE5947;" cx="256" cy="179.66" rx="14.971" ry="15"/>
	<ellipse style="fill:#FE5947;" cx="224.18" cy="262.3" rx="14.971" ry="15"/>
</g>
<g>
	<ellipse style="fill:#ED433C;" cx="287.82" cy="262.3" rx="14.971" ry="15"/>
	<path style="fill:#ED433C;" d="M270.971,179.66c0-8.284-6.703-15-14.971-15v30C264.268,194.66,270.971,187.945,270.971,179.66z"/>
</g>
<path style="fill:#D63A35;" d="M302.794,262.298c0-8.284-6.703-15-14.971-15v30C296.091,277.298,302.794,270.582,302.794,262.298z"/>
<path style="fill:#ED433C;" d="M239.147,262.298c0-8.284-6.703-15-14.971-15v30C232.445,277.298,239.147,270.582,239.147,262.298z"/>
<path style="fill:#FFFAFD;" d="M449.737,419.52l-45.211-103.123c-27.839,53.662-83.898,90.33-148.527,90.33  c-64.628,0-120.686-36.666-148.526-90.327l-45.21,103.12c-2.547,5.81-1.164,12.593,3.454,16.942  c107.004,100.772,273.679,100.662,380.566,0C450.901,432.112,452.284,425.329,449.737,419.52z"/>
<path style="fill:#B9DF6B;" d="M449.737,419.52l-32.235-73.524c-34.613,52.386-94.017,86.952-161.504,86.952  c-67.486,0-126.889-34.565-161.502-86.949L62.263,419.52c-2.547,5.81-1.164,12.593,3.454,16.942  c107.004,100.772,273.679,100.662,380.566,0C450.901,432.112,452.284,425.329,449.737,419.52z"/>
<path style="fill:#FBF3F6;" d="M449.737,419.52l-45.211-103.123c-27.839,53.662-83.898,90.33-148.527,90.33l-0.559,105.267  c68.607,0.135,137.243-25.052,190.844-75.531C450.901,432.112,452.284,425.329,449.737,419.52z"/>
<path style="fill:#AED164;" d="M449.737,419.52l-32.235-73.524c-34.613,52.386-94.017,86.952-161.504,86.952  c-0.187,0-0.372-0.008-0.559-0.009v79.055c68.607,0.135,137.243-25.052,190.844-75.531  C450.901,432.112,452.284,425.329,449.737,419.52z"/>
<g>
</g>
<g>
</g>
<g>
</g>
<g>
</g>
<g>
</g>
<g>
</g>
<g>
</g>
<g>
</g>
<g>
</g>
<g>
</g>
<g>
</g>
<g>
</g>
<g>
</g>
<g>
</g>
<g>
</g>
</svg>
