<svg height="512pt" viewBox="0 0 512.00533 512" width="512pt" xmlns="http://www.w3.org/2000/svg"><path d="m505.75 475.585938-145.601562-145.621094c28.203124-34.816406 45.183593-79.082032 45.183593-127.296875 0-111.742188-90.921875-202.66406275-202.664062-202.66406275-111.746094 0-202.667969 90.92187475-202.667969 202.66406275 0 111.746093 90.921875 202.667969 202.667969 202.667969 48.210937 0 92.480469-16.980469 127.316406-45.207032l145.601563 145.625c4.15625 4.15625 9.621093 6.25 15.082031 6.25 5.460937 0 10.921875-2.09375 15.082031-6.25 8.339844-8.34375 8.339844-21.824218 0-30.167968zm0 0" fill="#00bcd4"/><path d="m281.664062 212.675781c.425782-3.308593 1.003907-6.59375 1.003907-10.007812 0-3.433594-.597657-6.699219-1.003907-10.003907l19.222657-14.550781c4.285156-3.242187 5.480469-9.171875 2.792969-13.84375l-17.257813-29.867187c-2.6875-4.648438-8.425781-6.589844-13.375-4.5l-22.125 9.320312c-5.398437-4.117187-11.136719-7.742187-17.472656-10.386718l-2.941407-23.488282c-.683593-5.335937-5.207031-9.34375-10.582031-9.34375h-34.519531c-5.375 0-9.917969 4.007813-10.578125 9.34375l-2.925781 23.488282c-6.355469 2.644531-12.09375 6.292968-17.492188 10.386718l-22.101562-9.320312c-4.96875-2.089844-10.707032-.171875-13.398438 4.5l-17.234375 29.867187c-2.6875 4.652344-1.496093 10.582031 2.792969 13.84375l19.222656 14.550781c-.425781 3.304688-1.023437 6.570313-1.023437 10.003907 0 3.4375.597656 6.699219 1 10.007812l-19.21875 14.546875c-4.289063 3.242188-5.484375 9.175782-2.796875 13.847656l17.257812 29.867188c2.691406 4.648438 8.429688 6.589844 13.378906 4.5l22.121094-9.34375c5.398438 4.117188 11.136719 7.742188 17.472656 10.390625l2.945313 23.484375c.660156 5.335938 5.203125 9.347656 10.578125 9.347656h34.496094c5.378906 0 9.921875-4.011718 10.582031-9.347656l2.945313-23.484375c6.335937-2.648437 12.09375-6.296875 17.472656-10.390625l22.121094 9.320312c4.949218 2.09375 10.6875.171876 13.375-4.5l17.261718-29.886718c2.6875-4.652344 1.492188-10.582032-2.796875-13.847656zm0 0" fill="#fff"/><path d="m245.332031 202.667969c0 23.566406-19.101562 42.667969-42.664062 42.667969-23.566407 0-42.667969-19.101563-42.667969-42.667969 0-23.5625 19.101562-42.664063 42.667969-42.664063 23.5625 0 42.664062 19.101563 42.664062 42.664063zm0 0" fill="#00bcd4"/></svg>