<svg height="512pt" viewBox="0 0 512 512" width="512pt" xmlns="http://www.w3.org/2000/svg"><path d="m512 256c0 141.386719-114.613281 256-256 256s-256-114.613281-256-256 114.613281-256 256-256 256 114.613281 256 256zm0 0" fill="#ff8dc1"/><path d="m256 0c-9.355469 0-18.59375.515625-27.691406 1.496094 128.359375 13.808594 228.308594 122.476562 228.308594 254.503906s-99.949219 240.695312-228.308594 254.503906c9.097656.980469 18.335937 1.496094 27.691406 1.496094 141.386719 0 256-114.613281 256-256s-114.613281-256-256-256zm0 0" fill="#ff547f"/><path d="m467.636719 256c0 116.882812-94.753907 211.636719-211.636719 211.636719s-211.636719-94.753907-211.636719-211.636719 94.753907-211.636719 211.636719-211.636719 211.636719 94.753907 211.636719 211.636719zm0 0" fill="#fafaff"/><path d="m256 44.363281c-9.585938 0-19.019531.648438-28.265625 1.882813 103.519531 13.820312 183.371094 102.457031 183.371094 209.753906s-79.851563 195.933594-183.371094 209.753906c9.246094 1.234375 18.679687 1.882813 28.265625 1.882813 116.882812 0 211.636719-94.753907 211.636719-211.636719s-94.753907-211.636719-211.636719-211.636719zm0 0" fill="#e6e6f2"/><path d="m263.726562 244v-109.300781c0-4.265625-3.460937-7.722657-7.726562-7.722657s-7.726562 3.457032-7.726562 7.722657v109.300781zm0 0" fill="#3a90c8"/><path d="m331.5625 320.636719-60.730469-60.636719-10.894531 10.9375 60.699219 60.625c1.507812 1.507812 3.484375 2.261719 5.460937 2.261719 1.976563 0 3.957032-.753907 5.464844-2.261719 3.015625-3.015625 3.015625-7.910156 0-10.925781zm0 0" fill="#3a90c8"/><path d="m278.679688 256c0 12.523438-10.15625 22.679688-22.679688 22.679688s-22.679688-10.15625-22.679688-22.679688 10.15625-22.679688 22.679688-22.679688 22.679688 10.15625 22.679688 22.679688zm0 0" fill="#ff7e7e"/><g fill="#ff9d00"><path d="m256 104.75c-4.265625 0-7.726562-3.457031-7.726562-7.726562v-15.289063c0-4.269531 3.460937-7.726563 7.726562-7.726563s7.726562 3.457032 7.726562 7.726563v15.289063c0 4.269531-3.460937 7.726562-7.726562 7.726562zm0 0"/><path d="m256 437.992188c-4.265625 0-7.726562-3.457032-7.726562-7.726563v-15.289063c0-4.265624 3.460937-7.726562 7.726562-7.726562s7.726562 3.460938 7.726562 7.726562v15.289063c0 4.269531-3.460937 7.726563-7.726562 7.726563zm0 0"/><path d="m430.265625 263.726562h-15.289063c-4.265624 0-7.726562-3.460937-7.726562-7.726562s3.460938-7.726562 7.726562-7.726562h15.289063c4.269531 0 7.726563 3.460937 7.726563 7.726562s-3.457032 7.726562-7.726563 7.726562zm0 0"/><path d="m97.023438 263.726562h-15.289063c-4.269531 0-7.726563-3.460937-7.726563-7.726562s3.457032-7.726562 7.726563-7.726562h15.289063c4.265624 0 7.726562 3.460937 7.726562 7.726562s-3.457031 7.726562-7.726562 7.726562zm0 0"/><path d="m379.226562 386.949219c-1.980468 0-3.957031-.753907-5.464843-2.261719l-10.8125-10.8125c-3.015625-3.015625-3.015625-7.90625 0-10.925781 3.019531-3.015625 7.910156-3.015625 10.929687 0l10.808594 10.8125c3.019531 3.015625 3.019531 7.910156 0 10.925781-1.507812 1.507812-3.484375 2.261719-5.460938 2.261719zm0 0"/><path d="m143.589844 151.3125c-1.980469 0-3.957032-.753906-5.464844-2.261719l-10.8125-10.8125c-3.015625-3.015625-3.015625-7.910156 0-10.925781s7.910156-3.015625 10.925781 0l10.8125 10.8125c3.019531 3.015625 3.019531 7.90625 0 10.925781-1.507812 1.507813-3.484375 2.261719-5.460937 2.261719zm0 0"/><path d="m368.410156 151.3125c-1.976562 0-3.953125-.753906-5.460937-2.261719-3.019531-3.015625-3.019531-7.910156 0-10.925781l10.8125-10.8125c3.015625-3.015625 7.910156-3.015625 10.925781 0 3.019531 3.015625 3.019531 7.910156 0 10.925781l-10.8125 10.8125c-1.507812 1.507813-3.484375 2.261719-5.464844 2.261719zm0 0"/><path d="m132.773438 386.949219c-1.976563 0-3.953126-.753907-5.460938-2.261719-3.019531-3.015625-3.019531-7.910156 0-10.925781l10.8125-10.8125c3.015625-3.015625 7.90625-3.015625 10.925781 0s3.019531 7.910156 0 10.925781l-10.8125 10.8125c-1.507812 1.507812-3.484375 2.261719-5.464843 2.261719zm0 0"/></g></svg>