<?xml version="1.0" encoding="iso-8859-1"?>
<!-- Generator: Adobe Illustrator 19.0.0, SVG Export Plug-In . SVG Version: 6.00 Build 0)  -->
<svg version="1.1" id="Capa_1" xmlns="http://www.w3.org/2000/svg" xmlns:xlink="http://www.w3.org/1999/xlink" x="0px" y="0px"
	 viewBox="0 0 512 512" style="enable-background:new 0 0 512 512;" xml:space="preserve">
<path style="fill:#AD866F;" d="M299.368,110.667c-4.331-37.708,20.954-83.257,30.987-102.579h-94.033
	c-16.659,25.505-28.658,56.272-29.685,102.579H299.368z"/>
<g>
	<path style="fill:#FF3F2E;" d="M414.876,119.754h-30.308c-41.324,0-74.944,33.62-74.944,74.944v212.366
		c0,41.324,33.62,74.944,74.944,74.944h30.308c53.555,0,97.124-43.569,97.124-97.124V216.878
		C512,163.323,468.431,119.754,414.876,119.754z"/>
	<path style="fill:#FF3F2E;" d="M127.432,119.754H97.124C43.569,119.754,0,163.323,0,216.878v168.007
		c0,53.555,43.569,97.124,97.124,97.124h30.308c41.324,0,74.944-33.62,74.944-74.944V194.698
		C202.376,153.374,168.756,119.754,127.432,119.754z"/>
</g>
<path style="fill:#FF5842;" d="M352.887,106.849c-20.759,0-66.74-4.858-96.887,40.653c-29.745-44.905-74.98-40.653-96.887-40.653
	c-49.896,0-90.489,40.594-90.489,90.489v207.087c0,49.896,40.594,90.488,90.489,90.488c20.729,0,66.74,4.859,96.887-40.652
	c29.745,44.905,74.98,40.652,96.887,40.652c49.896,0,90.489-40.593,90.489-90.488V197.338
	C443.376,147.442,402.782,106.849,352.887,106.849z"/>
<path style="fill:#FF6C52;" d="M266.699,98.379h-21.398c-49.895,0-90.489,40.594-90.489,90.489v224.555
	c0,49.895,40.594,90.489,90.489,90.489h21.398c49.896,0,90.489-40.594,90.489-90.489V188.868
	C357.189,138.973,316.595,98.379,266.699,98.379z"/>
<g>
</g>
<g>
</g>
<g>
</g>
<g>
</g>
<g>
</g>
<g>
</g>
<g>
</g>
<g>
</g>
<g>
</g>
<g>
</g>
<g>
</g>
<g>
</g>
<g>
</g>
<g>
</g>
<g>
</g>
</svg>
