<svg height="495pt" viewBox="-55 0 495 495.97721" width="495pt" xmlns="http://www.w3.org/2000/svg"><path d="m160.503906 455.976562c0-22.09375 14.328125-40 32-40s32 17.90625 32 40c0 9-2.375 17.3125-6.40625 24-5.832031 9.71875-15.128906 16-25.59375 16-17.671875 0-32-17.917968-32-40zm0 0" fill="#967adc"/><path d="m128.503906 415.953125c0-22.097656 14.328125-40 32-40s32 17.902344 32 40c0 9-2.375 17.3125-6.40625 24-5.832031 9.71875-15.128906 16-25.59375 16-17.671875 0-32-17.917969-32-40zm0 0" fill="#ac92ec"/><path d="m192.550781 415.953125c0-22.097656 14.328125-40 32-40s32 17.902344 32 40c0 9-2.375 17.3125-6.40625 24-5.832031 9.71875-15.128906 16-25.59375 16-17.671875 0-32-17.917969-32-40zm0 0" fill="#ac92ec"/><path d="m96.503906 375.96875c0-22.09375 14.328125-40 32-40s32 17.90625 32 40c0 9-2.375 17.3125-6.40625 24-5.832031 9.71875-15.128906 16-25.59375 16-17.671875 0-32-17.917969-32-40zm0 0" fill="#967adc"/><path d="m160.503906 375.96875c0-22.09375 14.328125-40 32-40s32 17.90625 32 40c0 9-2.375 17.3125-6.40625 24-5.832031 9.71875-15.128906 16-25.59375 16-17.671875 0-32-17.917969-32-40zm0 0" fill="#967adc"/><path d="m224.550781 375.96875c0-22.09375 14.328125-40 32-40s32 17.90625 32 40c0 9-2.375 17.3125-6.40625 24-5.832031 9.71875-15.128906 16-25.59375 16-17.671875 0-32-17.917969-32-40zm0 0" fill="#967adc"/><path d="m205.136719 192.890625c-5.359375 0-10.585938-2.6875-13.617188-7.570313-49.832031-80.40625 5.800781-166.335937 30.273438-182.640624 7.351562-4.886719 17.28125-2.910157 22.183593 4.457031 4.894532 7.351562 2.902344 17.28125-4.457031 22.183593-12.847656 8.554688-60.800781 74.617188-20.808593 139.144532 4.65625 7.511718 2.335937 17.375-5.167969 22.03125-2.613281 1.625-5.527344 2.394531-8.40625 2.394531zm0 0" fill="#a0d468"/><path d="m64.503906 335.984375c0-22.09375 14.328125-40 32-40s32 17.90625 32 40c0 9-2.375 17.3125-6.40625 24-5.832031 9.722656-15.128906 16-25.59375 16-17.671875 0-32-17.917969-32-40zm0 0" fill="#ac92ec"/><path d="m128.496094 335.984375c0-22.09375 14.328125-40 32-40s32 17.90625 32 40c0 9-2.375 17.3125-6.40625 24-5.832032 9.722656-15.128906 16-25.59375 16-17.671875 0-32-17.917969-32-40zm0 0" fill="#ac92ec"/><path d="m192.488281 335.984375c0-22.09375 14.328125-40 32-40s32 17.90625 32 40c0 9-2.375 17.3125-6.40625 24-5.832031 9.722656-15.128906 16-25.59375 16-17.671875 0-32-17.917969-32-40zm0 0" fill="#ac92ec"/><path d="m256.535156 335.984375c0-22.09375 14.328125-40 32-40s32 17.90625 32 40c0 9-2.375 17.3125-6.40625 24-5.832031 9.722656-15.128906 16-25.59375 16-17.671875 0-32-17.917969-32-40zm0 0" fill="#ac92ec"/><path d="m64.503906 176.015625c0-22.09375 14.328125-40 32-40s32 17.90625 32 40c0 9-2.375 17.3125-6.40625 24-5.832031 9.722656-15.128906 16-25.59375 16-17.671875 0-32-17.917969-32-40zm0 0" fill="#ac92ec"/><path d="m128.496094 176.015625c0-22.09375 14.328125-40 32-40s32 17.90625 32 40c0 9-2.375 17.3125-6.40625 24-5.832032 9.722656-15.128906 16-25.59375 16-17.671875 0-32-17.917969-32-40zm0 0" fill="#ac92ec"/><path d="m192.488281 176.015625c0-22.09375 14.328125-40 32-40s32 17.90625 32 40c0 9-2.375 17.3125-6.40625 24-5.832031 9.722656-15.128906 16-25.59375 16-17.671875 0-32-17.917969-32-40zm0 0" fill="#ac92ec"/><path d="m256.535156 176.015625c0-22.09375 14.328125-40 32-40s32 17.90625 32 40c0 9-2.375 17.3125-6.40625 24-5.832031 9.722656-15.128906 16-25.59375 16-17.671875 0-32-17.917969-32-40zm0 0" fill="#ac92ec"/><g fill="#967adc"><path d="m32.503906 295.992188c0-22.09375 14.328125-40 32-40s32 17.90625 32 40c0 9-2.375 17.3125-6.40625 24-5.832031 9.722656-15.128906 16-25.59375 16-17.671875 0-32-17.917969-32-40zm0 0"/><path d="m96.503906 295.992188c0-22.09375 14.328125-40 32-40s32 17.90625 32 40c0 9-2.375 17.3125-6.40625 24-5.832031 9.722656-15.128906 16-25.59375 16-17.671875 0-32-17.917969-32-40zm0 0"/><path d="m160.503906 295.992188c0-22.09375 14.328125-40 32-40s32 17.90625 32 40c0 9-2.375 17.3125-6.40625 24-5.832031 9.722656-15.128906 16-25.59375 16-17.671875 0-32-17.917969-32-40zm0 0"/><path d="m224.503906 295.992188c0-22.09375 14.328125-40 32-40s32 17.90625 32 40c0 9-2.375 17.3125-6.40625 24-5.832031 9.722656-15.128906 16-25.59375 16-17.671875 0-32-17.917969-32-40zm0 0"/><path d="m288.550781 295.992188c0-22.09375 14.328125-40 32-40s32 17.90625 32 40c0 9-2.375 17.3125-6.40625 24-5.832031 9.722656-15.128906 16-25.59375 16-17.671875 0-32-17.917969-32-40zm0 0"/><path d="m32.503906 216.035156c0-22.097656 14.328125-40 32-40s32 17.902344 32 40c0 9-2.375 17.308594-6.40625 24-5.832031 9.71875-15.128906 16-25.59375 16-17.671875 0-32-17.921875-32-40zm0 0"/><path d="m96.503906 216.035156c0-22.097656 14.328125-40 32-40s32 17.902344 32 40c0 9-2.375 17.308594-6.40625 24-5.832031 9.71875-15.128906 16-25.59375 16-17.671875 0-32-17.921875-32-40zm0 0"/><path d="m160.503906 216.035156c0-22.097656 14.328125-40 32-40s32 17.902344 32 40c0 9-2.375 17.308594-6.40625 24-5.832031 9.71875-15.128906 16-25.59375 16-17.671875 0-32-17.921875-32-40zm0 0"/><path d="m224.503906 216.035156c0-22.097656 14.328125-40 32-40s32 17.902344 32 40c0 9-2.375 17.308594-6.40625 24-5.832031 9.71875-15.128906 16-25.59375 16-17.671875 0-32-17.921875-32-40zm0 0"/><path d="m288.550781 216.035156c0-22.097656 14.328125-40 32-40s32 17.902344 32 40c0 9-2.375 17.308594-6.40625 24-5.832031 9.71875-15.128906 16-25.59375 16-17.671875 0-32-17.921875-32-40zm0 0"/></g><path d="m.488281 256.015625c0-22.09375 14.328125-40 32-40s32 17.90625 32 40c0 9-2.375 17.3125-6.40625 24-5.832031 9.722656-15.128906 16-25.59375 16-17.671875 0-32-17.917969-32-40zm0 0" fill="#ac92ec"/><path d="m64.503906 256.015625c0-22.09375 14.328125-40 32-40s32 17.90625 32 40c0 9-2.375 17.3125-6.40625 24-5.832031 9.722656-15.128906 16-25.59375 16-17.671875 0-32-17.917969-32-40zm0 0" fill="#ac92ec"/><path d="m128.519531 256.015625c0-22.09375 14.328125-40 32-40s32 17.90625 32 40c0 9-2.375 17.3125-6.40625 24-5.832031 9.722656-15.128906 16-25.59375 16-17.671875 0-32-17.917969-32-40zm0 0" fill="#ac92ec"/><path d="m192.535156 256.015625c0-22.09375 14.328125-40 32-40s32 17.90625 32 40c0 9-2.375 17.3125-6.40625 24-5.832031 9.722656-15.128906 16-25.59375 16-17.671875 0-32-17.917969-32-40zm0 0" fill="#ac92ec"/><path d="m256.550781 256.015625c0-22.09375 14.328125-40 32-40s32 17.90625 32 40c0 9-2.375 17.3125-6.40625 24-5.832031 9.722656-15.128906 16-25.59375 16-17.671875 0-32-17.917969-32-40zm0 0" fill="#ac92ec"/><path d="m320.550781 256.015625c0-22.09375 14.328125-40 32-40s32 17.90625 32 40c0 9-2.375 17.3125-6.40625 24-5.832031 9.722656-15.128906 16-25.59375 16-17.671875 0-32-17.917969-32-40zm0 0" fill="#ac92ec"/></svg>