<svg height="512" viewBox="0 0 64 64" width="512" xmlns="http://www.w3.org/2000/svg"><g id="Icon"><path d="m35.5 52h-10a1 1 0 0 0 -1 1v1a6 6 0 0 0 12 0v-1a1 1 0 0 0 -1-1z" fill="#ffcb29"/><path d="m35.5 12.8a1.027 1.027 0 0 1 -.3-.047 15.312 15.312 0 0 0 -4.1-.739 15.727 15.727 0 0 0 -5.3.716 1 1 0 0 1 -1.3-.955v-1.775a6 6 0 0 1 12 0v1.8a1 1 0 0 1 -1 1zm-4.328-2.785a16.836 16.836 0 0 1 3.328.467v-.482a4 4 0 0 0 -8 0v.464a17.776 17.776 0 0 1 4.672-.452z" fill="#ffcb29"/><path d="m50.208 46.272a1.343 1.343 0 0 1 -1.291-1.386v-12.907a1 1 0 0 0 -.312-.726 1.282 1.282 0 0 0 -1.105-.253 6.994 6.994 0 0 1 -3.589-13 1 1 0 0 0 .25-1.5 17.746 17.746 0 0 0 -26.182-1.4 19.557 19.557 0 0 0 -5.9 14.034v15.75a1.343 1.343 0 0 1 -1.291 1.386 3.345 3.345 0 0 0 -3.288 3.389v.955a3.344 3.344 0 0 0 3.292 3.386h39.416a3.344 3.344 0 0 0 3.292-3.386v-.955a3.345 3.345 0 0 0 -3.292-3.387z" fill="#ffe081"/><circle cx="47.5" cy="24" fill="#e57373" r="9"/><path d="m47.5 29a1 1 0 0 1 -1-1v-5.586l-.293.293a1 1 0 0 1 -1.414-1.414l2-2a1 1 0 0 1 1.707.707v8a1 1 0 0 1 -1 1z" fill="#fafbfb"/></g></svg>