<svg height="512" viewBox="0 0 48 48" width="512" xmlns="http://www.w3.org/2000/svg"><g id="Line"><path d="m35 2h-30c-.552 0-1 .447-1 1v38c0 .553.448 1 1 1h4c.312 0 .605-.146.794-.393l26-34c.134-.174.206-.387.206-.607v-4c0-.553-.448-1-1-1z" fill="#d1d1d1"/><path d="m39 6h-30c-.552 0-1 .447-1 1v38c0 .553.448 1 1 1h21c.351 0 .677-.185.857-.485l9-15c.094-.156.143-.333.143-.515v-23c0-.553-.448-1-1-1z" fill="#ededed"/><g><path d="m29 14h-10c-.552 0-1-.447-1-1s.448-1 1-1h10c.552 0 1 .447 1 1s-.448 1-1 1z" fill="#bbb"/></g><g><path d="m34 18h-20c-.552 0-1-.447-1-1s.448-1 1-1h20c.552 0 1 .447 1 1s-.448 1-1 1z" fill="#bbb"/></g><g><path d="m34 22h-20c-.552 0-1-.447-1-1s.448-1 1-1h20c.552 0 1 .447 1 1s-.448 1-1 1z" fill="#bbb"/></g><g><path d="m34 26h-20c-.552 0-1-.447-1-1s.448-1 1-1h20c.552 0 1 .447 1 1s-.448 1-1 1z" fill="#bbb"/></g><g><path d="m28 30h-14c-.552 0-1-.447-1-1s.448-1 1-1h14c.552 0 1 .447 1 1s-.448 1-1 1z" fill="#bbb"/></g><g><path d="m19 38h-5c-.552 0-1-.447-1-1s.448-1 1-1h5c.552 0 1 .447 1 1s-.448 1-1 1z" fill="#bbb"/></g><path d="m41.398 33h-7.798c-1.436 0-2.6.447-2.6 1v8c0 .553 1.164 1 2.6 1h7.799c1.436 0 2.6-.447 2.6-1v-8c-.001-.553-1.165-1-2.601-1z" fill="#b58100"/><path d="m34 33h-3c-.552 0-1 .447-1 1v8c0 .553.448 1 1 1h3c.552 0 1-.447 1-1v-8c0-.553-.448-1-1-1z" fill="#f0ab00"/><path d="m42.998 33h-3c-.552 0-1 .447-1 1v8c0 .553.448 1 1 1h3c.552 0 1-.447 1-1v-8c0-.553-.448-1-1-1z" fill="#f0ab00"/><g fill="#f5c12e"><path d="m45.53 33.152-8-5c-.324-.203-.735-.203-1.06 0l-8 5c-.378.236-.555.694-.432 1.123s.516.725.962.725h16c.446 0 .838-.296.961-.725s-.053-.886-.431-1.123z"/><path d="m45 41h-16c-.552 0-1 .447-1 1v3c0 .553.448 1 1 1h16c.552 0 1-.447 1-1v-3c0-.553-.448-1-1-1z"/></g></g></svg>