<svg id="Layer_1" enable-background="new 0 0 490.528 490.528" height="512" viewBox="0 0 490.528 490.528" width="512" xmlns="http://www.w3.org/2000/svg"><g><path d="m488.011 104.933c6.8-33.49-.291-62.771-19.969-82.448-19.676-19.677-48.957-26.769-82.447-19.969-31.254 6.346-62.906 24.28-89.124 50.498-37.004 37.004-56.896 84.966-52.3 124.655l-229.968 229.969c-18.937 18.937-18.937 49.75 0 68.687s49.75 18.937 68.687 0l229.969-229.969c39.689 4.596 87.651-15.295 124.655-52.3 26.218-26.218 44.152-57.869 50.497-89.123z" fill="#ffd474"/><path d="m82.889 476.325 229.969-229.969c39.689 4.596 87.651-15.295 124.655-52.3 26.219-26.219 44.153-57.87 50.498-89.124 6.8-33.49-.291-62.771-19.969-82.448l-453.84 453.84c18.938 18.938 49.751 18.938 68.687.001z" fill="#ffa238"/></g></svg>