<?xml version="1.0" encoding="iso-8859-1"?>
<!-- Generator: Adobe Illustrator 19.0.0, SVG Export Plug-In . SVG Version: 6.00 Build 0)  -->
<svg version="1.1" id="Capa_1" xmlns="http://www.w3.org/2000/svg" xmlns:xlink="http://www.w3.org/1999/xlink" x="0px" y="0px"
	 viewBox="0 0 512.533 512.533" style="enable-background:new 0 0 512.533 512.533;" xml:space="preserve">
<path style="fill:#F3F3F3;" d="M256.267,47.333L256.267,47.333c-80,78.933-124.8,123.733-203.733,203.733V512.4h408.533V251.067
	C381.067,171.067,336.267,126.267,256.267,47.333z"/>
<path style="fill:#415A6B;" d="M280.8,358.8l21.333,65.067h-92.8l21.333-65.067c-12.8-8.533-21.333-22.4-21.333-39.467
	c0-25.6,21.333-46.933,46.933-46.933c25.6,0,46.933,21.333,46.933,46.933C303.2,336.4,294.667,350.267,280.8,358.8z"/>
<path style="fill:#E8EAE9;" d="M460,240.4v77.867c-78.933-80-123.733-124.8-203.733-204.8c-80,80-124.8,124.8-203.733,204.8V240.4
	c78.933-80,123.733-124.8,203.733-203.733C336.267,115.6,381.067,160.4,460,240.4z"/>
<path style="fill:#66C6B9;" d="M52.533,277.733L256.267,75.067L460,277.733c11.733,11.733,32,11.733,43.733,0l0,0
	c11.733-11.733,11.733-32,0-43.733L277.6,8.933c-11.733-11.733-32-11.733-43.733,0L8.8,235.067c-11.733,11.733-11.733,32,0,43.733
	l0,0C21.6,290.533,40.8,290.533,52.533,277.733z"/>
<g>
</g>
<g>
</g>
<g>
</g>
<g>
</g>
<g>
</g>
<g>
</g>
<g>
</g>
<g>
</g>
<g>
</g>
<g>
</g>
<g>
</g>
<g>
</g>
<g>
</g>
<g>
</g>
<g>
</g>
</svg>
