<svg id="Capa_1" enable-background="new 0 0 512 512" height="512" viewBox="0 0 512 512" width="512" xmlns="http://www.w3.org/2000/svg"><g><g><path d="m408.308 162.515-13.28-11.129 13.28-11.129c11.484-9.624 28.217-9.624 39.701 0l8.569 7.181c2.457 2.059 2.457 5.837 0 7.896l-8.569 7.181c-11.484 9.624-28.217 9.624-39.701 0z" fill="#b3e59f"/></g><g><path d="m395.028 206.593c-4.267 0-7.726-3.459-7.726-7.726v-72.957c0-4.267 3.459-7.726 7.726-7.726s7.726 3.459 7.726 7.726v72.956c0 4.267-3.459 7.727-7.726 7.727z" fill="#78c2a4"/></g><g><path d="m108.44 162.515 13.28-11.129-13.28-11.129c-11.484-9.624-28.217-9.624-39.701 0l-8.569 7.181c-2.457 2.059-2.457 5.837 0 7.896l8.569 7.181c11.484 9.624 28.217 9.624 39.701 0z" fill="#b3e59f"/></g><g><path d="m121.72 224.147c-4.267 0-7.726-3.459-7.726-7.726v-90.51c0-4.267 3.459-7.726 7.726-7.726s7.726 3.459 7.726 7.726v90.51c0 4.267-3.459 7.726-7.726 7.726z" fill="#78c2a4"/></g><g><path d="m494.519 90.692.257-.085c1.855-.612 1.855-3.237 0-3.849l-.259-.085c-10.976-3.622-19.587-12.235-23.21-23.212-.029-.087-.057-.172-.085-.258-.612-1.855-3.236-1.853-3.848.002l-.085.259c-3.622 10.976-12.232 19.586-23.209 23.209l-.259.085c-1.855.612-1.855 3.237 0 3.849l.259.085c10.976 3.622 19.587 12.235 23.21 23.212.029.087.057.172.085.258.612 1.855 3.236 1.853 3.848-.002l.085-.257c3.623-10.978 12.234-19.589 23.211-23.211z" fill="#ffc269"/></g><g><path d="m284.9 98.058-23.211-54.651c-2.132-5.02-9.247-5.02-11.378 0l-23.211 54.651z" fill="#78c2a4"/></g><g><path d="m239.99 85.135-32.564-17.383c-4.267-2.278-9.037 2.05-7.183 6.518l24.645 59.391h62.223l24.645-59.391c1.854-4.468-2.916-8.796-7.183-6.518l-32.563 17.383c-10.005 5.341-22.015 5.341-32.02 0z" fill="#b3e59f"/></g><g><path d="m304.586 334.714h-97.173c-30.928 0-39.854-25.072-39.854-56v-106.613c0-30.928 25.112-56 56.04-56h80.986c30.928 0 56 25.072 56 56v106.613c.001 30.928-25.071 56-55.999 56z" fill="#ffc269"/></g><g><path d="m172.429 277.024v-103.232c0-31.861 25.829-57.69 57.69-57.69h-21.016c-31.861 0-57.69 25.829-57.69 57.69v103.233c0 31.861 25.829 57.69 57.69 57.69h21.016c-31.861-.001-57.69-25.829-57.69-57.691z" fill="#ffa95f"/></g><g><path d="m476.519 275.334c0 45.007-36.485 81.492-81.492 81.492s-68.648-36.485-68.648-81.492 23.641-78.604 68.648-78.604c3.849 0 7.635-2.62 11.342-2.104 39.639 5.519 70.15 39.551 70.15 80.708z" fill="#b3e59f"/></g><g><path d="m338.755 275.334c0-40.717 29.864-74.456 68.882-80.517-4.11-.639-8.32-.974-12.609-.974-45.007 0-81.492 36.485-81.492 81.492s36.485 81.492 81.492 81.492c4.289 0 8.499-.336 12.609-.974-39.018-6.063-68.882-39.801-68.882-80.519z" fill="#95d6a4"/></g><g><path d="m170.431 326.245 34.09-75.034c3.153-6.939 4.168-14.659 2.918-22.177-3.689-22.188-25.577-36.466-47.371-30.901l-28.849 7.367c-6.233 1.591-12.765 1.591-18.998 0l-28.849-7.367c-21.794-5.565-43.681 8.713-47.371 30.901-1.25 7.518-.234 15.239 2.918 22.177l34.09 75.034c6.228 13.709 19.896 22.512 34.954 22.512h27.515c15.057-.001 28.725-8.803 34.953-22.512z" fill="#e5646e"/></g><g><path d="m93.66 326.245-34.09-75.034c-3.153-6.939-4.168-14.659-2.918-22.177 2.541-15.283 13.717-26.812 27.549-30.689l-.829-.212c-21.794-5.565-43.681 8.713-47.371 30.901-1.25 7.518-.234 15.239 2.918 22.177l34.09 75.034c6.228 13.709 19.896 22.512 34.954 22.512h20.651c-15.058-.001-28.726-8.803-34.954-22.512z" fill="#db4655"/></g><g><path d="m481.273 512h-429.033c-5.523 0-18.36-4.477-18.36-10l13.86-167.286h374.94l68.593 18.447v148.839c0 5.523-4.477 10-10 10z" fill="#f4dbb3"/></g><g><path d="m46.935 501.698v-166.984h-11.454l-14.754 18.447v148.537c0 5.69 4.612 10.302 10.302 10.302h26.208c-5.69 0-10.302-4.612-10.302-10.302z" fill="#eac89f"/></g><g><g><g><path d="m502 299.468h-463.5c-2.013 0-14.94 8.652-14.94 8.652v35.28s12.007 9.761 14.048 9.761h464.392c5.523 0 10-4.477 10-10v-33.693c0-5.523-4.477-10-10-10z" fill="#d2af8c"/></g></g></g><g><path d="m31.153 342.859v-33.09c0-5.69 4.612-10.302 10.302-10.302h-31.153c-5.69.001-10.302 4.613-10.302 10.303v33.09c0 5.69 4.612 10.302 10.302 10.302h31.153c-5.69-.001-10.302-4.613-10.302-10.303z" fill="#c69b75"/></g><g><path d="m210.507 177.459h-6.923c-4.267 0-7.726-3.459-7.726-7.726s3.459-7.726 7.726-7.726h6.923c4.267 0 7.726 3.459 7.726 7.726s-3.459 7.726-7.726 7.726z" fill="#f49751"/></g><g><path d="m259.461 177.459h-6.923c-4.267 0-7.726-3.459-7.726-7.726s3.459-7.726 7.726-7.726h6.923c4.267 0 7.726 3.459 7.726 7.726s-3.459 7.726-7.726 7.726z" fill="#f49751"/></g><g><path d="m308.415 177.459h-6.923c-4.267 0-7.726-3.459-7.726-7.726s3.459-7.726 7.726-7.726h6.923c4.267 0 7.726 3.459 7.726 7.726s-3.458 7.726-7.726 7.726z" fill="#f49751"/></g><g><path d="m259.461 264.712h-6.923c-4.267 0-7.726-3.459-7.726-7.726s3.459-7.726 7.726-7.726h6.923c4.267 0 7.726 3.459 7.726 7.726.001 4.267-3.459 7.726-7.726 7.726z" fill="#f49751"/></g><g><path d="m234.984 222.231h-6.923c-4.267 0-7.726-3.459-7.726-7.726s3.459-7.726 7.726-7.726h6.923c4.267 0 7.726 3.459 7.726 7.726s-3.458 7.726-7.726 7.726z" fill="#f49751"/></g><g><path d="m283.939 222.231h-6.923c-4.267 0-7.726-3.459-7.726-7.726s3.459-7.726 7.726-7.726h6.923c4.267 0 7.726 3.459 7.726 7.726s-3.459 7.726-7.726 7.726z" fill="#f49751"/></g><g><g><g><path d="m287.375 438.027h-62.75c-11.922 0-21.587-9.665-21.587-21.587v-1.303c0-11.922 9.665-21.587 21.587-21.587h62.75c11.922 0 21.587 9.665 21.587 21.587v1.303c0 11.922-9.665 21.587-21.587 21.587z" fill="#d2af8c"/></g></g></g><g><path d="m110.416 53.081.257-.085c1.855-.612 1.855-3.237 0-3.849l-.259-.085c-10.976-3.622-19.587-12.235-23.209-23.212-.029-.087-.057-.172-.085-.258-.612-1.855-3.236-1.853-3.848.002l-.085.259c-3.623 10.976-12.233 19.587-23.21 23.209l-.259.085c-1.855.612-1.855 3.237 0 3.849l.259.085c10.976 3.622 19.587 12.235 23.21 23.212.029.087.057.172.085.258.612 1.855 3.236 1.853 3.848-.002l.085-.257c3.623-10.978 12.234-19.588 23.211-23.211z" fill="#ffc269"/></g><g><path d="m413.107 41.885.373-.123c2.691-.888 2.691-4.694 0-5.582l-.375-.124c-15.92-5.254-28.409-17.746-33.662-33.665-.041-.125-.083-.25-.123-.374-.888-2.691-4.694-2.688-5.582.003l-.124.375c-5.254 15.92-17.741 28.407-33.661 33.661l-.375.124c-2.691.888-2.691 4.694 0 5.582l.375.124c15.92 5.254 28.409 17.746 33.662 33.665.041.125.083.25.123.374.888 2.691 4.694 2.688 5.582-.003l.123-.373c5.254-15.921 17.743-28.41 33.664-33.664z" fill="#ffc269"/></g></g></svg>