<svg height="512" viewBox="0 0 128 128" width="512" xmlns="http://www.w3.org/2000/svg"><g><path d="m64 71.25c0 21.985-12.872 32.558-28.75 32.558s-28.75-10.573-28.75-32.558 12.872-47.058 28.75-47.058 28.75 25.073 28.75 47.058z" fill="#efeffb"/><path d="m14.255 59.126a1.811 1.811 0 0 1 -.423-.051 1.749 1.749 0 0 1 -1.276-2.12 62.355 62.355 0 0 1 3.29-9.768 1.75 1.75 0 0 1 3.211 1.392 59.008 59.008 0 0 0 -3.1 9.218 1.749 1.749 0 0 1 -1.702 1.329z" fill="#d1d1db"/><path d="m91.792 72.335c0 21.253-12.443 31.473-27.792 31.473s-27.792-10.22-27.792-31.473 12.443-45.489 27.792-45.489 27.792 24.237 27.792 45.489z" fill="#d1d1db"/><path d="m121.5 73.148c0 20.7-12.121 30.66-27.074 30.66s-27.074-9.957-27.074-30.66 12.121-44.315 27.074-44.315 27.074 23.611 27.074 44.315z" fill="#efeffb"/></g></svg>