<svg enable-background="new 0 0 24 24" height="512" viewBox="0 0 24 24" width="512" xmlns="http://www.w3.org/2000/svg"><path d="m16.5 9c2.174 0 4.129.935 5.5 2.418v-8.818l-10.16 5.03c-.52.26-1.16.26-1.68 0l-10.16-5.03v9.15c0 1.24 1.01 2.25 2.25 2.25h7.188c1.032-2.908 3.804-5 7.062-5z" fill="#eceff1"/><path d="m22 2.25v.6l-10.16 5.03c-.52.26-1.16.26-1.68 0l-10.16-5.03v-.6c0-1.24 1.01-2.25 2.25-2.25h17.5c1.24 0 2.25 1.01 2.25 2.25z" fill="#b0bec5"/><path d="m23.707 22.293-2.679-2.679c.612-.886.972-1.958.972-3.114 0-3.033-2.467-5.5-5.5-5.5s-5.5 2.467-5.5 5.5 2.467 5.5 5.5 5.5c1.156 0 2.228-.36 3.114-.972l2.679 2.679c.195.195.451.293.707.293s.512-.098.707-.293c.391-.391.391-1.023 0-1.414zm-10.707-5.793c0-1.93 1.57-3.5 3.5-3.5s3.5 1.57 3.5 3.5-1.57 3.5-3.5 3.5-3.5-1.57-3.5-3.5z" fill="#2196f3"/></svg>