<?xml version="1.0" encoding="iso-8859-1"?>
<!-- Generator: Adobe Illustrator 19.0.0, SVG Export Plug-In . SVG Version: 6.00 Build 0)  -->
<svg version="1.1" id="Capa_1" xmlns="http://www.w3.org/2000/svg" xmlns:xlink="http://www.w3.org/1999/xlink" x="0px" y="0px"
	 viewBox="0 0 511.885 511.885" style="enable-background:new 0 0 511.885 511.885;" xml:space="preserve">
<g>
	<path style="fill:#AF8066;" d="M5.079,506.806c7.14,6.921,18.538,6.747,25.462-0.39l290.84-290.84l-25.073-25.073L5.469,481.344
		C-1.668,488.268-1.842,499.666,5.079,506.806z"/>
	<path style="fill:#A5A5A4;" d="M349.828,199.666l31.341,31.341c6.935,6.895,18.137,6.895,25.073,0l95.464-95.464
		c3.08-3.128,4.908-7.275,5.14-11.659l5.014-105.305c0.268-4.998-1.601-9.874-5.14-13.413s-8.415-5.408-13.413-5.14L388.001,5.039
		c-4.384,0.232-8.531,2.06-11.659,5.14l-95.464,95.464c-6.895,6.936-6.895,18.137,0,25.073l31.341,31.341L349.828,199.666z"/>
	<g>
		<path style="fill:#5E5F62;" d="M287.147,187.161l37.64-37.64c3.447-3.447,9.037-3.447,12.484,0l25.156,25.156
			c3.447,3.447,3.447,9.037,0,12.484l-37.64,37.64c-3.447,3.447-9.037,3.447-12.484,0l-25.156-25.156
			C283.699,196.197,283.699,190.608,287.147,187.161z"/>
		<path style="fill:#5E5F62;" d="M450.144,111.938l-50.142,50.147c-2.23,2.23-3.101,5.48-2.284,8.526
			c0.816,3.046,3.195,5.425,6.241,6.241c3.046,0.816,6.296-0.055,8.526-2.285l50.142-50.147c3.437-3.449,3.432-9.029-0.011-12.472
			C459.174,108.506,453.593,108.502,450.144,111.938z"/>
		<path style="fill:#5E5F62;" d="M462.627,49.257c-1.655-1.656-3.9-2.586-6.241-2.586s-4.586,0.93-6.241,2.586l-81.487,81.487
			c-3.447,3.447-3.447,9.036,0,12.483c3.447,3.447,9.036,3.447,12.483,0l81.487-81.487c1.656-1.655,2.586-3.9,2.586-6.241
			S464.283,50.912,462.627,49.257z"/>
		<path style="fill:#5E5F62;" d="M399.946,49.257c-1.655-1.656-3.9-2.586-6.241-2.586s-4.586,0.93-6.241,2.586l-50.147,50.147
			c-3.447,3.447-3.447,9.036,0,12.483c3.447,3.447,9.036,3.447,12.483,0l50.147-50.147c1.656-1.655,2.586-3.9,2.586-6.241
			S401.602,50.912,399.946,49.257z"/>
	</g>
</g>
<g>
</g>
<g>
</g>
<g>
</g>
<g>
</g>
<g>
</g>
<g>
</g>
<g>
</g>
<g>
</g>
<g>
</g>
<g>
</g>
<g>
</g>
<g>
</g>
<g>
</g>
<g>
</g>
<g>
</g>
</svg>
