<svg height="464pt" viewBox="0 0 464.00009 464" width="464pt" xmlns="http://www.w3.org/2000/svg"><path d="m314.296875 213.703125c8.929687-8.933594 20.308594-15.023437 32.695313-17.503906 30.398437-6.085938 60.199218-8.496094 84.152343-30.175781 20.859375-18.964844 32.785157-45.828126 32.855469-74.023438.035156-38.734375-21.578125-74.242188-56-92v80c0 8.835938-7.164062 16-16 16h-48c-8.835938 0-16-7.164062-16-16v-80c-37.035156 13.863281-62.222656 48.496094-64 88v21.488281c0 16.972657-6.742188 33.253907-18.742188 45.253907l-95.554687 95.554687c-27.09375 27.09375-69.4375 17.144531-100.894531 35.886719-30.148438 18.113281-48.652344 50.648437-48.808594 85.816406-.0351562 38.734375 21.578125 74.242188 56 92v-80c0-8.835938 7.164062-16 16-16h48c8.835938 0 16 7.164062 16 16v80c37.035156-13.863281 62.222656-48.496094 64-88v-21.488281c0-16.972657 6.742188-33.253907 18.742188-45.253907zm0 0" fill="#c4c4c2"/><g fill="#a6a6a4"><path d="m308.304688 187.375c-13.226563-6.878906-24.945313-16.332031-34.464844-27.808594l12.320312-10.230468c8.148438 9.84375 18.195313 17.957031 29.535156 23.847656zm0 0"/><path d="m169.839844 318.945312c-8.15625-9.839843-18.199219-17.949218-29.535156-23.847656l7.390624-14.195312c13.226563 6.882812 24.945313 16.335937 34.464844 27.808594zm0 0"/></g></svg>