<svg height="512pt" viewBox="-2 0 512 512.00065" width="512pt" xmlns="http://www.w3.org/2000/svg"><path d="m159.863281 252.238281c0-17.945312-14.195312-32.488281-31.710937-32.488281-.691406 0-1.375.019531-2.054688.066406-3.894531.257813-7.398437-2.152344-8.648437-5.851562-6.175781-18.304688-23.136719-31.453125-43.101563-31.453125-25.191406 0-45.609375 20.921875-45.609375 46.730469v.027343c-12.621093.425781-23.367187 8.40625-28.082031 19.667969-2.328125 5.5625 1.839844 11.699219 7.871094 11.699219h142.84375c4.617187 0 8.480468-3.691407 8.492187-8.308594 0-.03125 0-.058594 0-.089844zm0 0" fill="#cbe6f7"/><path d="m175.074219 180.800781 81.015625-173.152343c4.78125-10.210938 18.980468-10.195313 23.734375.03125l80.515625 173.121093-88.707032 203.972657zm0 0" fill="#ab632e"/><path d="m279.824219 7.679688c-4.757813-10.226563-18.953125-10.242188-23.734375-.03125l-10.835938 23.164062 92.3125 204.585938 22.773438-54.597657zm0 0" fill="#995929"/><path d="m41.386719 330.6875 115.363281-246.707031c4.777344-10.214844 18.976562-10.195313 23.730469.027343l114.332031 245.652344zm0 0" fill="#de9252"/><path d="m180.484375 84.007812c-4.757813-10.222656-18.957031-10.242187-23.734375-.027343l-13.925781 29.785156 100.480469 215.894531-201.820313.820313-.097656.207031 253.425781-1.027344zm0 0" fill="#d9833b"/><path d="m266.480469 326.054688 85.449219-182.589844c4.777343-10.210938 18.976562-10.195313 23.730468.03125l86.554688 184.617187zm0 0" fill="#de9252"/><path d="m375.660156 143.496094c-4.753906-10.226563-18.953125-10.242188-23.730468-.03125l-10.835938 23.164062 75.792969 165.605469h47.390625zm0 0" fill="#d9833b"/><path d="m153.011719 170.484375c5.597656 3.140625 9.074219 9.160156 9.074219 15.695313v19.222656c0 9.882812 7.820312 17.894531 17.46875 17.894531 9.644531 0 17.464843-8.011719 17.464843-17.894531v-24.835938c0-5.980468 2.917969-11.570312 7.777344-14.886718l10.582031-6.6875-34.894531-74.984376c-4.757813-10.222656-18.957031-10.242187-23.734375-.027343l-32.820312 70.1875.539062.300781zm0 0" fill="#f0f0f0"/><path d="m235.527344 95.558594c2.84375 2.441406 4.484375 6.046875 4.484375 9.847656v28.417969c0 9.882812 7.820312 17.894531 17.464843 17.894531 9.648438 0 17.46875-8.011719 17.46875-17.894531v-14.226563c0-7.09375 5.613282-12.84375 12.539063-12.84375 13.851563 0 25.078125-11.503906 25.078125-25.695312v-2.980469l-32.738281-70.398437c-4.757813-10.226563-18.953125-10.242188-23.734375-.03125l-35.214844 75.273437 2.566406 2.261719zm0 0" fill="#f0f0f0"/><path d="m287.484375 106.75c13.851563 0 25.078125-11.503906 25.078125-25.695312v-2.976563l-32.738281-70.398437c-4.757813-10.226563-18.953125-10.242188-23.734375-.03125l-10.835938 23.164062 35.246094 78.117188c1.996094-1.375 4.398438-2.179688 6.984375-2.179688zm0 0" fill="#e8e8e8"/><path d="m334.570312 209.074219c8.769532 0 17.09375-3.941407 22.777344-10.785157 5.683594-6.839843 14.011719-10.78125 22.777344-10.78125h16.003906l-20.46875-44.011718c-4.753906-10.226563-18.953125-10.242188-23.730468-.03125l-30.695313 65.609375zm0 0" fill="#f0f0f0"/><path d="m380.125 187.507812h16.003906l-20.46875-44.011718c-4.753906-10.222656-18.953125-10.242188-23.730468-.027344l-10.269532 21.949219 15.078125 33.566406c.203125-.230469.414063-.457031.609375-.695313 5.683594-6.839843 14.011719-10.78125 22.777344-10.78125zm0 0" fill="#e8e8e8"/><path d="m180.484375 84.007812c-4.757813-10.222656-18.957031-10.242187-23.734375-.027343l-12.441406 26.605469 47.355468 107.691406c3.296876-3.253906 5.355469-7.816406 5.355469-12.875v-24.835938c0-5.984375 2.917969-11.570312 7.777344-14.890625l10.582031-6.6875zm0 0" fill="#e8e8e8"/><path d="m9.351562 318.546875h489.257813v1.765625c-29.304687 110.472656-127.664063 191.6875-244.488281 191.6875-117.199219 0-215.808594-81.734375-244.769532-192.742188zm0 0" fill="#89c8fd"/><path d="m441.949219 318.546875v1.765625c-26.902344 101.414062-112.003907 178.164062-216.160157 190.070312 9.300782 1.0625 18.753907 1.617188 28.332032 1.617188 116.824218 0 215.183594-81.214844 244.488281-191.6875v-1.765625zm0 0" fill="#60b6ff"/><g fill="#baeb6c"><path d="m85.792969 369.492188c-6.472657-10.113282.527343-27.785157 9.328125-47.066407l1.703125-3.875h-87.472657v.710938c15.027344 57.59375 48.808594 107.304687 94.203126 141.8125l.535156-5.121094s9.757812-42.605469-18.296875-86.460937zm0 0"/><path d="m413.132812 397.328125c-45.039062-16.78125-34.121093 61.53125-118.746093 39.15625-37.101563-9.808594-39.582031 55.9375-40.949219 72.71875l-.289062 2.789063c.324218 0 .648437.007812.972656.007812 81.527344 0 154.050781-39.558594 200.402344-101.007812l-1.125-.378907s4.777343 3.496094-40.265626-13.285156zm0 0"/><path d="m440.375 428.121094c-.054688.058594-.105469.113281-.15625.171875.050781-.058594.101562-.113281.15625-.171875zm0 0"/></g><path d="m413.132812 397.339844c-1.632812-.609375-3.1875-1.078125-4.683593-1.445313-35.445313 54.621094-90.449219 94.691407-154.734375 109.664063-.101563 1.386718-.191406 2.617187-.277344 3.65625l-.289062 2.785156c77.410156.296875 156.011718-37.492188 201.375-100.996094l-1.125-.378906s4.777343 3.496094-40.265626-13.285156zm0 0" fill="#96d629"/><path d="m500.828125 69.730469c0-17.945313-14.199219-32.492188-31.714844-32.492188-.6875 0-1.375.023438-2.050781.066407-3.898438.261718-7.402344-2.148438-8.652344-5.847657-6.175781-18.308593-23.132812-31.457031-43.101562-31.457031-25.1875 0-45.609375 20.921875-45.609375 46.730469v.027343c-12.617188.429688-23.367188 8.40625-28.078125 19.667969-2.328125 5.5625 1.839844 11.699219 7.867187 11.699219h142.84375c4.621094 0 8.484375-3.691406 8.496094-8.308594 0-.027344 0-.058594 0-.085937zm0 0" fill="#cbe6f7"/><path d="m382.792969 255.933594c0-14.125 11.175781-25.578125 24.964843-25.578125.519532 0 1.039063.015625 1.550782.050781 3.066406.195312 5.878906-1.652344 6.859375-4.566406 4.851562-14.429688 18.210937-24.796875 33.945312-24.796875 19.828125 0 35.902344 16.46875 35.902344 36.785156v.019531c9.925781.339844 18.378906 6.609375 22.097656 15.460938 1.839844 4.390625-1.46875 9.234375-6.230469 9.234375h-112.375c-3.640624 0-6.707031-2.898438-6.714843-6.542969 0-.023438 0-.042969 0-.066406zm0 0" fill="#cbe6f7"/><path d="m111.441406 51.507812c0 23.898438-19.375 43.269532-43.269531 43.269532s-43.265625-19.371094-43.265625-43.269532c0-23.894531 19.371094-43.265624 43.265625-43.265624s43.269531 19.371093 43.269531 43.265624zm0 0" fill="#ffe469"/></svg>