<svg id="Capa_1" enable-background="new 0 0 512 512" height="512" viewBox="0 0 512 512" width="512" xmlns="http://www.w3.org/2000/svg"><g><path d="m441.022 326.978c0 102.184-82.837 185.022-185.022 185.022s-185.022-82.838-185.022-185.022c0-118.939 149.177-290.741 179.632-324.576 2.883-3.203 7.897-3.203 10.78 0 30.455 33.835 179.632 205.636 179.632 324.576z" fill="#8ac9fe"/><path d="m281.928 510.194c-8.473 1.193-17.133 1.805-25.928 1.805-102.186 0-185.02-82.834-185.02-185.02 0-118.937 149.173-290.738 179.629-324.574 2.882-3.202 7.899-3.201 10.781.001 4.521 5.023 11.658 13.086 20.537 23.563-50.922 60.111-159.092 199.726-159.092 301.01 0 93.391 69.186 170.614 159.093 183.215z" fill="#60b7ff"/><g><g><path d="m359.265 281.75-72.152 117.919-17.662 28.863c-3.827 6.254-13.451 3.537-13.451-3.785v-75.232c0-4.003-3.246-7.26-7.26-7.26h-89.824c-5.673 0-9.147-6.202-6.192-11.045l89.824-146.886c3.827-6.254 13.451-3.547 13.451 3.785v75.325c0 4.014 3.246 7.26 7.26 7.26h89.814c5.673.001 9.158 6.213 6.192 11.056z" fill="#fef48b"/></g></g><g fill="#fef056"><path d="m256 213.208-78.914 129.047h-18.164c-5.67 0-9.152-6.21-6.194-11.047l89.818-146.881c3.824-6.254 13.453-3.544 13.453 3.787v25.094z"/><path d="m287.113 342.255v57.414l-17.662 28.863c-3.827 6.254-13.451 3.537-13.451-3.785v-75.232c0-4.003-3.246-7.26-7.26-7.26z"/></g></g></svg>