<?xml version="1.0" encoding="iso-8859-1"?>
<!-- Generator: Adobe Illustrator 19.0.0, SVG Export Plug-In . SVG Version: 6.00 Build 0)  -->
<svg version="1.1" id="Capa_1" xmlns="http://www.w3.org/2000/svg" xmlns:xlink="http://www.w3.org/1999/xlink" x="0px" y="0px"
	 viewBox="0 0 512 512" style="enable-background:new 0 0 512 512;" xml:space="preserve">
<path style="fill:#A8EEFC;" d="M437.019,74.981C388.667,26.629,324.38,0,256,0S123.333,26.629,74.981,74.981S0,187.619,0,256
	c0,68.38,26.629,132.667,74.981,181.019S187.619,512,256,512c68.38,0,132.667-26.629,181.019-74.981S512,324.381,512,256
	C512,187.619,485.37,123.333,437.019,74.981z"/>
<path style="fill:#7EE5F2;" d="M437.019,74.981C388.667,26.629,324.38,0,256,0c-7.564,0-15.074,0.345-22.523,0.99
	c59.882,5.187,115.493,30.988,158.496,73.991c48.352,48.352,74.981,112.638,74.981,181.019c0,68.38-26.629,132.667-74.981,181.019
	c-43.004,43.004-98.615,68.805-158.496,73.991c7.448,0.645,14.958,0.99,22.523,0.99c68.38,0,132.667-26.629,181.019-74.981
	S512,324.381,512,256S485.37,123.333,437.019,74.981z"/>
<g>
	<path style="fill:#4CE166;" d="M220.824,299.273c-16.581-11.111-41.902-8.861-58.345-0.894
		c-8.622,4.176-19.805-1.559-37.332-11.264c-14.876-8.238-31.737-17.575-52.248-21.291c-42.667-7.731-65.814,20.121-70.369,26.311
		c7.677,54.672,32.725,105.159,72.451,144.885c24.844,24.843,53.901,43.935,85.552,56.644c14.038-1.788,26.606-11.096,34.088-25.479
		c9.361-17.994,8.337-38.957-2.74-56.078c-5.957-9.208-2.551-13.977,14.141-28.052c13.187-11.117,29.598-24.953,31.008-47.511
		C238.341,315.59,228.941,304.71,220.824,299.273z"/>
	<path style="fill:#4CE166;" d="M465.781,109.168c-8.497-12.086-18.1-23.525-28.762-34.187C388.667,26.629,324.38,0,256,0
		c-39.478,0-77.583,8.893-112.054,25.701c-0.365,1.141-0.467,2.377-0.249,3.618c0.595,3.377,3.382,5.929,6.789,6.219
		c0.776,0.066,19.227,1.655,38.495,5.152c29.145,5.288,36.776,10.731,38.56,12.491c-3.378,4.411-19.201,12.491-29.887,17.948
		c-13.421,6.853-28.632,14.62-39.395,23.134c-14.538,11.5-19.269,23.288-14.061,35.032c2.069,4.664,5.621,8.037,10.271,9.751
		c13.356,4.923,33.655-4.853,55.146-15.204c9.628-4.636,19.583-9.431,27.789-12.225c10.387-3.538,13.713-2.395,14.486-1.959
		c0.221,0.124,0.402,0.236,0.547,0.334c-0.795,2.013-3.749,5.95-5.784,8.663c-9.436,12.576-25.228,33.623-4.646,60.686
		c9.691,12.742,19.74,23.226,28.604,32.477c18.526,19.332,33.16,34.601,37.4,60.976c4.092,25.455,20.053,44.78,40.664,49.23
		c2.776,0.599,5.53,0.894,8.235,0.894c12.768-0.001,24.458-6.549,32.304-18.449c5.09-7.719,6.512-21.746,8.481-41.162
		c3.03-29.879,7.18-70.801,28.213-91.888c15.244-15.284,28.465-35.518,39.296-60.139
		C465.508,110.597,465.691,109.886,465.781,109.168z"/>
	<path style="fill:#4CE166;" d="M446.26,427.282c-0.181-0.825-0.497-1.63-0.954-2.381c-7.272-11.931-16.087-20.617-26.198-25.817
		c-8.087-4.159-15.665-9.069-22.993-13.815c-20.765-13.451-42.24-27.361-63.681-11.05c-15.089,11.478-12.859,27.817-11.066,40.946
		c1.829,13.399,2.454,21.257-5.957,26.999c-22.804,15.564-42.524,43.181-31.935,67.043c0.199,0.448,0.448,0.858,0.718,1.25
		c57.716-6.284,111.182-31.794,152.824-73.437C440.195,433.842,443.272,430.593,446.26,427.282z"/>
</g>
<path style="fill:#44C868;" d="M446.26,427.282c-0.181-0.825-0.497-1.63-0.954-2.381c-6.534-10.72-14.317-18.812-23.163-24.117
	c-8.842,12.84-18.908,24.973-30.168,36.234c-31.3,31.3-69.282,53.475-110.725,65.233c0.482,2.343,1.213,4.666,2.229,6.954
	c0.199,0.448,0.448,0.858,0.718,1.25c57.716-6.284,111.182-31.794,152.824-73.437C440.195,433.842,443.272,430.593,446.26,427.282z"
	/>
<path style="fill:#FFDB56;" d="M120.068,374.066c-2.388,0-4.734-1.136-6.189-3.251c-2.347-3.411-1.487-8.077,1.923-10.427
	c0.132-0.092,3.314-2.277,9.047-5.587c3.586-2.07,8.175-0.843,10.248,2.746c2.072,3.588,0.843,8.176-2.746,10.248
	c-5.157,2.978-8.013,4.932-8.041,4.951C123.012,373.637,121.533,374.066,120.068,374.066z M155.474,355.402
	c-2.907,0-5.673-1.698-6.895-4.538c-1.638-3.806,0.119-8.218,3.925-9.856c3.137-1.35,6.337-2.66,9.514-3.894
	c3.862-1.502,8.208,0.416,9.709,4.277c1.5,3.862-0.415,8.209-4.277,9.709c-3.009,1.168-6.041,2.41-9.014,3.689
	C157.469,355.204,156.463,355.402,155.474,355.402z M193.255,342.292c-3.318,0-6.353-2.219-7.245-5.577
	c-1.064-4.004,1.318-8.113,5.323-9.178c3.304-0.878,6.668-1.704,9.997-2.454c4.041-0.911,8.057,1.628,8.968,5.67
	c0.91,4.042-1.628,8.057-5.67,8.968c-3.145,0.708-6.32,1.487-9.441,2.317C194.541,342.21,193.893,342.292,193.255,342.292z
	 M282.501,335.813c-0.278,0-0.56-0.016-0.844-0.048c-0.511-0.057-1.024-0.118-1.541-0.183c-2.712-0.338-5.471-0.625-8.195-0.854
	c-4.129-0.345-7.196-3.972-6.851-8.101c0.345-4.129,3.971-7.193,8.101-6.851c2.928,0.244,5.89,0.553,8.803,0.916
	c0.455,0.057,0.906,0.11,1.355,0.161c4.117,0.461,7.081,4.173,6.62,8.29C289.519,332.98,286.27,335.813,282.501,335.813z
	 M232.58,335.11c-3.814,0-7.076-2.896-7.457-6.77c-0.405-4.123,2.609-7.794,6.732-8.199c3.43-0.337,6.895-0.603,10.299-0.788
	c4.117-0.189,7.674,2.946,7.899,7.083c0.226,4.137-2.945,7.674-7.083,7.9c-3.188,0.174-6.434,0.422-9.648,0.737
	C233.073,335.097,232.825,335.11,232.58,335.11z M312.276,334.414c-3.346,0-6.396-2.255-7.263-5.645
	c-1.027-4.015,1.393-8.101,5.408-9.128c2.863-0.732,5.58-1.697,8.072-2.866c3.752-1.759,8.217-0.144,9.978,3.608
	c1.759,3.751,0.144,8.218-3.608,9.978c-3.343,1.566-6.95,2.851-10.722,3.815C313.518,334.338,312.893,334.414,312.276,334.414z
	 M343.068,310.805c-1.237,0-2.491-0.306-3.648-0.951c-3.618-2.02-4.914-6.589-2.897-10.207c1.367-2.45,2.595-5.148,3.647-8.019
	c1.425-3.889,5.732-5.889,9.627-4.459c3.89,1.426,5.887,5.737,4.459,9.627c-1.322,3.607-2.881,7.026-4.63,10.162
	C348.253,309.418,345.7,310.805,343.068,310.805z M352.728,272.321c-0.136,0-0.272-0.003-0.408-0.011
	c-4.137-0.222-7.312-3.755-7.09-7.893c0.137-2.56,0.207-5.244,0.208-7.977c0-0.516-0.003-1.034-0.008-1.553
	c-0.037-4.143,3.291-7.531,7.435-7.569c0.022,0,0.046,0,0.068,0c4.112,0,7.464,3.315,7.501,7.435
	c0.005,0.564,0.008,1.127,0.008,1.691c-0.001,3-0.078,5.952-0.23,8.777C359.998,269.221,356.688,272.321,352.728,272.321z
	 M350.457,232.418c-3.664,0-6.87-2.689-7.414-6.422c-0.457-3.137-0.986-6.376-1.573-9.626c-0.737-4.077,1.971-7.98,6.048-8.717
	c4.071-0.738,7.979,1.97,8.717,6.048c0.618,3.417,1.176,6.825,1.658,10.132c0.597,4.1-2.242,7.907-6.343,8.505
	C351.182,232.391,350.818,232.418,350.457,232.418z M342.168,193.263c-3.295,0-6.316-2.188-7.23-5.519
	c-0.89-3.24-1.811-6.398-2.735-9.387c-1.225-3.958,0.99-8.159,4.948-9.386c3.958-1.227,8.159,0.99,9.386,4.948
	c0.972,3.142,1.938,6.455,2.87,9.852c1.097,3.995-1.252,8.123-5.249,9.221C343.494,193.176,342.825,193.263,342.168,193.263z"/>
<path style="fill:#DDDDDD;" d="M108.9,360.09c-4.143,0-7.5-3.359-7.5-7.502v-48.901c0-4.143,3.358-7.502,7.5-7.502
	s7.5,3.359,7.5,7.502v48.901C116.401,356.732,113.043,360.09,108.9,360.09z"/>
<path style="fill:#FF4A4A;" d="M108.9,248.327c-17.327,0-31.423,14.1-31.423,31.431c0,17.331,14.096,31.431,31.423,31.431
	s31.423-14.1,31.423-31.431C140.323,262.427,126.227,248.327,108.9,248.327z"/>
<path style="fill:#E7343F;" d="M108.9,248.327c-2.597,0-5.118,0.322-7.533,0.919c13.7,3.385,23.89,15.779,23.89,30.512
	c0,14.734-10.19,27.127-23.89,30.512c2.415,0.597,4.936,0.919,7.533,0.919c17.327,0,31.423-14.1,31.423-31.431
	C140.323,262.427,126.227,248.327,108.9,248.327z"/>
<path style="fill:#DDDDDD;" d="M337.87,160.14c-4.143,0-7.5-3.359-7.5-7.502v-48.901c0-4.143,3.358-7.502,7.5-7.502
	s7.5,3.359,7.5,7.502v48.901C345.37,156.781,342.012,160.14,337.87,160.14z"/>
<path style="fill:#FF4A4A;" d="M337.87,48.376c-17.327,0-31.423,14.1-31.423,31.432c0,17.331,14.096,31.431,31.423,31.431
	s31.423-14.1,31.423-31.431C369.292,62.476,355.196,48.376,337.87,48.376z"/>
<path style="fill:#E7343F;" d="M337.87,48.376c-2.597,0-5.118,0.323-7.533,0.919c13.7,3.385,23.89,15.779,23.89,30.512
	c0,14.734-10.19,27.126-23.89,30.512c2.415,0.596,4.936,0.919,7.533,0.919c17.327,0,31.423-14.1,31.423-31.431
	C369.292,62.476,355.196,48.376,337.87,48.376z"/>
<path style="fill:#44C868;" d="M437.019,74.981C388.667,26.629,324.38,0,256,0c-7.564,0-15.074,0.345-22.523,0.99
	c59.882,5.187,115.493,30.988,158.496,73.991c21.971,21.971,39.44,47.24,51.979,74.681c7.844-11.241,14.957-24.065,21.255-38.384
	c0.299-0.681,0.482-1.391,0.572-2.11C457.284,97.082,447.681,85.643,437.019,74.981z"/>
<g>
</g>
<g>
</g>
<g>
</g>
<g>
</g>
<g>
</g>
<g>
</g>
<g>
</g>
<g>
</g>
<g>
</g>
<g>
</g>
<g>
</g>
<g>
</g>
<g>
</g>
<g>
</g>
<g>
</g>
</svg>
