<?xml version="1.0" encoding="iso-8859-1"?>
<!-- Generator: Adobe Illustrator 19.0.0, SVG Export Plug-In . SVG Version: 6.00 Build 0)  -->
<svg version="1.1" id="Capa_1" xmlns="http://www.w3.org/2000/svg" xmlns:xlink="http://www.w3.org/1999/xlink" x="0px" y="0px"
	 viewBox="0 0 512 512" style="enable-background:new 0 0 512 512;" xml:space="preserve">
<g>
	<rect y="459.616" style="fill:#CACACA;" width="512" height="29.76"/>
	<rect x="241.12" y="379.296" style="fill:#CACACA;" width="29.76" height="101.888"/>
</g>
<rect x="218.496" y="437.008" style="fill:#ED6362;" width="74.992" height="74.992"/>
<path style="fill:#EC9922;" d="M462.096,105.12v49.92H49.936V29.68C49.936,13.296,63.216,0,79.616,0h131.04
	c16.384,0,29.68,13.296,29.68,29.68l0,0c0,16.384,13.296,29.68,29.68,29.68h146.32C441.6,59.36,462.096,79.84,462.096,105.12z"/>
<path style="fill:#F3F3F3;" d="M430.8,225.312H81.216V116.768c0-17.68,14.32-32,32-32H398.8c17.68,0,32,14.32,32,32L430.8,225.312
	L430.8,225.312z"/>
<path style="fill:#FDBC4B;" d="M430.016,411.296H82c-17.68,0-33.36-12.608-35.056-28.416L24.32,172.256
	c-2.032-18.912,12.8-35.408,31.824-35.408h399.744c19.024,0,33.856,16.496,31.824,35.424l-22.624,210.624
	C463.376,398.688,447.696,411.296,430.016,411.296z"/>
<path style="fill:#FFCC5B;" d="M345.376,136.848c-12.96,0-23.776,10.448-24.16,23.216c-0.384,12.608,9.6,22.736,22.288,22.736h30.72
	c10.624,0,18.72,8.48,18.016,18.752l-0.016,0.24c-0.032,0.448-0.048,0.896-0.048,1.344c-0.016,10.016-8.72,18.368-19.024,18.368
	h-72.064c-12.208,0-23.248,8.752-24,20.32c-0.8,12.192,9.248,22.176,21.84,22.176h43.568c10.272,0,18.192,7.84,17.648,17.408
	l-0.064,1.184l-0.016,0.24c-0.448,9.952-9.488,18.016-20.112,18.016h-4.416c-11.76,0-22.528,8.112-23.424,18.832
	c-0.96,11.312,8.544,20.56,20.688,20.56h43.664c10.288,0,17.408,7.808,16.656,17.024c0,0.08-0.016,0.144-0.016,0.224
	s-0.016,0.144-0.016,0.224c-0.512,9.12-8.576,16.736-18.688,16.736h-17.296c-11.328,0-21.792,7.536-22.784,17.488
	c-1.04,10.512,8.032,19.12,19.728,19.12h76c17.68,0,33.36-12.624,35.056-28.416l22.592-210.384
	c2.032-18.912-12.784-35.424-31.824-35.424H345.376V136.848z"/>
<g>
	<path style="fill:#E18B26;" d="M167.024,21.808H90.528c-7.568,0-13.696,6.128-13.696,13.696S82.96,49.2,90.528,49.2h76.496
		c7.568,0,13.696-6.128,13.696-13.696S174.576,21.808,167.024,21.808z"/>
	<path style="fill:#E18B26;" d="M203.136,21.808h-1.712c-7.568,0-13.696,6.128-13.696,13.696S193.856,49.2,201.424,49.2h1.712
		c7.568,0,13.696-6.128,13.696-13.696S210.704,21.808,203.136,21.808z"/>
</g>
<g>
</g>
<g>
</g>
<g>
</g>
<g>
</g>
<g>
</g>
<g>
</g>
<g>
</g>
<g>
</g>
<g>
</g>
<g>
</g>
<g>
</g>
<g>
</g>
<g>
</g>
<g>
</g>
<g>
</g>
</svg>
