<svg id="Capa_1" enable-background="new 0 0 490.588 490.588" height="512" viewBox="0 0 490.588 490.588" width="512" xmlns="http://www.w3.org/2000/svg"><g><path d="m150.655 1.096c-10.524 9.767-44.805 46.494 2.795 72.537 47.6-26.044 13.32-62.77 2.795-72.537-1.574-1.461-4.015-1.461-5.59 0z" fill="#b3e59f"/><path d="m153.453 73.632c-3.55-1.94-6.65-3.94-9.33-6 27.44-20.93 11.78-46.46 0-59.82 2.488-2.826 4.806-5.109 6.509-6.691 1.584-1.472 4.032-1.495 5.617-.024 10.524 9.767 44.801 46.492-2.796 72.535z" fill="#95d6a4"/><path d="m108.761 32.935c-.364 12.826 1.783 53.257 44.689 40.698 12.559-42.906-27.872-45.054-40.698-44.689-2.176.061-3.929 1.815-3.991 3.991z" fill="#95d6a4"/><path d="m153.453 73.632c-6.74 1.97-12.47 2.64-17.34 2.31 5.89-27.59-12.22-36.26-27.36-38.82-.037-1.581-.023-2.992.011-4.17.063-2.184 1.808-3.946 3.993-4.008 12.824-.365 53.255 1.781 40.696 44.688z" fill="#78c2a4"/><path d="m352.403 68.589c-65.305-.003-130.612-.003-195.917 0-4.578 0-7.94 4.276-6.883 8.73 25.409 107.075 40.889 216.272 46.239 326.203l2.541 52.21c.137 2.816-.522 5.614-1.901 8.073l-10.806 19.272c-1.885 3.362.545 7.51 4.399 7.51h128.736c3.854 0 6.284-4.148 4.399-7.51l-10.806-19.272c-1.379-2.459-2.038-5.257-1.901-8.073l2.541-52.21c5.35-109.931 20.83-219.128 46.239-326.203 1.06-4.454-2.302-8.73-6.88-8.73z" fill="#d8ecfe"/><path d="m310.502 455.728c-.13 2.82.53 5.62 1.9 8.08l10.81 19.27c1.89 3.36-.54 7.51-4.4 7.51h-13.5c3.86 0 6.29-4.15 4.4-7.51l-10.81-19.27c-1.37-2.46-2.03-5.26-1.9-8.08l2.54-52.21c5.35-109.93 20.83-219.12 46.24-326.2 1.06-4.45-2.3-8.73-6.88-8.73h13.5c4.58 0 7.94 4.28 6.88 8.73-25.41 107.08-40.89 216.27-46.24 326.2z" fill="#b3dafe"/><path d="m320.048 125.689c-16.352 67.401-26.281 154.753-29.652 224.028l-4.212 75.474c-.318 5.704-5.037 10.167-10.75 10.167h-41.978c-5.713 0-10.432-4.462-10.75-10.167l-4.212-75.474c-3.372-69.275-13.3-156.626-29.652-224.028z" fill="#b57f5f"/><path d="m320.052 125.688c-16.36 67.4-26.28 154.75-29.66 224.03l-4.213 75.473c-.318 5.704-5.037 10.167-10.75 10.167h-12.578l4.78-85.64c3.37-69.28 13.3-156.63 29.65-224.03z" fill="#9f6e50"/><path d="m378.504 11.025c3.208 1.852 4.307 5.954 2.455 9.162l-60.907 105.502-73.057 126.531c-1.852 3.208-5.954 4.307-9.162 2.455l-10.693-6.173c-3.208-1.852-4.307-5.954-2.455-9.162l65.616-113.652 68.347-118.382c1.852-3.208 5.954-4.307 9.162-2.455z" fill="#b3e59f"/><path d="m323.267 68.589-32.966 57.099-65.616 113.652c-1.852 3.208-.753 7.31 2.455 9.162l10.693 6.174c3.208 1.852 7.31.753 9.162-2.455l73.057-126.532 32.944-57.064c-.196-.016-.391-.035-.592-.035-9.713-.001-19.425-.001-29.137-.001z" fill="#95d6a4"/><path d="m320.052 125.688-73.057 126.532c-1.852 3.208-5.954 4.307-9.162 2.455l-10.693-6.173c-3.208-1.852-4.307-5.954-2.455-9.162l65.616-113.652z" fill="#78c2a4"/><circle cx="215.179" cy="118.847" fill="#fef0ae" r="27.253"/><path d="m242.432 118.848c0 15.05-12.2 27.25-27.25 27.25-3.67 0-7.18-.73-10.37-2.05 9.91-4.07 16.88-13.82 16.88-25.2s-6.97-21.13-16.88-25.2c3.19-1.32 6.7-2.05 10.37-2.05 15.05 0 27.25 12.2 27.25 27.25z" fill="#fee97d"/><circle cx="265.838" cy="307.777" fill="#fef0ae" r="27.253"/><path d="m293.092 307.778c0 15.05-12.2 27.25-27.25 27.25-3.55 0-6.94-.68-10.05-1.92 10.08-3.99 17.21-13.83 17.21-25.33s-7.13-21.34-17.21-25.33c3.11-1.24 6.5-1.92 10.05-1.92 15.05 0 27.25 12.2 27.25 27.25z" fill="#fee97d"/><circle cx="243.683" cy="349.717" fill="#fef0ae" r="25.189"/><path d="m268.872 349.718c0 13.91-11.28 25.19-25.19 25.19-3.61 0-7.05-.76-10.16-2.14 8.85-3.91 15.02-12.76 15.02-23.05s-6.17-19.14-15.02-23.05c3.11-1.38 6.55-2.14 10.16-2.14 13.91 0 25.19 11.28 25.19 25.19z" fill="#fee97d"/><circle cx="243.552" cy="406.588" fill="#9f6e50" r="7.5"/></g></svg>