<svg id="Capa_1" enable-background="new 0 0 512 512" height="512" viewBox="0 0 512 512" width="512" xmlns="http://www.w3.org/2000/svg"><g><path d="m256.01 0h-.01c-141.61 0-256 114.43-256 256 0 141.61 114.43 256 256 256h.01c141.61-.01 255.99-114.43 255.99-256 0-141.61-114.42-255.99-255.99-256z" fill="#fabe2c"/><path d="m512 256c0 141.57-114.38 255.99-255.99 256v-512c141.57.01 255.99 114.39 255.99 256z" fill="#ff9100"/><path d="m482 256c0 125.09-100.85 225.99-225.99 226h-.01c-125.09 0-226-100.86-226-226 0-125.09 100.86-226 226-226h.01c125.09.01 225.99 100.86 225.99 226z" fill="#fed843"/><path d="m482 256c0 125.09-100.85 225.99-225.99 226v-452c125.09.01 225.99 100.86 225.99 226z" fill="#fabe2c"/><path d="m396.884 151h30v30h-30z" fill="#ff9100" transform="matrix(.866 -.5 .5 .866 -27.818 228.184)"/><path d="m85.115 331h30v30h-30z" fill="#fabe2c" transform="matrix(.866 -.5 .5 .866 -159.588 96.414)"/><path d="m331 396.884h30v30h-30z" fill="#ff9100" transform="matrix(.866 -.5 .5 .866 -159.587 228.18)"/><path d="m151 85.115h30v30h-30z" fill="#fabe2c" transform="matrix(.866 -.5 .5 .866 -27.818 96.412)"/><path d="m331 85.116h30v30h-30z" fill="#ff9100" transform="matrix(.5 -.866 .866 .5 86.296 349.701)"/><path d="m151 396.885h30v30h-30z" fill="#fabe2c" transform="matrix(.5 -.866 .866 .5 -273.702 349.7)"/><path d="m396.885 331h30v30h-30z" fill="#ff9100" transform="matrix(.5 -.866 .866 .5 -93.702 529.704)"/><path d="m85.116 151h30v30h-30z" fill="#fabe2c" transform="matrix(.5 -.866 .866 .5 -93.703 169.703)"/><path d="m421 241h30v30h-30z" fill="#ff9100"/><path d="m61 241h30v30h-30z" fill="#fabe2c"/><path d="m241 421h30v30h-30z" fill="#fabe2c"/><path d="m256.01 421h14.99v30h-14.99z" fill="#ff9100"/><path d="m241 61h30v30h-30z" fill="#fabe2c"/><path d="m256.01 61h14.99v30h-14.99z" fill="#ff9100"/><path d="m340.37 341.51c-24.27 19.42-57.86 21.72-84.36 6.4-8.05-4.65-35.15-30.79-65.64-6.4l-18.74-23.42c7.67-6.14 16.27-10.56 25.28-13.27 3.74-11.1 6.75-22.39 9.01-33.82h-24.92v-30h29.09c.6-7.32.91-14.69.91-22.08v-7.92c0-27.91 19.16-51.43 45.01-58.11 4.8-1.23 9.82-1.89 14.99-1.89 33.08 0 60 26.92 60 60v15h-30v-15c0-16.54-13.46-30-30-30-5.46 0-10.58 1.46-14.99 4.03-8.97 5.19-15.01 14.89-15.01 25.97v7.92c0 7.39-.29 14.75-.83 22.08h30.83v30h-34.56c-1.87 10.58-4.32 21.07-7.34 31.42 9.33 1.32 18.48 4.4 26.91 9.27 7.77 4.49 35.13 30.8 65.62 6.4z" fill="#fabe2c"/><g fill="#ff9100"><path d="m256.01 241h14.99v30h-14.99z"/><path d="m271 181c-5.46 0-10.58 1.46-14.99 4.03v-32.14c4.8-1.23 9.82-1.89 14.99-1.89 33.08 0 60 26.92 60 60v15h-30v-15c0-16.54-13.46-30-30-30z"/><path d="m340.37 341.51c-24.27 19.42-57.86 21.72-84.36 6.4v-36.22c7.77 4.49 35.13 30.8 65.62 6.4z"/></g></g></svg>