<?xml version="1.0" encoding="iso-8859-1"?>
<!-- Generator: Adobe Illustrator 19.0.0, SVG Export Plug-In . SVG Version: 6.00 Build 0)  -->
<svg version="1.1" id="Capa_1" xmlns="http://www.w3.org/2000/svg" xmlns:xlink="http://www.w3.org/1999/xlink" x="0px" y="0px"
	 viewBox="0 0 512 512" style="enable-background:new 0 0 512 512;" xml:space="preserve">
<path style="fill:#707487;" d="M121.534,103.612c-62.734,0-113.59,51.519-113.59,115.07v43.181c0,27.88,22.31,50.481,49.832,50.481
	c3.093,0,5.599-2.54,5.599-5.672V229.31c0-38.409,30.736-69.545,68.651-69.545h287.551v-56.153H121.534z"/>
<path style="fill:#E2EEFD;" d="M444.573,200.434l-24.996-40.669H300.316H181.055l-24.997,40.67
	c-7.371,11.994-14.9,23.878-22.585,35.667c-19.956,30.611-81.329,144.129,18.984,256.874c10.792,12.129,26.184,19.023,42.303,19.023
	h105.557h105.557c16.119,0,31.511-6.894,42.303-19.023C548.49,380.228,487.112,266.709,467.158,236.1
	C459.472,224.311,451.944,212.427,444.573,200.434z"/>
<path style="fill:#C7DCF2;" d="M448.178,492.978C437.383,505.107,421.988,512,405.871,512h-25.053
	c16.127,0,31.512-6.893,42.307-19.022c100.315-112.752,38.935-226.266,18.98-256.882c-7.688-11.79-15.213-23.672-22.586-35.657
	l-24.992-40.677h25.053l24.992,40.677c7.373,11.985,14.898,23.867,22.586,35.657C487.114,266.712,548.493,380.226,448.178,492.978z"
	/>
<path style="fill:#9A3F21;" d="M136.961,359.186c2.132,32.828,15.305,69.733,50.26,106.289c5.586,5.842,13.282,9.137,21.311,9.137
	h91.835h91.835c8.01,0,15.698-3.271,21.272-9.098c33.984-35.523,47.394-73.76,50.088-106.147c0.251-3.018-2.068-5.618-5.057-5.618
	H142.031C139.113,353.749,136.769,356.236,136.961,359.186z"/>
<path style="fill:#8C331B;" d="M463.564,359.362c-2.701,32.396-16.106,70.625-50.086,106.148
	c-5.575,5.833-13.263,9.105-21.276,9.105h-28.333c8.825,0,17.284-3.601,23.418-10.02c35.331-36.933,50.462-76.53,54.524-110.849
	h16.695C461.492,353.745,463.808,356.348,463.564,359.362z"/>
<path style="fill:#E2EEFD;" d="M181.055,103.612V45.876c0-2.497,1.77-4.633,4.197-5.066L413.619,0.081
	c3.109-0.554,5.958,1.868,5.958,5.066v98.464L181.055,103.612L181.055,103.612z"/>
<path style="fill:#C7DCF2;" d="M419.581,5.149v98.463h-23.835V3.266l17.873-3.189C416.727-0.468,419.581,1.949,419.581,5.149z"/>
<rect x="395.75" y="103.61" style="fill:#606575;" width="23.826" height="56.15"/>
<g>
	<path style="fill:#707487;" d="M411.178,242.125h16.798c4.207,0,7.617-3.454,7.617-7.716c0-4.262-3.41-7.716-7.617-7.716h-16.798
		c-4.207,0-7.616,3.454-7.616,7.716C403.561,238.671,406.971,242.125,411.178,242.125z"/>
	<path style="fill:#707487;" d="M411.178,273.738h16.798c4.207,0,7.617-3.454,7.617-7.716s-3.41-7.716-7.617-7.716h-16.798
		c-4.207,0-7.616,3.454-7.616,7.716S406.971,273.738,411.178,273.738z"/>
	<path style="fill:#707487;" d="M391.916,305.35h36.059c4.207,0,7.617-3.454,7.617-7.716s-3.41-7.716-7.617-7.716h-36.059
		c-4.207,0-7.616,3.454-7.616,7.716S387.709,305.35,391.916,305.35z"/>
	<path style="fill:#707487;" d="M427.976,321.532h-16.798c-4.207,0-7.616,3.454-7.616,7.716s3.41,7.716,7.616,7.716h16.798
		c4.207,0,7.617-3.454,7.617-7.716S432.183,321.532,427.976,321.532z"/>
</g>
<g>
</g>
<g>
</g>
<g>
</g>
<g>
</g>
<g>
</g>
<g>
</g>
<g>
</g>
<g>
</g>
<g>
</g>
<g>
</g>
<g>
</g>
<g>
</g>
<g>
</g>
<g>
</g>
<g>
</g>
</svg>
