<?xml version="1.0" encoding="iso-8859-1"?>
<!-- Generator: Adobe Illustrator 19.0.0, SVG Export Plug-In . SVG Version: 6.00 Build 0)  -->
<svg version="1.1" id="Capa_1" xmlns="http://www.w3.org/2000/svg" xmlns:xlink="http://www.w3.org/1999/xlink" x="0px" y="0px"
	 viewBox="0 0 512 512" style="enable-background:new 0 0 512 512;" xml:space="preserve">
<path style="fill:#FFD83B;" d="M434.336,265.584c-66.768,0-120.896-54.128-120.896-120.896c0-29.584,10.656-56.656,28.288-77.664
	c-54.496,17.488-93.968,68.544-93.968,128.864c0,74.768,60.608,135.376,135.376,135.376c60.32,0,111.376-39.472,128.864-93.968
	C491.008,254.912,463.92,265.584,434.336,265.584z"/>
<path style="opacity:0.05;fill:#2F3133;enable-background:new    ;" d="M315.28,277.552c36.752-1.088,67.824,21.264,80.352,52.992
	c5.488-0.528,10.896-1.296,16.176-2.448c-12.832-36.352-46.096-63.136-85.984-66.336c-16.016-33.376-44.16-57.984-77.872-70.096
	c-0.048,1.408-0.176,2.784-0.176,4.208c0,4.464,0.24,8.864,0.672,13.216C278.912,222.016,303.232,246.608,315.28,277.552z"/>
<path style="fill:#E9EFF4;" d="M315.28,277.552c-17.84-45.856-62.304-78.416-114.48-78.416s-96.64,32.544-114.48,78.416
	C38.192,276.096,0,314.656,0,361.2c0,46.272,37.504,83.776,83.776,83.776c19.856,0,38.064-6.944,52.416-18.48
	c18.784,11.648,40.864,18.48,64.592,18.48s45.808-6.848,64.592-18.48c14.352,11.552,32.56,18.48,52.416,18.48
	c46.272,0,83.776-37.504,83.776-83.776C401.6,314.624,363.376,276.112,315.28,277.552z"/>
<g>
	<path style="fill:#DEE4E9;" d="M144.384,294.464c-13.584-14.352-32.032-24.768-53.12-27.296c-1.68,3.328-3.456,6.608-4.832,10.112
		c21.088,0.176,39.136,7.6,54.128,21.008c18.88,17.792,24.528,36.288,26.464,57.312
		C166.816,334.112,162.656,314.736,144.384,294.464z"/>
	<path style="fill:#DEE4E9;" d="M234.032,361.2c-1.6-32.944,12.56-58.448,35.52-74.176c27.808-19.216,66.768-20.544,96.528-0.016
		c22.816,15.584,37.152,40.8,35.52,74.176c-2.832-28.208-16.24-50.048-40.72-66.192c-25.44-16.272-61.136-15.968-86.128-0.016
		C250.144,311.248,236.784,333.552,234.032,361.2z"/>
</g>
<g>
</g>
<g>
</g>
<g>
</g>
<g>
</g>
<g>
</g>
<g>
</g>
<g>
</g>
<g>
</g>
<g>
</g>
<g>
</g>
<g>
</g>
<g>
</g>
<g>
</g>
<g>
</g>
<g>
</g>
</svg>
