<?xml version="1.0" encoding="iso-8859-1"?>
<!-- Generator: Adobe Illustrator 19.0.0, SVG Export Plug-In . SVG Version: 6.00 Build 0)  -->
<svg version="1.1" id="Layer_1" xmlns="http://www.w3.org/2000/svg" xmlns:xlink="http://www.w3.org/1999/xlink" x="0px" y="0px"
	 viewBox="0 0 512 512" style="enable-background:new 0 0 512 512;" xml:space="preserve">
<path style="fill:#EDF0F2;" d="M400.348,176.758c-0.381-1.385-0.895-2.8-1.313-4.194c-3.108-10.332-6.981-20.845-12.231-31.77
	c-8.729-18.179-13.413-37.597-13.902-57.728c-0.239-9.223-8.044-16.88-17.109-16.277H156.172
	c-9.479-0.614-16.88,7.054-17.109,16.277c-0.489,20.147-5.173,39.565-13.902,57.728c-12.669,26.38-18.901,50.748-19.286,74.448
	c-0.012,0.762-0.149,1.54-0.149,2.302v1.035c1.165,14.885,18.562,20.208,28.25,10.519c5.81-5.81,11.136-11.136,16.946-16.946
	c21.109-21.109,55.456-21.109,76.565,0c17.065,17.065,39.479,25.598,61.891,25.598s44.826-8.533,61.891-25.598
	c9.38-9.38,22.991-14.832,34.044-15.691c9.196-0.718,16.066-8.744,15.348-17.94C400.614,177.912,400.457,177.345,400.348,176.758z"
	/>
<path style="fill:#DAE1E6;" d="M399.035,172.563c-3.108-10.332-6.981-20.845-12.231-31.77
	c-8.729-18.179-13.413-37.597-13.902-57.728c-0.239-9.223-8.044-16.88-17.109-16.277h-99.891v164.318
	c10.694,4.412,22.082,6.644,33.478,6.644c22.413,0,44.826-8.533,61.891-25.598c9.38-9.38,22.991-14.832,34.044-15.691
	c9.196-0.718,16.066-8.744,15.348-17.94c-0.047-0.609-0.205-1.178-0.313-1.764C399.968,175.373,399.453,173.958,399.035,172.563z"/>
<path style="fill:#D7EBFF;" d="M400.374,176.751c-0.445-1.336-0.89-2.783-1.336-4.23c-10.351-21.482-53.649-1.67-71.346,16.028
	c-19.59,19.59-50.643,21.037-71.791,4.118c-1.67-1.224-3.228-2.56-4.786-4.118c-16.584-16.584-38.511-25.6-61.885-25.6
	c-24.042,0-45.969,9.683-61.885,25.6c-15.137,15.137-20.369,17.697-21.482,26.713c0,0.778-0.111,1.558-0.111,2.226v244.424
	c0,27.603,22.483,50.087,50.087,50.087h200.348c27.603,0,50.087-22.483,50.087-50.087V217.489
	C406.273,204.243,404.158,190.664,400.374,176.751z"/>
<path style="fill:#BDDEFF;" d="M406.273,217.489v244.424c0,27.603-22.483,50.087-50.087,50.087H255.901V192.668
	c21.148,16.918,52.202,15.471,71.791-4.118c17.697-17.697,60.995-37.51,71.346-16.028c0.445,1.447,0.89,2.894,1.336,4.23
	C404.158,190.664,406.273,204.243,406.273,217.489z"/>
<path style="fill:#38C3E0;" d="M356.162,100.174H155.814c-27.619,0-50.087-22.468-50.087-50.087S128.195,0,155.814,0h200.348
	c27.619,0,50.087,22.468,50.087,50.087S383.781,100.174,356.162,100.174z"/>
<path style="fill:#37AFCC;" d="M356.162,0H255.901v100.174h100.261c27.619,0,50.087-22.468,50.087-50.087S383.781,0,356.162,0z"/>
<g>
</g>
<g>
</g>
<g>
</g>
<g>
</g>
<g>
</g>
<g>
</g>
<g>
</g>
<g>
</g>
<g>
</g>
<g>
</g>
<g>
</g>
<g>
</g>
<g>
</g>
<g>
</g>
<g>
</g>
</svg>
