<?xml version="1.0" encoding="iso-8859-1"?>
<!-- Generator: Adobe Illustrator 19.0.0, SVG Export Plug-In . SVG Version: 6.00 Build 0)  -->
<svg version="1.1" id="Capa_1" xmlns="http://www.w3.org/2000/svg" xmlns:xlink="http://www.w3.org/1999/xlink" x="0px" y="0px"
	 viewBox="0 0 505.931 505.931" style="enable-background:new 0 0 505.931 505.931;" xml:space="preserve">
<path style="fill:#F44336;" d="M495.84,250.437L234.976,4.901C232,2.117,228.064,0.549,224,0.549H16c-8.832,0-16,7.168-16,16v208
	c0,4.416,1.824,8.608,5.024,11.616L280.8,496.645c5.952,5.632,13.856,8.736,21.984,8.736c0.576,0,1.088-0.032,1.664-0.064
	c8.672-0.448,16.928-4.512,22.656-11.136L498.24,294.533C509.344,281.573,508.32,262.181,495.84,250.437z"/>
<g>
	<path style="fill:#FAFAFA;" d="M112,160.549c-26.464,0-48-21.536-48-48s21.536-48,48-48s48,21.536,48,48
		S138.464,160.549,112,160.549z"/>
	<path style="fill:#FAFAFA;" d="M272,256.549c-8.832,0-16-7.168-16-16s7.168-16,16-16h32c8.832,0,16-7.136,16-16
		c0-8.8-7.168-16-16-16h-16v-16c0-8.832-7.168-16-16-16s-16,7.168-16,16v18.944c-18.592,6.624-32,24.224-32,45.056
		c0,26.464,21.536,48,48,48c8.832,0,16,7.2,16,16s-7.168,16-16,16h-32c-8.832,0-16,7.168-16,16s7.168,16,16,16h16v16
		c0,8.832,7.168,16,16,16s16-7.168,16-16v-18.944c18.592-6.624,32-24.224,32-45.056C320,278.085,298.464,256.549,272,256.549z"/>
</g>
<g>
</g>
<g>
</g>
<g>
</g>
<g>
</g>
<g>
</g>
<g>
</g>
<g>
</g>
<g>
</g>
<g>
</g>
<g>
</g>
<g>
</g>
<g>
</g>
<g>
</g>
<g>
</g>
<g>
</g>
</svg>
