<svg id="Layer_1" height="512" viewBox="0 0 32 32" width="512" xmlns="http://www.w3.org/2000/svg" data-name="Layer 1"><path d="m19 12h-3a1 1 0 0 0 -1 1v6a1 1 0 0 0 1 1h3a4 4 0 0 0 0-8z" fill="#ffd98c"/><path d="m20.872 18.979a1 1 0 0 1 -1-1v-5.879a3.978 3.978 0 0 0 -.872-.1h-3a1 1 0 0 0 -1 1v6a1 1 0 0 0 1 1h3a3.962 3.962 0 0 0 2.643-1.021z" fill="#ffce66"/><path d="m16.109 2.038a2.914 2.914 0 0 0 -2.484 1.179c-2.303 3.129-4.939 4.783-7.625 4.783h-2a3 3 0 0 0 -3 3v10a3 3 0 0 0 3 3h2c2.686 0 5.322 1.654 7.626 4.784 1.599 2.174 5.374 1.181 5.374-1.674v-22.22a2.88 2.88 0 0 0 -2.891-2.852z" fill="#b3dafe"/><path d="m16.109 27.342a2.906 2.906 0 0 1 -2.483-1.175c-2.3-3.13-4.94-4.784-7.626-4.784h-2a3 3 0 0 1 -3-3v2.617a3 3 0 0 0 3 3h2c2.686 0 5.322 1.654 7.626 4.784 1.603 2.179 5.374 1.179 5.374-1.674v-2.617a2.883 2.883 0 0 1 -2.891 2.849z" fill="#95c6f5"/><g fill="#fb8890"><path d="m27.815 24.044a1 1 0 0 1 -.815-1.565 11.471 11.471 0 0 0 0-12.958 1 1 0 1 1 1.642-1.142 13.471 13.471 0 0 1 0 15.242 1.014 1.014 0 0 1 -.827.423z"/><path d="m24.748 21.7a1.009 1.009 0 0 1 -.822-1.568 7.328 7.328 0 0 0 0-8.264 1 1 0 0 1 1.645-1.137 9.326 9.326 0 0 1 0 10.538 1 1 0 0 1 -.823.431z"/></g></svg>