<?xml version="1.0" encoding="UTF-8"?>
<svg xmlns="http://www.w3.org/2000/svg" viewBox="0 0 128 128" width="512" height="512"><g id="icon"><path d="M84.17,59.88,71.32,67.1a2.6,2.6,0,0,1-.34.16,3.514,3.514,0,0,1-1.46.31H29.25a3.562,3.562,0,0,1-1.48-.31,3.667,3.667,0,0,1-1.91-4.75l1.68-4.08L36.91,35.7a3.673,3.673,0,0,1,3.39-2.26H69.91A3.659,3.659,0,0,1,73,35.13l9.8,15.39,2.67,4.2A3.654,3.654,0,0,1,84.17,59.88Z" fill="#dbe2eb"/><g opacity="0.5"><path d="M84.17,59.88,71.32,67.1a2.6,2.6,0,0,1-.34.16H27.77a3.667,3.667,0,0,1-1.91-4.75l1.68-4.08,38.54-.84a2.482,2.482,0,0,0,1.27-.38L76,51.6a2.518,2.518,0,0,1,1.03-.38l5.77-.7,2.67,4.2A3.654,3.654,0,0,1,84.17,59.88Z" fill="#c1cdd3"/></g><rect x="42.005" y="40.156" width="26.399" height="10.348" rx="1.557" fill="#6bb3d9"/><path d="M14.136,56.515H5.51a1.955,1.955,0,0,0-1.955,1.956v7.274H16.092V58.471A1.956,1.956,0,0,0,14.136,56.515Z" fill="#c1cdd3"/><path d="M125.366,48.753l-48.34,5.875A2.431,2.431,0,0,0,76,55l-8.653,5.609A2.418,2.418,0,0,1,66.084,61l-63.8,1.383A2.42,2.42,0,0,0,.367,66.2l9.809,13.823a2.42,2.42,0,0,0,1.974,1.02h94.779a2.42,2.42,0,0,0,2-1.057l18.729-27.469A2.42,2.42,0,0,0,125.366,48.753Z" fill="#967169"/><path d="M3.535,70.666H115.283l12.374-18.148a2.42,2.42,0,0,0-2.291-3.765l-48.34,5.875A2.431,2.431,0,0,0,76,55l-8.653,5.609A2.418,2.418,0,0,1,66.084,61l-63.8,1.383A2.42,2.42,0,0,0,.367,66.2Z" fill="#a67f74"/><path d="M120.989,76.914a8.689,8.689,0,0,0-6.893-.847l-13.17,3.917a8.691,8.691,0,0,1-6.683-.727l-4.259-2.342a8.688,8.688,0,0,0-7.221-.548l-8.716,3.219a8.694,8.694,0,0,1-7.464-.687l-2.86-1.69a8.692,8.692,0,0,0-7.755-.574l-6.092,2.5a8.718,8.718,0,0,1-8.606-1.144,8.717,8.717,0,0,0-8.527-1.177l-6.205,2.474a8.708,8.708,0,0,1-8.227-.96l-.735-.51a8.706,8.706,0,0,0-8.555-.822L0,81.018v7.3H128v-7.3Z" fill="#6bb3d9"/><path d="M120.989,83.221a8.689,8.689,0,0,0-6.893-.847l-13.17,3.917a8.691,8.691,0,0,1-6.683-.727l-4.259-2.342a8.688,8.688,0,0,0-7.221-.548l-8.716,3.219a8.694,8.694,0,0,1-7.464-.687l-2.86-1.69a8.692,8.692,0,0,0-7.755-.574l-6.092,2.5A8.718,8.718,0,0,1,41.27,84.3a8.717,8.717,0,0,0-8.527-1.177l-6.205,2.474a8.708,8.708,0,0,1-8.227-.96l-.735-.51A8.706,8.706,0,0,0,9.021,83.3L0,87.325v7.3H128v-7.3Z" fill="#4fa4d1"/><path d="M120.989,89.528a8.689,8.689,0,0,0-6.893-.847L100.926,92.6a8.691,8.691,0,0,1-6.683-.727l-4.259-2.342a8.688,8.688,0,0,0-7.221-.548L74.047,92.2a8.69,8.69,0,0,1-7.464-.687l-2.86-1.69a8.692,8.692,0,0,0-7.755-.574l-6.092,2.5A8.718,8.718,0,0,1,41.27,90.6a8.717,8.717,0,0,0-8.527-1.177L26.538,91.9a8.708,8.708,0,0,1-8.227-.96l-.735-.51a8.706,8.706,0,0,0-8.555-.822L0,93.632v7.3H128v-7.3Z" fill="#6bb3d9"/></g></svg>
