<svg id="Capa_1" enable-background="new 0 0 511.999 511.999" height="512" viewBox="0 0 511.999 511.999" width="512" xmlns="http://www.w3.org/2000/svg"><g><path d="m258.105 315.529v-30.74c0-26.913-13.036-52.159-34.978-67.742-16.548-11.752-26.379-30.791-26.379-51.088v-56.255c-6.352 7.052-15.553 11.489-25.791 11.489-10.239 0-19.439-4.436-25.791-11.489v56.256c0 20.297-9.831 39.336-26.379 51.088-21.943 15.583-34.978 40.829-34.978 67.742v30.74h174.296z" fill="#ff656f"/><path d="m150.354 232.977c13.192-14.814 20.603-33.884 20.603-53.72v-58.065c-10.239 0-19.439-4.436-25.791-11.489v56.256c0 20.297-9.831 39.336-26.379 51.088-21.943 15.583-34.978 40.829-34.978 67.742v30.74h39.997c0-14.446 0-25.828 0-31.858-.001-16.992 13.857-36.444 26.548-50.694z" fill="#ff4756"/><path d="m83.808 421.115v62.794c0 15.514 12.576 28.09 28.09 28.09h59.059 59.059c15.514 0 28.09-12.576 28.09-28.09v-62.794z" fill="#ff656f"/><path d="m123.805 421.115h-39.997v62.794c0 15.514 12.576 28.09 28.09 28.09h20.786c-9.173-10.964-8.88-21.121-8.88-21.121s.001-31.257.001-69.763z" fill="#ff4756"/><g><path d="m359.058 466.279c-4.267 0-7.726-3.459-7.726-7.726v-89.097c0-4.268 3.459-7.726 7.726-7.726s7.726 3.459 7.726 7.726v89.097c0 4.267-3.459 7.726-7.726 7.726z" fill="#b1dbfc"/></g><path d="m170.957 123.253c10.239 0 19.439-4.436 25.791-11.489v-45.896c-1.032.285-2.114.449-3.236.449h-45.11c-1.123 0-2.205-.164-3.236-.449v45.896c6.351 7.052 15.552 11.489 25.791 11.489z" fill="#ffd301"/><path d="m148.402 66.317c-1.123 0-2.204-.164-3.236-.449v45.896c6.352 7.053 15.553 11.489 25.791 11.489v-56.936z" fill="#ffc20c"/><g><path d="m170.957 349.062c-11.683 0-21.892-7.851-27.438-19.551-23.123 3.398-43.733 10.969-59.71 21.431v71.165c22.073 14.454 52.958 23.439 87.149 23.439 34.19 0 65.075-8.985 87.149-23.439v-71.165c-15.977-10.462-36.587-18.033-59.71-21.431-5.549 11.7-15.757 19.551-27.44 19.551z" fill="#00c53b"/></g><path d="m83.808 350.942v71.165c11.274 7.383 24.858 13.327 39.996 17.387 0-32.053 0-73.269 0-105.919-15.139 4.052-28.724 9.985-39.996 17.367z" fill="#00b327"/><path d="m139.093 309.3c0-5.668.957-11.055 2.67-15.934-22.411 3.518-42.382 10.975-57.955 21.172v38.464c16.199-10.608 37.156-18.252 60.671-21.579-3.4-6.325-5.386-13.934-5.386-22.123z" fill="#74d579"/><path d="m123.805 297.167c-15.139 4.055-28.724 9.99-39.996 17.371v38.464c11.274-7.382 24.856-13.324 39.996-17.379 0-15.104 0-28.489 0-38.456z" fill="#4bcd5c"/><path d="m200.151 293.366c1.713 4.879 2.67 10.266 2.67 15.934 0 8.189-1.986 15.798-5.386 22.123 23.515 3.327 44.472 10.971 60.671 21.579v-38.464c-15.573-10.198-35.544-17.654-57.955-21.172z" fill="#74d579"/><path d="m418.578 190.407h-120.354c-5.309 0-9.613 4.304-9.613 9.613v68.269c10.646-6.3 37.529-17.615 69.79 3.311s59.144 9.611 69.79 3.311v-74.89c0-5.311-4.304-9.614-9.613-9.614z" fill="#dfebfa"/><path d="m323.981 198.989c0-3.757 2.16-7.001 5.301-8.583h-31.057c-5.309 0-9.613 4.304-9.613 9.613v68.269c6.523-3.86 19.151-9.592 35.369-8.646z" fill="#b1dbfc"/><path d="m396.721 483.696h-5.816c-10.136 0-18.353-8.217-18.353-18.353 0-7.62-5.856-14.177-13.467-14.535-8.127-.383-14.836 6.093-14.836 14.135v.4c0 10.136-8.217 18.353-18.353 18.353h-5.816c-7.62 0-14.177 5.856-14.535 13.467-.383 8.127 6.093 14.836 14.136 14.836h77.439c8.042 0 14.518-6.709 14.136-14.836-.358-7.611-6.915-13.467-14.535-13.467z" fill="#dfebfa"/><path d="m326.665 497.163c.359-7.611 6.915-13.467 14.535-13.467h5.816c10.136 0 18.353-8.217 18.353-18.353v-.4c0-3.577 1.333-6.84 3.522-9.332-2.429-2.778-5.879-4.619-9.804-4.804-8.127-.383-14.836 6.093-14.836 14.135v.4c0 10.136-8.217 18.353-18.353 18.353h-5.816c-7.62 0-14.177 5.856-14.535 13.467-.383 8.127 6.093 14.836 14.136 14.836h21.117c-8.042.001-14.518-6.708-14.135-14.835z" fill="#b1dbfc"/><path d="m428.191 307.45v-34.601c-10.646 6.3-37.529 17.615-69.79-3.311s-59.144-9.611-69.79-3.311v41.223c0 38.544 31.246 69.79 69.79 69.79s69.79-31.246 69.79-69.79z" fill="#ff656f"/><path d="m323.981 307.45v-49.869c-16.219-.946-28.846 4.786-35.369 8.646v41.223c0 38.544 31.246 69.79 69.79 69.79 6.111 0 12.036-.791 17.685-2.266-29.98-7.83-52.106-35.091-52.106-67.524z" fill="#ff4756"/><path d="m193.511 0h-45.11c-6.71 0-12.149 5.439-12.149 12.149v45.11c0 6.71 5.439 12.149 12.149 12.149h45.11c6.71 0 12.149-5.439 12.149-12.149v-45.11c0-6.71-5.439-12.149-12.149-12.149z" fill="#fee55a"/><path d="m167.845 57.259v-45.11c0-6.71 5.439-12.149 12.149-12.149h-31.592c-6.71 0-12.149 5.439-12.149 12.149v45.11c0 6.71 5.439 12.149 12.149 12.149h31.592c-6.71 0-12.149-5.44-12.149-12.149z" fill="#ffd301"/><path d="m170.956 269.023c-17.854 0-32.379 18.068-32.379 40.277s14.525 40.277 32.379 40.277 32.379-18.068 32.379-40.277-14.524-40.277-32.379-40.277z" fill="#fee55a"/><path d="m167.766 309.3c0-15.679 7.245-29.285 17.785-35.936-4.389-2.769-9.345-4.341-14.594-4.341-17.854 0-32.379 18.068-32.379 40.277s14.525 40.277 32.379 40.277c5.249 0 10.205-1.572 14.594-4.341-10.54-6.651-17.785-20.257-17.785-35.936z" fill="#ffd301"/></g></svg>