<svg id="Capa_1" enable-background="new 0 0 512 512" height="512" viewBox="0 0 512 512" width="512" xmlns="http://www.w3.org/2000/svg"><g><g><path d="m334.763 391.024c-35.002-.014-334.781-19.27-334.763-63.51s299.812-63.257 334.814-63.243 63.365 28.4 63.351 63.402-28.4 63.365-63.402 63.351z" fill="#fb9538"/></g><g><path d="m391.587 355.766c-7.279 2.911-15.216 4.527-23.535 4.523-33.4-.013-307.884-17.549-332.929-57.592-21.61 7.176-35.119 15.428-35.123 24.817-.018 44.24 299.761 63.497 334.763 63.511 24.91.009 46.457-14.36 56.824-35.259z" fill="#fc840d"/></g><g><path d="m504.406 334.975c-.001 0-.002 0-.003 0l-134.831-.054c-4.194-.001-7.593-3.403-7.591-7.597.002-4.193 3.401-7.591 7.594-7.591h.003l134.831.054c4.194.001 7.593 3.403 7.591 7.597-.002 4.193-3.401 7.591-7.594 7.591z" fill="#b9ea6a"/></g><g><path d="m369.571 334.922c-3.322 0-6.373-2.197-7.31-5.552-1.128-4.039 1.231-8.228 5.271-9.357l134.659-37.62c4.033-1.129 8.228 1.231 9.357 5.271 1.128 4.039-1.231 8.228-5.271 9.357l-134.659 37.62c-.682.19-1.371.281-2.047.281z" fill="#b9ea6a"/></g><g><path d="m504.21 371.814c-.66 0-1.329-.087-1.995-.267l-134.63-36.557c-4.047-1.099-6.437-5.271-5.338-9.318 1.1-4.048 5.276-6.437 9.319-5.338l134.63 36.557c4.047 1.099 6.437 5.271 5.338 9.318-.919 3.38-3.981 5.605-7.324 5.605z" fill="#a1e42c"/></g><g><g><path d="m320.238 339.412c-.001 0-.002 0-.003 0-4.194-.001-7.593-3.403-7.591-7.597l.005-12.455c.002-4.193 3.401-7.591 7.594-7.591h.003c4.194.001 7.593 3.403 7.591 7.597l-.005 12.455c-.002 4.193-3.401 7.591-7.594 7.591z" fill="#fb7601"/></g><g><path d="m284.484 360.364c-.001 0-.002 0-.003 0-4.194-.001-7.593-3.403-7.591-7.597l.005-12.454c.002-4.193 3.401-7.591 7.594-7.591h.003c4.194.001 7.593 3.403 7.591 7.597l-.005 12.454c-.002 4.194-3.402 7.591-7.594 7.591z" fill="#fb7601"/></g></g><g><path d="m346.021 266.877c-26.661 22.679-267.404 202.347-296.069 168.65s187.279-242.518 213.94-265.197 66.659-19.452 89.338 7.209 19.452 66.659-7.209 89.338z" fill="#fb7601"/></g><g><path d="m366.433 203.194c-3.656 6.935-8.652 13.31-14.988 18.701-25.44 21.641-245.808 186.223-290.836 171.968-11.803 19.472-16.74 34.513-10.657 41.664 28.665 33.697 269.408-145.971 296.069-168.65 18.974-16.14 26.066-41.049 20.412-63.683z" fill="#f16600"/></g><g><path d="m331.241 203.402c-2.151 0-4.286-.908-5.788-2.674-2.717-3.194-2.331-7.987.864-10.704l102.699-87.363c3.195-2.718 7.987-2.33 10.704.864s2.33 7.987-.864 10.704l-102.699 87.363c-1.429 1.216-3.177 1.81-4.916 1.81z" fill="#b9ea6a"/></g><g><path d="m331.23 203.403c-1.46 0-2.936-.42-4.238-1.298-3.477-2.344-4.396-7.064-2.052-10.541l78.146-115.937c2.344-3.478 7.064-4.396 10.541-2.053 3.477 2.344 4.396 7.064 2.052 10.541l-78.146 115.937c-1.466 2.177-3.862 3.351-6.303 3.351z" fill="#b9ea6a"/></g><g><path d="m331.459 203.659c-2.85 0-5.581-1.611-6.875-4.36-1.787-3.794-.159-8.318 3.635-10.105l126.208-59.438c3.794-1.787 8.318-.16 10.105 3.635 1.787 3.794.159 8.318-3.635 10.105l-126.208 59.438c-1.045.492-2.147.725-3.23.725z" fill="#a1e42c"/></g><g><g><path d="m291.063 204.739c-2.15 0-4.286-.908-5.788-2.673l-6.566-7.719c-2.717-3.195-2.33-7.987.864-10.704 3.195-2.718 7.988-2.33 10.704.863l6.566 7.719c2.717 3.195 2.33 7.987-.864 10.704-1.429 1.215-3.177 1.81-4.916 1.81z" fill="#fb9538"/></g><g><path d="m202.369 305.02c-2.15 0-4.285-.908-5.788-2.674l-6.566-7.719c-2.717-3.194-2.33-7.987.864-10.704s7.986-2.33 10.704.864l6.566 7.719c2.717 3.194 2.33 7.987-.864 10.704-1.428 1.216-3.177 1.81-4.916 1.81z" fill="#fb9538"/></g><g><path d="m278.173 256.459c-2.15 0-4.286-.908-5.788-2.673l-6.566-7.719c-2.717-3.195-2.33-7.987.864-10.704 3.195-2.718 7.988-2.33 10.704.863l6.566 7.719c2.717 3.195 2.33 7.987-.864 10.704-1.429 1.216-3.177 1.81-4.916 1.81z" fill="#fb9538"/></g></g></g></svg>