<?xml version="1.0" encoding="iso-8859-1"?>
<!-- Generator: Adobe Illustrator 19.0.0, SVG Export Plug-In . SVG Version: 6.00 Build 0)  -->
<svg xmlns="http://www.w3.org/2000/svg" xmlns:xlink="http://www.w3.org/1999/xlink" version="1.1" id="Capa_1" x="0px" y="0px" viewBox="0 0 512 512" style="enable-background:new 0 0 512 512;" xml:space="preserve">
<path style="fill:#3BBC56;" d="M221.972,73.954L261.691,42c6.126-4.927,16.057-4.927,22.182,0l77.014,64.017  c6.07,0,13.061-0.306,22.784,2.608c7.669-33.598-12.368-64.127-42.364-71.934c3.938-25.15-26.11-40.382-44.201-23.34  c-19.577-22.53-56.342-15.429-66,12.916c-17.581-1.097-32.452,11.702-34.618,28.523C207.193,57.779,216.248,64.722,221.972,73.954z"/>
<path style="fill:#31AD45;" d="M288.922,46.198c8.308-17.247,24.642-29.889,44.152-33.116c-10.138-9.289-25.79-9.32-35.969,0.269  c-19.577-22.53-56.342-15.429-66,12.916c-17.581-1.097-32.452,11.702-34.618,28.523c10.706,2.989,19.762,9.932,25.485,19.165  L261.691,42c6.126-4.927,16.057-4.927,22.182,0L288.922,46.198z"/>
<path style="fill:#F7DB94;" d="M419.925,134.21H146.108c-17.534,0-31.799,14.264-31.799,31.799c0,14.991,10.63,28.083,25.277,31.128  c6.743,1.402,11.637,7.418,11.637,14.305v270.305h263.588V211.442c0-6.887,4.894-12.903,11.637-14.305  c14.646-3.045,25.277-16.136,25.277-31.128C451.724,148.475,437.46,134.21,419.925,134.21z"/>
<path style="fill:#D8823A;" d="M414.406,512H151.628c-16.904,0-30.658-13.752-30.658-30.657V222.741  c-21.982-9.785-36.914-31.928-36.914-56.732c0-34.216,27.836-62.052,62.052-62.052h273.817c34.216,0,62.052,27.836,62.052,62.052  c0,24.804-14.932,46.946-36.914,56.732v258.602C445.064,498.248,431.31,512,414.406,512z M152.254,480.717H413.78V211.442  c0-7.411,5.202-13.805,12.458-15.314c14.17-2.946,24.456-15.613,24.456-30.12c0-16.967-13.802-30.769-30.769-30.769H146.108  c-16.966,0-30.769,13.802-30.769,30.769c0,14.506,10.285,27.174,24.456,30.12c7.256,1.509,12.458,7.902,12.458,15.314  L152.254,480.717L152.254,480.717z"/>
<path style="fill:#FFB92E;" d="M91.129,106.532h51.899c-2.843-17.826,2.999-34.771,18.683-45.601  C129.146,38.444,84.334,63.729,91.129,106.532z"/>
<path style="fill:#FF8828;" d="M140.936,106.532h43.93l37.774-32.475C196.994,32.738,132.802,55.288,140.936,106.532z"/>
<path style="fill:#FFA92C;" d="M145.342,53.833c-30.98-6.916-59.707,18.095-54.214,52.7h20.606  C107.511,79.935,123.553,58.944,145.342,53.833z"/>
<path style="fill:#F47621;" d="M194.992,53.87c-29.722-7.029-59.669,17.302-54.055,52.664h20.606  C157.323,79.954,173.325,59.037,194.992,53.87z"/>
<path style="fill:#F2D422;" d="M284.518,41.197c-6.483-5.215-16.938-5.257-23.487,0.011l-79.206,65.84h181.912L284.518,41.197z"/>
<path style="fill:#EDC915;" d="M272.782,37.275c-4.424,0-8.592,1.393-11.75,3.933l-79.206,65.84h33.955l73.979-61.494  C284.625,41.286,281.025,37.275,272.782,37.275z"/>
<path style="fill:#F7DB94;" d="M365.894,134.21H92.076c-17.534,0-31.799,14.264-31.799,31.799c0,14.991,10.63,28.083,25.277,31.128  c6.743,1.402,11.637,7.418,11.637,14.305v270.305h263.588V211.442c0-6.887,4.894-12.903,11.637-14.305  c14.646-3.045,25.277-16.136,25.277-31.128C397.693,148.475,383.427,134.21,365.894,134.21z"/>
<path style="fill:#EFCB7B;" d="M365.894,134.21H92.076c-17.534,0-31.799,14.264-31.799,31.799c0,14.991,10.63,28.083,25.277,31.128  c6.743,1.402,11.637,7.418,11.637,14.305v270.305h263.588V211.442c0-6.887,4.894-12.903,11.637-14.305  c14.646-3.045,25.277-16.136,25.277-31.128C397.693,148.475,383.427,134.21,365.894,134.21z"/>
<path style="fill:#F7DB94;" d="M394.227,122.877H120.409c-17.534,0-31.799,14.264-31.799,31.799  c0,14.991,10.63,27.053,25.277,30.098c6.743,1.402,11.637,7.418,11.637,14.305v283.698h263.587V205.261  c0-6.887,4.894-12.903,11.637-14.305c14.646-3.045,25.277-21.288,25.277-36.279C426.025,137.141,411.76,122.877,394.227,122.877z"/>
<path style="fill:#E29040;" d="M360.374,512H97.596c-16.903,0-30.658-13.752-30.658-30.657V222.741  c-21.982-9.785-36.914-31.928-36.914-56.732c0-34.216,27.836-62.052,62.052-62.052h273.818c34.216,0,62.052,27.836,62.052,62.052  c0,24.804-14.931,46.946-36.914,56.732v258.602C391.032,498.248,377.278,512,360.374,512z M98.222,480.717h261.527V211.442  c0-7.411,5.201-13.805,12.457-15.314c14.17-2.946,24.456-15.613,24.456-30.12c0-16.967-13.802-30.769-30.769-30.769H92.076  c-16.966,0-30.768,13.802-30.768,30.769c0,14.506,10.285,27.174,24.456,30.12c7.256,1.509,12.458,7.902,12.458,15.314V480.717z"/>
<path style="fill:#D67B32;" d="M97.191,481.342V205.881c-1.856-4.871-6.079-8.64-11.427-9.753  c-9.317-1.937-16.954-8.077-21.093-16.18c-2.19-2.573-3.363-6.756-3.363-13.939c0-34.216,26.805-62.052,61.022-62.052H92.076  c-34.216,0-62.052,27.836-62.052,62.052c0,24.804,14.932,46.946,36.914,56.732v258.602c0,16.904,13.753,30.657,30.658,30.657h30.253  C110.945,512,97.191,498.248,97.191,481.342z"/>
<g>
</g>
<g>
</g>
<g>
</g>
<g>
</g>
<g>
</g>
<g>
</g>
<g>
</g>
<g>
</g>
<g>
</g>
<g>
</g>
<g>
</g>
<g>
</g>
<g>
</g>
<g>
</g>
<g>
</g>
</svg>
