<?xml version="1.0" encoding="iso-8859-1"?>
<!-- Generator: Adobe Illustrator 19.0.0, SVG Export Plug-In . SVG Version: 6.00 Build 0)  -->
<svg version="1.1" id="Capa_1" xmlns="http://www.w3.org/2000/svg" xmlns:xlink="http://www.w3.org/1999/xlink" x="0px" y="0px"
	 viewBox="0 0 464 464" style="enable-background:new 0 0 464 464;" xml:space="preserve">
<path style="fill:#A15D30;" d="M100,0C77.909,0,60,17.909,60,40v376c0-26.51,21.49-48,48-48h296V0H100z"/>
<path style="fill:#FFF3C9;" d="M404,464H108c-26.51,0-48-21.49-48-48l0,0c0-26.51,21.49-48,48-48h296
	C380.831,395.806,380.831,436.194,404,464z"/>
<path style="fill:#FFEAB8;" d="M108,392h282.6c2.945-8.759,7.489-16.897,13.4-24H108c-26.412-0.084-47.892,21.259-47.976,47.672
	c-0.013,4.16,0.517,8.305,1.576,12.328C67.065,406.834,86.14,392.035,108,392z"/>
<path style="fill:#824B27;" d="M332,328H172c0-17.673-14.327-32-32-32V72c17.673,0,32-14.327,32-32h160c0,17.673,14.327,32,32,32
	v224C346.327,296,332,310.327,332,328z"/>
<path style="fill:#FC5B68;" d="M164,464l-24-24l-24,24v-64h48V464z"/>
<path style="fill:#824B27;" d="M92,0h16v368H92V0z"/>
<path style="fill:#FDCD74;" d="M316,120h-48V72h-32v48h-48v32h48v144h32V152h48V120z"/>
<g>
</g>
<g>
</g>
<g>
</g>
<g>
</g>
<g>
</g>
<g>
</g>
<g>
</g>
<g>
</g>
<g>
</g>
<g>
</g>
<g>
</g>
<g>
</g>
<g>
</g>
<g>
</g>
<g>
</g>
</svg>
