<svg id="Capa_1" enable-background="new 0 0 505.354 505.354" height="512" viewBox="0 0 505.354 505.354" width="512" xmlns="http://www.w3.org/2000/svg"><g><path d="m219.472 21.437c-13.812-.694-25.686-1.29-39.498-1.984-6.294 12.312-11.701 22.892-17.994 35.204-12.312 6.293-22.892 11.701-35.204 17.994.694 13.814 1.29 25.684 1.983 39.499-7.497 11.613-13.94 21.593-21.437 33.206 7.497 11.613 13.94 21.592 21.437 33.205-.694 13.812-1.29 25.686-1.984 39.498 12.311 6.293 22.893 11.702 35.204 17.994 6.293 12.312 11.701 22.892 17.994 35.204 13.814-.694 25.685-1.29 39.499-1.983 2.283 1.474 13.494 8.711 18.21 11.756l14.996-180.674v-100.356c-11.614 7.497-21.593 13.94-33.206 21.437z" fill="#fa235e"/><path d="m325.38 271.256c6.293-12.312 11.701-22.892 17.994-35.204 12.312-6.293 22.892-11.701 35.204-17.994-.693-13.814-1.29-25.684-1.983-39.499 7.497-11.613 13.939-21.592 21.436-33.205-7.496-11.612-13.94-21.594-21.436-33.205.693-13.814 1.29-25.684 1.983-39.499-12.312-6.293-22.892-11.701-35.204-17.994-6.293-12.312-11.701-22.892-17.994-35.204-13.814.694-25.684 1.289-39.498 1.983-11.613-7.495-21.592-13.938-33.205-21.435v100.354l15 180.672c4.923-3.178 15.728-10.154 18.206-11.753 13.814.693 25.684 1.289 39.497 1.983z" fill="#c91341"/><path d="m306.464 340.354c-13.565 0-25.222 0-38.787 0l-10 15 10 15h51.213l49.393-49.393c-7.418-7.418-13.795-13.795-21.213-21.213-11.75 11.751-28.856 28.856-40.606 40.606z" fill="#00a78e"/><path d="m237.677 100.354v68.787c-11.479-11.479-22.915-22.915-34.394-34.393-7.419 7.419-13.794 13.794-21.213 21.213 6.727 6.727 48.835 48.835 55.606 55.607v203.787l7.5 10 7.5-10 10-157.5-10-157.5c-5.245-.001-9.753-.001-14.999-.001z" fill="#bee75e"/><path d="m267.677 211.568c6.727-6.727 48.835-48.836 55.606-55.607-7.418-7.418-13.795-13.795-21.213-21.213-11.479 11.479-22.915 22.915-34.394 34.393 0-10.561 0-57.978 0-68.787-5.246 0-9.754 0-15 0v315l7.5 10 7.5-10c.001-11.292.001-192.451.001-203.786z" fill="#00cb75"/><path d="m108.407 415.354c8.13 16.261 25.212 50.424 30 60l57.135 10 57.135-10 10-30-10-30c-17.544 0-126.689 0-144.27 0z" fill="#9d6b5d"/><path d="m396.948 415.354c-17.544 0-126.688 0-144.27 0v60l57.136 10 57.135-10c8.13-16.261 25.211-50.423 29.999-60z" fill="#895050"/><path d="m138.407 475.354 15 30h99.271l10-15-10-15c-13.888 0-100.354 0-114.271 0z" fill="#895050"/><path d="m366.948 475.354c-13.89 0-100.346 0-114.27 0v30h99.27c5.246-10.492 9.754-19.507 15-30z" fill="#5a344b"/></g></svg>