<?xml version="1.0" encoding="iso-8859-1"?>
<!-- Generator: Adobe Illustrator 19.0.0, SVG Export Plug-In . SVG Version: 6.00 Build 0)  -->
<svg version="1.1" id="Capa_1" xmlns="http://www.w3.org/2000/svg" xmlns:xlink="http://www.w3.org/1999/xlink" x="0px" y="0px"
	 viewBox="0 0 512 512" style="enable-background:new 0 0 512 512;" xml:space="preserve">
<path style="fill:#455A64;" d="M272,128c-1.664,0-3.36-0.256-5.056-0.832c-8.384-2.784-12.928-11.84-10.112-20.224l32-96
	C291.008,4.416,297.12,0,304,0h64c8.832,0,16,7.168,16,16s-7.168,16-16,16h-52.48l-28.352,85.056
	C284.928,123.776,278.688,128,272,128z"/>
<path style="fill:#CFD8DC;" d="M368,160H144c-8.832,0-16-7.168-16-16v-32c0-8.832,7.168-16,16-16h224c8.832,0,16,7.168,16,16v32
	C384,152.832,376.832,160,368,160z"/>
<path style="fill:#ECEFF1;" d="M368,512H144c-26.464,0-48-21.536-48-48V208c0-4.256,1.696-8.32,4.672-11.328l32-32
	C135.68,161.696,139.744,160,144,160h224c4.256,0,8.32,1.696,11.328,4.672l32,32C414.304,199.68,416,203.744,416,208v256
	C416,490.464,394.464,512,368,512z"/>
<path style="fill:#4CAF50;" d="M384,266.56V464c0,8.96-7.04,16-16,16H144c-8.96,0-16-7.04-16-16V277.44
	c25.28,7.36,76.16,16.64,128-5.44S358.72,259.2,384,266.56z"/>
<g>
</g>
<g>
</g>
<g>
</g>
<g>
</g>
<g>
</g>
<g>
</g>
<g>
</g>
<g>
</g>
<g>
</g>
<g>
</g>
<g>
</g>
<g>
</g>
<g>
</g>
<g>
</g>
<g>
</g>
</svg>
