<svg id="color" enable-background="new 0 0 24 24" height="512" viewBox="0 0 24 24" width="512" xmlns="http://www.w3.org/2000/svg"><g fill="#607d8b"><path d="m12 7.25c-.414 0-.75-.336-.75-.75v-3c0-.414.336-.75.75-.75s.75.336.75.75v3c0 .414-.336.75-.75.75z"/><path d="m15.889 8.861c-.192 0-.384-.073-.53-.22-.293-.293-.293-.768 0-1.061l2.122-2.121c.294-.294.769-.292 1.061 0 .293.293.293.768 0 1.061l-2.122 2.121c-.148.147-.34.22-.531.22z"/><path d="m20.5 12.75h-3c-.414 0-.75-.336-.75-.75s.336-.75.75-.75h3c.414 0 .75.336.75.75s-.336.75-.75.75z"/><path d="m18.011 18.76c-.191 0-.384-.073-.53-.22l-2.122-2.121c-.293-.292-.293-.768 0-1.061.293-.292.768-.293 1.061 0l2.122 2.121c.293.292.293.768 0 1.061-.147.147-.339.22-.531.22z"/><path d="m12 21.25c-.414 0-.75-.336-.75-.75v-3c0-.414.336-.75.75-.75s.75.336.75.75v3c0 .414-.336.75-.75.75z"/><path d="m5.989 18.76c-.192 0-.384-.073-.53-.22-.293-.293-.293-.768 0-1.061l2.122-2.121c.294-.293.769-.292 1.061 0 .293.293.293.768 0 1.061l-2.122 2.122c-.147.146-.339.219-.531.219z"/><path d="m6.5 12.75h-3c-.414 0-.75-.336-.75-.75s.336-.75.75-.75h3c.414 0 .75.336.75.75s-.336.75-.75.75z"/><path d="m8.111 8.861c-.191 0-.384-.073-.53-.22l-2.122-2.121c-.293-.292-.293-.768 0-1.061.292-.292.767-.294 1.061 0l2.122 2.121c.293.292.293.768 0 1.061-.147.147-.338.22-.531.22z"/></g><circle cx="12" cy="2" fill="#03a9f4" r="2"/><path d="m19.071 6.928c.512 0 1.024-.195 1.414-.584.78-.78.78-2.049 0-2.829-.779-.778-2.049-.779-2.828 0-.78.78-.78 2.049 0 2.829.39.389.903.584 1.414.584z" fill="#03a9f4"/><circle cx="22" cy="12" fill="#03a9f4" r="2"/><path d="m17.657 17.657c-.78.78-.78 2.049 0 2.829.39.389.902.584 1.414.584s1.024-.195 1.414-.584c.78-.78.78-2.049 0-2.829-.779-.779-2.048-.78-2.828 0z" fill="#03a9f4"/><circle cx="12" cy="22" fill="#03a9f4" r="2"/><path d="m3.515 17.656c0 .001 0 .001 0 0-.78.78-.78 2.049 0 2.83.39.389.902.584 1.414.584s1.024-.195 1.414-.584c.78-.78.78-2.049 0-2.829-.78-.779-2.049-.779-2.828-.001z" fill="#03a9f4"/><circle cx="2" cy="12" fill="#03a9f4" r="2"/><path d="m6.343 3.514c-.779-.778-2.049-.779-2.828 0-.78.78-.78 2.049 0 2.829.39.389.902.584 1.414.584s1.024-.195 1.414-.584c.78-.78.78-2.049 0-2.829 0 .001 0 .001 0 0z" fill="#03a9f4"/><path d="m12 18c-3.309 0-6-2.691-6-6s2.691-6 6-6 6 2.691 6 6-2.691 6-6 6z" fill="#ffc107"/><path d="m12 16c-.414 0-.75-.336-.75-.75v-.75c0-.414.336-.75.75-.75s.75.336.75.75v.75c0 .414-.336.75-.75.75z" fill="#fafafa"/><path d="m12 10.25c-.414 0-.75-.336-.75-.75v-.75c0-.414.336-.75.75-.75s.75.336.75.75v.75c0 .414-.336.75-.75.75z" fill="#fafafa"/><path d="m12.125 15h-1.375c-.414 0-.75-.336-.75-.75s.336-.75.75-.75h1.375c.207 0 .375-.168.375-.375s-.168-.375-.375-.375h-.25c-1.034 0-1.875-.841-1.875-1.875s.841-1.875 1.875-1.875h1.375c.414 0 .75.336.75.75s-.336.75-.75.75h-1.375c-.207 0-.375.168-.375.375s.168.375.375.375h.25c1.034 0 1.875.841 1.875 1.875s-.841 1.875-1.875 1.875z" fill="#fafafa"/></svg>