<svg id="Capa_1" enable-background="new 0 0 512 512" height="512" viewBox="0 0 512 512" width="512" xmlns="http://www.w3.org/2000/svg"><g><path d="m256 0 31.82 266.16-31.82 245.84h-36.33c-16.55 0-30-13.46-30-30v-12.94c0-42.911-48.364-70.239-85.11-49.03l-11.12 6.42c-14.32 8.27-32.71 3.34-40.98-10.98l-36.33-62.94c-8.27-14.32-3.34-32.71 10.98-40.98l11.17-6.44c36.977-21.358 36.948-76.879 0-98.22l-11.17-6.44c-14.32-8.27-19.25-26.66-10.98-40.98l36.33-62.94c8.308-14.358 26.63-19.263 40.98-10.98l11.12 6.42c36.677 21.169 85.11-6.041 85.11-49.03v-12.94c0-16.54 13.45-30 30-30z" fill="#f4f2f1"/><path d="m495.87 352.53-36.33 62.94c-4.01 6.94-10.48 11.9-18.22 13.97-7.74 2.08-15.83 1.01-22.77-2.99l-11.11-6.42c-36.681-21.171-85.11 6.06-85.11 49.03v12.94c0 16.54-13.45 30-30 30h-36.33v-512h36.33c16.55 0 30 13.46 30 30v12.94c0 42.911 48.364 70.239 85.11 49.03l11.11-6.42c14.447-8.315 32.722-3.319 40.99 10.99l36.33 62.93c8.27 14.32 3.34 32.71-10.98 40.98l-11.17 6.44c-36.977 21.358-36.948 76.879 0 98.22l11.17 6.44c14.32 8.27 19.25 26.66 10.98 40.98z" fill="#e5eaee"/><path d="m256 125.79v260.42c-71.8 0-130.21-58.41-130.21-130.21s58.41-130.21 130.21-130.21z" fill="#ffd944"/><path d="m386.21 256c0 71.8-58.41 130.21-130.21 130.21v-260.42c71.8 0 130.21 58.41 130.21 130.21z" fill="#ffb555"/><path d="m256 153.99 17.583 99.093-17.583 104.927c-2.99 0-5.98-.89-8.55-2.68-.43-.3-2.85-2-6.45-4.99-13.96-11.62-45.72-42.66-48.45-86.61-2.27-36.46 15.71-72.09 53.44-105.91 2.85-2.56 6.43-3.83 10.01-3.83z" fill="#bfe85f"/><path d="m319.45 263.73c-2.73 43.95-34.49 74.99-48.45 86.61-3.6 2.99-6.02 4.69-6.45 4.99-2.57 1.79-5.56 2.68-8.55 2.68v-204.02c3.58 0 7.16 1.27 10.01 3.83 37.73 33.82 55.71 69.45 53.44 105.91z" fill="#00cb76"/><g><g><g><path d="m256 243.73v114.28c-2.99 0-5.98-.89-8.55-2.68-.43-.3-2.85-2-6.45-4.99v-91.61c0-8.28 6.72-15 15-15z" fill="#00cb76"/></g></g></g><g><g><g><path d="m271 258.73v91.61c-3.6 2.99-6.02 4.69-6.45 4.99-2.57 1.79-5.56 2.68-8.55 2.68v-114.28c8.28 0 15 6.72 15 15z" fill="#00a963"/></g></g></g></g></svg>