<svg id="Capa_1" enable-background="new 0 0 512 512" height="512" viewBox="0 0 512 512" width="512" xmlns="http://www.w3.org/2000/svg"><g><g><path clip-rule="evenodd" d="m348.882 18.147-93.245 195.1-1.891 44.459 34.291 23.35 80.681-169.275c34.582-73.719-5.09-124.583-12.535-108.948z" fill="#b5c4cf" fill-rule="evenodd"/></g><g><path clip-rule="evenodd" d="m222.451 282.628c-8.289 17.353-17.887 24.02-37.897 21.225-82.688-11.646-139.577 60.326-141.526 124.933-2.094 68.682 113.837 127.611 160.024 30.687l52.585-110.346-4.799-49.175-27.63-18.896zm-33.854 69.061c10.878 3.668 16.985 12.025 11.052 24.398l-27.979 58.521c-30.859 64.519-106.857 23.408-82.077-29.406 23.005-49.03 55.435-68.217 99.004-53.513z" fill="#fdb440" fill-rule="evenodd"/></g><g><path clip-rule="evenodd" d="m327.418 305.367c-13.553 1.922-22.308-.524-29.143-7.715l-35.629-8.88-18.614 36.044 11.605 24.311 53.283 111.889c14.222 29.814 35.047 44.895 57.006 49.466 10.18 2.096 20.592 1.951 30.713 0 38.973-7.628 73.468-42.421 72.333-80.154-1.977-64.606-58.837-136.607-141.554-124.961zm-15.095 72.234c-5.904-12.374.175-20.701 11.052-24.369 43.569-14.703 75.998 4.455 99.004 53.513 24.809 52.815-51.189 93.925-82.077 29.377z" fill="#fcd79b" fill-rule="evenodd"/></g><g><path clip-rule="evenodd" d="m255.637 213.247-92.548-193.557-7.3-15.344c-7.446-15.606-47.088 35.258-12.506 108.948l79.925 167.761 14.193 29.814 6.631 13.946 30.423-15.227 23.82-11.937c-3.258-3.406-6.05-7.89-8.725-13.48l-1.512-3.115z" fill="#edf3f4" fill-rule="evenodd"/></g><g><path clip-rule="evenodd" d="m237.517 336.054-52.585 110.375c-28.299 59.366-84.695 56.279-122.156 32.23 34.756 39.101 106.363 52.029 140.275-19.187l52.585-110.346-9.685-20.351-2.792-5.823z" fill="#fe9900" fill-rule="evenodd"/></g><g><path clip-rule="evenodd" d="m350.598 98.708-74.747 156.872 12.186 25.476 80.681-169.275c34.058-72.642-3.956-123.098-12.186-109.589 7.852 19.594 12.739 56.716-5.934 96.516z" fill="#9aafb7" fill-rule="evenodd"/></g><g><path clip-rule="evenodd" d="m255.637 213.247-92.548-193.557-7.3-15.344c-3.49-7.279-13.99-.087-20.679 17.207l4.683 9.783 92.518 193.557 8.871 18.546 21.697 45.39 1.861 3.901 1.512 3.115c2.589 5.445 5.322 9.841 8.464 13.218.087.087.174.175.262.262l23.297-11.675c-3.258-3.406-6.05-7.89-8.725-13.48l-1.512-3.115-14.077-29.464z" fill="#d7e7ec" fill-rule="evenodd"/></g><g><path clip-rule="evenodd" d="m468.973 430.328c-1.978-64.606-58.838-136.608-141.555-124.962-13.553 1.922-22.308-.524-29.143-7.715l-23.297 11.675c6.806 7.162 23.006 17.382 36.559 15.489 82.688-11.646 132.161 52.553 134.138 117.188.785 25.709-15.008 50.078-37.49 65.392 34.001-11.529 61.806-43.119 60.788-77.067z" fill="#fbc56c" fill-rule="evenodd"/></g><g><path d="m254.144 283.105c-3.815 0-7.132-2.832-7.642-6.721l-.145-1.106c-.555-4.23 2.42-8.111 6.646-8.667 4.223-.556 8.101 2.423 8.657 6.654l.146 1.106c.555 4.23-2.421 8.111-6.647 8.667-.341.045-.68.067-1.015.067z" fill="#9aafb7"/></g></g></svg>