<svg id="Capa_1" enable-background="new 0 0 496.968 496.968" height="512" viewBox="0 0 496.968 496.968" width="512" xmlns="http://www.w3.org/2000/svg"><g><path d="m434.04 28.064c0-15.499-12.565-28.064-28.064-28.064h-227.313c-15.499 0-28.064 12.565-28.064 28.064v90.139h282.058z" fill="#fef1da"/><path d="m241.551 0h-62.888c-15.499 0-28.064 12.564-28.064 28.064v90.139h62.888v-90.139c0-15.499 12.565-28.064 28.064-28.064z" fill="#fae2c0"/><path d="m490.817 136.167-56.779-65.139h-1.38l-.422.495-74.323 20.408-31.116 78.458v293.255l44.35 33.324h109.407c9.042 0 16.373-7.33 16.373-16.373v-328.117c.001-5.996-2.17-11.791-6.11-16.311z" fill="#c68d7a"/><g><path d="m150.598 71.028-61.59 70.66 35.524 23.69h217.058l29.558-22.2 61.51-72.15z" fill="#fdf6ec"/><path d="m213.487 71.028h-62.889l-61.59 70.66 35.524 23.69h65.965l-35.524-23.69z" fill="#fef1da"/><path d="m369.148 143.178-280.14-1.49-1.3 1.49v315.999l92.237 12.791 2.823 25h188.38v-353.79z" fill="#d1a08f"/><path d="m220.725 184.092c-5.718-6.053-13.771-9.524-22.097-9.524h-32.301c-6.458 0-11.693-5.235-11.693-11.693v-20.838l-65.626-.349-1.3 1.49v315.999l66.926 9.281v-9.833l29.359 9.584-1.225 28.759h28.564c.995-2.733 1.613-5.652 1.784-8.696l15.859-281.576c.474-8.312-2.533-16.551-8.25-22.604z" fill="#c68d7a"/><path d="m244.974 412.188c20.698 0 40.896-6.316 57.852-18.092 16.957-11.776 37.154-18.092 57.852-18.092h10.469v-105.967h-10.469c-20.698 0-40.896-6.316-57.852-18.092-16.957-11.776-37.154-18.092-57.852-18.092h-126.223v181.161z" fill="#fdf6ec"/><path d="m227.446 233.853h-108.695v181.161l98.615-2.208z" fill="#fef1da"/><g id="XMLID_281_"><g><path d="m198.628 194.568h-188.19c-5.97 0-10.72 5.02-10.38 10.99l6.35 112.8 29.306 52.68h141.099l26.865-70.91 5.33-94.57c.34-5.97-4.41-10.99-10.38-10.99z" fill="#f2fbff"/><path d="m47.998 194.568h-37.56c-5.97 0-10.72 5.02-10.38 10.99l6.35 112.8 29.306 52.68h22.223z" fill="#dff6fd"/><path d="m203.678 300.128-10.53 187.02c-.31 5.51-4.87 9.82-10.38 9.82h-156.47c-5.52 0-10.07-4.31-10.38-9.82l-9.51-168.79 12.69-6c31.74-15 67.62-18.8 101.79-10.77 11.65 2.74 23.56 4.12 35.48 4.12 8.14 0 16.3-.64 24.38-1.93z" fill="#d1a08f"/></g></g><path d="m194.726 459.118-1.579 28.038c-.31 5.506-4.865 9.812-10.38 9.812h-156.469c-5.52 0-10.07-4.31-10.38-9.82l-9.51-168.79 12.69-6c11.196-5.291 22.908-9.182 34.877-11.658l6.951 123.105c1.11 19.65 17.342 35.029 37.024 35.077z" fill="#c68d7a"/></g></g></svg>