<?xml version="1.0" encoding="iso-8859-1"?>
<!-- Generator: Adobe Illustrator 19.0.0, SVG Export Plug-In . SVG Version: 6.00 Build 0)  -->
<svg version="1.1" id="Capa_1" xmlns="http://www.w3.org/2000/svg" xmlns:xlink="http://www.w3.org/1999/xlink" x="0px" y="0px"
	 viewBox="0 0 490.667 490.667" style="enable-background:new 0 0 490.667 490.667;" xml:space="preserve">
<path style="fill:#4CAF50;" d="M10.667,85.333H480c5.891,0,10.667,4.776,10.667,10.667v298.667c0,5.891-4.776,10.667-10.667,10.667
	H10.667C4.776,405.333,0,400.558,0,394.667V96C0,90.109,4.776,85.333,10.667,85.333z"/>
<g>
	<path style="fill:#FAFAFA;" d="M245.333,320c-26.383,2.516-49.996-16.375-53.333-42.667v-64
		c3.337-26.292,26.95-45.182,53.333-42.667c33.579,0,51.499,10.453,53.333,31.104c0.492,5.867-3.862,11.023-9.728,11.52
		c-5.821,0.353-10.893-3.93-11.52-9.728c-0.64-7.659-11.413-11.563-32-11.563c-17.365,0-32,9.771-32,21.333v64
		c0,11.563,14.656,21.333,32,21.333c20.587,0,31.36-3.904,32-11.563c0.774-5.719,5.752-9.923,11.52-9.728
		c5.866,0.497,10.22,5.653,9.728,11.52C296.875,309.547,278.955,320,245.333,320z"/>
	<path style="fill:#FAFAFA;" d="M245.333,234.667h-64c-5.891,0-10.667-4.776-10.667-10.667c0-5.891,4.776-10.667,10.667-10.667h64
		c5.891,0,10.667,4.776,10.667,10.667C256,229.891,251.224,234.667,245.333,234.667z"/>
	<path style="fill:#FAFAFA;" d="M245.333,277.333h-64c-5.891,0-10.667-4.776-10.667-10.667c0-5.891,4.776-10.667,10.667-10.667h64
		c5.891,0,10.667,4.776,10.667,10.667C256,272.558,251.224,277.333,245.333,277.333z"/>
	<path style="fill:#FAFAFA;" d="M437.333,149.333h-42.667c-5.891,0-10.667-4.776-10.667-10.667S388.776,128,394.667,128h42.667
		c5.891,0,10.667,4.776,10.667,10.667S443.224,149.333,437.333,149.333z"/>
	<path style="fill:#FAFAFA;" d="M96,362.667H53.333c-5.891,0-10.667-4.776-10.667-10.667c0-5.891,4.776-10.667,10.667-10.667H96
		c5.891,0,10.667,4.776,10.667,10.667C106.667,357.891,101.891,362.667,96,362.667z"/>
</g>
<g>
</g>
<g>
</g>
<g>
</g>
<g>
</g>
<g>
</g>
<g>
</g>
<g>
</g>
<g>
</g>
<g>
</g>
<g>
</g>
<g>
</g>
<g>
</g>
<g>
</g>
<g>
</g>
<g>
</g>
</svg>
