<?xml version="1.0" encoding="iso-8859-1"?>
<!-- Generator: Adobe Illustrator 19.0.0, SVG Export Plug-In . SVG Version: 6.00 Build 0)  -->
<svg version="1.1" id="Capa_1" xmlns="http://www.w3.org/2000/svg" xmlns:xlink="http://www.w3.org/1999/xlink" x="0px" y="0px"
	 viewBox="0 0 511.989 511.989" style="enable-background:new 0 0 511.989 511.989;" xml:space="preserve">
<path style="fill:#4CDBC4;" d="M412.933,59.776H99.056c-17.664,0-32,14.336-32,32v388.213c0,17.685,14.336,32,32,32h313.877
	c17.664,0,32-14.315,32-32V91.776C444.933,74.112,430.597,59.776,412.933,59.776"/>
<polygon style="fill:#F2F2F2;" points="107.12,99.819 107.12,437.739 343.077,437.739 343.077,375.925 404.891,375.925 
	404.891,99.819 "/>
<g>
	<polygon style="fill:#CDD6E0;" points="343.077,437.739 404.891,375.925 343.077,375.925 	"/>
	<rect x="147.163" y="375.883" style="fill:#CDD6E0;" width="119.125" height="22.229"/>
	<rect x="147.163" y="306.923" style="fill:#CDD6E0;" width="217.664" height="22.229"/>
	<rect x="147.163" y="237.931" style="fill:#CDD6E0;" width="217.664" height="22.229"/>
	<rect x="147.163" y="168.928" style="fill:#CDD6E0;" width="217.664" height="22.229"/>
</g>
<path style="fill:#40596B;" d="M298.352,45.973c1.6-12.149-2.336-24.789-11.541-34.005c-15.957-15.957-41.877-15.957-57.835,0
	c-9.088,9.088-13.024,21.248-11.787,33.141c-43.349,9.461-75.019,34.624-77.984,81.067h233.557
	C369.808,80.619,339.867,56.053,298.352,45.973 M257.957,54.571c-7.627,0-13.749-6.144-13.749-13.621
	c0-7.627,6.123-13.749,13.749-13.749c7.477,0,13.621,6.123,13.621,13.749C271.579,48.427,265.435,54.571,257.957,54.571"/>
<g>
</g>
<g>
</g>
<g>
</g>
<g>
</g>
<g>
</g>
<g>
</g>
<g>
</g>
<g>
</g>
<g>
</g>
<g>
</g>
<g>
</g>
<g>
</g>
<g>
</g>
<g>
</g>
<g>
</g>
</svg>
