<?xml version="1.0" encoding="iso-8859-1"?>
<!-- Generator: Adobe Illustrator 19.0.0, SVG Export Plug-In . SVG Version: 6.00 Build 0)  -->
<svg version="1.1" id="Capa_1" xmlns="http://www.w3.org/2000/svg" xmlns:xlink="http://www.w3.org/1999/xlink" x="0px" y="0px"
	 viewBox="0 0 511.999 511.999" style="enable-background:new 0 0 511.999 511.999;" xml:space="preserve">
<path style="fill:#D1DCED;" d="M333.594,507.637l-55.787-23.51c-3.33-1.403-6.763-2.461-10.247-3.194V341.787
	c0-18.076,2.306-36.079,6.863-53.572l3.652-14.02c0-0.171-44.986-0.494-44.986-0.494l3.81,14.803
	c4.453,17.302,6.706,35.097,6.706,52.964v139.653c-3.197,0.724-6.349,1.714-9.413,3.005l-55.787,23.51
	c-2.283,0.962-1.595,4.363,0.882,4.363h153.426C335.189,512,335.876,508.599,333.594,507.637z"/>
<path style="fill:#E5EBF6;" d="M345.755,0H166.243c-4.448,0-8.419,2.77-9.954,6.945c-9.381,25.514-39.547,115.746-21.489,176.691
	c17.671,59.64,70.215,85.181,99.993,95.113c13.77,4.593,28.643,4.593,42.413,0c29.778-9.932,82.322-35.474,99.993-95.113
	c18.058-60.945-12.108-151.177-21.489-176.691C354.174,2.77,350.203,0,345.755,0z"/>
<path style="fill:#D1DCED;" d="M355.709,6.945C354.174,2.77,350.203,0,345.755,0h-42.703c0,0,45.351,112.032,24.135,183.635
	c-16.941,57.175-65.93,83.011-96.187,93.799c1.295,0.462,2.569,0.906,3.792,1.314c13.77,4.593,28.643,4.593,42.413,0
	c29.778-9.932,82.322-35.474,99.993-95.113C395.256,122.691,365.09,32.459,355.709,6.945z"/>
<path style="fill:#96223B;" d="M129.885,156.771c0.832,9.351,2.404,18.392,4.914,26.864c17.67,59.635,70.206,85.177,99.985,95.111
	c13.77,4.593,28.658,4.593,42.428,0c29.779-9.934,82.316-35.476,99.985-95.111c2.51-8.472,4.083-17.513,4.914-26.864
	L129.885,156.771L129.885,156.771z"/>
<path style="fill:#841935;" d="M378.293,179.643c0.188-0.73,0.374-1.461,0.549-2.198c0.082-0.345,0.158-0.694,0.237-1.04
	c0.165-0.721,0.327-1.444,0.479-2.172c0.069-0.33,0.135-0.662,0.202-0.993c0.154-0.765,0.304-1.532,0.446-2.303
	c0.054-0.293,0.106-0.586,0.158-0.879c0.149-0.839,0.291-1.682,0.425-2.529c0.036-0.227,0.072-0.455,0.107-0.682
	c0.147-0.954,0.285-1.913,0.414-2.876c0.017-0.125,0.035-0.251,0.051-0.376c0.296-2.254,0.546-4.529,0.75-6.824h-50.015
	c-0.832,9.351-2.401,18.393-4.911,26.864c-16.941,57.175-65.93,83.011-96.187,93.799c0,0,0,0,0.001,0
	c0.558,0.199,1.109,0.393,1.657,0.583c0.699,0.242,1.398,0.484,2.074,0.71c0.018,0.006,0.037,0.013,0.055,0.019
	c13.768,4.592,28.654,4.592,42.423,0c0.543-0.181,1.108-0.378,1.666-0.57c0.398-0.137,0.784-0.265,1.19-0.407
	c0.54-0.189,1.101-0.396,1.653-0.595c0.443-0.16,0.876-0.311,1.326-0.477c0.501-0.185,1.02-0.386,1.531-0.579
	c0.521-0.197,1.033-0.386,1.562-0.592c0.44-0.171,0.895-0.357,1.341-0.534c0.616-0.244,1.226-0.482,1.852-0.738
	c0.62-0.253,1.256-0.526,1.886-0.791c0.467-0.196,0.925-0.383,1.397-0.586c0.57-0.245,1.152-0.508,1.729-0.763
	c0.547-0.241,1.087-0.473,1.639-0.724c0.592-0.268,1.196-0.556,1.794-0.834c0.547-0.254,1.087-0.499,1.639-0.762
	c0.549-0.262,1.108-0.543,1.661-0.814c0.612-0.299,1.22-0.59,1.836-0.9c0.369-0.186,0.745-0.387,1.116-0.576
	c0.807-0.413,1.613-0.822,2.427-1.254c0.561-0.298,1.128-0.615,1.692-0.922c0.63-0.343,1.257-0.676,1.889-1.03
	c0.533-0.298,1.069-0.616,1.603-0.923c0.669-0.384,1.337-0.759,2.008-1.156c0.358-0.212,0.717-0.439,1.075-0.654
	c0.85-0.512,1.701-1.02,2.553-1.553c0.324-0.202,0.648-0.42,0.971-0.625c0.887-0.564,1.775-1.126,2.662-1.714
	c0.35-0.232,0.698-0.479,1.048-0.714c0.861-0.58,1.723-1.157,2.582-1.76c0.33-0.232,0.658-0.479,0.988-0.714
	c0.877-0.625,1.755-1.249,2.628-1.9c0.223-0.166,0.444-0.344,0.667-0.512c2.178-1.639,4.342-3.346,6.48-5.146
	c0.085-0.072,0.168-0.149,0.253-0.22c1.092-0.923,2.178-1.863,3.255-2.829c0.185-0.166,0.365-0.342,0.549-0.51
	c0.974-0.883,1.944-1.774,2.903-2.693c0.158-0.151,0.312-0.313,0.469-0.465c0.98-0.948,1.955-1.906,2.917-2.894
	c0.056-0.057,0.109-0.118,0.165-0.175c1.059-1.091,2.108-2.202,3.143-3.342c0.127-0.14,0.249-0.288,0.375-0.429
	c0.959-1.065,1.911-2.143,2.845-3.252c0.091-0.108,0.178-0.222,0.268-0.33c0.964-1.151,1.918-2.318,2.853-3.515
	c0.092-0.118,0.18-0.244,0.272-0.362c2.966-3.827,5.781-7.885,8.392-12.205c0.131-0.216,0.252-0.444,0.381-0.661
	c1.652-2.769,3.231-5.63,4.708-8.609c0.126-0.254,0.241-0.522,0.365-0.778c2.239-4.592,4.268-9.424,6.026-14.532
	c0.619-1.798,1.205-3.628,1.757-5.492c0.3-1.012,0.585-2.033,0.858-3.061C378.138,180.266,378.213,179.953,378.293,179.643z"/>
<g>
</g>
<g>
</g>
<g>
</g>
<g>
</g>
<g>
</g>
<g>
</g>
<g>
</g>
<g>
</g>
<g>
</g>
<g>
</g>
<g>
</g>
<g>
</g>
<g>
</g>
<g>
</g>
<g>
</g>
</svg>
