<?xml version="1.0" encoding="iso-8859-1"?>
<!-- Generator: Adobe Illustrator 19.0.0, SVG Export Plug-In . SVG Version: 6.00 Build 0)  -->
<svg version="1.1" id="Capa_1" xmlns="http://www.w3.org/2000/svg" xmlns:xlink="http://www.w3.org/1999/xlink" x="0px" y="0px"
	 viewBox="0 0 512 512" style="enable-background:new 0 0 512 512;" xml:space="preserve">
<path style="fill:#FFDF48;" d="M336.176,279c1.16,16.839,2.1,33.718,2.8,50.608L256,329.498l-84.996-0.12
	c0.7-16.869,1.65-33.738,2.81-50.568l-17.789-0.89c0.31-6.24,0.67-12.519,1.08-18.829c0.63-9.93,1.39-19.939,2.27-29.999
	c1.26-14.679,2.78-29.479,4.53-44.328c0.83-7.06,1.72-14.119,2.66-21.199c0.38-2.92,0.78-5.86,1.2-8.8
	c0.13-0.98,0.27-1.97,0.41-2.95c2.04-14.369,4.62-27.839,7.76-40.438c2.65-10.61,5.69-20.599,9.14-29.999
	c11.219-30.639,26.739-54.898,46.798-73.347c1.6-1.46,3.4-2.73,5.36-3.79c0.46-0.26,0.93-0.5,1.42-0.72
	c5.19-2.49,11.299-3.66,17.349-3.51c5.38,0.13,10.71,1.3,15.329,3.51c1.2,0.56,2.35,1.21,3.44,1.93c1.19,0.77,2.3,1.63,3.33,2.57
	c20.059,18.459,35.578,42.718,46.818,73.357c3.44,9.39,6.49,19.389,9.14,29.999c3.13,12.599,5.71,26.069,7.75,40.428
	c0.14,0.99,0.28,1.98,0.41,2.96c0.42,2.95,0.82,5.89,1.2,8.83c0.94,7.07,1.82,14.129,2.65,21.169
	c1.76,14.889,3.28,29.689,4.55,44.328c0.87,10.08,1.63,20.089,2.26,29.999c0.41,6.38,0.77,12.729,1.08,19.029L336.176,279z"/>
<path style="fill:#FFD400;" d="M336.176,279c1.16,16.839,2.1,33.718,2.8,50.608L256,329.498V0.013c5.38,0.13,10.71,1.3,15.329,3.51
	c1.2,0.56,2.35,1.21,3.44,1.93c1.19,0.77,2.3,1.63,3.33,2.57c20.059,18.459,35.578,42.718,46.818,73.357
	c3.44,9.39,6.49,19.389,9.14,29.999c3.13,12.599,5.71,26.069,7.75,40.428c0.14,0.99,0.28,1.98,0.41,2.96
	c0.42,2.95,0.82,5.89,1.2,8.83c0.94,7.07,1.82,14.129,2.65,21.169c1.76,14.889,3.28,29.689,4.55,44.328
	c0.87,10.08,1.63,20.089,2.26,29.999c0.41,6.38,0.77,12.729,1.08,19.029L336.176,279z"/>
<path style="fill:#92D700;" d="M348.834,263.337c-59.459,0-107.833,48.374-107.833,107.833V512h30.246
	c59.459,0,107.833-48.374,107.833-107.833v-140.83H348.834z"/>
<path style="fill:#BDF052;" d="M163.166,263.337H132.92v140.83C132.92,463.626,181.293,512,240.753,512h30.247V371.17
	C270.999,311.711,222.625,263.337,163.166,263.337z"/>
<path style="fill:#FFB13B;" d="M209.072,81.379v29.999h-33.139c2.65-10.61,5.69-20.599,9.14-29.999H209.072z"/>
<path style="fill:#FF9500;" d="M334.057,111.378h-31.129V81.379h21.989C328.357,90.769,331.406,100.768,334.057,111.378z"/>
<g>
	<rect x="237.23" y="154.763" style="fill:#FFB13B;" width="37.538" height="29.999"/>
	<rect x="237.23" y="81.376" style="fill:#FFB13B;" width="37.538" height="29.999"/>
	<path style="fill:#FFB13B;" d="M274.769,5.453v28.069h-37.538V4.243c0.46-0.26,0.93-0.5,1.42-0.72h32.679
		C272.529,4.083,273.679,4.733,274.769,5.453z"/>
	<path style="fill:#FFB13B;" d="M201.962,154.766v29.999h-38.058c0.83-7.06,1.72-14.119,2.66-21.199c0.38-2.92,0.78-5.86,1.2-8.8
		H201.962z"/>
</g>
<path style="fill:#FF9500;" d="M346.066,184.764h-37.178v-29.999h33.329c0.42,2.95,0.82,5.89,1.2,8.83
	C344.356,170.665,345.236,177.725,346.066,184.764z"/>
<g>
	<rect x="237.23" y="229.089" style="fill:#FFB13B;" width="37.538" height="29.999"/>
	<path style="fill:#FFB13B;" d="M199.592,229.092v29.999h-42.488c0.63-9.93,1.39-19.939,2.27-29.999H199.592z"/>
</g>
<g>
	<path style="fill:#FF9500;" d="M352.876,259.091h-41.908v-29.999h39.648C351.486,239.172,352.246,249.182,352.876,259.091z"/>
	<path style="fill:#FF9500;" d="M274.769,5.453v28.069H256V3.523h15.329C272.529,4.083,273.679,4.733,274.769,5.453z"/>
	<rect x="255.999" y="81.376" style="fill:#FF9500;" width="18.769" height="29.999"/>
	<rect x="255.999" y="154.763" style="fill:#FF9500;" width="18.769" height="29.999"/>
	<rect x="255.999" y="229.089" style="fill:#FF9500;" width="18.769" height="29.999"/>
</g>
<g>
</g>
<g>
</g>
<g>
</g>
<g>
</g>
<g>
</g>
<g>
</g>
<g>
</g>
<g>
</g>
<g>
</g>
<g>
</g>
<g>
</g>
<g>
</g>
<g>
</g>
<g>
</g>
<g>
</g>
</svg>
