<svg clip-rule="evenodd" fill-rule="evenodd" height="512" stroke-linejoin="round" stroke-miterlimit="2" viewBox="0 0 356 356" width="512" xmlns="http://www.w3.org/2000/svg" xmlns:serif="http://www.serif.com/"><g id="Exp-8.-F2" serif:id="Exp 8. F2"><g><path d="m266.667 50c0-5.894-2.342-11.546-6.509-15.713-4.168-4.168-9.82-6.509-15.714-6.509-34.155 0-99.177 0-133.333 0-5.894 0-11.546 2.341-15.713 6.509-4.168 4.167-6.509 9.819-6.509 15.713v255.556c0 5.893 2.341 11.546 6.509 15.713 4.167 4.168 9.819 6.509 15.713 6.509h133.333c5.894 0 11.546-2.341 15.714-6.509 4.167-4.167 6.509-9.82 6.509-15.713 0-55.556 0-200 0-255.556z" fill="#e8e5ee"/><path d="m266.667 50c0-5.894-2.342-11.546-6.509-15.713-4.168-4.168-9.82-6.509-15.714-6.509-34.155 0-99.177 0-133.333 0-5.894 0-11.546 2.341-15.713 6.509-4.168 4.167-6.509 9.819-6.509 15.713v11.111h177.778z" fill="#176f93"/><path d="m266.667 294.444h-177.778v11.111c0 5.894 2.341 11.547 6.509 15.714 4.167 4.168 9.819 6.509 15.713 6.509h133.333c5.894 0 11.546-2.341 15.714-6.509 4.167-4.167 6.509-9.82 6.509-15.714 0-6.119 0-11.111 0-11.111z" fill="#176f93"/><g fill="#47c563"><path d="m127.778 161.111h33.333v66.667h-33.333z"/><path d="m194.444 133.333h33.333v94.444h-33.333z"/></g></g></g></svg>