<svg id="Capa_1" enable-background="new 0 0 487.795 487.795" height="512" viewBox="0 0 487.795 487.795" width="512" xmlns="http://www.w3.org/2000/svg"><g fill="#f6c863"><path d="m392.979 243.943c-.022 82.335-66.786 149.064-149.122 149.041-82.335-.022-149.064-66.786-149.041-149.122.022-82.335 66.786-149.064 149.122-149.041h.006c82.291-.019 149.017 66.676 149.036 148.967-.001.052-.001.104-.001.155z"/><path d="m243.897 0c5.134 0 9.297 4.162 9.297 9.297v50.92c0 5.134-4.162 9.297-9.297 9.297-5.134 0-9.297-4.162-9.297-9.297v-50.92c.001-5.135 4.163-9.297 9.297-9.297z"/><path d="m243.897 418.281c5.134 0 9.297 4.162 9.297 9.297v50.92c0 5.134-4.162 9.297-9.297 9.297-5.134 0-9.297-4.162-9.297-9.297v-50.92c.001-5.135 4.163-9.297 9.297-9.297z"/><path d="m121.546 33.367c4.447-2.567 10.132-1.044 12.7 3.403l25.46 44.098c2.567 4.447 1.044 10.132-3.403 12.7-4.447 2.567-10.132 1.044-12.7-3.403l-25.46-44.098c-2.567-4.447-1.044-10.133 3.403-12.7z"/><path d="m330.689 395.615c4.447-2.567 10.132-1.044 12.7 3.403l25.46 44.098c2.567 4.447 1.044 10.132-3.403 12.7-4.447 2.567-10.132 1.044-12.7-3.403l-25.46-44.098c-2.567-4.447-1.044-10.133 3.403-12.7z"/><path d="m32.274 123.444c2.567-4.447 8.253-5.97 12.7-3.403l44.098 25.46c4.447 2.567 5.97 8.253 3.403 12.7-2.567 4.447-8.253 5.97-12.7 3.403l-44.098-25.46c-4.446-2.567-5.97-8.253-3.403-12.7z"/><path d="m394.519 332.586c2.567-4.447 8.253-5.97 12.7-3.403l44.098 25.46c4.447 2.567 5.97 8.253 3.403 12.7-2.567 4.447-8.253 5.97-12.7 3.403l-44.098-25.46c-4.447-2.567-5.97-8.253-3.403-12.7z"/><path d="m9.297 236.793h50.92c5.134 0 9.297 4.162 9.297 9.297 0 5.134-4.162 9.297-9.297 9.297h-50.92c-5.134 0-9.297-4.162-9.297-9.297 0-5.135 4.162-9.297 9.297-9.297z"/><path d="m427.578 236.793h50.92c5.134 0 9.297 4.162 9.297 9.297 0 5.134-4.162 9.297-9.297 9.297h-50.92c-5.134 0-9.297-4.162-9.297-9.297 0-5.135 4.162-9.297 9.297-9.297z"/><path d="m36.768 355.725 44.097-25.46c4.446-2.567 10.132-1.044 12.699 3.403 2.567 4.446 1.044 10.132-3.403 12.699l-44.097 25.46c-4.446 2.567-10.132 1.044-12.699-3.403-2.566-4.446-1.043-10.132 3.403-12.699z"/><path d="m399.018 146.599 44.098-25.46c4.447-2.567 10.132-1.044 12.7 3.403 2.567 4.447 1.044 10.132-3.403 12.7l-44.098 25.46c-4.447 2.567-10.132 1.044-12.7-3.403-2.567-4.447-1.043-10.133 3.403-12.7z"/><path d="m120.042 445.013 25.46-44.098c2.567-4.447 8.253-5.97 12.7-3.403 4.447 2.567 5.97 8.253 3.403 12.7l-25.46 44.098c-2.567 4.447-8.253 5.97-12.7 3.403-4.447-2.568-5.97-8.254-3.403-12.7z"/><path d="m329.179 82.765 25.46-44.098c2.567-4.447 8.253-5.97 12.7-3.403 4.447 2.567 5.97 8.253 3.403 12.7l-25.46 44.098c-2.567 4.447-8.253 5.97-12.7 3.403-4.447-2.567-5.97-8.253-3.403-12.7z"/></g></svg>