<svg height="504pt" viewBox="0 -37 504 504" width="504pt" xmlns="http://www.w3.org/2000/svg"><g fill="#656d78"><path d="m172 116.003906c-.070312 0-.144531 0-.207031 0-2.207031-.128906-3.898438-2-3.785157-4.199218 3.746094-69.890626-41.847656-101.359376-42.3125-101.671876-1.832031-1.234374-2.320312-3.722656-1.09375-5.546874 1.222657-1.824219 3.703126-2.328126 5.535157-1.109376 2.039062 1.359376 49.847656 34.125 45.847656 108.75-.105469 2.121094-1.863281 3.777344-3.984375 3.777344zm0 0"/><path d="m172 402.789062c-2.207031 0-4-1.785156-4-4v-13.050781c0-2.214843 1.792969-4 4-4s4 1.785157 4 4v13.050781c0 2.214844-1.792969 4-4 4zm0 0"/><path d="m160.078125 402.941406c-2.207031 0-4-1.785156-4-4v-9.203125c0-2.214843 1.792969-4 4-4 2.210937 0 4 1.785157 4 4v9.203125c0 2.222656-1.789063 4-4 4zm0 0"/><path d="m184.078125 402.941406c-2.207031 0-4-1.785156-4-4v-9.203125c0-2.214843 1.792969-4 4-4 2.210937 0 4 1.785157 4 4v9.203125c0 2.222656-1.789063 4-4 4zm0 0"/></g><path d="m172.222656 110.804688v-.21875c-.054687.035156-.117187.066406-.167968.097656-.054688-.03125-.117188-.0625-.167969-.097656v.21875c-53.015625-30.34375-171.886719-37.34375-171.886719 128.703124 0 127.046876 112.488281 179.128907 172 153.046876v-.128907c.015625-.015625.039062-.015625.054688-.015625.023437 0 .042968 0 .058593.015625v.128907c59.519531 26.082031 172-26 172-153.046876 0-166.046874-118.875-159.046874-171.890625-128.703124zm0 0" fill="#da4453"/><path d="m504 286.789062v4c0 77.359376-62.640625 140-140 140-43.511719 0-82.398438-19.839843-108.078125-50.875-19.921875-24.246093-31.921875-55.277343-31.921875-89.125v-4zm0 0" fill="#ed5565"/><path d="m488 287.019531v3.527344c0 68.527344-55.488281 124-124 124-38.542969 0-72.976562-17.574219-95.726562-45.0625-17.648438-21.472656-28.273438-48.953125-28.273438-78.9375v-3.527344zm0 0" fill="#ffd2a6"/><path d="m343.871094 287.019531h-30.296875c5.496093 22.800781 25.96875 39.769531 50.464843 39.769531 24.496094 0 44.96875-16.96875 50.464844-39.769531zm0 0" fill="#f7c292"/><path d="m352.238281 314.789062c-2.207031 0-4.039062-1.785156-4.039062-4 0-2.203124 1.753906-4 3.953125-4h.085937c2.203125 0 4 1.796876 4 4 0 2.214844-1.789062 4-4 4zm0 0" fill="#656d78"/><path d="m384.238281 306.789062c-2.207031 0-4.039062-1.785156-4.039062-4 0-2.203124 1.753906-4 3.953125-4h.085937c2.203125 0 4 1.796876 4 4 0 2.214844-1.789062 4-4 4zm0 0" fill="#656d78"/><path d="m179.59375 57.738281c-8.882812-18.472656-1.121094-40.71875 17.359375-49.589843 18.480469-8.871094 79.4375-12.722657 85.597656.078124 6.234375 12.871094-34.957031 58-53.4375 66.871094-18.480469 8.890625-40.632812 1.128906-49.519531-17.359375zm0 0" fill="#a0d468"/><path d="m194.3125 54.628906c-.984375 0-1.96875-.363281-2.738281-1.082031-1.613281-1.511719-1.695313-4.046875-.175781-5.65625 14.21875-15.144531 50.816406-24.96875 52.371093-25.375 2.167969-.574219 4.328125.703125 4.886719 2.839844.558594 2.128906-.710938 4.3125-2.839844 4.886719-.359375.097656-35.929687 9.640624-48.585937 23.113281-.789063.855469-1.855469 1.273437-2.917969 1.273437zm0 0" fill="#8cc152"/></svg>