<svg id="Capa_1" enable-background="new 0 0 453.54 453.54" height="512" viewBox="0 0 453.54 453.54" width="512" xmlns="http://www.w3.org/2000/svg"><g><g><path d="m127.417 453.542-65.408-41.975 264.121-411.569 65.402 41.973z" fill="#fab400"/></g><g><path d="m94.716 432.556-32.707-20.989 264.121-411.569 32.701 20.988z" fill="#f39200"/></g><g><g><g><path d="m319.344 11.174h10.176v1.779h-10.176z" fill="#303357" transform="matrix(.842 .54 -.54 .842 57.952 -173.382)"/></g><g><path d="m315.184 17.656h10.178v1.779h-10.178z" fill="#303357" transform="matrix(.842 .54 -.54 .842 60.74 -170.033)"/></g><g><path d="m311.021 24.137h10.179v1.779h-10.179z" fill="#303357" transform="matrix(.842 .54 -.54 .842 63.597 -166.778)"/></g><g><path d="m306.862 30.62h10.178v1.78h-10.178z" fill="#303357" transform="matrix(.842 .54 -.54 .842 66.409 -163.465)"/></g></g><g><g><path d="m302.222 37.851h10.178v1.778h-10.178z" fill="#303357" transform="matrix(.842 .54 -.54 .842 69.594 -159.834)"/></g><g><path d="m298.063 44.333h10.179v1.78h-10.179z" fill="#303357" transform="matrix(.842 .54 -.54 .842 72.453 -156.579)"/></g><g><path d="m293.903 50.815h10.178v1.78h-10.178z" fill="#303357" transform="matrix(.842 .54 -.54 .842 75.262 -153.269)"/></g><g><path d="m289.744 57.299h10.177v1.778h-10.177z" fill="#303357" transform="matrix(.842 .54 -.54 .842 78.142 -150.036)"/></g></g><g><g><path d="m285.101 64.529h10.178v1.779h-10.178z" fill="#303357" transform="matrix(.842 .54 -.54 .842 81.274 -146.345)"/></g><g><path d="m280.941 71.01h10.178v1.778h-10.178z" fill="#303357" transform="matrix(.842 .54 -.54 .842 84.115 -143.072)"/></g><g><path d="m276.782 77.494h10.178v1.779h-10.178z" fill="#303357" transform="matrix(.842 .54 -.54 .842 86.958 -139.8)"/></g><g><path d="m272.621 83.976h10.18v1.779h-10.18z" fill="#303357" transform="matrix(.842 .54 -.54 .842 89.853 -136.572)"/></g></g><g><g><path d="m267.983 91.205h10.178v1.78h-10.178z" fill="#303357" transform="matrix(.842 .54 -.54 .842 92.969 -132.877)"/></g><g><path d="m263.82 97.689h10.178v1.778h-10.178z" fill="#303357" transform="matrix(.842 .54 -.54 .842 95.81 -129.603)"/></g><g><path d="m259.659 104.171h10.18v1.778h-10.18z" fill="#303357" transform="matrix(.842 .54 -.54 .842 98.708 -126.37)"/></g><g><path d="m255.504 110.654h10.178v1.778h-10.178z" fill="#303357" transform="matrix(.842 .54 -.54 .842 101.514 -123.072)"/></g></g><g><g><path d="m250.862 117.884h10.179v1.779h-10.179z" fill="#303357" transform="matrix(.842 .54 -.54 .842 104.702 -119.432)"/></g><g><path d="m246.701 124.367h10.18v1.779h-10.18z" fill="#303357" transform="matrix(.842 .54 -.54 .842 107.565 -116.17)"/></g><g><path d="m242.543 130.848h10.176v1.779h-10.176z" fill="#303357" transform="matrix(.842 .54 -.54 .842 110.373 -112.876)"/></g><g><path d="m238.383 137.333h10.178v1.779h-10.178z" fill="#303357" transform="matrix(.842 .54 -.54 .842 113.19 -109.589)"/></g></g><g><g><path d="m233.744 144.563h10.177v1.778h-10.177z" fill="#303357" transform="matrix(.842 .54 -.54 .842 116.406 -105.962)"/></g><g><path d="m229.583 151.045h10.175v1.778h-10.175z" fill="#303357" transform="matrix(.842 .54 -.54 .842 119.275 -102.699)"/></g><g><path d="m225.424 157.526h10.176v1.78h-10.176z" fill="#303357" transform="matrix(.842 .54 -.54 .842 122.138 -99.434)"/></g><g><path d="m221.261 164.009h10.177v1.778h-10.177z" fill="#303357" transform="matrix(.842 .54 -.54 .842 124.954 -96.147)"/></g></g><g><g><path d="m216.621 171.239h10.179v1.78h-10.179z" fill="#303357" transform="matrix(.842 .54 -.54 .842 128.098 -92.485)"/></g><g><path d="m212.463 177.721h10.176v1.779h-10.176z" fill="#303357" transform="matrix(.842 .54 -.54 .842 130.924 -89.206)"/></g><g><path d="m208.302 184.206h10.179v1.778h-10.179z" fill="#303357" transform="matrix(.842 .54 -.54 .842 133.783 -85.937)"/></g><g><path d="m204.143 190.687h10.178v1.779h-10.178z" fill="#303357" transform="matrix(.842 .54 -.54 .842 136.603 -82.658)"/></g></g><g><g><path d="m199.503 197.917h10.176v1.779h-10.176z" fill="#303357" transform="matrix(.842 .54 -.54 .842 139.852 -79.025)"/></g><g><path d="m195.341 204.4h10.178v1.78h-10.178z" fill="#303357" transform="matrix(.842 .54 -.54 .842 142.592 -75.728)"/></g><g><path d="m191.181 210.882h10.177v1.778h-10.177z" fill="#303357" transform="matrix(.842 .54 -.54 .842 145.485 -72.464)"/></g><g><path d="m187.021 217.365h10.179v1.779h-10.179z" fill="#303357" transform="matrix(.842 .54 -.54 .842 148.322 -69.189)"/></g></g><g><g><path d="m182.382 224.595h10.175v1.778h-10.175z" fill="#303357" transform="matrix(.842 .54 -.54 .842 151.505 -65.539)"/></g><g><path d="m178.222 231.077h10.18v1.778h-10.18z" fill="#303357" transform="matrix(.842 .54 -.54 .842 154.358 -62.267)"/></g><g><path d="m174.063 237.56h10.178v1.779h-10.178z" fill="#303357" transform="matrix(.842 .54 -.54 .842 157.153 -58.989)"/></g><g><path d="m169.903 244.043h10.179v1.78h-10.179z" fill="#303357" transform="matrix(.842 .54 -.54 .842 160.02 -55.717)"/></g></g><g><g><path d="m165.263 251.273h10.176v1.779h-10.176z" fill="#303357" transform="matrix(.841 .54 -.54 .841 163.278 -52.067)"/></g><g><path d="m161.101 257.755h10.178v1.779h-10.178z" fill="#303357" transform="matrix(.842 .54 -.54 .842 165.982 -48.79)"/></g><g><path d="m156.941 264.237h10.179v1.778h-10.179z" fill="#303357" transform="matrix(.842 .54 -.54 .842 168.874 -45.517)"/></g><g><path d="m152.782 270.72h10.178v1.779h-10.178z" fill="#303357" transform="matrix(.842 .54 -.54 .842 171.666 -42.245)"/></g></g><g><g><path d="m148.143 277.951h10.178v1.779h-10.178z" fill="#303357" transform="matrix(.842 .54 -.54 .842 174.862 -38.594)"/></g><g><path d="m143.983 284.432h10.179v1.78h-10.179z" fill="#303357" transform="matrix(.842 .54 -.54 .842 177.729 -35.318)"/></g><g><path d="m139.823 290.916h10.177v1.778h-10.177z" fill="#303357" transform="matrix(.842 .54 -.54 .842 180.605 -32.04)"/></g><g><path d="m135.663 297.4h10.175v1.778h-10.175z" fill="#303357" transform="matrix(.842 .54 -.54 .842 183.456 -28.764)"/></g></g><g><g><path d="m131.021 304.628h10.178v1.779h-10.178z" fill="#303357" transform="matrix(.842 .54 -.54 .842 186.531 -25.126)"/></g><g><path d="m126.862 311.111h10.179v1.779h-10.179z" fill="#303357" transform="matrix(.842 .54 -.54 .842 189.427 -21.844)"/></g><g><path d="m122.701 317.592h10.18v1.779h-10.18z" fill="#303357" transform="matrix(.842 .54 -.54 .842 192.296 -18.565)"/></g><g><path d="m118.542 324.075h10.177v1.779h-10.177z" fill="#303357" transform="matrix(.842 .54 -.54 .842 195.146 -15.288)"/></g></g><g><g><path d="m113.9 331.306h10.176v1.779h-10.176z" fill="#303357" transform="matrix(.842 .54 -.54 .842 198.262 -11.647)"/></g><g><path d="m109.74 337.788h10.178v1.778h-10.178z" fill="#303357" transform="matrix(.842 .54 -.54 .842 201.096 -8.376)"/></g><g><path d="m105.583 344.271h10.179v1.779h-10.179z" fill="#303357" transform="matrix(.842 .54 -.54 .842 203.967 -5.097)"/></g><g><path d="m101.424 350.753h10.179v1.78h-10.179z" fill="#303357" transform="matrix(.842 .54 -.54 .842 206.81 -1.824)"/></g></g><g><g><path d="m96.781 357.983h10.18v1.779h-10.18z" fill="#303357" transform="matrix(.842 .54 -.54 .842 210.008 1.838)"/></g><g><path d="m92.622 364.466h10.178v1.779h-10.178z" fill="#303357" transform="matrix(.842 .54 -.54 .842 212.793 5.094)"/></g><g><path d="m88.463 370.947h10.176v1.779h-10.176z" fill="#303357" transform="matrix(.842 .54 -.54 .842 215.642 8.37)"/></g><g><path d="m84.302 377.431h10.179v1.778h-10.179z" fill="#303357" transform="matrix(.842 .54 -.54 .842 218.506 11.651)"/></g></g><g><g><path d="m79.66 384.662h10.179v1.779h-10.179z" fill="#303357" transform="matrix(.842 .54 -.54 .842 221.677 15.304)"/></g><g><path d="m75.503 391.143h10.176v1.778h-10.176z" fill="#303357" transform="matrix(.842 .54 -.54 .842 224.596 18.607)"/></g><g><path d="m71.344 397.626h10.175v1.779h-10.175z" fill="#303357" transform="matrix(.842 .54 -.54 .842 227.379 21.857)"/></g><g><path d="m67.181 404.11h10.177v1.778h-10.177z" fill="#303357" transform="matrix(.842 .54 -.54 .842 230.243 25.142)"/></g></g></g></g></svg>