<svg height="512pt" viewBox="-17 0 512 512.001" width="512pt" xmlns="http://www.w3.org/2000/svg"><g fill-rule="evenodd"><path d="m418.285156 0c-116.101562 0-232.179687 0-348.28125 0-13.585937 0-24.71875 11.066406-24.71875 24.617188v435.082031c0 13.519531 11.132813 24.617187 24.71875 24.617187h25.328125l347.671875-402.140625v-57.558593c0-13.550782-11.132812-24.617188-24.71875-24.617188zm0 0" fill="#c4cccf"/><path d="m387.816406 44.152344h-268.703125c-13.058593 0-23.78125 10.691406-23.78125 23.773437v420.273438c0 13.085937 10.722657 23.800781 23.78125 23.800781h335.082031c13.085938 0 23.808594-10.714844 23.808594-23.800781v-336.320313c0-3.007812-.027344-5.722656-.058594-8.234375zm0 0" fill="#eceff1"/><path d="m387.816406 44.152344-.058594 75.722656c0 13.054688 10.71875 23.769531 23.808594 23.769531h66.378906c-.292968-19.855469-2.570312-26.308593-18.84375-44.007812l-16.097656-17.460938-14.8125-16.089843c-15.71875-17.054688-17.121094-21.933594-40.375-21.933594zm0 0" fill="#90a4ae"/></g><path d="m382.644531 414.074219h-216.433593c-4.300782 0-7.789063-3.484375-7.789063-7.785157 0-4.300781 3.488281-7.789062 7.789063-7.789062h216.433593c4.300781 0 7.785157 3.488281 7.785157 7.789062 0 4.300782-3.484376 7.785157-7.785157 7.785157zm0 0" fill="#35505c"/><path d="m382.644531 359.378906h-216.433593c-4.300782 0-7.789063-3.484375-7.789063-7.785156s3.488281-7.789062 7.789063-7.789062h216.433593c4.300781 0 7.785157 3.488281 7.785157 7.789062s-3.484376 7.785156-7.785157 7.785156zm0 0" fill="#35505c"/><path d="m443.0625 488.199219c0 13.054687-10.691406 23.742187-23.722656 23.800781h34.855468c13.089844 0 23.808594-10.71875 23.808594-23.800781v-336.320313c0-3.007812-.027344-5.722656-.054687-8.234375h-34.945313c1.753906 114.617188.058594 229.820313.058594 344.554688zm0 0" fill="#c4cccf" fill-rule="evenodd"/><path d="m303.933594 304.65625h-137.722656c-4.300782 0-7.789063-3.488281-7.789063-7.789062 0-4.300782 3.488281-7.785157 7.789063-7.785157h137.722656c4.300781 0 7.789062 3.484375 7.789062 7.785157 0 4.300781-3.488281 7.789062-7.789062 7.789062zm0 0" fill="#35505c"/><path d="m23.257812 93.886719h205.066407c12.796875 0 23.285156 10.480469 23.285156 23.273437v94.261719c0 12.820313-10.488281 23.273437-23.285156 23.273437h-205.066407c-12.796874 0-23.257812-10.453124-23.257812-23.273437v-94.261719c0-12.792968 10.460938-23.273437 23.257812-23.273437zm0 0" fill="#f55a8e" fill-rule="evenodd"/><path d="m59.167969 178.632812v15.992188c0 2.160156-.785157 4.023438-2.355469 5.59375s-3.4375 2.355469-5.597656 2.355469-4.023438-.785157-5.59375-2.355469c-1.570313-1.570312-2.355469-3.496094-2.355469-5.789062v-55.144532c0-2.351562.800781-4.332031 2.402344-5.933594 1.605469-1.605468 3.550781-2.40625 5.84375-2.40625h18.652343c7.394532 0 13.414063 2.226563 18.0625 6.671876 4.644532 4.449218 6.96875 10.238281 6.96875 17.367187 0 7.066406-2.195312 12.773437-6.578124 17.121094-4.382813 4.351562-10.207032 6.527343-17.472657 6.527343zm0-33.457031v19.523438h10.113281c2.550781 0 4.773438-.945313 6.675781-2.84375 1.894531-1.898438 2.84375-4.15625 2.84375-6.769531 0-2.75-.898437-5.085938-2.699219-7.019532-1.800781-1.925781-4.042968-2.890625-6.722656-2.890625zm0 0" fill="#35505c"/><path d="m111.8125 201.691406c-2.355469 0-4.351562-.71875-5.988281-2.160156-1.503907-1.503906-2.257813-3.433594-2.257813-5.789062v-54.648438c0-2.09375.785156-3.957031 2.355469-5.59375s3.5-2.453125 5.792969-2.453125h16.394531c9.226563 0 16.753906 2.125 22.578125 6.378906 4.1875 3.074219 7.445312 7.144531 9.769531 12.214844 2.320313 5.070313 3.484375 10.582031 3.484375 16.53125 0 11.515625-3.828125 20.769531-11.484375 27.769531-5.761719 5.167969-13.417969 7.75-22.972656 7.75zm7.65625-56.222656v41.894531h9.425781c5.628907 0 10.144531-1.925781 13.546875-5.789062 3.402344-3.855469 5.105469-8.992188 5.105469-15.402344 0-6.34375-1.753906-11.382813-5.253906-15.109375-3.5-3.730469-8.261719-5.59375-14.28125-5.59375zm0 0" fill="#35505c"/><path d="m190.175781 173.726562v21.097657c0 2.15625-.769531 4.023437-2.308593 5.589843-1.539063 1.570313-3.421876 2.355469-5.644532 2.355469-2.09375 0-3.960937-.785156-5.59375-2.355469-1.636718-1.566406-2.457031-3.433593-2.457031-5.589843v-55.734375c0-2.15625.789063-4.054688 2.359375-5.691406 1.566406-1.632813 3.5-2.453126 5.789062-2.453126h25.71875c1.964844 0 3.648438.707032 5.058594 2.113282 1.40625 1.40625 2.109375 3.15625 2.109375 5.246094 0 1.898437-.6875 3.566406-2.0625 5.003906-1.371093 1.441406-3.074219 2.160156-5.105469 2.160156h-17.863281v13.835938h15.117188c2.09375 0 3.878906.703124 5.347656 2.109374 1.472656 1.40625 2.210937 3.121094 2.210937 5.148438 0 1.964844-.722656 3.648438-2.160156 5.054688-1.441406 1.40625-3.238281 2.109374-5.398437 2.109374zm0 0" fill="#35505c"/><path d="m224.410156 117.160156v94.261719c0 12.820313-10.488281 23.273437-23.285156 23.273437h27.199219c12.796875 0 23.285156-10.453124 23.285156-23.273437v-94.261719c0-12.792968-10.488281-23.273437-23.285156-23.273437h-27.199219c12.796875 0 23.285156 10.480469 23.285156 23.273437zm0 0" fill="#ba4583" fill-rule="evenodd"/></svg>