<svg id="Capa_1" enable-background="new 0 0 497 497" height="512" viewBox="0 0 497 497" width="512" xmlns="http://www.w3.org/2000/svg"><g><path d="m458.415 462.337c0 13.621-11.042 24.663-24.663 24.663h-370.504c-13.621 0-24.663-11.042-24.663-24.663v-245.87c0-6.711-7.302-13.141-2.512-17.842l195.866-192.237c9.398-8.517 23.724-8.517 33.122 0l195.865 192.238c4.79 4.701-2.512 11.131-2.512 17.842z" fill="#95c7f8"/><path d="m248.5 302.68c42.325 0 82.272-18.558 111.63 10.422l39.073-52.863 20-162.528c0-13.807-11.193-25-25-25h-301.406c-13.807 0-25 11.193-25 25v132.581l67.843 131.11c29.358-28.979 70.536-58.722 112.86-58.722z" fill="#ffe187"/><g><path d="m404.203 72.711h-30c13.807 0 25 11.193 25 25v188.953l30-56.372v-132.581c0-13.806-11.193-25-25-25z" fill="#ffd26f"/></g><g><path d="m364.282 146.082h-231.564c-4.142 0-7.5-3.358-7.5-7.5s3.358-7.5 7.5-7.5h231.563c4.142 0 7.5 3.358 7.5 7.5.001 4.142-3.357 7.5-7.499 7.5z" fill="#245e7c"/></g><g><path d="m364.282 203.502h-231.564c-4.142 0-7.5-3.358-7.5-7.5s3.358-7.5 7.5-7.5h231.563c4.142 0 7.5 3.358 7.5 7.5s-3.357 7.5-7.499 7.5z" fill="#245e7c"/></g><path d="m458.415 472.337c0 12.886-12.354 13.713-24.953 14.818l-146.72-114.653 151.673-151.405c4.79 4.701 22.512 9.525 22.512 16.237z" fill="#f9f6f9"/><path d="m468.415 216.467c0-6.711-2.698-13.141-7.488-17.842l-22.512 22.472v251.24c0 5.563-1.845 10.693-4.953 14.818h6.326c12.599-1.104 28.627-1.932 28.627-14.818z" fill="#dedbec"/><path d="m28.585 472.337c0 12.886 25.625 11.157 38.224 12.262l143.449-112.096-174.185-173.878c-4.79 4.701-7.488 11.131-7.488 17.842z" fill="#f9f6f9"/><path d="m433.752 497c13.621 0 24.663-11.042 24.663-24.663l-83.067-140.771c-28.576-48.427-70.618-77.145-126.848-77.145-5.038 0-10.043-.761-15.001-.292-50.367 4.768-95.831 33.349-121.847 77.437l-83.067 140.771c0 13.621 11.042 24.663 24.663 24.663z" fill="#dedbec"/><g><path d="m161.177 448.791c-.508 0-1.022-.052-1.539-.16-4.055-.846-6.656-4.818-5.811-8.873l18.533-88.858c.846-4.055 4.821-6.657 8.873-5.811 4.055.846 6.656 4.818 5.811 8.873l-18.533 88.858c-.738 3.539-3.857 5.971-7.334 5.971z" fill="#f9f6f9"/></g><g><path d="m335.823 448.791c-3.477 0-6.596-2.432-7.334-5.97l-18.533-88.858c-.846-4.055 1.755-8.027 5.811-8.873 4.055-.848 8.028 1.756 8.873 5.811l18.533 88.858c.846 4.055-1.755 8.027-5.811 8.873-.516.107-1.032.159-1.539.159z" fill="#f9f6f9"/></g><path d="m385.348 331.566c-28.576-48.427-80.618-78.145-136.848-78.145-5.039 0-10.042.248-15 .718 50.366 4.768 95.833 33.34 121.848 77.427l77.472 131.289c8.529 14.454-1.038 33.263-17.799 34.113-.42.021-.844.032-1.269.032h30c13.621 0 24.663-11.042 24.663-24.663z" fill="#d1cfe7"/></g></svg>