<?xml version="1.0" encoding="iso-8859-1"?>
<!-- Generator: Adobe Illustrator 19.0.0, SVG Export Plug-In . SVG Version: 6.00 Build 0)  -->
<svg version="1.1" id="Capa_1" xmlns="http://www.w3.org/2000/svg" xmlns:xlink="http://www.w3.org/1999/xlink" x="0px" y="0px"
	 viewBox="0 0 512 512" style="enable-background:new 0 0 512 512;" xml:space="preserve">
<polygon style="fill:#F2F2F2;" points="421.333,33.067 388.267,0 355.2,33.067 322.133,0 289.067,33.067 256,0 222.933,33.067 
	189.867,0 156.8,33.067 123.733,0 90.667,33.067 57.6,0 57.6,512 90.667,478.933 123.733,512 156.8,478.933 189.867,512 
	222.933,478.933 256,512 289.067,478.933 322.133,512 355.2,478.933 388.267,512 421.333,478.933 454.4,512 454.4,0 "/>
<rect x="242.133" y="161.067" style="fill:#FFD15C;" width="186.667" height="24.533"/>
<g>
	<rect x="84.267" y="242.133" style="fill:#CDD6E0;" width="344.533" height="24.533"/>
	<rect x="84.267" y="324.267" style="fill:#CDD6E0;" width="343.467" height="24.533"/>
</g>
<rect x="84.267" y="405.333" style="fill:#4CDBC4;" width="145.067" height="24.533"/>
<rect x="84.267" y="82.133" style="fill:#FF7058;" width="114.133" height="118.4"/>
<path style="fill:#FFFFFF;" d="M158.933,158.933l20.267-28.8h-14.933L150.4,150.4l-13.867-20.267c6.4-1.067,12.8-7.467,12.8-17.067
	c0-10.667-7.467-19.2-20.267-19.2H102.4v58.667h12.8V131.2h8.533l19.2,27.733L121.6,188.8h14.933l14.933-21.333L166.4,188.8h14.933
	L158.933,158.933z M115.2,104.533H128c5.333,0,8.533,3.2,8.533,7.467c0,5.333-4.267,8.533-8.533,8.533h-12.8V104.533z"/>
<g>
</g>
<g>
</g>
<g>
</g>
<g>
</g>
<g>
</g>
<g>
</g>
<g>
</g>
<g>
</g>
<g>
</g>
<g>
</g>
<g>
</g>
<g>
</g>
<g>
</g>
<g>
</g>
<g>
</g>
</svg>
