<svg height="512" viewBox="0 0 58 59" width="512" xmlns="http://www.w3.org/2000/svg"><g id="Page-1" fill="none" fill-rule="evenodd"><g id="023---Carrot" fill-rule="nonzero" transform="translate(-1)"><path id="Shape" d="m41.29 37.04c-3.52 3.52-7.03 7.04-10 7.86-.4030162.1170743-.82033.1776521-1.24.18 0 0-.26.25-.74.68-3.0355713 2.6396291-6.5073692 4.730829-10.26 6.18-.34.13-.69.25-1.04.37 0 0-.26.26-.73.68-2.35 2.1-9.83 8.04-14.52 3.34s1.24-12.19 3.33-14.54c.42-.47.68-.73.68-.73.12-.36.24-.71.37-1.05 1.45233269-3.7541075 3.5431613-7.2286722 6.18-10.27.43-.49.68-.74.68-.74.0023663-.4163864.0629531-.8303961.18-1.23.7-2.56 3.37-5.51 6.34-8.51.46-.48.94-.95 1.41-1.43l.09-.09c5.62-5.62 10.44-2.41 12.84 0l1.35 1.35h.01c-.4379065.6871312-.9329951 1.3360986-1.48 1.94-.21.24-.44.49-.68.73l3.22 3.22c.24-.24.48-.47.72-.68.6039014-.5470049 1.2528688-1.0420935 1.94-1.48v.01l1.35 1.35c2.4 2.41 5.61 7.23 0 12.86z" fill="#f29c1f"/><g fill="#e57e25"><path id="Shape" d="m17.11 32.12c-.3900375.3877236-1.0199625.3877236-1.41 0l-2.38-2.38c.43-.49.68-.74.68-.74.0023663-.4163864.0629531-.8303961.18-1.23l2.93 2.94c.3877236.3900375.3877236 1.0199625 0 1.41z"/><path id="Shape" d="m31.29 44.9c-.4030162.1170743-.82033.1776521-1.24.18 0 0-.26.25-.74.68l-5.59-5.6c-.2884599-.2860905-.3751619-.7182668-.219371-1.0934815.155791-.3752147.5231059-.6188811.929371-.6165185.2661918-.0035684.5224259.1010906.71.29z"/><path id="Shape" d="m10.69 44.98c-.1875741.1889094-.4438082.2935684-.71.29-.26322538.0033976-.51629724-.1014464-.7-.29l-3.19-3.19c.42-.47.68-.73.68-.73.12-.36.24-.71.37-1.05l3.55 3.56c.3877236.3900375.3877236 1.0199625 0 1.41z"/><path id="Shape" d="m19.05 51.94c-.34.13-.69.25-1.04.37 0 0-.26.26-.73.68l-1.58-1.58c-.3397768-.3967603-.3169323-.9881942.0524368-1.3575632.369369-.3693691.9608029-.3922136 1.3575632-.0524368z"/><path id="Shape" d="m21.22 46.883c-.2656851-.0000563-.5204263-.1058387-.708-.294l-.8-.8c-.3901891-.3910176-.3895175-1.0243108.0015-1.4145.3910176-.3901891 1.0243108-.3895176 1.4145.0015l.8.8c.2859079.2859943.3714219.7160366.216678 1.0896546-.1547439.3736179-.5192821.6172591-.923678.6173454z"/><path id="Shape" d="m15.6 41.255c-.2656729.0008743-.5206396-.1046415-.708-.293l-2.406-2.412c-.2659578-.2497527-.3747909-.624527-.2839745-.9778857.0908163-.3533586.3668672-.6292143.72029-.7197806s.72812.0185319.9776845.2846663l2.408 2.412c.2851942.2860871.3702546.7156659.2156011 1.0888467s-.518644.6166641-.9226011.6171533z"/><path id="Shape" d="m9.983 53.315c-.26547103.0003425-.52004863-.1055214-.707-.294l-.8-.8c-.3923983-.389913-.39441302-1.0241017-.00449999-1.4165s1.02410167-.394413 1.41649999-.0045l.8.8c.2860368.2861229.3714873.7164079.2164868 1.0901167-.1550004.3737088-.5199089.6172016-.9244868.6168833z"/><path id="Shape" d="m26.838 36.431c-.2655413.0002088-.5202623-.1052054-.708-.293l-6.421-6.432c-.3901891-.3910176-.3895176-1.0243108.0015-1.4145.3910176-.3901891 1.0243108-.3895176 1.4145.0015l6.42 6.432c.2851942.2860871.3702546.7156659.2156011 1.0888467s-.518644.6166641-.9226011.6171533z"/><path id="Shape" d="m35.667 37.235c-.2655413.0002088-.5202623-.1052054-.708-.293l-3.21-3.216c-.3787042-.3926454-.3728476-1.0163551.0131628-1.40182.3860105-.3854648 1.0097279-.3904391 1.4018372-.01118l3.211 3.216c.2853222.2862161.3703185.7160368.2154088 1.089308s-.5192697.6166064-.9234088.616692z"/><path id="Shape" d="m27.54 24.88c-.182678.1912473-.4355257.2996106-.7.3-.2674295-.0002088-.5234464-.1083849-.71-.3l-5.61-5.62c.46-.48.94-.95 1.41-1.43l5.62 5.64c.1881616.1869842.2931358.4418383.2912545.7071011s-.1104597.5186023-.3012545.7028989z"/></g><path id="Shape" d="m56.33 26.59c-1.9216436 1.2024694-4.3742198 1.1474437-6.24-.14-1.1969474-.8324067-2.0220744-2.0987973-2.3-3.53-.1827249-1.142208-1.1837137-1.9720876-2.34-1.94-1.9638645.1316967-3.8610595.7652427-5.51 1.84-.9652468.6174382-1.857582 1.3420412-2.66 2.16l-3.22-3.22c.8153373-.8084556 1.5396575-1.7037959 2.16-2.67 1.0696493-1.6506757 1.6995896-3.5473811 1.83-5.51.0367589-1.1598872-.7941469-2.1663968-1.94-2.35-1.4270804-.2877009-2.6860334-1.1198295-3.51-2.32-1.6712842-2.41509012-1.2249817-5.70613822 1.0291388-7.58890009 2.2541204-1.88276186 5.5720389-1.73579241 7.6508612.33890009.3387359.34020518.6312453.72349341.87 1.14.296653-.74698571.8497121-1.36385938 1.56-1.74.9415687-.51663028 2.0756497-.54274398 3.04-.07.9851806.46275252 1.6882456 1.37041321 1.89 2.44 1.9590515-.54177586 4.0580582.01327148 5.4932407 1.45259595 1.4351825 1.43932448 1.9841786 3.539922 1.4367593 5.49740405 1.0712604.198025 1.98044.9022665 2.44 1.89.4760877.966174.4537181 2.1032975-.06 3.05-.3817912.705851-.9968103 1.2572473-1.74 1.56.4096779.2399138.7862065.5323959 1.12.87 1.2250323 1.2242547 1.8253077 2.9400902 1.6306322 4.6610217s-1.1630752 3.2593152-2.6306322 4.1789783z" fill="#4fba6f"/><path id="Shape" d="m38.877 27.587c-.2653486.0007185-.5199469-.1047939-.707-.293l-6.421-6.432c-.2597729-.2512596-.3637612-.6231337-.2719978-.9726946.0917635-.3495608.3649986-.6224097.7146889-.7136787s.721417.0132453.9723089.2733733l6.421 6.432c.2853222.2862161.3703185.7160368.2154088 1.089308s-.5192697.6166064-.9234088.616692z" fill="#d25627"/></g></g></svg>