<?xml version="1.0" encoding="iso-8859-1"?>
<!-- Generator: Adobe Illustrator 19.0.0, SVG Export Plug-In . SVG Version: 6.00 Build 0)  -->
<svg version="1.1" id="Capa_1" xmlns="http://www.w3.org/2000/svg" xmlns:xlink="http://www.w3.org/1999/xlink" x="0px" y="0px"
	 viewBox="0 0 511.999 511.999" style="enable-background:new 0 0 511.999 511.999;" xml:space="preserve">
<path style="fill:#DDDDDD;" d="M261.171,0H57.794C34.401,0,15.369,19.032,15.369,42.425v427.148
	c0,23.394,19.032,42.425,42.424,42.425h203.378c23.394,0,42.425-19.032,42.425-42.425V42.425C303.597,19.032,284.565,0,261.171,0z"
	/>
<path style="fill:#C6C5CA;" d="M261.171,0h-32.069c23.394,0,42.425,19.032,42.425,42.425v427.148
	c0,23.394-19.032,42.425-42.425,42.425h32.069c23.394,0,42.425-19.032,42.425-42.425V42.425C303.597,19.032,284.565,0,261.171,0z"/>
<path style="fill:#4CE166;" d="M264.026,69.913H54.94c-4.143,0-7.502,3.358-7.502,7.502v335.712c0,4.144,3.359,7.502,7.502,7.502
	h209.086c4.144,0,7.502-3.358,7.502-7.502V77.416C271.528,73.271,268.169,69.913,264.026,69.913z"/>
<path style="fill:#44C868;" d="M264.026,69.913h-27.008V420.63h27.008c4.144,0,7.502-3.358,7.502-7.502V77.416
	C271.528,73.271,268.169,69.913,264.026,69.913z"/>
<path style="fill:#FFDB56;" d="M271.528,77.416c0-1.838-0.662-3.519-1.759-4.822L127.878,191.754L50.908,71.096
	c-2.085,1.332-3.47,3.662-3.47,6.32v97.159L198.647,420.63h65.379c1.435,0,2.771-0.41,3.911-1.108L158.345,240.359l113.182-94.891
	V77.416H271.528z"/>
<g>
	<path style="fill:#FFBB24;" d="M237.018,100.097v74.305l34.51-28.932V77.416c0-1.838-0.662-3.519-1.759-4.822L237.018,100.097z"/>
	<path style="fill:#FFBB24;" d="M237.018,368.975v51.655h27.008c1.435,0,2.771-0.41,3.911-1.108L237.018,368.975z"/>
</g>
<g>
	<path style="fill:#475D63;" d="M195.881,50.605h-37.535c-4.143,0-7.502-3.358-7.502-7.502s3.359-7.502,7.502-7.502h37.535
		c4.143,0,7.502,3.358,7.502,7.502C203.384,47.246,200.025,50.605,195.881,50.605z"/>
	<path style="fill:#475D63;" d="M136.546,50.605h-13.461c-4.143,0-7.502-3.358-7.502-7.502s3.359-7.502,7.502-7.502h13.461
		c4.143,0,7.502,3.358,7.502,7.502C144.048,47.246,140.689,50.605,136.546,50.605z"/>
	<path style="fill:#475D63;" d="M424.793,407.895l-21.641-21.641c-1.528-1.528-3.654-2.323-5.802-2.181
		c-2.158,0.143-4.149,1.21-5.463,2.928c-2.905,3.799-6.084,7.431-9.447,10.794s-6.995,6.542-10.794,9.447
		c-1.717,1.313-2.785,3.305-2.928,5.463c-0.144,2.157,0.651,4.272,2.181,5.802l21.641,21.641c1.465,1.464,3.386,2.197,5.306,2.197
		s3.84-0.732,5.306-2.197l21.642-21.642C427.723,415.576,427.723,410.826,424.793,407.895z"/>
</g>
<path style="fill:#FF4A4A;" d="M487.694,459.83l-57.417-57.417c-2.931-2.929-7.68-2.929-10.611,0l-32.609,32.609
	c-2.93,2.931-2.93,7.68,0,10.61l57.417,57.417c5.958,5.957,13.783,8.937,21.608,8.937c7.826,0,15.653-2.98,21.61-8.937
	C499.608,491.133,499.608,471.745,487.694,459.83z"/>
<path style="fill:#E7343F;" d="M488.158,489.912c-7.825,0-15.651-2.979-21.609-8.937l-62.684-62.76l-16.806,16.806
	c-2.93,2.931-2.93,7.68,0,10.61l57.417,57.417c5.958,5.957,13.783,8.937,21.608,8.937c7.826,0,15.653-2.98,21.61-8.937
	c4.03-4.03,6.692-8.917,7.995-14.078C493.22,489.594,490.69,489.912,488.158,489.912z"/>
<path style="fill:#546F7A;" d="M393.081,235.526c-23.089-23.088-53.788-35.803-86.44-35.803s-63.351,12.716-86.439,35.803
	c-23.089,23.09-35.804,53.788-35.804,86.44c0,32.652,12.716,63.351,35.804,86.439c23.088,23.089,53.787,35.805,86.439,35.805
	c32.654,0,63.352-12.716,86.44-35.805c23.089-23.089,35.805-53.788,35.805-86.439C428.886,289.314,416.17,258.616,393.081,235.526z"
	/>
<path style="fill:#475D63;" d="M329.916,420.935c-32.653,0-63.351-12.716-86.439-35.804c-23.089-23.089-35.804-53.788-35.804-86.439
	c0-27.1,8.767-52.849,24.945-74.025c-4.338,3.315-8.489,6.933-12.416,10.859c-23.089,23.09-35.804,53.788-35.804,86.44
	c0,32.652,12.716,63.351,35.804,86.439c23.088,23.089,53.787,35.805,86.439,35.805c32.654,0,63.352-12.716,86.44-35.805
	c3.926-3.926,7.544-8.077,10.859-12.416C382.766,412.169,357.017,420.935,329.916,420.935z"/>
<path style="fill:#A8EEFC;" d="M306.942,231.449c-49.691,0-90.116,40.427-90.116,90.117s40.426,90.117,90.116,90.117
	s90.117-40.427,90.117-90.117S356.632,231.449,306.942,231.449z"/>
<g>
	<path style="fill:#C2F8FF;" d="M278.259,407.002L392.308,292.67c-4.243-12.502-11.161-23.779-20.069-33.148L244.861,386.829
		C254.29,395.804,265.657,402.76,278.259,407.002z"/>
	<path style="fill:#C2F8FF;" d="M237.158,378.52l126.686-126.778c-4.143-3.383-8.594-6.404-13.299-9.017L228.207,365.36
		C230.807,370.014,233.804,374.418,237.158,378.52z"/>
</g>
<circle style="fill:#475D63;" cx="159.487" cy="458.574" r="23.895"/>
<path style="fill:#A8EEFC;" d="M47.438,413.128c0,4.144,3.359,7.502,7.502,7.502h143.707L47.438,174.574V413.128z"/>
<g>
</g>
<g>
</g>
<g>
</g>
<g>
</g>
<g>
</g>
<g>
</g>
<g>
</g>
<g>
</g>
<g>
</g>
<g>
</g>
<g>
</g>
<g>
</g>
<g>
</g>
<g>
</g>
<g>
</g>
</svg>
