<svg id="icon" height="512" viewBox="0 0 128 128" width="512" xmlns="http://www.w3.org/2000/svg"><path d="m32.026 23h63.948v82h-63.948z" fill="#eeefee"/><g fill="#dbd8dd"><path d="m56.045 28.405h34.667v2.448h-34.667z"/><path d="m56.045 38.226h34.667v2.448h-34.667z"/><path d="m37.288 48.046h53.424v2.448h-53.424z"/><path d="m37.288 57.866h53.424v2.448h-53.424z"/><path d="m37.288 67.686h53.424v2.448h-53.424z"/><path d="m37.288 77.506h53.424v2.448h-53.424z"/><path d="m37.288 87.327h53.424v2.448h-53.424z"/><path d="m37.288 97.147h53.424v2.448h-53.424z"/></g><path d="m45.322 33.586a5.874 5.874 0 0 1 3.135 1.381 3.525 3.525 0 0 1 .828 2.47 4.176 4.176 0 0 1 -1.051 2.833 3.97 3.97 0 0 1 -2.912 1.307v1.442h-1v-1.419q-3.8-.418-4.056-4.083h1.8a2.6 2.6 0 0 0 2.252 2.669v-5.2q-3.768-.753-3.768-3.674a3.556 3.556 0 0 1 1.019-2.651 4.331 4.331 0 0 1 2.749-1.163v-1.438h1v1.433q3.312.251 3.637 3.377h-1.81a1.946 1.946 0 0 0 -1.823-1.963zm-1-.2v-4.498a2.107 2.107 0 0 0 -1.963 2.279 1.913 1.913 0 0 0 .544 1.517 3.409 3.409 0 0 0 1.424.697zm1 6.8a2.3 2.3 0 0 0 2.149-2.632 2.26 2.26 0 0 0 -.437-1.489 3.358 3.358 0 0 0 -1.712-.855z" fill="#2cbfae"/></svg>