<svg height="512pt" viewBox="-78 0 512 512.00108" width="512pt" xmlns="http://www.w3.org/2000/svg"><path d="m99.429688 108.140625c0 20.382813-16.523438 36.902344-36.902344 36.902344s-36.902344-16.519531-36.902344-36.902344c0-20.378906 16.523438-36.898437 36.902344-36.898437s36.902344 16.519531 36.902344 36.898437zm0 0" fill="#c2f47a"/><path d="m79.097656 75.171875c2.507813 4.984375 3.929688 10.609375 3.929688 16.570313 0 20.378906-16.519532 36.898437-36.902344 36.898437-5.957031 0-11.585938-1.421875-16.566406-3.929687 6.070312 12.054687 18.550781 20.332031 32.96875 20.332031 20.378906 0 36.898437-16.519531 36.898437-36.902344.003907-14.417969-8.273437-26.898437-20.328125-32.96875zm0 0" fill="#a6d845"/><path d="m203.980469 71.242188c0 20.378906-16.519531 36.898437-36.902344 36.898437-20.378906 0-36.898437-16.519531-36.898437-36.898437 0-20.382813 16.519531-36.902344 36.898437-36.902344 20.382813 0 36.902344 16.519531 36.902344 36.902344zm0 0" fill="#c2f47a"/><path d="m183.648438 38.273438c2.511718 4.984374 3.929687 10.609374 3.929687 16.566406 0 20.382812-16.519531 36.902344-36.898437 36.902344-5.960938 0-11.585938-1.421876-16.570313-3.929688 6.070313 12.054688 18.550781 20.332031 32.96875 20.332031 20.378906 0 36.902344-16.523437 36.902344-36.902343 0-14.421876-8.277344-26.898438-20.332031-32.96875zm0 0" fill="#a6d845"/><path d="m73.800781 229.09375c0 20.382812-16.519531 36.902344-36.898437 36.902344s-36.902344-16.519532-36.902344-36.902344c0-20.378906 16.523438-36.898438 36.902344-36.898438s36.898437 16.519532 36.898437 36.898438zm0 0" fill="#c2f47a"/><path d="m53.46875 196.125c2.511719 4.984375 3.933594 10.609375 3.933594 16.570312 0 20.378907-16.523438 36.898438-36.902344 36.898438-5.960938 0-11.585938-1.421875-16.570312-3.929688 6.074218 12.054688 18.550781 20.332032 32.972656 20.332032 20.378906 0 36.898437-16.519532 36.898437-36.902344 0-14.417969-8.273437-26.898438-20.332031-32.96875zm0 0" fill="#a6d845"/><path d="m294.183594 77.902344c-4.246094 0-7.6875-3.441406-7.6875-7.6875v-37.925782c0-4.246093 3.4375-7.6875 7.6875-7.6875 4.246094 0 7.6875 3.441407 7.6875 7.6875v37.925782c0 4.246094-3.441406 7.6875-7.6875 7.6875zm0 0" fill="#659922"/><path d="m337.242188 46.3125c-.25 0-.507813-.011719-.761719-.039062-71.640625-7.066407-106.761719-31.269532-108.222657-32.296876-3.472656-2.441406-4.308593-7.238281-1.867187-10.710937 2.441406-3.46875 7.226563-4.304687 10.699219-1.875.496094.34375 33.851562 22.96875 100.898437 29.582031 4.226563.417969 7.3125 4.179688 6.894531 8.40625-.390624 3.96875-3.734374 6.933594-7.640624 6.933594zm0 0" fill="#659922"/><path d="m301.3125 144.9375-1.667969-12.535156c-1.285156-9.652344.519531-19.46875 5.15625-28.035156l.078125-.140626c5.71875-10.566406 1.792969-23.765624-8.769531-29.484374l-.703125-.382813-1.011719-.546875c-10.554687-5.714844-23.46875-1.550781-29.171875 9.007812-4.636718 8.597657-11.886718 15.492188-20.703125 19.699219l-11.4375 5.460938c-10.824219 5.164062-20.875 11.820312-29.8125 19.8125-6.894531 6.164062-14.054687 13.503906-17.589843 20.03125l-97.4375 179.917969c-12.121094 22.382812-26.941407 43.191406-44.125 61.964843l-23.933594 26.140625c-3.691406 4.03125-2.609375 10.457032 2.195312 13.0625 64.464844 34.910156 145.023438 10.953125 179.9375-53.507812l91.523438-169c3.535156-6.527344 5.769531-16.535156 7.164062-25.675782 1.808594-11.851562 1.894532-23.902343.308594-35.789062zm0 0" fill="#8bcc3f"/><path d="m301.3125 144.9375-1.667969-12.535156c-1.285156-9.652344.519531-19.46875 5.15625-28.035156l.078125-.140626c5.71875-10.566406 1.792969-23.765624-8.769531-29.484374l-1.714844-.929688c-10.554687-5.714844-23.46875-1.550781-29.171875 9.007812-4.636718 8.597657-11.886718 15.492188-20.703125 19.699219l-11.4375 5.460938c-10.824219 5.164062-20.875 11.820312-29.8125 19.8125-6.894531 6.164062-14.054687 13.503906-17.589843 20.03125l-97.4375 179.917969c-12.121094 22.382812-26.941407 43.191406-44.125 61.964843l-23.933594 26.140625c-3.691406 4.03125-2.609375 10.457032 2.195312 13.0625 64.464844 34.910156 145.023438 10.953125 179.9375-53.507812l91.523438-169c3.535156-6.527344 5.769531-16.535156 7.164062-25.675782 1.808594-11.851562 1.894532-23.902343.308594-35.789062zm0 0" fill="#8bcc3f"/><path d="m238.761719 117.46875c-7.445313 11.6875-14.652344 23.414062-19.308594 36.296875-4.894531 13.535156-7.273437 24.429687-7.273437 33.304687v82.46875c0 32.09375-8.003907 63.679688-23.285157 91.902344l-2.804687 5.171875c-32.523438 60.0625-104.675782 84.945313-166.515625 59.832031.710937.984376 1.644531 1.835938 2.804687 2.464844 64.464844 34.910156 145.023438 10.953125 179.9375-53.507812l91.523438-169c3.535156-6.527344 5.769531-16.535156 7.164062-25.675782 1.8125-11.851562 1.894532-23.902343.308594-35.789062l-1.667969-12.53125c-1.285156-9.65625.519531-19.472656 5.15625-28.039062l.078125-.140626c5.71875-10.5625 1.792969-23.761718-8.769531-29.484374l-1.714844-.929688c-10.554687-5.714844-23.46875-1.550781-29.171875 9.011719-.179687.335937-.375.664062-.5625.996093-.113281.199219-.21875.398438-.335937.59375-.214844.363282-.441407.722657-.667969 1.078126-.097656.15625-.191406.316406-.292969.472656-.207031.324218-.429687.640625-.644531.957031-.125.183594-.246094.371094-.371094.550781-.257812.363282-.523437.714844-.789062 1.074219-.097656.128906-.1875.261719-.285156.386719-.949219 1.238281-1.964844 2.421875-3.027344 3.554687-.175782.183594-.34375.375-.523438.558594-1.101562 1.132813-2.265625 2.199219-3.476562 3.214844-.246094.207031-.492188.414062-.746094.617187-2.019531 1.621094-4.183594 3.070313-6.464844 4.335938-.824218.457031-1.660156.898437-2.515625 1.308594l-2.878906 1.371093c-.054687 4.832031-.703125 10.15625-2.878906 13.574219zm0 0" fill="#659922"/><path d="m333.050781 129.554688-7.503906-10.316407c-5.726563-7.878906-8.8125-17.367187-8.8125-27.109375v-.160156c0-12.011719-9.738281-21.753906-21.75-21.753906h-1.953125c-12.003906 0-21.375 9.816406-21.359375 21.816406.011719 9.765625-3.078125 19.285156-8.824219 27.183594l-7.511718 10.320312c-6.96875 9.574219-12.578126 20.066406-16.601563 31.199219-3.179687 8.785156-6.054687 18.816406-6.054687 26.335937v204.609376c0 25.449218-3.121094 50.804687-9.292969 75.496093l-8.59375 34.382813c-1.328125 5.304687 2.683593 10.441406 8.152343 10.441406 73.308594 0 132.738282-59.429688 132.738282-132.738281v-192.191407c0-7.523437-2.878906-17.5625-6.058594-26.351562-4.019531-11.121094-9.617188-21.601562-16.574219-31.164062zm0 0" fill="#8bcc3f"/><path d="m294.984375 70.214844h-1.953125c-2.925781 0-5.691406.59375-8.203125 1.648437 7.894531 3.261719 13.457031 11.027344 13.457031 20.101563v.164062c0 9.738282 3.085938 19.230469 8.8125 27.109375l7.503906 10.316407c6.960938 9.570312 12.5625 20.0625 16.589844 31.195312 3.171875 8.78125 6.042969 18.800781 6.042969 26.316406v192.195313c0 68.300781-51.589844 124.542969-117.929687 131.910156 1.09375.523437 2.324218.828125 3.640624.828125 73.3125 0 132.738282-59.429688 132.738282-132.738281v-192.191407c0-7.523437-2.878906-17.5625-6.054688-26.351562-4.019531-11.121094-9.621094-21.601562-16.578125-31.164062l-7.5-10.316407c-5.730469-7.878906-8.816406-17.367187-8.816406-27.109375v-.160156c0-12.015625-9.738281-21.753906-21.75-21.753906zm0 0" fill="#659922"/></svg>