<?xml version="1.0" encoding="iso-8859-1"?>
<!-- Generator: Adobe Illustrator 19.0.0, SVG Export Plug-In . SVG Version: 6.00 Build 0)  -->
<svg version="1.1" id="Layer_1" xmlns="http://www.w3.org/2000/svg" xmlns:xlink="http://www.w3.org/1999/xlink" x="0px" y="0px"
	 viewBox="0 0 512 512" style="enable-background:new 0 0 512 512;" xml:space="preserve">
<path style="fill:#F2F2F2;" d="M461.867,115.2v375.467c0,11.733-9.6,21.333-21.333,21.333H71.467
	c-11.733,0-21.333-9.6-21.333-21.333V21.333C50.133,9.6,59.733,0,71.467,0H348.8l41.6,42.667L461.867,115.2z"/>
<path style="fill:#CDD6E0;" d="M347.733,93.867c0,11.733,9.6,21.333,21.333,21.333h92.8L347.733,0V93.867z"/>
<path style="fill:#40596B;" d="M178.133,131.2l11.733,72.533C166.4,208,144,200.533,126.933,183.467L178.133,131.2z"/>
<path style="fill:#ACB3BA;" d="M178.133,131.2l65.067,33.067c-10.667,21.333-29.867,35.2-53.333,39.467L178.133,131.2z"/>
<path style="fill:#FF7058;" d="M178.133,131.2L243.2,98.133c10.667,21.333,10.667,44.8,0,66.133L178.133,131.2z"/>
<path style="fill:#FFD15C;" d="M178.133,131.2l-51.2,51.2c-28.8-28.8-28.8-74.667,0-103.467s74.667-28.8,103.467,0
	c5.333,5.333,9.6,11.733,13.867,18.133L178.133,131.2z"/>
<rect x="277.333" y="152.533" style="fill:#ACB3BA;" width="129.067" height="26.667"/>
<g>
	<rect x="108.8" y="244.267" style="fill:#CDD6E0;" width="298.667" height="26.667"/>
	<rect x="108.8" y="336" style="fill:#CDD6E0;" width="298.667" height="26.667"/>
</g>
<polygon style="fill:#FFD15C;" points="55.467,420.267 0,442.667 55.467,465.067 "/>
<g>
	<rect x="55.467" y="420.267" style="fill:#84DBFF;" width="403.2" height="12.8"/>
	<rect x="55.467" y="451.2" style="fill:#84DBFF;" width="403.2" height="12.8"/>
</g>
<polygon style="fill:#334A5E;" points="19.2,435.2 0,442.667 19.2,450.133 "/>
<path style="fill:#FF7058;" d="M512,430.933V454.4c0,6.4-4.267,10.667-10.667,10.667h-28.8v-44.8h28.8
	C507.733,420.267,512,424.533,512,430.933z"/>
<rect x="55.467" y="433.067" style="fill:#54C0EB;" width="403.2" height="18.133"/>
<rect x="458.667" y="420.267" style="fill:#FFD15C;" width="13.867" height="44.8"/>
<g>
</g>
<g>
</g>
<g>
</g>
<g>
</g>
<g>
</g>
<g>
</g>
<g>
</g>
<g>
</g>
<g>
</g>
<g>
</g>
<g>
</g>
<g>
</g>
<g>
</g>
<g>
</g>
<g>
</g>
</svg>
