<?xml version="1.0" encoding="iso-8859-1"?>
<!-- Generator: Adobe Illustrator 19.0.0, SVG Export Plug-In . SVG Version: 6.00 Build 0)  -->
<svg xmlns="http://www.w3.org/2000/svg" xmlns:xlink="http://www.w3.org/1999/xlink" version="1.1" id="Layer_1" x="0px" y="0px" viewBox="0 0 512 512" style="enable-background:new 0 0 512 512;" xml:space="preserve">
<path style="fill:#FFC473;" d="M494.953,254.116c-16.96-7.577-35.354-8.287-53.199-2.054c-15.029,5.25-29.026,15.181-40.616,28.791  l-55.167,34.793c-0.087-0.072-0.171-0.143-0.256-0.215v0.992H116.078l-12.337,12.61l17.65,32.562l28.722,52.992h-1.922  l19.124,29.983h176.032l100.049-73.069L512,261.734L494.953,254.116z"/>
<path style="fill:#FFDBA8;" d="M350.992,332.272c0,8.095-3.278,15.421-8.585,20.738c-5.307,5.297-12.643,8.585-20.738,8.585H111.027  l-15.141-24.536l7.856-8.025l27.604-28.214c0,0,7.895-9.874,28.074-16.181c9.465-2.968,21.638-5.147,36.969-5.147  c47.973,0,62.904,23.457,62.904,23.457h62.375c9.885,0,18.63,4.887,23.927,12.383C349.003,320.119,350.992,325.965,350.992,332.272z  "/>
<polygon style="fill:#00ACEA;" points="182.707,463.298 89.919,511.731 47.123,429.767 0,339.498 92.788,291.065 139.471,380.485   "/>
<polygon style="fill:#0082D2;" points="182.707,463.298 89.919,511.731 47.123,429.767 139.471,380.485 "/>
<path style="fill:#AEADB3;" d="M426.25,66.852c0-36.709-29.873-66.582-66.593-66.582s-66.582,29.873-66.582,66.582  c0,31.562,22.078,58.047,51.591,64.863v144.269h29.983v-8.865h15.082v-29.983h-15.082v-8.495h24.496v-29.983h-24.496v-66.942  C404.162,124.899,426.25,98.414,426.25,66.852z M359.657,103.461c-20.179,0-36.599-16.421-36.599-36.609  c0-20.179,16.421-36.599,36.599-36.599c20.189,0,36.609,16.421,36.609,36.599C396.267,87.04,379.846,103.461,359.657,103.461z"/>
<path style="fill:#8B8892;" d="M374.648,131.715v66.942h24.496v29.983h-24.496v8.495h15.082v29.983h-15.082v8.865h-14.991V103.461  c20.189,0,36.609-16.421,36.609-36.609c0-20.179-16.421-36.599-36.609-36.599V0.269c36.719,0,66.593,29.873,66.593,66.582  C426.25,98.414,404.162,124.899,374.648,131.715z"/>
<g>
</g>
<g>
</g>
<g>
</g>
<g>
</g>
<g>
</g>
<g>
</g>
<g>
</g>
<g>
</g>
<g>
</g>
<g>
</g>
<g>
</g>
<g>
</g>
<g>
</g>
<g>
</g>
<g>
</g>
</svg>
