<?xml version="1.0" encoding="iso-8859-1"?>
<!-- Generator: Adobe Illustrator 19.0.0, SVG Export Plug-In . SVG Version: 6.00 Build 0)  -->
<svg version="1.1" id="Capa_1" xmlns="http://www.w3.org/2000/svg" xmlns:xlink="http://www.w3.org/1999/xlink" x="0px" y="0px"
	 viewBox="0 0 512 512" style="enable-background:new 0 0 512 512;" xml:space="preserve">
<g>
	<path style="fill:#CEC8D7;" d="M322.114,171.255l-22.383-19.977l-0.085,0.097c0.328-0.381,32.801-39.122,32.801-130.883h30
		C362.447,124.863,323.761,169.409,322.114,171.255z"/>
	<path style="fill:#CEC8D7;" d="M295.023,78.045c0-28.883-15.702-54.082-39.023-67.578L235.984,160.79h59.039V78.045z"/>
</g>
<path style="fill:#E4ECF5;" d="M216.977,0L216.977,0v160.79H256V10.467C244.518,3.822,231.198,0,216.977,0z"/>
<polygon style="fill:#CEC8D7;" points="351,292.756 256,292.756 245.992,307.756 256,322.756 351,322.756 "/>
<rect x="161" y="292.76" style="fill:#E4ECF5;" width="95" height="30"/>
<path style="fill:#D40000;" d="M456.183,464.723l-119.107-287.55C323.493,144.381,291.494,123,256,123l0,0l-20.016,62L256,238.059
	h32.291l104.725,252.828c7.225,17.443,27.223,25.726,44.666,18.501C455.125,502.164,463.408,482.166,456.183,464.723z"/>
<path style="fill:#FF0F0F;" d="M174.924,177.173L55.817,464.723c-7.225,17.443,1.058,37.441,18.501,44.666l0,0
	c17.443,7.225,37.441-1.058,44.666-18.501L223.709,238.06H256V123C220.506,123,188.507,144.381,174.924,177.173z"/>
<g>
</g>
<g>
</g>
<g>
</g>
<g>
</g>
<g>
</g>
<g>
</g>
<g>
</g>
<g>
</g>
<g>
</g>
<g>
</g>
<g>
</g>
<g>
</g>
<g>
</g>
<g>
</g>
<g>
</g>
</svg>
