<svg height="512" viewBox="0 0 64 64" width="512" xmlns="http://www.w3.org/2000/svg"><g id="Icon"><path d="m52.954 4h-6.067a1 1 0 0 0 0 2 3.027 3.027 0 0 1 3.045 3v46a3.027 3.027 0 0 1 -3.045 3 1 1 0 0 0 0 2h6.067a5.029 5.029 0 0 0 5.046-5v-46a5.029 5.029 0 0 0 -5.046-5z" fill="#70b2e2"/><rect fill="#bdddf4" height="56" rx="5" width="40.874" x="11.058" y="4"/><path d="m43.6 35.08-1.465-1.465a3.146 3.146 0 0 0 -4.343 0l-.758.758-5.908-5.909.758-.757a3.072 3.072 0 0 0 0-4.343l-1.464-1.464a3.075 3.075 0 0 0 -4.343 0l-1.465 1.465a7.224 7.224 0 0 0 0 10.2l7.324 7.322a7.246 7.246 0 0 0 10.2 0l1.464-1.464a3.075 3.075 0 0 0 0-4.343z" fill="#f5f5f5"/><g fill="#70b2e2"><rect height="8" rx="3" width="12.115" x="6" y="28"/><rect height="8" rx="3" width="12.115" x="6" y="44"/><rect height="8" rx="3" width="12.115" x="6" y="12"/></g></g></svg>