<svg enable-background="new 0 0 24 24" height="512" viewBox="0 0 24 24" width="512" xmlns="http://www.w3.org/2000/svg"><path d="m10 12.536c0-1.178.75-2.225 1.865-2.604l5.25-1.786c.281-.096.581-.146.885-.146s.604.05.892.149l3.108 1.057v-6.606l-10.16 5.03c-.52.26-1.16.26-1.68 0l-10.16-5.03v9.15c0 1.24 1.01 2.25 2.25 2.25h7.75z" fill="#eceff1"/><path d="m22 2.25v.6l-10.16 5.03c-.52.26-1.16.26-1.68 0l-10.16-5.03v-.6c0-1.24 1.01-2.25 2.25-2.25h17.5c1.24 0 2.25 1.01 2.25 2.25z" fill="#b0bec5"/><path d="m23.491 11.826-5.25-1.786c-.156-.054-.326-.054-.482 0l-5.25 1.786c-.305.103-.509.388-.509.71v4.018c0 4.904 5.474 7.288 5.707 7.387.094.039.193.059.293.059s.199-.02.293-.06c.233-.099 5.707-2.482 5.707-7.386v-4.018c0-.322-.204-.607-.509-.71z" fill="#2196f3"/><path d="m21.55 15.35-3 4c-.174.232-.439.377-.729.397-.024.001-.048.002-.071.002-.265 0-.519-.104-.707-.293l-2-2c-.391-.391-.391-1.023 0-1.414s1.023-.391 1.414 0l1.185 1.185 2.309-3.078c.331-.441.958-.532 1.399-.2.442.332.532.959.2 1.401z" fill="#fafafa"/></svg>