<?xml version="1.0" encoding="iso-8859-1"?>
<!-- Generator: Adobe Illustrator 19.0.0, SVG Export Plug-In . SVG Version: 6.00 Build 0)  -->
<svg version="1.1" id="Layer_1" xmlns="http://www.w3.org/2000/svg" xmlns:xlink="http://www.w3.org/1999/xlink" x="0px" y="0px"
	 viewBox="0 0 485 485" style="enable-background:new 0 0 485 485;" xml:space="preserve">
<path style="fill:#FF7058;" d="M464.8,158H20.2C9,158,0,167,0,178.2v44.6C0,234,9,243,20.2,243h444.6c11.2,0,20.2-9,20.2-20.2v-44.6
	C485,167.1,476,158,464.8,158z"/>
<polygon style="fill:#40596B;" points="267.1,61.7 267.1,0 217.9,0 217.9,61.7 180,61.7 242.5,124.2 305,61.7 "/>
<path style="fill:#F2F2F2;" d="M31.6,243l1.8,13.5L60.7,457c2.2,16,15.8,28,32.1,28h299.5c16.2,0,29.9-12,32.1-28l27.2-200.5
	l1.8-13.5H31.6z M179.2,424.8c0,9.4-7.6,17-17,17s-17-7.6-17-17V303.2c0-9.4,7.6-17,17-17s17,7.6,17,17V424.8z M259.5,424.8
	c0,9.4-7.6,17-17,17s-17-7.6-17-17V303.2c0-9.4,7.6-17,17-17s17,7.6,17,17V424.8z M339.7,424.8c0,9.4-7.6,17-17,17s-17-7.6-17-17
	V303.2c0-9.4,7.6-17,17-17s17,7.6,17,17V424.8z"/>
<polygon style="fill:#CDD6E0;" points="453.4,243 451.6,256.5 33.4,256.5 31.6,243 "/>
<path style="fill:#FFD15C;" d="M467.9,63.1L305.3,225.7c-1.1,1.1-2.9,1.1-4,0l-36.4-36.4c-1.1-1.1-1.1-2.9,0-4L427.5,22.7
	c1.1-1.1,2.9-1.1,4,0l36.4,36.4C469,60.2,469,62,467.9,63.1z"/>
<circle style="fill:#FFFFFF;" cx="302.4" cy="188.2" r="9.5"/>
<path style="fill:#FFD15C;" d="M201.9,167.2L75.6,40.9c-11.1-11.1-29.2-11.1-40.3,0l0,0c-11.1,11.1-11.1,29.2,0,40.3l126.2,126.3
	c11.1,11.1,29.2,11.1,40.3,0C213,196.4,213,178.3,201.9,167.2z"/>
<circle style="fill:#FFFFFF;" cx="182.6" cy="188.2" r="9.5"/>
<g>
</g>
<g>
</g>
<g>
</g>
<g>
</g>
<g>
</g>
<g>
</g>
<g>
</g>
<g>
</g>
<g>
</g>
<g>
</g>
<g>
</g>
<g>
</g>
<g>
</g>
<g>
</g>
<g>
</g>
</svg>
