<?xml version="1.0" encoding="iso-8859-1"?>
<!-- Generator: Adobe Illustrator 19.0.0, SVG Export Plug-In . SVG Version: 6.00 Build 0)  -->
<svg version="1.1" id="Capa_1" xmlns="http://www.w3.org/2000/svg" xmlns:xlink="http://www.w3.org/1999/xlink" x="0px" y="0px"
	 viewBox="0 0 512 512" style="enable-background:new 0 0 512 512;" xml:space="preserve">
<path style="fill:#F4CC78;" d="M256,0C134.118,0,35.31,98.807,35.31,220.69c0,37.614,9.551,72.951,26.147,103.945
	c11.052-4.37,31.876,1.986,44.473,1.986L461.1,302.018c10.002-25.176,15.59-52.586,15.59-81.329C476.69,98.807,377.882,0,256,0z"/>
<g>
	<path style="fill:#C6A160;" d="M112.843,111.863c-1.977,0-3.972-0.662-5.614-2.022c-3.761-3.107-4.29-8.669-1.192-12.429
		c30.12-36.493,72.457-60.31,119.199-67.081c4.829-0.777,9.304,2.639,10.002,7.468c0.697,4.829-2.648,9.304-7.468,10.002
		c-42.39,6.144-80.79,27.754-108.111,60.857C117.91,110.769,115.385,111.863,112.843,111.863z"/>
	<path style="fill:#C6A160;" d="M70.621,229.517L70.621,229.517c-4.873,0-8.828-3.955-8.828-8.828
		c0.009-29.784,6.241-57.803,18.529-83.288c2.119-4.387,7.389-6.223,11.785-4.114c4.396,2.11,6.232,7.389,4.114,11.785
		c-11.123,23.075-16.764,48.516-16.772,75.617C79.448,225.571,75.494,229.517,70.621,229.517z"/>
</g>
<path style="fill:#E7ECED;" d="M429.842,287.25c1.713-7.212,2.71-14.689,2.71-22.422c0-53.628-43.476-97.103-97.103-97.103
	c-42.902,0-84.25,23.208-97.103,61.793c-14.433-8.501-26.174-8.828-44.138-8.828c-53.628,0-97.103,43.476-97.103,97.103
	C43.476,317.793,0,361.269,0,414.897S43.476,512,97.103,512h26.483h256h17.655C460.623,512,512,460.623,512,397.241
	C512,345.194,477.334,301.312,429.842,287.25z"/>
<path style="fill:#AFB6BB;" d="M141.233,335.448c-1.351,0-2.728-0.309-4.008-0.962c-10.496-5.367-23.243-7.865-40.121-7.865
	c-4.873,0-8.828-3.946-8.828-8.828c0-4.882,3.955-8.828,8.828-8.828c19.774,0,35.081,3.116,48.154,9.79
	c4.343,2.216,6.065,7.539,3.84,11.882C147.544,333.692,144.446,335.448,141.233,335.448z"/>
<g>
</g>
<g>
</g>
<g>
</g>
<g>
</g>
<g>
</g>
<g>
</g>
<g>
</g>
<g>
</g>
<g>
</g>
<g>
</g>
<g>
</g>
<g>
</g>
<g>
</g>
<g>
</g>
<g>
</g>
</svg>
