<?xml version="1.0" encoding="iso-8859-1"?>
<!-- Generator: Adobe Illustrator 19.0.0, SVG Export Plug-In . SVG Version: 6.00 Build 0)  -->
<svg xmlns="http://www.w3.org/2000/svg" xmlns:xlink="http://www.w3.org/1999/xlink" version="1.1" id="Capa_1" x="0px" y="0px" viewBox="0 0 512 512" style="enable-background:new 0 0 512 512;" xml:space="preserve">
<g>
	<path style="fill:#C4BE00;" d="M256,0c-17.069,0-30.905,13.836-30.905,30.905v61.811h61.811V30.905C286.905,13.836,273.069,0,256,0   z"/>
	<path style="fill:#C4BE00;" d="M404.068,160.461c-9.642-72.679-71.505-128.845-146.646-129.545V398.68l173.771-51.509   L404.068,160.461z"/>
</g>
<g>
	<path style="fill:#E0D900;" d="M374.965,160.461l21.788,186.71h-0.134L257.422,398.68L80.972,347.171h-0.165l27.125-186.71   C117.636,87.328,180.22,30.905,256,30.905c0.474,0,0.948,0,1.422,0.01C317.667,31.791,367.229,87.895,374.965,160.461z"/>
	<path style="fill:#E0D900;" d="M431.028,347.171H396.62c0.134,0-140.62,92.716-140.62,92.716l209.642-20.604   C465.642,390.233,452.105,364.2,431.028,347.171z"/>
</g>
<path style="fill:#FCF400;" d="M424.435,419.284L256,439.887L46.358,419.284c0-29.051,13.537-55.084,34.614-72.113H396.62  C413.556,364.2,424.435,390.233,424.435,419.284z"/>
<path style="fill:#008F80;" d="M256,429.586V512c37.375,0,68.559-26.548,75.718-61.811L256,429.586z"/>
<path style="fill:#00B3A0;" d="M180.302,450.189L256,429.586l44.813,20.604C296.579,485.452,278.118,512,256,512  c-37.334,0-68.486-26.486-75.698-61.687L180.302,450.189L180.302,450.189z"/>
<path style="fill:#C4BE00;" d="M465.642,419.284h-30.905v30.905h30.905c8.53,0,15.453-6.923,15.453-15.453  C481.095,426.207,474.172,419.284,465.642,419.284z"/>
<path style="fill:#E0D900;" d="M434.736,419.284H46.358c-8.53,0-15.453,6.923-15.453,15.453c0,8.53,6.923,15.453,15.453,15.453  h388.378c8.53,0,15.453-6.923,15.453-15.453C450.189,426.207,443.266,419.284,434.736,419.284z"/>
<g>
</g>
<g>
</g>
<g>
</g>
<g>
</g>
<g>
</g>
<g>
</g>
<g>
</g>
<g>
</g>
<g>
</g>
<g>
</g>
<g>
</g>
<g>
</g>
<g>
</g>
<g>
</g>
<g>
</g>
</svg>
