<?xml version="1.0" encoding="iso-8859-1"?>
<!-- Generator: Adobe Illustrator 19.0.0, SVG Export Plug-In . SVG Version: 6.00 Build 0)  -->
<svg xmlns="http://www.w3.org/2000/svg" xmlns:xlink="http://www.w3.org/1999/xlink" version="1.1" id="Layer_1" x="0px" y="0px" viewBox="0 0 512 512" style="enable-background:new 0 0 512 512;" xml:space="preserve">
<polygon style="fill:#7C868E;" points="346.39,459.47 165.613,459.47 182.384,425.928 329.618,425.928 "/>
<polygon style="opacity:0.15;fill:#020202;enable-background:new    ;" points="182.384,425.928 165.613,459.47 183.502,459.47   200.273,425.928 "/>
<polyline style="fill:#995A47;" points="124.024,126.312 100.537,75.948 36.358,105.877 73.243,184.975 151.377,184.975   124.024,126.312 "/>
<path style="fill:#774633;" d="M121.852,214.367c-3.159,0-6.182-1.793-7.606-4.844L72.192,119.34  c-1.958-4.197-0.141-9.187,4.056-11.144c4.197-1.96,9.186-0.142,11.144,4.055l42.054,90.184c1.958,4.197,0.141,9.187-4.056,11.144  C124.243,214.115,123.038,214.367,121.852,214.367z"/>
<polygon style="opacity:0.15;fill:#020202;enable-background:new    ;" points="53.209,98.05 100.55,75.973 100.537,75.948   36.358,105.877 73.243,184.975 93.291,184.975 "/>
<path style="fill:#49D0E2;" d="M498.827,181.546H13.172c-6.545,0-11.987,4.687-13.172,10.887  c4.649,111.154,80.103,203.992,182.434,234.613h147.132C431.897,396.425,507.351,303.586,512,192.433  C510.814,186.233,505.372,181.546,498.827,181.546z"/>
<path style="opacity:0.15;fill:#020202;enable-background:new    ;" d="M17.889,192.433c1.185-6.2,6.628-10.887,13.172-10.887  H13.172c-6.545,0-11.987,4.687-13.172,10.887c4.649,111.154,80.103,203.992,182.434,234.613h17.889  C97.993,396.425,22.538,303.586,17.889,192.433z"/>
<path style="fill:#49D0E2;" d="M384.142,458.352H280.164h-48.327H127.859c-9.261,0-16.771,7.508-16.771,16.771  c0,9.261,7.51,16.771,16.771,16.771h103.978h2.488h25.714h20.126h58.138h25.712h20.128c9.261,0,16.771-7.51,16.771-16.771  C400.913,465.86,393.403,458.352,384.142,458.352z"/>
<path style="opacity:0.15;fill:#020202;enable-background:new    ;" d="M128.977,475.124c0-9.263,7.51-16.771,16.771-16.771h-17.889  c-9.261,0-16.771,7.508-16.771,16.771c0,9.261,7.51,16.771,16.771,16.771h17.889C136.487,491.895,128.977,484.385,128.977,475.124z"/>
<path style="fill:#774633;" d="M109.297,57.338L95.882,28.568c-3.42-7.334-12.139-10.506-19.473-7.086L11.123,51.926  c-7.334,3.419-10.507,12.137-7.086,19.47l13.417,28.77c3.42,7.332,12.138,10.506,19.47,7.086l65.286-30.443  C109.543,73.39,112.716,64.672,109.297,57.338z"/>
<path style="opacity:0.15;fill:#020202;enable-background:new    ;" d="M34.302,92.34L20.886,63.569  c-3.42-7.335-0.247-16.051,7.086-19.47l48.944-22.824c-0.168,0.07-0.341,0.127-0.509,0.206L11.123,51.926  c-7.334,3.419-10.507,12.137-7.086,19.47l13.417,28.77c3.42,7.332,12.138,10.506,19.47,7.086l16.345-7.622  C46.043,102.682,37.645,99.506,34.302,92.34z"/>
<g>
</g>
<g>
</g>
<g>
</g>
<g>
</g>
<g>
</g>
<g>
</g>
<g>
</g>
<g>
</g>
<g>
</g>
<g>
</g>
<g>
</g>
<g>
</g>
<g>
</g>
<g>
</g>
<g>
</g>
</svg>
