<?xml version="1.0" encoding="iso-8859-1"?>
<!-- Generator: Adobe Illustrator 19.0.0, SVG Export Plug-In . SVG Version: 6.00 Build 0)  -->
<svg xmlns="http://www.w3.org/2000/svg" xmlns:xlink="http://www.w3.org/1999/xlink" version="1.1" id="Layer_1" x="0px" y="0px" viewBox="0 0 512 512" style="enable-background:new 0 0 512 512;" xml:space="preserve">
<g>
	<path style="fill:#E6EEFF;" d="M422.957,97.28v2.894H89.043V97.28c0-11.242,3.896-21.704,10.685-30.497   c1.225-1.67,2.449-3.339,4.008-4.897l18.698-18.699v-9.795C122.435,15.026,137.461,0,155.826,0h200.348   c18.365,0,33.391,15.026,33.391,33.391v9.795l18.698,18.699c1.559,1.558,2.783,3.228,4.008,4.897   C419.061,75.576,422.957,86.038,422.957,97.28z"/>
	<path style="fill:#E6EEFF;" d="M422.957,411.826v2.894c0,11.241-3.896,21.704-10.685,30.497c-1.225,1.67-2.449,3.339-4.008,4.897   l-18.698,18.699v9.795c0,18.365-15.026,33.391-33.391,33.391H155.826c-18.365,0-33.391-15.026-33.391-33.391v-9.795l-18.698-18.699   c-1.559-1.558-2.783-3.228-4.008-4.897c-6.79-8.793-10.685-19.256-10.685-30.497v-2.894H422.957z"/>
</g>
<g>
	<path style="fill:#DAE2F2;" d="M422.957,411.826v2.894c0,11.241-3.896,21.704-10.685,30.497c-1.225,1.67-2.449,3.339-4.008,4.897   l-18.698,18.699v9.795c0,18.365-15.026,33.391-33.391,33.391H256V411.826H422.957z"/>
	<path style="fill:#DAE2F2;" d="M422.957,97.28v2.894H256V0h100.174c18.365,0,33.391,15.026,33.391,33.391v9.795l18.698,18.699   c1.559,1.558,2.783,3.228,4.008,4.897C419.061,75.576,422.957,86.038,422.957,97.28z"/>
</g>
<g>
	<path style="fill:#4DA6FF;" d="M417.391,316.544c-1.079,0.919-2.179,1.882-3.268,2.972c-24.742,24.542-51.691,36.993-80.079,36.996   c-0.002,0-0.008,0-0.01,0c-33.183,0-61.036-17.224-74.69-27.492c-4.85-3.674-8.29-6.748-9.96-8.307L246.531,318   c-19.988-18.538-42.478-28.324-65.159-28.324c-22.831,0-44.996,9.482-65.879,28.181l-1.853,1.906   c-2.709,2.552-9.494,8.452-19.033,14.749l-5.565,3.519v76.689c0,11.241,3.896,21.704,10.685,30.497h312.544   c6.79-8.793,10.685-19.256,10.685-30.497V312.511L417.391,316.544z"/>
	<path style="fill:#4DA6FF;" d="M94.609,195.273c9.65-9.033,45.206-39.447,86.261-39.447c31.42,0,58.446,17,71.76,27.134   c4.459,3.397,8.831,7.159,12.837,11.044c19.857,18.485,42.545,28.243,65.733,28.245c23.847,0.001,47.062-10.27,67.134-29.699   c5.891-5.891,12.267-11.166,19.059-15.78l5.565-4.247V97.28c0-11.242-3.896-21.704-10.685-30.497H99.729   c-6.79,8.793-10.685,19.256-10.685,30.497v103.56L94.609,195.273z"/>
</g>
<g>
	<path style="fill:#4596E6;" d="M417.391,316.544c-1.079,0.919-2.179,1.882-3.268,2.972c-24.742,24.542-51.691,36.993-80.079,36.996   c-0.002,0-0.008,0-0.01,0c-33.183,0-61.036-17.224-74.69-27.492c-1.204-0.912-2.321-1.786-3.345-2.611v118.809h156.271   c6.79-8.793,10.685-19.256,10.685-30.497V312.511L417.391,316.544z"/>
	<path style="fill:#4596E6;" d="M262.758,191.425c0.868,0.866,1.822,1.775,2.707,2.578c19.857,18.485,42.545,28.243,65.733,28.245   c23.847,0.001,47.062-10.27,67.134-29.699c5.891-5.891,12.267-11.166,19.059-15.78l5.565-4.247V97.28   c0-11.242-3.896-21.704-10.685-30.497H256v118.82C259.234,188.21,261.542,190.289,262.758,191.425z"/>
</g>
<path style="fill:#FFDE33;" d="M422.957,166.734V319.11c-1.67,1.447-3.339,2.783-4.896,4.341  C349.83,391.123,282.49,353.391,256,333.468c-7.345-5.565-11.576-9.795-11.687-9.906c0,0.003-0.115-0.111-0.111-0.111  c-37.731-36.063-83.478-38.623-124.995-1.447c0,0.334-11.797,11.91-30.163,22.483V192.89c1.113-1.002,42.073-42.63,91.826-42.63  c32.5,0,60.215,16.918,75.13,28.271c7.012,5.343,11.242,9.461,11.687,9.906c0,0,0.111,0,0.111,0.111  c39.512,37.955,88.375,37.064,126.663,0C403.478,179.534,413.05,172.41,422.957,166.734z"/>
<path style="fill:#FFBC33;" d="M422.957,166.734V319.11c-1.67,1.447-3.339,2.783-4.896,4.341  C349.83,391.123,282.49,353.391,256,333.468V178.532c7.012,5.343,11.242,9.461,11.687,9.906c0,0,0.111,0,0.111,0.111  c39.512,37.955,88.375,37.064,126.663,0C403.478,179.534,413.05,172.41,422.957,166.734z"/>
<g>
</g>
<g>
</g>
<g>
</g>
<g>
</g>
<g>
</g>
<g>
</g>
<g>
</g>
<g>
</g>
<g>
</g>
<g>
</g>
<g>
</g>
<g>
</g>
<g>
</g>
<g>
</g>
<g>
</g>
</svg>
