<svg id="Capa_1" enable-background="new 0 0 512 512" height="512" viewBox="0 0 512 512" width="512" xmlns="http://www.w3.org/2000/svg"><g><path d="m211.374 416.25 12.847 50.417-12.847 45.333c-35.94 0-65.18-29.24-65.18-65.18v-15.57c0-8.28 6.72-15 15-15z" fill="#ff7c48"/><path d="m276.554 431.25v15.57c0 35.94-29.24 65.18-65.18 65.18v-95.75h50.18c8.28 0 15 6.72 15 15z" fill="#ff415b"/><path d="m211.374 0 18.68 48-18.68 81.13h-39.59c-3.98.01-7.79-1.57-10.61-4.39-2.81-2.81-4.39-6.63-4.39-10.61v-59.54c0-30.1 24.49-54.59 54.59-54.59z" fill="#ff7c48"/><path d="m265.964 54.59v59.53c0 8.29-6.71 15-15 15l-39.59.01v-129.13c30.1 0 54.59 24.49 54.59 54.59z" fill="#ff415b"/><path d="m167.674 80.25c-3.68 1.05-7.31 2.23-10.89 3.55-28.22 10.34-53.4 28.8-71.78 52.8-21.4 27.94-32.71 61.36-32.71 96.65v109.7c-25.97 2.77-46.25 24.81-46.25 51.5 0 28.56 23.23 51.8 51.8 51.8h153.53l27.295-160.583-27.295-211.497c-14.85 0-29.56 2.05-43.7 6.08z" fill="#ffe14d"/><path d="m370.454 342.95v-109.7c0-35.31-11.32-68.74-32.75-96.69-18.37-23.97-43.54-42.42-71.74-52.76-3.58-1.33-7.22-2.51-10.89-3.56-14.16-4.03-28.87-6.07-43.7-6.07v268.48 30 73.6h153.53c28.57 0 51.8-23.24 51.8-51.8 0-26.69-20.28-48.73-46.25-51.5z" fill="#ffc34d"/><path d="m370.456 18.833 37.316 151.493-37.316 119.507c-74.718 0-135.5-60.783-135.5-135.5s60.782-135.5 135.5-135.5z" fill="#8dc5e8"/><path d="m505.956 154.333c0 74.717-60.783 135.5-135.5 135.5v-271c74.717 0 135.5 60.783 135.5 135.5z" fill="#5e9ff6"/><g><path d="m370.456 132.605 8.529 17.83-8.529 19.891h-.149c-3.924 0-7.847-1.439-10.918-4.297l-25.546-23.84c-6.461-6.024-6.813-16.142-.789-22.603s16.142-6.813 22.603-.789z" fill="#ff7c48"/></g><g><path d="m425.236 126.336-44.225 39.875c-3.007 2.719-6.781 4.083-10.555 4.115v-37.721l.032.032 33.329-30.055c6.557-5.917 16.675-5.384 22.581 1.173 5.917 6.556 5.395 16.674-1.162 22.581z" fill="#ff415b"/></g></g></svg>