<svg id="Capa_1" enable-background="new 0 0 512 512" height="512" viewBox="0 0 512 512" width="512" xmlns="http://www.w3.org/2000/svg"><g><path d="m258.06 223.614c-2.074-19.638-20.845-18.631-20.845-18.631-4.512-.517-7.75-4.596-7.229-9.108l11.107-96.245c.261-1.671 4.012-20.02-10.358-27.239l-9.266 4.523-10.173 35.241-25.714 120.006 5.154 68.173-23.694 29.875 10.817 55.724 13.325 10.798c13.917-8.384 29.341-20.247 43.961-37.773 13.871-16.625 16.136-23.472 27.042-61.714l-.001-.002c3.289-12.436 1.629-19.201-4.126-73.628z" fill="#ffcebe"/><path d="m176.53 335.946c-.782-3.246-.3-6.669 1.351-9.572-.002-.007-.004-.013-.006-.019 16.887-9.596 22.13-28.41 19.038-47.187l-5.264-40.039c-1.488-11.316-.014-20.081 4.778-28.815 4.4-8.02 7.166-16.827 8.582-25.864 5.563-35.498 14.274-91.084 14.828-94.617.556-2.569 3.295-12.291 10.899-17.441-1.508-.758-3.214-1.394-5.146-1.874-18.971-4.07-25.699 15.115-26.742 18.87-.758 3.495-12.675 58.482-20.285 93.599-1.937 8.94-5.209 17.572-10.066 25.323-5.29 8.442-7.269 17.107-6.44 28.49l2.935 40.277c1.999 18.925-4.326 37.404-21.74 46.005.001.007.004.013.005.02l-2.826 4.362 14.938 82.758 5.361 1.528c8.177-3.402 18.787-7.987 30.456-15.017z" fill="#ffb1a0"/><path d="m150.715 360.949-2.989-4.555-36.838 5.293 13.573 69.309 4.002 2.41 26.362-4.406c4.931-.824 8.206-5.558 7.24-10.462z" fill="#ecf4ff"/><path d="m112.535 362.253 29.894-4.14c3.164-.438 6.197.703 8.285 2.836l-7.46-37.849c-.909-4.613-5.261-7.715-9.918-7.07l-27.264 3.775-2.56 4.223 7.86 40.14z" fill="#cbe2ff"/><path d="m128.591 434.056-15.727-79.793-3.513-.703-105.937 16.312-3.414 2.274v77.967c0 5.578 5.012 9.819 10.513 8.895l114.045-19.154c2.743-.445 4.57-3.073 4.033-5.798z" fill="#bd7b62"/><path d="m5.518 371.897 105.301-16.361c.808-.108 1.596-.026 2.334.19l-7.692-39.03c-.502-2.547-2.899-4.265-5.472-3.919l-91.548 14.223c-4.858.755-8.441 4.938-8.441 9.854v37.512c1.541-1.267 3.427-2.145 5.518-2.469z" fill="#ad6a50"/><g><path d="m444.271 140.912h-12.077l-40.944 24.253-18.779 46.178v48.949l27.399 41.56 22.473 12.93 21.929 2.91c39.006-10.482 67.728-46.074 67.728-88.39s-28.722-77.909-67.729-88.39z" fill="#ffd064"/><path d="m376.542 229.302c0-42.316 28.722-77.909 67.729-88.39-7.593-2.04-15.569-3.146-23.807-3.146-50.554 0-91.536 40.982-91.536 91.536s40.982 91.536 91.536 91.536c8.238 0 16.214-1.106 23.807-3.146-39.007-10.482-67.729-46.074-67.729-88.39z" fill="#ffc250"/></g><path d="m401.298 231.827c.103.061.208.12.313.176l4.988 2.654c1.156.616 2.398.907 3.622.907 1.532-.001 3.028-.473 4.301-1.325 1.417 1.703 3.552 2.788 5.94 2.788 4.267 0 7.726-3.459 7.726-7.726v-43.537c7.54 2.765 12.875 9.437 12.875 17.222 0 4.268 3.459 7.726 7.726 7.726s7.726-3.459 7.726-7.726c0-16.267-12.149-29.898-28.328-33.248v-1.779c0-4.267-3.459-7.726-7.726-7.726s-7.726 3.459-7.726 7.726v1.779c-16.179 3.35-28.327 16.981-28.327 33.248.002 11.786 6.315 22.569 16.89 28.841zm11.439-46.063v34.656l-3.697-1.967c-5.75-3.472-9.178-9.241-9.178-15.467.001-7.785 5.336-14.457 12.875-17.222z" fill="#ebb044"/><g><path d="m444.271 227.836h-12.077l-40.944 24.253-18.779 46.178v48.949l27.399 41.56 22.473 12.93 21.929 2.91c39.006-10.481 67.728-46.074 67.728-88.39s-28.722-77.908-67.729-88.39z" fill="#ffe07d"/><path d="m376.542 316.226c0-42.316 28.722-77.909 67.729-88.39-7.593-2.04-15.569-3.146-23.807-3.146-50.554 0-91.536 40.982-91.536 91.536s40.982 91.536 91.536 91.536c8.238 0 16.214-1.106 23.807-3.146-39.007-10.481-67.729-46.074-67.729-88.39z" fill="#ffd064"/></g><path d="m237.869 205.019.384-.034c-.651-.021-1.037-.002-1.037-.002-4.512-.517-7.75-4.596-7.229-9.108l.609-5.28c-8.198 2.358-16.887 9.099-17.341 22.35-.531 15.491-1.939 52.391-1.953 52.763-.163 4.264 3.162 7.853 7.426 8.015.101.004.2.006.3.006 4.131 0 7.557-3.268 7.716-7.432.014-.371 1.424-37.302 1.955-52.823.242-7.057 5.546-8.31 8.596-8.427.191-.002.383-.012.574-.028z" fill="#ffb1a0"/><path d="m441.065 289.91c0 4.268 3.459 7.726 7.726 7.726s7.726-3.459 7.726-7.726c0-16.267-12.149-29.898-28.328-33.248v-1.779c0-4.268-3.459-7.726-7.726-7.726s-7.726 3.459-7.726 7.726v1.779c-16.179 3.35-28.327 16.981-28.327 33.248 0 16.266 12.149 29.897 28.327 33.247v36.607c-7.539-2.765-12.875-9.437-12.875-17.222 0-4.268-3.459-7.726-7.726-7.726s-7.726 3.459-7.726 7.726c0 16.267 12.149 29.898 28.327 33.248v1.778c0 4.268 3.459 7.726 7.726 7.726s7.726-3.459 7.726-7.726v-1.778c16.179-3.35 28.328-16.981 28.328-33.248s-12.149-29.898-28.328-33.248v-36.607c7.541 2.766 12.876 9.438 12.876 17.223zm-41.202 0c0-7.784 5.335-14.457 12.875-17.222v34.442c-7.54-2.764-12.875-9.436-12.875-17.22zm41.202 52.633c0 7.784-5.336 14.457-12.875 17.222v-34.443c7.54 2.764 12.875 9.436 12.875 17.221z" fill="#ebb044"/><g><path d="m477.89 116.35c-3.696-2.133-4.962-6.859-2.828-10.554l16.323-28.272c2.133-3.696 6.859-4.963 10.554-2.828 3.696 2.133 4.962 6.859 2.828 10.554l-16.323 28.272c-2.133 3.696-6.858 4.963-10.554 2.828z" fill="#ffd064"/></g><g><path d="m420.464 100.964c-4.267 0-7.726-3.459-7.726-7.726v-32.647c0-4.267 3.459-7.726 7.726-7.726s7.726 3.459 7.726 7.726v32.646c0 4.267-3.459 7.727-7.726 7.727z" fill="#ffd064"/></g><g><path d="m352.483 113.522-16.323-28.272c-2.134-3.696-.868-8.421 2.828-10.554 3.695-2.134 8.421-.868 10.554 2.828l16.323 28.272c2.134 3.696.868 8.421-2.828 10.554-3.694 2.134-8.42.869-10.554-2.828z" fill="#ffd064"/></g></g></svg>