<svg height="512pt" viewBox="0 0 512 512" width="512pt" xmlns="http://www.w3.org/2000/svg"><path d="m338.21875 493.78125c-28.011719-28.011719-28.863281-55.167969-28.886719-56.511719-.042969-5.867187-4.796875-10.601562-10.664062-10.601562h-85.761719c-5.886719 0-10.667969 4.839843-10.667969 10.730469 0 1.152343-.382812 28.328124-28.4375 56.402343-3.046875 3.050781-3.964843 7.640625-2.300781 11.628907 1.621094 3.96875 5.523438 6.570312 9.832031 6.570312h149.335938c4.308593 0 8.210937-2.601562 9.855469-6.59375 1.640624-3.988281.722656-8.554688-2.304688-11.625zm0 0" fill="#607d8b"/><path d="m474.667969 85.332031h-437.335938c-20.585937 0-37.332031 16.746094-37.332031 37.335938v288c0 20.585937 16.746094 37.332031 37.332031 37.332031h437.335938c20.585937 0 37.332031-16.746094 37.332031-37.332031v-288c0-20.589844-16.746094-37.335938-37.332031-37.335938zm0 0" fill="#607d8b"/><path d="m42.667969 128h426.664062v234.667969h-426.664062zm0 0" fill="#fff"/><path d="m394.667969 138.667969c0 76.582031-62.085938 138.664062-138.667969 138.664062s-138.667969-62.082031-138.667969-138.664062c0-76.585938 62.085938-138.667969 138.667969-138.667969s138.667969 62.082031 138.667969 138.667969zm0 0" fill="#4caf50"/><path d="m303.082031 185.75c-4.160156 4.160156-9.621093 6.25-15.082031 6.25s-10.921875-2.089844-15.082031-6.25l-32-32c-4.011719-3.988281-6.25-9.410156-6.25-15.082031v-53.335938c0-11.796875 9.554687-21.332031 21.332031-21.332031s21.332031 9.535156 21.332031 21.332031v44.503907l25.75 25.75c8.34375 8.339843 8.34375 21.820312 0 30.164062zm0 0" fill="#fff"/></svg>