<svg height="512pt" viewBox="-53 0 511 512" width="512pt" xmlns="http://www.w3.org/2000/svg"><path d="m405.570312 94.410156v402.417969c0 8.375-6.796874 15.171875-15.171874 15.171875h-374.726563c-8.375 0-15.171875-6.796875-15.171875-15.171875v-481.65625c0-8.375 6.796875-15.171875 15.171875-15.171875h295.488281c1.558594 0 3.09375.242188 4.550782.707031 2.304687.71875 4.429687 1.992188 6.179687 3.734375l79.238281 79.238282c1.992188 2 3.367188 4.488281 4.015625 7.179687.28125 1.152344.425781 2.347656.425781 3.550781zm0 0" fill="#d9f5ff"/><path d="m405.144531 90.859375c-.648437-2.691406-2.023437-5.179687-4.015625-7.179687l-79.238281-79.238282c-1.75-1.742187-3.875-3.015625-6.179687-3.734375-1.457032-.464843-2.992188-.707031-4.550782-.707031h-108.125v512h187.363282c8.375 0 15.171874-6.796875 15.171874-15.171875v-402.417969c0-1.203125-.144531-2.398437-.425781-3.550781zm0 0" fill="#87e4f9"/><path d="m405.144531 90.859375-74.3125-.234375c-8.355469-.027344-15.121093-6.804688-15.121093-15.171875v-74.746094c2.304687.71875 4.429687 1.992188 6.179687 3.734375l79.238281 79.238282c1.992188 2 3.367188 4.488281 4.015625 7.179687zm0 0" fill="#18c1e8"/><path d="m203.035156 168.21875h-103.074218c-8.378907 0-15.171876-6.792969-15.171876-15.171875s6.792969-15.171875 15.171876-15.171875h103.074218c8.378906 0 15.171875 6.792969 15.171875 15.171875s-6.792969 15.171875-15.171875 15.171875zm0 0" fill="#87e4f9"/><path d="m203.035156 137.875v30.34375c8.378906 0 15.171875-6.792969 15.171875-15.171875s-6.792969-15.171875-15.171875-15.171875zm0 0" fill="#18c1e8"/><path d="m289.601562 228.90625h-189.640624c-8.378907 0-15.171876-6.792969-15.171876-15.171875s6.792969-15.171875 15.171876-15.171875h189.640624c8.378907 0 15.171876 6.792969 15.171876 15.171875s-6.792969 15.171875-15.171876 15.171875zm0 0" fill="#87e4f9"/><path d="m289.601562 198.5625h-86.566406v30.34375h86.566406c8.378907 0 15.171876-6.792969 15.171876-15.171875s-6.792969-15.171875-15.171876-15.171875zm0 0" fill="#18c1e8"/><path d="m289.601562 288.367188h-189.640624c-8.378907 0-15.171876-6.792969-15.171876-15.171876 0-8.378906 6.792969-15.171874 15.171876-15.171874h189.640624c8.378907 0 15.171876 6.792968 15.171876 15.171874 0 8.378907-6.792969 15.171876-15.171876 15.171876zm0 0" fill="#87e4f9"/><path d="m289.601562 258.023438h-86.566406v30.34375h86.566406c8.378907 0 15.171876-6.792969 15.171876-15.171876 0-8.378906-6.792969-15.171874-15.171876-15.171874zm0 0" fill="#18c1e8"/><path d="m289.601562 355.707031h-189.640624c-8.378907 0-15.171876-6.792969-15.171876-15.171875s6.792969-15.171875 15.171876-15.171875h189.640624c8.378907 0 15.171876 6.792969 15.171876 15.171875s-6.792969 15.171875-15.171876 15.171875zm0 0" fill="#87e4f9"/><path d="m289.601562 325.363281h-86.566406v30.34375h86.566406c8.378907 0 15.171876-6.792969 15.171876-15.171875s-6.792969-15.171875-15.171876-15.171875zm0 0" fill="#18c1e8"/></svg>