<svg id="Capa_1" enable-background="new 0 0 512 512" height="512" viewBox="0 0 512 512" width="512" xmlns="http://www.w3.org/2000/svg"><g><circle cx="366" cy="160" fill="#ffd228" r="15"/><circle cx="401" cy="30" fill="#ffd228" r="15"/><circle cx="146" cy="160" fill="#ffeb3c" r="15"/><circle cx="111" cy="30" fill="#ffeb3c" r="15"/><g><path d="m482.534 42c-25.002 0-46.261 17.877-50.549 42.509l-23.441 134.636c-12.165-2.787-25.448.549-34.924 10.025l-73.796 73.796c-17.942 17.943-27.824 41.8-27.824 67.175v126.859c0 8.284 6.716 15 15 15h130c8.284 0 15-6.716 15-15v-107.218l58.032-58.033c14.166-14.166 21.968-33 21.968-53.034v-207.249c0-16.248-13.219-29.466-29.466-29.466z" fill="#fab98f"/><path d="m447.867 207.956c-9.701-9.7-21.645-15.813-34.177-18.363l-5.147 29.565c6.642 1.517 12.949 4.848 18.112 10.01 14.621 14.621 14.621 38.412 0 53.033l-69.655 69.655c-5.858 5.858-5.858 15.355 0 21.213s15.355 5.858 21.213 0l69.653-69.653c26.319-26.319 26.319-69.141.001-95.46z" fill="#f0aa73"/></g><g><path d="m29.466 42c25.002 0 46.261 17.877 50.549 42.509l23.441 134.636c12.165-2.787 25.448.549 34.924 10.025l73.796 73.796c17.943 17.943 27.825 41.8 27.825 67.175v126.859c0 8.284-6.716 15-15 15h-130.001c-8.284 0-15-6.716-15-15v-107.218l-58.032-58.033c-14.166-14.166-21.968-33-21.968-53.035v-207.248c0-16.248 13.219-29.466 29.466-29.466z" fill="#ffcdaa"/><path d="m64.133 207.956c9.7-9.7 21.645-15.813 34.177-18.363l5.147 29.565c-6.642 1.517-12.949 4.848-18.112 10.01-14.621 14.621-14.621 38.412 0 53.033l69.655 69.655c5.858 5.858 5.858 15.355 0 21.213s-15.355 5.858-21.213 0l-69.653-69.653c-26.319-26.319-26.319-69.141-.001-95.46z" fill="#fab98f"/></g><g><g><g><g><g><path d="m317.802 220.211c-2.387 0-4.783-.569-6.979-1.723l-54.823-28.822-54.823 28.822c-5.053 2.657-11.177 2.214-15.797-1.142-4.619-3.356-6.933-9.043-5.967-14.671l10.47-61.047-44.353-43.232c-4.088-3.985-5.56-9.946-3.796-15.376 1.765-5.43 6.459-9.388 12.109-10.209l61.294-8.906 27.412-55.542c2.527-5.121 7.742-8.363 13.451-8.363 5.71 0 10.924 3.242 13.451 8.362l27.411 55.542 61.295 8.906c5.65.821 10.345 4.779 12.108 10.209 1.765 5.43.293 11.391-3.796 15.376l-44.353 43.233 10.471 61.047c.965 5.627-1.349 11.315-5.968 14.671-2.612 1.899-5.707 2.865-8.817 2.865z" fill="#ffeb3c"/></g></g></g></g><path d="m370.266 83.019c-1.764-5.43-6.458-9.388-12.108-10.209l-61.295-8.906-27.412-55.542c-2.527-5.12-7.741-8.362-13.451-8.362v189.666l54.823 28.822c2.195 1.154 4.592 1.723 6.979 1.723 3.11 0 6.205-.966 8.818-2.865 4.619-3.356 6.933-9.043 5.968-14.671l-10.471-61.047 44.353-43.233c4.089-3.985 5.56-9.946 3.796-15.376z" fill="#ffd228"/></g><g><circle cx="256" cy="250" fill="#ffeb3c" r="15"/><path d="m271 250c0-8.284-6.716-15-15-15v30c8.284 0 15-6.716 15-15z" fill="#ffd228"/></g></g></svg>