<?xml version="1.0" encoding="iso-8859-1"?>
<!-- Generator: Adobe Illustrator 19.0.0, SVG Export Plug-In . SVG Version: 6.00 Build 0)  -->
<svg version="1.1" id="Capa_1" xmlns="http://www.w3.org/2000/svg" xmlns:xlink="http://www.w3.org/1999/xlink" x="0px" y="0px"
	 viewBox="0 0 512 512" style="enable-background:new 0 0 512 512;" xml:space="preserve">
<path style="fill:#ED8A19;" d="M117.074,321.953c12.297-9.407,56.259,20.827,73.841,20.827c0-43.26,16.202-26.034,60.746-26.034
	c14.917,0,31.406-58.923,43.39-52.068c2.248-6.561-4.721-40.786-0.581-46.184c-5.745-56.919-53.803-101.341-112.232-101.341
	c-62.308,0-112.814,50.506-112.814,112.814C69.424,267.967,88.272,301.516,117.074,321.953z"/>
<path style="fill:#E7ECED;" d="M443.765,282.988c1.414-5.814,2.248-11.854,2.248-18.085c0-43.26-36.109-78.327-80.644-78.327
	c-35.632,0-69.97,18.727-80.644,49.846c-11.984-6.856-21.738-7.125-36.656-7.125c-44.535,0-85.695,34.356-85.695,77.616
	c-44.535,0-75.594,35.779-75.594,79.039s36.109,78.319,80.644,78.319h21.99h212.61h14.666c52.641,0,95.31-41.446,95.31-92.568
	C512,329.728,483.207,294.322,443.765,282.988z"/>
<path style="fill:#AFB6BB;" d="M199.585,325.424c-1.31,0-2.629-0.295-3.879-0.911c-11.655-5.84-23.179-8.921-33.332-8.921
	c-4.79,0-8.678-3.879-8.678-8.678s3.888-8.678,8.678-8.678c13.017,0,26.85,3.619,41.099,10.752c4.287,2.152,6.023,7.368,3.87,11.655
	C205.833,323.671,202.769,325.424,199.585,325.424z"/>
<g>
	<path style="fill:#EBBA16;" d="M182.237,91.119c-4.79,0-8.678-3.879-8.678-8.678V56.407c0-4.799,3.888-8.678,8.678-8.678
		s8.678,3.879,8.678,8.678v26.034C190.915,87.24,187.028,91.119,182.237,91.119z"/>
	<path style="fill:#EBBA16;" d="M34.712,238.644H8.678c-4.79,0-8.678-3.879-8.678-8.678c0-4.799,3.888-8.678,8.678-8.678h26.034
		c4.79,0,8.678,3.879,8.678,8.678C43.39,234.765,39.502,238.644,34.712,238.644z"/>
	<path style="fill:#EBBA16;" d="M77.919,134.326c-2.222,0-4.443-0.85-6.135-2.543L54.61,114.61c-3.384-3.393-3.384-8.878,0-12.271
		c3.384-3.393,8.886-3.393,12.271,0l17.174,17.174c3.393,3.393,3.393,8.878,0,12.271C82.363,133.484,80.141,134.326,77.919,134.326z
		"/>
	<path style="fill:#EBBA16;" d="M286.555,134.326c-2.222,0-4.443-0.85-6.135-2.543c-3.393-3.393-3.393-8.878,0-12.271l17.174-17.174
		c3.384-3.393,8.878-3.393,12.271,0c3.393,3.393,3.393,8.878,0,12.271l-17.174,17.174
		C290.998,133.484,288.777,134.326,286.555,134.326z"/>
</g>
<g>
</g>
<g>
</g>
<g>
</g>
<g>
</g>
<g>
</g>
<g>
</g>
<g>
</g>
<g>
</g>
<g>
</g>
<g>
</g>
<g>
</g>
<g>
</g>
<g>
</g>
<g>
</g>
<g>
</g>
</svg>
