<svg id="Capa_1" enable-background="new 0 0 497 497" height="512" viewBox="0 0 497 497" width="512" xmlns="http://www.w3.org/2000/svg"><g><path d="m4.813 445.468c-6.257 6.257-6.257 16.402 0 22.659l24.18 24.18c6.257 6.257 16.402 6.257 22.659 0l40.911-40.911-46.839-46.84z" fill="#6ed5a1"/><path d="m329.125 327.54c87.402-126.794 137.142-222.901 163.84-282.393 7.349-16.376.983-31.984-11.974-39.698-1.613-.961-3.313-2.783-5.082-3.45-7.296-2.752-15.767-2.858-24.176.916-59.492 26.698-155.599 76.438-282.393 163.84-223.796 154.266-148.814 230.359-107.8 271.374 32.974 32.974 111.257 116.197 267.585-110.589z" fill="#ffd54f"/><path d="m475.026 26.208c-20.781 46.306-55.541 114.811-111.138 202.691-10.967 17.334-29.398 28.423-49.808 30.46-73.366 7.319-147.236 50.182-202.046 90.462-12.694 18.993-34.713 54.07-49.473 89.329 33.573 33.612 112.823 112.875 267.565-111.61 87.402-126.794 137.142-222.901 163.84-282.393 7.349-16.376-.017-32.984-12.974-40.698-1.613-.96-3.315-1.778-5.084-2.445 2.764 7.304 2.898 15.78-.882 24.204z" fill="#ffca28"/><path d="m390.278 291.751c-2.026-.388-4.057-1.74-6.092-2.056-100.932-15.649-211.936 57.413-277.14 110.332 60.485-75.259 151.142-212.382 125.849-333.236-3.033-14.491-22.161-17.884-29.929-5.281-17.456 28.324-44.205 69.185-66.388 92.127l-83.302 86.151c-51.905 53.679-58.812 154.572-1.482 211.901 6.733 6.733 14.508 11.56 23.033 16.442 49.171 28.153 122.294 25.809 165.232-17.129l74.406-74.406c19.811-19.811 55.284-43.894 79.893-59.638 10.953-7.008 8.691-22.758-4.08-25.207z" fill="#bbf49b"/><path d="m390.278 290.751c-2.026-.388-4.059-.727-6.094-1.043-.611 3.712-2.692 7.245-6.436 9.64-24.609 15.744-60.081 39.826-79.893 59.638l-74.406 74.406c-47.334 47.334-132.56 46.548-180.484 8.498 2.756 3.384 5.69 6.66 8.828 9.798 45.563 45.564 138.882 49.696 189.265-.687l74.406-74.406c19.811-19.811 55.284-43.894 79.893-59.638 10.954-7.007 7.692-23.757-5.079-26.206z" fill="#9be69d"/><g fill="#ffca28"><path d="m351.938 191.545c-2.929-2.929-2.929-7.678 0-10.607 2.929-2.929 7.678-2.929 10.607 0 2.929 2.929 2.929 7.678 0 10.607-2.93 2.929-7.678 2.929-10.607 0z"/><path d="m271.746 169.045c-2.929-2.929-2.929-7.678 0-10.607 2.929-2.929 7.678-2.929 10.607 0 2.929 2.929 2.929 7.678 0 10.607-2.929 2.929-7.678 2.929-10.607 0z"/><path d="m231.804 266.541c-2.929-2.929-2.929-7.678 0-10.607 2.929-2.929 7.678-2.929 10.606 0 2.929 2.929 2.929 7.678 0 10.607-2.928 2.928-7.677 2.929-10.606 0z"/><path d="m297.166 251.11c-2.929-2.929-2.929-7.678 0-10.607 2.929-2.929 7.678-2.929 10.607 0 2.929 2.929 2.929 7.678 0 10.607-2.929 2.929-7.678 2.929-10.607 0z"/><path d="m344.438 120.165c-2.929-2.929-2.929-7.678 0-10.607 2.929-2.929 7.678-2.929 10.607 0 2.929 2.929 2.929 7.678 0 10.606-2.93 2.93-7.678 2.93-10.607.001z"/><path d="m414.317 99.249c-2.929-2.929-2.929-7.678 0-10.607 2.929-2.929 7.678-2.929 10.607 0 2.929 2.929 2.929 7.678 0 10.606-2.929 2.93-7.678 2.93-10.607.001z"/></g></g></svg>