<?xml version="1.0" encoding="iso-8859-1"?>
<!-- Generator: Adobe Illustrator 19.0.0, SVG Export Plug-In . SVG Version: 6.00 Build 0)  -->
<svg xmlns="http://www.w3.org/2000/svg" xmlns:xlink="http://www.w3.org/1999/xlink" version="1.1" id="Layer_1" x="0px" y="0px" viewBox="0 0 512.004 512.004" style="enable-background:new 0 0 512.004 512.004;" xml:space="preserve">
<ellipse transform="matrix(0.4663 -0.8846 0.8846 0.4663 7.6011 289.6718)" style="fill:#FF8D36;" cx="243.875" cy="138.536" rx="110.524" ry="78.64"/>
<path style="opacity:0.2;enable-background:new    ;" d="M295.415,40.779c-4.593-2.421-9.413-4.155-14.386-5.25  c19.898,27.672,20.163,74.039-2.262,116.578c-25.062,47.542-70.087,74.423-106.717,66.35c5.36,7.454,12.131,13.565,20.284,17.863  c38.419,20.253,92.637-7.103,121.102-61.099C341.903,121.222,333.834,61.031,295.415,40.779z"/>
<ellipse transform="matrix(0.4663 -0.8846 0.8846 0.4663 70.2854 411.6013)" style="fill:#69B551;" cx="376.269" cy="147.55" rx="110.524" ry="78.64"/>
<path style="opacity:0.2;enable-background:new    ;" d="M428.668,50.279c16.14,28.06,14.993,71.114-5.946,110.837  c-28.465,53.997-82.685,81.352-121.103,61.099c-0.292-0.154-0.566-0.332-0.855-0.49c5.8,10.084,13.812,18.25,23.968,23.603  c38.419,20.253,92.638-7.103,121.103-61.099C474.084,130.643,466.336,70.978,428.668,50.279z"/>
<path style="fill:#8FE673;" d="M91.259,141.401c16.252-41.527-18.042-97.856-47.534-80.424S47.042,135.615,91.259,141.401z"/>
<g>
	<path style="fill:#76CC5B;" d="M91.259,141.401C73.387,100.545,9.307,84.965,0.778,118.145S55.901,168.575,91.259,141.401z"/>
	<path style="fill:#76CC5B;" d="M91.259,141.401c-27.174-35.358-9.924-99.01,23.256-90.481S132.115,123.529,91.259,141.401z"/>
</g>
<path style="fill:#599944;" d="M98.524,146.114c0.228-0.351,0.433-0.715,0.606-1.094c0.027-0.058,0.049-0.118,0.074-0.177  c0.18-0.417,0.336-0.845,0.45-1.285l14.343-55.801c1.191-4.636-1.601-9.361-6.237-10.552c-4.636-1.194-9.361,1.601-10.552,6.236  l-9.134,35.536L69.404,87.392c-2.435-4.121-7.751-5.488-11.871-3.052c-4.121,2.435-5.487,7.751-3.052,11.871l18.67,31.588  l-35.536-9.134c-4.636-1.194-9.361,1.601-10.552,6.236c-1.191,4.636,1.601,9.361,6.237,10.552l55.777,14.337c0,0,0.001,0,0.002,0  l0.023,0.006c0.225,0.058,0.452,0.09,0.677,0.129c0.131,0.023,0.258,0.058,0.389,0.074c0.006,0.001,0.013,0.002,0.02,0.003  c0.362,0.045,0.721,0.068,1.078,0.068l0,0l0,0c0.018,0,0.036-0.005,0.054-0.005c0.414-0.002,0.827-0.042,1.241-0.104  c0.139-0.021,0.274-0.054,0.41-0.082c0.291-0.059,0.58-0.131,0.867-0.221c0.148-0.046,0.294-0.096,0.439-0.15  c0.266-0.099,0.527-0.216,0.786-0.343c0.142-0.069,0.284-0.135,0.422-0.213c0.06-0.034,0.123-0.057,0.183-0.092  c0.288-0.17,0.558-0.357,0.818-0.554c0.014-0.01,0.029-0.017,0.043-0.028c0.031-0.024,0.057-0.054,0.087-0.079  c0.312-0.245,0.602-0.507,0.873-0.787c0.039-0.04,0.081-0.077,0.119-0.12c0.285-0.306,0.541-0.633,0.775-0.973  C98.432,146.255,98.478,146.185,98.524,146.114z"/>
<circle style="fill:#FF704D;" cx="118.582" cy="186.786" r="71.223"/>
<path style="opacity:0.2;enable-background:new    ;" d="M118.581,115.572c-5.981,0-11.784,0.747-17.335,2.136  c30.954,7.743,53.885,35.731,53.885,69.084s-22.93,61.341-53.885,69.084c5.551,1.388,11.354,2.136,17.335,2.136  c39.334,0,71.22-31.886,71.22-71.22C189.8,147.459,157.913,115.572,118.581,115.572z"/>
<ellipse style="fill:#FFC552;" cx="179.323" cy="230.389" rx="82.687" ry="81.439"/>
<path style="opacity:0.2;enable-background:new    ;" d="M187.841,149.377c23.696,14.322,39.506,40.07,39.506,69.461  c0,44.982-37.021,81.446-82.689,81.446c-2.875,0-5.715-0.146-8.515-0.428c12.57,7.597,27.355,11.984,43.184,11.984  c45.668,0,82.689-36.464,82.689-81.446C262.017,188.245,229.508,153.576,187.841,149.377z"/>
<ellipse style="fill:#5B83CC;" cx="276.687" cy="214.568" rx="85.391" ry="84.109"/>
<path style="opacity:0.2;enable-background:new    ;" d="M305.712,135.449c13.49,14.873,21.701,34.49,21.701,56.003  c0,46.452-38.231,84.107-85.392,84.107c-10.191,0-19.96-1.766-29.021-4.99c15.637,17.24,38.372,28.103,63.69,28.103  c47.161,0,85.392-37.656,85.392-84.107C362.084,178.152,338.586,147.15,305.712,135.449z"/>
<path style="fill:#8FE673;" d="M495.575,224.534c0-17.315-14.037-31.352-31.352-31.352c-5.744,0-11.121,1.552-15.749,4.247  c-4.167-12.423-15.895-21.378-29.722-21.378c-5.744,0-11.121,1.551-15.75,4.247c-4.167-12.423-15.895-21.378-29.722-21.378  s-25.555,8.955-29.722,21.378c-4.63-2.696-10.007-4.247-15.75-4.247c-13.826,0-25.555,8.955-29.722,21.378  c-4.63-2.696-10.007-4.247-15.749-4.247c-17.315,0-31.352,14.037-31.352,31.352v47.115h244.59v-47.115H495.575z"/>
<g style="opacity:0.2;">
	<path d="M464.224,193.182c-4.079,0-7.967,0.795-11.54,2.215c11.585,4.605,19.779,15.911,19.779,29.136v47.115h23.113v-47.115   C495.575,207.219,481.538,193.182,464.224,193.182z"/>
</g>
<polygon style="fill:#F2AE5D;" points="262.017,260.091 38.064,291.941 38.064,477.918 486.568,477.918 486.568,291.941 "/>
<polygon style="opacity:0.2;enable-background:new    ;" points="38.064,291.941 38.064,326.409 486.568,326.409 486.568,291.941   262.017,260.091 "/>
<rect x="12.033" y="228.447" style="fill:#F2AE5D;" width="499.971" height="63.295"/>
<g>
</g>
<g>
</g>
<g>
</g>
<g>
</g>
<g>
</g>
<g>
</g>
<g>
</g>
<g>
</g>
<g>
</g>
<g>
</g>
<g>
</g>
<g>
</g>
<g>
</g>
<g>
</g>
<g>
</g>
</svg>
