<?xml version="1.0" encoding="iso-8859-1"?>
<!-- Generator: Adobe Illustrator 19.0.0, SVG Export Plug-In . SVG Version: 6.00 Build 0)  -->
<svg version="1.1" id="Capa_1" xmlns="http://www.w3.org/2000/svg" xmlns:xlink="http://www.w3.org/1999/xlink" x="0px" y="0px"
	 viewBox="0 0 512 512" style="enable-background:new 0 0 512 512;" xml:space="preserve">
<path style="fill:#F3F3F3;" d="M477.152,221.152c-122.144-122.144-320.176-122.144-442.304,0L0,256l34.848,34.848
	c122.144,122.144,320.176,122.144,442.304,0L512,256L477.152,221.152z"/>
<g style="opacity:0.5;">
	<path style="fill:#FFFFFF;" d="M78.624,300.896l48.032,36.8c6,4.592,14.592,3.472,19.2-2.544c4.608-6,3.456-14.592-2.544-19.2
		l-48.032-36.8c-6-4.592-14.592-3.472-19.2,2.544C71.488,287.712,72.624,296.304,78.624,300.896z"/>
</g>
<g style="opacity:0.5;">
	<path style="fill:#FFFFFF;" d="M49.952,278.928l1.36,1.04c6,4.592,14.592,3.472,19.2-2.544s3.456-14.592-2.544-19.2l-1.36-1.04
		c-6-4.592-14.592-3.472-19.2,2.544C42.816,265.744,43.952,274.336,49.952,278.928z"/>
</g>
<g>
	<path style="fill:#E8E8E8;" d="M446.736,217.312L399.424,179.6c-5.92-4.72-14.528-3.744-19.248,2.176s-3.744,14.528,2.176,19.248
		l47.312,37.712c5.92,4.72,14.528,3.744,19.248-2.176C453.632,230.64,452.64,222.032,446.736,217.312z"/>
	<path style="fill:#E8E8E8;" d="M474.976,239.824l-1.344-1.072c-5.92-4.72-14.528-3.744-19.248,2.176s-3.744,14.528,2.176,19.248
		l1.344,1.072c5.92,4.72,14.528,3.744,19.248-2.176C481.872,253.152,480.896,244.544,474.976,239.824z"/>
</g>
<circle style="fill:#FDBC4B;" cx="256" cy="256" r="95.28"/>
<circle style="fill:#EC9922;" cx="256" cy="256" r="68.864"/>
<g style="opacity:0.25;">
	<path style="fill:#FFFFFF;" d="M220.32,337.376c-1.008,0-2.016-0.224-2.992-0.688c-30.848-14.8-50.784-46.48-50.784-80.688
		c0-49.312,40.128-89.44,89.456-89.44c22.048,0,43.232,8.096,59.648,22.784c2.848,2.544,3.088,6.928,0.544,9.776
		s-6.928,3.088-9.776,0.544C292.544,187.248,274.64,180.4,256,180.4c-41.696,0-75.616,33.92-75.616,75.6
		c0,28.912,16.848,55.696,42.944,68.208c3.44,1.648,4.896,5.792,3.248,9.232C225.376,335.92,222.912,337.376,220.32,337.376z"/>
</g>
<path style="fill:#E48D25;" d="M187.136,256c0,28.976,17.92,53.728,43.264,63.888h6.784c5.28,0,9.568-4.288,9.568-9.568
	s-4.288-9.568-9.568-9.568h-12.8c-4.416,0-8.032-3.616-8-8.048v-0.096c0-0.192,0-0.384-0.016-0.592
	c-0.272-4.368,3.2-8.032,7.568-8.032h16.944c5.184,0,9.824-3.872,10.096-9.056c0.288-5.52-4.096-10.08-9.552-10.08h-5.248
	c-4.448,0-8.048-3.616-8.016-8.064v-0.56v-0.112c-0.032-4.672,3.776-8.512,8.448-8.512h6.768c5.184,0,9.824-3.872,10.096-9.056
	c0.288-5.52-4.096-10.08-9.552-10.08h-24.448c-4.624,0-8.064-3.888-8.016-8.512c0-0.032,0-0.08,0-0.112s0-0.08,0-0.112
	c-0.048-4.624,3.392-8.512,8.016-8.512h7.904c5.184,0,9.824-3.872,10.096-9.056c0.256-4.848-3.104-8.96-7.632-9.888
	C204.8,202.608,187.136,227.232,187.136,256z"/>
<path style="fill:#FFFFFF;" d="M251.696,287.088V261.28c-8.048-2.304-13.952-5.776-17.712-10.432
	c-3.76-4.656-5.632-10.32-5.632-16.96c0-6.736,2.128-12.384,6.368-16.96c4.256-4.576,9.904-7.216,16.96-7.92v-6.096h8.928v6.096
	c6.528,0.784,11.728,3.008,15.584,6.688c3.856,3.68,6.32,8.592,7.392,14.752L268,232.48c-0.944-4.848-3.408-8.128-7.392-9.856v24.08
	c9.856,2.672,16.56,6.128,20.144,10.384c3.568,4.256,5.36,9.696,5.36,16.352c0,7.424-2.24,13.696-6.736,18.784
	c-4.496,5.088-10.752,8.208-18.752,9.36v7.536h-8.928v-7.216c-7.104-0.864-12.864-3.504-17.312-7.952s-7.264-10.688-8.496-18.784
	l16.08-1.728c0.656,3.28,1.888,6.112,3.696,8.496C247.456,284.304,249.472,286.032,251.696,287.088z M251.696,222.432
	c-2.416,0.816-4.352,2.224-5.792,4.192s-2.16,4.144-2.16,6.528c0,2.176,0.656,4.192,1.968,6.064s3.312,3.376,5.968,4.528v-21.312
	H251.696z M260.624,287.952c3.072-0.576,5.584-2,7.52-4.288c1.936-2.272,2.896-4.96,2.896-8.032c0-2.752-0.816-5.12-2.432-7.12
	s-4.288-3.52-7.968-4.592v24.032H260.624z"/>
<g>
</g>
<g>
</g>
<g>
</g>
<g>
</g>
<g>
</g>
<g>
</g>
<g>
</g>
<g>
</g>
<g>
</g>
<g>
</g>
<g>
</g>
<g>
</g>
<g>
</g>
<g>
</g>
<g>
</g>
</svg>
