<svg id="Capa_1" enable-background="new 0 0 512 512" height="512" viewBox="0 0 512 512" width="512" xmlns="http://www.w3.org/2000/svg"><g><g><g><g><path d="m256 512c-.961 0-1.923-.092-2.871-.277-59.588-11.62-113.664-43.824-152.267-90.681-38.602-46.858-59.862-106.098-59.862-166.809v-149.233c0-8.284 6.716-15 15-15 41.355 0 75-33.645 75-75 0-8.284 6.716-15 15-15h220c8.284 0 15 6.716 15 15 0 41.355 33.645 75 75 75 8.284 0 15 6.716 15 15v149.233c0 60.71-21.26 119.951-59.862 166.808-38.603 46.857-92.679 79.062-152.267 90.681-.948.186-1.91.278-2.871.278z" fill="#ffeb3c"/></g></g></g><g><path d="m411.138 421.042c38.602-46.858 59.862-106.098 59.862-166.809v-149.233c0-8.284-6.716-15-15-15-41.355 0-75-33.645-75-75 0-8.284-6.716-15-15-15h-110v512c.961 0 1.923-.092 2.871-.277 59.588-11.62 113.664-43.825 152.267-90.681z" fill="#ffd228"/></g><g><path d="m256 450.49c-1.276 0-2.552-.163-3.797-.488-40.893-10.699-78.193-34.533-105.032-67.111-29.774-36.141-46.171-81.832-46.171-128.658v-101.758c0-5.957 3.524-11.349 8.98-13.739 31.279-13.703 56.052-38.476 69.755-69.754 2.391-5.456 7.782-8.981 13.739-8.981h125.051c5.957 0 11.349 3.525 13.739 8.981 13.703 31.279 38.476 56.051 69.755 69.754 5.456 2.39 8.98 7.783 8.98 13.739v101.759c0 46.825-16.397 92.517-46.171 128.657-26.839 32.578-64.14 56.412-105.032 67.111-1.244.325-2.52.488-3.796.488z" fill="#ff6ea0"/></g><path d="m402.02 138.735c-31.279-13.703-56.052-38.476-69.755-69.754-2.391-5.456-7.783-8.981-13.74-8.981h-62.525v390.49c1.276 0 2.552-.163 3.797-.488 40.893-10.699 78.193-34.533 105.032-67.111 29.774-36.141 46.171-81.832 46.171-128.658v-101.758c0-5.957-3.524-11.35-8.98-13.74z" fill="#ff4182"/><g><g><path d="m304.736 336c-2.387 0-4.783-.569-6.979-1.723l-41.757-21.953-41.758 21.953c-5.056 2.658-11.179 2.214-15.797-1.142-4.62-3.356-6.933-9.043-5.968-14.671l7.976-46.498-33.782-32.93c-4.089-3.985-5.561-9.946-3.796-15.376s6.458-9.388 12.108-10.209l46.687-6.784 20.879-42.306c2.527-5.12 7.741-8.361 13.451-8.361s10.924 3.241 13.451 8.361l20.879 42.306 46.687 6.784c5.65.821 10.344 4.779 12.108 10.209s.293 11.391-3.796 15.376l-33.782 32.93 7.976 46.498c.965 5.627-1.348 11.315-5.968 14.671-2.614 1.899-5.708 2.865-8.819 2.865z" fill="#ffeb3c"/></g></g><path d="m297.758 334.277c2.195 1.154 4.592 1.723 6.979 1.723 3.11 0 6.205-.966 8.818-2.865 4.62-3.356 6.933-9.043 5.968-14.671l-7.976-46.498 33.782-32.93c4.089-3.985 5.561-9.946 3.796-15.376s-6.458-9.388-12.108-10.209l-46.687-6.784-20.879-42.306c-2.527-5.12-7.741-8.361-13.451-8.361v156.324z" fill="#ffd228"/></g></svg>