<svg id="Capa_1" enable-background="new 0 0 512 512" height="512" viewBox="0 0 512 512" width="512" xmlns="http://www.w3.org/2000/svg"><g><g><path d="m65.988 168.1h4.95v-58.375c0-60.599 49.125-109.725 109.725-109.725 53.421 0 97.905 38.185 107.698 88.745 13.589-13.439 32.267-21.743 52.889-21.743 41.547 0 75.227 33.68 75.227 75.227 0 9.09-1.612 17.804-4.567 25.871h34.101c36.444 0 65.988 29.544 65.988 65.988 0 36.444-29.544 65.988-65.988 65.988h-380.023c-36.444 0-65.988-29.543-65.988-65.988 0-36.444 29.544-65.988 65.988-65.988z" fill="#f9f2f2"/><path d="m446.012 168.1h-34.102c2.955-8.067 4.567-16.781 4.567-25.871 0-41.547-33.68-75.227-75.227-75.227-20.622 0-39.3 8.304-52.889 21.743-4.443-22.938-16.042-43.311-32.361-58.744v270.076h190.012c36.444 0 65.988-29.544 65.988-65.988 0-36.445-29.544-65.989-65.988-65.989z" fill="#e7e2ee"/></g><g><g><g><circle cx="256" cy="335.875" fill="#e1b633" r="176.125"/><path d="m256 159.749c-.005 0-.01 0-.016 0v352.251h.016c97.271 0 176.125-78.854 176.125-176.125 0-97.272-78.854-176.126-176.125-176.126z" fill="#d57d2c"/></g><g><circle cx="256" cy="335.875" fill="#e9d049" r="146.126"/><path d="m256 189.749c-.005 0-.01 0-.016 0v292.251h.016c80.574 0 146.125-65.552 146.125-146.125 0-80.574-65.551-146.126-146.125-146.126z" fill="#e1b633"/></g></g><g><path d="m279.63 319.775c-3.226-.995-6.516-2.029-9.807-3.101v-47.384c8.515 2.133 13.497 5.838 13.859 6.114l-.148-.117 3.96 2.871c6.518 5.111 15.948 3.97 21.059-2.549 5.111-6.52 3.97-15.948-2.55-21.06-1.174-.92-3.662-2.635-3.662-2.635-.737-.593-12.808-10.068-32.518-13.14v-7.855c0-8.284-6.716-15-15-15s-15 6.716-15 15v8.801c-1.36.29-2.732.607-4.125.974-20.462 5.378-35.324 21.129-38.786 41.107-2.979 17.194 3.613 33.652 17.203 42.951 6.631 4.538 14.757 8.702 25.708 13.051v62.316c-9.141-.793-15.945-3.068-26.638-9.169-7.194-4.105-16.356-1.603-20.462 5.593-4.106 7.195-1.602 16.356 5.593 20.463 16.237 9.265 27.505 12.298 41.507 13.179v8.98c0 8.284 6.716 15 15 15s15-6.716 15-15v-10.177c29.409-5.92 47.581-28.423 50.859-50.619 2.994-20.266-5.961-47.772-41.052-58.594zm-48.573-19.781c-5.527-3.782-5.048-10.401-4.585-13.071.992-5.723 5.033-12.57 13.352-16.029v34.13c-3.262-1.622-6.235-3.297-8.767-5.03zm59.948 73.991c-1.422 9.623-8.88 19.362-21.182 23.892v-49.734c.323.1.64.199.966.3 14.581 4.497 21.949 13.806 20.216 25.542z" fill="#e1b633"/><path d="m279.63 319.775c-3.226-.995-6.516-2.029-9.807-3.101v-47.384c8.515 2.133 13.497 5.838 13.859 6.114l-.148-.117 3.96 2.871c6.518 5.111 15.948 3.97 21.059-2.549 5.111-6.52 3.97-15.948-2.55-21.06-1.174-.92-3.662-2.635-3.662-2.635-.737-.593-12.808-10.068-32.518-13.14v-7.855c0-7.892-6.099-14.347-13.839-14.941v238.129c7.74-.594 13.839-7.049 13.839-14.941v-10.177c29.409-5.92 47.581-28.423 50.859-50.619 2.994-20.267-5.961-47.773-41.052-58.595zm11.375 54.21c-1.422 9.623-8.88 19.362-21.182 23.892v-49.734c.323.1.64.199.966.3 14.581 4.497 21.949 13.806 20.216 25.542z" fill="#d57d2c"/></g></g></g></svg>