<?xml version="1.0" encoding="iso-8859-1"?>
<!-- Generator: Adobe Illustrator 19.0.0, SVG Export Plug-In . SVG Version: 6.00 Build 0)  -->
<svg version="1.1" id="Capa_1" xmlns="http://www.w3.org/2000/svg" xmlns:xlink="http://www.w3.org/1999/xlink" x="0px" y="0px"
	 viewBox="0 0 512 512" style="enable-background:new 0 0 512 512;" xml:space="preserve">
<path style="fill:#FF9F22;" d="M506.396,253.901C477,239.667,372.384,188.848,289.14,194.189l20.016,289.092h90.54l3.254-1.692
	c66.229-34.45,108.007-102.341,109.031-177.177C512.216,287.166,510.311,270.231,506.396,253.901z"/>
<path style="fill:#FFCD00;" d="M309.155,194.189c-85.35,5.476-176.155,57.478-201.377,83.026c-0.96,8.028-1.466,16.156-1.466,24.362
	c0,75.932,41.875,144.906,109.282,180.008l3.257,1.696h90.306L309.155,194.189L309.155,194.189z"/>
<path style="fill:#BEEBFA;" d="M506.396,253.901c-8.463-35.302-26.339-67.766-52.427-94.359
	c-14.094-14.367-21.429-33.272-20.654-53.233c0.762-19.632,9.337-37.559,24.139-50.473l31.112-27.116h-179.41L289.14,147.667
	l20.016,119.143c16.137,5.452,33.302,10.553,65.423,10.553C441.448,277.363,443.511,255.26,506.396,253.901z"/>
<path style="fill:#E1F4FA;" d="M110.927,28.72C49.762,28.72,0,78.481,0,139.646c0,61.166,49.762,110.928,110.927,110.928h1.838
	c-2.249,8.715-3.908,17.613-4.988,26.64c59.977-1.983,63.03-23.381,128.821-23.381c36.869,0,54.035,6.72,72.557,12.977V28.72
	H110.927z M164.698,159.179c-17.776,18.032-31.777,38.825-41.61,61.396h-12.161C66.304,220.574,30,184.271,30,139.646
	c0-44.623,36.304-80.927,80.927-80.927h53.097C177.089,71.311,184.613,88.1,185.3,106.38
	C186.045,126.197,178.729,144.948,164.698,159.179z"/>
<g>
</g>
<g>
</g>
<g>
</g>
<g>
</g>
<g>
</g>
<g>
</g>
<g>
</g>
<g>
</g>
<g>
</g>
<g>
</g>
<g>
</g>
<g>
</g>
<g>
</g>
<g>
</g>
<g>
</g>
</svg>
