<svg id="Capa_1" enable-background="new 0 0 512 512" height="512" viewBox="0 0 512 512" width="512" xmlns="http://www.w3.org/2000/svg"><g><g><path d="m354.237 195.347c.612-4.015.848-8.154.67-12.379-1.373-32.577-27.768-59.083-60.34-60.581-36.372-1.673-66.385 27.32-66.385 63.323 0 3.322.256 6.585.748 9.77 3.553 22.967-3.055 46.244-18.574 63.544-13.276 14.799-21.169 33.329-21.169 53.44 0 48.468 45.84 87.759 102.386 87.759s102.386-39.291 102.386-87.759c0-20.033-7.832-38.497-21.014-53.267-15.549-17.424-22.23-40.764-18.708-63.85z" fill="#b3e59f"/></g><g><path d="m372.945 259.196c-15.55-17.423-22.23-40.763-18.709-63.849.612-4.015.848-8.154.67-12.379-1.373-32.577-27.769-59.083-60.34-60.581-8.681-.399-16.992.965-24.627 3.738 23.513 8.577 40.664 30.757 41.764 56.843.178 4.225-.058 8.364-.67 12.379-3.521 23.085 3.159 46.426 18.709 63.849 13.182 14.77 21.014 33.234 21.014 53.267 0 42.115-34.613 77.295-80.784 85.796 6.965 1.282 14.19 1.963 21.602 1.963 56.546 0 102.386-39.291 102.386-87.759-.001-20.033-7.833-38.497-21.015-53.267z" fill="#95d6a4"/></g><g><g><path d="m160.832 217.32c-13.359 0-25.749 4.121-35.992 11.148-2.025 1.389-4.666 1.389-6.691 0-10.242-7.027-22.632-11.148-35.992-11.148-35.203 0-63.741 28.538-63.741 63.741s28.538 119.161 63.741 119.161c13.359 0 25.75-4.121 35.992-11.148 2.025-1.389 4.666-1.389 6.691 0 10.242 7.027 22.632 11.148 35.992 11.148 35.203 0 63.741-83.958 63.741-119.161s-28.538-63.741-63.741-63.741z" fill="#dd636e"/></g><g><g><path d="m160.832 217.32c-7.553 0-14.795 1.319-21.515 3.734 24.612 8.828 42.22 32.358 42.22 60.007 0 29.578-20.147 93.565-47.466 113.263 8.137 3.777 17.198 5.898 26.76 5.898 35.203 0 63.741-83.958 63.741-119.161s-28.537-63.741-63.74-63.741z" fill="#da4a54"/></g></g><g><path d="m71.915 178.235c24.563 10.904 40.023 33.527 47.08 46.099 2.583 4.601.016 10.383-5.129 11.553-14.058 3.199-41.207 6.906-65.77-3.998s-40.023-33.527-47.08-46.099c-2.583-4.601-.016-10.383 5.129-11.553 14.058-3.199 41.208-6.906 65.77 3.998z" fill="#b3e59f"/></g><g><path d="m1.016 185.79c2.169 3.865 5.136 8.68 8.914 13.812 14.933-2.235 36.22-2.86 55.86 5.859 17.012 7.552 29.655 20.725 38.166 32.287 3.743-.56 7.093-1.22 9.91-1.861 5.145-1.171 7.712-6.952 5.129-11.553-7.057-12.572-22.517-35.195-47.08-46.099s-51.712-7.197-65.77-3.998c-5.145 1.17-7.711 6.952-5.129 11.553z" fill="#95d6a4"/></g><g><g><path d="m112.658 410.871c-1.273 0-2.562-.324-3.744-1.006-3.588-2.072-4.817-6.659-2.745-10.246l8.831-15.294c1.34-2.321 3.816-3.75 6.496-3.75 2.68 0 5.156 1.43 6.496 3.75l8.83 15.294c2.072 3.588.842 8.175-2.745 10.246-3.588 2.072-8.175.843-10.246-2.745l-2.334-4.043-2.335 4.043c-1.391 2.405-3.912 3.75-6.504 3.751z" fill="#9d6b6b"/></g></g><g><path d="m121.495 244.32c-4.143 0-7.501-3.358-7.501-7.501v-38.52c0-4.143 3.358-7.501 7.501-7.501s7.501 3.358 7.501 7.501v38.52c0 4.143-3.358 7.501-7.501 7.501z" fill="#9d6b6b"/></g></g><g><path d="m190.176 350.357c-2.267 0-4.507-1.024-5.983-2.97-20.254-26.717-25.01-70.209-25.203-72.048-.432-4.12 2.558-7.81 6.678-8.241 4.116-.429 7.807 2.556 8.241 6.675.043.409 4.537 41.202 22.238 64.552 2.503 3.301 1.855 8.006-1.446 10.508-1.354 1.028-2.946 1.524-4.525 1.524z" fill="#ffd064"/></g><g><ellipse cx="280.553" cy="389.769" fill="#f9efda" rx="25.456" ry="15.182"/></g><g><path d="m299.393 379.56c-.793 7.959-11.862 14.268-25.406 14.268-7.467 0-14.184-1.918-18.84-4.972-.03.303-.05.607-.05.914 0 8.385 11.397 15.182 25.456 15.182s25.456-6.797 25.456-15.182c-.001-3.932-2.506-7.514-6.616-10.21z" fill="#f4ddb1"/></g><g><path d="m291.573 136.569c-4.143 0-7.501-3.358-7.501-7.501v-18.882c0-13.492 5.914-26.222 16.224-34.924l12.076-10.19c3.166-2.672 7.899-2.271 10.569.895 2.672 3.166 2.272 7.898-.895 10.569l-12.074 10.19c-6.927 5.846-10.899 14.397-10.899 23.46v18.882c.001 4.143-3.357 7.501-7.5 7.501z" fill="#9d6b6b"/></g><path d="m479.519 334.637s-5.946-.421-8.978.806c-37.783 15.294-81.517 24.044-128.145 24.044-60.735 0-116.58-14.827-160.734-39.647-3.902-2.193-8.733.524-8.922 4.997-.05 1.186-.075 2.377-.075 3.572 0 66.433 75.991 120.288 169.731 120.288 76.532 0 141.216-35.901 162.388-85.233 1.17-2.726.106-8.297.106-8.297z" fill="#ffd064"/><path d="m483.711 335.114c-22.008 48.344-86.002 83.319-161.54 83.319-59.325 0-111.531-21.575-141.876-54.252 21.491 48.964 85.937 84.516 162.099 84.516 76.532 0 141.216-35.901 162.388-85.233 1.17-2.726.106-8.297.106-8.297z" fill="#ffc250"/><g><path d="m502.529 323.194c-1.363-1.086-3.232-1.247-4.77-.428-8.663 4.615-17.766 8.834-27.224 12.662l34.249 28.035c4.156-9.683 6.647-19.88 7.21-30.429.074-1.395-.557-2.74-1.649-3.611z" fill="#9d6b6b"/></g><g><path d="m510.345 329.424-7.816-6.23c-1.363-1.086-3.232-1.247-4.77-.428-3.683 1.962-7.461 3.837-11.296 5.656-1.82 4.975-4.074 9.826-6.739 14.528l25.06 20.514c4.156-9.683 6.647-19.88 7.21-30.429.075-1.395-.557-2.74-1.649-3.611z" fill="#8b5e5e"/></g></g></svg>