<svg height="512" viewBox="0 0 48 48" width="512" xmlns="http://www.w3.org/2000/svg"><g id="ID_Card" data-name="ID Card"><rect fill="#dad7e5" height="30" rx="2" width="46" x="1" y="15"/><path d="m47 17v26h-40a4 4 0 0 1 -4-4v-24h42a2 2 0 0 1 2 2z" fill="#edebf2"/><rect fill="#7c7d7d" height="4" rx="1" width="18" x="15" y="13"/><path d="m33 14v1h-15a1 1 0 0 1 -1-1v-1h15a1 1 0 0 1 1 1z" fill="#919191"/><path d="m28 7v6h-8v-6a4 4 0 0 1 8 0z" fill="#7c7d7d"/><path d="m28 7v4c-4.38 0-7-4.59-5.64-7.64a4 4 0 0 1 5.64 3.64z" fill="#919191"/><path d="m24 8a1 1 0 1 1 1-1 1 1 0 0 1 -1 1z" fill="#edebf2"/><path d="m6 22h14v18h-14z" fill="#db5669"/><path d="m20 22c0 16.82-.1 16 0 16a12 12 0 0 1 -12-12v-4z" fill="#f26674"/><g fill="#c6c3d8"><path d="m42 40h-17a1 1 0 0 1 0-2h17a1 1 0 0 1 0 2z"/><path d="m42 36h-17a1 1 0 0 1 0-2h17a1 1 0 0 1 0 2z"/><path d="m42 32h-17a1 1 0 0 1 0-2h17a1 1 0 0 1 0 2z"/><path d="m42 28h-17a1 1 0 0 1 0-2h17a1 1 0 0 1 0 2z"/><path d="m34 24h-9a1 1 0 0 1 0-2h9a1 1 0 0 1 0 2z"/></g></g></svg>