<?xml version="1.0" encoding="iso-8859-1"?>
<!-- Generator: Adobe Illustrator 19.0.0, SVG Export Plug-In . SVG Version: 6.00 Build 0)  -->
<svg version="1.1" id="Capa_1" xmlns="http://www.w3.org/2000/svg" xmlns:xlink="http://www.w3.org/1999/xlink" x="0px" y="0px"
	 viewBox="0 0 490.667 490.667" style="enable-background:new 0 0 490.667 490.667;" xml:space="preserve">
<path style="fill:#2E7D32;" d="M138.667,64H480c5.891,0,10.667,4.776,10.667,10.667V288c0,5.891-4.776,10.667-10.667,10.667H138.667
	c-5.891,0-10.667-4.776-10.667-10.667V74.667C128,68.776,132.776,64,138.667,64z"/>
<path style="fill:#388E3C;" d="M96,106.667h341.333c5.891,0,10.667,4.776,10.667,10.667v213.333c0,5.891-4.776,10.667-10.667,10.667
	H96c-5.891,0-10.667-4.776-10.667-10.667V117.333C85.333,111.442,90.109,106.667,96,106.667z"/>
<path style="fill:#43A047;" d="M53.333,149.333h341.333c5.891,0,10.667,4.776,10.667,10.667v213.333
	c0,5.891-4.776,10.667-10.667,10.667H53.333c-5.891,0-10.667-4.776-10.667-10.667V160C42.667,154.109,47.442,149.333,53.333,149.333
	z"/>
<path style="fill:#4CAF50;" d="M10.667,192H352c5.891,0,10.667,4.776,10.667,10.667V416c0,5.891-4.776,10.667-10.667,10.667H10.667
	C4.776,426.667,0,421.891,0,416V202.667C0,196.776,4.776,192,10.667,192z"/>
<g>
	<path style="fill:#4DB6AC;" d="M288,384h-21.333c-5.891,0-10.667-4.776-10.667-10.667s4.776-10.667,10.667-10.667h12.501
		c3.23-9.11,10.392-16.28,19.499-19.52V275.52c-9.106-3.24-16.269-10.41-19.499-19.52h-12.501c-5.891,0-10.667-4.776-10.667-10.667
		c0-5.891,4.776-10.667,10.667-10.667H288c5.891,0,10.667,4.776,10.667,10.667c0,5.891,4.776,10.667,10.667,10.667
		S320,260.776,320,266.667V352c0,5.891-4.776,10.667-10.667,10.667s-10.667,4.776-10.667,10.667S293.891,384,288,384z"/>
	<path style="fill:#4DB6AC;" d="M96,384H74.667C68.776,384,64,379.224,64,373.333s-4.776-10.667-10.667-10.667
		S42.667,357.891,42.667,352v-85.333c0-5.891,4.776-10.667,10.667-10.667S64,251.224,64,245.333c0-5.891,4.776-10.667,10.667-10.667
		H96c5.891,0,10.667,4.776,10.667,10.667c0,5.891-4.776,10.667-10.667,10.667H83.499c-3.23,9.11-10.392,16.28-19.499,19.52v67.648
		c9.106,3.24,16.269,10.41,19.499,19.52H96c5.891,0,10.667,4.776,10.667,10.667S101.891,384.021,96,384.021V384z"/>
</g>
<circle style="fill:#FAFAFA;" cx="181.333" cy="309.333" r="74.667"/>
<g>
</g>
<g>
</g>
<g>
</g>
<g>
</g>
<g>
</g>
<g>
</g>
<g>
</g>
<g>
</g>
<g>
</g>
<g>
</g>
<g>
</g>
<g>
</g>
<g>
</g>
<g>
</g>
<g>
</g>
</svg>
