<?xml version="1.0" encoding="iso-8859-1"?>
<!-- Generator: Adobe Illustrator 19.0.0, SVG Export Plug-In . SVG Version: 6.00 Build 0)  -->
<svg version="1.1" id="Capa_1" xmlns="http://www.w3.org/2000/svg" xmlns:xlink="http://www.w3.org/1999/xlink" x="0px" y="0px"
	 viewBox="0 0 511.999 511.999" style="enable-background:new 0 0 511.999 511.999;" xml:space="preserve">
<rect x="433.168" y="46.06" style="fill:#E4EAF8;" width="65.799" height="41.16"/>
<rect x="433.168" y="46.06" style="fill:#D8DCE5;" width="20.605" height="41.16"/>
<rect x="433.168" y="87.08" style="fill:#9E6B57;" width="34.461" height="343.19"/>
<rect x="433.168" y="87.08" style="fill:#8C5A4B;" width="20.605" height="343.19"/>
<path style="fill:#D8DCE5;" d="M365.973,455.646H41.455c-15.052,0-27.872,11.881-28.406,27.15
	c-0.561,16.03,12.074,29.203,27.741,29.203h315.598c5.294,0,9.585-4.356,9.585-9.729V455.646z"/>
<path style="fill:#C3C8D1;" d="M356.388,491.394H40.79c-11.726,0-21.751-7.38-25.819-17.812c-1.132,2.864-1.808,5.961-1.922,9.214
	c-0.561,16.03,12.074,29.203,27.741,29.203h315.598c5.294,0,9.585-4.356,9.585-9.729v-20.605
	C365.974,487.038,361.682,491.394,356.388,491.394z"/>
<rect x="466.068" y="87.08" style="fill:#AD7B64;" width="32.9" height="343.19"/>
<path style="fill:#E4EAF8;" d="M433.165,430.264l26.555,67.891c2.603,6.654,10.086,6.654,12.689,0l26.555-67.891H433.165z"/>
<path style="fill:#D8DCE5;" d="M453.77,430.264h-20.605l26.555,67.891c2.603,6.654,10.086,6.654,12.689,0l3.958-10.119
	L453.77,430.264z"/>
<path style="fill:#707487;" d="M445.229,461.108l14.491,37.047c2.603,6.654,10.087,6.654,12.689,0l14.491-37.047H445.229z"/>
<path style="fill:#5E6377;" d="M472.409,498.155l3.958-10.119l-10.533-26.928h-20.605l14.491,37.047
	C462.335,504.84,469.82,504.766,472.409,498.155z"/>
<path style="fill:#FF5050;" d="M476.602,0h-21.076c-12.35,0-22.361,10.011-22.361,22.361v24.418h65.799V22.361
	C498.963,10.011,488.952,0,476.602,0z"/>
<path style="fill:#ED3A3A;" d="M476.131,0h-20.605c-12.35,0-22.361,10.011-22.361,22.361v24.418h20.605V22.361
	C453.77,10.011,463.781,0,476.131,0z"/>
<path style="fill:#E4EAF8;" d="M40.79,456.481h325.183V9.895c0-5.465-4.43-9.895-9.895-9.895H37.424
	C23.952,0,13.031,10.921,13.031,24.392V484.24C13.031,468.909,25.459,456.481,40.79,456.481z"/>
<path style="fill:#707487;" d="M37.424,0C23.952,0,13.031,10.921,13.031,24.392V484.24c0-15.331,12.428-27.759,27.759-27.759h15.09
	V0H37.424z"/>
<path style="fill:#5E6377;" d="M33.636,24.392c0-12.747,9.779-23.204,22.244-24.293V0H37.424C23.952,0,13.031,10.921,13.031,24.392
	V484.24c0-12.857,8.742-23.668,20.605-26.824V24.392z"/>
<path style="fill:#7CE854;" d="M182.699,116.491c-3.14-4.222-8.277-4.222-11.417,0l-73.464,98.794
	c-3.016,4.057-0.121,9.818,4.934,9.818h75.682l42.515-57.174L182.699,116.491z"/>
<path style="fill:#6FD844;" d="M118.423,215.285l68.87-92.617l-4.594-6.178c-3.14-4.222-8.277-4.222-11.417,0l-73.464,98.795
	c-3.016,4.057-0.121,9.818,4.934,9.818h20.605C118.302,225.103,115.406,219.342,118.423,215.285z"/>
<circle style="fill:#FFC850;" cx="222.028" cy="88.51" r="20.475"/>
<path style="fill:#F9B428;" d="M222.033,88.509c0-7.574,4.123-14.172,10.237-17.713c-3.014-1.746-6.504-2.762-10.237-2.762
	c-11.308,0-20.475,9.167-20.475,20.475s9.167,20.475,20.475,20.475c3.734,0,7.223-1.016,10.237-2.762
	C226.156,102.681,222.033,96.083,222.033,88.509z"/>
<g>
	<path style="fill:#D8DCE5;" d="M274.836,321.714H139.789c-4.267,0-7.727-3.459-7.727-7.727c0-4.268,3.459-7.727,7.727-7.727
		h135.046c4.267,0,7.727,3.459,7.727,7.727C282.563,318.255,279.103,321.714,274.836,321.714z"/>
	<path style="fill:#D8DCE5;" d="M274.836,362.315H139.789c-4.267,0-7.727-3.459-7.727-7.727c0-4.268,3.459-7.727,7.727-7.727
		h135.046c4.267,0,7.727,3.459,7.727,7.727C282.563,358.856,279.103,362.315,274.836,362.315z"/>
	<path style="fill:#D8DCE5;" d="M274.836,402.915H139.789c-4.267,0-7.727-3.459-7.727-7.727s3.459-7.727,7.727-7.727h135.046
		c4.267,0,7.727,3.459,7.727,7.727S279.103,402.915,274.836,402.915z"/>
</g>
<path style="fill:#9BF57D;" d="M316.607,216.178l-61.47-82.665c-2.648-3.561-6.98-3.561-9.628,0l-68.106,91.59h134.718
	C316.717,225.103,319.349,219.866,316.607,216.178z"/>
<path style="fill:#7CE854;" d="M255.137,133.513c-2.648-3.561-6.98-3.561-9.628,0l-68.106,91.59h20.192l62.824-84.486
	L255.137,133.513z"/>
<g>
</g>
<g>
</g>
<g>
</g>
<g>
</g>
<g>
</g>
<g>
</g>
<g>
</g>
<g>
</g>
<g>
</g>
<g>
</g>
<g>
</g>
<g>
</g>
<g>
</g>
<g>
</g>
<g>
</g>
</svg>
