<svg id="Capa_1" enable-background="new 0 0 512 512" height="512" viewBox="0 0 512 512" width="512" xmlns="http://www.w3.org/2000/svg"><g><path d="m135.15 512h305.703c3.866 0 7-3.134 7-7v-433.584c0-3.866-3.134-7-7-7h-34.97v405.614h-277.734l.001 34.97c0 3.866 3.134 7 7 7z" fill="#eaf6ff"/><path d="m96.179 438.531v34.498c0 3.866 3.134 7 7 7h305.703c3.866 0 7-3.134 7-7v-433.583c0-3.866-3.134-7-7-7h-66.941l32.031 31.026v375.059z" fill="#9bd8f9"/><path d="m376.973 448.531h-305.826c-3.866 0-7-3.134-7-7v-434.528c0-3.866 3.134-7 7-7h248.824l64.001 63.469v378.059c.001 3.866-3.133 7-6.999 7z" fill="#eaf6ff"/><path d="m84.736 0v448.529h-13.585c-3.866 0-7-3.134-7-7v-434.529c0-3.866 3.134-7 7-7z" fill="#d8ecfe"/><path d="m319.967 160.324c0 28.499-12.433 54.096-32.164 71.655v.01c-16.951 15.089-39.276 14.249-63.74 14.249-24.568 0-46.974.768-63.946-14.434-19.617-17.548-31.968-43.073-31.968-71.48 0-52.964 42.94-95.904 95.914-95.904 52.964 0 95.904 42.939 95.904 95.904z" fill="#365e7d"/><path d="m287.803 194.072v37.917c-16.951 15.089-39.276 24.249-63.74 24.249-24.568 0-46.974-9.232-63.946-24.434v-37.732c0-6.474 4.457-12.217 11.075-14.317l35.364-8.923h34.819l35.354 8.923c6.618 2.1 11.074 7.843 11.074 14.317z" fill="#9bd8f9"/><path d="m234.335 255.692c-3.376.36-6.803.546-10.272.546-24.568 0-46.974-9.232-63.946-24.434v-37.732c0-6.474 4.457-12.217 11.075-14.317l35.364-8.923h20.585l-35.364 8.923c-6.618 2.1-11.075 7.843-11.075 14.317v37.732c14.563 13.04 33.13 21.696 53.633 23.888z" fill="#73c3f9"/><path d="m327.075 64.311 56.898-.839-64.002-63.469v57.309c0 3.906 3.198 7.057 7.104 6.999z" fill="#d8ecfe"/><g><g><g><path d="m208.075 295.927h-79.926c-4.264 0-7.719-3.456-7.719-7.719s3.456-7.719 7.719-7.719h79.926c4.264 0 7.719 3.456 7.719 7.719s-3.455 7.719-7.719 7.719z" fill="#365e7d"/></g><g><path d="m319.971 295.927h-79.925c-4.264 0-7.719-3.456-7.719-7.719s3.456-7.719 7.719-7.719h79.925c4.264 0 7.719 3.456 7.719 7.719s-3.455 7.719-7.719 7.719z" fill="#365e7d"/></g><g><path d="m208.075 328.145h-79.926c-4.264 0-7.719-3.456-7.719-7.719s3.456-7.719 7.719-7.719h79.926c4.264 0 7.719 3.456 7.719 7.719s-3.455 7.719-7.719 7.719z" fill="#365e7d"/></g><g><path d="m319.971 328.145h-79.925c-4.264 0-7.719-3.456-7.719-7.719s3.456-7.719 7.719-7.719h79.925c4.264 0 7.719 3.456 7.719 7.719s-3.455 7.719-7.719 7.719z" fill="#365e7d"/></g><g><path d="m208.075 359.868h-79.926c-4.264 0-7.719-3.456-7.719-7.719s3.456-7.719 7.719-7.719h79.926c4.264 0 7.719 3.456 7.719 7.719s-3.455 7.719-7.719 7.719z" fill="#365e7d"/></g><g><path d="m319.971 359.868h-79.925c-4.264 0-7.719-3.456-7.719-7.719s3.456-7.719 7.719-7.719h79.925c4.264 0 7.719 3.456 7.719 7.719s-3.455 7.719-7.719 7.719z" fill="#365e7d"/></g><g><path d="m208.075 391.591h-79.926c-4.264 0-7.719-3.456-7.719-7.719s3.456-7.719 7.719-7.719h79.926c4.264 0 7.719 3.456 7.719 7.719s-3.455 7.719-7.719 7.719z" fill="#365e7d"/></g><g><path d="m319.971 391.591h-79.925c-4.264 0-7.719-3.456-7.719-7.719s3.456-7.719 7.719-7.719h79.925c4.264 0 7.719 3.456 7.719 7.719s-3.455 7.719-7.719 7.719z" fill="#365e7d"/></g></g></g><path d="m192.09 133.137v10.948c0 17.536 14.314 31.751 31.97 31.751 17.657 0 31.97-14.215 31.97-31.751v-10.948c0-17.536-14.314-31.751-31.97-31.751-17.657 0-31.97 14.215-31.97 31.751z" fill="#ffcebf"/><path d="m234.355 174.154c-3.232 1.091-6.69 1.678-10.292 1.678-17.662 0-31.978-14.214-31.978-31.752v-10.941c0-8.769 3.582-16.704 9.366-22.458 5.784-5.743 13.781-9.294 22.612-9.294 3.602 0 7.061.587 10.292 1.678-4.693 1.585-8.892 4.21-12.32 7.616-5.784 5.753-9.366 13.689-9.366 22.458v10.941c0 13.967 9.078 25.824 21.686 30.074z" fill="#ffb09e"/></g></svg>