<?xml version="1.0" encoding="iso-8859-1"?>
<!-- Generator: Adobe Illustrator 19.0.0, SVG Export Plug-In . SVG Version: 6.00 Build 0)  -->
<svg version="1.1" id="Capa_1" xmlns="http://www.w3.org/2000/svg" xmlns:xlink="http://www.w3.org/1999/xlink" x="0px" y="0px"
	 viewBox="0 0 512.001 512.001" style="enable-background:new 0 0 512.001 512.001;" xml:space="preserve">
<path style="fill:#D5DEED;" d="M306.705,434.588h-101.39c-32.014,0-58.059-26.045-58.059-58.059v-39.745
	c0-8.438,6.841-15.279,15.279-15.279h186.961c8.438,0,15.279,6.841,15.279,15.279v39.745
	C364.775,408.543,338.726,434.588,306.705,434.588z"/>
<path style="fill:#B4E8FF;" d="M349.496,352.063H162.536c-8.438,0-15.279-6.841-15.279-15.279V135.471
	c0-32.014,26.045-58.059,58.059-58.059h101.39c32.02,0,58.069,26.045,58.069,58.059v201.313
	C364.775,345.223,357.934,352.063,349.496,352.063z"/>
<path style="fill:#536080;" d="M274.544,392.815h-37.053c-8.438,0-15.279-6.841-15.279-15.279s6.841-15.279,15.279-15.279h37.053
	c8.438,0,15.279,6.841,15.279,15.279S282.982,392.815,274.544,392.815z"/>
<path style="fill:#FF7632;" d="M437.02,74.981C388.668,26.629,324.381,0,256.001,0S123.333,26.629,74.981,74.981
	S0.001,187.62,0.001,256s26.629,132.667,74.981,181.019C123.333,485.372,187.62,512,256,512s132.667-26.629,181.019-74.981
	C485.373,388.667,512,324.38,512,256S485.373,123.333,437.02,74.981z M481.443,256c0,56.668-21.023,108.514-55.672,148.164
	L107.837,86.229c39.65-34.648,91.496-55.672,148.164-55.672C380.31,30.557,481.443,131.69,481.443,256z M30.558,256
	c0-56.668,21.024-108.514,55.672-148.164l317.935,317.935c-39.65,34.648-91.496,55.672-148.164,55.672
	C131.691,481.443,30.558,380.31,30.558,256z"/>
<path style="fill:#BAC6DB;" d="M349.496,321.506h-93.478v113.083h50.689c32.02,0,58.069-26.045,58.069-58.059v-39.745
	C364.775,328.346,357.934,321.506,349.496,321.506z"/>
<path style="fill:#394257;" d="M274.544,362.257h-18.526v30.557h18.526c8.438,0,15.279-6.841,15.279-15.279
	S282.982,362.257,274.544,362.257z"/>
<path style="fill:#6AD3FF;" d="M306.705,77.412h-50.689v274.651h93.478c8.438,0,15.279-6.841,15.279-15.279V135.471
	C364.775,103.457,338.726,77.412,306.705,77.412z"/>
<path style="fill:#F74825;" d="M256.018,0v30.557C380.319,30.567,481.443,131.695,481.443,256
	c0,56.668-21.023,108.514-55.672,148.164L256.018,234.41v43.214l148.148,148.148c-39.646,34.645-91.486,55.666-148.148,55.672
	v30.557c68.373-0.004,132.654-26.632,181.002-74.981C485.373,388.668,512,324.381,512,256.001S485.372,123.334,437.02,74.982
	C388.672,26.632,324.391,0.004,256.018,0z"/>
<g>
</g>
<g>
</g>
<g>
</g>
<g>
</g>
<g>
</g>
<g>
</g>
<g>
</g>
<g>
</g>
<g>
</g>
<g>
</g>
<g>
</g>
<g>
</g>
<g>
</g>
<g>
</g>
<g>
</g>
</svg>
