<?xml version="1.0" encoding="iso-8859-1"?>
<!-- Generator: Adobe Illustrator 19.0.0, SVG Export Plug-In . SVG Version: 6.00 Build 0)  -->
<svg xmlns="http://www.w3.org/2000/svg" xmlns:xlink="http://www.w3.org/1999/xlink" version="1.1" id="Layer_1" x="0px" y="0px" viewBox="0 0 512 512" style="enable-background:new 0 0 512 512;" xml:space="preserve">
<path style="fill:#3494D0;" d="M454.452,55.25C317.54,48.072,274.011,16.699,261.078,2.257c-2.694-3.009-7.461-3.009-10.156,0  C237.99,16.699,194.46,48.072,57.548,55.25c-3.07,0.161-5.652,2.354-6.304,5.358c-8.754,40.337-56.25,309.879,201.481,450.559  c2.035,1.111,4.517,1.111,6.551,0C517.005,370.488,469.51,100.946,460.755,60.608C460.103,57.604,457.522,55.411,454.452,55.25z"/>
<path style="fill:#0E80AD;" d="M469.767,159.525c-1.5,99.959-34.7,249.221-198.477,344.858c-1.38,0.8-2.761,1.6-4.161,2.401  c-1.32,0.75-2.661,1.5-4.001,2.251c-1.29,0.72-2.581,1.44-3.881,2.151c-2.031,1.09-4.501,1.08-6.522-0.02  c-14.944-8.153-28.858-16.744-41.812-25.697c204.848-139.75,187.593-364.215,175.81-436.555c-0.02-0.17-0.05-0.35-0.08-0.52  c19.565,2.801,42.022,5.002,67.779,6.352c3.081,0.16,5.662,2.351,6.322,5.372c2.581,11.884,8.523,43.662,9.033,86.174  C469.837,150.593,469.827,155.013,469.767,159.525z"/>
<path style="fill:#74DBC9;" d="M333.787,373.868H181.295c-7.86,0-14.231-6.372-14.231-14.231V224.905  c0-7.86,6.372-14.231,14.231-14.231h152.492c7.86,0,14.231,6.372,14.231,14.231v134.732  C348.018,367.497,341.646,373.868,333.787,373.868z"/>
<path style="fill:#6DCCBA;" d="M348.014,224.903v134.738c0,7.859-6.369,14.227-14.227,14.227H290.64  c7.859,0,14.227-6.369,14.227-14.227V224.903c0-7.859-6.369-14.227-14.227-14.227h43.146  C341.644,210.674,348.014,217.044,348.014,224.903z"/>
<path style="fill:#FDDD85;" d="M312.883,210.673v-80.352c0-30.565-24.778-55.342-55.342-55.342l0,0  c-30.565,0-55.342,24.778-55.342,55.342v80.352h22.904v-81.579c0-17.915,14.523-32.439,32.439-32.439l0,0  c17.915,0,32.439,14.523,32.439,32.439v81.58h22.902V210.673z"/>
<g>
</g>
<g>
</g>
<g>
</g>
<g>
</g>
<g>
</g>
<g>
</g>
<g>
</g>
<g>
</g>
<g>
</g>
<g>
</g>
<g>
</g>
<g>
</g>
<g>
</g>
<g>
</g>
<g>
</g>
</svg>
