<svg height="511pt" viewBox="0 1 511 511.99893" width="511pt" xmlns="http://www.w3.org/2000/svg"><path d="m503.035156 151.449219c-7.769531-22.132813-29.960937-57.359375-91.535156-99.5-37.652344-25.769531-80.03125-46.597657-103.046875-50.652344-43.785156-7.710937-87.589844 19.648437-101.886719 63.640625-1.535156 4.726562-2.863281 9.472656-4.144531 14.0625-3.023437 10.839844-5.882813 21.082031-10.972656 29.300781-14.03125 22.667969-44.152344 29.375-71.765625 32.949219-32.546875 4.214844-69.441406 10.625-95.382813 33.488281-24.003906 21.152344-30.679687 55.929688-16.226562 84.578125 12.347656 24.46875 35.46875 35.675782 55.871093 45.566406 6.152344 2.984376 11.96875 5.800782 17.210938 8.835938 23.675781 13.703125 40.359375 36.921875 58.121094 67.566406 3.101562 5.351563 6.222656 10.882813 9.238281 16.238282 14.292969 25.335937 29.066406 51.535156 49.738281 73.203124 21.609375 22.652344 60.726563 41.273438 97.792969 41.273438 8.78125 0 17.449219-1.046875 25.742187-3.332031 27.539063-7.585938 46.464844-28.238281 53.28125-58.144531 3.714844-16.300782 1.925782-31.777344.1875-46.746094-1.625-14.027344-3.160156-27.28125.351563-39.304688 4.164063-14.269531 15.882813-27.265625 34.828125-38.628906l2.609375-1.566406c29.496094-17.683594 59.996094-35.96875 79.230469-61.949219 22.683594-30.636719 26.203125-66.902344 10.757812-110.878906zm0 0" fill="#faecd8"/><path d="m503.035156 151.449219c-7.769531-22.132813-29.960937-57.359375-91.535156-99.5-37.652344-25.769531-80.03125-46.597657-103.046875-50.652344-9.5-1.671875-19-1.691406-28.199219-.25v509.863281c5.265625.703125 10.550782 1.089844 15.792969 1.089844 8.78125 0 17.449219-1.046875 25.742187-3.332031 27.539063-7.585938 46.460938-28.238281 53.28125-58.144531 3.714844-16.300782 1.921876-31.777344.1875-46.746094-1.625-14.027344-3.160156-27.28125.351563-39.304688 4.164063-14.269531 15.882813-27.265625 34.828125-38.628906l2.605469-1.566406c29.5-17.683594 60-35.96875 79.234375-61.949219 22.683594-30.636719 26.203125-66.902344 10.757812-110.878906zm0 0" fill="#f3e1c7"/><path d="m354.796875 242.84375c-2.125 19.917969-11.882813 37.816406-27.46875 50.394531-13.84375 11.167969-30.484375 16.601563-47.023437 16.601563-21.90625 0-43.632813-9.527344-58.429688-27.863282-25.964844-32.179687-20.914062-79.484374 11.265625-105.449218 32.175781-25.964844 79.480469-20.914063 105.449219 11.261718 12.578125 15.585938 18.335937 35.140626 16.207031 55.054688zm0 0" fill="#fdbf00"/><path d="m338.589844 187.789062c-14.777344-18.308593-36.460938-27.824218-58.335938-27.847656v149.894532c.015625 0 .035156.003906.050782.003906 16.539062 0 33.183593-5.433594 47.023437-16.601563 15.585937-12.582031 25.34375-30.476562 27.46875-50.394531 2.128906-19.914062-3.628906-39.46875-16.207031-55.054688zm0 0" fill="#ff9f00"/></svg>