<?xml version="1.0" encoding="iso-8859-1"?>
<!-- Generator: Adobe Illustrator 19.0.0, SVG Export Plug-In . SVG Version: 6.00 Build 0)  -->
<svg xmlns="http://www.w3.org/2000/svg" xmlns:xlink="http://www.w3.org/1999/xlink" version="1.1" id="Capa_1" x="0px" y="0px" viewBox="0 0 512 512" style="enable-background:new 0 0 512 512;" xml:space="preserve">
<polygon style="fill:#A3FDF6;" points="256,0 226,462 448,422 448,0 "/>
<polygon style="fill:#D7FAF5;" points="64,0 64,422 256,462 256,0 "/>
<polygon style="fill:#DBFFFA;" points="256,30 206,211 256,392 418,392 418,30 "/>
<rect x="94" y="30" style="fill:#FFFFFF;" width="162" height="362"/>
<polygon style="fill:#093239;" points="256,422 211,467 256,512 448,512 448,422 "/>
<g>
	<rect x="64" y="422" style="fill:#116371;" width="192" height="90"/>
	<polygon style="fill:#116371;" points="256,452 236,467 256,482 286,482 286,452  "/>
</g>
<rect x="226" y="452" style="fill:#70A2AA;" width="30" height="30"/>
<polygon style="fill:#FFA07D;" points="367,171.079 290.301,159.934 256,90.433 226,207.967 256,265.501 324.602,301.567   311.5,225.178 "/>
<polygon style="fill:#FFD15E;" points="221.699,159.934 145,171.079 200.5,225.178 187.398,301.567 256,265.501 256,90.433 "/>
<g>
</g>
<g>
</g>
<g>
</g>
<g>
</g>
<g>
</g>
<g>
</g>
<g>
</g>
<g>
</g>
<g>
</g>
<g>
</g>
<g>
</g>
<g>
</g>
<g>
</g>
<g>
</g>
<g>
</g>
</svg>
