<?xml version="1.0"?>
<svg xmlns="http://www.w3.org/2000/svg" id="Layer_1" data-name="Layer 1" viewBox="0 0 512 512" width="512" height="512"><title>Pear</title><path d="M409.51,107.36c-51.73,29.46-118.17,11.24-147.63-40.49a107.33,107.33,0,0,1,53.25-14.1A108.5,108.5,0,0,1,409.51,107.36Z" style="fill:#46c43d"/><path d="M244.023,127.17l-.191,0a8,8,0,0,1-7.81-8.185c1.01-42.956,21.04-79.01,56.4-101.521a8,8,0,1,1,8.592,13.5c-30.717,19.554-48.118,50.948-49,88.4A8,8,0,0,1,244.023,127.17Z" style="fill:#3bb54a"/><path d="M370.58,281.71a141.979,141.979,0,0,1-26.53,163.1l-2.77,2.76c-53.63,53.63-140.98,53.63-194.61,0l-2.76-2.76a141.391,141.391,0,0,1-26.54-163.1l31.52-62.47L172.66,154c7.74-21.01,27.64-35.38,50.31-34.83h43.12c22.12,0,42.02,14.38,49.76,34.83l23.77,65.24S354,248.54,370.58,281.71Z" style="fill:#e8c536"/></svg>
