<?xml version="1.0" encoding="iso-8859-1"?>
<!-- Generator: Adobe Illustrator 19.0.0, SVG Export Plug-In . SVG Version: 6.00 Build 0)  -->
<svg version="1.1" id="Capa_1" xmlns="http://www.w3.org/2000/svg" xmlns:xlink="http://www.w3.org/1999/xlink" x="0px" y="0px"
	 viewBox="0 0 512.001 512.001" style="enable-background:new 0 0 512.001 512.001;" xml:space="preserve">
<path style="fill:#81C8EE;" d="M446.808,217.662L181.495,485.675c-35.101,35.101-92.104,35.101-127.206,0
	c-9.6-9.3-16.502-20.401-20.701-32.403c-11.701-32.102-4.801-69.303,20.701-94.804L308.8,100.957
	c19.802-19.802,54.303-19.802,74.105,0c20.701,20.401,20.701,53.702,0,74.103L139.192,422.072c-5.999,6-15.299,6-21.3,0
	c-5.7-6-5.7-15.301,0-21.302l244.011-246.711c8.699-9.001,8.699-23.102,0-31.802c-8.699-8.701-23.4-8.701-31.802,0L75.589,379.769
	c-13.201,13.201-18.901,31.203-16.801,48.303c0.901,13.201,6.601,26.101,16.801,36.301c22.501,22.801,62.103,22.801,84.604,0
	L425.506,196.36c38.103-38.103,38.103-99.605,0-137.708v-0.298c-36.901-36.603-101.105-36.603-138.006,0L97.59,248.263
	c-5.7,6-15.301,6-21.001,0c-6-5.7-6-15.301,0-21l189.609-189.91c49.803-49.803,130.806-49.803,180.61,0
	C496.308,86.855,496.308,167.859,446.808,217.662z"/>
<g>
	<path style="fill:#4DBBEB;" d="M117.892,422.072c-5.7-6-5.7-15.301,0-21.302l244.011-246.711c8.699-9.001,8.699-23.102,0-31.802
		l21.001-21.302c20.701,20.401,20.701,53.702,0,74.103L139.192,422.072C133.193,428.073,123.892,428.073,117.892,422.072z"/>
	<path style="fill:#4DBBEB;" d="M446.808,217.662L181.495,485.675c-35.101,35.101-92.104,35.101-127.206,0
		c-9.6-9.3-16.502-20.401-20.701-32.403l25.2-25.2c0.901,13.201,6.601,26.101,16.801,36.301c22.501,22.801,62.103,22.801,84.604,0
		L425.506,196.36c38.103-38.103,38.103-99.605,0-137.708v-0.298l21.302-21.001C496.308,86.855,496.308,167.859,446.808,217.662z"/>
</g>
<g>
</g>
<g>
</g>
<g>
</g>
<g>
</g>
<g>
</g>
<g>
</g>
<g>
</g>
<g>
</g>
<g>
</g>
<g>
</g>
<g>
</g>
<g>
</g>
<g>
</g>
<g>
</g>
<g>
</g>
</svg>
