<svg id="Capa_1" enable-background="new 0 0 511.995 511.995" height="512" viewBox="0 0 511.995 511.995" width="512" xmlns="http://www.w3.org/2000/svg"><g><path d="m480.322 366.783h-448.649v-269.201c0-10.701 8.675-19.377 19.377-19.377h409.895c10.701 0 19.377 8.675 19.377 19.377z" fill="#2b3838"/><path d="m31.673 351.509h448.648v52.449h-448.648z" fill="#7ca1b1"/><path d="m460.837 351.509h19.485v52.449h-19.485z" fill="#678d98"/><path d="m480.318 97.583v253.929h-19.595v-253.929c0-10.703-8.676-19.379-19.368-19.379h19.595c10.693 0 19.368 8.676 19.368 19.379z" fill="#212d2d"/><path d="m67.952 351.512v-222.068c0-4.64 3.762-8.402 8.402-8.402h359.288c4.64 0 8.402 3.762 8.402 8.402v222.068z" fill="#d4f2f6"/><path d="m444.041 129.445v222.067h-24.431v-222.067c0-4.641-3.756-8.398-8.398-8.398h24.432c4.641 0 8.397 3.756 8.397 8.398z" fill="#a6e7f0"/><path d="m288.376 390.255-7.562 10.38c-1.521 2.088-3.949 3.323-6.532 3.323h-36.568c-2.583 0-5.011-1.235-6.532-3.323l-7.562-10.38c-1.521-2.088-3.949-3.323-6.532-3.323h-210.664c-3.548 0-6.424 2.876-6.424 6.424v22.93c0 9.668 7.837 17.505 17.505 17.505h476.985c9.668 0 17.505-7.837 17.505-17.505v-22.93c0-3.548-2.876-6.424-6.424-6.424h-210.663c-2.583 0-5.011 1.235-6.532 3.323z" fill="#537983"/><path d="m511.995 393.356v22.929c0 9.664-7.842 17.506-17.506 17.506h-23.67c9.663 0 17.506-7.842 17.506-17.506v-22.929c0-3.55-2.871-6.422-6.422-6.422h23.67c3.551.001 6.422 2.872 6.422 6.422z" fill="#426970"/><g><g><path d="m291.694 266.599c-1.77 0-3.546-.623-4.975-1.89-3.099-2.749-3.382-7.489-.633-10.587l68.701-77.445c2.748-3.098 7.488-3.383 10.588-.633 3.099 2.749 3.382 7.489.633 10.587l-68.701 77.445c-1.481 1.67-3.542 2.523-5.613 2.523z" fill="#8cd7dd"/></g><g><g><path d="m331.714 264.228c-1.77 0-3.546-.623-4.975-1.89-3.099-2.749-3.382-7.489-.633-10.587l18.609-20.978c2.748-3.098 7.488-3.382 10.588-.633 3.099 2.749 3.382 7.489.633 10.587l-18.609 20.978c-1.481 1.671-3.543 2.523-5.613 2.523z" fill="#8cd7dd"/></g><g><path d="m371.313 219.589c-1.77 0-3.546-.623-4.974-1.889-3.099-2.749-3.383-7.489-.634-10.588l5.043-5.685c2.748-3.098 7.489-3.382 10.587-.634 3.099 2.749 3.383 7.489.634 10.588l-5.043 5.685c-1.482 1.671-3.543 2.523-5.613 2.523z" fill="#8cd7dd"/></g></g></g></g></svg>