<svg id="Capa_1" enable-background="new 0 0 512 512" height="512" viewBox="0 0 512 512" width="512" xmlns="http://www.w3.org/2000/svg"><g><g><path d="m402.572 210.102v-45.438l-28.692-29.584-34.667 29.584v45.438c0 2.131-1.294 3.96-3.14 4.744-.618.262-1.26 10.954-1.973 10.954l-29.7 30.2s-3.35 228.64 2.34 228.64l31.613 27.36h100.382c5.69 0 10.302-4.612 10.302-10.302v-52.94l-78.144-80.695 78.144-73.585v-52.441c0-14.793-11.992-26.785-26.785-26.785h-14.529c-2.845.001-5.151-2.305-5.151-5.15z" fill="#ffc269"/></g><g><path d="m339.86 448.758h-47.112v52.94c0 5.69 4.612 10.302 10.302 10.302h35.302c.976-3.266 1.508-6.722 1.508-10.302z" fill="#ffa95f"/></g><g><path d="m292.749 215.253v79.225h47.112v-52.94c0-9.081-1.302-18.069-3.787-26.693-.618.262-1.297.408-2.011.408z" fill="#ffa95f"/></g><g><path d="m449.037 448.758h-109.177l-13.229-55.198 13.229-99.082h109.177z" fill="#eceaec"/></g><g><circle cx="374.51" cy="360.349" fill="#e5646e" r="28.472"/></g><g><path d="m292.748 294.478h25.961v154.28h-25.961z" fill="#dad8db"/></g><g><path d="m292.749 294.478h47.112v154.28h-47.112z" fill="#dad8db"/></g><g><path d="m401.993 424.343h-54.966c-4.268 0-7.726-3.459-7.726-7.726s3.459-7.726 7.726-7.726h54.966c4.268 0 7.726 3.459 7.726 7.726s-3.458 7.726-7.726 7.726z" fill="#e5646e"/></g><g><path d="m366.2 164.664-20.04-37.144c0-5.69 4.612-10.302 10.302-10.302l17.478-3.67h18.33c5.69 0 10.302 4.612 10.302 10.302v40.814z" fill="#766e6e"/></g><g><path d="m375.476 113.548h-25.961c-5.689 0-10.302 4.612-10.302 10.302v40.814h25.961v-40.814c0-5.69 4.612-10.302 10.302-10.302z" fill="#5b5555"/></g><g><path d="m192.44 10.302 7.536 79.605 14.449 65.573 40.41-65.573v-79.605c0-5.69-4.612-10.302-10.302-10.302h-39.913c-5.689 0-12.18 4.612-12.18 10.302z" fill="#766e6e"/></g><g fill="#b3e59f"><path d="m263 418.04h-118.8v93.96h169.905v-76.707z"/><path d="m126.463 266.84h150.457l37.185-15.249v-10.053c0-19.388-7.92-37.935-21.924-51.344l-15.422-14.766c-14.005-13.408-21.924-31.955-21.924-51.344v-34.177h-54.859l-9.216 34.178c0 19.388-7.92 37.935-21.924 51.344l-28.131 22.771c-14.004 13.408-12.98 23.95-12.98 43.338z"/></g><g><path d="m140.705 501.698v-260.16c0-19.388 7.92-37.935 21.924-51.344l15.422-14.766c14.005-13.408 21.924-31.955 21.924-51.344v-34.177h-25.961v34.178c0 19.388-7.92 37.935-21.924 51.344l-15.422 14.766c-14.004 13.408-21.924 31.955-21.924 51.344v260.16c0 5.69 4.612 10.302 10.302 10.302h25.961c-5.69-.001-10.302-4.613-10.302-10.303z" fill="#95d6a4"/></g><g><path d="m314.105 435.293h-173.4l-12.98-41.743 12.98-141.959h173.4z" fill="#78c2a4"/></g><g><g><path d="m132.68 393.08-11.802 3.84-6.133-28.857v-116.472h25.96v116.472z" fill="#68b594"/></g></g><g><g><g><path d="m255.59 338.982h-82.33c-5.523 0-10-4.477-10-10v-24.504c0-5.523 4.477-10 10-10h82.33c5.523 0 10 4.477 10 10v24.504c0 5.523-4.477 10-10 10z" fill="#eceaec"/></g></g></g><path d="m254.835 45.328h-54.859v-35.026c0-5.69 4.612-10.302 10.302-10.302h-25.961c-5.689 0-10.302 4.612-10.302 10.302v79.605h25.961v-29.126h54.859z" fill="#5b5555"/><g><g><path d="m157.685 512h-57.405c-5.341 0-6.606-4.082-7.072-9.403l-14.528-123.333c-.527-6.021 6.185-11.201 12.229-11.201h77.58c6.044 0 10.79 5.18 10.263 11.201l-10.804 123.333c-.466 5.321-4.922 9.403-10.263 9.403z" fill="#eceaec"/></g><g><path d="m95.565 502.597-2.357-26.908-9.848-29.316 4.712-29.308-3.312-37.802c-.527-6.021 4.218-11.201 10.263-11.201h-21.757c-6.044 0-10.79 5.18-10.262 11.201l3.311 37.795 10.926 29.316-5.789 29.316 2.357 26.908c.465 5.32 4.92 9.402 10.261 9.402h21.757c-5.34 0-9.796-4.082-10.262-9.403z" fill="#dad8db"/></g><g><path d="m170.305 475.69 5.136-58.631h-87.283l-8.397 38.781 13.447 19.85z" fill="#ffc269"/></g><g><path d="m66.314 417.059 5.137 58.631h21.757l-5.136-58.631z" fill="#ffa95f"/></g></g></g></svg>