<svg id="color" enable-background="new 0 0 24 24" height="512" viewBox="0 0 24 24" width="512" xmlns="http://www.w3.org/2000/svg"><g><g><path d="m15 4.75c-.553 0-1-.447-1-1v-1.75h-4v1.75c0 .553-.447 1-1 1s-1-.447-1-1v-1.75c0-1.104.897-2 2-2h4c1.103 0 2 .896 2 2v1.75c0 .553-.447 1-1 1z" fill="#607d8b"/></g></g><g><g><path d="m21.25 3h-18.5c-1.52 0-2.75 1.23-2.75 2.75v10.5c0 1.52 1.23 2.75 2.75 2.75h3.81c-.39-.81-.58-1.71-.56-2.65.07-3.189 2.72-5.81 5.91-5.85h.13c1.57 0 3.05.61 4.18 1.731 1.15 1.119 1.78 2.629 1.78 4.239 0 .891-.2 1.75-.57 2.53h3.82c1.52 0 2.75-1.23 2.75-2.75v-10.5c0-1.52-1.23-2.75-2.75-2.75z" fill="#2196f3"/></g></g><g><g><path d="m14.04 22.17v.72c0 .61-.5 1.11-1.119 1.11h-1.841c-.54 0-1.119-.4-1.119-1.29v-.54z" fill="#607d8b"/></g></g><g><g><path d="m16.501 16.47c0 1.351-.601 2.61-1.65 3.46-.42.34-.69.78-.78 1.24-.02.11-.03.23-.03.34v.66h-4.08v-.76l-.021-.24c-.07-.45-.32-.87-.73-1.19-1.11-.87-1.74-2.181-1.71-3.601.051-2.379 2.04-4.349 4.431-4.379 1.21-.03 2.37.441 3.24 1.3.859.84 1.33 1.97 1.33 3.17z" fill="#ffc107"/></g></g><g><g><path d="m12 0h-2c-1.103 0-2 .896-2 2v1h2v-1h2z" fill="#546d79"/></g></g><g><g><path d="m12 3h-2-2-5.25c-1.52 0-2.75 1.23-2.75 2.75v10.5c0 1.52 1.23 2.75 2.75 2.75h3.81c-.39-.81-.58-1.71-.56-2.65.07-3.189 2.72-5.81 5.91-5.85h.09z" fill="#1d83d4"/></g></g><g><g><path d="m12 22.17h-2.039v.54c0 .89.579 1.29 1.119 1.29h.92z" fill="#546d79"/></g></g><g><g><path d="m12 11.999c-.023 0-.046.001-.069.001-2.391.03-4.38 2-4.43 4.38-.03 1.42.6 2.73 1.71 3.601.409.319.659.739.729 1.189l.021.24v.76h2.039z" fill="#dea806"/></g></g></svg>