<?xml version="1.0" encoding="iso-8859-1"?>
<!-- Generator: Adobe Illustrator 19.0.0, SVG Export Plug-In . SVG Version: 6.00 Build 0)  -->
<svg xmlns="http://www.w3.org/2000/svg" xmlns:xlink="http://www.w3.org/1999/xlink" version="1.1" id="Layer_1" x="0px" y="0px" viewBox="0 0 512 512" style="enable-background:new 0 0 512 512;" xml:space="preserve">
<path style="fill:#3ACC8F;" d="M476.869,347.43c-0.369-48.349-38.257-88.372-86.56-91.271c-8.642-0.511-16.063,6.065-16.581,14.704  c-0.019,0.314-0.009,0.623-0.009,0.933H138.366c-0.001-0.306,0.01-0.61-0.008-0.92c-0.508-8.641-7.92-15.221-16.564-14.725  c-48.363,2.847-86.298,42.875-86.666,91.28C12.977,364.842,0,391.276,0,419.811c0,50.814,41.34,92.153,92.153,92.153h327.693  c50.814,0,92.153-41.34,92.153-92.153C512,391.277,499.023,364.843,476.869,347.43z"/>
<path style="fill:#00BA63;" d="M476.869,347.43c-0.369-48.349-38.257-88.372-86.56-91.271c-8.642-0.511-16.063,6.065-16.581,14.704  c-0.019,0.314-0.009,0.623-0.009,0.933H256v240.168h163.847c50.814,0,92.153-41.34,92.153-92.153  C512,391.277,499.023,364.843,476.869,347.43z"/>
<path style="fill:#B8EEAB;" d="M255.999,0.036c-98.366,0-178.393,80.027-178.393,178.393c0,98.365,80.027,178.392,178.393,178.392  s178.393-80.027,178.393-178.392C434.392,80.063,354.366,0.036,255.999,0.036z"/>
<path style="fill:#81E26F;" d="M255.999,0.036V356.82c98.366,0,178.393-80.027,178.393-178.392  C434.392,80.063,354.366,0.036,255.999,0.036z"/>
<path style="fill:#B28964;" d="M316.679,202.948l-45.009,45.008v-5.443c0-0.003,0-0.007,0-0.01v-36.786l67.171-67.171  c6.12-6.119,6.12-16.041,0-22.162c-6.12-6.12-16.043-6.12-22.162,0l-45.009,45.009v-47.508c0-8.655-7.017-15.671-15.671-15.671  c-8.655,0-15.671,7.017-15.671,15.671v85.335c0,0.004,0,0.007,0,0.012v5.443l-45.009-45.009c-6.12-6.119-16.043-6.119-22.162,0  c-6.12,6.12-6.12,16.043,0,22.163l67.171,67.17v36.786c0,0.003,0,0.007,0,0.01v210.403c0,8.655,7.017,15.671,15.671,15.671  c8.655,0,15.671-7.017,15.671-15.671V292.281l67.171-67.169c6.12-6.12,6.12-16.042,0-22.162  C332.724,196.829,322.8,196.828,316.679,202.948z"/>
<path style="fill:#896746;" d="M316.679,202.948l-45.009,45.008v-5.443c0-0.003,0-0.007,0-0.01v-36.786l67.171-67.171  c6.12-6.119,6.12-16.041,0-22.162c-6.12-6.12-16.043-6.12-22.162,0l-45.009,45.009v-47.508c0-8.655-7.016-15.67-15.67-15.671  v413.654c8.655,0,15.67-7.017,15.67-15.671V292.281l67.171-67.169c6.12-6.12,6.12-16.042,0-22.162  C332.724,196.829,322.8,196.828,316.679,202.948z"/>
<g>
</g>
<g>
</g>
<g>
</g>
<g>
</g>
<g>
</g>
<g>
</g>
<g>
</g>
<g>
</g>
<g>
</g>
<g>
</g>
<g>
</g>
<g>
</g>
<g>
</g>
<g>
</g>
<g>
</g>
</svg>
