<?xml version="1.0" encoding="iso-8859-1"?>
<!-- Generator: Adobe Illustrator 19.0.0, SVG Export Plug-In . SVG Version: 6.00 Build 0)  -->
<svg xmlns="http://www.w3.org/2000/svg" xmlns:xlink="http://www.w3.org/1999/xlink" version="1.1" id="Layer_1" x="0px" y="0px" viewBox="0 0 512.001 512.001" style="enable-background:new 0 0 512.001 512.001;" xml:space="preserve">
<path style="fill:#F9BC35;" d="M485.207,104.751v178.111c0,4.453-1.78,8.683-4.897,11.8L267.801,507.17  c-1.446,1.558-3.117,2.672-5.009,3.34c-1.781,1.002-3.786,1.447-5.789,1.447c-4.674,0.334-9.352-1.225-12.802-4.787l-78.703-78.591  c-5.9-6.011-6.458-15.585-1.226-22.152c5.122-6.568,8.238-17.032,8.238-27.941c0-33.73-24.602-48.09-32.17-11.689  c-2.783,12.913-18.812,17.7-28.164,8.349l-80.484-80.484c-3.228-3.117-4.897-7.347-4.897-11.8V104.751  c0-9.239,7.457-16.698,16.698-16.698h425.015C477.749,88.053,485.207,95.512,485.207,104.751z"/>
<path style="fill:#F39E31;" d="M485.207,104.751v178.111c0,4.453-1.78,8.683-4.897,11.8L267.801,507.17  c-1.446,1.558-3.117,2.672-5.009,3.34c-1.781,1.002-3.786,1.447-5.789,1.447V88.053h211.506  C477.749,88.053,485.207,95.512,485.207,104.751z"/>
<path style="fill:#FFDE33;" d="M480.309,116.551l-74.028,74.027v59.89c0,27.607-22.485,50.094-50.094,50.094  c-16.364,0-30.834-7.792-39.961-19.926l-48.425,48.424c-3.006,3.117-6.902,4.675-10.798,4.787  c-4.674,0.334-9.352-1.225-12.802-4.787L31.693,116.551c-6.569-6.568-6.569-17.143,0-23.6C91.582,32.95,171.176,0,256,0h1.003  c84.381,0.223,163.638,33.173,223.307,92.951C486.877,99.408,486.877,109.983,480.309,116.551z"/>
<path style="fill:#FFBC33;" d="M480.309,116.551l-74.028,74.027v59.89c0,27.607-22.485,50.094-50.094,50.094  c-16.364,0-30.834-7.792-39.961-19.926l-48.425,48.424c-3.006,3.117-6.902,4.675-10.798,4.787V0  c84.381,0.223,163.638,33.173,223.307,92.951C486.877,99.408,486.877,109.983,480.309,116.551z"/>
<path style="fill:#F9BC35;" d="M257.003,80.595c-8.906-8.572-21.039-13.804-34.399-13.804c-27.607,0-50.094,22.486-50.094,50.094  s22.486,50.094,50.094,50.094c13.359,0,25.492-5.232,34.399-13.804c9.685-9.128,15.695-22.041,15.695-36.29  C272.697,102.636,266.687,89.723,257.003,80.595z"/>
<circle style="fill:#FFDE33;" cx="122.396" cy="278.298" r="16.698"/>
<circle style="fill:#FFBC33;" cx="322.77" cy="361.787" r="16.698"/>
<g>
	<circle style="fill:#F39E31;" cx="356.166" cy="116.885" r="16.698"/>
	<path style="fill:#F39E31;" d="M272.697,116.885c0,14.249-6.01,27.162-15.695,36.29v-72.58   C266.687,89.723,272.697,102.636,272.697,116.885z"/>
</g>
<path style="fill:#F9BC35;" d="M257.003,233.77L257.003,233.77c-9.222,0-16.698-7.476-16.698-16.698l0,0  c0-9.222,7.476-16.698,16.698-16.698l0,0c9.222,0,16.698,7.476,16.698,16.698l0,0C273.7,226.294,266.224,233.77,257.003,233.77z"/>
<path style="fill:#F39E31;" d="M273.7,217.072c0-9.222-7.476-16.698-16.698-16.698v33.396  C266.224,233.77,273.7,226.294,273.7,217.072z"/>
<g>
</g>
<g>
</g>
<g>
</g>
<g>
</g>
<g>
</g>
<g>
</g>
<g>
</g>
<g>
</g>
<g>
</g>
<g>
</g>
<g>
</g>
<g>
</g>
<g>
</g>
<g>
</g>
<g>
</g>
</svg>
