<?xml version="1.0" encoding="iso-8859-1"?>
<!-- Generator: Adobe Illustrator 19.0.0, SVG Export Plug-In . SVG Version: 6.00 Build 0)  -->
<svg version="1.1" id="Layer_1" xmlns="http://www.w3.org/2000/svg" xmlns:xlink="http://www.w3.org/1999/xlink" x="0px" y="0px"
	 viewBox="0 0 512 512" style="enable-background:new 0 0 512 512;" xml:space="preserve">
<path style="fill:#F7CF6D;" d="M228.897,10.87L21.853,208.789v260.279c0,23.711,19.222,42.932,42.932,42.932h382.431
	c23.711,0,42.932-19.222,42.932-42.932V208.789L283.104,10.87C267.942-3.623,244.059-3.623,228.897,10.87z"/>
<path style="fill:#E1E1E3;" d="M448.513,239.779V107.2c0-23.684-19.199-42.883-42.883-42.883H106.371
	c-23.684,0-42.883,19.199-42.883,42.883v132.364L256,383.762L448.513,239.779z"/>
<path style="fill:#D9D9DB;" d="M63.487,239.564L255.999,383.76l192.514-143.981v-49.348c0,0-47.617,39.007-65.466,48.963
	C196.906,343.218,63.487,239.564,63.487,239.564z"/>
<path style="fill:#F9DE8F;" d="M448.367,512H63.633c-15.061,0-22.397-18.391-11.472-28.758l170.95-162.201
	c18.437-17.494,47.341-17.494,65.778,0l170.95,162.203C470.764,493.609,463.428,512,448.367,512z"/>
<g>
	<path style="fill:#F09EA0;" d="M103.453,219.143v-99.723c0-5.24,4.056-9.296,9.296-9.296s9.464,4.056,9.464,9.296v40.566h43.778
		v-40.566c0-5.24,4.056-9.296,9.296-9.296s9.466,4.056,9.466,9.296v99.724c0,5.24-4.226,9.296-9.466,9.296
		c-5.24,0-9.296-4.056-9.296-9.296v-40.566h-43.776v40.566c0,5.24-4.226,9.296-9.464,9.296
		C107.512,228.441,103.453,224.383,103.453,219.143z"/>
	<path style="fill:#F09EA0;" d="M223.294,219.143v-99.723c0-5.24,4.226-9.296,9.296-9.296c0.169,0,0.169,0,0.507,0c0,0,0,0,0.169,0
		h23.325c17.748,0,32.114,14.367,32.114,32.114c0,7.268-2.367,13.861-6.423,19.269c10.141,6.423,17.071,17.746,17.071,30.593
		c0,20.113-16.227,36.34-36.171,36.34h-29.917c-0.169,0-0.169-0.169-0.169-0.169c-0.338,0-0.338,0.169-0.507,0.169
		C227.52,228.44,223.294,224.214,223.294,219.143z M242.056,155.929h14.536c7.438,0,13.352-6.254,13.352-13.691
		c0-7.438-5.915-13.353-13.352-13.353h-14.536V155.929z M242.056,209.678h21.128c9.634-0.169,17.409-7.775,17.409-17.578
		c0-9.635-7.775-17.241-17.409-17.41h-21.128V209.678z"/>
	<path style="fill:#F09EA0;" d="M323.697,219.143v-99.723c0-5.24,4.056-9.296,9.296-9.296h19.944
		c32.621,0,58.989,26.537,58.989,58.989c0,32.791-26.367,59.328-58.989,59.328h-19.944
		C327.753,228.44,323.697,224.214,323.697,219.143z M342.457,209.678h10.48c22.311-0.169,40.228-18.085,40.228-40.566
		c0-22.142-17.916-40.227-40.228-40.227h-10.48V209.678z"/>
</g>
<g>
</g>
<g>
</g>
<g>
</g>
<g>
</g>
<g>
</g>
<g>
</g>
<g>
</g>
<g>
</g>
<g>
</g>
<g>
</g>
<g>
</g>
<g>
</g>
<g>
</g>
<g>
</g>
<g>
</g>
</svg>
