<?xml version="1.0" encoding="iso-8859-1"?>
<!-- Generator: Adobe Illustrator 19.0.0, SVG Export Plug-In . SVG Version: 6.00 Build 0)  -->
<svg version="1.1" id="Capa_1" xmlns="http://www.w3.org/2000/svg" xmlns:xlink="http://www.w3.org/1999/xlink" x="0px" y="0px"
	 viewBox="0 0 506.752 506.752" style="enable-background:new 0 0 506.752 506.752;" xml:space="preserve">
<path style="fill:#719C40;" d="M174.16,46.256c6.432,51.408,51.168,78.848,99.904,61.296
	C267.632,56.144,222.912,28.704,174.16,46.256z"/>
<path style="fill:#9A795F;" d="M255.968,167.968c-1.216,0-2.464-0.176-3.68-0.56c-6.512-2.048-10.16-8.976-8.112-15.488l4.4-14.032
	c16.704-53.44,60.848-94.96,115.2-108.368c6.64-1.6,13.328,2.416,14.976,9.04c1.632,6.624-2.416,13.328-9.04,14.976
	c-46.016,11.344-83.392,46.496-97.536,91.728l-4.4,14.032C266.112,164.592,261.232,167.968,255.968,167.968z"/>
<g>
	<circle style="fill:#77589F;" cx="202.704" cy="270.8" r="60.272"/>
	<circle style="fill:#77589F;" cx="304.096" cy="270.8" r="60.272"/>
	<circle style="fill:#77589F;" cx="405.392" cy="270.8" r="60.272"/>
	<circle style="fill:#77589F;" cx="101.36" cy="270.8" r="60.272"/>
	<circle style="fill:#77589F;" cx="253.376" cy="182.8" r="60.272"/>
	<circle style="fill:#77589F;" cx="354.72" cy="182.8" r="60.272"/>
	<circle style="fill:#77589F;" cx="152.032" cy="182.8" r="60.272"/>
	<circle style="fill:#77589F;" cx="253.376" cy="359.504" r="60.272"/>
	<circle style="fill:#77589F;" cx="354.72" cy="359.504" r="60.272"/>
	<circle style="fill:#77589F;" cx="152.032" cy="359.504" r="60.272"/>
	<circle style="fill:#77589F;" cx="304.096" cy="446.48" r="60.272"/>
	<circle style="fill:#77589F;" cx="202.704" cy="446.48" r="60.272"/>
</g>
<g>
	<circle style="fill:#8066AA;" cx="202.704" cy="270.8" r="41.072"/>
	<circle style="fill:#8066AA;" cx="304.096" cy="270.8" r="41.072"/>
	<circle style="fill:#8066AA;" cx="405.392" cy="270.8" r="41.072"/>
	<circle style="fill:#8066AA;" cx="101.36" cy="270.8" r="41.072"/>
	<circle style="fill:#8066AA;" cx="253.376" cy="182.8" r="41.072"/>
	<circle style="fill:#8066AA;" cx="354.72" cy="182.8" r="41.072"/>
	<circle style="fill:#8066AA;" cx="152.032" cy="182.8" r="41.072"/>
	<circle style="fill:#8066AA;" cx="253.376" cy="359.504" r="41.072"/>
	<circle style="fill:#8066AA;" cx="354.72" cy="359.504" r="41.072"/>
	<circle style="fill:#8066AA;" cx="152.032" cy="359.504" r="41.072"/>
	<circle style="fill:#8066AA;" cx="304.096" cy="446.48" r="41.072"/>
	<circle style="fill:#8066AA;" cx="202.704" cy="446.48" r="41.072"/>
</g>
<g>
	<path style="fill:#8D7FB6;" d="M182.448,182.8c0,0,0.736,2.944,0.16,7.664c-0.48,4.672-3.2,10.672-7.632,15.28
		c-4.624,4.448-10.608,7.168-15.28,7.648c-4.672,0.576-7.664-0.176-7.664-0.176s12.32-2.048,20.08-10.352
		C180.416,195.12,182.448,182.8,182.448,182.8z"/>
	<path style="fill:#8D7FB6;" d="M283.792,182.8c0,0,0.736,2.944,0.16,7.664c-0.48,4.672-3.2,10.672-7.632,15.28
		c-4.624,4.448-10.608,7.168-15.28,7.648c-4.672,0.56-7.664-0.176-7.664-0.176s12.32-2.048,20.08-10.352
		C281.76,195.12,283.792,182.8,283.792,182.8z"/>
	<path style="fill:#8D7FB6;" d="M385.136,182.8c0,0,0.736,2.944,0.16,7.664c-0.48,4.672-3.2,10.672-7.632,15.28
		c-4.624,4.448-10.608,7.168-15.28,7.648c-4.672,0.576-7.664-0.176-7.664-0.176s12.32-2.048,20.08-10.352
		C383.104,195.12,385.136,182.8,385.136,182.8z"/>
	<path style="fill:#8D7FB6;" d="M182.448,359.504c0,0,0.736,2.944,0.16,7.664c-0.48,4.672-3.2,10.672-7.632,15.28
		c-4.624,4.448-10.608,7.168-15.28,7.648c-4.672,0.576-7.664-0.176-7.664-0.176s12.32-2.048,20.08-10.352
		C180.416,371.84,182.448,359.504,182.448,359.504z"/>
	<path style="fill:#8D7FB6;" d="M283.792,359.504c0,0,0.736,2.944,0.16,7.664c-0.48,4.672-3.2,10.672-7.632,15.28
		c-4.624,4.448-10.608,7.168-15.28,7.648c-4.672,0.576-7.664-0.16-7.664-0.16s12.32-2.048,20.08-10.352
		C281.76,371.84,283.792,359.504,283.792,359.504z"/>
	<path style="fill:#8D7FB6;" d="M385.136,359.504c0,0,0.736,2.944,0.16,7.664c-0.48,4.672-3.2,10.672-7.632,15.28
		c-4.624,4.448-10.608,7.168-15.28,7.648c-4.672,0.576-7.664-0.176-7.664-0.176s12.32-2.048,20.08-10.352
		C383.104,371.84,385.136,359.504,385.136,359.504z"/>
	<path style="fill:#8D7FB6;" d="M334.464,446.448c0,0,0.736,2.944,0.16,7.664c-0.48,4.672-3.2,10.672-7.632,15.28
		c-4.624,4.448-10.608,7.168-15.28,7.648c-4.672,0.576-7.664-0.176-7.664-0.176s12.32-2.048,20.08-10.352
		C332.432,458.768,334.464,446.448,334.464,446.448z"/>
	<path style="fill:#8D7FB6;" d="M233.12,446.448c0,0,0.736,2.944,0.16,7.664c-0.48,4.672-3.2,10.672-7.632,15.28
		c-4.624,4.448-10.608,7.168-15.28,7.648c-4.672,0.576-7.664-0.176-7.664-0.176s12.32-2.048,20.08-10.352
		C231.088,458.768,233.12,446.448,233.12,446.448z"/>
	<path style="fill:#8D7FB6;" d="M435.808,270.816c0,0,0.736,2.944,0.16,7.664c-0.48,4.672-3.2,10.672-7.632,15.28
		c-4.624,4.448-10.608,7.168-15.28,7.648c-4.672,0.576-7.664-0.176-7.664-0.176s12.32-2.048,20.08-10.352
		C433.776,283.152,435.808,270.816,435.808,270.816z"/>
	<path style="fill:#8D7FB6;" d="M334.464,270.816c0,0,0.736,2.944,0.16,7.664c-0.48,4.672-3.2,10.672-7.632,15.28
		c-4.624,4.448-10.608,7.168-15.28,7.648c-4.672,0.576-7.664-0.176-7.664-0.176s12.32-2.048,20.08-10.352
		C332.432,283.152,334.464,270.816,334.464,270.816z"/>
	<path style="fill:#8D7FB6;" d="M233.12,270.816c0,0,0.736,2.944,0.16,7.664c-0.48,4.672-3.2,10.672-7.632,15.28
		c-4.624,4.448-10.608,7.168-15.28,7.648c-4.672,0.576-7.664-0.176-7.664-0.176s12.32-2.048,20.08-10.352
		C231.088,283.152,233.12,270.816,233.12,270.816z"/>
	<path style="fill:#8D7FB6;" d="M131.776,270.816c0,0,0.736,2.944,0.16,7.664c-0.48,4.672-3.2,10.672-7.632,15.28
		c-4.624,4.448-10.608,7.168-15.28,7.648c-4.672,0.576-7.664-0.176-7.664-0.176s12.32-2.048,20.08-10.352
		C129.744,283.152,131.776,270.816,131.776,270.816z"/>
</g>
<path style="fill:#8BC540;" d="M227.472,0c49.984,13.616,70.848,61.76,46.608,107.552C224.096,93.936,203.216,45.792,227.472,0z"/>
<g>
</g>
<g>
</g>
<g>
</g>
<g>
</g>
<g>
</g>
<g>
</g>
<g>
</g>
<g>
</g>
<g>
</g>
<g>
</g>
<g>
</g>
<g>
</g>
<g>
</g>
<g>
</g>
<g>
</g>
</svg>
