<?xml version="1.0" encoding="iso-8859-1"?>
<!-- Generator: Adobe Illustrator 19.0.0, SVG Export Plug-In . SVG Version: 6.00 Build 0)  -->
<svg version="1.1" id="Capa_1" xmlns="http://www.w3.org/2000/svg" xmlns:xlink="http://www.w3.org/1999/xlink" x="0px" y="0px"
	 viewBox="0 0 512 512" style="enable-background:new 0 0 512 512;" xml:space="preserve">
<g>
	<rect x="27.733" y="92.8" style="fill:#E8EAE9;" width="114.133" height="376.533"/>
	<rect x="369.067" y="92.8" style="fill:#E8EAE9;" width="114.133" height="376.533"/>
</g>
<rect x="142.933" y="61.867" style="fill:#F3F3F3;" width="227.2" height="407.467"/>
<g>
	<rect x="180.267" y="104.533" style="fill:#55C0EB;" width="152.533" height="40.533"/>
	<rect x="180.267" y="192" style="fill:#55C0EB;" width="152.533" height="40.533"/>
	<rect x="180.267" y="278.4" style="fill:#55C0EB;" width="152.533" height="40.533"/>
</g>
<rect x="206.933" y="364.8" style="fill:#415A6B;" width="98.133" height="105.6"/>
<rect x="114.133" style="fill:#F3705A;" width="283.733" height="61.867"/>
<g>
	<rect x="61.867" y="132.267" style="fill:#55C0EB;" width="48" height="70.4"/>
	<rect x="402.133" y="132.267" style="fill:#55C0EB;" width="48" height="70.4"/>
	<rect x="61.867" y="247.467" style="fill:#55C0EB;" width="48" height="70.4"/>
	<rect x="402.133" y="247.467" style="fill:#55C0EB;" width="48" height="70.4"/>
	<rect x="61.867" y="362.667" style="fill:#55C0EB;" width="48" height="70.4"/>
	<rect x="402.133" y="362.667" style="fill:#55C0EB;" width="48" height="70.4"/>
</g>
<rect y="469.333" style="fill:#4EC0AA;" width="512" height="42.667"/>
<g>
</g>
<g>
</g>
<g>
</g>
<g>
</g>
<g>
</g>
<g>
</g>
<g>
</g>
<g>
</g>
<g>
</g>
<g>
</g>
<g>
</g>
<g>
</g>
<g>
</g>
<g>
</g>
<g>
</g>
</svg>
