<?xml version="1.0" encoding="iso-8859-1"?>
<!-- Generator: Adobe Illustrator 19.0.0, SVG Export Plug-In . SVG Version: 6.00 Build 0)  -->
<svg version="1.1" id="Capa_1" xmlns="http://www.w3.org/2000/svg" xmlns:xlink="http://www.w3.org/1999/xlink" x="0px" y="0px"
	 viewBox="0 0 468.293 468.293" style="enable-background:new 0 0 468.293 468.293;" xml:space="preserve">
<g>
	<path style="fill:#DC8744;" d="M38.285,85.181l-2.732-17.317h60.916V44.259h-74.73c-3.452,0-6.731,1.51-8.973,4.138
		c-2.242,2.622-3.221,6.097-2.685,9.503l4.887,30.958c11.335,71.786,71.299,124.161,143.464,126.329v-23.605
		C97.955,189.426,47.793,145.418,38.285,85.181z"/>
	<path style="fill:#DC8744;" d="M455.526,48.397c-2.242-2.628-5.521-4.138-8.973-4.138H362.76v23.605h69.979l-2.732,17.317
		c-8.536,54.076-49.811,95.168-101.917,104.57v23.801c63.83-9.654,114.868-59.052,125.234-124.694l4.887-30.958
		C458.748,54.494,457.768,51.019,455.526,48.397z"/>
</g>
<g>
	<path style="fill:#FCD462;" d="M73.339,0v44.9c0,74.214,29.481,145.389,81.958,197.867l78.848,78.848h0.001l78.848-78.848
		c52.477-52.477,81.96-123.653,81.96-197.867V0H73.339z"/>
	<rect x="214.322" y="274.295" style="fill:#FCD462;" width="39.643" height="102.637"/>
</g>
<g>
	<path style="fill:#2F4859;" d="M292.925,343.033H175.368c-10.711,0-19.394,8.683-19.394,19.393v82.129h156.345v-82.129
		C312.319,351.716,303.636,343.033,292.925,343.033z"/>
	<path style="fill:#2F4859;" d="M318.615,428.687H149.678c-10.936,0-19.803,8.866-19.803,19.803
		c0,10.937,8.866,19.803,19.803,19.803h168.937c10.936,0,19.803-8.866,19.803-19.803
		C338.418,437.553,329.552,428.687,318.615,428.687z"/>
</g>
<g>
</g>
<g>
</g>
<g>
</g>
<g>
</g>
<g>
</g>
<g>
</g>
<g>
</g>
<g>
</g>
<g>
</g>
<g>
</g>
<g>
</g>
<g>
</g>
<g>
</g>
<g>
</g>
<g>
</g>
</svg>
