<svg height="512" viewBox="0 0 128 128" width="512" xmlns="http://www.w3.org/2000/svg"><g><path d="m76.786 101.373v15.627a4 4 0 0 1 -4 4h-17.572a4 4 0 0 1 -4-4v-15.627z" fill="#80d4ff"/><path d="m96.336 55.2a32.337 32.337 0 1 0 -55.919 22.123 24.5 24.5 0 0 1 6.8 16.731v3.319a4 4 0 0 0 4 4h25.569a4 4 0 0 0 4-4v-3.318a23.56 23.56 0 0 1 6.476-16.4 32.227 32.227 0 0 0 9.074-22.455z" fill="#ffd92e"/><path d="m87.059 59.474v-8.44h-5.454a17.836 17.836 0 0 0 -2.177-5.24l3.861-3.861-5.968-5.968-3.861 3.861a17.836 17.836 0 0 0 -5.24-2.177v-5.449h-8.44v5.461a18.01 18.01 0 0 0 -5.238 2.172l-3.863-3.863-5.968 5.968 3.863 3.862a18.01 18.01 0 0 0 -2.174 5.234h-5.459v8.44h5.459a17.853 17.853 0 0 0 2.177 5.241l-3.861 3.86 5.968 5.968 3.861-3.861a17.836 17.836 0 0 0 5.24 2.177v5.454h8.44v-5.461a18.01 18.01 0 0 0 5.238-2.172l3.863 3.863 5.968-5.968-3.863-3.863a18.01 18.01 0 0 0 2.169-5.238zm-23.059 5.59a9.81 9.81 0 1 1 9.809-9.81 9.81 9.81 0 0 1 -9.809 9.81z" fill="#80d4ff"/><g fill="#ffd92e"><path d="m64 16.362a1.751 1.751 0 0 1 -1.75-1.75v-7.612a1.75 1.75 0 0 1 3.5 0v7.612a1.751 1.751 0 0 1 -1.75 1.75z"/><path d="m112.2 56.95h-7.611a1.75 1.75 0 0 1 0-3.5h7.611a1.75 1.75 0 0 1 0 3.5z"/><path d="m23.412 56.95h-7.612a1.75 1.75 0 1 1 0-3.5h7.612a1.75 1.75 0 0 1 0 3.5z"/><path d="m92.7 28.249a1.75 1.75 0 0 1 -1.237-2.987l5.382-5.382a1.75 1.75 0 0 1 2.474 2.475l-5.382 5.382a1.74 1.74 0 0 1 -1.237.512z"/><path d="m29.918 91.032a1.751 1.751 0 0 1 -1.237-2.988l5.382-5.382a1.75 1.75 0 0 1 2.475 2.475l-5.383 5.382a1.743 1.743 0 0 1 -1.237.513z"/><path d="m98.082 91.032a1.741 1.741 0 0 1 -1.237-.513l-5.382-5.382a1.75 1.75 0 1 1 2.474-2.475l5.382 5.382a1.751 1.751 0 0 1 -1.237 2.988z"/><path d="m35.3 28.249a1.742 1.742 0 0 1 -1.237-.512l-5.382-5.382a1.75 1.75 0 1 1 2.474-2.475l5.383 5.382a1.75 1.75 0 0 1 -1.238 2.987z"/></g><path d="m51.214 109.436h25.572v3.5h-25.572z" fill="#6ebaff"/></g></svg>