<?xml version="1.0" encoding="UTF-8"?>
<svg xmlns="http://www.w3.org/2000/svg" xmlns:xlink="http://www.w3.org/1999/xlink" width="512" height="512" viewBox="0 0 58 58" version="1.1"><!-- Generator: Sketch 49.3 (51167) - http://www.bohemiancoding.com/sketch --><title>027 - Cloud Storage</title><desc>Created with Sketch.</desc><defs/><g id="Page-1" stroke="none" stroke-width="1" fill="none" fill-rule="evenodd"><g id="027---Cloud-Storage" transform="translate(-1.000000, 0.000000)" fill-rule="nonzero"><rect id="Rectangle-path" fill="#7F8C8D" x="27" y="38" width="6" height="14"/><path d="M59,30.59 C59.1340176,35.6511945 55.1411261,39.8634264 50.08,40 L9.92,40 C4.85887387,39.8634264 0.86598235,35.6511945 1,30.59 C0.918210234,26.1340557 4.01716986,22.2498584 8.38,21.34 C7.92428893,19.7567294 7.6920435,18.1175479 7.69,16.47 C7.69,7.36 14.67,0 23.31,0 C28.9060186,0.0546581472 34.0337422,3.13511895 36.71,8.05 C38.0989602,7.39683648 39.6151282,7.05877201 41.15,7.06 C47.31,7.06 52.31,12.33 52.31,18.82 C52.3069477,19.6912612 52.2097162,20.5596394 52.02,21.41 C56.1898087,22.4873628 59.0765303,26.2839394 59,30.59 Z" id="Shape" fill="#84B5CB"/><path d="M24,56 L3,56 C1.89677769,55.9967543 1.00324566,55.1032223 1,54 C0.99720347,53.4694147 1.21016347,52.9604764 1.59,52.59 C1.9604731,52.2101586 2.46941358,51.9971977 3,52 L57,52 C58.1032314,52.0032238 58.9967762,52.8967686 59,54 C58.99201,55.1012429 58.1012429,55.99201 57,56 L24,56 Z" id="Shape" fill="#7F8C8D"/><rect id="Rectangle-path" fill="#5E5F62" x="24" y="50" width="12" height="8" rx="2"/></g></g></svg>
