<svg id="Capa_1" enable-background="new 0 0 512 512" height="512" viewBox="0 0 512 512" width="512" xmlns="http://www.w3.org/2000/svg"><g><circle cx="256" cy="256" fill="#80b6fc" r="115.821"/><path d="m512 272.973v-33.945c0-5.187-3.819-9.581-8.955-10.305l-55.266-7.784c-3.432-.483-6.198-3.046-6.954-6.428-1.136-5.084-2.475-10.09-4.01-15.01-1.031-3.306.083-6.901 2.811-9.034l43.959-34.366c4.086-3.194 5.196-8.91 2.603-13.402l-16.973-29.398c-2.593-4.492-8.098-6.388-12.908-4.447l-51.781 20.903c-3.211 1.296-6.883.464-9.229-2.083-3.507-3.805-7.168-7.466-10.973-10.973-2.546-2.347-3.379-6.018-2.083-9.229l20.903-51.781c1.941-4.81.045-10.314-4.447-12.908l-29.398-16.973c-4.492-2.593-10.207-1.483-13.402 2.603l-34.366 43.959c-2.133 2.728-5.728 3.843-9.033 2.811-4.92-1.535-9.927-2.874-15.01-4.01-3.383-.756-5.945-3.521-6.428-6.954l-7.784-55.266c-.722-5.134-5.117-8.953-10.303-8.953h-33.945c-5.187 0-9.581 3.819-10.305 8.955l-7.784 55.266c-.483 3.432-3.046 6.198-6.428 6.954-5.083 1.135-10.09 2.475-15.01 4.01-3.306 1.031-6.901-.083-9.033-2.811l-34.366-43.959c-3.194-4.086-8.91-5.196-13.402-2.603l-29.398 16.973c-4.492 2.593-6.388 8.098-4.447 12.908l20.903 51.78c1.296 3.211.464 6.882-2.083 9.229-3.805 3.507-7.466 7.168-10.973 10.973-2.347 2.546-6.018 3.379-9.229 2.083l-51.781-20.903c-4.81-1.942-10.314-.045-12.908 4.447l-16.973 29.398c-2.593 4.492-1.483 10.207 2.603 13.402l43.959 34.366c2.728 2.133 3.843 5.728 2.811 9.034-1.535 4.92-2.874 9.927-4.01 15.01-.756 3.383-3.521 5.945-6.954 6.428l-55.266 7.784c-5.135.722-8.954 5.117-8.954 10.303v33.945c0 5.187 3.819 9.581 8.955 10.305l55.266 7.784c3.432.483 6.198 3.046 6.954 6.428 1.135 5.084 2.475 10.09 4.01 15.01 1.031 3.306-.083 6.901-2.811 9.034l-43.959 34.366c-4.086 3.194-5.196 8.91-2.603 13.402l16.973 29.398c2.593 4.492 8.098 6.388 12.908 4.447l51.781-20.903c3.211-1.296 6.883-.464 9.229 2.083 3.507 3.805 7.168 7.466 10.973 10.973 2.546 2.347 3.379 6.018 2.083 9.229l-20.903 51.78c-1.942 4.81-.045 10.314 4.447 12.908l29.398 16.973c4.492 2.593 10.207 1.483 13.402-2.603l34.366-43.959c2.133-2.728 5.728-3.843 9.033-2.811 4.92 1.535 9.927 2.874 15.01 4.01 3.383.756 5.945 3.521 6.428 6.954l7.784 55.266c.723 5.136 5.118 8.955 10.305 8.955h33.945c5.187 0 9.581-3.819 10.305-8.955l7.784-55.266c.483-3.432 3.046-6.198 6.428-6.954 5.083-1.135 10.09-2.475 15.01-4.01 3.306-1.031 6.901.083 9.033 2.811l34.366 43.959c3.194 4.086 8.91 5.196 13.402 2.603l29.398-16.973c4.492-2.593 6.388-8.098 4.447-12.908l-20.903-51.781c-1.296-3.211-.464-6.883 2.083-9.229 3.805-3.507 7.466-7.168 10.973-10.973 2.347-2.546 6.018-3.379 9.229-2.083l51.781 20.903c4.81 1.941 10.314.045 12.908-4.447l16.973-29.398c2.593-4.492 1.483-10.207-2.603-13.402l-43.959-34.366c-2.728-2.133-3.843-5.728-2.811-9.034 1.535-4.92 2.874-9.927 4.01-15.01.756-3.383 3.521-5.945 6.954-6.428l55.266-7.784c5.133-.722 8.952-5.117 8.952-10.303zm-256 131.713c-82.117 0-148.686-66.569-148.686-148.686s66.569-148.686 148.686-148.686 148.686 66.569 148.686 148.686-66.569 148.686-148.686 148.686z" fill="#80b6fc"/><g fill="#62a4fb"><path d="m396.592 71.927 6.554-16.235c1.941-4.809.045-10.315-4.447-12.908l-29.398-16.973c-2.069-1.194-4.396-1.594-6.618-1.288 13.129 14.31 24.544 30.217 33.909 47.404z"/><path d="m440.825 297.49c.756-3.383 3.521-5.945 6.954-6.428l55.266-7.784c5.136-.723 8.955-5.118 8.955-10.305v-33.946c0-5.186-3.819-9.581-8.955-10.305l-55.266-7.784c-3.432-.483-6.198-3.046-6.954-6.428-1.135-5.084-2.475-10.09-4.01-15.01-1.031-3.306.083-6.901 2.811-9.034l43.959-34.366c4.086-3.194 5.196-8.91 2.603-13.402l-16.973-29.398c-2.593-4.492-8.098-6.388-12.908-4.447l-38.749 15.642c5.252 19.71 8.066 40.415 8.066 61.78 0 39.243-9.444 76.28-26.184 108.962-13.803 50.574-53.63 90.4-104.203 104.203-32.682 16.74-69.719 26.184-108.962 26.184-21.365 0-42.069-2.815-61.78-8.067l-15.642 38.749c-1.941 4.809-.045 10.314 4.447 12.908l29.398 16.973c4.492 2.593 10.207 1.483 13.402-2.603l34.366-43.959c2.133-2.728 5.728-3.842 9.033-2.811 4.92 1.535 9.927 2.874 15.01 4.01 3.383.756 5.945 3.521 6.428 6.954l7.784 55.266c.723 5.136 5.118 8.955 10.305 8.955h33.945c5.187 0 9.581-3.819 10.305-8.955l7.784-55.266c.483-3.432 3.046-6.198 6.428-6.954 5.084-1.136 10.09-2.475 15.01-4.01 3.306-1.031 6.901.083 9.033 2.811l34.366 43.959c3.194 4.086 8.91 5.196 13.402 2.603l29.398-16.973c4.492-2.593 6.388-8.098 4.447-12.908l-20.903-51.781c-1.296-3.211-.464-6.882 2.083-9.229 3.805-3.507 7.466-7.168 10.973-10.973 2.347-2.546 6.018-3.379 9.229-2.083l51.781 20.903c4.81 1.942 10.314.045 12.908-4.447l16.973-29.398c2.593-4.492 1.483-10.207-2.603-13.402l-43.959-34.366c-2.728-2.133-3.843-5.728-2.811-9.034 1.536-4.916 2.875-9.923 4.01-15.006z"/><path d="m24.523 362.684c-.306 2.222.094 4.549 1.288 6.618l16.973 29.398c2.593 4.492 8.098 6.388 12.908 4.447l16.235-6.554c-17.187-9.366-33.094-20.781-47.404-33.909z"/></g><g fill="#d3effd"><circle cx="256" cy="256" r="16.65"/><circle cx="322.602" cy="256" r="16.65"/><circle cx="189.398" cy="256" r="16.65"/></g></g></svg>