<svg id="Capa_1" enable-background="new 0 0 512 512" height="512" viewBox="0 0 512 512" width="512" xmlns="http://www.w3.org/2000/svg"><g><circle cx="183.152" cy="255.585" fill="#00c27a" r="183.152"/><path d="m366.3 255.587c0 101.145-81.998 183.154-183.154 183.154-15.627 0-30.801-1.961-45.282-5.646 6.379.681 12.851 1.022 19.405 1.022 101.156 0 183.154-81.998 183.154-183.154 0-85.528-58.608-157.349-137.861-177.508 92.031 9.693 163.738 87.531 163.738 182.132z" fill="#08b865"/><g><path d="m193.694 296.44c0 40.865 21.93 40.865 21.93 81.729 0 32.007-13.45 38.942-19.282 60.094-4.35.315-8.753.473-13.187.473-9.972 0-19.755-.799-29.295-2.333 6.084-19.723 18.746-27.184 18.746-58.234 0-40.865-21.93-40.865-21.93-81.729 0-40.865 21.93-40.865 21.93-81.729 0-40.854-21.93-40.854-21.93-81.719 0-32.007 13.45-38.942 19.282-60.083 4.361-.315 8.763-.473 13.198-.473 9.972 0 19.755.799 29.285 2.333-6.084 19.713-18.746 27.173-18.746 58.223 0 40.865 21.93 40.865 21.93 81.719-.002 40.864-21.931 40.864-21.931 81.729z" fill="#bbec6c"/></g><g><path d="m293.832 296.44c0 40.865 21.93 40.865 21.93 81.729 0 1.313-.021 2.595-.063 3.825-15.72 16.466-34.465 30.01-55.344 39.73 5.905-11.191 12.389-21.331 12.389-43.555 0-40.865-21.93-40.865-21.93-81.729 0-40.865 21.93-40.865 21.93-81.729 0-40.854-21.93-40.854-21.93-81.719 0-21.488 6.063-31.681 11.821-42.451 12.042 5.8 23.359 12.893 33.761 21.1-1.566 5.79-2.564 12.641-2.564 21.352 0 40.865 21.93 40.865 21.93 81.719 0 40.863-21.93 40.863-21.93 81.728z" fill="#bbec6c"/></g><g fill="#a2e62e"><g><path d="m157.269 434.116c14.554 0 28.726-1.703 42.3-4.913-1.218 2.766-2.312 5.739-3.231 9.063-1.084.083-2.178.145-3.272.206-3.319.188-6.58.258-9.909.258-6.2 0-12.322-.304-18.466-.919-2.593-.259-5.132-.577-7.7-.95-.324-.047-3.007-.172-3.128-.475.248-.784.495-1.548.764-2.292.877.012 1.765.022 2.642.022z"/><path d="m212.44 74.766c-.145.465-.289.929-.444 1.373-3.097-.981-6.234-1.868-9.403-2.673.217.01.444.041.661.072 2.966.423 5.905.642 8.846 1.177.113.02.227.031.34.051z"/></g><g><path d="m258.538 98.342c1.321-2.673 2.715-5.222 4.098-7.803.244-.395 10.321 5.389 11.065 5.811 7.314 4.156 14.451 8.928 21.108 14.048.537.413 1.063.826 1.59 1.239-1.321 4.872-2.24 10.508-2.498 17.362-10.414-11.665-22.295-21.987-35.363-30.657z"/><path d="m315.764 378.171c0 1.301-.021 2.581-.062 3.819-.279.289-.547.568-.836.857-4.213 4.213-8.468 8.387-13.016 12.251-1.662 1.412-3.354 2.79-5.068 4.14-7.14 5.621-14.617 10.709-22.471 15.235-4.531 2.612-9.186 5.027-13.955 7.246 4.253-8.072 8.815-15.586 11.024-27.487 15.483-12.345 28.922-27.147 39.719-43.827 2.724 7.071 4.665 15.607 4.665 27.766z"/></g></g><g><g><path d="m93.555 296.44c0 40.865 21.93 40.865 21.93 81.729 0 21.499-6.063 31.681-11.821 42.462-12.042-5.811-23.359-12.904-33.762-21.11 1.566-5.79 2.564-12.641 2.564-21.352 0-40.865-21.93-40.865-21.93-81.729 0-40.865 21.93-40.865 21.93-81.729 0-40.854-21.93-40.854-21.93-81.719 0-1.303.021-2.564.063-3.793 15.709-16.476 34.465-30.021 55.355-39.751-5.916 11.191-12.399 21.331-12.399 43.544 0 40.865 21.93 40.865 21.93 81.719 0 40.864-21.93 40.864-21.93 81.729z" fill="#bbec6c"/></g></g><path d="m424.098 215.251-123.237 167.009c-3.285 4.452-2.421 10.707 1.954 14.094.206.159.415.321.629.485 57.448 44.186 134.005 54.949 201.409 28.315.25-.099.497-.197.738-.293 5.139-2.05 7.694-7.824 5.764-13.009l-72.413-194.513c-2.362-6.347-10.824-7.536-14.844-2.088z" fill="#00c27a"/><path d="m424.098 215.251-109.298 148.12-.536 4.131-11.302 15.944c-3.285 4.452-.727 5.291 3.648 8.678.206.159.415.321.629.485 8.799 6.768 18.091 12.899 27.803 18.277 9.512 5.268 19.426 9.812 29.643 13.536 10.052 3.664 20.396 6.531 30.906 8.532 10.459 1.992 21.082 3.125 31.726 3.37 10.731.247 21.481-.409 32.103-1.95 10.862-1.576 21.587-4.076 32.038-7.43 2.775-.89 5.53-1.841 8.264-2.849 2.615-.964 5.567-1.812 7.895-3.337 3.113-2.038 1.366-7.101.216-9.79l-6.79-15.89 2.122-5.228-64.223-172.514c-2.362-6.344-10.824-7.533-14.844-2.085z" fill="#e94444"/><path d="m505.333 423.236c-.248.103-.495.196-.743.299-6.833 2.704-14.154 5.016-21.142 6.957 4.211-2.55 6.809-6.264 5.086-11.084l-70.314-196.19 5.873-7.969c4.026-5.45 12.49-4.253 14.853 2.085l64.217 172.512-.892 2.181 7.101 19.778c1.93 5.181 1.091 9.387-4.039 11.431z" fill="#d83131"/><g><g><g><path d="m381.908 353.512c-.375 0-.753-.028-1.134-.086-4.096-.621-6.912-4.444-6.291-8.539l1.791-11.814c.62-4.097 4.454-6.914 8.539-6.291 4.096.621 6.912 4.444 6.291 8.539l-1.791 11.814c-.562 3.714-3.76 6.377-7.405 6.377z" fill="#cc2121"/></g><g><path d="m440.271 362.358c-.375 0-.753-.028-1.134-.086-4.096-.621-6.912-4.444-6.291-8.539l1.791-11.814c.62-4.097 4.453-6.915 8.539-6.291 4.096.621 6.912 4.444 6.291 8.539l-1.791 11.814c-.563 3.715-3.761 6.377-7.405 6.377z" fill="#cc2121"/></g></g><g><g><g><path d="m417.126 318.109c-.375 0-.753-.028-1.134-.086-4.096-.621-6.912-4.444-6.291-8.539l1.791-11.814c.62-4.097 4.454-6.917 8.539-6.291 4.096.621 6.912 4.444 6.291 8.539l-1.791 11.814c-.562 3.714-3.76 6.377-7.405 6.377z" fill="#cc2121"/></g></g></g></g><path d="m505.593 424.861c-.24.094-.491.197-.741.29-67.401 26.64-143.965 15.877-201.408-28.314-.214-.158-.427-.326-.632-.483-4.374-3.385-5.239-9.637-1.952-14.094l13.153-17.82.788-1.067c54.667 38.981 125.064 48.877 188.359 26.48l8.193 21.999c1.933 5.189-.623 10.961-5.76 13.009z" fill="#00c27a"/><path d="m508.837 422.783c-2.306 2.198-5.669 3.041-8.588 4.119-3.076 1.135-6.172 2.188-9.279 3.169-2.271.712-4.542 1.383-6.823 2.013 4.18-2.55 6.1-7.876 4.387-12.675l-8.216-22.925c7.69-1.755 15.318-3.964 22.842-6.627l8.196 21.996c1.465 3.932.35 8.195-2.519 10.93z" fill="#08b865"/></g></svg>