<svg id="Capa_1" enable-background="new 0 0 512 512" height="512" viewBox="0 0 512 512" width="512" xmlns="http://www.w3.org/2000/svg"><g><path d="m256.01 0h-.01c-141.61 0-256 114.43-256 256 0 141.61 114.43 256 256 256h.01c141.61-.01 255.99-114.43 255.99-256 0-141.61-114.42-255.99-255.99-256z" fill="#fabe2c"/><path d="m512 256c0 141.57-114.38 255.99-255.99 256v-512c141.57.01 255.99 114.39 255.99 256z" fill="#ff9100"/><path d="m482 256c0 125.09-100.85 225.99-225.99 226h-.01c-125.09 0-226-100.86-226-226 0-125.09 100.86-226 226-226h.01c125.09.01 225.99 100.86 225.99 226z" fill="#fed843"/><path d="m482 256c0 125.09-100.85 225.99-225.99 226v-452c125.09.01 225.99 100.86 225.99 226z" fill="#fabe2c"/><path d="m396.884 151h30v30h-30z" fill="#ff9100" transform="matrix(.866 -.5 .5 .866 -27.818 228.184)"/><path d="m85.115 331h30v30h-30z" fill="#fabe2c" transform="matrix(.866 -.5 .5 .866 -159.588 96.414)"/><path d="m331 396.884h30v30h-30z" fill="#ff9100" transform="matrix(.866 -.5 .5 .866 -159.587 228.18)"/><path d="m151 85.115h30v30h-30z" fill="#fabe2c" transform="matrix(.866 -.5 .5 .866 -27.818 96.412)"/><path d="m331 85.116h30v30h-30z" fill="#ff9100" transform="matrix(.5 -.866 .866 .5 86.296 349.701)"/><path d="m151 396.885h30v30h-30z" fill="#fabe2c" transform="matrix(.5 -.866 .866 .5 -273.702 349.7)"/><path d="m396.885 331h30v30h-30z" fill="#ff9100" transform="matrix(.5 -.866 .866 .5 -93.702 529.704)"/><path d="m85.116 151h30v30h-30z" fill="#fabe2c" transform="matrix(.5 -.866 .866 .5 -93.703 169.703)"/><path d="m421 241h30v30h-30z" fill="#ff9100"/><path d="m61 241h30v30h-30z" fill="#fabe2c"/><path d="m241 421h30v30h-30z" fill="#fabe2c"/><path d="m256.01 421h14.99v30h-14.99z" fill="#ff9100"/><path d="m241 61h30v30h-30z" fill="#fabe2c"/><path d="m256.01 61h14.99v30h-14.99z" fill="#ff9100"/><path d="m308.98 295.6 27.99 10.8c-12.99 33.68-38.27 54.6-65.97 54.6-5.24 0-10.24-.7-15-1.99-25.5-6.94-43.92-31.12-52.89-58.01h-37.11v-30h30.75c-.5-4.93-.75-9.94-.75-15s.25-10.07.75-15h-30.75v-30h37.11c9-26.99 27.44-51.08 52.89-58 4.76-1.3 9.76-2 15-2 27.7 0 52.98 20.92 65.97 54.6l-27.99 10.8c-8.42-21.84-22.98-35.4-37.98-35.4-5.23 0-10.29 1.58-15 4.47-8.23 5.03-15.43 14.03-20.71 25.53h35.71v30h-44.05c-.62 4.86-.95 9.88-.95 15s.33 10.14.95 15h44.05v30h-35.71c5.28 11.5 12.48 20.5 20.71 25.53 4.71 2.89 9.77 4.47 15 4.47 15 0 29.56-13.56 37.98-35.4z" fill="#fabe2c"/><g fill="#ff9100"><path d="m256 211h15v30h-15z"/><path d="m256 271h15v30h-15z"/><path d="m308.98 295.6 27.99 10.8c-12.99 33.68-38.27 54.6-65.97 54.6-5.24 0-10.24-.7-15-1.99v-32.48c4.71 2.89 9.77 4.47 15 4.47 15 0 29.56-13.56 37.98-35.4z"/><path d="m271 181c-5.23 0-10.29 1.58-15 4.47v-32.47c4.76-1.3 9.76-2 15-2 27.7 0 52.98 20.92 65.97 54.6l-27.99 10.8c-8.42-21.84-22.98-35.4-37.98-35.4z"/></g></g></svg>