<svg height="512" viewBox="0 0 53 58" width="512" xmlns="http://www.w3.org/2000/svg"><g id="Page-1" fill="none" fill-rule="evenodd"><g id="024---Mobile-Phone-Heartrate"><rect id="Rectangle" fill="#90bae1" height="55" rx="3" width="34" x="10"/><path id="Path" d="m44 3v2s-33.14.97-33.98 45.26c-.0165896-.0856164-.02330015-.1728536-.02-.26v-47c0-1.65685425 1.3431458-3 3-3h4l2.86 3.05c.5663757.60708315 1.3597411.95123705 2.19.95h9.9c.8302589.00123705 1.6236243-.34291685 2.19-.95l2.86-3.05h4c1.6568542 0 3 1.34314575 3 3z" fill="#b0d3f0"/><path id="Path" d="m44 50v5c0 1.6568542-1.3431458 3-3 3h-28c-1.6568542 0-3-1.3431458-3-3v-5c0 1.6568542 1.3431458 3 3 3h28c1.6568542 0 3-1.3431458 3-3z" fill="#547580"/><path id="Path" d="m37 0-2.86 3.05c-.5663757.60708315-1.3597411.95123705-2.19.95h-9.9c-.8302589.00123705-1.6236243-.34291685-2.19-.95l-2.86-3.05z" fill="#547580"/><path id="Path" d="m31.535 40.5c-.038 0-.077 0-.116 0-.7499304-.0422203-1.391435-.5534192-1.6-1.275l-6.419-21.68-5.451 18.674c-.2092709.7200018-.8461968 1.2324727-1.5943052 1.2827789-.7481084.0503061-1.4479115-.3722772-1.7516948-1.0577789l-2.864-6.444h-10.739c-.55228475 0-1-.4477153-1-1s.44771525-1 1-1h10.878c.7054048.000683 1.3445546.4158171 1.632 1.06l2.682 6.04 5.487-18.811c.2170585-.764953.9168526-1.2918423 1.712-1.289.7923508-.004113 1.4912399.5180127 1.712 1.279l6.463 21.811 5.234-11.953c.2776671-.6350798.8977062-1.0521565 1.5906053-1.0699396s1.3335162.366939 1.6433947.9869396l1.972 3.946h6.994c.5522847 0 1 .4477153 1 1s-.4477153 1-1 1h-7.126c-.6779449.0031486-1.2986104-.3797245-1.6-.987l-1.828-3.656-5.279 12.072c-.2797591.6521769-.9223581 1.0738825-1.632 1.071z" fill="#ff5364"/><circle id="Oval" cx="50" cy="31" fill="#f3d55b" r="3"/></g></g></svg>