<svg id="Layer_1" enable-background="new 0 0 512 512" height="512" viewBox="0 0 512 512" width="512" xmlns="http://www.w3.org/2000/svg"><g clip-rule="evenodd" fill-rule="evenodd"><path d="m71.732 10h294.393c2.754 0 5.124.982 7.071 2.929l74.143 74.143c1.947 1.947 2.929 4.317 2.929 7.071v397.857c0 5.508-4.492 10-10 10h-368.536c-5.508 0-10-4.492-10-10v-472c.001-5.508 4.493-10 10-10z" fill="#e6e6e6"/><path d="m370.267 10.867c1.062.485 2.04 1.173 2.929 2.062l74.143 74.143c.889.889 1.577 1.867 2.062 2.929h-79.133v-79.134z" fill="#ccc"/><path d="m140.831 113.408c-5.523 0-10-4.477-10-10s4.477-10 10-10h115.169c5.523 0 10 4.477 10 10s-4.477 10-10 10zm0 315.706c-5.523 0-10-4.477-10-10s4.477-10 10-10h230.338c5.523 0 10 4.477 10 10s-4.477 10-10 10zm0-60.4c-5.523 0-10-4.477-10-10s4.477-10 10-10h230.338c5.523 0 10 4.477 10 10s-4.477 10-10 10zm0-60.399c-5.523 0-10-4.477-10-10s4.477-10 10-10h230.338c5.523 0 10 4.477 10 10s-4.477 10-10 10z" fill="#515151"/><path d="m130.831 200.861c0-12.941 5.246-24.657 13.728-33.139 8.481-8.482 20.198-13.728 33.139-13.728s24.657 5.246 33.139 13.728c6.232 6.232 10.717 14.211 12.658 23.139h91.402 37.516 18.758c5.523 0 10 4.477 10 10s-4.477 10-10 10h-8.758v32.063c0 5.523-4.477 10-10 10s-10-4.477-10-10v-32.063h-17.516v17.284c0 5.523-4.477 10-10 10s-10-4.477-10-10v-17.284h-81.401c-1.941 8.928-6.426 16.907-12.658 23.139-8.482 8.482-20.198 13.728-33.139 13.728-12.94 0-24.657-5.246-33.139-13.727-8.483-8.482-13.729-20.199-13.729-33.14zm27.868-18.998c-4.861 4.861-7.868 11.578-7.868 18.998s3.007 14.137 7.868 18.998 11.578 7.868 18.998 7.868 14.137-3.007 18.998-7.868 7.868-11.578 7.868-18.998-3.007-14.137-7.868-18.998-11.578-7.868-18.998-7.868-14.137 3.007-18.998 7.868z" fill="#ffd54f"/></g></svg>