<?xml version="1.0" encoding="iso-8859-1"?>
<!-- Generator: Adobe Illustrator 19.0.0, SVG Export Plug-In . SVG Version: 6.00 Build 0)  -->
<svg version="1.1" id="Capa_1" xmlns="http://www.w3.org/2000/svg" xmlns:xlink="http://www.w3.org/1999/xlink" x="0px" y="0px"
	 viewBox="0 0 512 512" style="enable-background:new 0 0 512 512;" xml:space="preserve">
<path style="fill:#896748;" d="M406,60H106c-24.901,0-45,20.099-45,45v362c0,24.899,20.099,45,45,45h300c24.901,0,45-20.101,45-45
	V105C451,80.099,430.901,60,406,60z"/>
<path style="fill:#73553A;" d="M451,105v362c0,24.899-20.099,45-45,45H256V60h150C430.901,60,451,80.099,451,105z"/>
<path style="fill:#E5E5E5;" d="M406,90H106c-8.401,0-15,6.599-15,15v362c0,8.399,6.599,15,15,15h300c8.401,0,15-6.601,15-15V105
	C421,96.599,414.401,90,406,90z"/>
<path style="fill:#D9D9D9;" d="M421,105v362c0,8.399-6.599,15-15,15H256V90h150C414.401,90,421,96.599,421,105z"/>
<path style="fill:#FEA832;" d="M346,60v30H166V60c0-16.5,13.5-30,30-30h30c0-16.5,13.5-30,30-30s30,13.5,30,30h30
	C332.5,30,346,43.5,346,60z"/>
<path style="fill:#FE9923;" d="M346,60v30h-90V0c16.5,0,30,13.5,30,30h30C332.5,30,346,43.5,346,60z"/>
<path style="fill:#13C37B;" d="M335.501,357.499l-67.5,93.6c-3.001,3.9-7.5,6-12.001,6s-9-2.1-12.001-6l-67.5-93.6
	c-9.3-9.3-2.699-25.499,10.801-25.499H226V197c0-8.401,6.599-15,15-15h30c8.401,0,15,6.599,15,15v135h38.699
	C338.2,332,344.801,348.199,335.501,357.499z"/>
<path style="fill:#0DA656;" d="M335.501,357.499l-67.5,93.6c-3.001,3.9-7.5,6-12.001,6V182h15c8.401,0,15,6.599,15,15v135h38.699
	C338.2,332,344.801,348.199,335.501,357.499z"/>
<g>
</g>
<g>
</g>
<g>
</g>
<g>
</g>
<g>
</g>
<g>
</g>
<g>
</g>
<g>
</g>
<g>
</g>
<g>
</g>
<g>
</g>
<g>
</g>
<g>
</g>
<g>
</g>
<g>
</g>
</svg>
