<?xml version="1.0" encoding="iso-8859-1"?>
<!-- Generator: Adobe Illustrator 19.0.0, SVG Export Plug-In . SVG Version: 6.00 Build 0)  -->
<svg xmlns="http://www.w3.org/2000/svg" xmlns:xlink="http://www.w3.org/1999/xlink" version="1.1" id="Capa_1" x="0px" y="0px" viewBox="0 0 512 512" style="enable-background:new 0 0 512 512;" xml:space="preserve">
<path style="fill:#686D6D;" d="M324.202,511.485H187.798c-2.849,0-5.16-2.31-5.16-5.16v-35.001c0-2.849,2.31-5.16,5.16-5.16h136.405  c2.849,0,5.16,2.31,5.16,5.16v35.001C329.362,509.174,327.052,511.485,324.202,511.485z"/>
<path style="fill:#555656;" d="M324.202,512h-47.52v-45.836h47.52c2.849,0,5.16,2.31,5.16,5.16v35.517  C329.362,509.69,327.052,512,324.202,512z"/>
<g>
	<path style="fill:#686D6D;" d="M199.798,23.395h-30.927c-1.361,0-2.355,1.294-1.992,2.604c2.285,8.26,10.996,33.677,32.919,39.703   V23.395z"/>
	<path style="fill:#686D6D;" d="M199.798,87.386h-30.927c-1.361,0-2.355,1.294-1.992,2.604c2.285,8.26,10.996,33.677,32.919,39.703   V87.386z"/>
	<path style="fill:#686D6D;" d="M199.798,151.375h-30.927c-1.361,0-2.355,1.294-1.992,2.604c2.285,8.26,10.996,33.677,32.919,39.703   V151.375z"/>
	<path style="fill:#686D6D;" d="M312.202,23.395h30.927c1.361,0,2.355,1.294,1.992,2.604c-2.285,8.26-10.996,33.677-32.919,39.703   V23.395z"/>
	<path style="fill:#686D6D;" d="M312.202,87.386h30.927c1.361,0,2.355,1.294,1.992,2.604c-2.285,8.26-10.996,33.677-32.919,39.703   V87.386z"/>
	<path style="fill:#686D6D;" d="M312.202,151.375h30.927c1.361,0,2.355,1.294,1.992,2.604c-2.285,8.26-10.996,33.677-32.919,39.703   V151.375z"/>
	<path style="fill:#686D6D;" d="M307.043,224.762H204.957c-2.849,0-5.16-2.31-5.16-5.16V5.16c0-2.849,2.31-5.16,5.16-5.16h102.086   c2.849,0,5.16,2.31,5.16,5.16v214.444C312.202,222.453,309.892,224.762,307.043,224.762z"/>
</g>
<path style="fill:#555656;" d="M307.043,224.762h-21.644V0h21.644c2.849,0,5.16,2.31,5.16,5.16v214.444  C312.202,222.453,309.892,224.762,307.043,224.762z"/>
<circle style="fill:#F27979;" cx="256" cy="47.194" r="20.683"/>
<circle style="fill:#FFC853;" cx="256" cy="112.38" r="20.683"/>
<circle style="fill:#86B5A5;" cx="256" cy="177.567" r="20.683"/>
<path style="fill:#686D6D;" d="M256,473.656c-4.138,0-7.493-3.354-7.493-7.493V224.762c0-4.139,3.355-7.493,7.493-7.493  c4.138,0,7.493,3.354,7.493,7.493v241.401C263.493,470.303,260.138,473.656,256,473.656z"/>
<g>
</g>
<g>
</g>
<g>
</g>
<g>
</g>
<g>
</g>
<g>
</g>
<g>
</g>
<g>
</g>
<g>
</g>
<g>
</g>
<g>
</g>
<g>
</g>
<g>
</g>
<g>
</g>
<g>
</g>
</svg>
