<svg id="Capa_1" enable-background="new 0 0 512 512" height="512" viewBox="0 0 512 512" width="512" xmlns="http://www.w3.org/2000/svg"><g><g fill="#00f4a8"><path d="m181.353 202.389s14.871 49.664 3.024 98.339l2.194 3.761c22.43-23.163 46.808-64.273 1.992-109.454l-1.224-.415-5.985 1.949v5.82z"/><path d="m196.997 184.061s50.221 23.179 83.444 75.203l4.16 3.148c.753-37.124-11.402-91.524-89.362-90.539l-1.654 1.307-1.052 5.165z"/><path d="m110.003 7.107-1.23 5.945s55.234 76.689 47.457 143.606l1.62 1.906 6.525-3.691 1.092-1.872c40.271-90.728-12.664-129.667-55.464-145.894z"/><path d="m28.817 99.586s57.093 9.193 92.462 40.996c2.245 2.019 4.346 3.904 6.317 5.671l10.681-3.313 1.769-1.915c-31.067-64.08-78.114-59.339-111.229-44.896z"/><path d="m71.258 168.608c-29.932 4.807-42.094 53.483-42.094 53.483l1.744 2.741c31.124-29.515 61.923-41.057 83.716-45.419l1.161-2.016-.578-10.774c-7.454-.708-23.001-1.38-43.949 1.985z"/></g><path d="m32.247 98.183c-1.506-.277-2.649-1.048-3.43-2.054-9.242 4.031-17.4 8.817-23.821 13.074-4.694 3.111-2.401 10.381 3.229 10.288 52.201-.858 87.932 15.554 108.634 29.361h2.36l10.783-3.345c-18.089-17.181-49.162-38.379-97.755-47.324z" fill="#00e49d"/><path d="m160.468 156.217c.99-30.767-5.127-87.07-50.465-149.11-7.971-3.022-15.591-5.258-22.191-6.892-6.531-1.617-11.076 6.274-6.446 11.155 49.105 51.759 60.916 102.81 63.348 131.013l1.245 2.187 11.89 13.993 2.913-1.648z" fill="#00e49d"/><path d="m317.199 171.86s-36.243-41.368-76.677-39.05c-27.423 1.572-48.909 17.077-59.906 26.898l10.214 6.905 2.753.388c26.356-6.441 69.691-10.094 123.617 10.7v-5.841z" fill="#00f4a8"/><path d="m183.276 161.506c60.392-49.896 108.459-13.729 133.923 16.194.497.192.989.371 1.489.567 5.784 2.271 10.962-4.358 7.313-9.387-23.185-31.951-80.633-90.135-154.758-16.468l1.459 1.945z" fill="#00e49d"/><path d="m192.345 179.266-2.302 11.307.646 2.035c21.659 10.679 56.782 34.942 82.265 86.807 2.483 5.054 9.999 3.783 10.63-1.813.586-5.198 1.021-11.223 1.047-17.702-31.117-49.416-68.811-71.254-92.286-80.634z" fill="#00e49d"/><path d="m30.908 224.832c9.507-28.456 32.14-66.152 84.436-55.657l-.72-13.428-1.24-1.935c-63.461-15.254-85.043 38.599-91.927 67.158-1.189 4.934 4.785 8.326 8.445 4.81.335-.322.67-.63 1.006-.948z" fill="#00e49d"/><path d="m186.663 302.523c11.784-49.063 2.387-85.35-6.287-105.636l-9.842 3.205-2.571 2.126c7.578 20.649 15.152 57.621.5 106.333-1.462 4.86 4.28 8.633 8.13 5.326 3.105-2.667 6.518-5.816 9.977-9.388-.087-.618-.073-1.275.093-1.966z" fill="#00e49d"/><path d="m503.91 382.813c-5.827 3.439-12.621 5.413-19.877 5.413-10.866 0-20.697-4.423-27.794-11.567-4.239-4.267-11.107-4.267-15.346 0-7.098 7.143-16.928 11.567-27.795 11.567s-20.697-4.423-27.794-11.567c-4.239-4.267-11.107-4.267-15.346 0-7.098 7.143-16.928 11.567-27.795 11.567-10.866 0-20.697-4.423-27.794-11.567-3.975-4-10.26-4.25-14.523-.749v8.262l40.042 71.597h166.122l5.991-13.92v-54.472c-.001-4.154-4.514-6.675-8.091-4.564z" fill="#60b9fe"/><path d="m299.021 376.659c-7.098 7.143-16.928 11.567-27.795 11.567-1.224 0-2.432-.064-3.627-.173v2.043l49.691 62.262 4.725 3.412h34.817c-14.422-29.981-33.801-56.918-56.988-79.86-.283.233-.558.483-.823.749z" fill="#1ca8ff"/><path d="m484.033 453.593c-10.866 0-20.697-4.423-27.794-11.567-4.239-4.267-11.107-4.267-15.346 0-7.098 7.143-16.928 11.567-27.795 11.567s-20.697-4.423-27.794-11.567c-4.239-4.267-11.107-4.267-15.346 0-4.626 4.656-10.419 8.146-16.899 10.019l16.585 55.925 7.476 4.03h121.163c7.575 0 13.716-6.141 13.716-13.717v-56.434c-7.112 7.245-17.011 11.744-27.966 11.744z" fill="#8bcaff"/><path d="m374.845 503.767c-5.048-18.266-11.815-35.736-20.099-52.252-3.951 1.34-8.18 2.077-12.584 2.077-10.866 0-20.697-4.423-27.794-11.567-.392-.395-.813-.741-1.246-1.062v1.5l27.585 65.459 4.35 4.077h32.063z" fill="#60b9fe"/><path d="m429.606 218.664c-17.261 7.761-29.29 25.087-29.29 45.24s12.029 37.479 29.29 45.24c19.008-6.254 32.737-24.138 32.737-45.24s-13.729-38.987-32.737-45.24z" fill="#ffc365"/><path d="m401.575 263.904c0-20.22 12.607-37.485 30.384-44.395-5.349-2.079-11.16-3.232-17.244-3.232-26.304 0-47.628 21.324-47.628 47.628s21.324 47.628 47.628 47.628c6.084 0 11.895-1.153 17.244-3.232-17.777-6.912-30.384-24.177-30.384-44.397z" fill="#ffa90f"/><g><path d="m503.139 271.63h-12.619c-4.267 0-7.726-3.459-7.726-7.726s3.459-7.726 7.726-7.726h12.619c4.267 0 7.726 3.459 7.726 7.726s-3.459 7.726-7.726 7.726z" fill="#ffc365"/></g><g><path d="m338.909 271.63h-12.619c-4.267 0-7.726-3.459-7.726-7.726s3.459-7.726 7.726-7.726h12.619c4.267 0 7.726 3.459 7.726 7.726s-3.459 7.726-7.726 7.726z" fill="#ffc365"/></g><g><path d="m462.854 215.764c-3.018-3.017-3.017-7.909 0-10.926l8.923-8.923c3.018-3.016 7.91-3.017 10.926.001 3.018 3.017 3.017 7.909 0 10.927l-8.923 8.922c-3.017 3.016-7.908 3.017-10.926-.001z" fill="#ffc365"/></g><g><path d="m346.726 331.894c-3.017-3.017-3.018-7.909 0-10.926l8.923-8.923c3.017-3.018 7.909-3.017 10.927-.001 3.017 3.017 3.018 7.909 0 10.926l-8.923 8.924c-3.018 3.017-7.909 3.017-10.927 0z" fill="#ffc365"/></g><g><path d="m414.715 195.824c-4.267 0-7.726-3.459-7.726-7.726v-12.619c0-4.268 3.459-7.726 7.726-7.726s7.726 3.459 7.726 7.726v12.619c0 4.267-3.459 7.726-7.726 7.726z" fill="#ffc365"/></g><g><path d="m414.715 360.055c-4.267 0-7.726-3.459-7.726-7.726v-12.619c0-4.268 3.459-7.726 7.726-7.726s7.726 3.459 7.726 7.726v12.619c0 4.267-3.459 7.726-7.726 7.726z" fill="#ffc365"/></g><g><path d="m355.649 215.765-8.923-8.922c-3.017-3.017-3.018-7.909 0-10.927 3.017-3.018 7.909-3.017 10.926-.001l8.923 8.923c3.017 3.017 3.018 7.909 0 10.926-3.017 3.017-7.908 3.017-10.926.001z" fill="#ffc365"/></g><g><path d="m471.777 331.893-8.923-8.924c-3.018-3.017-3.017-7.909 0-10.926 3.017-3.016 7.909-3.017 10.927.001l8.923 8.923c3.018 3.017 3.017 7.909 0 10.926-3.018 3.017-7.909 3.018-10.927 0z" fill="#ffc365"/></g><path d="m115.234 323.998-17.993 10.159-29.278-2.173-4.387-6.474c-10.513 1.366-20.817 3.386-30.892 5.979v169.179c0 5.055 3.077 9.422 7.449 11.332h304.924c-28.504-103.135-119.586-180.278-229.823-188.002z" fill="#ffdda8"/><g><path d="m34.744 500.668v-169.712c-8.714 2.166-17.257 4.763-25.595 7.792-5.491 1.994-9.149 7.209-9.149 13.051v51.95l6.242 5.233.687 64.214-6.929 11.088v13.844c0 7.661 6.211 13.872 13.872 13.872h28.321c-4.372-1.911-7.449-6.278-7.449-11.332z" fill="#ffc365"/></g><path d="m149.093 184.061-4.59.932-4.458 17.398-65.593 126.461-69.068 96.785-5.384 14.322v44.325c106.332-100.578 146.276-228.731 159.354-284.707v-3.283z" fill="#dd8858"/><g><path d="m148.905 184.099-15.393 3.127-3.218 2.803c-10.757 37.713-42.633 120.882-130.294 213.72v36.21c100.663-111.536 136.562-208.829 148.905-255.86z" fill="#cb6c35"/></g><path d="m180.82 154.481c-11.311 5.538-17.067 18.717-12.973 30.992 2.252 6.754 7.059 11.928 12.983 14.834 6.272-2.73 11.405-8.007 13.739-15.007 4.132-12.389-1.985-25.723-13.749-30.819z" fill="#938493"/><path d="m168.137 185.301c-4.069-12.201 1.801-25.32 13.216-30.583-.833-.384-1.693-.73-2.584-1.027-7.05-2.351-14.404-1.38-20.376 2.056l-1.638 1.787-8.86 27.901v1.792c2.714 6.333 8.014 11.524 15.063 13.875 6.288 2.097 12.819 1.549 18.394-1.032-6.031-2.794-10.946-7.966-13.215-14.769z" fill="#7b6c79"/><path d="m144.797 142.418c-5.739 3.046-10.366 8.211-12.583 14.861-4.114 12.337 1.454 25.565 12.577 31.459 6.543-2.649 11.932-8.034 14.34-15.255 4.199-12.594-2.189-26.164-14.334-31.065z" fill="#938493"/><path d="m132.868 157.672c2.259-6.773 7.14-11.929 13.135-14.73-.861-.401-1.75-.762-2.672-1.07-13.092-4.366-27.245 2.708-31.61 15.8-4.366 13.092 2.708 27.244 15.8 31.61 6.319 2.107 12.882 1.543 18.475-1.07-11.357-5.29-17.187-18.37-13.128-30.54z" fill="#7b6c79"/></g></svg>