<?xml version="1.0" encoding="iso-8859-1"?>
<!-- Generator: Adobe Illustrator 19.0.0, SVG Export Plug-In . SVG Version: 6.00 Build 0)  -->
<svg version="1.1" id="Capa_1" xmlns="http://www.w3.org/2000/svg" xmlns:xlink="http://www.w3.org/1999/xlink" x="0px" y="0px"
	 viewBox="0 0 512 512" style="enable-background:new 0 0 512 512;" xml:space="preserve">
<path style="fill:#602952;" d="M257.099,92.729V0h-47.472v92.729c0,16.979-6.512,33.312-18.194,45.634l0,0
	c-11.682,12.322-18.194,28.655-18.194,45.634v269.189c0,9.212,7.468,16.681,16.68,16.681h86.886c9.212,0,16.681-7.468,16.681-16.681
	V183.997c0-16.979-6.512-33.312-18.194-45.634l0,0C263.61,126.042,257.099,109.709,257.099,92.729z"/>
<path style="fill:#541F44;" d="M275.292,138.363c-11.682-12.322-18.194-28.655-18.194-45.634V0h-47.472v92.729
	c0,7.556-1.297,14.982-3.758,21.985c3.069,8.734,7.953,16.81,14.436,23.648l0,0c11.682,12.322,18.194,28.655,18.194,45.634v269.189
	c0,9.212-7.468,16.681-16.681,16.681h54.988c9.212,0,16.68-7.468,16.68-16.681V183.997
	C293.486,167.018,286.975,150.685,275.292,138.363z"/>
<g>
	<path style="fill:#FDC74F;" d="M261.963,69.39V4.191c0-2.315-1.876-4.191-4.191-4.191h-48.819c-2.315,0-4.191,1.876-4.191,4.191
		V69.39c0,2.315,1.876,4.191,4.191,4.191h48.819C260.087,73.581,261.963,71.705,261.963,69.39z"/>
	<path style="fill:#FDC74F;" d="M293.486,281.37h-57.495c-4.495,0-8.14-3.644-8.14-8.14v-64.244c0-4.495,3.644-8.14,8.14-8.14
		h57.495V281.37z"/>
</g>
<rect x="238.499" y="200.85" style="fill:#FCA629;" width="54.988" height="80.52"/>
<path style="fill:#E9EAEB;" d="M419.481,137.386h-92.796l-31.512,60.418c-1.108,2.124-1.686,4.484-1.686,6.88v202.622
	c0,8.216,6.661,14.877,14.877,14.877h129.439c8.216,0,14.877-6.661,14.877-14.877V204.683c0-2.396-0.579-4.756-1.686-6.88
	L419.481,137.386z"/>
<path style="fill:#C8CBCE;" d="M450.993,197.804l-31.512-60.417h-54.988l33.199,63.651v221.145h40.111
	c8.216,0,14.877-6.661,14.877-14.877V204.683C452.679,202.288,452.101,199.928,450.993,197.804z"/>
<path style="fill:#FD9727;" d="M435.07,147.896H311.095c-4.982,0-9.021-4.039-9.021-9.021v-13.232c0-4.982,4.039-9.021,9.021-9.021
	H435.07c4.982,0,9.021,4.039,9.021,9.021v13.232C444.091,143.857,440.052,147.896,435.07,147.896z"/>
<path style="fill:#F9662B;" d="M435.07,116.622h-45.967v31.275h45.967c4.982,0,9.021-4.039,9.021-9.021v-13.232
	C444.091,120.661,440.052,116.622,435.07,116.622z"/>
<path style="fill:#5BDCFD;" d="M413.19,298.4h-80.216c-2.367,0-4.286-1.919-4.286-4.287v-77.041c0-2.367,1.919-4.287,4.286-4.287
	h80.216c2.367,0,4.287,1.919,4.287,4.287v77.041C417.477,296.481,415.558,298.4,413.19,298.4z"/>
<path style="fill:#48C7E5;" d="M413.19,212.786h-50.701V298.4h50.701c2.367,0,4.286-1.919,4.286-4.287v-77.041
	C417.477,214.705,415.558,212.786,413.19,212.786z"/>
<path style="fill:#D6AF8A;" d="M145.549,462.698L145.549,462.698c-28.653,3.906-55.047-16.155-58.953-44.808L37.731,59.44
	C33.825,30.786,53.886,4.392,82.539,0.486l0,0c28.653-3.906,55.047,16.155,58.953,44.808l48.865,358.451
	C194.263,432.398,174.202,458.792,145.549,462.698z"/>
<path style="fill:#C69C6D;" d="M190.357,403.745L141.493,45.294c-3.906-28.653-30.3-48.714-58.953-44.808l0,0
	c-7.534,1.027-14.466,3.621-20.532,7.39c12.794,7.949,22.079,21.328,24.273,37.418l48.865,358.451
	c2.879,21.119-7.271,40.998-24.276,51.563c9.989,6.207,22.117,9.103,34.68,7.39l0,0
	C174.202,458.792,194.263,432.398,190.357,403.745z"/>
<g>
	<path style="fill:#E2B998;" d="M122.931,76.358L63.93,84.401l0,0c-1.752-12.855,7.248-24.696,20.103-26.449l6.225-0.849
		l6.225-0.849C109.337,54.503,121.179,63.503,122.931,76.358L122.931,76.358z"/>
	<path style="fill:#E2B998;" d="M133.65,154.986l-59.001,8.043l0,0c-1.752-12.855,7.248-24.696,20.103-26.449l6.225-0.849
		l6.225-0.849C120.056,133.131,131.897,142.131,133.65,154.986L133.65,154.986z"/>
	<path style="fill:#E2B998;" d="M144.368,233.614l-59.001,8.043l0,0c-1.752-12.855,7.248-24.696,20.103-26.449l6.225-0.849
		l6.225-0.849C130.775,211.759,142.616,220.76,144.368,233.614L144.368,233.614z"/>
</g>
<path style="fill:#E8B19C;" d="M469.07,512H50.294c-3.139,0-5.683-2.545-5.683-5.683V250.179c0-4.183,3.391-7.574,7.574-7.574
	h414.996c4.183,0,7.574,3.391,7.574,7.574v256.137C474.753,509.455,472.209,512,469.07,512z"/>
<rect x="324.039" y="242.61" style="fill:#E0A896;" width="54.988" height="269.39"/>
<path style="fill:#D09C84;" d="M467.18,242.606h-88.149V512h90.039c3.139,0,5.683-2.544,5.683-5.683V250.179
	C474.753,245.997,471.362,242.606,467.18,242.606z"/>
<path style="fill:#BA8570;" d="M469.07,512h-42.178V242.606h40.288c4.183,0,7.574,3.391,7.574,7.574v256.137
	C474.753,509.455,472.209,512,469.07,512z"/>
<path style="fill:#BF8B77;" d="M469.07,512c1.585,0,3.016-0.65,4.047-1.696l-46.225-47.911L379.031,512h82.031H469.07z"/>
<g>
</g>
<g>
</g>
<g>
</g>
<g>
</g>
<g>
</g>
<g>
</g>
<g>
</g>
<g>
</g>
<g>
</g>
<g>
</g>
<g>
</g>
<g>
</g>
<g>
</g>
<g>
</g>
<g>
</g>
</svg>
