<?xml version="1.0" encoding="iso-8859-1"?>
<!-- Generator: Adobe Illustrator 19.0.0, SVG Export Plug-In . SVG Version: 6.00 Build 0)  -->
<svg xmlns="http://www.w3.org/2000/svg" xmlns:xlink="http://www.w3.org/1999/xlink" version="1.1" id="Layer_1" x="0px" y="0px" viewBox="0 0 511.315 511.315" style="enable-background:new 0 0 511.315 511.315;" xml:space="preserve">
<path style="fill:#F3705A;" d="M456.533,174.95c51.2,51.2,56.533,176,54.4,257.067c-1.067,42.667-36.267,77.867-78.933,78.933  c-81.067,2.133-206.933-4.267-257.067-54.4c-77.867-77.867-77.867-203.733,0-281.6S378.667,97.083,456.533,174.95z"/>
<g>
	<path style="fill:#415A6B;" d="M334.933,238.95c8.533,8.533,7.467,25.6,7.467,25.6s-16,2.133-25.6-7.467   c-8.533-8.533-12.8-20.267-7.467-25.6C314.667,227.216,326.4,230.416,334.933,238.95z"/>
	<path style="fill:#415A6B;" d="M257.067,316.816c8.533,8.533,7.467,25.6,7.467,25.6s-16,2.133-25.6-7.467   c-8.533-8.533-12.8-20.267-7.467-25.6C236.8,305.083,247.467,308.283,257.067,316.816z"/>
	<path style="fill:#415A6B;" d="M422.4,197.35c8.533,8.533,7.467,25.6,7.467,25.6s-16,2.133-25.6-7.467   c-8.533-8.533-12.8-20.267-7.467-25.6C402.133,184.55,413.867,188.816,422.4,197.35z"/>
	<path style="fill:#415A6B;" d="M215.467,404.283c8.533,8.533,7.467,25.6,7.467,25.6s-16,2.133-25.6-7.467   c-8.533-8.533-12.8-20.267-7.467-25.6C195.2,392.55,206.933,395.75,215.467,404.283z"/>
	<path style="fill:#415A6B;" d="M363.733,346.683c8.533,8.533,7.467,25.6,7.467,25.6s-16,2.133-25.6-7.467   c-8.533-8.533-12.8-20.267-7.467-25.6C343.467,333.883,355.2,337.083,363.733,346.683z"/>
	<path style="fill:#415A6B;" d="M445.867,297.616c8.533,8.533,7.467,25.6,7.467,25.6s-16,2.133-25.6-7.467   c-8.533-8.533-12.8-20.267-7.467-25.6C425.6,284.816,436.267,289.083,445.867,297.616z"/>
	<path style="fill:#415A6B;" d="M315.733,427.75c8.533,8.533,7.467,25.6,7.467,25.6s-16,2.133-25.6-7.467   c-8.533-8.533-12.8-20.267-7.467-25.6C295.467,414.95,306.133,418.15,315.733,427.75z"/>
	<path style="fill:#415A6B;" d="M475.733,402.15c8.533,8.533,7.467,25.6,7.467,25.6s-16,2.133-25.6-7.467   c-8.533-8.533-12.8-20.267-7.467-25.6C455.467,389.35,467.2,392.55,475.733,402.15z"/>
	<path style="fill:#415A6B;" d="M420.267,458.683c8.533,8.533,7.467,25.6,7.467,25.6s-16,2.133-25.6-7.467   c-8.533-8.533-12.8-20.267-7.467-25.6C400,445.883,410.667,449.083,420.267,458.683z"/>
</g>
<path style="fill:#66C6B9;" d="M267.733,150.416c-12.8-30.933-106.667-105.6-106.667-105.6s-19.2,119.467-6.4,150.4  s48,46.933,78.933,35.2C264.533,217.616,280.533,181.35,267.733,150.416z"/>
<path style="fill:#4EC0AA;" d="M201.6,140.816c-2.133-34.133,53.333-140.8,53.333-140.8s66.133,100.267,68.267,134.4  c2.133,34.133-24.533,61.867-57.6,64C232.533,200.55,202.667,173.883,201.6,140.816z"/>
<path style="fill:#66C6B9;" d="M140.8,201.616C106.667,199.483,0,254.95,0,254.95s100.267,66.133,134.4,68.267  c34.133,2.133,61.867-24.533,64-57.6C199.467,231.483,173.867,202.683,140.8,201.616z"/>
<path style="fill:#4EC0AA;" d="M198.4,167.483c-28.8-18.133-149.333-19.2-149.333-19.2S105.6,254.95,134.4,272.016  c28.8,18.133,66.133,8.533,84.267-20.267S227.2,184.55,198.4,167.483z"/>
<g>
</g>
<g>
</g>
<g>
</g>
<g>
</g>
<g>
</g>
<g>
</g>
<g>
</g>
<g>
</g>
<g>
</g>
<g>
</g>
<g>
</g>
<g>
</g>
<g>
</g>
<g>
</g>
<g>
</g>
</svg>
