<svg enable-background="new 0 0 24 24" height="512" viewBox="0 0 24 24" width="512" xmlns="http://www.w3.org/2000/svg"><path d="m10 12.536c0-1.178.75-2.225 1.865-2.604l5.25-1.786c.281-.096.581-.146.885-.146s.604.05.892.149l3.108 1.057v-6.606l-10.16 5.03c-.52.26-1.16.26-1.68 0l-10.16-5.03v9.15c0 1.24 1.01 2.25 2.25 2.25h7.75z" fill="#eceff1"/><path d="m22 2.25v.6l-10.16 5.03c-.52.26-1.16.26-1.68 0l-10.16-5.03v-.6c0-1.24 1.01-2.25 2.25-2.25h17.5c1.24 0 2.25 1.01 2.25 2.25z" fill="#b0bec5"/><path d="m18 17v7c-.1 0-.2-.02-.29-.06-.23-.1-5.37-2.33-5.69-6.94z" fill="#4caf50"/><path d="m18 10v7h-5.98c-.01-.15-.02-.3-.02-.45v-4.01c0-.33.2-.61.51-.71l5.25-1.79c.08-.02.16-.04.24-.04z" fill="#81c784"/><path d="m23.98 17c-.32 4.61-5.46 6.84-5.69 6.94-.09.04-.19.06-.29.06v-7z" fill="#81c784"/><path d="m24 12.54v4.01c0 .15-.01.3-.02.45h-5.98v-7c.08 0 .16.02.24.04l5.25 1.79c.31.1.51.38.51.71z" fill="#4caf50"/></svg>