<?xml version="1.0" encoding="iso-8859-1"?>
<!-- Generator: Adobe Illustrator 19.0.0, SVG Export Plug-In . SVG Version: 6.00 Build 0)  -->
<svg xmlns="http://www.w3.org/2000/svg" xmlns:xlink="http://www.w3.org/1999/xlink" version="1.1" id="Capa_1" x="0px" y="0px" viewBox="0 0 512 512" style="enable-background:new 0 0 512 512;" xml:space="preserve">
<polygon style="fill:#A3FDF6;" points="256,0 226,462 448,422 448,0 "/>
<polygon style="fill:#D7FAF5;" points="64,0 64,422 256,462 256,0 "/>
<polygon style="fill:#DBFFFA;" points="256,30 206,211 256,392 418,392 418,30 "/>
<rect x="94" y="30" style="fill:#FFFFFF;" width="162" height="362"/>
<polygon style="fill:#093239;" points="256,422 211,467 256,512 448,512 448,422 "/>
<g>
	<rect x="64" y="422" style="fill:#116371;" width="192" height="90"/>
	<polygon style="fill:#116371;" points="256,452 236,467 256,482 286,482 286,452  "/>
</g>
<rect x="226" y="452" style="fill:#70A2AA;" width="30" height="30"/>
<polygon style="fill:#5386FC;" points="321.75,207 321.75,75 256,75 236,207 256,312 361,207 "/>
<polygon style="fill:#60B2FC;" points="189.75,75 189.75,207 151,207 256,312 256,75 "/>
<g>
</g>
<g>
</g>
<g>
</g>
<g>
</g>
<g>
</g>
<g>
</g>
<g>
</g>
<g>
</g>
<g>
</g>
<g>
</g>
<g>
</g>
<g>
</g>
<g>
</g>
<g>
</g>
<g>
</g>
</svg>
