<svg id="Capa_1" enable-background="new 0 0 512 512" height="512" viewBox="0 0 512 512" width="512" xmlns="http://www.w3.org/2000/svg"><g><path d="m512 95.64h-256l-20.016 175.384 20.016 175.384h256z" fill="#c9885b"/><path d="m0 95.64h256v350.769h-256z" fill="#dbad5c"/><path d="m482 65.592h-226l-20.016 175.408 20.016 175.408h226z" fill="#ebebf0"/><path d="m30 65.592h226v350.817h-226z" fill="#fff5f5"/><path d="m60.024 105.904h165.952v30h-165.952z" fill="#7d8287"/><path d="m286.024 105.904h165.952v30h-165.952z" fill="#495959"/><path d="m60.024 165.952h165.952v30h-165.952z" fill="#7d8287"/><path d="m286.024 165.952h165.952v30h-165.952z" fill="#495959"/><path d="m60.024 226h165.952v30h-165.952z" fill="#7d8287"/><path d="m286.024 226h165.952v30h-165.952z" fill="#495959"/><path d="m60.024 286.048h165.952v30h-165.952z" fill="#7d8287"/><path d="m286.024 286.048h165.952v30h-165.952z" fill="#495959"/><path d="m60.024 346.096h165.952v30h-165.952z" fill="#7d8287"/><path d="m286.024 346.096h165.952v30h-165.952z" fill="#495959"/></g></svg>