<svg height="512" viewBox="0 0 58 58" width="512" xmlns="http://www.w3.org/2000/svg"><g id="Page-1" fill="none" fill-rule="evenodd"><g id="025---Bedtime-Story" fill-rule="nonzero"><path id="Shape" d="m56 52v-3.054c.0030081-1.0553505-.8175938-1.9298989-1.871-1.994-7.029-.387-6.729-1.952-14.129-1.952-10 0-11 9-11 9s-1-9-11-9c-7.4 0-7.1 1.565-14.129 1.952-1.05340625.0641011-1.87400811.9386495-1.871 1.994v3.054l27 4z" fill="#ecf0f1"/><path id="Shape" d="m42.73 14h8.27c1.1045695 0 2-.8954305 2-2s-.8954305-2-2-2h-5.17l6.58-6.59c.5779308-.56871432.7521006-1.43164632.44-2.18-.3134759-.74450094-1.0421957-1.22900111-1.85-1.23h-10c-1.1045695 0-2 .8954305-2 2s.8954305 2 2 2h5.17l-6.58 6.59c-.5779308.5687143-.7521006 1.4316463-.44 2.18.0320315.0805676.0722419.1576376.12.23z" fill="#f0c419"/><path id="Shape" d="m58 54c0 1.1045695-.8954305 2-2 2h-18.528c-1.4704973-.0001411-2.920815.342238-4.236 1s-2.7655027 1.0001411-4.236 1c-1.4704973.0001411-2.920815-.342238-4.236-1s-2.7655027-1.0001411-4.236-1h-18.528c-1.1045695 0-2-.8954305-2-2s.8954305-2 2-2h18.528c1.6256915.0001347 3.2290222.3787988 4.683 1.106 1.1765556.5878719 2.4737523.8939405 3.789.894 1.3152477-.0000595 2.6124444-.3061281 3.789-.894 1.4539778-.7272012 3.0573085-1.1058653 4.683-1.106h18.528c1.1045695 0 2 .8954305 2 2z" fill="#ff5364"/><path id="Shape" d="m37.427 38.2c-3.1407766 2.4053231-6.9714785 3.7374973-10.927 3.8-10.9021695.1632361-20.15545366-7.9586412-21.40741985-18.7899166-1.25196618-10.8312754 5.90448975-20.84992281 16.55641985-23.1780834.5697509-.10896577 1.1476878.14471506 1.4531516.63784943.3054638.49313436.2751773 1.12356892-.0761516 1.58515057-4.3020505 5.97470056-5.2110146 13.7483638-2.4033971 20.5543884 2.8076174 6.8060245 8.9330897 11.677846 16.1963971 12.8816116.5565828.0897192 1.0050476.5045323 1.1378212 1.0524421.1327737.5479098-.0760518 1.1220025-.5298212 1.4565579z" fill="#f0c419"/><path id="Shape" d="m41 27h-10c-.8087918-.0001727-1.5378681-.487455-1.847356-1.2346909-.3094878-.7472359-.1384598-1.6073206.433356-2.1793091l6.585-6.586h-5.171c-1.1045695 0-2-.8954305-2-2s.8954305-2 2-2h10c.8087918.0001727 1.5378681.487455 1.847356 1.2346909.3094878.7472359.1384598 1.6073206-.433356 2.1793091l-6.585 6.586h5.171c1.1045695 0 2 .8954305 2 2s-.8954305 2-2 2z" fill="#f3d55b"/></g></g></svg>