<svg id="Capa_1" enable-background="new 0 0 458.327 458.327" height="512" viewBox="0 0 458.327 458.327" width="512" xmlns="http://www.w3.org/2000/svg"><g><path d="m210.364 245.211c2.348-43.837-20.871-71.091-67.877-67.665-16.88 1.034-33.95 8.742-51.707 19.311 15.348 3.074 27.075 9.804 33.234 22.156 15.158 27.008 44.223 35.414 82.896 30.943z" fill="#2cbfae"/><path d="m243.47 293.536c-11.063-10.789-20.164-23.421-26.896-37.331-5.98-11.876-13.81-22.726-23.196-32.144-14.966-15.515-35.186-24.883-56.698-26.27-1.99-.166-3.738 1.313-3.905 3.303-.003.039-.006.078-.008.118-.131 2.021 1.395 3.769 3.415 3.913 19.055 1.03 37.05 9.095 50.5 22.631 9.506 9.194 17.379 19.94 23.28 31.775 6.35 12.447 18.568 33.095 34.313 43.837z" fill="#16a897"/><path d="m262.183 218.181c-2.068-38.622 18.383-62.634 59.806-59.616 14.873.911 29.909 7.702 45.559 17.014-13.521 2.711-23.855 8.641-29.283 19.524-13.364 23.799-38.963 31.205-73.036 27.265z" fill="#2cbfae"/><path d="m327.109 176.428c-19.81 1.313-38.345 10.238-51.724 24.906-7.493 7.89-13.789 16.837-18.685 26.555-4.766 9.481-10.61 18.38-17.416 26.521v9.301c9.442-9.646 17.275-20.744 23.201-32.871 5.311-10.643 12.423-20.287 21.022-28.506 11.802-11.65 27.467-18.567 44.027-19.44 1.783-.125 3.129-1.671 3.007-3.454-.09-1.757-1.588-3.109-3.345-3.018-.029.002-.058.004-.087.006z" fill="#16a897"/><path d="m234.191 192.995c-2.316-12.416-1.952-25.184 1.068-37.449h-12.453c-2.658 12.933-2.847 26.251-.559 39.254l3.119 20.468c7.009 45.592 11.648 75.725 7.602 109.551-.384 3.312 1.983 6.311 5.293 6.707.236.028.473.043.71.045 3.059-.006 5.633-2.29 6.003-5.327 4.231-35.448-.503-66.217-7.669-112.793z" fill="#16a897"/><path d="m328.758 326.659-2.074 13.353-2.236 14.577-18.534 94.98c-.991 5.083-5.441 8.753-10.62 8.759h-121.848c-5.178-.006-9.628-3.676-10.62-8.759l-18.585-94.974-2.236-14.577-2.074-13.353z" fill="#f6b863"/><path d="m133.309 304.899h202.055c2.544 0 4.606 2.062 4.606 4.606v25.907c0 2.544-2.062 4.606-4.606 4.606h-202.055c-2.544 0-4.606-2.062-4.606-4.606v-25.907c0-2.544 2.062-4.606 4.606-4.606z" fill="#f6b863"/><path d="m326.684 340.017-2.258 14.577h-180.184l-2.253-14.577z" fill="#eaa14e"/><path d="m262.809 0c-13.022-.002-25.585 4.805-35.28 13.498-21.845-19.509-55.37-17.616-74.879 4.23-8.691 9.731-13.489 22.324-13.478 35.371 0 54.999 88.373 113.598 88.373 113.598s88.491-58.414 88.351-113.598c-.021-29.312-23.775-53.071-53.087-53.099z" fill="#ef5261"/><path d="m315.919 53.099c.106 55.184-88.385 113.62-88.385 113.62s-5.634-3.739-14.029-10.234c25.94-20.474 69.973-61.036 69.917-99.977-.027-25.032-17.498-46.659-41.965-51.947 6.709-3.012 13.98-4.567 21.335-4.561 29.32.025 53.087 23.779 53.127 53.099z" fill="#da364c"/></g></svg>