<svg id="Capa_1" enable-background="new 0 0 497 497" height="512" viewBox="0 0 497 497" width="512" xmlns="http://www.w3.org/2000/svg"><g><g><path d="m347.753 256.795c-9.665 0-17.5-7.835-17.5-17.5v-122.541c0-45.079-36.674-81.754-81.753-81.754s-81.753 36.675-81.753 81.754v122.541c0 9.665-7.835 17.5-17.5 17.5s-17.5-7.835-17.5-17.5v-122.541c0-59.641 44.951-108.981 102.753-115.919 4.59-.551 9.263.165 14 .165 64.378 0 106.753 51.376 106.753 115.754l10 122.541c0 9.665-7.835 17.5-17.5 17.5z" fill="#f9f6f9"/></g><g><path d="m248.5 0c-4.738 0-9.408.291-14 .842 57.801 6.939 102.753 56.271 102.753 115.912v122.541c0 3.931-1.312 7.547-3.5 10.468 3.192 4.262 8.266 7.032 14 7.032 9.665 0 17.5-7.835 17.5-17.5v-122.541c0-64.378-52.375-116.754-116.753-116.754z" fill="#dedbec"/></g><path d="m362.375 169.25h-237.75c-27.614 0-50 22.386-50 50v267.75c0 5.523 4.477 10 10 10h317.75c5.523 0 10-4.477 10-10v-267.75c0-27.614-22.386-50-50-50z" fill="#95c7f8"/><path d="m372.375 169.25h-30c27.614 0 50 22.386 50 50v267.75c0 5.523-4.477 10-10 10h30c5.523 0 10-4.477 10-10v-267.75c0-27.614-22.386-50-50-50z" fill="#75b5f8"/><path d="m286.068 284.082c.02-4.142-3.321-7.517-7.463-7.537-.013 0-.025 0-.038 0-4.125 0-7.479 3.333-7.499 7.463l-.045 8.991c-6.874-6.562-15.747-10.355-25.806-10.355-21.323 0-43.378 18.547-43.378 49.583 0 28.345 19.05 51.405 42.467 51.405 11.065 0 20.986-5.124 28.36-13.601 1.461 3.847 3.694 7.379 6.597 10.297 4.9 4.923 11.196 7.635 17.73 7.635 19.449 0 31.782-13.583 36.838-26.296 8.4-21.12 10.204-43.616 1.27-64.849-8.321-19.777-23.46-36.167-42.434-46.16-22.268-11.727-47.752-13.979-71.754-6.338-22.741 7.238-41.662 22.848-53.276 43.951-11.618 21.109-14.674 45.443-8.605 68.52 5.258 19.992 16.61 37.238 32.828 49.874 15.618 12.168 35.07 19.169 54.773 19.714.071.002.141.003.211.003 4.046 0 7.381-3.223 7.493-7.293.115-4.141-3.149-7.59-7.29-7.704-16.53-.457-32.855-6.335-45.969-16.552-13.602-10.598-23.126-25.071-27.54-41.856-5.086-19.339-2.515-39.75 7.24-57.473 9.753-17.722 25.623-30.822 44.685-36.891 20.144-6.412 41.528-4.525 60.214 5.317 23.108 12.17 40.909 36.906 40.596 63.606-.206 17.531-7.449 45.427-29.279 45.427-2.513 0-5.034-1.142-7.097-3.216-2.689-2.702-4.22-6.512-4.2-10.451zm-41.762 84.55c-13.21 0-27.467-13.919-27.467-36.405 0-21.647 14.429-34.583 28.378-34.583 14.736 0 25.13 13.448 25.62 32.88l-.017 3.432c-.751 19.296-12.355 34.676-26.514 34.676z" fill="#f9f6f9"/></g></svg>