<svg id="Capa_1" enable-background="new 0 0 512 512" height="512" viewBox="0 0 512 512" width="512" xmlns="http://www.w3.org/2000/svg"><g><path d="m284.414 471.823c2.608-.541 5.204-1.157 7.786-1.849l32.576-8.729c27.68-7.417 52.919-21.989 73.182-42.252 17.844-17.844 27.868-42.045 27.868-67.28v-67.482c0-8.957-10.829-13.442-17.163-7.109l-21.398 40.118c-2.373 4.45-9.119 2.764-9.119-2.28v-105.358c0-8.957-10.829-13.442-17.163-7.109l-7.683 19.72c-1.945 4.993-9.359 3.6-9.359-1.759v-111.818c0-8.957-10.829-13.442-17.162-7.109l-22.144 43.103c-2.065 4.019-8.022 3.273-9.032-1.131l-31.425-136.984c-1.993-8.686-14.364-8.686-16.357 0l-31.424 136.984c-1.01 4.404-6.967 5.15-9.031 1.131l-22.144-43.103c-6.333-6.333-17.162-1.848-17.162 7.109v111.818c0 5.359-7.414 6.752-9.359 1.759l-7.683-19.72c-6.333-6.333-17.162-1.848-17.162 7.109v105.358c0 5.044-6.746 6.73-9.12 2.28l-21.398-40.118c-6.333-6.333-17.163-1.848-17.163 7.109v67.482c0 25.235 10.025 49.437 27.869 67.281l.001.001c20.262 20.262 45.501 34.834 73.18 42.25l32.576 8.729c2.581.692 5.178 1.308 7.786 1.849z" fill="#95d6a4"/><path d="m408.663 277.121-13.743 25.766v28.222c0 25.235-10.024 49.436-27.868 67.28-20.262 20.263-45.502 34.836-73.182 42.252l-9.457 2.534-11.216 14.87 11.216 13.777c2.608-.541 5.204-1.157 7.785-1.849l32.576-8.729c27.68-7.417 52.919-21.989 73.182-42.252 17.844-17.844 27.868-42.045 27.868-67.28v-67.482c.002-8.956-10.827-13.442-17.161-7.109z" fill="#78c2a4"/><path d="m188.895 449.371-32.576-8.729c-11.21-3.004-22.019-7.181-32.259-12.434 18.321 15.495 39.88 26.799 63.165 33.038l32.576 8.729c2.581.692 5.178 1.308 7.786 1.849l9.834-10.042-9.834-7.655c-12.969.217-26.013-1.358-38.692-4.756z" fill="#78c2a4"/><g><g><path d="m179.193 394.635c-3.411 0-6.533-2.277-7.458-5.728l-.856-3.194c-5.564-20.766-7.775-42.179-6.568-63.647.229-4.066 2.893-7.464 6.788-8.654 3.896-1.189 8.004.136 10.467 3.379l27.876 36.721c.109.143.33.436.867.325.536-.112.624-.471.666-.644l2.244-9.194c1.086-4.446 4.315-7.992 8.639-9.487 4.325-1.496 9.054-.702 12.654 2.124l20.529 16.115c3.357 2.635 3.942 7.492 1.307 10.848-2.635 3.358-7.493 3.943-10.848 1.307l-18.024-14.148-1.489 6.101c-1.508 6.176-6.311 10.815-12.534 12.109-6.224 1.292-12.477-1.048-16.319-6.112l-17.586-23.164c.476 14.18 2.568 28.256 6.257 42.021l.856 3.194c1.105 4.122-1.341 8.358-5.463 9.463-.67.179-1.343.265-2.005.265z" fill="#78c2a4"/></g></g><g><g><path d="m201.729 263.726c-4.268 0-7.726-3.459-7.726-7.726v-3.307c0-21.499 3.408-42.756 10.13-63.178 1.274-3.869 4.726-6.46 8.797-6.602.117-.004.233-.006.348-.006 3.929 0 7.391 2.318 8.886 5.981l17.422 42.684c.067.165.207.506.754.537.509.043.724-.293.81-.449l4.548-8.301c2.199-4.013 6.236-6.603 10.8-6.928 4.552-.332 8.926 1.665 11.672 5.325l15.66 20.88c2.56 3.413 1.868 8.257-1.545 10.817-3.414 2.561-8.257 1.869-10.817-1.545l-13.749-18.332-3.018 5.509c-3.055 5.575-8.886 8.801-15.24 8.452-6.346-.362-11.78-4.242-14.181-10.127l-10.99-26.926c-3.211 13.818-4.833 27.956-4.833 42.207v3.309c-.001 4.268-3.46 7.726-7.728 7.726z" fill="#78c2a4"/></g></g><g><g><path d="m332.807 343.815c-.662 0-1.335-.086-2.005-.266-4.122-1.105-6.567-5.341-5.463-9.463l.856-3.194c3.688-13.766 5.781-27.84 6.257-42.02l-17.586 23.165c-3.843 5.061-10.095 7.402-16.32 6.11-6.222-1.294-11.025-5.933-12.533-12.107l-1.489-6.102-18.024 14.149c-3.356 2.635-8.214 2.049-10.848-1.307-2.635-3.356-2.05-8.213 1.307-10.848l20.529-16.115c3.601-2.826 8.33-3.619 12.654-2.124s7.553 5.041 8.639 9.486l2.244 9.196c.042.172.13.531.666.643.539.116.761-.184.867-.325l27.875-36.72c2.463-3.243 6.572-4.57 10.466-3.381 3.895 1.19 6.56 4.587 6.79 8.653 1.206 21.47-1.004 42.883-6.568 63.648l-.856 3.194c-.925 3.451-4.048 5.728-7.458 5.728z" fill="#78c2a4"/></g></g><path d="m300.671 510.068-3.944-3.944c-7.884-7.884-12.313-18.577-12.313-29.726v-57.125c-3.98-3.577-7.363-7.806-9.978-12.519-.56-1.009-1.81-1.398-2.857-.913-4.736 2.197-10.014 3.424-15.579 3.424s-10.843-1.227-15.579-3.424c-1.047-.486-2.297-.096-2.857.913-2.616 4.713-5.998 8.942-9.978 12.519v57.125c0 11.15-4.429 21.842-12.313 29.726l-3.944 3.944c-.713.713-.208 1.932.8 1.932h87.742c1.008 0 1.513-1.219.8-1.932z" fill="#9d6b6b"/><path d="m300.671 510.068-3.944-3.944c-7.884-7.884-12.313-18.577-12.313-29.726v-57.125c-3.98-3.577-7.362-7.806-9.978-12.519-.56-1.009-1.81-1.398-2.857-.912-4.736 2.197-10.014 3.424-15.579 3.424-.837 0-1.668-.028-2.491-.083v51.763c0 11.149 4.429 21.842 12.313 29.726 2.168 2.169.633 5.876-2.434 5.876h-40.946c-1.904 3.487-4.309 6.717-7.169 9.576l-3.944 3.944c-.713.713-.208 1.932.8 1.932h87.742c1.008 0 1.513-1.219.8-1.932z" fill="#8b5e5e"/><g><g><path d="m316.648 439.348c-18.689 0-36.052-9.338-46.405-24.668-4.565 1.535-9.338 2.311-14.242 2.311-4.903 0-9.675-.776-14.242-2.311-10.352 15.328-27.716 24.668-46.405 24.668-4.268 0-7.726-3.459-7.726-7.726s3.459-7.726 7.726-7.726c14.719 0 28.306-8.005 35.457-20.891 2.509-4.52 8.159-6.35 12.863-4.172 3.873 1.797 8.02 2.706 12.328 2.706s8.455-.909 12.324-2.704c4.706-2.179 10.358-.348 12.866 4.168 7.152 12.888 20.738 20.893 35.458 20.893 4.268 0 7.726 3.459 7.726 7.726s-3.46 7.726-7.728 7.726z" fill="#78c2a4"/></g></g><path d="m316.648 439.348c4.268 0 7.726-3.459 7.726-7.726 0-.818-.128-1.607-.363-2.347-6.644 3.287-13.519 6.126-20.581 8.489 4.276 1.04 8.708 1.584 13.218 1.584z" fill="#66b394"/><g><path d="m255.759 492.196c-4.268 0-7.726-3.459-7.726-7.726v-52.848c0-4.268 3.459-7.726 7.726-7.726 4.268 0 7.726 3.459 7.726 7.726v52.848c0 4.268-3.459 7.726-7.726 7.726z" fill="#8b5e5e"/></g><path d="m263.485 484.47v-52.848c0-4.268-3.459-7.726-7.726-7.726-.783 0-1.538.117-2.25.333v36.717c0 9.686 3.343 19.027 9.39 26.482.377-.912.586-1.911.586-2.958z" fill="#785252"/></g></svg>