<svg id="Capa_1" enable-background="new 0 0 512 512" height="512" viewBox="0 0 512 512" width="512" xmlns="http://www.w3.org/2000/svg"><g><g><path d="m256.001 452.916c-4.268 0-7.726-3.459-7.726-7.726v-32.472c0-4.267 3.459-7.726 7.726-7.726 4.268 0 7.726 3.459 7.726 7.726v32.472c0 4.267-3.458 7.726-7.726 7.726z" fill="#b48e84"/></g><circle cx="256.001" cy="464.238" fill="#9bd8f9" r="19.048"/><path d="m496 50.719h-479.998v354.999c0 3.866 3.134 7 7 7h465.998c3.866 0 7-3.134 7-7z" fill="#9bd8f9"/><path d="m48.007 60.722v351.994h-25.008c-3.866 0-7-3.134-7-7v-344.994z" fill="#73c3f9"/><path d="m464 50.719h-415.998v322.751c0 3.866 3.134 7 7 7h401.998c3.866 0 7-3.134 7-7z" fill="#eaf6ff"/><g><path d="m182.292 224.718h-31.29c-3.866 0-7 3.134-7 7v85.247h45.29v-85.247c0-3.866-3.134-7-7-7z" fill="#f25a74"/><path d="m251.306 192.842h-31.29c-3.866 0-7 3.134-7 7v117.123h45.29v-117.123c0-3.866-3.134-7-7-7z" fill="#f9d264"/><path d="m320.319 160.718h-31.29c-3.866 0-7 3.134-7 7v149.247h45.29v-149.247c0-3.866-3.134-7-7-7z" fill="#9bd8f9"/><path d="m388.785 128.589-30.194.129c-4.169 0-7.548 3.134-7.548 7v181.247l45.29-.129v-181.247c0-3.866-3.379-7-7.548-7z" fill="#aee69c"/></g><g><g><path d="m412.333 324.692h-300.332c-4.268 0-7.726-3.459-7.726-7.726v-192.247c0-4.267 3.459-7.726 7.726-7.726s7.726 3.459 7.726 7.726v184.52h292.605c4.268 0 7.726 3.459 7.726 7.726s-3.457 7.727-7.725 7.727z" fill="#46778c"/></g></g><path d="m505 60.719h-497.998c-3.866 0-7-3.134-7-7v-18c0-3.866 3.134-7 7-7h497.998c3.866 0 7 3.134 7 7v18c0 3.866-3.134 7-7 7z" fill="#b48e84"/><path d="m30.906 28.715v32.008h-23.906c-3.866 0-7-3.134-7-7v-18.008c0-3.866 3.134-7 7-7z" fill="#a77d73"/></g></svg>