<svg id="Layer_1" enable-background="new 0 0 510 510" height="512" viewBox="0 0 510 510" width="512" xmlns="http://www.w3.org/2000/svg"><g><path d="m235.408 413.397-15.408 6.603-20 60 32.5 10 22.5-10 10-31.833-10-28.167z" fill="#474f54"/><path d="m310 480-19.782-59.346-17.218-7.257-18 6.603v60l27.5 10z" fill="#32393f"/><path d="m150 480v30h105l10-15-10-15c-10.195 0-94.807 0-105 0z" fill="#575f64"/><path d="m360 480c-10.193 0-94.805 0-105 0v30h105z" fill="#474f54"/><path d="m0 0v420h255l10-210-10-210z" fill="#575f64"/><path d="m255 0h255v420h-255z" fill="#474f54"/><path d="m40 40v340h215l10-170-10-170z" fill="#6cf"/><path d="m255 40h215v340h-215z" fill="#4596e6"/></g></svg>