<svg id="Capa_1" enable-background="new 0 0 512 512" height="512" viewBox="0 0 512 512" width="512" xmlns="http://www.w3.org/2000/svg"><g><g><path d="m43.237 129.223-2.323 12.212c-.26 1.366-26.07 137.029-33.042 175.797-5.78 32.141 3.105 65.196 24.379 90.689 22.197 26.599 54.747 41.854 89.304 41.854h97.945l109.75-163.849-109.75-156.703z" fill="#c37e4e"/><path d="m432.855 314.199-34.768-184.976h-178.587v320.553h102.647z" fill="#9a5e34"/></g><g><g><g><path d="m219.5 99.171h-90v-54.093c0-24.856 20.186-45.078 45-45.078s45 20.222 45 45.078l13.683 39.543z" fill="#ffe377"/></g></g><g><g><path d="m309.5 99.171h-90v-54.093c0-24.856 20.186-45.078 45-45.078s45 20.222 45 45.078z" fill="#ffb555"/></g></g></g><g><path d="m313.25 406.887c0 51.776 41.973 93.75 93.75 93.75l49.4-92.317-49.4-95.183c-51.777 0-93.75 41.974-93.75 93.75z" fill="#ebf3ff"/><path d="m407 313.137v187.499c51.776 0 93.75-41.973 93.75-93.75s-41.974-93.749-93.75-93.749z" fill="#d7e8ff"/><path d="m332 406.887c0 15.288 4.595 29.516 12.458 41.393l62.542-62.62v-53.886c-41.355 0-75 33.695-75 75.113z" fill="none"/><path d="m407 482v-53.886l-41.347 41.399c11.863 7.881 26.075 12.487 41.347 12.487z" fill="none"/><path d="m365.653 469.512 41.347-41.398 10.236-21.394-10.236-21.06-62.541 62.62c-7.864-11.878-12.459-26.106-12.459-41.393 0-41.417 33.645-75.113 74.999-75.113l15.03-13.95-15.029-16.05c-57.898 0-105 47.153-105 105.113s47.102 105.113 105 105.113l15.03-16.356-15.03-13.644c-15.272 0-29.484-4.606-41.347-12.488z" fill="#ff5592"/><path d="m407 301.774v30c15.271 0 29.484 4.606 41.347 12.488l-41.347 41.398v42.453l62.541-62.62c7.863 11.877 12.458 26.105 12.458 41.393 0 41.418-33.645 75.114-74.999 75.114v30c57.897 0 105-47.154 105-105.113s-47.103-105.113-105-105.113z" fill="#ff415b"/></g><path d="m207.091 257.052c-.188 1.299-.283 4.397 2.436 6.649 1.818.797 5.375 2.34 9.974 4.255v-20.262c-1.278.183-2.569.453-3.868.844-6.905 2.077-8.274 6.646-8.542 8.514z" fill="none"/><path d="m227.081 331.349c9.676-.647 16.384-6.546 17.406-12.269 1.451-8.124-10.697-13.289-14.455-14.679-3.633-1.343-7.179-2.705-10.532-4.026v30.618c1.171.165 2.354.287 3.545.353z" fill="none"/><g><path d="m0 119.119v40.155h219.5l27.552-45.836-27.552-34.319h-179.5c-22.091 0-40 17.909-40 40z" fill="#d7e8ff"/><path d="m399 79.119h-179.5v80.155h219.5v-40.155c0-22.091-17.909-40-40-40z" fill="#adcfff"/></g><path d="m196.698 319.418-10.072-11.134-22.23 20.179 10.072 11.134c7.999 8.843 18.422 15.274 30.031 18.791l-.012 20.322 15.014.008 9.265-29.602-9.265-18.123c-8.957-1.264-17.208-5.389-22.803-11.575z" fill="#ffe377"/><path d="m204.502 220.599c-14.696 5.339-24.99 17.452-27.106 32.169-2.098 14.595 4.218 28.638 16.481 36.649.662.433 1.357.812 2.079 1.135.525.235 10.562 4.712 23.543 9.825l9.265-15.964-9.265-16.456c-4.599-1.915-8.156-3.458-9.974-4.255-2.719-2.252-2.623-5.351-2.436-6.649.269-1.868 1.638-6.437 8.541-8.514 1.3-.391 2.591-.661 3.868-.844l9.265-19.712-9.265-27.702-14.986-.009z" fill="#ffe377"/><g fill="#ffb555"><path d="m246.326 255.684-.091-.075 19.305-23.004c-.746-.628-13.157-10.878-31.037-14.219l.01-18.097-15.014-.009v47.414c14.277-2.051 26.692 7.88 26.827 7.99z"/><path d="m230.032 304.402c3.758 1.39 15.906 6.555 14.455 14.679-1.022 5.723-7.73 11.622-17.406 12.269l-4.036-.002c-1.191-.066-2.373-.188-3.545-.353v47.725l14.986.008.01-18.018c20.189-3.354 36.175-17.602 39.521-36.335 2.896-16.208-4.41-37.372-33.598-48.165-7.722-2.855-15.145-5.849-20.921-8.254v32.42c3.355 1.32 6.901 2.683 10.534 4.026z"/></g></g></svg>