<svg height="512" viewBox="0 0 58 58" width="512" xmlns="http://www.w3.org/2000/svg"><g id="Page-1" fill="none" fill-rule="evenodd"><g id="025---Gear-Refresh"><path id="Path" d="m22.852 3.85 2.037-3.084c.3156418-.478053.8501437-.76577502 1.423-.766h5.376c.5728563.00022498 1.1073582.287947 1.423.766l2.037 3.084 7.289 3.019 3.621-.741c.5615169-.11452729 1.1430213.06052508 1.548.466l3.8 3.8c.4054749.4049787.5805273.9864831.466 1.548l-.741 3.621 3.019 7.289 3.084 2.037c.478053.3156418.765775.8501437.766 1.423v5.376c-.000225.5728563-.287947 1.1073582-.766 1.423l-3.084 2.037-3.019 7.289.741 3.621c.1145273.5615169-.0605251 1.1430213-.466 1.548l-3.8 3.8c-.4049787.4054749-.9864831.5805273-1.548.466l-3.621-.741-7.289 3.019-2.037 3.084c-.3156418.478053-.8501437.765775-1.423.766h-5.376c-.5728563-.000225-1.1073582-.287947-1.423-.766l-2.037-3.084-7.289-3.019-3.621.741c-.5615169.1145273-1.1430213-.0605251-1.548-.466l-3.8-3.8c-.40547492-.4049787-.58052729-.9864831-.466-1.548l.741-3.621-3.019-7.289-3.084-2.037c-.478053-.3156418-.76577502-.8501437-.766-1.423v-5.376c.00022498-.5728563.287947-1.1073582.766-1.423l3.084-2.037 3.019-7.289-.741-3.621c-.11452729-.5615169.06052508-1.1430213.466-1.548l3.8-3.8c.4049787-.40547492.9864831-.58052729 1.548-.466l3.621.741z" fill="#bdc3c7"/><circle id="Oval" cx="29" cy="29" fill="#7f8c8d" r="17"/><g fill="#e64c3c"><path id="Path" d="m44.983 20.7c-.363585-.6867847-.7693619-1.3503887-1.215-1.987-.0360062-.040033-.0751287-.0771492-.117-.111l1.049-1.042c.2711081-.2712979.3708924-.6697901.2596284-1.0368358-.111264-.3670456-.4155144-.6430612-.7916284-.7181642l-3.918-.784c-.3410592-.0683142-.6936905.0383985-.939646.284354s-.3526682.5985868-.284354.939646l.784 3.918c.075103.376114.3511186.6803644.7181642.7916284.3670457.111264.7655379.0114797 1.0368358-.2596284l.674-.675c.3558745.5179403.6823883 1.0554528.978 1.61 3.0016623 5.794907 2.1849943 12.8318163-2.0640648 17.7852414-4.2490592 4.9534251-11.0797084 6.8315278-17.2639352 4.7467586-.3394023-.1139677-.7138241-.0382093-.9822242.1987379-.2684001.2369471-.3900022.5990851-.319.95s.3238219.6372944.6632242.7512621c1.8658688.6296519 3.821755.9515237 5.791.953 6.2815387-.0218916 12.0985801-3.3125594 15.3532144-8.6852275s3.4773351-12.0522542.5877856-17.6297725z"/><path id="Path" d="m19.061 37.976c-.0877231-.4386211-.4097218-.7933679-.8378234-.9230323s-.8928216-.0132007-1.2091766.3030323l-1.034 1.034c-.0249199-.0904091-.0629935-.1766643-.113-.256-.3959108-.5650479-.756274-1.1541865-1.079-1.764-3.0001023-5.7939316-2.1836058-12.8288812 2.0637891-17.7816474 4.2473949-4.9527663 11.075653-6.8321473 17.2592109-4.7503526.3394023.1139677.713824.0382093.9822241-.1987379s.3900022-.5990851.319-.95-.3238218-.6372944-.6632241-.7512621c-6.9593593-2.34438932-14.6451191-.2280578-19.4234184 5.3483836-4.7782992 5.5764415-5.69179466 13.49574-2.3085816 20.0136164.363585.6867847.7693619 1.3503887 1.215 1.987.1251175.1667464.3003383.2890505.5.349l-1.379 1.379c-.316233.316355-.4326967.781075-.3030323 1.2091766s.4844112.7501003.9230323.8378234l4.572.915c.3978392.0793464.8090202-.0452693 1.0958754-.3321246.2868553-.2868552.411471-.6980362.3321246-1.0958754z"/></g></g></g></svg>