<svg id="Layer_1" enable-background="new 0 0 511.999 511.999" height="512" viewBox="0 0 511.999 511.999" width="512" xmlns="http://www.w3.org/2000/svg"><g><path d="m485.491 126.163c11.592-12.949 17.93-29.491 17.93-47.007 0-18.853-7.344-36.576-20.674-49.905-13.33-13.33-31.055-20.672-49.904-20.672-17.516 0-34.055 6.336-47.002 17.926-33.76-17.371-71.992-26.505-111.295-26.505-34.771 0-69.051 6.91-101.887 20.538-33.918 14.078-64.539 34.639-91.012 61.111-42.621 42.621-69.818 95.747-78.652 153.634-8.01 52.476.336 105.475 23.512 150.556-11.59 12.949-17.928 29.491-17.928 47.006 0 18.852 7.342 36.575 20.672 49.904 13.33 13.33 31.053 20.672 49.904 20.672 17.516 0 34.055-6.336 47.002-17.926 33.756 17.368 71.986 26.503 111.299 26.504h.014c34.764 0 69.037-6.909 101.869-20.536 33.918-14.078 64.539-34.64 91.012-61.112 42.621-42.62 69.818-95.746 78.652-153.633 8.01-52.476-.336-105.475-23.512-150.555z" fill="#ffd400"/><path d="m485.491 126.163c11.592-12.949 17.93-29.491 17.93-47.007 0-18.852-7.342-36.574-20.672-49.904l-453.498 453.497c13.33 13.33 31.053 20.672 49.904 20.672 17.516 0 34.055-6.336 47.002-17.926 33.756 17.368 71.986 26.503 111.299 26.504h.014c34.764 0 69.037-6.909 101.869-20.536 33.918-14.078 64.539-34.64 91.012-61.112 42.621-42.62 69.818-95.746 78.652-153.633 8.01-52.476-.336-105.475-23.512-150.555z" fill="#ff9f00"/><g><g><path d="m264.034 407.564c-3.951 0-7.82-1.6-10.611-4.39-2.789-2.79-4.389-6.66-4.389-10.61 0-3.939 1.6-7.81 4.389-10.609 2.801-2.79 6.66-4.391 10.611-4.391 3.939 0 7.809 1.601 10.609 4.391 2.791 2.8 4.391 6.67 4.391 10.609 0 3.95-1.6 7.82-4.391 10.61-2.8 2.791-6.66 4.39-10.609 4.39z" fill="#ff641a"/></g><g><path d="m328.294 407.564c-3.939 0-7.811-1.6-10.609-4.39-2.791-2.79-4.391-6.66-4.391-10.61 0-3.939 1.6-7.81 4.391-10.609 2.799-2.79 6.67-4.391 10.609-4.391 3.949 0 7.82 1.601 10.609 4.391 2.791 2.8 4.391 6.67 4.391 10.609 0 3.95-1.6 7.82-4.391 10.61-2.789 2.791-6.66 4.39-10.609 4.39z" fill="#ff641a"/></g><g><g><path d="m296.163 351.915c-3.939 0-7.809-1.601-10.609-4.4-2.789-2.79-4.391-6.66-4.391-10.6 0-3.95 1.602-7.82 4.391-10.61 2.801-2.79 6.67-4.4 10.609-4.4 3.951 0 7.811 1.61 10.611 4.4 2.789 2.79 4.389 6.66 4.389 10.61 0 3.939-1.6 7.81-4.389 10.6-2.8 2.799-6.66 4.4-10.611 4.4z" fill="#ff641a"/></g></g></g></g></svg>