<svg id="Capa_1" enable-background="new 0 0 512 512" height="512" viewBox="0 0 512 512" width="512" xmlns="http://www.w3.org/2000/svg"><g id="Rice_2_"><g><path d="m481 241h-450v-15c0-36.665 26.455-67.266 61.26-73.74 6.474-34.82 37.09-61.26 73.74-61.26h30.293c13.887-18.706 36.035-30 59.707-30s45.82 11.294 59.707 30h30.293c36.65 0 67.266 26.44 73.74 61.26 34.805 6.474 61.26 37.075 61.26 73.74z" fill="#ffecd9"/></g><g id="Rice_1_"><path d="m481 241v-15c0-36.665-26.455-67.266-61.26-73.74-6.474-34.82-37.09-61.26-73.74-61.26h-30.293c-13.887-18.706-36.035-30-59.707-30v180z" fill="#ffd9b3"/></g><g><path d="m206.576 170.38c-5.625-5.654-15.527-5.654-21.152 0l-21.27-21.182c16.992-17.021 46.699-17.021 63.691 0z" fill="#ffd9b3"/></g><g><path d="m326.576 170.38c-5.625-5.654-15.527-5.654-21.152 0l-21.27-21.182c16.992-17.021 46.699-17.021 63.691 0z" fill="#fb9"/></g><g><path d="m391 451h-270v-15c0-15.234-12.422-25.811-34.395-43.169-36.123-28.564-86.605-67.676-86.605-166.831v-15h512v15c0 99.155-50.482 138.267-86.605 166.831-21.973 17.358-34.395 27.935-34.395 43.169z" fill="#f2f6ff"/></g><path d="m391 436c0-15.234 12.422-25.811 34.395-43.169 36.123-28.564 86.605-67.676 86.605-166.831v-15h-256v240h135z" fill="#d9e5ff"/></g></svg>