<?xml version="1.0" encoding="iso-8859-1"?>
<!-- Generator: Adobe Illustrator 19.0.0, SVG Export Plug-In . SVG Version: 6.00 Build 0)  -->
<svg version="1.1" id="Capa_1" xmlns="http://www.w3.org/2000/svg" xmlns:xlink="http://www.w3.org/1999/xlink" x="0px" y="0px"
	 viewBox="0 0 510.96 510.96" style="enable-background:new 0 0 510.96 510.96;" xml:space="preserve">
<circle style="fill:#FDBC4B;" cx="269.848" cy="290.656" r="220.304"/>
<circle style="fill:#EC9922;" cx="269.848" cy="290.656" r="159.2"/>
<g style="opacity:0.25;">
	<path style="fill:#FFFFFF;" d="M180.456,477.168c-71.328-34.24-117.424-107.472-117.424-186.56
		c0-114.032,92.784-206.816,206.832-206.816c50.992,0,99.968,18.72,137.92,52.688c6.592,5.888,7.136,16.016,1.248,22.592
		c-5.904,6.576-16,7.136-22.592,1.248c-32.064-28.72-73.472-44.528-116.576-44.528c-96.4,0-174.832,78.416-174.832,174.816
		c0,66.864,38.976,128.768,99.28,157.712c7.968,3.824,11.328,13.376,7.504,21.344C197.96,477.68,188.344,480.976,180.456,477.168z"
		/>
</g>
<g>
	<path style="fill:#FFDB70;" d="M101.4,129.584c0-36.192-22.112-58.304-58.304-58.304c36.192,0,58.304-22.112,58.304-58.304
		c0,36.192,22.112,58.304,58.304,58.304C123.512,71.28,101.4,93.392,101.4,129.584z"/>
	<path style="fill:#FFDB70;" d="M50.968,60.32c0-18.72-11.44-30.16-30.16-30.16c18.72,0,30.16-11.44,30.16-30.16
		c0,18.72,11.44,30.16,30.16,30.16C62.408,30.16,50.968,41.6,50.968,60.32z"/>
</g>
<path style="fill:#E48D25;" d="M110.648,290.608c0,66.992,41.424,124.208,100.016,147.712h15.664
	c12.208,0,22.112-9.904,22.112-22.112s-9.904-22.112-22.112-22.112h-29.584c-10.224,0-18.56-8.368-18.496-18.592v-0.24
	c0-0.448-0.016-0.912-0.048-1.344c-0.608-10.08,7.392-18.576,17.488-18.576h39.184c11.984,0,22.704-8.96,23.344-20.928
	c0.672-12.752-9.472-23.312-22.08-23.312h-12.128c-10.288,0-18.592-8.368-18.544-18.656v-1.28v-0.272
	c-0.064-10.816,8.736-19.664,19.552-19.664h15.664c11.968,0,22.704-8.96,23.344-20.928c0.672-12.752-9.472-23.312-22.08-23.312
	h-56.528c-10.688,0-18.656-8.976-18.528-19.664c0-0.08,0-0.176,0-0.272s0-0.176,0-0.272c-0.128-10.688,7.84-19.664,18.528-19.664
	h18.272c11.984,0,22.704-8.96,23.344-20.928c0.592-11.216-7.184-20.704-17.648-22.848
	C151.464,167.168,110.648,224.096,110.648,290.608z"/>
<path style="fill:#FFFFFF;" d="M259.88,362.496v-59.664c-18.608-5.312-32.256-13.36-40.944-24.128s-13.024-23.856-13.024-39.232
	c0-15.568,4.912-28.64,14.736-39.232c9.824-10.592,22.896-16.688,39.232-18.304V167.84h20.64v14.096
	c15.088,1.808,27.104,6.96,36.032,15.456s14.624,19.856,17.088,34.096l-36.032,4.704c-2.176-11.2-7.872-18.8-17.088-22.784v55.68
	c22.784,6.176,38.304,14.16,46.56,24c8.256,9.824,12.384,22.432,12.384,37.808c0,17.184-5.2,31.664-15.584,43.424
	s-24.848,18.992-43.36,21.648v17.408h-20.64v-16.704c-16.416-2-29.76-8.112-40.016-18.368s-16.8-24.736-19.648-43.424l37.168-3.984
	c1.52,7.6,4.368,14.144,8.544,19.648C250.104,356.048,254.76,360.032,259.88,362.496z M259.88,212.992
	c-5.6,1.904-10.064,5.12-13.392,9.68s-4.976,9.584-4.976,15.088c0,5.024,1.52,9.712,4.56,14.032
	c3.04,4.32,7.648,7.808,13.808,10.464V212.992z M280.52,364.496c7.12-1.328,12.912-4.624,17.376-9.904s6.688-11.456,6.688-18.576
	c0-6.368-1.872-11.84-5.632-16.448c-3.744-4.608-9.904-8.144-18.432-10.608V364.496z"/>
<g>
</g>
<g>
</g>
<g>
</g>
<g>
</g>
<g>
</g>
<g>
</g>
<g>
</g>
<g>
</g>
<g>
</g>
<g>
</g>
<g>
</g>
<g>
</g>
<g>
</g>
<g>
</g>
<g>
</g>
</svg>
