<?xml version="1.0" encoding="iso-8859-1"?>
<!-- Generator: Adobe Illustrator 21.0.0, SVG Export Plug-In . SVG Version: 6.00 Build 0)  -->
<svg xmlns="http://www.w3.org/2000/svg" xmlns:xlink="http://www.w3.org/1999/xlink" version="1.1" id="Capa_1" x="0px" y="0px" viewBox="0 0 512 512" style="enable-background:new 0 0 512 512;" xml:space="preserve" width="512" height="512">
<g>
	<path style="fill:#E6E6E6;" d="M510.711,83.038l-21.705-48.896c-5.555-12.515-16.323-21.771-29.542-25.395   c-13.219-3.623-27.21-1.153-38.383,6.777L121.151,228.398c-5.863,4.161-7.949,11.89-4.975,18.43l82.409,181.206   c2.483,5.46,7.9,8.799,13.672,8.799c1.288,0,2.595-0.167,3.89-0.513l32.851-8.791c5.806-1.554,10.125-6.416,10.979-12.358   l4.876-33.927l33.144-8.87c5.806-1.555,10.126-6.416,10.979-12.358l4.876-33.927l33.144-8.87   c5.806-1.555,10.126-6.416,10.979-12.358l4.876-33.927l33.144-8.87c5.808-1.555,10.128-6.418,10.98-12.363l4.862-33.912   l33.14-8.869c5.808-1.554,10.128-6.418,10.98-12.363l4.861-33.907l33.147-8.855c5.812-1.553,10.136-6.42,10.987-12.369   l6.894-48.187C512.247,88.453,511.853,85.611,510.711,83.038z"/>
	<path style="fill:#D9D9D9;" d="M490.498,37.502L135.202,288.663l63.384,139.371c2.483,5.46,7.9,8.799,13.672,8.799   c1.288,0,2.595-0.167,3.89-0.513l32.851-8.791c5.806-1.554,10.125-6.416,10.979-12.358l4.876-33.927l33.144-8.87   c5.806-1.555,10.126-6.416,10.979-12.358l4.876-33.927l33.144-8.87c5.806-1.555,10.126-6.416,10.979-12.358l4.876-33.927   l33.144-8.87c5.808-1.555,10.128-6.418,10.98-12.363l4.862-33.912l33.14-8.869c5.808-1.554,10.128-6.418,10.98-12.363l4.861-33.907   l33.147-8.855c5.812-1.553,10.136-6.42,10.987-12.369l6.894-48.187c0.398-2.786,0.004-5.628-1.138-8.201L490.498,37.502z"/>
	<path style="fill:#FEC03F;" d="M227.362,418.765l-83.836-184.343c-1.854-4.078-5.436-7.114-9.766-8.28   c-4.33-1.165-8.954-0.338-12.609,2.256l-102.022,72.41c-17.73,12.583-24.061,36.054-15.06,55.794l52.059,114.474   c7.137,15.716,20.798,27.309,37.482,31.805c4.982,1.343,10.051,2.004,15.084,2.004c11.825,0,23.46-3.646,33.341-10.66   l80.353-57.029C228.25,433.034,230.336,425.305,227.362,418.765z M131.026,429.473c-2.002,0.9-4.097,1.327-6.158,1.327   c-5.728,0-11.199-3.29-13.704-8.845L77.91,348.204c-3.406-7.554-0.036-16.435,7.528-19.836c7.564-3.401,16.456-0.035,19.862,7.518   l33.254,73.751C141.96,417.191,138.59,426.072,131.026,429.473z"/>
	<path style="fill:#ED961F;" d="M227.362,418.765l-67.194-147.75L12.589,375.339l43.538,95.737   c7.137,15.716,20.798,27.309,37.482,31.805c4.982,1.343,10.051,2.004,15.084,2.004c11.825,0,23.46-3.646,33.341-10.66   l80.353-57.029C228.25,433.034,230.336,425.305,227.362,418.765z M131.026,429.473c-2.002,0.9-4.097,1.327-6.158,1.327   c-5.728,0-11.199-3.29-13.704-8.845L77.91,348.204c-3.406-7.554-0.036-16.435,7.528-19.836c7.564-3.401,16.456-0.035,19.862,7.518   l33.254,73.751C141.96,417.191,138.59,426.072,131.026,429.473z"/>
</g>















</svg>
