<svg id="Capa_1" enable-background="new 0 0 512 512" height="512" viewBox="0 0 512 512" width="512" xmlns="http://www.w3.org/2000/svg"><g><path d="m378.607 126.294c.047-1.603.063-3.214.047-4.833-.634-66.302-54.669-120.559-120.968-121.45-68.516-.92-124.346 54.345-124.346 122.649 0 1.059.013 2.115.04 3.167.873 34.383-10.246 67.853-29.784 96.159-20.695 29.983-32.77 66.371-32.641 105.589.336 102.497 85.065 185.771 187.554 184.408 101.041-1.343 182.536-83.669 182.536-185.029 0-39.517-12.39-76.138-33.496-106.195-19.433-27.674-29.926-60.663-28.942-94.465z" fill="#bbec6c"/><path d="m441.042 326.951c0 101.359-81.487 183.691-182.537 185.032-4.855.062-9.678-.062-14.44-.361 96.639-6.153 173.106-86.486 173.106-184.671 0-39.517-12.389-76.138-33.498-106.194-19.439-27.674-29.931-60.657-28.942-94.464.041-1.608.062-3.216.041-4.834-.598-62.872-49.216-114.912-110.769-120.88 4.494-.433 9.06-.629 13.688-.567 66.295.887 120.334 55.143 120.963 121.448.021 1.618 0 3.226-.052 4.834-.979 33.807 9.513 66.79 28.952 94.464 21.099 30.055 33.488 66.676 33.488 106.193z" fill="#a2e62e"/><g><circle cx="256" cy="327.757" fill="#d77f4a" r="92.614"/><path d="m348.61 327.754c0 51.149-41.461 92.623-92.61 92.623-23.002 0-44.059-8.395-60.247-22.287 10.403 4.041 21.709 6.262 33.543 6.262 51.149 0 92.61-41.474 92.61-92.623 0-28.147-12.549-53.345-32.363-70.324 34.572 13.44 59.067 47.033 59.067 86.349z" fill="#c86d36"/></g></g></svg>