<svg id="Layer_1" height="512" viewBox="0 0 128 128" width="512" xmlns="http://www.w3.org/2000/svg"><g><g clip-rule="evenodd" fill-rule="evenodd"><g><g><path d="m55.17 115.988c21.033 0 38.183-17.15 38.183-38.184 0-21.004-17.149-38.154-38.183-38.154s-38.154 17.15-38.154 38.154c0 21.034 17.121 38.184 38.154 38.184z" fill="#89afd9"/><path d="m55.17 39.65c10.091 0 19.247 3.912 26.079 10.291 3.912 6.008 6.208 13.152 6.208 20.861 0 21.09-17.093 38.184-38.183 38.184-10.063 0-19.248-3.912-26.05-10.289-3.94-6.01-6.208-13.182-6.208-20.893 0-21.06 17.064-38.154 38.154-38.154z" fill="#a6c2e2"/></g><path d="m28.836 105.443c-7.285-6.945-11.82-16.754-11.82-27.639 0-9.949 3.827-19.049 10.091-25.852-.51 5.244.057 12.727 4.847 20.438 7.37 11.85 10.999 26.022-3.118 33.053z" fill="#c6df9a"/><g><path d="m61.604 40.189c18.028 3.061 31.748 18.736 31.748 37.615 0 5.244-1.049 10.205-2.948 14.74-20.636.313-23.442-9.893-23.074-19.928.425-11.707-7.824-7.596-11.509-14.088-2.38-4.221 2.24-12.811 5.783-18.339z" fill="#bdd88d"/><path d="m61.604 40.189c7.54 1.275 14.315 4.762 19.644 9.752 3.912 6.008 6.208 13.18 6.208 20.861 0 7.768-2.324 14.996-6.293 21.006-12.273-2.494-14.144-10.913-13.832-19.191.425-11.707-7.824-7.596-11.509-14.088-2.381-4.222 2.239-12.812 5.782-18.34z" fill="#c6df9a"/></g><g><path d="m71.044 112.559c-4.847 2.211-10.205 3.43-15.874 3.43-3.855 0-7.597-.568-11.14-1.645 1.587-5.273 4.479-11.424 9.411-11.793 4.478-.34 11.679 4.877 17.603 10.008z" fill="#bdd88d"/><path d="m46.184 108.844c1.672-3.316 4.025-6.066 7.257-6.293 2.579-.197 6.038 1.447 9.666 3.855-4.28 1.672-8.958 2.58-13.833 2.58-1.049 0-2.069-.056-3.09-.142z" fill="#c6df9a"/></g></g><g><path d="m23.394 42.826c-2.778 0-5.046 2.268-5.046 5.018v47.791c-4.138 1.898-7.03 6.094-7.03 10.971 0 6.66 5.386 12.074 12.076 12.074 6.661 0 12.076-5.414 12.076-12.074 0-4.877-2.892-9.072-7.059-10.971v-47.791c0-2.75-2.268-5.018-5.017-5.018z" fill="#f5777e"/><path d="m23.394 111.963c2.948 0 5.357-2.41 5.357-5.357 0-2.949-2.41-5.357-5.357-5.357-2.977 0-5.386 2.408-5.386 5.357 0 2.947 2.409 5.357 5.386 5.357z" fill="#f1404b"/></g><g><g><path d="m102.197 9.32c2.494 0 4.167 2.891 6.491 3.855 2.324.963 5.527.084 7.313 1.871 1.786 1.756.878 4.988 1.842 7.313s3.884 3.969 3.884 6.492c0 2.494-2.92 4.166-3.884 6.49s-.057 5.527-1.842 7.314c-1.786 1.785-4.989.877-7.313 1.842-2.324.963-3.997 3.883-6.491 3.883-2.523 0-4.167-2.92-6.492-3.883-2.324-.965-5.556-.057-7.341-1.842-1.758-1.787-.879-4.99-1.843-7.314s-3.855-3.996-3.855-6.49c0-2.523 2.891-4.168 3.855-6.492s.085-5.557 1.843-7.313c1.786-1.787 5.017-.908 7.341-1.871 2.325-.964 3.969-3.855 6.492-3.855z" fill="#ffcb6c"/><path d="m102.197 9.32c2.381 0 3.968 2.58 6.094 3.686.879 2.068 1.361 4.365 1.361 6.746 0 9.75-7.909 17.631-17.632 17.631-1.786 0-3.515-.256-5.13-.736-.085-.453-.199-.908-.369-1.305-.964-2.324-3.855-3.996-3.855-6.49 0-2.523 2.891-4.168 3.855-6.492s.085-5.557 1.843-7.313c1.786-1.787 5.017-.908 7.341-1.871 2.325-.965 3.969-3.856 6.492-3.856z" fill="#ffd281"/></g><g><path d="m102.197 40.359c6.321 0 11.509-5.188 11.509-11.508 0-6.35-5.188-11.51-11.509-11.51-6.35 0-11.509 5.16-11.509 11.51 0 6.321 5.159 11.508 11.509 11.508z" fill="#ffbc42"/><path d="m102.197 17.342c2.834 0 5.442 1.021 7.455 2.721-.17 8.816-6.775 16.074-15.335 17.18-2.239-2.098-3.628-5.074-3.628-8.391-.001-6.379 5.13-11.51 11.508-11.51z" fill="#ffc357"/></g></g></g><g><path d="m23.394 102.248c-.552 0-1-.447-1-1v-52.781c0-.553.448-1 1-1s1 .447 1 1v52.781c0 .553-.448 1-1 1z" fill="#f1404b"/></g><g><g><path d="m11.148 58.311h-2.92c-.552 0-1-.447-1-1s.448-1 1-1h2.92c.552 0 1 .447 1 1s-.448 1-1 1z" fill="#f5777e"/></g><g><path d="m11.148 65.738h-4.876c-.552 0-1-.447-1-1s.448-1 1-1h4.875c.552 0 1 .447 1 1s-.447 1-.999 1z" fill="#f5777e"/></g><g><path d="m11.148 73.164h-2.92c-.552 0-1-.447-1-1s.448-1 1-1h2.92c.552 0 1 .447 1 1s-.448 1-1 1z" fill="#f5777e"/></g><g><path d="m11.148 80.592h-4.876c-.552 0-1-.447-1-1s.448-1 1-1h4.875c.552 0 1 .447 1 1s-.447 1-.999 1z" fill="#f5777e"/></g><g><path d="m11.148 88.047h-2.92c-.552 0-1-.447-1-1s.448-1 1-1h2.92c.552 0 1 .447 1 1s-.448 1-1 1z" fill="#f5777e"/></g></g></g></svg>