<?xml version="1.0" encoding="iso-8859-1"?>
<!-- Generator: Adobe Illustrator 19.0.0, SVG Export Plug-In . SVG Version: 6.00 Build 0)  -->
<svg version="1.1" id="Capa_1" xmlns="http://www.w3.org/2000/svg" xmlns:xlink="http://www.w3.org/1999/xlink" x="0px" y="0px"
	 viewBox="0 0 490.686 490.686" style="enable-background:new 0 0 490.686 490.686;" xml:space="preserve">
<path style="fill:#4CAF50;" d="M210.225,3.124c-4.166-4.166-10.919-4.165-15.085,0c-1.334,1.334-2.29,2.997-2.771,4.821
	c-10.667,40.363-74.667,125.973-103.893,155.179c-2.581,2.56-5.333,5.205-8.235,8C48.284,201.737,0.006,248.009,0.006,373.343
	c0.007,5.891,4.789,10.661,10.68,10.654c3.137-0.004,6.113-1.388,8.136-3.784l222.379-263.829c1.851-2.2,2.736-5.054,2.453-7.915
	C240.092,71.732,229.19,22.111,210.225,3.124z"/>
<path style="fill:#FFC107;" d="M441.606,0.009c-3.647-0.008-7.283,0.4-10.837,1.216C351.88,19.867,278.544,56.973,216.796,109.492
	l-17.963,16.491C101.084,215.689,0.006,308.447,0.006,373.343c0.192,49.884,31.905,94.193,79.061,110.464
	c3.288,1.143,6.928,0.61,9.749-1.429l298.667-216.085c0.684-0.494,1.307-1.066,1.856-1.707
	c48.139-59.943,82.384-129.816,100.267-204.587c0.769-3.589,1.127-7.253,1.067-10.923C490.673,21.977,468.705,0.009,441.606,0.009z"
	/>
<path style="fill:#4CAF50;" d="M487.558,280.457c-21.717-21.675-87.253-35.115-135.552-35.115
	c-15.744,0-158.635,4.885-327.552,173.781c-3.058,3.057-3.968,7.657-2.304,11.648c17.129,37.002,54.419,60.469,95.189,59.904
	c125.312,0,171.563-48.256,202.176-80.192c2.795-2.923,5.44-5.696,8.021-8.277c29.227-29.227,114.88-93.184,155.2-103.893
	c5.694-1.512,9.083-7.354,7.571-13.047c-0.483-1.819-1.439-3.478-2.771-4.809L487.558,280.457z"/>
<g>
	<circle style="fill:#FFD54F;" cx="416.006" cy="74.676" r="10.667"/>
	<circle style="fill:#FFD54F;" cx="330.673" cy="96.009" r="10.667"/>
	<circle style="fill:#FFD54F;" cx="266.673" cy="138.676" r="10.667"/>
	<circle style="fill:#FFD54F;" cx="202.673" cy="202.676" r="10.667"/>
	<circle style="fill:#FFD54F;" cx="266.673" cy="202.676" r="10.667"/>
	<circle style="fill:#FFD54F;" cx="330.673" cy="160.009" r="10.667"/>
	<circle style="fill:#FFD54F;" cx="394.673" cy="138.676" r="10.667"/>
	<circle style="fill:#FFD54F;" cx="352.006" cy="224.009" r="10.667"/>
	<circle style="fill:#FFD54F;" cx="138.673" cy="266.676" r="10.667"/>
	<circle style="fill:#FFD54F;" cx="74.673" cy="330.676" r="10.667"/>
</g>
<g>
</g>
<g>
</g>
<g>
</g>
<g>
</g>
<g>
</g>
<g>
</g>
<g>
</g>
<g>
</g>
<g>
</g>
<g>
</g>
<g>
</g>
<g>
</g>
<g>
</g>
<g>
</g>
<g>
</g>
</svg>
