<svg height="512" viewBox="0 0 48 48" width="512" xmlns="http://www.w3.org/2000/svg"><g id="Line"><path d="m31 32a1 1 0 1 1 0-2 1 1 0 0 1 0 2z" fill="#bee1f4"/><path d="m38 32a1 1 0 1 1 0-2 1 1 0 1 1 0 2z" fill="#bee1f4"/><g fill="#bedee1"><path d="m24 40a1 1 0 1 1 0-2 1 1 0 0 1 0 2z"/><path d="m31 40a1 1 0 1 1 0-2 1 1 0 1 1 0 2z"/><path d="m38 40a1 1 0 1 1 0-2 1 1 0 1 1 0 2z"/><path d="m41 36a1 1 0 1 1 0-2 1 1 0 1 1 0 2z"/><path d="m6 44a1 1 0 1 1 0-2 1 1 0 0 1 0 2z"/><path d="m6 36a1 1 0 1 1 0-2 1 1 0 0 1 0 2z"/></g><path d="m24 32h-21a1 1 0 0 1 0-2h21a1 1 0 0 1 0 2z" fill="#bee1f4"/><path d="m34 36h-21a1 1 0 0 1 0-2h21a1 1 0 0 1 0 2z" fill="#bedee1"/><path d="m17 40h-14a1 1 0 0 1 0-2h14a1 1 0 0 1 0 2z" fill="#bedee1"/><path d="m41 44h-28a1 1 0 0 1 0-2h28a1 1 0 0 1 0 2z" fill="#bedee1"/><path d="m38.87 14.42a7.93 7.93 0 0 0 -.15-3.49 8 8 0 0 0 -13.46-3.5 9 9 0 0 0 -17.26 3.57 2.81 2.81 0 0 0 0 .29 8.11 8.11 0 0 0 -6 7.71v.1a9.16 9.16 0 0 0 9.26 8.9h28.74a6 6 0 0 0 6-6 7.29 7.29 0 0 0 -7.13-7.58z" fill="#d1d1d1"/></g></svg>