<svg id="Capa_1" enable-background="new 0 0 512.013 512.013" height="512" viewBox="0 0 512.013 512.013" width="512" xmlns="http://www.w3.org/2000/svg"><g><g><path d="m482.124 212.911c-8.496-66.284-38.613-115.518-62.402-145.137-5.186-6.46-4.146-15.908 2.314-21.094 6.504-5.142 15.908-4.131 21.094 2.314 26.177 32.637 59.37 86.895 68.76 160.107 1.055 8.218-4.761 15.732-12.979 16.787-8.738.994-15.772-5.145-16.787-12.977z" fill="#dfe7f4"/></g><g><path d="m13.102 225.889c-8.218-1.055-14.033-8.569-12.979-16.787 9.39-73.213 42.583-127.471 68.76-160.107 5.229-6.445 14.648-7.456 21.094-2.314 6.46 5.186 7.5 14.634 2.314 21.094-23.789 29.619-53.906 78.853-62.402 145.137-1.016 7.843-8.062 13.969-16.787 12.977z" fill="#f0f7ff"/></g><g><path d="m421.582 213.321c-7.397-47.344-29.736-83.862-47.168-106.143-5.098-6.533-3.94-15.952 2.578-21.064 6.533-5.127 15.952-3.926 21.064 2.578 19.614 25.093 44.766 66.284 53.174 120 1.274 8.188-4.321 15.85-12.51 17.139-8.33 1.257-15.875-4.435-17.138-12.51z" fill="#dfe7f4"/></g><g><path d="m73.292 225.831c-8.188-1.289-13.784-8.95-12.51-17.139 8.408-53.716 33.56-94.907 53.174-120 5.083-6.548 14.517-7.69 21.064-2.578 6.519 5.112 7.676 14.531 2.578 21.064-17.432 22.28-39.771 58.799-47.168 106.143-1.26 8.064-8.794 13.769-17.138 12.51z" fill="#f0f7ff"/></g><path d="m256.006 421.006h-45v30c0 24.814 20.186 45 45 45s45-20.186 45-45v-30z" fill="#fabe2c"/><path d="m301.006 451.006v-30h-45v75c24.815 0 45-20.185 45-45z" fill="#ff9100"/><path d="m256.006 16.006c-24.814 0-45 20.186-45 45s20.186 45 45 45 45-20.186 45-45-20.185-45-45-45zm0 60c-8.276 0-15-6.724-15-15s6.724-15 15-15 15 6.724 15 15-6.723 15-15 15z" fill="#fabe2c"/><path d="m301.006 61.006c0-24.814-20.186-45-45-45v30c8.276 0 15 6.724 15 15s-6.724 15-15 15v30c24.815 0 45-20.185 45-45z" fill="#ff9100"/><path d="m407.006 357.461c-9.814-19.629-15-41.602-15-63.53v-37.925c0-99.258-61.557-180-136-180s-136 80.742-136 180v37.925c0 21.929-5.186 43.901-15 63.53-9.814 19.644-15 41.616-15 63.545 0 8.291 6.709 15 15 15h151 151c8.291 0 15-6.709 15-15 0-21.928-5.185-43.901-15-63.545z" fill="#ffea00"/><path d="m422.006 421.006c0-21.929-5.186-43.901-15-63.545-9.814-19.629-15-41.602-15-63.53v-37.925c0-99.258-61.557-180-136-180v360h151c8.291 0 15-6.709 15-15z" fill="#fabe2c"/></g></svg>