<?xml version="1.0" encoding="iso-8859-1"?>
<!-- Generator: Adobe Illustrator 19.0.0, SVG Export Plug-In . SVG Version: 6.00 Build 0)  -->
<svg xmlns="http://www.w3.org/2000/svg" xmlns:xlink="http://www.w3.org/1999/xlink" version="1.1" id="Layer_1" x="0px" y="0px" viewBox="0 0 512 512" style="enable-background:new 0 0 512 512;" xml:space="preserve">
<rect x="168.108" y="276.746" transform="matrix(-0.7071 -0.7071 0.7071 -0.7071 84.3351 689.1483)" style="fill:#6E6057;" width="33.574" height="100.723"/>
<rect x="182.435" y="282.692" transform="matrix(0.7071 0.7071 -0.7071 0.7071 291.3967 -37.3875)" style="fill:#615349;" width="16.787" height="100.723"/>
<path style="fill:#79695A;" d="M196.765,315.236L196.765,315.236c-72.115-72.115-72.115-189.035,0-261.149l0,0  c72.114-72.114,189.035-72.114,261.149,0l0,0c72.114,72.114,72.114,189.035,0,261.149l0,0  C385.799,387.349,268.879,387.349,196.765,315.236z"/>
<path style="fill:#6C5B52;" d="M457.914,315.236L457.914,315.236c72.115-72.115,72.115-189.034,0-261.149L196.765,315.236  C268.88,387.351,385.8,387.349,457.914,315.236z"/>
<path style="fill:#DBE1F1;" d="M220.505,291.495L220.505,291.495c-59.003-59.003-59.003-154.665,0-213.668l0,0  c59.003-59.003,154.665-59.003,213.668,0l0,0c59.003,59.003,59.003,154.665,0,213.668l0,0  C375.17,350.497,279.508,350.497,220.505,291.495z"/>
<path style="fill:#D0D5E5;" d="M434.173,291.495c59.003-59.003,59.003-154.665,0-213.668L220.505,291.495  C279.508,350.497,375.17,350.497,434.173,291.495z"/>
<path style="fill:#7CCC92;" d="M411.303,184.582c0-23.266-9.496-44.475-21.684-62.202c-21.367-31.022-51.042-51.201-52.862-52.547  c-3.007-1.899-6.253-2.77-9.418-2.77c-3.324-0.001-6.569,0.87-9.418,2.769c-3.085,2.138-74.547,50.963-74.547,114.747  c0,24.85,10.526,44.87,23.742,60.302c22,25.482,51.675,38.223,53.655,39.093c2.058,0.95,4.352,1.345,6.568,1.345  c2.216,0,4.432-0.475,6.409-1.345C336.995,282.631,411.224,250.66,411.303,184.582z"/>
<path style="fill:#34B772;" d="M333.749,283.977c-1.978,0.871-4.193,1.345-6.409,1.345s-4.51-0.395-6.568-1.345  c-1.979-0.871-31.654-13.611-53.655-39.093L389.62,122.381c12.188,17.726,21.685,38.935,21.684,62.202  C411.224,250.66,336.995,282.631,333.749,283.977z"/>
<path style="fill:#FF6243;" d="M14.751,497.248L14.751,497.248c-19.668-19.668-19.668-51.555,0-71.223l110.791-110.791  c6.556-6.556,17.185-6.556,23.741,0l47.481,47.481c6.556,6.556,6.556,17.185,0,23.741L85.974,497.248  C66.306,516.916,34.419,516.916,14.751,497.248z"/>
<path style="fill:#FF0C38;" d="M196.765,362.717l-23.741-23.741L14.751,497.248c19.668,19.668,51.555,19.668,71.223,0  l110.791-110.791C203.321,379.902,203.32,369.273,196.765,362.717z"/>
<path style="fill:#DDDD47;" d="M327.339,302.098c-9.337,0.001-16.856-7.517-16.776-16.776l-0.082-83.803l-0.001-16.935  c0.001-9.337,7.518-16.854,16.776-16.776c4.749,0.001,9.022,1.9,11.95,4.986c3.087,3.087,4.906,7.122,4.828,11.791l0.081,100.736  C344.037,294.582,336.598,302.02,327.339,302.098z"/>
<path style="fill:#C7D100;" d="M327.339,302.098c-9.337,0.001-16.856-7.517-16.776-16.776l-0.082-83.803l28.725-28.725  c3.087,3.087,4.906,7.122,4.828,11.791l0.081,100.736C344.037,294.582,336.598,302.02,327.339,302.098z"/>
<g>
</g>
<g>
</g>
<g>
</g>
<g>
</g>
<g>
</g>
<g>
</g>
<g>
</g>
<g>
</g>
<g>
</g>
<g>
</g>
<g>
</g>
<g>
</g>
<g>
</g>
<g>
</g>
<g>
</g>
</svg>
