<?xml version="1.0" encoding="iso-8859-1"?>
<!-- Generator: Adobe Illustrator 19.0.0, SVG Export Plug-In . SVG Version: 6.00 Build 0)  -->
<svg version="1.1" id="Capa_1" xmlns="http://www.w3.org/2000/svg" xmlns:xlink="http://www.w3.org/1999/xlink" x="0px" y="0px"
	 viewBox="0 0 512 512" style="enable-background:new 0 0 512 512;" xml:space="preserve">
<circle style="fill:#E8AF2A;" cx="256" cy="256" r="256"/>
<path style="fill:#FFD83B;" d="M488.208,225.504c-13.232-104.256-97.424-188.448-201.68-201.712
	C133.584,4.336,4.352,133.568,23.792,286.512c13.248,104.256,97.424,188.432,201.68,201.696
	C378.416,507.648,507.648,378.464,488.208,225.504z M93.6,123.136c3.04-3.712,8.72-3.856,12.112-0.48L213.136,230.08
	c5.136,5.136,1.504,13.92-5.76,13.92H55.392c-4.8,0-8.72-4.16-8.24-8.928C51.344,192.832,68.064,154.288,93.6,123.136z
	 M93.6,388.864c-25.536-31.152-42.24-69.68-46.448-111.936c-0.48-4.768,3.44-8.928,8.24-8.928h151.952
	c7.264,0,10.912,8.784,5.76,13.92L105.696,389.328C102.304,392.72,96.624,392.576,93.6,388.864z M244,456.608
	c0,4.8-4.16,8.704-8.928,8.24c-42.24-4.208-80.768-20.912-111.92-46.432c-3.712-3.04-3.856-8.72-0.464-12.112l107.408-107.408
	c5.136-5.136,13.92-1.504,13.92,5.76v151.952H244z M244,207.328c0,7.264-8.784,10.912-13.92,5.76L122.672,105.696
	c-3.392-3.392-3.232-9.072,0.464-12.112c31.152-25.52,69.68-42.224,111.92-46.432c4.768-0.48,8.928,3.44,8.928,8.24v151.936H244z
	 M268,55.392c0-4.8,4.16-8.72,8.928-8.24c42.24,4.208,80.784,20.912,111.936,46.448c3.712,3.04,3.856,8.72,0.464,12.112
	L281.92,213.12c-5.136,5.136-13.92,1.504-13.92-5.76V55.392z M388.864,418.4c-31.152,25.536-69.696,42.24-111.936,46.432
	c-4.768,0.48-8.928-3.44-8.928-8.24V304.64c0-7.264,8.784-10.912,13.92-5.76l107.424,107.424
	C392.72,409.68,392.576,415.36,388.864,418.4z M418.416,388.864c-3.04,3.712-8.72,3.856-12.112,0.464L298.896,281.92
	c-5.136-5.136-1.504-13.92,5.76-13.92h151.936c4.8,0,8.72,4.16,8.24,8.928C460.64,319.184,443.936,357.712,418.416,388.864z
	 M456.608,244H304.656c-7.264,0-10.912-8.784-5.76-13.92l107.408-107.408c3.392-3.392,9.072-3.232,12.112,0.464
	c25.536,31.152,42.24,69.696,46.448,111.936C465.328,239.84,461.408,244,456.608,244z"/>
<g>
</g>
<g>
</g>
<g>
</g>
<g>
</g>
<g>
</g>
<g>
</g>
<g>
</g>
<g>
</g>
<g>
</g>
<g>
</g>
<g>
</g>
<g>
</g>
<g>
</g>
<g>
</g>
<g>
</g>
</svg>
