<svg height="512pt" viewBox="0 -88 512 511" width="512pt" xmlns="http://www.w3.org/2000/svg"><path d="m512 232.03125c0 56.078125-43.878906 101.589844-99.910156 103.589844l-1.070313.019531-155.488281-.011719h-148.269531c-60.140625-1.828125-107.261719-50.398437-107.261719-110.589844 0-22.289062 6.640625-43.820312 19.199219-62.269531 11.269531-16.539062 26.582031-29.570312 44.5625-37.960937 5.109375-36.949219 36.71875-64.988282 74.726562-64.988282 11.773438 0 23.160157 2.691407 33.523438 7.851563 17.886719-29.601563 46.417969-51.742187 79.769531-61.53125 1.238281-.359375 2.488281-.710937 3.75-1.039063 11.589844-3.050781 23.539062-4.601562 35.578125-4.601562 73.691406 0 134.179687 57.589844 138.851563 130.128906 47.367187 10.03125 82.039062 52.101563 82.039062 101.402344zm0 0" fill="#ddebf0"/><path d="m512 232.03125c0 56.078125-43.878906 101.589844-99.910156 103.589844l-1.070313.019531-155.488281-.011719v-330.527344c11.589844-3.050781 23.539062-4.601562 35.578125-4.601562 73.691406 0 134.179687 57.589844 138.851563 130.128906 47.367187 10.03125 82.039062 52.101563 82.039062 101.402344zm0 0" fill="#c4e1e8"/><g fill="#3caafd"><path d="m305.601562 276.648438c0 4.140624-1.679687 7.902343-4.390624 10.613281-2.722657 2.707031-6.460938 4.386719-10.609376 4.398437-8.292968 0-15-6.710937-15-14.988281-.011718-7.84375-9.101562-14.472656-20.070312-14.480469-5.8125 0-11.5625 1.867188-15.460938 5.128906-1.839843 1.539063-4.929687 4.789063-4.929687 9.300782.007813 8.277344-6.710937 15-14.992187 15.007812h-.007813c-8.28125 0-14.992187-6.707031-15-15 0-12.207031 5.710937-23.988281 15.6875-32.328125 9.332031-7.800781 21.800781-12.101562 34.703125-12.109375 27.6875 0 50.046875 19.957032 50.070312 44.457032zm0 0"/><path d="m343.160156 239.75c-1.679687.601562-3.398437.890625-5.089844.890625-6.140624 0-11.898437-3.800781-14.109374-9.921875-7.230469-20.058594-35.890626-34.628906-68.429688-34.648438-31.910156 0-60.882812 14.230469-68.519531 33.839844-3.023438 7.71875-11.710938 11.53125-19.433594 8.519532-7.71875-3.007813-11.527344-11.710938-8.519531-19.417969 12.351562-31.671875 51.269531-52.941407 96.472656-52.941407 45.46875.019532 85.097656 22.417969 96.648438 54.480469 2.808593 7.789063-1.230469 16.390625-9.019532 19.199219zm0 0"/><path d="m378.621094 190.371094c-1.769532.679687-3.582032 1-5.359375 1-6.042969 0-11.730469-3.671875-14.011719-9.652344-11.140625-29.097656-54.570312-50.238281-103.71875-50.257812-48.191406 0-92.101562 20.617187-103.871094 49.050781-3.171875 7.660156-11.941406 11.289062-19.601562 8.117187-7.648438-3.167968-11.289063-11.9375-8.117188-19.589844 8.296875-20.050781 25.570313-37.140624 49.949219-49.429687 23.550781-11.871094 52.050781-18.148437 81.640625-18.148437 30.078125.007812 58.238281 6.488281 82.019531 18.730468 24.308594 12.519532 41.96875 30.558594 49.71875 50.808594 2.960938 7.738281-.910156 16.410156-8.648437 19.371094zm0 0"/></g><path d="m305.601562 276.648438c0 4.140624-1.679687 7.902343-4.390624 10.613281-2.722657 2.707031-6.460938 4.386719-10.609376 4.398437-8.292968 0-15-6.710937-15-14.988281-.011718-7.84375-9.101562-14.472656-20.070312-14.480469v-30c27.6875 0 50.046875 19.957032 50.070312 44.457032zm0 0" fill="#0083db"/><path d="m352.179688 220.550781c2.808593 7.789063-1.230469 16.390625-9.019532 19.199219-1.679687.601562-3.398437.890625-5.089844.890625-6.140624 0-11.898437-3.800781-14.109374-9.921875-7.230469-20.058594-35.890626-34.628906-68.429688-34.648438v-30c45.46875.019532 85.097656 22.417969 96.648438 54.480469zm0 0" fill="#0083db"/><path d="m378.621094 190.371094c-1.769532.679687-3.582032 1-5.359375 1-6.042969 0-11.730469-3.671875-14.011719-9.652344-11.140625-29.097656-54.570312-50.238281-103.71875-50.257812v-30c30.078125.007812 58.238281 6.488281 82.019531 18.730468 24.308594 12.519532 41.96875 30.558594 49.71875 50.808594 2.960938 7.738281-.910156 16.410156-8.648437 19.371094zm0 0" fill="#0083db"/></svg>