<svg id="Capa_1" enable-background="new 0 0 512 512" height="512" viewBox="0 0 512 512" width="512" xmlns="http://www.w3.org/2000/svg"><g><g><g><path d="m63.734 75.202-17.693 37.694-46.041 26.04v373.064h168.097l20-203.232-20-233.566z" fill="#dce6eb"/><path d="m168.097 75.202h162.791v436.798h-162.791z" fill="#c8d2dc"/></g><path d="m63.734 75.202v63.734h-63.734z" fill="#c8d2dc"/><g><path d="m168.097 237.571h-106.309v-30h106.309l10 15z" fill="#c8d2dc"/></g><g><path d="m168.097 301.306h-106.309v-30h106.309l10 15z" fill="#c8d2dc"/></g><g><path d="m168.097 365.04h-106.309v-30h106.309l10 15z" fill="#c8d2dc"/></g><g><path d="m168.097 207.571h101.004v30h-101.004z" fill="#a2abb8"/></g><g><path d="m168.097 271.306h101.004v30h-101.004z" fill="#a2abb8"/></g><g><path d="m168.097 335.04h101.004v30h-101.004z" fill="#a2abb8"/></g></g><g><g><path d="m244.846 0-17.694 37.694-46.041 26.04v373.064h168.098l20-203.232-20-233.566z" fill="#fff5f5"/><path d="m349.209 0h162.791v436.798h-162.791z" fill="#dce6eb"/></g><path d="m244.846 0v63.734h-63.735z" fill="#dce6eb"/><g><path d="m349.209 162.369h-106.31v-30h106.31l10 15z" fill="#dce6eb"/></g><g><path d="m349.209 226.104h-106.31v-30h106.31l10 15z" fill="#dce6eb"/></g><g><path d="m349.209 289.838h-106.31v-30h106.31l10 15z" fill="#dce6eb"/></g><g><path d="m349.209 132.369h101.004v30h-101.004z" fill="#c8d2dc"/></g><g><path d="m349.209 196.104h101.004v30h-101.004z" fill="#c8d2dc"/></g><g><path d="m349.209 259.838h101.004v30h-101.004z" fill="#c8d2dc"/></g></g></g></svg>