<?xml version="1.0" encoding="iso-8859-1"?>
<!-- Generator: Adobe Illustrator 19.0.0, SVG Export Plug-In . SVG Version: 6.00 Build 0)  -->
<svg version="1.1" id="Layer_1" xmlns="http://www.w3.org/2000/svg" xmlns:xlink="http://www.w3.org/1999/xlink" x="0px" y="0px"
	 viewBox="0 0 512.001 512.001" style="enable-background:new 0 0 512.001 512.001;" xml:space="preserve">
<path style="fill:#B9BDE6;" d="M206.251,512h99.977c13.724,0,24.851-11.126,24.851-24.851V256c0-32.517-11.132-50.206-19.23-63.26
	c-8.445-13.614-26.928-43.159-26.928-72.327V15.173c0-8.38-6.793-15.173-15.173-15.173h-27.495c-8.38,0-15.173,6.793-15.173,15.173
	v105.24c0,29.167-18.484,58.713-26.928,72.327c-8.098,13.054-19.23,30.743-19.23,63.26v230.671
	C180.922,500.659,192.262,512,206.251,512z"/>
<path style="fill:#ABB0E0;" d="M311.85,192.738c-8.445-13.614-26.928-43.159-26.928-72.327V15.173
	C284.921,6.793,278.128,0,269.748,0h-25.542c8.38,0,15.173,6.793,15.173,15.173v105.24c0,29.167,18.484,58.713,26.928,72.327
	c8.098,13.054,19.23,30.743,19.23,63.262V487.15c0,13.725-11.126,24.851-24.851,24.851h25.542c13.724,0,24.851-11.126,24.851-24.851
	V256C331.079,223.483,319.947,205.794,311.85,192.738z"/>
<path style="fill:#F7CF6D;" d="M242.253,88.423h27.495c8.38,0,15.173,6.793,15.173,15.173V15.173c0-8.38-6.793-15.173-15.173-15.173
	h-27.495c-8.38,0-15.173,6.793-15.173,15.173v88.424C227.08,95.217,233.873,88.423,242.253,88.423z"/>
<path style="fill:#F9DE8F;" d="M284.921,106.946l-23.65,23.896c-3.214,3.247-8.46,3.247-11.674,0l-22.518-22.751V59.774
	l22.518,22.752c3.214,3.247,8.46,3.247,11.674,0l23.65-23.896V106.946z"/>
<rect x="180.919" y="283.783" style="fill:#F7CF6D;" width="150.152" height="137.16"/>
<rect x="305.54" y="283.783" style="fill:#F4C253;" width="25.542" height="137.16"/>
<circle style="fill:#F9DE8F;" cx="255.432" cy="350.888" r="32.81"/>
<g>
</g>
<g>
</g>
<g>
</g>
<g>
</g>
<g>
</g>
<g>
</g>
<g>
</g>
<g>
</g>
<g>
</g>
<g>
</g>
<g>
</g>
<g>
</g>
<g>
</g>
<g>
</g>
<g>
</g>
</svg>
