<?xml version="1.0" encoding="iso-8859-1"?>
<!-- Generator: Adobe Illustrator 19.0.0, SVG Export Plug-In . SVG Version: 6.00 Build 0)  -->
<svg version="1.1" id="Capa_1" xmlns="http://www.w3.org/2000/svg" xmlns:xlink="http://www.w3.org/1999/xlink" x="0px" y="0px"
	 viewBox="0 0 512.001 512.001" style="enable-background:new 0 0 512.001 512.001;" xml:space="preserve">
<g>
	<circle style="fill:#FFC107;" cx="394.667" cy="234.881" r="74.667"/>
	<circle style="fill:#FFC107;" cx="266.667" cy="106.881" r="74.667"/>
</g>
<path style="fill:#FFE082;" d="M510.869,379.691c-14.596-29.5-47.825-44.786-79.723-36.672l-69.013,17.259
	c-3.072-26.688-18.923-42.347-50.475-50.219l-192-42.667c-5.649-1.26-11.271,2.214-12.672,7.829l-32,128
	c-1.408,5.438,1.643,11.036,6.976,12.8l159.595,53.099c13.938,6.288,28.931,9.906,44.203,10.667
	c21.632,0,46.933-9.451,102.656-32.277l117.333-53.333c5.362-2.44,7.731-8.764,5.291-14.126
	C510.986,379.929,510.929,379.81,510.869,379.691L510.869,379.691z"/>
<path style="fill:#455A64;" d="M128,257.387c0.288-3.244-0.922-6.442-3.285-8.683c-18.283-17.323-91.392-22.933-113.365-24.235
	c-2.924-0.142-5.784,0.895-7.936,2.88c-2.168,2.01-3.404,4.83-3.413,7.787v192c0,5.891,4.776,10.667,10.667,10.667h64
	c4.622,0.006,8.722-2.966,10.155-7.36C103.804,374.001,118.243,316.131,128,257.387z"/>
<path style="fill:#FFCA28;" d="M307.733,393.537c-4.899,0.005-9.787-0.474-14.592-1.429l-82.112-16.427
	c-5.773-1.178-9.498-6.813-8.32-12.587c1.178-5.773,6.813-9.498,12.587-8.32l82.091,16.427c7.768,1.536,15.78,1.347,23.467-0.555
	l41.557-10.389c2.848,11.428-4.104,23.002-15.531,25.856l-20.885,5.227C320.022,392.826,313.888,393.564,307.733,393.537z"/>
<g>
	<path style="fill:#FFE082;" d="M394.667,266.838c-5.891,0-10.667-4.776-10.667-10.667v-42.667c0-5.891,4.776-10.667,10.667-10.667
		c5.891,0,10.667,4.776,10.667,10.667v42.667C405.333,262.062,400.558,266.838,394.667,266.838z"/>
	<path style="fill:#FFE082;" d="M266.667,138.838c-5.891,0-10.667-4.776-10.667-10.667V85.505c0-5.891,4.776-10.667,10.667-10.667
		c5.891,0,10.667,4.776,10.667,10.667v42.667C277.333,134.062,272.558,138.838,266.667,138.838z"/>
</g>
<g>
</g>
<g>
</g>
<g>
</g>
<g>
</g>
<g>
</g>
<g>
</g>
<g>
</g>
<g>
</g>
<g>
</g>
<g>
</g>
<g>
</g>
<g>
</g>
<g>
</g>
<g>
</g>
<g>
</g>
</svg>
