<?xml version="1.0" encoding="iso-8859-1"?>
<!-- Generator: Adobe Illustrator 19.0.0, SVG Export Plug-In . SVG Version: 6.00 Build 0)  -->
<svg version="1.1" id="Capa_1" xmlns="http://www.w3.org/2000/svg" xmlns:xlink="http://www.w3.org/1999/xlink" x="0px" y="0px"
	 viewBox="0 0 512 512" style="enable-background:new 0 0 512 512;" xml:space="preserve">
<path style="fill:#C6E2F7;" d="M429.842,203.388c1.713-7.212,2.71-14.689,2.71-22.422c0-53.628-43.476-97.103-97.103-97.103
	c-42.902,0-84.25,23.208-97.103,61.793c-14.433-8.501-26.174-8.828-44.138-8.828c-53.628,0-97.103,43.476-97.103,97.103
	C43.476,233.931,0,277.407,0,331.034s43.476,97.103,97.103,97.103h26.483h256h17.655c63.382,0,114.759-51.377,114.759-114.759
	C512,261.332,477.334,217.45,429.842,203.388z"/>
<path style="fill:#9AB9CC;" d="M141.233,251.586c-1.351,0-2.728-0.309-4.008-0.962c-10.496-5.367-23.243-7.865-40.121-7.865
	c-4.873,0-8.828-3.946-8.828-8.828s3.955-8.828,8.828-8.828c19.774,0,35.081,3.116,48.154,9.79c4.343,2.216,6.065,7.539,3.84,11.882
	C147.544,249.83,144.446,251.586,141.233,251.586z"/>
<g>
</g>
<g>
</g>
<g>
</g>
<g>
</g>
<g>
</g>
<g>
</g>
<g>
</g>
<g>
</g>
<g>
</g>
<g>
</g>
<g>
</g>
<g>
</g>
<g>
</g>
<g>
</g>
<g>
</g>
</svg>
