<?xml version="1.0" encoding="iso-8859-1"?>
<!-- Generator: Adobe Illustrator 19.0.0, SVG Export Plug-In . SVG Version: 6.00 Build 0)  -->
<svg xmlns="http://www.w3.org/2000/svg" xmlns:xlink="http://www.w3.org/1999/xlink" version="1.1" id="Layer_1" x="0px" y="0px" viewBox="0 0 512.001 512.001" style="enable-background:new 0 0 512.001 512.001;" xml:space="preserve">
<path style="fill:#74DBC9;" d="M343.77,215.204V87.77c0-48.475-39.296-87.77-87.77-87.77l0,0c-48.474,0-87.77,39.296-87.77,87.77  v127.434h36.324V85.823c0-28.413,23.033-51.446,51.446-51.446l0,0c28.413,0,51.446,23.033,51.446,51.446v129.381H343.77z"/>
<path style="fill:#F07B52;" d="M354.373,178.28c-48.315-1.184-88.948,32.619-98.372,77.868  c-9.426-45.259-50.075-79.065-98.402-77.867c-51.26,1.271-93.237,42.508-95.398,93.737c-0.356,8.427,0.364,16.627,2.017,24.483  c0,0,26.772,140.148,191.784,215.495l0,0l0,0l0,0l0,0c165.013-75.347,191.783-215.495,191.783-215.495  c1.654-7.859,2.373-16.062,2.017-24.492C447.634,220.771,405.64,179.536,354.373,178.28z"/>
<path style="fill:#DD6140;" d="M447.786,296.504c0,0-6.693,35.035-34.014,79.495c-27.32,44.451-75.266,98.327-157.773,136.002  c-11.489-5.25-22.308-10.808-32.487-16.605c62.963-35.89,101.761-81.134,125.276-119.397c27.32-44.461,34.014-79.495,34.014-79.495  c1.65-7.859,2.372-16.068,2.021-24.494c-1.722-40.779-28.671-75.225-65.448-88.22c10.912-3.847,22.7-5.806,34.993-5.507  c51.278,1.248,93.263,42.491,95.429,93.727C450.158,280.436,449.436,288.645,447.786,296.504z"/>
<path style="fill:#FFFFFF;" d="M278.692,341.972c0-12.533-10.16-22.693-22.693-22.693c-12.533,0-22.693,10.16-22.693,22.693  c0,7.64,3.779,14.393,9.566,18.505v19.91c0,7.219,5.907,13.126,13.126,13.126l0,0c7.219,0,13.126-5.907,13.126-13.126v-19.91  C274.912,356.365,278.692,349.612,278.692,341.972z"/>
<g>
</g>
<g>
</g>
<g>
</g>
<g>
</g>
<g>
</g>
<g>
</g>
<g>
</g>
<g>
</g>
<g>
</g>
<g>
</g>
<g>
</g>
<g>
</g>
<g>
</g>
<g>
</g>
<g>
</g>
</svg>
