<?xml version="1.0" encoding="iso-8859-1"?>
<!-- Generator: Adobe Illustrator 19.0.0, SVG Export Plug-In . SVG Version: 6.00 Build 0)  -->
<svg version="1.1" id="Capa_1" xmlns="http://www.w3.org/2000/svg" xmlns:xlink="http://www.w3.org/1999/xlink" x="0px" y="0px"
	 viewBox="0 0 512 512" style="enable-background:new 0 0 512 512;" xml:space="preserve">
<path style="fill:#11A892;" d="M342.208,82.68l-37.99,53.18c-5.925-1.706-17.962-8.668-41.68-10.48l-0.03,0.06
	c-4.515-1.354-9.237-1.442-14.06,0c-23.298,1.891-34.972,8.67-40.97,10.42l-37.99-53.18C145.035,48.472,180.579,2.367,220.498,19
	c16.807-25.295,53.859-25.346,70.7,0C331.033,2.402,366.695,48.424,342.208,82.68z"/>
<path style="fill:#FF5842;" d="M350.838,217c-0.68,9.78-1.61,19.87-2.7,30c-3.34,30.94-8.24,62.23-12.45,86
	c-2.2,12.43-4.21,22.81-5.72,30c-8.85,42.31-22.12,92.93-39.3,122.34c-3.78,6.44-15.07,25.78-33.56,26.63
	c-0.08,0.01-0.17,0.01-0.26,0.01c-0.33,0.01-0.66,0.02-1,0.02c-19.24,0-30.96-20.07-34.82-26.66
	c-8.25-14.12-16.32-35.27-23.77-60.34c-2.81-9.49-5.53-19.55-8.14-30c-6.74-27-12.7-56.64-17.45-86c-1.63-10.07-3.12-20.11-4.45-30
	c-3.34-24.9-5.67-48.86-6.71-70c-0.53-10.82-0.73-20.91-0.54-30c0.39-19.94,2.59-35.12,7-42.9c15.31-27.17,52.1-40.82,88.88-40.84
	c36.75-0.02,73.51,13.56,88.88,40.84C352.558,149.96,353.328,181.39,350.838,217z"/>
<path style="fill:#0F9887;" d="M342.208,82.68l-37.99,53.18c-5.925-1.706-17.962-8.668-41.68-10.48l-0.03,0.06
	c-2.1-0.63-4.32-1-6.66-1.04V0c13.829,0,27.224,6.77,35.35,19C331.033,2.402,366.695,48.424,342.208,82.68z"/>
<path style="fill:#FF3F2E;" d="M350.838,217c-0.68,9.78-1.61,19.87-2.7,30c-3.34,30.94-8.24,62.23-12.45,86
	c-2.2,12.43-4.21,22.81-5.72,30c-8.85,42.31-22.12,92.93-39.3,122.34c-3.78,6.44-15.07,25.78-33.56,26.63
	c-0.08,0.01-0.17,0.01-0.26,0.01c-0.33,0.01-0.66,0.02-1,0.02V95.26c36.75-0.02,73.51,13.56,88.88,40.84
	C352.558,149.96,353.328,181.39,350.838,217z"/>
<path style="fill:#FFBDAD;" d="M208.708,179v30h-48.2c-0.53-10.82-0.73-20.91-0.54-30H208.708z"/>
<path style="fill:#FF9577;" d="M350.838,217c-0.68,9.78-1.61,19.87-2.7,30h-47.29v-30H350.838z"/>
<path style="fill:#FFBDAD;" d="M221.348,279v30h-49.68c-1.63-10.07-3.12-20.11-4.45-30H221.348z"/>
<path style="fill:#FF9577;" d="M335.688,333c-2.2,12.43-4.21,22.81-5.72,30h-44.45v-30H335.688z"/>
<path style="fill:#FFBDAD;" d="M229.518,395v30h-32.26c-2.81-9.49-5.53-19.55-8.14-30H229.518z"/>
<g>
</g>
<g>
</g>
<g>
</g>
<g>
</g>
<g>
</g>
<g>
</g>
<g>
</g>
<g>
</g>
<g>
</g>
<g>
</g>
<g>
</g>
<g>
</g>
<g>
</g>
<g>
</g>
<g>
</g>
</svg>
