<?xml version="1.0" encoding="iso-8859-1"?>
<!-- Generator: Adobe Illustrator 19.0.0, SVG Export Plug-In . SVG Version: 6.00 Build 0)  -->
<svg version="1.1" id="Capa_1" xmlns="http://www.w3.org/2000/svg" xmlns:xlink="http://www.w3.org/1999/xlink" x="0px" y="0px"
	 viewBox="0 0 512 512" style="enable-background:new 0 0 512 512;" xml:space="preserve">
<path style="fill:#D9D9D9;" d="M181,422v15c0,41.4,33.6,75,75,75s75-33.6,75-75v-15H181z"/>
<path style="fill:#C8C6CD;" d="M331,422v15c0,41.4-33.6,75-75,75v-90H331z"/>
<path style="fill:#FEDB41;" d="M436,180c0,43.5-15.901,85.8-44.7,118.5C370.6,322.2,361,351.299,361,375v15l-30,32H181l-30-32v-15
	c0-23.701-9.3-52.8-29.7-75.601c-38.401-43.2-53.401-101.1-41.1-158.699C94.6,73.2,149.5,18.3,217.301,3.9
	C230.2,1.199,243.1,0,256,0c41.1,0,81.301,14.099,113.401,40.199C411.7,74.7,436,125.7,436,180z"/>
<path style="fill:#FCBF29;" d="M436,180c0,43.5-15.901,85.8-44.7,118.5C370.6,322.2,361,351.299,361,375v15l-30,32h-75V0
	c41.1,0,81.301,14.099,113.401,40.199C411.7,74.7,436,125.7,436,180z"/>
<rect y="180" style="fill:#FEA832;" width="60" height="30"/>
<g>
	<rect x="451" y="180" style="fill:#FE9923;" width="61" height="30"/>
	<polygon style="fill:#FE9923;" points="464.184,158.027 442.973,136.816 485.395,94.395 507.605,115.605 	"/>
	<polygon style="fill:#FE9923;" points="485.395,295.605 442.973,253.184 464.184,231.973 507.605,274.395 	"/>
</g>
<g>
	
		<rect x="6.216" y="111.209" transform="matrix(-0.7071 -0.7071 0.7071 -0.7071 -27.4233 241.0565)" style="fill:#FEA832;" width="59.993" height="29.997"/>
	
		<rect x="21.211" y="233.787" transform="matrix(-0.7071 -0.7071 0.7071 -0.7071 -124.7103 475.9109)" style="fill:#FEA832;" width="29.997" height="59.993"/>
	<path style="fill:#FEA832;" d="M331,135v75c0,41.4-33.6,75-75,75s-75-33.6-75-75v-75h30v75c0,24.899,20.099,45,45,45
		s45-20.101,45-45v-75H331z"/>
</g>
<rect x="151" y="390" style="fill:#E5E5E5;" width="210" height="62"/>
<path style="fill:#FE9923;" d="M256,285v-30c24.901,0,45-20.101,45-45v-75h30v75C331,251.4,297.4,285,256,285z"/>
<rect x="256" y="390" style="fill:#D9D9D9;" width="105" height="62"/>
<rect x="166" y="120" style="fill:#FEA832;" width="60" height="30"/>
<rect x="286" y="120" style="fill:#FE9923;" width="60" height="30"/>
<g>
</g>
<g>
</g>
<g>
</g>
<g>
</g>
<g>
</g>
<g>
</g>
<g>
</g>
<g>
</g>
<g>
</g>
<g>
</g>
<g>
</g>
<g>
</g>
<g>
</g>
<g>
</g>
<g>
</g>
</svg>
