<svg id="Capa_1" enable-background="new 0 0 380.851 380.851" height="512" viewBox="0 0 380.851 380.851" width="512" xmlns="http://www.w3.org/2000/svg"><g><path d="m132.89 120.952c-73.408 0-132.89 49.025-132.89 109.497 0 32.212 16.982 61.086 43.854 81.124l-23.382 53.528 60.515-33.833c16.698 5.798 34.254 8.74 51.929 8.7 73.408 0 132.895-49.026 132.895-109.503s-59.524-109.513-132.921-109.513z" fill="#3e6b82"/><path d="m212.709 15.75c92.864 0 168.142 62.032 168.142 138.551 0 40.782-21.49 77.285-55.464 102.635l29.57 67.731-76.562-42.789c-21.123 7.322-43.33 11.03-65.686 10.968-92.858 0-168.137-62.032-168.137-138.545s75.257-138.551 168.137-138.551z" fill="#e1e6e9"/><path d="m285.105 119.342c-3.339-39.744-57.4-44.79-70.118-10.989-1.338 3.551-3.263 3.551-4.595 0-12.724-33.8-66.774-28.781-70.145 10.989-2.463 29.249 8.983 69.96 72.413 105.86 63.462-35.899 74.903-76.611 72.445-105.86z" fill="#fe7058"/></g></svg>