<svg id="Capa_1" enable-background="new 0 0 512 512" height="512" viewBox="0 0 512 512" width="512" xmlns="http://www.w3.org/2000/svg"><g><g><path d="m203.592 109.642c-15.708 0-28.488-12.784-28.488-28.498 0-4.204 3.407-7.611 7.609-7.611s7.609 3.407 7.609 7.611c0 7.319 5.953 13.275 13.27 13.275s13.27-5.955 13.27-13.275v-52.646c0-7.319-5.953-13.275-13.27-13.275s-13.27 5.955-13.27 13.275v16.054c0 4.204-3.407 7.611-7.609 7.611s-7.609-3.407-7.609-7.611v-16.054c.001-15.714 12.78-28.498 28.488-28.498s28.488 12.784 28.488 28.498v52.647c0 15.713-12.78 28.497-28.488 28.497z" fill="#01d0fb"/></g><g><path clip-rule="evenodd" d="m61.812 335.663-15.3-226.239c-.201-3.05 2.099-5.696 5.148-5.898l245.858-16.628 4.141-.288c1.668-.115 2.186.518 5.205 3.049l64.218 53.481c2.617 2.186 3.307 2.417 3.394 3.999l.259 3.423 16.594 245.485 6.011 88.867c.201 3.05-2.099 5.696-5.148 5.898l-225.123 15.248-87.772 5.926c-3.048.201-5.694-2.1-5.896-5.15z" fill="#d7e7ec" fill-rule="evenodd"/></g><g><path clip-rule="evenodd" d="m140.812 276.831v-18.009-141.4-19.936l-29.219 1.985v209.61 139.615c0 12.946 10.382 24.54 19.613 24.482l265.241-1.237-1.208-17.981h-11.964-18.693-17.6-112.675-87.973c-3.02 0-5.522-2.503-5.522-5.552z" fill="#b5c4cf" fill-rule="evenodd"/></g><g><path clip-rule="evenodd" d="m331.77 141.473c.805 12.169 11.935 10.673 17.341 10.328l55.878-3.798-.058-.863c-.115-1.582-.805-1.812-3.422-3.999l-64.218-53.481c-3.02-2.532-3.537-3.165-5.205-3.049l-4.112.288z" fill="#fff" fill-rule="evenodd"/></g><g><path clip-rule="evenodd" d="m401.51 143.142-64.219-53.482c-3.02-2.532-3.537-3.165-5.205-3.049l-4.112.288 3.796 54.575c.805 12.169 11.935 10.673 17.341 10.328l55.878-3.798-.058-.863c-.114-1.583-.804-1.813-3.421-3.999z" fill="#b5c4cf" fill-rule="evenodd"/></g><g><path d="m344.334 159.651c-4.372 0-9.863-.737-14.2-4.518-3.582-3.121-5.585-7.548-5.957-13.158l-3.794-54.548c-.292-4.193 2.87-7.83 7.063-8.121 4.18-.305 7.826 2.871 8.119 7.064l3.796 54.574c.089 1.345.383 2.374.77 2.712 1.223 1.065 5.629.752 7.511.616l56.831-3.862c4.197-.286 7.822 2.884 8.107 7.078.285 4.193-2.883 7.825-7.076 8.109l-56.779 3.859c-1.216.088-2.722.195-4.391.195z"/></g><g><path clip-rule="evenodd" d="m140.812 258.821v189.587c0 3.049 2.502 5.552 5.522 5.552h87.973 130.277 18.693 76.699c3.02 0 5.522-2.503 5.522-5.552v-89.068-246.06-2.56h-56.022c-5.407 0-16.594.748-16.594-11.45l-.115-54.718h-246.433c-3.048 0-5.522 2.474-5.522 5.524v47.325 20.023z" fill="#fff" fill-rule="evenodd"/></g><g><path clip-rule="evenodd" d="m465.5 109.859v338.549c0 3.045-2.506 5.551-5.519 5.551h-313.643c-3.023 0-5.529-2.507-5.529-5.551v-398.335c0-3.045 2.475-5.521 5.529-5.521h250.569c1.664 0 2.161.66 5.002 3.39l60.456 57.685c2.445 2.385 3.135 2.649 3.135 4.232z" fill="#edf3f4" fill-rule="evenodd"/></g><g><path clip-rule="evenodd" d="m465.498 359.34v-246.06-2.56c0-2.963-.978-2.992-3.135-5.092l-60.451-57.682c-2.847-2.733-3.336-3.395-5.004-3.395h-4.141-61.314c74.945 100.375 79.201 281.302 23.611 394.22-2.588 5.236-5.263 10.299-8.081 15.19h17.6 18.693 76.699c3.02 0 5.522-2.503 5.522-5.552v-89.069z" fill="#d7e7ec" fill-rule="evenodd"/></g><g><path clip-rule="evenodd" d="m392.882 99.269c0 12.198 11.187 11.45 16.594 11.45h56.022v-.863c0-1.582-.69-1.841-3.135-4.229l-60.451-57.682c-2.847-2.733-3.336-3.395-5.004-3.395h-4.141z" fill="#fff" fill-rule="evenodd"/></g><g><path clip-rule="evenodd" d="m462.363 105.627-60.451-57.682c-2.847-2.733-3.336-3.395-5.004-3.395h-4.141l.115 54.718c0 12.198 11.187 11.45 16.594 11.45h56.022v-.863c0-1.581-.691-1.84-3.135-4.228z" fill="#b5c4cf" fill-rule="evenodd"/></g><g><path d="m214.319 169.798h-17.226c-4.202 0-7.609-3.407-7.609-7.611s3.407-7.611 7.609-7.611h17.226c4.202 0 7.609 3.407 7.609 7.611s-3.407 7.611-7.609 7.611z" fill="#9aafb7"/></g><g><path d="m214.319 224.229h-17.226c-4.202 0-7.609-3.407-7.609-7.611s3.407-7.611 7.609-7.611h17.226c4.202 0 7.609 3.407 7.609 7.611s-3.407 7.611-7.609 7.611z" fill="#9aafb7"/></g><g><path d="m214.319 278.631h-17.226c-4.202 0-7.609-3.407-7.609-7.611s3.407-7.612 7.609-7.612h17.226c4.202 0 7.609 3.407 7.609 7.612s-3.407 7.611-7.609 7.611z" fill="#9aafb7"/></g><g><path d="m214.319 333.061h-17.226c-4.202 0-7.609-3.407-7.609-7.611s3.407-7.612 7.609-7.612h17.226c4.202 0 7.609 3.407 7.609 7.612s-3.407 7.611-7.609 7.611z" fill="#9aafb7"/></g><g><path d="m214.319 387.493h-17.226c-4.202 0-7.609-3.407-7.609-7.611s3.407-7.612 7.609-7.612h17.226c4.202 0 7.609 3.407 7.609 7.612s-3.407 7.611-7.609 7.611z" fill="#9aafb7"/></g><g><path d="m405.593 169.798h-140.544c-4.202 0-7.609-3.407-7.609-7.611s3.407-7.611 7.609-7.611h140.544c4.202 0 7.609 3.407 7.609 7.611s-3.406 7.611-7.609 7.611z" fill="#9aafb7"/></g><g><path d="m405.593 224.229h-140.544c-4.202 0-7.609-3.407-7.609-7.611s3.407-7.611 7.609-7.611h140.544c4.202 0 7.609 3.407 7.609 7.611s-3.406 7.611-7.609 7.611z" fill="#9aafb7"/></g><g><path d="m405.593 278.631h-140.544c-4.202 0-7.609-3.407-7.609-7.611s3.407-7.612 7.609-7.612h140.544c4.202 0 7.609 3.407 7.609 7.612s-3.406 7.611-7.609 7.611z" fill="#9aafb7"/></g><g><path d="m405.593 333.061h-140.544c-4.202 0-7.609-3.407-7.609-7.611s3.407-7.612 7.609-7.612h140.544c4.202 0 7.609 3.407 7.609 7.612s-3.406 7.611-7.609 7.611z" fill="#9aafb7"/></g><g><path d="m405.593 387.493h-140.544c-4.202 0-7.609-3.407-7.609-7.611s3.407-7.612 7.609-7.612h140.544c4.202 0 7.609 3.407 7.609 7.612s-3.406 7.611-7.609 7.611z" fill="#9aafb7"/></g><g><path d="m232.076 41.508v39.641c0 15.71-12.773 28.497-28.488 28.497-15.705 0-28.488-12.787-28.488-28.497 0-4.212 3.409-7.611 7.609-7.611 4.21 0 7.609 3.4 7.609 7.611 0 7.317 5.955 13.274 13.27 13.274 7.325 0 13.27-5.957 13.27-13.274v-39.641z" fill="#01d0fb"/></g></g></svg>