<svg height="512" viewBox="0 0 48 48" width="512" xmlns="http://www.w3.org/2000/svg"><g id="Mailing_of_email" data-name="Mailing of email"><path d="m47 14v20a1.7 1.7 0 0 1 -.07.51 2 2 0 0 1 -1.42 1.42 1.7 1.7 0 0 1 -.51.07h-30a1.7 1.7 0 0 1 -.51-.07 2 2 0 0 1 -1.42-1.42 1.7 1.7 0 0 1 -.07-.51v-20a1.79 1.79 0 0 1 .1-.62 2 2 0 0 1 1.52-1.38 1.58 1.58 0 0 1 .38 0h30a1.58 1.58 0 0 1 .38 0 2.14 2.14 0 0 1 .57.2 2.57 2.57 0 0 1 .32.22 2 2 0 0 1 .63.92 2.61 2.61 0 0 1 .06.27 1.66 1.66 0 0 1 .04.39z" fill="#fc6"/><path d="m47 14v20h-9a21.9 21.9 0 0 1 -15.32-6.26 17.15 17.15 0 0 1 -1.37-1.46 21.75 21.75 0 0 1 -4.91-10.17 21.46 21.46 0 0 1 -.35-2.9c0-.4 0-.8 0-1.21h28.95a1.58 1.58 0 0 1 .38 0 2.14 2.14 0 0 1 .57.2 2.27 2.27 0 0 1 .32.22 2 2 0 0 1 .63.92 2.61 2.61 0 0 1 .06.27 1.66 1.66 0 0 1 .04.39z" fill="#ffde76"/><path d="m46.93 34.51a2 2 0 0 1 -1.42 1.42l-11.72-11.72-.64.52a5 5 0 0 1 -6.3 0l-.64-.52-11.72 11.72a2 2 0 0 1 -1.42-1.42l8.24-8.23 3.34-3.34-8.25-6.83-3.3-2.73a2 2 0 0 1 1.52-1.38l1.38 1.21 12.07 10a3 3 0 0 0 3.78 0l13.53-11.21a2.14 2.14 0 0 1 .57.2 2.27 2.27 0 0 1 .32.22 2 2 0 0 1 .63.92l-11.55 9.6 11.07 11.06z" fill="#fc6"/><g fill="#dad7e5"><path d="m10 17h-8a1 1 0 0 1 0-2h8a1 1 0 0 1 0 2z"/><path d="m10 21h-6a1 1 0 0 1 0-2h6a1 1 0 0 1 0 2z"/><path d="m10 25h-4a1 1 0 0 1 0-2h4a1 1 0 0 1 0 2z"/></g></g></svg>