<svg id="Layer_1" enable-background="new 0 0 1600 1600" height="512" viewBox="0 0 1600 1600" width="512" xmlns="http://www.w3.org/2000/svg"><g><g><g><path d="m800 1568c-8.9 0-16.2-7.2-16.2-16.2v-1503.6c0-8.9 7.2-16.2 16.2-16.2 8.9 0 16.2 7.2 16.2 16.2v1503.7c0 8.9-7.3 16.1-16.2 16.1z" fill="#80c7ea"/></g><g><g><g><path d="m800 420.3c-4.3 0-8.4-1.7-11.4-4.7l-159.9-159.9c-6.3-6.3-6.3-16.5 0-22.9 6.3-6.3 16.5-6.3 22.9 0l148.4 148.4 148.4-148.4c6.3-6.3 16.6-6.3 22.9 0s6.3 16.5 0 22.9l-159.9 159.8c-3 3-7.1 4.8-11.4 4.8z" fill="#80c7ea"/></g><g><path d="m800 280.9c-4.1 0-8.3-1.6-11.4-4.7l-100.7-100.7c-6.3-6.3-6.3-16.5 0-22.9 6.3-6.3 16.5-6.3 22.9 0l89.2 89.2 89.2-89.2c6.3-6.3 16.6-6.3 22.9 0s6.3 16.5 0 22.9l-100.7 100.7c-3.1 3.1-7.3 4.7-11.4 4.7z" fill="#80c7ea"/></g></g><g><g><path d="m959.8 1371.9c-4.1 0-8.3-1.6-11.4-4.7l-148.4-148.4-148.4 148.4c-6.3 6.3-16.5 6.3-22.9 0-6.3-6.3-6.3-16.6 0-22.9l159.9-159.8c3-3 7.1-4.7 11.4-4.7s8.4 1.7 11.4 4.7l159.8 159.8c6.3 6.3 6.3 16.6 0 22.9-3.1 3.1-7.2 4.7-11.4 4.7z" fill="#80c7ea"/></g><g><path d="m699.4 1452.1c-4.1 0-8.3-1.6-11.4-4.7-6.3-6.3-6.3-16.6 0-22.9l100.6-100.6c3-3 7.1-4.7 11.4-4.7s8.4 1.7 11.4 4.7l100.6 100.6c6.3 6.3 6.3 16.6 0 22.9s-16.6 6.3-22.9 0l-89.2-89.2-89.2 89.2c-3.1 3.1-7.2 4.7-11.3 4.7z" fill="#80c7ea"/></g></g></g></g><g><g><path d="m1334.2 1341.7c-4.1 0-8.3-1.6-11.4-4.7l-1063.3-1063.3c-6.3-6.3-6.3-16.5 0-22.9 6.3-6.3 16.5-6.3 22.9 0l1063.3 1063.3c6.3 6.3 6.3 16.6 0 22.9-3.3 3.1-7.4 4.7-11.5 4.7z" fill="#80c7ea"/></g><g><g><g><path d="m522.6 530.1h-226.1c-8.9 0-16.2-7.2-16.2-16.2s7.2-16.2 16.2-16.2h209.9v-209.8c0-8.9 7.2-16.2 16.2-16.2s16.2 7.2 16.2 16.2v226.1c0 4.3-1.7 8.4-4.7 11.4-3.1 3-7.2 4.7-11.5 4.7z" fill="#80c7ea"/></g><g><path d="m424 431.6h-142.3c-8.9 0-16.2-7.2-16.2-16.2s7.2-16.2 16.2-16.2h126.2v-126.1c0-8.9 7.2-16.2 16.2-16.2s16.2 7.2 16.2 16.2v142.3c-.1 8.9-7.3 16.2-16.3 16.2z" fill="#80c7ea"/></g></g><g><g><path d="m1082.5 1316.1c-8.9 0-16.2-7.2-16.2-16.2v-226.1c0-4.3 1.7-8.4 4.7-11.4s7.1-4.7 11.4-4.7h226.1c8.9 0 16.2 7.2 16.2 16.2s-7.2 16.2-16.2 16.2h-209.9v209.9c.1 8.8-7.2 16.1-16.1 16.1z" fill="#80c7ea"/></g><g><path d="m1181 1330.9c-8.9 0-16.2-7.2-16.2-16.2v-142.3c0-4.3 1.7-8.4 4.7-11.4s7.1-4.7 11.4-4.7h142.3c8.9 0 16.2 7.2 16.2 16.2s-7.2 16.2-16.2 16.2h-126.2v126.2c.2 8.7-7.1 16-16 16z" fill="#80c7ea"/></g></g></g></g><g><g><path d="m1551.8 804h-1503.6c-8.9 0-16.2-7.2-16.2-16.2s7.2-16.2 16.2-16.2h1503.7c8.9 0 16.2 7.2 16.2 16.2s-7.3 16.2-16.3 16.2z" fill="#80c7ea"/></g><g><g><g><path d="m244.2 963.8c-4.1 0-8.3-1.6-11.4-4.7-6.3-6.3-6.3-16.6 0-22.9l148.4-148.4-148.4-148.4c-6.3-6.3-6.3-16.5 0-22.9 6.3-6.3 16.5-6.3 22.9 0l159.9 159.8c3 3 4.7 7.1 4.7 11.4s-1.7 8.4-4.7 11.4l-159.9 160c-3.2 3.1-7.3 4.7-11.5 4.7z" fill="#80c7ea"/></g><g><path d="m164.1 904.6c-4.1 0-8.3-1.6-11.4-4.7-6.3-6.3-6.3-16.6 0-22.9l89.2-89.2-89.2-89.2c-6.3-6.3-6.3-16.5 0-22.9 6.3-6.3 16.5-6.3 22.9 0l100.6 100.6c6.3 6.3 6.3 16.5 0 22.9l-100.7 100.6c-3.1 3.2-7.3 4.8-11.4 4.8z" fill="#80c7ea"/></g></g><g><g><path d="m1355.8 963.8c-4.1 0-8.3-1.6-11.4-4.7l-159.8-159.8c-3-3-4.7-7.1-4.7-11.4s1.7-8.4 4.7-11.4l159.8-159.8c6.3-6.3 16.6-6.3 22.9 0s6.3 16.5 0 22.9l-148.4 148.4 148.4 148.4c6.3 6.3 6.3 16.6 0 22.9-3.3 2.9-7.4 4.5-11.5 4.5z" fill="#80c7ea"/></g><g><path d="m1435.9 904.6c-4.1 0-8.3-1.6-11.4-4.7l-100.6-100.6c-3-3-4.7-7.1-4.7-11.4s1.7-8.4 4.7-11.4l100.6-100.6c6.3-6.3 16.6-6.3 22.9 0s6.3 16.5 0 22.9l-89.2 89.2 89.2 89.2c6.3 6.3 6.3 16.6 0 22.9-3.2 2.9-7.4 4.5-11.5 4.5z" fill="#80c7ea"/></g></g></g></g><g><g><path d="m262.3 1333.1c-4.1 0-8.3-1.6-11.4-4.7-6.3-6.3-6.3-16.6 0-22.9l1063.2-1063.3c6.3-6.3 16.6-6.3 22.9 0s6.3 16.5 0 22.9l-1063.3 1063.2c-3.2 3.2-7.3 4.8-11.4 4.8z" fill="#80c7ea"/></g><g><g><g><path d="m513.9 1307.4c-8.9 0-16.2-7.2-16.2-16.2v-209.9h-209.8c-8.9 0-16.2-7.2-16.2-16.2s7.2-16.2 16.2-16.2h226.1c4.3 0 8.4 1.7 11.4 4.7s4.7 7.1 4.7 11.4v226.1c0 9.1-7.2 16.3-16.2 16.3z" fill="#80c7ea"/></g><g><path d="m415.4 1322.3c-8.9 0-16.2-7.2-16.2-16.2v-126.2h-126.1c-8.9 0-16.2-7.2-16.2-16.2s7.2-16.2 16.2-16.2h142.3c8.9 0 16.2 7.2 16.2 16.2v142.3c0 9-7.3 16.3-16.2 16.3z" fill="#80c7ea"/></g></g><g><g><path d="m1073.8 521.5c-4.3 0-8.4-1.7-11.4-4.7s-4.7-7.2-4.7-11.4v-226.1c0-8.9 7.2-16.2 16.2-16.2 8.9 0 16.2 7.2 16.2 16.2v209.9h209.9c8.9 0 16.2 7.2 16.2 16.2s-7.2 16.2-16.2 16.2h-226.2z" fill="#80c7ea"/></g><g><path d="m1314.7 422.9h-142.3c-4.3 0-8.4-1.7-11.4-4.7s-4.7-7.1-4.7-11.4v-142.3c0-8.9 7.2-16.2 16.2-16.2 8.9 0 16.2 7.2 16.2 16.2v126.2h126.2c8.9 0 16.2 7.2 16.2 16.2s-7.5 16-16.4 16z" fill="#80c7ea"/></g></g></g></g></g></svg>