<svg height="512" viewBox="0 0 58 50" width="512" xmlns="http://www.w3.org/2000/svg"><g id="Page-1" fill="none" fill-rule="evenodd"><g id="026---Message"><path id="Path" d="m26.19 0h-18.19c-4.418278 0-8 3.581722-8 8v24c0 4.418278 3.581722 8 8 8h4c.5522847 0 1 .4477153 1 1v7.845c-.0019864.391258.2243935.747735.5793605.9123107.3549671.1645756.7733097.1070153 1.0706395-.1473107l11.07-9.373c.1805176-.152931.4094107-.2369057.646-.237h23.634c4.418278 0 8-3.581722 8-8v-24c0-4.418278-3.581722-8-8-8z" fill="#b0d3f0"/><path id="Path" d="m50 37c-.5522847 0-1-.4477153-1-1s.4477153-1 1-1c1.6568542 0 3-1.3431458 3-3 0-.5522847.4477153-1 1-1s1 .4477153 1 1c-.0033061 2.7600532-2.2399468 4.9966939-5 5z" fill="#90bae1"/><path id="Path" d="m4 9c-.55228475 0-1-.44771525-1-1 .00330612-2.76005315 2.23994685-4.99669388 5-5 .55228475 0 1 .44771525 1 1s-.44771525 1-1 1c-1.65685425 0-3 1.34314575-3 3 0 .26521649-.10535684.5195704-.29289322.70710678s-.44189029.29289322-.70710678.29289322z" fill="#ecf0f1"/></g></g></svg>