<?xml version="1.0" encoding="iso-8859-1"?>
<!-- Generator: Adobe Illustrator 19.0.0, SVG Export Plug-In . SVG Version: 6.00 Build 0)  -->
<svg xmlns="http://www.w3.org/2000/svg" xmlns:xlink="http://www.w3.org/1999/xlink" version="1.1" id="Capa_1" x="0px" y="0px" viewBox="0 0 512 512" style="enable-background:new 0 0 512 512;" xml:space="preserve">
<polygon style="fill:#F64213;" points="256,182 0,182 256,437 "/>
<polygon style="fill:#ED2400;" points="512,182 256,182 256,437 "/>
<polygon style="fill:#FFFF66;" points="452,0 256,0 216,451.792 452,451.792 "/>
<rect x="60" style="fill:#FFFFC2;" width="196" height="451.79"/>
<polygon style="fill:#093239;" points="362,90 256,90 236,105 256,120 362,120 "/>
<rect x="150" y="90" style="fill:#116371;" width="106" height="30"/>
<polygon style="fill:#093239;" points="362,150 256,150 236,165 256,180 362,180 "/>
<rect x="150" y="150" style="fill:#116371;" width="106" height="30"/>
<polygon style="fill:#093239;" points="362,210 256,210 236,225 256,240 362,240 "/>
<rect x="150" y="210" style="fill:#116371;" width="106" height="30"/>
<polygon style="fill:#FF8151;" points="315.535,347 315.535,417 512,512 512,182 "/>
<polygon style="fill:#FFA07D;" points="0,182 0,512 196.465,427 196.465,347 "/>
<polygon style="fill:#FF6126;" points="256,397 226,454.5 256,512 512,512 315.535,347 "/>
<polygon style="fill:#FF8151;" points="196.465,347 0,512 256,512 256,397 "/>
<g>
</g>
<g>
</g>
<g>
</g>
<g>
</g>
<g>
</g>
<g>
</g>
<g>
</g>
<g>
</g>
<g>
</g>
<g>
</g>
<g>
</g>
<g>
</g>
<g>
</g>
<g>
</g>
<g>
</g>
</svg>
