<svg height="512pt" viewBox="0 -78 512 512" width="512pt" xmlns="http://www.w3.org/2000/svg"><path d="m491.269531 139.015625h-470.539062c-11.449219 0-20.730469-9.28125-20.730469-20.730469 0-65.328125 52.960938-118.285156 118.285156-118.285156h275.429688c65.324218 0 118.285156 52.957031 118.285156 118.285156 0 11.449219-9.28125 20.730469-20.730469 20.730469zm0 0" fill="#ff8000"/><path d="m512 118.285156c0-65.328125-52.960938-118.285156-118.285156-118.285156h-31.726563c52.792969 13.941406 91.71875 62.019531 91.71875 119.191406 0 10.949219-8.875 19.824219-19.824219 19.824219h57.386719c11.449219 0 20.730469-9.28125 20.730469-20.730469zm0 0" fill="#e37100"/><path d="m456.925781 260.347656h-401.851562c-18.242188 0-33.03125-14.789062-33.03125-33.03125 0-18.242187 14.789062-33.03125 33.03125-33.03125h401.851562c18.246094 0 33.03125 14.789063 33.03125 33.03125 0 18.246094-14.789062 33.03125-33.03125 33.03125zm0 0" fill="#cf5f1d"/><path d="m456.925781 194.285156h-44.8125c18.242188 0 33.03125 14.789063 33.03125 33.03125 0 18.246094-14.789062 33.03125-33.03125 33.03125h44.8125c18.242188 0 33.03125-14.789062 33.03125-33.03125 0-18.242187-14.789062-33.03125-33.03125-33.03125zm0 0" fill="#c24e0a"/><path d="m489.957031 178.339844c0 23.230468-23.335937 39.601562-44.960937 31.109375-3.761719-1.476563-8.148438-2.382813-13.527344-2.382813-29.242188 0-29.242188 26.785156-58.488281 26.785156-29.242188 0-29.242188-26.785156-58.484375-26.785156-29.242188 0-29.242188 26.785156-58.488282 26.785156-29.246093 0-29.246093-26.785156-58.488281-26.785156-29.246093 0-29.246093 26.785156-58.488281 26.785156-29.246094 0-29.246094-26.785156-58.496094-26.785156-5.378906 0-9.769531.90625-13.535156 2.386719-21.621094 8.496094-44.957031-7.878906-44.957031-31.109375v-39.328125h467.914062zm0 0" fill="#39b54a"/><path d="m439.480469 139.015625v39.324219c0 13.859375-8.3125 25.273437-19.605469 30.425781 3.320312-1.066406 7.109375-1.699219 11.597656-1.699219 5.375 0 9.761719.90625 13.523438 2.382813 21.625 8.492187 44.960937-7.878907 44.960937-31.109375v-39.324219zm0 0" fill="#28a139"/><path d="m431.84375 356.441406h-351.6875c-44.269531 0-80.15625-35.886718-80.15625-80.15625 0-8.738281 7.085938-15.828125 15.828125-15.828125h480.34375c8.742187 0 15.828125 7.085938 15.828125 15.828125 0 44.269532-35.886719 80.15625-80.15625 80.15625zm0 0" fill="#ff8000"/><path d="m512 276.285156c0-8.742187-7.085938-15.828125-15.828125-15.828125h-64.53125c8.9375 0 16.179687 6.652344 16.179687 14.859375 0 44.804688-39.554687 81.125-88.347656 81.125h70.679688c6.4375 0 12.707031-.636718 18.753906-1.835937 36.070312-7.824219 63.09375-39.90625 63.09375-78.320313zm0 0" fill="#e37100"/><g fill="#a64f3b"><path d="m164.328125 61.617188h-1.058594c-9.664062 0-17.5-7.835938-17.5-17.5v-44.117188h36.058594v44.117188c0 9.664062-7.835937 17.5-17.5 17.5zm0 0"/><path d="m256.527344 61.617188h-1.054688c-9.664062 0-17.5-7.835938-17.5-17.5v-44.117188h36.054688v44.117188c0 9.664062-7.835938 17.5-17.5 17.5zm0 0"/><path d="m348.730469 61.617188h-1.058594c-9.664063 0-17.5-7.835938-17.5-17.5v-44.117188h36.058594v44.117188c0 9.664062-7.835938 17.5-17.5 17.5zm0 0"/></g></svg>