<svg id="Capa_1" enable-background="new 0 0 494.758 494.758" height="512" viewBox="0 0 494.758 494.758" width="512" xmlns="http://www.w3.org/2000/svg"><g><path d="m409.703 31.99-.435-2.095c-3.5-16.855-19.735-27.899-36.697-24.963-12.735 2.204-22.884 11.871-25.705 24.483l-14.802 66.161-14.174 79.377 95.652-93.267z" fill="#80d261"/><path d="m400.577 167.839 69.225-15.487c12.612-2.822 22.279-12.97 24.483-25.705 2.936-16.963-8.108-33.198-24.963-36.697l-2.095-.435-34.697-6.279-112.77 73.948 25.999 20.4z" fill="#80d261"/><path d="m381.187 142.054 69.589-38.383c23.694-13.069 28.245-45.206 9.111-64.339-19.134-19.134-51.271-14.583-64.339 9.111l-38.383 69.589-25.1 45.19z" fill="#97da7b"/><g><path d="m358.139 314.152-304.838 171.549c-13.978 7.866-31.484 5.463-42.826-5.878-11.342-11.342-13.745-28.848-5.878-42.826l171.549-304.838c35.296-62.721 120.702-74.444 171.593-23.553l33.954 33.954c50.89 50.89 39.167 136.296-23.554 171.592z" fill="#fec165"/><path d="m47.682 480.082 171.549-304.838c34.232-60.829 115.593-73.687 166.894-27.985-1.422-1.596-2.897-3.164-4.432-4.7l-33.954-33.954c-50.891-50.891-136.296-39.168-171.593 23.553l-171.549 304.838c-7.866 13.978-5.463 31.484 5.878 42.826 8.947 8.947 21.729 12.326 33.591 9.495.758-3.175 1.956-6.284 3.616-9.235z" fill="#fdb441"/><path d="m373.332 303.852-.822-.79-79.846-79.847c-2.929-2.928-7.678-2.928-10.606 0-2.929 2.93-2.929 7.678 0 10.607l78.766 78.766c4.442-2.664 8.608-5.59 12.508-8.736z" fill="#fdb441"/><g><path d="m256.969 205.626c-1.919 0-3.839-.732-5.303-2.196l-10.957-10.956c-2.929-2.929-2.929-7.678 0-10.606 2.929-2.93 7.678-2.929 10.606-.001l10.957 10.956c2.929 2.929 2.929 7.678 0 10.606-1.464 1.465-3.383 2.197-5.303 2.197z" fill="#fdb441"/></g><path d="m167.171 205.49c1.464 1.464 3.384 2.196 5.303 2.196s3.839-.732 5.303-2.196c2.929-2.93 2.929-7.678 0-10.607l-20.538-20.538-3.033-3.2-7.699 13.68c.018.019.036.038.055.056z" fill="#fea713"/><path d="m169.608 322.206c1.919 0 3.839-.732 5.303-2.196 2.929-2.93 2.929-7.678 0-10.607l-61.501-61.501-1.525-1.554-7.65 13.593 60.069 60.069c1.465 1.463 3.385 2.196 5.304 2.196z" fill="#fdb441"/><path d="m147.321 303.025 7.639-13.574-41.55-41.55-1.525-1.554-.071.126-7.578 13.467z" fill="#fea713"/><path d="m162.984 421.657-63.207-63.207c-2.929-2.928-7.678-2.928-10.606 0-2.929 2.93-2.929 7.678 0 10.607l61.723 61.723 13.561-7.632z" fill="#fdb441"/><path d="m54.655 427.246c1.919 0 3.839-.732 5.303-2.196 2.929-2.93 2.929-7.678 0-10.607l-27.289-27.33-7.654 13.601 24.336 24.336c1.465 1.463 3.384 2.196 5.304 2.196z" fill="#fea713"/></g></g></svg>