<?xml version="1.0" encoding="iso-8859-1"?>
<!-- Generator: Adobe Illustrator 19.0.0, SVG Export Plug-In . SVG Version: 6.00 Build 0)  -->
<svg version="1.1" id="Capa_1" xmlns="http://www.w3.org/2000/svg" xmlns:xlink="http://www.w3.org/1999/xlink" x="0px" y="0px"
	 viewBox="0 0 513.6 513.6" style="enable-background:new 0 0 513.6 513.6;" xml:space="preserve">
<path style="fill:#ACB3BA;" d="M269.6,4.8c-7.467-6.4-18.133-6.4-26.667,0L0.8,198.933l256,199.467l256-199.467L269.6,4.8z"/>
<path style="fill:#F2F2F2;" d="M442.4,53.867H71.2c-11.733,0-21.333,9.6-21.333,21.333v365.867h413.867V75.2
	C463.733,63.467,454.133,53.867,442.4,53.867z"/>
<rect x="89.333" y="85.867" style="fill:#FF7058;" width="90.667" height="90.667"/>
<polygon style="fill:#FFFFFF;" points="168.267,123.2 142.667,123.2 142.667,97.6 126.667,97.6 126.667,123.2 102.133,123.2 
	102.133,139.2 126.667,139.2 126.667,164.8 142.667,164.8 142.667,139.2 168.267,139.2 "/>
<g>
	<rect x="89.333" y="197.867" style="fill:#CDD6E0;" width="333.867" height="26.667"/>
	<rect x="89.333" y="270.4" style="fill:#CDD6E0;" width="333.867" height="26.667"/>
	<rect x="215.2" y="126.4" style="fill:#CDD6E0;" width="208" height="26.667"/>
</g>
<path style="fill:#FFD15C;" d="M256.8,398.4L0.8,198.933v293.333C0.8,504,10.4,513.6,22.133,513.6h469.333
	c11.733,0,21.333-9.6,21.333-21.333V198.933L256.8,398.4z"/>
<path style="fill:#F8B64C;" d="M505.333,508.267c-4.267,3.2-8.533,5.333-13.867,5.333H22.133c-5.333,0-10.667-2.133-13.867-5.333
	l193.067-152.533h110.933L505.333,508.267z"/>
<g>
</g>
<g>
</g>
<g>
</g>
<g>
</g>
<g>
</g>
<g>
</g>
<g>
</g>
<g>
</g>
<g>
</g>
<g>
</g>
<g>
</g>
<g>
</g>
<g>
</g>
<g>
</g>
<g>
</g>
</svg>
