<?xml version="1.0" encoding="iso-8859-1"?>
<!-- Generator: Adobe Illustrator 19.0.0, SVG Export Plug-In . SVG Version: 6.00 Build 0)  -->
<svg version="1.1" id="Capa_1" xmlns="http://www.w3.org/2000/svg" xmlns:xlink="http://www.w3.org/1999/xlink" x="0px" y="0px"
	 viewBox="0 0 448 448" style="enable-background:new 0 0 448 448;" xml:space="preserve">
<path style="fill:#CDD7DE;" d="M256.392,0h-64.784c-4.48,0-8.752,1.872-11.712,5.216C174.04,11.808,165.592,16,156.136,16
	s-17.904-4.192-23.744-10.784C129.432,1.872,125.16,0,120.68,0H72.392c-4.416,0-8,3.584-8,8v64c0,4.416,3.584,8,8,8h48.288
	c4.48,0,8.752-1.872,11.712-5.216C138.248,68.192,146.696,64,156.136,64c17.408,0,25.76,11.488,27.76,25.152
	c0.592,3.936,3.952,6.848,7.92,6.848h0.656l-0.08,96h64V96h0.688c3.872,0,7.184-2.768,7.872-6.56
	C267.88,73.248,282.04,64,304.392,64c32,0,56.976,19.904,70.976,42.72l8.24-5.024c0-0.032,0-0.032,0-0.032
	C363.8,43.808,297.256,0,256.392,0z"/>
<path style="fill:#B3BEC6;" d="M371.192,76.16C352.712,58.24,329.128,48,304.392,48h-160V13.584c-10.176-4.144-8.4-6.928-16-11.296
	V48h-64v24c0,4.416,3.584,8,8,8h48.288c13.152,0,16.448-16,35.456-16c17.408,0,25.76,11.488,27.76,25.168
	c0.592,3.92,3.952,6.832,7.92,6.832h0.576l32.08,32.08V192h31.92V96h0.688c3.872,0,7.184-2.768,7.872-6.56
	C267.88,73.248,282.04,64,304.392,64c32,0,56.976,19.904,70.976,42.72c0.016,0,8.224-5.04,8.24-5.056
	C382.424,97.52,377.48,86.288,371.192,76.16z"/>
<path style="fill:#8A3B2E;" d="M256.392,192h-64c-16.96,42.032-20.496,61.552-16,112c8.08,90.688-0.624,95.104-0.8,112.944
	c-0.176,17.84,9.984,31.056,22.304,31.056h53.008c12.32,0,22.464-13.216,22.304-31.056c-0.192-17.84-8.896-22.256-0.816-112.944
	C276.888,253.552,273.352,234.032,256.392,192z"/>
<path style="fill:#D84234;" d="M175.624,416h48.768V192h-32c-16.96,42.032-20.496,61.552-16,112
	C184.312,393.024,176.088,398.944,175.624,416z"/>
<g>
</g>
<g>
</g>
<g>
</g>
<g>
</g>
<g>
</g>
<g>
</g>
<g>
</g>
<g>
</g>
<g>
</g>
<g>
</g>
<g>
</g>
<g>
</g>
<g>
</g>
<g>
</g>
<g>
</g>
</svg>
