<?xml version="1.0" encoding="iso-8859-1"?>
<!-- Generator: Adobe Illustrator 19.0.0, SVG Export Plug-In . SVG Version: 6.00 Build 0)  -->
<svg xmlns="http://www.w3.org/2000/svg" xmlns:xlink="http://www.w3.org/1999/xlink" version="1.1" id="Layer_1" x="0px" y="0px" viewBox="0 0 511.999 511.999" style="enable-background:new 0 0 511.999 511.999;" xml:space="preserve">
<path style="fill:#E6EEFF;" d="M323.559,353.564L215.196,461.927L50.057,296.788l108.363-108.363  c3.224-3.224,6.527-6.212,10.066-9.121l164.194,164.194C329.771,347.037,326.783,350.34,323.559,353.564z"/>
<path style="fill:#FFDE33;" d="M502.224,56.944L455.041,9.761c-12.975-12.975-34.128-13.054-47.182,0l-47.182,47.182l94.365,94.365  l47.182-47.182C515.199,91.151,515.199,69.919,502.224,56.944z"/>
<path style="fill:#DAE2F2;" d="M250.584,261.401L132.628,379.357l82.569,82.569L323.56,353.563  c3.224-3.224,6.212-6.527,9.121-10.066L250.584,261.401z"/>
<path style="fill:#FFBC33;" d="M502.224,56.944l-23.591-23.592l-70.774,70.774l47.182,47.182l47.182-47.182  C515.199,91.151,515.199,69.919,502.224,56.944z"/>
<g>
	<path style="fill:#E55639;" d="M384.268,33.352l-74.391,74.391c-24.299,24.299-46.081,28.624-92.007,43.879   c-18.008,6.055-34.837,15.492-49.384,27.681c-3.539,2.909-6.842,5.897-10.066,9.121l-2.202,2.202l165.138,165.139l2.202-2.202   c3.224-3.224,6.212-6.527,9.121-10.066c12.19-14.547,21.626-31.376,27.602-49.462c15.413-46.082,19.659-67.628,43.958-91.928   l74.391-74.391L384.268,33.352z"/>
	<path style="fill:#E55639;" d="M61.853,284.992L14.67,332.175c-9.436,9.436-14.626,22.019-14.626,35.387   c-0.001,13.367,5.19,25.95,14.626,35.386l94.365,94.365c19.581,19.581,51.193,19.581,70.774,0l47.182-47.182L61.853,284.992z"/>
</g>
<g>
	<path style="fill:#CF4529;" d="M431.45,80.535L238.788,273.197l82.569,82.569l2.202-2.202c3.224-3.224,6.212-6.527,9.121-10.066   c12.19-14.547,21.626-31.376,27.602-49.462c15.413-46.082,19.659-67.628,43.958-91.928l74.391-74.391L431.45,80.535z"/>
	<path style="fill:#CF4529;" d="M144.424,367.562l-82.569,82.569l47.182,47.182c19.581,19.581,51.193,19.581,70.774,0l47.182-47.182   L144.424,367.562z"/>
</g>
<g>
</g>
<g>
</g>
<g>
</g>
<g>
</g>
<g>
</g>
<g>
</g>
<g>
</g>
<g>
</g>
<g>
</g>
<g>
</g>
<g>
</g>
<g>
</g>
<g>
</g>
<g>
</g>
<g>
</g>
</svg>
