<?xml version="1.0" encoding="iso-8859-1"?>
<!-- Generator: Adobe Illustrator 19.0.0, SVG Export Plug-In . SVG Version: 6.00 Build 0)  -->
<svg version="1.1" id="Capa_1" xmlns="http://www.w3.org/2000/svg" xmlns:xlink="http://www.w3.org/1999/xlink" x="0px" y="0px"
	 viewBox="0 0 512 512" style="enable-background:new 0 0 512 512;" xml:space="preserve">
<rect x="208.89" y="290.87" style="fill:#9196AA;" width="30" height="93.26"/>
<path style="fill:#FF9500;" d="M267.659,512h-87.536V369.13h87.536V512z"/>
<path style="fill:#FE8205;" d="M267.659,512h-43.768V369.13h43.768V512z"/>
<path style="fill:#BEC3D2;" d="M279.274,100.749v107.012H262.13V100.749h-30v107.012h-17.145V100.749h-30v107.012h-16.478V100.749
	h-30v119.736c0,47.081,38.303,85.384,85.383,85.384s85.383-38.303,85.383-85.384V100.749H279.274z"/>
<path style="fill:#AFB4C8;" d="M279.274,100.749v107.012H262.13V100.749h-30v107.012h-8.239v98.107
	c47.081,0,85.383-38.303,85.383-85.384V100.749H279.274z"/>
<polygon style="fill:#93D632;" points="450.69,73.025 424.462,0 336.453,25.102 336.453,120.948 424.462,146.05 "/>
<polygon style="fill:#86C42B;" points="450.69,73.025 336.453,73.025 336.453,120.948 424.462,146.05 "/>
<path style="fill:#FF9500;" d="M61.31,73.025L61.31,73.025c0-10.471,7.257-19.543,17.472-21.843l199.119-44.83
	c42.73-9.62,83.353,22.874,83.353,66.673l0,0c0,43.8-40.623,76.294-83.353,66.673L78.782,94.868
	C68.567,92.568,61.31,83.496,61.31,73.025z"/>
<path style="fill:#FE8205;" d="M61.31,73.025L61.31,73.025c55.978,0,264.989,0,299.944,0l0,0c0,43.8-40.623,76.294-83.353,66.673
	L78.782,94.868C68.567,92.568,61.31,83.496,61.31,73.025z"/>
<g>
	<polygon style="fill:#FFA426;" points="262.098,89.032 232.1,89.032 232.1,129.387 262.098,136.14 	"/>
	<polygon style="fill:#FFA426;" points="156.941,112.465 156.941,89.032 126.943,89.032 126.943,105.711 	"/>
</g>
<g>
	<polygon style="fill:#FFBC36;" points="209.52,61.548 209.52,21.747 179.521,28.501 179.521,61.548 	"/>
	<path style="fill:#FFBC36;" d="M314.677,61.548V8.212c-9.364-3.161-19.555-4.323-29.999-3.033v56.37L314.677,61.548L314.677,61.548
		z"/>
</g>
<g>
</g>
<g>
</g>
<g>
</g>
<g>
</g>
<g>
</g>
<g>
</g>
<g>
</g>
<g>
</g>
<g>
</g>
<g>
</g>
<g>
</g>
<g>
</g>
<g>
</g>
<g>
</g>
<g>
</g>
</svg>
