<?xml version="1.0"?>
<svg xmlns="http://www.w3.org/2000/svg" id="Layer_1" data-name="Layer 1" viewBox="0 0 512 512" width="512" height="512"><title>Pomegranate</title><path d="M349.8,16.82a123.553,123.553,0,0,1,82.47,31.31C386.85,99.1,307.99,103.64,257.02,58.22A123.906,123.906,0,0,1,349.8,16.82Z" style="fill:#46c43d"/><path d="M250.969,116.521c-.2,0-.405-.008-.609-.023a8,8,0,0,1-7.378-8.578l.032-.4c2.73-41.629,3.754-57.224-22.212-77.2a8,8,0,1,1,9.756-12.68c32.734,25.185,31.2,48.554,28.418,90.979,0,.042-.009.13-.012.172l-.026.329A8,8,0,0,1,250.969,116.521Z" style="fill:#4b5d63"/><path d="M294.05,449.11a62.216,62.216,0,0,1,20.4,45.57.477.477,0,0,1-.27.44.51.51,0,0,1-.52-.03l-28.15-20.11L252.98,495.1a.506.506,0,0,1-.53,0l-32.53-20.12-28.14,20.11a.512.512,0,0,1-.52.03.486.486,0,0,1-.28-.44,62.188,62.188,0,0,1,20.41-45.57c-75.5-18.58-131.66-86.84-131.66-167.99,0-94.81,76.66-172.05,171.26-172.98.57-.01,1.15-.01,1.73-.01,95.39,0,172.99,77.6,172.99,172.99C425.71,362.27,369.54,430.53,294.05,449.11Z" style="fill:#bf3a53"/></svg>
