<svg height="512" viewBox="0 0 58 58" width="512" xmlns="http://www.w3.org/2000/svg"><g id="Page-1" fill="none" fill-rule="evenodd"><g id="026---Love-Gift" fill-rule="nonzero" transform="translate(-1 -1)"><path id="Shape" d="m16.309 23.511c-.5132772-1.5822676-1.8608121-2.7500029-3.5-3.033-1.3304005-.4573283-2.7938369-.3143253-4.01053822.3918988-1.21670134.7062241-2.06671671 1.9060449-2.32946178 3.2881012-1.006 3.815 1.252 7.229 2.359 8.611l-1.3 4.94c-1.648.67-5.3 2.554-6.309 6.369-.45403282 1.3280681-.30404917 2.7883244.41046913 3.99637s1.92197961 2.0428396 3.30453087 2.28463c1.5754129.542921 3.32169871.1773032 4.547-.952z" fill="#c03a2b"/><path id="Shape" d="m39 7.431c1.0864022-2.04628896 3.1844428-3.35508481 5.5-3.431 3.257 0 5.5 2.961 5.5 6.469 0 4.735-4.261 7.52-10.528 13.344-.2635681.2487745-.6754319.2487745-.939 0-6.267-5.824-10.528-8.613-10.528-13.344 0-3.508 2.243-6.469 5.495-6.469 2.3157448.07529814 4.4140695 1.38427119 5.5 3.431z" fill="#c03a2b"/><path id="Shape" d="m45.624 4.118c-.144 3.729-1.667 14.2-14.391 12.953-.187-.2-.375-.4-.54-.6-1.711-1.918-2.693-3.742-2.693-6 0-3.506 2.251-6.471 5.507-6.471 2.3142463.07795572 4.4098239 1.38840703 5.493 3.435 1.055259-1.99049058 3.07116-3.28756372 5.32-3.423.0593721-.01064043.1197409-.01466502.18-.012.377656.00190141.7541828.04143003 1.124.118z" fill="#e64c3c"/><path id="Shape" d="m23.19 30h34.81c.5522847 0 1 .4477153 1 1v26c-.0032948 1.1032019-.8967981 1.9967052-2 2h-32c-1.1032019-.0032948-1.9967052-.8967981-2-2v-26.27" fill="#f0c419"/><path id="Shape" d="m25.932 19.619-9.977 37.841c-.2978618 1.103682-1.4299033 1.7607661-2.536 1.472l-4.019-1.039c-.5312979-.1342024-.98703846-.4749485-1.26604227-.9465888-.27900381-.4716404-.35818257-1.0351456-.21995773-1.5654112l9.974-37.841c.295514-1.1054804 1.4295062-1.7636968 2.536-1.472l4.022 1.039c.5312979.1342024.9870385.4749485 1.2660423.9465888.2790038.4716404.3581825 1.0351456.2199577 1.5654112z" fill="#f29c1f"/><path id="Shape" d="m19.89 42.524-8.045-2.081 2.101-7.968 8.044 2.081z" fill="#df4d60"/><path id="Rectangle-path" d="m38 30h6v29h-6z" fill="#ff5364"/><path id="Shape" d="m13.684 33.471-3.017-.78c-1.65777817-.4324371-3.35412753.5527848-3.8 2.207-.20711133.7953759-.08838358 1.6405111.32986068 2.3480347.41824426.7075237 1.10144726 1.218976 1.89813932 1.4209653l3.017.78" fill="#ff5364"/><path id="Shape" d="m51 3.4c.8142378-1.45190744 2.3357345-2.36480543 4-2.4 2.367 0 4 2.073 4 4.528 0 3.314-3.1 5.264-7.657 9.341-.1940552.1749539-.4889448.1749539-.683 0-4.56-4.077-7.66-6.027-7.66-9.341 0-2.455 1.635-4.528 4-4.528 1.6642655.03519457 3.1857622.94809256 4 2.4z" fill="#df4d60"/><path id="Shape" d="m55.817 1.082c-.1 2.611-1.212 9.94-10.465 9.067-.137-.14-.273-.28-.394-.42-1.1849373-1.08412477-1.8894841-2.5954102-1.958-4.2 0-2.454 1.637-4.529 4.005-4.529 1.6646142.03398493 3.1866655.94721571 4 2.4.7882076-1.41443502 2.2506595-2.32185086 3.868-2.4.0422325-.00413278.0847675-.00413278.127 0 .2743115.00147601.5478666.02893196.817.082z" fill="#ff5364"/></g></g></svg>