<?xml version="1.0" encoding="iso-8859-1"?>
<!-- Generator: Adobe Illustrator 19.0.0, SVG Export Plug-In . SVG Version: 6.00 Build 0)  -->
<svg version="1.1" id="Capa_1" xmlns="http://www.w3.org/2000/svg" xmlns:xlink="http://www.w3.org/1999/xlink" x="0px" y="0px"
	 viewBox="0 0 512 512" style="enable-background:new 0 0 512 512;" xml:space="preserve">
<path style="fill:#AFB6BB;" d="M448.256,175.801c1.324-5.544,2.101-11.299,2.101-17.249c0-41.251-33.73-74.69-75.335-74.69
	c-33.289,0-65.368,17.858-75.343,47.537c-11.202-6.541-20.303-6.788-34.242-6.788c-35.663,0-65.474,24.594-73.278,57.6
	l2.048,166.479h215.058h13.7c49.17,0,89.035-39.521,89.035-88.276C512,220.381,485.094,186.615,448.256,175.801z"/>
<path style="fill:#E7ECED;" d="M63.744,255.25c-1.324-5.544-2.101-11.299-2.101-17.249c0-41.251,33.73-74.69,75.335-74.69
	c33.28,0,65.368,17.858,75.335,47.537c11.202-6.541,20.303-6.788,34.242-6.788c41.622-0.009,80.066,32.759,80.066,74.01
	c41.613,0,70.621,34.119,70.621,75.37s-33.73,74.699-75.335,74.699h-20.551H102.735h-13.7C39.865,428.138,0,388.617,0,339.862
	C0,299.829,26.898,266.063,63.744,255.25z"/>
<g>
</g>
<g>
</g>
<g>
</g>
<g>
</g>
<g>
</g>
<g>
</g>
<g>
</g>
<g>
</g>
<g>
</g>
<g>
</g>
<g>
</g>
<g>
</g>
<g>
</g>
<g>
</g>
<g>
</g>
</svg>
