<?xml version="1.0" encoding="iso-8859-1"?>
<!-- Generator: Adobe Illustrator 19.0.0, SVG Export Plug-In . SVG Version: 6.00 Build 0)  -->
<svg version="1.1" id="Layer_1" xmlns="http://www.w3.org/2000/svg" xmlns:xlink="http://www.w3.org/1999/xlink" x="0px" y="0px"
	 viewBox="0 0 485 485" style="enable-background:new 0 0 485 485;" xml:space="preserve">
<path style="fill:#F2F2F2;" d="M464.85,100.8H20.25c-11.2,0-20.2,9.1-20.2,20.2v80.7c0,11.2,9.1,20.2,20.2,20.2h444.5
	c11.2,0,20.2-9.1,20.2-20.2V121C485.05,109.8,475.95,100.8,464.85,100.8z"/>
<path style="fill:#CDD6E0;" d="M452.75,222H32.35c-3.9,0-7.7-0.7-11.1-2v244.8c0,11.2,9.1,20.2,20.2,20.2h402.1
	c11.2,0,20.2-9.1,20.2-20.2V220C460.35,221.3,456.65,222,452.75,222z"/>
<g>
	<path style="fill:#FF7058;" d="M296.75,0c-26.8,0-48.5,21.7-48.5,48.5v52.3h52.3c26.8,0,48.5-21.7,48.5-48.5V0H296.75z M316.65,63
		c0,14.9-12.1,27-27,27h-30.7V59.3c0-14.9,12.1-27,27-27h30.7V63z"/>
	<path style="fill:#FF7058;" d="M136.15,0v52.3c0,26.8,21.7,48.5,48.5,48.5h52.3V48.5c0-26.8-21.7-48.5-48.5-48.5H136.15z
		 M168.45,32.3h30.7c14.9,0,27,12.1,27,27V90h-30.7c-14.9,0-27-12.1-27-27V32.3z"/>
</g>
<path style="fill:#ACB3BA;" d="M463.85,220v11.3c-3.6,1-7.3,1.5-11.1,1.5H32.35c-3.8,0-7.5-0.5-11.1-1.5V220c3.4,1.3,7.2,2,11.1,2
	h420.3C456.65,222,460.35,221.3,463.85,220z"/>
<rect x="195.45" y="100.8" style="fill:#FF7058;" width="92.4" height="384.2"/>
<g>
	<path style="fill:#DDDDDD;" d="M169.85,232.8h-72.7c0.5-3.8,1.7-7.4,3.3-10.8h66.1C168.15,225.3,169.35,228.9,169.85,232.8z"/>
	<path style="fill:#DDDDDD;" d="M387.95,232.8h-72.7c0.5-3.8,1.7-7.4,3.3-10.8h66.1C386.25,225.3,387.45,228.9,387.95,232.8z"/>
</g>
<rect x="195.45" y="222" style="fill:#F1543F;" width="92.4" height="10.8"/>
<g>
	<path style="fill:#EAEAEA;" d="M166.55,222h-66.1c-1.6,3.3-2.7,7-3.3,10.8c-0.2,1.6-0.3,3.3-0.3,5c0,20.3,16.4,36.7,36.6,36.7
		c20.3,0,36.7-16.4,36.7-36.7c0-1.7-0.1-3.4-0.3-5C169.35,228.9,168.15,225.3,166.55,222z"/>
	<path style="fill:#EAEAEA;" d="M351.65,274.5c20.3,0,36.6-16.4,36.6-36.7c0-1.7-0.1-3.4-0.3-5c-0.5-3.8-1.7-7.4-3.3-10.8h-66.1
		c-1.6,3.3-2.7,7-3.3,10.8c-0.2,1.6-0.3,3.3-0.3,5C314.95,258,331.35,274.5,351.65,274.5z"/>
	<circle style="fill:#EAEAEA;" cx="78.35" cy="361.3" r="36.7"/>
	<circle style="fill:#EAEAEA;" cx="406.75" cy="361.3" r="36.7"/>
	<path style="fill:#EAEAEA;" d="M133.45,440.2c-20.3,0-36.6,16.4-36.6,36.6c0,2.8,0.3,5.6,1,8.2h71.4c0.6-2.6,1-5.4,1-8.2
		C170.15,456.6,153.75,440.2,133.45,440.2z"/>
	<path style="fill:#EAEAEA;" d="M351.65,440.2c-20.3,0-36.7,16.4-36.7,36.6c0,2.8,0.3,5.6,1,8.2h71.4c0.6-2.6,1-5.4,1-8.2
		C388.25,456.6,371.85,440.2,351.65,440.2z"/>
	<circle style="fill:#EAEAEA;" cx="242.55" cy="361.3" r="36.7"/>
</g>
<g>
</g>
<g>
</g>
<g>
</g>
<g>
</g>
<g>
</g>
<g>
</g>
<g>
</g>
<g>
</g>
<g>
</g>
<g>
</g>
<g>
</g>
<g>
</g>
<g>
</g>
<g>
</g>
<g>
</g>
</svg>
