<svg id="Capa_1" enable-background="new 0 0 512 512" height="512" viewBox="0 0 512 512" width="512" xmlns="http://www.w3.org/2000/svg"><g><g><g><path d="m439.626 512h-367.252c-8.382 0-15.177-6.795-15.177-15.177v-102.661c0-8.382 6.795-15.177 15.177-15.177h367.251c8.382 0 15.177 6.795 15.177 15.177v102.661c.001 8.382-6.794 15.177-15.176 15.177z" fill="#3b5988"/><path d="m439.626 378.985h-183.64v133.015h183.64c8.382 0 15.177-6.795 15.177-15.177v-102.661c-.001-8.382-6.795-15.177-15.177-15.177z" fill="#283c5b"/></g><g><path d="m376.37 460.676c-6.403 0-12.218-4.237-14.23-10.299-2.011-6.061.158-12.957 5.303-16.752 5.089-3.753 12.185-3.908 17.409-.323 4.723 3.241 7.251 9.1 6.326 14.76-1.169 7.167-7.533 12.614-14.808 12.614z" fill="#71bda5"/><path d="m316.37 460.676c-6.252 0-12.02-4.061-14.11-9.953-2.087-5.885-.271-12.688 4.6-16.647 4.857-3.948 11.841-4.505 17.218-1.265 5.355 3.226 8.26 9.644 7.003 15.795-1.415 6.918-7.624 12.07-14.711 12.07z" fill="#71bda5"/><path d="m136.37 460.676c-6.252 0-12.021-4.061-14.11-9.953-2.087-5.885-.271-12.688 4.599-16.647 4.856-3.948 11.841-4.505 17.218-1.265 5.35 3.223 8.264 9.647 7.003 15.795-1.419 6.918-7.62 12.07-14.71 12.07z" fill="#a5e1bd"/><path d="m196.37 460.676c-6.289 0-12.039-4.098-14.135-10.01-2.098-5.917-.169-12.796 4.769-16.705 5.256-4.161 12.699-4.324 18.152-.443 5.208 3.707 7.443 10.635 5.501 16.7-1.968 6.149-7.819 10.458-14.287 10.458z" fill="#a5e1bd"/><g><path d="m255.982 460.676c-6.252 0-12.02-4.061-14.11-9.953-2.087-5.885-.271-12.688 4.6-16.647 4.857-3.948 11.841-4.505 17.218-1.265 5.354 3.226 8.26 9.644 7.003 15.795-1.416 6.919-7.624 12.07-14.711 12.07z" fill="#a5e1bd"/><path d="m263.689 432.811c-2.363-1.424-5.036-2.113-7.703-2.105v29.97c7.086-.002 13.292-5.153 14.706-12.07 1.257-6.151-1.649-12.569-7.003-15.795z" fill="#71bda5"/></g></g></g><g><g><g><path d="m214.249 135.731c-8.284 0-15-6.716-15-15v-63.98c0-31.293 25.458-56.751 56.751-56.751s56.751 25.458 56.751 56.751v7.431c0 8.284-6.716 15-15 15s-15-6.716-15-15v-7.431c0-14.751-12-26.751-26.751-26.751s-26.751 12-26.751 26.751v63.981c0 8.284-6.716 14.999-15 14.999z" fill="#e1b633"/><path d="m256 0c-.005 0-.01 0-.014 0v30h.014c14.751 0 26.751 12 26.751 26.751v7.431c0 8.284 6.716 15 15 15s15-6.716 15-15v-7.431c0-31.293-25.458-56.751-56.751-56.751z" fill="#d57d2c"/></g><g><path d="m358.762 337.345h-205.524c-8.71 0-15.772-7.061-15.772-15.772v-185.478c0-8.71 7.061-15.772 15.772-15.772h205.525c8.711 0 15.772 7.061 15.772 15.772v185.479c-.001 8.71-7.062 15.771-15.773 15.771z" fill="#e9d049"/><path d="m358.762 120.323h-102.776v217.022h102.777c8.71 0 15.772-7.061 15.772-15.772v-185.478c-.001-8.71-7.062-15.772-15.773-15.772z" fill="#e1b633"/></g></g><g><path d="m256 201.121c-8.284 0-15 6.716-15 15v25.428c0 8.284 6.716 15 15 15s15-6.716 15-15v-25.428c0-8.285-6.716-15-15-15z" fill="#e1b633"/><path d="m256 201.121c-.005 0-.01.001-.014.001v55.426c.005 0 .009.001.014.001 8.284 0 15-6.716 15-15v-25.428c0-8.285-6.716-15-15-15z" fill="#d57d2c"/></g></g></g></svg>