<svg height="512" viewBox="0 0 58 58" width="512" xmlns="http://www.w3.org/2000/svg"><g id="Page-1" fill="none" fill-rule="evenodd"><g id="026---Writing-Script" fill-rule="nonzero"><path id="Shape" d="m34 7v-3c0-2.209139-1.790861-4-4-4h-26c-2.209139 0-4 1.790861-4 4v31c.0032948 1.1032019.89679813 1.9967052 2 2h6v17c0 2.209139 1.790861 4 4 4h26c2.209139 0 4-1.790861 4-4v-3h9.16c.2121171.0064993.4052293-.1216105.481712-.3195658s.0196722-.4226262-.141712-.5604342c-.9509894-.7557513-1.5036508-1.9052871-1.5-3.12v-19c0-2.209139-1.790861-4-4-4h-12z" fill="#f9eab0"/><path id="Shape" d="m8 4v33h-6c-1.10320187-.0032948-1.9967052-.8967981-2-2v-31c0-2.209139 1.790861-4 4-4s4 1.790861 4 4z" fill="#a59078"/><path id="Shape" d="m42 51v3c0 2.209139-1.790861 4-4 4l-26 .0000031c1.0612728.001326 2.0794609-.4196746 2.8298947-1.1701084s1.1714344-1.7686219 1.1701053-2.8298947v-26c0-2.209139 1.790861-4 4-4s4 1.790861 4 4v19c-.0013291 1.0612728.4196715 2.0794609 1.1701053 2.8298947s1.7686219 1.1714344 2.8298947 1.1701053z" fill="#cbb292"/><path id="Shape" d="m51.16 51h-23.16c-1.0612728.0013291-2.0794609-.4196715-2.8298947-1.1701053s-1.1714344-1.7686219-1.1701053-2.8298947v-19c.0013291-1.0612728-.4196715-2.0794609-1.1701053-2.8298947s-1.7686219-1.1714344-2.8298947-1.1701084l26 .0000031c2.209139 0 4 1.790861 4 4v19c-.0036508 1.2147129.5490106 2.3642487 1.5 3.12.1613842.137808.2181947.3624789.141712.5604342s-.2695949.3260651-.481712.3195658z" fill="#f5efca"/><g fill="#cbb292"><path id="Shape" d="m32 31h-3c-.5522847 0-1-.4477153-1-1s.4477153-1 1-1h3c.5522847 0 1 .4477153 1 1s-.4477153 1-1 1z"/><path id="Shape" d="m45 31h-9c-.5522847 0-1-.4477153-1-1s.4477153-1 1-1h9c.5522847 0 1 .4477153 1 1s-.4477153 1-1 1z"/><path id="Shape" d="m45 36h-3c-.5522847 0-1-.4477153-1-1s.4477153-1 1-1h3c.5522847 0 1 .4477153 1 1s-.4477153 1-1 1z"/><path id="Shape" d="m38 36h-9c-.5522847 0-1-.4477153-1-1s.4477153-1 1-1h9c.5522847 0 1 .4477153 1 1s-.4477153 1-1 1z"/><path id="Shape" d="m32 41h-3c-.5522847 0-1-.4477153-1-1s.4477153-1 1-1h3c.5522847 0 1 .4477153 1 1s-.4477153 1-1 1z"/><path id="Shape" d="m45 41h-9c-.5522847 0-1-.4477153-1-1s.4477153-1 1-1h9c.5522847 0 1 .4477153 1 1s-.4477153 1-1 1z"/><path id="Shape" d="m45 46h-3c-.5522847 0-1-.4477153-1-1s.4477153-1 1-1h3c.5522847 0 1 .4477153 1 1s-.4477153 1-1 1z"/><path id="Shape" d="m38 46h-9c-.5522847 0-1-.4477153-1-1s.4477153-1 1-1h9c.5522847 0 1 .4477153 1 1s-.4477153 1-1 1z"/></g><path id="Shape" d="m58 10v4c0 1.6568542-1.3431458 3-3 3h-7v-10h7c1.6568542 0 3 1.34314575 3 3z" fill="#ff5364"/><path id="Shape" d="m19 9.31v5.38l-4.57-1.76c-.3878854-.1451712-.6449354-.5158385-.6449354-.93s.25705-.7848288.6449354-.93z" fill="#464f5d"/><path id="Shape" d="m25 7.02v9.96c-.109-.018.378.16-6-2.29v-5.38c6.309-2.424 5.89-2.272 6-2.29z" fill="#fdd7ad"/><path id="Shape" d="m43 7v10c-19.107 0-17.9.013-18-.02v-9.96c.1-.034-.991-.02 18-.02z" fill="#3b97d3"/><path id="Rectangle-path" d="m43 7h5v10h-5z" fill="#bdc3c7"/></g></g></svg>