<?xml version="1.0" encoding="iso-8859-1"?>
<!-- Generator: Adobe Illustrator 19.0.0, SVG Export Plug-In . SVG Version: 6.00 Build 0)  -->
<svg version="1.1" id="Capa_1" xmlns="http://www.w3.org/2000/svg" xmlns:xlink="http://www.w3.org/1999/xlink" x="0px" y="0px"
	 viewBox="0 0 492.541 492.541" style="enable-background:new 0 0 492.541 492.541;" xml:space="preserve">
<path style="fill:#A4856D;" d="M448.134,339.324c-2.864,1.296-5.792,2.496-8.784,3.472c-12.592,4.112-31.552,10.656-45.024,10.624
	c-0.64,0-0.848-0.096-1.264-0.144c-0.096,0.064-0.096,0.08-0.208,0.144c-3.248,2.048-6.576,4.048-9.904,5.968
	c-3.232,1.872-6.56,3.648-9.936,5.36c29.248,26.096,50.544,57.408,62.752,90.448c1.68,8.112,9.68,13.168,17.808,11.792
	c6.96-1.2,14.208-1.792,21.664-1.696c8.576,0.112,16.112-5.952,14.864-14.4c-1.456-8.784-3.072-19.744-5.344-33.488
	C478.214,390.732,465.862,364.108,448.134,339.324z"/>
<path style="fill:#DDE3E9;" d="M413.078,353.436c-31.296,8.768-63.36,23.392-74.72,28.8c0,0.032,0,0.064,0,0.096
	c0.288,4.016,3.376,7.296,7.376,7.808c2.352,0.304,5.504,0.448,9.76,0.256c7.856-0.336,15.312-3.616,20.816-6.816
	c10.416-6.064,21.424-11.056,32.592-15.616c20.416-8.336,46.272-19.136,46.272-19.136c38.8-14.544,37.36-29.28,37.36-29.28
	c-0.736-1.136-1.488-2.208-2.256-3.28C478.518,323.836,444.598,344.604,413.078,353.436z"/>
<g>
	<path style="fill:#E14B4B;" d="M413.078,353.436c31.536-8.832,65.44-29.6,77.184-37.152c-29.376-40.8-81.824-22.032-81.824-22.032
		c-68.672,23.28-71.184,72.128-70.08,87.984C349.718,376.828,381.782,362.188,413.078,353.436z"/>
	<path style="fill:#E14B4B;" d="M388.726,226.54c-22.512,83.552-135.504,111.056-230.336,84.976
		C51.926,282.412-17.306,196.764,3.782,120.188c14.48-52.112,66.816-83.344,119.904-91.568c39.792-7.168,88.352-1.68,117.968,8.496
		l0.336-0.08c35.248,10.928,73.344,31.232,102.032,59.104l0.08,0.336C379.718,131.676,401.158,177.132,388.726,226.54z"/>
</g>
<ellipse transform="matrix(-0.9388 -0.3445 0.3445 -0.9388 284.4208 470.8028)" style="fill:#FFFFFF;" cx="184.038" cy="210.133" rx="140.082" ry="71.489"/>
<polygon style="fill:#DDE3E9;" points="228.454,228.716 298.966,252.3 229.942,224.684 300.966,241.468 230.022,220.204 
	299.398,229.692 228.71,215.42 294.326,217.324 226.038,210.476 285.91,204.732 222.086,205.532 274.406,192.3 216.998,200.716 
	260.134,180.412 210.886,196.188 243.574,169.436 203.974,192.076 225.19,159.692 196.438,188.524 205.558,151.468 188.534,185.628 
	185.27,145.036 180.502,183.468 164.95,140.588 172.566,182.124 145.206,138.236 164.982,181.628 126.646,138.076 157.974,181.996 
	109.814,140.108 151.766,183.228 95.254,144.268 146.534,185.26 83.382,150.428 142.438,188.06 74.582,158.396 139.606,191.532 
	69.094,167.948 138.134,195.564 67.11,178.764 138.038,200.044 68.662,190.54 139.35,204.812 73.734,202.924 142.022,209.756 
	82.15,215.516 145.974,214.716 93.67,227.932 151.078,219.532 107.926,239.82 157.174,224.06 124.502,250.812 164.102,228.156 
	142.87,260.556 171.622,231.724 162.518,268.764 179.526,234.62 182.79,275.212 187.574,236.78 203.126,279.66 195.494,238.124 
	222.87,281.996 203.078,238.62 241.43,282.156 210.086,238.236 258.246,280.124 216.31,237.02 272.806,275.98 221.526,234.972 
	284.678,269.82 225.622,232.188 293.494,261.836 "/>
<path style="fill:#A4856D;" d="M78.982,360.572l56-156.272c2.08-5.824,7.152-9.904,13.296-10.672
	c15.472-1.936,46.224-1.92,75.088,20.88c4.176,3.296,6.368,8.48,5.984,13.792c-1.12,15.216-5.008,44.24-6.512,84.72
	c-0.752,20-0.064,40.064,2.16,59.952c3.168,28.304,2.752,83.392-46.304,92.128c0,0-63.216,13.776-90.64-28.864
	C73.558,413.692,69.942,385.82,78.982,360.572z"/>
<path style="fill:#D03F3E;" d="M344.102,96.46l-0.08-0.336C315.398,68.3,277.254,47.948,241.99,37.02l-0.336,0.08
	c-37.968-13.024-102.288-18.736-155.472,1.44c39.632-6.96,87.616-1.488,117.088,8.608l0.336-0.08
	C238.87,57.996,276.95,78.3,305.638,106.172l0.08,0.336c35.648,35.232,57.056,80.688,44.64,130.08
	c-10.896,40.464-43.776,67.072-83.056,81.84c0.176-0.032,0.368-0.048,0.544-0.064c53.664-8.4,106.704-39.2,120.88-91.824
	C401.142,177.212,379.798,131.74,344.102,96.46z"/>
<path style="fill:#997960;" d="M222.854,313.02c1.504-40.48,5.392-69.504,6.512-84.72c0.4-5.312-1.808-10.496-5.984-13.792
	c-3.488-2.752-7.024-5.152-10.528-7.28c0.4,1.648,0.64,3.328,0.512,5.072c-1.12,15.216-5.008,44.24-6.512,84.72
	c-0.752,20-0.064,40.08,2.16,59.968c3.168,28.304,2.752,83.392-46.304,92.128c0,0-43.12,9.312-73.584-11.472
	c27.92,40.832,89.584,27.472,89.584,27.472c49.056-8.752,49.472-63.824,46.304-92.128C222.79,353.1,222.102,333.02,222.854,313.02z"
	/>
<g>
</g>
<g>
</g>
<g>
</g>
<g>
</g>
<g>
</g>
<g>
</g>
<g>
</g>
<g>
</g>
<g>
</g>
<g>
</g>
<g>
</g>
<g>
</g>
<g>
</g>
<g>
</g>
<g>
</g>
</svg>
