<svg height="512" viewBox="0 0 64 64" width="512" xmlns="http://www.w3.org/2000/svg"><g id="Sun_Bath" data-name="Sun Bath"><path d="m29.69015 57.69492a1 1 0 0 1 -.96387-.73633l-7.24707-26.55274a1.00022 1.00022 0 0 1 1.92969-.52734l7.2471 26.55273a1.00061 1.00061 0 0 1 -.70117 1.22852 1.03241 1.03241 0 0 1 -.26468.03516z" fill="#778cbc"/><path d="m47.76144 57.54648-3.27744-5.48048h1.754a1 1 0 0 0 0-2h-21.02343l-11.10157-11.10253a.99989.99989 0 0 0 -1.41406 1.41406l4.15 4.15033-3.58194 5.53814h-2.51533a1 1 0 1 0 0 2h6.244l-3.27722 5.48145a.99985.99985 0 1 0 1.7168 1.02539l3.89034-6.50684h22.82727l3.89178 6.50781a1.00035 1.00035 0 0 0 1.7168-1.02734zm-29.46613-11.57208 4.09125 4.0916h-6.73756z" fill="#e5d1a5"/><path d="m47.76144 57.54648-3.27744-5.48048h1.754a1 1 0 0 0 0-2h-4.79358a1 1 0 0 1 0 2h.70844l3.89178 6.50781a1.00035 1.00035 0 0 0 1.7168-1.02734z" fill="#f7ebd0"/><path d="m20.37374 24.61972a1.00081 1.00081 0 0 1 -.96386-.73633l-.32715-1.19726a1.00023 1.00023 0 1 1 1.92969-.52735l.32715 1.19727a1.00062 1.00062 0 0 1 -.70118 1.22851 1.02672 1.02672 0 0 1 -.26465.03516z" fill="#778cbc"/><path d="m38.13388 26.46109a6.89641 6.89641 0 0 0 -4.18 1.33 6.72066 6.72066 0 0 0 -2.19 2.92.45329.45329 0 0 1 -.24.25.44606.44606 0 0 1 -.28.06 24.05506 24.05506 0 0 0 -16.65 4.05.46559.46559 0 0 1 -.31.09.53833.53833 0 0 1 -.25-.09 8.87466 8.87466 0 0 0 -7.57-1.23.29812.29812 0 0 1 -.34-.44 23.62085 23.62085 0 0 1 13.89-10.44c.2-.06.39-.1.59-.15.01 0 .03-.01.04-.01a23.47847 23.47847 0 0 1 17.65 3.12.29039.29039 0 0 1 -.16.54z" fill="#98acf8"/><path d="m11.76986 33.55661a8.13759 8.13759 0 0 0 -1.82617-.01837c.0174.002.03278.00085.05023.00287a8.87523 8.87523 0 0 1 4.04 1.53.53833.53833 0 0 0 .25.09.46559.46559 0 0 0 .31-.09c.15674-.10816.33331-.22327.509-.33795a8.37072 8.37072 0 0 0 -3.33306-1.17655z" fill="#778cbc"/><path d="m7.89987 33.40518a25.05814 25.05814 0 0 1 10.08069-9.79669 23.91154 23.91154 0 0 0 -11.85663 9.7926.29812.29812 0 0 0 .34.44 8.82261 8.82261 0 0 1 1.40149-.28681.326.326 0 0 1 .03445-.1491z" fill="#778cbc"/><path d="m31.52389 30.96109a.44606.44606 0 0 1 -.28.06 24.04517 24.04517 0 0 0 -16.14 3.71c-.18.12-.35.23-.51.34a.46559.46559 0 0 1 -.31.09c.05-.26.1-.52.16-.79a26.562 26.562 0 0 1 5.57-11.41c.2-.06.39-.1.59-.15a25.41264 25.41264 0 0 1 5.96 3.27 25.56565 25.56565 0 0 1 4.96 4.88z" fill="#f1f2f2"/><path d="m15.10391 34.73111c-.18.12-.35.23-.51.34a.46559.46559 0 0 1 -.31.09c.05-.26.1-.52.16-.79q.36009.18001.66.36z" fill="#ddd"/><path d="m33.56152 26.79c-.23828-.10449-.48437-.20508-.73632-.30274a.99985.99985 0 0 1 .7207-1.86523c.2793.10742.55078.21973.81445.334a1.00024 1.00024 0 0 1 -.79883 1.83397z" fill="#c3d4fc"/><path d="m30.17578 25.6748c-.61816-.14062-1.251-.252-1.88086-.33007q-.60792-.07473-1.22265-.10743a1.00008 1.00008 0 0 1 .10742-1.99707q.68407.03663 1.36035.12012a20.84134 20.84134 0 0 1 2.081.36524.99975.99975 0 0 1 -.44526 1.94921z" fill="#c3d4fc"/><path d="m52.03591 21.499a4.80807 4.80807 0 0 0 -2.03662 2.12872.49.49 0 0 1 -.77934.1317 5.27548 5.27548 0 0 0 -2.5707-1.38181 5.21991 5.21991 0 0 0 -3.00955.26493.499.499 0 0 1 -.6797-.41354 5.24227 5.24227 0 0 0 -.75605-2.27852 5.395 5.395 0 0 0 -2.89107-2.234.48987.48987 0 0 1 -.23853-.75812 5.25824 5.25824 0 0 0 1.0467-2.842 5.3203 5.3203 0 0 0 -.72648-2.9831.49329.49329 0 0 1 .30808-.72028 5.04663 5.04663 0 0 0 3.72235-4.28398.48984.48984 0 0 1 .71011-.37759 5.135 5.135 0 0 0 2.69811.54544 5.126 5.126 0 0 0 2.93713-1.23448.49792.49792 0 0 1 .77721.16267 5.31842 5.31842 0 0 0 2.05935 2.25486 5.25723 5.25723 0 0 0 2.92958.722.49113.49113 0 0 1 .50743.61961 5.39527 5.39527 0 0 0 .23505 3.64757 5.24227 5.24227 0 0 0 1.46621 1.90092.5062.5062 0 0 1 -.054.80627 5.21785 5.21785 0 0 0 -1.88573 2.33534 5.27434 5.27434 0 0 0 -.29375 2.89361.48986.48986 0 0 1 -.55018.57147 4.5959 4.5959 0 0 0 -2.92561.52231z" fill="#fddb3a"/><circle cx="48.218" cy="14.362" fill="#ffb433" r="5.499"/><path d="m50.30615 9.27728a5.49561 5.49561 0 0 1 -4.41375 9.981c-.16492-.05042-.32447-.10992-.481-.174a5.49525 5.49525 0 1 0 4.89471-9.807z" fill="#fca72b"/></g></svg>