<svg id="Capa_1" enable-background="new 0 0 512 512" height="512" viewBox="0 0 512 512" width="512" xmlns="http://www.w3.org/2000/svg"><g><path d="m301.849 473.766c-15.594-15.594-29.076-33.165-40.103-52.263l-27.867-48.267c-1.264-2.189-.9-4.953.887-6.74l118.124-118.124-58.046-12.891-32.924 12.891-26.3 26.3c-4.005 4.005-10.498 4.005-14.503 0l-26.3-26.3-25.847-14.418-19.638 14.418 36.56 36.56c10.899 10.899 10.899 28.57 0 39.469l-16.176 16.176c-4.542 4.542-7.094 10.703-7.094 17.127v14.272c0 4.252 1.119 8.428 3.245 12.11l57.096 98.894c4.251 7.362 3.026 16.662-2.985 22.673l-4.357 4.357c-.735.735-.214 1.991.825 1.991h120.822c1.039 0 1.559-1.256.825-1.991z" fill="#c17d4f"/><path d="m301.849 473.766c-15.594-15.594-29.076-33.165-40.103-52.263l-27.867-48.267c-1.264-2.189-.9-4.953.887-6.74l118.124-118.124-34.921-17.69-26.889 17.69-87.833 87.833c-7.501 7.501-9.029 19.105-3.725 28.292l21.017 36.404c11.026 19.098 24.509 36.669 40.103 52.263l5.764 5.764c11.982 11.982 3.496 32.47-13.449 32.47h-27.502c.267 5.185-1.619 10.398-5.477 14.256l-4.357 4.357c-.735.735-.214 1.991.825 1.991h120.822c1.039 0 1.559-1.256.825-1.991z" fill="#b16e3d"/><path d="m196.865 363.707c0-2.319-.233-4.638-.695-6.892-.856-4.181-4.942-6.875-9.118-6.021-4.181.855-6.876 4.938-6.021 9.118.253 1.237.381 2.515.381 3.796 0 5.061-1.983 9.808-5.582 13.366-2.984 2.95-6.775 4.778-10.871 5.282.279.587.581 1.164.907 1.729l7.094 12.287c5.113-1.612 9.805-4.428 13.732-8.309 6.56-6.483 10.173-15.132 10.173-24.356z" fill="#b16e3d"/><g><path d="m240.015 332.551c-1.977 0-3.955-.755-5.464-2.263-3.017-3.018-3.017-7.909 0-10.928l50.698-50.698c3.018-3.016 7.909-3.016 10.928 0 3.017 3.018 3.017 7.909 0 10.928l-50.698 50.698c-1.509 1.509-3.487 2.263-5.464 2.263z" fill="#985e33"/></g><path d="m255.107 512c5.885-14.539 5.111-31.457-3.151-45.764l-23.854-41.317c-2.133-3.696-6.86-4.96-10.554-2.828-3.695 2.134-4.962 6.859-2.828 10.554l23.854 41.318c6.964 12.057 6.376 26.744-.761 38.036h17.294z" fill="#b16e3d"/><g><path d="m258.907 490.487c-1.835.587-3.826.909-5.951.909h-9.475c.182 7.226-1.763 14.423-5.669 20.604h17.295c2.76-6.819 4.055-14.162 3.8-21.513z" fill="#985e33"/></g><path d="m402.908 103.323c-.526-.109-.903-.572-.903-1.109 0-.005 0-.01 0-.015 0-18.731-15.185-33.916-33.916-33.916-3.91 0-7.666.662-11.162 1.88-1.883.656-3.942-.331-4.61-2.21-14.081-39.6-51.888-67.953-96.319-67.953-42.053 0-78.173 25.4-93.857 61.694-.757 1.752-2.743 2.619-4.541 1.98-4.281-1.522-8.89-2.35-13.693-2.35-22.574 0-40.874 18.3-40.874 40.874v.008c0 1.556-.991 2.937-2.465 3.436-28.942 9.799-49.775 37.186-49.775 69.438 0 40.478 32.814 73.292 73.292 73.292h263.827c40.478 0 73.292-32.814 73.292-73.292.002-35.34-25.01-64.837-58.296-71.757z" fill="#95d6a4"/><path d="m402.908 103.323c-.525-.109-.903-.572-.903-1.109v-.015c0-18.731-15.185-33.916-33.916-33.916-3.285 0-6.461.468-9.465 1.339 1.405 3.723 2.174 7.758 2.174 11.973v.015c0 .537.378 1 .903 1.109 33.286 6.92 58.298 36.418 58.298 71.757 0 40.478-32.814 73.292-73.292 73.292h-263.828c-3.566 0-7.072-.255-10.501-.747 13.254 13.195 31.529 21.351 51.708 21.351h263.827c40.478 0 73.292-32.814 73.292-73.292.001-35.34-25.011-64.837-58.297-71.757z" fill="#78c2a4"/><g><g><path d="m164.195 165.587c-1.977 0-3.955-.755-5.463-2.263-7.811-7.81-12.112-18.193-12.112-29.238 0-11.044 4.301-21.428 12.111-29.238 16.123-16.121 42.355-16.121 58.476 0 3.018 3.017 3.018 7.909.001 10.927-3.018 3.018-7.91 3.017-10.927.001-10.099-10.097-26.526-10.096-36.623 0-4.891 4.891-7.586 11.394-7.586 18.311 0 6.918 2.694 13.421 7.585 18.311 3.018 3.017 3.018 7.909.001 10.927-1.508 1.507-3.486 2.262-5.463 2.262z" fill="#78c2a4"/></g></g><path d="m387.529 132.278c-11.536-11.535-27.818-16.123-43.198-12.869.191-5.985-1.226-12.092-4.434-17.648-9.175-15.891-29.566-21.357-45.457-12.18-3.695 2.134-4.962 6.859-2.828 10.554 2.133 3.696 6.86 4.961 10.554 2.828 4.124-2.38 8.93-3.012 13.525-1.781 4.599 1.232 8.443 4.182 10.823 8.305 4.913 8.511 1.987 19.435-6.524 24.349-3.696 2.134-4.962 6.859-2.828 10.554 1.432 2.479 4.028 3.864 6.698 3.864 1.311 0 2.64-.334 3.856-1.036 4.358-2.516 7.931-5.876 10.633-9.755.38-.122.756-.276 1.123-.462 12.463-6.334 27.485-3.945 37.381 5.952 6.085 6.085 9.436 14.175 9.436 22.781 0 8.605-3.351 16.696-9.437 22.781-2.947 2.948-2.947 7.727 0 10.675 1.474 1.473 3.406 2.21 5.338 2.21s3.863-.737 5.338-2.21c8.936-8.937 13.858-20.818 13.858-33.456s-4.922-24.52-13.857-33.456z" fill="#78c2a4"/></g></svg>