<svg height="512" viewBox="0 0 48 48" width="512" xmlns="http://www.w3.org/2000/svg"><g id="magnify"><path d="m47 16c0 3.87-1.71 7.82-3.46 9.57-8.91 10.8-26.54 4.43-26.54-9.57a14.93 14.93 0 0 1 5.43-11.54c9.68-8.01 24.57-1.22 24.57 11.54z" fill="#374f68"/><path d="m47 16c0 3.87-1.71 7.82-3.46 9.57-9.66 7.98-24.54 1.18-24.54-11.57 0-5.2 3-9.36 3.46-9.57 9.65-7.98 24.54-1.19 24.54 11.57z" fill="#425b72"/><path d="m43 16a11 11 0 0 1 -11 11c-10.49 0-15-13.33-6.71-19.71a11 11 0 0 1 17.71 8.71z" fill="#dad7e5"/><path d="m43 16a10.9 10.9 0 0 1 -2.29 6.71 11 11 0 0 1 -15.42-15.42 11 11 0 0 1 17.71 8.71z" fill="#edebf2"/><path d="m22.84 27.87-4.46 4.46-2.84-2.83 4.46-4.5c2.22 2.23 1.59 1.6 2.84 2.87z" fill="#374f68"/><path d="m21.85 26.86-1.63 1.63a2.6 2.6 0 0 1 -3.68 0l3.46-3.49z" fill="#425b72"/><path d="m18.44 35.22-2.61 2.61-5.66-5.66 2.61-2.61a2 2 0 0 1 2.83 0l2.83 2.83a2 2 0 0 1 0 2.83z" fill="#374f68"/><path d="m18.36 32.31a3.58 3.58 0 0 1 -5 0l-1.64-1.64 1.11-1.11a2 2 0 0 1 2.83 0z" fill="#425b72"/><path d="m15.83 37.83-8 8a4 4 0 0 1 -6.54-4.33c.42-1 0-.45 8.88-9.33z" fill="#374f68"/><path d="m14.33 36.33c-6.62 6.67-7.11 7.67-9.33 7.67a4 4 0 0 1 -3.71-2.5c.42-1 0-.45 8.88-9.33z" fill="#425b72"/></g></svg>