<?xml version="1.0" encoding="iso-8859-1"?>
<!-- Generator: Adobe Illustrator 19.0.0, SVG Export Plug-In . SVG Version: 6.00 Build 0)  -->
<svg xmlns="http://www.w3.org/2000/svg" xmlns:xlink="http://www.w3.org/1999/xlink" version="1.1" id="Capa_1" x="0px" y="0px" viewBox="0 0 409.6 409.6" style="enable-background:new 0 0 409.6 409.6;" xml:space="preserve">
<path style="fill:#44C4A1;" d="M168.96,0c0,0,73.216,26.112,37.376,95.232C205.824,95.232,135.168,76.288,168.96,0z"/>
<path style="fill:#3EA69B;" d="M168.96,0c-33.792,76.288,37.376,95.232,37.376,95.232L168.96,0z"/>
<path style="fill:#DC8744;" d="M206.848,122.368c-3.072-0.512-5.632-2.56-6.144-6.144c0-1.536-5.632-35.328,13.312-59.904  c10.24-13.312,25.088-20.992,44.032-23.04c4.096-0.512,7.68,2.56,8.192,6.656s-2.56,7.68-6.656,8.192  c-15.36,1.536-26.624,7.168-34.304,17.408c-14.848,19.456-10.24,48.64-10.24,48.64c0.512,4.096-2.048,7.68-6.144,8.192  C208.384,122.368,207.36,122.368,206.848,122.368z"/>
<ellipse style="fill:#F6C358;" cx="147.456" cy="245.248" rx="110.08" ry="164.352"/>
<g>
	<ellipse style="fill:#FCD462;" cx="262.144" cy="245.248" rx="110.08" ry="164.352"/>
	<path style="fill:#FCD462;" d="M329.216,187.904c0,0,43.52,51.2-19.456,146.944"/>
</g>
<g>
	<path style="fill:#FFFFFF;" d="M309.76,342.528c-1.536,0-3.072-0.512-4.096-1.024c-3.584-2.048-4.608-6.656-2.048-10.24   c59.392-90.112,20.48-137.728,19.968-138.24c-2.56-3.072-2.56-7.68,1.024-10.24c3.072-2.56,7.68-2.56,10.24,1.024   c2.048,2.048,46.592,56.832-18.944,156.16C314.88,341.504,312.32,342.528,309.76,342.528z"/>
	<circle style="fill:#FFFFFF;" cx="295.936" cy="356.864" r="9.728"/>
</g>
<g>
</g>
<g>
</g>
<g>
</g>
<g>
</g>
<g>
</g>
<g>
</g>
<g>
</g>
<g>
</g>
<g>
</g>
<g>
</g>
<g>
</g>
<g>
</g>
<g>
</g>
<g>
</g>
<g>
</g>
</svg>
