<svg xmlns="http://www.w3.org/2000/svg" height="512pt" version="1.1" viewBox="0 0 512.00079 512" width="512pt">
<g id="surface1">
<path d="M 335.449219 0 L 256 0 L 256 97.105469 L 353.101562 97.105469 L 353.101562 17.65625 C 353.101562 7.90625 345.199219 0 335.449219 0 Z M 335.449219 0 " style=" stroke:none;fill-rule:nonzero;fill:rgb(75.686275%,87.45098%,96.470588%);fill-opacity:1;" />
<path d="M 256 0 L 176.550781 0 C 166.800781 0 158.898438 7.90625 158.898438 17.65625 L 158.898438 97.105469 L 256 97.105469 Z M 256 0 " style=" stroke:none;fill-rule:nonzero;fill:rgb(69.803922%,84.313725%,95.686275%);fill-opacity:1;" />
<path d="M 256 123.585938 L 335.449219 123.585938 C 345.199219 123.585938 353.101562 115.683594 353.101562 105.929688 L 353.101562 97.105469 L 256 97.105469 Z M 256 123.585938 " style=" stroke:none;fill-rule:nonzero;fill:rgb(55.686275%,52.156863%,47.45098%);fill-opacity:1;" />
<path d="M 158.898438 97.105469 L 158.898438 105.929688 C 158.898438 115.683594 166.800781 123.585938 176.550781 123.585938 L 256 123.585938 L 256 97.105469 Z M 158.898438 97.105469 " style=" stroke:none;fill-rule:nonzero;fill:rgb(44.705882%,40%,34.509804%);fill-opacity:1;" />
<path d="M 194.207031 485.519531 L 194.207031 494.34375 C 194.207031 504.097656 202.113281 512 211.863281 512 L 256 512 L 256 485.519531 Z M 194.207031 485.519531 " style=" stroke:none;fill-rule:nonzero;fill:rgb(44.705882%,40%,34.509804%);fill-opacity:1;" />
<path d="M 256 512 L 300.136719 512 C 309.886719 512 317.792969 504.097656 317.792969 494.34375 L 317.792969 485.519531 L 256 485.519531 Z M 256 512 " style=" stroke:none;fill-rule:nonzero;fill:rgb(55.686275%,52.156863%,47.45098%);fill-opacity:1;" />
<path d="M 300.136719 317.792969 L 256 317.792969 L 256 344.277344 L 317.792969 344.277344 L 317.792969 335.449219 C 317.792969 325.699219 309.890625 317.792969 300.136719 317.792969 Z M 300.136719 317.792969 " style=" stroke:none;fill-rule:nonzero;fill:rgb(55.686275%,52.156863%,47.45098%);fill-opacity:1;" />
<path d="M 256 344.277344 L 256 317.792969 L 211.863281 317.792969 C 202.113281 317.792969 194.207031 325.699219 194.207031 335.449219 L 194.207031 344.277344 C 194.207031 344.277344 225.105469 344.277344 256 344.277344 Z M 256 344.277344 " style=" stroke:none;fill-rule:nonzero;fill:rgb(44.705882%,40%,34.509804%);fill-opacity:1;" />
<path d="M 256 344.277344 C 225.105469 344.277344 194.207031 344.277344 194.207031 344.277344 L 194.207031 485.519531 L 256 485.519531 Z M 256 344.277344 " style=" stroke:none;fill-rule:nonzero;fill:rgb(69.803922%,84.313725%,95.686275%);fill-opacity:1;" />
<path d="M 256 485.519531 L 317.792969 485.519531 L 317.792969 344.277344 L 256 344.277344 Z M 256 485.519531 " style=" stroke:none;fill-rule:nonzero;fill:rgb(75.686275%,87.45098%,96.470588%);fill-opacity:1;" />
<path d="M 61.792969 344.277344 L 61.792969 317.792969 L 17.65625 317.792969 C 7.90625 317.792969 0 325.699219 0 335.449219 L 0 344.277344 C 0 344.277344 30.894531 344.277344 61.792969 344.277344 Z M 61.792969 344.277344 " style=" stroke:none;fill-rule:nonzero;fill:rgb(44.705882%,40%,34.509804%);fill-opacity:1;" />
<path d="M 105.929688 317.792969 L 61.792969 317.792969 L 61.792969 344.277344 L 123.585938 344.277344 L 123.585938 335.449219 C 123.585938 325.699219 115.679688 317.792969 105.929688 317.792969 Z M 105.929688 317.792969 " style=" stroke:none;fill-rule:nonzero;fill:rgb(55.686275%,52.156863%,47.45098%);fill-opacity:1;" />
<path d="M 61.792969 344.277344 C 30.898438 344.277344 0 344.277344 0 344.277344 L 0 485.519531 L 61.792969 485.519531 Z M 61.792969 344.277344 " style=" stroke:none;fill-rule:nonzero;fill:rgb(69.803922%,84.313725%,95.686275%);fill-opacity:1;" />
<path d="M 61.792969 485.519531 L 123.585938 485.519531 L 123.585938 344.277344 L 61.792969 344.277344 Z M 61.792969 485.519531 " style=" stroke:none;fill-rule:nonzero;fill:rgb(75.686275%,87.45098%,96.470588%);fill-opacity:1;" />
<path d="M 61.792969 512 L 105.929688 512 C 115.679688 512 123.585938 504.097656 123.585938 494.34375 L 123.585938 485.519531 L 61.792969 485.519531 Z M 61.792969 512 " style=" stroke:none;fill-rule:nonzero;fill:rgb(55.686275%,52.156863%,47.45098%);fill-opacity:1;" />
<path d="M 0 485.519531 L 0 494.34375 C 0 504.097656 7.90625 512 17.65625 512 L 61.792969 512 L 61.792969 485.519531 Z M 0 485.519531 " style=" stroke:none;fill-rule:nonzero;fill:rgb(44.705882%,40%,34.509804%);fill-opacity:1;" />
<path d="M 450.207031 344.277344 C 419.3125 344.277344 388.414062 344.277344 388.414062 344.277344 L 388.414062 485.519531 L 450.207031 485.519531 Z M 450.207031 344.277344 " style=" stroke:none;fill-rule:nonzero;fill:rgb(69.803922%,84.313725%,95.686275%);fill-opacity:1;" />
<path d="M 450.207031 485.519531 L 512 485.519531 L 512 344.277344 L 450.207031 344.277344 Z M 450.207031 485.519531 " style=" stroke:none;fill-rule:nonzero;fill:rgb(75.686275%,87.45098%,96.470588%);fill-opacity:1;" />
<path d="M 388.414062 485.519531 L 388.414062 494.34375 C 388.414062 504.097656 396.320312 512 406.070312 512 L 450.207031 512 L 450.207031 485.519531 Z M 388.414062 485.519531 " style=" stroke:none;fill-rule:nonzero;fill:rgb(44.705882%,40%,34.509804%);fill-opacity:1;" />
<path d="M 450.207031 512 L 494.34375 512 C 504.09375 512 512 504.097656 512 494.34375 L 512 485.519531 L 450.207031 485.519531 Z M 450.207031 512 " style=" stroke:none;fill-rule:nonzero;fill:rgb(55.686275%,52.156863%,47.45098%);fill-opacity:1;" />
<path d="M 450.207031 344.277344 L 450.207031 317.792969 L 406.070312 317.792969 C 396.320312 317.792969 388.414062 325.699219 388.414062 335.449219 L 388.414062 344.277344 C 388.414062 344.277344 419.308594 344.277344 450.207031 344.277344 Z M 450.207031 344.277344 " style=" stroke:none;fill-rule:nonzero;fill:rgb(44.705882%,40%,34.509804%);fill-opacity:1;" />
<path d="M 494.34375 317.792969 L 450.207031 317.792969 L 450.207031 344.277344 L 512 344.277344 L 512 335.449219 C 512 325.699219 504.09375 317.792969 494.34375 317.792969 Z M 494.34375 317.792969 " style=" stroke:none;fill-rule:nonzero;fill:rgb(55.686275%,52.156863%,47.45098%);fill-opacity:1;" />
<path d="M 256 300.136719 C 251.125 300.136719 247.171875 296.183594 247.171875 291.308594 L 247.171875 185.378906 C 247.171875 180.503906 251.125 176.550781 256 176.550781 C 260.875 176.550781 264.828125 180.503906 264.828125 185.378906 L 264.828125 291.3125 C 264.828125 296.1875 260.875 300.136719 256 300.136719 Z M 256 300.136719 " style=" stroke:none;fill-rule:nonzero;fill:rgb(65.490196%,66.27451%,67.45098%);fill-opacity:1;" />
<path d="M 450.207031 300.136719 C 445.332031 300.136719 441.378906 296.183594 441.378906 291.308594 L 441.378906 264.828125 L 70.621094 264.828125 L 70.621094 291.3125 C 70.621094 296.1875 66.667969 300.140625 61.792969 300.140625 C 56.917969 300.140625 52.964844 296.1875 52.964844 291.3125 L 52.964844 256 C 52.964844 251.125 56.917969 247.171875 61.792969 247.171875 L 450.207031 247.171875 C 455.082031 247.171875 459.035156 251.125 459.035156 256 L 459.035156 291.3125 C 459.035156 296.1875 455.082031 300.136719 450.207031 300.136719 Z M 450.207031 300.136719 " style=" stroke:none;fill-rule:nonzero;fill:rgb(65.490196%,66.27451%,67.45098%);fill-opacity:1;" />
<path d="M 247.171875 123.585938 L 247.171875 150.070312 L 203.035156 150.070312 C 198.160156 150.070312 194.207031 154.019531 194.207031 158.898438 C 194.207031 163.773438 198.160156 167.726562 203.035156 167.726562 L 256 167.726562 L 256 114.757812 C 251.125 114.757812 247.171875 118.710938 247.171875 123.585938 Z M 247.171875 123.585938 " style=" stroke:none;fill-rule:nonzero;fill:rgb(44.705882%,40%,34.509804%);fill-opacity:1;" />
<path d="M 308.964844 150.070312 L 264.828125 150.070312 L 264.828125 123.585938 C 264.828125 118.710938 260.875 114.757812 256 114.757812 L 256 167.722656 L 308.964844 167.722656 C 313.839844 167.726562 317.792969 163.773438 317.792969 158.898438 C 317.792969 154.023438 313.839844 150.070312 308.964844 150.070312 Z M 308.964844 150.070312 " style=" stroke:none;fill-rule:nonzero;fill:rgb(55.686275%,52.156863%,47.45098%);fill-opacity:1;" />
</g>
</svg>