<svg id="Capa_1" enable-background="new 0 0 512 512" height="512" viewBox="0 0 512 512" width="512" xmlns="http://www.w3.org/2000/svg"><g><path d="m416 15v482c0 8.28-6.72 15-15 15h-290c-8.28 0-15-6.72-15-15v-482c0-8.28 6.72-15 15-15h290c8.28 0 15 6.72 15 15z" fill="#46778c"/><path d="m162.96 512h-51.96c-8.28 0-15-6.72-15-15v-482c0-8.28 6.72-15 15-15h51.96c-8.54 0-15.45 6.92-15.45 15.45v481.1c0 8.53 6.91 15.45 15.45 15.45z" fill="#3a6684"/><path d="m319.999 39.002c0 13.807-11.193 25-25 25h-78c-13.807 0-25-11.193-25-25 0-3.866-3.134-7-7-7h-49.999c-3.866 0-7 3.134-7 7v433.996c0 3.866 3.134 7 7 7h241.998c3.866 0 7-3.134 7-7v-433.996c0-3.866-3.134-7-7-7h-50c-3.864 0-6.999 3.134-6.999 7z" fill="#eaf6ff"/><path d="m147.512 31.997v448.005h-12.512c-3.866 0-7-3.134-7-7v-434.005c0-3.866 3.134-7 7-7z" fill="#d8ecfe"/><path d="m319.995 192.005c0 23.684-12.867 44.37-31.997 55.434-9.406 5.45-20.336-1.439-31.998-1.439s-22.592 6.889-31.997 1.439c-19.13-11.064-31.997-31.75-31.997-55.434-.001-35.345 28.648-64.005 63.994-64.005s63.995 28.66 63.995 64.005z" fill="#365e7d"/><path d="m287.997 214.69v32.749c-9.405 5.45-20.335 8.561-31.997 8.561s-22.592-3.111-31.997-8.561v-32.749c0-3.255 2.225-6.14 5.542-7.191l17.729-4.481h17.451l17.729 4.481c3.318 1.051 5.543 3.935 5.543 7.191z" fill="#9bd8f9"/><g><path d="m288 37.846h-63.999c-4.267 0-7.726-3.459-7.726-7.726s3.459-7.726 7.726-7.726h63.999c4.267 0 7.726 3.459 7.726 7.726s-3.459 7.726-7.726 7.726z" fill="#eaf6ff"/></g><path d="m239.85 181.15v10.72c0 8.919 7.23 16.15 16.15 16.15 8.919 0 16.15-7.23 16.15-16.15v-10.72c0-8.919-7.23-16.15-16.15-16.15-8.919.001-16.15 7.231-16.15 16.15z" fill="#ffcebf"/><g><g><g><g><path d="m320 327.725h-127.999c-4.267 0-7.726-3.459-7.726-7.726s3.459-7.726 7.726-7.726h127.999c4.267 0 7.726 3.459 7.726 7.726s-3.459 7.726-7.726 7.726z" fill="#f25a74"/></g></g><g><path d="m320 359.725h-127.999c-4.267 0-7.726-3.459-7.726-7.726s3.459-7.726 7.726-7.726h127.999c4.267 0 7.726 3.459 7.726 7.726s-3.459 7.726-7.726 7.726z" fill="#365e7d"/></g><g><path d="m288 391.725h-63.999c-4.267 0-7.726-3.459-7.726-7.726s3.459-7.726 7.726-7.726h63.999c4.267 0 7.726 3.459 7.726 7.726s-3.459 7.726-7.726 7.726z" fill="#365e7d"/></g><g><path d="m288 423.725h-63.999c-4.267 0-7.726-3.459-7.726-7.726s3.459-7.726 7.726-7.726h63.999c4.267 0 7.726 3.459 7.726 7.726s-3.459 7.726-7.726 7.726z" fill="#365e7d"/></g></g></g></g></svg>