<svg height="512pt" viewBox="-64 0 512 512" width="512pt" xmlns="http://www.w3.org/2000/svg"><path d="m384.902344 192.457031c0 27.691407-5.671875 54.15625-16.871094 78.671875-45.207031 98.890625-131.390625 202.746094-156.722656 232.21875-4.742188 5.511719-11.609375 8.652344-18.863282 8.652344-7.238281 0-14.109374-3.140625-18.839843-8.632812-25.34375-29.480469-111.515625-133.304688-156.734375-232.238282-11.191406-24.523437-16.871094-50.988281-16.871094-78.671875 0-106.125 86.332031-192.457031 192.445312-192.457031 106.117188 0 192.449219 86.332031 192.457032 192.457031zm0 0" fill="#c83c50"/><path d="m384.902344 192.457031c0 27.691407-5.671875 54.15625-16.871094 78.671875-45.207031 98.890625-131.390625 202.746094-156.722656 232.21875-4.742188 5.511719-11.609375 8.652344-18.863282 8.652344v-512c106.117188 0 192.449219 86.332031 192.457032 192.457031zm0 0" fill="#962a3a"/><path d="m299.621094 192.445312c0 28.59375-11.152344 55.5-31.414063 75.761719s-47.167969 31.425781-75.761719 31.425781c-59.097656 0-107.171874-48.089843-107.171874-107.1875 0-59.097656 48.074218-107.171874 107.171874-107.171874 59.097657 0 107.175782 48.074218 107.175782 107.171874zm0 0" fill="#ffd15e"/><path d="m299.621094 192.445312c0 28.59375-11.152344 55.5-31.414063 75.761719s-47.167969 31.425781-75.761719 31.425781v-214.359374c59.097657 0 107.175782 48.074218 107.175782 107.171874zm0 0" fill="#ffa547"/></svg>