<svg height="511pt" viewBox="1 -54 511.999 511" width="511pt" xmlns="http://www.w3.org/2000/svg"><g fill-rule="evenodd"><path d="m477.394531.5h-442.789062c-19.039063 0-34.605469 15.5625-34.605469 34.597656v333.800782c0 19.007812 15.566406 34.601562 34.605469 34.601562h442.789062c19.011719 0 34.605469-15.59375 34.605469-34.601562v-333.800782c0-19.035156-15.59375-34.597656-34.605469-34.597656zm0 0" fill="#f55a8e"/><path d="m465.070312 36.558594h-418.140624c-5.988282 0-10.863282 4.875-10.863282 10.863281v309.15625c0 5.957031 4.875 10.859375 10.863282 10.859375h418.144531c5.957031 0 10.832031-4.902344 10.832031-10.859375v-309.15625c0-5.984375-4.878906-10.863281-10.835938-10.863281zm0 0" fill="#eceff1"/><path d="m388.796875 256.484375 23.070313-17.605469v-55.625c0-6.042968-4.9375-10.976562-10.980469-10.976562h-23.945313c-6.015625 0-10.953125 4.933594-10.953125 10.976562v56.53125zm0 0" fill="#f55a8e"/><path d="m110.996094 122.460938h302.15625c9.8125 0 17.839844-8 17.839844-17.808594v-1.753906c0-9.78125-8.03125-17.808594-17.839844-17.808594h-302.15625c-9.8125 0-17.839844 8.027344-17.839844 17.808594v1.753906c0 9.808594 8.027344 17.808594 17.839844 17.808594zm0 0" fill="#ffd54f"/><path d="m376.910156 85.089844c9.8125 0 17.84375 8.027344 17.84375 17.808594v1.753906c0 9.808594-8.03125 17.808594-17.84375 17.808594h36.242188c9.8125 0 17.839844-8 17.839844-17.808594v-1.753906c0-9.78125-8.03125-17.808594-17.839844-17.808594zm0 0" fill="#e6a235"/><path d="m406.289062.5c19.039063 0 34.601563 15.5625 34.601563 34.597656v1.460938h24.179687c5.957032 0 10.835938 4.875 10.835938 10.863281v309.15625c0 5.957031-4.878906 10.859375-10.835938 10.859375h-24.179687v1.460938c0 19.007812-15.5625 34.601562-34.601563 34.601562h71.105469c19.011719 0 34.605469-15.59375 34.605469-34.601562v-333.800782c0-19.035156-15.59375-34.597656-34.605469-34.597656zm0 0" fill="#ba4583"/><path d="m465.070312 36.558594h-24.175781v330.882812h24.175781c5.957032 0 10.835938-4.90625 10.835938-10.863281v-309.15625c0-5.984375-4.878906-10.863281-10.835938-10.863281zm0 0" fill="#c4cccf"/><path d="m393.703125 224.890625v27.855469l18.164063-13.867188v-55.625c0-6.042968-4.9375-10.976562-10.980469-10.976562h-18.164063c6.042969 0 10.980469 4.933594 10.980469 10.976562zm0 0" fill="#ba4583"/><path d="m379.859375 314.035156c8.179687 8.234375 10.25 8 18.835937 0l11.183594-10.425781 11.390625-3.035156c11.242188-2.980469 12.058594-4.875 9.429688-16.324219l-3.414063-14.890625 3.066406-11.386719c3.035157-11.183594 1.808594-12.875-9.433593-16.320312l-9.054688-2.773438-5.578125-1.695312-8.292968-8.351563c-8.203126-8.234375-10.25-8-18.863282 0l-11.183594 10.425781-1.957031.523438-9.433593 2.484375c-11.210938 2.976563-12.058594 4.875-9.429688 16.320313l3.445312 14.921874-3.09375 11.359376c-3.007812 11.210937-1.8125 12.90625 9.429688 16.320312l14.628906 4.496094zm0 0" fill="#ffd54f"/><path d="m407.253906 237.476562c.40625 1.34375.785156 2.683594 1.078125 4.085938 1.023438 4.410156 1.546875 9.082031 1.546875 13.898438 0 26.777343-16.671875 48.734374-37.875 50.691406l7.855469 7.882812c8.175781 8.234375 10.25 8 18.835937 0l11.183594-10.421875 11.390625-3.039062c11.242188-2.976563 12.058594-4.875 9.429688-16.320313l-3.417969-14.890625 3.066406-11.390625c3.039063-11.179687 1.8125-12.875-9.429687-16.320312l-9.054688-2.773438zm0 0" fill="#e6a235"/></g><path d="m306.941406 245.984375h-213.789062c-4.308594 0-7.800782-3.496094-7.800782-7.808594 0-4.308593 3.492188-7.804687 7.800782-7.804687h213.789062c4.3125 0 7.804688 3.496094 7.804688 7.804687 0 4.3125-3.492188 7.808594-7.804688 7.808594zm0 0" fill="#35505c"/><path d="m306.941406 187.730469h-213.789062c-4.308594 0-7.800782-3.496094-7.800782-7.804688 0-4.3125 3.492188-7.808593 7.800782-7.808593h213.789062c4.3125 0 7.804688 3.496093 7.804688 7.808593s-3.492188 7.804688-7.804688 7.804688zm0 0" fill="#35505c"/><path d="m306.941406 304.261719h-213.789062c-4.308594 0-7.800782-3.492188-7.800782-7.804688 0-4.308593 3.492188-7.804687 7.800782-7.804687h213.789062c4.3125 0 7.804688 3.496094 7.804688 7.804687 0 4.3125-3.492188 7.804688-7.804688 7.804688zm0 0" fill="#35505c"/></svg>