<?xml version="1.0" encoding="iso-8859-1"?>
<!-- Generator: Adobe Illustrator 19.0.0, SVG Export Plug-In . SVG Version: 6.00 Build 0)  -->
<svg version="1.1" id="Capa_1" xmlns="http://www.w3.org/2000/svg" xmlns:xlink="http://www.w3.org/1999/xlink" x="0px" y="0px"
	 viewBox="0 0 511.999 511.999" style="enable-background:new 0 0 511.999 511.999;" xml:space="preserve">
<path style="fill:#0F9887;" d="M241.097,94.409c-0.553-5.114-4.686-50.723,20.199-77.043c11.607-12.277,27.781-18.24,46.779-17.262
	l-1.551,29.955c-10.239-0.53-17.897,2.06-23.434,7.916c-13.133,13.89-13.188,43.82-12.173,53.209L241.097,94.409z"/>
<path style="fill:#FF5842;" d="M499.457,305.696c0,129.468-113.081,200.866-230.871,206.005
	c-66.069,2.879-133.618-15.087-183.539-55.351c-95.974-77.417-94.434-215.914-8.599-302.209l10.928,10.498
	c1.75,1.62,34.104,30.385,82.126,5.739l38.074-19.537c-15.097,33.564-30.705,55.681-14.957,95.734
	c46.062-10.438,49.672-37.954,63.349-68.728c0.01-0.03,0.03-0.06,0.04-0.09c14.248,33.374,19.097,58.82,63.389,68.808
	c2.91-7.409,4.739-14.248,5.709-20.677c0-0.01,0.01-0.02,0-0.03c8.999-27.335,3.629-47.332-5.099-67.129l22.506,11.648
	c48.032,24.646,80.376-4.119,82.126-5.739l10.958-10.168C479.25,200.284,499.457,251.235,499.457,305.696z"/>
<path style="fill:#FF3F2E;" d="M499.457,305.696c0,129.468-113.081,200.866-230.871,206.005c-4.139,0.14-8.339,0.21-12.578,0.21
	c-0.1,0-0.04,7.979-0.04-334.064c0.01-0.03,0.03-0.06,0.04-0.09c14.248,33.374,19.097,58.82,63.389,68.808
	c2.91-7.409,4.739-14.248,5.709-20.677c0-0.01,0.01-0.02,0-0.03c8.999-27.335,3.629-47.332-5.099-67.129l22.506,11.648
	c48.032,24.646,80.376-4.119,82.126-5.739l10.958-10.168C479.25,200.284,499.457,251.235,499.457,305.696z"/>
<path style="fill:#11A892;" d="M462.868,172.911c-9.932,9.548-20.103,21.296-44.813,29.537c-14.198,4.743-34.529,8.023-58.762,2.024
	c1.775,30.025-6.788,50.574-19.138,74.32l-10.139-0.664c-48.166-3.155-73.697-35.431-74.05-35.431
	c-16.501,18.972-42.333,33.355-84.106,36.096c-11.717-22.521-20.974-43.205-19.138-74.32c-38.161,9.454-74.775-3.891-93.259-21.649
	l-10.316-9.911c50.729-66.816,128.929-99.154,206.819-98.926C334.872,74.213,413.467,107.849,462.868,172.911z"/>
<path style="fill:#0F9887;" d="M462.868,172.911c-9.932,9.548-20.103,21.296-44.813,29.537c-14.198,4.743-34.529,8.023-58.762,2.024
	c1.775,30.025-6.788,50.574-19.138,74.32l-10.139-0.664c-48.166-3.155-73.697-35.431-74.05-35.431V73.985
	C334.872,74.213,413.467,107.849,462.868,172.911z"/>
<g>
</g>
<g>
</g>
<g>
</g>
<g>
</g>
<g>
</g>
<g>
</g>
<g>
</g>
<g>
</g>
<g>
</g>
<g>
</g>
<g>
</g>
<g>
</g>
<g>
</g>
<g>
</g>
<g>
</g>
</svg>
