<svg clip-rule="evenodd" fill-rule="evenodd" height="512" stroke-linejoin="round" stroke-miterlimit="2" viewBox="0 0 356 356" width="512" xmlns="http://www.w3.org/2000/svg" xmlns:serif="http://www.serif.com/"><g id="Exp-8.-F2" serif:id="Exp 8. F2"><g><path d="m267.778 201.719 8.479 4.895s.557-.321 1.489-.859c5.104-2.947 11.169-3.745 16.862-2.22s10.547 5.25 13.494 10.354 3.745 11.17 2.22 16.863c-1.526 5.692-5.25 10.546-10.354 13.493-.932.538-1.489.859-1.489.859v9.792s.557.321 1.489.859c5.104 2.947 8.828 7.801 10.354 13.493 1.525 5.693.727 11.759-2.22 16.863s-7.801 8.829-13.494 10.354-11.758.727-16.862-2.22c-.932-.538-1.489-.859-1.489-.859l-8.479 4.895v1.719c0 5.894-2.341 11.546-6.509 15.713-4.167 4.168-9.82 6.509-15.713 6.509-5.894 0-11.546-2.341-15.714-6.509-4.167-4.167-6.509-9.819-6.509-15.713 0-1.076 0-1.719 0-1.719l-8.479-4.895s-.557.321-1.489.859c-5.104 2.947-11.169 3.745-16.862 2.22s-10.547-5.25-13.494-10.354-3.745-11.17-2.22-16.863c1.526-5.692 5.25-10.546 10.354-13.493.932-.538 1.489-.859 1.489-.859v-9.792s-.557-.321-1.489-.859c-5.104-2.947-8.828-7.801-10.354-13.493-1.525-5.693-.727-11.759 2.22-16.863s7.801-8.829 13.494-10.354 11.758-.727 16.862 2.22c.932.538 1.489.859 1.489.859l8.479-4.895v-1.719c0-5.894 2.342-11.546 6.509-15.713 4.168-4.168 9.82-6.509 15.714-6.509 5.893 0 11.546 2.341 15.713 6.509 4.168 4.167 6.509 9.819 6.509 15.713zm-22.222 20.503c15.331 0 27.777 12.447 27.777 27.778s-12.446 27.778-27.777 27.778-27.778-12.447-27.778-27.778 12.447-27.778 27.778-27.778z" fill="#47c563"/><path d="m154.989 60.482 11.802 6.814s1.737-1.003 4.267-2.463c5.104-2.947 11.169-3.746 16.862-2.22 5.693 1.525 10.547 5.249 13.494 10.354 1.829 3.168 3.726 6.453 5.555 9.622 2.947 5.104 3.746 11.17 2.22 16.863-1.525 5.693-5.249 10.546-10.354 13.493-2.529 1.461-4.266 2.463-4.266 2.463v13.628s1.737 1.003 4.266 2.463c5.105 2.947 8.829 7.801 10.354 13.494 1.526 5.693.727 11.758-2.22 16.862-1.829 3.169-3.726 6.454-5.555 9.623-2.947 5.104-7.801 8.828-13.494 10.354-5.693 1.525-11.758.727-16.862-2.22-2.53-1.461-4.267-2.463-4.267-2.463l-11.802 6.813v4.927c0 5.894-2.341 11.546-6.508 15.713-4.168 4.168-9.82 6.509-15.714 6.509-3.659 0-7.452 0-11.111 0-5.894 0-11.546-2.341-15.713-6.509-4.168-4.167-6.509-9.819-6.509-15.713 0-2.921 0-4.927 0-4.927l-11.802-6.813s-1.737 1.002-4.267 2.463c-5.104 2.947-11.169 3.745-16.862 2.22-5.693-1.526-10.547-5.25-13.494-10.354-1.829-3.169-3.726-6.454-5.555-9.623-2.947-5.104-3.746-11.169-2.22-16.862 1.525-5.693 5.25-10.547 10.354-13.494 2.529-1.46 4.266-2.463 4.266-2.463v-13.628s-1.737-1.002-4.266-2.463c-5.104-2.947-8.829-7.8-10.354-13.493-1.526-5.693-.727-11.759 2.22-16.863 1.829-3.169 3.726-6.454 5.555-9.622 2.947-5.105 7.801-8.829 13.494-10.354 5.693-1.526 11.758-.727 16.862 2.22 2.53 1.46 4.267 2.463 4.267 2.463l11.802-6.814v-4.926c0-5.894 2.341-11.546 6.509-15.714 4.167-4.167 9.819-6.509 15.713-6.509h11.111c5.894 0 11.546 2.342 15.714 6.509 4.167 4.168 6.508 9.82 6.508 15.714v4.926zm-27.777 22.851c21.463 0 38.888 17.426 38.888 38.889 0 21.464-17.425 38.889-38.888 38.889-21.464 0-38.889-17.425-38.889-38.889 0-21.463 17.425-38.889 38.889-38.889z" fill="#4fb5cd"/></g></g></svg>