<?xml version="1.0" encoding="iso-8859-1"?>
<!-- Generator: Adobe Illustrator 19.0.0, SVG Export Plug-In . SVG Version: 6.00 Build 0)  -->
<svg version="1.1" id="Layer_1" xmlns="http://www.w3.org/2000/svg" xmlns:xlink="http://www.w3.org/1999/xlink" x="0px" y="0px"
	 viewBox="0 0 512 512" style="enable-background:new 0 0 512 512;" xml:space="preserve">
<circle style="fill:#FFD15C;" cx="256" cy="256" r="131.2"/>
<circle style="fill:#F8B64C;" cx="256" cy="256" r="107.733"/>
<path style="fill:#FFD15C;" d="M249.6,312.533c-17.067-1.067-29.867-8.533-39.467-17.067l12.8-18.133
	c6.4,6.4,14.933,11.733,26.667,13.867v-25.6c-17.067-4.267-35.2-10.667-35.2-33.067c0-17.067,12.8-30.933,35.2-33.067v-14.933h16v16
	c13.867,1.067,24.533,6.4,34.133,14.933l-12.8,17.067c-6.4-5.333-12.8-8.533-20.267-10.667v22.4
	c17.067,4.267,36.267,10.667,36.267,33.067c0,18.133-11.733,32-36.267,35.2v14.933h-16v-14.933H249.6z M249.6,241.067V220.8
	c-7.467,1.067-11.733,5.333-11.733,10.667C237.867,235.733,243.2,237.867,249.6,241.067z M265.6,269.867v22.4
	c8.533-2.133,12.8-6.4,12.8-11.733C277.333,275.2,272,272,265.6,269.867z"/>
<g>
	<path style="fill:#CDD6E0;" d="M170.667,112c-24.533,13.867-43.733,34.133-58.667,58.667L37.333,96L0,133.333V0h133.333L96,37.333
		L170.667,112z"/>
	<path style="fill:#CDD6E0;" d="M512,0v133.333L474.667,96L400,170.667c-13.867-24.533-34.133-44.8-58.667-58.667L416,37.333
		L378.667,0H512z"/>
	<path style="fill:#CDD6E0;" d="M512,378.667V512H378.667L416,474.667L341.333,400c24.533-14.933,44.8-34.133,58.667-58.667
		L474.667,416L512,378.667z"/>
	<path style="fill:#CDD6E0;" d="M96,474.667L133.333,512H0V378.667L37.333,416L112,341.333
		c13.867,24.533,34.133,43.733,58.667,58.667L96,474.667z"/>
</g>
<g>
</g>
<g>
</g>
<g>
</g>
<g>
</g>
<g>
</g>
<g>
</g>
<g>
</g>
<g>
</g>
<g>
</g>
<g>
</g>
<g>
</g>
<g>
</g>
<g>
</g>
<g>
</g>
<g>
</g>
</svg>
