<svg id="Capa_1" enable-background="new 0 0 497 497" height="512" viewBox="0 0 497 497" width="512" xmlns="http://www.w3.org/2000/svg"><path d="m272 173.494-60 75.006 60 74.994 41.66-27.773c2.086-1.391 3.34-3.733 3.34-6.24v-81.972c0-2.508-1.253-4.849-3.34-6.24z" fill="#340d66"/><path d="m257 .005c-8.25 0-15 6.75-15 15v14.989l-90 218.5 90 218.5v15.001c0 8.25 6.75 15 15 15s15-6.75 15-15v-466.99c0-8.25-6.75-15-15-15z" fill="#6241ea"/><path d="m242 29.994v437l-30-20.39-75-198.11 75-198.11z" fill="#14cfff"/><path d="m45 143.494 60 105.006-60 104.994h-37.5c-4.142 0-7.5-3.358-7.5-7.5v-195c0-4.142 3.358-7.5 7.5-7.5z" fill="#725fee"/><path d="m45 143.494h60v210h-60z" fill="#6241ea"/><path d="m212 50.384v396.22l-137-93.11v-210z" fill="#8ae7ff"/><g fill="#94e368"><path d="m467 180.994v135c0 4.142 3.358 7.5 7.5 7.5h15c4.142 0 7.5-3.358 7.5-7.5v-135c0-4.142-3.358-7.5-7.5-7.5h-15c-4.142 0-7.5 3.358-7.5 7.5z"/><path d="m407 120.994v255c0 4.142 3.358 7.5 7.5 7.5h15c4.142 0 7.5-3.358 7.5-7.5v-255c0-4.142-3.358-7.5-7.5-7.5h-15c-4.142 0-7.5 3.358-7.5 7.5z"/><path d="m347 180.994v135c0 4.142 3.358 7.5 7.5 7.5h15c4.142 0 7.5-3.358 7.5-7.5v-135c0-4.142-3.358-7.5-7.5-7.5h-15c-4.142 0-7.5 3.358-7.5 7.5z"/></g></svg>