<svg id="Capa_1" enable-background="new 0 0 498.5 498.5" height="512" viewBox="0 0 498.5 498.5" width="512" xmlns="http://www.w3.org/2000/svg"><g><path d="m498.5 109v280.5c0 11.05-8.95 20-20 20h-458.5c-11.05 0-20-8.95-20-20v-280.5c0-11.05 8.95-20 20-20h458.5c11.05 0 20 8.95 20 20z" fill="#ffc682"/><path d="m35 409.5h-15c-11.05 0-20-8.95-20-20v-280.5c0-11.05 8.95-20 20-20h15c-11.05 0-20 8.95-20 20v280.5c0 11.05 8.95 20 20 20z" fill="#ffac5c"/><g fill="#fff"><path d="m448.5 317h-110c-4.143 0-7.5-3.357-7.5-7.5s3.357-7.5 7.5-7.5h110c4.143 0 7.5 3.357 7.5 7.5s-3.357 7.5-7.5 7.5z"/><path d="m448.5 348h-19.5c-4.143 0-7.5-3.357-7.5-7.5s3.357-7.5 7.5-7.5h19.5c4.143 0 7.5 3.357 7.5 7.5s-3.357 7.5-7.5 7.5z"/><path d="m394 348h-55.5c-4.143 0-7.5-3.357-7.5-7.5s3.357-7.5 7.5-7.5h55.5c4.143 0 7.5 3.357 7.5 7.5s-3.357 7.5-7.5 7.5z"/></g><path d="m200.5 89h41v320.5h-41z" fill="#50758d"/><path d="m0 191.5h498.5v41h-498.5z" fill="#50758d"/><path d="m202.86 238.36-19.35 9.51-45.65 22.43c-6.83 3.36-14.39 5.11-21.99 4.7-21.01-1.11-38.87-16.57-38.87-38.87v-50.98c0-20.53 15.14-35.26 33.94-38.34 8.41-1.38 17.02-.12 24.82 3.26l31.36 15.89 15.8 8.06 18.93 9.66c-8.02 6.25-13.18 16-13.18 26.96 0 11.41 5.59 21.52 14.19 27.72z" fill="#fd646f"/><path d="m368 185.15v50.98c0 22.3-17.86 37.76-38.87 38.87-7.6.41-15.16-1.34-21.99-4.7l-45.19-22.22-19.41-9.54c8.74-6.18 14.45-16.37 14.45-27.9 0-11.07-5.27-20.92-13.44-27.16l18.99-9.69 44.2-22.56c8.44-4.23 18-5.95 27.32-4.42 18.8 3.08 33.94 17.81 33.94 38.34z" fill="#fd646f"/><path d="m202.86 238.36-19.35 9.51c-9.42-9.96-14.84-23.3-14.84-37.23 0-13.77 5.1-26.71 14.25-36.62l18.93 9.66c-8.02 6.25-13.18 16-13.18 26.96 0 11.41 5.59 21.52 14.19 27.72z" fill="#fc4755"/><path d="m276.99 210.64c0 14.05-5.49 27.45-15.04 37.44l-19.41-9.54c8.74-6.18 14.45-16.37 14.45-27.9 0-11.07-5.27-20.92-13.44-27.16l18.99-9.69c9.27 9.93 14.45 22.95 14.45 36.85z" fill="#fc4755"/><path d="m256.99 210.64c0 11.53-5.71 21.72-14.45 27.9-5.57 3.95-12.37 6.26-19.71 6.26-7.45 0-14.35-2.39-19.97-6.44-8.6-6.2-14.19-16.31-14.19-27.72 0-10.96 5.16-20.71 13.18-26.96 5.79-4.51 13.07-7.2 20.98-7.2 7.79 0 14.98 2.61 20.72 7 8.17 6.24 13.44 16.09 13.44 27.16z" fill="#fd646f"/><path d="m0 191.5h15v41h-15z" fill="#2b597f"/></g></svg>