<?xml version="1.0" encoding="iso-8859-1"?>
<!-- Generator: Adobe Illustrator 19.0.0, SVG Export Plug-In . SVG Version: 6.00 Build 0)  -->
<svg version="1.1" id="Capa_1" xmlns="http://www.w3.org/2000/svg" xmlns:xlink="http://www.w3.org/1999/xlink" x="0px" y="0px"
	 viewBox="0 0 512 512" style="enable-background:new 0 0 512 512;" xml:space="preserve">
<path style="fill:#E5E5E5;" d="M385.4,512H126.616c-17.68,0-32-14.32-32-32V32c0-17.68,14.32-32,32-32h258.768
	c17.68,0,32,14.32,32,32v448C417.4,497.68,403.064,512,385.4,512z"/>
<rect x="126.616" y="69.856" style="fill:#4B9FD8;" width="258.72" height="341.744"/>
<g>
	<circle style="fill:#CACACA;" cx="256.008" cy="461.808" r="24.352"/>
	<path style="fill:#CACACA;" d="M302.024,30.48h-92.032c-2.448,0-4.448,1.984-4.448,4.448l0,0c0,2.448,1.984,4.448,4.448,4.448
		h92.032c2.448,0,4.448-1.984,4.448-4.448l0,0C306.472,32.48,304.472,30.48,302.024,30.48z"/>
</g>
<path style="fill:#3789C9;" d="M213.144,411.6c14.128,0,25.584-11.456,25.584-25.584c0-14.128-11.456-25.584-25.584-25.584H178.92
	c-11.824,0-21.456-9.68-21.392-21.52v-0.272c0-0.528-0.016-1.04-0.048-1.568c-0.704-11.664,8.544-21.488,20.24-21.488h45.328
	c13.856,0,26.272-10.368,26.992-24.208c0.768-14.752-10.96-26.96-25.552-26.96h-14.016c-11.888,0-21.52-9.68-21.44-21.568
	l0.016-1.488v-0.304c-0.08-12.512,10.096-22.752,22.608-22.752h18.112c13.856,0,26.272-10.368,26.992-24.208
	c0.768-14.752-10.96-26.96-25.552-26.96h-65.392c-12.368,0-21.584-10.384-21.44-22.752c0-0.096,0-0.208,0-0.304s0-0.208,0-0.304
	c-0.144-12.368,9.072-22.752,21.44-22.752h21.152c13.856,0,26.272-10.368,26.992-24.208c0.768-14.752-10.96-26.96-25.552-26.96
	h-61.792V411.6H213.144z"/>
<path style="fill:#FFFFFF;" d="M366.152,243.248c0,16.896-10.736,31.504-25.872,36.96c-4.224,1.76-8.976,2.64-13.904,2.64h-140.8
	c-22,0-39.776-17.776-39.776-39.6c0-17.6,11.264-32.032,27.104-37.312l0.176-0.176c-0.176-0.88-0.352-1.584-0.352-2.288
	c0-27.808,22.704-50.512,50.512-50.512c1.408,0,2.64,0,4.048,0.176c4.048,0.528,7.92,1.408,11.616,2.64V155.6
	c2.464-3.52,5.456-6.688,8.624-9.328c1.584-1.408,3.344-2.816,5.104-4.048c8.8-6.16,19.536-9.68,31.152-9.68
	c2.464,0,4.928,0.176,7.392,0.528c3.696,0.528,7.04,1.232,10.384,2.464c5.808,1.936,11.264,4.928,16.016,8.624
	c1.408,1.056,2.64,2.112,3.872,3.168c1.408,1.408,2.816,2.816,4.048,4.224c8.624,9.68,13.728,22.528,13.728,36.256
	c0,5.984-1.056,11.792-2.816,17.072C353.48,209.28,366.152,224.768,366.152,243.248z"/>
<path style="fill:#F3F3F3;" d="M289.176,137.904c13.92,0,26.592,5.184,36.32,13.664c-10.144-11.616-25.008-18.992-41.648-18.992
	c-18.496,0-34.832,9.12-44.864,23.056c-4.944-1.664-10.24-2.608-15.76-2.608c-27.856,0-50.448,22.592-50.448,50.448
	c0,15.296,6.944,28.832,17.696,38.08c-7.6-8.832-12.368-20.192-12.368-32.752c0-27.856,22.592-50.448,50.448-50.448
	c12.576,0,23.92,4.768,32.752,12.368c-4.256-4.944-9.456-9.024-15.28-12.064C256.152,146.016,271.704,137.904,289.176,137.904z"/>
<g style="opacity:0.1;">
	<path style="fill:#010101;" d="M340.28,280.208c-4.224,1.76-8.976,2.64-13.904,2.64h-58.08l17.248-57.376L340.28,280.208z"/>
</g>
<polygon style="fill:#FFCC5B;" points="303.384,298.912 256.008,348.928 208.648,298.912 226.376,298.912 226.376,225.52 
	285.544,225.52 285.544,298.912 "/>
<path style="fill:#FDBC4B;" d="M259.48,254.704h-9.104c-3.376,0-6.112-2.912-6.096-6.48v-0.448v-0.096
	c-0.016-3.76,2.864-6.832,6.432-6.832h10.272c3.936,0,7.472-3.12,7.664-7.264c0.224-4.432-3.12-8.096-7.264-8.096h-35.008v73.36
	h29.872c4.016,0,7.264-3.44,7.264-7.68s-3.248-7.68-7.264-7.68h-9.728c-3.36,0-6.096-2.896-6.08-6.448v-0.08
	c0-0.16,0-0.32-0.016-0.464c-0.208-3.504,2.432-6.448,5.744-6.448h12.88c3.936,0,7.472-3.12,7.664-7.264
	C266.952,258.368,263.624,254.704,259.48,254.704z"/>
<g>
</g>
<g>
</g>
<g>
</g>
<g>
</g>
<g>
</g>
<g>
</g>
<g>
</g>
<g>
</g>
<g>
</g>
<g>
</g>
<g>
</g>
<g>
</g>
<g>
</g>
<g>
</g>
<g>
</g>
</svg>
