<?xml version="1.0" encoding="iso-8859-1"?>
<!-- Generator: Adobe Illustrator 19.0.0, SVG Export Plug-In . SVG Version: 6.00 Build 0)  -->
<svg version="1.1" id="Capa_1" xmlns="http://www.w3.org/2000/svg" xmlns:xlink="http://www.w3.org/1999/xlink" x="0px" y="0px"
	 viewBox="0 0 512 512" style="enable-background:new 0 0 512 512;" xml:space="preserve">
<path style="fill:#FA7564;" d="M256,0C151.849,0,68.137,84.685,68.137,187.863c0,42.829,15.575,81.766,38.938,114.857
	C256,512,256,512,256,512s0,0,148.925-209.28c23.363-32.123,38.938-71.055,38.938-114.857C443.863,84.685,360.151,0,256,0z
	 M256,314.404c-69.11,0-126.541-56.458-126.541-126.541c0-69.11,56.458-126.541,126.541-126.541
	c69.11,0,126.541,56.458,126.541,126.541S325.11,314.404,256,314.404z"/>
<g>
</g>
<g>
</g>
<g>
</g>
<g>
</g>
<g>
</g>
<g>
</g>
<g>
</g>
<g>
</g>
<g>
</g>
<g>
</g>
<g>
</g>
<g>
</g>
<g>
</g>
<g>
</g>
<g>
</g>
</svg>
