<svg height="512pt" viewBox="-54 0 512 512" width="512pt" xmlns="http://www.w3.org/2000/svg"><path d="m360.78125 89.078125-10.480469 117.75-27.160156 305.171875h-285.5l-28.320313-318.238281-9.320312-104.683594zm0 0" fill="#f0e7df"/><path d="m360.78125 89.078125-10.480469 117.75-27.160156 305.171875h-142.75v-422.921875zm0 0" fill="#dfcdbd"/><path d="m260.910156 237.792969-29.753906-3.832031 30.4375-233.960938h142.1875v30h-115.800781zm0 0" fill="#008300"/><path d="m350.300781 206.828125-27.160156 305.171875h-285.5l-28.320313-318.238281c24.769532-13.089844 90.96875-38.703125 171.070313 6.226562 78.878906 44.242188 144.28125 20.082031 169.910156 6.839844zm0 0" fill="#ff8900"/><path d="m350.300781 206.828125-27.160156 305.171875h-142.75v-312.011719c78.878906 44.242188 144.28125 20.082031 169.910156 6.839844zm0 0" fill="#e67500"/><path d="m60.945312 418.859375 65.410157-65.410156 65.410156 65.410156-65.410156 65.410156zm0 0" fill="#f0e7df"/><path d="m189.433594 276.605469h92.5v92.5h-92.5zm0 0" fill="#dfcdbd"/><path d="m240.910156 420.289062h29.664063v29.667969h-29.664063zm0 0" fill="#dfcdbd"/><path d="m126.363281 235.878906h29.667969v29.667969h-29.667969zm0 0" fill="#f0e7df"/><path d="m81.695312 293.191406h29.667969v29.667969h-29.667969zm0 0" fill="#f0e7df"/><path d="m191.769531 418.859375-11.378906 11.378906v-22.757812zm0 0" fill="#dfcdbd"/></svg>