<?xml version="1.0" encoding="iso-8859-1"?>
<!-- Generator: Adobe Illustrator 19.0.0, SVG Export Plug-In . SVG Version: 6.00 Build 0)  -->
<svg version="1.1" id="Capa_1" xmlns="http://www.w3.org/2000/svg" xmlns:xlink="http://www.w3.org/1999/xlink" x="0px" y="0px"
	 viewBox="0 0 512 512" style="enable-background:new 0 0 512 512;" xml:space="preserve">
<path style="fill:#B4E8FF;" d="M393.612,512H118.388c-38.498,0-69.819-31.321-69.819-69.819V69.819C48.568,31.321,79.89,0,118.388,0
	h275.224c38.499,0,69.819,31.321,69.819,69.819v372.362C463.431,480.679,432.11,512,393.612,512z"/>
<path style="fill:#6AD3FF;" d="M393.612,0H256.153v512h137.46c38.499,0,69.819-31.321,69.819-69.819V69.819
	C463.431,31.321,432.11,0,393.612,0z"/>
<g>
	<path style="fill:#29B7FF;" d="M196.737,115.354h-48.327c-8.382,0-15.178-6.796-15.178-15.178s6.796-15.178,15.178-15.178h48.327
		c8.382,0,15.178,6.796,15.178,15.178S205.12,115.354,196.737,115.354z"/>
	<path style="fill:#29B7FF;" d="M372.365,115.354H247.767c-8.382,0-15.178-6.796-15.178-15.178s6.796-15.178,15.178-15.178h124.599
		c8.382,0,15.178,6.796,15.178,15.178S380.748,115.354,372.365,115.354z"/>
	<path style="fill:#29B7FF;" d="M196.737,177.683h-48.327c-8.382,0-15.178-6.796-15.178-15.178s6.796-15.178,15.178-15.178h48.327
		c8.382,0,15.178,6.796,15.178,15.178S205.12,177.683,196.737,177.683z"/>
	<path style="fill:#29B7FF;" d="M196.737,240.013h-48.327c-8.382,0-15.178-6.796-15.178-15.178s6.796-15.178,15.178-15.178h48.327
		c8.382,0,15.178,6.796,15.178,15.178S205.12,240.013,196.737,240.013z"/>
	<path style="fill:#29B7FF;" d="M196.737,302.342h-48.327c-8.382,0-15.178-6.796-15.178-15.178c0-8.382,6.796-15.178,15.178-15.178
		h48.327c8.382,0,15.178,6.796,15.178,15.178C211.915,295.547,205.12,302.342,196.737,302.342z"/>
	<path style="fill:#29B7FF;" d="M196.737,364.672h-48.327c-8.382,0-15.178-6.796-15.178-15.178c0-8.382,6.796-15.178,15.178-15.178
		h48.327c8.382,0,15.178,6.796,15.178,15.178C211.915,357.876,205.12,364.672,196.737,364.672z"/>
	<path style="fill:#29B7FF;" d="M196.737,427.001h-48.327c-8.382,0-15.178-6.796-15.178-15.178c0-8.382,6.796-15.178,15.178-15.178
		h48.327c8.382,0,15.178,6.796,15.178,15.178C211.915,420.206,205.12,427.001,196.737,427.001z"/>
	<path style="fill:#29B7FF;" d="M372.365,177.683H247.767c-8.382,0-15.178-6.796-15.178-15.178s6.796-15.178,15.178-15.178h124.599
		c8.382,0,15.178,6.796,15.178,15.178S380.748,177.683,372.365,177.683z"/>
	<path style="fill:#29B7FF;" d="M372.365,240.013H247.767c-8.382,0-15.178-6.796-15.178-15.178s6.796-15.178,15.178-15.178h124.599
		c8.382,0,15.178,6.796,15.178,15.178S380.748,240.013,372.365,240.013z"/>
	<path style="fill:#29B7FF;" d="M372.365,302.342H247.767c-8.382,0-15.178-6.796-15.178-15.178c0-8.382,6.796-15.178,15.178-15.178
		h124.599c8.382,0,15.178,6.796,15.178,15.178C387.543,295.547,380.748,302.342,372.365,302.342z"/>
	<path style="fill:#29B7FF;" d="M372.365,364.672H247.767c-8.382,0-15.178-6.796-15.178-15.178c0-8.382,6.796-15.178,15.178-15.178
		h124.599c8.382,0,15.178,6.796,15.178,15.178C387.543,357.876,380.748,364.672,372.365,364.672z"/>
	<path style="fill:#29B7FF;" d="M372.365,427.001H247.767c-8.382,0-15.178-6.796-15.178-15.178c0-8.382,6.796-15.178,15.178-15.178
		h124.599c8.382,0,15.178,6.796,15.178,15.178C387.543,420.206,380.748,427.001,372.365,427.001z"/>
</g>
<g>
	<path style="fill:#207EE3;" d="M372.365,84.999H256.153v30.355h116.213c8.382,0,15.178-6.796,15.178-15.178
		S380.748,84.999,372.365,84.999z"/>
	<path style="fill:#207EE3;" d="M372.365,147.328H256.153v30.355h116.213c8.382,0,15.178-6.796,15.178-15.178
		S380.748,147.328,372.365,147.328z"/>
	<path style="fill:#207EE3;" d="M372.365,209.657H256.153v30.355h116.213c8.382,0,15.178-6.796,15.178-15.178
		C387.543,216.452,380.748,209.657,372.365,209.657z"/>
	<path style="fill:#207EE3;" d="M372.365,271.986H256.153v30.355h116.213c8.382,0,15.178-6.796,15.178-15.178
		C387.543,278.782,380.748,271.986,372.365,271.986z"/>
	<path style="fill:#207EE3;" d="M372.365,334.315H256.153v30.355h116.213c8.382,0,15.178-6.796,15.178-15.178
		C387.543,341.11,380.748,334.315,372.365,334.315z"/>
	<path style="fill:#207EE3;" d="M372.365,396.644H256.153v30.355h116.213c8.382,0,15.178-6.796,15.178-15.178
		C387.543,403.44,380.748,396.644,372.365,396.644z"/>
</g>
<g>
</g>
<g>
</g>
<g>
</g>
<g>
</g>
<g>
</g>
<g>
</g>
<g>
</g>
<g>
</g>
<g>
</g>
<g>
</g>
<g>
</g>
<g>
</g>
<g>
</g>
<g>
</g>
<g>
</g>
</svg>
