<svg id="Layer_1" enable-background="new 0 0 512 512" height="512" viewBox="0 0 512 512" width="512" xmlns="http://www.w3.org/2000/svg"><g><path d="m361.24 280.53c0 .57 0 1.13-.01 1.69-.18 55.96-9.78 96.16-29.32 122.87-14.93 20.42-35.38 32.37-60.91 35.65-4.82.62-9.82.93-15 .93s-10.18-.31-15-.93c-25.53-3.28-45.98-15.23-60.91-35.65-19.54-26.71-29.14-66.91-29.32-122.87-.01-.56-.01-1.12-.01-1.69 0-12 .94-24.35 2.63-36.88 1.44-10.69 3.43-21.51 5.86-32.32 2.46-11.04 5.38-22.08 8.62-32.98 2.9-9.77 6.06-19.44 9.38-28.9 3.66-10.4 7.51-20.56 11.45-30.36 21.31-53.05 45.05-95.57 52.3-108.15 1.11-1.92 1.83-3.14 2.1-3.6 2.71-4.55 7.61-7.34 12.9-7.34s10.19 2.79 12.9 7.34c.27.46.99 1.68 2.1 3.6 7.25 12.58 30.99 55.1 52.3 108.15 3.94 9.8 7.79 19.96 11.45 30.36 3.32 9.46 6.48 19.13 9.38 28.9 3.24 10.9 6.16 21.94 8.62 32.98 2.43 10.81 4.42 21.63 5.86 32.32 1.69 12.53 2.63 24.88 2.63 36.88z" fill="#ace233"/><path d="m361.24 280.53c0 .57 0 1.13-.01 1.69l-90.23 84.09v130.69c0 8.28-6.72 15-15 15s-15-6.72-15-15v-130.69l-90.23-84.09c-.01-.56-.01-1.12-.01-1.69 0-12 .94-24.35 2.63-36.88l87.61 81.65v-37.73l-81.75-76.24c2.46-11.04 5.38-22.08 8.62-32.98l73.13 68.2v-37.57l-63.75-59.53c3.66-10.4 7.51-20.56 11.45-30.36l52.3 48.85v-157c1.11-1.92 1.83-3.14 2.1-3.6 2.71-4.55 7.61-7.34 12.9-7.34s10.19 2.79 12.9 7.34c.27.46.99 1.68 2.1 3.6v157l52.3-48.85c3.94 9.8 7.79 19.96 11.45 30.36l-63.75 59.53v37.57l73.13-68.2c3.24 10.9 6.16 21.94 8.62 32.98l-81.75 76.24v37.73l87.61-81.65c1.69 12.53 2.63 24.88 2.63 36.88z" fill="#00b9a0"/><path d="m358.61 243.65c-1.44-10.69-3.43-21.51-5.86-32.32-2.46-11.04-5.38-22.08-8.62-32.98-2.9-9.77-6.06-19.44-9.38-28.9-3.66-10.4-7.51-20.56-11.45-30.36-21.31-53.05-45.05-95.57-52.3-108.15-1.11-1.92-1.83-3.14-2.1-3.6-2.71-4.55-7.61-7.34-12.9-7.34v441.67c5.18 0 10.18-.31 15-.93 25.53-3.28 45.98-15.23 60.91-35.65 19.54-26.71 29.14-66.91 29.32-122.87.01-.56.01-1.12.01-1.69 0-12-.94-24.35-2.63-36.88z" fill="#00da80"/><path d="m358.61 243.65-87.61 81.65v-37.73l81.75-76.24c-2.46-11.04-5.38-22.08-8.62-32.98l-73.13 68.2v-37.57l63.75-59.53c-3.66-10.4-7.51-20.56-11.45-30.36l-52.3 48.85v-157c-1.11-1.92-1.83-3.14-2.1-3.6-2.71-4.55-7.61-7.34-12.9-7.34v512c8.28 0 15-6.72 15-15v-130.69l90.23-84.09c.01-.56.01-1.12.01-1.69 0-12-.94-24.35-2.63-36.88z" fill="#009398"/></g></svg>