<svg id="Capa_1" enable-background="new 0 0 496.191 496.191" height="512" viewBox="0 0 496.191 496.191" width="512" xmlns="http://www.w3.org/2000/svg"><g><path d="m187.948 287.702c41.431 41.431 87.665 62.655 103.029 47.285l19.398-19.398c14.781-14.783 38.747-14.785 53.531-.004l.004.004 42.826 42.826c20.696 20.693 20.699 54.245.006 74.941-.002.002-.004.004-.006.006l-30.126 30.126c-37.32 37.32-149.157-14.005-249.8-114.648-50.297-50.346-88.291-103.461-109.036-148.667s-24.266-82.491-5.588-101.157l30.126-30.126c20.693-20.696 54.245-20.699 74.941-.006l.006.006 42.826 42.826c14.783 14.781 14.785 38.747.004 53.531-.001.001-.003.003-.004.004l-19.398 19.398c-15.388 15.388 5.812 61.616 47.261 103.053z" fill="#575b6d"/><path d="m496.191 40.348v137.91c.003 10.945-8.867 19.821-19.812 19.824-.004 0-.008 0-.012 0h-146.162l-60.033 52.478v-52.483h-20.674c-10.945.003-19.821-8.867-19.824-19.812 0-.004 0-.008 0-.012v-137.905c-.003-10.945 8.867-19.821 19.812-19.824h.012 226.863c10.945-.007 19.823 8.861 19.83 19.806z" fill="#eeefee"/><g fill="#575b6d"><path d="m303.624 109.3c0 9.921-8.042 17.963-17.963 17.963s-17.963-8.042-17.963-17.963 8.042-17.963 17.963-17.963c9.914-.007 17.957 8.025 17.963 17.939z"/><path d="m380.905 109.3c0 9.921-8.042 17.963-17.963 17.963s-17.963-8.042-17.963-17.963 8.042-17.963 17.963-17.963c9.914-.007 17.957 8.025 17.963 17.939z"/><path d="m458.18 109.3c0 9.921-8.042 17.963-17.963 17.963s-17.963-8.042-17.963-17.963 8.042-17.963 17.963-17.963c9.914-.007 17.957 8.025 17.963 17.939z"/></g></g></svg>