<svg id="Capa_1" enable-background="new 0 0 512 512" height="512" viewBox="0 0 512 512" width="512" xmlns="http://www.w3.org/2000/svg"><g><g><g><path d="m409.732 157.333-153.732.008v214.265l138.882-50.959 117.117-89.434z" fill="#adcfff"/><path d="m102.27 157.349-102.27 73.863 96.052 82.526 159.948 57.868v-214.265z" fill="#d7e8ff"/></g><g><path d="m96.052 0v290.316l159.948 110.001 35.23-211.67-35.23-188.647z" fill="#a4e786"/><path d="m256 0v400.317l159.948-110.001v-290.316z" fill="#00cb76"/></g><path d="m511.999 231.213-255.999 140.393 93.053 88.153 162.947 52.241v-280.787z" fill="#6aa8ff"/><path d="m0 231.212v280.787l169.706-61.47 86.294-78.923z" fill="#adcfff"/><g><path d="m256 371.606-256 140.393v.001h256l28.765-59.353z" fill="#d7e8ff"/><path d="m512 512-256-140.394v140.394z" fill="#adcfff"/></g></g><g><path d="m243.59 137.267c-.187 1.297-.282 4.389 2.436 6.638 1.818.795 5.374 2.335 9.974 4.247v-20.226c-1.277.183-2.568.452-3.868.842-6.904 2.073-8.273 6.633-8.542 8.499z" fill="none"/><path d="m263.6 211.436c9.666-.652 16.365-6.538 17.387-12.247 1.451-8.109-10.697-13.266-14.455-14.652-3.633-1.341-7.179-2.701-10.532-4.02v30.565c1.169.165 2.349.287 3.538.352z" fill="none"/><path d="m246.026 143.904c-2.718-2.249-2.623-5.341-2.436-6.638.269-1.865 1.638-6.426 8.542-8.499 1.3-.39 2.59-.659 3.868-.842l9.706-21.749-9.706-25.584-14.987-.008-.011 20.293c-14.696 5.33-24.989 17.422-27.105 32.113-2.098 14.569 4.217 28.588 16.482 36.585.662.432 1.357.811 2.079 1.133.525.234 10.562 4.704 23.543 9.808l9.706-15.987-9.707-16.378c-4.599-1.912-8.156-3.451-9.974-4.247z" fill="#ffe377"/><path d="m233.199 199.526-10.072-11.116-22.232 20.143 10.071 11.116c7.999 8.829 18.422 15.249 30.031 18.76l-.011 20.287 15.014.009 9.706-27.607-9.706-20.037c-8.956-1.263-17.206-5.38-22.801-11.555z" fill="#ffe377"/><g fill="#ffb555"><path d="m282.826 135.901-.091-.076 19.306-22.963c-.746-.627-13.156-10.86-31.037-14.196l.01-18.067-15.014-.007v47.333c14.273-2.044 26.691 7.867 26.826 7.976z"/><path d="m276.921 156.393c-7.722-2.851-15.145-5.84-20.921-8.241v32.365c3.353 1.318 6.899 2.679 10.532 4.02 3.758 1.387 15.906 6.543 14.455 14.652-1.022 5.709-7.721 11.595-17.387 12.247l-4.062-.002c-1.189-.066-2.369-.187-3.538-.352v47.643l14.987.008.01-17.987c20.189-3.349 36.175-17.571 39.521-36.273 2.896-16.18-4.41-37.308-33.597-48.08z"/></g></g></g></svg>