<?xml version="1.0" encoding="iso-8859-1"?>
<!-- Generator: Adobe Illustrator 19.0.0, SVG Export Plug-In . SVG Version: 6.00 Build 0)  -->
<svg xmlns="http://www.w3.org/2000/svg" xmlns:xlink="http://www.w3.org/1999/xlink" version="1.1" id="Capa_1" x="0px" y="0px" viewBox="0 0 512 512" style="enable-background:new 0 0 512 512;" xml:space="preserve">
<path style="fill:#06F5DD;" d="M403.831,91.171c-2.493,0-4.991,0.283-7.433,0.448C372.879,38.513,320.16,1.03,258.575,0.031  l127.413,307.478h17.843C463.571,307.509,512,259.08,512,199.34S463.571,91.171,403.831,91.171z"/>
<path style="fill:#8CFFF3;" d="M396.372,91.81c47.646,5.882,84.722,51.777,84.722,107.53c0,59.74-42.577,108.169-95.106,108.169  H92.716C41.506,307.509,0,266.003,0,214.793c0-40.455,25.909-74.853,62.048-87.514c-0.144-1.72-0.237-3.451-0.237-5.202  c0-34.14,27.671-61.811,61.811-61.811c3.348,0,6.634,0.278,9.838,0.793C161.481,23.972,205.943,0,256,0  c0.865,0,1.72,0.01,2.575,0.031c54.012,1.144,100.257,38.395,120.892,91.398c2.153-0.165,4.327-0.258,6.521-0.258  C389.501,91.171,392.963,91.387,396.372,91.81z"/>
<polygon style="fill:#00786B;" points="337.642,378.849 337.642,199.34 174.358,199.34 174.358,230.245 256,512 389.151,378.849 "/>
<polygon style="fill:#008F80;" points="337.642,378.849 256,512 122.849,378.849 174.358,378.849 174.358,230.245 306.736,230.245   306.736,378.849 "/>
<path style="fill:#00D4BE;" d="M363.396,207.066H148.604c-4.268,0-7.726-3.459-7.726-7.726c0-4.267,3.458-7.726,7.726-7.726h214.793  c4.268,0,7.726,3.459,7.726,7.726C371.123,203.607,367.664,207.066,363.396,207.066z"/>
<g>
	<circle style="fill:#FFFFFF;" cx="286.905" cy="307.509" r="7.726"/>
	<circle style="fill:#FFFFFF;" cx="256" cy="307.509" r="7.726"/>
	<circle style="fill:#FFFFFF;" cx="225.095" cy="307.509" r="7.726"/>
</g>
<g>
</g>
<g>
</g>
<g>
</g>
<g>
</g>
<g>
</g>
<g>
</g>
<g>
</g>
<g>
</g>
<g>
</g>
<g>
</g>
<g>
</g>
<g>
</g>
<g>
</g>
<g>
</g>
<g>
</g>
</svg>
