<svg height="512pt" viewBox="0 0 512.00104 512" width="512pt" xmlns="http://www.w3.org/2000/svg"><path d="m229.886719 15.363281c5.417969-9.617187 15.183593-15.363281 26.113281-15.363281s20.695312 5.746094 26.113281 15.363281l227.957031 404.578125c4.042969 7.179688 1.53125 16.265625-5.628906 20.363282-83.175781 47.574218-167.226562 71.695312-249.828125 71.695312-.46875 0-.925781 0-1.394531 0-82.164062-.269531-164.859375-24.417969-245.789062-71.769531-7.066407-4.136719-9.515626-13.160157-5.5-20.289063z" fill="#f92814"/><path d="m510.070312 419.941406-227.957031-404.578125c-5.417969-9.617187-15.183593-15.363281-26.113281-15.363281v511.988281c82.160156-.269531 165.734375-24.375 248.441406-71.683593 7.160156-4.097657 9.671875-13.183594 5.628906-20.363282zm0 0" fill="#db0404"/><path d="m324.167969 334.667969c-8.304688 0-15.035157-6.714844-15.035157-15v-34c0-8.28125 6.730469-15 15.035157-15 8.304687 0 15.039062 6.71875 15.039062 15v34c0 8.285156-6.734375 15-15.039062 15zm0 0" fill="#3e322e"/><path d="m256 334.667969c-8.304688 0-15.039062-6.714844-15.039062-15v-34c0-8.28125 6.734374-15 15.039062-15s15.035156 6.71875 15.035156 15v34c0 8.285156-6.730468 15-15.035156 15zm0 0" fill="#53433f"/><path d="m187.832031 334.667969c-8.304687 0-15.039062-6.714844-15.039062-15v-34c0-8.28125 6.734375-15 15.039062-15 8.304688 0 15.035157 6.71875 15.035157 15v34c0 8.285156-6.730469 15-15.035157 15zm0 0" fill="#53433f"/><path d="m290.59375 255.777344c-8.304688 0-15.035156-6.714844-15.035156-15v-33.996094c0-8.285156 6.730468-15 15.035156-15s15.039062 6.714844 15.039062 15v33.996094c0 8.285156-6.734374 15-15.039062 15zm0 0" fill="#3e322e"/><path d="m222.425781 255.777344c-8.304687 0-15.039062-6.714844-15.039062-15v-33.996094c0-8.285156 6.734375-15 15.039062-15 8.304688 0 15.035157 6.714844 15.035157 15v33.996094c0 8.285156-6.730469 15-15.035157 15zm0 0" fill="#53433f"/><path d="m504.441406 440.300781c-83.175781 47.578125-167.222656 71.699219-249.832031 71.699219h-1.386719c-82.171875-.269531-164.863281-24.417969-245.792968-71.769531-7.066407-4.140625-9.511719-13.160157-5.496094-20.289063l34.496094-61.230468c70.816406 38.589843 143.675781 58.289062 216.613281 58.558593h1.515625c73.480468 0 147.804687-19.710937 220.972656-58.628906l34.535156 61.300781c4.050782 7.179688 1.535156 16.269532-5.625 20.359375zm0 0" fill="#93bf00"/><path d="m256 270.667969v64c8.304688 0 15.035156-6.714844 15.035156-15v-34c0-8.28125-6.730468-15-15.035156-15zm0 0" fill="#3e322e"/><path d="m510.066406 419.941406-34.535156-61.300781c-72.691406 38.664063-146.519531 58.363281-219.53125 58.617187v94.730469c82.164062-.269531 165.734375-24.375 248.441406-71.6875 7.160156-4.089843 9.675782-13.179687 5.625-20.359375zm0 0" fill="#81a713"/></svg>