<svg id="color" enable-background="new 0 0 24 24" height="512" viewBox="0 0 24 24" width="512" xmlns="http://www.w3.org/2000/svg"><path d="m5.25 5.5h-3.5c-.552 0-1-.448-1-1s.448-1 1-1h3.5c.552 0 1 .448 1 1s-.448 1-1 1z" fill="#b0bec5"/><path d="m6.25 4.5h-5.5c0 .552.448 1 1 1h3.5c.552 0 1-.448 1-1z" fill="#99a5ac"/><path d="m5.25 10.5h-3.5c-.552 0-1-.448-1-1s.448-1 1-1h3.5c.552 0 1 .448 1 1s-.448 1-1 1z" fill="#b0bec5"/><path d="m5.25 15.5h-3.5c-.552 0-1-.448-1-1s.448-1 1-1h3.5c.552 0 1 .448 1 1s-.448 1-1 1z" fill="#b0bec5"/><path d="m5.25 20.5h-3.5c-.552 0-1-.448-1-1s.448-1 1-1h3.5c.552 0 1 .448 1 1s-.448 1-1 1z" fill="#b0bec5"/><path d="m6.25 9.5h-5.5c0 .552.448 1 1 1h3.5c.552 0 1-.448 1-1z" fill="#99a5ac"/><path d="m6.25 14.5h-5.5c0 .552.448 1 1 1h3.5c.552 0 1-.448 1-1z" fill="#99a5ac"/><path d="m6.25 19.5h-5.5c0 .552.448 1 1 1h3.5c.552 0 1-.448 1-1z" fill="#99a5ac"/><path d="m19.25 24h-13.5c-1.517 0-2.75-1.233-2.75-2.75v-18.5c0-1.517 1.233-2.75 2.75-2.75h13.5c1.517 0 2.75 1.233 2.75 2.75v18.5c0 1.517-1.233 2.75-2.75 2.75z" fill="#eceff1"/><path d="m12 0h-6.25c-1.517 0-2.75 1.233-2.75 2.75v18.5c0 1.517 1.233 2.75 2.75 2.75h6.25z" fill="#cdd0d2"/><g fill="#90a4ae"><path d="m18 15h-9c-.552 0-1-.448-1-1s.448-1 1-1h9c.552 0 1 .448 1 1s-.448 1-1 1z"/><path d="m18 19h-9c-.552 0-1-.448-1-1s.448-1 1-1h9c.552 0 1 .448 1 1s-.448 1-1 1z"/><path d="m18 11h-9c-.552 0-1-.448-1-1s.448-1 1-1h9c.552 0 1 .448 1 1s-.448 1-1 1z"/><path d="m13 7h-4c-.552 0-1-.448-1-1s.448-1 1-1h4c.552 0 1 .448 1 1s-.448 1-1 1z"/></g><path d="m19 10h-11c0 .552.448 1 1 1h9c.552 0 1-.448 1-1z" fill="#7d8f97"/><path d="m19 14h-11c0 .552.448 1 1 1h9c.552 0 1-.448 1-1z" fill="#7d8f97"/><path d="m19 18h-11c0 .552.448 1 1 1h9c.552 0 1-.448 1-1z" fill="#7d8f97"/><path d="m14 6h-6c0 .552.448 1 1 1h4c.552 0 1-.448 1-1z" fill="#7d8f97"/></svg>