<svg id="Capa_1" enable-background="new 0 0 512 512" height="512" viewBox="0 0 512 512" width="512" xmlns="http://www.w3.org/2000/svg"><g><path d="m187.864 302.923-99.868 99.868c-5.858 5.858-5.858 15.355 0 21.213l25.912 77.734c.749 2.246 2.001 4.242 3.623 5.863 2.72 2.72 6.478 4.385 10.618 4.399 4.086.014 7.974-1.777 10.863-4.666l126.632-126.632c5.858-5.858 5.858-15.355 0-21.213l-56.566-56.566c-5.859-5.858-15.356-5.858-21.214 0z" fill="#2681ff"/><g><path d="m209.075 302.92-56.569-56.569c-5.858-5.858-15.355-5.858-21.213 0l-126.9 126.9c-3.676 3.676-5.186 8.993-3.992 14.053 1.193 5.06 4.924 9.14 9.855 10.783l77.738 25.913.001.004 121.082-121.082z" fill="#6ba7ff"/></g><g><g><path d="m307 410c-14.222 0-25.524-8.681-34.605-15.656-4.988-3.831-10.146-7.793-13.782-8.765-4.012-1.072-10.702-.208-17.171.628-11.746 1.517-25.06 3.238-36.978-3.659-12.066-6.981-17.242-19.472-21.809-30.492-2.462-5.941-5.008-12.085-7.819-14.896-2.811-2.812-8.955-5.357-14.896-7.819-11.02-4.566-23.51-9.742-30.491-21.809-6.895-11.917-5.174-25.229-3.657-36.976.836-6.47 1.701-13.16.629-17.171-.972-3.635-4.934-8.793-8.765-13.781-6.975-9.082-15.656-20.383-15.656-34.604 0-14.222 8.681-25.523 15.656-34.604 3.832-4.989 7.793-10.147 8.765-13.783 1.072-4.012.208-10.702-.628-17.172-1.518-11.746-3.237-25.059 3.658-36.976 6.982-12.068 19.474-17.244 30.494-21.811 5.941-2.462 12.085-5.008 14.897-7.819 2.81-2.811 5.356-8.953 7.818-14.895 4.566-11.021 9.742-23.511 21.81-30.492 11.917-6.895 25.23-5.174 36.975-3.657 6.47.836 13.16 1.7 17.17.629 3.637-.972 8.794-4.934 13.783-8.765 9.08-6.974 20.381-15.655 34.602-15.655 14.222 0 25.524 8.681 34.605 15.656 4.988 3.831 10.146 7.793 13.782 8.765 4.012 1.073 10.702.209 17.171-.628 11.746-1.518 25.06-3.237 36.978 3.659 12.066 6.981 17.242 19.472 21.809 30.492 2.462 5.941 5.008 12.085 7.819 14.896 2.811 2.812 8.955 5.357 14.896 7.819 11.02 4.566 23.51 9.742 30.491 21.809 6.895 11.917 5.174 25.229 3.657 36.976-.836 6.47-1.701 13.16-.629 17.171.972 3.635 4.934 8.793 8.765 13.781 6.975 9.082 15.656 20.383 15.656 34.604 0 14.222-8.681 25.523-15.656 34.604-3.832 4.989-7.793 10.147-8.765 13.783-1.072 4.012-.208 10.702.628 17.172 1.518 11.746 3.237 25.059-3.658 36.976-6.982 12.068-19.474 17.244-30.494 21.811-5.941 2.462-12.085 5.008-14.897 7.819-2.81 2.811-5.356 8.953-7.818 14.895-4.566 11.021-9.742 23.511-21.81 30.492-11.916 6.895-25.23 5.174-36.975 3.657-6.471-.837-13.161-1.703-17.17-.629-3.637.972-8.794 4.934-13.783 8.765-9.08 6.974-20.381 15.655-34.602 15.655z" fill="#ffeb3c"/></g><g><path d="m487.58 156.615c-1.072-4.011-.208-10.701.629-17.171 1.518-11.746 3.238-25.059-3.657-36.976-6.981-12.066-19.471-17.242-30.491-21.809-5.941-2.462-12.085-5.008-14.896-7.819-.001-.001-.002-.002-.003-.003l-264.324 264.325c2.811 2.813 5.356 8.954 7.817 14.894 4.566 11.021 9.742 23.511 21.809 30.492 11.917 6.897 25.231 5.176 36.978 3.659 6.47-.836 13.16-1.7 17.171-.628 3.636.972 8.794 4.934 13.782 8.765 9.081 6.975 20.383 15.656 34.605 15.656 14.221 0 25.522-8.681 34.603-15.655 4.988-3.831 10.146-7.793 13.783-8.765 4.009-1.074 10.699-.208 17.17.629 11.745 1.517 25.059 3.237 36.975-3.657 12.067-6.981 17.243-19.472 21.81-30.492 2.462-5.941 5.008-12.084 7.818-14.895 2.812-2.812 8.956-5.357 14.897-7.819 11.021-4.566 23.512-9.742 30.494-21.811 6.895-11.917 5.175-25.229 3.658-36.976-.836-6.47-1.7-13.16-.628-17.172.972-3.636 4.934-8.794 8.765-13.783 6.974-9.081 15.655-20.382 15.655-34.604 0-14.221-8.681-25.522-15.656-34.604-3.831-4.988-7.793-10.146-8.764-13.781z" fill="#ffd228"/></g><g><path d="m307 330c-68.925 0-125-56.075-125-125s56.075-125 125-125 125 56.075 125 125-56.075 125-125 125z" fill="#dcf0ff"/></g><path d="m307 330c68.925 0 125-56.075 125-125 0-34.462-14.019-65.712-36.653-88.347l-176.694 176.694c22.634 22.634 53.884 36.653 88.347 36.653z" fill="#bedceb"/><g><g><path d="m300.751 274.323c-.779 0-1.564-.061-2.349-.185-5.639-.894-10.282-4.91-11.977-10.363l-9.059-29.142-29.142-9.059c-5.452-1.695-9.47-6.338-10.363-11.978s1.493-11.297 6.154-14.594l24.916-17.62-.39-30.516c-.073-5.709 3.102-10.965 8.189-13.557 5.087-2.593 11.206-2.071 15.781 1.344l24.458 18.252 28.901-9.8c5.406-1.834 11.386-.439 15.423 3.599 4.038 4.037 5.433 10.017 3.599 15.424l-9.801 28.9 18.251 24.458c3.415 4.575 3.936 10.693 1.344 15.78-2.592 5.088-7.861 8.309-13.557 8.189l-30.514-.391-17.621 24.917c-2.836 4.016-7.423 6.342-12.243 6.342z" fill="#6ba7ff"/></g></g><path d="m277.367 234.634 9.059 29.142c1.695 5.453 6.338 9.47 11.977 10.363.785.124 1.57.185 2.349.185 4.819 0 9.407-2.326 12.245-6.339l17.621-24.917 30.514.391c5.696.119 10.965-3.102 13.557-8.189s2.071-11.205-1.344-15.78l-18.251-24.458 9.801-28.9c1.833-5.407.438-11.387-3.599-15.424z" fill="#2681ff"/></g></g></svg>