<svg height="512" viewBox="0 0 128 128" width="512" xmlns="http://www.w3.org/2000/svg"><path d="m26.5 50.612a12.707 12.707 0 0 0 21.64 9.04l-14.97-20.22a12.707 12.707 0 0 0 -6.67 11.18z" fill="#fdc170"/><circle cx="98.333" cy="71.553" fill="#233958" r="8.235"/><path d="m25.89 29.607 28.865 38.987c12.792-9.47 16.7-25.876 8.729-36.642s-24.802-11.816-37.594-2.345z" fill="#233958"/><path d="m74.56 14.072-17.59 12.14a20.695 20.695 0 0 1 9.57 11.7l16.39-12.14a7.194 7.194 0 0 0 -8.37-11.7z" fill="#4f6179"/><path d="m84.562 100.649h-36.28a13 13 0 0 0 -13 13h62.28a13 13 0 0 0 -13-13z" fill="#233958"/><g fill="#a7b0bc"><path d="m90.32 73.452-30.82 27.2h15.12l23.71-20.86a8.245 8.245 0 0 1 -8.01-6.34z"/><path d="m70.6 34.9 20.8 32.21a8.257 8.257 0 0 1 8.16-3.7l.274.043-21.594-34.211z"/></g></svg>