<svg id="Capa_1" enable-background="new 0 0 512.002 512.002" height="512" viewBox="0 0 512.002 512.002" width="512" xmlns="http://www.w3.org/2000/svg"><g><path d="m512.001 199.434v273.53c0 21.558-17.476 39.034-39.034 39.034h-306.339c-21.558 0-39.034-17.476-39.034-39.034v-362.794c0-21.558 17.476-39.034 39.034-39.034h217.074c12.94 0 25.349 5.14 34.499 14.29l79.509 79.509c9.15 9.15 14.291 21.56 14.291 34.499z" fill="#f9f6f9"/><path d="m512.002 199.441v8.329c0-15.763-12.782-28.545-28.545-28.545h-40.512c-21.555 0-39.03-17.475-39.03-39.03v-40.511c0-15.763-12.782-28.545-28.545-28.545h8.329c12.942 0 25.352 5.145 34.506 14.29l79.506 79.506c9.146 9.154 14.291 21.564 14.291 34.506z" fill="#dddaec"/><g><path d="m305.069 152.537c0 5.569-.296 11.062-.89 16.477-7.624 71.082-64.085 127.544-135.167 135.167-10.792 1.186-22.162 1.186-32.954 0-71.082-7.623-127.543-64.085-135.167-135.167-1.186-10.792-1.186-22.162 0-32.954 7.624-71.082 64.085-127.544 135.167-135.167 10.792-1.186 22.162-1.186 32.954 0 71.083 7.623 127.544 64.085 135.168 135.167.593 5.415.889 10.908.889 16.477z" fill="#4a80aa"/><path d="m165.478 304.18c.582.065 1.165.129 1.763.162-10.223 1.043-20.983.956-31.176-.162-71.089-7.62-127.553-64.084-135.173-135.157-1.188-10.79-1.19-22.158 0-32.956 7.62-71.089 64.084-127.553 135.173-135.173 10.195-1.11 20.953-1.198 31.176-.162-.598.032-1.181.097-1.763.162-71.09 7.62-127.537 64.084-135.173 135.173-1.182 10.799-1.181 22.165 0 32.956 7.636 71.073 64.083 127.537 135.173 135.157z" fill="#407093"/><path d="m258.552 152.537c0 3.871-.206 7.688-.618 11.452-5.299 49.404-44.541 88.647-93.946 93.946-7.501.825-15.404.825-22.904 0-49.404-5.299-88.647-44.541-93.946-93.946-.824-7.501-.824-15.404 0-22.904 5.299-49.405 44.541-88.647 93.946-93.946 7.501-.825 15.404-.825 22.904 0 49.405 5.299 88.647 44.541 93.946 93.946.412 3.764.618 7.581.618 11.452z" fill="#c7ebfd"/><path d="m165.683 257.736c-8.064 1.018-16.519 1.085-24.599.198-49.404-5.299-88.647-44.541-93.946-93.946-.825-7.501-.825-15.403 0-22.904 5.298-49.405 44.541-88.647 93.946-93.946 8.081-.887 16.535-.82 24.599.199-48.61 6.001-87.021 44.908-92.258 93.747-.825 7.501-.825 15.403 0 22.904 5.237 48.841 43.647 87.747 92.258 93.748z" fill="#b6dded"/><g fill="#9dc6fb"><path d="m226.831 160.263h-12.755c-4.268 0-7.726-3.459-7.726-7.726s3.459-7.726 7.726-7.726h12.755c4.268 0 7.726 3.459 7.726 7.726s-3.459 7.726-7.726 7.726z"/><path d="m90.995 160.263h-12.755c-4.268 0-7.726-3.459-7.726-7.726s3.459-7.726 7.726-7.726h12.755c4.268 0 7.726 3.459 7.726 7.726s-3.459 7.726-7.726 7.726z"/><path d="m152.535 98.723c-4.268 0-7.726-3.459-7.726-7.726v-12.755c0-4.267 3.459-7.726 7.726-7.726s7.726 3.459 7.726 7.726v12.754c0 4.267-3.458 7.727-7.726 7.727z"/><path d="m152.535 234.558c-4.268 0-7.726-3.459-7.726-7.726v-12.754c0-4.267 3.459-7.726 7.726-7.726s7.726 3.459 7.726 7.726v12.754c0 4.267-3.458 7.726-7.726 7.726z"/></g><g fill="#407093"><path d="m152.535 266.279c-4.134 0-8.27-.223-12.293-.664-25.626-2.748-49.829-14.344-68.135-32.65s-29.901-42.51-32.652-68.152c-.884-8.03-.883-16.532.002-24.57 2.748-25.625 14.344-49.828 32.65-68.134s42.509-29.902 68.152-32.652c8.018-.878 16.521-.88 24.569.002 25.626 2.748 49.829 14.344 68.135 32.65s29.901 42.51 32.652 68.152c.883 8.029.883 16.532-.002 24.57-2.749 25.625-14.344 49.828-32.65 68.134s-42.509 29.902-68.152 32.652c-4.005.439-8.142.662-12.276.662zm0-212.032c-3.572 0-7.142.193-10.611.572-45.591 4.89-82.216 41.515-87.105 87.089-.764 6.956-.765 14.291-.002 21.238 4.89 45.592 41.516 82.218 87.09 87.105 6.968.763 14.306.761 21.239.002 45.591-4.89 82.216-41.515 87.105-87.09.765-6.956.765-14.291.002-21.238-4.89-45.592-41.516-82.218-87.09-87.105-3.485-.38-7.055-.573-10.628-.573z"/><path d="m152.535 160.263c-2.049 0-4.014-.814-5.464-2.263l-50.945-50.946c-3.017-3.017-3.017-7.909 0-10.927 3.019-3.017 7.91-3.017 10.928 0l45.481 45.482 21.16-21.16c3.018-3.018 7.909-3.017 10.928 0 3.017 3.017 3.017 7.909 0 10.927l-26.624 26.624c-1.45 1.449-3.415 2.263-5.464 2.263z"/></g></g><g><path d="m311.169 446.163c-9.969 0-19.439-4.6-25.601-12.548l-54.173-69.878c-10.963-14.141-8.386-34.492 5.755-45.455 14.143-10.963 34.493-8.386 45.456 5.754l24.319 31.369 47.456-84.031c8.8-15.58 28.56-21.077 44.143-12.278 15.58 8.799 21.077 28.562 12.278 44.142l-71.418 126.458c-5.333 9.445-15.04 15.593-25.857 16.381-.789.058-1.576.086-2.358.086z" fill="#a2e19f"/><g fill="#97cf92"><path d="m409.976 269.993c-.454-.302-.929-.583-1.404-.853-15.584-8.802-35.346-3.305-44.148 12.279l-47.453 84.03-10.044-10.044 47.453-84.03c8.802-15.584 28.565-21.08 44.148-12.279 4.839 2.732 8.694 6.512 11.448 10.897z"/><path d="m334.389 436.353c-5.454 5.627-12.851 9.147-20.864 9.73-.788.054-1.577.086-2.354.086-9.979 0-19.439-4.601-25.605-12.549l-54.17-69.883c-10.961-14.136-8.391-34.483 5.756-45.455 4.179-3.251 8.92-5.303 13.791-6.22-11.102 11.383-12.398 29.504-2.376 42.431l54.17 69.883c6.166 7.948 15.638 12.549 25.605 12.549 2.011-.005 4.082-.183 6.047-.572z"/></g></g></g></svg>