<svg height="512pt" viewBox="-57 0 512 512.001" width="512pt" xmlns="http://www.w3.org/2000/svg"><path d="m237.34375 458.457031v-185.640625h-30.554688v185.640625c0 10.707031-6.796874 20.234375-16.921874 23.71875l-26.660157 9.171875c-4.285156 1.476563-7.160156 5.507813-7.160156 10.039063 0 5.859375 4.75 10.613281 10.613281 10.613281h110.816406c5.859376 0 10.613282-4.75 10.613282-10.613281 0-4.53125-2.875-8.5625-7.160156-10.039063l-26.660157-9.171875c-10.128906-3.484375-16.925781-13.011719-16.925781-23.71875zm0 0" fill="#d6d6d6"/><path d="m108.007812 79.277344c0 29.828125-24.175781 54.003906-54.003906 54.003906-29.824218 0-54.003906-24.175781-54.003906-54.003906 0-29.824219 24.179688-54.003906 54.003906-54.003906 29.828125 0 54.003906 24.179687 54.003906 54.003906zm0 0" fill="#f2ca20"/><path d="m45.441406 104.175781v45.777344c0 25.210937 17.605469 47 42.257813 52.292969 18.351562 3.941406 32.753906 17.796875 38.078125 35.800781 12.28125 41.5625 50.746094 71.890625 96.292968 71.890625 45.546876 0 84.007813-30.328125 96.292969-71.890625 5.316407-18.003906 19.722657-31.859375 38.074219-35.800781 24.652344-5.292969 42.257812-27.082032 42.257812-52.292969v-45.777344c0-11.117187-9.011718-20.128906-20.128906-20.128906h-312.996094c-11.117187 0-20.128906 9.011719-20.128906 20.128906zm0 0" fill="#75cff2"/><path d="m378.566406 84.046875h-32.320312v47.1875c0 25.210937-17.609375 47-42.257813 52.292969-18.070312 3.878906-32.753906 17.257812-37.851562 35.027344-10.710938 37.347656-42.511719 76.023437-81.691407 84.074218 11.621094 4.703125 24.316407 7.308594 37.625 7.308594 45.542969 0 84.007813-30.328125 96.292969-71.890625 5.316407-18.003906 19.722657-31.859375 38.074219-35.800781 24.652344-5.292969 42.257812-27.082032 42.257812-52.292969v-45.777344c0-11.117187-9.015624-20.128906-20.128906-20.128906zm0 0" fill="#53b4e4"/><path d="m378.566406 84.046875h-312.996094c-11.117187 0-20.128906 9.011719-20.128906 20.128906v29.105469h353.253906v-29.105469c0-11.117187-9.015624-20.128906-20.128906-20.128906zm0 0" fill="#ededed"/><path d="m398.695312 133.28125v-29.105469c0-11.117187-9.015624-20.128906-20.128906-20.128906h-32.320312v47.183594c0 .6875-.019532 1.371093-.046875 2.050781zm0 0" fill="#d6d6d6"/><path d="m253.390625 133.28125 55.359375-118.058594h72.640625c4.203125 0 7.613281-3.40625 7.613281-7.609375 0-4.207031-3.410156-7.613281-7.613281-7.613281h-77.476563c-2.953124 0-5.640624 1.707031-6.890624 4.378906l-60.445313 128.902344zm0 0" fill="#ff9c43"/></svg>