<svg id="Layer_1" enable-background="new 0 0 512 512" height="512" viewBox="0 0 512 512" width="512" xmlns="http://www.w3.org/2000/svg"><g><path d="m379.762 134.27-69.742 70.11c-10.852 10.9-24.344 18.16-39.017 21.17-4.891 1.01-9.902 1.54-15.003 1.57-.2.01-.4.01-.6.01h-.14c-4.841-.01-9.612-.46-14.262-1.35-15.133-2.86-29.035-10.23-40.117-21.44l-68.841-69.69c-19.733-19.84-26.644-47.79-20.723-73.37 2.25-9.76 6.371-19.17 12.362-27.66 2.51-3.58 5.371-6.99 8.561-10.2 14.863-14.94 34.616-23.17 55.61-23.17 19.903 0 38.656 7.4 53.149 20.91.74.68 1.46 1.37 2.17 2.09l12.832 12.9.04.04 12.952-13.02c.66-.66 1.33-1.31 2.01-1.94 14.603-13.71 33.536-21.23 53.599-21.23 20.913 0 40.557 8.17 55.319 23 3.251 3.27 6.161 6.76 8.711 10.42 5.951 8.52 10.022 17.98 12.202 27.78 5.672 25.46-1.359 53.26-21.072 73.07z" fill="#00da80"/><g><path d="m400.835 61.2c-2.18-9.8-6.251-19.26-12.202-27.78-2.55-3.66-5.461-7.15-8.711-10.42-14.763-14.83-34.406-23-55.32-23-20.063 0-38.997 7.52-53.599 21.23-.68.63-1.35 1.28-2.01 1.94l-12.952 13.02-.04-.04v190.97c5.101-.03 10.112-.56 15.003-1.57 14.672-3.01 28.165-10.27 39.017-21.17l69.742-70.11c19.712-19.81 26.743-47.61 21.072-73.07z" fill="#00b9a0"/></g><path d="m209.013 336.82c-2.71 13.49-9.282 26.35-19.723 36.76l-63.821 63.69c-6.891 6.92-14.922 12.29-23.684 15.93-8.771 3.64-18.253 5.55-28.035 5.55-5.371 0-10.672-.58-15.803-1.7-9.952-2.18-19.303-6.41-27.565-12.5-3.05-2.24-5.951-4.73-8.671-7.47-27.344-27.48-28.594-71.38-3.72-100.23 1.13-1.33 2.32-2.61 3.571-3.87l11.122-11.17-11.192-11.25c-1.2-1.21-2.35-2.44-3.451-3.71-25.104-28.92-24.014-72.93 3.301-100.39 2.78-2.79 5.741-5.33 8.861-7.61 8.291-6.04 17.683-10.22 27.675-12.33 4.941-1.04 10.042-1.58 15.223-1.58 19.643 0 38.126 7.7 52.029 21.67l64.191 64.52c10.122 10.17 16.603 22.61 19.453 35.69 2.159 9.87 2.239 20.11.239 30z" fill="#ace233"/><path d="m493.971 336.8c24.914 28.85 23.674 72.78-3.681 100.28-2.72 2.74-5.621 5.23-8.671 7.47-8.261 6.09-17.613 10.32-27.565 12.5-5.131 1.12-10.432 1.7-15.803 1.7-19.563 0-37.946-7.64-51.759-21.52l-63.781-63.65c-10.442-10.41-17.013-23.27-19.723-36.76-2-9.89-1.92-20.13.24-30 2.85-13.08 9.332-25.52 19.453-35.69l64.191-64.52c6.951-6.98 15.053-12.4 23.864-16.07 8.812-3.67 18.343-5.6 28.165-5.6 5.181 0 10.282.54 15.223 1.58 9.992 2.11 19.383 6.29 27.675 12.33 3.121 2.28 6.081 4.82 8.861 7.61 27.304 27.44 28.395 71.42 3.341 100.34-1.11 1.28-2.27 2.54-3.491 3.76l-11.192 11.25 11.122 11.17c1.23 1.24 2.41 2.51 3.531 3.82z" fill="#00b9a0"/><path d="m493.971 336.8-79.603.01 67.251 107.74c-8.261 6.09-17.613 10.32-27.565 12.5l-75.053-120.24-76.013.01h-31.985v160.18c0 8.29-6.721 15-15.003 15-8.281 0-15.002-6.71-15.002-15v-160.18h-31.985l-76.033.01-75.032 120.22c-9.952-2.18-19.303-6.41-27.565-12.5l67.231-107.71-79.623.01c1.13-1.33 2.32-2.61 3.571-3.87l11.122-11.17-11.192-11.25c-1.2-1.21-2.35-2.44-3.451-3.71l79.563-.01-67.401-107.99c8.291-6.04 17.683-10.22 27.675-12.33l75.093 120.31 75.803-.01h32.225v-163.75l-129.682-81.79c2.25-9.76 6.371-19.17 12.362-27.66l117.32 73.98v-86.44c.74.68 1.46 1.37 2.17 2.09l12.832 12.9.04.04 12.952-13.02c.66-.66 1.33-1.31 2.01-1.94v86.37l117.63-74.18c5.951 8.52 10.022 17.98 12.202 27.78l-129.832 81.87v163.75h32.225l75.813-.01 75.083-120.29c9.992 2.11 19.383 6.29 27.675 12.33l-67.381 107.96 79.583-.01c-1.11 1.28-2.27 2.54-3.491 3.76l-11.192 11.25 11.122 11.17c1.23 1.24 2.41 2.51 3.531 3.82z" fill="#00b9a0"/><path d="m493.971 336.8-79.603.01 67.251 107.74c-8.261 6.09-17.613 10.32-27.565 12.5l-75.053-120.24-76.013.01h-31.985v160.18c0 8.29-6.721 15-15.003 15v-475.85l.04.04 12.952-13.02c.66-.66 1.33-1.31 2.01-1.94v86.37l117.63-74.18c5.951 8.52 10.022 17.98 12.202 27.78l-129.832 81.87v163.75h32.225l75.813-.01 75.083-120.29c9.992 2.11 19.383 6.29 27.675 12.33l-67.381 107.96 79.583-.01c-1.11 1.28-2.27 2.54-3.491 3.76l-11.192 11.25 11.122 11.17c1.231 1.24 2.411 2.51 3.532 3.82z" fill="#009398"/></g></svg>