<svg height="512" viewBox="0 0 64 64" width="512" xmlns="http://www.w3.org/2000/svg"><g id="Icon"><path d="m34.929 5.057a3 3 0 0 0 -2.287-1.057h-1.287a3 3 0 0 0 -2.955 3.486l.617 3.744a1 1 0 0 0 1.11.83 7.041 7.041 0 0 1 .873-.06h2a7.014 7.014 0 0 1 .876.062 1 1 0 0 0 1.111-.83l.613-3.747a3 3 0 0 0 -.671-2.428z" fill="#66bb6a"/><path d="m43.926 30.889a6.778 6.778 0 0 1 -1.926-4.825v-7.064a9.01 9.01 0 0 0 -9-9h-2a9.011 9.011 0 0 0 -9 9v7.07a6.889 6.889 0 0 1 -1.979 4.872 16.853 16.853 0 0 0 -5.021 12.416 17 17 0 0 0 34-.358 16.864 16.864 0 0 0 -5.074-12.111z" fill="#ffe081"/><path d="m41.119 33.739a10.8 10.8 0 0 1 -3.119-7.675v-7.064a5.006 5.006 0 0 0 -5-5h-2a5.006 5.006 0 0 0 -5 5v7.07a10.913 10.913 0 0 1 -3.16 7.71 12.89 12.89 0 0 0 -3.84 9.496 13 13 0 0 0 26-.276 12.9 12.9 0 0 0 -3.881-9.261z" fill="#faa629"/><g fill="#212121"><path d="m32 49.943a1 1 0 0 1 -1-1v-.89a1 1 0 1 1 2 0v.89a1 1 0 0 1 -1 1z"/><path d="m36 46.943a1 1 0 0 1 -1-1v-.89a1 1 0 0 1 2 0v.89a1 1 0 0 1 -1 1z"/><path d="m28 46.943a1 1 0 0 1 -1-1v-.89a1 1 0 0 1 2 0v.89a1 1 0 0 1 -1 1z"/><path d="m32 38.943a1 1 0 0 1 -1-1v-.89a1 1 0 1 1 2 0v.89a1 1 0 0 1 -1 1z"/><path d="m28 41.943a1 1 0 0 1 -1-1v-.89a1 1 0 0 1 2 0v.89a1 1 0 0 1 -1 1z"/><path d="m36 41.943a1 1 0 0 1 -1-1v-.89a1 1 0 0 1 2 0v.89a1 1 0 0 1 -1 1z"/><path d="m31 32.943a1 1 0 0 1 -1-1v-.89a1 1 0 0 1 2 0v.89a1 1 0 0 1 -1 1z"/><path d="m31 22.943a1 1 0 0 1 -1-1v-.89a1 1 0 0 1 2 0v.89a1 1 0 0 1 -1 1z"/><path d="m33 27.943a1 1 0 0 1 -1-1v-.89a1 1 0 0 1 2 0v.89a1 1 0 0 1 -1 1z"/></g></g></svg>