<svg id="Layer_1" enable-background="new 0 0 512 512" height="512" viewBox="0 0 512 512" width="512" xmlns="http://www.w3.org/2000/svg"><g clip-rule="evenodd" fill-rule="evenodd"><path d="m433.634 265.296c-43.13 0-64.77 52.251-34.274 82.745 5.618 5.617 5.618 14.73 0 20.346l-30.972 30.973c-5.619 5.617-14.73 5.617-20.346 0-30.495-30.495-82.746-8.855-82.746 34.274 0 7.948-6.442 14.386-14.386 14.386h-43.8c-7.943 0-14.386-6.438-14.386-14.386 0-43.182-52.213-64.807-82.746-34.274-5.617 5.617-14.729 5.617-20.346 0l-30.973-30.973c-5.618-5.617-5.618-14.729 0-20.346 30.495-30.494 8.855-82.745-34.274-82.745-7.948 0-14.386-6.442-14.386-14.386v-43.8c0-7.945 6.438-14.387 14.386-14.387 43.129 0 64.769-52.25 34.274-82.744-5.618-5.618-5.618-14.729 0-20.346l30.973-30.973c5.617-5.618 14.729-5.618 20.346 0 30.495 30.495 82.746 8.855 82.746-34.274 0-7.948 6.442-14.386 14.386-14.386h43.8c7.944 0 14.386 6.438 14.386 14.386 0 43.13 52.25 64.77 82.746 34.274 5.617-5.618 14.728-5.618 20.346 0l30.972 30.973c5.618 5.617 5.618 14.729 0 20.346-30.495 30.495-8.856 82.744 34.274 82.744 7.948 0 14.386 6.443 14.386 14.387v43.799c0 7.944-6.438 14.387-14.386 14.387z" fill="#e6e6e6"/><path d="m326.329 311.456h39.633v69.377h-39.633z" fill="#656565" transform="matrix(.707 -.707 .707 .707 -143.378 346.146)"/><ellipse cx="229.009" cy="229.008" fill="#ffd54f" rx="141.808" ry="141.808" transform="matrix(.707 -.707 .707 .707 -94.858 229.009)"/><ellipse cx="229.009" cy="229.008" fill="#f2f2f2" rx="102.437" ry="102.437" transform="matrix(.707 -.707 .707 .707 -94.858 229.009)"/><path d="m351.156 372.569 21.414-21.414c7.074-7.074 18.648-7.074 25.721 0l98.405 98.405c7.074 7.074 7.074 18.647 0 25.721l-21.414 21.414c-7.074 7.074-18.647 7.074-25.721 0l-98.405-98.405c-7.074-7.073-7.074-18.648 0-25.721z" fill="#515151"/></g></svg>