<?xml version="1.0" encoding="iso-8859-1"?>
<!-- Generator: Adobe Illustrator 19.0.0, SVG Export Plug-In . SVG Version: 6.00 Build 0)  -->
<svg version="1.1" id="Capa_1" xmlns="http://www.w3.org/2000/svg" xmlns:xlink="http://www.w3.org/1999/xlink" x="0px" y="0px"
	 viewBox="0 0 468.293 468.293" style="enable-background:new 0 0 468.293 468.293;" xml:space="preserve">
<path style="fill:#FCD462;" d="M376.002,168.62c0,43.959-16.859,84.047-44.521,114.019c-12.239,13.3-21.917,28.536-28.536,45.021
	c-5.869,14.424-9.304,29.847-10.053,45.583c-1.312-0.75-2.81-1.124-4.371-1.124H126.233c-1.624,0-3.122,0.437-4.433,1.186
	c-1.499-33.469-15.048-65.377-37.965-89.979C54.8,252.042,37.441,209.831,38.814,163.5C41.375,77.267,110.498,5.646,196.606,0.338
	C294.577-5.781,376.002,71.897,376.002,168.62z"/>
<g>
	<path style="fill:#E1E6E9;" d="M297.887,381.485v4.246c0,5.182-4.183,9.366-9.366,9.366H126.233c-5.182,0-9.366-4.184-9.366-9.366
		v-4.246c0-3.559,1.999-6.681,4.933-8.18c1.311-0.749,2.81-1.186,4.433-1.186H288.52c1.561,0,3.06,0.375,4.371,1.124
		C295.889,374.804,297.887,377.926,297.887,381.485z"/>
	<path style="fill:#E1E6E9;" d="M288.536,441.028H126.203c-5.173,0-9.366-4.193-9.366-9.366v-4.228c0-5.173,4.193-9.366,9.366-9.366
		h162.333c5.173,0,9.366,4.193,9.366,9.366v4.228C297.901,436.834,293.708,441.028,288.536,441.028z"/>
</g>
<g>
	<path style="fill:#D5D6DB;" d="M288.536,418.068H126.203c-5.173,0-9.366-4.193-9.366-9.366v-4.228c0-5.173,4.193-9.366,9.366-9.366
		h162.333c5.173,0,9.366,4.193,9.366,9.366v4.228C297.901,413.875,293.708,418.068,288.536,418.068z"/>
	<path style="fill:#D5D6DB;" d="M145.322,441.028h124.095l-18.373,21.818c-2.908,3.454-7.193,5.447-11.708,5.447h-63.933
		c-4.515,0-8.8-1.993-11.708-5.447L145.322,441.028z"/>
</g>
<path style="fill:#64798A;" d="M358.346,233.343c-37.108-37.108-97.271-37.108-134.379-0.001c-37.109,37.109-37.108,97.272,0,134.38
	c33.414,33.414,85.47,36.635,122.606,9.872l56.852,56.851c5.978,5.977,15.668,5.978,21.647,0c5.977-5.977,5.978-15.669,0-21.647
	l-56.852-56.851C394.981,318.812,391.76,266.757,358.346,233.343z"/>
<path style="fill:#EBF0F3;" d="M342.111,351.489c-28.094,28.094-73.811,28.092-101.908-0.005
	c-28.097-28.097-28.097-73.81-0.003-101.905c28.1-28.099,73.814-28.1,101.911-0.003
	C370.208,277.673,370.211,323.389,342.111,351.489z"/>
<path style="fill:#D5D6DB;" d="M287.967,360.725v-10.601c-13.272-1.353-25.185-6.63-35.727-15.825l10.601-12.634
	c8.131,7.068,16.499,11.275,25.126,12.634v-28.175c-10.944-2.612-18.957-6.051-24.039-10.312
	c-5.082-4.261-7.623-10.578-7.623-18.951s2.919-15.222,8.781-20.552c5.862-5.324,13.485-8.226,22.881-8.71v-7.262h9.289v7.404
	c10.648,0.78,20.718,4.408,30.208,10.897l-9.443,13.361c-6.394-4.55-13.308-7.357-20.765-8.427v27.301h0.437
	c11.133,2.618,19.311,6.152,24.535,10.601c5.236,4.456,7.847,10.92,7.847,19.388c0,8.474-3.002,15.376-9.006,20.694
	c-6.004,5.33-13.934,8.232-23.814,8.716v10.453H287.967z M277.72,266.987c-2.47,2.175-3.699,4.887-3.699,8.131
	s0.969,5.809,2.907,7.694c1.926,1.891,5.614,3.705,11.039,5.448v-25.126C283.606,263.524,280.19,264.806,277.72,266.987z
	 M308.295,330.665c2.706-2.222,4.066-5.029,4.066-8.421c0-3.386-1.064-6.075-3.191-8.06c-2.139-1.986-6.11-3.847-11.913-5.59v26.137
	C301.901,334.252,305.576,332.893,308.295,330.665z"/>
<g>
</g>
<g>
</g>
<g>
</g>
<g>
</g>
<g>
</g>
<g>
</g>
<g>
</g>
<g>
</g>
<g>
</g>
<g>
</g>
<g>
</g>
<g>
</g>
<g>
</g>
<g>
</g>
<g>
</g>
</svg>
