<?xml version="1.0" encoding="iso-8859-1"?>
<!-- Generator: Adobe Illustrator 19.0.0, SVG Export Plug-In . SVG Version: 6.00 Build 0)  -->
<svg version="1.1" id="Capa_1" xmlns="http://www.w3.org/2000/svg" xmlns:xlink="http://www.w3.org/1999/xlink" x="0px" y="0px"
	 viewBox="0 0 512.413 512.413" style="enable-background:new 0 0 512.413 512.413;" xml:space="preserve">
<path style="fill:#CFD8DC;" d="M221.078,343.957l-53.333-52.267c-2.241-2.243-5.382-3.343-8.533-2.987
	c-3.173,0.335-6.03,2.072-7.787,4.736c-25.087,33.716-53.192,65.078-83.968,93.696c-9.045,8.981-19.008,18.197-24.512,18.197
	c-19.691,0-42.667,8.384-42.667,32c-1.374,16.637,7.179,32.522,21.824,40.533c1.222,20.264,18.639,35.7,38.903,34.478
	c1.096-0.066,2.188-0.181,3.273-0.345c17.707,0,42.667-9.92,42.667-32c0-12.011,0.704-17.6,18.219-35.115
	c28.711-31.024,60.281-59.274,94.293-84.373c4.926-3.231,6.301-9.843,3.07-14.769c-0.419-0.638-0.904-1.23-1.449-1.764V343.957z"/>
<path style="fill:#FFB300;" d="M373.612,0C205.334,0,170.945,185.088,170.945,234.667c-0.35,21.135-7.187,41.652-19.584,58.773
	c-1.12,1.706-1.727,3.698-1.749,5.739c0,2.56-0.235,5.077-0.427,7.467c-1.997,9.126,0.066,18.669,5.653,26.155
	c7.398,6.357,17.061,9.437,26.773,8.533c15.851,0,20.395,8.128,21.696,12.992c1.512,5.694,7.354,9.083,13.047,7.571
	c1.077-0.286,2.102-0.739,3.038-1.342c17.03-12.119,37.321-18.818,58.219-19.221c49.557,0,234.667-34.389,234.667-202.667
	C512.278,91.733,449.516,0,373.612,0z"/>
<g>
</g>
<g>
</g>
<g>
</g>
<g>
</g>
<g>
</g>
<g>
</g>
<g>
</g>
<g>
</g>
<g>
</g>
<g>
</g>
<g>
</g>
<g>
</g>
<g>
</g>
<g>
</g>
<g>
</g>
</svg>
