<svg height="512" viewBox="0 0 128 128" width="512" xmlns="http://www.w3.org/2000/svg"><g><path d="m40.07 121 37.883-63.985a3 3 0 0 1 5.163 0l37.884 63.985z" fill="#0af"/><path d="m100.65 86.62-5.27 2.87a2.985 2.985 0 0 1 -2.87 0l-3.84-2.09a3.04 3.04 0 0 0 -2.87 0l-3.83 2.09a2.985 2.985 0 0 1 -2.87 0l-3.83-2.09a3.04 3.04 0 0 0 -2.87 0l-3.84 2.09a2.985 2.985 0 0 1 -2.87 0l-5.27-2.87 17.53-29.6a3 3 0 0 1 5.17 0z" fill="#bfe1ff"/><circle cx="64" cy="27.09" fill="#fdcd00" r="7.825"/><g><path d="m7 121 37.883-63.985a3 3 0 0 1 5.163 0l37.884 63.985z" fill="#4bb9ec"/><path d="m67.58 86.62-5.27 2.87a2.985 2.985 0 0 1 -2.87 0l-3.84-2.09a3.04 3.04 0 0 0 -2.87 0l-3.83 2.09a2.985 2.985 0 0 1 -2.87 0l-3.83-2.09a3.04 3.04 0 0 0 -2.87 0l-3.84 2.09a2.985 2.985 0 0 1 -2.87 0l-5.27-2.87 17.53-29.6a3 3 0 0 1 5.17 0z" fill="#e6f2ff"/></g><g fill="#fdcd00"><path d="m64 14.316a1.75 1.75 0 0 1 -1.75-1.75v-5.566a1.75 1.75 0 0 1 3.5 0v5.566a1.75 1.75 0 0 1 -1.75 1.75z"/><path d="m74.27 18.57a1.75 1.75 0 0 1 -1.237-2.987l1.967-1.968a1.75 1.75 0 1 1 2.474 2.475l-1.968 1.968a1.744 1.744 0 0 1 -1.236.512z"/><path d="m51.762 41.078a1.75 1.75 0 0 1 -1.238-2.987l1.968-1.968a1.75 1.75 0 1 1 2.476 2.477l-1.968 1.965a1.745 1.745 0 0 1 -1.238.513z"/><path d="m76.238 41.078a1.745 1.745 0 0 1 -1.238-.513l-1.968-1.965a1.75 1.75 0 0 1 2.476-2.474l1.968 1.968a1.75 1.75 0 0 1 -1.238 2.987z"/><path d="m53.73 18.57a1.744 1.744 0 0 1 -1.237-.512l-1.968-1.968a1.75 1.75 0 1 1 2.475-2.475l1.968 1.968a1.75 1.75 0 0 1 -1.238 2.987z"/><path d="m64 48.93a1.751 1.751 0 0 1 -1.75-1.75v-5.566a1.75 1.75 0 0 1 3.5 0v5.566a1.751 1.751 0 0 1 -1.75 1.75z"/><path d="m84.09 28.84h-5.566a1.75 1.75 0 0 1 0-3.5h5.566a1.75 1.75 0 0 1 0 3.5z"/><path d="m49.476 28.84h-5.566a1.75 1.75 0 0 1 0-3.5h5.566a1.75 1.75 0 0 1 0 3.5z"/></g></g></svg>