<svg height="512" viewBox="0 0 128 128" width="512" xmlns="http://www.w3.org/2000/svg"><g><path d="m64 6.306a30.714 30.714 0 0 0 -30.714 30.714c-.178 29.303 30.714 65.643 30.714 65.643s30.892-36.34 30.714-65.643a30.714 30.714 0 0 0 -30.714-30.714z" fill="#f45858"/><path d="m77.276 84.289a182.919 182.919 0 0 1 -13.276 18.374 182.919 182.919 0 0 1 -13.274-18.374c-21.646 2.185-37.575 9.583-37.575 18.374 0 10.51 22.767 19.031 50.851 19.031s50.851-8.521 50.851-19.031c-.002-8.791-15.931-16.19-37.577-18.374z" fill="#3ea2e5"/><circle cx="64" cy="37.02" fill="#3ea2e5" r="7.855"/><path d="m49.473 113.292a1.9 1.9 0 0 1 -.225-.014c-8.248-1.054-14.973-2.978-18.937-5.415a1.75 1.75 0 1 1 1.833-2.982c3.5 2.151 9.9 3.946 17.548 4.925a1.75 1.75 0 0 1 -.219 3.486z" fill="#1892d6"/><path d="m64 114.178c-1.56 0-3.124-.029-4.648-.085a1.75 1.75 0 1 1 .129-3.5c2.447.091 5 .106 7.457.049a1.729 1.729 0 0 1 1.791 1.707 1.749 1.749 0 0 1 -1.707 1.791q-1.494.038-3.022.038z" fill="#1892d6"/><g fill="#dfeef4"><path d="m75.049 49.819a1.75 1.75 0 0 1 -1.237-2.987 13.893 13.893 0 0 0 0-19.624 1.75 1.75 0 0 1 2.474-2.475 17.394 17.394 0 0 1 0 24.574 1.746 1.746 0 0 1 -1.237.512z"/><path d="m52.951 49.819a1.748 1.748 0 0 1 -1.238-.512 17.4 17.4 0 0 1 0-24.574 1.75 1.75 0 1 1 2.475 2.475 13.893 13.893 0 0 0 0 19.624 1.75 1.75 0 0 1 -1.237 2.987z"/><path d="m80.346 55.116a1.75 1.75 0 0 1 -1.238-2.987 21.392 21.392 0 0 0 0-30.217 1.75 1.75 0 1 1 2.475-2.474 24.9 24.9 0 0 1 0 35.166 1.746 1.746 0 0 1 -1.237.512z"/><path d="m47.654 55.116a1.746 1.746 0 0 1 -1.237-.512 24.9 24.9 0 0 1 0-35.166 1.75 1.75 0 0 1 2.475 2.474 21.392 21.392 0 0 0 0 30.217 1.75 1.75 0 0 1 -1.238 2.987z"/></g></g></svg>