<?xml version="1.0" encoding="iso-8859-1"?>
<!-- Generator: Adobe Illustrator 19.0.0, SVG Export Plug-In . SVG Version: 6.00 Build 0)  -->
<svg version="1.1" id="Capa_1" xmlns="http://www.w3.org/2000/svg" xmlns:xlink="http://www.w3.org/1999/xlink" x="0px" y="0px"
	 viewBox="0 0 512 512" style="enable-background:new 0 0 512 512;" xml:space="preserve">
<path style="fill:#2196F3;" d="M458.667,84.444h-256c-29.455,0-53.333,23.878-53.333,53.333v170.667
	c0,5.891,4.776,10.667,10.667,10.667h298.667c29.455,0,53.333-23.878,53.333-53.333v-128C512,108.322,488.122,84.444,458.667,84.444
	L458.667,84.444z"/>
<rect x="149.333" y="137.756" style="fill:#455A64;" width="362.667" height="42.667"/>
<g>
	<path style="fill:#FAFAFA;" d="M394.667,276.444c-5.891,0.011-10.675-4.757-10.686-10.648c-0.005-2.84,1.123-5.565,3.134-7.571
		l64-64c4.093-4.237,10.845-4.355,15.083-0.262c4.237,4.093,4.354,10.845,0.262,15.083c-0.086,0.089-0.173,0.176-0.262,0.262l-64,64
		C400.202,275.31,397.493,276.438,394.667,276.444z"/>
	<path style="fill:#FAFAFA;" d="M395.093,212.444c-5.891,0-10.667-4.776-10.667-10.667c0-5.85,4.711-10.608,10.56-10.667h0.213
		c5.891,0,10.667,4.776,10.667,10.667c0,5.891-4.776,10.667-10.667,10.667H395.093z"/>
	<path style="fill:#FAFAFA;" d="M459.093,276.444c-5.891,0-10.667-4.776-10.667-10.667c0-5.85,4.711-10.608,10.56-10.667h0.213
		c5.891,0,10.667,4.776,10.667,10.667c0,5.891-4.776,10.667-10.667,10.667H459.093z"/>
	<path style="fill:#FAFAFA;" d="M352,233.777h-53.333c-5.891,0-10.667-4.776-10.667-10.667c0-5.891,4.776-10.667,10.667-10.667H352
		c5.891,0,10.667,4.776,10.667,10.667C362.667,229.002,357.891,233.777,352,233.777z"/>
	<path style="fill:#FAFAFA;" d="M352,276.444h-64c-5.891,0-10.667-4.776-10.667-10.667c0-5.891,4.776-10.667,10.667-10.667h64
		c5.891,0,10.667,4.776,10.667,10.667C362.667,271.668,357.891,276.444,352,276.444z"/>
</g>
<path style="fill:#FFE082;" d="M373.333,340.807h-64.832l-47.979,3.776c-17.496,2.498-33.704-9.66-36.201-27.156
	c-0.213-1.491-0.32-2.996-0.321-4.503c-0.018-7.354,2.314-14.522,6.656-20.459l33.557-46.123
	c10.771-16.41,6.201-38.444-10.209-49.215c-14.01-9.196-32.54-7.356-44.469,4.415l-54.08,54.059
	c-28.544,1.532-54.051,18.317-66.752,43.925c-0.328,0.683-0.586,1.398-0.768,2.133l-23.573,89.387
	c-1.507,5.695,1.889,11.533,7.584,13.04c0.362,0.096,0.729,0.172,1.099,0.23l137.365,21.056c6.926,1.519,14.011,2.185,21.099,1.984
	c21.932,1.293,43.778-3.695,62.976-14.379l84.48-52.437c5.007-3.103,6.551-9.678,3.448-14.686
	C380.466,342.712,377.03,340.802,373.333,340.807z"/>
<path style="fill:#546E7A;" d="M10.667,426.14C4.776,426.14,0,421.364,0,415.473V266.14c0.003-2.975,1.248-5.813,3.435-7.829
	c2.161-2.048,5.099-3.067,8.064-2.795c12.053,0.939,73.152,6.528,91.733,24.235c2.406,2.203,3.671,5.386,3.435,8.64
	c-3.67,36.962-10.987,73.471-21.845,108.992c-0.811,2.543-2.547,4.69-4.864,6.016C58.702,415.733,35.098,423.48,10.667,426.14z"/>
<g>
</g>
<g>
</g>
<g>
</g>
<g>
</g>
<g>
</g>
<g>
</g>
<g>
</g>
<g>
</g>
<g>
</g>
<g>
</g>
<g>
</g>
<g>
</g>
<g>
</g>
<g>
</g>
<g>
</g>
</svg>
