<svg height="511pt" viewBox="1 -2 511.99909 511" width="511pt" xmlns="http://www.w3.org/2000/svg"><path d="m431.371094 181.570312c0-96.855468-78.515625-175.371093-175.371094-175.371093s-175.371094 78.515625-175.371094 175.371093c0 75.636719 47.882813 140.085938 114.988282 164.695313v58c0 20.054687 16.257812 36.3125 36.308593 36.3125h48.148438c20.050781 0 36.308593-16.257813 36.308593-36.3125v-58c67.105469-24.609375 114.988282-89.058594 114.988282-164.695313zm0 0" fill="#ffe469"/><g fill="#ffda30"><path d="m256 6.199219c-6.820312 0-13.542969.402343-20.15625 1.160156 87.355469 10 155.210938 84.175781 155.210938 174.210937 0 75.636719-47.882813 140.085938-114.988282 164.695313v58c0 20.054687-16.257812 36.3125-36.308594 36.3125h40.3125c20.054688 0 36.3125-16.257813 36.3125-36.3125v-58c67.105469-24.609375 114.988282-89.058594 114.988282-164.695313 0-96.855468-78.515625-175.371093-175.371094-175.371093zm0 0"/><path d="m86.089844 2.777344c-2.917969-2.988282-7.703125-3.042969-10.6875-.125-2.988282 2.914062-3.046875 7.703125-.128906 10.6875l29.578124 30.289062c1.480469 1.515625 3.441407 2.277344 5.40625 2.277344 1.90625 0 3.8125-.714844 5.28125-2.152344 2.988282-2.914062 3.042969-7.703125.128907-10.6875zm0 0"/><path d="m37.238281 65.933594 36.40625 21.601562c1.210938.71875 2.539063 1.0625 3.851563 1.0625 2.582031 0 5.09375-1.324218 6.507812-3.703125 2.132813-3.59375.949219-8.230469-2.644531-10.359375l-36.40625-21.601562c-3.589844-2.128906-8.230469-.945313-10.359375 2.640625-2.128906 3.59375-.945312 8.230469 2.644531 10.359375zm0 0"/><path d="m14.113281 126.578125 40.757813 11.445313c.679687.191406 1.367187.28125 2.046875.28125 3.300781 0 6.335937-2.179688 7.273437-5.515626 1.128906-4.019531-1.21875-8.195312-5.234375-9.324218l-40.757812-11.441406c-4.019531-1.132813-8.195313 1.214843-9.320313 5.234374-1.128906 4.019532 1.214844 8.191407 5.234375 9.320313zm0 0"/><path d="m49.890625 191.648438c4.132813 0 7.507813-3.324219 7.558594-7.46875.046875-4.175782-3.296875-7.597657-7.46875-7.648438l-42.332031-.503906c-.03125 0-.0625 0-.089844 0-4.132813 0-7.5078128 3.324218-7.558594 7.46875-.0507812 4.175781 3.296875 7.597656 7.46875 7.648437l42.332031.503907zm0 0"/><path d="m64.238281 235.566406c-1.035156-4.046875-5.148437-6.488281-9.195312-5.453125l-41.019531 10.46875c-4.042969 1.03125-6.488282 5.148438-5.453126 9.191407.871094 3.417968 3.945313 5.691406 7.316407 5.691406.621093 0 1.25-.074219 1.875-.234375l41.019531-10.472657c4.046875-1.03125 6.488281-5.148437 5.457031-9.191406zm0 0"/><path d="m84.09375 283.441406c-2.042969-3.636718-6.652344-4.929687-10.292969-2.886718l-36.910156 20.730468c-3.640625 2.042969-4.933594 6.652344-2.890625 10.289063 1.386719 2.472656 3.953125 3.859375 6.597656 3.859375 1.253906 0 2.523438-.3125 3.695313-.96875l36.910156-20.730469c3.640625-2.042969 4.933594-6.652344 2.890625-10.292969zm0 0"/><path d="m104.976562 324.421875-30.289062 29.578125c-2.988281 2.917969-3.042969 7.703125-.125 10.6875 1.480469 1.519531 3.441406 2.28125 5.40625 2.28125 1.90625 0 3.8125-.71875 5.28125-2.152344l30.289062-29.578125c2.988282-2.914062 3.042969-7.703125.128907-10.6875-2.917969-2.988281-7.707031-3.042969-10.691407-.128906zm0 0"/><path d="m407.152344 324.550781c-2.917969-2.988281-7.707032-3.042969-10.691406-.128906-2.988282 2.917969-3.042969 7.703125-.128907 10.691406l29.578125 30.289063c1.480469 1.515625 3.445313 2.277344 5.410156 2.277344 1.902344 0 3.808594-.714844 5.277344-2.152344 2.988282-2.914063 3.046875-7.703125.128906-10.6875zm0 0"/><path d="m474.761719 302.246094-36.410157-21.601563c-3.589843-2.128906-8.226562-.945312-10.355468 2.640625-2.132813 3.59375-.945313 8.230469 2.644531 10.359375l36.40625 21.601563c1.210937.71875 2.539063 1.058594 3.847656 1.058594 2.582031 0 5.097657-1.320313 6.511719-3.703126 2.128906-3.589843.945312-8.226562-2.644531-10.355468zm0 0"/><path d="m497.886719 241.601562-40.753907-11.445312c-4.019531-1.128906-8.195312 1.214844-9.324218 5.234375s1.21875 8.191406 5.234375 9.320313l40.757812 11.445312c.683594.191406 1.371094.28125 2.046875.28125 3.304688 0 6.339844-2.179688 7.273438-5.515625 1.128906-4.019531-1.214844-8.191406-5.234375-9.320313zm0 0"/><path d="m504.53125 177.035156-42.332031-.503906c-.03125 0-.0625 0-.089844 0-4.132813 0-7.507813 3.324219-7.558594 7.46875-.050781 4.175781 3.292969 7.597656 7.46875 7.648438l42.332031.503906h.089844c4.132813 0 7.507813-3.324219 7.558594-7.46875.050781-4.175782-3.296875-7.597656-7.46875-7.648438zm0 0"/><path d="m447.761719 132.613281c.875 3.417969 3.949219 5.691407 7.320312 5.691407.617188 0 1.246094-.074219 1.875-.234376l41.019531-10.472656c4.042969-1.03125 6.484376-5.148437 5.453126-9.191406-1.03125-4.046875-5.144532-6.488281-9.195313-5.453125l-41.015625 10.46875c-4.046875 1.03125-6.488281 5.148437-5.457031 9.191406zm0 0"/><path d="m427.90625 84.738281c1.386719 2.46875 3.953125 3.855469 6.597656 3.855469 1.253906 0 2.523438-.3125 3.695313-.96875l36.910156-20.726562c3.640625-2.046876 4.933594-6.652344 2.890625-10.292969-2.046875-3.640625-6.652344-4.933594-10.292969-2.890625l-36.910156 20.730468c-3.640625 2.042969-4.933594 6.648438-2.890625 10.292969zm0 0"/><path d="m401.742188 45.90625c1.90625 0 3.8125-.714844 5.28125-2.152344l30.289062-29.574218c2.984375-2.917969 3.042969-7.703126.125-10.691407-2.917969-2.984375-7.703125-3.039062-10.6875-.125l-30.289062 29.574219c-2.988282 2.917969-3.042969 7.703125-.128907 10.691406 1.484375 1.519532 3.445313 2.277344 5.410157 2.277344zm0 0"/></g><path d="m299.308594 253c-2.855469-3.046875-7.636719-3.199219-10.683594-.347656l-25.0625 23.5v-102.644532c0-4.175781-3.382812-7.558593-7.558594-7.558593-4.175781 0-7.558594 3.382812-7.558594 7.558593v102.652344l-25.070312-23.507812c-3.046875-2.851563-7.832031-2.699219-10.6875.347656-2.855469 3.042969-2.699219 7.828125.34375 10.683594l35.414062 33.203125v97.332031c0 4.175781 3.382813 7.558594 7.558594 7.558594 4.171875 0 7.558594-3.382813 7.558594-7.558594v-97.34375l35.402344-33.191406c3.046875-2.855469 3.199218-7.640625.34375-10.683594zm0 0" fill="#49cb5c"/><path d="m164.796875 245.035156c18.371094 18.371094 45.996094 22.183594 58.003906 22.957032 3.257813.210937 5.949219-2.480469 5.738281-5.738282-.773437-12.011718-4.582031-39.632812-22.957031-58.007812-18.375-18.371094-45.996093-22.183594-58.007812-22.957032-3.257813-.210937-5.949219 2.480469-5.738281 5.738282.777343 12.011718 4.585937 39.632812 22.960937 58.007812zm0 0" fill="#09a66d"/><path d="m228.539062 262.253906c-.773437-12.011718-4.582031-39.632812-22.957031-58.007812s-45.996093-22.183594-58.007812-22.957032c-3.066407-.199218-5.628907 2.175782-5.742188 5.167969 10.445313 3.375 21.558594 8.859375 30.488281 17.789063 18.375 18.371094 22.183594 45.996094 22.960938 58.003906.011719.191406.011719.382812.003906.570312 11.046875 3.566407 21.34375 4.773438 27.515625 5.171876 3.257813.210937 5.949219-2.480469 5.738281-5.738282zm0 0" fill="#028f5d"/><path d="m347.203125 245.035156c-18.355469 18.355469-45.945313 22.175782-57.972656 22.953125-3.273438.214844-5.980469-2.492187-5.769531-5.769531.777343-12.027344 4.597656-39.617188 22.957031-57.972656 18.355469-18.355469 45.945312-22.175782 57.972656-22.953125 3.273437-.214844 5.980469 2.492187 5.769531 5.769531-.78125 12.027344-4.597656 39.613281-22.957031 57.972656zm0 0" fill="#09a66d"/><path d="m364.390625 181.289062c-7.007813.457032-19.292969 1.949219-31.957031 6.738282-1.480469 13.558594-6.378906 36.835937-22.519532 52.976562-7.664062 7.664063-16.9375 12.785156-26.015624 16.21875-.203126 1.863282-.34375 3.546875-.4375 4.996094-.210938 3.277344 2.496093 5.984375 5.769531 5.773438 12.027343-.78125 39.617187-4.601563 57.972656-22.957032 18.359375-18.355468 22.175781-45.945312 22.957031-57.972656.210938-3.277344-2.496094-5.984375-5.769531-5.773438zm0 0" fill="#028f5d"/><path d="m284.84375 138.71875c0 26.136719-17.035156 48.46875-24.921875 57.40625-2.078125 2.355469-5.757813 2.355469-7.835937 0-7.886719-8.9375-24.921876-31.269531-24.921876-57.40625s17.035157-48.472656 24.921876-57.410156c2.078124-2.355469 5.761718-2.355469 7.835937 0 7.886719 8.9375 24.921875 31.273437 24.921875 57.410156zm0 0" fill="#09a66d"/><path d="m259.921875 81.308594c-2.078125-2.355469-5.757813-2.355469-7.835937 0-3.28125 3.71875-8.148438 9.765625-12.710938 17.433594 6.402344 10.757812 12.210938 24.714843 12.210938 39.976562 0 15.257812-5.808594 29.214844-12.210938 39.972656 4.5625 7.667969 9.429688 13.714844 12.710938 17.433594 2.078124 2.355469 5.761718 2.355469 7.835937 0 7.886719-8.9375 24.921875-31.269531 24.921875-57.40625s-17.035156-48.472656-24.921875-57.410156zm0 0" fill="#028f5d"/><path d="m280.070312 507.097656h-48.144531c-20.054687 0-36.308593-16.257812-36.308593-36.3125v-59.03125c0-20.054687 16.253906-36.3125 36.308593-36.3125h48.144531c20.054688 0 36.3125 16.257813 36.3125 36.3125v59.03125c0 20.054688-16.257812 36.3125-36.3125 36.3125zm0 0" fill="#f0f0f0"/><path d="m280.070312 375.441406h-44.34375c20.050782 0 36.308594 16.257813 36.308594 36.3125v59.03125c0 20.054688-16.257812 36.3125-36.308594 36.3125h44.34375c20.054688 0 36.3125-16.257812 36.3125-36.3125v-59.03125c0-20.054687-16.257812-36.3125-36.3125-36.3125zm0 0" fill="#e8e8e8"/><path d="m333.398438 402.566406-144.867188 8.585938c-9.699219.574218-17.90625-7.089844-18-16.808594-.082031-9.054688 6.949219-16.585938 15.988281-17.121094l144.867188-8.585937c9.699219-.578125 17.90625 7.085937 18 16.804687.082031 9.054688-6.949219 16.589844-15.988281 17.125zm0 0" fill="#9e9e9e"/><path d="m333.398438 470.929688-144.867188 8.585937c-9.699219.574219-17.90625-7.089844-18-16.808594-.082031-9.054687 6.949219-16.585937 15.988281-17.121093l144.867188-8.585938c9.699219-.578125 17.90625 7.085938 18 16.804688.082031 9.058593-6.949219 16.589843-15.988281 17.125zm0 0" fill="#9e9e9e"/><path d="m333.398438 470.929688-144.867188 8.585937c-9.699219.574219-17.90625-7.089844-18-16.808594-.082031-9.054687 6.949219-16.585937 15.988281-17.121093l144.867188-8.585938c9.699219-.578125 17.90625 7.085938 18 16.804688.082031 9.058593-6.949219 16.589843-15.988281 17.125zm0 0" fill="#9e9e9e"/></svg>