<?xml version="1.0" encoding="iso-8859-1"?>
<!-- Generator: Adobe Illustrator 19.0.0, SVG Export Plug-In . SVG Version: 6.00 Build 0)  -->
<svg version="1.1" id="Capa_1" xmlns="http://www.w3.org/2000/svg" xmlns:xlink="http://www.w3.org/1999/xlink" x="0px" y="0px"
	 viewBox="0 0 512 512" style="enable-background:new 0 0 512 512;" xml:space="preserve">
<path style="fill:#E4EAF8;" d="M339.004,0H132.427L15.894,116.534v380.351c0,8.348,6.767,15.115,15.115,15.115h307.29
	c8.575,0,15.527-6.952,15.527-15.527v-45.311V300.6v-79.103V126.8V14.821C353.825,6.636,347.19,0,339.004,0z"/>
<g>
	<path style="fill:#D8DCE5;" d="M36.671,95.757l-20.777,20.777v380.351c0,8.348,6.767,15.115,15.115,15.115h5.662V95.757z"/>
	<path style="fill:#D8DCE5;" d="M117.607,116.534H15.894L132.427,0v101.712C132.427,109.898,125.793,116.534,117.607,116.534z"/>
</g>
<polygon style="fill:#C3C8D1;" points="132.427,21.308 132.427,0 15.894,116.534 37.203,116.534 "/>
<rect x="257.639" y="55.625" transform="matrix(-0.7071 -0.7071 0.7071 -0.7071 306.9832 587.6539)" style="fill:#9E6B57;" width="35.12" height="349.247"/>
<rect x="259.91" y="50.16" transform="matrix(-0.7071 -0.7071 0.7071 -0.7071 301.515 574.4575)" style="fill:#8C5A4B;" width="19.644" height="349.247"/>
<rect x="281.56" y="78.732" transform="matrix(-0.7071 -0.7071 0.7071 -0.7071 330.0809 643.4344)" style="fill:#AD7B64;" width="33.48" height="349.247"/>
<path style="fill:#D8DCE5;" d="M139.305,341.319l-29.745,67.962c-2.915,6.661,2.469,12.046,9.131,9.131l67.962-29.745
	L139.305,341.319z"/>
<path style="fill:#C3C8D1;" d="M153.182,355.196l-13.877-13.877l-29.745,67.962c-2.915,6.661,2.469,12.046,9.131,9.131l8.44-3.694
	L153.182,355.196z"/>
<path style="fill:#707487;" d="M125.793,372.195l-16.231,37.087c-2.915,6.662,2.47,12.047,9.131,9.131l37.087-16.231
	L125.793,372.195z"/>
<path style="fill:#5E6377;" d="M118.693,418.412l8.44-3.694l12.538-28.646l-13.877-13.877l-16.231,37.086
	c-2.692,6.152,1.698,11.199,7.632,9.642C117.685,418.794,118.183,418.635,118.693,418.412z"/>
<path style="fill:#FF5050;" d="M480.178,62.962l-15.166-15.166c-8.887-8.887-23.295-8.887-32.182,0l-17.571,17.571l47.348,47.348
	l17.571-17.571C489.065,86.257,489.065,71.849,480.178,62.962z"/>
<path style="fill:#ED3A3A;" d="M447.163,61.436c7.139-7.139,17.651-8.824,26.401-5.089l-8.552-8.552
	c-8.887-8.887-23.295-8.887-32.182,0l-17.571,17.571l13.987,13.987L447.163,61.436z"/>
<path style="fill:#00C3FF;" d="M492.522,161.904L206.848,447.578c-1.323,1.323-0.386,3.584,1.485,3.584h279.831
	c4.387,0,7.943-3.556,7.943-7.942V163.389C496.105,161.518,493.844,160.581,492.522,161.904z M449.203,400.713
	c0,1.959-1.588,3.547-3.547,3.547H320.674c-0.835,0-1.254-1.01-0.663-1.6l127.591-127.591c0.591-0.591,1.601-0.173,1.601,0.663
	v124.981H449.203z"/>
<path style="fill:#00AAF0;" d="M496.105,186.652v-23.263c0-1.871-2.261-2.807-3.584-1.485L206.848,447.578
	c-1.323,1.322-0.386,3.584,1.484,3.584h23.263L496.105,186.652z"/>
<g>
	<path style="fill:#5BDDFC;" d="M472.866,299.542c0,4.268,3.459,7.727,7.727,7.727h15.513v-15.454h-15.513
		C476.325,291.815,472.866,295.274,472.866,299.542z"/>
	<path style="fill:#5BDDFC;" d="M472.866,246.152c0,4.268,3.459,7.727,7.727,7.727h15.513v-15.454h-15.513
		C476.325,238.426,472.866,241.884,472.866,246.152z"/>
	<path style="fill:#5BDDFC;" d="M472.866,352.932c0,4.268,3.459,7.727,7.727,7.727h15.513v-15.454h-15.513
		C476.325,345.205,472.866,348.664,472.866,352.932z"/>
	<path style="fill:#5BDDFC;" d="M496.105,398.596h-15.513c-4.267,0-7.727,3.459-7.727,7.727s3.459,7.727,7.727,7.727h15.513V398.596
		z"/>
</g>
<rect x="391.149" y="82.456" transform="matrix(-0.7071 -0.7071 0.7071 -0.7071 651.8127 476.6754)" style="fill:#E4EAF8;" width="66.96" height="41.774"/>
<rect x="398.058" y="65.773" transform="matrix(-0.7071 -0.7071 0.7071 -0.7071 635.115 436.3923)" style="fill:#D8DCE5;" width="19.758" height="41.774"/>
<g>
</g>
<g>
</g>
<g>
</g>
<g>
</g>
<g>
</g>
<g>
</g>
<g>
</g>
<g>
</g>
<g>
</g>
<g>
</g>
<g>
</g>
<g>
</g>
<g>
</g>
<g>
</g>
<g>
</g>
</svg>
