<svg height="512" viewBox="0 0 48 48" width="512" xmlns="http://www.w3.org/2000/svg"><g id="notepad"><path d="m9 3h30v6h-30z" fill="#7c7d7d"/><path d="m39 3v4h-24a4 4 0 0 1 -4-4z" fill="#919191"/><path d="m9 9h30v38h-30z" fill="#dad7e5"/><path d="m39 9v36h-22a6 6 0 0 1 -6-6v-30z" fill="#edebf2"/><g fill="#dad7e5"><path d="m33 5v-4a1 1 0 0 1 2 0v4a1 1 0 0 1 -2 0z"/><path d="m29 5v-4a1 1 0 0 1 2 0v4a1 1 0 0 1 -2 0z"/><path d="m25 5v-4a1 1 0 0 1 2 0v4a1 1 0 0 1 -2 0z"/><path d="m21 5v-4a1 1 0 0 1 2 0v4a1 1 0 0 1 -2 0z"/><path d="m17 5v-4a1 1 0 0 1 2 0v4a1 1 0 0 1 -2 0z"/><path d="m13 5v-4a1 1 0 0 1 2 0v4a1 1 0 0 1 -2 0z"/></g><g fill="#c6c3d8"><path d="m34 16h-20a1 1 0 0 1 0-2h20a1 1 0 0 1 0 2z"/><path d="m34 21h-20a1 1 0 0 1 0-2h20a1 1 0 0 1 0 2z"/><path d="m34 26h-20a1 1 0 0 1 0-2h20a1 1 0 0 1 0 2z"/><path d="m34 31h-20a1 1 0 0 1 0-2h20a1 1 0 0 1 0 2z"/><path d="m34 36h-20a1 1 0 0 1 0-2h20a1 1 0 0 1 0 2z"/><path d="m34 41h-20a1 1 0 0 1 0-2h20a1 1 0 0 1 0 2z"/></g></g></svg>