<svg id="Layer_1" enable-background="new 0 0 1600 1600" height="512" viewBox="0 0 1600 1600" width="512" xmlns="http://www.w3.org/2000/svg"><g><g><g><g><path d="m540.2 1008c-4.2 0-8.5-1.6-11.7-4.8l-293.1-293.2c-6.5-6.5-6.5-16.9 0-23.4s16.9-6.5 23.4 0l293.2 293.2c6.5 6.4 6.5 16.9 0 23.4-3.3 3.2-7.6 4.8-11.8 4.8z" fill="#d3aa84"/></g><g><path d="m336.6 804.5h-110.3c-9.1 0-16.5-7.4-16.5-16.5s7.4-16.5 16.5-16.5h93.8v-93.8c0-9.1 7.4-16.5 16.5-16.5s16.5 7.4 16.5 16.5v110.3c0 9.1-7.3 16.5-16.5 16.5z" fill="#d3aa84"/></g></g><g><g><path d="m1055.5 1024.9c-4.2 0-8.4-1.6-11.7-4.8-6.4-6.4-6.4-16.9 0-23.4l310-310c6.4-6.5 16.9-6.5 23.4 0s6.4 16.9 0 23.4l-310 310c-3.3 3.2-7.5 4.8-11.7 4.8z" fill="#d3aa84"/></g><g><path d="m1386.3 804.5h-110.3c-9.1 0-16.5-7.4-16.5-16.5v-110.4c0-9.1 7.4-16.5 16.5-16.5s16.5 7.4 16.5 16.5v93.8h93.8c9.1 0 16.5 7.4 16.5 16.5 0 9.2-7.4 16.6-16.5 16.6z" fill="#d3aa84"/></g></g></g><g><g><g><path d="m597.6 688.3c-28.6-41.1-45.4-91.1-45.4-145 0-82.1 39-155.1 99.4-201.5v-63.8h309.4v63.8c60.4 46.4 99.4 119.4 99.4 201.5 0 53.9-16.8 103.9-45.4 145v69.8h-417.4z" fill="#eeeeec"/></g></g></g><path d="m1029.6 793c117.9 74.3 196.3 205.7 196.3 355.3 0 231.8-187.9 419.6-419.6 419.6-231.8 0-419.6-187.9-419.6-419.6 0-149.7 78.3-281 196.3-355.3v-51.3h446.7v51.3z" fill="#eeeeec"/><g><g fill="#35495e"><circle cx="739" cy="465.6" r="25.6"/><circle cx="873.6" cy="465.6" r="25.6"/></g></g><g fill="#f85d68"><ellipse cx="806.3" cy="1116.4" rx="28.2" ry="28.2" transform="matrix(.924 -.383 .383 .924 -365.85 393.53)"/><ellipse cx="806.3" cy="1236.9" rx="28.2" ry="28.2" transform="matrix(.924 -.383 .383 .924 -411.967 402.703)"/><ellipse cx="806.3" cy="1357.4" rx="28.2" ry="28.2" transform="matrix(.924 -.383 .383 .924 -458.088 411.877)"/></g><g><path d="m806.3 631.5c-25.3 0-50.3-11.2-70.3-31.5-6.4-6.5-6.3-17 .2-23.4s17-6.3 23.4.2c14 14.2 30.2 21.7 46.8 21.7 16.7 0 32.8-7.5 46.8-21.7 6.4-6.5 16.9-6.6 23.4-.2s6.6 16.9.2 23.4c-20.2 20.3-45.2 31.5-70.5 31.5z" fill="#35495e"/></g><g><g><path d="m963.6 1068.3-1 130.3" fill="none"/><path d="m962.6 1210.9c-6.9-.1-12.4-5.6-12.4-12.5l1-130.2c.1-6.8 5.6-12.3 12.4-12.3h.1c6.8.1 12.3 5.6 12.3 12.5l-1 130.2c0 6.9-5.6 12.3-12.4 12.3z" fill="#39a38c"/></g><g><path d="m1021.1 1069-1 130.4" fill="none"/><path d="m1020.1 1211.8c-6.9-.1-12.4-5.6-12.4-12.5l1-130.4c.1-6.8 5.6-12.3 12.4-12.3h.1c6.8.1 12.3 5.6 12.3 12.5l-1 130.4c-.1 6.8-5.6 12.3-12.4 12.3z" fill="#39a38c"/></g></g><path d="m989.5 341.7h-366.4c-24.9 0-45.1-20.2-45.1-45.1v-9.9c0-24.9 20.2-45.1 45.1-45.1h366.5c24.9 0 45.1 20.2 45.1 45.1v9.9c-.1 24.9-20.3 45.1-45.2 45.1z" fill="#3f5c6c"/><path d="m972.1 241.7h-331.6v-126.5c0-44.2 35.8-80 80-80h171.5c44.2 0 80 35.8 80 80v126.5z" fill="#35495e"/><g fill="#eeeeec"><circle cx="1190.5" cy="544.1" r="29.1"/><circle cx="1344.8" cy="413.5" r="29.1"/><circle cx="1181.7" cy="330.5" r="29.1"/><circle cx="1305" cy="185.1" r="29.1"/><circle cx="1161.4" cy="90.2" r="29.1"/><circle cx="475.5" cy="156" r="29.1"/><circle cx="247" cy="61.1" r="29.1"/><circle cx="446.4" cy="370.8" r="29.1"/><circle cx="324.4" cy="231.4" r="29.1"/><circle cx="226.3" cy="413.5" r="29.1"/><circle cx="353.5" cy="515" r="29.1"/></g><path d="m841.4 835.2c58.5 89.9 89.6 195.5 88.7 303.7l24.8.2 71.8.6 28.8.2c.9-114.8-27.5-227.3-81.6-327v-74.4h-132.5z" fill="#3fb39a"/><path d="m634.5 691.6c110.9 40.6 232.7 40.6 343.6 0 30.3-11 65.8-.9 80.8 26.9 14.9 27.7-2.9 66.1-41.5 80.2-136.2 49.9-285.9 49.9-422.1 0-38.6-14.1-56.5-52.6-41.5-80.2 14.8-27.8 50.4-37.9 80.7-26.9z" fill="#44c2a7"/></g></svg>