<svg id="Capa_1" enable-background="new 0 0 512 512" height="512" viewBox="0 0 512 512" width="512" xmlns="http://www.w3.org/2000/svg"><g><path d="m398.319 0h-284.638c-23.818 0-43.305 19.487-43.305 43.305v425.39c0 23.818 19.487 43.305 43.305 43.305h284.638c23.818 0 43.305-19.487 43.305-43.305v-425.389c0-23.819-19.487-43.306-43.305-43.306z" fill="#dfebfa"/><path d="m105.058 468.695v-425.39c0-23.818 19.488-43.305 43.305-43.305h-34.683c-23.817 0-43.304 19.487-43.304 43.305v425.39c0 23.818 19.487 43.305 43.305 43.305h34.683c-23.818 0-43.306-19.487-43.306-43.305z" fill="#b1dbfc"/><path d="m397.364 33.752h-282.728c-5.804 0-10.509 4.705-10.509 10.509v423.479c0 5.804 4.705 10.509 10.509 10.509h282.728c5.804 0 10.509-4.705 10.509-10.509v-423.479c0-5.804-4.705-10.509-10.509-10.509z" fill="#fee55a"/><path d="m138.81 467.739v-423.478c0-5.804 4.705-10.509 10.509-10.509h-34.683c-5.804 0-10.509 4.705-10.509 10.509v423.479c0 5.804 4.705 10.509 10.509 10.509h34.683c-5.804-.001-10.509-4.706-10.509-10.51z" fill="#ffd301"/><g><g><path d="m368.27 383.193c-10.513 3.27-19.908 7.594-27.779 12.727-5.04 3.287-11.373 3.942-16.855 1.461-27.371-12.391-66.636-20.427-97.128-21.024v62.555c0 4.505-1.592 6.096-6.096 6.096l-49.669 2.06c15.653 5.821 34.247 9.202 54.21 9.202 31.118 0 70.226-8.199 98.682-21.081 5.482-2.481 11.814-1.826 16.855 1.461 7.87 5.133 17.266 9.456 27.779 12.725 4.436 1.381 8.941-1.971 8.941-6.617v-52.947c.001-4.646-4.504-7.997-8.94-6.618z" fill="#a89ca8"/></g></g><path d="m368.27 425.338c-10.513-3.269-19.909-7.592-27.779-12.726-5.04-3.287-11.373-3.942-16.855-1.461-27.986 12.669-66.269 20.803-97.128 21.068v6.692c0 4.505-1.592 6.096-6.096 6.096l-49.669 2.06c15.653 5.821 34.247 9.202 54.21 9.202 31.118 0 70.226-8.2 98.682-21.081 5.482-2.481 11.814-1.826 16.855 1.461 7.87 5.133 17.266 9.456 27.779 12.725 4.436 1.38 8.941-1.971 8.941-6.617v-24.038c.001 4.648-4.504 7.999-8.94 6.619z" fill="#938493"/><path d="m368.27 223.249c-10.513 3.27-19.908 7.594-27.778 12.727-5.04 3.287-11.373 3.942-16.855 1.461-28.456-12.882-67.564-21.082-98.683-21.082-14.804 0-28.853 1.864-41.513 5.197 7.6 9.551 12.154 21.635 12.154 34.789 0 13.155-4.554 25.238-12.154 34.789 12.66 3.333 26.709 5.197 41.513 5.197 31.118 0 70.226-8.199 98.682-21.081 5.482-2.482 11.814-1.826 16.854 1.461 7.87 5.133 17.266 9.457 27.779 12.726 4.436 1.38 8.941-1.971 8.941-6.617v-52.947c.001-4.648-4.504-8-8.94-6.62z" fill="#a89ca8"/><path d="m368.27 264.707c-10.513-3.269-19.909-7.593-27.779-12.726-5.04-3.287-11.373-3.942-16.854-1.461-28.457 12.882-67.564 21.081-98.682 21.081-10.732 0-21.065-.983-30.762-2.789-1.891 8.293-5.628 15.879-10.751 22.317 12.66 3.333 26.709 5.197 41.513 5.197 31.118 0 70.226-8.199 98.682-21.081 5.482-2.482 11.814-1.826 16.854 1.461 7.87 5.133 17.266 9.457 27.779 12.726 4.436 1.38 8.941-1.971 8.941-6.617v-24.725c0 4.646-4.505 7.998-8.941 6.617z" fill="#938493"/><path d="m133.116 250.784c-2.555 3.275-2.555 7.838 0 11.113 10.359 13.275 28.975 23.907 52.037 29.679 7.813-9.619 12.502-21.878 12.502-35.236s-4.689-25.617-12.502-35.235c-23.062 5.771-41.677 16.404-52.037 29.679z" fill="#938493"/><path d="m139.407 243.98c-2.123 1.977-4.477 4.484-6.277 6.788-.004.006-.009.011-.014.017-2.522 3.232-2.577 7.811 0 11.113 12.084 15.483 33.052 24.927 52.037 29.679 5.229-6.438 9.049-14.063 11.01-22.405-23.786-4.119-43.887-13.206-56.756-25.192z" fill="#7b6c79"/><g><path d="m223.155 278.217c-3.99-1.511-6-5.972-4.488-9.962 2.825-7.459 2.984-15.953-.001-23.831-1.511-3.991.499-8.451 4.49-9.962 3.99-1.512 8.451.499 9.962 4.489 4.124 10.892 4.356 23.275-.001 34.777-1.508 3.982-5.961 6.003-9.962 4.489z" fill="#7b6c79"/></g><g><path d="m250.883 276.917c-3.99-1.511-6.001-5.971-4.489-9.962 2.528-6.674 2.647-14.239 0-21.23-1.511-3.99.499-8.451 4.49-9.961 3.992-1.511 8.451.499 9.962 4.49 3.815 10.077 4.031 21.531-.001 32.174-1.51 3.985-5.966 6.001-9.962 4.489z" fill="#7b6c79"/></g><g><path d="m278.869 274.204c-3.991-1.511-6.001-5.971-4.49-9.962 1.924-5.081 1.928-10.713 0-15.805-1.511-3.991.499-8.451 4.49-9.962 3.991-1.512 8.451.499 9.962 4.489 3.172 8.379 3.35 17.903 0 26.751-1.509 3.985-5.965 6.002-9.962 4.489z" fill="#7b6c79"/></g><g><path d="m172.967 256.535h-1.547c-4.267 0-7.726-3.459-7.726-7.726s3.459-7.726 7.726-7.726h1.547c4.267 0 7.726 3.459 7.726 7.726s-3.459 7.726-7.726 7.726z" fill="#665e68"/></g><path d="m312.815 336.312c0-13.154 4.554-25.238 12.154-34.789-12.66-3.333-26.708-5.197-41.513-5.197-31.119 0-70.226 8.199-98.683 21.082-2.285 1.034-4.717 1.986-7.142 1.967v34.346c2.425-.019 4.858.463 7.142 1.497 28.457 12.882 67.564 21.081 98.683 21.081 14.804 0 28.853-1.864 41.513-5.197-7.599-9.551-12.154-21.635-12.154-34.79z" fill="#a89ca8"/><path d="m314.219 348.785c-9.697 1.807-20.03 2.789-30.762 2.789-31.119 0-70.226-8.199-98.683-21.081-2.285-1.034-4.717-1.516-7.142-1.497v24.724c2.425-.019 4.858.463 7.142 1.497 28.457 12.882 67.564 21.081 98.683 21.081 14.804 0 28.853-1.864 41.513-5.197-5.123-6.437-8.86-14.023-10.751-22.316z" fill="#938493"/><path d="m375.294 330.757c2.555 3.275 2.555 7.838 0 11.113-10.359 13.275-28.975 23.907-52.037 29.679-7.813-9.619-12.502-21.878-12.502-35.236s4.689-25.617 12.502-35.235c23.062 5.771 41.678 16.404 52.037 29.679z" fill="#938493"/><path d="m369.004 323.952c2.123 1.977 4.477 4.484 6.277 6.788.004.006.009.011.014.017 2.522 3.232 2.577 7.811 0 11.113-12.084 15.483-33.052 24.927-52.037 29.679-5.229-6.438-9.049-14.063-11.01-22.405 23.786-4.119 43.887-13.206 56.756-25.192z" fill="#7b6c79"/><g><path d="m285.256 358.19c3.99-1.511 6-5.972 4.488-9.962-2.825-7.459-2.984-15.953.001-23.831 1.511-3.991-.499-8.451-4.49-9.962-3.99-1.512-8.451.499-9.962 4.489-4.124 10.892-4.356 23.275.001 34.777 1.508 3.981 5.961 6.003 9.962 4.489z" fill="#7b6c79"/></g><g><path d="m257.528 356.889c3.99-1.511 6.001-5.971 4.489-9.962-2.528-6.674-2.647-14.239 0-21.23 1.511-3.99-.499-8.451-4.49-9.961-3.992-1.511-8.451.499-9.962 4.49-3.815 10.077-4.031 21.531.001 32.174 1.51 3.986 5.966 6.002 9.962 4.489z" fill="#7b6c79"/></g><g><path d="m229.541 354.177c3.991-1.511 6.001-5.971 4.49-9.962-1.924-5.081-1.928-10.713 0-15.805 1.511-3.991-.499-8.451-4.49-9.962-3.991-1.512-8.451.499-9.962 4.489-3.172 8.379-3.35 17.903 0 26.751 1.51 3.984 5.965 6.002 9.962 4.489z" fill="#7b6c79"/></g><g><path d="m335.443 336.508h1.547c4.267 0 7.726-3.459 7.726-7.726 0-4.268-3.459-7.726-7.726-7.726h-1.547c-4.267 0-7.726 3.459-7.726 7.726s3.459 7.726 7.726 7.726z" fill="#665e68"/></g><path d="m368.27 63.304c-10.513 3.27-19.908 7.594-27.778 12.727-5.04 3.287-11.373 3.942-16.855 1.461-28.457-12.883-67.564-21.082-98.683-21.082-14.804 0-28.853 1.864-41.513 5.197 7.6 9.551 12.154 21.635 12.154 34.789 0 13.155-4.554 25.238-12.154 34.789 12.66 3.333 26.709 5.197 41.513 5.197 31.118 0 70.226-8.199 98.682-21.081 5.482-2.482 11.814-1.826 16.854 1.461 7.87 5.133 17.266 9.457 27.779 12.726 4.436 1.38 8.941-1.971 8.941-6.617v-52.949c.001-4.646-4.504-7.997-8.94-6.618z" fill="#a89ca8"/><path d="m368.27 104.763c-10.513-3.269-19.909-7.593-27.779-12.726-5.04-3.287-11.373-3.942-16.854-1.461-28.457 12.882-67.564 21.081-98.682 21.081-10.732 0-21.065-.983-30.762-2.789-1.891 8.293-5.628 15.879-10.751 22.317 12.66 3.333 26.709 5.197 41.513 5.197 31.118 0 70.226-8.199 98.682-21.081 5.482-2.482 11.814-1.826 16.854 1.461 7.87 5.133 17.266 9.457 27.779 12.726 4.436 1.38 8.941-1.971 8.941-6.617v-24.726c0 4.646-4.505 7.998-8.941 6.618z" fill="#938493"/><path d="m133.116 90.84c-2.555 3.275-2.555 7.838 0 11.113 10.359 13.275 28.975 23.907 52.037 29.679 7.813-9.619 12.502-21.878 12.502-35.236s-4.689-25.617-12.502-35.235c-23.062 5.771-41.677 16.404-52.037 29.679z" fill="#938493"/><path d="m139.407 84.035c-2.123 1.977-4.477 4.484-6.277 6.788-.004.006-.009.011-.014.017-2.522 3.232-2.577 7.811 0 11.113 12.084 15.483 33.052 24.927 52.037 29.679 5.229-6.438 9.049-14.063 11.01-22.405-23.786-4.119-43.887-13.206-56.756-25.192z" fill="#7b6c79"/><g><path d="m223.155 118.273c-3.99-1.511-6-5.972-4.488-9.962 2.825-7.459 2.984-15.953-.001-23.831-1.511-3.991.499-8.451 4.49-9.962 3.99-1.512 8.451.499 9.962 4.489 4.124 10.892 4.356 23.275-.001 34.777-1.508 3.981-5.961 6.003-9.962 4.489z" fill="#7b6c79"/></g><g><path d="m250.883 116.972c-3.99-1.511-6.001-5.971-4.489-9.962 2.528-6.674 2.647-14.239 0-21.23-1.511-3.99.499-8.451 4.49-9.961 3.992-1.511 8.451.499 9.962 4.49 3.815 10.077 4.031 21.531-.001 32.174-1.51 3.986-5.966 6.002-9.962 4.489z" fill="#7b6c79"/></g><g><path d="m278.869 114.26c-3.991-1.511-6.001-5.971-4.49-9.962 1.924-5.081 1.928-10.713 0-15.805-1.511-3.991.499-8.451 4.49-9.962 3.991-1.512 8.451.499 9.962 4.489 3.172 8.379 3.35 17.903 0 26.751-1.509 3.984-5.965 6.002-9.962 4.489z" fill="#7b6c79"/></g><g><path d="m172.967 96.591h-1.547c-4.267 0-7.726-3.459-7.726-7.726 0-4.268 3.459-7.726 7.726-7.726h1.547c4.267 0 7.726 3.459 7.726 7.726.001 4.267-3.459 7.726-7.726 7.726z" fill="#665e68"/></g><g><path d="m250.883 436.86c-3.99-1.511-6.001-5.971-4.489-9.962 2.517-6.645 2.658-14.211 0-21.228-1.511-3.991.499-8.451 4.489-9.962 3.992-1.511 8.451.499 9.962 4.489 3.816 10.076 4.03 21.533 0 32.174-1.51 3.986-5.966 6.002-9.962 4.489z" fill="#7b6c79"/></g><g><path d="m278.869 434.149c-3.991-1.511-6.001-5.971-4.49-9.962.958-2.529 1.444-5.188 1.444-7.902s-.486-5.373-1.444-7.904c-1.511-3.991.5-8.451 4.49-9.962 3.99-1.507 8.451.499 9.961 4.491 3.178 8.397 3.344 17.919 0 26.751-1.508 3.984-5.964 6.001-9.961 4.488z" fill="#7b6c79"/></g><path d="m220.413 319.375h-74.018c-4.505 0-8.157 3.652-8.157 8.157v111.38c0 4.505 3.652 8.157 8.157 8.157h74.018c4.505 0 8.157-3.652 8.157-8.157v-111.38c-.001-4.505-3.653-8.157-8.157-8.157z" fill="#dfebfa"/><path d="m172.491 438.912v-111.38c0-4.505 3.652-8.157 8.157-8.157h-34.254c-4.505 0-8.157 3.652-8.157 8.157v111.38c0 4.505 3.652 8.157 8.157 8.157h34.254c-4.505-.001-8.157-3.653-8.157-8.157z" fill="#b1dbfc"/><g><path d="m203.491 353.825h-39.677c-4.267 0-7.726-3.459-7.726-7.726s3.459-7.726 7.726-7.726h39.677c4.267 0 7.726 3.459 7.726 7.726s-3.459 7.726-7.726 7.726z" fill="#7b6c79"/></g><g><path d="m203.491 378.573h-39.677c-4.267 0-7.726-3.459-7.726-7.726 0-4.268 3.459-7.726 7.726-7.726h39.677c4.267 0 7.726 3.459 7.726 7.726 0 4.268-3.459 7.726-7.726 7.726z" fill="#7b6c79"/></g><g><path d="m203.491 403.322h-39.677c-4.267 0-7.726-3.459-7.726-7.726s3.459-7.726 7.726-7.726h39.677c4.267 0 7.726 3.459 7.726 7.726s-3.459 7.726-7.726 7.726z" fill="#7b6c79"/></g><g><path d="m203.491 428.07h-39.677c-4.267 0-7.726-3.459-7.726-7.726s3.459-7.726 7.726-7.726h39.677c4.267 0 7.726 3.459 7.726 7.726s-3.459 7.726-7.726 7.726z" fill="#7b6c79"/></g><path d="m140.141 143.277c10.513 3.27 19.908 7.594 27.778 12.727 5.04 3.287 11.373 3.942 16.855 1.461 28.456-12.882 67.564-21.082 98.683-21.082 14.804 0 28.853 1.864 41.513 5.197-7.6 9.551-12.154 21.635-12.154 34.789 0 13.155 4.554 25.238 12.154 34.789-12.66 3.333-26.709 5.197-41.513 5.197-31.118 0-70.226-8.199-98.682-21.081-5.482-2.482-11.814-1.826-16.854 1.461-7.87 5.133-17.266 9.457-27.779 12.726-4.436 1.38-8.941-1.971-8.941-6.617v-52.947c-.001-4.648 4.504-8 8.94-6.62z" fill="#a89ca8"/><path d="m140.141 184.735c10.513-3.269 19.909-7.593 27.779-12.726 5.04-3.287 11.373-3.942 16.854-1.461 28.456 12.882 67.564 21.081 98.682 21.081 10.732 0 21.065-.983 30.762-2.789 1.891 8.293 5.628 15.879 10.751 22.317-12.66 3.333-26.709 5.197-41.513 5.197-31.118 0-70.226-8.199-98.682-21.081-5.482-2.482-11.814-1.826-16.854 1.461-7.87 5.133-17.266 9.457-27.779 12.726-4.436 1.38-8.941-1.971-8.941-6.617v-24.724c0 4.645 4.504 7.996 8.941 6.616z" fill="#938493"/><path d="m375.294 170.812c2.555 3.275 2.555 7.838 0 11.113-10.359 13.275-28.975 23.907-52.037 29.679-7.813-9.619-12.502-21.878-12.502-35.236s4.689-25.617 12.502-35.235c23.062 5.771 41.678 16.404 52.037 29.679z" fill="#938493"/><path d="m369.004 164.007c2.123 1.977 4.477 4.484 6.277 6.788.004.006.009.011.014.017 2.522 3.232 2.577 7.811 0 11.113-12.084 15.483-33.052 24.927-52.037 29.679-5.229-6.438-9.049-14.063-11.01-22.405 23.786-4.119 43.887-13.206 56.756-25.192z" fill="#7b6c79"/><g><path d="m285.256 198.245c3.99-1.511 6-5.972 4.488-9.962-2.825-7.459-2.984-15.953.001-23.831 1.511-3.991-.499-8.451-4.49-9.962-3.99-1.512-8.451.499-9.962 4.489-4.124 10.892-4.356 23.275.001 34.777 1.508 3.982 5.961 6.003 9.962 4.489z" fill="#7b6c79"/></g><g><path d="m257.528 196.944c3.99-1.511 6.001-5.971 4.489-9.962-2.528-6.674-2.647-14.239 0-21.23 1.511-3.99-.499-8.451-4.49-9.961-3.992-1.511-8.451.499-9.962 4.49-3.815 10.077-4.031 21.531.001 32.174 1.51 3.986 5.966 6.002 9.962 4.489z" fill="#7b6c79"/></g><g><path d="m229.541 194.232c3.991-1.511 6.001-5.971 4.49-9.962-1.924-5.081-1.928-10.713 0-15.805 1.511-3.991-.499-8.451-4.49-9.962-3.991-1.512-8.451.499-9.962 4.489-3.172 8.379-3.35 17.903 0 26.751 1.51 3.985 5.965 6.002 9.962 4.489z" fill="#7b6c79"/></g><g><path d="m335.443 176.563h1.547c4.267 0 7.726-3.459 7.726-7.726s-3.459-7.726-7.726-7.726h-1.547c-4.267 0-7.726 3.459-7.726 7.726s3.459 7.726 7.726 7.726z" fill="#665e68"/></g></g></svg>