<svg id="Capa_1" enable-background="new 0 0 512 512" height="512" viewBox="0 0 512 512" width="512" xmlns="http://www.w3.org/2000/svg"><g><path d="m482.413 202.311c.923-110.886-89.3-202.089-200.19-202.31-110.979-.221-201.014 89.677-201.014 200.605l-50.91 106.718c-2.284 4.789 1.21 10.322 6.516 10.316l44.395-.046v86.199c0 17.069 13.837 30.905 30.905 30.905h78.515c8.534 0 15.453 6.918 15.453 15.453v61.849h192.779v-148.47c50.173-36.109 82.997-94.813 83.551-161.219z" fill="#fff3de"/><g fill="#ffe5c2"><path d="m163.621 434.695h-51.509c-17.07 0-30.905-13.835-30.905-30.905v-86.195l51.509.062v86.133c0 17.07 13.835 30.905 30.905 30.905z"/><path d="m257.594 450.148v61.852h-51.509v-61.852c0-8.53-6.923-15.453-15.453-15.453h51.509c8.53 0 15.453 6.923 15.453 15.453z"/><path d="m132.716 200.607-55.668 117.049h-40.248c-5.302 0-8.792-5.53-6.509-10.316l50.915-106.733c.001-110.929 90.038-200.823 201.02-200.607 8.561.021 16.998.577 25.27 1.648-98.599 12.682-174.78 96.92-174.78 198.959z"/></g><g fill="#97d729"><path d="m266.754 237.763h-47.802c-2.752-.513-3.7-2.102-2.842-4.767l21.911-40.548 3.532 9.763c2.658 4.424 5.956 5.969 9.894 4.637 4.012-1.452 6.088-5.881 4.637-9.894l-9.398-25.976c-1.325-3.685-5.383-5.806-9.17-4.859l-28.09 7.146c-4.135 1.052-6.634 5.257-5.582 9.392 1.052 4.136 5.255 6.633 9.393 5.583l11.008-2.801-21.729 40.212c-3.159 5.846-3.012 12.743.391 18.45 3.402 5.706 9.401 9.114 16.045 9.114h47.802c4.267 0 7.726-3.459 7.726-7.726s-3.458-7.726-7.726-7.726z"/><path d="m376.172 224.21-25.277-43.782c-2.133-3.695-6.861-4.962-10.554-2.828-3.695 2.133-4.961 6.858-2.828 10.554l25.277 43.783c.926 2.606.05 4.219-2.628 4.841h-46.4l6.939-8.237c2.748-3.263 2.332-8.137-.932-10.886-3.265-2.751-8.138-2.332-10.887.931l-17.798 21.126c-2.502 2.949-2.373 7.62.377 10.371l20.234 20.754c3.623 3.063 7.264 3.109 10.925.138 3.055-2.979 3.118-7.87.139-10.925l-7.625-7.82h45.166c.072 0 .145-.001.217-.003 6.642-.187 12.543-3.762 15.784-9.563 3.243-5.801 3.194-12.7-.129-18.454z"/><path d="m313.594 147.04-10.222-1.823c-4.193-.747-8.213 2.049-8.962 6.249-.748 4.201 2.049 8.213 6.25 8.962l27.195 4.85c3.62.647 8.106-1.705 8.808-5.563l7.841-27.849c1.156-4.107-1.236-8.374-5.343-9.531-4.108-1.158-8.375 1.235-9.532 5.343l-3.078 10.934-23.96-38.924c-3.483-5.658-9.533-8.977-16.173-8.887-6.643.094-12.594 3.585-15.915 9.339l-24.257 42.013c-2.134 3.695-.867 8.42 2.828 10.554 3.693 2.133 8.42.868 10.554-2.828l24.257-42.013c1.82-2.127 3.67-2.153 5.549-.078z"/></g></g></svg>