<svg height="512" viewBox="0 0 58 58" width="512" xmlns="http://www.w3.org/2000/svg"><g id="027---Beat" fill="none"><path id="Shape" d="m29 21.52c1.36.75.61 1.64 1.71 2.67 3.3590349 2.9376195 5.28595 7.1826325 5.28595 11.645s-1.9269151 8.7073805-5.28595 11.645c-1.1 1-.35 1.92-1.71 2.67 1.1545813.6378654 2.3707846 1.1571808 3.63 1.55 2.1250322.630435 3.9037834 2.0952889 4.93 4.06l1 2c.0886349.1661904.2616509.27.45.27s.3613651-.1038096.45-.27l1-2c1.0262166-1.9647111 2.8049678-3.429565 4.93-4.06 7.34-2.32 12.61-8.55 12.61-15.87 0-13.25-16.51-21.2-29-14.31z" fill="#802d40"/><path id="Shape" d="m22 3v16.21h-6v-16.21c0-1.65685425 1.3431458-3 3-3s3 1.34314575 3 3z" fill="#4fba6f"/><path id="Shape" d="m16 14.7v4.51c-1.6176258.2212565-3.2024994.6376216-4.72 1.24l-3.11-12.15c-.26616288-1.0414292.04348834-2.14574567.81231105-2.89696409.76882271-.75121841 1.88001445-1.0352108 2.91500005-.745s1.836526 1.11053488 2.1026889 2.15196409z" fill="#24ae5f"/><path id="Shape" d="m29.83 8.3-3.11 12.15c-1.5175006-.6023784-3.1023742-1.0187435-4.72-1.24v-4.51l2-7.89c.2661629-1.04142919 1.0677034-1.86175326 2.1026889-2.15196405 1.0349856-.2902108 2.1461773-.0062184 2.915.745s1.078474 1.85553486.8123111 2.89696405z" fill="#24ae5f"/><path id="Shape" d="m38 35.83c0 7.46-5.45 13.63-12.63 15.87-2.1250322.630435-3.9037834 2.0952889-4.93 4.06l-1 2c-.0886349.1661904-.2616509.27-.45.27s-.3613651-.1038096-.45-.27l-1-2c-1.0262166-1.9647111-2.8049678-3.429565-4.93-4.06-7.34-2.32-12.61-8.55-12.61-15.87 0-12.22 14.29-20.34 26.72-15.38 6.43 2.55 11.28 8.35 11.28 15.38z" fill="#fb7b76"/><path id="Shape" d="m35.57 35.83c.0315138 7.0756135-4.3633963 13.4162702-11 15.87-1.9320922.7021134-3.4882008 2.1713694-4.3 4.06l-.87 2c-.0637564.1595091-.218221.2641154-.39.2641154s-.3262436-.1046063-.39-.2641154l-.87-2c-.8117992-1.8886306-2.3679078-3.3578866-4.3-4.06-6.63849365-2.4512912-11.03446062-8.7934727-11-15.87 0-12.22 12.45-20.34 23.3-15.38 6.0079776 2.7552603 9.8486116 8.7704285 9.82 15.38z" fill="#df4d60"/><path id="Shape" d="m54 35.83c0 5.36-4 10.2-9.83 12.05-1.9499273.6074035-3.7237962 1.6779008-5.17 3.12-1.4462038-1.4420992-3.2200727-2.5125965-5.17-3.12-.38-.12-.76-.25-1.12-.4 1.0581018-.9617786 1.9859601-2.0577273 2.76-3.26 1.2416571.4161004 2.4272692.9837164 3.53 1.69 1.2452044-.7891675 2.5904975-1.4080023 4-1.84 4.2-1.33 7-4.64 7-8.24 0-4.83-4.93-8.83-11-8.83-1.1860103-.0049288-2.3670677.1532185-3.51.47-.7841121-1.2065851-1.7182483-2.3087314-2.78-3.28 2.0010835-.7959162 4.1364635-1.199907 6.29-1.19 8.27 0 15 5.76 15 12.83z" fill="#d75e72"/><path id="Shape" d="m46 35.83c0 1.82-1.74 3.64-4.23 4.42-.9467508.3007516-1.8721772.6649085-2.77 1.09-.58-.27-1.17-.52-1.77-.74 1.0066783-3.0627341 1.0066783-6.3672659 0-9.43.5829419-.1149543 1.1758349-.1718988 1.77-.17 3.79 0 7 2.21 7 4.83z" fill="#d75e72"/><g fill="#fff"><path id="Shape" d="m18 24c-.5522847.0165685-1.0134315-.4177153-1.03-.97s.4177153-1.0134315.97-1.03h1.06c.5522847 0 1 .4477153 1 1s-.4477153 1-1 1c-.32 0-.63 0-.94 0z"/><path id="Shape" d="m4 36.83c-.55228475 0-1-.4477153-1-1 0-5.51 3.79-10.5 9.65-12.69.3393857-.1497093.7337575-.0992561 1.0245242.1310703.2907667.2303265.4301502.6026796.3620995.9673228-.0680508.3646431-.332354.6616591-.6866237.7716069-5.07 1.9-8.35 6.15-8.35 10.82 0 .5522847-.44771525 1-1 1z"/></g></g></svg>