<?xml version="1.0" encoding="iso-8859-1"?>
<!-- Generator: Adobe Illustrator 19.0.0, SVG Export Plug-In . SVG Version: 6.00 Build 0)  -->
<svg version="1.1" id="Capa_1" xmlns="http://www.w3.org/2000/svg" xmlns:xlink="http://www.w3.org/1999/xlink" x="0px" y="0px"
	 viewBox="0 0 512.001 512.001" style="enable-background:new 0 0 512.001 512.001;" xml:space="preserve">
<path style="fill:#FEA832;" d="M497,391.001h-60c-8.291,0-15-6.709-15-15v-60c0-8.291,6.709-15,15-15h60c8.291,0,15,6.709,15,15v60
	C512,384.292,505.291,391.001,497,391.001z"/>
<path style="fill:#FEDBAB;" d="M348,451.001h-60c-8.291,0-15-6.709-15-15v-60c0-8.291,6.709-15,15-15h60c8.291,0,15,6.709,15,15v60
	C363,444.292,356.291,451.001,348,451.001z"/>
<path style="fill:#FEC478;" d="M468,512.001h-60c-8.291,0-15-6.709-15-15v-60c0-8.291,6.709-15,15-15h60c8.291,0,15,6.709,15,15v60
	C483,505.292,476.291,512.001,468,512.001z"/>
<path style="fill:#CAE8F9;" d="M337.306,207.727c-8.099-3.001-14.7-7.2-20.099-12.599c-5.7-5.7-9.901-12.301-12.9-20.101
	c-3.9-9.899-16.5-12.9-24.3-5.7L18.542,411.15c-23.699,21.599-25.199,60-1.5,83.699h0.3c23.399,23.699,61.199,22.5,83.699-1.5
	l241.964-261.323C350.206,224.226,347.207,211.627,337.306,207.727z"/>
<path style="fill:#A4D9F5;" d="M343.007,232.027L101.042,493.35c-22.5,24-60.3,25.199-83.699,1.5l299.864-299.722
	c5.4,5.4,12.001,9.598,20.099,12.599C347.207,211.627,350.206,224.226,343.007,232.027z"/>
<path style="fill:#CAE8F9;" d="M486.708,25.626c-40.801-41.1-117.001-31.8-169.801,21c-49.799,50.4-64.2,126.299-21,169.499h0.3
	c17.401,17.401,40.201,25.801,65.4,25.801c35.101,0,73.801-16.501,103.801-46.8C517.907,142.327,527.508,66.126,486.708,25.626z"/>
<path style="fill:#A4D9F5;" d="M465.408,195.127c-30,30.298-68.699,46.8-103.801,46.8c-25.199,0-47.999-8.401-65.4-25.801
	l190.502-190.5C527.508,66.126,517.907,142.327,465.408,195.127z"/>
<g>
</g>
<g>
</g>
<g>
</g>
<g>
</g>
<g>
</g>
<g>
</g>
<g>
</g>
<g>
</g>
<g>
</g>
<g>
</g>
<g>
</g>
<g>
</g>
<g>
</g>
<g>
</g>
<g>
</g>
</svg>
