<svg height="512pt" viewBox="-52 0 512 512" width="512pt" xmlns="http://www.w3.org/2000/svg"><path d="m392.25 0h-353.125c-8.3125 0-15.046875 6.738281-15.046875 15.046875v481.90625c0 8.308594 6.734375 15.046875 15.046875 15.046875h353.125c8.3125 0 15.050781-6.738281 15.050781-15.046875v-481.90625c0-8.308594-6.738281-15.046875-15.050781-15.046875zm0 0" fill="#ff769d"/><path d="m392.25 0h-209.773438v512h209.773438c8.3125 0 15.050781-6.738281 15.050781-15.046875v-481.90625c0-8.308594-6.738281-15.046875-15.050781-15.046875zm0 0" fill="#f93e6b"/><g fill="#2a7893"><path d="m62.199219 92.617188h-47.152344c-8.308594 0-15.046875-6.734376-15.046875-15.046876 0-8.308593 6.738281-15.046874 15.046875-15.046874h47.152344c8.308593 0 15.046875 6.738281 15.046875 15.046874 0 8.3125-6.738282 15.046876-15.046875 15.046876zm0 0"/><path d="m62.199219 151.667969h-47.152344c-8.308594 0-15.046875-6.738281-15.046875-15.046875 0-8.3125 6.738281-15.046875 15.046875-15.046875h47.152344c8.308593 0 15.046875 6.734375 15.046875 15.046875 0 8.308594-6.738282 15.046875-15.046875 15.046875zm0 0"/><path d="m62.199219 210.71875h-47.152344c-8.308594 0-15.046875-6.738281-15.046875-15.050781 0-8.308594 6.738281-15.046875 15.046875-15.046875h47.152344c8.308593 0 15.046875 6.738281 15.046875 15.046875 0 8.3125-6.738282 15.050781-15.046875 15.050781zm0 0"/><path d="m62.199219 269.765625h-47.152344c-8.308594 0-15.046875-6.738281-15.046875-15.046875 0-8.3125 6.738281-15.046875 15.046875-15.046875h47.152344c8.308593 0 15.046875 6.734375 15.046875 15.046875 0 8.308594-6.738282 15.046875-15.046875 15.046875zm0 0"/><path d="m62.199219 328.816406h-47.152344c-8.308594 0-15.046875-6.738281-15.046875-15.046875 0-8.3125 6.738281-15.050781 15.046875-15.050781h47.152344c8.308593 0 15.046875 6.738281 15.046875 15.050781 0 8.308594-6.738282 15.046875-15.046875 15.046875zm0 0"/><path d="m62.199219 387.863281h-47.152344c-8.308594 0-15.046875-6.738281-15.046875-15.046875 0-8.3125 6.738281-15.046875 15.046875-15.046875h47.152344c8.308593 0 15.046875 6.734375 15.046875 15.046875 0 8.308594-6.738282 15.046875-15.046875 15.046875zm0 0"/><path d="m62.199219 446.914062h-47.152344c-8.308594 0-15.046875-6.738281-15.046875-15.046874 0-8.3125 6.738281-15.050782 15.046875-15.050782h47.152344c8.308593 0 15.046875 6.738282 15.046875 15.050782 0 8.308593-6.738282 15.046874-15.046875 15.046874zm0 0"/></g><path d="m319.101562 357.769531h-180.566406c-8.3125 0-15.050781 6.734375-15.050781 15.046875v59.050782c0 8.308593 6.738281 15.046874 15.050781 15.046874h180.566406c8.308594 0 15.046876-6.738281 15.046876-15.046874v-59.050782c0-8.3125-6.734376-15.046875-15.046876-15.046875zm0 0" fill="#d9f5ff"/><path d="m319.101562 357.769531h-136.625v89.144531h136.625c8.3125 0 15.046876-6.738281 15.046876-15.046874v-59.050782c0-8.3125-6.734376-15.046875-15.046876-15.046875zm0 0" fill="#87e4f9"/><path d="m319.101562 343.28125h-90.355468c-8.3125 0-15.046875-6.738281-15.046875-15.050781 0-8.308594 6.734375-15.046875 15.046875-15.046875h90.355468c8.308594 0 15.046876 6.738281 15.046876 15.046875 0 8.3125-6.734376 15.050781-15.046876 15.050781zm0 0" fill="#87e4f9"/></svg>