<svg id="Capa_1" enable-background="new 0 0 512 512" height="512" viewBox="0 0 512 512" width="512" xmlns="http://www.w3.org/2000/svg"><g><path d="m480 90v288h-448v-288c0-5.52 4.48-10 10-10h428c5.52 0 10 4.48 10 10z" fill="#46778c"/><path d="m93.81 80c-5.69 0-10.3 4.62-10.3 10.3v287.7h-51.51v-288c0-5.52 4.48-10 10-10z" fill="#3a6684"/><path d="m448 119v259h-384v-259c0-3.87 3.14-7 7-7h370c3.87 0 7 3.13 7 7z" fill="#eaf6ff"/><path d="m83.51 112v266h-19.5l-.01-.16v-258.84c0-3.87 3.14-7 7-7z" fill="#d8ecfe"/><path d="m256.001 238.97c0 23.684-12.867 44.37-31.998 55.434-9.406 5.45-20.336-1.439-31.998-1.439s-22.602 6.879-32.018 1.429c-19.12-11.064-31.987-31.74-31.987-55.424 0-35.346 28.66-63.995 64.005-63.995s63.996 28.649 63.996 63.995z" fill="#365e7d"/><path d="m224.003 261.655v32.75c-9.406 5.45-20.336 8.561-31.998 8.561s-22.602-3.121-32.018-8.571l.01-.443v-32.296c0-3.245 2.235-6.13 5.553-7.191l17.719-4.471h17.462l17.719 4.471c3.318 1.06 5.553 3.944 5.553 7.19z" fill="#9bd8f9"/><path d="m175.851 228.12v10.72c0 8.919 7.23 16.15 16.15 16.15 8.919 0 16.15-7.231 16.15-16.15v-10.72c0-8.919-7.231-16.15-16.15-16.15-8.919 0-16.15 7.231-16.15 16.15z" fill="#ffcebf"/><g><g><g><g><path d="m384.001 214.696h-96c-4.267 0-7.726-3.459-7.726-7.726s3.459-7.726 7.726-7.726h96c4.267 0 7.726 3.459 7.726 7.726s-3.459 7.726-7.726 7.726z" fill="#f25a74"/></g></g><g><path d="m384.001 247.726h-96c-4.267 0-7.726-3.459-7.726-7.726s3.459-7.726 7.726-7.726h96c4.267 0 7.726 3.459 7.726 7.726s-3.459 7.726-7.726 7.726z" fill="#365e7d"/></g><g><path d="m384.001 278.696h-96c-4.267 0-7.726-3.459-7.726-7.726 0-4.268 3.459-7.726 7.726-7.726h96c4.267 0 7.726 3.459 7.726 7.726 0 4.268-3.459 7.726-7.726 7.726z" fill="#365e7d"/></g></g></g><path d="m512 375v30.35c0 14.72-11.93 26.65-26.65 26.65h-458.7c-14.72 0-26.65-11.93-26.65-26.65v-30.35c0-3.87 3.14-7 7-7h185.001l14.249 10h100.875l12.876-10h184.999c3.87 0 7 3.13 7 7z" fill="#365e7d"/><g fill="#2b4d66"><path d="m78.96 432h-52.31c-14.72 0-26.65-11.93-26.65-26.65v-30.35c0-3.87 3.14-7 7-7h44.51v36.55c0 15.16 12.29 27.45 27.45 27.45z"/><path d="m288.939 399.999h-65.875c-17.155 0-31.062-13.907-31.062-31.062v-.937h127.999v.938c0 17.154-13.907 31.061-31.062 31.061z"/></g></g></svg>