<?xml version="1.0" encoding="iso-8859-1"?>
<!-- Generator: Adobe Illustrator 19.0.0, SVG Export Plug-In . SVG Version: 6.00 Build 0)  -->
<svg xmlns="http://www.w3.org/2000/svg" xmlns:xlink="http://www.w3.org/1999/xlink" version="1.1" id="Capa_1" x="0px" y="0px" viewBox="0 0 512 512" style="enable-background:new 0 0 512 512;" xml:space="preserve">
<path style="fill:#FD003A;" d="M406,90H106c-24.902,0-45,20.099-45,45v332c0,24.899,20.098,45,45,45h300c24.902,0,45-20.101,45-45  V135C451,110.099,430.902,90,406,90z"/>
<path style="fill:#DD0030;" d="M451,135v332c0,24.899-20.098,45-45,45H256V90h150C430.902,90,451,110.099,451,135z"/>
<path style="fill:#E1E4FB;" d="M391,120H121v317c0,8.284,6.716,15,15,15h240c8.284,0,15-6.716,15-15V120z"/>
<path style="fill:#C5C9F7;" d="M391,120v317c0,8.284-6.716,15-15,15H256V120H391z"/>
<path style="fill:#FEA832;" d="M346,60h-16.501c-6.9-34.2-37.2-60-73.499-60s-66.599,25.8-73.499,60H166c-24.902,0-45,20.099-45,45  v15h270v-15C391,80.099,370.902,60,346,60z M256,90c-8.401,0-15-6.601-15-15c0-8.401,6.599-15,15-15s15,6.599,15,15  C271,83.399,264.401,90,256,90z"/>
<path style="fill:#FE9923;" d="M346,60h-16.501c-6.9-34.2-37.2-60-73.499-60v60c8.401,0,15,6.599,15,15c0,8.399-6.599,15-15,15v30  h135v-15C391,80.099,370.902,60,346,60z"/>
<path style="fill:#E1E4FB;" d="M271,75c0,8.399-6.599,15-15,15s-15-6.601-15-15c0-8.401,6.599-15,15-15S271,66.599,271,75z"/>
<g>
</g>
<g>
</g>
<g>
</g>
<g>
</g>
<g>
</g>
<g>
</g>
<g>
</g>
<g>
</g>
<g>
</g>
<g>
</g>
<g>
</g>
<g>
</g>
<g>
</g>
<g>
</g>
<g>
</g>
</svg>
