<svg id="Capa_1" enable-background="new 0 0 512 512" height="512" viewBox="0 0 512 512" width="512" xmlns="http://www.w3.org/2000/svg"><g><g clip-rule="evenodd" fill-rule="evenodd"><path d="m0 390.293h512v-120.387c0-7.881-3.884-12.416-12.218-15.166-16.725-5.527-33.251-18.256-49.947-18.256-21.543 0-43.087 21.006-64.603 21.006-21.543 0-43.087-21.006-64.63-21.006-21.515 0-43.06 21.006-64.603 21.006s-43.06-21.006-64.602-21.006c-21.543 0-43.087 21.006-64.603 21.006-21.543 0-43.087-21.006-64.63-21.006-16.753 0-33.195 12.615-49.947 18.256-10.431 3.516-12.217 10.715-12.217 15.166z" fill="#62d9fa"/><path d="m126.795 307.492c-21.543 0-43.087 21.006-64.63 21.006-20.723 0-41.443-19.445-62.165-20.92v25.002c20.722 1.473 41.442 20.92 62.165 20.92 21.543 0 43.087-21.006 64.63-21.006 21.516 0 43.06 21.006 64.603 21.006 8.391 0 16.753-3.203 25.145-7.088 13.152-6.094 26.306-13.918 39.458-13.918s26.306 7.824 39.458 13.918c8.392 3.885 16.782 7.088 25.145 7.088 21.543 0 43.087-21.006 64.63-21.006 21.516 0 43.06 21.006 64.603 21.006 20.722 0 41.443-19.447 62.165-20.92v-25.002c-20.722 1.475-41.443 20.92-62.165 20.92-21.543 0-43.087-21.006-64.603-21.006-16.725 0-33.421 12.643-50.116 18.312-4.848 1.615-9.666 2.693-14.514 2.693-21.515 0-43.06-21.006-64.603-21.006s-43.06 21.006-64.602 21.006c-4.818 0-9.666-1.078-14.485-2.693-16.725-5.669-33.422-18.312-50.119-18.312z" fill="#52cef0"/><path d="m215.776 133.049c5.442-2.268 9.95-3.969 15.562-5.783 7.965-2.607 6.916-6.293 3.713-13.18-4.337-9.412-9.355-17.32-16.299-25.031-5.812-6.35-.964-7.568 3.543-7.312 21.487 1.445 41.811 11.082 55.503 27.863 4.79 5.84 8.163 4.621 15.307 3.969 22.451-2.068 50.543 1.645 69.903 13.748 8.844 5.527 15.591 12.303 21.091 21.176 3.373 5.555 3.855 8.277 5.981 14.059 2.268 6.236 5.697 5.273 11.82 5.473 9.949.311 33.052 3.23 33.846 16.1l.057.936c-.539 17.773-90.342 21.6-104.77 21.656-2.438 0-8.787-.85-10.403.568-1.899 1.643-2.522 9.609-3.203 12.443-4.28 18.141-21.487 39.883-42.407 36.34-7.455-1.389-5.159-4.279-4.422-10.432.907-9.723-.652-20.863-6.378-28.998-4.564-6.52-9.609-3.119-15.506-.113-17.376 8.873-29.452 18.68-41.642 33.959-10.63 13.549-18.992 28.771-25.398 44.731-3.43 8.504 1.19 8.957 7.257 14.23 12.444 10.855 26.363 28.402 31.125 44.361.766 2.664 1.219 4.99 1.588 7.738 3.486 31.268-119.539-7.738-110.469-27.609 6.974-14.881 15.591-26.758 30.36-34.639 8.929-4.762 6.633-7.229 5.612-16.186-2.183-18.879-.765-43.682 3.033-62.307 6.435-31.635 21.005-60.35 48.444-78.633 5.558-3.657 11.057-6.491 17.152-9.127z" fill="#5d94bb"/><path d="m0 332.58v88.582c0 6.662 3.09 9.127 9.128 9.127h493.744c6.406 0 9.128-3.004 9.128-9.127v-88.582c-20.722 1.473-41.443 20.92-62.165 20.92-21.543 0-43.087-21.006-64.603-21.006-21.543 0-43.087 21.006-64.63 21.006-21.515 0-43.06-21.006-64.603-21.006s-43.059 21.006-64.601 21.006c-21.543 0-43.087-21.006-64.603-21.006-21.543 0-43.087 21.006-64.63 21.006-20.723 0-41.443-19.447-62.165-20.92z" fill="#98e5fa"/></g><path d="m355.44 175.029c-4.139 0-7.483-3.344-7.483-7.482 0-4.168 3.345-7.512 7.483-7.512h6.265c4.139 0 7.483 3.344 7.483 7.512 0 4.139-3.345 7.482-7.483 7.482z" fill="#286794"/><path clip-rule="evenodd" d="m217.165 346.129c-3.118-6.803-7.513-13.662-12.473-19.955-4.989-6.35-10.517-12.133-15.761-16.725-6.066-5.273-10.686-5.727-7.257-14.23 6.406-15.959 14.769-31.182 25.398-44.731 2.296-2.863 4.592-5.557 6.917-8.078 10.007-10.887 20.637-18.682 34.725-25.881 4.224-2.154 8.051-4.508 11.537-3.26-.34-.482-.68-.965-1.049-1.445-5.301-7.002-11.168-3.346-18.028-.113-15.704 7.399-27.694 15.447-38.893 26.361-3.203 3.146-6.35 6.52-9.524 10.176-12.358 14.57-22.081 30.928-29.536 48.076-3.969 9.156 1.389 9.666 8.418 15.336 5.755 4.621 11.793 10.402 17.292 16.725 6.208 7.172 11.792 15.023 15.618 22.848 4.196-1.335 8.391-3.12 12.616-5.104zm100.263-126.397c.681-2.834 1.304-10.801 3.203-12.443 1.616-1.418 7.966-.568 10.403-.568 14.428-.057 104.23-3.883 104.77-21.656l-.057-.936c-.425-6.889-7.257-10.941-15.024-13.238-3.26 17.064-90.482 20.779-104.712 20.807-2.41.029-8.76-.85-10.403.596-1.899 1.645-2.495 9.609-3.175 12.443-3.517 14.883-15.733 32.203-31.579 35.973-.028 1.672-.113 3.316-.255 4.932-.539 4.535-1.928 7.285.368 8.986.794.623 2.098 1.076 4.054 1.445 13.833 2.354 26.051-6.377 33.96-17.773 4.053-5.868 7.001-12.417 8.447-18.568z" fill="#538cb5" fill-rule="evenodd"/><path clip-rule="evenodd" d="m502.872 405.289h-493.744c-6.038 0-9.128-2.467-9.128-9.129v25.002c0 6.662 3.09 9.127 9.128 9.127h493.744c6.406 0 9.128-3.004 9.128-9.127v-25.002c0 6.123-2.722 9.129-9.128 9.129z" fill="#8bdef5" fill-rule="evenodd"/></g></svg>