<svg height="512" viewBox="0 0 64 64" width="512" xmlns="http://www.w3.org/2000/svg"><g id="Globe"><path d="m18.57 10.57c-.56 0-.3.12-5.28-4.86a1 1 0 0 1 1.42-1.42l4.57 4.57a1 1 0 0 1 -.71 1.71z" fill="#56524f"/><path d="m32 47c-21.22 0-32.12-25.82-17-41a1 1 0 0 1 1.41 1.41 22 22 0 0 0 31.15 31.15 1 1 0 0 1 1.44 1.44 23.92 23.92 0 0 1 -17 7z" fill="#56524f"/><path d="m31 32-5 5v4c-14.81-4.9-17.6-24.66-5-33.5v11.5l5 2 1 5 3 1z" fill="#438fd0"/><path d="m47.24 34.34-6.24-2.34h-5l-3-4-3-1v-4c2.52-2.52 1.2-1.6 6-4v-5l4-2v-6.23a19 19 0 0 1 7.24 28.57z" fill="#438fd0"/><path d="m40 5.77v6.23l-4 2v5c-4.8 2.4-3.48 1.48-6 4v4l-3-1-1-5-5-2v-11.48a19 19 0 0 1 19-1.75z" fill="#61a838"/><path d="m47.24 34.34a19 19 0 0 1 -21.24 6.66v-4l5-5-1-5 3 1 3 4h5z" fill="#61a838"/><path d="m50 42c-.56 0-.3.12-5.28-4.86a1 1 0 0 1 1.42-1.42l4.57 4.57a1 1 0 0 1 -.71 1.71z" fill="#56524f"/><path d="m31 54v-8a1 1 0 0 1 2 0v8a1 1 0 0 1 -2 0z" fill="#56524f"/><path d="m47 60c-31.16 0-30-.1-30 0a6 6 0 0 1 6-6h18a6 6 0 0 1 6 6z" fill="#fcaa35"/></g></svg>