<svg id="Capa_1" enable-background="new 0 0 497 497" height="512" viewBox="0 0 497 497" width="512" xmlns="http://www.w3.org/2000/svg"><g><path d="m321.317 43.836c-6.701-3.869-14.593-4.805-21.003-1.525-3.639 1.862-6.8 4.76-8.996 8.563l-17.623 30.524v-56.204c0-13.914-11.28-25.194-25.195-25.194-13.915 0-25.195 11.28-25.195 25.194v56.203l-17.623-30.523c-6.064-10.504-19.495-14.103-29.999-8.038-10.504 6.064-14.102 19.495-8.038 29.999l62.661 108.532 18.194-10.504 17.194 10.504 62.661-108.532c6.064-10.503 3.466-22.935-7.038-28.999z" fill="#bbf49b"/><path d="m321.317 42.836c-6.701-3.869-14.585-3.79-20.996-.51.332.17.669.321.996.51 10.504 6.064 14.103 19.495 8.038 29.999l-57.661 99.871 15 8.66 62.661-108.532c6.064-10.502 2.466-23.934-8.038-29.998z" fill="#9be69d"/><path d="m64.989 342.305c0-77.171 95.077-143.825 148.36-175.12 19.55-11.482 43.344-12.617 63.733-3.402 2.234 1.01 4.428 3.144 6.57 4.402 53.283 31.295 147.36 96.949 147.36 174.12-.001 107.213-81.161 153.695-182.512 153.695-3.931 0-7.832.929-11.702.785-95.898-3.558-171.809-51.425-171.809-154.48z" fill="#aa91dc"/><path d="m283.652 167.184c-15.337-9.008-33.284-11.638-50.152-7.909 6.99 1.545 13.796 4.176 20.152 7.909 53.283 31.295 138.36 97.949 138.36 175.12 0 101.87-64.178 149.809-158.511 154.335 4.948.237 9.949.361 15 .361 101.35 0 183.511-47.482 183.511-154.695-.001-77.172-95.077-143.826-148.36-175.121z" fill="#9678cd"/></g></svg>