<svg id="Capa_1" enable-background="new 0 0 511.999 511.999" height="512" viewBox="0 0 511.999 511.999" width="512" xmlns="http://www.w3.org/2000/svg"><g><g><path d="m388.759 322.665v133.082h-89.662v-123.977z" fill="#c63d4f"/><path d="m362.426 435.938c-10.623-16.739-10.623-38.106 0-54.845l-99.256-26.49h-190.035v101.144h210.184z" fill="#f1f4f6"/><path d="m388.759 19.81v341.476l-284.918 8.169-19.326.556-47.708 38.499v-341.476c0-36.963 30.071-67.034 67.034-67.034h265.118c10.941 0 19.8 8.87 19.8 19.81z" fill="#dd636e"/><path d="m103.838 0v369.454l-19.319.555-47.718 38.503v-341.476c.001-36.963 30.075-67.036 67.037-67.036z" fill="#da4a54"/><path d="m368.958 475.549h-265.119c-36.962 0-67.033-30.071-67.033-67.033s30.071-67.033 67.033-67.033h265.119c10.936 0 19.802 8.866 19.802 19.802s-8.866 19.802-19.802 19.802h-265.119c-15.125 0-27.43 12.305-27.43 27.43s12.305 27.43 27.43 27.43h265.119c10.936 0 19.802 8.866 19.802 19.802s-8.866 19.8-19.802 19.8z" fill="#da4a54"/><path d="m198.235 381.092v118.256c0 10.535-12.139 16.438-20.428 9.932l-15.77-12.37c-4.568-3.58-11.01-3.58-15.591 0l-15.77 12.37c-8.289 6.506-20.416.603-20.416-9.932v-118.256z" fill="#f5dd81"/><g fill="#f1cd6b"><path d="m110.259 381.092h87.976v48.736h-87.976z"/><g><path d="m103.326 49.068c0 4.265-3.461 7.726-7.726 7.726-30.05 0-54.94 22.448-58.793 51.458v-38.282c13.691-17.421 34.954-28.629 58.793-28.629 4.265 0 7.726 3.451 7.726 7.727z"/><path d="m103.326 100.546c0 4.265-3.461 7.726-7.726 7.726-30.05 0-54.94 22.458-58.793 51.468v-38.292c13.691-17.42 34.954-28.628 58.793-28.628 4.265 0 7.726 3.461 7.726 7.726z"/><path d="m103.326 222.963c0 4.265-3.461 7.726-7.726 7.726-30.05 0-54.94 22.447-58.793 51.457v-38.282c13.691-17.42 34.954-28.628 58.793-28.628 4.265.001 7.726 3.462 7.726 7.727z"/><path d="m103.326 274.441c0 4.275-3.461 7.726-7.726 7.726-30.05 0-54.94 22.458-58.793 51.468v-38.292c13.691-17.421 34.954-28.629 58.793-28.629 4.265.001 7.726 3.462 7.726 7.727z"/></g></g></g><g><path d="m472.92 76.187c5.351-10.785.944-23.856-9.841-29.208l-33.747-16.716c-10.785-5.351-23.856-.944-29.208 9.841l-66.781 134.739-32.521-54.389c-6.179-10.338-19.549-13.701-29.887-7.521l-32.322 19.317c-10.321 6.179-13.701 19.549-7.521 29.887l64.081 107.188c4.092 6.842 11.597 10.918 19.549 10.603l45.427-1.789c7.969-.315 15.126-4.954 18.654-12.094z" fill="#bfe19f"/><g fill="#a7d3a3"><path d="m346.928 197.563 78.042-157.459c1.74-3.508 4.305-6.326 7.335-8.368l-2.973-1.472c-10.785-5.351-23.856-.944-29.208 9.841l-66.781 134.739z"/><path d="m320.019 269.325-64.081-107.188c-6.179-10.338-2.8-23.707 7.521-29.887l31.025-18.542c-6.806-4.691-15.983-5.297-23.548-.775l-32.322 19.317c-10.321 6.18-13.701 19.549-7.521 29.887l64.081 107.188c4.092 6.842 11.597 10.918 19.549 10.603l18.409-.725c-5.407-1.441-10.154-4.93-13.113-9.878z"/></g></g></g></svg>