<svg id="Layer_1" enable-background="new 0 0 48 48" height="512" viewBox="0 0 48 48" width="512" xmlns="http://www.w3.org/2000/svg"><path d="m9 5h30v38h-30z" fill="#f57c00"/><path d="m12 8h24v32h-24z" fill="#fff"/><path d="m36 40h-7.448l7.448-7.541z" fill="#cfd8dc"/><path d="m15.511 24.681h16.979v1.787h-16.979z" fill="#cfd8dc"/><path d="m20.426 16.745h7.149v1.787h-7.149z" fill="#f44336" transform="matrix(0 1 -1 0 41.638 -6.362)"/><path d="m20.426 16.745h7.149v1.787h-7.149z" fill="#f44336" transform="matrix(-1 0 0 -1 48 35.277)"/><path d="m15.511 28.255h15.191v1.787h-15.191z" fill="#cfd8dc"/><path d="m15.511 31.83h16.979v1.787h-16.979z" fill="#cfd8dc"/><path d="m31 8h1l-1-3z" fill="#e65100"/><path d="m17 8h-1l1-3z" fill="#e65100"/><g fill="#90a4ae"><path d="m24 2c-2.205 0-4 1.795-4 4 0 2.206 1.795 4 4 4s4-1.795 4-4-1.795-4-4-4z"/><path d="m17 5v4c0 1.105.895 2 2 2h10c1.105 0 2-.895 2-2v-4z"/></g></svg>