<svg height="512pt" viewBox="-4 0 511 512" width="512pt" xmlns="http://www.w3.org/2000/svg"><path d="m256.773438 512h-10.425782c-16.5 0-29.875-13.375-29.875-29.871094v-8.542968h70.171875v8.542968c0 16.496094-13.375 29.871094-29.871093 29.871094zm0 0" fill="#415f7d"/><path d="m290.585938 485.535156h-78.054688c-7.84375 0-14.203125-6.359375-14.203125-14.203125v-65.367187c0-7.84375 6.359375-14.203125 14.203125-14.203125h78.054688c7.847656 0 14.203124 6.359375 14.203124 14.203125v65.367187c.003907 7.84375-6.355468 14.203125-14.203124 14.203125zm0 0" fill="#e6e6f2"/><path d="m290.585938 391.761719h-41.484376v93.773437h41.484376c7.847656 0 14.207031-6.359375 14.207031-14.203125v-65.367187c0-7.84375-6.359375-14.203125-14.207031-14.203125zm0 0" fill="#c7c7dc"/><path d="m381.996094 222.574219c0-72.039063-58.398438-130.4375-130.4375-130.4375-72.039063 0-130.4375 58.398437-130.4375 130.4375 0 27.257812 8.363281 53.359375 22.660156 75.273437 22.535156 34.539063 37.855469 60.25 37.855469 101.492188 0 11.292968 9.152343 20.449218 20.449219 20.449218h98.949218c11.292969 0 20.445313-9.15625 20.445313-20.449218 0-41.242188 15.320312-66.953125 37.859375-101.492188 14.296875-21.914062 22.65625-48.015625 22.65625-75.273437zm0 0" fill="#ffe591"/><path d="m251.558594 92.136719c-9.558594 0-18.871094 1.035156-27.84375 2.988281 58.65625 12.757812 102.59375 64.96875 102.59375 127.449219 0 27.257812-8.363282 53.355469-22.660156 75.269531-22.535157 34.542969-37.855469 60.253906-37.855469 101.496094v20.445312h35.242187c11.289063 0 20.445313-9.152344 20.445313-20.445312 0-41.242188 15.320312-66.953125 37.855469-101.496094 14.300781-21.914062 22.660156-48.011719 22.660156-75.269531 0-72.039063-58.398438-130.4375-130.4375-130.4375zm0 0" fill="#ffa442"/><path d="m272.402344 401.328125c-4.207032 0-7.617188-3.410156-7.617188-7.617187v-84.792969c-8.769531 1.359375-17.683594 1.359375-26.453125 0v84.792969c0 4.207031-3.410156 7.617187-7.617187 7.617187-4.207032 0-7.617188-3.410156-7.617188-7.617187v-88.589844c-3.007812-1.046875-5.980468-2.261719-8.898437-3.648438l-17.054688-8.109375c-13.320312-6.332031-21.925781-19.953125-21.925781-34.703125 0-14.898437 12.121094-27.019531 27.019531-27.019531 19.902344 0 36.09375 16.195313 36.09375 36.097656v25.722657c8.746094 1.648437 17.707031 1.648437 26.453125 0v-25.722657c0-19.902343 16.191406-36.097656 36.09375-36.097656 14.898438 0 27.019532 12.121094 27.019532 27.019531 0 14.75-8.609376 28.371094-21.925782 34.703125l-17.058594 8.109375c-2.917968 1.386719-5.886718 2.601563-8.894531 3.648438v88.589844c-.003906 4.207031-3.414062 7.617187-7.617187 7.617187zm28.476562-154.453125c-11.503906 0-20.863281 9.359375-20.863281 20.863281v21.046875c.792969-.34375 1.578125-.699218 2.359375-1.070312l17.054688-8.109375c8.039062-3.820313 13.234374-12.042969 13.234374-20.941407 0-6.5-5.285156-11.789062-11.785156-11.789062zm-98.640625 0c-6.5 0-11.785156 5.289062-11.785156 11.785156 0 8.902344 5.195313 17.125 13.234375 20.945313l17.054688 8.109375c.78125.371094 1.566406.726562 2.359374 1.070312v-21.046875c0-11.503906-9.359374-20.863281-20.863281-20.863281zm0 0" fill="#fff"/><g fill="#ffe591"><path d="m251.558594 50.230469c-4.207032 0-7.617188-3.410157-7.617188-7.617188v-34.996093c0-4.207032 3.410156-7.617188 7.617188-7.617188 4.207031 0 7.617187 3.410156 7.617187 7.617188v34.996093c0 4.207031-3.410156 7.617188-7.617187 7.617188zm0 0"/><path d="m495 258.675781h-34.996094c-4.207031 0-7.617187-3.410156-7.617187-7.617187 0-4.207032 3.410156-7.617188 7.617187-7.617188h34.996094c4.207031 0 7.617188 3.410156 7.617188 7.617188 0 4.207031-3.410157 7.617187-7.617188 7.617187zm0 0"/><path d="m43.113281 258.675781h-34.996093c-4.207032 0-7.617188-3.410156-7.617188-7.617187 0-4.207032 3.410156-7.617188 7.617188-7.617188h34.996093c4.207031 0 7.617188 3.410156 7.617188 7.617188 0 4.207031-3.410157 7.617187-7.617188 7.617187zm0 0"/><path d="m423.699219 430.816406c-1.949219 0-3.898438-.746094-5.386719-2.230468l-24.746094-24.746094c-2.976562-2.976563-2.976562-7.796875 0-10.773438 2.972656-2.972656 7.796875-2.972656 10.769532 0l24.75 24.746094c2.972656 2.972656 2.972656 7.796875 0 10.773438-1.488282 1.484374-3.4375 2.230468-5.386719 2.230468zm0 0"/><path d="m104.164062 111.28125c-1.945312 0-3.898437-.742188-5.382812-2.230469l-24.746094-24.746093c-2.976562-2.976563-2.976562-7.796876 0-10.773438 2.972656-2.972656 7.796875-2.972656 10.769532 0l24.746093 24.75c2.976563 2.972656 2.976563 7.796875 0 10.769531-1.484375 1.488281-3.4375 2.230469-5.386719 2.230469zm0 0"/><path d="m79.417969 430.816406c-1.949219 0-3.898438-.746094-5.386719-2.230468-2.972656-2.976563-2.972656-7.800782 0-10.773438l24.75-24.746094c2.972656-2.972656 7.796875-2.972656 10.769531 0 2.976563 2.976563 2.976563 7.796875 0 10.773438l-24.746093 24.746094c-1.488282 1.484374-3.4375 2.230468-5.386719 2.230468zm0 0"/><path d="m398.953125 111.28125c-1.949219 0-3.898437-.742188-5.386719-2.230469-2.976562-2.972656-2.976562-7.796875 0-10.769531l24.746094-24.75c2.972656-2.972656 7.796875-2.972656 10.773438 0 2.972656 2.976562 2.972656 7.796875 0 10.773438l-24.75 24.746093c-1.484376 1.488281-3.433594 2.230469-5.382813 2.230469zm0 0"/></g><path d="m275.851562 389.648438h-48.585937c-10.691406 0-19.363281 8.667968-19.363281 19.363281v10.773437h87.3125v-10.773437c0-10.695313-8.667969-19.363281-19.363282-19.363281zm0 0" fill="#ff7e7e"/><path d="m275.851562 389.648438h-36.328124v30.136718h55.691406v-10.773437c0-10.695313-8.667969-19.363281-19.363282-19.363281zm0 0" fill="#ff4a4a"/></svg>