<svg id="Layer_1" height="512" viewBox="0 0 128 128" width="512" xmlns="http://www.w3.org/2000/svg" data-name="Layer 1"><path d="m15.345 6.5h97.31v115h-97.31z" fill="#e1ebf0"/><g fill="#694b4b"><path d="m35.25 24.192h57.5v9h-57.5z"/><path d="m92.75 52.594h-57.5a1.75 1.75 0 0 1 0-3.5h57.5a1.75 1.75 0 0 1 0 3.5z"/><path d="m92.75 61.594h-57.5a1.75 1.75 0 0 1 0-3.5h57.5a1.75 1.75 0 0 1 0 3.5z"/><path d="m92.75 70.594h-57.5a1.75 1.75 0 0 1 0-3.5h57.5a1.75 1.75 0 0 1 0 3.5z"/><path d="m92.75 79.594h-57.5a1.75 1.75 0 0 1 0-3.5h57.5a1.75 1.75 0 0 1 0 3.5z"/><path d="m92.75 88.594h-57.5a1.75 1.75 0 0 1 0-3.5h57.5a1.75 1.75 0 0 1 0 3.5z"/><path d="m92.75 97.594h-57.5a1.75 1.75 0 0 1 0-3.5h57.5a1.75 1.75 0 0 1 0 3.5z"/><path d="m81.985 106.594h-35.97a1.75 1.75 0 1 1 0-3.5h35.97a1.75 1.75 0 1 1 0 3.5z"/></g></svg>