<svg enable-background="new 0 0 24 24" height="512" viewBox="0 0 24 24" width="512" xmlns="http://www.w3.org/2000/svg"><path d="m24 8.65v1.59l-11.07 5.78c-.58.3-1.28.3-1.86 0l-11.07-5.78v-1.59c0-.83.46-1.59 1.19-1.98l9.75-5.21c.66-.35 1.46-.35 2.12 0l9.75 5.21c.73.39 1.19 1.15 1.19 1.98z" fill="#2196f3"/><path d="m21 2.75c0-1.519-1.231-2.75-2.75-2.75h-12.5c-1.519 0-2.75 1.231-2.75 2.75v17.32c0 .414.336.75.75.75h16.5c.414 0 .75-.336.75-.75z" fill="#eceff1"/><path d="m24 10.24v10.51c0 1.24-1.01 2.25-2.25 2.25h-19.5c-1.24 0-2.25-1.01-2.25-2.25v-10.51l11.07 5.78c.58.3 1.28.3 1.86 0z" fill="#64b5f6"/><path d="m15.631 7.354-5.5-3.25c-.231-.137-.519-.139-.753-.005-.233.133-.378.381-.378.651v6.5c0 .27.145.518.378.651.116.066.244.099.372.099.132 0 .264-.035.381-.104l5.5-3.25c.229-.135.369-.381.369-.646s-.14-.511-.369-.646z" fill="#ef5350"/></svg>