<?xml version="1.0" encoding="iso-8859-1"?>
<!-- Generator: Adobe Illustrator 19.0.0, SVG Export Plug-In . SVG Version: 6.00 Build 0)  -->
<svg version="1.1" id="Capa_1" xmlns="http://www.w3.org/2000/svg" xmlns:xlink="http://www.w3.org/1999/xlink" x="0px" y="0px"
	 viewBox="0 0 511.995 511.995" style="enable-background:new 0 0 511.995 511.995;" xml:space="preserve">
<g>
	<path style="fill:#E7ECED;" d="M255.998,61.016c5.95,0,11.829,0.309,17.655,0.777V17.655c0-9.754-7.91-17.655-17.655-17.655
		c-9.746,0-17.655,7.901-17.655,17.655v44.138C244.169,61.325,250.048,61.016,255.998,61.016z"/>
	<path style="fill:#E7ECED;" d="M255.998,397.241c-4.873,0-8.828-3.955-8.828-8.828V220.69c0-4.873,3.955-8.828,8.828-8.828
		s8.828,3.955,8.828,8.828v167.724C264.825,393.287,260.871,397.241,255.998,397.241z"/>
</g>
<path style="fill:#7383BF;" d="M255.998,44.138c-121.98,0-220.69,100.573-220.69,203.034c0-29.255,23.711-52.966,52.966-52.966
	s52.966,23.711,52.966,52.966c0-29.255,25.688-52.966,57.379-52.966s57.379,23.711,57.379,52.966
	c0-29.255,25.688-52.966,57.379-52.966s57.379,23.711,57.379,52.966c0-29.255,23.711-52.966,52.966-52.966
	c29.255,0,52.966,23.711,52.966,52.966C476.687,144.711,377.977,44.138,255.998,44.138z"/>
<path style="fill:#3D4760;" d="M255.998,44.138v203.034c0-29.255,25.688-52.966,57.379-52.966s57.379,23.711,57.379,52.966
	C370.756,144.711,319.433,44.138,255.998,44.138z"/>
<path style="fill:#556080;" d="M255.998,44.138v203.034c0-29.255-25.688-52.966-57.379-52.966s-57.379,23.711-57.379,52.966
	C141.239,144.711,192.563,44.138,255.998,44.138z"/>
<path style="fill:#28384C;" d="M238.343,388.414v52.966c0,20.639-17.788,37.191-38.841,35.134
	c-18.344-1.792-31.779-18.282-31.779-36.705v-7.256c0-9.754-7.91-17.655-17.655-17.655s-17.655,7.901-17.655,17.655v6.329
	c0,37.579,28.292,70.444,65.783,72.951c41.119,2.763,75.458-29.917,75.458-70.453v-52.966H238.343z"/>
<path style="fill:#366DB6;" d="M414.894,141.241c19.5,0,35.31-15.81,35.31-35.31c0,0,0-35.31-35.31-70.621
	c-35.31,35.31-35.31,70.621-35.31,70.621C379.584,125.431,395.394,141.241,414.894,141.241z"/>
<path style="fill:#C6E2F7;" d="M97.101,344.276c-4.873,0-8.828-3.955-8.828-8.828v-26.483c0-4.873,3.955-8.828,8.828-8.828
	c4.873,0,8.828,3.955,8.828,8.828v26.483C105.929,340.321,101.974,344.276,97.101,344.276z"/>
<g>
	<path style="fill:#1081E0;" d="M97.101,450.207c-4.873,0-8.828-3.955-8.828-8.828v-70.621c0-4.873,3.955-8.828,8.828-8.828
		c4.873,0,8.828,3.955,8.828,8.828v70.621C105.929,446.252,101.974,450.207,97.101,450.207z"/>
	<path style="fill:#1081E0;" d="M150.067,344.276c-4.873,0-8.828-3.955-8.828-8.828V291.31c0-4.873,3.955-8.828,8.828-8.828
		s8.828,3.955,8.828,8.828v44.138C158.894,340.321,154.94,344.276,150.067,344.276z"/>
</g>
<g>
	<path style="fill:#C6E2F7;" d="M203.032,361.931c-4.873,0-8.828-3.955-8.828-8.828v-35.31c0-4.873,3.955-8.828,8.828-8.828
		s8.828,3.955,8.828,8.828v35.31C211.86,357.976,207.905,361.931,203.032,361.931z"/>
	<path style="fill:#C6E2F7;" d="M308.963,361.931c-4.873,0-8.828-3.955-8.828-8.828v-35.31c0-4.873,3.955-8.828,8.828-8.828
		s8.828,3.955,8.828,8.828v35.31C317.791,357.976,313.836,361.931,308.963,361.931z"/>
</g>
<path style="fill:#366DB6;" d="M150.067,388.414c-4.873,0-8.828-3.955-8.828-8.828v-8.828c0-4.873,3.955-8.828,8.828-8.828
	s8.828,3.955,8.828,8.828v8.828C158.894,384.459,154.94,388.414,150.067,388.414z"/>
<path style="fill:#1081E0;" d="M361.929,344.276c-4.873,0-8.828-3.955-8.828-8.828V291.31c0-4.873,3.955-8.828,8.828-8.828
	s8.828,3.955,8.828,8.828v44.138C370.756,340.321,366.802,344.276,361.929,344.276z"/>
<path style="fill:#366DB6;" d="M361.929,388.414c-4.873,0-8.828-3.955-8.828-8.828v-8.828c0-4.873,3.955-8.828,8.828-8.828
	s8.828,3.955,8.828,8.828v8.828C370.756,384.459,366.802,388.414,361.929,388.414z"/>
<path style="fill:#C6E2F7;" d="M414.894,344.276c-4.873,0-8.828-3.955-8.828-8.828v-26.483c0-4.873,3.955-8.828,8.828-8.828
	c4.873,0,8.828,3.955,8.828,8.828v26.483C423.722,340.321,419.767,344.276,414.894,344.276z"/>
<path style="fill:#1081E0;" d="M414.894,450.207c-4.873,0-8.828-3.955-8.828-8.828v-70.621c0-4.873,3.955-8.828,8.828-8.828
	c4.873,0,8.828,3.955,8.828,8.828v70.621C423.722,446.252,419.767,450.207,414.894,450.207z"/>
<path style="fill:#C6E2F7;" d="M44.136,450.207c-4.873,0-8.828-3.955-8.828-8.828v-26.483c0-4.873,3.955-8.828,8.828-8.828
	s8.828,3.955,8.828,8.828v26.483C52.963,446.252,49.009,450.207,44.136,450.207z"/>
<path style="fill:#366DB6;" d="M44.136,388.414c-4.873,0-8.828-3.955-8.828-8.828v-79.448c0-4.873,3.955-8.828,8.828-8.828
	s8.828,3.955,8.828,8.828v79.448C52.963,384.459,49.009,388.414,44.136,388.414z"/>
<path style="fill:#C6E2F7;" d="M467.86,450.207c-4.873,0-8.828-3.955-8.828-8.828v-26.483c0-4.873,3.955-8.828,8.828-8.828
	c4.873,0,8.828,3.955,8.828,8.828v26.483C476.687,446.252,472.733,450.207,467.86,450.207z"/>
<path style="fill:#1081E0;" d="M467.86,388.414c-4.873,0-8.828-3.955-8.828-8.828v-79.448c0-4.873,3.955-8.828,8.828-8.828
	c4.873,0,8.828,3.955,8.828,8.828v79.448C476.687,384.459,472.733,388.414,467.86,388.414z"/>
<g>
</g>
<g>
</g>
<g>
</g>
<g>
</g>
<g>
</g>
<g>
</g>
<g>
</g>
<g>
</g>
<g>
</g>
<g>
</g>
<g>
</g>
<g>
</g>
<g>
</g>
<g>
</g>
<g>
</g>
</svg>
