<svg id="Capa_1" enable-background="new 0 0 512.003 512.003" height="512" viewBox="0 0 512.003 512.003" width="512" xmlns="http://www.w3.org/2000/svg"><g><g><g><path d="m70.259 510.857c-5.596-2.314-9.258-7.793-9.258-13.857v-45h-16c-24.814 0-45-20.186-45-45v-121c0-24.814 20.186-45 45-45h301c24.814 0 45 20.186 45 45v121c0 24.814-20.186 45-45 45h-203.789l-55.605 55.605c-4.36 4.361-10.894 5.546-16.348 3.252z" fill="#80bfff"/></g><path d="m346.001 241h-150v211h150c24.814 0 45-20.186 45-45v-121c0-24.814-20.185-45-45-45z" fill="#69f"/><g><path d="m425.396 266.605-55.606-55.605h-203.789c-24.814 0-45-20.186-45-45v-121c0-24.814 20.186-45 45-45h301c24.814 0 45 20.186 45 45v121c0 24.814-20.186 45-45 45h-16v45c0 6.064-3.662 11.543-9.258 13.857-5.453 2.294-11.983 1.112-16.347-3.252z" fill="#edf5ff"/></g><g id="Chat_2_"><g><circle cx="136.001" cy="346" fill="#edf5ff" r="15"/></g><g><circle cx="196.001" cy="346" fill="#edf5ff" r="15"/></g><g><circle cx="256.001" cy="346" fill="#edf5ff" r="15"/></g></g><g id="Chat_3_"><g><circle cx="136.001" cy="346" fill="#edf5ff" r="15"/></g><g><circle cx="256.001" cy="346" fill="#d5e8fe" r="15"/></g></g></g><g><path d="m467.001 0h-151v211h53.789l55.605 55.605c4.36 4.36 10.894 5.546 16.348 3.252 5.596-2.314 9.258-7.793 9.258-13.857v-45h16c24.814 0 45-20.186 45-45v-121c0-24.814-20.185-45-45-45z" fill="#d5e8fe"/></g><g><path d="m406.001 90h-180c-8.291 0-15-6.709-15-15s6.709-15 15-15h180c8.291 0 15 6.709 15 15s-6.709 15-15 15z" fill="#80bfff"/></g><g><path d="m376.001 151h-120c-8.291 0-15-6.709-15-15s6.709-15 15-15h120c8.291 0 15 6.709 15 15s-6.709 15-15 15z" fill="#80bfff"/></g><path d="m376.001 121h-60v30h60c8.291 0 15-6.709 15-15s-6.709-15-15-15z" fill="#69f"/><path d="m406.001 60h-90v30h90c8.291 0 15-6.709 15-15s-6.709-15-15-15z" fill="#69f"/><path d="m211.001 346c0-8.286-6.716-15-15-15v30c8.284 0 15-6.716 15-15z" fill="#d5e8fe"/></g></svg>