<?xml version="1.0" encoding="iso-8859-1"?>
<!-- Generator: Adobe Illustrator 19.0.0, SVG Export Plug-In . SVG Version: 6.00 Build 0)  -->
<svg version="1.1" id="Capa_1" xmlns="http://www.w3.org/2000/svg" xmlns:xlink="http://www.w3.org/1999/xlink" x="0px" y="0px"
	 viewBox="0 0 512 512" style="enable-background:new 0 0 512 512;" xml:space="preserve">
<path style="fill:#FE9923;" d="M510.601,165.899C504,122.699,463.799,90,417.9,90H184.5c-45.899,0-85.499,32.699-92.1,75.899
	c-5.7,37.2,12.001,73.801,43.801,92.1V467c0,24.899,20.099,45,45,45h240c24.901,0,44.6-20.101,44.6-45V257.999
	C497.6,239.7,516.301,203.099,510.601,165.899z"/>
<path style="fill:#FEDBAB;" d="M419.601,75.901C413,32.701,373.799,0,327.9,0H94.5C48.601,0,8,32.701,1.399,75.901
	c-5.7,37.2,13.001,73.799,44.801,92.098V377c0,24.899,20.099,45,45,45h240c24.901,0,44.6-20.101,44.6-45V167.999
	C407.6,149.7,425.301,113.101,419.601,75.901z"/>
<path style="fill:#FEC478;" d="M375.8,167.999V377c0,24.899-19.699,45-44.6,45h-120V0h116.7c45.899,0,85.099,32.701,91.7,75.901
	C425.301,113.101,407.6,149.7,375.8,167.999z"/>
<g>
	<path style="fill:#FEA832;" d="M266.699,115.499L211.2,171l-34.501,34.499c-5.7,6-15.298,6-20.999,0c-6-5.7-6-15.3,0-21L211.2,129
		l34.501-34.499c5.7-6,15.298-6,20.999,0C272.7,100.201,272.7,109.799,266.699,115.499z"/>
	<path style="fill:#FEA832;" d="M266.699,235.499L211.2,291l-34.501,34.499c-5.7,6-15.298,6-20.999,0c-6-5.7-6-15.3,0-21l90-90
		c5.7-5.999,15.298-5.999,20.999,0C272.7,220.199,272.7,229.799,266.699,235.499z"/>
</g>
<g>
	<path style="fill:#FE9923;" d="M266.699,214.499c6,5.7,6,15.3,0,21L211.2,291v-42l34.501-34.501
		C251.401,208.5,260.999,208.5,266.699,214.499z"/>
	<path style="fill:#FE9923;" d="M266.699,115.499L211.2,171v-42l34.501-34.499c5.7-6,15.298-6,20.999,0
		C272.7,100.201,272.7,109.799,266.699,115.499z"/>
</g>
<g>
</g>
<g>
</g>
<g>
</g>
<g>
</g>
<g>
</g>
<g>
</g>
<g>
</g>
<g>
</g>
<g>
</g>
<g>
</g>
<g>
</g>
<g>
</g>
<g>
</g>
<g>
</g>
<g>
</g>
</svg>
