<svg height="512pt" viewBox="-64 0 512 512" width="512pt" xmlns="http://www.w3.org/2000/svg"><path d="m336.335938 0h-224.933594c-3.980469 0-7.792969 1.582031-10.605469 4.394531l-96.402344 96.398438c-2.8125 2.8125-4.394531 6.628906-4.394531 10.605469v353.46875c0 25.988281 21.144531 47.132812 47.132812 47.132812h289.203126c25.914062 0 47.132812-20.953125 47.132812-47.132812v-417.734376c0-25.914062-20.953125-47.132812-47.132812-47.132812zm0 0" fill="#eff6fe"/><path d="m336.335938 0h-144.605469v512h144.605469c25.914062 0 47.132812-20.953125 47.132812-47.132812v-417.734376c0-25.914062-20.953125-47.132812-47.132812-47.132812zm0 0" fill="#d9e4ef"/><path d="m95.335938 112.46875c9.445312 0 17.132812-7.6875 17.132812-17.132812v-95.335938h-1.070312c-3.976563 0-7.792969 1.582031-10.605469 4.394531l-96.398438 96.398438c-2.8125 2.8125-4.394531 6.628906-4.394531 10.605469v1.070312zm0 0" fill="#d9e4ef"/><path d="m166.039062 274.214844c-4.558593 0-9.0625-2.070313-12.011718-6-4.96875-6.628906-3.625-16.03125 3-21l64.269531-48.199219c6.625-4.972656 16.027344-3.628906 21 3 4.96875 6.625 3.625 16.027344-3 21l-64.269531 48.199219c-2.699219 2.019531-5.855469 3-8.988282 3zm0 0" fill="#1d9cfd"/><path d="m230.28125 380.253906c-3.128906 0-6.289062-.976562-8.984375-3l-64.269531-48.199218c-6.625-4.972657-7.96875-14.371094-3-21 4.972656-6.628907 14.371094-7.96875 21-3l64.269531 48.199218c6.625 4.96875 7.96875 14.371094 3 21-2.949219 3.929688-7.453125 6-12.015625 6zm0 0" fill="#1d9cfd"/><path d="m190.667969 288.132812c0 34.90625-28.296875 63.199219-63.199219 63.199219-34.90625 0-63.203125-28.292969-63.203125-63.199219 0-34.902343 28.296875-63.199218 63.203125-63.199218 34.902344 0 63.199219 28.296875 63.199219 63.199218zm0 0" fill="#3ab4fb"/><path d="m239.292969 223.011719-47.558594 35.667969v-37.5l29.558594-22.167969c6.632812-4.972657 16.03125-3.621094 21 3 4.972656 6.628906 3.632812 16.027343-3 21zm0 0" fill="#0084ff"/><path d="m242.292969 374.25c-2.949219 3.929688-7.449219 6-12.007813 6-3.132812 0-6.292968-.96875-8.992187-3l-29.558594-22.171875v-37.5l47.558594 35.671875c6.632812 4.96875 7.972656 14.371094 3 21zm0 0" fill="#0084ff"/><g fill="#1d9cfd"><path d="m303.132812 191.734375c0 26.03125-21.101562 47.132813-47.132812 47.132813s-47.132812-21.101563-47.132812-47.132813 21.101562-47.132813 47.132812-47.132813 47.132812 21.101563 47.132812 47.132813zm0 0"/><path d="m303.132812 384.535156c0 26.03125-21.101562 47.132813-47.132812 47.132813s-47.132812-21.101563-47.132812-47.132813 21.101562-47.132812 47.132812-47.132812 47.132812 21.101562 47.132812 47.132812zm0 0"/></g></svg>