<svg id="Capa_1" enable-background="new 0 0 512 512" height="512" viewBox="0 0 512 512" width="512" xmlns="http://www.w3.org/2000/svg"><g><g><g><path d="m256.768 339.508v-56.388h-70.434c-5.616 0-9.065-6.151-6.135-10.942l63.243-103.423c3.788-6.195 13.326-3.51 13.326 3.751v56.464h70.43c5.617 0 9.066 6.153 6.134 10.944l-63.239 103.347c-3.79 6.193-13.325 3.507-13.325-3.753z" fill="#fef48b"/></g></g><g><g fill="#fef056"><path d="m256.768 197.364-52.442 85.756h-17.992c-5.616 0-9.065-6.151-6.135-10.942l63.243-103.42c3.788-6.195 13.326-3.51 13.326 3.751z"/><path d="m287.586 283.12v31.547l-17.493 28.59c-3.789 6.193-13.325 3.507-13.325-3.753v-56.384z"/></g></g><g><g fill="#c6ea7c"><path d="m256.745 432.006c-87.22 0-159.817-63.783-173.627-147.15h35.835c4.997 0 7.693-5.862 4.439-9.656l-55.527-64.744c-2.87-3.346-8.047-3.346-10.917 0l-55.526 64.744c-3.253 3.793-.558 9.656 4.439 9.656h36.909c6.204 46.725 27.424 89.91 61.32 123.799 40.771 40.781 94.993 63.235 152.654 63.235s111.883-22.454 152.654-63.235c7.921-7.921 15.151-16.348 21.66-25.211 6.758-9.201 4.464-22.184-5.043-28.504-8.945-5.947-20.923-3.713-27.277 4.948-32.057 43.698-83.767 72.118-141.993 72.118z"/><path d="m506.141 233.067h-34.715c-5.141-48.994-26.702-94.405-62.026-129.721-40.771-40.781-94.993-63.236-152.655-63.236s-111.883 22.454-152.654 63.235c-7.991 7.985-15.28 16.488-21.833 25.435-7.449 10.17-3.458 24.647 8.067 29.756l.329.146c8.561 3.795 18.542 1.019 24.079-6.534 32.051-43.715 83.769-72.155 142.012-72.155 89.275 0 163.238 66.822 174.513 153.073h-38.209c-4.997 0-7.692 5.862-4.439 9.655l55.527 64.744c2.87 3.346 8.047 3.346 10.917 0l55.527-64.744c3.252-3.792.557-9.654-4.44-9.654z"/></g></g><g><g fill="#b2e254"><path d="m36.677 284.856h-30.818c-4.992 0-7.694-5.866-4.438-9.656l55.53-64.743c2.87-3.346 8.047-3.346 10.917 0l9.951 11.603-45.58 53.14c-3.256 3.79-.555 9.656 4.438 9.656z"/><path d="m134.904 408.651c37.115 37.125 85.386 59.068 137.252 62.704-5.105.349-10.242.534-15.409.534-57.66 0-111.889-22.456-152.661-63.238-33.889-33.889-55.113-77.065-61.317-123.795h30.818c6.204 46.73 27.427 89.906 61.317 123.795z"/><path d="m113.074 128.784c-5.578 7.622-4.746 17.659.873 24.356-5.65 6.8-15.121 9.163-23.298 5.547l-.329-.154c-11.526-5.106-15.512-19.58-8.064-29.75 6.554-8.947 13.847-17.453 21.829-25.435 40.772-40.782 95.001-63.238 152.661-63.238 5.167 0 10.303.185 15.409.534-51.866 3.636-100.137 25.579-137.252 62.704-7.981 7.983-15.275 16.488-21.829 25.436z"/><path d="m431.258 233.072c-10.622-81.246-76.849-145.245-159.102-152.405 5.075-.452 10.221-.678 15.409-.678 89.269 0 163.232 66.823 174.511 153.083z"/><path d="m465.004 295.868-9.95 11.602c-2.87 3.346-8.047 3.346-10.917 0l-55.53-64.752c-3.246-3.791-.555-9.646 4.438-9.646h30.818c-4.992 0-7.684 5.855-4.438 9.646z"/></g></g></g></svg>