<?xml version="1.0" encoding="iso-8859-1"?>
<!-- Generator: Adobe Illustrator 19.0.0, SVG Export Plug-In . SVG Version: 6.00 Build 0)  -->
<svg version="1.1" id="Capa_1" xmlns="http://www.w3.org/2000/svg" xmlns:xlink="http://www.w3.org/1999/xlink" x="0px" y="0px"
	 viewBox="0 0 512.001 512.001" style="enable-background:new 0 0 512.001 512.001;" xml:space="preserve">
<path style="fill:#C69C6D;" d="M373.781,512H30.452c-9.599,0-17.381-7.782-17.381-17.381V45.653c0-9.599,7.782-17.381,17.381-17.381
	h343.329c9.599,0,17.381,7.782,17.381,17.381v448.966C391.162,504.218,383.38,512,373.781,512z"/>
<path style="fill:#BA8B5D;" d="M373.781,28.272H332.59c5.748,0,10.407,4.659,10.407,10.407v462.915
	c0,5.748-4.659,10.407-10.407,10.407h41.191c9.6,0,17.382-7.782,17.382-17.381V45.653C391.162,36.054,383.38,28.272,373.781,28.272z
	"/>
<path style="fill:#F7F7F7;" d="M334.91,478.254H69.323c-4.464,0-8.083-3.619-8.083-8.083v-441.9h281.753v441.9
	C342.993,474.635,339.374,478.254,334.91,478.254z"/>
<path style="fill:#F2F2F2;" d="M294.802,28.272v441.9c0,4.464-3.619,8.083-8.083,8.083h48.191c4.464,0,8.083-3.619,8.083-8.083
	v-441.9C342.993,28.272,294.802,28.272,294.802,28.272z"/>
<g>
	<path style="fill:#E58945;" d="M102.139,0c-4.26,0-7.713,3.453-7.713,7.713v42.872c0,4.26,3.453,7.713,7.713,7.713
		c4.26,0,7.713-3.453,7.713-7.713V7.713C109.853,3.453,106.399,0,102.139,0z"/>
	<path style="fill:#E58945;" d="M152.128,0c-4.26,0-7.713,3.453-7.713,7.713v42.872c0,4.26,3.453,7.713,7.713,7.713
		s7.713-3.453,7.713-7.713V7.713C159.841,3.453,156.388,0,152.128,0z"/>
	<path style="fill:#E58945;" d="M202.116,0c-4.26,0-7.713,3.453-7.713,7.713v42.872c0,4.26,3.453,7.713,7.713,7.713
		s7.713-3.453,7.713-7.713V7.713C209.829,3.453,206.376,0,202.116,0z"/>
	<path style="fill:#E58945;" d="M252.105,0c-4.26,0-7.713,3.453-7.713,7.713v42.872c0,4.26,3.453,7.713,7.713,7.713
		c4.26,0,7.713-3.453,7.713-7.713V7.713C259.818,3.453,256.365,0,252.105,0z"/>
	<path style="fill:#E58945;" d="M302.093,0c-4.26,0-7.713,3.453-7.713,7.713v42.872c0,4.26,3.453,7.713,7.713,7.713
		s7.713-3.453,7.713-7.713V7.713C309.807,3.453,306.354,0,302.093,0z"/>
</g>
<path style="fill:#4ABDD8;" d="M481.5,241.274c-0.795-6.383-4.028-12.074-9.103-16.024l-23.306-18.143
	c-3.361-2.617-8.208-2.014-10.825,1.348c-2.617,3.361-2.014,8.207,1.348,10.824l23.306,18.143c1.825,1.42,2.987,3.465,3.272,5.758
	c0.286,2.294-0.338,4.561-1.759,6.386l-40.801,52.412c-2.617,3.362-2.014,8.207,1.348,10.824c1.408,1.096,3.077,1.628,4.733,1.628
	c2.297,0,4.571-1.022,6.091-2.976l40.801-52.412C480.557,253.967,482.296,247.657,481.5,241.274z"/>
<path style="fill:#FFDC6C;" d="M458.307,195.268l-30.873-24.034l36.497-46.883c6.637-8.525,18.928-10.056,27.453-3.42l0,0
	c8.525,6.637,10.056,18.928,3.42,27.453L458.307,195.268z"/>
<path style="fill:#FF4C4D;" d="M268.204,460.061l-61.434,34.557c-5.884,3.31-9.598,0.418-7.833-6.098l18.431-68.034
	c1.486-5.487,4.05-10.623,7.542-15.109l195.298-250.873c5.053-6.491,14.411-7.656,20.902-2.604l32.586,25.367
	c6.491,5.053,7.656,14.411,2.604,20.902L281.001,449.043C277.509,453.529,273.159,457.274,268.204,460.061z"/>
<path style="fill:#EF3749;" d="M473.695,177.268l-29.416-22.9c-0.097,3.04-1.107,6.079-3.118,8.663L245.863,413.905
	c-3.492,4.486-7.842,8.231-12.797,11.018l-19.939,11.216l-14.19,52.382c-1.765,6.516,1.949,9.407,7.833,6.098l61.434-34.557
	c4.955-2.787,9.305-6.533,12.797-11.018L476.299,198.17C481.352,191.679,480.186,182.321,473.695,177.268z"/>
<rect x="391.456" y="186.74" transform="matrix(-0.7891 -0.6143 0.6143 -0.7891 638.8271 626.6627)" style="fill:#5BCEEB;" width="71.082" height="33.84"/>
<rect x="410.927" y="193.401" transform="matrix(0.7891 0.6143 -0.6143 0.7891 221.0693 -223.2121)" style="fill:#4ABDD8;" width="49.311" height="33.84"/>
<g>
	<path style="fill:#41414F;" d="M220.313,412.713c-1.227,2.484-2.217,5.086-2.946,7.773l-18.43,68.034
		c-1.765,6.516,1.949,9.407,7.833,6.098l61.434-34.557c2.427-1.365,4.706-2.963,6.813-4.762L220.313,412.713z"/>
	<path style="fill:#41414F;" d="M206.77,494.619l30.717-17.279l30.717-17.279c0.61-0.343,1.21-0.701,1.801-1.073
		c0.548-0.345,1.086-0.704,1.617-1.073c0.037-0.025,0.075-0.048,0.111-0.074c1.128-0.789,2.215-1.632,3.261-2.524
		c0.008-0.007,0.016-0.013,0.023-0.019l-40.29-31.365c-0.546,0.341-1.098,0.673-1.661,0.989l-19.939,11.216l-14.19,52.382
		c-0.331,1.222-0.469,2.316-0.437,3.266c0.032,0.95,0.236,1.755,0.588,2.399c0.117,0.215,0.251,0.411,0.401,0.59
		c0.47,0.559,1.1,0.929,1.856,1.103C202.755,496.204,204.615,495.831,206.77,494.619z"/>
</g>
<g>
	<path style="fill:#FDAB5D;" d="M306.846,194.984H102.139c-4.26,0-7.713-3.453-7.713-7.713s3.453-7.713,7.713-7.713h204.707
		c4.26,0,7.713,3.453,7.713,7.713S311.106,194.984,306.846,194.984z"/>
	<path style="fill:#FDAB5D;" d="M306.846,254.707H102.139c-4.26,0-7.713-3.453-7.713-7.713s3.453-7.713,7.713-7.713h204.707
		c4.26,0,7.713,3.453,7.713,7.713C314.559,251.253,311.106,254.707,306.846,254.707z"/>
	<path style="fill:#FDAB5D;" d="M204.492,314.43H102.139c-4.26,0-7.713-3.453-7.713-7.713s3.453-7.713,7.713-7.713h102.353
		c4.26,0,7.713,3.453,7.713,7.713S208.752,314.43,204.492,314.43z"/>
	<path style="fill:#FDAB5D;" d="M306.846,135.261H102.139c-4.26,0-7.713-3.453-7.713-7.713s3.453-7.713,7.713-7.713h204.707
		c4.26,0,7.713,3.453,7.713,7.713S311.106,135.261,306.846,135.261z"/>
</g>
<g>
</g>
<g>
</g>
<g>
</g>
<g>
</g>
<g>
</g>
<g>
</g>
<g>
</g>
<g>
</g>
<g>
</g>
<g>
</g>
<g>
</g>
<g>
</g>
<g>
</g>
<g>
</g>
<g>
</g>
</svg>
