<svg id="color" enable-background="new 0 0 24 24" height="512" viewBox="0 0 24 24" width="512" xmlns="http://www.w3.org/2000/svg"><g fill="#b0bec5"><path d="m3.75 5.5c-.552 0-1-.448-1-1v-3.5c0-.552.448-1 1-1s1 .448 1 1v3.5c0 .552-.448 1-1 1z"/><path d="m8.5 5.5c-.552 0-1-.448-1-1v-3.5c0-.552.448-1 1-1s1 .448 1 1v3.5c0 .552-.448 1-1 1z"/><path d="m13.25 5.5c-.552 0-1-.448-1-1v-3.5c0-.552.448-1 1-1s1 .448 1 1v3.5c0 .552-.448 1-1 1z"/></g><path d="m3.75 0c-.553 0-1 .447-1 1v3.5c0 .553.447 1 1 1z" fill="#99a5ac"/><path d="m8.5 0c-.553 0-1 .447-1 1v3.5c0 .553.447 1 1 1z" fill="#99a5ac"/><path d="m13.25 0c-.553 0-1 .447-1 1v3.5c0 .553.447 1 1 1z" fill="#99a5ac"/><path d="m14.25 2.25h-11.5c-1.52 0-2.75 1.23-2.75 2.75v13.25c0 1.52 1.23 2.75 2.75 2.75h8.15c-.84-1.33-1.4-2.9-1.4-4.7v-4.01c0-.46.1-.9.29-1.29.34-.72.96-1.29 1.74-1.55l5.25-1.79c.07-.03.14-.05.22-.06v-2.6c0-1.52-1.23-2.75-2.75-2.75z" fill="#eceff1"/><path d="m8.5 2.25h-5.75c-1.52 0-2.75 1.23-2.75 2.75v13.25c0 1.52 1.23 2.75 2.75 2.75h5.75z" fill="#cdd0d2"/><path d="m9.79 11c-.19.39-.29.83-.29 1.29v.71h-5.5c-.55 0-1-.45-1-1s.45-1 1-1z" fill="#90a4ae"/><path d="m8 9h-4c-.552 0-1-.448-1-1s.448-1 1-1h4c.552 0 1 .448 1 1s-.448 1-1 1z" fill="#90a4ae"/><path d="m17.75 24c-.133 0-.267-.026-.392-.08-.239-.102-5.858-2.549-5.858-7.617v-4.018c0-.428.272-.809.678-.947l5.25-1.786c.209-.071.436-.071.645 0l5.25 1.786c.405.139.677.519.677.948v4.018c0 5.067-5.619 7.515-5.858 7.617-.125.053-.259.079-.392.079z" fill="#4caf50"/><path d="m17.5 19.5c-.265 0-.519-.104-.707-.293l-2-2c-.391-.391-.391-1.023 0-1.414s1.023-.391 1.414 0l1.185 1.185 2.308-3.078c.331-.441.958-.532 1.399-.2.442.331.532.958.2 1.4l-3 4c-.174.232-.439.377-.729.397-.023.002-.047.003-.07.003z" fill="#fff"/><path d="m9 8h-6c0 .553.447 1 1 1h4c.553 0 1-.447 1-1z" fill="#7d8f97"/><path d="m9.52 12c-.02.09-.02.19-.02.29v.71h-5.5c-.55 0-1-.45-1-1z" fill="#7d8f97"/><path d="m17.75 9.5c-.109 0-.218.018-.322.053l-5.25 1.786c-.405.138-.678.519-.678.946v4.019c0 5.067 5.619 7.515 5.858 7.616.125.054.259.08.392.08v-4.532c-.058.015-.118.025-.179.03l-.071.002c-.265 0-.519-.104-.707-.293l-2-2c-.391-.391-.391-1.023 0-1.414.195-.195.451-.293.707-.293s.512.098.707.293l1.185 1.185.358-.478z" fill="#429846"/><path d="m15.5 15.5c-.256 0-.512.098-.707.293-.391.391-.391 1.023 0 1.414l2 2c.188.188.442.293.707.293l.071-.002c.061-.005.121-.014.179-.03v-2.968l-.358.478-1.185-1.185c-.195-.195-.451-.293-.707-.293z" fill="#dedede"/></svg>