<svg height="512pt" viewBox="-63 0 511 512" width="512pt" xmlns="http://www.w3.org/2000/svg"><path d="m353.035156 95.679688-67.851562-27.824219-27.824219-67.855469h-64.644531l-20.015625 179.480469 180.335937-20.015625zm0 0" fill="#efe2dd"/><path d="m32.394531 0v159.464844l160.320313 20.015625v-179.480469zm0 0" fill="#fff5f5"/><path d="m353.035156 95.679688h-95.675781v-95.679688zm0 0" fill="#b4aaaa"/><path d="m384.929688 159.464844-212.230469 20.015625 20.015625 332.519531h192.214844zm0 0" fill="#c78f2c"/><path d="m.5 159.464844v352.535156h192.214844v-332.519531zm0 0" fill="#e1bb78"/><path d="m384.929688 159.464844h-192.214844l-20.015625 31.890625 20.015625 31.894531h138.203125zm0 0" fill="#e1bb78"/><path d="m.5 159.464844 54.011719 63.785156h138.203125v-63.785156zm0 0" fill="#edd7b0"/><path d="m278.402344 302.035156v-30h-85.6875l-10.007813 15 10.007813 15zm0 0" fill="#9d7123"/><path d="m278.402344 365.820312v-30h-85.6875l-10.007813 15 10.007813 15zm0 0" fill="#9d7123"/><g fill="#c78f2c"><path d="m107.027344 272.035156h85.6875v30h-85.6875zm0 0"/><path d="m107.027344 335.820312h85.6875v30h-85.6875zm0 0"/></g></svg>