<?xml version="1.0" encoding="iso-8859-1"?>
<!-- Generator: Adobe Illustrator 19.0.0, SVG Export Plug-In . SVG Version: 6.00 Build 0)  -->
<svg version="1.1" id="Layer_1" xmlns="http://www.w3.org/2000/svg" xmlns:xlink="http://www.w3.org/1999/xlink" x="0px" y="0px"
	 viewBox="0 0 512.001 512.001" style="enable-background:new 0 0 512.001 512.001;" xml:space="preserve">
<path style="fill:#F1D849;" d="M454.992,393.809l-25.778-57.01l-57.003-25.773l-25.774-57.005l-53.787-24.318
	c31.696-58.916,22.686-133.948-27.053-183.687c-60.759-60.759-159.268-60.759-220.028,0c-60.759,60.759-60.759,159.268,0,220.026
	c47.167,47.166,117.08,57.708,174.425,31.645L426.946,504.64l84.157,6.912l0.898-91.965L454.992,393.809z M154.294,154.742
	c-18.308,18.308-47.993,18.308-66.302,0s-18.308-47.993,0-66.302s47.993-18.308,66.302,0S172.603,136.433,154.294,154.742z"/>
<path style="fill:#E6B844;" d="M154.513,154.513c-0.075,0.076-0.144,0.155-0.218,0.229c-18.308,18.308-47.993,18.308-66.302,0
	s-18.308-47.993,0-66.302c0.075-0.076,0.154-0.144,0.229-0.218L45.797,45.797c-0.076,0.075-0.152,0.146-0.227,0.222
	c-60.759,60.759-60.759,159.268,0,220.026c47.167,47.166,117.08,57.708,174.425,31.644l206.951,206.953l84.157,6.912l0.004-0.444
	L154.513,154.513z"/>
<g>
</g>
<g>
</g>
<g>
</g>
<g>
</g>
<g>
</g>
<g>
</g>
<g>
</g>
<g>
</g>
<g>
</g>
<g>
</g>
<g>
</g>
<g>
</g>
<g>
</g>
<g>
</g>
<g>
</g>
</svg>
