<svg id="Capa_1" enable-background="new 0 0 512 512" height="512" viewBox="0 0 512 512" width="512" xmlns="http://www.w3.org/2000/svg"><g><path d="m96.776 310.187c0-5.985.881-11.803 2.525-17.32h-49.17c-1.665 0-2.965-1.372-2.958-3.037.001-.343-.005-.688-.019-1.035-.491-11.949-10.121-21.806-22.057-22.549-13.711-.853-25.097 10.014-25.097 23.541 0 4.702 1.38 9.076 3.754 12.749 2.784 4.306 2.998 9.827.161 14.098-2.642 3.978-4.108 8.803-3.895 13.987.491 11.949 10.121 21.805 22.057 22.548 13.711.854 25.097-10.013 25.097-23.54 0-.011 0-.021 0-.031-.003-1.672 1.303-3.049 2.975-3.049h48.882c-1.471-5.249-2.255-10.744-2.255-16.362z" fill="#fee6c1"/><g><path d="m97.023 304.817h-46.874c-1.672 0-2.978 1.377-2.975 3.049v.031c0 13.527-11.386 24.394-25.097 23.54-8.41-.524-15.659-5.582-19.389-12.699-1.85 3.53-2.844 7.579-2.668 11.882.491 11.949 10.121 21.805 22.057 22.548 13.711.854 25.097-10.013 25.097-23.54 0-.011 0-.021 0-.031-.003-1.672 1.303-3.049 2.975-3.049h48.882c-1.472-5.25-2.256-10.744-2.256-16.362.001-1.806.091-3.596.248-5.369z" fill="#ffd086"/></g><path d="m272.017 297.535c-.44-27.34 8-52.684 22.622-73.347 8.346-11.793 13.982-25.241 16.335-39.497 8.672-52.534 36.059-91.793 77.42-91.793-13.094 0-26.246 1.242-38.83 3.194-48.771 7.566-92.438 34.463-121.442 74.395l-39.16 53.914c-8.166 11.243-20.015 19.268-33.486 22.678l-17.061 4.319c-26.911 6.813-45.76 31.028-45.76 58.788 0 23.542 13.625 44.957 34.949 54.931l23.734 11.101c4.647 2.174 9.123 4.696 13.389 7.545l13.223 8.83c25.87 17.276 56.28 26.496 87.388 26.496h121.299c-66.466-.922-113.549-55.089-114.62-121.554z" fill="#bc7c63"/><g><g><path d="m297.939 374.699h-32.6c-31.108 0-61.518-9.22-87.388-26.496l-13.223-8.83c-4.266-2.849-8.742-5.371-13.389-7.545l-23.734-11.101c-14.319-6.697-25.158-18.557-30.739-32.751-2.727 6.921-4.21 14.426-4.21 22.211 0 23.542 13.625 44.957 34.949 54.931l23.734 11.101c4.647 2.173 9.123 4.696 13.389 7.545l13.223 8.83c25.87 17.275 56.28 26.496 87.388 26.496h121.299c-37.191-.517-68.31-17.707-88.699-44.391z" fill="#ab6b51"/></g></g><path d="m488.754 223.337c-8.323-11.553-13.441-25.048-15.801-39.09-8.793-52.311-43.313-91.35-84.558-91.35-41.362 0-75.96 39.259-84.632 91.793-2.353 14.255-7.989 27.703-16.335 39.497-14.622 20.662-23.063 46.007-22.622 73.346 1.07 66.467 55.365 120.634 121.833 121.557 69.069.958 125.361-54.743 125.361-123.593 0-26.936-8.619-51.856-23.246-72.16z" fill="#ff656f"/><path d="m300.01 297.534c-.44-27.339 8-52.684 22.622-73.346 8.346-11.793 13.982-25.242 16.335-39.497 7.407-44.872 33.735-80.036 67.031-89.345-5.686-1.59-11.57-2.448-17.603-2.448-41.362 0-75.96 39.259-84.632 91.793-2.353 14.255-7.989 27.703-16.335 39.497-14.622 20.662-23.063 46.007-22.622 73.346 1.07 66.466 55.365 120.633 121.833 121.556 6.598.092 13.078-.338 19.404-1.242-59.067-8.49-105.049-59.201-106.033-120.314z" fill="#ff4756"/><circle cx="388.395" cy="295.48" fill="#fee6c1" r="25.055"/><g fill="#ff9ba1"><path d="m358.547 344.873c-14.834-8.994-25.366-24.496-27.48-42.641-.612-5.251-3.577-9.936-8.187-12.522l-.508-.285c-11.729-6.58-25.868 2.957-24.323 16.316 3.277 28.341 19.934 53.152 43.626 67.533 10.938 6.639 24.932-1.425 24.932-14.22 0-5.817-3.085-11.165-8.06-14.181z"/><path d="m440.543 247.245.161-.09c9.355-5.247 13.402-16.739 9.107-26.568-4.202-9.616-7.244-19.952-9.088-30.923-6.141-36.534-28.638-64.085-52.329-64.085-23.802 0-46.323 27.701-52.387 64.435-1.705 10.327-4.748 20.5-8.993 30.193-4.343 9.915-.643 21.498 8.797 26.795l.434.243c6.699 3.759 14.907 3.508 21.399-.598 8.908-5.635 19.452-8.902 30.75-8.902s21.843 3.268 30.75 8.902c6.492 4.106 14.7 4.356 21.399.598z"/><path d="m454.469 289.396-.556.312c-4.612 2.587-7.579 7.274-8.191 12.528-2.115 18.15-12.653 33.647-27.479 42.637-4.975 3.016-8.061 8.364-8.061 14.182v.264c0 12.777 13.941 20.812 24.9 14.242 23.966-14.37 40.547-39.402 43.716-67.906 1.483-13.34-12.624-22.826-24.329-16.259z"/></g><path d="m385.102 295.48c0-9.938 5.786-18.525 14.174-22.575-3.291-1.589-6.982-2.48-10.881-2.48-13.838 0-25.055 11.218-25.055 25.055 0 13.838 11.218 25.055 25.055 25.055 3.899 0 7.59-.891 10.881-2.48-8.388-4.05-14.174-12.636-14.174-22.575z" fill="#ffd086"/><path d="m358.544 362.338c-23.692-14.381-40.349-39.191-43.626-67.533-.309-2.671.017-5.184.818-7.451-9.783-.849-18.946 7.498-17.687 18.388 3.277 28.341 19.934 53.152 43.626 67.533 9.232 5.604 20.642.732 23.975-8.617-2.398-.194-4.818-.932-7.106-2.32z" fill="#ff7f87"/><g><path d="m354.395 220.207c4.246-9.693 7.289-19.866 8.993-30.193 4.878-29.551 20.409-53.243 38.687-61.384-4.439-1.978-9.036-3.051-13.681-3.051-23.802 0-46.323 27.701-52.387 64.435-1.705 10.327-4.748 20.5-8.993 30.193-4.343 9.915-.643 21.498 8.797 26.795l.434.243c6.699 3.759 14.907 3.508 21.399-.598.88-.557 1.781-1.084 2.693-1.594-7.28-5.855-9.814-16.007-5.942-24.846z" fill="#ff7f87"/></g><path d="m427.566 365.757v-.264c0-5.818 3.086-11.165 8.061-14.182 14.826-8.99 25.364-24.487 27.479-42.637.612-5.253 3.579-9.94 8.191-12.528l.556-.312c1.315-.738 2.66-1.262 4.01-1.612-4.572-6.393-13.523-9.242-21.395-4.827l-.556.312c-4.612 2.587-7.579 7.274-8.191 12.528-2.115 18.15-12.653 33.647-27.479 42.637-4.975 3.016-8.061 8.364-8.061 14.182v.264c0 11.103 10.527 18.619 20.476 16.089-1.921-2.663-3.091-5.956-3.091-9.65z" fill="#ff7f87"/></g></svg>