<svg height="512" viewBox="0 0 48 48" width="512" xmlns="http://www.w3.org/2000/svg"><g id="Megaphone"><path d="m34 8.41v25.18a1.41 1.41 0 0 1 -2.41 1 21.46 21.46 0 0 0 -8.4-5.19l-1.19-.4v-16l1.19-.4a21.46 21.46 0 0 0 8.4-5.19 1.41 1.41 0 0 1 2.41 1z" fill="#db5669"/><path d="m34 8.41v23.18a1.41 1.41 0 0 1 -2.41 1 21.46 21.46 0 0 0 -8.4-5.19l-1.19-.4v-14l1.19-.4a21.46 21.46 0 0 0 8.4-5.19 1.41 1.41 0 0 1 2.41 1z" fill="#f26674"/><path d="m22 13v16h-13a3 3 0 0 1 -3-3v-10a3 3 0 0 1 3-3z" fill="#dad7e5"/><path d="m14 29v10.32a1.59 1.59 0 0 1 -.12.62 1.67 1.67 0 0 1 -1.56 1.06 1.69 1.69 0 0 1 -1.64-1.28l-2.48-10.83a3 3 0 0 0 .8.11z" fill="#374f68"/><path d="m14 31v8.32a1.59 1.59 0 0 1 -.12.62 1.69 1.69 0 0 1 -1.2-1.22l-1.08-4.72a2.46 2.46 0 0 1 2.4-3z" fill="#425b72"/><path d="m6 16v10a5 5 0 0 1 -5-5 4.62 4.62 0 0 1 .1-1 5 5 0 0 1 4.9-4z" fill="#db5669"/><path d="m6 16v8a5 5 0 0 1 -4.9-4 5 5 0 0 1 4.9-4z" fill="#f26674"/><path d="m14 29h4v4h-4z" fill="#7c7d7d"/><path d="m18 31v1h-2a1 1 0 0 1 -1-1z" fill="#919191"/><path d="m22 13v14a13 13 0 0 1 -13-13v-1z" fill="#edebf2"/><path d="m10 25a1 1 0 0 1 -1-1v-7a1 1 0 0 1 2 0v7a1 1 0 0 1 -1 1z" fill="#425b72"/><g fill="#edebf2"><path d="m38 21a4 4 0 0 1 -4 4v-8a4 4 0 0 1 4 4z"/><path d="m46 22h-5a1 1 0 0 1 0-2h5a1 1 0 0 1 0 2z"/><path d="m38.66 16.34a1 1 0 0 1 -.71-.29 1 1 0 0 1 0-1.41l3.54-3.54a1 1 0 0 1 1.41 1.41l-3.54 3.54a1 1 0 0 1 -.7.29z"/><path d="m42.19 31.19a1 1 0 0 1 -.7-.29l-3.49-3.54a1 1 0 0 1 1.36-1.36l3.54 3.54a1 1 0 0 1 0 1.41 1 1 0 0 1 -.71.24z"/></g></g></svg>