<svg id="Capa_1" enable-background="new 0 0 512 512" height="512" viewBox="0 0 512 512" width="512" xmlns="http://www.w3.org/2000/svg"><g><path d="m319.058 233.197-56.073-28.13-57.417-57.417-45.99 52.539 311.81 311.81.566-24.527c2.473-107.188-57.062-206.199-152.896-254.275z" fill="#e2dfe2"/><g><path d="m185.766 103.952c3.266 3.479 6.524 6.965 9.766 10.468 11.922 12.885 12.379 32.597 1.102 46.062-4.214 5.03-8.623 9.848-13.236 14.461-4.622 4.622-9.439 9.031-14.461 13.236-13.465 11.276-33.176 10.819-46.062-1.103-3.503-3.241-6.99-6.5-10.468-9.766-32.67-30.694-64.238-62.491-94.695-95.398-11.923-12.884-12.372-32.587-1.095-46.052 8.411-10.044 17.646-19.279 27.698-27.698 13.464-11.276 33.168-10.827 46.053 1.095 32.907 30.457 64.703 62.025 95.398 94.695z" fill="#f4dd45"/><path d="m185.766 103.952c3.266 3.479 6.524 6.965 9.766 10.468 11.922 12.885 12.379 32.597 1.102 46.062-4.214 5.03-8.623 9.848-13.236 14.461-4.622 4.622-9.439 9.031-14.461 13.236-13.465 11.276-33.176 10.819-46.062-1.103-3.503-3.241-6.99-6.5-10.468-9.766 1.168-4.091 3.356-7.945 6.581-11.171l55.607-55.607c3.225-3.224 7.08-5.412 11.171-6.58z" fill="#ecc32e"/><path d="m179.455 177.661c1.519-.702 2.833-1.609 3.936-2.711-4.613 4.613-9.431 9.023-14.461 13.236-13.457 11.268-33.176 10.819-46.054-1.111-36.41-33.699-71.465-68.753-105.164-105.164-11.929-12.876-12.37-32.588-1.102-46.044 4.213-5.03 8.623-9.848 13.236-14.461-1.102 1.102-2.009 2.417-2.711 3.936-1.878 4.066 5.879 16.462 18.168 28.979 34.728 35.381 69.782 70.436 105.164 105.164 12.518 12.288 24.922 20.054 28.988 18.176z" fill="#ecc32e"/><path d="m187.222 123.164-28.256 28.254-22.728 30.046s-9.24 6.545-11.013 7.836c-2.794 8.903-.663 19.018 6.392 26.074 10.108 10.108 26.496 10.108 36.604 0l55.605-55.605c10.108-10.108 10.108-26.496 0-36.604-10.107-10.109-26.496-10.109-36.604-.001z" fill="#f4dd45"/><path d="m178.765 194.111c6.622-.008 13.245-2.531 18.299-7.586l-28.841 28.841c-5.054 5.054-11.685 7.586-18.299 7.586-6.63 0-13.252-2.523-18.307-7.578-10.109-10.109-10.101-26.497.008-36.606l28.841-28.841c-10.109 10.109-10.109 26.489 0 36.598 5.054 5.054 11.676 7.578 18.299 7.586z" fill="#ecc32e"/></g><path d="m352.427 200.184-311.816 311.816-.567-24.533c-.273-11.967.221-23.829 1.45-35.533 9.824-93.12 66.307-176.028 151.453-218.738l56.064-28.126 23.818-23.818 33.6-33.6z" fill="#efecef"/><path d="m352.427 200.184-30.333 30.333-49.265-49.266 33.6-33.601z" fill="#e2dfe2"/><path d="m250.176 302.434-209.565 209.566-.567-24.533c-.273-11.967.221-23.829 1.45-35.533 40.492-65.667 109.321-157.726 208.682-149.5z" fill="#e2dfe2"/><g><path d="m399.596 177.313c-3.479 3.266-6.965 6.524-10.468 9.766-12.885 11.922-32.597 12.379-46.062 1.102-5.03-4.214-9.848-8.623-14.461-13.236-4.622-4.622-9.031-9.439-13.236-14.461-11.276-13.465-10.819-33.176 1.103-46.062 3.241-3.503 6.5-6.99 9.766-10.468 30.694-32.67 62.491-64.238 95.398-94.695 12.885-11.922 32.589-12.371 46.053-1.094 10.044 8.411 19.279 17.646 27.698 27.698 11.277 13.465 10.827 33.168-1.094 46.054-30.459 32.906-62.027 64.702-94.697 95.396z" fill="#f4dd45"/><path d="m399.596 177.313c-3.479 3.266-6.965 6.524-10.468 9.766-12.885 11.922-32.597 12.379-46.062 1.102-5.03-4.214-9.848-8.623-14.461-13.236-4.622-4.622-9.031-9.439-13.236-14.461-11.276-13.465-10.819-33.176 1.103-46.062 3.241-3.503 6.5-6.99 9.766-10.468 4.091 1.168 7.945 3.356 11.171 6.581l55.607 55.607c3.224 3.226 5.412 7.08 6.58 11.171z" fill="#ecc32e"/><path d="m325.887 171.003c.702 1.519 1.609 2.833 2.711 3.936-4.613-4.613-9.023-9.431-13.236-14.461-11.268-13.457-10.819-33.176 1.111-46.054 33.699-36.41 68.753-71.465 105.164-105.164 12.877-11.93 32.589-12.371 46.045-1.102 5.03 4.213 9.848 8.623 14.461 13.236-1.102-1.102-2.417-2.009-3.936-2.711-4.066-1.878-16.462 5.879-28.979 18.168-35.381 34.728-70.436 69.782-105.164 105.164-12.289 12.518-20.055 24.921-18.177 28.988z" fill="#ecc32e"/><path d="m380.384 178.77-28.915-28.915-30.919-23.88s-4.718-7.668-6.196-9.169c-8.929-2.844-19.096-.724-26.179 6.359-10.108 10.108-10.108 26.496 0 36.604l55.605 55.605c10.108 10.108 26.496 10.108 36.604 0 10.108-10.108 10.108-26.496 0-36.604z" fill="#f4dd45"/><path d="m309.438 170.312c.008 6.622 2.531 13.245 7.586 18.299l-28.841-28.841c-5.054-5.054-7.586-11.685-7.586-18.299 0-6.63 2.523-13.252 7.578-18.307 10.109-10.109 26.497-10.101 36.606.008l28.841 28.841c-10.109-10.109-26.489-10.109-36.598 0-5.055 5.055-7.578 11.677-7.586 18.299z" fill="#ecc32e"/></g><circle cx="253.81" cy="245.739" fill="#365e7d" r="19.45"/></g></svg>