<?xml version="1.0" encoding="iso-8859-1"?>
<!-- Generator: Adobe Illustrator 19.0.0, SVG Export Plug-In . SVG Version: 6.00 Build 0)  -->
<svg xmlns="http://www.w3.org/2000/svg" xmlns:xlink="http://www.w3.org/1999/xlink" version="1.1" id="Layer_1" x="0px" y="0px" viewBox="0 0 491.52 491.52" style="enable-background:new 0 0 491.52 491.52;" xml:space="preserve">
<path style="fill:#FFFFFF;" d="M245.759,163.273c-45.556,0-82.487,36.93-82.487,82.486c0,45.557,36.931,82.487,82.487,82.487  c45.557,0,82.488-36.93,82.488-82.487C328.248,200.203,291.317,163.273,245.759,163.273z M245.761,295.477  c-27.458,0-49.717-22.259-49.717-49.717c0-27.457,22.259-49.716,49.717-49.716c27.456,0,49.717,22.259,49.717,49.716  C295.478,273.218,273.217,295.477,245.761,295.477z"/>
<circle style="fill:#D15241;" cx="245.76" cy="245.76" r="49.715"/>
<path style="fill:#E56353;" d="M380.923,220.554h-16.891c-3.117-14.694-8.936-28.37-16.858-40.561l11.983-11.983  c2.37-2.371,2.37-6.214,0-8.584l-27.062-27.062c-2.37-2.371-6.214-2.371-8.584,0l-11.983,11.984  c-12.192-7.923-25.869-13.74-40.563-16.858v-16.891c0-3.352-2.717-6.07-6.068-6.07h-38.273c-3.353,0-6.07,2.718-6.07,6.07v16.891  c-14.694,3.118-28.368,8.936-40.56,16.858l-11.986-11.984c-2.371-2.371-6.214-2.371-8.583,0l-27.062,27.062  c-2.371,2.371-2.371,6.214,0,8.584l11.984,11.983c-7.923,12.192-13.74,25.867-16.858,40.561h-16.891  c-3.351,0-6.068,2.718-6.068,6.07v38.272c0,3.352,2.717,6.07,6.068,6.07h16.891c3.119,14.694,8.935,28.37,16.858,40.561  l-11.984,11.983c-2.371,2.371-2.371,6.214,0,8.584l27.062,27.062c2.37,2.371,6.213,2.371,8.583,0l11.986-11.984  c12.192,7.923,25.865,13.741,40.56,16.858v16.891c0,3.352,2.717,6.069,6.07,6.069h38.273c3.351,0,6.068-2.717,6.068-6.069v-16.891  c14.694-3.117,28.371-8.936,40.563-16.858l11.983,11.984c2.37,2.371,6.214,2.371,8.584,0l27.062-27.062  c2.37-2.371,2.37-6.213,0-8.584l-11.983-11.983c7.922-12.192,13.74-25.867,16.858-40.561h16.891c3.352,0,6.068-2.718,6.068-6.07  v-38.272C386.991,223.272,384.275,220.554,380.923,220.554z M245.761,337.517c-50.677,0-91.757-41.081-91.757-91.757  c0-50.677,41.081-91.757,91.757-91.757c50.675,0,91.756,41.081,91.756,91.757C337.516,296.436,296.436,337.517,245.761,337.517z"/>
<path style="fill:#D15241;" d="M245.761,154.003c-50.677,0-91.757,41.081-91.757,91.757c0,50.676,41.081,91.757,91.757,91.757  c50.675,0,91.756-41.081,91.756-91.757C337.516,195.083,296.436,154.003,245.761,154.003z M245.759,328.246  c-45.556,0-82.487-36.93-82.487-82.487c0-45.556,36.931-82.486,82.487-82.486c45.557,0,82.488,36.93,82.488,82.486  C328.248,291.316,291.317,328.246,245.759,328.246z"/>
<g>
	<path style="fill:#64798A;" d="M37.488,174.236C56.592,118.595,96.215,73.735,149.06,47.904   c52.845-25.823,112.582-29.53,168.231-10.425c39.223,13.469,73.701,38.007,99.596,70.041l-62.19-6.639   c-6.909-0.769-13.238,4.302-13.983,11.285c-0.745,6.975,4.302,13.238,11.285,13.983l90.374,9.647   c0.447,0.049,0.902,0.075,1.349,0.075c0.275,0,0.532-0.119,0.806-0.138c0.899-0.055,1.788-0.206,2.67-0.457   c0.389-0.111,0.768-0.2,1.143-0.348c0.71-0.278,1.411-0.602,2.083-1.018c0.255-0.157,0.457-0.361,0.696-0.532   c0.184-0.133,0.409-0.185,0.587-0.328c0.206-0.166,0.366-0.374,0.559-0.552c0.165-0.149,0.316-0.308,0.471-0.464   c0.408-0.413,0.788-0.84,1.133-1.301c0.186-0.249,0.352-0.506,0.52-0.766c0.258-0.406,0.502-0.814,0.713-1.247   c0.175-0.354,0.319-0.715,0.459-1.083c0.138-0.367,0.272-0.731,0.376-1.111c0.135-0.48,0.225-0.966,0.302-1.46   c0.029-0.188,0.095-0.366,0.115-0.557l9.639-90.374c0.745-6.984-4.311-13.238-11.285-13.983   c-6.917-0.77-13.238,4.302-13.983,11.285l-6.143,57.603c-28.646-34.494-66.321-60.936-109.036-75.607   C263.478-7.862,196.841-3.733,137.907,25.068C78.956,53.877,34.757,103.926,13.444,165.979   c-3.979,11.591-7.107,24.151-9.556,38.398c-1.184,6.917,3.458,13.486,10.375,14.678c0.728,0.125,1.448,0.182,2.167,0.182   c6.073,0,11.443-4.368,12.51-10.557C31.158,195.789,33.946,184.521,37.488,174.236z"/>
	<path style="fill:#64798A;" d="M477.257,272.455c-6.818-1.167-13.478,3.45-14.678,10.375c-2.217,12.907-5.005,24.184-8.538,34.452   c-39.441,114.841-164.996,176.182-279.804,136.749c-39.404-13.531-74.027-38.23-99.959-70.483l62.685,6.691   c6.801,0.728,13.238-4.302,13.983-11.285c0.745-6.975-4.302-13.238-11.285-13.983l-90.375-9.647   c-5.627-0.613-10.812,2.657-12.968,7.651c-0.08,0.169-0.148,0.337-0.221,0.508c-0.131,0.346-0.257,0.692-0.358,1.054   c-0.399,1.246-0.624,2.536-0.627,3.851l-9.457,88.596c-0.745,6.975,4.302,13.238,11.285,13.983c0.455,0.05,0.91,0.075,1.366,0.075   c6.412,0,11.922-4.84,12.617-11.36l6.098-57.117c28.638,34.447,66.282,60.853,108.958,75.51   c26.153,8.977,53.126,13.445,79.991,13.445c36.868,0,73.546-8.415,107.65-25.078c58.951-28.809,103.15-78.849,124.463-140.902   c3.971-11.575,7.099-24.134,9.548-38.407C488.815,280.216,484.173,273.646,477.257,272.455z"/>
</g>
<g>
</g>
<g>
</g>
<g>
</g>
<g>
</g>
<g>
</g>
<g>
</g>
<g>
</g>
<g>
</g>
<g>
</g>
<g>
</g>
<g>
</g>
<g>
</g>
<g>
</g>
<g>
</g>
<g>
</g>
</svg>
