<svg id="Capa_1" enable-background="new 0 0 512 512" height="512" viewBox="0 0 512 512" width="512" xmlns="http://www.w3.org/2000/svg"><g><path d="m349.745 440.369-4.839-29.183c-1.863-11.233-4.593-22.305-8.166-33.116l-8.334-25.217c-6.094-18.438-1.275-38.736 12.456-52.467l42.213-42.213c8.821-8.822 13.777-20.786 13.777-33.262v-87.656c-7.539-.121-15.637-18.872-23.206-17.057-1.748.419-3.374 19.279-5.101 19.983v45.19c0 2.794-3.378 4.193-5.353 2.217l-18.78-18.78v-16.492c-2.655 1.02-6.771-11.145-9.597-10.74-6.395.918-11.791 12.447-18.71 10.933v22.161c0 3.754 1.491 7.354 4.146 10.008l32.9 32.899c8.418 8.418 8.418 22.066 0 30.485l-47.738 47.738c-3.787 3.787-8.923 5.914-14.278 5.914-11.152 0-20.193-9.04-20.193-20.193v-52.265l44.405-76.914c-6.545-1.434-12.594-13.833-19.147-13.39-4.426.298-9.473 12.536-13.945 14.094l-22.05 38.193c-1.518 2.63-5.313 2.63-6.832 0l-21.643-37.485c-5.145-1.864-10.95-14.459-16.03-14.802-5.949-.401-11.277 11.706-17.235 12.995l-.244.381 44.414 76.927v35.266c0 11.926-12.91 19.379-23.238 13.416l-59.379-34.283c-2.576-1.487-4.163-4.236-4.163-7.211v-9.156c0-5.781 1.658-11.441 4.777-16.308l37.589-58.652-.168-.291c-7.665 1.666-12.22-12.072-19.279-13.085-3.669-.526-10.15 13.88-13.543 12.392l-15.908 24.821c-1.302 2.032-4.383 1.626-5.115-.673l-12.107-38.038c-10.369-1.044-20.129-10.131-30.016-.974l24.331 76.446c.751 2.359 1.133 4.819 1.133 7.294v13.422c0 14.821 7.907 28.516 20.742 35.927l16.533 9.545c21.098 12.181 30.745 37.502 23.1 60.634l-12.665 38.321c-3.573 10.81-6.303 21.881-8.165 33.113l-4.839 29.184c-2.576 15.535-9.948 29.874-21.083 41.009l-28.902 28.906c-.635.635-.185 1.72.712 1.72h286.035c.897 0 1.347-1.085.712-1.72l-28.903-28.903c-11.134-11.134-18.505-25.474-21.081-41.008z" fill="#9d6b6b"/><path d="m399.73 510.28-28.903-28.903c-11.135-11.135-18.507-25.474-21.083-41.009l-4.839-29.183c-1.863-11.233-4.593-22.305-8.166-33.116l-8.334-25.217c-6.094-18.438-1.275-38.736 12.456-52.467l42.213-42.213c8.821-8.822 13.777-20.786 13.777-33.262v-87.656c-7.539-.121-15.637-18.872-23.206-17.057-1.748.419-3.374 19.279-5.101 19.983v45.19c0 2.794-3.378 4.193-5.353 2.217l-18.78-18.78v-16.492c-2.655 1.02-6.771-11.145-9.597-10.74-6.395.918-11.791 12.447-18.71 10.933v22.161c0 3.754 1.491 7.354 4.146 10.008l32.9 32.899c8.418 8.418 8.418 22.066 0 30.485l-47.738 47.738c-3.787 3.787-8.923 5.914-14.278 5.914-1.488 0-2.938-.161-4.334-.467-3.005 9.944-2.988 20.759.397 30.999l8.334 25.217c3.573 10.811 6.303 21.883 8.166 33.116l4.839 29.183c2.576 15.535 9.948 29.874 21.083 41.009l10.483 10.483c7.432 7.432 2.169 20.14-8.342 20.14h-200.606l-18.884 18.887c-.635.635-.185 1.72.712 1.72h286.035c.898 0 1.347-1.085.713-1.72z" fill="#8b5e5e"/><path d="m263.041 390.839c4.268 0 7.726 3.459 7.726 7.726v33.305c0 4.268-3.459 7.726-7.726 7.726-4.268 0-7.726-3.459-7.726-7.726v-33.305c0-4.267 3.459-7.726 7.726-7.726zm38.532 25.824 3.888 23.452c.628 3.782 3.902 6.464 7.614 6.464.42 0 .845-.034 1.273-.105 4.21-.698 7.056-4.677 6.359-8.886l-3.889-23.453c-2.566-15.47-6.889-30.513-12.847-44.713-1.652-3.935-6.18-5.785-10.115-4.135-3.935 1.651-5.786 6.179-4.135 10.115 5.494 13.093 9.482 26.975 11.852 41.261zm-49.235-100.143h-.032c-4.253 0-7.708 3.439-7.726 7.695-.041 9.95-1.649 19.799-4.781 29.274l-7.899 23.899c-1.339 4.051.86 8.422 4.911 9.761.805.266 1.622.392 2.426.392 3.242 0 6.262-2.057 7.335-5.304l7.899-23.899c3.643-11.021 5.515-22.481 5.562-34.06.016-4.267-3.428-7.741-7.695-7.758zm18.43 144.584c0-4.268-3.459-7.726-7.726-7.726-4.268 0-7.726 3.459-7.726 7.726v50.896h15.453v-50.896zm-103.284 50.896c20.253-16.896 33.78-40.079 38.103-66.154l4.84-29.185c.698-4.209-2.148-8.188-6.358-8.886-4.206-.69-8.188 2.149-8.886 6.359l-4.84 29.185c-4.821 29.079-23.046 54.013-49.999 68.407-.162.086-.318.178-.471.274z" fill="#8b5e5e"/><g fill="#785252"><path d="m186.677 491.396h-19.915c-7.411 8.036-16.3 14.926-26.418 20.33-.162.086-.318.178-.471.274h27.612c7.313-6.101 13.749-13.023 19.192-20.604z"/><path d="m297.798 364.743c2.482 8.485 4.453 17.113 5.9 25.839l4.839 29.183c1.489 8.978 4.58 17.558 9.073 25.35 2.299-1.664 3.592-4.537 3.097-7.527l-3.889-23.453c-2.566-15.47-6.889-30.513-12.847-44.713-1.11-2.644-3.519-4.347-6.173-4.679z"/><path d="m255.315 491.396h15.453v20.604h-15.453z"/></g><path d="m464.548 80.021c0 11.634-5.857 19.12-19.062 28.966-9.13 6.807-16.809 20.697-30.976 26.195-11.351 4.406-26.774-.064-40.755 3.287-12.225 2.93-23.698 14.071-37.549 16.059-12.67 1.818-26.868-5.547-40.611-4.62-12.921.871-25.959 10.134-39.594 10.134-13.634 0-26.672-9.262-39.592-10.134-13.743-.927-27.941 6.438-40.611 4.62-13.853-1.988-25.328-13.129-37.554-16.06-13.982-3.352-29.405 1.118-40.756-3.288-14.166-5.499-21.844-19.388-30.974-26.195-13.204-9.845-19.06-17.331-19.06-28.964 0-11.634 5.857-19.12 19.062-28.966 9.13-6.807 16.809-20.697 30.976-26.195 11.351-4.406 26.774.064 40.755-3.287 12.225-2.93 23.698-14.071 37.549-16.059 12.67-1.818 26.868 5.547 40.611 4.62 12.92-.872 25.959-10.134 39.593-10.134s26.672 9.262 39.592 10.134c13.743.927 27.941-6.438 40.611-4.62 13.853 1.988 25.328 13.129 37.554 16.06 13.982 3.352 29.405-1.118 40.756 3.288 14.166 5.499 21.844 19.388 30.974 26.195 13.204 9.845 19.061 17.331 19.061 28.964z" fill="#478089"/><path d="m445.487 51.057c-9.13-6.807-16.808-20.696-30.974-26.195-5.381-2.089-11.678-2.183-18.302-2.061 2.702 2.911 5.32 5.603 8.069 7.653 13.204 9.845 19.06 17.331 19.06 28.965s-5.857 19.12-19.062 28.966c-9.13 6.807-16.809 20.697-30.976 26.195-11.351 4.406-26.774-.064-40.755 3.287-12.225 2.93-23.699 14.071-37.549 16.059-12.67 1.818-26.868-5.547-40.611-4.62-12.921.871-25.959 10.134-39.594 10.134-13.634 0-26.672-9.262-39.592-10.134-13.743-.927-27.941 6.438-40.611 4.62-13.853-1.988-25.328-13.129-37.554-16.06-7.353-1.763-15.105-1.362-22.454-1.227 6.273 6.758 13.004 14.699 22.905 18.542 11.351 4.406 26.774-.063 40.756 3.288 12.226 2.931 23.701 14.072 37.554 16.06 12.67 1.818 26.868-5.547 40.611-4.62 12.921.871 25.958 10.134 39.592 10.134s26.673-9.263 39.594-10.134c13.743-.927 27.941 6.438 40.611 4.62 13.851-1.987 25.325-13.128 37.549-16.059 13.981-3.351 29.404 1.118 40.755-3.287 14.167-5.499 21.846-19.388 30.976-26.195 13.205-9.846 19.062-17.332 19.062-28.966.001-11.634-5.856-19.12-19.06-28.965z" fill="#3d6b73"/><g><g><path d="m204.06 116.864c-3.871 0-7.742-.865-11.349-2.596l-9.285-4.457c-3.007-1.443-6.319-1.443-9.326.001l-9.265 4.45c-7.214 3.467-15.491 3.467-22.707.001l-17.28-8.297c-3.847-1.847-5.468-6.463-3.621-10.309 1.848-3.847 6.463-5.469 10.309-3.621l17.28 8.297c3.009 1.443 6.322 1.444 9.328-.001l9.265-4.45c7.215-3.464 15.49-3.465 22.704-.003l9.285 4.457c3.006 1.443 6.317 1.443 9.323 0l17.293-8.301c3.848-1.847 8.462-.226 10.309 3.623 1.847 3.846.225 8.462-3.622 10.309l-17.293 8.301c-3.606 1.731-7.477 2.596-11.348 2.596z" fill="#3d6b73"/></g></g><g><g><path d="m375.93 68.165c-1.122 0-2.26-.245-3.338-.763l-17.293-8.3c-3.007-1.444-6.32-1.443-9.325 0l-9.285 4.457c-7.215 3.463-15.489 3.461-22.704-.004l-9.264-4.45c-3.008-1.445-6.321-1.444-9.329-.001l-17.28 8.297c-3.847 1.847-8.463.226-10.309-3.621-1.847-3.846-.226-8.462 3.621-10.309l17.28-8.297c7.214-3.466 15.492-3.464 22.706.001l9.266 4.45c3.009 1.446 6.32 1.445 9.327.002l9.285-4.457c7.211-3.461 15.484-3.461 22.697 0l17.293 8.3c3.847 1.847 5.469 6.462 3.623 10.309-1.33 2.769-4.093 4.386-6.971 4.386z" fill="#3d6b73"/></g></g></g></svg>