<svg id="Capa_1" enable-background="new 0 0 512 512" height="512" viewBox="0 0 512 512" width="512" xmlns="http://www.w3.org/2000/svg"><g><g><path d="m271.839 32.148c16.23 22.578 18.107 33.875 18.107 40.408 0 24.831-20.202 45.033-45.033 45.033-.024 0-.048-.002-.072-.002l-15.393-52.861 15.349-64.726s18.965 20.912 27.042 32.148z" fill="#74dbf2"/><path d="m199.88 72.557c0-6.533 1.877-17.83 18.107-40.408 7.727-10.749 25.3-30.459 26.81-32.148l.044 117.588c-24.798-.041-44.961-20.225-44.961-45.032z" fill="#98f9fd"/></g><g><g><path d="m.08 484.525 174.932-147.385 44.115 44.115 68.661-68.661c12.274-12.274 32.173-12.274 44.447 0 12.274 12.274 12.274 32.173 0 44.447l-119.873 119.871c-22.466 22.467-52.937 35.088-84.709 35.088h-127.653z" fill="#ebaf97"/><g><g><g><g><g><g><g><g><path d="" fill="none" stroke="#000" stroke-miterlimit="10" stroke-width="30"/></g></g></g></g><g><g><g><g><path d="" fill="none" stroke="#000" stroke-miterlimit="10" stroke-width="30"/></g></g></g></g></g></g></g><path d="m269.275 242.876-21.295-67.802-20.269 20.269c9.218-12.309 8.236-29.838-2.955-41.03-12.274-12.274-32.173-12.274-44.447 0l-106.625 106.626 29.468 29.468-42.873 42.873 33.916 84.677 110.437-110.438 24.759 10.253-12.283-22.729z" fill="#f3bda2"/></g><path d="m0 512v-150.687c0-26.49 10.523-51.895 29.255-70.627l53.171-53.171c14.519-14.519 38.561-14.796 52.799-.001 13.799 14.337 13.632 37.146-.5 51.278l-40.53 40.53c24.375 24.375 24.375 64.26 0 88.635z" fill="#f8cfb4"/></g><g><path d="m511.92 484.524-163.747-136.2-35.01-62.557-78.695-51.148c-12.274-12.274-31.841-12.606-44.115-.332-12.274 12.274-12.274 32.173 0 44.447l33.858 33.858c-12.274-12.274-32.173-12.274-44.447 0-12.274 12.274-12.274 32.173 0 44.447l119.873 119.873c22.467 22.467 52.938 35.088 84.71 35.088h127.653z" fill="#f9dac5"/><g><g><g><g><g><g><g><g><path d="" fill="none" stroke="#000" stroke-miterlimit="10" stroke-width="30"/></g></g></g></g><g><g><g><g><path d="" fill="none" stroke="#000" stroke-miterlimit="10" stroke-width="30"/></g></g></g></g></g></g></g><path d="m400.39 281.949 29.468-29.468-106.625-106.625c-12.274-12.274-32.173-12.274-44.447 0-11.191 11.191-12.173 28.72-2.955 41.03l-28.432-28.432c-12.274-12.274-32.173-12.273-44.447 0-12.073 12.073-12.378 31.635 6.379 51.029l208.474 208.475 33.916-84.677z" fill="#fbe5d5"/></g><path d="m512 512v-150.687c0-26.49-10.523-51.895-29.255-70.627l-53.171-53.171c-14.519-14.519-38.561-14.796-52.799-.001-13.799 14.337-13.632 37.146.5 51.278l40.53 40.53c-24.375 24.375-24.375 64.26 0 88.635z" fill="#f8cfb4"/></g></g></g></svg>