<svg enable-background="new 0 0 24 24" height="512" viewBox="0 0 24 24" width="512" xmlns="http://www.w3.org/2000/svg"><path d="m13.841 11.767c.635-1.078 1.853-1.767 3.159-1.767s2.526.694 3.186 1.811l1.013 1.646c.486-.414.801-1.021.801-1.707v-9.15l-10.16 5.03c-.52.26-1.16.26-1.68 0l-10.16-5.03v9.15c0 1.24 1.01 2.25 2.25 2.25h10.217z" fill="#eceff1"/><path d="m22 2.25v.6l-10.16 5.03c-.52.26-1.16.26-1.68 0l-10.16-5.03v-.6c0-1.24 1.01-2.25 2.25-2.25h17.5c1.24 0 2.25 1.01 2.25 2.25z" fill="#b0bec5"/><path d="m23.745 21.406-5.282-8.579c-.301-.51-.862-.827-1.463-.827s-1.162.317-1.456.815l-5.273 8.566c-.177.265-.271.581-.271.914 0 .94.768 1.705 1.711 1.705h10.577c.944 0 1.712-.765 1.712-1.705 0-.333-.094-.649-.255-.889z" fill="#ffc107"/><g fill="#fafafa"><circle cx="17" cy="21.25" r=".75"/><path d="m17.75 18.75c0 .414-.336.75-.75.75s-.75-.336-.75-.75v-3c0-.414.336-.75.75-.75s.75.336.75.75z"/></g></svg>