<?xml version="1.0" encoding="iso-8859-1"?>
<!-- Generator: Adobe Illustrator 19.0.0, SVG Export Plug-In . SVG Version: 6.00 Build 0)  -->
<svg xmlns="http://www.w3.org/2000/svg" xmlns:xlink="http://www.w3.org/1999/xlink" version="1.1" id="Layer_1" x="0px" y="0px" viewBox="0 0 512 512" style="enable-background:new 0 0 512 512;" xml:space="preserve">
<path style="fill:#6B77E8;" d="M407.51,512H104.49c-8.657,0-15.673-7.019-15.673-15.673V15.673C88.816,7.016,95.833,0,104.49,0  h303.02c8.655,0,15.673,7.016,15.673,15.673v480.653C423.184,504.981,416.165,512,407.51,512z"/>
<path style="fill:#4B5BE4;" d="M407.51,0H267.061v512H407.51c8.655,0,15.673-7.019,15.673-15.673V15.673  C423.184,7.016,416.165,0,407.51,0z"/>
<path style="fill:#A2D8F4;" d="M359.445,403.331h-206.89c-8.657,0-15.673-7.019-15.673-15.673V63.739  c0-8.657,7.016-15.673,15.673-15.673h206.89c8.655,0,15.673,7.016,15.673,15.673v323.918  C375.118,396.312,368.1,403.331,359.445,403.331z"/>
<path style="fill:#4BB9EC;" d="M359.445,48.065h-92.384v355.265h92.384c8.655,0,15.673-7.019,15.673-15.673V63.739  C375.118,55.082,368.1,48.065,359.445,48.065z"/>
<path style="fill:#FF0536;" d="M267.061,322.693c-3.743,0-7.484-1.332-10.462-4.002c-1.044-0.935-25.78-23.275-44.014-54.375  c-26.106-44.528-26.229-84.917-0.351-116.801c13.645-16.813,33.629-26.456,54.827-26.456s41.181,9.643,54.828,26.456  c25.874,31.885,25.752,72.273-0.355,116.801c-18.232,31.098-42.967,53.439-44.012,54.375  C274.547,321.358,270.804,322.693,267.061,322.693z"/>
<path style="fill:#E70020;" d="M321.889,147.514c-13.647-16.813-33.631-26.456-54.828-26.456v201.635  c3.743,0,7.486-1.334,10.46-4.002c1.045-0.937,25.78-23.277,44.012-54.375C347.641,219.788,347.763,179.399,321.889,147.514z"/>
<path style="fill:#E0E0E2;" d="M293.141,181.183c-6.963-6.958-16.226-10.79-26.082-10.79c-9.859,0-19.121,3.834-26.075,10.792  c-6.961,6.96-10.796,16.223-10.796,26.084c0,9.86,3.835,19.123,10.796,26.084c6.959,6.957,16.22,10.79,26.076,10.79  c9.855,0,19.118-3.833,26.084-10.795C307.522,218.967,307.522,195.567,293.141,181.183z"/>
<path style="fill:#C7C5CA;" d="M293.141,181.183c-6.963-6.958-16.225-10.79-26.08-10.79v73.749c9.855,0,19.117-3.833,26.083-10.795  C307.522,218.967,307.522,195.567,293.141,181.183z"/>
<circle style="fill:#565659;" cx="267.055" cy="457.665" r="28.212"/>
<path style="fill:#434349;" d="M295.27,457.663c0-15.578-12.631-28.211-28.209-28.212v56.427  C282.64,485.876,295.27,473.244,295.27,457.663z"/>
<g>
</g>
<g>
</g>
<g>
</g>
<g>
</g>
<g>
</g>
<g>
</g>
<g>
</g>
<g>
</g>
<g>
</g>
<g>
</g>
<g>
</g>
<g>
</g>
<g>
</g>
<g>
</g>
<g>
</g>
</svg>
