<svg id="Capa_1" enable-background="new 0 0 510.067 510.067" height="512" viewBox="0 0 510.067 510.067" width="512" xmlns="http://www.w3.org/2000/svg"><g><g><path d="m80.048 17.145-24.736 50.122-55.312 8.037 40.024 39.014-9.448 55.088 49.472-26.009 30.024-39.079z" fill="#ffda44"/><path d="m160.097 75.304-55.312-8.037-24.737-50.122v126.252l49.473 26.009-9.449-55.088z" fill="#ff9f22"/></g><g><path d="m80.048 178.903-24.736 50.121-55.312 8.038 40.024 39.013-9.448 55.089 49.472-26.009 30.024-39.08z" fill="#ffda44"/><path d="m160.097 237.062-55.312-8.038-24.737-50.121v126.252l49.473 26.009-9.449-55.088z" fill="#ff9f22"/></g><g><path d="m255.034 178.903-24.737 50.121-55.312 8.038 40.024 39.013-9.448 55.089 49.473-26.009 30.024-39.08z" fill="#ffda44"/><path d="m335.082 237.062-55.312-8.038-24.736-50.121v126.252l49.472 26.009-9.448-55.088z" fill="#ff9f22"/></g><g><path d="m80.048 340.661-24.736 50.121-55.312 8.037 40.024 39.014-9.448 55.089 49.472-26.01 30.024-39.079z" fill="#ffda44"/><path d="m160.097 398.819-55.312-8.037-24.737-50.121v126.251l49.473 26.01-9.449-55.089z" fill="#ff9f22"/></g><g><path d="m255.034 340.661-24.737 50.121-55.312 8.037 40.024 39.014-9.448 55.089 49.473-26.01 30.024-39.079z" fill="#ffda44"/><path d="m335.082 398.819-55.312-8.037-24.736-50.121v126.251l49.472 26.01-9.448-55.089z" fill="#ff9f22"/></g><g><path d="m430.019 340.661-24.737 50.121-55.312 8.037 40.025 39.014-9.449 55.089 49.473-26.01 30.024-39.079z" fill="#ffda44"/><path d="m510.067 398.819-55.312-8.037-24.736-50.121v126.251l49.472 26.01-9.448-55.089z" fill="#ff9f22"/></g></g></svg>