<?xml version="1.0" encoding="iso-8859-1"?>
<!-- Generator: Adobe Illustrator 19.0.0, SVG Export Plug-In . SVG Version: 6.00 Build 0)  -->
<svg xmlns="http://www.w3.org/2000/svg" xmlns:xlink="http://www.w3.org/1999/xlink" version="1.1" id="Capa_1" x="0px" y="0px" viewBox="0 0 512 512" style="enable-background:new 0 0 512 512;" xml:space="preserve">
<path style="fill:#FFB3C1;" d="M481.095,24.209h-30.905v370.865h30.905c16.998,0,30.905-13.907,30.905-30.905V55.115  C512,38.117,498.093,24.209,481.095,24.209z"/>
<path style="fill:#FDDBDF;" d="M450.189,24.209H30.905C13.907,24.209,0,38.117,0,55.115v309.054  c0,16.998,13.907,30.905,30.905,30.905h178.736v92.716l92.716-92.716h147.831c16.998,0,30.905-13.907,30.905-30.905V55.115  C481.095,38.117,467.187,24.209,450.189,24.209z"/>
<path style="fill:#D6112E;" d="M319.418,75.203c-2.545,0-5.058,0.113-7.541,0.35L256.031,344.07  c1.102-0.649,36.85-21.531,72.597-54.888c36.304-33.883,72.617-80.653,72.628-132.141  C401.256,111.847,364.622,75.203,319.418,75.203z"/>
<path style="fill:#FF0F3B;" d="M311.877,75.553c32.791,3.812,58.473,38.848,58.473,81.487  c-0.021,102.05-112.279,185.505-114.319,187.029c-0.041,0.01-145.266-84.042-145.286-187.029c0-45.194,36.633-81.838,81.838-81.838  c25.579,0,48.408,11.734,63.418,30.112C269.516,88.76,289.378,77.604,311.877,75.553z"/>
<g>
</g>
<g>
</g>
<g>
</g>
<g>
</g>
<g>
</g>
<g>
</g>
<g>
</g>
<g>
</g>
<g>
</g>
<g>
</g>
<g>
</g>
<g>
</g>
<g>
</g>
<g>
</g>
<g>
</g>
</svg>
