<?xml version="1.0" encoding="iso-8859-1"?>
<!-- Generator: Adobe Illustrator 19.0.0, SVG Export Plug-In . SVG Version: 6.00 Build 0)  -->
<svg version="1.1" id="Capa_1" xmlns="http://www.w3.org/2000/svg" xmlns:xlink="http://www.w3.org/1999/xlink" x="0px" y="0px"
	 viewBox="0 0 512.004 512.004" style="enable-background:new 0 0 512.004 512.004;" xml:space="preserve">
<path style="fill:#C6E2F7;" d="M290.135,344.22V46.936c0-18.85-15.283-34.133-34.133-34.133l0,0
	c-18.85,0-34.133,15.283-34.133,34.133V344.22c-33.553,14.669-55.876,50.253-50.364,90.3c5.239,38.025,36.617,68.463,74.769,72.678
	c51.482,5.692,95.061-34.466,95.061-84.796C341.335,387.416,320.258,357.387,290.135,344.22z"/>
<path style="fill:#FFFFFF;" d="M256.002,396.803c-4.71,0-8.533-3.823-8.533-8.533v-85.333c0-4.71,3.823-8.533,8.533-8.533
	c4.71,0,8.533,3.823,8.533,8.533v85.333C264.535,392.98,260.713,396.803,256.002,396.803z"/>
<g>
	<path style="fill:#AFB6BB;" d="M426.669,302.936c-18.825,0-34.133-15.309-34.133-34.133s15.309-34.133,34.133-34.133
		s34.133,15.309,34.133,34.133S445.493,302.936,426.669,302.936z M426.669,251.736c-9.412,0-17.067,7.654-17.067,17.067
		s7.654,17.067,17.067,17.067s17.067-7.654,17.067-17.067S436.081,251.736,426.669,251.736z"/>
	<path style="fill:#AFB6BB;" d="M426.669,251.736c-4.71,0-8.533-3.823-8.533-8.533v-34.133c0-4.71,3.823-8.533,8.533-8.533
		s8.533,3.823,8.533,8.533v34.133C435.202,247.913,431.379,251.736,426.669,251.736z"/>
	<path style="fill:#AFB6BB;" d="M426.669,217.603c-2.185,0-4.369-0.836-6.033-2.5l-17.067-17.067c-3.337-3.337-3.337-8.73,0-12.066
		c3.328-3.337,8.738-3.337,12.066,0l17.067,17.067c3.337,3.337,3.337,8.73,0,12.066
		C431.038,216.766,428.853,217.603,426.669,217.603z"/>
	<path style="fill:#AFB6BB;" d="M426.669,217.603c-2.185,0-4.369-0.836-6.033-2.5c-3.337-3.337-3.337-8.73,0-12.066l17.067-17.067
		c3.328-3.337,8.738-3.337,12.066,0c3.337,3.337,3.337,8.73,0,12.066l-17.067,17.067
		C431.038,216.766,428.853,217.603,426.669,217.603z"/>
	<path style="fill:#AFB6BB;" d="M426.669,337.069c-4.71,0-8.533-3.823-8.533-8.533v-34.133c0-4.71,3.823-8.533,8.533-8.533
		s8.533,3.823,8.533,8.533v34.133C435.202,333.246,431.379,337.069,426.669,337.069z"/>
	<path style="fill:#AFB6BB;" d="M443.736,354.136c-2.185,0-4.369-0.836-6.033-2.5l-17.067-17.067c-3.337-3.337-3.337-8.73,0-12.066
		c3.328-3.337,8.738-3.337,12.066,0l17.067,17.067c3.337,3.337,3.337,8.73,0,12.066C448.105,353.3,445.92,354.136,443.736,354.136z"
		/>
	<path style="fill:#AFB6BB;" d="M409.602,354.136c-2.185,0-4.369-0.836-6.033-2.5c-3.337-3.337-3.337-8.73,0-12.066l17.067-17.067
		c3.328-3.337,8.738-3.337,12.066,0c3.337,3.337,3.337,8.73,0,12.066l-17.067,17.067C413.971,353.3,411.787,354.136,409.602,354.136
		z"/>
	<path style="fill:#AFB6BB;" d="M486.402,277.336h-34.133c-4.71,0-8.533-3.823-8.533-8.533c0-4.71,3.823-8.533,8.533-8.533h34.133
		c4.71,0,8.533,3.823,8.533,8.533C494.935,273.513,491.113,277.336,486.402,277.336z"/>
	<path style="fill:#AFB6BB;" d="M486.402,277.336c-2.185,0-4.369-0.836-6.033-2.5c-3.337-3.337-3.337-8.73,0-12.066l17.067-17.067
		c3.328-3.337,8.738-3.337,12.066,0c3.337,3.337,3.337,8.73,0,12.066l-17.067,17.067C490.771,276.5,488.587,277.336,486.402,277.336
		z"/>
	<path style="fill:#AFB6BB;" d="M503.469,294.403c-2.185,0-4.369-0.836-6.033-2.5l-17.067-17.067c-3.337-3.337-3.337-8.73,0-12.066
		c3.328-3.337,8.738-3.337,12.066,0l17.067,17.067c3.337,3.337,3.337,8.73,0,12.066
		C507.838,293.566,505.653,294.403,503.469,294.403z"/>
	<path style="fill:#AFB6BB;" d="M401.069,277.336h-34.133c-4.71,0-8.533-3.823-8.533-8.533c0-4.71,3.823-8.533,8.533-8.533h34.133
		c4.71,0,8.533,3.823,8.533,8.533C409.602,273.513,405.779,277.336,401.069,277.336z"/>
	<path style="fill:#AFB6BB;" d="M349.869,294.403c-2.185,0-4.369-0.836-6.033-2.5c-3.337-3.337-3.337-8.73,0-12.066l17.067-17.067
		c3.328-3.337,8.738-3.337,12.066,0c3.337,3.337,3.337,8.73,0,12.066l-17.067,17.067
		C354.238,293.566,352.053,294.403,349.869,294.403z"/>
	<path style="fill:#AFB6BB;" d="M366.935,277.336c-2.185,0-4.369-0.836-6.033-2.5l-17.067-17.067c-3.337-3.337-3.337-8.73,0-12.066
		c3.328-3.337,8.738-3.337,12.066,0l17.067,17.067c3.337,3.337,3.337,8.73,0,12.066C371.305,276.5,369.12,277.336,366.935,277.336z"
		/>
	<path style="fill:#AFB6BB;" d="M408.57,259.237c-2.185,0-4.369-0.836-6.033-2.5l-24.567-24.567c-3.337-3.337-3.337-8.73,0-12.066
		c3.328-3.337,8.738-3.337,12.066,0l24.568,24.567c3.337,3.337,3.337,8.73,0,12.066C412.939,258.409,410.754,259.237,408.57,259.237
		z"/>
	<path style="fill:#AFB6BB;" d="M444.768,259.237c-2.185,0-4.369-0.836-6.033-2.5c-3.337-3.337-3.337-8.73,0-12.066l24.568-24.567
		c3.328-3.337,8.738-3.337,12.066,0c3.337,3.337,3.337,8.73,0,12.066l-24.567,24.567
		C449.137,258.409,446.944,259.237,444.768,259.237z"/>
	<path style="fill:#AFB6BB;" d="M469.335,320.003c-2.185,0-4.369-0.836-6.033-2.5l-24.568-24.567c-3.337-3.337-3.337-8.73,0-12.066
		c3.328-3.337,8.738-3.337,12.066,0l24.567,24.568c3.337,3.337,3.337,8.73,0,12.066C473.705,319.166,471.52,320.003,469.335,320.003
		z"/>
	<path style="fill:#AFB6BB;" d="M384.002,320.003c-2.185,0-4.369-0.836-6.033-2.5c-3.337-3.337-3.337-8.73,0-12.066l24.567-24.568
		c3.328-3.337,8.738-3.337,12.066,0c3.337,3.337,3.337,8.73,0,12.066l-24.568,24.567
		C388.371,319.166,386.187,320.003,384.002,320.003z"/>
</g>
<g>
	<path style="fill:#E7ECED;" d="M85.335,123.736c-18.825,0-34.133-15.309-34.133-34.133s15.309-34.133,34.133-34.133
		s34.133,15.309,34.133,34.133S104.16,123.736,85.335,123.736z M85.335,72.536c-9.412,0-17.067,7.654-17.067,17.067
		s7.654,17.067,17.067,17.067s17.067-7.654,17.067-17.067S94.748,72.536,85.335,72.536z"/>
	<path style="fill:#E7ECED;" d="M85.335,72.536c-4.71,0-8.533-3.823-8.533-8.533V29.869c0-4.71,3.823-8.533,8.533-8.533
		s8.533,3.823,8.533,8.533v34.133C93.869,68.713,90.046,72.536,85.335,72.536z"/>
	<path style="fill:#E7ECED;" d="M85.335,38.403c-2.185,0-4.369-0.836-6.033-2.5L62.236,18.836c-3.337-3.337-3.337-8.73,0-12.066
		c3.328-3.337,8.738-3.337,12.066,0l17.067,17.067c3.337,3.337,3.337,8.73,0,12.066C89.705,37.566,87.52,38.403,85.335,38.403z"/>
	<path style="fill:#E7ECED;" d="M85.335,38.403c-2.185,0-4.369-0.836-6.033-2.5c-3.337-3.337-3.337-8.73,0-12.066L96.369,6.77
		c3.328-3.337,8.738-3.337,12.066,0c3.337,3.337,3.337,8.73,0,12.066L91.369,35.902C89.705,37.566,87.52,38.403,85.335,38.403z"/>
	<path style="fill:#E7ECED;" d="M85.335,157.869c-4.71,0-8.533-3.823-8.533-8.533v-34.133c0-4.71,3.823-8.533,8.533-8.533
		s8.533,3.823,8.533,8.533v34.133C93.869,154.046,90.046,157.869,85.335,157.869z"/>
	<path style="fill:#E7ECED;" d="M102.402,174.936c-2.185,0-4.369-0.836-6.033-2.5l-17.067-17.067c-3.337-3.337-3.337-8.73,0-12.066
		c3.328-3.337,8.738-3.337,12.066,0l17.067,17.067c3.337,3.337,3.337,8.73,0,12.066C106.771,174.1,104.587,174.936,102.402,174.936z
		"/>
	<path style="fill:#E7ECED;" d="M68.269,174.936c-2.185,0-4.369-0.836-6.033-2.5c-3.337-3.337-3.337-8.73,0-12.066l17.067-17.067
		c3.328-3.337,8.738-3.337,12.066,0c3.337,3.337,3.337,8.73,0,12.066l-17.067,17.067C72.638,174.1,70.453,174.936,68.269,174.936z"
		/>
	<path style="fill:#E7ECED;" d="M145.069,98.136h-34.133c-4.71,0-8.533-3.823-8.533-8.533c0-4.71,3.823-8.533,8.533-8.533h34.133
		c4.71,0,8.533,3.823,8.533,8.533C153.602,94.313,149.779,98.136,145.069,98.136z"/>
	<path style="fill:#E7ECED;" d="M145.069,98.136c-2.185,0-4.369-0.836-6.033-2.5c-3.337-3.337-3.337-8.73,0-12.066l17.067-17.067
		c3.328-3.337,8.738-3.337,12.066,0c3.337,3.337,3.337,8.73,0,12.066l-17.067,17.067C149.438,97.3,147.253,98.136,145.069,98.136z"
		/>
	<path style="fill:#E7ECED;" d="M162.135,115.203c-2.185,0-4.369-0.836-6.033-2.5l-17.067-17.067c-3.337-3.337-3.337-8.73,0-12.066
		c3.328-3.337,8.738-3.337,12.066,0l17.067,17.067c3.337,3.337,3.337,8.73,0,12.066C166.505,114.366,164.32,115.203,162.135,115.203
		z"/>
	<path style="fill:#E7ECED;" d="M59.735,98.136H25.602c-4.71,0-8.533-3.823-8.533-8.533c0-4.71,3.823-8.533,8.533-8.533h34.133
		c4.71,0,8.533,3.823,8.533,8.533C68.269,94.313,64.446,98.136,59.735,98.136z"/>
	<path style="fill:#E7ECED;" d="M8.535,115.203c-2.185,0-4.369-0.836-6.033-2.5c-3.337-3.337-3.337-8.73,0-12.066L19.569,83.57
		c3.328-3.337,8.738-3.337,12.066,0c3.337,3.337,3.337,8.73,0,12.066l-17.067,17.067C12.905,114.366,10.72,115.203,8.535,115.203z"
		/>
	<path style="fill:#E7ECED;" d="M25.602,98.136c-2.185,0-4.369-0.836-6.033-2.5L2.502,78.569c-3.337-3.337-3.337-8.73,0-12.066
		c3.328-3.337,8.738-3.337,12.066,0L31.635,83.57c3.337,3.337,3.337,8.73,0,12.066C29.971,97.3,27.787,98.136,25.602,98.136z"/>
	<path style="fill:#E7ECED;" d="M67.236,80.037c-2.185,0-4.369-0.836-6.033-2.5L36.636,52.969c-3.337-3.337-3.337-8.73,0-12.066
		c3.328-3.337,8.738-3.337,12.066,0L73.269,65.47c3.337,3.337,3.337,8.73,0,12.066C71.605,79.209,69.421,80.037,67.236,80.037z"/>
	<path style="fill:#E7ECED;" d="M103.435,80.037c-2.185,0-4.369-0.836-6.033-2.5c-3.337-3.337-3.337-8.73,0-12.066l24.567-24.567
		c3.328-3.337,8.738-3.337,12.066,0c3.337,3.337,3.337,8.73,0,12.066l-24.567,24.567C107.804,79.209,105.611,80.037,103.435,80.037z
		"/>
	<path style="fill:#E7ECED;" d="M128.002,140.803c-2.185,0-4.369-0.836-6.033-2.5l-24.567-24.567c-3.337-3.337-3.337-8.73,0-12.066
		c3.328-3.337,8.738-3.337,12.066,0l24.567,24.567c3.337,3.337,3.337,8.73,0,12.066
		C132.371,139.966,130.187,140.803,128.002,140.803z"/>
	<path style="fill:#E7ECED;" d="M42.669,140.803c-2.185,0-4.369-0.836-6.033-2.5c-3.337-3.337-3.337-8.73,0-12.066l24.567-24.567
		c3.328-3.337,8.738-3.337,12.066,0c3.337,3.337,3.337,8.73,0,12.066l-24.567,24.567C47.038,139.966,44.853,140.803,42.669,140.803z
		"/>
</g>
<g>
	<path style="fill:#9AB9CC;" d="M290.135,89.603V72.536h-34.133c-4.71,0-8.533,3.823-8.533,8.533c0,4.71,3.823,8.533,8.533,8.533
		H290.135z"/>
	<path style="fill:#9AB9CC;" d="M290.135,132.269v-17.067h-34.133c-4.71,0-8.533,3.823-8.533,8.533c0,4.71,3.823,8.533,8.533,8.533
		H290.135z"/>
	<path style="fill:#9AB9CC;" d="M290.135,174.936v-17.067h-34.133c-4.71,0-8.533,3.823-8.533,8.533s3.823,8.533,8.533,8.533H290.135
		z"/>
	<path style="fill:#9AB9CC;" d="M290.135,217.603v-17.067h-34.133c-4.71,0-8.533,3.823-8.533,8.533s3.823,8.533,8.533,8.533H290.135
		z"/>
	<path style="fill:#9AB9CC;" d="M290.135,260.269v-17.067h-34.133c-4.71,0-8.533,3.823-8.533,8.533s3.823,8.533,8.533,8.533H290.135
		z"/>
</g>
<circle style="fill:#DD352E;" cx="256.002" cy="422.403" r="42.667"/>
<g>
</g>
<g>
</g>
<g>
</g>
<g>
</g>
<g>
</g>
<g>
</g>
<g>
</g>
<g>
</g>
<g>
</g>
<g>
</g>
<g>
</g>
<g>
</g>
<g>
</g>
<g>
</g>
<g>
</g>
</svg>
