<svg id="Layer_1" enable-background="new 0 0 58 51.009" height="512" viewBox="0 0 58 51.009" width="512" xmlns="http://www.w3.org/2000/svg"><path d="m56.911 5.285-4.484-4.592c-.902-.923-2.387-.923-3.289 0l-17.81 18.237c1.071 1.179 1.413 2.915 1.15 4.498l2.46 2.519 14.969-15.283c1.935-1.982 5.068-1.982 7.004 0 1.452-1.486 1.452-3.892 0-5.379z" fill="#be6e41"/><path id="Stroke-1061_2_" d="m0 51.009 31.52-32.276 8.756 8.966-7.337 7.513c-8.838 9.048-20.493 14.637-32.939 15.797z" fill="#e7eced"/><path d="m37.473 24.829-1.392-1.425c-.014.013-.032.019-.045.033-.179.195-17.407 18.857-34.351 25.846l-1.685 1.726c1.341-.125 2.669-.311 3.989-.538 16.608-7.467 32.463-24.532 33.484-25.642z" fill="#afb6bb"/></svg>