<svg xmlns="http://www.w3.org/2000/svg" height="472pt" version="1.1" viewBox="-9 0 472 472.96" width="472pt">
<g id="surface1">
<path d="M 208.828125 114.34375 L 95.675781 227.496094 L 129.621094 329.304688 L 188.164062 270.753906 L 252.085938 206.832031 L 310.636719 148.289062 Z M 208.828125 114.34375 " style=" stroke:none;fill-rule:nonzero;fill:rgb(76.862745%,60.392157%,42.352941%);fill-opacity:1;" />
<path d="M 208.8125 114.34375 L 95.675781 227.480469 L 95.675781 227.496094 L 208.828125 114.34375 Z M 208.8125 114.34375 " style=" stroke:none;fill-rule:nonzero;fill:rgb(100%,85.490196%,26.666667%);fill-opacity:1;" />
<path d="M 242.757812 261.425781 C 257.148438 247.058594 260.890625 225.164062 252.085938 206.832031 L 188.164062 270.753906 C 206.496094 279.558594 228.390625 275.816406 242.757812 261.425781 Z M 242.757812 261.425781 " style=" stroke:none;fill-rule:nonzero;fill:rgb(100%,85.490196%,26.666667%);fill-opacity:1;" />
<path d="M 77.332031 120 L 77.332031 0 L 45.332031 0 L 45.332031 120 Z M 77.332031 120 " style=" stroke:none;fill-rule:nonzero;fill:rgb(45.882353%,29.803922%,16.078431%);fill-opacity:1;" />
<path d="M 77.332031 120 L 45.332031 120 L 45.332031 74.160156 L 5.171875 114.320312 C 2.167969 117.320312 0.480469 121.394531 0.480469 125.640625 C 0.480469 129.886719 2.167969 133.957031 5.171875 136.960938 L 95.652344 227.519531 L 152.21875 170.953125 L 77.332031 96 Z M 77.332031 120 " style=" stroke:none;fill-rule:nonzero;fill:rgb(100%,68.627451%,27.45098%);fill-opacity:1;" />
<path d="M 118.292969 23.839844 C 115.292969 20.835938 111.21875 19.148438 106.972656 19.148438 C 102.726562 19.148438 98.652344 20.835938 95.652344 23.839844 L 77.332031 42.160156 L 77.332031 96 L 152.246094 170.910156 L 208.8125 114.34375 Z M 118.292969 23.839844 " style=" stroke:none;fill-rule:nonzero;fill:rgb(100%,73.333333%,37.647059%);fill-opacity:1;" />
<path d="M 384.171875 410.839844 C 382.050781 410.839844 380.015625 409.996094 378.515625 408.496094 L 276.691406 306.671875 C 273.660156 303.53125 273.703125 298.542969 276.789062 295.457031 C 279.875 292.371094 284.867188 292.328125 288.003906 295.359375 L 389.828125 397.183594 C 392.117188 399.472656 392.800781 402.914062 391.5625 405.902344 C 390.324219 408.890625 387.40625 410.839844 384.171875 410.839844 Z M 384.171875 410.839844 " style=" stroke:none;fill-rule:nonzero;fill:rgb(100%,65.490196%,20%);fill-opacity:1;" />
<path d="M 307.1875 224.289062 C 303.175781 224.28125 299.789062 221.304688 299.269531 217.324219 C 298.75 213.347656 301.257812 209.597656 305.132812 208.558594 L 444.21875 171.296875 C 448.488281 170.152344 452.875 172.683594 454.019531 176.953125 C 455.164062 181.21875 452.632812 185.609375 448.363281 186.753906 L 309.269531 224 C 308.589844 224.1875 307.890625 224.28125 307.1875 224.289062 Z M 307.1875 224.289062 " style=" stroke:none;fill-rule:nonzero;fill:rgb(100%,65.490196%,20%);fill-opacity:1;" />
<path d="M 152.363281 472.960938 C 151.664062 472.960938 150.964844 472.867188 150.285156 472.6875 C 146.015625 471.542969 143.484375 467.15625 144.628906 462.886719 L 181.894531 323.800781 C 183.183594 319.71875 187.457031 317.375 191.589844 318.480469 C 195.726562 319.589844 198.257812 323.757812 197.332031 327.9375 L 160.085938 467.03125 C 159.148438 470.527344 155.980469 472.957031 152.363281 472.960938 Z M 152.363281 472.960938 " style=" stroke:none;fill-rule:nonzero;fill:rgb(100%,65.490196%,20%);fill-opacity:1;" />
<path d="M 389.582031 292.800781 C 388.878906 292.800781 388.179688 292.707031 387.5 292.527344 L 294.78125 267.671875 C 290.53125 266.515625 288.019531 262.140625 289.15625 257.886719 C 290.292969 253.632812 294.65625 251.097656 298.917969 252.214844 L 391.644531 277.039062 C 395.523438 278.078125 398.03125 281.828125 397.507812 285.808594 C 396.984375 289.789062 393.59375 292.765625 389.582031 292.769531 Z M 389.582031 292.800781 " style=" stroke:none;fill-rule:nonzero;fill:rgb(100%,65.490196%,20%);fill-opacity:1;" />
<path d="M 266.132812 416.238281 C 262.515625 416.238281 259.347656 413.804688 258.414062 410.3125 L 233.515625 317.601562 C 232.398438 313.339844 234.933594 308.976562 239.1875 307.839844 C 243.441406 306.703125 247.8125 309.214844 248.972656 313.464844 L 273.828125 406.183594 C 274.382812 408.238281 274.097656 410.425781 273.035156 412.269531 C 271.972656 414.109375 270.21875 415.453125 268.164062 416 C 267.5 416.171875 266.816406 416.25 266.132812 416.238281 Z M 266.132812 416.238281 " style=" stroke:none;fill-rule:nonzero;fill:rgb(100%,65.490196%,20%);fill-opacity:1;" />
</g>
</svg>