<?xml version="1.0" encoding="iso-8859-1"?>
<!-- Generator: Adobe Illustrator 19.0.0, SVG Export Plug-In . SVG Version: 6.00 Build 0)  -->
<svg version="1.1" id="Capa_1" xmlns="http://www.w3.org/2000/svg" xmlns:xlink="http://www.w3.org/1999/xlink" x="0px" y="0px"
	 viewBox="0 0 512 512" style="enable-background:new 0 0 512 512;" xml:space="preserve">
<path style="fill:#0F9887;" d="M245.207,171.175c-0.174-1.303-4.174-32.32,5.393-68.65C263.552,53.341,295.024,17.888,341.616,0
	l10.773,28.062c-37.719,14.481-62.186,42.11-72.722,82.119c-8.068,30.638-4.703,56.735-4.669,56.995L245.207,171.175z"/>
<path style="fill:#11A892;" d="M267.452,112.472c-85.337,55.133-175.299,37.795-216.251-77.451
	C146.941-22.972,228.287,4.408,267.452,112.472z"/>
<path style="fill:#FFB13B;" d="M469.215,330.697c0,48.935-22.524,94.775-63.414,129.091C365.664,493.454,312.46,512,256,512
	s-109.664-18.546-149.802-52.212c-40.89-34.317-63.413-80.156-63.413-129.091c0-48.925,22.524-94.775,63.413-129.081
	C146.336,167.95,199.54,149.404,256,149.404s109.664,18.546,149.802,52.212C446.691,235.922,469.215,281.772,469.215,330.697z"/>
<path style="fill:#0F9887;" d="M267.452,112.472c-85.337,55.133-175.299,37.795-216.251-77.451L267.452,112.472z"/>
<path style="fill:#FF9500;" d="M469.215,330.697c0,48.935-22.524,94.775-63.414,129.091C365.664,493.454,312.46,512,256,512V149.404
	c56.46,0,109.664,18.546,149.802,52.212C446.691,235.922,469.215,281.772,469.215,330.697z"/>
<g>
	<rect x="149" y="415.509" style="fill:#FFDBA9;" width="30.059" height="30.059"/>
	<rect x="116.266" y="362.406" style="fill:#FFDBA9;" width="30.059" height="30.059"/>
	<rect x="179.058" y="365.081" style="fill:#FFDBA9;" width="30.059" height="30.059"/>
</g>
<g>
</g>
<g>
</g>
<g>
</g>
<g>
</g>
<g>
</g>
<g>
</g>
<g>
</g>
<g>
</g>
<g>
</g>
<g>
</g>
<g>
</g>
<g>
</g>
<g>
</g>
<g>
</g>
<g>
</g>
</svg>
