<?xml version="1.0" encoding="iso-8859-1"?>
<!-- Generator: Adobe Illustrator 19.0.0, SVG Export Plug-In . SVG Version: 6.00 Build 0)  -->
<svg version="1.1" id="Layer_1" xmlns="http://www.w3.org/2000/svg" xmlns:xlink="http://www.w3.org/1999/xlink" x="0px" y="0px"
	 viewBox="0 0 512 512" style="enable-background:new 0 0 512 512;" xml:space="preserve">
<path style="fill:#F8F8F9;" d="M142.88,464.372L142.88,464.372v-95.255H107.16v95.255l0,0c0,17.971-13.236,32.821-30.502,35.343
	c-3.01,0.439-5.219,3.059-5.219,6.101l0,0c0,3.415,2.768,6.183,6.183,6.183h94.796c3.415,0,6.183-2.768,6.183-6.183l0,0
	c0-3.042-2.209-5.662-5.219-6.101C156.116,497.193,142.88,482.344,142.88,464.372z"/>
<path style="fill:#EDEDED;" d="M173.382,499.715c-17.265-2.522-30.502-17.372-30.502-35.343l0,0v-95.255h-23.814v95.255l0,0
	c0,17.971,13.236,32.821,30.502,35.343c3.01,0.439,5.219,3.059,5.219,6.101l0,0c0,3.415-2.768,6.183-6.183,6.183h23.814
	c3.415,0,6.183-2.768,6.183-6.183l0,0C178.601,502.775,176.392,500.155,173.382,499.715z"/>
<path style="fill:#F8F8F9;" d="M41.672,226.235v83.348c0,46.032,37.316,83.348,83.348,83.348s83.348-37.316,83.348-83.348v-83.348
	L41.672,226.235L41.672,226.235z"/>
<path style="fill:#EDEDED;" d="M172.648,226.235v83.348c0,39.899-28.042,73.231-65.488,81.41c5.756,1.257,11.727,1.938,17.86,1.938
	c46.032,0,83.348-37.316,83.348-83.348v-83.348L172.648,226.235L172.648,226.235z"/>
<path style="fill:#C5142C;" d="M41.672,261.955v47.628c0,46.032,37.316,83.348,83.348,83.348s83.348-37.316,83.348-83.348v-47.628
	L41.672,261.955L41.672,261.955z"/>
<path style="fill:#A31126;" d="M172.648,261.955v47.628c0,39.899-28.042,73.231-65.488,81.41c5.756,1.257,11.727,1.938,17.86,1.938
	c46.032,0,83.348-37.316,83.348-83.348v-47.628L172.648,261.955L172.648,261.955z"/>
<rect x="327.44" style="fill:#BFA993;" width="71.441" height="83.348"/>
<rect x="351.253" style="fill:#B29A7E;" width="47.628" height="83.348"/>
<path style="fill:#80CB93;" d="M327.429,71.445v41.802c0,15.009-9.289,28.653-23.466,33.581
	c-27.929,9.709-47.975,36.262-47.975,67.498c0,0,0.008,215.699,0.008,279.817c0,9.864,7.997,17.858,17.86,17.858H452.46
	c9.864,0,17.86-7.997,17.86-17.86l-0.012-279.816c0-31.237-20.046-57.79-47.975-67.498c-14.176-4.928-23.466-18.572-23.466-33.581
	V71.443"/>
<path style="fill:#6DC180;" d="M470.316,214.324c0-31.237-20.046-57.79-47.975-67.498c-14.176-4.928-23.466-18.571-23.466-33.58
	V71.443l-47.628,0.001v41.802c0,15.009,9.29,28.653,23.466,33.58c27.929,9.709,47.975,36.262,47.975,67.498l0.012,279.816
	c0,9.864-7.997,17.86-17.86,17.86h47.628c9.864,0,17.86-7.997,17.86-17.86L470.316,214.324z"/>
<rect x="303.626" y="226.231" style="fill:#F8F8F9;" width="119.069" height="119.069"/>
<g>
</g>
<g>
</g>
<g>
</g>
<g>
</g>
<g>
</g>
<g>
</g>
<g>
</g>
<g>
</g>
<g>
</g>
<g>
</g>
<g>
</g>
<g>
</g>
<g>
</g>
<g>
</g>
<g>
</g>
</svg>
