<svg height="464pt" viewBox="0 -80 464 464" width="464pt" xmlns="http://www.w3.org/2000/svg"><path d="m128 240h-128l32-80-32-80h128zm0 0" fill="#aa7459"/><path d="m464 88-32 72 32 72h-128v-144zm0 0" fill="#aa7459"/><path d="m384 152c0 83.949219-68.050781 152-152 152s-152-68.050781-152-152 68.050781-152 152-152 152 68.050781 152 152zm0 0" fill="#ef4037"/><path d="m352 152c0 66.273438-53.726562 120-120 120s-120-53.726562-120-120 53.726562-120 120-120 120 53.726562 120 120zm0 0" fill="#fdd020"/><path d="m232 240-80-96 24-32h112l24 32zm0 0" fill="#487aa1"/><g fill="#60a2d7"><path d="m200 144 32 96 32-96zm0 0"/><path d="m176 112-24 32h48l16-32zm0 0"/><path d="m288 112h-40l16 32h48zm0 0"/></g></svg>