<svg id="Layer_1" enable-background="new 0 0 512 512" height="512" viewBox="0 0 512 512" width="512" xmlns="http://www.w3.org/2000/svg"><g><path d="m256 192.8c-141.385 0-256 114.615-256 256v48.2h142.68v-48.2c0-62.585 50.735-113.32 113.32-113.32s113.32 50.735 113.32 113.32v48.2h142.68v-48.2c0-141.385-114.615-256-256-256z" fill="#ff5c5c"/><path d="m369.32 448.8v48.2h142.68v-48.2c0-141.385-114.615-256-256-256v142.68c62.585 0 113.32 50.735 113.32 113.32z" fill="#dc2663"/><path d="m256 224.506c-123.874 0-224.293 100.42-224.293 224.293v48.201h110.973v-48.2c0-62.585 50.735-113.32 113.32-113.32s113.32 50.735 113.32 113.32v48.2h110.973v-48.2c0-123.874-100.419-224.294-224.293-224.294z" fill="#fdb442"/><path d="m369.32 448.8v48.2h110.973v-48.2c0-123.874-100.42-224.293-224.293-224.293v110.973c62.585 0 113.32 50.735 113.32 113.32z" fill="#ff8c28"/><path d="m256 256.213c-106.363 0-192.587 86.224-192.587 192.587v48.2h79.267v-48.2c0-62.585 50.735-113.32 113.32-113.32s113.32 50.735 113.32 113.32v48.2h79.267v-48.2c0-106.363-86.224-192.587-192.587-192.587z" fill="#f7ef9a"/><path d="m369.32 448.8v48.2h79.267v-48.2c0-106.363-86.224-192.587-192.587-192.587v79.267c62.585 0 113.32 50.735 113.32 113.32z" fill="#fadc5c"/><path d="m256 287.92c-88.852 0-160.88 72.029-160.88 160.88v48.2h47.56v-48.2c0-62.585 50.735-113.32 113.32-113.32s113.32 50.735 113.32 113.32v48.2h47.56v-48.2c0-88.852-72.028-160.88-160.88-160.88z" fill="#87e752"/><path d="m369.32 448.8v48.2h47.56v-48.2c0-88.852-72.029-160.88-160.88-160.88v47.56c62.585 0 113.32 50.735 113.32 113.32z" fill="#4ec95f"/><path d="m127.467 142.467c-19.037 0-36.983-7.552-50.198-20.7-6.931 3.03-14.463 4.634-22.102 4.634-30.419-.001-55.167-24.749-55.167-55.168s24.748-55.167 55.167-55.167c7.641 0 15.173 1.602 22.101 4.628 13.212-13.144 31.159-20.694 50.199-20.694s36.986 7.55 50.2 20.694c6.927-3.026 14.46-4.628 22.1-4.628 30.419 0 55.167 24.748 55.167 55.167s-24.748 55.167-55.167 55.167c-7.638 0-15.172-1.604-22.102-4.634-13.215 13.149-31.162 20.701-50.198 20.701z" fill="#f5f5fa"/><path d="m127.467 142.467v-142.467c19.04 0 36.986 7.55 50.2 20.694 6.927-3.026 14.46-4.628 22.1-4.628 30.419 0 55.167 24.748 55.167 55.167s-24.748 55.167-55.167 55.167c-7.638 0-15.172-1.604-22.102-4.634-13.215 13.149-31.162 20.701-50.198 20.701z" fill="#e1e1eb"/><path d="m255.543 319.627c-71.391.247-128.717 59.183-128.717 130.575v46.798h16.707c8.284 0 15-6.716 15-15v-31.977c0-53.743 42.986-98.289 96.728-98.688 54.169-.402 98.206 43.388 98.206 97.464v33.201c0 8.284 6.716 15 15 15h16.707v-48.2c0-71.493-58.08-129.42-129.631-129.173z" fill="#2de1fd"/><path d="m353.467 448.8v33.2c0 8.284 6.716 15 15 15h16.707v-48.2c0-71.34-57.833-129.168-129.174-129.168v31.708c53.829.001 97.467 43.631 97.467 97.46z" fill="#17bcfe"/><path d="m497 512h-482c-8.284 0-15-6.716-15-15s6.716-15 15-15h482c8.284 0 15 6.716 15 15s-6.716 15-15 15z" fill="#c8ff50"/><path d="m512 497c0-8.284-6.716-15-15-15h-241v30h241c8.284 0 15-6.716 15-15z" fill="#87e752"/></g></svg>