<svg id="Capa_1" enable-background="new 0 0 512 512" height="512" viewBox="0 0 512 512" width="512" xmlns="http://www.w3.org/2000/svg"><g><g><g><path d="m445.604 41.813 17.657 79.211c2.967 13.309-8.911 25.187-22.22 22.22l-79.21-17.657c-14.332-3.195-19.496-20.949-9.113-31.332l9.29-9.29c-77.582-48.094-181.023-38.512-248.293 28.758-78.452 78.452-78.452 206.103 0 284.555s206.103 78.452 284.555 0c47.34-47.34 67.994-114.903 55.248-180.732-2.875-14.852 6.833-29.224 21.685-32.098 14.852-2.875 29.223 6.833 32.098 21.685 16.209 83.72-10.069 169.657-70.294 229.882-48.35 48.35-112.636 74.978-181.014 74.979-68.378 0-132.663-26.628-181.014-74.979s-74.979-112.637-74.979-181.015c.001-68.378 26.628-132.664 74.979-181.014s112.635-74.978 181.014-74.979c52.792 0 103.136 15.886 145.599 45.373l12.68-12.68c10.383-10.382 28.137-5.218 31.332 9.113z" fill="#9dc6fb"/><g fill="#80b4fb"><path d="m453.518 217.545c-2.716-14.027 5.796-27.62 19.262-31.509-1.176 4.043-1.442 8.416-.586 12.834 12.746 65.829-7.908 133.393-55.248 180.732-3.132 3.132-6.351 6.125-9.633 9.007 40.877-46.616 58.107-109.593 46.205-171.064z"/><path d="m380.684 66.289-9.29 9.29c-10.383 10.383-5.219 28.137 9.113 31.332l79.21 17.657c1.352.301 2.688.442 3.996.451.08 11.572-10.714 20.89-22.671 18.224l-79.21-17.657c-14.332-3.195-19.496-20.949-9.113-31.332l9.29-9.29c-73.931-45.831-171.344-39.286-238.561 19.645 2.863-3.258 5.835-6.453 8.944-9.562 67.269-67.27 170.71-76.852 248.292-28.758z"/><path d="m18.675 237.325c0 68.378 26.628 132.663 74.979 181.014s112.636 74.978 181.014 74.979c63.868-.001 124.16-23.238 171.236-65.701-2.885 3.191-5.836 6.336-8.898 9.398-48.35 48.35-112.636 74.978-181.014 74.979-68.378 0-132.663-26.628-181.014-74.979s-74.978-112.637-74.978-181.015c.001-68.378 26.628-132.664 74.979-181.014 3.126-3.126 6.321-6.156 9.577-9.099-42.58 47.105-65.88 107.479-65.881 171.438z"/></g></g></g><g><path d="m361.242 213.922v142.521c0 10.393-8.422 18.816-18.816 18.816h-172.852c-10.394 0-18.816-8.422-18.816-18.816v-142.521l89.766-19.486z" fill="#ffe07d"/><path d="m361.242 213.922v20.639h-210.484v-20.639l89.766-19.486z" fill="#f1cb86"/><path d="m207.132 375.259h-37.559c-10.388 0-18.816-8.422-18.816-18.816v-142.52l89.772-19.486 21.535 3.474-73.749 16.012v142.521c.001 10.393 8.423 18.815 18.817 18.815z" fill="#f1cb86"/><path d="m363.196 155.448h-214.392c-5.833 0-10.562 4.729-10.562 10.562v37.349c0 5.833 4.729 10.562 10.562 10.562h214.392c5.833 0 10.562-4.729 10.562-10.562v-37.349c0-5.834-4.729-10.562-10.562-10.562z" fill="#ffe07d"/><path d="m186.362 213.922h-37.553c-5.836 0-10.567-4.73-10.567-10.561v-37.352c0-5.831 4.73-10.561 10.567-10.561h37.553c-5.836 0-10.561 4.73-10.561 10.561v37.352c0 5.831 4.725 10.561 10.561 10.561z" fill="#f1cb86"/><path d="m286.242 284.848h-60.484c-10.375 0-18.786-8.411-18.786-18.786 0-10.375 8.411-18.786 18.786-18.786h60.484c10.375 0 18.786 8.411 18.786 18.786 0 10.375-8.411 18.786-18.786 18.786z" fill="#407093"/></g></g></svg>