<?xml version="1.0" encoding="iso-8859-1"?>
<!-- Generator: Adobe Illustrator 19.0.0, SVG Export Plug-In . SVG Version: 6.00 Build 0)  -->
<svg version="1.1" id="Capa_1" xmlns="http://www.w3.org/2000/svg" xmlns:xlink="http://www.w3.org/1999/xlink" x="0px" y="0px"
	 viewBox="0 0 512 512" style="enable-background:new 0 0 512 512;" xml:space="preserve">
<path style="fill:#994400;" d="M287.6,365.171h-63.202c-8.551,0-15.484,6.933-15.484,15.484v115.862
	c0,8.551,6.933,15.484,15.484,15.484H287.6c8.551,0,15.484-6.933,15.484-15.484V380.654
	C303.084,372.103,296.151,365.171,287.6,365.171z"/>
<path style="fill:#88DE7A;" d="M420.478,371.341L343.853,269.57h39.697c5.87,0,11.235-3.32,13.856-8.572
	c2.62-5.253,2.044-11.535-1.485-16.225l-73.903-98.156h21.056c5.87,0,11.235-3.32,13.856-8.572
	c2.62-5.253,2.044-11.535-1.485-16.225L268.368,6.171C265.443,2.285,260.863,0,255.999,0c-4.863,0-9.444,2.285-12.369,6.171
	L156.556,121.82c-3.53,4.689-4.106,10.972-1.485,16.225c2.621,5.252,7.985,8.572,13.856,8.572h21.057l-73.903,98.156
	c-3.53,4.689-4.106,10.972-1.485,16.225c2.621,5.252,7.985,8.572,13.856,8.572h39.698L91.522,371.34
	c-3.53,4.689-4.106,10.972-1.485,16.225c2.621,5.252,7.985,8.572,13.856,8.572H408.11c5.87,0,11.235-3.32,13.856-8.572
	C424.583,382.313,424.007,376.031,420.478,371.341z"/>
<path style="fill:#713708;" d="M287.6,365.171h-31.601V512H287.6c8.551,0,15.484-6.933,15.484-15.484V380.654
	C303.084,372.103,296.151,365.171,287.6,365.171z"/>
<path style="fill:#3ABD53;" d="M343.852,269.569h39.697c5.87,0,11.235-3.32,13.856-8.572c2.62-5.253,2.044-11.535-1.485-16.225
	l-73.903-98.156h21.056c5.87,0,11.235-3.32,13.856-8.572c2.62-5.253,2.044-11.535-1.485-16.225L268.368,6.171
	C265.443,2.285,260.863,0,255.999,0v396.138h152.108c5.87,0,11.235-3.32,13.856-8.572c2.62-5.253,2.044-11.535-1.485-16.225
	L343.852,269.569z"/>
<g>
</g>
<g>
</g>
<g>
</g>
<g>
</g>
<g>
</g>
<g>
</g>
<g>
</g>
<g>
</g>
<g>
</g>
<g>
</g>
<g>
</g>
<g>
</g>
<g>
</g>
<g>
</g>
<g>
</g>
</svg>
