<?xml version="1.0" encoding="iso-8859-1"?>
<!-- Generator: Adobe Illustrator 19.0.0, SVG Export Plug-In . SVG Version: 6.00 Build 0)  -->
<svg version="1.1" id="Capa_1" xmlns="http://www.w3.org/2000/svg" xmlns:xlink="http://www.w3.org/1999/xlink" x="0px" y="0px"
	 viewBox="0 0 512 512" style="enable-background:new 0 0 512 512;" xml:space="preserve">
<path style="fill:#997960;" d="M256,512L256,512c-55.952,0-97.952-51.12-87.12-106l35.344-178.976h103.552L343.12,406
	C353.952,460.88,311.952,512,256,512z"/>
<path style="fill:#E14B4B;" d="M481.824,225.824c0,124.72-451.664,124.72-451.664,0S131.28,0,256,0S481.824,101.104,481.824,225.824
	z"/>
<g>
	<circle style="fill:#D03F3E;" cx="265.488" cy="179.376" r="27.84"/>
	<circle style="fill:#D03F3E;" cx="287.744" cy="64.64" r="22.272"/>
	<circle style="fill:#D03F3E;" cx="149.696" cy="103.104" r="27.84"/>
	<circle style="fill:#D03F3E;" cx="93.328" cy="209.76" r="22.272"/>
	<path style="fill:#D03F3E;" d="M370.448,31.392c19.808,33.584,31.392,72.624,31.392,114.448
		c0,91.232-241.552,115.648-371.328,73.392c-0.064,2.208-0.336,4.368-0.336,6.608c0,124.72,451.664,124.72,451.664,0
		C481.824,142.928,437.024,70.672,370.448,31.392z"/>
	<circle style="fill:#D03F3E;" cx="344.832" cy="127.536" r="27.84"/>
</g>
<g>
	<circle style="fill:#BF3332;" cx="411.632" cy="231.968" r="22.272"/>
	<circle style="fill:#BF3332;" cx="220.128" cy="271.728" r="22.272"/>
</g>
<g>
</g>
<g>
</g>
<g>
</g>
<g>
</g>
<g>
</g>
<g>
</g>
<g>
</g>
<g>
</g>
<g>
</g>
<g>
</g>
<g>
</g>
<g>
</g>
<g>
</g>
<g>
</g>
<g>
</g>
</svg>
