<svg height="512pt" viewBox="-56 0 512 512.00325" width="512pt" xmlns="http://www.w3.org/2000/svg"><path d="m335.617188 136.074219c0 12.898437-3.296876 25.796875-9.898438 36.894531l-122.675781 60.285156-127.175781-59.6875c-6.597657-11.398437-10.199219-24.296875-10.199219-37.492187 0-66.289063 34.195312-101.582031 64.488281-131.574219 5.699219-6 15.296875-6 20.996094 0 20.695312 20.394531 37.792968 38.890625 49.492187 63.785156 11.695313-24.894531 28.792969-43.089844 48.589844-63.1875 6-6 16.195313-6.597656 21.894531-.601562 30.296875 30 64.488282 65.292968 64.488282 131.578125zm0 0" fill="#49a520"/><path d="m335.617188 136.074219c0 12.898437-3.296876 25.796875-9.898438 36.894531l-122.675781 60.285156-2.398438-1.199218v-163.765626c11.695313-24.898437 28.792969-43.09375 48.589844-63.1875 5.996094-6 16.195313-6.597656 21.894531-.601562 30.296875 29.996094 64.488282 65.289062 64.488282 131.574219zm0 0" fill="#409b10"/><path d="m45.121094 135.285156-6.207032-1.640625c-3.839843-1.039062-7.925781-.5-11.378906 1.492188-3.441406 1.992187-5.960937 5.273437-6.988281 9.109375-9.929687 37.054687-24.910156 93.058594 11.835937 149.003906l148.234376 17.347656-26.96875-106.113281c-33.863282-49.722656-78.796876-61.453125-108.527344-69.199219zm0 0" fill="#56c225"/><path d="m381.722656 150.179688-1.625-5.933594c-2.167968-8.113282-10.546875-12.746094-18.367187-10.601563-47.171875 12.316407-82.601563 24.351563-114.101563 69.933594l-28.617187 135.664063 149.191406-45.902344c.585937-3.007813 40.269531-46.121094 13.519531-143.160156zm0 0" fill="#49a520"/><path d="m275.628906 226.058594c0 29.691406-17.398437 56.386718-44.390625 68.683594h-61.1875c-26.996093-12.296876-44.390625-38.992188-44.390625-68.683594 0-66.289063 34.191406-100.484375 64.1875-130.476563 2.996094-3 6.898438-4.5 10.796875-4.5 3.902344 0 7.800781 1.5 10.496094 4.5 30.296875 29.992188 64.488281 64.1875 64.488281 130.476563zm0 0" fill="#70da40"/><path d="m275.628906 226.058594c0 29.691406-17.398437 56.386718-44.390625 68.683594h-30.59375v-203.660157c3.898438 0 7.796875 1.5 10.496094 4.5 30.296875 29.992188 64.488281 64.1875 64.488281 130.476563zm0 0" fill="#56c225"/><path d="m295.125 439.917969c-21.296875 16.796875-38.992188 39.390625-50.988281 63.6875-2.699219 5.097656-7.796875 8.398437-13.496094 8.398437h-59.988281c-5.699219 0-10.800782-3.300781-13.5-8.398437-11.996094-24.296875-29.992188-47.191407-51.289063-63.988281-6.597656-5.097657-7.796875-14.695313-2.699219-20.996094l95.679688-29.992188 98.980469 30.292969c5.097656 6.296875 3.898437 15.894531-2.699219 20.996094zm0 0" fill="#56c225"/><path d="m295.125 439.917969c-21.296875 16.796875-38.992188 39.390625-50.988281 63.6875-2.699219 5.097656-7.796875 8.398437-13.496094 8.398437h-29.996094v-122.777344l97.179688 29.695313c5.097656 6.296875 3.898437 15.894531-2.699219 20.996094zm0 0" fill="#49a520"/><path d="m159.050781 323.640625c-36.890625-47.203125-91.007812-53.703125-143.980469-53.703125-8.289062 0-14.9960932 6.707031-14.9960932 14.996094l-.03125 6.253906c-.2617188 31.445312-.7031248 84.066406 46.8359372 131.605469 32.484375 32.484375 86.257813 28.320312 113.445313-8.613281zm0 0" fill="#70da40"/><path d="m400 291.214844-.027344-6.253906c0-8.289063-6.707031-14.996094-15-14.996094h-24.851562c-44.902344 0-92.324219 21.03125-118.015625 52.3125l-1.535157 93.089844c13.179688 17.179687 33.082032 27.824218 54.640626 29.246093 22.5625 1.410157 43.289062-7.128906 57.953124-21.792969 47.539063-47.539062 47.101563-100.160156 46.835938-131.605468zm0 0" fill="#56c225"/><path d="m275.628906 376.027344c0 41.394531-33.59375 74.988281-74.984375 74.988281-41.394531 0-74.984375-33.59375-74.984375-74.988281 0-66.285156 34.191406-100.480469 64.1875-130.472656 2.996094-3 6.894532-4.5 10.796875-4.5 3.898438 0 7.796875 1.5 10.496094 4.5 30.296875 29.992187 64.488281 64.1875 64.488281 130.472656zm0 0" fill="#90e36a"/><path d="m211.140625 245.554688c30.296875 29.992187 64.488281 64.1875 64.488281 130.472656 0 41.394531-33.59375 74.988281-74.984375 74.988281v-209.960937c3.898438 0 7.800781 1.5 10.496094 4.5zm0 0" fill="#70da40"/></svg>