<svg id="Capa_1" enable-background="new 0 0 497 497" height="512" viewBox="0 0 497 497" width="512" xmlns="http://www.w3.org/2000/svg"><g><path d="m256 0 75 90v152h45v-122c0-66.168-53.832-120-120-120z" fill="#c0c8d2"/><path d="m256 0c-66.168 0-120 53.832-120 120v122h60v-122c0-33.084 26.916-60 60-60s60 26.916 60 60v122h30v-122c0-66.168-40.374-120-90-120z" fill="#dae0e7"/><path d="m421 227v255c0 8.284-6.716 15-15 15h-30l-120-142.5 120-142.5h30c8.284 0 15 6.716 15 15z" fill="#ff9441"/><path d="m391 227v255c0 8.284-6.716 15-15 15h-270c-8.284 0-15-6.716-15-15v-255c0-8.284 6.716-15 15-15h270c8.284 0 15 6.716 15 15z" fill="#ffb739"/><path d="m121 257 30 22.5-30 22.5h-37.5c-4.142 0-7.5-3.358-7.5-7.5v-30c0-4.142 3.358-7.5 7.5-7.5z" fill="#fff7e8"/><path d="m211 257v45h-45l-30-22.5 30-22.5z" fill="#ffd17e"/><path d="m121 257h45v45h-45z" fill="#ffeac3"/><path d="m121 332 30 22.5-30 22.5h-37.5c-4.142 0-7.5-3.358-7.5-7.5v-30c0-4.142 3.358-7.5 7.5-7.5z" fill="#fff7e8"/><path d="m211 332v45h-45l-30-22.5 30-22.5z" fill="#ffd17e"/><path d="m121 332h45v45h-45z" fill="#ffeac3"/><path d="m121 407 30 22.5-30 22.5h-37.5c-4.142 0-7.5-3.358-7.5-7.5v-30c0-4.142 3.358-7.5 7.5-7.5z" fill="#fff7e8"/><path d="m211 407v45h-45l-30-22.5 30-22.5z" fill="#ffd17e"/><path d="m121 407h45v45h-45z" fill="#ffeac3"/></g></svg>