<?xml version="1.0" encoding="iso-8859-1"?>
<!-- Generator: Adobe Illustrator 19.0.0, SVG Export Plug-In . SVG Version: 6.00 Build 0)  -->
<svg xmlns="http://www.w3.org/2000/svg" xmlns:xlink="http://www.w3.org/1999/xlink" version="1.1" id="Layer_1" x="0px" y="0px" viewBox="0 0 512 512" style="enable-background:new 0 0 512 512;" xml:space="preserve">
<path style="fill:#DBE1F1;" d="M445.217,0C324.373,0,335.234,0,214.174,0c-13.685,0-27.195,6.448-35.413,14.674l-114,113.999  c-8.425,8.425-14.674,21.626-14.674,35.419c0,39.243,0,291.221,0,331.212c0,9.223,7.479,16.696,16.696,16.696h378.435  c9.217,0,16.696-7.473,16.696-16.696V16.696C461.913,7.473,454.434,0,445.217,0z"/>
<path style="fill:#D0D5E5;" d="M445.217,0C340.427,0,334.62,0,256,0v512h189.217c9.217,0,16.696-7.473,16.696-16.696V16.696  C461.913,7.473,454.434,0,445.217,0z"/>
<path style="fill:#7CCC92;" d="M361.739,200.348h-66.783c-13.69,0-26.823,2.337-38.957,6.678  c-45.302,16.028-77.913,59.437-77.913,110.191V384c0,9.238,7.456,16.696,16.696,16.696h66.783c64.445,0,116.87-52.424,116.87-116.87  v-66.783C378.435,207.805,370.978,200.348,361.739,200.348z"/>
<path style="fill:#34B772;" d="M378.435,217.043v66.783c0,64.445-52.424,116.87-116.87,116.87H256v-193.67  c12.133-4.341,25.266-6.678,38.957-6.678h66.783C370.978,200.348,378.435,207.805,378.435,217.043z"/>
<path style="fill:#C4C9D6;" d="M214.174,0c-13.685,0-27.195,6.448-35.413,14.674l-114,113.999  c-8.425,8.425-14.674,21.626-14.674,35.419v2.864h33.391h116.87c9.217,0,16.696-7.473,16.696-16.696V33.391V0H214.174z"/>
<path style="fill:#DDDD47;" d="M306.756,295.624l-139.13,139.13c-6.568,6.567-17.03,6.567-23.598,0  c-6.567-6.456-6.567-17.141,0-23.597l139.13-139.13c6.568-6.567,17.03-6.567,23.598,0  C313.322,278.483,313.322,289.169,306.756,295.624z"/>
<path style="fill:#C7D100;" d="M306.756,295.624L256,346.379v-47.193l27.157-27.158c6.568-6.567,17.03-6.567,23.598,0  C313.322,278.483,313.322,289.169,306.756,295.624z"/>
<g>
</g>
<g>
</g>
<g>
</g>
<g>
</g>
<g>
</g>
<g>
</g>
<g>
</g>
<g>
</g>
<g>
</g>
<g>
</g>
<g>
</g>
<g>
</g>
<g>
</g>
<g>
</g>
<g>
</g>
</svg>
