<svg id="color" enable-background="new 0 0 24 24" height="512" viewBox="0 0 24 24" width="512" xmlns="http://www.w3.org/2000/svg"><g><g><path d="m23 24h-4c-.404 0-.77-.244-.924-.617-.155-.374-.069-.804.217-1.09l4-4c.286-.287.716-.371 1.09-.217.374.155.617.52.617.924v4c0 .552-.447 1-1 1z" fill="#2196f3"/></g></g><g><g><path d="m10.54 12.171v.72c0 .61-.5 1.11-1.119 1.11h-1.841c-.54 0-1.119-.4-1.119-1.29v-.54z" fill="#607d8b"/></g></g><g><g><path d="m13.001 6.471c0 1.35-.601 2.61-1.65 3.46-.42.34-.69.78-.78 1.24-.02.109-.03.229-.03.34v.66h-4.08v-.76l-.021-.24c-.07-.45-.32-.87-.729-1.19-1.11-.87-1.74-2.18-1.71-3.6.05-2.38 2.039-4.351 4.43-4.38 1.21-.03 2.37.439 3.24 1.3.859.84 1.33 1.97 1.33 3.17z" fill="#ffc107"/></g></g><g><g><path d="m8.5 12.171h-2.039v.54c0 .89.579 1.29 1.119 1.29h.92z" fill="#546d79"/></g></g><g><g><path d="m8.5 2c-.023 0-.046 0-.069.001-2.391.029-4.38 2-4.43 4.38-.03 1.42.6 2.729 1.71 3.6.409.32.659.74.729 1.19l.021.24v.76h2.039z" fill="#dea806"/></g></g><g><g><path d="m22 23c-.256 0-.512-.098-.707-.293l-5.793-5.793-3.293 3.293c-.327.329-.839.388-1.233.143l-10.5-6.5c-.47-.29-.614-.906-.324-1.376.291-.47.906-.614 1.377-.323l9.826 6.082 3.44-3.439c.391-.391 1.023-.391 1.414 0l6.5 6.5c.391.391.391 1.023 0 1.414-.195.194-.451.292-.707.292z" fill="#2196f3"/></g></g><g><g><path d="m1 12c-.335 0-.661.168-.85.474-.29.47-.145 1.086.324 1.376l10.5 6.5c.163.101.346.151.527.151.174 0 .346-.045.499-.134v-2.781l-.647.647-9.827-6.083c-.164-.101-.346-.15-.526-.15z" fill="#1d83d4"/></g></g></svg>