<?xml version="1.0" encoding="iso-8859-1"?>
<!-- Generator: Adobe Illustrator 19.0.0, SVG Export Plug-In . SVG Version: 6.00 Build 0)  -->
<svg xmlns="http://www.w3.org/2000/svg" xmlns:xlink="http://www.w3.org/1999/xlink" version="1.1" id="Layer_1" x="0px" y="0px" viewBox="0 0 512 512" style="enable-background:new 0 0 512 512;" xml:space="preserve">
<polygon style="fill:#00AC93;" points="327.22,0 327.22,96 310.31,96 310.31,143.38 202.57,143.38 202.57,96 183.28,96 183.28,0 "/>
<polygon style="fill:#008778;" points="327.22,0 327.22,96 310.31,96 310.31,143.38 255.25,143.38 255.25,0 "/>
<path style="fill:#00DDC0;" d="M354.45,218.47v188.45c16.47,1.69,29.37,15.65,29.37,32.56v39.78c0,18.05-14.69,32.74-32.74,32.74  H160.92c-18.05,0-32.74-14.69-32.74-32.74v-39.78c0-15.03,10.2-27.73,24.03-31.55V217.46c-13.83-3.83-24.03-16.52-24.03-31.56  v-39.78c0-18.05,14.69-32.74,32.74-32.74h190.16c18.05,0,32.74,14.69,32.74,32.74v39.78C383.82,202.82,370.92,216.78,354.45,218.47z  "/>
<path style="fill:#00AC93;" d="M354.45,218.47v188.45c16.47,1.69,29.37,15.65,29.37,32.56v39.78c0,18.05-14.69,32.74-32.74,32.74  h-95.83V113.38h95.83c18.05,0,32.74,14.69,32.74,32.74v39.78C383.82,202.82,370.92,216.78,354.45,218.47z"/>
<rect x="194.52" y="265" style="fill:#FFDAA7;" width="118.93" height="101.41"/>
<rect x="255.25" y="265" style="fill:#FFC373;" width="58.2" height="101.41"/>
<g>
</g>
<g>
</g>
<g>
</g>
<g>
</g>
<g>
</g>
<g>
</g>
<g>
</g>
<g>
</g>
<g>
</g>
<g>
</g>
<g>
</g>
<g>
</g>
<g>
</g>
<g>
</g>
<g>
</g>
</svg>
