<svg height="512" viewBox="0 0 128 128" width="512" xmlns="http://www.w3.org/2000/svg"><g><path d="m52.961 88.7h22.078l3.71-13.734a27.561 27.561 0 1 0 -29.5 0z" fill="#ffbe40"/><path d="m54.9 46.884h-.947a6.073 6.073 0 0 0 -6.066 6.067v.949a6.073 6.073 0 0 0 6.066 6.066h3.514v29.734a1.75 1.75 0 0 0 3.5 0v-29.736h6.062v29.736a1.75 1.75 0 0 0 3.5 0v-29.736h3.514a6.073 6.073 0 0 0 6.068-6.064v-.947a6.073 6.073 0 0 0 -6.066-6.067h-.945a6.073 6.073 0 0 0 -6.067 6.067v3.513h-6.064v-3.515a6.073 6.073 0 0 0 -6.069-6.067zm2.567 9.58h-3.512a2.569 2.569 0 0 1 -2.566-2.564v-.947a2.57 2.57 0 0 1 2.566-2.567h.945a2.57 2.57 0 0 1 2.567 2.567zm13.062-3.513a2.57 2.57 0 0 1 2.571-2.567h.947a2.57 2.57 0 0 1 2.566 2.567v.949a2.569 2.569 0 0 1 -2.566 2.566h-3.516z" fill="#f3963c"/><path d="m68.581 118.011a6.459 6.459 0 0 0 6.458-6.458v-22.853h-22.078v22.852a6.459 6.459 0 0 0 6.458 6.458z" fill="#3c4465"/><path d="m74.96 96.283a3.791 3.791 0 1 0 0-7.582h-21.92a3.791 3.791 0 0 0 0 7.582z" fill="#4d5e80"/><path d="m74.96 109.95a3.791 3.791 0 1 0 0-7.581h-21.92a3.791 3.791 0 1 0 0 7.581z" fill="#4d5e80"/><g fill="#f3963c"><g><path d="m65.75 15.514v-5.525a1.75 1.75 0 0 0 -3.5 0v5.525a1.75 1.75 0 0 0 3.5 0z"/><path d="m35.781 25.88a1.75 1.75 0 0 0 1.238-2.987l-3.907-3.907a1.75 1.75 0 0 0 -2.475 2.475l3.907 3.907a1.746 1.746 0 0 0 1.237.512z"/><path d="m26.636 55.174a1.75 1.75 0 1 0 0-3.5h-5.525a1.75 1.75 0 1 0 0 3.5z"/></g><g><path d="m93.456 25.368 3.907-3.907a1.75 1.75 0 0 0 -2.475-2.475l-3.907 3.907a1.75 1.75 0 0 0 2.475 2.475z"/><path d="m106.889 55.174a1.75 1.75 0 0 0 0-3.5h-5.525a1.75 1.75 0 0 0 0 3.5z"/></g></g></g></svg>