<?xml version="1.0" encoding="iso-8859-1"?>
<!-- Generator: Adobe Illustrator 19.0.0, SVG Export Plug-In . SVG Version: 6.00 Build 0)  -->
<svg version="1.1" id="Capa_1" xmlns="http://www.w3.org/2000/svg" xmlns:xlink="http://www.w3.org/1999/xlink" x="0px" y="0px"
	 viewBox="0 0 512 512" style="enable-background:new 0 0 512 512;" xml:space="preserve">
<path style="fill:#66C6B9;" d="M512,33.067L512,33.067C512,14.933,497.067,0,478.933,0H33.067C14.933,0,0,14.933,0,33.067l0,0
	C0,51.2,14.933,66.133,33.067,66.133H480C497.067,65.067,512,50.133,512,33.067z"/>
<path style="fill:#CED6E0;" d="M272,429.867v-51.2h-32v51.2c-16,6.4-26.667,22.4-26.667,39.467C213.333,492.8,232.533,512,256,512
	s42.667-19.2,42.667-42.667C298.667,452.267,288,436.267,272,429.867z M256,485.333c-8.533,0-16-7.467-16-16s7.467-16,16-16
	s16,7.467,16,16S264.533,485.333,256,485.333z"/>
<path style="fill:#F3F3F3;" d="M477.867,344.533V65.067h-444.8v279.467c0,23.467,19.2,42.667,42.667,42.667H435.2
	C458.667,387.2,477.867,368,477.867,344.533z"/>
<rect x="101.333" y="219.733" style="fill:#8AD7F8;" width="164.267" height="119.467"/>
<g>
	<polygon style="fill:#415A6B;" points="290.133,219.733 183.467,113.067 77.867,219.733 	"/>
	<rect x="158.933" y="275.2" style="fill:#415A6B;" width="50.133" height="64"/>
</g>
<path style="fill:#FFD15C;" d="M377.6,306.133v-13.867c-17.067-2.133-33.067-8.533-46.933-21.333l13.867-17.067
	c10.667,9.6,21.333,14.933,33.067,17.067V233.6c-14.933-3.2-24.533-7.467-32-13.867c-6.4-5.333-9.6-13.867-9.6-24.533
	c0-10.667,4.267-20.267,11.733-26.667c7.467-7.467,18.133-10.667,29.867-11.733v-9.6h11.733v9.6
	c13.867,1.067,27.733,5.333,39.467,13.867L416,188.8c-8.533-6.4-17.067-9.6-27.733-10.667v35.2h1.067
	c14.933,3.2,25.6,8.533,32,13.867c6.4,6.4,10.667,14.933,10.667,25.6c0,10.667-4.267,20.267-11.733,27.733
	C412.8,288,402.133,291.2,389.333,292.267v13.867L377.6,306.133L377.6,306.133z M363.733,182.4c-3.2,3.2-5.333,6.4-5.333,10.667
	s1.067,7.467,4.267,10.667c2.133,2.133,7.467,5.333,14.933,7.467v-33.067C371.2,177.067,366.933,179.2,363.733,182.4z
	 M404.267,265.6c3.2-3.2,5.333-6.4,5.333-10.667c0-4.267-1.067-8.533-4.267-10.667c-3.2-2.133-8.533-5.333-16-7.467v34.133
	C395.733,270.933,401.067,268.8,404.267,265.6z"/>
<g>
</g>
<g>
</g>
<g>
</g>
<g>
</g>
<g>
</g>
<g>
</g>
<g>
</g>
<g>
</g>
<g>
</g>
<g>
</g>
<g>
</g>
<g>
</g>
<g>
</g>
<g>
</g>
<g>
</g>
</svg>
