<svg height="512pt" viewBox="-41 0 511 512" width="512pt" xmlns="http://www.w3.org/2000/svg"><path d="m117.003906 68.664062h42.5v30h-42.5zm0 0" fill="#c7ac91"/><path d="m117.003906 131.664062h42.5v30h-42.5zm0 0" fill="#c7ac91"/><path d="m278.050781 283h42.5v30h-42.5zm0 0" fill="#a07852"/><path d="m278.050781 346h42.5v30h-42.5zm0 0" fill="#a07852"/><path d="m429.601562 60.570312v126.890626c0 31.367187-25.53125 56.898437-56.910156 56.898437h-87.089844v252.640625h-141.101562v-106.941406h-87.089844c-31.378906 0-56.910156-25.527344-56.910156-56.898438v-134.050781c0-29.75 24.210938-53.949219 53.949219-53.949219 29.75 0 53.960937 24.199219 53.960937 53.949219v86.589844h36.089844v-215.148438c0-38.902343 31.648438-70.550781 70.550781-70.550781 38.898438 0 70.550781 31.648438 70.550781 70.550781v69.449219h36.089844v-79.429688c0-29.742187 24.207032-53.949218 53.957032-53.949218 29.742187 0 53.953124 24.207031 53.953124 53.949218zm0 0" fill="#00b44b"/><path d="m109.550781 482h211v30h-211zm0 0" fill="#c7ac91"/><path d="m429.601562 60.570312v126.890626c0 31.367187-25.53125 56.898437-56.910156 56.898437h-87.089844v252.640625h-70.550781v-497c38.898438 0 70.550781 31.648438 70.550781 70.550781v69.449219h36.089844v-79.429688c0-29.742187 24.207032-53.949218 53.957032-53.949218 29.742187 0 53.953124 24.207031 53.953124 53.949218zm0 0" fill="#007f40"/><path d="m215.050781 482h105.5v30h-105.5zm0 0" fill="#a07852"/></svg>