<svg height="512" viewBox="0 0 48 48" width="512" xmlns="http://www.w3.org/2000/svg"><g id="Line"><path d="m39 2h-30c-.552 0-1 .447-1 1v42c0 .553.448 1 1 1h30c.552 0 1-.447 1-1v-42c0-.553-.448-1-1-1z" fill="#ededed"/><g><path d="m29 10h-10c-.552 0-1-.447-1-1s.448-1 1-1h10c.552 0 1 .447 1 1s-.448 1-1 1z" fill="#bbb"/></g><g><path d="m34 14h-20c-.552 0-1-.447-1-1s.448-1 1-1h20c.552 0 1 .447 1 1s-.448 1-1 1z" fill="#bbb"/></g><g><path d="m34 18h-20c-.552 0-1-.447-1-1s.448-1 1-1h20c.552 0 1 .447 1 1s-.448 1-1 1z" fill="#bbb"/></g><g><path d="m34 22h-20c-.552 0-1-.447-1-1s.448-1 1-1h20c.552 0 1 .447 1 1s-.448 1-1 1z" fill="#bbb"/></g><g><path d="m28 26h-14c-.552 0-1-.447-1-1s.448-1 1-1h14c.552 0 1 .447 1 1s-.448 1-1 1z" fill="#bbb"/></g><g><path d="m19 38h-5c-.552 0-1-.447-1-1s.448-1 1-1h5c.552 0 1 .447 1 1s-.448 1-1 1z" fill="#bbb"/></g><path d="m42 37c-.443 0-.807.293-.938.693-2.398-.402-8.617-.693-9.062-.693-.552 0-1 .447-1 1v5c0 .352.184.677.485.857 1.701 1.021 3.608 1.531 5.515 1.531s3.814-.511 5.515-1.531c.301-.18.485-.505.485-.857v-5c0-.553-.448-1-1-1z" fill="#005c66"/><g><path d="m29 43c-.552 0-1-.447-1-1v-6c0-.553.448-1 1-1s1 .447 1 1v6c0 .553-.448 1-1 1z" fill="#005c66"/></g><path d="m45.447 35.105-8-4c-.281-.141-.613-.141-.895 0l-8 4c-.355.178-.572.55-.551.947.021.396.275.744.647.884l8 3c.114.043.233.064.352.064s.238-.021.351-.063l8-3c.373-.14.626-.487.647-.884.022-.398-.195-.77-.551-.948z" fill="#007a87"/></g></svg>