<?xml version="1.0" encoding="iso-8859-1"?>
<!-- Generator: Adobe Illustrator 19.0.0, SVG Export Plug-In . SVG Version: 6.00 Build 0)  -->
<svg version="1.1" id="Capa_1" xmlns="http://www.w3.org/2000/svg" xmlns:xlink="http://www.w3.org/1999/xlink" x="0px" y="0px"
	 viewBox="0 0 512 512" style="enable-background:new 0 0 512 512;" xml:space="preserve">
<g>
	<polygon style="fill:#D1FFC5;" points="423.712,26.483 344.263,114.759 344.97,115.818 297.124,148.392 319.458,86.334 397.229,0 	
		"/>
	<polygon style="fill:#D1FFC5;" points="347,220.513 511.988,211.862 511.988,256 279.292,270.566 243.982,246.025 379.132,149.451 
		379.574,150.069 476.677,105.931 494.332,150.069 	"/>
</g>
<polygon style="fill:#89D84F;" points="319.458,86.334 297.124,148.392 344.97,115.818 464.672,34.163 491.154,69.473 
	379.132,149.451 243.982,246.025 220.677,220.69 217.499,219.542 300.126,0 344.263,17.655 "/>
<g>
	<path style="fill:#307E45;" d="M53.13,476.69c-4.44,5.323-10.584,8.942-17.39,10.24c-1.562-9.366,1.377-18.918,7.945-25.777
		l178.582-188.91L53.13,476.69z"/>
	<path style="fill:#307E45;" d="M279.292,270.566L88.44,501.142c-5.729,6.868-14.195,10.84-23.128,10.858
		c-14.645-0.053-27.118-10.637-29.572-25.07c6.806-1.298,12.95-4.917,17.39-10.24l169.137-204.447l21.716-26.218L279.292,270.566z"
		/>
</g>
<path style="fill:#2A6E3C;" d="M220.677,220.69l23.305,25.335l-21.716,26.218L43.684,461.153c-6.568,6.859-9.507,16.41-7.945,25.777
	c-1.88,0.433-3.805,0.636-5.738,0.618c-7.962,0.026-15.598-3.151-21.186-8.828c-11.564-11.546-11.758-30.226-0.441-42.019
	l209.126-217.159L220.677,220.69z"/>
<g>
</g>
<g>
</g>
<g>
</g>
<g>
</g>
<g>
</g>
<g>
</g>
<g>
</g>
<g>
</g>
<g>
</g>
<g>
</g>
<g>
</g>
<g>
</g>
<g>
</g>
<g>
</g>
<g>
</g>
</svg>
