<?xml version="1.0" encoding="iso-8859-1"?>
<!-- Generator: Adobe Illustrator 19.0.0, SVG Export Plug-In . SVG Version: 6.00 Build 0)  -->
<svg xmlns="http://www.w3.org/2000/svg" xmlns:xlink="http://www.w3.org/1999/xlink" version="1.1" id="Capa_1" x="0px" y="0px" viewBox="0 0 512 512" style="enable-background:new 0 0 512 512;" xml:space="preserve">
<circle style="fill:#C8C5E8;" cx="218.16" cy="229.244" r="218.16"/>
<path style="fill:#E8E7F3;" d="M218.156,447.403C97.672,447.403,0,349.731,0,229.247S97.672,11.091,218.156,11.091V447.403z"/>
<path style="fill:#FFD75E;" d="M418.03,476.024l-75.604-0.961c-10.154-0.129-17.272-10.065-14.128-19.72l39.344-120.848  c4.574-14.049,24.538-13.796,28.753,0.366l36.259,121.809C435.552,466.401,428.183,476.153,418.03,476.024z"/>
<path style="fill:#FFAE45;" d="M502.605,471.33l-70.046,28.467c-9.407,3.823-19.824-2.57-20.676-12.688l-10.66-126.643  c-1.239-14.723,17.257-22.24,26.64-10.826l80.707,98.176C515.017,455.66,512.012,467.507,502.605,471.33z"/>
<path style="fill:#FF8157;" d="M218.156,66.993c-2.613,0-5.211,0.068-7.794,0.19v206.882h163.776  c0.033-0.115,0.069-0.229,0.102-0.344c4.019-14.133,6.171-29.052,6.171-44.474C380.41,139.636,307.766,66.993,218.156,66.993z"/>
<path style="fill:#FFAE45;" d="M380.41,229.247H242.614l102.22,101.395c-29.735,37.102-75.432,60.859-126.678,60.859  c-89.611,0-162.254-72.644-162.254-162.254S128.545,66.993,218.156,66.993S380.41,139.636,380.41,229.247z"/>
<path style="fill:#FFD75E;" d="M218.156,391.501c-89.611,0-162.254-72.644-162.254-162.254S128.545,66.993,218.156,66.993V391.501z"/>
<g>
</g>
<g>
</g>
<g>
</g>
<g>
</g>
<g>
</g>
<g>
</g>
<g>
</g>
<g>
</g>
<g>
</g>
<g>
</g>
<g>
</g>
<g>
</g>
<g>
</g>
<g>
</g>
<g>
</g>
</svg>
