<svg id="icons" enable-background="new 0 0 64 64" height="512" viewBox="0 0 64 64" width="512" xmlns="http://www.w3.org/2000/svg"><path d="m14 19.505v2.49h-9v-1c0-1.11.9-2 2-2h7 .02c-.01.17-.02.34-.02.51z" fill="#545c66"/><path d="m59 20.995v1h-9v-3h7c1.11 0 2 .89 2 2z" fill="#545c66"/><path d="m14 21.995v1.51c0 3.59 2.91 6.5 6.5 6.5h21.5c4.42 0 8-3.58 8-8v-.01h9v32h-20-14-20v-32z" fill="#5d9cec"/><g fill="#545c66"><path d="m5.001 21.996c-.553 0-1-.447-1-1 0-1.654 1.346-3 3-3 .553 0 1 .447 1 1s-.447 1-1 1c-.552 0-1 .448-1 1 0 .553-.447 1-1 1z"/><path d="m5.001 54.994c-.553 0-1-.447-1-1v-32.998c0-.553.447-1 1-1s1 .447 1 1v32.998c0 .553-.447 1-1 1z"/><path d="m59.001 21.996c-.553 0-1-.447-1-1 0-.552-.448-1-1-1-.553 0-1-.447-1-1s.447-1 1-1c1.654 0 3 1.346 3 3 0 .553-.447 1-1 1z"/><path d="m59.001 54.994c-.553 0-1-.447-1-1v-32.998c0-.553.447-1 1-1s1 .447 1 1v32.998c0 .553-.447 1-1 1z"/><path d="m57.001 19.996h-6.996c-.553 0-1-.447-1-1s.447-1 1-1h6.996c.553 0 1 .447 1 1s-.447 1-1 1z"/><path d="m14 19.996h-6.999c-.553 0-1-.447-1-1s.447-1 1-1h6.999c.553 0 1 .447 1 1s-.447 1-1 1z"/></g><path d="m27.001 47.005c-.553 0-1-.447-1-1v-11.002c0-.553.447-1 1-1s1 .447 1 1v11.002c0 .553-.447 1-1 1z" fill="#e6e9ed"/><path d="m27.001 47.005c-.256 0-.512-.098-.707-.293-.391-.391-.391-1.023 0-1.414l2-2c.391-.391 1.023-.391 1.414 0s.391 1.023 0 1.414l-2 2c-.195.195-.451.293-.707.293z" fill="#e6e9ed"/><path d="m27.001 47.005c-.256 0-.512-.098-.707-.293l-2-2c-.391-.391-.391-1.023 0-1.414s1.023-.391 1.414 0l2 2c.391.391.391 1.023 0 1.414-.195.195-.451.293-.707.293z" fill="#e6e9ed"/><path d="m37.002 47.005c-.553 0-1-.447-1-1v-11.002c0-.553.447-1 1-1s1 .447 1 1v11.002c0 .553-.447 1-1 1z" fill="#e6e9ed"/><path d="m35.002 38.003c-.256 0-.512-.098-.707-.293-.391-.391-.391-1.023 0-1.414l2-2c.391-.391 1.023-.391 1.414 0s.391 1.023 0 1.414l-2 2c-.195.195-.451.293-.707.293z" fill="#e6e9ed"/><path d="m39.002 38.003c-.256 0-.512-.098-.707-.293l-2-2c-.391-.391-.391-1.023 0-1.414s1.023-.391 1.414 0l2 2c.391.391.391 1.023 0 1.414-.195.195-.451.293-.707.293z" fill="#e6e9ed"/><path d="m14 19.505c0 3.58 2.91 6.49 6.5 6.49h21.5c4.42 0 8-3.58 8-7.99v.99 3 .01c0 4.42-3.58 8-8 8h-21.5c-3.59 0-6.5-2.91-6.5-6.5v-1.51z" fill="#ccd1d9"/><path d="m21.18 13.005c.94-5.12 5.431-9 10.82-9 4.28 0 7.98 2.44 9.8 6h.2c4.42 0 8 3.58 8 8 0 4.41-3.58 7.99-8 7.99h-21.5c-3.59 0-6.5-2.91-6.5-6.49 0-.17.01-.34.02-.51.261-3.351 3.061-5.99 6.48-5.99z" fill="#e6e9ed"/><path d="m59 53.995h3l1 .999v3.001c0 1.109-.89 2-2 2h-58c-1.1 0-2-.891-2-2v-3.001l.999-.999h3.001z" fill="#656d78"/><path d="m39 53.994v1c0 .55-.45 1-1 1h-12c-.55 0-1-.45-1-1v-1" fill="#545c66"/><circle cx="2" cy="54.994" fill="#656d78" r="1"/><circle cx="62" cy="54.994" fill="#656d78" r="1"/></svg>