<?xml version="1.0" encoding="iso-8859-1"?>
<!-- Generator: Adobe Illustrator 19.0.0, SVG Export Plug-In . SVG Version: 6.00 Build 0)  -->
<svg xmlns="http://www.w3.org/2000/svg" xmlns:xlink="http://www.w3.org/1999/xlink" version="1.1" id="Layer_1" x="0px" y="0px" viewBox="0 0 512 512" style="enable-background:new 0 0 512 512;" xml:space="preserve">
<polygon style="fill:#FFD15C;" points="336,167.467 288,199.467 312.533,251.733 254.933,254.933 251.733,312.533 199.467,288   167.467,336 135.467,288 84.267,312.533 80,254.933 22.4,251.733 48,199.467 0,167.467 48,135.467 22.4,84.267 80,80 84.267,22.4   135.467,48 167.467,0 199.467,48 251.733,22.4 254.933,80 312.533,84.267 288,135.467 "/>
<circle style="fill:#F7B64C;" cx="167.467" cy="167.467" r="87.467"/>
<rect id="SVGCleanerId_0" x="269.867" y="158.933" style="fill:#FFFFFF;" width="201.6" height="312.533"/>
<path style="fill:#CED6E0;" d="M411.733,74.667h-83.2c-6.4,0-11.733,5.333-11.733,11.733v32h105.6V85.333  C422.4,78.933,418.133,74.667,411.733,74.667z"/>
<path style="fill:#E8EAE9;" d="M228.267,480V149.333c0-18.133,13.867-32,32-32H480c18.133,0,32,13.867,32,32V480  c0,18.133-13.867,32-32,32H260.267C242.133,512,228.267,498.133,228.267,480z"/>
<g>
	<rect id="SVGCleanerId_0_1_" x="269.867" y="158.933" style="fill:#FFFFFF;" width="201.6" height="312.533"/>
</g>
<rect x="269.867" y="404.267" style="fill:#8AD7F8;" width="201.6" height="66.133"/>
<rect x="269.867" y="338.133" style="fill:#55C0EB;" width="201.6" height="66.133"/>
<g>
</g>
<g>
</g>
<g>
</g>
<g>
</g>
<g>
</g>
<g>
</g>
<g>
</g>
<g>
</g>
<g>
</g>
<g>
</g>
<g>
</g>
<g>
</g>
<g>
</g>
<g>
</g>
<g>
</g>
</svg>
