<?xml version="1.0" encoding="iso-8859-1"?>
<!-- Generator: Adobe Illustrator 19.0.0, SVG Export Plug-In . SVG Version: 6.00 Build 0)  -->
<svg version="1.1" id="Capa_1" xmlns="http://www.w3.org/2000/svg" xmlns:xlink="http://www.w3.org/1999/xlink" x="0px" y="0px"
	 viewBox="0 0 468.293 468.293" style="enable-background:new 0 0 468.293 468.293;" xml:space="preserve">
<path style="fill:#EBF0F3;" d="M468.293,131.122H0v308.455c0,2.201,0.45,4.282,1.147,6.244h465.998
	c0.697-1.962,1.147-4.043,1.147-6.244V131.122z"/>
<g>
	<path style="fill:#D5D6DB;" d="M18.732,458.308h430.829c8.144,0,15.004-5.229,17.585-12.488H1.147
		C3.728,453.079,10.588,458.308,18.732,458.308z"/>
	<rect y="118.634" style="fill:#D5D6DB;" width="468.293" height="12.488"/>
</g>
<path style="fill:#E56353;" d="M449.561,41.204H18.732C8.386,41.204,0,49.59,0,59.935v58.699h468.293V59.935
	C468.293,49.59,459.906,41.204,449.561,41.204z"/>
<g>
	<path style="fill:#2F4859;" d="M92.404,72.423L92.404,72.423c-5.173,0-9.366-4.193-9.366-9.366V19.35
		c0-5.173,4.193-9.366,9.366-9.366h0c5.173,0,9.366,4.193,9.366,9.366v43.707C101.77,68.23,97.576,72.423,92.404,72.423z"/>
	<path style="fill:#2F4859;" d="M54.94,72.423L54.94,72.423c-5.173,0-9.366-4.193-9.366-9.366V19.35
		c0-5.173,4.193-9.366,9.366-9.366h0c5.173,0,9.366,4.193,9.366,9.366v43.707C64.306,68.23,60.113,72.423,54.94,72.423z"/>
	<path style="fill:#2F4859;" d="M413.352,72.423L413.352,72.423c-5.173,0-9.366-4.193-9.366-9.366V19.35
		c0-5.173,4.193-9.366,9.366-9.366l0,0c5.173,0,9.366,4.193,9.366,9.366v43.707C422.718,68.23,418.525,72.423,413.352,72.423z"/>
	<path style="fill:#2F4859;" d="M375.889,72.423L375.889,72.423c-5.173,0-9.366-4.193-9.366-9.366V19.35
		c0-5.173,4.193-9.366,9.366-9.366h0c5.173,0,9.366,4.193,9.366,9.366v43.707C385.254,68.23,381.061,72.423,375.889,72.423z"/>
</g>
<g>
	<path style="fill:#D5D6DB;" d="M107.276,234.402H71.805c-3.449,0-6.244-2.795-6.244-6.244v6.244c0,3.449,2.795,6.244,6.244,6.244
		h35.471c3.448,0,6.244-2.795,6.244-6.244v-6.244C113.52,231.607,110.724,234.402,107.276,234.402z"/>
	<path style="fill:#D5D6DB;" d="M203.68,234.402h-35.471c-3.448,0-6.244-2.795-6.244-6.244v6.244c0,3.449,2.796,6.244,6.244,6.244
		h35.471c3.449,0,6.244-2.795,6.244-6.244v-6.244C209.924,231.607,207.128,234.402,203.68,234.402z"/>
	<path style="fill:#D5D6DB;" d="M300.084,234.402h-35.471c-3.449,0-6.244-2.795-6.244-6.244v6.244c0,3.449,2.795,6.244,6.244,6.244
		h35.471c3.449,0,6.244-2.795,6.244-6.244v-6.244C306.328,231.607,303.532,234.402,300.084,234.402z"/>
	<path style="fill:#D5D6DB;" d="M396.488,234.402h-35.471c-3.449,0-6.244-2.795-6.244-6.244v6.244c0,3.449,2.795,6.244,6.244,6.244
		h35.471c3.448,0,6.244-2.795,6.244-6.244v-6.244C402.732,231.607,399.936,234.402,396.488,234.402z"/>
</g>
<g>
	<path style="fill:#E1E6E9;" d="M107.276,192.687H71.805c-3.449,0-6.244,2.796-6.244,6.244v29.228c0,3.449,2.795,6.244,6.244,6.244
		h35.471c3.448,0,6.244-2.795,6.244-6.244v-29.228C113.52,195.483,110.724,192.687,107.276,192.687z"/>
	<path style="fill:#E1E6E9;" d="M203.68,192.687h-35.471c-3.448,0-6.244,2.796-6.244,6.244v29.228c0,3.449,2.796,6.244,6.244,6.244
		h35.471c3.449,0,6.244-2.795,6.244-6.244v-29.228C209.924,195.483,207.128,192.687,203.68,192.687z"/>
	<path style="fill:#E1E6E9;" d="M300.084,192.687h-35.471c-3.449,0-6.244,2.796-6.244,6.244v29.228c0,3.449,2.795,6.244,6.244,6.244
		h35.471c3.449,0,6.244-2.795,6.244-6.244v-29.228C306.328,195.483,303.532,192.687,300.084,192.687z"/>
	<path style="fill:#E1E6E9;" d="M396.488,192.687h-35.471c-3.449,0-6.244,2.796-6.244,6.244v29.228c0,3.449,2.795,6.244,6.244,6.244
		h35.471c3.448,0,6.244-2.795,6.244-6.244v-29.228C402.732,195.483,399.936,192.687,396.488,192.687z"/>
</g>
<g>
	<path style="fill:#D5D6DB;" d="M107.276,315.573H71.805c-3.449,0-6.244-2.795-6.244-6.244v6.244c0,3.449,2.795,6.244,6.244,6.244
		h35.471c3.448,0,6.244-2.795,6.244-6.244v-6.244C113.52,312.778,110.724,315.573,107.276,315.573z"/>
	<path style="fill:#D5D6DB;" d="M203.68,315.573h-35.471c-3.448,0-6.244-2.795-6.244-6.244v6.244c0,3.449,2.796,6.244,6.244,6.244
		h35.471c3.449,0,6.244-2.795,6.244-6.244v-6.244C209.924,312.778,207.128,315.573,203.68,315.573z"/>
	<path style="fill:#D5D6DB;" d="M300.084,315.573h-35.471c-3.449,0-6.244-2.795-6.244-6.244v6.244c0,3.449,2.795,6.244,6.244,6.244
		h35.471c3.449,0,6.244-2.795,6.244-6.244v-6.244C306.328,312.778,303.532,315.573,300.084,315.573z"/>
	<path style="fill:#D5D6DB;" d="M396.488,315.573h-35.471c-3.449,0-6.244-2.795-6.244-6.244v6.244c0,3.449,2.795,6.244,6.244,6.244
		h35.471c3.448,0,6.244-2.795,6.244-6.244v-6.244C402.732,312.778,399.936,315.573,396.488,315.573z"/>
</g>
<g>
	<path style="fill:#E1E6E9;" d="M107.276,273.858H71.805c-3.449,0-6.244,2.796-6.244,6.244v29.228c0,3.449,2.795,6.244,6.244,6.244
		h35.471c3.448,0,6.244-2.795,6.244-6.244v-29.228C113.52,276.653,110.724,273.858,107.276,273.858z"/>
	<path style="fill:#E1E6E9;" d="M203.68,273.858h-35.471c-3.448,0-6.244,2.796-6.244,6.244v29.228c0,3.449,2.796,6.244,6.244,6.244
		h35.471c3.449,0,6.244-2.795,6.244-6.244v-29.228C209.924,276.653,207.128,273.858,203.68,273.858z"/>
	<path style="fill:#E1E6E9;" d="M300.084,273.858h-35.471c-3.449,0-6.244,2.796-6.244,6.244v29.228c0,3.449,2.795,6.244,6.244,6.244
		h35.471c3.449,0,6.244-2.795,6.244-6.244v-29.228C306.328,276.653,303.532,273.858,300.084,273.858z"/>
	<path style="fill:#E1E6E9;" d="M396.488,273.858h-35.471c-3.449,0-6.244,2.796-6.244,6.244v29.228c0,3.449,2.795,6.244,6.244,6.244
		h35.471c3.448,0,6.244-2.795,6.244-6.244v-29.228C402.732,276.653,399.936,273.858,396.488,273.858z"/>
</g>
<g>
	<path style="fill:#D5D6DB;" d="M107.276,396.744H71.805c-3.449,0-6.244-2.795-6.244-6.244v6.244c0,3.449,2.795,6.244,6.244,6.244
		h35.471c3.448,0,6.244-2.795,6.244-6.244V390.5C113.52,393.948,110.724,396.744,107.276,396.744z"/>
	<path style="fill:#D5D6DB;" d="M203.68,396.744h-35.471c-3.448,0-6.244-2.795-6.244-6.244v6.244c0,3.449,2.796,6.244,6.244,6.244
		h35.471c3.449,0,6.244-2.795,6.244-6.244V390.5C209.924,393.948,207.128,396.744,203.68,396.744z"/>
	<path style="fill:#D5D6DB;" d="M300.084,396.744h-35.471c-3.449,0-6.244-2.795-6.244-6.244v6.244c0,3.449,2.795,6.244,6.244,6.244
		h35.471c3.449,0,6.244-2.795,6.244-6.244V390.5C306.328,393.948,303.532,396.744,300.084,396.744z"/>
	<path style="fill:#D5D6DB;" d="M396.488,396.744h-35.471c-3.449,0-6.244-2.795-6.244-6.244v6.244c0,3.449,2.795,6.244,6.244,6.244
		h35.471c3.448,0,6.244-2.795,6.244-6.244V390.5C402.732,393.948,399.936,396.744,396.488,396.744z"/>
</g>
<g>
	<path style="fill:#E1E6E9;" d="M107.276,355.028H71.805c-3.449,0-6.244,2.796-6.244,6.244V390.5c0,3.449,2.795,6.244,6.244,6.244
		h35.471c3.448,0,6.244-2.795,6.244-6.244v-29.228C113.52,357.824,110.724,355.028,107.276,355.028z"/>
	<path style="fill:#E1E6E9;" d="M203.68,355.028h-35.471c-3.448,0-6.244,2.796-6.244,6.244V390.5c0,3.449,2.796,6.244,6.244,6.244
		h35.471c3.449,0,6.244-2.795,6.244-6.244v-29.228C209.924,357.824,207.128,355.028,203.68,355.028z"/>
	<path style="fill:#E1E6E9;" d="M300.084,355.028h-35.471c-3.449,0-6.244,2.796-6.244,6.244V390.5c0,3.449,2.795,6.244,6.244,6.244
		h35.471c3.449,0,6.244-2.795,6.244-6.244v-29.228C306.328,357.824,303.532,355.028,300.084,355.028z"/>
	<path style="fill:#E1E6E9;" d="M396.488,355.028h-35.471c-3.449,0-6.244,2.796-6.244,6.244V390.5c0,3.449,2.795,6.244,6.244,6.244
		h35.471c3.448,0,6.244-2.795,6.244-6.244v-29.228C402.732,357.824,399.936,355.028,396.488,355.028z"/>
</g>
<g>
</g>
<g>
</g>
<g>
</g>
<g>
</g>
<g>
</g>
<g>
</g>
<g>
</g>
<g>
</g>
<g>
</g>
<g>
</g>
<g>
</g>
<g>
</g>
<g>
</g>
<g>
</g>
<g>
</g>
</svg>
