<svg id="Flat" height="512" viewBox="0 0 512 512" width="512" xmlns="http://www.w3.org/2000/svg"><path d="m336 488h-160l-32-288h224z" fill="#dcdee0"/><path d="m352 24h-96v.008a8 8 0 0 0 -7.978 7.4l-32 432a8 8 0 0 0 7.387 8.57q.3.021.6.021a8 8 0 0 0 7.97-7.409l31.45-424.59h88.571a8 8 0 0 0 0-16z" fill="#d48031"/><path d="m384 200h-256v-16a16 16 0 0 1 16-16h224a16 16 0 0 1 16 16z" fill="#c3c6c7"/><path d="m144 168c0-53.019 50.144-96 112-96s112 42.981 112 96z" fill="#dcdee0"/><path d="m359.11 280-23.11 208h-160l-26.67-240h2.67c103.7 0 104 31.82 207.11 32z" fill="#f79539"/></svg>