<svg height="512" viewBox="0 0 34 58" width="512" xmlns="http://www.w3.org/2000/svg"><g id="Page-1" fill="none" fill-rule="evenodd"><g id="028---Glass" fill-rule="nonzero"><path id="Shape" d="m15 40.55c1.3171246.2940179 2.6828754.2940179 4 0 7.6-1.73 11-2.94 11-7.55 0-5-3-8-3-12 0-2.63 5.31-15.42 6.93-19.64.118491-.30706913.0782926-.65278202-.1074945-.92447066s-.4933693-.43455818-.8225055-.43552934h-32c-.32913617.00097116-.6367184.1638407-.82250548.43552934-.18578709.27168864-.22598549.61740153-.10749452.92447066 1.62 4.22 6.93 17.01 6.93 19.64 0 4-3 7-3 12 0 4.61 3.4 5.82 11 7.55z" fill="#2fa8cc"/><path id="Shape" d="m25 54h-16c-1.25902921 0-2.44458247.5927766-3.2 1.6l-1.8 2.4h26l-1.8-2.4c-.7554175-1.0072234-1.9409708-1.6-3.2-1.6z" fill="#67b9cc"/><path id="Shape" d="m21 54s-2-1-2-7c.0013937-2.2391167.2801836-4.4694361.83-6.64h-5.66c.5498164 2.1705639.8286063 4.4008833.83 6.64 0 6-2 7-2 7z" fill="#3b97d3"/><path id="Shape" d="m7 5h-1c-.55228475 0-1-.44771525-1-1s.44771525-1 1-1h1c.55228475 0 1 .44771525 1 1s-.44771525 1-1 1z" fill="#67b9cc"/><path id="Shape" d="m24 5h-13c-.5522847 0-1-.44771525-1-1s.4477153-1 1-1h13c.5522847 0 1 .44771525 1 1s-.4477153 1-1 1z" fill="#67b9cc"/><path id="Shape" d="m30 33c0 4.61-3.4 5.82-11 7.55-1.3171246.2940179-2.6828754.2940179-4 0-7.6-1.73-11-2.94-11-7.55 0-5 3-8 3-12-.3213791-2.0592639-.88529968-4.073266-1.68-6h23.36c-.7947003 1.926734-1.3586209 3.9407361-1.68 6 0 4 3 7 3 12z" fill="#802d40"/></g></g></svg>