<svg id="Capa_1" enable-background="new 0 0 497 497" height="512" viewBox="0 0 497 497" width="512" xmlns="http://www.w3.org/2000/svg"><g><path clip-rule="evenodd" d="m407 119.568v25h-332c-13.807 0-25 11.193-25 25v219c0 6.9-2.8 13.16-7.32 17.68-6.255 6.255-15.843 9.217-25.848 6.021-10.153-3.244-16.832-12.97-16.832-23.629v-319.072c0-13.807 11.193-25 25-25h150c13.807 0 25 11.193 25 25v20c0 2.761 2.239 5 5 5h177c13.807 0 25 11.193 25 25z" fill="#f8c201" fill-rule="evenodd"/><path d="m407 124.568v20h-332c-13.807 0-25 11.193-25 25v219c0 6.9-2.8 13.16-7.32 17.68s-10.78 7.32-17.68 7.32c-12.26 0-22.46-8.82-24.58-20.47h14.58c8.284 0 15-6.716 15-15v-208.53c0-24.853 20.147-45 45-45z" fill="#faa515"/><path d="m457 169.568v219c0 13.81-11.19 25-25 25h-407c6.9 0 13.16-2.8 17.68-7.32s7.32-10.78 7.32-17.68v-219c0-13.81 11.19-25 25-25h357c13.81 0 25 11.19 25 25z" fill="#fad207"/><path d="m408.5 315.738c-.42 0-.83.02-1.24.03-11.904-34.083-41.206-59.984-77.26-67.08v-1.952h-20.5v.009c-56.17.268-101.702 45.49-102.48 101.534-25.45 3.63-45.02 25.5-45.02 51.96 0 4.6.59 9.07 1.71 13.33h268.29c13.81 0 25-11.19 25-25v-52.71c-12.41-12.431-29.55-20.121-48.5-20.121z" fill="#faa515"/><path d="m233.425 452.205c-9.661-.018-19.213-2.588-27.333-7.822-14.494-9.341-24.092-25.621-24.092-44.148 0-26.454 19.569-48.328 45.019-51.96.782-56.211 46.584-101.54 102.981-101.54 44.982 0 83.222 28.838 97.259 69.031.414-.007.825-.031 1.241-.031 37.832 0 68.5 30.668 68.5 68.5 0 35.587-27.142 64.819-61.852 68.164-1.429.137-201.723-.194-201.723-.194z" fill="#f5f5f5"/><path d="m393.53 268.668c-10.51-3.63-21.79-5.59-33.53-5.59-56.4 0-102.2 45.33-102.98 101.54-25.45 3.63-45.02 25.5-45.02 51.96 0 13.45 5.06 25.71 13.39 35-6.85-1.03-13.45-3.42-19.3-7.19-14.49-9.35-24.09-25.63-24.09-44.15 0-26.46 19.57-48.33 45.02-51.96.78-56.21 46.58-101.54 102.98-101.54 23.97 0 46.03 8.19 63.53 21.93z" fill="#e6e6e6"/></g></svg>