<svg height="512" viewBox="0 0 64 64" width="512" xmlns="http://www.w3.org/2000/svg"><g id="Icon"><g fill="#90a4ae"><path d="m52 26h-1.122a1 1 0 0 0 -1 1v10a1 1 0 0 0 1 1h1.122a6 6 0 0 0 0-12z"/><path d="m45.284 8.151a1 1 0 0 0 -.97-.049l-20.408 10a1 1 0 0 0 -.559.9v25.998a1 1 0 0 0 .559.9l20.408 10a1 1 0 0 0 1.441-.9v-46a1 1 0 0 0 -.471-.849z"/><path d="m24.347 18h-13.347a5.006 5.006 0 0 0 -5 5v18a5.006 5.006 0 0 0 5 5h13.347a1 1 0 0 0 1-1v-26a1 1 0 0 0 -1-1z"/></g><rect fill="#cfd8dc" height="56" rx="3.939" width="8.123" x="43.755" y="4"/></g></svg>