<svg height="512" viewBox="0 0 58 58" width="512" xmlns="http://www.w3.org/2000/svg"><g id="Page-1" fill="none" fill-rule="evenodd"><g id="028---Laptop-Health"><path id="Path" d="m47.4 8h4.6c2.209139 0 4 1.790861 4 4v38h-54v-38c0-2.209139 1.790861-4 4-4z" fill="#90bae1"/><path id="Path" d="m52.95 8.12c-11.41.71-50.95 5.65-50.95 39.88v-36c0-2.209139 1.790861-4 4-4h46c.3205339-.00142005.6398873.03891933.95.12z" fill="#b0d3f0"/><path id="Path" d="m52 58h-46c-3.3137085 0-6-2.6862915-6-6v-3c0-.5522847.44771525-1 1-1h56c.5522847 0 1 .4477153 1 1v3c0 3.3137085-2.6862915 6-6 6z" fill="#547580"/><path id="Path" d="m19 48h20v2c0 1.6568542-1.3431458 3-3 3h-14c-1.6568542 0-3-1.3431458-3-3z" fill="#3f5c6c"/><path id="Path" d="m15 53h-3c-.5522847 0-1-.4477153-1-1s.4477153-1 1-1h3c.5522847 0 1 .4477153 1 1s-.4477153 1-1 1z" fill="#3f5c6c"/><circle id="Oval" cx="4" cy="52" fill="#65ddb9" r="1"/><circle id="Oval" cx="8" cy="52" fill="#65ddb9" r="1"/><path id="Path" d="m29 6.837s3.533-6.837 11.5-6.837c6.808 0 11.5 6.02 11.5 13.152 0 9.7-9.051 16.176-22.324 28.232-.3842131.3461122-.9677869.3461122-1.352 0-13.273-12.056-22.324-18.533-22.324-28.232 0-7.132 4.692-13.152 11.5-13.152 7.967 0 11.5 6.837 11.5 6.837z" fill="#ff5364"/><path id="Shape" d="m31.613 30c-.034 0-.067 0-.1 0-.658637-.0362786-1.2222701-.4851793-1.405-1.119l-4.355-14.698-3.653 12.533c-.1831647.6316208-.741449 1.0815091-1.3975702 1.1262192-.6561213.0447102-1.270275-.3252846-1.5374298-.9262192l-1.965-3.916h-2.2c-.5522847 0-1-.4477153-1-1s.4477153-1 1-1h2.412c.6321194-.0394774 1.2216247.319977 1.476.9l1.6 3.19 3.76-12.889c.1909318-.6693738.8039342-1.129943 1.5-1.127.694277-.0033678 1.3065555.4542083 1.5 1.121l4.439 14.975 3.459-7.905c.2437318-.5564992.7871685-.9219665 1.394495-.9378135s1.169083.3207823 1.441505.8638135l1.404 2.809h3.614c.5522847 0 1 .4477153 1 1s-.4477153 1-1 1h-3.942c-.1723772.0001235-.3418594-.0443139-.492-.129-.3821236-.1862079-.6987417-.4839962-.908-.854l-1.051-2.1-3.564 8.147c-.2456305.5707074-.8086863.939253-1.43.936z" fill="#f3d55b" fill-rule="nonzero"/></g></g></svg>