<svg height="512" viewBox="0 0 38 58" width="512" xmlns="http://www.w3.org/2000/svg"><g id="Page-1" fill="none" fill-rule="evenodd"><g id="029---Pear" fill-rule="nonzero" transform="translate(0 -1)"><path id="Shape" d="m38 46.82c0 9.47-6.79 12.18-12.21 12.18s-6.79-1.35-6.79-1.35-1.36 1.35-6.79 1.35-12.21-2.71-12.21-12.18 4.07-8.11 6.79-18.94c2.4-9.58 4.8-13.86 10.02-14.71h.01c.18-.03.36-.06.54-.08-.237001 1.5655724-.3573323 3.1465925-.36 4.73 1.3225312.2400242 2.6774688.2400242 4 0-.0026303-1.5450152.1278522-3.0873847.39-4.61 5.08.92 7.45 5.22 9.82 14.67 2.72 10.83 6.79 9.47 6.79 18.94z" fill="#24ae5f"/><path id="Shape" d="m25.92 4.78c-.22.12-3.41 1.98-4.53 8.43-.2621478 1.5226153-.3926303 3.0649848-.39 4.61-1.3225312.2400242-2.6774688.2400242-4 0 .0026677-1.5834075.122999-3.1644276.36-4.73.1903169-1.2686814.4846421-2.5195635.88-3.74 1.97-6.11 5.66-8.03 5.87-8.14.9858283-.49981765 2.1901822-.10582822 2.6899999.88000003.4998177.98582826.1058283 2.19018225-.8799999 2.68999997z" fill="#a56a43"/><path id="Shape" d="m18.24 9.35c-.3953579 1.2204365-.6896831 2.4713186-.88 3.74-.18.02-.36.05-.54.08h-.01c-2.15.1-5.78-.12-8.28-2.29-3.76-3.25-3.53-9.67-3.53-9.67s6.32-1.14 10.08 2.12c1.67881 1.61049938 2.7879825 3.72354312 3.16 6.02z" fill="#4fba6f"/><path id="Shape" d="m19 19c-3.25 0-4.491-1.077-4.707-1.293-.391409-.3853413-.3987577-1.0142475-.0164598-1.4086295.382298-.3943821 1.0111283-.4066021 1.4084598-.0273705.056.046.941.729 3.315.729 2.444 0 3.31-.724 3.318-.731.4087951-.3557074 1.0248061-.3279869 1.4.063.3700322.3855532.364705.9959638-.012 1.375-.215.216-1.456 1.293-4.706 1.293z" fill="#4c8056"/></g></g></svg>