<svg id="Layer_1" enable-background="new 0 0 512 512" height="512" viewBox="0 0 512 512" width="512" xmlns="http://www.w3.org/2000/svg"><g><g><path d="m256 0c-70.285 0-127.467 57.181-127.467 127.466v80.334c0 8.284 6.716 15 15 15h64.267c8.284 0 15-6.716 15-15v-80.334c0-18.307 14.894-33.199 33.2-33.199s33.2 14.893 33.2 33.199v80.334c0 8.284 6.716 15 15 15h64.267c8.284 0 15-6.716 15-15v-80.334c0-70.285-57.182-127.466-127.467-127.466z" fill="#8db9c4"/><path d="m256 0v94.267c18.307 0 33.2 14.893 33.2 33.199v80.334c0 8.284 6.716 15 15 15h64.267c8.284 0 15-6.716 15-15v-80.334c0-70.285-57.182-127.466-127.467-127.466z" fill="#678c97"/><path d="m376.5 192.8h-241c-30.419 0-55.166 24.747-55.166 55.166v208.868c0 30.419 24.747 55.166 55.166 55.166h241c30.419 0 55.166-24.747 55.166-55.166v-208.868c0-30.419-24.747-55.166-55.166-55.166z" fill="#ffd400"/><path d="m376.5 192.8h-120.5v319.2h120.5c30.419 0 55.166-24.747 55.166-55.166v-208.868c0-30.419-24.747-55.166-55.166-55.166z" fill="#ff9f04"/><path d="m256 289.198c-25.989 0-47.133 21.145-47.133 47.136 0 20.744 13.479 38.389 32.133 44.67v19.595c0 8.284 6.716 15 15 15s15-6.716 15-15v-19.595c18.655-6.281 32.134-23.926 32.134-44.67 0-25.991-21.145-47.136-47.134-47.136z" fill="#265c76"/></g><path d="m256 289.198v126.4c8.284 0 15-6.716 15-15v-19.595c18.655-6.281 32.134-23.926 32.134-44.67 0-25.99-21.145-47.135-47.134-47.135z" fill="#1d4659"/></g></svg>