<svg id="Capa_1" enable-background="new 0 0 512 512" height="512" viewBox="0 0 512 512" width="512" xmlns="http://www.w3.org/2000/svg"><g><path d="m264.024 226.127 18.731-125.259c2.305-15.404 16.66-26.027 32.066-23.723 15.405 2.303 26.027 16.659 23.723 32.065l-7.28 48.683 111.553-98.572c11.673-10.315 29.497-9.213 39.811 2.459 10.314 11.673 9.214 29.496-2.459 39.811l-111.553 98.572 49.209-1.232c15.572-.39 28.511 11.917 28.901 27.489.217 8.671-3.502 16.525-9.53 21.852-4.798 4.239-11.058 6.877-17.96 7.051l-126.612 3.171c-8.329.208-16.324-3.276-21.841-9.52s-7.991-14.607-6.759-22.847z" fill="#8ac9fe"/><path d="m467.882 82.407-126.177 112.4c-2.703 2.408-.861 6.875 2.754 6.677l24.157-1.32 111.549-98.568c11.677-10.322 12.776-28.142 2.464-39.818-1.675-1.888-3.542-3.501-5.552-4.833 1.423 9.173-1.717 18.857-9.195 25.462z" fill="#60b7ff"/><path d="m292.624 258.497 126.617-3.178c6.894-.165 13.159-2.803 17.959-7.041 6.027-5.327 9.741-13.19 9.526-21.856-.239-9.562-5.203-17.886-12.612-22.804.193 1.178.299 2.387.33 3.616.214 8.676-3.509 16.527-9.536 21.855-4.8 4.238-11.054 6.877-17.96 7.051l-126.616 3.168c-5.833.143-11.503-1.519-16.275-4.679.811 5.269 3.113 10.263 6.732 14.346 5.515 6.239 13.502 9.73 21.835 9.522z" fill="#60b7ff"/><path d="m202.449 55.274c-27.192-41.947-63.977-74.507-114.716-42.128-28.338 18.085-48.981 46.943-60.096 78.67-23.629 67.449-12.398 139.648 19.413 202.392 39.194 77.305 106.768 147.707 182.823 189.241 83.761 45.742 166.651 36.462 237.538-27.443 29.956-27.006 44.343-73.885 8.172-102.971-29.79-23.955-75.119-61.036-114.396-35.386-27.036 17.656-35.472 47.29-71.167 49.75-61.037 4.207-125.893-90.646-133.861-143.551-2.47-16.409 1.998-30.689 11.822-43.774 10.298-13.715 22.664-17.142 34.872-26.661 29.03-22.631 21.658-64.106-.404-98.139z" fill="#b0e7c9"/><path d="m467.413 456.006c-70.893 63.909-153.78 73.187-237.542 27.444-76.056-41.536-143.627-111.936-182.818-189.237-21.972-43.326-34.13-91.167-31.754-138.834 1.944 39.685 13.434 78.947 31.754 115.063 39.191 77.312 106.761 147.711 182.818 189.247 83.761 45.743 166.648 36.455 237.542-27.444 14.185-12.796 24.872-30.036 28.37-47.739 5.41 25.068-7.807 52.964-28.37 71.5z" fill="#91deb6"/></g></svg>