<svg id="Capa_1" enable-background="new 0 0 512 512" height="512" viewBox="0 0 512 512" width="512" xmlns="http://www.w3.org/2000/svg"><g clip-rule="evenodd" fill-rule="evenodd"><path d="m256.014 161.436c46.347 0 84.331 142.611 87.761 323.635.283 14.031-1.531 26.93-19.871 26.93h-135.78c-16.923 0-20.154-11.084-19.899-25.145 3.231-181.874 41.301-325.42 87.789-325.42z" fill="#ffede7"/><path d="m256.014 161.463c46.347 0 84.331 142.584 87.761 323.607.283 14.031-1.531 26.93-19.871 26.93h-25.001c18.369 0 20.154-12.898 19.871-26.93-3.118-164.439-34.753-297.16-75.26-320.092 4.081-2.324 8.248-3.515 12.5-3.515z" fill="#f7e6e1"/><path d="m256.014 220.906c-135.751 0-245.82-9.439-245.82-72.539s83.735-48.332 132.633-81.527c43.767-29.707 49.067-66.84 113.187-66.84 64.091 0 69.392 37.133 113.159 66.84 48.926 33.195 132.633 18.428 132.633 81.527s-110.04 72.539-245.792 72.539z" fill="#fca65c"/><path d="m256.014 342.258c-9.355 0-18.68 11.822-28.035 11.822-9.326 0-18.68-11.822-28.006-11.822-9.354 0-18.708 11.822-28.035 11.822-36.113 0-50.06-81.695 19.814-81.695h64.261 64.233c69.902 0 55.928 81.695 19.843 81.695-9.354 0-18.709-11.822-28.035-11.822-9.354 0-18.68 11.822-28.035 11.822-9.325 0-18.679-11.822-28.005-11.822z" fill="#f4cfc9"/><path d="m10.194 148.367c0 55.305 84.614 69.393 196.951 72.029 15.789.369 32.145.51 48.869.51 16.725 0 33.081-.141 48.869-.51 112.337-2.637 196.923-16.725 196.923-72.029 0-4.848-.482-9.213-1.418-13.182-11.877 47.141-97.285 58.592-206.419 60.436-12.388.197-25.058.283-37.956.283s-25.568-.086-37.956-.283c-109.134-1.844-194.542-13.295-206.447-60.436-.934 3.969-1.416 8.335-1.416 13.182z" fill="#ed9649"/><path d="m321.438 277.43c29.82 13.607 28.233 51.309 12.076 68.23-1.502 1.559-3.118 2.947-4.848 4.139 1.928 1.191 3.855 2.268 5.811 3.061 1.871.738 3.742 1.221 5.613 1.221 36.085 0 50.06-81.695-19.814-81.695h-.028-24.973c10.544-.001 19.218 1.87 26.163 5.044z" fill="#edc4be"/><path d="m95.97 128.609c25.03 0 45.326 9.213 45.326 20.58 0 11.395-20.296 20.607-45.326 20.607s-45.326-9.213-45.326-20.607c0-11.367 20.296-20.58 45.326-20.58zm291.544-10.318c25.03 0 45.326 9.695 45.326 21.629 0 11.963-20.296 21.656-45.326 21.656s-45.326-9.693-45.326-21.656c0-11.934 20.295-21.629 45.326-21.629zm-135.468-64.887c34.98 0 63.354 14.514 63.354 32.43 0 17.943-28.374 32.457-63.354 32.457s-63.354-14.514-63.354-32.457c-.001-17.916 28.374-32.43 63.354-32.43zm13.379 98.619c21.6 0 39.118 7.965 39.118 17.773 0 9.836-17.518 17.773-39.118 17.773-21.572 0-39.09-7.938-39.09-17.773 0-9.808 17.518-17.773 39.09-17.773z" fill="#ffbe85"/></g></svg>