<svg id="Capa_1" enable-background="new 0 0 512 512" height="512" viewBox="0 0 512 512" width="512" xmlns="http://www.w3.org/2000/svg"><g><path d="m224.46 218.038h21.661l17.126-83.6v-61.38c0-40.182-25.934-73.058-57.632-73.058h-23.794c25.151 0 42.639 32.876 42.639 73.058z" fill="#fee6c1"/><g><path d="m227.55 218.038v-144.98c0-40.182-20.578-73.058-45.729-73.058s-45.729 32.876-45.729 73.058v144.98z" fill="#ffd086"/></g><path d="m194.477 2.886c-4.025-1.865-8.269-2.886-12.656-2.886-25.151 0-45.729 32.876-45.729 73.058v144.98h25.311v-144.98c0-33.172 14.029-61.344 33.074-70.172z" fill="#ffc365"/><path d="m364.173 6.399-23.135-5.591c24.454 5.91 33.718 42.709 24.366 81.777l-32.428 135.453 39.806-.001 30.42-127.065c9.353-39.068-8.21-77.126-39.029-84.573z" fill="#fee6c1"/><path d="m336.067 218.038 32.428-135.453c9.353-39.068-3.002-75.867-27.456-81.777-24.454-5.909-52.114 21.221-61.467 60.288l-37.572 156.942z" fill="#ffd086"/><path d="m347.176 3.068c-1.951-.973-3.995-1.741-6.138-2.259-24.453-5.909-52.113 21.221-61.467 60.288l-37.571 156.941h26.747l37.572-156.941c6.761-28.242 23.09-50.236 40.857-58.029z" fill="#ffc365"/><g><path d="m325.835 80.057c-.601 0-1.211-.07-1.821-.218l-46.269-11.18c-4.148-1.002-6.698-5.177-5.696-9.325s5.177-6.701 9.325-5.695l46.269 11.18c4.148 1.002 6.698 5.177 5.696 9.325-.855 3.538-4.018 5.913-7.504 5.913z" fill="#ffa90f"/></g><g><path d="m317.32 115.625c-.601 0-1.21-.07-1.82-.218l-46.271-11.174c-4.148-1.001-6.698-5.176-5.697-9.324 1.002-4.148 5.177-6.701 9.324-5.696l46.271 11.174c4.148 1.001 6.698 5.176 5.697 9.324-.854 3.538-4.018 5.914-7.504 5.914z" fill="#ffa90f"/></g><g><path d="m308.805 151.193c-.601 0-1.21-.07-1.82-.218l-46.271-11.175c-4.148-1.001-6.698-5.176-5.697-9.324 1.002-4.148 5.176-6.701 9.324-5.696l46.271 11.174c4.148 1.001 6.698 5.176 5.697 9.324-.854 3.539-4.018 5.915-7.504 5.915z" fill="#ffa90f"/></g><g><path d="m300.29 186.76c-.601 0-1.211-.07-1.82-.218l-46.27-11.174c-4.148-1.001-6.698-5.176-5.697-9.324 1.002-4.148 5.179-6.702 9.324-5.696l46.27 11.174c4.148 1.001 6.698 5.176 5.697 9.324-.854 3.538-4.018 5.914-7.504 5.914z" fill="#ffa90f"/></g><g><path d="m183.68 80.838h-47.589c-4.267 0-7.726-3.459-7.726-7.726s3.459-7.726 7.726-7.726h47.589c4.267 0 7.726 3.459 7.726 7.726s-3.459 7.726-7.726 7.726z" fill="#ffa90f"/></g><g><path d="m183.68 117.419h-47.589c-4.267 0-7.726-3.459-7.726-7.726 0-4.268 3.459-7.726 7.726-7.726h47.589c4.267 0 7.726 3.459 7.726 7.726.001 4.267-3.459 7.726-7.726 7.726z" fill="#ffa90f"/></g><g><path d="m183.68 154.002h-47.589c-4.267 0-7.726-3.459-7.726-7.726s3.459-7.726 7.726-7.726h47.589c4.267 0 7.726 3.459 7.726 7.726s-3.459 7.726-7.726 7.726z" fill="#ffa90f"/></g><g><path d="m183.68 190.583h-47.589c-4.267 0-7.726-3.459-7.726-7.726 0-4.268 3.459-7.726 7.726-7.726h47.589c4.267 0 7.726 3.459 7.726 7.726.001 4.267-3.459 7.726-7.726 7.726z" fill="#ffa90f"/></g><path d="m100.917 217.021c-5.841 0-10.576 4.735-10.576 10.576v273.826c0 5.841 4.735 10.576 10.576 10.576h246.794v-294.978z" fill="#bc7c63"/><path d="m127.947 501.423v-273.825c0-5.841 4.735-10.576 10.576-10.576h-37.606c-5.841 0-10.576 4.735-10.576 10.576v273.826c0 5.841 4.735 10.576 10.576 10.576h37.606c-5.841 0-10.576-4.736-10.576-10.577z" fill="#ab6b51"/><path d="m384.634 461.866h-1.957c-.619 1.642-1.521 3.179-2.683 4.531l-34.343 39.974v5.629h65.433c4.417 0 8.197-2.709 9.78-6.555l-33.547-39.048c-1.163-1.352-2.064-2.888-2.683-4.531z" fill="#965a44"/><path d="m345.65 512 34.757-40.455c2.096-2.439 3.248-5.549 3.248-8.764 0-19.55 0-230.913 0-245.759h-38.005z" fill="#ab6b51"/><path d="m421.659 501.423v-273.825c0-5.842-4.735-10.577-10.576-10.577h-27.428v245.759c0 3.216 1.152 6.325 3.248 8.764l31.883 37.111c1.777-1.892 2.873-4.431 2.873-7.232z" fill="#bc7c63"/></g></svg>