<svg height="512" viewBox="0 0 48 48" width="512" xmlns="http://www.w3.org/2000/svg"><g id="Message_in_smartphone" data-name="Message in smartphone"><path d="m33 7v-2a4 4 0 0 0 -4-4h-20a4 4 0 0 0 -4 4v38a4 4 0 0 0 4 4h20a4 4 0 0 0 4-4z" fill="#374f68"/><path d="m29 1h-17a4 4 0 0 0 -4 4v36a4 4 0 0 0 4 4h20a3.87 3.87 0 0 0 .48 0 4 4 0 0 0 .52-2v-38a4 4 0 0 0 -4-4z" fill="#425b72"/><path d="m7 7h24v34h-24z" fill="#9fdbf3"/><path d="m31 33v8h-22v-34h22v12z" fill="#b2e5fb"/><path d="m23 19h8a0 0 0 0 1 0 0v14a0 0 0 0 1 0 0h-8a2 2 0 0 1 -2-2v-10a2 2 0 0 1 2-2z" fill="#9fdbf3"/><path d="m20 45h-2a1 1 0 0 1 0-2h2a1 1 0 0 1 0 2z" fill="#dad7e5"/><path d="m43 19v10a1.87 1.87 0 0 1 -.09.59 2 2 0 0 1 -1.48 1.41 2 2 0 0 1 -.43 0h-16a2 2 0 0 1 -.43-.05 2 2 0 0 1 -1.48-1.36 1.87 1.87 0 0 1 -.09-.59v-10a2 2 0 0 1 .22-.91 2 2 0 0 1 1.78-1.09h16a2 2 0 0 1 1.78 1.09 2 2 0 0 1 .22.91z" fill="#fc6"/><path d="m43 19v10h-13a5 5 0 0 1 -5-5v-7h16a2 2 0 0 1 1.78 1.09 2 2 0 0 1 .22.91z" fill="#ffde76"/><path d="m42.91 29.59a2 2 0 0 1 -1.48 1.41l-6.82-6-1 .79a1 1 0 0 1 -1.26 0l-1-.79-6.82 6a2 2 0 0 1 -1.48-1.36l6.73-5.9-6.6-5.6a2 2 0 0 1 1.82-1.14l8 6.71 8-6.71a2 2 0 0 1 1.78 1.09l-6.6 5.6z" fill="#fc6"/></g></svg>