<?xml version="1.0" encoding="iso-8859-1"?>
<!-- Generator: Adobe Illustrator 19.0.0, SVG Export Plug-In . SVG Version: 6.00 Build 0)  -->
<svg version="1.1" id="Capa_1" xmlns="http://www.w3.org/2000/svg" xmlns:xlink="http://www.w3.org/1999/xlink" x="0px" y="0px"
	 viewBox="0 0 490.667 490.667" style="enable-background:new 0 0 490.667 490.667;" xml:space="preserve">
<path style="fill:#FFC107;" d="M245.333,0C109.839,0,0,109.839,0,245.333s109.839,245.333,245.333,245.333
	s245.333-109.839,245.333-245.333C490.514,109.903,380.764,0.153,245.333,0z"/>
<g>
	<path style="fill:#FAFAFA;" d="M181.333,362.667c-5.891-0.001-10.666-4.778-10.664-10.669c0-1.359,0.26-2.704,0.766-3.966
		l25.109-62.784c7.248-19.285,3.134-41.002-10.667-56.299c-9.404-10.051-14.813-23.191-15.211-36.949
		c3.208-38.158,36.467-66.666,74.667-64c38.2-2.666,71.459,25.842,74.667,64c0,5.891-4.776,10.667-10.667,10.667
		s-10.667-4.776-10.667-10.667c-3.337-26.292-26.95-45.182-53.333-42.667C218.95,146.818,195.337,165.708,192,192
		c0.477,8.645,4.061,16.827,10.091,23.04c18.975,21.332,24.472,51.465,14.251,78.123l-17.067,42.667
		c21.107-3.186,42.604-2.717,63.552,1.387c15.384,2.483,30.926,3.859,46.507,4.117c5.891,0,10.667,4.776,10.667,10.667
		c0,5.891-4.776,10.667-10.667,10.667c-16.564-0.244-33.09-1.67-49.451-4.267c-24.74-5.768-50.598-4.519-74.667,3.605
		C183.973,362.462,182.657,362.686,181.333,362.667z"/>
	<path style="fill:#FAFAFA;" d="M288,256H160c-5.891,0-10.667-4.776-10.667-10.667c0-5.891,4.776-10.667,10.667-10.667h128
		c5.891,0,10.667,4.776,10.667,10.667C298.667,251.224,293.891,256,288,256z"/>
</g>
<g>
</g>
<g>
</g>
<g>
</g>
<g>
</g>
<g>
</g>
<g>
</g>
<g>
</g>
<g>
</g>
<g>
</g>
<g>
</g>
<g>
</g>
<g>
</g>
<g>
</g>
<g>
</g>
<g>
</g>
</svg>
