<svg id="color" enable-background="new 0 0 24 24" height="512" viewBox="0 0 24 24" width="512" xmlns="http://www.w3.org/2000/svg"><path d="m16.082 6.432-.431 2.7c-.046.283.075.568.311.732.128.091.278.136.43.136.125 0 .251-.031.365-.095l2.259-1.258 2.269 1.242c.25.138.56.122.795-.046.233-.166.353-.451.306-.735l-.45-2.696 1.854-1.911c.196-.202.263-.496.172-.762-.09-.267-.321-.46-.6-.501l-2.542-.379-1.151-2.429c-.126-.263-.39-.43-.68-.43-.001 0-.002 0-.003 0-.29.001-.555.17-.677.434l-1.134 2.436-2.541.396c-.277.043-.508.239-.596.506-.089.267-.02.561.177.761z" fill="#ffc107"/><path d="m23.36 17.237-2.542-.379-1.151-2.429c-.124-.262-.388-.429-.678-.429-.001 0-.002 0-.003 0-.29.001-.555.17-.677.434l-1.135 2.437-2.541.396c-.277.043-.508.239-.596.506-.089.267-.02.561.177.761l1.867 1.898-.431 2.7c-.046.283.075.568.311.732.129.091.279.136.431.136.125 0 .251-.031.365-.095l2.259-1.258 2.269 1.242c.25.138.56.121.795-.046.233-.166.353-.451.306-.735l-.45-2.696 1.854-1.911c.196-.202.263-.496.172-.762-.092-.267-.323-.46-.602-.502z" fill="#ffc107"/><path d="m10.75 13.75h-2c-.414 0-.75-.336-.75-.75s.336-.75.75-.75h2c.414 0 .75.336.75.75s-.336.75-.75.75z" fill="#607d8b"/><path d="m13.25 21h-2.5c-.414 0-.75-.336-.75-.75v-13.5c0-.414.336-.75.75-.75h2.5c.414 0 .75.336.75.75s-.336.75-.75.75h-1.75v12h1.75c.414 0 .75.336.75.75s-.336.75-.75.75z" fill="#607d8b"/><g fill="#2196f3"><path d="m4 12c-1.103 0-2-.897-2-2s.897-2 2-2 2 .897 2 2-.897 2-2 2z"/><path d="m7.25 17h-6.5c-.414 0-.75-.336-.75-.75v-.5c0-1.517 1.233-2.75 2.75-2.75h2.5c1.517 0 2.75 1.233 2.75 2.75v.5c0 .414-.336.75-.75.75z"/></g></svg>