<svg id="Layer_1" enable-background="new 0 0 512 512" height="512" viewBox="0 0 512 512" width="512" xmlns="http://www.w3.org/2000/svg"><g><path d="m256 415.6c-70.285 0-127.467-57.181-127.467-127.466 0-8.284 6.716-15 15-15 34.059 0 66.063 13.257 90.137 37.329 24.073 24.073 37.33 56.079 37.33 90.121v.016c0 8.284-6.716 15-15 15z" fill="#87e752"/><path d="m256 512c-8.284 0-15-6.716-15-15v-257.066c0-8.284 6.716-15 15-15s15 6.716 15 15v257.066c0 8.284-6.716 15-15 15z" fill="#4ec95f"/><path d="m256 415.6c-8.284 0-15-6.716-15-15v-.016c0-34.042 13.257-66.048 37.33-90.121 24.073-24.072 56.078-37.329 90.12-37.329 8.284 0 15.017 6.716 15.017 15 0 70.285-57.182 127.466-127.467 127.466z" fill="#14aa6b"/><path d="m256 254.934c-17.742 0-34.057-9.299-43.154-23.277-16.32 3.45-34.435-1.514-46.978-14.065-12.543-12.541-17.505-30.652-14.057-46.97-13.979-9.097-23.278-25.412-23.278-43.154 0-17.745 9.3-34.063 23.276-43.161-3.449-16.316 1.515-34.429 14.063-46.977 12.538-12.546 30.651-17.511 46.976-14.054 9.096-13.977 25.411-23.276 43.152-23.276s34.056 9.299 43.153 23.275c16.324-3.455 34.438 1.509 46.979 14.059 12.545 12.544 17.508 30.655 14.059 46.972 13.977 9.099 23.276 25.416 23.276 43.161 0 17.742-9.3 34.058-23.278 43.155 3.448 16.317-1.515 34.429-14.061 46.974-12.54 12.549-30.657 17.51-46.974 14.061-9.097 13.978-25.412 23.277-43.154 23.277z" fill="#f5f5fa"/><path d="m299.154 231.656c16.316 3.449 34.434-1.512 46.974-14.061 12.546-12.545 17.509-30.656 14.061-46.974 13.979-9.098 23.278-25.413 23.278-43.155 0-17.745-9.3-34.063-23.276-43.161 3.449-16.316-1.514-34.428-14.059-46.972-12.541-12.55-30.654-17.514-46.979-14.059-9.097-13.975-25.412-23.274-43.153-23.274v254.934c17.742 0 34.057-9.299 43.154-23.278z" fill="#e1e1eb"/><path d="m368.467 512h-224.934c-8.284 0-15-6.716-15-15s6.716-15 15-15h224.934c8.284 0 15 6.716 15 15s-6.716 15-15 15z" fill="#c8ff50"/><path d="m256 174.6c-25.989 0-47.134-21.144-47.134-47.133s21.145-47.134 47.134-47.134 47.134 21.145 47.134 47.134-21.145 47.133-47.134 47.133z" fill="#fadc5c"/><path d="m303.134 127.467c0-25.989-21.145-47.134-47.134-47.134v94.267c25.989 0 47.134-21.144 47.134-47.133z" fill="#fdb442"/><path d="m368.467 482h-127.467v30h127.467c8.284 0 15-6.716 15-15s-6.716-15-15-15z" fill="#87e752"/></g></svg>