<svg id="Capa_1" enable-background="new 0 0 512 512" height="512" viewBox="0 0 512 512" width="512" xmlns="http://www.w3.org/2000/svg"><g><g><g><path d="m458.573 216.378h-89.611v-137.372c0-8.284 6.716-15 15-15h59.611c8.284 0 15 6.716 15 15z" fill="#912f41"/><g><g><path d="m458.611 497.49h-405.222v-293.139l202.611-190 202.611 190z" fill="#f9f2f2"/><path d="m256.47 14.792v482.698h202.141v-293.139z" fill="#e7e2ee"/></g><g><path d="m496.79 220.763s-230.299-215.963-230.356-216.024c-5.667-6.043-15.159-6.347-21.203-.681l-230.021 215.705c-6.043 5.667-6.348 15.159-.681 21.202 2.953 3.148 6.944 4.739 10.945 4.739 3.678 0 7.363-1.344 10.258-4.058l219.735-206.06 220.803 207.06c2.895 2.714 6.58 4.058 10.258 4.058 4 0 7.992-1.591 10.944-4.739 5.666-6.042 5.361-15.535-.682-21.202z" fill="#d37b5f"/><path d="m496.79 220.763s-230.299-215.963-230.356-216.024c-2.711-2.891-6.298-4.453-9.964-4.692v36.481l219.798 206.118c2.895 2.714 6.58 4.058 10.258 4.058 4 0 7.992-1.591 10.944-4.739 5.668-6.042 5.363-15.535-.68-21.202z" fill="#c5344e"/></g></g></g><g><path d="m497.051 512h-482.102c-8.256 0-14.949-6.716-14.949-15s6.693-15 14.949-15h482.102c8.256 0 14.949 6.716 14.949 15s-6.693 15-14.949 15z" fill="#71bda5"/><path d="m497.051 482h-240.581v30h240.58c8.256 0 14.949-6.716 14.949-15s-6.692-15-14.948-15z" fill="#518f8d"/></g></g><g><g><path d="m157.218 241.964c31.323-13.247 64.558-19.964 98.782-19.964l10 13.727-10 16.273c-30.188 0-59.491 5.92-87.096 17.595-7.633 3.227-16.431-.342-19.658-7.973-3.227-7.63.342-16.431 7.972-19.658z" fill="#3b5988"/><path d="m354.782 241.964c-31.323-13.247-64.558-19.964-98.782-19.964v30c30.188 0 59.491 5.92 87.096 17.595 7.633 3.227 16.431-.342 19.658-7.973 3.227-7.63-.342-16.431-7.972-19.658z" fill="#283c5b"/></g><g><path d="m186.969 294.668c22.049-8.403 45.274-12.663 69.031-12.663l11 15.57-11 14.43c-20.092 0-39.723 3.599-58.347 10.696-7.743 2.949-16.408-.934-19.358-8.675-2.951-7.741.933-16.408 8.674-19.358z" fill="#3b5988"/><path d="m325.031 294.668c-22.049-8.403-45.274-12.663-69.031-12.663v30c20.092 0 39.723 3.599 58.347 10.696 7.743 2.949 16.408-.934 19.358-8.675 2.951-7.741-.933-16.408-8.674-19.358z" fill="#283c5b"/></g><g><path d="m218.779 347.317c12.133-3.528 24.74-5.317 37.47-5.317l10.829 15.239-10.829 14.761c-9.895 0-19.683 1.387-29.094 4.124-7.957 2.313-16.278-2.261-18.591-10.215-2.313-7.955 2.261-16.279 10.215-18.592z" fill="#3b5988"/><path d="m293.719 347.317c-12.133-3.528-24.74-5.317-37.47-5.317v30c9.895 0 19.683 1.387 29.094 4.124 7.957 2.313 16.278-2.261 18.591-10.215 2.313-7.955-2.26-16.279-10.215-18.592z" fill="#283c5b"/></g><g><path d="m248.306 404.14c2.365-1.408 5.033-2.102 7.694-2.103l8 15.981-8 13.981c-7.071-.008-13.301-5.147-14.693-12.069-1.234-6.134 1.622-12.588 6.999-15.79z" fill="#3b5988"/><path d="m263.694 404.14c-2.365-1.408-5.033-2.102-7.694-2.103v29.962c7.071-.008 13.301-5.147 14.693-12.069 1.234-6.134-1.622-12.588-6.999-15.79z" fill="#283c5b"/></g></g></g></svg>