<?xml version="1.0" encoding="iso-8859-1"?>
<!-- Generator: Adobe Illustrator 19.0.0, SVG Export Plug-In . SVG Version: 6.00 Build 0)  -->
<svg version="1.1" id="Capa_1" xmlns="http://www.w3.org/2000/svg" xmlns:xlink="http://www.w3.org/1999/xlink" x="0px" y="0px"
	 viewBox="0 0 468.293 468.293" style="enable-background:new 0 0 468.293 468.293;" xml:space="preserve">
<g>
	<path style="fill:#3EA69B;" d="M224.392,373.074v30.782c-60.254,3.559-113.702-40.086-121.444-100.839
		c4.995-0.624,9.928-0.936,14.861-0.936C164.763,302.08,206.659,330.677,224.392,373.074z"/>
	<path style="fill:#3EA69B;" d="M365.317,326.868c-7.742,60.753-61.253,104.523-121.506,100.902v-30.595
		c17.67-42.583,59.692-71.243,106.771-71.243C355.452,325.932,360.384,326.244,365.317,326.868z"/>
</g>
<path style="fill:#44C4A1;" d="M268.974,455.306v12.987h-69.682v-12.987h25.101V270.361c3.247,0.25,6.494,0.375,9.74,0.375
	c3.247,0,6.431-0.125,9.678-0.375v184.944H268.974z"/>
<path style="fill:#FCD462;" d="M369.523,135.344c0,71.527-55.459,130.096-125.69,135.02c-3.239,0.259-6.479,0.389-9.718,0.389
	c-3.239,0-6.479-0.13-9.718-0.389C154.23,265.439,98.77,206.87,98.77,135.344C98.77,60.578,159.413,0,234.114,0
	C308.88,0,369.523,60.578,369.523,135.344z"/>
<path style="fill:#F6C358;" d="M234.148,234.445c-54.627,0-99.069-44.447-99.069-99.075s44.442-99.069,99.069-99.069
	s99.069,44.442,99.069,99.069S288.775,234.445,234.148,234.445z"/>
<path style="fill:#DC8744;" d="M230.331,207.366v-12.679c-15.874-1.618-30.122-7.93-42.73-18.927l12.679-15.11
	c9.725,8.453,19.732,13.485,30.051,15.11v-33.698c-13.089-3.124-22.672-7.237-28.75-12.333c-6.078-5.096-9.117-12.651-9.117-22.665
	c0-10.015,3.491-18.206,10.502-24.581c7.011-6.368,16.128-9.838,27.365-10.417V63.38h11.11v8.856
	c12.736,0.933,24.778,5.272,36.129,13.032l-11.294,15.98c-7.647-5.442-15.916-8.799-24.835-10.078v32.652h0.523
	c13.315,3.131,23.096,7.357,29.344,12.679c6.262,5.329,9.386,13.061,9.386,23.188c0,10.135-3.59,18.39-10.771,24.75
	c-7.181,6.375-16.665,9.845-28.482,10.424v12.502H230.331z M218.076,95.255c-2.954,2.601-4.424,5.845-4.424,9.725
	c0,3.88,1.159,6.947,3.477,9.202c2.304,2.262,6.714,4.431,13.202,6.516V90.647C225.116,91.113,221.031,92.647,218.076,95.255z
	 M254.643,171.413c3.237-2.657,4.862-6.014,4.862-10.071c0-4.05-1.272-7.265-3.816-9.64c-2.558-2.375-7.308-4.601-14.248-6.686
	v31.259C246.996,175.703,251.392,174.078,254.643,171.413z"/>
<g>
</g>
<g>
</g>
<g>
</g>
<g>
</g>
<g>
</g>
<g>
</g>
<g>
</g>
<g>
</g>
<g>
</g>
<g>
</g>
<g>
</g>
<g>
</g>
<g>
</g>
<g>
</g>
<g>
</g>
</svg>
