<svg id="Capa_1" enable-background="new 0 0 512 512" height="512" viewBox="0 0 512 512" width="512" xmlns="http://www.w3.org/2000/svg"><g><path d="m298.919 146.869c-.671-41.649-5.72-114.102-5.72-114.102h-74.399s-5.048 72.453-5.72 114.102c-.166 10.295-3.231 20.328-8.824 28.972l-17.476 27.009c-5.766 8.911-8.833 19.299-8.833 29.912v252.189c0 14.938 12.11 27.047 27.047 27.047h102.01c14.938 0 27.047-12.109 27.047-27.047v-252.188c0-10.614-3.067-21.001-8.833-29.912l-17.476-27.009c-5.592-8.645-8.657-18.677-8.823-28.973z" fill="#f3f0f3"/><path d="m334.051 232.758v252.198c0 14.935-12.105 27.04-27.05 27.04h-22.603c14.935 0 27.05-12.105 27.05-27.04v-252.198c0-10.612-3.067-20.998-8.842-29.911l-17.467-27.009c-5.599-8.646-8.667-18.671-8.831-28.964-.669-41.656-5.713-108.364-5.713-108.364h22.603s5.054 66.709 5.723 108.364c.165 10.293 3.232 20.318 8.821 28.964l17.477 27.009c5.765 8.914 8.832 19.299 8.832 29.911z" fill="#e2dee2"/><path d="m331.805 232.573v205.573l2.246 4.219v42.591c0 14.935-12.105 27.04-27.05 27.04h-102.003c-14.945 0-27.05-12.105-27.05-27.04v-42.591l1.81-3.831v-204.797c0-1.818-1.72-4.608-1.542-6.407.862-8.699 3.787-17.097 8.563-24.483l17.477-27.009c5.589-8.646 8.656-18.671 8.821-28.964.144-9.099.504-19.382.968-29.911h83.908c.463 10.53.823 20.812.968 29.911.165 10.293 3.232 20.318 8.821 28.964l17.477 27.009c3.281 5.075 6.311 10.663 7.776 16.462.501 1.981.834 3.985.988 5.992.033.424.067 1.712.067 2.002.001 0-2.245 3.452-2.245 5.27z" fill="#fee45a"/><path d="m334.051 484.956c0 14.935-12.105 27.04-27.05 27.04h-22.603c14.935 0 27.05-12.105 27.05-27.04v-252.198c0-10.612-3.067-20.998-8.842-29.911l-17.467-27.009c-5.599-8.646-8.667-18.671-8.831-28.964-.144-9.099-.504-19.382-.968-29.911h22.614c.031.731.062 1.462.093 2.193.124 3.005.247 5.99.36 8.914 0 .196.473 15.964.515 18.805.165 10.293 3.232 20.318 8.821 28.964l17.477 27.009c4.737 7.326 8.831 15.547 8.832 24.457l-1.087 1.872-.162 211.258 1.248 1.931z" fill="#fedf30"/><path d="m289.158 0h-19.355l-3.221 1.527-21.193-.225-3.191-1.302h-19.356c-3.014 0-5.761 1.727-7.052 4.45-2.62 5.528-6.895 15.363-8.957 24.623-1.08 4.851 2.671 9.44 7.641 9.44h83.051c4.97 0 8.722-4.589 7.641-9.44-2.062-9.26-6.337-19.095-8.957-24.623-1.291-2.723-4.038-4.45-7.051-4.45z" fill="#00c27a"/><path d="m297.522 38.51h-20.586c4.971 0 8.718-4.591 7.637-9.439-2.059-9.253-6.33-19.093-8.955-24.621-1.287-2.728-4.035-4.447-7.051-4.447h20.586c3.016 0 5.764 1.719 7.061 4.447 2.614 5.527 6.886 15.367 8.955 24.621 1.081 4.848-2.676 9.439-7.647 9.439z" fill="#08b865"/><path d="m177.948 227.304h156.105v215.061h-156.105z" fill="#f3f0f3"/><path d="m334.051 227.303v215.061h-22.603v-209.606c0-1.832-.093-3.654-.278-5.455z" fill="#e2dee2"/><path d="m177.948 303.969h156.105v61.73h-156.105z" fill="#bbec6c"/><path d="m311.439 303.969h22.614v61.73h-22.614z" fill="#a2e62e"/><path d="m256 74.415c-7.623 0-13.802-6.179-13.802-13.802v-60.613h27.604v60.613c0 7.622-6.179 13.802-13.802 13.802z" fill="#fee97d"/><path d="m269.803.004v60.605c0 7.627-6.176 13.803-13.803 13.803-2.429 0-4.724-.628-6.701-1.74 4.23-2.347 7.102-6.876 7.102-12.063v-60.605z" fill="#fee45a"/><path d="m256 402.591c-21.595 0-39.264-17.669-39.264-39.263v-56.987c0-21.595 17.669-39.264 39.264-39.264 21.595 0 39.264 17.669 39.264 39.264v56.987c0 21.595-17.669 39.263-39.264 39.263z" fill="#00c27a"/><path d="m295.268 306.343v56.982c0 21.595-17.673 39.268-39.268 39.268-3.675 0-7.236-.515-10.612-1.462 16.489-4.663 28.656-19.886 28.656-37.806v-56.982c0-10.797-4.416-20.617-11.538-27.729-4.694-4.704-10.561-8.224-17.117-10.077 3.376-.947 6.937-1.462 10.612-1.462 10.797 0 20.617 4.416 27.729 11.538 7.122 7.113 11.538 16.933 11.538 27.73z" fill="#08b865"/></g></svg>