<svg id="Capa_1" enable-background="new 0 0 512 512" height="512" viewBox="0 0 512 512" width="512" xmlns="http://www.w3.org/2000/svg"><g><path d="m348.077 161.847-60.095 30.047-31.952 10-32.012-10-60.095-30.047c-2.371-1.186-3.87-3.61-3.87-6.261v-155.584h191.892v155.584c.001 2.652-1.497 5.075-3.868 6.261z" fill="#9bd8f9"/><path d="m224.018 191.894h63.963v47.973h-63.963z" fill="#f9d264"/><path d="m224.02 191.899h20.592v47.97h-20.592z" fill="#efc356"/><path d="m244.612 191.899h-20.592l-60.101-30.055c-2.371-1.186-3.869-3.61-3.869-6.261v-155.583h20.592v155.583c0 2.651 1.498 5.075 3.869 6.261z" fill="#73c3f9"/><circle cx="256" cy="367.836" fill="#fff292" r="144.164"/><path d="m169.072 367.836c0-69.697 49.716-128 115.546-141.31-9.252-1.871-18.822-2.853-28.618-2.853-79.492 0-144.164 64.672-144.164 144.164s64.672 144.163 144.164 144.163c9.795 0 19.366-.983 28.618-2.853-65.831-13.311-115.546-71.614-115.546-141.311z" fill="#f9e77d"/><circle cx="256" cy="367.836" fill="#f9d264" r="111.937"/><g><path d="m262.988 308.216 13.728 27.817c1.135 2.3 3.329 3.894 5.867 4.263l30.698 4.461c6.392.929 8.944 8.783 4.319 13.292l-22.213 21.652c-1.837 1.79-2.675 4.37-2.241 6.897l5.244 30.574c1.092 6.366-5.59 11.22-11.307 8.215l-27.457-14.435c-2.27-1.193-4.982-1.193-7.252 0l-27.457 14.435c-5.717 3.006-12.398-1.849-11.307-8.215l5.244-30.574c.434-2.528-.405-5.107-2.241-6.897l-22.213-21.653c-4.625-4.508-2.073-12.363 4.319-13.292l30.698-4.461c2.538-.369 4.732-1.963 5.867-4.263l13.729-27.817c2.858-5.791 11.116-5.791 13.975.001z" fill="#fff292"/></g><path d="m224.018.002h63.964v191.892h-63.964z" fill="#f25a74"/><path d="m224.02 0h20.592v191.899h-20.592z" fill="#e83d5a"/><path d="m212.746 264.563c-40.344 16.917-68.683 56.786-68.683 103.274s28.339 86.356 68.683 103.274c-26.926-26.207-43.675-62.821-43.675-103.274.001-40.454 16.749-77.068 43.675-103.274z" fill="#efc356"/></g></svg>