<?xml version="1.0" encoding="iso-8859-1"?>
<!-- Generator: Adobe Illustrator 19.0.0, SVG Export Plug-In . SVG Version: 6.00 Build 0)  -->
<svg version="1.1" id="Capa_1" xmlns="http://www.w3.org/2000/svg" xmlns:xlink="http://www.w3.org/1999/xlink" x="0px" y="0px"
	 viewBox="0 0 511.999 511.999" style="enable-background:new 0 0 511.999 511.999;" xml:space="preserve">
<g>
	<path style="fill:#4EB500;" d="M409.16,119.364l-32.082,20.041l15.734-35.51c3.771,2.778,7.322,5.836,10.636,9.141
		C405.468,115.039,407.376,117.149,409.16,119.364z"/>
	<path style="fill:#4EB500;" d="M500.133,78.14c9.634,9.493,9.757,24.998,0.264,34.631c-0.026,0.026-0.062,0.062-0.088,0.088
		l-0.439,0.439c-9.537,9.563-25.016,9.59-34.579,0.053c-0.018-0.018-0.035-0.035-0.053-0.053l-17.843-17.843l-38.235,23.908
		c-1.784-2.215-3.692-4.325-5.713-6.329c-3.314-3.305-6.865-6.364-10.636-9.141l19.425-43.597l-17.843-17.843
		c-9.563-9.537-9.59-25.015-0.053-34.579c0.018-0.018,0.035-0.035,0.053-0.053l0.527-0.527c9.537-9.563,25.016-9.59,34.579-0.053
		c0.018,0.018,0.035,0.035,0.053,0.053l17.843,17.843l17.843-17.843c9.502-9.634,25.016-9.739,34.64-0.237s9.739,25.015,0.237,34.64
		c-0.255,0.255-0.51,0.51-0.773,0.756l-18.019,17.052L500.133,78.14z"/>
</g>
<g>
	<path style="fill:#E65344;" d="M385.867,174.563v17.579c-33.963-0.035-61.493-27.564-61.528-61.528h17.579
		C341.919,154.883,361.59,174.563,385.867,174.563z"/>
	<path style="fill:#E65344;" d="M350.708,241.892v11.778c-4.685,0.018-9.361-0.36-13.976-1.143L350.708,241.892z"/>
	<path style="fill:#E65344;" d="M350.708,236.091v5.801l-13.976,10.636c-42.569-6.9-73.86-43.632-73.921-86.754h17.579
		C280.444,204.58,311.893,236.038,350.708,236.091z"/>
</g>
<path style="fill:#FF714C;" d="M385.867,192.142v-17.579c-24.268,0-43.949-19.68-43.949-43.949h-17.579
	C324.375,164.578,351.904,192.098,385.867,192.142z M429.113,182.034l-78.404,59.858v-5.801
	c-38.815-0.053-70.265-31.502-70.318-70.318h-17.579c0.062,43.122,31.353,79.854,73.921,86.754l-58.891,44.915
	c-32.944-1.301-58.979-28.382-58.979-61.352h-17.579l-13.536-10.723l3.428-4.307l79.986-100.554
	c29.604-37.136,83.168-44.45,121.649-16.613l-15.734,35.51l32.082-20.041C423.584,136.925,430.73,159.357,429.113,182.034z"/>
<g>
	<path style="fill:#E65344;" d="M280.391,297.619v17.579c-7.375,0.018-14.714-1.02-21.798-3.076l9.141-6.944l10.108-7.735
		C278.686,297.592,279.538,297.645,280.391,297.619z"/>
	<path style="fill:#E65344;" d="M218.863,236.091c0,32.97,26.035,60.051,58.979,61.352l-10.108,7.735l-9.141,6.944
		c-33.893-9.765-57.256-40.758-57.309-76.031C201.284,236.091,218.863,236.091,218.863,236.091z"/>
</g>
<path style="fill:#FF714C;" d="M258.592,312.122l-61.264,46.761c-22.642-1.986-40.011-20.955-39.993-43.685h-17.579l-14.415-11.427
	l3.428-4.307l58.979-74.097l13.536,10.723C201.336,271.364,224.699,302.348,258.592,312.122z"/>
<g>
	<path style="fill:#E65344;" d="M201.284,359.147v17.579c-7.48,0.026-14.907-1.345-21.886-4.043l8.438-6.504l9.493-7.295
		C198.638,359.059,199.956,359.147,201.284,359.147z"/>
	<path style="fill:#E65344;" d="M197.328,358.883l-9.493,7.295l-8.438,6.504c-23.846-9.097-39.615-31.959-39.642-57.485h17.579
		C157.318,337.928,174.686,356.896,197.328,358.883z"/>
	<path style="fill:#E65344;" d="M130.966,411.885v17.579c-6.9-0.018-13.703-1.644-19.865-4.746l17.14-13.009
		C129.146,411.814,130.052,411.867,130.966,411.885z"/>
	<path style="fill:#E65344;" d="M128.241,411.709l-17.14,13.009c-14.784-7.48-24.093-22.633-24.084-39.202h17.579
		C104.65,398.99,114.837,410.276,128.241,411.709z"/>
</g>
<path style="fill:#E66544;" d="M350.708,241.892l78.404-59.858c-1.652,24.822-13.677,47.79-33.137,63.286l-100.554,79.986
	l-78.404,62.407L72.251,502.946c-16.639,13.185-40.521,11.831-55.551-3.164c-0.615-0.615-0.967-1.231-1.494-1.846l38.763-29.533
	c4.5,3.252,9.915,5.01,15.47,5.01v-16.876l41.663-31.819c6.162,3.103,12.965,4.729,19.865,4.746v-17.579
	c-0.914-0.009-1.819-0.07-2.725-0.176l51.156-39.026c6.979,2.698,14.406,4.07,21.886,4.043v-17.579
	c-1.318,0-2.646-0.088-3.955-0.264l61.264-46.761c7.084,2.057,14.424,3.094,21.798,3.076v-17.579
	c-0.853,0.035-1.705-0.026-2.549-0.176l58.891-44.915c4.615,0.782,9.291,1.16,13.976,1.143
	C350.708,253.67,350.708,241.892,350.708,241.892z"/>
<g>
	<path style="fill:#E65344;" d="M69.438,456.536v16.876c-5.555,0-10.97-1.758-15.47-5.01L69.438,456.536z"/>
	<path style="fill:#E65344;" d="M60.648,447.044c0,4.852,3.938,8.79,8.79,8.79v0.703l-15.47,11.866
		c-6.838-4.966-10.89-12.903-10.899-21.359H60.648z"/>
</g>
<path style="fill:#FF714C;" d="M87.017,385.516c-0.009,16.569,9.299,31.722,24.084,39.202l-41.663,31.819v-0.703
	c-4.852,0-8.79-3.938-8.79-8.79H43.069c0.009,8.456,4.061,16.393,10.899,21.359l-38.763,29.533
	c-13.536-15.118-14.239-37.778-1.67-53.705l111.805-140.459l14.415,11.427c0.026,25.525,15.795,48.387,39.642,57.485l-51.156,39.026
	c-13.404-1.433-23.583-12.71-23.644-26.193C104.597,385.516,87.017,385.516,87.017,385.516z"/>
<g>
</g>
<g>
</g>
<g>
</g>
<g>
</g>
<g>
</g>
<g>
</g>
<g>
</g>
<g>
</g>
<g>
</g>
<g>
</g>
<g>
</g>
<g>
</g>
<g>
</g>
<g>
</g>
<g>
</g>
</svg>
