<svg height="511pt" viewBox="0 -5 511.99937 511" width="511pt" xmlns="http://www.w3.org/2000/svg"><path d="m457.949219 397.492188 47.640625 93.402343c3.136718 6.15625-3.4375 12.734375-9.59375 9.59375l-93.402344-47.636719-385.53125-385.527343c-15.285156-15.289063-15.285156-40.074219 0-55.359375 15.289062-15.285156 40.074219-15.285156 55.359375 0zm0 0" fill="#ff8c51"/><path d="m434.8125 437.4375c-1.976562 0-3.953125-.753906-5.464844-2.261719l-352.914062-352.914062c-3.015625-3.015625-3.015625-7.90625 0-10.925781 3.019531-3.015626 7.910156-3.019532 10.929687 0l352.914063 352.910156c3.015625 3.019531 3.015625 7.910156 0 10.929687-1.511719 1.507813-3.488282 2.261719-5.464844 2.261719zm0 0" fill="#f26e3b"/><path d="m457.949219 397.492188 47.640625 93.402343c3.136718 6.15625-3.4375 12.734375-9.59375 9.59375l-93.402344-47.636719c3.398438-29.046874 26.308594-51.957031 55.355469-55.359374zm0 0" fill="#dd9666"/><path d="m449.28125 476.664062 46.714844 23.824219c6.15625 3.140625 12.734375-3.433593 9.59375-9.59375l-23.828125-46.714843c-14.5 6.355468-26.125 17.980468-32.480469 32.484374zm0 0" fill="#465058"/><path d="m121.070312 60.613281-55.355468 55.359375-29.988282-29.988281 55.355469-55.359375zm0 0" fill="#ffe169"/><path d="m91.082031 30.625-18.660156-18.660156c-15.285156-15.285156-40.070313-15.285156-55.355469 0-15.289062 15.289062-15.289062 40.070312 0 55.359375l18.660156 18.660156zm0 0" fill="#fc7371"/><path d="m426.710938 151.054688c-44.628907 44.628906-95.679688 9.097656-95.679688 9.097656s-33.023438-53.558594 9.097656-95.679688c57.921875-57.921875 135.898438-55.90625 166.757813-52.359375 5.0625.582031 6.933593 6.972657 2.988281 10.199219-69.640625 56.910156-34.035156 79.613281-83.164062 128.742188zm0 0" fill="#f3e8d6"/><path d="m506.886719 12.113281c-23.296875-2.675781-73.457031-4.472656-121.5625 19.730469.316406 2.664062.402343 5.457031.195312 8.402344-3.058593 43.453125 11.320313 49.878906 32.742188 49.269531 16.078125-.460937 28.535156 6.148437 34.394531 24.097656 11.386719-27.667969 7.710938-50.839843 57.21875-91.300781 3.945312-3.226562 2.078125-9.617188-2.988281-10.199219zm0 0" fill="#fc7371"/><path d="m506.886719 12.113281c-16.160157-1.855469-45.246094-3.289062-77.601563 4.082031-39.441406 42.601563-18.132812 65.339844-60.839844 108.046876-14.589843 14.59375-29.867187 20.613281-43.820312 22.109374 3.160156 8.53125 6.40625 13.800782 6.40625 13.800782s51.050781 35.527344 95.679688-9.097656c49.128906-49.128907 13.523437-71.832032 83.164062-128.746094 3.945312-3.222656 2.078125-9.613282-2.988281-10.195313zm0 0" fill="#dbcdbd"/><path d="m506.886719 12.113281c-16.160157-1.855469-45.246094-3.289062-77.601563 4.082031-25.265625 27.289063-25.601562 46.429688-33.808594 67.894532 5.773438 4.648437 13.632813 5.683594 22.785157 5.421875 16.078125-.457031 28.535156 6.152343 34.394531 24.097656 11.386719-27.667969 7.710938-50.839844 57.21875-91.300781 3.945312-3.222656 2.078125-9.613282-2.988281-10.195313zm0 0" fill="#d84444"/><path d="m307.335938 242.746094 52.332031-62.027344c4.636719-5.496094 4.292969-13.628906-.792969-18.710938l-29.699219-29.699218c-5.085937-5.085938-13.214843-5.429688-18.710937-.792969l-62.027344 52.328125-242.597656 269.386719c-8.09375 8.988281-7.734375 22.742187.820312 31.292969 8.550782 8.554687 22.304688 8.914062 31.292969.820312zm0 0" fill="#45748c"/></svg>