<?xml version="1.0" encoding="iso-8859-1"?>
<!-- Generator: Adobe Illustrator 19.0.0, SVG Export Plug-In . SVG Version: 6.00 Build 0)  -->
<svg version="1.1" id="Layer_1" xmlns="http://www.w3.org/2000/svg" xmlns:xlink="http://www.w3.org/1999/xlink" x="0px" y="0px"
	 viewBox="0 0 512 512" style="enable-background:new 0 0 512 512;" xml:space="preserve">
<path style="fill:#D9D9DB;" d="M255.993,475.592c-5.439,0-9.847-4.562-9.847-10.192V246.808c0-5.628,4.407-10.192,9.847-10.192
	c5.439,0,9.847,4.564,9.847,10.192v218.593C265.84,471.03,261.431,475.592,255.993,475.592z"/>
<path style="fill:#C8C6CD;" d="M256,236.616c-1.796,0-3.474,0.505-4.923,1.375c2.941,1.763,4.923,5.047,4.923,8.817v218.593
	c0,3.771-1.982,7.055-4.923,8.817c1.449,0.869,3.127,1.375,4.923,1.375c5.439,0,9.847-4.562,9.847-10.192V246.808
	C265.847,241.178,261.439,236.616,256,236.616z"/>
<path style="fill:#D9D9DB;" d="M328.302,512H183.698c-9.167,0-12.073-12.363-3.866-16.448l76.164-37.91l0,0l76.174,37.908
	C340.375,499.637,337.468,512,328.302,512z"/>
<path style="fill:#C8C6CD;" d="M255.996,457.644L279.494,512h48.808c9.167,0,12.073-12.363,3.866-16.448L255.996,457.644z"/>
<path style="fill:#F9DE8F;" d="M167.695,8.542l-18.682,130.934c0,59.086,47.899,106.986,106.986,106.986
	s106.986-47.899,106.986-106.986L344.302,8.542C343.604,3.641,339.406,0,334.455,0H177.542C172.592,0,168.395,3.641,167.695,8.542z"
	/>
<path style="fill:#F7CF6D;" d="M334.455,0h-24.37l17.766,124.502c6.042,42.342-13.215,84.78-49.894,106.781
	c-11.577,6.944-24.577,11.761-38.457,13.91c5.378,0.832,10.886,1.27,16.499,1.27c59.086,0,106.987-47.899,106.987-106.987
	L344.303,8.542C343.604,3.641,339.406,0,334.455,0z"/>
<g>
</g>
<g>
</g>
<g>
</g>
<g>
</g>
<g>
</g>
<g>
</g>
<g>
</g>
<g>
</g>
<g>
</g>
<g>
</g>
<g>
</g>
<g>
</g>
<g>
</g>
<g>
</g>
<g>
</g>
</svg>
