<?xml version="1.0" encoding="iso-8859-1"?>
<!-- Generator: Adobe Illustrator 19.0.0, SVG Export Plug-In . SVG Version: 6.00 Build 0)  -->
<svg version="1.1" id="Capa_1" xmlns="http://www.w3.org/2000/svg" xmlns:xlink="http://www.w3.org/1999/xlink" x="0px" y="0px"
	 viewBox="0 0 511.995 511.995" style="enable-background:new 0 0 511.995 511.995;" xml:space="preserve">
<rect x="220.687" y="291.31" style="fill:#EBBA16;" width="35.31" height="35.31"/>
<path style="fill:#E7ECED;" d="M255.998,69.844c5.95,0,11.829,0.309,17.655,0.777V17.655c0-9.754-7.91-17.655-17.655-17.655
	c-9.746,0-17.655,7.901-17.655,17.655v52.966C244.169,70.153,250.048,69.844,255.998,69.844z"/>
<path style="fill:#DD352E;" d="M255.998,52.966c-121.98,0-220.69,100.573-220.69,203.034c0-29.255,23.711-52.966,52.966-52.966
	s52.966,23.711,52.966,52.966c0-29.255,25.688-52.966,57.379-52.966s57.379,23.711,57.379,52.966
	c0-29.255,25.688-52.966,57.379-52.966s57.379,23.711,57.379,52.966c0-29.255,23.711-52.966,52.966-52.966
	c29.255,0,52.966,23.711,52.966,52.966C476.687,153.538,377.977,52.966,255.998,52.966z"/>
<path style="fill:#E7ECED;" d="M255.998,397.241c-4.873,0-8.828-3.955-8.828-8.828V229.517c0-4.873,3.955-8.828,8.828-8.828
	s8.828,3.955,8.828,8.828v158.897C264.825,393.287,260.871,397.241,255.998,397.241z"/>
<path style="fill:#8E1717;" d="M255.998,52.966V256c0-29.255,25.688-52.966,57.379-52.966s57.379,23.711,57.379,52.966
	C370.756,153.538,319.433,52.966,255.998,52.966z"/>
<path style="fill:#B02721;" d="M255.998,52.966V256c0-29.255-25.688-52.966-57.379-52.966S141.239,226.745,141.239,256
	C141.239,153.538,192.563,52.966,255.998,52.966z"/>
<path style="fill:#6C4127;" d="M238.343,388.414v52.966c0,20.639-17.788,37.191-38.841,35.134
	c-18.344-1.792-31.779-18.282-31.779-36.705v-7.256c0-9.754-7.91-17.655-17.655-17.655s-17.655,7.901-17.655,17.655v6.329
	c0,37.579,28.292,70.444,65.783,72.951c41.119,2.763,75.458-29.917,75.458-70.453v-52.966H238.343z"/>
<g>
</g>
<g>
</g>
<g>
</g>
<g>
</g>
<g>
</g>
<g>
</g>
<g>
</g>
<g>
</g>
<g>
</g>
<g>
</g>
<g>
</g>
<g>
</g>
<g>
</g>
<g>
</g>
<g>
</g>
</svg>
