<?xml version="1.0" encoding="iso-8859-1"?>
<!-- Generator: Adobe Illustrator 19.0.0, SVG Export Plug-In . SVG Version: 6.00 Build 0)  -->
<svg version="1.1" id="Capa_1" xmlns="http://www.w3.org/2000/svg" xmlns:xlink="http://www.w3.org/1999/xlink" x="0px" y="0px"
	 viewBox="0 0 512.009 512.009" style="enable-background:new 0 0 512.009 512.009;" xml:space="preserve">
<path style="fill:#FFA000;" d="M507.044,100.517c-140.736-134.016-361.312-134.016-502.048,0c-5.536,5.248-6.592,13.664-2.56,20.096
	l37.12,59.2c2.688,4.256,7.232,7.04,12.256,7.456c4.896,0.256,9.952-1.6,13.312-5.344c48.288-54.528,117.856-85.824,190.88-85.824
	s142.592,31.296,190.912,85.824c3.04,3.424,7.392,5.376,11.968,5.376c0.448,0,0.864,0,1.312-0.032
	c5.024-0.416,9.568-3.2,12.256-7.456l37.12-59.2C513.604,114.181,512.548,105.765,507.044,100.517z"/>
<path style="fill:#FFC107;" d="M470.852,160.613C416.516,99.205,338.18,64.005,256.004,64.005s-160.48,35.2-214.848,96.608
	c-4.672,5.312-5.344,13.088-1.6,19.072l202.88,324.8c2.912,4.672,8.064,7.52,13.568,7.52s10.656-2.848,13.568-7.52l202.88-324.8
	C476.196,173.669,475.556,165.925,470.852,160.613z"/>
<circle style="fill:#F44336;" cx="240.004" cy="176.005" r="48"/>
<path style="fill:#4CAF50;" d="M176.004,304.005c-18.592,0-34.496,10.656-42.496,26.112l43.584,69.792
	c26.016-0.608,46.912-21.76,46.912-47.904C224.004,325.509,202.5,304.005,176.004,304.005z"/>
<path style="fill:#F44336;" d="M384.004,224.005c-26.496,0-48,21.504-48,48s21.504,48,48,48c0.288,0,0.544-0.064,0.832-0.096
	l42.56-68.128C419.748,235.429,403.268,224.005,384.004,224.005z"/>
<g>
</g>
<g>
</g>
<g>
</g>
<g>
</g>
<g>
</g>
<g>
</g>
<g>
</g>
<g>
</g>
<g>
</g>
<g>
</g>
<g>
</g>
<g>
</g>
<g>
</g>
<g>
</g>
<g>
</g>
</svg>
