<svg id="Capa_1" enable-background="new 0 0 496.987 496.987" height="512" viewBox="0 0 496.987 496.987" width="512" xmlns="http://www.w3.org/2000/svg"><g><g><path d="m289.503.357-9.88 5.95c-12.77 7.7-23.97 17.73-33.02 29.58l-3.014 3.705-11.673 22.71v87.891l44.296-18.776v-48.43c0-26.39 5.28-52.52 15.52-76.84l1.2-2.83c.892-2.12-1.449-4.16-3.429-2.96z" fill="#c1e9af"/></g><path d="m261.543 76.847c-2.39-14.79-8.44-28.65-17.47-40.38-3.53-4.59-7.52-8.86-11.92-12.73l-23.14-20.32c-1.9-1.67-4.75.39-3.77 2.72l.01.01c10.24 24.32 15.52 50.45 15.52 76.84v48.43l14.829 18.776h26.062l8.089-18.776z" fill="#97da7b"/><path d="m293.633 157.297c-10.18-2.37-17.42-11.38-17.42-21.83v-4.05h-27.72l-28.983 60.72v249.852l28.983 54.998c102.23 0 185.1-77.2 185.1-172.43 0-80.72-59.55-148.48-139.96-167.26z" fill="#cb97e7"/><g><g><path d="m268.5 495.991-.007-364.575h-20l-28.983 60.72v249.852l28.983 54.998c6.759.001 13.436-.337 20.007-.995z" fill="#bd80e1"/><path d="m248.493 131.417v365.57c-102.23 0-185.1-77.2-185.1-172.43 0-80.72 59.55-148.48 139.96-167.26 10.18-2.37 17.42-11.38 17.42-21.83v-4.05z" fill="#d9b1ee"/></g><path d="m248.493 192.137h-32.845v264.85h32.845c80.01 0 145.1-59.41 145.1-132.43s-65.09-132.42-145.1-132.42z" fill="#d9b1ee"/><path d="m227.415 456.987h21.079c6.785 0 13.461-.422 20.001-1.249l-.001-262.348c-6.54-.826-13.215-1.253-20-1.253h-28.983v249.852z" fill="#cb97e7"/><g id="XMLID_299_"><g><g><path d="m248.493 238.137h-36.455v169.876l36.455 2.974c54.64 0 99.1-38.77 99.1-86.43 0-47.65-44.46-86.42-99.1-86.42z" fill="#e5caf3"/></g><path d="m219.51 238.143v170.486l28.983 2.364c6.849 0 13.538-.61 20-1.769l-.001-169.32c-6.462-1.159-13.15-1.761-19.999-1.761z" fill="#d9b1ee"/><path d="m248.493 287.137-28.983-1.485v74.51l28.983 1.825c27.16 0 50.1-17.14 50.1-37.43 0-20.28-22.94-37.42-50.1-37.42z" fill="#ebd5f6"/><path d="m268.493 358.757-.001-68.39c-6.164-2.073-12.935-3.23-19.999-3.23l-28.983-1.485v74.51l28.983 1.825c7.064 0 13.837-1.158 20-3.23z" fill="#e5caf3"/><g id="XMLID_305_"><g fill="#cb97e7"><path d="m248.493 496.987c-13.12 0-25.92-1.27-38.27-3.69v-.01c-20.39-28.32-34.64-93.2-34.64-168.73 0-77.92 15.17-144.52 36.6-171.31l-.09-.11c5.34-4.14 8.68-10.57 8.68-17.67v-4.05h27.72z"/><path d="m177.993 484.027v.01c-67.26-25.83-114.6-87.5-114.6-159.48 0-71.97 47.34-133.64 114.61-159.47-37.41 31.75-62.62 91.26-62.62 159.47s25.2 127.72 62.61 159.47z"/></g></g></g></g></g><g><path d="m233.94 131.417h-13.166v4.05c0 2.267-.359 4.459-.997 6.537 4.584-3.728 9.308-7.261 14.163-10.587z" fill="#cb97e7"/></g></g></svg>