<?xml version="1.0" encoding="iso-8859-1"?>
<!-- Generator: Adobe Illustrator 19.0.0, SVG Export Plug-In . SVG Version: 6.00 Build 0)  -->
<svg version="1.1" id="Capa_1" xmlns="http://www.w3.org/2000/svg" xmlns:xlink="http://www.w3.org/1999/xlink" x="0px" y="0px"
	 viewBox="0 0 514.528 514.528" style="enable-background:new 0 0 514.528 514.528;" xml:space="preserve">
<path style="fill:#7D7D7D;" d="M485.872,32.064v343.52c0,17.6-14.24,32-32,32H60.592c-17.6,0-32-14.4-32-32V32.064
	c0-17.76,14.4-32,32-32h393.28C471.632,0.064,485.872,14.304,485.872,32.064z"/>
<path style="fill:#E5E5E5;" d="M453.936,0H60.608c-17.68,0-32,14.32-32,32v66.96h457.328V32C485.936,14.336,471.616,0,453.936,0z"/>
<circle style="fill:#FFCC5B;" cx="83.648" cy="49.424" r="22.448"/>
<circle style="fill:#E86F3E;" cx="144.8" cy="49.424" r="22.448"/>
<circle style="fill:#EC9922;" cx="205.936" cy="49.424" r="22.448"/>
<path style="fill:#717171;" d="M28.608,372.832V98.976h122.448c12.752,0,23.104,10.336,23.104,23.104
	c0,12.752-10.336,23.104-23.104,23.104H120.16c-10.688,0-19.376,8.736-19.312,19.424v0.256c0,0.48-0.016,0.944-0.048,1.408
	c-0.64,10.528,7.712,19.408,18.272,19.408h47.312c12.512,0,23.728,9.36,24.368,21.856c0.704,13.328-9.904,24.336-23.072,24.336
	h-57.968c-10.736,0-19.424,8.736-19.36,19.472v1.344v0.272c-0.064,11.296,9.12,20.544,20.416,20.544h55.296
	c12.512,0,23.712,9.36,24.368,21.856c0.704,13.328-9.904,24.336-23.072,24.336h-59.04c-11.168,0-19.488,9.376-19.36,20.544
	c0,0.096,0,0.192,0,0.272c0,0.096,0,0.192,0,0.272c-0.128,11.168,8.192,20.544,19.36,20.544h38.56
	c12.512,0,23.728,9.36,24.368,21.856c0.704,13.328-9.904,24.336-23.072,24.336h-84.88C44.144,407.52,28.608,392,28.608,372.832z"/>
<g>
	<path style="fill:#626464;" d="M53.968,181.872V264.8c0,8.192,6.64,14.848,14.848,14.848s14.848-6.64,14.848-14.848v-82.928
		c0-8.192-6.64-14.848-14.848-14.848S53.968,173.68,53.968,181.872z"/>
	<path style="fill:#626464;" d="M53.968,142.736v1.856c0,8.192,6.64,14.848,14.848,14.848s14.832-6.656,14.832-14.848v-1.856
		c0-8.192-6.64-14.848-14.848-14.848S53.968,134.528,53.968,142.736z"/>
</g>
<g style="opacity:0.12;">
	<path style="fill:#010101;" d="M485.872,288.064v87.52c0,17.6-14.24,32-32,32h-112l-44.8-43.36l120.96-144L485.872,288.064z"/>
</g>
<path style="fill:#4B9FD8;" d="M257.28,163.488c0,0-51.36,60.64-144.8,56.8v60.336c0,95.168,57.072,181.04,144.8,217.904l0,0
	c87.728-36.864,144.8-122.736,144.8-217.904v-60.336C308.64,224.128,257.28,163.488,257.28,163.488z"/>
<path style="fill:#3789C9;" d="M256.08,164.8c-7.76,8.448-57.936,59.008-143.616,55.488v60.336
	c0,94.72,56.576,180.208,143.616,217.344V164.8z"/>
<path style="fill:#F3F3F3;" d="M257.264,514.528c-2.112,0-4.224-0.416-6.192-1.248c-93.92-39.456-154.608-130.784-154.608-232.64
	v-60.336c0-4.352,1.776-8.528,4.928-11.552c3.136-3.008,7.328-4.736,11.728-4.432c83.872,3.552,130.048-48.992,131.968-51.216
	c3.04-3.536,7.488-5.6,12.16-5.6c0,0,0.032,0,0.048,0c4.672,0.032,9.104,2.064,12.144,5.616c2.016,2.336,48.016,54.8,131.968,51.2
	c4.416-0.288,8.592,1.44,11.728,4.432c3.152,3.008,4.928,7.184,4.928,11.552v60.336c0,101.856-60.688,193.184-154.608,232.64
	C261.488,514.096,259.376,514.528,257.264,514.528z M128.48,236.336v44.304c0,86.688,50.336,164.624,128.8,200.416
	c78.48-35.792,128.8-113.728,128.8-200.416v-44.304c-65.072-2.208-108.88-32.848-128.8-50.432
	C237.344,203.488,193.536,234.128,128.48,236.336z"/>
<path style="fill:#3789C9;" d="M302.128,351.216h-26.496c-8.48,0-15.376-6.944-15.328-15.424v-0.208v-1.008
	c-0.048-8.064,6.48-14.624,14.528-14.624h28.496c9.888,0,17.84-8.272,17.312-18.272c-0.496-9.376-8.912-16.4-18.288-16.4h-20.496
	c-7.92,0-14.192-6.656-13.712-14.56c0.016-0.352,0.032-0.704,0.032-1.056v-0.192c-0.048-8.016,6.48-14.576,14.496-14.576h8.176
	c9.568,0,17.344-7.76,17.344-17.328c0-9.584-7.76-17.344-17.344-17.344H237.92v231.6h50.784c9.888,0,17.84-8.272,17.312-18.272
	c-0.496-9.376-8.912-16.4-18.288-16.4h-13.936c-8.384,0-14.624-7.04-14.528-15.424c0-0.064,0-0.144,0-0.208s0-0.144,0-0.208
	c-0.096-8.384,6.144-15.424,14.528-15.424h29.312c9.888,0,17.84-8.272,17.312-18.272
	C319.92,358.256,311.504,351.216,302.128,351.216z"/>
<path style="fill:#FFFFFF;" d="M229.536,398.688c-5.552,0-11.104-2.112-15.344-6.352l-36.512-36.512
	c-8.48-8.48-8.48-22.208,0-30.688c8.464-8.48,22.208-8.48,30.688,0l21.168,21.168l76.64-76.64c8.48-8.48,22.208-8.48,30.688,0
	c8.48,8.48,8.48,22.208,0,30.688l-91.984,91.984C240.64,396.576,235.088,398.688,229.536,398.688z"/>
<g>
</g>
<g>
</g>
<g>
</g>
<g>
</g>
<g>
</g>
<g>
</g>
<g>
</g>
<g>
</g>
<g>
</g>
<g>
</g>
<g>
</g>
<g>
</g>
<g>
</g>
<g>
</g>
<g>
</g>
</svg>
