<svg id="icon" height="512" viewBox="0 0 128 128" width="512" xmlns="http://www.w3.org/2000/svg"><circle cx="53.659" cy="53.653" fill="#69b0ee" r="28.604"/><path d="m82.263 74.395-7.869 7.869-6.705-3.538 11.036-11.036z" fill="#575b6d"/><path d="m31.986 31.973a30.654 30.654 0 1 0 43.352.013 30.654 30.654 0 0 0 -43.352-.013zm40.578 40.578a26.731 26.731 0 1 1 0-37.79 26.742 26.742 0 0 1 0 37.79z" fill="#575b6d"/><path d="m72.217 82.9 19.894 19.894a7.55 7.55 0 1 0 10.677-10.677l-19.894-19.899z" fill="#f6b863"/><path d="m83.12 71.316-11.8 11.8a1.9 1.9 0 0 0 2.68 2.684l11.8-11.8a1.9 1.9 0 0 0 -2.681-2.681z" fill="#eaa14e"/><path d="m51.837 67.279a2.657 2.657 0 1 1 -2.653-2.66 2.649 2.649 0 0 1 2.653 2.66z" fill="#414451"/><path d="m49.183 68.478a1.2 1.2 0 1 1 1.2-1.2 1.2 1.2 0 0 1 -1.2 1.2z" fill="#dbd8dd"/><path d="m63.062 67.279a2.657 2.657 0 1 1 -2.654-2.66 2.65 2.65 0 0 1 2.654 2.66z" fill="#414451"/><path d="m60.408 68.478a1.2 1.2 0 1 1 1.2-1.2 1.2 1.2 0 0 1 -1.2 1.2z" fill="#dbd8dd"/><path d="m70.185 47.415-2.775 9.159a1.317 1.317 0 0 1 -1.11.926l-19.584 2.758-2.961-15.558 25.845 1.867a.659.659 0 0 1 .585.848z" fill="#f6c863"/><path d="m65.761 63.77h-20.318a2.2 2.2 0 1 1 0-4.4h.3l-2.929-17.083h-3.314a.659.659 0 0 1 0-1.317h3.869a.658.658 0 0 1 .649.547l3.152 18.4a.657.657 0 0 1 -.649.769h-1.078a.884.884 0 1 0 0 1.767h20.318a.659.659 0 0 1 0 1.317z" fill="#eeefee"/><path d="m41.531 40.693v1.812a.1.1 0 0 1 -.095.095h-3.336a1 1 0 0 1 -1-1 1 1 0 0 1 1-1h3.336a.1.1 0 0 1 .095.093z" fill="#575b6d"/><g fill="#eab54e"><path d="m62.288 55.863a.4.4 0 0 1 -.075-.007.425.425 0 0 1 -.343-.493l1.2-6.722a.425.425 0 1 1 .836.15l-1.2 6.722a.426.426 0 0 1 -.418.35z"/><path d="m51.27 57.016a.426.426 0 0 1 -.418-.35l-1.552-8.666a.425.425 0 1 1 .836-.15l1.55 8.663a.425.425 0 0 1 -.343.493.388.388 0 0 1 -.073.01z"/><path d="m56.676 55.863a.425.425 0 0 1 -.425-.425v-6.722a.425.425 0 0 1 .85 0v6.722a.425.425 0 0 1 -.425.425z"/></g></svg>