<?xml version="1.0" encoding="iso-8859-1"?>
<!-- Generator: Adobe Illustrator 19.0.0, SVG Export Plug-In . SVG Version: 6.00 Build 0)  -->
<svg version="1.1" id="Capa_1" xmlns="http://www.w3.org/2000/svg" xmlns:xlink="http://www.w3.org/1999/xlink" x="0px" y="0px"
	 viewBox="0 0 490.669 490.669" style="enable-background:new 0 0 490.669 490.669;" xml:space="preserve">
<path style="fill:#F1F2F2;" d="M426.668,192.003L245.335,309.336L64.001,192.003V10.669C63.876,4.903,68.449,0.128,74.215,0.003
	c0.151-0.003,0.302-0.003,0.453,0h341.333c5.766-0.125,10.542,4.448,10.667,10.214c0.003,0.151,0.003,0.302,0,0.453V192.003z"/>
<path style="fill:#A4B0C0;" d="M64.001,192.003l-64-42.667l64-64V192.003z"/>
<path style="fill:#F6B445;" d="M490.668,149.336l-64,42.667V85.336L490.668,149.336z"/>
<path style="fill:#D0D7DF;" d="M426.668,191.043l64-41.707v298.667c-0.02,11.314-4.505,22.162-12.48,30.187l-72.853-72.853
	L288.001,288.003l-2.987-4.587L426.668,191.043z"/>
<path style="fill:#A4B0C0;" d="M405.335,405.336l72.853,72.853c-8.025,7.975-18.873,12.46-30.187,12.48H42.668
	c-11.314-0.02-22.162-4.505-30.187-12.48l72.853-72.853l117.333-117.333l2.987-4.587l39.68,25.92l39.68-25.92l2.987,4.587
	L405.335,405.336z"/>
<path style="fill:#D0D7DF;" d="M205.655,283.416l-2.987,4.587L85.335,405.336l-72.853,72.853
	c-7.975-8.025-12.46-18.873-12.48-30.187V149.336L205.655,283.416z"/>
<circle style="fill:#FED049;" cx="362.668" cy="128.003" r="128"/>
<g>
	<path style="fill:#F6B445;" d="M341.335,106.669c-5.891,0-10.667-4.776-10.667-10.667c0-5.891-4.776-10.667-10.667-10.667
		c-5.891,0-10.667,4.776-10.667,10.667c0,5.891-4.776,10.667-10.667,10.667c-5.891,0-10.667-4.776-10.667-10.667
		c0-17.673,14.327-32,32-32s32,14.327,32,32C352.001,101.894,347.226,106.669,341.335,106.669z"/>
	<path style="fill:#F6B445;" d="M426.668,106.669c-5.891,0-10.667-4.776-10.667-10.667c0-5.891-4.776-10.667-10.667-10.667
		s-10.667,4.776-10.667,10.667c0,5.891-4.776,10.667-10.667,10.667c-5.891,0-10.667-4.776-10.667-10.667c0-17.673,14.327-32,32-32
		s32,14.327,32,32C437.335,101.894,432.559,106.669,426.668,106.669z"/>
	<path style="fill:#F6B445;" d="M362.668,213.336c-41.218-0.047-74.62-33.449-74.667-74.667c0-5.891,4.776-10.667,10.667-10.667
		c5.891,0,10.667,4.776,10.667,10.667c0,29.455,23.878,53.333,53.333,53.333s53.333-23.878,53.333-53.333
		c0-5.891,4.776-10.667,10.667-10.667c5.891,0,10.667,4.776,10.667,10.667C437.288,179.887,403.886,213.289,362.668,213.336z"/>
</g>
<g>
</g>
<g>
</g>
<g>
</g>
<g>
</g>
<g>
</g>
<g>
</g>
<g>
</g>
<g>
</g>
<g>
</g>
<g>
</g>
<g>
</g>
<g>
</g>
<g>
</g>
<g>
</g>
<g>
</g>
</svg>
