<svg id="Capa_1" enable-background="new 0 0 512 512" height="512" viewBox="0 0 512 512" width="512" xmlns="http://www.w3.org/2000/svg"><g><path d="m270.913 329.401c11.488 9.451 25.973 14.709 41.034 14.709h4.329c.917 0 1.477-1.008.992-1.787l-14.969-24.027c-.716-1.15.616-2.508 1.759-1.781 5.331 3.386 11.557 5.225 17.972 5.225 23.058 0 45.591-6.882 64.714-19.765.674-.454.353-1.507-.46-1.507h-.038c-21.345-.001-41.226-10.853-52.771-28.806-1.422-2.212.166-5.121 2.795-5.121h1.619c18.317 0 36.234-5.351 51.551-15.395.931-.611.499-2.059-.615-2.059h-.01c-16.695 0-32.707-6.632-44.512-18.437l-1.468-1.468c-.948-.948-.277-2.568 1.064-2.568h1.792c28.069 0 54.987-11.15 74.835-30.998.839-.839.245-2.274-.942-2.274h-15.45c-27.497 0-54.139-9.56-75.363-27.042-.791-.652-.33-1.937.695-1.937h9.673c15.411 0 29.936-7.209 39.254-19.484l3.043-4.008c.706-.929.043-2.265-1.124-2.265h-49.088c-1.278 0-1.57-1.79-.359-2.197l8.886-2.986c13.965-4.693 23.373-17.78 23.373-32.512 0-.607-.492-1.1-1.1-1.1h-63.44l14.538-6.156c9.868-4.179 16.279-13.856 16.279-24.572 0-.599-.486-1.085-1.085-1.085h-36.957c-4.45 0-6.451-5.576-3.016-8.405l9.862-8.125c2.873-2.366 3.081-6.693.449-9.325l-41.781-41.78c-.482-.482-1.263-.482-1.745 0l-41.781 41.78c-2.632 2.632-2.423 6.959.449 9.325l9.862 8.125c3.435 2.83 1.434 8.405-3.016 8.405h-36.957c-.599 0-1.085.486-1.085 1.085 0 10.717 6.411 20.394 16.279 24.572l14.538 6.156h-63.44c-.608 0-1.1.493-1.1 1.1 0 14.732 9.408 27.819 23.373 32.512l8.886 2.986c1.211.407.918 2.197-.359 2.197h-49.087c-1.167 0-1.83 1.335-1.124 2.265l3.043 4.008c9.319 12.275 23.843 19.484 39.254 19.484h9.673c1.025 0 1.486 1.285.695 1.937-21.224 17.482-47.866 27.042-75.363 27.042h-15.45c-1.187 0-1.781 1.435-.942 2.274 19.847 19.848 46.766 30.998 74.835 30.998h1.792c1.34 0 2.011 1.62 1.064 2.568l-1.468 1.468c-11.806 11.805-27.817 18.437-44.512 18.437h-.01c-1.114 0-1.546 1.448-.615 2.059 15.317 10.044 33.234 15.395 51.551 15.395h1.619c2.629 0 4.217 2.909 2.795 5.121-11.545 17.953-31.426 28.805-52.771 28.806h-.038c-.813 0-1.135 1.053-.46 1.507 19.123 12.883 41.656 19.765 64.714 19.765 6.415 0 12.641-1.839 17.972-5.225 1.143-.726 2.476.632 1.759 1.781l-14.969 24.027c-.485.779.075 1.787.992 1.787h4.329c15.061 0 29.546-5.259 41.034-14.709z" fill="#95d6a4"/><path d="m221.595 300.831c-3.572-4.187-10.042-4.187-13.614 0-8.318 9.75-19.23 16.682-31.26 20.149 4.383.505 8.806.76 13.249.76 6.415 0 12.641-1.839 17.972-5.225 1.143-.726 2.476.632 1.759 1.781l-14.969 24.027c-.485.779.075 1.787.992 1.787h4.329c15.061 0 29.546-5.259 41.034-14.709l3.895-6.311-3.533-6.608c-7.492-3.811-14.26-9.093-19.854-15.651z" fill="#78c2a4"/><path d="m343.898 226.614h1.792c28.069 0 54.987-11.15 74.835-30.998.839-.839.245-2.274-.942-2.274h-15.45c-13.323 0-26.445-2.244-38.847-6.546-17.691 12.42-38.899 19.213-60.807 19.213h-1.792c-1.34 0-2.011 1.62-1.064 2.568l1.47 1.47c7.183 7.182 14.862 11.584 21.937 14.275 8.199 3.119 7.769 14.797-.608 17.398-7.828 2.431-17.162 4.217-27.745 4.217h-1.617c-2.645 0-4.208 2.929-2.776 5.153 6.559 10.185 14.562 16.78 22.427 21.046 10.645 5.774 9.015 21.404-2.644 24.682-9.015 2.535-19.515 4.319-31.248 4.319-2.47 0-4.911-.273-7.284-.801-1.254-.279-2.428-.105-3.425.378l-3.527 7.118 3.864 4.883 3.322 5.332c1.48 2.376-.223 5.452-3.02 5.461l-3.65 2.75 3.815 3.147c11.488 9.451 25.973 14.709 41.034 14.709h4.329c.917 0 1.477-1.008.992-1.787l-14.969-24.027c-.716-1.15.616-2.508 1.759-1.781 5.331 3.386 11.557 5.225 17.972 5.225 23.058 0 45.591-6.882 64.714-19.766.674-.454.353-1.507-.46-1.507h-.038c-21.345-.001-41.226-10.853-52.771-28.806-1.422-2.212.166-5.121 2.795-5.121h1.619c18.317 0 36.234-5.351 51.551-15.395.931-.611.499-2.059-.615-2.059h-.01c-16.695 0-32.707-6.632-44.512-18.437l-1.468-1.468c-.95-.951-.279-2.571 1.062-2.571z" fill="#78c2a4"/><path d="m292.26 225.551c-8.096-1.844-15.8-5.106-22.752-9.628l-12.033 23.342c-.615 1.194-2.322 1.196-2.94.004l-12.084-23.308c-6.937 4.503-14.62 7.752-22.693 9.59l20.732 35.909c1.56 2.702 2.339 5.783 2.252 8.902l-5.691 203.046c-.297 10.598-4.64 20.68-12.137 28.177l-8.462 8.462c-.721.721-.21 1.954.809 1.954h77.479c1.02 0 1.53-1.233.809-1.954l-8.463-8.462c-7.497-7.497-11.84-17.579-12.137-28.177l-5.691-203.016c-.087-3.118.692-6.2 2.252-8.902z" fill="#c17d4f"/><path d="m295.549 510.046-8.463-8.462c-7.497-7.497-11.84-17.579-12.137-28.177l-5.691-203.016c-.087-3.118.692-6.2 2.252-8.902l20.749-35.939c-8.096-1.844-15.8-5.106-22.752-9.628l-12.033 23.342c-.573 1.111-2.09 1.189-2.796.233l-3.774 6.537c-1.56 2.702-2.339 5.783-2.252 8.902l5.691 203.016c.297 10.598 4.64 20.68 12.137 28.177 3.844 3.844 1.122 10.416-4.314 10.416h-32.961c-1.286 1.78-2.719 3.466-4.291 5.039l-8.462 8.462c-.721.721-.21 1.954.809 1.954h77.479c1.019 0 1.53-1.233.809-1.954z" fill="#b16e3d"/><g><g><path d="m232.034 173.781c-2.893 0-5.667-1.632-6.988-4.42-1.828-3.857-.183-8.465 3.673-10.292 2.982-1.414 5.737-3.22 8.198-5.363-10.681-1.476-20.912-5.302-30.025-11.279-3.169-2.077-4.571-5.913-3.487-9.545 1.084-3.633 4.36-6.074 8.151-6.074 9.632 0 18.682-3.748 25.489-10.554 3.018-3.017 7.91-3.016 10.928.001 3.017 3.017 3.017 7.91-.001 10.928-4.26 4.26-9.135 7.681-14.425 10.181 4.368 1.044 8.867 1.579 13.42 1.579h1.125c3.674 0 7.05 2.003 8.81 5.228s1.619 7.148-.367 10.239c-5.193 8.073-12.523 14.515-21.198 18.626-1.067.504-2.194.745-3.303.745z" fill="#78c2a4"/></g></g><g><g><path d="m312.601 235.034h-4.716c-19.296 0-37.565-6.972-51.875-19.713-14.309 12.743-32.578 19.713-51.875 19.713h-4.716c-3.267 0-6.282-1.775-7.869-4.631-1.586-2.855-1.499-6.353.229-9.127l16.31-26.179c2.256-3.623 7.022-4.731 10.645-2.472 3.622 2.257 4.729 7.022 2.473 10.644l-9.911 15.908c13.862-1.571 26.726-7.687 36.803-17.615 4.364-4.297 11.462-4.297 15.823 0 10.077 9.928 22.943 16.044 36.804 17.615l-9.911-15.908c-2.257-3.622-1.15-8.388 2.473-10.644 3.624-2.258 8.388-1.149 10.645 2.472l16.309 26.178c1.728 2.772 1.817 6.269.231 9.127-1.588 2.857-4.604 4.632-7.872 4.632z" fill="#78c2a4"/></g></g><path d="m301.622 208.576 1.47 1.47c5.81 5.808 11.944 9.798 17.82 12.536-.187-.449-.411-.886-.673-1.307l-9.622-15.445c-2.039.118-4.086.178-6.14.178h-1.792c-1.339 0-2.011 1.62-1.063 2.568z" fill="#66b394"/></g></svg>