<svg id="Capa_1" enable-background="new 0 0 512 512" height="512" viewBox="0 0 512 512" width="512" xmlns="http://www.w3.org/2000/svg"><g><path d="m495.278 176.189c0-24.712-21.495-44.746-48.011-44.746-.916 0-1.825.029-2.728.076.459-2.485.712-5.037.712-7.644 0-24.712-21.495-44.746-48.011-44.746s-48.011 20.033-48.011 44.746c0 2.608.253 5.159.712 7.644-.904-.047-1.812-.076-2.728-.076-26.516 0-48.011 20.033-48.011 44.746 0 20.136 14.273 37.162 33.903 42.779-1.16 2.938-1.794 6.112-1.794 9.425 0 15.072 13.11 27.291 29.282 27.291.429 0 .852-.021 1.277-.038 3.247 16.157 17.516 28.327 34.629 28.327 18.133 0 33.067-13.666 35.085-31.259.762.056 1.529.093 2.306.093 16.172 0 29.282-12.218 29.282-27.291 0-2.353-.32-4.637-.921-6.815 19.174-5.867 33.027-22.677 33.027-42.512z" fill="#82b339"/><path d="m381.868 255.645c-.424.017-.848.038-1.276.038-16.172 0-29.282-12.218-29.282-27.291 0-3.313.634-6.487 1.795-9.425-19.63-5.617-33.903-22.643-33.903-42.779 0-24.712 21.495-44.746 48.011-44.746.916 0 1.825.029 2.729.076-.46-2.485-.712-5.037-.712-7.644 0-21.516 16.296-39.478 38.011-43.767-3.226-.637-6.57-.979-10-.979-26.516 0-48.011 20.033-48.011 44.746 0 2.608.253 5.159.712 7.644-.904-.047-1.812-.076-2.728-.076-26.516 0-48.011 20.033-48.011 44.746 0 20.136 14.273 37.162 33.903 42.779-1.16 2.938-1.795 6.112-1.795 9.425 0 15.072 13.11 27.291 29.282 27.291.429 0 .852-.021 1.276-.038 3.247 16.157 17.516 28.327 34.629 28.327 3.477 0 6.834-.506 10.007-1.442-12.454-3.668-22.048-14.006-24.637-26.885z" fill="#78a635"/><path d="m212.799 176.189c0-24.712-21.495-44.746-48.011-44.746-.916 0-1.825.029-2.728.076.459-2.485.712-5.037.712-7.644 0-24.712-21.495-44.746-48.011-44.746s-48.011 20.033-48.011 44.746c0 2.608.253 5.159.712 7.644-.904-.047-1.812-.076-2.728-.076-26.516 0-48.011 20.033-48.011 44.746 0 20.136 14.273 37.162 33.903 42.779-1.16 2.938-1.795 6.112-1.795 9.425 0 15.072 13.11 27.291 29.282 27.291.429 0 .852-.021 1.277-.038 3.247 16.157 17.516 28.327 34.629 28.327 18.133 0 33.067-13.666 35.085-31.259.762.056 1.529.093 2.306.093 16.172 0 29.282-12.218 29.282-27.291 0-2.353-.32-4.637-.921-6.815 19.175-5.867 33.028-22.677 33.028-42.512z" fill="#82b339"/><path d="m99.389 255.645c-.425.017-.848.038-1.277.038-16.172 0-29.282-12.218-29.282-27.291 0-3.313.634-6.487 1.794-9.425-19.63-5.617-33.903-22.643-33.903-42.779 0-24.712 21.495-44.746 48.011-44.746.916 0 1.825.029 2.728.076-.459-2.485-.712-5.037-.712-7.644 0-21.516 16.296-39.478 38.011-43.767-3.226-.637-6.57-.979-10-.979-26.516 0-48.011 20.033-48.011 44.746 0 2.608.253 5.159.712 7.644-.904-.047-1.812-.076-2.728-.076-26.516 0-48.011 20.033-48.011 44.746 0 20.136 14.273 37.162 33.903 42.779-1.16 2.938-1.794 6.112-1.794 9.425 0 15.072 13.11 27.291 29.282 27.291.429 0 .852-.021 1.277-.038 3.247 16.157 17.516 28.327 34.629 28.327 3.477 0 6.834-.506 10.007-1.442-12.453-3.668-22.047-14.006-24.636-26.885z" fill="#78a635"/><path d="m159.945 162.132c-2.569-3.407-7.415-4.085-10.821-1.515l-26.773 20.198v-37.344c0-4.268-3.459-7.726-7.726-7.726s-7.726 3.459-7.726 7.726v73.81l-30.315-19.043c-3.613-2.273-8.383-1.181-10.652 2.433-2.271 3.613-1.181 8.382 2.433 10.652l38.534 24.207v113.733c0 4.268 3.459 7.726 7.726 7.726s7.726-3.459 7.726-7.726v-149.092l36.079-27.218c3.407-2.569 4.085-7.414 1.515-10.821z" fill="#9e6351"/><path d="m442.425 162.132c-2.569-3.407-7.415-4.085-10.821-1.515l-26.773 20.198v-37.344c0-4.268-3.459-7.726-7.726-7.726s-7.726 3.459-7.726 7.726v73.81l-30.315-19.043c-3.614-2.273-8.384-1.181-10.652 2.433-2.271 3.613-1.181 8.382 2.433 10.652l38.534 24.207v116.53c0 4.268 3.459 7.726 7.726 7.726s7.726-3.459 7.726-7.726v-151.889l36.079-27.218c3.406-2.569 4.084-7.414 1.515-10.821z" fill="#9e6351"/><path d="m372.862 168.21c0-31.607-25.622-57.229-57.229-57.229-1.092 0-2.175.037-3.252.098.548-3.179.849-6.442.849-9.777 0-31.607-25.622-57.229-57.229-57.229s-57.229 25.622-57.229 57.229c0 3.335.301 6.598.849 9.777-1.077-.06-2.16-.098-3.252-.098-31.607 0-57.229 25.622-57.229 57.229 0 25.754 17.013 47.53 40.412 54.714-1.383 3.757-2.139 7.817-2.139 12.055 0 19.277 15.627 34.904 34.904 34.904 3.049 0 6.005-.393 8.824-1.127-.028.574-.044 1.152-.044 1.733 0 19.277 15.627 34.904 34.905 34.904s34.905-15.627 34.905-34.904c0-1.881-.153-3.725-.44-5.525 2.938.803 6.027 1.24 9.219 1.24 19.277 0 34.904-15.627 34.904-34.904 0-3.01-.381-5.931-1.097-8.717 22.856-7.505 39.369-29.004 39.369-54.373z" fill="#aad667"/><path d="m241.095 270.489c0-.581.016-1.159.044-1.733-2.819.734-5.775 1.127-8.824 1.127-19.277 0-34.904-15.627-34.904-34.904 0-4.237.756-8.297 2.139-12.055-23.399-7.184-40.412-28.96-40.412-54.714 0-31.607 25.622-57.229 57.229-57.229 1.092 0 2.175.037 3.252.098-.548-3.179-.849-6.442-.849-9.777 0-28.194 20.393-51.608 47.229-56.341-3.249-.573-6.587-.889-10-.889-31.607 0-57.229 25.622-57.229 57.229 0 3.335.301 6.598.849 9.777-1.077-.06-2.16-.098-3.252-.098-31.607 0-57.229 25.622-57.229 57.229 0 25.754 17.013 47.53 40.412 54.714-1.383 3.757-2.139 7.817-2.139 12.055 0 19.277 15.627 34.904 34.904 34.904 3.048 0 6.005-.393 8.824-1.127-.028.574-.044 1.152-.044 1.733 0 19.277 15.627 34.904 34.905 34.904 3.476 0 6.831-.515 10-1.461-14.402-4.3-24.905-17.641-24.905-33.442z" fill="#99c94f"/><path d="m310.283 158.749c-2.57-3.406-7.413-4.087-10.821-1.515l-35.742 26.963v-60.719c0-4.268-3.459-7.726-7.726-7.726s-7.726 3.459-7.726 7.726v84.959l-29.708-18.662c-3.613-2.273-8.384-1.181-10.652 2.433-2.271 3.613-1.181 8.382 2.433 10.652l37.927 23.826v133.847c0 4.268 3.459 7.726 7.726 7.726s7.726-3.459 7.726-7.726v-156.98l45.048-33.984c3.407-2.569 4.086-7.414 1.515-10.82z" fill="#9e6351"/><path d="m0 435.92v25.008c0 3.866 3.134 7 7 7h497.997c3.866 0 7-3.134 7-7v-25.008l-40.275-10.302h-432.402z" fill="#9e6351"/><path d="m20 460.928v-25.008l39.32-10.302h-20l-39.32 10.302v25.008c0 3.866 3.134 7 7 7h20c-3.866 0-7-3.134-7-7z" fill="#895146"/><path d="m182.784 380.26c6.294-12.754 19.439-21.52 34.624-21.52 2.988 0 5.882.35 8.674.989 4.945-11.641 16.473-19.8 29.916-19.8 13.433 0 24.951 8.149 29.896 19.769 2.751-.618 5.604-.958 8.55-.958 15.288 0 28.505 8.89 34.758 21.788l30.75 55.393-208.001.006z" fill="#82b339"/><path d="m483.013 307.921c-7.402 0-14.153 3.068-19.276 8.109-6.914-5.12-15.232-8.109-24.183-8.109-18.933 0-35.031 13.365-40.997 32.013-19.26.149-35.538 14.12-41.108 33.378-2.678-.901-5.519-1.39-8.464-1.39-16.009 0-28.987 14.328-28.987 32.002 0 32 28.987 32.002 28.987 32.002l163.011-.002.004-96.001s-.005-32.002-28.987-32.002z" fill="#aad667"/><path d="m339.998 403.924c0-17.674 12.978-32.002 28.987-32.002 2.945 0 5.786.489 8.464 1.39 5.57-19.259 21.849-33.229 41.109-33.378 4.882-15.258 16.548-26.974 30.999-30.731-3.211-.835-6.559-1.282-10.001-1.282-18.933 0-35.031 13.365-40.997 32.013-19.26.149-35.538 14.12-41.109 33.378-2.678-.901-5.519-1.39-8.464-1.39-16.009 0-28.987 14.328-28.987 32.002 0 32 28.987 32.002 28.987 32.002h19.976c-.519-.003-28.964-.293-28.964-32.002z" fill="#99c94f"/><path d="m29.232 307.921c7.402 0 14.153 3.068 19.276 8.109 6.915-5.12 15.232-8.109 24.183-8.109 18.933 0 35.031 13.365 40.997 32.013 19.26.149 35.538 14.12 41.108 33.378 2.678-.901 5.519-1.39 8.464-1.39 16.009 0 28.987 14.328 28.987 32.002 0 32-28.987 32.002-28.987 32.002l-163.011-.002-.004-96.001s.005-32.002 28.987-32.002z" fill="#aad667"/><path d="m20.249 435.924-.004-96.001s.022-23.616 18.416-30.264c-2.956-1.124-6.127-1.738-9.429-1.738-28.982 0-28.987 32.002-28.987 32.002l.004 96.001 163.011.002h.024z" fill="#99c94f"/><g fill="#82b339"><path d="m389.46 409.388c-3.017 3.017-7.909 3.017-10.927 0-3.017-3.017-3.017-7.909 0-10.927 3.017-3.017 7.909-3.017 10.927 0 3.018 3.017 3.018 7.909 0 10.927z"/><path d="m421.46 377.387c-3.017 3.017-7.909 3.017-10.927 0-3.017-3.017-3.017-7.909 0-10.927 3.017-3.017 7.909-3.017 10.927 0 3.017 3.018 3.017 7.91 0 10.927z"/><path d="m469.459 405.757c-3.017 3.017-7.909 3.017-10.927 0-3.017-3.017-3.017-7.909 0-10.927 3.017-3.017 7.909-3.017 10.927 0 3.018 3.018 3.018 7.91 0 10.927z"/><path d="m469.459 362.401c-3.017 3.017-7.909 3.017-10.927 0-3.017-3.017-3.017-7.909 0-10.927 3.017-3.017 7.909-3.017 10.927 0 3.018 3.017 3.018 7.91 0 10.927z"/><path d="m119.424 409.388c3.017 3.017 7.909 3.017 10.927 0 3.017-3.017 3.017-7.909 0-10.927-3.017-3.017-7.909-3.017-10.927 0-3.018 3.017-3.018 7.909 0 10.927z"/><path d="m87.424 377.387c3.017 3.017 7.909 3.017 10.927 0 3.017-3.017 3.017-7.909 0-10.927-3.017-3.017-7.909-3.017-10.927 0-3.017 3.018-3.017 7.91 0 10.927z"/><path d="m39.425 405.757c3.017 3.017 7.909 3.017 10.927 0 3.017-3.017 3.017-7.909 0-10.927-3.017-3.017-7.909-3.017-10.927 0-3.017 3.018-3.018 7.91 0 10.927z"/><path d="m39.425 362.401c3.017 3.017 7.909 3.017 10.927 0 3.017-3.017 3.017-7.909 0-10.927-3.017-3.017-7.909-3.017-10.927 0-3.017 3.017-3.018 7.91 0 10.927z"/></g></g></svg>