<?xml version="1.0" encoding="iso-8859-1"?>
<!-- Generator: Adobe Illustrator 19.0.0, SVG Export Plug-In . SVG Version: 6.00 Build 0)  -->
<svg xmlns="http://www.w3.org/2000/svg" xmlns:xlink="http://www.w3.org/1999/xlink" version="1.1" id="Layer_1" x="0px" y="0px" viewBox="0 0 491.52 491.52" style="enable-background:new 0 0 491.52 491.52;" xml:space="preserve">
<rect x="256.241" y="212.337" transform="matrix(-0.7071 0.7071 -0.7071 -0.7071 662.4869 274.4191)" style="fill:#EBF0F3;" width="36.337" height="124.16"/>
<path style="fill:#3A556A;" d="M346.171,279.899l-66.268,66.269c-4.493,4.493-4.493,11.778-0.001,16.27  c4.492,4.492,11.777,4.492,16.27-0.001l66.268-66.268c4.493-4.493,4.493-11.777,0-16.269  C357.948,275.408,350.663,275.408,346.171,279.899z"/>
<path style="fill:#64798A;" d="M296.228,362.382l125.641,125.641c4.661,4.66,12.218,4.66,16.88-0.001l49.275-49.275  c4.661-4.661,4.661-12.218,0.001-16.88L362.383,296.227L296.228,362.382z"/>
<g>
	
		<rect x="370.969" y="330.952" transform="matrix(-0.7071 0.7071 -0.7071 -0.7071 934.7731 425.7538)" style="fill:#3A556A;" width="16.481" height="151.046"/>
	
		<rect x="398.223" y="303.674" transform="matrix(-0.7071 0.7071 -0.7071 -0.7071 962.0096 359.9156)" style="fill:#3A556A;" width="16.481" height="151.046"/>
</g>
<path style="fill:#E56353;" d="M438.277,292.51c3.628-14.996,5.601-30.64,5.601-46.75s-1.972-31.753-5.601-46.749l36.199-36.565  c2.596-2.624,3.118-6.66,1.272-9.855L441.44,93.17c-1.845-3.198-5.601-4.763-9.17-3.826l-49.824,13.082  c-22.564-21.522-50.181-37.766-80.915-46.768L287.965,6.031C286.992,2.47,283.759,0,280.067,0h-68.614  c-3.692,0-6.925,2.47-7.898,6.031l-13.566,49.627c-30.733,9.002-58.351,25.245-80.915,46.768L59.25,89.344  c-3.569-0.937-7.326,0.63-9.17,3.826l-34.307,59.421c-1.845,3.198-1.324,7.233,1.272,9.855l36.199,36.565  c-3.628,14.996-5.601,30.639-5.601,46.749s1.972,31.754,5.601,46.75l-36.199,36.566c-2.596,2.622-3.117,6.659-1.272,9.855  l34.307,59.421c1.845,3.198,5.601,4.764,9.17,3.826l49.824-13.082c22.564,21.524,50.182,37.765,80.915,46.769l13.566,49.628  c0.973,3.56,4.207,6.029,7.898,6.029h68.614c3.692,0,6.925-2.468,7.898-6.029l13.566-49.628  c30.733-9.004,58.351-25.244,80.915-46.769l49.824,13.082c3.569,0.937,7.326-0.63,9.17-3.826l34.307-59.421  c1.846-3.198,1.324-7.233-1.272-9.855L438.277,292.51z M245.76,415.745c-93.879,0-169.985-76.105-169.985-169.985  S151.881,75.775,245.76,75.775c93.879,0,169.985,76.105,169.985,169.985S339.639,415.745,245.76,415.745z"/>
<path style="fill:#D15241;" d="M245.76,75.775c-93.879,0-169.985,76.105-169.985,169.985s76.106,169.985,169.985,169.985  c93.879,0,169.985-76.105,169.985-169.985S339.639,75.775,245.76,75.775z M245.76,395.016c-82.432,0-149.256-66.824-149.256-149.256  S163.328,96.504,245.76,96.504c82.431,0,149.256,66.824,149.256,149.256S328.191,395.016,245.76,395.016z"/>
<polygon style="fill:#E1E6E9;" points="67.335,31.833 31.834,67.333 55.098,80.79 80.791,55.096 "/>
<g>
	<polygon style="fill:#EBF0F3;" points="31.829,67.33 67.328,31.831 25.693,0.002 0,25.695  "/>
	
		<rect x="131.053" y="34.297" transform="matrix(-0.7071 0.7071 -0.7071 -0.7071 360.2693 149.2603)" style="fill:#EBF0F3;" width="36.337" height="229.894"/>
</g>
<g>
</g>
<g>
</g>
<g>
</g>
<g>
</g>
<g>
</g>
<g>
</g>
<g>
</g>
<g>
</g>
<g>
</g>
<g>
</g>
<g>
</g>
<g>
</g>
<g>
</g>
<g>
</g>
<g>
</g>
</svg>
