<?xml version="1.0" encoding="iso-8859-1"?>
<!-- Generator: Adobe Illustrator 19.0.0, SVG Export Plug-In . SVG Version: 6.00 Build 0)  -->
<svg version="1.1" id="Capa_1" xmlns="http://www.w3.org/2000/svg" xmlns:xlink="http://www.w3.org/1999/xlink" x="0px" y="0px"
	 viewBox="0 0 512 512" style="enable-background:new 0 0 512 512;" xml:space="preserve">
<path style="fill:#6ECD24;" d="M346.121,0c-38.401,0-71.7,20.7-90,51.301c-9.6,15.599-15,34.199-15,53.699v15h75
	c57.9,0,105-47.1,105-105V0H346.121z"/>
<path style="fill:#66BD21;" d="M316.121,120h-60V51.301C274.42,20.7,307.72,0,346.121,0h75v15C421.121,72.9,374.02,120,316.121,120z
	"/>
<path style="fill:#896748;" d="M271.121,165v15.3h-30V165c0-57.9-47.1-105-105-105V30c52.2,0,97.5,29.7,120,73.2
	C265.721,121.8,271.121,142.8,271.121,165z"/>
<path style="fill:#73553A;" d="M271.121,165v15.3h-15v-77.1C265.721,121.8,271.121,142.8,271.121,165z"/>
<path style="fill:#FD4E26;" d="M464.621,300c-24.3-0.901-43.5-20.7-43.5-45c0-20.7,13.801-38.401,33.9-43.5l16.5-4.2l-6.301-15.9
	c-15.899-39.901-41.999-64.801-73.198-70.201c-23.701-4.499-48.9,3.6-72.301,21.901c-17.999,14.099-40.8,21.299-63.6,21.299
	s-45.601-7.2-63.6-21.299c-23.401-18.301-48.6-26.1-72.301-21.901c-65.099,11.4-102.9,106.8-84.3,212.701
	c18.301,105,84.901,188.599,152.1,176.901c7.5-1.501,15-3.9,22.2-7.8c14.401-7.8,30-11.7,45.901-11.7s31.5,3.9,45.901,11.7
	c7.2,3.9,14.7,6.299,22.2,7.8c4.499,0.599,8.699,1.199,12.9,1.199c62.1,0,122.1-79.701,139.2-178.1c1.199-5.7,1.8-11.4,2.699-17.1
	l1.8-16.199L464.621,300z"/>
<path style="fill:#FD3018;" d="M480.82,300.601l-1.8,16.199c-0.899,5.7-1.5,11.4-2.699,17.1c-17.1,98.399-77.1,178.1-139.2,178.1
	c-4.2,0-8.401-0.601-12.9-1.199c-7.5-1.501-15-3.9-22.2-7.8c-14.401-7.8-30-11.7-45.901-11.7V164.399c22.8,0,45.601-7.2,63.6-21.299
	c23.401-18.301,48.6-26.4,72.301-21.901c31.199,5.4,57.299,30.3,73.198,70.201l6.301,15.899l-16.5,4.2
	c-20.099,5.099-33.9,22.8-33.9,43.5c0,24.3,19.2,44.099,43.5,45L480.82,300.601z"/>
<g>
</g>
<g>
</g>
<g>
</g>
<g>
</g>
<g>
</g>
<g>
</g>
<g>
</g>
<g>
</g>
<g>
</g>
<g>
</g>
<g>
</g>
<g>
</g>
<g>
</g>
<g>
</g>
<g>
</g>
</svg>
