<svg height="512" viewBox="0 0 64 64" width="512" xmlns="http://www.w3.org/2000/svg"><g id="Megaphone"><path d="m22 36v6h3l1-5.788a35.96 35.96 0 0 0 -3.842-.212z" fill="#ab2300"/><path d="m11 20a8 8 0 0 0 0 16h8v-16z" fill="#ed1c24"/><path d="m33.542 18.153a36.018 36.018 0 0 1 -11.384 1.847h-3.158v16h3.158a35.96 35.96 0 0 1 3.842.212 36 36 0 0 1 7.542 1.635l21.458 7.153v-34z" fill="#d1e7f8"/><path d="m58 8a3 3 0 0 0 -3 3v34a3 3 0 0 0 6 0v-34a3 3 0 0 0 -3-3z" fill="#57a4ff"/><path d="m19 36h-5l4 25h4v-19-6z" fill="#006df0"/><path d="m52 44 3 1v-34l-3 1z" fill="#9bc9ff"/><path d="m17 20h2v16h-2z" fill="#ab2300"/><g fill="#f1f2f2"><path d="m10 27h-4a1 1 0 0 0 0 2h4a1 1 0 0 0 0-2z"/><path d="m10 23h-2a1 1 0 0 0 0 2h2a1 1 0 0 0 0-2z"/><path d="m10 31h-2a1 1 0 0 0 0 2h2a1 1 0 0 0 0-2z"/></g></g></svg>