<?xml version="1.0" encoding="iso-8859-1"?>
<!-- Generator: Adobe Illustrator 19.0.0, SVG Export Plug-In . SVG Version: 6.00 Build 0)  -->
<svg version="1.1" id="Capa_1" xmlns="http://www.w3.org/2000/svg" xmlns:xlink="http://www.w3.org/1999/xlink" x="0px" y="0px"
	 viewBox="0 0 512 512" style="enable-background:new 0 0 512 512;" xml:space="preserve">
<rect x="215.594" y="53.441" style="fill:#E2EEFD;" width="80.801" height="74.828"/>
<rect x="274.135" y="53.441" style="fill:#C7DCF2;" width="22.266" height="74.828"/>
<path style="fill:#E2EEFD;" d="M334.873,512H177.124c-15.091,0-27.324-12.233-27.324-27.324V155.59
	c0-15.091,12.233-27.324,27.324-27.324h157.748c15.091,0,27.324,12.233,27.324,27.324v329.087
	C362.197,499.767,349.963,512,334.873,512z"/>
<path style="fill:#C7DCF2;" d="M362.2,155.595v329.083c0,15.086-12.234,27.32-27.33,27.32h-27.547
	c15.086,0,27.32-12.234,27.32-27.32V155.595c0-15.096-12.234-27.33-27.32-27.33h27.547C349.966,128.264,362.2,140.498,362.2,155.595
	z"/>
<path style="fill:#707487;" d="M306.745,53.437H205.252c-2.853,0-5.166-2.313-5.166-5.166V5.166c0-2.853,2.313-5.166,5.166-5.166
	h101.494c2.853,0,5.166,2.313,5.166,5.166v43.105C311.913,51.124,309.599,53.437,306.745,53.437z"/>
<path style="fill:#606575;" d="M311.909,5.168v43.099c0,2.862-2.315,5.166-5.166,5.166h-22.04c2.852,0,5.166-2.304,5.166-5.166
	V5.168c0-2.852-2.315-5.166-5.166-5.166h22.04C309.595,0.002,311.909,2.316,311.909,5.168z"/>
<g>
	<path style="fill:#0079A7;" d="M202.725,247.288l-0.021,0.068C202.712,247.333,202.719,247.311,202.725,247.288z"/>
	<path style="fill:#0079A7;" d="M298.058,280.109l0.02,0.03C298.072,280.129,298.065,280.119,298.058,280.109z"/>
	<path style="fill:#0079A7;" d="M306.233,280.984h0.979c0-0.004,0-0.008,0-0.012c0-0.002,0-0.004,0-0.006l-1.009,0.007
		L306.233,280.984z M306.01,280.975l-1.297,0.009h1.328L306.01,280.975z M328.615,280.53l0.02,0.064
		C328.629,280.572,328.622,280.551,328.615,280.53z"/>
	<path style="fill:#0079A7;" d="M326.779,327.633H185.218c-4.142,0-7.5-3.358-7.5-7.5s3.358-7.5,7.5-7.5h141.561
		c4.142,0,7.5,3.358,7.5,7.5S330.921,327.633,326.779,327.633z"/>
	<path style="fill:#0079A7;" d="M326.779,359.813H185.218c-4.142,0-7.5-3.358-7.5-7.5c0-4.142,3.358-7.5,7.5-7.5h141.561
		c4.142,0,7.5,3.358,7.5,7.5C334.279,356.455,330.921,359.813,326.779,359.813z"/>
	<path style="fill:#0079A7;" d="M326.779,391.993H185.218c-4.142,0-7.5-3.358-7.5-7.5c0-4.142,3.358-7.5,7.5-7.5h141.561
		c4.142,0,7.5,3.358,7.5,7.5C334.279,388.635,330.921,391.993,326.779,391.993z"/>
</g>
<circle style="fill:#FFD800;" cx="255.995" cy="184.463" r="22.772"/>
<path style="fill:#E8C207;" d="M278.772,184.454c0,12.585-10.198,22.773-22.773,22.773c-10.178,0-18.806-6.685-21.719-15.902
	c3.11,1.602,6.634,2.501,10.353,2.501c12.575,0,22.773-10.199,22.773-22.773c0-2.397-0.372-4.701-1.054-6.871
	C273.72,167.943,278.772,175.61,278.772,184.454z"/>
<g>
</g>
<g>
</g>
<g>
</g>
<g>
</g>
<g>
</g>
<g>
</g>
<g>
</g>
<g>
</g>
<g>
</g>
<g>
</g>
<g>
</g>
<g>
</g>
<g>
</g>
<g>
</g>
<g>
</g>
</svg>
