<?xml version="1.0" encoding="iso-8859-1"?>
<!-- Generator: Adobe Illustrator 21.0.0, SVG Export Plug-In . SVG Version: 6.00 Build 0)  -->
<svg xmlns="http://www.w3.org/2000/svg" xmlns:xlink="http://www.w3.org/1999/xlink" version="1.1" id="Capa_1" x="0px" y="0px" viewBox="0 0 507.397 507.397" style="enable-background:new 0 0 507.397 507.397;" xml:space="preserve" width="512" height="512">
<g>
	<path style="fill:#4890E3;" d="M260.125,0c-31.956,0-57.954,25.999-57.954,57.955c0,7.199,1.319,14.249,3.922,20.955   c1.12,2.885,3.897,4.787,6.992,4.787h26.602c2.957,0,5.638-1.737,6.846-4.436s0.718-5.855-1.253-8.061   c-3.26-3.649-5.055-8.353-5.055-13.245c0-10.973,8.928-19.9,19.9-19.9s19.9,8.927,19.9,19.9c0,4.892-1.795,9.596-5.055,13.245   c-1.971,2.205-2.461,5.362-1.253,8.061s3.889,4.436,6.846,4.436h26.602c3.095,0,5.872-1.901,6.992-4.787   c2.603-6.706,3.922-13.756,3.922-20.955C318.079,25.999,292.081,0,260.125,0z"/>
	<g>
		<path style="fill:#2970D6;" d="M260.125,0c-3.937,0-7.782,0.398-11.5,1.15c26.466,5.35,46.454,28.785,46.454,56.805    c0,7.199-1.319,14.249-3.922,20.955c-1.12,2.885-3.897,4.787-6.992,4.787h23c3.095,0,5.872-1.901,6.992-4.787    c2.603-6.706,3.922-13.756,3.922-20.955C318.079,25.999,292.081,0,260.125,0z"/>
	</g>
	<circle style="fill:#F4F4F5;" cx="253.699" cy="282.377" r="189.841"/>
	<path style="fill:#91BCEE;" d="M412.812,123.265c-42.501-42.5-99.009-65.907-159.113-65.907S137.086,80.764,94.585,123.265   c-42.5,42.5-65.906,99.008-65.906,159.113S52.085,398.99,94.585,441.49c42.501,42.5,99.009,65.907,159.113,65.907   s116.612-23.406,159.113-65.907c42.5-42.5,65.906-99.008,65.906-159.113S455.312,165.765,412.812,123.265z M443.54,282.377   c0,104.679-85.163,189.841-189.841,189.841s-189.84-85.162-189.84-189.841S149.02,92.537,253.698,92.537   S443.54,177.699,443.54,282.377z"/>
	<path style="fill:#ECEDEF;" d="M253.699,92.537c-3.863,0-7.695,0.129-11.5,0.356c99.49,5.947,178.341,88.501,178.341,189.484   c0,100.983-78.851,183.537-178.341,189.484c3.805,0.228,7.637,0.357,11.5,0.357c104.846,0,189.841-84.995,189.841-189.841   S358.545,92.537,253.699,92.537z"/>
	<g>
		<path style="fill:#4890E3;" d="M412.812,123.265c-42.501-42.5-99.009-65.907-159.113-65.907c-3.849,0-7.683,0.099-11.5,0.29    c55.784,2.789,107.834,25.838,147.613,65.617c42.5,42.5,65.906,99.008,65.906,159.113S432.312,398.99,389.812,441.49    c-39.779,39.779-91.829,62.827-147.613,65.617c3.817,0.191,7.651,0.29,11.5,0.29c60.104,0,116.612-23.406,159.113-65.907    c42.5-42.5,65.906-99.008,65.906-159.113S455.312,165.765,412.812,123.265z"/>
	</g>
	<polygon style="fill:#F66E39;" points="178.705,357.371 228.595,257.299 278.777,307.481 178.705,357.371 228.595,257.299    278.777,307.481  "/>
	<polygon style="fill:#FF8840;" points="328.693,207.383 228.621,257.274 278.803,307.456 328.693,207.383 228.621,257.274    278.803,307.456  "/>
	<g>
		<path style="fill:#91BCEE;" d="M253.72,142.453c-3.916,0-7.09-3.174-7.09-7.09v-22.908c0-3.916,3.174-7.09,7.09-7.09    s7.09,3.174,7.09,7.09v22.908C260.81,139.279,257.637,142.453,253.72,142.453z"/>
		<path style="fill:#91BCEE;" d="M357.392,185.082c-1.814,0-3.629-0.692-5.014-2.077c-2.769-2.769-2.769-7.258,0-10.027    l16.198-16.198c2.77-2.769,7.258-2.769,10.028,0c2.769,2.769,2.769,7.258,0,10.027l-16.198,16.198    C361.021,184.39,359.206,185.082,357.392,185.082z"/>
		<path style="fill:#91BCEE;" d="M423.462,288.531h-22.908c-3.916,0-7.09-3.174-7.09-7.09s3.174-7.09,7.09-7.09h22.908    c3.916,0,7.09,3.174,7.09,7.09S427.379,288.531,423.462,288.531z"/>
		<path style="fill:#91BCEE;" d="M374.124,408.4c-1.814,0-3.629-0.692-5.013-2.077l-16.198-16.198    c-2.77-2.769-2.77-7.258-0.001-10.027c2.77-2.769,7.259-2.769,10.027,0l16.198,16.198c2.77,2.769,2.77,7.258,0.001,10.027    C377.754,407.708,375.939,408.4,374.124,408.4z"/>
		<path style="fill:#91BCEE;" d="M254.476,458.273c-3.916,0-7.09-3.174-7.09-7.09v-22.908c0-3.916,3.174-7.09,7.09-7.09    c3.916,0,7.09,3.174,7.09,7.09v22.908C261.567,455.099,258.393,458.273,254.476,458.273z"/>
		<path style="fill:#91BCEE;" d="M134.608,408.935c-1.815,0-3.629-0.692-5.014-2.077c-2.769-2.769-2.769-7.258,0.001-10.027    l16.198-16.198c2.769-2.77,7.258-2.769,10.027,0c2.769,2.769,2.769,7.258-0.001,10.027l-16.198,16.198    C138.237,408.242,136.422,408.935,134.608,408.935z"/>
		<path style="fill:#91BCEE;" d="M107.642,289.287H84.735c-3.916,0-7.09-3.174-7.09-7.09s3.174-7.09,7.09-7.09h22.907    c3.916,0,7.09,3.174,7.09,7.09S111.559,289.287,107.642,289.287z"/>
		<path style="fill:#91BCEE;" d="M150.272,185.617c-1.814,0-3.629-0.692-5.014-2.077l-16.198-16.198    c-2.769-2.769-2.769-7.258,0-10.027c2.77-2.769,7.258-2.769,10.028,0l16.198,16.198c2.769,2.769,2.769,7.258,0,10.027    C153.901,184.924,152.086,185.617,150.272,185.617z"/>
	</g>
</g>















</svg>
