<svg id="color" enable-background="new 0 0 24 24" height="512" viewBox="0 0 24 24" width="512" xmlns="http://www.w3.org/2000/svg"><g fill="#b0bec5"><path d="m3.75 5.5c-.552 0-1-.448-1-1v-3.5c0-.552.448-1 1-1s1 .448 1 1v3.5c0 .552-.448 1-1 1z"/><path d="m8.5 5.5c-.552 0-1-.448-1-1v-3.5c0-.552.448-1 1-1s1 .448 1 1v3.5c0 .552-.448 1-1 1z"/><path d="m13.25 5.5c-.552 0-1-.448-1-1v-3.5c0-.552.448-1 1-1s1 .448 1 1v3.5c0 .552-.448 1-1 1z"/></g><path d="m3.75 0c-.553 0-1 .447-1 1v3.5c0 .553.447 1 1 1z" fill="#99a5ac"/><path d="m8.5 0c-.553 0-1 .447-1 1v3.5c0 .553.447 1 1 1z" fill="#99a5ac"/><path d="m13.25 0c-.553 0-1 .447-1 1v3.5c0 .553.447 1 1 1z" fill="#99a5ac"/><path d="m14.25 2.25h-11.5c-1.52 0-2.75 1.23-2.75 2.75v13.25c0 1.52 1.23 2.75 2.75 2.75h10.25v-2.25c0-1.43.82-2.67 2-3.3.02-1.54.81-2.89 2-3.69v-6.76c0-1.52-1.23-2.75-2.75-2.75z" fill="#eceff1"/><path d="m8.5 2.25h-5.75c-1.52 0-2.75 1.23-2.75 2.75v13.25c0 1.52 1.23 2.75 2.75 2.75h5.75z" fill="#cdd0d2"/><path d="m11 13h-7c-.552 0-1-.448-1-1s.448-1 1-1h7c.552 0 1 .448 1 1s-.448 1-1 1z" fill="#90a4ae"/><path d="m8 9h-4c-.552 0-1-.448-1-1s.448-1 1-1h4c.552 0 1 .448 1 1s-.448 1-1 1z" fill="#90a4ae"/><path d="m21.25 18.5h-3.5c-.414 0-.75-.336-.75-.75v-2.25c0-1.378 1.121-2.5 2.5-2.5s2.5 1.122 2.5 2.5v2.25c0 .414-.336.75-.75.75zm-2.75-1.5h2v-1.5c0-.551-.448-1-1-1s-1 .449-1 1z" fill="#546e7a"/><path d="m22.25 24h-5.5c-.965 0-1.75-.785-1.75-1.75v-3.5c0-.965.785-1.75 1.75-1.75h5.5c.965 0 1.75.785 1.75 1.75v3.5c0 .965-.785 1.75-1.75 1.75z" fill="#ffc107"/><path d="m9 8h-6c0 .553.447 1 1 1h4c.553 0 1-.447 1-1z" fill="#7d8f97"/><path d="m12 12h-9c0 .553.447 1 1 1h7c.553 0 1-.447 1-1z" fill="#7d8f97"/><path d="m19.5 13c-1.379 0-2.5 1.121-2.5 2.5v1.5h1.5v-1.5c0-.551.448-1 1-1z" fill="#49606a"/><path d="m19.5 17h-1-1.5-.25c-.965 0-1.75.785-1.75 1.75v3.5c0 .965.785 1.75 1.75 1.75h2.75z" fill="#dea806"/></svg>