<svg id="Layer_1" enable-background="new 0 0 512 512" height="512" viewBox="0 0 512 512" width="512" xmlns="http://www.w3.org/2000/svg"><g><g><path d="m442.604 261.585c-3.373-.671-83.244-15.982-136.15 26.215-20.39 16.263-33.338 38.331-41.562 59.51v82.928c5.184.886 18.63 2.849 35.987 2.849 28.55 0 67.671-5.313 97.954-29.466 52.905-42.197 55.739-123.472 55.834-126.911.201-7.308-4.894-13.696-12.063-15.125z" fill="#00da80"/><path d="m264.891 415.701v14.537c5.184.886 18.63 2.849 35.987 2.849 28.55 0 67.671-5.313 97.954-29.466 52.905-42.197 55.739-123.472 55.834-126.911.101-3.654-1.123-7.077-3.268-9.766z" fill="#00b9a0"/><path d="m442.604 61.55c-3.373-.671-83.244-15.982-136.15 26.215-20.39 16.263-33.338 38.331-41.562 59.51v82.928c5.184.886 18.63 2.849 35.987 2.849 28.55 0 67.671-5.313 97.954-29.466 52.905-42.197 55.739-123.472 55.834-126.911.201-7.308-4.894-13.696-12.063-15.125z" fill="#00da80"/><path d="m264.891 215.666v14.537c5.184.886 18.63 2.849 35.987 2.849 28.55 0 67.671-5.313 97.954-29.466 52.905-42.197 55.739-123.472 55.834-126.911.101-3.654-1.123-7.077-3.268-9.766z" fill="#00b9a0"/><path d="m69.396 261.585c3.373-.671 83.244-15.982 136.15 26.215 20.39 16.263 33.338 38.331 41.562 59.51v82.928c-5.184.886-18.63 2.849-35.987 2.849-28.55 0-67.671-5.313-97.954-29.466-52.905-42.197-55.739-123.472-55.834-126.911-.201-7.308 4.894-13.696 12.063-15.125z" fill="#ace233"/><path d="m247.109 415.701v14.537c-5.184.886-18.63 2.849-35.987 2.849-28.55 0-67.671-5.313-97.954-29.466-52.905-42.197-55.739-123.472-55.834-126.911-.101-3.654 1.123-7.077 3.268-9.766z" fill="#00da80"/><path d="m69.396 61.55c3.373-.671 83.244-15.982 136.15 26.215 20.39 16.263 33.338 38.331 41.562 59.51v82.928c-5.184.886-18.63 2.849-35.987 2.849-28.55 0-67.671-5.313-97.954-29.466-52.905-42.198-55.739-123.472-55.834-126.912-.201-7.307 4.894-13.695 12.063-15.124z" fill="#ace233"/><path d="m247.109 215.666v14.537c-5.184.886-18.63 2.849-35.987 2.849-28.55 0-67.671-5.313-97.954-29.466-52.906-42.198-55.74-123.472-55.835-126.912-.101-3.654 1.123-7.077 3.268-9.766z" fill="#00da80"/></g><g><path d="m256 512c-8.284 0-15-6.716-15-15v-482c0-8.284 6.716-15 15-15s15 6.716 15 15v482c0 8.284-6.716 15-15 15z" fill="#00b9a0"/></g><g><path d="m256 0v512c8.284 0 15-6.716 15-15v-482c0-8.284-6.716-15-15-15z" fill="#009398"/></g></g></svg>