<svg id="Flat" height="512" viewBox="0 0 512 512" width="512" xmlns="http://www.w3.org/2000/svg"><path d="m472.183 180.394-200-117.242a32 32 0 0 0 -32.366 0l-200 117.242a32 32 0 0 0 -15.817 27.606v256a32 32 0 0 0 32 32h400a32 32 0 0 0 32-32v-256a32 32 0 0 0 -15.817-27.606z" fill="#e09f2c"/><rect fill="#e9eef2" height="416" rx="32" width="336" x="88" y="16"/><path d="m256 72a96 96 0 1 0 55.216 174.541 8 8 0 0 0 -9.216-13.082 80.006 80.006 0 1 1 34-65.459v16a16 16 0 0 1 -32 0v-56a8 8 0 0 0 -16 0v4.261a48 48 0 1 0 4.079 67.346 31.991 31.991 0 0 0 59.921-15.607v-16a96.108 96.108 0 0 0 -96-96zm0 128a32 32 0 1 1 32-32 32.036 32.036 0 0 1 -32 32z" fill="#9aa3a8"/><path d="m488 207.93-215.817 126.513a32 32 0 0 1 -32.366 0l-215.817-126.513v256a32 32 0 0 0 32 32h400a32 32 0 0 0 32-32z" fill="#ffb632"/></svg>