<svg height="512pt" viewBox="0 0 512 512" width="512pt" xmlns="http://www.w3.org/2000/svg"><path d="m496.929688 94.769531h.070312c3.976562 0 7.789062-1.578125 10.601562-4.390625 2.816407-2.8125 4.398438-6.632812 4.398438-10.609375v-34.769531c0-24.8125-20.1875-45-45-45h-422c-24.8125 0-45 20.1875-45 45v71.726562c0 8.28125 6.707031 14.992188 14.984375 15 .53125 0 1.066406.027344 1.582031.082032 8.226563.867187 14.214844 8.261718 13.351563 16.488281-.804688 7.660156-7.199219 13.433594-14.882813 13.433594-.011718 0-.023437 0-.035156 0-3.976562 0-7.789062 1.578125-10.601562 4.386719-2.816407 2.8125-4.398438 6.628906-4.398438 10.613281v124.277343c0 8.28125 6.710938 14.996094 14.988281 15 .328125 0 .660157.003907.992188.023438 3.996093.265625 7.652343 2.066406 10.296875 5.078125 2.640625 3.011719 3.953125 6.875 3.691406 10.871094-.515625 7.863281-7.078125 14.015625-14.941406 14.015625-.007813 0-.019532 0-.027344 0-3.976562 0-7.789062 1.578125-10.601562 4.386718-2.816407 2.8125-4.398438 6.632813-4.398438 10.609376v106.007812c0 24.8125 20.1875 45 45 45h295.9375c8.277344 0 14.988281-6.703125 15-14.976562 0-.335938.003906-.667969.027344-1.003907.539062-8.253906 7.683594-14.527343 15.945312-13.988281 7.867188.515625 14.023438 7.082031 14.015625 14.953125-.003906 3.980469 1.574219 7.800781 4.386719 10.617187 2.8125 2.8125 6.632812 4.398438 10.613281 4.398438h66.074219c24.8125 0 45-20.1875 45-45v-237.265625c0-8.277344-6.707031-14.992187-14.984375-15-1.542969 0-2.792969-.035156-3.933594-.113281h-.003906c-33.011719-2.160156-58.109375-30.777344-55.949219-63.789063 2.058594-31.449219 28.320313-56.0625 59.800782-56.0625zm0 0" fill="#ffd400"/><g fill="#fdbf00"><path d="m496.929688 94.769531h.070312c3.976562 0 7.789062-1.578125 10.601562-4.390625 2.816407-2.8125 4.398438-6.632812 4.398438-10.609375v-34.769531c0-24.8125-20.1875-45-45-45h-211v512h84.9375c8.277344 0 14.988281-6.703125 15-14.976562 0-.335938.003906-.667969.027344-1.003907.539062-8.253906 7.683594-14.527343 15.945312-13.988281 7.867188.515625 14.023438 7.082031 14.015625 14.953125-.003906 3.980469 1.574219 7.800781 4.386719 10.617187 2.8125 2.8125 6.632812 4.398438 10.613281 4.398438h66.074219c24.8125 0 45-20.1875 45-45v-237.265625c0-8.277344-6.707031-14.992187-14.984375-15-1.542969 0-2.792969-.035156-3.933594-.113281h-.003906c-33.011719-2.160156-58.109375-30.777344-55.949219-63.789063 2.058594-31.449219 28.320313-56.0625 59.800782-56.0625zm0 0"/><path d="m158.0625 153.109375c-1 0-2-.035156-3.003906-.101563-24.761719-1.621093-43.585938-23.082031-41.964844-47.84375 1.621094-24.757812 23.085938-43.59375 47.84375-41.960937 11.996094.785156 22.964844 6.191406 30.890625 15.230469 7.929687 9.035156 11.859375 20.617187 11.074219 32.613281-.785156 11.992187-6.195313 22.964844-15.230469 30.890625-8.277344 7.261719-18.695313 11.171875-29.609375 11.171875zm0 0"/><path d="m284.285156 315.78125c-1.640625 0-3.292968-.054688-4.953125-.164062-19.988281-1.308594-38.273437-10.324219-51.484375-25.386719-13.207031-15.058594-19.761718-34.363281-18.453125-54.351563 1.308594-19.992187 10.324219-38.277344 25.386719-51.484375 15.0625-13.210937 34.363281-19.769531 54.355469-18.457031 41.265625 2.703125 72.640625 38.472656 69.9375 79.742188-2.59375 39.605468-35.648438 70.101562-74.789063 70.101562zm0 0"/><path d="m201.25 411.816406c7.84375 0 15.363281-6.898437 15-15-.363281-8.125-6.59375-15-15-15-7.847656 0-15.363281 6.898438-15 15 .363281 8.128906 6.589844 15 15 15zm0 0"/></g><path d="m289.136719 165.9375c-11.5-.753906-22.769531 1.109375-33.136719 5.332031v139.007813c7.347656 2.976562 15.195312 4.808594 23.332031 5.339844 1.660157.109374 3.3125.164062 4.953125.164062 39.140625 0 72.195313-30.496094 74.789063-70.101562 2.699219-41.269532-28.671875-77.039063-69.9375-79.742188zm0 0" fill="#ff9f00"/><path d="m433.882812 386.667969c7.84375 0 15.359376-6.898438 15-15-.367187-8.128907-6.59375-15-15-15-7.847656 0-15.363281 6.898437-15 15 .363282 8.128906 6.589844 15 15 15zm0 0" fill="#ff9f00"/></svg>