<?xml version="1.0" encoding="iso-8859-1"?>
<!-- Generator: Adobe Illustrator 19.0.0, SVG Export Plug-In . SVG Version: 6.00 Build 0)  -->
<svg version="1.1" id="Capa_1" xmlns="http://www.w3.org/2000/svg" xmlns:xlink="http://www.w3.org/1999/xlink" x="0px" y="0px"
	 viewBox="0 0 512.13 512.13" style="enable-background:new 0 0 512.13 512.13;" xml:space="preserve">
<path style="fill:#FFC107;" d="M507.991,87.532c-2.594-2.067-6.021-2.765-9.216-1.877l-490.667,128
	c-4.731,1.232-8.019,5.522-7.979,10.411v85.333c0,5.891,4.776,10.667,10.667,10.667c17.673,0,32,14.327,32,32
	c0,17.673-14.327,32-32,32c-5.891,0-10.667,4.776-10.667,10.667v106.667c0,5.891,4.776,10.667,10.667,10.667
	c0.908,0.003,1.813-0.119,2.688-0.363l490.667-128c4.692-1.222,7.97-5.455,7.979-10.304V96.065
	C512.16,92.73,510.629,89.573,507.991,87.532z"/>
<g>
	<circle style="fill:#FFD54F;" cx="138.796" cy="288.065" r="53.333"/>
	<circle style="fill:#FFD54F;" cx="245.463" cy="352.065" r="32"/>
	<circle style="fill:#FFD54F;" cx="288.13" cy="224.065" r="32"/>
	<circle style="fill:#FFD54F;" cx="384.13" cy="298.732" r="42.667"/>
</g>
<path style="fill:#FFA000;" d="M511.724,93.185c-1.045-3.797-28.309-93.12-223.595-93.12c-2.308,0-4.554,0.749-6.4,2.133
	C228.951,41.9,6.53,213.889,4.268,215.532c-4.713,3.534-5.669,10.22-2.135,14.933c2.042,2.723,5.26,4.308,8.663,4.267
	c0.908,0.003,1.813-0.119,2.688-0.363l490.667-128c5.699-1.492,9.109-7.321,7.618-13.02
	C511.754,93.294,511.74,93.239,511.724,93.185L511.724,93.185z"/>
<g>
</g>
<g>
</g>
<g>
</g>
<g>
</g>
<g>
</g>
<g>
</g>
<g>
</g>
<g>
</g>
<g>
</g>
<g>
</g>
<g>
</g>
<g>
</g>
<g>
</g>
<g>
</g>
<g>
</g>
</svg>
