<?xml version="1.0" encoding="iso-8859-1"?>
<!-- Generator: Adobe Illustrator 19.0.0, SVG Export Plug-In . SVG Version: 6.00 Build 0)  -->
<svg version="1.1" id="Capa_1" xmlns="http://www.w3.org/2000/svg" xmlns:xlink="http://www.w3.org/1999/xlink" x="0px" y="0px"
	 viewBox="0 0 512 512" style="enable-background:new 0 0 512 512;" xml:space="preserve">
<path style="fill:#FF728E;" d="M344.471,228.824c-22.062-78.946-104.235-125.041-105.063-125.497l14.432-26.288
	c3.827,2.097,93.999,52.417,119.513,143.713L344.471,228.824z"/>
<path style="fill:#FFA7B8;" d="M161.825,232.176l-29.083-7.317c15.192-60.614,73.112-144.902,169.276-180.819l10.493,28.094
	C224.677,104.939,174.552,182.164,161.825,232.176z"/>
<g>
	<path style="fill:#FF475A;" d="M491.644,406.328c-10.676,30.589-26.98,56.46-47.143,74.813
		c-22.272,20.273-48.952,30.849-77.562,30.859c-0.78,0-1.549-0.01-2.329-0.03c-1.819-0.03-3.639-0.11-5.468-0.23
		c-41.135-2.729-76.432-23.302-99.384-57.929c-30.799-46.483-49.072-127.014-26.34-181.344
		c12.835-30.669,37.367-50.342,70.934-56.899c25.641-5.008,49.922,0.38,60.158,3.279c0.03-0.01,0.06-0.02,0.1-0.03
		c10.296-2.899,34.508-8.237,60.068-3.249c15.614,3.049,29.959,9.667,41.495,19.123c24.061,19.733,37.346,47.873,39.496,83.62
		C507.698,352.058,499.161,384.796,491.644,406.328z"/>
	<path style="fill:#FF475A;" d="M274.422,406.328c-10.686,30.589-26.98,56.46-47.143,74.813
		c-22.272,20.273-48.952,30.849-77.572,30.859c-0.77,0-1.539-0.01-2.319-0.03c-1.819-0.03-3.639-0.11-5.478-0.23
		c-41.135-2.729-76.432-23.302-99.374-57.929c-30.799-46.483-49.072-127.014-26.34-181.344
		c12.835-30.669,37.356-50.342,70.924-56.899c25.641-5.008,49.922,0.38,60.168,3.279c0.03-0.01,0.06-0.02,0.1-0.03
		c10.296-2.899,34.508-8.237,60.068-3.249c15.614,3.049,29.959,9.667,41.485,19.123c24.061,19.733,37.347,47.873,39.496,83.62
		C290.466,352.058,281.929,384.796,274.422,406.328z"/>
</g>
<g>
	<path style="fill:#E5104D;" d="M274.422,406.328c-10.686,30.589-26.98,56.46-47.143,74.813
		c-22.272,20.273-48.952,30.849-77.572,30.859c-0.77,0-1.539-0.01-2.319-0.03V218.816c10.296-2.899,34.508-8.237,60.068-3.249
		c15.614,3.049,29.959,9.667,41.485,19.123c24.061,19.733,37.347,47.873,39.496,83.62
		C290.466,352.058,281.929,384.796,274.422,406.328z"/>
	<path style="fill:#E5104D;" d="M491.644,406.328c-10.676,30.589-26.98,56.46-47.143,74.813
		c-22.272,20.273-48.952,30.849-77.562,30.859c-0.78,0-1.549-0.01-2.329-0.03V218.816c10.296-2.899,34.508-8.237,60.068-3.249
		c15.614,3.049,29.959,9.667,41.495,19.123c24.061,19.733,37.347,47.873,39.496,83.62
		C507.698,352.058,499.161,384.796,491.644,406.328z"/>
</g>
<path style="fill:#11A892;" d="M242.734,106.937c-85.205,55.047-174.88,37.749-215.752-77.272
	C122.502-28.198,203.66-0.877,242.734,106.937z"/>
<path style="fill:#0F9887;" d="M242.734,106.937c-85.205,55.047-174.88,37.749-215.752-77.272L242.734,106.937z"/>
<g>
</g>
<g>
</g>
<g>
</g>
<g>
</g>
<g>
</g>
<g>
</g>
<g>
</g>
<g>
</g>
<g>
</g>
<g>
</g>
<g>
</g>
<g>
</g>
<g>
</g>
<g>
</g>
<g>
</g>
</svg>
