<?xml version="1.0" encoding="iso-8859-1"?>
<!-- Generator: Adobe Illustrator 21.0.0, SVG Export Plug-In . SVG Version: 6.00 Build 0)  -->
<svg version="1.1" id="Capa_1" xmlns="http://www.w3.org/2000/svg" xmlns:xlink="http://www.w3.org/1999/xlink" x="0px" y="0px"
	 viewBox="0 0 512.001 512.001" style="enable-background:new 0 0 512.001 512.001;" xml:space="preserve">
<path style="fill:#FF7816;" d="M228.253,368.6L102.314,494.539c-19.728,19.728-49.851,22.697-72.761,9.122
	c-4.242-2.545,12.727-26.729,9.122-30.335c-3.606-3.606-27.789,13.363-30.335,9.122c-13.575-22.911-10.607-53.033,9.122-72.761
	L143.4,283.747l63.64,21.213L228.253,368.6z"/>
<path style="fill:#FF4B00;" d="M228.253,368.6L102.314,494.539c-19.728,19.728-49.851,22.697-72.761,9.122
	c-4.242-2.545,12.727-26.729,9.122-30.335L207.04,304.96L228.253,368.6z"/>
<path style="fill:#FF9F00;" d="M228.253,304.96l-198.7,198.7c-4.242-2.545-8.486-5.516-12.092-9.122
	c-3.606-3.606-6.576-7.85-9.122-12.092l198.7-198.7L228.253,304.96z"/>
<path style="fill:#FF7816;" d="M228.253,304.96l-198.7,198.7c-4.242-2.545-8.486-5.516-12.092-9.122l200.185-200.185L228.253,304.96
	z"/>
<rect x="177.898" y="168.392" transform="matrix(0.7071 -0.7071 0.7071 0.7071 -48.4321 279.8574)" style="fill:#E2E2E7;" width="271.407" height="59.999"/>
<rect x="188.5" y="194.009" transform="matrix(0.7071 -0.7071 0.7071 0.7071 -52.8344 290.4636)" style="fill:#D3D3D8;" width="271.407" height="30"/>
<path style="fill:#E2E2E7;" d="M455.81,135.527l-46.245,9.334l-42.426-42.426l9.334-46.245c0.848-4.243,3.395-8.061,7.213-10.183
	l79.762-44.123c5.728-3.182,12.94-2.333,17.818,2.545l26.304,26.304c4.879,4.879,5.728,12.09,2.545,17.818l-44.123,79.762
	C463.871,132.132,460.053,134.679,455.81,135.527z"/>
<path style="fill:#D3D3D8;" d="M409.565,144.861l-21.213-21.213L494.418,17.582l13.152,13.152c4.879,4.879,5.728,12.09,2.545,17.818
	l-44.123,79.762c-2.122,3.818-5.94,6.365-10.183,7.213L409.565,144.861z"/>
<path style="fill:#5A5A5A;" d="M270.68,326.173L228.253,368.6L143.4,283.747l42.426-42.426c5.94-5.94,15.273-5.94,21.213,0
	l63.64,63.64C276.62,310.9,276.62,320.233,270.68,326.173z"/>
<path style="fill:#444444;" d="M270.68,326.173L228.253,368.6l-42.426-42.426l53.033-53.033l31.82,31.82
	C276.62,310.9,276.62,320.233,270.68,326.173z"/>
<path style="fill:#FFE470;" d="M376.866,292.013l117.673,117.673c19.728,19.728,22.697,49.851,9.122,72.761
	c-2.545,4.242-26.729-12.727-30.335-9.122c-3.606,3.606,13.363,27.789,9.122,30.335c-22.911,13.575-53.033,10.607-72.761-9.122
	L292.013,376.866l21.213-63.64L376.866,292.013z"/>
<path style="fill:#FFD400;" d="M313.227,313.227l160.099,160.099c-3.606,3.606,13.363,27.789,9.122,30.335
	c-22.911,13.575-53.033,10.607-72.761-9.122L292.013,376.866L313.227,313.227z"/>
<rect x="198.02" y="92.53" transform="matrix(0.7071 -0.7071 0.7071 0.7071 -94.4516 228.0207)" style="fill:#ECECF1;" width="59.999" height="270.987"/>
<path style="fill:#FFD400;" d="M313.227,292.013L503.66,482.447c-2.545,4.242-5.516,8.486-9.122,12.092
	c-3.606,3.606-7.85,6.576-12.092,9.122L292.013,313.227L313.227,292.013z"/>
<rect x="202.41" y="103.13" transform="matrix(0.7071 -0.7071 0.7071 0.7071 -105.0549 223.6231)" style="fill:#E2E2E7;" width="30" height="270.987"/>
<path style="fill:#FDBF00;" d="M302.62,302.62l191.919,191.919c-3.606,3.606-7.85,6.576-12.092,9.122L292.013,313.227L302.62,302.62
	z"/>
<path style="fill:#6E6E6E;" d="M334.44,249.587l42.426,42.426l-84.853,84.853l-42.426-42.426c-5.94-5.94-5.94-15.273,0-21.213
	l63.64-63.64C319.167,243.647,328.499,243.647,334.44,249.587z"/>
<path style="fill:#5A5A5A;" d="M249.587,313.227l31.82-31.82l53.033,53.033l-42.426,42.426l-42.426-42.426
	C243.647,328.499,243.647,319.167,249.587,313.227z"/>
<path style="fill:#ECECF1;" d="M153.426,26.147c35.213,35.213,35.213,92.066,0,127.279s-92.066,35.213-127.279,0
	C5.357,132.636-2.916,104.424,0.903,77.27c0.848-5.514,4.879-10.394,10.182-11.878c5.303-1.911,11.244-0.637,15.274,3.394
	L68.573,111L111,68.573L68.786,26.359c-4.031-4.031-5.305-9.971-3.394-15.274c1.484-5.303,6.364-9.334,11.878-10.182
	C104.424-2.916,132.636,5.357,153.426,26.147z"/>
<path style="fill:#E2E2E7;" d="M89.787,89.786l63.64,63.64c-35.213,35.213-92.066,35.213-127.279,0
	C5.357,132.636-2.916,104.424,0.903,77.27c0.848-5.514,4.879-10.394,10.182-11.878c5.303-1.911,11.244-0.637,15.274,3.394
	L68.573,111L89.787,89.786z"/>
<g>
</g>
<g>
</g>
<g>
</g>
<g>
</g>
<g>
</g>
<g>
</g>
<g>
</g>
<g>
</g>
<g>
</g>
<g>
</g>
<g>
</g>
<g>
</g>
<g>
</g>
<g>
</g>
<g>
</g>
</svg>
