<?xml version="1.0" encoding="iso-8859-1"?>
<!-- Generator: Adobe Illustrator 19.0.0, SVG Export Plug-In . SVG Version: 6.00 Build 0)  -->
<svg version="1.1" id="Capa_1" xmlns="http://www.w3.org/2000/svg" xmlns:xlink="http://www.w3.org/1999/xlink" x="0px" y="0px"
	 viewBox="0 0 512 512" style="enable-background:new 0 0 512 512;" xml:space="preserve">
<path style="fill:#607D8B;" d="M288,192c-1.536,0-3.072-0.224-4.608-0.672c-8.48-2.56-13.28-11.456-10.72-19.936l48-160
	C322.72,4.64,328.928,0,336,0h112c8.832,0,16,7.168,16,16s-7.168,16-16,16H347.904l-44.576,148.608
	C301.248,187.52,294.88,192,288,192z"/>
<circle style="fill:#8BC34A;" cx="112" cy="96" r="96"/>
<g>
	<path style="fill:#ECEFF1;" d="M304,512c-8.832,0-16-7.168-16-16V336c0-8.832,7.168-16,16-16s16,7.168,16,16v160
		C320,504.832,312.832,512,304,512z"/>
	<path style="fill:#ECEFF1;" d="M384,512H224c-8.832,0-16-7.168-16-16s7.168-16,16-16h160c8.832,0,16,7.168,16,16
		S392.832,512,384,512z"/>
	<path style="fill:#ECEFF1;" d="M304,352c-105.888,0-192-86.112-192-192v-48c0-8.832,7.168-16,16-16h352c8.832,0,16,7.168,16,16v48
		C496,265.888,409.888,352,304,352z"/>
</g>
<path style="fill:#2196F3;" d="M304,320c88.224,0,160-71.776,160-160H144C144,248.224,215.776,320,304,320z"/>
<g>
</g>
<g>
</g>
<g>
</g>
<g>
</g>
<g>
</g>
<g>
</g>
<g>
</g>
<g>
</g>
<g>
</g>
<g>
</g>
<g>
</g>
<g>
</g>
<g>
</g>
<g>
</g>
<g>
</g>
</svg>
