<svg height="512" viewBox="0 0 50 58" width="512" xmlns="http://www.w3.org/2000/svg"><g id="Page-1" fill="none" fill-rule="evenodd"><g id="030---Locked-File" fill-rule="nonzero"><path id="Shape" d="m2 52v-48c0-2.209139 1.790861-4 4-4h40c2.209139 0 4 1.790861 4 4v40l-12 12h-32c-2.209139 0-4-1.790861-4-4z" fill="#b0d3f0"/><path id="Shape" d="m38 56v-8c0-2.209139 1.790861-4 4-4h8z" fill="#90bae1"/><g fill="#285680"><path id="Shape" d="m10 7h-2c-.55228475 0-1-.44771525-1-1s.44771525-1 1-1h2c.5522847 0 1 .44771525 1 1s-.4477153 1-1 1z"/><path id="Shape" d="m44 7h-30c-.5522847 0-1-.44771525-1-1s.4477153-1 1-1h30c.5522847 0 1 .44771525 1 1s-.4477153 1-1 1z"/><path id="Shape" d="m10 13h-2c-.55228475 0-1-.4477153-1-1s.44771525-1 1-1h2c.5522847 0 1 .4477153 1 1s-.4477153 1-1 1z"/><path id="Shape" d="m37 13h-23c-.5522847 0-1-.4477153-1-1s.4477153-1 1-1h23c.5522847 0 1 .4477153 1 1s-.4477153 1-1 1z"/><path id="Shape" d="m10 19h-2c-.55228475 0-1-.4477153-1-1s.44771525-1 1-1h2c.5522847 0 1 .4477153 1 1s-.4477153 1-1 1z"/><path id="Shape" d="m30 19h-16c-.5522847 0-1-.4477153-1-1s.4477153-1 1-1h16c.5522847 0 1 .4477153 1 1s-.4477153 1-1 1z"/></g><path id="Shape" d="m46 35c-.5522847 0-1-.4477153-1-1v-14c0-.5522847.4477153-1 1-1s1 .4477153 1 1v14c0 .5522847-.4477153 1-1 1z" fill="#ecf0f1"/><path id="Shape" d="m46 41c-.5522847 0-1-.4477153-1-1v-2c0-.5522847.4477153-1 1-1s1 .4477153 1 1v2c0 .5522847-.4477153 1-1 1z" fill="#ecf0f1"/><path id="Shape" d="m20 39v-6c0-3.8659932-3.1340068-7-7-7-3.86599325 0-7 3.1340068-7 7v6h-4v-6c0-6.0751322 4.92486775-11 11-11 6.0751322 0 11 4.9248678 11 11v6z" fill="#95a5a5"/><path id="Shape" d="m2 37h22c1.1045695 0 2 .8954305 2 2v14c0 2.7614237-2.2385763 5-5 5h-16c-2.76142375 0-5-2.2385763-5-5v-14c0-1.1045695.8954305-2 2-2z" fill="#f0c419"/><path id="Shape" d="m16 45c.0032158-1.3740425-.9274623-2.5746319-2.2589269-2.9140511-1.3314645-.3394192-2.7233249.2691049-3.3783008 1.4769996-.65497594 1.2078947-.40562205 2.7063604.6052277 3.6370515l-.58 3.476c-.0950865.5792001.0690551 1.1709318.4489262 1.6183826.379871.4474508.9371205.7054467 1.5240738.7056174h1.278c.5879836.0000723 1.1462101-.2585952 1.5262725-.7072345.3800625-.4486394.5434508-1.041792.4467275-1.6217655l-.58-3.476c.6157228-.5638904.9668458-1.3600835.968-2.195z" fill="#e57e25"/></g></g></svg>