<?xml version="1.0" encoding="iso-8859-1"?>
<!-- Generator: Adobe Illustrator 19.0.0, SVG Export Plug-In . SVG Version: 6.00 Build 0)  -->
<svg version="1.1" id="Capa_1" xmlns="http://www.w3.org/2000/svg" xmlns:xlink="http://www.w3.org/1999/xlink" x="0px" y="0px"
	 viewBox="0 0 512 512" style="enable-background:new 0 0 512 512;" xml:space="preserve">
<path style="fill:#415A6B;" d="M119.467,378.667H118.4c-13.867-1.067-23.467-14.933-28.8-41.6
	c-5.333-23.467-6.4-53.333-4.267-85.333C89.6,192,106.667,128,135.467,130.133c13.867,1.067,23.467,14.933,28.8,41.6
	c5.333,23.467,6.4,53.333,4.267,85.333C165.333,315.733,148.267,378.667,119.467,378.667z M134.4,145.067
	c-7.467,0-28.8,36.267-33.067,108.8C99.2,284.8,100.267,313.6,105.6,334.933c5.333,24.533,12.8,29.867,14.933,29.867l0,0
	c7.467,0,28.8-36.267,33.067-108.8c2.133-30.933,1.067-59.733-4.267-81.067C144,150.4,136.533,145.067,134.4,145.067L134.4,145.067z
	"/>
<polygon style="fill:#E8EAE9;" points="469.333,512 275.2,318.933 259.2,333.867 195.2,269.867 293.333,170.667 358.4,235.733 
	342.4,251.733 370.133,279.467 370.133,317.867 393.6,317.867 393.6,359.467 432,359.467 432,384 455.467,384 455.467,424.533 
	490.667,424.533 490.667,450.133 512,450.133 512,512 "/>
<g>
	<path style="fill:#CED6E0;" d="M330.667,350.933c-20.267-20.267-36.267-43.733-46.933-67.2c19.2,16,38.4,33.067,55.467,51.2
		L512,506.667V512h-20.267L330.667,350.933z"/>
	<path style="fill:#CED6E0;" d="M176,0C91.733,0,23.467,68.267,23.467,151.467c0,84.267,68.267,151.467,151.467,151.467
		S326.4,234.667,326.4,151.467C327.467,68.267,259.2,0,176,0z M162.133,138.667C145.067,155.733,121.6,160,108.8,147.2
		c-12.8-12.8-8.533-36.267,8.533-53.333s40.533-21.333,53.333-8.533C183.467,97.067,179.2,121.6,162.133,138.667z"/>
</g>
<path style="fill:#FFD15C;" d="M119.467,309.333L25.6,403.2V512h187.733V403.2C195.2,385.067,137.6,327.467,119.467,309.333z
	 M119.467,406.4c-13.867,0-25.6-11.733-25.6-25.6c0-13.867,11.733-25.6,25.6-25.6c13.867,0,25.6,11.733,25.6,25.6
	C144,395.733,133.333,406.4,119.467,406.4z"/>
<path style="fill:#F3705A;" d="M217.6,413.867l-99.2-99.2l-98.133,99.2c-4.267,4.267-12.8,4.267-17.067,0l0,0
	c-4.267-4.267-4.267-12.8,0-17.067l107.733-107.733c4.267-4.267,12.8-4.267,17.067,0L235.733,396.8c4.267,4.267,4.267,12.8,0,17.067
	l0,0C230.4,419.2,222.933,419.2,217.6,413.867z"/>
<path style="fill:#415A6B;" d="M118.4,378.667c-13.867-1.067-23.467-14.933-28.8-41.6c-5.333-23.467-6.4-53.333-4.267-85.333
	C89.6,192,106.667,128,135.467,130.133l-1.067,14.933l0,0c-7.467,0-28.8,36.267-33.067,108.8
	C99.2,284.8,100.267,313.6,105.6,334.933c5.333,24.533,12.8,29.867,14.933,29.867L118.4,378.667z"/>
<g>
</g>
<g>
</g>
<g>
</g>
<g>
</g>
<g>
</g>
<g>
</g>
<g>
</g>
<g>
</g>
<g>
</g>
<g>
</g>
<g>
</g>
<g>
</g>
<g>
</g>
<g>
</g>
<g>
</g>
</svg>
