<svg height="512" viewBox="0 0 128 128" width="512" xmlns="http://www.w3.org/2000/svg"><g><path d="m49.5 104.141a459.656 459.656 0 0 0 6.39-57.611h16.221a459.848 459.848 0 0 0 6.39 57.611 14.732 14.732 0 0 1 -14.501 17.359 14.732 14.732 0 0 1 -14.5-17.359z" fill="#663325"/><path d="m69.976 90.337a1.751 1.751 0 0 1 -1.733-1.514q-.4-2.965-.8-6.195a1.751 1.751 0 0 1 3.475-.426q.393 3.206.8 6.149a1.75 1.75 0 0 1 -1.736 1.986z" fill="#4f2217"/><path d="m103.81 48.31a8.979 8.979 0 0 1 -8.99 8.98h-61.64a8.982 8.982 0 0 1 -8.99-8.98 33.652 33.652 0 0 1 2.51-13.26 22.854 22.854 0 0 1 9.05-10.63c3.63-2.25 5.99-3.9 8.35-6.88.59-.75 1.2-1.47 1.81-2.17a27.277 27.277 0 0 1 8.77-6.86 21.476 21.476 0 0 1 9.32-2.01c9 0 14.91 4.72 19.9 11.04 2.36 2.98 4.73 4.63 8.35 6.88 8.73 5.42 11.56 14.96 11.56 23.89z" fill="#fc4b00"/><g fill="#eaeaf0"><circle cx="45.667" cy="42.833" r="4.5"/><circle cx="89.583" cy="39.266" r="4.5"/><circle cx="68.5" cy="33.833" r="4.5"/><path d="m57.67 13.69a6 6 0 0 1 -11.76 1.68 27.277 27.277 0 0 1 8.77-6.86 5.972 5.972 0 0 1 2.99 5.18z"/></g></g></svg>