<svg id="Capa_1" enable-background="new 0 0 512 512" height="512" viewBox="0 0 512 512" width="512" xmlns="http://www.w3.org/2000/svg"><g><path d="m300 165-150 31-149.999-31 29.098-90 120.901-30 120.901 30z" fill="#6cf"/><path d="m300 165-29.099-90-120.901-30v151z" fill="#59abff"/><g id="Soy_milk_1_"><g><path d="m300 437v75h-300v-75l150-30z" fill="#6cf"/><path d="m300 512v-75l-150-30v105z" fill="#59abff"/><path d="m.001 165h299.999v272h-299.999z" fill="#f2f6ff"/><path d="m150 165h150v272h-150z" fill="#d9e5ff"/><path d="m270.901 75h-241.802l.901-2.401v-72.599h240v72.599z" fill="#f2f6ff"/><path d="m270.901 75-.901-2.401v-72.599h-120v75z" fill="#d9e5ff"/></g><g><path d="m150 346c-74.15 0-75-57.554-75-60 0-16.538 13.447-30 30-30 17.549 0 24.932 5.2 30.879 9.39 3.002 2.149 5.28 7.886 14.121 6.885 7.447 0 10.84-4.559 14.121-6.87 5.947-4.205 13.33-9.405 30.879-9.405 16.553 0 30 13.462 30 30 0 2.446-.85 60-75 60z" fill="#ffd9b3"/></g></g><g><path d="m512 181v118.2l-15 46.8-30 15h-120l-15-18.9v-161.1z" fill="#f2f6ff"/><path d="m467 361 30-15 15-46.8v-118.2h-90v180z" fill="#d9e5ff"/><path d="m512 299.2v212.8h-180v-169.9l15-11.1s20.099-15 45-15c13.5 0 22.8 1.199 30 2.999 17.843 4.543 24.011 12.001 45 12.001 16.5 0 30-15 30-15z" fill="#ffd9b3"/><path d="m512 299.2v212.8h-90v-193.001c17.843 4.543 24.011 12.001 45 12.001 16.5 0 30-15 30-15z" fill="#fb9"/></g><g><path d="m225 286c0-16.538-13.447-30-30-30-17.549 0-24.932 5.2-30.879 9.404-3.281 2.311-6.674 6.87-14.121 6.87v73.726c74.15 0 75-57.554 75-60z" fill="#fb9"/></g></g></svg>