<svg id="Capa_1" enable-background="new 0 0 512 512" height="512" viewBox="0 0 512 512" width="512" xmlns="http://www.w3.org/2000/svg"><g><path d="m459.967 299.606 44.854-30.134c9.572-6.431 9.572-20.513 0-26.944l-44.854-30.134c-6.735-4.525-9.094-13.328-5.523-20.613l23.778-48.524c5.074-10.355-1.967-22.551-13.472-23.334l-53.912-3.67c-8.095-.551-14.539-6.995-15.09-15.09l-3.67-53.912c-.783-11.505-12.979-18.546-23.334-13.472l-48.524 23.778c-7.286 3.57-16.089 1.211-20.613-5.523l-30.135-44.855c-6.431-9.572-20.513-9.572-26.944 0l-30.134 44.854c-4.525 6.735-13.328 9.094-20.613 5.523l-48.524-23.778c-10.355-5.074-22.551 1.967-23.334 13.472l-3.67 53.912c-.551 8.095-6.995 14.539-15.09 15.09l-53.912 3.67c-11.505.783-18.546 12.979-13.472 23.334l23.778 48.524c3.57 7.286 1.211 16.089-5.523 20.613l-44.855 30.135c-9.572 6.431-9.572 20.513 0 26.944l44.854 30.134c6.735 4.525 9.094 13.328 5.523 20.613l-23.778 48.524c-5.074 10.355 1.967 22.551 13.472 23.334l53.912 3.67c8.095.551 14.539 6.995 15.09 15.09l3.67 53.912c.783 11.505 12.979 18.546 23.334 13.472l48.524-23.778c7.286-3.57 16.089-1.211 20.613 5.523l30.134 44.854c6.431 9.572 20.513 9.572 26.944 0l30.134-44.854c4.525-6.735 13.328-9.094 20.613-5.523l48.524 23.778c10.355 5.074 22.551-1.967 23.334-13.472l3.67-53.912c.551-8.095 6.995-14.539 15.09-15.09l53.912-3.67c11.505-.783 18.546-12.979 13.472-23.334l-23.778-48.524c-3.569-7.285-1.21-16.088 5.525-20.613z" fill="#fef48b"/><path d="m85.289 143.257 23.777 48.522c3.575 7.283 1.216 16.091-5.522 20.614l-44.854 30.133c-9.57 6.439-9.57 20.511 0 26.95l44.854 30.133c6.737 4.523 9.097 13.331 5.522 20.614l-23.777 48.522c-5.079 10.353 1.968 22.551 13.475 23.334l53.909 3.667c8.097.556 14.536 6.995 15.092 15.092l3.647 53.59-28.155 13.794c-10.353 5.079-22.551-1.968-23.334-13.475l-3.667-53.909c-.556-8.097-6.995-14.536-15.092-15.092l-53.909-3.667c-11.507-.783-18.554-12.98-13.475-23.334l23.777-48.522c3.575-7.283 1.216-16.091-5.522-20.614l-44.855-30.134c-9.57-6.439-9.57-20.511 0-26.95l44.854-30.133c6.737-4.523 9.097-13.331 5.522-20.614l-23.776-48.521c-5.079-10.353 1.968-22.551 13.475-23.334l53.909-3.667c8.097-.556 14.536-6.995 15.092-15.092l3.667-53.909c.783-11.507 12.98-18.554 23.334-13.475l28.155 13.794-3.647 53.59c-.556 8.097-6.995 14.536-15.092 15.092l-53.909 3.667c-11.508.783-18.554 12.981-13.475 23.334z" fill="#fef056"/><circle cx="256" cy="256" fill="#ffe177" r="144.225"/><path d="m281.755 397.928c-8.355 1.514-16.967 2.297-25.755 2.297-79.654 0-144.225-64.572-144.225-144.225s64.571-144.225 144.225-144.225c8.788 0 17.4.783 25.755 2.297-67.364 12.136-118.471 71.062-118.471 141.928s51.107 129.793 118.471 141.928z" fill="#ffd15b"/></g></svg>