<svg height="512pt" viewBox="0 0 512 512" width="512pt" xmlns="http://www.w3.org/2000/svg"><path d="m512 256c0 68.378906-26.628906 132.671875-74.980469 181.019531-48.328125 48.332031-112.597656 74.960938-180.949219 74.980469h-.070312c-68.378906 0-132.671875-26.628906-181.019531-74.980469-48.351563-48.347656-74.980469-112.640625-74.980469-181.019531s26.628906-132.671875 74.980469-181.019531c48.347656-48.351563 112.640625-74.980469 181.019531-74.980469h.070312c68.351563.0195312 132.621094 26.648438 180.949219 74.980469 48.351563 48.347656 74.980469 112.640625 74.980469 181.019531zm0 0" fill="#6ed945"/><path d="m512 256c0 68.378906-26.628906 132.671875-74.980469 181.019531-48.328125 48.332031-112.597656 74.960938-180.949219 74.980469v-512c68.351563.0195312 132.621094 26.648438 180.949219 74.980469 48.351563 48.347656 74.980469 112.640625 74.980469 181.019531zm0 0" fill="#54c12c"/><path d="m446.480469 256c0 104.769531-85.230469 190-190 190h-.410157c-104.582031-.21875-189.589843-85.371094-189.589843-190s85.007812-189.78125 189.589843-190h.410157c104.769531 0 190 85.230469 190 190zm0 0" fill="#ddebf0"/><path d="m446.480469 256c0 104.769531-85.230469 190-190 190h-.410157v-380h.410157c104.769531 0 190 85.230469 190 190zm0 0" fill="#c4e1e8"/><path d="m271.160156 130.128906v84.140625c0 8.171875-6.539062 14.832031-14.679687 14.992188-.109375.007812-.210938.007812-.320313.007812-8.28125 0-15-6.71875-15-15v-84.140625c0-8.277344 6.71875-15 15-15 .109375 0 .210938 0 .320313.011719 8.140625.160156 14.679687 6.820313 14.679687 14.988281zm0 0" fill="#687b85"/><path d="m271.160156 130.128906v84.140625c0 8.171875-6.539062 14.832031-14.679687 14.992188v-114.121094c8.140625.160156 14.679687 6.820313 14.679687 14.988281zm0 0" fill="#586b75"/><path d="m282.945312 272.992188c3.835938 0 7.675782 1.46875 10.605469 4.394531l33.050781 33.050781c5.855469 5.859375 5.855469 15.355469 0 21.214844-5.859374 5.855468-15.355468 5.855468-21.214843 0l-33.050781-33.050782c-5.855469-5.859374-5.855469-15.355468 0-21.214843 2.929687-2.929688 6.769531-4.394531 10.609374-4.394531zm0 0" fill="#586b75"/><path d="m312.890625 256c0 31.171875-25.28125 56.558594-56.410156 56.730469h-.320313c-31.28125 0-56.730468-25.449219-56.730468-56.730469s25.449218-56.730469 56.730468-56.730469h.320313c31.128906.171875 56.410156 25.558594 56.410156 56.730469zm0 0" fill="#3caafd"/><path d="m312.890625 256c0 31.171875-25.28125 56.558594-56.410156 56.730469v-113.460938c31.128906.171875 56.410156 25.558594 56.410156 56.730469zm0 0" fill="#0083db"/></svg>