<svg id="Capa_1" enable-background="new 0 0 489.733 489.733" height="512" viewBox="0 0 489.733 489.733" width="512" xmlns="http://www.w3.org/2000/svg"><g><g id="icon_29_"><path d="m489.733 119.917v342.813c0 6.657-5.397 12.054-12.054 12.054h-465.625c-6.657 0-12.054-5.397-12.054-12.054v-342.813z" fill="#eeefee"/><path d="m489.733 62.655v76.919h-489.733v-76.919c0-6.657 5.397-12.054 12.054-12.054h465.626c6.656.001 12.053 5.397 12.053 12.054z" fill="#ef5261"/><path d="m418.155 14.949c9.292 0 16.825 7.534 16.825 16.828v37.648c0 9.294-7.533 16.828-16.825 16.828-9.292 0-16.825-7.534-16.825-16.828v-37.647c0-9.295 7.533-16.829 16.825-16.829z" fill="#575b6d"/><path d="m302.627 14.949c9.292 0 16.825 7.534 16.825 16.828v37.648c0 9.294-7.533 16.828-16.825 16.828-9.292 0-16.825-7.534-16.825-16.828v-37.647c0-9.295 7.533-16.829 16.825-16.829z" fill="#575b6d"/><path d="m187.099 14.949c9.292 0 16.825 7.534 16.825 16.828v37.648c0 9.294-7.533 16.828-16.825 16.828-9.292 0-16.825-7.534-16.825-16.828v-37.647c0-9.295 7.533-16.829 16.825-16.829z" fill="#575b6d"/><path d="m71.578 14.949c9.292 0 16.825 7.534 16.825 16.828v37.648c0 9.294-7.533 16.828-16.825 16.828-9.292 0-16.825-7.534-16.825-16.828v-37.647c-.001-9.295 7.532-16.829 16.825-16.829z" fill="#575b6d"/><g fill="#dbd8dd"><path d="m38.909 181.862h37.911c3.246 0 5.877 2.631 5.877 5.877v37.979c0 3.246-2.631 5.877-5.877 5.877h-37.911c-3.246 0-5.877-2.631-5.877-5.877v-37.979c0-3.246 2.632-5.877 5.877-5.877z"/><path d="m132.411 181.862h37.911c3.246 0 5.877 2.631 5.877 5.877v37.979c0 3.246-2.631 5.877-5.877 5.877h-37.911c-3.246 0-5.877-2.631-5.877-5.877v-37.979c.001-3.246 2.632-5.877 5.877-5.877z"/><path d="m225.908 181.862h37.911c3.246 0 5.877 2.631 5.877 5.877v37.979c0 3.246-2.631 5.877-5.877 5.877h-37.911c-3.246 0-5.877-2.631-5.877-5.877v-37.979c0-3.246 2.631-5.877 5.877-5.877z"/><path d="m319.41 181.862h37.911c3.246 0 5.877 2.631 5.877 5.877v37.979c0 3.246-2.631 5.877-5.877 5.877h-37.911c-3.246 0-5.877-2.631-5.877-5.877v-37.979c0-3.246 2.631-5.877 5.877-5.877z"/><path d="m412.906 181.862h37.911c3.246 0 5.877 2.631 5.877 5.877v37.979c0 3.246-2.631 5.877-5.877 5.877h-37.911c-3.246 0-5.877-2.631-5.877-5.877v-37.979c0-3.246 2.631-5.877 5.877-5.877z"/><path d="m38.909 279.809h37.911c3.246 0 5.877 2.631 5.877 5.877v37.979c0 3.246-2.631 5.877-5.877 5.877h-37.911c-3.246 0-5.877-2.631-5.877-5.877v-37.979c0-3.246 2.632-5.877 5.877-5.877z"/><path d="m132.411 279.809h37.911c3.246 0 5.877 2.631 5.877 5.877v37.979c0 3.246-2.631 5.877-5.877 5.877h-37.911c-3.246 0-5.877-2.631-5.877-5.877v-37.979c.001-3.246 2.632-5.877 5.877-5.877z"/><path d="m225.908 279.809h37.911c3.246 0 5.877 2.631 5.877 5.877v37.979c0 3.246-2.631 5.877-5.877 5.877h-37.911c-3.246 0-5.877-2.631-5.877-5.877v-37.979c0-3.246 2.631-5.877 5.877-5.877z"/><path d="m319.41 279.809h37.911c3.246 0 5.877 2.631 5.877 5.877v37.979c0 3.246-2.631 5.877-5.877 5.877h-37.911c-3.246 0-5.877-2.631-5.877-5.877v-37.979c0-3.246 2.631-5.877 5.877-5.877z"/><path d="m412.906 279.809h37.911c3.246 0 5.877 2.631 5.877 5.877v37.979c0 3.246-2.631 5.877-5.877 5.877h-37.911c-3.246 0-5.877-2.631-5.877-5.877v-37.979c0-3.246 2.631-5.877 5.877-5.877z"/><path d="m38.909 377.755h37.911c3.246 0 5.877 2.631 5.877 5.877v37.979c0 3.246-2.631 5.877-5.877 5.877h-37.911c-3.246 0-5.877-2.631-5.877-5.877v-37.979c0-3.246 2.632-5.877 5.877-5.877z"/><path d="m132.411 377.755h37.911c3.246 0 5.877 2.631 5.877 5.877v37.979c0 3.246-2.631 5.877-5.877 5.877h-37.911c-3.246 0-5.877-2.631-5.877-5.877v-37.979c.001-3.246 2.632-5.877 5.877-5.877z"/><path d="m225.908 377.755h37.911c3.246 0 5.877 2.631 5.877 5.877v37.979c0 3.246-2.631 5.877-5.877 5.877h-37.911c-3.246 0-5.877-2.631-5.877-5.877v-37.979c0-3.246 2.631-5.877 5.877-5.877z"/><path d="m319.41 377.755h37.911c3.246 0 5.877 2.631 5.877 5.877v37.979c0 3.246-2.631 5.877-5.877 5.877h-37.911c-3.246 0-5.877-2.631-5.877-5.877v-37.979c0-3.246 2.631-5.877 5.877-5.877z"/><path d="m412.906 377.755h37.911c3.246 0 5.877 2.631 5.877 5.877v37.979c0 3.246-2.631 5.877-5.877 5.877h-37.911c-3.246 0-5.877-2.631-5.877-5.877v-37.979c0-3.246 2.631-5.877 5.877-5.877z"/></g></g></g></svg>