<svg enable-background="new 0 0 24 24" height="512" viewBox="0 0 24 24" width="512" xmlns="http://www.w3.org/2000/svg"><g fill="#2196f3"><path d="m20 5.19v.46l-9.24 4.66c-.47.25-1.05.25-1.52 0l-9.24-4.66v-.46c0-1.21.99-2.19 2.21-2.19h15.58c1.22 0 2.21.98 2.21 2.19z"/><path d="m9.931 8.963.153.008 3.908-1.971h-7.984l3.908 1.971z"/><path d="m21.75 7h-.25v6.81c0 2.035-1.664 3.69-3.71 3.69h-13.79v1.25c0 1.241 1.01 2.25 2.25 2.25h15.5c1.24 0 2.25-1.009 2.25-2.25v-9.5c0-1.241-1.01-2.25-2.25-2.25z"/></g><path d="m20 5.65v8.16c0 1.21-.99 2.19-2.21 2.19h-15.58c-1.22 0-2.21-.98-2.21-2.19v-8.16l9.24 4.66c.47.25 1.05.25 1.52 0z" fill="#64b5f6"/></svg>