<?xml version="1.0" encoding="iso-8859-1"?>
<!-- Generator: Adobe Illustrator 19.0.0, SVG Export Plug-In . SVG Version: 6.00 Build 0)  -->
<svg version="1.1" id="Capa_1" xmlns="http://www.w3.org/2000/svg" xmlns:xlink="http://www.w3.org/1999/xlink" x="0px" y="0px"
	 viewBox="0 0 512 512" style="enable-background:new 0 0 512 512;" xml:space="preserve">
<g>
	<path style="fill:#FFC107;" d="M511.2,240.944c0.448-4.512,0.8-8.864,0.8-13.44c0-90.88-50.56-169.92-125.12-210.56l-129.408,224
		H511.2z"/>
	<path style="fill:#FFC107;" d="M202.048,272.944L337.696,38.096C307.136,24.4,273.888,16.944,240,16.944
		c-132.352,0-240,107.648-240,240s107.648,240,240,240c126.944,0,230.912-99.136,239.2-224H202.048z"/>
</g>
<circle style="fill:#F44336;" cx="400" cy="160.944" r="32"/>
<circle style="fill:#4CAF50;" cx="320" cy="368.944" r="32"/>
<g>
	<circle style="fill:#F44336;" cx="128" cy="336.944" r="32"/>
	<circle style="fill:#F44336;" cx="160" cy="144.944" r="32"/>
</g>
<path style="fill:#FFA000;" d="M447.2,272.944c-8.224,107.232-97.888,192-207.2,192c-114.688,0-208-93.312-208-208
	s93.312-208,208-208c29.024,0,56.64,6.016,81.728,16.8l15.968-27.616L337.792,38C307.872,24.56,274.848,16.944,240,16.944
	c-132.352,0-240,107.648-240,240s107.648,240,240,240c126.944,0,230.912-99.136,239.2-224H447.2z"/>
<circle style="fill:#F44336;" cx="224" cy="384.944" r="16"/>
<g>
	<circle style="fill:#009688;" cx="111.008" cy="224.944" r="16"/>
	<circle style="fill:#009688;" cx="240" cy="96.944" r="16"/>
</g>
<circle style="fill:#F44336;" cx="400" cy="320.944" r="16"/>
<path style="fill:#FFA000;" d="M511.2,240.944c0.352-5.312,0.8-10.592,0.8-16c0-90.24-50.08-168.896-123.872-209.888l-1.248,1.888
	l-14.848,25.728C436.32,78.096,480,146.512,480,224.944c0,5.408-0.416,10.688-0.8,16H511.2z"/>
<g>
</g>
<g>
</g>
<g>
</g>
<g>
</g>
<g>
</g>
<g>
</g>
<g>
</g>
<g>
</g>
<g>
</g>
<g>
</g>
<g>
</g>
<g>
</g>
<g>
</g>
<g>
</g>
<g>
</g>
</svg>
