<svg id="Capa_1" enable-background="new 0 0 512.001 512.001" height="512" viewBox="0 0 512.001 512.001" width="512" xmlns="http://www.w3.org/2000/svg"><g><path d="m405.121 180.631h-360c-8.284 0-15 6.716-15 15v241c0 8.284 6.716 15 15 15h360c8.284 0 15-6.716 15-15v-241c0-8.285-6.716-15-15-15z" fill="#46e8a2"/><path d="m420.12 195.631v241c0 8.28-6.72 15-15 15h-180v-271h180c8.28 0 15 6.72 15 15z" fill="#00c98b"/><path d="m267.767 273.92c-11.158-11.297-26.412-17.795-42.649-17.795-33.084 0-60 26.916-60 60 0 30.295 22.574 55.402 51.781 59.423.455-41.346 20.306-78.116 50.868-101.628z" fill="#00c98b"/><path d="m267.77 273.921c-19.11 14.7-34.04 34.58-42.65 57.53v-75.33c16.23 0 31.49 6.5 42.65 17.8z" fill="#009679"/><path d="m45.12 180.631h75v15c0 41.45-33.55 75-75 75h-15v-75c0-8.28 6.72-15 15-15z" fill="#00c98b"/><path d="m120.12 436.631v15h-75c-8.28 0-15-6.72-15-15v-75h15c41.45 0 75 33.54 75 75z" fill="#00c98b"/><path d="m420.12 195.631v75h-22.35c-41.45 0-75-33.55-75-75v-15h82.35c8.28 0 15 6.72 15 15z" fill="#009679"/><path d="m120.118 301.126h-14c-8.284 0-15 6.716-15 15s6.716 15 15 15h14c8.284 0 15-6.716 15-15s-6.716-15-15-15z" fill="#00c98b"/><path d="m395.426 49.53-27.227 27.714-57.366-56.765c-5.854-5.794-15.287-5.782-21.13.028l-109.492 108.924-124.412-125.011c-5.844-5.873-15.342-5.896-21.213-.051-5.872 5.844-5.895 15.341-.051 21.213l134.991 135.641c5.839 5.868 15.335 5.898 21.211.053l109.574-109.005 46.864 46.374-26.698 27.176c-9.3 9.465-2.575 25.512 10.7 25.512h74.949c8.284 0 15-6.716 15-15v-76.291c0-13.385-16.302-20.08-25.7-10.512z" fill="#f97658"/><path d="m421.13 60.041v76.29c0 8.29-6.72 15-15 15h-74.95c-13.28 0-20-16.04-10.7-25.51l26.69-27.18-46.86-46.37-75.19 74.81v-42.33l64.58-64.24c5.85-5.81 15.28-5.83 21.13-.03l57.37 56.76 27.23-27.71c9.39-9.57 25.7-2.87 25.7 10.51z" fill="#e25c3d"/><circle cx="346.88" cy="377.001" fill="#fbbd43" r="135"/><path d="m481.88 377.001c0 74.44-60.56 135-135 135v-270c74.44 0 135 60.56 135 135z" fill="#f19637"/><circle cx="346.88" cy="377.001" fill="#fedd33" r="105"/><path d="m451.88 377.001c0 57.9-47.1 105-105 105v-210c57.9 0 105 47.1 105 105z" fill="#fbbd43"/><path d="m371.896 368.21c-12.525-9.761-29.142-11.739-32.313-17.463-.761-1.374.11-4.237 2.332-5.731 3.305-2.22 10.911-1.302 13.377.976 6.089 5.614 15.578 5.234 21.196-.856 5.616-6.09 5.233-15.579-.856-21.196-3.982-3.673-8.956-6.373-14.355-8.06-.131-8.171-6.786-14.757-14.988-14.757-8.284 0-15 6.716-15 15v.756c-19.165 7.889-27.622 30.944-17.948 48.407 6.793 12.264 18.495 16.886 27.897 20.599 6.212 2.454 16.619 6.159 15.876 12.801-.348 3.118-2.842 6.355-6.064 7.872-4.975 2.34-15.095.814-21.233-3.202-6.932-4.534-16.229-2.593-20.765 4.341-4.535 6.933-2.592 16.229 4.341 20.765 4.943 3.234 11.177 5.881 17.896 7.482v.254c0 8.284 6.716 15 15 15s15-6.716 15-15v-1.426c27.34-10.485 36.279-46.56 10.607-66.562z" fill="#fbbd43"/><g fill="#f19637"><path d="m361.29 434.771v1.42c0 8.09-6.4 14.68-14.41 14.98v-43.6c1.59-.14 3.02-.48 4.17-1.02 3.22-1.51 5.72-4.75 6.06-7.87.55-4.85-4.86-8.13-10.23-10.5v-32.4c6.79 2.96 16.79 6.02 25.02 12.43 25.67 20 16.73 56.08-10.61 66.56z"/><path d="m355.29 345.991c-1.55-1.44-5.14-2.33-8.41-2.24v-42.61c7.93.3 14.27 6.77 14.4 14.74 5.4 1.68 10.37 4.38 14.35 8.06 6.09 5.61 6.47 15.1.86 21.19-5.62 6.09-15.11 6.47-21.2.86z"/></g></g></svg>