<svg id="color" enable-background="new 0 0 24 24" height="512" viewBox="0 0 24 24" width="512" xmlns="http://www.w3.org/2000/svg"><g fill="#b0bec5"><path d="m3.75 5.5c-.552 0-1-.448-1-1v-3.5c0-.552.448-1 1-1s1 .448 1 1v3.5c0 .552-.448 1-1 1z"/><path d="m8.5 5.5c-.552 0-1-.448-1-1v-3.5c0-.552.448-1 1-1s1 .448 1 1v3.5c0 .552-.448 1-1 1z"/><path d="m13.25 5.5c-.552 0-1-.448-1-1v-3.5c0-.552.448-1 1-1s1 .448 1 1v3.5c0 .552-.448 1-1 1z"/></g><path d="m3.75 0c-.553 0-1 .447-1 1v3.5c0 .553.447 1 1 1z" fill="#99a5ac"/><path d="m8.5 0c-.553 0-1 .447-1 1v3.5c0 .553.447 1 1 1z" fill="#99a5ac"/><path d="m13.25 0c-.553 0-1 .447-1 1v3.5c0 .553.447 1 1 1z" fill="#99a5ac"/><path d="m14.25 2.25h-11.5c-1.52 0-2.75 1.23-2.75 2.75v13.25c0 1.52 1.23 2.75 2.75 2.75h6.59c-.54-1.14-.84-2.41-.84-3.75 0-1.54.4-2.99 1.11-4.25.41-.73.92-1.41 1.52-1.99 1.52-1.5 3.59-2.44 5.87-2.5v-3.51c0-1.52-1.23-2.75-2.75-2.75z" fill="#eceff1"/><path d="m8.5 2.25h-5.75c-1.52 0-2.75 1.23-2.75 2.75v13.25c0 1.52 1.23 2.75 2.75 2.75h5.75z" fill="#cdd0d2"/><path d="m11.13 11.01c-.6.58-1.11 1.26-1.52 1.99h-5.61c-.55 0-1-.45-1-1s.45-1 1-1h7c.04 0 .09 0 .13.01z" fill="#90a4ae"/><path d="m8 9h-4c-.552 0-1-.448-1-1s.448-1 1-1h4c.552 0 1 .448 1 1s-.448 1-1 1z" fill="#90a4ae"/><path d="m17.25 24c-3.722 0-6.75-3.028-6.75-6.75s3.028-6.75 6.75-6.75 6.75 3.028 6.75 6.75-3.028 6.75-6.75 6.75z" fill="#4caf50"/><path d="m20 18.25h-5.5c-.552 0-1-.448-1-1s.448-1 1-1h5.5c.552 0 1 .448 1 1s-.448 1-1 1z" fill="#fff"/><path d="m17.25 10.5c-3.722 0-6.75 3.027-6.75 6.75s3.028 6.75 6.75 6.75v-5.75h-2.75c-.552 0-1-.447-1-1s.448-1 1-1h2.75z" fill="#429846"/><path d="m17.25 16.25h-2.75c-.552 0-1 .447-1 1s.448 1 1 1h2.75z" fill="#dedede"/><path d="m9 8h-6c0 .553.447 1 1 1h4c.553 0 1-.447 1-1z" fill="#7d8f97"/><path d="m10.26 12c-.24.32-.46.65-.65 1h-5.61c-.55 0-1-.45-1-1z" fill="#7d8f97"/><path d="m17.25 10.5c-3.722 0-6.75 3.027-6.75 6.75s3.028 6.75 6.75 6.75v-5.75h-2.75c-.552 0-1-.447-1-1s.448-1 1-1h2.75z" fill="#429846"/><path d="m17.25 16.25h-2.75c-.552 0-1 .447-1 1s.448 1 1 1h2.75z" fill="#dedede"/></svg>