<svg id="Capa_1" enable-background="new 0 0 512 512" height="512" viewBox="0 0 512 512" width="512" xmlns="http://www.w3.org/2000/svg"><g><path d="m288.891 343.292c28.053-54.58-16.777-77.79-16.777-110.486s31.611-40.96 31.611-85.156-31.611-48.532-31.611-83.617-5.242-64.047-51.255-64.033c-46.013-.014-51.254 28.946-51.254 64.032s-31.611 39.421-31.611 83.617 31.611 52.46 31.611 85.156-44.83 55.906-16.777 110.486" fill="#9bd069"/><path d="m363.394 343.292c22.342-43.468-13.362-61.952-13.362-87.992s25.175-32.621 25.175-67.819-25.175-38.651-25.175-66.594-4.174-51.007-40.819-50.996c-36.645-.011-40.819 23.053-40.819 50.996s-25.175 31.395-25.175 66.594 25.175 41.78 25.175 67.819-35.703 44.524-13.362 87.992" fill="#aad880"/><path d="m309.213 358.858c-4.268 0-7.726-3.459-7.726-7.726v-239.624c0-4.267 3.459-7.726 7.726-7.726s7.726 3.459 7.726 7.726v239.624c.001 4.267-3.458 7.726-7.726 7.726z" fill="#8bc852"/><path d="m220.856 358.858c-4.268 0-7.726-3.459-7.726-7.726v-305.142c0-4.267 3.459-7.726 7.726-7.726s7.726 3.459 7.726 7.726v305.141c0 4.268-3.458 7.727-7.726 7.727z" fill="#8bc852"/><g><path d="m394.674 426.765c-1.452 17.708-5.285 41.659-14.947 64.652-5.244 12.486-17.503 20.583-31.049 20.583h-185.355c-13.547 0-25.805-8.097-31.049-20.582-9.663-22.993-13.495-46.944-14.948-64.652-1.339-16.369-.649-27.402-.649-27.402h278.646c0-.001.69 11.032-.649 27.401z" fill="#eab14d"/><path d="m215.706 512h-52.373c-13.547 0-25.805-8.097-31.059-20.582-18.594-44.245-15.596-92.054-15.596-92.054h78.755s-1.308 47.809 6.778 92.054c2.276 12.485 7.613 20.582 13.495 20.582z" fill="#e49542"/><path d="m394.674 426.765c-92.446 2.132-184.902 2.132-277.348 0-1.339-16.369-.649-27.402-.649-27.402l139.323-38.264 139.323 38.264s.69 11.033-.649 27.402z" fill="#e49542"/><path d="m395.983 322.364c-93.322-2.173-186.644-2.173-279.966 0-12.653.295-23.565 9.235-26.1 21.635-2.33 11.4-2.33 22.799 0 34.199 2.535 12.4 13.446 21.341 26.1 21.635 4.963-.7 28.871-3.977 28.871-3.977s32.847 3.575 48.34 5.279c67.585.706 135.17.272 202.755-1.302 12.653-.295 23.565-9.235 26.1-21.635 2.33-11.4 2.33-22.799 0-34.199-2.535-12.4-13.447-21.34-26.1-21.635z" fill="#eab14d"/><path d="m194.885 401.155c-26.289-.268-52.579-.7-78.868-1.319-12.65-.299-23.56-9.241-26.094-21.633-2.338-11.404-2.338-22.808 0-34.201 2.534-12.403 13.443-21.345 26.094-21.643 26.259-.608 52.527-1.04 78.796-1.308-11.641 1.731-21.252 10.497-23.652 22.241-2.431 11.867-2.431 23.745 0 35.623 2.4 11.774 12.053 20.551 23.724 22.24z" fill="#e49542"/></g></g></svg>