<svg height="512" viewBox="0 0 48 48" width="512" xmlns="http://www.w3.org/2000/svg"><g id="papers"><path d="m37 43h4v-42h-30v4z" fill="#dad7e5"/><path d="m41 1c0 41.23-.1 40 0 40a2 2 0 0 1 -2-2v-26.83l-9.17-9.17h-14.83a2 2 0 0 1 -2-2z" fill="#edebf2"/><path d="m37 13v34h-30v-42h22z" fill="#dad7e5"/><path d="m37 13v32h-22a6 6 0 0 1 -6-6v-34h20z" fill="#edebf2"/><g fill="#c6c3d8"><path d="m37 13h-8v-8z"/><path d="m32 24h-20a1 1 0 0 1 0-2h20a1 1 0 0 1 0 2z"/><path d="m32 19h-20a1 1 0 0 1 0-2h20a1 1 0 0 1 0 2z"/><path d="m32 29h-20a1 1 0 0 1 0-2h20a1 1 0 0 1 0 2z"/><path d="m32 34h-20a1 1 0 0 1 0-2h20a1 1 0 0 1 0 2z"/><path d="m22 39h-10a1 1 0 0 1 0-2h10a1 1 0 0 1 0 2z"/></g></g></svg>