<svg height="512" viewBox="0 0 58 54" width="512" xmlns="http://www.w3.org/2000/svg"><g id="Page-1" fill="none" fill-rule="evenodd"><g id="030---Message"><path id="Path" d="m58 8v28c0 4.418278-3.581722 8-8 8h-14l-5.31 8.35c-.3696438.5750858-1.0063625.9227307-1.69.9227307s-1.3203562-.3476449-1.69-.9227307l-5.31-8.35h-14c-4.418278 0-8-3.581722-8-8v-28c0-4.418278 3.581722-8 8-8h42c4.418278 0 8 3.581722 8 8z" fill="#b0d3f0"/><path id="Path" d="m4 9c-.55228475 0-1-.44771525-1-1 .00330612-2.76005315 2.23994685-4.99669388 5-5 .55228475 0 1 .44771525 1 1s-.44771525 1-1 1c-1.65685425 0-3 1.34314575-3 3 0 .55228475-.44771525 1-1 1z" fill="#ecf0f1"/><path id="Path" d="m50 41c-.5522847 0-1-.4477153-1-1s.4477153-1 1-1c1.6568542 0 3-1.3431458 3-3 0-.5522847.4477153-1 1-1s1 .4477153 1 1c-.0033061 2.7600532-2.2399468 4.9966939-5 5z" fill="#90bae1"/><path id="Path" d="m47.04 9.8-14.6 12.2-1.58 1.32c-1.0730816.9098986-2.6469184.9098986-3.72 0l-1.58-1.32-14.6-12.2c.5551219-.51384288 1.2835645-.79950665 2.04-.8h32c.7564355.00049335 1.4848781.28615712 2.04.8z" fill="#f3d55b"/><path id="Path" d="m25.56 22-14.6 12.2c-.6122139-.5677831-.96010121-1.3650249-.96-2.2v-20c-.00010121-.8349751.3477861-1.6322169.96-2.2z" fill="#f0c419"/><path id="Path" d="m48 12v20c.0001012.8349751-.3477861 1.6322169-.96 2.2l-14.6-12.2 14.6-12.2c.6122139.5677831.9601012 1.3650249.96 2.2z" fill="#f0c419"/><path id="Path" d="m47.04 34.2c-.5551219.5138429-1.2835645.7995066-2.04.8h-32c-.7564355-.0004934-1.4848781-.2861571-2.04-.8l14.6-12.2 1.58 1.32c1.0730816.9098986 2.6469184.9098986 3.72 0l1.58-1.32z" fill="#f29c1f"/></g></g></svg>