<svg height="512" viewBox="0 0 512 512" width="512" xmlns="http://www.w3.org/2000/svg"><g id="Flat"><path d="m439.26 329.85a72 72 0 1 0 16.74 46.15 71.827 71.827 0 0 0 -16.74-46.15zm-55.26 86.15a39.987 39.987 0 1 1 40-40 40 40 0 0 1 -40 40z" fill="#e065a2"/><path d="m456 376a72.009 72.009 0 0 1 -139.84 24.16q14.82-5.9 29.49-12.78a40 40 0 1 0 67.68-38.56q13.185-8.955 25.93-18.97a71.7 71.7 0 0 1 16.74 46.15z" fill="#d95d9a"/><path d="m192 256a72 72 0 1 0 72 72 72 72 0 0 0 -72-72zm0 112a40 40 0 1 1 40-40 40 40 0 0 1 -40 40z" fill="#d34c88"/><path d="m42.492 313.336a12.78 12.78 0 0 1 5.75 16.653 34.681 34.681 0 0 0 31.758 49.74c.159 0 .317-.006.475-.01a12.594 12.594 0 0 1 12.873 12.871q-.015.5-.015 1.008a34.694 34.694 0 0 0 42.882 33.689 121.747 121.747 0 0 1 43.841-2.047l24.211 3.027-3.027-24.211a121.792 121.792 0 0 1 2.048-43.845 34.694 34.694 0 0 0 -33.688-42.878c-.337 0-.674 0-1.009.015a12.6 12.6 0 0 1 -12.872-12.872c0-.158.008-.317.01-.477a34.68 34.68 0 0 0 -49.739-31.757 12.78 12.78 0 0 1 -16.654-5.75 34.672 34.672 0 1 0 -46.844 46.844z" fill="#9bbc50"/><path d="m237.657 450.343-69.657-69.657v-44.686h-16v28.686l-24-24v-44.686h-16v28.686l-33.81-33.81-11.314 11.314 33.81 33.81h-28.686v16h44.686l24 24h-28.686v16h44.686l69.657 69.657z" fill="#aac962"/><path d="m488 376a111.986 111.986 0 0 1 -112 112h-240a112 112 0 0 1 -112-112z" fill="#e0e0de"/><path d="m488 376a111.986 111.986 0 0 1 -112 112h-56a111.986 111.986 0 0 0 112-112z" fill="#d9d9d7"/><path d="m65.6 428.755a88.143 88.143 0 0 1 -10.247-17.545l14.656-6.42a72.183 72.183 0 0 0 8.391 14.356z" fill="#ebebe9"/><path d="m136 464a87.832 87.832 0 0 1 -58.466-22.277l10.641-11.95a71.839 71.839 0 0 0 47.825 18.227z" fill="#ebebe9"/><path d="m487.915 128.208a34.672 34.672 0 0 0 -65.251-13.716 12.78 12.78 0 0 1 -16.654 5.75 34.68 34.68 0 0 0 -49.739 31.758c0 .16.006.319.01.477a12.6 12.6 0 0 1 -12.872 12.872c-.335-.01-.672-.015-1.009-.015a34.694 34.694 0 0 0 -33.688 42.878 121.792 121.792 0 0 1 2.048 43.845l-3.027 24.211 24.211-3.027a121.747 121.747 0 0 1 43.841 2.047 34.694 34.694 0 0 0 42.882-33.688q0-.506-.015-1.008a12.594 12.594 0 0 1 12.871-12.871c.158 0 .316.008.475.01a34.681 34.681 0 0 0 31.76-49.74 12.78 12.78 0 0 1 5.75-16.653 34.664 34.664 0 0 0 18.407-33.13z" fill="#8fb045"/><path d="m32.448 129.326a34.631 34.631 0 0 0 36.471 55.74 12.8 12.8 0 0 1 15.856 7.695 34.451 34.451 0 0 0 8.232 13.07 34.846 34.846 0 0 0 49.444-.377c.111-.114.221-.228.33-.344a12.629 12.629 0 0 1 18.219 0q.345.365.7.722a34.758 34.758 0 0 0 54.186-6.486 121.673 121.673 0 0 1 29.58-32.394l19.28-14.952-19.276-14.953a121.637 121.637 0 0 1 -29.578-32.391 34.76 34.76 0 0 0 -54.19-6.488q-.357.357-.7.722a12.627 12.627 0 0 1 -18.217 0q-.164-.172-.329-.343a34.847 34.847 0 0 0 -49.446-.378 34.451 34.451 0 0 0 -8.232 13.07 12.8 12.8 0 0 1 -15.856 7.695 34.751 34.751 0 0 0 -36.474 10.392z" fill="#9bbc50"/><g fill="#ffb531"><rect height="32" rx="8" width="32" x="456" y="256"/><rect height="32" rx="8" width="32" x="88" y="24"/><rect height="33.941" rx="8" transform="matrix(.707 -.707 .707 .707 56.873 281.304)" width="33.941" x="351.029" y="55.029"/><rect height="33.941" rx="8" transform="matrix(.707 -.707 .707 .707 -121.706 112.804)" width="33.941" x="58.343" y="186.343"/><rect height="33.941" rx="8" transform="matrix(.707 -.707 .707 .707 -205.117 359.431)" width="33.941" x="314.343" y="410.343"/></g><path d="m259.999 195.029h16.001v33.941h-16.001z" fill="#fedb6d" transform="matrix(.707 -.707 .707 .707 -71.411 251.598)"/><path d="m283.444 92.999h31.113v16.001h-31.113z" fill="#fedb6d" transform="matrix(.707 -.707 .707 .707 16.157 241.007)"/><path d="m435.444 44.999h31.113v16.001h-31.113z" fill="#fedb6d" transform="matrix(.707 -.707 .707 .707 94.618 334.428)"/><path d="m195.999 43.029h16.001v33.941h-16.001z" fill="#fedb6d" transform="matrix(.707 -.707 .707 .707 17.324 161.823)"/><path d="m179.999 411.029h16.001v33.941h-16.001z" fill="#fedb6d" transform="matrix(.707 -.707 .707 .707 -247.578 258.294)"/><path d="m304 144h-98.603l-31.627-31.545-11.299 11.328 20.27 20.217h-33.96l-31.628-31.545-11.299 11.328 20.271 20.217h-47.836v16h47.836l-20.271 20.217 11.299 11.328 31.628-31.545h33.96l-20.27 20.217 11.299 11.328 31.627-31.545h98.603z" fill="#aac962"/><path d="m445.124 150.19-11.314-11.314-33.81 33.81v-28.686h-16v44.686l-24 24v-28.686h-16v44.686l-61.657 61.657 11.314 11.314 61.657-61.657h44.686v-16h-28.686l24-24h44.686v-16h-28.686z" fill="#9bbc50"/></g></svg>