<svg id="Flat" height="512" viewBox="0 0 512 512" width="512" xmlns="http://www.w3.org/2000/svg"><path d="m328 216h128a0 0 0 0 1 0 0v240a32 32 0 0 1 -32 32h-64a32 32 0 0 1 -32-32v-240a0 0 0 0 1 0 0z" fill="#dcdee0"/><path d="m328 216h128a0 0 0 0 1 0 0v240a32 32 0 0 1 -32 32h-64a32 32 0 0 1 -32-32v-240a0 0 0 0 1 0 0z" fill="#dcdee0"/><path d="m328 280h128v176h-128z" fill="#f7e8d2"/><g fill="#6ed2f0"><path d="m80 72h176l24 96h-224z"/><path d="m56 168h224v320h-224z"/><path d="m256 72v-48h-176v48l-24 96v320h224v-320z"/></g><path d="m80 72h176l24 96h-224z" fill="#ded0bc"/><path d="m56 168h224v320h-224z" fill="#f7e8d2"/><circle cx="168" cy="120" fill="#3cb4d7" r="16"/><path d="m104 264h128v80h-128z" fill="#6ed2f0"/><path d="m232 384h-96a8 8 0 0 1 0-16h96a8 8 0 0 1 0 16z" fill="#3cb4d7"/><path d="m232 416h-128a8 8 0 0 1 0-16h128a8 8 0 0 1 0 16z" fill="#3cb4d7"/><circle cx="104" cy="376" fill="#3cb4d7" r="8"/></svg>