<svg height="512pt" viewBox="0 -30 512 512" width="512pt" xmlns="http://www.w3.org/2000/svg"><path d="m494.34375 308.828125c6.054688 8.039063 9.648438 18.027344 9.648438 28.839844 0 14.683593-6.625 27.84375-17.046876 36.664062 6.285157 8.117188 10.039063 18.304688 10.039063 29.347657 0 26.484374-21.539063 48.023437-48.023437 48.023437h-236.402344l-79.433594-34.230469-1.980469-123.558594-1.875-116.289062 105.601563-90.882812c11.371094-9.800782 17.894531-24.023438 17.894531-39.039063v-26.644531c0-11.609375 9.449219-21.058594 21.0625-21.058594 45.839844 0 83.125 37.296875 83.125 83.128906v15.753906c0 5.925782-.828125 11.820313-2.480469 17.507813l-11.929687 41.226563h113.425781c26.484375 0 48.023438 21.539062 48.023438 48.015624 0 10.820313-3.59375 20.808594-9.648438 28.847657 10.769531 8.808593 17.65625 22.199219 17.65625 37.175781 0 8.027344-1.980469 15.601562-5.476562 22.257812-3.03125 5.757813-7.183594 10.832032-12.179688 14.914063zm0 0" fill="#ffdba9"/><path d="m486.945312 374.332031c6.285157 8.117188 10.039063 18.304688 10.039063 29.347657 0 26.484374-21.539063 48.023437-48.023437 48.023437h-236.402344l-79.433594-34.230469-1.980469-123.558594h375.378907c-3.03125 5.757813-7.183594 10.832032-12.179688 14.914063 6.054688 8.039063 9.648438 18.027344 9.648438 28.839844 0 14.683593-6.625 27.84375-17.046876 36.664062zm0 0" fill="#ffc473"/><path d="m0 148.507812h148.140625v294.167969h-148.140625zm0 0" fill="#60dd4e"/><path d="m0 293.914062h148.140625v148.761719h-148.140625zm0 0" fill="#00bb64"/><path d="m61.058594 367.484375h30.027344v30.027344h-30.027344zm0 0" fill="#ffb74f"/></svg>