<?xml version="1.0" encoding="iso-8859-1"?>
<!-- Generator: Adobe Illustrator 19.0.0, SVG Export Plug-In . SVG Version: 6.00 Build 0)  -->
<svg version="1.1" id="Capa_1" xmlns="http://www.w3.org/2000/svg" xmlns:xlink="http://www.w3.org/1999/xlink" x="0px" y="0px"
	 viewBox="0 0 512 512" style="enable-background:new 0 0 512 512;" xml:space="preserve">
<path style="fill:#11A892;" d="M414.796,114.31c-8.506,65.596-29.221,105.494-61.563,118.563l-96.248,34.955l-17.762-17.132
	l-28.58-27.569c-0.32-1.111-7.856-27.599-4.173-59.302c5.054-43.541,28.41-75.963,67.568-93.756
	c81.617-37.106,119.274-56.23,122.126-57.691L417.118,0l1.351,24.677C418.559,26.439,420.751,68.378,414.796,114.31z"/>
<path style="fill:#0F9887;" d="M414.796,114.31c-8.506,65.596-29.221,105.494-61.563,118.563l-96.248,34.955l-17.762-17.132
	L417.118,0l1.351,24.677C418.559,26.439,420.751,68.378,414.796,114.31z"/>
<g>
	<path style="fill:#D261E8;" d="M271.516,297.99c-9.547,51.786-54.909,88.122-105.784,88.122h-0.05
		c-6.425,0-12.949-0.59-19.494-1.801c-28.27-5.204-52.817-21.115-69.119-44.781c-16.301-23.677-22.416-52.277-17.202-80.547
		c9.537-51.796,54.919-88.122,105.814-88.112c6.435,0,12.959,0.58,19.514,1.791C243.546,183.419,282.263,239.638,271.516,297.99z"/>
	<path style="fill:#D261E8;" d="M452.153,331.283c-9.537,51.786-54.899,88.112-105.774,88.112h-0.05
		c-6.435,0-12.949-0.58-19.504-1.791c-58.351-10.748-97.068-66.977-86.321-125.328c9.547-51.806,54.929-88.132,105.824-88.112
		c6.435,0,12.949,0.58,19.504,1.791C424.183,216.712,462.91,272.932,452.153,331.283z"/>
</g>
<g>
	<path style="fill:#BF4CD9;" d="M452.153,331.283c-9.537,51.786-54.899,88.112-105.774,88.112h-0.05V204.164
		c6.435,0,12.949,0.58,19.504,1.791C424.183,216.712,462.91,272.932,452.153,331.283z"/>
	<path style="fill:#BF4CD9;" d="M271.516,297.99c-9.547,51.786-54.909,88.122-105.784,88.122h-0.05V170.87
		c6.435,0,12.959,0.58,19.514,1.791C243.546,183.419,282.263,239.638,271.516,297.99z"/>
</g>
<path style="fill:#D261E8;" d="M324.173,404.394c0,58.011-46.152,105.454-103.663,107.526c-1.311,0.06-2.622,0.08-3.943,0.08
	c-59.332,0-107.606-48.274-107.606-107.606s48.274-107.606,107.606-107.606c1.321,0,2.632,0.02,3.943,0.08
	C278.02,298.94,324.173,346.384,324.173,404.394z"/>
<path style="fill:#BF4CD9;" d="M324.173,404.394c0,58.011-46.152,105.454-103.663,107.526V296.869
	C278.02,298.94,324.173,346.384,324.173,404.394z"/>
<g>
	<rect x="182.768" y="451.958" style="fill:#681F7B;" width="30.021" height="30.021"/>
	<rect x="379.457" y="337.617" style="fill:#681F7B;" width="30.021" height="30.021"/>
	<rect x="91.374" y="299.491" style="fill:#681F7B;" width="30.021" height="30.021"/>
</g>
<g>
</g>
<g>
</g>
<g>
</g>
<g>
</g>
<g>
</g>
<g>
</g>
<g>
</g>
<g>
</g>
<g>
</g>
<g>
</g>
<g>
</g>
<g>
</g>
<g>
</g>
<g>
</g>
<g>
</g>
</svg>
