<svg id="Capa_1" enable-background="new 0 0 512 512" height="512" viewBox="0 0 512 512" width="512" xmlns="http://www.w3.org/2000/svg"><g><g><path d="m414.805 458.211h-403.914c-6.015 0-10.891-4.875-10.891-10.89v-260.879c0-6.015 4.876-10.891 10.891-10.891h51.006l144.815 80.448 160.277-80.448h47.816c6.015 0 10.891 4.876 10.891 10.891v260.879c0 6.015-4.876 10.89-10.891 10.89z" fill="#fee45a"/><path d="m425.7 186.441v260.876c0 6.016-4.874 10.89-10.89 10.89h-20.567c6.016 0 10.89-4.874 10.89-10.89v-260.876c0-6.016-4.874-10.89-10.89-10.89h20.567c6.015 0 10.89 4.874 10.89 10.89z" fill="#fed402"/><path d="m15.056 458.211 192.69-152.333c2.991-2.364 7.214-2.364 10.204 0l192.69 152.333z" fill="#fed402"/><path d="m410.644 458.207h-34.45l-180.571-142.747 12.124-9.584c2.993-2.365 7.209-2.365 10.201 0z" fill="#fac600"/><path d="m15.056 175.551 192.69 203.749c2.991 2.477 7.214 2.477 10.204 0l192.69-203.749z" fill="#fef0ae"/><path d="m410.635 175.551-192.685 203.745c-2.993 2.478-7.219 2.478-10.201 0l-8.803-9.299 183.892-194.447h27.797z" fill="#fee97d"/></g><circle cx="420.233" cy="145.553" fill="#f9f3f1" r="91.764"/><path d="m512 145.554c0 50.678-41.083 91.761-91.771 91.761-23.704 0-45.31-8.988-61.589-23.735 13.143 7.26 28.239 11.394 44.312 11.394 50.678 0 91.761-41.083 91.761-91.761 0-26.974-11.641-51.233-30.162-68.016 28.291 15.621 47.449 45.752 47.449 80.357z" fill="#efe2dd"/><path d="m463.561 128.321h-19.926c-3.408 0-6.17-2.762-6.17-6.17v-19.926c0-9.658-7.904-17.861-17.56-17.68-9.365.175-16.902 7.821-16.902 17.228v20.378c0 3.408-2.762 6.17-6.17 6.17h-19.926c-9.658 0-17.861 7.904-17.68 17.56.175 9.365 7.821 16.902 17.228 16.902h20.378c3.408 0 6.17 2.762 6.17 6.17v19.926c0 9.658 7.904 17.861 17.56 17.68 9.365-.175 16.902-7.821 16.902-17.228v-20.378c0-3.408 2.762-6.17 6.17-6.17h20.378c9.407 0 17.053-7.538 17.228-16.902.18-9.656-8.022-17.56-17.68-17.56z" fill="#fd9468"/><g fill="#fe7d43"><path d="m426.913 162.789h16.721c-3.404 0-6.17 2.756-6.17 6.17v20.372c0 9.41-7.538 17.05-16.906 17.225-3.116.062-6.047-.751-8.587-2.211 5.234-2.952 8.772-8.566 8.772-15.014v-20.372c0-3.414 2.766-6.17 6.17-6.17z"/><path d="m443.634 128.318h-16.721c-3.404 0-6.17-2.756-6.17-6.17v-19.919c0-6.551-3.63-12.423-8.967-15.467 2.406-1.368 5.173-2.16 8.124-2.221 9.656-.175 17.564 8.021 17.564 17.688v19.919c0 3.414 2.766 6.17 6.17 6.17z"/><path d="m481.242 145.883c-.175 9.369-7.826 16.906-17.225 16.906h-16.721c9.409 0 17.05-7.538 17.225-16.906.185-9.656-8.021-17.564-17.678-17.564h16.721c9.656-.001 17.852 7.907 17.678 17.564z"/></g></g></svg>