<?xml version="1.0" encoding="iso-8859-1"?>
<!-- Generator: Adobe Illustrator 19.0.0, SVG Export Plug-In . SVG Version: 6.00 Build 0)  -->
<svg version="1.1" id="Capa_1" xmlns="http://www.w3.org/2000/svg" xmlns:xlink="http://www.w3.org/1999/xlink" x="0px" y="0px"
	 viewBox="0 0 512 512" style="enable-background:new 0 0 512 512;" xml:space="preserve">
<path style="fill:#64B5F6;" d="M506.155,125.483c-3.579-14.796-8.772-29.155-15.488-42.816L480,61.59
	C471.021,43.417,452.483,31.938,432.213,32h-117.76c-20.257-0.079-38.794,11.374-47.787,29.525l-19.2,38.016
	c-5.363,10.891-16.447,17.789-28.587,17.792c-5.891,0-10.667,4.776-10.667,10.667c0,5.891,4.776,10.667,10.667,10.667h276.907
	c5.891,0.001,10.668-4.773,10.669-10.664C506.456,127.154,506.355,126.308,506.155,125.483z"/>
<path style="fill:#BBDEFB;" d="M506.155,125.44c-1.176-4.759-5.445-8.103-10.347-8.107H74.667C33.429,117.334,0,150.763,0,192
	v213.333C0,446.571,33.429,480,74.667,480h362.667C478.571,480,512,446.571,512,405.334V173.227
	C511.983,157.121,510.021,141.076,506.155,125.44z"/>
<path style="fill:#FAFAFA;" d="M330.667,245.334c-1.941,0-3.883,0-5.781,0.277c-29.121-44.094-88.474-56.233-132.568-27.112
	c-24.062,15.891-39.673,41.786-42.493,70.483c-28.913,5.624-47.793,33.623-42.168,62.536c4.874,25.056,26.818,43.146,52.344,43.149
	h170.667c41.237,0,74.667-33.429,74.667-74.667S371.904,245.334,330.667,245.334z"/>
<g>
</g>
<g>
</g>
<g>
</g>
<g>
</g>
<g>
</g>
<g>
</g>
<g>
</g>
<g>
</g>
<g>
</g>
<g>
</g>
<g>
</g>
<g>
</g>
<g>
</g>
<g>
</g>
<g>
</g>
</svg>
