<?xml version="1.0" encoding="iso-8859-1"?>
<!-- Generator: Adobe Illustrator 19.0.0, SVG Export Plug-In . SVG Version: 6.00 Build 0)  -->
<svg xmlns="http://www.w3.org/2000/svg" xmlns:xlink="http://www.w3.org/1999/xlink" version="1.1" id="Layer_1" x="0px" y="0px" viewBox="0 0 512.001 512.001" style="enable-background:new 0 0 512.001 512.001;" xml:space="preserve">
<path style="fill:#91E0FF;" d="M256,512.001c-102.075,0-185.119-83.044-185.119-185.119c0-133.093,94.432-261.51,176.014-323.802  c5.376-4.106,12.834-4.106,18.21,0c63.708,48.645,176.014,175.53,176.014,323.802C441.119,428.957,358.075,512.001,256,512.001z"/>
<g>
	<path style="fill:#61CEF3;" d="M265.105,3.081c-2.688-2.053-5.896-3.08-9.105-3.08v512c102.075,0,185.119-83.044,185.119-185.119   C441.119,178.611,328.813,51.726,265.105,3.081z"/>
	<path style="fill:#61CEF3;" d="M280.482,261.001H193.76c-8.284,0-15-6.716-15-15s6.716-15,15-15h86.722c8.284,0,15,6.716,15,15   S288.766,261.001,280.482,261.001z"/>
	<path style="fill:#61CEF3;" d="M316,311.001H156c-8.284,0-15-6.716-15-15s6.716-15,15-15h160c13.785,0,25-11.215,25-25   s-11.215-25-25-25c-8.284,0-15-6.716-15-15s6.716-15,15-15c30.327,0,55,24.673,55,55S346.327,311.001,316,311.001z"/>
	<path style="fill:#61CEF3;" d="M278.241,441.001c-8.284,0-15-6.716-15-15s6.716-15,15-15c13.785,0,25-11.215,25-25   s-11.215-25-25-25H193.76c-8.284,0-15-6.716-15-15s6.716-15,15-15h84.481c30.327,0,55,24.673,55,55   S308.568,441.001,278.241,441.001z"/>
</g>
<g>
	<path style="fill:#23A3E1;" d="M280.482,231.001H256v30h24.481c8.284,0,15-6.716,15-15S288.766,231.001,280.482,231.001z"/>
	<path style="fill:#23A3E1;" d="M316,201.001c-8.284,0-15,6.716-15,15s6.716,15,15,15c13.785,0,25,11.215,25,25s-11.215,25-25,25   h-60v30h60c30.327,0,55-24.673,55-55S346.327,201.001,316,201.001z"/>
	<path style="fill:#23A3E1;" d="M278.241,331.001H256v30h22.241c13.785,0,25,11.215,25,25s-11.215,25-25,25c-8.284,0-15,6.716-15,15   s6.716,15,15,15c30.327,0,55-24.673,55-55S308.568,331.001,278.241,331.001z"/>
</g>
<g>
</g>
<g>
</g>
<g>
</g>
<g>
</g>
<g>
</g>
<g>
</g>
<g>
</g>
<g>
</g>
<g>
</g>
<g>
</g>
<g>
</g>
<g>
</g>
<g>
</g>
<g>
</g>
<g>
</g>
</svg>
