<svg height="512pt" viewBox="-18 0 512 512" width="512pt" xmlns="http://www.w3.org/2000/svg"><path d="m293.019531 457.199219c-3.125 0-6.054687-1.9375-7.167969-5.046875-1.414062-3.957032.640626-8.316406 4.601563-9.730469 44.191406-15.828125 104.09375-54.136719 138.019531-82.144531 27.03125-22.3125 38.53125-56.953125 30.011719-90.394532-3.78125-14.847656-17.511719-25.21875-33.390625-25.21875h-50.292969c-4.203125 0-7.613281-3.40625-7.613281-7.609374 0-4.203126 3.410156-7.609376 7.613281-7.609376h50.292969c22.84375 0 42.640625 15.082032 48.144531 36.683594 4.867188 19.109375 4.160157 39.105469-2.042969 57.832032-6.203124 18.722656-17.625 35.339843-33.03125 48.058593-34.921874 28.828125-96.761718 68.320313-142.578124 84.730469-.851563.304688-1.714844.449219-2.566407.449219zm0 0" fill="#e6e6f2"/><path d="m356.210938 193.519531h-330.367188c-13.808594 0-25.160156 10.902344-25.671875 24.699219-1.707031 45.878906 7.648437 150.210938 106.535156 266.402344h168.636719c98.886719-116.191406 108.242188-220.523438 106.535156-266.402344-.511718-13.796875-11.863281-24.699219-25.667968-24.699219zm0 0" fill="#e6e6f2"/><path d="m381.878906 218.21875c-.511718-13.796875-11.863281-24.699219-25.667968-24.699219h-32.167969s28.960937 134.820313-104.042969 291.101563h55.34375c98.886719-116.191406 108.242188-220.523438 106.535156-266.402344zm0 0" fill="#c7c7dc"/><path d="m332.78125 512h-283.511719c-17.003906 0-30.792969-13.785156-30.792969-30.792969 0-4.480469 3.632813-8.113281 8.113282-8.113281h328.871094c4.480468 0 8.113281 3.632812 8.113281 8.113281 0 17.007813-13.785157 30.792969-30.792969 30.792969zm0 0" fill="#eaa94c"/><path d="m355.460938 473.09375h-47.230469v38.90625h24.550781c17.007812 0 30.792969-13.785156 30.792969-30.792969 0-4.480469-3.632813-8.113281-8.113281-8.113281zm0 0" fill="#c78022"/><g fill="#e6e6f2"><path d="m181.601562 98.988281c-4.203124 0-7.609374-3.40625-7.609374-7.609375 0-9.894531 4.738281-15.179687 8.199218-19.042968 2.777344-3.101563 4.3125-4.8125 4.3125-8.882813 0-4.066406-1.535156-5.777344-4.316406-8.882813-3.457031-3.859374-8.195312-9.148437-8.195312-19.039062s4.738281-15.179688 8.199218-19.039062c2.777344-3.101563 4.3125-4.8125 4.3125-8.882813 0-4.203125 3.40625-7.609375 7.609375-7.609375s7.609375 3.40625 7.609375 7.609375c0 9.894531-4.738281 15.179687-8.199218 19.042969-2.78125 3.101562-4.308594 4.8125-4.308594 8.878906 0 4.070312 1.53125 5.777344 4.308594 8.882812 3.460937 3.859376 8.199218 9.148438 8.199218 19.039063 0 9.894531-4.738281 15.179687-8.195312 19.042969-2.78125 3.105468-4.3125 4.8125-4.3125 8.882812 0 4.203125-3.410156 7.609375-7.613282 7.609375zm0 0"/><path d="m278.042969 140.871094c-4.203125 0-7.609375-3.40625-7.609375-7.609375 0-9.890625 4.738281-15.179688 8.195312-19.039063 2.78125-3.105468 4.3125-4.816406 4.3125-8.882812 0-4.070313-1.53125-5.78125-4.308594-8.882813-3.460937-3.863281-8.199218-9.148437-8.199218-19.042969 0-9.890624 4.738281-15.179687 8.199218-19.039062 2.777344-3.101562 4.308594-4.8125 4.308594-8.882812 0-4.203126 3.410156-7.609376 7.613282-7.609376 4.207031 0 7.613281 3.40625 7.613281 7.609376 0 9.894531-4.742188 15.179687-8.199219 19.042968-2.78125 3.101563-4.3125 4.8125-4.3125 8.878906 0 4.070313 1.53125 5.777344 4.3125 8.882813 3.460938 3.859375 8.199219 9.148437 8.199219 19.042969 0 9.890625-4.738281 15.179687-8.199219 19.039062-2.78125 3.105469-4.3125 4.8125-4.3125 8.882813-.003906 4.203125-3.410156 7.609375-7.613281 7.609375zm0 0"/><path d="m85.160156 140.871094c-4.203125 0-7.609375-3.40625-7.609375-7.609375 0-9.890625 4.738281-15.179688 8.199219-19.039063 2.777344-3.105468 4.3125-4.816406 4.3125-8.882812 0-4.070313-1.535156-5.78125-4.3125-8.882813-3.460938-3.863281-8.199219-9.148437-8.199219-19.042969 0-9.890624 4.738281-15.179687 8.199219-19.039062 2.777344-3.101562 4.3125-4.8125 4.3125-8.882812 0-4.203126 3.40625-7.609376 7.609375-7.609376s7.609375 3.40625 7.609375 7.609376c0 9.894531-4.738281 15.179687-8.195312 19.042968-2.78125 3.101563-4.3125 4.8125-4.3125 8.878906 0 4.070313 1.53125 5.777344 4.3125 8.882813 3.460937 3.859375 8.195312 9.148437 8.195312 19.042969 0 9.890625-4.734375 15.179687-8.195312 19.039062-2.78125 3.105469-4.3125 4.8125-4.3125 8.882813 0 4.203125-3.40625 7.609375-7.613282 7.609375zm0 0"/></g><path d="m97.671875 280.609375c4.207031 0 7.613281-3.40625 7.613281-7.609375v-79.480469h-15.222656v79.480469c0 4.203125 3.40625 7.609375 7.609375 7.609375zm0 0" fill="#e58c0c"/><path d="m110.527344 213.828125h-21.59375c-2.628906 0-5.164063.988281-7.101563 2.761719l-12.621093 11.550781c-2.175782 1.992187-3.414063 4.808594-3.414063 7.757813v51.753906c0 5.808594 4.707031 10.519531 10.519531 10.519531h46.832032c5.808593 0 10.519531-4.710937 10.519531-10.519531v-51.753906c0-2.949219-1.238281-5.765626-3.417969-7.757813l-12.617188-11.550781c-1.941406-1.777344-4.476562-2.761719-7.105468-2.761719zm0 0" fill="#76c0cf"/></svg>