<?xml version="1.0" encoding="iso-8859-1"?>
<!-- Generator: Adobe Illustrator 19.0.0, SVG Export Plug-In . SVG Version: 6.00 Build 0)  -->
<svg xmlns="http://www.w3.org/2000/svg" xmlns:xlink="http://www.w3.org/1999/xlink" version="1.1" id="Layer_1" x="0px" y="0px" viewBox="0 0 512.001 512.001" style="enable-background:new 0 0 512.001 512.001;" xml:space="preserve">
<path style="fill:#7CCC92;" d="M265.351,2.783c-2.894-1.892-6.123-2.783-9.351-2.783c-3.228,0-6.457,0.89-9.351,2.783  c-3.004,2.115-74.128,50.643-74.128,114.087c0,65.67,73.795,97.503,77.021,98.838c2.005,0.89,4.231,1.336,6.457,1.336  s4.452-0.445,6.457-1.336c3.227-1.336,77.021-33.169,77.021-98.838C339.478,53.427,268.355,4.898,265.351,2.783z"/>
<path style="fill:#34B772;" d="M339.478,116.87c0,65.67-73.795,97.503-77.021,98.838c-2.005,0.89-4.231,1.336-6.457,1.336V0.001  c3.228,0,6.457,0.89,9.351,2.783C268.355,4.898,339.478,53.427,339.478,116.87z"/>
<path style="fill:#DDDD47;" d="M272.696,116.87v116.87c0,9.238-7.456,16.696-16.696,16.696s-16.696-7.457-16.696-16.696V116.87  c0-9.238,7.456-16.696,16.696-16.696S272.696,107.632,272.696,116.87z"/>
<path style="fill:#F1CD99;" d="M209.282,263.593l-57-57.011c-13.265-13.255-33.404-16.648-52.108-9.249v-69.331  c0-27.619-22.468-50.087-50.087-50.087S0,100.381,0,128.001v153.125c0,13.37,5.207,25.946,14.674,35.418l47.206,47.212  c3.163,3.163,4.902,7.358,4.902,11.815c0,25.557,0,45.236,0,69.646h166.957c0-24.594,0-97.904,0-122.597  C233.739,300.311,225.054,279.349,209.282,263.593z"/>
<path style="fill:#F5DDB3;" d="M100.174,411.827v-36.255c0-13.37-5.207-25.946-14.674-35.418l-47.206-47.212  c-3.162-3.163-4.902-7.359-4.902-11.816V128.001c0-9.206,7.49-16.696,16.696-16.696s16.696,7.49,16.696,16.696v119.733  c0,12.407,4.686,25.422,14.663,35.413c0.006,0.004,0.011,0.006,0.017,0.011l56.994,56.994c6.521,6.521,17.087,6.521,23.609,0  c6.521-6.516,6.521-17.092,0-23.609l-56.989-56.995c-7.743-7.743-7.182-24.626,6.12-30.767c5.054-2.342,12.663-3.386,17.478,1.414  l57,57.011c9.468,9.451,14.674,22.027,14.674,35.413v89.207H100.174z"/>
<path style="fill:#F0C78D;" d="M461.913,77.914c-27.619,0-50.087,22.468-50.087,50.087v66.91  c-18.386-6.567-38.125-2.297-52.108,11.677l-57,57c-15.772,15.762-24.457,36.724-24.457,59.034c0,67.915,0,71.195,0,122.597h166.957  c0-28.206,0-41.338,0-69.646c0-4.457,1.74-8.652,4.892-11.809l47.229-47.223c9.456-9.468,14.663-22.044,14.663-35.413V128.001  C512,100.381,489.532,77.914,461.913,77.914z"/>
<path style="fill:#F3D3A6;" d="M478.609,281.125c0,4.457-1.74,8.652-4.892,11.809l-47.229,47.223  c-9.455,9.468-14.662,22.044-14.662,35.414v36.255H311.652v-89.206c0-13.385,5.207-25.962,14.674-35.418l57-57.006  c7.326-7.32,15.772-4.609,18.196-3.614c13.391,5.55,12.701,25.669,5.403,32.967c-0.006,0.004-0.006,0.011-0.006,0.011  l-56.983,56.983c-6.521,6.516-6.521,17.092,0,23.609c6.521,6.521,17.087,6.521,23.609,0l57.011-57.006  c12.551-12.567,14.661-25.523,14.661-41.141V128.001c0-9.206,7.49-16.696,16.696-16.696c9.206,0,16.696,7.49,16.696,16.696V281.125z  "/>
<path style="fill:#FF0C38;" d="M428.522,512.001H306.087c-27.662,0-50.087-22.424-50.087-50.087l0,0  c0-27.662,22.424-50.087,50.087-50.087h122.435c27.662,0,50.087,22.424,50.087,50.087l0,0  C478.609,489.576,456.184,512.001,428.522,512.001z"/>
<path style="fill:#FF6243;" d="M205.913,512.001H83.478c-27.662,0-50.087-22.424-50.087-50.087l0,0  c0-27.662,22.424-50.087,50.087-50.087h122.435c27.662,0,50.087,22.424,50.087,50.087l0,0  C256,489.576,233.576,512.001,205.913,512.001z"/>
<path style="fill:#C7D100;" d="M272.696,116.87v116.87c0,9.238-7.456,16.696-16.696,16.696V100.174  C265.239,100.174,272.696,107.632,272.696,116.87z"/>
<g>
</g>
<g>
</g>
<g>
</g>
<g>
</g>
<g>
</g>
<g>
</g>
<g>
</g>
<g>
</g>
<g>
</g>
<g>
</g>
<g>
</g>
<g>
</g>
<g>
</g>
<g>
</g>
<g>
</g>
</svg>
