<svg height="512pt" viewBox="-46 0 512 512" width="512pt" xmlns="http://www.w3.org/2000/svg"><path d="m224.921875 90c-8.289063 0-15-6.710938-15-15 0-41.351562 33.648437-75 75-75h30c8.292969 0 15 6.710938 15 15s-6.707031 15-15 15h-30c-24.8125 0-45 20.1875-45 45 0 8.289062-6.707031 15-15 15zm0 0" fill="#99503d"/><path d="m418.121094 394.898438c-4.796875 27.902343-21.300782 53.800781-45.597656 69.699218-17.398438 11.703125-37.199219 17.402344-57.300782 17.402344-5.097656 0-10.199218-.902344-15.300781-1.800781-19.199219 19.5-45.601563 31.800781-75 31.800781s-55.800781-12.300781-75-31.800781c-5.097656.898437-10.199219 1.800781-15.300781 1.800781-20.097656 0-39.898438-5.699219-57.296875-17.402344-24.300781-15.898437-40.800781-41.796875-45.601563-69.699218-7.199218-39.597657 8.402344-79.898438 40.203125-103.898438 30-22.5 47.996094-58.5 47.996094-96 0-7.5.902344-14.699219 2.402344-21.902344l102.597656-113.097656c12.300781 0 23.699219 4.800781 32.402344 13.5 6.898437 7.5 11.398437 16.5 12.296875 26.699219 35.402344 17.101562 60.300781 55.800781 60.300781 94.800781 0 37.800781 18 73.5 47.703125 95.699219 32.097656 24 47.699219 64.601562 40.496094 104.199219zm0 0" fill="#ff4949"/><path d="m418.121094 394.898438c-4.796875 27.902343-21.300782 53.800781-45.597656 69.699218-17.398438 11.703125-37.199219 17.402344-57.300782 17.402344-5.097656 0-10.199218-.902344-15.300781-1.800781-19.199219 19.5-45.601563 31.800781-75 31.800781v-452c12.300781 0 23.699219 4.800781 32.402344 13.5 6.898437 7.5 11.398437 16.5 12.296875 26.699219 35.402344 17.101562 60.300781 55.800781 60.300781 94.800781 0 37.800781 18 73.5 47.703125 95.699219 32.097656 24 47.699219 64.601562 40.496094 104.199219zm0 0" fill="#ff193d"/><path d="m239.921875 45v3.300781c0 23.101563-5.097656 45.601563-15 65.699219-7.199219 15.300781-17.097656 29.398438-29.398437 41.699219-32.402344 32.398437-62.402344 38.101562-174.902344 83.101562-5.398438 2.097657-11.398438 1.199219-15.597656-2.402343-4.199219-3.898438-6-9.597657-4.5-15 3.300781-14.398438 6.597656-27 9.300781-38.097657 14.699219-61.800781 20.398437-84.601562 48.597656-112.800781 36.898437-37.199219 75.300781-40.800781 121.5-40.5h45c8.402344 0 15 6.597656 15 15zm0 0" fill="#93bf00"/></svg>