<?xml version="1.0" encoding="iso-8859-1"?>
<!-- Generator: Adobe Illustrator 19.0.0, SVG Export Plug-In . SVG Version: 6.00 Build 0)  -->
<svg version="1.1" id="Capa_1" xmlns="http://www.w3.org/2000/svg" xmlns:xlink="http://www.w3.org/1999/xlink" x="0px" y="0px"
	 viewBox="0 0 509.686 509.686" style="enable-background:new 0 0 509.686 509.686;" xml:space="preserve">
<path style="fill:#F2F2F2;" d="M478.752,181.243v253.867c0,34.133-27.733,61.867-61.867,61.867s-61.867-27.733-61.867-61.867
	V181.243H478.752z"/>
<path style="fill:#FF7058;" d="M355.019,255.909v179.2c0,34.133,27.733,61.867,61.867,61.867s61.867-27.733,61.867-61.867v-179.2
	H355.019z"/>
<g>
	<path style="fill:#F2F2F2;" d="M489.419,140.709H344.352c-10.667,0-20.267,9.6-20.267,20.267s9.6,20.267,20.267,20.267h145.067
		c10.667,0,20.267-9.6,20.267-20.267C509.686,150.309,501.152,140.709,489.419,140.709z"/>
	<path style="fill:#F2F2F2;" d="M419.019,389.243l-142.933-147.2v-118.4H161.952v118.4l-142.933,147.2
		c-23.467,23.467-25.6,61.867-4.267,86.4c11.733,12.8,27.733,21.333,48,21.333h313.6c19.2,0,36.267-8.533,48-21.333
		C445.686,451.109,442.486,412.709,419.019,389.243z"/>
	<path style="fill:#F2F2F2;" d="M280.352,99.109H156.619c-6.4,0-12.8,5.333-12.8,12.8c0,6.4,5.333,12.8,12.8,12.8h123.733
		c6.4,0,12.8-5.333,12.8-12.8C293.152,104.443,287.819,99.109,280.352,99.109z"/>
</g>
<rect x="161.952" y="123.643" style="fill:#E4EAEF;" width="114.133" height="16"/>
<path style="fill:#84DBFF;" d="M330.486,320.976c-36.267,0-40.533,10.667-83.2,9.6c-46.933-2.133-46.933-14.933-93.867-17.067
	c-19.2-1.067-30.933,1.067-40.533,3.2l-82.133,84.267c-18.133,18.133-19.2,46.933-3.2,65.067c9.6,10.667,21.333,16,35.2,16h313.6
	c13.867,0,26.667-5.333,35.2-16c16-18.133,13.867-45.867-3.2-65.067L330.486,320.976z"/>
<rect x="355.019" y="181.243" style="fill:#E4EAEF;" width="123.733" height="16"/>
<g>
	<circle style="fill:#54C0EB;" cx="140.619" cy="409.509" r="23.467"/>
	<circle style="fill:#54C0EB;" cx="174.752" cy="375.376" r="14.933"/>
</g>
<g>
	<circle style="fill:#84DBFF;" cx="205.686" cy="60.709" r="18.133"/>
	<circle style="fill:#84DBFF;" cx="239.819" cy="53.243" r="10.667"/>
	<circle style="fill:#84DBFF;" cx="198.219" cy="29.776" r="7.467"/>
	<circle style="fill:#84DBFF;" cx="223.819" cy="20.176" r="7.467"/>
</g>
<g>
</g>
<g>
</g>
<g>
</g>
<g>
</g>
<g>
</g>
<g>
</g>
<g>
</g>
<g>
</g>
<g>
</g>
<g>
</g>
<g>
</g>
<g>
</g>
<g>
</g>
<g>
</g>
<g>
</g>
</svg>
