<?xml version="1.0" encoding="iso-8859-1"?>
<!-- Generator: Adobe Illustrator 19.0.0, SVG Export Plug-In . SVG Version: 6.00 Build 0)  -->
<svg version="1.1" id="Capa_1" xmlns="http://www.w3.org/2000/svg" xmlns:xlink="http://www.w3.org/1999/xlink" x="0px" y="0px"
	 viewBox="0 0 512 512" style="enable-background:new 0 0 512 512;" xml:space="preserve">
<path style="fill:#F2F2F2;" d="M475.473,213.261L266.606,4.394C263.793,1.58,259.978,0,255.999,0s-7.793,1.58-10.606,4.394
	L36.527,213.261c-2.814,2.813-4.395,6.628-4.395,10.606V497c0,8.284,6.717,15,15,15h417.734c8.284,0,15-6.716,15-15V223.867
	C479.867,219.889,478.287,216.073,475.473,213.261z"/>
<path style="fill:#D9D9D9;" d="M475.473,213.261L266.606,4.394C263.793,1.58,259.978,0,255.999,0v512h208.867
	c8.284,0,15-6.716,15-15V223.867C479.867,219.889,478.287,216.073,475.473,213.261z"/>
<path style="fill:#FD3018;" d="M497,271c-3.839,0-7.678-1.465-10.606-4.394L255.999,36.213L25.607,266.606
	c-5.857,5.857-15.355,5.857-21.213,0s-5.858-15.355,0-21.213l240.999-241C248.206,1.58,252.021,0,255.999,0s7.793,1.58,10.606,4.394
	l241,241c5.858,5.857,5.858,15.355,0,21.213C504.677,269.535,500.838,271,497,271z"/>
<path style="fill:#FED42D;" d="M304.199,321.332H207.8c-8.284,0-15,6.716-15,15V497c0,8.284,6.716,15,15,15h96.398
	c8.284,0,15-6.716,15-15V336.332C319.199,328.048,312.483,321.332,304.199,321.332z"/>
<path style="fill:#E61E14;" d="M507.606,245.394l-241-241C263.793,1.58,259.978,0,255.999,0v36.213l230.394,230.393
	C489.322,269.535,493.161,271,497,271s7.678-1.465,10.606-4.394C513.464,260.749,513.464,251.251,507.606,245.394z"/>
<path style="fill:#FCBF29;" d="M304.199,512c8.284,0,15-6.716,15-15V336.332c0-8.284-6.716-15-15-15H256V512H304.199z"/>
<g>
</g>
<g>
</g>
<g>
</g>
<g>
</g>
<g>
</g>
<g>
</g>
<g>
</g>
<g>
</g>
<g>
</g>
<g>
</g>
<g>
</g>
<g>
</g>
<g>
</g>
<g>
</g>
<g>
</g>
</svg>
