<svg id="Layer_1" enable-background="new 0 0 512 512" height="512" viewBox="0 0 512 512" width="512" xmlns="http://www.w3.org/2000/svg"><g clip-rule="evenodd" fill-rule="evenodd"><g><path d="m315.407 390.535c-39.008 0-80.976 0-119.928 0 2.614 22.696.239 49.268-4.661 71.494l129.936.001c-5.214-22.227-7.961-48.799-5.347-71.495z" fill="#656565"/><path d="m142.745 474.529c-6.904 0-12.5-5.596-12.5-12.5s5.596-12.5 12.5-12.5h226.082c6.904 0 12.5 5.596 12.5 12.5s-5.596 12.5-12.5 12.5z" fill="#515151"/><path d="m502 355.214c0 19.508-15.813 35.32-35.321 35.32h-421.358c-19.508 0-35.321-15.813-35.321-35.32 0-95.914 0-191.829 0-287.743 0-16.523 13.477-30 30-30h432c16.523 0 30 13.477 30 30z" fill="#6a676b"/><path d="m480 298.278v-230.807c0-4.38-3.62-8-8-8-144 0-288 0-432 0-4.38 0-8 3.62-8 8v230.807z" fill="#92d2fe"/><path d="m45.321 390.535h150.159 119.928 151.272c19.508 0 35.321-15.813 35.321-35.32 0 0 0-13.604 0-34.937h-492.001v34.937c0 19.507 15.813 35.32 35.321 35.32z" fill="#e6e6e6"/></g><g><path d="m191.009 217.67 133.771-106 12.344 15.625-127.425 100.971h121.253v20h-149.904v-10h-9.961v-118.783h19.922z" fill="#f2f2f2"/><path d="m181.048 89.434c16.595 0 30.048 13.453 30.048 30.048s-13.453 30.048-30.048 30.048-30.048-13.453-30.048-30.048 13.453-30.048 30.048-30.048zm149.904 0c16.595 0 30.048 13.453 30.048 30.048s-13.453 30.048-30.048 30.048-30.048-13.453-30.048-30.048 13.453-30.048 30.048-30.048zm0 118.784c16.595 0 30.048 13.453 30.048 30.048s-13.453 30.048-30.048 30.048-30.048-13.453-30.048-30.048 13.453-30.048 30.048-30.048zm-149.904 0c16.595 0 30.048 13.453 30.048 30.048s-13.453 30.048-30.048 30.048-30.048-13.453-30.048-30.048 13.453-30.048 30.048-30.048z" fill="#ffd54f"/></g></g></svg>