<?xml version="1.0" encoding="iso-8859-1"?>
<!-- Generator: Adobe Illustrator 19.0.0, SVG Export Plug-In . SVG Version: 6.00 Build 0)  -->
<svg version="1.1" id="Capa_1" xmlns="http://www.w3.org/2000/svg" xmlns:xlink="http://www.w3.org/1999/xlink" x="0px" y="0px"
	 viewBox="0 0 512 512" style="enable-background:new 0 0 512 512;" xml:space="preserve">
<path style="fill:#FEDB41;" d="M451,135v257L331,512H76c-8.401,0-15-6.599-15-15V135c0-8.401,6.599-15,15-15h360
	C444.401,120,451,126.599,451,135z"/>
<path style="fill:#FCBF29;" d="M451,135v257L331,512h-75V120h180C444.401,120,451,126.599,451,135z"/>
<path style="fill:#896748;" d="M318.701,78.3l-48.9,122.401c-3.001,7.5-11.7,11.4-19.501,8.101c-7.5-3.001-11.4-11.7-8.101-19.501
	l48.6-122.1c3.301-7.5,12.001-11.4,19.501-8.399C318.1,62.1,322,70.8,318.701,78.3z"/>
<path style="fill:#FE9923;" d="M346,512c4.136,0,7.892-1.666,10.649-4.424l89.927-89.927c2.725-2.71,4.409-6.46,4.424-10.605V407
	v-15H346c-8.284,0-15,6.716-15,15v105h14.883C345.927,512,345.956,512,346,512z"/>
<path style="fill:#73553A;" d="M318.701,78.3l-48.9,122.401c-3.001,7.5-11.7,11.4-19.501,8.101l60-150
	C318.1,62.1,322,70.8,318.701,78.3z"/>
<path style="fill:#FD003A;" d="M332.5,3.3C327.4,1.199,321.7,0,316,0c-24.901,0-45,20.099-45,45c0,18.9,11.7,35.099,28.2,41.7
	C304.3,88.801,310,90,316,90c24.901,0,45-20.099,45-45C361,25.8,349.3,9.6,332.5,3.3z"/>
<path style="fill:#E50027;" d="M361,45c0,24.901-20.099,45-45,45c-6,0-11.7-1.199-16.8-3.3l33.3-83.4C349.3,9.6,361,25.8,361,45z"/>
<g>
</g>
<g>
</g>
<g>
</g>
<g>
</g>
<g>
</g>
<g>
</g>
<g>
</g>
<g>
</g>
<g>
</g>
<g>
</g>
<g>
</g>
<g>
</g>
<g>
</g>
<g>
</g>
<g>
</g>
</svg>
