<?xml version="1.0" encoding="iso-8859-1"?>
<!-- Generator: Adobe Illustrator 19.0.0, SVG Export Plug-In . SVG Version: 6.00 Build 0)  -->
<svg version="1.1" id="Capa_1" xmlns="http://www.w3.org/2000/svg" xmlns:xlink="http://www.w3.org/1999/xlink" x="0px" y="0px"
	 viewBox="0 0 512 512" style="enable-background:new 0 0 512 512;" xml:space="preserve">
<path style="fill:#E3323B;" d="M255.852,393.327h-0.003c-68.935,0-125.018-56.082-125.018-125.018
	c0-102.652,104.767-245.136,109.227-251.151c3.707-5.001,9.565-7.95,15.791-7.95c10.255,0,14.362,5.811,20.58,14.607
	c2.701,3.822,7.019,10.026,12.25,17.885c9.218,13.851,23.129,35.656,37.061,60.881c36.582,66.238,55.13,121.996,55.13,165.728
	C380.87,337.246,324.788,393.327,255.852,393.327z"/>
<path style="fill:#FEE77A;" d="M255.851,393.327h-0.001c-39.887,0-72.337-32.451-72.337-72.337
	c0-53.614,50.759-123.624,56.546-131.43c3.708-5.001,9.565-7.95,15.791-7.95c10.216,0,14.897,6.623,18.316,11.458
	c2.018,2.854,4.13,5.94,6.282,9.172c4.712,7.08,11.824,18.228,18.952,31.135c19.104,34.591,28.79,64.069,28.79,87.615
	C328.189,360.876,295.739,393.327,255.851,393.327z"/>
<path style="fill:#BF4E15;" d="M436.466,352.32c-24.595,0-46.469,11.864-60.205,30.167c-13.737-18.304-35.611-30.167-60.205-30.167
	s-46.469,11.864-60.205,30.167c-13.737-18.304-35.611-30.167-60.205-30.167s-46.469,11.864-60.205,30.167
	c-13.737-18.304-35.611-30.167-60.205-30.167C33.75,352.32,0,386.069,0,427.555s33.75,75.236,75.235,75.236
	c24.595,0,46.469-11.864,60.205-30.168c13.737,18.304,35.611,30.168,60.205,30.168s46.469-11.864,60.205-30.168
	c13.737,18.304,35.611,30.168,60.205,30.168s46.469-11.864,60.205-30.168c13.737,18.304,35.611,30.168,60.205,30.168
	c41.485,0,75.235-33.751,75.235-75.236S477.951,352.32,436.466,352.32z"/>
<path style="fill:#BA1A22;" d="M288.68,41.7c-5.231-7.859-9.548-14.063-12.25-17.885c-6.218-8.796-10.325-14.606-20.579-14.607
	v384.119h0.001c68.935,0,125.018-56.082,125.018-125.018c0-43.732-18.548-99.49-55.13-165.728
	C311.808,77.357,297.896,55.552,288.68,41.7z"/>
<path style="fill:#FED019;" d="M280.447,202.24c-2.15-3.232-4.264-6.317-6.282-9.172c-3.418-4.835-8.099-11.457-18.315-11.458
	v211.716l0,0c39.888,0,72.338-32.451,72.338-72.337c0-23.547-9.687-53.025-28.79-87.615
	C292.272,220.469,285.159,209.32,280.447,202.24z"/>
<path style="fill:#994400;" d="M436.765,348.365c-24.595,0-46.469,11.864-60.205,30.167c-13.737-18.304-35.611-30.167-60.205-30.167
	c-24.595,0-46.468,11.863-60.205,30.167v90.137c13.737,18.303,35.61,30.167,60.205,30.167c24.595,0,46.469-11.864,60.205-30.168
	c13.737,18.304,35.611,30.168,60.205,30.168c41.485,0,75.235-33.751,75.235-75.236S478.25,348.365,436.765,348.365z"/>
<g>
</g>
<g>
</g>
<g>
</g>
<g>
</g>
<g>
</g>
<g>
</g>
<g>
</g>
<g>
</g>
<g>
</g>
<g>
</g>
<g>
</g>
<g>
</g>
<g>
</g>
<g>
</g>
<g>
</g>
</svg>
