<svg height="512" viewBox="0 0 128 128" width="512" xmlns="http://www.w3.org/2000/svg"><g><path d="m92.342 56.437-3.172 65.257h-50.34l-3.172-65.257z" fill="#ef983b"/><path d="m29.929 46.279h68.142v10.158h-68.142z" fill="#8c3f07"/><path d="m35.939 46.279a28.346 28.346 0 0 1 56.122 0z" fill="#f2e7cb"/><circle cx="64" cy="89.065" fill="#f2e7cb" r="15.292"/><path d="m64 21.943a28.518 28.518 0 0 1 4.4.347h.043v-15.984h-8.889v15.984h.046a28.518 28.518 0 0 1 4.4-.347z" fill="#8c3f07"/><g fill="#e0d2b3"><path d="m81.9 41.978a1.75 1.75 0 0 1 -1.569-.972 18.368 18.368 0 0 0 -5.651-6.672 1.75 1.75 0 0 1 2.053-2.834 21.881 21.881 0 0 1 6.733 7.949 1.751 1.751 0 0 1 -1.566 2.529z"/><path d="m70.317 31.9a1.758 1.758 0 0 1 -.554-.089 18.139 18.139 0 0 0 -4.367-.877 1.751 1.751 0 1 1 .265-3.491 21.712 21.712 0 0 1 5.21 1.047 1.75 1.75 0 0 1 -.554 3.41z"/></g></g></svg>