<?xml version="1.0" encoding="iso-8859-1"?>
<!-- Generator: Adobe Illustrator 19.0.0, SVG Export Plug-In . SVG Version: 6.00 Build 0)  -->
<svg version="1.1" id="Capa_1" xmlns="http://www.w3.org/2000/svg" xmlns:xlink="http://www.w3.org/1999/xlink" x="0px" y="0px"
	 viewBox="0 0 468.293 468.293" style="enable-background:new 0 0 468.293 468.293;" xml:space="preserve">
<path style="fill:#64798A;" d="M293.036,217.558c-25.609,25.609-52.137,47.824-75.837,68.537l0,0l-19.502,14.026l-46.373-46.373
	l14.026-19.502l0,0c20.713-23.7,42.928-50.228,68.537-75.837C336.385,55.912,432.65-13.972,448.992,2.371
	C465.335,18.714,395.534,115.061,293.036,217.558z"/>
<polygon style="fill:#D5D6DB;" points="217.199,286.095 197.698,300.121 142.27,339.953 111.493,309.176 151.325,253.748 
	165.351,234.247 "/>
<path style="fill:#2D93BA;" d="M147.526,402.242c-21.927,21.927-130.599,33.564-130.599,33.564s5.355-5.355,12.118-14.695
	c12.415-16.899,29.584-46.948,28.467-81.993c-1.248-40.256,43.093-58.454,76.798-29.282c1.509,1.353,3.019,2.706,4.45,4.137
	c11.545,11.545,18.861,25.506,21.659,39.405C164.122,371.621,159.995,389.773,147.526,402.242z"/>
<path style="fill:#27A2DB;" d="M146.233,389.223c-17.159,17.159-87.452,28.01-117.188,31.889
	c12.415-16.899,29.584-46.948,28.467-81.993c-1.248-40.256,43.093-58.454,76.798-29.282c1.509,1.353,3.019,2.706,4.45,4.137
	c11.545,11.545,18.861,25.506,21.659,39.405C160.354,366.993,155.692,379.764,146.233,389.223z"/>
<polygon style="fill:#EBF0F3;" points="287.653,384.113 310.093,406.554 468.293,468.293 406.554,310.093 384.113,287.653 "/>
<path style="fill:#FCD462;" d="M51.637,19.484L19.484,51.637L8.989,62.131c-11.962,11.962-11.962,31.356,0,43.318l301.104,301.104
	l36.005,3.852l-3.852-36.005l36.005,3.852l-3.852-36.005l36.005,3.852l-3.852-36.005L105.45,8.989
	c-11.962-11.962-31.356-11.962-43.318,0L51.637,19.484z"/>
<polygon style="fill:#F7BE56;" points="19.484,51.637 342.247,374.4 378.252,378.252 374.4,342.247 51.637,19.484 "/>
<g>
	<path style="fill:#FCD462;" d="M8.989,105.45l301.104,301.104l36.005,3.852l-3.852-36.005L19.484,51.637L8.989,62.131
		C-2.973,74.093-2.973,93.488,8.989,105.45z"/>
	<path style="fill:#FCD462;" d="M62.131,8.989L51.637,19.484L374.4,342.247l36.005,3.852l-3.852-36.005L105.45,8.989
		C93.488-2.973,74.093-2.973,62.131,8.989z"/>
</g>
<path style="fill:#2F4859;" d="M444.267,406.862l24.008,61.413l-61.413-24.008c2.626-8.52,7.342-16.559,14.094-23.311
	S435.747,409.488,444.267,406.862z"/>
<path style="fill:#E56353;" d="M156.36,59.899L105.432,8.972c-11.962-11.962-31.356-11.962-43.318,0L8.972,62.114
	c-11.962,11.962-11.962,31.356,0,43.318l50.928,50.928L156.36,59.899z"/>
<g>
</g>
<g>
</g>
<g>
</g>
<g>
</g>
<g>
</g>
<g>
</g>
<g>
</g>
<g>
</g>
<g>
</g>
<g>
</g>
<g>
</g>
<g>
</g>
<g>
</g>
<g>
</g>
<g>
</g>
</svg>
