<?xml version="1.0" encoding="iso-8859-1"?>
<!-- Generator: Adobe Illustrator 19.0.0, SVG Export Plug-In . SVG Version: 6.00 Build 0)  -->
<svg version="1.1" id="Capa_1" xmlns="http://www.w3.org/2000/svg" xmlns:xlink="http://www.w3.org/1999/xlink" x="0px" y="0px"
	 viewBox="0 0 510.688 510.688" style="enable-background:new 0 0 510.688 510.688;" xml:space="preserve">
<g>
	<polygon style="fill:#FFF100;" points="395.936,6.016 412.144,0 419.056,25.52 411.84,28.224 	"/>
	<polygon style="fill:#FFF100;" points="389.936,41.728 356.016,17.712 371.024,4.816 395.936,36.032 	"/>
	<polygon style="fill:#FFF100;" points="384.832,54.336 384.832,64.848 353.904,69.056 353.904,50.144 	"/>
	<polygon style="fill:#FFF100;" points="389.632,85.264 374.016,101.168 367.424,87.968 386.624,76.56 	"/>
	<polygon style="fill:#FFF100;" points="405.248,101.168 382.432,139.296 369.376,126.688 400.432,94.864 	"/>
	<polygon style="fill:#FFF100;" points="424.16,103.264 426.256,134.784 409.44,132.992 416.944,103.264 	"/>
	<polygon style="fill:#FFF100;" points="457.168,117.072 443.968,121.888 439.76,101.168 449.968,96.96 	"/>
	<polygon style="fill:#FFF100;" points="497.104,94.864 487.792,109.616 459.872,86.464 465.584,78.048 	"/>
	<polygon style="fill:#FFF100;" points="467.376,59.6 504,54.336 504,71.744 467.376,67.248 	"/>
	<polygon style="fill:#FFF100;" points="459.872,35.136 482.096,10.208 489.888,28.224 462.576,41.728 	"/>
	<polygon style="fill:#FFF100;" points="436.464,25.968 438.256,0 454.768,6.304 445.616,25.968 	"/>
	<circle style="fill:#FFF100;" cx="427.76" cy="63.04" r="33.328"/>
</g>
<path style="fill:#A4856D;" d="M209.456,466.32c29.248-163.776-82.624-251.504-82.624-251.504S267.2,266.72,260.624,466.32H209.456z
	"/>
<path style="fill:#8BC540;" d="M6.688,242.192c0,0,5.216-66.16,95.76-61.808c0,0,5.216-91.408,67.024-95.76l-31.344,67.04
	c0,0,71.376-46.144,113.168-2.608l-88.784,33.952c0,0,67.024,15.664,106.208,73.12c0,0-67.024,13.056-113.168-20.896
	c0,0,22.64,51.36,16.544,105.328c0,0-48.752-27.856-60.928-100.112L72,331.856c0,0-40.048-36.56,4.352-110.56L6.688,242.192z"/>
<path style="fill:#A4856D;" d="M308.368,473.44c-23.456-131.328,66.256-201.696,66.256-201.696S262.048,313.376,267.328,473.44
	H308.368z"/>
<path style="fill:#8BC540;" d="M470.976,293.712c0,0-4.192-53.056-76.784-49.568c0,0-4.192-73.296-53.76-76.784l25.136,53.76
	c0,0-57.248-36.992-90.752-2.096l71.2,27.232c0,0-53.76,12.56-85.168,58.64c0,0,53.76,10.464,90.752-16.752
	c0,0-18.144,41.184-13.264,84.464c0,0,39.088-22.336,48.864-80.272l31.408,73.296c0,0,32.112-29.312-3.488-88.656L470.976,293.712z"
	/>
<path style="fill:#FFD83B;" d="M450.448,510.688c-39.376-42.064-113.072-70.464-197.68-70.464c-84.624,0-158.304,28.4-197.68,70.464
	H450.448z"/>
<g>
</g>
<g>
</g>
<g>
</g>
<g>
</g>
<g>
</g>
<g>
</g>
<g>
</g>
<g>
</g>
<g>
</g>
<g>
</g>
<g>
</g>
<g>
</g>
<g>
</g>
<g>
</g>
<g>
</g>
</svg>
