<svg height="512pt" viewBox="0 -21 512 512" width="512pt" xmlns="http://www.w3.org/2000/svg"><g fill-rule="evenodd"><path d="m265.796875 470h202.152344c28.410156 0 44.050781-20.519531 44.050781-42.09375v-271.050781c0-17.035157-13.941406-30.972657-30.988281-30.972657h-450.023438c-17.046875 0-30.988281 13.9375-30.988281 30.972657v271.050781c0 21.574219 15.640625 42.09375 44.050781 42.09375zm0 0" fill="#8ebfe8"/><path d="m256.015625 410.195312h216.855469v-291.980468c0-15.515625-6.238282-17.183594-24.660156-22.394532-20.855469-5.945312-42.941407-8.84375-81.601563-9.898437-57.609375 1.613281-93.8125 9.339844-110.59375 19.058594zm0 0" fill="#eceff1"/><path d="m256.015625 410.195312 30.253906-168.066406-30.253906-137.148437c-16.8125-9.71875-53.011719-17.445313-110.625-19.054688-38.660156 1.050781-60.746094 3.949219-81.597656 9.894531-18.425781 5.210938-24.660157 6.878907-24.660157 22.394532v291.980468zm0 0" fill="#eceff1"/><path d="m55.179688 430.917969h200.835937l11.976563-12-11.976563-8.722657c-34.179687-19.789062-148.761719-31.265624-216.886719 0v4.273438c0 9.042969 7.207032 16.449219 16.050782 16.449219zm0 0" fill="#90a4ae"/><path d="m472.871094 410.195312c-68.128906-31.265624-182.675782-19.789062-216.855469 0v20.722657h200.832031c8.816406 0 16.023438-7.40625 16.023438-16.449219zm0 0" fill="#90a4ae"/><path d="m472.871094 125.882812v288.585938c0 9.042969-7.207032 16.449219-16.023438 16.449219h-23.898437v39.082031h35c28.410156 0 44.050781-20.519531 44.050781-42.09375v-271.050781c0-17.035157-13.941406-30.972657-30.988281-30.972657zm0 0" fill="#519ad6"/><path d="m472.871094 410.195312c-12.066406-5.5625-25.628906-9.75-39.921875-12.824218v33.546875h23.898437c8.816406 0 16.023438-7.40625 16.023438-16.449219zm0 0" fill="#7c8c94"/><path d="m472.871094 410.195312v-291.980468c0-15.515625-6.238282-17.183594-24.660156-22.394532-1.582032-.46875-3.164063-.910156-4.777344-1.320312-3.425782-.875-6.882813-1.695312-10.484375-2.429688v305.300782c14.292969 3.074218 27.855469 7.261718 39.921875 12.824218zm0 0" fill="#c4cccf"/></g><path d="m79.085938 284.292969c-2.949219 0-5.769532-1.683594-7.078126-4.539063-1.796874-3.910156-.085937-8.535156 3.820313-10.332031 27.09375-12.464844 61.132813-13.28125 79.007813-12.664063 26.804687.929688 51.042968 5.914063 63.261718 13 3.71875 2.160157 4.988282 6.925782 2.832032 10.648438-2.160157 3.722656-6.925782 4.992188-10.644532 2.832031-18.765625-10.886719-87.253906-18.382812-127.949218.339844-1.054688.484375-2.160157.714844-3.25.714844zm0 0" fill="#37474f"/><path d="m79.085938 341.464844c-2.949219 0-5.769532-1.683594-7.078126-4.539063-1.796874-3.910156-.085937-8.535156 3.820313-10.332031 27.09375-12.464844 61.132813-13.285156 79.007813-12.664062 26.804687.929687 51.042968 5.914062 63.261718 13 3.71875 2.160156 4.988282 6.929687 2.832032 10.648437-2.160157 3.722656-6.925782 4.992187-10.644532 2.832031-18.765625-10.886718-87.253906-18.382812-127.949218.339844-1.054688.484375-2.160157.714844-3.25.714844zm0 0" fill="#37474f"/><path d="m432.945312 284.292969c-1.089843 0-2.195312-.230469-3.246093-.714844-40.71875-18.722656-109.21875-11.226563-127.980469-.339844-3.722656 2.160157-8.488281.890625-10.644531-2.832031-2.160157-3.722656-.890625-8.488281 2.828125-10.648438 12.21875-7.085937 36.460937-12.070312 63.265625-13 17.886719-.621093 51.925781.199219 79.03125 12.660157 3.910156 1.796875 5.621093 6.425781 3.824219 10.332031-1.308594 2.859375-4.132813 4.542969-7.078126 4.542969zm0 0" fill="#37474f"/><path d="m432.945312 341.464844c-1.089843 0-2.195312-.230469-3.246093-.714844-40.71875-18.722656-109.21875-11.226562-127.980469-.339844-3.722656 2.160156-8.488281.890625-10.644531-2.832031-2.160157-3.71875-.890625-8.488281 2.828125-10.648437 12.21875-7.085938 36.460937-12.070313 63.265625-13 17.886719-.617188 51.925781.199218 79.03125 12.660156 3.910156 1.796875 5.621093 6.425781 3.824219 10.332031-1.308594 2.859375-4.132813 4.542969-7.078126 4.542969zm0 0" fill="#37474f"/><path d="m256.015625 417.984375c-4.300781 0-7.789063-3.488281-7.789063-7.792969v-236.441406c0-4.300781 3.488282-7.789062 7.789063-7.789062s7.785156 3.488281 7.785156 7.789062v236.441406c0 4.304688-3.484375 7.792969-7.785156 7.792969zm0 0" fill="#90a4ae"/><path d="m165.484375.53125c48.414063-5.296875 91.964844 29.625 97.269531 78.015625 5.328125 48.390625-29.640625 91.921875-78.058594 97.25-14.058593 1.519531-27.734374-.324219-40.152343-4.917969l-16.257813 9.511719c-10.777344 6.292969-27.179687 5.914063-26.945312-13.054687 2.460937-8.253907 3.691406-14.316407 6.121094-22.570313-10.808594-12.882813-18.070313-29.011719-20.03125-46.984375-5.332032-48.417969 29.636718-91.949219 78.054687-97.25zm0 0" fill="#f55a8e" fill-rule="evenodd"/><path d="m238.117188 26.46875c13.359374 13.640625 22.40625 31.644531 24.632812 52.078125 3.925781 35.714844-14.085938 68.792969-43.257812 85.800781-16.578126-23.621094-23.140626-54.066406-15.4375-84.25 5.59375-21.867187 17.867187-40.28125 34.0625-53.628906zm0 0" fill="#ba4583" fill-rule="evenodd"/><path d="m350.941406 8.523438c-54.832031-14.023438-110.65625 19.058593-124.683594 73.886718-14 54.800782 19.09375 110.597656 73.925782 124.621094 15.929687 4.070312 31.953125 4.15625 47.007812.878906l17.164063 13.609375c11.363281 9.019531 30.3125 11.273438 33.125-10.625-1.464844-9.894531-1.90625-17.066406-3.367188-26.960937 14.554688-13.054688 25.539063-30.414063 30.75-50.789063 14.03125-54.832031-19.066406-110.628906-73.921875-124.621093zm0 0" fill="#8bc34a" fill-rule="evenodd"/><path d="m337.554688 6.007812c48.152343 18.238282 75.917968 70.109376 62.882812 121.132813-4.453125 17.449219-12.710938 32.203125-24.25 44.441406-5.800781 6.144531-6.738281 3.980469-5.710938 12.234375.90625 7.144532 1.40625 13.261719 2.578126 21.078125-1.144532 8.8125-4.894532 13.730469-9.695313 15.835938l.996094.789062c11.363281 9.019531 30.3125 11.273438 33.125-10.625-1.464844-9.894531-1.90625-17.066406-3.367188-26.960937 14.554688-13.054688 25.539063-30.414063 30.75-50.789063 14.03125-54.832031-19.066406-110.628906-73.921875-124.621093-4.453125-1.140626-8.933594-1.960938-13.386718-2.515626zm0 0" fill="#689f38" fill-rule="evenodd"/><path d="m176.90625 106.386719c-.761719 4.65625-3.222656 7.90625-8.230469 7.90625-2.371093 0-4.421875-.910157-6.0625-2.636719-1.875-2.019531-2.402343-4.828125-2.402343-7.523438 0-3.394531.378906-6.910156 1.609374-10.097656 1.027344-2.722656 2.433594-5.269531 4.277344-7.523437 2.136719-2.605469 4.566406-5.066407 6.96875-7.4375 1.816406-1.816407 3.722656-3.660157 5.417969-5.5625 1.085937-1.199219 1.964844-2.515625 2.695313-3.953125.703124-1.433594 1.027343-2.957032 1.027343-4.535156 0-3.132813-.996093-5.882813-3.191406-8.136719-2.257813-2.3125-5.039063-3.308594-8.261719-3.308594s-6.53125.703125-8.699218 3.277344c-2.371094 2.871093-4.832032 6.9375-5.855469 10.421875-.617188 4.832031-2.84375 8.375-7.910157 8.375-2.636718 0-4.800781-1.054688-6.5-3.046875-1.613281-1.84375-2.578124-3.980469-2.578124-6.4375 0-4.773438 1.464843-9.28125 3.777343-13.410157 2.609375-4.683593 6.386719-8.371093 10.953125-11.152343 5.128906-3.160157 10.839844-4.421875 16.8125-4.421875 5.507813 0 10.867188 1.054687 15.757813 3.691406 4.453125 2.429688 8.023437 5.765625 10.601562 10.128906 2.492188 4.273438 3.75 8.929688 3.75 13.875 0 3.601563-.613281 7.171875-2.167969 10.453125-1.316406 2.75-2.984374 5.355469-5.066406 7.609375-3.25 3.570313-6.707031 7.054688-10.105468 10.480469-1.113282 1.082031-2.195313 2.253906-3.132813 3.484375-.613281.789062-1.257813 1.695312-1.667969 2.632812-.351562.761719-.644531 1.582032-.851562 2.371094-.351563 1.492188-.671875 2.984375-.964844 4.476563zm-7.585938 36.535156c-2.785156 0-5.15625-1.054687-7.148437-2.988281-2.253906-2.164063-3.042969-5.121094-3.042969-8.195313 0-2.984375.90625-5.648437 2.925782-7.84375 1.933593-2.136719 4.367187-3.25 7.265624-3.25 2.871094 0 5.273438 1.140625 7.175782 3.25 1.992187 2.222657 2.871094 4.886719 2.871094 7.84375 0 3.042969-.820313 5.972657-3.019532 8.167969-1.960937 1.929688-4.273437 3.015625-7.027344 3.015625zm0 0" fill="#37474f" fill-rule="evenodd"/><path d="m287.464844 142.449219c-3.859375 0-6.40625-2.730469-8.324219-4.785157-.535156-.578124-1.175781-1.265624-1.953125-2.0625l-18.355469-18.722656c-3.011719-3.074218-2.964843-8.007812.105469-11.019531s8.003906-2.964844 11.011719.105469l15.371093 15.683594 23.027344-50.824219c1.261719-2.785157 4.039063-4.574219 7.09375-4.574219h68.742188c4.300781 0 7.785156 3.488281 7.785156 7.789062 0 4.304688-3.484375 7.792969-7.785156 7.792969h-63.722656l-22.675782 50.050781c-.488281 1.078126-.871094 2.003907-1.191406 2.769532-1.195312 2.871094-2.835938 6.804687-7.574219 7.65625-.542969.097656-1.058593.140625-1.554687.140625zm0 0" fill="#37474f"/><path d="m351.175781 133.496094-7.703125 9.628906c-1.699218 2.050781-3.957031 3.71875-6.707031 3.71875-2.285156 0-4.304687-.820312-5.949219-2.460938-1.609375-1.609374-2.429687-3.628906-2.429687-5.941406 0-1.992187.527343-3.863281 1.902343-5.300781l10.632813-11.648437-8.171875-8.929688c-1.523438-1.667969-2.460938-3.660156-2.460938-5.941406 0-2.253906.765626-4.277344 2.375-5.855469l.027344-.058594.03125-.03125c.761719-.671875 1.636719-1.230469 2.574219-1.636719 1.054687-.441406 2.167969-.644531 3.3125-.644531 2.605469 0 4.773437 1.140625 6.414063 3.191407l6.148437 7.84375 6.296875-7.875c1.640625-2.019532 3.808594-3.164063 6.414062-3.164063 2.285157 0 4.277344.792969 5.859376 2.433594 1.667968 1.519531 2.460937 3.539062 2.460937 5.792969 0 2.253906-.96875 4.246093-2.433594 5.914062l-8.199219 8.957031 10.574219 11.652344c1.34375 1.492187 1.992188 3.308594 1.992188 5.300781 0 2.3125-.851563 4.332032-2.460938 5.941406-1.613281 1.636719-3.660156 2.457032-5.945312 2.457032-2.753907 0-5.007813-1.667969-6.707031-3.714844zm0 0" fill="#37474f" fill-rule="evenodd"/></svg>