<svg id="Capa_1" enable-background="new 0 0 470.578 470.578" height="512" viewBox="0 0 470.578 470.578" width="512" xmlns="http://www.w3.org/2000/svg"><g><path d="m111.28 0h248.018c12.843 0 23.253 10.411 23.253 23.253v424.071c0 12.843-10.411 23.253-23.253 23.253h-248.018c-12.843 0-23.253-10.411-23.253-23.253v-424.071c0-12.842 10.411-23.253 23.253-23.253z" fill="#575b6d"/><path d="m105.742 40.969h259.094v362.07h-259.094z" fill="#69b0ee"/><circle cx="235.289" cy="435.922" fill="#828a9e" r="16.419"/><path d="m256.075 16.275h-41.572c-2.816 0-5.099 2.283-5.099 5.099s2.283 5.099 5.099 5.099h41.566c2.816 0 5.099-2.283 5.099-5.099s-2.283-5.099-5.099-5.099z" fill="#828a9e"/><g fill="#eeefee"><path d="m137.369 403.039h-8.964l120.514-362.07h8.964z" opacity=".5"/><path d="m221.998 403.039h-46.966l120.514-362.07h46.966z" opacity=".5"/></g></g></svg>