<svg id="Capa_1" enable-background="new 0 0 512 512" height="512" viewBox="0 0 512 512" width="512" xmlns="http://www.w3.org/2000/svg"><g><path d="m487.625 70.287-66.435 66.434-22.955-22.956-324.967 296.66 62.741 34.433 220.14-220.14 50.392 19.784 105.459-105.458z" fill="#b4d2d7"/><path d="m398.235 113.765-22.956-22.955 66.434-66.434-68.756-24.376-105.459 105.459 19.784 50.392-220.14 220.14 20.28 48.587z" fill="#e1ebf0"/><path d="m52.038 431.655 62.74 34.434 21.231-21.231-34.434-34.433z" fill="#ff415b"/><path d="m101.575 410.425-34.433-34.434-21.231 21.231 20.28 48.587z" fill="#ff7c48"/><path d="m34.433 477.567 34.434 34.433 45.911-45.911-34.433-34.434-37.109 8.802z" fill="#04303e"/><path d="m7.708 413.046h64.929v48.696h-64.929z" fill="#09607d" transform="matrix(.707 -.707 .707 .707 -297.518 156.516)"/></g></svg>