<svg height="512" viewBox="0 0 64 64" width="512" xmlns="http://www.w3.org/2000/svg"><g id="Laptop"><path d="m53 54h-42c-6.78 0-9-9-5-9h19l2 2h10l2-2h19c4.05 0 1.76 9-5 9z" fill="#56524f"/><path d="m11.29 14h41.42v27h-41.42z" fill="#7c7874"/><path d="m11.29 14h41.42v27h-41.42z" fill="#6fb4e2"/><path d="m53 10h-42a4 4 0 0 0 -4 4v31h18l2 2h10l2-2h18v-31a4 4 0 0 0 -4-4zm-.29 31h-41.42v-27h41.42z" fill="#7c7874"/><g fill="#acd4ea"><path d="m21.5 34.5a1 1 0 0 1 -.71-1.71l14.5-14.5a1 1 0 0 1 1.42 1.42c-15.71 15.74-14.62 14.79-15.21 14.79z"/><path d="m21.5 34.5a1 1 0 0 1 -.71-1.71l14.5-14.5a1 1 0 0 1 1.42 1.42c-15.71 15.74-14.62 14.79-15.21 14.79z"/><path d="m32.5 33.5a1 1 0 0 1 -.71-1.71l5.5-5.5a1 1 0 0 1 1.42 1.42c-5.93 5.92-5.63 5.79-6.21 5.79z"/><path d="m32.5 33.5a1 1 0 0 1 -.71-1.71l5.5-5.5a1 1 0 0 1 1.42 1.42c-5.93 5.92-5.63 5.79-6.21 5.79z"/></g></g></svg>