<?xml version="1.0" encoding="iso-8859-1"?>
<!-- Generator: Adobe Illustrator 19.0.0, SVG Export Plug-In . SVG Version: 6.00 Build 0)  -->
<svg version="1.1" id="Capa_1" xmlns="http://www.w3.org/2000/svg" xmlns:xlink="http://www.w3.org/1999/xlink" x="0px" y="0px"
	 viewBox="0 0 468.293 468.293" style="enable-background:new 0 0 468.293 468.293;" xml:space="preserve">
<path style="fill:#E0E5E8;" d="M150.786,211.783c-71.632,0-131.915,48.59-149.688,114.607
	c-5.497,20.418,10.366,40.398,31.511,40.398h236.354c21.144,0,37.007-19.98,31.511-40.398
	C282.7,260.372,222.417,211.783,150.786,211.783z"/>
<g>
	<path style="fill:#D4D5DB;" d="M22.748,326.39c17.094-63.497,68.137-110.739,136.156-114.264c-2.7-0.14-5.383-0.343-8.119-0.343
		c-71.631,0-131.914,48.589-149.687,114.607c-5.497,20.417,10.367,40.398,31.51,40.398h16.238
		C27.702,366.788,17.251,346.807,22.748,326.39z"/>
	<circle style="fill:#D4D5DB;" cx="150.784" cy="159.349" r="57.844"/>
</g>
<path style="fill:#4EBD9E;" d="M357.336,101.514c-61.279,0-110.957,30.927-110.957,69.078c0,21.344,15.565,40.417,39.997,53.088
	c2.29,7.291,3.621,16.306,4.349,22.83c0.444,3.979,4.88,6.13,8.267,3.994l22.967-14.482c11.123,2.331,22.993,3.648,35.377,3.648
	c61.279,0,110.957-30.927,110.957-69.078C468.293,132.441,418.615,101.514,357.336,101.514z"/>
<g>
	<circle style="fill:#E56354;" cx="305.202" cy="167.466" r="18.245"/>
	<circle style="fill:#E56354;" cx="357.339" cy="167.466" r="18.245"/>
	<circle style="fill:#E56354;" cx="409.475" cy="167.466" r="18.245"/>
</g>
<g>
</g>
<g>
</g>
<g>
</g>
<g>
</g>
<g>
</g>
<g>
</g>
<g>
</g>
<g>
</g>
<g>
</g>
<g>
</g>
<g>
</g>
<g>
</g>
<g>
</g>
<g>
</g>
<g>
</g>
</svg>
