<svg id="Capa_1" enable-background="new 0 0 512 512" height="512" viewBox="0 0 512 512" width="512" xmlns="http://www.w3.org/2000/svg"><path d="m386.273 286.128c-5-5-5-13.107 0-18.107l99.707-99.707c.568-.568.568-1.493-.001-2.062l-39.547-39.547c-5-5-5-13.107 0-18.107s13.107-5 18.107 0l39.547 39.547c10.553 10.553 10.553 27.723.001 38.275l-99.707 99.707c-5.001 5.001-13.108 5.001-18.107.001z" fill="#3c5959"/><path d="m7.612 506.831c-1.948 0-3.896-.743-5.383-2.229-2.972-2.973-2.972-7.792 0-10.765l38.687-38.686c2.973-2.972 7.792-2.97 10.765 0 2.972 2.973 2.972 7.792 0 10.765l-38.687 38.686c-1.486 1.485-3.435 2.229-5.382 2.229z" fill="#688b96"/><path d="m39.113 477.774-10.056-10.056c-6.69-6.69-6.69-17.536 0-24.226l43.231-43.231 34.282 34.282-43.231 43.231c-6.69 6.69-17.536 6.69-24.226 0z" fill="#394949"/><path d="m81.645 469.563-44.377-44.377c-4.746-4.746-4.746-12.44 0-17.186l90.792-90.792 61.563 61.563-90.792 90.792c-4.746 4.746-12.44 4.746-17.186 0z" fill="#c7eefb"/><path d="m165.248 354.395-90.792 90.792c-4.746 4.746-12.44 4.746-17.186 0l24.375 24.375c4.746 4.746 12.44 4.746 17.186 0l90.792-90.792z" fill="#97e4f9"/><path d="m143.364 431.897c2.604 2.604 6.826 2.604 9.43 0l337.955-337.928c14.55-14.55 14.55-38.14 0-52.69l-25.197-25.197c-14.55-14.55-38.14-14.55-52.69 0l-337.928 337.955c-2.604 2.604-2.604 6.826 0 9.43z" fill="#0e80ac"/><path d="m490.749 41.279-24.375-24.375c14.55 14.55 14.55 38.14 0 52.69l-337.955 337.928c-2.604 2.604-6.826 2.604-9.43 0l24.375 24.375c2.604 2.604 6.826 2.604 9.43 0l337.955-337.928c14.55-14.55 14.55-38.14 0-52.69z" fill="#057195"/><path d="m391.686 16.947-117.54 117.545c-3.915 3.915-3.915 10.263 0 14.179l84.014 84.014c3.915 3.915 10.263 3.915 14.179 0l117.545-117.539c3.915-3.915 3.916-10.264 0-14.179l-84.02-84.02c-3.915-3.916-10.263-3.916-14.178 0z" fill="#3c5959"/><path d="m489.884 100.966-24.999-24.999c3.915 3.915 3.915 10.264 0 14.179l-117.545 117.54c-3.915 3.915-10.263 3.915-14.179 0l24.999 24.999c3.915 3.915 10.263 3.915 14.179 0l117.545-117.54c3.916-3.915 3.916-10.263 0-14.179z" fill="#394949"/></svg>