<svg id="Capa_1" enable-background="new 0 0 512 512" height="512" viewBox="0 0 512 512" width="512" xmlns="http://www.w3.org/2000/svg"><g><g><path d="m462.584 508.855c-1.134 2.634-4.201 3.855-6.835 2.721l-109.031-46.944-4.586 8.16c-15.981 28.433-50.647 40.137-80.638 27.225-4.961-2.136-9.593-4.857-13.769-8.088l-6.133-4.744-6.299 4.521c-18.002 12.921-41.853 15.492-62.247 6.712-16.622-7.157-29.462-21.181-35.229-38.477l-3.049-9.149-9.354 2.349c-13.541 3.4-28.006 2.254-40.731-3.225-13.991-6.024-25.367-16.899-32.033-30.622-6.601-13.589-8.192-29.064-4.481-43.573l2.311-9.034-8.729-3.282c-.937-.352-1.879-.731-2.801-1.128-32.238-13.88-47.173-51.4-33.293-83.637s51.4-47.173 83.637-33.293c.922.397 1.845.82 2.743 1.259l8.383 4.086 4.975-7.888c7.991-12.667 20.327-22.146 34.735-26.69 14.551-4.587 30.269-3.798 44.259 2.226 12.725 5.479 23.498 15.2 30.334 27.373l4.722 8.409 8.742-4.072c16.526-7.698 35.538-8.007 52.161-.85 20.392 8.78 34.916 27.875 37.902 49.832l1.045 7.683 7.661 1.195c5.217.814 10.377 2.309 15.338 4.444 29.991 12.913 45.312 46.14 35.639 77.289l-2.776 8.939 109.031 46.944c2.634 1.134 3.855 4.201 2.721 6.835z" fill="#1fbf66"/><path d="m228.187 250.05-8.742 4.072-4.722-8.409c-6.836-12.173-17.609-21.894-30.334-27.373-13.991-6.024-29.709-6.814-44.259-2.226-14.408 4.544-26.744 14.023-34.735 26.69l-4.975 7.888-8.383-4.086c-.898-.439-1.821-.862-2.743-1.259-32.238-13.88-69.757 1.055-83.637 33.292l469.089 201.969 12.162-28.247c1.134-2.634-.086-5.701-2.721-6.835l-109.031-46.944 2.776-8.939c9.673-31.15-5.648-64.377-35.639-77.289-4.961-2.136-10.121-3.631-15.338-4.445l-7.661-1.195-1.045-7.683c-2.986-21.957-17.51-41.052-37.902-49.832-16.622-7.157-35.634-6.847-52.16.851z" fill="#00b44b"/></g><g><path d="m345.108 510.721c-2.868 0-5.202-2.334-5.202-5.202v-118.707l-9.308-.985c-32.435-3.434-56.895-30.646-56.895-63.298 0-5.401.668-10.732 1.983-15.845l1.932-7.509-6.643-3.998c-18.987-11.425-30.781-32.315-30.781-54.519 0-18.098 7.804-35.437 21.409-47.573l7.197-6.419-5.856-7.662c-8.477-11.092-13.146-24.831-13.146-38.686 0-15.232 5.489-29.982 15.458-41.532 9.871-11.437 23.455-19.018 38.249-21.348l9.212-1.45-.438-9.315c-.048-1-.071-2.015-.071-3.019.001-35.099 28.556-63.654 63.655-63.654s63.654 28.555 63.654 63.654c0 1.004-.023 2.019-.071 3.018l-.438 9.315 9.212 1.45c14.795 2.331 28.379 9.912 38.25 21.349 9.968 11.551 15.458 26.299 15.458 41.532 0 13.855-4.668 27.594-13.146 38.686l-5.856 7.662 7.197 6.419c13.606 12.135 21.409 29.474 21.409 47.573 0 22.202-11.794 43.094-30.781 54.519l-6.643 3.998 1.932 7.509c1.316 5.113 1.983 10.444 1.983 15.845 0 32.652-24.46 59.864-56.896 63.298l-9.308.985v118.708c0 2.868-2.334 5.202-5.202 5.202h-61.509z" fill="#80d398"/><path d="m490.123 193.085-7.197-6.419 5.856-7.662c8.477-11.092 13.145-24.831 13.145-38.686 0-15.232-5.49-29.981-15.458-41.532-9.871-11.437-23.456-19.018-38.25-21.349l-9.212-1.45.438-9.316c.048-.999.071-2.014.071-3.017 0-35.099-28.554-63.654-63.653-63.654v510.721h30.754c2.868 0 5.202-2.334 5.202-5.202v-118.707l9.308-.985c32.436-3.434 56.896-30.646 56.896-63.298 0-5.401-.668-10.732-1.983-15.845l-1.932-7.509 6.643-3.998c18.986-11.426 30.781-32.317 30.781-54.519-.001-18.099-7.803-35.439-21.409-47.573z" fill="#1fbf66"/></g></g></svg>