<svg enable-background="new 0 0 512 512" height="512" viewBox="0 0 512 512" width="512" xmlns="http://www.w3.org/2000/svg"><g id="_x33_0_Oatmeal"><g><g><path d="m488.864 210.47c-.487 20.719-17.681 37.179-38.344 36.694l-393.12-3.348c-20.719-.487-37.178-17.737-36.691-38.456.585-24.918 24.799-42.055 48.112-35.12 2.307-26.671 30.788-41.801 53.662-30.507-1.624-21.497 15.967-40.525 38.31-40 15.036.353 27.826 9.455 33.513 22.361 2.296 5.212 7.638 8.053 13.272 7.22.136-.02.273-.04.409-.058 6.037-.825 10.7-5.698 10.635-11.791-.213-20.069 16.267-38.347 38.45-37.826 21.965.516 37.734 19.188 36.687 39.359-.312 6.011 3.868 11.462 9.831 12.283.913.126 1.828.286 2.743.482 5.345 1.144 10.517-2.012 12.977-6.893 6.317-12.537 19.474-20.957 34.447-20.605 22.342.525 39.021 20.358 36.39 41.754 21.171-9.252 46.872 3.342 51.52 27.318 23.682-6.504 47.793 11.767 47.197 37.133z" fill="#f2f0f0"/></g><path d="m9.689 308.617c6.836 27.937 17.271 54.127 31.347 77.492 20.691 34.345 57.909 55.301 98.006 55.301h233.896c40.097 0 77.315-20.956 98.006-55.301 14.076-23.365 24.511-49.555 31.347-77.492 3.23-13.223 5.667-26.872 7.312-40.827.976-8.17 1.646-16.401 2.073-24.755.531-10.404-7.864-19.118-18.282-19.118h-474.809c-10.418 0-18.813 8.714-18.282 19.118.427 8.354 1.097 16.585 2.073 24.755 1.646 13.955 4.083 27.605 7.313 40.827z" fill="#66d5f2"/><path d="m511.7 243.022c-2.622 50.459-15.155 100.693-40.75 143.089-20.674 34.33-57.889 55.277-97.986 55.277h-38.792c40.098 0 77.312-20.947 97.986-55.277 25.751-42.653 38.134-92.728 40.75-143.089.544-10.391-7.889-19.097-18.28-19.097h38.792c10.391.001 18.77 8.706 18.28 19.097z" opacity=".08"/><path d="m395.787 459.108c0 9.786-7.933 17.719-17.719 17.719h-244.157c-9.786 0-17.719-7.933-17.719-17.719 0-9.786 7.933-17.719 17.719-17.719h244.157c9.786 0 17.719 7.933 17.719 17.719z" fill="#4ec5d8"/><path d="m71.619 371.443c-6.238-9.931-11.791-20.609-16.58-32.016-1.437-3.422-4.729-5.7-8.44-5.7h-.023c-6.563 0-11.001 6.723-8.458 12.773 5.166 12.292 11.16 23.819 17.886 34.571 1.67 2.67 4.636 4.252 7.786 4.252 7.127.001 11.621-7.844 7.829-13.88z" fill="#fff" opacity=".4"/><path d="m374.977 193.965c31.015-20.112 73.596-55.48 96.465-78.35 36.15-36.151 47.223-65.235 36.149-76.309-11.117-11.117-40.2-.043-76.351 36.107-22.869 22.87-58.237 65.451-78.337 96.477 2.66 12.051 10.022 19.406 22.074 22.075z" fill="#c17d61"/><g><g><g fill="#0bad67"><path d="m290.46 100.607c-10.879 0-19.721-8.571-19.721-8.571s8.842-8.604 19.721-8.604c6.455 0 12.193 3.029 15.792 5.493 2.182 1.493 2.179 4.726-.006 6.215-3.599 2.453-9.334 5.467-15.786 5.467z"/><path d="m262.157 72.304c0 10.879 8.571 19.721 8.571 19.721s8.604-8.842 8.604-19.721c0-6.455-3.029-12.193-5.493-15.792-1.493-2.182-4.726-2.179-6.215.006-2.453 3.599-5.467 9.334-5.467 15.786z"/></g><path d="m290.744 84.152c-7.693 7.693-20.005 7.885-20.005 7.885s.168-12.336 7.861-20.029c4.564-4.564 10.764-6.48 15.051-7.283 2.599-.487 4.882 1.801 4.39 4.399-.811 4.28-2.735 10.466-7.297 15.028z" fill="#13bd79"/></g><path d="m291.21 102.055c12.576 6.353 13.788 23.666 2.286 31.82-33.213 23.544-66.197 31.112-81.032 16.216s-7.133-47.848 16.546-80.964c8.201-11.469 25.51-10.186 31.811 2.415 6.763 13.525 16.893 23.696 30.389 30.513z" fill="#ea4e4e"/><path d="m293.509 133.898c-33.239 23.544-66.209 31.123-81.059 16.197-1.616-1.616-3.001-3.463-4.078-5.54 16.581 8.887 45.934.539 75.442-20.351 7.732-5.501 9.695-15.081 6.386-22.698.346.192.654.346 1 .539 12.581 6.347 13.812 23.659 2.309 31.853z" opacity=".08"/></g><g fill="#6d6d6d"><path d="m111.459 201.271c0 8.648-6.974 15.692-15.622 15.692-8.649 0-15.623-7.044-15.623-15.692s6.974-15.622 15.623-15.622c8.648 0 15.622 6.974 15.622 15.622z"/><path d="m174.74 147.709c0 8.648-6.974 15.692-15.622 15.692s-15.623-7.044-15.623-15.692 6.974-15.622 15.623-15.622c8.648 0 15.622 6.974 15.622 15.622z"/><path d="m230.455 201.271c0 8.648-6.974 15.692-15.622 15.692s-15.623-7.044-15.623-15.692 6.974-15.622 15.623-15.622c8.648 0 15.622 6.974 15.622 15.622z"/><path d="m329.353 169.957c0 8.648-6.974 15.692-15.622 15.692s-15.623-7.044-15.623-15.692 6.974-15.622 15.623-15.622c8.648-.001 15.622 6.974 15.622 15.622z"/><path d="m437.024 202.822c0 7.793-6.285 14.141-14.078 14.141-7.794 0-14.079-6.348-14.079-14.141s6.285-14.078 14.079-14.078c7.793 0 14.078 6.285 14.078 14.078z"/></g></g></g></svg>