<?xml version="1.0" encoding="iso-8859-1"?>
<!-- Generator: Adobe Illustrator 19.0.0, SVG Export Plug-In . SVG Version: 6.00 Build 0)  -->
<svg xmlns="http://www.w3.org/2000/svg" xmlns:xlink="http://www.w3.org/1999/xlink" version="1.1" id="Layer_1" x="0px" y="0px" viewBox="0 0 512 512" style="enable-background:new 0 0 512 512;" xml:space="preserve">
<path style="fill:#F99841;" d="M295.515,109.244l-26.29-18.533c-1.937-1.365-4.338-1.902-6.673-1.5  c-2.336,0.404-4.415,1.72-5.781,3.658l-163.8,232.367c-1.745,2.477-2.116,5.673-0.984,8.486c1.132,2.812,3.612,4.859,6.586,5.438  l6.776,1.315c2.071,0.402,4.01,1.232,5.756,2.464c1.731,1.221,3.157,2.766,4.234,4.591l3.516,5.956  c1.541,2.612,4.305,4.265,7.336,4.386c0.122,0.005,0.242,0.008,0.362,0.008c2.898,0,5.624-1.407,7.303-3.788l163.817-232.391  C300.515,117.666,299.55,112.09,295.515,109.244z"/>
<path style="fill:#FFD05C;" d="M360.882,155.323l-26.29-18.533c-4.035-2.843-9.611-1.878-12.455,2.156L158.335,371.313  c-1.746,2.477-2.117,5.674-0.986,8.485c1.129,2.814,3.612,4.86,6.587,5.439l6.776,1.314c2.072,0.403,4.011,1.233,5.755,2.463  c1.731,1.221,3.156,2.767,4.236,4.597l3.518,5.956c1.542,2.611,4.303,4.261,7.336,4.384c0.121,0.007,0.241,0.008,0.361,0.008  c2.899,0,5.626-1.405,7.304-3.786L363.04,167.778C365.881,163.743,364.917,158.168,360.882,155.323z"/>
<path style="fill:#FBB85F;" d="M331.857,138.065c-0.403-2.336-1.719-4.415-3.656-5.781l-26.293-18.533  c-4.038-2.844-9.61-1.879-12.455,2.156L125.652,348.274c-1.748,2.479-2.116,5.673-0.987,8.486c1.132,2.813,3.612,4.86,6.588,5.438  l6.778,1.315c2.075,0.403,4.01,1.232,5.755,2.465c1.732,1.22,3.155,2.762,4.233,4.591l3.518,5.954  c1.543,2.613,4.304,4.263,7.336,4.385c0.12,0.005,0.242,0.008,0.361,0.008c2.899,0,5.627-1.406,7.305-3.787l163.818-232.39  C331.721,142.801,332.26,140.401,331.857,138.065z"/>
<path style="fill:#D1D6E4;" d="M364.669,165.715l34.177-48.734c2.842-4.034,1.878-9.609-2.157-12.454l-91.655-64.612  c-1.937-1.365-4.337-1.903-6.672-1.501c-2.337,0.404-4.416,1.719-5.782,3.656l-34.273,49.134L364.669,165.715z"/>
<path style="fill:#EF5440;" d="M391.553,30.031c-1.765-1.229-3.557-2.476-5.37-3.755l-3.92-2.764  c-1.569-1.107-3.115-2.205-4.629-3.286l-0.742-0.529C362.697,9.567,349.287,0,336.474,0c-9.581,0-17.803,5.056-25.134,15.455  L291.628,43.42l105.97,75.331l20.012-28.386c6.224-8.828,8.582-16.913,7.208-24.717C422.323,51.458,408.079,41.539,391.553,30.031z"/>
<path style="opacity:0.15;fill:#30302F;enable-background:new    ;" d="M274.734,102.714c0.383-0.486,0.8-0.938,1.268-1.333  l-0.001-0.001l33.329-47.781l-0.007-0.004l0.941-1.335l0.01-0.014c0-0.001,0.001-0.001,0.001-0.001l18.761-26.615  c7.33-10.399,15.552-15.455,25.134-15.455c4.46,0,8.993,1.177,13.604,3.116c-2.539-1.733-5.052-3.376-7.543-4.886  c-0.274-0.166-0.548-0.333-0.822-0.495c-0.445-0.264-0.89-0.523-1.333-0.779c-0.335-0.192-0.666-0.379-1.001-0.565  c-0.407-0.228-0.815-0.458-1.222-0.677c-0.536-0.29-1.073-0.566-1.608-0.838c-0.44-0.225-0.882-0.439-1.321-0.652  c-0.467-0.226-0.931-0.448-1.396-0.66c-0.321-0.145-0.64-0.282-0.959-0.42c-0.449-0.195-0.898-0.382-1.346-0.561  c-0.304-0.121-0.608-0.243-0.912-0.358c-0.528-0.2-1.055-0.383-1.581-0.56c-0.215-0.072-0.432-0.154-0.648-0.221  c-0.727-0.232-1.451-0.439-2.175-0.624c-0.213-0.055-0.426-0.098-0.639-0.148c-0.534-0.126-1.068-0.243-1.601-0.341  c-0.254-0.048-0.51-0.089-0.764-0.13c-0.517-0.083-1.032-0.15-1.547-0.206c-0.23-0.024-0.46-0.053-0.689-0.072  C337.934,0.039,337.202,0,336.474,0c-9.581,0-17.803,5.056-25.134,15.455l-18.761,26.615c0,0-0.001,0-0.001,0.001l-0.01,0.014  l-0.941,1.335l0.007,0.004l-33.329,47.781L274.734,102.714z"/>
<g>
	<path style="fill:#D1D6E4;" d="M431.556,465.78H170.815c-4.627,0-8.379-3.752-8.379-8.379c0-4.628,3.751-8.38,8.379-8.38h260.741   c4.629,0,8.381,3.751,8.381,8.38C439.936,462.028,436.185,465.78,431.556,465.78z"/>
	<path style="fill:#D1D6E4;" d="M144.004,465.78H82.625c-4.628,0-8.38-3.752-8.38-8.379c0-4.628,3.751-8.38,8.38-8.38h61.379   c4.628,0,8.379,3.751,8.379,8.38C152.383,462.028,148.632,465.78,144.004,465.78z"/>
	<path style="fill:#D1D6E4;" d="M431.556,512H82.625c-4.628,0-8.38-3.75-8.38-8.378c0-4.629,3.751-8.379,8.38-8.379h348.93   c4.629,0,8.381,3.75,8.381,8.379C439.936,508.25,436.185,512,431.556,512z"/>
</g>
<path style="fill:#415B6B;" d="M124.464,426.693l-31.796-22.415c-2.804-1.976-6.441-2.342-9.579-0.953  c-3.14,1.385-4.131-4.239-4.56-0.834l-6.388,49.677c-0.454,3.589,1.112,7.135,4.066,9.218c1.68,1.184,3.653,1.785,5.635,1.785  c1.507,0,3.021-0.348,4.413-1.052l43.463-22.513c3.062-1.549-1.386-0.789-1.137-4.211  C128.831,431.974,127.268,428.671,124.464,426.693z"/>
<path style="fill:#E2B186;" d="M189.913,369.133c-5.39-3.8-12.087-5.329-18.684-4.202c-1.166,0.202-2.307,0.482-3.414,0.837  c-0.249-7.586-3.918-14.973-10.584-19.672c-4.241-2.989-9.228-4.568-14.423-4.568c-1.426,0-2.858,0.123-4.259,0.365  c-1.166,0.202-2.307,0.482-3.417,0.837c-0.246-7.583-3.916-14.973-10.582-19.671c-4.24-2.991-9.228-4.571-14.425-4.571  c-1.424,0-2.854,0.123-4.257,0.365c-6.563,1.136-12.299,4.758-16.162,10.213l-1.036,1.467c-0.843,1.195-1.38,2.582-1.564,4.033  l-9.223,73.036c0.475,0.262,0.936,0.544,1.385,0.859l46.759,32.962c0.244-0.098,0.486-0.194,0.724-0.313l64.917-32.841  c1.302-0.658,2.426-1.629,3.268-2.822l1.052-1.491C203.887,392.682,201.163,377.064,189.913,369.133z"/>
<path style="opacity:0.15;fill:#30302F;enable-background:new    ;" d="M85.035,462.211l6.262-3.168l17.738-140.502  c-1.063,0.043-2.124,0.132-3.169,0.312c-6.563,1.136-12.299,4.758-16.162,10.213l-1.036,1.467c-0.843,1.195-1.38,2.582-1.564,4.033  l-9.239,73.179c-0.177,1.387-0.014,2.756,0.42,4.019c-0.731,1.115-1.23,2.391-1.403,3.76l-4.748,37.593  c-0.414,3.28,1.016,6.52,3.717,8.425c1.535,1.08,3.339,1.631,5.151,1.631C82.381,463.173,83.762,462.854,85.035,462.211z"/>
<g>
</g>
<g>
</g>
<g>
</g>
<g>
</g>
<g>
</g>
<g>
</g>
<g>
</g>
<g>
</g>
<g>
</g>
<g>
</g>
<g>
</g>
<g>
</g>
<g>
</g>
<g>
</g>
<g>
</g>
</svg>
