<?xml version="1.0" encoding="iso-8859-1"?>
<!-- Generator: Adobe Illustrator 19.0.0, SVG Export Plug-In . SVG Version: 6.00 Build 0)  -->
<svg version="1.1" id="Capa_1" xmlns="http://www.w3.org/2000/svg" xmlns:xlink="http://www.w3.org/1999/xlink" x="0px" y="0px"
	 viewBox="0 0 492.232 492.232" style="enable-background:new 0 0 492.232 492.232;" xml:space="preserve">
<circle style="fill:#FFC107;" cx="310.898" cy="192.782" r="181.333"/>
<path style="fill:#455A64;" d="M441.266,353.593c-3.985-1.654-8.574-0.745-11.627,2.304L383.858,401.7l-67.115-67.115
	c-4.165-4.164-10.917-4.164-15.083,0l-77.803,77.781L18.077,206.564c-4.237-4.093-10.99-3.975-15.083,0.262
	c-3.992,4.134-3.992,10.687,0,14.82L216.328,434.98c4.165,4.164,10.917,4.164,15.083,0l77.781-77.781l59.584,59.584l-45.781,45.781
	c-4.171,4.16-4.179,10.914-0.019,15.085c2.001,2.006,4.717,3.133,7.55,3.134h106.667c5.891,0,10.667-4.776,10.667-10.667V363.449
	C447.858,359.133,445.255,355.242,441.266,353.593z"/>
<g>
	<path style="fill:#FAFAFA;" d="M351.858,267.449h-85.333c-5.891-0.004-10.663-4.784-10.659-10.675
		c0.001-1.143,0.185-2.278,0.547-3.363l19.669-59.051l-18.432-27.733c-1.155-1.732-1.778-3.764-1.792-5.845
		c3.337-26.292,26.95-45.182,53.333-42.667c33.6,0,51.541,10.453,53.333,31.104c0.495,5.891-3.88,11.068-9.771,11.563
		c-5.891,0.495-11.068-3.88-11.563-9.771l0,0c-0.597-7.659-11.371-11.563-32-11.563c-13.505-1.467-26.386,6.055-31.744,18.539
		l19.2,28.885c1.827,2.743,2.284,6.176,1.237,9.301l-16.555,49.941h70.528c5.891,0,10.667,4.776,10.667,10.667
		C362.525,262.673,357.749,267.449,351.858,267.449z"/>
	<path style="fill:#FAFAFA;" d="M309.192,203.449h-64c-5.891,0-10.667-4.776-10.667-10.667c0-5.891,4.776-10.667,10.667-10.667h64
		c5.891,0,10.667,4.776,10.667,10.667C319.858,198.673,315.083,203.449,309.192,203.449z"/>
</g>
<g>
</g>
<g>
</g>
<g>
</g>
<g>
</g>
<g>
</g>
<g>
</g>
<g>
</g>
<g>
</g>
<g>
</g>
<g>
</g>
<g>
</g>
<g>
</g>
<g>
</g>
<g>
</g>
<g>
</g>
</svg>
