<svg id="Capa_1" enable-background="new 0 0 497 497" height="512" viewBox="0 0 497 497" width="512" xmlns="http://www.w3.org/2000/svg"><g><path d="m353.732 52.35-39.796-23.329-8.312-2.146-5.018-5.668-22.434-13.151c-18.323-10.741-41.021-10.741-59.344 0l-75.56 44.294s-90.089 370.236 105.232 370.236 105.232-370.236 105.232-370.236z" fill="#c9f6b0"/><path d="m353.732 52.35-51.087-29.948-2.038-1.195-4.123 4.823c-.258.262-.507.536-.746.822-.406.487-.802.974-1.205 1.461l-.319.373.008.004c-82.747 100.021-106.343 204.47-106.084 291.566.204 68.597 60.062 96.16 122.193 85.621 111.86-72.151 43.401-353.527 43.401-353.527z" fill="#bbf49b"/><path d="m288.862 320.256c.261-87.629-23.616-192.826-107.6-293.404-4.287-5.134-11.637-6.444-17.482-3.194-47.274 26.277-237.553 147.015-99.732 321.821 70.401 89.292 224.486 84.908 224.814-25.223z" fill="#6fd7a3"/><path d="m238.5 112.016c-38.231 72.999-50.55 145.17-50.362 208.24.12 40.235 20.767 66.345 50.353 78.938 29.592-12.593 50.251-38.698 50.371-78.938.188-63.07-12.131-135.241-50.362-208.24z" fill="#3ec3a4"/><path d="m208.138 320.256c-.258-86.837 23.187-190.926 105.338-290.677.153-.186.307-.372.461-.559.597-.723 2.198-1.446 2.801-2.169 4.287-5.134 10.637-5.444 16.482-2.194 24.375 13.549 86.771 51.946 122.604 109.927 33.663 54.469 43.885 126.221-22.873 210.893-70.399 89.294-224.485 84.91-224.813-25.221z" fill="#6fd7a3"/><path d="m333.22 23.658c-5.846-3.249-13.195-1.94-17.482 3.194-.76.91-1.505 1.822-2.255 2.733 59.222 35.44 218.796 151.861 89.469 315.893-28.954 36.723-72.06 57.586-112.805 61.781 48.192 5.307 106.578-15.831 142.805-61.781 137.821-174.805-52.458-295.543-99.732-321.82z" fill="#3ec3a4"/><path d="m272.163 486.47c69.89-60.112 76.821-85.974 15.483-153.461-50.682-55.764-128.289-156.817-244.45-197.704-6.542-2.303-13.728 1.104-16.08 7.629-20.175 55.958-89.612 299.684 208.094 353.349 13.309 2.399 27.065-1.309 36.953-9.813z" fill="#bbf49b"/><path d="m224.837 486.47c-69.89-60.112-76.821-85.974-15.483-153.461 50.682-55.764 128.289-156.817 244.45-197.704 6.542-2.303 12.728 2.104 15.08 8.629 20.175 55.958 86.612 298.684-211.094 352.349-4.2.757-4.445.906-8.599.488-9.008-.907-17.587-4.481-24.354-10.301z" fill="#9be69d"/><path d="m469.884 142.934c-2.352-6.525-9.538-9.932-16.08-7.629-5.024 1.768-9.971 3.656-14.851 5.641.181.317.352.642.51.977.154.327.296.664.421 1.011 19.994 55.455 88.358 295.308-200.155 351.85 6.986 2.267 14.594 2.845 22.061 1.499 297.707-53.665 228.269-297.391 208.094-353.349z" fill="#6fd7a3"/></g></svg>