<svg id="Capa_1" enable-background="new 0 0 512 512" height="512" viewBox="0 0 512 512" width="512" xmlns="http://www.w3.org/2000/svg"><g><path d="m404.006 464.384-356.391-356.391c-17.575-17.565-47.615-5.121-47.615 19.727v356.391c0 15.401 12.486 27.887 27.887 27.887h356.391c24.848.001 37.293-30.04 19.728-47.614zm-312.67-43.721v-139.786l139.785 139.785h-139.785z" fill="#9dc6fb"/><g fill="#80b4fb"><path d="m22.781 484.111v-356.391c0-12.152 7.191-21.323 16.588-25.483-17.363-7.948-39.369 4.214-39.369 25.483v356.391c0 15.401 12.486 27.887 27.887 27.887h22.781c-15.402.001-27.887-12.485-27.887-27.887z"/><path d="m91.336 280.877 139.785 139.785h13.56c3.403 0 5.107-4.114 2.701-6.52l-125.606-125.605c-4.904-4.904-11.556-7.659-18.491-7.659h-11.949z"/></g><g><g><path d="m41.72 172.557c-5.552-5.552-5.552-14.552 0-20.104l25.176-25.176 20.104 20.104-25.176 25.176c-5.552 5.552-14.553 5.552-20.104 0z" fill="#407093"/></g><g><path d="m101.264 232.102c-5.552-5.552-5.552-14.552 0-20.104l25.176-25.176 20.104 20.104-25.176 25.176c-5.551 5.551-14.552 5.551-20.104 0z" fill="#407093"/></g><g><path d="m160.808 291.646c-5.552-5.552-5.552-14.552 0-20.104l25.176-25.176 20.104 20.104-25.176 25.176c-5.551 5.552-14.552 5.552-20.104 0z" fill="#407093"/></g><g><path d="m279.897 410.735c-5.552-5.552-5.552-14.552 0-20.104l25.176-25.176 20.104 20.104-25.176 25.176c-5.552 5.551-14.553 5.551-20.104 0z" fill="#407093"/></g><g><path d="m339.441 470.279c-5.552-5.552-5.552-14.552 0-20.104l25.176-25.176 20.104 20.104-25.176 25.176c-5.551 5.551-14.552 5.551-20.104 0z" fill="#407093"/></g><g><path d="m220.353 351.19c-5.552-5.552-5.552-14.552 0-20.104l25.176-25.176 20.104 20.104-25.176 25.176c-5.552 5.552-14.553 5.552-20.104 0z" fill="#407093"/></g></g><g fill="#ffe07d"><path d="m201.742 145.3.219-2.268c.774-8-4.779-15.233-12.708-16.553l-24.387-4.058c-8.735-1.454-16.874 4.795-17.727 13.609l-.545 5.636c-.852 8.814 5.938 16.507 14.79 16.754l24.713.69c8.035.225 14.871-5.81 15.645-13.81z"/><path d="m222.4 91.358 1.324-1.855c4.67-6.541 3.478-15.582-2.729-20.689l-19.091-15.708c-6.838-5.627-17.011-4.285-22.157 2.922l-3.29 4.609c-5.145 7.207-3.11 17.265 4.432 21.905l21.057 12.954c6.846 4.212 15.784 2.404 20.454-4.138z"/><path d="m265.894 53.302 2.074-.944c7.315-3.33 10.803-11.756 7.981-19.281l-8.679-23.149c-3.109-8.292-12.59-12.216-20.649-8.547l-5.154 2.346c-8.06 3.669-11.326 13.396-7.114 21.186l11.759 21.747c3.823 7.07 12.467 9.972 19.782 6.642z"/></g><g><path d="m357.392 244.975-1.389 1.39c-9.268 9.268-21.227 15.373-34.161 17.443l-27.885 4.471-26.755-1.583c-12.846 2.055-23.947-9.047-21.885-21.885l-1.589-26.75 4.469-27.897c2.069-12.934 8.175-24.893 17.443-34.161l1.39-1.39c3.104 1.316 45.107-35.868 47.635-33.341 10.503 10.503 65.566 65.566 76.069 76.069 2.526 2.527-34.658 44.529-33.342 47.634z" fill="#ffece4"/><path d="m500.278 45.495-33.769-33.769c-15.63-15.63-40.97-15.63-56.6 0l-17.089 17.088 27.87 62.499 62.499 27.87 17.089-17.089c15.629-15.629 15.629-40.969 0-56.599z" fill="#e28086"/><path d="m439.17 99.553-18.485-8.241-27.865-62.498 17.088-17.088c15.632-15.632 40.969-15.632 56.601 0l26.719 26.719c-15.625-15.625-40.969-15.632-56.601 0l-17.088 17.088z" fill="#dd636e"/><path d="m448.562 153.815-91.17 91.17c-1.315-3.111-3.222-6.01-5.75-8.537-5.593-5.593-13.038-8.204-20.362-7.852-6.426.324-12.76 2.945-17.677 7.852 4.917-4.908 7.528-11.25 7.852-17.677.361-7.324-2.259-14.76-7.852-20.353-10.5-10.5-27.529-10.5-38.029 0 10.5-10.5 10.5-27.529 0-38.039-2.528-2.528-5.435-4.435-8.537-5.75l91.17-91.17 62.484 27.853z" fill="#a2e19f"/><path d="m429.95 129.925-98.671 98.671c-6.426.324-12.76 2.945-17.677 7.852 4.917-4.908 7.528-11.25 7.852-17.677l98.671-98.671c2.713-2.713 7.111-2.713 9.824 0 2.714 2.714 2.714 7.112.001 9.825z" fill="#97cf92"/><path d="m248.651 259.32c-4.124-4.124-4.362-8.087-3.335-14.51l-1.589-26.75 4.469-27.897c2.069-12.934 8.174-24.893 17.443-34.161l1.39-1.39c3.104 1.316 45.108-35.869 47.635-33.341l17.384 17.384-41.878 41.878c-9.268 9.268-16.963 19.638-21.981 29.623l-23.925 47.591c-2.491 4.959 2.502-.312 4.387 1.573z" fill="#ffddce"/><path d="m290.164 180.532c-3.296 3.296-6.393 6.733-9.239 10.244 4.649-9.956 2.86-22.181-5.359-30.399-2.528-2.528-5.432-4.442-8.537-5.758l91.169-91.169 62.484 27.864-37.961-3.341z" fill="#97cf92"/><path d="m448.56 153.813-90.369-90.369c-9.562-9.563-9.562-25.066 0-34.629 9.562-9.563 25.066-9.563 34.629 0l90.369 90.369c9.562 9.562 9.562 25.066 0 34.629-9.563 9.562-25.066 9.562-34.629 0z" fill="#ffe07d"/><path d="m396.099 101.343-37.901-37.901c-9.564-9.564-9.564-25.071-.007-34.627 4.782-4.782 11.05-7.177 17.317-7.177 6.268 0 12.535 2.395 17.317 7.177l37.901 37.901c-4.782-4.782-11.05-7.177-17.317-7.177-6.268 0-12.535 2.395-17.317 7.177-9.557 9.556-9.557 25.063.007 34.627z" fill="#f1cb86"/><path d="m293.957 268.283-33.748 5.41c-6.423 1.027-12.41-1.234-16.534-5.359-4.124-4.124-6.378-10.103-5.351-16.526l5.41-33.748z" fill="#4a80aa"/><path d="m243.675 268.335c-4.124-4.124-6.378-10.103-5.351-16.526l5.41-33.748 13.629 13.629-13.097 26.061c-2.49 4.959-2.475 8.699-.591 10.584z" fill="#407093"/><path d="m357.399 244.989-.008-.008" fill="#9cc6fa"/></g></g></svg>