<svg id="Capa_1" enable-background="new 0 0 512 512" height="512" viewBox="0 0 512 512" width="512" xmlns="http://www.w3.org/2000/svg"><g><g><path d="m15 256c0 97.093 78.709 175.802 175.802 175.802l10-175.802-10-175.802c-97.093 0-175.802 78.709-175.802 175.802z" fill="#ff5b5b"/><path d="m376.5 190.802h-22.392c-25.898-64.811-89.251-110.604-163.306-110.604v351.603h185.698c66.55 0 120.5-53.95 120.5-120.5s-53.95-120.499-120.5-120.499z" fill="#c83c50"/></g><g><path d="m75 256c0 63.955 51.846 115.802 115.802 115.802l10-115.802-10-115.802c-63.956 0-115.802 51.846-115.802 115.802z" fill="#c83c50"/><path d="m376.5 250.802h-70.019c-2.72-61.542-53.467-110.603-115.68-110.603v231.603h185.699c33.413 0 60.5-27.087 60.5-60.5s-27.087-60.5-60.5-60.5z" fill="#962a3a"/></g><g><path d="m30 256c0-88.666 72.135-160.802 160.802-160.802l10-15-10-15c-105.209 0-190.802 85.594-190.802 190.802s85.593 190.802 190.802 190.802l10-15-10-15c-88.667 0-160.802-72.136-160.802-160.802z" fill="#ffe477"/><path d="m376.5 175.802h-12.528c-14.334-30.958-36.625-57.415-64.939-76.952-31.906-22.015-69.332-33.651-108.231-33.651v30c32.786 0 64.319 9.801 91.193 28.344 26.27 18.127 46.39 43.31 58.185 72.826l3.77 9.434h32.55c58.173 0 105.5 47.327 105.5 105.5s-47.327 105.5-105.5 105.5h-185.698v30h185.698c74.715 0 135.5-60.785 135.5-135.5s-60.785-135.501-135.5-135.501z" fill="#ffb655"/></g><g><path d="m160.802 256c0 16.569 13.431 30 30 30l10-30-10-30c-16.569 0-30 13.431-30 30z" fill="#fff5f5"/><path d="m190.802 226v60c16.569 0 30-13.431 30-30s-13.432-30-30-30z" fill="#ebe1dc"/></g></g></svg>