<svg id="Layer_1" height="512" viewBox="0 0 128 128" width="512" xmlns="http://www.w3.org/2000/svg" data-name="Layer 1"><path d="m116.118 21.192-12.31 100.308h-79.616l-12.31-100.308z" fill="#e1ebf0"/><path d="m83.9 22.942h-39.8a1.749 1.749 0 0 1 -1.75-1.75v-14.692a1.75 1.75 0 0 1 1.75-1.75h39.8a1.75 1.75 0 0 1 1.75 1.75v14.692a1.749 1.749 0 0 1 -1.75 1.75zm-38.058-3.5h36.312v-11.192h-36.308z" fill="#e1ebf0"/><g fill="#e97b83"><path d="m59.5-34.808h9v115h-9z" transform="matrix(0 1 -1 0 86.692 -41.308)"/><path d="m80.904 47.75h6v50.192h-6z"/><path d="m61 47.75h6v50.192h-6z"/><path d="m41.096 47.75h6v50.192h-6z"/></g></svg>