<svg id="Capa_1" enable-background="new 0 0 512 512" height="512" viewBox="0 0 512 512" width="512" xmlns="http://www.w3.org/2000/svg"><g><path d="m479.106 256c0-25.842 27.998-55.807 20.427-79.125-7.847-24.167-48.373-31.893-63.013-52.009-14.786-20.317-9.713-61.197-30.03-75.983-20.116-14.64-57.356 2.717-81.523-5.13-23.318-7.571-43.125-43.753-68.967-43.753s-45.649 36.182-68.967 43.753c-24.167 7.847-61.407-9.51-81.523 5.13-20.317 14.786-15.244 55.666-30.03 75.983-14.64 20.116-55.166 27.841-63.013 52.009-7.571 23.317 20.427 53.283 20.427 79.125s-27.998 55.807-20.427 79.125c7.847 24.167 48.373 31.893 63.013 52.009 14.786 20.317 9.713 61.197 30.03 75.983 20.116 14.64 57.356-2.717 81.523 5.13 23.318 7.571 43.125 43.753 68.967 43.753s45.649-36.182 68.967-43.753c24.167-7.847 61.407 9.51 81.523-5.13 20.317-14.786 15.244-55.666 30.03-75.983 14.64-20.116 55.166-27.841 63.013-52.009 7.571-23.317-20.427-53.283-20.427-79.125z" fill="#f6e781"/><circle cx="256" cy="256" fill="#f4dd45" r="166.973"/><path d="m294.826 418.439c-12.455 2.967-25.456 4.533-38.828 4.533-92.212 0-166.972-74.75-166.972-166.972s74.76-166.972 166.972-166.972c13.372 0 26.373 1.566 38.828 4.533-73.493 17.503-128.144 83.589-128.144 162.439s54.651 144.936 128.144 162.439z" fill="#ecc32e"/></g></svg>