<?xml version="1.0" encoding="iso-8859-1"?>
<!-- Generator: Adobe Illustrator 19.0.0, SVG Export Plug-In . SVG Version: 6.00 Build 0)  -->
<svg version="1.1" id="Capa_1" xmlns="http://www.w3.org/2000/svg" xmlns:xlink="http://www.w3.org/1999/xlink" x="0px" y="0px"
	 viewBox="0 0 512.011 512.011" style="enable-background:new 0 0 512.011 512.011;" xml:space="preserve">
<path style="fill:#E8EAEA;" d="M374.052,312.789c-26.528-0.064-59.403,60.352-59.403,60.352
	c-25.952,25.749-86.005,7.52-134.144-40.683c-48.139-48.224-66.112-108.192-40.181-133.92c0,0,59.339-33.92,59.413-60.373
	C199.844,89.44,110.681,0.128,61.796,0C50.83-0.021,30.681,30.88,30.681,30.88c-67.019,66.475-20.565,221.333,103.755,345.856
	S413.87,548.32,480.889,481.845c0,0,31.093-19.936,31.115-30.88C512.121,402.229,422.948,312.896,374.052,312.789"/>
<g>
	<path style="fill:#ACB3BA;" d="M173.998,175.125c14.08-12.853,25.728-26.56,25.749-36.96C199.844,89.44,110.681,0.128,61.796,0
		C50.83-0.021,30.67,30.88,30.67,30.88c-0.117,0.117-0.224,0.245-0.331,0.352L173.998,175.125z"/>
	<path style="fill:#ACB3BA;" d="M336.868,338.272l143.659,143.893c0.117-0.128,0.235-0.224,0.363-0.331
		c0,0,31.093-19.936,31.115-30.88c0.117-48.725-89.056-138.059-137.952-138.165C363.652,312.768,349.828,324.288,336.868,338.272"/>
</g>
<path style="fill:#4CDBC4;" d="M511.993,105.184c0,58.123-61.653,105.291-137.813,105.291c-2.251,0-4.373,0-6.507-0.128
	L289.7,251.531v-63.253c-32.437-19.211-53.227-49.291-53.227-83.104c0-58.016,61.643-105.163,137.707-105.163
	C450.34,0.021,511.993,47.168,511.993,105.184"/>
<g>
	<path style="fill:#FFFFFF;" d="M327.332,105.205c0,12.629-10.229,22.859-22.859,22.859s-22.859-10.229-22.859-22.859
		c0-12.608,10.229-22.837,22.859-22.837S327.332,92.608,327.332,105.205"/>
	<path style="fill:#FFFFFF;" d="M397.081,105.205c0,12.629-10.229,22.859-22.859,22.859c-12.629,0-22.859-10.229-22.859-22.859
		c0-12.608,10.229-22.837,22.859-22.837C386.852,82.368,397.081,92.608,397.081,105.205"/>
	<path style="fill:#FFFFFF;" d="M466.82,105.205c0,12.629-10.229,22.859-22.848,22.859c-12.629,0-22.859-10.229-22.859-22.859
		c0-12.608,10.229-22.837,22.859-22.837C456.59,82.379,466.82,92.608,466.82,105.205"/>
</g>
<g>
</g>
<g>
</g>
<g>
</g>
<g>
</g>
<g>
</g>
<g>
</g>
<g>
</g>
<g>
</g>
<g>
</g>
<g>
</g>
<g>
</g>
<g>
</g>
<g>
</g>
<g>
</g>
<g>
</g>
</svg>
