<svg id="color" enable-background="new 0 0 24 24" height="512" viewBox="0 0 24 24" width="512" xmlns="http://www.w3.org/2000/svg"><path d="m16 22h-2v-2h-4v2h-2c-.552 0-1 .447-1 1s.448 1 1 1h8c.553 0 1-.447 1-1s-.447-1-1-1z" fill="#90a4ae"/><path d="m22.25 4h-20.5c-.965 0-1.75.785-1.75 1.75v12.5c0 .965.785 1.75 1.75 1.75h20.5c.965 0 1.75-.785 1.75-1.75v-12.5c0-.965-.785-1.75-1.75-1.75z" fill="#607d8b"/><path d="m22 18h-20v-12h20z" fill="#fafafa"/><path d="m12 20h-2v2h-2c-.552 0-1 .447-1 1s.448 1 1 1h4z" fill="#7d8f97"/><path d="m12 4h-10.25c-.965 0-1.75.785-1.75 1.75v12.5c0 .965.785 1.75 1.75 1.75h10.25v-2h-10v-12h10z" fill="#546d79"/><path d="m12 6h-10v12h10z" fill="#dadada"/><path d="m11.058 17c-.061 0-.123-.009-.183-.029-.252-.083-.408-.322-.375-.573l.483-3.684h-1.425c-.209 0-.401-.111-.498-.287s-.083-.39.036-.554l3.375-4.643c.149-.205.428-.284.67-.193.243.092.388.331.349.578l-.465 2.956h1.409c.203 0 .39.104.49.272s.097.374-.007.54l-3.375 5.357c-.105.165-.291.26-.484.26z" fill="#ffc107"/><path d="m14.433 10.57h-1.409l-2.041 2.144-.483 3.683c-.033.251.123.49.375.573l.183.03c.193 0 .378-.096.482-.261l3.375-5.357c.105-.165.107-.371.007-.539-.099-.168-.286-.273-.489-.273z" fill="#dea806"/></svg>