<?xml version="1.0" encoding="iso-8859-1"?>
<!-- Generator: Adobe Illustrator 19.0.0, SVG Export Plug-In . SVG Version: 6.00 Build 0)  -->
<svg version="1.1" id="Capa_1" xmlns="http://www.w3.org/2000/svg" xmlns:xlink="http://www.w3.org/1999/xlink" x="0px" y="0px"
	 viewBox="0 0 468.293 468.293" style="enable-background:new 0 0 468.293 468.293;" xml:space="preserve">
<rect x="309.647" y="303.315" transform="matrix(-0.7071 0.7071 -0.7071 -0.7071 788.4202 324.9925)" style="fill:#3B566A;" width="34.51" height="44.938"/>
<path style="fill:#647989;" d="M317.081,318.19c-72.442,72.442-190.31,72.443-262.749,0.004
	c-72.442-72.442-72.442-190.311,0-262.753c72.438-72.438,190.306-72.439,262.749,0.004
	C389.519,127.884,389.519,245.752,317.081,318.19z"/>
<ellipse style="fill:#E0E5E8;" cx="185.704" cy="186.833" rx="162.779" ry="162.779"/>
<path style="fill:#DA8542;" d="M298.096,135.372v102.891c0,1.387-0.241,2.714-0.663,3.92c-1.629,4.764-6.091,8.142-11.399,8.142
	H85.378c-5.247,0-9.77-3.377-11.398-8.142c-0.423-1.206-0.664-2.533-0.664-3.92V135.372c0-1.387,0.241-2.714,0.664-3.98
	c1.688-4.704,6.151-8.082,11.398-8.082h200.656c5.307,0,9.77,3.377,11.399,8.082C297.854,132.658,298.096,133.985,298.096,135.372z"
	/>
<path style="fill:#F4C158;" d="M297.433,242.184c-1.629,4.764-6.091,8.142-11.399,8.142H85.378c-5.247,0-9.77-3.377-11.398-8.142
	l86.727-55.667l25.029-16.043l25.029,16.043L297.433,242.184z"/>
<path style="fill:#FAD362;" d="M297.433,131.392l-86.667,55.125l-14.535,9.227c-6.272,4.463-14.716,4.463-20.988,0l-14.535-9.227
	L73.98,131.392c1.688-4.704,6.151-8.082,11.398-8.082h200.656C291.341,123.31,295.804,126.687,297.433,131.392z"/>
<path style="fill:#647989;" d="M375.337,317.261l80.001,80.001c15.577,15.577,17.164,41.241,1.993,57.306
	c-15.659,16.553-41.77,16.797-57.753,0.813l-81.181-81.181c-2.237-2.237-2.237-5.897,0-8.134l48.806-48.806
	C369.44,315.024,373.101,315.024,375.337,317.261z"/>
<path style="fill:#E56354;" d="M451.068,392.991l5.45,5.45c15.699,15.699,15.7,41.241,0,56.94c-15.739,15.739-41.241,15.699-56.94,0
	l-5.45-5.45L451.068,392.991z"/>
<rect x="324.268" y="354.78" transform="matrix(-0.7071 0.7071 -0.7071 -0.7071 879.2631 362.6149)" style="fill:#E0E5E8;" width="80.528" height="17.258"/>
<g>
</g>
<g>
</g>
<g>
</g>
<g>
</g>
<g>
</g>
<g>
</g>
<g>
</g>
<g>
</g>
<g>
</g>
<g>
</g>
<g>
</g>
<g>
</g>
<g>
</g>
<g>
</g>
<g>
</g>
</svg>
