<svg id="Capa_1" enable-background="new 0 0 509.469 509.469" height="512" viewBox="0 0 509.469 509.469" width="512" xmlns="http://www.w3.org/2000/svg"><g><path id="XMLID_570_" d="m347.742 168.26c-.044-.061-47.475 3.775-62.768-17.541-18.285-25.486-4.971-76.873-5.026-76.951 39.805-37.526 94.758-45.124 97.076-45.429l16.217-2.133.725 16.341c.124 2.782 2.563 68.692-37.174 116.052-1.224 1.366-3.824 4.55-9.05 9.661z" fill="#5fa794"/><path id="XMLID_573_" d="m164.191 170.631c-6.36-5.935-9.732-10.044-11.533-12.032-39.738-47.36-37.299-113.269-37.176-116.052l.724-16.341 16.218 2.133c2.319.305 57.272 7.902 97.076 45.429-.038.057 5.26 49.822-12.525 76.201-13.505 20.03-50.899 17.865-52.784 20.662z" fill="#73ca7a"/><path id="XMLID_576_" d="m299.055 142.409c-.06 0-17.196 10-44.331 10-27.13-.001-54.261-.001-54.33-.001-2.798-14.001-2.603-23.326-2.841-27.566 0-61.822 44.235-110.744 46.118-112.796l11.054-12.046 1.051 12.047c1.883 2.052 46.114 50.973 46.118 112.794-.12 2.167.094 2.887-2.839 17.568z" fill="#b9e68b"/><path id="XMLID_579_" d="m265.776 12.047-11.042-12.037v152.399h54.32c2.934-14.682 2.719-25.401 2.84-27.568-.003-61.821-44.235-110.742-46.118-112.794z" fill="#73ca7a"/><path id="XMLID_582_" d="m283.635 499.469-28.901 10h-38.92c-65.609 0-118.59-53.258-118.59-118.589v-137.821c0-65.525 53.132-118.59 118.59-118.59h38.91l28.911 10c65.741 0 118.589 53.377 118.589 118.59-.198 145.692.45 119.254-.592 129.707-5.987 60.073-56.663 106.703-117.997 106.703z" fill="#f6e486"/><path id="XMLID_585_" d="m412.224 253.059c0-65.213-52.848-118.59-118.589-118.59h-38.9v375h38.9c61.334 0 112.01-46.63 117.997-106.703 1.042-10.454.393-4.015.592-149.707z" fill="#f0ce46"/><path id="XMLID_588_" d="m165.336 230.976h30v31.888h-30z" fill="#f0ce46" transform="matrix(.707 -.707 .707 .707 -121.782 199.851)"/><path id="XMLID_591_" d="m312.555 230.976h30v31.888h-30z" fill="#e8a43e" transform="matrix(.707 -.707 .707 .707 -78.658 303.955)"/><path id="XMLID_594_" d="m165.337 302.251h30v31.889h-30z" fill="#f0ce46" transform="matrix(.707 -.707 .707 .707 -172.179 220.714)"/><path id="XMLID_597_" d="m312.555 302.251h30v31.889h-30z" fill="#e8a43e" transform="matrix(.707 -.707 .707 .707 -129.06 324.814)"/><path id="XMLID_600_" d="m165.337 377.251h30v31.889h-30z" fill="#f0ce46" transform="matrix(.707 -.707 .707 .707 -225.212 242.681)"/><path id="XMLID_603_" d="m312.555 377.251h30v31.889h-30z" fill="#e8a43e" transform="matrix(.707 -.707 .707 .707 -182.093 346.781)"/><path id="XMLID_610_" d="m254.724 268.135-21.213-21.214 21.213-21.213 21.212 21.214zm21.213 50.06-21.212-21.213-21.213 21.213 21.213 21.213zm0 75-21.212-21.213-21.213 21.213 21.213 21.213z" fill="#f0ce46"/><g fill="#e8a43e"><path id="XMLID_617_" d="m254.734 225.719v42.405l21.203-21.202z"/><path id="XMLID_620_" d="m254.734 414.397 21.203-21.202-21.203-21.203z"/><path id="XMLID_623_" d="m254.734 339.397 21.203-21.202-21.203-21.203z"/></g></g></svg>