<?xml version="1.0" encoding="iso-8859-1"?>
<!-- Generator: Adobe Illustrator 19.0.0, SVG Export Plug-In . SVG Version: 6.00 Build 0)  -->
<svg version="1.1" id="Capa_1" xmlns="http://www.w3.org/2000/svg" xmlns:xlink="http://www.w3.org/1999/xlink" x="0px" y="0px"
	 viewBox="0 0 512 512" style="enable-background:new 0 0 512 512;" xml:space="preserve">
<g>
	<path style="fill:#8CC63E;" d="M373.552,349.36c0,64.96-52.64,117.6-117.6,117.6C255.968,402,308.592,349.36,373.552,349.36z"/>
	<path style="fill:#8CC63E;" d="M255.968,466.96c-64.96,0-117.6-52.64-117.6-117.6C203.328,349.36,255.968,402,255.968,466.96z"/>
</g>
<rect x="245.312" y="186.8" style="fill:#8F6D52;" width="21.408" height="325.2"/>
<path style="fill:#E14B4B;" d="M400.24,143.712c-7.424,0-33.84,3.392-62.048,9.056c23.936-15.952,45.024-32.224,50.272-37.472
	c12.576-12.576,16.48-43.76-0.352-60.576c-16.832-16.832-48-12.928-60.576-0.352c-5.248,5.248-21.52,26.336-37.472,50.272
	c5.648-28.208,9.056-54.624,9.056-62.048C299.104,24.8,279.808,0,256.016,0s-43.088,24.8-43.088,42.592
	c0,7.424,3.392,33.84,9.056,62.048c-15.952-23.936-32.224-45.024-37.472-50.272c-12.576-12.576-43.76-16.48-60.576,0.352
	c-16.832,16.832-12.928,48-0.352,60.576c5.248,5.248,26.336,21.52,50.272,37.472c-28.208-5.648-54.624-9.056-62.064-9.056
	C94,143.712,69.2,163.008,69.2,186.8s24.8,43.088,42.592,43.088c7.424,0,33.84-3.392,62.048-9.056
	c-23.936,15.952-45.024,32.224-50.272,37.472c-12.576,12.576-16.48,43.76,0.352,60.576c16.832,16.832,48,12.928,60.576,0.352
	c5.248-5.248,21.52-26.336,37.472-50.272c-5.648,28.208-9.056,54.624-9.056,62.048c0,17.792,19.296,42.592,43.088,42.592
	c23.792,0,43.088-24.8,43.088-42.592c0-7.424-3.392-33.84-9.056-62.048c15.952,23.936,32.224,45.024,37.472,50.272
	c12.576,12.576,43.76,16.48,60.576-0.352c16.832-16.832,12.928-48,0.352-60.576c-5.248-5.248-26.336-21.52-50.272-37.472
	c28.208,5.648,54.624,9.056,62.048,9.056c17.792,0,42.592-19.296,42.592-43.088C442.816,163.008,418.016,143.712,400.24,143.712z"/>
<circle style="fill:#D03F3F;" cx="256.016" cy="186.8" r="71.104"/>
<circle style="fill:#FFD83B;" cx="256.016" cy="186.8" r="45.84"/>
<g>
</g>
<g>
</g>
<g>
</g>
<g>
</g>
<g>
</g>
<g>
</g>
<g>
</g>
<g>
</g>
<g>
</g>
<g>
</g>
<g>
</g>
<g>
</g>
<g>
</g>
<g>
</g>
<g>
</g>
</svg>
