<svg height="511pt" viewBox="0 -31 511.9994 511" width="511pt" xmlns="http://www.w3.org/2000/svg"><path d="m287.878906 63.125-10.316406-50.597656c-1.425781-7-7.582031-12.027344-14.726562-12.027344h-151.496094c-7.140625 0-13.296875 5.027344-14.726563 12.027344l-10.316406 50.597656c-.898437 4.421875.234375 9.011719 3.085937 12.507812 2.855469 3.496094 7.128907 5.523438 11.640626 5.523438h172.128906c4.511718 0 8.785156-2.027344 11.640625-5.523438 2.855469-3.496093 3.988281-8.085937 3.085937-12.507812zm0 0" fill="#fccb4f"/><path d="m287.878906 63.125-10.316406-50.597656c-1.425781-7-7.582031-12.027344-14.726562-12.027344h-9.152344v80.65625h19.46875c4.511718 0 8.785156-2.027344 11.640625-5.523438 2.855469-3.496093 3.988281-8.085937 3.085937-12.507812zm0 0" fill="#efa91d"/><path d="m496.96875 51.097656h-424.992188c-8.296874 0-15.027343 6.730469-15.027343 15.027344v324.445312c0 8.300782 6.730469 15.027344 15.027343 15.027344h424.992188c8.300781 0 15.03125-6.726562 15.03125-15.027344v-324.445312c0-8.296875-6.730469-15.027344-15.03125-15.027344zm0 0" fill="#ffd561"/><path d="m496.96875 51.097656h-243.285156v354.5h243.285156c8.300781 0 15.03125-6.726562 15.03125-15.027344v-324.445312c0-8.296875-6.730469-15.027344-15.03125-15.027344zm0 0" fill="#ffbf31"/><path d="m431.984375 341.695312h-106.25c-8.300781 0-15.027344-6.730468-15.027344-15.03125 0-8.296874 6.726563-15.027343 15.027344-15.027343h106.25c8.300781 0 15.027344 6.730469 15.027344 15.027343 0 8.300782-6.726563 15.03125-15.027344 15.03125zm0 0" fill="#87e4f9"/><path d="m196.246094 332.613281c-1.65625-5.109375-5.914063-8.941406-11.167969-10.058593l-48.683594-10.347657-24.886719-43.105469c-2.683593-4.648437-7.648437-7.515624-13.015624-7.515624-5.371094 0-10.332032 2.867187-13.015626 7.515624l-24.886718 43.105469-48.683594 10.347657c-5.253906 1.117187-9.511719 4.949218-11.171875 10.058593-1.65625 5.105469-.464844 10.710938 3.125 14.699219l33.304687 36.988281-5.203124 49.5c-.558594 5.339844 1.769531 10.574219 6.113281 13.730469 2.613281 1.898438 5.710937 2.871094 8.835937 2.871094 2.070313 0 4.15625-.429688 6.113282-1.300782l45.46875-20.242187 45.46875 20.242187c4.90625 2.183594 10.601562 1.585938 14.949218-1.570312 4.34375-3.15625 6.671875-8.390625 6.113282-13.730469l-5.203126-49.496093 33.304688-36.992188c3.589844-3.988281 4.78125-9.59375 3.121094-14.699219zm0 0" fill="#ff8a33"/></svg>