<svg id="Layer_1" enable-background="new 0 0 512 512" height="512" viewBox="0 0 512 512" width="512" xmlns="http://www.w3.org/2000/svg"><g clip-rule="evenodd" fill-rule="evenodd"><g><path d="m402.411 73.48v418.52c0 5.508-4.492 10-10 10h-326.302c-5.508 0-10-4.492-10-10v-418.52c0-5.508 4.492-10 10-10h326.302c5.507 0 10 4.492 10 10z" fill="#ccc"/><path d="m119.589 10h260.855c2.754 0 5.124.982 7.071 2.929l65.447 65.447c1.947 1.947 2.929 4.317 2.929 7.071v353.073c0 5.508-4.492 10-10 10h-326.302c-5.508 0-10-4.492-10-10v-418.52c0-5.508 4.492-10 10-10z" fill="#e6e6e6"/><path d="m384.586 81.304h17.824 52.613c-.485-1.062-1.173-2.04-2.062-2.929l-65.447-65.447c-.889-.889-1.867-1.577-2.929-2.062v52.614 17.824z" fill="#ccc"/></g><g><path d="m330.202 223.141c-5.523 0-10-4.477-10-10s4.477-10 10-10h60.094c5.523 0 10 4.477 10 10s-4.477 10-10 10zm-155.018 107.668c-5.523 0-10-4.477-10-10s4.477-10 10-10h215.111c5.523 0 10 4.477 10 10s-4.477 10-10 10zm.001 53.835c-5.523 0-10-4.477-10-10s4.477-10 10-10h215.11c5.523 0 10 4.477 10 10s-4.477 10-10 10zm129.85-107.669c-5.523 0-10-4.477-10-10s4.477-10 10-10h85.26c5.523 0 10 4.477 10 10s-4.477 10-10 10z" fill="#515151"/><path d="m179.157 319.482 49.446-28.547 91.853-159.095c8.517-14.752 3.463-33.614-11.289-42.13-14.751-8.517-33.613-3.463-42.13 11.289l-91.854 159.095v57.095c0 .973.482 1.808 1.324 2.294.843.485 1.807.485 2.65-.001z" fill="#ccc"/><path d="m256.367 119.478 53.419 30.841 10.67-18.48c8.517-14.752 3.463-33.614-11.289-42.13-14.751-8.517-33.613-3.463-42.13 11.289z" fill="#ffd54f"/><path d="m161.301 174.365h162.368v61.683h-162.368z" fill="#ffc107" transform="matrix(.5 -.866 .866 .5 -56.472 312.6)"/></g></g></svg>