<?xml version="1.0" encoding="iso-8859-1"?>
<!-- Generator: Adobe Illustrator 19.0.0, SVG Export Plug-In . SVG Version: 6.00 Build 0)  -->
<svg xmlns="http://www.w3.org/2000/svg" xmlns:xlink="http://www.w3.org/1999/xlink" version="1.1" id="Layer_1" x="0px" y="0px" viewBox="0 0 512 512" style="enable-background:new 0 0 512 512;" xml:space="preserve">
<path style="fill:#FDC000;" d="M271.088,237.391h13.077v-30.177h-13.077v-15.4h58.151l8.188-8.288  c23.196-23.488,35.971-54.61,35.971-87.623c0-33.004-12.775-64.126-35.971-87.613L329.239,0H182.761l-8.188,8.289  c-23.196,23.488-35.971,54.61-35.971,87.613c0,33.013,12.775,64.136,35.971,87.623l8.188,8.288h58.151v15.4h-13.077v30.177h13.077  V512h30.177v-50.124h10.642v16.597h30.177v-16.597h10.813v30.338h30.177v-60.515h-81.809L271.088,237.391L271.088,237.391z   M213.501,75.442V45.265h84.998v30.177H213.501z"/>
<path style="fill:#D9A600;" d="M271.088,431.699h81.809v60.515H322.72v-30.338h-10.813v16.597H281.73v-16.597h-10.642V512H256.12  V75.442h42.378V45.265H256.12V0h73.118l8.188,8.289c23.196,23.488,35.971,54.61,35.971,87.613c0,33.013-12.775,64.136-35.971,87.623  l-8.188,8.288h-58.151v15.4h13.077v30.177h-13.077L271.088,431.699L271.088,431.699z"/>
<g>
</g>
<g>
</g>
<g>
</g>
<g>
</g>
<g>
</g>
<g>
</g>
<g>
</g>
<g>
</g>
<g>
</g>
<g>
</g>
<g>
</g>
<g>
</g>
<g>
</g>
<g>
</g>
<g>
</g>
</svg>
