<svg id="icon" height="512" viewBox="0 0 128 128" width="512" xmlns="http://www.w3.org/2000/svg"><g fill="#eeefee"><path d="m44.719 79.421-7.365-39.188h65.646a1 1 0 0 1 .974 1.246l-7.928 31.91a1 1 0 0 1 -.87.756zm-4.4-36.835 6.217 34.281 47.451-4.967 7.282-29.314z"/><path d="m40.273 46.36h60.979v2.354h-60.979z"/><path d="m41.905 53.358h57.606v2.354h-57.606z"/><path d="m43.544 60.355h54.233v2.354h-54.233z"/><path d="m43.895 67.345h52.141v2.354h-52.141z"/><path d="m89.391 41.41h2.354v32.023h-2.354z"/><path d="m79.506 41.41h2.354v33.043h-2.354z"/><path d="m69.629 41.41h2.354v34.063h-2.354z"/><path d="m59.752 41.41h2.354v35.083h-2.354z"/><path d="m49.868 41.41h2.354v36.103h-2.354z"/></g><path d="m57.365 94.927a6.023 6.023 0 1 1 -6.016-6.03 6.008 6.008 0 0 1 6.016 6.03z" fill="#414451"/><path d="m51.348 97.646a2.726 2.726 0 1 1 2.721-2.72 2.729 2.729 0 0 1 -2.721 2.72z" fill="#dbd8dd"/><path d="m86.664 94.927a6.023 6.023 0 1 1 -6.016-6.03 6.008 6.008 0 0 1 6.016 6.03z" fill="#414451"/><path d="m80.647 97.646a2.726 2.726 0 1 1 2.72-2.72 2.729 2.729 0 0 1 -2.72 2.72z" fill="#dbd8dd"/><path d="m92.783 86.426h-49.915a4.989 4.989 0 1 1 0-9.977h.675l-6.635-38.73h-9.466a1.493 1.493 0 0 1 0-2.986h10.724a1.493 1.493 0 0 1 1.471 1.241l7.147 41.715a1.492 1.492 0 0 1 -1.471 1.745h-2.445a2 2 0 1 0 0 4.006h49.915a1.493 1.493 0 0 1 0 2.986z" fill="#eeefee"/><path d="m32.046 34.106v4.108a.215.215 0 0 1 -.215.215h-7.562a2.269 2.269 0 0 1 -2.269-2.269 2.269 2.269 0 0 1 2.269-2.269h7.562a.215.215 0 0 1 .215.215z" fill="#575b6d"/><path d="m84.105 44.487a13.445 13.445 0 1 1 -13.444-13.43 13.452 13.452 0 0 1 13.444 13.43z" fill="#ef5261"/><path d="m75.614 45.269-4.955 6.7-4.951-6.7h2.602v-8.249h4.698v8.249z" fill="#eeefee"/></svg>