<svg height="512pt" viewBox="0 0 512 512" width="512pt" xmlns="http://www.w3.org/2000/svg"><path d="m201.054688 389.09375c-11.042969 11.035156-15.710938 27.355469-12.496094 43.664062l5.371094 27.234376-169.5625 48.742187-11.332032 3.265625-13.035156-13.035156 3.265625-11.332032 48.746094-169.5625 27.230469 5.371094c16.308593 3.214844 32.628906-1.460937 43.664062-12.496094l22.367188-22.355468 78.140624 78.136718zm0 0" fill="#e0e4fa"/><path d="m512 90.714844-260.507812 260.507812-90.714844-90.714844 174.707031-174.707031 21.101563-21.105469 64.699218-64.695312zm0 0" fill="#0087ff"/><path d="m286.128906 343.640625-63.613281 63.613281-117.769531-117.769531 63.613281-63.613281 58.972656 58.976562zm0 0" fill="#84caff"/><path d="m184.417969 327.730469 38.996093 38.996093-22.359374 22.367188c-11.042969 11.035156-15.710938 27.351562-12.496094 43.664062l5.371094 27.230469-169.5625 48.746094-11.332032 3.265625-6.515625-6.515625zm0 0" fill="#c4c9f7"/><path d="m512 90.714844-260.507812 260.507812-45.273438-45.273437 260.617188-260.398438zm0 0" fill="#4b5be4"/><path d="m111.96875 421.132812-87.601562 87.601563-11.332032 3.265625-13.035156-13.035156 3.265625-11.332032 87.601563-87.601562zm0 0" fill="#84caff"/><path d="m447.304688 155.414062-21.105469 21.101563-90.714844-90.714844 21.101563-21.105469zm0 0" fill="#ffdf48"/><path d="m101.464844 410.628906 10.503906 10.503906-87.601562 87.601563-11.332032 3.265625-6.519531-6.515625zm0 0" fill="#97a1f0"/><path d="m227.332031 284.847656 58.796875 58.792969-63.613281 63.613281-58.8125-58.816406zm0 0" fill="#97a1f0"/><path d="m447.304688 155.414062-21.105469 21.101563-45.203125-45.203125 21.113281-21.09375zm0 0" fill="#fec000"/></svg>