<svg height="512pt" viewBox="0 -64 512 512" width="512pt" xmlns="http://www.w3.org/2000/svg"><path d="m490.667969 341.332031h-469.335938c-11.773437 0-21.332031 9.539063-21.332031 21.335938s9.558594 21.332031 21.332031 21.332031h469.335938c11.773437 0 21.332031-9.535156 21.332031-21.332031s-9.558594-21.335938-21.332031-21.335938zm0 0" fill="#607d8b"/><path d="m426.667969 85.332031h-341.335938c-23.53125 0-42.664062 19.136719-42.664062 42.667969v213.332031h426.664062v-213.332031c0-23.53125-19.132812-42.667969-42.664062-42.667969zm0 0" fill="#607d8b"/><path d="m85.332031 128h341.335938v213.332031h-341.335938zm0 0" fill="#fff"/><path d="m373.332031 117.332031c0 64.800781-52.53125 117.335938-117.332031 117.335938s-117.332031-52.535157-117.332031-117.335938 52.53125-117.332031 117.332031-117.332031 117.332031 52.53125 117.332031 117.332031zm0 0" fill="#4caf50"/><path d="m303.082031 164.414062c-4.160156 4.160157-9.621093 6.253907-15.082031 6.253907s-10.921875-2.09375-15.082031-6.253907l-32-32c-4.011719-3.988281-6.25-9.40625-6.25-15.082031v-53.332031c0-11.796875 9.554687-21.332031 21.332031-21.332031s21.332031 9.535156 21.332031 21.332031v44.5l25.75 25.75c8.34375 8.34375 8.34375 21.824219 0 30.164062zm0 0" fill="#fff"/></svg>