<svg id="Capa_1" enable-background="new 0 0 494.88 494.88" height="512" viewBox="0 0 494.88 494.88" width="512" xmlns="http://www.w3.org/2000/svg"><g><path d="m322.308 425.313c0 11.003-8.92 19.922-19.922 19.922-11.003 0-19.922-8.919-19.922-19.922v-89.585h39.845v89.585z" fill="#fed402"/><g><path d="m462.829 373.48v6.77c0 1.81-1.46 3.28-3.27 3.28h-282.83c-7.26 0-13.15 5.88-13.15 13.14v77.96c0 5.59-2.26 10.65-5.93 14.32-3.66 3.66-8.73 5.93-14.32 5.93-11.18 0-20.24-9.07-20.24-20.25v-70.42c0-6.76-3.32-13.27-9.27-17.26-3.45-2.31-7.56-3.42-11.7-3.42h-65.14c-3.38 0-5.75-3.32-4.66-6.51l13.49-39.4c1.23-3.59 5.02-5.56 8.69-4.62 4.62 1.18 9.52 1.66 14.58 1.32 22.85-1.54 41.33-20.05 42.82-42.9 1.32-20.27-10.46-37.95-27.71-45.42-3.45-1.49-5.18-5.37-3.96-8.93l68.28-199.44c1.18-3.47 4.83-5.45 8.38-4.55 3.99 1.01 8.18 1.55 12.49 1.55 20.82 0 38.72-12.47 46.68-30.34 1.62-3.64 5.85-5.32 9.46-3.63 143.12 66.79 237.31 211.28 237.31 372.82z" fill="#fee45a"/></g><g><g><g id="XMLID_297_"><g><path d="m435.879 226.95c-6.21 7.11-15.33 11.62-25.52 11.62-18.69 0-33.85-15.15-33.85-33.85 0-18.4 14.7-33.37 32.99-33.82h.01c10.15 17.93 18.98 36.67 26.37 56.05z" fill="#fed402"/></g></g></g><g fill="#fed402"><circle cx="257.361" cy="248.341" r="37.12"/><circle cx="313.079" cy="161.894" r="22.017"/><circle cx="189" cy="323.134" r="16.099"/></g><g><path d="m271.103 81.54h-8.773c-4.142 0-7.5-3.357-7.5-7.5s3.358-7.5 7.5-7.5h8.773c4.142 0 7.5 3.357 7.5 7.5s-3.358 7.5-7.5 7.5z" fill="#fed402"/></g><path d="m152.632 289.923 89.96-280.802c-5.606-2.94-11.305-5.769-17.073-8.461-3.61-1.69-7.84-.01-9.46 3.63-7.96 17.87-25.86 30.34-46.68 30.34-4.31 0-8.5-.54-12.49-1.55-3.55-.9-7.2 1.08-8.38 4.55l-68.28 199.44c-1.22 3.56.51 7.44 3.96 8.93 17.25 7.47 29.03 25.15 27.71 45.42-1.49 22.85-19.97 41.36-42.82 42.9-5.06.34-9.96-.14-14.58-1.32-3.67-.94-7.46 1.03-8.69 4.62l-13.49 39.4c-1.09 3.19 1.28 6.51 4.66 6.51h65.14c4.14 0 8.25 1.11 11.7 3.42 5.95 3.99 9.27 10.5 9.27 17.26v69.905c0 11.157 8.803 20.611 19.959 20.763 5.701.077 10.88-2.207 14.601-5.928 3.67-3.67 5.93-8.73 5.93-14.32v-77.96c0-7.257 5.883-13.14 13.14-13.14h282.83c1.811 0 3.28-1.469 3.28-3.28v-6.77c0-11.864-.508-23.631-1.506-35.287l-273.467-.001c-25.063 0-42.869-24.401-35.224-48.269z" fill="#fedf30"/><g><path d="m154.476 212.234h-9.805c-4.142 0-7.5-3.357-7.5-7.5s3.358-7.5 7.5-7.5h9.805c4.142 0 7.5 3.357 7.5 7.5s-3.358 7.5-7.5 7.5z" fill="#fed402"/></g><g><path d="m381.537 272.478h-8.228c-4.142 0-7.5-3.357-7.5-7.5s3.358-7.5 7.5-7.5h8.228c4.142 0 7.5 3.357 7.5 7.5s-3.358 7.5-7.5 7.5z" fill="#fed402"/></g><g><path d="m310.839 325.63h-8.453c-4.142 0-7.5-3.357-7.5-7.5s3.358-7.5 7.5-7.5h8.453c4.142 0 7.5 3.357 7.5 7.5s-3.358 7.5-7.5 7.5z" fill="#fed402"/></g></g><g fill="#fed402"><circle cx="203.431" cy="124.774" r="25.102"/><circle cx="392.935" cy="323.134" r="19.625"/></g></g></svg>