<svg height="512pt" viewBox="0 0 512 512" width="512pt" xmlns="http://www.w3.org/2000/svg"><path d="m443.644531 326.949219h-155.574219l28.921876-314.238281c.660156-7.199219 6.703124-12.710938 13.933593-12.710938h69.863281c7.230469 0 13.273438 5.511719 13.933594 12.710938zm0 0" fill="#e1e3fa"/><path d="m414.722656 12.710938c-.664062-7.199219-6.703125-12.710938-13.933594-12.710938h-17.285156c.621094 1.417969 1.042969 2.949219 1.191406 4.570312l29.667969 322.378907h29.28125zm0 0" fill="#b1b2c4"/><path d="m446.039062 66.71875c0 4.894531-3.96875 8.859375-8.859374 8.859375h-142.644532c-4.894531 0-8.859375-3.964844-8.859375-8.859375v-12.496094c0-4.894531 3.964844-8.859375 8.859375-8.859375h142.644532c4.894531 0 8.859374 3.964844 8.859374 8.859375zm0 0" fill="#fd481e"/><path d="m437.179688 45.363281h-26.46875c2.675781 1.839844 4.433593 4.921875 4.433593 8.417969v13.382812c0 3.492188-1.757812 6.578126-4.433593 8.417969h26.46875c4.890624 0 8.859374-3.96875 8.859374-8.859375v-12.5c0-4.894531-3.96875-8.859375-8.859374-8.859375zm0 0" fill="#d63d19"/><path d="m223.929688 326.949219h-155.574219l28.921875-314.238281c.664062-7.199219 6.703125-12.710938 13.933594-12.710938h69.863281c7.230469 0 13.273437 5.511719 13.933593 12.710938zm0 0" fill="#e1e3fa"/><path d="m195.007812 12.710938c-.660156-7.199219-6.703124-12.710938-13.933593-12.710938h-17.867188c.148438.648438.269531 1.308594.332031 1.992188l29.90625 324.957031h30.484376zm0 0" fill="#b1b2c4"/><path d="m217.464844 75.582031h-142.644532c-4.890624 0-8.859374-3.96875-8.859374-8.859375v-12.5c0-4.894531 3.96875-8.859375 8.859374-8.859375h142.644532c4.894531 0 8.863281 3.964844 8.863281 8.859375v12.496094c0 4.894531-3.96875 8.863281-8.863281 8.863281zm0 0" fill="#fd481e"/><path d="m217.464844 45.363281h-26.746094c2.773438 1.800781 4.609375 4.921875 4.609375 8.480469v13.257812c0 3.554688-1.839844 6.675782-4.613281 8.480469h26.75c4.894531 0 8.859375-3.96875 8.859375-8.859375v-12.5c.003906-4.894531-3.964844-8.859375-8.859375-8.859375zm0 0" fill="#d63d19"/><path d="m497.25 333.316406c-2.285156 0-4.605469-.53125-6.773438-1.660156l-234.476562-121.640625-234.476562 121.644531c-7.226563 3.75-16.117188.929688-19.863282-6.296875-3.75-7.222656-.933594-16.117187 6.292969-19.863281l241.261719-125.160156c4.253906-2.210938 9.316406-2.210938 13.570312 0l241.261719 125.160156c7.222656 3.746094 10.042969 12.640625 6.292969 19.863281-2.621094 5.058594-7.761719 7.953125-13.089844 7.953125zm0 0" fill="#0d70b2"/><path d="m256 210.015625-195.734375 101.542969v200.441406h391.46875v-200.441406zm0 0" fill="#fec478"/><path d="m256 210.015625-16.035156 8.320313-179.699219 93.222656v21.777344l195.734375-101.542969 131.5625 68.253906c19.722656 10.230469 32.101562 30.597656 32.101562 52.8125v159.140625h32.070313v-200.441406zm0 0" fill="#cc9d5f"/><path d="m343.566406 512h-175.132812v-155.914062c0-5.207032 4.226562-9.429688 9.433594-9.429688h156.265624c5.210938 0 9.433594 4.222656 9.433594 9.429688zm0 0" fill="#bf6015"/><path d="m313.890625 346.65625v165.34375h29.675781v-155.914062c0-5.207032-4.222656-9.429688-9.433594-9.429688zm0 0" fill="#a85412"/><path d="m244.253906 346.65625h15.453125v165.34375h-15.453125zm0 0" fill="#7a3d0c"/></svg>