<svg height="512" viewBox="0 0 64 64" width="512" xmlns="http://www.w3.org/2000/svg"><g id="Letter"><path d="m25.75 38.5-18.75 13.5v-27z" fill="#f2c05c"/><path d="m57 25v27l-18.75-13.5z" fill="#f2c05c"/><path d="m14 19.96v10.08l-7-5.04z" fill="#fcaa35"/><path d="m57 25-7 5.04v-10.08z" fill="#fcaa35"/><path d="m57 52v5h-50v-5l19-13.68a10.25 10.25 0 0 1 12 0z" fill="#fcaa35"/><path d="m50 15v15l-11.75 8.5a10.23 10.23 0 0 0 -12.5 0l-11.75-8.5v-23h28z" fill="#fdf2dd"/><path d="m50 15h-8v-8z" fill="#e2cca8"/><g fill="#56524f"><path d="m43 21h-22a1 1 0 0 1 0-2h22a1 1 0 0 1 0 2z"/><path d="m43 27h-22a1 1 0 0 1 0-2h22a1 1 0 0 1 0 2z"/><path d="m43 33h-22a1 1 0 0 1 0-2h22a1 1 0 0 1 0 2z"/><path d="m29 15h-8a1 1 0 0 1 0-2h8a1 1 0 0 1 0 2z"/></g></g></svg>