<svg height="512" viewBox="0 0 128 128" width="512" xmlns="http://www.w3.org/2000/svg"><g><path d="m101.936 8.157-85.983 85.983 17.907 17.907 85.983-85.983a3.949 3.949 0 0 0 0-5.586l-12.321-12.321a3.949 3.949 0 0 0 -5.586 0z" fill="#ff6e1d"/><path d="m11.263 65.934h93.166v8.441h-93.166z" fill="#f75b0d" transform="matrix(.707 -.707 .707 .707 -32.664 61.451)"/><path d="m89.483 21.411h8.887v25.324h-8.887z" fill="#ffd92e" transform="matrix(.707 -.707 .707 .707 3.417 76.396)"/><path d="m15.953 94.14a5 5 0 0 1 4.232 1.737 4.994 4.994 0 0 1 1.737 4.232 5 5 0 0 1 4.232 1.737 4.994 4.994 0 0 1 1.737 4.232 4.994 4.994 0 0 1 4.232 1.737 5 5 0 0 1 1.737 4.232l-26.86 8.953z" fill="#fee1ba"/><g fill="#404a80"><path d="m17.261 117.58-6.841-6.841-3.42 10.261z"/><path d="m119.84 26.06-13.82 13.82-17.9-17.9 13.82-13.82a3.929 3.929 0 0 1 5.58 0l12.32 12.32a3.929 3.929 0 0 1 0 5.58z"/></g></g></svg>