<?xml version="1.0" encoding="iso-8859-1"?>
<!-- Generator: Adobe Illustrator 19.0.0, SVG Export Plug-In . SVG Version: 6.00 Build 0)  -->
<svg xmlns="http://www.w3.org/2000/svg" xmlns:xlink="http://www.w3.org/1999/xlink" version="1.1" id="Layer_1" x="0px" y="0px" viewBox="0 0 512.001 512.001" style="enable-background:new 0 0 512.001 512.001;" xml:space="preserve">
<path style="fill:#7BCC29;" d="M314.149,33.073c-14.009,2.557-25.906,10.006-33.689,21.236c-7.671,11.118-10.562,24.46-8.116,37.802  c2.335,12.119-7.003,19.346-16.344,19.568c-7.337,0.111-14.566-4.003-16.344-13.564c-4.115-22.014,0.556-44.251,13.342-62.707  c0.891-1.334,1.89-2.668,3.002-3.891c12.675-16.455,31.132-27.462,52.256-31.242c9.007-1.668,17.679,4.447,19.346,13.453  C329.159,22.845,323.156,31.517,314.149,33.073z"/>
<path style="fill:#6EB825;" d="M314.149,33.073c-14.009,2.557-25.906,10.006-33.689,21.236c-7.671,11.118-10.562,24.46-8.116,37.802  c2.335,12.119-7.003,19.346-16.344,19.568V31.517c12.675-16.455,31.132-27.462,52.256-31.242  c9.007-1.668,17.679,4.447,19.346,13.453C329.159,22.845,323.156,31.517,314.149,33.073z"/>
<path style="fill:#FFDE33;" d="M397.76,282.235c-26.905-25.35-41.694-56.703-41.694-88.391v-10.562  c0-53.479-39.47-99.287-89.837-104.29c-3.446-0.334-6.781-0.556-10.228-0.556c-24.683,0-48.809,9.228-67.155,25.906  c-20.901,18.901-32.91,45.919-32.91,74.159v15.343c0,31.687-14.788,63.041-41.694,88.391  c-32.021,30.242-46.697,72.714-40.137,116.632c12.23,82.387,100.731,136.533,181.896,103.067  c81.72,33.689,169.777-21.347,181.896-103.067C444.455,354.949,429.78,312.477,397.76,282.235z"/>
<path style="fill:#FFBC33;" d="M437.896,398.866C425.777,480.586,337.719,535.622,256,501.933V78.436  c3.448,0,6.782,0.222,10.228,0.556c50.366,5.003,89.837,50.811,89.837,104.29v10.562c0,31.687,14.788,63.041,41.694,88.391  C429.78,312.477,444.455,354.949,437.896,398.866z"/>
<path style="fill:#F9BC35;" d="M205.984,445.341c-7.465,0-14.821-1.335-22.497-4.088c-22.557-8.056-40.016-29.001-43.432-52.123  c-4.506-30.18,10.554-49.505,19.935-58.339c6.704-6.324,17.269-5.999,23.572,0.706c6.32,6.704,5.999,17.258-0.706,23.572  c-5.663,5.337-11.96,14.723-9.81,29.163c1.644,11.118,10.554,21.645,21.672,25.613c4.023,1.439,7.704,2.139,11.265,2.139  c9.213,0,16.677,7.465,16.677,16.677C222.661,437.875,215.197,445.341,205.984,445.341z"/>
<g>
</g>
<g>
</g>
<g>
</g>
<g>
</g>
<g>
</g>
<g>
</g>
<g>
</g>
<g>
</g>
<g>
</g>
<g>
</g>
<g>
</g>
<g>
</g>
<g>
</g>
<g>
</g>
<g>
</g>
</svg>
