<svg height="512pt" viewBox="-61 0 512 512.00033" width="512pt" xmlns="http://www.w3.org/2000/svg"><path d="m148.273438 299.558594h93.992187v209.441406h-93.992187zm0 0" fill="#b77445"/><path d="m195.269531 299.558594h46.996094v209.441406h-46.996094zm0 0" fill="#a04010"/><path d="m369.929688 246.773438c1.429687 20.710937-4.390626 41.058593-16.707032 58.007812-12.339844 16.96875-29.910156 28.789062-50.046875 33.796875-11 17.570313-27.660156 30.609375-47.589843 37.089844-19.9375 6.46875-41.085938 5.710937-60.316407-2.050781-10.558593 4.261718-21.699219 6.410156-32.90625 6.421874-9.191406 0-18.421875-1.453124-27.410156-4.371093-19.929687-6.480469-36.589844-19.519531-47.585937-37.089844-20.121094-5-37.710938-16.816406-50.050782-33.796875-12.328125-16.949219-18.148437-37.316406-16.707031-58.007812-13.339844-15.910157-20.609375-35.796876-20.609375-56.757813 0-20.96875 7.269531-40.867187 20.609375-56.753906-1.441406-20.699219 4.378906-41.058594 16.707031-58.007813 12.339844-16.96875 29.910156-28.789062 50.050782-33.796875 10.996093-17.570312 27.65625-30.609375 47.585937-37.089843 19.9375-6.46875 41.085937-5.710938 60.316406 2.050781 19.21875-7.761719 40.378907-8.53125 60.316407-2.050781 19.929687 6.480468 36.589843 19.519531 47.589843 37.089843 20.117188 4.996094 37.707031 16.816407 50.046875 33.796875 12.328125 16.949219 18.148438 37.308594 16.707032 57.996094 13.332031 15.878906 20.609374 35.777344 20.609374 56.765625 0 20.96875-7.277343 40.871094-20.609374 56.757813zm0 0" fill="#c8fb78"/><path d="m369.929688 246.773438c1.429687 20.710937-4.390626 41.058593-16.707032 58.007812-12.339844 16.96875-29.910156 28.789062-50.046875 33.796875-11 17.570313-27.660156 30.609375-47.589843 37.089844-19.9375 6.46875-41.085938 5.710937-60.316407-2.050781v-367.199219c19.21875-7.761719 40.378907-8.53125 60.316407-2.050781 19.929687 6.480468 36.589843 19.519531 47.589843 37.089843 20.117188 4.996094 37.707031 16.816407 50.046875 33.796875 12.328125 16.949219 18.148438 37.308594 16.707032 57.996094 13.332031 15.878906 20.609374 35.777344 20.609374 56.765625 0 20.96875-7.277343 40.871094-20.609374 56.757813zm0 0" fill="#82e36f"/><path d="m107.273438 482h175.992187v30h-175.992187zm0 0" fill="#9ce78d"/><path d="m195.269531 482h87.996094v30h-87.996094zm0 0" fill="#36cb8e"/><path d="m133.453125 202.699219c-26.054687 0-47.25 21.195312-47.25 47.246093 0 26.054688 21.195313 47.25 47.25 47.25 26.050781 0 47.246094-21.195312 47.246094-47.25 0-26.050781-21.195313-47.246093-47.246094-47.246093zm0 0" fill="#ff7a53"/><path d="m272.832031 155.449219c-26.050781 0-47.246093 21.195312-47.246093 47.25 0 26.050781 21.195312 47.246093 47.246093 47.246093 26.054688 0 47.25-21.195312 47.25-47.246093 0-26.054688-21.195312-47.25-47.25-47.25zm0 0" fill="#ff4f19"/><path d="m219.949219 118.230469c0 17.890625-9.988281 33.480469-24.679688 41.5-6.710937 3.667969-14.398437 5.75-22.570312 5.75-26.046875 0-47.246094-21.191407-47.246094-47.25 0-26.046875 21.199219-47.246094 47.246094-47.246094 8.171875 0 15.859375 2.078125 22.570312 5.75 14.691407 8.019531 24.679688 23.617187 24.679688 41.496094zm0 0" fill="#ff7a53"/><path d="m219.949219 118.230469c0 17.890625-9.988281 33.480469-24.679688 41.5v-82.996094c14.691407 8.019531 24.679688 23.617187 24.679688 41.496094zm0 0" fill="#ff4f19"/></svg>