<svg id="Capa_1" enable-background="new 0 0 511.999 511.999" height="512" viewBox="0 0 511.999 511.999" width="512" xmlns="http://www.w3.org/2000/svg"><g><path d="m202.309 190.097c-.019-.105-.03-.21-.048-.316-4.815-1.401-9.895-2.161-15.147-2.161h-24.78c1.256 9.566 1.993 20.235 1.842 31.911h17.671c9.936 0 19.147 2.661 27.063 7.244z" fill="#ff4756"/><path d="m124.968 187.62c-22.614 0-42.126 13.936-50.385 33.642 7.834 1.411 16.556 3.971 23.797 8.629-.003.002-.005.004-.007.005 8.883-6.482 19.846-10.365 31.863-10.365h12.747c-1.817-11.947-4.403-22.602-7.294-31.911z" fill="#fc2d39"/><g><path d="m279.918 376.828c-25.502 0-47.289-18.216-51.805-43.315l-.988-5.489-17.759 98.7c-2.045 11.367-7.55 21.367-15.306 29.003 9.855 9.701 23.347 15.584 38.02 15.584 26.223 0 48.682-18.779 53.325-44.587l9.36-52.019c-4.764 1.396-9.752 2.123-14.847 2.123z" fill="#ff7f87"/></g><path d="m102.716 426.724-25.805-143.416c-3.852-21.407 5.388-41.686 21.47-53.416-16.088-10.35-39.506-10.36-44.184-10.36-33.764 0-59.304 30.546-53.325 63.776l25.804 143.416c4.644 25.808 27.103 44.587 53.326 44.587 14.673 0 28.165-5.883 38.02-15.584-7.757-7.636-13.261-17.636-15.306-29.003z" fill="#ff7f87"/><path d="m65.28 426.724-25.804-143.416c-5.019-27.895 12.177-53.89 37.8-61.521-10.688-2.249-20.268-2.256-23.079-2.256-33.764 0-59.304 30.546-53.325 63.776l25.805 143.416c4.644 25.808 27.103 44.587 53.326 44.587 6.764 0 13.271-1.264 19.293-3.562-17.318-6.611-30.571-21.879-34.016-41.024z" fill="#ff656f"/><path d="m143.009 220.706h13.235 8.245c.545-42.076-10.284-71.244-15.712-83.155-1.585-3.478-5.509-5.227-9.161-4.098l-16.561 5.116c-4.709 1.455-6.813 6.928-4.288 11.161 6.99 11.715 18.898 35.834 24.242 70.976z" fill="#bc7c63"/><path d="m134.75 134.955-11.694 3.613c-4.71 1.455-6.813 6.928-4.287 11.161 6.988 11.716 18.896 35.836 24.24 70.977h13.235 1.707c-5.344-37.609-17.253-63.423-24.24-75.962-1.83-3.282-1.221-7.253 1.039-9.789z" fill="#ab6b51"/><path d="m208.788 226.109c-7.909-4.492-17.076-7.092-26.942-7.092h-51.61c-34.105 0-59.861 30.871-53.832 64.383l25.805 143.416c4.692 26.081 27.332 45.01 53.832 45.01 26.501 0 49.14-18.93 53.833-45.01l17.514-97.337z" fill="#ff656f"/><path d="m140.535 426.815-25.805-143.415c-6.029-33.513 19.727-64.383 53.832-64.383h-38.326c-34.105 0-59.861 30.871-53.832 64.383l25.805 143.416c4.692 26.081 27.332 45.01 53.832 45.01 6.713 0 13.175-1.219 19.163-3.456-17.652-6.597-31.165-22.08-34.669-41.555z" fill="#ff4756"/><path d="m437.416 128.325c-8.259-19.706-27.771-33.642-50.385-33.642h-24.781c1.256 9.566 1.993 20.235 1.842 31.911h17.671c12.017 0 22.98 3.883 31.863 10.365-.003-.002-.005-.004-.007-.005 7.24-4.658 15.963-7.218 23.797-8.629z" fill="#ffa90f"/><path d="m324.885 94.683c-22.614 0-42.126 13.936-50.385 33.642 7.834 1.411 16.556 3.971 23.797 8.629-.003.002-.005.004-.007.005 8.883-6.482 19.846-10.365 31.863-10.365h12.747c-1.817-11.947-4.403-22.602-7.294-31.911z" fill="#ff9a00"/><path d="m457.802 126.594c-4.678 0-28.096.01-44.184 10.36 16.081 11.731 25.322 32.009 21.47 53.417l-25.805 143.416c-2.045 11.367-7.549 21.367-15.306 29.003 9.855 9.701 23.347 15.584 38.02 15.584 26.223 0 48.682-18.779 53.326-44.587l25.804-143.416c5.98-33.231-19.561-63.777-53.325-63.777z" fill="#ffd301"/><path d="m302.632 333.786-25.805-143.416c-3.852-21.407 5.388-41.686 21.47-53.417-16.088-10.35-39.506-10.36-44.184-10.36-33.764 0-59.304 30.546-53.325 63.776l25.804 143.416c4.644 25.808 27.103 44.587 53.326 44.587 14.673 0 28.165-5.883 38.02-15.584-7.756-7.634-13.26-17.635-15.306-29.002z" fill="#ffd301"/><path d="m265.197 333.786-25.805-143.416c-5.019-27.895 12.177-53.89 37.8-61.521-10.688-2.249-20.268-2.256-23.079-2.256-33.764 0-59.304 30.546-53.325 63.776l25.805 143.416c4.644 25.808 27.103 44.587 53.326 44.587 6.764 0 13.271-1.264 19.293-3.562-17.317-6.61-30.57-21.878-34.015-41.024z" fill="#ffc20c"/><path d="m342.926 127.768h13.235 8.245c.545-42.076-10.284-71.244-15.712-83.155-1.585-3.478-5.509-5.227-9.16-4.098l-16.561 5.116c-4.71 1.455-6.813 6.928-4.288 11.161 6.988 11.715 18.897 35.835 24.241 70.976z" fill="#bc7c63"/><path d="m334.667 42.018-11.694 3.613c-4.71 1.455-6.813 6.928-4.287 11.161 6.988 11.716 18.896 35.836 24.24 70.977h13.235 1.707c-5.344-37.609-17.253-63.423-24.24-75.962-1.83-3.283-1.221-7.254 1.039-9.789z" fill="#ab6b51"/><path d="m381.763 126.079h-51.61c-34.105 0-59.861 30.871-53.832 64.383l25.805 143.416c4.692 26.081 27.332 45.01 53.832 45.01 26.501 0 49.14-18.93 53.833-45.01l25.805-143.416c6.038-33.566-19.782-64.383-53.833-64.383z" fill="#ffc20c"/><path d="m340.452 333.878-25.805-143.416c-6.029-33.513 19.727-64.383 53.832-64.383h-38.326c-34.105 0-59.861 30.871-53.832 64.383l25.805 143.416c4.692 26.081 27.332 45.01 53.832 45.01 6.713 0 13.175-1.219 19.163-3.456-17.653-6.597-31.165-22.08-34.669-41.554z" fill="#ffa90f"/></g></svg>