<?xml version="1.0" encoding="iso-8859-1"?>
<!-- Generator: Adobe Illustrator 19.0.0, SVG Export Plug-In . SVG Version: 6.00 Build 0)  -->
<svg xmlns="http://www.w3.org/2000/svg" xmlns:xlink="http://www.w3.org/1999/xlink" version="1.1" id="Capa_1" x="0px" y="0px" viewBox="0 0 512 512" style="enable-background:new 0 0 512 512;" xml:space="preserve">
<path style="fill:#E1E4FB;" d="M466.995,512H75c-41.568,0-75-33.429-75-75V15C0,6.215,6.215,0,15,0h391.995c8.785,0,15,6.215,15,15  v452C421.995,489.98,440.864,512,466.995,512z"/>
<path style="fill:#A8AFF1;" d="M497,60h-90c-8.291,0-15,6.709-15,15v377c0,33.091,26.924,60,60,60h14.995c24.853,0,45-20.147,45-45  L512,452V75C512,66.709,505.291,60,497,60z"/>
<path style="fill:#C5C9F7;" d="M466.995,512h-255V0h195c8.785,0,15,6.215,15,15v452C421.995,489.98,440.864,512,466.995,512z"/>
<path style="fill:#1689FC;" d="M346.995,60H75c-8.401,0-15,6.599-15,15v122c0,8.399,6.599,15,15,15h271.995c8.101,0,15-6.601,15-15  V75C361.995,66.599,355.095,60,346.995,60z"/>
<g>
	<path style="fill:#17ACE8;" d="M196.883,272H74.889c-8.291,0-15-6.709-15-15s6.709-15,15-15h121.995c8.291,0,15,6.709,15,15   C211.884,265.291,205.174,272,196.883,272z"/>
	<path style="fill:#17ACE8;" d="M196.883,332H74.889c-8.291,0-15-6.709-15-15s6.709-15,15-15h121.995c8.291,0,15,6.709,15,15   S205.174,332,196.883,332z"/>
	<path style="fill:#17ACE8;" d="M196.883,392H74.889c-8.291,0-15-6.709-15-15s6.709-15,15-15h121.995c8.291,0,15,6.709,15,15   S205.174,392,196.883,392z"/>
	<path style="fill:#17ACE8;" d="M196.883,452H74.889c-8.291,0-15-6.709-15-15s6.709-15,15-15h121.995c8.291,0,15,6.709,15,15   S205.174,452,196.883,452z"/>
</g>
<g>
	<path style="fill:#1689FC;" d="M346.883,452h-90c-8.291,0-15-6.709-15-15v-60c0-8.291,6.709-15,15-15h90c8.291,0,15,6.709,15,15v60   C361.883,445.291,355.174,452,346.883,452z"/>
	<path style="fill:#1689FC;" d="M346.883,272h-90c-8.291,0-15-6.709-15-15s6.709-15,15-15h90c8.291,0,15,6.709,15,15   C361.883,265.291,355.174,272,346.883,272z"/>
	<path style="fill:#1689FC;" d="M346.883,332h-90c-8.291,0-15-6.709-15-15s6.709-15,15-15h90c8.291,0,15,6.709,15,15   S355.174,332,346.883,332z"/>
</g>
<path style="fill:#136EF1;" d="M361.995,75v122c0,8.399-6.899,15-15,15h-135V60h135C355.095,60,361.995,66.599,361.995,75z"/>
<g>
</g>
<g>
</g>
<g>
</g>
<g>
</g>
<g>
</g>
<g>
</g>
<g>
</g>
<g>
</g>
<g>
</g>
<g>
</g>
<g>
</g>
<g>
</g>
<g>
</g>
<g>
</g>
<g>
</g>
</svg>
