<svg id="Capa_1" enable-background="new 0 0 512 512" height="512" viewBox="0 0 512 512" width="512" xmlns="http://www.w3.org/2000/svg"><g><path d="m132.6 318.8c-29.8-5.4-52.5-31.5-52.5-62.9 0-35.3 28.6-64 64-64 7.5 0 14.7 1.3 21.4 3.7l14.8 19.4-22.6 84.8z" fill="#fed402"/><path d="m100.1 255.9c0-31.9 23.4-58.4 53.9-63.2-3.3-.5-6.6-.8-10-.8-35.3 0-64 28.6-64 64 0 31.4 22.6 57.5 52.5 62.9l5.8-4.4c-22.5-9.8-38.2-32.3-38.2-58.5z" fill="#fac600"/><path d="m443.1 385.6-41.7-125c-1-2.9-3.6-4.8-6.6-4.8h-22.6c-2.7 0-5.1-1.5-6.3-3.9l-8.7-17.3c-2.4-4.8-9.1-5.2-12.1-.8l-36 53.9 42.6 127.9h32l14.9 48.3 65.1-21.7-10.7-26.6z" fill="#9e6351"/><g fill="#895146"><path d="m309.3 287.8 36-53.9c3-4.5 9.7-4.1 12.1.8l8.6 17.3c1.2 2.4 3.6 3.9 6.3 3.9h22.6c3 0 5.7 1.9 6.6 4.8l41.7 125-43.2-12.8-32-39.3-38 16.6z"/><path d="m330 350.2 21.9 65.5h30l-25.7-77z"/><path d="m383.9 415.7 14.9 48.3 27.2-9-12.1-39.3z"/><path d="m330 350.2-20.7-62.4z"/></g><path d="m339.3 287.8 25.5-38.3-6.4-12.9-1-2.1c-2.4-4.8-9.1-5.2-12.1-.8l-36 53.9 20.8 62.4 26.2-11.5z" fill="#7f4740"/><path d="m58.8 416.1 8.6-16.5 17.3-28.8 10.3-17.3c.7-1.1 1.7-2.1 2.9-2.7l30.2-15.1 62.6-234.6c.8-3.1 3.6-5.2 6.8-5.2h20.9c2.7 0 5.2 1.6 6.4 4.1l10.9 23.8c1.1 2.5 3.6 4.1 6.4 4.1h9c3 0 5.7 1.9 6.6 4.8l14.9 44.8 10.6 31.9 68.7 206.2h32l8.2 24.5v71.9l-333.3-.6z" fill="#9e6351"/><path d="m150.7 250.8 41.3 22.2 32-17.1 32 48 58.6.1-57-171.2c-1-2.9-3.6-4.8-6.6-4.8h-9c-2.7 0-5.2-1.6-6.4-4.1l-11-23.9c-1.1-2.5-3.6-4.1-6.4-4.1h-20.9c-3.2 0-5.9 2.1-6.8 5.2z" fill="#895146"/><path d="m125.2 337.2-27.3 13.7c-1.2.6-2.2 1.5-2.9 2.7l-10.3 17.2-17.3 28.8-8.6 16.5v95.3h30.9v-95.3l8.6-16.5 17.3-28.8 11.4-19 32-16 18.8-70.5-27-14.5-21.8 81.9c-.6 2-2 3.6-3.8 4.5z" fill="#895146"/><path d="" fill="#895146"/><path d="m150.7 250.8 27 14.5z" fill="#7f4740"/><path d="m218.3 95.9h-20.9c-3.2 0-5.9 2.1-6.8 5.2l-39.9 149.7 27 14.5 44.8-167.9c-1.2-.9-2.7-1.5-4.2-1.5z" fill="#7f4740"/><path d="m479.9 68.5c0 15.1-12.3 27.4-27.4 27.4h-116.6c-18.9 0-34.3-15.3-34.3-34.3 0-18.1 14.1-33 31.9-34.2h.1c2.5-5.3 6-10.1 10.2-14.1 8.7-8.2 20.4-13.3 33.3-13.3 19.2 0 35.7 11.2 43.4 27.5 10.3.7 19.3 5.9 25.1 13.6h6.9c7.6 0 14.4 3.1 19.4 8 4.9 5 8 11.9 8 19.4z" fill="#eaf6ff"/><g><g><path d="m277.7 505.7c-4.3 0-7.7-3.5-7.7-7.7v-70c0-4.3 3.5-7.7 7.7-7.7 4.3 0 7.7 3.5 7.7 7.7v70c.1 4.3-3.4 7.7-7.7 7.7z" fill="#aad667"/></g></g><path d="m277.7 355.3c-12 0-21.8 9.8-21.8 21.8v29.2c0 12 9.8 21.8 21.8 21.8 12 0 21.8-9.8 21.8-21.8v-29.2c0-12-9.8-21.8-21.8-21.8z" fill="#82b339"/><path d="m276.6 406.3v-29.2c0-8.3 4.7-15.5 11.5-19.2-3.1-1.7-6.6-2.6-10.3-2.6-12 0-21.8 9.8-21.8 21.8v29.2c0 12 9.8 21.8 21.8 21.8 3.7 0 7.2-.9 10.3-2.6-6.9-3.7-11.5-11-11.5-19.2z" fill="#78a635"/><g><g><path d="m201.5 496.6c-4.3 0-7.7-3.5-7.7-7.7v-60.8c0-4.3 3.5-7.7 7.7-7.7s7.7 3.5 7.7 7.7v60.8c0 4.2-3.4 7.7-7.7 7.7z" fill="#aad667"/></g></g><path d="m201.5 355.3c-12 0-21.8 9.8-21.8 21.8v29.2c0 12 9.8 21.8 21.8 21.8 12 0 21.8-9.8 21.8-21.8v-29.2c0-12-9.8-21.8-21.8-21.8z" fill="#82b339"/><path d="m200.3 406.3v-29.2c0-8.3 4.7-15.5 11.5-19.2-3.1-1.7-6.6-2.6-10.3-2.6-12 0-21.8 9.8-21.8 21.8v29.2c0 12 9.8 21.8 21.8 21.8 3.7 0 7.2-.9 10.3-2.6-6.8-3.7-11.5-11-11.5-19.2z" fill="#78a635"/><path d="m330 350.2-20.7-62.4z" fill="#ab6b51"/><g><g><path d="m144 167.4c-4.1 0-7.5-3.4-7.5-7.5v-31.9c0-4.1 3.4-7.5 7.5-7.5s7.5 3.4 7.5 7.5v31.9c0 4.1-3.3 7.5-7.5 7.5z" fill="#fed402"/></g><g><path d="m96.4 180.2c-2.6 0-5.1-1.3-6.5-3.8l-16-27.7c-2.1-3.6-.8-8.2 2.7-10.2 3.6-2.1 8.2-.8 10.2 2.7l16 27.7c2.1 3.6.8 8.2-2.7 10.2-1.1.8-2.4 1.1-3.7 1.1z" fill="#fed402"/></g><g><path d="m61.5 215.1c-1.3 0-2.6-.3-3.7-1l-27.7-16c-3.6-2.1-4.8-6.7-2.7-10.2 2.1-3.6 6.7-4.8 10.2-2.7l27.7 16c3.6 2.1 4.8 6.7 2.7 10.2-1.4 2.3-3.9 3.7-6.5 3.7z" fill="#fed402"/></g><g><path d="m48.7 262.7h-31.9c-4.1 0-7.5-3.4-7.5-7.5s3.4-7.5 7.5-7.5h31.9c4.1 0 7.5 3.4 7.5 7.5s-3.3 7.5-7.5 7.5z" fill="#fed402"/></g><g><path d="m33.9 326.4c-2.6 0-5.1-1.3-6.5-3.8-2.1-3.6-.8-8.2 2.7-10.2l27.7-16c3.6-2.1 8.2-.8 10.2 2.7 2.1 3.6.8 8.2-2.7 10.2l-27.7 16c-1.2.7-2.5 1.1-3.7 1.1z" fill="#fed402"/></g></g><g><g><path d="m378.4 54.5c0 4.3-3.5 7.7-7.7 7.7-4.3 0-7.7-3.5-7.7-7.7 0-14-14-26.8-29.4-27h.1c2.5-5.3 6-10.1 10.2-14.1 19.3 4.7 34.5 21.9 34.5 41.1z" fill="#d8ecfe"/></g></g><path d="m268.1 499.7 17.9-17.7c1.3-1.3 3.1-2 4.9-2h26.3c1.8 0 3.6-.7 4.9-2l27.9-27.1c1.3-1.3 3.1-2 4.9-2h26.1c1.9 0 3.7-.8 5-2.1l27.9-28.7c1.3-1.4 3.1-2.1 5-2.1h34.4 23.7c1.9 0 3.6.7 5 2l27.9 27.9c1.3 1.3 2 3.1 2 5v54c0 3.9-3.1 7-7 7l-231.9-.2c-6.3 0-9.4-7.6-4.9-12z" fill="#aad667"/><path d="m303 511.7c-6.2 0-9.4-7.6-4.9-12l17.9-17.7c1.3-1.3 3.1-2 4.9-2h26.3c1.8 0 3.6-.7 4.9-2l27.9-27.1c1.3-1.3 3.1-2 4.9-2h26.1c1.9 0 3.7-.8 5-2.1l27.9-28.7c1.3-1.4 3.1-2.1 5-2.1h-30c-1.9 0-3.7.8-5 2.1l-27.9 28.8c-1.3 1.4-3.1 2.1-5 2.1h-26.2c-1.8 0-3.6.7-4.9 2l-27.9 27.1c-1.3 1.3-3.1 2-4.9 2h-26.3c-1.8 0-3.6.7-4.9 2l-17.9 17.7c-4.4 4.4-1.3 12 4.9 12l231.9.3h.7z" fill="#99c94f"/><path d="m243.9 499.7-17.9-17.7c-1.3-1.3-3.1-2-4.9-2h-26.3c-1.8 0-3.6-.7-4.9-2l-27.9-27.1c-1.3-1.3-3.1-2-4.9-2h-26.1c-1.9 0-3.7-.8-5-2.1l-27.9-28.7c-1.3-1.4-3.1-2.1-5-2.1h-34.3-23.8c-1.9 0-3.6.7-5 2l-27.8 28c-1.3 1.3-2 3.1-2 5v54c0 3.9 3.1 7 7 7l231.9-.3c6.2 0 9.3-7.6 4.8-12z" fill="#aad667"/><path d="m30.2 505v-54c0-1.9.7-3.6 2.1-5l27.9-27.9c1.3-1.3 3.1-2 4.9-2h-6.2-23.9c-1.9 0-3.6.7-5 2l-27.8 27.9c-1.3 1.3-2 3.1-2 5v54c0 3.9 3.1 7 7 7h29.3c-3.6-.4-6.3-3.4-6.3-7z" fill="#99c94f"/></g></svg>