<svg id="Layer_1" enable-background="new 0 0 512 512" height="512" viewBox="0 0 512 512" width="512" xmlns="http://www.w3.org/2000/svg"><g><path d="m395.141 325.728s-31.949-31.957-65.819-65.819c-23.702-23.702-42.226-51.425-55.054-82.396-12.829-30.973-19.334-63.676-19.334-97.201 0-8.284-6.716-15-15-15s-15 6.716-15 15c0 33.525-6.505 66.229-19.334 97.201s-31.352 58.694-55.054 82.396c-33.87 33.862-65.819 65.819-65.819 65.819-5.857 5.858-5.856 15.356.002 21.213 5.859 5.857 15.355 5.857 21.213-.002 0-.001 31.947-31.955 65.815-65.816 26.503-26.503 47.215-57.5 61.559-92.13 2.405-5.807 4.611-11.667 6.618-17.577 2.006 5.91 4.212 11.771 6.618 17.577 14.344 34.63 35.055 65.627 61.559 92.13 33.868 33.861 65.815 65.815 65.815 65.816 5.858 5.859 15.354 5.859 21.213.002 5.858-5.857 5.859-15.355.002-21.213z" fill="#a54628"/><path d="m395.141 325.728s-31.949-31.957-65.819-65.819c-23.702-23.702-42.226-51.425-55.054-82.396-12.829-30.973-19.334-63.676-19.334-97.201 0-8.284-6.716-15-15-15v106.104c2.006 5.91 4.212 11.771 6.618 17.577 14.344 34.63 35.055 65.627 61.559 92.13 33.868 33.861 65.815 65.815 65.815 65.816 5.858 5.859 15.354 5.859 21.213.002 5.858-5.857 5.859-15.355.002-21.213z" fill="#78281e"/><ellipse cx="95.333" cy="416.667" fill="#ff5c5c" rx="95.333" ry="95.334" transform="matrix(.987 -.16 .16 .987 -65.512 20.651)"/><path d="m368.467 160.622c-44.776 0-86.873-17.438-118.535-49.1l-20.605-20.605c-2.813-2.813-4.394-6.629-4.394-10.606 0-3.979 1.581-7.794 4.394-10.607l20.605-20.604c31.663-31.663 73.759-49.1 118.535-49.1s86.872 17.437 118.534 49.099l20.605 20.605c2.813 2.813 4.394 6.628 4.394 10.606s-1.58 7.793-4.393 10.606l-20.606 20.605c-31.662 31.664-73.758 49.101-118.534 49.101z" fill="#87e752"/><path d="m368.467 160.622c-44.776 0-86.873-17.438-118.535-49.1l-20.605-20.605c-2.813-2.813-4.394-6.629-4.394-10.606h287.067c0 3.978-1.58 7.793-4.393 10.606l-20.606 20.605c-31.662 31.663-73.758 49.1-118.534 49.1z" fill="#4ec95f"/><path d="m95.333 512v-190.667c52.567 0 95.333 42.767 95.333 95.334.001 52.566-42.766 95.333-95.333 95.333z" fill="#dc2663"/><ellipse cx="384.534" cy="416.667" fill="#ff5c5c" rx="95.333" ry="95.334" transform="matrix(.987 -.16 .16 .987 -61.778 66.976)"/><path d="m384.534 512v-190.667c52.567 0 95.333 42.767 95.333 95.334 0 52.566-42.766 95.333-95.333 95.333z" fill="#dc2663"/></g></svg>