<svg height="512" viewBox="0 0 48 48" width="512" xmlns="http://www.w3.org/2000/svg"><g id="Line"><path d="m24 18a13 13 0 0 0 -13 13 1 1 0 0 0 1 1h24a1 1 0 0 0 1-1 13 13 0 0 0 -13-13z" fill="#ec7a08"/><path d="m45 32h-42a1 1 0 0 1 0-2h42a1 1 0 0 1 0 2z" fill="#f39d3c"/><path d="m36 35h-24a1 1 0 0 1 0-2h24a1 1 0 0 1 0 2z" fill="#f0ab00"/><path d="m31 39h-14a1 1 0 0 1 0-2h14a1 1 0 0 1 0 2z" fill="#f5c12e"/><g fill="#f9d67a"><path d="m24 9a1 1 0 0 0 -1 1v6a1 1 0 0 0 2 0v-6a1 1 0 0 0 -1-1z"/><path d="m39.56 15.44a1 1 0 0 0 -1.42 0l-3.85 3.85a1 1 0 0 0 0 1.42 1 1 0 0 0 1.42 0l3.85-3.85a1 1 0 0 0 0-1.42z"/><path d="m9.86 15.44a1 1 0 1 0 -1.42 1.42l3.85 3.85a1 1 0 0 0 1.42 0 1 1 0 0 0 0-1.42z"/><path d="m31.45 14.11a1 1 0 0 0 -1.34.44l-1 2a1 1 0 0 0 .44 1.34.93.93 0 0 0 .45.11 1 1 0 0 0 .89-.55l1-2a1 1 0 0 0 -.44-1.34z"/><path d="m17.89 14.55a1 1 0 0 0 -1.78.9l1 2a1 1 0 0 0 .89.55.93.93 0 0 0 .45-.11 1 1 0 0 0 .44-1.34z"/><path d="m10.45 24.1-2-1a1 1 0 0 0 -1.34.45 1 1 0 0 0 .44 1.34l2 1a1.06 1.06 0 0 0 .45.11 1 1 0 0 0 .9-.55 1 1 0 0 0 -.45-1.35z"/><path d="m40.89 23.55a1 1 0 0 0 -1.34-.45l-2 1a1 1 0 0 0 -.44 1.35 1 1 0 0 0 .89.55 1.06 1.06 0 0 0 .45-.11l2-1a1 1 0 0 0 .44-1.34z"/></g></g></svg>