<svg id="Capa_1" enable-background="new 0 0 512 512" height="512" viewBox="0 0 512 512" width="512" xmlns="http://www.w3.org/2000/svg"><g><path d="m165.667 73-42.333 24.667-42.334-24.667v-68c0-2.761 2.239-5 5-5h74.667c2.761 0 5 2.239 5 5z" fill="#8dc5e8"/><path d="m431 73-43.25 24.667-41.417-24.667v-68c0-2.761 2.239-5 5-5h74.667c2.761 0 5 2.239 5 5z" fill="#5e9ff6"/><path d="m0 183.08v318.92c0 5.52 4.48 10 10 10h281.5l-35.5-375.67z" fill="#fff5f5"/><path d="m512 183.08v318.92c0 5.52-4.48 10-10 10h-246v-375.67z" fill="#e1ebf0"/><path d="m256 73 35.5 55.04-35.5 55.04h-256v-100.08c0-5.52 4.48-10 10-10z" fill="#0b799d"/><path d="m512 83v100.08h-256v-110.08h246c5.52 0 10 4.48 10 10z" fill="#07485e"/><path d="m256 254.77 19.333 87.563-19.333 105.037c-4.64 0-9.03-2.15-11.87-5.82l-85.68-110.82c-14.08-18.21-16.72-42.52-6.89-63.43 19.556-41.603 74.557-45.555 104.44-12.53z" fill="#ff7c48"/><path d="m353.55 330.73-85.68 110.82c-2.84 3.67-7.23 5.82-11.87 5.82v-192.6c29.569-32.678 84.723-29.414 104.44 12.53 9.83 20.91 7.19 45.22-6.89 63.43z" fill="#ff415b"/></g></svg>