<?xml version="1.0" encoding="iso-8859-1"?>
<!-- Generator: Adobe Illustrator 19.0.0, SVG Export Plug-In . SVG Version: 6.00 Build 0)  -->
<svg version="1.1" id="Capa_1" xmlns="http://www.w3.org/2000/svg" xmlns:xlink="http://www.w3.org/1999/xlink" x="0px" y="0px"
	 viewBox="0 0 468.322 468.322" style="enable-background:new 0 0 468.322 468.322;" xml:space="preserve">
<g>
	<path style="fill:#E56353;" d="M246.759,459.676c1.124,7.118-7.555,11.551-12.675,6.431l-68.308-68.308
		c-1.936-1.936-2.684-4.745-1.936-7.368l14.799-51.637c22.104,15.173,45.768,28.222,70.743,38.899
		C233.647,402.544,243.575,440.07,246.759,459.676z"/>
	<path style="fill:#E56353;" d="M459.677,246.759c-19.607-3.184-57.133-13.112-81.983,2.685
		c-10.677-24.976-23.726-48.64-38.899-70.806l51.637-14.736c2.623-0.749,5.433-0.063,7.306,1.873l68.371,68.308
		C471.227,239.267,466.794,247.945,459.677,246.759z"/>
</g>
<path style="fill:#D15241;" d="M394.303,295.836l-98.466,98.466c-15.922-4.62-31.407-10.178-46.455-16.609
	c-24.976-10.677-48.639-23.727-70.743-38.899c-36.215-24.851-68.246-55.321-94.783-90.162C31.22,179.637,0,93.471,0,0
	c140.675,0.062,264.804,70.806,338.794,178.638c15.173,22.166,28.223,45.83,38.899,70.806
	C384.125,264.492,389.682,279.977,394.303,295.836z"/>
<path style="fill:#F6C358;" d="M321.179,368.962c23.324,53.771,76.832,91.411,139.178,91.412
	c0.001-62.347-37.64-115.854-91.41-139.179L321.179,368.962z"/>
<path style="fill:#FCD462;" d="M435.526,435.543c-36.435-7.13-84.147-45.57-102.907-78.021l24.885-24.885
	C389.956,351.396,428.396,399.108,435.526,435.543z"/>
<ellipse style="fill:#EBF0F3;" cx="116.579" cy="116.57" rx="44.388" ry="44.388"/>
<path style="fill:#D5D6DB;" d="M116.564,142.238c-6.848,0-13.293-2.668-18.14-7.512c-4.848-4.848-7.512-11.29-7.512-18.14
	c0-6.854,2.665-13.296,7.512-18.14c4.848-4.848,11.293-7.515,18.14-7.515c6.854,0,13.299,2.668,18.146,7.512
	c4.848,4.848,7.512,11.29,7.512,18.143c0,6.851-2.665,13.293-7.512,18.137C129.863,139.571,123.418,142.238,116.564,142.238z"/>
<g>
	<path style="fill:#D15241;" d="M295.815,394.326l98.496-98.496c-7.77-26.701-18.174-52.28-30.915-76.436L219.378,363.412
		C243.534,376.152,269.113,386.557,295.815,394.326z"/>
	<path style="fill:#D15241;" d="M186.163,343.759c6.423,4.201,12.934,8.277,19.6,12.121l150.102-150.103
		c-3.846-6.665-7.921-13.176-12.122-19.599L186.163,343.759z"/>
</g>
<g>
	<path style="fill:#D5D6DB;" d="M335.181,173.594L173.577,335.198c4.139,2.931,8.337,5.781,12.586,8.561l157.58-157.58
		C340.963,181.929,338.113,177.731,335.181,173.594z"/>
	<path style="fill:#D5D6DB;" d="M219.378,363.412l144.018-144.018c-2.422-4.593-4.943-9.127-7.531-13.616L205.762,355.881
		C210.25,358.471,214.784,360.989,219.378,363.412z"/>
</g>
<g>
</g>
<g>
</g>
<g>
</g>
<g>
</g>
<g>
</g>
<g>
</g>
<g>
</g>
<g>
</g>
<g>
</g>
<g>
</g>
<g>
</g>
<g>
</g>
<g>
</g>
<g>
</g>
<g>
</g>
</svg>
