<svg id="Flat" height="512" viewBox="0 0 512 512" width="512" xmlns="http://www.w3.org/2000/svg"><rect fill="#ffb632" height="288" rx="32" transform="matrix(-1 0 0 -1 592 512)" width="416" x="88" y="112"/><path d="m504 144v9.22l-188.12 107.78a40.132 40.132 0 0 1 -39.76 0l-188.12-107.78v-9.22a31.526 31.526 0 0 1 1-7.94 8.089 8.089 0 0 1 2.98 1l192.09 110.06a24.116 24.116 0 0 0 23.86 0l192.09-110.06a8.089 8.089 0 0 1 2.98-1 31.526 31.526 0 0 1 1 7.94z" fill="#e09f2c"/><path d="m88 240v-48l-80 80 80 80v-48c97.2 0 176 42.981 176 96 0-88.366-78.8-160-176-160z" fill="#fbe9d8"/></svg>