<?xml version="1.0" encoding="iso-8859-1"?>
<!-- Generator: Adobe Illustrator 19.0.0, SVG Export Plug-In . SVG Version: 6.00 Build 0)  -->
<svg xmlns="http://www.w3.org/2000/svg" xmlns:xlink="http://www.w3.org/1999/xlink" version="1.1" id="Capa_1" x="0px" y="0px" viewBox="0 0 512 512" style="enable-background:new 0 0 512 512;" xml:space="preserve">
<path style="fill:#FFD07D;" d="M373.144,49.424c-12.184,0-23.992,1.584-35.256,4.528c59.616,15.6,103.6,69.816,103.6,134.328  s-43.984,118.728-103.6,134.328c11.256,2.944,23.072,4.528,35.256,4.528C449.84,327.128,512,264.968,512,188.28  S449.84,49.424,373.144,49.424z"/>
<g>
	<path style="fill:#DFE6F4;" d="M345.48,120.368h13.856l4.352-14.256l4.352,14.256h13.856l-11.2,8.648l4.352,14.152l-11.328-8.752   l-11.328,8.752l4.328-14.152L345.48,120.368z"/>
	<polygon style="fill:#DFE6F4;" points="363.704,134.416 375.032,143.168 370.68,129.016 381.888,120.368 368.032,120.368    363.68,106.112 359.328,120.368 345.48,120.368 356.704,129.016 352.376,143.168  "/>
</g>
<g>
	<path style="fill:#629FD6;" d="M295.352,166.88h13.856l4.352-14.256l4.352,14.256h13.856l-11.2,8.648l4.352,14.152l-11.328-8.752   l-11.328,8.752l4.328-14.152L295.352,166.88z"/>
	<polygon style="fill:#629FD6;" points="313.584,180.936 324.912,189.688 320.56,175.536 331.768,166.88 317.912,166.88    313.56,152.632 309.208,166.88 295.352,166.88 306.584,175.536 302.256,189.688  "/>
</g>
<g>
	<path style="fill:#FFD07D;" d="M348.536,194.912h22.92l7.2-23.584l7.2,23.584h22.92l-18.536,14.312l7.2,23.416l-18.744-14.48   l-18.744,14.48l7.16-23.416L348.536,194.912z"/>
	<polygon style="fill:#FFD07D;" points="378.696,218.16 397.432,232.64 390.232,209.224 408.768,194.912 385.848,194.912    378.648,171.336 371.456,194.912 348.536,194.912 367.112,209.224 359.952,232.64  "/>
</g>
<path style="fill:#629FD6;" d="M292.232,330.76h-5.312c-5.28-22.208-25.296-38.856-49.24-38.856c-5.816,0-11.712,1.28-16.584,2.912  c-11.712-33.232-43.424-57.104-80.816-57.104c-47.344,0-85.728,38.184-85.728,85.296c0,2.968,0.168,5.896,0.448,8.784  c-31.12,5.352-55,32.44-55,64.872c0,36.248,29.8,65.912,66.232,65.912H292.2c36.424,0,66.232-29.656,66.232-65.912  C358.456,360.432,328.656,330.76,292.232,330.76z"/>
<g>
</g>
<g>
</g>
<g>
</g>
<g>
</g>
<g>
</g>
<g>
</g>
<g>
</g>
<g>
</g>
<g>
</g>
<g>
</g>
<g>
</g>
<g>
</g>
<g>
</g>
<g>
</g>
<g>
</g>
</svg>
