<?xml version="1.0" encoding="iso-8859-1"?>
<!-- Generator: Adobe Illustrator 19.0.0, SVG Export Plug-In . SVG Version: 6.00 Build 0)  -->
<svg version="1.1" id="Capa_1" xmlns="http://www.w3.org/2000/svg" xmlns:xlink="http://www.w3.org/1999/xlink" x="0px" y="0px"
	 viewBox="0 0 512 512" style="enable-background:new 0 0 512 512;" xml:space="preserve">
<path style="fill:#F2F2F2;" d="M333.333,251.733V76.8c0-42.667-34.133-76.8-76.8-76.8l0,0c-42.667,0-76.8,34.133-76.8,76.8v176
	c-39.467,25.6-65.067,69.333-65.067,118.4c1.067,77.867,64,140.8,141.867,140.8s140.8-62.933,140.8-140.8
	C397.333,321.067,371.733,277.333,333.333,251.733z"/>
<path style="fill:#E4EAEF;" d="M256.533,485.333c-62.933,0-114.133-51.2-114.133-114.133c0-39.467,19.2-74.667,52.267-96
	l11.733-7.467V76.8c0-27.733,22.4-50.133,50.133-50.133c27.733,0,50.133,22.4,50.133,50.133v189.867l11.733,7.467
	c33.067,21.333,52.267,57.6,52.267,96C370.667,434.133,319.467,485.333,256.533,485.333z"/>
<path style="fill:#FF7058;" d="M318.4,274.133l-11.733-7.467v-105.6h-99.2v105.6l-11.733,7.467
	c-33.067,21.333-52.267,57.6-52.267,96c0,62.933,51.2,114.133,114.133,114.133s114.133-51.2,114.133-114.133
	C370.667,331.733,351.467,295.467,318.4,274.133z"/>
<circle style="fill:#F1543F;" cx="256.533" cy="370.133" r="62.933"/>
<g>
	<rect x="347.2" y="60.8" style="fill:#ACB3BA;" width="42.667" height="10.667"/>
	<rect x="347.2" y="91.733" style="fill:#ACB3BA;" width="30.933" height="10.667"/>
	<rect x="347.2" y="122.667" style="fill:#ACB3BA;" width="42.667" height="10.667"/>
	<rect x="347.2" y="154.667" style="fill:#ACB3BA;" width="30.933" height="10.667"/>
	<rect x="347.2" y="185.6" style="fill:#ACB3BA;" width="30.933" height="10.667"/>
	<rect x="347.2" y="217.6" style="fill:#ACB3BA;" width="42.667" height="10.667"/>
</g>
<g>
</g>
<g>
</g>
<g>
</g>
<g>
</g>
<g>
</g>
<g>
</g>
<g>
</g>
<g>
</g>
<g>
</g>
<g>
</g>
<g>
</g>
<g>
</g>
<g>
</g>
<g>
</g>
<g>
</g>
</svg>
