<?xml version="1.0" encoding="iso-8859-1"?>
<!-- Generator: Adobe Illustrator 19.0.0, SVG Export Plug-In . SVG Version: 6.00 Build 0)  -->
<svg version="1.1" id="Capa_1" xmlns="http://www.w3.org/2000/svg" xmlns:xlink="http://www.w3.org/1999/xlink" x="0px" y="0px"
	 viewBox="0 0 512 512" style="enable-background:new 0 0 512 512;" xml:space="preserve">
<g>
	<path style="fill:#4FD9E0;" d="M164.461,512c-0.001,0-0.003,0-0.005,0c-13.941-0.001-27.049-5.432-36.909-15.291L15.272,384.433
		c-20.353-20.353-20.353-53.471,0-73.824l41.648-41.647c6.953-6.953,14.902-12.778,23.626-17.311
		c5.908-3.071,13.125-1.957,17.834,2.752l159.198,159.199c4.708,4.708,5.823,11.926,2.752,17.834
		c-4.533,8.723-10.357,16.673-17.31,23.626l0,0l-41.647,41.647C191.511,506.569,178.402,512,164.461,512z"/>
	<path style="fill:#4FD9E0;" d="M390.232,300.909c-3.925,0-7.833-1.505-10.799-4.472L215.543,132.546
		c-5.522-5.522-5.987-14.321-1.077-20.394c2.072-2.562,4.335-5.073,6.725-7.464l6.34-6.34
		c23.819-23.819,53.963-39.328,87.175-44.847l77.149-12.825c4.862-0.81,9.813,0.781,13.298,4.264l61.884,61.886
		c3.485,3.485,5.074,8.438,4.264,13.299l-12.831,77.142c-5.521,33.22-21.027,63.368-44.84,87.18c0,0,0,0-0.001,0.001l-6.341,6.34
		c-2.306,2.307-4.804,4.559-7.422,6.69C397.051,299.776,393.636,300.909,390.232,300.909z"/>
</g>
<path style="fill:#EDF6FF;" d="M80.526,251.66c4.181-2.18,8.598-4.077,13.129-5.638l32.043-11.003
	c9.404-3.231,18.081-8.643,25.087-15.65l24.929-24.929c4.899-4.899,8.98-10.529,12.129-16.734c3.135-6.19,5.263-12.815,6.318-19.674
	c2.568-16.789,9.594-32.663,20.313-45.891l185.358,185.37c-5.271,4.267-11.008,7.984-17.051,11.048
	c-9.078,4.594-18.774,7.708-28.83,9.259c-13.893,2.141-26.482,8.52-36.411,18.448l-24.929,24.93
	c-7.019,7.019-12.43,15.691-15.648,25.08l-10.994,32.018c-1.536,4.487-3.436,8.916-5.65,13.161L80.526,251.66z"/>
<path style="fill:#D6E9FF;" d="M466.054,137.063c-7.384,0-14.766-2.81-20.388-8.431l-62.317-62.317
	c-11.242-11.242-11.242-29.535,0-40.776l17.107-17.107c11.241-11.24,29.534-11.243,40.777-0.001l62.317,62.317
	c5.445,5.445,8.444,12.686,8.444,20.388c0,7.701-2.998,14.943-8.443,20.388l0,0l-17.107,17.107
	C480.821,134.252,473.436,137.063,466.054,137.063z"/>
<g>
	<path style="fill:#16A9C7;" d="M257.578,413.601l-79.599-79.599L71.411,440.572l56.137,56.137
		c9.859,9.859,22.967,15.29,36.909,15.291c0.002,0,0.003,0,0.005,0c13.942,0,27.05-5.431,36.912-15.291l41.647-41.647
		c6.953-6.952,12.777-14.902,17.31-23.626C263.401,425.527,262.287,418.309,257.578,413.601z"/>
	<path style="fill:#16A9C7;" d="M471.304,120.125c0.808-4.861-0.78-9.815-4.264-13.299l-30.941-30.942l-138.61,138.61l81.945,81.945
		c2.966,2.966,6.874,4.472,10.799,4.472c3.403,0,6.818-1.133,9.638-3.43c2.617-2.132,5.114-4.384,7.422-6.69l6.341-6.341
		c0.001-0.001,0.001-0.001,0.001-0.001c23.813-23.813,39.319-53.961,44.84-87.18L471.304,120.125z"/>
</g>
<path style="fill:#D6E9FF;" d="M382.783,308.558c6.044-3.064,11.78-6.781,17.051-11.048l-92.677-92.684L170.425,341.557
	l89.896,89.896c2.213-4.245,4.114-8.673,5.65-13.161l10.994-32.018c3.218-9.389,8.63-18.06,15.648-25.08l24.929-24.93
	c9.928-9.928,22.518-16.307,36.411-18.448C364.009,316.265,373.705,313.152,382.783,308.558z"/>
<path style="fill:#B5D9FF;" d="M503.548,70.749l-31.157-31.158l-57.883,57.883l31.157,31.157c5.621,5.621,13.003,8.431,20.388,8.431
	c7.383,0,14.768-2.811,20.389-8.431l17.107-17.107l0,0c5.445-5.446,8.443-12.687,8.443-20.388S508.993,76.193,503.548,70.749z"/>
<g>
</g>
<g>
</g>
<g>
</g>
<g>
</g>
<g>
</g>
<g>
</g>
<g>
</g>
<g>
</g>
<g>
</g>
<g>
</g>
<g>
</g>
<g>
</g>
<g>
</g>
<g>
</g>
<g>
</g>
</svg>
