<svg height="512" viewBox="0 0 58 59" width="512" xmlns="http://www.w3.org/2000/svg"><g id="Page-1" fill="none" fill-rule="evenodd"><g id="032---Copywriting-Book" fill-rule="nonzero"><path id="Shape" d="m53 3h3c1.1032019.0032948 1.9967052.89679813 2 2v34c-.0032948 1.1032019-.8967981 1.9967052-2 2h-54c-1.10320187-.0032948-1.9967052-.8967981-2-2v-34c.0032948-1.10320187.89679813-1.9967052 2-2h3l24 3z" fill="#e64c3c"/><path id="Shape" d="m53 1v30h-4.96l-4.68-12.05-4.33-4.76-3.55-3.91c-.2349722-.2626608-.607909-.35261242-.9367851-.2259507-.328876.1266617-.5451314.4435319-.5432149.7959507l.02 5.29.02 6.43 3.27 8.43h-3.31c-2.7614237 0-5 2.2385763-5 5v-31c0-2.76142375 2.2385763-5 5-5h18c.5522847 0 1 .44771525 1 1z" fill="#f9eab0"/><path id="Shape" d="m29 5v31c0-2.7614237-2.2385763-5-5-5h-19v-30c0-.55228475.44771525-1 1-1h18c1.3260824 0 2.597852.5267842 3.5355339 1.46446609.9376819.9376819 1.4644661 2.20945146 1.4644661 3.53553391z" fill="#f5efca"/><g fill="#cbb292"><path id="Shape" d="m29 36h-23c-.55228475 0-1-.4477153-1-1v-4h19c2.7614237 0 5 2.2385763 5 5z"/><path id="Shape" d="m39.26 36h-10.26c0-2.7614237 2.2385763-5 5-5h3.31z"/><path id="Shape" d="m53 31v4c0 .5522847-.4477153 1-1 1h-2.02l-1.94-5z"/><path id="Shape" d="m24 6h-14c-.55228475 0-1-.44771525-1-1s.44771525-1 1-1h14c.5522847 0 1 .44771525 1 1s-.4477153 1-1 1z"/><path id="Shape" d="m24 11h-14c-.55228475 0-1-.4477153-1-1 0-.55228475.44771525-1 1-1h14c.5522847 0 1 .44771525 1 1 0 .5522847-.4477153 1-1 1z"/><path id="Shape" d="m24 16h-14c-.55228475 0-1-.4477153-1-1s.44771525-1 1-1h14c.5522847 0 1 .4477153 1 1s-.4477153 1-1 1z"/><path id="Shape" d="m24 21h-14c-.55228475 0-1-.4477153-1-1s.44771525-1 1-1h14c.5522847 0 1 .4477153 1 1s-.4477153 1-1 1z"/><path id="Shape" d="m24 26h-14c-.55228475 0-1-.4477153-1-1s.44771525-1 1-1h14c.5522847 0 1 .4477153 1 1s-.4477153 1-1 1z"/><path id="Shape" d="m48 6h-14c-.5522847 0-1-.44771525-1-1s.4477153-1 1-1h14c.5522847 0 1 .44771525 1 1s-.4477153 1-1 1z"/><path id="Shape" d="m42 11h-7.15c-.5522847 0-1-.4477153-1-1 0-.55228475.4477153-1 1-1h7.15c.5522847 0 1 .44771525 1 1 0 .5522847-.4477153 1-1 1z"/></g><path id="Shape" d="m53.86 45.98-2.86 4.02-6.46-.4-1.81-4.66 3.27-3.94 6.05.32z" fill="#bdc3c7"/><path id="Shape" d="m52.05 41.32-9.32 3.62-3.47-8.94-1.95-5-3.27-8.43 9.32-3.62 4.68 12.05 1.94 5z" fill="#3b97d3"/><path id="Shape" d="m54.68 56.39-3.73 1.45c-1.5436117.598159-3.2799976-.1671038-3.88-1.71l-2.53-6.53 9.32-3.62 2.53 6.53c.2889268.7411945.2709987 1.5669019-.049827 2.2948572-.3208256.7279552-.9181688 1.298302-1.660173 1.5851428z" fill="#ff5364"/><path id="Shape" d="m39.03 14.19-5.01 1.95-.02-5.29c-.0019165-.3524188.2143389-.669289.5432149-.7959507.3288761-.12666172.7018129-.0367101.9367851.2259507z" fill="#464f5d"/><path id="Shape" d="m43.36 18.95-9.32 3.62-.02-6.43 5.01-1.95z" fill="#fdd7ad"/></g></g></svg>