<?xml version="1.0" encoding="iso-8859-1"?>
<!-- Generator: Adobe Illustrator 19.0.0, SVG Export Plug-In . SVG Version: 6.00 Build 0)  -->
<svg xmlns="http://www.w3.org/2000/svg" xmlns:xlink="http://www.w3.org/1999/xlink" version="1.1" id="Layer_1" x="0px" y="0px" viewBox="0 0 512.842 512.842" style="enable-background:new 0 0 512.842 512.842;" xml:space="preserve">
<rect x="366.288" y="349.642" style="fill:#FFD15C;" width="35.2" height="163.2"/>
<polygon style="fill:#66C6B9;" points="463.354,280.309 507.088,358.175 260.688,358.175 305.488,280.309 260.688,280.309   317.221,180.042 283.088,180.042 384.421,0.842 485.754,180.042 450.554,180.042 507.088,280.309 "/>
<rect x="149.754" y="367.775" style="fill:#FFD15C;" width="20.267" height="92.8"/>
<polygon style="fill:#66C6B9;" points="204.154,328.309 229.754,373.109 90.021,373.109 114.554,328.309 90.021,328.309   122.021,271.775 102.821,271.775 159.354,170.442 216.954,271.775 197.754,271.775 229.754,328.309 "/>
<path style="fill:#E8EAE9;" d="M42.021,136.309c-22.4,0-41.6-19.2-41.6-42.667c0-21.333,17.067-39.467,38.4-41.6  c0-12.8,4.267-24.533,13.867-35.2c19.2-21.333,51.2-22.4,72.533-3.2c11.733,10.667,17.067,25.6,17.067,40.533  c4.267-2.133,9.6-3.2,14.933-3.2c23.467,0,41.6,19.2,41.6,41.6c0,23.467-19.2,41.6-41.6,41.6h-115.2V136.309z"/>
<path style="fill:#344A5E;" d="M512.421,512.842v-41.6c-39.467-14.933-86.4-23.467-136.533-23.467  c-86.4,0-162.133,25.6-209.067,65.067H512.421L512.421,512.842z"/>
<path style="fill:#415A6B;" d="M311.888,512.842c-48-53.333-139.733-88.533-245.333-88.533c-22.4,0-44.8,2.133-66.133,5.333v83.2  H311.888z"/>
<g>
</g>
<g>
</g>
<g>
</g>
<g>
</g>
<g>
</g>
<g>
</g>
<g>
</g>
<g>
</g>
<g>
</g>
<g>
</g>
<g>
</g>
<g>
</g>
<g>
</g>
<g>
</g>
<g>
</g>
</svg>
