<svg id="Capa_1" enable-background="new 0 0 496.999 496.999" height="512" viewBox="0 0 496.999 496.999" width="512" xmlns="http://www.w3.org/2000/svg"><g><path d="m400.24 31.368.398.205c7.348 3.788 8.255 20.642 2.368 43.988-3.09 12.25-19.469 54.437-25.992 71.06-1.531 3.902.059 8.335 3.722 10.372l13.943 7.756c4.391 2.442 9.927.497 11.82-4.158 7.547-18.556 24.72-61.431 28.568-76.69 13.362-52.98-2.393-73.177-18.807-81.637l-.808-.416c-8.152-4.201-18.166-.999-22.367 7.153-4.2 8.152-.997 18.166 7.155 22.367z" fill="#bbf49b"/><path d="m40.604 466.091c-3.598-17.249 4.871-34.776 20.638-42.642 121.334-60.534 171.921-117.415 217.027-199.846 16.379-29.932 27.917-61.919 35.702-88.361 2.736-9.294 7.195-17.685 12.952-24.889 15.097-18.893 39.12-28.616 64.404-26.086 38.85 3.888 65.365 35.969 64.879 72.547-.1 7.505-1.378 15.158-3.981 22.735-9.961 29.005-25.583 62.296-45.652 98.297-36.417 65.326-92.319 109.159-140.55 140.876-56.727 37.305-107.075 60.519-179.116 76.359-7.448 1.638-14.862 2.019-21.531-.407-12.209-4.44-21.921-14.915-24.772-28.583z" fill="#ed5469"/><path d="m391.326 84.267c-7.654-.766-15.193-1.323-22.403.2 42.31 8.827 68.511 53.105 54.095 95.082-9.961 29.005-25.583 62.296-45.652 98.297-36.417 65.326-92.319 110.166-140.55 141.883-54.662 35.947-104.344 58.807-172.344 74.596 6.9 2.707 14.647 3.475 22.435 1.763 72.04-15.839 123.396-39.053 180.123-76.359 48.23-31.718 104.133-76.557 140.55-141.883 20.069-36.001 35.691-69.292 45.652-98.297 2.611-7.603 3.89-15.253 3.982-22.735.054-4.371-1.305-8.684-2.032-12.898-5.317-30.788-29.707-56.231-63.856-59.649z" fill="#e63850"/><path d="m389.312 84.267c-5.903-.591-9.722-1.465-15.389-.675-18.608 2.595-35.421 12.285-46.994 26.767 10.318 1.374 20.865 2.652 23.889 6.975 6.094 8.714-12.624 39.182-3.89 45.922 8.426 6.503 35.249-17.572 45.804-13.575 10.554 3.996 14.704 39.799 25.325 40.509 11.007.735 17.164-34.49 27.5-36.981 2.933-.707 7.05.963 11.652 3.606.486-36.578-29.047-68.66-67.897-72.548z" fill="#bbf49b"/><path d="m391.326 83.26c-5.903-.591-11.734-.449-17.402.341 31.52 4.328 55.103 28.007 61.45 56.726 1.374 6.217-3.086 11.924-9.396 12.775-.192.026-.38.061-.564.105-6.454 1.555-11.278 15.872-16.671 26.228 2.681 5.965 5.602 10.505 9.314 10.753 11.007.735 17.164-34.49 27.5-36.981 2.933-.707 7.05.963 11.652 3.606.486-36.576-27.033-69.665-65.883-73.553z" fill="#9be69d"/></g></svg>