<svg height="512pt" viewBox="-64 0 512 512" width="512pt" xmlns="http://www.w3.org/2000/svg"><path d="m336.335938 0h-224.933594c-3.980469 0-7.792969 1.582031-10.605469 4.394531l-96.402344 96.398438c-2.8125 2.8125-4.394531 6.628906-4.394531 10.605469v353.46875c0 25.988281 21.144531 47.132812 47.132812 47.132812h289.203126c25.914062 0 47.132812-20.953125 47.132812-47.132812v-417.734376c0-25.914062-20.953125-47.132812-47.132812-47.132812zm0 0" fill="#eff6fe"/><path d="m336.335938 0h-144.605469v512h144.605469c25.914062 0 47.132812-20.953125 47.132812-47.132812v-417.734376c0-25.914062-20.953125-47.132812-47.132812-47.132812zm0 0" fill="#d9e4ef"/><path d="m95.335938 112.46875c9.445312 0 17.132812-7.6875 17.132812-17.132812v-95.335938h-1.070312c-3.976563 0-7.792969 1.582031-10.605469 4.394531l-96.398438 96.398438c-2.8125 2.8125-4.394531 6.628906-4.394531 10.605469v1.070312zm0 0" fill="#d9e4ef"/><path d="m191.734375 176.734375c-70.285156 0-127.46875 57.179687-127.46875 127.464844 0 70.285156 57.183594 127.46875 127.46875 127.46875h48.199219c8.285156 0 15-6.71875 15-15 0-8.285157-6.714844-15-15-15h-48.199219c-53.742187 0-97.46875-43.726563-97.46875-97.46875 0-53.742188 43.726563-97.464844 97.46875-97.464844s97.464844 43.722656 97.464844 97.464844v16.066406c0 9.449219-7.683594 17.132813-17.132813 17.132813-4.574218 0-8.875-1.78125-12.117187-5.027344-3.234375-3.226563-5.015625-7.527344-5.015625-12.105469v-16.066406c0-34.847657-28.351563-63.199219-63.199219-63.199219s-63.199219 28.351562-63.199219 63.199219c0 34.847656 28.351563 63.199219 63.199219 63.199219 16.914063 0 32.285156-6.691407 43.640625-17.550782 12.257812 15.128906 28.359375 17.550782 36.691406 17.550782 25.992188 0 47.132813-21.144532 47.132813-47.132813v-16.066406c0-70.285157-57.179688-127.464844-127.464844-127.464844zm0 160.664063c-18.308594 0-33.199219-14.890626-33.199219-33.199219 0-18.304688 14.890625-33.199219 33.199219-33.199219 18.304687 0 33.199219 14.894531 33.199219 33.199219 0 18.308593-14.894532 33.199219-33.199219 33.199219zm0 0" fill="#3ab4fb"/><g fill="#1d9cfd"><path d="m191.734375 176.734375h-.003906v30h.003906c53.742187 0 97.464844 43.722656 97.464844 97.464844v16.066406c0 9.449219-7.683594 17.132813-17.132813 17.132813-4.574218 0-8.875-1.78125-12.117187-5.027344-3.234375-3.226563-5.015625-7.527344-5.015625-12.105469v-16.066406c0-34.847657-28.351563-63.199219-63.199219-63.199219h-.003906v30h.003906c18.304687 0 33.199219 14.894531 33.199219 33.199219 0 18.308593-14.894532 33.199219-33.199219 33.199219h-.003906v30h.003906c16.914063 0 32.285156-6.691407 43.640625-17.550782 12.257812 15.128906 28.359375 17.550782 36.691406 17.550782 25.992188 0 47.132813-21.144532 47.132813-47.132813v-16.066406c0-70.285157-57.179688-127.464844-127.464844-127.464844zm0 0"/><path d="m239.933594 431.667969c8.285156 0 15-6.71875 15-15 0-8.285157-6.714844-15-15-15h-48.199219-.003906v30h.003906zm0 0"/></g></svg>