<?xml version="1.0" encoding="iso-8859-1"?>
<!-- Generator: Adobe Illustrator 19.0.0, SVG Export Plug-In . SVG Version: 6.00 Build 0)  -->
<svg version="1.1" id="Capa_1" xmlns="http://www.w3.org/2000/svg" xmlns:xlink="http://www.w3.org/1999/xlink" x="0px" y="0px"
	 viewBox="0 0 512 512" style="enable-background:new 0 0 512 512;" xml:space="preserve">
<g>
	<path style="fill:#D23F77;" d="M369.04,104.416C358.656,127.472,276.592,265.264,256,256s28.112-162.08,38.496-185.136
		s45.984-57.584,66.56-48.32S379.408,81.344,369.04,104.416z"/>
	<path style="fill:#D23F77;" d="M142.96,407.584C153.344,384.528,235.408,246.736,256,256s-28.112,162.08-38.496,185.136
		c-10.384,23.056-45.984,57.584-66.56,48.32C130.368,480.192,132.592,430.656,142.96,407.584z"/>
	<path style="fill:#D23F77;" d="M443.12,228.736C419.472,237.712,264,277.104,256,256s134.48-94.72,158.128-103.696
		c23.648-8.96,73.232-8.208,81.232,12.896C503.36,186.32,466.768,219.776,443.12,228.736z"/>
	<path style="fill:#D23F77;" d="M68.88,283.264C92.528,274.288,248,234.896,256,256S121.52,350.72,97.872,359.696
		s-73.232,8.208-81.232-12.912C8.64,325.68,45.232,292.224,68.88,283.264z"/>
	<path style="fill:#D23F77;" d="M407.584,369.04C384.528,358.656,246.736,276.592,256,256s162.08,28.112,185.136,38.496
		s57.584,45.984,48.32,66.56C480.192,381.632,430.656,379.408,407.584,369.04z"/>
	<path style="fill:#D23F77;" d="M104.416,142.96C127.472,153.344,265.264,235.408,256,256S93.92,227.888,70.864,217.504
		s-57.584-45.984-48.32-66.56S81.344,132.592,104.416,142.96z"/>
	<path style="fill:#D23F77;" d="M283.264,443.12C274.288,419.472,234.896,264,256,256s94.72,134.48,103.696,158.128
		c8.96,23.648,8.208,73.232-12.896,81.232C325.68,503.36,292.224,466.768,283.264,443.12z"/>
	<path style="fill:#D23F77;" d="M228.736,68.88C237.712,92.528,277.104,248,256,256S161.28,121.52,152.304,97.872
		s-8.208-73.232,12.912-81.232S219.776,45.232,228.736,68.88z"/>
</g>
<g>
	<path style="fill:#E84D88;" d="M296.88,71.376C296.88,96.656,278.576,256,256,256S215.12,96.656,215.12,71.376S233.424,0,256,0
		S296.88,46.096,296.88,71.376z"/>
	<path style="fill:#E84D88;" d="M215.12,440.624C215.12,415.344,233.424,256,256,256s40.88,159.344,40.88,184.624
		S278.576,512,256,512S215.12,465.904,215.12,440.624z"/>
	<path style="fill:#E84D88;" d="M415.456,154.352C397.568,172.224,271.968,271.968,256,256s83.776-141.568,101.648-159.456
		s63.408-37.536,79.376-21.568C452.976,90.944,433.328,136.464,415.456,154.352z"/>
	<path style="fill:#E84D88;" d="M96.544,357.648C114.432,339.776,240.032,240.032,256,256s-83.776,141.568-101.648,159.456
		s-63.408,37.536-79.376,21.568C59.024,421.056,78.672,375.536,96.544,357.648z"/>
	<path style="fill:#E84D88;" d="M440.624,296.88C415.344,296.88,256,278.576,256,256s159.344-40.88,184.624-40.88
		S512,233.424,512,256S465.904,296.88,440.624,296.88z"/>
	<path style="fill:#E84D88;" d="M71.376,215.12C96.656,215.12,256,233.424,256,256S96.656,296.88,71.376,296.88S0,278.576,0,256
		S46.096,215.12,71.376,215.12z"/>
	<path style="fill:#E84D88;" d="M357.648,415.456C339.776,397.568,240.032,271.968,256,256s141.568,83.776,159.456,101.648
		s37.536,63.408,21.568,79.376C421.056,452.976,375.536,433.328,357.648,415.456z"/>
	<path style="fill:#E84D88;" d="M154.352,96.544C172.224,114.432,271.968,240.032,256,256S114.432,172.224,96.544,154.352
		s-37.52-63.408-21.568-79.376S136.464,78.672,154.352,96.544z"/>
</g>
<circle style="fill:#BB3166;" cx="256" cy="256" r="92.592"/>
<circle style="fill:#FFD93B;" cx="256" cy="256" r="45.536"/>
<g>
</g>
<g>
</g>
<g>
</g>
<g>
</g>
<g>
</g>
<g>
</g>
<g>
</g>
<g>
</g>
<g>
</g>
<g>
</g>
<g>
</g>
<g>
</g>
<g>
</g>
<g>
</g>
<g>
</g>
</svg>
