<svg id="Layer_1" enable-background="new 0 0 512 512" height="512" viewBox="0 0 512 512" width="512" xmlns="http://www.w3.org/2000/svg"><g clip-rule="evenodd" fill-rule="evenodd"><g><path d="m315.407 416.523c-39.008 0-80.976 0-119.928 0 2.614 22.696.239 49.268-4.661 71.494l129.936.001c-5.214-22.227-7.961-48.799-5.347-71.495z" fill="#656565"/><path d="m142.745 500.517c-6.904 0-12.5-5.596-12.5-12.5s5.596-12.5 12.5-12.5h226.082c6.904 0 12.5 5.596 12.5 12.5s-5.596 12.5-12.5 12.5z" fill="#515151"/><path d="m502 381.203c0 19.508-15.813 35.321-35.321 35.321h-421.358c-19.508-.001-35.321-15.814-35.321-35.321 0-95.914 0-191.829 0-287.743 0-16.523 13.476-30 30-30h432c16.523 0 30 13.476 30 30z" fill="#6a676b"/><path d="m480 324.266v-230.807c0-4.38-3.62-8-8-8-144 0-288 0-432 0-4.38 0-8 3.62-8 8v230.807z" fill="#92d2fe"/><path d="m45.321 416.523h150.159 119.928 151.272c19.508 0 35.321-15.813 35.321-35.321 0 0 0-13.604 0-34.937h-492.001v34.937c0 19.508 15.813 35.321 35.321 35.321z" fill="#e6e6e6"/></g><g><path d="m399.866 11.483c9.366 0 16.962 7.596 16.962 16.966v190.766c0 12.754-10.338 23.092-23.092 23.092h-191.189l-32.692 43.885c-.629.844-1.681 1.175-2.68.844s-1.645-1.226-1.645-2.278v-42.451h-47.267c-12.754 0-23.091-10.338-23.091-23.092v-184.641c0-12.754 10.338-23.091 23.091-23.091z" fill="#ffd54f"/><g fill="#f2f2f2"><path d="m181.27 134.779h20.716l7.487 56.288c.387 2.911-1.532 5.607-4.403 6.229l-8.955 1.94c-1.599.346-3.107.041-4.445-.902-1.338-.942-2.126-2.26-2.345-3.881z"/><path d="m298.495 54.414c7.307 0 13.285 5.978 13.285 13.285v108.991c0 7.307-5.978 13.285-13.285 13.285-6.819 0-12.479-5.206-13.206-11.84h-.001c-18.589-14.865-47.969-26.597-80.97-30.208v2.77h-25.799c-15.676 0-28.502-12.826-28.502-28.502 0-15.676 12.826-28.502 28.502-28.502h25.799v2.77c33.001-3.611 62.365-15.189 80.954-30.053.656-6.709 6.352-11.996 13.223-11.996z"/><path d="m310.479 106.848v30.692c1.102.245 2.246.375 3.422.375 8.682 0 15.72-7.038 15.72-15.721 0-8.682-7.038-15.72-15.72-15.72-1.175 0-2.32.13-3.422.374z"/></g><path d="m204.319 93.692h-25.799c-15.676 0-28.502 12.826-28.502 28.502 0 15.676 12.826 28.502 28.502 28.502h25.799z" fill="#eb745e"/><path d="m298.495 54.414c7.307 0 13.285 5.978 13.285 13.285v108.991c0 7.307-5.978 13.285-13.285 13.285-7.307 0-13.285-5.978-13.285-13.285v-108.992c0-7.306 5.978-13.284 13.285-13.284z" fill="#eb745e"/><path d="m331.845 156.118 17.403 10.047c2.783 1.607 6.349.634 7.948-2.149 1.601-2.787.63-6.347-2.15-7.952l-17.402-10.047c-2.784-1.607-6.349-.634-7.948 2.149-1.602 2.787-.631 6.347 2.149 7.952zm5.798-57.746 17.402-10.047c2.78-1.605 3.751-5.164 2.15-7.951-1.599-2.783-5.165-3.756-7.948-2.149l-17.403 10.047c-2.78 1.605-3.751 5.165-2.15 7.952 1.6 2.782 5.165 3.755 7.949 2.148zm9.712 29.677h19.05c3.234 0 5.855-2.621 5.855-5.855s-2.621-5.855-5.855-5.855h-19.05c-3.234 0-5.855 2.621-5.855 5.855s2.621 5.855 5.855 5.855z" fill="#eb745e"/></g></g></svg>