<svg height="512pt" viewBox="-101 0 512 512" width="512pt" xmlns="http://www.w3.org/2000/svg"><path d="m302.25 482.898438c-9.9375 18.5-27.835938 29.101562-49.109375 29.101562h-195.691406c-21.15625 0-39.101563-10.570312-49.222657-29.011719-12.128906-22.058593-10.746093-50.917969 3.480469-73.679687l83.414063-153.886719v-236.890625c0-10.222656 8.308594-18.53125 18.515625-18.53125h81.074219c10.207031 0 18.515624 8.308594 18.515624 18.53125l.03125 237.539062 84.414063 153.820313c14.578125 22.4375 16.386719 51.019531 4.578125 73.007813zm0 0" fill="#bde8f9"/><path d="m302.25 482.898438c-9.9375 18.5-27.835938 29.101562-49.109375 29.101562h-98.140625v-512h39.710938c10.207031 0 18.515624 8.308594 18.515624 18.53125l.03125 237.539062 84.414063 153.820313c14.578125 22.4375 16.386719 51.019531 4.578125 73.007813zm0 0" fill="#88d9f5"/><path d="m246.101562 15c0 8.289062-6.710937 15-14.996093 15h-154.199219c-8.28125 0-15-6.710938-15-15 0-8.28125 6.71875-15 15-15h154.199219c8.289062 0 14.996093 6.71875 14.996093 15zm0 0" fill="#88d9f5"/><path d="m302.25 482.898438c-9.9375 18.5-27.835938 29.101562-49.109375 29.101562h-195.691406c-21.15625 0-39.101563-10.570312-49.222657-29.011719-12.128906-22.058593-10.746093-50.917969 3.480469-73.679687l30.714844-56.660156c6.085937 1.972656 11.027344 3.671874 13.246094 4.332031 4.988281 1.488281 10.15625 2.238281 15.367187 2.238281 9.925782 0 20.976563-2.679688 30.964844-9.539062.378906-.257813.757812-.53125 1.136719-.800782 6.902343-4.980468 16.160156-4.980468 23.058593 0 .371094.269532.75.53125 1.128907.800782 9.988281 6.859374 17.738281 9.539062 27.664062 9.539062h.011719c10.207031 0 19.046875-2.9375 28.625-9.539062.378906-.257813.757812-.53125 1.148438-.800782 6.890624-4.980468 16.15625-4.980468 23.054687 0 .363281.269532.75.542969 1.140625.800782 7.898438 5.441406 19.886719 9.539062 32.273438 9.539062 4.199218 0 8.398437-.488281 12.480468-1.46875 1.738282-.410156 6.429688-2.230469 12.738282-4.75l31.210937 56.890625c14.578125 22.4375 16.386719 51.019531 4.578125 73.007813zm0 0" fill="#00ceb3"/><path d="m231.105469 30h-76.105469v-30h76.105469c8.285156 0 14.996093 6.71875 14.996093 15 0 8.289062-6.707031 15-14.996093 15zm0 0" fill="#4fc8ef"/><path d="m302.25 482.898438c-9.9375 18.5-27.835938 29.101562-49.109375 29.101562h-98.140625v-152.78125c10.207031 0 19.042969-2.9375 28.621094-9.539062.382812-.257813.761718-.53125 1.152344-.800782 6.886718-4.980468 16.15625-4.980468 23.054687 0 .359375.269532.75.542969 1.140625.800782 7.898438 5.441406 19.886719 9.539062 32.273438 9.539062 4.199218 0 8.398437-.488281 12.476562-1.46875 1.742188-.410156 6.429688-2.230469 12.738281-4.75l31.214844 56.890625c14.578125 22.4375 16.386719 51.019531 4.578125 73.007813zm0 0" fill="#00ae93"/></svg>