<?xml version="1.0" encoding="iso-8859-1"?>
<!-- Generator: Adobe Illustrator 19.0.0, SVG Export Plug-In . SVG Version: 6.00 Build 0)  -->
<svg version="1.1" id="Capa_1" xmlns="http://www.w3.org/2000/svg" xmlns:xlink="http://www.w3.org/1999/xlink" x="0px" y="0px"
	 viewBox="0 0 512 512" style="enable-background:new 0 0 512 512;" xml:space="preserve">
<path style="fill:#4887CC;" d="M360.659,282.774c-57.732,57.732-151.669,57.732-209.4,0
	c-57.732-57.732-57.732-151.669-0.001-209.401s151.669-57.732,209.401,0.001C418.391,131.105,418.391,225.042,360.659,282.774z"/>
<path style="fill:#2C75B7;" d="M179.841,282.774c-88.069-88.069-33.965-240.058,90.408-252.013
	c-42.526-4.088-86.494,10.116-118.991,42.613c-57.732,57.732-57.732,151.669,0.001,209.401
	c32.497,32.497,76.465,46.7,118.991,42.613C237.228,322.212,205.076,308.009,179.841,282.774z"/>
<path style="fill:#5DA3E2;" d="M368.874,285.415c27.646-29.064,42.809-67.026,42.809-107.341c0-0.03-0.004-0.06-0.005-0.09
	C411.63,92.259,342.524,22.6,256.401,22.358c-0.142-0.001-0.284-0.008-0.425-0.008c-0.006,0-0.011-0.001-0.017-0.001
	c-138.337,0-207.704,168.333-110.164,265.888c0,0,0.001,0,0.001,0.001C207.268,349.731,308.226,349.218,368.874,285.415z
	 M157.724,185.799c0.675,22.306,4.287,43.748,10.502,63.177c-7.48,5.102-14.61,10.927-21.293,17.477
	c-18.285-22.856-29.371-50.155-31.034-80.654L157.724,185.799L157.724,185.799z M354.598,78.253
	c-5.181,5.12-10.667,9.752-16.396,13.9c-6.405-15.428-15.177-30.559-26.595-42.918C327.134,55.954,341.61,65.414,354.598,78.253z
	 M396.017,170.348h-41.824c-0.675-22.307-4.287-43.748-10.503-63.178c7.481-5.102,14.611-10.927,21.294-17.477
	C384.105,113.246,394.446,141.599,396.017,170.348z M395.923,187.373c-0.022,0.347-0.043,0.694-0.068,1.041
	c-2.056,28.082-12.44,55.302-30.872,78.039c-6.683-6.549-13.813-12.375-21.293-17.477c6.216-19.429,9.827-40.871,10.502-63.177
	h41.824C395.988,186.324,395.958,186.848,395.923,187.373z M324.981,100.624c-19.033,10.742-40.055,16.694-61.297,17.855V38.417
	C293.125,43.096,313.855,72.613,324.981,100.624z M263.684,133.95c22.949-1.13,45.695-7.305,66.42-18.506
	c5.189,17.333,8.108,36.029,8.731,54.905h-75.152V133.95H263.684z M338.836,185.799c-0.622,18.875-3.541,37.571-8.731,54.904
	c-20.726-11.202-43.469-17.376-66.421-18.505v-36.399H338.836z M263.684,317.731v-80.063c21.241,1.161,42.264,7.113,61.297,17.855
	C313.871,283.493,293.147,313.049,263.684,317.731z M248.233,317.731c-29.443-4.679-50.172-34.202-61.297-62.208
	c19.033-10.742,40.056-16.694,61.297-17.855V317.731z M200.307,306.909c-15.517-6.68-30.129-16.296-42.988-29.015
	c5.181-5.12,10.666-9.752,16.396-13.9C180.12,279.423,188.889,294.549,200.307,306.909z M311.603,306.917
	c11.43-12.369,20.199-27.508,26.599-42.922c5.729,4.148,11.214,8.779,16.396,13.9C342.026,290.315,327.584,300.038,311.603,306.917z
	 M200.311,49.234c-11.424,12.365-20.194,27.499-26.596,42.919c-5.729-4.148-11.215-8.78-16.396-13.9
	C169.827,65.89,184.155,56.23,200.311,49.234z M248.233,38.417v80.062c-21.241-1.161-42.264-7.113-61.297-17.855
	C198.046,72.656,218.768,43.099,248.233,38.417z M248.233,133.95v36.398h-75.152c0.623-18.875,3.541-37.57,8.731-54.902
	C202.536,126.648,225.279,132.821,248.233,133.95z M248.233,185.799v36.398c-22.952,1.129-45.696,7.303-66.421,18.505
	c-5.189-17.332-8.108-36.028-8.731-54.903H248.233z M146.933,89.694c6.683,6.55,13.814,12.376,21.294,17.478
	c-6.216,19.429-9.827,40.87-10.502,63.176h-41.824C117.524,140.618,128.395,112.529,146.933,89.694z"/>
<path style="fill:#CBE8EF;" d="M438.238,242.334c-1.977,0-3.954-0.754-5.463-2.262l-34.765-34.765
	c-3.017-3.018-3.017-7.909,0-10.926c3.017-3.016,7.909-3.016,10.925,0l34.765,34.765c3.017,3.018,3.017,7.909,0,10.926
	C442.193,241.58,440.215,242.334,438.238,242.334z"/>
<path style="fill:#E1F3F9;" d="M410.725,207.095c-40.445,40.445-106.255,40.445-146.7,0c-40.446-40.446-40.446-106.255,0-146.701
	s106.255-40.445,146.701,0C451.17,100.84,451.17,166.65,410.725,207.095z"/>
<path style="fill:#CBE8EF;" d="M284.626,207.095c-61.645-61.644-23.885-167.922,63.049-176.523
	c-29.882-2.956-60.811,6.982-83.651,29.822c-40.445,40.445-40.445,106.255,0,146.701c22.84,22.84,53.769,32.779,83.651,29.822
	C324.643,234.639,302.231,224.7,284.626,207.095z"/>
<path style="fill:#C64757;" d="M436.16,226.026l-6.504,6.504c-4.769,4.769-4.769,12.574,0,17.343l54.92,54.92
	c4.769,4.769,12.574,4.769,17.343,0l6.504-6.504c4.769-4.769,4.769-12.574,0-17.343l-54.92-54.92
	C448.733,221.256,440.929,221.257,436.16,226.026z"/>
<g>
	<path style="fill:#AF3549;" d="M450.257,249.873c-4.769-4.769-4.769-12.574,0-17.343l4.875-4.875l-1.629-1.629
		c-4.77-4.769-12.574-4.769-17.343,0l-6.504,6.504c-4.769,4.769-4.769,12.574,0,17.343l54.92,54.92
		c4.769,4.769,12.574,4.769,17.343,0l1.629-1.629L450.257,249.873z"/>
	<path style="fill:#AF3549;" d="M457.116,277.333l27.46,27.46c4.769,4.769,12.574,4.769,17.343,0l6.504-6.504
		c4.769-4.769,4.769-12.574,0-17.343l-27.46-27.46L457.116,277.333z"/>
</g>
<path style="fill:#A32F48;" d="M503.222,303.49l0.326-0.326l-36.132-36.132l-10.301,10.301l27.46,27.46
	c4.769,4.769,12.574,4.769,17.343,0L503.222,303.49z"/>
<path style="fill:#B5E3EA;" d="M278.477,74.847c-32.476,32.476-32.476,85.319,0,117.795s85.319,32.476,117.795,0
	s32.476-85.319,0-117.795S310.953,42.371,278.477,74.847z"/>
<path style="fill:#90D8E0;" d="M299.079,192.642c-48.804-48.803-20.14-132.999,48.596-141.495
	c-24.618-3.043-50.34,4.842-69.198,23.7c-32.476,32.476-32.476,85.319,0,117.795c18.858,18.858,44.581,26.743,69.198,23.7
	C329.899,214.145,312.697,206.26,299.079,192.642z"/>
<path style="fill:#EADCD6;" d="M468.132,401.076c-53.403-1.771-61.187-23.357-115.607-31.796
	c-56.767-8.803-96.649,31.912-96.649,31.912l0.178,28.977h219.249v-21.721C475.303,404.454,472.123,401.208,468.132,401.076z"/>
<path style="fill:#DDCDC7;" d="M346.714,368.548c-53.658-5.305-90.839,32.644-90.839,32.644l0.178,28.977h20.602v-23.164
	c0-3.872,1.699-7.543,4.655-10.043C290.88,388.869,314.589,371.713,346.714,368.548z"/>
<path style="fill:#EADCD6;" d="M160.422,369.28c-54.321,8.424-62.176,29.947-115.316,31.786c-4.167,0.144-7.463,3.587-7.463,7.757
	v21.346h219.249l0.178-28.977C257.071,401.191,217.189,360.477,160.422,369.28z"/>
<path style="fill:#DDCDC7;" d="M58.246,407.993c0-3.592,1.931-6.754,4.825-8.473c-5.401,0.779-11.33,1.316-17.964,1.546
	c-4.167,0.144-7.463,3.587-7.463,7.757v21.346h20.602C58.246,430.169,58.246,407.993,58.246,407.993z"/>
<path style="fill:#BA7052;" d="M502.352,429.139H9.565c-5.283,0-9.565,4.282-9.565,9.565v17.617c0,5.282,4.282,9.565,9.565,9.565
	h217.417c2.753,0,5.051,1.984,5.591,4.684c2.175,10.881,11.781,19.08,23.303,19.08c11.757,0,21.52-8.538,23.427-19.752
	c0.395-2.324,2.426-4.012,4.783-4.012h218.267c5.282,0,9.565-4.282,9.565-9.565v-17.617
	C511.917,433.421,507.635,429.139,502.352,429.139z"/>
<path style="fill:#AD644B;" d="M502.352,445.284H284.085c-2.357,0-4.388,1.688-4.783,4.012
	c-1.906,11.214-11.669,19.752-23.427,19.752c-11.521,0-21.127-8.199-23.303-19.08c-0.54-2.699-2.838-4.684-5.591-4.684H9.565
	c-4.773,0-8.719-3.501-9.437-8.073C0.051,437.699,0,438.195,0,438.704v17.617c0,5.282,4.282,9.565,9.565,9.565h217.417
	c2.753,0,5.051,1.985,5.591,4.684c2.175,10.881,11.781,19.08,23.303,19.08c11.757,0,21.52-8.538,23.427-19.752
	c0.395-2.324,2.426-4.012,4.783-4.012h218.267c5.283,0,9.565-4.282,9.565-9.565v-17.617c0-0.509-0.051-1.005-0.128-1.492
	C511.071,441.783,507.126,445.284,502.352,445.284z"/>
<g>
</g>
<g>
</g>
<g>
</g>
<g>
</g>
<g>
</g>
<g>
</g>
<g>
</g>
<g>
</g>
<g>
</g>
<g>
</g>
<g>
</g>
<g>
</g>
<g>
</g>
<g>
</g>
<g>
</g>
</svg>
