<svg id="Capa_1" enable-background="new 0 0 512 512" height="512" viewBox="0 0 512 512" width="512" xmlns="http://www.w3.org/2000/svg"><g><g><path d="m260.469 94.543c-12.547-32.689-34.12-69.377-67.619-94.05-2.194-1.616-4.957 1.067-3.454 3.353 13.91 21.156 41.224 74.061 42.571 165.216 5.111-21.528 13.818-48.602 28.502-74.519z" fill="#00c53b"/></g><path d="m213.595 18.706c-6.34-6.553-13.241-12.686-20.745-18.213-2.194-1.616-4.957 1.067-3.454 3.353 13.91 21.156 41.224 74.061 42.571 165.216 2.947-12.411 7.099-26.668 12.892-41.481-5.729-51.6-19.817-87.289-31.264-108.875z" fill="#00b327"/><path d="m280.289 124.887c9.237-43.052 23.766-72.399 32.93-86.337 1.503-2.286-1.26-4.969-3.454-3.353-54.483 40.128-74.711 109.311-81.966 147.515h23.538c7.112-19.637 15.023-38.577 28.952-57.825z" fill="#74d579"/><path d="m313.219 38.55c1.503-2.286-1.26-4.969-3.454-3.353-54.482 40.128-74.71 109.311-81.966 147.515h14.938c6.333-33.346 22.556-90.292 62.81-130.92 2.78-5.35 5.392-9.774 7.672-13.242z" fill="#00c53b"/><path d="m256 182.712h30.219c8.991-49.205 25.144-79.802 35.038-94.85 1.503-2.286-1.26-4.969-3.454-3.353-35.278 25.983-56.193 64.151-68.526 98.203z" fill="#74d579"/><path d="m321.257 87.862c1.504-2.286-1.26-4.969-3.454-3.353-35.278 25.983-56.193 64.151-68.526 98.203h6.723 8.215c9.859-27.22 25.211-57.064 48.989-81.218 2.922-5.471 5.67-10.008 8.053-13.632z" fill="#4bcd5c"/><path d="m292.508 185.632c-.183-2.911-2.623-5.168-5.54-5.168h-30.968-30.968c-2.917 0-5.357 2.257-5.54 5.168-5.995 95.48-179.551 48.482-179.551 189.081 0 143.069 216.059 137.254 216.059 137.254s216.059 5.815 216.059-137.255c0-140.598-173.556-93.6-179.551-189.08z" fill="#ffd086"/><g><path d="m82.179 374.712c0-140.599 147.744-93.601 152.847-189.081.155-2.911 2.233-5.168 4.716-5.168h-14.71c-2.917 0-5.357 2.257-5.54 5.168-5.995 95.48-179.551 48.482-179.551 189.081 0 143.07 216.059 137.255 216.059 137.255s1.944.052 5.458.025c-28.568-.26-179.279-7.769-179.279-137.28z" fill="#ffc365"/></g><path d="m280.021 180.464h-24.021-24.021c0 102.358-118.76 51.179-118.76 194.249s142.781 137.254 142.781 137.254 142.781 5.815 142.781-137.255-118.76-91.891-118.76-194.248z" fill="#fcd79b"/><path d="m267.963 180.464h-11.963-11.963c0 102.358-59.145 51.179-59.145 194.249s71.108 137.254 71.108 137.254 71.108 5.815 71.108-137.255-59.145-91.891-59.145-194.248z" fill="#fee6c1"/></g></svg>