<svg height="512pt" viewBox="-80 0 512 512" width="512pt" xmlns="http://www.w3.org/2000/svg"><path d="m299.390625 512 21.261719-384.425781-164.394532-20.015625 20.015626 404.441406zm0 0" fill="#efe2dd"/><path d="m53.15625 512h123.117188v-404.441406l-144.378907 20.015625zm0 0" fill="#fff5f5"/><path d="m320.652344 0h-144.378906l-20.015626 83.804688 164.394532-20.015626zm0 0" fill="#ff4a4a"/><path d="m31.894531 0v63.789062l144.378907 20.015626v-83.804688zm0 0" fill="#ff9f22"/><path d="m348.148438 207.484375h-81.644532l-23.121094 112.300781 16.910157 112.304688h75.433593zm0 0" fill="#07485e"/><path d="m176.273438 207.484375-20.015626 112.300781 20.015626 112.304688h84.019531l6.210937-224.605469zm0 0" fill="#09607d"/><path d="m86.039062 207.484375-16.910156 112.273437 23.125 112.332032h84.019532v-224.605469zm0 0" fill="#07485e"/><path d="m4.398438 207.484375 12.421874 224.605469h75.433594l-6.214844-224.605469zm0 0" fill="#09607d"/><path d="m176.0625 127.574219h176.269531v-63.789063h-176.269531l-20.015625 31.894532zm0 0" fill="#c9001c"/><path d="m0 63.785156h176.273438v63.789063h-176.273438zm0 0" fill="#ff4a4a"/></svg>