<svg height="512pt" viewBox="0 -41 512.00068 512" width="512pt" xmlns="http://www.w3.org/2000/svg"><path d="m363.101562 120.203125c-4.152343 0-7.609374-3.273437-7.792968-7.460937-.027344-.589844-2.050782-38.539063-24.125-77.121094-2.140625-3.742188-.84375-8.511719 2.898437-10.652344 3.742188-2.144531 8.511719-.84375 10.652344 2.898438 24.101563 42.125 26.097656 82.496093 26.171875 84.195312.1875 4.308594-3.15625 7.949219-7.460938 8.136719-.113281.003906-.230468.003906-.34375.003906zm0 0" fill="#659922"/><path d="m149.875 125.148438c-4.308594 0-7.804688-3.492188-7.804688-7.804688 0-36.875 2.238282-76.054688 28.976563-114.03125 2.480469-3.523438 7.347656-4.371094 10.875-1.890625 3.527344 2.484375 4.371094 7.351563 1.886719 10.878906-26.125 37.109375-26.125 77.992188-26.125 105.042969 0 4.3125-3.496094 7.804688-7.808594 7.804688zm0 0" fill="#659922"/><path d="m363.109375 112.398438s-5.589844-62.570313-68.25-62.472657c-1.5 0-2.761719 1.148438-2.875 2.644531-.898437 11.703126-1.289063 59.648438 49.835937 77.566407zm0 0" fill="#8bcc3f"/><path d="m294.707031 49.933594c36.253907 11.207031 50.34375 54.246094 54.9375 73.679687l13.464844-11.214843s-5.605469-62.65625-68.402344-62.464844zm0 0" fill="#659922"/><path d="m363.109375 112.398438s-13.667969-60.722657 45.078125-80.074219c1.910156-.625 3.972656.359375 4.707031 2.226562 4.785157 12.222657 18.0625 56.347657-24.097656 88.230469zm0 0" fill="#8bcc3f"/><path d="m408.179688 32.328125c-2.863282.949219-5.550782 1.992187-8.085938 3.121094 2.980469 19.105469 3.796875 55.335937-24.6875 81.921875l13.390625 5.410156c42.15625-31.882812 28.882813-76.003906 24.097656-88.226562-.734375-1.875-2.804687-2.855469-4.714843-2.226563zm0 0" fill="#659922"/><path d="m503.390625 176.355469c-33.058594-80.738281-125.160156-66.324219-140.28125-63.957031-15.121094 2.367187-107.226563 16.78125-114.035156 103.753906-6.492188 82.933594 87.078125 177.910156 156.417969 167.058594 69.335937-10.851563 129.417968-129.875 97.898437-206.855469zm0 0" fill="#fb4239"/><path d="m316.621094 209.136719c-5.863282-24.671875-17.03125-45.820313-33.003906-62.929688-17.730469 15.382813-32.015626 37.664063-34.542969 69.945313-3.226563 41.207031 18.253906 85.378906 49.1875 118.074218 20.410156-41.992187 27.433593-86.917968 18.359375-125.089843zm0 0" fill="#d10d0d"/><path d="m503.390625 176.355469c-11.917969-29.105469-31.507813-45.84375-52.398437-55.238281 7.34375 8.285156 13.796874 18.410156 18.859374 30.777343 31.519532 76.984375-28.558593 196.003907-97.898437 206.855469-20.109375 3.148438-42.257813-2.621094-63.410156-14.402344 29.679687 27.210938 65.761719 43.742188 96.949219 38.863282 69.335937-10.851563 129.417968-129.875 97.898437-206.855469zm0 0" fill="#e31f1d"/><g fill="#ffd15f"><path d="m379.292969 156.664062c-.78125-4.988281-5.460938-8.398437-10.449219-7.617187-4.992188.777344-8.402344 5.457031-7.621094 10.445313.78125 4.992187 6.871094 17.4375 11.863282 16.65625 4.988281-.78125 6.988281-14.496094 6.207031-19.484376zm0 0"/><path d="m447.589844 167.265625c-.78125-4.992187-5.457032-8.402344-10.449219-7.621094-4.988281.78125-8.398437 5.457031-7.617187 10.449219.78125 4.988281 6.871093 17.433594 11.859374 16.652344 4.992188-.78125 6.988282-14.492188 6.207032-19.480469zm0 0"/><path d="m422.644531 226.699219c-.777343-4.988281-5.457031-8.398438-10.445312-7.617188-4.992188.78125-8.402344 5.457031-7.621094 10.445313.78125 4.992187 6.871094 17.4375 11.863281 16.65625 4.988282-.78125 6.984375-14.492188 6.203125-19.484375zm0 0"/><path d="m462.074219 283.46875c-.78125-4.988281-5.457031-8.402344-10.449219-7.621094-4.988281.78125-8.398438 5.460938-7.617188 10.449219s6.871094 17.4375 11.859376 16.65625c4.992187-.78125 6.988281-14.496094 6.207031-19.484375zm0 0"/><path d="m405.164062 321.992188c-.78125-4.988282-5.457031-8.398438-10.449218-7.617188-4.988282.777344-8.398438 5.457031-7.617188 10.445312.78125 4.988282 6.871094 17.4375 11.859375 16.65625 4.992188-.78125 6.988281-14.496093 6.207031-19.484374zm0 0"/><path d="m490.515625 204.972656c-.78125-4.988281-5.460937-8.402344-10.449219-7.621094-4.988281.78125-8.402344 5.460938-7.621094 10.449219.78125 4.992188 6.875 17.4375 11.863282 16.65625 4.988281-.78125 6.988281-14.492187 6.207031-19.484375zm0 0"/><path d="m299.425781 190.449219c-.78125-4.988281 2.632813-9.664063 7.621094-10.445313 4.992187-.78125 9.667969 2.628906 10.449219 7.621094.78125 4.988281-1.21875 18.699219-6.207032 19.480469-4.988281.78125-11.082031-11.664063-11.863281-16.65625zm0 0"/><path d="m341.335938 239.425781c-.78125-4.988281 2.632812-9.667969 7.621093-10.449219 4.992188-.78125 9.667969 2.632813 10.449219 7.621094.78125 4.988282-1.21875 18.703125-6.207031 19.484375-4.992188.78125-11.082031-11.667969-11.863281-16.65625zm0 0"/><path d="m321.136719 305.523438c-.777344-4.988282 2.632812-9.664063 7.621093-10.445313 4.992188-.78125 9.667969 2.628906 10.449219 7.617187.78125 4.992188-1.21875 18.703126-6.207031 19.484376s-11.082031-11.664063-11.863281-16.65625zm0 0"/><path d="m387.097656 324.820312c-.78125-4.988281 2.628906-9.667968 7.617188-10.445312 4.992187-.78125 9.667968 2.628906 10.449218 7.617188.78125 4.992187-1.214843 18.703124-6.207031 19.484374-4.988281.78125-11.078125-11.667968-11.859375-16.65625zm0 0"/><path d="m270.078125 239.472656c-.78125-4.992187 2.628906-9.667968 7.617187-10.449218 4.992188-.78125 9.667969 2.628906 10.449219 7.621093.78125 4.988281-1.21875 18.699219-6.207031 19.480469s-11.078125-11.664062-11.859375-16.652344zm0 0"/></g><path d="m121.8125 131.738281s-17.261719-69.652343-88.042969-58.304687c-1.46875.234375-2.527343 1.539062-2.417969 3.027344.90625 12.625 8.371094 67.59375 69.609376 78.9375zm0 0" fill="#8bcc3f"/><path d="m39.738281 72.664062c39.152344 17.761719 61.214844 82.71875 61.21875 82.734376h.003907l20.851562-23.660157s-16.292969-65.6875-82.074219-59.074219zm0 0" fill="#659922"/><path d="m149.875 117.34375s4.746094-71.601562-66.132812-82.324219c-1.472657-.222656-2.875.699219-3.226563 2.148438-2.976563 12.304687-12.585937 66.9375 42.300781 96.375zm0 0" fill="#8bcc3f"/><path d="m83.953125 35.0625c38.796875 18.984375 47.066406 69.859375 48.808594 92.523438l17.113281-10.242188s4.726562-71.445312-65.921875-82.28125zm0 0" fill="#659922"/><path d="m177.941406 131.738281s16.8125-67.839843 85.289063-58.710937c3.050781.40625 5.253906 3.160156 4.921875 6.222656-1.777344 16.433594-11.890625 65.5-69.359375 76.148438zm0 0" fill="#8bcc3f"/><path d="m254.21875 72.257812c-2.710938 18.515626-14.457031 60.730469-65.257812 71.980469l9.832031 11.160157c57.464843-10.648438 67.578125-59.710938 69.359375-76.144532.332031-3.078125-1.894532-5.824218-4.960938-6.226562-3.09375-.410156-6.082031-.65625-8.972656-.769532zm0 0" fill="#659922"/><path d="m149.875 117.34375s-4.703125-71.015625 65.269531-82.1875c1.96875-.316406 3.855469.945312 4.300781 2.886719 3.160157 13.828125 11.164063 66.714843-42.507812 95.5zm0 0" fill="#8bcc3f"/><path d="m215.136719 35.15625c-3.566407.574219-6.933594 1.304688-10.125 2.167969-.011719 22.007812-5.46875 62.894531-42.179688 87.773437l14.105469 8.445313c53.667969-28.785157 45.667969-81.667969 42.507812-95.496094-.445312-1.945313-2.335937-3.203125-4.308593-2.890625zm0 0" fill="#659922"/><path d="m296.371094 213.949219c-22.964844-96.605469-129.074219-96.605469-146.496094-96.605469-17.417969 0-123.527344 0-146.492188 96.605469-21.894531 92.117187 66.613282 215.386719 146.492188 215.386719 79.882812 0 168.390625-123.269532 146.496094-215.386719zm0 0" fill="#fb4239"/><path d="m296.371094 213.949219c-8.28125-34.824219-27.363282-57.09375-49.203125-71.335938 6.800781 10.613281 12.277343 23.132813 15.792969 37.929688 21.898437 92.113281-66.609376 215.382812-146.492188 215.382812-23.167969 0-47.058594-10.382812-68.773438-27.355469 28.585938 35.820313 66.253907 60.765626 102.179688 60.765626 79.882812 0 168.390625-123.269532 146.496094-215.386719zm0 0" fill="#e31f1d"/><path d="m160.285156 169.96875c0-5.746094-4.660156-10.40625-10.40625-10.40625-5.75 0-10.410156 4.660156-10.410156 10.40625 0 5.75 4.660156 20.816406 10.410156 20.816406 5.746094 0 10.40625-15.066406 10.40625-20.816406zm0 0" fill="#ffd15f"/><path d="m235.222656 193.90625c0-5.746094-4.660156-10.40625-10.40625-10.40625-5.75 0-10.410156 4.660156-10.410156 10.40625 0 5.75 4.660156 20.816406 10.410156 20.816406 5.746094.003906 10.40625-15.066406 10.40625-20.816406zm0 0" fill="#ffd15f"/><path d="m196.714844 256.355469c0-5.746094-4.660156-10.40625-10.410156-10.40625-5.746094 0-10.40625 4.660156-10.40625 10.40625 0 5.75 4.660156 20.816406 10.40625 20.816406 5.75 0 10.410156-15.066406 10.410156-20.816406zm0 0" fill="#ffd15f"/><path d="m231.058594 327.132812c0-5.75-4.660156-10.410156-10.40625-10.410156-5.75 0-10.410156 4.660156-10.410156 10.410156 0 5.746094 4.660156 20.816407 10.410156 20.816407 5.746094 0 10.40625-15.070313 10.40625-20.816407zm0 0" fill="#ffd15f"/><path d="m160.285156 360.4375c0-5.746094-4.660156-10.40625-10.40625-10.40625-5.75 0-10.410156 4.660156-10.410156 10.40625 0 5.75 4.660156 20.816406 10.410156 20.816406 5.746094 0 10.40625-15.066406 10.40625-20.816406zm0 0" fill="#ffd15f"/><path d="m276.855469 243.867188c0-5.75-4.660157-10.40625-10.40625-10.40625-5.75 0-10.410157 4.65625-10.410157 10.40625 0 5.746093 4.660157 20.816406 10.410157 20.816406 5.746093 0 10.40625-15.070313 10.40625-20.816406zm0 0" fill="#ffd15f"/><path d="m64.53125 193.90625c0-5.746094 4.660156-10.40625 10.40625-10.40625 5.75 0 10.410156 4.660156 10.410156 10.40625 0 5.75-4.660156 20.816406-10.410156 20.816406-5.746094.003906-10.40625-15.066406-10.40625-20.816406zm0 0" fill="#ffd15f"/><path d="m103.039062 256.355469c0-5.746094 4.660157-10.40625 10.410157-10.40625 5.746093 0 10.40625 4.660156 10.40625 10.40625 0 5.75-4.660157 20.816406-10.40625 20.816406-5.75 0-10.410157-15.066406-10.410157-20.816406zm0 0" fill="#ffd15f"/><path d="m68.695312 327.132812c0-5.75 4.65625-10.410156 10.40625-10.410156 5.746094 0 10.40625 4.660156 10.40625 10.410156 0 5.746094-4.660156 20.816407-10.40625 20.816407-5.75 0-10.40625-15.070313-10.40625-20.816407zm0 0" fill="#ffd15f"/><path d="m139.46875 360.4375c0-5.746094 4.660156-10.40625 10.40625-10.40625 5.75 0 10.410156 4.660156 10.410156 10.40625 0 5.75-4.660156 20.816406-10.410156 20.816406-5.746094 0-10.40625-15.066406-10.40625-20.816406zm0 0" fill="#ffd15f"/><path d="m22.898438 243.867188c0-5.75 4.660156-10.40625 10.40625-10.40625 5.75 0 10.410156 4.65625 10.410156 10.40625 0 5.746093-4.660156 20.816406-10.410156 20.816406-5.746094 0-10.40625-15.070313-10.40625-20.816406zm0 0" fill="#ffd15f"/></svg>