<?xml version="1.0" encoding="iso-8859-1"?>
<!-- Generator: Adobe Illustrator 21.0.0, SVG Export Plug-In . SVG Version: 6.00 Build 0)  -->
<svg xmlns="http://www.w3.org/2000/svg" xmlns:xlink="http://www.w3.org/1999/xlink" version="1.1" id="Capa_1" x="0px" y="0px" viewBox="0 0 512 512" style="enable-background:new 0 0 512 512;" xml:space="preserve" width="512" height="512">
<g>
	<path style="fill:#E6E6E6;" d="M293.604,373.784c-5.749-5.751-147.935-147.936-155.386-155.387c-5.847-5.848-15.339-5.85-21.189,0   l-80.518,80.519c-48.682,48.682-48.682,127.893,0.001,176.574C60.852,499.831,92.825,512,124.799,512s63.946-12.17,88.287-36.511   l80.518-80.518C299.454,389.121,299.455,379.634,293.604,373.784z"/>
	<path style="fill:#D9D9D9;" d="M217.659,297.837L38.281,477.215C62.391,500.401,93.593,512,124.799,512   c31.973,0,63.946-12.17,88.287-36.511l80.518-80.518c5.851-5.851,5.852-15.337,0.001-21.188   C290.758,370.937,254.478,334.656,217.659,297.837z"/>
	<path style="fill:#87553C;" d="M371.746,77.586L157.373,291.959c-17.988,17.988-17.534,47.283,1.142,64.685   c17.806,16.589,45.233,16.103,62.439-1.103l214.373-214.373L371.746,77.586z"/>
	<path style="fill:#72462E;" d="M158.694,356.803c17.81,16.422,45.111,15.888,62.26-1.262l214.373-214.373l-30.499-30.499   L158.694,356.803z"/>
	<path style="fill:#FEC03F;" d="M441.93,162.75c-3.859,0-7.694-1.485-10.598-4.389l-77.693-77.693   c-5.256-5.256-5.864-13.57-1.429-19.535l40.966-55.092c2.599-3.494,6.588-5.685,10.931-6.002c4.336-0.317,8.608,1.27,11.687,4.349   l91.819,91.819c3.079,3.079,4.667,7.345,4.349,11.687s-2.509,8.332-6.003,10.93l-55.091,40.965   C448.198,161.775,445.057,162.75,441.93,162.75z M383.978,68.63l59.392,59.392l30.787-22.892l-67.286-67.286L383.978,68.63z"/>
	<path style="fill:#ED961F;" d="M507.612,96.208l-44.161-44.162l-21.189,21.189l31.895,31.895l-30.787,22.892l-27.948-27.948   l-21.189,21.189l37.099,37.098c2.904,2.904,6.739,4.389,10.598,4.389c3.126,0,6.267-0.975,8.936-2.959l55.091-40.965   c3.494-2.598,5.685-6.588,6.003-10.93S510.691,99.286,507.612,96.208z"/>
</g>















</svg>
