<svg height="511pt" viewBox="-79 0 511 511.99981" width="511pt" xmlns="http://www.w3.org/2000/svg"><path d="m204.128906 254.773438-76.359375-6.164063 19.4375-240.851563c.375-4.644531 4.445313-8.105468 9.085938-7.7304682l59.546875 4.8046872c4.640625.375 8.101562 4.445313 7.726562 9.085938zm0 0" fill="#ff8dc1"/><path d="m215.839844 4.832031-46.859375-3.78125-20.121094 249.261719 55.269531 4.460938 19.4375-240.855469c.375-4.640625-3.085937-8.710938-7.726562-9.085938zm0 0" fill="#ff547f"/><g fill="#e6e6f2"><path d="m221.382812 40.984375-29.5625-2.386719c-4.25-.351562-7.976562 2.824219-8.320312 7.078125-.34375 4.253907 2.824219 7.980469 7.078125 8.324219l29.5625 2.386719zm0 0"/><path d="m216.972656 95.652344-29.5625-2.382813c-4.257812-.347656-7.980468 2.824219-8.324218 7.078125s2.824218 7.980469 7.078124 8.320313l29.5625 2.386719zm0 0"/><path d="m212.558594 150.324219-29.5625-2.386719c-4.261719-.339844-7.980469 2.828125-8.320313 7.082031-.347656 4.253907 2.824219 7.976563 7.078125 8.320313l29.5625 2.386718zm0 0"/></g><path d="m336.699219 196.679688c-.480469 0-.96875-.042969-1.457031-.140626-4.191407-.800781-6.941407-4.84375-6.140626-9.035156l8.902344-46.640625c.472656-2.484375-1.164062-4.894531-3.648437-5.367187l-22.699219-4.28125c-4.191406-.792969-6.949219-4.832032-6.160156-9.027344.792968-4.191406 4.828125-6.953125 9.027344-6.160156l22.710937 4.285156c5.273437 1.007812 9.828125 4 12.835937 8.425781 3.011719 4.429688 4.117188 9.765625 3.113282 15.023438l-8.902344 46.640625c-.707031 3.699218-3.949219 6.277344-7.582031 6.277344zm0 0" fill="#415f7d"/><path d="m313.355469 92.179688-29.332031-5.59375 9.863281-51.699219c1.542969-8.097657 9.363281-13.414063 17.460937-11.867188 8.101563 1.542969 13.414063 9.363281 11.871094 17.460938zm0 0" fill="#415f7d"/><path d="m299.794411 394.10175-1.777344 9.320312-4.566406 72.996094c-.753906 12.070313 16.320313 15.328125 20.058594 3.828125l22.625-69.550781 1.78125-9.324219zm0 0" style="fill:none;stroke-width:15;stroke-linecap:round;stroke-linejoin:round;stroke:#000;stroke-miterlimit:10" transform="translate(-78.978005 -.000187)"/><path d="m252.332031 414.910156-30.359375-5.792968c-4.9375-.941407-8.175781-5.707032-7.234375-10.640626l60.75-318.496093c1.265625-6.628907 7.664063-10.980469 14.296875-9.714844l24.222656 4.621094c6.632813 1.261719 10.980469 7.664062 9.71875 14.292969l-60.75 318.496093c-.941406 4.9375-5.707031 8.175781-10.644531 7.234375zm0 0" fill="#ff7e7e"/><path d="m271.984375 98.363281 48.238281 9.203125-6.402344 33.550782-48.238281-9.203126zm0 0" fill="#ffe591"/><path d="m47.757812 103.296875-36.195312-69.273437c-2.984375-5.714844-11.664062-3.121094-11.03125 3.292968l7.703125 77.78125c.609375 6.148438 1.804687 12.222656 3.574219 18.144532l94.222656 315.648437c3.535156 11.847656 16.007812 18.585937 27.855469 15.046875 11.847656-3.535156 18.585937-16.007812 15.050781-27.855469l-94.222656-315.648437c-1.765625-5.917969-4.097656-11.65625-6.957032-17.136719zm0 0" fill="#a1e3af"/><path d="m.535156 37.316406 7.703125 77.78125c.300781 3.058594.75 6.101563 1.34375 9.113282l42.050781-12.550782c-1.160156-2.84375-2.453124-5.636718-3.875-8.363281l-36.195312-69.273437c-2.984375-5.714844-11.664062-3.121094-11.027344 3.292968zm0 0" fill="#415f7d"/><path d="m262.492188 512h-180.984376c-38.335937 0-69.410156-31.078125-69.410156-69.410156v-209.601563c0-8.175781 6.625-14.800781 14.800782-14.800781h290.199218c8.175782 0 14.804688 6.625 14.804688 14.800781v209.601563c0 38.332031-31.078125 69.410156-69.410156 69.410156zm0 0" fill="#aae1e7"/><path d="m317.097656 218.1875h-41.671875v224.402344c0 38.332031-31.078125 69.410156-69.410156 69.410156h56.476563c38.332031 0 69.410156-31.078125 69.410156-69.410156v-209.601563c0-8.175781-6.628906-14.800781-14.804688-14.800781zm0 0" fill="#76c0cf"/></svg>