<?xml version="1.0" encoding="iso-8859-1"?>
<!-- Generator: Adobe Illustrator 19.0.0, SVG Export Plug-In . SVG Version: 6.00 Build 0)  -->
<svg version="1.1" id="Capa_1" xmlns="http://www.w3.org/2000/svg" xmlns:xlink="http://www.w3.org/1999/xlink" x="0px" y="0px"
	 viewBox="0 0 512.001 512.001" style="enable-background:new 0 0 512.001 512.001;" xml:space="preserve">
<path style="fill:#823214;" d="M86.876,493.701H15.208C6.809,493.701,0,486.892,0,478.493V387.54
	c0-8.399,6.809-15.208,15.208-15.208h71.668c8.399,0,15.208,6.809,15.208,15.208v90.953
	C102.084,486.892,95.275,493.701,86.876,493.701z"/>
<path style="fill:#69280F;" d="M496.792,493.701h-71.667c-8.399,0-15.208-6.809-15.208-15.208V387.54
	c0-8.399,6.809-15.208,15.208-15.208h71.668c8.399,0,15.208,6.809,15.208,15.208v90.953
	C512,486.892,505.191,493.701,496.792,493.701z"/>
<path style="fill:#965028;" d="M467.03,18.3H44.97C20.174,18.3,0,38.474,0,63.271V387.54c0,8.399,6.809,15.208,15.208,15.208
	h481.584c8.399,0,15.208-6.809,15.208-15.208V63.271C512,38.474,491.826,18.3,467.03,18.3z"/>
<path style="fill:#823214;" d="M467.03,18.3H258.888v384.447h237.904c8.399,0,15.208-6.809,15.208-15.208V63.271
	C512,38.474,491.826,18.3,467.03,18.3z"/>
<path style="fill:#EBF0FA;" d="M425.122,92.559H255.996H86.876c-8.399,0-15.208,6.809-15.208,15.208v94.985
	c0,8.399,6.809,15.208,15.208,15.208h338.245c8.399,0,15.208-6.809,15.208-15.208v-94.985
	C440.33,99.369,433.521,92.559,425.122,92.559z"/>
<path style="fill:#CDD2E1;" d="M258.888,217.961h166.234c8.399,0,15.208-6.809,15.208-15.208v-94.985
	c0-8.399-6.809-15.208-15.208-15.208c0,0-143.928,0-166.234,0V217.961z"/>
<path style="fill:#AAC85A;" d="M496.792,333.668H15.208C6.809,333.668,0,326.859,0,318.46v-47.383
	c0-46.06,37.473-83.533,83.533-83.533h344.935c46.06,0,83.533,37.473,83.533,83.533v47.383
	C512,326.859,505.191,333.668,496.792,333.668z"/>
<path style="fill:#6EAA50;" d="M428.467,187.545H258.888v146.124h237.904c8.399,0,15.208-6.809,15.208-15.208v-47.383
	C512,225.017,474.527,187.545,428.467,187.545z"/>
<g>
</g>
<g>
</g>
<g>
</g>
<g>
</g>
<g>
</g>
<g>
</g>
<g>
</g>
<g>
</g>
<g>
</g>
<g>
</g>
<g>
</g>
<g>
</g>
<g>
</g>
<g>
</g>
<g>
</g>
</svg>
