<svg id="Layer_1" enable-background="new 0 0 509.963 509.963" height="512" viewBox="0 0 509.963 509.963" width="512" xmlns="http://www.w3.org/2000/svg"><g id="XMLID_3769_"><path id="XMLID_3807_" d="m431.702 126.181c-27.251-45.42-64.668-57.389-95.871-48.479l-15.93 18.136 8.65 18.35c49.66-35.442 101.646 35.502 101.646 125.775 0 30.698-6.098 60.132-16.647 83.709l-4.194 58.213c57.522-53.694 67.983-179.638 22.346-255.704z" fill="#b8c1d1"/><path id="XMLID_3804_" d="m229.776 4.508-1.687-.307c-38.596-7.014-78.99-5.221-116.815 5.187l-31.244 8.596 26.77 18.259c.272.187 26.501 18.442 33.522 53.721l55.454 10 34-10 10-44.981z" fill="#dfe7f4"/><path id="XMLID_3803_" d="m332.622 89.963c6.037-26.213 15.333-43.769 15.441-43.971l9.854-18.2-128.141-23.284v85.455l53 10z" fill="#c7cfe1"/><path id="XMLID_3800_" d="m229.776 89.963h-89.454c7.836 39.372-12.288 78.812-36.888 110.763-1.936 2.448-25.021 32.195-39.516 75.755-34.81 104.619 20.026 168.595 21.826 173.477l7.982.005 76.383 10 59.667-10 10-175z" fill="#f0f7ff"/><path id="XMLID_3797_" d="m414.889 354.194c2.705-40.474-12.6-80.895-41.992-110.898-41.393-42.242-53.619-95.393-40.275-153.332h-102.846v360l67.5 10 77.539-10c2.891-5.368 37.227-53.263 40.074-95.77z" fill="#dfe7f4"/><path id="XMLID_3794_" d="m79.776 449.963c-16.568 0-30 13.432-30 30 0 16.569 13.432 30 30 30h150l10-29.999-10-29.918c-1.308 0 16.293.01-150-.083z" fill="#dfe7f4"/><path id="XMLID_3793_" d="m229.776 450.046v59.917h150c16.568 0 30-13.431 30-30 0-16.568-13.432-30-30-30h-4.961l-.108.172z" fill="#c7cfe1"/><path id="XMLID_3790_" d="m229.776 450.046 144.93.089.109-.172h-145.039z" fill="#dfe7f4"/><path id="XMLID_3784_" d="m133.972 209.896c-3.776 5.29-6.921 9.325-6.998 9.427-.203.256-21.854 27.812-34.878 67.501-15.985 48.714-12.518 93.464 10.286 133.145l127.394.078 10-105.083-10-134.864c-44.579 2.192-45.492 31.458-95.804 29.796z" fill="#f4d844"/><path id="XMLID_3783_" d="m351.467 264.29c-16.645-16.986-29.526-35.889-38.52-56.318-31.386-6.965-37.757-30.107-83.171-27.873v239.947l128.321.079c16.868-27.855 25.667-50.13 26.858-67.934 2.136-31.955-10.07-63.995-33.488-87.901z" fill="#ecbd2c"/><path id="XMLID_3782_" d="m167.211 371.154c-43.328 0-77.981-54.129-27.07-105.04l9.959-9.96 79.676 79.676-9.959 9.959c-18.057 18.056-36.393 25.365-52.606 25.365z" fill="#ecbd2c"/><g id="XMLID_3778_"><g><path id="XMLID_766_" d="m250.198 254.963h30v30h-30z" fill="#e58f22"/></g></g><g id="XMLID_3774_"><g><path id="XMLID_763_" d="m265.198 359.963h30v30h-30z" fill="#e58f22"/></g></g><g id="XMLID_3770_"><g><path id="XMLID_726_" d="m310.198 299.963h30v30h-30z" fill="#e58f22"/></g></g></g></svg>