<svg height="512pt" viewBox="0 -80 512 512" width="512pt" xmlns="http://www.w3.org/2000/svg"><g fill-rule="evenodd"><path d="m466.210938 0h-420.449219c-11.914063 0-21.699219 9.746094-21.699219 21.679688v274.375l231.921875 27.457031 231.925781-27.457031v-274.375c-.003906-11.933594-9.753906-21.679688-21.699218-21.679688zm0 0" fill="#c4cccf"/><path d="m192.910156 296.054688h-177.550781c-8.4375 0-15.359375 6.914062-15.359375 15.378906v24.1875c0 8.464844 6.921875 15.378906 15.359375 15.378906h481.25c8.46875 0 15.390625-6.914062 15.390625-15.378906v-24.1875c0-8.460938-6.921875-15.378906-15.390625-15.378906h-177.519531v15.992187c0 6.242187-5.140625 11.347656-11.386719 11.347656h-103.433594c-6.25 0-11.359375-5.105469-11.359375-11.347656zm0 0" fill="#eceff1"/><path d="m192.910156 296.054688v15.992187c0 6.242187 5.109375 11.347656 11.359375 11.347656h103.433594c6.25 0 11.390625-5.105469 11.390625-11.347656v-15.992187zm0 0" fill="#90a4ae"/><path d="m451.902344 44.675781v206.734375c0 3.09375-2.542969 5.574219-5.636719 5.574219h-29.375v39.070313h71.015625v-274.375c0-11.933594-9.753906-21.679688-21.695312-21.679688h-49.320313v39.042969h29.375c3.097656 0 5.636719 2.539062 5.636719 5.632812zm0 0" fill="#c4cccf"/><path d="m465.394531 298.738281c4.058594 2.773438 6.746094 7.441407 6.746094 12.695313v24.1875c0 8.464844-6.921875 15.378906-15.390625 15.378906h39.859375c8.46875 0 15.390625-6.914062 15.390625-15.378906v-24.1875c0-8.460938-6.921875-15.378906-15.390625-15.378906h-39.769531c3.152344.03125 6.101562.992187 8.554687 2.683593zm0 0" fill="#c4cccf"/><path d="m416.890625 296.054688h71.015625v-274.375c0-11.933594-9.753906-21.679688-21.695312-21.679688h-49.320313zm0 0" fill="#90a4ae"/></g><path d="m461.363281 331.292969h-.234375c-4.300781 0-7.785156-3.484375-7.785156-7.78125s3.484375-7.777344 7.785156-7.777344h.234375c4.300781 0 7.789063 3.480469 7.789063 7.777344s-3.488282 7.78125-7.789063 7.78125zm0 0" fill="#8bc34a"/><path d="m423.957031 331.292969h-.234375c-4.300781 0-7.785156-3.484375-7.785156-7.78125s3.484375-7.777344 7.785156-7.777344h.234375c4.300781 0 7.785157 3.480469 7.785157 7.777344s-3.484376 7.78125-7.785157 7.78125zm0 0" fill="#ffd54f"/><path d="m386.546875 331.496094h-.230469c-4.300781 0-7.789062-3.480469-7.789062-7.777344s3.488281-7.78125 7.789062-7.78125h.230469c4.300781 0 7.789063 3.484375 7.789063 7.78125s-3.488282 7.777344-7.789063 7.777344zm0 0" fill="#f55a8e"/><path d="m451.902344 251.410156v-206.734375c0-3.09375-2.542969-5.632812-5.636719-5.632812h-380.5625c-3.09375 0-5.605469 2.539062-5.605469 5.632812v206.734375c0 3.09375 2.511719 5.574219 5.605469 5.574219h380.5625c3.097656 0 5.636719-2.480469 5.636719-5.574219zm0 0" fill="#8ebfe8" fill-rule="evenodd"/><path d="m416.890625 39.042969v217.941406h29.375c3.09375 0 5.636719-2.480469 5.636719-5.574219v-206.734375c0-3.09375-2.542969-5.632812-5.636719-5.632812zm0 0" fill="#519ad6" fill-rule="evenodd"/><path d="m301.363281 150.789062c-2.070312 0-4.082031-.828124-5.558593-2.335937l-24.355469-24.832031c-3.007813-3.066406-2.960938-7.992188.113281-11.003906 3.070312-3.007813 8-2.953126 11.011719.113281l16.386719 16.710937 24.191406-53.453125c1.261718-2.785156 4.035156-4.578125 7.09375-4.578125h71.691406c4.300781 0 7.789062 3.484375 7.789062 7.78125s-3.488281 7.78125-7.789062 7.78125h-66.664062l-26.808594 59.242188c-1.0625 2.339844-3.207032 4.007812-5.738282 4.457031-.457031.078125-.910156.117187-1.363281.117187zm0 0" fill="#37474f"/><path d="m359.347656 137.027344-9.71875 12.144531c-1.734375 2.066406-3.523437 3.101563-5.367187 3.101563s-3.40625-.644532-4.691407-1.925782c-1.289062-1.285156-1.929687-2.851562-1.929687-4.691406 0-1.730469.472656-3.097656 1.425781-4.105469l12.488282-13.648437-9.890626-10.804688c-1.339843-1.449218-2.011718-3.042968-2.011718-4.773437 0-1.84375.613281-3.375 1.84375-4.605469.613281-.558594 1.3125-1.003906 2.097656-1.339844.78125-.335937 1.644531-.503906 2.597656-.503906 2.011719 0 3.6875.839844 5.027344 2.511719l8.128906 10.386719 8.296875-10.386719c1.34375-1.671875 3.019531-2.511719 5.03125-2.511719 1.84375 0 3.378907.644531 4.609375 1.925781 1.285156 1.171875 1.929688 2.679688 1.929688 4.523438 0 1.671875-.671875 3.265625-2.015625 4.773437l-9.886719 10.804688 12.402344 13.648437c1.007812 1.117188 1.507812 2.484375 1.507812 4.101563 0 1.84375-.640625 3.410156-1.925781 4.691406-1.285156 1.285156-2.851563 1.925781-4.695313 1.925781s-3.632812-1.03125-5.363281-3.097656zm0 0" fill="#37474f"/><path d="m386.695312 225.953125h-77.796874c-4.300782 0-7.785157-3.480469-7.785157-7.777344s3.484375-7.78125 7.785157-7.78125h77.796874c4.300782 0 7.785157 3.484375 7.785157 7.78125s-3.488281 7.777344-7.785157 7.777344zm0 0" fill="#37474f"/><path d="m386.695312 194.644531h-77.796874c-4.300782 0-7.785157-3.480469-7.785157-7.777343 0-4.296876 3.484375-7.78125 7.785157-7.78125h77.796874c4.300782 0 7.785157 3.484374 7.785157 7.78125 0 4.296874-3.488281 7.777343-7.785157 7.777343zm0 0" fill="#37474f"/><path d="m138.679688 141.726562c9.726562 12.195313 28.621093 32.09375 52.972656 18.46875 11.273437-6.300781 26.402344-18.90625 37.03125-15.203124l-30.429688-42.777344-15.742187-9.277344-15.738281 9.277344zm0 0" fill="#eceff1" fill-rule="evenodd"/><path d="m166.773438 102.214844h33.4375c7.300781 0 13.285156-5.953125 13.285156-13.246094s-5.984375-13.277344-13.285156-13.277344h-35.394532c-7.300781 0-13.285156 5.984375-13.285156 13.277344 0 7.296875 5.984375 13.246094 13.285156 13.246094zm0 0" fill="#eceff1" fill-rule="evenodd"/><path d="m122.414062 164.570312c-19.828124 22.761719 1.753907 53.605469 25.609376 53.605469h69.007812c23.828125 0 45.40625-30.84375 25.578125-53.605469l-13.925781-19.578124c-10.632813-3.707032-24.296875-5.980469-35.539063.320312-24.355469 13.628906-44.738281 8.609375-54.464843-3.585938zm0 0" fill="#f55a8e" fill-rule="evenodd"/><path d="m195.800781 88.96875c0 4.464844-2.25 8.433594-5.664062 10.855469-2.164063 1.515625-4.789063 2.390625-7.625 2.390625h17.699219c7.300781 0 13.285156-5.953125 13.285156-13.246094s-5.984375-13.277344-13.285156-13.277344h-17.695313c7.296875 0 13.285156 5.980469 13.285156 13.277344zm0 0" fill="#c4cccf" fill-rule="evenodd"/><path d="m191.242188 124.011719 12.644531 17.742187c8.5-1.226562 17.40625.671875 24.792969 3.238282l-30.425782-42.777344h-31.480468l-6.308594 8.902344h14.191406c9.519531-.003907 10.921875 4.929687 16.585938 12.894531zm0 0" fill="#c4cccf" fill-rule="evenodd"/><path d="m209.058594 149.574219 36.09375 52.054687c6.863281-10.765625 7.941406-25.035156-2.542969-37.058594l-13.925781-19.578124c-7.390625-2.566407-16.296875-4.464844-24.792969-3.238282-.089844 0-.148437.027344-.234375.027344zm0 0" fill="#ba4583" fill-rule="evenodd"/></svg>