<svg height="512" viewBox="0 0 36 58" width="512" xmlns="http://www.w3.org/2000/svg"><g id="Page-1" fill="none" fill-rule="evenodd"><g id="032---Liquor-Bottle" fill-rule="nonzero" transform="translate(-1)"><path id="Shape" d="m37 36v1.19c-.42 14.18-8 20.81-8 20.81h-20s-7.58-6.63-8-20.81c0-.39 0-.79 0-1.19 0-17 5-11 11-17 3-3 3-10 3-13h8c0 3 0 10 3 13 6 6 11 0 11 17z" fill="#2c3e50"/><path id="Shape" d="m37 36v1 .19c-.9977888 2.0928598-2.2652206 4.0461168-3.77 5.81-3.75 4.35-8.74 7-14.23 7s-10.48-2.65-14.23-7c-1.50477936-1.7638832-2.77221118-3.7171402-3.77-5.81v-.19c0-.33 0-.66 0-1 0-17 5-11 11-17 3-3 3-10 3-13h8c0 3 0 10 3 13 6 6 11 0 11 17z" fill="#35495e"/><rect id="Rectangle-path" fill="#3f5c6c" height="6" rx="2" width="14" x="12"/><rect id="Rectangle-path" fill="#547580" height="6" rx="2" width="10" x="14"/><rect id="Rectangle-path" fill="#ecf0f1" height="4" rx="2" width="18" x="10" y="50"/><path id="Shape" d="m37 37.19c-.0537698 1.9504334-.2644501 3.8933741-.63 5.81h-3.14c1.5047794-1.7638832 2.7722112-3.7171402 3.77-5.81z" fill="#f0c419"/><path id="Shape" d="m4.77 43h-3.14c-.36554987-1.9166259-.57623019-3.8595666-.63-5.81.99778882 2.0928598 2.26522064 4.0461168 3.77 5.81z" fill="#f0c419"/><path id="Shape" d="m37 37c.0049801.0632354.0049801.1267646 0 .19-.9977888 2.0928598-2.2652206 4.0461168-3.77 5.81h-7.31c-1.7342861 1.9950428-4.2783436 3.0979579-6.92 3-2.6416564.0979579-5.1857139-1.0049572-6.92-3h-7.31c-1.50477936-1.7638832-2.77221118-3.7171402-3.77-5.81-.00498014-.0632354-.00498014-.1267646 0-.19h11.08c1.7342861-1.9950428 4.2783436-3.0979579 6.92-3 2.6416564-.0979579 5.1857139 1.0049572 6.92 3z" fill="#f3d55b"/></g></g></svg>