<svg id="Layer_1" enable-background="new 0 0 512 512" height="512" viewBox="0 0 512 512" width="512" xmlns="http://www.w3.org/2000/svg"><g><g><path d="m408.189 123.991c-15.551-26.93-43.442-44.524-74.155-47.289-17.751-25.222-46.933-40.577-78.032-40.577s-60.281 15.356-78.033 40.577c-30.719 2.764-58.607 20.357-74.153 47.289-8.369 14.491-12.785 30.985-12.771 47.697.007 8.279 6.721 14.987 15 14.987h299.91c8.278 0 14.991-6.707 15-14.985.017-16.71-4.397-33.204-12.766-47.699z" fill="#e7f0ef"/><path d="m420.955 171.69c.017-16.71-4.397-33.204-12.766-47.699-15.551-26.93-43.442-44.524-74.155-47.289-17.751-25.222-46.933-40.577-78.032-40.577-.001 0-.002 0-.003 0v150.551h149.956c8.278 0 14.991-6.707 15-14.986z" fill="#c5e1e6"/><g><g><path d="m106.045 171.676v74.977c0 82.816 67.135 149.955 149.953 149.955 82.82 0 149.957-67.139 149.957-149.955v-74.977z" fill="#ff8a3c"/><path d="m255.999 171.676v224.932c82.819 0 149.956-67.139 149.956-149.955v-74.977z" fill="#e56705"/><path d="m443.445 156.676h-37.49-1.5-298.41c-8.284 0-15 6.716-15 15v74.977c0 90.957 73.998 164.955 164.953 164.955 85.901 0 156.664-66.002 164.268-149.955h23.18c28.941 0 52.486-23.546 52.486-52.488s-23.545-52.489-52.487-52.489zm-187.447 224.931c-74.413 0-134.953-60.541-134.953-134.955v-59.977h269.91v59.977c0 74.414-60.541 134.955-134.957 134.955zm187.447-149.955h-22.49v-44.977h22.49c12.399 0 22.486 10.088 22.486 22.488s-10.086 22.489-22.486 22.489z" fill="#a8ebfa"/><path d="m443.445 156.676h-37.49-1.5-148.456v30h134.956v59.977c0 74.414-60.541 134.955-134.956 134.955v30c85.901 0 156.663-66.002 164.267-149.955h23.18c28.941 0 52.486-23.546 52.486-52.488s-23.545-52.489-52.487-52.489zm0 74.976h-22.49v-44.977h22.49c12.399 0 22.486 10.088 22.486 22.488s-10.086 22.489-22.486 22.489z" fill="#76e2f8"/></g><path d="m497 381.607h-482c-8.284 0-15 6.716-15 15v32.133c0 25.99 21.144 47.135 47.133 47.135h417.734c25.989 0 47.133-21.145 47.133-47.135v-32.133c0-8.284-6.716-15-15-15z" fill="#e7f0ef"/></g></g><path d="m497 381.607h-241.001v94.268h208.868c25.989 0 47.133-21.145 47.133-47.135v-32.133c0-8.284-6.716-15-15-15z" fill="#c5e1e6"/></g></svg>