<svg id="Capa_1" enable-background="new 0 0 497 497" height="512" viewBox="0 0 497 497" width="512" xmlns="http://www.w3.org/2000/svg"><g><path d="m109.25 0c-60.337 0-109.25 48.913-109.25 109.25v45l15 30 15-30v-45c0-35.427 28.823-64.25 64.25-64.25h15c12.426 0 22.5-10.074 22.5-22.5 0-12.427-10.074-22.5-22.5-22.5z" fill="#3d5168"/><path d="m0 154.25v150.471h15l15-24.612v-125.859z" fill="#ffd17e"/><path d="m0 304.721v79.279h30v-103.891c-11.291 6.546-21.418 14.881-30 24.612z" fill="#ffb739"/><path d="m387.75 0c-12.426 0-22.5 10.073-22.5 22.5 0 12.426 10.074 22.5 22.5 22.5h15c35.427 0 64.25 28.823 64.25 64.25v45l15 30 15-30v-45c0-60.337-48.913-109.25-109.25-109.25z" fill="#233952"/><path d="m467 154.25v125.859l15 24.612h15v-150.471z" fill="#ffb739"/><path d="m467 280.109v103.891h30v-79.279c-8.582-9.731-18.709-18.066-30-24.612z" fill="#ff9441"/><path d="m407 294-23 203c62.408 0 113-50.592 113-113 0-49.626-40.374-90-90-90z" fill="#ffb739"/><path d="m407 294h-46c-34.783 0-65.019 19.836-79.995 48.789-8.942-7.062-20.226-11.289-32.505-11.289s-23.564 4.227-32.505 11.289c-14.976-28.953-45.212-48.789-79.995-48.789h-46c-49.626 0-90 40.374-90 90 0 62.408 50.592 113 113 113s113-50.592 113-113c0-12.427 10.074-22.5 22.5-22.5s22.5 10.073 22.5 22.5c0 62.408 50.592 113 113 113 45.84 0 83-50.592 83-113 0-49.626-26.916-90-60-90z" fill="#ffd17e"/><path d="m136 324-23 143c45.766 0 83-37.233 83-83 0-33.084-26.916-60-60-60z" fill="#dfedff"/><path d="m166 384c0-33.084-13.458-60-30-60h-46c-33.084 0-60 26.916-60 60 0 45.767 37.234 83 83 83 29.224 0 53-37.233 53-83z" fill="#fff"/><path d="m407 324-23 143c45.766 0 83-37.233 83-83 0-33.084-26.916-60-60-60z" fill="#dfedff"/><path d="m437 384c0-33.084-13.458-60-30-60h-46c-33.084 0-60 26.916-60 60 0 45.767 37.234 83 83 83 29.224 0 53-37.233 53-83z" fill="#fff"/></g></svg>