<svg id="Capa_1" enable-background="new 0 0 512 512" height="512" viewBox="0 0 512 512" width="512" xmlns="http://www.w3.org/2000/svg"><g><g><g><path d="m306 450h-100c-8.284 0-15-6.716-15-15v-20c0-35.841 29.159-65 65-65s65 29.159 65 65v20c0 8.284-6.716 15-15 15z" fill="#ffd228"/></g><g><path d="m306 450c8.284 0 15-6.716 15-15v-20c0-35.841-29.159-65-65-65v100z" fill="#f7aa00"/></g><path d="m485.337 248.069c27.852-27.85 25.689-73.157 25.584-75.072-.422-7.635-6.518-13.729-14.151-14.151-1.71-.094-38.165-1.831-65.77 17.756v-35.39c9.695-10.315 30-35.574 30-66.212 0-39.387-33.564-69.896-34.994-71.175-5.695-5.1-14.316-5.1-20.012 0-1.43 1.279-34.994 31.788-34.994 71.175 0 30.638 20.305 55.897 30 66.212v63.788c0 79.953-65.047 145-145 145s-145-65.047-145-145v-63.788c9.695-10.315 30-35.574 30-66.212 0-39.387-33.564-69.896-34.994-71.175-5.695-5.1-14.316-5.1-20.012 0-1.43 1.279-34.994 31.788-34.994 71.175 0 30.638 20.305 55.897 30 66.212v35.39c-27.606-19.588-64.06-17.852-65.77-17.756-7.634.422-13.729 6.517-14.151 14.151-.105 1.915-2.268 47.223 25.584 75.072 21.854 21.853 54.437 25.227 68.388 25.616 5.71 13.328 13.031 25.806 21.713 37.195-33.878 5.291-58.908 32.821-60.064 34.113-5.101 5.695-5.101 14.316 0 20.012 1.279 1.43 31.788 34.995 71.175 34.995 31.68 0 57.602-21.704 67.205-30.945 18.981 7.07 39.505 10.945 60.92 10.945s41.939-3.874 60.92-10.945c9.603 9.242 35.525 30.945 67.205 30.945 39.387 0 69.896-33.564 71.175-34.994 5.101-5.695 5.101-14.316 0-20.012-1.156-1.292-26.186-28.822-60.064-34.113 8.682-11.389 16.003-23.867 21.713-37.195 13.953-.39 46.536-3.764 68.388-25.617z" fill="#ffeb3c"/><path d="m316.92 369.054c9.603 9.242 35.525 30.945 67.205 30.945 39.387 0 69.896-33.564 71.175-34.994 5.101-5.695 5.101-14.316 0-20.012-1.156-1.292-26.186-28.822-60.064-34.113 8.682-11.389 16.003-23.867 21.713-37.195 13.954-.39 46.536-3.764 68.388-25.616 27.852-27.85 25.689-73.157 25.584-75.072-.422-7.635-6.518-13.729-14.151-14.151-1.71-.094-38.165-1.831-65.77 17.756v-35.39c9.695-10.315 30-35.574 30-66.212 0-39.387-33.564-69.896-34.994-71.175-5.695-5.1-14.316-5.1-20.012 0-1.43 1.279-34.994 31.788-34.994 71.175 0 30.638 20.305 55.897 30 66.212v63.788c0 79.953-65.047 145-145 145v30c21.414 0 41.939-3.875 60.92-10.946z" fill="#ffd228"/><g><path d="m356 512h-200c-8.284 0-15-6.716-15-15v-42c0-19.299 15.701-35 35-35h160c19.299 0 35 15.701 35 35v42c0 8.284-6.716 15-15 15z" fill="#ffeb3c"/></g><path d="m371 497v-42c0-19.299-15.701-35-35-35h-80v92h100c8.284 0 15-6.716 15-15z" fill="#ffd228"/><g><path d="m396 512h-280c-8.284 0-15-6.716-15-15s6.716-15 15-15h280c8.284 0 15 6.716 15 15s-6.716 15-15 15z" fill="#ffd228"/></g><path d="m411 497c0-8.284-6.716-15-15-15h-140v30h140c8.284 0 15-6.716 15-15z" fill="#f7aa00"/></g><g><g><g><path d="m317.802 305.105c-2.388 0-4.784-.569-6.979-1.723l-54.823-28.823-54.823 28.823c-5.053 2.656-11.177 2.215-15.797-1.142-4.619-3.356-6.933-9.044-5.967-14.672l10.47-61.046-44.353-43.232c-4.088-3.985-5.56-9.946-3.796-15.376 1.765-5.431 6.458-9.389 12.109-10.209l61.294-8.907 27.412-55.542c2.527-5.12 7.742-8.361 13.451-8.361s10.924 3.241 13.451 8.361l27.412 55.542 61.294 8.907c5.65.82 10.344 4.778 12.109 10.209 1.764 5.43.292 11.391-3.796 15.376l-44.353 43.233 10.47 61.046c.965 5.628-1.348 11.315-5.967 14.672-2.613 1.898-5.709 2.864-8.818 2.864z" fill="#ffd228"/></g></g><path d="m189.832 226.819-10.419 60.75c-.965 5.628 1.348 11.315 5.967 14.672 4.62 3.356 10.744 3.798 15.797 1.142l54.823-28.824v-70.385z" fill="#ffeb3c"/><path d="m297.049 148.824-.187-.027-27.412-55.542c-2.527-5.12-7.742-8.361-13.451-8.361s-10.924 3.241-13.451 8.361l-27.412 55.542-.187.027 41.05 55.35z" fill="#ffeb3c"/><path d="m366.47 183.29c4.088-3.985 5.56-9.946 3.796-15.376-1.765-5.431-6.458-9.389-12.109-10.209l-61.108-8.88-41.049 55.349 66.168 22.645-.051-.296z" fill="#f7aa00"/><path d="m296.863 148.797-27.412-55.542c-2.527-5.12-7.742-8.361-13.451-8.361v119.28l41.05-55.35z" fill="#ffd228"/></g></g></svg>