<svg height="512pt" viewBox="0 0 512 512" width="512pt" xmlns="http://www.w3.org/2000/svg"><path d="m141.167969 511.601562 114.832031-95.695312v-39.050781l-134.039062 111.699219zm0 0" fill="#607882"/><path d="m370.832031 511.601562 19.207031-23.046874-134.039062-111.699219v39.050781zm0 0" fill="#3f4a4a"/><path d="m241 302.363281h30v209.636719h-30zm0 0" fill="#87a0af"/><path d="m481.976562 61.859375-245.992187-20.015625 20.015625 293.734375h225.976562zm0 0" fill="#efe2dd"/><path d="m30.023438 61.859375v273.71875h225.976562v-293.734375zm0 0" fill="#fff5f5"/><path d="m512 0h-256l-20.015625 30.929688 20.015625 30.929687h256zm0 0" fill="#754727"/><path d="m0 0h256v61.859375h-256zm0 0" fill="#9d7123"/><path d="m309.035156 247.382812 87.449219-87.449218v58.5625h30v-109.773438h-109.777344v30h58.5625l-69.363281 69.359375-49.90625-36.125-10.007812 13.207031 10.007812 23.828126zm0 0" fill="#4895ff"/><path d="m88.710938 263.304688 22.347656 20.015624 97.402344-108.742187 47.539062 34.414063v-37.035157l-51.847656-37.527343zm0 0" fill="#5ecef4"/></svg>