<svg id="Layer_1" enable-background="new 0 0 512 512" height="512" viewBox="0 0 512 512" width="512" xmlns="http://www.w3.org/2000/svg"><g><path d="m376 48v64c0 4.42-3.58 8-8 8h-32c-4.42 0-8-3.58-8-8v-56h-144v56c0 4.42-3.58 8-8 8h-32c-4.42 0-8-3.58-8-8v-64c0-22.06 17.94-40 40-40h160c22.06 0 40 17.94 40 40z" fill="#aa7569"/><path d="m160 112c0 4.42-3.58 8-8 8h24c4.42 0 8-3.58 8-8v-56h-24z" fill="#9a6758"/><path d="m336 8h-24c22.06 0 40 17.94 40 40v64c0 4.42-3.58 8-8 8h24c4.42 0 8-3.58 8-8v-64c0-22.06-17.94-40-40-40z" fill="#9a6758"/><path d="m496 304v160c0 22.06-17.94 40-40 40h-400c-22.06 0-40-17.94-40-40v-160c0-4.42 3.58-8 8-8h464c4.42 0 8 3.58 8 8z" fill="#aa7569"/><path d="m488 296h-40c4.42 0 8 3.58 8 8v160c0 22.06-17.94 40-40 40h40c22.06 0 40-17.94 40-40v-160c0-4.42-3.58-8-8-8z" fill="#9a6758"/><path d="m488 312h-464c-13.255 0-24-10.745-24-24v-160c0-13.255 10.745-24 24-24h464c13.255 0 24 10.745 24 24v160c0 13.255-10.745 24-24 24z" fill="#d9b3af"/><path d="m488 104h-40c13.255 0 24 10.745 24 24v160c0 13.255-10.745 24-24 24h40c13.255 0 24-10.745 24-24v-160c0-13.255-10.745-24-24-24z" fill="#c4928a"/><path d="m288 344v24c0 17.64-14.35 32-32 32s-32-14.36-32-32v-24c0-4.42 3.58-8 8-8h48c4.42 0 8 3.58 8 8z" fill="#edebfd"/><path d="m280 336h-32c4.42 0 8 3.58 8 8v24c0 11.816-6.444 22.153-16 27.695 21.03 12.195 48-2.903 48-27.695v-24c0-4.42-3.58-8-8-8z" fill="#d2d2fc"/><path d="m320 280v48c0 13.23-10.77 24-24 24h-80c-13.23 0-24-10.77-24-24v-48c0-13.23 10.77-24 24-24h80c13.23 0 24 10.77 24 24z" fill="#edebfd"/><path d="m296 256h-32c13.23 0 24 10.77 24 24v48c0 13.23-10.77 24-24 24h32c13.23 0 24-10.77 24-24v-48c0-13.23-10.77-24-24-24z" fill="#d2d2fc"/></g></svg>