<?xml version="1.0" encoding="iso-8859-1"?>
<!-- Generator: Adobe Illustrator 19.0.0, SVG Export Plug-In . SVG Version: 6.00 Build 0)  -->
<svg version="1.1" id="Capa_1" xmlns="http://www.w3.org/2000/svg" xmlns:xlink="http://www.w3.org/1999/xlink" x="0px" y="0px"
	 viewBox="0 0 468.293 468.293" style="enable-background:new 0 0 468.293 468.293;" xml:space="preserve">
<path style="fill:#EBF0F3;" d="M251.766,33.364c50.63-15.665,172.739-37.104,189.527,113.061c0,0-4.2,45.498-29.304,87.998
	c-12.694,21.49-13.274,48.267-0.814,69.893c10.887,18.894,18.371,43.94,7.033,70.512c-11.073,25.951-36.866,42.233-65.001,44.343
	c-18.438,1.383-41.893,6.325-54.813,21.492c-4.877,5.725-10.275,11.011-16.883,14.601c-19.421,10.553-58.845,25.135-93.636-4.614
	c-10.998-9.405-17.676-22.899-18.727-37.331c-1.998-27.433-11.402-80.187-53.86-89.719c0,0-97.628-19.831-87.563-90.75
	c4.626-32.595,30.085-58.113,62.045-66.013c27.405-6.774,59.348-23.981,39.692-67.661c0,0-50.79-67.327,9.449-93.313
	c0,0,38.264-21.465,76.632,17.732C225.01,33.267,238.84,37.364,251.766,33.364z"/>
<circle style="fill:#F6C358;" cx="328.492" cy="129.954" r="66.079"/>
<path style="fill:#EBF0F3;" d="M370.322,98.474c12.268,17.64,9.481,41.267,3.601,45.356c-5.88,4.09-4.251-17.948-16.52-35.588
	s-33.787-24.203-27.907-28.292S358.054,80.834,370.322,98.474z"/>
<path style="fill:#E1E6E9;" d="M200.364,450.656c-10.998-9.404-17.675-22.898-18.727-37.331
	c-1.997-27.433-11.402-80.188-53.86-89.719c0,0-97.627-19.83-87.563-90.749c4.627-32.595,30.085-58.113,62.045-66.012
	c27.405-6.774,59.348-23.982,39.692-67.662c0,0-50.79-67.327,9.449-93.313c0,0,7.724-4.314,19.692-5.537
	c-18.831-1.943-32.18,5.537-32.18,5.537c-60.239,25.986-9.449,93.313-9.449,93.313c19.656,43.68-12.287,60.887-39.692,67.662
	c-31.96,7.899-57.418,33.418-62.045,66.012c-10.065,70.919,87.562,90.749,87.562,90.749c42.457,9.531,51.863,62.286,53.86,89.719
	c1.052,14.433,7.729,27.927,18.727,37.331c17.591,15.043,36.358,18.733,53.134,17.36
	C227.703,466.913,213.697,462.057,200.364,450.656z"/>
<g>
</g>
<g>
</g>
<g>
</g>
<g>
</g>
<g>
</g>
<g>
</g>
<g>
</g>
<g>
</g>
<g>
</g>
<g>
</g>
<g>
</g>
<g>
</g>
<g>
</g>
<g>
</g>
<g>
</g>
</svg>
