<svg id="Capa_1" enable-background="new 0 0 512 512" height="512" viewBox="0 0 512 512" width="512" xmlns="http://www.w3.org/2000/svg"><g><g><path d="m447.392 284.554-42.89-56.892c-.901-1.195-.223-2.866 1.236-3.199 1.589-.362 2.945-1.063 4.008-2.125 6.301-6.302-.117-22.937-14.335-37.155-12.052-12.052-25.836-18.494-33.595-16.34-.815.226-1.683-.037-2.193-.713l-17.69-23.465c-10.337-13.712-30.361-15.242-42.662-3.26l-8.714 8.489c-10.127 9.865-23.706 15.386-37.845 15.386h-51.347c-10.411 0-20.528 3.005-29.196 8.545-1.012.647-2.381.282-2.887-.808-.379-.817-.877-1.544-1.503-2.169-6.301-6.301-22.937.117-37.155 14.336-13.358 13.358-19.832 28.849-15.341 35.9.513.806.338 1.869-.365 2.515l-66.325 60.956h398.799z" fill="#f2e7e4"/></g><g><path d="m404.502 227.662c-.901-1.195-.223-2.866 1.236-3.199 1.589-.362 2.945-1.063 4.008-2.125 6.301-6.302-.117-22.937-14.335-37.155-12.052-12.052-25.836-18.494-33.595-16.34-.815.226-1.683-.037-2.193-.713l-17.69-23.465c-10.337-13.712-30.361-15.242-42.662-3.26l-8.714 8.489c-1.884 1.835-3.888 3.519-5.992 5.046l97.714 129.615h65.115z" fill="#ded0cb"/></g><g><path d="m175.317 451.732h161.365c8.99 0 17.843-2.262 25.714-6.607 57.932-31.977 99.947-89.249 111.142-156.93 1.522-9.204-5.629-17.564-14.958-17.564h-405.16c-9.329 0-16.481 8.36-14.958 17.564 11.195 67.68 53.21 124.952 111.142 156.93 7.871 4.345 16.723 6.607 25.713 6.607z" fill="#89c6fc"/></g><g><ellipse cx="182.878" cy="237.436" fill="#eedfda" rx="36.41" ry="16.136" transform="matrix(.707 -.707 .707 .707 -114.329 198.857)"/></g><g><path d="m208.623 211.691c-1.825-1.825-4.52-2.577-7.769-2.388-2.169 7.274-7.709 16.072-15.737 24.101-10.101 10.101-21.417 16.259-29.386 16.723-1.672 5.608-1.342 10.311 1.402 13.055 6.301 6.302 22.937-.117 37.155-14.336s20.637-30.854 14.335-37.155z" fill="#ded0cb"/></g><g><ellipse cx="235.553" cy="176.073" fill="#eedfda" rx="16.136" ry="36.41" transform="matrix(.707 -.707 .707 .707 -55.511 218.132)"/></g><g><path d="m246.963 164.663c-14.219-14.219-30.854-20.637-37.155-14.335-.275.275-.518.578-.745.891 5.896 2.853 12.314 7.453 18.305 13.444 13.597 13.597 20.052 29.397 15.081 36.264 8.096 3.918 15.204 4.538 18.85.892 6.301-6.302-.117-22.937-14.336-37.156z" fill="#ded0cb"/></g><g><ellipse cx="317.04" cy="196.592" fill="#f2e7e4" rx="16.136" ry="36.41"/></g><g><ellipse cx="264.129" cy="96.678" fill="#f2e7e4" rx="16.136" ry="36.41"/></g><g><path d="m317.04 160.183c-.763 0-1.513.128-2.248.359 1.758 5.83 2.786 12.869 2.786 20.452 0 18.386-6.041 33.581-13.888 36.05 2.903 9.631 7.799 15.958 13.35 15.958 8.912 0 16.136-16.301 16.136-36.41s-7.224-36.409-16.136-36.409z" fill="#eedfda"/></g><g><path d="m264.129 60.268c-.763 0-1.513.128-2.248.359 1.758 5.83 2.786 12.87 2.786 20.452 0 18.386-6.041 33.581-13.888 36.05 2.903 9.631 7.799 15.958 13.35 15.958 8.912 0 16.136-16.301 16.136-36.41 0-20.107-7.225-36.409-16.136-36.409z" fill="#eedfda"/></g><g><path d="m458.58 270.631h-51.077c-19.253 46.174-53.754 84.397-97.213 108.386-7.871 4.345-16.723 6.607-25.714 6.607h-203.938c18.554 24.301 42.037 44.637 68.966 59.501 7.871 4.345 16.723 6.607 25.714 6.607h161.365c8.991 0 17.843-2.262 25.714-6.607 57.932-31.977 99.947-89.249 111.142-156.93 1.521-9.204-5.63-17.564-14.959-17.564z" fill="#62b4fd"/></g><g><g><path d="m482.856 304.433h-453.712c-16.096 0-29.144-13.048-29.144-29.143v-.575c0-16.096 13.048-29.144 29.144-29.144h453.713c16.096 0 29.144 13.048 29.144 29.144v.575c-.001 16.095-13.049 29.143-29.145 29.143z" fill="#62b4fd"/></g><g><path d="m482.569 245.571h-1.319c-.674 15.657-13.576 28.145-29.399 28.145h-451.819c-.018.427-.032.855-.032 1.286 0 16.254 13.177 29.431 29.431 29.431h453.138c16.254 0 29.431-13.177 29.431-29.431 0-16.254-13.177-29.431-29.431-29.431z" fill="#27a2fb"/></g></g></g></svg>