<?xml version="1.0" encoding="iso-8859-1"?>
<!-- Generator: Adobe Illustrator 19.0.0, SVG Export Plug-In . SVG Version: 6.00 Build 0)  -->
<svg version="1.1" id="Layer_1" xmlns="http://www.w3.org/2000/svg" xmlns:xlink="http://www.w3.org/1999/xlink" x="0px" y="0px"
	 viewBox="0 0 512 512" style="enable-background:new 0 0 512 512;" xml:space="preserve">
<path style="fill:#0778B8;" d="M138.084,152.511H66.186c-9.024,0-16.34-7.316-16.34-16.34V76.255c0-9.024,7.316-16.34,16.34-16.34
	h71.898c9.024,0,16.34,7.316,16.34,16.34v59.915C154.425,145.194,147.11,152.511,138.084,152.511z"/>
<path style="fill:#A2D5F2;" d="M447.728,452.085H64.272C28.832,452.085,0,423.253,0,387.813V184.102
	c0-35.44,28.832-64.272,64.272-64.272h383.455c35.44,0,64.272,28.832,64.272,64.272v203.711
	C512,423.253,483.168,452.085,447.728,452.085z"/>
<g>
	<path style="fill:#0778B8;" d="M447.728,119.83H255.997v332.255h191.731c35.44,0,64.272-28.832,64.272-64.272V184.102
		C512,148.662,483.168,119.83,447.728,119.83z"/>
	<path style="fill:#0778B8;" d="M512,354.86H0V217.055h512V354.86z"/>
</g>
<g>
	<rect x="256" y="217.055" style="fill:#224F9C;" width="256" height="137.804"/>
	<path style="fill:#224F9C;" d="M256,410.145c-67.97,0-124.187-55.096-124.187-124.187c0-69.032,56.156-124.187,124.187-124.187
		c67.969,0,124.187,55.094,124.187,124.187C380.187,355.114,323.916,410.145,256,410.145z"/>
</g>
<path style="fill:#10316B;" d="M256,161.77c-0.001,0-0.002,0-0.003,0v248.374c0.001,0,0.002,0,0.003,0
	c67.916,0,124.187-55.03,124.187-124.187C380.187,216.865,323.969,161.77,256,161.77z"/>
<path style="fill:#FEE856;" d="M256,350.23c-35.44,0-64.272-28.832-64.272-64.272S220.56,221.685,256,221.685
	c35.439,0,64.272,28.832,64.272,64.272C320.272,321.398,291.439,350.23,256,350.23z"/>
<path style="fill:#FFCE3E;" d="M256,221.685c-0.001,0-0.002,0-0.003,0V350.23c0.001,0,0.002,0,0.003,0
	c35.439,0,64.272-28.832,64.272-64.272S291.439,221.685,256,221.685z"/>
<g>
</g>
<g>
</g>
<g>
</g>
<g>
</g>
<g>
</g>
<g>
</g>
<g>
</g>
<g>
</g>
<g>
</g>
<g>
</g>
<g>
</g>
<g>
</g>
<g>
</g>
<g>
</g>
<g>
</g>
</svg>
