<svg id="Capa_1" enable-background="new 0 0 511.998 511.998" height="512" viewBox="0 0 511.998 511.998" width="512" xmlns="http://www.w3.org/2000/svg"><g><g><path d="m364.137 38.998v466c0 3.86-3.14 7-7 7h-322c-3.87 0-7-3.14-7-7v-466c0-3.86 3.13-7 7-7h73l20.6 10h136.59l18.81-10h73c3.86 0 7 3.14 7 7z" fill="#365e7d"/><path d="m60.137 31.998v480h-25c-3.87 0-7-3.14-7-7v-466c0-3.86 3.13-7 7-7z" fill="#2b4d66"/><path d="m67.137 64.003h257.999c3.866 0 7 3.134 7 7v401.997c0 3.866-3.134 7-7 7h-257.999c-3.866 0-7-3.134-7-7v-401.997c0-3.866 3.134-7 7-7z" fill="#eaf6ff"/><path d="m228.137 32c0-17.673-14.327-32-32-32-17.673 0-32 14.327-32 32h-56v15.034c0 18.207 14.759 32.966 32.966 32.966h110.067c18.207 0 32.966-14.759 32.966-32.966v-15.034z" fill="#f9d264"/><path d="m161.707 80.002h-20.604c-18.203 0-32.966-14.763-32.966-32.966v-15.041h20.604v15.041c0 18.203 14.763 32.966 32.966 32.966z" fill="#efc356"/></g><g><g><path d="m419.973 478.026c-4.267 0-7.726-3.459-7.726-7.726v-32.303c0-4.267 3.459-7.726 7.726-7.726s7.726 3.459 7.726 7.726v32.303c.001 4.266-3.458 7.726-7.726 7.726z" fill="#2b4d66"/></g></g><path d="m435.977 389.998v42.47c0 6.14-3.57 11.45-8.74 13.97-2.05 1-4.35 1.56-6.79 1.56h-.94c-8.58 0-15.53-6.96-15.53-15.53v-42.47z" fill="#365e7d"/><path d="m427.697 445.998c-.16.09-.31.24-.46.44-2.05 1-4.35 1.56-6.79 1.56h-.94c-8.58 0-15.53-6.96-15.53-15.53v-42.47h15.45v42c0 6.03 3.34 11.29 8.27 14z" fill="#2b4d66"/><path d="m435.977 95.998v26h-32v-26c0-8.84 7.16-16 16-16 2.8 0 5.43.72 7.72 1.98 1.32.73 2.53 1.64 3.59 2.7 2.9 2.9 4.69 6.9 4.69 11.32z" fill="#365e7d"/><path d="m427.697 81.978v.02c-4.93 2.71-8.27 7.97-8.27 14v26h-15.45v-26c0-8.84 7.16-16 16-16 2.8 0 5.43.72 7.72 1.98z" fill="#2b4d66"/><path d="m437.135 399.997h-34.322c-3.866 0-7-3.134-7-7v-273.998c0-3.866 3.134-7 7-7h34.322c3.866 0 7 3.134 7 7v273.998c0 3.866-3.134 7-7 7z" fill="#f9d264"/><path d="m416.419 111.999v287.997h-13.604c-3.866 0-7-3.134-7-7v-273.997c0-3.866 3.134-7 7-7z" fill="#efc356"/><g><g><path d="m476.134 263.724c-4.267 0-7.726-3.459-7.726-7.726v-80.546c0-4.261-3.466-7.726-7.726-7.726h-64.546c-4.267 0-7.726-3.459-7.726-7.726s3.459-7.726 7.726-7.726h64.546c12.781 0 23.179 10.398 23.179 23.179v80.546c0 4.266-3.46 7.725-7.727 7.725z" fill="#2b4d66"/></g></g><g><g><g><g><path d="m268.136 135.725h-143.999c-4.267 0-7.726-3.459-7.726-7.726 0-4.268 3.459-7.726 7.726-7.726h143.999c4.267 0 7.726 3.459 7.726 7.726.001 4.268-3.459 7.726-7.726 7.726z" fill="#f25a74"/></g></g><g><path d="m300.136 199.725h-207.998c-4.267 0-7.726-3.459-7.726-7.726s3.459-7.726 7.726-7.726h207.998c4.267 0 7.726 3.459 7.726 7.726s-3.459 7.726-7.726 7.726z" fill="#365e7d"/></g><g><path d="m300.136 231.724h-207.998c-4.267 0-7.726-3.459-7.726-7.726s3.459-7.726 7.726-7.726h207.998c4.267 0 7.726 3.459 7.726 7.726s-3.459 7.726-7.726 7.726z" fill="#365e7d"/></g><g><path d="m300.136 263.724h-207.998c-4.267 0-7.726-3.459-7.726-7.726s3.459-7.726 7.726-7.726h207.998c4.267 0 7.726 3.459 7.726 7.726s-3.459 7.726-7.726 7.726z" fill="#365e7d"/></g><g><path d="m300.136 295.724h-207.998c-4.267 0-7.726-3.459-7.726-7.726s3.459-7.726 7.726-7.726h207.998c4.267 0 7.726 3.459 7.726 7.726s-3.459 7.726-7.726 7.726z" fill="#365e7d"/></g><g><path d="m300.136 327.723h-207.998c-4.267 0-7.726-3.459-7.726-7.726s3.459-7.726 7.726-7.726h207.998c4.267 0 7.726 3.459 7.726 7.726s-3.459 7.726-7.726 7.726z" fill="#365e7d"/></g><g><path d="m156.135 423.723c-1.837 0-3.68-.651-5.155-1.974-3.177-2.848-3.443-7.733-.595-10.91l33.25-37.086c5.005-6.501 12.542-10.553 20.737-11.136 8.311-.605 16.469 2.45 22.365 8.346 5.183 5.183 13.616 5.183 18.799 0l2.276-2.275c5.428-5.429 12.646-8.419 20.325-8.419 7.678 0 14.897 2.99 20.326 8.421l17.137 17.136c3.018 3.018 3.018 7.909 0 10.928-3.017 3.016-7.909 3.016-10.927 0l-17.137-17.137c-2.511-2.511-5.849-3.894-9.399-3.894-3.551 0-6.888 1.382-9.399 3.893l-2.276 2.276c-11.206 11.207-29.443 11.206-40.651-.001-2.726-2.727-6.497-4.123-10.343-3.86-3.846.274-7.378 2.199-9.691 5.284-.135.18-.278.354-.429.522l-33.458 37.318c-1.526 1.701-3.636 2.568-5.755 2.568z" fill="#365e7d"/></g></g></g></g></svg>