<svg id="Capa_1" enable-background="new 0 0 512 512" height="512" viewBox="0 0 512 512" width="512" xmlns="http://www.w3.org/2000/svg"><g><g><path d="m167.26 64.185-4.725.765c-65.857 0-107.535 51.885-107.535 117.742v56.228c0 50.784 16.065 95.713 56.559 126.36l13.761 10.414c16.693 12.634 33.765 31.097 40.17 51.028l9.87 30.717c10.038 31.24 30.714 54.56 63.528 54.56 41.716 0 75.533-33.817 75.533-75.533v-43.824l-64.711-99.722 19.025-87.84c0-23.553 40.152-40.113 30.313-59.851-23.314-46.768-70.796-79.376-126.092-81.468-1.878-.071-3.801.424-5.696.424z" fill="#eceaec"/></g><g><g><g><path d="m299.038 145.233-28.812 38.696-18.186 80.869 12.48 64.602c2.224 2.607 6.472 33.208 8.9 35.636 7.284 7.286 15.465 13.734 24.416 19.151 5.336 3.229 10.883 6.044 16.586 8.456v-181.864c-.001-23.553-5.544-45.808-15.384-65.546z" fill="#dad8db"/></g></g></g><g><path d="m273.659 436.467c0 15.892-10.717 29.328-25.303 33.461-3.011.853-7.075-2.228-10.356-2.228-15.163 0-19.841-6.161-24.48-20.595l-7.92-30.718c-9.016-28.057-23.122-52.287-46.62-70.07l-13.757-10.413c-30.137-22.808-47.743-58.986-47.743-96.778l-.96-56.228c0-43.275 22.604-76.698 65.88-76.698l4.619-.84c2.528 0 5.314-.855 7.798-.681 46.042 3.232 84.094 35.898 95.41 79.251 2.239 8.58 3.432 17.578 3.432 26.849l-29.179 63.826 29.179 90.674z" fill="#e5646e"/></g><g><g><g><path d="m188.689 459.574-9.87-30.717c-6.404-19.931-18.797-37.403-35.49-50.037l-13.761-10.414c-40.494-30.646-64.289-78.496-64.289-129.28v-56.228c0-63.106 49.023-114.754 111.062-118.959-2.993-.182-6.006-.285-9.044-.285h-4.487c-65.857 0-119.244 53.387-119.244 119.244v56.228c0 50.784 23.795 98.633 64.289 129.28l13.761 10.414c16.693 12.633 29.086 30.106 35.49 50.037l9.87 30.717c10.039 31.24 39.098 52.426 71.912 52.426 3.697 0 7.329-.278 10.884-.792-28.235-4.08-52.165-23.883-61.083-51.634z" fill="#dad8db"/></g></g></g><g><path d="m227.497 447.105-9.871-30.719c-9.016-28.057-26.202-52.287-49.7-70.07l-13.757-10.413c-30.137-22.808-48.128-58.986-48.128-96.778v-56.228c0-40.575 30.951-74.057 70.483-78.077-3.042-.263-6.119-.405-9.228-.405h-4.486c-43.276 0-78.482 35.207-78.482 78.482v56.228c0 37.792 17.991 73.97 48.128 96.778l13.757 10.413c23.498 17.782 40.684 42.012 49.701 70.07l9.871 30.719c4.639 14.435 17.941 24.133 33.104 24.133 3.778 0 7.414-.614 10.823-1.734-10.369-3.399-18.732-11.564-22.215-22.399z" fill="#db4655"/></g><g><circle cx="170.112" cy="190.602" fill="#eceaec" r="30.595"/></g><g><path d="m343.12 46.92c.335 0 .689.196 1.02.18.596-.028 3.24-.177 3.24.42l8.52 49.38 7.38 29.79h21.105v-77.56c0-.597.492-1.088 1.088-1.059.331.016.664.025.998.025 14.187 0 25.505-12.285 23.895-26.798-1.213-10.939-9.958-19.785-20.883-21.114-8.602-1.047-16.424 2.462-21.419 8.426-1.701 2.032-4.805 2.032-6.506 0-2.598-3.102-5.96-5.54-9.799-7.018-3.543-1.364-6.836 1.341-10.965 1.843-10.925 1.329-15.901 6.924-17.114 17.863-1.61 14.512 5.253 25.622 19.44 25.622z" fill="#eceaec"/></g><g><path d="m361.398 48.071c-.331.016-.664.025-.998.025-14.187 0-25.505-12.285-23.895-26.798.996-8.977 7.068-16.536 15.251-19.696-3.543-1.364-7.487-1.92-11.616-1.418-10.925 1.329-19.67 10.175-20.883 21.114-1.61 14.512 9.708 26.798 23.895 26.798.335 0 .668-.009.998-.025.596-.028 1.088.463 1.088 1.059v57.908l6.523 19.652h3.78l6.946-19.652v-57.908c-.001-.596-.493-1.088-1.089-1.059z" fill="#dad8db"/></g><g><path d="m237.855 298.36c5.002 25.553 17.623 48.838 35.804 66.92v-154.501c0-9.271-1.196-18.268-3.435-26.848l-9.174 12.32c-21.729 29.185-30.183 66.401-23.195 102.109z" fill="#db4655"/></g><g><g><g><path d="m418.453 362.153c52.308-31.654 65.975-101.482 29.462-150.52l-42.35-56.877c-4.244-5.7-6.536-12.617-6.536-19.724v-22.49c0-3.04-2.464-5.504-5.504-5.504h-36.725c-3.04 0-11.34 10.042-11.34 13.082l-7.74 14.912c0 7.107-5.595 17.847-9.839 23.547l-35.281 53.054c-36.513 49.039-32.147 109.394 20.16 141.047 19.188 11.611 39.612 25.94 61.165 24.039 15.488-1.366 30.738-6.221 44.528-14.566z" fill="#ffc269"/></g></g></g><g><path d="m335.146 362.153c-52.308-31.654-65.975-101.482-29.462-150.52l42.35-56.877c4.244-5.7 6.536-12.617 6.536-19.724v-22.489c0-3.04 2.464-5.504 5.504-5.504h-23.977c-3.04 0-5.504 2.464-5.504 5.504v22.489c0 7.107-2.292 14.024-6.536 19.724l-42.35 56.877c-36.513 49.038-22.846 118.867 29.462 150.52 20.042 12.128 43.168 16.871 65.63 14.257-14.497-1.686-28.718-6.429-41.653-14.257z" fill="#ffa95f"/></g></g></svg>