<?xml version="1.0" encoding="iso-8859-1"?>
<!-- Generator: Adobe Illustrator 19.0.0, SVG Export Plug-In . SVG Version: 6.00 Build 0)  -->
<svg xmlns="http://www.w3.org/2000/svg" xmlns:xlink="http://www.w3.org/1999/xlink" version="1.1" id="Capa_1" x="0px" y="0px" viewBox="0 0 485.248 485.248" style="enable-background:new 0 0 485.248 485.248;" xml:space="preserve">
<path style="fill:#629FD6;" d="M202.16,306.956h-3.672c-3.656-15.368-17.504-26.88-34.064-26.88c-4.024,0-8.104,0.888-11.472,2.016  c-8.104-22.992-30.04-39.504-55.912-39.504c-32.752,0-59.304,26.416-59.304,59.008c0,2.056,0.112,4.08,0.312,6.08  C16.52,311.38,0,330.124,0,352.556c0,25.08,20.616,45.6,45.816,45.6h156.328c25.2,0,45.816-20.512,45.816-45.6  C247.976,327.484,227.36,306.956,202.16,306.956z"/>
<path style="fill:#DFE6F4;" d="M361.632,362.74h-3.672c-3.656-15.368-17.504-26.88-34.064-26.88c-4.024,0-8.104,0.888-11.472,2.016  c-8.104-22.992-30.04-39.504-55.912-39.504c-32.752,0-59.304,26.416-59.304,59.008c0,2.056,0.112,4.08,0.312,6.08  c-21.528,3.704-38.048,22.448-38.048,44.88c0,25.08,20.616,45.6,45.816,45.6h156.328c25.2,0,45.816-20.512,45.816-45.6  C407.448,383.268,386.832,362.74,361.632,362.74z"/>
<circle style="fill:#B5C0D6;" cx="371" cy="145.556" r="114.248"/>
<g>
	<circle style="fill:#DFE6F4;" cx="326.28" cy="209.884" r="35.92"/>
	<circle style="fill:#DFE6F4;" cx="335.04" cy="98.556" r="20.28"/>
	<circle style="fill:#DFE6F4;" cx="407.432" cy="78.276" r="8.952"/>
	<circle style="fill:#DFE6F4;" cx="407.432" cy="145.556" r="22.672"/>
</g>
<g>
</g>
<g>
</g>
<g>
</g>
<g>
</g>
<g>
</g>
<g>
</g>
<g>
</g>
<g>
</g>
<g>
</g>
<g>
</g>
<g>
</g>
<g>
</g>
<g>
</g>
<g>
</g>
<g>
</g>
</svg>
