<svg id="Capa_1" enable-background="new 0 0 512 512" height="512" viewBox="0 0 512 512" width="512" xmlns="http://www.w3.org/2000/svg"><g><path d="m347 45.995h-302c-24.901 0-45 20.099-45 45v270c0 6 3.6 11.4 9.3 13.799 5.4 2.401 12.001 1.201 16.199-3.3l55.801-55.499h265.7c24.901 0 45-20.101 45-45v-180c0-24.901-20.099-45-45-45z" fill="#fe8205"/><path d="m392 90.995v180c0 24.899-20.099 45-45 45h-151v-270h151c24.901 0 45 20.099 45 45z" fill="#fa5d0f"/><path d="m467 135.995h-302c-24.901 0-45 20.099-45 45v180c0 24.899 20.099 45 45 45h265.699l55.801 55.499c4.199 4.501 10.8 5.7 16.199 3.3 5.7-2.399 9.3-7.798 9.3-13.799v-270c.001-24.901-20.098-45-44.999-45z" fill="#f0f7ff"/><g fill="#dfe7f4"><path d="m512 180.995v270c0 6-3.6 11.4-9.3 13.799-5.4 2.401-12.001 1.201-16.199-3.3l-55.801-55.499h-114.7v-270h151c24.901 0 45 20.099 45 45z"/><path d="m392 210.995c0 8.399-6.599 15-15 15h-121c-8.401 0-15-6.601-15-15 0-8.401 6.599-15 15-15h121c8.401 0 15 6.599 15 15z"/><path d="m422 270.995c0 8.399-6.599 15-15 15h-181c-8.401 0-15-6.601-15-15 0-8.401 6.599-15 15-15h181c8.401 0 15 6.599 15 15z"/><path d="m392 330.995c0 8.399-6.599 15-15 15h-121c-8.401 0-15-6.601-15-15 0-8.401 6.599-15 15-15h121c8.401 0 15 6.599 15 15z"/></g><path d="m392 330.995c0 8.399-6.599 15-15 15h-61v-30h61c8.401 0 15 6.599 15 15z" fill="#c7cfe1"/><path d="m377 225.995h-61v-30h61c8.401 0 15 6.599 15 15 0 8.399-6.599 15-15 15z" fill="#c7cfe1"/><path d="m422 270.995c0 8.399-6.599 15-15 15h-91v-30h91c8.401 0 15 6.599 15 15z" fill="#c7cfe1"/></g></svg>