<svg id="Capa_1" enable-background="new 0 0 509.498 509.498" height="512" viewBox="0 0 509.498 509.498" width="512" xmlns="http://www.w3.org/2000/svg"><g><g><path d="m274.109 197.498-95.611 115.611c-63.85 0-115.611-51.761-115.611-115.611s51.761-115.611 115.611-115.611z" fill="#ffda44"/><path d="m178.498 81.887c63.85 0 115.611 51.761 115.611 115.611s-51.761 115.611-115.611 115.611z" fill="#ff9f22"/><g fill="#ffda44"><path d="m0 182.498h30v30h-30z"/><path d="m47.887 66.887h30v30h-30z" transform="matrix(.707 .707 -.707 .707 76.323 -20.484)"/><path d="m163.498 19h30v30h-30z" transform="matrix(0 1 -1 0 212.498 -144.498)"/></g><path d="m279.109 66.887h30v30h-30z" fill="#ff9f22" transform="matrix(-.707 .707 -.707 -.707 559.978 -68.176)"/><path d="m326.996 182.498h30v30h-30z" fill="#ff9f22" transform="matrix(-1 0 0 -1 683.992 394.996)"/><path d="m279.109 298.109h30v30h-30z" fill="#ff9f22" transform="matrix(-.707 -.707 .707 -.707 280.674 742.476)"/><path d="m163.498 345.996h30v30h-30z" fill="#ffda44" transform="matrix(0 -1 1 0 -182.498 539.494)"/><path d="m170.998 26.5h30v15h-30z" fill="#ff9f22" transform="matrix(0 1 -1 0 219.998 -151.998)"/><path d="m170.998 353.496h30v15h-30z" fill="#ff9f22" transform="matrix(0 -1 1 0 -174.998 546.994)"/><path d="m47.887 298.109h30v30h-30z" fill="#ffda44" transform="matrix(.707 -.707 .707 .707 -202.982 136.176)"/></g><path d="m509.498 356.118v-18.957l-61.043-61.043-61.043 61.043v18.957h36.043v54.38h-36.043v18.957l61.043 61.043 61.043-61.043v-18.957h-36.043v-54.38z" fill="#00347b"/></g></svg>