<svg id="Capa_1" enable-background="new 0 0 512 512" height="512" viewBox="0 0 512 512" width="512" xmlns="http://www.w3.org/2000/svg"><g><path d="m165.667 73-42.333 24.667-42.334-24.667v-68c0-2.761 2.239-5 5-5h74.667c2.761 0 5 2.239 5 5z" fill="#8dc5e8"/><path d="m431 73-43.25 24.667-41.417-24.667v-68c0-2.761 2.239-5 5-5h74.667c2.761 0 5 2.239 5 5z" fill="#5e9ff6"/><path d="m0 183.08v318.92c0 5.52 4.48 10 10 10h281.5l-35.5-375.67z" fill="#fff5f5"/><path d="m512 183.08v318.92c0 5.52-4.48 10-10 10h-246v-375.67z" fill="#e1ebf0"/><path d="m256 73 35.5 55.04-35.5 55.04h-256v-100.08c0-5.52 4.48-10 10-10z" fill="#0b799d"/><path d="m512 83v100.08h-256v-110.08h246c5.52 0 10 4.48 10 10z" fill="#07485e"/><path d="m256 246.8c-13.97 20.05-61.64 106.18-71.52 124.09-2.56 4.65-2.48 10.3.22 14.87s7.61 7.37 12.91 7.37h58.39l16-19.408-16-10.592h-32.92c11.51-20.67 23.09-41.2 32.92-58.29l16-30.231z" fill="#8dc5e8"/><path d="m314.39 363.13h-8.68c.28-46.08.46-97.66-.1-104.42-1.04-12.4-8.31-22.45-18.53-25.62-4.83-1.49-17.33-3.42-29.06 10.98-.56.68-1.24 1.6-2.02 2.73v58.04c8.24-14.32 15.23-26.23 19.92-33.77.14 17.36.01 54.11-.22 92.06h-19.7v30h19.51c-.1 14.1-.21 27.67-.32 39.76-.07 8.28 6.59 15.06 14.87 15.13h.14c8.22 0 14.92-6.63 14.99-14.87.07-7.18.19-21.95.32-40.02h8.88c8.28 0 15-6.71 15-15 0-8.28-6.72-15-15-15z" fill="#5e9ff6"/></g></svg>