<svg height="511pt" viewBox="-46 1 511 511.999" width="511pt" xmlns="http://www.w3.org/2000/svg"><path d="m419.933594 86.503906v362.851563c0 8.3125-6.746094 15.058593-15.054688 15.058593h-337.75c-8.3125 0-15.058594-6.746093-15.058594-15.058593l-.128906-434.289063c-.011718-3.996094 1.574219-7.828125 4.40625-10.648437 2.820313-2.832031 6.652344-4.417969 10.648438-4.417969h266.433594c2.511718 0 4.941406.621094 7.109374 1.785156 1.285157.683594 2.476563 1.566406 3.53125 2.621094l71.445313 71.445312c1.699219 1.699219 2.953125 3.753907 3.675781 5.992188.492188 1.488281.742188 3.0625.742188 4.660156zm0 0" fill="#d9f5ff"/><path d="m419.191406 81.84375c-.722656-2.238281-1.976562-4.292969-3.675781-5.992188l-71.445313-71.445312c-1.054687-1.054688-2.246093-1.9375-3.53125-2.621094-2.167968-1.164062-4.597656-1.785156-7.109374-1.785156h-122.371094v464.414062h193.820312c8.308594 0 15.054688-6.746093 15.054688-15.058593v-362.851563c0-1.597656-.25-3.171875-.742188-4.660156zm0 0" fill="#87e4f9"/><path d="m419.191406 81.84375-61.941406-.1875c-9.234375-.042969-16.710938-7.53125-16.710938-16.773438v-63.097656c1.285157.683594 2.476563 1.566406 3.53125 2.621094l71.445313 71.445312c1.699219 1.699219 2.953125 3.753907 3.675781 5.992188zm0 0" fill="#18c1e8"/><path d="m102.820312 307.359375c-56.417968 0-102.320312 45.898437-102.320312 102.320313 0 56.417968 45.898438 102.320312 102.320312 102.320312 56.421876 0 102.320313-45.902344 102.320313-102.320312 0-56.421876-45.898437-102.320313-102.320313-102.320313zm0 0" fill="#97d85d"/><path d="m254.382812 165.71875h-112.082031c-8.3125 0-15.054687-6.742188-15.054687-15.054688 0-8.316406 6.742187-15.058593 15.054687-15.058593h112.082031c8.3125 0 15.054688 6.742187 15.054688 15.058593 0 8.3125-6.742188 15.054688-15.054688 15.054688zm0 0" fill="#87e4f9"/><path d="m254.382812 135.605469h-43.324218v30.113281h43.324218c8.3125 0 15.054688-6.742188 15.054688-15.054688 0-8.316406-6.742188-15.058593-15.054688-15.058593zm0 0" fill="#18c1e8"/><path d="m323.640625 224.941406h-181.339844c-8.3125 0-15.054687-6.742187-15.054687-15.058594 0-8.316406 6.742187-15.054687 15.054687-15.054687h181.339844c8.3125 0 15.054687 6.738281 15.054687 15.054687 0 8.316407-6.738281 15.058594-15.054687 15.058594zm0 0" fill="#87e4f9"/><path d="m323.640625 194.828125h-112.582031v30.113281h112.582031c8.316406 0 15.054687-6.742187 15.054687-15.058594 0-8.316406-6.738281-15.054687-15.054687-15.054687zm0 0" fill="#18c1e8"/><path d="m323.640625 284.160156h-181.339844c-8.3125 0-15.054687-6.738281-15.054687-15.054687 0-8.316407 6.742187-15.054688 15.054687-15.054688h181.339844c8.3125 0 15.054687 6.738281 15.054687 15.054688 0 8.316406-6.738281 15.054687-15.054687 15.054687zm0 0" fill="#87e4f9"/><path d="m323.640625 254.050781h-112.582031v30.109375h112.582031c8.316406 0 15.054687-6.738281 15.054687-15.054687 0-8.316407-6.738281-15.054688-15.054687-15.054688zm0 0" fill="#18c1e8"/><path d="m85.160156 453.914062c-4.21875 0-8.40625-1.761718-11.382812-5.191406l-31.050782-35.808594c-5.449218-6.28125-4.773437-15.789062 1.507813-21.238281 6.285156-5.445312 15.792969-4.769531 21.242187 1.511719l21.488282 24.78125 51.175781-41.660156c6.445313-5.25 15.929687-4.28125 21.179687 2.171875 5.25 6.445312 4.277344 15.929687-2.171874 21.179687l-62.492188 50.875c-2.785156 2.269532-6.148438 3.378906-9.496094 3.378906zm0 0" fill="#71b22d"/></svg>