<?xml version="1.0" encoding="iso-8859-1"?>
<!-- Generator: Adobe Illustrator 19.0.0, SVG Export Plug-In . SVG Version: 6.00 Build 0)  -->
<svg version="1.1" id="Capa_1" xmlns="http://www.w3.org/2000/svg" xmlns:xlink="http://www.w3.org/1999/xlink" x="0px" y="0px"
	 viewBox="0 0 511.984 511.984" style="enable-background:new 0 0 511.984 511.984;" xml:space="preserve">
<circle style="fill:#FFD83B;" cx="259.776" cy="270.536" r="226.928"/>
<path style="fill:#F2F2F2;" d="M230.032,73.112c-12.688-34.144-45.296-58.592-83.856-58.592c-38.592,0-71.216,24.496-83.888,58.688
	c-0.608,0-1.184-0.176-1.808-0.176C27.072,73.032,0,100.12,0,133.512c0,33.408,27.072,60.48,60.48,60.48
	c14.544,0,27.712-5.344,38.144-13.904c13.808,8.688,30.032,13.904,47.552,13.904c16.88,0,32.48-4.944,45.968-13.04
	c10.272,8.048,23.04,13.04,37.104,13.04c33.408,0,60.48-27.072,60.48-60.48C289.728,100.392,263.072,73.544,230.032,73.112z"/>
<path style="fill:#F3C432;" d="M351.504,63.08c24.72,36.336,39.184,80.192,39.184,127.44c0,125.328-101.6,226.928-226.912,226.928
	c-32.672,0-63.664-7.04-91.744-19.472c40.832,60.032,109.664,99.472,187.744,99.472c125.328,0,226.912-101.6,226.912-226.928
	C486.688,177.88,431.104,98.344,351.504,63.08z"/>
<path style="fill:#F2F2F2;" d="M452.304,338.856c-12.688-34.144-45.296-58.592-83.856-58.592c-38.592,0-71.216,24.496-83.888,58.688
	c-0.624-0.016-1.2-0.176-1.824-0.176c-33.408,0-60.48,27.072-60.48,60.48s27.072,60.48,60.48,60.48
	c14.544,0,27.712-5.344,38.144-13.904c13.808,8.688,30.032,13.904,47.552,13.904c16.88,0,32.48-4.944,45.968-13.04
	c10.272,8.048,23.04,13.04,37.104,13.04c33.408,0,60.48-27.072,60.48-60.48C512,366.12,485.344,339.288,452.304,338.856z"/>
<g>
</g>
<g>
</g>
<g>
</g>
<g>
</g>
<g>
</g>
<g>
</g>
<g>
</g>
<g>
</g>
<g>
</g>
<g>
</g>
<g>
</g>
<g>
</g>
<g>
</g>
<g>
</g>
<g>
</g>
</svg>
