<?xml version="1.0" encoding="iso-8859-1"?>
<!-- Generator: Adobe Illustrator 19.0.0, SVG Export Plug-In . SVG Version: 6.00 Build 0)  -->
<svg version="1.1" id="Capa_1" xmlns="http://www.w3.org/2000/svg" xmlns:xlink="http://www.w3.org/1999/xlink" x="0px" y="0px"
	 viewBox="0 0 510.933 510.933" style="enable-background:new 0 0 510.933 510.933;" xml:space="preserve">
<polygon style="fill:#CDD6E0;" points="486.4,405.867 464,432.533 453.333,446.4 58.667,446.4 48,432.533 25.6,405.867 "/>
<polygon style="fill:#BDCCDB;" points="486.4,405.867 464,432.533 48,432.533 25.6,405.867 "/>
<path style="fill:#F2F2F2;" d="M485.333,363.2H26.667C11.733,363.2,0,374.933,0,389.867s11.733,26.667,26.667,26.667h457.6
	c14.933,0,26.667-11.733,26.667-26.667S500.267,363.2,485.333,363.2z"/>
<path style="fill:#40596B;" d="M478.933,363.2H33.067V85.867c0-11.733,9.6-21.333,21.333-21.333h404.267
	c11.733,0,21.333,9.6,21.333,21.333V363.2H478.933z"/>
<rect x="65.067" y="96.533" style="fill:#FFFFFF;" width="382.933" height="234.667"/>
<g>
	<circle style="fill:#ACB3BA;" cx="292.267" cy="389.867" r="9.6"/>
	<circle style="fill:#ACB3BA;" cx="256" cy="389.867" r="9.6"/>
	<circle style="fill:#ACB3BA;" cx="219.733" cy="389.867" r="9.6"/>
</g>
<g>
	<rect x="148.267" y="181.867" style="fill:#CDD6E0;" width="5.333" height="64"/>
	<rect x="176" y="181.867" style="fill:#CDD6E0;" width="5.333" height="64"/>
	<rect x="203.733" y="181.867" style="fill:#CDD6E0;" width="5.333" height="64"/>
	<rect x="231.467" y="181.867" style="fill:#CDD6E0;" width="5.333" height="64"/>
	<rect x="276.267" y="181.867" style="fill:#CDD6E0;" width="5.333" height="64"/>
	<rect x="304" y="181.867" style="fill:#CDD6E0;" width="5.333" height="64"/>
	<rect x="331.733" y="181.867" style="fill:#CDD6E0;" width="5.333" height="64"/>
	<rect x="359.467" y="181.867" style="fill:#CDD6E0;" width="5.333" height="64"/>
</g>
<path style="fill:#FFD15C;" d="M193.067,262.933c-17.067,0-34.133-6.4-48-19.2L99.2,197.867c-4.267-4.267-4.267-10.667,0-14.933
	s10.667-4.267,14.933,0L160,228.8c8.533,8.533,20.267,13.867,32,13.867s23.467-4.267,32-13.867l45.867-45.867
	c12.8-12.8,29.867-19.2,48-19.2s35.2,7.467,48,19.2l45.867,45.867c4.267,4.267,4.267,10.667,0,14.933
	c-4.267,4.267-10.667,4.267-14.933,0l-45.867-45.867c-8.533-8.533-20.267-13.867-32-13.867s-23.467,4.267-32,13.867l-45.867,45.867
	C227.2,256.533,210.133,262.933,193.067,262.933z"/>
<path style="fill:#F1543F;" d="M318.933,262.933c-18.133,0-35.2-7.467-48-19.2l-45.867-45.867c-8.533-8.533-20.267-13.867-32-13.867
	s-23.467,4.267-32,13.867L115.2,243.733c-4.267,4.267-10.667,4.267-14.933,0s-4.267-10.667,0-14.933l45.867-45.867
	c26.667-26.667,69.333-26.667,94.933,0l45.867,45.867c8.533,8.533,20.267,13.867,32,13.867s23.467-4.267,32-13.867l45.867-45.867
	c4.267-4.267,10.667-4.267,14.933,0c4.267,4.267,4.267,10.667,0,14.933l-45.867,45.867
	C354.133,256.533,337.067,262.933,318.933,262.933z"/>
<g>
</g>
<g>
</g>
<g>
</g>
<g>
</g>
<g>
</g>
<g>
</g>
<g>
</g>
<g>
</g>
<g>
</g>
<g>
</g>
<g>
</g>
<g>
</g>
<g>
</g>
<g>
</g>
<g>
</g>
</svg>
