<svg height="512pt" viewBox="-73 0 512 512.001" width="512pt" xmlns="http://www.w3.org/2000/svg"><path d="m18.507812 82.648438c-10.21875 0-18.507812 8.289062-18.507812 18.511718v392.332032c0 10.222656 8.289062 18.507812 18.507812 18.507812h294.28125c10.21875 0 18.507813-8.285156 18.507813-18.507812v-372.140626c0-21.375-17.328125-38.703124-38.703125-38.703124zm0 0" fill="#ff8dc1"/><path d="m292.59375 82.648438h-55.476562c21.375 0 38.703124 17.328124 38.703124 38.703124v372.140626c0 10.222656-8.285156 18.507812-18.507812 18.507812h55.476562c10.21875 0 18.507813-8.285156 18.507813-18.507812v-372.140626c0-21.375-17.328125-38.703124-38.703125-38.703124zm0 0" fill="#ff547f"/><path d="m277.984375 49.636719h-225.332031c-10.222656 0-18.507813 8.285156-18.507813 18.507812v392.332031c0 10.222657 8.285157 18.507813 18.507813 18.507813h294.277344c10.222656 0 18.511718-8.285156 18.511718-18.507813v-323.386718zm0 0" fill="#fafaff"/><path d="m309.878906 81.53125v356.621094c0 10.222656-8.285156 18.507812-18.507812 18.507812h-257.226563v3.816406c0 10.222657 8.285157 18.507813 18.507813 18.507813h294.277344c10.222656 0 18.511718-8.285156 18.511718-18.507813v-323.386718zm0 0" fill="#e6e6f2"/><path d="m277.984375 128.257812v-78.621093l87.457031 87.453125h-78.621094c-4.878906 0-8.835937-3.953125-8.835937-8.832032zm0 0" fill="#aae1e7"/><g fill="#3a90c8"><path d="m316.488281 238.933594h-233.390625c-4.207031 0-7.613281-3.40625-7.613281-7.609375s3.410156-7.609375 7.613281-7.609375h233.390625c4.203125 0 7.613281 3.40625 7.613281 7.609375s-3.410156 7.609375-7.613281 7.609375zm0 0"/><path d="m316.488281 296.632812h-233.390625c-4.207031 0-7.613281-3.410156-7.613281-7.613281s3.410156-7.613281 7.613281-7.613281h233.390625c4.203125 0 7.613281 3.410156 7.613281 7.613281 0 4.207031-3.410156 7.613281-7.613281 7.613281zm0 0"/><path d="m316.488281 354.328125h-233.390625c-4.207031 0-7.613281-3.40625-7.613281-7.613281 0-4.203125 3.410156-7.609375 7.613281-7.609375h233.390625c4.203125 0 7.613281 3.40625 7.613281 7.609375s-3.410156 7.613281-7.613281 7.613281zm0 0"/><path d="m316.488281 412.023438h-233.390625c-4.207031 0-7.613281-3.40625-7.613281-7.609376 0-4.203124 3.410156-7.613281 7.613281-7.613281h233.390625c4.203125 0 7.613281 3.40625 7.613281 7.613281 0 4.203126-3.410156 7.609376-7.613281 7.609376zm0 0"/></g><path d="m88.320312 0c-15.785156 0-28.628906 12.84375-28.628906 28.628906v21.007813h15.222656v-21.007813c0-7.390625 6.015626-13.40625 13.40625-13.40625 7.390626 0 13.40625 6.015625 13.40625 13.40625v78.316406c0 4.113282-3.347656 7.460938-7.464843 7.460938-4.113281 0-7.460938-3.347656-7.460938-7.460938v-35.402343c0-4.203125-3.40625-7.609375-7.609375-7.609375s-7.613281 3.40625-7.613281 7.609375v35.402343c0 12.507813 10.175781 22.683594 22.6875 22.683594 12.507813 0 22.683594-10.175781 22.683594-22.683594v-78.316406c0-15.785156-12.84375-28.628906-28.628907-28.628906zm0 0" fill="#ffa442"/></svg>