<?xml version="1.0" encoding="iso-8859-1"?>
<!-- Generator: Adobe Illustrator 19.0.0, SVG Export Plug-In . SVG Version: 6.00 Build 0)  -->
<svg version="1.1" id="Capa_1" xmlns="http://www.w3.org/2000/svg" xmlns:xlink="http://www.w3.org/1999/xlink" x="0px" y="0px"
	 viewBox="0 0 468.293 468.293" style="enable-background:new 0 0 468.293 468.293;" xml:space="preserve">
<path style="fill:#D5D6DB;" d="M290.537,468.293H177.756c-6.897,0-12.488-5.591-12.488-12.488v-42.283h137.757v42.283
	C303.025,462.702,297.434,468.293,290.537,468.293z"/>
<path style="fill:#E1E6E9;" d="M23.05,224.787c0,116.586,94.512,211.097,211.097,211.097s211.096-94.512,211.096-211.097H23.05z"/>
<path style="fill:#EBF0F3;" d="M161.49,364.36c-1.01,0-2.034-0.144-3.044-0.45c-62.168-18.698-89.929-81.127-91.083-83.776
	c-2.323-5.346,0.131-11.565,5.477-13.888c5.353-2.329,11.551,0.124,13.881,5.463c0.447,1.003,25.391,56.22,77.801,71.984
	c5.587,1.68,8.748,7.566,7.071,13.149C170.217,361.408,166.025,364.36,161.49,364.36z"/>
<ellipse style="fill:#FCD462;" cx="234.146" cy="224.787" rx="211.094" ry="28.51"/>
<g>
	<path style="fill:#DC8744;" d="M160.052,103.792c-4.453,0-8.59-2.835-10.039-7.294c-1.8-5.545,1.23-11.5,6.775-13.303
		L411.169,0.515c5.566-1.79,11.503,1.237,13.303,6.775c1.8,5.545-1.23,11.5-6.775,13.303l-254.381,82.679
		C162.23,103.624,161.131,103.792,160.052,103.792z"/>
	<path style="fill:#DC8744;" d="M414.433,134.952c4.453,0,8.59-2.835,10.039-7.294c1.8-5.545-1.23-11.5-6.775-13.303L163.316,80.931
		c-5.566-1.79-11.503,1.237-13.303,6.775c-1.8,5.545,1.23,11.5,6.775,13.303l254.381,33.424
		C412.255,134.784,413.354,134.952,414.433,134.952z"/>
</g>
<g>
	<path style="fill:#F6C358;" d="M157.445,228.501c-2.195,0-4.39-0.678-6.065-2.032c-5.942-4.81-9.215-11.204-9.215-18.005
		c0-6.799,3.273-13.193,9.215-18.002l1.011-0.818c5.573-4.511,5.573-11.855,0-16.366l-1.011-0.818
		c-5.942-4.807-9.215-11.201-9.215-18.002c0-6.799,3.273-13.193,9.215-18.002l1.011-0.816c5.573-4.511,5.573-11.855,0-16.366
		l-1.011-0.818c-12.264-9.927-12.264-26.078,0-36.005c3.351-2.712,8.779-2.712,12.13,0c3.351,2.71,3.351,7.108,0,9.818
		c-5.573,4.514-5.573,11.855,0,16.368l1.011,0.818c12.258,9.927,12.258,26.076,0,36.003l-1.011,0.818
		c-2.703,2.186-4.188,5.092-4.188,8.182c0,3.092,1.486,5.999,4.188,8.182l1.011,0.82c12.258,9.927,12.258,26.076,0,36.003
		l-1.011,0.818c-2.703,2.188-4.188,5.094-4.188,8.184c0,3.092,1.486,5.999,4.188,8.182c3.351,2.712,3.351,7.108,0,9.821
		C161.835,227.823,159.64,228.501,157.445,228.501z"/>
	<path style="fill:#F6C358;" d="M200.628,217.819c-2.195,0-4.39-0.678-6.065-2.032c-5.942-4.81-9.215-11.204-9.215-18.005
		c0-6.799,3.273-13.193,9.215-18.002l1.011-0.818c5.574-4.511,5.574-11.855,0-16.366l-1.011-0.818
		c-5.942-4.807-9.215-11.202-9.215-18.002c0-6.799,3.273-13.193,9.215-18.002l1.011-0.816c5.574-4.511,5.574-11.855,0-16.366
		l-1.011-0.818c-12.264-9.927-12.264-26.078,0-36.005c3.351-2.712,8.779-2.712,12.13,0c3.351,2.71,3.351,7.108,0,9.818
		c-5.573,4.514-5.573,11.855,0,16.368l1.011,0.818c12.258,9.927,12.258,26.076,0,36.003l-1.011,0.818
		c-2.703,2.186-4.188,5.092-4.188,8.182c0,3.092,1.486,5.999,4.188,8.182l1.011,0.82c12.258,9.927,12.258,26.076,0,36.003
		l-1.011,0.818c-2.703,2.188-4.188,5.094-4.188,8.184c0,3.092,1.486,5.999,4.188,8.182c3.351,2.712,3.351,7.108,0,9.821
		C205.018,217.141,202.823,217.819,200.628,217.819z"/>
	<path style="fill:#F6C358;" d="M243.429,217.819c-2.195,0-4.39-0.678-6.065-2.032c-5.942-4.81-9.215-11.204-9.215-18.005
		c0-6.799,3.273-13.193,9.215-18.002l1.011-0.818c5.573-4.511,5.573-11.855,0-16.366l-1.011-0.818
		c-5.942-4.807-9.215-11.202-9.215-18.002c0-6.799,3.273-13.193,9.215-18.002l1.011-0.816c5.573-4.511,5.573-11.855,0-16.366
		l-1.011-0.818c-12.264-9.927-12.264-26.078,0-36.005c3.351-2.712,8.779-2.712,12.13,0c3.351,2.71,3.351,7.108,0,9.818
		c-5.573,4.514-5.573,11.855,0,16.368l1.011,0.818c12.258,9.927,12.258,26.076,0,36.003l-1.011,0.818
		c-2.703,2.186-4.189,5.092-4.189,8.182c0,3.092,1.486,5.999,4.189,8.182l1.011,0.82c12.258,9.927,12.258,26.076,0,36.003
		l-1.011,0.818c-2.703,2.188-4.189,5.094-4.189,8.184c0,3.092,1.486,5.999,4.189,8.182c3.351,2.712,3.351,7.108,0,9.821
		C247.819,217.141,245.624,217.819,243.429,217.819z"/>
</g>
<g>
</g>
<g>
</g>
<g>
</g>
<g>
</g>
<g>
</g>
<g>
</g>
<g>
</g>
<g>
</g>
<g>
</g>
<g>
</g>
<g>
</g>
<g>
</g>
<g>
</g>
<g>
</g>
<g>
</g>
</svg>
