<svg id="Capa_1" enable-background="new 0 0 512 512" height="512" viewBox="0 0 512 512" width="512" xmlns="http://www.w3.org/2000/svg"><g><g><path d="m191.476 239.945c0 83.004 67.288 150.292 150.292 150.292l20-274.884-19.999-115.353c-83.005 0-150.293 156.941-150.293 239.945z" fill="#fff5f5"/><path d="m341.769 0v390.237c83.004 0 150.292-67.288 150.292-150.292s-67.288-239.945-150.292-239.945z" fill="#ebe1dc"/></g><g><path d="m19.939 361.708c0 83.004 67.288 150.292 150.292 150.292l20-195.876-20-194.361c-83.004 0-150.292 156.94-150.292 239.945z" fill="#fff5f5"/><path d="m170.231 121.763v390.237c83.004 0 150.292-67.288 150.292-150.292s-67.287-239.945-150.292-239.945z" fill="#ebe1dc"/></g><g><path d="m274.1 248.456c0 37.372 30.296 67.668 67.668 67.668l20-60.125-20-75.212c-37.372.001-67.668 30.297-67.668 67.669z" fill="#ebe1dc"/><path d="m341.769 180.788v135.337c37.372 0 67.668-30.296 67.668-67.668 0-37.373-30.296-67.669-67.668-67.669z" fill="#dcd2cd"/></g><g><path d="m102.563 370.219c0 37.372 30.296 67.668 67.668 67.668l20-67.668-20-67.668c-37.372 0-67.668 30.296-67.668 67.668z" fill="#ffe477"/><path d="m170.231 302.551v135.337c37.372 0 67.668-30.296 67.668-67.668.001-37.373-30.295-67.669-67.668-67.669z" fill="#ffb655"/></g></g></svg>