<svg id="Layer_1" enable-background="new 0 0 510.074 510.074" height="512" viewBox="0 0 510.074 510.074" width="512" xmlns="http://www.w3.org/2000/svg"><g id="XMLID_1302_"><path id="XMLID_1326_" d="m210.037 436.829v43.245l7 10 8-10 10-21.875-10-20.625-7.5-7.873z" fill="#dfe7f4"/><path id="XMLID_1325_" d="m232.537 429.701-7.5 7.873v42.5l7.5 10 7.5-10v-43.245z" fill="#c7cfe1"/><path id="XMLID_1324_" d="m360.037 122.574c-9.553 0-18.742 2.658-27.272 7.803l-4.061 17.364 13.897 12.612c4.677-4.232 10.626-7.779 17.436-7.779 21.284 0 45 36.962 45 90 0 45.86-17.732 79.68-36.291 87.999l-15.542 12.668 1.849 19.077c1.654.166 3.317.256 4.984.256 42.056 0 75-52.71 75-120 0-67.289-32.944-120-75-120z" fill="#c7cfe1"/><path id="XMLID_1321_" d="m207.253 17.951c-7.256-3.428-15.09-5.207-23.115-5.207-32.554 0-58.365 28.12-58.762 64.02-.076 6.961 1.856 9.244 3.728 15.81l47.934 14.667 48-14.667 10-39-10-47.5c-6.395 2.949-12.394 6.929-17.785 11.877z" fill="#dfe7f4"/><path id="XMLID_1318_" d="m129.103 92.574-3.252 10.602c-30.844 100.576-50.814 138.873-50.814 184.398 0 82.71 67.29 150 150 150l10-167.833-10-177.167z" fill="#f0f7ff"/><path id="XMLID_1315_" d="m225.037 6.074v86.5l51.5 8.75 44.434-8.75c.324-1.572.247-.907.482-2.5 8.943-60.56-46.084-107.223-96.416-84z" fill="#c7cfe1"/><path id="XMLID_1314_" d="m375.037 287.574c0-45.526-19.97-83.821-50.814-184.398l-3.252-10.602h-95.934v345c82.71 0 150-67.29 150-150z" fill="#dfe7f4"/><path id="XMLID_1310_" d="m122.375 210.074c-11.236 33.686-17.338 55.039-17.338 77.5 0 66.168 53.832 120 120 120l10-117.833-10-79.667z" fill="#c6715a"/><path id="XMLID_1307_" d="m327.699 210.074h-102.662v197.5c66.168 0 120-53.832 120-120 0-22.461-6.102-43.814-17.338-77.5z" fill="#99503d"/><path id="XMLID_1304_" d="m150.037 510.074h75l10-15-10-15h-75z" fill="#f0f7ff"/><path id="XMLID_1303_" d="m225.037 480.074h75v30h-75z" fill="#dfe7f4"/></g></svg>