<svg id="Layer_1" enable-background="new 0 0 48 48" height="512" viewBox="0 0 48 48" width="512" xmlns="http://www.w3.org/2000/svg"><path d="m45.924 21.242c-1.355-1.446-3.228-2.242-5.273-2.242-.355 0-.71.031-1.064.078l.573-2.883c.123-.619-.35-1.195-.98-1.195h-34.36c-.63 0-1.103.576-.98 1.195l4.131 20.77c.698 3.508 3.777 6.035 7.355 6.035h13.349c3.577 0 6.656-2.527 7.354-6.035l.062-.311c.715.226 1.474.346 2.259.346 2.443 0 4.908-1.134 6.76-3.11 3.494-3.726 3.859-9.4.814-12.648zm-2.273 11.28c-1.476 1.575-3.408 2.478-5.301 2.478-.656 0-1.279-.129-1.862-.343l2.68-13.473c.491-.119.988-.184 1.483-.184 1.486 0 2.841.572 3.814 1.61 2.338 2.494 1.973 6.94-.814 9.912z" fill="#d4f2f9"/><path d="m4.995 22 2.977 14.965c.697 3.508 3.776 6.035 7.354 6.035h13.349c3.577 0 6.656-2.527 7.354-6.035l2.976-14.965z" fill="#c98518"/><path d="m4.995 22 2.977 14.965c.455 2.289 1.922 4.159 3.881 5.183l20.147-20.148z" fill="#cca70d"/><path d="m22.464 28.197-2.688-12.097c-.144-.647-.708-1.1-1.372-1.1-.774 0-1.404.63-1.404 1.404v7.596c0 .552-.448 1-1 1s-1-.448-1-1v-7.596c0-1.877 1.527-3.404 3.404-3.404 1.608 0 2.975 1.096 3.324 2.666l2.688 12.098c.12.539-.22 1.073-.759 1.193-.539.119-1.073-.221-1.193-.76z" fill="#b5b5b5"/><path d="m19.776 16.1 2.688 12.098c.12.539.654.879 1.193.759s.879-.654.759-1.193l-2.688-12.098c-.052-.235-.127-.454-.222-.666h-3.101c.663 0 1.227.452 1.371 1.1z" fill="#d6d6d6"/><path d="m19.533 26h6.934c.333 0 .644.166.829.444l1.537 2.305c.109.164.167.356.167.553v8.702c0 .55-.446.996-.996.996h-10.008c-.55 0-.996-.446-.996-.996v-8.702c0-.197.058-.389.167-.553l1.537-2.305c.185-.278.496-.444.829-.444z" fill="#bc9c73"/><path d="m27.4 26.6-.104-.156c-.185-.277-.496-.444-.829-.444h-6.934c-.333 0-.644.167-.829.444l-1.537 2.305c-.109.164-.167.356-.167.553v7.698z" fill="#ccb9ae"/><path d="m19.997 22h-7.995c-.553 0-1.002.449-1.002 1.003v7.995c0 .553.449 1.002 1.003 1.002h7.995c.553 0 1.002-.449 1.002-1.003v-7.995c0-.553-.449-1.002-1.003-1.002z" fill="#ccc"/><path d="m19.998 22h-7.995c-.554 0-1.003.449-1.003 1.003v7.995c0 .277.112.527.294.709l9.413-9.413c-.182-.182-.433-.294-.709-.294z" fill="#efefef"/><path d="m40 44h-36c-.552 0-1-.448-1-1s.448-1 1-1h36c.552 0 1 .448 1 1s-.448 1-1 1z" fill="#d4f2f9"/><path d="m24 7.501c0-1.073-.756-1.737-1.208-2.134l-.264-.234c-.223-.196-.528-.464-.528-.632 0-.297.178-.498.354-.565.516-.196.776-.773.581-1.29s-.774-.777-1.29-.581c-.984.374-1.645 1.352-1.645 2.436 0 1.073.756 1.737 1.208 2.134l.264.234c.223.196.528.464.528.632 0 .297-.178.498-.354.565-.516.196-.776.773-.581 1.29s.774.777 1.29.581c.984-.374 1.645-1.353 1.645-2.436zm-9 0c0-1.073-.756-1.737-1.208-2.134l-.264-.234c-.223-.196-.528-.464-.528-.632 0-.297.178-.498.354-.565.516-.196.776-.773.581-1.29s-.774-.777-1.29-.581c-.984.374-1.645 1.352-1.645 2.436 0 1.073.756 1.737 1.208 2.134l.264.234c.223.196.528.464.528.632 0 .297-.178.498-.354.565-.516.196-.776.773-.581 1.29s.774.777 1.29.581c.984-.374 1.645-1.353 1.645-2.436zm18 0c0-1.073-.756-1.737-1.208-2.134l-.264-.234c-.223-.196-.528-.464-.528-.632 0-.297.178-.498.354-.565.516-.196.776-.773.581-1.29s-.774-.777-1.29-.581c-.984.374-1.645 1.352-1.645 2.436 0 1.073.756 1.737 1.208 2.134l.264.234c.223.196.528.464.528.632 0 .297-.178.498-.354.565-.516.196-.776.773-.581 1.29s.774.777 1.29.581c.984-.374 1.645-1.353 1.645-2.436z" fill="#cca70d"/></svg>