<svg height="512" viewBox="0 0 512 512" width="512" xmlns="http://www.w3.org/2000/svg"><g id="Flat"><path d="m128 112v-8c0-44.183 32.235-80 72-80v32c-19 0-33.6 18.7-30.909 39.6l2.109 16.4z" fill="#f2dec2"/><path d="m280 377.5c0 61.03-57.31 110.5-128 110.5-58.79 0-108.33-34.22-123.34-80.85a96.407 96.407 0 0 1 -4.66-29.65c0-32.63 16.38-71.67 42.43-100.94a34.236 34.236 0 0 0 8.77-22.75v-89.31a76.8 76.8 0 0 1 153.6 0v89.31a34.236 34.236 0 0 0 8.77 22.75c26.05 29.27 42.43 68.31 42.43 100.94z" fill="#ffb531"/><path d="m280 377.5c0 61.03-57.31 110.5-128 110.5-58.79 0-108.33-34.22-123.34-80.85 77.83-23.94 146.98-71.06 200.14-164.21v10.87a34.236 34.236 0 0 0 8.77 22.75c26.05 29.27 42.43 68.31 42.43 100.94z" fill="#fcb12b"/><g fill="#faa50f"><path d="m200.96 181.5h-16v-17a124.335 124.335 0 0 0 -3.989-31.942l15.462-4.116a140.338 140.338 0 0 1 4.527 36.058z"/><path d="m196.854 295.3c-2.006-5.375-4.175-10.526-6.445-15.309a62.356 62.356 0 0 1 -5.449-26.177v-54.814h16v54.812a46.123 46.123 0 0 0 3.9 19.318c2.466 5.195 4.814 10.77 6.979 16.572z"/><path d="m210.731 352.948c-.97-8.135-2.39-16.452-4.218-24.72l15.622-3.456c1.942 8.782 3.45 17.624 4.484 26.28z"/><path d="m210.224 454.42-14.047-7.66c10.375-19.028 16.09-43.625 16.09-69.26 0-2.646-.061-5.389-.182-8.151l15.984-.7c.131 2.994.2 5.971.2 8.849-.002 28.268-6.41 55.585-18.045 76.922z"/><path d="m87.026 439.942c-7.388-18.676-11.293-40.269-11.293-62.442 0-24.552 4.861-53.349 13.335-79.009l15.193 5.018c-7.961 24.106-12.528 51.075-12.528 73.991 0 20.178 3.517 39.735 10.171 56.558z"/><path d="m161.067 352h16v17h-16z"/><path d="m126.933 403h16v17h-16z"/></g><rect fill="#f07800" height="184" rx="92" width="276" x="212" y="304"/><path d="m351.2 488a55.2 55.2 0 0 1 -55.2-55.2v-73.6a55.2 55.2 0 0 1 55.2-55.2h-1.2a55.2 55.2 0 0 1 55.2 55.2v73.6a55.2 55.2 0 0 1 -55.2 55.2z" fill="#f98500"/><path d="m339.6 368.4h-16c0-12.163 10.361-22.876 11.543-24.056l11.314 11.312-5.657-5.656 5.676 5.638c-2.244 2.274-6.876 8.387-6.876 12.762z" fill="#ff9419"/><path d="m323.6 386.8h16v55.2h-16z" fill="#ff9419"/><path d="m447.657 438.457-11.314-11.314c12.565-12.565 9.322-45.536 7.011-57.18l15.691-3.132a151.57 151.57 0 0 1 2.455 26.869c0 20.513-4.658 35.571-13.843 44.757z" fill="#e66b00"/><path d="m328 304a80 80 0 0 1 80-80v32a34.7 34.7 0 0 0 -34.7 34.62 35.18 35.18 0 0 0 .36 4.98l1.2 8.4" fill="#f2dec2"/><path d="m101.333 181.5h16v51.5h-16z" fill="#ffc361"/><path d="m117.333 164.5h-16a149.371 149.371 0 0 1 1.074-17.965l15.883 1.93a133.4 133.4 0 0 0 -.957 16.035z" fill="#ffc361"/></g></svg>