<svg id="Capa_1" enable-background="new 0 0 512 512" height="512" viewBox="0 0 512 512" width="512" xmlns="http://www.w3.org/2000/svg"><g><path d="m429.368 339.813c0 22.182-8.991 42.269-23.52 56.798-14.539 14.539-34.616 23.53-56.798 23.53h-79.56v-7.259c0-44.364 35.964-80.328 80.328-80.328h72.291c4.013 0 7.259 3.256 7.259 7.259z" fill="#c6ea7c"/><path d="m408.928 332.554c-24.183 0-46.085 9.81-61.931 25.656-15.856 15.846-25.656 37.748-25.656 61.931h-51.851v-7.259c0-44.364 35.964-80.328 80.328-80.328z" fill="#b2e254"/><path d="m242.51 451.853v7.259h-79.56c-22.182 0-42.259-8.991-56.798-23.53-14.529-14.529-23.52-34.616-23.52-56.798 0-4.003 3.246-7.259 7.259-7.259h72.291c44.364 0 80.328 35.964 80.328 80.328z" fill="#c6ea7c"/><path d="m222.06 459.112h-59.11c-22.182 0-42.259-8.991-56.798-23.53-14.529-14.529-23.52-34.616-23.52-56.798 0-4.003 3.246-7.259 7.259-7.259h44.592c0 24.183 9.8 46.085 25.646 61.931 15.856 15.856 37.747 25.656 61.931 25.656z" fill="#b2e254"/><path d="m276.99 295.882v195.378c0 11.459-9.281 20.74-20.74 20.74s-20.74-9.281-20.74-20.74v-195.378c6.772 1.006 13.699 1.524 20.74 1.524s13.969-.518 20.74-1.524z" fill="#d79b7a"/><path d="m316.148 75.217c-36.223 25.386-59.898 67.458-59.898 115.057 0-47.599-23.675-89.671-59.898-115.057 8.421-16.883 19.05-32.718 31.733-47.06l22.727-25.706c2.889-3.268 7.988-3.268 10.877 0l22.727 25.706c12.682 14.342 23.312 30.177 31.732 47.06z" fill="#fef48b"/><path d="m271.805 125.958c-9.935 19.268-15.555 41.139-15.555 64.316 0-47.599-23.675-89.671-59.898-115.057 8.421-16.883 19.05-32.718 31.733-47.06l22.726-25.705c2.889-3.268 7.988-3.268 10.877.001l10.117 11.446-12.61 14.259c-12.683 14.342-23.312 30.177-31.733 47.06 18.584 13.024 33.869 30.446 44.343 50.74z" fill="#fef056"/><path d="m396.69 57.09v117.13c0 58.34-37.52 107.92-89.74 125.94-9.54 3.29-19.57 5.53-29.96 6.57h-.01c-4.43.45-8.93.68-13.47.68h-14.52c-73.56 0-133.18-59.63-133.18-133.19v-117.13c0-2 .82-3.83 2.12-5.13 1.32-1.32 3.13-2.13 5.14-2.13 15.63 0 30.65 2.7 44.59 7.64 51.62 18.35 88.59 67.63 88.59 125.55 0-73.56 59.63-133.19 133.18-133.19 2.01 0 3.82.81 5.14 2.13 1.3 1.3 2.12 3.13 2.12 5.13z" fill="#fd8087"/><path d="m276.98 306.73c-4.43.45-8.93.68-13.47.68h-14.52c-73.56 0-133.18-59.63-133.18-133.19v-117.13c0-2 .82-3.83 2.12-5.13 1.32-1.32 3.13-2.13 5.14-2.13 15.63 0 30.65 2.7 44.59 7.64v109.49c0 59.26 57.42 119.13 109.32 139.77z" fill="#fe646f"/></g></svg>