<?xml version="1.0" encoding="iso-8859-1"?>
<!-- Generator: Adobe Illustrator 19.0.0, SVG Export Plug-In . SVG Version: 6.00 Build 0)  -->
<svg version="1.1" id="Capa_1" xmlns="http://www.w3.org/2000/svg" xmlns:xlink="http://www.w3.org/1999/xlink" x="0px" y="0px"
	 viewBox="0 0 468.293 468.293" style="enable-background:new 0 0 468.293 468.293;" xml:space="preserve">
<path style="fill:#64798A;" d="M271.71,468.293h-75.127c-4.586,0-8.569-3.157-9.617-7.622l-13.029-55.514h120.421l-13.029,55.514
	C280.279,465.136,276.296,468.293,271.71,468.293z"/>
<path style="fill:#F6C358;" d="M397.997,163.851c0-92.196-76.147-166.607-168.981-163.772
	C145.671,2.624,76.564,68.819,70.713,151.998c-3.639,51.737,16.761,98.81,51.155,131.181c25.658,24.148,41.01,57.244,41.01,92.479v0
	h142.537v-0.027c0-34.646,14.317-67.824,39.785-91.311C377.662,254.382,397.997,211.492,397.997,163.851z"/>
<path style="fill:#D5D6DB;" d="M292.785,438.794H175.507c-6.897,0-12.488-5.591-12.488-12.488v-50.648h142.254v50.648
	C305.273,433.203,299.682,438.794,292.785,438.794z"/>
<rect x="163.022" y="397.986" style="fill:#E1E6E9;" width="142.255" height="18.507"/>
<circle style="fill:#27A2DB;" cx="234.146" cy="154.349" r="95.607"/>
<circle style="fill:#2D93BA;" cx="234.146" cy="154.349" r="76.001"/>
<path style="fill:#1C75A1;" d="M231.095,211.916v-10.138c-12.693-1.294-24.086-6.341-34.168-15.134l10.138-12.082
	c7.776,6.759,15.778,10.783,24.029,12.082v-26.945c-10.466-2.498-18.129-5.787-22.989-9.861c-4.86-4.075-7.29-10.116-7.29-18.124
	s2.792-14.558,8.398-19.655c5.606-5.092,12.896-7.867,21.882-8.33v-6.945h8.884v7.081c10.184,0.746,19.813,4.216,28.889,10.421
	l-9.031,12.778c-6.115-4.351-12.727-7.036-19.859-8.059v26.109h0.418c10.647,2.503,18.468,5.883,23.464,10.138
	c5.007,4.261,7.505,10.444,7.505,18.542c0,8.104-2.871,14.705-8.613,19.791c-5.742,5.097-13.326,7.872-22.775,8.336v9.997H231.095z
	 M221.295,122.27c-2.362,2.08-3.538,4.674-3.538,7.776c0,3.103,0.927,5.555,2.78,7.358c1.842,1.808,5.369,3.543,10.557,5.21v-24.029
	C226.924,118.959,223.658,120.185,221.295,122.27z M250.535,183.168c2.588-2.125,3.888-4.809,3.888-8.053
	c0-3.238-1.017-5.809-3.052-7.708c-2.046-1.899-5.843-3.679-11.393-5.346v24.996C244.42,186.599,247.935,185.299,250.535,183.168z"
	/>
<g>
</g>
<g>
</g>
<g>
</g>
<g>
</g>
<g>
</g>
<g>
</g>
<g>
</g>
<g>
</g>
<g>
</g>
<g>
</g>
<g>
</g>
<g>
</g>
<g>
</g>
<g>
</g>
<g>
</g>
</svg>
