<svg id="Capa_1" enable-background="new 0 0 512 512" height="512" viewBox="0 0 512 512" width="512" xmlns="http://www.w3.org/2000/svg"><g><path d="m404.645 49.548h-297.29c-6.016 0-11.657 1.608-16.515 4.418l-9.84 28.615v388.72c0 18.243 14.789 33.032 33.032 33.032h290.613l28.611-8.847c2.812-4.859 4.421-10.501 4.421-16.519v-396.386c0-18.244-14.789-33.033-33.032-33.033z" fill="#e2a975"/><path d="m396.387 454.194h-272.516c-4.561 0-8.258-3.697-8.258-8.258v-355.097c0-4.561 3.697-8.258 8.258-8.258h49.548l15.081-8.081h139.5l10.581 8.081h57.806c4.561 0 8.258 3.697 8.258 8.258v355.097c0 4.56-3.697 8.258-8.258 8.258z" fill="#fff"/><path d="m322.065 24.774h-28.396c-3.264 0-6.201-1.937-7.505-4.93-5.081-11.664-16.627-19.844-30.164-19.844s-25.083 8.18-30.164 19.844c-1.303 2.993-4.24 4.93-7.505 4.93h-28.396l-8.935 16.516v34.376h142l15.581-9.602v-24.774c0-9.122-7.395-16.516-16.516-16.516zm-66.065 16.516c-4.561 0-8.258-3.698-8.258-8.258 0-4.561 3.697-8.258 8.258-8.258s8.258 3.697 8.258 8.258-3.697 8.258-8.258 8.258z" fill="#dad8db"/><path d="m185.097 148.645 10.677-10.677c3.226-3.226 3.226-8.452 0-11.677-3.226-3.226-8.452-3.226-11.677 0l-10.677 10.677-10.677-10.677c-3.226-3.226-8.452-3.226-11.677 0-3.226 3.226-3.226 8.452 0 11.677l10.677 10.677-10.677 10.677c-3.226 3.226-3.226 8.452 0 11.677 1.613 1.613 3.726 2.419 5.839 2.419s4.226-.806 5.839-2.419l10.677-10.677 10.676 10.678c1.613 1.613 3.726 2.419 5.839 2.419s4.226-.806 5.839-2.419c3.226-3.226 3.226-8.452 0-11.677z" fill="#6f6571"/><path d="m165.161 322.065c-2.113 0-4.226-.806-5.839-2.419l-16.516-16.516c-3.226-3.226-3.226-8.452 0-11.677 3.226-3.226 8.452-3.226 11.677 0l10.677 10.677 27.194-27.194c3.226-3.226 8.452-3.226 11.677 0 3.226 3.226 3.226 8.452 0 11.677l-33.031 33.032c-1.613 1.613-3.726 2.42-5.839 2.42z" fill="#6f6571"/><path d="m313.806 140.387h-82.581c-4.565 0-8.258-3.694-8.258-8.258s3.694-8.258 8.258-8.258h82.581c4.565 0 8.258 3.694 8.258 8.258s-3.693 8.258-8.258 8.258z" fill="#5d5360"/><path d="m355.097 173.419h-123.871c-4.565 0-8.258-3.694-8.258-8.258s3.694-8.258 8.258-8.258h123.871c4.565 0 8.258 3.694 8.258 8.258s-3.694 8.258-8.258 8.258z" fill="#6f6571"/><path d="m185.097 222.968 10.677-10.677c3.226-3.226 3.226-8.452 0-11.677-3.226-3.226-8.452-3.226-11.677 0l-10.677 10.677-10.677-10.677c-3.226-3.226-8.452-3.226-11.677 0-3.226 3.226-3.226 8.452 0 11.677l10.677 10.677-10.677 10.677c-3.226 3.226-3.226 8.452 0 11.677 1.613 1.613 3.726 2.419 5.839 2.419s4.226-.806 5.839-2.419l10.677-10.677 10.677 10.677c1.613 1.613 3.726 2.419 5.839 2.419s4.226-.806 5.839-2.419c3.226-3.226 3.226-8.452 0-11.677z" fill="#6f6571"/><path d="m313.806 214.71h-82.581c-4.565 0-8.258-3.694-8.258-8.258s3.694-8.258 8.258-8.258h82.581c4.565 0 8.258 3.694 8.258 8.258s-3.693 8.258-8.258 8.258z" fill="#5d5360"/><path d="m355.097 247.742h-123.871c-4.565 0-8.258-3.694-8.258-8.258s3.694-8.258 8.258-8.258h123.871c4.565 0 8.258 3.694 8.258 8.258s-3.694 8.258-8.258 8.258z" fill="#6f6571"/><path d="m313.806 289.032h-82.581c-4.565 0-8.258-3.694-8.258-8.258s3.694-8.258 8.258-8.258h82.581c4.565 0 8.258 3.694 8.258 8.258s-3.693 8.258-8.258 8.258z" fill="#5d5360"/><path d="m355.097 322.065h-123.871c-4.565 0-8.258-3.694-8.258-8.258s3.694-8.258 8.258-8.258h123.871c4.565 0 8.258 3.694 8.258 8.258s-3.694 8.258-8.258 8.258z" fill="#6f6571"/><path d="m363.355 379.871h-8.258v-8.258c0-4.565-3.694-8.258-8.258-8.258s-8.258 3.694-8.258 8.258v8.258h-8.258c-4.565 0-8.258 3.694-8.258 8.258s3.694 8.258 8.258 8.258h8.258v8.258c0 4.565 3.694 8.258 8.258 8.258s8.258-3.694 8.258-8.258v-8.258h8.258c4.565 0 8.258-3.694 8.258-8.258s-3.694-8.258-8.258-8.258z" fill="#b3e59f"/><path d="m287.96 352.903c-1.516-3.677-5.065-6.065-9.048-6.065h-.008c-3.984 0-7.532 2.371-9.145 6.274l-25.46 66.847c-1.621 4.258.516 9.032 4.782 10.653.96.371 1.96.54 2.935.54 3.323 0 6.46-2.024 7.718-5.323l4.313-11.323h29.51l4.266 11.306c1.613 4.266 6.371 6.419 10.645 4.806 4.266-1.613 6.419-6.371 4.806-10.645zm-17.622 45.089 8.533-22.403 8.453 22.403z" fill="#b3e59f"/><path d="m90.839 478.968v-425.003c-9.832 5.722-16.516 16.42-16.516 28.616v396.387c0 18.243 14.789 33.032 33.032 33.032h297.29c12.196 0 22.886-6.684 28.608-16.516h-325.898c-9.122 0-16.516-7.395-16.516-16.516z" fill="#d19a6e"/><path d="m165.161 445.935c-22.804 0-41.29-18.486-41.29-41.29v-322.064h-8.258c-4.561 0-8.258 3.697-8.258 8.258v363.355c0 4.561 3.697 8.258 8.258 8.258h280.774c4.561 0 8.258-3.697 8.258-8.258v-8.258h-239.484z" fill="#faf5dc"/><path d="m189.935 49.548v-24.774c-9.121 0-16.516 7.394-16.516 16.516v41.29h165.161v-16.515h-132.128c-9.122 0-16.517-7.395-16.517-16.517z" fill="#c8c5c9"/></g></svg>