<svg id="color" enable-background="new 0 0 24 24" height="512" viewBox="0 0 24 24" width="512" xmlns="http://www.w3.org/2000/svg"><g><g><path d="m17.76 2.11c-1.62-1.36-3.66-2.08-5.76-2.08-.56 0-1.13.05-1.7.16-3.34.61-6.07 3.1-6.96 6.35-.84 3.04-.09 6.13 2.04 8.47 1 1.101 1.561 2.5 1.61 3.99h10.02c.05-1.48.62-2.9 1.62-4 1.53-1.67 2.37-3.79 2.37-5.97 0-2.68-1.18-5.2-3.24-6.92z" fill="#ffc107"/></g></g><g><g><path d="m17.01 19-.01.22v2.03c0 1.52-1.23 2.75-2.75 2.75h-4.5c-1.52 0-2.75-1.23-2.75-2.75v-2.03l-.01-.22z" fill="#607d8b"/></g></g><g><g><path d="m12.375 13h-2.125c-.414 0-.75-.336-.75-.75s.336-.75.75-.75h2.125c.345 0 .625-.28.625-.625s-.28-.625-.625-.625h-.75c-1.172 0-2.125-.953-2.125-2.125s.953-2.125 2.125-2.125h2.375c.414 0 .75.336.75.75s-.336.75-.75.75h-2.375c-.345 0-.625.28-.625.625s.28.625.625.625h.75c1.172 0 2.125.953 2.125 2.125s-.953 2.125-2.125 2.125z" fill="#fafafa"/></g></g><g><g><path d="m12 7.5c-.414 0-.75-.336-.75-.75v-2c0-.414.336-.75.75-.75s.75.336.75.75v2c0 .414-.336.75-.75.75z" fill="#fafafa"/></g></g><g><g><path d="m12 15c-.414 0-.75-.336-.75-.75v-2c0-.414.336-.75.75-.75s.75.336.75.75v2c0 .414-.336.75-.75.75z" fill="#fafafa"/></g></g><g><g><path d="m12 7.5h-.375c-.345 0-.625.28-.625.625s.28.625.625.625h.375zm0-7.47c-.56 0-1.13.05-1.7.16-3.34.61-6.07 3.1-6.96 6.35-.84 3.04-.09 6.13 2.04 8.47 1 1.101 1.561 2.5 1.61 3.99h5.01v-4c-.414 0-.75-.336-.75-.75v-1.25h-1c-.414 0-.75-.336-.75-.75s.336-.75.75-.75h1.75v-1.25h-.375c-1.172 0-2.125-.953-2.125-2.125 0-1.044.756-1.914 1.75-2.092v-1.283c0-.414.336-.75.75-.75z" fill="#dea806"/></g></g><g><g><path d="m12 19h-5.01l.01.22v2.03c0 1.52 1.23 2.75 2.75 2.75h2.25z" fill="#546d79"/></g></g><g><g><path d="m12 11.5h-1.75c-.414 0-.75.336-.75.75s.336.75.75.75h1v-.75c0-.414.336-.75.75-.75zm-.75-5.467c-.994.178-1.75 1.048-1.75 2.092 0 1.172.953 2.125 2.125 2.125h.375v-1.5h-.375c-.345 0-.625-.28-.625-.625s.28-.625.625-.625h.375c-.414 0-.75-.336-.75-.75z" fill="#dadada"/></g></g><g><g><path d="m12 4c-.414 0-.75.336-.75.75v1.283.717c0 .414.336.75.75.75z" fill="#dadada"/></g></g><g><g><path d="m12 11.5c-.414 0-.75.336-.75.75v.75 1.25c0 .414.336.75.75.75z" fill="#dadada"/></g></g></svg>