<?xml version="1.0" encoding="iso-8859-1"?>
<!-- Generator: Adobe Illustrator 19.0.0, SVG Export Plug-In . SVG Version: 6.00 Build 0)  -->
<svg version="1.1" id="Capa_1" xmlns="http://www.w3.org/2000/svg" xmlns:xlink="http://www.w3.org/1999/xlink" x="0px" y="0px"
	 viewBox="0 0 480 480" style="enable-background:new 0 0 480 480;" xml:space="preserve">
<path style="fill:#CFD8DC;" d="M400,368.015h-68.16c-8.832,0-16-7.168-16-16s7.168-16,16-16H400
	c12.864,0,24.832-4.992,33.664-14.048c9.344-9.12,14.336-21.056,14.336-33.952c0-26.464-21.536-48-48-48h-64
	c-8.832,0-16-7.168-16-16s7.168-16,16-16h64c44.128,0,80,35.904,80,80c0,21.6-8.416,41.696-23.712,56.608
	C441.696,359.599,421.6,368.015,400,368.015z"/>
<path style="fill:#ECEFF1;" d="M336,176.015H16c-8.832,0-16,7.168-16,16v128c0,79.392,64.608,144,144,144h64
	c79.392,0,144-64.608,144-144v-128C352,183.183,344.832,176.015,336,176.015z"/>
<g>
	<path style="fill:#CFD8DC;" d="M272,144.015c-4.416,0-8.8-1.824-11.968-5.376c-5.856-6.592-5.28-16.704,1.344-22.592
		c0.416-0.48,7.52-8.928-3.328-28.192c-24.032-42.752,2.208-66.784,3.328-67.808c6.56-5.888,16.704-5.28,22.592,1.344
		c5.76,6.464,5.28,16.288-0.928,22.208c-1.056,1.184-7.712,9.664,2.912,28.576c24.064,42.752-2.176,66.784-3.328,67.808
		C279.584,142.671,275.776,144.015,272,144.015z"/>
	<path style="fill:#CFD8DC;" d="M160,144.015c-4.416,0-8.8-1.824-11.968-5.376c-5.856-6.592-5.28-16.704,1.344-22.592
		c0.384-0.48,7.52-8.928-3.328-28.192c-24.032-42.752,2.176-66.784,3.328-67.808c6.56-5.92,16.672-5.28,22.592,1.344
		c5.76,6.464,5.312,16.288-0.928,22.208c-1.056,1.184-7.712,9.664,2.912,28.576c24.032,42.752-2.176,66.784-3.328,67.808
		C167.584,142.671,163.776,144.015,160,144.015z"/>
	<path style="fill:#CFD8DC;" d="M48,144.015c-4.416,0-8.8-1.824-11.968-5.376c-5.856-6.592-5.28-16.704,1.344-22.592
		c0.384-0.48,7.52-8.928-3.328-28.192c-24.032-42.752,2.176-66.784,3.328-67.808c6.592-5.888,16.704-5.28,22.592,1.344
		c5.76,6.464,5.312,16.288-0.928,22.208c-1.056,1.184-7.712,9.664,2.912,28.576c24.032,42.752-2.176,66.784-3.328,67.808
		C55.584,142.671,51.776,144.015,48,144.015z"/>
</g>
<g>
</g>
<g>
</g>
<g>
</g>
<g>
</g>
<g>
</g>
<g>
</g>
<g>
</g>
<g>
</g>
<g>
</g>
<g>
</g>
<g>
</g>
<g>
</g>
<g>
</g>
<g>
</g>
<g>
</g>
</svg>
