<svg height="512" viewBox="0 0 58 58" width="512" xmlns="http://www.w3.org/2000/svg"><g id="Page-1" fill="none" fill-rule="evenodd"><g id="033---Copywriting-Organisation" fill-rule="nonzero"><path id="Shape" d="m10 9h-3c-1.10320187.0032948-1.9967052.89679813-2 2v4h-2c-1.65685425 0-3 1.3431458-3 3v37c0 1.6568542 1.34314575 3 3 3h52c1.6568542 0 3-1.3431458 3-3v-28c0-1.6568542-1.3431458-3-3-3h-1v-13c-.0032948-1.10320187-.8967981-1.9967052-2-2z" fill="#2980ba"/><path id="Shape" d="m58 27v28c0 1.6568542-1.3431458 3-3 3h-52c-1.65685425 0-3-1.3431458-3-3v-37c0-1.6568542 1.34314575-3 3-3h20.53c.9267669-.0001629 1.801583.4280171 2.37 1.16l4.54 5.84 1.56 2h23c1.6568542 0 3 1.3431458 3 3z" fill="#3b97d3"/><path id="Shape" d="m32 24h-21c-.5522847 0-1-.4477153-1-1s.4477153-1 1-1h19.44z" fill="#2980ba"/><path id="Shape" d="m49 2v22h-17l-6.1-7.84c-.568417-.7319829-1.4432331-1.1601629-2.37-1.16h-13.53v-13c.0032948-1.10320187.8967981-1.9967052 2-2h35c1.1032019.0032948 1.9967052.89679813 2 2z" fill="#f5efca"/><path id="Shape" d="m42.4 10.8-1.8-1.35c-.3555556-.26666667-.8444444-.26666667-1.2 0l-1.8 1.35c-.3030176.2272632-.7084296.2638192-1.0472136.0944272s-.5527864-.5156551-.5527864-.8944272v-10h8v10c0 .3787721-.2140024.7250352-.5527864.8944272s-.744196.132836-1.0472136-.0944272z" fill="#ff5364"/><path id="Shape" d="m31 6h-16c-.5522847 0-1-.44771525-1-1s.4477153-1 1-1h16c.5522847 0 1 .44771525 1 1s-.4477153 1-1 1z" fill="#cbb292"/><path id="Shape" d="m31 11h-16c-.5522847 0-1-.4477153-1-1 0-.55228475.4477153-1 1-1h16c.5522847 0 1 .44771525 1 1 0 .5522847-.4477153 1-1 1z" fill="#cbb292"/><path id="Shape" d="m15 36v10h-7c-1.65685425 0-3-1.3431458-3-3v-4c0-1.6568542 1.34314575-3 3-3z" fill="#ff5364"/><path id="Shape" d="m52.57 41.93-4.57 1.76v-5.38l4.57 1.76c.3878854.1451712.6449354.5158385.6449354.93s-.25705.7848288-.6449354.93z" fill="#464f5d"/><path id="Shape" d="m48 38.31v5.38c-6.309 2.424-5.89 2.272-6 2.29v-9.96c.109.018-.378-.16 6 2.29z" fill="#fdd7ad"/><path id="Shape" d="m42 36.02v9.96c-.1.035.816.02-22 .02v-10c23.356 0 21.9-.013 22 .02z" fill="#f3d55b"/><path id="Rectangle-path" d="m15 36h5v10h-5z" fill="#bdc3c7"/></g></g></svg>