<svg id="Capa_1" enable-background="new 0 0 497 497" height="512" viewBox="0 0 497 497" width="512" xmlns="http://www.w3.org/2000/svg"><g><path d="m467 30-14.75 30-.25 437c24.853 0 45-20.147 45-45v-414.5c0-4.142-3.358-7.5-7.5-7.5z" fill="#8c98a7"/><path d="m437 30v-22.5c0-4.142-3.358-7.5-7.5-7.5h-22.5l-60 218.5 60 233.5c0 24.853 20.147 45 45 45 8.169-.421 15-20.399 15-45z" fill="#a6b0bd"/><path d="m437 30v422c0 8.284 6.716 15 15 15s15-6.716 15-15v-422z" fill="#728192"/><path d="m227 0h180v180h-180z" fill="#c0c8d2"/><path d="m242 165 16.82-151.82 135 135z" fill="#fff"/><path d="m407 452v-272c0-24.853-20.147-45-45-45h-30v352l65 10h55c-24.853 0-45-20.147-45-45z" fill="#dae0e7"/><path d="m377 452v-272c0-24.853-20.147-45-45-45h-60v-90c0-24.853-20.147-45-45-45h-219.5c-4.142 0-7.5 3.358-7.5 7.5v444.5c0 24.853 20.147 45 45 45h377c-24.853 0-45-20.147-45-45z" fill="#eceff3"/><g fill="#3d5168"><path d="m347 278.5h-128.5c-4.142 0-7.5-3.357-7.5-7.5s3.358-7.5 7.5-7.5h128.5c4.143 0 7.5 3.357 7.5 7.5s-3.357 7.5-7.5 7.5z"/><path d="m347 323.5h-128.5c-4.142 0-7.5-3.357-7.5-7.5s3.358-7.5 7.5-7.5h128.5c4.143 0 7.5 3.357 7.5 7.5s-3.357 7.5-7.5 7.5z"/><path d="m347 233.5h-128.5c-4.142 0-7.5-3.357-7.5-7.5s3.358-7.5 7.5-7.5h128.5c4.143 0 7.5 3.357 7.5 7.5s-3.357 7.5-7.5 7.5z"/><path d="m188.5 413.5h-128.5c-4.142 0-7.5-3.357-7.5-7.5s3.358-7.5 7.5-7.5h128.5c4.142 0 7.5 3.357 7.5 7.5s-3.358 7.5-7.5 7.5z"/></g><path d="m158.5 226-30 67.5 30 67.5h30v-135z" fill="#ff2b59"/><path d="m60 226h98.5v135h-98.5z" fill="#ff4e51"/><path d="m347 368.5h-128.5c-4.142 0-7.5-3.357-7.5-7.5s3.358-7.5 7.5-7.5h128.5c4.143 0 7.5 3.357 7.5 7.5s-3.357 7.5-7.5 7.5z" fill="#3d5168"/><path d="m347 413.5h-128.5c-4.142 0-7.5-3.357-7.5-7.5s3.358-7.5 7.5-7.5h128.5c4.143 0 7.5 3.357 7.5 7.5s-3.357 7.5-7.5 7.5z" fill="#3d5168"/></g></svg>