<?xml version="1.0" encoding="iso-8859-1"?>
<!-- Generator: Adobe Illustrator 19.0.0, SVG Export Plug-In . SVG Version: 6.00 Build 0)  -->
<svg version="1.1" id="Capa_1" xmlns="http://www.w3.org/2000/svg" xmlns:xlink="http://www.w3.org/1999/xlink" x="0px" y="0px"
	 viewBox="0 0 512.048 512.048" style="enable-background:new 0 0 512.048 512.048;" xml:space="preserve">
<path style="fill:#464646;" d="M302.272,155.992c0.528-26.848-21.12-47.376-46.416-47.376c-25.504,0-46.928,20.736-46.416,47.376
	c-8.56,6.208-26.8,22.48-35.504,30.048l51.152,58.8L256,217.96l30.912,26.896l51.152-58.8
	C329.376,178.552,310.752,162.136,302.272,155.992z M256,174.968c-10.96,0-19.856-8.896-19.856-19.856s8.896-19.856,19.856-19.856
	c10.96,0,19.856,8.896,19.856,19.856S266.96,174.968,256,174.968z"/>
<path style="fill:#6F7070;" d="M241.328,250.184l-70.416-80.96c-5.408-6.224-14.848-6.88-21.072-1.472L123.584,190.6l90.032,103.488
	l26.256-22.848C246.08,265.832,246.736,256.408,241.328,250.184z"/>
<circle style="fill:#464646;" cx="110.928" cy="292.504" r="110.928"/>
<circle style="fill:#F3F3F3;" cx="110.928" cy="292.504" r="77.76"/>
<path style="fill:#525252;" d="M10.304,301.464c-2.864-32.16,9.984-64,34.32-85.168c42.032-36.56,105.968-32.112,142.528,9.904
	c23.232,26.704,30.768,62.832,20.16,96.672c-1.232,3.936-5.424,6.128-9.36,4.88c-3.936-1.232-6.128-5.44-4.896-9.36
	c9.056-28.816,2.64-59.632-17.168-82.384c-31.152-35.808-85.648-39.6-121.456-8.448c-20.736,18.032-31.68,45.184-29.248,72.592
	c0.368,4.112-2.672,7.728-6.784,8.096C14.288,308.616,10.656,305.576,10.304,301.464z"/>
<circle style="fill:#4B9FD8;" cx="110.928" cy="292.504" r="67.328"/>
<path style="fill:#3789C9;" d="M66.72,241.704c-28.064,24.416-31.024,66.944-6.608,94.992c4.192,4.816,9.04,8.608,14.128,11.936
	c2.512,0.128,5.088-0.656,7.136-2.432c4.224-3.664,4.672-10.064,0.992-14.288l-8.896-10.224c-3.072-3.536-2.688-8.928,0.864-11.984
	l0.08-0.064c0.16-0.144,0.304-0.272,0.448-0.416c3.296-3.248,8.64-3.04,11.68,0.464l11.776,13.536c3.6,4.144,9.92,5.152,14.24,1.776
	c4.608-3.6,5.2-10.288,1.408-14.64l-3.648-4.192c-3.088-3.552-2.704-8.944,0.864-12.016l0.448-0.384l0.096-0.08
	c3.712-3.28,9.424-2.896,12.672,0.848l14.608,16.784c3.6,4.144,9.92,5.152,14.24,1.776c4.608-3.6,5.2-10.288,1.408-14.64
	l-26.832-30.912c-3.216-3.696-2.512-9.152,1.232-12.32c0.032-0.032,0.064-0.048,0.096-0.08s0.064-0.048,0.096-0.08
	c3.664-3.264,9.152-3.2,12.368,0.496l5.488,6.32c3.6,4.144,9.92,5.152,14.24,1.776c3.456-2.704,4.656-7.136,3.44-11.008
	c-1.056-1.424-1.872-2.96-3.056-4.32C137.312,220.264,94.784,217.304,66.72,241.704z"/>
<path style="fill:#6F7070;" d="M270.672,250.184l70.416-80.96c5.408-6.224,14.848-6.88,21.072-1.472l26.256,22.848L298.4,294.104
	l-26.256-22.848C265.92,265.832,265.264,256.408,270.672,250.184z"/>
<circle style="fill:#464646;" cx="401.12" cy="292.504" r="110.928"/>
<circle style="fill:#F3F3F3;" cx="401.12" cy="292.504" r="77.76"/>
<path style="fill:#525252;" d="M501.696,301.464c2.864-32.16-9.984-64-34.32-85.168c-42.032-36.56-105.968-32.112-142.528,9.904
	c-23.232,26.704-30.768,62.832-20.16,96.672c1.232,3.936,5.424,6.128,9.36,4.88c3.936-1.232,6.128-5.44,4.896-9.36
	c-9.056-28.816-2.64-59.632,17.168-82.384c31.152-35.808,85.648-39.6,121.456-8.448c20.736,18.032,31.68,45.184,29.248,72.592
	c-0.368,4.112,2.672,7.728,6.784,8.096C497.712,308.616,501.344,305.576,501.696,301.464z"/>
<circle style="fill:#4B9FD8;" cx="401.12" cy="292.504" r="67.328"/>
<path style="fill:#3789C9;" d="M445.28,241.704c28.064,24.416,31.024,66.944,6.608,94.992c-4.192,4.816-9.04,8.608-14.128,11.936
	c-2.512,0.128-5.088-0.656-7.136-2.432c-4.224-3.664-4.672-10.064-0.992-14.288l8.896-10.224c3.072-3.536,2.688-8.928-0.864-11.984
	l-0.08-0.064c-0.16-0.144-0.304-0.272-0.448-0.416c-3.296-3.248-8.64-3.04-11.68,0.464l-11.776,13.536
	c-3.6,4.144-9.92,5.152-14.24,1.776c-4.608-3.6-5.2-10.288-1.408-14.64l3.648-4.192c3.088-3.552,2.704-8.944-0.864-12.016
	l-0.448-0.384l-0.096-0.08c-3.712-3.28-9.424-2.896-12.672,0.848l-14.608,16.784c-3.6,4.144-9.92,5.152-14.24,1.776
	c-4.608-3.6-5.2-10.288-1.408-14.64l26.896-30.912c3.216-3.696,2.512-9.152-1.232-12.32c-0.032-0.032-0.064-0.048-0.096-0.08
	s-0.064-0.048-0.096-0.08c-3.664-3.264-9.152-3.2-12.368,0.496l-5.488,6.32c-3.6,4.144-9.92,5.152-14.24,1.776
	c-3.456-2.704-4.656-7.136-3.44-11.008c1.056-1.424,1.872-2.96,3.056-4.32C374.688,220.264,417.216,217.304,445.28,241.704z"/>
<g>
</g>
<g>
</g>
<g>
</g>
<g>
</g>
<g>
</g>
<g>
</g>
<g>
</g>
<g>
</g>
<g>
</g>
<g>
</g>
<g>
</g>
<g>
</g>
<g>
</g>
<g>
</g>
<g>
</g>
</svg>
