<?xml version="1.0" encoding="iso-8859-1"?>
<!-- Generator: Adobe Illustrator 19.0.0, SVG Export Plug-In . SVG Version: 6.00 Build 0)  -->
<svg xmlns="http://www.w3.org/2000/svg" xmlns:xlink="http://www.w3.org/1999/xlink" version="1.1" id="Layer_1" x="0px" y="0px" viewBox="0 0 512 512" style="enable-background:new 0 0 512 512;" xml:space="preserve">
<path style="fill:#57555C;" d="M241.166,139.707c-0.154-1.004-3.668-24.918,4.809-53.891c7.863-26.876,27.8-63.582,78.12-85.817  l12.132,27.456c-75.21,33.233-65.816,104.742-65.38,107.771L241.166,139.707z"/>
<path style="fill:#FFA6B7;" d="M492.264,258.436c-1.161,42.674-12.777,90.041-32.719,133.376  c-20.251,44.005-47.847,81.026-77.724,104.259l-0.36,0.27c-1.671,1.231-17.05,12.037-41.413,14.958  c-3.622,0.43-7.564,0.7-11.787,0.7c-19.481,0-44.875-5.673-72.261-26.575c-33.309,25.434-63.686,28.306-84.048,25.875  c-24.364-2.922-39.743-13.728-41.413-14.958l-0.36-0.27c-29.877-23.233-57.473-60.254-77.724-104.259  c-19.941-43.335-31.558-90.701-32.719-133.386c-1.541-56.542,14.688-101.247,46.947-129.273  c48.778-42.404,99.166-41.904,132.845-34.019c27.005,6.314,47.547,18.24,56.472,24.064c8.925-5.823,29.467-17.74,56.472-24.064  c33.679-7.884,84.058-8.385,132.845,34.019h0.01C477.576,157.179,493.805,201.884,492.264,258.436z"/>
<path style="fill:#FF738D;" d="M492.264,258.436c-1.161,42.674-12.777,90.041-32.719,133.376  c-20.251,44.005-47.847,81.026-77.724,104.259l-0.36,0.27c-1.671,1.231-17.05,12.037-41.413,14.958  c-3.622,0.43-7.564,0.7-11.787,0.7c-19.481,0-44.875-5.673-72.261-26.575V119.198c8.925-5.823,29.467-17.74,56.472-24.064  c33.679-7.884,84.058-8.385,132.845,34.019h0.01C477.576,157.179,493.805,201.884,492.264,258.436z"/>
<path style="fill:#00DDC0;" d="M256.33,98.326c0,0-43.715,8.905-73.842-17.27c-30.137-26.175-27.015-70.34-27.015-70.34  s43.295-9.265,73.422,16.91C259.032,53.8,256.33,98.326,256.33,98.326z"/>
<path style="fill:#00AC93;" d="M256.33,98.326l-100.857-87.61c0,0,43.295-9.265,73.422,16.91  C259.032,53.8,256.33,98.326,256.33,98.326z"/>
<g>
</g>
<g>
</g>
<g>
</g>
<g>
</g>
<g>
</g>
<g>
</g>
<g>
</g>
<g>
</g>
<g>
</g>
<g>
</g>
<g>
</g>
<g>
</g>
<g>
</g>
<g>
</g>
<g>
</g>
</svg>
