<svg id="Capa_1" enable-background="new 0 0 512 512" height="512" viewBox="0 0 512 512" width="512" xmlns="http://www.w3.org/2000/svg"><g><g><path d="m190.987 399.65h130.021v73.182h-130.021z" fill="#82aee3"/><path d="m300.421 399.65h20.587v73.182h-20.587z" fill="#528fd8"/><path d="m489.654 404.003h-467.312c-12.154 0-18.992-5.767-18.992-17.921v-24.752l-3.016-3.593v-287.633c0-12.154 9.853-22.007 22.007-22.007h467.312c12.154 0 22.007 9.853 22.007 22.007v287.633l-3.188 4.017v24.327c.001 12.155-6.664 17.922-18.818 17.922z" fill="#f9f3f1"/><path d="m511.666 70.103v315.977c0 12.157-9.861 22.007-22.007 22.007h-20.587c12.146 0 22.007-9.851 22.007-22.007v-315.977c0-12.157-9.861-22.007-22.007-22.007h20.587c12.146 0 22.007 9.851 22.007 22.007z" fill="#efe2dd"/><path d="m379.37 511.999h-246.745v-22.077c0-12.711 10.304-23.014 23.014-23.014h200.716c12.71 0 23.014 10.304 23.014 23.014v22.077z" fill="#0067c5"/><path d="m379.375 489.921v22.079h-20.587v-22.079c0-12.712-10.304-23.016-23.016-23.016h20.587c12.712 0 23.016 10.303 23.016 23.016z" fill="#0055a3"/><path d="m489.654 408.089h-467.312c-12.154 0-22.007-9.853-22.007-22.007v-28.345h511.327v28.345c-.001 12.154-9.854 22.007-22.008 22.007z" fill="#0067c5"/><path d="m511.666 357.732v28.348c0 12.157-9.861 22.007-22.007 22.007h-20.587c12.146 0 22.007-9.851 22.007-22.007v-28.348z" fill="#0055a3"/></g><path d="m387.106.004h-262.217c-11.206 0-20.374 9.168-20.374 20.374v154.614c0 11.206 9.168 20.374 20.374 20.374h32.323c4.548 0 8.235 3.687 8.235 8.235v32.874c0 5.388 6.328 8.286 10.407 4.766l50.855-43.876c1.495-1.29 3.404-2 5.379-2h155.018c11.206 0 20.374-9.168 20.374-20.374v-154.613c0-11.206-9.168-20.374-20.374-20.374z" fill="#b0e7c9"/><path d="m211.499 195.369h20.587c-1.976 0-3.881.71-5.373 1.997l-50.86 43.871c-4.076 3.52-10.407.628-10.407-4.766v-4.014l40.68-35.09c1.493-1.288 3.397-1.998 5.373-1.998z" fill="#91deb6"/><path d="m407.476 20.381v154.607c0 11.21-9.161 20.381-20.37 20.381h-20.587c11.209 0 20.37-9.171 20.37-20.381v-154.607c0-11.21-9.161-20.381-20.37-20.381h20.587c11.209 0 20.37 9.171 20.37 20.381z" fill="#91deb6"/><g fill="#6ed5a1"><path d="m170.107 125.864c-.014 0-.028 0-.042 0-6.106.034-12.675.058-17.488.06v-63.979c0-4.143-3.358-7.5-7.5-7.5s-7.5 3.357-7.5 7.5v71.419c0 3.655 2.635 6.778 6.239 7.394.54.092 1.001.171 8.793.171 3.808 0 9.367-.02 17.539-.064 4.142-.023 7.481-3.399 7.458-7.542-.023-4.129-3.377-7.459-7.499-7.459z"/><path d="m211.363 54.445c-4.142 0-7.5 3.357-7.5 7.5v71.479c0 4.143 3.358 7.5 7.5 7.5s7.5-3.357 7.5-7.5v-71.479c0-4.142-3.358-7.5-7.5-7.5z"/><path d="m366.919 125.681h-22.344v-20.413h20.144c4.143 0 7.5-3.357 7.5-7.5s-3.357-7.5-7.5-7.5h-20.144v-20.414h22.344c4.143 0 7.5-3.357 7.5-7.5s-3.357-7.5-7.5-7.5h-29.844c-4.143 0-7.5 3.357-7.5 7.5v70.826c0 4.143 3.357 7.5 7.5 7.5h29.844c4.143 0 7.5-3.357 7.5-7.5s-3.357-7.499-7.5-7.499z"/><path d="m304.076 54.96c-3.927-1.307-8.176.82-9.481 4.753l-17.871 53.794-18.751-54.021c-1.358-3.914-5.633-5.986-9.545-4.626-3.913 1.357-5.984 5.631-4.626 9.544l24.457 70.46c1.292 3.632 4.737 6.06 8.587 6.06h.064c3.875-.027 7.317-2.511 8.58-6.229l23.339-70.253c1.307-3.931-.821-8.176-4.753-9.482z"/></g><g><g><path d="m457.837 289.963h-403.679c-4.142 0-7.5-3.357-7.5-7.5s3.358-7.5 7.5-7.5h403.679c4.143 0 7.5 3.357 7.5 7.5s-3.358 7.5-7.5 7.5z" fill="#e1d3ce"/></g><g><path d="m457.837 325.198h-403.679c-4.142 0-7.5-3.357-7.5-7.5s3.358-7.5 7.5-7.5h403.679c4.143 0 7.5 3.357 7.5 7.5s-3.358 7.5-7.5 7.5z" fill="#e1d3ce"/></g></g></g></svg>