<?xml version="1.0" encoding="iso-8859-1"?>
<!-- Generator: Adobe Illustrator 19.0.0, SVG Export Plug-In . SVG Version: 6.00 Build 0)  -->
<svg xmlns="http://www.w3.org/2000/svg" xmlns:xlink="http://www.w3.org/1999/xlink" version="1.1" id="Layer_1" x="0px" y="0px" viewBox="0 0 491.52 491.52" style="enable-background:new 0 0 491.52 491.52;" xml:space="preserve">
<path style="fill:#FCD462;" d="M212.163,3.522C151.651,16.19,103.581,66.321,92.832,127.199  c-8.598,48.718,5.587,94.008,33.598,127.402c32.698,38.997,54.139,86.142,54.139,137.036v15.19h130.384V391.57  c0-50.542,20.794-97.702,53.518-136.228c22.881-26.943,36.715-61.754,36.715-99.914C401.186,58.615,312.67-17.522,212.163,3.522z"/>
<path style="fill:#F6C358;" d="M212.163,3.522c-21.073,4.411-40.577,13.448-57.582,25.819c9.86-4.491,20.232-7.991,31.025-10.251  C286.115-1.955,374.629,74.183,374.629,170.995c0,38.16-13.834,72.971-36.715,99.914c-32.655,38.447-53.417,85.493-53.502,135.918  h26.54V391.57c0-50.541,20.795-97.702,53.519-136.228c22.882-26.943,36.715-61.753,36.715-99.914  C401.186,58.615,312.671-17.523,212.163,3.522z"/>
<path style="fill:#64798A;" d="M180.508,406.827v68.01c0,4.048,3.281,7.329,7.328,7.329h115.848c4.048,0,7.329-3.281,7.329-7.329  v-68.01H180.508z"/>
<g>
	<path style="fill:#3A556A;" d="M311.899,406.529l-135.082,19.195c-5.448,0.774-9.237,5.818-8.462,11.266   c0.774,5.448,5.818,9.237,11.266,8.462l135.082-19.195c5.448-0.774,9.237-5.818,8.462-11.266   C322.391,409.544,317.347,405.755,311.899,406.529z"/>
	<path style="fill:#3A556A;" d="M311.899,438.249l-135.082,19.195c-5.448,0.774-9.237,5.818-8.462,11.266   c0.774,5.448,5.818,9.237,11.266,8.463l135.082-19.195c5.448-0.775,9.237-5.818,8.462-11.267   C322.391,441.264,317.347,437.475,311.899,438.249z"/>
	<path style="fill:#3A556A;" d="M219.237,482.166c0,5.166,11.874,9.354,26.523,9.354c14.648,0,26.523-4.188,26.523-9.354H219.237z"/>
</g>
<g>
	<path style="fill:#E56353;" d="M148.458,109.985c-4.5,0-8.19,0.917-11.07,2.751c-2.889,1.84-4.33,4.612-4.33,8.324   c0,3.716,1.44,6.553,4.33,8.515c2.88,1.968,9.011,4.09,18.406,6.356c9.385,2.278,16.466,5.466,21.233,9.566   c4.757,4.112,7.135,10.158,7.135,18.151c0,7.993-3.008,14.482-9.044,19.462c-6.025,4.98-13.928,7.47-23.717,7.47   c-14.323,0-27.035-4.937-38.125-14.807l9.694-11.667c9.256,8.041,18.865,12.056,28.826,12.056c4.98,0,8.937-1.067,11.859-3.21   c2.932-2.138,4.394-4.98,4.394-8.515c0-3.541-1.375-6.292-4.127-8.26c-2.751-1.962-7.497-3.754-14.216-5.37   c-6.728-1.616-11.848-3.103-15.335-4.458c-3.498-1.354-6.601-3.119-9.31-5.306c-5.418-4.105-8.116-10.397-8.116-18.87   c0-8.473,3.072-15.005,9.236-19.591c6.153-4.585,13.779-6.878,22.864-6.878c5.855,0,11.667,0.96,17.425,2.88   c5.769,1.924,10.75,4.633,14.941,8.126l-8.254,11.661c-2.709-2.442-6.378-4.453-11.006-6.025   C157.523,110.774,152.959,109.985,148.458,109.985z"/>
	<path style="fill:#E56353;" d="M267.633,97.928v14.547h-48.875v24.246h43.895v13.757h-43.895v24.507h50.453v14.546h-65.916V97.928   H267.633z"/>
	<path style="fill:#E56353;" d="M364.348,176.882c-9.257,9.044-20.7,13.565-34.329,13.565c-13.629,0-25.072-4.521-34.328-13.565   c-9.267-9.038-13.895-20.311-13.895-33.806c0-13.502,4.628-24.768,13.895-33.811c9.257-9.044,20.7-13.56,34.328-13.56   c13.63,0,25.073,4.517,34.329,13.56c9.267,9.043,13.895,20.31,13.895,33.811C378.243,156.572,373.615,167.844,364.348,176.882z    M353.022,119.55c-6.25-6.462-13.917-9.693-23.004-9.693c-9.086,0-16.753,3.231-23.003,9.693   c-6.238,6.468-9.364,14.306-9.364,23.526c0,9.219,3.125,17.057,9.364,23.52c6.25,6.468,13.917,9.699,23.003,9.699   c9.087,0,16.754-3.231,23.004-9.699c6.238-6.463,9.363-14.301,9.363-23.52C362.385,133.857,359.261,126.018,353.022,119.55z"/>
</g>
<g>
</g>
<g>
</g>
<g>
</g>
<g>
</g>
<g>
</g>
<g>
</g>
<g>
</g>
<g>
</g>
<g>
</g>
<g>
</g>
<g>
</g>
<g>
</g>
<g>
</g>
<g>
</g>
<g>
</g>
</svg>
