<?xml version="1.0" encoding="iso-8859-1"?>
<!-- Generator: Adobe Illustrator 19.0.0, SVG Export Plug-In . SVG Version: 6.00 Build 0)  -->
<svg xmlns="http://www.w3.org/2000/svg" xmlns:xlink="http://www.w3.org/1999/xlink" version="1.1" id="Capa_1" x="0px" y="0px" viewBox="0 0 512 512" style="enable-background:new 0 0 512 512;" xml:space="preserve">
<path style="fill:#FFAE45;" d="M506.81,51.517c-6.161-22.414-23.912-40.166-46.327-46.326c-50.41-13.857-104.694,0.5-141.661,37.471  c-0.319,0.319-0.624,0.652-0.913,0.999l-52.567,63.026c-11.622,13.935-24.738,26.699-38.984,37.937l-0.989,0.781  c-29.666,23.402-56.551,50.333-79.911,80.041c-11.252,14.311-24.041,27.487-38.012,39.162L43.65,317.918  c-0.343,0.286-0.673,0.588-0.988,0.904C5.692,355.789-8.666,410.071,5.189,460.483c6.161,22.415,23.912,40.167,46.327,46.326  c12.698,3.49,25.636,5.19,38.488,5.189c38.166-0.001,75.518-15.003,103.174-42.66c0.319-0.319,0.624-0.652,0.913-0.999  l52.566-63.025c11.622-13.935,24.738-26.699,38.983-37.937l1.293-1.02c29.461-23.241,56.183-49.963,79.427-79.427l1.018-1.29  c11.239-14.246,24.003-27.363,37.938-38.984l63.025-52.566c0.347-0.289,0.68-0.593,0.999-0.913  C506.307,156.212,520.666,101.931,506.81,51.517z"/>
<path style="fill:#FFD75E;" d="M489.742,22.258c-8.01-8.01-18.052-13.988-29.26-17.068c-50.41-13.857-104.694,0.5-141.661,37.471  c-0.319,0.319-0.624,0.652-0.913,0.999l-52.567,63.026c-11.622,13.935-24.738,26.699-38.984,37.937l-0.989,0.781  c-29.666,23.402-56.551,50.333-79.911,80.041c-11.252,14.311-24.041,27.487-38.012,39.162l-63.797,53.312  c-0.343,0.286-0.673,0.588-0.988,0.904C5.692,355.789-8.666,410.071,5.189,460.483c3.08,11.207,9.059,21.249,17.069,29.259  L489.742,22.258z"/>
<g>
	<path style="fill:#E06C41;" d="M125.086,334.653c-1.938-8.056-10.044-13.012-18.095-11.074   c-8.056,1.938-13.014,10.041-11.075,18.096l21.888,90.932c1.654,6.876,7.799,11.494,14.571,11.494c1.162,0,2.344-0.136,3.522-0.42   c8.056-1.938,13.014-10.041,11.075-18.096L125.086,334.653z"/>
	<path style="fill:#E06C41;" d="M180.639,295.155c-1.939-8.055-10.046-13.011-18.096-11.074   c-8.056,1.938-13.014,10.04-11.075,18.096l15.657,65.054c1.655,6.876,7.8,11.494,14.572,11.494c1.162,0,2.344-0.136,3.522-0.42   c8.056-1.938,13.014-10.04,11.075-18.096L180.639,295.155z"/>
	<path style="fill:#E06C41;" d="M229.96,229.78c-1.938-8.056-10.045-13.012-18.095-11.074c-8.056,1.938-13.014,10.041-11.075,18.096   l21.888,90.932c1.654,6.876,7.799,11.494,14.571,11.494c1.162,0,2.344-0.136,3.522-0.42c8.056-1.938,13.014-10.041,11.075-18.096   L229.96,229.78z"/>
	<path style="fill:#E06C41;" d="M282.396,177.344c-1.938-8.056-10.045-13.012-18.095-11.074   c-8.056,1.938-13.014,10.041-11.075,18.096l21.888,90.932c1.654,6.876,7.799,11.494,14.571,11.494c1.162,0,2.344-0.136,3.522-0.42   c8.056-1.938,13.014-10.041,11.075-18.096L282.396,177.344z"/>
	<path style="fill:#E06C41;" d="M409.156,163.402L387.27,72.47c-1.939-8.055-10.049-13.012-18.096-11.074   c-8.056,1.938-13.014,10.04-11.075,18.096l21.886,90.932c1.655,6.876,7.8,11.494,14.572,11.494c1.162,0,2.344-0.136,3.522-0.42   C406.137,179.559,411.095,171.457,409.156,163.402z"/>
	<path style="fill:#E06C41;" d="M337.947,137.845c-1.938-8.056-10.039-13.01-18.097-11.074   c-8.055,1.938-13.013,10.041-11.073,18.096l15.658,65.055c1.654,6.876,7.799,11.494,14.571,11.494c1.162,0,2.344-0.136,3.522-0.42   c8.056-1.938,13.014-10.041,11.075-18.096L337.947,137.845z"/>
</g>
<g>
	<path style="fill:#FF8157;" d="M135.226,376.775l-10.139-42.122c-1.937-8.056-10.044-13.012-18.095-11.074   c-8.056,1.939-13.014,10.041-11.075,18.096l14.435,59.973L135.226,376.775z"/>
	<path style="fill:#FF8157;" d="M187.663,324.338l-7.024-29.183c-1.939-8.055-10.046-13.011-18.096-11.074   c-8.056,1.939-13.014,10.04-11.075,18.096l11.323,47.046L187.663,324.338z"/>
	<path style="fill:#FF8157;" d="M240.099,271.902L229.96,229.78c-1.938-8.056-10.045-13.012-18.095-11.074   c-8.056,1.939-13.014,10.041-11.075,18.096l14.435,59.973L240.099,271.902z"/>
	<path style="fill:#FF8157;" d="M292.535,219.465l-10.139-42.121c-1.938-8.056-10.045-13.012-18.095-11.074   c-8.056,1.938-13.014,10.041-11.075,18.096l14.435,59.973L292.535,219.465z"/>
	<path style="fill:#FF8157;" d="M397.409,114.592L387.271,72.47c-1.939-8.055-10.049-13.012-18.096-11.074   c-8.056,1.938-13.014,10.04-11.075,18.096l14.434,59.974L397.409,114.592z"/>
	<path style="fill:#FF8157;" d="M344.974,167.036l-7.026-29.191c-1.938-8.056-10.039-13.01-18.097-11.074   c-8.055,1.939-13.013,10.041-11.073,18.096l11.322,47.036L344.974,167.036z"/>
</g>
<g>
</g>
<g>
</g>
<g>
</g>
<g>
</g>
<g>
</g>
<g>
</g>
<g>
</g>
<g>
</g>
<g>
</g>
<g>
</g>
<g>
</g>
<g>
</g>
<g>
</g>
<g>
</g>
<g>
</g>
</svg>
