<svg id="Capa_1" enable-background="new 0 0 512 512" height="512" viewBox="0 0 512 512" width="512" xmlns="http://www.w3.org/2000/svg"><g><g><path d="m265.374 290.868v-126.943c0-14.544-5.57-28.535-15.564-39.1l-40.06-42.344c-5.514-5.829-8.587-13.548-8.587-21.572v-27.11h-62.028v27.11c0 8.024-3.073 15.743-8.587 21.572l-40.059 42.344c-9.995 10.565-15.564 24.556-15.564 39.1v126.943c0 8.817 2.898 17.39 8.247 24.399l17.424 22.832c7.016 9.193 10.816 20.438 10.816 32.003v.133c0 12.546-4.471 24.681-12.612 34.227l-14.26 16.724c-6.206 7.278-9.615 16.53-9.615 26.096v35.29c0 16.252 13.175 29.428 29.428 29.428h131.921c16.253 0 29.428-13.176 29.428-29.428v-35.189c0-9.626-3.453-18.934-9.731-26.231l-14.321-16.645c-8.235-9.571-12.764-21.778-12.764-34.405 0-11.565 3.8-22.809 10.816-32.003l17.424-22.832c5.35-7.009 8.248-15.582 8.248-24.399z" fill="#ddeafb"/></g><g><path d="m255.971 421.152-14.321-16.645c-8.235-9.571-12.764-21.779-12.764-34.405 0-11.565 3.8-22.809 10.816-32.003l17.424-22.832c5.349-7.009 8.247-15.582 8.247-24.399v-126.943c0-14.544-5.57-28.535-15.564-39.1l-40.059-42.344c-5.514-5.829-8.587-13.548-8.587-21.572v-27.11h-29.058v27.11c0 8.024 3.073 15.743 8.587 21.572l40.059 42.344c9.995 10.565 15.564 24.556 15.564 39.1v126.943c0 8.817-2.898 17.39-8.247 24.399l-17.424 22.832c-7.016 9.193-10.816 20.438-10.816 32.003 0 12.626 4.529 24.833 12.764 34.405l14.321 16.645c6.278 7.297 9.731 16.604 9.731 26.231v35.189c0 16.253-13.176 29.428-29.428 29.428h29.058c16.253 0 29.428-13.176 29.428-29.428v-35.189c0-9.627-3.453-18.934-9.731-26.231z" fill="#cbe2ff"/></g><g><path d="m201.011 43.361h-61.724c-3.866 0-7-3.134-7-7v-29.361c0-3.866 3.134-7 7-7h61.724c3.866 0 7 3.134 7 7v29.361c0 3.866-3.134 7-7 7z" fill="#a298a5"/></g><g><path d="m201.011 0h-11.867v17.494c0 3.866-3.134 7-7 7h-49.857v11.867c0 3.866 3.134 7 7 7h61.724c3.866 0 7-3.134 7-7v-29.361c0-3.866-3.134-7-7-7z" fill="#8b818e"/></g><g><path d="m74.925 279.511h135.337c6.627 0 12-5.373 12-12v-84.188c0-6.627-5.373-12-12-12h-135.337z" fill="#cbe2ff"/></g><g><circle cx="170.314" cy="460.485" fill="#cbe2ff" r="24.515"/></g><g><path d="m83.927 435.969c-2.696 0-5.288.442-7.714 1.246-.844 3.266-1.288 6.645-1.288 10.067v35.29c0 .242.012.481.018.722 2.783 1.097 5.811 1.706 8.984 1.706 13.539 0 24.515-10.976 24.515-24.515 0-13.54-10.976-24.516-24.515-24.516z" fill="#cbe2ff"/></g><g><path d="m256.7 435.969c2.696 0 5.288.442 7.714 1.246.844 3.266 1.288 6.645 1.288 10.067v35.29c0 .242-.012.481-.018.722-2.783 1.097-5.811 1.706-8.984 1.706-13.539 0-24.515-10.976-24.515-24.515 0-13.54 10.976-24.516 24.515-24.516z" fill="#cbe2ff"/></g><g><path d="m265.634 445.165c-.156-2.685-.557-5.359-1.248-7.958-2.419-.798-5-1.238-7.686-1.238-8.306 0-15.643 4.135-20.077 10.455.008.32.021.638.021.959v27.193c4.437 6.302 11.763 10.424 20.056 10.424 3.173 0 6.201-.609 8.984-1.706.006-.241.018-.48.018-.722v-35.189c-.011-.74-.025-1.481-.068-2.218z" fill="#bed8fb"/></g><g><path d="m175.032 217.12h-69.18c-4.143 0-7.5-3.358-7.5-7.5s3.357-7.5 7.5-7.5h69.18c4.143 0 7.5 3.358 7.5 7.5s-3.357 7.5-7.5 7.5z" fill="#9dc6fb"/></g><g><path d="m148.594 248.713h-42.741c-4.143 0-7.5-3.358-7.5-7.5s3.357-7.5 7.5-7.5h42.741c4.143 0 7.5 3.358 7.5 7.5s-3.358 7.5-7.5 7.5z" fill="#9dc6fb"/></g><g><path d="m321.824 191.572h88.922v92.068h-88.922z" fill="#ddeafb"/></g><g><path d="m385.257 191.572h25.49v92.068h-25.49z" fill="#cbe2ff"/></g><g><path d="m437.075 283.64c0-19.744-16.006-35.75-35.75-35.75h-70.08c-19.744 0-35.75 16.006-35.75 35.75 0 13.773 7.791 25.721 19.204 31.689 4.362 2.281 7.124 6.764 7.124 11.687v9.756c0 7.27-5.894 13.164-13.164 13.164-7.27 0-13.164 5.894-13.164 13.164v132.022c0 9.321 7.556 16.878 16.878 16.878h107.824c9.321 0 16.878-7.556 16.878-16.878v-33.734l-12.546-35.271 12.546-35.271v-27.746c0-7.27-5.894-13.164-13.164-13.164-7.27 0-13.164-5.894-13.164-13.164v-9.756c0-4.923 2.762-9.405 7.124-11.687 11.413-5.968 19.204-17.916 19.204-31.689z" fill="#ffd064"/></g><g><path d="m417.871 315.33c11.414-5.969 19.204-17.917 19.204-31.689 0-19.744-16.006-35.75-35.75-35.75h-33.295c19.744 0 35.75 16.006 35.75 35.75 0 13.773-7.791 25.721-19.204 31.689-4.362 2.281-7.124 6.764-7.124 11.687v9.756c0 7.27 5.894 13.164 13.164 13.164s13.164 5.894 13.164 13.164v132.022c0 9.321-7.556 16.878-16.878 16.878h33.295c9.321 0 16.878-7.556 16.878-16.878v-33.734l-12.546-35.271 12.546-35.271v-27.747c0-7.27-5.894-13.164-13.164-13.164s-13.164-5.894-13.164-13.164v-9.756c0-4.923 2.762-9.405 7.124-11.686z" fill="#ffc250"/></g><g><path d="m414.169 164.546h-95.766c-2.761 0-5 2.239-5 5v24.218c0 2.761 2.239 5 5 5h95.766c2.761 0 5-2.239 5-5v-24.218c0-2.761-2.239-5-5-5z" fill="#dd636e"/></g><g><path d="m414.169 164.546h-11.9v12.318c0 2.761-2.239 5-5 5h-83.867v11.9c0 2.761 2.239 5 5 5h95.766c2.761 0 5-2.239 5-5v-24.218c.001-2.761-2.238-5-4.999-5z" fill="#da4a54"/></g><g><path d="m437.075 390.847c-9.015-2.96-19.293-4.643-30.21-4.643-35.64 0-64.532 17.87-64.532 39.914s28.892 39.914 64.532 39.914c10.917 0 21.195-1.683 30.21-4.643z" fill="#f9efda"/></g><g><path d="m437.075 390.847c-9.015-2.96-19.293-4.643-30.21-4.643-1.035 0-2.062.018-3.085.048v79.732c1.023.03 2.05.048 3.085.048 10.917 0 21.195-1.683 30.21-4.643z" fill="#f4ddb1"/></g></g></svg>