<?xml version="1.0" encoding="iso-8859-1"?>
<!-- Generator: Adobe Illustrator 19.0.0, SVG Export Plug-In . SVG Version: 6.00 Build 0)  -->
<svg version="1.1" id="Capa_1" xmlns="http://www.w3.org/2000/svg" xmlns:xlink="http://www.w3.org/1999/xlink" x="0px" y="0px"
	 viewBox="0 0 513.067 513.067" style="enable-background:new 0 0 513.067 513.067;" xml:space="preserve">
<path style="fill:#F7B64C;" d="M251.412,242.133c0,0,68.267-2.133,72.533-8.533c0,0,62.933,13.867,88.533-32l-69.333-44.8
	l-74.667,6.4l-26.667,24.533l-6.4,37.333L251.412,242.133z"/>
<path style="fill:#CED6E0;" d="M353.812,184.533l-1.067,85.333l11.733,8.533V336l-16,38.4l17.067,22.4l-17.067,28.8l17.067,28.8
	l-17.067,22.4c13.867,13.867,22.4,22.4,36.267,36.267c16-16,25.6-25.6,41.6-41.6V184.533H353.812z"/>
<path style="fill:#ADB3BA;" d="M396.479,501.333c5.333-5.333,10.667-10.667,16-16V269.867h-16V501.333z"/>
<path style="fill:#CED6E0;" d="M394.346,237.867c66.133,0,118.4-53.333,118.4-118.4S459.412,0,394.346,0
	c-66.133,0-118.4,53.333-118.4,118.4S328.212,237.867,394.346,237.867z M394.346,49.067c26.667,0,48,14.933,48,33.067
	s-21.333,33.067-48,33.067s-48-14.933-48-33.067C345.279,64,366.612,49.067,394.346,49.067z"/>
<path style="fill:#ADB3BA;" d="M327.146,197.333c0,0,80,36.267,106.667,0c26.667-36.267-41.6-69.333-82.133-74.667
	c-22.4-3.2-45.867-9.6-75.733-14.933c0,3.2-1.067,7.467-1.067,11.733c0,30.933,11.733,58.667,30.933,80
	C315.412,198.4,322.879,198.4,327.146,197.333z"/>
<path style="fill:#FFD15C;" d="M32.746,432c-3.2,24.533,4.267,49.067,22.4,65.067c13.867,12.8,34.133,20.267,58.667,3.2
	C167.146,464,198.079,454.4,198.079,454.4s96-43.733,35.2-98.133c0,0,72.533-18.133,20.267-84.267c0,0,71.467-49.067,17.067-85.333
	c0,0,44.8,3.2,56.533,0c0,0,80,36.267,106.667,0c26.667-36.267-41.6-69.333-82.133-74.667c-40.533-6.4-85.333-21.333-166.4-23.467
	c-82.133-1.067-125.867-13.867-173.867,27.733c0,0-23.467,33.067,2.133,66.133c0,0-26.667,73.6-4.267,109.867
	c0,0-10.667,105.6,26.667,119.467L32.746,432z"/>
<g>
	<path style="fill:#F7B64C;" d="M226.879,355.2c-11.733,0-25.6,2.133-40.533,5.333c-14.933,3.2-28.8,8.533-38.4,12.8
		c-10.667,4.267-17.067,8.533-17.067,8.533s7.467-1.067,18.133-3.2c10.667-2.133,25.6-5.333,39.467-9.6
		c7.467-2.133,13.867-3.2,21.333-5.333c6.4-1.067,12.8-3.2,18.133-4.267c2.133-1.067,5.333-1.067,7.467-1.067
		c-1.067-1.067-1.067-1.067-2.133-2.133c0,0,2.133,0,5.333-1.067C235.412,355.2,231.146,354.133,226.879,355.2z"/>
	<path style="fill:#F7B64C;" d="M219.412,268.8c-10.667,1.067-22.4,1.067-32,2.133c-10.667,1.067-20.267,2.133-27.733,3.2
		c-8.533,1.067-14.933,3.2-20.267,3.2c-4.267,1.067-7.467,2.133-7.467,2.133s3.2,0,7.467,0c5.333,0,11.733,0,20.267,0
		c17.067,0,38.4-1.067,60.8-2.133c10.667,0,22.4-1.067,32-1.067c1.067,0,3.2,0,4.267,0c-1.067-1.067-2.133-2.133-3.2-3.2
		c0,0,2.133-1.067,4.267-3.2c-2.133,0-4.267,0-6.4,0C241.812,267.733,230.079,267.733,219.412,268.8z"/>
	<path style="fill:#F7B64C;" d="M205.546,177.067c-24.533,1.067-49.067,2.133-67.2,3.2c-9.6,0-17.067,1.067-22.4,1.067
		c-5.333,0-8.533,0-8.533,0s3.2,0,8.533,1.067c5.333,0,12.8,1.067,22.4,2.133c9.6,1.067,20.267,1.067,30.933,1.067
		c5.333,0,11.733,0,18.133,0c6.4,0,11.733,0,18.133-1.067c11.733,0,23.467,1.067,35.2,1.067c11.733,1.067,22.4,2.133,30.933,3.2
		c1.067,0,3.2,0,4.267,0c-2.133-1.067-3.2-2.133-5.333-4.267c0,0,4.267,0,10.667,1.067c-3.2-1.067-5.333-1.067-8.533-2.133
		C254.612,181.333,230.079,177.067,205.546,177.067z"/>
</g>
<path style="fill:#FFFFFF;" d="M392.212,138.667c-4.267,8.533-12.8,27.733-5.333,44.8c1.067,1.067,1.067,3.2,3.2,3.2
	c3.2,2.133,11.733,5.333,29.867,6.4c10.667,1.067,20.267-6.4,21.333-16c3.2-14.933-2.133-34.133-41.6-42.667
	C397.546,133.333,393.279,135.467,392.212,138.667z"/>
<g>
</g>
<g>
</g>
<g>
</g>
<g>
</g>
<g>
</g>
<g>
</g>
<g>
</g>
<g>
</g>
<g>
</g>
<g>
</g>
<g>
</g>
<g>
</g>
<g>
</g>
<g>
</g>
<g>
</g>
</svg>
