<svg id="Capa_1" enable-background="new 0 0 512 512" height="512" viewBox="0 0 512 512" width="512" xmlns="http://www.w3.org/2000/svg"><g><path d="m497 13.932h-482c-8.284 0-15 6.716-15 15v284.387l15 30h482l15-30v-284.387c0-8.284-6.716-15-15-15z" fill="#fff5f5"/><path d="m497 13.932h-240.987v329.387h240.987l15-30v-284.387c0-8.284-6.716-15-15-15z" fill="#ece6f2"/><path d="m299.39 391.289h-86.78c-8.284 0-15 6.716-15 15v76.779h116.78v-76.779c0-8.284-6.716-15-15-15z" fill="#cfcfe6"/><path d="m299.39 391.289h-43.376v91.779h58.376v-76.779c0-8.284-6.716-15-15-15z" fill="#a3aacc"/><path d="m256.013 498.068h-62.724c-8.284 0-15-6.716-15-15s6.716-15 15-15h62.724l26.812 12.646z" fill="#ece6f2"/><path d="m318.711 468.068h-62.698v30h62.698c8.284 0 15-6.716 15-15s-6.716-15-15-15z" fill="#cfcfe6"/><path d="m512 313.319h-512v92.97c0 8.284 6.716 15 15 15h241.013l29.188-20 29.188 20h182.611c8.284 0 15-6.716 15-15z" fill="#ece6f2"/><path d="m256.013 421.289h240.987c8.284 0 15-6.716 15-15v-92.97h-255.987z" fill="#cfcfe6"/><path d="m359.231 132.558c-.042-.156-.086-.312-.133-.467-8.349-27.66-27.026-50.309-52.593-63.774-25.562-13.462-54.812-16.046-82.364-7.276-26.114 8.313-47.836 26.229-61.166 50.447-13.334 24.227-16.839 52.164-9.869 78.665 6.035 22.945 19.066 42.741 37.687 57.248 17.924 13.964 40.251 21.999 62.87 22.625.142.004.282.006.422.006 8.091 0 14.761-6.446 14.987-14.585.229-8.281-6.299-15.18-14.58-15.409-16.272-.45-32.346-6.24-45.262-16.302-13.388-10.431-22.763-24.682-27.11-41.212-5.004-19.025-2.469-39.115 7.138-56.569s25.227-30.354 43.983-36.325c19.835-6.314 40.888-4.456 59.285 5.233 18.328 9.653 31.738 25.863 37.781 45.665 3.755 14.267 2.473 27.613-4.274 44.576-1.637 4.117-6.681 13.693-18.121 13.693-1.169 0-2.272-.981-2.692-1.404-1.567-1.576-2.496-3.924-2.484-6.255l.399-59.209c.056-8.284-6.614-15.045-14.898-15.101-.035 0-.068 0-.104 0-5.57 0-10.432 3.047-13.018 7.567-4.753-1.949-9.885-2.968-15.231-2.968-25.426 0-45.343 22.222-45.343 50.589 0 13.611 4.372 26.43 12.309 36.095 8.37 10.191 20.129 16.036 32.262 16.036 8.504 0 16.367-2.76 23.018-7.583.586.682 1.189 1.35 1.824 1.989 6.573 6.605 15.081 10.243 23.958 10.243 24.353 0 39.729-16.843 45.998-32.606 9.231-23.209 10.871-42.834 5.321-63.632zm-100.119 61.588c-6.892 0-14.571-9.089-14.571-22.131 0-10.121 5.739-20.589 15.343-20.589 7.369 0 12.589 7.738 12.99 18.976l-.022 3.215c-.616 12.352-7.384 20.529-13.74 20.529z" fill="#3a5d7e"/><g fill="#293f65"><path d="m269.073 255.446c.214-7.767-5.515-14.318-13.06-15.29v29.737c7.196-.929 12.853-6.965 13.06-14.447z"/><path d="m359.099 132.092c-8.349-27.66-27.026-50.309-52.593-63.774-15.841-8.343-33.1-12.503-50.493-12.377v30.016c12.577-.12 25.06 2.873 36.513 8.905 18.328 9.653 31.738 25.863 37.781 45.665 3.755 14.267 2.473 27.613-4.274 44.576-1.637 4.117-6.681 13.693-18.121 13.693-1.169 0-2.272-.981-2.692-1.404-1.567-1.576-2.496-3.924-2.484-6.255l.399-59.209c.056-8.284-6.614-15.045-14.898-15.101-.035 0-.068 0-.104 0-5.57 0-10.432 3.047-13.018 7.567-4.753-1.949-9.885-2.968-15.231-2.968-1.307 0-2.595.073-3.87.188v30.427c1.209-.396 2.499-.616 3.87-.616 7.369 0 12.589 7.738 12.99 18.976l-.022 3.215c-.617 12.352-7.385 20.529-13.74 20.529-1.025 0-2.067-.224-3.099-.609v30.467c1.03.084 2.062.143 3.099.143 8.504 0 16.367-2.76 23.018-7.583.586.682 1.189 1.35 1.824 1.989 6.573 6.605 15.081 10.243 23.958 10.243 24.353 0 39.729-16.843 45.998-32.606 9.23-23.208 10.871-42.833 5.321-63.63-.042-.157-.085-.313-.132-.467z"/></g></g></svg>