<svg id="color" enable-background="new 0 0 24 24" height="512" viewBox="0 0 24 24" width="512" xmlns="http://www.w3.org/2000/svg"><g fill="#b0bec5"><path d="m3.75 5.5c-.552 0-1-.448-1-1v-3.5c0-.552.448-1 1-1s1 .448 1 1v3.5c0 .552-.448 1-1 1z"/><path d="m8.5 5.5c-.552 0-1-.448-1-1v-3.5c0-.552.448-1 1-1s1 .448 1 1v3.5c0 .552-.448 1-1 1z"/><path d="m13.25 5.5c-.552 0-1-.448-1-1v-3.5c0-.552.448-1 1-1s1 .448 1 1v3.5c0 .552-.448 1-1 1z"/></g><path d="m3.75 0c-.553 0-1 .447-1 1v3.5c0 .553.447 1 1 1z" fill="#99a5ac"/><path d="m8.5 0c-.553 0-1 .447-1 1v3.5c0 .553.447 1 1 1z" fill="#99a5ac"/><path d="m13.25 0c-.553 0-1 .447-1 1v3.5c0 .553.447 1 1 1z" fill="#99a5ac"/><path d="m14.25 2.25h-11.5c-1.52 0-2.75 1.23-2.75 2.75v13.25c0 1.52 1.23 2.75 2.75 2.75h8.14c-.88-1.2-1.39-2.66-1.39-4.25 0-1.37.38-2.65 1.06-3.75.34-.58.77-1.11 1.27-1.56v-.01c1.3-1.2 3.02-1.93 4.92-1.93.08 0 .17 0 .25.01v-4.51c0-1.52-1.23-2.75-2.75-2.75z" fill="#eceff1"/><path d="m8.5 2.25h-5.75c-1.52 0-2.75 1.23-2.75 2.75v13.25c0 1.52 1.23 2.75 2.75 2.75h5.75z" fill="#cdd0d2"/><path d="m11.83 11.43v.01c-.5.45-.93.98-1.27 1.56h-6.56c-.55 0-1-.45-1-1s.45-1 1-1h7c.34 0 .64.17.83.43z" fill="#90a4ae"/><path d="m8 9h-4c-.552 0-1-.448-1-1s.448-1 1-1h4c.552 0 1 .448 1 1s-.448 1-1 1z" fill="#90a4ae"/><path d="m16.75 22c-2.895 0-5.25-2.355-5.25-5.25s2.355-5.25 5.25-5.25 5.25 2.355 5.25 5.25-2.355 5.25-5.25 5.25zm0-8.5c-1.792 0-3.25 1.458-3.25 3.25s1.458 3.25 3.25 3.25 3.25-1.458 3.25-3.25-1.458-3.25-3.25-3.25z" fill="#546e7a"/><path d="m23 24c-.256 0-.512-.098-.707-.293l-3.25-3.25c-.391-.391-.391-1.023 0-1.414s1.023-.391 1.414 0l3.25 3.25c.391.391.391 1.023 0 1.414-.195.195-.451.293-.707.293z" fill="#546e7a"/><path d="m9 8h-6c0 .553.447 1 1 1h4c.553 0 1-.447 1-1z" fill="#7d8f97"/><path d="m11.29 12c-.28.31-.52.65-.73 1h-6.56c-.55 0-1-.45-1-1z" fill="#7d8f97"/><path d="m13.039 13.039c-.95.951-1.539 2.264-1.539 3.711 0 2.895 2.355 5.25 5.25 5.25 1.087 0 2.098-.332 2.936-.9l-.643-.643c-.368-.368-.389-.952-.063-1.345-.583.55-1.368.888-2.23.888-1.792 0-3.25-1.458-3.25-3.25 0-.896.365-1.708.953-2.297z" fill="#49606a"/><path d="m19.043 19.043c-.022.022-.043.046-.063.069-.326.393-.305.976.063 1.345l.643.643 2.607 2.607c.195.195.451.293.707.293s.512-.098.707-.293z" fill="#49606a"/></svg>