<svg id="icons" enable-background="new 0 0 64 64" height="512" viewBox="0 0 64 64" width="512" xmlns="http://www.w3.org/2000/svg"><path d="m15 30 .91 10h-3.91c-6.08 0-11-4.92-11-11s4.92-11 11-11h1.1.011c1-9.55 9.08-17 18.89-17 7.64 0 14.23 4.51 17.24 11.01 7.619.13 13.759 6.34 13.759 13.99 0 7.73-6.27 14-14 14h-.91l.91-10z" fill="#e6e9ed"/><path d="m63 30c0 7.74-6.27 14-14 14h-1.27l.359-4h.911c7.73 0 14-6.27 14-14z" fill="#ccd1d9"/><path d="m50 26c.55 0 1 .45 1 1v2c0 .55-.45 1-1 1-.55 0-1.45 0-2 0h-32c-.55 0-1.45 0-2 0-.55 0-1-.45-1-1v-2c0-.55.45-1 1-1z" fill="#656d78"/><path d="m15.91 40-.91-10h34l-.91 10-.36 4-1.73 19h-28l-1.73-19z" fill="#545c66"/><path d="m1 29c0 6.08 4.92 11 11 11h3.91l.359 4h-4.269c-6.08 0-11-4.92-11-11z" fill="#ccd1d9"/><g fill="#434a54"><path d="m25 59c-.514 0-.95-.393-.995-.913l-2.002-22.999c-.048-.551.359-1.035.909-1.083.537-.063 1.035.359 1.083.909l2.002 22.999c.048.551-.359 1.035-.909 1.083-.029.003-.059.004-.088.004z"/><path d="m32.001 59c-.553 0-1-.447-1-1v-22.999c0-.553.447-1 1-1s1 .447 1 1v22.999c0 .553-.447 1-1 1z"/><path d="m39.002 59c-.029 0-.059-.001-.088-.004-.55-.048-.957-.532-.909-1.083l2.002-22.999c.048-.55.544-.964 1.083-.909.55.048.957.532.909 1.083l-2.002 22.999c-.045.52-.481.913-.995.913z"/></g></svg>