<svg id="Layer_1" enable-background="new 0 0 512 512" height="512" viewBox="0 0 512 512" width="512" xmlns="http://www.w3.org/2000/svg"><g><g><path d="m411.734 184.846h-72.174c-8.28 0-14.993 6.721-14.993 15.012v95.666c0 8.291 6.713 15.012 14.993 15.012h72.174c34.609 0 62.766-28.192 62.766-62.845s-28.156-62.845-62.766-62.845zm0 95.666h-57.18v-65.642h57.18c18.075 0 32.779 14.723 32.779 32.821s-14.704 32.821-32.779 32.821z" fill="#ffb454"/></g><path d="m384.545 189.856v95.669c0 92.005-74.756 166.847-166.645 166.847-91.879 0-166.635-74.841-166.635-166.847v-95.669c0-26.191 21.28-47.499 47.449-47.499h238.383c26.158 0 47.448 21.308 47.448 47.499z" fill="#fff16b"/><path d="m384.545 189.856v95.669c0 92.005-74.756 166.847-166.645 166.847v-310.015h119.196c26.159 0 47.449 21.308 47.449 47.499z" fill="#ffd845"/><g><path d="m231.304 90.585c3.708 7.406.72 16.433-6.687 20.147-2.159 1.081-4.448 1.591-6.707 1.591h-.01c-5.488 0-10.775-3.043-13.404-8.297l-5.028-10.048c-8.096-16.173-4.948-35.639 7.836-48.43 3.628-3.633 4.518-9.168 2.219-13.761l-5.028-10.048c-3.708-7.416-.71-16.433 6.687-20.147 2.16-1.081 4.459-1.592 6.718-1.592 5.498 0 10.775 3.033 13.404 8.287l5.028 10.058c8.096 16.173 4.948 35.639-7.827 48.43-3.628 3.633-4.528 9.158-2.229 13.751z" fill="#f6f6f6"/><path d="m159.686 18.342-5.028-10.049c-3.709-7.413-12.717-10.412-20.121-6.699-7.403 3.713-10.399 12.733-6.69 20.145l5.028 10.05c2.299 4.594 1.405 10.122-2.224 13.755-12.777 12.793-15.925 32.257-7.831 48.435l5.028 10.049c2.629 5.255 7.921 8.291 13.417 8.291 2.257 0 4.549-.512 6.704-1.593 7.403-3.714 10.398-12.733 6.689-20.146l-5.028-10.048c-2.299-4.596-1.405-10.124 2.224-13.757 12.779-12.794 15.926-32.258 7.832-48.433z" fill="#f6f6f6"/><path d="m302.931 80.531c-2.299-4.595-1.405-10.123 2.223-13.755 12.779-12.794 15.926-32.258 7.832-48.435l-5.028-10.049c-3.709-7.412-12.716-10.412-20.121-6.698-7.403 3.714-10.399 12.733-6.689 20.146l5.028 10.049c2.299 4.594 1.405 10.122-2.225 13.755-12.777 12.794-15.924 32.258-7.831 48.434l5.027 10.049c2.63 5.255 7.921 8.292 13.418 8.292 2.257 0 4.548-.512 6.703-1.592 7.404-3.713 10.4-12.733 6.691-20.146z" fill="#efefef"/></g><path d="m397.51 447.727c-9.626 19.326-24.409 35.549-42.731 46.908-18.322 11.36-39.393 17.365-60.933 17.365h-151.892c-21.54 0-42.611-6.005-60.933-17.364s-33.095-27.583-42.731-46.908c-1.16-2.332-1.04-5.094.33-7.306 1.369-2.222 3.778-3.563 6.377-3.563h345.815c2.599 0 5.008 1.341 6.377 3.563 1.36 2.211 1.49 4.973.321 7.305z" fill="#ffb454"/><path d="m217.91 112.322h-.01v-112.322c5.498 0 10.775 3.033 13.404 8.287l5.028 10.058c8.096 16.173 4.948 35.639-7.827 48.43-3.628 3.633-4.528 9.158-2.229 13.751l5.028 10.058c3.708 7.406.72 16.433-6.687 20.147-2.159 1.081-4.448 1.591-6.707 1.591z" fill="#efefef"/><path d="m397.51 447.727c-9.626 19.326-24.409 35.549-42.731 46.908-18.322 11.36-39.393 17.365-60.933 17.365h-75.946v-75.142h172.912c2.599 0 5.008 1.341 6.377 3.563 1.36 2.212 1.49 4.974.321 7.306z" fill="#ff9d21"/></g></svg>