<svg height="512" viewBox="0 0 58 58" width="512" xmlns="http://www.w3.org/2000/svg"><g id="Page-1" fill="none" fill-rule="evenodd"><g id="033---Peas" fill-rule="nonzero" transform="translate(-1 -1)"><path id="Shape" d="m59 4.72c-.11 8.08-1.72 27.67-14.17 40.11s-32.03 14.06-40.11 14.17c-.99185781.0173069-1.94823495-.3688529-2.65-1.07l.01-.01s.87-4.36 6.1-9.59c.6022675-.6032078 1.25092367-1.1582435 1.94-1.66 2.6948819-1.9403945 5.8480936-3.146541 9.15-3.5.6139812-.0584582 1.0891519-.5635946 1.11-1.18.1137995-2.5777391.7499937-5.1055053 1.87-7.43v-.01c.13-.27.27-.54.41-.81 2.5190868-4.7057511 6.3742489-8.5609132 11.08-11.08.27-.14.54-.28.81-.41h.01c2.3244947-1.1200063 4.8522609-1.7562005 7.43-1.87.6164054-.0208481 1.1215418-.4960188 1.18-1.11.353459-3.3019064 1.5596055-6.4551181 3.5-9.15.5017565-.68907633 1.0567922-1.3377325 1.66-1.94 5.23-5.23 9.59-6.1 9.59-6.1l.01-.01c.7011471.70176505 1.0873069 1.65814219 1.07 2.65z" fill="#24ae5f"/><path id="Shape" d="m57.93 2.07-.01.01s-4.36.87-9.59 6.1c-2.9104756 3.0165125-4.7270481 6.9207352-5.16 11.09-.0584582.6139812-.5635946 1.0891519-1.18 1.11-2.43.07-8.52.91-14.61 7s-6.93 12.18-7 14.61c-.0208481.6164054-.4960188 1.1215418-1.11 1.18-4.1692648.4329519-8.0734875 2.2495244-11.09 5.16-5.23 5.23-6.1 9.59-6.1 9.59l-.01.01c-.7011471-.7017651-1.08730693-1.6581422-1.07-2.65.11-8.08 1.72-27.67 14.17-40.11s32.03-14.06 40.11-14.17c.9918578-.01730693 1.9482349.3688529 2.65 1.07z" fill="#4c8056"/><path id="Shape" d="m42.006 43.006c-.4037752-.0008921-.7673968-.2445232-.9217942-.6176139-.1543975-.3730906-.0692728-.802428.2157942-1.0883861 7.4-7.4 10.447-17.934 11.7-25.467.0908509-.5448289.6061711-.9128508 1.151-.822.5448289.0908509.9128508.6061711.822 1.151-1.3 7.82-4.484 18.776-12.26 26.551-.1874927.1875494-.4418052.2929434-.707.293z" fill="#fff"/><g fill="#7ed09e"><path id="Shape" d="m22.25 34.55v.01c-1.1200063 2.3244947-1.7562005 4.8522609-1.87 7.43-.0208481.6164054-.4960188 1.1215418-1.11 1.18-3.3019064.353459-6.4551181 1.5596055-9.15 3.5-2.70006157-3.4381282-2.40469499-8.3517284.6877814-11.4416553 3.0924763-3.0899269 8.0063184-3.3812409 11.4422186-.6783447z"/><path id="Shape" d="m46.67 10.12c-1.9403945 2.6948819-3.146541 5.8480936-3.5 9.15-.0584582.6139812-.5635946 1.0891519-1.18 1.11-2.5777391.1137995-5.1055053.7499937-7.43 1.87h-.01c-2.7028962-3.4359002-2.4115822-8.3497423.6783447-11.4422186 3.0899269-3.09247639 8.0035271-3.38784297 11.4416553-.6877814z"/><path id="Shape" d="m33.74 22.66c-4.7057511 2.5190868-8.5609132 6.3742489-11.08 11.08-1.1769713-.425104-2.2456911-1.1045777-3.13-1.99-3.3400356-3.3803057-3.3237278-8.8232659.0365031-12.1834969 3.360231-3.3602309 8.8031912-3.3765387 12.1834969-.0365031.8854223.8843089 1.564896 1.9530287 1.99 3.13z"/></g><circle id="Oval" cx="55" cy="12" fill="#fff" r="1"/><path id="Shape" d="m22.25 34.55v.01c-1.1200063 2.3244947-1.7562005 4.8522609-1.87 7.43-.0208481.6164054-.4960188 1.1215418-1.11 1.18-3.3019064.353459-6.4551181 1.5596055-9.15 3.5-.42010556-.5238667-.77285774-1.0983488-1.05-1.71 2.7697323-1.9678779 5.9740208-3.2372427 9.34-3.7.1982108-2.4648848.8206949-4.8770105 1.84-7.13v-.03l.2-.42.09-.18c.6076223.2846733 1.1812396.6368945 1.71 1.05z" fill="#71c285"/><path id="Shape" d="m46.67 10.12c-1.9403945 2.6948819-3.146541 5.8480936-3.5 9.15-.0584582.6139812-.5635946 1.0891519-1.18 1.11-2.5777391.1137995-5.1055053.7499937-7.43 1.87h-.01c-.4131055-.5287604-.7653267-1.1023777-1.05-1.71l.18-.09.41-.2h.04c2.2542794-1.0156389 4.6657605-1.6379565 7.13-1.84.4611698-3.3680678 1.734413-6.5734833 3.71-9.34.605687.28248433 1.1762343.63488115 1.7 1.05z" fill="#71c285"/><path id="Shape" d="m33.74 22.66c-4.7057511 2.5190868-8.5609132 6.3742489-11.08 11.08-.6292353-.2229829-1.2274096-.5254306-1.78-.9 0-.01.01-.01.01-.02 1.3298976-2.5316765 3.0435014-4.8423429 5.08-6.85 2.0100666-2.0364488 4.3201839-3.7530177 6.85-5.09.01 0 .01-.01.02-.01.3727514.5572209.6750525 1.1584643.9 1.79z" fill="#71c285"/></g></g></svg>