<svg id="Layer_1" enable-background="new 0 0 512 512" height="512" viewBox="0 0 512 512" width="512" xmlns="http://www.w3.org/2000/svg"><g clip-rule="evenodd" fill-rule="evenodd"><g><path d="m377.129 73.48v418.52c0 5.508-4.492 10-10 10h-326.302c-5.508 0-10-4.492-10-10v-418.52c0-5.508 4.492-10 10-10h326.302c5.508 0 10 4.492 10 10z" fill="#ccc"/><path d="m94.308 10h260.855c2.754 0 5.124.982 7.071 2.929l65.447 65.447c1.947 1.947 2.929 4.317 2.929 7.071v353.073c0 5.508-4.492 10-10 10h-326.302c-5.508 0-10-4.492-10-10v-418.52c0-5.508 4.492-10 10-10z" fill="#e6e6e6"/><path d="m359.305 81.304h17.824 52.614c-.485-1.062-1.173-2.04-2.062-2.929l-65.447-65.447c-.889-.889-1.867-1.577-2.929-2.062v52.614z" fill="#ccc"/></g><g><path d="m304.92 223.141c-5.523 0-10-4.477-10-10s4.477-10 10-10h60.094c5.523 0 10 4.477 10 10s-4.477 10-10 10zm-155.017 107.668c-5.523 0-10-4.477-10-10s4.477-10 10-10h215.11c5.523 0 10 4.477 10 10s-4.477 10-10 10zm0 53.835c-5.523 0-10-4.477-10-10s4.477-10 10-10h215.11c5.523 0 10 4.477 10 10s-4.477 10-10 10zm129.85-107.669c-5.523 0-10-4.477-10-10s4.477-10 10-10h85.26c5.523 0 10 4.477 10 10s-4.477 10-10 10z" fill="#515151"/><path d="m153.875 319.482 49.446-28.547 91.854-159.095c8.517-14.752 3.462-33.614-11.289-42.13-14.751-8.517-33.613-3.463-42.13 11.289l-91.854 159.095v57.095c0 .973.482 1.808 1.324 2.294.842.485 1.807.485 2.649-.001z" fill="#ccc"/><path d="m231.086 119.478 53.419 30.841 10.67-18.48c8.517-14.752 3.462-33.614-11.289-42.13-14.751-8.517-33.613-3.463-42.13 11.289z" fill="#ffd54f"/><path d="m136.019 174.365h162.368v61.683h-162.368z" fill="#ffc107" transform="matrix(.5 -.866 .866 .5 -69.113 290.706)"/></g><g><circle cx="377.129" cy="397.956" fill="#ffd54f" r="104.043"/><ellipse cx="377.129" cy="397.956" fill="#ffc107" rx="83.176" ry="83.176" transform="matrix(.707 -.707 .707 .707 -170.939 383.229)"/><path d="m387.288 456.711.131 5.425c.129 5.501-4.225 10.066-9.727 10.195-5.501.129-10.066-4.225-10.195-9.727l-.137-5.696c-2.709-.656-5.205-1.602-7.601-2.814-4.678-2.366-8.514-5.543-12.695-9.488-4.013-3.775-4.205-10.089-.43-14.102s10.089-4.205 14.102-.43c2.94 2.774 5.475 4.926 8.008 6.207 2.201 1.113 4.809 1.715 8.386 1.715 5.164 0 9.751-1.79 12.991-4.684 2.948-2.633 4.772-6.211 4.772-10.109s-1.824-7.476-4.772-10.109c-3.24-2.893-7.827-4.683-12.991-4.683-10.169 0-19.465-3.76-26.273-9.84-7.1-6.34-11.491-15.159-11.491-24.953s4.391-18.613 11.491-24.953c4.448-3.972 9.978-6.95 16.134-8.529l-.152-6.36c-.129-5.501 4.225-10.066 9.727-10.195 5.501-.129 10.066 4.225 10.195 9.727l.168 7.037c2.943.793 5.95 1.876 8.748 3.178 5.889 2.739 11.361 6.661 14.404 11.291 3.02 4.595 1.744 10.769-2.851 13.789s-10.769 1.744-13.789-2.851c-.832-1.266-3.234-2.76-6.122-4.103-3.768-1.752-7.691-2.861-10.188-2.861-5.135 0-9.724 1.805-12.991 4.723-2.949 2.633-4.773 6.211-4.773 10.109s1.824 7.476 4.773 10.109c3.24 2.894 7.827 4.684 12.991 4.684 10.169 0 19.465 3.761 26.273 9.84 7.099 6.34 11.491 15.159 11.491 24.953s-4.392 18.613-11.491 24.953c-4.458 3.979-9.98 6.964-16.116 8.552z" fill="#f2f2f2"/></g></g></svg>