<svg height="512" viewBox="0 0 48 48" width="512" xmlns="http://www.w3.org/2000/svg"><g id="pencil_case" data-name="pencil case"><path d="m47 26c0 15.22.06 14.24-.13 14.87a3 3 0 0 1 -2.87 2.13h-40a3 3 0 0 1 -3-3v-14a3 3 0 0 1 3-3h40a3 3 0 0 1 3 3z" fill="#dad7e5"/><path d="m47 26c0 15.22.06 14.24-.13 14.87-.68.2-40 .13-39.87.13a4 4 0 0 1 -4-4c0-14.13 0-13.25.13-13.87.68-.2 41-.13 40.87-.13a3 3 0 0 1 3 3z" fill="#edebf2"/><path d="m37 35v4h-24.54a4 4 0 0 0 0-4z" fill="#fc6"/><path d="m37 35v2h-20.57a2 2 0 0 1 -2-2z" fill="#ffde76"/><path d="m41 36v2a1 1 0 0 1 -1 1h-3v-4h3a1 1 0 0 1 1 1z" fill="#db5669"/><path d="m41 36v1h-1a2 2 0 0 1 -2-2h2a1 1 0 0 1 1 1z" fill="#f26674"/><path d="m12.46 39c-.64 0 .24.28-5.46-2 5.74-2.3 4.82-2 5.46-2a4 4 0 0 1 0 4z" fill="#f6ccaf"/><path d="m13 37c-1.33 0-.5.2-3.5-1 2.9-1.16 2.35-1 3-1a4 4 0 0 1 .5 2z" fill="#ffdec7"/><path d="m37 27v4h-24.54a4 4 0 0 0 0-4z" fill="#fc6"/><path d="m37 27v2h-20.57a2 2 0 0 1 -2-2z" fill="#ffde76"/><path d="m41 28v2a1 1 0 0 1 -1 1h-3v-4h3a1 1 0 0 1 1 1z" fill="#db5669"/><path d="m41 28v1h-1a2 2 0 0 1 -2-2h2a1 1 0 0 1 1 1z" fill="#f26674"/><path d="m47 9v1h-46v-1a4 4 0 0 1 2.36-3.64c1.12-.51-1.91-.36 39.64-.36a4 4 0 0 1 4 4z" fill="#c6c3d8"/><path d="m46.87 8h-42.87c-1.24 0-1.15-1.52-.64-2.64 1.12-.51-1.91-.36 39.64-.36a4 4 0 0 1 3.87 3z" fill="#dad7e5"/><path d="m47 10c0 10.78.06 10.25-.13 10.87a3 3 0 0 1 -2.87 2.13h-40a3 3 0 0 1 -3-3v-10z" fill="#dad7e5"/><path d="m47 10c0 10.78.06 10.25-.13 10.87-.6.19 1.92.13-40.87.13a3 3 0 0 1 -3-3v-8z" fill="#edebf2"/><path d="m12.46 31c-.64 0 .24.28-5.46-2 5.74-2.3 4.82-2 5.46-2a4 4 0 0 1 0 4z" fill="#f6ccaf"/><path d="m13 29c-1.33 0-.5.2-3.5-1 2.9-1.16 2.35-1 3-1a4 4 0 0 1 .5 2z" fill="#ffdec7"/></g></svg>