<?xml version="1.0" encoding="iso-8859-1"?>
<!-- Generator: Adobe Illustrator 19.0.0, SVG Export Plug-In . SVG Version: 6.00 Build 0)  -->
<svg version="1.1" id="Capa_1" xmlns="http://www.w3.org/2000/svg" xmlns:xlink="http://www.w3.org/1999/xlink" x="0px" y="0px"
	 viewBox="0 0 468.508 468.508" style="enable-background:new 0 0 468.508 468.508;" xml:space="preserve">
<path style="fill:#E1E6E9;" d="M135.073,422.088l-9.99,9.99l-68.059,20.605L8.947,467.668c-4.371,1.249-9.366-3.122-8.117-8.117
	l14.985-48.702L36.42,342.79l9.99-9.99L135.073,422.088z"/>
<path style="fill:#FCD462;" d="M407.932,149.229L125.083,432.078c0,0-4.995-20.605-26.849-26.849c0,0,0,0,0-0.624
	c0-3.122-0.624-14.361-9.99-23.727c-9.99-9.99-22.478-9.99-24.351-9.99l0,0l0,0c-6.244-22.478-26.849-26.849-26.849-26.849
	L319.893,60.566L407.932,149.229z"/>
<path style="fill:#27A2DB;" d="M414.8,142.361l-89.288-88.663l49.951-49.951c4.995-4.995,12.488-4.995,17.483,0l71.18,71.18
	c4.995,4.995,4.995,12.488,0,17.483L414.8,142.361z"/>
<path style="fill:#64798A;" d="M57.025,453.307L8.947,468.293c-4.371,1.249-9.366-3.122-8.117-8.117l14.985-48.702
	c8.117,3.746,16.859,9.99,24.351,16.859C47.034,435.824,53.278,443.941,57.025,453.307z"/>
<path style="fill:#F6C358;" d="M342.371,92.41L63.893,370.888c1.873,0,13.737,0,24.351,9.99c9.366,9.366,9.99,20.605,9.99,23.727
	l278.478-278.478L342.371,92.41z"/>
<rect x="354.856" y="35.377" transform="matrix(-0.7071 0.7071 -0.7071 -0.7071 701.8115 -94.4441)" style="fill:#E1E6E9;" width="31.219" height="125.501"/>
<g>
</g>
<g>
</g>
<g>
</g>
<g>
</g>
<g>
</g>
<g>
</g>
<g>
</g>
<g>
</g>
<g>
</g>
<g>
</g>
<g>
</g>
<g>
</g>
<g>
</g>
<g>
</g>
<g>
</g>
</svg>
