<?xml version="1.0" encoding="iso-8859-1"?>
<!-- Generator: Adobe Illustrator 19.0.0, SVG Export Plug-In . SVG Version: 6.00 Build 0)  -->
<svg version="1.1" id="Capa_1" xmlns="http://www.w3.org/2000/svg" xmlns:xlink="http://www.w3.org/1999/xlink" x="0px" y="0px"
	 viewBox="0 0 512 512" style="enable-background:new 0 0 512 512;" xml:space="preserve">
<path id="SVGCleanerId_0" style="fill:#A8EEFC;" d="M439.881,84.967H175.144H56.263H0.509v276.355c-0.003,0.133-0.003,0.266,0,0.398
	c0.38,14.047,6.135,27.192,16.205,37.013c10.091,9.843,23.413,15.263,37.512,15.263H439.88c4.156,0,7.523-3.368,7.523-7.523V92.49
	C447.404,88.335,444.036,84.967,439.881,84.967z"/>
<g>
	<path id="SVGCleanerId_0_1_" style="fill:#A8EEFC;" d="M439.881,84.967H175.144H56.263H0.509v276.355
		c-0.003,0.133-0.003,0.266,0,0.398c0.38,14.047,6.135,27.192,16.205,37.013c10.091,9.843,23.413,15.263,37.512,15.263H439.88
		c4.156,0,7.523-3.368,7.523-7.523V92.49C447.404,88.335,444.036,84.967,439.881,84.967z"/>
</g>
<path style="fill:#7EE5F2;" d="M439.881,379.806H54.226c-14.099,0-27.421-5.421-37.512-15.263
	C6.645,354.721,0.89,341.577,0.51,327.53c-0.004-0.132-0.004-0.266,0-0.399v34.193c-0.003,0.133-0.003,0.266,0,0.398
	c0.38,14.047,6.135,27.192,16.205,37.013c10.091,9.843,23.413,15.263,37.512,15.263h385.655c4.156,0,7.523-3.368,7.523-7.523
	v-34.192C447.404,376.438,444.036,379.806,439.881,379.806z"/>
<path style="fill:#4CE166;" d="M131.874,87.587c-1.428-1.763-3.576-2.788-5.846-2.788H55.789c-4.155,0-7.523,3.368-7.523,7.523
	v73.508c0,2.024,0.816,3.963,2.263,5.378c1.407,1.376,3.296,2.145,5.26,2.145c0.055,0,0.11-0.001,0.167-0.002
	c25.196-0.558,46.646-14.709,62.031-40.923c11.186-19.058,15.235-37.759,15.401-38.545C133.858,91.663,133.302,89.35,131.874,87.587
	z"/>
<path style="fill:#546F7A;" d="M0.032,359.489c0-30.012,24.33-54.342,54.342-54.342c3.045,0,6.028,0.263,8.937,0.744V15.739
	c0-4.155-3.368-7.523-7.523-7.523C25.027,8.215,0,33.243,0,64.005v298.615c0,0.7,0.103,1.374,0.282,2.017
	C0.122,362.941,0.032,361.226,0.032,359.489z"/>
<g>
	<path style="fill:#4CE166;" d="M443.681,87.645c-1.427-1.799-3.597-2.846-5.892-2.846H272.147c-1.393,0-2.759,0.387-3.946,1.117
		c-10.649,6.559-17.746,11.455-21.699,14.968c-3.671,3.263-5.541,7.682-5.265,12.442c0.331,5.728,3.866,11.431,8.048,16.255
		c-17.823,1.891-44.53,6.703-60.603,18.913c-11.952,9.08-16.289,17.414-12.892,24.77c5.011,10.853,23.692,11.641,64.476,2.717
		c17.993-3.936,29.974-2.783,36.86-1.121c7.999,1.929,12.257,5.233,13.574,7.682c0.626,1.163,0.355,1.426-0.094,1.864
		c-4.645,4.524-24.934,7.974-59.793,5.484c-16.236-1.159-22.847,6.243-31.201,15.616c-3.362,3.773-7.173,8.049-12.458,12.982
		c-12.939,12.076-11.943,22.708-10.197,27.971c4.061,12.246,19.123,20.413,42.412,22.997c30.509,3.384,35.347,20.81,36.333,33.623
		c0.633,8.229-1.754,12.439-5.06,18.266c-2.075,3.657-4.427,7.804-6.042,13.187c-2.46,8.198-2.474,18.286-0.039,26.984
		c3.088,11.031,9.938,19.483,19.288,23.798c3.203,1.479,6.451,2.124,9.687,2.123c16.847-0.001,33.33-17.478,41.084-25.7
		c0.76-0.807,1.415-1.503,1.95-2.049c5.045-5.147,6.688-15.206,8.792-31.16c0.868-6.579,1.852-14.035,3.007-16.731
		c1.885-4.397,15.634-17.183,27.292-26.506c1.691-1.353,2.718-3.37,2.817-5.535c0.099-2.165-0.741-4.266-2.303-5.768
		c-0.119-0.113-11.981-11.543-22.407-24.56c-17.115-21.368-14.95-27.551-14.918-27.601c2.836-4.254,4.936-4.462,5.625-4.53
		c7.997-0.81,24.293,15.515,29.651,20.873c2.108,2.106,6.797,5.357,14.554,3.459c15.612-3.821,36.856-27.989,43.887-49.864
		c14.172-34.14,26.032-69.749,32.55-97.74C445.635,91.793,445.108,89.443,443.681,87.645z"/>
	<path style="fill:#4CE166;" d="M168.156,176.627c-2.309-5.391-5.889-9.048-10.642-10.87c-9.563-3.667-20.536,1.409-31.147,6.32
		c-2.229,1.032-4.334,2.006-6.411,2.896c-18.725,8.023-31.385,39.71-23.354,58.457c2.303,5.375,5.933,9.07,10.79,10.978
		c2.532,0.995,5.171,1.421,7.888,1.421c8.344,0,17.41-4.019,26.248-7.938c1.531-0.679,3.046-1.351,4.529-1.986
		C164.435,228.031,176.412,195.9,168.156,176.627z"/>
	<path style="fill:#4CE166;" d="M259.316,403.729c-0.195-0.537-4.92-13.269-16.228-25.552
		c-15.227-16.539-35.139-24.514-57.589-23.066c-23.24,1.503-28.338-2.993-33.736-7.75c-7.137-6.29-14.069-10.989-32.62-9.561
		c-40.088,3.082-70.808,62.564-72.097,65.095c-1.187,2.332-1.077,5.114,0.291,7.345c1.368,2.231,3.797,3.591,6.414,3.591h198.498
		c2.456,0,4.757-1.199,6.164-3.211C259.821,408.608,260.158,406.035,259.316,403.729z"/>
</g>
<path style="fill:#44C868;" d="M244.397,379.638H61.538c-8.709,12.042-13.974,22.24-14.49,23.256
	c-1.187,2.332-1.077,5.114,0.291,7.345c1.368,2.231,3.797,3.591,6.414,3.591H252.25c2.456,0,4.757-1.199,6.164-3.211
	c1.407-2.012,1.744-4.584,0.903-6.891C259.129,403.214,254.76,391.45,244.397,379.638z"/>
<path style="fill:#475D63;" d="M442.619,402.891l-20.875-20.875c-1.533-1.534-3.652-2.338-5.818-2.187
	c-2.164,0.143-4.16,1.214-5.478,2.936c-2.796,3.655-5.853,7.149-9.088,10.384c-3.232,3.233-6.726,6.29-10.385,9.088
	c-1.722,1.317-2.793,3.314-2.936,5.478c-0.144,2.164,0.653,4.284,2.188,5.817l20.877,20.875c1.468,1.47,3.394,2.204,5.319,2.204
	c1.925,0,3.851-0.734,5.32-2.204l20.877-20.877C445.557,410.591,445.557,405.828,442.619,402.891z"/>
<path style="fill:#546F7A;" d="M412.028,236.616c-46.09-46.089-121.082-46.089-167.173,0
	c-22.326,22.326-34.623,52.011-34.623,83.586s12.296,61.259,34.623,83.585c22.326,22.326,52.011,34.623,83.586,34.623
	s61.259-12.296,83.586-34.623c22.326-22.326,34.622-52.01,34.622-83.585C446.651,288.626,434.355,258.942,412.028,236.616z"/>
<path style="fill:#475D63;" d="M350.849,416.003c-31.575,0-61.259-12.296-83.586-34.623c-22.326-22.326-34.623-52.011-34.623-83.585
	c0-26.216,8.484-51.126,24.142-71.606c-4.148,3.167-8.136,6.637-11.926,10.427c-22.326,22.326-34.623,52.011-34.623,83.586
	s12.296,61.259,34.623,83.585c22.326,22.326,52.011,34.623,83.586,34.623s61.259-12.296,83.586-34.623
	c3.78-3.78,7.264-7.774,10.458-11.949C402,407.51,377.078,416.003,350.849,416.003z"/>
<path style="fill:#A8EEFC;" d="M328.751,232.605c-48.091,0-87.217,39.125-87.217,87.217c0,48.091,39.125,87.216,87.217,87.216
	s87.216-39.125,87.216-87.216C415.967,271.729,376.843,232.605,328.751,232.605z"/>
<g>
	<path style="fill:#C2F8FF;" d="M268.562,382.883c9.167,8.754,20.234,15.532,32.511,19.65l110.21-110.923
		c-4.124-12.031-10.806-22.885-19.398-31.905L268.562,382.883z"/>
	<path style="fill:#C2F8FF;" d="M252.564,362.233c2.495,4.464,5.368,8.687,8.58,12.626l122.857-122.471
		c-3.977-3.264-8.248-6.181-12.764-8.711L252.564,362.233z"/>
</g>
<path style="fill:#FF4A4A;" d="M503.296,452.988L447.908,397.6c-2.939-2.938-7.702-2.938-10.64,0l-31.455,31.455
	c-2.938,2.938-2.938,7.702,0,10.639l55.389,55.388c5.803,5.802,13.425,8.703,21.047,8.703c7.621,0,15.244-2.901,21.047-8.703h0.001
	C514.902,483.478,514.902,464.594,503.296,452.988z"/>
<path style="fill:#E7343F;" d="M501.126,480.693c-7.622,0-15.244-2.901-21.047-8.703l-58.606-58.592l-15.659,15.507
	c-2.938,2.938-2.938,7.702,0,10.639l55.389,55.388c5.803,5.802,13.425,8.703,21.047,8.703c7.621,0,15.244-2.901,21.047-8.703h0.001
	c4.551-4.551,7.308-10.222,8.29-16.133C508.221,480.055,504.675,480.693,501.126,480.693z"/>
<path style="fill:#475D63;" d="M34.606,308.871V12.404C14.321,20.763,0,40.739,0,64.005v298.615c0,0.7,0.103,1.374,0.282,2.017
	c-0.159-1.695-0.25-3.41-0.25-5.148C0.032,336.454,14.372,316.781,34.606,308.871z"/>
<g>
</g>
<g>
</g>
<g>
</g>
<g>
</g>
<g>
</g>
<g>
</g>
<g>
</g>
<g>
</g>
<g>
</g>
<g>
</g>
<g>
</g>
<g>
</g>
<g>
</g>
<g>
</g>
<g>
</g>
</svg>
