<svg id="Capa_1" enable-background="new 0 0 512 512" height="512" viewBox="0 0 512 512" width="512" xmlns="http://www.w3.org/2000/svg"><g><g><g><path d="m228.433 55.434c.598.108 1.211.173 1.84.173l25.727 9 25.727-9c.629 0 1.242-.065 1.84-.173v-18.407l-27.567-9-27.567 9z" fill="#75d5f2"/><path d="m283.567 69.693v-14.085h-55.134v14.085c-17.146 17.863-26.721 41.664-26.721 66.425v7.882l54.288 9 54.288-9v-7.882c0-24.76-9.575-48.562-26.721-66.425z" fill="#92e0ff"/><path d="m220.021 9.223c0 8.689 4.925 18.223 10.252 18.223h51.453c5.327 0 10.252-10.092 10.252-18.223.037.357.058.718.058 1.085 0-5.693-4.616-10.308-10.309-10.308h-51.453c-5.693 0-10.309 4.615-10.31 10.308-.001-.366.02-.728.057-1.085z" fill="#407093"/><path d="m310.288 195.305 9-27.858-9-23.447h-108.576l-9 23.447 9 27.858 54.288 9z" fill="#d8e5ef"/><path d="m201.712 213.532 54.288 9 54.288-9 9-9.227-9-9h-108.576l-9 9z" fill="#c8d4db"/><path d="m281.727 18.447h-51.453c-5.327 0-9.709-4.04-10.252-9.223-.037.357-.058.72-.058 1.087v16.407c0 5.694 4.616 10.31 10.31 10.31h51.453c5.694 0 10.31-4.616 10.31-10.31v-16.408c0-.367-.021-.729-.058-1.087-.543 5.183-4.925 9.224-10.252 9.224z" fill="#365e7d"/><path d="m337.008 55.434c.598.108 1.211.173 1.84.173l25.727 9 25.727-9c.629 0 1.242-.065 1.84-.173v-18.407l-27.567-9-27.567 9z" fill="#75d5f2"/><path d="m392.142 69.693v-14.085h-55.134v14.085c-17.146 17.863-26.721 41.664-26.721 66.425v7.882l54.288 9 54.288-9v-7.882c0-24.76-9.575-48.562-26.721-66.425z" fill="#92e0ff"/><path d="m328.596 9.223c0 8.689 4.925 18.223 10.252 18.223h51.453c5.327 0 10.252-10.092 10.252-18.223.037.357.058.718.058 1.085 0-5.693-4.616-10.308-10.309-10.308h-51.453c-5.693 0-10.309 4.615-10.31 10.308-.001-.366.02-.728.057-1.085z" fill="#407093"/><path d="m418.863 195.305v-51.305h-108.575v51.305l54.287 9z" fill="#edf4fa"/><path d="m310.288 213.532 54.287 9 54.288-9v-18.227h-108.575z" fill="#d8e5ef"/><path d="m390.302 18.447h-51.453c-5.327 0-9.709-4.04-10.252-9.223-.037.357-.058.72-.058 1.087v16.407c0 5.694 4.616 10.31 10.31 10.31h51.453c5.694 0 10.31-4.616 10.31-10.31v-16.408c0-.367-.021-.729-.058-1.087-.543 5.183-4.925 9.224-10.252 9.224z" fill="#365e7d"/><path d="m119.858 55.434c.598.108 1.211.173 1.84.173l25.727 9 25.727-9c.629 0 1.242-.065 1.84-.173v-18.407l-27.567-9-27.567 9z" fill="#75d5f2"/><path d="m174.992 69.693v-14.085h-55.134v14.085c-17.146 17.863-26.721 41.664-26.721 66.425v7.882l54.288 9 54.288-9v-7.882c-.001-24.76-9.575-48.562-26.721-66.425z" fill="#92e0ff"/><path d="m111.446 9.223c0 8.689 4.925 18.223 10.252 18.223h51.453c5.327 0 10.252-10.092 10.252-18.223.037.357.058.718.058 1.085 0-5.693-4.616-10.308-10.31-10.308h-51.453c-5.693 0-10.309 4.615-10.31 10.308 0-.366.021-.728.058-1.085z" fill="#407093"/><path d="m201.712 195.305v-51.305h-108.575v51.305l54.288 9z" fill="#edf4fa"/><path d="m93.137 213.532 54.288 9 54.287-9v-18.227h-108.575z" fill="#d8e5ef"/><path d="m173.151 18.447h-51.453c-5.327 0-9.709-4.04-10.252-9.223-.037.357-.058.72-.058 1.087v16.407c0 5.694 4.616 10.31 10.31 10.31h51.453c5.694 0 10.31-4.616 10.31-10.31v-16.408c0-.367-.021-.729-.058-1.087-.543 5.183-4.925 9.224-10.252 9.224z" fill="#365e7d"/></g><g><path d="m72.957 496.516c0 8.551 6.932 15.484 15.484 15.484h335.118c8.551 0 15.484-6.932 15.484-15.484v-153.679l-183.043-9-183.043 9z" fill="#e4936b"/><path d="m72.957 324.256v18.581h366.086v-18.581l-183.043-9z" fill="#db835d"/><path d="m40.955 305.675-4.073 11.726c-1.165 3.354 1.326 6.855 4.876 6.855h428.484c3.55 0 6.04-3.501 4.876-6.855l-4.073-11.726-215.045-9z" fill="#f9c6aa"/><path d="m471.045 305.675-30.798-88.675c-.721-2.076-2.678-3.468-4.876-3.468h-358.743c-2.198 0-4.154 1.392-4.876 3.468l-30.798 88.676h430.091z" fill="#ffd6bd"/></g></g><g fill="#edf4fa"><path d="m341.59 434.557h52.764c4.285 0 7.757-3.473 7.757-7.757s-3.473-7.757-7.757-7.757h-52.764c-4.285 0-7.757 3.472-7.757 7.757s3.472 7.757 7.757 7.757z"/><path d="m341.59 468.873h52.764c4.285 0 7.757-3.473 7.757-7.757 0-4.285-3.473-7.757-7.757-7.757h-52.764c-4.285 0-7.757 3.472-7.757 7.757s3.472 7.757 7.757 7.757z"/></g></g></svg>