<svg id="Layer_1" enable-background="new 0 0 512 512" height="512" viewBox="0 0 512 512" width="512" xmlns="http://www.w3.org/2000/svg"><g><path d="m235.916 0c-8.284 0-15 6.716-15 15v80.334c0 8.284 6.716 15 15 15s15-6.716 15-15v-80.334c0-8.284-6.716-15-15-15z" fill="#ca6d36"/><path d="m235.916 0v110.334c8.284 0 15-6.716 15-15v-80.334c0-8.284-6.716-15-15-15z" fill="#b24d00"/><g><path d="m428.237 198.107c-14.875-29.119-36.591-54.919-62.8-74.608-6.625-4.974-16.026-3.639-21.003 2.983-.813 1.082-1.44 2.243-1.921 3.442l-69.106-27.653c.479-1.203.826-2.479.983-3.826.962-8.229-4.929-15.679-13.156-16.641-8.347-.975-16.865-1.471-25.318-1.471-57.651 0-111.852 22.45-152.617 63.216s-63.215 94.966-63.215 152.616c0 57.651 22.45 111.853 63.215 152.618 40.765 40.767 94.966 63.217 152.617 63.217s111.853-22.45 152.618-63.216 63.216-94.967 63.216-152.618c0-34.523-7.911-67.515-23.513-98.059z" fill="#ff9f00"/><path d="m428.237 198.107c-14.875-29.119-36.591-54.919-62.8-74.608-6.625-4.974-16.026-3.639-21.003 2.983-.813 1.082-1.44 2.243-1.921 3.442l-69.106-27.653c.479-1.203.826-2.479.983-3.826.962-8.229-4.929-15.679-13.156-16.641-8.347-.975-16.865-1.471-25.318-1.471v431.667c57.651 0 111.853-22.45 152.618-63.216s63.216-94.967 63.216-152.618c0-34.523-7.911-67.515-23.513-98.059z" fill="#ff641a"/><g><g><g><path d="m284.115 383.465c-3.94 0-7.811-1.6-10.61-4.39-2.79-2.79-4.39-6.66-4.39-10.61s1.6-7.811 4.39-10.61c2.79-2.79 6.66-4.39 10.61-4.39s7.82 1.6 10.61 4.39c2.79 2.8 4.39 6.66 4.39 10.61s-1.6 7.82-4.39 10.61c-2.8 2.79-6.66 4.39-10.61 4.39z" fill="#b24d00"/></g><g><path d="m348.385 383.465c-3.949 0-7.81-1.6-10.609-4.39-2.79-2.79-4.391-6.66-4.391-10.61s1.601-7.811 4.391-10.61c2.79-2.79 6.66-4.39 10.609-4.39 3.95 0 7.811 1.6 10.601 4.39 2.8 2.8 4.399 6.66 4.399 10.61s-1.6 7.82-4.399 10.61c-2.791 2.79-6.661 4.39-10.601 4.39z" fill="#b24d00"/></g><g><g><path d="m316.245 327.805c-3.95 0-7.81-1.6-10.6-4.39s-4.391-6.65-4.391-10.601c0-3.949 1.601-7.819 4.391-10.609s6.649-4.391 10.6-4.391 7.82 1.601 10.61 4.391 4.39 6.66 4.39 10.609c0 3.94-1.6 7.811-4.39 10.601s-6.66 4.39-10.61 4.39z" fill="#b24d00"/></g></g></g></g></g><path d="m488.09 65.243c-2.385-2.664-59.257-65.239-131.672-65.243-72.421 0-129.291 62.58-131.677 65.243-5.101 5.696-5.101 14.317.001 20.014 2.385 2.664 59.253 65.234 131.671 65.241h.004c72.415 0 129.288-62.578 131.674-65.241 5.1-5.696 5.1-14.318-.001-20.014z" fill="#54e360"/><path d="m488.09 65.243c-2.385-2.664-59.257-65.239-131.672-65.243-.001 0-.001 0-.002 0v150.498h.001c72.415 0 129.288-62.578 131.674-65.241 5.1-5.696 5.1-14.318-.001-20.014z" fill="#1fbf66"/></g></svg>