<svg height="511pt" viewBox="0 -55 511.99956 511" width="511pt" xmlns="http://www.w3.org/2000/svg"><path d="m5.015625 237.601562 491.199219-235.984374c8.722656-4.191407 18.210937 4.109374 15.222656 13.3125l-122.4375 376.675781c-1.746094 5.371093-8.015625 7.75-12.886719 4.890625l-163.136719-95.863282-60.417968-17.945312-145.410156-28.441406c-8.351563-1.632813-9.800782-12.960938-2.132813-16.644532zm0 0" fill="#ffdc45"/><path d="m496.214844 1.617188-26.648438 12.800781c-.046875.171875-.089844.339843-.144531.507812l-119.101563 366.410157 25.792969 15.160156c4.871094 2.859375 11.140625.484375 12.886719-4.890625l122.4375-376.675781c2.988281-9.203126-6.5-17.503907-15.222656-13.3125zm0 0" fill="#d6b93a"/><path d="m290.398438 346.125-82.101563 55.941406 4.679687-101.433594zm0 0" fill="#d1972c"/><path d="m212.976562 300.632812-4.675781 101.433594-55.742187-119.378906 260.949218-190.96875c3.625-2.652344 7.886719 2.34375 4.699219 5.507812zm0 0" fill="#feb836"/></svg>