<svg id="Capa_1" enable-background="new 0 0 512 512" height="512" viewBox="0 0 512 512" width="512" xmlns="http://www.w3.org/2000/svg"><g><path d="m487.261 434.212h-277.375c-9.422 0-17.059-7.638-17.059-17.059v-352.914c0-9.422 7.638-17.059 17.059-17.059h277.375c9.422 0 17.059 7.638 17.059 17.059v352.913c.001 9.422-7.637 17.06-17.059 17.06z" fill="#9dc6fb"/><path d="m224.924 396.175v-310.958c0-2.238 1.814-4.052 4.052-4.052h239.197c2.238 0 4.052 1.814 4.052 4.052v310.957c0 2.238-1.814 4.052-4.052 4.052h-239.198c-2.238 0-4.051-1.814-4.051-4.051z" fill="#dff6fd"/><path d="m426.423 26.647h-38.535v-7.997c0-10.3-8.35-18.65-18.65-18.65h-41.33c-10.3 0-18.65 8.35-18.65 18.65v7.997h-38.535c-4.343 0-7.863 3.52-7.863 7.863v51.987c0 4.343 3.52 7.863 7.863 7.863h155.7c4.343 0 7.863-3.52 7.863-7.863v-51.987c0-4.343-3.52-7.863-7.863-7.863z" fill="#ffd064"/><g><g><path d="m434.078 182.748h-171.01c-4.268 0-7.726-3.459-7.726-7.726 0-4.268 3.459-7.726 7.726-7.726h171.01c4.268 0 7.726 3.459 7.726 7.726.001 4.268-3.458 7.726-7.726 7.726z" fill="#b3e59f"/></g><g><path d="m434.078 248.423h-171.01c-4.268 0-7.726-3.459-7.726-7.726 0-4.268 3.459-7.726 7.726-7.726h171.01c4.268 0 7.726 3.459 7.726 7.726.001 4.267-3.458 7.726-7.726 7.726z" fill="#b3e59f"/></g><g><path d="m434.078 314.097h-171.01c-4.268 0-7.726-3.459-7.726-7.726 0-4.268 3.459-7.726 7.726-7.726h171.01c4.268 0 7.726 3.459 7.726 7.726.001 4.267-3.458 7.726-7.726 7.726z" fill="#b3e59f"/></g></g><path d="m468.172 81.165h-22.193c2.238 0 4.052 1.814 4.052 4.052v310.957c0 2.238-1.814 4.052-4.052 4.052h22.193c2.238 0 4.052-1.814 4.052-4.052v-310.957c-.001-2.238-1.815-4.052-4.052-4.052z" fill="#c8effe"/><g fill="#ecbe6b"><path d="m426.423 26.647h-23.362c4.343 0 7.863 3.52 7.863 7.863v51.987c0 4.343-3.52 7.863-7.863 7.863h23.362c4.343 0 7.863-3.521 7.863-7.863v-51.987c0-4.343-3.52-7.863-7.863-7.863z"/><path d="m364.527 18.65v7.997h23.362v-7.997c0-10.3-8.35-18.65-18.65-18.65h-23.362c10.3 0 18.65 8.35 18.65 18.65z"/></g><path d="m302.114 512h-277.375c-9.422 0-17.059-7.638-17.059-17.059v-352.913c0-9.422 7.638-17.059 17.059-17.059h277.375c9.422 0 17.059 7.638 17.059 17.059v352.913c.001 9.421-7.637 17.059-17.059 17.059z" fill="#407093"/><path d="m39.777 473.963v-310.958c0-2.238 1.814-4.052 4.052-4.052h239.197c2.238 0 4.052 1.814 4.052 4.052v310.957c0 2.238-1.814 4.052-4.052 4.052h-239.198c-2.237.001-4.051-1.813-4.051-4.051z" fill="#e7ecf6"/><path d="m241.276 104.435h-38.535v-7.997c0-10.3-8.35-18.65-18.65-18.65h-41.33c-10.3 0-18.65 8.35-18.65 18.65v7.997h-38.534c-4.343 0-7.863 3.52-7.863 7.863v51.987c0 4.343 3.52 7.863 7.863 7.863h155.7c4.343 0 7.863-3.52 7.863-7.863v-51.987c0-4.342-3.521-7.863-7.864-7.863z" fill="#ecbe6b"/><g><g><path d="m248.932 260.536h-171.01c-4.267 0-7.726-3.459-7.726-7.726 0-4.268 3.459-7.726 7.726-7.726h171.01c4.267 0 7.726 3.459 7.726 7.726s-3.459 7.726-7.726 7.726z" fill="#78c2a4"/></g><g><path d="m248.932 326.21h-171.01c-4.267 0-7.726-3.459-7.726-7.726 0-4.268 3.459-7.726 7.726-7.726h171.01c4.267 0 7.726 3.459 7.726 7.726s-3.459 7.726-7.726 7.726z" fill="#78c2a4"/></g><g><path d="m248.932 391.884h-171.01c-4.267 0-7.726-3.459-7.726-7.726s3.459-7.726 7.726-7.726h171.01c4.267 0 7.726 3.459 7.726 7.726s-3.459 7.726-7.726 7.726z" fill="#78c2a4"/></g></g><path d="m302.114 124.968h-25.589c9.422 0 17.059 7.638 17.059 17.059v352.913c0 9.422-7.638 17.059-17.059 17.059h25.589c9.422 0 17.059-7.638 17.059-17.059v-352.912c.001-9.422-7.637-17.06-17.059-17.06z" fill="#365e7d"/><path d="m283.025 158.954h-22.194c2.238 0 4.052 1.814 4.052 4.052v310.957c0 2.238-1.814 4.052-4.052 4.052h22.194c2.238 0 4.052-1.814 4.052-4.052v-310.957c-.001-2.238-1.814-4.052-4.052-4.052z" fill="#d8e2f1"/><g fill="#eab14d"><path d="m179.38 96.439v7.996h23.362v-7.996c0-10.3-8.35-18.65-18.65-18.65h-23.362c10.3-.001 18.65 8.35 18.65 18.65z"/><path d="m241.276 104.435h-23.362c4.343 0 7.863 3.521 7.863 7.863v51.987c0 4.343-3.52 7.863-7.863 7.863h23.362c4.343 0 7.863-3.52 7.863-7.863v-51.987c.001-4.342-3.52-7.863-7.863-7.863z"/></g><path d="m487.261 47.18c-9.274 0-16.234 0-25.544 0 9.422 0 17.059 7.638 17.059 17.059v352.912c0 9.422-7.638 17.06-17.059 17.06h25.544c9.422 0 17.06-7.638 17.06-17.06v-352.912c0-9.421-7.638-17.059-17.06-17.059z" fill="#80b4fb"/></g></svg>