<?xml version="1.0" encoding="iso-8859-1"?>
<!-- Generator: Adobe Illustrator 19.0.0, SVG Export Plug-In . SVG Version: 6.00 Build 0)  -->
<svg version="1.1" id="Layer_1" xmlns="http://www.w3.org/2000/svg" xmlns:xlink="http://www.w3.org/1999/xlink" x="0px" y="0px"
	 viewBox="0 0 512 512" style="enable-background:new 0 0 512 512;" xml:space="preserve">
<path style="fill:#F9DE8F;" d="M414.032,281.956l-75.188-180.347c-1.418-3.401-6.237-3.401-7.654,0l-75.188,180.347l-75.188-180.347
	c-1.418-3.401-6.237-3.401-7.654,0l-75.19,180.347L26.927,111.555c-1.744-4.184-7.974-2.936-7.974,1.596v168.805v160.377
	c0,4.702,3.812,8.514,8.514,8.514h457.068c4.702,0,8.514-3.812,8.514-8.514V281.956V113.151c0-4.532-6.23-5.779-7.974-1.596
	L414.032,281.956z"/>
<g>
	<path style="fill:#F7CF6D;" d="M388.003,219.524L388.003,219.524l-49.16-117.916c-1.418-3.401-6.237-3.401-7.654,0l-22.201,53.251
		l26.958,64.664C345.591,242.655,378.36,242.655,388.003,219.524z"/>
	<path style="fill:#F7CF6D;" d="M440.991,217.291v64.664v168.891h43.543c4.702,0,8.514-3.812,8.514-8.514V281.956V113.151
		c0-4.532-6.23-5.779-7.974-1.596L440.991,217.291z"/>
	<path style="fill:#F7CF6D;" d="M229.972,219.524L229.972,219.524l-49.16-117.916c-1.418-3.401-6.237-3.401-7.654,0l-22.201,53.251
		l26.958,64.664C187.558,242.655,220.328,242.655,229.972,219.524z"/>
	<path style="fill:#F7CF6D;" d="M71.94,219.524L71.94,219.524L26.927,111.555c-1.744-4.184-7.974-2.936-7.974,1.596v104.142
		l0.931,2.233C29.527,242.655,62.297,242.655,71.94,219.524z"/>
</g>
<circle style="fill:#F9DE8F;" cx="23.009" cy="90.05" r="18.953"/>
<g>
	<circle style="fill:#F09EA0;" cx="97.973" cy="339.759" r="18.953"/>
	<circle style="fill:#F09EA0;" cx="256.002" cy="339.759" r="18.953"/>
	<circle style="fill:#F09EA0;" cx="414.03" cy="339.759" r="18.953"/>
	<path style="fill:#F09EA0;" d="M493.047,320.807c10.467,0,18.953,8.486,18.953,18.953s-8.486,18.953-18.953,18.953"/>
	<path style="fill:#F09EA0;" d="M18.953,358.712C8.486,358.712,0,350.226,0,339.759s8.486-18.953,18.953-18.953"/>
</g>
<g>
	<circle style="fill:#F9DE8F;" cx="176.981" cy="80.106" r="18.953"/>
	<circle style="fill:#F9DE8F;" cx="335.01" cy="80.106" r="18.953"/>
	<circle style="fill:#F9DE8F;" cx="488.945" cy="90.05" r="18.953"/>
</g>
<g>
</g>
<g>
</g>
<g>
</g>
<g>
</g>
<g>
</g>
<g>
</g>
<g>
</g>
<g>
</g>
<g>
</g>
<g>
</g>
<g>
</g>
<g>
</g>
<g>
</g>
<g>
</g>
<g>
</g>
</svg>
