<?xml version="1.0" encoding="iso-8859-1"?>
<!-- Generator: Adobe Illustrator 19.0.0, SVG Export Plug-In . SVG Version: 6.00 Build 0)  -->
<svg version="1.1" id="Capa_1" xmlns="http://www.w3.org/2000/svg" xmlns:xlink="http://www.w3.org/1999/xlink" x="0px" y="0px"
	 viewBox="0 0 512 512" style="enable-background:new 0 0 512 512;" xml:space="preserve">
<path style="fill:#00CB7E;" d="M348.584,266.206c-31.547-82.484-5.504-185.439,35.503-247.634
	c15.808,10.427,9.345,6.169,25.074,16.518c-29.023,44.383-63.85,138.503-32.532,220.389L348.584,266.206z"/>
<path style="fill:#00DD7E;" d="M193.702,265.24l-28.114-10.544C226.102,93.347,353.448,14.686,432.118,0l5.538,29.511
	C400.018,36.691,260.606,86.853,193.702,265.24z"/>
<g>
	<path style="fill:#BDF052;" d="M197.913,489.163c-28.435,22.079-60.463,27.694-88.257,18.806
		c-25.052-8.007-46.661-27.784-59.111-57.89C10.24,352.564,91.391,225.234,182.63,249.445
		C273.559,273.556,281.566,424.187,197.913,489.163z"/>
	<path style="fill:#BDF052;" d="M458.428,426.917c-13.171,25.362-34.08,41.716-58.881,46.03
		c-26.303,4.609-51.361-5.238-70.972-23.41c-66.459-61.565-48.632-189.525,31.457-203.487
		C440.182,232.109,500.124,346.603,458.428,426.917z"/>
</g>
<path style="fill:#92D700;" d="M458.428,426.917c-13.171,25.362-34.08,41.716-58.881,46.03L360.032,246.05
	C440.182,232.109,500.124,346.603,458.428,426.917z"/>
<path style="fill:#11A892;" d="M286.558,105.638c-70.597,67.568-152.931,62.884-208.801-32.558
	C154.094,4.156,231.78,13.503,286.558,105.638z"/>
<path style="fill:#0F9887;" d="M286.558,105.638c-70.597,67.568-152.931,62.884-208.801-32.558L286.558,105.638z"/>
<g>
	<rect x="69.822" y="424.319" style="fill:#B6EFAB;" width="30.026" height="30.026"/>
	<rect x="338.825" y="400.098" style="fill:#B6EFAB;" width="30.026" height="30.026"/>
</g>
<path style="fill:#92D700;" d="M197.913,489.163c-28.435,22.079-60.463,27.694-88.257,18.806v-0.01l72.973-258.515
	C273.559,273.556,281.566,424.187,197.913,489.163z"/>
<g>
</g>
<g>
</g>
<g>
</g>
<g>
</g>
<g>
</g>
<g>
</g>
<g>
</g>
<g>
</g>
<g>
</g>
<g>
</g>
<g>
</g>
<g>
</g>
<g>
</g>
<g>
</g>
<g>
</g>
</svg>
