<?xml version="1.0" encoding="iso-8859-1"?>
<!-- Generator: Adobe Illustrator 19.0.0, SVG Export Plug-In . SVG Version: 6.00 Build 0)  -->
<svg version="1.1" id="Capa_1" xmlns="http://www.w3.org/2000/svg" xmlns:xlink="http://www.w3.org/1999/xlink" x="0px" y="0px"
	 viewBox="0 0 490.667 490.667" style="enable-background:new 0 0 490.667 490.667;" xml:space="preserve">
<path style="fill:#4CAF50;" d="M10.667,85.333H480c5.891,0,10.667,4.776,10.667,10.667v298.667c0,5.891-4.776,10.667-10.667,10.667
	H10.667C4.776,405.333,0,400.558,0,394.667V96C0,90.109,4.776,85.333,10.667,85.333z"/>
<g>
	<path style="fill:#FAFAFA;" d="M288,320h-85.333c-5.891,0.007-10.673-4.762-10.68-10.653c-0.001-1.15,0.183-2.293,0.547-3.384
		l19.691-59.051l-18.432-27.733c-1.155-1.732-1.778-3.764-1.792-5.845c3.337-26.292,26.95-45.182,53.333-42.667
		c33.579,0,51.499,10.453,53.333,31.104c0.492,5.867-3.862,11.023-9.728,11.52c-5.818,0.342-10.883-3.935-11.52-9.728
		c-0.64-7.659-11.413-11.563-32-11.563c-13.504-1.46-26.38,6.06-31.744,18.539l19.2,28.885c1.834,2.739,2.299,6.173,1.259,9.301
		l-16.683,49.941H288c5.891,0,10.667,4.776,10.667,10.667S293.891,320,288,320z"/>
	<path style="fill:#FAFAFA;" d="M245.333,256h-64c-5.891,0-10.667-4.776-10.667-10.667c0-5.891,4.776-10.667,10.667-10.667h64
		c5.891,0,10.667,4.776,10.667,10.667C256,251.224,251.224,256,245.333,256z"/>
	<path style="fill:#FAFAFA;" d="M437.333,149.333h-42.667c-5.891,0-10.667-4.776-10.667-10.667S388.776,128,394.667,128h42.667
		c5.891,0,10.667,4.776,10.667,10.667S443.224,149.333,437.333,149.333z"/>
	<path style="fill:#FAFAFA;" d="M96,362.667H53.333c-5.891,0-10.667-4.776-10.667-10.667c0-5.891,4.776-10.667,10.667-10.667H96
		c5.891,0,10.667,4.776,10.667,10.667C106.667,357.891,101.891,362.667,96,362.667z"/>
</g>
<g>
</g>
<g>
</g>
<g>
</g>
<g>
</g>
<g>
</g>
<g>
</g>
<g>
</g>
<g>
</g>
<g>
</g>
<g>
</g>
<g>
</g>
<g>
</g>
<g>
</g>
<g>
</g>
<g>
</g>
</svg>
