<svg id="Capa_1" enable-background="new 0 0 511.997 511.997" height="512" viewBox="0 0 511.997 511.997" width="512" xmlns="http://www.w3.org/2000/svg"><g><g><g><path d="m427.901 247.694h30v29.972h-30z" fill="#ff3044"/><path d="m381.847 151.34h30v29.972h-30z" fill="#ffe652"/></g><g><path d="m293.007 511.997h-114.12v-94.131l114.12 44.131z" fill="#9f5f4b"/><path d="m293.007 461.997v50h-60.48v-94.131z" fill="#724435"/><path d="m332.307 275.89-99.78 171.948h-186.06l137.57-274.152h96.99z" fill="#c0ed6b"/><path d="m232.527 203.658h-120.45l120.45-203.658 20 112.785z" fill="#95cf53"/><path d="m332.307 275.89-71.63 171.948h-28.15v-274.152h48.5z" fill="#95cf53"/><path d="m352.977 203.658h-120.45v-203.658z" fill="#73b537"/></g></g><g><path d="m465.53 421.327c0 50.075-35.243 90.67-116.501 90.67s-116.501-40.595-116.501-90.67c0-38.14 20.044-53.153 19.614-103.988 0 0 14.759 6.366 26.476 16.322 26.75-53.547 70.412-86.576 70.412-86.576s43.662 33.029 70.412 86.576c11.717-9.957 26.475-16.322 26.475-16.322-.431 50.835 19.613 65.848 19.613 103.988z" fill="#ff7f3b"/><path d="m465.53 421.327c0 50.075-35.243 90.67-116.501 90.67v-264.912s43.662 33.029 70.412 86.576c11.717-9.957 26.475-16.322 26.475-16.322-.43 50.835 19.614 65.848 19.614 103.988z" fill="#ff3044"/><path d="m378.587 446.206-29.558 65.791c-32.65 0-59.116-26.462-59.116-59.107 0-48.317 59.116-83.865 59.116-83.865z" fill="#ffe652"/><path d="m408.145 452.891c0 32.645-26.466 59.107-59.116 59.107v-142.972s59.116 35.548 59.116 83.865z" fill="#f4c338"/></g></g></svg>