<svg height="512" viewBox="0 0 60 59" width="512" xmlns="http://www.w3.org/2000/svg"><g id="Page-1" fill="none" fill-rule="evenodd"><g id="034---Greens" fill-rule="nonzero" transform="translate(0 -1)"><path id="Shape" d="m16.665 49.249c-.183 2.265-1.058 4.772 2.124 7.953 2.2999914 2.2990431 6.0280086 2.2990431 8.328 0 .2969203-.3023628.5619795-.6344407.791-.991 2.8655635 2.1282084 6.8686526 1.7835639 9.3282895-.8031157 2.4596369-2.5866795 2.6024144-6.6020397.3327105-9.3568843 2.3488801.2125984 4.4854657-1.3654589 4.973-3.673 2.7785123 1.7298268 6.3815197 1.3238098 8.705376-.9809946s2.7595195-5.9043473 1.052624-8.6970054c2.0025782.2835567 3.9616164-.7475054 4.861678-2.5587517s.5387406-3.9953632-.896678-5.4202483c-.3335179-.3225679-.7125534-.5944628-1.125-.807.4099408-.2370255.7879888-.5253501 1.125-.858 2.2980546-2.3007911 2.2980546-6.0282089 0-8.329-.1-.1-.225-.175-.333-.266 2.8268376-1.3216859 4.4521819-4.3409853 3.9988649-7.42843863-.453317-3.08745332-2.8779729-5.51210928-5.9654263-5.96542626-3.0874533-.45331699-6.1067527 1.17202732-7.4284386 3.99886489-.091-.108-.166-.233-.266-.333-2.3007911-2.2980546-6.0282089-2.2980546-8.329 0-.3326499.33701123-.6209745.71505924-.858 1.125-.6819642-1.33373847-1.9649274-2.25705168-3.4461996-2.48013485-1.4812722-.22308316-2.9792666.28141114-4.0238004 1.35513485-1.0371168 1.04233599-1.5237998 2.51164448-1.314 3.967-2.7930703-1.70842909-6.3941502-1.27300285-8.6995274 1.05190738-2.3053771 2.32491022-2.7104058 5.92953572-.9784726 8.70809262-2.3075411.4875343-3.8855984 2.6241199-3.673 4.973-2.7548446-2.2697039-6.77020479-2.1269264-9.35688432.3327105-2.58667954 2.4596369-2.93132404 6.462726-.80311568 9.3282895-.35655931.2290205-.68863725.4940797-.991.791-2.29904306 2.2999914-2.29904306 6.0280086 0 8.328 3.181 3.182 5.688 2.307 7.953 2.124" fill="#4fba6f"/><path id="Shape" d="m50.311 10.689c-.3904999-.3903819-1.0235001-.3903819-1.414 0l-6 6c.159278-1.8903096-.4725894-3.7620134-1.745-5.169-.2510745-.2599566-.6228779-.3642126-.9725073-.2726972-.3496295.0915155-.6226744.3645604-.7141899.7141899-.0915154.3496294.0127406.7214328.2726972.9725073.024.024 2.331 2.414.409 6.151-1.993.933-5.482 3.569-9.47 6.887.0276118-.3262229.037293-.6537157.029-.981.0074128-.085783.0037156-.1721641-.011-.257-.2555911-2.8405524-1.5776084-5.4788703-3.7-7.384-.2510745-.2599566-.6228779-.3642126-.9725073-.2726972-.3496295.0915155-.6226744.3645604-.7141899.7141899-.0915154.3496294.0127406.7214328.2726972.9725073 1.2233264 1.1576063 2.1624481 2.5823744 2.744 4.163-1.1658599-.5258098-2.4220621-.8222056-3.7-.873-.5522847 0-1 .4477153-1 1s.4477153 1 1 1c1.4714979.0937437 2.8916417.5769032 4.115 1.4-.0153008.965379-.2604022 1.9132186-.715 2.765-3.144 2.689-6.425 5.625-9.435 8.381-.661-2.272-2.393-5.293-6.811-7.75-.4826969-.2684104-1.0915896-.0946969-1.36.388s-.0946969 1.0915896.388 1.36c4.573 2.543 5.794 5.667 6.086 7.559-4.052 3.733-7.393 6.928-8.806 8.343-6.015 6.016-9.035 9.036-5.829 12.241.69435354.7721879 1.67587441 1.2246133 2.714 1.251.96238255-.0418752 1.89355038-.3537661 2.687-.9 1.761-1.1 3.891-3.231 6.84-6.179 1.416-1.417 4.611-4.754 8.349-8.806 1.892.292 5.016 1.513 7.559 6.086.1766092.3175913.5116064.5143783.875.514.1698026.0003316.3368306-.0430612.485-.126.2318064-.1288883.4029146-.3445862.4756796-.5996385.0727649-.2550523.0412254-.5285644-.0876796-.7603615-2.457-4.418-5.478-6.15-7.75-6.811 2.751-3.008 5.687-6.291 8.373-9.425.8520784-.4548832 1.8002307-.7003195 2.766-.716.8232027 1.2221916 1.3063974 2.6414037 1.4 4.112 0 .5522847.4477153 1 1 1s1-.4477153 1-1c-.0503127-1.2777852-.3460215-2.5339537-.871-3.7 1.579893.5813728 3.0039775 1.5201528 4.161 2.743.3923789.3789722 1.0160848.3735524 1.4018186-.0121814s.3911536-1.0094397.0121814-1.4018186c-1.9082059-2.1271234-4.5533777-3.4497093-7.4-3.7-.0463773-.006483-.0931743-.0094914-.14-.009-.3595477-.0129851-.7195531-.0039683-1.078.027 3.318-3.988 5.954-7.478 6.887-9.471 3.689-1.9 6.055.317 6.151.41.2510745.2599566.6228779.3642126.9725073.2726972.3496295-.0915155.6226744-.3645604.7141899-.7141899.0915154-.3496294-.0127406-.7214328-.2726972-.9725073-1.40635-1.276203-3.2795092-1.9110924-5.172-1.753l6-6c.3886634-.3898786.3891104-1.0205709.001-1.411z" fill="#4c8056"/></g></g></svg>