<svg height="512pt" viewBox="-24 0 512 512" width="512pt" xmlns="http://www.w3.org/2000/svg"><path d="m413.347656 117.25v35.570312c0 26.625-21.664062 48.289063-48.289062 48.289063h-56.523438v295.917969h-152.738281v-295.917969h-56.527344c-26.621093 0-48.285156-21.664063-48.285156-48.289063v-35.570312h29.949219v35.570312c0 10.113282 8.226562 18.339844 18.335937 18.339844h30.96875v-54.769531h29.949219v54.769531h57.003906v-53.910156h29.949219v53.910156h57.003906v-54.769531h29.949219v54.769531h30.964844c10.113281 0 18.339844-8.226562 18.339844-18.339844v-35.570312zm0 0" fill="#b77445"/><path d="m413.347656 117.25v35.570312c0 26.625-21.664062 48.289063-48.289062 48.289063h-56.523438v295.917969h-75.769531v-379.777344h14.375v53.910156h57.003906v-54.769531h29.949219v54.769531h30.964844c10.113281 0 18.339844-8.226562 18.339844-18.339844v-35.570312zm0 0" fill="#a04010"/><path d="m464.332031 88.507812c0 26.535157-21.59375 48.128907-48.128906 48.128907h-89.039063c-26.542968 0-48.128906-21.59375-48.128906-48.128907 0-24.105468 17.808594-44.132812 40.960938-47.597656 5.492187-23.417968 26.554687-40.910156 51.621094-40.910156h.0625c25.027343.03125 46.058593 17.5 51.550781 40.890625 23.222656 3.414063 41.101562 23.460937 41.101562 47.617187zm0 0" fill="#00b44b"/><path d="m185.296875 88.507812c0 26.535157-21.585937 48.128907-48.128906 48.128907h-89.039063c-26.535156 0-48.128906-21.59375-48.128906-48.128907 0-24.105468 17.808594-44.132812 40.96875-47.597656 5.492188-23.417968 26.546875-40.910156 51.613281-40.910156h.070313c25.039062.03125 46.0625 17.5 51.550781 40.890625 23.210937 3.414063 41.09375 23.460937 41.09375 47.617187zm0 0" fill="#00b44b"/><path d="m112.976562 482.050781h238.375v29.949219h-238.375zm0 0" fill="#9ce78d"/><path d="m232.765625 482.050781h118.585937v29.949219h-118.585937zm0 0" fill="#36cb8e"/><path d="m185.296875 88.507812c0 26.535157-21.585937 48.128907-48.128906 48.128907h-44.515625v-136.636719c25.039062.03125 46.0625 17.5 51.550781 40.890625 23.210937 3.414063 41.09375 23.460937 41.09375 47.617187zm0 0" fill="#007f40"/><path d="m464.332031 88.507812c0 26.535157-21.59375 48.128907-48.128906 48.128907h-44.523437v-136.636719c25.027343.03125 46.058593 17.5 51.550781 40.890625 23.222656 3.414063 41.101562 23.460937 41.101562 47.617187zm0 0" fill="#007f40"/><path d="m324.816406 88.507812c0 26.535157-21.589844 48.128907-48.136718 48.128907h-89.027344c-26.546875 0-48.140625-21.59375-48.140625-48.128907 0-24.105468 17.820312-44.132812 40.972656-47.597656 5.488281-23.417968 26.554687-40.910156 51.621094-40.910156.21875 0 .4375 0 .660156.0117188 24.765625.2968752 45.5 17.6796872 50.953125 40.8789062 23.21875 3.414063 41.097656 23.460937 41.097656 47.617187zm0 0" fill="#00b44b"/><path d="m276.679688 136.636719h-43.914063v-136.6250002c24.765625.2968752 45.5 17.6796872 50.953125 40.8789062 23.21875 3.414063 41.097656 23.460937 41.097656 47.617187 0 26.535157-21.589844 48.128907-48.136718 48.128907zm0 0" fill="#007f40"/></svg>