<svg id="Capa_1" enable-background="new 0 0 512 512" height="512" viewBox="0 0 512 512" width="512" xmlns="http://www.w3.org/2000/svg"><g><path d="m241.516 253.929c-28.906-36.533-40.343-67.468-41.615-104.069-1.563-44.991 23.444-83.573 41.615-102.622v-21.2c-101.657 5.643-182.631 90.119-182.631 193.161l.023 67.311s68.44-57.246 182.607-8.562v-24.019z" fill="#b0ace5"/><g><g><path d="m261.731 276.934h192.467l-.609-15.552c-1.877-48.068-13.537-90.436-34.656-125.925-17.021-28.604-40.11-52.698-68.625-71.615-36.646-24.31-72.549-33.63-88.576-36.814v249.906z" fill="#fcd87a"/></g></g><path d="m241 0v355.115h15l10.251-175.584-10.251-179.531z" fill="#ebf4fe"/><path d="m256 0h15v355.115h-15z" fill="#d2e5fc"/><path d="m58.885 338.101 39.819 100.818 157.296 1.646 33.913-52.154-33.913-50.243z" fill="#414f76"/><path d="m256 338.168v102.396l168.703 1.765c25.034-11.964 39.98-39.507 39.98-73.677v-30.412z" fill="#343b5c"/><path d="m255.993 423c-17.991 0-26.475-3.977-36.299-8.582-11.417-5.352-24.357-11.418-49.032-11.418-24.674 0-37.614 6.066-49.031 11.418-9.824 4.605-18.308 8.582-36.3 8.582s-26.476-3.977-36.3-8.582c-11.417-5.352-24.357-11.418-49.031-11.418v50l72.321 30.6 183.679 18.248 15-49.424-15-29.424c-.002 0-.004 0-.007 0z" fill="#74dbf2"/><path d="m462.965 414.418c-9.824 4.605-18.309 8.582-36.302 8.582s-26.479-3.977-36.303-8.582c-11.418-5.352-24.359-11.418-49.034-11.418s-37.616 6.066-49.033 11.418c-9.823 4.604-18.307 8.581-36.293 8.582v78.848l208.688-27.595 47.312-21.253v-50c-24.676 0-37.617 6.066-49.035 11.418z" fill="#38bdf0"/><path d="m219.694 464.418c-11.417-5.352-24.357-11.418-49.032-11.418-24.674 0-37.614 6.066-49.031 11.418-9.824 4.605-18.308 8.582-36.3 8.582s-26.476-3.977-36.3-8.582c-11.417-5.352-24.357-11.418-49.031-11.418v59h256l15-16.097-15-22.903c-.002 0-.004 0-.007 0-17.991 0-26.474-3.977-36.299-8.582z" fill="#98f9fd"/><path d="m512 512v-59c-24.676 0-37.617 6.066-49.035 11.418-9.824 4.605-18.309 8.582-36.302 8.582s-26.479-3.977-36.303-8.582c-11.418-5.352-24.359-11.418-49.034-11.418s-37.616 6.066-49.033 11.418c-9.823 4.604-18.307 8.581-36.293 8.582v39z" fill="#74dbf2"/></g></svg>