<?xml version="1.0" encoding="iso-8859-1"?>
<!-- Generator: Adobe Illustrator 19.0.0, SVG Export Plug-In . SVG Version: 6.00 Build 0)  -->
<svg version="1.1" id="Capa_1" xmlns="http://www.w3.org/2000/svg" xmlns:xlink="http://www.w3.org/1999/xlink" x="0px" y="0px"
	 viewBox="0 0 512 512" style="enable-background:new 0 0 512 512;" xml:space="preserve">
<path style="fill:#536080;" d="M306.612,157.641H205.395c-8.366,0-15.148-6.782-15.148-15.148V97.211
	c0-22.583,18.373-40.956,40.958-40.956h49.598c22.583,0,40.958,18.373,40.958,40.956v45.282
	C321.759,150.858,314.977,157.641,306.612,157.641z M220.543,127.345h70.921V97.211c0-5.878-4.783-10.661-10.662-10.661h-49.598
	c-5.878,0-10.662,4.783-10.662,10.661v30.134H220.543z"/>
<path style="fill:#394257;" d="M280.802,56.254h-24.805v30.295h24.806c5.878,0,10.662,4.783,10.662,10.661v30.134h-35.468v30.295
	h50.615c8.366,0,15.148-6.782,15.148-15.148V97.21C321.759,74.627,303.386,56.254,280.802,56.254z"/>
<path style="fill:#FF7632;" d="M441.087,455.746H70.913C31.811,455.746,0,423.935,0,384.834V198.258
	c0-39.101,31.811-70.913,70.913-70.913h370.175c39.101,0,70.913,31.811,70.913,70.913v186.576
	C512,423.935,480.189,455.746,441.087,455.746z"/>
<path style="fill:#F74825;" d="M441.087,127.345h-185.09v328.401h185.09c39.101,0,70.913-31.811,70.913-70.913V198.258
	C512,159.156,480.189,127.345,441.087,127.345z"/>
<rect x="112.629" y="127.342" style="fill:#FFDE42;" width="30.295" height="328.403"/>
<rect x="369.09" y="127.342" style="fill:#FFCE1F;" width="30.295" height="328.403"/>
<g>
</g>
<g>
</g>
<g>
</g>
<g>
</g>
<g>
</g>
<g>
</g>
<g>
</g>
<g>
</g>
<g>
</g>
<g>
</g>
<g>
</g>
<g>
</g>
<g>
</g>
<g>
</g>
<g>
</g>
</svg>
