<svg id="flat" height="512" viewBox="0 0 512 512" width="512" xmlns="http://www.w3.org/2000/svg"><path d="m256.41144 164.88578-20.65426-75.73226a24 24 0 0 1 4.92538-21.92588l20.26919-23.66822a12.67671 12.67671 0 0 0 3.04825-8.24571 11.31369 11.31369 0 0 0 -11.3137-11.31371 11.31372 11.31372 0 0 0 -8 3.31371l-23.07045 23.07044a48 48 0 0 0 -11.169 50.3448l23.32976 64.15683z" fill="#a2ba18"/><path d="m376 104a55.99276 55.99276 0 0 1 -56 56h-56a55.99276 55.99276 0 0 1 56-56z" fill="#a2ba18"/><path d="m366.40906 194.14139.00007.00006a100.08119 100.08119 0 0 1 33.59087 74.80161v.00008a100.08121 100.08121 0 0 1 -13.63317 50.428l-82.243 140.988a55.71313 55.71313 0 0 1 -48.12383 27.64086 55.71313 55.71313 0 0 1 -48.12383-27.6409l-82.243-140.988a100.08121 100.08121 0 0 1 -13.63317-50.42796v-.00008a100.08119 100.08119 0 0 1 33.59087-74.80161l.00007-.00006a135.16488 135.16488 0 0 1 89.79866-34.14139h41.2208a135.16488 135.16488 0 0 1 89.79866 34.14139z" fill="#ef5e3b"/><g fill="#e04f2b"><path d="m256 400a12.94427 12.94427 0 0 1 11.5777 7.15541 17.03973 17.03973 0 0 1 -1.06288 17.07233l-10.51482 15.77226-10.51483-15.77224a17.03973 17.03973 0 0 1 -1.06288-17.07233 12.94427 12.94427 0 0 1 11.57771-7.15543z"/><path d="m216 352a12.94427 12.94427 0 0 1 11.5777 7.15541 17.03973 17.03973 0 0 1 -1.06288 17.07233l-10.51482 15.77226-10.51483-15.77224a17.03973 17.03973 0 0 1 -1.06288-17.07233 12.94427 12.94427 0 0 1 11.57771-7.15543z"/><path d="m216 256a12.94427 12.94427 0 0 1 11.5777 7.15541 17.03973 17.03973 0 0 1 -1.06288 17.07233l-10.51482 15.77226-10.51483-15.77224a17.03973 17.03973 0 0 1 -1.06288-17.07233 12.94427 12.94427 0 0 1 11.57771-7.15543z"/><path d="m176 208a12.94427 12.94427 0 0 1 11.5777 7.15541 17.03973 17.03973 0 0 1 -1.06288 17.07233l-10.51482 15.77226-10.51483-15.77224a17.03973 17.03973 0 0 1 -1.06288-17.07233 12.94427 12.94427 0 0 1 11.57771-7.15543z"/><path d="m336 208a12.94427 12.94427 0 0 1 11.5777 7.15541 17.03973 17.03973 0 0 1 -1.06288 17.07233l-10.51482 15.77226-10.51483-15.77224a17.03973 17.03973 0 0 1 -1.06288-17.07233 12.94427 12.94427 0 0 1 11.57771-7.15543z"/><path d="m296 352a12.94427 12.94427 0 0 1 11.5777 7.15541 17.03973 17.03973 0 0 1 -1.06288 17.07233l-10.51482 15.77226-10.51483-15.77224a17.03973 17.03973 0 0 1 -1.06288-17.07233 12.94427 12.94427 0 0 1 11.57771-7.15543z"/><path d="m256 304a12.94427 12.94427 0 0 1 11.5777 7.15541 17.03973 17.03973 0 0 1 -1.06288 17.07233l-10.51482 15.77226-10.51483-15.77224a17.03973 17.03973 0 0 1 -1.06288-17.07233 12.94427 12.94427 0 0 1 11.57771-7.15543z"/><path d="m256 208a12.94427 12.94427 0 0 1 11.5777 7.15541 17.03973 17.03973 0 0 1 -1.06288 17.07233l-10.51482 15.77226-10.51483-15.77224a17.03973 17.03973 0 0 1 -1.06288-17.07233 12.94427 12.94427 0 0 1 11.57771-7.15543z"/><path d="m296 256a12.94427 12.94427 0 0 1 11.5777 7.15541 17.03973 17.03973 0 0 1 -1.06288 17.07233l-10.51482 15.77226-10.51483-15.77224a17.03973 17.03973 0 0 1 -1.06288-17.07233 12.94427 12.94427 0 0 1 11.57771-7.15543z"/><path d="m336 304a12.94427 12.94427 0 0 1 11.5777 7.15541 17.03973 17.03973 0 0 1 -1.06288 17.07233l-10.51482 15.77226-10.51483-15.77224a17.03973 17.03973 0 0 1 -1.06288-17.07233 12.94427 12.94427 0 0 1 11.57771-7.15543z"/><path d="m176 304a12.94427 12.94427 0 0 1 11.5777 7.15541 17.03973 17.03973 0 0 1 -1.06288 17.07233l-10.51482 15.77226-10.51483-15.77224a17.03973 17.03973 0 0 1 -1.06288-17.07233 12.94427 12.94427 0 0 1 11.57771-7.15543z"/></g><path d="m232 160h-27.76a48.00555 48.00555 0 0 1 -41.96-24.68994l-26.28-47.31006h27.76a48.00555 48.00555 0 0 1 41.96 24.68994l20.57 37.03006z" fill="#b9cd2a"/><path d="m232 160h-18l-5.22-6.96a72.70509 72.70509 0 0 0 -35.31-25.45016l5.06-15.17993a88.58584 88.58584 0 0 1 43.05005 31.03l4.71 6.28z" fill="#a2ba18"/><path d="m344 120v16a37.79508 37.79508 0 0 0 -23.5 8.24l-19.69995 15.76h-25.60005l35.31-28.25a53.77422 53.77422 0 0 1 33.49-11.75z" fill="#93ad10"/><path d="m312 56v56a47.93581 47.93581 0 0 1 -48 48h-8v-56a47.99956 47.99956 0 0 1 48-48z" fill="#b9cd2a"/><path d="m296 96a104.6732 104.6732 0 0 1 -20.8 62.3999l-.26.3501a48.02108 48.02108 0 0 1 -10.94 1.25h-8v-2.66016l6.3999-8.53979a88.53219 88.53219 0 0 0 17.6001-52.80005z" fill="#a2ba18"/></svg>