<svg id="Flat" height="512" viewBox="0 0 512 512" width="512" xmlns="http://www.w3.org/2000/svg"><rect fill="#ffb632" height="320" rx="32" width="464" x="8" y="56"/><path d="m472 88v9.27l-211.77 124.14a40.018 40.018 0 0 1 -40.46 0l-211.77-124.14v-9.27a31.906 31.906 0 0 1 .99-7.93 7.824 7.824 0 0 1 3.06 1.03l215.81 126.51a24.027 24.027 0 0 0 24.28 0l215.81-126.51a7.824 7.824 0 0 1 3.06-1.03 31.906 31.906 0 0 1 .99 7.93z" fill="#e09f2c"/><path d="m296 472 32-96-32-96 208 96z" fill="#fbe9d8"/><path d="m416 376a8 8 0 0 1 -8 8h-82.67l2.67-8-2.67-8h82.67a8 8 0 0 1 8 8z" fill="#e3d3c2"/></svg>