<?xml version="1.0" encoding="iso-8859-1"?>
<!-- Generator: Adobe Illustrator 19.0.0, SVG Export Plug-In . SVG Version: 6.00 Build 0)  -->
<svg xmlns="http://www.w3.org/2000/svg" xmlns:xlink="http://www.w3.org/1999/xlink" version="1.1" id="Layer_1" x="0px" y="0px" viewBox="0 0 512 512" style="enable-background:new 0 0 512 512;" xml:space="preserve">
<path style="fill:#F29A36;" d="M256,0C113.195,0,5.565,50.198,5.565,116.87c0,19.033,9.017,46.303,50.087,71.457v273.586  c0,27.603,22.483,50.087,50.087,50.087h300.522c27.603,0,50.087-22.483,50.087-50.087V188.327  c41.183-25.155,50.087-52.424,50.087-71.457C506.435,50.198,398.805,0,256,0z"/>
<path style="fill:#E7812E;" d="M506.435,116.87c0,19.033-8.904,46.303-50.087,71.457v273.586c0,27.603-22.483,50.087-50.087,50.087  H256V0C398.805,0,506.435,50.198,506.435,116.87z"/>
<path style="fill:#FFE7A6;" d="M256,33.391c-127.889,0-217.043,43.965-217.043,83.478c0,15.917,14.693,32.612,41.405,47.193  c5.343,2.894,8.682,8.57,8.682,14.692v283.158c0,9.238,7.456,16.696,16.696,16.696h300.522c9.239,0,16.696-7.457,16.696-16.696  V178.755c0-6.122,3.339-11.798,8.682-14.692c26.712-14.581,41.405-31.277,41.405-47.193C473.043,77.357,383.889,33.391,256,33.391z"/>
<path style="fill:#FFD392;" d="M473.043,116.87c0,15.917-14.693,32.612-41.405,47.193c-5.343,2.894-8.682,8.57-8.682,14.692v283.158  c0,9.238-7.456,16.696-16.696,16.696H256V33.391C383.889,33.391,473.043,77.357,473.043,116.87z"/>
<path style="fill:#E7812E;" d="M322.783,411.826c-27.619,0-50.087-22.468-50.087-50.087s22.468-50.087,50.087-50.087  s50.087,22.468,50.087,50.087S350.402,411.826,322.783,411.826z"/>
<path style="fill:#F29A36;" d="M189.217,200.348c-27.619,0-50.087-22.468-50.087-50.087s22.468-50.087,50.087-50.087  s50.087,22.468,50.087,50.087S216.836,200.348,189.217,200.348z"/>
<circle style="fill:#E7812E;" cx="356.174" cy="183.652" r="16.696"/>
<circle style="fill:#F29A36;" cx="155.826" cy="395.13" r="16.696"/>
<circle style="fill:#E7812E;" cx="289.391" cy="83.478" r="16.696"/>
<circle style="fill:#F29A36;" cx="222.609" cy="250.435" r="16.696"/>
<g>
</g>
<g>
</g>
<g>
</g>
<g>
</g>
<g>
</g>
<g>
</g>
<g>
</g>
<g>
</g>
<g>
</g>
<g>
</g>
<g>
</g>
<g>
</g>
<g>
</g>
<g>
</g>
<g>
</g>
</svg>
