<svg height="512pt" viewBox="0 -41 512.00002 512" width="512pt" xmlns="http://www.w3.org/2000/svg"><path d="m512 72.925781c0-10.710937-4.1875-20.789062-11.789062-28.386719l-.140626-.140624-.742187-.726563c-15.773437-15.621094-41.457031-15.621094-57.261719 0l-51.503906 50.988281c-1.847656-3.339844-4.1875-6.429687-6.988281-9.214844l-.726563-.726562c-6.734375-6.65625-15.421875-10.589844-24.4375-11.53125v-.015625c-.976562-9.085937-4.984375-17.5-11.554687-24.066406l-.882813-.882813c-6.832031-6.753906-15.515625-10.597656-24.441406-11.503906-.960938-9.113281-4.976562-17.550781-11.566406-24.136719l-.132813-.136719-.75-.734374c-15.785156-15.613282-41.464843-15.613282-57.25 0l-116.574219 115.378906c-13.152343 13.027344-17.628906 31.832031-12.460937 48.839844l-5.628906 5.566406c-2.84375 2.8125-4.445313 6.648437-4.445313 10.648437.003906 3.980469 1.582032 7.789063 4.394532 10.601563l.050781.046875 56.03125 55.457031 60.269531 59.660156c.175781.175782.367188.378906.550781.59375 2.722657 3.128906 6.617188 4.988282 10.761719 5.144532 4.144531.152343 8.171875-1.414063 11.121094-4.332032l7.152344-7.074218c2.691406.585937 5.441406.945312 8.234374 1.082031l115.734376 5.503906c13.761718.648437 27.238281-4.523437 36.988281-14.167969 8.671875-8.578125 13.777343-19.996094 14.363281-32.144531.628906-13.035156-3.894531-25.515625-12.734375-35.152344-8.8125-9.625-20.859375-15.234375-33.925781-15.855469l-12.328125-.589843 120.691406-119.445313c7.691406-7.617187 11.929687-17.757812 11.921875-28.546875zm0 0" fill="#fed317"/><path d="m512 72.925781c0-10.710937-4.1875-20.789062-11.789062-28.386719l-.140626-.140624-.742187-.726563c-15.773437-15.621094-41.457031-15.621094-57.261719 0l-51.503906 50.988281c-1.847656-3.339844-4.1875-6.429687-6.988281-9.214844l-.726563-.726562c-6.734375-6.65625-15.421875-10.589844-24.4375-11.53125v-.015625l-185.210937 185.078125 60.269531 59.660156c.175781.175782.367188.382813.550781.59375 2.722657 3.128906 6.617188 4.988282 10.761719 5.144532s8.171875-1.414063 11.121094-4.332032l7.152344-7.074218c2.691406.585937 5.441406.949218 8.234374 1.082031l115.734376 5.503906c13.761718.652344 27.238281-4.519531 36.988281-14.167969 8.671875-8.578125 13.777343-19.996094 14.363281-32.144531.628906-13.035156-3.894531-25.515625-12.734375-35.152344-8.8125-9.625-20.859375-15.234375-33.925781-15.855469l-12.328125-.585937 120.691406-119.449219c7.691406-7.617187 11.929687-17.757812 11.921875-28.546875zm0 0" fill="#fe9e0f"/><path d="m254.355469 297.53125-119.742188-119.660156c-17.28125-17.113282-45.402343-17.105469-62.671875.007812l-58.894531 58.277344c-8.421875 8.328125-13.0546875 19.414062-13.046875 31.222656-.0078125 11.722656 4.574219 22.746094 12.898438 31.0625l118.644531 118.566406c17.28125 17.113282 46.867187 17.421876 64.148437.324219l58.890625-58.28125c16.554688-16.386719 15.183594-44.101562-.226562-61.519531zm0 0" fill="#3caafd"/><path d="m254.355469 297.53125-60.230469-60.191406-121.1875 121.101562 58.609375 58.5625c17.28125 17.113282 46.867187 17.425782 64.148437.324219l58.886719-58.28125c16.554688-16.382813 15.183594-44.097656-.226562-61.515625zm0 0" fill="#0083db"/></svg>