<?xml version="1.0" encoding="iso-8859-1"?>
<!-- Generator: Adobe Illustrator 19.0.0, SVG Export Plug-In . SVG Version: 6.00 Build 0)  -->
<svg version="1.1" id="Capa_1" xmlns="http://www.w3.org/2000/svg" xmlns:xlink="http://www.w3.org/1999/xlink" x="0px" y="0px"
	 viewBox="0 0 512.063 512.063" style="enable-background:new 0 0 512.063 512.063;" xml:space="preserve">
<path style="fill:#2196F3;" d="M498.514,433.33l-0.661-0.619L327.186,289.116c59.514-80.546,42.466-194.087-38.08-253.601
	S95.019-6.95,35.505,73.595s-42.465,194.087,38.08,253.601c64.047,47.324,151.474,47.324,215.521,0L433.34,498.546
	c18.009,18.009,47.207,18.009,65.216,0c18.009-18.009,18.009-47.207,0-65.216H498.514z"/>
<g>
	<path style="fill:#FAFAFA;" d="M181.351,256.028c-26.383,2.516-49.996-16.375-53.333-42.667c0-5.891,4.776-10.667,10.667-10.667
		c5.891,0,10.667,4.776,10.667,10.667c0,11.563,14.656,21.333,32,21.333s32-9.771,32-21.333c0-11.563-14.656-21.333-32-21.333
		c-26.383,2.516-49.996-16.375-53.333-42.667c3.337-26.292,26.95-45.182,53.333-42.667c26.383-2.516,49.996,16.375,53.333,42.667
		c0,5.891-4.776,10.667-10.667,10.667s-10.667-4.776-10.667-10.667c0-11.563-14.656-21.333-32-21.333s-32,9.771-32,21.333
		s14.656,21.333,32,21.333c26.383-2.516,49.996,16.375,53.333,42.667C231.347,239.653,207.734,258.544,181.351,256.028z"/>
	<path style="fill:#FAFAFA;" d="M181.351,277.362c-5.891,0-10.667-4.776-10.667-10.667V96.028c0-5.891,4.776-10.667,10.667-10.667
		c5.891,0,10.667,4.776,10.667,10.667v170.667C192.018,272.586,187.242,277.362,181.351,277.362z"/>
</g>
<g>
</g>
<g>
</g>
<g>
</g>
<g>
</g>
<g>
</g>
<g>
</g>
<g>
</g>
<g>
</g>
<g>
</g>
<g>
</g>
<g>
</g>
<g>
</g>
<g>
</g>
<g>
</g>
<g>
</g>
</svg>
