<?xml version="1.0" encoding="iso-8859-1"?>
<!-- Generator: Adobe Illustrator 19.0.0, SVG Export Plug-In . SVG Version: 6.00 Build 0)  -->
<svg version="1.1" id="Capa_1" xmlns="http://www.w3.org/2000/svg" xmlns:xlink="http://www.w3.org/1999/xlink" x="0px" y="0px"
	 viewBox="0 0 468.318 468.318" style="enable-background:new 0 0 468.318 468.318;" xml:space="preserve">
<g>
	<path style="fill:#44C4A1;" d="M158.373,88.718L158.373,88.718c-9.445,39.281,14.741,78.779,54.02,88.224l0,0l0-0.001
		C221.838,137.662,197.652,98.163,158.373,88.718z"/>
	<path style="fill:#44C4A1;" d="M218.231,210.764L218.231,210.764c15.002-37.512,57.572-55.759,95.083-40.757l0,0l0,0.001
		C298.311,207.519,255.741,225.765,218.231,210.764z"/>
</g>
<path style="fill:#DC8744;" d="M205.663,275.478c-5.783,0-10.516-4.65-10.599-10.456c-1.957-141.062,86.544-171.157,90.313-172.368
	c5.576-1.807,11.546,1.274,13.343,6.847c1.786,5.561-1.258,11.518-6.809,13.327c-3.319,1.111-77.369,27.403-75.64,151.899
	c0.083,5.856-4.603,10.668-10.459,10.751C205.767,275.478,205.715,275.478,205.663,275.478z"/>
<path style="fill:#E56353;" d="M324.817,283.204H86.525c-10.123,0-18.33-8.207-18.33-18.33v0c0-10.123,8.207-18.33,18.33-18.33
	h238.292c10.123,0,18.33,8.207,18.33,18.33v0C343.147,274.998,334.94,283.204,324.817,283.204z"/>
<path style="fill:#D15241;" d="M269.779,468.318H141.563c-10.105,0-18.807-7.13-20.794-17.039L87.072,283.204H324.27
	l-33.697,168.075C288.586,461.187,279.885,468.318,269.779,468.318z"/>
<circle style="fill:#FCD462;" cx="337.247" cy="62.876" r="62.876"/>
<circle style="fill:#F6C358;" cx="337.247" cy="62.876" r="48.846"/>
<path style="fill:#FCD462;" d="M335.542,95.504v-5.746c-7.194-0.733-13.651-3.594-19.365-8.577l5.746-6.848
	c4.407,3.831,8.942,6.111,13.619,6.848V65.91c-5.932-1.416-10.275-3.28-13.029-5.589s-4.132-5.733-4.132-10.272
	c0-4.538,1.582-8.251,4.759-11.14c3.177-2.886,7.309-4.458,12.402-4.721v-3.936h5.035v4.013c5.772,0.423,11.229,2.389,16.373,5.906
	l-5.118,7.242c-3.466-2.466-7.213-3.988-11.255-4.567v14.797h0.237c6.034,1.419,10.467,3.334,13.298,5.746
	c2.838,2.415,4.253,5.919,4.253,10.509c0,4.593-1.627,8.334-4.881,11.216c-3.254,2.889-7.552,4.462-12.908,4.724v5.666H335.542z
	 M329.988,44.697c-1.339,1.179-2.005,2.649-2.005,4.407c0,1.758,0.525,3.148,1.576,4.17c1.044,1.025,3.043,2.008,5.983,2.953V42.609
	C333.178,42.82,331.327,43.515,329.988,44.697z M346.56,79.211c1.467-1.204,2.204-2.726,2.204-4.564c0-1.835-0.577-3.293-1.73-4.369
	c-1.159-1.076-3.312-2.085-6.457-3.03v14.166C343.094,81.156,345.086,80.419,346.56,79.211z"/>
<g>
	<path style="fill:#E56353;" d="M262.451,336.765h-113.56c-3.448,0-6.244-2.796-6.244-6.244l0,0c0-3.448,2.795-6.244,6.244-6.244
		h113.56c3.448,0,6.244,2.796,6.244,6.244l0,0C268.695,333.969,265.899,336.765,262.451,336.765z"/>
	<path style="fill:#E56353;" d="M262.451,374.228h-113.56c-3.448,0-6.244-2.795-6.244-6.244l0,0c0-3.448,2.795-6.244,6.244-6.244
		h113.56c3.448,0,6.244,2.796,6.244,6.244l0,0C268.695,371.433,265.899,374.228,262.451,374.228z"/>
	<path style="fill:#E56353;" d="M262.451,411.691h-113.56c-3.448,0-6.244-2.795-6.244-6.244l0,0c0-3.448,2.795-6.244,6.244-6.244
		h113.56c3.448,0,6.244,2.796,6.244,6.244l0,0C268.695,408.896,265.899,411.691,262.451,411.691z"/>
</g>
<g>
</g>
<g>
</g>
<g>
</g>
<g>
</g>
<g>
</g>
<g>
</g>
<g>
</g>
<g>
</g>
<g>
</g>
<g>
</g>
<g>
</g>
<g>
</g>
<g>
</g>
<g>
</g>
<g>
</g>
</svg>
