<svg height="512pt" viewBox="0 0 512 512" width="512pt" xmlns="http://www.w3.org/2000/svg"><path d="m235.984375 393.8125 83.800781-20.015625v-63.785156l-83.800781-20.015625zm0 0" fill="#87a0af"/><path d="m256 289.996094-63.785156 20.015625v63.785156l63.785156 20.015625zm0 0" fill="#b4d2d7"/><path d="m512 373.796875h-256l-20.015625 69.101563 20.015625 69.101562h256zm0 0" fill="#b4d2d7"/><path d="m0 373.796875h256v138.203125h-256zm0 0" fill="#e1ebf0"/><path d="m47.839844 427.898438h176.269531v30h-176.269531zm0 0" fill="#607882"/><path d="m421.636719 427.898438h42.523437v30h-42.523437zm0 0" fill="#3f4a4a"/><path d="m347.222656 427.898438h42.519532v30h-42.519532zm0 0" fill="#3f4a4a"/><path d="m256 310.011719h224.105469v-85.046875l-244.121094-20.015625zm0 0" fill="#b4d2d7"/><path d="m256 204.949219-224.105469 20.015625v85.046875h224.105469zm0 0" fill="#e1ebf0"/><path d="m480.105469 224.964844v-224.964844h-224.105469l-20.015625 112.484375 20.015625 112.480469zm0 0" fill="#3f4a4a"/><path d="m31.894531 0h224.105469v224.964844h-224.105469zm0 0" fill="#607882"/></svg>