<svg id="Capa_1" enable-background="new 0 0 512 512" height="512" viewBox="0 0 512 512" width="512" xmlns="http://www.w3.org/2000/svg"><g><path d="m369.472 267.358h-125.94v198.567l45.701 25.497h13.418l67.299-34.883c6.143-3.184 9.999-9.527 9.999-16.446v-165.134z" fill="#ad6a50"/><path d="m331.355 235.938 13.254-10.195c0-84.63 0-194.734 0-213.683 0-6.66-5.4-12.06-12.06-12.06-3.9 0-82.257 0-125.373 0l-8.562 7.542v228.395h132.741z" fill="#95d6a4"/><path d="m173.257 235.938h29.876c0-88.251 0-216.641 0-223.878 0-6.66 5.399-12.06 12.059-12.06-19.571 0-34.147 0-35.742 0-6.66 0-12.059 5.399-12.059 12.06v216.687z" fill="#78c2a4"/><path d="m239.846 235.938h69.302c21.525-16.158 35.461-41.871 35.461-70.861 0-43.55-31.427-79.736-72.834-87.181-38.156 10.646-66.159 45.629-66.159 87.181 0 28.713 13.377 54.284 34.23 70.861z" fill="#ccf49f"/><path d="m202.799 235.938h39.749c-21.516-16.159-35.437-41.878-35.437-70.861 0-42.106 29.379-77.327 68.749-86.347-6.388-1.464-13.029-2.262-19.86-2.262-48.937 0-88.609 39.672-88.609 88.609 0 28.972 13.908 54.693 35.408 70.861z" fill="#b3e59f"/><path d="m256 49.608c4.267 0 7.726-3.459 7.726-7.726v-8.299c0-4.268-3.459-7.726-7.726-7.726s-7.726 3.459-7.726 7.726v8.299c-.001 4.267 3.459 7.726 7.726 7.726z" fill="#ecf4ff"/><path d="m315.382 157.35h-1.523c-3.336-15.674-16.584-27.422-32.383-27.422s-29.048 11.747-32.384 27.422h-34.889c2.713-7.03 9.007-11.969 16.323-11.969 4.267 0 7.726-3.459 7.726-7.726s-3.459-7.726-7.726-7.726c-15.799 0-29.048 11.747-32.384 27.422h-1.523c-4.267 0-7.726 3.459-7.726 7.726 0 4.268 3.459 7.726 7.726 7.726h1.523c3.336 15.675 16.584 27.423 32.384 27.423s29.048-11.747 32.383-27.423h34.889c-2.713 7.03-9.006 11.97-16.322 11.97-4.267 0-7.726 3.459-7.726 7.726s3.459 7.726 7.726 7.726c15.8 0 29.048-11.747 32.383-27.423h1.523c4.267 0 7.726-3.459 7.726-7.726s-3.459-7.726-7.726-7.726zm-33.907-11.969c7.316 0 13.61 4.939 16.322 11.969h-32.645c2.713-7.03 9.007-11.969 16.323-11.969zm-50.95 39.392c-7.316 0-13.61-4.94-16.323-11.97h32.645c-2.712 7.03-9.006 11.97-16.322 11.97z" fill="#66b394"/><path d="m290 484.517-104.023-53.918c-6.338-3.285-10.316-9.828-10.316-16.967v-146.274h-34.116l-9.495 7.601v165.135c0 6.919 3.857 13.262 9.999 16.446l100.828 52.261c8.229 4.265 18.018 4.265 26.246 0l42.906-22.239c-7.262 2.189-15.171 1.51-22.029-2.045z" fill="#935b43"/><path d="m328.78 267.358h-118.213v146.543l69.795 38.062h8.872l43.075-22.326c3.953-2.049 6.435-6.131 6.435-10.583v-144.095z" fill="#935b43"/><path d="m223.303 417.79c-3.953-2.049-6.435-6.131-6.435-10.583v-139.849h-34.889l-8.722 7.601v144.095c0 4.453 2.482 8.534 6.435 10.583l70.822 36.709c3.44 1.783 7.531 1.783 10.971 0l27.749-14.383z" fill="#87513e"/><path d="m383.018 223.433h-217.688l-7.217 5.98s0 38.288 0 37.945c0-.23 5.394 4.472 8.955 7.601h215.95c6.875 0 12.449-5.573 12.449-12.449v-26.628c0-6.875-5.574-12.449-12.449-12.449z" fill="#bd7b62"/><path d="m160.144 262.51v-26.628c0-6.875 5.573-12.449 12.448-12.449h-43.611c-6.875 0-12.448 5.573-12.448 12.449v26.628c0 6.875 5.573 12.449 12.448 12.449h43.611c-6.875 0-12.448-5.574-12.448-12.449z" fill="#ad6a50"/></g></svg>