<?xml version="1.0" encoding="iso-8859-1"?>
<!-- Generator: Adobe Illustrator 19.0.0, SVG Export Plug-In . SVG Version: 6.00 Build 0)  -->
<svg xmlns="http://www.w3.org/2000/svg" xmlns:xlink="http://www.w3.org/1999/xlink" version="1.1" id="Layer_1" x="0px" y="0px" viewBox="0 0 511.999 511.999" style="enable-background:new 0 0 511.999 511.999;" xml:space="preserve">
<path style="fill:#DBE1F1;" d="M506.432,217.041c0,64.445-52.424,116.868-116.868,116.868H122.436  c-64.445,0-116.868-52.424-116.868-116.868s52.424-116.868,116.868-116.868c8.125,0,16.25,0.89,24.374,2.671  C163.394,52.869,205.356,15.36,256,3.784C266.796,1.336,278.038,0,289.391,0c67.004,0,126.329,45.523,144.471,109.411  C477.603,127.331,506.432,169.403,506.432,217.041z"/>
<g>
	<path style="fill:#8FD8F0;" d="M84.763,501.722c-3.544-8.516,0.479-18.288,8.989-21.837c9.403-3.906,9.403-20.921,0-24.826   c-36.805-15.339-36.79-71.144,0-86.477c8.5-3.548,18.283,0.484,21.837,8.989c3.544,8.516-0.479,18.288-8.989,21.837   c-9.403,3.906-9.403,20.921,0,24.826c36.805,15.339,36.79,71.144,0,86.477C98.096,514.258,88.311,510.226,84.763,501.722z"/>
	<path style="fill:#8FD8F0;" d="M184.936,501.722c-3.544-8.516,0.479-18.288,8.989-21.837c9.403-3.906,9.403-20.921,0-24.826   c-36.805-15.339-36.79-71.144,0-86.477c8.51-3.548,18.294,0.484,21.837,8.989c3.544,8.516-0.479,18.288-8.989,21.837   c-9.403,3.906-9.403,20.921,0,24.826c36.805,15.339,36.79,71.144,0,86.477C198.269,514.258,188.484,510.226,184.936,501.722z"/>
</g>
<g>
	<path style="fill:#7CC5E3;" d="M285.109,501.722c-3.544-8.516,0.479-18.288,8.989-21.837c9.403-3.906,9.403-20.921,0-24.826   c-36.805-15.339-36.79-71.144,0-86.477c8.5-3.548,18.283,0.484,21.837,8.989c3.544,8.516-0.479,18.288-8.989,21.837   c-9.403,3.906-9.403,20.921,0,24.826c36.805,15.339,36.79,71.144,0,86.477C298.442,514.258,288.657,510.226,285.109,501.722z"/>
	<path style="fill:#7CC5E3;" d="M385.281,501.722c-3.544-8.516,0.479-18.288,8.989-21.837c9.403-3.906,9.403-20.921,0-24.826   c-36.805-15.339-36.79-71.144,0-86.477c8.51-3.548,18.283,0.484,21.837,8.989c3.544,8.516-0.479,18.288-8.989,21.837   c-9.403,3.906-9.403,20.921,0,24.826c36.805,15.339,36.79,71.144,0,86.477C398.615,514.258,388.83,510.226,385.281,501.722z"/>
</g>
<path style="fill:#D0D5E5;" d="M506.432,217.041c0,64.445-52.424,116.868-116.868,116.868H256V3.784  C266.796,1.336,278.038,0,289.391,0c67.004,0,126.329,45.523,144.471,109.411C477.603,127.331,506.432,169.403,506.432,217.041z"/>
<g>
</g>
<g>
</g>
<g>
</g>
<g>
</g>
<g>
</g>
<g>
</g>
<g>
</g>
<g>
</g>
<g>
</g>
<g>
</g>
<g>
</g>
<g>
</g>
<g>
</g>
<g>
</g>
<g>
</g>
</svg>
