<svg id="Capa_1" enable-background="new 0 0 501.976 501.976" height="512" viewBox="0 0 501.976 501.976" width="512" xmlns="http://www.w3.org/2000/svg"><g><g id="icon_33_"><path d="m419.885 343.326 25.099 83.518c2.308 7.677 8.466 12.611 13.761 11.019l26.109-7.842c9.574-2.914 13.866 4.071 16.651 13.339l.471 1.683-112.957 33.914-.502-1.665c-2.779-9.25-3.795-16.92 6.55-20.306l26.139-7.848c5.295-1.592 7.719-9.103 5.412-16.779l-25.099-83.542c-4.53-15.084-14.906-26.525-26.25-29.537-4.211-1.134-8.309-2.65-12.243-4.53-35.095-16.626-70.319-64.449-88.948-126.498-7.784-25.396-11.949-51.762-12.372-78.32l143.247-43.023c14.277 22.398 25.325 46.698 32.818 72.18 20.948 69.658 14.557 135.864-12.721 165.652-7.724 8.435-9.598 23.831-5.165 38.585z" fill="#eeefee" opacity=".8"/><path d="m435.06 154.313c14.692 59.08 8.956 116.373-15.016 142.567-1.108 1.199-2.106 2.496-2.981 3.875-10.108 9.306-24.017 13.291-37.52 10.75-1.416-.607-2.872-1.114-4.359-1.518-3.832-1.029-7.56-2.412-11.135-4.132-32.047-15.176-63.31-58.272-80.922-111.126-.771-2.345-1.549-4.689-2.271-7.095 21.158-16.905 49.23-22.432 75.217-14.808 27.748 8.291 57.813 1.245 78.987-18.513z" fill="#ef5261"/><path d="m398.624 86.804c1.616 5.509 64.639 157.81 11.123 198.06 29.861-77.133-19.663-176.077-25.919-193.622z" fill="#eeefee" opacity=".8"/><path d="m82.091 343.326-25.099 83.518c-2.308 7.677-8.466 12.611-13.761 11.019l-26.091-7.83c-9.574-2.914-13.866 4.071-16.651 13.339l-.489 1.671 112.957 33.914.502-1.665c2.779-9.25 3.795-16.92-6.55-20.306l-26.139-7.848c-5.295-1.592-7.719-9.103-5.412-16.779l25.099-83.542c4.53-15.084 14.906-26.525 26.25-29.537 4.211-1.134 8.309-2.65 12.243-4.53 35.095-16.626 70.32-64.449 88.948-126.498 7.784-25.396 11.949-51.762 12.372-78.32l-143.248-43.024c-14.277 22.398-25.325 46.698-32.818 72.18-20.948 69.658-14.557 135.864 12.721 165.652 7.725 8.436 9.599 23.832 5.166 38.586z" fill="#eeefee" opacity=".8"/><path d="m66.916 154.313c-14.692 59.08-8.956 116.373 15.016 142.567 1.108 1.199 2.106 2.496 2.981 3.875 10.108 9.306 24.017 13.291 37.52 10.75 1.416-.607 2.872-1.114 4.359-1.518 3.832-1.029 7.56-2.412 11.135-4.132 32.071-15.169 63.335-58.272 80.947-111.12.771-2.345 1.549-4.689 2.271-7.095-21.158-16.905-49.23-22.432-75.217-14.808-27.757 8.299-57.834 1.25-79.012-18.519z" fill="#ef5261"/><path d="m103.352 86.804c-1.616 5.509-64.639 157.81-11.123 198.06-29.861-77.133 19.663-176.077 25.919-193.622z" fill="#eeefee" opacity=".8"/><g fill="#fff"><path d="m250.547 76.238c-2.671 0-4.836-2.165-4.836-4.836v-43.544c0-2.673 2.167-4.839 4.839-4.839 2.673 0 4.839 2.167 4.839 4.839v43.543c0 2.671-2.165 4.836-4.836 4.836-.002.001-.004.001-.006.001z" opacity=".8"/><path d="m271.6 89.014c-2.674-.007-4.836-2.181-4.829-4.855.002-.816.21-1.618.605-2.332l24.193-43.543c1.298-2.336 4.245-3.178 6.581-1.879 2.336 1.298 3.178 4.245 1.879 6.581l-24.193 43.543c-.855 1.536-2.477 2.488-4.236 2.485z" opacity=".8"/><path d="m229.495 89.014c-1.759.004-3.381-.948-4.236-2.485l-24.193-43.543c-1.298-2.336-.457-5.283 1.879-6.581s5.283-.457 6.581 1.879l24.193 43.543c1.295 2.34.448 5.286-1.892 6.581-.714.395-1.516.603-2.332.606z" opacity=".8"/></g></g></g></svg>