<svg height="512" viewBox="0 0 48 48" width="512" xmlns="http://www.w3.org/2000/svg"><g id="pencils_glass" data-name="pencils glass"><path d="m34 3v3h-8v-3a2 2 0 0 1 2-2h4a2 2 0 0 1 2 2z" fill="#db5669"/><path d="m34 3v1h-3a3 3 0 0 1 -3-3h4a2 2 0 0 1 2 2z" fill="#f26674"/><path d="m26 6h8v11h-8z" fill="#fc6"/><path d="m22.71 17h-8.51l-2.2-6c2.67-1 1.68-.62 7.52-2.73z" fill="#fc6"/><path d="m34 6v9c-2 0-3.58.25-5-1.36s-1-2.87-1-7.64z" fill="#ffde76"/><path d="m22 15h-5.4a2 2 0 0 1 -1.88-1.32l-1.19-3.29 6-2.17z" fill="#ffde76"/><path d="m19.46 17h-2.06l-2.58-7.08 1.88-.68c2.95 8.11 2.76 7.51 2.76 7.76z" fill="#ffba55"/><path d="m19.52 8.22-7.52 2.78 1.38-8z" fill="#f6ccaf"/><path d="m19.52 8.22-5.97 2.17 1.1-6.31z" fill="#ffdec7"/><path d="m39 19a2 2 0 0 1 -2 2h-26a2 2 0 0 1 0-4h26a2 2 0 0 1 2 2z" fill="#a87e6b"/><path d="m39 19h-26a2 2 0 0 1 -2-2h26a2 2 0 0 1 2 2z" fill="#be927c"/><path d="m37 21c-1.94 25.12-1.76 23.43-2 24a3 3 0 0 1 -2.83 2h-16.39a3 3 0 0 1 -3-2.77l-1.78-23.23z" fill="#a87e6b"/><path d="m37 21c-1.94 25.12-1.76 23.43-2 24h-16.3a4 4 0 0 1 -4-3.69l-1.55-20.31z" fill="#be927c"/><path d="m18.8 15h-2.13l-1.85-5.08 1.88-.68z" fill="#fc6"/><path d="m29 6h2v11h-2z" fill="#ffba55"/><path d="m31 6v8.87a4 4 0 0 1 -2-1.23v-7.64z" fill="#fc6"/></g></svg>