<svg height="512pt" viewBox="0 -28 512 512" width="512pt" xmlns="http://www.w3.org/2000/svg"><path d="m244.878906 69.890625-10.128906-57.339844c-1.28125-7.257812-7.589844-12.550781-14.960938-12.550781h-171.679687c-7.371094 0-13.679687 5.292969-14.960937 12.550781l-10.128907 57.339844c-.78125 4.421875.433594 8.964844 3.320313 12.40625 2.886718 3.441406 7.148437 5.429687 11.640625 5.429687h191.9375c4.492187 0 8.753906-1.988281 11.640625-5.429687 2.886718-3.441406 4.101562-7.984375 3.320312-12.40625zm0 0" fill="#fccb4f"/><path d="m496.804688 57.339844h-481.609376c-8.394531 0-15.195312 6.800781-15.195312 15.191406v367.667969c0 8.390625 6.800781 15.191406 15.195312 15.191406h481.609376c8.394531 0 15.195312-6.800781 15.195312-15.191406v-367.667969c0-8.390625-6.800781-15.191406-15.195312-15.191406zm0 0" fill="#ffd561"/><path d="m496.804688 57.339844h-240.804688v398.050781h240.804688c8.390624 0 15.195312-6.800781 15.195312-15.191406v-367.667969c0-8.390625-6.800781-15.191406-15.195312-15.191406zm0 0" fill="#ffbf31"/><path d="m441.042969 312.472656h-185.042969c-8.390625 0-15.195312 6.800782-15.195312 15.191406v57.738282c0 8.390625 6.804687 15.191406 15.195312 15.191406h185.042969c8.390625 0 15.195312-6.800781 15.195312-15.191406v-57.738282c0-8.390624-6.804687-15.191406-15.195312-15.191406zm0 0" fill="#d9f5ff"/><path d="m441.042969 312.472656h-185.042969v88.121094h185.042969c8.390625 0 15.195312-6.800781 15.195312-15.191406v-57.738282c0-8.390624-6.804687-15.191406-15.195312-15.191406zm0 0" fill="#87e4f9"/></svg>