<?xml version="1.0" encoding="iso-8859-1"?>
<!-- Generator: Adobe Illustrator 19.0.0, SVG Export Plug-In . SVG Version: 6.00 Build 0)  -->
<svg version="1.1" id="Capa_1" xmlns="http://www.w3.org/2000/svg" xmlns:xlink="http://www.w3.org/1999/xlink" x="0px" y="0px"
	 viewBox="0 0 512 512" style="enable-background:new 0 0 512 512;" xml:space="preserve">
<polygon style="fill:#00B86F;" points="271.002,87.099 256.002,87.099 245.994,268.336 271.002,268.336 "/>
<rect x="241.002" y="87.1" style="fill:#00DC3B;" width="15" height="181.24"/>
<polygon style="fill:#F56429;" points="256.002,512 365.415,512 397.472,302.425 235.986,267.648 "/>
<polygon style="fill:#FE964A;" points="114.532,302.425 146.589,512 256.002,512 256.002,267.648 "/>
<polygon style="fill:#E32400;" points="256.002,238.312 237.085,270.368 256.002,302.425 429.528,302.425 429.528,238.312 "/>
<rect x="82.472" y="238.31" style="fill:#F56429;" width="173.53" height="64.11"/>
<path style="fill:#00DC3B;" d="M256.002,0l-20.016,97.39l20.016,76.809h0.995c34.859,0,63.118-28.259,63.118-63.118l0,0
	C320.115,38.182,256.002,0,256.002,0z"/>
<path style="fill:#5CFF88;" d="M191.889,111.08L191.889,111.08c0,34.859,28.259,63.118,63.118,63.118h0.995V0
	C256.002,0,191.889,38.182,191.889,111.08z"/>
<g>
</g>
<g>
</g>
<g>
</g>
<g>
</g>
<g>
</g>
<g>
</g>
<g>
</g>
<g>
</g>
<g>
</g>
<g>
</g>
<g>
</g>
<g>
</g>
<g>
</g>
<g>
</g>
<g>
</g>
</svg>
