<svg id="icon" height="512" viewBox="0 0 128 128" width="512" xmlns="http://www.w3.org/2000/svg"><path d="m105 64.65a15.916 15.916 0 0 1 -15.922 15.922h-50.156a15.938 15.938 0 0 1 -15.922-15.922c0-8.781 7.961-15.888 16.759-15.888.239-12.231 11-22.037 23.284-22.037a22.444 22.444 0 0 1 16.981 7.756 12.466 12.466 0 0 1 6.919-2.081 12.628 12.628 0 0 1 12.625 12.621 12.494 12.494 0 0 1 -1.726 6.338 15.884 15.884 0 0 1 7.158 13.291z" fill="#eeefee"/><path d="m59.754 98a3.28 3.28 0 1 1 -3.277-3.284 3.273 3.273 0 0 1 3.277 3.284z" fill="#575b6d"/><path d="m56.477 99.48a1.485 1.485 0 1 1 1.481-1.48 1.487 1.487 0 0 1 -1.481 1.48z" fill="#dbd8dd"/><path d="m73.612 98a3.28 3.28 0 1 1 -3.276-3.284 3.272 3.272 0 0 1 3.276 3.284z" fill="#575b6d"/><path d="m70.335 99.48a1.485 1.485 0 1 1 1.482-1.48 1.486 1.486 0 0 1 -1.482 1.48z" fill="#dbd8dd"/><path d="m82.407 73.474-3.427 11.308a1.624 1.624 0 0 1 -1.371 1.144l-24.178 3.405-3.656-19.209 31.909 2.305a.814.814 0 0 1 .723 1.047z" fill="#ef5261"/><path d="m76.944 93.667h-25.085a2.717 2.717 0 0 1 0-5.434h.367l-3.613-21.09h-4.091a.813.813 0 0 1 0-1.626h4.778a.812.812 0 0 1 .8.675l3.892 22.717a.812.812 0 0 1 -.8.95h-1.333a1.091 1.091 0 0 0 0 2.182h25.085a.813.813 0 0 1 0 1.626z" fill="#dbd8dd"/><path d="m47.029 65.175v2.237a.117.117 0 0 1 -.117.117h-4.118a1.236 1.236 0 0 1 -1.236-1.236 1.235 1.235 0 0 1 1.236-1.235h4.118a.117.117 0 0 1 .117.117z" fill="#575b6d"/><g fill="#da364c"><path d="m72.657 83.9a.6.6 0 0 1 -.093-.008.524.524 0 0 1 -.423-.609l1.485-8.3a.524.524 0 0 1 1.032.185l-1.485 8.3a.525.525 0 0 1 -.516.432z"/><path d="m59.053 85.327a.524.524 0 0 1 -.515-.431l-1.915-10.696a.524.524 0 1 1 1.032-.185l1.914 10.7a.523.523 0 0 1 -.423.608.494.494 0 0 1 -.093.004z"/><path d="m65.728 83.9a.524.524 0 0 1 -.524-.524v-8.3a.524.524 0 1 1 1.048 0v8.3a.525.525 0 0 1 -.524.524z"/></g></svg>