<svg height="512" viewBox="0 0 128 128" width="512" xmlns="http://www.w3.org/2000/svg"><g><g><g fill="#fff6d8"><path d="m25.612 110.921-.008-.043z"/><path d="m63.546 46.058h-44.28a4 4 0 0 0 -3.94 4.68c2.077 12.116 10.154 59.423 10.29 60.21a4.04 4.04 0 0 0 2.73 3.14 42.38 42.38 0 0 0 26.12 0 4.04 4.04 0 0 0 2.73-3.14c4.67-27.292 9.605-56.2 10.29-60.21a4 4 0 0 0 -3.94-4.68zm-38.012 64.408.007.043zm.031.184.006.032z"/><path d="m25.552 110.574v-.012z"/></g><path d="m43.556 67.158c-2.829-1.835-5.923-6.322-15.55-6.76a4 4 0 0 0 -4.14 4.67l.46 2.66 6.56 38.42a3.959 3.959 0 0 0 3.06 3.23 36.487 36.487 0 0 0 14.92 0 3.959 3.959 0 0 0 3.06-3.23c.825-4.822 5.358-31.314 6.16-36.04-4.77.54-10.01.04-14.53-2.95z" fill="#ffaa5f"/><path d="m54.616 63.278a19.174 19.174 0 0 0 -11.06 3.88c4.52 2.99 9.76 3.49 14.53 2.95l.37-2.15a3.977 3.977 0 0 0 -3.84-4.68z" fill="#ef893c"/><path d="m44.37 86.47a1.746 1.746 0 1 0 2.47 0 1.73 1.73 0 0 0 -2.47 0z" fill="#ffe17d"/><g><g fill="#fffcf3"><path d="m33.32 61.109-.021.052z"/><path d="m33.3 61.161c-.005.011-.005.013 0 0z"/><path d="m33.358 61.013.032-.08z"/><path d="m33.353 61.024s0-.006-.01.026c.046-.116-.081.204.01-.026z"/></g><path d="m75.955 12.323-28.15 15.03a3.941 3.941 0 0 0 -1.83 2.05h-.01s-12.355 30.976-12.608 31.613l-.062.155v.01a19.365 19.365 0 0 1 7.2 3.54l11.82-29.638a4.027 4.027 0 0 1 1.83-2.05l25.58-13.66a4 4 0 0 0 -3.77-7.05z" fill="#63516b"/></g><path d="m57.305 22.283 3.94 6.96 8.87-4.74-3.93-6.96z" fill="#e6646e"/><g fill="#ffe17d"><path d="m36.606 75.168a4.8 4.8 0 1 0 4.8 4.8 4.8 4.8 0 0 0 -4.8-4.8z"/><path d="m40.106 95.108a3.5 3.5 0 1 0 3.49 3.5 3.5 3.5 0 0 0 -3.49-3.5z"/></g></g><g><path d="m107.074 58.746a4.012 4.012 0 0 0 -5.942-.939l-2.856 2.371a28.33 28.33 0 0 1 -3.72 39.81v.012h-.01a28.311 28.311 0 0 1 -35.55.43l-1.48 8.66a36.309 36.309 0 0 0 42.12-2.96 35.893 35.893 0 0 0 10.33-14 36.336 36.336 0 0 0 -2.43-32.64q-.225-.374-.462-.744z" fill="#ef893c"/><path d="m60.526 91.478-1.526 8.95a28.311 28.311 0 0 0 35.55-.43h.01v-.01a28.325 28.325 0 0 0 3.72-39.81z" fill="#ffc369"/><g fill="#ffe17d"><path d="m76.508 78.227-3.416 28.03a28.155 28.155 0 0 0 21.454-6.257h.01z"/><path d="m76.509 78.225 28.247-.493a28.074 28.074 0 0 0 -6.48-17.55z"/></g></g></g></svg>