<?xml version="1.0" encoding="iso-8859-1"?>
<!-- Generator: Adobe Illustrator 19.0.0, SVG Export Plug-In . SVG Version: 6.00 Build 0)  -->
<svg xmlns="http://www.w3.org/2000/svg" xmlns:xlink="http://www.w3.org/1999/xlink" version="1.1" id="Layer_1" x="0px" y="0px" viewBox="0 0 481.882 481.882" style="enable-background:new 0 0 481.882 481.882;" xml:space="preserve">
<path style="fill:#2F4859;" d="M443.332,126.795H38.551c-6.024,0-10.842,4.819-10.842,10.842v259.012h427.068V137.638  C454.776,131.614,449.355,126.795,443.332,126.795z M428.273,370.146H53.609V153.299h374.664V370.146z"/>
<polygon style="fill:#E1E6E9;" points="318.645,153.299 53.609,153.299 53.609,370.146 428.273,370.146 428.273,232.809   428.273,153.299 "/>
<rect y="396.649" style="fill:#64798A;" width="481.882" height="39.755"/>
<g>
	<polygon style="fill:#3A556A;" points="26.504,447.849 455.379,447.849 481.882,436.405 0,436.405  "/>
	<rect x="194.56" y="412.311" style="fill:#3A556A;" width="92.16" height="8.433"/>
</g>
<path style="fill:#E56353;" d="M318.042,150.287c1.807-6.024,2.409-12.649,2.409-19.878c0-7.228-1.205-13.252-2.409-19.275  l12.047-10.842c1.807-1.807,2.409-4.819,1.205-7.228l-12.649-21.685c-1.205-2.409-4.216-3.614-6.626-2.409l-15.661,5.421  c-9.638-9.035-21.082-16.264-34.334-19.878l-3.012-16.264c-0.602-2.409-3.012-4.216-5.421-4.216h-25.299  c-2.409,0-4.819,1.807-5.421,4.216l-3.012,16.264c-13.252,3.614-24.696,10.24-34.334,19.878l-15.661-5.421  c-2.409-0.602-5.421,0-6.626,2.409l-12.649,21.685c-1.205,2.409-0.602,5.421,1.205,7.228l12.047,10.842  c-1.807,6.024-2.409,12.649-2.409,19.878c0,7.228,0.602,13.252,2.409,19.878l-12.047,10.842c-1.807,1.807-2.409,4.819-1.205,7.228  l12.649,21.685c1.205,2.409,4.216,3.614,6.626,2.409l15.661-5.421c9.638,9.035,21.082,16.264,34.334,19.878l3.012,16.264  c0.602,2.409,3.012,4.216,5.421,4.216h25.299c2.409,0,4.819-1.807,5.421-4.216l3.012-16.264  c13.252-3.614,24.696-10.24,34.334-19.878l15.661,5.421c2.409,0.602,5.421,0,6.626-2.409l12.649-21.685  c1.205-2.409,0.602-5.421-1.205-7.228L318.042,150.287z"/>
<circle style="fill:#FFFFFF;" cx="240.941" cy="130.409" r="56.019"/>
<g>
	<path style="fill:#D15241;" d="M240.941,190.645c-33.129,0-59.633-27.106-59.633-59.633c0-33.129,27.106-59.633,59.633-59.633   c33.129,0,59.633,27.106,59.633,59.633S274.071,190.645,240.941,190.645z M240.941,77.402c-29.515,0-53.007,24.094-53.007,53.007   c0,29.515,24.094,53.007,53.007,53.007c29.515,0,53.007-24.094,53.007-53.007S270.456,77.402,240.941,77.402z"/>
	<circle style="fill:#D15241;" cx="240.941" cy="130.409" r="28.311"/>
</g>
<g>
</g>
<g>
</g>
<g>
</g>
<g>
</g>
<g>
</g>
<g>
</g>
<g>
</g>
<g>
</g>
<g>
</g>
<g>
</g>
<g>
</g>
<g>
</g>
<g>
</g>
<g>
</g>
<g>
</g>
</svg>
