<svg id="Capa_1" enable-background="new 0 0 512 512" height="512" viewBox="0 0 512 512" width="512" xmlns="http://www.w3.org/2000/svg"><g><path d="m467 512h-422c-24.813 0-45-20.187-45-45v-362c0-24.813 20.187-45 45-45h422c24.813 0 45 20.187 45 45v362c0 24.813-20.187 45-45 45z" fill="#ff9100"/><path d="m467 60h-211v452h211c24.813 0 45-20.187 45-45v-362c0-24.813-20.187-45-45-45z" fill="#ff6426"/><path d="m45 90c-8.271 0-15 6.729-15 15v362c0 8.271 6.729 15 15 15h422c8.271 0 15-6.729 15-15v-362c0-8.271-6.729-15-15-15z" fill="#fff5f5"/><path d="m467 90h-211v392h211c8.271 0 15-6.729 15-15v-362c0-8.271-6.729-15-15-15z" fill="#f5f0eb"/><g><path d="m426 359h-220c-8.284 0-15-6.716-15-15s6.716-15 15-15h220c8.284 0 15 6.716 15 15s-6.716 15-15 15z" fill="#ebe1dc"/></g><path d="m426 329h-170v30h170c8.284 0 15-6.716 15-15s-6.716-15-15-15z" fill="#dcd2cd"/><g><path d="m146 359h-60c-8.284 0-15-6.716-15-15s6.716-15 15-15h60c8.284 0 15 6.716 15 15s-6.716 15-15 15z" fill="#ebe1dc"/></g><g><path d="m426 419h-220c-8.284 0-15-6.716-15-15s6.716-15 15-15h220c8.284 0 15 6.716 15 15s-6.716 15-15 15z" fill="#ebe1dc"/></g><path d="m426 389h-170v30h170c8.284 0 15-6.716 15-15s-6.716-15-15-15z" fill="#dcd2cd"/><g><path d="m146 419h-60c-8.284 0-15-6.716-15-15s6.716-15 15-15h60c8.284 0 15 6.716 15 15s-6.716 15-15 15z" fill="#ebe1dc"/></g><g><path d="m175 181c-27.57 0-50 22.43-50 50s22.43 50 50 50 50-22.43 50-50-22.43-50-50-50zm0 80c-16.542 0-30-13.458-30-30s13.458-30 30-30 30 13.458 30 30-13.458 30-30 30z" fill="#738c96"/><path d="m403 181c-27.57 0-50 22.43-50 50s22.43 50 50 50 50-22.43 50-50-22.43-50-50-50zm0 80c-16.542 0-30-13.458-30-30s13.458-30 30-30 30 13.458 30 30-13.458 30-30 30z" fill="#55696e"/><path d="m113.181 181h-44.181c-5.523 0-10 4.477-10 10s4.477 10 10 10h12.001v70c0 5.523 4.477 10 10 10s10-4.477 10-10v-70h12.18c5.523 0 10-4.477 10-10s-4.477-10-10-10z" fill="#738c96"/><path d="m297.694 181h-22.658c-2.655 0-5.202 1.056-7.078 2.936s-2.927 4.428-2.922 7.083c0 0 .058 30.772.058 39.894 0 11.001.104 39.834.104 40.124.01 2.652 1.073 5.192 2.955 7.061 1.874 1.86 4.406 2.903 7.045 2.903h.038c.685-.002 16.84-.065 23.294-.178 24.03-.42 41.47-21.374 41.47-49.823 0-29.907-17.001-50-42.306-50zm.488 79.825c-2.99.052-8.269.094-13.018.124-.031-9.468-.071-23.208-.071-30.037 0-5.747-.023-20.079-.04-29.912h12.64c16.447 0 22.307 15.497 22.307 30 0 14.656-6.746 29.562-21.818 29.825z" fill="#55696e"/></g><path d="m326 40h-17.079c-6.545-23.061-27.792-40-52.921-40s-46.376 16.939-52.921 40h-17.079c-19.299 0-35 15.701-35 35v40c0 8.284 6.716 15 15 15h180c8.284 0 15-6.716 15-15v-40c0-19.299-15.701-35-35-35z" fill="#fff79f"/><path d="m256 130h90c8.284 0 15-6.716 15-15v-40c0-19.299-15.701-35-35-35h-17.079c-6.545-23.061-27.792-40-52.921-40z" fill="#ffde55"/></g></svg>