<svg id="Capa_1" enable-background="new 0 0 512 512" height="512" viewBox="0 0 512 512" width="512" xmlns="http://www.w3.org/2000/svg"><path d="m212.186 471.113c-.144 0-.288-.004-.433-.012-2.045-.115-3.963-1.037-5.328-2.565l-171.008-191.316c-1.365-1.527-2.068-3.535-1.954-5.581.115-2.045 1.037-3.963 2.565-5.328l30.594-27.346c3.182-2.846 8.066-2.567 10.909.612l171.009 191.313c2.844 3.181 2.57 8.065-.612 10.909l-30.594 27.347c-1.419 1.269-3.254 1.967-5.148 1.967zm-160.098-198.43 160.71 179.794 19.072-17.049-160.71-179.793z" fill="#8db9c2"/><path d="m271.148 492.166h-99.685v-34.732c0-27.527 22.315-49.842 49.842-49.842 27.527 0 49.842 22.315 49.842 49.842v34.732z" fill="#7ba0b0"/><path d="m221.306 407.591c-6.315 0-12.35 1.187-17.91 3.329 18.675 7.196 31.932 25.301 31.932 46.513v34.732h35.821v-34.732c-.001-27.527-22.316-49.842-49.843-49.842z" fill="#688b96"/><path d="m403.24 463.845h-239.343c-18.918 0-34.253 15.336-34.253 34.253 0 7.678 6.224 13.902 13.902 13.902h280.046c7.678 0 13.902-6.224 13.902-13.902-.001-18.918-15.337-34.253-34.254-34.253z" fill="#688b96"/><path d="m403.24 463.845h-36.279c18.918 0 34.253 15.336 34.253 34.253v13.902h22.377c7.678 0 13.902-6.224 13.902-13.902 0-18.918-15.335-34.253-34.253-34.253z" fill="#557981"/><path d="m69.824 290.466c-1.977 0-3.955-.755-5.464-2.263l-29.017-29.017c-1.449-1.45-2.263-3.414-2.263-5.464s.814-4.014 2.263-5.464l203.432-203.43c3.014-3.014 7.897-3.018 10.918-.01l29.069 28.963c1.453 1.449 2.271 3.415 2.273 5.467s-.812 4.02-2.263 5.471l-203.484 203.484c-1.509 1.508-3.487 2.263-5.464 2.263zm-18.091-36.744 18.091 18.091 192.547-192.547-18.123-18.056z" fill="#97e4f9"/><path d="m69.824 290.466c-1.977 0-3.955-.755-5.464-2.263l-29.017-29.017c-1.449-1.45-2.263-3.414-2.263-5.464s.814-4.014 2.263-5.464l203.432-203.43c3.014-3.014 7.897-3.018 10.918-.01l29.069 28.963c1.453 1.449 2.271 3.415 2.273 5.467s-.812 4.02-2.263 5.471l-203.484 203.484c-1.509 1.508-3.487 2.263-5.464 2.263zm-18.091-36.744 18.091 18.091 192.547-192.547-18.123-18.056z" fill="#8db9c2"/><path d="m110.401 251.37-44.031-25.421c-15.082-8.708-33.936 2.177-33.936 19.593v50.843c0 17.416 18.853 28.301 33.936 19.593l44.031-25.421c15.082-8.709 15.082-30.479 0-39.187z" fill="#557981"/><ellipse cx="385.102" cy="203.218" fill="#fbd307" rx="50.544" ry="50.544" transform="matrix(.706 -.708 .708 .706 -30.668 332.585)"/><path d="m338.56 76.997-69.194-68.943c-10.806-10.767-28.293-10.735-39.06.071l-41.736 41.888c-10.767 10.806-10.735 28.293.071 39.06l69.194 68.943z" fill="#557981"/><path d="m477.857 118.257c-48.38-46.117-108.67-67.076-156.95-58.85l-80.092 81.656c-7.362 48.045 13.85 107.502 59.653 155.209 2.142 2.231 5.703 2.272 7.886.081l169.6-170.218c2.185-2.193 2.144-5.743-.097-7.878z" fill="#688b96"/><path d="m477.857 118.257c-48.38-46.117-108.67-67.076-156.95-58.85 34.359 4.572 66.235 20.523 91.111 39.649 13.517 10.393 14.809 30.313 2.775 42.391l-132.775 133.258c5.624 7.389 11.767 14.606 18.45 21.567 2.142 2.231 5.703 2.272 7.886.081l169.6-170.218c2.185-2.193 2.144-5.743-.097-7.878z" fill="#557981"/><g fill="#c7eefb"><path d="m271.008 71.705c-1.973 0-3.946-.751-5.454-2.254l-24.862-24.771c-3.022-3.011-3.031-7.903-.019-10.927 3.011-3.024 7.902-3.033 10.927-.019l24.862 24.772c3.022 3.011 3.031 7.903.019 10.927-1.509 1.514-3.491 2.272-5.473 2.272z"/><path d="m244.364 98.446c-1.973 0-3.946-.751-5.454-2.254l-24.862-24.772c-3.022-3.011-3.031-7.903-.019-10.927 3.011-3.024 7.903-3.033 10.927-.019l24.862 24.772c3.022 3.011 3.031 7.903.019 10.927-1.509 1.514-3.491 2.273-5.473 2.273z"/></g></svg>