<svg id="Capa_1" enable-background="new 0 0 512 512" height="512" viewBox="0 0 512 512" width="512" xmlns="http://www.w3.org/2000/svg"><g><g fill="#acacac"><path d="m249.827 262.172c-44.037-44.027-115.42-44.027-159.447 0l-57.36 57.36c-44.027 44.027-44.027 115.42 0 159.447s115.42 44.027 159.447 0l57.36-57.36c22.019-22.008 33.023-50.868 33.023-79.718 0-28.861-11.004-57.711-33.023-79.729zm-38.803 130.824-47.18 47.18c-25.408 25.419-66.612 25.419-92.021 0-25.419-25.409-25.419-66.612 0-92.021l47.18-47.18c25.408-25.419 66.612-25.419 92.021 0 12.704 12.704 19.062 29.355 19.062 46.005-.001 16.661-6.358 33.311-19.062 46.016z"/><path d="m478.977 33.021c-44.027-44.027-115.42-44.027-159.447 0l-57.36 57.36c-44.027 44.027-44.027 115.41 0 159.447 44.037 44.027 115.42 44.027 159.447 0l57.36-57.36c22.019-22.008 33.023-50.868 33.023-79.728 0-28.85-11.004-57.7-33.023-79.719zm-38.803 130.824-47.18 47.18c-25.409 25.419-66.612 25.419-92.021 0-25.419-25.409-25.419-66.612 0-92.021l47.18-47.18c25.409-25.419 66.612-25.419 92.021 0 12.704 12.704 19.062 29.355 19.062 46.005 0 16.662-6.358 33.312-19.062 46.016z"/></g><g fill="#9c9c9c"><path d="m249.827 262.172c-2.493-2.493-5.069-4.843-7.728-7.048 17.289 20.813 25.934 46.376 25.934 71.96 0 28.85-11.004 57.71-33.023 79.718l-57.36 57.36c-41.523 41.523-107.404 43.883-151.688 7.058 2.195 2.669 4.554 5.255 7.058 7.759 44.027 44.027 115.42 44.027 159.447 0l57.36-57.36c22.019-22.008 33.023-50.868 33.023-79.718 0-28.861-11.004-57.711-33.023-79.729z"/><path d="m478.977 33.021c-2.493-2.493-5.069-4.842-7.728-7.047 17.289 20.813 25.934 46.376 25.934 71.95 0 28.86-11.004 57.72-33.023 79.729l-57.36 57.36c-41.523 41.523-107.394 43.883-151.688 7.058 2.195 2.669 4.554 5.255 7.058 7.759 44.037 44.027 115.42 44.027 159.447 0l57.36-57.36c22.019-22.01 33.023-50.87 33.023-79.73 0-28.85-11.004-57.7-33.023-79.719z"/></g><path d="m175.25 336.749c-10.635-10.635-10.635-27.876 0-38.511l122.987-122.987c10.635-10.635 27.876-10.635 38.511 0 10.635 10.635 10.635 27.876 0 38.511l-122.987 122.987c-10.635 10.634-27.877 10.634-38.511 0z" fill="#838383"/><path d="m344.722 194.509c0 6.965-2.658 13.941-7.975 19.257l-122.982 122.983c-10.633 10.633-27.881 10.633-38.515 0-2.72-2.72-4.74-5.873-6.069-9.232 9.788 3.854 21.349 1.834 29.272-6.079l122.983-122.983c5.317-5.327 7.975-12.292 7.975-19.257 0-3.4-.629-6.811-1.896-10.015 3.359 1.329 6.512 3.349 9.232 6.069 5.317 5.316 7.975 12.292 7.975 19.257z" fill="#5a5a5a"/></g></svg>