<svg id="Capa_1" enable-background="new 0 0 512 512" height="512" viewBox="0 0 512 512" width="512" xmlns="http://www.w3.org/2000/svg"><path d="m495.712 317.736-45.739-26.408c2.054-11.574 3.092-23.354 3.092-35.152 0-11.902-1.058-23.789-3.15-35.471l45.798-26.441c3.445-1.989 5.959-5.266 6.989-9.108 1.029-3.843.49-7.937-1.499-11.382l-52.855-91.547c-4.142-7.175-13.316-9.634-20.49-5.49l-45.919 26.512c-18.084-15.229-38.856-27.226-61.011-35.234v-53.015c0-8.284-6.716-15-15-15h-105.71c-8.284 0-15 6.716-15 15v53.014c-22.154 8.009-42.927 20.006-61.011 35.234l-45.919-26.512c-7.176-4.145-16.348-1.684-20.49 5.49l-52.856 91.547c-1.989 3.445-2.528 7.539-1.499 11.382 1.03 3.843 3.544 7.119 6.989 9.108l45.798 26.441c-2.093 11.682-3.15 23.568-3.15 35.471 0 11.798 1.038 23.578 3.092 35.152l-45.739 26.408c-7.175 4.143-9.633 13.316-5.49 20.49l52.855 91.547c4.144 7.176 13.317 9.634 20.49 5.49l45.67-26.367c18.141 15.327 39.001 27.395 61.26 35.441v52.664c0 8.284 6.716 15 15 15h105.709c8.284 0 15-6.716 15-15v-52.662c22.259-8.046 43.119-20.114 61.26-35.441l45.67 26.367c7.173 4.142 16.348 1.684 20.49-5.49l52.855-91.547c4.143-7.174 1.685-16.348-5.49-20.491zm-242.64 49.94c-61.58 0-111.5-49.92-111.5-111.5s49.92-111.5 111.5-111.5 111.5 49.92 111.5 111.5-49.92 111.5-111.5 111.5z" fill="#2698d1"/><path d="m495.712 317.736-45.739-26.408c2.054-11.574 3.092-23.354 3.092-35.152 0-11.902-1.058-23.789-3.15-35.471l45.798-26.441c3.445-1.989 5.959-5.266 6.989-9.108 1.029-3.843.49-7.937-1.499-11.382l-52.855-91.547c-4.142-7.175-13.316-9.634-20.49-5.49l-45.919 26.512c-18.084-15.229-38.856-27.226-61.011-35.234v-53.015c0-8.284-6.716-15-15-15h-52.863v144.676h.009c61.58 0 111.5 49.92 111.5 111.5s-49.92 111.5-111.5 111.5c-.003 0-.006 0-.009 0v144.324h52.863c8.284 0 15-6.716 15-15v-52.662c22.259-8.046 43.119-20.114 61.26-35.441l45.67 26.367c7.173 4.142 16.348 1.684 20.49-5.49l52.855-91.547c4.142-7.174 1.684-16.348-5.491-20.491z" fill="#1a82c7"/><path d="m253.072 382.676c-69.752 0-126.5-56.748-126.5-126.5s56.748-126.5 126.5-126.5 126.5 56.748 126.5 126.5-56.748 126.5-126.5 126.5zm0-223c-53.21 0-96.5 43.29-96.5 96.5s43.29 96.5 96.5 96.5 96.5-43.29 96.5-96.5-43.29-96.5-96.5-96.5z" fill="#72c5fc"/><path d="m253.072 129.676c-.003 0-.006 0-.009 0v30h.009c53.21 0 96.5 43.29 96.5 96.5s-43.29 96.5-96.5 96.5c-.003 0-.006 0-.009 0v30h.009c69.752 0 126.5-56.748 126.5-126.5s-56.748-126.5-126.5-126.5z" fill="#37a8e5"/><path d="m399.069 220.225c-60.654 0-110.001-49.346-110.001-110s49.347-110 110.001-110 110.001 49.346 110.001 110-49.346 110-110.001 110z" fill="#ff674f"/><path d="m401.256.252v219.944c59.649-1.17 107.814-50.049 107.814-109.972s-48.166-108.802-107.814-109.972z" fill="#f2472c"/><path d="m401.256 160c-8.284 0-15-6.716-15-15v-43.451c-6.176 1.626-12.943-.842-16.517-6.535-4.405-7.016-2.289-16.274 4.727-20.68l18.813-11.813c4.624-2.904 10.457-3.064 15.234-.424 4.777 2.641 7.742 7.669 7.742 13.127v69.776c.001 8.284-6.715 15-14.999 15z" fill="#fff"/><path d="m408.514 62.097c-2.263-1.25-4.762-1.864-7.258-1.864v99.767c8.284 0 15-6.716 15-15v-69.775c0-5.459-2.965-10.487-7.742-13.128z" fill="#ffdaab"/></svg>