<svg id="Capa_1" enable-background="new 0 0 512 512" height="512" viewBox="0 0 512 512" width="512" xmlns="http://www.w3.org/2000/svg"><g><path d="m61.484 369.258c0 4.139-3.373 7.484-7.512 7.484s-7.483-3.346-7.483-7.484v-57.996l-17.888 17.887c-2.919 2.919-7.682 2.919-10.602 0-2.948-2.92-2.948-7.683 0-10.602l28.489-28.488v-18.794l-10.461 10.46c-2.92 2.92-7.682 2.92-10.602 0-2.92-2.948-2.92-7.682 0-10.602l21.062-21.061v-18.794l-3.033 3.033c-2.92 2.92-7.683 2.92-10.603 0-2.919-2.948-2.919-7.682 0-10.63l15.79-15.761c1.417-1.445 3.316-2.239 5.329-2.239s3.94.794 5.357 2.211l15.789 15.789c2.92 2.948 2.92 7.682 0 10.63-2.948 2.92-7.682 2.92-10.602 0l-3.033-3.033v18.794l21.061 21.061c2.92 2.92 2.92 7.653 0 10.602-2.919 2.92-7.682 2.92-10.602 0l-10.46-10.46v18.794l28.488 28.488c2.92 2.919 2.92 7.682 0 10.602-2.92 2.919-7.682 2.919-10.602 0l-17.887-17.887v57.996z" fill="#5aa687"/><path d="m465.539 369.258c0 4.139-3.373 7.484-7.512 7.484s-7.512-3.346-7.512-7.484v-57.996l-17.858 17.887c-2.948 2.919-7.683 2.919-10.63 0-2.92-2.92-2.92-7.683 0-10.602l28.488-28.488v-18.794l-10.432 10.46c-2.948 2.92-7.682 2.92-10.602 0-2.948-2.948-2.948-7.682 0-10.602l21.033-21.061v-18.794l-3.005 3.033c-2.92 2.92-7.683 2.92-10.602 0-2.948-2.948-2.948-7.682 0-10.63l15.761-15.761c1.417-1.445 3.345-2.239 5.357-2.239 2.013 0 3.939.794 5.329 2.211l15.79 15.789c2.948 2.948 2.948 7.682 0 10.63-2.92 2.92-7.653 2.92-10.602 0l-3.006-3.033v18.794l21.062 21.061c2.919 2.92 2.919 7.653 0 10.602-2.948 2.92-7.683 2.92-10.63 0l-10.433-10.46v18.794l28.489 28.488c2.92 2.919 2.92 7.682 0 10.602-2.948 2.919-7.682 2.919-10.602 0l-17.888-17.887v57.996z" fill="#5aa687"/><path clip-rule="evenodd" d="m256 104.36 83.51 132.435 83.51 132.463-167.02 9.609-167.02-9.609 83.51-132.463z" fill="#3291bc" fill-rule="evenodd"/><path d="m351.075 107.705h-35.858c-4.337 0-7.853-3.77-7.909-8.447-.708-6.718-3.713-12.726-8.106-17.064-4.508-4.45-10.489-7.172-17.065-7.172h-21.09c-4.365 0-7.881-3.798-7.881-8.531 0-7.513-2.862-14.344-7.455-19.276-4.592-4.96-10.913-8.05-17.858-8.05h-31.097c-6.945 0-13.266 3.09-17.858 8.05-4.592 4.933-7.455 11.764-7.455 19.276 0 4.733-3.543 8.531-7.908 8.531h-10.007c-6.576 0-12.558 2.722-17.064 7.172-4.535 4.479-7.597 10.744-8.164 17.717-.368 4.422-3.799 7.767-7.853 7.767l-5.272.028c-6.944 0-13.267 3.09-17.858 8.022-4.592 4.96-7.427 11.792-7.427 19.304s2.835 14.344 7.427 19.305c4.592 4.96 10.914 8.021 17.858 8.021h235.902c6.944 0 13.266-3.062 17.858-8.021 4.592-4.961 7.455-11.793 7.455-19.305s-2.863-14.344-7.455-19.304c-4.594-4.933-10.915-8.023-17.86-8.023z" fill="#ddf6ff"/><g clip-rule="evenodd" fill-rule="evenodd"><path d="m115.173 162.357h235.902c6.944 0 13.266-3.062 17.858-8.021 4.592-4.961 7.455-11.793 7.455-19.305 0-4.479-1.021-8.759-2.835-12.5-1.219 2.522-2.778 4.818-4.62 6.803-4.593 4.961-10.914 8.021-17.858 8.021h-235.902c-6.944 0-13.267-3.061-17.858-8.021-1.843-1.984-3.401-4.28-4.62-6.803-1.786 3.769-2.807 8.021-2.807 12.5 0 7.512 2.835 14.344 7.427 19.305 4.591 4.96 10.914 8.021 17.858 8.021z" fill="#cfecf7"/><path d="m259.997 110.71c-2.75-4.365-5.018-4.705-7.994 0l-60.407 95.783 33.705-9.496c5.074-1.417 8.957.311 11.679 3.997l14.57 19.729c3.515 4.762 5.414 4.762 8.9 0l14.57-19.729c2.977-4.025 7.002-5.33 11.679-3.997l33.705 9.496z" fill="#89bad5"/><path d="m243.499 124.175 24.066 38.183 22.45 35.574 30.389 8.562-27.838-44.136-32.569-51.647c-2.75-4.365-5.018-4.705-7.994 0z" fill="#80b3cf"/><path d="m320.404 206.493-30.388-8.561 24.492 38.863 83.51 132.463h25.002l-83.51-132.463z" fill="#2b89b5"/><path d="m51.79 472.836h408.42c28.489 0 51.79-23.301 51.79-51.789 0-28.488-23.301-51.789-51.79-51.789h-408.42c-28.489 0-51.79 23.301-51.79 51.789 0 28.488 23.301 51.789 51.79 51.789z" fill="#b3e59f"/><path d="m51.79 472.836h408.42c28.489 0 51.79-23.301 51.79-51.789 0-20.664-12.274-38.607-29.878-46.913 3.119 6.661 4.876 14.088 4.876 21.912 0 28.487-23.302 51.788-51.79 51.788h-427.696c9.128 14.968 25.596 25.002 44.278 25.002z" fill="#95d6a4"/></g></g></svg>