<?xml version="1.0" encoding="iso-8859-1"?>
<!-- Generator: Adobe Illustrator 19.0.0, SVG Export Plug-In . SVG Version: 6.00 Build 0)  -->
<svg version="1.1" id="Layer_1" xmlns="http://www.w3.org/2000/svg" xmlns:xlink="http://www.w3.org/1999/xlink" x="0px" y="0px"
	 viewBox="0 0 512 512" style="enable-background:new 0 0 512 512;" xml:space="preserve">
<path style="fill:#BCBEC0;" d="M256,148.27c-9.22,0-16.696-7.475-16.696-16.696V16.696C239.304,7.475,246.78,0,256,0
	c9.22,0,16.696,7.475,16.696,16.696v114.878C272.696,140.794,265.22,148.27,256,148.27z"/>
<g>
	<path style="fill:#808285;" d="M256,0v148.27c9.22,0,16.696-7.475,16.696-16.696V16.696C272.696,7.475,265.22,0,256,0z"/>
	<path style="fill:#808285;" d="M303.236,232.73c-13.785-10.039-30.12-15.344-47.236-15.344s-33.453,5.306-47.236,15.344
		c-11.019,8.022-26.524,0.127-26.524-13.497v-30.594c0-40.672,33.09-73.76,73.761-73.76s73.761,33.089,73.761,73.76v30.594
		C329.761,232.915,314.191,240.705,303.236,232.73z"/>
</g>
<path style="fill:#414042;" d="M256,114.878v102.508c17.117,0,33.452,5.306,47.236,15.344c10.955,7.975,26.524,0.186,26.524-13.497
	v-30.595C329.761,147.967,296.672,114.878,256,114.878z"/>
<path style="fill:#FEE856;" d="M256,411.578c-62.746,0-113.792-51.046-113.792-113.792c0-61.696,49.963-113.792,113.792-113.792
	c63.816,0,113.792,52.079,113.792,113.792C369.792,360.531,318.746,411.578,256,411.578z"/>
<path style="fill:#FFCE3E;" d="M256,183.995v227.584c62.746,0,113.792-51.046,113.792-113.792
	C369.792,236.074,319.816,183.995,256,183.995z"/>
<path style="fill:#FEE856;" d="M256,512c-9.22,0-16.696-7.475-16.696-16.696V453.25c0-9.22,7.475-16.696,16.696-16.696
	c9.22,0,16.696,7.475,16.696,16.696v42.054C272.696,504.525,265.22,512,256,512z"/>
<path style="fill:#FFCE3E;" d="M256,436.555V512c9.22,0,16.696-7.475,16.696-16.696V453.25
	C272.696,444.03,265.22,436.555,256,436.555z"/>
<g>
	<path style="fill:#FEE856;" d="M100.535,314.48H58.48c-9.22,0-16.696-7.475-16.696-16.696c0-9.22,7.475-16.696,16.696-16.696
		h42.054c9.22,0,16.696,7.475,16.696,16.696C117.23,307.005,109.755,314.48,100.535,314.48z"/>
	<path style="fill:#FEE856;" d="M104.527,449.258c-6.52-6.52-6.52-17.091,0-23.611l29.737-29.737c6.519-6.52,17.091-6.52,23.611,0
		c6.52,6.52,6.52,17.091,0,23.611l-29.737,29.737C121.619,455.777,111.047,455.778,104.527,449.258z"/>
</g>
<path style="fill:#FFCE3E;" d="M272.332,274.571c3.547,8.521,13.325,12.541,21.828,9.001c8.514-3.542,12.544-13.314,9.002-21.828
	l-31.746-76.304c-0.06-0.144-0.13-0.279-0.194-0.42c-10.149-1.351-20.075-1.38-30.443,0c-0.063,0.141-0.134,0.277-0.194,0.421
	l-31.746,76.304c-3.542,8.514,0.488,18.286,9.002,21.828c8.511,3.543,18.286-0.488,21.828-9.001L256,235.316L272.332,274.571z"/>
<path style="fill:#F59D00;" d="M303.162,261.743l-31.746-76.304c-0.06-0.144-0.13-0.279-0.194-0.42
	c-5.102-0.679-10.148-1.023-15.222-1.023v51.32l16.332,39.255c3.547,8.521,13.325,12.541,21.828,9.001
	C302.674,280.029,306.704,270.257,303.162,261.743z"/>
<g>
	<path style="fill:#FFCE3E;" d="M383.862,449.258l-29.737-29.737c-6.52-6.52-6.52-17.091,0-23.611c6.519-6.52,17.091-6.52,23.611,0
		l29.737,29.737c6.52,6.52,6.52,17.091,0,23.611C400.954,455.777,390.382,455.778,383.862,449.258z"/>
	<path style="fill:#FFCE3E;" d="M453.52,314.48h-42.054c-9.22,0-16.696-7.475-16.696-16.696c0-9.22,7.475-16.696,16.696-16.696
		h42.054c9.22,0,16.696,7.475,16.696,16.696C470.215,307.005,462.74,314.48,453.52,314.48z"/>
</g>
<g>
</g>
<g>
</g>
<g>
</g>
<g>
</g>
<g>
</g>
<g>
</g>
<g>
</g>
<g>
</g>
<g>
</g>
<g>
</g>
<g>
</g>
<g>
</g>
<g>
</g>
<g>
</g>
<g>
</g>
</svg>
