<svg height="512pt" viewBox="-1 0 512 512" width="512pt" xmlns="http://www.w3.org/2000/svg"><g fill-rule="evenodd"><path d="m254.984375 512 211.121094-.261719c28.273437-.027343 43.894531-20.425781 43.894531-41.929687v-270.203125c0-16.992188-13.902344-30.902344-30.890625-30.902344h-448.246094c-16.988281 0-30.863281 13.910156-30.863281 30.902344v270.203125c0 21.503906 15.589844 41.902344 43.894531 41.929687zm0 0" fill="#8ebfe8"/><path d="m471.027344 161.078125v291.070313h-216.039063v-304.277344c2.238281-1.292969 4.816407-2.558594 7.75-3.769532 18.992188-7.867187 52.703125-13.824218 102.429688-15.230468 38.511719 1.070312 60.503906 3.953125 81.273437 9.859375 18.355469 5.207031 24.585938 6.871093 24.585938 22.347656zm0 0" fill="#eceff1"/><path d="m285.117188 284.601562-22.378907 124.464844-7.75 43.082032h-216.015625v-291.070313c0-15.476563 6.230469-17.140625 24.554688-22.347656 20.800781-5.90625 42.761718-8.792969 81.304687-9.859375 49.71875 1.40625 83.40625 7.351562 102.398438 15.21875 2.9375 1.222656 5.523437 2.484375 7.757812 3.78125l7.75 35.160156zm0 0" fill="#eceff1"/><path d="m54.945312 472.804688h200.039063l11.957031-11.957032-11.957031-8.703125c-34.03125-19.757812-148.171875-31.191406-216.007813 0v4.25c0 9.019531 7.1875 16.410157 15.96875 16.410157zm0 0" fill="#90a4ae"/><path d="m471.023438 452.144531c-67.863282-31.191406-181.976563-19.757812-216.039063 0v20.660157h200.039063c8.785156 0 15.996093-7.390626 15.996093-16.410157v-4.25zm0 0" fill="#90a4ae"/><path d="m332.679688 215.113281 24.203124 14.375 24.226563-14.375h1.863281c0-41.957031 40.605469-47.371093 40.550782-92.5-.058594-43.007812-33.335938-64.164062-66.640626-63.667969-33.277343-.496093-66.554687 20.660157-66.613281 63.667969-.058593 45.128907 40.546875 50.542969 40.546875 92.5zm0 0" fill="#fcd968"/><path d="m398.359375 122.613281c.058594 45.128907-40.546875 50.542969-40.546875 92.5h25.160156c0-41.957031 40.605469-47.371093 40.546875-92.5-.054687-43.007812-33.332031-64.164062-66.640625-63.667969-4.1875-.085937-8.40625.203126-12.566406.84375 28.625 4.394532 54.019531 25.285157 54.046875 62.824219zm0 0" fill="#e6a235"/><path d="m440.335938 168.703125v272.792969c10.878906 2.792968 21.230468 6.285156 30.6875 10.648437v-291.066406c0-15.480469-6.226563-17.136719-24.582032-22.347656-2.003906-.582031-4.042968-1.132813-6.105468-1.65625zm0 0" fill="#c4cccf"/><path d="m471.023438 452.144531c-9.457032-4.363281-19.808594-7.855469-30.6875-10.648437v31.308594h14.6875c8.785156 0 15.996093-7.390626 15.996093-16.410157v-4.25zm0 0" fill="#7c8c94"/><path d="m471.023438 456.394531c0 9.019531-7.214844 16.410157-16 16.410157h-14.6875v38.960937l25.769531-.027344c28.273437-.027343 43.894531-20.425781 43.894531-41.929687v-270.203125c0-16.992188-13.902344-30.902344-30.890625-30.902344h-8.085937zm0 0" fill="#519ad6"/></g><path d="m78.746094 326.640625c-2.933594 0-5.742188-1.675781-7.050782-4.519531-1.792968-3.894532-.085937-8.503906 3.804688-10.296875 27.003906-12.429688 60.910156-13.25 78.714844-12.632813 26.707031.925782 50.863281 5.898438 63.039062 12.972656 3.707032 2.152344 4.964844 6.902344 2.8125 10.609376-2.148437 3.710937-6.894531 4.96875-10.601562 2.816406-18.683594-10.855469-86.914063-18.328125-127.484375.339844-1.046875.484374-2.148438.710937-3.234375.710937zm0 0" fill="#37474f"/><path d="m78.746094 383.613281c-2.933594 0-5.742188-1.675781-7.050782-4.519531-1.792968-3.894531-.085937-8.503906 3.804688-10.296875 27.003906-12.429687 60.910156-13.25 78.714844-12.632813 26.707031.929688 50.863281 5.898438 63.039062 12.972657 3.707032 2.152343 4.964844 6.902343 2.8125 10.609375-2.148437 3.710937-6.894531 4.96875-10.601562 2.816406-18.683594-10.851562-86.914063-18.332031-127.484375.339844-1.046875.484375-2.148438.710937-3.234375.710937zm0 0" fill="#37474f"/><path d="m78.746094 269.667969c-2.933594 0-5.742188-1.675781-7.050782-4.519531-1.792968-3.890626-.089843-8.503907 3.800782-10.296876 27-12.445312 60.910156-13.265624 78.722656-12.644531 26.699219.929688 50.851562 5.902344 63.035156 12.980469 3.707032 2.152344 4.964844 6.90625 2.8125 10.613281-2.148437 3.707031-6.894531 4.964844-10.601562 2.816407-18.699219-10.867188-86.941406-18.351563-127.480469.335937-1.050781.484375-2.152344.714844-3.238281.714844zm0 0" fill="#37474f"/><path d="m431.222656 326.640625c-1.082031 0-2.1875-.226563-3.238281-.710937-40.566406-18.6875-108.773437-11.203126-127.449219-.339844-3.699218 2.152344-8.449218.898437-10.601562-2.8125-2.152344-3.703125-.898438-8.457032 2.808594-10.613282 12.160156-7.074218 36.3125-12.046874 63.027343-12.972656 17.804688-.621094 51.714844.207032 78.703125 12.632813 3.890625 1.792969 5.59375 6.402343 3.800782 10.296875-1.304688 2.84375-4.113282 4.519531-7.050782 4.519531zm0 0" fill="#37474f"/><path d="m431.222656 383.613281c-1.082031 0-2.1875-.226562-3.238281-.710937-40.566406-18.6875-108.773437-11.203125-127.449219-.339844-3.699218 2.152344-8.449218.898438-10.601562-2.808594-2.152344-3.707031-.898438-8.457031 2.808594-10.613281 12.160156-7.078125 36.3125-12.050781 63.027343-12.976563 17.804688-.617187 51.714844.207032 78.703125 12.632813 3.890625 1.792969 5.59375 6.402344 3.800782 10.300781-1.304688 2.839844-4.113282 4.515625-7.050782 4.515625zm0 0" fill="#37474f"/><path d="m262.738281 144.101562v308.046876c0 4.28125-3.46875 7.765624-7.75 7.765624-4.289062 0-7.757812-3.480468-7.757812-7.765624v-308.058594c2.933593 1.222656 5.523437 2.484375 7.757812 3.78125 2.238281-1.292969 4.8125-2.558594 7.75-3.769532zm0 0" fill="#90a4ae"/><path d="m376.804688 138.039062h-40.632813c-4.285156 0-7.757813 3.476563-7.757813 7.765626 0 4.285156 3.472657 7.761718 7.757813 7.761718h12.953125v61.546875c0 4.285157 3.472656 7.761719 7.757812 7.761719 4.28125 0 7.753907-3.476562 7.753907-7.761719v-61.546875h12.167969c4.285156 0 7.757812-3.476562 7.757812-7.761718 0-4.289063-3.472656-7.765626-7.757812-7.765626zm0 0" fill="#eceff1"/><path d="m356.9375 35.894531c-4.28125 0-7.753906-3.476562-7.753906-7.761719v-20.371093c0-4.285157 3.472656-7.761719 7.753906-7.761719 4.285156 0 7.757812 3.476562 7.757812 7.761719v20.371093c0 4.285157-3.472656 7.761719-7.757812 7.761719zm0 0" fill="#fcd968"/><path d="m290.9375 54.050781c-1.984375 0-3.96875-.757812-5.484375-2.273437l-14.425781-14.429688c-3.03125-3.03125-3.03125-7.949218-.003906-10.980468 3.03125-3.03125 7.941406-3.03125 10.96875-.003907l14.429687 14.433594c3.03125 3.03125 3.03125 7.945313.003906 10.980469-1.515625 1.515625-3.5 2.273437-5.488281 2.273437zm0 0" fill="#fcd968"/><path d="m422.941406 54.050781c-1.984375 0-3.96875-.753906-5.480468-2.269531-3.03125-3.027344-3.035157-7.945312-.011719-10.976562l14.398437-14.433594c3.027344-3.035156 7.9375-3.039063 10.96875-.011719 3.03125 3.03125 3.035156 7.945313.011719 10.980469l-14.398437 14.433594c-1.515626 1.519531-3.503907 2.277343-5.488282 2.277343zm0 0" fill="#fcd968"/><path d="m78.746094 212.664062c-2.933594 0-5.742188-1.675781-7.050782-4.519531-1.792968-3.894531-.085937-8.503906 3.804688-10.296875 26.996094-12.425781 60.910156-13.238281 78.71875-12.621094 26.691406.929688 50.84375 5.894532 63.027344 12.957032 3.707031 2.148437 4.972656 6.898437 2.824218 10.605468-2.144531 3.714844-6.894531 4.976563-10.597656 2.828126-18.710937-10.84375-86.964844-18.316407-127.492187.335937-1.046875.484375-2.148438.710937-3.234375.710937zm0 0" fill="#37474f"/><path d="m356.882812 215.113281h-24.203124c-10.5 0-19.050782 8.585938-19.050782 19.058594 0 10.476563 8.550782 19.03125 19.050782 19.03125h48.433593c10.472657 0 19.050781-8.554687 19.050781-19.03125 0-10.472656-8.578124-19.058594-19.050781-19.058594zm0 0" fill="#c4cccf" fill-rule="evenodd"/><path d="m400.164062 234.171875c0-10.472656-8.582031-19.058594-19.054687-19.058594h-25.160156c5.671875 0 10.792969 2.503907 14.28125 6.460938 2.96875 3.375 4.773437 7.769531 4.773437 12.597656 0 10.476563-8.554687 19.03125-19.054687 19.03125h25.160156c10.472656 0 19.054687-8.554687 19.054687-19.03125zm0 0" fill="#90a4ae" fill-rule="evenodd"/></svg>