<?xml version="1.0" encoding="iso-8859-1"?>
<!-- Generator: Adobe Illustrator 19.0.0, SVG Export Plug-In . SVG Version: 6.00 Build 0)  -->
<svg version="1.1" id="Capa_1" xmlns="http://www.w3.org/2000/svg" xmlns:xlink="http://www.w3.org/1999/xlink" x="0px" y="0px"
	 viewBox="0 0 511.999 511.999" style="enable-background:new 0 0 511.999 511.999;" xml:space="preserve">
<path style="fill:#17ACE8;" d="M17.442,102.409l201.78,201.743h21.225l63.675-63.675v-21.225L102.342,17.51
	c-23.347-23.347-61.553-23.347-84.9,0C5.768,29.184-0.176,44.464,0.038,59.96C-0.176,75.454,5.768,90.736,17.442,102.409z"/>
<path style="fill:#1689FC;" d="M240.446,304.153l31.838-31.838L17.442,17.51C5.768,29.184-0.176,44.464,0.038,59.96
	c-0.214,15.496,5.73,30.776,17.404,42.45l201.78,201.743L240.446,304.153L240.446,304.153z"/>
<g>
	<polygon style="fill:#08469C;" points="219.221,304.153 252.879,337.811 273.467,338.448 335.868,276.048 337.779,252.912 
		304.121,219.253 	"/>
	<polygon style="fill:#08469C;" points="219.221,304.153 252.879,337.811 273.467,338.448 305.942,305.974 261.671,261.703 	"/>
</g>
<path style="fill:#CAE8F9;" d="M312.309,458.369l176.804,52.002l21.225-21.225l-52.002-176.804
	c-1.486-4.457-4.669-8.065-8.914-9.764l-111.644-49.666l-84.9,84.9l49.666,111.644C304.244,453.7,307.852,456.883,312.309,458.369z"
	/>
<path style="fill:#A4D9F5;" d="M312.309,458.369l176.804,52.002l10.613-10.613L295.329,295.361l-42.45,42.45l49.666,111.644
	C304.244,453.7,307.852,456.883,312.309,458.369z"/>
<g>
	<path style="fill:#0F60CF;" d="M380.229,401.486l108.884,108.884l3.608,1.061c5.308,1.486,11.037,0,14.857-3.82
		c3.82-3.82,5.306-9.55,3.82-14.857l-1.061-3.608L401.455,380.261c-5.943-5.943-15.281-5.943-21.225,0
		C374.286,386.205,374.286,395.543,380.229,401.486z"/>
	<path style="fill:#0F60CF;" d="M359.004,401.486c11.673,11.673,30.776,11.673,42.45,0c11.673-11.673,11.673-30.776,0-42.45
		s-30.776-11.673-42.45,0C347.331,370.71,347.331,389.813,359.004,401.486z"/>
</g>
<g>
	<path style="fill:#0A4EAF;" d="M359.004,401.486c11.673,11.673,30.776,11.673,42.45,0l-42.45-42.45
		C347.331,370.71,347.331,389.813,359.004,401.486z"/>
	<path style="fill:#0A4EAF;" d="M380.229,401.486l108.884,108.884l3.608,1.061c5.308,1.486,11.037,0,14.857-3.82l-127.35-127.35
		C374.286,386.205,374.286,395.543,380.229,401.486z"/>
</g>
<g>
</g>
<g>
</g>
<g>
</g>
<g>
</g>
<g>
</g>
<g>
</g>
<g>
</g>
<g>
</g>
<g>
</g>
<g>
</g>
<g>
</g>
<g>
</g>
<g>
</g>
<g>
</g>
<g>
</g>
</svg>
