<svg id="Layer_1" enable-background="new 0 0 512 512" height="512" viewBox="0 0 512 512" width="512" xmlns="http://www.w3.org/2000/svg"><g><g><path d="m507.582 4.395c-5.857-5.857-15.355-5.857-21.213 0l-32.762 32.762c-5.858 5.857-5.858 15.355 0 21.213 2.929 2.928 6.768 4.393 10.606 4.393s7.678-1.465 10.606-4.393l32.762-32.762c5.859-5.858 5.859-15.356.001-21.213z" fill="#ca6d36"/><path d="m453.607 58.369c2.929 2.928 6.768 4.393 10.606 4.393s7.678-1.465 10.606-4.393l32.762-32.762c5.858-5.857 5.858-15.355 0-21.213z" fill="#b24d00"/><g><path d="m474.82 37.154c-23.957-23.959-56.058-37.154-90.389-37.154-35.69 0-69.435 14.09-95.017 39.672-23.469 23.467-55.105 33.713-91.737 45.576-48.58 15.732-103.642 33.563-156.976 86.898-84.948 84.943-10.989 289.373-7.799 298.035 1.519 4.123 4.769 7.373 8.892 8.891 3.65 1.344 90.367 32.926 174.335 32.928h.004c55.056 0 96.678-13.701 123.697-40.721 53.334-53.332 71.165-108.393 86.896-156.973 11.864-36.635 22.109-68.275 45.581-91.744 51.809-51.808 52.937-134.984 2.513-185.408z" fill="#ff9f00"/><path d="m36.372 475.604c1.518 1.518 3.36 2.709 5.422 3.469 3.65 1.344 90.367 32.926 174.335 32.928h.004c55.056 0 96.678-13.701 123.697-40.721 53.334-53.332 71.165-108.393 86.896-156.973 11.864-36.635 22.109-68.275 45.581-91.744 51.81-51.809 52.938-134.982 2.515-185.408z" fill="#ff641a"/><path d="m405.164 106.816c-3.416-3.416-8.264-4.969-13.033-4.197-.554.092-56.096 9.266-117.815 25.285-84.596 21.957-140.345 45.945-165.699 71.299-26.793 26.795-37.199 70.625-30.929 130.27 4.469 42.518 15.962 77.408 16.449 78.873 1.492 4.486 5.013 8.008 9.5 9.5 2.232.742 55.317 18.186 110.486 18.186 43.782 0 76.975-10.99 98.655-32.67 25.353-25.355 49.34-81.104 71.298-165.699 16.02-61.719 25.193-117.26 25.284-117.813.782-4.768-.78-9.62-4.196-13.034z" fill="#ffd400"/><path d="m405.162 106.814-307.401 307.4c1.628 1.629 3.631 2.883 5.876 3.631 2.232.742 55.317 18.186 110.486 18.186 43.782 0 76.975-10.99 98.655-32.67 25.353-25.355 49.34-81.104 71.298-165.699 16.02-61.719 25.193-117.26 25.284-117.813.781-4.768-.78-9.619-4.196-13.033-.001-.002-.001-.002-.002-.002z" fill="#ff9f00"/><g><g><g><g><g><path d="m289.301 278.936c-3.95 0-7.82-1.6-10.61-4.391-2.79-2.789-4.39-6.66-4.39-10.6 0-3.949 1.6-7.82 4.39-10.609 2.79-2.791 6.66-4.391 10.61-4.391 3.94 0 7.81 1.6 10.6 4.391 2.79 2.789 4.4 6.66 4.4 10.609 0 3.939-1.61 7.811-4.4 10.6-2.791 2.791-6.66 4.391-10.6 4.391z" fill="#1d4659"/></g><g><path d="m248.041 237.686c-3.95 0-7.82-1.609-10.61-4.4-2.79-2.789-4.4-6.66-4.4-10.6 0-3.951 1.61-7.811 4.4-10.609 2.79-2.791 6.66-4.391 10.61-4.391s7.81 1.6 10.6 4.391c2.79 2.789 4.39 6.658 4.39 10.609 0 3.949-1.6 7.811-4.39 10.6-2.79 2.79-6.65 4.4-10.6 4.4z" fill="#265c76"/></g><g><g><path d="m222.661 304.314c-3.95 0-7.811-1.6-10.601-4.389-2.8-2.801-4.399-6.66-4.399-10.611 0-3.949 1.6-7.809 4.399-10.6 2.79-2.799 6.65-4.4 10.601-4.4 3.949 0 7.819 1.602 10.609 4.4 2.79 2.791 4.391 6.65 4.391 10.6 0 3.951-1.601 7.811-4.391 10.611-2.79 2.79-6.66 4.389-10.609 4.389z" fill="#265c76"/></g></g></g><g><g><path d="m178.291 259.945c-3.95 0-7.82-1.609-10.61-4.4-2.79-2.789-4.39-6.66-4.39-10.6 0-3.949 1.6-7.811 4.39-10.609 2.79-2.791 6.66-4.391 10.61-4.391 3.939 0 7.81 1.6 10.6 4.391 2.8 2.789 4.4 6.66 4.4 10.609s-1.601 7.811-4.4 10.6c-2.79 2.791-6.65 4.4-10.6 4.4z" fill="#265c76"/></g></g><g><g><g><path d="m267.03 348.695c-3.939 0-7.81-1.6-10.6-4.391-2.79-2.799-4.39-6.66-4.39-10.609s1.6-7.82 4.39-10.609c2.79-2.791 6.66-4.391 10.6-4.391 3.95 0 7.82 1.6 10.61 4.391 2.79 2.789 4.39 6.66 4.39 10.609s-1.6 7.811-4.39 10.609c-2.789 2.792-6.66 4.391-10.61 4.391z" fill="#1d4659"/></g></g></g></g><g><g><g><g><path d="m314.671 212.305c-3.95 0-7.811-1.6-10.61-4.389-2.79-2.801-4.39-6.66-4.39-10.611 0-3.949 1.6-7.809 4.39-10.609 2.8-2.791 6.66-4.391 10.61-4.391s7.81 1.6 10.609 4.391c2.79 2.801 4.391 6.66 4.391 10.609 0 3.951-1.601 7.811-4.391 10.611-2.8 2.789-6.659 4.389-10.609 4.389z" fill="#265c76"/></g></g></g></g><g><g><g><path d="m156.021 329.695c-3.95 0-7.81-1.609-10.609-4.4-2.79-2.789-4.391-6.65-4.391-10.6s1.601-7.82 4.391-10.609c2.8-2.791 6.659-4.391 10.609-4.391s7.82 1.6 10.61 4.391c2.79 2.789 4.39 6.66 4.39 10.609 0 3.939-1.6 7.811-4.39 10.6-2.79 2.791-6.66 4.4-10.61 4.4z" fill="#265c76"/></g><g><path d="m197.28 370.955c-3.939 0-7.81-1.609-10.609-4.4-2.79-2.789-4.391-6.66-4.391-10.6 0-3.949 1.601-7.82 4.391-10.609 2.8-2.791 6.67-4.391 10.609-4.391 3.95 0 7.82 1.6 10.61 4.391 2.79 2.789 4.39 6.66 4.39 10.609 0 3.939-1.6 7.811-4.39 10.6-2.789 2.791-6.66 4.4-10.61 4.4z" fill="#1d4659"/></g></g></g></g></g></g></g><g fill="#1d4659"><path d="m212.061 299.926c2.79 2.789 6.65 4.389 10.601 4.389 3.949 0 7.819-1.6 10.609-4.389 2.79-2.801 4.391-6.66 4.391-10.611 0-3.949-1.601-7.809-4.391-10.6-.002-.002-.004-.002-.005-.004l-21.21 21.209c.002.002.003.004.005.006z"/><path d="m314.671 212.305c3.95 0 7.81-1.6 10.609-4.389 2.79-2.801 4.391-6.66 4.391-10.611 0-3.949-1.601-7.809-4.391-10.609l-21.22 21.221c2.8 2.788 6.661 4.388 10.611 4.388z"/></g></g></svg>