<svg id="Layer_1" enable-background="new 0 0 497 497" height="512" viewBox="0 0 497 497" width="512" xmlns="http://www.w3.org/2000/svg"><g><g><path d="m246.704 255.136 14.796 157.364 8.074 62.793c1.145 12.3 11.475 21.707 23.839 21.707h94.247c12.363 0 22.693-9.406 23.839-21.707l20.496-220.158-92.495-30.635z" fill="#73c3ee"/><path d="m339.5 224.5-20.032 6.614 72.527 24.022-20.496 220.158c-1.146 12.3-11.476 21.706-23.839 21.706h40c12.363 0 22.693-9.406 23.839-21.707l20.496-220.158z" fill="#59acd9"/><path d="m440.118 167.878h-201.618l8.204 87.258h185.291z" fill="#c6e7f7"/><path d="m400.118 167.878-8.123 87.258h40l8.123-87.258z" fill="#b5e0f5"/></g><g><path d="m207.339 89.542h-10.869v-50.042h-69.765v50.042h-10.868c-32.398 0-58.662 26.28-58.662 58.697v10.822c0 11.077 8.974 20.056 20.044 20.056h168.738c11.07 0 20.044-8.979 20.044-20.056v-10.822c0-32.417-26.264-58.697-58.662-58.697z" fill="#c6e7f7"/><path d="m207.339 89.542h-10.869v-50.042h-40v50.042h10.869c32.398 0 58.662 26.28 58.662 58.697v10.822c0 11.077-8.974 20.056-20.044 20.056h40c11.07 0 20.044-8.979 20.044-20.056v-10.822c0-32.417-26.264-58.697-58.662-58.697z" fill="#b5e0f5"/><path d="m245.855 285.912h-168.534c-11.126 0-20.146-9.02-20.146-20.146v-66.6c0-11.073 8.977-20.05 20.05-20.05h168.726c11.073 0 20.05 8.977 20.05 20.05v66.6c0 11.127-9.02 20.146-20.146 20.146z" fill="#73c3ee"/><path d="m245.951 179.117h-40c11.073 0 20.05 8.977 20.05 20.05v66.6c0 11.126-9.02 20.146-20.146 20.146h40c11.126 0 20.146-9.02 20.146-20.146v-66.6c0-11.073-8.977-20.05-20.05-20.05z" fill="#59acd9"/><path d="m266.731 346.946c0-11.187-8.797-20.255-19.649-20.255 10.852 0 19.649-9.069 19.649-20.255s-8.797-20.255-19.649-20.255h-170.551c-10.852 0-19.649 9.068-19.649 20.255s8.797 20.255 19.649 20.255c-10.852 0-19.649 9.069-19.649 20.255s8.797 20.255 19.649 20.255c0 0-19.356.272-19.356 25.33v45.772c0 32.418 26.264 58.697 58.662 58.697h.191 91.121.19c32.398 0 58.662-26.28 58.662-58.697v-45.772c0-24.724-18.919-25.33-18.919-25.33 10.852 0 19.649-9.069 19.649-20.255z" fill="#c6e7f7"/><path d="m266.731 346.946c0-11.187-8.797-20.255-19.649-20.255 10.852 0 19.649-9.069 19.649-20.255 0-11.187-8.797-20.255-19.649-20.255h-40c10.852 0 19.649 9.068 19.649 20.255s-8.797 20.255-19.649 20.255c10.852 0 19.649 9.068 19.649 20.255s-8.797 20.255-19.649 20.255c0 0 18.919.606 18.919 25.33v45.772c0 32.418-26.264 58.698-58.662 58.698h39.81.19c32.398 0 58.662-26.28 58.662-58.698v-45.772c0-24.724-18.919-25.33-18.919-25.33 10.852 0 19.649-9.069 19.649-20.255z" fill="#b5e0f5"/><path d="m209.25 54.946h-95.324c-2.756 0-4.989-2.234-4.989-4.989v-33.685c0-8.987 7.285-16.272 16.271-16.272h72.759c8.987 0 16.272 7.285 16.272 16.272v33.684c.001 2.756-2.233 4.99-4.989 4.99z" fill="#73c3ee"/><path d="m197.968 0h-40c8.987 0 16.272 7.285 16.272 16.272v33.684c0 2.756-2.234 4.99-4.989 4.99h40c2.756 0 4.989-2.234 4.989-4.99v-33.684c0-8.987-7.285-16.272-16.272-16.272z" fill="#59acd9"/></g></g></svg>