<svg id="Capa_1" enable-background="new 0 0 512 512" height="512" viewBox="0 0 512 512" width="512" xmlns="http://www.w3.org/2000/svg"><g><g><path d="m256 208.814c13.985 0 26.545 5.574 35.19 14.424 31.282-42.857 48.49-83.281 38.478-90.646-4.108-3.021-12.17-.001-22.429 7.547-1.99 1.464-4.733-.266-4.266-2.691 8.464-43.972 7.416-78.934-3.319-81.516-4.93-1.186-11.148 4.648-17.637 15.464-1.35 2.25-4.795 1.443-5.011-1.173-3.409-41.219-11.53-70.223-21.006-70.223s-17.597 29.004-21.007 70.224c-.216 2.615-3.661 3.423-5.012 1.173-6.489-10.816-12.707-16.65-17.637-15.464-10.735 2.582-11.783 37.543-3.319 81.516.467 2.425-2.276 4.155-4.266 2.691-10.258-7.548-18.321-10.569-22.429-7.547-10.011 7.364 7.197 47.789 38.478 90.646 8.647-8.851 21.207-14.425 35.192-14.425z" fill="#4bcd5c"/></g><g fill="#00c53b"><path d="m245.47 77.484c1.351 2.25 4.795 1.443 5.012-1.173 2.653-32.069 8.157-56.737 14.933-66.112-2.869-6.54-6.056-10.199-9.415-10.199-9.051 0-16.863 26.47-20.517 64.763 3.15 2.626 6.529 6.957 9.987 12.721z"/><path d="m208.732 139.285c3.378 1.464 7.254 3.805 11.516 6.942 1.99 1.464 4.733-.266 4.266-2.691-7.597-39.466-7.525-71.656.329-79.709-4.59-5.855-8.89-8.761-12.499-7.893-10.735 2.582-11.783 37.543-3.318 81.516.133.687 0 1.315-.294 1.835z"/><path d="m197.819 138.679c.899-.662 1.999-1.017 3.259-1.115-8.5-5.623-15.145-7.622-18.747-4.972-10.011 7.364 7.196 47.789 38.478 90.646 2.127-2.177 4.493-4.154 7.057-5.9-25.842-38.173-39.117-71.987-30.047-78.659z"/></g><path d="m284.982 150.482c-3.759-2.014-8.443-.6-10.46 3.16-.052.098-3.851 6.908-10.796 12.974v-31.674c0-.026 0-.051 0-.077v-45.899c0-4.268-3.459-7.726-7.726-7.726s-7.726 3.459-7.726 7.726v31.986c-6.928-6.044-10.71-12.827-10.806-13.004-2.022-3.745-6.696-5.154-10.449-3.14-3.761 2.015-5.176 6.698-3.161 10.46.374.697 8.609 15.79 24.416 24.469v40.801.077 31.114c0 4.268 3.459 7.726 7.726 7.726s7.726-3.459 7.726-7.726v-26.319c15.808-8.679 24.043-23.772 24.417-24.469 2.015-3.761.6-8.444-3.161-10.459z" fill="#00b327"/><path d="m214.099 231.68.007.001-.007-.002z" fill="#74d579"/><path d="m283.016 216.181c-19.29-4.453-40.225 3.274-50.166 19.977h-.001c.978.305 1.96.62 2.947.949 13.162 4.393 27.246 4.393 40.408 0 7.496-2.502 14.73-4.282 21.697-5.427-3.657-6.202-8.769-11.506-14.885-15.499z" fill="#fee6c1"/><path d="m283.016 216.181c-.643-.42-1.301-.819-1.966-1.209.665.39 1.323.79 1.966 1.209z" fill="#4bcd5c"/><path d="m256 208.209c1.036 0 2.062.039 3.081.101-1.019-.062-2.045-.101-3.081-.101z" fill="#4bcd5c"/><path d="m283.016 216.181c-7.936-5.18-17.362-7.973-27.016-7.973-17.992 0-33.645 9.471-41.901 23.471.002 0 .004.001.007.001 1.38.227 2.774.486 4.175.764.205.041.41.079.616.121 1.354.275 2.718.576 4.091.899.23.054.46.109.691.165 1.399.337 2.807.696 4.226 1.084.144.039.29.082.434.122 1.493.414 2.996.851 4.511 1.323h.001c10.836-15.912 30.651-23.881 50.165-19.977z" fill="#fcd79b"/><path d="m221.603 222.102c1.092-1.071 2.237-2.092 3.432-3.058-1.195.966-2.34 1.987-3.432 3.058z" fill="#4bcd5c"/><path d="m275.824 235.89c-12.915 4.116-26.733 4.116-39.648 0-81.612-26.009-132.162 29.944-132.162 85.73 0 57.456 47.75 63.473 93.172 89.678 4.637 2.675 8.934 6.286 12.923 10.59 14.308 5.25 29.763 8.122 45.891 8.122s31.584-2.872 45.892-8.122c3.989-4.304 8.286-7.915 12.923-10.59 45.421-26.205 93.172-32.222 93.172-89.678-.001-55.787-50.551-111.739-132.163-85.73z" fill="#ff656f"/><g><path d="m226.243 411.297c-39.16-26.205-80.328-32.222-80.328-89.678 0-41.872 24.553-83.836 66.555-91.167-67.577-9.28-108.455 41.004-108.455 91.167 0 57.456 47.75 63.473 93.172 89.678 4.637 2.675 8.934 6.286 12.923 10.59 10.308 3.782 21.213 6.322 32.534 7.451-4.792-7.589-10.234-13.915-16.401-18.041z" fill="#ff4756"/></g><g><path d="m345.615 365.583c-3.754-2.028-5.152-6.716-3.124-10.47 11.732-21.708 9.76-62.498-10.223-90.325-2.489-3.467-1.697-8.294 1.769-10.783 3.466-2.49 8.294-1.697 10.782 1.769 23.765 33.095 25.667 80.04 11.266 106.685-2.03 3.76-6.724 5.15-10.47 3.124z" fill="#ff9ba1"/></g><g><path d="m256 427.948c-17.365 0-33.952-3.325-49.165-9.368 20.242 19.03 32.925 56.153 40.326 86.458 2.267 9.282 15.411 9.282 17.678 0 7.401-30.305 20.084-67.428 40.326-86.458-15.213 6.043-31.8 9.368-49.165 9.368z" fill="#ff9ba1"/></g><path d="m241.197 427.126c-12.006-1.328-23.533-4.244-34.362-8.545 20.242 19.03 32.925 56.153 40.326 86.458 2.267 9.282 15.411 9.282 17.678 0 .748-3.063 1.553-6.199 2.411-9.376-4.976-21.365-13.287-49.528-26.053-68.537z" fill="#ff7f87"/></g></svg>