<svg id="color" enable-background="new 0 0 24 24" height="512" viewBox="0 0 24 24" width="512" xmlns="http://www.w3.org/2000/svg"><path d="m1.5 6.75v9.5c0 .69.56 1.25 1.25 1.25h3.77c.31.41.66.78 1.06 1.1-.12.15-.26.28-.41.4h-4.42c-1.52 0-2.75-1.23-2.75-2.75v-9.5c0-1.52 1.23-2.75 2.75-2.75h5.46c-.11.54-.29 1.03-.52 1.5h-4.94c-.69 0-1.25.56-1.25 1.25z" fill="#607d8b"/><path d="m23.99 8.75v5.5c0 .96-.78 1.75-1.75 1.75h-.24v.25c0 1.52-1.23 2.75-2.75 2.75h-3.81c.66-.39 1.22-.91 1.7-1.5h2.11c.69 0 1.25-.56 1.25-1.25v-1c0-.41.34-.75.75-.75h.99c.14 0 .25-.11.25-.25v-5.5c0-.14-.11-.25-.25-.25h-.99c-.41 0-.75-.34-.75-.75v-1c0-.69-.56-1.25-1.25-1.25h-2.05c-.33-.54-.69-1.03-1.07-1.5h3.12c1.52 0 2.75 1.23 2.75 2.75v.25h.24c.97 0 1.75.79 1.75 1.75z" fill="#607d8b"/><path d="m6.81 7.1c-.85 1.43-1.81 3.04-1.81 5.25 0 2.09.55 3.85 1.52 5.15h-3.77c-.69 0-1.25-.56-1.25-1.25v-9.5c0-.69.56-1.25 1.25-1.25h4.94c-.25.54-.56 1.06-.88 1.6z" fill="#fafafa"/><path d="m22.49 8.75v5.5c0 .14-.11.25-.25.25h-.99c-.41 0-.75.34-.75.75v1c0 .69-.56 1.25-1.25 1.25h-2.11c1.23-1.52 1.86-3.56 1.86-5.58 0-2.62-.75-4.71-1.8-6.42h2.05c.69 0 1.25.56 1.25 1.25v1c0 .41.34.75.75.75h.99c.14 0 .25.11.25.25z" fill="#fafafa"/><path d="m1.5 11.5h-1.5v4.75c0 1.52 1.23 2.75 2.75 2.75h4.42c.15-.12.29-.25.41-.4-.4-.32-.75-.69-1.06-1.1h-3.77c-.69 0-1.25-.56-1.25-1.25z" fill="#546d79"/><path d="m23.99 11.5h-1.5v2.75c0 .14-.11.25-.25.25h-.99c-.41 0-.75.34-.75.75v1c0 .69-.56 1.25-1.25 1.25h-2.11c-.48.59-1.04 1.11-1.7 1.5h3.81c1.52 0 2.75-1.23 2.75-2.75v-.25h.24c.97 0 1.75-.79 1.75-1.75z" fill="#546d79"/><path d="m5.048 11.5h-3.548v4.75c0 .69.56 1.25 1.25 1.25h3.77c-.97-1.3-1.52-3.06-1.52-5.15 0-.294.017-.577.048-.85z" fill="#dadada"/><path d="m22.49 11.5h-3.497c.005.138.007.278.007.42 0 2.02-.63 4.06-1.86 5.58h2.11c.69 0 1.25-.56 1.25-1.25v-1c0-.41.34-.75.75-.75h.99c.14 0 .25-.11.25-.25z" fill="#dadada"/><path d="m6.75 22.999c-.333 0-.636-.223-.725-.559-.105-.4.133-.811.534-.916 4.95-1.304 4.449-8.643 4.443-8.717-.031-.413.278-.773.691-.805.406-.035.773.278.805.691.027.353.588 8.663-5.557 10.281z" fill="#388e3c"/><path d="m11.657 12.006c-.395.049-.686.4-.655.802.006.074.507 7.413-4.443 8.717-.401.105-.64.516-.534.916.003.011.006.022.009.033 3.335-.425 6.242-4.009 5.623-10.468z" fill="#317c34"/><path d="m11.815 18c-3.015 0-4.815-2.114-4.815-5.654 0-1.653.744-2.901 1.531-4.222.882-1.48 1.795-3.011 1.795-5.374 0-.298.176-.567.449-.687.272-.12.591-.066.81.136l.127.118c2.356 2.173 5.288 4.878 5.288 9.602 0 2.929-1.623 6.081-5.185 6.081z" fill="#4caf50"/><path d="m10.783 2.06c-.002.001-.005.002-.007.003-.273.12-.449.389-.449.687 0 2.363-.913 3.894-1.795 5.374-.788 1.32-1.532 2.568-1.532 4.222 0 3.227 1.495 5.268 4.042 5.605 2.744-3.063 1.979-12-.259-15.891z" fill="#429846"/></svg>