<?xml version="1.0" encoding="iso-8859-1"?>
<!-- Generator: Adobe Illustrator 19.0.0, SVG Export Plug-In . SVG Version: 6.00 Build 0)  -->
<svg version="1.1" id="Capa_1" xmlns="http://www.w3.org/2000/svg" xmlns:xlink="http://www.w3.org/1999/xlink" x="0px" y="0px"
	 viewBox="0 0 512 512" style="enable-background:new 0 0 512 512;" xml:space="preserve">
<path style="fill:#00B9ED;" d="M256,109.863l-20.016,201.068L256,512c110.87,0,201.068-90.198,201.068-201.068
	S366.87,109.863,256,109.863z"/>
<path style="fill:#8AEEFF;" d="M54.932,310.932C54.932,421.802,145.13,512,256,512V109.863
	C145.13,109.863,54.932,200.061,54.932,310.932z"/>
<path style="fill:#BDC4CB;" d="M318.432,62.432C318.432,28.007,290.425,0,256,0l-10.008,17L256,30
	c17.883,0,32.432,14.549,32.432,32.432S273.883,94.863,256,94.863l-10.008,15l10.008,15
	C290.425,124.863,318.432,96.856,318.432,62.432z"/>
<path style="fill:#DCE4EC;" d="M223.568,62.432C223.568,44.549,238.117,30,256,30V0c-34.425,0-62.432,28.007-62.432,62.432
	s28.007,62.432,62.432,62.432v-30C238.117,94.863,223.568,80.314,223.568,62.432z"/>
<polygon style="fill:#007CCF;" points="271,295.932 271,156.301 256,156.301 245.992,310.932 256,465.562 271,465.562 271,325.932 
	410.631,325.932 410.631,295.932 "/>
<polygon style="fill:#00B9ED;" points="241,156.301 241,295.932 101.369,295.932 101.369,325.932 241,325.932 241,465.562 
	256,465.562 256,156.301 "/>
<polygon style="fill:#D40000;" points="227.413,282.344 235.984,330.948 284.587,339.519 333.529,233.403 "/>
<polygon style="fill:#FF0F0F;" points="178.471,388.46 284.587,339.519 227.413,282.344 "/>
<g>
</g>
<g>
</g>
<g>
</g>
<g>
</g>
<g>
</g>
<g>
</g>
<g>
</g>
<g>
</g>
<g>
</g>
<g>
</g>
<g>
</g>
<g>
</g>
<g>
</g>
<g>
</g>
<g>
</g>
</svg>
