<svg id="Capa_1" enable-background="new 0 0 378.797 378.797" height="512" viewBox="0 0 378.797 378.797" width="512" xmlns="http://www.w3.org/2000/svg"><g><g><path d="m325.527 111.391c11.212-28.394-2.717-60.501-31.11-71.713-11.216-4.429-23.576-5.069-35.19-1.821-13.679-31.757-50.511-46.413-82.269-32.734-13.455 5.795-24.451 16.126-31.075 29.191-28.103-10.028-59.015 4.623-69.044 32.726-2.103 5.892-3.166 12.103-3.143 18.359-.01 3.806.392 7.604 1.197 11.324-35.833 8.893-57.671 45.149-48.778 80.983s45.149 57.671 80.983 48.778c13.111-3.254 24.929-10.404 33.896-20.508 21.938 26.441 61.158 30.091 87.598 8.153 3.179-2.637 6.088-5.586 8.683-8.801 21.835 28.739 62.835 34.334 91.572 12.499 28.739-21.835 34.334-62.835 12.499-91.572-4.405-5.802-9.754-10.826-15.819-14.864z" fill="#d5d6db"/><path d="m325.527 126.009c11.212-28.394-2.717-60.501-31.11-71.713-11.216-4.429-23.576-5.069-35.19-1.821-13.679-31.757-50.511-46.412-82.269-32.733-13.455 5.795-24.451 16.126-31.075 29.191-28.103-10.028-59.015 4.623-69.044 32.726-2.103 5.892-3.166 12.103-3.143 18.359-.01 3.806.392 7.604 1.197 11.324-35.833 8.893-57.671 45.149-48.778 80.983s45.149 57.671 80.983 48.778c13.111-3.254 24.929-10.404 33.896-20.508 21.925 26.452 61.142 30.122 87.594 8.197 3.181-2.636 6.091-5.583 8.688-8.796 21.891 28.696 62.901 34.212 91.597 12.321s34.212-62.901 12.321-91.597c-4.375-5.736-9.668-10.705-15.667-14.711z" fill="#e1e6e9"/><g fill="#27a2db"><path d="m64.668 269.184s-14.966 20.503-14.966 29.583c-1.053 8.003 4.583 15.346 12.587 16.397 8.003 1.053 15.346-4.583 16.397-12.587.166-1.264.166-2.546 0-3.811.2-9.078-14.018-29.582-14.018-29.582z"/><path d="m126.877 269.184s-14.468 20.603-14.468 29.933c-1.053 8.003 4.583 15.346 12.587 16.397 8.003 1.053 15.346-4.583 16.397-12.587.166-1.264.166-2.546 0-3.811 0-9.428-14.516-29.932-14.516-29.932z"/><path d="m189.386 269.184s-14.468 20.603-14.468 29.933c-.94 7.99 4.776 15.228 12.766 16.17 7.99.94 15.23-4.776 16.17-12.766.134-1.131.134-2.273 0-3.404-.002-9.429-14.468-29.933-14.468-29.933z"/><path d="m251.893 269.184s-14.518 20.603-14.518 29.933c-1.053 8.003 4.583 15.346 12.587 16.397 8.003 1.053 15.346-4.583 16.397-12.587.166-1.264.166-2.546 0-3.811.002-9.428-14.466-29.932-14.466-29.932z"/><path d="m314.352 269.184s-14.468 20.603-14.468 29.933c-1.053 8.003 4.583 15.346 12.587 16.397 8.003 1.053 15.346-4.583 16.397-12.587.166-1.264.166-2.546 0-3.811.201-9.428-14.516-29.932-14.516-29.932z"/><path d="m64.668 332.64s-14.966 20.603-14.966 29.633c-1.053 8.003 4.583 15.344 12.587 16.397 8.003 1.053 15.346-4.583 16.397-12.587.166-1.264.166-2.546 0-3.811.2-9.029-14.018-29.632-14.018-29.632z"/><path d="m126.877 332.64s-14.468 20.603-14.468 29.633c-1.053 8.003 4.583 15.346 12.587 16.397 8.003 1.053 15.346-4.583 16.397-12.587.166-1.264.166-2.546 0-3.811 0-9.029-14.516-29.632-14.516-29.632z"/><path d="m189.386 332.64s-14.468 20.603-14.468 29.633c-.94 7.99 4.776 15.23 12.766 16.17s15.23-4.776 16.17-12.766c.134-1.131.134-2.273 0-3.404-.002-9.03-14.468-29.633-14.468-29.633z"/><path d="m251.893 332.64s-14.518 20.603-14.518 29.633c-1.053 8.003 4.583 15.346 12.587 16.397 8.003 1.053 15.346-4.583 16.397-12.587.166-1.264.166-2.546 0-3.811.002-9.029-14.466-29.632-14.466-29.632z"/><path d="m314.352 332.64s-14.468 20.603-14.468 29.633c-1.053 8.003 4.583 15.346 12.587 16.397 8.003 1.053 15.346-4.583 16.397-12.587.166-1.264.166-2.546 0-3.811.201-9.029-14.516-29.632-14.516-29.632z"/></g></g></g></svg>