<svg height="512" viewBox="0 0 128 128" width="512" xmlns="http://www.w3.org/2000/svg"><g><path d="m80.96 51.29c-1.42 3.38-8.63 4.77-11.68 7.84-2.96 2.99-5.28 5.69-5.28 10.12 0-4.43-2.32-7.13-5.28-10.12-3.05-3.07-10.26-4.46-11.68-7.84-1.02-2.43.28-5.61 2.84-7.48-2.71-1.93-4.36-5.23-3.62-7.33.77-2.2 4.44-1.56 6.22-1.1-4-6.13-5.64-9.34-4.03-11.43 1.99-2.57 6.81-.28 9.38 3.63-.19-7.75 0-21.08 6.17-21.08s6.36 13.33 6.17 21.08c2.57-3.91 7.39-6.2 9.38-3.63 1.61 2.09-.03 5.3-4.03 11.43 1.78-.46 5.45-1.1 6.22 1.1.74 2.1-.91 5.4-3.62 7.33 2.56 1.87 3.86 5.05 2.84 7.48z" fill="#bae543"/><path d="m69.968 53.224a1.75 1.75 0 0 1 -.809-3.3c.774-.4 1.545-.774 2.287-1.131.793-.382 1.88-.9 2.613-1.329a1.749 1.749 0 0 1 1.755 3.027c-.849.493-2 1.05-2.85 1.456-.711.342-1.449.7-2.19 1.082a1.742 1.742 0 0 1 -.806.195z" fill="#a5cc2a"/><path d="m93.19 84.221c-2.186.516-5.6-3.166-8.342-3.813-2.672-.623-4.963-.991-7.424.521 2.461-1.512 3.169-3.722 3.819-6.387.665-2.742-1.079-7.448.369-9.164a4.5 4.5 0 0 1 5.121-.981c.156-2.162 1.421-4.2 2.84-4.507 1.485-.324 2.382 1.934 2.734 3.079 2.04-4.314 3.264-6.321 4.974-6.14 2.113.225 2.48 3.688 1.185 6.45 4.241-2.751 11.71-7.195 13.816-3.767s-5.234 8.083-9.6 10.622c3.049.093 5.967 1.989 5.218 3.972-.611 1.608-2.954 1.792-7.725 1.663.863.831 2.471 2.652 1.512 3.83-.914 1.128-3.31 1.338-5.308.491a4.494 4.494 0 0 1 -3.189 4.131z" fill="#bae543"/><path d="m58.187 123.25a1.749 1.749 0 0 1 -1.382-2.822c.052-.069 5.445-7.178 5.445-16.261v-66.167a1.75 1.75 0 0 1 3.5 0v66.167a32.749 32.749 0 0 1 -6.18 18.405 1.744 1.744 0 0 1 -1.383.678z" fill="#a5cc2a"/><path d="m64 96.533a1.672 1.672 0 0 1 -.418-.051 1.749 1.749 0 0 1 -1.282-2.116c1.874-7.634 14.207-15.136 24.117-21.166 2.341-1.424 4.552-2.768 6.371-3.965a1.75 1.75 0 1 1 1.924 2.924c-1.871 1.231-4.108 2.591-6.476 4.031-8.866 5.396-21.007 12.782-22.536 19.01a1.749 1.749 0 0 1 -1.7 1.333z" fill="#a5cc2a"/><path d="m34.81 84.221c2.186.516 5.6-3.166 8.342-3.813 2.672-.623 4.963-.991 7.424.521-2.461-1.512-3.169-3.722-3.819-6.387-.665-2.742 1.079-7.448-.369-9.164a4.5 4.5 0 0 0 -5.121-.981c-.156-2.162-1.421-4.2-2.84-4.507-1.485-.324-2.382 1.934-2.734 3.079-2.04-4.314-3.264-6.321-4.974-6.14-2.113.225-2.48 3.688-1.185 6.45-4.241-2.751-11.71-7.195-13.816-3.767s5.234 8.083 9.6 10.622c-3.049.093-5.967 1.989-5.218 3.972.611 1.608 2.954 1.792 7.725 1.663-.863.831-2.471 2.652-1.512 3.83.914 1.128 3.31 1.338 5.308.491a4.494 4.494 0 0 0 3.189 4.131z" fill="#bae543"/><path d="m64 96.533a1.749 1.749 0 0 1 -1.7-1.333c-1.53-6.228-13.671-13.614-22.537-19.008-2.368-1.44-4.605-2.8-6.476-4.031a1.75 1.75 0 1 1 1.924-2.924c1.819 1.2 4.03 2.541 6.371 3.965 9.91 6.028 22.243 13.53 24.116 21.164a1.749 1.749 0 0 1 -1.282 2.116 1.672 1.672 0 0 1 -.416.051z" fill="#a5cc2a"/></g></svg>