<svg id="Capa_1" enable-background="new 0 0 512 512" height="512" viewBox="0 0 512 512" width="512" xmlns="http://www.w3.org/2000/svg"><g><path d="m256 478.227h224.107v-63.786l-244.123-20.016z" fill="#9b5e34"/><path d="m31.893 414.441v63.786h224.107v-83.802z" fill="#c9885b"/><path d="m235.984 362.533 20.016 51.908h96.536l31.893-10.008 31.893 10.008h63.785v-31.892z" fill="#724435"/><path d="m256 362.533-224.107 20.016v31.892h63.785l31.893-10.008 31.893 10.008h96.536z" fill="#9b5e34"/><path d="m322.5 112.546h30v-78.773h-96.5l-10.008 14.148 10.008 15.852h66.5z" fill="#724435"/><path d="m159.464 33.773v78.773h30v-48.773h66.536v-30z" fill="#9b5e34"/><path d="m512 93.797h-95.678l-31.893 20.016-31.893-20.016h-96.536l-20.016 144.376 20.016 144.376h256z" fill="#c9885b"/><path d="m0 93.797v288.752h256v-288.752h-96.536l-31.464 20.016-32.322-20.016z" fill="#dbad5c"/><path d="m159.464 93.797h-63.786v226.835l31.893 20.016 31.893-20.016z" fill="#fcf7ca"/><path d="m95.678 320.632v30.024l31.893 20.016 31.893-20.016v-30.024z" fill="#e7c994"/><path d="m95.678 350.656h63.785v63.786h-63.785z" fill="#fcf7ca"/><path d="m416.322 93.797h-63.786v226.835l31.893 20.016 31.893-20.016z" fill="#ffeb99"/><path d="m352.536 320.632v30.024l31.893 20.016 31.893-20.016v-30.024z" fill="#dbad5c"/><path d="m352.536 350.656h63.785v63.786h-63.785z" fill="#ffeb99"/></g></svg>