<?xml version="1.0" encoding="iso-8859-1"?>
<!-- Generator: Adobe Illustrator 19.0.0, SVG Export Plug-In . SVG Version: 6.00 Build 0)  -->
<svg version="1.1" id="Capa_1" xmlns="http://www.w3.org/2000/svg" xmlns:xlink="http://www.w3.org/1999/xlink" x="0px" y="0px"
	 viewBox="0 0 512 512" style="enable-background:new 0 0 512 512;" xml:space="preserve">
<polygon style="fill:#FFEC97;" points="367.881,318.052 394.288,472.044 256,399.344 117.712,472.044 144.119,318.052 
	32.239,209.002 186.851,186.536 256,46.428 325.149,186.536 479.761,209.002 "/>
<polygon style="fill:#FFC473;" points="367.881,318.052 394.288,472.044 256,399.344 256,46.428 325.149,186.536 479.761,209.002 
	"/>
<path style="fill:#FFB13B;" d="M512,198.519l-176.888-25.697L256,12.528l-79.112,160.294L0,198.519l127.995,124.774L97.777,499.472
	L256,416.289l158.223,83.183l-30.218-176.178L512,198.519z M256,382.39l-118.362,62.227l22.606-131.796l-95.756-93.346
	l132.326-19.225L256,80.327l59.186,119.923l132.326,19.225l-95.756,93.346l22.606,131.796L256,382.39z"/>
<polygon style="fill:#FFB74F;" points="280.257,278.951 347.655,384.18 322.388,400.365 256.02,296.756 256,296.786 
	191.622,397.674 166.335,381.529 231.783,278.961 118.923,254.225 125.344,224.907 240.996,250.253 240.996,128.87 271.004,128.87 
	271.004,250.253 386.656,224.907 393.078,254.225 "/>
<polygon style="fill:#FFB13B;" points="256.02,296.756 256,296.786 256,128.87 271.004,128.87 271.004,250.253 386.656,224.907 
	393.078,254.225 280.257,278.951 347.655,384.18 322.388,400.365 "/>
<polygon style="fill:#FF9500;" points="384.005,323.293 414.223,499.472 256,416.289 256,382.39 374.362,444.617 351.756,312.821 
	447.512,219.475 315.186,200.25 256,80.327 256,12.528 335.112,172.822 512,198.519 "/>
<g>
</g>
<g>
</g>
<g>
</g>
<g>
</g>
<g>
</g>
<g>
</g>
<g>
</g>
<g>
</g>
<g>
</g>
<g>
</g>
<g>
</g>
<g>
</g>
<g>
</g>
<g>
</g>
<g>
</g>
</svg>
