<svg id="Capa_1" enable-background="new 0 0 426.703 426.703" height="512" viewBox="0 0 426.703 426.703" width="512" xmlns="http://www.w3.org/2000/svg"><g><path d="m396.303 95.217v220.71h-145.615l-6.047 23.536h-62.58l-6.047-23.536h-145.614v-220.71c.02-10.154 8.246-18.38 18.4-18.4h329.097c10.151-.014 18.391 8.203 18.405 18.353.001.016.001.032.001.047z" fill="#62667c"/><path d="m180.282 324.815h-149.882v-8.888h145.615z" fill="#62667c"/><path d="m396.303 315.927v8.888h-149.882l4.267-8.888z" fill="#62667c"/><path d="m377.372 99.323v197.673h-328.025v-197.673c0-1.98 1.605-3.585 3.585-3.585h320.855c1.98 0 3.585 1.605 3.585 3.585z" fill="#69b0ee"/><path d="m426.703 321.885v5.865c0 12.226-9.911 22.137-22.137 22.137h-382.429c-12.226-.001-22.137-9.912-22.137-22.137v-5.865c0-3.291 2.668-5.958 5.958-5.958h170.057l6.047 12.713h62.58l6.047-12.713h170.057c3.289 0 5.957 2.667 5.957 5.958z" fill="#525666"/><g fill="#eeefee"><path d="m269.494 182.259c-31.022-30.95-81.242-30.95-112.264 0l-8.846-8.846c35.921-35.843 94.078-35.843 129.999 0z"/><path d="m251.765 199.988c-21.223-21.171-55.578-21.171-76.801 0l-8.846-8.846c26.122-26.065 68.414-26.065 94.536 0z"/><path d="m234.031 217.723c-11.423-11.396-29.915-11.396-41.338 0l-8.846-8.846c16.321-16.293 42.752-16.293 59.072 0z"/><path d="m204.292 242.482c-4.985-5.009-4.965-13.111.044-18.096s13.111-4.965 18.096.044c4.968 4.992 4.968 13.06 0 18.052-4.997 5.009-13.109 5.019-18.118.022-.008-.008-.015-.015-.022-.022z"/></g></g></svg>