<svg id="Capa_1" enable-background="new 0 0 512 512" height="512" viewBox="0 0 512 512" width="512" xmlns="http://www.w3.org/2000/svg"><g><g><g><path d="m474.537 234.923v-32.773c0-7.209-4.685-13.582-11.566-15.733l-39.27-12.272c-4.958-1.549-8.913-5.339-10.618-10.246-2.119-6.098-4.583-12.035-7.369-17.787-2.267-4.68-2.156-10.16.257-14.766l19.092-36.448c3.345-6.386 2.152-14.206-2.946-19.303l-23.174-23.174c-5.098-5.098-12.917-6.291-19.303-2.946l-36.45 19.092c-4.606 2.413-10.086 2.524-14.766.257-5.752-2.786-11.689-5.249-17.787-7.369-4.906-1.705-8.696-5.661-10.246-10.618l-12.272-39.27c-2.15-6.882-8.523-11.567-15.732-11.567h-32.773c-7.209 0-13.582 4.685-15.733 11.566l-12.272 39.27c-1.549 4.958-5.339 8.913-10.246 10.618-6.098 2.119-12.035 4.583-17.787 7.369-4.68 2.267-10.16 2.156-14.766-.257l-36.448-19.092c-6.386-3.345-14.206-2.152-19.303 2.946l-23.175 23.175c-5.098 5.098-6.291 12.917-2.946 19.303l19.092 36.448c2.413 4.606 2.524 10.086.257 14.766-2.786 5.752-5.249 11.689-7.369 17.787-1.705 4.906-5.661 8.696-10.618 10.246l-39.27 12.272c-6.881 2.15-11.566 8.523-11.566 15.733v32.773c0 7.209 4.685 13.582 11.566 15.733l39.27 12.272c4.958 1.549 8.913 5.339 10.618 10.246 2.119 6.098 4.583 12.035 7.369 17.787 2.267 4.68 2.156 10.16-.257 14.766l-19.092 36.448c-3.345 6.386-2.152 14.206 2.946 19.303l23.174 23.174c5.098 5.098 12.917 6.291 19.303 2.946l36.448-19.092c4.606-2.413 10.086-2.524 14.766-.257 5.752 2.786 11.689 5.249 17.787 7.369 4.906 1.705 8.696 5.661 10.246 10.618l12.272 39.27c2.15 6.881 8.523 11.566 15.733 11.566h32.773c7.209 0 13.582-4.685 15.733-11.566l12.272-39.27c1.549-4.958 5.339-8.913 10.246-10.618 6.098-2.119 12.035-4.583 17.787-7.369 4.68-2.267 10.16-2.156 14.766.257l36.448 19.092c6.386 3.345 14.206 2.152 19.303-2.946l23.174-23.174c5.098-5.098 6.291-12.917 2.946-19.303l-19.092-36.448c-2.413-4.606-2.524-10.086-.257-14.766 2.786-5.752 5.249-11.689 7.369-17.787 1.705-4.906 5.661-8.696 10.618-10.246l39.27-12.272c6.882-2.15 11.568-8.523 11.568-15.733zm-218.537 58.887c-41.572 0-75.274-33.701-75.274-75.274s33.701-75.274 75.274-75.274 75.274 33.701 75.274 75.274-33.701 75.274-75.274 75.274z" fill="#9facba"/></g><g><path d="m474.537 234.923v-32.773c0-7.209-4.685-13.582-11.566-15.733l-39.27-12.272c-4.958-1.549-8.913-5.339-10.618-10.246-2.119-6.098-4.583-12.035-7.369-17.787-2.267-4.68-2.156-10.16.257-14.766l19.092-36.448c3.345-6.386 2.152-14.206-2.946-19.303l-23.174-23.174c-5.098-5.098-12.917-6.291-19.303-2.946l-9.345 4.895c8.086 23.137 12.407 48.041 12.189 73.987-.995 118.798-97.864 215.667-216.662 216.662-25.946.217-50.85-4.103-73.987-12.189l-4.895 9.345c-3.345 6.386-2.152 14.206 2.946 19.303l23.174 23.174c5.098 5.098 12.917 6.291 19.303 2.946l36.448-19.092c4.606-2.413 10.086-2.524 14.766-.257 5.752 2.786 11.689 5.249 17.787 7.369 4.906 1.705 8.696 5.661 10.246 10.618l12.272 39.27c2.15 6.881 8.523 11.566 15.733 11.566h32.773c7.209 0 13.582-4.685 15.733-11.566l12.272-39.27c1.549-4.958 5.339-8.913 10.246-10.618 6.098-2.119 12.035-4.583 17.787-7.369 4.68-2.267 10.16-2.156 14.766.257l36.448 19.092c6.386 3.345 14.206 2.152 19.303-2.946l23.174-23.174c5.098-5.098 6.291-12.917 2.946-19.303l-19.092-36.448c-2.413-4.606-2.524-10.086-.257-14.766 2.786-5.752 5.249-11.689 7.369-17.787 1.705-4.906 5.661-8.696 10.618-10.246l39.27-12.272c6.88-2.15 11.566-8.523 11.566-15.733z" fill="#8d9ca8"/></g><g><path d="m256 109.268c-60.251 0-109.268 49.017-109.268 109.268s49.017 109.269 109.268 109.269 109.268-49.017 109.268-109.268-49.017-109.269-109.268-109.269zm0 167.545c-32.185 0-58.276-26.091-58.276-58.276s26.091-58.277 58.276-58.277 58.276 26.091 58.276 58.276-26.091 58.277-58.276 58.277z" fill="#596c76"/></g></g><g><path d="m381.67 476.535-106.905-157.118c-9.008-13.239-28.523-13.239-37.531 0l-106.904 157.118c-10.253 15.068.539 35.465 18.765 35.465h213.81c18.226 0 29.018-20.397 18.765-35.465z" fill="#f7e365"/></g><g><path d="m381.67 476.535-60.665-89.159c-12.591 19.996-28.398 39.897-47.125 58.623-29.786 29.786-62.543 52.205-93.926 66.001h182.95c18.227 0 29.019-20.397 18.766-35.465z" fill="#f3d332"/></g><g><g><path d="m263.805 477.942c0 4.311-3.494 7.805-7.805 7.805s-7.805-3.494-7.805-7.805 3.494-7.805 7.805-7.805 7.805 3.494 7.805 7.805z" fill="#e279b3"/></g><g><g><g><path d="m256 454.002c-4.143 0-7.5-3.358-7.5-7.5v-90.449c0-4.142 3.357-7.5 7.5-7.5s7.5 3.358 7.5 7.5v90.449c0 4.142-3.357 7.5-7.5 7.5z" fill="#e279b3"/></g></g></g></g></g></svg>