<svg height="512" viewBox="0 0 48 48" width="512" xmlns="http://www.w3.org/2000/svg"><g id="postcard"><path d="m1 8h46v32h-46z" fill="#dad7e5"/><path d="m47 8v30h-40a4 4 0 0 1 -4-4v-26z" fill="#edebf2"/><path d="m23 36v-24a1 1 0 0 1 2 0v24a1 1 0 0 1 -2 0z" fill="#919191"/><g fill="#c6c3d8"><path d="m36 19h-8a1 1 0 0 1 0-2h8a1 1 0 0 1 0 2z"/><path d="m43 23h-15a1 1 0 0 1 0-2h15a1 1 0 0 1 0 2z"/><path d="m43 27h-15a1 1 0 0 1 0-2h15a1 1 0 0 1 0 2z"/><path d="m43 31h-8a1 1 0 0 1 0-2h8a1 1 0 0 1 0 2z"/></g><path d="m5 12h6v8h-6z" fill="#db5669"/><path d="m11 12v6a4 4 0 0 1 -4-4v-2z" fill="#f26674"/><g fill="#c6c3d8"><path d="m15 37h-10a1 1 0 0 1 0-2h10a1 1 0 0 1 0 2z"/><path d="m11 33h-6a1 1 0 0 1 0-2h6a1 1 0 0 1 0 2z"/></g></g></svg>