<svg id="Layer_1" enable-background="new 0 0 65 65" height="512" viewBox="0 0 65 65" width="512" xmlns="http://www.w3.org/2000/svg"><g><g><path d="m40.1 8.5h-15.2v-5.6c0-1.3 1.1-2.4 2.4-2.4h10.4c1.3 0 2.4 1.1 2.4 2.4zm-13.9-1.4h12.5v-4.2c0-.6-.5-1-1-1h-10.4c-.6 0-1 .5-1 1v4.2z" fill="#dbdfe0"/></g><path d="m11.4 15.5v42.4c0 3.6 2.9 6.6 6.6 6.6h29c3.6 0 6.6-2.9 6.6-6.6v-42.4z" fill="#dbdfe0"/><path d="m47 62.6h-29c-3.6 0-6.6-2.9-6.6-6.6v1.9c0 3.6 2.9 6.6 6.6 6.6h29c3.6 0 6.6-2.9 6.6-6.6v-1.9c0 3.6-3 6.6-6.6 6.6z" fill="#c7c9c9"/><path d="m55.1 9.3h-45.2l11.3-4.6h22.6z" fill="#dbdfe0"/><path d="m55.1 7.9h-45.2c-2.1 0-3.8 1.7-3.8 3.8s1.7 3.8 3.8 3.8h45.2c2.1 0 3.8-1.7 3.8-3.8s-1.7-3.8-3.8-3.8z" fill="#cccece"/><path d="m55.1 13.6h-45.2c-1.8 0-3.3-1.2-3.7-2.9-.1.3-.1.6-.1.9 0 2.1 1.7 3.8 3.8 3.8h45.2c2.1 0 3.8-1.7 3.8-3.8 0-.3-.1-.6-.1-.9-.4 1.7-1.9 2.9-3.7 2.9z" fill="#b6b7b7"/><g fill="#788d9a"><path d="m21.3 22.8c-1.1 0-2 .9-2 2v30.3c0 1.1.9 2 2 2s2-.9 2-2v-30.3c0-1.1-.9-2-2-2z"/><path d="m32.5 22.8c-1.1 0-2 .9-2 2v30.3c0 1.1.9 2 2 2s2-.9 2-2v-30.3c0-1.1-.9-2-2-2z"/><path d="m43.7 22.8c-1.1 0-2 .9-2 2v30.3c0 1.1.9 2 2 2s2-.9 2-2v-30.3c0-1.1-.9-2-2-2z"/></g></g></svg>