<svg id="Layer_1" enable-background="new 0 0 512.026 512.026" height="512" viewBox="0 0 512.026 512.026" width="512" xmlns="http://www.w3.org/2000/svg"><g><path d="m477.178 313.046c8.057 13.718-1.943 30.98-17.77 30.98h-211.41c-5.779 0-11.335-1.529-12.35-7.22-.54-2.98.65-6.01 3.07-7.82l81.28-60.96v-156c0-4.42 3.58-8 8-8h131.41c15.884 0 25.781 17.342 17.77 30.98l-49.57 84.99c-1.45 2.48-1.45 5.58 0 8.06z" fill="#e48c9b"/><path d="m427.608 228.056c-1.45-2.48-1.45-5.58 0-8.06l49.57-84.99c8.005-13.63-1.874-30.98-17.77-30.98h-32c15.884 0 25.781 17.342 17.77 30.98l-49.57 84.99c-1.45 2.48-1.45 5.58 0 8.06l49.57 84.99c8.057 13.718-1.943 30.98-17.77 30.98h32c16.001 0 25.732-17.424 17.77-30.98z" fill="#cc5b6f"/><path d="m332.798 278.426-84.48 63.36c-2.045 1.534-4.683 1.977-7.03 1.28-10.18-2.95-17.29-12.42-17.29-23.04v-48c0-4.42 3.58-8 8-8h96c7.655 0 10.941 9.777 4.8 14.4z" fill="#cc5b6f"/><path d="m335.998 64.026v208c0 4.42-3.58 8-8 8h-240c-4.42 0-8-3.58-8-8v-224c0-4.42 3.58-8 8-8h224c13.23 0 24 10.77 24 24z" fill="#e48c9b"/><path d="m311.998 40.026h-32c13.23 0 24 10.77 24 24v208c0 4.42-3.58 8-8 8h32c4.42 0 8-3.58 8-8v-208c0-13.23-10.77-24-24-24z" fill="#cc5b6f"/><path d="m95.998 32.026v472c0 4.42-3.58 8-8 8h-48c-4.42 0-8-3.58-8-8v-472c0-8.53 3.33-16.57 9.37-22.62 20.076-20.044 54.63-5.86 54.63 22.62z" fill="#aa7569"/><path d="m47.982 4.324c9.563 5.541 16.016 15.881 16.016 27.702v472c0 4.42-3.58 8-8 8h32c4.42 0 8-3.58 8-8v-472c0-24.682-26.876-39.973-48.016-27.702z" fill="#9a6758"/></g></svg>