<svg id="Capa_1" enable-background="new 0 0 512 512" height="512" viewBox="0 0 512 512" width="512" xmlns="http://www.w3.org/2000/svg"><g><g><path d="m70.567 49.449v462.551h185.433l20-159-20-303.551z" fill="#fff5f5"/><path d="m256 49.449h185.433v462.551h-185.433z" fill="#ebe1dc"/></g><g><path d="m256 465.189h-108.169v-30h108.169l10 15z" fill="#ebe1dc"/></g><g><path d="m256 403.378h-77.264v-30h77.264l10 15z" fill="#ebe1dc"/></g><g><path d="m179.19 0h30v98.897h-30z" fill="#5a5555"/></g><g><path d="m117.378 0h30v98.897h-30z" fill="#5a5555"/></g><g><path d="m241 0v98.897h15l10-49.448-10-49.449z" fill="#5a5555"/><path d="m256 0h15v98.897h-15z" fill="#2d2d2d"/></g><g><path d="m302.811 0h30v98.897h-30z" fill="#2d2d2d"/></g><g><path d="m364.622 0h30v98.897h-30z" fill="#2d2d2d"/></g><g><path d="m244.87 150.032h75.999v30h-75.999z" fill="#58b454" transform="matrix(.707 -.707 .707 .707 -33.844 248.356)"/></g><g><path d="m256 435.189h108.169v30h-108.169z" fill="#dcd2cd"/></g><g><path d="m256 373.378h77.264v30h-77.264z" fill="#dcd2cd"/></g><g><path d="m243.547 129.74h-20.778v30h18.231v51.26h15l10-40.63-10-37.63c-3.741-1.913-7.971-3-12.453-3z" fill="#bd8472"/><path d="m271 157.194c0-10.656-6.106-19.907-15-24.455v78.261h15z" fill="#a05f4b"/></g><g><path d="m185.332 246.269c0 39.029 31.44 81.405 70.668 70.668l10-60.937-10-64.099c-38.565-11.149-70.668 3.445-70.668 54.368z" fill="#ff5b5b"/><path d="m256 191.901v125.036c39.228 10.737 70.668-31.639 70.668-70.668 0-50.923-32.103-65.517-70.668-54.368z" fill="#c83c50"/></g></g></svg>