<svg height="512pt" viewBox="0 0 512 511" width="512pt" xmlns="http://www.w3.org/2000/svg"><path d="m238.128906 384.515625c-98.136718 0-177.980468-82.476563-177.980468-183.851563 0-101.378906 79.84375-183.855468 177.980468-183.855468 98.140625 0 177.984375 82.476562 177.984375 183.855468 0 101.375-79.84375 183.851563-177.984375 183.851563zm0 0" fill="#ff8f1f"/><path d="m238.128906 16.808594v367.707031c98.140625 0 177.984375-82.476563 177.984375-183.851563 0-101.378906-79.84375-183.855468-177.984375-183.855468zm0 0" fill="#ff7136"/><path d="m142.28125 154.429688c-24.335938 0-59.671875-4.785157-80.25-29.433594-32.605469-39.058594-11.742188-109.171875-10.835938-112.140625 1.664063-5.453125 6.265626-9.496094 11.886719-10.445313 2.996094-.503906 73.6875-11.910156 106.609375 27.523438 32.605469 39.054687 11.738282 109.171875 10.835938 112.136718-1.664063 5.457032-6.265625 9.5-11.886719 10.449219-1.121094.1875-11.761719 1.910157-26.359375 1.910157zm0 0" fill="#d2d200"/><path d="m180.527344 142.070312c.902344-2.964843 21.769531-73.082031-10.835938-112.136718-32.921875-39.433594-103.613281-28.027344-106.609375-27.523438-3.292969.554688-6.230469 2.179688-8.4375 4.523438l122.082031 141.433594c1.734376-1.722657 3.058594-3.867188 3.800782-6.296876zm0 0" fill="#b5b500"/><path d="m321.109375 385.007812c-66.445313 0-120.503906-56.042968-120.503906-124.929687v-54.960937c0-8.308594 6.734375-15.042969 15.042969-15.042969h210.921874c8.308594 0 15.042969 6.734375 15.042969 15.042969v54.960937c0 68.886719-54.058593 124.929687-120.503906 124.929687zm0 0" fill="#fff7ad"/><path d="m449.21875 315.636719h-22.648438c-8.308593 0-15.046874-6.734375-15.046874-15.042969v-95.476562c0-8.308594 6.738281-15.042969 15.046874-15.042969h22.648438c34.617188 0 62.78125 28.160156 62.78125 62.777343 0 34.621094-28.164062 62.785157-62.78125 62.785157zm-7.605469-30.085938h7.605469c18.027344 0 32.695312-14.664062 32.695312-32.695312s-14.667968-32.695313-32.695312-32.695313h-7.605469zm0 0" fill="#ffdd84"/><path d="m426.570312 190.074219h-105.460937v194.933593c66.445313 0 120.503906-56.042968 120.503906-124.929687v-54.960937c0-8.308594-6.738281-15.042969-15.042969-15.042969zm0 0" fill="#ffdd84"/><path d="m496.957031 482.015625c-1.777343 0-5.851562-2.773437-9.804687-10.414063-5.03125-9.71875-7.914063-23.519531-7.914063-37.859374 0-14.339844 2.882813-28.136719 7.914063-37.855469 3.953125-7.640625 8.027344-10.414063 9.804687-10.414063 8.308594 0 15.042969-6.734375 15.042969-15.042968 0-8.308594-6.734375-15.042969-15.042969-15.042969h-411.332031c-47.214844 0-85.625 35.148437-85.625 78.355469 0 43.207031 38.410156 78.359374 85.625 78.359374h411.332031c8.308594 0 15.042969-6.734374 15.042969-15.042968s-6.734375-15.042969-15.042969-15.042969zm0 0" fill="#f2f4fb"/><path d="m496.957031 385.472656c8.308594 0 15.042969-6.734375 15.042969-15.042968 0-8.308594-6.734375-15.042969-15.042969-15.042969h-241.132812v156.714843h241.132812c8.308594 0 15.042969-6.734374 15.042969-15.042968s-6.734375-15.042969-15.042969-15.042969c-1.777343 0-5.851562-2.773437-9.804687-10.414063-5.03125-9.71875-7.914063-23.515624-7.914063-37.855468 0-14.34375 2.882813-28.140625 7.914063-37.859375 3.953125-7.640625 8.03125-10.414063 9.804687-10.414063zm0 0" fill="#d9e3ec"/><path d="m496.957031 512.101562h-411.332031c-47.214844 0-85.625-35.152343-85.625-78.359374 0-43.207032 38.410156-78.355469 85.625-78.355469h411.332031c8.308594 0 15.042969 6.734375 15.042969 15.042969 0 8.308593-6.734375 15.042968-15.042969 15.042968h-411.332031c-30.625 0-55.539062 21.65625-55.539062 48.269532 0 26.617187 24.914062 48.273437 55.539062 48.273437h411.332031c8.308594 0 15.042969 6.734375 15.042969 15.042969s-6.734375 15.042968-15.042969 15.042968zm0 0" fill="#aa403a"/><g fill="#4e1b1c"><path d="m512 497.058594c0-8.308594-6.734375-15.042969-15.042969-15.042969h-241.132812v30.085937h241.132812c8.308594 0 15.042969-6.734374 15.042969-15.042968zm0 0"/><path d="m496.957031 355.386719h-241.132812v30.085937h241.132812c8.308594 0 15.042969-6.734375 15.042969-15.042968 0-8.308594-6.734375-15.042969-15.042969-15.042969zm0 0"/></g></svg>