<?xml version="1.0" encoding="iso-8859-1"?>
<!-- Generator: Adobe Illustrator 19.0.0, SVG Export Plug-In . SVG Version: 6.00 Build 0)  -->
<svg version="1.1" id="Capa_1" xmlns="http://www.w3.org/2000/svg" xmlns:xlink="http://www.w3.org/1999/xlink" x="0px" y="0px"
	 viewBox="0 0 512 512" style="enable-background:new 0 0 512 512;" xml:space="preserve">
<path style="fill:#10BB67;" d="M272.133,119.77l-0.6,197.116c0,8.404-7.128,15.009-15.534,15.009s-15.009-6.605-15.009-15.009
	V119.77c0-8.406,6.603-15.009,15.009-15.009S272.133,111.364,272.133,119.77z"/>
<path style="fill:#32D736;" d="M430.401,168.097c-0.9-0.601-17.711-14.107-42.624-23.713c16.81-20.712,24.614-40.525,25.214-41.724
	c3.303-9.005-2.101-18.911-11.706-20.111c-1.202-0.3-22.513-3.303-48.929,0.9c4.201-26.415,1.2-47.727,0.9-48.929
	c-1.2-9.606-11.407-15.009-20.111-11.707c-1.2,0.601-21.012,8.406-42.026,25.216c-9.305-24.916-22.813-41.724-23.413-42.624
	c-2.703-3.602-7.204-5.403-11.707-5.403s-9.005,1.801-11.707,5.403c-0.599,0.9-14.107,17.709-23.413,42.624
	c-21.012-16.81-40.825-24.614-42.026-25.216c-8.704-3.302-18.911,2.101-20.111,11.707c-0.3,1.202-3.302,22.513,0.9,48.929
	c-26.415-4.202-47.727-1.2-48.929-0.9c-9.604,1.2-15.009,11.107-11.706,20.111c0.599,1.2,8.404,21.012,25.214,41.724
	c-24.914,9.606-41.724,23.113-42.624,23.713c-7.504,6.004-7.504,17.411,0,23.415c0.9,0.599,17.411,13.807,42.026,23.413
	c-15.912,17.711-23.417,32.42-24.018,33.018c-4.502,9.305,1.202,20.113,11.107,21.614c2.101,0.3,52.831,8.106,96.357-17.11
	c22.813-13.208,38.722-32.42,48.929-48.328c10.207,15.908,26.115,35.12,48.929,48.328c26.716,15.61,56.133,18.611,75.344,18.611
	c12.006,0,20.111-1.2,21.012-1.501c4.802-0.601,9.005-3.602,11.107-7.805c2.101-4.504,2.101-9.606,0-13.809
	c-0.601-0.599-8.106-15.307-24.015-33.018c24.614-9.606,41.126-22.813,42.026-23.413
	C437.906,185.509,437.906,174.102,430.401,168.097z"/>
<path style="fill:#0CA656;" d="M255.999,331.894V104.761c8.406,0,16.134,6.603,16.134,15.009l-0.6,197.115
	C271.533,325.29,264.405,331.894,255.999,331.894z"/>
<path style="fill:#10BB67;" d="M430.401,191.512c-0.9,0.599-17.411,13.807-42.026,23.413c15.91,17.711,23.415,32.42,24.015,33.018
	c2.101,4.202,2.101,9.305,0,13.809c-2.101,4.202-6.305,7.204-11.107,7.805c-0.902,0.3-9.006,1.501-21.012,1.501
	c-19.211,0-48.628-3.001-75.344-18.611c-22.813-13.208-38.722-32.42-48.929-48.328V0c4.504,0,9.005,1.801,11.707,5.403
	c0.599,0.9,14.107,17.709,23.413,42.624c21.012-16.81,40.825-24.614,42.026-25.216c8.704-3.302,18.911,2.101,20.111,11.707
	c0.3,1.202,3.302,22.513-0.9,48.929c26.415-4.202,47.727-1.2,48.929-0.9c9.604,1.2,15.009,11.106,11.706,20.111
	c-0.599,1.2-8.404,21.012-25.214,41.724c24.914,9.606,41.724,23.113,42.624,23.713C437.906,174.102,437.906,185.509,430.401,191.512
	z"/>
<path style="fill:#994C0F;" d="M376.069,361.912H135.929c-9.606,0-16.81,9.005-14.709,18.611l30.018,120.07
	c1.801,6.603,7.805,11.407,14.709,11.407h180.106c6.903,0,12.908-4.804,14.709-11.407l30.018-120.07
	C392.879,370.916,385.675,361.912,376.069,361.912z"/>
<path style="fill:#BF6015;" d="M406.087,301.877H105.911c-8.406,0-15.009,6.603-15.009,15.009v30.018
	c0,24.914,20.111,45.026,45.026,45.026h240.141c24.916,0,45.952-20.113,45.952-45.026v-30.018
	C422.021,308.48,414.493,301.877,406.087,301.877z"/>
<path style="fill:#713708;" d="M390.778,380.523l-30.018,120.07c-1.801,6.603-7.805,11.407-14.709,11.407h-90.053V361.912h120.07
	C385.675,361.912,392.879,370.916,390.778,380.523z"/>
<path style="fill:#994C10;" d="M422.021,316.886v30.018c0,24.914-21.036,45.026-45.952,45.026h-120.07v-90.053h150.088
	C414.493,301.877,422.021,308.48,422.021,316.886z"/>
<g>
</g>
<g>
</g>
<g>
</g>
<g>
</g>
<g>
</g>
<g>
</g>
<g>
</g>
<g>
</g>
<g>
</g>
<g>
</g>
<g>
</g>
<g>
</g>
<g>
</g>
<g>
</g>
<g>
</g>
</svg>
