<svg id="Capa_1" enable-background="new 0 0 512.022 512.022" height="512" viewBox="0 0 512.022 512.022" width="512" xmlns="http://www.w3.org/2000/svg"><g><path d="m455.603 95.883-51.872-11.373c-35.231-7.724-71.827 4.85-94.87 32.597l-34.613 41.678h-36.473l-34.613-41.678c-23.043-27.746-59.64-40.321-94.87-32.597l-51.873 11.373c-1.245.273-1.18 2.07.082 2.252l15.391 2.216c37.282 5.369 72.221 21.386 100.622 46.128l39.173 34.126 3.637 38.26-53.775 44.66c-25.863 21.479-43.843 50.954-51.105 83.78l-4.506 20.367c-.217.98.884 1.715 1.706 1.139l24.361-17.08c17.458-12.24 33.365-26.555 47.37-42.631l55.745-63.988h41.785l55.745 63.988c14.005 16.076 29.912 30.392 47.37 42.631l24.361 17.08c.822.576 1.923-.159 1.706-1.139l-4.506-20.367c-7.262-32.826-25.242-62.301-51.105-83.78l-53.775-44.66 3.637-38.26 39.173-34.126c28.401-24.742 63.34-40.759 100.622-46.128l15.391-2.216c1.258-.182 1.324-1.979.079-2.252z" fill="#78c2a4"/><path d="m290.782 510.08-12.971-12.971c-4.743-4.743-7.443-11.152-7.523-17.858l-2.696-237.485c-3.427 1.915-7.377 3.006-11.581 3.006s-8.152-1.091-11.578-3.005l-2.699 237.484c-.081 6.706-2.78 13.115-7.523 17.858l-12.971 12.971c-.716.717-.209 1.942.804 1.942h67.933c1.014 0 1.521-1.225.805-1.942z" fill="#f4e2c1"/><path d="m467.706 239.9-14.965-18.346c-23.643-28.984-60.161-44.298-97.405-40.849l-52.814 4.891-29.022-15.958h-.002c.001 0 .001 0 .002-.001l7.588-110.212c1.094-15.892-3.594-31.645-13.2-44.353l-11.103-14.687c-.388-.514-1.16-.514-1.549 0l-11.103 14.688c-9.606 12.708-14.294 28.46-13.2 44.353l7.588 110.212c.001 0 .001 0 .002.001h-.002l-29.021 15.956-52.814-4.891c-37.244-3.449-73.762 11.866-97.405 40.849l-14.965 18.347c-.707.866.123 2.127 1.198 1.82l26.879-7.666c16.429-4.686 33.304-7.64 50.348-8.813l116.164-7.997h34.213l116.164 7.997c17.044 1.173 33.919 4.127 50.348 8.813l26.879 7.666c1.074.306 1.904-.954 1.197-1.82z" fill="#95d6a4"/><g><g><path d="m267.906 300.824h-23.788c-4.268 0-7.726-3.459-7.726-7.726 0-4.268 3.459-7.726 7.726-7.726h23.788c4.268 0 7.726 3.459 7.726 7.726.001 4.268-3.458 7.726-7.726 7.726z" fill="#f9efda"/></g></g><g><g><path d="m267.906 339.397h-23.788c-4.268 0-7.726-3.459-7.726-7.726s3.459-7.726 7.726-7.726h23.788c4.268 0 7.726 3.459 7.726 7.726s-3.458 7.726-7.726 7.726z" fill="#f9efda"/></g></g><g><g><path d="m267.906 377.969h-23.788c-4.268 0-7.726-3.459-7.726-7.726 0-4.268 3.459-7.726 7.726-7.726h23.788c4.268 0 7.726 3.459 7.726 7.726.001 4.267-3.458 7.726-7.726 7.726z" fill="#f9efda"/></g></g><g><g><path d="m267.906 416.541h-23.788c-4.268 0-7.726-3.459-7.726-7.726 0-4.268 3.459-7.726 7.726-7.726h23.788c4.268 0 7.726 3.459 7.726 7.726.001 4.268-3.458 7.726-7.726 7.726z" fill="#f9efda"/></g></g><g><g><path d="m267.906 455.114h-23.788c-4.268 0-7.726-3.459-7.726-7.726 0-4.268 3.459-7.726 7.726-7.726h23.788c4.268 0 7.726 3.459 7.726 7.726.001 4.267-3.458 7.726-7.726 7.726z" fill="#f9efda"/></g></g><circle cx="232.235" cy="192.573" fill="#e2f4b4" r="23.776"/><circle cx="256.011" cy="233.755" fill="#bcdf95" r="23.776"/><circle cx="279.787" cy="192.573" fill="#d8f1a0" r="23.776"/></g></svg>