<svg id="Capa_1" enable-background="new 0 0 497 497" height="512" viewBox="0 0 497 497" width="512" xmlns="http://www.w3.org/2000/svg"><g><path d="m271.819 67.143 2.662-61.513c.166-2.509-1.979-4.63-4.683-4.63l-17.423-1h-25.423c-2.705 0-4.849 2.12-4.684 4.631l2.662 62.513h46.889z" fill="#bbf49b"/><path d="m270.798 0h-20c2.705 0 4.849 2.121 4.684 4.631l-2.662 62.513h20l2.662-62.513c.165-2.51-1.98-4.631-4.684-4.631z" fill="#9be69d"/><path d="m457.574 267.415-23.948-37.532c-1.561-2.447-1.982-5.451-1.154-8.232l11.984-40.262c1.256-4.219-.395-8.763-4.066-11.192l-39.841-26.027c-2.528-1.673-4.161-4.403-4.439-7.422l-3.733-40.511c-.431-4.676-4.058-8.423-8.718-9.005l-23.811-4.101-22.29-2.786c-2.958-.37-5.596-2.039-7.196-4.554l-20.366-32.002c-2.47-3.881-7.269-5.576-11.628-4.108l-46.677 15.72c-2.071.697-4.313.697-6.383 0l-46.677-15.72c-4.36-1.468-9.158.227-11.628 4.108l-20.365 32.002c-1.6 2.515-4.239 4.184-7.196 4.554l-47.101 5.887c-4.66.582-8.287 4.329-8.718 9.005l-3.733 40.511c-.278 3.019-1.911 5.749-4.439 7.422l-40.841 27.027c-3.671 2.429-5.322 6.973-4.066 11.192l11.985 40.262c.828 2.782.407 5.786-1.154 8.232l-23.948 37.532c-2.306 3.613-2.052 8.294.63 11.637l24.547 30.596c1.835 2.288 2.574 5.266 2.02 8.146l-8.701 45.245c-.802 4.173 1.12 8.397 4.793 10.533l34.806 20.238c2.496 1.452 4.243 3.911 4.791 6.746l8.009 41.415c.808 4.177 4.17 7.386 8.381 7.997l43.544 6.326c2.485.361 4.743 1.644 6.326 3.593l27.13 33.415c2.724 3.355 7.294 4.58 11.331 3.039l39.9-15.236c2.297-.877 4.837-.877 7.135 0l39.9 15.236c4.037 1.541 8.607.316 11.331-3.039l27.13-33.415c1.583-1.949 3.841-3.232 6.326-3.593l17.589-2.555 24.954-5.77c4.21-.612 7.573-3.82 8.381-7.997l7.009-41.415c.548-2.835 2.295-5.295 4.791-6.746l34.806-19.238c3.673-2.136 5.596-6.36 4.793-10.533l-8.701-44.245c-.554-2.88.185-5.858 2.02-8.146l24.547-30.596c2.682-3.344 2.935-8.025.629-11.638z" fill="#ffd54f"/><g><path d="m458.944 279.052c2.682-3.343 2.936-8.024.63-11.637l-23.948-37.531c-1.561-2.447-1.982-5.451-1.154-8.232l11.985-40.262c1.256-4.219-.395-8.763-4.066-11.192l-40.841-27.027c-2.528-1.673-4.161-4.403-4.439-7.422l-3.733-40.511c-.431-4.676-4.058-8.423-8.718-9.005l-24.811-3.101c1.914 1.693 3.19 4.084 3.438 6.775l3.848 41.76c.287 3.112 1.97 5.926 4.576 7.651l42.101 27.86c3.784 2.504 5.486 7.188 4.191 11.538l-12.354 41.503c-.853 2.867-.419 5.964 1.19 8.486l24.687 38.69c2.377 3.725 2.115 8.549-.65 11.996l-25.304 31.54c-1.892 2.358-2.653 5.428-2.082 8.398l8.969 46.641c.827 4.301-1.154 8.656-4.941 10.858l-35.879 20.863c-2.573 1.496-4.374 4.032-4.939 6.954l-8.256 42.692c-.511 2.64-2.014 4.902-4.1 6.404l25.954-3.77c4.21-.612 7.573-3.82 8.381-7.998l8.009-41.415c.548-2.835 2.295-5.295 4.791-6.746l34.806-20.238c3.673-2.136 5.596-6.36 4.793-10.533l-8.701-45.245c-.554-2.88.185-5.858 2.02-8.146z" fill="#ffca28"/></g><g><path d="m222.266 472.636c-2.613 0-5.152-1.367-6.532-3.804l-14.413-25.438c-.108-.191-.266-.331-.422-.374l-21.637-5.925c-5.946-1.627-10.428-6.69-11.417-12.898l-5.974-37.506c-.037-.234-.135-.447-.276-.602l-20.479-22.309c-3.169-3.453-4.677-8.13-4.135-12.832l4.603-39.933c.026-.225-.004-.451-.086-.652l-13.975-34.357c-1.589-3.907-1.589-8.389 0-12.295l13.975-34.357c.082-.201.112-.427.086-.65l-4.603-39.935c-.542-4.702.965-9.379 4.135-12.832l20.48-22.311c.14-.152.238-.366.275-.6l5.973-37.506c.99-6.209 5.472-11.272 11.419-12.899l21.637-5.924c.155-.043.313-.183.421-.374l14.413-25.438c2.042-3.605 6.618-4.87 10.223-2.828 3.604 2.042 4.87 6.619 2.828 10.223l-14.413 25.437c-2.093 3.695-5.471 6.341-9.511 7.447l-21.638 5.924c-.222.061-.493.335-.565.793l-5.973 37.505c-.503 3.153-1.899 6.052-4.038 8.383l-20.481 22.313c-.216.235-.325.607-.283.97l4.603 39.935c.313 2.719-.064 5.492-1.093 8.021l-13.975 34.357c-.126.309-.126.682.001.992l13.974 34.355c1.028 2.528 1.406 5.302 1.093 8.021l-4.603 39.933c-.042.363.067.735.283.971l20.48 22.311c2.14 2.333 3.536 5.231 4.039 8.385l5.974 37.506c.073.457.344.73.564.791l21.638 5.925c4.039 1.107 7.417 3.75 9.511 7.446l14.413 25.438c2.042 3.604.776 8.181-2.828 10.223-1.168.659-2.438.974-3.691.974z" fill="#ffca28"/></g><g><path d="m275.484 472.636c-1.253 0-2.522-.314-3.69-.975-3.604-2.042-4.87-6.619-2.828-10.223l14.412-25.438c2.094-3.696 5.472-6.34 9.511-7.446l21.637-5.925c.222-.06.493-.334.565-.791l5.974-37.506c.503-3.153 1.898-6.052 4.038-8.383l20.481-22.313c.216-.235.325-.607.283-.971l-4.603-39.933c-.313-2.72.065-5.493 1.093-8.021 1.561-3.837 5.936-5.679 9.773-4.121 3.836 1.561 5.682 5.936 4.121 9.773-.082.201-.112.427-.086.652l4.603 39.933c.542 4.702-.965 9.379-4.135 12.832l-20.48 22.31c-.14.152-.238.365-.275.6l-5.974 37.506c-.989 6.208-5.471 11.272-11.418 12.899l-21.636 5.924c-.156.043-.314.183-.422.374l-14.413 25.438c-1.379 2.438-3.918 3.805-6.531 3.805z" fill="#ffca28"/></g><g><path d="m361.688 284.59c-.941 0-1.898-.179-2.824-.555-3.836-1.562-5.681-5.938-4.12-9.773l1.589-3.906c.125-.31.125-.682-.001-.992l-13.974-34.355c-1.028-2.528-1.406-5.302-1.093-8.021l4.603-39.933c.042-.363-.067-.735-.283-.971l-20.48-22.311c-2.14-2.333-3.537-5.231-4.039-8.385l-5.973-37.506c-.073-.457-.344-.731-.565-.791l-21.638-5.925c-4.04-1.106-7.418-3.752-9.512-7.448l-14.412-25.436c-2.042-3.604-.776-8.181 2.828-10.223 3.603-2.04 8.181-.776 10.223 2.828l14.413 25.437c.109.192.267.332.422.375l21.637 5.924c5.946 1.627 10.428 6.69 11.418 12.898l5.973 37.507c.037.233.135.447.277.602l20.479 22.309c3.17 3.453 4.677 8.13 4.135 12.833l-4.603 39.933c-.026.225.004.45.086.651l13.975 34.356c1.589 3.907 1.589 8.389 0 12.295l-1.59 3.907c-1.186 2.911-3.991 4.676-6.951 4.676z" fill="#ffca28"/></g></g></svg>