<svg id="Capa_1" enable-background="new 0 0 512.007 512.007" height="512" viewBox="0 0 512.007 512.007" width="512" xmlns="http://www.w3.org/2000/svg"><g><g><g><g><g><path d="m346.648 203.502c-8.789-16.025-22.031-29.355-38.32-38.54-5.742-3.252-8.701-9.888-7.266-16.333l13.477-60.293c.996-4.395 3.896-8.115 7.91-10.137 3.984-2.007 8.73-2.139 12.832-.308 44.121 19.6 79.219 54.697 98.848 98.818 1.816 4.102 1.699 8.818-.322 12.847-2.021 4.014-5.742 6.914-10.137 7.896l-60.615 13.491c-6.727 1.455-13.292-1.74-16.407-7.441z" fill="#ae2538"/></g></g></g></g><g><g><g><g><path d="m322.449 433.79c-4.043-2.021-6.914-5.742-7.91-10.137l-13.477-60.601c-1.436-6.504 1.582-13.198 7.441-16.406 16.025-8.774 29.326-22.031 38.525-38.306 3.252-5.757 9.785-8.672 16.348-7.266l60.322 13.491c4.395.981 8.086 3.882 10.107 7.896s2.139 8.73.322 12.832c-19.629 44.121-54.727 79.219-98.848 98.818-4.004 1.792-8.751 1.747-12.83-.321z" fill="#ae2538"/></g></g></g></g><g><g><path d="m176.726 434.113c-44.121-19.6-79.219-54.697-98.848-98.818-1.816-4.102-1.699-8.818.322-12.832s5.713-6.914 10.107-7.896l60.322-13.491c6.533-1.479 13.037 1.479 16.289 7.178 9.199 16.011 22.529 29.341 38.555 38.54 5.654 3.252 8.584 9.8 7.178 16.201l-13.184 60.601c-.938 4.409-3.838 8.145-7.852 10.181-4.176 2.116-8.945 2.098-12.889.336z" fill="#e63950"/></g></g><g><path d="m148.63 210.929-60.322-13.491c-4.395-.981-8.086-3.882-10.107-7.896s-2.139-8.73-.322-12.832c19.629-44.121 54.727-79.219 98.848-98.818 4.102-1.816 8.848-1.685 12.832.322 4.043 2.021 6.914 5.742 7.91 10.137l13.477 60.601c1.436 6.504-1.582 13.198-7.441 16.406-16.025 8.774-29.326 22.031-38.525 38.306-3.214 5.707-9.82 8.726-16.35 7.265z" fill="#e63950"/></g><g id="Medal_39_"><g><path d="m3.871 356.051c-3.633-4.014-4.805-9.668-3.105-14.795l28.418-85.254-28.419-85.253c-1.699-5.127-.527-10.781 3.105-14.795 3.604-4.028 9.111-5.742 14.385-4.6l136.938 30.308c9.956 2.223 14.736 13.47 9.697 22.134-9.082 15.747-13.887 33.809-13.887 52.207s4.805 36.46 13.887 52.207c2.402 4.131 2.666 9.155.762 13.535-1.934 4.365-5.801 7.559-10.459 8.599l-136.938 30.307c-5.491 1.187-10.898-.722-14.384-4.6z" fill="#ff6c6c"/></g><g><path d="m493.752 360.651-136.938-30.308c-4.658-1.04-8.525-4.233-10.459-8.599-1.904-4.38-1.641-9.404.762-13.535 9.082-15.747 13.887-33.809 13.887-52.207 0-18.516-4.863-36.519-14.092-52.046-5.168-8.675-.439-20.042 9.639-22.31l137.201-30.293c5.244-1.143 10.781.571 14.385 4.6 3.633 4.014 4.805 9.668 3.105 14.795l-28.418 85.254 28.418 85.254c1.699 5.127.527 10.781-3.105 14.795-3.486 3.877-8.893 5.787-14.385 4.6z" fill="#e63950"/></g><g><path d="m181.648 155.456-30.293-137.184c-1.172-5.273.586-10.767 4.6-14.385 4.043-3.633 9.639-4.849 14.795-3.091l85.254 28.418 85.254-28.418c5.156-1.758 10.752-.542 14.795 3.091 4.014 3.618 5.771 9.111 4.6 14.385l-30.293 136.89c-1.055 4.658-4.248 8.54-8.613 10.459-4.365 1.963-9.375 1.67-13.535-.732-31.641-18.237-73.271-18.193-104.268.22-8.66 5.141-20.038.414-22.296-9.653z" fill="#ff6c6c"/></g><g><path d="m341.257 511.226-85.254-28.418-85.254 28.418c-5.156 1.728-10.752.527-14.795-3.091-4.014-3.618-5.771-9.111-4.6-14.385l30-137.143c2.089-9.799 13.205-14.874 22.148-9.8 32.725 18.853 73.477 18.53 104.561.088 8.873-5.192 20.07-.268 22.295 9.653l30.293 137.201c1.172 5.273-.586 10.767-4.6 14.385-4.21 3.796-9.942 4.74-14.794 3.092z" fill="#ff6c6c"/></g></g><path d="m356.052 508.135c4.014-3.618 5.771-9.111 4.6-14.385l-30.293-137.201c-2.227-9.922-13.422-14.846-22.295-9.653-15.656 9.289-33.765 13.954-52.061 13.916v121.996l85.254 28.418c4.849 1.648 10.584.703 14.795-3.091z" fill="#e63950"/><path d="m308.211 164.889c4.16 2.402 9.17 2.695 13.535.732 4.365-1.919 7.559-5.801 8.613-10.459l30.293-136.89c1.172-5.273-.586-10.767-4.6-14.385-4.043-3.633-9.639-4.849-14.795-3.091l-85.254 28.418v122.051c18.183-.003 36.438 4.533 52.208 13.624z" fill="#e63950"/><circle cx="256.004" cy="256.002" fill="#fed843" r="135"/><path d="m391.004 256.002c0-74.559-60.439-135-135-135v270c74.56 0 135-60.441 135-135z" fill="#fabe2c"/><g><path d="m279.939 311.798-23.936-12.437-23.936 12.437c-5.01 2.578-11.133 2.153-15.732-1.172-4.6-3.34-6.914-8.994-5.977-14.59l4.395-26.646-19.189-18.94c-4.177-4.072-5.454-10.109-3.75-15.322 1.758-5.391 6.416-9.346 12.041-10.195l26.66-4.014 12.07-24.126c5.098-10.166 21.738-10.166 26.836 0l12.07 24.126 26.66 4.014c5.625.85 10.283 4.805 12.041 10.195 1.758 5.405.322 11.338-3.75 15.322l-19.189 18.94 4.395 26.646c.938 5.596-1.377 11.25-5.977 14.59-4.568 3.311-10.681 3.8-15.732 1.172z" fill="#fabe2c"/></g><path d="m279.939 311.798c5.054 2.628 11.162 2.139 15.732-1.172 4.6-3.34 6.914-8.994 5.977-14.59l-4.395-26.646 19.189-18.94c4.072-3.984 5.508-9.917 3.75-15.322-1.758-5.391-6.416-9.346-12.041-10.195l-26.66-4.014-12.07-24.126c-2.549-5.083-7.983-7.625-13.418-7.625v110.193z" fill="#ff9100"/></g></svg>