<svg id="Layer_1" enable-background="new 0 0 512 512" height="512" viewBox="0 0 512 512" width="512" xmlns="http://www.w3.org/2000/svg"><g clip-rule="evenodd" fill-rule="evenodd"><g><path d="m466 189.219c16.523 0 30 13.477 30 30v252.783c0 16.523-13.477 30-30 30h-420c-16.523 0-30-13.477-30-30v-252.783c0-16.523 13.476-30 30-30z" fill="#43bdfd"/><path d="m198.153 345.414-171.039 149.868c5.162 4.198 11.739 6.719 18.886 6.719h420c8.454 0 16.111-3.528 21.573-9.187l-171.013-148.124z" fill="#2ab1fa"/><path d="m27.015 196.018 171.137 149.396 58.409 50.989 59.998-51.713 170.417-146.884c-5.416-5.307-12.826-8.587-20.977-8.587h-419.999c-7.192 0-13.807 2.553-18.985 6.799z" fill="#92d2fe"/></g><g><g fill="#f2f2f2"><path d="m170.705 185.556 32.401-8.682 35.3 84.902c1.826 4.391-.047 9.413-4.276 11.588l-13.193 6.787c-2.356 1.212-4.842 1.366-7.33.452-2.487-.913-4.273-2.643-5.295-5.088z"/><path d="m320.374 10.729c11.428-3.062 23.284 3.783 26.346 15.211l45.678 170.473c3.062 11.428-3.783 23.284-15.211 26.346-10.665 2.858-21.7-2.913-25.616-12.984h-.001c-35.305-15.46-86.175-21.497-139.305-13.314l1.161 4.332-40.352 10.812c-24.519 6.57-49.956-8.116-56.525-32.634v-.001c-6.57-24.519 8.116-49.955 32.635-56.525l40.352-10.812 1.161 4.332c50.103-19.478 91.179-49.893 114.024-80.934l.001-.001c-1.788-10.765 4.905-21.421 15.652-24.301z"/><path d="m361.093 87.72 12.863 48.005c1.826-.079 3.671-.355 5.51-.848 13.58-3.639 21.639-17.597 18-31.177s-17.597-21.638-31.177-18c-1.839.492-3.575 1.175-5.196 2.02z"/></g><path d="m189.535 111.633-40.352 10.812c-24.519 6.57-39.204 32.006-32.635 56.525v.001c6.57 24.519 32.006 39.204 56.525 32.635l40.352-10.813z" fill="#eb745e"/><path d="m320.374 10.729c11.428-3.062 23.284 3.783 26.347 15.211l45.678 170.472c3.062 11.428-3.783 23.284-15.211 26.347-11.428 3.062-23.284-3.783-26.346-15.211l-45.679-170.472c-3.062-11.429 3.783-23.285 15.211-26.347z" fill="#eb745e"/><path d="m422.183 153.945 31.43 8.421c5.027 1.347 10.196-1.669 11.531-6.692 1.337-5.03-1.674-10.191-6.695-11.536l-31.43-8.421c-5.027-1.347-10.196 1.669-11.53 6.692-1.338 5.031 1.673 10.191 6.694 11.536zm-15.133-92.749 23.008-23.008c3.676-3.676 3.703-9.65.03-13.338-3.668-3.683-9.651-3.711-13.332-.03l-23.008 23.008c-3.676 3.676-3.703 9.65-.03 13.338 3.668 3.682 9.652 3.71 13.332.03zm27.628 42.347 29.795-7.984c5.058-1.355 8.059-6.553 6.704-11.611s-6.553-8.059-11.611-6.704l-29.796 7.984c-5.058 1.355-8.059 6.553-6.704 11.611 1.356 5.058 6.554 8.059 11.612 6.704z" fill="#eb745e"/></g></g></svg>