<svg id="Capa_1" enable-background="new 0 0 512 512" height="512" viewBox="0 0 512 512" width="512" xmlns="http://www.w3.org/2000/svg"><g><g><g><path d="m320.215 511.999h-227.006c-17.293 0-31.312-14.019-31.312-31.312v-449.374c0-17.293 14.019-31.312 31.312-31.312h227.006c17.293 0 31.312 14.019 31.312 31.312v449.375c0 17.293-14.019 31.311-31.312 31.311z" fill="#acacac"/><path d="m351.527 31.314v449.373c0 17.296-14.017 31.314-31.313 31.314h-20.494c17.296 0 31.313-14.017 31.313-31.314v-449.373c.001-17.297-14.017-31.314-31.313-31.314h20.493c17.296 0 31.314 14.017 31.314 31.314z" fill="#9c9c9c"/><path d="m269.073 37.213-8.337 14.162c-2.187 3.716-6.177 5.997-10.489 5.997h-43.535-43.535c-4.312 0-8.302-2.281-10.489-5.997l-8.336-14.162c-2.187-3.716-6.177-5.997-10.489-5.997h-23.833c-6.722 0-12.171 5.449-12.171 12.171v425.225c0 6.722 5.449 12.171 12.171 12.171h96.683 96.683c6.722 0 12.171-5.449 12.171-12.171v-425.224c0-6.722-5.449-12.171-12.171-12.171h-23.833c-4.313-.001-8.303 2.28-10.49 5.996z" fill="#d8ecfe"/><path d="m315.561 43.384v425.232c0 6.722-5.441 12.173-12.163 12.173h-20.493c6.722 0 12.163-5.451 12.163-12.173v-425.232c0-6.722-5.441-12.173-12.163-12.173h20.493c6.722 0 12.163 5.451 12.163 12.173z" fill="#c4e2ff"/><g><path d="m231.386 38.716h-49.348c-4.143 0-7.5-3.357-7.5-7.5s3.357-7.5 7.5-7.5h49.348c4.143 0 7.5 3.357 7.5 7.5s-3.357 7.5-7.5 7.5z" fill="#838383"/></g></g><path d="m278.044 480.779h-142.664v-18.475c0-39.395 31.936-71.332 71.332-71.332 39.396 0 71.332 31.936 71.332 71.332z" fill="#b0e7c9"/><path d="m278.04 462.301v18.483h-20.43v-18.483c0-19.695-7.978-37.525-20.892-50.439-10.845-10.845-23.292-18.22-39.285-20.289 3.034-.399 6.132-.603 9.277-.603 19.695 0 37.534 7.987 50.439 20.891 12.913 12.915 20.891 30.745 20.891 50.44z" fill="#91deb6"/><path d="m206.712 414.136c-9.146 0-16.56-7.414-16.56-16.56v-29.966h33.12v29.966c0 9.145-7.414 16.56-16.56 16.56z" fill="#ffcebf"/><g><path d="m206.712 376.231c-34.952 0-63.286-28.334-63.286-63.286v-52.591l63.286-19.987 63.286 19.987v52.591c0 34.952-28.334 63.286-63.286 63.286z" fill="#ffcebf"/><path d="m269.995 260.355v52.585c0 34.961-28.332 63.293-63.283 63.293-3.443 0-6.824-.276-10.124-.809 30.145-4.847 53.159-30.975 53.159-62.483v-58.979z" fill="#ffb09e"/></g><path d="m143.186 267.367v15.925s20.266-.988 28.887-26.283h34.639 34.639c8.621 25.295 28.887 26.283 28.887 26.283v-15.925c0-35.085-28.442-63.526-63.526-63.526-35.084 0-63.526 28.441-63.526 63.526z" fill="#596c76"/><path d="m270.241 267.363v15.934s-11.21-.553-20.503-11.251v-4.683c0-31.59-23.055-57.801-53.272-62.688 3.33-.553 6.753-.83 10.247-.83 35.083 0 63.528 28.434 63.528 63.518z" fill="#465a61"/><g><g><path d="m179.244 312.873c-4.245 0-7.685-3.44-7.685-7.685v-9.097c0-4.245 3.44-7.685 7.685-7.685s7.685 3.44 7.685 7.685v9.097c-.001 4.245-3.441 7.685-7.685 7.685z" fill="#596c76"/></g><g><path d="m234.181 312.873c-4.245 0-7.685-3.44-7.685-7.685v-9.097c0-4.245 3.44-7.685 7.685-7.685s7.685 3.44 7.685 7.685v9.097c0 4.245-3.441 7.685-7.685 7.685z" fill="#596c76"/></g></g></g><g><path d="m438.12 212.891h-154.874c-6.618 0-11.983-5.365-11.983-11.983v-112.23c0-6.618 5.365-11.983 11.983-11.983h154.874c6.618 0 11.983 5.365 11.983 11.983v112.23c0 6.618-5.365 11.983-11.983 11.983z" fill="#fd9468"/><path d="m450.101 88.675v112.23c0 6.62-5.36 11.99-11.98 11.99h-21.13c6.62 0 11.98-5.37 11.98-11.99v-112.23c0-6.62-5.36-11.98-11.98-11.98h21.13c6.62.001 11.98 5.36 11.98 11.98z" fill="#fe7d43"/><g><path d="m395.931 119.295-17.904 12.751v25.495l17.904 12.751c3.39 2.415 7.449 3.712 11.611 3.712h10.816c2.17 0 3.929-1.759 3.929-3.929v-50.563c0-2.17-1.759-3.929-3.929-3.929h-10.816c-4.162 0-8.22 1.297-11.611 3.712z" fill="#acacac"/><path d="m422.289 119.508v50.57c0 2.17-1.76 3.93-3.93 3.93h-10.82c-2.22 0-4.41-.37-6.48-1.08.76-.71 1.23-1.73 1.23-2.85v-50.57c0-1.12-.47-2.14-1.23-2.85 2.07-.71 4.26-1.08 6.48-1.08h10.82c2.17 0 3.93 1.76 3.93 3.93z" fill="#9c9c9c"/><path d="m372.95 183.676h-65.797c-4.442 0-8.077-3.635-8.077-8.077v-61.611c0-4.442 3.635-8.077 8.077-8.077h65.797c4.442 0 8.077 3.635 8.077 8.077v61.611c0 4.442-3.634 8.077-8.077 8.077z" fill="#acacac"/><path d="m381.029 113.988v61.61c0 4.44-3.64 8.08-8.08 8.08h-20c4.44 0 8.08-3.64 8.08-8.08v-61.61c0-4.44-3.64-8.08-8.08-8.08h20c4.44 0 8.08 3.64 8.08 8.08z" fill="#9c9c9c"/></g></g></g></svg>