<svg height="511pt" viewBox="-61 1 511 511.99894" width="511pt" xmlns="http://www.w3.org/2000/svg"><path d="m309.675781 269.503906c0 61.457032-49.820312 111.277344-111.277343 111.277344-61.457032 0-111.277344-49.820312-111.277344-111.277344 0-61.453125 49.820312-111.273437 111.277344-111.273437 61.457031 0 111.277343 49.820312 111.277343 111.273437zm0 0" fill="#51a2af"/><path d="m226.328125 90.695312-31.105469-31.285156-31.109375 31.285156-33.140625-11.136718 48.574219-48.839844v-30.71875h31.347656v30.71875l48.578125 48.839844" fill="#936a60"/><path d="m260.128906 435.75c0 34.191406-19.160156 63.128906-45.554687 72.804688-6.113281 2.238281-12.613281 3.445312-19.351563 3.445312-35.847656 0-64.90625-34.140625-64.90625-76.253906 0-42.117188 29.058594-76.257813 64.90625-76.257813 6.738282 0 13.238282 1.207031 19.351563 3.441407 26.394531 9.679687 45.554687 38.617187 45.554687 72.820312zm0 0" fill="#51a2af"/><path d="m260.128906 435.75c0 34.191406-19.160156 63.128906-45.554687 72.804688-26.390625-9.667969-45.566407-38.605469-45.566407-72.804688 0-34.203125 19.175782-63.152344 45.566407-72.816406 26.394531 9.675781 45.554687 38.613281 45.554687 72.816406zm0 0" fill="#67c1b0"/><path d="m195.222656 342.441406c0 34.191406-19.164062 63.128906-45.554687 72.804688-6.113281 2.238281-12.613281 3.445312-19.355469 3.445312-35.847656 0-64.90625-34.140625-64.90625-76.25 0-42.121094 29.058594-76.261718 64.90625-76.261718 6.742188 0 13.242188 1.207031 19.355469 3.445312 26.390625 9.675781 45.554687 38.617188 45.554687 72.816406zm0 0" fill="#51a2af"/><path d="m195.222656 342.441406c0 34.191406-19.164062 63.128906-45.554687 72.804688-26.394531-9.664063-45.566407-38.601563-45.566407-72.804688 0-34.199218 19.171876-63.148437 45.566407-72.816406 26.390625 9.675781 45.554687 38.617188 45.554687 72.816406zm0 0" fill="#67c1b0"/><path d="m325.035156 342.441406c0 34.191406-19.160156 63.128906-45.554687 72.804688-6.109375 2.238281-12.609375 3.445312-19.351563 3.445312-35.847656 0-64.90625-34.140625-64.90625-76.25 0-42.121094 29.058594-76.261718 64.90625-76.261718 6.742188 0 13.242188 1.207031 19.351563 3.445312 26.394531 9.675781 45.554687 38.617188 45.554687 72.816406zm0 0" fill="#51a2af"/><path d="m325.035156 342.441406c0 34.191406-19.160156 63.128906-45.554687 72.804688-26.390625-9.664063-45.5625-38.601563-45.5625-72.804688 0-34.199218 19.171875-63.148437 45.5625-72.816406 26.394531 9.675781 45.554687 38.617188 45.554687 72.816406zm0 0" fill="#67c1b0"/><path d="m389.945312 249.113281c0 34.191407-19.164062 63.132813-45.558593 72.808594-6.109375 2.234375-12.609375 3.441406-19.351563 3.441406-35.847656 0-64.90625-34.140625-64.90625-76.25 0-42.121093 29.058594-76.261719 64.90625-76.261719 6.742188 0 13.242188 1.207032 19.351563 3.445313 26.394531 9.675781 45.558593 38.617187 45.558593 72.816406zm0 0" fill="#51a2af"/><path d="m389.945312 249.113281c0 34.191407-19.164062 63.132813-45.558593 72.808594-26.390625-9.667969-45.5625-38.605469-45.5625-72.808594 0-34.199219 19.171875-63.148437 45.5625-72.816406 26.394531 9.675781 45.558593 38.617187 45.558593 72.816406zm0 0" fill="#67c1b0"/><path d="m260.128906 249.113281c0 34.191407-19.160156 63.132813-45.554687 72.808594-6.113281 2.234375-12.613281 3.441406-19.351563 3.441406-35.847656 0-64.90625-34.140625-64.90625-76.25 0-42.121093 29.058594-76.261719 64.90625-76.261719 6.738282 0 13.238282 1.207032 19.351563 3.445313 26.394531 9.675781 45.554687 38.617187 45.554687 72.816406zm0 0" fill="#51a2af"/><path d="m260.128906 249.113281c0 34.191407-19.160156 63.132813-45.554687 72.808594-26.390625-9.667969-45.566407-38.605469-45.566407-72.808594 0-34.199219 19.175782-63.148437 45.566407-72.816406 26.394531 9.675781 45.554687 38.617187 45.554687 72.816406zm0 0" fill="#67c1b0"/><path d="m130.316406 249.113281c0 34.191407-19.164062 63.132813-45.558594 72.808594-6.109374 2.234375-12.609374 3.441406-19.351562 3.441406-35.847656 0-64.90625-34.140625-64.90625-76.25 0-42.121093 29.058594-76.261719 64.90625-76.261719 6.742188 0 13.242188 1.207032 19.351562 3.445313 26.394532 9.675781 45.558594 38.617187 45.558594 72.816406zm0 0" fill="#51a2af"/><path d="m130.316406 249.113281c0 34.191407-19.164062 63.132813-45.558594 72.808594-26.390624-9.667969-45.5625-38.605469-45.5625-72.808594 0-34.199219 19.171876-63.148437 45.5625-72.816406 26.394532 9.675781 45.558594 38.617187 45.558594 72.816406zm0 0" fill="#67c1b0"/><path d="m195.222656 155.804688c0 34.191406-19.164062 63.132812-45.554687 72.808593-6.113281 2.234375-12.613281 3.441407-19.355469 3.441407-35.847656 0-64.90625-34.140626-64.90625-76.25 0-42.121094 29.058594-76.261719 64.90625-76.261719 6.742188 0 13.242188 1.210937 19.355469 3.445312 26.390625 9.675781 45.554687 38.617188 45.554687 72.816407zm0 0" fill="#51a2af"/><path d="m195.222656 155.804688c0 34.191406-19.164062 63.132812-45.554687 72.808593-26.394531-9.667969-45.566407-38.605469-45.566407-72.808593 0-34.199219 19.171876-63.148438 45.566407-72.816407 26.390625 9.675781 45.554687 38.617188 45.554687 72.816407zm0 0" fill="#67c1b0"/><path d="m325.035156 155.804688c0 34.191406-19.160156 63.132812-45.554687 72.808593-6.109375 2.234375-12.609375 3.441407-19.351563 3.441407-35.847656 0-64.90625-34.140626-64.90625-76.25 0-42.121094 29.058594-76.261719 64.90625-76.261719 6.742188 0 13.242188 1.210937 19.351563 3.445312 26.394531 9.675781 45.554687 38.617188 45.554687 72.816407zm0 0" fill="#51a2af"/><path d="m325.035156 155.804688c0 34.191406-19.160156 63.132812-45.554687 72.808593-26.390625-9.667969-45.5625-38.605469-45.5625-72.808593 0-34.199219 19.171875-63.148438 45.5625-72.816407 26.394531 9.675781 45.554687 38.617188 45.554687 72.816407zm0 0" fill="#67c1b0"/></svg>