<svg id="Capa_1" enable-background="new 0 0 512 512" height="512" viewBox="0 0 512 512" width="512" xmlns="http://www.w3.org/2000/svg"><g><path d="m211.028 15v191c0 19.3-15.71 35-35 35h-40v36h-30v-36h-40c-19.3 0-35-15.7-35-35v-191c0-8.28 6.71-15 15-15 8.28 0 15 6.72 15 15v191c0 2.76 2.24 5 5 5h40v-196c0-8.28 6.71-15 15-15 8.28 0 15 6.72 15 15v196h40c2.75 0 5-2.24 5-5v-191c0-8.28 6.71-15 15-15 8.28 0 15 6.72 15 15z" fill="#1c6c94"/><path d="m211.028 15v191c0 19.3-15.71 35-35 35h-40v36h-15.13v-277h.13c8.28 0 15 6.72 15 15v196h40c2.75 0 5-2.24 5-5v-191c0-8.28 6.71-15 15-15 8.28 0 15 6.72 15 15z" fill="#165771"/><path d="m384.393 2.62c-5.094-3.485-11.801-3.494-16.904-.024-60.404 41.069-96.466 109.196-96.466 182.241v81.288c0 19.299 15.701 35 35 35h139.949c19.299 0 35-15.701 35-35v-81.187c0-73.112-36.115-141.275-96.579-182.318z" fill="#1c6c94"/><path d="m480.968 184.94v81.18c0 19.3-15.7 35-35 35h-69.97v-301.12c2.94.01 5.87.88 8.4 2.62 60.46 41.04 96.57 109.21 96.57 182.32z" fill="#165771"/><path d="m391.028 196.03v140.97h-30v-140.97c0-8.28 6.71-15 15-15 8.28 0 15 6.72 15 15z" fill="#165771"/><path d="m391.028 196.03v140.97h-15.03v-155.97h.03c8.28 0 15 6.72 15 15z" fill="#0c3f60"/><path d="m420.873 432.504v-85.504c0-8.284-6.716-15-15-15h-59.9c-8.284 0-15 6.716-15 15v85.52c-.326 1.418-17.087 26.529.554 54.833 20.505 32.899 68.386 32.842 88.838-.044 17.27-27.772.729-53.849.508-54.805z" fill="#e7985b"/><path d="m420.368 487.31c-10.23 16.43-27.29 24.67-44.37 24.69v-180h29.88c8.28 0 15 6.72 15 15v85.5c.22.96 16.76 27.04-.51 54.81z" fill="#d38853"/><path d="m165.923 432.444v-145.444c0-8.284-6.716-15-15-15h-59.9c-8.284 0-15 6.716-15 15v145.449c-.324 1.402-17.127 26.535.518 54.873 20.468 32.873 68.377 32.939 88.88-.015 17.312-27.827.734-53.857.502-54.863z" fill="#e7985b"/><path d="m165.418 487.31c-10.26 16.5-27.4 24.72-44.52 24.69v-240h30.02c8.29 0 15 6.72 15 15v145.44c.24 1.01 16.82 27.04-.5 54.87z" fill="#d38853"/></g></svg>