<?xml version="1.0" encoding="iso-8859-1"?>
<!-- Generator: Adobe Illustrator 19.0.0, SVG Export Plug-In . SVG Version: 6.00 Build 0)  -->
<svg version="1.1" id="Capa_1" xmlns="http://www.w3.org/2000/svg" xmlns:xlink="http://www.w3.org/1999/xlink" x="0px" y="0px"
	 viewBox="0 0 468.293 468.293" style="enable-background:new 0 0 468.293 468.293;" xml:space="preserve">
<rect x="99.685" y="52.586" style="fill:#4EBD9E;" width="268.925" height="329.94"/>
<g>
	<path style="fill:#647989;" d="M349.854,0H118.415C108.07,0,99.683,8.386,99.683,18.732v33.334h268.903V18.732
		C368.586,8.386,360.2,0,349.854,0z"/>
	<path style="fill:#647989;" d="M368.586,382.525H99.683v67.036c0,10.345,8.386,18.732,18.732,18.732h231.439
		c10.345,0,18.732-8.386,18.732-18.732V382.525z"/>
</g>
<circle style="fill:#D4D5DB;" cx="234.135" cy="425.397" r="24.951"/>
<g>
	<path style="fill:#E0E5E8;" d="M246.765,32.27h-62.536c-3.399,0-6.154-2.755-6.154-6.154V25.95c0-3.399,2.755-6.154,6.154-6.154
		h62.536c3.399,0,6.154,2.755,6.154,6.154v0.166C252.919,29.515,250.163,32.27,246.765,32.27z"/>
	<path style="fill:#E0E5E8;" d="M284.041,32.27H271.4c-3.399,0-6.154-2.755-6.154-6.154V25.95c0-3.399,2.755-6.154,6.154-6.154
		h12.64c3.399,0,6.154,2.755,6.154,6.154v0.166C290.194,29.515,287.439,32.27,284.041,32.27z"/>
</g>
<path style="fill:#D4D5DB;" d="M195.47,268.339l5.683,34.545l4.884-5.792c1.253-0.993,1.876-2.583,1.633-4.163l-3.105-17.781
	c-0.243-1.581-1.315-2.909-2.809-3.48L195.47,268.339z"/>
<path style="fill:#3B566A;" d="M198.592,319.034H181.18c-2.195,0-4.062-1.601-4.398-3.77l-12.767-80.153h26.419l12.557,78.793
	C203.407,316.6,201.321,319.034,198.592,319.034z"/>
<g>
	<path style="fill:#647989;" d="M289.404,113.096v172.936c0,4.181,3.389,7.569,7.569,7.569h6.502c4.181,0,7.569-3.389,7.569-7.569
		V113.096c0-4.181-3.389-7.569-7.569-7.569h-6.502C292.793,105.526,289.404,108.915,289.404,113.096z"/>
	<path style="fill:#647989;" d="M158.52,236.656h-11.8c-3.448,0-6.244-2.795-6.244-6.244v-61.697c0-3.448,2.796-6.244,6.244-6.244
		h11.8V236.656z"/>
</g>
<path style="fill:#3B566A;" d="M311.046,174.124v50.879l12.954-4.356c2.267-0.762,3.794-2.887,3.794-5.278v-31.609
	c0-2.392-1.527-4.516-3.794-5.278L311.046,174.124z"/>
<path style="fill:#E0E5E8;" d="M255.875,132.781c-27.48,17.773-59.272,22.097-91.915,23.088c-3.022,0.092-5.439,2.496-5.439,5.519
	v38.175v38.175c0,3.023,2.417,5.428,5.439,5.519c32.643,0.99,64.435,5.314,91.915,23.088l33.53,21.686v-88.468v-88.468
	L255.875,132.781z"/>
<g>
</g>
<g>
</g>
<g>
</g>
<g>
</g>
<g>
</g>
<g>
</g>
<g>
</g>
<g>
</g>
<g>
</g>
<g>
</g>
<g>
</g>
<g>
</g>
<g>
</g>
<g>
</g>
<g>
</g>
</svg>
