<?xml version="1.0" encoding="iso-8859-1"?>
<!-- Generator: Adobe Illustrator 19.0.0, SVG Export Plug-In . SVG Version: 6.00 Build 0)  -->
<svg version="1.1" id="Capa_1" xmlns="http://www.w3.org/2000/svg" xmlns:xlink="http://www.w3.org/1999/xlink" x="0px" y="0px"
	 viewBox="0 0 512 512" style="enable-background:new 0 0 512 512;" xml:space="preserve">
<path style="fill:#D1DCED;" d="M435.783,203.406h-109.1v35.691h101.194c4.788,0,8.669,3.881,8.669,8.669v132.383
	c0,4.788-3.881,8.669-8.669,8.669H326.684v35.69h109.1c20.133,0,36.454-16.321,36.454-36.454V239.86
	C472.237,219.727,455.915,203.406,435.783,203.406z"/>
<path style="fill:#FFBF14;" d="M325.905,512H104.1c-18.237,0-33.021-14.784-33.021-33.021V144.814h287.847v334.165
	C358.926,497.216,344.142,512,325.905,512z"/>
<path style="fill:#F2AA0A;" d="M310.641,144.814v334.165c0,18.237-14.784,33.021-33.021,33.021h48.285
	c18.237,0,33.021-14.784,33.021-33.021V144.814H310.641z"/>
<path style="fill:#E5EBF6;" d="M308.146,478.406H121.859c-28.045,0-50.78-22.735-50.78-50.78v51.353
	C71.079,497.216,85.863,512,104.1,512h221.805c18.237,0,33.021-14.784,33.021-33.021v-51.353
	C358.926,455.671,336.191,478.406,308.146,478.406z"/>
<path style="fill:#D1DCED;" d="M310.641,478.343v0.636c0,18.237-14.784,33.021-33.021,33.021h48.285
	c18.237,0,33.021-14.784,33.021-33.021v-51.353C358.926,454.834,337.527,477.042,310.641,478.343z"/>
<path style="fill:#FFDC6C;" d="M369.633,112.241c0-23.308-14.613-43.194-35.173-51.023c-11.352-20.595-33.265-34.552-58.444-34.552
	c-11.651,0-22.599,2.994-32.13,8.245C229.471,13.836,205.249,0,177.789,0c-37.149,0-68.377,25.314-77.398,59.632
	c-23.072,6.378-40.02,27.508-40.02,52.609l0,0c-13.42,19.411-20.609,42.45-20.609,66.049v95.907
	c0,13.236,10.73,23.966,23.966,23.966l0,0c13.236,0,23.966-10.73,23.966-23.966v-97.704c6.197,3.646,13.414,5.745,21.124,5.745
	c21.593,0,39.355-16.4,41.512-37.423h208.521C365.624,135.721,369.633,124.45,369.633,112.241z"/>
<g>
	<path style="fill:#F7CE5E;" d="M195.6,34.911c9.531-5.251,20.48-8.245,32.13-8.245c3.542,0,7.015,0.286,10.407,0.817
		C223.467,10.646,201.874,0,177.789,0c-8.413,0-16.516,1.31-24.133,3.717C170.893,9.17,185.605,20.297,195.6,34.911z"/>
	<path style="fill:#F7CE5E;" d="M334.46,61.218c-11.352-20.595-33.265-34.552-58.444-34.552c-8.514,0-16.649,1.605-24.134,4.515
		c14.645,5.695,26.781,16.41,34.292,30.037c20.56,7.829,35.173,27.715,35.173,51.023c0,12.209,0,32.573,0,32.573h37.504
		c6.772-9.093,10.782-20.364,10.782-32.573C369.633,88.933,355.02,69.047,334.46,61.218z"/>
</g>
<g>
	<path style="fill:#FFE07D;" d="M124.79,215.807c-4.268,0-7.728,3.46-7.728,7.728v195.441c0,4.268,3.46,7.728,7.728,7.728
		c4.268,0,7.728-3.46,7.728-7.728V223.535C132.518,219.267,129.059,215.807,124.79,215.807z"/>
	<path style="fill:#FFE07D;" d="M182.952,215.807c-4.268,0-7.728,3.46-7.728,7.728v195.441c0,4.268,3.46,7.728,7.728,7.728
		c4.268,0,7.728-3.46,7.728-7.728V223.535C190.68,219.267,187.22,215.807,182.952,215.807z"/>
	<path style="fill:#FFE07D;" d="M241.115,215.807c-4.268,0-7.728,3.46-7.728,7.728v195.441c0,4.268,3.46,7.728,7.728,7.728
		c4.268,0,7.728-3.46,7.728-7.728V223.535C248.843,219.267,245.383,215.807,241.115,215.807z"/>
	<path style="fill:#FFE07D;" d="M299.279,215.807c-4.268,0-7.728,3.46-7.728,7.728v195.441c0,4.268,3.46,7.728,7.728,7.728
		s7.728-3.46,7.728-7.728V223.535C307.007,219.267,303.547,215.807,299.279,215.807z"/>
</g>
<g>
</g>
<g>
</g>
<g>
</g>
<g>
</g>
<g>
</g>
<g>
</g>
<g>
</g>
<g>
</g>
<g>
</g>
<g>
</g>
<g>
</g>
<g>
</g>
<g>
</g>
<g>
</g>
<g>
</g>
</svg>
