<svg id="Capa_1" enable-background="new 0 0 512 512" height="512" viewBox="0 0 512 512" width="512" xmlns="http://www.w3.org/2000/svg"><g><path d="m256 0 22.408 110.797-22.408 99.536c-2.942 0-5.872-.747-8.515-2.241-2.654-1.517-65.212-37.691-68.636-96.25-2.195-37.783 20.328-74.29 66.959-108.499 3.033-2.228 6.607-3.343 10.192-3.343z" fill="#bfe85f"/><path d="m333.151 111.843c-3.424 58.559-65.982 94.733-68.636 96.25-2.643 1.494-5.585 2.241-8.515 2.241v-210.334c3.585 0 7.159 1.115 10.193 3.344 46.631 34.209 69.153 70.716 66.958 108.499z" fill="#00cb76"/><g><g><g><g><path d="m256 93.122 7.559 93.538-7.559 70.489c-8.345 0-15.118-6.773-15.118-15.118v-133.791c0-8.355 6.773-15.118 15.118-15.118z" fill="#00cb76"/></g></g></g><path d="m256 93.122v164.028c8.345 0 15.118-6.773 15.118-15.118v-133.792c0-8.355-6.773-15.118-15.118-15.118z" fill="#00a963"/></g><g><path d="m256 387.28v124.72h-130.81c-5.523 0-10-4.477-10-10v-66.35c0-22.647-12.332-33.648-24.44-47.32-36.09-40.77-56.01-93.34-56.01-147.79v-186.83c0-10.69 4.33-20.37 11.34-27.37 7-7.01 16.68-11.34 27.37-11.34 19.12 0 35.38 13.96 38.27 32.85l25.51 166.61 8.75 8.75.17.17 71.63 71.64c24.47 24.47 38.22 57.65 38.22 92.26z" fill="#ffbda9"/><path d="m256 387.28 33.93 49.72-33.93 75h-73v-144.4c0-16.482-7.097-32.167-19.479-43.046l-23.141-20.334-37.41-38.01c-5.702-5.804-8.74-13.494-8.74-21.34 0-27.01 32.57-40.58 51.75-21.66l.17.17 71.63 71.64c24.47 24.47 38.22 57.65 38.22 92.26z" fill="#ffa68c"/></g><path d="m256 387.28v124.72h130.81c5.523 0 10-4.477 10-10v-66.35c0-22.647 12.332-33.648 24.44-47.32 36.09-40.77 56.01-93.34 56.01-147.79v-186.83c0-10.69-4.33-20.37-11.34-27.37-7-7.01-16.68-11.34-27.37-11.34-19.12 0-35.38 13.96-38.27 32.85l-25.51 166.61-8.75 8.75c-.06.06-.11.11-.17.17l-71.63 71.64c-24.47 24.47-38.22 57.65-38.22 92.26z" fill="#ffbda9"/><path d="m256 387.28v124.72h73v-144.4c0-16.482 7.097-32.167 19.479-43.046l23.141-20.334 37.41-38.01c5.702-5.804 8.74-13.494 8.74-21.34 0-27.01-32.57-40.58-51.75-21.66-.06.06-.11.11-.17.17l-71.63 71.64c-24.47 24.47-38.22 57.65-38.22 92.26z" fill="#f59280"/></g></svg>