<?xml version="1.0" encoding="iso-8859-1"?>
<!-- Generator: Adobe Illustrator 19.0.0, SVG Export Plug-In . SVG Version: 6.00 Build 0)  -->
<svg version="1.1" id="Capa_1" xmlns="http://www.w3.org/2000/svg" xmlns:xlink="http://www.w3.org/1999/xlink" x="0px" y="0px"
	 viewBox="0 0 512 512" style="enable-background:new 0 0 512 512;" xml:space="preserve">
<path style="fill:#FFD15C;" d="M431.061,0.395H32c-17.664,0-32,14.336-32,32v399.061c0,17.685,14.336,32,32,32h399.061
	c17.664,0,32-14.315,32-32V32.395C463.061,14.731,448.725,0.395,431.061,0.395"/>
<polygon style="fill:#F8B64C;" points="288.768,105.824 288.768,0.405 174.293,0.405 174.293,105.824 231.52,66.208 "/>
<path style="fill:#F2F2F2;" d="M354.688,510.773c3.851,1.109,8,1.109,11.851,0C453.397,485.728,512,417.547,512,340.683V267.04
	c0-9.067-5.685-17.141-14.272-20.085c-51.563-17.653-102.443-50.571-125.003-66.208c-7.317-5.067-16.896-5.067-24.224,0
	c-22.56,15.637-73.44,48.555-125.003,66.208c-8.565,2.933-14.272,11.019-14.272,20.085v73.643
	C209.227,417.547,267.829,485.728,354.688,510.773"/>
<g>
	<path style="fill:#FFFFFF;" d="M360.629,213.813h-0.021c-25.877,17.088-68.149,42.517-112.917,59.296v67.584
		c0,0.501,0.064,0.981,0.064,1.483h112.875V213.813z"/>
	<path style="fill:#FFFFFF;" d="M473.483,342.165H360.629v136.331C428.107,456.544,472.768,403.083,473.483,342.165"/>
</g>
<g>
	<path style="fill:#84DBFF;" d="M360.629,342.251h112.853c0-0.523,0.064-1.045,0.064-1.557v-67.563
		c-44.747-16.768-87.04-42.229-112.917-59.317V342.251z"/>
	<path style="fill:#84DBFF;" d="M360.608,478.496h0.021V342.251H247.755C248.523,403.147,293.163,456.587,360.608,478.496"/>
</g>
<g>
</g>
<g>
</g>
<g>
</g>
<g>
</g>
<g>
</g>
<g>
</g>
<g>
</g>
<g>
</g>
<g>
</g>
<g>
</g>
<g>
</g>
<g>
</g>
<g>
</g>
<g>
</g>
<g>
</g>
</svg>
