<?xml version="1.0" encoding="iso-8859-1"?>
<!-- Generator: Adobe Illustrator 19.0.0, SVG Export Plug-In . SVG Version: 6.00 Build 0)  -->
<svg xmlns="http://www.w3.org/2000/svg" xmlns:xlink="http://www.w3.org/1999/xlink" version="1.1" id="Layer_1" x="0px" y="0px" viewBox="0 0 512 512" style="enable-background:new 0 0 512 512;" xml:space="preserve">
<path style="fill:#DDDD47;" d="M116.87,483.096c-9.217,0-16.696-7.473-16.696-16.696V168.661c0-9.223,7.479-16.696,16.696-16.696  s16.696,7.473,16.696,16.696V466.4C133.565,475.623,126.087,483.096,116.87,483.096z"/>
<path style="fill:#C7D100;" d="M133.565,466.4V168.661c0-9.223-7.479-16.696-16.696-16.696v331.13  C126.087,483.096,133.565,475.623,133.565,466.4z"/>
<path style="fill:#FFE477;" d="M221.828,161.932c4.008,17.03-0.89,34.616-13.357,46.97l-18.031,18.031  c-12.355,12.355-29.831,17.363-46.859,13.357c-10.686-2.56-19.923-8.348-26.713-16.362c-6.79,8.014-16.027,13.803-26.713,16.362  c-16.806,3.896-34.393-0.89-46.859-13.357l-18.031-18.031c-12.466-12.355-17.365-29.941-13.357-46.97  c2.449-10.574,8.237-19.923,16.25-26.713c-8.014-6.79-13.802-16.028-16.25-26.602c-4.008-17.03,0.89-34.616,13.357-46.97  l18.031-18.031C55.651,31.26,73.127,26.252,90.155,30.259c10.686,2.56,19.923,8.348,26.713,16.362  c6.79-8.014,16.027-13.802,26.713-16.362c17.028-4.007,34.504,1.002,46.859,13.357l18.031,18.031  c12.466,12.355,17.365,29.941,13.357,46.97c-2.449,10.574-8.237,19.812-16.25,26.602  C213.592,142.008,219.381,151.359,221.828,161.932z"/>
<path style="fill:#FFB655;" d="M221.828,161.932c4.008,17.03-0.89,34.616-13.357,46.97l-18.031,18.031  c-12.355,12.355-29.831,17.363-46.859,13.357c-10.686-2.56-19.923-8.348-26.713-16.362V46.62  c6.79-8.014,16.027-13.802,26.713-16.362c17.028-4.007,34.504,1.002,46.859,13.357l18.031,18.031  c12.466,12.355,17.365,29.941,13.357,46.97c-2.449,10.574-8.237,19.812-16.25,26.602  C213.592,142.008,219.381,151.359,221.828,161.932z"/>
<path style="fill:#CC8E3C;" d="M116.87,183.303L116.87,183.303c-27.662,0-50.087-22.424-50.087-50.087l0,0  c0-27.662,22.424-50.087,50.087-50.087l0,0c27.662,0,50.087,22.424,50.087,50.087l0,0  C166.957,160.878,144.532,183.303,116.87,183.303z"/>
<path style="fill:#BF7835;" d="M166.957,133.216c0-27.662-22.423-50.087-50.087-50.087v100.174  C144.533,183.303,166.957,160.879,166.957,133.216z"/>
<path style="fill:#7CCC92;" d="M217.043,271.568h-16.696c-34.838,0-65.447,18.031-83.478,45.078c0,0-0.445-0.668-0.669-0.89  c-18.475-27.27-49.195-44.188-82.809-44.188H16.696C7.456,271.568,0,279.136,0,288.375v16.807  c0,55.652,44.967,100.73,100.174,100.73h33.391c55.207,0,100.174-45.078,100.174-100.73v-16.807  C233.739,279.135,226.283,271.568,217.043,271.568z"/>
<path style="fill:#FFE477;" d="M116.87,149.912L116.87,149.912c-9.22,0-16.696-7.475-16.696-16.696l0,0  c0-9.22,7.475-16.696,16.696-16.696l0,0c9.22,0,16.696,7.475,16.696,16.696l0,0C133.565,142.437,126.09,149.912,116.87,149.912z"/>
<path style="fill:#FFB655;" d="M133.565,133.216c0-9.22-7.475-16.696-16.696-16.696v33.391  C126.09,149.912,133.565,142.437,133.565,133.216z"/>
<path style="fill:#34B772;" d="M233.739,288.375v16.807c0,55.652-44.967,100.73-100.174,100.73H116.87v-89.266  c18.031-27.047,48.64-45.078,83.478-45.078h16.696C226.283,271.568,233.739,279.135,233.739,288.375z"/>
<path style="fill:#DDDD47;" d="M395.13,483.096c-9.217,0-16.696-7.473-16.696-16.696V168.661c0-9.223,7.479-16.696,16.696-16.696  c9.217,0,16.696,7.473,16.696,16.696V466.4C411.826,475.623,404.348,483.096,395.13,483.096z"/>
<path style="fill:#C7D100;" d="M411.826,466.4V168.661c0-9.223-7.479-16.696-16.696-16.696v331.13  C404.348,483.096,411.826,475.623,411.826,466.4z"/>
<path style="fill:#FFE477;" d="M500.089,161.932c4.008,17.03-0.89,34.616-13.357,46.97l-18.031,18.031  c-12.355,12.355-29.831,17.363-46.859,13.357c-10.686-2.56-19.923-8.348-26.713-16.362c-6.79,8.014-16.027,13.803-26.713,16.362  c-16.806,3.896-34.393-0.89-46.859-13.357l-18.031-18.031c-12.466-12.355-17.365-29.941-13.357-46.97  c2.449-10.574,8.237-19.923,16.25-26.713c-8.014-6.79-13.802-16.028-16.25-26.602c-4.008-17.03,0.89-34.616,13.357-46.97  l18.031-18.031c12.355-12.355,29.831-17.363,46.859-13.357c10.686,2.56,19.923,8.348,26.713,16.362  c6.79-8.014,16.027-13.802,26.713-16.362c17.028-4.007,34.504,1.002,46.859,13.357l18.031,18.031  c12.466,12.355,17.365,29.941,13.357,46.97c-2.449,10.574-8.237,19.812-16.25,26.602  C491.853,142.008,497.642,151.359,500.089,161.932z"/>
<path style="fill:#FFB655;" d="M500.089,161.932c4.008,17.03-0.89,34.616-13.357,46.97l-18.031,18.031  c-12.355,12.355-29.831,17.363-46.859,13.357c-10.686-2.56-19.923-8.348-26.713-16.362V46.62  c6.79-8.014,16.027-13.802,26.713-16.362c17.028-4.007,34.504,1.002,46.859,13.357l18.031,18.031  c12.466,12.355,17.365,29.941,13.357,46.97c-2.449,10.574-8.237,19.812-16.25,26.602  C491.853,142.008,497.642,151.359,500.089,161.932z"/>
<path style="fill:#CC8E3C;" d="M395.13,183.303L395.13,183.303c-27.662,0-50.087-22.424-50.087-50.087l0,0  c0-27.662,22.424-50.087,50.087-50.087l0,0c27.662,0,50.087,22.424,50.087,50.087l0,0  C445.217,160.878,422.793,183.303,395.13,183.303z"/>
<path style="fill:#BF7835;" d="M445.217,133.216c0-27.662-22.423-50.087-50.087-50.087v100.174  C422.794,183.303,445.217,160.879,445.217,133.216z"/>
<path style="fill:#7CCC92;" d="M495.304,271.568h-16.696c-34.838,0-65.447,18.031-83.478,45.078c0,0-0.445-0.668-0.669-0.89  c-18.475-27.27-49.195-44.188-82.809-44.188h-16.696c-9.239,0-16.696,7.569-16.696,16.807v16.807  c0,55.652,44.967,100.73,100.174,100.73h33.391c55.207,0,100.174-45.078,100.174-100.73v-16.807  C512,279.135,504.544,271.568,495.304,271.568z"/>
<path style="fill:#FFE477;" d="M395.13,149.912L395.13,149.912c-9.22,0-16.696-7.475-16.696-16.696l0,0  c0-9.22,7.475-16.696,16.696-16.696l0,0c9.22,0,16.696,7.475,16.696,16.696l0,0C411.826,142.437,404.351,149.912,395.13,149.912z"/>
<path style="fill:#FFB655;" d="M411.826,133.216c0-9.22-7.475-16.696-16.696-16.696v33.391  C404.351,149.912,411.826,142.437,411.826,133.216z"/>
<path style="fill:#34B772;" d="M512,288.375v16.807c0,55.652-44.967,100.73-100.174,100.73H395.13v-89.266  c18.031-27.047,48.64-45.078,83.478-45.078h16.696C504.544,271.568,512,279.135,512,288.375z"/>
<g>
</g>
<g>
</g>
<g>
</g>
<g>
</g>
<g>
</g>
<g>
</g>
<g>
</g>
<g>
</g>
<g>
</g>
<g>
</g>
<g>
</g>
<g>
</g>
<g>
</g>
<g>
</g>
<g>
</g>
</svg>
