<?xml version="1.0" encoding="iso-8859-1"?>
<!-- Generator: Adobe Illustrator 19.0.0, SVG Export Plug-In . SVG Version: 6.00 Build 0)  -->
<svg xmlns="http://www.w3.org/2000/svg" xmlns:xlink="http://www.w3.org/1999/xlink" version="1.1" id="Layer_1" x="0px" y="0px" viewBox="0 0 512 512" style="enable-background:new 0 0 512 512;" xml:space="preserve">
<path style="fill:#76CC5B;" d="M256,299.197c106.358,0,134.929-219.015,0-299.197C121.071,80.182,149.642,299.197,256,299.197z"/>
<path style="opacity:0.2;enable-background:new    ;" d="M267.462,276.272c-78.099,0-114.255-118.092-74.531-212.593  C136.046,160.723,171.429,299.197,256,299.197c36.754,0,64.216-26.157,78.854-63.699  C319.168,260.337,296.147,276.272,267.462,276.272z"/>
<path style="fill:#69B551;" d="M298.154,177.749c3.976-2.594,5.096-7.921,2.502-11.897c-2.595-3.976-7.922-5.098-11.897-2.502  l-24.162,15.763v-36.408l33.556-21.893c3.976-2.594,5.096-7.92,2.502-11.897c-2.595-3.976-7.922-5.097-11.897-2.502l-24.162,15.763  v-40.82c0-4.748-3.848-8.597-8.597-8.597c-4.748,0-8.597,3.849-8.597,8.597v40.82l-24.163-15.763  c-3.976-2.595-9.303-1.474-11.897,2.502c-2.594,3.976-1.474,9.303,2.502,11.897l33.556,21.893v36.408l-24.162-15.763  c-3.976-2.594-9.303-1.474-11.897,2.502s-1.474,9.303,2.502,11.897l33.556,21.893v36.408l-24.162-15.763  c-3.976-2.594-9.303-1.474-11.897,2.502s-1.474,9.303,2.502,11.897l33.556,21.893V356.89c0,4.748,3.849,8.597,8.597,8.597  c4.749,0,8.597-3.849,8.597-8.597V256.579l33.556-21.893c3.976-2.594,5.096-7.921,2.502-11.897  c-2.595-3.976-7.922-5.097-11.897-2.502l-24.162,15.763v-36.408L298.154,177.749z"/>
<path style="fill:#FF704D;" d="M151.692,368.351l16.279,113.338C170.47,499.084,185.372,512,202.946,512h106.106  c17.574,0,32.477-12.916,34.975-30.311l16.279-113.338H151.692z"/>
<path style="opacity:0.2;enable-background:new    ;" d="M225.283,481.689l-16.279-113.336h-57.312l16.279,113.336  C170.47,499.084,185.373,512,202.948,512h57.312C242.685,511.999,227.782,499.084,225.283,481.689z"/>
<path style="fill:#FF8E73;" d="M368.256,340.177H143.744c-8.664,0-15.687,7.024-15.687,15.687v24.973  c0,8.664,7.024,15.687,15.687,15.687h224.511c8.664,0,15.687-7.024,15.687-15.687v-24.973  C383.944,347.201,376.92,340.177,368.256,340.177z"/>
<path style="opacity:0.2;enable-background:new    ;" d="M185.369,380.838v-24.973c0-8.664,7.024-15.687,15.689-15.687h-57.312  c-8.664,0-15.689,7.023-15.689,15.687v24.973c0,8.664,7.024,15.687,15.689,15.687h57.312  C192.393,396.526,185.369,389.502,185.369,380.838z"/>
<g>
</g>
<g>
</g>
<g>
</g>
<g>
</g>
<g>
</g>
<g>
</g>
<g>
</g>
<g>
</g>
<g>
</g>
<g>
</g>
<g>
</g>
<g>
</g>
<g>
</g>
<g>
</g>
<g>
</g>
</svg>
