<?xml version="1.0" encoding="iso-8859-1"?>
<!-- Generator: Adobe Illustrator 19.0.0, SVG Export Plug-In . SVG Version: 6.00 Build 0)  -->
<svg version="1.1" id="Capa_1" xmlns="http://www.w3.org/2000/svg" xmlns:xlink="http://www.w3.org/1999/xlink" x="0px" y="0px"
	 viewBox="0 0 512.024 512.024" style="enable-background:new 0 0 512.024 512.024;" xml:space="preserve">
<path style="fill:#ECEFF1;" d="M416.012,0h-336l64,96v400c0,5.312,2.656,10.272,7.04,13.248c4.384,2.976,9.984,3.552,14.912,1.6
	l74.048-29.632l74.048,29.632c3.808,1.568,8.064,1.568,11.872,0l74.08-29.632l74.048,29.632c1.92,0.768,3.968,1.152,5.952,1.152
	c3.168,0,6.272-0.928,8.96-2.752c4.416-2.976,7.04-7.936,7.04-13.248V80C496.012,35.904,460.14,0,416.012,0z"/>
<g>
	<path style="fill:#90A4AE;" d="M416.012,192h-192c-8.832,0-16-7.168-16-16s7.168-16,16-16h192c8.832,0,16,7.168,16,16
		S424.844,192,416.012,192z"/>
	<path style="fill:#90A4AE;" d="M416.012,256h-192c-8.832,0-16-7.168-16-16s7.168-16,16-16h192c8.832,0,16,7.168,16,16
		S424.844,256,416.012,256z"/>
	<path style="fill:#90A4AE;" d="M416.012,320h-128c-8.832,0-16-7.168-16-16s7.168-16,16-16h128c8.832,0,16,7.168,16,16
		S424.844,320,416.012,320z"/>
	<path style="fill:#90A4AE;" d="M416.012,384h-128c-8.832,0-16-7.168-16-16s7.168-16,16-16h128c8.832,0,16,7.168,16,16
		S424.844,384,416.012,384z"/>
</g>
<path style="fill:#B0BEC5;" d="M144.012,192h-128V64c0-35.36,28.64-64,64-64l0,0c35.36,0,64,28.64,64,64V192z"/>
<g>
</g>
<g>
</g>
<g>
</g>
<g>
</g>
<g>
</g>
<g>
</g>
<g>
</g>
<g>
</g>
<g>
</g>
<g>
</g>
<g>
</g>
<g>
</g>
<g>
</g>
<g>
</g>
<g>
</g>
</svg>
