<svg height="511pt" viewBox="-69 1 511 511.99999" width="511pt" xmlns="http://www.w3.org/2000/svg"><path d="m237.164062 395.378906v98.71875c0 9.867188-8.035156 17.902344-17.902343 17.902344h-64.199219c-9.867188 0-17.902344-8.035156-17.902344-17.902344v-98.71875zm0 0" fill="#9b5e34"/><path d="m237.164062 395.378906v98.71875c0 9.867188-8.035156 17.902344-17.902343 17.902344h-32.101563v-116.621094zm0 0" fill="#824e2b"/><path d="m370.855469 440.195312c-3.839844 5.34375-10.6875 7.773438-17.03125 6.054688l-166.664063-45.027344-166.671875 45.027344c-1.363281.367188-2.734375.550781-4.105469.550781-5.019531 0-9.894531-2.402343-12.917968-6.605469-3.839844-5.34375-3.960938-12.609374-.296875-18.070312l.269531-.402344 90.304688-126.128906-38.394532 8.246094c-6.0625 1.519531-12.488281-.640625-16.390625-5.664063-4.230469-5.453125-4.460937-12.949219-.578125-18.652343l.308594-.429688 83.394531-113.648438-16.523437 3.28125c-5.8125 1.449219-11.996094-.492187-15.9375-5.175781-4.445313-5.273437-4.984375-12.738281-1.351563-18.589843l85.421875-137.464844c2.902344-4.683594 7.9375-7.4843752 13.460938-7.496094h.007812c5.515625 0 10.546875 2.800781 13.46875 7.484375l85.425782 137.464844c3.628906 5.855469 3.101562 13.328125-1.34375 18.59375-3.949219 4.691406-10.136719 6.632812-15.949219 5.183593l-16.507813-3.28125 83.539063 113.859376.152343.21875c3.882813 5.703124 3.652344 13.199218-.582031 18.652343-3.902343 5.023438-10.324219 7.183594-16.378906 5.664063l-38.40625-8.246094 90.449219 126.328125.128906.203125c3.664062 5.460938 3.542969 12.726562-.300781 18.070312zm0 0" fill="#b4d241"/><path d="m370.855469 440.195312c-3.839844 5.34375-10.6875 7.773438-17.03125 6.054688l-166.664063-45.027344v-401.222656c5.515625 0 10.546875 2.800781 13.46875 7.484375l85.425782 137.464844c3.628906 5.855469 3.101562 13.328125-1.34375 18.59375-3.949219 4.691406-10.136719 6.632812-15.949219 5.183593l-16.507813-3.28125 83.539063 113.859376.152343.21875c3.882813 5.703124 3.652344 13.199218-.582031 18.652343-3.902343 5.023438-10.324219 7.183594-16.378906 5.664063l-38.40625-8.246094 90.449219 126.328125.128906.203125c3.664062 5.460938 3.542969 12.726562-.300781 18.070312zm0 0" fill="#8ca52d"/></svg>