<?xml version="1.0" encoding="iso-8859-1"?>
<!-- Generator: Adobe Illustrator 19.0.0, SVG Export Plug-In . SVG Version: 6.00 Build 0)  -->
<svg version="1.1" id="Capa_1" xmlns="http://www.w3.org/2000/svg" xmlns:xlink="http://www.w3.org/1999/xlink" x="0px" y="0px"
	 viewBox="0 0 512 512" style="enable-background:new 0 0 512 512;" xml:space="preserve">
<path style="fill:#FFE475;" d="M496.624,421.07H15.376C6.884,421.07,0,414.186,0,405.694V106.306C0,97.814,6.884,90.93,15.376,90.93
	h481.248c8.492,0,15.376,6.884,15.376,15.376v299.388C512,414.186,505.116,421.07,496.624,421.07z"/>
<g>
	<path style="fill:#FFB726;" d="M496.624,90.93H255.996v330.14h240.627c8.492,0,15.376-6.884,15.376-15.376V106.306
		C512,97.813,505.116,90.93,496.624,90.93z"/>
	<path style="fill:#FFB726;" d="M125.067,253.808c-29.088,0-52.754-23.666-52.754-52.754s23.666-52.754,52.754-52.754
		s52.754,23.666,52.754,52.754S154.155,253.808,125.067,253.808z"/>
	<path style="fill:#FFB726;" d="M228.231,363.701c-27.028,0-49.017-21.989-49.017-49.017s21.989-49.017,49.017-49.017
		s49.017,21.989,49.017,49.017S255.26,363.701,228.231,363.701z"/>
</g>
<g>
	<path style="fill:#FC8B26;" d="M383.943,260.321c-30.738,0-55.745-25.008-55.745-55.744c0-30.738,25.008-55.745,55.745-55.745
		c30.737,0,55.744,25.008,55.744,55.745C439.687,235.314,414.68,260.321,383.943,260.321z"/>
	<path style="fill:#FC8B26;" d="M403.164,338.284c8.043,0,15.748-7.072,15.376-15.376c-0.373-8.331-6.756-15.376-15.376-15.376
		c-8.043,0-15.748,7.072-15.376,15.376C388.161,331.239,394.544,338.284,403.164,338.284L403.164,338.284z"/>
</g>
<g>
	<path style="fill:#FFB726;" d="M258.882,226.147c8.043,0,15.748-7.072,15.376-15.376c-0.373-8.331-6.756-15.376-15.376-15.376
		c-8.043,0-15.748,7.072-15.376,15.376C243.879,219.102,250.262,226.147,258.882,226.147L258.882,226.147z"/>
	<path style="fill:#FFB726;" d="M98.155,340.526c8.043,0,15.748-7.072,15.376-15.376c-0.373-8.331-6.756-15.376-15.376-15.376
		c-8.043,0-15.748,7.072-15.376,15.376C83.152,333.481,89.534,340.526,98.155,340.526L98.155,340.526z"/>
</g>
<g>
	<path style="fill:#FC8B26;" d="M258.882,195.395c-0.972,0-1.937,0.108-2.886,0.304v30.166c0.93,0.178,1.891,0.283,2.886,0.283
		c8.043,0,15.748-7.072,15.376-15.376C273.885,202.44,267.503,195.395,258.882,195.395z"/>
	<path style="fill:#FC8B26;" d="M255.996,274.319v80.731c12.826-8.849,21.253-23.639,21.253-40.365
		C277.249,297.958,268.822,283.168,255.996,274.319z"/>
</g>
<g>
</g>
<g>
</g>
<g>
</g>
<g>
</g>
<g>
</g>
<g>
</g>
<g>
</g>
<g>
</g>
<g>
</g>
<g>
</g>
<g>
</g>
<g>
</g>
<g>
</g>
<g>
</g>
<g>
</g>
</svg>
