<svg height="511pt" viewBox="-56 0 511 511.9998" width="511pt" xmlns="http://www.w3.org/2000/svg"><path d="m298.207031 511.738281c-9.917969 1.6875-19.324219-4.992187-21.007812-14.910156l-86.707031-475.558594c-1.683594-9.921875 4.992187-19.324219 14.914062-21.007812 9.917969-1.6875 19.324219 4.988281 21.007812 14.910156l86.703126 475.558594c1.683593 9.921875-4.992188 19.328125-14.910157 21.007812zm0 0" fill="#c97e4b"/><path d="m52.945312 511.738281c9.917969 1.6875 19.324219-4.992187 21.007813-14.910156l86.703125-475.558594c1.683594-9.921875-4.992188-19.324219-14.910156-21.007812-9.917969-1.6875-19.324219 4.988281-21.007813 14.910156l-86.707031 475.558594c-1.683594 9.921875 4.992188 19.328125 14.914062 21.007812zm0 0" fill="#dd9666"/><path d="m157.359375 334.453125v123.308594c0 10.0625 8.15625 18.214843 18.214844 18.214843 10.0625 0 18.214843-8.15625 18.214843-18.214843v-123.308594zm0 0" fill="#dd9666"/><path d="m334.5625 377.070312h-317.976562v-304.78125c0-4.757812 3.859374-8.617187 8.621093-8.617187h300.738281c4.757813 0 8.617188 3.859375 8.617188 8.617187zm0 0" fill="#efefef"/><path d="m325.945312 63.671875h-53.191406v313.398437h61.808594v-304.78125c0-4.757812-3.859375-8.617187-8.617188-8.617187zm0 0" fill="#d8d8d8"/><path d="m343.730469 394.199219h-336.308594c-3.824219 0-6.921875-3.097657-6.921875-6.921875v-20.417969c0-3.824219 3.097656-6.921875 6.921875-6.921875h336.308594c3.820312 0 6.921875 3.097656 6.921875 6.921875v20.417969c0 3.824218-3.101563 6.921875-6.921875 6.921875zm0 0" fill="#45748c"/><path d="m343.730469 359.9375h-54.757813v34.261719h54.757813c3.820312 0 6.921875-3.097657 6.921875-6.921875v-20.417969c0-3.824219-3.101563-6.921875-6.921875-6.921875zm0 0" fill="#236575"/><path d="m91.179688 80.804688h168.792968c3.171875 0 5.742188-2.574219 5.742188-5.746094v-22.773438c0-3.171875-2.570313-5.746094-5.742188-5.746094h-168.792968c-3.171876 0-5.746094 2.574219-5.746094 5.746094v22.773438c0 3.171875 2.574218 5.746094 5.746094 5.746094zm0 0" fill="#45748c"/><path d="m259.972656 46.539062h-55.898437v34.265626h55.898437c3.171875 0 5.742188-2.574219 5.742188-5.746094v-22.773438c0-3.171875-2.570313-5.746094-5.742188-5.746094zm0 0" fill="#236575"/><path d="m176.875 255.039062c9.277344-9.273437 19.082031-9.628906 27.523438-9.441406 12.71875.285156 27.921874 12.804688 27.03125 27.035156-.480469 7.71875-1.71875 19.800782-9.4375 27.519532-30.183594 30.183594-70.816407 29.132812-86.894532 27.285156-2.640625-.300781-3.617187-3.632812-1.558594-5.3125 36.289063-29.65625 17.738282-41.484375 43.335938-67.085938zm0 0" fill="#dbcdbd"/><path d="m204.398438 245.597656c5.957031 11.621094 15.414062 21.074219 27.03125 27.035156l39.402343-30.546874c2.597657-2.011719 4.992188-4.265626 7.164063-6.730469l117.425781-133.480469c5.003906-5.6875 4.726563-14.28125-.628906-19.636719s-13.949219-5.632812-19.636719-.628906l-133.480469 117.425781c-2.46875 2.167969-4.722656 4.566406-6.734375 7.164063zm0 0" fill="#fc7371"/><path d="m184.9375 292.71875c-13.03125-6.582031-18.078125-15.152344-19.941406-21.777344-8.078125 16.101563-3.535156 28.367188-31.457032 51.183594-2.054687 1.679688-1.082031 5.011719 1.558594 5.3125 12.792969 1.472656 41.125 2.417969 67.371094-12.445312-2.546875-8.597657-7.628906-17.273438-17.53125-22.273438zm0 0" fill="#efb525"/></svg>