<svg id="Layer_1" enable-background="new 0 0 510 510" height="512" viewBox="0 0 510 510" width="512" xmlns="http://www.w3.org/2000/svg"><g id="XMLID_3947_"><path id="XMLID_4080_" d="m84 475 118.5-385c-12.117-16.155-37.941-50.589-45-60-22.151 0-135.213 0-157.5 0v405c0 24.852 20.146 45 45 45 .613-.055 22.698-.793 26.833-1.5 2.162-.369 12.167-3.5 12.167-3.5z" fill="#bebcdd"/><path id="XMLID_4081_" d="m285 150-97.5 15-97.5-15c0-7.259 0-52.693 0-60h195l15 30z" fill="#e2dff4"/><path id="XMLID_4079_" d="m480 150-97.5 15-97.5-15c0-7.259 0-52.693 0-60h195z" fill="#bebcdd"/><path id="XMLID_4087_" d="m90 150v285c0 24.785-20.101 45-45 45h240l15-165-15-165c-63.805 0-121.57 0-195 0z" fill="#f9f9f9"/><path id="XMLID_4082_" d="m285 150v330h136c49.074 0 89-39.924 89-89 0-6.801 0-234.206 0-241-49.579 0-175.419 0-225 0z" fill="#e2dff4"/><path id="XMLID_4083_" d="m150 210v150h135l15-75-15-75c-16.333 0-118.559 0-135 0z" fill="#f4d844"/><path id="XMLID_4078_" d="m285 210v150h30c0-10.128 0-139.871 0-150-10.492 0-19.508 0-30 0z" fill="#ecbd2c"/><path id="XMLID_4067_" d="m345 210h105v30h-105z" fill="#00cb76"/><path id="XMLID_3995_" d="m345 270h105v30h-105z" fill="#8493fb"/><path id="XMLID_3960_" d="m345 330h105v30h-105z" fill="#c21456"/></g></svg>