<?xml version="1.0" encoding="iso-8859-1"?>
<!-- Generator: Adobe Illustrator 19.0.0, SVG Export Plug-In . SVG Version: 6.00 Build 0)  -->
<svg xmlns="http://www.w3.org/2000/svg" xmlns:xlink="http://www.w3.org/1999/xlink" version="1.1" id="Capa_1" x="0px" y="0px" viewBox="0 0 409.474 409.474" style="enable-background:new 0 0 409.474 409.474;" xml:space="preserve">
<path style="fill:#EBF0F3;" d="M271.041,161.154l-29.184,74.24c-2.56,7.168-10.752,10.752-17.92,7.68l-38.4-14.848  c-7.168-2.56-10.752-10.752-7.68-17.92l29.184-74.24c2.56-6.656,6.144-12.288,10.752-17.408l18.432-19.968  c7.68-8.192,13.312-17.92,17.408-28.16l18.944-48.64l28.16,10.752l-20.48,52.224c-3.072,8.192-5.12,16.896-5.12,26.112v29.184  C275.137,146.818,273.601,153.986,271.041,161.154z"/>
<path style="fill:#D5D6DB;" d="M286.913,26.498l-13.824-5.632l-18.944,48.64c-4.096,10.24-9.728,19.968-17.408,28.16l-18.432,19.968  c-4.608,5.12-8.192,11.264-10.752,17.408l-29.184,74.24c-2.56,7.168,0.512,14.848,7.68,17.92l18.944,7.68L286.913,26.498z"/>
<path style="fill:#F6C358;" d="M259.777,42.882l13.824-34.816c2.56-6.656,10.24-9.728,16.384-7.168l11.776,4.608  c6.656,2.56,9.728,10.24,7.168,16.384l-13.824,34.816L259.777,42.882z"/>
<path style="fill:#FCD462;" d="M295.617,2.946l-5.632-2.048c-6.656-2.56-13.824,0.512-16.384,7.168l-13.824,34.816l17.408,6.656  L295.617,2.946z"/>
<g>
	
		<rect x="261.804" y="38.307" transform="matrix(-0.9313 -0.3643 0.3643 -0.9313 527.5314 182.7772)" style="fill:#DC8744;" width="38.401" height="6.656"/>
	
		<rect x="266.389" y="25.931" transform="matrix(-0.9313 -0.3643 0.3643 -0.9313 540.8948 160.5453)" style="fill:#DC8744;" width="38.401" height="6.656"/>
	
		<rect x="271.576" y="13.218" transform="matrix(-0.9313 -0.3643 0.3643 -0.9313 555.5432 137.8829)" style="fill:#DC8744;" width="38.401" height="6.656"/>
</g>
<path style="fill:#3EA69B;" d="M275.137,409.474H133.825c-13.824,0-25.088-10.24-26.624-24.064L72.897,149.89h263.68l-34.304,235.52  C300.225,399.234,288.961,409.474,275.137,409.474z"/>
<path style="fill:#44C4A1;" d="M207.553,149.89H72.897l34.304,235.52c1.536,13.824,13.312,24.064,26.624,24.064h72.704  L207.553,149.89z"/>
<g>
	<polygon style="fill:#EBF0F3;" points="314.049,302.978 94.913,302.978 91.841,280.962 317.121,280.45  "/>
	<polygon style="fill:#EBF0F3;" points="306.881,352.13 102.593,353.666 99.009,330.626 309.953,330.626  "/>
	<polygon style="fill:#EBF0F3;" points="321.729,251.266 87.745,251.778 84.161,229.762 324.801,228.226  "/>
</g>
<g>
</g>
<g>
</g>
<g>
</g>
<g>
</g>
<g>
</g>
<g>
</g>
<g>
</g>
<g>
</g>
<g>
</g>
<g>
</g>
<g>
</g>
<g>
</g>
<g>
</g>
<g>
</g>
<g>
</g>
</svg>
