<svg id="Capa_1" enable-background="new 0 0 496.39 496.39" height="512" viewBox="0 0 496.39 496.39" width="512" xmlns="http://www.w3.org/2000/svg"><g><path d="m260.456 295.897h-34.523v195.493c0 2.762 2.239 5 5 5h24.523c2.761 0 5-2.238 5-5z" fill="#f9f6f9"/><path d="m252.456 295.897v195.493c0 2.762-2.238 5-5 5h18c2.762 0 5-2.238 5-5v-195.493z" fill="#dedbec"/><path d="m404.767 166.572c0 91.995-64.577 165.572-156.572 165.572-5.056 0-10.06.775-15.001.334-84.966-7.584-151.57-78.966-151.57-165.905s66.604-158.323 151.57-165.907c4.941-.441 9.945.334 15.001.334 91.995 0 156.572 73.577 156.572 165.572z" fill="#ade4a4"/><path d="m248.195 0c-5.057 0-10.058.238-15 .68 84.965 7.585 151.571 78.954 151.571 165.892s-66.607 158.307-151.571 165.892c4.942.441 9.943.68 15 .68 91.995 0 166.571-74.577 166.571-166.572s-74.576-166.572-166.571-166.572z" fill="#8bd5a7"/><circle cx="248.195" cy="166.572" fill="#f9f6f9" r="123.716"/><ellipse cx="248.195" cy="166.572" fill="#ade4a4" rx="80.861" ry="80.861" transform="matrix(.707 -.707 .707 .707 -45.089 224.288)"/><circle cx="248.195" cy="166.572" fill="#ea7bc1" r="22.265"/><path d="m407.18 295.442c-.409-4.122-4.08-7.127-8.204-6.722l-16.396 1.628-113.338-113.336c-2.93-2.928-7.678-2.928-10.607 0-2.929 2.93-2.929 7.678 0 10.607l113.338 113.337-1.628 16.397c-.41 4.122 2.6 7.795 6.722 8.204.252.025.502.038.75.038 3.809 0 7.07-2.89 7.454-6.76l1.373-13.816 13.815-1.373c4.122-.409 7.131-4.081 6.721-8.204z" fill="#245e7c"/></g></svg>