<svg height="512pt" viewBox="0 0 512 512" width="512pt" xmlns="http://www.w3.org/2000/svg"><path d="m426.667969 512h85.332031v-64.15625l-105.347656-20.015625zm0 0" fill="#087"/><path d="m321.316406 427.828125 20.015625 84.171875h85.335938v-84.171875zm0 0" fill="#00cc76"/><path d="m406.652344 126.699219 20.015625 321.144531h85.332031v-301.125zm0 0" fill="#00cc76"/><path d="m426.667969 126.699219-85.335938 20.019531-20.015625 140.554688 20.015625 160.570312h85.335938zm0 0" fill="#b2fa09"/><path d="m426.667969 146.71875h85.332031l-53.332031-74.851562-52.015625-20.015626zm0 0" fill="#087"/><path d="m426.667969 51.851562-32 20.015626-53.335938 74.851562h85.335938zm0 0" fill="#00cc76"/><path d="m458.667969 71.867188v-60.949219l-32-5.457031-20.015625 33.203124 20.015625 33.203126zm0 0" fill="#005457"/><path d="m426.667969 5.460938-32-5.460938v71.867188h32zm0 0" fill="#087"/><path d="m256 512h85.332031v-64.15625l-105.347656-20.015625zm0 0" fill="#4895ff"/><path d="m150.648438 427.828125 20.019531 84.171875h85.332031v-84.171875zm0 0" fill="#5ecef4"/><path d="m235.984375 126.699219 20.015625 321.144531h85.332031v-301.125zm0 0" fill="#515be0"/><path d="m256 126.699219-85.332031 20.019531-20.019531 143.277344 20.019531 157.847656h85.332031zm0 0" fill="#4895ff"/><path d="m256 146.71875h85.332031l-53.332031-74.851562-52.015625-20.015626zm0 0" fill="#4895ff"/><path d="m256 51.851562-32 20.015626-53.332031 74.851562h85.332031zm0 0" fill="#5ecef4"/><path d="m288 71.867188v-60.949219l-32-5.457031-20.015625 33.203124 20.015625 33.203126zm0 0" fill="#00429d"/><path d="m256 5.460938-32-5.460938v71.867188h32zm0 0" fill="#515be0"/><path d="m85.332031 512h85.335938v-64.15625l-105.351563-20.015625zm0 0" fill="#ff9f22"/><path d="m0 447.84375v64.15625h85.332031v-84.171875zm0 0" fill="#ffd422"/><path d="m65.316406 126.699219 20.015625 321.144531h85.335938v-301.125zm0 0" fill="#ff4c04"/><path d="m85.332031 126.699219-85.332031 20.019531v301.125h85.332031zm0 0" fill="#ff9f22"/><path d="m85.332031 146.71875h85.335938l-53.332031-74.851562-52.019532-20.015626zm0 0" fill="#ff9f22"/><path d="m85.332031 51.851562-31.996093 20.015626-53.335938 74.851562h85.332031zm0 0" fill="#ffd422"/><path d="m117.335938 71.867188v-60.949219l-32.003907-5.457031-20.015625 33.203124 20.015625 33.203126zm0 0" fill="#e30000"/><path d="m85.332031 5.460938-31.996093-5.460938v71.867188h31.996093zm0 0" fill="#ff4c04"/></svg>