<svg height="512pt" viewBox="-34 0 512 512" width="512pt" xmlns="http://www.w3.org/2000/svg"><path d="m444.078125 101.734375v69.421875c0 68.128906-18.71875 134.894531-54.148437 193.089844-35.417969 58.195312-86.132813 105.488281-146.648438 136.773437l-21.242188 10.980469-21.242187-10.980469c-60.515625-31.285156-111.226563-78.578125-146.648437-136.773437-35.425782-58.195313-54.148438-124.960938-54.148438-193.089844v-69.421875l10.023438-3.496094c42.074218-14.667969 75.320312-46.96875 91.222656-88.625l3.675781-9.613281h234.234375l3.675781 9.613281c15.902344 41.65625 49.148438 73.957031 91.222657 88.625zm0 0" fill="#84caff"/><path d="m444.078125 101.734375v69.421875c0 68.128906-18.71875 134.894531-54.148437 193.089844-35.417969 58.195312-86.132813 105.488281-146.648438 136.773437l-21.242188 10.980469v-512h117.117188l3.679688 9.613281c15.898437 41.65625 49.148437 73.957031 91.222656 88.625zm0 0" fill="#97a1f0"/><path d="m346.070312 226.980469c0 68.386719-55.640624 124.035156-124.03125 124.035156-68.386718 0-124.03125-55.648437-124.03125-124.035156s55.644532-124.03125 124.03125-124.03125c68.390626 0 124.03125 55.644531 124.03125 124.03125zm0 0" fill="#fff"/><path d="m346.070312 226.980469c0 68.386719-55.640624 124.035156-124.03125 124.035156v-248.066406c68.390626 0 124.03125 55.644531 124.03125 124.03125zm0 0" fill="#e0e4fa"/><path d="m250.15625 263.238281 17.464844 24.261719c-12.742188 9.175781-27.785156 14.027344-43.5 14.027344-.695313 0-1.394532-.011719-2.082032-.03125-40.148437-1.105469-72.460937-34.101563-72.460937-74.515625 0-40.410157 32.3125-73.40625 72.460937-74.511719.6875-.023438 1.386719-.03125 2.082032-.03125 15.714844 0 30.757812 4.851562 43.5 14.027344l-17.464844 24.261718c-7.621094-5.5-16.628906-8.402343-26.035156-8.402343-.695313 0-1.394532.023437-2.082032.050781-23.660156 1.085938-42.570312 20.683594-42.570312 44.605469s18.910156 43.519531 42.570312 44.605469c.6875.03125 1.386719.050781 2.082032.050781 9.40625 0 18.414062-2.910157 26.035156-8.398438zm0 0" fill="#0087ff"/><g fill="#4b5be4"><path d="m250.15625 263.238281 17.464844 24.261719c-12.742188 9.175781-27.785156 14.027344-43.5 14.027344-.695313 0-1.394532-.011719-2.082032-.03125v-29.910156c.6875.03125 1.386719.050781 2.082032.050781 9.40625 0 18.414062-2.910157 26.035156-8.398438zm0 0"/><path d="m224.121094 182.328125c-.695313 0-1.394532.019531-2.082032.050781v-29.910156c.6875-.023438 1.386719-.03125 2.082032-.03125 15.714844 0 30.757812 4.851562 43.5 14.027344l-17.464844 24.261718c-7.621094-5.5-16.628906-8.398437-26.035156-8.398437zm0 0"/></g></svg>