<svg height="512" viewBox="0 0 128 128" width="512" xmlns="http://www.w3.org/2000/svg"><g><path d="m69.578 29.782h-10.715l5.194 94.176c1.776.079 3.326 0 4.548-.046h1.585c6.664.272 23.026 1.281 33.368-24.238 11.135-27.467-9.233-31.274-10.048-47.864s-14.393-22.028-23.932-22.028z" fill="#7db267"/><path d="m58.863 29.782h-.611c-9.528.068-22.952 5.541-23.762 22.028-.815 16.59-21.183 20.4-10.048 47.864 10.387 25.621 26.84 24.5 33.448 24.238h1.584c1.211.046 2.738.125 4.492.046a.129.129 0 0 0 .091 0c7.92-.306 20.356-3.479 28.786-24.284 11.134-27.467-9.234-31.274-10.043-47.864-.7-14.058-11.236-22.028-23.937-22.028z" fill="#ffaa5f"/><ellipse cx="59.157" cy="85.35" fill="#ef893c" rx="15.493" ry="25.203"/><g fill="#63516b"><path d="m57.18 70.83a1.75 1.75 0 0 0 0 2.47 1.747 1.747 0 0 0 2.47-2.47 1.8 1.8 0 0 0 -2.47 0z"/><path d="m57.18 101.28a1.747 1.747 0 0 0 2.47 2.47 1.728 1.728 0 0 0 0-2.47 1.808 1.808 0 0 0 -2.47 0z"/><path d="m51.39 91.54a1.754 1.754 0 1 0 2.48 0 1.764 1.764 0 0 0 -2.48 0z"/><path d="m64.26 91.54a1.754 1.754 0 1 0 2.48 0 1.764 1.764 0 0 0 -2.48 0z"/><path d="m51.39 80.12a1.75 1.75 0 1 0 2.48 0 1.8 1.8 0 0 0 -2.48 0z"/><path d="m64.26 80.12a1.75 1.75 0 1 0 2.48 0 1.8 1.8 0 0 0 -2.48 0z"/></g><path d="m64.9 14.96a3.973 3.973 0 0 0 -3.934 3.84 36.5 36.5 0 0 1 -2.714 10.98h8.548a41.123 41.123 0 0 0 2.031-10.567 3.947 3.947 0 0 0 -3.931-4.253z" fill="#7db267"/><path d="m25.8 5.578s-5.186 29.977 35.019 14.852c0 0-12.072-22.467-35.019-14.852z" fill="#96cd82"/><path d="m61.677 18.905c-10.459-5.887-24.627-8.675-25.225-8.79a1.75 1.75 0 1 0 -.665 3.436c.14.027 14.2 2.793 24.173 8.4a1.75 1.75 0 1 0 1.717-3.051z" fill="#7db267"/></g></svg>