<svg height="512" viewBox="0 0 53 58" width="512" xmlns="http://www.w3.org/2000/svg"><g id="Page-1" fill="none" fill-rule="evenodd"><g id="036---Cloud-File" fill-rule="nonzero"><path id="Shape" d="m5 52v-48c0-2.209139 1.790861-4 4-4h40c2.209139 0 4 1.790861 4 4v40l-12 12h-32c-2.209139 0-4-1.790861-4-4z" fill="#b0d3f0"/><path id="Shape" d="m49 35c-.5522847 0-1-.4477153-1-1v-14c0-.5522847.4477153-1 1-1s1 .4477153 1 1v14c0 .5522847-.4477153 1-1 1z" fill="#ecf0f1"/><path id="Shape" d="m49 41c-.5522847 0-1-.4477153-1-1v-2c0-.5522847.4477153-1 1-1s1 .4477153 1 1v2c0 .5522847-.4477153 1-1 1z" fill="#ecf0f1"/><path id="Shape" d="m41 56v-8c0-2.209139 1.790861-4 4-4h8z" fill="#90bae1"/><g fill="#285680"><path id="Shape" d="m13 7h-2c-.5522847 0-1-.44771525-1-1s.4477153-1 1-1h2c.5522847 0 1 .44771525 1 1s-.4477153 1-1 1z"/><path id="Shape" d="m47 7h-30c-.5522847 0-1-.44771525-1-1s.4477153-1 1-1h30c.5522847 0 1 .44771525 1 1s-.4477153 1-1 1z"/><path id="Shape" d="m13 13h-2c-.5522847 0-1-.4477153-1-1s.4477153-1 1-1h2c.5522847 0 1 .4477153 1 1s-.4477153 1-1 1z"/><path id="Shape" d="m40 13h-23c-.5522847 0-1-.4477153-1-1s.4477153-1 1-1h23c.5522847 0 1 .4477153 1 1s-.4477153 1-1 1z"/><path id="Shape" d="m13 19h-2c-.5522847 0-1-.4477153-1-1s.4477153-1 1-1h2c.5522847 0 1 .4477153 1 1s-.4477153 1-1 1z"/><path id="Shape" d="m33 19h-16c-.5522847 0-1-.4477153-1-1s.4477153-1 1-1h16c.5522847 0 1 .4477153 1 1s-.4477153 1-1 1z"/></g><path id="Shape" d="m31.995 46.347c2.3719027-4.912947.3651563-10.8202511-4.5085203-13.2718317-4.8736766-2.4515805-10.8128713-.5412824-13.3434797 4.2918317-2.6479433-1.9519427-6.29825565-1.7947386-8.7685817.3776272-2.47032605 2.1723659-3.09286047 5.7726359-1.4954183 8.6483728-2.70272917 1.0294783-4.28642213 3.8405199-3.76653391 6.6855659s2.99538591 4.9143332 5.88753391 4.9214341h24c2.9170556-.0076863 5.4059066-2.1122723 5.8981483-4.9875063.4922416-2.8752341-1.1547761-5.687883-3.9031483-6.6654937z" fill="#3b97d3"/></g></g></svg>