<?xml version="1.0" encoding="iso-8859-1"?>
<!-- Generator: Adobe Illustrator 19.0.0, SVG Export Plug-In . SVG Version: 6.00 Build 0)  -->
<svg version="1.1" id="Capa_1" xmlns="http://www.w3.org/2000/svg" xmlns:xlink="http://www.w3.org/1999/xlink" x="0px" y="0px"
	 viewBox="0 0 512.008 512.008" style="enable-background:new 0 0 512.008 512.008;" xml:space="preserve">
<path style="fill:#FFD54F;" d="M175.992,128.008h160c8.832,0,16,7.168,16,16v176h-192v-176
	C159.992,135.176,167.16,128.008,175.992,128.008z"/>
<path style="fill:#FFC107;" d="M175.992,256.008h224c8.832,0,16,7.168,16,16v176h-256v-176
	C159.992,263.176,167.16,256.008,175.992,256.008z"/>
<path style="fill:#455A64;" d="M431.992,448.008H189.048c-4.832-13.568-15.488-24.224-29.056-29.056V80.008
	c0-4.256-1.696-8.32-4.672-11.328l-64-64c-6.24-6.24-16.384-6.24-22.624,0s-6.24,16.384,0,22.624l59.296,59.36v332.32
	c-18.592,6.624-32,24.224-32,45.056c0,26.432,21.536,47.968,48,47.968c20.832,0,38.432-13.408,45.056-32h242.944
	c8.832,0,16-7.168,16-16S440.824,448.008,431.992,448.008z"/>
<circle style="fill:#FAFAFA;" cx="143.992" cy="464.008" r="16"/>
<g>
	<rect x="255.992" y="256.008" style="fill:#F44336;" width="64" height="96"/>
	<rect x="239.992" y="128.008" style="fill:#F44336;" width="32" height="32"/>
</g>
<g>
</g>
<g>
</g>
<g>
</g>
<g>
</g>
<g>
</g>
<g>
</g>
<g>
</g>
<g>
</g>
<g>
</g>
<g>
</g>
<g>
</g>
<g>
</g>
<g>
</g>
<g>
</g>
<g>
</g>
</svg>
