<?xml version="1.0" encoding="iso-8859-1"?>
<!-- Generator: Adobe Illustrator 19.0.0, SVG Export Plug-In . SVG Version: 6.00 Build 0)  -->
<svg version="1.1" id="Capa_1" xmlns="http://www.w3.org/2000/svg" xmlns:xlink="http://www.w3.org/1999/xlink" x="0px" y="0px"
	 viewBox="0 0 512 512" style="enable-background:new 0 0 512 512;" xml:space="preserve">
<path style="fill:#AD866F;" d="M512,255.85V256c0,108.52-88.29,196.81-196.81,196.81H196.81V59.19h118.38
	C423.66,59.19,511.92,147.4,512,255.85z"/>
<path style="fill:#B6EFAB;" d="M378.62,255.85V256c0,100.41-81.4,181.81-181.81,181.81S15,356.41,15,256v-0.15
	C15.08,155.51,96.45,74.19,196.81,74.19S378.54,155.51,378.62,255.85z"/>
<g>
	<rect x="181.81" y="125.5" style="fill:#00BB64;" width="30" height="41.33"/>
	
		<rect x="234.837" y="148.262" transform="matrix(-0.859 -0.5119 0.5119 -0.859 380.1479 434.0505)" style="fill:#00BB64;" width="29.999" height="32.846"/>
	
		<rect x="276.976" y="180.524" transform="matrix(-0.499 -0.8666 0.8666 -0.499 263.321 554.6098)" style="fill:#00BB64;" width="29.999" height="41.33"/>
	<polygon style="fill:#00BB64;" points="317.21,308.52 302.16,334.47 266.41,313.73 281.46,287.78 	"/>
	<polygon style="fill:#00BB64;" points="270.18,353.06 244.32,368.27 228.25,340.94 254.11,325.74 	"/>
	<polygon style="fill:#00BB64;" points="211.52,345.21 211.38,386.55 181.38,386.45 181.52,345.12 	"/>
	<polygon style="fill:#00BB64;" points="164.93,340.55 149.33,367.58 123.34,352.59 138.94,325.55 	"/>
	<polygon style="fill:#00BB64;" points="126.84,313.27 90.95,333.78 76.07,307.73 111.95,287.22 	"/>
	
		<rect x="81.33" y="185.569" transform="matrix(-0.8633 -0.5047 0.5047 -0.8633 88.8201 425.1952)" style="fill:#00BB64;" width="41.33" height="29.999"/>
	
		<rect x="128.673" y="149.55" transform="matrix(-0.4948 -0.869 0.869 -0.4948 73.3677 371.7532)" style="fill:#00BB64;" width="32.14" height="30"/>
	<rect x="285.98" y="241.15" style="fill:#00BB64;" width="33.52" height="30"/>
	<polygon style="fill:#00BB64;" points="107.93,270.56 77.62,271.14 77.32,255.85 77.04,241.15 107.36,240.57 107.65,255.85 	"/>
</g>
<path style="fill:#A37862;" d="M512,255.85V256c0,108.52-88.29,196.81-196.81,196.81H196.81V255.85H512z"/>
<path style="fill:#9EE98F;" d="M378.62,255.85V256c0,100.41-81.4,181.81-181.81,181.81S15,356.41,15,256v-0.15H378.62z"/>
<g>
	<polygon style="fill:#00A753;" points="77.62,271.14 77.32,255.85 107.65,255.85 107.93,270.56 	"/>
	<polygon style="fill:#00A753;" points="90.95,333.78 76.07,307.73 111.95,287.22 126.84,313.27 	"/>
	<polygon style="fill:#00A753;" points="138.94,325.55 164.93,340.55 149.33,367.58 123.34,352.59 	"/>
	<polygon style="fill:#00A753;" points="181.52,345.12 211.52,345.21 211.38,386.55 181.38,386.45 	"/>
	<polygon style="fill:#00A753;" points="254.11,325.74 270.18,353.06 244.32,368.27 228.25,340.94 	"/>
	<polygon style="fill:#00A753;" points="266.41,313.73 281.46,287.78 317.21,308.52 302.16,334.47 	"/>
	<rect x="285.98" y="255.85" style="fill:#00A753;" width="33.52" height="15.3"/>
</g>
<path style="fill:#C8AD92;" d="M196.81,59.19C88.34,59.19,0.08,147.4,0,255.85V256c0,108.52,88.29,196.81,196.81,196.81
	S393.62,364.52,393.62,256v-0.15C393.54,147.4,305.28,59.19,196.81,59.19z M363.62,256c0,91.98-74.83,166.81-166.81,166.81
	S30,347.98,30,256v-0.15c0.08-91.91,74.88-166.66,166.81-166.66s166.73,74.75,166.81,166.66V256z"/>
<path style="fill:#9EE98F;" d="M267.65,255.85V256c0,39.06-31.78,70.84-70.84,70.84s-70.84-31.78-70.84-70.84v-0.15
	c0.08-38.99,31.83-70.69,70.84-70.69S267.57,216.86,267.65,255.85z"/>
<path style="fill:#83E46F;" d="M125.97,256v-0.15h141.68V256c0,39.06-31.78,70.84-70.84,70.84S125.97,295.06,125.97,256z"/>
<path style="fill:#BD9B7B;" d="M393.62,255.85V256c0,108.52-88.29,196.81-196.81,196.81S0,364.52,0,256v-0.15h30V256
	c0,91.98,74.83,166.81,166.81,166.81S363.62,347.98,363.62,256v-0.15H393.62z"/>
<g>
</g>
<g>
</g>
<g>
</g>
<g>
</g>
<g>
</g>
<g>
</g>
<g>
</g>
<g>
</g>
<g>
</g>
<g>
</g>
<g>
</g>
<g>
</g>
<g>
</g>
<g>
</g>
<g>
</g>
</svg>
