<?xml version="1.0" encoding="iso-8859-1"?>
<!-- Generator: Adobe Illustrator 19.0.0, SVG Export Plug-In . SVG Version: 6.00 Build 0)  -->
<svg version="1.1" id="Capa_1" xmlns="http://www.w3.org/2000/svg" xmlns:xlink="http://www.w3.org/1999/xlink" x="0px" y="0px"
	 viewBox="0 0 512 512" style="enable-background:new 0 0 512 512;" xml:space="preserve">
<path style="fill:#FFDA44;" d="M468.61,104.136H34.712C15.542,104.136,0,119.678,0,138.847v260.339
	c0,19.17,15.542,34.712,34.712,34.712h266.327c-3.983-11.134-6.014-22.884-5.988-34.712c0-57.509,46.627-104.136,104.136-104.136
	s104.136,46.627,104.136,104.136V138.847C503.322,119.678,487.78,104.136,468.61,104.136z"/>
<path style="fill:#FFCD00;" d="M468.61,52.068H270.232c-11.611,0.009-22.459-5.788-28.898-15.447l-14.058-21.174
	C220.837,5.788,209.989-0.009,198.378,0H34.712C15.542,0,0,15.542,0,34.712v104.136c0-19.17,15.542-34.712,34.712-34.712H468.61
	c19.17,0,34.712,15.542,34.712,34.712V86.78C503.322,67.61,487.78,52.068,468.61,52.068z"/>
<path style="fill:#E6E7E8;" d="M399.186,295.051c-57.509,0-104.136,46.627-104.136,104.136c-0.026,11.828,2.005,23.578,5.988,34.712
	c19.17,54.22,78.666,82.64,132.894,63.471c54.22-19.17,82.64-78.666,63.471-132.894
	C482.686,322.855,443.331,295.034,399.186,295.051z M399.186,468.61v-69.424l0,0l0,0l0,0V468.61z"/>
<g>
	<path style="fill:#78B9EB;" d="M399.186,512c-47.798-0.017-90.398-30.156-106.331-75.221c-4.322-12.062-6.517-24.784-6.482-37.593
		c0-62.308,50.506-112.814,112.814-112.814S512,336.879,512,399.186S461.494,512,399.186,512z M399.186,303.729
		c-52.693,0.061-95.397,42.765-95.458,95.458c-0.026,10.83,1.822,21.582,5.476,31.779c17.547,49.716,72.079,75.785,121.795,58.238
		s75.785-72.079,58.238-121.795C475.752,329.233,439.669,303.711,399.186,303.729z"/>
	<path style="fill:#78B9EB;" d="M468.61,407.864H329.763c-4.79,0-8.678-3.888-8.678-8.678s3.888-8.678,8.678-8.678H468.61
		c4.79,0,8.678,3.888,8.678,8.678S473.4,407.864,468.61,407.864z"/>
	<path style="fill:#78B9EB;" d="M399.186,477.288c-4.79,0-8.678-3.888-8.678-8.678V329.763c0-4.79,3.888-8.678,8.678-8.678
		c4.79,0,8.678,3.888,8.678,8.678V468.61C407.864,473.4,403.977,477.288,399.186,477.288z"/>
</g>
<g>
</g>
<g>
</g>
<g>
</g>
<g>
</g>
<g>
</g>
<g>
</g>
<g>
</g>
<g>
</g>
<g>
</g>
<g>
</g>
<g>
</g>
<g>
</g>
<g>
</g>
<g>
</g>
<g>
</g>
</svg>
