<?xml version="1.0" encoding="iso-8859-1"?>
<!-- Generator: Adobe Illustrator 19.0.0, SVG Export Plug-In . SVG Version: 6.00 Build 0)  -->
<svg xmlns="http://www.w3.org/2000/svg" xmlns:xlink="http://www.w3.org/1999/xlink" version="1.1" id="Layer_1" x="0px" y="0px" viewBox="0 0 512 512" style="enable-background:new 0 0 512 512;" xml:space="preserve">
<path style="fill:#D1D6E4;" d="M213.561,142.735c-43.851,0-79.526,35.676-79.526,79.526c0,43.851,35.675,79.526,79.526,79.526  c43.85,0,79.526-35.675,79.526-79.526C293.087,178.411,257.413,142.735,213.561,142.735z"/>
<path style="opacity:0.15;fill:#30302F;enable-background:new    ;" d="M153.917,222.261c0-40.481,30.412-73.973,69.586-78.882  c-3.259-0.409-6.572-0.644-9.94-0.644c-43.851,0-79.526,35.676-79.526,79.526c0,43.851,35.675,79.526,79.526,79.526  c3.369,0,6.681-0.235,9.94-0.643C184.329,296.233,153.917,262.744,153.917,222.261z"/>
<path style="fill:#D1D6E4;" d="M240.084,421.587c-4.113-13.889-6.197-28.355-6.197-42.996c0-13.472,1.769-26.825,5.258-39.688  l1.652-6.093c0.741-2.739,0.08-5.669-1.773-7.821c-1.851-2.152-4.649-3.243-7.467-2.921l-6.277,0.722  c-3.819,0.44-7.694,0.665-11.513,0.665c-55.732,0-101.073-45.343-101.073-101.076c0-55.735,45.341-101.079,101.073-101.079  c55.734,0,101.078,45.343,101.078,101.079c0,0.698-0.009,1.398-0.022,2.084l-0.142,6.328c-0.064,2.841,1.288,5.53,3.605,7.173  c2.318,1.646,5.301,2.028,7.962,1.032l5.926-2.229c16.902-6.354,34.769-9.576,53.108-9.576c10.298,0,20.615,1.048,30.666,3.119  l5.141,1.059c2.519,0.517,5.14-0.124,7.133-1.748c1.996-1.627,3.152-4.061,3.152-6.635v-37.111c0-4.725-3.831-8.558-8.558-8.558  h-41.439c-3.828-14.108-9.42-27.614-16.666-40.248l29.296-29.293c1.605-1.605,2.507-3.781,2.507-6.051  c0-2.269-0.901-4.446-2.507-6.051l-51.618-51.62c-3.342-3.34-8.761-3.34-12.103,0l-29.299,29.295  c-12.631-7.241-26.139-12.834-40.248-16.663V15.245c0-4.725-3.831-8.558-8.558-8.558h-72.997c-4.725,0-8.558,3.833-8.558,8.558  v41.441c-14.119,3.833-27.627,9.426-40.251,16.667l-29.293-29.297c-1.606-1.606-3.782-2.506-6.053-2.506  c-2.27,0-4.446,0.9-6.051,2.506l-51.616,51.62c-3.341,3.341-3.34,8.761,0,12.102l29.292,29.292  c-7.24,12.629-12.832,26.135-16.662,40.25H8.558c-4.725,0-8.558,3.833-8.558,8.558v73c0,4.725,3.833,8.558,8.558,8.558h41.438  c3.829,14.11,9.421,27.619,16.662,40.246l-29.293,29.299c-3.34,3.342-3.34,8.761,0,12.102l51.616,51.619  c1.605,1.605,3.783,2.507,6.051,2.507c2.272,0,4.448-0.901,6.053-2.507l29.293-29.301c12.633,7.25,26.141,12.844,40.251,16.673  v41.439c0,4.726,3.833,8.559,8.558,8.559h54.317c0.007-0.001,0.015-0.001,0.022,0c4.725,0,8.558-3.833,8.558-8.559  c0-1.064-0.194-2.083-0.55-3.022L240.084,421.587z"/>
<g style="opacity:0.15;">
	<path style="fill:#30302F;" d="M203.829,121.79c-3.271-0.32-6.586-0.488-9.94-0.488c-55.732,0-101.073,45.343-101.073,101.079   c0,55.732,45.341,101.076,101.073,101.076c3.267,0,6.573-0.173,9.852-0.497c-51.041-5.051-91.045-48.23-91.045-100.577   C112.696,169.998,152.745,126.8,203.829,121.79z"/>
</g>
<path style="fill:#D1D6E4;" d="M503.442,350.512h-20.835c-2.095-7.28-4.993-14.28-8.647-20.889l14.727-14.728  c1.606-1.605,2.508-3.783,2.508-6.053c0-2.27-0.902-4.446-2.508-6.051l-27.603-27.605c-3.344-3.341-8.763-3.341-12.105,0  l-14.728,14.728c-6.605-3.651-13.604-6.55-20.889-8.648v-20.836c0-4.726-3.833-8.559-8.559-8.559h-39.04  c-4.727,0-8.557,3.833-8.557,8.559v20.836c-7.286,2.097-14.285,4.997-20.89,8.649l-14.727-14.728  c-1.605-1.606-3.783-2.507-6.05-2.507h-0.001c-2.271,0-4.447,0.901-6.051,2.507l-27.607,27.605  c-1.605,1.604-2.507,3.782-2.507,6.051c0,2.271,0.901,4.447,2.507,6.053l14.728,14.727c-3.656,6.607-6.553,13.607-8.649,20.89  h-20.834c-4.726,0-8.558,3.833-8.558,8.559v39.039c0,4.726,3.831,8.559,8.558,8.559h20.834c2.096,7.281,4.994,14.281,8.649,20.89  l-14.728,14.727c-1.605,1.606-2.507,3.783-2.507,6.053c0,2.27,0.901,4.446,2.507,6.051l27.607,27.607  c1.605,1.605,3.782,2.507,6.053,2.507c2.269,0,4.446-0.901,6.05-2.507l14.726-14.727c6.613,3.657,13.612,6.556,20.891,8.65v20.835  c0,4.725,3.83,8.557,8.558,8.557h39.04c4.726,0,8.559-3.833,8.559-8.557v-20.836c7.276-2.094,14.278-4.993,20.889-8.651  l14.728,14.729c1.605,1.606,3.783,2.507,6.051,2.507c0.001,0,0.001,0,0.001,0c2.271,0,4.447-0.901,6.053-2.507l27.605-27.607  c1.605-1.605,2.507-3.782,2.507-6.051c0-2.271-0.901-4.447-2.508-6.053l-14.729-14.728c3.655-6.61,6.553-13.609,8.649-20.889h20.834  c4.726,0,8.558-3.833,8.558-8.559v-39.039C512,354.344,508.17,350.512,503.442,350.512z M440.574,378.592  c0,31.099-25.301,56.4-56.4,56.4c-31.098,0-56.399-25.3-56.399-56.4c0-31.101,25.3-56.403,56.399-56.403  C415.273,322.188,440.574,347.491,440.574,378.592z"/>
<g style="opacity:0.15;">
	<path style="fill:#30302F;" d="M327.776,378.592c0-27.708,20.087-50.796,46.459-55.508c-3.23-0.578-6.547-0.896-9.94-0.896   c-31.098,0-56.399,25.301-56.399,56.403c0,31.099,25.3,56.4,56.399,56.4c3.393,0,6.711-0.318,9.94-0.896   C347.862,429.385,327.776,406.298,327.776,378.592z"/>
</g>
<path style="fill:#D1D6E4;" d="M384.176,343.54c-19.326,0-35.05,15.723-35.05,35.051c0,19.326,15.723,35.05,35.05,35.05  c19.325,0,35.049-15.723,35.049-35.05C419.225,359.263,403.501,343.54,384.176,343.54z"/>
<path style="opacity:0.15;fill:#30302F;enable-background:new    ;" d="M369.007,378.591c0-15.875,10.611-29.31,25.109-33.607  c-3.153-0.934-6.488-1.445-9.94-1.445c-19.326,0-35.05,15.723-35.05,35.051c0,19.326,15.723,35.05,35.05,35.05  c3.453,0,6.787-0.51,9.94-1.445C379.618,407.899,369.007,394.464,369.007,378.591z"/>
<g>
</g>
<g>
</g>
<g>
</g>
<g>
</g>
<g>
</g>
<g>
</g>
<g>
</g>
<g>
</g>
<g>
</g>
<g>
</g>
<g>
</g>
<g>
</g>
<g>
</g>
<g>
</g>
<g>
</g>
</svg>
