<svg height="512" viewBox="0 0 128 128" width="512" xmlns="http://www.w3.org/2000/svg"><g><path d="m61.146 17.145c3.261 5.1.97 12.387.97 12.387s-7.579-.976-10.84-6.073-.969-12.387-.969-12.387 7.578.976 10.839 6.073z" fill="#bae543"/><path d="m69.259 53.376-11.518-.131c.66-15.6 4.37-32.054 15.492-46.745l4.784 3.621c-9.1 12.022-7.984 24.963-8.758 43.255z" fill="#663325"/><path d="m112.65 76.53c0 22.73-16.41 41.16-36.66 41.16-4.2 0-7.86 2.44-11.99 3.81-4.13-1.38-7.79-3.81-11.99-3.81-20.25 0-36.66-18.43-36.66-41.16s16.41-41.18 36.66-41.18a33.009 33.009 0 0 1 11.99 2.26h.01a33.028 33.028 0 0 1 5.02-1.51 32.689 32.689 0 0 1 6.96-.75c20.25 0 36.66 18.44 36.66 41.18z" fill="#fc4b00"/><g fill="#e43e00"><path d="m22.541 68.542a1.75 1.75 0 0 1 -1.7-2.177 40 40 0 0 1 2.259-6.545 1.75 1.75 0 0 1 3.2 1.428 36.46 36.46 0 0 0 -2.063 5.971 1.75 1.75 0 0 1 -1.696 1.323z"/><path d="m86.18 58.75a1.8 1.8 0 0 1 -.68.14 1.76 1.76 0 0 1 -1.61-1.07c-3.97-9.4-11.21-16.75-19.88-20.21a33.028 33.028 0 0 1 5.02-1.51 41.268 41.268 0 0 1 18.08 20.35 1.756 1.756 0 0 1 -.93 2.3z"/></g></g></svg>