<svg enable-background="new 0 0 24 24" height="512" viewBox="0 0 24 24" width="512" xmlns="http://www.w3.org/2000/svg"><path d="m21 2.75c0-1.519-1.231-2.75-2.75-2.75h-12.5c-1.519 0-2.75 1.231-2.75 2.75v17c0 .199.079.39.22.53s.332.22.53.22h16.5c.414 0 .75-.336.75-.75z" fill="#eceff1"/><path d="m22.25 14h-2.756c-.778 0-1.452.501-1.676 1.247l-.859 2.862c-.16.533-.641.891-1.197.891h-7.524c-.556 0-1.037-.358-1.197-.891l-.859-2.861c-.224-.747-.897-1.248-1.676-1.248h-2.756c-.965 0-1.75.785-1.75 1.75v5.5c0 1.517 1.233 2.75 2.75 2.75h18.5c1.517 0 2.75-1.233 2.75-2.75v-5.5c0-.965-.785-1.75-1.75-1.75z" fill="#2196f3"/><path d="m16.712 5.047c-.175-.083-.383-.056-.532.069l-2.18 1.818v-.434c0-.827-.673-1.5-1.5-1.5h-4c-.827 0-1.5.673-1.5 1.5v3c0 .827.673 1.5 1.5 1.5h4c.827 0 1.5-.673 1.5-1.5v-.359l2.187 1.75c.091.072.202.109.313.109.073 0 .147-.016.217-.049.173-.084.283-.259.283-.451v-5c0-.194-.112-.371-.288-.453z" fill="#ef5350"/></svg>