<svg id="Layer_1" enable-background="new 0 0 512 512" height="512" viewBox="0 0 512 512" width="512" xmlns="http://www.w3.org/2000/svg"><g><g><g id="XMLID_552_"><g><path d="m286.566 344.722c-.012.193-.018.387-.018.582 0 27.678-22.518 50.196-50.196 50.196h-10.04c-16.607 0-30.117 13.511-30.117 30.118 0 33.214-27.022 60.235-60.235 60.235v-30.118c16.607 0 30.118-13.511 30.118-30.118 0-33.214 27.021-60.235 60.234-60.235h10.04c9.023 0 16.748-5.982 19.271-14.189l14.515-7.424z" fill="#ff4d05"/></g></g><g id="XMLID_619_"><g><path d="m316.235 79.695c0-22.415 16.411-41.07 37.849-44.582 10.531-18.713 30.516-30.712 52.504-30.712 15.38 0 30.123 5.956 41.196 16.317 32.908-7.347 64.216 17.774 64.216 51.448 0 29.062-23.643 52.706-52.706 52.706h-97.882c-24.911 0-45.177-20.266-45.177-45.177z" fill="#eceae7"/></g></g><path d="m60.269 153.476c-34.41-6.974-60.269-37.509-60.269-73.781 0-41.516 33.777-75.294 75.294-75.294s75.294 33.778 75.294 75.294z" fill="#ffec29"/><g id="XMLID_609_"><g><path d="m60.235 154.989c0-22.415 16.412-41.07 37.849-44.582 10.531-18.713 30.515-30.712 52.504-30.712 15.38 0 30.124 5.956 41.197 16.317 32.841-7.332 64.215 17.703 64.215 51.448 0 29.062-23.644 52.706-52.706 52.706h-97.882c-24.911 0-45.177-20.266-45.177-45.177z" fill="#f4f1f1"/></g></g><path d="m255.624 351.193 107.148-88.45 88.993-107.754h-155.182z" fill="#bcfbff"/><path d="m451.765 310.172v-155.183l-196.141 196.204z" fill="#9ddff6"/><g id="XMLID_613_"><g><path d="m483.243 507.599-120.42-263.64 22.728-22.735 125.089 273.861z" fill="#eceae7"/></g></g></g><g id="XMLID_779_"><g><path d="m90.353 360.793h-30.118c0-16.607-13.511-30.118-30.118-30.118v-30.118c17.971 0 34.13 7.912 45.176 20.435 11.046-12.523 27.205-20.435 45.176-20.435v30.118c-16.605.001-30.116 13.511-30.116 30.118z" fill="#5e59a8"/></g></g><g id="XMLID_778_"><g><path d="m180.706 300.558h-30.118c0-16.607-13.511-30.118-30.118-30.118v-30.118c17.971 0 34.13 7.913 45.176 20.435 11.046-12.522 27.205-20.435 45.176-20.435v30.118c-16.605 0-30.116 13.511-30.116 30.118z" fill="#5e59a8"/></g></g></g></svg>