<svg id="Capa_1" enable-background="new 0 0 483.254 483.254" height="512" viewBox="0 0 483.254 483.254" width="512" xmlns="http://www.w3.org/2000/svg"><g><g id="icon_78_"><path d="m429.56 386.256v-386.256h-341.513c-18.973 0-34.353 15.38-34.353 34.352v351.904z" fill="#f6b863"/><path d="m129.907 0h-41.843c-18.972 0-34.352 15.38-34.352 34.352v400.406l76.213 6.931z" fill="#eaa14e"/><path d="m102.197 386.256c-26.785 0-48.499 21.714-48.499 48.499s21.714 48.499 48.499 48.499h327.363c-26.559-36.625-26.559-68.958 0-96.999h-327.363z" fill="#eaa14e"/><path d="m409.682 469.34h-307.539c-19.096 0-34.576-15.48-34.576-34.576s15.48-34.576 34.576-34.576h306.047c-2.298 3.598-4.193 7.438-5.652 11.451-.721 1.637-1.312 3.327-1.768 5.057-.873 2.81-1.466 5.7-1.768 8.628-.147 1.638-.301 3.418-.301 5.056-.275 2.926-.174 5.875.301 8.775.147 1.638.442 3.418.743 5.057.589 2.823 1.338 5.799 2.234 8.628.589 1.638 1.179 3.418 1.933 5.056 1.655 3.944 3.583 7.768 5.77 11.444z" fill="#eeefee"/><path d="m163.971 53.117h213.622v103.923h-213.622z" fill="#eaa14e"/><path d="m178.845 67.986h183.884v74.18h-183.884z" fill="#f6b863"/><path d="m163.971 214.777h213.622v13.855h-213.622z" fill="#eaa14e"/><path d="m163.971 259.814h213.622v13.855h-213.622z" fill="#eaa14e"/><path d="m210.387 304.851h120.796v13.855h-120.796z" fill="#eaa14e"/><g fill="#ccd0d2"><path d="m402.516 411.638c-.721 1.637-1.312 3.327-1.768 5.057h-303.661v-5.057z"/><path d="m398.98 425.317c-.147 1.638-.301 3.418-.301 5.056h-301.592v-5.056z"/><path d="m399.716 444.205h-302.629v-5.057h301.893c.141 1.639.436 3.442.736 5.057z"/><path d="m403.877 457.913h-306.79v-5.056h304.839c.59 1.608 1.179 3.394 1.951 5.056z"/></g><path d="m128.174 415.994v36.515l16.242-10.826 16.237 10.826v-36.515z" fill="#ef5261"/></g></g></svg>