<svg height="512" viewBox="0 0 64 64" width="512" xmlns="http://www.w3.org/2000/svg"><g id="Watermelon"><path d="m59 17.5h-54a1 1 0 0 0 -1 1 28 28 0 0 0 56 0 1 1 0 0 0 -1-1z" fill="#54e346"/><path d="m59 17.5h-4.16284a28.03772 28.03772 0 0 1 -27.83716 25 27.82478 27.82478 0 0 1 -14.86334-4.28729 27.98479 27.98479 0 0 0 47.86334-19.71271 1 1 0 0 0 -1-1z" fill="#54b646"/><path d="m56.17 17.5v1a24.194 24.194 0 0 1 -24.17 24.17 21.85694 21.85694 0 0 1 -3.26-.23 24.18493 24.18493 0 0 1 -20.91-23.94v-1z" fill="#f05454"/><g fill="#ad4545"><path d="m56.17 17.5v1a24.194 24.194 0 0 1 -24.17 24.17 21.85694 21.85694 0 0 1 -3.26-.23 28.031 28.031 0 0 0 26.1-24.94z"/><path d="m27.51563 36.33057.35058-1.80371a.99987.99987 0 0 1 1.96289.38183l-.35058 1.80371a.99984.99984 0 0 1 -1.96289-.38183z"/><path d="m34.68018 36.68945-.36618-1.80078a1.00006 1.00006 0 0 1 1.96-.39844l.36621 1.80079a1 1 0 0 1 -1.96003.39843z"/><path d="m41.437 34.2793-1.02783-1.52344a1 1 0 0 1 1.6582-1.11816l1.02783 1.52343a1 1 0 0 1 -1.6582 1.11817z"/><path d="m46.75684 29.46729-1.53223-1.01465a1.00029 1.00029 0 0 1 1.10449-1.668l1.53223 1.01465a1.0003 1.0003 0 0 1 -1.10449 1.668z"/><path d="m49.83057 22.98486-1.80371-.35058a.99988.99988 0 0 1 .38183-1.96289l1.80371.35058a.99987.99987 0 0 1 -.38183 1.96289z"/><path d="m13.81055 21.18018 1.80078-.36622a1.00007 1.00007 0 0 1 .39844 1.96l-1.80079.36621a1.00005 1.00005 0 0 1 -.39843-1.95999z"/><path d="m16.2207 27.937 1.52344-1.02734a1 1 0 0 1 1.11816 1.6582l-1.52343 1.02734a1 1 0 0 1 -1.11817-1.6582z"/><path d="m21.0332 33.25732 1.01416-1.53222a1 1 0 0 1 1.668 1.10351l-1.01416 1.53223a1 1 0 0 1 -1.668-1.10352z"/></g><path d="m32 21h-8.104a1 1 0 0 1 0-2h8.104a1 1 0 0 1 0 2z" fill="#ed8383"/><path d="m21.125 21h-1.125a1 1 0 0 1 0-2h1.125a1 1 0 0 1 0 2z" fill="#ed8383"/></g></svg>