<svg id="Capa_1" enable-background="new 0 0 512 512" height="512" viewBox="0 0 512 512" width="512" xmlns="http://www.w3.org/2000/svg"><g><path d="m512 0v256h-160l-96 53.38v-53.38h-64v-256z" fill="#2fe6a9"/><path d="m352 0h160v256h-160z" fill="#26bfb8"/><path d="m384 416v96h-128c-70.7 0-134.7-28.65-181.02-74.98-46.33-46.32-74.98-110.32-74.98-181.02v-128h96l32 32v64l-32 32c0 44.18 17.91 84.18 46.86 113.14 28.96 28.95 68.96 46.86 113.14 46.86l32-32h64z" fill="#54528e"/><path d="m384 416v96h-128c-70.7 0-134.7-28.65-181.02-74.98l67.88-67.88c28.96 28.95 68.96 46.86 113.14 46.86l32-32h64z" fill="#443c67"/><path d="m435.03 94.7-83.03 83.03-15.39 15.39-67.64-67.64 21.21-21.22 46.43 46.43 15.39-15.39 61.82-61.81z" fill="#eff4f9"/><path d="m435.03 94.7-83.03 83.03v-42.43l61.82-61.81z" fill="#d8e5ef"/></g></svg>