<svg height="512pt" viewBox="0 0 512 512.00232" width="512pt" xmlns="http://www.w3.org/2000/svg"><path d="m409.75 154.425781c5.28125-8.492187 3.316406-19.597656-4.554688-25.769531-8.515624-6.675781-10.011718-18.992188-3.335937-27.507812l3.96875-5.066407c1.867187-2.382812 2.007813-5.664062.417969-8.242187-.078125-.128906-.15625-.257813-.230469-.390625-1.414063-2.480469-1.097656-5.59375.664063-7.84375l30.015624-38.296875c1.761719-2.25 4.710938-3.300782 7.460938-2.519532.144531.039063.289062.085938.429688.128907 2.882812.929687 6.039062.007812 7.90625-2.375l15.5625-19.855469c1.851562-2.363281 1.4375-5.78125-.925782-7.632812l-8.949218-7.011719c-2.804688-2.199219-6.597657-2.660157-9.847657-1.199219l-35.9375 16.148438c-17.15625 7.710937-32.183593 19.472656-43.785156 34.28125l-26.367187 33.640624c-9.179688 11.710938-15.367188 25.484376-18.027344 40.121094l-22.769532 125.207032 32.769532 25.679687zm0 0" fill="#d8d8d8"/><path d="m357.574219 102.253906c8.492187-5.28125 19.601562-3.320312 25.769531 4.550782 6.675781 8.519531 18.992188 10.015624 27.511719 3.335937l5.0625-3.964844c2.386719-1.871093 5.667969-2.011719 8.246093-.421875.125.082032.257813.15625.386719.234375 2.484375 1.414063 5.59375 1.097657 7.84375-.667969l38.296875-30.015624c2.25-1.761719 3.304688-4.707032 2.523438-7.457032-.042969-.144531-.085938-.289062-.132813-.429687-.925781-2.882813-.007812-6.039063 2.378907-7.90625l19.851562-15.558594c2.363281-1.855469 5.78125-1.441406 7.632812.921875l7.015626 8.949219c2.199218 2.804687 2.660156 6.597656 1.199218 9.847656l-16.148437 35.9375c-7.710938 17.15625-19.476563 32.183594-34.28125 43.789063l-33.640625 26.363281c-11.710938 9.179687-25.484375 15.367187-40.125 18.03125l-125.203125 22.765625-25.683594-32.769532zm0 0" fill="#efefef"/><path d="m14.796875 373.164062c-.832031-.835937-1.632813-1.738281-2.371094-2.679687l-6.433593-8.210937c-7.011719-8.945313-7.972657-20.957032-2.339844-29.210938 65.421875-95.859375 140.285156-130.875 179.089844-143.21875 1.953124-.621094 3.441406-2.050781 4.191406-4.027344l8.152344-21.480468c1.9375-5.105469 6.976562-7.84375 12.542968-6.816407l38.125 7.476563c1.207032.234375 2.300782.820312 3.167969 1.683594.175781.175781.339844.363281.492187.558593l27.558594 35.164063c1.101563 1.402344 1.535156 3.210937 1.199219 4.960937s-1.414063 3.269531-2.957031 4.164063l-50.183594 28.941406c-.269531.035156-27.449219 3.835938-64.195312 24.808594-28.914063 16.503906-71.71875 48.503906-111.433594 107.238281-3.289063 4.867187-8.390625 7.863281-14.371094 8.433594-7.113281.679687-14.675781-2.230469-20.234375-7.785157zm0 0" fill="#fc7371"/><path d="m379.390625 149.589844c0 9.363281-7.585937 16.949218-16.949219 16.949218-9.363281 0-16.949218-7.585937-16.949218-16.949218 0-9.363282 7.585937-16.953125 16.949218-16.953125 9.363282 0 16.949219 7.589843 16.949219 16.953125zm0 0" fill="#45748c"/><path d="m138.839844 497.203125c-5.558594-5.554687-8.46875-13.121094-7.789063-20.234375.574219-5.976562 3.570313-11.078125 8.433594-14.371094 58.734375-39.710937 90.738281-82.515625 107.238281-111.429687 20.976563-36.746094 24.773438-63.929688 24.808594-64.199219l28.945312-50.179688c.890626-1.542968 2.40625-2.621093 4.160157-2.957031 1.75-.339843 3.558593.097657 4.960937 1.199219l35.164063 27.558594c.195312.152344.382812.316406.558593.492187.867188.867188 1.449219 1.960938 1.6875 3.167969l7.46875 38.105469c1.03125 5.585937-1.707031 10.625-6.808593 12.5625l-21.480469 8.152343c-1.976562.75-3.410156 2.238282-4.03125 4.191407-12.339844 38.804687-47.355469 113.667969-143.21875 179.089843-8.253906 5.632813-20.265625 4.671876-29.210938-2.339843l-8.207031-6.433594c-.941406-.742187-1.84375-1.539063-2.679687-2.375zm0 0" fill="#d84444"/></svg>