<svg id="Capa_1" enable-background="new 0 0 512 512" height="512" viewBox="0 0 512 512" width="512" xmlns="http://www.w3.org/2000/svg"><g><path d="m144.002 182.001h32v52h-32z" fill="#365e7d"/><path d="m448 64-10 16 10 16v170h-96.02v-170l10-16-10-16v-25c0-3.86 3.13-7 7-7h82.02c3.87 0 7 3.14 7 7z" fill="#46778c"/><path d="m372.59 32v234h-20.61v-170l10-16-10-16v-25c0-3.86 3.13-7 7-7z" fill="#3a6684"/><path d="m192.002 266h-63.999v-35c0-3.866 3.134-7 7-7h49.999c3.866 0 7 3.134 7 7z" fill="#46778c"/><path d="m281.001 192.001h-241.998c-3.866 0-7-3.134-7-7v-177.999c0-3.866 3.134-7 7-7h241.998c3.866 0 7 3.134 7 7v177.998c0 3.867-3.134 7.001-7 7.001z" fill="#46778c"/><path d="m83.507 0v192.005h-44.509c-3.866 0-7-3.134-7-7v-178.005c0-3.866 3.134-7 7-7z" fill="#3a6684"/><path d="m320.001 511.998h191.998v-64l-17.999-10h-153.401l-20.598 10z" fill="#98695e"/><path d="m340.599 437.995v74.005h-20.603v-64.005z" fill="#845c52"/><path d="m320.001 447.998h191.998v-63.999l-18.999-10h-152.401l-20.598 10z" fill="#b48e84"/><path d="m340.599 374v73.995h-20.603v-63.995z" fill="#a77d73"/><path d="m320.001 383.999h191.998v-64l-17.999-10h-153.401l-20.598 10z" fill="#98695e"/><path d="m340.599 309.995v74.005h-20.603v-64.005z" fill="#845c52"/><path d="m32.003 309.999h32v201.998h-32z" fill="#98695e"/><path d="m31.998 309.995h15.453v202.005h-15.453z" fill="#845c52"/><path d="m511.999 319.999h-504.996c-3.866 0-7-3.134-7-7v-49.999c0-3.866 3.134-7 7-7h497.996c3.866 0 7 3.134 7 7z" fill="#b48e84"/><path d="m30.906 256v63.995h-23.905c-3.866 0-7-3.134-7-7v-49.995c0-3.866 3.134-7 7-7z" fill="#a77d73"/><g><path d="m448 359.725h-64c-4.267 0-7.726-3.459-7.726-7.726s3.459-7.726 7.726-7.726h64c4.267 0 7.726 3.459 7.726 7.726s-3.459 7.726-7.726 7.726z" fill="#845c52"/></g><g><path d="m448 423.725h-64c-4.267 0-7.726-3.459-7.726-7.726s3.459-7.726 7.726-7.726h64c4.267 0 7.726 3.459 7.726 7.726s-3.459 7.726-7.726 7.726z" fill="#a77d73"/></g><g><path d="m448 487.724h-64c-4.267 0-7.726-3.459-7.726-7.726s3.459-7.726 7.726-7.726h64c4.267 0 7.726 3.459 7.726 7.726s-3.459 7.726-7.726 7.726z" fill="#845c52"/></g><path d="m249.001 160.001h-177.998c-3.866 0-7-3.134-7-7v-113.999c0-3.866 3.134-7 7-7h177.998c3.866 0 7 3.134 7 7v113.999c0 3.866-3.134 7-7 7z" fill="#9bd8f9"/><path d="m83.507 31.997v128h-12.501c-3.866 0-7-3.134-7-7v-114c0-3.866 3.134-7 7-7z" fill="#73c3f9"/><path d="m352 64.002h95.999v32h-95.999z" fill="#9bd8f9"/><path d="m352.004 64.005h20.583v31.997h-20.583z" fill="#73c3f9"/><circle cx="400" cy="176.001" fill="#f25a74" r="16"/></g></svg>