<?xml version="1.0" encoding="iso-8859-1"?>
<!-- Generator: Adobe Illustrator 19.0.0, SVG Export Plug-In . SVG Version: 6.00 Build 0)  -->
<svg version="1.1" id="Layer_1" xmlns="http://www.w3.org/2000/svg" xmlns:xlink="http://www.w3.org/1999/xlink" x="0px" y="0px"
	 viewBox="0 0 512 512" style="enable-background:new 0 0 512 512;" xml:space="preserve">
<path style="fill:#A8A7AD;" d="M512,359.406H346.763v-180.56h104.516L512,263.771V359.406z"/>
<path style="fill:#67B7FC;" d="M363.424,359.406H118.299V97.55h245.126V359.406z"/>
<path style="fill:#5190E3;" d="M363.424,359.406H240.863V97.55h122.563v261.856H363.424z"/>
<g>
	<path style="fill:#5B5B5F;" d="M204.415,414.452c-30.517,0-55.345-24.828-55.345-55.345s24.828-55.345,55.345-55.345
		c30.516,0,55.345,24.828,55.345,55.345S234.931,414.452,204.415,414.452z"/>
	<path style="fill:#5B5B5F;" d="M429.382,414.452c-30.516,0-55.345-24.828-55.345-55.345s24.828-55.345,55.345-55.345
		s55.345,24.828,55.345,55.345S459.898,414.452,429.382,414.452z"/>
</g>
<rect x="28.427" y="97.548" style="fill:#F8E88D;" width="55.062" height="33.391"/>
<rect x="28.427" y="212.815" style="fill:#EAAB44;" width="55.062" height="33.391"/>
<rect y="155.182" style="fill:#F3DA49;" width="83.489" height="33.391"/>
<g>
	<path style="fill:#CACACD;" d="M204.415,337.154c-12.105,0-21.954,9.848-21.954,21.954s9.848,21.954,21.954,21.954
		c12.104,0,21.954-9.848,21.954-21.954S216.519,337.154,204.415,337.154z"/>
	<path style="fill:#CACACD;" d="M429.382,337.154c-12.104,0-21.954,9.848-21.954,21.954s9.848,21.954,21.954,21.954
		s21.954-9.848,21.954-21.954S441.486,337.154,429.382,337.154z"/>
</g>
<g>
</g>
<g>
</g>
<g>
</g>
<g>
</g>
<g>
</g>
<g>
</g>
<g>
</g>
<g>
</g>
<g>
</g>
<g>
</g>
<g>
</g>
<g>
</g>
<g>
</g>
<g>
</g>
<g>
</g>
</svg>
