<svg id="Capa_1" enable-background="new 0 0 493.533 493.533" height="512" viewBox="0 0 493.533 493.533" width="512" xmlns="http://www.w3.org/2000/svg"><g><path d="m155.664 115.602v128.829c-.013 27.977 22.657 50.666 50.633 50.679h.046 142.895l76.148 68.825v-68.825h17.469c27.989 0 50.679-22.69 50.679-50.679v-128.829c-.009-27.985-22.694-50.67-50.679-50.679h-236.506c-27.989-.003-50.682 22.684-50.685 50.673z" fill="#575b6d"/><path d="m337.87 180.277v128.829c.013 27.977-22.657 50.666-50.633 50.679-.015 0-.031 0-.046 0h-122.649l-76.125 68.825v-68.825h-37.738c-27.989.001-50.679-22.689-50.679-50.678v-128.83c.01-27.985 22.694-50.67 50.679-50.679h236.506c27.989-.003 50.682 22.684 50.685 50.673z" fill="#eeefee"/><g fill="#bbbbcd"><path d="m48.871 183.583h240.127c4.18 0 7.569 3.389 7.569 7.569v.006c0 4.18-3.389 7.569-7.569 7.569h-240.127c-4.18 0-7.569-3.389-7.569-7.569v-.006c0-4.18 3.389-7.569 7.569-7.569z"/><path d="m48.871 237.12h240.127c4.18 0 7.569 3.389 7.569 7.569v.006c0 4.18-3.389 7.569-7.569 7.569h-240.127c-4.18 0-7.569-3.389-7.569-7.569v-.006c0-4.18 3.389-7.569 7.569-7.569z"/><path d="m48.871 290.663h240.127c4.18 0 7.569 3.389 7.569 7.569v.006c0 4.18-3.389 7.569-7.569 7.569h-240.127c-4.18 0-7.569-3.389-7.569-7.569v-.006c0-4.181 3.389-7.569 7.569-7.569z"/></g></g></svg>