<?xml version="1.0" encoding="iso-8859-1"?>
<!-- Generator: Adobe Illustrator 19.0.0, SVG Export Plug-In . SVG Version: 6.00 Build 0)  -->
<svg version="1.1" id="Layer_1" xmlns="http://www.w3.org/2000/svg" xmlns:xlink="http://www.w3.org/1999/xlink" x="0px" y="0px"
	 viewBox="0 0 508 508" style="enable-background:new 0 0 508 508;" xml:space="preserve">
<path style="fill:#FFD15C;" d="M508,135.3v351.5c0,11.7-9.5,21.2-21.2,21.2H21.2C9.5,508,0,498.5,0,486.8V135.3
	c0-9.7,4-18.3,10.6-24.5c6-5.8,14.2-9.4,23.3-9.4h440.3c9.1,0,17.3,3.6,23.3,9.3C503.9,117,508,125.7,508,135.3z"/>
<path style="fill:#FF7058;" d="M304.7,0c-28,0-50.7,22.7-50.7,50.7v50.7l0,0V50.7c0-28-22.7-50.7-50.7-50.7s-50.7,22.7-50.7,50.7
	s22.7,50.7,50.7,50.7h10.5V508h80.5V101.5h10.5c28,0,50.7-22.7,50.7-50.7C355.5,22.7,332.7,0,304.7,0z M203.2,74.3
	c-13,0-23.5-10.6-23.5-23.5c0-13,10.6-23.5,23.5-23.5c13,0,23.5,10.6,23.5,23.5v23.5H203.2z M304.7,74.3h-23.5V50.7
	c0-13,10.6-23.5,23.5-23.5c13,0,23.5,10.6,23.5,23.5C328.3,63.7,317.7,74.3,304.7,74.3z"/>
<rect x="213.7" y="101.5" style="fill:#F1543F;" width="80.5" height="12.4"/>
<g>
	<path style="fill:#F8B64C;" d="M48.1,132.2c19.6,0,36.2-12.9,41.7-30.8H33.9c-9.1,0-17.3,3.6-23.3,9.4
		C18.1,123.7,32.1,132.2,48.1,132.2z"/>
	<path style="fill:#F8B64C;" d="M459.9,132.2c16,0,30-8.6,37.6-21.4c-6-5.8-14.2-9.3-23.3-9.3h-56
		C423.6,119.3,440.2,132.2,459.9,132.2z"/>
	<circle style="fill:#F8B64C;" cx="151" cy="234" r="43.6"/>
	<circle style="fill:#F8B64C;" cx="356.9" cy="234" r="43.6"/>
	<circle style="fill:#F8B64C;" cx="48.1" cy="375.5" r="43.6"/>
	<circle style="fill:#F8B64C;" cx="459.9" cy="375.5" r="43.6"/>
	<path style="fill:#F8B64C;" d="M151,477.2c-19.6,0-36.2,12.9-41.7,30.8h83.4C187.3,490.2,170.7,477.2,151,477.2z"/>
	<path style="fill:#F8B64C;" d="M356.9,477.2c-19.6,0-36.2,12.9-41.7,30.8h83.4C393.1,490.2,376.5,477.2,356.9,477.2z"/>
</g>
<g>
</g>
<g>
</g>
<g>
</g>
<g>
</g>
<g>
</g>
<g>
</g>
<g>
</g>
<g>
</g>
<g>
</g>
<g>
</g>
<g>
</g>
<g>
</g>
<g>
</g>
<g>
</g>
<g>
</g>
</svg>
