<?xml version="1.0" encoding="iso-8859-1"?>
<!-- Generator: Adobe Illustrator 19.0.0, SVG Export Plug-In . SVG Version: 6.00 Build 0)  -->
<svg version="1.1" id="Capa_1" xmlns="http://www.w3.org/2000/svg" xmlns:xlink="http://www.w3.org/1999/xlink" x="0px" y="0px"
	 viewBox="0 0 512 512" style="enable-background:new 0 0 512 512;" xml:space="preserve">
<path style="fill:#E6E6E6;" d="M403.732,86.307c-4.974,0-9.865,0.349-14.657,1.01C367.617,36.034,316.967,0,257.898,0
	C188.5,0,130.729,49.737,118.259,115.507c-49.281,1.599-88.743,42.047-88.743,91.718c0,50.685,41.089,91.773,91.774,91.773h282.442
	c58.732,0,106.345-47.612,106.345-106.345C510.077,133.92,462.465,86.307,403.732,86.307z"/>
<path style="fill:#CCCCCC;" d="M403.732,86.307c-4.974,0-9.865,0.349-14.657,1.01C367.617,36.034,316.967,0,257.898,0
	c0,58.781,0,298.998,0,298.998h145.834c58.732,0,106.345-47.612,106.345-106.345C510.077,133.92,462.465,86.307,403.732,86.307z"/>
<g>
	<path style="fill:#82D2FF;" d="M29.032,512L1.923,498.189l36.831-72.293l27.109,13.812L29.032,512z M79.676,412.598l-27.109-13.812
		l36.831-72.293l27.109,13.812L79.676,412.598z"/>
	<path style="fill:#82D2FF;" d="M128.863,512l-27.109-13.811l36.831-72.293l27.109,13.812L128.863,512z M179.508,412.598
		l-27.109-13.812l36.831-72.293l27.109,13.812L179.508,412.598z"/>
</g>
<g>
	<path style="fill:#08B7FC;" d="M228.695,512l-27.109-13.811l36.831-72.293l27.109,13.812L228.695,512z M279.338,412.598
		l-27.109-13.812l36.831-72.293l27.109,13.812L279.338,412.598z"/>
	<path style="fill:#08B7FC;" d="M328.525,512l-27.109-13.811l36.831-72.293l27.109,13.812L328.525,512z M379.169,412.598
		l-27.109-13.812l36.831-72.293L416,340.305L379.169,412.598z"/>
</g>
<g>
</g>
<g>
</g>
<g>
</g>
<g>
</g>
<g>
</g>
<g>
</g>
<g>
</g>
<g>
</g>
<g>
</g>
<g>
</g>
<g>
</g>
<g>
</g>
<g>
</g>
<g>
</g>
<g>
</g>
</svg>
