<svg id="Flat" height="512" viewBox="0 0 512 512" width="512" xmlns="http://www.w3.org/2000/svg"><path d="m424 104v-80h-400v432a32 32 0 0 0 32 32h400v-384z" fill="#e9eef2"/><g fill="#c3c6c7"><path d="m424 104h64a0 0 0 0 1 0 0v352a32 32 0 0 1 -32 32 32 32 0 0 1 -32-32v-352a0 0 0 0 1 0 0z"/><path d="m88 296h128v96h-128z" transform="matrix(-1 0 0 -1 304 688)"/><path d="m360 304h-80a8 8 0 0 1 0-16h80a8 8 0 0 1 0 16z"/><path d="m360 368h-112a8 8 0 0 1 0-16h112a8 8 0 0 1 0 16z"/><path d="m360 432h-88a8 8 0 0 1 0-16h88a8 8 0 0 1 0 16z"/><path d="m360 336h-32a8 8 0 0 1 0-16h32a8 8 0 0 1 0 16z"/><path d="m360 240h-32a8 8 0 0 1 0-16h32a8 8 0 0 1 0 16z"/><path d="m280 400h-32a8 8 0 0 1 0-16h32a8 8 0 0 1 0 16z"/><path d="m104 240h-16a8 8 0 0 1 0-16h16a8 8 0 0 1 0 16z"/><path d="m360 400h-48a8 8 0 0 1 0-16h48a8 8 0 0 1 0 16z"/><path d="m216 272h-128a8 8 0 0 1 0-16h128a8 8 0 0 1 0 16z"/><path d="m360 272h-112a8 8 0 0 1 0-16h112a8 8 0 0 1 0 16z"/><path d="m240 432h-152a8 8 0 0 1 0-16h152a8 8 0 0 1 0 16z"/><path d="m296 240h-160a8 8 0 0 1 0-16h160a8 8 0 0 1 0 16z"/><path d="m88 88h272v112h-272z"/><path d="m304 336h-56a8 8 0 0 1 0-16h56a8 8 0 0 1 0 16z"/><circle cx="248" cy="296" r="8"/></g></svg>