<svg id="Capa_1" enable-background="new 0 0 512 512" height="512" viewBox="0 0 512 512" width="512" xmlns="http://www.w3.org/2000/svg"><g><path d="m355.321 170.392c-6.989 3.481-15.241 3.481-22.231 0-28.293-14.091-55.999-15.405-80.059-7.93 46.233 12.322 79.901 57.145 79.901 107.264 0 55.058-42.205 118.745-78.433 153.656 15.866 15.466 30.683 25.561 40.498 27.195 15.637 2.604 27.675-1.642 35.93-6.71 8.157-5.009 18.399-5.009 26.557 0 8.255 5.068 20.292 9.314 35.93 6.71 32.269-5.373 118.586-102.078 118.586-181.13 0-75.589-75.97-139.249-156.679-99.055z" fill="#4bcd5c"/><path d="m366.494 269.447c0-39.275-16.197-76.808-43.58-103.586-24.727-9.743-48.716-9.975-69.882-3.398 46.233 12.322 79.901 57.145 79.901 107.264 0 55.058-42.205 118.745-78.433 153.656 9.227 8.995 18.091 16.154 25.831 20.908 11.316-11.168 22.533-24.196 32.939-38.304 19.877-26.954 53.224-80.533 53.224-136.54z" fill="#00c53b"/><path d="m396.506 65.847c-1.389-4.035-5.785-6.179-9.821-4.791-2.047.705-50.087 18.315-50.206 111.599-.005 4.243 3.263 7.952 7.505 8.071 4.368.122 7.948-3.382 7.948-7.723 0-14.693 1.279-27.195 3.329-37.799.281-1.455 2.021-2.071 3.163-1.126l5.511 4.566c3.326 2.755 8.271 2.252 10.971-1.134 2.655-3.328 1.95-8.227-1.328-10.943l-12.02-9.959c-.636-.527-.876-1.408-.59-2.183 3.449-9.343 7.441-16.355 11.148-21.495 9.609-13.32 19.321-17.153 19.67-17.287 3.989-1.417 6.1-5.785 4.72-9.796z" fill="#bc7c63"/><g><path d="m447.971 352.745c-1.171 0-2.358-.267-3.474-.83-3.81-1.922-5.341-6.568-3.419-10.378 13.073-25.917 19.984-50.844 19.984-72.09 0-25.12-9.004-49.573-25.353-68.855-2.76-3.255-2.358-8.131.896-10.89 3.256-2.761 8.13-2.356 10.89.896 18.713 22.07 29.019 50.073 29.019 78.849 0 23.989-7.281 50.585-21.64 79.049-1.358 2.695-4.08 4.249-6.903 4.249z" fill="#74d579"/></g><path d="m352.569 111.139c.683-2.129-.039-4.456-1.808-5.822-10.316-7.971-24.218-10.963-37.614-6.802s-23.157 14.502-27.141 26.915c-.683 2.129.039 4.455 1.808 5.822 10.316 7.971 24.218 10.963 37.614 6.802s23.156-14.502 27.141-26.915z" fill="#4bcd5c"/><path d="m307.388 131.252c-1.769-1.367-2.492-3.694-1.809-5.822 3.985-12.413 13.746-22.754 27.141-26.915.825-.256 1.651-.484 2.479-.686-7.042-1.721-14.624-1.621-22.052.686-13.395 4.161-23.156 14.502-27.141 26.915-.683 2.129.039 4.456 1.809 5.822 9.681 7.48 22.52 10.574 35.135 7.488-5.658-1.382-10.967-3.937-15.562-7.488z" fill="#00c53b"/><path d="m178.909 170.392c-6.99 3.481-15.241 3.481-22.231 0-80.708-40.194-156.678 23.466-156.678 99.055 0 79.052 86.317 175.757 118.585 181.129 15.637 2.604 27.675-1.642 35.93-6.71 8.158-5.009 18.399-5.009 26.557 0 8.255 5.068 20.292 9.314 35.93 6.71 32.268-5.372 118.585-102.077 118.585-181.129.001-75.589-75.969-139.249-156.678-99.055z" fill="#ff656f"/><g><path d="m59.751 269.447c0-49.134 32.104-93.215 76.738-107.022-72.741-21.434-136.489 37.781-136.489 107.022 0 79.052 86.317 175.757 118.585 181.129 15.637 2.604 27.675-1.642 35.93-6.71 1.571-.964 3.22-1.739 4.915-2.332-38.606-26.61-99.679-105.59-99.679-172.087z" fill="#ff4756"/></g><path d="m220.094 65.847c-1.389-4.035-5.785-6.179-9.821-4.791-2.047.705-50.087 18.315-50.206 111.599-.005 4.243 3.263 7.952 7.505 8.071 4.368.122 7.948-3.382 7.948-7.723 0-14.693 1.279-27.195 3.329-37.799.281-1.455 2.021-2.071 3.163-1.126l5.511 4.566c3.326 2.755 8.271 2.252 10.971-1.134 2.655-3.328 1.95-8.227-1.328-10.943l-12.02-9.959c-.636-.527-.876-1.408-.59-2.183 3.449-9.343 7.441-16.355 11.148-21.495 9.609-13.32 19.321-17.153 19.67-17.287 3.989-1.417 6.101-5.785 4.72-9.796z" fill="#bc7c63"/><g><path d="m271.559 352.745c-1.171 0-2.358-.267-3.474-.83-3.81-1.922-5.341-6.568-3.419-10.378 13.073-25.917 19.984-50.844 19.984-72.09 0-25.12-9.004-49.573-25.353-68.855-2.76-3.255-2.358-8.131.896-10.89 3.256-2.761 8.13-2.356 10.89.896 18.713 22.07 29.019 50.073 29.019 78.849 0 23.989-7.281 50.585-21.64 79.049-1.358 2.695-4.079 4.249-6.903 4.249z" fill="#ff7f87"/></g><path d="m176.157 111.139c.683-2.129-.039-4.456-1.808-5.822-10.316-7.971-24.218-10.963-37.614-6.802s-23.157 14.502-27.141 26.915c-.683 2.129.039 4.455 1.808 5.822 10.316 7.971 24.218 10.963 37.614 6.802s23.157-14.502 27.141-26.915z" fill="#4bcd5c"/><path d="m130.976 131.252c-1.769-1.367-2.492-3.694-1.809-5.822 3.985-12.413 13.746-22.754 27.141-26.915.825-.256 1.651-.484 2.479-.686-7.042-1.721-14.624-1.621-22.052.686-13.395 4.161-23.156 14.502-27.141 26.915-.683 2.129.039 4.456 1.809 5.822 9.681 7.48 22.52 10.574 35.135 7.488-5.658-1.382-10.967-3.937-15.562-7.488z" fill="#00c53b"/></g></svg>