<svg id="Layer_1" enable-background="new 0 0 512 512" height="512" viewBox="0 0 512 512" width="512" xmlns="http://www.w3.org/2000/svg"><g><g><path d="m243.951 121.385c-8.284 0-15-6.716-15-15v-91.385c0-8.284 6.716-15 15-15s15 6.716 15 15v91.385c0 8.284-6.716 15-15 15z" fill="#ca6d36"/></g><path d="m258.951 106.385v-91.385c0-8.284-6.716-15-15-15h-.001v121.385h.001c8.284 0 15-6.716 15-15z" fill="#b24d00"/><g><path d="m402.68 120.754c-6.21-5.482-15.688-4.892-21.172 1.32-1.578 1.789-2.637 3.852-3.219 6.008l-93.564-25.34c.634-2.332.712-4.85.118-7.367-1.902-8.062-9.979-13.053-18.044-11.153-7.724 1.822-15.382 4.299-22.845 7.385-18.074-7.483-36.959-11.272-56.237-11.272-47.564 0-92.07 22.89-125.32 64.452-32.466 40.582-50.346 94.343-50.346 151.38 0 57.039 17.88 110.8 50.346 151.382 33.249 41.561 77.755 64.451 125.32 64.451 19.273 0 38.158-3.789 56.234-11.272 18.077 7.483 36.961 11.272 56.235 11.272 47.564 0 92.07-22.89 125.32-64.452 32.465-40.582 50.344-94.343 50.344-151.382 0-69.397-27.354-134.972-73.17-175.412z" fill="#ff9f00"/><path d="m402.68 120.754c-6.21-5.482-15.688-4.892-21.172 1.32-1.578 1.789-2.637 3.852-3.219 6.008l-93.564-25.34c.634-2.332.712-4.85.118-7.367-1.902-8.062-9.979-13.053-18.044-11.153-7.724 1.822-15.382 4.299-22.845 7.385-.001-.001-.003-.001-.004-.001v409.123c0-.001.001-.001.001-.001 18.077 7.483 36.961 11.272 56.235 11.272 47.564 0 92.07-22.89 125.32-64.452 32.465-40.582 50.344-94.343 50.344-151.382 0-69.397-27.354-134.972-73.17-175.412z" fill="#ff641a"/><g><path d="m243.951 402.941c-8.284 0-15-6.716-15-15v-185.158c0-8.284 6.716-15 15-15s15 6.716 15 15v185.158c0 8.285-6.716 15-15 15z" fill="#ffd400"/></g></g><path d="m496.123 65.243c-2.385-2.663-59.255-65.239-131.672-65.243-72.421 0-129.289 62.58-131.675 65.244-5.101 5.695-5.101 14.316.001 20.013 2.385 2.663 59.25 65.234 131.669 65.242 0 0-.001-.001.004-.001 72.415 0 129.288-62.578 131.674-65.241 5.101-5.696 5.101-14.318-.001-20.014z" fill="#54e360"/><path d="m243.951 402.941c8.284 0 15-6.716 15-15v-185.158c0-8.284-6.716-15-15-15h-.001z" fill="#ff9f04"/><path d="m496.123 65.243c-2.385-2.663-59.255-65.239-131.672-65.243h-.001v150.498c72.415 0 129.288-62.578 131.674-65.241 5.101-5.696 5.101-14.318-.001-20.014z" fill="#1fbf66"/></g></svg>