<?xml version="1.0" encoding="iso-8859-1"?>
<!-- Generator: Adobe Illustrator 19.0.0, SVG Export Plug-In . SVG Version: 6.00 Build 0)  -->
<svg version="1.1" id="Layer_1" xmlns="http://www.w3.org/2000/svg" xmlns:xlink="http://www.w3.org/1999/xlink" x="0px" y="0px"
	 viewBox="0 0 511.999 511.999" style="enable-background:new 0 0 511.999 511.999;" xml:space="preserve">
<path style="fill:#E6E6E6;" d="M104.133,275.795v222.983l50.983-30.945l50.983,30.945l50.983-30.945l50.983,30.945l50.983-30.945
	l50.983,30.945l50.983-30.945l50.983,30.945V65.287c0-28.755-23.311-52.066-52.066-52.066H52.066"/>
<path style="fill:#CCCCCC;" d="M0,275.795h104.133V60.648c0-26.192-21.234-47.426-47.426-47.426h-9.28
	C21.234,13.222,0,34.454,0,60.648V275.795z"/>
<rect x="169.258" y="103.774" style="fill:#47A7DD;" width="112.784" height="152.236"/>
<rect x="327.408" y="294.059" style="fill:#FFCA6C;" width="130.412" height="76.112"/>
<g>
	<rect x="327.408" y="94.296" style="fill:#808080;" width="130.399" height="18.955"/>
	<rect x="327.408" y="246.519" style="fill:#808080;" width="130.399" height="18.955"/>
	<rect x="396.619" y="208.47" style="fill:#808080;" width="61.187" height="18.955"/>
	<rect x="327.408" y="208.47" style="fill:#808080;" width="47.173" height="18.955"/>
	<rect x="327.408" y="170.408" style="fill:#808080;" width="130.399" height="18.955"/>
	<rect x="169.258" y="368.187" style="fill:#808080;" width="112.784" height="18.955"/>
	<rect x="228.752" y="330.137" style="fill:#808080;" width="53.277" height="18.955"/>
	<rect x="169.258" y="330.137" style="fill:#808080;" width="37.457" height="18.955"/>
	<rect x="169.258" y="292.075" style="fill:#808080;" width="112.784" height="18.955"/>
	<rect x="436.855" y="132.346" style="fill:#808080;" width="20.961" height="18.955"/>
	<rect x="327.408" y="132.346" style="fill:#808080;" width="87.396" height="18.955"/>
</g>
<g>
</g>
<g>
</g>
<g>
</g>
<g>
</g>
<g>
</g>
<g>
</g>
<g>
</g>
<g>
</g>
<g>
</g>
<g>
</g>
<g>
</g>
<g>
</g>
<g>
</g>
<g>
</g>
<g>
</g>
</svg>
