<svg id="Layer_1" enable-background="new 0 0 128 128" height="512" viewBox="0 0 128 128" width="512" xmlns="http://www.w3.org/2000/svg"><g><path d="m101.8 17.2c.4-.9 0-1.9-.9-2.3s-1.9 0-2.3.9c-2 4.4-2.2 9.4-.4 13.9 2.3 5.6.9 12-3.5 16.1-7.9 7.2-12.9 17.1-13.1 17.5-.4.9-.1 1.9.8 2.4s1.9.1 2.4-.8c0-.1 4.9-9.7 12.3-16.4 5.4-5.1 7.1-13 4.4-19.9-1.5-3.8-1.4-7.8.3-11.4z" fill="#7db267"/><path d="m82.2 53.4c-24.3 11.2-64.6 47-71.4 54.5-4.4 4.6-6.7 7.4-6.7 7.4 3.4 0 31.6 1.9 61.8-23.8s29.9-44.3 30-44.5c-.8.4-10 4.5-13.7 6.4z" fill="#7db267"/><path d="m95.9 47c-1.6 5-3.9 9.7-6.7 14.1-16.2 26.3-45.6 42.8-75 51.5-3.2 1-6.6 1.9-10.1 2.7 1 .2 50.9 11.6 75.8-9.7 15.2-12.9 19.5-33.3 17-52.9-.2-1.8-.5-3.8-1-5.7z" fill="#b4e6a0"/><path d="m73.2 51.8c-7.5 1-13.2 7.2-13.4 14.8-.1 7.5 5 13.8 11.9 15.3 6.8-6.1 12.7-13.1 17.6-20.8-2.7-6.4-9.4-10.2-16.1-9.3z" fill="#96cd82"/><path d="m63.3 76.7c-.2-.3-.5-.8-.8-1.1-5.4-6.5-15-7.5-21.6-2.1-5.6 4.7-7.1 12.5-3.9 18.8.4.8.8 1.6 1.4 2.3 1.8 2.4 4.4 4.3 7.3 5.3 7.1-3.7 13.9-8.1 20.2-13.1.3-3.6-.6-7.1-2.6-10.1z" fill="#96cd82"/><path d="m38.4 94.6c-.4-.8-.8-1.5-1.4-2.3-5-6.7-14.7-8.1-21.5-3-7.5 5.7-8.1 16.8-1.4 23.3 8.9-2.6 17.6-5.9 25.9-9.9.3-2.8-.3-5.6-1.6-8.1z" fill="#96cd82"/><g fill="#b4e6a0"><path d="m79 34.7s13.3 6.7 19.8-10.5c0 0-15.5-1.2-19.8 10.5z"/><path d="m100.2 16.5c13.2 11.1 23.8-5.8 23.8-5.8-17.5-5.1-23.8 5.8-23.8 5.8z"/><path d="m19.8 93.2c-.2.2-5.9 4.3-4.5 12.8.1.8.9 1.5 1.7 1.5h.3c1-.2 1.6-1.1 1.4-2-1-6.3 2.9-9.3 3.1-9.4.8-.6 1-1.7.4-2.4s-1.6-1.1-2.4-.5z"/><path d="m46.7 77.9c-.2.2-5.9 4.3-4.5 12.8.1.8.9 1.5 1.7 1.5h.3c1-.2 1.6-1.1 1.4-2-1-6.3 2.9-9.3 3.1-9.4.8-.6.9-1.7.4-2.4-.6-.9-1.7-1.1-2.4-.5z"/><path d="m70.5 58.5c-7.9 7.4-2.4 13.7-2.3 13.8.3.4.8.6 1.3.6 1 0 1.8-.8 1.7-1.8 0-.4-.2-.8-.4-1.1-.3-.4-3.2-4 2.1-8.9.7-.7.7-1.8.1-2.5-.7-.8-1.8-.8-2.5-.1z"/></g></g></svg>