<?xml version="1.0" encoding="iso-8859-1"?>
<!-- Generator: Adobe Illustrator 19.0.0, SVG Export Plug-In . SVG Version: 6.00 Build 0)  -->
<svg version="1.1" id="Capa_1" xmlns="http://www.w3.org/2000/svg" xmlns:xlink="http://www.w3.org/1999/xlink" x="0px" y="0px"
	 viewBox="0 0 512 512" style="enable-background:new 0 0 512 512;" xml:space="preserve">
<path style="fill:#73553A;" d="M311.371,240.623c-6.592,0-12.627-4.351-14.443-11.001L254.975,75.835
	c-2.227-7.983,2.461-16.245,10.459-18.457c7.969-2.183,16.26,2.476,18.428,10.459l41.953,153.787
	c2.227,7.983-2.461,16.245-10.459,18.457C314.037,240.447,312.689,240.623,311.371,240.623z"/>
<g>
	<path style="fill:#896748;" d="M200.629,240.623c-1.318,0-2.666-0.176-3.984-0.542c-7.998-2.212-12.686-10.474-10.459-18.457
		l41.953-153.787c2.197-7.983,10.518-12.671,18.428-10.459c7.998,2.212,12.686,10.474,10.459,18.457l-41.953,153.787
		C213.256,236.272,207.221,240.623,200.629,240.623z"/>
	<path style="fill:#896748;" d="M257.497,0.3c-0.6-0.3-0.9-0.3-1.5-0.3c-24.9,0-45,20.1-45,45s20.1,45,45,45h1.5
		c24.3-0.9,43.5-20.7,43.5-45S281.797,0.9,257.497,0.3z M257.497,60h-1.5c-8.4,0-15-6.6-15-15s6.6-15,15-15c0.6,0,0.9,0,1.5,0.3
		c7.8,0.6,13.5,6.9,13.5,14.7S265.297,59.1,257.497,60z"/>
</g>
<path style="fill:#32D736;" d="M166,362h-60c-8.291,0-15-6.709-15-15c0-31.319-15.32-58.388-51.709-76.582
	c-6.211-3.105-9.492-10.093-7.881-16.86C32.992,246.79,39.057,242,46,242h30c57.891,0,105,47.109,105,105
	C181,355.291,174.291,362,166,362z"/>
<path style="fill:#10BB67;" d="M406,362h-60c-8.291,0-15-6.709-15-15c0-57.891,47.109-105,105-105h30
	c6.943,0,13.008,4.79,14.59,11.558c1.611,6.768-1.67,13.755-7.881,16.86C436.544,288.501,421,315.433,421,347
	C421,355.291,414.291,362,406,362z"/>
<path style="fill:#32D736;" d="M358.9,354.8c-2.999,4.499-7.8,7.2-12.9,7.2H166c-11.1,0-18.3-11.7-13.5-21.601
	c17.1-33.9,17.1-102.9,0-136.8c-2.999-6-1.5-13.2,3.6-17.699c5.101-4.501,12.601-5.101,18.001-1.501
	c11.999,7.8,24.3,18.301,36.899,30.901c13.5,13.2,32.1,35.4,45,64.501c12.9-29.101,31.5-51.301,45-64.501
	c12.599-12.599,24.901-23.101,36.899-30.901c5.4-3.6,12.9-2.999,18.001,1.501c5.099,4.499,6.599,11.699,3.6,17.699
	c-17.1,33.9-17.1,102.9,0,136.8C361.601,344.9,361.601,350.6,358.9,354.8z"/>
<path style="fill:#10BB67;" d="M358.9,354.8c-2.999,4.499-7.8,7.2-12.9,7.2h-90v-82.2c12.9-29.101,31.5-51.301,45-64.501
	c12.599-12.599,24.901-23.101,36.899-30.901c5.4-3.6,12.9-2.999,18.001,1.501c5.099,4.499,6.599,11.699,3.6,17.699
	c-17.1,33.9-17.1,102.9,0,136.8C361.601,344.9,361.601,350.6,358.9,354.8z"/>
<path style="fill:#994C0F;" d="M406,332H106c-8.401,0-15,6.599-15,15c0,90.899,74.099,165,165,165s165-74.101,165-165
	C421,338.599,414.401,332,406,332z"/>
<path style="fill:#713708;" d="M421,347c0,90.899-74.099,165-165,165V332h150C414.401,332,421,338.599,421,347z"/>
<path style="fill:#BF6015;" d="M451,347c0,8.399-6.599,15-15,15H76c-8.401,0-15-6.601-15-15c0-8.401,6.599-15,15-15h360
	C444.401,332,451,338.599,451,347z"/>
<path style="fill:#994C10;" d="M451,347c0,8.399-6.599,15-15,15H256v-30h180C444.401,332,451,338.599,451,347z"/>
<path style="fill:#73553A;" d="M300.997,45c0,24.3-19.2,44.1-43.5,45h-1.5V60h1.5c7.8-0.9,13.5-7.2,13.5-15s-5.7-14.1-13.5-14.7
	c-0.6-0.3-0.9-0.3-1.5-0.3V0c0.6,0,0.9,0,1.5,0.3C281.797,0.9,300.997,20.7,300.997,45z"/>
<g>
</g>
<g>
</g>
<g>
</g>
<g>
</g>
<g>
</g>
<g>
</g>
<g>
</g>
<g>
</g>
<g>
</g>
<g>
</g>
<g>
</g>
<g>
</g>
<g>
</g>
<g>
</g>
<g>
</g>
</svg>
