<svg id="Capa_1" enable-background="new 0 0 497 497" height="512" viewBox="0 0 497 497" width="512" xmlns="http://www.w3.org/2000/svg"><g><g><path d="m250.913 111.127c-3.88 0-7.165-2.988-7.47-6.921-.98-12.652-11.056-13.799-11.484-13.842-4.122-.409-7.131-4.083-6.721-8.205.41-4.121 4.085-7.144 8.205-6.721 7.953.791 23.403 7.579 24.955 27.609.32 4.13-2.769 7.736-6.898 8.057-.197.016-.393.023-.587.023z" fill="#b67f5f"/></g><g><path d="m404.824 111.127c-3.88 0-7.165-2.988-7.47-6.921-.98-12.652-11.056-13.799-11.484-13.842-4.122-.409-7.131-4.083-6.721-8.205.41-4.121 4.085-7.144 8.205-6.721 7.953.791 23.403 7.579 24.955 27.609.32 4.13-2.769 7.736-6.898 8.057-.196.016-.392.023-.587.023z" fill="#b67f5f"/></g><g><path d="m96.351 111.127c-3.88 0-7.165-2.988-7.47-6.921-.981-12.652-11.056-13.799-11.484-13.842-4.122-.409-7.131-4.083-6.721-8.205.41-4.121 4.085-7.144 8.205-6.721 7.953.791 23.403 7.579 24.955 27.609.32 4.13-2.769 7.736-6.898 8.057-.196.016-.393.023-.587.023z" fill="#b67f5f"/></g><path d="m61.45 265.857 4.146-.379c1.829-.167 3.596-.529 5.282-1.062 10.324-3.268 17.611-13.004 17.414-24.245l-1.704-97.225c-.274-15.635-12.15-28.176-27.045-29.926-2.086-.245-4.209.121-6.39.32l-6.108.157-6.483.593c-17.806 1.628-30.749 17.644-28.601 35.396l10.24 84.658c2.262 18.704 18.436 32.417 37.025 31.85.738-.024 1.479-.069 2.224-.137z" fill="#fd4755"/><path d="m141.033 260.524-4.117.892c-13.076.296-24.166-9.548-25.423-22.567l-9.347-96.79c-1.522-15.758 9.132-29.716 24.019-32.926 1.877-.405 3.82-.638 5.815-.684l12.639-.886c17.876-.405 32.131 14.663 32.014 32.543l-.561 85.274c-.129 19.587-15.456 34.701-35.039 35.144z" fill="#fd4755"/><path d="m111.764 270.089-20.172 1.549c-15.275.87-28.483-10.54-29.841-25.78l-9.871-110.774c-1.421-15.944 10.636-29.901 26.618-30.811l26.508-1.51.995-.092c7.497-.427 13.879 2.565 19.202 7.016 6.025 5.038 10.324 12.124 10.536 20.62l2.77 111.179c.185 7.427-2.509 14.275-7.078 19.453-4.842 5.488-11.81 8.703-19.667 9.15z" fill="#ed5469"/><path d="" fill="#fd4755"/><path d="" fill="#fd4755"/><path d="" fill="#fd4755"/><path d="m356.503 261.762 4.163.073c1.836.032 3.632-.135 5.366-.483 10.617-2.128 18.919-11.015 19.943-22.212l8.86-96.836c1.425-15.572-9.02-29.328-23.637-32.685-2.047-.47-4.197-.337-6.387-.376l-6.088-.507-6.509-.115c-17.878-.315-32.482 14.202-32.275 32.082l.99 85.27c.219 18.839 14.808 34.227 33.349 35.68.736.06 1.478.096 2.225.109z" fill="#9be69d"/><path d="m436.196 265.099-4.19.44c-13.031-1.125-22.987-12.114-22.823-25.193l1.215-97.233c.198-15.831 12.304-28.549 27.451-30.125 1.909-.199 3.867-.22 5.855-.048l12.552 1.485c17.814 1.538 30.459 17.07 28.401 34.832l-9.814 84.709c-2.255 19.457-19.132 32.818-38.647 31.133z" fill="#9be69d"/><path d="m406.061 271.43-20.22-.65c-15.279-.793-27.17-13.57-26.866-28.866l2.211-111.192c.318-16.004 13.819-28.569 29.805-27.74l26.515 1.377.768.44c7.499.389 13.749 3.633 18.558 8.636 5.443 5.662 8.947 13.173 8.235 21.642l-9.316 110.823c-.622 7.403-4.043 13.918-9.148 18.57-5.407 4.929-12.682 7.369-20.542 6.96z" fill="#bbf49b"/><path d="" fill="#fd4755"/><path d="" fill="#fd4755"/><path d="m204.925 263.445 4.163-.093c1.836-.041 3.624-.28 5.342-.697 10.524-2.551 18.463-11.763 19.039-22.992l4.979-97.113c.801-15.617-10.186-28.944-24.925-31.713-2.064-.388-4.207-.169-6.397-.12l-6.104-.263-6.508.146c-17.876.401-31.888 15.49-30.965 33.347l4.4 85.162c.972 18.815 16.165 33.607 34.749 34.318.737.029 1.48.035 2.227.018z" fill="#ffca28"/><path d="m284.687 263.592-4.169.607c-13.066-.603-23.453-11.185-23.813-24.26l-2.675-97.203c-.436-15.826 11.152-29.019 26.224-31.199 1.9-.275 3.855-.374 5.849-.283l12.602.982c17.862.824 31.117 15.838 29.771 33.667l-6.418 85.034c-1.475 19.533-17.804 33.558-37.371 32.655z" fill="#ffca28"/><path d="m254.83 271.124-20.23.16c-15.298-.181-27.691-12.472-27.999-27.769l-2.239-111.191c-.322-16.004 12.665-29.099 28.671-28.91l26.549.315.79.009c7.508.089 13.879 3.48 18.884 8.286 5.665 5.44 9.467 12.805 9.094 21.295l-4.874 111.107c-.326 7.422-3.483 14.069-8.398 18.921-5.207 5.141-12.379 7.87-20.248 7.777z" fill="#ffd54f"/><path d="" fill="#fd4755"/><path d="" fill="#fd4755"/><path d="m482 420.602-6.264 1h-460.736c-8.284 0-15-6.716-15-15v-40.662l1-8.467-1-6.533v-48.16l1-7.057-1-7.943v-40.662c0-8.284 6.716-15 15-15h457l10 1c8.25 0 14 5.75 14 14v159.483c0 8.251-5.75 14.001-14 14.001z" fill="#b67f5f"/><path d="m0 350.941h468.108v-.001c4.911 0 8.892-3.981 8.892-8.892v-30.376c0-4.911-3.981-8.892-8.891-8.892h-468.109v-15h468.108c4.911 0 8.892-3.981 8.892-8.892v-41.506c0-2.907-2.357-5.263-5.264-5.263h2.264 8c8.25 0 15 6.75 15 15v159.483c0 8.25-6.75 15-15 15h-6.309c.801-2.681 1.309-3.914 1.309-5.263v-41.506c0-4.902-3.968-8.877-8.867-8.891h-468.133z" fill="#a06e50"/><g fill="#e9e9e9"><path d="m38.557 273.084c-4.142 0-7.5-3.358-7.5-7.5 0-4.142 3.358-7.5 7.5-7.5 4.142 0 7.5 3.358 7.5 7.5 0 4.142-3.358 7.5-7.5 7.5z"/><path d="m38.557 334.36c-4.142 0-7.5-3.358-7.5-7.5 0-4.142 3.358-7.5 7.5-7.5 4.142 0 7.5 3.358 7.5 7.5 0 4.142-3.358 7.5-7.5 7.5z"/><path d="m38.557 395.636c-4.142 0-7.5-3.358-7.5-7.5 0-4.142 3.358-7.5 7.5-7.5 4.142 0 7.5 3.358 7.5 7.5 0 4.142-3.358 7.5-7.5 7.5z"/><path d="m458.443 273.084c-4.142 0-7.5-3.358-7.5-7.5 0-4.142 3.358-7.5 7.5-7.5 4.142 0 7.5 3.358 7.5 7.5 0 4.142-3.358 7.5-7.5 7.5z"/><path d="m458.443 334.36c-4.142 0-7.5-3.358-7.5-7.5 0-4.142 3.358-7.5 7.5-7.5 4.142 0 7.5 3.358 7.5 7.5 0 4.142-3.358 7.5-7.5 7.5z"/><path d="m458.443 395.636c-4.142 0-7.5-3.358-7.5-7.5 0-4.142 3.358-7.5 7.5-7.5 4.142 0 7.5 3.358 7.5 7.5 0 4.142-3.358 7.5-7.5 7.5z"/></g></g></svg>