<?xml version="1.0" encoding="iso-8859-1"?>
<!-- Generator: Adobe Illustrator 19.0.0, SVG Export Plug-In . SVG Version: 6.00 Build 0)  -->
<svg xmlns="http://www.w3.org/2000/svg" xmlns:xlink="http://www.w3.org/1999/xlink" version="1.1" id="Capa_1" x="0px" y="0px" viewBox="0 0 511.999 511.999" style="enable-background:new 0 0 511.999 511.999;" xml:space="preserve">
<path style="fill:#9CA3DB;" d="M351.319,147.98h-8.744c-8.284,0-15,6.716-15,15s6.716,15,15,15h8.744  c53.109,0,96.316,43.207,96.316,96.315v6.553c0,21.952-17.859,39.811-39.811,39.811c-8.284,0-15,6.716-15,15s6.716,15,15,15  c38.494,0,69.811-31.317,69.811-69.811v-6.553C477.635,204.645,420.97,147.98,351.319,147.98z"/>
<path style="fill:#C8C5E8;" d="M420.111,339.095l-71.688-179.008V57.792c0-7.245-5.179-13.455-12.306-14.756l-234.4-42.792  c-4.67-0.854-9.472,0.557-12.94,3.801c-3.469,3.244-5.196,7.939-4.657,12.657l16.524,144.68L39.968,343.19  c-6.731,20.169-7.411,41.453-1.966,61.548c17.11,63.154,74.807,107.261,140.31,107.261h106.315  c62.221,0,117.518-39.542,137.599-98.394C430.451,389.501,429.7,363.04,420.111,339.095z"/>
<path style="fill:#E8E7F3;" d="M231.129,23.869L101.717,0.244c-4.67-0.854-9.472,0.557-12.94,3.801  c-3.469,3.244-5.196,7.939-4.657,12.657l16.524,144.68L39.968,343.19c-6.731,20.169-7.411,41.453-1.966,61.548  c17.11,63.154,74.807,107.261,140.31,107.261h52.817V23.869z"/>
<path style="fill:#567FF0;" d="M379.343,237.296H75.308L39.968,343.19c-6.731,20.169-7.411,41.453-1.966,61.548  c17.11,63.154,74.807,107.261,140.31,107.261h106.315c62.221,0,117.518-39.542,137.599-98.394  c8.225-24.104,7.473-50.566-2.116-74.51L379.343,237.296z"/>
<path style="fill:#70B5FA;" d="M231.129,237.296H75.308L39.968,343.19c-6.731,20.169-7.411,41.453-1.966,61.548  c17.11,63.154,74.807,107.261,140.31,107.261h52.816L231.129,237.296z"/>
<g>
</g>
<g>
</g>
<g>
</g>
<g>
</g>
<g>
</g>
<g>
</g>
<g>
</g>
<g>
</g>
<g>
</g>
<g>
</g>
<g>
</g>
<g>
</g>
<g>
</g>
<g>
</g>
<g>
</g>
</svg>
