<svg id="Capa_1" enable-background="new 0 0 426.703 426.703" height="512" viewBox="0 0 426.703 426.703" width="512" xmlns="http://www.w3.org/2000/svg"><g><path d="m37.128 0h224.893c11.645 0 21.085 9.44 21.085 21.085v384.532c0 11.645-9.44 21.085-21.085 21.085h-224.893c-11.645 0-21.085-9.44-21.085-21.085v-384.532c0-11.645 9.44-21.085 21.085-21.085z" fill="#575b6d"/><path d="m32.107 37.149h234.936v328.312h-234.936z" fill="#69b0ee"/><circle cx="149.58" cy="395.278" fill="#828a9e" r="14.888"/><path d="m168.423 14.758h-37.69c-2.553 0-4.623 2.07-4.623 4.623s2.07 4.623 4.623 4.623h37.69c2.553 0 4.623-2.07 4.623-4.623s-2.07-4.623-4.623-4.623z" fill="#828a9e"/><path d="m410.66 153.915c0 47.182-50.856 85.408-113.612 85.408-17.036.077-33.95-2.871-49.955-8.706-35.734 25.914-61.091 16.407-61.091 16.407 12.565-8.663 22.11-21.034 27.304-35.385-18.562-15.195-29.869-35.453-29.869-57.725 0-47.213 50.856-85.445 113.612-85.445s113.611 38.207 113.611 85.446z" fill="#f6c863"/><g fill="#575b6d"><path d="m268.266 177.966h-6.042v-40.953l-13.733 40.953h-5.724l-13.722-40.953v40.953h-6.047v-48.145h9.559l13.056 40.141 13.108-40.141h9.559z"/><path d="m324.31 177.966h-6.047v-40.953l-13.727 40.953h-5.724l-13.727-40.953v40.953h-6.042v-48.145h9.559l13.04 40.141 13.108-40.141h9.559z"/><path d="m353.253 178.799c-5.466.423-10.894-1.204-15.226-4.564-3.339-2.99-5.266-7.247-5.308-11.729h6.146c.119 3.225 1.79 6.192 4.486 7.967 2.891 1.792 6.243 2.696 9.642 2.602 3.03.144 6.033-.623 8.622-2.201 2.072-1.273 3.316-3.548 3.268-5.979.129-2.43-1.201-4.703-3.382-5.781-3.717-1.671-7.63-2.869-11.646-3.565-4.288-.645-8.357-2.318-11.859-4.876-2.403-2.084-3.726-5.148-3.596-8.326-.065-3.762 1.676-7.328 4.683-9.59 3.588-2.646 7.98-3.969 12.432-3.747 4.677-.225 9.296 1.104 13.139 3.778 3.338 2.534 5.295 6.487 5.287 10.678h-6.203c-.635-5.825-4.624-8.737-11.969-8.737-2.888-.172-5.761.526-8.248 2.003-1.842 1.138-2.952 3.159-2.924 5.323-.099 1.825.8 3.56 2.347 4.532 2.754 1.426 5.715 2.412 8.773 2.924 3.456.713 6.863 1.646 10.199 2.794 2.471.888 4.692 2.359 6.473 4.288 1.876 2.154 2.842 4.953 2.695 7.806.056 4.022-1.773 7.838-4.944 10.314-3.67 2.855-8.241 4.304-12.887 4.086z"/></g></g></svg>