<svg id="Capa_1" enable-background="new 0 0 512 512" height="512" viewBox="0 0 512 512" width="512" xmlns="http://www.w3.org/2000/svg"><g><g><path d="m316.19 345.531c-8.284 0-15-6.716-15-15v-199.581c0-72.206 58.744-130.95 130.95-130.95 8.284 0 15 6.716 15 15s-6.716 15-15 15c-55.664 0-100.95 45.286-100.95 100.95v199.581c0 8.284-6.716 15-15 15z" fill="#4e6ba6"/></g><g><path d="m331.19 315.53v61.834c0 73.478-58.897 134.202-132.374 134.634-73.784.434-133.956-59.473-133.956-133.168v-48.3c0-8.284 6.716-15 15-15z" fill="#8dc2eb"/></g><path d="m331.19 378.83c0 73.43-59.74 133.17-133.17 133.17v-196.47h133.17z" fill="#5e9ff6"/><path d="m160.118 194.747c-6.075-7.569-7.469-14.772-4.387-22.669 2.745-7.033 7.958-11.9 8.01-11.949l-.093.084s11.011-11.841.834-21.589-20.799-.803-20.799-.803c-.997.889-9.892 9.052-15.312 21.902-7.737 18.348-4.771 37.455 8.352 53.803 6.493 8.089 8.557 16.433 6.312 25.511-1.882 7.607-6.138 12.934-6.181 12.987l.091-.11.027.022c-1 .752-9.015 12.358 2.938 21.838 9.716 7.705 19.987-2.541 19.987-2.541 10.909-12.96 24.995-45.624.221-76.486z" fill="#eef4ff"/><path d="m240.118 194.747c-6.075-7.569-7.469-14.772-4.387-22.669 2.745-7.033 7.958-11.9 8.01-11.949l-.093.084s11.011-11.841.834-21.589-20.799-.803-20.799-.803c-.997.889-9.892 9.052-15.312 21.902-7.737 18.348-4.771 37.455 8.352 53.803 6.493 8.089 8.557 16.433 6.312 25.511-1.882 7.607-6.138 12.934-6.181 12.987l.091-.11.027.022c-1 .752-9.015 12.358 2.938 21.838 9.716 7.705 19.987-2.541 19.987-2.541 10.909-12.96 24.995-45.624.221-76.486z" fill="#d9e6fc"/></g></svg>