<?xml version="1.0" encoding="iso-8859-1"?>
<!-- Generator: Adobe Illustrator 19.0.0, SVG Export Plug-In . SVG Version: 6.00 Build 0)  -->
<svg version="1.1" id="Capa_1" xmlns="http://www.w3.org/2000/svg" xmlns:xlink="http://www.w3.org/1999/xlink" x="0px" y="0px"
	 viewBox="0 0 490.669 490.669" style="enable-background:new 0 0 490.669 490.669;" xml:space="preserve">
<path style="fill:#49AAEE;" d="M426.668,192.003L245.335,309.336L64.001,192.003V10.669C63.876,4.903,68.449,0.128,74.215,0.003
	c0.151-0.003,0.302-0.003,0.453,0h341.333c5.766-0.125,10.542,4.448,10.667,10.214c0.003,0.151,0.003,0.302,0,0.453V192.003z"/>
<g>
	<path style="fill:#F6B445;" d="M64.001,192.003l-64-42.667l64-64V192.003z"/>
	<path style="fill:#F6B445;" d="M490.668,149.336l-64,42.667V85.336L490.668,149.336z"/>
</g>
<path style="fill:#FED049;" d="M426.668,191.043l64-41.707v298.667c-0.02,11.314-4.505,22.162-12.48,30.187l-72.853-72.853
	L288.001,288.003l-2.987-4.587L426.668,191.043z"/>
<path style="fill:#F6B445;" d="M405.335,405.336l72.853,72.853c-8.025,7.975-18.873,12.46-30.187,12.48H42.668
	c-11.314-0.02-22.162-4.505-30.187-12.48l72.853-72.853l117.333-117.333l2.987-4.587l39.68,25.92l39.68-25.92l2.987,4.587
	L405.335,405.336z"/>
<g>
	<path style="fill:#FED049;" d="M205.655,283.416l-2.987,4.587L85.335,405.336l-72.853,72.853
		c-7.975-8.025-12.46-18.873-12.48-30.187V149.336L205.655,283.416z"/>
	<circle style="fill:#FED049;" cx="170.668" cy="53.336" r="32"/>
</g>
<path style="fill:#2EBC70;" d="M405.335,202.669l1.067,1.6l-51.307,33.493l-99.093-99.093l42.667-42.667L405.335,202.669z"/>
<path style="fill:#35DC86;" d="M355.095,237.763l-109.76,71.573l-148.48-96.853l31.147-31.147l85.333-85.333l42.667,42.667
	L355.095,237.763z"/>
<g>
</g>
<g>
</g>
<g>
</g>
<g>
</g>
<g>
</g>
<g>
</g>
<g>
</g>
<g>
</g>
<g>
</g>
<g>
</g>
<g>
</g>
<g>
</g>
<g>
</g>
<g>
</g>
<g>
</g>
</svg>
