<svg id="Capa_1" enable-background="new 0 0 512 512" height="512" viewBox="0 0 512 512" width="512" xmlns="http://www.w3.org/2000/svg"><g><g><path d="m354.422 0h-267.369l-4.37 9.298v57.69l-10.56 9.272h-30.905v427.268l9.338 8.472h303.866c8.076 0 14.623-6.547 14.623-14.624v-482.753c.001-8.076-6.547-14.623-14.623-14.623z" fill="#ecf4ff"/><path d="m44.041 497.376v-421.116h-20.336l-17.408 4.496v416.621c0 8.076 6.547 14.623 14.624 14.623h37.744c-8.077 0-14.624-6.547-14.624-14.624z" fill="#cbe2ff"/><path d="m46.675 74.714v6.041h25.754c8.076 0 14.623-6.547 14.623-14.623v-25.754l-8.748 2.143z" fill="#cbe2ff"/><path d="m87.053 0-80.756 80.756h40.378l40.378-40.378z" fill="#9dc6fb"/></g><g><path d="m313.269 141.993h-247.01c-4.267 0-7.726-3.459-7.726-7.726 0-4.268 3.459-7.726 7.726-7.726h247.009c4.267 0 7.726 3.459 7.726 7.726.001 4.267-3.458 7.726-7.725 7.726z" fill="#9dc6fb"/></g><g><path d="m313.269 181.256h-247.01c-4.267 0-7.726-3.459-7.726-7.726s3.459-7.726 7.726-7.726h247.009c4.267 0 7.726 3.459 7.726 7.726s-3.458 7.726-7.725 7.726z" fill="#9dc6fb"/></g><g><path d="m313.269 220.517h-247.01c-4.267 0-7.726-3.459-7.726-7.726 0-4.268 3.459-7.726 7.726-7.726h247.009c4.267 0 7.726 3.459 7.726 7.726.001 4.267-3.458 7.726-7.725 7.726z" fill="#9dc6fb"/></g><g><path d="m313.269 259.78h-247.01c-4.267 0-7.726-3.459-7.726-7.726s3.459-7.726 7.726-7.726h247.009c4.267 0 7.726 3.459 7.726 7.726s-3.458 7.726-7.725 7.726z" fill="#9dc6fb"/></g><g><path d="m313.269 299.041h-247.01c-4.267 0-7.726-3.459-7.726-7.726s3.459-7.726 7.726-7.726h247.009c4.267 0 7.726 3.459 7.726 7.726s-3.458 7.726-7.725 7.726z" fill="#9dc6fb"/></g><g><path d="m313.269 338.303h-247.01c-4.267 0-7.726-3.459-7.726-7.726s3.459-7.726 7.726-7.726h247.009c4.267 0 7.726 3.459 7.726 7.726s-3.458 7.726-7.725 7.726z" fill="#9dc6fb"/></g><g><path d="m261.621 416.827h-51.648c-4.267 0-7.726-3.459-7.726-7.726s3.459-7.726 7.726-7.726h51.648c4.267 0 7.726 3.459 7.726 7.726s-3.459 7.726-7.726 7.726z" fill="#9dc6fb"/></g><g><path d="m313.269 456.09h-103.296c-4.267 0-7.726-3.459-7.726-7.726s3.459-7.726 7.726-7.726h103.296c4.267 0 7.726 3.459 7.726 7.726s-3.459 7.726-7.726 7.726z" fill="#80b4fb"/></g><path d="m327.372 362.225 15.573 7.526 4.599-1.142 122.017-258.512-17.857-8.428z" fill="#9dc6fb"/><path d="m330.035 363.512 123.239-261.102-17.25-8.142-122.017 258.512 2.024 3.965z" fill="#80b4fb"/><path d="m469.561 64.248-17.856 37.421 17.856 8.428 12.13-25.699c3.252-6.89 1.884-14.767-2.84-20.151h-9.29z" fill="#80b4fb"/><path d="m464.93 77.161c2.918-6.183 8.005-10.642 13.92-12.913-1.625-1.852-3.643-3.413-6.013-4.532-9.261-4.371-20.312-.407-24.683 8.853l-12.13 25.699 17.036 8.041z" fill="#5490f9"/><g><path d="m439.047 256.075c-1.105 0-2.227-.238-3.293-.741-3.859-1.821-5.511-6.426-3.689-10.285l55.624-117.85-64.281-30.341c-3.859-1.821-5.511-6.426-3.689-10.285 1.821-3.86 6.427-5.511 10.285-3.689l71.269 33.639c3.859 1.821 5.511 6.426 3.69 10.285l-58.923 124.837c-1.319 2.793-4.096 4.43-6.993 4.43z" fill="#ecf4ff"/></g><path d="m308.691 401.374.123 7.096c3.171 1.271 7.076.715 9.686-2.631l29.043-37.23-18.95-8.944z" fill="#80b4fb"/><path d="m308.814 408.471 22.443-47.549-17.25-8.142-10.282 46.086c-1.02 4.573 1.588 8.202 5.089 9.605z" fill="#5490f9"/></g></svg>