<?xml version="1.0" encoding="iso-8859-1"?>
<!-- Generator: Adobe Illustrator 19.0.0, SVG Export Plug-In . SVG Version: 6.00 Build 0)  -->
<svg version="1.1" id="Capa_1" xmlns="http://www.w3.org/2000/svg" xmlns:xlink="http://www.w3.org/1999/xlink" x="0px" y="0px"
	 viewBox="0 0 512 512" style="enable-background:new 0 0 512 512;" xml:space="preserve">
<polygon style="fill:#00E1DE;" points="512,133.144 459.728,185.417 432.077,196.574 413.826,203.938 405.358,212.416 
	387.981,229.783 366.701,251.064 328.043,289.721 277.496,239.164 231.876,193.544 402.138,23.282 450.006,71.149 "/>
<path style="fill:#DECCBC;" d="M342.601,261.698L183.386,420.924c-66.369,66.359-151.741,67.794-158.825,67.794H24.21l-2.91-0.03
	L0,488.497l55.985-111.016l201.194-201.194l41.879,41.879L342.601,261.698z"/>
<rect x="276.085" y="147.44" transform="matrix(-0.7071 0.7071 -0.7071 -0.7071 660.7104 189.3726)" style="fill:#A17852;" width="30.099" height="168.167"/>
<path style="fill:#C8AD92;" d="M342.601,261.698L183.386,420.924c-66.369,66.359-151.741,67.794-158.825,67.794H24.21l-2.91-0.03
	l277.757-270.523L342.601,261.698z"/>
<polygon style="fill:#00B3B8;" points="512,133.144 459.728,185.417 432.077,196.574 413.826,203.938 405.358,212.416 
	387.981,229.783 366.701,251.064 328.043,289.721 277.496,239.164 450.006,71.149 "/>
<polygon style="fill:#715539;" points="361.233,280.34 339.952,301.62 277.496,239.164 299.058,218.165 "/>
<g>
	
		<rect x="341.078" y="189.228" transform="matrix(-0.7071 0.7071 -0.7071 -0.7071 762.9562 122.4049)" style="fill:#A17852;" width="30.099" height="59.977"/>
	<polygon style="fill:#A17852;" points="432.077,196.574 413.826,203.938 405.358,212.416 362.949,170.006 384.229,148.715 	"/>
</g>
<g>
</g>
<g>
</g>
<g>
</g>
<g>
</g>
<g>
</g>
<g>
</g>
<g>
</g>
<g>
</g>
<g>
</g>
<g>
</g>
<g>
</g>
<g>
</g>
<g>
</g>
<g>
</g>
<g>
</g>
</svg>
