<svg id="Capa_1" enable-background="new 0 0 512 512" height="512" viewBox="0 0 512 512" width="512" xmlns="http://www.w3.org/2000/svg"><g><path d="m154.862 448.123h-63.877v-49.775c0-40.21 25.73-75.909 63.877-88.624l20.016 74.522z" fill="#a0a0a5"/><path d="m357.138 448.123h63.877v-49.775c0-40.21-25.73-75.909-63.877-88.624l-20.016 74.523z" fill="#7d8287"/><path d="m256 512h69.2v-31.939l-89.216-20.016z" fill="#d2d2d7"/><path d="m186.8 480.061v31.939h69.2v-51.955z" fill="#ebebf0"/><path d="m235.984 428.107 20.016 51.954h69.2v-31.938z" fill="#a0a0a5"/><path d="m256 428.107-69.2 20.016v31.938h69.2z" fill="#d2d2d7"/><path d="m256 0-20.016 190.48 121.154-20.016v-32.464c0-63.137-40.932-118.987-101.138-138z" fill="#e50058"/><path d="m256 0c-60.206 19.013-101.138 74.863-101.138 138v32.464l101.138 20.016z" fill="#ff5b5b"/><path d="m235.984 404.262 121.154-20.016v-213.782h-101.138z" fill="#d2d2d7"/><path d="m256 170.464h-101.138v213.782l101.138 20.016z" fill="#ebebf0"/><path d="m235.984 428.107 35.016 20.016h86.138v-63.877h-101.138z" fill="#ebebf0"/><path d="m154.862 384.246v63.877h86.138l15-20.016v-43.861z" fill="#fff5f5"/><path d="m241 309.723h30v138.4h-30z" fill="#7d8287"/><path d="m308.261 170.464c0-28.817-23.444-52.262-52.261-52.262l-20.016 52.262 20.016 52.262c28.817-.001 52.261-23.445 52.261-52.262z" fill="#ebebf0"/><path d="m256 118.202c-28.817 0-52.261 23.444-52.261 52.262s23.444 52.262 52.261 52.262z" fill="#fff5f5"/><path d="m278.262 170.464c0-12.275-9.987-22.262-22.262-22.262l-10.008 22.262 10.008 22.262c12.275 0 22.262-9.987 22.262-22.262z" fill="#6aa9ff"/><path d="m256 148.202c-12.275 0-22.261 9.986-22.261 22.262s9.986 22.262 22.261 22.262z" fill="#b3d8f4"/></g></svg>