<svg id="Capa_1" enable-background="new 0 0 503.523 503.523" height="512" viewBox="0 0 503.523 503.523" width="512" xmlns="http://www.w3.org/2000/svg"><g id="XMLID_414_"><path id="XMLID_479_" d="m62.161 377.722-59.838 59.838c-1.487 1.487-2.323 3.505-2.323 5.608s.836 4.121 2.323 5.608l26.212 26.211 41.863-26.362 18.143-33.645-5.271-26.734z" fill="#5ac848"/><path id="XMLID_474_" d="m351.41 31.944c-53.961 27.715-116.396 71.785-162.94 115.015l-.432.401-9.198 177.324 191.809-174.868 119.105-136.048c-23.182-23.184-69.729-17.065-138.344 18.176z" fill="#ffe65b"/><path id="XMLID_465_" d="m54.747 501.2c1.487 1.487 3.504 2.323 5.607 2.323 2.104 0 4.121-.836 5.608-2.323l59.838-59.838-9.662-19.746-27.597-6.635-60.006 60.007z" fill="#00bb74"/><path id="XMLID_464_" d="m489.754 13.768-310.915 310.916 177.324-9.198.401-.433c43.229-46.544 87.3-108.98 115.015-162.939 35.243-68.618 41.358-115.164 18.175-138.346z" fill="#ffc000"/><g id="XMLID_449_"><g><path id="XMLID_221_" d="m331.542 113.603h30v30h-30z" fill="#ffc000" transform="matrix(.707 -.707 .707 .707 10.563 282.708)"/></g></g><g id="XMLID_447_"><g><path id="XMLID_225_" d="m331.1 189.924h30v30h-30z" fill="#fea832" transform="matrix(.707 -.707 .707 .707 -43.535 304.74)"/></g></g><g id="XMLID_444_"><g><path id="XMLID_220_" d="m267.461 163.636h30v30h-30z" fill="#ffc000" transform="matrix(.707 -.707 .707 .707 -43.584 252.051)"/></g></g><path id="XMLID_443_" d="m406.969 75.339-21.213 21.214 10.607 10.607 16.272-5.303 4.941-15.91z" fill="#ffc000"/><path id="XMLID_442_" d="m397.273 94.356h30v15.001h-30z" fill="#fea832" transform="matrix(.707 -.707 .707 .707 48.73 321.356)"/><path id="XMLID_426_" d="m204.126 168.852c-28.724-50.006-91.07-69.52-143.178-44.813l-21.799 10.337 29.517 14.758c18.682 9.341 30.483 28.436 30.483 49.322 0 9.605-3.815 18.815-10.607 25.607-52.721 52.721-52.721 138.197 0 190.918l50.89-29.557 39.408-60.741c41.086-41.089 51.272-103.858 25.286-155.831z" fill="#a0d94c"/><path id="XMLID_422_" d="m334.671 299.397c-51.973-25.986-114.743-15.8-155.832 25.287l.001-.001-90.298 90.298c52.721 52.722 138.198 52.722 190.919 0 6.791-6.791 16.002-10.605 25.606-10.605 20.887 0 39.982 11.801 49.323 30.482l14.758 29.518 10.336-21.8c24.707-52.109 5.193-114.455-44.813-143.179z" fill="#5ac848"/></g></svg>