<?xml version="1.0" encoding="iso-8859-1"?>
<!-- Generator: Adobe Illustrator 19.0.0, SVG Export Plug-In . SVG Version: 6.00 Build 0)  -->
<svg xmlns="http://www.w3.org/2000/svg" xmlns:xlink="http://www.w3.org/1999/xlink" version="1.1" id="Capa_1" x="0px" y="0px" viewBox="0 0 511.992 511.992" style="enable-background:new 0 0 511.992 511.992;" xml:space="preserve">
<rect x="204.152" y="331.764" style="fill:#8BA0AE;" width="103.688" height="88.08"/>
<rect x="204.152" y="286.26" style="fill:#FFD07D;" width="103.688" height="45.456"/>
<rect x="191.096" y="360.132" width="129.808" height="31.304"/>
<circle style="fill:#FFD07D;" cx="256" cy="194.132" r="115.424"/>
<g>
	<rect x="206.44" y="139.812" style="fill:#FFFFFF;" width="99.128" height="16"/>
	<rect x="206.44" y="186.116" style="fill:#FFFFFF;" width="99.128" height="16"/>
	<rect x="206.44" y="232.452" style="fill:#FFFFFF;" width="99.128" height="16"/>
</g>
<path style="fill:#666666;" d="M256,0.052c-0.032,0-0.064,0-0.096,0c-0.008,0-0.024,0-0.032,0c-0.016,0-0.048,0-0.064,0  c-0.016,0-0.024,0-0.04,0c-0.016,0-0.04,0-0.064,0c-0.008,0-0.024,0-0.032,0c-0.024,0-0.04,0-0.072,0c-0.008,0-0.016,0-0.032,0  c-0.032,0-0.056,0-0.096,0c-0.008,0-0.016,0-0.024,0c-0.024,0-0.048,0-0.072,0c-0.008,0-0.024,0-0.032,0c-0.016,0-0.048,0-0.064,0  c-0.008,0-0.024,0-0.032,0c-0.016,0-0.048,0-0.064,0c-0.008,0-0.024,0-0.032,0c-0.024,0-0.048,0-0.072,0c-0.008,0-0.016,0-0.024,0  c-0.032,0-0.064,0-0.096,0c-0.008,0-0.016,0-0.016,0c-0.032,0-0.056,0-0.08,0c-0.008,0-0.024,0-0.032,0c-0.016,0-0.048,0-0.064,0  c-0.008,0-0.024,0-0.032,0c-0.016,0-0.056,0-0.072,0c-0.008,0-0.016,0-0.024,0c-0.072,0-0.128,0-0.192,0c-0.008,0-0.024,0-0.032,0  c-0.016,0-0.048,0-0.064,0c-0.016,0-0.024,0-0.04,0c-0.016,0-0.048,0-0.064,0c-0.008,0-0.024,0-0.032,0c-0.032,0-0.048,0-0.08,0  c-0.008,0-0.008,0-0.016,0c-0.032,0-0.064,0-0.096,0h-0.008c-0.032,0-0.056,0-0.088,0c-0.008,0-0.016,0-0.024,0  c-0.016,0-0.056,0-0.072,0c-0.008,0-0.024,0-0.032,0c-0.016,0-0.056,0-0.072,0c-0.008,0-0.016,0-0.024,0c-0.072,0-0.128,0-0.192,0  c0,0-0.016,0-0.024,0c-0.024,0-0.056,0-0.08,0c-0.008,0-0.016,0-0.024,0c-0.032,0-0.048,0-0.08,0c-0.008,0-0.016,0-0.016,0  c-0.032,0-0.056,0-0.088,0h-0.008c-0.072,0-0.136,0-0.2,0c-0.008,0-0.016,0-0.016,0c-0.04,0-0.056,0-0.088,0c0,0-0.016,0-0.024,0  c-0.032,0-0.048,0-0.08,0c-0.008,0-0.008,0-0.008,0c-0.04,0-0.064,0-0.096,0h-0.008c-0.032,0-0.064,0-0.104,0l0,0  c-0.032,0-0.064,0-0.096,0h-0.016c-0.032,0-0.048,0-0.08,0c-0.008,0-0.016,0-0.024,0c-0.032,0-0.048,0-0.08,0  c-0.008,0-0.008,0-0.016,0c-0.072,0-0.136,0-0.2,0c0,0,0,0-0.008,0c-0.032,0-0.056,0-0.088,0c-0.008,0-0.008,0-0.016,0  c-0.032,0-0.048,0-0.08,0c0,0-0.008,0-0.016,0c-0.104,0-0.2,0-0.304,0.008h-0.008c-0.032,0-0.056,0-0.096,0  c-0.008,0-0.008,0-0.008,0c-0.04,0-0.064,0-0.096,0l0,0c-0.104,0-0.2,0-0.304,0.008h-0.008c-0.032,0-0.056,0-0.096,0l0,0  c-5.552,0.104-11.056,0.392-16.52,0.848l0.664,7.976c6.92-0.544,13.96-0.84,20.928-0.84V0.052L256,0.052L256,0.052z M213,3.652  c-5.272,0.888-10.496,1.944-15.648,3.152h-0.008c-0.024,0.008-0.048,0.008-0.064,0.016c-0.008,0-0.016,0-0.024,0.008  c-0.016,0.008-0.04,0.008-0.056,0.016c-0.016,0-0.016,0.008-0.032,0.008c-0.024,0-0.048,0-0.064,0.008  c-0.008,0-0.032,0.008-0.04,0.008c-0.016,0-0.032,0.008-0.048,0.008c-0.032,0.008-0.048,0.016-0.08,0.016  c-0.008,0-0.024,0.008-0.032,0.008c-0.024,0.008-0.032,0.008-0.056,0.016c-0.008,0-0.024,0.008-0.032,0.008  c-0.016,0-0.04,0.008-0.056,0.016c-0.008,0-0.024,0.008-0.032,0.008c-0.016,0-0.04,0.008-0.056,0.016  c-0.008,0-0.024,0.008-0.032,0.008c-0.016,0-0.048,0.016-0.064,0.016c-0.008,0-0.016,0-0.024,0.008  c-0.096,0.024-0.184,0.048-0.28,0.064l0,0c-1.464,0.352-2.92,0.712-4.376,1.088l2,7.744c6.72-1.736,13.6-3.2,20.456-4.36L213,3.652  L213,3.652z M171.216,14.428c-2.824,0.992-5.624,2.032-8.4,3.112l-0.008,0.008c-0.024,0.008-0.048,0.016-0.072,0.024  c-0.008,0,0,0-0.008,0c-0.024,0.008-0.048,0.016-0.072,0.024l-0.016,0.008c-0.064,0.024-0.136,0.056-0.2,0.08  c-0.008,0-0.016,0.008-0.024,0.008c-0.016,0.008-0.032,0.016-0.048,0.016c-0.008,0-0.032,0.016-0.04,0.016  c-0.016,0.008-0.032,0.016-0.048,0.016c-0.016,0.008-0.024,0.008-0.032,0.016c-0.016,0.008-0.032,0.016-0.048,0.016  c-0.016,0.008-0.016,0.008-0.032,0.016c-0.016,0.008-0.032,0.016-0.056,0.024c-0.008,0-0.024,0.008-0.032,0.016  c-0.016,0.008-0.032,0.008-0.048,0.016c-0.024,0.008-0.032,0.016-0.056,0.024c-0.016,0.008-0.032,0.008-0.04,0.016  c-0.024,0.008-0.048,0.016-0.072,0.024c-0.008,0-0.016,0.008-0.024,0.008c-0.024,0.008-0.04,0.016-0.064,0.024  c-0.008,0-0.016,0.008-0.024,0.008c-0.024,0.008-0.04,0.016-0.064,0.024c-0.008,0-0.016,0.008-0.024,0.008  c-0.016,0.008-0.048,0.024-0.064,0.024c-0.008,0-0.016,0.008-0.024,0.008c-0.032,0.008-0.048,0.016-0.08,0.032h-0.008  c-0.096,0.04-0.184,0.072-0.272,0.112l0,0c-0.064,0.024-0.12,0.048-0.184,0.072l0,0c-3.328,1.328-6.616,2.728-9.88,4.192l3.28,7.296  c6.336-2.848,12.872-5.456,19.424-7.76L171.216,14.428L171.216,14.428z M131.864,32.108c-2.032,1.128-4.04,2.28-6.04,3.464l0,0  c-0.024,0.016-0.048,0.032-0.08,0.048c0,0-0.008,0-0.008,0.008c-0.024,0.016-0.048,0.032-0.08,0.048l0,0  c-0.112,0.064-0.224,0.128-0.328,0.2l0,0c-0.024,0.016-0.048,0.032-0.08,0.048c0,0-0.008,0-0.008,0.008  c-0.024,0.016-0.048,0.024-0.072,0.04l-0.016,0c-0.024,0.016-0.048,0.032-0.08,0.048l0,0c-0.112,0.064-0.216,0.128-0.328,0.2h-0.008  c-0.032,0.016-0.048,0.024-0.072,0.04c-0.008,0-0.016,0.008-0.016,0.008c-0.016,0.008-0.048,0.024-0.056,0.032  c-0.008,0.008-0.016,0.008-0.024,0.016c-0.024,0.016-0.04,0.024-0.064,0.04c-0.008,0-0.008,0.008-0.016,0.008  c-0.024,0.016-0.04,0.024-0.072,0.04l-0.008,0.008c-0.056,0.032-0.104,0.064-0.16,0.096l-0.008,0.008  c-0.024,0.016-0.04,0.024-0.064,0.04c-0.008,0.008-0.016,0.008-0.024,0.016c-0.016,0.008-0.04,0.024-0.056,0.032  c-0.008,0.008-0.024,0.008-0.032,0.016c-0.016,0.008-0.032,0.024-0.048,0.032c-0.008,0.008-0.016,0.008-0.032,0.016  s-0.04,0.024-0.048,0.032c-0.008,0.008-0.024,0.016-0.032,0.016c-0.016,0.008-0.04,0.024-0.048,0.032  c-0.008,0.008-0.016,0.008-0.024,0.016c-0.024,0.016-0.048,0.032-0.072,0.048l0,0c-0.024,0.016-0.048,0.032-0.08,0.048  c-0.008,0-0.016,0.008-0.016,0.008c-0.016,0.008-0.04,0.024-0.056,0.032c-0.008,0.008-0.024,0.016-0.04,0.024  s-0.024,0.016-0.04,0.024s-0.024,0.016-0.04,0.024s-0.024,0.016-0.04,0.024s-0.024,0.016-0.04,0.024s-0.024,0.016-0.032,0.024  c-0.016,0.008-0.032,0.016-0.048,0.032c-0.008,0.008-0.016,0.008-0.016,0.008c-0.064,0.04-0.128,0.072-0.184,0.112  c-0.016,0.008-0.016,0.008-0.024,0.016c-0.016,0.008-0.032,0.016-0.048,0.032c-0.008,0.008-0.024,0.016-0.032,0.016  c-0.016,0.008-0.032,0.016-0.048,0.032c-0.008,0.008-0.024,0.016-0.024,0.016c-0.016,0.008-0.032,0.024-0.048,0.032  c-0.016,0.008-0.008,0.008-0.024,0.016s-0.032,0.024-0.048,0.032c-0.008,0.008-0.016,0.008-0.024,0.016  c-0.016,0.008-0.032,0.024-0.056,0.032c-0.008,0.008-0.008,0.008-0.016,0.008c-0.024,0.016-0.04,0.024-0.056,0.04l0,0  c-0.048,0.032-0.096,0.056-0.144,0.088c-0.008,0.008,0.008,0,0,0c-0.016,0.008-0.04,0.024-0.056,0.04  c-0.008,0.008-0.008,0.008-0.016,0.008c-0.016,0.008-0.04,0.024-0.056,0.032c-0.008,0.008-0.008,0.008-0.016,0.008  c-0.016,0.016-0.04,0.024-0.056,0.04l-0.016,0.008c-0.024,0.016-0.04,0.024-0.064,0.04c-0.008,0.008-0.008,0-0.008,0.008  c-2.968,1.824-5.896,3.704-8.784,5.648l4.464,6.64c5.768-3.872,11.776-7.552,17.84-10.92L131.864,32.108L131.864,32.108z   M96.04,56.172c-0.008,0.008-0.024,0.024-0.032,0.024c-0.016,0.016-0.04,0.032-0.056,0.048c-0.032,0.024-0.048,0.04-0.08,0.064  c-0.016,0.016-0.04,0.032-0.056,0.048c-0.024,0.024-0.048,0.04-0.072,0.064c-0.024,0.016-0.04,0.032-0.064,0.048  c-0.016,0.016-0.032,0.024-0.056,0.04c-0.032,0.024-0.056,0.048-0.088,0.072c-0.016,0.016-0.032,0.024-0.048,0.04  c-0.024,0.024-0.056,0.048-0.08,0.064c-0.016,0.008-0.04,0.032-0.048,0.04c-0.024,0.016-0.048,0.04-0.072,0.056  c-0.016,0.016-0.032,0.024-0.056,0.04c-0.024,0.024-0.056,0.04-0.08,0.064c-0.016,0.016-0.024,0.024-0.04,0.032  c-0.032,0.024-0.064,0.048-0.096,0.072c-0.016,0.008-0.032,0.024-0.048,0.04c-0.032,0.024-0.064,0.048-0.096,0.08  c-0.016,0.008-0.024,0.024-0.04,0.032c-0.024,0.024-0.056,0.048-0.08,0.064c-0.016,0.008-0.032,0.024-0.048,0.04  c-0.032,0.024-0.056,0.048-0.088,0.072c-0.016,0.008-0.024,0.016-0.04,0.032c-0.032,0.024-0.064,0.056-0.096,0.08  c-0.016,0.008-0.024,0.016-0.04,0.032c-0.032,0.032-0.072,0.056-0.104,0.088c-0.016,0.008-0.016,0.008-0.024,0.024  c-0.032,0.024-0.064,0.056-0.096,0.08c-0.016,0-0.016,0-0.024,0.016c-0.032,0.024-0.072,0.056-0.104,0.08  c-0.008,0.008-0.024,0.016-0.024,0.024c-0.032,0.032-0.072,0.056-0.104,0.088c-0.016,0.008-0.024,0.016-0.032,0.024  c-0.032,0.032-0.072,0.056-0.104,0.088c-0.008,0.008-0.016,0.016-0.024,0.024c-0.032,0.032-0.072,0.056-0.104,0.088  c-0.008,0.008-0.008,0.008-0.016,0.016c-0.032,0.032-0.072,0.056-0.104,0.088c-0.008,0.008-0.016,0.016-0.024,0.016  c-0.04,0.032-0.072,0.064-0.112,0.088c-0.016,0.008-0.016,0.008-0.024,0.024c-0.04,0.032-0.072,0.064-0.112,0.088  c-0.008,0.008-0.008,0.008-0.016,0.016c-0.08,0.064-0.16,0.136-0.24,0.2l-0.008,0.008c-0.04,0.032-0.08,0.064-0.12,0.096  c-0.008,0.008-0.016,0.008-0.016,0.016c-0.04,0.032-0.08,0.064-0.112,0.096c-0.008,0.008-0.008,0.008-0.016,0.016  c-0.04,0.032-0.08,0.064-0.12,0.096l0,0c-0.04,0.032-0.08,0.072-0.128,0.104l0,0c-0.04,0.032-0.08,0.064-0.12,0.104  c-0.008,0.008-0.008,0.008-0.016,0.008c-0.04,0.032-0.08,0.064-0.12,0.104c-0.008,0.008,0,0-0.008,0.008  c-0.128,0.104-0.256,0.208-0.376,0.32c-0.008,0.008,0,0-0.008,0.008c-0.04,0.032-0.08,0.072-0.12,0.104c0,0,0,0-0.008,0.008  c-0.128,0.104-0.256,0.216-0.384,0.32l0,0c-3.184,2.68-6.304,5.432-9.352,8.264l-0.032-0.008c-0.04,0.04-0.08,0.072-0.12,0.112  l-0.008,0.008c-0.04,0.032-0.08,0.072-0.12,0.104l-0.008,0.008c-0.08,0.072-0.152,0.144-0.232,0.216l-0.016,0.008  c-0.04,0.032-0.072,0.072-0.112,0.104c-0.008,0.008-0.008,0.008-0.016,0.016c-0.032,0.032-0.072,0.064-0.104,0.096  c-0.008,0.008-0.016,0.016-0.016,0.016c-0.04,0.04-0.072,0.072-0.112,0.104c0,0.008,0,0.016-0.008,0.016  c-0.032,0.032-0.064,0.064-0.096,0.096c-0.008,0.008-0.016,0.016-0.024,0.024c-0.032,0.032-0.064,0.064-0.096,0.088  c-0.008,0.008-0.024,0.024-0.032,0.032c-0.032,0.032-0.064,0.056-0.096,0.088c-0.008,0.008-0.024,0.024-0.04,0.032  c-0.024,0.024-0.056,0.048-0.08,0.072c-0.008,0.008-0.032,0.032-0.04,0.04c-0.024,0.024-0.048,0.048-0.072,0.072  c-0.008,0.008-0.024,0.024-0.04,0.032c-0.032,0.024-0.056,0.056-0.088,0.08c-0.008,0.008-0.032,0.032-0.048,0.04  c-0.024,0.024-0.056,0.048-0.08,0.08c-0.016,0.016-0.032,0.032-0.048,0.048s-0.032,0.032-0.056,0.048  c-0.032,0.024-0.048,0.048-0.08,0.072c-0.016,0.016-0.032,0.032-0.048,0.04c-0.032,0.024-0.056,0.056-0.088,0.08  c-0.008,0.032-0.024,0.04-0.04,0.056s-0.04,0.04-0.056,0.056c-0.008,0.008-0.008,0.008-0.016,0.016  c-0.024,0.024-0.056,0.056-0.08,0.08l5.504,5.8c5.04-4.784,10.344-9.416,15.768-13.76L96.04,56.172L96.04,56.172z M64.744,85.876  c-1.736,1.944-3.44,3.928-5.12,5.928l0,0.008c-0.04,0.048-0.072,0.088-0.12,0.136c0,0,0,0.008-0.008,0.008  c-0.064,0.072-0.12,0.144-0.184,0.216l-0.008,0.008c-0.032,0.04-0.072,0.088-0.104,0.128c-0.008,0.008-0.016,0.016-0.024,0.032  c-0.032,0.04-0.064,0.072-0.088,0.112c-0.008,0.008-0.016,0.024-0.024,0.032c-0.024,0.032-0.064,0.072-0.088,0.104  c-0.008,0.016-0.024,0.024-0.032,0.04c-0.024,0.024-0.032,0.04-0.056,0.064c-0.016,0.016-0.024,0.032-0.032,0.04  c-0.024,0.032-0.056,0.064-0.08,0.096c-0.016,0.016-0.024,0.032-0.04,0.048c-0.024,0.024-0.056,0.064-0.072,0.088  c-0.016,0.016-0.024,0.032-0.04,0.048c-0.024,0.024-0.04,0.048-0.056,0.072s-0.04,0.048-0.056,0.072  c-0.008,0.016-0.032,0.04-0.04,0.048c-0.024,0.032-0.048,0.056-0.072,0.088c-0.016,0.016-0.024,0.032-0.04,0.048  c-0.016,0.024-0.032,0.04-0.056,0.064s-0.04,0.048-0.056,0.072s-0.032,0.04-0.056,0.064c-0.016,0.016-0.032,0.04-0.048,0.056  c-0.024,0.024-0.048,0.056-0.064,0.08c-0.008,0.016-0.032,0.04-0.04,0.048c-0.024,0.032-0.048,0.056-0.072,0.088  c-0.016,0.016-0.024,0.024-0.04,0.048c-0.016,0.024-0.04,0.048-0.056,0.072c-0.016,0.016-0.032,0.04-0.048,0.064  s-0.04,0.048-0.056,0.064c-0.008,0.016-0.024,0.032-0.04,0.048c-0.024,0.032-0.048,0.064-0.072,0.096  c-0.008,0.016-0.024,0.032-0.04,0.048c-0.024,0.032-0.048,0.064-0.08,0.096c-0.016,0.008-0.016,0.008-0.032,0.024  c-0.024,0.032-0.048,0.064-0.072,0.088c-0.016,0.016-0.016,0.024-0.032,0.04c-0.024,0.024-0.048,0.056-0.064,0.08  c-0.008,0.016-0.016,0.024-0.032,0.032c-0.024,0.032-0.056,0.064-0.08,0.104c-0.008,0.016-0.016,0.024-0.032,0.032  c-0.024,0.032-0.056,0.064-0.08,0.104c-0.008,0.008-0.024,0.024-0.024,0.032c-0.032,0.032-0.056,0.072-0.088,0.104  c-0.008,0.008-0.016,0.016-0.016,0.024c-0.024,0.032-0.048,0.064-0.08,0.096c-0.008,0.016-0.016,0.016-0.024,0.024  c-0.032,0.032-0.056,0.072-0.088,0.104c-0.008,0.008-0.016,0.024-0.024,0.032c-0.032,0.032-0.056,0.072-0.088,0.104  c-0.008,0.008-0.016,0.024-0.024,0.024c-0.032,0.04-0.056,0.072-0.088,0.112c-0.008,0.008-0.008,0.008-0.016,0.016  c-0.032,0.04-0.056,0.072-0.088,0.112c-0.008,0.008-0.008,0.008-0.008,0.016c-0.032,0.04-0.064,0.08-0.096,0.12  c-0.008,0.008-0.008,0.016-0.016,0.024c-0.032,0.04-0.064,0.08-0.088,0.112c-0.008,0.008-0.008,0.016-0.016,0.024  c-0.032,0.04-0.064,0.08-0.096,0.12l-0.008,0.008c-0.032,0.04-0.064,0.08-0.096,0.12c-0.008,0.008,0,0-0.008,0.008  c-0.032,0.04-0.064,0.08-0.096,0.12c-0.008,0.008-0.008,0.008-0.008,0.016c-0.032,0.04-0.064,0.08-0.096,0.12  c-0.008,0.008-0.008,0.008-0.016,0.016c-0.032,0.04-0.064,0.08-0.096,0.12v0.008c-0.072,0.088-0.136,0.168-0.208,0.256v0.008  c-0.032,0.04-0.064,0.08-0.096,0.128l-0.008,0.008c-0.032,0.04-0.064,0.08-0.104,0.128l0,0c-0.104,0.128-0.208,0.264-0.312,0.392  l0,0c-1.328,1.68-2.632,3.376-3.912,5.08l6.4,4.8c4.168-5.56,8.624-11.008,13.248-16.2L64.744,85.876L64.744,85.876z   M38.856,120.396c-0.336,0.528-0.656,1.056-0.984,1.584c0,0.008-0.008,0.008-0.008,0.008c-0.016,0.032-0.024,0.04-0.04,0.072  c0,0.008-0.008,0.008-0.008,0.016c-0.016,0.024-0.024,0.04-0.04,0.064c0,0.008-0.008,0.016-0.008,0.016  c-0.016,0.024-0.024,0.04-0.032,0.056c-0.008,0.008-0.008,0.016-0.016,0.024c-0.016,0.024-0.016,0.032-0.032,0.056  c-0.008,0.008-0.008,0.016-0.016,0.032c-0.016,0.024-0.024,0.04-0.04,0.072v0.008c-0.032,0.024-0.048,0.048-0.064,0.072  c-0.008,0.008-0.016,0.024-0.024,0.032c-0.008,0.016-0.016,0.032-0.024,0.04c-0.008,0.016-0.016,0.032-0.024,0.04  c-0.008,0.016-0.008,0.016-0.024,0.032c-0.008,0.016-0.016,0.032-0.024,0.04c-0.008,0.016-0.016,0.024-0.024,0.04  s-0.016,0.024-0.024,0.04c-0.008,0.008-0.016,0.024-0.016,0.032c-0.008,0.016-0.016,0.032-0.032,0.048  c-0.008,0.008-0.008,0.016-0.016,0.024c-0.072,0.112-0.136,0.224-0.208,0.336c-0.008,0.008,0,0-0.008,0.008  c-0.016,0.024-0.024,0.04-0.04,0.064l-0.008,0.008c-3.136,5.192-6.112,10.496-8.888,15.912l7.112,3.656  c3.176-6.176,6.656-12.288,10.344-18.184L38.856,120.396L38.856,120.396z M19.128,158.772c-1.904,4.632-3.68,9.344-5.32,14.104  c0,0.008,0,0,0,0.008c-0.008,0.024-0.016,0.048-0.024,0.072l-0.008,0.016c-0.008,0.024-0.016,0.048-0.024,0.072c0,0.008,0,0,0,0.008  c-0.032,0.096-0.064,0.192-0.104,0.296c0,0.008-0.008,0.016-0.008,0.024c-0.008,0.016-0.016,0.032-0.016,0.056  c0,0.008-0.008,0.024-0.008,0.032c-0.008,0.016-0.008,0.032-0.016,0.048c-0.008,0.016-0.008,0.024-0.016,0.04  c-0.008,0.016-0.008,0.032-0.016,0.048c-0.008,0.016-0.008,0.032-0.016,0.048c-0.008,0.016-0.008,0.024-0.016,0.04  c-0.008,0.024-0.008,0.032-0.016,0.056c0,0.008-0.008,0.016-0.008,0.032c-0.008,0.032-0.016,0.056-0.032,0.088v0.008  c-0.008,0.032-0.016,0.048-0.024,0.08c0,0.008-0.008,0.016-0.008,0.016c-0.008,0.032-0.016,0.056-0.024,0.08  c0,0.008-0.008,0.016-0.008,0.024c-0.008,0.032-0.016,0.04-0.024,0.072c0,0,0,0.016-0.008,0.016  c-0.008,0.032-0.016,0.048-0.024,0.08v0.008c-0.544,1.608-1.072,3.224-1.584,4.848l7.632,2.4c2.088-6.624,4.48-13.24,7.12-19.664  L19.128,158.772L19.128,158.772z M6.168,199.932c-0.104,0.472-0.208,0.936-0.312,1.408v0.008c-0.008,0.032-0.016,0.056-0.016,0.088  v0.016c-0.008,0.032-0.008,0.048-0.016,0.08c0,0.008,0,0.016,0,0.016c-0.008,0.04-0.008,0.056-0.016,0.088c0,0.008,0,0.008,0,0.016  c-0.016,0.064-0.024,0.12-0.04,0.184v0.016c-0.008,0.032-0.008,0.048-0.016,0.08c0,0.008,0,0.016-0.008,0.024  c0,0.016-0.008,0.048-0.016,0.064c0,0.008-0.008,0.024-0.008,0.032c0,0.016-0.008,0.04-0.008,0.056s-0.008,0.024-0.008,0.04  c0,0.016-0.008,0.04-0.016,0.056c0,0.008-0.008,0.016-0.008,0.032c-0.008,0.032-0.008,0.056-0.016,0.088  c0,0.008-0.008,0.024-0.008,0.032c-0.008,0.024-0.008,0.032-0.008,0.056c0,0.016-0.008,0.024-0.008,0.04  c0,0.016-0.008,0.032-0.008,0.048s-0.008,0.032-0.008,0.04c0,0.016-0.008,0.032-0.008,0.048s-0.008,0.032-0.008,0.048  c0,0.008-0.008,0.032-0.008,0.04c0,0.016-0.008,0.04-0.008,0.056v0.016c-0.008,0.048-0.024,0.096-0.032,0.144l0,0  c-0.04,0.016-0.04,0.04-0.048,0.056c0,0.008,0,0.016-0.008,0.024c-0.008,0.024-0.008,0.04-0.016,0.064c0,0.008,0,0.016-0.008,0.024  c-0.008,0.024-0.008,0.04-0.016,0.064c0,0.008,0,0.008,0,0.016c-0.008,0.024-0.008,0.048-0.016,0.072v0.008  c-0.024,0.104-0.048,0.208-0.064,0.32c0,0.008,0,0,0,0.008c-0.008,0.024-0.008,0.048-0.016,0.072v0.008  c-0.112,0.52-0.216,1.04-0.32,1.56l0,0c-0.176,0.88-0.352,1.76-0.52,2.64l0,0c-0.064,0.328-0.128,0.656-0.184,0.992v0.008  c-0.008,0.024-0.008,0.048-0.016,0.08c0,0.008,0,0,0,0.008c-0.024,0.136-0.048,0.272-0.072,0.408c0,0.008,0,0,0,0.008  c-0.008,0.024-0.008,0.048-0.016,0.08v0.008c-0.008,0.024-0.008,0.056-0.016,0.08l0,0c-0.016,0.104-0.04,0.216-0.056,0.32  c0,0.008,0,0.008,0,0.016c-0.008,0.024-0.008,0.048-0.016,0.072v0.016c-0.008,0.024-0.008,0.048-0.016,0.072c0,0.008,0,0,0,0.008  c-0.016,0.104-0.04,0.216-0.056,0.32v0.008c0,0.024-0.008,0.048-0.016,0.072c0,0.008,0,0.008,0,0.016  c0,0.024-0.008,0.04-0.008,0.064c0,0.008,0,0.016-0.008,0.024c0,0.024-0.008,0.048-0.016,0.064v0.008  c-0.016,0.104-0.04,0.208-0.056,0.32c0,0.008,0,0.008,0,0.016c0,0.024-0.008,0.048-0.016,0.072v0.016  c0,0.024-0.008,0.048-0.016,0.072c0,0.008,0,0,0,0.008c-0.016,0.104-0.04,0.216-0.056,0.32v0.008c0,0.024-0.008,0.048-0.016,0.072  v0.016c-0.008,0.024-0.008,0.048-0.016,0.072c0,0.008,0,0,0,0.008c-0.024,0.136-0.048,0.272-0.072,0.4c0,0.008,0,0.008,0,0.016  c-0.008,0.024-0.008,0.048-0.016,0.072v0.016c-0.008,0.024-0.008,0.048-0.016,0.072v0.008c-0.016,0.104-0.04,0.216-0.056,0.32  c0,0.008,0,0,0,0.008c0,0.024-0.008,0.048-0.016,0.072v0.016c-0.008,0.024-0.008,0.048-0.016,0.072c0,0.008,0,0,0,0.008  c-0.024,0.136-0.048,0.272-0.072,0.408v0.008c0,0.024-0.008,0.048-0.016,0.08c0,0.008,0,0,0,0.008  c-0.448,2.664-0.856,5.344-1.224,8.032l7.928,1.08c0.936-6.888,2.184-13.816,3.696-20.584L6.168,199.932L6.168,199.932z   M0.344,242.684c-0.024,0.544-0.056,1.072-0.08,1.616v0.008c0,0.032,0,0.048,0,0.088c0,0,0,0.016,0,0.024c0,0.024,0,0.048,0,0.072  c0,0.008,0,0.024,0,0.032c0,0.016,0,0.048,0,0.064c0,0.016,0,0.024,0,0.04c0,0.016,0,0.04,0,0.056s0,0.032,0,0.048s0,0.04,0,0.056  s0,0.032,0,0.056c0,0.016,0,0.024,0,0.048s0,0.04,0,0.064c0,0.016,0,0.016,0,0.04c0,0.024,0,0.048,0,0.072c0,0.008,0,0.024,0,0.032  c0,0.024,0,0.048,0,0.072c0,0.008,0,0.024,0,0.032c0,0.024,0,0.056,0,0.08v0.016c0,0.032,0,0.064,0,0.088v0.008  c0,0.032,0,0.064,0,0.096l0,0c0,0.032,0,0.064,0,0.104l0,0c-0.088,2.288-0.152,4.584-0.184,6.888l0,0c0,0.032,0,0.072,0,0.104l0,0  c0,0.032,0,0.064,0,0.104v0.008c0,0.032,0,0.064,0,0.104l0,0c0,0.032,0,0.064,0,0.096v0.008c0,0.032,0,0.064,0,0.096v0.008  c0,0.032,0,0.064,0,0.088c0,0.008,0,0.008,0,0.016c0,0.032,0,0.064,0,0.088c0,0.008,0,0.008,0,0.016c0,0.032,0,0.056,0,0.088  c0,0.008,0,0.008,0,0.024c0,0.032,0,0.056,0,0.088c0,0.008,0,0.008,0,0.016c0,0.024,0,0.056,0,0.08c0,0.008,0,0.016,0,0.024  c0,0.032,0,0.056,0,0.088c0,0.008,0,0.008,0,0.016c0,0.024,0,0.056,0,0.08c0,0.008,0,0.016,0,0.024c0,0.024,0,0.056,0,0.08  c0,0.008,0,0.016,0,0.024c0,0.024,0,0.056,0,0.08c0,0.008,0,0.016,0,0.024c0,0.024,0,0.056,0,0.08c0,0.008,0,0.016,0,0.024  c0,0.024,0,0.048,0,0.072c0,0.008,0,0.024,0,0.032c0,0.024,0,0.048,0,0.072c0,0.008,0,0.024,0,0.032c0,0.024,0,0.048,0,0.072  c0,0.008,0,0.024,0,0.032c0,0.024,0,0.048,0,0.072c0,0.008,0,0.024,0,0.032c0,0.024,0,0.048,0,0.072c0,0.008,0,0.032,0,0.04  c0,0.024,0,0.048,0,0.072c0,0.008,0,0.024,0,0.032c0,0.024,0,0.048,0,0.072c0,0.016,0,0.016,0,0.04c0,0.024,0,0.04,0,0.064  c0,0.016,0,0.024,0,0.04c0,0.016,0,0.04,0,0.056s0,0.032,0,0.048s0,0.04,0,0.056s0,0.024,0,0.04c0,0.016,0,0.04,0,0.056  s0,0.032,0,0.048s0,0.04,0,0.056s0,0.032,0,0.048s0,0.032,0,0.056c0,0.016,0,0.04,0,0.056s0,0.032,0,0.056c0,0.016,0,0.032,0,0.048  s0,0.04,0,0.056s0,0.032,0,0.048c0,0.024,0,0.048,0,0.072c0,0.008,0,0.016,0,0.032c0,0.024,0,0.048,0,0.072c0,0.008,0,0.024,0,0.032  c0,0.024,0,0.048,0,0.08c0,0.008,0,0.016,0,0.024C0,255.98,0,256.02,0,256.052l0,0c0,0.04,0,0.08,0,0.12c0,0.008,0,0.024,0,0.04  c0,0.024,0,0.056,0,0.08c0,0.016,0,0.024,0,0.04c0,0.024,0,0.056,0,0.08c0,0.008,0,0.032,0,0.04c0,0.032,0,0.064,0,0.096  c0,0.008,0,0.024,0,0.032c0,0.032,0,0.072,0,0.104c0,0.016,0,0.024,0,0.04c0,0.024,0,0.048,0,0.072c0,0.016,0,0.032,0,0.048  c0,0.024,0,0.048,0,0.072c0,0.008,0,0.04,0,0.048c0,0.024,0,0.056,0,0.08c0,0.016,0,0.048,0,0.072s0,0.056,0,0.08  c0,0.016,0,0.032,0,0.056s0,0.048,0,0.064s0,0.04,0,0.056c0,0.024,0,0.04,0,0.064s0,0.032,0,0.056s0,0.04,0,0.064  c0,0.032,0,0.056,0,0.088c0,0.024,0,0.048,0,0.072s0,0.032,0,0.064c0,0.016,0,0.032,0,0.048s0,0.048,0,0.072c0,0.016,0,0.032,0,0.04  c0,0.024,0,0.048,0,0.072c0,0.008,0,0.016,0,0.032c0,0.088,0,0.176,0,0.264c0,0.008,0,0.016,0,0.032c0,0.024,0,0.056,0,0.08  c0,0.008,0,0.024,0,0.032c0,0.024,0,0.056,0,0.08c0,0.008,0,0.016,0,0.024c0,0.096,0,0.184,0,0.28v0.016c0,0.032,0,0.056,0,0.088  c0,0.008,0,0.016,0,0.024c0,0.032,0,0.056,0,0.088l0,0c0,0.104,0,0.2,0,0.296c0,0.008,0,0.008,0,0.016c0,0.032,0,0.056,0,0.096  v0.016c0,0.176,0.008,0.336,0.008,0.504v0.008c0,0.176,0.008,0.336,0.008,0.512v0.008c0,0.136,0.008,0.264,0.008,0.4v0.008  c0,0.024,0,0.064,0,0.088c0,0.008,0,0.016,0,0.024c0,0.024,0,0.056,0,0.088c0,0.008,0,0.008,0,0.016c0,0.096,0,0.176,0.008,0.272  c0,0.008,0,0.024,0,0.032c0,0.024,0,0.048,0,0.072c0,0.016,0,0.032,0,0.04c0,0.016,0,0.048,0,0.072c0,0.016,0,0.032,0,0.048  c0,0.024,0,0.04,0,0.064c0,0.032,0,0.072,0,0.104c0,0.016,0,0.024,0,0.048c0,0.024,0,0.048,0,0.072c0,0.008,0,0.04,0,0.048  c0,0.024,0,0.048,0,0.08c0,0.016,0,0.024,0,0.04c0,0.032,0,0.064,0,0.096c0,0.008,0,0.016,0,0.024c0,0.08,0,0.168,0.008,0.248v0.008  c0.016,0.6,0.032,1.192,0.048,1.792l8-0.256C8.04,261.38,8,258.724,8,256.052c0-4.312,0.112-8.664,0.336-12.952L0.344,242.684  L0.344,242.684z M9.656,284.9l-7.944,0.92c0.64,5.496,1.448,10.944,2.424,16.328c0,0.008,0,0.008,0,0.016  c0.008,0.032,0.008,0.048,0.016,0.08c0,0.008,0,0.008,0,0.016c0.008,0.032,0.008,0.048,0.016,0.08v0.008  c0.008,0.064,0.024,0.12,0.032,0.184c0,0.008,0,0.016,0.008,0.032c0,0.016,0.008,0.048,0.008,0.064s0.008,0.024,0.008,0.04  s0.008,0.04,0.008,0.056s0.008,0.032,0.008,0.04c0,0.016,0.008,0.032,0.008,0.048s0.008,0.032,0.008,0.048s0,0.016,0.008,0.032  c0.008,0.04,0.016,0.088,0.024,0.128v0.008c0.008,0.024,0.008,0.048,0.016,0.064c0,0.008,0,0.008,0,0.016  c0,0.024,0.008,0.04,0.016,0.064c0,0.008,0,0.016,0.008,0.024c0.008,0.024,0.008,0.048,0.016,0.064c0,0.008,0,0,0,0.008  c0.24,1.288,0.488,2.584,0.752,3.864l7.84-1.584C11.56,298.756,10.456,291.804,9.656,284.9L9.656,284.9z M17.96,325.86l-7.68,2.248  c0.128,0.432,0.256,0.864,0.384,1.296c0,0.008,0,0.008,0,0.016c0.008,0.024,0.016,0.048,0.024,0.072v0.008  c0.008,0.024,0.016,0.048,0.024,0.072c0,0.008,0,0,0,0.008c0.032,0.096,0.056,0.192,0.088,0.296c0,0.008,0.008,0.024,0.008,0.032  c0.008,0.016,0.008,0.032,0.016,0.056c0.008,0.016,0.008,0.024,0.008,0.04s0.008,0.032,0.016,0.04  c0.008,0.016,0.008,0.032,0.016,0.048c0,0.016,0.008,0.032,0.016,0.04c0.008,0.016,0.008,0.032,0.016,0.048  c0.008,0.016,0.008,0.024,0.016,0.04c0.008,0.024,0.008,0.032,0.016,0.056c0,0.008,0.008,0.024,0.008,0.032  c0.008,0.032,0.016,0.056,0.024,0.088c0,0.008,0,0.008,0.008,0.016c0.008,0.024,0.016,0.048,0.024,0.072  c0,0.008,0.008,0.016,0.008,0.024c0.008,0.024,0.016,0.04,0.024,0.064c0,0.008,0.008,0.016,0.008,0.024  c0.008,0.024,0.016,0.048,0.024,0.072c0,0.008,0,0.016,0,0.016c0.008,0.04,0.016,0.056,0.024,0.088l0,0  c0.04,0.128,0.08,0.248,0.112,0.376l0,0c1.352,4.424,2.824,8.792,4.408,13.112v0.008c0.016,0.032,0.024,0.056,0.032,0.088v0.008  c0.008,0.032,0.016,0.056,0.032,0.08c0,0,0,0,0,0.008c0.048,0.12,0.088,0.24,0.136,0.36v0.008c0.016,0.032,0.016,0.048,0.032,0.08  c0,0.008,0,0.008,0.008,0.016c0.008,0.032,0.016,0.048,0.024,0.072c0,0.008,0,0.008,0.008,0.016  c0.032,0.088,0.064,0.176,0.096,0.264v0.008c0.008,0.032,0.016,0.04,0.024,0.072c0,0.008,0.008,0.016,0.008,0.024  c0.008,0.016,0.016,0.048,0.024,0.064c0,0.008,0.008,0.016,0.008,0.024c0.008,0.016,0.016,0.04,0.024,0.056s0.008,0.024,0.016,0.04  c0.008,0.016,0.016,0.04,0.024,0.056c0,0.008,0.008,0.024,0.008,0.032c0.008,0.032,0.016,0.048,0.032,0.08l0,0  c0.016,0.032,0.024,0.056,0.032,0.088c0.008,0.008,0.008,0.024,0.008,0.032c0.008,0.016,0.016,0.04,0.024,0.056  s0.008,0.024,0.016,0.04c0.008,0.016,0.016,0.032,0.016,0.048c0.008,0.008,0.008,0.024,0.016,0.032  c0.008,0.016,0.016,0.04,0.016,0.056c0.008,0.016,0.008,0.024,0.016,0.04c0.008,0.016,0.008,0.024,0.016,0.04  c0.008,0.016,0.008,0.032,0.016,0.048c0,0.008,0.008,0.024,0.008,0.032c0.016,0.04,0.032,0.08,0.048,0.12  c0,0.008,0,0.008,0.008,0.016c0.008,0.016,0.016,0.04,0.024,0.056c0,0.008,0.008,0.016,0.008,0.024  c0.008,0.016,0.016,0.04,0.024,0.056c0,0.008,0.008,0.024,0.008,0.032c0.008,0.016,0.016,0.04,0.024,0.056  c0,0.008,0.008,0.016,0.008,0.024c0.008,0.024,0.016,0.04,0.024,0.064c0,0.008,0.008,0.016,0.008,0.024  c0.008,0.024,0.016,0.04,0.024,0.064v0.008c0.04,0.104,0.08,0.208,0.12,0.304c0,0.008,0,0,0,0.008  c0.008,0.024,0.016,0.048,0.024,0.072l0.008,0.016c0.008,0.024,0.016,0.048,0.024,0.072c0,0.008,0,0,0,0.008  c0.168,0.44,0.336,0.888,0.512,1.328l7.456-2.888C22.168,339.188,19.912,332.524,17.96,325.86L17.96,325.86z M33.064,364.828  l-7.184,3.512c0.608,1.248,1.232,2.496,1.864,3.736c0,0.008,0.008,0.008,0.008,0.008c0.016,0.032,0.024,0.048,0.04,0.072  c0,0.008,0.008,0.008,0.008,0.016c0.008,0.024,0.024,0.048,0.032,0.064c0,0.008,0.008,0.016,0.008,0.016  c0.008,0.024,0.024,0.048,0.032,0.064c0,0.008,0.008,0.008,0.008,0.016c0.016,0.032,0.024,0.056,0.04,0.08l0,0  c0.016,0.032,0.024,0.048,0.04,0.08c0.008,0.008,0.008,0.016,0.016,0.024c0.008,0.016,0.024,0.04,0.024,0.056  c0.008,0.008,0.016,0.024,0.016,0.032c0.008,0.016,0.016,0.032,0.024,0.048c0.008,0.008,0.008,0.024,0.016,0.032  c0.008,0.016,0.016,0.032,0.024,0.048c0.008,0.008,0.016,0.024,0.016,0.032c0.008,0.016,0.016,0.032,0.024,0.048  c0.008,0.008,0.008,0.024,0.016,0.032c0.008,0.024,0.016,0.024,0.024,0.048c0.008,0.016,0.016,0.024,0.016,0.04  c0.016,0.032,0.024,0.048,0.04,0.072c0.008,0.016,0.016,0.024,0.024,0.04c0.008,0.016,0.016,0.024,0.024,0.04  c0.008,0.016,0.016,0.024,0.024,0.04c0.008,0.016,0.016,0.024,0.024,0.04s0.016,0.032,0.024,0.04  c0.008,0.016,0.008,0.016,0.016,0.032c0.008,0.016,0.016,0.032,0.024,0.056c0,0,0.008,0.016,0.016,0.024  c0.008,0.016,0.016,0.032,0.024,0.056c0,0.008,0.008,0.016,0.008,0.024c0.008,0.016,0.024,0.04,0.032,0.056l0.008,0.008  c0.048,0.096,0.096,0.184,0.144,0.28c0,0.008,0.008,0.008,0.008,0.016c0.008,0.024,0.024,0.048,0.032,0.064l0.008,0.008  c0.016,0.024,0.024,0.048,0.032,0.072l0,0c2.36,4.544,4.856,9.016,7.48,13.392l6.864-4.112  C39.464,377.252,36.112,371.06,33.064,364.828L33.064,364.828z M54.528,400.692l-6.496,4.672c1.576,2.192,3.192,4.36,4.832,6.504  l0,0c0.272,0.36,0.552,0.712,0.824,1.064c0.008,0.008-0.008-0.008,0,0c0.136,0.176,0.272,0.352,0.416,0.528l0,0  c0.032,0.04,0.072,0.088,0.104,0.128l0,0c0.104,0.128,0.208,0.264,0.312,0.392v0.008c0.032,0.04,0.072,0.088,0.104,0.128l0,0  c0.104,0.128,0.208,0.264,0.312,0.392v0.008c0.032,0.04,0.064,0.088,0.104,0.128l0.008,0.008c0.032,0.04,0.064,0.088,0.104,0.128  l0,0c0.064,0.088,0.136,0.168,0.2,0.256l0.008,0.008c0.032,0.04,0.064,0.08,0.096,0.12l0.008,0.008  c0.032,0.04,0.064,0.08,0.096,0.128l0,0c0.064,0.088,0.136,0.168,0.2,0.256l0.008,0.008c0.032,0.04,0.064,0.08,0.096,0.12  l0.016,0.016c0.032,0.04,0.064,0.08,0.096,0.12l0.008,0.008c0.064,0.08,0.128,0.16,0.2,0.248l0.016,0.016  c0.032,0.04,0.064,0.08,0.096,0.112c0.008,0.008,0.008,0.016,0.016,0.016c0.032,0.04,0.064,0.08,0.096,0.112  c0.008,0.008,0.008,0.008,0.016,0.016c0.064,0.08,0.128,0.16,0.192,0.24c0.008,0.008,0.008,0.016,0.016,0.016  c0.032,0.04,0.064,0.072,0.088,0.112c0.008,0.016,0.008,0.016,0.024,0.024c0.032,0.04,0.056,0.072,0.088,0.112  c0.008,0.008,0.016,0.016,0.024,0.024c0.032,0.04,0.064,0.072,0.088,0.112c0.008,0.008,0.008,0.008,0.016,0.016  c0.024,0.032,0.056,0.064,0.08,0.104c0.008,0.016,0.016,0.016,0.024,0.024c0.032,0.032,0.056,0.072,0.088,0.104  c0.008,0.016,0.016,0.024,0.024,0.032c0.024,0.032,0.056,0.064,0.08,0.104c0.008,0.008,0.024,0.032,0.032,0.032  c0.024,0.032,0.056,0.064,0.08,0.096c0.008,0.016,0.016,0.024,0.032,0.032c0.024,0.024,0.048,0.056,0.064,0.08  c0.008,0.016,0.024,0.024,0.032,0.04c0.024,0.032,0.048,0.064,0.08,0.096c0.008,0.016,0.024,0.032,0.04,0.048  c0.024,0.032,0.048,0.064,0.072,0.088c0.016,0.016,0.024,0.032,0.04,0.048c0.016,0.024,0.04,0.048,0.056,0.072  c0.016,0.016,0.04,0.048,0.056,0.064s0.032,0.04,0.048,0.056c0.024,0.032,0.04,0.048,0.064,0.08c0.016,0.016,0.032,0.04,0.048,0.056  s0.032,0.04,0.048,0.056c0.024,0.024,0.04,0.056,0.064,0.08c0.016,0.016,0.032,0.04,0.048,0.064c0.008,0.016,0.024,0.032,0.032,0.04  c0.024,0.032,0.056,0.064,0.08,0.096c0.008,0.008,0.016,0.024,0.032,0.032c0.032,0.04,0.056,0.072,0.088,0.112  c0.008,0.008,0.016,0.024,0.024,0.032c0.064,0.072,0.112,0.136,0.176,0.208c0,0.008,0.008,0.008,0.008,0.016  c0.032,0.04,0.072,0.088,0.112,0.136l0.008,0.008c0.88,1.064,1.768,2.112,2.664,3.16l6.08-5.2  C62.928,411.868,58.584,406.332,54.528,400.692L54.528,400.692z M81.696,432.468l-5.624,5.688c0.504,0.496,0.992,0.976,1.496,1.472  c0,0,0,0,0.008,0.008c0.04,0.04,0.088,0.08,0.128,0.12c0.008,0.008,0.008,0.008,0.016,0.016c0.072,0.064,0.128,0.128,0.2,0.192  l0.008,0.008c0.04,0.04,0.08,0.08,0.12,0.112c0.008,0.008,0.016,0.016,0.024,0.024c0.032,0.032,0.072,0.072,0.104,0.104  c0.008,0.008,0.016,0.016,0.032,0.024c0.024,0.024,0.064,0.056,0.088,0.08c0.016,0.016,0.032,0.032,0.048,0.048  c0.024,0.024,0.032,0.032,0.056,0.056c0.016,0.016,0.032,0.032,0.048,0.048c0.032,0.024,0.048,0.048,0.08,0.08  c0.016,0.016,0.032,0.032,0.048,0.048c0.024,0.024,0.056,0.056,0.08,0.072c0.016,0.016,0.032,0.032,0.048,0.048  c0.024,0.024,0.032,0.032,0.056,0.056s0.048,0.048,0.072,0.072c0.008,0.008,0.04,0.032,0.048,0.048  c0.024,0.024,0.056,0.048,0.08,0.08c0.016,0.016,0.032,0.032,0.048,0.048c0.024,0.016,0.04,0.04,0.064,0.056  c0.024,0.024,0.04,0.032,0.064,0.056s0.04,0.04,0.064,0.064c0.016,0.016,0.024,0.024,0.048,0.04c0.024,0.024,0.056,0.056,0.08,0.08  c0.008,0.008,0.032,0.032,0.04,0.04c0.032,0.024,0.056,0.056,0.088,0.08c0.016,0.016,0.024,0.024,0.04,0.04  c0.024,0.024,0.048,0.048,0.072,0.072c0.016,0.016,0.032,0.032,0.048,0.048c0.024,0.024,0.048,0.048,0.072,0.064  c0.008,0.008,0.024,0.024,0.04,0.04c0.032,0.024,0.056,0.056,0.088,0.08c0.008,0.008,0.032,0.024,0.04,0.04  c0.032,0.024,0.056,0.056,0.088,0.08c0.016,0.016,0.024,0.024,0.04,0.04c0.024,0.024,0.056,0.048,0.08,0.08  c0.016,0.016,0.024,0.024,0.04,0.04c0.024,0.024,0.048,0.048,0.072,0.072c0.008,0.008,0.024,0.024,0.032,0.032  c0.032,0.032,0.064,0.056,0.096,0.088c0.008,0.008,0.024,0.024,0.04,0.032c0.032,0.032,0.064,0.056,0.088,0.088  c0.008,0.008,0.024,0.024,0.032,0.032c0.032,0.032,0.064,0.056,0.096,0.088c0.008,0.008,0.016,0.016,0.024,0.024  c0.024,0.024,0.056,0.048,0.08,0.08c0.008,0.008,0.016,0.016,0.032,0.032c0.032,0.032,0.064,0.056,0.096,0.088  c0.008,0.008,0.024,0.024,0.032,0.032c0.032,0.032,0.064,0.056,0.096,0.088c0.008,0.008,0.024,0.024,0.032,0.032  c0.032,0.032,0.064,0.056,0.096,0.088c0.008,0.008,0.016,0.016,0.024,0.024c0.032,0.024,0.056,0.056,0.088,0.08  c0.008,0.008,0.024,0.024,0.024,0.024c0.032,0.032,0.064,0.064,0.096,0.088c0.008,0.008,0.024,0.024,0.032,0.024  c0.032,0.032,0.064,0.064,0.096,0.088c0.008,0.008,0.024,0.016,0.032,0.032c0.032,0.032,0.064,0.064,0.096,0.088  c0.008,0.008,0.008,0.008,0.024,0.024c0.032,0.032,0.064,0.056,0.096,0.088c0.008,0.008,0.016,0.016,0.024,0.024  c0.032,0.032,0.064,0.064,0.096,0.088c0.008,0.008,0.024,0.024,0.032,0.024c0.032,0.032,0.064,0.056,0.096,0.088  c0.008,0.008,0.024,0.024,0.032,0.032c0.032,0.032,0.064,0.056,0.096,0.088c0.008,0.008,0.016,0.016,0.032,0.024  c0.032,0.024,0.064,0.056,0.088,0.08c0.008,0.008,0.016,0.016,0.024,0.024c0.032,0.032,0.064,0.056,0.096,0.088  c0.008,0.008,0.016,0.016,0.032,0.024c0.032,0.032,0.064,0.056,0.096,0.088c0.016,0.008,0.024,0.024,0.032,0.032  c0.032,0.032,0.064,0.056,0.096,0.088c0.008,0.008,0.016,0.016,0.032,0.032c0.032,0.024,0.064,0.056,0.088,0.08  c0.016,0.008,0.016,0.016,0.032,0.032c0.032,0.024,0.056,0.056,0.088,0.08c0.008,0.008,0.016,0.016,0.032,0.024  c0.032,0.032,0.064,0.056,0.096,0.088c0.008,0.008,0.024,0.024,0.04,0.032c0.032,0.032,0.064,0.056,0.096,0.088  c0.008,0.008,0.024,0.016,0.032,0.032c0.032,0.024,0.056,0.056,0.088,0.08c0.008,0.008,0.024,0.024,0.04,0.032  c0.024,0.024,0.056,0.048,0.08,0.072c0.008,0.008,0.016,0.016,0.032,0.024c0.032,0.032,0.064,0.056,0.096,0.088  c0.008,0.008,0.024,0.024,0.04,0.032c0.032,0.032,0.064,0.056,0.096,0.08c0.016,0.016,0.016,0.016,0.04,0.032  c0.024,0.024,0.056,0.048,0.08,0.08c0.016,0.016,0.024,0.024,0.04,0.04c0.024,0.024,0.048,0.048,0.08,0.072  c0.008,0.008,0.024,0.024,0.032,0.032c0.032,0.032,0.064,0.056,0.096,0.088c0.008,0.008,0.024,0.024,0.04,0.04  c0.032,0.024,0.064,0.056,0.088,0.08c0.016,0.016,0.024,0.024,0.04,0.04c0.024,0.024,0.048,0.048,0.08,0.072  c0.016,0.016,0.032,0.032,0.048,0.048c0.024,0.016,0.04,0.04,0.064,0.056c0.016,0.016,0.04,0.032,0.056,0.048  c0.024,0.024,0.048,0.048,0.072,0.064c0.016,0.016,0.032,0.024,0.048,0.04c0.032,0.024,0.056,0.048,0.088,0.08  c0.016,0.016,0.032,0.024,0.048,0.04c0.024,0.016,0.04,0.04,0.064,0.056c0.016,0.016,0.048,0.04,0.064,0.056  c0.016,0.016,0.04,0.032,0.056,0.048c0.024,0.024,0.048,0.04,0.072,0.064c0.016,0.016,0.04,0.032,0.056,0.056  c0.016,0.016,0.032,0.032,0.056,0.048c0.024,0.024,0.056,0.048,0.08,0.072c0.016,0.016,0.032,0.032,0.048,0.048  s0.04,0.032,0.056,0.048c0.032,0.024,0.048,0.04,0.08,0.072c0.016,0.016,0.032,0.024,0.048,0.04c0.032,0.024,0.056,0.048,0.088,0.08  c0.016,0.016,0.032,0.024,0.04,0.04c0.024,0.024,0.056,0.048,0.08,0.072c0.016,0.016,0.04,0.032,0.056,0.048  c0.024,0.024,0.032,0.032,0.056,0.056c0.016,0.016,0.032,0.024,0.04,0.04c0.032,0.024,0.064,0.056,0.096,0.088  c0.008,0.008,0.024,0.016,0.032,0.032c0.04,0.032,0.072,0.064,0.104,0.096c0.008,0.008,0.016,0.016,0.024,0.024  c0.072,0.064,0.136,0.12,0.208,0.184l0.008,0.008c0.048,0.04,0.08,0.072,0.128,0.112c0.008,0.008,0.008,0.008,0.016,0.016  c0.04,0.04,0.088,0.08,0.128,0.112c0,0,0,0,0.008,0.008c0.12,0.104,0.24,0.208,0.36,0.312l0,0c1.752,1.544,3.536,3.072,5.328,4.568  l5.128-6.144C91.856,442.084,86.64,437.356,81.696,432.468L81.696,432.468z M113.792,459.26l-4.592,6.552  c2.264,1.592,4.552,3.136,6.872,4.656l0,0c0.16,0.104,0.32,0.208,0.48,0.312l0,0c0.024,0.016,0.056,0.032,0.08,0.048l0,0  c0.024,0.016,0.048,0.032,0.072,0.048c0,0,0.008,0,0.008,0.008c0.136,0.088,0.264,0.176,0.4,0.264l0,0  c0.024,0.016,0.048,0.032,0.072,0.048l0.008,0.008c0.024,0.016,0.048,0.032,0.072,0.048h0.008c0.024,0.016,0.048,0.032,0.072,0.048  c0,0,0.008,0,0.008,0.008c0.104,0.072,0.208,0.136,0.312,0.2c0.008,0,0.008,0.008,0.016,0.008c0.024,0.016,0.04,0.024,0.064,0.04  c0.008,0,0.008,0.008,0.016,0.008c0.024,0.016,0.04,0.024,0.064,0.04c0.008,0,0.008,0.008,0.016,0.008  c0.024,0.016,0.04,0.024,0.072,0.04l0.008,0.008c0.024,0.016,0.048,0.032,0.08,0.048l0,0c0.056,0.032,0.104,0.072,0.16,0.104l0,0  c0.032,0.016,0.048,0.032,0.072,0.048l0.008,0.008c0.024,0.016,0.04,0.024,0.064,0.04c0.008,0.008,0.016,0.008,0.024,0.016  c0.024,0.016,0.04,0.024,0.064,0.04c0.008,0,0.008,0.008,0.016,0.008c0.024,0.016,0.04,0.024,0.064,0.04  c0.008,0,0.008,0.008,0.016,0.008c0.056,0.032,0.104,0.064,0.16,0.104l0,0c0.032,0.016,0.048,0.032,0.08,0.048l0.008,0.008  c0.024,0.016,0.04,0.024,0.064,0.04c0.008,0.008,0.016,0.008,0.024,0.016c0.016,0.008,0.04,0.024,0.056,0.032  c0.008,0.008,0.016,0.008,0.024,0.016c0.016,0.008,0.032,0.024,0.048,0.032c0.008,0.008,0.024,0.016,0.032,0.016  c0.016,0.008,0.04,0.024,0.048,0.032c0.008,0.008,0.016,0.008,0.024,0.016c0.024,0.016,0.04,0.024,0.056,0.04  c0.008,0.008,0.016,0.008,0.016,0.016c0.024,0.016,0.048,0.032,0.08,0.048c0.008,0,0.016,0.008,0.016,0.008  c0.024,0.016,0.04,0.024,0.056,0.04c0.008,0.008,0.016,0.016,0.032,0.016c0.016,0.008,0.032,0.024,0.048,0.032  c0.008,0.008,0.024,0.016,0.032,0.016c0.016,0.008,0.032,0.024,0.048,0.032c0.008,0.008,0.024,0.016,0.032,0.016  c0.016,0.008,0.032,0.024,0.048,0.032c0.008,0.008,0.016,0.008,0.024,0.016c0.024,0.016,0.032,0.016,0.048,0.032  c0.008,0.008,0.016,0.008,0.032,0.016c0.024,0.016,0.04,0.024,0.056,0.04c0.008,0,0.008,0.008,0.016,0.008  c0.024,0.016,0.048,0.032,0.08,0.048c0.008,0.008,0.016,0.008,0.024,0.016c0.024,0.016,0.032,0.024,0.056,0.032  c0.008,0.008,0.016,0.016,0.032,0.016c0.016,0.008,0.032,0.016,0.048,0.024s0.024,0.016,0.04,0.024s0.024,0.016,0.04,0.024  s0.024,0.016,0.04,0.024s0.024,0.016,0.04,0.024s0.024,0.016,0.04,0.024s0.032,0.016,0.04,0.024s0.024,0.016,0.032,0.024  c0.016,0.008,0.024,0.016,0.04,0.024c0.048,0.032,0.104,0.064,0.152,0.096c0.016,0.008,0.024,0.016,0.032,0.024  c0.016,0.008,0.024,0.016,0.04,0.024c0.008,0.008,0.024,0.016,0.032,0.024c0.016,0.008,0.032,0.016,0.048,0.032  c0.016,0.008,0.016,0.008,0.024,0.016c0.016,0.008,0.032,0.024,0.048,0.032c0.016,0.008,0.008,0.008,0.024,0.016  s0.032,0.024,0.048,0.032c0.008,0.008,0.024,0.016,0.024,0.016c0.016,0.008,0.032,0.024,0.048,0.032  c0.008,0.008,0.008,0.008,0.016,0.008c0.064,0.04,0.12,0.08,0.184,0.112l0.016,0.008c0.016,0.008,0.032,0.024,0.056,0.032  c0.008,0.008,0.016,0.008,0.024,0.016c0.016,0.008,0.032,0.024,0.056,0.032c0.008,0.008,0.016,0.008,0.024,0.016  c0.016,0.008,0.032,0.024,0.056,0.032c0.008,0.008,0.016,0.008,0.024,0.016c0.016,0.008,0.04,0.024,0.056,0.032  c0.008,0.008,0.008,0.008,0.016,0.008c0.112,0.072,0.224,0.136,0.336,0.208c0.008,0.008,0,0,0.008,0.008  c0.024,0.016,0.04,0.024,0.064,0.04c0,0,0,0,0.008,0.008c0.024,0.016,0.04,0.024,0.064,0.04l0.008,0.008  c0.024,0.016,0.048,0.024,0.064,0.04l0,0c1.824,1.12,3.656,2.224,5.504,3.296l4.024-6.912  C125.416,467.044,119.488,463.252,113.792,459.26L113.792,459.26z M149.92,480.284l-3.424,7.232c1.008,0.48,2.024,0.952,3.048,1.416  l0.008,0.008c0.024,0.008,0.048,0.024,0.072,0.032l0.008,0.008c0.024,0.008,0.04,0.024,0.064,0.032c0.008,0,0.008,0,0.016,0.008  c0.072,0.032,0.136,0.064,0.2,0.096c0.008,0,0.008,0,0.016,0.008c0.016,0.008,0.032,0.016,0.048,0.024  c0.008,0,0.032,0.016,0.04,0.016c0.016,0.008,0.024,0.008,0.04,0.016c0.016,0.008,0.032,0.016,0.048,0.024  c0.008,0.008,0.024,0.008,0.032,0.016c0.016,0.008,0.04,0.016,0.056,0.024c0.008,0,0.016,0.008,0.024,0.008  c0.024,0.008,0.04,0.016,0.064,0.032c0.008,0,0.016,0.008,0.024,0.008c0.088,0.04,0.168,0.08,0.256,0.12h0.008  c0.032,0.016,0.048,0.024,0.08,0.032c0.008,0,0.008,0.008,0.016,0.008c0.032,0.016,0.048,0.024,0.08,0.032h0.008  c3.456,1.56,6.952,3.048,10.488,4.456l0,0c0.12,0.048,0.232,0.096,0.352,0.144l0.016,0.008c0.024,0.008,0.048,0.016,0.072,0.024  c0.008,0,0.016,0.008,0.024,0.008c0.016,0.008,0.04,0.016,0.056,0.024s0.024,0.008,0.04,0.016c0.016,0.008,0.032,0.016,0.048,0.016  c0.016,0.008,0.024,0.008,0.04,0.016c0.016,0.008,0.032,0.016,0.048,0.016c0.016,0.008,0.024,0.008,0.04,0.016  c0.016,0.008,0.016,0.008,0.032,0.016c0.064,0.024,0.128,0.048,0.192,0.08c0.008,0,0.008,0,0.016,0.008  c0.024,0.008,0.04,0.016,0.064,0.024c0.008,0,0.016,0.008,0.024,0.008c0.024,0.008,0.04,0.016,0.064,0.024l0.016,0.008  c0.024,0.008,0.048,0.016,0.072,0.024h0.008c1.312,0.512,2.624,1.016,3.944,1.512l2.8-7.496  C162.68,486.004,156.2,483.26,149.92,480.284L149.92,480.284z M189.064,494.916l-2.152,7.704c3.36,0.944,6.752,1.816,10.176,2.616  h0.008c0.024,0.008,0.04,0.008,0.064,0.016c0.008,0,0.024,0.008,0.032,0.008c0.016,0.008,0.04,0.008,0.056,0.016  c0.016,0,0.024,0.008,0.04,0.008c0.016,0,0.032,0.008,0.048,0.008s0.032,0.008,0.048,0.008s0.032,0.008,0.04,0.008  c0.032,0.008,0.056,0.016,0.088,0.024c0.008,0,0.008,0,0.008,0c0.032,0.008,0.056,0.016,0.08,0.016c0.008,0,0.016,0,0.024,0.008  c0.024,0.008,0.048,0.008,0.072,0.016c0.008,0,0.016,0,0.024,0.008c0.016,0,0.056,0.016,0.072,0.016c0.008,0,0.016,0,0.024,0.008  c0.032,0.008,0.048,0.008,0.08,0.016h0.008c0.096,0.024,0.192,0.048,0.288,0.064c0,0,0,0,0.008,0  c3.224,0.744,6.48,1.432,9.744,2.048l1.496-7.856C202.6,498.388,195.752,496.788,189.064,494.916L189.064,494.916z M230.128,502.716  l-0.824,7.96c5.616,0.584,11.28,0.984,17,1.192l0,0c0.04,0,0.064,0,0.096,0l0,0c0.104,0,0.2,0.008,0.304,0.008  c0.008,0,0.008,0,0.008,0c0.04,0,0.056,0,0.088,0c0,0,0.016,0,0.024,0c0.024,0,0.048,0,0.08,0c0.008,0,0.016,0,0.024,0  c0.072,0,0.128,0.008,0.192,0.008c0.008,0,0.016,0,0.016,0c0.024,0,0.064,0,0.08,0c0.008,0,0.024,0,0.032,0c0.016,0,0.048,0,0.064,0  c0.016,0,0.024,0,0.04,0c0.016,0,0.04,0,0.056,0c0.008,0,0.024,0,0.032,0c0.024,0,0.048,0,0.072,0c0.016,0,0.04,0,0.056,0  c0.024,0,0.032,0,0.064,0c0.016,0,0.032,0,0.048,0s0.032,0,0.048,0s0.032,0,0.048,0s0.032,0,0.048,0s0.032,0,0.048,0  s0.032,0,0.048,0s0.032,0,0.048,0s0.04,0,0.056,0c0.032,0,0.056,0,0.08,0c0.008,0,0.032,0,0.04,0c0.016,0,0.04,0,0.056,0  c0.008,0,0.032,0,0.04,0c0.016,0,0.04,0,0.056,0c0.008,0,0.024,0,0.032,0c0.024,0,0.04,0,0.064,0c0.008,0,0.008,0,0.016,0  c0.08,0,0.16,0.008,0.24,0.008l0,0c0.024,0,0.056,0,0.08,0h0.008c0.024,0,0.056,0,0.08,0c0.008,0,0,0,0.008,0  c0.68,0.016,1.36,0.032,2.04,0.048l0.16-8C244.048,503.868,237.024,503.436,230.128,502.716L230.128,502.716z M292.744,501.348  c-6.856,1.016-13.856,1.76-20.8,2.2l0.504,7.984c1.968-0.128,3.92-0.272,5.88-0.44l0,0c0.032,0,0.064-0.008,0.096-0.008l0,0  c0.104-0.008,0.2-0.016,0.296-0.024c0,0,0.008,0,0.016,0c0.032,0,0.04,0,0.08-0.008c0.008,0,0.016,0,0.024,0  c0.024,0,0.048,0,0.072-0.008c0.008,0,0.016,0,0.024,0c0.032,0,0.048-0.008,0.088-0.008h0.008c0.04,0,0.064-0.008,0.096-0.008  c0,0,0.008,0,0.016,0c0.024,0,0.048-0.008,0.08-0.008c0.008,0,0.016,0,0.032,0c0.016,0,0.04,0,0.064-0.008c0.016,0,0.024,0,0.04,0  c0.016,0,0.04,0,0.056-0.008c0.016,0,0.024,0,0.04,0c0.016,0,0.048-0.008,0.064-0.008c0.008,0,0.024,0,0.032,0  c0.032,0,0.056-0.008,0.088-0.008c0.016,0,0.032,0,0.056-0.008c0.008,0,0.032,0,0.04,0c0.016,0,0.04,0,0.056-0.008  c0.016,0,0.024,0,0.04,0c0.016,0,0.032,0,0.048-0.008c0.016,0,0.024,0,0.04,0c0.016,0,0.04,0,0.056-0.008c0.008,0,0.016,0,0.024,0  c0.072-0.008,0.144-0.016,0.208-0.016c0.008,0,0.016,0,0.024,0c0.024,0,0.04,0,0.064-0.008c0.008,0,0.016,0,0.024,0  c0.024,0,0.04,0,0.064-0.008c0.008,0,0.016,0,0.024,0c0.136-0.016,0.264-0.024,0.4-0.04h0.016c0.024,0,0.048-0.008,0.072-0.008  c0.008,0,0,0,0.008,0c4.368-0.424,8.712-0.952,13.016-1.592L292.744,501.348L292.744,501.348z M333.416,491.732  c-6.6,2.168-13.368,4.072-20.128,5.672l1.84,7.784c7.04-1.664,13.976-3.624,20.784-5.856L333.416,491.732L333.416,491.732z   M371.88,475.372c-6.144,3.248-12.496,6.28-18.88,8.992l3.128,7.36c0.016-0.008,0.032-0.016,0.04-0.016s0.016-0.008,0.016-0.008  c0.12-0.048,0.232-0.096,0.352-0.152h0.008c0.032-0.016,0.056-0.024,0.088-0.04l0,0c3.344-1.432,6.64-2.928,9.912-4.496h0.008  c0.032-0.016,0.048-0.024,0.08-0.04l0.016-0.008c0.032-0.016,0.048-0.024,0.072-0.032h0.008c0.032-0.016,0.048-0.024,0.08-0.04  c0,0,0.008,0,0.008-0.008c0.056-0.032,0.112-0.056,0.168-0.08c0.008-0.008,0.016-0.008,0.024-0.016  c0.024-0.008,0.032-0.016,0.056-0.024c0.008-0.008,0.016-0.008,0.024-0.016c0.016-0.008,0.04-0.024,0.056-0.024  c0.008-0.008,0.016-0.008,0.024-0.016c0.016-0.008,0.04-0.024,0.056-0.024c0.008-0.008,0.016-0.008,0.032-0.016  c0.016-0.008,0.04-0.016,0.048-0.024s0.024-0.008,0.032-0.016c0.024-0.008,0.032-0.016,0.048-0.024  c0.008-0.008,0.024-0.008,0.032-0.016c0.024-0.008,0.04-0.016,0.064-0.032c0.024-0.008,0.04-0.016,0.064-0.032  c0.016-0.008,0.024-0.008,0.04-0.016c0.016-0.008,0.032-0.016,0.048-0.024c0,0,0.024-0.008,0.032-0.016  c0.016-0.008,0.032-0.016,0.048-0.024s0.016-0.008,0.032-0.016c0.016-0.008,0.032-0.016,0.048-0.024s0.024-0.008,0.04-0.016  c0.016-0.008,0.032-0.016,0.048-0.024c0.008,0,0.024-0.008,0.032-0.016c0.016-0.008,0.032-0.016,0.048-0.024l0.016-0.008  c0.072-0.032,0.136-0.064,0.208-0.104h0.008c0.024-0.008,0.04-0.024,0.064-0.032c0.008,0,0.008-0.008,0.016-0.008  c0.024-0.008,0.04-0.024,0.064-0.032l0.016-0.008c0.024-0.008,0.048-0.024,0.064-0.032c0.008,0,0,0,0.008-0.008  c2.424-1.184,4.816-2.408,7.2-3.664L371.88,475.372L371.88,475.372z M407.04,452.764c-5.512,4.24-11.264,8.288-17.104,12.048  l4.328,6.728c6.064-3.896,11.96-8.048,17.656-12.432L407.04,452.764L407.04,452.764z M437.928,424.596  c-4.72,5.096-9.72,10.056-14.856,14.736l5.392,5.912c1.52-1.384,3.016-2.784,4.504-4.208l0,0c0.112-0.112,0.224-0.216,0.336-0.328  c0.008-0.008,0.016-0.008,0.016-0.016c0.032-0.032,0.08-0.072,0.112-0.104c0.008-0.008,0.016-0.016,0.024-0.024  c0.032-0.032,0.064-0.064,0.096-0.096c0.008-0.008,0.024-0.024,0.032-0.032c0.016-0.016,0.04-0.04,0.056-0.056  c0.024-0.024,0.048-0.048,0.072-0.072c0.016-0.016,0.04-0.04,0.056-0.056s0.032-0.032,0.048-0.048  c0.032-0.024,0.048-0.048,0.08-0.08c0.016-0.016,0.032-0.032,0.048-0.048s0.048-0.048,0.064-0.064  c0.024-0.024,0.04-0.04,0.064-0.064c0.016-0.016,0.032-0.032,0.048-0.048c0.024-0.024,0.056-0.056,0.08-0.08  c0.016-0.016,0.024-0.024,0.048-0.04c0.024-0.024,0.048-0.048,0.08-0.072c0.016-0.016,0.032-0.032,0.048-0.048  c0.024-0.024,0.048-0.04,0.064-0.064c0.016-0.016,0.024-0.024,0.048-0.04c0.024-0.024,0.056-0.056,0.08-0.08  c0.008-0.008,0.024-0.024,0.032-0.032c0.032-0.032,0.064-0.056,0.088-0.088c0.008-0.008,0.024-0.024,0.032-0.032  c0.032-0.032,0.064-0.064,0.096-0.096c0.008-0.008,0.016-0.016,0.024-0.024c0.032-0.032,0.064-0.064,0.096-0.088  c0.008-0.008,0.008-0.008,0.016-0.016c0.032-0.032,0.064-0.064,0.104-0.096c0.008-0.008,0.016-0.016,0.024-0.024  c0.032-0.032,0.064-0.064,0.096-0.096c0.008-0.008,0.016-0.016,0.024-0.024c0.032-0.032,0.064-0.064,0.104-0.096  c0.008-0.008,0.016-0.016,0.016-0.016c0.04-0.032,0.072-0.072,0.104-0.104l0,0c0.04-0.04,0.072-0.072,0.112-0.112l0.016-0.016  c0.032-0.032,0.072-0.072,0.104-0.104l0.016-0.016c0.04-0.032,0.072-0.072,0.112-0.112l0.008-0.008  c0.08-0.08,0.152-0.152,0.232-0.232l0,0c0.04-0.04,0.08-0.08,0.12-0.112l0.008-0.008c0.04-0.04,0.08-0.08,0.12-0.112l0,0  c2.072-2.056,4.12-4.152,6.12-6.28l0,0c0.04-0.04,0.072-0.08,0.112-0.12l0.008-0.008c0.04-0.04,0.072-0.08,0.112-0.12l0.008-0.008  c0.072-0.08,0.144-0.16,0.216-0.232l0.016-0.016c0.032-0.04,0.064-0.072,0.104-0.112c0.008-0.008,0.016-0.016,0.016-0.016  c0.032-0.032,0.064-0.072,0.096-0.104c0.008-0.008,0.016-0.016,0.016-0.024c0.032-0.032,0.064-0.072,0.096-0.104  c0.008-0.008,0.008-0.008,0.016-0.016c0.032-0.032,0.064-0.064,0.088-0.096c0.008-0.008,0.016-0.016,0.024-0.024  c0.032-0.032,0.064-0.064,0.096-0.096c0.008-0.008,0.016-0.016,0.024-0.032c0.032-0.032,0.056-0.064,0.088-0.096  c0.016-0.016,0.016-0.016,0.032-0.032c0.024-0.024,0.048-0.056,0.08-0.08c0.016-0.016,0.024-0.024,0.04-0.048  c0.024-0.024,0.04-0.048,0.064-0.064c0.008-0.008,0.024-0.024,0.024-0.032L437.928,424.596L437.928,424.596z M463.68,391.652  c-3.8,5.808-7.904,11.536-12.184,17.008l6.304,4.928c0.552-0.704,1.096-1.408,1.64-2.12c0.008-0.008,0.008-0.016,0.016-0.016  c0.016-0.016,0.024-0.032,0.04-0.048c0.008-0.008,0.008-0.016,0.008-0.016c0.016-0.024,0.032-0.04,0.04-0.056  s0.008-0.016,0.024-0.024c0.008-0.016,0.024-0.032,0.032-0.04c0.008-0.016,0.016-0.016,0.024-0.032  c0.008-0.016,0.024-0.024,0.032-0.04c0.008-0.016,0.016-0.024,0.024-0.032c0.008-0.016,0.016-0.024,0.032-0.04  c0,0,0.016-0.024,0.024-0.032c0.008-0.016,0.024-0.032,0.032-0.04c0.016-0.024,0.032-0.04,0.056-0.072  c0.008-0.008,0.008-0.008,0.016-0.016c0.016-0.016,0.032-0.04,0.04-0.056c0.008-0.008,0.008-0.016,0.016-0.024  c0.008-0.016,0.032-0.04,0.04-0.048s0.016-0.016,0.016-0.024c0.008-0.016,0.024-0.032,0.04-0.048  c0.008-0.008,0.016-0.016,0.016-0.024c0.008-0.016,0.032-0.04,0.04-0.048s0.008-0.016,0.016-0.016  c0.016-0.024,0.024-0.032,0.048-0.064c0-0.008,0.008-0.008,0.008-0.016c0.08-0.104,0.152-0.2,0.224-0.304v-0.008  c0.024-0.024,0.032-0.048,0.056-0.072v-0.008c0.016-0.024,0.032-0.048,0.056-0.072l0,0c3.464-4.584,6.768-9.288,9.92-14.104  L463.68,391.652L463.68,391.652z M483.528,354.876c-2.768,6.368-5.848,12.696-9.144,18.808l7.04,3.8  c3.408-6.32,6.56-12.8,9.448-19.416L483.528,354.876L483.528,354.876z M496.888,315.276c-1.656,6.744-3.616,13.504-5.832,20.08  l7.584,2.56c0.496-1.472,0.976-2.936,1.448-4.424l0,0c0.008-0.032,0.016-0.056,0.032-0.088l0,0c0.008-0.032,0.016-0.056,0.032-0.088  l0,0c0.032-0.096,0.056-0.184,0.088-0.28l0,0c0.008-0.032,0.016-0.056,0.024-0.088c0,0,0-0.008,0.008-0.016  c0.008-0.032,0.016-0.048,0.024-0.08v-0.008c0.008-0.032,0.016-0.048,0.024-0.08v-0.008c0.032-0.096,0.056-0.184,0.088-0.272  l0.008-0.016c0.008-0.032,0.016-0.04,0.024-0.072c0-0.008,0.008-0.016,0.008-0.024c0.008-0.016,0.016-0.048,0.024-0.064  c0-0.008,0.008-0.016,0.008-0.024c0.008-0.016,0.016-0.048,0.016-0.064c0-0.008,0.008-0.016,0.008-0.024  c0.008-0.032,0.016-0.048,0.024-0.08v-0.008c0.008-0.032,0.016-0.056,0.032-0.088v-0.008c0.008-0.032,0.016-0.048,0.024-0.08  c0-0.008,0.008-0.016,0.008-0.024c0.008-0.016,0.016-0.048,0.016-0.064c0-0.008,0.008-0.024,0.008-0.032  c0.008-0.016,0.016-0.04,0.016-0.056c0-0.008,0.008-0.016,0.008-0.032c0.008-0.016,0.016-0.048,0.016-0.064  c0-0.008,0.008-0.016,0.008-0.024c0.016-0.064,0.032-0.112,0.056-0.176c0-0.008,0-0.008,0.008-0.016  c0.008-0.024,0.016-0.048,0.024-0.072c0-0.008,0.008-0.016,0.008-0.024c0.008-0.016,0.016-0.048,0.016-0.064  c0-0.008,0.008-0.016,0.008-0.024c0.008-0.016,0.016-0.048,0.024-0.064c0-0.008,0.008-0.016,0.008-0.024  c0.008-0.024,0.016-0.04,0.016-0.064c0-0.008,0.008-0.016,0.008-0.024c0.008-0.032,0.016-0.048,0.024-0.08v-0.008  c0.008-0.032,0.016-0.064,0.024-0.088V330.9c0.008-0.032,0.016-0.04,0.024-0.072c0-0.008,0.008-0.016,0.008-0.032  c0.008-0.016,0.016-0.04,0.016-0.056s0.008-0.024,0.008-0.032c0.008-0.016,0.008-0.04,0.016-0.056c0-0.008,0.008-0.024,0.008-0.032  c0.008-0.024,0.016-0.04,0.024-0.064c0-0.008,0.008-0.016,0.008-0.024c0.016-0.064,0.032-0.12,0.056-0.184v-0.008  c0.008-0.032,0.016-0.056,0.024-0.088c0,0,0-0.008,0.008-0.016c0.008-0.032,0.016-0.04,0.024-0.072c0-0.008,0.008-0.016,0.008-0.024  c0.008-0.016,0.016-0.056,0.024-0.072c0-0.008,0-0.016,0.008-0.024c0.008-0.024,0.016-0.048,0.024-0.072  c0-0.008,0-0.008,0.008-0.016c0.016-0.064,0.04-0.12,0.056-0.184l0,0c0.008-0.032,0.016-0.056,0.024-0.088c0-0.008,0-0.008,0-0.008  c0.008-0.04,0.016-0.048,0.024-0.08c0-0.008,0-0.016,0.008-0.016c0.008-0.032,0.016-0.04,0.024-0.072c0-0.008,0-0.016,0.008-0.016  c0.008-0.032,0.016-0.056,0.024-0.08c0,0,0,0,0-0.008c0.016-0.064,0.04-0.128,0.056-0.184l0,0c0.008-0.032,0.016-0.056,0.024-0.088  v-0.008c0.008-0.032,0.016-0.048,0.024-0.08v-0.008c0.008-0.032,0.016-0.056,0.024-0.088l0,0c0.04-0.128,0.072-0.248,0.112-0.376  l0,0c0.008-0.032,0.016-0.056,0.024-0.088v-0.008c0.656-2.24,1.288-4.48,1.88-6.744c0,0,0,0,0-0.008  c0.008-0.032,0.016-0.056,0.024-0.088c0-0.008,0-0.008,0-0.008c0.032-0.128,0.064-0.248,0.096-0.376c0-0.008,0-0.008,0.008-0.016  c0.008-0.032,0.008-0.04,0.016-0.072c0-0.008,0-0.016,0.008-0.016c0.008-0.024,0.008-0.048,0.016-0.072  c0-0.008,0.008-0.016,0.008-0.032c0.008-0.024,0.008-0.04,0.016-0.064c0-0.008,0.008-0.016,0.008-0.032  c0.008-0.024,0.008-0.04,0.016-0.064c0-0.016,0.008-0.024,0.008-0.04c0.008-0.024,0.016-0.048,0.016-0.072  c0-0.016,0.008-0.024,0.008-0.04c0-0.016,0.008-0.032,0.016-0.048c0-0.016,0.008-0.032,0.008-0.04  c0.008-0.016,0.008-0.032,0.008-0.048s0.008-0.032,0.016-0.048c0-0.016,0.008-0.024,0.008-0.04c0.008-0.016,0.008-0.04,0.016-0.056  c0-0.008,0-0.016,0.008-0.024c0.008-0.024,0.008-0.04,0.016-0.064l0,0c0.272-1.04,0.528-2.08,0.784-3.12L496.888,315.276  L496.888,315.276z M503.36,273.98c-0.496,6.944-1.288,13.936-2.368,20.792l7.904,1.24c0.2-1.264,0.384-2.536,0.568-3.808  c0-0.008,0-0.008,0-0.016c0-0.024,0.008-0.048,0.008-0.072c0-0.008,0-0.016,0-0.024c0-0.024,0.008-0.04,0.008-0.064  c0-0.008,0-0.016,0-0.024c0.008-0.072,0.024-0.144,0.032-0.216v-0.016c0-0.016,0.008-0.04,0.008-0.056c0-0.008,0-0.024,0.008-0.032  c0-0.016,0.008-0.032,0.008-0.056c0-0.016,0-0.024,0.008-0.04c0-0.016,0.008-0.032,0.008-0.048s0.008-0.032,0.008-0.056  c0-0.016,0-0.024,0.008-0.04c0.008-0.032,0.008-0.056,0.016-0.088v-0.008c0.008-0.032,0.008-0.048,0.008-0.08  c0-0.008,0-0.016,0-0.024c0-0.024,0.008-0.048,0.008-0.072c0-0.008,0-0.016,0-0.024c0.008-0.032,0.008-0.04,0.008-0.08  c0-0.008,0-0.016,0-0.016c0.016-0.136,0.04-0.264,0.056-0.4l0,0c0.544-3.992,0.984-8.016,1.344-12.064l0,0  c0-0.032,0.008-0.064,0.008-0.096v-0.008c0-0.032,0.008-0.048,0.008-0.088c0-0.008,0-0.008,0-0.016c0-0.032,0.008-0.064,0.008-0.096  l0,0c0-0.032,0.008-0.064,0.008-0.096c0-0.008,0-0.016,0-0.024c0-0.024,0.008-0.048,0.008-0.072c0-0.008,0-0.024,0-0.032  c0-0.016,0-0.04,0.008-0.056c0-0.016,0-0.024,0-0.04c0-0.016,0-0.04,0.008-0.056c0-0.016,0-0.032,0-0.04s0-0.032,0-0.04  c0.008-0.072,0.008-0.136,0.016-0.208v-0.016c0-0.024,0-0.048,0.008-0.072c0-0.008,0-0.008,0-0.016c0-0.024,0-0.048,0.008-0.072  c0-0.008,0-0.008,0-0.016c0.08-0.96,0.152-1.912,0.224-2.872L503.36,273.98L503.36,273.98z M510.832,231.396l-7.96,0.76  c0.656,6.896,1.032,13.928,1.12,20.896l8-0.096c-0.016-1.528-0.048-3.056-0.096-4.584c0-0.008,0,0,0-0.008  c0-0.104-0.008-0.208-0.008-0.312c0-0.008,0-0.016,0-0.024c0-0.024,0-0.04,0-0.064c0-0.008,0-0.016,0-0.024c0-0.024,0-0.04,0-0.064  c0-0.008,0-0.024,0-0.032c0-0.024,0-0.04,0-0.064v-0.016c0-0.04,0-0.088-0.008-0.128c0-0.008,0-0.024,0-0.032  c0-0.016,0-0.032,0-0.048s0-0.032,0-0.048s0-0.032,0-0.048s0-0.032,0-0.048s0-0.032,0-0.048s0-0.04,0-0.056c0-0.008,0-0.024,0-0.04  c0-0.032,0-0.056,0-0.096c0-0.008,0-0.016,0-0.016c0-0.024,0-0.048,0-0.072c0-0.008,0-0.024,0-0.032c0-0.016,0-0.04,0-0.064  c0-0.016,0-0.024,0-0.04c0-0.016,0-0.048,0-0.064c0-0.008,0-0.016,0-0.032c0-0.032,0-0.048,0-0.08v-0.016c0-0.032,0-0.064,0-0.096  v-0.008c0-0.032,0-0.048,0-0.088c0-0.008,0-0.016,0-0.024c0-0.024,0-0.056,0-0.08c0-0.008,0-0.008,0-0.016c0-0.032,0-0.056,0-0.088  v-0.008c0-0.104-0.008-0.2-0.008-0.304v-0.008c0-0.032,0-0.064,0-0.096v-0.008c-0.184-4.656-0.488-9.272-0.912-13.848l0,0  c-0.008-0.104-0.016-0.2-0.024-0.304v-0.008c0-0.032-0.008-0.056-0.008-0.088c0-0.008,0-0.016,0-0.024  c0-0.024-0.008-0.048-0.008-0.072c0-0.008,0-0.016,0-0.024c0-0.024-0.008-0.048-0.008-0.072c0-0.008,0-0.016,0-0.024  C510.832,231.452,510.832,231.436,510.832,231.396L510.832,231.396z M503.112,188.948l-7.72,2.096  c1.816,6.696,3.368,13.56,4.608,20.4l7.872-1.432c-0.696-3.824-1.472-7.616-2.336-11.376v-0.008  c-0.008-0.032-0.016-0.056-0.024-0.088v-0.008c-0.008-0.032-0.016-0.056-0.016-0.088v-0.008c-0.016-0.064-0.032-0.128-0.04-0.192  l0,0c-0.008-0.032-0.016-0.056-0.024-0.088c0-0.008,0-0.008,0-0.016c-0.008-0.032-0.008-0.04-0.016-0.08  c0-0.008,0-0.016-0.008-0.024c0-0.016-0.008-0.056-0.016-0.072c0-0.008,0-0.016-0.008-0.024c-0.008-0.024-0.008-0.04-0.016-0.064  c0-0.008,0-0.016-0.008-0.024c-0.008-0.032-0.008-0.048-0.016-0.08v-0.008c-0.008-0.032-0.016-0.056-0.024-0.088  c0-0.008,0-0.016-0.008-0.024c-0.008-0.024-0.008-0.04-0.016-0.064c0-0.008-0.008-0.024-0.008-0.032c0-0.016-0.008-0.04-0.016-0.056  c0-0.016-0.008-0.024-0.008-0.04c0-0.016-0.008-0.032-0.008-0.048s-0.008-0.024-0.008-0.04c0-0.016-0.008-0.032-0.008-0.048  s-0.008-0.024-0.008-0.04c-0.008-0.024-0.008-0.032-0.016-0.056s-0.016-0.048-0.016-0.08c0-0.008-0.008-0.032-0.008-0.04  c0-0.016-0.008-0.032-0.016-0.048c0-0.008-0.008-0.032-0.008-0.04c-0.008-0.016-0.008-0.032-0.016-0.056  c0-0.016-0.008-0.016-0.008-0.032c-0.008-0.016-0.008-0.04-0.016-0.056c0-0.008-0.008-0.024-0.008-0.032  c-0.008-0.016-0.008-0.04-0.016-0.056c0-0.008,0-0.016-0.008-0.024c-0.024-0.104-0.048-0.2-0.072-0.304c0-0.008,0,0,0-0.008  c-0.008-0.024-0.016-0.048-0.016-0.08v-0.008C504.408,193.868,503.776,191.404,503.112,188.948L503.112,188.948z M488.336,148.404  l-7.256,3.368c2.928,6.304,5.616,12.808,7.992,19.328l7.512-2.736c-0.424-1.168-0.856-2.328-1.296-3.488l-0.008-0.008  c-0.008-0.024-0.016-0.048-0.024-0.072c0-0.008,0,0,0-0.008c-0.04-0.104-0.08-0.2-0.12-0.304v-0.008  c-0.008-0.024-0.016-0.04-0.024-0.064c0-0.008-0.008-0.016-0.008-0.016c-0.008-0.016-0.016-0.04-0.024-0.064  c0-0.008-0.008-0.016-0.008-0.024c-0.008-0.016-0.016-0.032-0.024-0.056c0-0.008-0.008-0.024-0.008-0.032  c-0.008-0.016-0.016-0.04-0.024-0.056c0-0.008-0.008-0.016-0.008-0.024c-0.008-0.016-0.016-0.04-0.024-0.056s0-0.008-0.008-0.024  c-0.016-0.032-0.024-0.064-0.04-0.096c-0.008-0.016-0.008-0.032-0.016-0.04c-0.008-0.016-0.008-0.024-0.016-0.04  c-0.008-0.016-0.008-0.032-0.016-0.048s-0.008-0.032-0.016-0.04c-0.008-0.016-0.008-0.032-0.016-0.04  c-0.008-0.016-0.008-0.032-0.016-0.04c-0.008-0.016-0.008-0.024-0.016-0.04c-0.008-0.016-0.008-0.032-0.016-0.048  s-0.016-0.032-0.016-0.048c-0.008-0.008-0.008-0.024-0.016-0.032c-0.008-0.024-0.016-0.04-0.024-0.064  c0-0.008-0.008-0.016-0.008-0.024c-0.008-0.032-0.024-0.056-0.032-0.088v-0.008c-0.008-0.032-0.016-0.048-0.032-0.08  c0,0-0.008-0.016-0.008-0.024c-0.008-0.016-0.016-0.048-0.024-0.064c0-0.008-0.008-0.016-0.008-0.024  c-0.008-0.016-0.016-0.04-0.024-0.056c0-0.008-0.008-0.024-0.008-0.032c-0.008-0.016-0.016-0.048-0.024-0.064  c0,0-0.008-0.016-0.008-0.024c-0.008-0.024-0.016-0.048-0.032-0.072c0-0.008,0-0.008,0-0.008c-0.024-0.064-0.048-0.12-0.072-0.184  v-0.008c-0.016-0.032-0.024-0.056-0.032-0.08c0-0.008,0-0.008-0.008-0.016c-0.008-0.032-0.016-0.04-0.032-0.072  c0-0.008-0.008-0.016-0.008-0.024c-0.008-0.024-0.016-0.048-0.024-0.072c0-0.008-0.008-0.008-0.008-0.016  c-0.008-0.032-0.016-0.048-0.032-0.072l-0.008-0.008c-0.024-0.064-0.048-0.12-0.072-0.176c0-0.008,0-0.008-0.008-0.016  c-0.008-0.032-0.016-0.048-0.032-0.08l-0.008-0.016c-0.016-0.032-0.016-0.048-0.032-0.08c0-0.008,0-0.008,0-0.008  c-0.016-0.032-0.016-0.048-0.032-0.08l-0.008-0.016c-0.016-0.032-0.016-0.048-0.032-0.072c0,0,0-0.008-0.008-0.016  c-0.04-0.088-0.072-0.176-0.104-0.264l0,0c-0.008-0.032-0.024-0.056-0.032-0.088c0,0-0.008-0.008-0.008-0.016  c-0.008-0.032-0.016-0.048-0.032-0.08c0,0,0-0.008-0.008-0.008c-0.016-0.032-0.016-0.048-0.032-0.072c0-0.008,0-0.008-0.008-0.016  c-0.048-0.12-0.096-0.232-0.144-0.352l-0.008-0.008c-0.008-0.032-0.016-0.048-0.032-0.08c0-0.008,0-0.008-0.008-0.016  c-0.016-0.032-0.016-0.04-0.032-0.072c0-0.008-0.008-0.016-0.008-0.024c-0.016-0.032-0.016-0.04-0.032-0.072  c0-0.008,0-0.008-0.008-0.016c-0.04-0.088-0.072-0.168-0.104-0.264l-0.008-0.016c-0.008-0.024-0.024-0.048-0.032-0.072  c0-0.008,0-0.008-0.008-0.016c-0.016-0.032-0.016-0.04-0.032-0.072c0-0.008-0.008-0.008-0.008-0.016  c-0.008-0.032-0.016-0.048-0.032-0.072c0,0,0-0.008-0.008-0.008c-0.016-0.032-0.016-0.048-0.032-0.072c0-0.008,0-0.008-0.008-0.016  c-0.024-0.064-0.048-0.12-0.072-0.176v-0.008c-0.016-0.032-0.024-0.048-0.032-0.08l-0.008-0.016  c-0.008-0.016-0.024-0.048-0.024-0.064c0-0.008-0.008-0.016-0.008-0.032c-0.008-0.016-0.016-0.048-0.024-0.064  c0-0.008-0.008-0.016-0.008-0.016c-0.016-0.032-0.016-0.04-0.032-0.072c0-0.008,0-0.008-0.008-0.016  c-0.016-0.032-0.024-0.056-0.032-0.088l0,0c-0.016-0.032-0.024-0.056-0.032-0.088l-0.008-0.016  c-0.008-0.024-0.016-0.048-0.024-0.072c0-0.008-0.008-0.016-0.008-0.024c-0.008-0.016-0.016-0.048-0.024-0.056  s-0.008-0.024-0.016-0.032c-0.008-0.016-0.016-0.04-0.024-0.056c0-0.008-0.008-0.024-0.016-0.032  c-0.008-0.016-0.016-0.04-0.024-0.056c0-0.008-0.008-0.024-0.016-0.032c-0.008-0.024-0.016-0.048-0.032-0.072  c0-0.008,0-0.008-0.008-0.016c-0.016-0.032-0.024-0.056-0.04-0.088v-0.008c-0.016-0.032-0.016-0.04-0.032-0.072  c-0.008-0.008-0.008-0.024-0.016-0.032c-0.008-0.016-0.016-0.04-0.024-0.056c-0.008-0.008-0.008-0.024-0.016-0.032  c-0.008-0.016-0.016-0.032-0.024-0.048c-0.008-0.008-0.008-0.024-0.016-0.032c-0.008-0.016-0.016-0.04-0.024-0.056  c-0.008-0.008-0.008-0.024-0.016-0.032c-0.008-0.016-0.016-0.04-0.024-0.056c0-0.008-0.008-0.016-0.008-0.024  c-0.008-0.024-0.016-0.04-0.024-0.064c-0.008-0.016-0.008-0.024-0.016-0.04c-0.008-0.024-0.016-0.048-0.024-0.064  c-0.008-0.016-0.008-0.024-0.016-0.04c-0.008-0.016-0.016-0.032-0.016-0.04c-0.008-0.016-0.016-0.032-0.016-0.048  c-0.008-0.016-0.008-0.024-0.016-0.04c-0.008-0.016-0.016-0.032-0.024-0.048s-0.008-0.016-0.016-0.032  c-0.008-0.016-0.016-0.032-0.024-0.056c0-0.008-0.008-0.024-0.016-0.032c-0.008-0.016-0.016-0.032-0.024-0.048  c0-0.008-0.008-0.024-0.016-0.032c-0.008-0.016-0.016-0.032-0.024-0.056l0,0c-0.024-0.048-0.04-0.096-0.064-0.144v-0.008  c-0.008-0.024-0.016-0.04-0.024-0.064c0-0.008,0-0.008-0.008-0.016c-0.008-0.024-0.016-0.04-0.024-0.064  c0-0.008-0.008-0.016-0.008-0.024c-0.008-0.024-0.016-0.04-0.024-0.064c0-0.008,0-0.008-0.008-0.016  c-0.008-0.024-0.016-0.048-0.032-0.072v-0.008c-0.064-0.152-0.128-0.304-0.192-0.464l0,0  C490.84,153.924,489.608,151.148,488.336,148.404L488.336,148.404z M466.928,110.94l-6.584,4.544  c3.944,5.72,7.688,11.68,11.136,17.712l6.944-3.968c-1.024-1.792-2.072-3.576-3.136-5.336v-0.008  c-0.016-0.024-0.024-0.048-0.04-0.072c0,0-0.008-0.008-0.008-0.016c-0.016-0.024-0.024-0.04-0.04-0.064c0,0-0.008-0.008-0.008-0.016  c-0.016-0.024-0.024-0.04-0.04-0.064c0-0.008-0.008-0.016-0.016-0.024c-0.016-0.024-0.024-0.04-0.04-0.064  c0-0.008-0.008-0.008-0.008-0.016c-0.016-0.024-0.032-0.048-0.048-0.08l0,0c-0.016-0.024-0.032-0.056-0.048-0.08  c-0.008-0.008-0.008-0.016-0.016-0.024c-0.008-0.016-0.024-0.04-0.032-0.048c-0.008-0.016-0.016-0.024-0.024-0.04  s-0.016-0.024-0.024-0.04s-0.016-0.024-0.024-0.04s-0.016-0.024-0.024-0.032c-0.008-0.016-0.016-0.024-0.024-0.04  s-0.016-0.024-0.024-0.04s-0.016-0.032-0.024-0.04c0-0.008-0.016-0.024-0.016-0.024c-0.008-0.016-0.024-0.032-0.032-0.048  l-0.008-0.008c-0.024-0.04-0.056-0.088-0.08-0.128c-0.008-0.008,0,0-0.008-0.008c-0.016-0.024-0.024-0.04-0.04-0.056  c0-0.008-0.008-0.008-0.008-0.016c-0.016-0.024-0.024-0.04-0.04-0.064c-0.008-0.008,0-0.008-0.008-0.016  c-0.016-0.024-0.024-0.04-0.04-0.064l-0.008-0.008c-0.016-0.024-0.024-0.04-0.04-0.064c-0.008-0.008-0.008-0.008-0.008-0.016  c-0.016-0.024-0.024-0.04-0.04-0.064l0,0C472.024,118.548,469.528,114.708,466.928,110.94L466.928,110.94z M439.544,77.596  l-5.736,5.576c4.848,4.984,9.536,10.232,13.944,15.6l6.184-5.08c-1.696-2.064-3.424-4.104-5.184-6.112l0,0  c-0.04-0.048-0.08-0.096-0.12-0.144c0,0,0,0,0-0.008c-0.064-0.072-0.128-0.144-0.192-0.216l0,0c-0.04-0.048-0.08-0.088-0.12-0.136  c-0.008-0.008-0.008-0.008-0.016-0.016c-0.04-0.048-0.072-0.08-0.112-0.128l-0.008-0.008c-0.064-0.072-0.128-0.144-0.184-0.216  c-0.008-0.008-0.008-0.008-0.016-0.016c-0.032-0.04-0.072-0.088-0.104-0.12c-0.008-0.008-0.016-0.016-0.024-0.024  c-0.032-0.032-0.064-0.072-0.096-0.112c-0.008-0.008-0.016-0.016-0.024-0.024c-0.024-0.032-0.064-0.072-0.088-0.096  c-0.008-0.016-0.024-0.024-0.032-0.04c-0.024-0.024-0.032-0.04-0.056-0.064c-0.016-0.016-0.032-0.032-0.048-0.056  c-0.024-0.032-0.048-0.056-0.072-0.08c-0.016-0.016-0.024-0.032-0.04-0.048c-0.024-0.032-0.048-0.056-0.08-0.088  c-0.016-0.016-0.032-0.032-0.04-0.048c-0.024-0.024-0.04-0.048-0.064-0.072c-0.016-0.024-0.04-0.04-0.056-0.064  c-0.024-0.024-0.032-0.032-0.048-0.056c-0.024-0.024-0.04-0.048-0.064-0.072c-0.016-0.016-0.04-0.04-0.056-0.056  s-0.032-0.032-0.048-0.048c-0.024-0.024-0.048-0.056-0.072-0.08c-0.016-0.016-0.032-0.032-0.048-0.056  c-0.016-0.016-0.032-0.04-0.048-0.056c-0.024-0.024-0.048-0.056-0.072-0.08c-0.008-0.008-0.032-0.04-0.048-0.048  c-0.024-0.032-0.048-0.056-0.08-0.088c-0.016-0.016-0.024-0.024-0.04-0.04c-0.024-0.024-0.04-0.048-0.064-0.072  c-0.016-0.016-0.032-0.04-0.048-0.056c-0.024-0.024-0.04-0.048-0.064-0.072c-0.008-0.008-0.024-0.024-0.032-0.04  c-0.024-0.032-0.056-0.064-0.08-0.088c-0.008-0.008-0.024-0.032-0.04-0.04c-0.024-0.032-0.056-0.064-0.08-0.088  c-0.016-0.016-0.016-0.024-0.032-0.04c-0.024-0.032-0.056-0.056-0.08-0.088c-0.008-0.008-0.024-0.024-0.032-0.04  c-0.024-0.024-0.048-0.056-0.072-0.08c-0.008-0.008-0.016-0.016-0.024-0.032c-0.032-0.032-0.056-0.064-0.088-0.096  c-0.008-0.008-0.016-0.024-0.032-0.032c-0.032-0.032-0.056-0.064-0.088-0.096c-0.008-0.008-0.024-0.024-0.024-0.032  c-0.032-0.032-0.064-0.072-0.096-0.104c-0.008-0.008-0.008-0.008-0.016-0.016c-0.032-0.032-0.064-0.064-0.096-0.104  c-0.008-0.008-0.008-0.008-0.016-0.016c-0.032-0.032-0.064-0.072-0.096-0.104c-0.008-0.008-0.016-0.016-0.024-0.024  c-0.032-0.032-0.064-0.072-0.096-0.104c-0.008-0.008-0.016-0.016-0.024-0.024c-0.032-0.032-0.064-0.072-0.096-0.104  c-0.008-0.008-0.008-0.008-0.016-0.016c-0.032-0.04-0.064-0.072-0.104-0.112c-0.008-0.008,0,0-0.008-0.008  c-0.032-0.04-0.072-0.08-0.104-0.112c-0.008-0.008-0.008-0.008-0.016-0.016c-0.032-0.04-0.072-0.072-0.104-0.112  c0,0-0.008-0.008-0.008-0.016c-0.032-0.04-0.072-0.08-0.104-0.112l-0.008-0.008c-0.072-0.08-0.144-0.16-0.224-0.24l-0.008-0.008  c-0.04-0.04-0.072-0.08-0.112-0.12l-0.008-0.008c-0.04-0.04-0.072-0.08-0.112-0.12l0,0  C442.664,80.836,441.112,79.204,439.544,77.596L439.544,77.596z M406.976,49.292l-4.72,6.456  c5.608,4.096,11.104,8.488,16.352,13.048l5.248-6.04c-4.2-3.648-8.52-7.168-12.952-10.536l0,0c-0.136-0.104-0.264-0.2-0.4-0.304  l-0.008-0.008c-0.04-0.032-0.088-0.064-0.128-0.096l-0.008-0.008c-0.04-0.032-0.088-0.064-0.128-0.096l-0.008-0.008  c-0.08-0.064-0.168-0.128-0.248-0.192c-0.008-0.008-0.016-0.008-0.024-0.016c-0.04-0.032-0.08-0.056-0.112-0.088  c-0.016-0.008-0.008-0.008-0.024-0.016c-0.04-0.032-0.08-0.056-0.112-0.088c-0.016-0.008-0.008-0.008-0.024-0.016  c-0.032-0.024-0.072-0.056-0.104-0.08c-0.008-0.008-0.016-0.008-0.024-0.016c-0.032-0.024-0.072-0.056-0.104-0.08  c-0.016-0.008-0.016-0.016-0.032-0.024c-0.032-0.024-0.072-0.056-0.104-0.08c-0.016-0.008-0.024-0.016-0.04-0.032  c-0.032-0.024-0.072-0.048-0.104-0.08c-0.016-0.008-0.024-0.016-0.04-0.032c-0.032-0.024-0.056-0.04-0.088-0.064  c-0.016-0.008-0.04-0.024-0.048-0.04c-0.024-0.016-0.056-0.04-0.08-0.056c-0.016-0.008-0.032-0.024-0.048-0.032  c-0.032-0.008-0.064-0.032-0.096-0.056c-0.016-0.008-0.04-0.032-0.056-0.04c-0.032-0.024-0.056-0.04-0.088-0.064  c-0.016-0.016-0.04-0.032-0.056-0.04c-0.016-0.016-0.04-0.024-0.056-0.04c-0.032-0.024-0.056-0.04-0.088-0.064  c-0.016-0.008-0.032-0.024-0.048-0.032c-0.04-0.032-0.072-0.048-0.112-0.08c-0.008-0.008-0.024-0.016-0.032-0.024  c-0.024-0.016-0.048-0.032-0.072-0.056c0,0-0.008,0-0.008-0.008c-0.048-0.04-0.088-0.064-0.144-0.104  c0-0.008-0.008-0.016-0.008-0.024c-0.048-0.032-0.088-0.064-0.136-0.096c0,0-0.008-0.008-0.016-0.008  C407.56,49.716,407.272,49.5,406.976,49.292L406.976,49.292z M370.128,26.836l-3.568,7.16c6.208,3.096,12.368,6.504,18.304,10.12  l4.16-6.832c-1.896-1.152-3.8-2.28-5.728-3.392l0,0c-0.024-0.016-0.048-0.024-0.064-0.04c-0.008-0.008-0.008,0-0.016-0.008  c-0.016-0.008-0.04-0.016-0.064-0.032l0,0c-0.072-0.04-0.144-0.08-0.216-0.128l0,0c-0.024-0.008-0.04-0.024-0.056-0.032  c-0.008,0-0.008-0.008-0.016-0.008c-0.016-0.008-0.04-0.024-0.056-0.032c-0.008-0.008-0.016-0.008-0.024-0.016  c-0.016-0.008-0.032-0.016-0.056-0.032c-0.016-0.008-0.016-0.008-0.024-0.016c-0.016-0.008-0.032-0.016-0.048-0.024  s-0.024-0.016-0.04-0.024c-0.016-0.008-0.032-0.016-0.04-0.024s-0.032-0.016-0.04-0.024c-0.016-0.008-0.024-0.016-0.04-0.024  c-0.016-0.008-0.024-0.016-0.04-0.024c-0.024-0.016-0.048-0.024-0.072-0.04c-0.016-0.008-0.032-0.016-0.04-0.024  c-0.016-0.008-0.024-0.016-0.032-0.016c-0.016-0.008-0.032-0.016-0.04-0.024c-0.016-0.008-0.024-0.016-0.04-0.024  c-0.016-0.008-0.032-0.016-0.04-0.024c-0.016-0.008-0.024-0.016-0.04-0.024c-0.016-0.008-0.024-0.016-0.04-0.024  c-0.008-0.008-0.024-0.016-0.032-0.016c-0.016-0.008-0.04-0.024-0.048-0.032c-0.008-0.008-0.016-0.008-0.024-0.016  c-0.024-0.016-0.04-0.024-0.072-0.04c0,0-0.008,0-0.008-0.008c-0.024-0.016-0.056-0.032-0.08-0.048l0,0  c-0.024-0.016-0.048-0.024-0.08-0.04c-0.008,0-0.016-0.008-0.016-0.008c-0.024-0.008-0.04-0.024-0.064-0.032  c-0.008,0-0.016-0.008-0.024-0.016c-0.024-0.008-0.04-0.024-0.064-0.032c-0.008-0.008-0.016-0.008-0.024-0.016  c-0.016-0.008-0.048-0.024-0.064-0.032c-0.008,0-0.008-0.008-0.016-0.008c-0.032-0.008-0.056-0.016-0.072-0.032  c-0.008,0-0.008-0.008-0.008-0.008c-0.064-0.032-0.112-0.064-0.168-0.096l0,0c-0.024-0.016-0.056-0.032-0.08-0.048h-0.008  c-0.032-0.016-0.048-0.024-0.072-0.04c-0.008,0-0.008-0.008-0.008-0.008c-0.024-0.016-0.048-0.032-0.072-0.04l-0.016-0.008  c-0.032-0.016-0.04-0.024-0.072-0.04c0,0-0.008,0-0.008-0.008c-0.024-0.016-0.048-0.024-0.072-0.04h-0.008  c-0.088-0.048-0.168-0.096-0.248-0.144l0,0c-0.024-0.016-0.048-0.032-0.08-0.04h-0.008c-0.032-0.016-0.048-0.024-0.072-0.04  l-0.008-0.008c-0.176-0.096-0.336-0.184-0.504-0.28l0,0c-0.2-0.112-0.392-0.216-0.592-0.328l0,0  c-0.032-0.016-0.056-0.032-0.08-0.048l0,0c-0.168-0.096-0.336-0.184-0.504-0.28l0,0c-0.168-0.096-0.336-0.184-0.512-0.28l0,0  c-0.032-0.016-0.056-0.032-0.08-0.048l0,0c-0.032-0.016-0.048-0.024-0.08-0.04h-0.008C375.416,29.532,372.792,28.164,370.128,26.836  L370.128,26.836z M330.024,10.916l-2.312,7.656c6.648,2.008,13.296,4.32,19.752,6.888l2.952-7.432  C343.752,15.38,336.944,13.004,330.024,10.916L330.024,10.916z M287.8,2.012l-0.984,7.936c6.904,0.856,13.848,2.016,20.632,3.448  l1.648-7.824c-2.416-0.512-4.848-0.984-7.296-1.432l0,0c-0.032-0.008-0.064-0.008-0.096-0.016l0,0  c-0.096-0.016-0.192-0.032-0.296-0.056l0,0c-0.032-0.008-0.056-0.008-0.088-0.016h-0.016c-0.032-0.008-0.056-0.008-0.088-0.016l0,0  c-0.096-0.016-0.192-0.032-0.296-0.056h-0.008c-0.032-0.008-0.056-0.008-0.088-0.016h-0.008c-0.032-0.008-0.056-0.008-0.088-0.016  c-0.008,0-0.008,0-0.016,0c-0.032-0.008-0.056-0.008-0.088-0.016l0,0c-0.104-0.016-0.192-0.032-0.288-0.048  c-0.008,0-0.008,0-0.016,0c-0.032-0.008-0.048-0.008-0.08-0.016c0,0-0.008,0-0.016,0c-0.032-0.008-0.048-0.008-0.088-0.016  c-0.008,0-0.008,0-0.016,0c-0.096-0.016-0.192-0.032-0.288-0.048l0,0c-0.032-0.008-0.056-0.008-0.088-0.016  c-0.008,0-0.016,0-0.024,0c-0.032-0.008-0.048-0.008-0.08-0.016c-0.008,0-0.008,0-0.016,0c-0.032-0.008-0.056-0.008-0.088-0.016l0,0  c-0.064-0.008-0.128-0.024-0.192-0.032c0,0-0.008,0-0.016,0c-0.032-0.008-0.048-0.008-0.08-0.016c0,0-0.008,0-0.016,0  c-0.032-0.008-0.048-0.008-0.08-0.016c-0.008,0-0.016,0-0.024,0c-0.032-0.008-0.048-0.008-0.08-0.016c-0.008,0-0.008,0-0.016,0  c-0.064-0.008-0.128-0.024-0.192-0.032l0,0c-0.032-0.008-0.056-0.008-0.088-0.016c-0.008,0-0.016,0-0.016,0  c-0.032-0.008-0.048-0.008-0.08-0.016c-0.008,0-0.008,0-0.008,0c-0.04-0.008-0.056-0.008-0.088-0.016h-0.016  c-0.096-0.016-0.192-0.032-0.288-0.048c-0.008,0-0.016,0-0.016,0c-0.024,0-0.064-0.008-0.08-0.016c-0.008,0-0.016,0-0.024-0.008  c-0.016,0-0.056-0.008-0.072-0.008c-0.008,0-0.016,0-0.016,0c-0.032-0.008-0.056-0.008-0.088-0.016h-0.008  c-0.072-0.008-0.128-0.024-0.192-0.032c-0.008,0-0.008,0-0.008,0c-0.04-0.008-0.048-0.008-0.088-0.016c-0.008,0-0.016,0-0.016,0  c-0.032-0.008-0.04-0.008-0.08-0.016c-0.008,0-0.016,0-0.016,0c-0.032-0.008-0.056-0.008-0.088-0.016c0,0,0,0-0.008,0  c-0.096-0.016-0.192-0.032-0.296-0.048h-0.008c-0.032-0.008-0.056-0.008-0.088-0.016c-0.008,0-0.008,0-0.008,0  c-0.04-0.008-0.056-0.008-0.088-0.016h-0.016c-0.096-0.016-0.192-0.032-0.288-0.048h-0.008c-0.032-0.008-0.048-0.008-0.08-0.016  c-0.008,0-0.016,0-0.016,0c-0.032-0.008-0.048-0.008-0.088-0.016h-0.008c-0.128-0.024-0.264-0.04-0.392-0.064l0,0  c-0.032-0.008-0.064-0.008-0.096-0.016l0,0c-0.136-0.024-0.264-0.04-0.392-0.064l0,0c-0.2-0.032-0.392-0.064-0.592-0.088l0,0  C292.6,2.636,290.208,2.308,287.8,2.012L287.8,2.012z M256,0.052v8c3.336,0,6.664,0.064,9.968,0.2l0.312-7.992  c-0.664-0.024-1.328-0.048-1.992-0.072c-0.008,0-0.008,0-0.016,0c-0.024,0-0.04,0-0.064,0c-0.016,0-0.016,0-0.032,0  c-0.016,0-0.04,0-0.056,0s-0.032,0-0.048,0s-0.024,0-0.04,0c-0.032,0-0.056,0-0.088,0c-0.008,0-0.024,0-0.032,0  c-0.016,0-0.048,0-0.064,0c-0.008,0-0.016,0-0.032,0c-0.024,0-0.064,0-0.088,0h-0.008c-0.072,0-0.136,0-0.2-0.008h-0.008  c-0.032,0-0.056,0-0.096,0h-0.008c-1.888-0.056-3.776-0.088-5.672-0.096l0,0c-0.032,0-0.064,0-0.096,0c-0.008,0-0.008,0-0.016,0  c-0.032,0-0.056,0-0.088,0h-0.008c-0.072,0-0.136,0-0.2,0c-0.008,0-0.008,0-0.016,0c-0.032,0-0.048,0-0.088,0c0,0-0.008,0-0.016,0  c-0.072,0-0.128,0-0.192,0c-0.008,0-0.008,0-0.008,0c-0.032,0-0.056,0-0.08,0c-0.008,0-0.016,0-0.024,0c-0.016,0-0.056,0-0.072,0  c-0.008,0-0.016,0-0.024,0c-0.072,0-0.12,0-0.192,0c-0.008,0-0.016,0-0.024,0c-0.016,0-0.056,0-0.072,0c-0.008,0-0.016,0-0.024,0  c-0.024,0-0.048,0-0.072,0c-0.008,0-0.016,0-0.024,0c-0.032,0-0.056,0-0.096,0c0,0-0.016,0-0.024,0c-0.016,0-0.056,0-0.072,0  c-0.008,0-0.024,0-0.032,0c-0.016,0-0.056,0-0.072,0c-0.008,0-0.016,0-0.024,0C256.064,0.052,256.032,0.052,256,0.052L256,0.052z"/>
<g>
</g>
<g>
</g>
<g>
</g>
<g>
</g>
<g>
</g>
<g>
</g>
<g>
</g>
<g>
</g>
<g>
</g>
<g>
</g>
<g>
</g>
<g>
</g>
<g>
</g>
<g>
</g>
<g>
</g>
</svg>
