<?xml version="1.0" encoding="iso-8859-1"?>
<!-- Generator: Adobe Illustrator 19.0.0, SVG Export Plug-In . SVG Version: 6.00 Build 0)  -->
<svg version="1.1" id="Capa_1" xmlns="http://www.w3.org/2000/svg" xmlns:xlink="http://www.w3.org/1999/xlink" x="0px" y="0px"
	 viewBox="0 0 512 512" style="enable-background:new 0 0 512 512;" xml:space="preserve">
<path style="fill:#F3F3F3;" d="M477.152,152.892c-122.144-122.144-320.176-122.144-442.304,0L0,187.724l34.848,34.848
	c122.144,122.144,320.176,122.144,442.304,0L512,187.724L477.152,152.892z"/>
<rect x="233.584" y="251.948" style="fill:#464646;" width="44.832" height="82.384"/>
<path style="fill:#FFCC5B;" d="M256,450.684L256,450.684c-15.92,0-28.816-12.896-28.816-28.816v-87.52h57.648v87.52
	C284.816,437.772,271.92,450.684,256,450.684z"/>
<circle style="fill:#464646;" cx="256" cy="188.908" r="114.192"/>
<circle style="fill:#4B9FD8;" cx="256" cy="188.908" r="80.944"/>
<circle style="fill:#2B71B8;" cx="256" cy="188.908" r="48"/>
<g>
	<circle style="fill:#FFFFFF;" cx="221.984" cy="154.892" r="18.224"/>
	<circle style="fill:#FFFFFF;" cx="245.84" cy="178.732" r="7.568"/>
</g>
<path style="fill:#525252;" d="M256,293.788c-57.824,0-104.88-47.056-104.88-104.88S198.176,84.028,256,84.028
	s104.88,47.056,104.88,104.88S313.84,293.788,256,293.788z M256,98.62c-49.776,0-90.288,40.496-90.288,90.288
	s40.496,90.288,90.288,90.288s90.272-40.496,90.272-90.288S305.792,98.62,256,98.62z"/>
<path style="fill:#FDBC4B;" d="M284.816,421.868v-87.52h-30.704c-4.816,0-8.704,3.904-8.704,8.704c0,4.816,3.904,8.704,8.704,8.704
	h11.648c4.032,0,7.312,3.296,7.28,7.328v0.096c0,0.176,0,0.352,0.016,0.528c0.24,3.968-2.912,7.312-6.896,7.312h-18.48
	c-4.72,0-8.944,3.536-9.184,8.24c-0.256,5.024,3.728,9.184,8.704,9.184h22.528c4.048,0,7.328,3.296,7.296,7.344v0.512v0.112
	c0.032,4.256-3.44,7.744-7.696,7.744h-11.376c-4.72,0-8.944,3.536-9.184,8.24c-0.256,5.024,3.728,9.184,8.704,9.184h12.784
	c4.208,0,7.344,3.536,7.296,7.744c0,0.032,0,0.064,0,0.112c0,0.032,0,0.064,0,0.112c0.048,4.208-3.088,7.744-7.296,7.744H255.68
	c-4.72,0-8.944,3.536-9.184,8.24c-0.256,4.752,3.344,8.608,7.936,9.024c0.528,0.032,1.024,0.16,1.568,0.16
	C271.92,450.684,284.816,437.772,284.816,421.868z"/>
<g>
	<path style="fill:#FFFFFF;" d="M78.624,232.636l48.032,36.8c6,4.592,14.592,3.472,19.2-2.544c4.608-6,3.456-14.592-2.544-19.2
		l-48.032-36.8c-6-4.592-14.592-3.472-19.2,2.544C71.488,219.436,72.624,228.028,78.624,232.636z"/>
	<path style="fill:#FFFFFF;" d="M49.952,210.668l1.36,1.04c6,4.592,14.592,3.472,19.2-2.544c4.608-6,3.456-14.592-2.544-19.2
		l-1.36-1.04c-6-4.592-14.592-3.472-19.2,2.544S43.952,206.06,49.952,210.668z"/>
</g>
<g>
	<path style="fill:#E8E8E8;" d="M446.736,149.052l-47.312-37.712c-5.92-4.72-14.528-3.744-19.248,2.176
		c-4.72,5.92-3.744,14.528,2.176,19.248l47.312,37.712c5.92,4.72,14.528,3.744,19.248-2.176
		C453.632,162.364,452.64,153.756,446.736,149.052z"/>
	<path style="fill:#E8E8E8;" d="M474.976,171.548l-1.344-1.072c-5.92-4.72-14.528-3.744-19.248,2.176
		c-4.72,5.92-3.744,14.528,2.176,19.248l1.344,1.072c5.92,4.72,14.528,3.744,19.248-2.176S480.896,176.268,474.976,171.548z"/>
</g>
<g>
</g>
<g>
</g>
<g>
</g>
<g>
</g>
<g>
</g>
<g>
</g>
<g>
</g>
<g>
</g>
<g>
</g>
<g>
</g>
<g>
</g>
<g>
</g>
<g>
</g>
<g>
</g>
<g>
</g>
</svg>
