<svg id="flat" height="512" viewBox="0 0 512 512" width="512" xmlns="http://www.w3.org/2000/svg"><path d="m360 240v80a168.021 168.021 0 0 1 -159.93994 167.81006q-4.00488.19482-8.06006.18994a168.01768 168.01768 0 0 1 -31.04-2.87012 166.12931 166.12931 0 0 1 -47.56006-16.62011 168.23754 168.23754 0 0 1 -89.39994-148.50977v-80a167.28884 167.28884 0 0 1 38.8501-107.44995q4.91967-5.91028 10.3599-11.34005a168.2859 168.2859 0 0 1 151.93014-45.94q7.91967 1.57507 15.56982 3.8999a165.46816 165.46816 0 0 1 23.32031 9.02 168.13011 168.13011 0 0 1 95.96973 151.8101z" fill="#b9cd2a"/><path d="m200 104h-16v-5.08789a72.494 72.494 0 0 1 21.37207-51.59863 8.97 8.97 0 0 0 -6.34277-15.31348h-37.14063a20.83107 20.83107 0 0 0 -18.7334 11.57812 36.74411 36.74411 0 0 1 -33.04394 20.42188h-30.11133v-16h30.11133a20.83107 20.83107 0 0 0 18.7334-11.57812 36.74411 36.74411 0 0 1 33.04394-20.42188h37.14063a24.97109 24.97109 0 0 1 17.65722 42.62793 56.59429 56.59429 0 0 0 -16.68652 40.28418z" fill="#b1712c"/><path d="m207.98 426.62988a33.90161 33.90161 0 0 1 3.09007 28.16012l-11.01 33.02q-4.00489.19488-8.06007.19a168.01768 168.01768 0 0 1 -31.04-2.87012l10.71-32.1499a29.71715 29.71715 0 0 0 -2.71-24.71l-7.78-12.97022a29.73972 29.73972 0 0 1 0-30.5996l6.4201-10.70016a29.7351 29.7351 0 0 0 1.0999-28.6001l-9.3999-18.7998a29.73505 29.73505 0 0 1 1.0998-28.6001l5.31006-8.8501a29.7386 29.7386 0 0 0 -1.70996-33.1499 29.74057 29.74057 0 0 1 -1.71-33.1499l6.67-11.1201a29.717 29.717 0 0 0 2.71-24.71l-8.52978-25.61011a29.702 29.702 0 0 1 0-18.82007l12.85978-38.58982 40-8-12.68994 44.40991a33.92567 33.92567 0 0 0 1.43994 22.67017l11.53 26.90992a33.87513 33.87513 0 0 1 -4.04 33.68994l-.81006 1.08008a33.87568 33.87568 0 0 0 -4.34985 32.92993l1.83984 4.62012a33.87367 33.87367 0 0 1 -4.34985 32.93017 33.911 33.911 0 0 0 -3.2 35.5l6.30981 12.61963a33.91433 33.91433 0 0 1 -1.25 32.6001l-3.97 6.6001a33.90093 33.90093 0 0 0 0 34.87988z" fill="#a2ba18"/><path d="m115.43994 411.27a48.17517 48.17517 0 0 1 3.63013 43.0498l-5.67017 14.19a167.89036 167.89036 0 0 1 -40.79-30.32959l2.19019-6.57032a31.40985 31.40985 0 0 0 -4.67017-28.77 31.4004 31.4004 0 0 1 0-37.67968 26.60833 26.60833 0 0 0 2.51022-27.87021l-4.09009-8.2002a56.08392 56.08392 0 0 1 0-50.17968l2.87988-5.78028a31.02678 31.02678 0 0 0 -2.91992-32.46 30.957 30.957 0 0 1 -1.79-34.54 56.09769 56.09769 0 0 0 5.12008-46.60984l-8.99-26.97q4.91968-5.91023 10.35991-11.34a168.20644 168.20644 0 0 1 46.73-33.01l-6.43 22.53a88.89323 88.89323 0 0 0 5.97 64.22v.02a30.77734 30.77734 0 0 1 -2.91992 32.28l-1.04 1.39014a34.05258 34.05258 0 0 0 -4.22 33.5498c.17993.41992.34985.84009.53 1.25a43.35738 43.35738 0 0 1 -2.86008 38.93994l-.3.51026a44.12585 44.12585 0 0 0 -1.39 43.10009c1.17993 2.28956 2.37988 4.58985 3.54 6.83985a45.17733 45.17733 0 0 1 1.82983 37.5498l-.67993 1.7002a43.02431 43.02431 0 0 0 3.1001 38.58984c.13.2002.25007.3999.36994.60008z" fill="#a2ba18"/><path d="m318.10986 312.48-14.10986 23.52h-48l14.50977-14.50977a27.6351 27.6351 0 0 0 2.03027-36.81l-6.48-8.1001a27.66733 27.66733 0 0 1 -4.08004-27.54013l4.25-10.62012a27.6454 27.6454 0 0 0 -3.5498-26.84985l-4.4302-5.90011a27.6574 27.6574 0 0 1 -2.60986-28.94992l12.5-25a27.715 27.715 0 0 0 2.64013-16.27l-6.75-47.26a168.46289 168.46289 0 0 1 57.4795 44.8l-18.71977 37.43993a27.60537 27.60537 0 0 0 1.02 26.58008l6.62988 11.05a27.65793 27.65793 0 0 1 -1.58984 30.81006 27.62818 27.62818 0 0 0 .52978 33.84961l6.61035 8.2705a27.629 27.629 0 0 1 2.11969 31.48982z" fill="#a2ba18"/><path d="m168 336h320v.00015a151.99985 151.99985 0 0 1 -151.99985 151.99985h-16.0003a151.99985 151.99985 0 0 1 -151.99985-151.99985z" fill="#cde046"/><path d="m200 336v.00012a119.99988 119.99988 0 0 0 119.99988 119.99988h16.00024a119.99988 119.99988 0 0 0 119.99988-119.99988v-.00012z" fill="#ef5e3b"/><g fill="#e04f2b"><path d="m320 392h16v24h-16z"/><path d="m282 386.889h24v16.001h-24z" transform="matrix(.5 -.866 .866 .5 -194.983 452.072)"/><path d="m257.11 362h24v16.001h-24z" transform="matrix(.866 -.5 .5 .866 -148.94 184.113)"/><path d="m354 382.889h16.001v24h-16.001z" transform="matrix(.866 -.5 .5 .866 -148.944 233.899)"/><path d="m378.889 358h16.001v24h-16.001z" transform="matrix(.5 -.866 .866 .5 -126.983 520.062)"/></g><path d="m240.71 79.16992-1.11991 3.36008a43.04819 43.04819 0 0 1 -40.89009 29.47h-54.7v-16h54.7a27.06915 27.06915 0 0 0 25.71-18.53l.73023-2.2q7.91958 1.5751 15.56977 3.89992z" fill="#93ad10"/></svg>