<svg id="Capa_1" enable-background="new 0 0 512 512" height="512" viewBox="0 0 512 512" width="512" xmlns="http://www.w3.org/2000/svg"><g><path d="m512 212.575c0 46.635-37.81 84.44-84.45 84.44h-343.1c-46.64 0-84.45-37.805-84.45-84.44 0-36.896 23.67-68.242 56.66-79.731-2.71-41.495 30.2-75.981 71.1-75.981 11.02 0 21.45 2.51 30.76 6.969 16.4-37.575 53.87-63.832 97.48-63.832s81.08 26.257 97.48 63.832c9.31-4.46 19.74-6.969 30.76-6.969 40.99 0 73.81 34.576 71.11 75.981 32.98 11.489 56.65 42.835 56.65 79.731z" fill="#a8ebfa"/><path d="m512 212.575c0 46.635-37.81 84.44-84.45 84.44h-171.55v-297.015c43.61 0 81.08 26.257 97.48 63.832 9.31-4.46 19.74-6.969 30.76-6.969 40.99 0 73.81 34.576 71.11 75.981 32.98 11.489 56.65 42.835 56.65 79.731z" fill="#7dd5f4"/><path d="m331.4 491.714h-147.957c-15.609 0-28.262-12.653-28.262-28.262v-280.712c0-15.609 12.653-28.262 28.262-28.262h147.957c15.609 0 28.262 12.653 28.262 28.262v280.711c.001 15.609-12.653 28.263-28.262 28.263z" fill="#f0f7ff"/><path d="m324.92 134.364h-137.84c-28.32 0-51.58 22.927-51.58 51.574v261.909c0 35.376 28.78 64.153 64.16 64.153h112.68c35.38 0 64.16-28.777 64.16-64.153v-261.909c0-28.366-22.99-51.574-51.58-51.574zm21.58 313.483c0 18.838-15.32 34.156-34.16 34.156h-112.68c-18.84 0-34.16-15.318-34.16-34.156v-261.909c0-4.109 1.14-8.039 3.27-11.429l11.63 13.568c11.87 13.648 29.08 21.477 47.16 21.477h56.88c18.08 0 35.29-7.829 47.16-21.477l11.55-13.699c2.18 3.42 3.35 7.399 3.35 11.559z" fill="#5e54ac"/><path d="m308.42 343.27-41.81 41.805c-2.91 2.92-6.76 4.389-10.61 4.389-3.83 0-7.68-1.46-10.61-4.389l-41.81-41.805c-5.85-5.859-5.85-15.358 0-21.217 5.86-5.849 15.36-5.849 21.22 0l16.2 16.207v-68.712c0-8.279 6.72-14.998 15-14.998s15 6.719 15 14.998v68.712l16.2-16.208c5.86-5.849 15.36-5.849 21.22 0 5.85 5.86 5.85 15.359 0 21.218z" fill="#df5ccb"/><g><path d="m321.5 437.009c0 8.279-6.72 14.998-15 14.998h-101c-8.28 0-15-6.719-15-14.998s6.72-14.998 15-14.998h101c8.28 0 15 6.719 15 14.998z" fill="#4793ff"/></g><path d="m376.5 185.938v261.909c0 35.376-28.78 64.153-64.16 64.153h-56.34v-29.996h56.34c18.84 0 34.16-15.318 34.16-34.156v-261.91c0-4.159-1.17-8.139-3.35-11.559l-11.55 13.699c-11.87 13.648-29.08 21.477-47.16 21.477h-28.44v-75.191h68.92c28.59 0 51.58 23.208 51.58 51.574z" fill="#453d81"/><path d="m266.61 385.075c-2.91 2.92-6.76 4.389-10.61 4.389v-134.914c8.28 0 15 6.719 15 14.998v68.712l16.2-16.208c5.86-5.849 15.36-5.849 21.22 0 5.85 5.859 5.85 15.358 0 21.217z" fill="#c63eba"/><path d="m321.5 437.009c0 8.279-6.72 14.998-15 14.998h-50.5v-29.996h50.5c8.28 0 15 6.719 15 14.998z" fill="#525cdd"/></g></svg>