<?xml version="1.0" encoding="iso-8859-1"?>
<!-- Generator: Adobe Illustrator 19.0.0, SVG Export Plug-In . SVG Version: 6.00 Build 0)  -->
<svg version="1.1" id="Capa_1" xmlns="http://www.w3.org/2000/svg" xmlns:xlink="http://www.w3.org/1999/xlink" x="0px" y="0px"
	 viewBox="0 0 512.001 512.001" style="enable-background:new 0 0 512.001 512.001;" xml:space="preserve">
<path style="fill:#FA7E37;" d="M417.484,73.571c-12.263-8.152-21.377-20.243-25.838-34.276l-0.567-1.783
	c-2.66-8.367-10.429-14.05-19.209-14.05H140.132c-8.78,0-16.549,5.683-19.209,14.05l-0.567,1.784
	c-4.46,14.033-13.575,26.124-25.837,34.275h-0.001c-5.62,3.736-8.998,10.037-8.998,16.786v354.748
	c0,6.749,3.377,13.049,8.998,16.786l0,0c12.262,8.152,21.377,20.243,25.837,34.276l0.567,1.784
	c2.66,8.367,10.429,14.05,19.209,14.05h231.738c8.78,0,16.549-5.683,19.209-14.05l0.567-1.784
	c4.461-14.033,13.575-26.124,25.837-34.276l0,0c5.62-3.736,8.997-10.037,8.997-16.786V90.357
	C426.481,83.608,423.104,77.307,417.484,73.571L417.484,73.571z"/>
<path style="fill:#F46B27;" d="M417.484,73.571c-12.263-8.152-21.378-20.243-25.838-34.276l-0.567-1.783
	c-2.659-8.367-10.429-14.05-19.209-14.05h-49.519c8.779,0,16.549,5.683,19.209,14.05l0.567,1.783
	c4.461,14.033,13.575,26.124,25.838,34.276c5.62,3.736,8.997,10.037,8.997,16.786v354.748c0,6.749-3.377,13.05-8.997,16.786l0,0
	c-12.263,8.152-21.377,20.243-25.838,34.276l-0.567,1.784C338.901,506.317,331.131,512,322.351,512h49.518
	c8.78,0,16.55-5.683,19.209-14.05l0.567-1.784c4.461-14.033,13.575-26.124,25.837-34.276h0.001
	c5.62-3.736,8.997-10.037,8.997-16.786V90.357C426.481,83.608,423.104,77.307,417.484,73.571z"/>
<path style="fill:#E5EBF6;" d="M86.538,451.412c1.395,4.231,4.17,7.945,7.98,10.478h0.001c12.262,8.152,21.377,20.243,25.837,34.276
	l0.567,1.784c2.66,8.367,10.429,14.05,19.209,14.05H371.87c8.78,0,16.55-5.683,19.209-14.05l0.567-1.784
	c4.461-14.033,13.575-26.124,25.837-34.276h0.001c3.81-2.533,6.585-6.247,7.98-10.478H86.538z"/>
<path style="fill:#D1DCED;" d="M419.061,460.715c0.305-0.249,0.602-0.506,0.891-0.771c0.094-0.086,0.189-0.17,0.281-0.258
	c0.372-0.354,0.731-0.719,1.073-1.099c0.017-0.019,0.032-0.039,0.049-0.058c0.325-0.364,0.633-0.741,0.93-1.126
	c0.068-0.088,0.134-0.178,0.2-0.267c0.269-0.362,0.527-0.731,0.771-1.109c0.034-0.052,0.069-0.103,0.102-0.155
	c0.286-0.453,0.556-0.917,0.805-1.391c0.003-0.005,0.005-0.01,0.007-0.015c0.238-0.454,0.456-0.92,0.659-1.391
	c0.03-0.069,0.059-0.139,0.089-0.209c0.199-0.478,0.384-0.962,0.547-1.454h-49.519c-1.395,4.231-4.17,7.945-7.98,10.478l0,0
	c-12.263,8.152-21.377,20.243-25.838,34.276l-0.567,1.784c-2.66,8.367-10.43,14.05-19.21,14.05h49.518
	c1.098,0,2.179-0.089,3.237-0.261s2.092-0.426,3.094-0.758c0.501-0.166,0.994-0.351,1.479-0.555c0.969-0.407,1.901-0.889,2.79-1.439
	c0.445-0.275,0.878-0.567,1.3-0.875c2.951-2.158,5.316-5.117,6.752-8.626c0.205-0.501,0.391-1.014,0.558-1.537l0.567-1.784
	c1.394-4.385,3.242-8.581,5.499-12.526c1.354-2.367,2.855-4.644,4.494-6.817c0.546-0.724,1.108-1.438,1.684-2.139
	c2.305-2.804,4.848-5.417,7.605-7.806c2.068-1.792,4.256-3.459,6.556-4.988h0.001c0.429-0.285,0.84-0.59,1.241-0.904
	C418.839,460.898,418.949,460.806,419.061,460.715z"/>
<path style="fill:#FFBF14;" d="M400.963,29.645H111.039c-4.729,0-8.563-3.834-8.563-8.563V8.563c0-4.729,3.834-8.563,8.563-8.563
	h289.923c4.729,0,8.563,3.834,8.563,8.563v12.519C409.526,25.812,405.692,29.645,400.963,29.645z"/>
<ellipse style="fill:#FFDC6C;" cx="256.001" cy="241.85" rx="106.63" ry="143.31"/>
<path style="fill:#F7CE5E;" d="M256.001,98.542c-8.437,0-16.643,1.323-24.514,3.812c47.073,14.885,82.116,71.689,82.116,139.499
	s-35.043,124.613-82.116,139.499c7.871,2.489,16.077,3.812,24.514,3.812c58.89,0,106.63-64.162,106.63-143.311
	C362.631,162.705,314.891,98.542,256.001,98.542z"/>
<path style="fill:#FFFFFF;" d="M360.989,281.452H151.013c-9.768,0-17.686-7.918-17.686-17.686v-43.825
	c0-9.768,7.918-17.686,17.686-17.686H360.99c9.768,0,17.686,7.918,17.686,17.686v43.825
	C378.676,273.533,370.757,281.452,360.989,281.452z"/>
<g>
	<path style="fill:#FA7E37;" d="M183.784,221.766c0-2.026,2.152-3.039,4.304-3.039h12.977c6.331,0,12.662,2.279,12.662,11.269
		c0,5.128-2.026,8.483-5.381,9.939c3.862,1.456,6.52,3.798,6.52,10.129v1.329c0,10.003-5.571,13.611-12.725,13.611h-14.054
		c-2.659,0-4.304-1.393-4.304-2.975L183.784,221.766L183.784,221.766z M193.596,236.136h6.647c2.406,0,3.609-2.216,3.609-4.368
		c0-2.216-1.203-4.431-3.609-4.431h-6.647V236.136z M199.927,256.394c3.165,0,5.065-1.772,5.065-5.824v-1.013
		c0-4.304-1.9-5.824-5.065-5.824h-6.33v12.661H199.927z"/>
	<path style="fill:#FA7E37;" d="M233.039,238.036h9.496c1.899,0,2.975,1.836,2.975,3.862c0,1.71-0.886,3.735-2.975,3.735h-9.496
		v10.762h16.966c1.9,0,2.975,2.026,2.975,4.368c0,2.026-0.885,4.241-2.975,4.241h-22.537c-2.153,0-4.304-1.013-4.304-3.039v-40.2
		c0-2.026,2.152-3.039,4.304-3.039h22.537c2.09,0,2.975,2.216,2.975,4.242c0,2.342-1.075,4.368-2.975,4.368h-16.966V238.036z"/>
	<path style="fill:#FA7E37;" d="M270.33,238.036h9.496c1.899,0,2.975,1.836,2.975,3.862c0,1.71-0.886,3.735-2.975,3.735h-9.496
		v10.762h16.966c1.9,0,2.975,2.026,2.975,4.368c0,2.026-0.885,4.241-2.975,4.241h-22.537c-2.153,0-4.304-1.013-4.304-3.039v-40.2
		c0-2.026,2.152-3.039,4.304-3.039h22.537c2.09,0,2.975,2.216,2.975,4.242c0,2.342-1.075,4.368-2.975,4.368H270.33V238.036z"/>
	<path style="fill:#FA7E37;" d="M297.745,221.703c0-1.583,1.202-2.976,3.038-2.976h13.104c8.673,0,15.574,3.229,15.574,13.548
		c0,7.09-3.229,11.142-7.66,12.851l7.723,13.991c0.254,0.38,0.317,0.823,0.317,1.139c0,2.469-3.292,5.128-6.204,5.128
		c-1.266,0-2.469-0.506-3.165-1.836l-8.673-16.84h-4.179v15.257c0,2.026-2.469,3.039-4.938,3.039s-4.937-1.013-4.937-3.039
		L297.745,221.703L297.745,221.703z M307.62,227.337v11.775h6.267c3.545,0,5.698-1.456,5.698-5.888c0-4.431-2.153-5.888-5.698-5.888
		h-6.267V227.337z"/>
</g>
<path style="fill:#EDA60A;" d="M400.963,0h-40.955v29.645h40.955c4.729,0,8.563-3.834,8.563-8.563V8.563
	C409.526,3.834,405.692,0,400.963,0z"/>
<path style="fill:#F4F2ED;" d="M360.989,202.254h-31.148v79.197h31.148c9.768,0,17.687-7.918,17.687-17.686V219.94
	C378.676,210.173,370.757,202.254,360.989,202.254z"/>
<g>
</g>
<g>
</g>
<g>
</g>
<g>
</g>
<g>
</g>
<g>
</g>
<g>
</g>
<g>
</g>
<g>
</g>
<g>
</g>
<g>
</g>
<g>
</g>
<g>
</g>
<g>
</g>
<g>
</g>
</svg>
