<svg id="Capa_1" enable-background="new 0 0 497 497" height="512" viewBox="0 0 497 497" width="512" xmlns="http://www.w3.org/2000/svg"><g><g><path clip-rule="evenodd" d="m140.869 300.899 17.575 29.932 37.675 25.317 45.014-45.014-20.214-31.279-35.065-23.969z" fill="#edf3f4" fill-rule="evenodd"/></g><g><path clip-rule="evenodd" d="m177.454 247.486 8.401 8.401 55.279 55.248 8.401 8.401c2.867 2.896 7.483 2.924 10.264.201l177.218-172.798-34.033-58.144-52.927-28.814-172.804 177.212c-2.724 2.809-2.667 7.397.201 10.293z" fill="#b5c4cf" fill-rule="evenodd"/></g><g><path d="m248.186 256.305c-1.919 0-3.839-.732-5.303-2.196-2.929-2.93-2.929-7.678 0-10.607l110.643-110.642c2.929-2.928 7.678-2.928 10.606 0 2.929 2.93 2.929 7.678 0 10.607l-110.643 110.641c-1.464 1.464-3.384 2.197-5.303 2.197z" fill="#edf3f4"/></g><g><path clip-rule="evenodd" d="m160.05 397.63c-11.93 11.96-15.8 23.43-13.16 38.39 1.18 6.63.72 6.14-6.91 9.75l-124.03 45.9-14.11 5.22c-.69.2-1.2.12-1.52-.2-.31-.31-.43-.86-.2-1.52l5.21-14.1 45.88-124.03c3.62-7.63 3.16-8.12 9.75-6.94 15 2.66 26.47-1.21 38.39-13.16l10.44-10.41 60.7 60.7z" fill="#edf3f4" fill-rule="evenodd"/></g><g><path clip-rule="evenodd" d="m382.626 27.065 34.979 46.733 52.583 40.798 9.691-9.461c23.597-22.994 22.564-62.158-1.634-86.356-24.227-24.227-63.364-25.259-86.387-1.663z" fill="#b5c4cf" fill-rule="evenodd"/></g><g><path clip-rule="evenodd" d="m410.724 126.524-167.871 163.71-9.318 9.089c-.774.745-1.663 1.29-2.609 1.606l10.207 10.207 2.695 2.724 5.706 5.677c2.867 2.896 7.483 2.924 10.264.201l177.218-172.798-23.31-23.309z" fill="#9aafb7" fill-rule="evenodd"/></g><g><path clip-rule="evenodd" d="m446.879 91.287 23.31 23.309 9.691-9.461c23.597-22.994 22.564-62.158-1.634-86.356-6.078-6.078-13.074-10.694-20.557-13.819 18.464 24.255 17.461 58.775-4.071 79.762z" fill="#9aafb7" fill-rule="evenodd"/></g><g><path clip-rule="evenodd" d="m108.757 332.982 55.25 55.248 3.785 3.785c8.831 8.831 23.281 8.831 32.112 0s8.831-23.252 0-32.083l-3.785-3.785-55.25-55.249-3.785-3.785c-8.831-8.831-23.281-8.831-32.112 0s-8.831 23.252 0 32.083z" fill="#6bd9e7" fill-rule="evenodd"/></g><g><path clip-rule="evenodd" d="m122.204 427.996-84.466 31.28-28.213 10.436-9.404 25.46c-.229.659-.115 1.204.201 1.52.315.315.831.401 1.52.201l138.139-51.12c7.627-3.613 8.085-3.125 6.91-9.748-2.638-14.966 1.233-26.434 13.16-38.39l6.68-6.68-2.724-2.724-13.877-13.877c-.029 0-.029-.029-.057-.029 0-.029-.029-.057-.057-.057l-1.032-1.061-6.68 6.652c-11.956 11.956-15.827 23.424-13.16 38.419 1.174 6.593.686 6.134-6.94 9.718z" fill="#d7e7ec" fill-rule="evenodd"/></g><g><path clip-rule="evenodd" d="m182.127 374.267c-4.931 4.903-11.612 7.082-18.092 6.508-5.075-.43-10.035-2.58-13.906-6.422l13.877 13.877 2.724 2.724 1.061 1.061c8.831 8.831 23.281 8.831 32.112 0s8.831-23.252 0-32.083l-3.785-3.785-13.992-13.991c2.351 2.351 4.1 5.132 5.19 8.085 3.011 8.057 1.291 17.547-5.189 24.026z" fill="#00c7dd" fill-rule="evenodd"/></g><g><path clip-rule="evenodd" d="m185.252 331.491-6.91 6.881 3.785 3.784 13.992 13.992 6.909-6.91 38.105-38.104-10.207-10.206-7.569-7.541z" fill="#d7e7ec" fill-rule="evenodd"/></g><g><path d="m94.33 413.26-78.38 78.41-14.11 5.22c-.69.2-1.2.12-1.52-.2-.31-.31-.43-.86-.2-1.52l5.21-14.1 78.4-78.42c2.93-2.93 7.67-2.93 10.6 0s2.93 7.68 0 10.61z" fill="#b5c4cf"/></g><g><path clip-rule="evenodd" d="m350.056 59.979 86.96 86.958 33.173-32.34-87.563-87.532-18.837 18.837z" fill="#6bd9e7" fill-rule="evenodd"/></g><g><path clip-rule="evenodd" d="m413.706 123.628 23.31 23.309 33.173-32.34-23.31-23.31-2.982 2.925-24.026 23.424z" fill="#00c7dd" fill-rule="evenodd"/></g></g></svg>