<?xml version="1.0" encoding="iso-8859-1"?>
<!-- Generator: Adobe Illustrator 19.0.0, SVG Export Plug-In . SVG Version: 6.00 Build 0)  -->
<svg version="1.1" id="Capa_1" xmlns="http://www.w3.org/2000/svg" xmlns:xlink="http://www.w3.org/1999/xlink" x="0px" y="0px"
	 viewBox="0 0 512 512" style="enable-background:new 0 0 512 512;" xml:space="preserve">
<path style="fill:#FE9923;" d="M335.799,85.899H175.201C169.799,79.6,170.4,70.3,176.7,64.6l69.399-61C248.8,1.199,252.4,0,256,0
	s7.2,1.199,9.901,3.6l68.399,61C340.6,70.3,341.201,79.6,335.799,85.899z"/>
<path style="fill:#FE8821;" d="M335.799,85.899H256V0c3.6,0,7.2,1.199,9.901,3.6l68.399,61C340.6,70.3,341.201,79.6,335.799,85.899z
	"/>
<path style="fill:#FE9923;" d="M510.5,219.399L476.6,289.3l-84.9,45.9L316,361H196l-50.501-14.101l-129.598-86.4L1.5,220
	c0.901-2.1,2.1-3.9,3.6-5.4c21.601-18.9,38.401-33.3,60-52.5c3.001-2.701,7.2-3.9,10.801-3.6h360.198
	c3.602-0.3,7.8,0.899,10.801,3.6c21.599,19.2,38.399,33.6,60,52.5C508.1,215.799,509.299,217.599,510.5,219.399z"/>
<path style="fill:#FE8821;" d="M510.5,219.399L476.6,289.3l-84.9,45.9L316,361h-60V158.5h180.099c3.602-0.3,7.8,0.899,10.801,3.6
	c21.599,19.2,38.399,33.6,60,52.5C508.1,215.799,509.299,217.599,510.5,219.399z"/>
<path style="fill:#CAE8F9;" d="M452,77v330c0,8.399-6.599,15-15,15H75c-8.401,0-15-6.601-15-15V77c0-8.401,6.599-15,15-15h362
	C445.401,62,452,68.599,452,77z"/>
<path style="fill:#B7E0F6;" d="M452,77v330c0,8.399-6.599,15-15,15H256V62h181C445.401,62,452,68.599,452,77z"/>
<path style="fill:#81C8EE;" d="M377,151h-61c-8.291,0-15-6.709-15-15s6.709-15,15-15h61c8.291,0,15,6.709,15,15S385.291,151,377,151
	z"/>
<g>
	<path style="fill:#A4D9F5;" d="M392,196c0,8.399-6.599,15-15,15H135c-8.401,0-15-6.601-15-15c0-8.401,6.599-15,15-15h242
		C385.401,181,392,187.599,392,196z"/>
	<path style="fill:#A4D9F5;" d="M392,256c0,8.399-6.599,15-15,15H135c-8.401,0-15-6.601-15-15c0-8.401,6.599-15,15-15h242
		C385.401,241,392,247.599,392,256z"/>
	<path style="fill:#A4D9F5;" d="M331,316c0,8.399-6.599,15-15,15H196c-8.401,0-16-6.601-16-15c0-8.401,7.599-15,16-15h120
		C324.401,301,331,307.599,331,316z"/>
</g>
<path d="M12.935,498.489c0.031,0.031,0.053,0.073,0.084,0.104l0.062-0.157L12.935,498.489z"/>
<path d="M499.009,498.558l0.037-0.042c-0.011-0.007-0.126-0.081-0.126-0.081L499.009,498.558z"/>
<g>
	<path style="fill:#81C8EE;" d="M331,316c0,8.399-6.599,15-15,15h-60v-30h60C324.401,301,331,307.599,331,316z"/>
	<path style="fill:#81C8EE;" d="M392,256c0,8.399-6.599,15-15,15H256v-30h121C385.401,241,392,247.599,392,256z"/>
	<path style="fill:#81C8EE;" d="M377,211H256v-30h121c8.401,0,15,6.599,15,15C392,204.399,385.401,211,377,211z"/>
</g>
<path style="fill:#FE9923;" d="M512,227c0-2.173-0.646-4.446-1.611-6.451L316,362l8.97,17.977l140.673,104.752l33.276,13.707
	c0,0,0.115,0.073,0.126,0.081C507.063,490.364,512,479.241,512,467C512,378.597,512,314.777,512,227z"/>
<path style="fill:#FEA832;" d="M196,362L1.382,220.879C0.494,222.86,0,225,0,227c0,88.403,0,152.221,0,240
	c0,12.228,4.933,23.339,12.935,31.489l0.146-0.053l23.975-2.981l137.407-103.052L196,362z"/>
<path style="fill:#FEDB41;" d="M499.1,498.5c-0.3,0-0.3,0.3-0.3,0.3c-8.101,8.099-19.501,13.2-31.8,13.2H45
	c-12.299,0-23.699-5.101-31.8-13.2c0,0,0,0-0.3-0.3h0.3L196,362h120l182.8,136.5H499.1z"/>
<path style="fill:#FCBF29;" d="M499.1,498.5c-0.3,0-0.3,0.3-0.3,0.3c-8.101,8.099-19.501,13.2-31.8,13.2H256V362h60l182.8,136.5
	H499.1z"/>
<g>
</g>
<g>
</g>
<g>
</g>
<g>
</g>
<g>
</g>
<g>
</g>
<g>
</g>
<g>
</g>
<g>
</g>
<g>
</g>
<g>
</g>
<g>
</g>
<g>
</g>
<g>
</g>
<g>
</g>
</svg>
