<svg id="Capa_1" enable-background="new 0 0 512 512" height="512" viewBox="0 0 512 512" width="512" xmlns="http://www.w3.org/2000/svg"><g><path d="m309.217 511.999h-227.006c-17.293 0-31.312-14.019-31.312-31.312v-449.374c0-17.293 14.019-31.312 31.312-31.312h227.006c17.293 0 31.312 14.019 31.312 31.312v449.375c0 17.293-14.018 31.311-31.312 31.311z" fill="#acacac"/><path d="m340.529 31.314v449.373c0 17.296-14.017 31.314-31.313 31.314h-20.493c17.296 0 31.313-14.017 31.313-31.314v-449.373c0-17.297-14.017-31.314-31.314-31.314h20.493c17.297 0 31.314 14.017 31.314 31.314z" fill="#9c9c9c"/><path d="m258.075 37.213-8.337 14.162c-2.187 3.716-6.177 5.997-10.489 5.997h-43.535-43.535c-4.312 0-8.302-2.281-10.489-5.997l-8.336-14.162c-2.187-3.716-6.177-5.997-10.489-5.997h-23.833c-6.722 0-12.171 5.449-12.171 12.171v425.225c0 6.722 5.449 12.171 12.171 12.171h96.683 96.683c6.722 0 12.171-5.449 12.171-12.171v-425.224c0-6.722-5.449-12.171-12.171-12.171h-23.833c-4.313-.001-8.303 2.28-10.49 5.996z" fill="#d8ecfe"/><path d="m304.563 43.384v425.232c0 6.722-5.441 12.173-12.163 12.173h-20.493c6.722 0 12.163-5.451 12.163-12.173v-425.232c0-6.722-5.441-12.173-12.163-12.173h20.493c6.723 0 12.163 5.451 12.163 12.173z" fill="#c4e2ff"/><g><path d="m220.388 38.716h-49.348c-4.142 0-7.5-3.357-7.5-7.5s3.358-7.5 7.5-7.5h49.348c4.142 0 7.5 3.357 7.5 7.5s-3.357 7.5-7.5 7.5z" fill="#838383"/></g><g><path d="m188.093 341.673h-27.723c-4.142 0-7.5-3.357-7.5-7.5s3.358-7.5 7.5-7.5h27.723c4.142 0 7.5 3.357 7.5 7.5s-3.358 7.5-7.5 7.5z" fill="#8ac9fe"/></g><g><path d="m169.241 370.37h-27.724c-4.142 0-7.5-3.357-7.5-7.5s3.358-7.5 7.5-7.5h27.724c4.142 0 7.5 3.357 7.5 7.5s-3.357 7.5-7.5 7.5z" fill="#8ac9fe"/></g><path d="m454.923 332.916h-229.088c-3.411 0-6.177-2.765-6.177-6.177v-147.962c0-3.411 2.765-6.177 6.177-6.177h25.423l89.121 37.284 93.699-37.284h20.845c3.411 0 6.177 2.765 6.177 6.177v147.962c-.001 3.412-2.766 6.177-6.177 6.177z" fill="#fee45a"/><path d="m461.101 178.776v147.964c0 3.408-2.762 6.18-6.18 6.18h-20.843c3.418 0 6.18-2.772 6.18-6.18v-147.964c0-3.408-2.762-6.18-6.18-6.18h20.843c3.418 0 6.18 2.773 6.18 6.18z" fill="#fed402"/><path d="m228.197 332.916 109.288-86.399c1.696-1.341 4.091-1.341 5.788 0l109.288 86.399z" fill="#fed402"/><path d="m452.566 332.92h-32.452l-95.95-75.868 13.319-10.536c1.699-1.334 4.096-1.334 5.794 0z" fill="#fac600"/><path d="m228.197 172.6 109.288 115.56c1.696 1.405 4.091 1.405 5.788 0l109.287-115.56z" fill="#fef0ae"/><path d="m452.566 172.596-109.29 115.564c-1.699 1.407-4.096 1.407-5.794 0l-13.631-14.413c.323-.156.646-.354.938-.605l95.085-100.546z" fill="#fee97d"/></g></svg>