<?xml version="1.0" encoding="iso-8859-1"?>
<!-- Generator: Adobe Illustrator 19.0.0, SVG Export Plug-In . SVG Version: 6.00 Build 0)  -->
<svg version="1.1" id="Layer_1" xmlns="http://www.w3.org/2000/svg" xmlns:xlink="http://www.w3.org/1999/xlink" x="0px" y="0px"
	 viewBox="0 0 512 512" style="enable-background:new 0 0 512 512;" xml:space="preserve">
<g>
	<path style="fill:#C8C6CD;" d="M231.125,512c-2.634,0-5.263-1.042-7.216-3.108c-8.303-8.78-27.515-33.11-26.544-69.319
		c0.401-14.987,7.726-25.3,14.188-34.399c5.716-8.048,11.117-15.649,12.351-26.682c1.335-11.942-3.412-27.862-10.443-40.909
		c-2.602-4.827-0.797-10.851,4.032-13.452c4.827-2.6,10.851-0.797,13.452,4.032c8.984,16.67,14.488,36.504,12.695,52.538
		c-1.805,16.137-9.291,26.677-15.895,35.975c-5.748,8.091-10.289,14.484-10.527,23.429c-0.793,29.607,15.967,49.69,21.121,55.141
		c3.768,3.984,3.593,10.269-0.392,14.039C236.028,511.101,233.574,512,231.125,512z"/>
	<path style="fill:#C8C6CD;" d="M307.584,512c-2.226,0-4.462-0.744-6.313-2.269c-4.232-3.49-4.833-9.748-1.344-13.979
		c14.619-17.726,21.295-34.285,19.845-49.216c-1.098-11.305-6.479-19.229-12.708-28.405c-6.754-9.946-14.407-21.218-17.215-37.999
		c-3.311-19.796,1.723-45.535,13.852-66.971c2.7-4.772,8.756-6.455,13.533-3.752c4.773,2.7,6.453,8.759,3.752,13.533
		c-9.831,17.375-14.09,38.722-11.548,53.914c2.091,12.496,7.903,21.056,14.056,30.121c7.107,10.468,14.457,21.292,16.045,37.642
		c1.978,20.373-6.195,41.829-24.291,63.77C313.287,510.77,310.447,512,307.584,512z"/>
</g>
<path style="fill:#F09EA0;" d="M476.623,183.972l-0.028-0.007c16.2-11.276,28.393-28.468,32.917-49.453
	c8.925-41.403-16.092-83.187-56.803-94.87c-33.38-9.579-67.547,3.166-87.091,29.028c-4.955-32.035-29.002-59.451-62.937-66.834
	c-41.384-9.005-83.216,15.936-94.976,56.623c-5.961,20.622-1.074,44.696,7.384,62.56l85.88,157.873
	c4.298,7.901,14.424,10.453,21.953,5.532l150.439-98.322c0.907-0.569,1.803-1.152,2.688-1.757L476.623,183.972z"/>
<path style="fill:#EF8990;" d="M472.154,48.167c10.464,17.181,14.628,38.189,10.12,59.105
	c-4.524,20.985-16.717,38.177-32.917,49.453l0.028,0.007l-0.573,0.375c-0.883,0.604-1.781,1.188-2.688,1.757l-150.438,98.322
	c-1.68,1.098-3.49,1.803-5.336,2.181l10.621,19.527c4.298,7.901,14.424,10.453,21.953,5.532l150.439-98.322
	c0.907-0.569,1.803-1.152,2.688-1.757l0.573-0.375l-0.028-0.007c16.2-11.276,28.393-28.468,32.917-49.453
	C516.91,100.205,500.985,65.655,472.154,48.167z"/>
<path style="fill:#F09EA0;" d="M208.98,54.456c-17.839-6.561-38.22-5.965-56.228,3.206c-26.887,13.691-41.048,42.033-38.144,70.046
	c-22.129-17.422-53.653-20.595-79.592-5.181C3.383,141.325-8.422,181.958,8.21,214.781c8.43,16.637,22.47,28.394,38.571,34.295
	l-0.021,0.012l151.319,50.511c7.412,2.475,15.359-1.904,17.228-9.492l28.601-116.114"/>
<g>
	<path style="fill:#EF8990;" d="M229.397,147.318l-11.024,44.757c-11.13,45.184-58.45,71.256-102.591,56.521l-79.936-26.682
		c-0.887-0.278-1.769-0.569-2.644-0.883l-0.565-0.189l0.021-0.012c-11.497-4.214-21.929-11.429-30.032-21.257
		c1.245,5.178,3.088,10.283,5.585,15.208c8.43,16.637,22.47,28.394,38.571,34.295l-0.021,0.012l151.319,50.511
		c7.412,2.475,15.359-1.904,17.227-9.491l28.601-116.114L229.397,147.318z"/>
	<path style="fill:#EF8990;" d="M238.619,314.641c3.812,12.601-5.531,18.579-18.131,22.391c-12.601,3.812-23.69,4.013-27.502-8.588
		c-3.812-12.601,3.314-25.906,15.915-29.717C221.501,294.916,234.807,302.04,238.619,314.641z"/>
	<path style="fill:#EF8990;" d="M334.741,310.809c0,13.165-10.672,12.112-23.837,12.112c-13.165,0-23.837,1.053-23.837-12.112
		c0-13.165,10.672-23.837,23.837-23.837C324.068,286.973,334.741,297.644,334.741,310.809z"/>
	<circle style="fill:#EF8990;" cx="275.639" cy="60.37" r="22.905"/>
	<circle style="fill:#EF8990;" cx="60.26" cy="175.184" r="22.905"/>
</g>
<g>
</g>
<g>
</g>
<g>
</g>
<g>
</g>
<g>
</g>
<g>
</g>
<g>
</g>
<g>
</g>
<g>
</g>
<g>
</g>
<g>
</g>
<g>
</g>
<g>
</g>
<g>
</g>
<g>
</g>
</svg>
