<svg height="512pt" viewBox="0 0 512 512" width="512pt" xmlns="http://www.w3.org/2000/svg"><path d="m256 191.355469-20.015625 83.800781 276.015625-20.015625v-63.785156zm0 0" fill="#9d7123"/><path d="m256 191.355469h-256v63.785156l256 20.015625zm0 0" fill="#c78f2c"/><path d="m448.214844 0h-192.214844l-20.015625 275.15625 212.230469-20.015625zm0 0" fill="#efe2dd"/><path d="m63.785156 0v255.140625l192.214844 20.015625v-275.15625zm0 0" fill="#fff5f5"/><g fill="#b4aaaa"><path d="m328.699219 48.785156h-72.699219l-10.007812 15 10.007812 15h72.699219zm0 0"/><path d="m400.375 112.570312h-144.375l-10.007812 15 10.007812 15h144.375zm0 0"/><path d="m400.375 176.355469h-144.375l-10.007812 15 10.007812 15h144.375zm0 0"/></g><path d="m183.300781 48.785156h72.699219v30h-72.699219zm0 0" fill="#e1d3ce"/><path d="m111.625 112.570312h144.375v30h-144.375zm0 0" fill="#e1d3ce"/><path d="m111.625 176.355469h144.375v30h-144.375zm0 0" fill="#e1d3ce"/><path d="m256 512h256v-256.859375l-276.015625 20.015625zm0 0" fill="#c78f2c"/><path d="m0 255.140625v256.859375h256v-236.84375zm0 0" fill="#e1bb78"/><path d="m512 255.140625h-256l-20.015625 31.894531 20.015625 31.890625h201.988281zm0 0" fill="#e1bb78"/><path d="m0 255.140625 54.011719 63.785156h201.988281v-63.785156zm0 0" fill="#edd7b0"/></svg>