<svg enable-background="new 0 0 512 512" height="512" viewBox="0 0 512 512" width="512" xmlns="http://www.w3.org/2000/svg"><g id="_x33_9_Loquat"><g><g><path d="m386.724 135.975 38.535-38.816c3.099-3.122 8.141-3.14 11.262-.041 1.92 1.906 2.657 4.595 2.225 7.073l-9.761 53.817c-2.459 13.56-15.446 22.559-29.006 20.1-13.561-2.459-22.56-15.446-20.1-29.006.938-5.168 3.4-9.666 6.845-13.127z" fill="#6d6d6d"/><path d="m396.21 448.32c-31.04 59.536-107.375 81.147-170.583 48.192-63.152-32.925-89.195-107.912-58.155-167.448s186.101-232.01 249.253-199.084c63.208 32.954 10.525 258.803-20.515 318.34z" fill="#ffce29"/><g opacity=".4"><path d="m175.162 386.833c.26-16.431 4.437-32.848 12.07-47.476 2.281-4.375 7.678-6.068 12.053-3.788 0 0 0 0 .005.003 4.375 2.281 6.068 7.678 3.785 12.058-6.35 12.167-9.824 25.827-10.045 39.49-.078 4.933-4.14 8.871-9.077 8.79-4.903-.073-8.875-4.118-8.791-9.077z" fill="#fff"/></g><path d="m396.21 448.32c-31.04 59.536-107.375 81.147-170.583 48.192-4.259-2.22-8.351-4.623-12.25-7.26 60.326 23.994 128.67 1.443 157.617-54.078s76.721-255.689 31.736-309.107c5.056.418 9.726 1.712 13.985 3.932 63.209 32.953 10.535 258.784-20.505 318.321z" opacity=".08"/></g><g><path d="m170.737 57.905 16.225-52.234c1.305-4.201 5.767-6.548 9.968-5.243 2.584.802 4.48 2.846 5.243 5.243l16.225 52.234c4.088 13.161-3.267 27.144-16.428 31.232-13.161 4.089-27.145-3.267-31.233-16.428-1.558-5.016-1.455-10.142 0-14.804z" fill="#6d6d6d"/><path d="m323.548 330.482c0 67.142-57.697 121.594-128.98 121.594-71.22 0-128.98-54.452-128.98-121.594s57.76-291.763 128.98-291.763c71.283 0 128.98 224.621 128.98 291.763z" fill="#ffce29"/><g opacity=".4"><path d="m99.114 378.153c-7.366-14.69-11.252-31.178-11.246-47.678 0-4.934 4.003-8.931 8.936-8.931h.006c4.934 0 8.931 4.003 8.931 8.942-.006 13.725 3.229 27.443 9.349 39.661 2.211 4.41.431 9.78-3.985 11.991-4.381 2.201-9.773.451-11.991-3.985z" fill="#fff"/></g><path d="m323.548 330.482c0 67.142-57.697 121.594-128.98 121.594-4.803 0-9.542-.239-14.219-.775 64.585-6.613 114.762-58.206 114.762-120.82s-50.177-262.192-114.763-288.763c4.676-1.966 9.416-2.979 14.219-2.979 71.284 0 128.981 224.601 128.981 291.743z" opacity=".08"/></g></g></g></svg>