<?xml version="1.0" encoding="iso-8859-1"?>
<!-- Generator: Adobe Illustrator 19.0.0, SVG Export Plug-In . SVG Version: 6.00 Build 0)  -->
<svg xmlns="http://www.w3.org/2000/svg" xmlns:xlink="http://www.w3.org/1999/xlink" version="1.1" id="Capa_1" x="0px" y="0px" viewBox="0 0 512 512" style="enable-background:new 0 0 512 512;" xml:space="preserve">
<g>
	<path style="fill:#00CCB3;" d="M280.985,372.544c0,9.232-5.044,17.283-12.521,21.533c-0.679,0.386-1.368,0.741-2.089,1.065   c-3.102,1.41-6.548,2.193-10.182,2.193c-13.691,0-24.792-11.09-24.792-24.792c0-9.67,13.284-35.84,21.074-50.367   c2.287-4.261,8.438-4.083,10.464,0.303c1.358,2.945,2.914,6.349,4.511,9.994c0.637,1.452,1.285,2.934,1.932,4.449   C275.168,350.384,280.985,365.662,280.985,372.544z"/>
	<path style="fill:#00CCB3;" d="M142.281,372.544c0,9.232-5.044,17.283-12.521,21.533c-0.679,0.386-1.368,0.741-2.089,1.065   c-3.102,1.41-6.548,2.193-10.182,2.193c-13.691,0-24.792-11.09-24.792-24.792c0-9.67,13.273-35.84,21.074-50.367   c2.287-4.261,8.428-4.083,10.453,0.303c1.358,2.945,2.914,6.339,4.511,9.984c0.637,1.452,1.295,2.945,1.932,4.459   C136.464,350.384,142.281,365.652,142.281,372.544z"/>
	<path style="fill:#00CCB3;" d="M347.559,487.208c0,9.232-5.044,17.273-12.521,21.534c-0.679,0.386-1.378,0.741-2.089,1.065   c-3.102,1.41-6.548,2.193-10.182,2.193c-13.691,0-24.792-11.101-24.792-24.792c0-9.67,13.284-35.84,21.084-50.377   c2.277-4.25,8.428-4.073,10.453,0.303c1.358,2.945,2.914,6.349,4.511,9.994c0.637,1.452,1.284,2.945,1.932,4.459   C341.742,465.059,347.559,480.326,347.559,487.208z"/>
	<path style="fill:#00CCB3;" d="M208.855,487.208c0,9.221-5.044,17.273-12.521,21.534c-0.679,0.386-1.378,0.741-2.089,1.065   c-3.102,1.41-6.558,2.193-10.182,2.193c-13.691,0-24.792-11.101-24.792-24.792c0-9.597,11.31-35.475,18.056-50.074   c2.026-4.376,8.166-4.553,10.453-0.303c1.619,3.018,3.467,6.537,5.389,10.307c0.741,1.452,1.493,2.934,2.245,4.449   C202.119,465.048,208.855,480.316,208.855,487.208z"/>
	<path style="fill:#00CCB3;" d="M419.689,372.544c0,9.232-5.044,17.283-12.521,21.533c-0.679,0.386-1.368,0.741-2.089,1.065   c-3.102,1.41-6.548,2.193-10.182,2.193c-13.691,0-24.792-11.09-24.792-24.792c0-9.67,13.284-35.84,21.084-50.367   c2.277-4.261,8.428-4.083,10.453,0.303c1.358,2.945,2.914,6.349,4.511,9.994c0.637,1.452,1.285,2.934,1.932,4.449   C413.872,350.384,419.689,365.662,419.689,372.544z"/>
</g>
<g>
	<path style="fill:#00DDC2;" d="M280.985,372.544c0,9.232-5.044,17.283-12.521,21.533c-7.477-4.25-12.521-12.302-12.521-21.533   c0-6.892,6.746-22.16,13.44-35.621C275.168,350.384,280.985,365.662,280.985,372.544z"/>
	<path style="fill:#00DDC2;" d="M142.281,372.544c0,9.232-5.044,17.283-12.521,21.533c-7.477-4.25-12.521-12.302-12.521-21.533   c0-6.892,6.746-22.16,13.43-35.621C136.464,350.384,142.281,365.652,142.281,372.544z"/>
	<path style="fill:#00DDC2;" d="M347.559,487.208c0,9.232-5.044,17.273-12.521,21.534c-7.477-4.261-12.521-12.312-12.521-21.534   c0-6.892,6.746-22.16,13.44-35.621C341.742,465.059,347.559,480.326,347.559,487.208z"/>
	<path style="fill:#00DDC2;" d="M208.855,487.208c0,9.221-5.044,17.273-12.521,21.534c-7.477-4.261-12.521-12.312-12.521-21.534   c0-6.882,5.817-22.15,11.602-35.621C202.119,465.048,208.855,480.316,208.855,487.208z"/>
	<path style="fill:#00DDC2;" d="M419.689,372.544c0,9.232-5.044,17.283-12.521,21.533c-7.477-4.25-12.521-12.302-12.521-21.533   c0-6.892,6.746-22.16,13.44-35.621C413.872,350.384,419.689,365.662,419.689,372.544z"/>
</g>
<path style="fill:#D8D7DA;" d="M511.702,189.342c0,11.143-2.235,22.077-6.297,32.154c-10.579,26.296-36.488,43.182-64.82,43.182  H81.46c-8.208,0-16.333-1.389-23.967-4.135c-2.632-0.94-5.211-2.047-7.707-3.321c-3.29-1.671-6.443-3.603-9.43-5.817  C15.179,232.775-0.83,202.448,0.36,168.456c1.744-50.043,45.25-93.455,95.292-95.125c10.339-0.345,20.343,0.909,29.773,3.519  c2.517,0.7,5.18-0.48,6.328-2.83C153.079,30.201,198.036,0,250.042,0c24.05,0,46.597,6.464,66,17.732  c8.762,5.096,16.876,11.174,24.196,18.077c21.774,20.531,36.54,48.414,40.331,79.67c0.47,3.843,4.772,5.963,8.104,3.968  c5.43-3.237,11.258-5.869,17.419-7.79c7.655-2.391,15.8-3.676,24.249-3.676c24.28,0,46.064,10.631,60.966,27.496  C504.006,149.826,511.702,168.686,511.702,189.342z"/>
<path style="fill:#C6C5CA;" d="M340.238,35.809c-17.711-8.877-37.71-13.879-58.867-13.879c-52.006,0-96.963,30.201-118.288,74.02  c-1.149,2.35-3.812,3.53-6.328,2.83c-9.43-2.611-19.434-3.864-29.773-3.519c-50.043,1.671-93.549,45.082-95.292,95.125  c-0.95,27.058,9.002,51.797,25.805,70.156c-2.632-0.94-5.211-2.047-7.707-3.321c-3.29-1.671-6.443-3.603-9.43-5.817  C15.179,232.775-0.83,202.448,0.36,168.456c1.744-50.043,45.25-93.455,95.292-95.125c10.339-0.345,20.343,0.909,29.773,3.519  c2.517,0.7,5.18-0.48,6.328-2.83C153.079,30.201,198.036,0,250.042,0c24.05,0,46.597,6.464,66,17.732  C324.804,22.828,332.918,28.906,340.238,35.809z"/>
<g>
</g>
<g>
</g>
<g>
</g>
<g>
</g>
<g>
</g>
<g>
</g>
<g>
</g>
<g>
</g>
<g>
</g>
<g>
</g>
<g>
</g>
<g>
</g>
<g>
</g>
<g>
</g>
<g>
</g>
</svg>
