<?xml version="1.0" encoding="iso-8859-1"?>
<!-- Generator: Adobe Illustrator 21.0.0, SVG Export Plug-In . SVG Version: 6.00 Build 0)  -->
<svg xmlns="http://www.w3.org/2000/svg" xmlns:xlink="http://www.w3.org/1999/xlink" version="1.1" id="Capa_1" x="0px" y="0px" viewBox="0 0 509.798 509.798" style="enable-background:new 0 0 509.798 509.798;" xml:space="preserve" width="512" height="512">
<g>
	<path style="fill:#FFF4F1;" d="M252.923,509.073c-67.558,0-131.073-26.309-178.844-74.08S0,323.707,0,256.149   S26.309,125.076,74.08,77.305s111.286-74.08,178.844-74.08c67.559,0,131.073,26.309,178.844,74.08   c47.771,47.771,74.08,111.286,74.08,178.844s-26.309,131.073-74.08,178.844C383.997,482.764,320.482,509.073,252.923,509.073z"/>
	<path style="fill:#E480BE;" d="M252.923,55.553c-110.609,0-200.596,89.987-200.596,200.597s89.987,200.597,200.596,200.597   S453.52,366.759,453.52,256.149S363.533,55.553,252.923,55.553z"/>
	<path style="fill:#FFF4F1;" d="M252.923,118.982c-75.634,0-137.167,61.533-137.167,137.167s61.533,137.167,137.167,137.167   c75.634,0,137.167-61.533,137.167-137.167S328.558,118.982,252.923,118.982z"/>
	<path style="fill:#E480BE;" d="M280.983,189.351c-10.416,0-20.447,3.582-28.465,10.011c-8.018-6.429-18.049-10.011-28.465-10.011   c-25.086,0-45.496,20.409-45.496,45.496c0,6.156,1.063,11.767,3.16,16.676c8.595,20.124,39.229,43.416,57.531,57.332   c3.544,2.695,6.605,5.022,8.499,6.583c1.385,1.142,3.078,1.713,4.771,1.713c1.662,0,3.325-0.55,4.697-1.653   c1.906-1.531,4.931-3.75,8.434-6.318c18.766-13.763,50.175-36.797,58.295-59.331c1.682-4.666,2.535-9.714,2.535-15.002   C326.479,209.761,306.069,189.351,280.983,189.351z"/>
	<path style="fill:#ECEDEF;" d="M431.767,77.305c-47.771-47.771-111.285-74.08-178.844-74.08c-3.848,0-7.681,0.097-11.5,0.266   c63.241,2.812,122.294,28.763,167.344,73.813c47.771,47.771,74.08,111.286,74.08,178.844s-26.309,131.073-74.08,178.844   c-45.05,45.05-104.103,71.002-167.344,73.813c3.819,0.169,7.652,0.266,11.5,0.266c67.559,0,131.073-26.309,178.844-74.08   c47.771-47.771,74.08-111.286,74.08-178.844S479.538,125.076,431.767,77.305z"/>
	<path style="fill:#D96CBA;" d="M252.923,55.553c-3.86,0-7.693,0.121-11.5,0.337C346.701,61.87,430.52,149.4,430.52,256.149   s-83.819,194.279-189.097,200.259c3.807,0.216,7.64,0.337,11.5,0.337c110.609,0,200.597-89.987,200.597-200.597   S363.533,55.553,252.923,55.553z"/>
	<path style="fill:#ECEDEF;" d="M252.923,118.982c-3.873,0-7.707,0.17-11.5,0.486c70.273,5.862,125.667,64.919,125.667,136.681   S311.696,386.968,241.423,392.83c3.793,0.316,7.627,0.486,11.5,0.486c75.634,0,137.167-61.533,137.167-137.167   S328.558,118.982,252.923,118.982z"/>
	<g>
		<path style="fill:#D96CBA;" d="M280.983,189.351c-3.913,0-7.772,0.506-11.491,1.478c19.531,5.111,33.986,22.906,33.986,44.018    c0,5.289-0.853,10.336-2.535,15.002c-8.12,22.534-39.529,45.568-58.295,59.331c-0.517,0.379-1.02,0.748-1.514,1.111    c2.732,2.081,5.065,3.873,6.611,5.147c1.385,1.142,3.078,1.713,4.771,1.713c1.662,0,3.325-0.55,4.697-1.653    c1.906-1.531,4.931-3.75,8.434-6.318c18.766-13.763,50.175-36.797,58.295-59.331c1.682-4.666,2.535-9.714,2.535-15.002    C326.479,209.761,306.069,189.351,280.983,189.351z"/>
	</g>
	<path style="fill:#D0CFD1;" d="M253.727,263.649c-1.938,0-3.874-0.746-5.341-2.234c-2.908-2.95-2.875-7.698,0.075-10.606   L476.325,26.142c2.949-2.909,7.698-2.874,10.606,0.075c2.908,2.95,2.875,7.698-0.075,10.606L258.992,261.49   C257.531,262.93,255.628,263.649,253.727,263.649z"/>
	<path style="fill:#646464;" d="M507.601,40.855L469.668,2.923c-1.894-1.895-4.658-2.635-7.244-1.941   c-2.588,0.694-4.61,2.715-5.304,5.304l-13.884,51.816c-0.172,0.642-0.256,1.294-0.255,1.942c0,1.963,0.772,3.877,2.197,5.302   c1.425,1.425,3.34,2.197,5.304,2.197c0.647,0,1.299-0.083,1.94-0.255l51.817-13.884c2.588-0.694,4.61-2.715,5.304-5.304   c0.172-0.642,0.256-1.294,0.255-1.942C509.798,44.194,509.026,42.28,507.601,40.855z"/>
</g>















</svg>
