<?xml version="1.0" encoding="iso-8859-1"?>
<!-- Generator: Adobe Illustrator 19.0.0, SVG Export Plug-In . SVG Version: 6.00 Build 0)  -->
<svg version="1.1" id="Capa_1" xmlns="http://www.w3.org/2000/svg" xmlns:xlink="http://www.w3.org/1999/xlink" x="0px" y="0px"
	 viewBox="0 0 512.001 512.001" style="enable-background:new 0 0 512.001 512.001;" xml:space="preserve">
<path style="fill:#E5EBF6;" d="M204.426,116.071V14.944h-66.122v101.127c0,11.546-6.285,22.176-16.402,27.74l-30.401,16.72
	c-10.117,5.564-16.402,16.194-16.402,27.74V482.91c0,16.067,13.025,29.091,29.091,29.091h134.348
	c16.067,0,29.091-13.025,29.091-29.091V188.27c0-11.546-6.285-22.176-16.402-27.74l-30.401-16.72
	C210.711,138.247,204.426,127.617,204.426,116.071z"/>
<path style="fill:#D1DCED;" d="M251.228,160.531l-30.401-16.72c-10.116-5.564-16.402-16.194-16.402-27.74V14.944h-33.061v103.547
	c0,10.238,4.909,19.855,13.201,25.86l21.595,15.64c8.292,6.005,13.201,15.622,13.201,25.86v297.058
	c0,16.067-13.024,29.091-29.091,29.091h48.269c16.066,0,29.091-13.024,29.091-29.091V188.27
	C267.63,176.725,261.345,166.095,251.228,160.531z"/>
<path style="fill:#C8E8E5;" d="M121.902,143.811l-30.401,16.72c-10.116,5.564-16.402,16.194-16.402,27.74V482.91
	c0,16.067,13.025,29.091,29.091,29.091h134.348c16.067,0,29.091-13.024,29.091-29.091V188.27c0-11.546-6.285-22.176-16.402-27.74
	l-30.4-16.72c-9.66-5.313-15.813-15.248-16.349-26.187h-66.227C137.715,128.562,131.563,138.498,121.902,143.811z"/>
<path style="fill:#B6D8D4;" d="M267.341,183.992c-0.287-2.11-0.785-4.169-1.477-6.151c-0.23-0.66-0.483-1.312-0.756-1.955
	c-2.731-6.422-7.557-11.879-13.88-15.356l-30.401-16.72c-0.013-0.007-0.024-0.015-0.037-0.022c-0.605-0.334-1.195-0.685-1.772-1.054
	c-0.215-0.137-0.418-0.288-0.629-0.43c-0.366-0.247-0.734-0.491-1.088-0.751c-0.254-0.187-0.495-0.388-0.742-0.581
	c-0.294-0.231-0.593-0.458-0.878-0.698c-0.269-0.226-0.524-0.465-0.784-0.7c-0.247-0.223-0.497-0.441-0.737-0.671
	c-0.273-0.263-0.534-0.537-0.797-0.808c-0.208-0.215-0.42-0.427-0.622-0.647c-0.274-0.299-0.534-0.608-0.796-0.917
	c-0.173-0.205-0.35-0.407-0.518-0.616c-0.27-0.336-0.527-0.681-0.783-1.027c-0.142-0.193-0.287-0.383-0.424-0.578
	c-0.263-0.372-0.512-0.752-0.758-1.136c-0.114-0.178-0.23-0.355-0.341-0.535c-0.251-0.409-0.489-0.825-0.722-1.244
	c-0.089-0.162-0.18-0.323-0.266-0.486c-0.237-0.446-0.46-0.897-0.675-1.354c-0.067-0.143-0.134-0.285-0.199-0.429
	c-0.219-0.483-0.424-0.971-0.619-1.465c-0.048-0.121-0.095-0.242-0.141-0.364c-0.197-0.519-0.38-1.043-0.55-1.573
	c-0.032-0.1-0.063-0.201-0.094-0.302c-0.172-0.554-0.328-1.112-0.47-1.677c-0.019-0.078-0.037-0.156-0.056-0.234
	c-0.142-0.588-0.269-1.181-0.378-1.78c-0.01-0.054-0.018-0.107-0.028-0.161c-0.11-0.622-0.203-1.249-0.275-1.88
	c-0.003-0.028-0.006-0.057-0.009-0.086c-0.074-0.656-0.129-1.315-0.161-1.98l0,0h-33.114v0.867c0,10.238,4.909,19.855,13.201,25.86
	l21.595,15.64c8.292,6.005,13.201,15.622,13.201,25.86v297.058c0,16.067-13.024,29.091-29.091,29.091h48.269
	c6.527,0,12.552-2.149,17.406-5.779c7.094-5.305,11.686-13.772,11.686-23.312V188.27
	C267.63,186.827,267.532,185.398,267.341,183.992z"/>
<g>
	<path style="fill:#96223B;" d="M205.177,82.064h-67.625c-3.103,0-5.619-2.516-5.619-5.619V5.619c0-3.103,2.516-5.619,5.619-5.619
		h67.625c3.103,0,5.619,2.516,5.619,5.619v70.827C210.796,79.549,208.28,82.064,205.177,82.064z"/>
	<path style="fill:#96223B;" d="M222.683,334.778l-43.019,26.012c-5.103,3.085-11.496,3.085-16.598,0l-43.019-26.012
		c-4.805-2.905-7.74-8.111-7.74-13.725v-66.937c0-8.858,7.181-16.039,16.039-16.039h86.039c8.858,0,16.039,7.181,16.039,16.039
		v66.937C230.424,326.667,227.488,331.873,222.683,334.778z"/>
</g>
<path style="fill:#871B38;" d="M230.424,254.115c0-8.858-7.181-16.039-16.039-16.039h-32.23v103.562l-25.382,15.347l6.293,3.805
	c5.103,3.085,11.496,3.085,16.598,0l43.02-26.012c1.201-0.726,2.285-1.596,3.236-2.581c0.475-0.492,0.918-1.013,1.324-1.558
	c0.407-0.545,0.778-1.116,1.111-1.708c0.334-0.592,0.63-1.204,0.886-1.835c0.769-1.891,1.182-3.939,1.182-6.044L230.424,254.115
	L230.424,254.115z"/>
<g>
	<path style="fill:#FFFFFF;" d="M118.83,406.459H223.9c4.267,0,7.726-3.459,7.726-7.726s-3.458-7.726-7.726-7.726H118.83
		c-4.267,0-7.726,3.459-7.726,7.726S114.563,406.459,118.83,406.459z"/>
	<path style="fill:#FFFFFF;" d="M223.9,422.854H118.83c-4.267,0-7.726,3.459-7.726,7.726s3.458,7.726,7.726,7.726H223.9
		c4.267,0,7.726-3.459,7.726-7.726C231.626,426.313,228.167,422.854,223.9,422.854z"/>
</g>
<ellipse style="fill:#FDAB5D;" cx="171.361" cy="281.49" rx="37.915" ry="23.889"/>
<path style="fill:#EDF7F6;" d="M412.996,512h-81.135c-7.153,0-13.096-5.515-13.629-12.647l-10.268-137.19
	c-0.122-1.628,1.166-3.016,2.798-3.016h123.334c1.632,0,2.92,1.388,2.798,3.016l-10.268,137.19
	C426.092,506.485,420.149,512,412.996,512z"/>
<path style="fill:#E4EDEC;" d="M434.096,359.147h-44.875L378.532,501.95c-0.424,5.668-5.147,10.05-10.831,10.05h45.295
	c7.153,0,13.096-5.515,13.63-12.647l10.268-137.19C437.016,360.535,435.728,359.147,434.096,359.147z"/>
<path style="fill:#C8E8E5;" d="M309.782,386.466l8.449,112.886c0.534,7.133,6.477,12.647,13.63,12.647h81.136
	c7.153,0,13.096-5.515,13.63-12.647l8.449-112.886H309.782z"/>
<path style="fill:#B6D8D4;" d="M427.371,489.391l7.704-102.924h-47.899l-8.644,115.483c-0.424,5.668-5.147,10.05-10.831,10.05
	h45.295c0.894,0,1.769-0.086,2.617-0.251c0.424-0.082,0.841-0.184,1.251-0.305c1.228-0.362,2.387-0.892,3.447-1.565
	c0.707-0.448,1.37-0.96,1.982-1.528c0.612-0.568,1.172-1.191,1.672-1.862c0.25-0.336,0.485-0.684,0.704-1.042
	c1.095-1.794,1.79-3.865,1.957-6.094L427.371,489.391z"/>
<path style="fill:#E5EBF6;" d="M430.077,453.239c-1.361,18.18-16.508,32.236-34.739,32.236h-45.819
	c-18.23,0-33.378-14.055-34.739-32.235l3.451,46.112c0.534,7.133,6.477,12.647,13.63,12.647h81.136
	c7.153,0,13.096-5.515,13.63-12.647L430.077,453.239z"/>
<path style="fill:#D1DCED;" d="M430.077,453.238c-1.361,18.18-16.508,32.236-34.739,32.236h-15.573l-1.233,16.474
	c-0.424,5.668-5.147,10.05-10.831,10.05h45.295c0.894,0,1.769-0.086,2.617-0.251c0.424-0.082,0.841-0.184,1.251-0.305
	c1.228-0.362,2.387-0.892,3.447-1.565c0.707-0.448,1.37-0.96,1.982-1.528c0.612-0.568,1.172-1.191,1.672-1.862
	c0.25-0.336,0.485-0.684,0.704-1.042c1.095-1.794,1.79-3.865,1.957-6.094L430.077,453.238z"/>
<path style="fill:#EDA60A;" d="M171.365,257.604c-3.591,0-7.062,0.321-10.354,0.909v45.959c3.292,0.588,6.763,0.909,10.354,0.909
	c20.94,0,37.915-10.695,37.915-23.889S192.305,257.604,171.365,257.604z"/>
<g>
	<path style="fill:#F2F2F2;" d="M223.9,422.854h-40.543v15.451H223.9c4.267,0,7.726-3.459,7.726-7.726
		C231.626,426.313,228.167,422.854,223.9,422.854z"/>
	<path style="fill:#F2F2F2;" d="M223.9,391.007h-40.543v15.451H223.9c4.267,0,7.726-3.459,7.726-7.726
		S228.167,391.007,223.9,391.007z"/>
</g>
<path style="fill:#871B38;" d="M205.177,0h-42.65v82.064h42.65c3.103,0,5.618-2.515,5.618-5.618V5.619
	C210.796,2.515,208.28,0,205.177,0z"/>
<rect x="131.931" y="12.383" style="fill:#FFBF14;" width="78.862" height="10.301"/>
<rect x="162.531" y="12.383" style="fill:#EDA60A;" width="48.27" height="10.301"/>
<g>
</g>
<g>
</g>
<g>
</g>
<g>
</g>
<g>
</g>
<g>
</g>
<g>
</g>
<g>
</g>
<g>
</g>
<g>
</g>
<g>
</g>
<g>
</g>
<g>
</g>
<g>
</g>
<g>
</g>
</svg>
