<?xml version="1.0" encoding="iso-8859-1"?>
<!-- Generator: Adobe Illustrator 19.0.0, SVG Export Plug-In . SVG Version: 6.00 Build 0)  -->
<svg xmlns="http://www.w3.org/2000/svg" xmlns:xlink="http://www.w3.org/1999/xlink" version="1.1" id="Capa_1" x="0px" y="0px" viewBox="0 0 512 512" style="enable-background:new 0 0 512 512;" xml:space="preserve">
<path style="fill:#BABABA;" d="M383.049,142.359l-48.269,48.269c-3.703,3.703-9.706,3.703-13.408,0  c-3.703-3.703-3.703-9.706,0-13.408l48.269-48.269c3.703-3.703,9.706-3.703,13.408,0  C386.752,132.653,386.752,138.656,383.049,142.359z"/>
<circle style="fill:#474B63;" cx="195.8" cy="316.2" r="195.8"/>
<path style="fill:#3E4356;" d="M25.283,316.2c0-103.889,80.914-188.864,183.158-195.382C95.004,113.581,0,203.547,0,316.2  c0,112.478,94.803,202.612,208.441,195.382C106.197,505.065,25.283,420.089,25.283,316.2z"/>
<path style="fill:#CE3024;" d="M451.227,10.428l-27.948,27.948l50.346,50.346l27.948-27.948c13.903-13.903,13.903-36.443,0-50.346  C487.669-3.476,465.13-3.475,451.227,10.428z"/>
<path style="fill:#AF221B;" d="M475.78,31.859c9.022-9.022,21.41-12.614,33.119-10.792C498.735-1.674,468.866-7.21,451.227,10.428  l-27.948,27.948l22.992,22.992C447.889,59.75,444.01,63.629,475.78,31.859z"/>
<circle style="fill:#F7DB94;" cx="195.8" cy="316.2" r="121.78"/>
<path style="fill:#EFCB7B;" d="M99.164,316.201c0-63.011,47.857-114.844,109.207-121.136c-72.319-7.418-134.35,49.32-134.35,121.136  c0,71.821,62.036,128.55,134.35,121.136C147.022,431.045,99.164,379.212,99.164,316.201z"/>
<circle style="fill:#FFB92E;" cx="195.8" cy="316.2" r="40.94"/>
<path style="fill:#FFA92C;" d="M216.269,280.749c-27.121-15.695-61.41,3.868-61.41,35.449c0,31.574,34.268,51.156,61.41,35.449  C188.996,335.864,189.003,296.529,216.269,280.749z"/>
<path style="fill:#EA473B;" d="M361.863,99.792c-8.337,8.337-8.341,21.852-0.013,30.195l20.163,20.163  c8.343,8.328,21.858,8.325,30.195-0.012l64.821-64.821l-50.346-50.346L361.863,99.792z"/>
<path style="fill:#C42A1E;" d="M379.29,128.349c10.693-10.692,59.177-59.177,70.386-70.386l-22.992-22.992l-64.821,64.821  c-8.337,8.337-8.341,21.852-0.013,30.195l11.001,11.001C373.593,136.362,375.723,131.915,379.29,128.349z"/>
<g>
</g>
<g>
</g>
<g>
</g>
<g>
</g>
<g>
</g>
<g>
</g>
<g>
</g>
<g>
</g>
<g>
</g>
<g>
</g>
<g>
</g>
<g>
</g>
<g>
</g>
<g>
</g>
<g>
</g>
</svg>
