<svg id="Capa_1" enable-background="new 0 0 512 512" height="512" viewBox="0 0 512 512" width="512" xmlns="http://www.w3.org/2000/svg"><g><path d="m256 334.85 18.25 99.15-18.25 78h-129c-16.6 0-30-13.4-30-30v-108.67z" fill="#8dc5e8"/><path d="m415 373.33v108.67c0 16.6-13.4 30-30 30h-129v-177.15z" fill="#5e9ff6"/><path d="m256 0 22.25 195.6-22.25 177.73h-159v-343.33c0-16.6 13.4-30 30-30z" fill="#fff5f5"/><path d="m415 30v343.33h-159v-373.33h129c16.6 0 30 13.4 30 30z" fill="#e1ebf0"/><g><path d="m256 419 13 15-13 15h-21.5c-8.28 0-15-6.72-15-15s6.72-15 15-15z" fill="#0b799d"/></g><g><path d="m292.5 434c0 8.28-6.72 15-15 15h-21.5v-30h21.5c8.28 0 15 6.72 15 15z" fill="#07485e"/></g><g><path d="m256 250.55 11.618 29.975-11.618 29.975c-20.04 0-36.29-16.25-36.29-36.29v-23.66z" fill="#ff7c48"/></g><g><path d="m292.29 250.55v23.66c0 20.04-16.25 36.29-36.29 36.29v-59.95z" fill="#ff415b"/></g><path d="m241 83.32v44.28c0 .57.04 1.14.1 1.69-1.12.26-2.23.53-3.33.85-27.77 7.91-48.1 33.48-48.1 63.79v41.62h-19c-8.29 0-15 6.72-15 15 0 8.29 6.71 15 15 15h85.33l13-70.05-13-127.18c-8.28 0-15 6.71-15 15z" fill="#ffe14d"/><path d="m341.332 235.554h-19v-41.622c0-30.353-20.37-55.887-48.105-63.799-1.097-.312-2.208-.588-3.327-.844.062-.555.101-1.117.101-1.688v-44.284c0-8.284-6.716-15-15-15v197.236h85.332c8.284 0 15-6.716 15-15s-6.717-14.999-15.001-14.999z" fill="#ffc34d"/></g></svg>