<svg height="512" viewBox="0 0 59 56" width="512" xmlns="http://www.w3.org/2000/svg"><g id="Page-1" fill="none" fill-rule="evenodd"><g id="037---Timed-Chat"><path id="Path" d="m36.25 6h-28.25c-4.418278 0-8 3.581722-8 8v24c0 4.418278 3.581722 8 8 8h4c.5522847 0 1 .4477153 1 1v8c-.0000257.390353.2270897.7450391.5816401.9083471.3545504.1633081.7717173.1053824 1.0683599-.1483471l11.07-9.52c.1796813-.1573781.4111588-.2428467.65-.24h19.63c4.418278 0 8-3.581722 8-8v-16.049z" fill="#b0d3f0"/><path id="Path" d="m46 43c-.5522847 0-1-.4477153-1-1s.4477153-1 1-1c1.6568542 0 3-1.3431458 3-3 0-.5522847.4477153-1 1-1s1 .4477153 1 1c-.0033061 2.7600532-2.2399468 4.9966939-5 5z" fill="#90bae1"/><path id="Path" d="m4 15c-.55228475 0-1-.4477153-1-1 .00330612-2.7600532 2.23994685-4.99669388 5-5 .55228475 0 1 .44771525 1 1 0 .5522847-.44771525 1-1 1-1.65685425 0-3 1.3431458-3 3 0 .5522847-.44771525 1-1 1z" fill="#ecf0f1"/><path id="Path" d="m58 13c-.0022 5.2675336-3.4407227 9.9172531-8.4765507 11.4623591-5.0358279 1.545106-10.4904292-.3760018-13.4465313-4.7358614s-2.7218902-10.13813567.5773726-14.24444548 8.8914521-5.57965607 13.7857094-3.63205222c4.5652613 1.81817963 7.5606629 6.23600091 7.56 11.15z" fill="#90bae1"/><path id="Path" d="m51.31 6.31c0 6.627417-5.372583 12-12 12-1.5283104.0046402-3.0429906-.2874282-4.46-.86-1.774963-4.4548607-.7287406-9.53866888 2.6610626-12.93064644 3.3898032-3.39197755 8.4729395-4.44145961 12.9289374-2.66935356.5758481 1.41636998.8713116 2.93104506.87 4.46z" fill="#b0d3f0"/><path id="Path" d="m50 18c-.2651948-.0000566-.5195073-.1054506-.707-.293l-4-4c-.1875494-.1874927-.2929434-.4418052-.293-.707v-7c0-.55228475.4477153-1 1-1s1 .44771525 1 1v6.587l3.707 3.706c.2859079.2859943.3714219.7160366.216678 1.0896546-.1547439.3736179-.5192821.6172591-.923678.6173454z" fill="#2980ba"/><path id="Shape" d="m46 26c-7.1797017 0-13-5.8202983-13-13 0-7.17970175 5.8202983-13 13-13s13 5.82029825 13 13c-.008266 7.1762751-5.8237249 12.991734-13 13zm0-24c-6.0751322 0-11 4.92486775-11 11 0 6.0751322 4.9248678 11 11 11s11-4.9248678 11-11c-.0071635-6.07216255-4.9278374-10.9928365-11-11z" fill="#3b97d3" fill-rule="nonzero"/></g></g></svg>