<svg id="Capa_1" enable-background="new 0 0 512 512" height="512" viewBox="0 0 512 512" width="512" xmlns="http://www.w3.org/2000/svg"><g clip-rule="evenodd" fill-rule="evenodd"><path d="m90.991 266.049h356.875c20.835.142 40.621 7.172 57.061 19.928 14.882 11.565.596 15.023-10.403 19.927-13.265 5.896-26.843 12.643-40.024 18.879-4.223 1.984-8.447 3.997-12.67 5.981-14.145 6.69-28.232 13.521-42.548 19.814-14.313 6.321-10.119 8.532 2.098 13.833 15.988 6.945 32.4 15.137 48.217 22.62 14.967 7.059 29.905 14.117 44.871 21.146 4.054 1.899 15.817 5.925 17.32 9.836 1.871 4.875-9.128 11.65-12.529 14.003-15.392 10.602-32.683 15.874-51.392 16.016h-213.587c-19.077 0-20.551-2.069-28.657-18.255-2.665-5.329-4.961-10.715-7.569-15.959-8.306-16.838-12.784-.68-17.121 8.561-2.722 5.783-5.668 11.594-8.475 17.348-4.11 8.447-11.111 8.306-21.77 8.306h-59.697c-50.03 0-90.99-40.961-90.99-90.992 0-50.06 40.96-90.992 90.99-90.992z" fill="#95d6a4"/><path d="m191.478 365.12c68.285 0 123.957-28.063 123.957-62.447s-55.672-62.447-123.957-62.447c-68.284 0-123.984 28.063-123.984 62.447-.001 34.384 55.699 62.447 123.984 62.447z" fill="#66b394"/><path d="m191.421 303.24c-28.261 12.784-74.096 6.747-117.211-18.142-39.145-22.592-65.932-54.907-72.849-83.735-2.211-9.27-2.777-8.873 6.606-11.679 28.431-8.532 69.9-1.502 109.132 21.146 43.113 24.889 71.26 61.569 74.322 92.41z" fill="#54c5e3"/><path d="m191.421 302.701c-33.391-3.288-73.104-33.76-100.062-80.419-24.433-42.378-32.087-87.165-22.931-117.921 2.92-9.892 2.183-9.836 12.5-7.398 31.266 7.398 66.329 36.425 90.82 78.888 26.958 46.687 33.478 96.293 19.673 126.85z" fill="#98e5fa"/><path d="m191.421 303.24c28.233 12.784 74.068 6.747 117.183-18.142 39.146-22.592 65.933-54.907 72.849-83.735 2.211-9.27 2.778-8.873-6.604-11.679-28.431-8.532-69.901-1.502-109.132 21.146-43.115 24.889-71.263 61.569-74.296 92.41z" fill="#54c5e3"/><path d="m191.421 302.701c33.364-3.288 73.076-33.76 100.032-80.419 24.436-42.378 32.089-87.165 22.933-117.921-2.919-9.892-2.183-9.836-12.501-7.398-31.265 7.398-66.329 36.425-90.82 78.888-26.958 46.687-33.476 96.293-19.644 126.85z" fill="#98e5fa"/><path d="m191.421 302.701c-34.752-19.559-59.187-65.764-59.187-119.679 0-48.926 20.126-91.503 49.832-113.584 9.524-7.115 8.674-7.427 18.511-.142 29.791 22.054 50.002 64.715 50.002 113.726 0 53.916-24.433 100.12-59.158 119.679z" fill="#d2f6ff"/><path d="m.001 357.042c0 50.031 40.96 90.992 90.99 90.992h59.697c10.658 0 17.659.142 21.77-8.306 2.807-5.754 5.753-11.565 8.475-17.348 4.337-9.241 8.815-25.398 17.121-8.561 2.608 5.244 4.904 10.63 7.569 15.959 8.107 16.186 9.58 18.255 28.657 18.255h213.586c18.709-.142 36-5.414 51.392-16.016 3.401-2.353 14.4-9.128 12.529-14.003-1.333-3.458-10.715-7.001-15.647-9.099-14.626 9.212-30.84 13.833-48.273 13.946h-213.587c-19.077 0-20.551-2.041-28.657-18.227-2.665-5.358-4.961-10.743-7.569-15.987-8.306-16.838-12.784-.652-17.121 8.561-2.722 5.811-5.668 11.594-8.475 17.376-4.11 8.447-11.111 8.306-21.77 8.306l-59.697-.028c-45.778 0-83.932-34.242-90.111-78.406-.567 4.11-.879 8.305-.879 12.586z" fill="#78c2a4"/><path d="m356.281 201.363c-5.131 21.458-21.288 44.815-45.325 64.687-8.277 6.832-17.489 13.266-27.525 19.049-23.696 13.691-48.188 21.657-70.155 23.953 27.183 3.231 62.049-4.734 95.327-23.953 10.034-5.783 19.247-12.217 27.523-19.049 24.038-19.871 40.167-43.229 45.325-64.687 2.211-9.27 2.778-8.873-6.604-11.679-11.253-3.402-24.576-4.337-38.948-2.807 4.848.567 9.469 1.502 13.777 2.807 9.411 2.806 8.816 2.409 6.605 11.679z" fill="#48bbdb"/><path d="m258.091 266.049c12.19-12.132 23.611-26.901 33.362-43.767 5.528-9.609 10.205-19.36 14.032-28.999 13.011-32.967 15.987-65.14 8.9-88.923-2.919-9.892-2.183-9.836-12.501-7.398-4.45 1.077-8.957 2.551-13.522 4.45.256.879.539 1.842.879 2.948 7.966 26.816 3.176 64.262-14.37 101.481-2.58 5.499-5.442 10.97-8.589 16.441-9.751 16.866-21.175 31.635-33.364 43.767-4.138 4.11-8.361 7.937-12.67 11.424-8.333 10.573-18.057 19.162-28.771 25.2-.028.028-.057.028-.085.028h.057c21.317-2.126 45.156-15.279 66.642-36.652z" fill="#8bdef5"/><path d="m245.675 224.012c3.175-12.87 4.904-26.646 4.904-40.989 0-17.631-2.607-34.441-7.342-49.748-8.447-27.297-23.583-49.861-42.66-63.978-9.837-7.285-8.986-6.973-18.511.142-1.105.822-2.183 1.644-3.231 2.522 22.563 18.34 39.09 48.841 44.589 84.785 1.305 8.476 1.984 17.263 1.984 26.277 0 31.578-8.391 60.548-22.309 83.027-1.559 2.523-3.203 4.96-4.875 7.313-3.374 4.649-6.974 8.958-10.801 12.898-.34.312-.651.652-.964.964-2.466 2.466-5.017 4.762-7.625 6.888 3.997 3.26 8.164 6.123 12.501 8.561.028.028.057.028.057.028.028 0 .057 0 .085-.028 10.715-6.038 20.438-14.626 28.771-25.2 2.835-3.572 5.528-7.398 8.023-11.424 7.596-12.303 13.549-26.505 17.404-42.038z" fill="#b8f0ff"/><path d="m154.543 266.049c-7.597-12.302-13.55-26.504-17.404-42.038-3.175-12.87-4.904-26.646-4.904-40.989 0-17.631 2.608-34.441 7.342-49.748-6.151-6.236-12.501-11.792-18.935-16.611-8.617 19.417-13.55 42.122-13.55 66.359 0 7.909.511 15.647 1.531 23.159 3.005 22.507 10.318 43.001 20.776 59.868 2.495 4.025 5.159 7.852 7.994 11.424 17.915 14.598 36.766 23.499 53.971 25.228h.028l-.057-.028c-4.337-2.438-8.504-5.301-12.501-8.561-9.21-7.483-17.431-17.008-24.291-28.063z" fill="#8bdef5"/><path d="m124.724 266.049c-12.188-12.132-23.612-26.901-33.364-43.767-5.527-9.609-10.204-19.36-14.031-28.999-9.382-2.948-18.594-4.96-27.439-6.066 4.167 11.622 9.609 23.442 16.328 35.064 9.75 16.866 21.174 31.635 33.362 43.767 21.486 21.373 45.354 34.554 66.67 36.652 10.12 1.021 18.453 1.134 25.143.482 0-.17-.028-.311-.028-.482-17.205-1.729-36.056-10.63-53.971-25.228-4.281-3.486-8.533-7.312-12.67-11.423z" fill="#48bbdb"/></g></svg>