<svg id="Layer_1" enable-background="new 0 0 48 48" height="512" viewBox="0 0 48 48" width="512" xmlns="http://www.w3.org/2000/svg"><circle cx="13" cy="11" fill="#f9c900" r="9"/><path d="m13 2c-4.97 0-9 4.029-9 9s4.029 9 9 9 9-4.029 9-9-4.029-9-9-9zm1 2.08c1.185.17 2.271.635 3.187 1.32l-3.187 3.186zm-3.414 5.92h-4.506c.17-1.184.634-2.271 1.32-3.186zm-1.773-4.6c.916-.686 2.002-1.151 3.187-1.32v4.507zm1.774 6.6-3.187 3.187c-.686-.916-1.15-2.002-1.32-3.187zm1.413 1.415v4.506c-1.184-.17-2.271-.634-3.186-1.32zm2 0 3.186 3.186c-.915.685-2.002 1.15-3.186 1.32zm1.414-1.415h4.507c-.17 1.185-.635 2.271-1.32 3.187zm.001-2 3.186-3.186c.685.915 1.15 2.002 1.32 3.186z" fill="#f99f10"/><path d="m13.128 12.118 3.771 33c.058.502.483.882.989.882h18.224c.506 0 .931-.38.989-.882l3.771-33c.068-.596-.397-1.118-.997-1.118h-25.75c-.599 0-1.065.522-.997 1.118z" fill="#d4f2f9"/><path d="m35.123 21 3.856-18.799c.111-.541-.237-1.07-.778-1.181-.541-.114-1.069.237-1.181.778l-3.939 19.202z" fill="#ccc"/><path d="m35.123 21 2.051-10h-2.041l-2.052 10z" fill="#efefef"/><path d="m14.029 20 2.871 25.118c.057.502.482.882.988.882h18.224c.506 0 .931-.38.989-.882l2.871-25.118z" fill="#e19214"/><path d="m39.839 21.161.133-1.161h-25.943l2.766 24.205z" fill="#e3b807"/><path d="m29.383 21.913 3.692-1.529c.511-.212 1.097.031 1.309.542l1.529 3.692c.212.511-.031 1.097-.542 1.309l-3.692 1.529c-.511.212-1.097-.031-1.309-.542l-1.529-3.692c-.212-.511.03-1.098.542-1.309zm1.235 10-3.692-1.529c-.511-.212-1.097.031-1.309.542l-1.529 3.692c-.212.511.031 1.097.542 1.309l3.692 1.529c.511.212 1.097-.031 1.309-.542l1.529-3.692c.212-.511-.031-1.098-.542-1.309zm-9.326-11.205-3.083 3.083c-.391.391-.391 1.026 0 1.417l3.083 3.083c.391.391 1.026.391 1.417 0l3.083-3.083c.391-.391.391-1.026 0-1.417l-3.083-3.083c-.392-.391-1.026-.391-1.417 0z" fill="#f2d6ad"/></svg>