<svg id="Capa_1" enable-background="new 0 0 512 512" height="512" viewBox="0 0 512 512" width="512" xmlns="http://www.w3.org/2000/svg"><g><path d="m317.341 357.377c4.864-20.624 14.005-39.997 26.829-56.866l22.405-29.469c3.456-4.545 7.079-8.958 10.72-13.356 22.543-27.232 36.093-62.18 36.093-100.294 0-86.228-69.342-156.26-155.305-157.375-87.08-1.129-159.067 69.545-159.469 156.631-.178 38.522 13.486 73.847 36.303 101.293 3.434 4.13 6.843 8.28 10.094 12.556l22.819 30.014c12.825 16.868 21.965 36.241 26.829 56.866z" fill="#fea613"/><path d="m413.388 157.389c0 38.119-13.551 73.064-36.098 100.302-3.634 4.398-7.257 8.807-10.713 13.352l-22.41 29.469c-12.818 16.871-21.96 36.244-26.83 56.864h-22.745c4.039-17.14 6.526-34.728 16.102-49.758 11.051-17.346 24.419-34.559 37.14-49.928 22.546-27.238 36.096-62.183 36.096-100.3 0-81.934-62.613-149.249-142.61-156.695 5.509-.524 11.111-.754 16.766-.681 85.956 1.12 155.302 71.147 155.302 157.375z" fill="#fb8801"/><g><path d="m284.801 364.165c-4.142 0-7.5-3.357-7.5-7.5v-14.249c0-2.089-1.029-4.042-2.752-5.223-5.806-3.979-9.272-10.558-9.272-17.597v-15.689h-18.552v15.689c0 7.039-3.466 13.617-9.273 17.597-1.723 1.181-2.752 3.134-2.752 5.223v14.249c0 4.143-3.358 7.5-7.5 7.5s-7.5-3.357-7.5-7.5v-14.249c0-7.038 3.466-13.616 9.272-17.596 1.724-1.182 2.753-3.134 2.753-5.224v-15.689h-10.926c-14.296 0-25.926-11.631-25.926-25.927s11.63-25.927 25.926-25.927 25.926 11.631 25.926 25.927v10.927h18.552v-10.927c0-14.296 11.63-25.927 25.926-25.927s25.926 11.631 25.926 25.927-11.63 25.927-25.926 25.927h-10.926v15.689c0 2.09 1.029 4.042 2.752 5.224 5.806 3.979 9.272 10.558 9.272 17.596v14.249c0 4.143-3.358 7.5-7.5 7.5zm-4.525-75.258h10.926c6.025 0 10.926-4.901 10.926-10.927s-4.901-10.927-10.926-10.927-10.926 4.901-10.926 10.927zm-59.478-21.853c-6.025 0-10.926 4.901-10.926 10.927s4.901 10.927 10.926 10.927h10.926v-10.928c0-6.025-4.901-10.926-10.926-10.926z" fill="#2b3838"/></g><path d="m256 511.999c-17.905 0-32.42-14.515-32.42-32.42v-5.614h64.839v5.614c.001 17.905-14.514 32.42-32.419 32.42z" fill="#2b3838"/><path d="m288.424 473.965v5.613c0 17.907-14.514 32.422-32.422 32.422-2.524 0-4.985-.293-7.341-.838 14.368-3.32 25.081-16.2 25.081-31.584v-5.613z" fill="#212d2d"/><path d="m256 394.315h-61.514v53.372c0 1.369.454 2.699 1.291 3.782l17.356 22.461c1.171 1.516 2.979 2.404 4.895 2.404h37.972 37.972c1.916 0 3.723-.888 4.895-2.404l17.356-22.461c.837-1.083 1.291-2.413 1.291-3.782v-53.372z" fill="#537983"/><path d="m317.516 394.316v53.366c0 1.372-.451 2.702-1.288 3.791l-17.363 22.463c-1.173 1.508-2.974 2.398-4.891 2.398h-19.447c1.916 0 3.728-.89 4.901-2.398l17.352-24.735c.838-1.089 1.299-2.419 1.299-3.791v-51.094z" fill="#426970"/><path d="m324.507 396.685h-137.014c-3.129 0-5.666-2.537-5.666-5.666v-30.344c0-3.129 2.537-5.666 5.666-5.666h137.013c3.129 0 5.666 2.537 5.666 5.666v30.344c.001 3.129-2.536 5.666-5.665 5.666z" fill="#8ebac5"/><path d="m330.176 360.672v30.348c0 3.131-2.545 5.665-5.665 5.665h-21.856c3.131 0 5.665-2.534 5.665-5.665v-30.348c0-3.131-2.534-5.666-5.665-5.666h21.856c3.121 0 5.665 2.535 5.665 5.666z" fill="#7ca1b1"/></g></svg>