<?xml version="1.0" encoding="iso-8859-1"?>
<!-- Generator: Adobe Illustrator 19.0.0, SVG Export Plug-In . SVG Version: 6.00 Build 0)  -->
<svg version="1.1" id="Capa_1" xmlns="http://www.w3.org/2000/svg" xmlns:xlink="http://www.w3.org/1999/xlink" x="0px" y="0px"
	 viewBox="0 0 513.067 513.067" style="enable-background:new 0 0 513.067 513.067;" xml:space="preserve">
<path style="fill:#F3F3F3;" d="M256.533,72.533L256.533,72.533C175.467,153.6,130.667,198.4,49.6,279.467v233.6h412.8V278.4
	C382.4,197.333,337.6,152.533,256.533,72.533z"/>
<path style="fill:#E8EAE9;" d="M462.4,278.4v46.933c-80-80-124.8-125.867-205.867-205.867
	c-81.067,80-125.867,125.867-205.867,205.867V278.4c80-81.067,124.8-125.867,205.867-205.867
	C337.6,152.533,382.4,197.333,462.4,278.4z"/>
<circle style="fill:#F7B64C;" cx="256.533" cy="359.467" r="115.2"/>
<circle style="fill:#FFD15C;" cx="256.533" cy="359.467" r="83.2"/>
<path style="fill:#F7B64C;" d="M251.2,416v-9.6c-11.733-2.133-22.4-7.467-32-16l12.8-16c7.467,6.4,13.867,10.667,19.2,11.733
	v-20.267c-9.6-2.133-17.067-5.333-21.333-9.6c-4.267-4.267-6.4-10.667-6.4-18.133s2.133-13.867,7.467-19.2
	c5.333-5.333,11.733-8.533,20.267-9.6v-6.4h14.933v7.467c9.6,1.067,18.133,5.333,27.733,11.733l-11.733,16
	c-5.333-4.267-10.667-6.4-16-8.533v20.267c9.6,2.133,17.067,6.4,22.4,10.667C292.8,364.8,296,371.2,296,378.667
	s-2.133,13.867-7.467,19.2c-5.333,5.333-12.8,8.533-21.333,9.6V416H251.2z M251.2,329.6c-4.267,1.067-6.4,4.267-6.4,7.467
	s2.133,6.4,6.4,8.533V329.6z M272.533,378.667c0-2.133,0-3.2-1.067-5.333c-1.067-1.067-3.2-2.133-5.333-3.2V387.2
	C270.4,386.133,272.533,382.933,272.533,378.667z"/>
<path style="fill:#F3705A;" d="M456,279.467L256.533,80L57.067,279.467c-12.8,12.8-34.133,12.8-46.933,0l0,0
	c-12.8-12.8-12.8-34.133,0-46.933L233.067,9.6C245.867-3.2,267.2-3.2,280,9.6l222.933,222.933c12.8,12.8,12.8,34.133,0,46.933l0,0
	C490.133,292.267,468.8,292.267,456,279.467z"/>
<g>
</g>
<g>
</g>
<g>
</g>
<g>
</g>
<g>
</g>
<g>
</g>
<g>
</g>
<g>
</g>
<g>
</g>
<g>
</g>
<g>
</g>
<g>
</g>
<g>
</g>
<g>
</g>
<g>
</g>
</svg>
