<svg id="Capa_1" enable-background="new 0 0 512 512" height="512" viewBox="0 0 512 512" width="512" xmlns="http://www.w3.org/2000/svg"><g><path d="m205.058 482.964c-64.182-43.841-76.837-128.021-33.055-192.243 19.896-29.184 45.68-46.504 77.236-54.926 8.411-2.245 16.622-5.078 24.586-8.441-3.533-9.566-7.263-21.481-9.051-31.615l-4.061-23.019c-5.517-31.275-32.691-54.074-64.448-54.074-31.758 0-58.931 22.8-64.448 54.074l-3.982 22.571c-5.487 31.103-19.474 59.954-39.799 84.128-21.018 24.999-33.534 57.382-33.092 92.7.972 77.72 65.272 140.414 142.993 139.513 14.861-.172 30.181-3.661 43.602-8.083-12.304-4.058-25.261-12.922-36.481-20.585z" fill="#4bcd5c"/><path d="m97.564 372.118c-.442-35.318 12.074-67.701 33.092-92.7 20.325-24.174 34.313-53.025 39.799-84.128l3.982-22.571c4.226-23.959 21.169-42.929 43.139-50.501-6.709-2.312-13.881-3.574-21.31-3.574-31.758 0-58.931 22.8-64.448 54.074l-3.982 22.571c-5.487 31.103-19.474 59.954-39.799 84.128-21.018 24.999-33.534 57.382-33.092 92.7.972 77.72 65.272 140.414 142.993 139.513 6.187-.072 12.453-.724 18.629-1.774-66.54-10.671-118.133-68.183-119.003-137.738z" fill="#00c53b"/><path d="m249.953 3.856c-2.073-3.655-6.716-4.938-10.368-2.863-1.462.829-26.055 15.286-40.52 54.32-.331.893-1.078 1.574-2.003 1.802l-21.358 5.276c-15.57 3.845-29.148 13.953-37.304 27.757-2.004 3.392-1.333 7.843 1.824 10.2 1.394 1.041 2.993 1.529 4.569 1.529 2.562 0 5.057-1.296 6.487-3.625 6.378-10.389 16.237-18.169 28.072-21.092l9.732-2.404c2.055-.508 3.924 1.299 3.496 3.372-2.428 11.759-3.901 25.105-3.92 40.213-.005 3.893 2.774 7.375 6.639 7.852 4.633.571 8.573-3.027 8.573-7.546 0-31.623 6.983-54.43 14.707-69.99.75-1.511 2.851-1.657 3.824-.279l9.129 12.937c1.482 2.1 3.833 3.222 6.221 3.222 1.706 0 3.431-.573 4.871-1.77 3.08-2.559 3.508-7.148 1.199-10.419l-13.717-19.438c-.568-.806-.548-1.897.065-2.669 8.86-11.177 16.703-15.888 16.95-16.034 3.629-2.081 4.898-6.708 2.832-10.351z" fill="#74d579"/><path d="m241.096 52.531c-3.91.365-7.224 3.044-8.399 6.791-2.919 9.305-1.865 18.827 3.814 25.851s14.769 10.049 24.479 9.143c3.91-.365 7.224-3.044 8.399-6.791 2.919-9.305 1.865-18.827-3.814-25.851s-14.769-10.049-24.479-9.143z" fill="#4bcd5c"/><path d="m248.808 85.172c-5.679-7.024-6.733-16.546-3.814-25.851.932-2.973 3.22-5.251 6.074-6.257-3.164-.671-6.527-.855-9.972-.534-3.91.365-7.224 3.044-8.399 6.791-2.919 9.305-1.865 18.827 3.814 25.851s14.769 10.049 24.479 9.143c.808-.075 1.581-.271 2.325-.534-5.755-1.22-10.843-4.077-14.507-8.609z" fill="#00c53b"/><path d="m425.575 358.069c-2.811-31.242 2.224-62.689 15.479-91.118l9.877-21.185c13.419-28.783 4.237-63.046-21.777-81.261-26.014-18.215-61.351-15.125-83.809 7.329l-16.208 16.206c-22.334 22.331-50.34 37.941-80.855 46.086-31.555 8.422-60.382 27.77-80.278 56.954-43.782 64.222-27.071 152.459 37.111 196.3 63.822 43.595 151.011 27.823 195.462-35.659 19.898-28.417 27.881-61.61 24.998-93.652z" fill="#fee6c1"/><path d="m254.876 487.379c-64.182-43.841-80.893-132.078-37.111-196.3 19.896-29.184 48.723-48.532 80.278-56.954 30.515-8.144 58.521-23.755 80.855-46.086l16.208-16.206c6.284-6.283 13.577-11.047 21.392-14.256-23.98-9.867-52.167-4.726-71.152 14.256l-16.208 16.206c-22.334 22.331-50.34 37.941-80.855 46.086-31.556 8.422-60.383 27.77-80.278 56.954-43.782 64.222-27.071 152.459 37.111 196.3 31.751 21.688 69.285 28.678 104.463 22.415-19.059-3.41-37.709-10.807-54.703-22.415z" fill="#fcd79b"/><g><path d="m330.28 305.27c22.955 16.073 34.437 42.415 32.603 68.471 13.141-42.207 9.223-79.355-13.729-95.427-22.952-16.071-59.2-7.047-94.367 19.737 23.858-10.634 52.539-8.854 75.493 7.219z" fill="#ffd086"/></g><g><path d="m312.995 296.183c16.617-7.57 32.506-10.54 46.078-8.094-2.784-3.794-6.079-7.086-9.919-9.775-22.952-16.071-59.2-7.047-94.367 19.737 18.16-8.094 39.112-8.987 58.208-1.868z" fill="#ffc365"/></g><circle cx="286.47" cy="367.967" fill="#bc7c63" r="77.211"/><path d="m291.944 431.214c-34.931-24.459-43.42-72.603-18.961-107.534 9.787-13.977 23.37-23.707 38.377-28.8-31.692-10.808-67.967-.006-88.137 28.8-24.458 34.931-15.969 83.075 18.961 107.534 20.954 14.672 46.658 17.475 69.157 9.839-6.738-2.298-13.273-5.551-19.397-9.839z" fill="#ab6b51"/></g></svg>