<svg height="512" viewBox="0 0 128 128" width="512" xmlns="http://www.w3.org/2000/svg"><g><path d="m20.1 60.319v47.819a6.232 6.232 0 0 0 6.232 6.232h43.55a6.232 6.232 0 0 0 6.232-6.232v-47.819a10.93 10.93 0 0 0 -1.979-6.273l-9.935-14.176.008-.053v-7.017h-32.2v7.019l.008.053-9.932 14.174a10.924 10.924 0 0 0 -1.984 6.273z" fill="#fff5f5"/><path d="m29.449 13.63h37.325a1.337 1.337 0 0 1 1.337 1.337v16.494a1.337 1.337 0 0 1 -1.337 1.339h-37.325a1.338 1.338 0 0 1 -1.338-1.338v-16.494a1.338 1.338 0 0 1 1.338-1.338z" fill="#4d5e80"/><path d="m20.104 66.333h56.013v35.75h-56.013z" fill="#00b7f0"/><g fill="#3c4465"><path d="m62.361 32.714v-18.75a1.751 1.751 0 0 0 -.033-.334h-3.428a1.751 1.751 0 0 0 -.034.334v18.75c0 .029.007.056.009.084h3.483c-.004-.028.003-.055.003-.084z"/><path d="m37.361 32.526v-18.75c0-.05-.01-.1-.014-.146h-3.471c0 .049-.015.1-.015.146v18.75a1.729 1.729 0 0 0 .028.272h3.445a1.729 1.729 0 0 0 .027-.272z"/><path d="m54.215 32.589v-18.75a1.608 1.608 0 0 0 -.021-.209h-3.458a1.8 1.8 0 0 0 -.021.209v18.75a1.782 1.782 0 0 0 .021.209h3.458a1.591 1.591 0 0 0 .021-.209z"/><path d="m45.507 32.651v-18.751a1.74 1.74 0 0 0 -.027-.271h-3.445a1.741 1.741 0 0 0 -.028.271v18.75c0 .051.011.1.015.147h3.47a1.407 1.407 0 0 0 .015-.146z"/></g><path d="m64.211 39.767v-6.967h-32.2v6.908c.144.083.225.127.225.127h31.75z" fill="#efe1e1"/><path d="m44.736 73.333v7.5h-7.5v6.75h7.5v7.5h6.75v-7.5h7.5v-6.75h-7.5v-7.5z" fill="#efe1e1"/><path d="m102.585 113.3a9.749 9.749 0 0 0 4.238-13.121l-12.3-24.036a9.75 9.75 0 0 0 -17.359 8.883l12.3 24.036a9.75 9.75 0 0 0 13.121 4.238z" fill="#fb3d80"/><path d="m102.585 113.3a9.749 9.749 0 0 0 4.238-13.121l-6.15-12.018-17.359 8.881 6.15 12.018a9.75 9.75 0 0 0 13.121 4.24z" fill="#00b7f0"/></g></svg>