<svg height="512pt" viewBox="-9 0 512 512" width="512pt" xmlns="http://www.w3.org/2000/svg"><path d="m358.398438 260.726562 29.589843 17.5625 29.625-17.5625h2.253907c0-51.195312 49.605468-57.8125 49.546874-112.871093-.058593-52.484375-40.726562-78.304688-81.425781-77.746094-40.667969-.558594-81.335937 25.261719-81.394531 77.746094-.085938 55.058593 49.515625 61.675781 49.515625 112.871093zm0 0" fill="#fcd968" fill-rule="evenodd"/><path d="m438.679688 147.855469c.058593 55.058593-49.546876 61.675781-49.546876 112.871093h30.734376c0-51.195312 49.605468-57.8125 49.546874-112.871093-.058593-52.488281-40.726562-78.304688-81.421874-77.75-5.15625-.058594-10.285157.292969-15.355469 1.054687 34.957031 5.359375 65.984375 30.855469 66.042969 76.695313zm0 0" fill="#e6a235" fill-rule="evenodd"/><path d="m412.339844 168.460938h-49.664063c-4.242187 0-7.679687 3.433593-7.679687 7.671874 0 4.234376 3.4375 7.667969 7.679687 7.667969h17.636719v76.925781c0 4.238282 3.4375 7.671876 7.675781 7.671876 4.242188 0 7.679688-3.433594 7.679688-7.671876v-76.925781h16.671875c4.238281 0 7.675781-3.433593 7.675781-7.667969 0-4.238281-3.4375-7.671874-7.675781-7.671874zm0 0" fill="#eceff1"/><path d="m388.050781 40.222656c-4.242187 0-7.679687-3.4375-7.679687-7.671875v-24.878906c0-4.238281 3.4375-7.671875 7.679687-7.671875 4.238281 0 7.675781 3.433594 7.675781 7.671875v24.878906c0 4.238281-3.4375 7.671875-7.675781 7.671875zm0 0" fill="#fcd968"/><path d="m307.386719 62.351562c-1.964844 0-3.929688-.746093-5.429688-2.246093l-17.609375-17.59375c-2.996094-2.996094-2.996094-7.851563 0-10.847657 3-2.996093 7.863282-2.996093 10.859375 0l17.609375 17.59375c2.996094 2.996094 2.996094 7.851563 0 10.847657-1.5 1.496093-3.464844 2.246093-5.429687 2.246093zm0 0" fill="#fcd968"/><path d="m468.683594 62.351562c-1.96875 0-3.933594-.75-5.433594-2.25-2.996094-2.996093-2.992188-7.855468.007812-10.847656l17.640626-17.59375c3-2.992187 7.859374-2.988281 10.859374.011719 2.996094 2.996094 2.988282 7.851563-.011718 10.847656l-17.636719 17.589844c-1.5 1.496094-3.464844 2.242187-5.425781 2.242187zm0 0" fill="#fcd968"/><g fill-rule="evenodd"><path d="m168.503906 358.761719v69.054687c0 46.304688-37.917968 84.183594-84.269531 84.183594-46.328125 0-84.234375-37.882812-84.234375-84.183594v-69.054687l23.839844-7.671875 60.394531-19.429688 18.03125 5.792969 42.386719 13.636719zm0 0" fill="#c4cccf"/><path d="m108.90625 329.609375-6.640625 7.84375-11.539063 13.636719-6.492187 7.671875h-84.234375v-40.132813c0-21.105468 17.289062-38.375 38.386719-38.375h45.847656zm0 0" fill="#eceff1"/><path d="m168.503906 318.628906v40.132813h-84.269531v-78.511719h45.851563c21.128906.003906 38.417968 17.273438 38.417968 38.378906zm0 0" fill="#eceff1"/><path d="m131.964844 379.425781h36.539062v-60.796875c0-21.105468-17.289062-38.375-38.414062-38.375h-36.535156c21.125 0 38.410156 17.269532 38.410156 38.375zm0 0" fill="#c4cccf"/><path d="m168.503906 358.761719h-36.539062v69.050781c0 40.042969-28.363282 73.765625-65.984375 82.167969 5.890625 1.316406 11.984375 2.019531 18.253906 2.019531 46.355469 0 84.269531-37.878906 84.269531-84.1875zm0 0" fill="#90a4ae"/></g><path d="m387.988281 299.570312c-4.238281 0-7.675781 3.433594-7.675781 7.671876v136.582031c0 14.511719-11.804688 26.316406-26.308594 26.316406h-72.3125c-14.523437 0-26.339844-11.804687-26.339844-26.316406v-251.210938c0-22.953125-18.691406-41.628906-41.667968-41.628906h-95.429688c-22.992187 0-41.695312 18.675781-41.695312 41.628906v158.476563h-76.558594v15.34375h168.503906v-15.34375h-76.589844v-158.476563c0-14.496093 11.816407-26.289062 26.339844-26.289062h95.429688c14.507812 0 26.308594 11.792969 26.308594 26.289062v251.210938c0 22.972656 18.707031 41.65625 41.695312 41.65625h72.316406c22.972656 0 41.664063-18.6875 41.664063-41.65625v-136.582031c0-4.238282-3.4375-7.671876-7.679688-7.671876zm0 0" fill="#546e7a"/><path d="m387.988281 260.726562h-29.589843c-12.804688 0-23.265626 10.480469-23.265626 23.242188 0 12.792969 10.460938 23.273438 23.265626 23.273438h59.214843c12.773438 0 23.265625-10.480469 23.265625-23.273438 0-12.761719-10.492187-23.242188-23.265625-23.242188zm0 0" fill="#c4cccf" fill-rule="evenodd"/><path d="m440.878906 283.96875c0-12.761719-10.492187-23.242188-23.265625-23.242188h-30.765625c6.941406 0 13.183594 3.074219 17.433594 7.90625 3.632812 4.097657 5.859375 9.480469 5.859375 15.335938 0 12.792969-10.488281 23.273438-23.292969 23.273438h30.765625c12.773438 0 23.265625-10.480469 23.265625-23.273438zm0 0" fill="#90a4ae" fill-rule="evenodd"/></svg>