<?xml version="1.0" encoding="iso-8859-1"?>
<!-- Generator: Adobe Illustrator 19.0.0, SVG Export Plug-In . SVG Version: 6.00 Build 0)  -->
<svg version="1.1" id="Capa_1" xmlns="http://www.w3.org/2000/svg" xmlns:xlink="http://www.w3.org/1999/xlink" x="0px" y="0px"
	 viewBox="0 0 512 512" style="enable-background:new 0 0 512 512;" xml:space="preserve">
<path style="fill:#B7E0F6;" d="M498.8,422.8c-8.101,8.101-19.501,13.2-31.8,13.2H45c-12.299,0-23.699-5.099-31.8-13.2l1.8-35.4
	l134.2-133.2L181,256l14.399-14.399h125.4L331,256h39.3l124.3,123.3L498.8,422.8z"/>
<g>
	<path style="fill:#A4D9F5;" d="M498.8,422.8c-8.101,8.101-19.501,13.2-31.8,13.2H256V241.601h64.799L331,256h39.3l124.3,123.3
		L498.8,422.8z"/>
	<path style="fill:#A4D9F5;" d="M179.09,222.754L44.531,89.195H13.195C5.046,97.343,0,108.593,0,121v270
		c0,12.407,5.046,23.657,13.195,31.805L181,256L179.09,222.754z"/>
</g>
<path style="fill:#81C8EE;" d="M498.805,89.195H467L335.722,219.472L331,256l167.805,166.805C506.954,414.657,512,403.407,512,391
	V121C512,108.593,506.954,97.343,498.805,89.195z"/>
<path style="fill:#FEDB41;" d="M498.8,89.2L298.299,288.701C286.601,300.399,271.3,306.4,256,306.4s-30.601-6-42.299-17.699
	L13.2,89.2C21.301,81.099,32.701,76,45,76h422C479.299,76,490.699,81.099,498.8,89.2z"/>
<path style="fill:#FCBF29;" d="M298.299,288.701C286.601,300.399,271.3,306.4,256,306.4V76h211c12.299,0,23.699,5.099,31.8,13.2
	L298.299,288.701z"/>
<g>
</g>
<g>
</g>
<g>
</g>
<g>
</g>
<g>
</g>
<g>
</g>
<g>
</g>
<g>
</g>
<g>
</g>
<g>
</g>
<g>
</g>
<g>
</g>
<g>
</g>
<g>
</g>
<g>
</g>
</svg>
