<svg height="512pt" viewBox="0 -26 512 512" width="512pt" xmlns="http://www.w3.org/2000/svg"><path d="m456.925781 362.9375h-401.851562c-18.242188 0-33.03125-14.789062-33.03125-33.03125s14.789062-33.03125 33.03125-33.03125h401.851562c18.246094 0 33.03125 14.789062 33.03125 33.03125s-14.789062 33.03125-33.03125 33.03125zm0 0" fill="#cf5f1d"/><path d="m456.925781 296.875h-44.8125c18.242188 0 33.03125 14.789062 33.03125 33.027344 0 18.246094-14.789062 33.03125-33.03125 33.03125h44.8125c18.242188 0 33.03125-14.789063 33.03125-33.03125 0-18.238282-14.789062-33.027344-33.03125-33.027344zm0 0" fill="#c24e0a"/><path d="m489.957031 280.925781c0 23.234375-23.335937 39.601563-44.960937 31.109375-3.761719-1.476562-8.148438-2.382812-13.527344-2.382812-29.242188 0-29.242188 26.785156-58.488281 26.785156-29.242188 0-29.242188-26.785156-58.484375-26.785156-29.242188 0-29.242188 26.785156-58.488282 26.785156-29.246093 0-29.246093-26.785156-58.488281-26.785156-29.246093 0-29.246093 26.785156-58.488281 26.785156-29.246094 0-29.246094-26.785156-58.496094-26.785156-5.378906 0-9.769531.90625-13.535156 2.386718-21.621094 8.496094-44.957031-7.878906-44.957031-31.109374v-.003907c0-21.71875 17.605469-39.324219 39.320312-39.324219h389.273438c21.714843 0 39.320312 17.605469 39.320312 39.324219zm0 0" fill="#39b54a"/><path d="m439.480469 241.601562v39.324219c0 13.863281-8.3125 25.277344-19.605469 30.425781 3.320312-1.066406 7.109375-1.699218 11.597656-1.699218 5.375 0 9.761719.90625 13.523438 2.382812 21.625 8.492188 44.960937-7.875 44.960937-31.109375 0-21.71875-17.605469-39.324219-39.320312-39.324219zm0 0" fill="#28a139"/><path d="m456.925781 260.179688h-401.851562c-18.242188 0-33.03125-14.789063-33.03125-33.03125 0-18.242188 14.789062-33.03125 33.03125-33.03125h401.851562c18.246094 0 33.03125 14.789062 33.03125 33.03125 0 18.242187-14.789062 33.03125-33.03125 33.03125zm0 0" fill="#fae34b"/><path d="m456.925781 194.117188h-44.8125c18.242188 0 33.03125 14.789062 33.03125 33.03125 0 18.242187-14.789062 33.03125-33.03125 33.03125h44.8125c18.242188 0 33.03125-14.789063 33.03125-33.03125 0-18.242188-14.789062-33.03125-33.03125-33.03125zm0 0" fill="#ebd12f"/><path d="m433.25 459.027344h-354.5c-43.492188 0-78.75-35.257813-78.75-78.75v-2.808594c0-7.964844 6.457031-14.421875 14.421875-14.421875h483.15625c7.964844 0 14.421875 6.457031 14.421875 14.421875v2.808594c0 43.492187-35.257812 78.75-78.75 78.75zm0 0" fill="#ff8000"/><path d="m393.195312 459.027344h40.054688c43.492188 0 78.75-35.253906 78.75-78.75v-2.808594c0-7.964844-6.457031-14.421875-14.421875-14.421875h-62.238281c8.585937 0 15.550781 6.960937 15.550781 15.550781 0 37.371094-24.15625 69.082032-57.695313 80.429688zm0 0" fill="#e37100"/><path d="m495.613281 194.007812h-479.226562c-9.050781 0-16.386719-7.335937-16.386719-16.382812 0-85.914062 63.425781-158.699219 148.550781-170.304688 71.632813-9.761718 143.265625-9.761718 214.898438 0 85.125 11.605469 148.550781 84.390626 148.550781 170.304688 0 9.046875-7.335938 16.382812-16.386719 16.382812zm0 0" fill="#ff8000"/><path d="m363.449219 7.320312c-32.503907-4.429687-65.003907-6.839843-97.503907-7.2499995 11.761719 1.0781255 23.527344 2.4062495 35.289063 4.0078125 86.605469 11.804687 151.132813 85.855469 151.132813 173.261719 0 9.203125-7.460938 16.667968-16.667969 16.667968h59.917969c9.046874 0 16.382812-7.335937 16.382812-16.382812 0-85.914062-63.425781-158.699219-148.550781-170.304688zm0 0" fill="#e37100"/><g fill="#a64f3b"><path d="m122.074219 61.277344v-11.847656c0-4.265626-3.457031-7.726563-7.722657-7.726563-4.269531 0-7.726562 3.460937-7.726562 7.726563v11.847656c0 4.269531 3.457031 7.726562 7.726562 7.726562 4.265626 0 7.722657-3.457031 7.722657-7.726562zm0 0"/><path d="m178.734375 61.277344v-11.847656c0-4.265626-3.457031-7.726563-7.722656-7.726563-4.269531 0-7.726563 3.460937-7.726563 7.726563v11.847656c0 4.269531 3.457032 7.726562 7.726563 7.726562 4.265625 0 7.722656-3.457031 7.722656-7.726562zm0 0"/><path d="m235.394531 61.277344v-11.847656c0-4.265626-3.457031-7.726563-7.722656-7.726563-4.269531 0-7.726563 3.460937-7.726563 7.726563v11.847656c0 4.269531 3.457032 7.726562 7.726563 7.726562 4.265625 0 7.722656-3.457031 7.722656-7.726562zm0 0"/><path d="m292.054688 61.277344v-11.847656c0-4.265626-3.457032-7.726563-7.726563-7.726563-4.265625 0-7.722656 3.460937-7.722656 7.726563v11.847656c0 4.269531 3.457031 7.726562 7.722656 7.726562 4.269531 0 7.726563-3.457031 7.726563-7.726562zm0 0"/><path d="m348.714844 61.277344v-11.847656c0-4.265626-3.457032-7.726563-7.726563-7.726563-4.265625 0-7.722656 3.460937-7.722656 7.726563v11.847656c0 4.269531 3.457031 7.726562 7.722656 7.726562 4.269531 0 7.726563-3.457031 7.726563-7.726562zm0 0"/><path d="m405.375 61.277344v-11.847656c0-4.265626-3.457031-7.726563-7.726562-7.726563-4.265626 0-7.722657 3.460937-7.722657 7.726563v11.847656c0 4.269531 3.457031 7.726562 7.722657 7.726562 4.269531 0 7.726562-3.457031 7.726562-7.726562zm0 0"/><path d="m150.40625 106.921875v-11.847656c0-4.269531-3.460938-7.726563-7.726562-7.726563-4.265626 0-7.726563 3.457032-7.726563 7.726563v11.847656c0 4.265625 3.460937 7.722656 7.726563 7.722656 4.265624 0 7.726562-3.457031 7.726562-7.722656zm0 0"/><path d="m207.066406 106.921875v-11.847656c0-4.269531-3.460937-7.726563-7.726562-7.726563s-7.726563 3.457032-7.726563 7.726563v11.847656c0 4.265625 3.460938 7.722656 7.726563 7.722656s7.726562-3.457031 7.726562-7.722656zm0 0"/><path d="m263.726562 106.921875v-11.847656c0-4.269531-3.460937-7.726563-7.726562-7.726563s-7.726562 3.457032-7.726562 7.726563v11.847656c0 4.265625 3.460937 7.722656 7.726562 7.722656s7.726562-3.457031 7.726562-7.722656zm0 0"/><path d="m320.386719 106.921875v-11.847656c0-4.269531-3.460938-7.726563-7.726563-7.726563s-7.726562 3.457032-7.726562 7.726563v11.847656c0 4.265625 3.460937 7.722656 7.726562 7.722656s7.726563-3.457031 7.726563-7.722656zm0 0"/><path d="m377.046875 106.921875v-11.847656c0-4.269531-3.460937-7.726563-7.726563-7.726563-4.265624 0-7.726562 3.457032-7.726562 7.726563v11.847656c0 4.265625 3.460938 7.722656 7.726562 7.722656 4.265626 0 7.726563-3.457031 7.726563-7.722656zm0 0"/></g></svg>