<svg height="512pt" viewBox="0 -2 512.00004 512" width="512pt" xmlns="http://www.w3.org/2000/svg"><path d="m.230469 81.996094c.347656-4.796875 5.984375-7.203125 9.726562-4.175782l49.257813 39.851563c9.703125 7.851563 23.9375 6.347656 31.789062-3.355469l21.402344-26.453125c7.851562-9.707031 6.351562-23.941406-3.355469-31.792969l-49.261719-39.855468c-3.746093-3.03125-2.550781-9.039063 2.078126-10.386719 27.074218-7.871094 57.546874-2.328125 80.605468 17.804687 19.804688 17.289063 28.871094 43.050782 27.90625 68.207032-.472656 12.363281 3.984375 24.40625 12.734375 33.15625l318.035157 318.035156c14.46875 14.472656 14.46875 37.929688 0 52.398438-14.472657 14.472656-37.925782 14.476562-52.394532.007812-68.75-68.75-253.042968-253.042969-311.175781-311.175781-9.839844-9.839844-23.804687-14.554688-37.53125-12.28125-23.421875 3.878906-48.652344-1.078125-68.1875-16.882813-22.730469-18.390625-33.605469-45.992187-31.628906-73.101562zm0 0" fill="#f3e8d6"/><path d="m178.835938 140.949219c-9.839844-9.839844-23.800782-14.554688-37.527344-12.28125-18.980469 3.144531-39.148438.484375-56.511719-9.050781-7.878906 4.582031-18.078125 4.125-25.582031-1.945313l-49.257813-39.851563c-3.742187-3.027343-9.378906-.621093-9.726562 4.175782-1.980469 27.109375 8.894531 54.710937 31.628906 73.101562 19.535156 15.804688 44.765625 20.765625 68.1875 16.882813 13.726563-2.273438 27.691406 2.441406 37.53125 12.28125 58.132813 58.132812 242.425781 242.425781 311.175781 311.175781 14.46875 14.46875 37.925782 14.464844 52.394532-.003906 6.460937-6.460938 10.027343-14.710938 10.71875-23.152344-43.390626-43.125-280.277344-278.578125-333.03125-331.332031zm0 0" fill="#dbcdbd"/><path d="m432.414062 435.691406c-1.980468 0-3.957031-.757812-5.464843-2.265625l-143.484375-143.480469c-3.015625-3.019531-3.015625-7.910156 0-10.929687 3.019531-3.015625 7.910156-3.015625 10.925781 0l143.484375 143.484375c3.019531 3.019531 3.019531 7.910156 0 10.929688-1.507812 1.507812-3.484375 2.261718-5.460938 2.261718zm0 0" fill="#f3e8d6"/><path d="m204.878906 208.160156c-1.976562 0-3.953125-.757812-5.460937-2.265625l-38.757813-38.753906c-3.015625-3.019531-3.015625-7.910156 0-10.929687 3.019532-3.015626 7.910156-3.015626 10.929688 0l38.753906 38.757812c3.019531 3.015625 3.019531 7.90625 0 10.925781-1.507812 1.507813-3.484375 2.265625-5.464844 2.265625zm0 0" fill="#f3e8d6"/><path d="m379.085938 138.789062-146.421876 162.0625-42.398437-38.304687 146.425781-162.0625zm0 0" fill="#d8d8d8"/><path d="m436.589844 173.246094-50.277344-45.429688 33.304688-36.863281 50.277343 45.429687zm0 0" fill="#45748c"/><path d="m419.875 193.460938 20.972656 18.953124c5.46875 4.9375 13.902344 4.511719 18.839844-.953124l46.558594-51.527344c4.9375-5.464844 4.511718-13.898438-.957032-18.835938l-20.972656-18.953125c-5.46875-4.9375-13.902344-4.511719-18.839844.953125l-46.554687 51.527344c-4.941406 5.464844-4.511719 13.898438.953125 18.835938zm0 0" fill="#236575"/><path d="m378.851562 28.820312 69.722657 63.078126c2.566406 2.324218 2.765625 6.292968.445312 8.863281l-49.261719 54.519531c-2.316406 2.5625-6.273437 2.769531-8.847656.460938l-59.976562-53.816407c-2.042969-1.832031-2.652344-4.785156-1.511719-7.277343 21.3125-46.636719-46.207031-62.691407-75.941406-67.417969-5.519531-.878907-7.226563-7.976563-2.71875-11.277344 34.253906-25.039063 91.167969-20.496094 128.089843 12.867187zm0 0" fill="#45748c"/><path d="m448.574219 91.898438-40.785157-36.898438-57.828124 63.996094 40.949218 36.746094c2.574219 2.308593 6.53125 2.101562 8.847656-.464844l49.261719-54.515625c2.320313-2.570313 2.121094-6.539063-.445312-8.863281zm0 0" fill="#236575"/><path d="m140.246094 304.929688 42.351562-29.953126 38.453125 34.746094-25.519531 45.160156c-8.023438 13.472657-17.359375 26.117188-27.871094 37.753907l-92.378906 102.238281c-15.507812 17.164062-41.996094 18.507812-59.160156 3-17.164063-15.511719-18.507813-41.996094-3-59.164062l92.382812-102.238282c10.511719-11.636718 22.148438-22.203125 34.742188-31.542968zm0 0" fill="#fc7371"/><g fill="#d84444"><path d="m179.714844 288.457031-150.664063 166.742188c-7.46875 8.265625-16.503906 14.261719-26.242187 17.984375 1.414062 9.191406 5.875 17.972656 13.308594 24.691406 17.164062 15.507812 43.652343 14.164062 59.164062-3l92.378906-102.238281c10.511719-11.636719 19.847656-24.28125 27.871094-37.753907l25.519531-45.160156-33.488281-30.257812c-2.574219 3.03125-5.179688 6.039062-7.847656 8.992187zm0 0"/><path d="m175.398438 272.53125 48.8125 44.105469c3.398437 3.074219 8.644531 2.808593 11.714843-.59375l9.257813-10.242188c3.070312-3.398437 2.804687-8.644531-.59375-11.71875l-48.8125-44.105469c-3.398438-3.070312-8.644532-2.804687-11.71875.597657l-9.253906 10.242187c-3.070313 3.398438-2.808594 8.644532.59375 11.714844zm0 0"/></g></svg>