<svg id="Layer_1" enable-background="new 0 0 512 512" height="512" viewBox="0 0 512 512" width="512" xmlns="http://www.w3.org/2000/svg"><g clip-rule="evenodd" fill-rule="evenodd"><g><path d="m315.407 414.124c-39.008 0-80.976 0-119.928 0 2.614 22.696.239 49.268-4.661 71.494l129.936.001c-5.214-22.227-7.961-48.799-5.347-71.495z" fill="#656565"/><path d="m142.745 498.118c-6.904 0-12.5-5.596-12.5-12.5 0-6.903 5.596-12.5 12.5-12.5h226.082c6.904 0 12.5 5.596 12.5 12.5s-5.596 12.5-12.5 12.5z" fill="#515151"/><path d="m502 378.803c0 19.508-15.813 35.32-35.321 35.32h-421.358c-19.508 0-35.32-15.813-35.32-35.32 0-95.914 0-191.829 0-287.743 0-16.523 13.477-30 30-30h432c16.523 0 30 13.476 30 30-.001 95.914-.001 191.829-.001 287.743z" fill="#6a676b"/><path d="m480 321.867v-230.807c0-4.38-3.62-8-8-8-144 0-288 0-432 0-4.38 0-8 3.62-8 8v230.807z" fill="#92d2fe"/><path d="m45.321 414.124h150.159 119.928 151.272c19.508 0 35.321-15.813 35.321-35.32 0 0 0-13.604 0-34.937h-492.001v34.937c0 19.507 15.813 35.32 35.321 35.32z" fill="#e6e6e6"/></g><g><path d="m131.406 276.375c-5.523 0-10-4.477-10-10s4.477-10 10-10h249.188c5.523 0 10 4.477 10 10s-4.477 10-10 10z" fill="#515151"/><path d="m134.266 266.375 53.374-30.815 99.15-171.735c9.193-15.923 3.738-36.284-12.186-45.477-15.923-9.193-36.283-3.738-45.477 12.186l-99.151 171.735v61.631c0 1.05.52 1.951 1.43 2.476.909.524 1.951.524 2.86-.001z" fill="#e6e6e6"/><path d="m217.61 50.481 57.663 33.292 11.517-19.948c9.193-15.923 3.738-36.284-12.186-45.477-15.923-9.193-36.283-3.738-45.477 12.186z" fill="#ffd54f"/><path d="m114.991 109.729h175.268v66.583h-175.268z" fill="#ffc107" transform="matrix(.5 -.866 .866 .5 -22.547 246.988)"/><path d="m390.594 212.989c0 5.519-4.467 10-10 10h-103.588c-5.524 0-10-4.481-10-10s4.477-10 10-10h103.588c5.533 0 10 4.482 10 10z" fill="#515151"/></g></g></svg>