<?xml version="1.0" encoding="iso-8859-1"?>
<!-- Generator: Adobe Illustrator 19.0.0, SVG Export Plug-In . SVG Version: 6.00 Build 0)  -->
<svg xmlns="http://www.w3.org/2000/svg" xmlns:xlink="http://www.w3.org/1999/xlink" version="1.1" id="Layer_1" x="0px" y="0px" viewBox="0 0 512 512" style="enable-background:new 0 0 512 512;" xml:space="preserve">
<path style="fill:#E0E0E3;" d="M368.161,255.864c-19.359,28.483-31.997,60.582-36.529,92.825c-0.255,1.791-0.501,3.616-0.738,5.483  c-4.379,33.932-10.821,61.168-19.147,80.943c-9.981,23.688-22.856,36.487-38.269,38.031c-0.874,0.085-1.74,0.127-2.605,0.127  c-15.167,0-27.838-13.614-37.7-40.518c-7.299-19.894-13.045-46.553-16.194-75.061c-1.757-15.939-5.873-28.848-11.891-37.327  c-2.156-3.039-5.279-3.361-6.527-3.361c-1.239,0-4.371,0.323-6.527,3.361c-6.017,8.479-10.134,21.388-11.891,37.327  c-3.149,28.508-8.895,55.167-16.185,75.061c-9.862,26.905-22.542,40.518-37.709,40.518c-0.866,0-1.731-0.042-2.605-0.127  c-15.413-1.545-28.288-14.344-38.269-38.031c-8.326-19.775-14.768-47.011-19.147-80.943c-0.246-1.935-0.501-3.828-0.764-5.686  c-4.541-32.184-17.144-64.181-36.444-92.528C0.137,213.512-7.756,160.993,7.911,115.467C19.827,80.84,44.177,55.369,74.706,45.575  c57.976-18.587,105.649,5.313,123.854,16.762c18.205-11.449,65.878-35.35,123.855-16.762c30.52,9.786,54.862,35.248,66.778,69.85  C404.868,160.925,397.009,213.428,368.161,255.864z"/>
<path style="fill:#C7C5CC;" d="M368.161,255.864c-19.359,28.483-31.997,60.582-36.529,92.825c-0.255,1.791-0.501,3.616-0.738,5.483  c-4.379,33.932-10.821,61.168-19.147,80.943c-9.981,23.688-22.856,36.487-38.269,38.031c-0.874,0.085-1.74,0.127-2.605,0.127  c-15.167,0-27.838-13.614-37.7-40.518c-7.299-19.894-13.045-46.553-16.194-75.061c-1.757-15.939-5.873-28.848-11.891-37.327  c-2.156-3.039-5.279-3.361-6.527-3.361V62.337c18.205-11.449,65.878-35.35,123.855-16.762c30.52,9.786,54.862,35.248,66.778,69.85  C404.868,160.925,397.009,213.428,368.161,255.864z"/>
<path style="fill:#C8E7F9;" d="M381.711,143.824c35.999,35.701,36.247,93.837,0.545,129.836l-0.269,0.269  c-35.73,35.744-93.66,35.886-129.567,0.276c-36.006-35.709-36.247-93.837-0.546-129.836l0.276-0.276  C287.881,108.363,345.804,108.215,381.711,143.824z"/>
<polygon style="fill:#005FD1;" points="512,346.225 483.262,375.204 455.898,402.795 343.53,291.362 371.361,263.304   399.632,234.792 "/>
<path style="fill:#B5DFF6;" d="M381.711,143.824c35.999,35.701,36.247,93.837,0.545,129.836l-0.269,0.269L252.151,144.093  C287.881,108.363,345.804,108.215,381.711,143.824z"/>
<polygon style="fill:#004DB0;" points="512,346.225 483.262,375.204 371.361,263.304 399.632,234.792 "/>
<path style="fill:#83C9FF;" d="M241.525,133.468l-0.319,0.319c-20.096,20.266-31.097,47.134-30.977,75.674  s11.341,55.316,31.607,75.412c20.259,20.089,47.142,31.09,75.675,30.977c28.384-0.12,55.033-11.228,75.087-31.281  c0.007-0.007,0.007-0.007,0.014-0.014l0.312-0.312c41.368-41.723,41.191-109.265-0.319-150.775l-0.312-0.312  C350.571,91.788,283.035,91.958,241.525,133.468z M371.588,263.077l-0.234,0.234c-14.415,14.415-33.577,22.398-53.963,22.484  c-20.514,0.085-39.824-7.82-54.395-22.264c-14.557-14.443-22.625-33.69-22.71-54.19c-0.085-20.514,7.82-39.824,22.264-54.395  l0.227-0.227c14.911-14.911,34.505-22.406,54.112-22.448c19.622-0.043,39.25,7.36,54.24,22.221  C401.19,184.314,401.396,233.014,371.588,263.077z"/>
<path style="fill:#00A5FF;" d="M392.293,133.156l0.312,0.312c41.51,41.51,41.687,109.053,0.319,150.775l-0.312,0.312l-21.251-21.251  l0.227-0.227c29.808-30.063,29.602-78.763-0.46-108.585c-14.989-14.861-34.618-22.264-54.24-22.221  c-19.607,0.042-39.201,7.537-54.112,22.448l-21.251-21.251C283.035,91.958,350.571,91.788,392.293,133.156z"/>
<g>
</g>
<g>
</g>
<g>
</g>
<g>
</g>
<g>
</g>
<g>
</g>
<g>
</g>
<g>
</g>
<g>
</g>
<g>
</g>
<g>
</g>
<g>
</g>
<g>
</g>
<g>
</g>
<g>
</g>
</svg>
