<svg height="512pt" viewBox="-14 0 512 512.00128" width="512pt" xmlns="http://www.w3.org/2000/svg"><path d="m375.515625 430.367188c26.285156-12.601563 59.511719-33.636719 55.191406-58.015626-.734375-4.125-2.292969-7.511718-4.4375-10.292968-9.164062-11.882813-5.628906-29.253906 7.085938-37.21875 22.898437-14.34375 41.511719-33.664063 29.175781-55.746094-4.238281-7.585938-12.078125-11.121094-19.851562-12.65625-7.53125-1.484375-10.351563-10.769531-4.886719-16.160156 29.589843-29.183594 53.617187-64.1875 43.433593-84.503906-6.125-12.222657-20.902343-13.945313-31.75-13.371094-6.113281.328125-10.941406-5.027344-9.953124-11.070313 8.417968-51.210937-23.496094-58.945312-23.496094-58.945312s-31.632813-8.8125-49.261719 39.996093c-2.082031 5.757813-8.910156 8.078126-14.089844 4.8125-9.1875-5.792968-22.929687-11.496093-34.238281-3.816406-18.796875 12.769532-14.898438 55.050782-3.300781 94.957032 2.140625 7.371093-4.847657 14.101562-12.148438 11.722656-7.535156-2.453125-16.101562-3.1875-23.5 1.367187-21.542969 13.261719-14.714843 39.207031-1.722656 62.894531 7.214844 13.15625 1.828125 30.046876-11.964844 35.949219-3.230469 1.382813-6.246093 3.578125-8.894531 6.824219-15.664062 19.175781 3.082031 53.742188 19.882812 77.566406 2.34375 3.320313 20.726563 27.773438 43.90625 33.8125 23.179688 6.035156 51.152344-6.347656 54.820313-8.105468zm0 0" fill="#8bcc3f"/><path d="m459.707031 144.050781c10.179688 20.316407-13.84375 55.324219-43.433593 84.503907-5.464844 5.390624-2.644532 14.675781 4.886718 16.160156 5.285156 1.042968 10.597656 3.015625 14.789063 6.550781-1.691407-3.460937-1.3125-7.875 1.847656-10.992187 29.589844-29.179688 53.613281-64.1875 43.433594-84.503907-4.46875-8.910156-13.535157-12.238281-22.324219-13.164062.277344.46875.546875.945312.800781 1.445312zm0 0" fill="#659922"/><path d="m442.679688 256.4375c-1.117188-.222656-2.117188-.628906-3.015626-1.15625.476563.664062.933594 1.351562 1.34375 2.089844 12.335938 22.085937-6.277343 41.402344-29.175781 55.746094-12.714843 7.96875-16.25 25.335937-7.085937 37.21875 2.144531 2.78125 3.707031 6.171874 4.4375 10.296874 4.320312 24.378907-28.90625 45.410157-55.191406 58.015626-3.664063 1.753906-31.640626 14.136718-54.820313 8.101562-.511719-.132812-1.023437-.289062-1.53125-.4375 6.667969 5.230469 14.535156 9.9375 23.054687 12.15625 23.179688 6.035156 51.152344-6.34375 54.820313-8.101562 26.285156-12.601563 59.511719-33.636719 55.191406-58.015626-.734375-4.125-2.292969-7.511718-4.4375-10.292968-9.164062-11.882813-5.628906-29.253906 7.085938-37.21875 22.898437-14.34375 41.511719-33.664063 29.175781-55.75-4.238281-7.582032-12.078125-11.121094-19.851562-12.652344zm0 0" fill="#659922"/><path d="m418.003906 119.609375c-.992187 6.042969 3.839844 11.398437 9.953125 11.074219 3.585938-.191406 7.601563-.128906 11.59375.480468 8.320313-51.058593-23.523437-58.78125-23.523437-58.78125s-2.277344-.632812-5.945313-.617187c6.625 8.46875 11.992188 23.070313 7.921875 47.84375zm0 0" fill="#659922"/><path d="m108.089844 430.367188c-26.289063-12.601563-59.511719-33.636719-55.191406-58.015626.734374-4.125 2.292968-7.511718 4.4375-10.292968 9.164062-11.882813 5.628906-29.253906-7.085938-37.21875-22.898438-14.34375-41.511719-33.664063-29.175781-55.75 4.238281-7.582032 12.078125-11.121094 19.851562-12.652344 7.53125-1.484375 10.351563-10.769531 4.886719-16.160156-29.589844-29.183594-53.617188-64.1875-43.433594-84.507813 6.125-12.21875 20.902344-13.941406 31.75-13.367187 6.113282.324218 10.941406-5.03125 9.953125-11.070313-8.417969-51.210937 23.492188-58.949219 23.492188-58.949219s31.632812-8.808593 49.265625 40c2.078125 5.757813 8.910156 8.078126 14.089844 4.808594 9.183593-5.789062 22.929687-11.496094 34.234374-3.8125 18.800782 12.769532 14.898438 55.046875 3.304688 94.953125-2.144531 7.375 4.847656 14.101563 12.148438 11.726563 7.53125-2.453125 16.101562-3.191406 23.5 1.363281 21.539062 13.265625 14.714843 39.207031 1.71875 62.898437-7.214844 13.15625-1.828126 30.042969 11.96875 35.949219 3.226562 1.378907 6.242187 3.578125 8.890624 6.820313 15.664063 19.175781-3.078124 53.742187-19.878906 77.570312-2.34375 3.320313-20.726562 27.773438-43.90625 33.808594-23.179687 6.039062-51.152344-6.34375-54.820312-8.101562zm0 0" fill="#8bcc3f"/><path d="m206.816406 404.660156c16.800782-23.824218 35.546875-58.394531 19.882813-77.570312-2.648438-3.242188-5.667969-5.441406-8.894531-6.820313-13.796876-5.90625-19.183594-22.792969-11.964844-35.949219 12.992187-23.691406 19.816406-49.632812-1.722656-62.898437-7.398438-4.554687-15.96875-3.816406-23.5-1.363281-7.300782 2.375-14.289063-4.351563-12.148438-11.726563 11.597656-39.90625 15.496094-82.183593-3.300781-94.953125-11.308594-7.683594-25.050781-1.980468-34.238281 3.8125-5.179688 3.269532-12.007813.949219-14.089844-4.808594-1.019532-2.828124-2.089844-5.453124-3.195313-7.902343 2.21875 21.398437 11.261719 44.617187 22.21875 65.917969-9.222656 3.300781-15.761719 8.40625-20.140625 12.980468-15.898437 16.585938-20.648437 38.128906-13.378906 60.65625 4.722656 14.632813 14.292969 29.457032 29.261719 45.320313.765625.808593.777343 1.785156.746093 2.167969-.0625.820312-.40625 1.085937-.535156 1.1875-6.722656 5.207031-12 11.917968-15.679687 19.941406-6.40625 13.964844-9.851563 36.921875 10.128906 66.992187 9.257813 13.925781 22.953125 28.601563 40.703125 43.609375 1.15625.972656 5.195312 4.300782 11.324219 8.421875 15.539062-9.566406 26.730469-24.476562 28.523437-27.015625zm0 0" fill="#659922"/><path d="m299.429688 402.90625c25.148437-21.261719 55.484374-53.714844 43.820312-79.140625-1.976562-4.300781-4.648438-7.558594-7.78125-9.992187-13.402344-10.382813-14.484375-30.378907-2.847656-42.707032 20.949218-22.199218 35.796875-48.617187 16.023437-69.25-6.792969-7.089844-16.371093-8.722656-25.304687-8.183594-8.65625.519532-14.382813-8.828124-9.945313-16.277343 24.042969-40.328125 40.34375-85.4375 23.425781-104.753907-10.171874-11.613281-26.824218-9.292968-38.515624-5.574218-6.589844 2.097656-13.398438-2.382813-14.03125-9.273438-5.378907-58.378906-42.472657-57.753906-42.472657-57.753906s-37.089843-.625-42.46875 57.753906c-.636719 6.886719-7.441406 11.367188-14.035156 9.273438-11.691406-3.71875-28.339844-6.042969-38.515625 5.574218-16.914062 19.316407-.613281 64.425782 23.425781 104.753907 4.441407 7.449219-1.285156 16.796875-9.945312 16.277343-8.933594-.539062-18.511719 1.09375-25.300781 8.179688-19.773438 20.632812-4.925782 47.054688 16.023437 69.253906 11.632813 12.328125 10.550781 32.324219-2.847656 42.707032-3.136719 2.429687-5.808594 5.691406-7.78125 9.992187-11.664063 25.421875 18.667969 57.875 43.820312 79.140625 3.507813 2.964844 30.566407 24.464844 57.625 24.464844 27.0625 0 54.121094-21.5 57.628907-24.464844zm0 0" fill="#8bcc3f"/><g fill="#659922"><path d="m253.847656 57.753906c.636719 6.886719 7.441406 11.367188 14.035156 9.273438 5.660157-1.800782 12.484376-3.269532 19.171876-2.992188-1.523438-1.65625-2.554688-3.808594-2.78125-6.28125-5.378907-58.378906-42.472657-57.753906-42.472657-57.753906s-6.917969-.113281-15.210937 4.457031c10.910156 6.011719 24.203125 20.128907 27.257812 53.296875zm0 0"/><path d="m335.46875 313.773438c-13.402344-10.382813-14.484375-30.378907-2.847656-42.707032 20.949218-22.199218 35.796875-48.621094 16.023437-69.253906-6.792969-7.085938-16.371093-8.71875-25.304687-8.179688-8.65625.519532-14.382813-8.828124-9.945313-16.277343 24.042969-40.328125 40.34375-85.4375 23.425781-104.753907-10.003906-11.421874-26.265624-9.363281-37.921874-5.757812 2.730468 1.339844 5.269531 3.214844 7.496093 5.757812 16.917969 19.316407.617188 64.425782-23.421875 104.753907-4.441406 7.449219 1.285156 16.796875 9.941406 16.277343 8.933594-.539062 18.511719 1.09375 25.304688 8.179688 19.773438 20.632812 4.925781 47.054688-16.023438 69.253906-11.636718 12.328125-10.554687 32.324219 2.847657 42.707032 3.136719 2.429687 5.808593 5.691406 7.78125 9.992187 11.664062 25.421875-18.671875 57.875-43.820313 79.140625-2.84375 2.402344-21.164062 16.984375-42.414062 22.421875 4.964844 1.269531 10.085937 2.042969 15.210937 2.042969 27.058594 0 54.121094-21.5 57.625-24.46875 25.152344-21.261719 55.488281-53.714844 43.820313-79.136719-1.96875-4.300781-4.644532-7.5625-7.777344-9.992187zm0 0"/><path d="m392.792969 280.207031c-1.476563-3.980469-5.898438-6.007812-9.878907-4.535156-5.222656 1.9375-9.777343 4.421875-13.765624 7.226563l2.011718-7.710938c1.066406-4.105469-1.394531-8.304688-5.503906-9.375-4.101562-1.066406-8.304688 1.394531-9.375 5.5l-60.171875 231.0625c-1.070313 4.109375 1.394531 8.304688 5.5 9.375.652344.171875 1.304687.25 1.945313.25 3.414062 0 6.53125-2.292969 7.429687-5.75l47.714844-183.214844c1.859375-6.296875 9.054687-25.34375 29.558593-32.949218 3.980469-1.476563 6.011719-5.898438 4.535157-9.878907zm0 0"/><path d="m187.496094 502.375-60.171875-231.0625c-1.070313-4.105469-5.269531-6.570312-9.375-5.5-4.109375 1.070312-6.570313 5.265625-5.503907 9.375l2.011719 7.710938c-3.988281-2.804688-8.542969-5.292969-13.765625-7.226563-3.976562-1.472656-8.402344.554687-9.878906 4.535156-1.476562 3.976563.554688 8.402344 4.535156 9.878907 20.511719 7.605468 27.703125 26.660156 29.5625 32.949218l47.710938 183.210938c.898437 3.460937 4.015625 5.753906 7.429687 5.753906.640625 0 1.292969-.082031 1.945313-.25 4.105468-1.070312 6.570312-5.269531 5.5-9.375zm0 0"/><path d="m279.773438 137.914062c-2.507813-3.421874-7.316407-4.167968-10.742188-1.65625-8.351562 6.117188-14.695312 12.90625-19.542969 19.621094v-18.546875c0-4.246093-3.441406-7.6875-7.683593-7.6875-4.246094 0-7.6875 3.441407-7.6875 7.6875v75.9375c-4.847657-6.714843-11.191407-13.503906-19.542969-19.621093-3.425781-2.507813-8.234375-1.765626-10.742188 1.660156-2.511719 3.421875-1.765625 8.234375 1.65625 10.742187 24.953125 18.28125 28.316407 43.480469 28.628907 46.4375v52.226563c-3.828126-5.96875-8.5625-11.496094-14.441407-15.765625-3.429687-2.5-8.238281-1.738281-10.734375 1.691406-2.5 3.433594-1.738281 8.242187 1.695313 10.738281 18.449219 13.417969 23.019531 45.925782 23.480469 49.585938v153.269531c0 4.246094 3.441406 7.6875 7.6875 7.6875 4.242187 0 7.683593-3.441406 7.683593-7.6875v-153.730469c0-.011718 0-.023437 0-.03125v-59.914062c.234375-7.25 2.628907-30.972656 23.363281-45.464844 3.480469-2.429688 4.332032-7.222656 1.898438-10.703125-2.433594-3.476563-7.222656-4.328125-10.703125-1.894531-5.957031 4.160156-10.730469 8.875-14.558594 13.792968v-51.195312c.3125-2.945312 3.667969-28.152344 28.628907-46.4375 3.421874-2.507812 4.164062-7.316406 1.65625-10.742188zm0 0"/></g></svg>