<?xml version="1.0" encoding="iso-8859-1"?>
<!-- Generator: Adobe Illustrator 19.0.0, SVG Export Plug-In . SVG Version: 6.00 Build 0)  -->
<svg xmlns="http://www.w3.org/2000/svg" xmlns:xlink="http://www.w3.org/1999/xlink" version="1.1" id="Layer_1" x="0px" y="0px" viewBox="0 0 513.067 513.067" style="enable-background:new 0 0 513.067 513.067;" xml:space="preserve">
<g>
	<path style="fill:#66C6B9;" d="M293.867,355.2C401.6,389.333,409.067,218.667,468.8,204.8   C380.267,197.333,227.733,189.867,293.867,355.2z"/>
	<path style="fill:#66C6B9;" d="M224.533,433.067C286.4,289.067,93.333,286.933,44.267,256   C86.933,329.6,69.867,471.467,224.533,433.067z"/>
	<path style="fill:#66C6B9;" d="M248,298.667C313.067,179.2,260.8,44.8,131.733,0C66.667,119.467,117.867,253.867,248,298.667z"/>
</g>
<g>
	<path style="fill:#415A6B;" d="M402.667,226.133c4.267-2.133,7.467-4.267,11.733-5.333C411.2,221.867,406.933,224,402.667,226.133z   "/>
	<path style="fill:#415A6B;" d="M402.667,226.133L402.667,226.133L402.667,226.133z"/>
	<path style="fill:#415A6B;" d="M409.067,242.133c-12.8,3.2-25.6,6.4-39.467,9.6c10.667-9.6,21.333-19.2,33.067-25.6   C381.333,237.867,360,254.933,340.8,275.2c2.133-22.4,8.533-39.467,18.133-52.267c-12.8,13.867-22.4,35.2-25.6,59.733l0,0   c-22.4,25.6-41.6,54.4-53.333,83.2c-12.8-54.4-33.067-106.667-53.333-150.4l9.6-72.533l-14.933,62.933   C210.667,183.467,200,163.2,191.467,147.2l9.6-67.2L187.2,138.667C172.267,112,161.6,96,161.6,96s18.133,35.2,38.4,88.533l-64-44.8   l69.333,58.667c23.467,67.2,48,157.867,44.8,246.4c-16-13.867-38.4-33.067-61.867-54.4c-3.2-24.533-8.533-48-20.267-66.133   c8.533,17.067,11.733,37.333,11.733,58.667c-14.933-12.8-29.867-26.667-43.733-39.467c-6.4-17.067-14.933-30.933-24.533-45.867   c7.467,12.8,13.867,25.6,17.067,39.467c-12.8-11.733-25.6-23.467-37.333-34.133c19.2,20.267,40.533,40.533,60.8,62.933   c-21.333-2.133-39.467-7.467-54.4-14.933c17.067,10.667,37.333,18.133,61.867,23.467c29.867,30.933,59.733,62.933,87.467,91.733   c-1.067,16-4.267,32-7.467,46.933H289.6c4.267-40.533,1.067-82.133-6.4-123.733c10.667-24.533,23.467-53.333,40.533-80   C342.933,304,360,298.667,376,289.067c-13.867,6.4-29.867,9.6-46.933,11.733c10.667-16,21.333-29.867,34.133-42.667   C379.2,252.8,394.133,247.467,409.067,242.133z"/>
</g>
<g>
</g>
<g>
</g>
<g>
</g>
<g>
</g>
<g>
</g>
<g>
</g>
<g>
</g>
<g>
</g>
<g>
</g>
<g>
</g>
<g>
</g>
<g>
</g>
<g>
</g>
<g>
</g>
<g>
</g>
</svg>
