<?xml version="1.0" encoding="iso-8859-1"?>
<!-- Generator: Adobe Illustrator 19.0.0, SVG Export Plug-In . SVG Version: 6.00 Build 0)  -->
<svg version="1.1" id="Capa_1" xmlns="http://www.w3.org/2000/svg" xmlns:xlink="http://www.w3.org/1999/xlink" x="0px" y="0px"
	 viewBox="0 0 512 512" style="enable-background:new 0 0 512 512;" xml:space="preserve">
<polygon style="fill:#C27B48;" points="282.747,0 292.746,56.994 219.254,56.994 229.253,0 "/>
<polygon style="fill:#A66235;" points="292.746,56.994 256,56.994 256,0 282.747,0 "/>
<path style="fill:#FFB13B;" d="M387.307,395.271c-8.319,25.178-22.268,47.385-41.466,66.014
	c-21.788,21.138-50.425,37.676-85.132,49.155L256,512l-4.71-1.56c-34.707-11.479-63.344-28.017-85.132-49.155
	c-19.198-18.628-33.147-40.836-41.466-66.014c-20.148-61.014-2.39-128.027,15.958-154.095
	c23.788-33.817,39.396-78.362,45.136-128.837c4.03-35.527,23.258-51.395,38.666-58.454c14.169-6.489,27.437-6.569,31.547-6.409
	c4.11-0.16,17.378-0.08,31.547,6.409c15.409,7.059,34.627,22.928,38.666,58.454c5.739,50.475,21.348,95.031,45.136,128.837
	C389.697,267.244,407.455,334.257,387.307,395.271z"/>
<path style="fill:#FFDBA9;" d="M304.885,436.337c-21.388,18.348-43.006,26.077-43.916,26.387l-4.97,1.75l-4.97-1.75
	c-0.91-0.31-22.528-8.039-43.916-26.387c-28.997-24.868-44.066-57.444-43.576-94.191c0.75-57.324,37.626-124.958,63.734-148.216
	c8.189-7.289,18.458-10.939,28.727-10.939s20.538,3.65,28.727,10.939c26.107,23.258,62.984,90.891,63.734,148.216
	C348.951,378.893,333.882,411.47,304.885,436.337z"/>
<path style="fill:#FF9500;" d="M387.307,395.271c-8.319,25.178-22.268,47.385-41.466,66.014
	c-21.788,21.138-50.425,37.676-85.132,49.155L256,512V47.475c4.11-0.16,17.378-0.08,31.547,6.409
	c15.409,7.059,34.627,22.928,38.666,58.454c5.739,50.475,21.348,95.031,45.136,128.837
	C389.697,267.244,407.455,334.257,387.307,395.271z"/>
<path style="fill:#FFC473;" d="M304.885,436.337c-21.388,18.348-43.006,26.077-43.916,26.387l-4.97,1.75V182.992
	c10.269,0,20.538,3.65,28.727,10.939c26.107,23.258,62.984,90.891,63.734,148.216C348.951,378.893,333.882,411.47,304.885,436.337z"
	/>
<g>
	<rect x="199.511" y="249.726" style="fill:#A66235;" width="29.997" height="29.997"/>
	<rect x="241.006" y="301.941" style="fill:#A66235;" width="29.997" height="29.997"/>
</g>
<g>
	<rect x="297.491" y="313.939" style="fill:#805142;" width="29.997" height="29.997"/>
	<rect x="273.663" y="249.726" style="fill:#805142;" width="29.997" height="29.997"/>
</g>
<g>
	<rect x="237.007" y="200.65" style="fill:#A66235;" width="29.997" height="29.997"/>
	<rect x="182.012" y="316.939" style="fill:#A66235;" width="29.997" height="29.997"/>
</g>
<rect x="273.663" y="369.314" style="fill:#805142;" width="29.997" height="29.997"/>
<g>
	<rect x="243.666" y="416.809" style="fill:#A66235;" width="29.997" height="29.997"/>
	<rect x="207.01" y="366.964" style="fill:#A66235;" width="29.997" height="29.997"/>
</g>
<g>
	<rect x="255.995" y="200.65" style="fill:#805142;" width="10.999" height="29.997"/>
	<rect x="255.995" y="301.941" style="fill:#805142;" width="14.999" height="29.997"/>
	<rect x="255.995" y="416.809" style="fill:#805142;" width="17.668" height="29.997"/>
</g>
<g>
</g>
<g>
</g>
<g>
</g>
<g>
</g>
<g>
</g>
<g>
</g>
<g>
</g>
<g>
</g>
<g>
</g>
<g>
</g>
<g>
</g>
<g>
</g>
<g>
</g>
<g>
</g>
<g>
</g>
</svg>
