<svg enable-background="new 0 0 24 24" height="512" viewBox="0 0 24 24" width="512" xmlns="http://www.w3.org/2000/svg"><path d="m21 2.75c0-1.519-1.231-2.75-2.75-2.75h-12.5c-1.519 0-2.75 1.231-2.75 2.75v17c0 .199.079.39.22.53s.332.22.53.22h16.5c.414 0 .75-.336.75-.75z" fill="#eceff1"/><path d="m22.25 14h-2.756c-.778 0-1.452.501-1.676 1.247l-.859 2.862c-.16.533-.641.891-1.197.891h-7.524c-.556 0-1.037-.358-1.197-.891l-.859-2.861c-.224-.747-.897-1.248-1.676-1.248h-2.756c-.965 0-1.75.785-1.75 1.75v5.5c0 1.517 1.233 2.75 2.75 2.75h18.5c1.517 0 2.75-1.233 2.75-2.75v-5.5c0-.965-.785-1.75-1.75-1.75z" fill="#2196f3"/><path d="m15.763 5.703c-1.373-1.285-2.763-1.662-2.822-1.678-.224-.059-.465-.011-.649.131s-.292.361-.292.594v4.441c-.367-.12-.783-.191-1.25-.191-1.645 0-2.75.804-2.75 2s1.105 2 2.75 2 2.75-.804 2.75-2v-4.439c.798.121 1.464.382 1.473.386.333.132.717.009.91-.295s.142-.703-.12-.949z" fill="#4caf50"/></svg>