<svg height="512" viewBox="0 0 58 52" width="512" xmlns="http://www.w3.org/2000/svg"><g id="Page-1" fill="none" fill-rule="evenodd"><g id="037---Book-Stack" fill-rule="nonzero"><path id="Shape" d="m57.97 42.72c-.475624 5.3041637-4.9549859 9.34779-10.28 9.28h-45.69c-.53059053.0028231-1.0395388-.2101411-1.41-.59-.3798589-.3704612-.59282307-.8794095-.59-1.41.0032948-1.1032019.89679813-1.9967052 2-2h45.75c3.4262896.0232828 6.2235866-2.7337331 6.25-6.16-.0934847-3.2480963-2.7505636-5.8343198-6-5.84h-46c-.53059053.0028231-1.0395388-.2101411-1.41-.59-.3798589-.3704612-.59282307-.8794095-.59-1.41.0032948-1.1032019.89679813-1.9967052 2-2h46c2.7765447.0011235 5.4276312 1.156579 7.3185341 3.1897262 1.8909028 2.0331473 2.8513774 4.7609351 2.6514659 7.5302738z" fill="#f0c419"/><path id="Shape" d="m54 41.84c-.0264134 3.4262669-2.8237104 6.1832828-6.25 6.16h-43.96c.82126739-1.8925033 1.23359754-3.9371156 1.21-6 .02359754-2.0628844-.38873261-4.1074967-1.21-6h44.21c3.2494364.0056802 5.9065153 2.5919037 6 5.84z" fill="#f9eab0"/><path id="Shape" d="m57 30c-.0032948 1.1032019-.8967981 1.9967052-2 2h-38.5c-4.6944204 0-8.5-3.8055796-8.5-8.5s3.8055796-8.5 8.5-8.5h38.5c1.1045695 0 2 .8954305 2 2s-.8954305 2-2 2h-38.5c-2.4852814 0-4.5 2.0147186-4.5 4.5s2.0147186 4.5 4.5 4.5h38.5c1.1032019.0032948 1.9967052.8967981 2 2z" fill="#f29c1f"/><path id="Shape" d="m54 28h-37.5c-2.4852814 0-4.5-2.0147186-4.5-4.5s2.0147186-4.5 4.5-4.5h37.5c-1.1 0-2 2.01-2 4.5s.9 4.5 2 4.5z" fill="#f9eab0"/><path id="Shape" d="m29.553 43.893-4.106-2.053c-.2814108-.1406214-.6125892-.1406214-.894 0l-4.106 2.053c-.3097434.1547798-.6775146.138308-.972181-.0435421s-.4742881-.5031958-.474819-.8494579v-18c0-.5522847.4477153-1 1-1h10c.5522847 0 1 .4477153 1 1v18c-.0005309.3462621-.1801526.6676078-.474819.8494579s-.6624376.1983219-.972181.0435421z" fill="#ff5364"/><path id="Shape" d="m45 7.5c0 4.1421356-3.3578644 7.5-7.5 7.5h-27.5c-1.1045695 0-2-.8954305-2-2s.8954305-2 2-2h27.5c1.9329966 0 3.5-1.56700338 3.5-3.5s-1.5670034-3.5-3.5-3.5h-27.5c-1.1045695 0-2-.8954305-2-2s.8954305-2 2-2h27.5c4.1421356 0 7.5 3.35786438 7.5 7.5z" fill="#e57e25"/><path id="Shape" d="m41 7.5c0 1.93299662-1.5670034 3.5-3.5 3.5h-27c.83 0 1.5-1.57 1.5-3.5s-.67-3.5-1.5-3.5h27c1.9329966 0 3.5 1.56700338 3.5 3.5z" fill="#f9eab0"/></g></g></svg>