<svg id="Layer_1" enable-background="new 0 0 510 510" height="512" viewBox="0 0 510 510" width="512" xmlns="http://www.w3.org/2000/svg"><g id="XMLID_3868_"><path id="XMLID_3867_" d="m172.5 120-14 10-16-10v-30l15-10 15 10z" fill="#7ec8e3"/><path id="XMLID_3871_" d="m111.861 120 16.25 390h119.389l10-181-10-209z" fill="#f0f7ff"/><path id="XMLID_3873_" d="m383.138 120h-135.638v390h119.388z" fill="#dfe7f4"/><path id="XMLID_3916_" d="m146.264 225 10.625 255h30.611l60-60 10-82.5-10-112.5z" fill="#ff637b"/><path id="XMLID_3915_" d="m348.737 225h-59.87l-18.034 14.333-12.2-14.333h-11.133v255h90.612z" fill="#e63950"/><path id="XMLID_259_" d="m427.5 90v-30h-148.242l-20.625 165 15.534 10 14.7-10 16.875-135z" fill="#c7cfe1"/><path id="XMLID_247_" d="m247.615 313.14 29.769 3.72 11.483-91.86h-30.234z" fill="#cd0000"/><path id="XMLID_3870_" d="m232.5 90h-150v-15c0-41.355 33.644-75 75-75s75 33.645 75 75z" fill="#a1e2f8"/><path id="XMLID_3875_" d="m187.5 420h60v60h-60z" fill="#dfe7f4"/><path id="XMLID_3872_" d="m247.5 360h60v60h-60z" fill="#c7cfe1"/></g></svg>