<?xml version="1.0" encoding="iso-8859-1"?>
<!-- Generator: Adobe Illustrator 19.0.0, SVG Export Plug-In . SVG Version: 6.00 Build 0)  -->
<svg version="1.1" id="Capa_1" xmlns="http://www.w3.org/2000/svg" xmlns:xlink="http://www.w3.org/1999/xlink" x="0px" y="0px"
	 viewBox="0 0 512 512" style="enable-background:new 0 0 512 512;" xml:space="preserve">
<path style="fill:#CAE8F9;" d="M391,223.299v9.3l-27.001,52.2L256,288.399l-84.3,2.701L121,249.4v-26.1c0-21,6-41.1,17.701-58.2
	L181,101.5V76c0-8.401,6.599-15,15-15h120c8.401,0,15,6.599,15,15v25.499l42.299,63.6C385,182.199,391,202.299,391,223.299z"/>
<path style="fill:#A4D9F5;" d="M391,223.299v9.3l-27.001,52.2L256,288.399V61h60c8.401,0,15,6.599,15,15v25.499l42.299,63.6
	C385,182.199,391,202.299,391,223.299z"/>
<path style="fill:#1BD9DE;" d="M331,0H181c-8.401,0-15,6.599-15,15v61c0,8.399,6.599,15,15,15h150c8.401,0,15-6.601,15-15V15
	C346,6.599,339.401,0,331,0z"/>
<path style="fill:#FEDBAB;" d="M391,232.599V467c0,24.899-20.099,45-45,45H166c-24.901,0-45-20.101-45-45V249.399L136,241
	c36-20.101,85.499-19.2,120,0c36,20.099,85.499,19.2,120,0L391,232.599z"/>
<path style="fill:#14B7BF;" d="M331,91h-75V0h75c8.401,0,15,6.599,15,15v61C346,84.399,339.401,91,331,91z"/>
<path style="fill:#FEC478;" d="M391,232.599V467c0,24.899-20.099,45-45,45h-90V241c36,20.099,85.499,19.2,120,0L391,232.599z"/>
<g>
</g>
<g>
</g>
<g>
</g>
<g>
</g>
<g>
</g>
<g>
</g>
<g>
</g>
<g>
</g>
<g>
</g>
<g>
</g>
<g>
</g>
<g>
</g>
<g>
</g>
<g>
</g>
<g>
</g>
</svg>
