<svg height="512pt" viewBox="0 -39 512 512" width="512pt" xmlns="http://www.w3.org/2000/svg"><path d="m395.980469 106.785156v297.589844h-153.589844c-16.210937 0-29.402344 13.1875-29.402344 29.390625h-30c0-16.203125-13.1875-29.390625-29.386719-29.390625h-153.601562v-297.589844h153.601562c17.636719 0 33.5 7.738282 44.386719 20 10.890625-12.261718 26.75-20 44.402344-20zm0 0" fill="#ffb74f"/><path d="m395.980469 106.785156v297.589844h-153.589844c-16.210937 0-29.402344 13.1875-29.402344 29.390625h-15v-306.980469c10.890625-12.261718 26.75-20 44.402344-20zm0 0" fill="#ff9a00"/><g fill="#fff"><path d="m66 184.554688h81v30h-81zm0 0"/><path d="m66 240.578125h81v30h-81zm0 0"/><path d="m66 296.601562h81v30h-81zm0 0"/></g><path d="m512 73.519531-183.550781 183.550781-92.800781 19.289063 19.28125-92.808594 183.550781-183.550781zm0 0" fill="#60dd4e"/><path d="m512 73.519531-183.550781 183.550781-92.800781 19.289063 239.597656-239.597656zm0 0" fill="#00bb64"/><path d="m328.449219 257.070312-92.800781 19.289063 19.28125-92.808594zm0 0" fill="#ffdba9"/><path d="m291.695312 220.3125 36.753907 36.757812-92.800781 19.289063zm0 0" fill="#ffc473"/><path d="m262.390625 270.800781-26.742187 5.558594 5.558593-26.742187zm0 0" fill="#78777f"/><path d="m385.644531 52.835938 52.835938-52.83203175 73.515625 73.51562475-52.835938 52.835938zm0 0" fill="#ffdf48"/><path d="m262.390625 270.800781-26.742187 5.558594 16.152343-16.148437zm0 0" fill="#57555c"/><path d="m422.40625 89.601562 52.835938-52.835937 36.753906 36.753906-52.835938 52.835938zm0 0" fill="#fec000"/></svg>