<svg id="Capa_1" enable-background="new 0 0 512 512" height="512" viewBox="0 0 512 512" width="512" xmlns="http://www.w3.org/2000/svg"><g><g><path d="m512 55.517v229.264c0 45.799-27.161 87.223-69.157 105.489l-91.217 39.669c-3.146 1.373-5.73 3.604-7.532 6.349-1.802 2.755-2.822 6.025-2.822 9.448 0 8.456-3.432 16.112-8.971 21.66-5.539 5.539-13.204 8.971-21.66 8.971-.162 0-.315 0-.477-.01-8.266-.124-15.75-3.527-21.184-8.962-5.539-5.549-8.971-13.204-8.971-21.66 0-3.423-1.02-6.693-2.822-9.448-1.802-2.746-4.385-4.977-7.532-6.349l-91.217-39.669c-41.995-18.266-69.157-59.69-69.157-105.489v-229.263l14.796 3.937c20.859 5.558 42.138 7.322 62.941 5.577 46.962-3.937 91.551-25.798 123.622-62.483 46.286 52.94 118.617 75.001 186.563 56.906z" fill="#9dc6fb"/><path d="m310.164 476.358c-8.266-.124-15.75-3.527-21.184-8.962-5.539-5.549-8.971-13.204-8.971-21.66 0-3.423-1.02-6.693-2.822-9.448-1.802-2.746-4.385-4.977-7.532-6.349l-91.217-39.669c-41.995-18.266-69.157-59.69-69.157-105.489v-229.264l14.796 3.937c20.859 5.558 42.138 7.322 62.941 5.577-6.454 71.311-19.296 289.335 59.614 330.882 71.245 37.506 46.134 61.559 63.532 80.445z" fill="#80b4fb"/><path d="m469.099 107.752v177.029c0 28.725-17.027 54.694-43.368 66.144l-91.217 39.669c-9.495 4.147-17.675 10.582-23.872 18.743-6.235-8.189-14.386-14.596-23.824-18.714l-74.429-32.376-16.836-7.322c-26.351-11.459-43.368-37.419-43.368-66.144v-177.029c6.454.553 12.928.829 19.401.829 4.119 0 8.218-.114 12.308-.334 46.286-2.498 90.445-19.067 126.749-47.077 39.507 30.488 88.319 47.411 139.057 47.411 6.471 0 12.945-.277 19.399-.829z" fill="#f9f6f9"/><path d="m212.388 358.246-16.836-7.322c-26.351-11.459-43.368-37.419-43.368-66.144v-177.028c6.454.553 12.928.829 19.401.829 4.119 0 8.218-.114 12.308-.334-4.015 72.56-4.043 187.297 28.495 249.999z" fill="#dddaec"/></g><g><path d="m306.417 332.651c-9.796 0-19.101-4.52-25.157-12.33l-53.232-68.664c-10.773-13.895-8.241-33.893 5.655-44.666 13.897-10.773 33.894-8.241 44.666 5.654l23.897 30.825 46.632-82.572c8.647-15.31 28.065-20.711 43.376-12.065 15.31 8.646 20.711 28.066 12.065 43.376l-70.177 124.261c-5.241 9.281-14.779 15.323-25.408 16.097-.775.056-1.548.084-2.317.084z" fill="#a2e19f"/><g fill="#97cf92"><path d="m403.508 159.539c-.446-.297-.913-.573-1.379-.838-15.313-8.649-34.733-3.247-43.382 12.066l-46.629 82.571-9.869-9.869 46.629-82.571c8.649-15.313 28.069-20.714 43.382-12.066 4.754 2.685 8.543 6.399 11.248 10.707z"/><path d="m329.234 323.011c-5.359 5.529-12.628 8.988-20.502 9.561-.775.053-1.549.085-2.313.085-9.805 0-19.101-4.521-25.161-12.331l-53.229-68.67c-10.771-13.891-8.245-33.884 5.656-44.666 4.107-3.194 8.765-5.21 13.551-6.112-10.909 11.185-12.183 28.992-2.335 41.694l53.229 68.67c6.059 7.81 15.366 12.331 25.161 12.331.764 0 1.539-.032 2.313-.085 1.232-.085 2.442-.244 3.63-.477z"/></g></g><g><path d="m213.16 410.199-12.118-5.022c.734-6.445.753-13.009.009-19.587l12.109-5.013c12.366-5.123 18.242-19.302 13.119-31.673-3.865-9.332-12.889-14.964-22.405-14.964-3.089 0-6.234.592-9.268 1.85l-12.104 5.013c-4.122-5.173-8.781-9.805-13.858-13.844l5.017-12.114c5.123-12.371-.748-26.55-13.114-31.673-3.034-1.258-6.174-1.85-9.268-1.85-9.511 0-18.54 5.637-22.405 14.969l-5.017 12.118c-6.445-.734-13.013-.753-19.587-.009l-5.017-12.109c-5.123-12.366-19.302-18.242-31.668-13.119-9.332 3.865-14.969 12.894-14.969 22.405 0 3.094.592 6.234 1.85 9.268l5.017 12.105c-5.178 4.127-9.805 8.781-13.844 13.858l-12.118-5.017c-12.366-5.123-26.546.748-31.668 13.115-1.258 3.034-1.85 6.178-1.85 9.268 0 9.516 5.632 18.54 14.969 22.405l12.114 5.017c-.73 6.445-.753 13.013-.009 19.587l-12.105 5.017c-12.372 5.122-18.243 19.301-13.12 31.667 3.865 9.332 12.894 14.969 22.405 14.969 3.089 0 6.229-.592 9.263-1.85l12.109-5.017c.055.069.115.142.174.211.009.009.018.023.023.032 4.072 5.081 8.662 9.626 13.661 13.601l-5.022 12.118c-5.123 12.366.753 26.546 13.119 31.668 3.034 1.258 6.174 1.85 9.268 1.85 3.493 0 6.922-.762 10.053-2.19h.005c5.394-2.451 9.901-6.876 12.343-12.779l5.022-12.114c6.445.73 13.013.753 19.587.009l5.013 12.105c5.123 12.371 19.302 18.242 31.673 13.119 9.332-3.865 14.964-12.889 14.964-22.4 0-3.094-.592-6.234-1.85-9.268l-5.013-12.109c5.173-4.122 9.805-8.781 13.844-13.853l12.114 5.017c12.371 5.123 26.55-.753 31.673-13.119 5.122-12.366-.754-26.545-13.12-31.668zm-99.095 25.898c-22.483 0-40.711-18.228-40.711-40.711s18.228-40.711 40.711-40.711 40.711 18.228 40.711 40.711-18.228 40.711-40.711 40.711z" fill="#4a80aa"/><g fill="#407093"><path d="m124.362 308.4c6.573-.744 13.142-.725 19.587.009l5.017-12.118c2.445-5.902 6.956-10.324 12.348-12.778-.254-.116-.507-.233-.767-.341-3.034-1.258-6.174-1.85-9.268-1.85-9.511 0-18.54 5.637-22.405 14.969l-4.763 11.504z"/><path d="m21.944 441.867c-5.123-12.366.748-26.546 13.119-31.668l12.104-5.017c-.743-6.573-.721-13.142.009-19.587l-12.114-5.017c-9.337-3.865-14.969-12.89-14.969-22.405 0-3.089.592-6.234 1.85-9.268 2.449-5.912 6.97-10.334 12.371-12.785l-.795-.329c-12.366-5.123-26.545.748-31.668 13.114-1.258 3.034-1.85 6.178-1.85 9.268 0 9.516 5.632 18.54 14.969 22.405l12.114 5.017c-.73 6.445-.753 13.013-.009 19.587l-12.104 5.017c-12.371 5.122-18.242 19.301-13.119 31.668 3.865 9.332 12.894 14.969 22.405 14.969 3.089 0 6.229-.592 9.263-1.85l.796-.33c-5.402-2.453-9.924-6.878-12.372-12.789z"/><path d="m148.966 494.48-5.013-12.105c-6.573.744-13.142.721-19.587-.009l-.255.614 4.762 11.499c5.123 12.371 19.302 18.242 31.673 13.119.261-.108.518-.222.773-.338-5.393-2.452-9.907-6.872-12.353-12.78z"/><path d="m86.905 507.26c-3.131 1.428-6.56 2.19-10.053 2.19-3.094 0-6.234-.592-9.268-1.85-12.366-5.123-18.242-19.302-13.119-31.668l5.022-12.118c-4.999-3.975-9.589-8.52-13.661-13.601-.005-.009-.014-.023-.023-.032-.055-.078-.115-.147-.174-.211h20.092c4.122 5.178 8.781 9.805 13.858 13.844l-5.022 12.118c-5.012 12.104.515 25.939 12.348 31.328z"/><path d="m86.905 283.516c-3.131-1.428-6.56-2.19-10.053-2.19-3.094 0-6.234.592-9.268 1.85-12.366 5.123-18.242 19.302-13.119 31.668l5.022 12.118c-4.999 3.975-9.589 8.52-13.661 13.601-.005.009-.014.023-.023.032-.055.078-.115.147-.174.211h20.092c4.122-5.178 8.781-9.805 13.858-13.844l-5.022-12.118c-5.012-12.104.515-25.939 12.348-31.328z"/></g></g></g></svg>