<svg id="Capa_1" enable-background="new 0 0 512 512" height="512" viewBox="0 0 512 512" width="512" xmlns="http://www.w3.org/2000/svg"><g><g><g><path d="m268.412 429.114c-1.977 0-3.955-.755-5.463-2.263-3.018-3.017-3.018-7.909 0-10.927l38.167-38.167c3.017-3.017 7.909-3.017 10.927 0s3.018 7.909 0 10.927l-38.167 38.167c-1.509 1.508-3.486 2.263-5.464 2.263z" fill="#cba763"/></g></g><g><g><path d="m238.469 448.363c-1.977 0-3.955-.755-5.463-2.263l-27.949-27.949c-3.018-3.017-3.018-7.909 0-10.927 3.017-3.017 7.909-3.017 10.927 0l27.949 27.949c3.018 3.017 3.018 7.909 0 10.927-1.509 1.509-3.486 2.263-5.464 2.263z" fill="#dab46b"/></g></g><path d="m274.237 245.232c-6.006-1.422-12.123-16.468-18.237-16.468s-12.232 15.047-18.237 16.469l-1.358 40.86 19.595 12.217 19.595-12.217z" fill="#cba763"/><path d="m346.143 126.847-79.433-121.065c-5.058-7.71-16.361-7.71-21.419 0l-79.433 121.064c-6.232 9.498.582 22.118 11.942 22.118h11.279c12.275 0 23.847 5.402 32.01 14.569 8.56 9.612 21.029 15.666 34.912 15.666s26.352-6.054 34.912-15.666c8.163-9.167 19.735-14.569 32.01-14.569h11.279c11.359 0 18.173-12.619 11.941-22.117z" fill="#95d6a4"/><path d="m307.155 495.076c-16.359-16.359-25.887-38.324-26.656-61.446l-2.275-68.447c-6.647 3.471-10.267-22.369-18.285-22.369s-19.516 25.84-26.163 22.369l-2.275 68.447c-.769 23.122-10.297 45.087-26.656 61.446l-14.973 14.973c-.72.72-.21 1.951.808 1.951h130.639c1.018 0 1.528-1.231.808-1.951z" fill="#dab46b"/><path d="m322.128 510.049-14.973-14.973c-16.359-16.359-25.887-38.324-26.656-61.446l-2.275-68.447c-6.647 3.471-14.206-15.388-22.224-15.388-6.455 0-12.613 19.549-18.237 17.242l1.528 45.989c.768 23.122 10.297 45.087 26.656 61.446 6.245 6.245 1.822 16.924-7.01 16.924h-50.612c-1.123 1.255-2.283 2.483-3.48 3.68l-14.973 14.973c-.72.72-.21 1.951.808 1.951h130.639c1.019 0 1.529-1.231.809-1.951z" fill="#cba763"/><path d="m209.271 154.137c-16.787 2.794-29.021 16.19-40.986 21.291-19.087 8.138-25.858 14.329-25.858 26.116s6.771 17.979 25.858 26.116c12.054 5.139 24.38 18.694 41.359 21.351 14.061 2.2 30.221-6.442 46.356-6.442 16.136 0 32.297 8.642 46.358 6.442 16.978-2.657 29.303-16.212 41.356-21.351 19.087-8.138 25.858-14.329 25.858-26.116s-6.771-17.979-25.858-26.116c-11.965-5.101-24.199-18.496-40.986-21.291z" fill="#95d6a4"/><path d="m346.143 126.847-79.433-121.065c-5.058-7.71-16.361-7.71-21.419 0l-3.135 4.778 62.78 95.683c6.232 9.498-.582 22.118-11.942 22.118h-11.279c-12.275 0-23.847 5.402-32.01 14.569-8.33 9.354-20.364 15.338-33.8 15.652 1.845 1.497 3.58 3.151 5.183 4.951 8.56 9.612 21.029 15.666 34.912 15.666s26.352-6.054 34.912-15.666c8.163-9.167 19.735-14.569 32.01-14.569h11.279c11.36 0 18.174-12.619 11.942-22.117z" fill="#78c2a4"/><path d="m343.714 175.428c-11.965-5.101-24.199-18.496-40.986-21.291-.264.144-.527.29-.788.44.189.085.378.167.566.248 19.087 8.138 25.858 14.329 25.858 26.116s-6.77 17.978-25.858 26.116c-12.053 5.139-24.378 18.694-41.356 21.351-14.062 2.201-30.222-6.442-46.358-6.442-15.387 0-30.796 7.859-44.386 6.68 11.392 5.704 23.253 17.864 39.238 20.366 14.061 2.2 30.221-6.442 46.356-6.442 16.136 0 32.297 8.642 46.358 6.442 16.978-2.657 29.303-16.212 41.356-21.351 19.087-8.138 25.858-14.329 25.858-26.116 0-11.788-6.77-17.979-25.858-26.117z" fill="#78c2a4"/><g><g><path d="m275.356 127.49c-3.07 0-6.14-.6-9.062-1.799l-7.109-2.919c-2.06-.846-4.329-.846-6.39.001l-7.093 2.913c-5.846 2.403-12.286 2.403-18.133.001l-13.228-5.433c-3.947-1.621-5.833-6.135-4.212-10.082 1.621-3.948 6.136-5.833 10.082-4.212l13.228 5.433c2.06.846 4.33.846 6.391-.001l7.093-2.913c5.845-2.4 12.283-2.402 18.129-.003l7.109 2.919c2.058.845 4.328.846 6.388-.001l13.238-5.434c3.949-1.622 8.461.266 10.081 4.213 1.621 3.947-.266 8.461-4.213 10.081l-13.238 5.435c-2.921 1.202-5.991 1.801-9.061 1.801z" fill="#78c2a4"/></g></g><path d="m355.782 286.093h-199.564c-4.016 0-7.272 3.256-7.272 7.272v2.036c0 24.097 19.534 43.631 43.631 43.631h.703c9.535 0 18.451 4.571 24.151 12.215 8.765 11.756 22.778 19.369 38.569 19.369s29.804-7.613 38.569-19.369c5.699-7.644 14.616-12.215 24.151-12.215h.703c24.097 0 43.631-19.534 43.631-43.631v-2.036c0-4.016-3.256-7.272-7.272-7.272z" fill="#95d6a4"/><path d="m355.782 286.093h-35.412c-4.977 18.621-21.964 32.336-42.154 32.336h-.703c-9.535 0-18.451 4.571-24.151 12.215-8.46 11.347-21.808 18.833-36.926 19.341.341.411.673.832.994 1.262 8.765 11.756 22.778 19.369 38.569 19.369s29.804-7.613 38.569-19.369c5.699-7.644 14.616-12.215 24.151-12.215h.703c24.097 0 43.631-19.534 43.631-43.631v-2.036c.001-4.016-3.255-7.272-7.271-7.272z" fill="#78c2a4"/></g></svg>