<svg height="512" viewBox="0 0 58 58" width="512" xmlns="http://www.w3.org/2000/svg"><g id="Page-1" fill="none" fill-rule="evenodd"><g id="038---Conversation"><path id="Path" d="m28.01 33h-8.01l-10.84 7.62c-.60849301.4332538-1.40771008.4913064-2.07242584.1505344-.66471577-.340772-1.08413142-1.0235667-1.08757416-1.7705344v-6h-3c-1.65685425 0-3-1.3431458-3-3v-27c0-1.65685425 1.34314575-3 3-3h42c1.6568542 0 3 1.34314575 3 3v24.67z" fill="#4fba6f"/><g fill="#fff"><circle id="Oval" cx="11" cy="17" r="3"/><circle id="Oval" cx="24" cy="17" r="3"/><circle id="Oval" cx="37" cy="17" r="3"/></g><path id="Path" d="m58 39.42v3.16c-.0031474.3341542-.1716936.6450284-.45.83l-1.81 1.19-1.77 4.28.44 2.12c.0621112.3309285-.0425969.6712298-.28.91l-2.22 2.22c-.2387702.2374031-.5790715.3421112-.91.28l-2.12-.44-4.28 1.77-1.19 1.81c-.1849716.2783064-.4958458.4468526-.83.45h-3.16c-.3341542-.0031474-.6450284-.1716936-.83-.45l-1.19-1.81-4.28-1.77-2.12.44c-.3309285.0621112-.6712298-.0425969-.91-.28l-2.22-2.22c-.2374031-.2387702-.3421112-.5790715-.28-.91l.44-2.12-1.77-4.28-1.81-1.19c-.2783064-.1849716-.4468526-.4958458-.45-.83v-3.16c.0031474-.3341542.1716936-.6450284.45-.83l1.81-1.19 1.77-4.28-.02-.12-.42-2c-.0621112-.3309285.0425969-.6712298.28-.91l2.22-2.22c.2387702-.2374031.5790715-.3421112.91-.28l2.12.44 4.28-1.77 1.19-1.81c.1849716-.2783064.4958458-.4468526.83-.45h3.16c.3341542.0031474.6450284.1716936.83.45l1.19 1.81 3.4 1.41.88.36 2.12-.44c.3309285-.0621112.6712298.0425969.91.28l2.22 2.22c.2374031.2387702.3421112.5790715.28.91l-.44 2.12 1.77 4.28 1.81 1.19c.2783064.1849716.4468526.4958458.45.83z" fill="#bdc3c7"/><circle id="Oval" cx="41" cy="41" fill="#7f8c8d" r="10"/></g></g></svg>