<svg height="512" viewBox="0 0 128 128" width="512" xmlns="http://www.w3.org/2000/svg"><g><path d="m73.511 53.349a24.907 24.907 0 0 0 .007-3.478 24.48 24.48 0 0 0 -48.9 1.692q0 .634.032 1.264a28.57 28.57 0 0 1 -4.066 16.873 33.75 33.75 0 1 0 57.035.016 27 27 0 0 1 -4.108-16.367z" fill="#a5cc2a"/><path d="m49.1 115.5c-.656 0-1.322-.023-1.979-.068a27.747 27.747 0 0 1 -21.47-42.519 34.467 34.467 0 0 0 4.993-20.392c-.016-.314-.024-.635-.024-.958a18.5 18.5 0 0 1 18.48-18.48q.591 0 1.191.037a18.7 18.7 0 0 1 17.241 17.153 19.293 19.293 0 0 1 0 2.645 33.137 33.137 0 0 0 5.025 20.008 27.747 27.747 0 0 1 -23.457 42.574z" fill="#eaeaf0"/><circle cx="41.127" cy="92.314" fill="#d8d8d8" r="3"/><path d="m71.376 8.6c5.947 3.856 7.034 12.739 7.034 12.739s-8.554 2.631-14.5-1.225-7.034-12.74-7.034-12.74 8.553-2.629 14.5 1.226z" fill="#bae543"/><path d="m83.841 35.766h-7.941c0-15.7 1.314-25.277 4.016-29.266l5.265 2.339c-1.081 2.684-2.36 10.802-1.34 26.927z" fill="#663325"/><path d="m103.319 53.349a25.062 25.062 0 0 0 .007-3.478 24.48 24.48 0 0 0 -48.9 1.692q0 .634.032 1.264a28.578 28.578 0 0 1 -4.066 16.873 33.75 33.75 0 1 0 57.034.016 27.006 27.006 0 0 1 -4.107-16.367z" fill="#bae543"/><path d="m104.87 99.333a1.752 1.752 0 0 1 -1.637-2.37 25.867 25.867 0 0 0 1.574-6.947 1.75 1.75 0 1 1 3.487.3 29.4 29.4 0 0 1 -1.787 7.887 1.751 1.751 0 0 1 -1.637 1.13z" fill="#a5cc2a"/></g></svg>