<?xml version="1.0" encoding="iso-8859-1"?>
<!-- Generator: Adobe Illustrator 19.0.0, SVG Export Plug-In . SVG Version: 6.00 Build 0)  -->
<svg version="1.1" id="Capa_1" xmlns="http://www.w3.org/2000/svg" xmlns:xlink="http://www.w3.org/1999/xlink" x="0px" y="0px"
	 viewBox="0 0 512.293 512.293" style="enable-background:new 0 0 512.293 512.293;" xml:space="preserve">
<path style="fill:#BBDEFB;" d="M402.148,149.606C384.338,63.054,299.735,7.328,213.183,25.138
	C139.07,40.389,85.774,105.472,85.434,181.136c0,3.605,0.149,7.296,0.469,11.2C33.178,197.917-5.04,245.183,0.541,297.908
	c5.173,48.87,46.416,85.943,95.559,85.895h11.2c-0.256-3.541-0.533-7.061-0.533-10.667c0-76.583,62.083-138.667,138.667-138.667
	S384.1,296.553,384.1,373.136c0,3.605-0.277,7.125-0.533,10.667h11.2c64.73,0.177,117.348-52.154,117.525-116.885
	C512.462,204.807,464.148,153.348,402.148,149.606L402.148,149.606z"/>
<circle style="fill:#4CAF50;" cx="245.434" cy="373.136" r="117.333"/>
<g>
	<path style="fill:#FAFAFA;" d="M288.1,383.803h-85.333c-5.891,0-10.667-4.776-10.667-10.667c0-5.891,4.776-10.667,10.667-10.667
		H288.1c5.891,0,10.667,4.776,10.667,10.667C298.767,379.027,293.992,383.803,288.1,383.803z"/>
	<path style="fill:#FAFAFA;" d="M245.434,426.47c-5.891,0-10.667-4.776-10.667-10.667V330.47c0-5.891,4.776-10.667,10.667-10.667
		s10.667,4.776,10.667,10.667v85.333C256.1,421.694,251.325,426.47,245.434,426.47z"/>
</g>
<g>
</g>
<g>
</g>
<g>
</g>
<g>
</g>
<g>
</g>
<g>
</g>
<g>
</g>
<g>
</g>
<g>
</g>
<g>
</g>
<g>
</g>
<g>
</g>
<g>
</g>
<g>
</g>
<g>
</g>
</svg>
