<svg id="Layer_1" enable-background="new 0 0 510.809 510.809" height="512" viewBox="0 0 510.809 510.809" width="512" xmlns="http://www.w3.org/2000/svg"><g><path d="m492.188 57.049c-3.086-15.146-11.885-28.185-24.775-36.712-26.613-17.607-62.586-10.278-80.19 16.334l-120.625 182.337c-2.195 3.318-2.982 7.372-2.188 11.271s3.104 7.321 6.422 9.517l71.505 47.304c2.548 1.685 5.421 2.491 8.263 2.491 4.865 0 9.639-2.364 12.523-6.726l120.625-182.337c8.527-12.892 11.525-28.333 8.44-43.479z" fill="#ffa238"/><path d="m368.505 317.75h-226.201c-8.284 0-15 6.716-15 15v152.31c0 8.284 6.716 15 15 15h226.201c8.284 0 15-6.716 15-15v-152.31c0-8.284-6.716-15-15-15z" fill="#f70b57"/><path d="m368.505 317.75h-113.101v182.31h113.101c8.284 0 15-6.716 15-15v-152.31c0-8.284-6.716-15-15-15z" fill="#d40856"/><path d="m495.809 168.39h-480.809c-8.284 0-15 6.716-15 15 0 68.221 26.566 132.358 74.807 180.598 48.239 48.24 112.377 74.807 180.598 74.807s132.358-26.566 180.598-74.807c48.24-48.239 74.807-112.377 74.807-180.598-.001-8.285-6.717-15-15.001-15z" fill="#fc5356"/><path d="m495.809 168.39h-240.405v270.404c68.221 0 132.358-26.566 180.598-74.807 48.24-48.239 74.807-112.377 74.807-180.598 0-8.284-6.716-14.999-15-14.999z" fill="#f70b57"/></g></svg>