<svg height="512pt" viewBox="0 -31 512.00101 512" width="512pt" xmlns="http://www.w3.org/2000/svg"><path d="m293.628906 61.363281-10.050781-49.296875c-1.429687-7.023437-7.605469-12.066406-14.769531-12.066406h-147.601563c-7.167969 0-13.339843 5.042969-14.773437 12.066406l-10.050782 49.296875c-.902343 4.433594.234376 9.039063 3.097657 12.546875 2.863281 3.503906 7.148437 5.539063 11.675781 5.539063h167.703125c4.527344 0 8.8125-2.035157 11.675781-5.539063 2.863282-3.507812 4-8.113281 3.09375-12.546875zm0 0" fill="#fccb4f"/><path d="m293.628906 61.363281-10.050781-49.296875c-1.429687-7.023437-7.605469-12.066406-14.769531-12.066406h-12.808594v79.449219h22.859375c4.527344 0 8.8125-2.035157 11.675781-5.539063 2.863282-3.507812 4-8.113281 3.09375-12.546875zm0 0" fill="#efa91d"/><path d="m496.925781 49.296875h-414.074219c-8.324218 0-15.074218 6.75-15.074218 15.078125v316.101562c0 8.328126 6.75 15.078126 15.074218 15.078126h414.074219c8.324219 0 15.074219-6.75 15.074219-15.078126v-316.101562c0-8.328125-6.75-15.078125-15.074219-15.078125zm0 0" fill="#ffd561"/><path d="m496.925781 49.296875h-240.925781v346.257813h240.925781c8.324219 0 15.074219-6.75 15.074219-15.078126v-316.101562c0-8.328125-6.75-15.078125-15.074219-15.078125zm0 0" fill="#ffbf31"/><path d="m102.453125 245.5625c-56.496094 0-102.453125 45.960938-102.453125 102.449219 0 56.492187 45.957031 102.453125 102.453125 102.453125 56.492187 0 102.449219-45.960938 102.449219-102.453125 0-56.488281-45.960938-102.449219-102.449219-102.449219zm0 0" fill="#388ef4"/><path d="m119.097656 304.167969c-1.75-5.566407-8.308594-9.164063-16.714844-9.164063-8.402343 0-14.964843 3.597656-16.722656 9.1875l-25.234375 82.761719-.039062.148437c-.171875.675782-.363281 1.445313-.363281 2.222657 0 7.25 9.65625 11.699219 16.582031 11.699219 7.023437 0 9.164062-3.835938 9.828125-6.15625l4.011718-14.734376h24.015626l4.019531 14.769532c.652343 2.285156 2.796875 6.121094 9.816406 6.121094 6.925781 0 16.585937-4.449219 16.585937-11.699219 0-.777344-.191406-1.546875-.363281-2.222657zm-10.753906 53.652343h-11.917969l5.957031-21.875zm0 0" fill="#5938e5"/><path d="m433.609375 333.292969h-103.519531c-8.324219 0-15.074219-6.75-15.074219-15.078125 0-8.324219 6.75-15.074219 15.074219-15.074219h103.519531c8.324219 0 15.074219 6.75 15.074219 15.074219 0 8.328125-6.75 15.078125-15.074219 15.078125zm0 0" fill="#87e4f9"/></svg>