<?xml version="1.0" encoding="iso-8859-1"?>
<!-- Generator: Adobe Illustrator 19.0.0, SVG Export Plug-In . SVG Version: 6.00 Build 0)  -->
<svg version="1.1" id="Capa_1" xmlns="http://www.w3.org/2000/svg" xmlns:xlink="http://www.w3.org/1999/xlink" x="0px" y="0px"
	 viewBox="0 0 512 512" style="enable-background:new 0 0 512 512;" xml:space="preserve">
<path style="fill:#CFD8DC;" d="M349.408,393.696L316.64,256H195.36l-32.736,137.696C160.864,400.96,160,408.48,160,416
	c0,52.928,43.072,96,96,96s96-43.072,96-96C352,408.512,351.136,400.992,349.408,393.696z"/>
<path style="fill:#8D6E63;" d="M256,0c-34.464,0-70.624,6.88-104.64,19.968C106.112,37.408,68.16,64,41.728,96.704
	C14.432,129.952,0,168.416,0,208c0,21.6,8.416,41.696,23.424,56.288C38.336,279.584,58.432,288,80,288h352c44.128,0,80-35.904,80-80
	C512,85.408,377.088,0,256,0z"/>
<g>
	<circle style="fill:#BCAAA4;" cx="352" cy="160" r="64"/>
	<path style="fill:#BCAAA4;" d="M160.928,16.256l-9.568,3.712C106.112,37.408,68.16,64,41.632,96.8l-6.208,7.712l4.096,8.992
		C52.384,141.76,80.832,160,112,160c44.096,0,80-35.904,80-80c0-21.6-8.416-41.696-23.712-56.608L160.928,16.256z"/>
</g>
<g>
</g>
<g>
</g>
<g>
</g>
<g>
</g>
<g>
</g>
<g>
</g>
<g>
</g>
<g>
</g>
<g>
</g>
<g>
</g>
<g>
</g>
<g>
</g>
<g>
</g>
<g>
</g>
<g>
</g>
</svg>
