<svg id="Capa_1" enable-background="new 0 0 497 497" height="512" viewBox="0 0 497 497" width="512" xmlns="http://www.w3.org/2000/svg"><g><path d="m497 139.5v268c0 22.09-17.91 40-40 40h-417c-22.09 0-40-17.91-40-40v-268z" fill="#f5f5f5"/><g fill="#50758d"><path d="m447.809 214.404h-143c-4.143 0-7.5-3.357-7.5-7.5s3.357-7.5 7.5-7.5h143c4.143 0 7.5 3.357 7.5 7.5s-3.358 7.5-7.5 7.5z"/><path d="m447.809 254.404h-143c-4.143 0-7.5-3.357-7.5-7.5s3.357-7.5 7.5-7.5h143c4.143 0 7.5 3.357 7.5 7.5s-3.358 7.5-7.5 7.5z"/><path d="m447.809 294.404h-143c-4.143 0-7.5-3.357-7.5-7.5s3.357-7.5 7.5-7.5h143c4.143 0 7.5 3.357 7.5 7.5s-3.358 7.5-7.5 7.5z"/></g><path d="m326.5 403.404h-156c-15.464 0-28-12.536-28-28 0-15.464 12.536-28 28-28h156c15.464 0 28 12.536 28 28 0 15.464-12.536 28-28 28z" fill="#93ddb7"/><path d="m218.81 220.4v53c0 16.57-13.43 30-30 30h-110c-3.44 0-6.74-.58-9.81-1.65-11.75-4.05-20.19-15.22-20.19-28.35v-53c0-16.56 13.43-30 30-30h110c16.57 0 30 13.44 30 30z" fill="#2edffc"/><path d="m174.86 303.4h-96.05c-3.44 0-6.74-.58-9.81-1.65l51.81-84.35z" fill="#50758d"/><path d="m215.19 287.69c-4.35 9.28-11.87 11.97-11.87 11.97s-3.15 1.62-5.67 2.42c-.28.09-.55.16-.8.23-3.83.98-6.37 1.09-6.37 1.09h-17.85l-22.09-38.69 13.84-15.57 18.43-20.74 36 43s.89 6.7-3.62 16.29z" fill="#50758d"/><path d="m497 159.5v-20l-248.5-10-248.5 10v20 248c0 22.09 17.91 40 40 40h20c-22.09 0-40-17.91-40-40v-248z" fill="#e6e6e6"/><path d="m197.65 302.08c-.28.09-.55.16-.8.23-3.83.98-6.37 1.09-6.37 1.09h-17.85l-22.09-38.69 13.84-15.57z" fill="#2b597f"/><path d="m497 89.5v50h-497v-50c0-22.09 17.91-40 40-40h417c22.09 0 40 17.91 40 40z" fill="#50758d"/><g fill="#2b597f"><path d="m474.5 94.5c0-12.406-10.093-22.5-22.5-22.5h-213c-6.385 0-12.152 2.677-16.251 6.963-4.767 4.757-2.529 2.519-7.286 7.286-4.286 4.099-6.963 9.866-6.963 16.251 0 12.406 10.093 22.5 22.5 22.5h213c6.385 0 12.152-2.677 16.251-6.963 4.767-4.757 2.529-2.519 7.286-7.286 4.286-4.099 6.963-9.866 6.963-16.251z"/><path d="m68.25 94.25c0-12.406-10.093-22.5-22.5-22.5-6.385 0-12.152 2.677-16.251 6.963-4.767 4.757-2.529 2.519-7.286 7.286-4.286 4.099-6.963 9.866-6.963 16.251 0 12.406 10.093 22.5 22.5 22.5 6.385 0 12.152-2.677 16.251-6.963 4.767-4.757 2.529-2.519 7.286-7.286 4.286-4.099 6.963-9.866 6.963-16.251z"/><path d="m132.5 94.25c0-12.406-10.093-22.5-22.5-22.5-6.385 0-12.152 2.677-16.251 6.963-4.767 4.757-2.529 2.519-7.286 7.286-4.286 4.099-6.963 9.866-6.963 16.251 0 12.406 10.093 22.5 22.5 22.5 6.385 0 12.152-2.677 16.251-6.963 4.767-4.757 2.529-2.519 7.286-7.286 4.286-4.099 6.963-9.866 6.963-16.251z"/><path d="m196.5 94.25c0-12.406-10.093-22.5-22.5-22.5-6.385 0-12.152 2.677-16.251 6.963-4.767 4.757-2.529 2.519-7.286 7.286-4.286 4.099-6.963 9.866-6.963 16.251 0 12.406 10.093 22.5 22.5 22.5 6.385 0 12.152-2.677 16.251-6.963 4.767-4.757 2.529-2.519 7.286-7.286 4.286-4.099 6.963-9.866 6.963-16.251z"/></g><path d="m45.75 116.75c-12.407 0-22.5-10.094-22.5-22.5s10.093-22.5 22.5-22.5 22.5 10.094 22.5 22.5-10.093 22.5-22.5 22.5z" fill="#fd646f"/><path d="m110 117c-12.407 0-22.5-10.094-22.5-22.5s10.093-22.5 22.5-22.5 22.5 10.094 22.5 22.5-10.093 22.5-22.5 22.5z" fill="#ffc682"/><path d="m174 117c-12.407 0-22.5-10.094-22.5-22.5s10.093-22.5 22.5-22.5 22.5 10.094 22.5 22.5-10.093 22.5-22.5 22.5z" fill="#93ddb7"/><path d="m452 117h-213c-12.407 0-22.5-10.094-22.5-22.5s10.093-22.5 22.5-22.5h213c12.407 0 22.5 10.094 22.5 22.5s-10.093 22.5-22.5 22.5z" fill="#f5f5f5"/></g></svg>