<svg id="Capa_1" enable-background="new 0 0 511.998 511.998" height="512" viewBox="0 0 511.998 511.998" width="512" xmlns="http://www.w3.org/2000/svg"><g><path d="m477.694 344.995c0 9.457-3.286 18.131-8.767 24.972-2.339 2.915-5.068 5.501-8.118 7.665l-.793 7.726-6.562 63.634-7.121 10h-16l-8.392-10-6.562-63.634-.793-7.726c-3.049-2.163-5.789-4.749-8.128-7.665-5.481-6.84-8.757-15.514-8.757-24.972 0-22.087 17.904-40.002 39.992-40.002 22.097 0 40.001 17.915 40.001 40.002z" fill="#b48e84"/><path d="m435.982 385.358 6.562 63.634-5.712 10h-6.833l-8.058-10-6.562-63.634-.793-7.726c-3.049-2.163-5.789-4.749-8.128-7.665-5.481-6.84-8.757-15.514-8.757-24.972 0-22.087 17.904-40.002 39.992-40.002 3.565 0 7.015.464 10.302 1.339-17.091 4.553-29.69 20.14-29.69 38.663 0 9.426 3.255 18.08 8.705 24.91 2.349 2.946 5.099 5.542 8.18 7.726z" fill="#a77d73"/><g><path d="m468.927 369.967c-2.339 2.915-5.068 5.501-8.118 7.665l-.793 7.726h-44.638l-.793-7.726c-3.049-2.163-5.789-4.749-8.128-7.665.412-.041.834-.062 1.257-.062h59.956c.423 0 .845.021 1.257.062z" fill="#98695e"/></g><g><path d="m435.982 385.358h-20.604l-.793-7.726c-3.049-2.163-5.789-4.749-8.128-7.665.412-.041.834-.062 1.257-.062h19.295c2.349 2.946 5.099 5.542 8.18 7.726z" fill="#845c52"/></g><g><path d="m339.302 511.996h-321.997c-3.866 0-7-3.134-7-7v-465.996c0-3.866 3.134-7 7-7h72.999l20.604 10h136.589l18.806-10h72.999c3.866 0 7 3.134 7 7v465.996c0 3.866-3.134 7-7 7z" fill="#365e7d"/><path d="m42.308 31.995v480.003h-25.007c-3.866 0-7-3.134-7-7v-466.003c0-3.866 3.134-7 7-7z" fill="#2b4d66"/><path d="m49.304 64.003h257.999c3.866 0 7 3.134 7 7v401.997c0 3.866-3.134 7-7 7h-257.999c-3.866 0-7-3.134-7-7v-401.997c0-3.866 3.134-7 7-7z" fill="#eaf6ff"/><path d="m210.303 32c0-17.673-14.327-32-32-32-17.673 0-32 14.327-32 32h-56v15.034c0 18.207 14.759 32.966 32.966 32.966h110.067c18.206 0 32.966-14.759 32.966-32.966v-15.034z" fill="#f9d264"/><path d="m143.874 80.002h-20.604c-18.203 0-32.966-14.763-32.966-32.966v-15.041h20.604v15.041c0 18.203 14.763 32.966 32.966 32.966z" fill="#efc356"/></g><path d="m501.697 480.495v31.503h-128v-31.503l3.668-7.222 10.386-20.451c1.193-2.35 3.606-3.83 6.241-3.83h87.41c2.636 0 5.048 1.48 6.241 3.83l10.386 20.451z" fill="#46778c"/><path d="m410.3 448.992-15.999 31.503v31.503h-20.604v-31.503l14.053-27.672c1.193-2.35 3.606-3.83 6.241-3.83h16.309z" fill="#3a6684"/><g><g><g><path d="m250.301 135.725h-143.999c-4.267 0-7.726-3.459-7.726-7.726 0-4.268 3.459-7.726 7.726-7.726h143.999c4.267 0 7.726 3.459 7.726 7.726 0 4.268-3.459 7.726-7.726 7.726z" fill="#365e7d"/></g><g><path d="m282.301 199.725h-207.999c-4.267 0-7.726-3.459-7.726-7.726s3.459-7.726 7.726-7.726h207.998c4.268 0 7.726 3.459 7.726 7.726s-3.458 7.726-7.725 7.726z" fill="#365e7d"/></g><g><path d="m282.301 231.724h-207.999c-4.267 0-7.726-3.459-7.726-7.726s3.459-7.726 7.726-7.726h207.998c4.268 0 7.726 3.459 7.726 7.726s-3.458 7.726-7.725 7.726z" fill="#365e7d"/></g><g><path d="m282.301 263.724h-207.999c-4.267 0-7.726-3.459-7.726-7.726s3.459-7.726 7.726-7.726h207.998c4.268 0 7.726 3.459 7.726 7.726s-3.458 7.726-7.725 7.726z" fill="#365e7d"/></g><g><path d="m282.301 295.724h-207.999c-4.267 0-7.726-3.459-7.726-7.726s3.459-7.726 7.726-7.726h207.998c4.268 0 7.726 3.459 7.726 7.726s-3.458 7.726-7.725 7.726z" fill="#365e7d"/></g><g><path d="m282.301 327.723h-207.999c-4.267 0-7.726-3.459-7.726-7.726s3.459-7.726 7.726-7.726h207.998c4.268 0 7.726 3.459 7.726 7.726s-3.458 7.726-7.725 7.726z" fill="#365e7d"/></g><g><path d="m282.301 391.723h-79.999c-4.267 0-7.726-3.459-7.726-7.726s3.459-7.726 7.726-7.726h79.999c4.268 0 7.726 3.459 7.726 7.726s-3.459 7.726-7.726 7.726z" fill="#365e7d"/></g></g></g><circle cx="138.302" cy="383.498" fill="#f25a74" r="31.501"/><g><g><path d="m501.697 480.495v8.231h-128v-8.231l3.668-7.222h120.665z" fill="#365e7d"/></g></g></g></svg>