<svg height="512" viewBox="0 0 128 128" width="512" xmlns="http://www.w3.org/2000/svg"><g><path d="m86.005 46.5a39.469 39.469 0 1 0 -30.649 38.507 37.421 37.421 0 0 1 19.141.455l1.1.329 10.194-10.191-.329-1.1a37.421 37.421 0 0 1 -.455-19.141 39.556 39.556 0 0 0 .998-8.859z" fill="#707789"/><circle cx="46.502" cy="46.502" fill="#e6f2ff" r="30.336" transform="matrix(.707 -.707 .707 .707 -19.262 46.502)"/><path d="m85.791 75.6 33.1 33.1a7.209 7.209 0 0 1 0 10.2 7.209 7.209 0 0 1 -10.2 0l-33.1-33.1z" fill="#ffa64d"/><path d="m103.968 109.427h14.418v3.5h-14.418z" fill="#ff941f" transform="matrix(.707 -.707 .707 .707 -46.051 111.177)"/></g></svg>