<?xml version="1.0" encoding="iso-8859-1"?>
<!-- Generator: Adobe Illustrator 19.0.0, SVG Export Plug-In . SVG Version: 6.00 Build 0)  -->
<svg version="1.1" id="Capa_1" xmlns="http://www.w3.org/2000/svg" xmlns:xlink="http://www.w3.org/1999/xlink" x="0px" y="0px"
	 viewBox="0 0 512 512" style="enable-background:new 0 0 512 512;" xml:space="preserve">
<path style="fill:#9A3F21;" d="M442.77,60.99c-1.966,0-3.933-0.757-5.422-2.267c-2.956-2.995-2.925-7.818,0.07-10.774l46.36-45.753
	c2.995-2.955,7.819-2.924,10.774,0.071c2.956,2.995,2.925,7.818-0.07,10.774l-46.36,45.753
	C446.637,60.258,444.703,60.99,442.77,60.99z"/>
<path style="fill:#E2EEFD;" d="M348.332,511.995H163.666c-2.811,0-5.089-2.278-5.089-5.089v-16.011
	c0-14.468,11.728-26.195,26.195-26.195h142.453c14.467,0,26.195,11.728,26.195,26.195v16.011
	C353.421,509.717,351.143,511.995,348.332,511.995z"/>
<path style="fill:#C7DCF2;" d="M353.426,490.892v16.019c0,2.811-2.278,5.089-5.089,5.089h-21.372v-21.108
	c0-14.462-11.734-26.196-26.196-26.196h26.461C341.697,464.695,353.426,476.424,353.426,490.892z"/>
<circle style="fill:#00C37A;" cx="369.995" cy="118.65" r="33.061"/>
<path style="fill:#02A562;" d="M403.048,118.649c0,18.258-14.798,33.056-33.056,33.056c-10.442,0-19.754-4.845-25.82-12.407
	c3.236,1.058,6.686,1.629,10.269,1.629c18.258,0,33.056-14.808,33.056-33.066c0-7.806-2.708-14.981-7.236-20.639
	C393.492,91.537,403.048,103.974,403.048,118.649z"/>
<circle style="fill:#00C37A;" cx="419.221" cy="75.82" r="33.061"/>
<path style="fill:#02A562;" d="M452.282,75.006c0,18.258-14.798,33.056-33.056,33.056c-10.442,0-19.754-4.845-25.82-12.407
	c3.236,1.058,6.686,1.629,10.269,1.629c18.258,0,33.056-14.808,33.056-33.066c0-7.806-2.708-14.981-7.236-20.639
	C442.726,47.893,452.282,60.33,452.282,75.006z"/>
<path id="SVGCleanerId_0" style="fill:#E2EEFD;" d="M494.238,131.235H255.999H17.759c-4.702,0-6.888,5.832-3.345,8.923
	l212.685,185.535c4.453,3.885,7.008,9.505,7.008,15.413v123.592h43.783V341.107c0-5.909,2.555-11.529,7.008-15.413l212.685-185.535
	C501.127,137.067,498.941,131.235,494.238,131.235z"/>
<g>
	<path id="SVGCleanerId_0_1_" style="fill:#E2EEFD;" d="M494.238,131.235H255.999H17.759c-4.702,0-6.888,5.832-3.345,8.923
		l212.685,185.535c4.453,3.885,7.008,9.505,7.008,15.413v123.592h43.783V341.107c0-5.909,2.555-11.529,7.008-15.413l212.685-185.535
		C501.127,137.067,498.941,131.235,494.238,131.235z"/>
</g>
<path style="fill:#C7DCF2;" d="M497.587,140.163L284.902,325.694c-4.457,3.888-7.013,9.506-7.013,15.408v123.593h-20.355V331.832
	c0-5.913,2.554-11.531,7.013-15.418l212.278-185.176h17.413C498.941,131.237,501.129,137.069,497.587,140.163z"/>
<path style="fill:#00C37A;" d="M149.737,201.495l104.192,93.349c2.053,1.84,5.161,1.84,7.214,0l104.192-93.349
	c3.694-3.31,1.353-9.432-3.607-9.432H153.343C148.383,192.063,146.042,198.185,149.737,201.495z"/>
<path style="fill:#02A562;" d="M365.333,201.491l-104.195,93.356c-2.046,1.832-5.16,1.832-7.206,0l-10.523-9.435
	c0.03-0.02,0.061-0.041,0.091-0.071l104.113-93.275h14.116C366.687,192.067,369.027,198.183,365.333,201.491z"/>
<g>
</g>
<g>
</g>
<g>
</g>
<g>
</g>
<g>
</g>
<g>
</g>
<g>
</g>
<g>
</g>
<g>
</g>
<g>
</g>
<g>
</g>
<g>
</g>
<g>
</g>
<g>
</g>
<g>
</g>
</svg>
