<svg id="Capa_1" enable-background="new 0 0 484.371 484.371" height="512" viewBox="0 0 484.371 484.371" width="512" xmlns="http://www.w3.org/2000/svg"><g><path d="m140.462 87.098h326.189c9.787 0 17.721 7.934 17.721 17.721v99.237h-343.91z" fill="#eaa14e"/><path d="m484.371 134.324v278.703c0 11.174-9.058 20.231-20.231 20.231h-443.909c-11.173 0-20.231-9.057-20.231-20.231v-341.683c0-11.173 9.058-20.231 20.231-20.231h132.269c7.559.001 14.487 4.216 17.963 10.928l31.774 61.356c3.476 6.712 10.404 10.927 17.963 10.928z" fill="#f6b863"/><path d="m296.4 298.391h140.769v87.665h-140.769z" fill="#eeefee"/><g fill="#dbd8dd"><path d="m311.575 314.83h110.419v7.585h-110.419z"/><path d="m311.575 338.428h110.419v7.585h-110.419z"/><path d="m311.575 362.032h110.419v7.585h-110.419z"/></g></g></svg>