<?xml version="1.0" encoding="iso-8859-1"?>
<!-- Generator: Adobe Illustrator 19.0.0, SVG Export Plug-In . SVG Version: 6.00 Build 0)  -->
<svg version="1.1" id="Layer_1" xmlns="http://www.w3.org/2000/svg" xmlns:xlink="http://www.w3.org/1999/xlink" x="0px" y="0px"
	 viewBox="0 0 512 512" style="enable-background:new 0 0 512 512;" xml:space="preserve">
<polygon style="fill:#FC583D;" points="215.505,31.242 215.505,223.893 378.65,127.568 "/>
<path style="fill:#4D4D4D;" d="M339.883,466.872c0,24.924-46.227,45.128-103.261,45.128c-6.827,0-13.504-0.289-19.96-0.844
	c-11.849-1.007-22.969-2.904-32.978-5.521c-30.154-7.892-50.335-22.298-50.335-38.763c0-16.465,20.18-30.872,50.335-38.763
	l32.978-5.519c6.457-0.555,13.133-0.845,19.96-0.845C293.657,421.745,339.883,441.949,339.883,466.872z"/>
<path style="fill:#FFCA6C;" d="M216.662,0v511.156c-11.849-1.007-22.969-2.904-32.978-5.521V0H216.662z"/>
<g>
</g>
<g>
</g>
<g>
</g>
<g>
</g>
<g>
</g>
<g>
</g>
<g>
</g>
<g>
</g>
<g>
</g>
<g>
</g>
<g>
</g>
<g>
</g>
<g>
</g>
<g>
</g>
<g>
</g>
</svg>
