<?xml version="1.0" encoding="iso-8859-1"?>
<!-- Generator: Adobe Illustrator 19.0.0, SVG Export Plug-In . SVG Version: 6.00 Build 0)  -->
<svg version="1.1" id="Capa_1" xmlns="http://www.w3.org/2000/svg" xmlns:xlink="http://www.w3.org/1999/xlink" x="0px" y="0px"
	 viewBox="0 0 512 512" style="enable-background:new 0 0 512 512;" xml:space="preserve">
<path style="fill:#C27B48;" d="M330.659,85.342c-20.852,6.17-38.265,14.456-52.14,24.774c-21.712,11.397-41.75,0.182-42.603-0.309
	l0.111,0.066l-15.41,25.739c0.811,0.486,11.974,7.013,28.218,9.023c-15.717,31.222-6.816,60.298-6.421,61.542l28.596-9.068
	l0.039,0.123c-0.241-0.811-5.78-20.087,5.378-40.664c10.24-18.884,31.351-33.169,62.743-42.459L330.659,85.342z"/>
<path style="fill:#DE78F0;" d="M271.005,232.2c0,37.52-30.53,68.051-68.051,68.051s-68.051-30.53-68.051-68.051
	s30.53-68.041,68.051-68.041C240.474,164.159,271.005,194.679,271.005,232.2z"/>
<path style="fill:#D261E8;" d="M271.005,232.2c0,37.52-30.53,68.051-68.051,68.051V164.159
	C240.474,164.159,271.005,194.679,271.005,232.2z"/>
<path style="fill:#DE78F0;" d="M377.097,232.2c0,37.52-30.53,68.051-68.051,68.051s-68.051-30.53-68.051-68.051
	s30.53-68.041,68.051-68.041C346.567,164.159,377.097,194.679,377.097,232.2z"/>
<path style="fill:#D261E8;" d="M377.097,232.2c0,37.52-30.53,68.051-68.051,68.051V164.159
	C346.567,164.159,377.097,194.679,377.097,232.2z"/>
<path style="fill:#DE78F0;" d="M217.957,292.096c0,37.52-30.53,68.051-68.051,68.051s-68.051-30.53-68.051-68.051
	s30.53-68.041,68.051-68.041C187.427,224.056,217.957,254.576,217.957,292.096z"/>
<path style="fill:#D261E8;" d="M217.957,292.096c0,37.52-30.53,68.051-68.051,68.051V224.056
	C187.427,224.056,217.957,254.576,217.957,292.096z"/>
<path style="fill:#DE78F0;" d="M324.051,292.096c0,37.52-30.53,68.051-68.051,68.051s-68.051-30.53-68.051-68.051
	s30.53-68.041,68.051-68.041S324.051,254.576,324.051,292.096z"/>
<path style="fill:#D261E8;" d="M324.051,292.096c0,37.52-30.53,68.051-68.051,68.051V224.056
	C293.521,224.056,324.051,254.576,324.051,292.096z"/>
<path style="fill:#DE78F0;" d="M430.144,292.096c0,37.52-30.53,68.051-68.051,68.051s-68.051-30.53-68.051-68.051
	s30.53-68.041,68.051-68.041C399.614,224.056,430.144,254.576,430.144,292.096z"/>
<path style="fill:#D261E8;" d="M430.144,292.096c0,37.52-30.53,68.051-68.051,68.051V224.056
	C399.614,224.056,430.144,254.576,430.144,292.096z"/>
<path style="fill:#DE78F0;" d="M271.005,370.898c0,37.52-30.53,68.051-68.051,68.051s-68.051-30.53-68.051-68.051
	s30.53-68.041,68.051-68.041S271.005,333.378,271.005,370.898z"/>
<path style="fill:#D261E8;" d="M271.005,370.898c0,37.52-30.53,68.051-68.051,68.051V302.857
	C240.474,302.857,271.005,333.378,271.005,370.898z"/>
<path style="fill:#DE78F0;" d="M377.097,370.898c0,37.52-30.53,68.051-68.051,68.051s-68.051-30.53-68.051-68.051
	s30.53-68.041,68.051-68.041S377.097,333.378,377.097,370.898z"/>
<path style="fill:#D261E8;" d="M377.097,370.898c0,37.52-30.53,68.051-68.051,68.051V302.857
	C346.567,302.857,377.097,333.378,377.097,370.898z"/>
<path style="fill:#DE78F0;" d="M324.051,443.949c0,37.52-30.53,68.051-68.051,68.051s-68.051-30.53-68.051-68.051
	s30.53-68.041,68.051-68.041S324.051,406.429,324.051,443.949z"/>
<path style="fill:#D261E8;" d="M324.051,443.949c0,37.52-30.53,68.051-68.051,68.051V375.909
	C293.521,375.909,324.051,406.429,324.051,443.949z"/>
<path style="fill:#11A892;" d="M263.631,109.357c-9.02,11.92-19.29,20.41-26.65,25.62c-5.25,3.71-9.02,5.74-9.82,6.16
	c-0.5,0.27-1.37,0.74-2.6,1.34l-10.45,4.44c-8.29,3.05-19.87,6.29-33.26,7.21c-2.37,0.16-4.84,0.25-7.39,0.25
	c-24.25,0-56.18-8.3-83.081-43.25l-6.35-8.25l5.5-8.83c0.8-1.29,16.6-26.11,45.73-32.47c-3.48-15.48-3.58-36.84,12.93-55.77
	l3.68-4.22l5.55-0.78c24.87-3.46,42.68,8.31,53.72,19.7c21.26-20.89,50.65-20.54,52.18-20.5l10.4,0.23l3.43,9.81
	C293.241,56.096,278.681,89.467,263.631,109.357z"/>
<path style="fill:#0F9887;" d="M263.631,109.357c-9.02,11.92-19.29,20.41-26.65,25.62L151.87,1.586l5.55-0.78
	c24.87-3.46,42.68,8.31,53.72,19.7c21.26-20.89,50.65-20.54,52.18-20.5l10.4,0.23l3.43,9.81
	C293.241,56.096,278.681,89.467,263.631,109.357z"/>
<g>
</g>
<g>
</g>
<g>
</g>
<g>
</g>
<g>
</g>
<g>
</g>
<g>
</g>
<g>
</g>
<g>
</g>
<g>
</g>
<g>
</g>
<g>
</g>
<g>
</g>
<g>
</g>
<g>
</g>
</svg>
