<svg height="512" viewBox="0 0 48 48" width="512" xmlns="http://www.w3.org/2000/svg"><g id="push_pin" data-name="push pin"><path d="m21.12 30.83-15.12 15.09-5-.72 17.25-17.2z" fill="#dad7e5"/><path d="m19.62 29.33-11.87 11.87a4.89 4.89 0 0 1 -4.13 1.38c-.1 0 0 0 14.63-14.63z" fill="#edebf2"/><path d="m31.19 36.58-2.19 2.15-18.66-18.68 2.16-2.16a3 3 0 0 1 4.31 0c15.68 15.68 14.57 14.5 14.87 15a3 3 0 0 1 -.49 3.69z" fill="#db5669"/><path d="m31.68 32.92a3 3 0 0 1 -4.81.66l-15-15 .66-.66a3 3 0 0 1 4.31 0c15.65 15.65 14.54 14.47 14.84 15z" fill="#f26674"/><path d="m47 17.89-1.44 1.44a2 2 0 0 1 -2.87 0l-12.94-12.94a2 2 0 0 1 0-2.87c.11-.09.06 0 1.44-1.44z" fill="#db5669"/><path d="m45.49 16.38a2 2 0 0 1 -2.8-.05l-12.87-12.87 1.37-1.38z" fill="#f26674"/><path d="m42.69 19.33a22.08 22.08 0 0 0 -11.5 12.94l-14.38-14.38a22.06 22.06 0 0 0 12.94-11.5z" fill="#db5669"/><path d="m40.74 17.38a22 22 0 0 0 -6.23 5.62 6 6 0 0 1 -9 .6l-6.51-6.6a22.13 22.13 0 0 0 10.75-10.61z" fill="#f26674"/></g></svg>