<?xml version="1.0" encoding="iso-8859-1"?>
<!-- Generator: Adobe Illustrator 19.0.0, SVG Export Plug-In . SVG Version: 6.00 Build 0)  -->
<svg version="1.1" id="Capa_1" xmlns="http://www.w3.org/2000/svg" xmlns:xlink="http://www.w3.org/1999/xlink" x="0px" y="0px"
	 viewBox="0 0 468.293 468.293" style="enable-background:new 0 0 468.293 468.293;" xml:space="preserve">
<path style="fill:#27A2DB;" d="M392.055,317.353c-34.853,35.657-54.022,84.518-54.022,137.535c0,7.44-6.032,13.405-13.405,13.405
	H171.275c-7.373,0-13.405-5.965-13.405-13.405v-81.435h-24.397c-22.119,0-40.081-18.029-40.081-40.148v-73.057H36.421
	c-4.893,0-9.384-2.614-11.729-6.903c-2.346-4.223-2.212-9.451,0.403-13.606l48.056-76.743
	C85.751,64.133,176.101-8.455,276.102,0.794c88.54,8.177,160.994,81.167,168.501,169.841
	C449.161,224.993,430.058,278.479,392.055,317.353z"/>
<path style="fill:#FCD462;" d="M221.599,280.255h73.697v-24.899c0-20.153,8.074-40.498,22.736-57.227
	c12.595-14.403,19.506-32.811,19.506-51.994c0-21.702-8.591-41.983-24.286-57.033c-15.696-15.05-36.365-22.865-58.066-22.025
	c-41.08,1.679-75.119,36.493-75.828,77.572c-0.388,20.411,6.975,39.917,20.798,54.966c13.822,14.984,21.443,34.749,21.443,55.676
	V280.255z"/>
<path style="fill:#D5D6DB;" d="M298.401,151.624c-2.523-2.523-6.61-2.523-9.133,0l-13.132,13.132l-13.132-13.132
	c-2.523-2.523-6.61-2.523-9.133,0l-13.132,13.132l-13.132-13.132c-2.523-2.523-6.61-2.523-9.133,0c-2.523,2.523-2.523,6.61,0,9.133
	l17.699,17.699c2.523,2.523,6.61,2.523,9.133,0l6.673-6.673v89.902h12.918v-89.902l6.673,6.673c1.262,1.262,2.914,1.892,4.567,1.892
	c1.653,0,3.305-0.631,4.567-1.892l17.699-17.699C300.924,158.234,300.924,154.147,298.401,151.624z"/>
<path style="fill:#DC8744;" d="M221.599,255.227v40.944c0,5.776,4.683,10.458,10.459,10.458h52.78
	c5.776,0,10.458-4.682,10.458-10.458v-40.944H221.599z"/>
<g>
</g>
<g>
</g>
<g>
</g>
<g>
</g>
<g>
</g>
<g>
</g>
<g>
</g>
<g>
</g>
<g>
</g>
<g>
</g>
<g>
</g>
<g>
</g>
<g>
</g>
<g>
</g>
<g>
</g>
</svg>
