<svg id="Capa_1" enable-background="new 0 0 512 512" height="512" viewBox="0 0 512 512" width="512" xmlns="http://www.w3.org/2000/svg"><g><g fill="#ffe14d"><path d="m150.829 88.14 24.2 62.414-24.2 62.406c-34.41 0-62.41-27.99-62.41-62.41 0-34.41 28-62.41 62.41-62.41z"/><path d="m150.829 0 7.5 28.87-7.5 28.87c-8.28 0-15-6.72-15-15v-27.74c0-8.28 6.72-15 15-15z"/><path d="m63.99 84.924c2.929 2.93 6.768 4.394 10.606 4.394s7.678-1.465 10.607-4.394c5.857-5.858 5.857-15.355 0-21.213l-19.615-19.614c-5.858-5.859-15.356-5.857-21.213 0-5.857 5.858-5.857 15.355 0 21.213z"/><path d="m58.019 150.554c0-8.284-6.716-15-15-15h-27.74c-8.284 0-15 6.716-15 15s6.716 15 15 15h27.74c8.284 0 15-6.716 15-15z"/><path d="m63.99 216.183-19.615 19.615c-5.858 5.857-5.858 15.355 0 21.213 2.929 2.929 6.768 4.394 10.606 4.394s7.678-1.465 10.606-4.394l19.615-19.615c5.858-5.857 5.858-15.355 0-21.213-5.856-5.858-15.354-5.858-21.212 0z"/><path d="m150.829 243.37 7.5 28.87-7.5 28.87c-8.28 0-15-6.72-15-15v-27.74c0-8.29 6.72-15 15-15z"/></g><path d="m377.678 243.925 26.283 143.284-26.283 124.791c-74.026 0-134.032-60.017-134.032-134.043s60.006-134.032 134.032-134.032z" fill="#fff5f5"/><path d="m511.721 377.957c0 74.026-60.017 134.043-134.043 134.043v-268.075c74.026 0 134.043 60.006 134.043 134.032z" fill="#e1ebf0"/><g><path d="m377.678 355.755 10.872 17.271-10.872 21.286c-.065.011-.12.011-.185.011-4.015 0-8.019-1.473-11.161-4.397l-28.672-26.741c-6.601-6.164-6.961-16.518-.797-23.13s16.518-6.972 23.13-.807z" fill="#ff7c48"/></g><g><path d="m438.044 345.39-49.598 44.721c-3.055 2.771-6.917 4.168-10.768 4.2v-38.557l38.448-34.673c6.721-6.055 17.064-5.521 23.119 1.2 6.055 6.711 5.52 17.054-1.201 23.109z" fill="#ff415b"/></g><g fill="#ffc34d"><path d="m213.239 150.55c0 34.42-27.99 62.41-62.41 62.41v-124.82c34.42 0 62.41 28 62.41 62.41z"/><path d="m165.829 15v27.74c0 8.28-6.71 15-15 15v-57.74c8.29 0 15 6.72 15 15z"/><path d="m165.829 258.37v27.74c0 8.28-6.71 15-15 15v-57.74c8.29 0 15 6.71 15 15z"/><path d="m237.674 216.183c-5.857-5.857-15.355-5.857-21.213 0s-5.858 15.355 0 21.213l19.615 19.615c2.929 2.929 6.768 4.394 10.606 4.394s7.678-1.465 10.606-4.394c5.858-5.857 5.858-15.355 0-21.213z"/><path d="m286.385 135.554h-27.739c-8.284 0-15 6.716-15 15s6.716 15 15 15h27.739c8.284 0 15-6.716 15-15s-6.715-15-15-15z"/><path d="m227.068 89.317c3.838 0 7.678-1.465 10.606-4.394l19.616-19.613c5.857-5.857 5.858-15.354 0-21.213-5.856-5.858-15.354-5.858-21.213 0l-19.615 19.614c-5.858 5.857-5.858 15.354 0 21.213 2.928 2.93 6.767 4.393 10.606 4.393z"/></g></g></svg>