<?xml version="1.0" encoding="iso-8859-1"?>
<!-- Generator: Adobe Illustrator 19.0.0, SVG Export Plug-In . SVG Version: 6.00 Build 0)  -->
<svg version="1.1" id="Capa_1" xmlns="http://www.w3.org/2000/svg" xmlns:xlink="http://www.w3.org/1999/xlink" x="0px" y="0px"
	 viewBox="0 0 512.001 512.001" style="enable-background:new 0 0 512.001 512.001;" xml:space="preserve">
<path style="fill:#4E8B5B;" d="M196.122,80.226V1.598h-45.735v78.628c0,41.29-15.125,81.978-34.098,118.651l0,0
	c-18.973,36.673-28.875,77.361-28.875,118.651v169.804c0,13.624,11.044,24.668,24.668,24.668h122.346
	c13.624,0,24.668-11.044,24.668-24.668V317.529c0-41.29-9.902-81.978-28.875-118.651l0,0
	C211.247,162.205,196.122,121.517,196.122,80.226z"/>
<path style="fill:#417F4D;" d="M230.22,198.878L230.22,198.878c-18.973-36.673-34.098-77.361-34.098-118.651V1.598h-22.867V165.78
	c0,11.452,2.672,22.764,7.93,32.937c0.028,0.053,0.055,0.107,0.083,0.16l1.639,3.278c17.911,35.822,27.236,75.323,27.236,115.374
	v169.804c0,13.624-11.044,24.668-24.668,24.668h48.953c13.624,0,24.668-11.044,24.668-24.668V317.529
	C259.095,276.239,249.193,235.551,230.22,198.878z"/>
<path style="fill:#FFDC6C;" d="M140.812,140.092h64.886c-5.937-19.543-9.576-39.631-9.576-59.865v-27.42h2.54V4.247
	c0-2.345-1.901-4.247-4.247-4.247h-42.321c-2.346,0-4.247,1.901-4.247,4.247v48.559h2.54v27.42
	C150.387,100.46,146.749,120.548,140.812,140.092z"/>
<path style="fill:#F7CE5E;" d="M173.255,140.092h32.443c-5.937-19.543-9.576-39.631-9.576-59.865v-27.42h2.54V4.247
	c0-2.345-1.901-4.247-4.247-4.247h-21.161v140.092H173.255z"/>
<g>
	<path style="fill:#FFBF14;" d="M200.199,54.774H146.31c-3.037,0-5.499-2.462-5.499-5.499V32.051c0-3.037,2.462-5.499,5.499-5.499
		h53.889c3.037,0,5.499,2.462,5.499,5.499v17.224C205.698,52.312,203.236,54.774,200.199,54.774z"/>
	<path style="fill:#FFBF14;" d="M259.095,339.779h-26.617c-7.103,0-13.381-4.43-15.972-11.044
		c-8.581-21.904-24.736-36.664-43.252-36.664s-34.671,14.76-43.252,36.664c-2.591,6.614-8.869,11.044-15.972,11.044H87.414v58.502
		h30.387c6.466,0,12.367,3.662,15.264,9.443c9.058,18.07,23.681,29.81,40.189,29.81s31.131-11.74,40.189-29.81
		c2.898-5.781,8.798-9.443,15.264-9.443h30.387v-58.502H259.095z"/>
</g>
<path style="fill:#EDA60A;" d="M216.507,328.736c-1.808-4.615-3.956-8.908-6.388-12.818c0.003,0.537,0.023,1.074,0.023,1.611v96.098
	c1.168-1.882,2.272-3.849,3.302-5.902c2.898-5.781,8.798-9.443,15.264-9.443h30.387V339.78h-26.617
	C225.375,339.779,219.097,335.349,216.507,328.736z"/>
<path style="fill:#D1DCED;" d="M423.809,509.563l-38.856-16.375V364.803c0-4.327-3.507-7.835-7.835-7.835s-7.835,3.508-7.835,7.835
	v128.386l-38.855,16.375c-1.275,0.537-0.891,2.437,0.492,2.437h92.396C424.7,512,425.084,510.101,423.809,509.563z"/>
<path style="fill:#E5EBF6;" d="M423.522,326.486l-6.39-174.967c-0.052-1.416-1.215-2.538-2.632-2.538h-74.762
	c-1.417,0-2.581,1.122-2.632,2.538l-6.39,174.967c-0.275,7.531,1.913,14.947,6.233,21.122l22.161,31.679
	c8.749,12.507,27.27,12.507,36.019,0l22.161-31.679C421.609,341.433,423.797,334.017,423.522,326.486z"/>
<path style="fill:#D1DCED;" d="M423.522,326.486l-3.584-98.118l-0.774-21.202l-2.032-55.647c-0.026-0.708-0.33-1.343-0.804-1.8
	c-0.06-0.058-0.13-0.104-0.195-0.156c-0.064-0.051-0.123-0.108-0.191-0.153c-0.056-0.037-0.12-0.062-0.179-0.094
	c-0.086-0.048-0.17-0.1-0.261-0.138c-0.309-0.127-0.647-0.197-1.002-0.197h-46.414l6.907,189.112l-21.132,33.693l5.248,7.502
	c8.749,12.507,27.27,12.507,36.019,0l22.161-31.679l0,0c0.001-0.001,0.001-0.001,0.001-0.002c0.445-0.637,0.854-1.294,1.253-1.956
	c0.146-0.244,0.296-0.487,0.435-0.734c0.286-0.501,0.552-1.013,0.812-1.527c0.232-0.463,0.455-0.93,0.668-1.401
	c0.553-1.226,1.036-2.48,1.442-3.76c0-0.001,0.001-0.002,0.001-0.004c0.144-0.453,0.277-0.908,0.402-1.366
	c0.111-0.409,0.214-0.82,0.31-1.233c0.111-0.471,0.212-0.944,0.303-1.419c0.114-0.599,0.22-1.199,0.302-1.804
	c0.036-0.261,0.062-0.523,0.092-0.785c0.082-0.731,0.153-1.465,0.188-2.202c0.006-0.118,0.006-0.237,0.011-0.356
	c0.032-0.854,0.042-1.711,0.011-2.57C423.522,326.488,423.522,326.487,423.522,326.486z"/>
<path style="fill:#9DDA74;" d="M419.793,224.397l-1.442-39.479h-82.466l-5.171,141.568c-0.034,0.941-0.03,1.881,0.012,2.817
	c0.126,2.807,0.592,5.577,1.382,8.253c1.053,3.567,2.68,6.965,4.84,10.053l22.161,31.679c8.749,12.507,27.27,12.507,36.019,0
	l3.625-5.181l18.536-26.498c1.08-1.544,2.027-3.165,2.835-4.846c1.617-3.363,2.68-6.965,3.148-10.666
	c0.234-1.851,0.319-3.726,0.25-5.609L419.793,224.397z"/>
<path style="fill:#92CC64;" d="M418.978,344.916c0.186-0.326,0.353-0.662,0.528-0.993c0.093-0.179,0.193-0.354,0.284-0.534
	c0.232-0.463,0.455-0.93,0.668-1.401c0.553-1.225,1.034-2.477,1.44-3.755c0.001-0.003,0.002-0.007,0.003-0.01
	c0.144-0.452,0.277-0.908,0.402-1.365c0.111-0.409,0.214-0.82,0.31-1.233c0.111-0.47,0.212-0.943,0.303-1.418
	c0.114-0.6,0.221-1.201,0.303-1.806c0.036-0.26,0.062-0.521,0.092-0.782c0.082-0.733,0.153-1.467,0.189-2.205
	c0.006-0.118,0.006-0.236,0.011-0.354c0.032-0.856,0.042-1.714,0.011-2.574l-3.584-98.118l-0.309-8.453l-1.278-34.997h-48.953
	l5.594,153.174l-21.132,33.693l5.248,7.502c8.749,12.507,27.27,12.507,36.019,0l22.161-31.679c0.446-0.638,0.855-1.297,1.256-1.961
	C418.69,345.404,418.839,345.163,418.978,344.916z"/>
<path style="fill:#EDA60A;" d="M200.199,26.552h-43.454v28.222h43.454c3.037,0,5.499-2.462,5.499-5.499V32.051
	C205.698,29.014,203.236,26.552,200.199,26.552z"/>
<g>
</g>
<g>
</g>
<g>
</g>
<g>
</g>
<g>
</g>
<g>
</g>
<g>
</g>
<g>
</g>
<g>
</g>
<g>
</g>
<g>
</g>
<g>
</g>
<g>
</g>
<g>
</g>
<g>
</g>
</svg>
