<svg id="Capa_1" enable-background="new 0 0 512 512" height="512" viewBox="0 0 512 512" width="512" xmlns="http://www.w3.org/2000/svg"><g><path d="m368 151h-224c-9.506 0-16.556-8.711-14.71-17.94l13.59-67.94c2.79-13.98 15.17-24.12 29.42-24.12h167.4c14.25 0 26.63 10.14 29.42 24.12l13.59 67.94c1.849 9.246-5.223 17.94-14.71 17.94z" fill="#eef4ff"/><path d="m368 151h-112v-110h83.7c14.25 0 26.63 10.14 29.42 24.12l13.59 67.94c1.849 9.246-5.223 17.94-14.71 17.94z" fill="#d9e6fc"/><path d="m512 166v260c0 24.81-20.19 45-45 45h-422c-24.81 0-45-20.19-45-45v-260c0-24.81 20.19-45 45-45h422c24.81 0 45 20.19 45 45z" fill="#425796"/><path d="m512 166v260c0 24.81-20.19 45-45 45h-211v-350h211c24.81 0 45 20.19 45 45z" fill="#283758"/><path d="m128 185h-48c-8.284 0-15 6.716-15 15s6.716 15 15 15h48c8.284 0 15-6.716 15-15s-6.716-15-15-15z" fill="#dd5958"/><circle cx="256" cy="296" fill="#bceaf9" r="111"/><path d="m367 296c0 61.21-49.79 111-111 111v-222c61.21 0 111 49.79 111 111z" fill="#78b7ea"/><path d="m256 185c-61.21 0-111 49.79-111 111s49.79 111 111 111 111-49.79 111-111-49.79-111-111-111zm0 192c-44.66 0-81-36.34-81-81s36.34-81 81-81 81 36.34 81 81-36.34 81-81 81z" fill="#eef4ff"/><path d="m367 296c0 61.21-49.79 111-111 111v-30c44.66 0 81-36.34 81-81s-36.34-81-81-81v-30c61.21 0 111 49.79 111 111z" fill="#d9e6fc"/></g></svg>