<?xml version="1.0" encoding="iso-8859-1"?>
<!-- Generator: Adobe Illustrator 19.0.0, SVG Export Plug-In . SVG Version: 6.00 Build 0)  -->
<svg xmlns="http://www.w3.org/2000/svg" xmlns:xlink="http://www.w3.org/1999/xlink" version="1.1" id="Layer_1" x="0px" y="0px" viewBox="0 0 512.001 512.001" style="enable-background:new 0 0 512.001 512.001;" xml:space="preserve">
<path style="fill:#F23051;" d="M414.507,493.787c-24.9,12-54.898,17.9-88.796,18.2h-1.5c-87.294,0-168.291-37.099-227.687-96.496  C35.926,354.295-1.173,271.199,0.028,183.605c0.3-32.999,6.2-62.097,17.9-86.395l46.497,3.9l73.795,74.095l5.7,47.998  l-14.999,11.099c-3.6,4.499-4.199,13.798,1.8,19.798l63.597,63.597l63.599,63.597c5.698,5.7,15.598,5.7,21.298,0l9.599-13.199  l48.297,5.7l73.797,73.797L414.507,493.787z"/>
<path style="fill:#D92C48;" d="M414.507,493.787c-24.9,12-54.898,17.9-88.796,18.2h-1.5c-87.294,0-168.291-37.099-227.687-96.496  l97.793-97.795l63.599,63.597c5.698,5.7,15.598,5.7,21.298,0l9.599-13.199l48.297,5.7l73.797,73.797L414.507,493.787z"/>
<path style="fill:#D82B48;" d="M183.059,129.837L109.982,56.76c-17.665-17.65-45.905-16.713-65.768,2.109  c-5.623,5.345-18.71,22.608-26.281,38.257L143.97,223.162c15.962-11.874,20.578-15.309,34.153-25.405  C200.088,181.407,202.501,149.278,183.059,129.837z"/>
<path style="fill:#C02740;" d="M455.403,402.181l-66.031-66.031c-27.085-27.085-58.921-23.976-75.128-2.241l-25.312,34.217  l125.655,125.655c9.641-4.603,34.865-22.21,38.414-25.832C472.233,448.32,473.258,420.036,455.403,402.181z"/>
<path style="fill:#FCB33B;" d="M332.011,255.001c0,8.399-6.599,14.999-14.999,14.999s-14.999-6.601-14.999-14.999  c0-12.6-5.099-23.7-13.199-31.798c-8.101-8.101-19.199-13.199-31.798-13.199c-8.401,0-14.999-6.601-14.999-14.999  c0-8.401,6.599-14.999,14.999-14.999c20.699,0,39.598,8.399,53.098,21.898C323.611,215.403,332.011,234.302,332.011,255.001z"/>
<path style="fill:#F69838;" d="M332.011,255.001c0,8.399-6.599,14.999-14.999,14.999s-14.999-6.601-14.999-14.999  c0-12.6-5.099-23.7-13.199-31.798l21.3-21.3C323.611,215.403,332.011,234.302,332.011,255.001z"/>
<path style="fill:#FCB33B;" d="M392.008,255.001c0,8.399-6.599,14.999-14.999,14.999s-14.999-6.601-14.999-14.999  c0-28.799-11.699-55.198-30.899-74.097c-18.897-19.198-45.296-30.897-74.095-30.897c-8.401,0-14.999-6.601-14.999-14.999  c0-8.401,6.599-14.999,14.999-14.999c37.198,0,70.796,14.999,95.395,39.598S392.008,217.803,392.008,255.001z"/>
<path style="fill:#F69838;" d="M392.008,255.001c0,8.399-6.599,14.999-14.999,14.999s-14.999-6.601-14.999-14.999  c0-28.799-11.699-55.198-30.899-74.097l21.3-21.298C377.009,184.206,392.008,217.803,392.008,255.001z"/>
<path style="fill:#FCB33B;" d="M452.005,255.001c0,8.399-6.599,14.999-14.999,14.999c-8.401,0-14.999-6.601-14.999-14.999  c0-45.599-18.599-86.695-48.297-116.694c-29.998-29.698-71.096-48.297-116.694-48.297c-8.401,0-14.999-6.599-14.999-14.999  s6.599-14.999,14.999-14.999c53.696,0,102.593,21.898,137.693,57.296C430.107,152.405,452.005,201.303,452.005,255.001z"/>
<path style="fill:#F69838;" d="M452.005,255.001c0,8.399-6.599,14.999-14.999,14.999c-8.401,0-14.999-6.601-14.999-14.999  c0-45.599-18.599-86.695-48.297-116.694l20.999-20.999C430.107,152.405,452.005,201.303,452.005,255.001z"/>
<path style="fill:#FCB33B;" d="M512.001,255.001c0,8.399-6.599,14.999-14.999,14.999s-14.999-6.601-14.999-14.999  c0-62.097-25.2-118.194-65.996-158.991s-96.894-65.996-158.991-65.996c-8.401,0-14.999-6.599-14.999-14.999  s6.599-14.999,14.999-14.999c70.197,0,134.092,28.498,180.29,74.696C483.503,120.907,512.001,184.804,512.001,255.001z"/>
<path style="fill:#F69838;" d="M512.001,255.001c0,8.399-6.599,14.999-14.999,14.999s-14.999-6.601-14.999-14.999  c0-62.097-25.2-118.194-65.996-158.991l21.3-21.3C483.503,120.907,512.001,184.804,512.001,255.001z"/>
<g>
</g>
<g>
</g>
<g>
</g>
<g>
</g>
<g>
</g>
<g>
</g>
<g>
</g>
<g>
</g>
<g>
</g>
<g>
</g>
<g>
</g>
<g>
</g>
<g>
</g>
<g>
</g>
<g>
</g>
</svg>
