<svg id="Capa_1" enable-background="new 0 0 512 512" height="512" viewBox="0 0 512 512" width="512" xmlns="http://www.w3.org/2000/svg"><g><g><path d="m509.993 67.538c2.675 2.242 2.675 6.362 0 8.604-15.589 13.063-66.462 51.382-126.813 51.382-62.052 0-95.436-40.509-103.913-52.425-1.391-1.956-1.391-4.563 0-6.519 8.477-11.916 41.861-52.425 103.913-52.425 60.352.001 111.224 38.32 126.813 51.383z" fill="#7db723"/></g><g><path d="m509.993 67.538c-7.428-6.225-22.879-18.18-43.537-28.995-26.421 20.106-82.605 55.915-147.656 55.915-8.392 0-16.361-.597-23.915-1.679 16.822 15.792 45.85 34.745 88.295 34.745 60.352 0 111.224-38.319 126.813-51.382 2.676-2.242 2.676-6.362 0-8.604z" fill="#78a61f"/></g><g><path d="m279.267 75.099c8.478 11.916 41.861 52.425 103.913 52.425 60.352 0 111.224-38.319 126.813-51.382 1.338-1.121 2.007-2.712 2.007-4.302h-233.777c0 1.14.348 2.281 1.044 3.259z" fill="#a1e42c"/></g><g><path d="m411.873 71.84c-26.43 12.499-58.498 22.618-93.073 22.618-8.392 0-16.361-.597-23.915-1.679 16.822 15.791 45.85 34.745 88.295 34.745 60.352 0 111.224-38.319 126.813-51.382 1.338-1.121 2.007-2.712 2.007-4.302z" fill="#95d528"/></g><g><path d="m425.976 227.93c-26.851-6.249-54.347 7.299-65.925 32.319-5.244 11.332-14.03 21.145-25.825 27.601-11.8 6.459-24.807 8.572-37.184 6.878-26.796-3.667-52.899 11.435-62.26 36.808-10.163 27.546-8.686 58.193 8.722 89.993 38.125 69.649 144.22 97.637 200.485 66.838s89.862-135.253 51.736-204.902c-17.132-31.295-41.637-48.993-69.749-55.535z" fill="#aa2439"/></g><g><path d="m495.724 283.466c-17.131-31.297-41.636-48.994-69.748-55.536-5.684-1.323-11.395-1.749-16.979-1.377 9.951 8.675 18.816 19.727 26.28 33.362 38.125 69.649 4.528 174.103-51.736 204.902-23.615 12.927-56.008 15.493-88.47 8.974 47.57 29.088 110.101 35.825 148.917 14.577 56.265-30.799 89.862-135.253 51.736-204.902z" fill="#952436"/></g><g><path d="m346.903 309.137c-1.917 0-3.836-.699-5.347-2.112l-9.722-9.095c-55.119-51.564-80.576-126.791-68.098-201.229l7.921-47.262c.715-4.263 4.753-7.14 9.015-6.428 4.265.715 7.142 4.751 6.428 9.015l-7.921 47.263c-11.608 69.252 12.075 139.235 63.353 187.207l9.722 9.095c3.157 2.953 3.322 7.908.368 11.066-1.541 1.647-3.627 2.48-5.719 2.48z" fill="#7db723"/></g><g><path d="m253.021 262.145c-20.553-18.374-51.177-19.693-73.347-3.305-10.041 7.422-22.46 11.811-35.906 11.811-13.452 0-25.876-4.393-35.92-11.821-21.744-16.083-51.892-15.37-72.288 2.393-22.141 19.282-35.56 46.875-35.56 83.128 0 79.401 79.626 154.894 143.768 154.894s143.768-75.493 143.768-154.894c.001-35.679-12.997-62.969-34.515-82.206z" fill="#e43a4f"/></g><g><path d="m253.021 262.145c-5.877-5.254-12.578-9.106-19.668-11.556 6.724 14.314 10.428 30.965 10.428 50.006 0 79.401-79.625 154.894-143.768 154.894-22.892 0-47.755-9.621-70.268-25.599 29.027 40.635 74.466 69.354 114.024 69.354 64.143 0 143.768-75.493 143.768-154.894 0-35.678-12.998-62.968-34.516-82.205z" fill="#c73044"/></g><g><path d="m144.019 304.833c-4.324 0-7.829-3.505-7.829-7.829v-38.358c0-78.257 38.926-150.819 104.127-194.101l41.451-27.515c3.602-2.391 8.461-1.41 10.853 2.194 2.391 3.602 1.409 8.461-2.194 10.853l-41.45 27.515c-60.819 40.372-97.128 108.056-97.128 181.054v38.358c0 4.324-3.506 7.829-7.83 7.829z" fill="#95d528"/></g><g><path d="m281.527 55.833-5.424-8.47c-3.559-5.558-1.924-13.018 3.634-16.577l27.64-17.7c5.558-3.559 13.018-1.924 16.577 3.634l5.424 8.47c3.559 5.558 1.924 13.018-3.634 16.577l-27.64 17.7c-5.558 3.56-13.018 1.924-16.577-3.634z" fill="#ba7b62"/></g><path d="m327.354 22.03-25.246 16.167c-5.558 3.559-13.018 1.924-16.577-3.634l-3.4-5.31-2.394 1.533c-5.558 3.559-7.193 11.019-3.634 16.577l5.424 8.47c3.559 5.558 11.019 7.194 16.577 3.634l27.64-17.699c5.558-3.559 7.194-11.019 3.634-16.577z" fill="#915c51"/></g></svg>