<svg id="Capa_1" enable-background="new 0 0 512 512" height="512" viewBox="0 0 512 512" width="512" xmlns="http://www.w3.org/2000/svg"><g><g><path d="m39.48 457.983c-52.639-52.639-52.639-138.279 0-190.919 41.66-41.66 82.647-63.298 126.016-86.199 46.901-24.735 95.366-50.33 149.756-104.719l10.607-10.607 38.366 38.366-14.646 43.98 43.98-14.646 38.366 38.366-10.607 10.607c-54.39 54.39-79.985 102.855-104.719 149.756-22.902 43.369-44.539 84.356-86.199 126.016-52.641 52.638-138.281 52.638-190.92-.001z" fill="#e673e6"/></g><g><path d="m512 27.688-21.213 21.213c-5.841-5.841-15.359-5.855-21.213 0l-48.256 48.457-21.213-21.213 48.256-48.457c9.404-9.404 21.963-13.76 34.295-13.081 10.323.552 20.492 4.653 28.518 12.269.282.267.55.536.826.812z" fill="#8cd96b"/></g><path d="m512 27.688-21.213 21.213c-5.841-5.841-15.359-5.855-21.213 0l-48.256 48.457-10.607-10.607 71.945-72.145c10.323.552 20.492 4.653 28.518 12.269.282.268.55.537.826.813z" fill="#5ab267"/><g id="Eggplant_1_"><g><path d="m230.398 457.983c41.66-41.66 63.298-82.647 86.199-126.016 24.735-46.901 50.33-95.366 104.719-149.756l10.607-10.607-38.366-38.366-43.98 14.646-310.097 310.099c52.639 52.639 138.279 52.639 190.918 0z" fill="#cc52cc"/></g><g><path d="m302.138 195.324 27.78-83.299-46.487-46.487 10.607-10.607c29.241-29.241 76.815-29.251 106.066 0l42.426 42.426c29.251 29.251 29.241 76.825 0 106.066l-10.607 10.607-46.487-46.487z" fill="#8cd96b"/></g><path d="m442.53 97.358-21.213-21.213-119.179 119.179 83.299-27.78 46.487 46.487 10.607-10.607c29.24-29.241 29.25-76.815-.001-106.066z" fill="#5ab267"/></g></g></svg>