<?xml version="1.0" encoding="iso-8859-1"?>
<!-- Generator: Adobe Illustrator 19.0.0, SVG Export Plug-In . SVG Version: 6.00 Build 0)  -->
<svg version="1.1" id="Layer_1" xmlns="http://www.w3.org/2000/svg" xmlns:xlink="http://www.w3.org/1999/xlink" x="0px" y="0px"
	 viewBox="0 0 512 512" style="enable-background:new 0 0 512 512;" xml:space="preserve">
<path style="fill:#FFCE3E;" d="M223.593,494.331l10.747-187.034H110.666c-12.888,0-20.932-14.036-14.391-25.159L257.348,8.226
	c8.839-15.029,32.062-8.026,31.059,9.421L277.661,204.68h123.674c12.888,0,20.932,14.036,14.391,25.159L254.652,503.752
	C245.783,518.834,222.591,511.78,223.593,494.331z"/>
<g>
	<path style="fill:#FEE856;" d="M75.685,453.913c-6.52-6.52-6.52-17.091,0-23.611l29.256-29.256c6.519-6.52,17.09-6.52,23.611,0
		c6.52,6.52,6.52,17.091,0,23.611l-29.256,29.256C92.776,460.432,82.205,460.433,75.685,453.913z"/>
	<path style="fill:#FEE856;" d="M104.941,126.341L75.685,97.085c-6.52-6.52-6.52-17.09,0-23.611c6.519-6.52,17.09-6.52,23.611,0
		l29.256,29.256c6.52,6.52,6.52,17.09,0,23.611C122.032,132.86,111.461,132.861,104.941,126.341z"/>
</g>
<path style="fill:#E87E04;" d="M401.334,204.679H277.661l10.746-187.034c1.003-17.447-22.22-24.45-31.059-9.421L256,10.517v490.943
	l159.726-271.622C422.266,218.715,414.222,204.679,401.334,204.679z"/>
<g>
	<path style="fill:#FFCE3E;" d="M412.705,453.913l-29.256-29.256c-6.52-6.52-6.52-17.09,0-23.611c6.519-6.52,17.09-6.52,23.611,0
		l29.256,29.256c6.52,6.52,6.52,17.09,0,23.611C429.797,460.432,419.224,460.433,412.705,453.913z"/>
	<path style="fill:#FFCE3E;" d="M383.449,126.341c-6.52-6.52-6.52-17.09,0-23.611l29.256-29.256c6.519-6.52,17.091-6.52,23.611,0
		c6.52,6.52,6.52,17.09,0,23.611l-29.256,29.256C400.541,132.86,389.968,132.861,383.449,126.341z"/>
</g>
<g>
</g>
<g>
</g>
<g>
</g>
<g>
</g>
<g>
</g>
<g>
</g>
<g>
</g>
<g>
</g>
<g>
</g>
<g>
</g>
<g>
</g>
<g>
</g>
<g>
</g>
<g>
</g>
<g>
</g>
</svg>
