<svg id="Capa_1" enable-background="new 0 0 511.656 511.656" height="512" viewBox="0 0 511.656 511.656" width="512" xmlns="http://www.w3.org/2000/svg"><g><g><g><path d="m387.393 347.031c-6.494 0-12.48-4.251-14.392-10.8-17.444-59.751-61.323-115.518-95.063-151.779-20.191-21.702-39.174-39.116-52.282-50.48-11.463 41.913-39.838 131.971-88.881 206.315-4.562 6.914-13.867 8.821-20.781 4.262-6.915-4.563-8.823-13.866-4.261-20.781 61.835-93.738 90.313-218.513 90.593-219.762 1.121-4.994 4.711-9.074 9.523-10.818 4.811-1.746 10.181-.919 14.243 2.198 1.42 1.089 35.209 27.145 73.81 68.631 52.287 56.197 86.569 111.31 101.896 163.807 2.321 7.953-2.243 16.281-10.195 18.603-1.402.409-2.818.604-4.21.604z" fill="#5bc980"/><path d="m401.799 327.823c-15.327-52.497-49.609-107.609-101.896-163.807-16.228-17.442-31.594-32.142-44.074-43.42v41.196c7.03 6.879 14.483 14.462 22.11 22.659 33.739 36.262 77.618 92.028 95.063 151.779 1.911 6.549 7.897 10.8 14.392 10.8 1.392 0 2.808-.195 4.211-.605 7.951-2.321 12.516-10.649 10.194-18.602z" fill="#00b44b"/></g><g><g><path d="m124.255 511.656c-59.391 0-107.708-48.317-107.708-107.708 0-28.976 11.596-52.432 33.536-67.832 18.524-13.004 44.172-19.877 74.173-19.877 30 0 55.649 6.873 74.173 19.877 21.939 15.4 33.536 38.856 33.536 67.832-.001 59.39-48.319 107.708-107.71 107.708z" fill="#ff405c"/><path d="m198.428 336.116c-18.524-13.004-44.173-19.877-74.173-19.877v195.417c59.391 0 107.708-48.317 107.708-107.708.001-28.976-11.596-52.432-33.535-67.832z" fill="#ff1f3d"/></g><g><path d="m387.4 511.656c-59.391 0-107.708-48.317-107.708-107.708 0-28.976 11.597-52.432 33.535-67.832 18.524-13.004 44.173-19.877 74.173-19.877s55.648 6.873 74.173 19.877c21.939 15.4 33.536 38.856 33.536 67.832 0 59.39-48.318 107.708-107.709 107.708z" fill="#ff405c"/><path d="m461.573 336.116c-18.524-13.004-44.173-19.877-74.172-19.877v195.417c59.39 0 107.708-48.318 107.708-107.708 0-28.976-11.597-52.432-33.536-67.832z" fill="#ff1f3d"/></g></g></g><g><path d="m266.516 129.631c-29.084 0-52.645-7.571-54.239-8.096-7.245-2.383-11.549-9.823-10.001-17.292.541-2.612 13.813-64.281 62.549-90.755 48.32-26.247 110.568-6.257 113.195-5.393 7.245 2.383 11.549 9.823 10.002 17.292-.541 2.612-13.813 64.281-62.549 90.756-18.986 10.314-40.131 13.488-58.957 13.488z" fill="#008932"/><path d="m202.751 112.05c1.463 4.354 4.886 7.959 9.526 9.485 1.594.524 25.155 8.096 54.239 8.096 18.826 0 39.971-3.175 58.957-13.488 48.736-26.474 62.008-88.143 62.549-90.756.733-3.539.14-7.064-1.445-10.056z" fill="#006522"/></g></g></svg>