<svg id="Capa_1" enable-background="new 0 0 512 512" height="512" viewBox="0 0 512 512" width="512" xmlns="http://www.w3.org/2000/svg"><g><path d="m353.17 130.523-322.68 350.987 30.49 30.49 322.68-322.68z" fill="#c47e4e"/><path d="m322.68 128.34-322.68 322.68 30.49 30.49 336.834-336.834z" fill="#dbad5c"/><path d="m383.66 189.32 21.231-21.23-30.491-58.797-21.23 49.537z" fill="#895140"/><path d="m388.554 123.446-44.644-16.337-21.23 21.231 30.49 30.49z" fill="#c47e4e"/><path d="m512 141.709-70.855-70.854-47.526 19.219-19.219 47.526 70.855 70.854z" fill="#04303e"/><path d="m416.895 46.605-98.455-46.605-40.82 40.819 96.78 96.781 66.745-66.745z" fill="#09607d"/><path d="m194.732 133.527 23.606-54.208-79.32-79.319-68.744 24.371 51.121 51.121-22.951 22.952 143.402 171.709 239.552 211.245 30.602-30.602z" fill="#b4d2d7"/><path d="m75.492 121.395-51.121-51.121-24.371 68.744 79.319 79.32 54.209-23.606 317.268 317.268 30.602-30.602-382.954-382.954z" fill="#e1ebf0"/></g></svg>