<svg height="512" viewBox="0 0 128 128" width="512" xmlns="http://www.w3.org/2000/svg"><g><path d="m43.414 22.6-32.114 24.073a3 3 0 0 0 1.8 5.4h102.1a2 2 0 0 0 .7-3.873l-69.638-26.008a3 3 0 0 0 -2.848.408z" fill="#f29a36"/><path d="m111.63 106h-95.969a6.411 6.411 0 0 1 -6.171-8.155l.854-3.027a4.12 4.12 0 0 1 3.966-3h98.671a4.12 4.12 0 0 1 3.966 3l.854 3.027a6.411 6.411 0 0 1 -6.171 8.155z" fill="#f29a36"/><path d="m111 96.576h-94.707a7.5 7.5 0 0 1 -7.5-7.5 7.5 7.5 0 0 1 7.5-7.5h94.707a7.5 7.5 0 0 1 7.5 7.5 7.5 7.5 0 0 1 -7.5 7.5z" fill="#ffd291"/><path d="m12.023 76.626c-11.388 12.01 1.108 15.674 9.385 7.965 6.792 5.326 19.136 6.5 28.636 0 5.6 6.356 23.227 5.591 28.5 0 9.01 5.227 19.091 6.137 29.455 0 15.454 9.046 15.091-.59 7.2-7.772z" fill="#7bcc29"/><path d="m109.226 76.665h-90.273a3.5 3.5 0 0 1 -3.5-3.5 3.5 3.5 0 0 1 3.5-3.5l-.136-2.865h90.545l-.136 2.865a3.5 3.5 0 0 1 3.5 3.5 3.5 3.5 0 0 1 -3.5 3.5z" fill="#e7812e"/><rect fill="#ffd291" height="15" rx="7.5" width="109.706" x="10.838" y="54.664"/><path d="m12.023 51.881c-11.388 12.009 1.108 15.674 9.385 7.965 6.792 5.325 19.136 6.5 28.636 0 5.6 6.356 23.227 5.591 28.5 0 9.01 5.227 19.091 6.136 29.455 0 15.454 9.045 15.091-.591 7.2-7.773z" fill="#7bcc29"/></g></svg>