<svg id="Capa_1" enable-background="new 0 0 512 512" height="512" viewBox="0 0 512 512" width="512" xmlns="http://www.w3.org/2000/svg"><g><path d="m165.667 73-42.333 24.667-42.334-24.667v-68c0-2.761 2.239-5 5-5h74.667c2.761 0 5 2.239 5 5z" fill="#8dc5e8"/><path d="m431 73-43.25 24.667-41.417-24.667v-68c0-2.761 2.239-5 5-5h74.667c2.761 0 5 2.239 5 5z" fill="#5e9ff6"/><path d="m0 183.08v318.92c0 5.52 4.48 10 10 10h281.5l-35.5-375.67z" fill="#fff5f5"/><path d="m512 183.08v318.92c0 5.52-4.48 10-10 10h-246v-375.67z" fill="#e1ebf0"/><path d="m256 73 35.5 55.04-35.5 55.04h-256v-100.08c0-5.52 4.48-10 10-10z" fill="#0b799d"/><path d="m512 83v100.08h-256v-110.08h246c5.52 0 10 4.48 10 10z" fill="#07485e"/><path d="m186.25 306.7c-8.284 0-15 6.716-15 15v112.3c0 8.284 6.716 15 15 15s15-6.716 15-15v-112.3c0-8.284-6.716-15-15-15z" fill="#8dc5e8"/><path d="m256 260.21c-32.882-14.209-48.04-20.855-56.974-24.634-13.181-5.575-27.776 4.115-27.776 18.426v136.831c26.846-12.895 9.791-5.239 84.75-37.643l32.884-42.69z" fill="#0b799d"/><path d="m331.7 292.93-75.7-32.72v92.98l75.7-32.72c11.847-5.185 12.048-21.919.329-27.387z" fill="#07485e"/></g></svg>