<svg id="Capa_1" enable-background="new 0 0 497.002 497.002" height="512" viewBox="0 0 497.002 497.002" width="512" xmlns="http://www.w3.org/2000/svg"><g id="_x3C_Group_x3E__14_"><path d="m437.41 71.492-11.84-11.839c-7.81-7.809-20.474-7.809-28.284 0l-10.936 10.934v26.453l40.125 13.666 10.936-10.934c7.809-7.809 7.809-20.471-.001-28.28z" fill="#ab7b64"/><path d="m437.41 99.771-10.94 10.94-14-4.774v-9.226l10.94-10.94c7.45-7.45 7.79-19.3 1.03-27.15.39.32.77.67 1.13 1.03l11.84 11.84c7.81 7.81 7.81 20.47 0 28.28z" fill="#9a6a53"/><path d="m296.209 240.953-6.326-32.048-33.799-8.071s-8.936 22.042-25.946 39.05c-8.258 8.257-19.656 6.545-30.489 17.377-53.085 53.077-131.459 131.441-179.97 179.944-5.565 5.564-5.281 14.868.634 20.782l18.706 18.703c5.915 5.914 15.22 6.198 20.785.634l179.978-179.952 19.974-33.829z" fill="#ab7b64"/><path d="m296.21 240.951-38.157 27.188-18.273 29.232-179.98 179.95c-5.56 5.57-14.87 5.28-20.78-.63l-18.71-18.7c-1.16-1.16-2.1-2.46-2.83-3.83l7.54 7.53c5.91 5.91 15.22 6.2 20.78.63l235.91-235.87z" fill="#9a6a53"/><path d="m296.21 240.951-56.43 56.42-40.13-40.11c33.14-33.15 56.43-56.43 56.43-56.43l27.934 13.33z" fill="#f3d69e"/><path d="m220.847 251.658h79.797v20.506h-79.797z" fill="#efcb83" transform="matrix(.707 -.707 .707 .707 -108.829 261.054)"/><path d="m405.183 311.191-41.815-7.504c-4.073-.731-7.824-2.691-10.75-5.616l-153.66-153.638c-2.926-2.925-4.886-6.676-5.617-10.748l-7.505-41.809c-.879-4.897.695-9.913 4.213-13.431l74.002-73.992c3.536-3.535 8.584-5.105 13.501-4.2l40.4 7.441c4.038.744 7.755 2.697 10.659 5.6l154.529 154.506c2.854 2.853 4.79 6.493 5.562 10.454l8.018 41.152c.967 4.961-.597 10.078-4.171 13.652l-73.932 73.921c-3.519 3.518-8.536 5.091-13.434 4.212z" fill="#dce6eb"/><path d="m492.55 233.061-73.93 73.92c-3.52 3.52-8.54 5.09-13.44 4.21l-41.81-7.5c-4.07-.73-7.83-2.69-10.75-5.62l-20-20c2.92 2.93 6.68 4.89 10.75 5.62l41.81 7.5c4.9.88 9.92-.69 13.44-4.21l73.93-73.92c3.57-3.58 5.14-8.69 4.17-13.66l-8.02-41.15c-.76-3.93-2.68-7.54-5.49-10.38l19.93 19.93c2.85 2.85 4.79 6.49 5.56 10.45l8.02 41.15c.97 4.97-.6 10.08-4.17 13.66z" fill="#c8d2dc"/><path d="m54.831 492.608-50.438-50.431c-5.858-5.857-5.858-15.353 0-21.21l7.447-7.446c5.858-5.857 15.355-5.857 21.213 0l50.438 50.431c5.858 5.857 5.858 15.353 0 21.21l-7.447 7.446c-5.857 5.857-15.355 5.857-21.213 0z" fill="#dce6eb"/><path d="m83.49 485.161-7.45 7.45c-5.85 5.85-15.35 5.85-21.21 0l-20-20c5.86 5.85 15.36 5.85 21.21 0l7.45-7.45c5.84-5.84 5.86-15.28.07-21.14l19.93 19.93c5.86 5.86 5.86 15.35 0 21.21z" fill="#c8d2dc"/></g></svg>