<?xml version="1.0" encoding="iso-8859-1"?>
<!-- Generator: Adobe Illustrator 19.0.0, SVG Export Plug-In . SVG Version: 6.00 Build 0)  -->
<svg version="1.1" id="Capa_1" xmlns="http://www.w3.org/2000/svg" xmlns:xlink="http://www.w3.org/1999/xlink" x="0px" y="0px"
	 viewBox="0 0 512 512" style="enable-background:new 0 0 512 512;" xml:space="preserve">
<polygon style="fill:#BEEBFA;" points="271,482 271,203 241,203 241,482 133.477,482 133.477,512 378.523,512 378.523,482 "/>
<path style="fill:#FF7C48;" d="M220.287,125.984L256,276.228l0,0c60.875,0,112.343-45.075,120.37-105.418l3.3-24.81L220.287,125.984
	z"/>
<path style="fill:#FFB655;" d="M132.33,146l3.3,24.81c8.027,60.344,59.495,105.418,120.37,105.418l0,0V125.984L132.33,146z"/>
<path style="fill:#BEEBFA;" d="M386.737,92.875h23.63c34.891,0,63.175-28.284,63.175-63.175V0H256l-20.016,110.164L240.303,146
	H379.67L386.737,92.875z"/>
<path style="fill:#E1F4FA;" d="M256,0H38.458v29.7c0,34.891,28.284,63.175,63.175,63.175h23.63L132.33,146H256V0z"/>
<g>
</g>
<g>
</g>
<g>
</g>
<g>
</g>
<g>
</g>
<g>
</g>
<g>
</g>
<g>
</g>
<g>
</g>
<g>
</g>
<g>
</g>
<g>
</g>
<g>
</g>
<g>
</g>
<g>
</g>
</svg>
