<svg id="Flat" height="512" viewBox="0 0 512 512" width="512" xmlns="http://www.w3.org/2000/svg"><path d="m152 24h64v32h-64z" fill="#eb423f"/><path d="m160 56-11.376 153.14a72.045 72.045 0 0 0 -36.624 62.86v216h144v-216a72.045 72.045 0 0 0 -36.624-62.859l-11.376-153.141z" fill="#2e9163"/><path d="m256 272v216h-144v-216a72.056 72.056 0 0 1 36.62-62.86l4.84-65.14h61.08l4.84 65.14a72.056 72.056 0 0 1 36.62 62.86z" fill="#3dc285"/><path d="m384 488h-64l-16-112h96z" fill="#dcdee0"/><path d="m388.57 456-4.57 32h-64l-4.57-32z" fill="#c3c6c7"/><path d="m112 288h144v128h-144z" fill="#dcdee0"/></svg>