<?xml version="1.0" encoding="iso-8859-1"?>
<!-- Generator: Adobe Illustrator 19.0.0, SVG Export Plug-In . SVG Version: 6.00 Build 0)  -->
<svg version="1.1" id="Capa_1" xmlns="http://www.w3.org/2000/svg" xmlns:xlink="http://www.w3.org/1999/xlink" x="0px" y="0px"
	 viewBox="0 0 512 512" style="enable-background:new 0 0 512 512;" xml:space="preserve">
<path style="fill:#FD9727;" d="M347.577,511.552l-86.263-36.019c-3.4-1.42-7.228-1.42-10.628,0l-86.263,36.019
	c-3.776,1.576-7.939-1.197-7.939-5.289V333.252h199.032v173.011C355.516,510.354,351.352,513.128,347.577,511.552z"/>
<path style="fill:#F9662B;" d="M299.301,333.252v158.143l48.275,20.157c3.776,1.576,7.939-1.197,7.939-5.289V333.252H299.301z"/>
<path style="fill:#FC502A;" d="M275.636,8.319L275.636,8.319c8.219,8.486,20.959,10.733,31.585,5.569l0,0
	c13.887-6.749,30.604-0.664,36.904,13.432l0,0c4.82,10.785,16.024,17.254,27.775,16.036l0,0
	c15.358-1.592,28.986,9.843,30.085,25.244l0,0c0.841,11.784,9.157,21.694,20.615,24.568l0,0
	c14.976,3.757,23.871,19.163,19.636,34.011l0,0c-3.24,11.361,1.185,23.517,10.969,30.138l0,0
	c12.788,8.652,15.877,26.172,6.82,38.676l0,0c-6.93,9.567-6.93,22.504,0,32.072l0,0c9.058,12.504,5.969,30.024-6.82,38.676l0,0
	c-9.785,6.62-14.209,18.777-10.969,30.138l0,0c4.235,14.848-4.66,30.255-19.636,34.011l0,0
	c-11.459,2.874-19.774,12.785-20.615,24.568l0,0c-1.099,15.401-14.727,26.836-30.085,25.244l0,0
	c-11.751-1.218-22.954,5.25-27.775,16.036l0,0c-6.3,14.096-23.017,20.181-36.904,13.432l0,0
	c-10.626-5.164-23.366-2.917-31.585,5.569l0,0c-10.742,11.091-28.531,11.091-39.273,0l0,0c-8.219-8.486-20.959-10.733-31.584-5.569
	l0,0c-13.887,6.749-30.604,0.664-36.904-13.432l0,0c-4.82-10.785-16.024-17.254-27.775-16.036l0,0
	c-15.358,1.592-28.986-9.843-30.085-25.244l0,0c-0.841-11.784-9.157-21.694-20.615-24.568l0,0
	c-14.976-3.757-23.871-19.163-19.636-34.011l0,0c3.24-11.361-1.185-23.517-10.969-30.138l0,0
	c-12.788-8.652-15.877-26.172-6.82-38.676l0,0c6.93-9.567,6.93-22.504,0-32.072l0,0c-9.058-12.504-5.969-30.024,6.82-38.676l0,0
	c9.785-6.62,14.209-18.777,10.969-30.138l0,0c-4.235-14.848,4.66-30.255,19.636-34.011l0,0
	c11.459-2.874,19.774-12.785,20.615-24.568l0,0c1.099-15.401,14.727-26.836,30.085-25.244l0,0
	c11.751,1.218,22.954-5.25,27.775-16.036l0,0c6.3-14.096,23.017-20.181,36.904-13.432l0,0c10.625,5.164,23.366,2.917,31.584-5.569
	l0,0C247.105-2.773,264.895-2.773,275.636,8.319z"/>
<path style="fill:#E60D28;" d="M460.026,228.065c-6.93-9.567-6.93-22.504,0-32.072l0,0c9.058-12.504,5.969-30.024-6.82-38.676l0,0
	c-9.785-6.62-14.209-18.777-10.969-30.138l0,0c4.235-14.848-4.66-30.255-19.636-34.011l0,0
	c-11.459-2.874-19.774-12.785-20.615-24.568l0,0c-1.099-15.401-14.727-26.836-30.085-25.244
	c-11.751,1.218-22.954-5.25-27.775-16.036l0,0c-6.3-14.096-23.017-20.181-36.904-13.432l0,0
	c-10.626,5.164-23.366,2.917-31.585-5.569c-10.742-11.092-28.531-11.092-39.273,0c-2.473,2.553-5.36,4.53-8.471,5.922
	c7.228,3.234,15.685,3.257,23.114-0.353l0,0c13.887-6.749,30.604-0.664,36.904,13.432c4.82,10.786,16.024,17.254,27.775,16.036l0,0
	c15.358-1.592,28.986,9.843,30.085,25.244l0,0c0.841,11.784,9.157,21.694,20.615,24.568l0,0
	c14.976,3.757,23.871,19.163,19.636,34.011l0,0c-3.24,11.361,1.185,23.517,10.969,30.138c12.788,8.652,15.877,26.172,6.82,38.676
	c-6.93,9.567-6.93,22.504,0,32.072l0,0c9.058,12.504,5.969,30.024-6.82,38.676l0,0c-9.785,6.62-14.209,18.777-10.969,30.138
	c4.235,14.848-4.66,30.255-19.636,34.011c-11.459,2.874-19.774,12.785-20.615,24.568l0,0c-1.099,15.401-14.727,26.836-30.085,25.244
	l0,0c-11.751-1.218-22.954,5.25-27.775,16.036l0,0c-6.3,14.096-23.017,20.181-36.904,13.432l0,0
	c-7.428-3.61-15.886-3.587-23.114-0.353c3.111,1.392,5.998,3.369,8.471,5.922l0,0c10.742,11.092,28.531,11.092,39.273,0l0,0
	c8.219-8.486,20.959-10.733,31.585-5.569l0,0c13.887,6.749,30.604,0.664,36.904-13.432l0,0c4.82-10.786,16.024-17.254,27.775-16.036
	c15.358,1.592,28.986-9.843,30.085-25.244c0.841-11.784,9.157-21.694,20.615-24.568l0,0c14.976-3.757,23.871-19.163,19.636-34.011
	c-3.24-11.361,1.185-23.517,10.969-30.138l0,0C465.995,258.089,469.084,240.57,460.026,228.065L460.026,228.065z"/>
<circle style="fill:#FED130;" cx="256" cy="212.03" r="156.72"/>
<path style="fill:#FCA629;" d="M256,55.313c-9.769,0-19.326,0.902-28.6,2.612c72.894,13.443,128.116,77.321,128.116,154.104
	S300.294,352.69,227.4,366.134c9.274,1.71,18.831,2.612,28.6,2.612c86.552,0,156.716-70.164,156.716-156.716
	S342.552,55.313,256,55.313z"/>
<g>
	<path style="fill:#FFFFFF;" d="M272.128,225.704v33.065c0,20.107,12.958,27.48,30.16,27.48c16.979,0,30.16-7.373,30.16-27.48
		v-33.065c0-20.107-13.181-27.479-30.16-27.479C285.086,198.224,272.128,205.597,272.128,225.704z M316.363,225.704v33.065
		c0,9.16-5.362,13.181-14.075,13.181s-13.851-4.021-13.851-13.181v-33.065c0-9.159,5.138-13.181,13.851-13.181
		C311.001,212.523,316.363,216.544,316.363,225.704z"/>
	<path style="fill:#FFFFFF;" d="M293.575,113.552c-2.681,0-5.362,1.117-6.702,4.022L204.881,281.78
		c-0.67,1.117-0.894,2.234-0.894,3.351c0,4.022,3.575,8.267,8.713,8.267c3.128,0,6.256-1.564,7.596-4.245l81.991-163.536
		c0.447-1.117,0.67-2.234,0.67-3.575C302.958,116.903,298.043,113.552,293.575,113.552z"/>
	<path style="fill:#FFFFFF;" d="M203.54,122.265c-17.202,0-30.16,7.373-30.16,27.48v33.064c0,20.107,12.958,27.48,30.16,27.48
		c16.979,0,30.16-7.373,30.16-27.48v-33.064C233.701,129.637,220.52,122.265,203.54,122.265z M217.615,182.809
		c0,9.16-5.362,13.181-14.075,13.181s-13.851-4.022-13.851-13.181v-33.064c0-9.16,5.138-13.181,13.851-13.181
		s14.075,4.021,14.075,13.181V182.809z"/>
</g>
<g>
</g>
<g>
</g>
<g>
</g>
<g>
</g>
<g>
</g>
<g>
</g>
<g>
</g>
<g>
</g>
<g>
</g>
<g>
</g>
<g>
</g>
<g>
</g>
<g>
</g>
<g>
</g>
<g>
</g>
</svg>
