<svg id="Capa_1" enable-background="new 0 0 512 512" height="512" viewBox="0 0 512 512" width="512" xmlns="http://www.w3.org/2000/svg"><g><circle cx="396" cy="85" fill="#fff79f" r="85"/><path d="m396 0v170c46.869 0 85-38.131 85-85s-38.131-85-85-85z" fill="#ffde55"/><circle cx="396" cy="85" fill="#ffde55" r="55"/><path d="m396 30v110c30.327 0 55-24.673 55-55s-24.673-55-55-55z" fill="#eebf00"/><circle cx="116" cy="85" fill="#fff79f" r="85"/><path d="m116 0v170c46.869 0 85-38.131 85-85s-38.131-85-85-85z" fill="#ffde55"/><circle cx="116" cy="85" fill="#ffde55" r="55"/><path d="m116 30v110c30.327 0 55-24.673 55-55s-24.673-55-55-55z" fill="#eebf00"/><path d="m39.787 260h432.427l-171.214 171.198v41.787c0 6.134-3.734 11.649-9.429 13.927l-60 24c-9.853 3.941-20.571-3.315-20.571-13.927v-65.787z" fill="#ff6426"/><path d="m256 501.141 35.571-14.228c5.695-2.278 9.429-7.794 9.429-13.927v-41.787l171.213-171.199h-216.213z" fill="#ff2828"/><g><circle cx="256" cy="115" fill="#fff79f" r="115"/><path d="m371 115c0-63.411-51.589-115-115-115v230c63.411 0 115-51.589 115-115z" fill="#ffde55"/><circle cx="256" cy="115" fill="#ffde55" r="85"/><path d="m341 115c0-46.869-38.131-85-85-85v170c46.869 0 85-38.131 85-85z" fill="#eebf00"/><path d="m268.157 107.392c-1.726-.61-3.488-1.246-5.249-1.907v-29.87c3.904 1.065 5.893 3.033 6.033 3.175 2.724 3.095 7.44 3.408 10.554.698 3.123-2.721 3.45-7.458.729-10.581-2.838-3.259-8.814-7.367-17.316-8.605v-5.302c0-4.143-3.358-7.5-7.5-7.5s-7.5 3.357-7.5 7.5v6.172c-.777.191-1.562.398-2.361.638-9.775 2.945-17.078 11.301-19.058 21.808-1.811 9.608 1.287 18.89 8.085 24.221 3.416 2.679 7.628 5.134 13.334 7.707v38.089c-4.649-.461-7.83-1.764-13.063-5.188-3.467-2.27-8.115-1.297-10.382 2.171-2.268 3.467-1.295 8.114 2.171 10.382 8.308 5.434 14.073 7.184 21.274 7.684v6.316c0 4.143 3.358 7.5 7.5 7.5s7.5-3.357 7.5-7.5v-6.993c14.257-3.241 23.411-15.251 25.402-27.097 2.544-15.135-5.366-28.292-20.153-33.518zm-24.326-11.356c-2.338-1.834-3.359-5.618-2.601-9.641.637-3.382 2.72-7.385 6.678-9.424v21.772c-1.51-.875-2.89-1.776-4.077-2.707zm29.687 42.388c-.912 5.428-4.519 11.165-10.609 13.86v-30.839c.085.03.164.059.249.089 11.56 4.086 10.852 13.961 10.36 16.89z" fill="#fff79f"/><path d="m268.157 107.392c-1.726-.61-3.488-1.246-5.249-1.907v-29.87c3.904 1.065 5.893 3.033 6.033 3.175 2.724 3.095 7.44 3.408 10.554.698 3.123-2.721 3.45-7.458.729-10.581-2.838-3.259-8.814-7.367-17.316-8.605v-5.302c0-3.943-3.044-7.168-6.908-7.47v134.94c3.865-.303 6.908-3.527 6.908-7.47v-6.993c14.257-3.241 23.411-15.251 25.402-27.097 2.544-15.135-5.366-28.292-20.153-33.518zm5.361 31.032c-.912 5.428-4.519 11.165-10.609 13.86v-30.839c.085.03.164.059.249.089 11.56 4.086 10.852 13.961 10.36 16.89z" fill="#ffde55"/><g><path d="m446 290h-380c-19.33 0-35-15.67-35-35 0-19.33 15.67-35 35-35h380c19.33 0 35 15.67 35 35 0 19.33-15.67 35-35 35z" fill="#ff9100"/></g><path d="m446 220h-190v70h190c19.33 0 35-15.67 35-35 0-19.33-15.67-35-35-35z" fill="#ff6426"/></g></g></svg>