<svg id="Capa_1" enable-background="new 0 0 483.254 483.254" height="512" viewBox="0 0 483.254 483.254" width="512" xmlns="http://www.w3.org/2000/svg"><g><g id="icon_38_"><g fill="#2cbfae"><path d="m225.25 120c-30.457-21.434-35.879-95.113 73.584-120 0 0-9.6 19.548-2.505 70.013 6.99 49.746-51.767 64.839-71.079 49.987z"/><path d="m274.365 188.304c-13.767-27.145 10.567-82.395 99.103-58.391 0 0-16.884 9.618-28.648 49.563-11.763 39.945-68.864 26.001-70.455 8.828z"/><path d="m198.187 155.702c15.818-24.44-1.768-79.431-88.4-65.475 0 0 15.099 10.838 22.283 50.017s62.882 31.63 66.117 15.458z"/></g><path d="m307.527 176.8c-1.198-2.087-3.855-2.818-5.952-1.638-35.331 20.462-52.58 44.023-62.67 73.16h-.041c-2.416-64.956 6.989-145.96 17.768-163.21 1.382-2.239.686-5.175-1.553-6.556-2.239-1.382-5.175-.686-6.556 1.553-9.488 15.27-16.908 66.336-18.894 118.698-10.526-21.481-26.997-39.851-55.12-56.158-2.064-1.217-4.723-.53-5.939 1.534-.004.007-.009.015-.013.022-1.168 2.078-.484 4.708 1.55 5.952 7.953 4.503 15.512 9.67 22.595 15.446 22.786 19.677 36.196 48.066 36.922 78.163.348 8.056.866 15.912 1.438 23.349v15.611h12.146v-.401c-.134-10.929 1.563-21.803 5.021-32.172 9.429-27.068 24.782-48.325 57.755-67.426 2.048-1.219 2.736-3.861 1.543-5.927z" fill="#16a897"/><path d="m131.604 270.133h220.016c5.683 0 10.29 4.607 10.29 10.29v21.405c0 5.683-4.607 10.29-10.29 10.29h-220.016c-5.683 0-10.29-4.607-10.29-10.29v-21.405c.001-5.683 4.607-10.29 10.29-10.29z" fill="#f6b863"/><path d="m347.106 301.003-.719 11.115-.925 12.865-20.161 148.701c-.398 5.4-4.899 9.576-10.313 9.571h-146.745c-5.406-.007-9.892-4.18-10.29-9.571l-20.173-148.701-.925-12.865-.731-11.115z" fill="#f6b863"/><path d="m346.376 312.118-.926 12.865h-207.669l-.926-12.865z" fill="#eaa14e"/></g></g></svg>