<?xml version="1.0" encoding="iso-8859-1"?>
<!-- Generator: Adobe Illustrator 19.0.0, SVG Export Plug-In . SVG Version: 6.00 Build 0)  -->
<svg version="1.1" id="Capa_1" xmlns="http://www.w3.org/2000/svg" xmlns:xlink="http://www.w3.org/1999/xlink" x="0px" y="0px"
	 viewBox="0 0 512 512" style="enable-background:new 0 0 512 512;" xml:space="preserve">
<path style="fill:#607D8B;" d="M74.667,53.333h362.667C478.571,53.333,512,86.763,512,128v256c0,41.237-33.429,74.667-74.667,74.667
	H74.667C33.429,458.667,0,425.237,0,384V128C0,86.763,33.429,53.333,74.667,53.333z"/>
<path style="fill:#455A64;" d="M501.333,181.333H416c-41.237,0-74.667,33.429-74.667,74.667s33.429,74.667,74.667,74.667h85.333
	c5.891,0,10.667-4.776,10.667-10.667V192C512,186.109,507.224,181.333,501.333,181.333z"/>
<circle style="fill:#90A4AE;" cx="416" cy="256" r="32"/>
<g>
</g>
<g>
</g>
<g>
</g>
<g>
</g>
<g>
</g>
<g>
</g>
<g>
</g>
<g>
</g>
<g>
</g>
<g>
</g>
<g>
</g>
<g>
</g>
<g>
</g>
<g>
</g>
<g>
</g>
</svg>
