<svg id="Capa_1" enable-background="new 0 0 512 512" height="512" viewBox="0 0 512 512" width="512" xmlns="http://www.w3.org/2000/svg"><g><path d="m456 315.317c-19.33 0-35-15.67-35-35v-145h-120v-70h135c30.376 0 55 24.624 55 55v160c0 19.33-15.67 35-35 35z" fill="#96c8ef"/><path d="m81 135.317v-67.817l-54-40.5c-5.165-3.874-7.272-10.618-5.23-16.743 2.042-6.126 7.774-10.257 14.23-10.257h85c19.346 0 38.523 6.393 54 18 10.318 7.738 23.103 12 36 12h105c8.284 0 15 6.716 15 15v90.317l-125 32.683z" fill="#e1ebf0"/><path d="m316 30h-105c-1.67 0-3.339-.075-5-.216v138.216l125-32.683v-90.317c0-8.284-6.715-15-15-15z" fill="#b3d8f4"/><path d="m331 135.317 45.382 199.681c3.064 13.482 4.618 27.33 4.618 41.157v.135c0 24.512-4.756 48.422-14.136 71.068s-22.925 42.917-40.257 60.249c-2.813 2.812-6.629 4.393-10.607 4.393h-220c-3.978 0-7.793-1.581-10.606-4.394-17.333-17.332-30.877-37.603-40.257-60.249-9.381-22.645-14.137-46.556-14.137-71.067v-.135c0-13.828 1.554-27.675 4.618-41.158l45.382-199.68z" fill="#fff04a"/><path d="m366.864 447.357c9.381-22.645 14.136-46.556 14.136-71.067v-.135c0-13.828-1.554-27.675-4.618-41.157l-45.382-199.681h-125v376.683h110c3.978 0 7.793-1.581 10.606-4.394 17.333-17.332 30.878-37.603 40.258-60.249z" fill="#ffcd00"/><g fill="#6e6e84"><path d="m186 452h-50c-8.284 0-15-6.716-15-15s6.716-15 15-15h50c8.284 0 15 6.716 15 15s-6.715 15-15 15z"/><path d="m166 392h-30c-8.284 0-15-6.716-15-15s6.716-15 15-15h30c8.284 0 15 6.716 15 15s-6.715 15-15 15z"/><path d="m186 332h-50c-8.284 0-15-6.716-15-15s6.716-15 15-15h50c8.284 0 15 6.716 15 15s-6.715 15-15 15z"/><path d="m166 272h-30c-8.284 0-15-6.716-15-15s6.716-15 15-15h30c8.284 0 15 6.716 15 15s-6.715 15-15 15z"/><path d="m186 212h-50c-8.284 0-15-6.716-15-15s6.716-15 15-15h50c8.284 0 15 6.716 15 15s-6.715 15-15 15z"/></g></g></svg>