<svg height="512pt" viewBox="-121 0 512 512" width="512pt" xmlns="http://www.w3.org/2000/svg"><path d="m86.664062 428.503906h96.574219v83.496094h-96.574219zm0 0" fill="#b77445"/><path d="m134.890625 428.503906h48.347656v83.496094h-48.347656zm0 0" fill="#a04010"/><path d="m269.902344 448.292969h-269.902344l40.953125-70.367188h-34.265625l49.65625-85.328125h-32.371094l44.042969-75.648437h-27.121094l38.277344-65.761719h-32.210937l87.929687-151.085938.058594-.101562 87.992187 151.1875h-32.210937l38.277343 65.761719h-27.117187l44.039063 75.648437h-32.371094l49.65625 85.328125h-34.265625zm0 0" fill="#c8fb78"/><path d="m269.902344 448.292969h-135.011719v-448.191407l.058594-.101562 87.992187 151.1875h-32.210937l38.277343 65.761719h-27.117187l44.039063 75.648437h-32.371094l49.65625 85.328125h-34.265625zm0 0" fill="#9ce78d"/></svg>