<svg id="Layer_1" enable-background="new 0 0 48 48" height="512" viewBox="0 0 48 48" width="512" xmlns="http://www.w3.org/2000/svg"><path d="m39 8h-30c-.552 0-1 .447-1 1s.448 1 1 1h1v3.698c0 .201.012.402.036.601l3.857 31.819c.061.504.488.882.995.882h18.225c.507 0 .933-.378.994-.881l3.857-31.819c.024-.2.036-.401.036-.602v-3.698h1c.552 0 1-.447 1-1s-.448-1-1-1z" fill="#d4f2f9"/><path d="m10.364 17 3.53 29.119c.06.503.487.881.994.881h18.225c.507 0 .933-.378.994-.881l3.529-29.119z" fill="#e19214"/><path d="m13.46 42.541 23.988-23.989.188-1.552h-27.272z" fill="#e3b807"/><path d="m33.98 1.201c.111-.541-.237-1.07-.778-1.181-.541-.114-1.069.237-1.181.778l-8 39c-.111.541.237 1.07.778 1.181.541.114 1.069-.237 1.181-.778z" fill="#ccc"/><path d="m30.543 8-6.523 31.799c-.111.541.237 1.07.778 1.181.541.114 1.069-.237 1.181-.778l6.606-32.202z" fill="#efefef"/><path d="m33 18.004v3.993c0 .554-.449 1.003-1.004 1.003h-3.993c-.554 0-1.003-.449-1.003-1.004v-3.993c0-.554.449-1.003 1.004-1.003h3.993c.554 0 1.003.449 1.003 1.004zm-18.159 2.219 1.528 3.689c.212.512.799.755 1.311.543l3.689-1.528c.512-.212.755-.799.543-1.311l-1.528-3.689c-.212-.512-.799-.755-1.311-.543l-3.689 1.528c-.512.212-.755.799-.543 1.311zm8.949 6.987-3.08 3.08c-.392.392-.392 1.027 0 1.419l3.081 3.081c.392.392 1.027.392 1.419 0l3.081-3.081c.392-.392.392-1.027 0-1.419l-3.081-3.08c-.392-.392-1.028-.392-1.42 0z" fill="#f2d6ad"/></svg>