<svg height="512" viewBox="0 0 128 128" width="512" xmlns="http://www.w3.org/2000/svg"><g><g><g><path d="m39.357 16.944 1.335 4.34-17.22 5.5-1.411-4.44a9.059 9.059 0 0 1 5.949-11.4 9.06 9.06 0 0 1 11.347 6z" fill="#add3d8"/><path d="m50.97 73.25-5.75 1.84-15.119-47.46 5.74-1.83z" fill="#e17f29"/><path d="m42.14 25.8-5.74 1.84-5.74 1.83-5.74 1.83-1.72-5.38 17.22-5.5z" fill="#5a7983"/><path d="m32.058 29.251h6.025v47.887h-6.025z" fill="#fcaf29" transform="matrix(.953 -.304 .304 .953 -14.514 13.181)"/><path d="m56.71 71.42-5.74 1.83-14.57-45.61 5.74-1.84z" fill="#fcaf29"/><path d="m39.483 76.92 14.863 16.83 2.361-22.329z" fill="#ffd18b"/></g><g><path d="m107.63 12.83-11.78 51.14-17.51-4.03 1.4-6.06.78-3.41 1.27-5.49.78-3.41h.01l1.26-5.5.79-3.41 1.26-5.49.79-3.41 1.27-5.5.78-3.41 1.4-6.06z" fill="#add3d8"/><g fill="#81a1b1"><path d="m98.8 18.97a1.76 1.76 0 0 1 -1.71 1.36 1.737 1.737 0 0 1 -.39-.05l-8.75-2.02.78-3.41 8.76 2.02a1.759 1.759 0 0 1 1.31 2.1z"/><path d="m96.74 27.87a1.74 1.74 0 0 1 -1.7 1.36 1.722 1.722 0 0 1 -.39-.04l-8.76-2.02.79-3.41 8.75 2.01a1.752 1.752 0 0 1 1.31 2.1z"/><path d="m94.69 36.78a1.731 1.731 0 0 1 -1.7 1.35 1.871 1.871 0 0 1 -.4-.04l-8.75-2.02.79-3.41 8.75 2.02a1.752 1.752 0 0 1 1.31 2.1z"/><path d="m92.64 45.68a1.757 1.757 0 0 1 -1.7 1.36 1.825 1.825 0 0 1 -.4-.05l-8.75-2.01.78-3.41h.01l8.75 2.01a1.752 1.752 0 0 1 1.31 2.1z"/><path d="m90.59 54.59a1.751 1.751 0 0 1 -1.71 1.35 1.722 1.722 0 0 1 -.39-.04l-8.75-2.02.78-3.41 8.76 2.02a1.75 1.75 0 0 1 1.31 2.1z"/></g></g><g><path d="m71.91 53.18c0 17.48-3.05 31.64-6.82 31.64s-6.82-14.16-6.82-31.64a132.28 132.28 0 0 1 .72-14.1 57.939 57.939 0 0 1 12.22.13 132.959 132.959 0 0 1 .7 13.97z" fill="#e17f29"/><path d="m71.21 39.21a57.939 57.939 0 0 0 -12.22-.13c1.11-10.39 3.43-17.53 6.1-17.53 2.69 0 5.01 7.2 6.12 17.66z" fill="#add3d8"/><path d="m70.784 18.853c0 6.379-2.549 8.978-5.693 8.978s-5.693-2.6-5.693-8.978 5.693-11.553 5.693-11.553 5.693 5.174 5.693 11.553z" fill="#ffd18b"/></g></g><g><path d="m79.451 120.7h-28.72c-3.644 0-6.877-2.772-8.016-6.875l-13.415-45.331h71.588l-13.421 45.328c-1.139 4.103-4.367 6.878-8.016 6.878z" fill="#2bb65e"/><path d="m29.297 58h71.587v10.494h-71.587z" fill="#6bda59"/></g></g></svg>