<svg id="Capa_1" enable-background="new 0 0 512 512" height="512" viewBox="0 0 512 512" width="512" xmlns="http://www.w3.org/2000/svg"><g><path d="m241 317c0 .08 0 .15.01.23-.02-.07-.02-.15-.02-.23h-37.02c-52.68-23.46-91.59-71.48-102.7-129.47-2.067-10.763 7.802-20.1 18.48-17.35 10.686 3.92 56.598 8.246 99.5 49.95 40.496 39.439 47.693 82.952 51.16 92.71.403 1.377.59 2.84.59 4.16z" fill="#24bf93"/><path d="m410.73 187.53c-11.051 57.649-49.713 105.872-102.69 129.47h-67.04c0-1.39.19-2.79.59-4.16 3.146-10.02 5.676-23.03 14.41-41.4 41.847-87.712 128.195-98.305 136.25-101.26 10.666-2.742 20.552 6.564 18.48 17.35z" fill="#00ac7f"/><path d="m270.91 317h-29.91c0 .08 0 .15.01.23-.111-.398-.06-132.945-.03-133.35 6.522 5.742 8.587 10.83 14.97 10.83 6.386 0 8.412-5.056 14.97-10.83.037.504.061 132.299-.01 133.12z" fill="#00ac7f"/><path d="m270.91 317h-14.96v-122.29c6.39 0 8.41-5.06 14.97-10.83.01.07.01 2.65.01 7.06.017 13.584.039 125.53-.02 126.06z" fill="#00997a"/><path d="m351.409 89.246-20.459-20.459v-28.934c0-8.284-6.716-15-15-15h-28.934l-20.46-20.459c-5.857-5.858-15.354-5.858-21.213 0l-20.459 20.459h-28.934c-8.284 0-15 6.716-15 15v28.935l-20.46 20.458c-5.855 5.854-5.857 15.357 0 21.213l20.459 20.459v28.935c0 8.284 6.716 15 15 15h28.934l20.459 20.459c5.859 5.859 15.355 5.858 21.213 0l20.459-20.459h28.934c8.284 0 15-6.716 15-15v-28.935l20.459-20.459c5.86-5.857 5.86-15.355.002-21.213z" fill="#f43760"/><path d="m351.41 110.46-20.46 20.46v28.93c0 8.29-6.72 15-15 15h-28.93l-20.46 20.46c-2.93 2.93-6.77 4.39-10.61 4.39v-199.7c3.84 0 7.68 1.46 10.61 4.39l20.46 20.46h28.93c8.28 0 15 6.72 15 15v28.94l20.46 20.46c5.86 5.85 5.86 15.35 0 21.21z" fill="#e50058"/><path d="m246.097 153.639c-5.626-5.626-13.256-8.786-21.213-8.786h-13.934v-13.935c0-7.957-3.161-15.587-8.787-21.214l-9.852-9.852 9.852-9.852c5.626-5.627 8.787-13.257 8.787-21.214v-13.933h13.934c7.957 0 15.587-3.16 21.213-8.786l9.853-9.854 9.853 9.854c5.626 5.626 13.256 8.786 21.213 8.786h13.934v13.935c0 7.956 3.161 15.587 8.787 21.213l9.853 9.853-9.853 9.853c-5.626 5.626-8.787 13.257-8.787 21.213v13.935h-13.934c-7.957 0-15.587 3.16-21.213 8.786l-9.853 9.854z" fill="#ff5f7e"/><path d="m319.59 99.85c-5.295 6.565-18.64 13.796-18.64 31.07v13.93c-8.222.88-22.921-3.439-35.15 8.79l-9.85 9.85v-127.28c6.399 5.162 13.758 18.64 31.07 18.64h13.93c.899 8.401-3.449 22.911 8.79 35.15z" fill="#f43760"/><path d="m151 376v71c0 35.898 29.101 65 65 65h80c35.898 0 65-29.102 65-65v-71c-3.905-3.905-6.095-6.095-10-10h-190c-3.905 3.905-6.095 6.095-10 10z" fill="#f4a56d"/><path d="m361 376v71c0 35.9-29.1 65-65 65h-40.05v-146h95.05z" fill="#e7985b"/><path d="m361 327c0-8.284-6.716-15-15-15h-180c-8.284 0-15 6.716-15 15v49h210z" fill="#e7985b"/><path d="m361 327v49h-105.05v-64h90.05c8.28 0 15 6.72 15 15z" fill="#d38853"/><circle cx="255.95" cy="99.853" fill="#fcb216" r="14.975"/><path d="m270.92 99.85c0 8.27-6.7 14.98-14.97 14.98v-29.95c8.27 0 14.97 6.7 14.97 14.97z" fill="#f78f1e"/></g></svg>