<?xml version="1.0" encoding="iso-8859-1"?>
<!-- Generator: Adobe Illustrator 19.0.0, SVG Export Plug-In . SVG Version: 6.00 Build 0)  -->
<svg version="1.1" id="Capa_1" xmlns="http://www.w3.org/2000/svg" xmlns:xlink="http://www.w3.org/1999/xlink" x="0px" y="0px"
	 viewBox="0 0 514.133 514.133" style="enable-background:new 0 0 514.133 514.133;" xml:space="preserve">
<rect x="35.467" y="147.2" style="fill:#E8EAE9;" width="222.933" height="142.933"/>
<rect x="35.467" y="147.2" style="fill:#CED6E0;" width="222.933" height="20.267"/>
<rect x="113.333" y="199.467" style="fill:#415A6B;" width="68.267" height="90.667"/>
<polygon style="fill:#66C6B9;" points="293.6,147.2 147.467,0 0.267,147.2 "/>
<polygon style="fill:#E8EAE9;" points="370.4,263.467 257.333,375.467 257.333,514.133 482.4,514.133 482.4,375.467 "/>
<path style="fill:#CED6E0;" d="M257.333,375.467v26.667c43.733-43.733,68.267-68.267,112-112l112,112v-26.667l-110.933-112
	L257.333,375.467z"/>
<path style="fill:#415A6B;" d="M334.133,452.267v60.8h72.533v-60.8c0-20.267-16-36.267-36.267-36.267l0,0
	C350.133,416,334.133,433.067,334.133,452.267z"/>
<g>
	<path style="fill:#F3705A;" d="M484.533,378.667L370.4,263.467l-115.2,115.2c-6.4,6.4-17.067,6.4-24.533,0l0,0
		c-6.4-6.4-6.4-17.067,0-24.533L357.6,227.2c6.4-6.4,17.067-6.4,24.533,0l126.933,126.933c6.4,6.4,6.4,17.067,0,24.533l0,0
		C502.667,385.067,490.933,385.067,484.533,378.667z"/>
	<path style="fill:#F3705A;" d="M236,461.867c-34.133,24.533-80,30.933-120.533,12.8c-29.867-13.867-51.2-38.4-60.8-66.133
		l-28.8,10.667l38.4-84.267l83.2,39.467l-28.8,10.667C135.733,434.133,184.8,465.067,236,461.867z"/>
</g>
<path style="fill:#415A6B;" d="M489.867,96l-38.4,84.267l-83.2-39.467l28.8-10.667c-18.133-51.2-67.2-81.067-118.4-77.867
	c34.133-25.6,80-30.933,120.533-12.8c29.867,13.867,51.2,38.4,60.8,67.2L489.867,96z"/>
<g>
</g>
<g>
</g>
<g>
</g>
<g>
</g>
<g>
</g>
<g>
</g>
<g>
</g>
<g>
</g>
<g>
</g>
<g>
</g>
<g>
</g>
<g>
</g>
<g>
</g>
<g>
</g>
<g>
</g>
</svg>
