<svg id="color" enable-background="new 0 0 24 24" height="512" viewBox="0 0 24 24" width="512" xmlns="http://www.w3.org/2000/svg"><path d="m15.058 15.629-.382-2.34 1.61-1.651c.424-.435.182-1.173-.423-1.265l-2.196-.336-.989-2.106c-.247-.526-1.11-.526-1.357 0l-.989 2.106-2.196.336c-.606.093-.848.83-.423 1.265l1.61 1.651-.382 2.34c-.101.619.559 1.08 1.103.777l1.956-1.08 1.955 1.081c.54.299 1.205-.154 1.103-.778z" fill="#ffa000"/><g fill="#ffc107"><path d="m16.824 5.79-.382 2.34c-.101.616.556 1.08 1.103.777l1.955-1.081 1.955 1.081c.54.3 1.205-.154 1.103-.777l-.382-2.34 1.61-1.651c.424-.435.182-1.173-.423-1.265l-2.196-.336-.989-2.106c-.247-.526-1.11-.526-1.357 0l-.989 2.106-2.196.336c-.606.093-.848.83-.423 1.265z"/><path d="m23.363 17.874-2.196-.336-.989-2.106c-.247-.526-1.11-.526-1.357 0l-.989 2.106-2.196.336c-.606.093-.848.83-.423 1.265l1.61 1.651-.381 2.34c-.101.614.554 1.081 1.103.777l1.955-1.081 1.955 1.081c.54.3 1.205-.154 1.103-.777l-.382-2.34 1.61-1.651c.425-.435.182-1.173-.423-1.265z"/><path d="m1.949 5.873-.382 2.34c-.101.619.559 1.079 1.103.777l1.955-1.081 1.955 1.081c.54.3 1.205-.154 1.103-.777l-.382-2.34 1.61-1.651c.424-.435.182-1.173-.423-1.265l-2.196-.336-.988-2.107c-.247-.526-1.11-.526-1.357 0l-.989 2.107-2.196.336c-.606.093-.848.83-.423 1.265z"/><path d="m8.363 17.874-2.196-.336-.989-2.106c-.247-.526-1.11-.526-1.357 0l-.989 2.106-2.196.336c-.606.093-.848.83-.423 1.265l1.61 1.651-.382 2.34c-.101.615.555 1.082 1.103.777l1.956-1.081 1.955 1.081c.54.3 1.205-.154 1.103-.777l-.382-2.34 1.61-1.651c.425-.435.182-1.173-.423-1.265z"/></g></svg>