<?xml version="1.0" encoding="iso-8859-1"?>
<!-- Generator: Adobe Illustrator 19.0.0, SVG Export Plug-In . SVG Version: 6.00 Build 0)  -->
<svg version="1.1" id="Capa_1" xmlns="http://www.w3.org/2000/svg" xmlns:xlink="http://www.w3.org/1999/xlink" x="0px" y="0px"
	 viewBox="0 0 512 512" style="enable-background:new 0 0 512 512;" xml:space="preserve">
<path style="fill:#F6E27B;" d="M465.125,185.861C492.396,176.251,512,150.24,512,119.722c0-38.661-31.451-70.114-70.111-70.114
	c-38.663,0-70.117,31.453-70.117,70.114c0,23.872,12.002,44.984,30.279,57.652l-53.105,61.956l-52.89-61.705
	c18.152-12.684,30.058-33.72,30.058-57.497c0-0.052-0.004-0.103-0.004-0.155c0-0.084,0.004-0.167,0.004-0.251
	c0-38.661-31.451-70.114-70.111-70.114c-38.663,0-70.117,31.453-70.117,70.114c0,23.872,12.002,44.984,30.279,57.652L163.06,239.33
	l-53.106-61.957c18.275-12.668,30.274-33.78,30.274-57.651c0-38.661-31.451-70.114-70.111-70.114C31.455,49.608,0,81.061,0,119.722
	c0,30.518,19.607,56.531,46.882,66.14v244.076c0,0.829,0.045,1.646,0.13,2.453H36c-8.284,0-15,6.716-15,15s6.716,15,15,15h220.003
	H476c8.284,0,15-6.716,15-15s-6.716-15-15-15h-11.005c0.085-0.806,0.13-1.624,0.13-2.453V185.861z"/>
<path style="fill:#ECB53A;" d="M465.125,185.861C492.396,176.251,512,150.24,512,119.722c0-38.661-31.451-70.114-70.111-70.114
	c-38.663,0-70.117,31.453-70.117,70.114c0,23.872,12.002,44.984,30.279,57.652l-53.105,61.956l-52.89-61.705
	c18.152-12.684,30.058-33.72,30.058-57.497c0-38.661-31.451-70.114-70.111-70.114v93.35v46.878V432.39v20.783v9.217H476
	c8.284,0,15-6.716,15-15s-6.716-15-15-15h-11.005c0.085-0.806,0.13-1.624,0.13-2.453V185.861z"/>
<g>
</g>
<g>
</g>
<g>
</g>
<g>
</g>
<g>
</g>
<g>
</g>
<g>
</g>
<g>
</g>
<g>
</g>
<g>
</g>
<g>
</g>
<g>
</g>
<g>
</g>
<g>
</g>
<g>
</g>
</svg>
