<svg id="Capa_1" enable-background="new 0 0 512 512" height="512" viewBox="0 0 512 512" width="512" xmlns="http://www.w3.org/2000/svg"><g><path d="m240.179 109.291c20.289-21.318 41.559-38.918 60.611-52.777-20.818-23.998-41.472-42.204-55.693-53.629-7.534-6.052-18.743-2.096-20.924 7.318-5.49 23.695-20.788 39.791-37.938 57.346 16.419 10.74 35.29 24.636 53.944 41.742z" fill="#74d579"/><path d="m247.86 28.35c1.653-7.136 8.292-11.252 14.806-10.528-6.492-5.822-12.451-10.825-17.569-14.937-7.533-6.052-18.742-2.096-20.924 7.318-5.49 23.695-20.788 39.791-37.938 57.346 7.853 5.136 16.271 11.004 24.954 17.591 16.689-17.176 31.259-33.436 36.671-56.79z" fill="#4bcd5c"/><path d="m182.367 195.848c15.882-33.653 37.636-62.583 60.647-86.763-31.211-28.623-63.037-48.323-83.107-59.331-8.529-4.677-18.946 1.21-19.457 10.924-1.821 34.619-25.797 57.584-45.054 90.429 24.752 9.332 56.176 23.696 86.971 44.741z" fill="#4bcd5c"/><g><path d="m168.177 74.418c.374-7.111 6.058-12.165 12.422-12.532-7.718-4.814-14.728-8.86-20.693-12.132-8.529-4.677-18.946 1.209-19.457 10.924-1.821 34.619-25.797 57.584-45.054 90.428 8.841 3.333 18.544 7.322 28.755 12.015 19.073-31.927 42.238-54.696 44.027-88.703z" fill="#00c53b"/></g><g><path d="m198.358 187.696c-1.83 0-3.668-.637-5.155-1.933-27.834-24.275-34.561-73.372-34.834-75.45-.564-4.297 2.462-8.238 6.76-8.802 4.293-.558 8.235 2.46 8.802 6.755.06.451 6.257 45.321 29.589 65.669 3.266 2.849 3.605 7.806.756 11.073-1.552 1.777-3.729 2.688-5.918 2.688z" fill="#74d579"/></g><path d="m238.167 247.773c52.158-60.009 125.036-90.465 177.773-105.531-22.314-37.279-50.868-62.02-53.939-101.023-.834-10.587-12.369-16.715-21.543-11.369-39.291 22.899-120.251 78.312-161.478 165.666 20.771 14.196 41.255 31.443 59.187 52.257z" fill="#4bcd5c"/><path d="m358.456 54.938c1.726-1.006 3.535-1.605 5.341-1.845-.852-3.823-1.473-7.766-1.797-11.874-.834-10.587-12.369-16.715-21.543-11.369-39.291 22.899-120.251 78.312-161.478 165.666 7.477 5.109 14.914 10.621 22.211 16.545 42.316-82.431 119.272-134.98 157.266-157.123z" fill="#00c53b"/><path d="m324.078 91.97c-4.273-.109-7.732 3.301-7.807 7.538-.006.358-.565 23.86-9.286 51.557-.468 1.485-2.213 2.171-3.525 1.334-16.473-10.514-23.407-33.078-23.513-33.433-1.197-4.059-5.457-6.383-9.52-5.19-4.067 1.193-6.396 5.456-5.203 9.523.417 1.422 9.439 31.256 33.4 44.052 1.094.584 1.555 1.921 1.047 3.053-3.833 8.551-8.545 17.091-14.348 25.117-2.369 3.276-1.963 7.922 1.126 10.53 1.458 1.231 3.216 1.821 4.956 1.821 2.375 0 4.716-1.099 6.217-3.168 32.576-44.896 33.952-102.495 33.995-104.925.073-4.239-3.302-7.734-7.539-7.809z" fill="#74d579"/><path d="m472.072 148.322c2.712-10.105-5.982-19.595-16.263-17.651-46.784 8.848-151.395 36.297-218.817 113.869 41.806 48.525 68.516 116.714 52.648 211.239-3.428 20.421-20.341 37.79-43.301 39.799-6.511.57-13.515 4.226-20.89 4.652 64.351 12.77 168.711 28.102 238.036-100.053 70.186-129.747-10.07-182.332 8.587-251.855z" fill="#00c53b"/><path d="m455.81 130.671c-41.815 7.908-129.819 30.681-196.183 90.813-7.133 6.42-15.456 14.797-22.635 23.056 51.854 60.187 65.749 133.201 52.648 211.239-3.428 20.421-20.341 37.79-43.301 39.799-6.511.57-13.515 4.226-20.89 4.652 20.518 4.072 45.105 8.396 71.325 8.254 13.52-12.136 23.031-28.714 26.205-47.623 9.298-55.391 5.439-106.931-11.47-153.189-5.602-15.325-12.647-30.072-21.081-44.189-6.817-11.41-3.504-26.192 7.407-33.782 60.745-42.255 129.926-59.794 165.562-66.533 2.125-.402 4.18-.309 6.083.171.404-4.94 1.227-9.932 2.591-15.017 2.713-10.105-5.981-19.596-16.261-17.651z" fill="#00b327"/><path d="m458.976 279.101c-2.08-4.226-7.295-5.561-11.109-3.063-16.864 11.05-33.39 10.92-43.656 9.166-1.29-.221-2.001-1.615-1.431-2.793 20.328-42.003 30.108-77.03 30.525-78.54 1.128-4.085-1.269-8.309-5.353-9.438-4.082-1.127-8.311 1.268-9.44 5.352-.29 1.047-21.464 76.009-64.78 135.524-.79 1.085-2.422 1.062-3.2-.032-15.106-21.274-14.161-45.083-14.142-45.466.227-4.222-3.006-7.834-7.231-8.073-4.213-.229-7.854 2.999-8.093 7.23-.08 1.419-1.539 32.485 19.951 59.176.808 1.003.774 2.453-.061 3.434-14.195 16.691-30.375 31.256-48.585 41.297-3.486 1.923-5.141 6.188-3.568 9.845 1.277 2.969 4.123 4.666 7.068 4.666 1.248 0 2.515-.305 3.686-.948 9.735-5.346 19.202-11.97 28.39-19.83.662-.567 1.612-.638 2.34-.158 9.482 6.257 28.685 15.752 57.9 15.752 13.056 0 28.109-1.896 45.188-6.826 4.072-1.176 6.42-5.429 5.244-9.501-1.175-4.072-5.427-6.42-9.501-5.245-33.283 9.607-57.387 6.201-71.747 1.654-5.999-1.9-10.834-4.15-14.524-6.2-1.133-.63-1.36-2.148-.459-3.08 18.175-18.784 35.137-42.754 50.755-71.734.788-1.463 2.446-2.229 4.065-1.854 4.588 1.062 10.592 1.996 17.517 1.996 11.889 0 26.485-2.755 41.261-12.347 3.317-2.153 4.735-6.419 2.99-9.964z" fill="#74d579"/><path d="m327.463 387.012c-.35-6.491-.908-12.912-1.674-19.257-9.781 9.416-20.353 17.663-31.728 24.155.189 5.058.231 10.151.147 15.272.546.121 1.102.202 1.665.202 1.248 0 2.515-.305 3.686-.948 9.564-5.252 18.868-11.745 27.904-19.424z" fill="#4bcd5c"/><path d="m70.613 140.666c-9.121-2.806-17.965 4.913-16.533 14.349 9.854 64.912-68.23 104.428-17.784 229.159 51.082 126.302 150.857 119.65 210.044 114.473 23.425-2.049 42.477-19.678 46.37-42.868 36.295-216.207-155.517-294.631-222.097-315.113z" fill="#00c53b"/><path d="m78.124 384.173c-50.446-124.73 27.638-164.247 17.784-229.159-.295-1.944-.148-3.814.342-5.535-9.718-3.687-18.415-6.592-25.637-8.813-9.121-2.806-17.965 4.913-16.533 14.349 9.854 64.912-68.23 104.428-17.784 229.159 45.876 113.431 131.021 119.624 190.773 115.958-53.03-4.073-113.026-27.146-148.945-115.959z" fill="#00b327"/><path d="m232.157 497.962c-14.267-10.624-26.911-22.143-38.136-34.189-.831-.892-.893-2.243-.184-3.234 23.176-32.373 25.661-75.747 25.762-77.711.216-4.232-3.039-7.839-7.272-8.055-4.233-.206-7.839 3.04-8.055 7.272-.021.413-2.107 37.025-20.077 65.357-.934 1.473-3.053 1.606-4.147.247-17.618-21.906-31.037-44.958-41.271-67.193-.789-1.713-.244-3.757 1.298-4.844 49.473-34.884 50.078-87.169 50.078-89.494 0-4.238-3.436-7.674-7.674-7.674s-7.674 3.435-7.674 7.674c0 .476-.509 44.465-40.801 74.909-1.35 1.02-3.317.475-3.926-1.103-20.199-52.32-27.718-110.732-26.491-142.494.163-4.232-3.135-7.797-7.368-7.963-4.214-.162-7.802 3.133-7.967 7.368-.064 1.638-1.224 35.131 8.126 81.653.375 1.869-1.371 3.461-3.206 2.946-17.006-4.78-28.115-16.72-28.274-16.894-2.84-3.129-7.68-3.376-10.822-.544-3.148 2.838-3.399 7.69-.561 10.838.805.892 18.467 20.137 45.613 23.422 1.052.127 1.923.872 2.185 1.899 8.656 33.929 20.9 64.233 35.317 90.332.917 1.66-.262 3.687-2.157 3.766-23.597.985-41.539-11.958-41.866-12.198-3.391-2.525-8.189-1.832-10.726 1.554-2.541 3.391-1.851 8.201 1.541 10.742 14.115 10.57 38.444 18.359 61.998 14.096 1.019-.185 2.045.246 2.605 1.117 19.739 30.695 44.813 58.311 75.256 80.922 1.375 1.021 2.979 1.515 4.57 1.514 2.325 0 4.621-1.053 6.127-3.045 2.581-3.417 1.614-8.435-1.821-10.993z" fill="#74d579"/></g></svg>