<svg height="512" viewBox="0 0 48 48" width="512" xmlns="http://www.w3.org/2000/svg"><g id="ruler"><path d="m47 7.05a6 6 0 0 1 -1.77 4.28l-35.67 35.67-8.56-8.56 35.67-35.67a6.06 6.06 0 0 1 10.33 4.28z" fill="#fc6"/><path d="m46.91 6.05c-.43 2.71.35 1.25-29.79 31.39a10.68 10.68 0 0 1 -15.12 0l34.52-34.52a6.07 6.07 0 0 1 10.39 3.13z" fill="#ffde76"/><g fill="#ffba55"><path d="m6 37.72-2.14-2.14 1.41-1.41 2.14 2.14a1 1 0 0 1 -1.41 1.41z"/><path d="m9.57 35.58-2.85-2.85 1.41-1.41 2.87 2.85a1 1 0 0 1 -1.43 1.41z"/><path d="m11.71 32-2.14-2.13 1.43-1.41 2.14 2.14c.92.94-.53 2.4-1.43 1.4z"/><path d="m15.27 29.87-2.85-2.87 1.42-1.41 2.85 2.85a1 1 0 0 1 -1.42 1.43z"/><path d="m17.41 26.31-2.14-2.14 1.42-1.42 2.14 2.14a1 1 0 0 1 -1.42 1.42z"/><path d="m21 24.17-2.85-2.85 1.41-1.42 2.85 2.85a1 1 0 0 1 -1.41 1.42z"/><path d="m23.12 20.6-2.12-2.14 1.41-1.41 2.14 2.14a1 1 0 0 1 -1.43 1.41z"/><path d="m26.69 18.46-2.85-2.85 1.41-1.41 2.85 2.85a1 1 0 0 1 -1.41 1.41z"/><path d="m28.83 14.89-2.14-2.14 1.41-1.41 2.14 2.14a1 1 0 0 1 -1.41 1.41z"/><path d="m32.39 12.75-2.85-2.85 1.46-1.41 2.85 2.85a1 1 0 0 1 -1.46 1.41z"/><path d="m34.53 9.19-2.14-2.14 1.42-1.42 2.19 2.14a1 1 0 0 1 -1.47 1.42z"/><path d="m41.33 7.67a1 1 0 1 1 .83-.45 1 1 0 0 1 -.83.45z"/></g></g></svg>