<?xml version="1.0" encoding="iso-8859-1"?>
<!-- Generator: Adobe Illustrator 19.0.0, SVG Export Plug-In . SVG Version: 6.00 Build 0)  -->
<svg version="1.1" id="Capa_1" xmlns="http://www.w3.org/2000/svg" xmlns:xlink="http://www.w3.org/1999/xlink" x="0px" y="0px"
	 viewBox="0 0 514.112 514.112" style="enable-background:new 0 0 514.112 514.112;" xml:space="preserve">
<path style="fill:#464646;" d="M514.112,351.128V41.064c0-17.68-14.32-32-32-32H32c-17.68,0-32,14.32-32,32v310.064H514.112z"/>
<rect x="32" y="41.064" style="fill:#4B9FD8;" width="450.08" height="300.384"/>
<path style="fill:#E5E5E5;" d="M0,341.496v51.088c0,17.68,14.32,32,32,32h450.112c17.68,0,32-14.32,32-32v-51.088H0z"/>
<rect x="170.528" y="424.568" style="fill:#CACACA;" width="173.056" height="51.584"/>
<path style="fill:#E5E5E5;" d="M382.64,476.152H131.472c-7.984,0-14.448,6.464-14.448,14.448l0,0
	c0,7.984,6.464,14.448,14.448,14.448h251.184c7.984,0,14.448-6.464,14.448-14.448l0,0
	C397.104,482.632,390.624,476.152,382.64,476.152z"/>
<path style="fill:#CACACA;" d="M266.608,399.032h-19.12c-8.832,0-16-7.152-16-16s7.168-16,16-16h19.12c8.832,0,16,7.152,16,16
	S275.456,399.032,266.608,399.032z"/>
<g style="opacity:0.07;">
	<polygon style="fill:#010101;" points="170.528,424.568 343.584,464.456 343.584,424.568 	"/>
</g>
<path style="fill:#3789C9;" d="M214.048,41.064c-12.416,0-22.496,10.064-22.496,22.496c0,12.416,10.064,22.496,22.496,22.496h30.08
	c10.4,0,18.864,8.512,18.816,18.912v0.24c0,0.464,0.016,0.912,0.048,1.376c0.624,10.256-7.52,18.896-17.792,18.896h-71.856
	c-12.176,0-23.088,9.12-23.728,21.28c-0.672,12.976,9.632,23.696,22.464,23.696h44.32c10.448,0,18.912,8.512,18.848,18.96v1.296
	v0.272c0.064,10.992-8.88,20-19.888,20h-4.576c-12.176,0-23.088,9.12-23.728,21.28c-0.672,12.976,9.632,23.696,22.464,23.696h46.144
	c10.864,0,18.976,9.136,18.848,20c0,0.096,0,0.176,0,0.272s0,0.176,0,0.272c0.128,10.864-7.984,20-18.848,20h-18.608
	c-12.176,0-23.088,9.12-23.728,21.28c-0.672,12.976,9.632,23.696,22.464,23.696h246.32V41.064H214.048z"/>
<g>
	<path style="fill:#D9DADB;" d="M80.416,367.32H47.712C39.04,367.32,32,374.344,32,383.032c0,8.688,7.04,15.712,15.712,15.712
		h32.704c8.672,0,15.712-7.024,15.712-15.712C96.112,374.344,89.088,367.32,80.416,367.32z"/>
	<path style="fill:#D9DADB;" d="M121.84,367.32h-1.968c-8.672,0-15.712,7.024-15.712,15.712c0,8.688,7.04,15.712,15.712,15.712
		h1.968c8.672,0,15.712-7.024,15.712-15.712S130.512,367.32,121.84,367.32z"/>
</g>
<path style="fill:#F3F3F3;" d="M100.928,311.448c-8.832,0-16-7.152-16-16V87.08c0-8.848,7.168-16,16-16s16,7.152,16,16v208.368
	C116.928,304.296,109.76,311.448,100.928,311.448z"/>
<path style="fill:#FDBC4B;" d="M122.496,106.36H79.36c-8.832,0-16,7.168-16,16v43.152c0,8.832,7.168,16,16,16h43.136
	c8.832,0,16-7.168,16-16V122.36C138.496,113.528,131.344,106.36,122.496,106.36z"/>
<path style="fill:#F3F3F3;" d="M205.008,311.448c-8.832,0-16-7.152-16-16V87.08c0-8.848,7.168-16,16-16s16,7.152,16,16v208.368
	C221.008,304.296,213.856,311.448,205.008,311.448z"/>
<path style="fill:#FDBC4B;" d="M226.592,198.712H183.44c-8.832,0-16,7.168-16,16v43.152c0,8.832,7.168,16,16,16h43.152
	c8.832,0,16-7.168,16-16v-43.152C242.592,205.864,235.424,198.712,226.592,198.712z"/>
<path style="fill:#F3F3F3;" d="M309.104,311.448c-8.832,0-16-7.152-16-16V87.08c0-8.848,7.168-16,16-16s16,7.152,16,16v208.368
	C325.104,304.296,317.936,311.448,309.104,311.448z"/>
<path style="fill:#FDBC4B;" d="M330.672,129.752H287.52c-8.832,0-16,7.168-16,16v43.152c0,8.832,7.168,16,16,16h43.152
	c8.832,0,16-7.168,16-16v-43.152C346.672,136.92,339.504,129.752,330.672,129.752z"/>
<path style="fill:#F3F3F3;" d="M413.184,311.448c-8.832,0-16-7.152-16-16V87.08c0-8.848,7.168-16,16-16s16,7.152,16,16v208.368
	C429.184,304.296,422.016,311.448,413.184,311.448z"/>
<path style="fill:#FDBC4B;" d="M434.752,187.464h-43.136c-8.832,0-16,7.168-16,16v43.152c0,8.832,7.168,16,16,16h43.152
	c8.832,0,16-7.168,16-16v-43.152C450.752,194.632,443.6,187.464,434.752,187.464z"/>
<g>
	<circle style="fill:#FFCC5B;" cx="100.928" cy="143.944" r="20.048"/>
	<circle style="fill:#FFCC5B;" cx="205.008" cy="236.28" r="20.048"/>
	<circle style="fill:#FFCC5B;" cx="413.184" cy="225.032" r="20.048"/>
	<circle style="fill:#FFCC5B;" cx="309.104" cy="167.336" r="20.048"/>
</g>
<g>
</g>
<g>
</g>
<g>
</g>
<g>
</g>
<g>
</g>
<g>
</g>
<g>
</g>
<g>
</g>
<g>
</g>
<g>
</g>
<g>
</g>
<g>
</g>
<g>
</g>
<g>
</g>
<g>
</g>
</svg>
