<?xml version="1.0" encoding="iso-8859-1"?>
<!-- Generator: Adobe Illustrator 19.0.0, SVG Export Plug-In . SVG Version: 6.00 Build 0)  -->
<svg version="1.1" id="Capa_1" xmlns="http://www.w3.org/2000/svg" xmlns:xlink="http://www.w3.org/1999/xlink" x="0px" y="0px"
	 viewBox="0 0 512.028 512.028" style="enable-background:new 0 0 512.028 512.028;" xml:space="preserve">
<g>
	<path style="fill:#FFC107;" d="M368.014,160.028c-4.416,0-8.8-1.824-11.968-5.376c-5.888-6.592-5.248-16.704,1.344-22.592
		c0.416-0.48,7.52-8.928-3.328-28.192c-24.064-42.752,2.176-66.784,3.328-67.808c6.56-5.92,16.704-5.28,22.592,1.344
		c5.76,6.464,5.28,16.288-0.928,22.208c-1.056,1.184-7.712,9.664,2.912,28.576c24.064,42.752-2.176,66.784-3.328,67.808
		C375.598,158.684,371.79,160.028,368.014,160.028z"/>
	<path style="fill:#FFC107;" d="M256.014,128.028c-4.416,0-8.8-1.824-11.968-5.376c-5.856-6.592-5.28-16.704,1.344-22.592
		c0.384-0.48,7.52-8.928-3.328-28.192C218.03,29.116,244.238,5.084,245.39,4.06c6.592-5.888,16.704-5.312,22.592,1.344
		c5.76,6.464,5.312,16.288-0.928,22.208c-1.056,1.184-7.712,9.664,2.912,28.576c24.064,42.752-2.176,66.784-3.328,67.808
		C263.598,126.684,259.79,128.028,256.014,128.028z"/>
	<path style="fill:#FFC107;" d="M144.014,160.028c-4.416,0-8.8-1.824-11.968-5.376c-5.856-6.592-5.28-16.704,1.344-22.592
		c0.384-0.48,7.52-8.928-3.328-28.192c-24.032-42.752,2.176-66.784,3.328-67.808c6.592-5.888,16.704-5.28,22.592,1.344
		c5.76,6.464,5.312,16.288-0.928,22.208c-1.056,1.184-7.712,9.664,2.912,28.576c24.032,42.752-2.176,66.784-3.328,67.808
		C151.598,158.684,147.79,160.028,144.014,160.028z"/>
</g>
<path style="fill:#ECEFF1;" d="M462.894,385.244c-3.008-4.192-7.808-6.656-12.96-6.656H62.094c-5.152,0-9.984,2.464-12.992,6.656
	c-3.008,4.16-3.84,9.536-2.176,14.4l33.92,101.44c2.176,6.528,8.288,10.944,15.168,10.944h320c6.88,0,12.992-4.416,15.2-10.944
	l33.92-101.44C466.734,394.78,465.934,389.404,462.894,385.244z"/>
<path style="fill:#FFC107;" d="M256.014,160.028c-104.64,0-256,62.656-256,176c0,12.832,3.104,25.6,8.992,36.864
	c17.536,33.792,60.928,48.352,98.656,33.28l36.416-14.56c10.624-4.192,22.4-4.608,33.216-0.96l53.312,17.792
	c8.192,2.72,16.8,4.096,25.408,4.096s17.216-1.376,25.408-4.096l53.312-17.792c10.752-3.616,22.592-3.264,33.216,0.96l36.384,14.56
	c37.856,15.168,81.152,0.512,98.688-33.248c5.856-11.296,8.992-24.064,8.992-36.896
	C512.014,222.684,360.654,160.028,256.014,160.028z"/>
<g>
</g>
<g>
</g>
<g>
</g>
<g>
</g>
<g>
</g>
<g>
</g>
<g>
</g>
<g>
</g>
<g>
</g>
<g>
</g>
<g>
</g>
<g>
</g>
<g>
</g>
<g>
</g>
<g>
</g>
</svg>
