<svg id="Layer_1" enable-background="new 0 0 512 512" height="512" viewBox="0 0 512 512" width="512" xmlns="http://www.w3.org/2000/svg"><g><g><g><path d="m2.244 102.994c0 11.193 5.282 14.888 14.358 20.484l47.235 9.291v28.336c0 21.665 9.171 29.484 20.483 29.484s20.483-10.902 20.483-29.484v-28.336l5.161-9.581h32.061l5.161 9.581v28.336c0 21.329 9.171 29.484 20.483 29.484s20.483-8.491 20.483-29.484v-28.336l6.231-9.291h97.129c9.553 55.958 54.521 91.627 108.149 91.627 58.914 0 111.953-47.523 111.953-112.053-4.723-57.697-53.038-103.052-111.952-103.052-55.026 0-100.805 39.566-110.458 91.801h-268.721c-7.964 0-14.85 4.555-18.239 11.193zm397.418-57.743c37.052 0 67.089 30.039 67.089 67.092 0 37.054-30.037 67.093-67.089 67.093s-67.089-30.039-67.089-67.093c0-37.053 30.037-67.092 67.089-67.092z" fill="#ffe27a"/><g fill="#f9cf58"><path d="m142.026 114.188h-32.061c-2.851 0-5.161 2.311-5.161 5.161v13.42h42.384v-13.42c0-2.851-2.311-5.161-5.162-5.161z"/><path d="m167.671 181.589c-11.313 0-20.483-9.171-20.483-20.484v18.582c0 11.313 9.171 20.484 20.483 20.484s20.483-9.171 20.483-20.484v-18.582c0 11.313-9.171 20.484-20.483 20.484z"/><path d="m63.838 119.349c0-2.851-2.311-5.161-5.161-5.161h-38.194c-7.964 0-14.85-4.555-18.239-11.193-1.648 3.229-2.487 6.941-2.183 10.881.829 10.753 10.124 18.894 20.908 18.894h42.868v-13.421z"/><path d="m84.321 181.589c-11.313 0-20.483-9.171-20.483-20.484v18.582c0 11.313 9.171 20.484 20.483 20.484s20.483-9.171 20.483-20.484v-18.582c0 11.313-9.171 20.484-20.483 20.484z"/><path d="m511.615 103.053c-4.724 57.698-53.039 103.053-111.953 103.053-53.627 0-91.883-37.582-102.718-87.845-.512-2.376-2.608-4.073-5.038-4.073h-98.592c-2.851 0-5.161 2.311-5.161 5.161v13.42h101.029c.003-.006.005-.012.008-.017 9.598 52.3 55.4 91.935 110.472 91.935 62.043 0 112.338-50.298 112.338-112.344 0-3.129-.134-6.226-.385-9.29z"/></g></g><g><path d="m467.583 340.385c-5.53-7.766-15.914-10.24-24.323-5.793l-39.755 21.022 9.11-22.624c-.437-1.332-1.03-2.636-1.786-3.889-5.196-8.618-16.207-11.621-25.025-6.825l-35.445 19.28 8.708-25.1c-.582-1.364-1.33-2.686-2.248-3.939-5.744-7.843-16.324-10.298-24.908-5.781l-102.538 53.958-47.613 63.757 109.764 45.6 164.038-84.741 5.781-17.085 8.07-24.67c-.497-1.093-1.106-2.154-1.83-3.17z" fill="#f4b184"/><g fill="#eaa678"><path d="m353.856 381.867 49.649-26.254c8.293-4.385 11.92-14.066 9.11-22.624l-64.498 34.383-5.999 7.581z"/><path d="m461.345 368.224c8.849-4.936 12.128-15.793 8.07-24.67l-121.807 65.496-45.103-1.991-32.817-2.694-86.054 11.366 37.669 18.348c51.959 6.284 133.593 7.365 179.353-18.158l66.049-38.409z"/><path d="m315.176 360.693 35.18-19.136c9.118-4.96 12.607-15.97 8.708-25.101l-80.417 44.237 20.524 9z"/></g><path d="m56.086 393.038s38.358-32.553 85.889-41.434 87.399 9.089 87.399 9.089h103.415c11.635 0 21.067 9.48 21.067 21.174 0 10.667-7.895 19.669-18.425 21.007l-131.073 16.656 55.667 6.732c51.959 6.284 104.565-4.074 150.325-29.596l69.647-38.846c8.819-4.666 19.562-2.708 26.201 4.522.484.527.028 19.525.028 19.525l-107.469 61.323c-51.047 27.91-109.162 64.498-167.043 59.314l-175.627-15.73h-41.926l-14.161-11.999v-76.559c0-2.86 2.311-5.178 5.161-5.178z" fill="#ffc89f"/><g><path d="m507.583 364.008c-.439-.583-.906-1.133-1.391-1.661-1.554 5.396-5.153 10.224-10.528 13.163l-101.841 55.682c-51.047 27.91-109.162 64.498-167.044 59.314l-175.627-15.73h-51.152v15.821c0 2.86 2.311 5.178 5.161 5.178h50.925l175.627 15.73c57.882 5.184 115.997-31.404 167.043-59.314l101.842-55.682c11.723-6.41 15.031-21.799 6.985-32.501z" fill="#f7b081"/></g></g></g></g></svg>