<?xml version="1.0" encoding="iso-8859-1"?>
<!-- Generator: Adobe Illustrator 19.0.0, SVG Export Plug-In . SVG Version: 6.00 Build 0)  -->
<svg version="1.1" id="Capa_1" xmlns="http://www.w3.org/2000/svg" xmlns:xlink="http://www.w3.org/1999/xlink" x="0px" y="0px"
	 viewBox="0 0 512 512" style="enable-background:new 0 0 512 512;" xml:space="preserve">
<path style="fill:#E5E5E5;" d="M466,75v317L346,512H61c-8.401,0-15-6.599-15-15V75c0-8.401,6.599-15,15-15h390
	C459.401,60,466,66.599,466,75z"/>
<path style="fill:#D9D9D9;" d="M466,75v317L346,512h-90V60h195C459.401,60,466,66.599,466,75z"/>
<path style="fill:#C8C6CE;" d="M361,512c4.136,0,7.892-1.666,10.649-4.424l89.927-89.927c2.725-2.71,4.409-6.46,4.424-10.605V407
	v-15H361c-8.284,0-15,6.716-15,15v105h14.883C360.927,512,360.956,512,361,512z"/>
<g>
	<path style="fill:#A8AFF1;" d="M316,377c0,8.401-6.599,15-15,15H151c-8.401,0-15-6.599-15-15s6.599-15,15-15h150
		C309.401,362,316,368.599,316,377z"/>
	<path style="fill:#A8AFF1;" d="M376,287c0,8.401-6.599,15-15,15H151c-8.401,0-15-6.599-15-15s6.599-15,15-15h210
		C369.401,272,376,278.599,376,287z"/>
</g>
<path style="fill:#97A1ED;" d="M361,212h-90c-8.291,0-15-6.709-15-15s6.709-15,15-15h90c8.291,0,15,6.709,15,15S369.291,212,361,212
	z"/>
<path style="fill:#17ACE8;" d="M166,0c-33.091,0-60,26.909-60,60h30c0-16.538,13.462-30,30-30s30,13.462,30,30v107
	c0,8.276-6.724,15-15,15s-15-6.724-15-15v-30c0-8.291-6.709-15-15-15s-15,6.709-15,15v30c0,24.814,20.186,45,45,45s45-20.186,45-45
	V60C226,26.909,199.091,0,166,0z"/>
<g>
	<path style="fill:#97A1ED;" d="M316,377c0,8.401-6.599,15-15,15h-45v-30h45C309.401,362,316,368.599,316,377z"/>
	<path style="fill:#97A1ED;" d="M376,287c0,8.401-6.599,15-15,15H256v-30h105C369.401,272,376,278.599,376,287z"/>
</g>
<g>
</g>
<g>
</g>
<g>
</g>
<g>
</g>
<g>
</g>
<g>
</g>
<g>
</g>
<g>
</g>
<g>
</g>
<g>
</g>
<g>
</g>
<g>
</g>
<g>
</g>
<g>
</g>
<g>
</g>
</svg>
