<?xml version="1.0" encoding="iso-8859-1"?>
<!-- Generator: Adobe Illustrator 19.0.0, SVG Export Plug-In . SVG Version: 6.00 Build 0)  -->
<svg version="1.1" id="Capa_1" xmlns="http://www.w3.org/2000/svg" xmlns:xlink="http://www.w3.org/1999/xlink" x="0px" y="0px"
	 viewBox="0 0 512 512" style="enable-background:new 0 0 512 512;" xml:space="preserve">
<path style="fill:#00DD7E;" d="M512,135.71c0,68.38-26.63,132.67-74.98,181.02S324.38,391.71,256,391.71s-132.67-26.63-181.02-74.98
	S0,204.09,0,135.71v-0.48l0.06-14.94L15,120.33h75.88l-0.09,15.36c0.04,89.5,71.62,162.58,160.53,165.07
	c1.55,0.04,3.11,0.06,4.68,0.06c1.57,0,3.13-0.02,4.68-0.06c88.91-2.49,160.49-75.58,160.53-165.08l-0.01-0.27l-0.08-15.08h90.82
	L512,135.71z"/>
<path style="fill:#00CB7E;" d="M512,135.71c0,68.38-26.63,132.67-74.98,181.02S324.38,391.71,256,391.71v-90.89
	c1.57,0,3.13-0.02,4.68-0.06c88.91-2.49,160.49-75.58,160.53-165.08l-0.01-0.27l-0.08-15.08h90.82L512,135.71z"/>
<path style="fill:#BDF052;" d="M442.24,134.91c0,102.7-83.54,186.25-186.24,186.25S69.76,237.61,69.76,134.91v-0.38l0.07-14.2h84.25
	l3.79,8.45c17.33,38.58,55.85,63.51,98.13,63.51s80.8-24.93,98.13-63.51l3.79-8.45h84.25L442.24,134.91z"/>
<path style="fill:#92D700;" d="M442.24,134.91c0,102.7-83.54,186.25-186.24,186.25V192.29c42.28,0,80.8-24.93,98.13-63.51l3.79-8.45
	h84.25L442.24,134.91z"/>
<g>
</g>
<g>
</g>
<g>
</g>
<g>
</g>
<g>
</g>
<g>
</g>
<g>
</g>
<g>
</g>
<g>
</g>
<g>
</g>
<g>
</g>
<g>
</g>
<g>
</g>
<g>
</g>
<g>
</g>
</svg>
