<svg id="Layer_1" enable-background="new 0 0 65 65" height="512" viewBox="0 0 65 65" width="512" xmlns="http://www.w3.org/2000/svg"><g><ellipse cx="32.5" cy="54.9" fill="#dbdfe0" rx="32" ry="9.6"/><ellipse cx="32.5" cy="54.9" fill="#c1c1c1" rx="10.3" ry="3.1"/><path d="m51 19c0 10.2-18.5 36.1-18.5 36.1s-18.5-25.8-18.5-36.1c0-10.2 8.3-18.5 18.5-18.5s18.5 8.3 18.5 18.5z" fill="#f1786b"/><path d="m32.5 1.5c10.1 0 18.2 8 18.5 18 0-.2 0-.3 0-.5 0-10.2-8.3-18.5-18.5-18.5s-18.5 8.3-18.5 18.5v.5c.3-10 8.4-18 18.5-18z" fill="#fc8e86"/><path d="m45.3 19c0 3.3-1.2 6.3-3.3 8.5-2.3 2.6-5.7 4.2-9.5 4.2s-7.2-1.6-9.5-4.3c-2-2.3-3.3-5.2-3.3-8.5 0-7.1 5.7-12.8 12.8-12.8 7.1.2 12.8 5.9 12.8 12.9z" fill="#eff3f5"/><g fill="#41b3e2"><circle cx="32.5" cy="13.1" r="5.1"/><path d="m42 27.6c-2.3 2.6-5.7 4.2-9.5 4.2s-7.2-1.6-9.5-4.3c.5-4.8 4.6-8.5 9.5-8.5s9 3.8 9.5 8.6z"/></g></g></svg>