<svg id="Capa_1" enable-background="new 0 0 512 512" height="512" viewBox="0 0 512 512" width="512" xmlns="http://www.w3.org/2000/svg"><g><path d="m90.828 206.671 58.59 10.068-18.041 104.992c-.293 1.703-1.91 2.846-3.614 2.554l-21.586-3.709c-1.703-.293-3.321.851-3.614 2.554l-2.914 16.96c-.293 1.703.851 3.321 2.554 3.614l21.586 3.709c1.703.293 2.846 1.91 2.554 3.614l-2.914 16.96c-.293 1.703-1.91 2.846-3.614 2.554l-21.586-3.709c-1.703-.293-3.321.851-3.614 2.554l-2.914 16.96c-.293 1.703.851 3.321 2.554 3.614l24.67 4.239-8.242 47.963c-.21 1.222-.895 2.311-1.905 3.03l-17.628 12.537c-1.018.724-2.284 1.013-3.515.801l-19.279-3.313c-1.232-.212-2.328-.906-3.046-1.928l-12.432-17.704c-.712-1.015-.995-2.27-.785-3.492z" fill="#ffc344"/><g fill="#feb237"><path d="m126.291 212.764-18.571 108.076 20.044 3.444c1.703.293 3.321-.851 3.614-2.554l18.041-104.992z"/><path d="m87.556 438.187c-.21 1.222-.895 2.311-1.905 3.03l-17.628 12.539c-.463.33-.979.564-1.518.707.552.377 1.18.64 1.851.755l19.279 3.313c1.232.212 2.497-.077 3.515-.801l17.628-12.539c1.01-.719 1.695-1.808 1.905-3.03l8.242-47.963-23.128-3.974z"/><path d="m99.772 367.096 20.044 3.444c1.703.293 3.321-.851 3.614-2.554l2.914-16.96c.293-1.703-.851-3.321-2.554-3.614l-20.044-3.444z"/></g><path d="m140.298 94.308c-51.088-8.778-99.612 25.522-108.389 76.602-8.779 51.089 25.514 99.611 76.602 108.39 51.081 8.777 99.611-25.514 108.389-76.602 8.778-51.081-25.521-99.612-76.602-108.39zm-15.512 90.276c-16.179-2.78-27.037-18.144-24.257-34.323 2.779-16.171 18.144-27.037 34.323-24.257 16.171 2.779 27.036 18.152 24.257 34.323-2.78 16.179-18.152 27.036-34.323 24.257z" fill="#ffd15b"/><g><path d="m140.298 94.308c-9.405-1.616-18.722-1.767-27.722-.628 1.416.178 2.834.384 4.255.628 51.081 8.777 85.379 57.309 76.602 108.389-7.162 41.683-40.787 72.179-80.669 77.23 49.494 6.224 95.601-27.562 104.135-77.23 8.778-51.08-25.52-99.611-76.601-108.389z" fill="#ffc344"/></g><path d="m350.585 236.86 59.005-7.247 12.987 105.736c.211 1.715-1.009 3.276-2.724 3.487l-21.739 2.67c-1.715.211-2.935 1.772-2.724 3.487l2.098 17.081c.211 1.715 1.772 2.935 3.487 2.724l21.739-2.67c1.715-.211 3.276 1.009 3.487 2.724l2.098 17.081c.211 1.715-1.009 3.276-2.724 3.487l-21.739 2.67c-1.715.211-2.935 1.772-2.724 3.487l2.098 17.081c.211 1.715 1.772 2.935 3.487 2.724l24.844-3.051 5.933 48.303c.151 1.231-.191 2.471-.951 3.45l-13.266 17.088c-.766.987-1.895 1.628-3.135 1.78l-19.416 2.385c-1.24.152-2.49-.196-3.473-.969l-17.007-13.369c-.975-.766-1.607-1.887-1.758-3.118z" fill="#ffc344"/><g fill="#feb237"><path d="m386.299 232.474 13.368 108.842 20.186-2.479c1.715-.211 2.935-1.772 2.724-3.487l-12.987-105.737z"/><path d="m414.181 459.494c.151 1.231-.191 2.471-.951 3.45l-13.266 17.088c-.349.449-.775.822-1.25 1.114.637.202 1.314.273 1.99.19l19.416-2.385c1.24-.152 2.369-.793 3.135-1.78l13.266-17.088c.76-.979 1.102-2.22.951-3.45l-5.933-48.303-23.292 2.861z"/><path d="m405.388 387.899 20.186-2.479c1.715-.211 2.935-1.772 2.724-3.487l-2.098-17.081c-.211-1.715-1.772-2.935-3.487-2.724l-20.186 2.479z"/></g><path d="m365.569 115.008c-51.451 6.319-88.029 53.15-81.71 104.592 6.319 51.451 53.142 88.03 104.592 81.71 51.443-6.318 88.03-53.142 81.71-104.592-6.318-51.443-53.149-88.028-104.592-81.71zm11.166 90.916c-16.294 2.001-31.12-9.581-33.121-25.875-2-16.286 9.581-31.12 25.875-33.121 16.286-2 31.121 9.589 33.121 25.875 2.001 16.293-9.589 31.12-25.875 33.121z" fill="#ffd15b"/><g><path d="m365.569 115.008c-9.472 1.163-18.437 3.704-26.726 7.389 1.407-.238 2.825-.45 4.255-.625 51.443-6.318 98.274 30.268 104.592 81.71 5.156 41.978-18.252 80.872-54.985 97.203 49.188-8.306 83.599-53.947 77.456-103.967-6.318-51.443-53.149-88.028-104.592-81.71z" fill="#ffc344"/></g><path d="m164.129 50.84c-4.027-.972-8.079 1.505-9.051 5.531-12.933 53.576-24.325 72.641-24.506 72.938-2.174 3.508-1.104 8.117 2.399 10.309 1.236.772 2.611 1.142 3.97 1.142 2.499 0 4.942-1.249 6.366-3.524.511-.816 12.669-20.659 26.353-77.345.972-4.026-1.505-8.078-5.531-9.051z" fill="#a8d3d8"/><path d="m367.374 154.214c-19.139-42.415-31.079-97.119-31.197-97.667-.875-4.048-4.858-6.627-8.915-5.746-4.049.874-6.621 4.865-5.747 8.913.496 2.298 12.382 56.777 32.188 100.67 1.252 2.774 3.982 4.417 6.841 4.417 1.031 0 2.079-.214 3.08-.666 3.774-1.703 5.454-6.144 3.75-9.921z" fill="#a8d3d8"/><path d="m511.857 36.68c-.802-4.063-4.736-6.713-8.81-5.907-64.936 12.806-152.672 19.858-247.047 19.858s-182.111-7.052-247.048-19.858c-4.064-.801-8.008 1.844-8.81 5.907-.801 4.063 1.844 8.008 5.907 8.81 65.864 12.988 154.631 20.141 249.951 20.141s184.087-7.153 249.95-20.141c4.063-.802 6.708-4.746 5.907-8.81z" fill="#8ebac5"/></g></svg>