<svg id="Layer_1" enable-background="new 0 0 512 512" height="512" viewBox="0 0 512 512" width="512" xmlns="http://www.w3.org/2000/svg"><g><g><path d="m452.533 268.207-185.926-185.927c-5.855-5.858-15.354-5.858-21.213 0l-185.927 185.925c-2.813 2.813-4.394 6.629-4.394 10.606v178.022c0 30.419 24.748 55.166 55.167 55.166h97.561c8.284 0 15-6.716 15-15v-113.533h66.4v113.534c0 8.284 6.716 15 15 15h97.56c30.419 0 55.166-24.747 55.166-55.166v-178.021c0-3.979-1.58-7.794-4.394-10.606z" fill="#e7f0ef"/><path d="m452.533 268.207-185.926-185.927c-2.929-2.93-6.767-4.394-10.606-4.394v305.579h33.2v113.535c0 8.284 6.716 15 15 15h97.56c30.419 0 55.166-24.747 55.166-55.166v-178.021c0-3.979-1.58-7.794-4.394-10.606z" fill="#c5e1e6"/><path d="m425.86 0h-64.267c-8.284 0-15 6.716-15 15v92.229c0 3.979 1.58 7.794 4.394 10.606l64.267 64.266c2.87 2.87 6.706 4.394 10.609 4.394 1.933 0 3.882-.373 5.737-1.142 5.605-2.322 9.26-7.792 9.26-13.858v-156.495c0-8.284-6.715-15-15-15z" fill="#b24d00"/></g><path d="m498.158 222.579-208.738-208.737c-8.927-8.926-20.795-13.842-33.419-13.842-12.625 0-24.494 4.916-33.42 13.842l-208.738 208.74c-18.428 18.426-18.428 48.41 0 66.837 8.927 8.927 20.795 13.843 33.419 13.843 12.625 0 24.493-4.917 33.418-13.844l175.321-175.318 175.319 175.319c8.926 8.926 20.793 13.842 33.416 13.843h.003c12.622 0 24.49-4.916 33.419-13.844 18.428-18.428 18.428-48.411 0-66.839z" fill="#ff9f00"/><path d="m498.158 222.579-208.738-208.737c-8.927-8.926-20.795-13.842-33.419-13.842v114.1l175.319 175.319c8.926 8.926 20.793 13.842 33.416 13.843h.003c12.622 0 24.49-4.916 33.419-13.844 18.428-18.428 18.428-48.411 0-66.839z" fill="#ff641a"/></g></svg>