<svg id="icon" height="512" viewBox="0 0 128 128" width="512" xmlns="http://www.w3.org/2000/svg"><path d="m30.533 29.464a2.2 2.2 0 0 0 -2.2 2.2v38.549a35.7 35.7 0 0 0 11.7 26.506c6.658 6.011 15.755 12.785 26.2 16.745 10.446-3.96 19.536-10.735 26.194-16.745a35.671 35.671 0 0 0 11.7-26.506v-38.55a2.2 2.2 0 0 0 -2.2-2.2zm66.583 40.749a28.689 28.689 0 0 1 -9.386 21.3 81.858 81.858 0 0 1 -21.493 14.376 81.764 81.764 0 0 1 -21.5-14.376 28.715 28.715 0 0 1 -9.386-21.3v-33.733h61.765z" fill="#575b6d"/><path d="m65.46 106.622a81.559 81.559 0 0 1 -21.377-14.28 29.788 29.788 0 0 1 -9.743-22.1v-34.654h63.785v34.656a29.767 29.767 0 0 1 -9.743 22.1 81.623 81.623 0 0 1 -21.37 14.28l-.776.339z" fill="#eeefee"/><g fill="#575b6d"><path d="m49.257 68.465h-1.6v-5.657h-6.247v5.657h-1.591v-12.02h1.591v4.936h6.248v-4.936h1.6z"/><path d="m60.489 57.872h-3.976v10.593h-1.6v-10.593h-3.943v-1.427h9.519z"/><path d="m70.746 57.872h-3.976v10.593h-1.6v-10.593h-3.943v-1.427h9.519z"/><path d="m72.46 56.445h4.485a9.454 9.454 0 0 1 2.472.275 2.663 2.663 0 0 1 1.578 1.189 3.729 3.729 0 0 1 .582 2.046 3.357 3.357 0 0 1 -1.156 2.763 5.179 5.179 0 0 1 -3.345.943h-3.026v4.8h-1.59zm1.591 5.788h3.042a3.3 3.3 0 0 0 2.185-.574 2.089 2.089 0 0 0 .651-1.659 2.3 2.3 0 0 0 -.361-1.279 1.56 1.56 0 0 0 -.914-.705 6.562 6.562 0 0 0 -1.595-.148h-3.009z"/><path d="m88.194 68.67a5.507 5.507 0 0 1 -3.8-1.14 3.98 3.98 0 0 1 -1.325-2.93h1.531a2.491 2.491 0 0 0 1.119 1.988 4.339 4.339 0 0 0 2.406.644 3.79 3.79 0 0 0 2.152-.549 1.711 1.711 0 0 0 .816-1.492 1.52 1.52 0 0 0 -.844-1.443 12.142 12.142 0 0 0 -2.907-.89 6.711 6.711 0 0 1 -2.96-1.218 2.609 2.609 0 0 1 -.9-2.074 2.932 2.932 0 0 1 1.168-2.394 4.823 4.823 0 0 1 3.1-.935 5.3 5.3 0 0 1 3.28.943 3.338 3.338 0 0 1 1.32 2.665h-1.55q-.238-2.181-2.984-2.181a3.612 3.612 0 0 0 -2.058.5 1.539 1.539 0 0 0 -.73 1.328 1.256 1.256 0 0 0 .586 1.131 7.436 7.436 0 0 0 2.189.73 20.653 20.653 0 0 1 2.546.7 4.075 4.075 0 0 1 1.615 1.07 2.752 2.752 0 0 1 .672 1.947 3.209 3.209 0 0 1 -1.234 2.574 4.871 4.871 0 0 1 -3.208 1.026z"/></g></svg>