<svg id="Capa_1" enable-background="new 0 0 490.346 490.346" height="512" viewBox="0 0 490.346 490.346" width="512" xmlns="http://www.w3.org/2000/svg"><g><path d="m158.547 1.145c-10.44 9.743-43.186 45.239 2.894 70.451 46.08-25.212 13.334-60.708 2.894-70.451-1.634-1.524-4.154-1.524-5.788 0z" fill="#b3e59f"/><path d="m161.437 71.596c-3.31-1.81-6.22-3.68-8.75-5.58 27.45-20.63 11.56-45.92 0-58.87 2.231-2.504 4.3-4.547 5.865-6.008 1.63-1.522 4.148-1.514 5.779.008 10.441 9.742 43.19 45.235-2.894 70.45z" fill="#95d6a4"/><path d="m117.931 32.222c-.32 12.744 2.009 51.522 43.51 39.375 12.148-41.5-26.631-43.829-39.375-43.51-2.264.056-4.078 1.87-4.135 4.135z" fill="#95d6a4"/><path d="m161.437 71.596c-3.16.92-6.08 1.55-8.8 1.92 3.79-28-20.06-33.67-34.58-34.57-.165-2.613-.174-4.924-.13-6.719.056-2.266 1.869-4.082 4.135-4.139 12.744-.32 51.526 2.008 39.375 43.508z" fill="#78c2a4"/><path d="m365.863 66.356c3.634 0 6.579 2.946 6.579 6.579v372.161c0 10.165-7.505 18.634-17.446 20.519-2.435.462-4.186 2.606-4.186 5.083v12.046c0 4.198-3.403 7.602-7.602 7.602h-156.002c-4.198 0-7.602-3.403-7.602-7.602v-12.046c0-2.478-1.751-4.622-4.186-5.083-9.942-1.885-17.446-10.353-17.446-20.519v-372.161c0-3.633 2.946-6.579 6.579-6.579z" fill="#d8ecfe"/><path d="m372.44 72.936v372.16c0 10.17-7.5 18.63-17.44 20.52-2.44.46-4.19 2.6-4.19 5.08v12.05c0 4.2-3.4 7.6-7.6 7.6h-13.34c4.2 0 7.6-3.4 7.6-7.6v-12.05c0-2.48 1.76-4.62 4.19-5.08 9.94-1.89 17.45-10.35 17.45-20.52v-372.16c0-3.63-2.95-6.58-6.58-6.58h13.33c3.64 0 6.58 2.95 6.58 6.58z" fill="#b3dafe"/><path d="m328.765 430.478h-127.113c-8.984 0-16.267-7.283-16.267-16.267v-290.914c0-3.76 3.048-6.807 6.807-6.807h146.032c3.76 0 6.807 3.048 6.807 6.807v290.914c.001 8.984-7.282 16.267-16.266 16.267z" fill="#fef0ae"/><path d="m345.032 123.293v290.923c0 8.98-7.28 16.26-16.26 16.26h-21.77c8.98 0 16.26-7.28 16.26-16.26v-288.968c0-3.754-2.172-7.17-5.572-8.762h20.534c3.76 0 6.808 3.048 6.808 6.807z" fill="#fee97d"/><path d="m211.555 314.257c-.442 18.33 2.908 72.829 59.959 58.329 2.209-.561 3.948-2.3 4.509-4.509 14.5-57.051-39.999-60.402-58.329-59.959-3.358.08-6.058 2.78-6.139 6.139z" fill="#95d6a4"/><path d="m276.02 368.076c-.56 2.21-2.3 3.95-4.51 4.51-3.34.85-6.51 1.46-9.49 1.86 12.14-47.76-24.25-62.35-47.18-65.57.85-.46 1.82-.74 2.85-.76 18.33-.44 72.83 2.91 58.33 59.96z" fill="#78c2a4"/><path d="m309.831 149.014c-18.38-.456-73.403 2.853-58.756 60.376.559 2.197 2.289 3.926 4.486 4.486 57.524 14.647 60.832-40.376 60.376-58.756-.082-3.34-2.765-6.023-6.106-6.106z" fill="#95d6a4"/><path d="m261.462 215.176c35.76-8.35 32.29-59.78 31.81-65.35 6.536-.824 12.434-.91 16.527-.811 3.359.082 6.053 2.774 6.136 6.133.437 17.757-2.644 69.528-54.473 60.028z" fill="#78c2a4"/><circle cx="305.75" cy="304.104" fill="#b3e59f" r="12.168"/><circle cx="232.818" cy="253.309" fill="#b3e59f" r="12.168"/><g fill="#fee97d"><circle cx="305.75" cy="248.641" r="7.5"/><circle cx="305.75" cy="396.346" r="7.5"/></g></g></svg>