<svg height="512" viewBox="0 0 512 512" width="512" xmlns="http://www.w3.org/2000/svg"><g id="_6.Cheese" data-name="6.Cheese"><path d="m467.9668 421.5539c-87.7017 82.6124-195.8606 84.4461-212.0884 84.4461-102.6073 0-175.0168-51.1541-211.19-84.1841a44.044 44.044 0 0 1 -8.42-54.547l57.7276-99.9911a36.843 36.843 0 0 1 30.44-18.2768q.252-.0108.5045-.0243a46.1654 46.1654 0 0 0 38.3395-67.5418 36.5931 36.5931 0 0 1 .6842-35.3467l75.3617-130.5365a19.118 19.118 0 0 1 33.1049 0q101.6343 176.0456 203.2821 352.1039a43.9078 43.9078 0 0 1 -7.7461 53.8983z" fill="#f5d367"/><g fill="#ffebb9"><circle cx="171.058" cy="343.844" r="48.647"/><circle cx="292.052" cy="202.892" r="29.937"/><circle cx="341.946" cy="370.038" r="29.937"/></g><path d="m64.69 421.82c34.89 31.86 103.51 80.59 200.43 83.98-4.21.18-7.35.2-9.24.2-102.61 0-175.02-51.15-211.19-84.18a44.0472 44.0472 0 0 1 -8.42-54.55l57.73-99.99a36.8282 36.8282 0 0 1 30.44-18.28c.16-.01.33-.01.5-.02a46.1779 46.1779 0 0 0 38.34-67.55 36.6014 36.6014 0 0 1 .68-35.34l75.37-130.54a19.1315 19.1315 0 0 1 26.55-6.75 18.7956 18.7956 0 0 0 -6.55 6.75l-75.37 130.54a36.6014 36.6014 0 0 0 -.68 35.34 46.1779 46.1779 0 0 1 -38.34 67.55c-.17.01-.34.01-.5.02a36.8282 36.8282 0 0 0 -30.44 18.28l-57.73 99.99a44.0472 44.0472 0 0 0 8.42 54.55z" fill="#ddbc5f"/></g></svg>