<svg id="Capa_1" enable-background="new 0 0 512 512" height="512" viewBox="0 0 512 512" width="512" xmlns="http://www.w3.org/2000/svg"><g><g><path d="m92.41 0-18.47 70.228-70.228 18.469v423.303h188.618l30-225.123-30-286.877z" fill="#fff5f5"/><path d="m192.33 0h188.617v512h-188.617z" fill="#dce6eb"/></g><path d="m92.41 0-88.698 88.697h88.698z" fill="#dce6eb"/><g><path d="m192.33 189.207h-86.312v-30h86.312l10 15z" fill="#dce6eb"/></g><g><path d="m192.33 159.207h86.312v30h-86.312z" fill="#c8d2dc"/></g><g><path d="m192.33 252.942h-86.312v-30h86.312l10 15z" fill="#dce6eb"/></g><g><path d="m192.33 222.942h52.511v30h-52.511z" fill="#c8d2dc"/></g><g><g><path d="m461.72 33.488-49.644 49.643 17.645 28.923 35.167-15.166 20.115-40.116z" fill="#6aa8ff"/><path d="m508.288 80.056-23.285-23.284-55.282 55.282 28.923 17.645z" fill="#046eff"/><g><path d="m435.36 106.415-29.496-29.496-110.072 110.072.516 19.484-21.729 1.728-126.158 126.159 15.305 43.688 135.107-115.108z" fill="#9de1f7"/><path d="m464.856 135.912-29.496-29.497-271.634 271.635 43.687 15.305 126.159-126.159.687-20.687 20.526-.526z" fill="#2fbfef"/><path d="m148.421 334.362-4.935 4.935-30.26 87.826.713.713 47.903-27.902 16.075-36.076z" fill="#607882"/><path d="m113.939 427.836.789.789 88.573-31.158 4.112-4.112-29.496-29.497z" fill="#495959"/></g></g><g><g><path d="m295.792 186.991-21.213 21.212 29.497 29.497 20.215-.216.998-20.997z" fill="#607882"/><path d="m314.43 220.984h30v41.714h-30z" fill="#495959" transform="matrix(.707 -.707 .707 .707 -74.52 303.775)"/></g></g></g></g></svg>