<svg id="Capa_1" enable-background="new 0 0 512.005 512.005" height="512" viewBox="0 0 512.005 512.005" width="512" xmlns="http://www.w3.org/2000/svg"><path d="m318.735 0h-125.464c-44.183 0-80 35.817-80 80v140.995h60v-130.996c0-16.568 13.431-30 30-30h105.464c16.569 0 30 13.431 30 30v40.95c0 8.284 6.716 15 15 15h30c8.284 0 15-6.716 15-15v-50.95c-.001-44.182-35.818-79.999-80-79.999z" fill="#53b7f5"/><path d="m318.735 0h-62.742v60h52.741c16.569 0 30 13.431 30 30v40.95c0 8.284 6.716 15 15 15h30c8.284 0 15-6.716 15-15v-50.95c0-44.183-35.817-80-79.999-80z" fill="#1a82c7"/><path d="m436.002 512.005h-360c-8.284 0-15-6.716-15-15v-276.005c0-8.284 6.716-15 15-15h360c8.284 0 15 6.716 15 15v276.005c0 8.284-6.715 15-15 15z" fill="#ffe645"/><path d="m436.002 206h-180.009v306.005h180.009c8.284 0 15-6.716 15-15v-276.005c0-8.284-6.715-15-15-15z" fill="#ffb500"/><path d="m302.5 328.378c0-26.314-21.859-47.523-48.41-46.459-23.695.95-43.101 19.961-44.502 43.634-.91 15.377 5.665 29.249 16.414 38.338v52.233c0 11.046 8.954 20 20 20h20c11.046 0 20-8.954 20-20v-52.233c10.087-8.529 16.498-21.269 16.498-35.513z" fill="#004373"/><path d="m255.993 281.893v154.232h10.009c11.046 0 20-8.954 20-20v-52.233c10.086-8.529 16.498-21.27 16.498-35.514 0-25.682-20.824-46.489-46.507-46.485z" fill="#00213b"/></svg>