<svg height="512" viewBox="0 0 58 58" width="512" xmlns="http://www.w3.org/2000/svg"><g id="Page-1" fill="none" fill-rule="evenodd"><g id="040---Mom-Love" fill-rule="nonzero"><path id="Shape" d="m29 7s4.454-7 14.5-7c8.584 0 14.5 7.553 14.5 16.5 0 12.05-11.189 20.136-27.655 34.98-.7650579.6870494-1.9249421.6870494-2.69 0-16.466-14.842-27.655-22.928-27.655-34.98 0-8.947 5.916-16.5 14.5-16.5 10.046 0 14.5 7 14.5 7z" fill="#ff5364"/><path id="Shape" d="m58 16.5c0 12.05-11.19 20.14-27.65 34.98-.767817.6898253-1.932183.6898253-2.7 0-5.31-4.79-10.07-8.87-14.08-12.61 29.18-2.16 33.65-30.81 34.31-38.16 6.15 2.07 10.12 8.46 10.12 15.79z" fill="#df4d60"/><path id="Shape" d="m14 58c-1.1045695 0-2-.8954305-2-2v-10l-2.154 5.169c-.31063214.7450975-1.03874382 1.2304001-1.846 1.2304001s-1.53536786-.4853026-1.846-1.2304001l-2.154-5.169v10c0 1.1045695-.8954305 2-2 2s-2-.8954305-2-2v-20c.0002858-.9531742.67319216-1.7736952 1.6078657-1.9605813.93467355-.1868861 1.87135302.3118015 2.2381343 1.1915813l4.154 9.969 4.154-9.969c.3667813-.8797798 1.3034608-1.3784674 2.2381343-1.1915813s1.6075799 1.0074071 1.6078657 1.9605813v20c0 1.1045695-.8954305 2-2 2z" fill="#f29c1f"/><path id="Shape" d="m56 58c-1.1045695 0-2-.8954305-2-2v-10l-2.154 5.169c-.3106321.7450975-1.0387438 1.2304001-1.846 1.2304001s-1.5353679-.4853026-1.846-1.2304001l-2.154-5.169v10c0 1.1045695-.8954305 2-2 2s-2-.8954305-2-2v-20c.0002858-.9531742.6731922-1.7736952 1.6078657-1.9605813s1.871353.3118015 2.2381343 1.1915813l4.154 9.969 4.154-9.969c.3667813-.8797798 1.3034608-1.3784674 2.2381343-1.1915813s1.6075799 1.0074071 1.6078657 1.9605813v20c0 1.1045695-.8954305 2-2 2z" fill="#f29c1f"/><path id="Shape" d="m29 38.9c1.3226102-2.3598606 3.7953653-3.8435137 6.5-3.9 3.848 0 6.5 3.363 6.5 7.347 0 5.51-5.29 8.7-13 15.653-7.71-6.957-13-10.143-13-15.653 0-3.984 2.652-7.347 6.5-7.347 2.7046347.0564863 5.1773898 1.5401394 6.5 3.9z" fill="#f0c419"/><path id="Shape" d="m37.166 35.242c-.449 4.128-3.037 15.616-17.514 14.417-.2252757-.2134424-.4382834-.4394709-.638-.677-1.927-2.119-3.014-4.14-3.014-6.634 0-3.983 2.647-7.348 6.5-7.348 2.7046347.0564863 5.1773898 1.5401394 6.5 3.9 1.3226102-2.3598606 3.7953653-3.8435137 6.5-3.9.1001521-.0022209.2003453.0017869.3.012.4636943.0139852.9232927.09137 1.366.23z" fill="#f3d55b"/></g></g></svg>