<svg height="512pt" viewBox="-139 0 512 512" width="512pt" xmlns="http://www.w3.org/2000/svg"><path d="m149.839844 425.550781-52.550782-20.015625 20.015626 106.464844h97.726562zm0 0" fill="#87a0af"/><path d="m84.769531 425.550781-65.191406 86.449219h97.726563v-106.464844zm0 0" fill="#b4d2d7"/><path d="m117.304688 437.609375c57.007812 0 104.511718-106.660156 115.097656-256.96875l-135.113282-20.015625zm0 0" fill="#b4d2d7"/><path d="m2.210938 180.640625c10.582031 150.308594 58.085937 256.96875 115.09375 256.96875v-276.984375zm0 0" fill="#e1ebf0"/><path d="m117.304688 180.640625h115.097656c1.441406-20.507813 2.207031-41.816406 2.207031-63.785156l-137.320313-20.015625zm0 0" fill="#38211a"/><path d="m117.304688 96.839844-117.304688 20.015625c0 21.96875.765625 43.28125 2.210938 63.785156h115.09375zm0 0" fill="#71390f"/><path d="m149.367188 0c-11.34375 0-22.164063 2.21875-32.0625 6.242188l-20.015626 63.421874 20.015626 47.191407h117.304687v-31.613281c0-47.078126-38.164063-85.242188-85.242187-85.242188zm0 0" fill="#efe2dd"/><path d="m117.304688 6.242188c-11.683594 4.746093-22.078126 12-30.507813 21.109374h-.003906c-5.054688-1.140624-10.3125-1.742187-15.714844-1.742187-39.253906 0-71.078125 31.824219-71.078125 71.078125v20.167969h117.304688zm0 0" fill="#fff5f5"/></svg>