<svg height="512pt" viewBox="0 -40 512 512" width="512pt" xmlns="http://www.w3.org/2000/svg"><path d="m431.445312 218.902344c0 94.375-76.507812 170.882812-170.882812 170.882812s-170.878906-76.507812-170.878906-170.882812 76.503906-170.878906 170.878906-170.878906 170.882812 76.503906 170.882812 170.878906zm0 0" fill="#d6d6d6"/><path d="m397.183594 218.902344c0 75.453125-61.167969 136.621094-136.621094 136.621094-75.449219 0-136.617188-61.167969-136.617188-136.621094s61.167969-136.617188 136.617188-136.617188c75.453125 0 136.621094 61.164063 136.621094 136.617188zm0 0" fill="#f7f5f5"/><path d="m260.5625 82.285156c-9.320312 0-18.421875.9375-27.21875 2.714844 62.410156 12.617188 109.398438 67.773438 109.398438 133.902344 0 66.132812-46.988282 121.285156-109.398438 133.90625 8.796875 1.777344 17.898438 2.714844 27.21875 2.714844 75.453125 0 136.621094-61.167969 136.621094-136.617188 0-75.453125-61.167969-136.621094-136.621094-136.621094zm0 0" fill="#ededed"/><path d="m511.566406 4.847656c.285156 145.867188.433594 400.089844.433594 400.089844 0 19.117188-8.734375 28.023438-20.824219 28.023438-12.089843 0-20.175781-8.90625-20.175781-28.023438 0-16.746094 12.226562-96.820312 12.226562-141.890625v-36.789063c-9.382812 1.214844-21.914062-5.753906-21.914062-13.828124v-118.769532c0-36.375 19.074219-70.082031 50.253906-88.8125zm0 0" fill="#f2ca20"/><path d="m511.566406 4.847656c.113282 58.410156.207032 151.023438.277344 220.898438l-28.617188.511718c-9.378906 1.214844-21.910156-5.753906-21.910156-13.828124v-118.769532c-.003906-36.375 19.070313-70.082031 50.25-88.8125zm0 0" fill="#ffe471"/><g fill="#f2ca20"><path d="m33.578125 76.117188c-4.269531 0-7.726563-3.460938-7.726563-7.726563v-60.664063c0-4.269531 3.457032-7.726562 7.726563-7.726562 4.265625 0 7.726563 3.460938 7.726563 7.726562v60.664063c0 4.265625-3.460938 7.726563-7.726563 7.726563zm0 0"/><path d="m7.726562 76.117188c-4.269531 0-7.726562-3.460938-7.726562-7.726563v-60.664063c0-4.269531 3.460938-7.726562 7.726562-7.726562 4.265626 0 7.726563 3.460938 7.726563 7.726562v60.664063c0 4.265625-3.460937 7.726563-7.726563 7.726563zm0 0"/><path d="m59.429688 76.117188c-4.269532 0-7.726563-3.460938-7.726563-7.726563v-60.664063c0-4.269531 3.457031-7.726562 7.726563-7.726562 4.265624 0 7.722656 3.460938 7.722656 7.726562v60.664063c0 4.265625-3.457032 7.726563-7.722656 7.726563zm0 0"/><path d="m0 68.390625v39.53125c0 6.421875 3.640625 14.042969 9.171875 17.304687 5.488281 3.238282 9.878906 14.792969 9.878906 20.910157v58.054687c0 47.554688-.453125 95.078125-5.570312 142.355469-3.054688 28.210937-4.851563 53.164063-4.851563 58.804687 0 14.363282 10.589844 26.003907 24.949219 26.003907s24.949219-11.640625 24.949219-26.003907c0-5.640624-1.796875-30.59375-4.851563-58.800781-5.121093-47.277343-5.574219-94.804687-5.574219-142.355469v-57.625c0-8.054687 5.589844-18.136718 12.261719-22.65625 4.828125-3.269531 6.789063-10.261718 6.789063-15.992187v-39.53125zm0 0"/></g><path d="m0 68.390625v39.53125c0 6.421875 3.640625 14.042969 9.171875 17.304687 5.488281 3.238282 9.878906 14.792969 9.878906 20.910157l29.050781.4375c0-8.054688 5.589844-18.140625 12.261719-22.65625 4.828125-3.269531 6.789063-10.265625 6.789063-15.996094v-39.53125zm0 0" fill="#ffe471"/></svg>