<svg height="512pt" viewBox="-16 0 512 512.00199" width="512pt" xmlns="http://www.w3.org/2000/svg"><path d="m418.664062 185.097656v298.128906c0 15.890626-12.941406 28.777344-28.90625 28.777344h-299.503906c-15.972656 0-28.917968-12.890625-28.917968-28.785156v-298.121094c0-15.898437 12.945312-28.785156 28.917968-28.785156h299.492188c15.972656 0 28.917968 12.886719 28.917968 28.785156zm0 0" fill="#ddebf0"/><path d="m418.664062 185.085938v298.140624c0 15.890626-12.941406 28.777344-28.90625 28.777344h-150.558593v-355.691406h150.558593c15.964844 0 28.90625 12.882812 28.90625 28.773438zm0 0" fill="#c5e1e6"/><path d="m453.21875 261.15625h-426.4375c-23.941406 0-35.808594-28.925781-18.703125-45.605469l213.21875-207.960937c4.988281-4.867188 11.429687-7.390625 17.902344-7.5781252 7.023437-.2148438 14.109375 2.3085932 19.515625 7.5781252l213.214844 207.960937c17.097656 16.679688 5.230468 45.605469-18.710938 45.605469zm0 0" fill="#a7eaf9"/><path d="m306.105469 344.988281v167.011719h-128.734375v-167.011719c0-15.339843 12.492187-27.761719 27.890625-27.761719h72.953125c15.398437 0 27.890625 12.421876 27.890625 27.761719zm0 0" fill="#fed317"/><path d="m453.21875 261.15625h-214.019531v-261.140625c7.023437-.21875 14.109375 2.304687 19.515625 7.578125l213.214844 207.957031c17.097656 16.679688 5.230468 45.605469-18.710938 45.605469zm0 0" fill="#76e1f7"/><path d="m306.105469 344.988281v167.011719h-66.90625v-194.773438h39.015625c15.398437 0 27.890625 12.421876 27.890625 27.761719zm0 0" fill="#fe9e0f"/></svg>