<svg height="512" viewBox="0 0 58 54" width="512" xmlns="http://www.w3.org/2000/svg"><g id="Page-1" fill="none" fill-rule="evenodd"><g id="040---Audio-Message"><path id="Path" d="m58 8v28c0 4.418278-3.581722 8-8 8h-14l-5.31 8.35c-.3696438.5750858-1.0063625.9227307-1.69.9227307s-1.3203562-.3476449-1.69-.9227307l-5.31-8.35h-14c-4.418278 0-8-3.581722-8-8v-28c0-4.418278 3.581722-8 8-8h42c4.418278 0 8 3.581722 8 8z" fill="#b0d3f0"/><path id="Path" d="m29 35c-.5522847 0-1-.4477153-1-1v-4c0-.5522847.4477153-1 1-1s1 .4477153 1 1v4c0 .5522847-.4477153 1-1 1z" fill="#7f8c8d"/><path id="Path" d="m4 9c-.55228475 0-1-.44771525-1-1 .00330612-2.76005315 2.23994685-4.99669388 5-5 .55228475 0 1 .44771525 1 1s-.44771525 1-1 1c-1.65685425 0-3 1.34314575-3 3 0 .55228475-.44771525 1-1 1z" fill="#ecf0f1"/><path id="Path" d="m50 41c-.5522847 0-1-.4477153-1-1s.4477153-1 1-1c1.6568542 0 3-1.3431458 3-3 0-.5522847.4477153-1 1-1s1 .4477153 1 1c-.0033061 2.7600532-2.2399468 4.9966939-5 5z" fill="#90bae1"/><path id="Path" d="m35 12v8c0 3.3137085-2.6862915 6-6 6s-6-2.6862915-6-6v-8c0-3.3137085 2.6862915-6 6-6 3.3116533.00495634 5.9950437 2.68834666 6 6z" fill="#3b97d3"/><path id="Path" d="m29 31c-6.0721626-.0071635-10.9928365-4.9278374-11-11 0-.5522847.4477153-1 1-1s1 .4477153 1 1c0 4.9705627 4.0294373 9 9 9s9-4.0294373 9-9c0-.5522847.4477153-1 1-1s1 .4477153 1 1c-.0071635 6.0721626-4.9278374 10.9928365-11 11z" fill="#95a5a5"/><path id="Path" d="m26 34h6c1.6568542 0 3 1.3431458 3 3 0 .5522847-.4477153 1-1 1h-10c-.5522847 0-1-.4477153-1-1 0-1.6568542 1.3431458-3 3-3z" fill="#95a5a5"/><g fill="#2980ba"><path id="Path" d="m27 18c0 .5522847-.4477153 1-1 1h-3v-2h3c.5522847 0 1 .4477153 1 1z"/><path id="Path" d="m27 14c0 .5522847-.4477153 1-1 1h-3v-2h3c.5522847 0 1 .4477153 1 1z"/><path id="Path" d="m35 17v2h-3c-.5522847 0-1-.4477153-1-1s.4477153-1 1-1z"/><path id="Path" d="m35 13v2h-3c-.5522847 0-1-.4477153-1-1s.4477153-1 1-1z"/></g></g></g></svg>