<svg id="Capa_1" enable-background="new 0 0 510 510" height="512" viewBox="0 0 510 510" width="512" xmlns="http://www.w3.org/2000/svg"><g id="XMLID_3647_"><path id="XMLID_3674_" d="m195.01 60v131.005c-7.237 12.622-123.157 214.806-130.408 227.453-24.753 40.03 4.062 91.542 51.039 91.542h139.368l15-225-15-225-30-15z" fill="#e6f0f2"/><path id="XMLID_3671_" d="m445.418 418.458c-7.237-12.622-123.157-214.806-130.408-227.453 0-15.927 0-115.04 0-131.005l-30-15-30 15v450h139.368c47.214 0 75.667-51.715 51.04-91.542z" fill="#cfdfe6"/><g id="XMLID_3666_"><path id="XMLID_3670_" d="m201.478 280.362c-7.988-.542-16.03-.071-23.932 1.408l-43.673 76.165c-43.898 78.455-47.958 78.877-48.283 91.275-.422 16.138 12.397 30.79 30.051 30.79h139.368l15-95.064-15-95.065h-.005c-31.285-1.263-28.996-7.845-53.526-9.509z" fill="#ff637b"/><path id="XMLID_3667_" d="m419.672 433.855-87.202-152.083-47.461 3.228h-.004-.005l-29.99 4.87v190.13h139.368z" fill="#e63950"/></g><g id="XMLID_3661_"><path id="XMLID_3665_" d="m165.01 30v30h90l14.999-15-14.999-15z" fill="#cfdfe6"/><path id="XMLID_3662_" d="m255.01 30h90v30h-90z" fill="#a3b8cc"/></g><g id="XMLID_3658_"><path id="XMLID_3660_" d="m165.01 0v30h90l14.999-15-14.999-15z" fill="#e6f0f2"/><path id="XMLID_3659_" d="m255.01 0h90v30h-90z" fill="#cfdfe6"/></g><g id="XMLID_3654_"><g><g id="XMLID_935_"><path d="m330.009 420h30v30h-30z" fill="#fdbf00"/></g></g></g><g id="XMLID_3650_"><g><g id="XMLID_950_"><path d="m285.009 360h30v30h-30z" fill="#fdbf00"/></g></g></g><g id="XMLID_3648_"><circle id="XMLID_3649_" cx="195.01" cy="405" fill="#ffda2d" r="30"/></g></g></svg>