<svg height="512" viewBox="0 0 48 48" width="512" xmlns="http://www.w3.org/2000/svg"><g id="scissors"><path d="m30.93 26.89-4.26 3.55-11.9-19.82a10.85 10.85 0 0 1 -.77-9.62c21.21 32.44.57.86 16.93 25.89z" fill="#dad7e5"/><path d="m30.08 25.59a3.8 3.8 0 0 1 -5.7-1c-10.52-17.5-12.38-18.59-10.38-23.59 17.09 26.13 10.66 16.28 16.08 24.59z" fill="#edebf2"/><path d="m21.39 30.49c-.77-.64-.11-.07-4.69-3.91a1 1 0 0 0 -1.35.07l-2.92 2.92c-1.43 1.43-4.81.04-6.27 3.34l-3.1 7.09a5 5 0 0 0 4.59 7h3.88a4 4 0 0 0 3.58-2.21l6.54-13.08a1 1 0 0 0 -.26-1.22zm-14.2 10.25c0-.38.1-.43 2.07-4.93.65-1.5 2.1-1.18 3.33-1.08a2 2 0 0 1 1.63 2.89c-2.75 5.5-2.22 5.38-5.04 5.38a2 2 0 0 1 -1.99-2.26z" fill="#db5669"/><path d="m16.7 26.58a1 1 0 0 0 -1.35.07c-3 3-3.13 3.3-3.94 3.47-2.28.45-4.25.52-5.25 2.79-3.08 7.09-3.93 8.09-3.37 10.28 1.82 2.21 3.87 1.81 7.74 1.81a4 4 0 0 0 3.58-2.21l6.48-13zm-2.48 11c-2.75 5.54-2.22 5.42-5.04 5.42a2 2 0 0 1 -2-2.26c0-.38.1-.43 2.07-4.93.65-1.5 2.1-1.18 3.33-1.08a2 2 0 0 1 1.64 2.89z" fill="#f26674"/><path d="m34.78 5c0 4-.66 4.1-13.45 25.41l-4.26-3.55c1.33-1.98-1.23 1.93 16.93-25.86a11 11 0 0 1 .78 4z" fill="#dad7e5"/><path d="m34.73 4a10.86 10.86 0 0 1 -1.5 4.61l-9.62 16a3.8 3.8 0 0 1 -5.69 1c-.1-.08-.84 1.28 16.08-24.6a11 11 0 0 1 .73 2.99z" fill="#edebf2"/><path d="m44.94 40-3.1-7.09a4 4 0 0 0 -2.84-2.32c-3.66-.73-2.38 0-6.31-3.94a1 1 0 0 0 -1.35-.07c-4.86 4.07-5.4 4.19-4.95 5.13l6.54 13.08a4 4 0 0 0 3.54 2.21h3.88a5 5 0 0 0 4.59-7zm-10.36-5c.46-.29.81-.26 2.17-.37a2 2 0 0 1 2 1.19l1.92 4.39a2 2 0 0 1 -1.85 2.79c-2.81 0-2.25.2-5-5.38a2 2 0 0 1 .76-2.62z" fill="#db5669"/><path d="m41.84 32.91a4 4 0 0 0 -2.84-2.32c-3.66-.73-2.38 0-6.31-3.94a1 1 0 0 0 -1.35-.07l-3.89 3.25 6.48 13a4 4 0 0 0 3.54 2.17c3.48 0 5.88.44 7.74-1.81.55-2.19-.16-2.94-3.37-10.28zm-3.02 10.09c-2.81 0-2.25.2-5-5.38a2 2 0 0 1 .8-2.63c.46-.29.81-.26 2.17-.37a2 2 0 0 1 2 1.19l1.92 4.39a2 2 0 0 1 -1.89 2.8z" fill="#f26674"/><path d="m23.29 21.71a1 1 0 0 1 1.09-1.63 1 1 0 1 1 -1.09 1.63z" fill="#c6c3d8"/></g></svg>