<svg id="Capa_1" enable-background="new 0 0 512 512" height="512" viewBox="0 0 512 512" width="512" xmlns="http://www.w3.org/2000/svg"><g><path d="m387.131 22.701c1.291-4.671-.704-9.68-4.853-12.185-16.383-9.89-37.033-12.275-56.183-4.648s-32.506 23.555-37.604 42.001c-1.291 4.671.704 9.68 4.853 12.185 16.383 9.89 37.033 12.275 56.183 4.648 19.151-7.627 32.507-23.555 37.604-42.001z" fill="#00c53b"/><path d="m319.662 60.055c-4.148-2.504-6.144-7.514-4.853-12.185 5.098-18.446 18.454-34.374 37.604-42.001 3.38-1.346 6.808-2.374 10.25-3.11-11.822-2.524-24.492-1.699-36.568 3.11-19.15 7.627-32.506 23.556-37.604 42.001-1.291 4.671.704 9.68 4.853 12.185 13.491 8.144 29.875 11.193 45.933 7.758-6.926-1.479-13.562-4.105-19.615-7.758z" fill="#00b327"/><path d="m340.098 99.444c-9.665 0-19.123 1.024-28.296 2.982-13.524 2.886-27.46 2.886-40.983 0-9.173-1.957-18.63-2.982-28.296-2.982-69.43 0-128.171 52.727-147.707 125.323l228.697 229.945c5.449.671 10.98 1.026 16.584 1.026 85.394 0 154.619-79.759 154.619-178.147s-69.225-178.147-154.618-178.147z" fill="#ffa90f"/><g><g><path d="m181.683 277.591c0-84.415 50.96-155.113 119.368-173.492-10.082 1.007-20.269.453-30.233-1.673-9.173-1.957-18.63-2.982-28.296-2.982-69.43 0-128.171 52.727-147.707 125.323l90.422 90.915c-2.32-12.274-3.554-25.015-3.554-38.091z" fill="#ff9a00"/></g></g><g><path d="m449.703 271.937c-4.004 0-7.385-3.094-7.678-7.151-3.319-45.979-24.248-87.157-57.419-112.978-3.358-2.614-3.962-7.455-1.348-10.813 2.615-3.358 7.456-3.963 10.814-1.348 36.61 28.496 59.69 73.703 63.323 124.029.307 4.245-2.886 7.935-7.131 8.241-.187.014-.375.02-.561.02z" fill="#ffc20c"/></g><g><path d="m291.31 112.296c-4.256 0-7.706-3.45-7.706-7.706 0-62.794-32.936-89.722-34.339-90.836-3.32-2.642-3.894-7.48-1.268-10.812 2.626-3.33 7.438-3.924 10.781-1.313 1.643 1.283 40.237 32.241 40.237 102.962.001 4.256-3.449 7.705-7.705 7.705z" fill="#74d579"/></g><g><path d="m284.045 63.854c-3.44 0-6.574-2.32-7.462-5.805-1.05-4.125 1.441-8.319 5.566-9.369 41.522-10.576 70.053-27.377 70.336-27.545 3.658-2.176 8.387-.973 10.562 2.685s.973 8.386-2.685 10.561c-1.235.734-30.75 18.114-74.409 29.233-.639.162-1.279.24-1.908.24z" fill="#74d579"/></g><path d="m94.523 434.761c58.445 58.445 152.837 58.999 211.985 1.698l-213.683-213.683c-57.301 59.148-56.747 153.54 1.698 211.985z" fill="#ffd301"/><g><path d="m121.447 449.543c-44.824-62.327-44.84-143.27-6.34-204.485l-22.282-22.282c-57.301 59.149-56.747 153.54 1.698 211.985 11.025 11.025 23.33 19.986 36.435 26.892-3.305-3.873-6.485-7.903-9.511-12.11z" fill="#ffc20c"/></g><path d="m244.708 467.943-34.144-127.427-21.796-21.795-127.427-34.145c-1.666-.447-3.346-.305-4.833.286-1.185 4.002-2.211 8.041-3.058 12.11.981 1.17 2.315 2.064 3.903 2.489l112.542 30.155-112.543 30.157c-1.28.343-2.398.989-3.297 1.84 1.004 4.408 2.206 8.78 3.61 13.101.547.123 1.104.209 1.677.209.66 0 1.331-.085 1.999-.265l112.542-30.156-82.386 82.386c-.825.826-1.416 1.794-1.788 2.823 1.561 1.709 3.161 3.395 4.815 5.049 1.654 1.653 3.339 3.254 5.048 4.815 1.029-.373 1.998-.963 2.823-1.788l82.386-82.386-30.156 112.541c-.333 1.243-.338 2.495-.075 3.67 4.327 1.406 8.705 2.61 13.119 3.616.851-.9 1.499-2.016 1.842-3.296l30.156-112.542 30.156 112.542c.426 1.591 1.334 2.916 2.509 3.898 4.062-.846 8.094-1.871 12.089-3.054.591-1.487.733-3.168.287-4.833z" fill="#fee55a"/><g fill="#ffd301"><path d="m87.213 351.772c-32.536 8.718-31.271 8.057-33.158 9.841 2.217 9.113 3.61 13.101 3.61 13.101 2.69.606 1.314.577 30.974-7.37-.7-5.179-1.172-10.375-1.426-15.572z"/><path d="m90.259 308.28c.964-5.048 2.137-10.056 3.521-15.011-35.337-9.468-34.105-9.665-37.272-8.406-1.948 6.574-2.816 11.082-3.058 12.11 2.081 2.482.88 1.68 36.809 11.307z"/><path d="m99.582 439.571c2.091-.761 2.241-1.212 9.945-8.916-2.634-4.791-5.038-9.659-7.203-14.593-11.909 11.909-11.854 11.546-12.616 13.651 3.422 3.747 6.199 6.499 9.874 9.858z"/></g><path d="m95.286 225.237-17.053-17.053c-4.518-4.518-11.897-4.209-16.091.611-62.603 71.942-59.684 181.111 8.775 249.57s177.629 71.379 249.57 8.775c4.82-4.194 5.129-11.573.611-16.091l-17.053-17.053c-57.786 55.981-150.003 55.44-207.102-1.659s-57.638-149.314-1.657-207.1z" fill="#ffc20c"/><g><path d="m125.058 454.376c-10.014-6.052-19.468-13.392-28.113-22.037-57.098-57.099-57.64-149.316-1.659-207.102l-17.053-17.053c-4.519-4.518-11.897-4.209-16.091.611-62.603 71.942-59.683 181.111 8.775 249.57 35.767 35.767 82.647 53.632 129.524 53.622-28.892-11.853-55.083-31.229-75.383-57.611z" fill="#ffa90f"/></g></g></svg>