<svg height="511pt" viewBox="-6 0 511 511.9994" width="511pt" xmlns="http://www.w3.org/2000/svg"><path d="m323.515625 241.871094-75.882813-75.882813-233.765624 233.761719c-17.824219 17.824219-17.824219 46.722656 0 64.546875l43.613281 43.609375c6.105469 6.109375 15.789062 5.257812 19.195312-1.742188 4.820313-9.90625 3.378907-17.898437 15.523438-30.042968 16.625-16.625 25.464843-7.785156 42.09375-24.414063 16.625-16.625 7.785156-25.464843 24.414062-42.09375 16.625-16.625 25.464844-7.785156 42.089844-24.410156 16.628906-16.628906 7.789063-25.46875 24.417969-42.097656 16.625-16.625 25.464844-7.785157 42.09375-24.414063s7.789062-25.46875 24.417968-42.097656c12.148438-12.148438 20.136719-10.703125 30.046876-15.527344 7-3.40625 7.851562-13.089844 1.742187-19.195312zm0 0" fill="#d7d9cc"/><path d="m323.515625 241.871094-28.789063-28.789063c6.109376 6.105469 5.257813 15.789063-1.742187 19.199219-9.910156 4.820312-17.898437 3.378906-30.046875 15.523438-16.628906 16.632812-7.789062 25.472656-24.417969 42.101562-16.625 16.625-25.46875 7.785156-42.09375 24.414062-16.628906 16.625-7.789062 25.464844-24.414062 42.09375-16.628907 16.625-25.46875 7.785157-42.09375 24.414063-16.628907 16.625-7.789063 25.464844-24.414063 42.089844-16.625 16.628906-25.46875 7.789062-42.09375 24.414062-12.148437 12.144531-10.703125 20.136719-15.523437 30.042969-3.40625 7-13.089844 7.851562-19.199219 1.742188l28.792969 28.789062c6.105469 6.109375 15.789062 5.257812 19.195312-1.742188 4.820313-9.90625 3.378907-17.898437 15.523438-30.042968 16.625-16.625 25.464843-7.785156 42.09375-24.414063 16.625-16.625 7.785156-25.464843 24.414062-42.09375 16.625-16.625 25.464844-7.785156 42.089844-24.410156 16.628906-16.628906 7.789063-25.46875 24.417969-42.097656 16.625-16.625 25.464844-7.785157 42.089844-24.414063 16.632812-16.628906 7.789062-25.46875 24.417968-42.097656 12.148438-12.148438 20.140625-10.703125 30.046875-15.527344 7.003907-3.40625 7.855469-13.089844 1.746094-19.195312zm0 0" fill="#bebfb5"/><path d="m395.746094 234.535156-130.472656-130.472656c-10.984376-10.984375-28.796876-10.984375-39.78125 0-10.984376 10.984375-10.984376 28.796875 0 39.785156l130.472656 130.46875c10.984375 10.988282 28.796875 10.988282 39.78125 0 10.984375-10.984375 10.984375-28.796875 0-39.78125zm0 0" fill="#5b96d1"/><path d="m395.746094 234.535156-32.480469-32.480468c10.984375 10.984374 10.984375 28.792968 0 39.78125-10.988281 10.984374-28.796875 10.984374-39.785156 0l32.484375 32.480468c10.984375 10.988282 28.796875 10.988282 39.78125 0 10.984375-10.984375 10.984375-28.796875 0-39.78125zm0 0" fill="#4081c2"/><path d="m476.390625 23.421875c-31.230469-31.230469-81.859375-31.230469-113.085937 0l-89.335938 89.335937 113.085938 113.085938 89.335937-89.335938c31.226563-31.230468 31.226563-81.859374 0-113.085937zm0 0" fill="#3b484a"/><path d="m476.390625 23.421875c-5.867187-5.867187-12.421875-10.632813-19.402344-14.292969 15.832031 30.167969 11.066407 68.324219-14.292969 93.683594l-89.335937 89.335938 33.695313 33.695312 89.335937-89.335938c31.226563-31.230468 31.226563-81.859374 0-113.085937zm0 0" fill="#303f40"/></svg>