<svg height="512" viewBox="0 0 59 58" width="512" xmlns="http://www.w3.org/2000/svg"><g id="Page-1" fill="none" fill-rule="evenodd"><g id="040---Gear-Sliders"><path id="Path" d="m29.52 1v56c0 .5522847-.4477153 1-1 1h-1.32c-.5728325-.0010317-1.1066273-.2904838-1.42-.77l-2.04-3.08-7.29-3.02-3.62.74c-.5610882.1156624-1.1428413-.0569869-1.55-.46l-3.8-3.8c-.40301307-.4071587-.5756624-.9889118-.46-1.55l.74-3.62-3.02-7.29-3.084-2.036c-.47807382-.3160883-.76574978-.8508802-.766-1.424v-5.39c.00023965-.5684045.2856982-1.0987564.76-1.412l3.09-2.04 3.02-7.29-.74-3.62c-.1156624-.5610882.05698693-1.1428413.46-1.55l3.8-3.8c.4071587-.40301307.9889118-.5756624 1.55-.46l3.62.74 7.29-3.02 2.04-3.08c.3138368-.47875369.8475506-.76741017 1.42-.768h1.32c.5522847 0 1 .44771525 1 1z" fill="#bdc3c7"/><path id="Path" d="m39 36.35v-34.35c.0028231-.53059053-.2101411-1.0395388-.59-1.41-.3704612-.3798589-.8794095-.59282307-1.41-.59-1.1032019.0032948-1.9967052.89679813-2 2v54c0 1.1045695.8954305 2 2 2s2-.8954305 2-2z" fill="#285680"/><circle id="Oval" cx="37" cy="42" fill="#9fc9d3" r="6"/><path id="Path" d="m51 23.65v32.35c.0032948 1.1032019.8967981 1.9967052 2 2 1.1011688-.0081672 1.9918328-.8988312 2-2v-54c0-1.1045695-.8954305-2-2-2s-2 .8954305-2 2z" fill="#285680"/><circle id="Oval" cx="53" cy="18" fill="#9fc9d3" r="6"/><path id="Path" d="m29.52 9.01v39.98c-10.7940968-.3414674-19.3676235-9.1905034-19.3676235-19.99s8.5735267-19.64853262 19.3676235-19.99z" fill="#7f8c8d"/></g></g></svg>