<?xml version="1.0" encoding="iso-8859-1"?>
<!-- Generator: Adobe Illustrator 19.0.0, SVG Export Plug-In . SVG Version: 6.00 Build 0)  -->
<svg xmlns="http://www.w3.org/2000/svg" xmlns:xlink="http://www.w3.org/1999/xlink" version="1.1" id="Capa_1" x="0px" y="0px" viewBox="0 0 512 512" style="enable-background:new 0 0 512 512;" xml:space="preserve">
<polygon style="fill:#9F9F9F;" points="286.905,0 317.811,92.716 271.453,92.716 271.453,0 "/>
<polygon style="fill:#BFBFBF;" points="271.453,0 286.905,92.716 194.189,92.716 225.095,0 "/>
<polygon style="fill:#9F9F9F;" points="458.872,96.834 415.166,184.248 382.386,151.468 447.946,85.908 "/>
<polygon style="fill:#BFBFBF;" points="447.946,85.908 393.313,162.395 327.752,96.834 415.166,53.127 "/>
<polygon style="fill:#9F9F9F;" points="512,286.905 419.284,317.811 419.284,271.453 512,271.453 "/>
<polygon style="fill:#BFBFBF;" points="512,271.453 419.284,286.905 419.284,194.189 512,225.095 "/>
<polygon style="fill:#9F9F9F;" points="415.166,458.872 327.752,415.166 360.532,382.386 426.092,447.946 "/>
<polygon style="fill:#BFBFBF;" points="426.092,447.946 349.605,393.313 415.166,327.752 458.872,415.166 "/>
<polygon style="fill:#9F9F9F;" points="225.095,512 194.189,419.284 240.547,419.284 240.547,512 "/>
<polygon style="fill:#BFBFBF;" points="240.547,512 225.095,419.284 317.811,419.284 286.905,512 "/>
<polygon style="fill:#9F9F9F;" points="53.127,415.166 96.834,327.752 129.614,360.532 64.054,426.092 "/>
<polygon style="fill:#BFBFBF;" points="64.054,426.092 118.687,349.605 184.248,415.166 96.834,458.872 "/>
<polygon style="fill:#9F9F9F;" points="0,225.095 92.716,194.189 92.716,240.547 0,240.547 "/>
<polygon style="fill:#BFBFBF;" points="0,240.547 92.716,225.095 92.716,317.811 0,286.905 "/>
<polygon style="fill:#9F9F9F;" points="96.834,53.127 184.248,96.834 151.468,129.614 85.908,64.054 "/>
<g>
	<polygon style="fill:#BFBFBF;" points="85.908,64.054 162.395,118.687 96.834,184.248 53.127,96.834  "/>
	<path style="fill:#BFBFBF;" d="M256,55.115C145.055,55.115,55.115,145.054,55.115,256S145.055,456.885,256,456.885   S456.885,366.946,456.885,256S366.946,55.115,256,55.115z M256,364.169c-59.74,0-108.169-48.429-108.169-108.169   S196.26,147.831,256,147.831S364.169,196.26,364.169,256S315.74,364.169,256,364.169z"/>
</g>
<path style="fill:#808080;" d="M256,116.926c-76.808,0-139.074,62.266-139.074,139.074S179.192,395.074,256,395.074  S395.074,332.808,395.074,256S332.808,116.926,256,116.926z M256,333.264c-42.671,0-77.264-34.592-77.264-77.264  s34.592-77.264,77.264-77.264s77.264,34.592,77.264,77.264S298.671,333.264,256,333.264z"/>
<path style="fill:#595959;" d="M256,147.831c59.647,0,108.169,48.522,108.169,108.169S315.647,364.169,256,364.169L302.358,256  L256,147.831z"/>
<path style="fill:#696969;" d="M256,147.831c42.598,0,77.264,48.522,77.264,108.169S298.598,364.169,256,364.169  c-59.647,0-108.169-48.522-108.169-108.169S196.353,147.831,256,147.831z M286.905,256c0-17.039-13.866-30.905-30.905-30.905  S225.095,238.961,225.095,256s13.866,30.905,30.905,30.905S286.905,273.039,286.905,256z"/>
<g>
</g>
<g>
</g>
<g>
</g>
<g>
</g>
<g>
</g>
<g>
</g>
<g>
</g>
<g>
</g>
<g>
</g>
<g>
</g>
<g>
</g>
<g>
</g>
<g>
</g>
<g>
</g>
<g>
</g>
</svg>
