<?xml version="1.0" encoding="iso-8859-1"?>
<!-- Generator: Adobe Illustrator 19.0.0, SVG Export Plug-In . SVG Version: 6.00 Build 0)  -->
<svg version="1.1" id="Capa_1" xmlns="http://www.w3.org/2000/svg" xmlns:xlink="http://www.w3.org/1999/xlink" x="0px" y="0px"
	 viewBox="0 0 512 512" style="enable-background:new 0 0 512 512;" xml:space="preserve">
<path style="fill:#36569C;" d="M116.613,157.65H54.21c-8.429,0-15.262-6.833-15.262-15.262V98.3c0-8.429,6.833-15.262,15.262-15.262
	h62.403c8.429,0,15.262,6.833,15.262,15.262v44.089C131.874,150.817,125.041,157.65,116.613,157.65z"/>
<path style="fill:#FFB726;" d="M336.381,157.65H174.884c-8.429,0-15.262-6.833-15.262-15.262V104.34
	c0-29.325,23.858-53.183,53.184-53.183h85.654c29.326,0,53.184,23.858,53.184,53.183v38.048
	C351.643,150.817,344.81,157.65,336.381,157.65z"/>
<path style="fill:#4FD9E0;" d="M451.472,460.843H60.528C27.153,460.843,0,433.689,0,400.315v-52.399
	c0-8.429,6.833-15.262,15.262-15.262h481.477c8.429,0,15.262,6.833,15.262,15.262v52.399
	C512,433.689,484.847,460.843,451.472,460.843z"/>
<path style="fill:#FC8B25;" d="M298.459,51.157H256V157.65h80.381c8.429,0,15.262-6.833,15.262-15.262V104.34
	C351.643,75.015,327.785,51.157,298.459,51.157z"/>
<path style="fill:#FFE475;" d="M496.738,363.178H15.262C6.833,363.178,0,356.345,0,347.916V187.648
	c0-33.37,27.153-60.518,60.528-60.518h390.944c33.375,0,60.528,27.149,60.528,60.518v160.268
	C512,356.345,505.167,363.178,496.738,363.178z"/>
<path style="fill:#16A9C7;" d="M496.738,332.655H256v128.188h195.472c33.375,0,60.528-27.154,60.528-60.528v-52.399
	C512,339.488,505.167,332.655,496.738,332.655z"/>
<path style="fill:#FFB726;" d="M451.472,127.13H256v236.048h240.738c8.429,0,15.262-6.833,15.262-15.262V187.648
	C512,154.278,484.847,127.13,451.472,127.13z"/>
<path style="fill:#36569C;" d="M256,410.995c-64.519,0-117.01-52.491-117.01-117.011s52.49-117.01,117.01-117.01
	s117.01,52.49,117.01,117.01S320.519,410.995,256,410.995z"/>
<path style="fill:#EDF6FF;" d="M256,363.175c-38.151,0-69.189-31.039-69.189-69.191s31.038-69.189,69.189-69.189
	s69.189,31.038,69.189,69.189S294.151,363.175,256,363.175z"/>
<path style="fill:#FC8B25;" d="M439.482,207.498h-32.558c-8.429,0-15.262-6.833-15.262-15.262c0-8.429,6.833-15.262,15.262-15.262
	h32.558c8.429,0,15.262,6.833,15.262,15.262C454.744,200.665,447.911,207.498,439.482,207.498z"/>
<path style="fill:#193359;" d="M373.01,293.984c0-64.519-52.49-117.01-117.01-117.01v234.02
	C320.519,410.995,373.01,358.504,373.01,293.984z"/>
<path style="fill:#D6E9FF;" d="M325.189,293.984c0-38.151-31.038-69.189-69.189-69.189v138.38
	C294.151,363.175,325.189,332.136,325.189,293.984z"/>
<g>
</g>
<g>
</g>
<g>
</g>
<g>
</g>
<g>
</g>
<g>
</g>
<g>
</g>
<g>
</g>
<g>
</g>
<g>
</g>
<g>
</g>
<g>
</g>
<g>
</g>
<g>
</g>
<g>
</g>
</svg>
