<?xml version="1.0" encoding="iso-8859-1"?>
<!-- Generator: Adobe Illustrator 19.0.0, SVG Export Plug-In . SVG Version: 6.00 Build 0)  -->
<svg version="1.1" id="Capa_1" xmlns="http://www.w3.org/2000/svg" xmlns:xlink="http://www.w3.org/1999/xlink" x="0px" y="0px"
	 viewBox="0 0 512.192 512.192" style="enable-background:new 0 0 512.192 512.192;" xml:space="preserve">
<path style="fill:#E95454;" d="M448.528,298.264H32c-17.68,0-32-14.32-32-32V53.24c0-17.68,14.32-32,32-32h416.544
	c17.68,0,32,14.32,32,32v213.024C480.528,283.928,466.208,298.264,448.528,298.264z"/>
<g>
	<path style="fill:#ED6E6F;" d="M32,215.08c-8.832,0-16-7.152-16-16v-78.656c0-8.848,7.168-16,16-16s16,7.152,16,16v78.656
		C48,207.928,40.832,215.08,32,215.08z"/>
	<path style="fill:#ED6E6F;" d="M448.528,128.04c-8.832,0-16-7.152-16-16v-42.8H304.784c-8.832,0-16-7.152-16-16s7.168-16,16-16
		h143.744c8.832,0,16,7.152,16,16v58.8C464.528,120.872,457.36,128.04,448.528,128.04z"/>
</g>
<rect x="66.8" y="88.04" style="fill:#FFFFFF;" width="346.928" height="143.424"/>
<g style="opacity:0.1;">
	<path style="fill:#010101;" d="M448.528,298.264c11.152,0,20.96-5.728,26.688-14.384l-3.504-3.504l-5.456,4.944l-81.44-86.736
		l-8.176,14.576v85.104H448.528z"/>
</g>
<path style="fill:#FFE28F;" d="M512.128,297.48c0-9.568-7.792-17.36-17.36-17.36s-17.36,7.792-17.36,17.36c0,3.28,0,6.064,0,9.424
	c0,1.568-1.28,2.848-2.848,2.848s-2.848-1.28-2.848-2.848c0-9.904,0-16.656,0-26.528c0-9.568-7.792-17.36-17.36-17.36
	s-17.36,7.792-17.36,17.36v45.312c0,1.568-1.28,2.848-2.848,2.848c-1.584,0-2.848-1.28-2.848-2.848v-45.312
	c0-9.568-7.792-17.36-17.36-17.36s-17.36,7.792-17.36,17.36v45.312c0,1.568-1.28,2.848-2.848,2.848c-1.584,0-2.848-1.28-2.848-2.848
	c0,0-0.032,1.104-0.032-115.808c0-9.568-7.776-17.344-17.344-17.344s-17.344,7.776-17.344,17.344v93.44v57.984
	c0,1.568-1.28,2.848-2.848,2.848c-1.584,0-2.848-1.28-2.848-2.848v-55.136h-8.208c-9.568,0-17.344,7.776-17.344,17.36v105.088
	c7.216,11.28,20.368,24.704,39.104,39.952c0.832,0.512,1.408,1.408,1.408,2.416v19.968h123.952v-19.968
	c0-0.672,0.24-1.344,0.688-1.856c12-14.048,19.84-28.336,22.08-40.224l-0.048-71.6c0-0.096,0.096-0.144,0.096-0.24V297.48H512.128z"
	/>
<path style="fill:#FFFFFF;" d="M373.472,198.584c-6.272,0-11.36,5.088-11.36,11.36v13.344h22.72v-13.344
	C384.832,203.672,379.744,198.584,373.472,198.584z"/>
<g style="opacity:0.3;">
	<path style="fill:#FDBC4B;" d="M413.728,447.128c0-8.832,7.152-16,16-16h46.656c8.848,0,16,7.168,16,16s-7.152,16-16,16h-46.656
		C420.88,463.128,413.728,455.976,413.728,447.128z"/>
</g>
<g style="opacity:0.35;">
	<circle style="fill:#FFFFFF;" cx="362.112" cy="395.384" r="18.304"/>
</g>
<g>
	<path style="fill:#3789C9;" d="M111.68,175.512l17.76-1.728c1.072,5.968,3.232,10.336,6.512,13.136
		c3.264,2.8,7.68,4.192,13.232,4.192c5.888,0,10.304-1.248,13.296-3.728c2.976-2.48,4.464-5.392,4.464-8.72
		c0-2.144-0.624-3.952-1.888-5.456c-1.248-1.504-3.44-2.8-6.576-3.92c-2.144-0.736-7.008-2.064-14.624-3.952
		c-9.792-2.432-16.656-5.408-20.608-8.944c-5.552-4.976-8.32-11.04-8.32-18.192c0-4.608,1.312-8.912,3.92-12.928
		c2.64-4.016,6.4-7.072,11.312-9.168c4.912-2.096,10.848-3.152,17.792-3.152c11.344,0,19.888,2.48,25.632,7.456
		s8.752,11.616,9.04,19.92l-18.256,0.8c-0.784-4.64-2.464-7.984-5.024-10.016c-2.576-2.016-6.432-3.04-11.568-3.04
		c-5.312,0-9.456,1.088-12.464,3.264c-1.936,1.408-2.896,3.28-2.896,5.616c0,2.144,0.912,3.968,2.72,5.488
		c2.288,1.936,7.888,3.952,16.768,6.048c8.88,2.096,15.456,4.272,19.712,6.512s7.584,5.312,10,9.184s3.616,8.688,3.616,14.4
		c0,5.184-1.44,10.032-4.32,14.56s-6.944,7.888-12.208,10.08s-11.824,3.296-19.68,3.296c-11.424,0-20.208-2.64-26.336-7.92
		C116.544,193.32,112.88,185.624,111.68,175.512z"/>
	<path style="fill:#3789C9;" d="M200.576,204.936v-90.432h67.04V129.8h-48.784v20.048h45.392v15.232h-45.392v24.608h50.512v15.232
		h-68.768V204.936z"/>
	<path style="fill:#3789C9;" d="M281.12,160.28c0-9.216,1.376-16.944,4.128-23.184c2.048-4.608,4.864-8.736,8.416-12.4
		c3.552-3.664,7.456-6.368,11.696-8.144c5.632-2.384,12.128-3.584,19.488-3.584c13.328,0,23.984,4.128,31.984,12.4
		s12,19.76,12,34.48c0,14.592-3.968,26.016-11.904,34.256c-7.936,8.24-18.544,12.368-31.824,12.368
		c-13.44,0-24.144-4.096-32.08-12.304C285.088,185.96,281.12,174.664,281.12,160.28z M299.936,159.656c0,10.24,2.368,18,7.088,23.28
		s10.736,7.92,18.016,7.92s13.248-2.624,17.92-7.872c4.672-5.248,7.008-13.104,7.008-23.6c0-10.368-2.272-18.096-6.816-23.184
		c-4.544-5.104-10.576-7.648-18.096-7.648c-7.52,0-13.584,2.576-18.192,7.744C302.24,141.464,299.936,149.256,299.936,159.656z"/>
</g>
<g>
</g>
<g>
</g>
<g>
</g>
<g>
</g>
<g>
</g>
<g>
</g>
<g>
</g>
<g>
</g>
<g>
</g>
<g>
</g>
<g>
</g>
<g>
</g>
<g>
</g>
<g>
</g>
<g>
</g>
</svg>
