<svg id="Capa_1" enable-background="new 0 0 512 512" height="512" viewBox="0 0 512 512" width="512" xmlns="http://www.w3.org/2000/svg"><g><g><g><path d="m478.292 464.835h-444.587v-304.984c0-8.32 6.744-15.064 15.064-15.064h414.458c8.32 0 15.064 6.744 15.064 15.064v304.984z" fill="#82aee3"/><path d="m478.287 159.855v304.979h-20.649v-304.979c0-8.321-6.735-15.067-15.057-15.067h20.649c8.321-.001 15.057 6.745 15.057 15.067z" fill="#528fd8"/></g><g><path d="m438.64 424.014h-365.28c-4.55 0-8.238-3.688-8.238-8.238v-230.14c0-4.55 3.688-8.238 8.238-8.238h365.28c4.55 0 8.238 3.688 8.238 8.238v230.139c.001 4.55-3.688 8.239-8.238 8.239z" fill="#d8ecfe"/><path d="m446.877 185.632v230.146c0 4.552-3.687 8.239-8.239 8.239h-20.824c4.552 0 8.239-3.687 8.239-8.239v-230.146c0-4.542-3.687-8.229-8.239-8.229h20.824c4.552 0 8.239 3.687 8.239 8.229z" fill="#c4e2ff"/></g><path d="m478.565 512h-445.133c-18.319 0-33.169-14.85-33.169-33.169v-14.408c0-3.692 2.993-6.684 6.684-6.684h498.103c3.692 0 6.684 2.993 6.684 6.684v14.408c0 18.319-14.85 33.169-33.169 33.169z" fill="#0067c5"/><path d="m511.737 464.42v14.408c0 18.321-14.851 33.172-33.172 33.172h-20.649c18.322 0 33.172-14.851 33.172-33.172v-14.408c0-3.687-2.997-6.684-6.684-6.684h20.649c3.687 0 6.684 2.997 6.684 6.684z" fill="#0055a3"/></g><g><path d="m101.954 34.675h308.092v389.314h-308.092z" fill="#f9f3f1"/><path d="m389.484 39.55h20.561v384.445h-20.561z" fill="#efe2dd"/><path d="m410.046 39.547h-308.092v-36.376c0-1.75 1.419-3.168 3.168-3.168h301.755c1.75 0 3.168 1.419 3.168 3.168v36.376z" fill="#fd9468"/><path d="m410.045 3.166v36.384h-20.561v-36.384c0-1.748-1.419-3.166-3.167-3.166h20.561c1.748 0 3.167 1.419 3.167 3.166z" fill="#fe7d43"/></g><circle cx="171.089" cy="124.053" fill="#b0e7c9" r="33.679"/><path d="m204.764 124.054c0 18.6-15.077 33.677-33.677 33.677-9.907 0-18.826-4.284-24.974-11.102 2.492.597 5.088.906 7.765.906 18.6 0 33.677-15.077 33.677-33.687 0-8.682-3.285-16.591-8.682-22.565 14.84 3.512 25.891 16.849 25.891 32.771z" fill="#91deb6"/><g><g><path d="m374.59 102.368h-137.9c-4.143 0-7.5-3.357-7.5-7.5s3.357-7.5 7.5-7.5h137.9c4.143 0 7.5 3.357 7.5 7.5s-3.358 7.5-7.5 7.5z" fill="#e1d3ce"/></g><g><path d="m374.59 131.553h-137.9c-4.143 0-7.5-3.357-7.5-7.5s3.357-7.5 7.5-7.5h137.9c4.143 0 7.5 3.357 7.5 7.5s-3.358 7.5-7.5 7.5z" fill="#e1d3ce"/></g><g><path d="m374.59 160.738h-137.9c-4.143 0-7.5-3.357-7.5-7.5s3.357-7.5 7.5-7.5h137.9c4.143 0 7.5 3.357 7.5 7.5s-3.358 7.5-7.5 7.5z" fill="#e1d3ce"/></g></g><path d="m368.612 295.753h-225.224c-3.301 0-5.978-2.676-5.978-5.978v-90.156c0-3.301 2.676-5.978 5.978-5.978h225.224c3.301 0 5.978 2.676 5.978 5.978v90.156c-.001 3.302-2.677 5.978-5.978 5.978z" fill="#e1d3ce"/><path d="m368.612 372.485h-115.825c-3.301 0-5.978-2.676-5.978-5.978v-28.867c0-3.301 2.676-5.978 5.978-5.978h115.825c3.301 0 5.978 2.676 5.978 5.978v28.867c-.001 3.302-2.677 5.978-5.978 5.978z" fill="#8ac9fe"/><path d="m374.59 199.616v90.155c0 3.306-2.678 5.983-5.973 5.983h-20.598c3.296 0 5.973-2.678 5.973-5.983v-90.155c0-3.296-2.678-5.973-5.973-5.973h20.598c3.296-.001 5.973 2.677 5.973 5.973z" fill="#cdbfba"/><path d="m374.59 337.639v28.867c0 3.306-2.678 5.973-5.973 5.973h-20.598c3.296 0 5.973-2.667 5.973-5.973v-28.867c0-3.296-2.678-5.973-5.973-5.973h20.598c3.296 0 5.973 2.678 5.973 5.973z" fill="#60b7ff"/></g></svg>