<svg id="Capa_1" enable-background="new 0 0 512 512" height="512" viewBox="0 0 512 512" width="512" xmlns="http://www.w3.org/2000/svg"><g><path d="m223.979 415.935h-64.043l-64.044 96.065h32.022z" fill="#98695e"/><path d="m288.023 415.935h64.043l64.044 96.065h-32.022z" fill="#98695e"/><g fill="#eaf6ff"><path d="m385.909 109.784h32.022v64.044h-32.022z" transform="matrix(.707 .707 -.707 .707 217.992 -242.666)"/><path d="m239.99 37.797h32.022v79.818h-32.022z"/><path d="m94.07 109.783h32.022v64.044h-32.022z" transform="matrix(.707 -.707 .707 .707 -68.029 119.373)"/></g><circle cx="256.001" cy="287.725" fill="#aee69c" r="192.131"/><path d="m172.437 424.325c28.947 28.628 66.946 48.132 109.336 53.812-8.433 1.134-17.03 1.722-25.772 1.722-106.109 0-192.127-86.028-192.127-192.137s86.018-192.127 192.127-192.127c8.742 0 17.34.588 25.772 1.722-42.38 5.67-80.389 25.174-109.326 53.802-35.215 34.824-57.029 83.172-57.029 136.603s21.814 101.769 57.019 136.603z" fill="#89daa4"/><path d="m415.92 295.46c-1.11 23.54-7.32 45.75-17.53 65.55-1.18 2.28-6.44 1.61-7.72 3.82-1.3 2.25 1.38 7.39-.02 9.56-12.39 19.21-28.77 35.59-47.98 47.98-2.25 1.45-7.84-4.04-10.17-2.7-2.14 1.23-1.02 9.31-3.22 10.44-19.8 10.22-42.01 16.42-65.55 17.53-2.56.13-5.05-7.14-7.64-7.14s-5.26 7.27-7.82 7.14c-23.54-1.11-45.75-7.31-65.55-17.53-2.11-1.08-1.16-8.1-3.22-9.28-2-1.14-6.04 1.69-8.7 1.85-.56.03-1.06-.05-1.46-.31-19.21-12.38-35.6-28.77-47.98-47.98-1.44-2.21 2.46-7.77 1.14-10.06-1.26-2.17-7.73-1.09-8.89-3.33-10.21-19.8-16.42-42-17.53-65.54-.13-2.56 7.09-5.04 7.09-7.64 0-2.59-7.22-5.27-7.09-7.83 1.11-23.54 7.31-45.75 17.53-65.55 1.18-2.3 7.93-2.04 9.22-4.27s-2.87-6.95-1.47-9.11c12.38-19.21 28.77-35.59 47.98-47.98.42-.27.94-.37 1.51-.36 2.53.04 6.23 2.22 8.15 1.11 2.11-1.21 1.55-7.38 3.72-8.49 19.8-10.22 42.01-16.42 65.55-17.53 2.56-.13 5.14 6.02 7.73 6.02s5.17-6.15 7.73-6.02c23.54 1.11 45.75 7.31 65.55 17.53 2.16 1.11 1.62 6.45 3.72 7.66 2.37 1.36 7.38-1.4 9.67.08 19.21 12.39 35.59 28.77 47.98 47.97 1.29 2-2.18 7.06-.98 9.12 1.39 2.39 7.45 1.8 8.73 4.27 10.21 19.8 16.41 42.01 17.52 65.55.13 2.56-6.25 5.15-6.25 7.74 0 2.6 6.38 5.17 6.25 7.73z" fill="#eaf6ff"/><path d="m320.04 23.84c0 6.58-2.67 12.54-6.98 16.86-4.32 4.31-10.28 6.98-16.86 6.98h-80.4c-13.17 0-23.84-10.67-23.84-23.84 0-6.58 2.67-12.54 6.98-16.86 4.32-4.31 10.28-6.98 16.86-6.98h80.4c13.17 0 23.84 10.68 23.84 23.84z" fill="#aee69c"/><path d="m236 47.68h-20.2c-13.17 0-23.84-10.67-23.84-23.84 0-6.58 2.67-12.54 6.98-16.86 4.32-4.31 10.28-6.98 16.86-6.98h20.61c-6.57 0-12.53 2.67-16.85 6.99-4.31 4.31-6.98 10.27-6.98 16.85 0 13.03 10.45 23.63 23.42 23.84z" fill="#89daa4"/><path d="m481.42 126.36c0 13.06-3.98 26.13-11.93 37.23-2.02 2.82-4.3 5.52-6.83 8.05-.8.79-1.84 1.18-2.88 1.18s-2.08-.39-2.87-1.18l-84.82-84.83c-1.59-1.58-1.59-4.16 0-5.74 12.51-12.51 28.89-18.76 45.29-18.76 3.44 0 6.88.28 10.29.83 12.81 2.07 25.12 8.05 34.99 17.93 12.5 12.51 18.76 28.89 18.76 45.29z" fill="#aee69c"/><path d="m469.49 163.59c-2.02 2.82-4.3 5.52-6.83 8.05-.8.79-1.84 1.18-2.88 1.18s-2.08-.39-2.87-1.18l-84.82-84.83c-1.59-1.58-1.59-4.16 0-5.74 12.51-12.51 28.89-18.76 45.29-18.76 3.44 0 6.88.28 10.29.83-5.546.9-13.382 4.92-20.486 9.189-9.199 5.528-10.703 18.261-3.114 25.849z" fill="#89daa4"/><path d="m141.1 83.94c0 1.04-.4 2.08-1.19 2.87l-76.78 76.78v.01l-8.04 8.04c-1.59 1.58-4.16 1.58-5.75 0-12.5-12.5-18.76-28.9-18.76-45.28 0-16.4 6.26-32.78 18.76-45.29s28.9-18.76 45.28-18.76c3.52 0 7.05.29 10.53.87 12.73 2.1 24.94 8.07 34.76 17.89.79.79 1.19 1.83 1.19 2.87z" fill="#aee69c"/><path d="m69.96 81.07c-22.49 22.48-24.76 57.5-6.83 82.52v.01l-8.04 8.04c-1.59 1.58-4.16 1.58-5.75 0-12.5-12.5-18.76-28.9-18.76-45.28 0-16.4 6.26-32.78 18.76-45.29s28.9-18.76 45.28-18.76c3.52 0 7.05.29 10.53.87-12.07 2.77-26.43 9.12-35.19 17.89z" fill="#89daa4"/><path d="m132.84 367.76c9.4 20.51 22.32 39.07 37.96 54.92-.56.03-1.06-.05-1.46-.31-19.21-12.38-35.6-28.77-47.98-47.98-1.44-2.21 2.46-7.77 1.14-10.06-1.26-2.17-7.73-1.09-8.89-3.33-10.21-19.8-16.42-42-17.53-65.54v-.07c0-2.53 7.09-4.99 7.09-7.57 0-2.57-7.09-5.22-7.09-7.76v-.07c1.11-23.54 7.31-45.75 17.53-65.55 1.18-2.3 7.93-2.04 9.22-4.27s-2.87-6.95-1.47-9.11c12.38-19.21 28.77-35.59 47.98-47.98.42-.27.94-.37 1.51-.36-15.67 15.87-28.6 34.44-38.02 54.97-2.16 4.71-4.14 9.52-5.92 14.43-6.6 18.17-10.54 37.62-11.33 57.87-.11 2.57-.16 5.14-.16 7.73s.05 5.18.16 7.74c.8 20.25 4.73 39.69 11.33 57.86 1.78 4.91 3.76 9.73 5.93 14.44z" fill="#d8ecfe"/><g><g><g><path d="m263.73 127.81v31.83c0 4.27-3.46 7.73-7.73 7.73s-7.73-3.46-7.73-7.73v-31.83c2.56-.13 5.14-.19 7.73-.19s5.17.06 7.73.19z" fill="#365e7d"/></g><g><path d="m263.73 415.81v31.83c-2.56.13-5.14.19-7.73.19s-5.17-.06-7.73-.19v-31.83c0-4.27 3.46-7.73 7.73-7.73s7.73 3.46 7.73 7.73z" fill="#365e7d"/></g></g></g><g><g><g><path d="m195.82 183.49c-1.21.71-2.54 1.04-3.86 1.04-2.67 0-5.27-1.39-6.7-3.87l-15.92-27.58c4.32-2.79 8.79-5.38 13.38-7.74l15.93 27.59c2.14 3.7.87 8.43-2.83 10.56z" fill="#365e7d"/></g><g><path d="m342.67 422.37c-4.32 2.79-8.79 5.37-13.39 7.74l-15.93-27.59c-2.14-3.7-.87-8.43 2.83-10.57 3.69-2.13 8.42-.86 10.56 2.83z" fill="#365e7d"/></g></g></g><g><g><path d="m151.77 227.55c-1.43 2.48-4.03 3.86-6.7 3.86-1.31 0-2.64-.33-3.86-1.03l-27.6-15.94c2.37-4.59 4.95-9.06 7.75-13.38l27.58 15.93c3.7 2.13 4.97 6.86 2.83 10.56z" fill="#365e7d"/></g></g><g><g><path d="m398.39 361.01c-2.37 4.6-4.95 9.06-7.74 13.38l-27.59-15.93c-3.7-2.13-4.96-6.86-2.83-10.56 2.14-3.7 6.87-4.96 10.56-2.83z" fill="#365e7d"/></g></g><g><g><path d="m135.65 287.72c0 4.27-3.46 7.74-7.74 7.74h-31.83c-.13-2.56-.19-5.14-.19-7.74 0-2.59.06-5.17.19-7.73h31.83c4.28 0 7.74 3.46 7.74 7.73z" fill="#365e7d"/></g></g><g><g><path d="m416.11 287.72c0 2.6-.06 5.18-.19 7.74h-31.83c-4.27 0-7.73-3.47-7.73-7.74s3.46-7.73 7.73-7.73h31.83c.13 2.56.19 5.14.19 7.73z" fill="#365e7d"/></g></g><g><g><path d="m148.94 358.46-27.58 15.93c-2.8-4.32-5.38-8.79-7.75-13.39l27.6-15.93c3.69-2.13 8.42-.87 10.56 2.83s.87 8.43-2.83 10.56z" fill="#365e7d"/></g></g><g><g><path d="m132.83 207.69c-2.16 4.71-4.14 9.52-5.92 14.43l-13.3-7.68c2.37-4.59 4.95-9.06 7.75-13.38z" fill="#2b4d66"/></g></g><g><g><path d="m115.42 287.72c0 2.59.05 5.18.16 7.74h-19.5v-.07c-.13-2.54-.19-5.09-.19-7.67 0-2.57.06-5.12.19-7.66v-.07h19.5c-.11 2.57-.16 5.14-.16 7.73z" fill="#2b4d66"/></g></g><g><g><path d="m132.84 367.76-11.48 6.63c-2.8-4.32-5.38-8.79-7.75-13.39l13.3-7.68c1.78 4.91 3.76 9.73 5.93 14.44z" fill="#2b4d66"/></g></g><g><g><path d="m398.4 214.44-27.61 15.94c-1.21.7-2.54 1.03-3.86 1.03-2.67 0-5.27-1.38-6.7-3.86-2.13-3.7-.87-8.43 2.83-10.56l27.59-15.94c2.79 4.33 5.37 8.79 7.75 13.39z" fill="#365e7d"/></g></g><g><g><g><path d="m198.65 402.52-15.93 27.59c-4.59-2.36-9.06-4.95-13.38-7.74l15.92-27.59c2.14-3.69 6.86-4.96 10.56-2.83 3.7 2.14 4.97 6.87 2.83 10.57z" fill="#365e7d"/></g><g><path d="m342.67 153.08-15.93 27.58c-1.43 2.48-4.03 3.87-6.7 3.87-1.31 0-2.64-.33-3.86-1.04-3.7-2.13-4.97-6.86-2.83-10.56l15.93-27.59c4.6 2.37 9.07 4.95 13.39 7.74z" fill="#365e7d"/></g></g></g><path d="m272.01 207.67v80.05h-32.02v-80.05c0-8.84 7.17-16.01 16.01-16.01 2.8 0 5.44.72 7.73 1.99 1.32.73 2.53 1.64 3.59 2.7 2.9 2.9 4.69 6.9 4.69 11.32z" fill="#f25a74"/><path d="m263.73 193.65v.01c-4.94 2.71-8.28 7.97-8.28 14.01v80.05h-15.46v-80.05c0-8.84 7.17-16.01 16.01-16.01 2.8 0 5.44.72 7.73 1.99z" fill="#e83d5a"/><path d="m239.99 271.65v32.15h-47.97c-8.88 0-16.07-7.2-16.07-16.08 0-4.44 1.8-8.45 4.71-11.36 2.9-2.91 6.92-4.71 11.36-4.71z" fill="#f25a74"/><path d="m212.64 303.79-.02.01h-20.6c-8.88 0-16.07-7.2-16.07-16.08 0-4.44 1.8-8.45 4.71-11.36 2.9-2.91 6.92-4.71 11.36-4.71h20.62c-4.44 0-8.46 1.8-11.37 4.71-2.92 2.91-4.71 6.93-4.71 11.36 0 8.88 7.2 16.07 16.08 16.07z" fill="#e83d5a"/><circle cx="256.001" cy="287.725" fill="#aee69c" r="32.022"/><path d="m266.31 318.061c-3.237 1.093-6.701 1.691-10.309 1.691-17.69 0-32.02-14.34-32.02-32.03 0-17.68 14.33-32.019 32.02-32.019 3.608 0 7.072.598 10.309 1.691-12.628 4.299-21.711 16.257-21.711 30.329 0 14.08 9.082 26.039 21.711 30.338z" fill="#89daa4"/></g></svg>