<?xml version="1.0" encoding="iso-8859-1"?>
<!-- Generator: Adobe Illustrator 19.0.0, SVG Export Plug-In . SVG Version: 6.00 Build 0)  -->
<svg version="1.1" id="Capa_1" xmlns="http://www.w3.org/2000/svg" xmlns:xlink="http://www.w3.org/1999/xlink" x="0px" y="0px"
	 viewBox="0 0 512 512" style="enable-background:new 0 0 512 512;" xml:space="preserve">
<polygon style="fill:#FEDBAB;" points="414.699,211 397.301,422 368.5,449.599 142.301,449.599 114.699,422 97.301,211 
	121.601,184.6 392.8,184.6 "/>
<polygon style="fill:#FEC478;" points="414.699,211 397.301,422 368.5,449.599 256,449.599 256,184.6 392.8,184.6 "/>
<path style="fill:#57555C;" d="M421,137.199c-4.2,52.5-2.999,36.901-6.301,73.801H97.301C94,174.101,95.201,189.699,91,137.199
	c-0.601-9.3,6.599-16.199,15-16.199h300C414.401,121,421.601,127.899,421,137.199z"/>
<path style="fill:#3C3A41;" d="M421,137.199c-4.2,52.5-2.999,36.901-6.301,73.801H256v-90h150
	C414.401,121,421.601,127.899,421,137.199z"/>
<path style="fill:#57555C;" d="M397.301,422c-3.301,36.899-2.401,27.9-4.2,48.6c-1.8,23.401-21.601,41.4-44.7,41.4H163.599
	c-23.099,0-42.9-17.999-44.7-41.4c-1.8-20.7-0.899-11.7-4.2-48.6H397.301z"/>
<path style="fill:#3C3A41;" d="M256,422h141.301c-3.301,36.899-2.401,27.9-4.2,48.6c-1.8,23.401-21.601,41.4-44.7,41.4H256V422z"/>
<path style="fill:#FF4C5B;" d="M271,136v120c0,8.401-6.599,15-15,15s-15-6.599-15-15V136c0-8.401,6.599-15,15-15
	S271,127.599,271,136z"/>
<path style="fill:#FC1939;" d="M271,136v120c0,8.401-6.599,15-15,15V121C264.401,121,271,127.599,271,136z"/>
<path style="fill:#57555C;" d="M419.5,69.401l-30-61C386.8,3.3,381.7,0,376,0H136c-5.7,0-10.8,3.3-13.5,8.401l-30,61
	C90.399,73.9,90.399,79.6,93.1,83.8c2.999,4.499,7.8,7.2,12.9,7.2h300c5.099,0,9.901-2.701,12.9-7.2
	C421.601,79.6,421.601,73.9,419.5,69.401z"/>
<path style="fill:#3C3A41;" d="M406,91H256V0h120c5.7,0,10.8,3.3,13.5,8.401l30,61c2.1,4.499,2.1,10.199-0.601,14.399
	C415.901,88.299,411.099,91,406,91z"/>
<path style="fill:#BF6015;" d="M436,61H76c-8.401,0-15,6.599-15,15v60c0,8.401,6.599,15,15,15h360c8.401,0,15-6.599,15-15V76
	C451,67.599,444.401,61,436,61z"/>
<path style="fill:#994C10;" d="M451,76v60c0,8.401-6.599,15-15,15H256V61h180C444.401,61,451,67.599,451,76z"/>
<path style="fill:#1BD9DE;" d="M309.401,273.401l-45-30C262,241.601,258.999,241,256,241s-6,0.601-8.401,2.401l-45,30
	C198.401,276.4,196,280.901,196,286v90c0,8.401,6.599,15,15,15h90c8.401,0,15-6.599,15-15v-90
	C316,280.901,313.599,276.4,309.401,273.401z"/>
<path style="fill:#14B7BF;" d="M316,286v90c0,8.401-6.599,15-15,15h-45V241c2.999,0,6,0.601,8.401,2.401l45,30
	C313.599,276.4,316,280.901,316,286z"/>
<g>
</g>
<g>
</g>
<g>
</g>
<g>
</g>
<g>
</g>
<g>
</g>
<g>
</g>
<g>
</g>
<g>
</g>
<g>
</g>
<g>
</g>
<g>
</g>
<g>
</g>
<g>
</g>
<g>
</g>
</svg>
