<?xml version="1.0" encoding="iso-8859-1"?>
<!-- Generator: Adobe Illustrator 19.0.0, SVG Export Plug-In . SVG Version: 6.00 Build 0)  -->
<svg xmlns="http://www.w3.org/2000/svg" xmlns:xlink="http://www.w3.org/1999/xlink" version="1.1" id="Layer_1" x="0px" y="0px" viewBox="0 0 512 512" style="enable-background:new 0 0 512 512;" xml:space="preserve">
<polygon style="fill:#415B6B;" points="108.034,512 158.12,512 231.408,348.95 181.321,348.95 "/>
<polygon style="fill:#2C454F;" points="202.798,349.57 201.422,348.95 181.353,348.95 163.342,388.949 108.034,512 129.66,512 "/>
<polygon style="fill:#415B6B;" points="402.673,512 329.386,348.95 279.471,348.95 279.301,348.95 233.787,348.95 233.787,511.728   279.471,511.728 279.471,349.331 352.587,512 "/>
<g>
	<rect x="233.789" y="348.955" style="fill:#2C454F;" width="19.809" height="162.774"/>
	<polygon style="fill:#2C454F;" points="279.471,348.95 279.336,348.95 352.686,512 374.406,512 301.056,348.95  "/>
</g>
<path style="fill:#EAEAE9;" d="M20.366,40.182V314.27h471.269V40.182H20.366z M263.582,257.009v-73.136h34.68v73.136  L263.582,257.009L263.582,257.009z M330.762,257.009V143.664h34.681v113.345H330.762z M397.944,257.009v-152.96h34.68v152.96  H397.944z"/>
<rect x="325.262" y="138.167" style="fill:#E84934;" width="45.686" height="124.355"/>
<rect x="258.077" y="178.368" style="fill:#F6B44A;" width="45.685" height="84.144"/>
<rect x="392.447" y="98.549" style="fill:#3DAE9B;" width="45.685" height="163.962"/>
<path id="SVGCleanerId_0" style="fill:#ABB2BA;" d="M488.884,308.768H23.117c-12.324,0-22.351,10.027-22.351,22.352v0.983  c0,12.324,10.027,22.352,22.351,22.352h465.766c12.324,0,22.351-10.027,22.351-22.352v-0.983  C511.235,318.795,501.208,308.768,488.884,308.768z"/>
<path id="SVGCleanerId_1" style="fill:#ABB2BA;" d="M488.884,0H23.117C10.792,0,0.765,10.027,0.765,22.352v0.982  c0,12.324,10.027,22.351,22.351,22.351h465.766c12.324,0,22.351-10.027,22.351-22.351v-0.982C511.235,10.027,501.208,0,488.884,0z"/>
<g>
	<path id="SVGCleanerId_0_1_" style="fill:#ABB2BA;" d="M488.884,308.768H23.117c-12.324,0-22.351,10.027-22.351,22.352v0.983   c0,12.324,10.027,22.352,22.351,22.352h465.766c12.324,0,22.351-10.027,22.351-22.352v-0.983   C511.235,318.795,501.208,308.768,488.884,308.768z"/>
</g>
<g>
	<path id="SVGCleanerId_1_1_" style="fill:#ABB2BA;" d="M488.884,0H23.117C10.792,0,0.765,10.027,0.765,22.352v0.982   c0,12.324,10.027,22.351,22.351,22.351h465.766c12.324,0,22.351-10.027,22.351-22.351v-0.982C511.235,10.027,501.208,0,488.884,0z"/>
</g>
<g>
	<path style="opacity:0.1;fill:#231F20;enable-background:new    ;" d="M488.884,25.876H23.117c-8.959,0-16.682-5.31-20.245-12.937   c-1.338,2.866-2.107,6.048-2.107,9.414v0.982c0,12.324,10.027,22.351,22.351,22.351h465.766c12.324,0,22.351-10.027,22.351-22.351   v-0.982c0-3.366-0.769-6.548-2.107-9.414C505.566,20.566,497.843,25.876,488.884,25.876z"/>
	<path style="opacity:0.1;fill:#231F20;enable-background:new    ;" d="M488.884,334.644H23.117c-8.959,0-16.682-5.31-20.245-12.937   c-1.338,2.865-2.107,6.047-2.107,9.414v0.982c0,12.324,10.027,22.352,22.351,22.352h465.766c12.324,0,22.351-10.027,22.351-22.352   v-0.982c0-3.366-0.769-6.548-2.107-9.414C505.566,329.334,497.843,334.644,488.884,334.644z"/>
</g>
<g>
	<path style="fill:#ABB2BA;" d="M164.021,104.598H74.056c-3.642,0-6.603-2.961-6.603-6.603c0-3.642,2.961-6.603,6.603-6.603h89.965   c3.642,0,6.603,2.961,6.603,6.603C170.624,101.637,167.661,104.598,164.021,104.598z"/>
	<path style="fill:#ABB2BA;" d="M74.056,131.008H211.06c3.642,0,6.603,2.961,6.603,6.603s-2.961,6.603-6.603,6.603H74.056   c-3.642,0-6.603-2.961-6.603-6.603S70.414,131.008,74.056,131.008z"/>
	<path style="fill:#ABB2BA;" d="M74.056,170.624H211.06c3.642,0,6.603,2.961,6.603,6.603s-2.961,6.603-6.603,6.603H74.056   c-3.642,0-6.603-2.961-6.603-6.603S70.414,170.624,74.056,170.624z"/>
	<path style="fill:#ABB2BA;" d="M74.056,210.24H211.06c3.642,0,6.603,2.961,6.603,6.603s-2.961,6.603-6.603,6.603H74.056   c-3.642,0-6.603-2.961-6.603-6.603S70.414,210.24,74.056,210.24z"/>
	<path style="fill:#ABB2BA;" d="M74.056,249.854H211.06c3.642,0,6.603,2.961,6.603,6.604c0,3.642-2.961,6.603-6.603,6.603H74.056   c-3.642,0-6.603-2.961-6.603-6.603C67.453,252.816,70.414,249.854,74.056,249.854z"/>
</g>
<polygon style="fill:#DBDCDD;" points="20.366,45.682 20.366,48.305 20.366,55.076 20.366,65.491 20.366,308.768 40.175,308.768   40.175,65.491 491.635,65.491 491.635,45.682 "/>
<g>
</g>
<g>
</g>
<g>
</g>
<g>
</g>
<g>
</g>
<g>
</g>
<g>
</g>
<g>
</g>
<g>
</g>
<g>
</g>
<g>
</g>
<g>
</g>
<g>
</g>
<g>
</g>
<g>
</g>
</svg>
