<svg id="Layer_1" enable-background="new 0 0 510 510" height="512" viewBox="0 0 510 510" width="512" xmlns="http://www.w3.org/2000/svg"><g><g><path d="m172.619 38.259c-51.332 29.013-81.021 93.518-96.89 142.521-14.565 44.982-38.194 65.845-74.329 65.542l-1.4-.005v75l118.333 30 136.667-16 10-140-10-169.467c-29.756-5.248-58.821-.908-82.381 12.409z" fill="#bcfbff"/><path d="m510 321.317v-60c-23.82 0-36.397 4.439-47.494 8.355-10.103 3.565-18.828 6.645-37.51 6.645s-27.407-3.079-37.51-6.645c-11.097-3.917-23.674-8.355-47.493-8.355-26.188 0-47.493-21.305-47.493-47.493 0-31.709 25.798-57.507 57.507-57.507h49.074l-10.618-21.614c-.636-1.295-15.797-31.934-34.554-50.689l-13.303-13.303c-21.824-21.824-50.308-37.383-80.204-43.809-1.803-.388-3.604-.735-5.402-1.053v309.468l167.667 16.667z" fill="#9ddff6"/></g><g id="XMLID_770_"><g><path d="m412.5 184.547h29.999v33.541h-29.999z" fill="#9ddff6" transform="matrix(.894 -.447 .447 .894 -44.9 212.438)"/></g></g><g><path d="m0 350.316v30.001l10 16.125-10 13.875v30l10 16-10 14v16h255l10-74.5-10-46.5-76-28z" fill="#bcfbff"/><path d="m510 350.317-166.333-13-88.667 28v121h255v-16l-10-13.936 10-16.065v-29.999l-10-13.833 10-16.168z" fill="#9ddff6"/><path d="m254.993 335.317c-18.68 0-27.404-3.079-37.506-6.645-11.097-3.917-23.673-8.355-47.491-8.355-23.819 0-36.396 4.439-47.492 8.355-10.102 3.565-18.826 6.645-37.506 6.645-18.681 0-27.405-3.079-37.508-6.645-11.096-3.917-23.672-8.355-47.49-8.355v30c18.68 0 27.404 3.079 37.506 6.645 11.096 3.917 23.673 8.355 47.492 8.355 23.818 0 36.395-4.438 47.49-8.355 10.104-3.565 18.828-6.645 37.508-6.645s27.404 3.079 37.506 6.645c11.096 3.917 23.672 8.355 47.491 8.355h.007l10-15.333-10-14.667c-.002 0-.005 0-.007 0z" fill="#9ddff6"/><path d="m339.993 350.317c18.681 0 27.406 3.079 37.509 6.645 11.097 3.917 23.674 8.355 47.495 8.355 23.819 0 36.396-4.438 47.493-8.355 10.103-3.565 18.828-6.645 37.51-6.645v-30c-23.82 0-36.397 4.439-47.494 8.355-10.103 3.565-18.828 6.645-37.51 6.645s-27.407-3.079-37.51-6.645c-11.097-3.917-23.674-8.355-47.493-8.355s-36.396 4.439-47.492 8.355c-10.102 3.564-18.825 6.644-37.501 6.645v30c23.815-.001 36.391-4.438 47.485-8.355 10.103-3.566 18.827-6.645 37.508-6.645z" fill="#5ecbf1"/><path d="m254.993 395.317c-18.68 0-27.404-3.079-37.506-6.645-11.097-3.917-23.673-8.355-47.491-8.355-23.819 0-36.396 4.439-47.492 8.355-10.102 3.565-18.826 6.645-37.506 6.645-18.681 0-27.405-3.079-37.508-6.645-11.096-3.917-23.672-8.355-47.49-8.355v30c18.68 0 27.404 3.079 37.506 6.645 11.096 3.917 23.673 8.355 47.492 8.355 23.818 0 36.395-4.438 47.49-8.355 10.104-3.565 18.828-6.645 37.508-6.645s27.404 3.079 37.506 6.645c11.096 3.917 23.672 8.355 47.491 8.355h.007l10-15.333-10-14.667c-.002 0-.005 0-.007 0z" fill="#9ddff6"/><path d="m339.993 410.317c18.681 0 27.406 3.079 37.509 6.645 11.097 3.917 23.674 8.355 47.495 8.355 23.819 0 36.396-4.438 47.493-8.355 10.103-3.565 18.828-6.645 37.51-6.645v-30c-23.82 0-36.397 4.439-47.494 8.355-10.103 3.565-18.828 6.645-37.51 6.645s-27.407-3.079-37.51-6.645c-11.097-3.917-23.674-8.355-47.493-8.355s-36.396 4.439-47.492 8.355c-10.102 3.564-18.825 6.644-37.501 6.645v30c23.815-.001 36.391-4.438 47.485-8.355 10.103-3.566 18.827-6.645 37.508-6.645z" fill="#5ecbf1"/><path d="m254.993 455.317c-18.68 0-27.404-3.079-37.506-6.645-11.097-3.917-23.673-8.355-47.491-8.355-23.819 0-36.396 4.439-47.492 8.355-10.102 3.565-18.826 6.645-37.506 6.645-18.681 0-27.405-3.079-37.508-6.645-11.096-3.917-23.672-8.355-47.49-8.355v30c18.68 0 27.404 3.079 37.506 6.645 11.096 3.917 23.673 8.355 47.492 8.355 23.818 0 36.395-4.438 47.49-8.355 10.104-3.565 18.828-6.645 37.508-6.645s27.404 3.079 37.506 6.645c11.096 3.917 23.672 8.355 47.491 8.355h.007l10-15.333-10-14.667c-.002 0-.005 0-.007 0z" fill="#9ddff6"/><path d="m339.993 470.317c18.681 0 27.406 3.079 37.509 6.645 11.097 3.917 23.674 8.355 47.495 8.355 23.819 0 36.396-4.438 47.493-8.355 10.103-3.565 18.828-6.645 37.51-6.645v-30c-23.82 0-36.397 4.439-47.494 8.355-10.103 3.565-18.828 6.645-37.51 6.645s-27.407-3.079-37.51-6.645c-11.097-3.917-23.674-8.355-47.493-8.355s-36.396 4.439-47.492 8.355c-10.102 3.564-18.825 6.644-37.501 6.645v30c23.815-.001 36.391-4.438 47.485-8.355 10.103-3.566 18.827-6.645 37.508-6.645z" fill="#5ecbf1"/></g></g></svg>