<svg height="512pt" viewBox="0 -27 512 511" width="512pt" xmlns="http://www.w3.org/2000/svg"><path d="m293.410156 61.921875-10.0625-49.347656c-1.433594-7.027344-7.613281-12.074219-14.785156-12.074219h-147.753906c-7.171875 0-13.351563 5.046875-14.785156 12.074219l-10.0625 49.347656c-.90625 4.441406.230468 9.050781 3.097656 12.5625 2.867187 3.507813 7.15625 5.542969 11.6875 5.542969h167.875c4.53125 0 8.824218-2.035156 11.6875-5.542969 2.867187-3.511719 4.003906-8.121094 3.101562-12.5625zm0 0" fill="#fccb4f"/><path d="m293.410156 61.921875-10.0625-49.347656c-1.433594-7.027344-7.613281-12.074219-14.785156-12.074219h-8.265625v79.527344h18.324219c4.53125 0 8.824218-2.035156 11.691406-5.542969 2.863281-3.511719 4-8.121094 3.097656-12.5625zm0 0" fill="#efa91d"/><path d="m496.910156 49.847656h-414.492187c-4.003907 0-7.847657 1.59375-10.679688 4.429688-2.828125 2.832031-4.417969 6.679687-4.410156 10.6875l.332031 193.765625-.332031 122.589843c-.011719 4.007813 1.574219 7.859376 4.40625 10.699219 2.832031 2.835938 6.675781 4.433594 10.683594 4.433594h414.492187c8.332032 0 15.089844-6.757813 15.089844-15.089844v-316.425781c0-8.332031-6.757812-15.089844-15.089844-15.089844zm0 0" fill="#ffd561"/><path d="m496.910156 49.847656h-236.613281v346.605469h236.613281c8.332032 0 15.089844-6.757813 15.089844-15.089844v-316.425781c0-8.332031-6.757812-15.089844-15.089844-15.089844zm0 0" fill="#ffbf31"/><path d="m108.933594 239.929688c-60.066406 0-108.933594 48.871093-108.933594 108.9375 0 60.066406 48.867188 108.933593 108.933594 108.933593s108.9375-48.867187 108.9375-108.933593c0-60.066407-48.871094-108.9375-108.9375-108.9375zm0 0" fill="#ffab66"/><path d="m145.839844 318.6875c-8.335938 0-15.09375 6.757812-15.09375 15.089844v32.496094h-6.722656v-12.875c0-8.335938-6.753907-15.09375-15.089844-15.09375-8.332032 0-15.089844 6.757812-15.089844 15.09375v12.875h-7.363281v-52.113282c0-8.332031-6.753907-15.089844-15.089844-15.089844-8.332031 0-15.089844 6.757813-15.089844 15.089844v67.203125c0 8.332031 6.757813 15.089844 15.089844 15.089844h74.449219c8.332031 0 15.089844-6.757813 15.089844-15.089844v-47.585937c0-8.332032-6.757813-15.089844-15.089844-15.089844zm0 0" fill="#ff8a33"/><path d="m433.527344 334.128906h-103.621094c-8.335938 0-15.089844-6.757812-15.089844-15.089844 0-8.335937 6.753906-15.089843 15.089844-15.089843h103.621094c8.335937 0 15.09375 6.753906 15.09375 15.089843 0 8.332032-6.757813 15.089844-15.09375 15.089844zm0 0" fill="#87e4f9"/></svg>