<svg height="512pt" viewBox="0 0 512 512" width="512pt" xmlns="http://www.w3.org/2000/svg"><path d="m469.332031 373.332031c-42.664062 0-128 53.996094-170.664062 53.996094-42.667969 0-90.667969-32.660156-90.667969-32.660156s57.472656 10.664062 90.667969 10.664062c33.195312 0 42.664062-11.328125 42.664062-26.664062 0-37.335938-63.402343-43.136719-95.488281-48.023438-41.277344-22.976562-56.554688-39.65625-160.511719-37.011719l-21.332031 143.742188c-4.671875-2.558594 148.160156 74.625 213.332031 74.625 64 0 234.667969-85.332031 234.667969-106.667969 0-21.332031-21.332031-32-42.667969-32zm0 0" fill="#ffcc80"/><path d="m10.476562 256.042969c-5.804687.105469-10.476562 4.84375-10.476562 10.667969v191.957031c0 5.886719 4.777344 10.664062 10.667969 10.664062h45.269531c4.777344 0 8.957031-3.15625 10.261719-7.742187l47.207031-166.359375c3.050781-10.75-2.707031-22.058594-13.226562-25.875-19.328126-7.039063-48.980469-13.996094-89.703126-13.3125zm0 0" fill="#607d8b"/><path d="m512 138.667969c0 76.582031-62.082031 138.664062-138.667969 138.664062-76.582031 0-138.664062-62.082031-138.664062-138.664062 0-76.585938 62.082031-138.667969 138.664062-138.667969 76.585938 0 138.667969 62.082031 138.667969 138.667969zm0 0" fill="#4caf50"/><path d="m420.414062 185.75c-4.15625 4.160156-9.621093 6.25-15.082031 6.25-5.460937 0-10.921875-2.089844-15.082031-6.25l-32-32c-4.011719-3.988281-6.25-9.410156-6.25-15.082031v-53.335938c0-11.796875 9.558594-21.332031 21.332031-21.332031 11.777344 0 21.335938 9.535156 21.335938 21.332031v44.503907l25.746093 25.75c8.34375 8.339843 8.34375 21.820312 0 30.164062zm0 0" fill="#fff"/></svg>