<?xml version="1.0" encoding="iso-8859-1"?>
<!-- Generator: Adobe Illustrator 19.0.0, SVG Export Plug-In . SVG Version: 6.00 Build 0)  -->
<svg version="1.1" id="Capa_1" xmlns="http://www.w3.org/2000/svg" xmlns:xlink="http://www.w3.org/1999/xlink" x="0px" y="0px"
	 viewBox="0 0 512 512" style="enable-background:new 0 0 512 512;" xml:space="preserve">
<path style="fill:#D1DCED;" d="M392.749,509.663l-38.16-22.482V368.475c0-4.269-3.461-7.73-7.73-7.73s-7.73,3.461-7.73,7.73v118.706
	l-38.16,22.482c-1.101,0.649-0.641,2.337,0.637,2.337h90.505C393.39,512,393.85,510.312,392.749,509.663z"/>
<path style="fill:#96223B;" d="M186.419,139.833V7.136c0-3.941-3.195-7.136-7.136-7.136h-38.279c-3.941,0-7.136,3.195-7.136,7.136
	v132.697c0,7.439-2.477,14.666-7.041,20.541l-17.034,21.928c-10.734,13.817-16.56,30.816-16.56,48.312v266.769
	c0,8.073,6.544,14.617,14.617,14.617h104.587c8.073,0,14.617-6.544,14.617-14.617V230.614c0-17.497-5.827-34.495-16.56-48.312
	l-17.034-21.928C188.896,154.499,186.419,147.272,186.419,139.833z"/>
<path style="fill:#E5EBF6;" d="M401.882,221.759H291.835c0,0-25.708,63.508-13.682,104.099
	c10.016,33.805,39.798,48.285,56.679,53.916c7.806,2.604,16.246,2.604,24.051,0c16.881-5.631,46.663-20.111,56.679-53.916
	C427.591,285.267,401.882,221.759,401.882,221.759z"/>
<path style="fill:#D1DCED;" d="M401.882,221.759h-46.608c0,0,20.488,62.315,13.681,104.099c-3.408,20.92-11.156,39.981-20.34,55.824
	c3.473-0.161,6.929-0.794,10.269-1.908c16.881-5.631,46.663-20.111,56.679-53.916C427.591,285.267,401.882,221.759,401.882,221.759z
	"/>
<path style="fill:#96223B;" d="M275.458,289.171c-1.06,12.764-0.594,25.583,2.696,36.687c10.016,33.805,39.798,48.285,56.679,53.916
	c7.806,2.604,16.245,2.604,24.051,0c16.881-5.631,46.663-20.111,56.679-53.916c3.29-11.104,3.756-23.923,2.696-36.687
	L275.458,289.171L275.458,289.171z"/>
<g>
	<path style="fill:#841935;" d="M416.124,323.842c0.059-0.225,0.112-0.454,0.168-0.681c0.114-0.456,0.228-0.912,0.334-1.373
		c0.062-0.269,0.118-0.542,0.177-0.813c0.092-0.424,0.183-0.847,0.268-1.275c0.058-0.291,0.111-0.584,0.166-0.877
		c0.077-0.412,0.153-0.825,0.223-1.241c0.051-0.302,0.099-0.606,0.148-0.91c0.065-0.413,0.129-0.827,0.188-1.243
		c0.044-0.307,0.086-0.614,0.126-0.923c0.055-0.42,0.108-0.841,0.157-1.263c0.036-0.305,0.071-0.611,0.104-0.918
		c0.046-0.433,0.089-0.869,0.129-1.305c0.028-0.298,0.056-0.596,0.081-0.896c0.038-0.456,0.071-0.914,0.103-1.372
		c0.02-0.282,0.041-0.564,0.059-0.847c0.031-0.503,0.056-1.008,0.08-1.513c0.011-0.239,0.025-0.477,0.035-0.717
		c0.026-0.637,0.045-1.275,0.06-1.915c0.003-0.111,0.007-0.221,0.01-0.332c0.016-0.773,0.025-1.548,0.026-2.325
		c0-0.014,0-0.028,0-0.042c0.001-0.749-0.005-1.499-0.018-2.251c-0.003-0.172-0.008-0.344-0.012-0.516
		c-0.012-0.594-0.026-1.189-0.046-1.786c-0.007-0.219-0.017-0.438-0.026-0.657c-0.021-0.554-0.044-1.108-0.072-1.663
		c-0.012-0.233-0.025-0.466-0.038-0.699c-0.03-0.542-0.061-1.084-0.097-1.627c-0.016-0.237-0.032-0.473-0.049-0.71
		c-0.038-0.547-0.08-1.094-0.124-1.641c-0.009-0.113-0.019-0.226-0.028-0.34H369.44c1.2,12.639,1.353,25.411-0.484,36.687
		c-3.408,20.92-11.156,39.981-20.34,55.824c0.001,0,0.003,0,0.004,0c0.862-0.04,1.723-0.11,2.582-0.208
		c0.006-0.001,0.013-0.001,0.019-0.002c0.805-0.093,1.606-0.216,2.405-0.361c0.107-0.019,0.214-0.038,0.32-0.059
		c0.764-0.145,1.526-0.313,2.282-0.505c0.116-0.029,0.231-0.062,0.346-0.092c0.773-0.204,1.543-0.426,2.305-0.681
		c0.001,0,0.003-0.001,0.004-0.001c1.583-0.528,3.279-1.134,5.061-1.826c0.594-0.231,1.198-0.471,1.81-0.721
		c17.146-7.006,41.044-21.79,49.808-51.369C415.761,325.192,415.947,324.519,416.124,323.842z"/>
	<path style="fill:#841935;" d="M210.494,182.302l-17.034-21.928c-4.564-5.875-7.041-13.102-7.041-20.54V7.136
		c0-3.941-3.195-7.136-7.136-7.136h-19.14v171.724c0,4.891,1.399,9.669,3.985,13.82c5.469,8.778,14.631,26.287,14.631,45.07v266.769
		c0,8.073-6.544,14.617-14.617,14.617h48.294c8.073,0,14.617-6.544,14.617-14.617V230.614
		C227.054,213.118,221.227,196.119,210.494,182.302z"/>
</g>
<path style="fill:#C8E8E5;" d="M227.054,386.464h-70.942c-7.049,0-12.763-5.714-12.763-12.763v-90.435
	c0-7.049,5.714-12.763,12.763-12.763h70.942V386.464z"/>
<rect x="178.76" y="270.5" style="fill:#B2D8D4;" width="48.29" height="115.96"/>
<path style="fill:#FFDC6C;" d="M179.283,0h-38.279c-3.941,0-7.136,3.195-7.136,7.136v116.829h52.552c0,0,0-90.455,0-116.829
	C186.419,3.195,183.224,0,179.283,0z"/>
<path style="fill:#F7CE5E;" d="M186.419,123.965v-91.94c0-10.284,0-19.12,0-24.89c0-0.739-0.112-1.452-0.321-2.122
	c-0.134-0.43-0.309-0.841-0.518-1.232c-0.008-0.016-0.014-0.032-0.023-0.047c-0.324-0.597-0.732-1.141-1.206-1.619
	c-0.008-0.008-0.015-0.017-0.023-0.025c-0.593-0.593-1.294-1.076-2.065-1.432c-0.278-0.128-0.562-0.246-0.858-0.338
	C180.734,0.112,180.022,0,179.283,0h-19.14v123.965H186.419z"/>
<path style="fill:#FFBF14;" d="M187.757,48.608H132.53c-1.611,0-2.918-1.306-2.918-2.918V25.799c0-1.611,1.306-2.918,2.918-2.918
	h55.227c1.611,0,2.918,1.306,2.918,2.918V45.69C190.674,47.302,189.368,48.608,187.757,48.608z"/>
<path style="fill:#EDA60A;" d="M187.757,22.882H142.38v25.726h45.377c1.611,0,2.918-1.306,2.918-2.918V25.799
	C190.674,24.188,189.368,22.882,187.757,22.882z"/>
<g>
</g>
<g>
</g>
<g>
</g>
<g>
</g>
<g>
</g>
<g>
</g>
<g>
</g>
<g>
</g>
<g>
</g>
<g>
</g>
<g>
</g>
<g>
</g>
<g>
</g>
<g>
</g>
<g>
</g>
</svg>
