<?xml version="1.0" encoding="iso-8859-1"?>
<!-- Generator: Adobe Illustrator 19.0.0, SVG Export Plug-In . SVG Version: 6.00 Build 0)  -->
<svg version="1.1" id="Capa_1" xmlns="http://www.w3.org/2000/svg" xmlns:xlink="http://www.w3.org/1999/xlink" x="0px" y="0px"
	 viewBox="0 0 512 512" style="enable-background:new 0 0 512 512;" xml:space="preserve">
<path style="fill:#546F7A;" d="M483.78,52.732H28.22C12.659,52.732,0,65.391,0,80.953v350.096c0,15.56,12.659,28.22,28.22,28.22
	H483.78c15.56,0,28.22-12.659,28.22-28.22V80.953C512,65.391,499.341,52.732,483.78,52.732z"/>
<path style="fill:#475D63;" d="M483.78,52.732h-36.331c15.56,0,28.22,12.659,28.22,28.22v350.096c0,15.56-12.659,28.22-28.22,28.22
	h36.331c15.56,0,28.22-12.659,28.22-28.22V80.953C512,65.391,499.341,52.732,483.78,52.732z"/>
<path style="fill:#4CE166;" d="M468.591,89.422H43.409c-4.145,0-7.505,3.36-7.505,7.505v276.041c0,4.145,3.36,7.505,7.505,7.505
	h425.183c4.145,0,7.505-3.36,7.505-7.505V96.927C476.096,92.782,472.736,89.422,468.591,89.422z"/>
<path style="fill:#44C868;" d="M468.591,89.422h-27.018v291.051h27.018c4.145,0,7.505-3.36,7.505-7.505V96.927
	C476.096,92.782,472.736,89.422,468.591,89.422z"/>
<rect x="279.455" y="89.589" style="fill:#A8EEFC;" width="99.326" height="192.958"/>
<polygon style="fill:#FFDB56;" points="421.585,380.473 421.585,89.422 378.307,89.422 378.307,282.379 278.982,282.379 
	278.982,89.422 235.704,89.422 235.704,261.111 136.377,187.05 136.377,89.422 93.101,89.422 93.101,380.473 136.377,380.473 
	136.377,241.034 235.704,315.094 235.704,380.473 278.982,380.473 278.982,325.656 378.307,325.656 378.307,380.473 "/>
<g>
	<path style="fill:#37494F;" d="M255.996,394.631c-13.701,0-24.848,11.147-24.848,24.848s11.146,24.848,24.848,24.848
		c13.702,0,24.848-11.147,24.848-24.848C280.845,405.778,269.699,394.631,255.996,394.631z"/>
	<path style="fill:#37494F;" d="M114.374,426.985H77.255c-4.145,0-7.505-3.36-7.505-7.505s3.36-7.505,7.505-7.505h37.119
		c4.145,0,7.505,3.36,7.505,7.505C121.879,423.624,118.518,426.985,114.374,426.985z"/>
	<path style="fill:#37494F;" d="M434.739,426.985h-37.12c-4.145,0-7.505-3.36-7.505-7.505s3.36-7.505,7.505-7.505h37.12
		c4.145,0,7.505,3.36,7.505,7.505S438.884,426.985,434.739,426.985z"/>
</g>
<path style="fill:#FF4A4A;" d="M255.807,118.961c-40.591,0-73.615,33.023-73.615,73.615c0,58.609,66.204,110.512,69.023,112.694
	c1.352,1.046,2.973,1.569,4.593,1.569c1.62,0,3.241-0.523,4.593-1.569c0.701-0.543,17.363-13.517,34.217-33.646
	c23.095-27.583,34.805-54.18,34.805-79.047C329.422,151.984,296.399,118.961,255.807,118.961z M282.175,192.576
	c0,14.563-11.805,26.367-26.367,26.367c-14.563,0-26.367-11.805-26.367-26.367c0-14.563,11.805-26.367,26.367-26.367
	C270.37,166.208,282.175,178.013,282.175,192.576z"/>
<path style="fill:#E7343F;" d="M255.807,118.961c-4.502,0-8.903,0.428-13.184,1.206c34.319,6.234,60.431,36.319,60.431,72.409
	c0,24.868-11.711,51.464-34.805,79.047c-9.574,11.436-19.083,20.557-25.643,26.406c4.787,4.254,8.03,6.792,8.608,7.24
	c1.352,1.046,2.973,1.569,4.593,1.569s3.241-0.523,4.593-1.569c0.701-0.543,17.363-13.517,34.217-33.646
	c23.095-27.583,34.805-54.18,34.805-79.047C329.422,151.984,296.399,118.961,255.807,118.961z"/>
<circle style="fill:#FFFFFF;" cx="255.809" cy="192.577" r="26.367"/>
<g>
</g>
<g>
</g>
<g>
</g>
<g>
</g>
<g>
</g>
<g>
</g>
<g>
</g>
<g>
</g>
<g>
</g>
<g>
</g>
<g>
</g>
<g>
</g>
<g>
</g>
<g>
</g>
<g>
</g>
</svg>
