<svg height="511pt" viewBox="0 1 511 511.99897" width="511pt" xmlns="http://www.w3.org/2000/svg"><path d="m457.582031 229.148438c0-126.554688-102.320312-229.148438-228.539062-229.148438-126.222657 0-228.542969 102.59375-228.542969 229.148438 0 126.554687 102.320312 229.148437 228.542969 229.148437 126.21875 0 228.539062-102.59375 228.539062-229.148437zm0 0" fill="#89c8fd"/><path d="m229.042969 0c-9.589844 0-19.035157.601562-28.3125 1.75 112.859375 13.980469 200.230469 110.453125 200.230469 227.398438 0 116.941406-87.371094 213.417968-200.230469 227.398437 9.277343 1.148437 18.722656 1.75 28.3125 1.75 126.21875 0 228.539062-102.59375 228.539062-229.148437 0-126.554688-102.320312-229.148438-228.539062-229.148438zm0 0" fill="#60b6ff"/><path d="m199.335938 89.054688c-35.207032 22.0625-61.609376 57.359374-41.804688 97.074218 19.800781 39.710938 63.808594 24.269532 104.515625 18.75 40.707031-5.515625 9.902344 120.238282 34.105469 151.128906 24.203125 30.882813 92.417968-30.886718 85.816406-70.601562-9.773438-58.796875-13.203125-79.421875 66.007812-121.339844l.214844-.078125c-26.699218-90.414062-107.519531-157.496093-204.839844-163.527343l-.007812.34375s-8.800781 66.1875-44.007812 88.25zm0 0" fill="#baeb6c"/><path d="m372.234375 50.5625c.015625.011719.027344.023438.042969.035156-.015625-.011718-.027344-.023437-.042969-.035156zm0 0" fill="#baeb6c"/><path d="m400.179688 77.296875c0 .003906.003906.007813.007812.007813-.003906 0-.007812-.003907-.007812-.007813zm0 0" fill="#baeb6c"/><path d="m77.214844 332.839844c-10.566406-16.125 18.703125-54.050782 25.304687-82.730469 6.601563-28.683594-33.003906-26.476563-45.105469-36.402344-12.101562-9.929687-28.605468-52.949219-40.707031-62.878906l-1.9375-1.527344c-9.222656 24.863281-14.269531 51.765625-14.269531 79.847657 0 75.742187 36.660156 142.890624 93.144531 184.609374l.074219-4.800781c0-.003906 8.800781-37.507812-16.503906-76.117187zm0 0" fill="#baeb6c"/><path d="m448.191406 163.988281c-9.59375-32.488281-26.175781-61.96875-48.003906-86.679687-.003906-.003906-.007812-.007813-.007812-.011719-8.535157-9.664063-17.871094-18.597656-27.902344-26.695313-.015625-.011718-.027344-.027343-.042969-.035156-35.707031-28.816406-80.230469-47.089844-128.878906-50.105468l-.011719.34375s-.503906 3.804687-1.757812 9.886718c82.285156 26.164063 144.394531 97.769532 157.015624 185.429688 10.917969-9.871094 26.78125-20.097656 49.378907-32.054688zm0 0" fill="#96d629"/><path d="m461.609375 331.796875v-233.519531c0-25.179688-20.410156-45.589844-45.589844-45.589844-25.179687 0-45.59375 20.410156-45.59375 45.589844v233.519531c-29.9375 16.21875-50.269531 47.90625-50.269531 84.34375 0 52.941406 42.917969 95.859375 95.863281 95.859375 52.941407 0 95.859375-42.917969 95.859375-95.859375 0-36.4375-20.332031-68.125-50.269531-84.34375zm0 0" fill="#f0f0f0"/><path d="m461.609375 331.796875v-233.519531c0-25.179688-20.410156-45.59375-45.589844-45.59375-6.015625 0-11.753906 1.179687-17.011719 3.292968 16.753907 6.742188 28.585938 23.136719 28.585938 42.300782v233.519531c29.933594 16.214844 50.265625 47.902344 50.265625 84.34375 0 47.136719-34.023437 86.328125-78.851563 94.351563 5.523438.992187 11.207032 1.507812 17.011719 1.507812 52.941407 0 95.859375-42.917969 95.859375-95.859375 0-36.4375-20.332031-68.125-50.269531-84.34375zm0 0" fill="#e8e8e8"/><g fill="#dbdbdb"><path d="m391.535156 121.441406c0-4.269531-3.460937-7.730468-7.730468-7.730468h-13.378907v15.460937h13.378907c4.269531 0 7.730468-3.460937 7.730468-7.730469zm0 0"/><path d="m391.535156 157.953125c0-4.269531-3.460937-7.730469-7.730468-7.730469h-13.378907v15.460938h13.378907c4.269531 0 7.730468-3.460938 7.730468-7.730469zm0 0"/><path d="m391.535156 194.464844c0-4.269532-3.460937-7.730469-7.730468-7.730469h-13.378907v15.460937h13.378907c4.269531 0 7.730468-3.460937 7.730468-7.730468zm0 0"/><path d="m391.535156 230.976562c0-4.269531-3.460937-7.730468-7.730468-7.730468h-13.378907v15.460937h13.378907c4.269531 0 7.730468-3.460937 7.730468-7.730469zm0 0"/><path d="m391.535156 267.488281c0-4.269531-3.460937-7.730469-7.730468-7.730469h-13.378907v15.460938h13.378907c4.269531 0 7.730468-3.457031 7.730468-7.730469zm0 0"/><path d="m391.535156 304.003906c0-4.273437-3.460937-7.734375-7.730468-7.734375h-13.378907v15.464844h13.378907c4.269531 0 7.730468-3.460937 7.730468-7.730469zm0 0"/><path d="m440.5 121.441406c0 4.269532 3.460938 7.730469 7.730469 7.730469h13.378906v-15.460937h-13.378906c-4.269531 0-7.730469 3.460937-7.730469 7.730468zm0 0"/><path d="m440.5 157.953125c0 4.269531 3.460938 7.730469 7.730469 7.730469h13.378906v-15.460938h-13.378906c-4.269531 0-7.730469 3.460938-7.730469 7.730469zm0 0"/><path d="m440.5 194.464844c0 4.269531 3.460938 7.730468 7.730469 7.730468h13.378906v-15.460937h-13.378906c-4.269531 0-7.730469 3.460937-7.730469 7.730469zm0 0"/><path d="m440.5 230.976562c0 4.269532 3.460938 7.730469 7.730469 7.730469h13.378906v-15.460937h-13.378906c-4.269531 0-7.730469 3.460937-7.730469 7.730468zm0 0"/><path d="m440.5 267.488281c0 4.273438 3.460938 7.730469 7.730469 7.730469h13.378906v-15.460938h-13.378906c-4.269531 0-7.730469 3.460938-7.730469 7.730469zm0 0"/><path d="m440.5 304.003906c0 4.269532 3.460938 7.730469 7.730469 7.730469h13.378906v-15.464844h-13.378906c-4.269531 0-7.730469 3.464844-7.730469 7.734375zm0 0"/></g><path d="m423.75 384.800781v-286.460937c0-4.269532-3.460938-7.730469-7.730469-7.730469-4.273437 0-7.734375 3.460937-7.734375 7.730469v286.457031c-14.484375 3.480469-25.253906 16.511719-25.253906 32.066406 0 18.21875 14.769531 32.988281 32.988281 32.988281 18.214844 0 32.984375-14.769531 32.984375-32.988281 0-15.550781-10.769531-28.585937-25.253906-32.0625zm0 0" fill="#fd646f"/></svg>