<?xml version="1.0" encoding="iso-8859-1"?>
<!-- Generator: Adobe Illustrator 19.0.0, SVG Export Plug-In . SVG Version: 6.00 Build 0)  -->
<svg version="1.1" id="Capa_1" xmlns="http://www.w3.org/2000/svg" xmlns:xlink="http://www.w3.org/1999/xlink" x="0px" y="0px"
	 viewBox="0 0 514.133 514.133" style="enable-background:new 0 0 514.133 514.133;" xml:space="preserve">
<rect x="131.2" y="415.266" style="fill:#344A5E;" width="251.733" height="41.6"/>
<g>
	<path style="fill:#415A6B;" d="M106.667,372.6l-29.867,96c-5.333,18.133,4.267,38.4,22.4,43.733l0,0
		c18.133,5.333,38.4-4.267,43.733-22.4L179.2,373.666h-72.533V372.6z"/>
	<path style="fill:#415A6B;" d="M407.467,372.6h-73.6l36.267,116.267c5.333,18.133,25.6,28.8,43.733,22.4l0,0
		c18.133-5.333,28.8-25.6,22.4-43.733L407.467,372.6z"/>
</g>
<rect x="36.267" y="55.8" style="fill:#F3F3F3;" width="441.6" height="267.733"/>
<rect x="107.733" y="190.2" style="fill:#FFD15C;" width="114.133" height="83.2"/>
<polygon style="fill:#F3705A;" points="249.6,190.2 164.267,104.866 78.933,190.2 "/>
<g>
	<path style="fill:#8AD7F8;" d="M486.4,323.533H27.733C12.8,323.533,0,335.266,0,351.266C0,366.2,11.733,379,27.733,379H486.4
		c14.933,0,27.733-11.733,27.733-27.733S501.333,323.533,486.4,323.533z"/>
	<path style="fill:#8AD7F8;" d="M27.733,55.8H486.4c14.933,0,27.733-11.733,27.733-27.733c0-14.933-11.733-27.733-27.733-27.733
		H27.733C12.8,0.333,0,12.066,0,28.066C0,43,12.8,55.8,27.733,55.8z"/>
</g>
<rect x="395.733" y="207.266" style="fill:#F3705A;" width="29.867" height="74.667"/>
<rect x="291.2" y="180.6" style="fill:#4EC0AA;" width="29.867" height="101.333"/>
<rect x="343.467" y="129.4" style="fill:#415A6B;" width="29.867" height="153.6"/>
<g>
</g>
<g>
</g>
<g>
</g>
<g>
</g>
<g>
</g>
<g>
</g>
<g>
</g>
<g>
</g>
<g>
</g>
<g>
</g>
<g>
</g>
<g>
</g>
<g>
</g>
<g>
</g>
<g>
</g>
</svg>
