<?xml version="1.0" encoding="iso-8859-1"?>
<!-- Generator: Adobe Illustrator 19.0.0, SVG Export Plug-In . SVG Version: 6.00 Build 0)  -->
<svg version="1.1" id="Capa_1" xmlns="http://www.w3.org/2000/svg" xmlns:xlink="http://www.w3.org/1999/xlink" x="0px" y="0px"
	 viewBox="0 0 512 512" style="enable-background:new 0 0 512 512;" xml:space="preserve">
<path style="fill:#11A892;" d="M304.175,99.683l-8.074,4.562c-17.099,9.645-25.133,21.591-24.553,36.519l0.41,10.295l-9.465,4.072
	c-0.8,0.35-1.241,0.51-1.241,0.51L256,157.593l-0.03,0.01l-5.483-1.991c0,0-0.33-0.12-0.93-0.38l-9.535-4.062l0.42-10.355
	c0.61-14.938-7.424-26.904-24.533-36.569l-8.094-4.572l0.48-9.265c1.181-22.952,13.387-48.636,36.279-76.35L256,0.23L256.19,0
	l11.556,14.107c22.732,27.725,34.828,53.408,35.969,76.32L304.175,99.683z"/>
<path style="fill:#0F9887;" d="M261.253,155.642L256,157.593V0.23L256.19,0l11.556,14.107c22.732,27.725,34.828,53.408,35.969,76.32
	l0.46,9.255l-8.074,4.562c-17.099,9.645-25.133,21.591-24.553,36.519l0.41,10.295l-9.465,4.072
	C261.693,155.482,261.253,155.642,261.253,155.642z"/>
<path style="fill:#11A892;" d="M352.791,74.389c0.1,47.145-11.666,79.612-34.978,96.481c-13.187,9.545-27.384,12.036-38.61,12.036
	c-11.746,0-20.241-2.721-20.911-2.952l-5.473-1.811l-2.852-5.003c-0.79-1.381-7.734-14.037-8.404-31.206
	c-0.72-18.47,5.593-44.533,39.781-63.834c14.087-7.954,32.097-14.147,53.508-18.4l17.899-3.552L352.791,74.389z"/>
<path style="fill:#0F9887;" d="M352.791,74.389c0.1,47.145-11.666,79.612-34.978,96.481c-13.187,9.545-27.384,12.036-38.61,12.036
	c-11.746,0-20.241-2.721-20.911-2.952l-5.473-1.811L352.751,56.15L352.791,74.389z"/>
<path style="fill:#11A892;" d="M270.438,142.035c-0.69,17.119-7.614,29.726-8.404,31.106l-2.852,5.003l-5.473,1.811
	c-0.67,0.23-9.165,2.952-20.911,2.952c-11.226,0-25.423-2.491-38.61-12.036c-23.312-16.869-35.078-49.336-34.978-96.481l0.04-18.24
	l17.899,3.552c21.421,4.262,39.421,10.446,53.518,18.4C266.696,98.452,271.048,126.887,270.438,142.035z"/>
<path style="fill:#0F9887;" d="M270.438,142.035c-0.69,17.119-7.614,29.726-8.404,31.106l-2.852,5.003L159.249,56.15l17.899,3.552
	c21.421,4.262,39.421,10.446,53.518,18.4C266.696,98.452,271.048,126.887,270.438,142.035z"/>
<path style="fill:#FFDF48;" d="M376.343,242.588v180.755c0,11.166-2.071,21.852-5.863,31.697
	c-3.642,9.495-8.885,18.22-15.378,25.824C338.824,499.914,314.641,512,287.687,512h-63.373c-26.834,0-50.917-11.986-67.195-30.876
	c-6.523-7.584-11.796-16.279-15.468-25.764c-3.872-9.935-5.993-20.731-5.993-32.017V242.588c0-9.115,1.381-17.909,3.952-26.194
	c3.032-9.795,7.724-18.87,13.747-26.894c16.179-21.571,41.972-35.559,70.957-35.559h63.373c29.436,0,55.569,14.418,71.688,36.559
	c5.913,8.104,10.486,17.249,13.377,27.104C375.093,225.529,376.343,233.913,376.343,242.588z"/>
<path style="fill:#FFD400;" d="M376.343,242.588v180.755c0,11.166-2.071,21.852-5.863,31.697
	c-3.642,9.495-8.885,18.22-15.378,25.824C338.824,499.914,314.641,512,287.687,512H256V153.941h31.687
	c29.436,0,55.569,14.418,71.688,36.559c5.913,8.104,10.486,17.249,13.377,27.104C375.093,225.529,376.343,233.913,376.343,242.588z"
	/>
<g>
	<rect x="240.997" y="201.476" style="fill:#C27B48;" width="30.016" height="30.016"/>
	<rect x="240.997" y="321.57" style="fill:#C27B48;" width="30.016" height="30.016"/>
	<rect x="240.997" y="443.294" style="fill:#C27B48;" width="30.016" height="30.016"/>
	<rect x="330.694" y="381.161" style="fill:#C27B48;" width="30.016" height="30.016"/>
	<rect x="330.694" y="260.537" style="fill:#C27B48;" width="30.016" height="30.016"/>
	<rect x="150.669" y="381.161" style="fill:#C27B48;" width="30.016" height="30.016"/>
	<rect x="150.669" y="260.537" style="fill:#C27B48;" width="30.016" height="30.016"/>
</g>
<g>
	<rect x="256.005" y="201.476" style="fill:#A66235;" width="15.008" height="30.016"/>
	<rect x="256.005" y="443.294" style="fill:#A66235;" width="15.008" height="30.016"/>
	<rect x="330.694" y="260.537" style="fill:#A66235;" width="30.016" height="30.016"/>
	<rect x="330.694" y="381.161" style="fill:#A66235;" width="30.016" height="30.016"/>
	<rect x="256.005" y="321.57" style="fill:#A66235;" width="15.008" height="30.016"/>
</g>
<path style="fill:#FFB13B;" d="M376.343,297.737l-29.295,19.67l-63.614-42.012l89.317-57.79c-2.892-9.855-7.464-19-13.377-27.104
	L256.09,257.346l-0.09-0.06L153.356,189.5c-6.023,8.024-10.716,17.099-13.747,26.894l88.967,58.751l-64.734,41.892l-28.185-18.82
	v36.089l0.74,0.49l-0.74,0.48v35.749l27.925-18.07l65.455,43.713L141.65,455.36c3.672,9.485,8.945,18.18,15.468,25.764L256,414.719
	l0.03-0.02l99.072,66.165c6.493-7.604,11.736-16.329,15.378-25.824l-87.506-58.441l64.214-43.133l29.155,19.26v-35.969l-2.151-1.421
	l2.151-1.441L376.343,297.737L376.343,297.737z M256,378.56l-0.02,0.01l-64.954-43.373l64.894-41.992l0.08,0.05l64.044,42.292
	L256,378.56z"/>
<path style="fill:#FF9500;" d="M376.343,333.896l-2.151,1.441l2.151,1.421v35.969l-29.155-19.26l-64.214,43.133l87.506,58.441
	c-3.642,9.495-8.885,18.22-15.378,25.824l-99.072-66.165l-0.03,0.02V378.56l64.044-43.013L256,293.255v-35.969l0.09,0.06
	L359.375,190.5c5.913,8.104,10.486,17.249,13.377,27.104l-89.317,57.79l63.614,42.012l29.295-19.67L376.343,333.896L376.343,333.896
	z"/>
<g>
</g>
<g>
</g>
<g>
</g>
<g>
</g>
<g>
</g>
<g>
</g>
<g>
</g>
<g>
</g>
<g>
</g>
<g>
</g>
<g>
</g>
<g>
</g>
<g>
</g>
<g>
</g>
<g>
</g>
</svg>
