<?xml version="1.0" encoding="iso-8859-1"?>
<!-- Generator: Adobe Illustrator 19.0.0, SVG Export Plug-In . SVG Version: 6.00 Build 0)  -->
<svg version="1.1" id="Capa_1" xmlns="http://www.w3.org/2000/svg" xmlns:xlink="http://www.w3.org/1999/xlink" x="0px" y="0px"
	 viewBox="0 0 512 512" style="enable-background:new 0 0 512 512;" xml:space="preserve">
<polygon style="fill:#BEEBFA;" points="480.107,480.107 484.669,416.001 235.984,395.985 256,480.107 "/>
<polygon style="fill:#E1F4FA;" points="31.893,480.107 256,480.107 256,395.985 27.331,416.001 "/>
<polygon style="fill:#FF7C48;" points="499.446,208.319 235.984,188.303 256,416.001 484.669,416.001 "/>
<polygon style="fill:#FFB655;" points="12.554,208.319 27.331,416.001 256,416.001 256,188.303 "/>
<polygon style="fill:#BEEBFA;" points="512,31.893 256,31.893 235.984,120.106 256,208.319 499.446,208.319 "/>
<polygon style="fill:#E1F4FA;" points="0,31.893 12.554,208.319 256,208.319 256,31.893 "/>
<polygon style="fill:#FF7C48;" points="90.005,275.281 223.93,275.281 223.93,208.319 156.967,188.303 90.005,208.319 "/>
<polygon style="fill:#D03B00;" points="288.07,208.319 288.07,275.281 421.996,275.281 421.996,208.319 355.033,188.303 "/>
<rect x="90" y="141.36" style="fill:#9EE2F8;" width="133.93" height="66.963"/>
<rect x="288.07" y="141.36" style="fill:#5ECEF4;" width="133.93" height="66.963"/>
<g>
</g>
<g>
</g>
<g>
</g>
<g>
</g>
<g>
</g>
<g>
</g>
<g>
</g>
<g>
</g>
<g>
</g>
<g>
</g>
<g>
</g>
<g>
</g>
<g>
</g>
<g>
</g>
<g>
</g>
</svg>
