<?xml version="1.0" encoding="iso-8859-1"?>
<!-- Generator: Adobe Illustrator 19.0.0, SVG Export Plug-In . SVG Version: 6.00 Build 0)  -->
<svg version="1.1" id="Capa_1" xmlns="http://www.w3.org/2000/svg" xmlns:xlink="http://www.w3.org/1999/xlink" x="0px" y="0px"
	 viewBox="0 0 512 512" style="enable-background:new 0 0 512 512;" xml:space="preserve">
<path style="fill:#FC502A;" d="M433.943,512H78.057c-8.927,0-16.016-7.507-15.505-16.42l18.22-317.718
	c0.471-8.218,7.273-14.641,15.505-14.641h319.446c8.232,0,15.034,6.423,15.505,14.641l18.22,317.718
	C449.959,504.493,442.87,512,433.943,512z"/>
<g>
	<path style="fill:#E60D28;" d="M449.448,495.58l-18.22-317.718c-0.471-8.218-7.273-14.641-15.505-14.641h-40.347L395.378,512
		h38.565C442.87,512,449.959,504.493,449.448,495.58z"/>
	<circle style="fill:#E60D28;" cx="133.75" cy="208.66" r="21.09"/>
	<circle style="fill:#E60D28;" cx="378.25" cy="208.66" r="21.09"/>
</g>
<path style="fill:#5E566A;" d="M133.755,229.75c0.027,0,0.054,0,0.081,0c4.197-0.016,7.536-3.551,7.536-7.748v-90.784
	c0-64.329,52.37-117.105,116.689-115.966c62.259,1.103,112.567,52.091,112.567,114.609v92.141c0,4.197,3.339,7.732,7.536,7.748
	c0.027,0,0.054,0,0.081,0s0.054,0,0.081,0c4.197-0.016,7.536-3.551,7.536-7.748v-90.613c0-72.873-59.326-132.655-132.188-131.369
	c-70.537,1.245-127.536,59.012-127.536,129.841v92.141c0,4.197,3.339,7.732,7.536,7.748
	C133.701,229.75,133.728,229.75,133.755,229.75z"/>
<g>
	<path style="fill:#FFFFFF;" d="M170.355,369.009c0-20.597-37.819-12.568-37.819-40.496c0-17.222,14.429-22.342,26.88-22.342
		c7.564,0,21.179,1.978,21.179,8.379c0,2.327-1.629,6.633-5.12,6.633c-3.142,0-6.168-4.422-16.059-4.422
		c-8.494,0-14.546,3.258-14.546,10.589c0,17.222,37.819,9.426,37.819,40.379c0,16.64-11.171,24.786-26.532,24.786
		c-15.127,0-25.717-7.913-25.717-13.731c0-2.793,2.444-6.633,5.353-6.633c4.189,0,6.982,9.193,19.898,9.193
		C164.071,381.344,170.355,377.387,170.355,369.009z"/>
	<path style="fill:#FFFFFF;" d="M235.636,352.369h-28.975v35.142c0,2.676-3.025,4.073-6.168,4.073c-3.025,0-6.168-1.396-6.168-4.073
		v-77.034c0-2.793,3.142-3.957,6.168-3.957c3.142,0,6.168,1.164,6.168,3.957v32.117h28.975v-32.117c0-2.793,3.142-3.957,6.168-3.957
		c3.142,0,6.168,1.164,6.168,3.957v77.034c0,2.676-3.025,4.073-6.168,4.073c-3.025,0-6.168-1.396-6.168-4.073V352.369z"/>
	<path style="fill:#FFFFFF;" d="M262.516,366.333V332.47c0-18.852,11.287-25.95,26.066-25.95c14.662,0,26.182,7.098,26.182,25.95
		v33.863c0,18.851-11.52,25.949-26.182,25.949C273.803,392.282,262.516,385.184,262.516,366.333z M302.43,332.47
		c0-10.24-5.237-15.011-13.848-15.011c-8.728,0-13.731,4.771-13.731,15.011v33.863c0,10.24,5.004,15.011,13.731,15.011
		c8.611,0,13.848-4.771,13.848-15.011V332.47z"/>
	<path style="fill:#FFFFFF;" d="M329.193,310.477c0-2.095,1.862-3.957,4.771-3.957h22.691c14.313,0,25.484,6.866,25.484,25.601
		v0.931c0,18.619-11.52,25.717-26.183,25.717h-14.429v28.742c0,2.676-3.025,4.073-6.168,4.073c-3.025,0-6.168-1.396-6.168-4.073
		v-77.034H329.193z M341.528,317.459v31.535h14.429c8.611,0,13.848-4.888,13.848-15.128v-1.396c0-10.24-5.236-15.011-13.848-15.011
		L341.528,317.459L341.528,317.459z"/>
</g>
<g>
</g>
<g>
</g>
<g>
</g>
<g>
</g>
<g>
</g>
<g>
</g>
<g>
</g>
<g>
</g>
<g>
</g>
<g>
</g>
<g>
</g>
<g>
</g>
<g>
</g>
<g>
</g>
<g>
</g>
</svg>
