<svg id="Capa_1" enable-background="new 0 0 497.31 497.31" height="512" viewBox="0 0 497.31 497.31" width="512" xmlns="http://www.w3.org/2000/svg"><g><g><path d="m285.43 64.822 17.506-47.565c3.082-8.373-3.114-17.257-12.037-17.257h-88.889c-8.923 0-15.12 8.884-12.038 17.257l17.506 47.565 9.478 22.465h58z" fill="#e19974"/></g><g><path d="m298.555 145.027c-4.51-6.56-6.93-14.33-6.93-22.29v-24.21l.95-25.21h-91.29v25.21 24.21c0 7.96-2.42 15.73-6.93 22.29l-77.59 112.72 6.467 85.867h225.398l20.124-96.617z" fill="#f2fbff"/><path d="m274.072 73.317h-27.068-45.719v25.21 24.21c0 7.96-2.42 15.73-6.93 22.29l-77.59 112.72 6.467 85.867h30.682c1.711-23.961 9.673-48.155 25.019-70.447l10.61-15.42h.01l77.59-112.72c4.51-6.56 6.93-14.33 6.93-22.29 0-5.085 4.12-9.209 9.205-9.215 4.159-.005 8.19-.011 8.347-.016v-14.979l.95-25.21z" fill="#dff6fd"/><path d="m219.885 98.531 5.952 16.17c1.857 5.045 6.662 8.397 12.038 8.397h17.161c5.375 0 10.181-3.352 12.038-8.397l5.952-16.17 7.616-16.854h-67.273z" fill="#e19974"/><path d="m285.43 64.822 5.521-15h-36.163c-11.447 0-21.68-7.138-25.633-17.88l-7.469-20.295c-1.523-4.137-.775-8.394 1.442-11.647h-21.118c-8.923 0-15.12 8.884-12.038 17.257l17.506 47.565 9.478 22.464h12.561 45.439l2.616-5.61z" fill="#dc8758"/><path d="m290.635 98.531h-89.362c-7.282 0-13.186-5.903-13.186-13.186v-7.337c0-7.282 5.903-13.186 13.186-13.186h89.362c7.282 0 13.186 5.903 13.186 13.186v7.337c0 7.282-5.903 13.186-13.186 13.186z" fill="#dff6fd"/><g id="XMLID_379_"><g><path d="m386.764 273.167c65.11 94.58-2.6 223.4-117.43 223.4h-45.76c-114.83 0-182.54-128.82-117.43-223.4l10.61-15.42h.01l41.74-12.98c33.23-10.33 68.93-9.56 101.69 2.19 17.48 6.27 35.79 9.42 54.12 9.42 16.16 0 32.32-2.44 47.94-7.34l6.5-2.04z" fill="#fedf30"/></g></g><path d="m178.932 273.167 10.61-15.42h.01l13.889-20.177c-15.15.249-30.283 2.642-44.936 7.197l-41.74 12.98h-.01l-10.61 15.42c-65.11 94.58 2.6 223.4 117.43 223.4h45.76c4.585 0 9.086-.227 13.515-.627-106.504-9.626-166.429-131.969-103.918-222.773z" fill="#fed402"/><ellipse cx="306.847" cy="442.335" fill="#68ca44" rx="59.099" ry="40.056" transform="matrix(.5 -.866 .866 .5 -229.65 486.905)"/></g><ellipse cx="357.446" cy="456.515" fill="#80d261" rx="59.099" ry="40.056"/></g></svg>