<svg id="Capa_1" enable-background="new 0 0 511.998 511.998" height="512" viewBox="0 0 511.998 511.998" width="512" xmlns="http://www.w3.org/2000/svg"><g><path d="m410 401.645h-410v-250h410z" fill="#b7e4f8"/><path d="m205 151.645h205v250h-205z" fill="#6fc8f1"/><path d="m205 302.261-205-126.237v-24.379h410v24.379z" fill="#388cb3"/><path d="m205 151.645v150.616l205-126.237v-24.379z" fill="#265d77"/><path d="m398 412.645c-29.339.001-56.92-11.445-77.663-32.228-21.147-21.189-33.944-49.318-36.032-79.207-2.089-29.888 6.671-59.527 24.664-83.459l89.016-118.397 56.702 75.222-.861 6.15c-2.147 15.329-1.712 31.072 1.35 47.723 2.717-2.403 4.844-5.185 6.456-8.401l10.847-21.654 14.554 19.358c17.993 23.932 26.753 53.571 24.664 83.459-2.088 29.889-14.885 58.018-36.033 79.206-20.744 20.782-48.325 32.228-77.664 32.228z" fill="#ffab2d"/><path d="m487.031 217.73-14.554-19.358-10.847 21.654c-1.612 3.217-3.739 5.998-6.456 8.401-3.062-16.65-3.497-32.394-1.35-47.723l.861-6.15-56.685-75.2v313.27c29.339 0 56.92-11.445 77.662-32.229 21.148-21.188 33.945-49.317 36.033-79.206 2.089-29.887-6.671-59.527-24.664-83.459z" fill="#f90"/><path d="m398 412.645c-29.339.001-56.92-11.445-77.663-32.228-21.147-21.189-33.944-49.318-36.032-79.207-2.089-29.888 6.671-59.527 24.664-83.459l89.016-118.397 56.702 75.222-.861 6.15c-2.147 15.329-1.712 31.072 1.35 47.723 2.717-2.403 4.844-5.185 6.456-8.401l10.847-21.654 14.554 19.358c17.993 23.932 26.753 53.571 24.664 83.459-2.088 29.889-14.885 58.018-36.033 79.206-20.744 20.782-48.325 32.228-77.664 32.228zm.016-263.41-65.068 86.544c-13.654 18.161-20.301 40.656-18.716 63.34s11.294 44.029 27.339 60.104c15.075 15.104 35.115 23.422 56.43 23.422 21.314.001 41.354-8.317 56.429-23.421 16.046-16.076 25.755-37.422 27.34-60.105 1.127-16.118-1.904-32.142-8.651-46.583-6.481 5.25-14.317 9.385-23.464 12.369l-14.822 4.837-4.26-14.998c-7.188-25.306-9.563-48.897-7.217-71.895z" fill="#ffe565"/><path d="m487.031 217.751-5.297-7.046c-1.904 3.081-4.22 5.836-6.998 8.294-1.224-6.659-2.128-13.207-2.728-19.667l-10.376 20.715c-1.612 3.217-3.739 5.998-6.456 8.401-3.062-16.65-3.497-32.394-1.35-47.723l.861-6.15-56.687-75.201v49.881l.016-.021 25.339 33.614c-2.347 22.997.028 46.589 7.217 71.895l4.26 14.998 14.822-4.837c9.146-2.984 16.982-7.119 23.464-12.369 6.747 14.441 9.778 30.465 8.651 46.583-1.585 22.684-11.294 44.029-27.34 60.105-15.074 15.104-35.114 23.422-56.429 23.421v30c29.339 0 56.92-11.445 77.662-32.229 21.148-21.188 33.945-49.317 36.033-79.206 2.089-29.887-6.671-59.526-24.664-83.458z" fill="#ffd400"/><path d="m376 412.645c-16.167 0-31.367-6.296-42.799-17.729-23.608-23.607-26.264-61.521-6.175-88.189l48.974-65.012 48.974 65.012c20.088 26.669 17.435 64.582-6.174 88.189-11.433 11.433-26.632 17.729-42.8 17.729z" fill="#ff7b01"/><path d="m398 408.521c7.704-3.002 14.778-7.583 20.8-13.605 23.608-23.607 26.262-61.521 6.174-88.189l-26.974-35.807z" fill="#ff4f18"/></g></svg>