<svg id="Flat" height="512" viewBox="0 0 512 512" width="512" xmlns="http://www.w3.org/2000/svg"><path d="m360 408h112a16 16 0 0 1 16 16v16a16 16 0 0 1 -16 16h-201.837c-4.071 0-162.092-32-166.163-32h-80v-144h120c40 0 120 72 120 72l80 24s16 8 16 16v16a16 16 0 0 1 -16 16l-80-16-56-32" fill="#fbdac1"/><path d="m344 424-80-16-56-32-48-8v16l48 8 56 24 80 16a16 16 0 0 0 16-16v-8a16 16 0 0 1 -16 16z" fill="#efbfa7"/><path d="m24 264h48v176h-48z" fill="#c3c6c7"/><g fill="#f7cc38"><path d="m322.61 256-34.61-19.132-34.61 19.132 6.61-40.522-28-28.698 38.695-5.912 17.305-36.868 17.305 36.868 38.695 5.912-28 28.698z"/><path d="m194.61 184-34.61-19.132-34.61 19.132 6.61-40.522-28-28.698 38.695-5.912 17.305-36.868 17.305 36.868 38.695 5.912-28 28.698z"/><path d="m450.61 328-34.61-19.132-34.61 19.132 6.61-40.522-28-28.698 38.695-5.912 17.305-36.868 17.305 36.868 38.695 5.912-28 28.698z"/></g></svg>