<?xml version="1.0" encoding="iso-8859-1"?>
<!-- Generator: Adobe Illustrator 19.0.0, SVG Export Plug-In . SVG Version: 6.00 Build 0)  -->
<svg xmlns="http://www.w3.org/2000/svg" xmlns:xlink="http://www.w3.org/1999/xlink" version="1.1" id="Capa_1" x="0px" y="0px" viewBox="0 0 465.136 465.136" style="enable-background:new 0 0 465.136 465.136;" xml:space="preserve">
<path style="fill:#666666;" d="M421.812,85.912h-21.6v8h21.6V85.912L421.812,85.912z M378.612,85.912h-21.6v8h21.6V85.912  L378.612,85.912z M335.412,85.912h-21.6v8h21.6V85.912L335.412,85.912z M292.212,85.912h-21.6v8h21.6V85.912L292.212,85.912z   M249.012,85.912h-21.6v8h21.6V85.912L249.012,85.912z M205.812,85.912h-21.6v8h21.6V85.912L205.812,85.912z M162.612,85.912h-21.6  v8h21.6V85.912L162.612,85.912z M119.412,85.912h-21.6v8h21.6V85.912L119.412,85.912z M76.212,85.912h-21.6v8h21.6V85.912  L76.212,85.912z M33.012,85.912h-21.6v8h21.6V85.912L33.012,85.912z M8.124,96.224h-8v21.6h8V96.224L8.124,96.224z M8.124,139.416  h-8v21.6h8V139.416L8.124,139.416z M8.124,182.624h-8v21.6h8V182.624L8.124,182.624z M8.124,225.816h-8v21.6h8V225.816  L8.124,225.816z M8.124,269.016h-8v21.6h8V269.016L8.124,269.016z M8.124,312.216h-8v21.6h8V312.216L8.124,312.216z M8.124,355.416  h-8v9.92h8l0,0l0,0l0,0l0,0c2.048,0,3.68,0,3.68,0v-8h-3.68V355.416L8.124,355.416z M55.004,357.328h-21.6v8h21.6V357.328  L55.004,357.328z M98.204,357.328h-21.6v8h21.6V357.328L98.204,357.328z M141.404,357.328h-21.6v8h21.6V357.328L141.404,357.328z   M184.604,357.328h-21.6v8h21.6V357.328L184.604,357.328z M227.804,357.328h-21.6v8h21.6V357.328L227.804,357.328z M271.004,357.328  h-21.6v8h21.6V357.328L271.004,357.328z M314.204,357.328h-21.6v8h21.6V357.328L314.204,357.328z M357.404,357.328h-21.6v8h21.6  V357.328L357.404,357.328z M400.604,357.328h-21.6v8h21.6V357.328L400.604,357.328z M443.804,357.328h-21.6v8h21.6V357.328  L443.804,357.328z M465.012,343.344h-8v21.6h8V343.344L465.012,343.344z M465.012,300.144h-8v21.6h8V300.144L465.012,300.144z   M465.012,256.952h-8v21.6h8V256.952L465.012,256.952z M465.012,213.744h-8v21.6h8V213.744L465.012,213.744z M465.012,170.552h-8  v21.6h8V170.552L465.012,170.552z M465.012,127.344h-8v21.6h8V127.344L465.012,127.344z M465.012,85.912h-21.6v8h13.6v11.84h8  V85.912L465.012,85.912z"/>
<rect x="249.38" y="219.24" style="fill:#8BA0AE;" width="89.824" height="76.272"/>
<rect x="249.38" y="179.816" style="fill:#FFD07D;" width="89.824" height="39.376"/>
<rect x="238.1" y="243.816" width="112.48" height="27.12"/>
<circle style="fill:#FFD07D;" cx="294.332" cy="100" r="100"/>
<g>
	<rect x="251.38" y="51.888" style="fill:#FFFFFF;" width="85.872" height="16"/>
	<rect x="251.38" y="92" style="fill:#FFFFFF;" width="85.872" height="16"/>
	<rect x="251.38" y="132.112" style="fill:#FFFFFF;" width="85.872" height="16"/>
</g>
<path style="fill:#E04F5F;" d="M56.084,130.296v334.84h335.08L56.084,130.296z M116.476,281.88l123.072,122.992H116.476V281.88z"/>
<g>
</g>
<g>
</g>
<g>
</g>
<g>
</g>
<g>
</g>
<g>
</g>
<g>
</g>
<g>
</g>
<g>
</g>
<g>
</g>
<g>
</g>
<g>
</g>
<g>
</g>
<g>
</g>
<g>
</g>
</svg>
