<svg id="Capa_1" enable-background="new 0 0 512 512" height="512" viewBox="0 0 512 512" width="512" xmlns="http://www.w3.org/2000/svg"><g><path d="m366.703 134.246c-46.567-25.861-63.353-84.576-37.493-131.143 1.616-2.91 5.286-3.96 8.196-2.343l158.096 87.797c2.91 1.616 3.96 5.286 2.343 8.196-25.859 46.567-84.574 63.353-131.142 37.493z" fill="#00c27a"/><path d="m459.041 134.971c-27.923 14.91-62.602 15.787-92.337-.727-20.732-11.51-35.555-29.526-43.344-50.097 8.381 13.627 20.278 25.342 35.258 33.664 29.735 16.514 64.414 15.637 92.337.727 14.604-7.798 27.352-19.427 36.574-34.412l7.97 4.427c2.917 1.614 3.962 5.285 2.348 8.201-9.35 16.835-22.992 29.773-38.806 38.217z" fill="#08b865"/><path d="m380.971 108.554c-33.213-18.445-45.186-60.322-26.741-93.535l2.087-3.759 120.276 66.794-2.087 3.759c-18.445 33.214-60.322 45.186-93.535 26.741z" fill="#bbec6c"/><path d="m380.973 108.558c-18.434-10.231-30.321-27.688-34.102-46.872 6.027 11.131 15.2 20.748 27.087 27.348 30.439 16.899 68.14 8.266 88.432-18.866l14.199 7.884-2.079 3.759c-18.446 33.215-60.328 45.184-93.537 26.747z" fill="#a2e62e"/><g><path d="m406.142 38.932-51.439 43.748c2.835 4.949 9.702 12.826 9.362 12.342l46.284-39.356-8.994 60.317s2.308.508 5.323.861c3.178.372 7.143.584 10.135.324l9.96-66.792z" fill="#95d122"/></g><path d="m361.582 77.925h-331.974c-10.269 0-17.95 9.429-15.873 19.486l42.589 206.208c9.09 44.012 13.67 88.835 13.67 133.776v18.639l8.459 7.33v24.231c0 13.476 10.924 17.521 24.4 17.521h185.482c13.476 0 24.4-4.045 24.4-17.521v-24.231l8.459-7.33v-18.639c0-44.941 4.58-89.764 13.67-133.776l42.589-206.208c2.078-10.057-5.602-19.486-15.871-19.486z" fill="#c8effe"/><path d="m377.458 97.412-42.593 206.211c-9.094 44.006-13.672 88.836-13.672 133.769v50.202c0 13.476-10.919 24.405-24.395 24.405h-20.714c13.476 0 24.395-10.929 24.395-24.405v-50.202c0-44.933 4.578-89.764 13.672-133.769l42.593-206.211c2.072-10.063-5.609-19.487-15.878-19.487h20.714c10.269 0 17.951 9.424 15.878 19.487z" fill="#99e6fc"/><path d="m304.743 191.434c-39.159 0-179.138 0-218.297 0-5.193 0-9.004 4.873-7.753 9.913 9.092 36.634 26.1 110.584 29.132 172.7.542 11.109.295 22.238.12 33.365-.107 6.85 5.413 12.461 12.264 12.461h150.772c6.85 0 12.371-5.611 12.264-12.461-.175-11.127-.422-22.256.12-33.365 3.031-62.116 20.04-136.066 29.132-172.7 1.25-5.041-2.561-9.913-7.754-9.913z" fill="#bbec6c"/><path d="m312.492 201.343c-9.084 36.633-26.096 110.591-29.127 172.702-.547 11.115-.299 22.24-.124 33.365.113 6.856-5.413 12.465-12.259 12.465h-21.889c6.857 0 12.373-5.609 12.27-12.465-.175-11.125-.423-22.25.124-33.365 3.031-62.111 20.033-136.068 29.127-172.702 1.248-5.032-2.557-9.909-7.754-9.909h21.889c5.186 0 9 4.877 7.743 9.909z" fill="#a2e62e"/><path d="m321.194 456.037v31.556c0 13.477-10.918 24.405-24.395 24.405h-202.404c-13.477 0-24.405-10.929-24.405-24.405v-31.556z" fill="#62dbfb"/><path d="m321.194 456.034v31.561c0 13.476-10.919 24.405-24.395 24.405h-20.714c13.476 0 24.395-10.929 24.395-24.405v-31.561z" fill="#01d0fb"/><g><path d="m250.179 328.067-44.578 44.578c-3.84 3.84-10.066 3.84-13.906 0l-44.578-44.578c-3.84-3.84-3.84-10.066 0-13.906l44.578-44.578c3.84-3.84 10.066-3.84 13.906 0l44.578 44.578c3.84 3.841 3.84 10.066 0 13.906z" fill="#f3f0f3"/><path d="m250.175 328.066-44.571 44.582c-3.847 3.837-10.063 3.837-13.91 0l-5.155-5.166 39.406-39.417c3.837-3.837 3.837-10.063 0-13.9l-39.406-39.417 5.155-5.166c3.847-3.837 10.063-3.837 13.91 0l44.571 44.582c3.847 3.839 3.847 10.065 0 13.902z" fill="#e2dee2"/><path d="m226.411 191.861-44.578 44.578c-3.84 3.84-10.066 3.84-13.906 0l-44.578-44.578c-3.84-3.84-3.84-10.066 0-13.906l44.578-44.578c3.84-3.84 10.066-3.84 13.906 0l44.578 44.578c3.84 3.84 3.84 10.066 0 13.906z" fill="#f3f0f3"/><path d="m226.415 191.86-44.582 44.582c-3.837 3.837-10.063 3.837-13.9 0l-5.166-5.165 39.406-39.417c3.847-3.837 3.847-10.063 0-13.9l-39.406-39.417 5.166-5.166c3.837-3.837 10.063-3.837 13.9 0l44.582 44.582c3.836 3.838 3.836 10.065 0 13.901z" fill="#e2dee2"/></g></g></svg>