<svg id="Capa_1" enable-background="new 0 0 512 512" height="512" viewBox="0 0 512 512" width="512" xmlns="http://www.w3.org/2000/svg"><g><g><path d="m191.203.901c-3.904 1.199-6.903 3.898-8.701 7.798l-54.002 115.002c-3.3 6.899-.901 15.298 5.999 19.199l114.001 66c2.402 1.5 4.797 2.1 7.5 2.1 1.802 0 3.3-.3 4.797-.901l-4.647-103.649z" fill="#2682ff"/><path d="m377.501 142.899-114.001 66c-.901.601-1.802.901-2.703 1.199l-69.594-209.197c1.497-.601 3.296-.901 4.797-.901h120c5.698 0 11.1 3.3 13.499 8.699l54.001 115.002c3.3 6.899.901 15.298-5.999 19.198z" fill="#6aa9ff"/></g><g id="Medal_35_"><g><path d="m256.146 512c-1.377 0-2.783-.19-4.102-.571-68.319-19.497-116.044-82.647-116.044-153.575v-86.854c0-5.332 2.842-10.269 7.471-12.949 4.629-2.71 10.371-2.71 14.941-.088.234.132 23.291 13.037 45.088 13.037 15.732 0 35.537-18.442 41.221-24.902 5.742-6.445 16.816-6.445 22.559 0 5.683 6.46 25.488 24.902 41.22 24.902 21.65 0 44.824-12.891 45.059-13.022 4.658-2.637 10.4-2.622 14.971.044 4.628 2.695 7.47 7.631 7.47 12.978v86.928c0 70.884-47.578 134.004-115.723 153.486-1.347.396-2.754.586-4.131.586z" fill="#fed843"/></g></g><path d="m256.146 512c1.377 0 2.783-.19 4.131-.586 68.145-19.482 115.723-82.602 115.723-153.486v-86.928c0-5.347-2.842-10.283-7.471-12.979-4.57-2.666-10.313-2.681-14.971-.044-.234.132-23.408 13.023-45.058 13.023-15.732 0-35.537-18.442-41.221-24.902-2.871-3.223-7.075-4.834-11.279-4.834v270.716c.049 0 .097.02.146.02z" fill="#fabe2c"/><g id="Medal_18_"><g><path d="m256 271c-24.814 0-45-20.186-45-45s20.186-45 45-45 45 20.186 45 45-20.186 45-45 45zm0-60c-8.262 0-15 6.724-15 15s6.738 15 15 15 15-6.724 15-15-6.738-15-15-15z" fill="#fabe2c"/></g></g><path d="m271 226c0 8.276-6.738 15-15 15v30c24.814 0 45-20.186 45-45s-20.186-45-45-45v30c8.262 0 15 6.724 15 15z" fill="#ff9100"/><g><path d="m256.117 447.649c-2.432 0-4.834-.586-7.061-1.758-32.724-17.416-53.056-51.152-53.056-88.037v-12.147c0-7.837 6.035-14.341 13.828-14.956 12.832-.996 25.957-5.083 39.053-12.129 4.453-2.402 9.785-2.402 14.238 0 13.096 7.046 26.221 11.133 39.053 12.129 7.793.615 13.828 7.119 13.828 14.956v12.221c0 36.797-20.244 70.503-52.793 87.949-2.227 1.186-4.658 1.772-7.09 1.772z" fill="#fabe2c"/></g><path d="m256.117 447.649c2.432 0 4.863-.586 7.09-1.772 32.549-17.446 52.793-51.152 52.793-87.949v-12.221c0-7.837-6.035-14.341-13.828-14.956-12.832-.996-25.957-5.083-39.053-12.129-2.227-1.201-4.673-1.802-7.119-1.802v130.8c.04 0 .077.029.117.029z" fill="#ff9100"/></g></svg>