<svg height="512pt" viewBox="0 0 512 512" width="512pt" xmlns="http://www.w3.org/2000/svg"><path d="m362.308594 192.214844h-51.90625l20.015625 94.277344h31.890625zm0 0" fill="#87a0af"/><path d="m481.976562 512h30.023438v-191.929688l-30.023438-20.015624zm0 0" fill="#9d7123"/><path d="m298.523438 192.214844h31.894531v94.277344h-31.894531zm0 0" fill="#b4d2d7"/><path d="m453.53125 158.453125-143.128906-20.015625 20.015625 73.792969h123.113281zm0 0" fill="#b4d2d7"/><path d="m207.304688 158.453125v53.777344h123.113281v-73.792969zm0 0" fill="#e1ebf0"/><path d="m512 256h-181.582031l-20.015625 30.488281 20.015625 33.582031h181.582031zm0 0" fill="#754727"/><path d="m122.460938 256h207.957031v64.070312h-207.957031zm0 0" fill="#9d7123"/><path d="m453.53125 158.453125v-106.542969h-123.113281l-20.015625 53.269532 20.015625 53.273437zm0 0" fill="#3f4a4a"/><path d="m207.304688 51.910156h123.113281v106.542969h-123.113281zm0 0" fill="#607882"/><path d="m0 512h148.832031v-128l-74.414062-20.015625-74.417969 20.015625zm0 0" fill="#c78f2c"/><path d="m0 256v128h148.832031v-128l-74.414062-20.015625zm0 0" fill="#e1bb78"/><path d="m148.832031 128-74.414062-20.015625-74.417969 20.015625v128h148.832031zm0 0" fill="#c78f2c"/><g fill="#754727"><path d="m47.839844 176.929688h53.152344v30h-53.152344zm0 0"/><path d="m47.839844 305.070312h53.152344v30h-53.152344zm0 0"/><path d="m47.839844 433.214844h53.152344v30h-53.152344zm0 0"/></g><path d="m0 0h148.832031v128h-148.832031zm0 0" fill="#e1bb78"/><path d="m47.839844 48.785156h53.152344v30h-53.152344zm0 0" fill="#754727"/></svg>