<svg height="512" viewBox="0 0 46 58" width="512" xmlns="http://www.w3.org/2000/svg"><g id="Page-1" fill="none" fill-rule="evenodd"><g id="041---Jar" fill-rule="nonzero"><path id="Shape" d="m46 27.12v24.88c0 3.3137085-2.6862915 6-6 6h-34c-3.3137085 0-6-2.6862915-6-6v-24.88c-.00006449-2.5836383 1.2476288-5.0082602 3.35-6.51l.15-.11c2.19714127-1.5677567 3.50095082-4.1008724 3.5-6.8v-3.7h32v3.7c-.0009508 2.6991276 1.3028587 5.2322433 3.5 6.8l.15.11c.6376883.4531575 1.2039611.9992062 1.68 1.62 1.0822527 1.4003965 1.6695702 3.1201466 1.67 4.89z" fill="#2fa8cc"/><path id="Shape" d="m46 27.12v19.88c0 3.3137085-2.6862915 6-6 6h-34c-3.3137085 0-6-2.6862915-6-6v-19.88c-.00006449-2.5836383 1.2476288-5.0082602 3.35-6.51l.15-.11c2.19714127-1.5677567 3.50095082-4.1008724 3.5-6.8v-3.7h32v3.7c-.0009508 2.6991276 1.3028587 5.2322433 3.5 6.8l.15.11c.6376883.4531575 1.2039611.9992062 1.68 1.62 1.0822527 1.4003965 1.6695702 3.1201466 1.67 4.89z" fill="#67b9cc"/><rect id="Rectangle-path" fill="#a56a43" height="4" rx="1" width="38" x="4"/><path id="Shape" d="m5 4h36v4c0 1.1045695-.8954305 2-2 2h-32c-1.1045695 0-2-.8954305-2-2z" fill="#2fa8cc"/><path id="Shape" d="m0 27h35c.5522847 0 1 .4477153 1 1v22c0 .5522847-.4477153 1-1 1h-35z" fill="#f9eab0"/><g fill="#9fc9d3"><path id="Shape" d="m11 22h-2c-.55228475 0-1-.4477153-1-1s.44771525-1 1-1h2c.5522847 0 1 .4477153 1 1s-.4477153 1-1 1z"/><path id="Shape" d="m37 22h-22c-.5522847 0-1-.4477153-1-1s.4477153-1 1-1h22c.5522847 0 1 .4477153 1 1s-.4477153 1-1 1z"/></g></g></g></svg>