<svg id="Layer_1" enable-background="new 0 0 128 128" height="512" viewBox="0 0 128 128" width="512" xmlns="http://www.w3.org/2000/svg"><path d="m48.1 11.6-6.3-3.4c-1-.5-2.2-.2-2.7.8-.2.3-.2.7-.2 1 .3 4.6-.2 9.6-1.4 14.1l3.8 4.2 2.7-1.6c2.3-3.7 5.1-9.2 5.1-13.4.1-.7-.3-1.4-1-1.7z" fill="#7db267"/><path d="m53.6 22.8-9.1 3.4-2.4.8-7.7-5.5-8.5 8.2-9.3-2.7c-1.8 8.8 4.3 12.8 7.5 14.3 11.5 4.1 24.1 3.3 35 .3 4.3-3.7 6.9-9 7.2-14.6l-9.1 1.2z" fill="#b4e6a0"/><path d="m108.5 12.7c-.7-.9-2-1-2.8-.3-.3.2-.5.5-.6.8-1.5 4.4-3.9 8.8-6.7 12.5l-2.8 10.7 8.3-6c3.5-2.5 7.9-6.4 9.5-10.3.3-.7.1-1.4-.3-2z" fill="#7db267"/><path d="m113.8 30.6-9.7-.3-2.6-.1-3-4.7-2.1-3.3-10.9 4.4-7.6-6c-5 7.5-.8 13.5 1.5 16.1 1.9 5.1 27.5 15.2 32.3 13.5 5.4-1.8 9.8-5.7 12.2-10.8l-8.9-2.3z" fill="#96cd82"/><path d="m101.2 42.1c-13.2-7.1-29.5-7.7-40.9 0-12.5 9.6-13.1 60.5-1.2 74.8 1.6 1.1 3.2 1.9 5 2.7 9.7 4 20.4 2.1 25.8-4.7l26.4-26.9c11.9-14.8 3.1-36-15.1-45.9z" fill="#ce4159"/><path d="m60 42c-10.7-5.1-25.1-5.7-37.5 0-14.2 6.7-21.3 20.1-17.5 33l14.2 34.9c2.4 8.2 11.6 14.1 22.1 14.1 9.6 0 19.3-5.1 22.1-14l14.2-35c3.4-11.5-1.5-24.9-17.6-33z" fill="#e6646e"/><g fill="#63516b"><g><path d="m18 59.3c-1 0-1.8.8-1.8 1.8v2.3c0 1 .8 1.7 1.8 1.7s1.8-.8 1.8-1.7v-2.4c-.1-.9-.8-1.7-1.8-1.7z"/><path d="m34.6 59.3c-1 0-1.8.8-1.8 1.8v2.3c0 1 .8 1.7 1.8 1.7s1.8-.8 1.8-1.7v-2.4c-.1-.9-.9-1.7-1.8-1.7z"/><path d="m49.6 59.3c-1 0-1.8.8-1.8 1.8v2.3c0 1 .8 1.7 1.8 1.7s1.8-.8 1.8-1.7v-2.4c-.1-.9-.8-1.7-1.8-1.7z"/><path d="m64.6 59.3c-1 0-1.8.8-1.8 1.8v2.3c0 1 .8 1.8 1.8 1.8s1.8-.8 1.8-1.8v-2.4c0-.9-.8-1.7-1.8-1.7z"/></g><g><path d="m25.5 77.3c-1 0-1.8.8-1.8 1.8v2.3c0 1 .8 1.8 1.8 1.8s1.8-.8 1.8-1.8v-2.3c0-1-.8-1.8-1.8-1.8z"/><path d="m42.1 77.3c-1 0-1.7.8-1.8 1.8v2.3c0 1 .8 1.8 1.8 1.8s1.8-.8 1.8-1.8v-2.3c-.1-1-.9-1.8-1.8-1.8z"/><path d="m57.1 77.3c-1 0-1.7.8-1.8 1.8v2.3c0 1 .8 1.8 1.8 1.8s1.8-.8 1.8-1.8v-2.3c0-1-.8-1.8-1.8-1.8z"/></g><g><path d="m32.7 93.3c-1 0-1.8.8-1.8 1.8v2.3c0 1 .8 1.8 1.8 1.8s1.8-.8 1.8-1.8v-2.3c0-1-.8-1.8-1.8-1.8z"/><path d="m42.1 106.9c-1 0-1.7.8-1.8 1.8v2.3c0 1 .8 1.8 1.8 1.8s1.8-.8 1.8-1.8v-2.3c-.1-1-.9-1.8-1.8-1.8z"/><path d="m50.6 93.3c-1 0-1.8.8-1.8 1.8v2.3c0 1 .8 1.8 1.8 1.8s1.8-.8 1.8-1.8v-2.3c-.1-1-.8-1.8-1.8-1.8z"/></g><g><path d="m82.4 57.2c-.9-.4-1.9.1-2.3 1l-.9 2.2c-.3.9.1 1.9 1 2.3.9.3 1.9-.1 2.2-.9l.9-2.2c.4-1 0-2.1-.9-2.4z"/><path d="m96.3 62.9c-.9-.4-1.9.1-2.3 1l-.9 2.1c-.3.9.1 1.9 1 2.3.9.3 1.8-.1 2.2-.9l.9-2.2c.4-.9 0-2-.9-2.3z"/><path d="m110.2 68.6c-.9-.4-1.9.1-2.3 1l-.9 2.2c-.3.9.1 1.9 1 2.2s1.8-.1 2.2-.9l.9-2.2c.4-.9 0-2-.9-2.3z"/></g><g><path d="m82.5 76.7c-.9-.4-1.9.1-2.3 1l-.9 2.2c-.3.9.2 1.9 1.1 2.2.8.3 1.8-.1 2.2-.9l.9-2.2c.3-.9-.1-1.9-1-2.3z"/><path d="m96.4 82.4c-.9-.4-1.9.1-2.3 1l-.9 2.2c-.3.9.1 1.9 1 2.3.9.3 1.9-.1 2.2-.9l.9-2.2c.5-1 0-2-.9-2.4z"/></g><g><path d="m71.3 104.1c-.9-.4-1.9.1-2.3 1l-.9 2.2c-.4.9.1 1.9 1 2.3s1.9-.1 2.3-1l.9-2.2c.4-.9-.1-2-1-2.3z"/><path d="m84.4 94.7c-.9-.4-1.9.1-2.3 1l-.9 2.2c-.3.9.1 1.9 1 2.3.9.3 1.9-.1 2.2-.9l.9-2.2c.4-1-.1-2-.9-2.4z"/></g></g></svg>