<svg height="512pt" viewBox="0 0 512 512" width="512pt" xmlns="http://www.w3.org/2000/svg"><path d="m277.332031 0h-213.332031c-35.285156 0-64 28.714844-64 64v384c0 35.285156 28.714844 64 64 64h213.332031c35.285157 0 64-28.714844 64-64v-384c0-35.285156-28.714843-64-64-64zm0 0" fill="#607d8b"/><path d="m64 42.667969h213.332031c11.757813 0 21.335938 9.554687 21.335938 21.332031v341.332031h-256v-341.332031c0-11.777344 9.578125-21.332031 21.332031-21.332031zm0 0" fill="#fafafa"/><path d="m512 234.667969c0 76.582031-62.082031 138.664062-138.667969 138.664062-76.582031 0-138.664062-62.082031-138.664062-138.664062 0-76.585938 62.082031-138.667969 138.664062-138.667969 76.585938 0 138.667969 62.082031 138.667969 138.667969zm0 0" fill="#4caf50"/><path d="m420.414062 281.75c-4.15625 4.160156-9.621093 6.25-15.082031 6.25-5.460937 0-10.921875-2.089844-15.082031-6.25l-32-32c-4.011719-3.988281-6.25-9.410156-6.25-15.082031v-53.335938c0-11.796875 9.558594-21.332031 21.332031-21.332031 11.777344 0 21.335938 9.535156 21.335938 21.332031v44.503907l25.746093 25.75c8.34375 8.339843 8.34375 21.820312 0 30.164062zm0 0" fill="#fff"/></svg>