<svg height="512pt" viewBox="-1 0 511 512" width="512pt" xmlns="http://www.w3.org/2000/svg"><g fill-rule="evenodd"><path d="m334.582031 424.199219-71.410156-31.453125-76.441406 31.453125-11.046875 42.367187 84.972656 22.714844 84.972656-22.714844zm0 0" fill="#c4cccf"/><path d="m27.386719 35.335938c-14.796875 0-26.886719 12.09375-26.886719 26.902343v314.140625h509v-314.140625c0-14.808593-12.117188-26.695312-26.886719-26.902343-14.527343-.238282-386.09375 0-455.226562 0zm0 0" fill="#546e7a"/><path d="m45.1875 340.925781h419.414062c3.15625 0 5.746094-2.589843 5.746094-5.75v-254.914062c0-3.15625-2.589844-5.75-5.746094-5.75-10.480468 0-408.1875 0-419.414062 0-3.15625 0-5.746094 2.59375-5.746094 5.75v254.914062c0 3.160157 2.589844 5.75 5.746094 5.75zm0 0" fill="#8ebfe8"/><path d="m509.5 376.378906h-509v20.917969c0 14.777344 12.089844 26.902344 26.886719 26.902344h455.226562c14.796875 0 26.886719-12.128907 26.886719-26.902344zm0 0" fill="#eceff1"/><path d="m345.628906 466.566406h-194.269531c-12.472656 0-22.714844 10.246094-22.714844 22.730469v12.453125c0 5.660156 4.613281 10.25 10.242188 10.25h243.511719c5.628906 0 10.242187-4.589844 10.242187-10.25v-12.453125c0-12.484375-10.210937-22.730469-22.6875-22.730469zm0 0" fill="#eceff1"/><path d="m470.347656 80.261719v254.914062c0 3.160157-2.589844 5.75-5.746094 5.75h-31.289062v35.453125h76.1875v-314.140625c0-14.808593-12.117188-26.605469-26.886719-26.902343-3.035156-.0625-21.316406-.121094-49.300781-.121094v39.296875h31.289062c3.15625 0 5.746094 2.59375 5.746094 5.75zm0 0" fill="#35505c"/><path d="m509.5 376.378906h-76.1875v47.820313h49.300781c14.796875 0 26.886719-12.128907 26.886719-26.902344zm0 0" fill="#c4cccf"/><path d="m330.386719 466.566406c12.472656 0 22.714843 10.246094 22.714843 22.730469v12.453125c0 5.660156-4.613281 10.25-10.242187 10.25h39.539063c5.628906 0 10.242187-4.589844 10.242187-10.25v-12.453125c0-12.484375-10.210937-22.730469-22.6875-22.730469zm0 0" fill="#c4cccf"/><path d="m295.015625 424.199219h-108.285156l-6.015625 23.058593h97.6875c12.085937 0 23.667968-.503906 25.839844 7.746094l1.816406 11.5625h39.570312l-11.046875-42.367187zm0 0" fill="#90a4ae"/><path d="m433.3125 340.925781h31.289062c3.15625 0 5.746094-2.589843 5.746094-5.75v-254.914062c0-3.15625-2.589844-5.75-5.746094-5.75h-31.289062zm0 0" fill="#519ad6"/><path d="m140.910156 116.550781c17.148438 21.511719 50.464844 56.636719 93.367188 32.59375 19.859375-11.140625 46.535156-33.367187 65.234375-26.84375l-53.621094-75.496093-27.71875-16.386719-27.71875 16.386719zm0 0" fill="#eceff1"/><path d="m190.453125 46.804688h58.917969c12.863281 0 23.402344-10.515626 23.402344-23.386719 0-12.902344-10.539063-23.417969-23.402344-23.417969h-62.402344c-12.863281 0-23.402344 10.515625-23.402344 23.417969 0 12.871093 10.539063 23.386719 23.402344 23.386719zm0 0" fill="#eceff1"/><path d="m112.238281 156.890625c-34.925781 40.132813 3.097657 94.566406 45.136719 94.566406h121.59375c42.039062 0 80.058594-54.433593 45.105469-94.566406l-24.5625-34.589844c-18.699219-6.523437-42.785157-10.546875-62.613281.566407-42.933594 24.074218-78.839844 15.195312-95.988282-6.316407zm0 0" fill="#f55a8e"/><path d="m241.570312 23.417969c0 7.863281-3.957031 14.898437-9.972656 19.128906-3.8125 2.679687-8.457031 4.257813-13.425781 4.257813h31.199219c12.863281 0 23.402344-10.515626 23.402344-23.386719 0-12.902344-10.539063-23.417969-23.402344-23.417969h-31.199219c12.859375 0 23.398437 10.515625 23.398437 23.417969zm0 0" fill="#c4cccf"/><path d="m233.5625 85.269531 22.242188 31.3125c15.035156-2.175781 30.695312 1.160157 43.707031 5.71875l-53.621094-75.496093h-55.441406l-11.132813 15.703124h24.980469c16.792969 0 19.292969 8.699219 29.265625 22.761719zm0 0" fill="#c4cccf"/><path d="m264.945312 130.40625 63.625 91.882812c12.085938-19.039062 13.960938-44.214843-4.496093-65.398437l-24.5625-34.589844c-13.011719-4.558593-28.671875-7.894531-43.707031-5.71875-.121094.03125-.238282.03125-.390626.058594zm0 0" fill="#ba4583"/><path d="m290.042969 185.851562-12.890625 12.902344c-2.652344 2.679688-2.652344 7.027344 0 9.710938l5.269531 5.246094c-1.875 3.515624-3.394531 7.238281-4.496094 11.140624h-7.5625c-3.75 0-6.847656 3.070313-6.847656 6.851563v18.265625c0 3.753906 3.09375 6.851562 6.847656 6.851562h7.859375c1.132813 3.78125 2.648438 7.386719 4.527344 10.785157l-5.597656 5.597656c-2.648438 2.652344-2.648438 7.03125 0 9.714844l12.890625 12.902343c2.679687 2.652344 7.027343 2.652344 9.707031 0l5.597656-5.601562c3.394532 1.847656 6.996094 3.394531 10.777344 4.527344v7.835937c0 3.785157 3.097656 6.882813 6.847656 6.882813h18.25c3.753906 0 6.847656-3.097656 6.847656-6.882813v-7.535156c3.902344-1.105469 7.625-2.625 11.136719-4.5l5.238281 5.273437c2.683594 2.652344 7.027344 2.652344 9.707032 0l12.894531-12.902343c2.648437-2.679688 2.648437-7.0625 0-9.714844l-4.972656-4.972656c2.023437-3.578125 3.660156-7.390625 4.882812-11.414063h6.878907c3.75 0 6.847656-3.097656 6.847656-6.851562v-18.261719c0-3.785156-3.097656-6.851563-6.847656-6.851563h-6.613282c-1.160156-4.140624-2.796875-8.074218-4.792968-11.769531l4.617187-4.617187c2.648437-2.679688 2.648437-7.03125 0-9.710938l-12.894531-12.902344c-2.679688-2.679687-7.023438-2.679687-9.703125 0l-4.617188 4.617188c-3.691406-2.027344-7.621093-3.632812-11.757812-4.796875v-6.613281c0-3.753906-3.097657-6.855469-6.847657-6.855469h-18.253906c-3.75 0-6.847656 3.101563-6.847656 6.855469v6.882812c-4.019531 1.21875-7.828125 2.859375-11.402344 4.882813l-4.972656-4.972657c-2.679688-2.679687-7.027344-2.679687-9.707031 0zm0 0" fill="#c4cccf"/><path d="m364.445312 185.851562-4.613281 4.617188c-1.074219-.597656-2.175781-1.132812-3.277343-1.667969 5.035156 13.617188 7.890624 29.257813 7.890624 45.914063 0 22.550781-5.269531 43.289062-14.082031 59.613281 3.066407-1.011719 6.015625-2.292969 8.84375-3.78125l5.238281 5.273437c2.679688 2.652344 7.027344 2.652344 9.707032 0l12.890625-12.902343c2.652343-2.679688 2.652343-7.0625 0-9.714844l-4.972657-4.972656c2.027344-3.578125 3.664063-7.390625 4.882813-11.414063h6.878906c3.753907 0 6.847657-3.097656 6.847657-6.851562v-18.261719c0-3.785156-3.09375-6.851563-6.847657-6.851563h-6.609375c-1.160156-4.140624-2.796875-8.074218-4.792968-11.769531l4.617187-4.617187c2.648437-2.679688 2.648437-7.03125 0-9.710938l-12.894531-12.902344c-2.679688-2.679687-7.027344-2.679687-9.707032 0zm0 0" fill="#90a4ae"/><path d="m332.082031 262.0625c11.699219 0 21.257813-9.535156 21.257813-21.242188 0-11.679687-9.558594-21.242187-21.257813-21.242187-11.671875 0-21.226562 9.5625-21.226562 21.242187 0 11.707032 9.554687 21.242188 21.226562 21.242188zm0 0" fill="#546e7a"/></g></svg>