<svg id="icons" enable-background="new 0 0 64 64" height="512" viewBox="0 0 64 64" width="512" xmlns="http://www.w3.org/2000/svg"><path d="m60.494 33.499h-26c-1.1 0-2 .9-2 2v17h.051 29.949v-17c0-1.1-.898-2-2-2z" fill="#e6e9ed"/><path d="m51.994 56.499 1 5h-11l1-5z" fill="#545c66"/><path d="m32.545 52.499h29.949v2c0 1.1-.898 2-2 2h-9-8-9c-1.1 0-2-.9-2-2v-2z" fill="#656d78"/><path d="m36.504 19.499c0 4.42-3.59 8-8 8h-21.5c-3.59 0-6.5-2.91-6.5-6.5v-4.01c0 3.59 2.91 6.5 6.5 6.5h21.5c4.41 0 8-3.58 8-7.99z" fill="#ccd1d9"/><path d="m28.504 7.499c4.41 0 8 3.58 8 8 0 4.41-3.59 7.99-8 7.99h-21.5c-3.59 0-6.5-2.91-6.5-6.5 0-3.58 2.91-6.49 6.5-6.49h.682c.939-5.12 5.42-9 10.818-9 4.271 0 7.98 2.44 9.801 6z" fill="#e6e9ed"/><path d="m60.496 57.501h-25.996c-1.654 0-3-1.346-3-3v-18.997c0-1.654 1.346-3 3-3h25.996c1.654 0 3 1.346 3 3v18.997c0 1.654-1.346 3-3 3zm-25.996-22.997c-.553 0-1 .448-1 1v18.997c0 .552.447 1 1 1h25.996c.551 0 1-.448 1-1v-18.997c0-.552-.449-1-1-1z" fill="#656d78"/><path d="m54.496 62.501h-14c-.553 0-1-.447-1-1s.447-1 1-1h14c.553 0 1 .447 1 1s-.447 1-1 1z" fill="#656d78"/><g fill="#ccd1d9"><path d="m50.504 47.498h-5.998c-.553 0-1-.447-1-1s.447-1 1-1h5.998c.553 0 1 .447 1 1s-.447 1-1 1z"/><path d="m50.506 30.498c-.553 0-1-.447-1-1v-10.998c0-.553.447-1 1-1s1 .447 1 1v10.998c0 .553-.447 1-1 1z"/><path d="m50.5 19.5h-9.996c-.553 0-1-.447-1-1s.447-1 1-1h9.996c.553 0 1 .447 1 1s-.447 1-1 1z"/><path d="m42.504 21.5c-.256 0-.512-.098-.707-.293l-2-2c-.391-.391-.391-1.023 0-1.414s1.023-.391 1.414 0l2 2c.391.391.391 1.023 0 1.414-.195.195-.451.293-.707.293z"/><path d="m40.504 19.5c-.256 0-.512-.098-.707-.293-.391-.391-.391-1.023 0-1.414l2-2c.391-.391 1.023-.391 1.414 0s.391 1.023 0 1.414l-2 2c-.195.195-.451.293-.707.293z"/><path d="m18.506 43.497c-.553 0-1-.447-1-1v-10.998c0-.553.447-1 1-1s1 .447 1 1v10.998c0 .553-.447 1-1 1z"/><path d="m28.508 43.497h-9.996c-.553 0-1-.447-1-1s.447-1 1-1h9.996c.553 0 1 .447 1 1s-.447 1-1 1z"/><path d="m28.508 43.497c-.256 0-.512-.098-.707-.293l-2-2c-.391-.391-.391-1.023 0-1.414s1.023-.391 1.414 0l2 2c.391.391.391 1.023 0 1.414-.195.195-.451.293-.707.293z"/><path d="m26.508 45.497c-.256 0-.512-.098-.707-.293-.391-.391-.391-1.023 0-1.414l2-2c.391-.391 1.023-.391 1.414 0s.391 1.023 0 1.414l-2 2c-.195.195-.451.293-.707.293z"/></g><path d="m47.527 56.001c-.553 0-1.006-.447-1.006-1s.443-1 .994-1h.012c.551 0 1 .447 1 1s-.449 1-1 1z" fill="#545c66"/><path d="m47.496 40.501c-.551 0-1.451 0-2 0h-6.996c-.551 0-1 .45-1 1v.999c0 .55.449 1 1 1h9.996 5.002 2.994c.551 0 1-.45 1-1v-.999c0-.55-.449-1-1-1z" fill="#ccd1d9"/><path d="m45.496 40.501h-6.996c-.551 0-1 .45-1 1v.999c0 .55.449 1 1 1h9.996 1l-3-2.999c-.363 0-.726 0-1 0z" fill="#5d9cec"/></svg>