<svg id="Capa_1" enable-background="new 0 0 497.052 497.052" height="512" viewBox="0 0 497.052 497.052" width="512" xmlns="http://www.w3.org/2000/svg"><g><path d="m293.596 355.4-.02 20-.13 101.95c-.01 4.71-1.58 8.95-4.18 12.3-6.15 7.96-17.47 9.64-26.01 4.36l-46.91-28.96c-8.58-7.07-13.73-10.42-13.73-19.1v-90.55l43.97-10z" fill="#50758d"/><g><path d="m349.783 101.5c0 11.29-1.84 22.16-5.25 32.3-2.36 7.05-5.48 13.74-9.25 20-17.76 29.48-50.07 49.2-87 49.2-19.58 0-37.86-5.54-53.36-15.14-4.95-3.07-9.61-6.54-13.94-10.39-3.6-3.18-6.97-6.61-10.06-10.28-3.57-4.18-6.79-8.66-9.64-13.39-3.03-5.02-5.63-10.33-7.76-15.87-.53-1.36-1.02-2.74-1.49-4.13-3.41-10.15-5.25-21.01-5.25-32.3 0-56.06 45.44-101.5 101.5-101.5 12.84 0 25.12 2.38 36.42 6.74 10.76 4.13 20.64 10.05 29.28 17.4 3.66 3.1 7.1 6.46 10.26 10.06 3.86 4.33 7.33 8.99 10.4 13.94 9.6 15.5 15.14 33.78 15.14 53.36z" fill="#fad207"/><path clip-rule="evenodd" d="m344.533 133.8c-2.36 7.05-5.48 13.74-9.25 20h-174c-3.03-5.02-5.63-10.33-7.76-15.87-.53-1.36-1.02-2.74-1.49-4.13z" fill="#f8c201" fill-rule="evenodd"/><path clip-rule="evenodd" d="m246.282 104.64v-37.71c10.6 2.49 18.5 9.76 18.5 18.07 0 4.14 3.36 7.5 7.5 7.5 2.245 0 4.096-1.117 5.629-2.557l9.619-9.588h-8.136c-2.411-14.399-15.862-25.947-33.112-28.715v-26.81h-2.93l-9.79 9.79c-.06.05-.11.1-.16.16l-.11.11.01.01c-1.25 1.34-2.02 3.13-2.02 5.1v11.49c-5.855.82-11.29 2.654-16.041 5.262v-2.297l-9.753 9.738v.003c-5.454 5.753-8.707 12.973-8.707 20.804 0 16.79 14.94 30.77 34.5 33.51v37.78c-11.1-2.26-19.5-9.72-19.5-18.29 0-2.22-.972-4.209-2.506-5.583l-.042-9.965-10.043 10.042.003.008c-1.48 1.37-2.412 3.323-2.412 5.497 0 16.79 14.94 30.77 34.5 33.51v11.491c0 4.14 3.36 7.5 7.5 7.5 1.857 0 3.553-.679 4.863-1.798l9.98-9.976h-7.344v-7.366c19.07-3.06 33.5-16.85 33.5-33.36s-14.428-30.3-33.498-33.36zm-15-1.348c-11.096-2.265-19.5-9.723-19.5-18.292s8.404-16.027 19.5-18.292zm15 52.782v-36.149c10.597 2.498 18.5 9.765 18.5 18.074s-7.903 15.577-18.5 18.075z" fill="#f8c201" fill-rule="evenodd"/><path d="m255.782 94.64v-37.714c10.597 2.498 18.5 9.765 18.5 18.074 0 4.143 3.357 7.5 7.5 7.5s7.5-3.357 7.5-7.5c0-16.506-14.433-30.296-33.5-33.36v-11.64c0-4.143-3.357-7.5-7.5-7.5s-7.5 3.357-7.5 7.5v11.493c-19.56 2.735-34.5 16.714-34.5 33.507s14.94 30.772 34.5 33.507v37.785c-11.096-2.265-19.5-9.723-19.5-18.292 0-4.143-3.357-7.5-7.5-7.5s-7.5 3.357-7.5 7.5c0 16.793 14.94 30.772 34.5 33.507v11.493c0 4.143 3.357 7.5 7.5 7.5s7.5-3.357 7.5-7.5v-11.64c19.067-3.064 33.5-16.854 33.5-33.36s-14.433-30.296-33.5-33.36zm-34.5-19.64c0-8.569 8.404-16.027 19.5-18.292v36.584c-11.097-2.265-19.5-9.723-19.5-18.292zm34.5 71.074v-36.149c10.597 2.498 18.5 9.765 18.5 18.074s-7.903 15.577-18.5 18.075z" fill="#f5f5f5"/></g><path d="m435.077 197.118h-373.102c-8.284 0-15-6.716-15-15v-13.321c0-8.284 6.716-15 15-15h278.779 94.323c8.284 0 15 6.716 15 15v13.321c0 8.284-6.715 15-15 15z" fill="#50758d"/><path d="m81.976 197.12h-20c-8.29 0-15-6.72-15-15v-13.32c0-8.29 6.71-15 15-15h20c-8.29 0-15 6.71-15 15v13.32c0 8.28 6.71 15 15 15z" fill="#2b597f"/><path d="m435.076 197.12-17.88 20-123.6 138.28h-90.98l-140.64-158.28z" fill="#50758d"/><g fill="#2b597f"><path d="m435.076 197.12h-318.1-4.51-50.49l140.64 158.28h25l-96.66-138.28h286.24z"/><path d="m293.576 375.4.02-20h-65.98l-13.367-3.942-11.633 3.942v20 70.55c0 8.68 5.15 12.03 13.73 19.1l46.91 28.96c7.28 4.5 16.57 3.94 22.97-1.25l-44.88-27.71c-8.58-7.07-13.73-10.42-13.73-19.1v-70.55z"/></g></g></svg>