<svg id="Layer_1" enable-background="new 0 0 512 512" height="512" viewBox="0 0 512 512" width="512" xmlns="http://www.w3.org/2000/svg"><g><g><path d="m256 58.039c-8.272 0-14.977-6.706-14.977-14.977v-28.085c0-8.271 6.705-14.977 14.977-14.977s14.977 6.706 14.977 14.977v28.084c0 8.272-6.705 14.978-14.977 14.978z" fill="#00da80"/></g><g><path d="m256 58.039c-8.272 0-14.977-6.706-14.977-14.977v-28.085c0-8.271 6.705-14.977 14.977-14.977s14.977 6.706 14.977 14.977v28.084c0 8.272-6.705 14.978-14.977 14.978z" fill="#5c381f"/></g><g><path d="m209.482 70.51c-5.177 0-10.211-2.686-12.985-7.491l-14.042-24.322c-4.136-7.163-1.682-16.323 5.482-20.459 7.163-4.137 16.323-1.682 20.459 5.482l14.042 24.322c4.136 7.163 1.682 16.323-5.482 20.459-2.358 1.361-4.933 2.009-7.474 2.009z" fill="#5c381f"/></g><path d="m256 0v58.039c8.272 0 14.977-6.706 14.977-14.977v-28.085c0-8.271-6.705-14.977-14.977-14.977z" fill="#4a2e1a"/><g><path d="m175.39 104.573c-2.541 0-5.116-.647-7.475-2.009l-24.322-14.042c-7.163-4.136-9.618-13.296-5.482-20.459 4.135-7.164 13.295-9.619 20.459-5.482l24.322 14.042c7.163 4.136 9.618 13.296 5.482 20.459-2.773 4.805-7.807 7.491-12.984 7.491z" fill="#5c381f"/></g><g><path d="m162.937 151.103h-28.085c-8.272 0-14.977-6.706-14.977-14.977s6.706-14.977 14.977-14.977h28.085c8.272 0 14.977 6.706 14.977 14.977s-6.706 14.977-14.977 14.977z" fill="#5c381f"/></g><g><path d="m377.148 151.103h-28.084c-8.272 0-14.977-6.706-14.977-14.977s6.706-14.977 14.977-14.977h28.084c8.272 0 14.977 6.706 14.977 14.977s-6.705 14.977-14.977 14.977z" fill="#4a2e1a"/></g><g><path d="m336.61 104.573c-5.177 0-10.211-2.686-12.985-7.491-4.136-7.163-1.682-16.323 5.482-20.459l24.322-14.042c7.163-4.136 16.323-1.682 20.459 5.482 4.136 7.163 1.682 16.323-5.482 20.459l-24.322 14.042c-2.358 1.362-4.934 2.009-7.474 2.009z" fill="#4a2e1a"/></g><g><path d="m302.518 70.51c-2.541 0-5.116-.647-7.474-2.009-7.163-4.136-9.618-13.296-5.482-20.459l14.042-24.322c4.135-7.163 13.295-9.619 20.459-5.482 7.163 4.136 9.618 13.296 5.482 20.459l-14.042 24.322c-2.774 4.804-7.809 7.491-12.985 7.491z" fill="#4a2e1a"/></g><g><path d="m165.986 211.112h-31.134c-8.272 0-14.977-6.706-14.977-14.977s6.706-14.977 14.977-14.977h31.134c8.272 0 14.977 6.706 14.977 14.977s-6.706 14.977-14.977 14.977z" fill="#5c381f"/></g><g><path d="m165.986 271.122h-31.134c-8.272 0-14.977-6.706-14.977-14.977s6.706-14.977 14.977-14.977h31.134c8.272 0 14.977 6.706 14.977 14.977s-6.706 14.977-14.977 14.977z" fill="#5c381f"/></g><g><path d="m377.148 211.112h-31.134c-8.272 0-14.977-6.706-14.977-14.977s6.706-14.977 14.977-14.977h31.134c8.272 0 14.977 6.706 14.977 14.977s-6.705 14.977-14.977 14.977z" fill="#4a2e1a"/></g><g><path d="m377.148 271.122h-31.134c-8.272 0-14.977-6.706-14.977-14.977s6.706-14.977 14.977-14.977h31.134c8.272 0 14.977 6.706 14.977 14.977s-6.705 14.977-14.977 14.977z" fill="#4a2e1a"/></g><path d="m358.676 408.552c-8.191-1.115-197.156-1.115-205.352 0-8.197 1.113-13.938 8.66-12.825 16.857l10.001 73.63c1.008 7.424 7.348 12.961 14.841 12.961h181.317c7.493 0 13.833-5.537 14.841-12.961l10.001-73.63c1.114-8.196-4.628-15.744-12.824-16.857z" fill="#9d4f14"/><path d="m358.676 407.777c-4.096-.558-53.386-.836-102.676-.836v104.284h90.658c7.493 0 13.833-5.537 14.841-12.961l10.001-73.63c1.114-8.197-4.628-15.744-12.824-16.857z" fill="#804012"/><path d="m360.991 133.078v212.598h-209.982v-212.598c0-41.806 24.563-77.981 60.009-94.856 9.316-4.443 19.381-7.538 29.955-9.056 4.913-.709 9.925-1.078 15.027-1.078s10.115.37 15.027 1.078c10.574 1.518 20.639 4.613 29.955 9.056 35.446 16.875 60.009 53.05 60.009 94.856z" fill="#00da80"/><path d="m360.991 133.078c0-41.806-24.563-77.981-60.009-94.856-9.316-4.443-19.381-7.538-29.955-9.056-4.913-.709-9.925-1.078-15.027-1.078v317.589h104.991z" fill="#00a78e"/><g><path d="m240.973 29.166v316.51c0 8.267-6.71 14.977-14.977 14.977s-14.977-6.71-14.977-14.977v-307.454c9.315-4.443 19.38-7.539 29.954-9.056z" fill="#bee75e"/></g><g><path d="m300.982 38.222v307.454c0 8.267-6.71 14.977-14.977 14.977s-14.977-6.71-14.977-14.977v-316.51c10.573 1.517 20.638 4.613 29.954 9.056z" fill="#00cb75"/></g><path d="m404.31 335.788c-2.844-3.237-6.944-5.093-11.252-5.093h-274.116c-4.309 0-8.409 1.856-11.252 5.093s-4.155 7.542-3.6 11.815l10.001 76.945c.97 7.462 7.327 13.047 14.852 13.047h254.113c7.525 0 13.882-5.584 14.852-13.047l10.001-76.945c.557-4.273-.755-8.578-3.599-11.815z" fill="#b95e1a"/><path d="m404.31 335.788c-2.844-3.237-6.944-5.093-11.252-5.093h-137.058v106.9h127.056c7.525 0 13.882-5.584 14.852-13.047l10.001-76.945c.557-4.273-.755-8.578-3.599-11.815z" fill="#9d4f14"/></g></svg>