<svg height="512" viewBox="0 0 58 58" width="512" xmlns="http://www.w3.org/2000/svg"><g id="Page-1" fill="none" fill-rule="evenodd"><g id="041---Cog-and-Spanner"><path id="Path" d="m22.852 3.85 2.037-3.084c.3156418-.478053.8501437-.76577502 1.423-.766h5.376c.5728563.00022498 1.1073582.287947 1.423.766l2.037 3.084 7.289 3.019 3.621-.741c.5615169-.11452729 1.1430213.06052508 1.548.466l3.8 3.8c.4054749.4049787.5805273.9864831.466 1.548l-.741 3.621 3.019 7.289 3.084 2.037c.478053.3156418.765775.8501437.766 1.423v5.376c-.000225.5728563-.287947 1.1073582-.766 1.423l-3.084 2.037-3.019 7.289.741 3.621c.1145273.5615169-.0605251 1.1430213-.466 1.548l-3.8 3.8c-.4049787.4054749-.9864831.5805273-1.548.466l-3.621-.741-7.289 3.019-2.037 3.084c-.3156418.478053-.8501437.765775-1.423.766h-5.376c-.5728563-.000225-1.1073582-.287947-1.423-.766l-2.037-3.084-7.289-3.019-3.621.741c-.5615169.1145273-1.1430213-.0605251-1.548-.466l-3.8-3.8c-.40547492-.4049787-.58052729-.9864831-.466-1.548l.741-3.621-3.019-7.289-3.084-2.037c-.478053-.3156418-.76577502-.8501437-.766-1.423v-5.376c.00022498-.5728563.287947-1.1073582.766-1.423l3.084-2.037 3.019-7.289-.741-3.621c-.11452729-.5615169.06052508-1.1430213.466-1.548l3.8-3.8c.4049787-.40547492.9864831-.58052729 1.548-.466l3.621.741z" fill="#bdc3c7"/><circle id="Oval" cx="29" cy="29" fill="#3b97d3" r="20"/><path id="Path" d="m42 27.74c.0016159 5.2486002-3.1545168 9.9827992-8 12v8.63c-3.2804119.8400116-6.7195881.8400116-10 0v-8.63c-4.3453108-1.8104806-7.3723963-5.8285823-7.9138671-10.5047319-.5414707-4.6761496 1.4872795-9.2796874 5.3038671-12.0352681.3030185-.2332849.7125486-.2733281 1.0550163-.1031578.3424678.1701703.5578981.5207528.5549837.9031578v11.12c-.0043423.3781033.2098857.7247631.55.89l5 2.5c.2812389.1500445.6187611.1500445.9 0l5-2.5c.3401143-.1652369.5543423-.5118967.55-.89v-11.12c-.0029144-.382405.2125159-.7329875.5549837-.9031578.3424677-.1701703.7519978-.1301271 1.0550163.1031578 3.3898051 2.4397924 5.3963205 6.3634792 5.39 10.54z" fill="#d1d4d1"/></g></g></svg>