<svg id="Capa_1" enable-background="new 0 0 497 497" height="512" viewBox="0 0 497 497" width="512" xmlns="http://www.w3.org/2000/svg"><g><path d="m383.05 497h-279.1c-13.807 0-25-11.193-25-25v-94.847l81.343-342.153c0-13.807 11.193-25 25-25h197.757c13.807 0 25 11.193 25 25v437c0 13.807-11.193 25-25 25z" fill="#245e7c"/><path d="m388.05 25v447c0 13.807-11.193 25-25 25h30c13.807 0 25-11.193 25-25v-94.847l-13.891-300.856c-3.347-44.795-16.109-65.104-16.109-51.297z" fill="#1a4c65"/><path d="m383.05 0h-279.1c-13.807 0-25 11.193-25 25v352.153h309.1l20-352.153c0-13.807-11.193-25-25-25z" fill="#f9f6f9"/><path d="m393.05 0h-30c13.807 0 25 11.193 25 25v352.153h30v-352.153c0-13.807-11.193-25-25-25z" fill="#dedbec"/><g><path d="m302.537 56.45h-108.074c-4.143 0-7.5-3.358-7.5-7.5s3.357-7.5 7.5-7.5h108.074c4.143 0 7.5 3.358 7.5 7.5s-3.357 7.5-7.5 7.5z" fill="#245e7c"/></g><path d="m273.219 407.153h-49.439c-16.191 0-29.317 13.126-29.317 29.317 0 16.191 13.126 29.317 29.317 29.317h49.439c16.191 0 29.317-13.126 29.317-29.317.001-16.192-13.125-29.317-29.317-29.317z" fill="#f9f6f9"/><path d="m291.767 220.822c0 4.087 4.637 6.448 7.942 4.043l72.053-52.424c2.745-1.997 2.745-6.09 0-8.087l-72.053-52.423c-3.305-2.405-7.942-.044-7.942 4.043v24.924c0 2.761-2.239 5-5 5h-78.969c-46.937 0-85.071 38.413-84.615 85.454.451 46.585 39.107 83.785 85.694 83.785h86.084c2.761 0 5-2.239 5-5v-35c0-2.761-2.239-5-5-5h-87.163c-22.164 0-40.135-18.294-39.608-40.575.512-21.629 18.716-38.664 40.351-38.664h78.226c2.761 0 5 2.239 5 5z" fill="#ade4a4"/></g></svg>