<?xml version="1.0" encoding="iso-8859-1"?>
<!-- Generator: Adobe Illustrator 19.0.0, SVG Export Plug-In . SVG Version: 6.00 Build 0)  -->
<svg xmlns="http://www.w3.org/2000/svg" xmlns:xlink="http://www.w3.org/1999/xlink" version="1.1" id="Layer_1" x="0px" y="0px" viewBox="0 0 512 512" style="enable-background:new 0 0 512 512;" xml:space="preserve">
<path style="fill:#B5763B;" d="M318.481,489.772c0,0-24.412-82.474-22.667-157.452h-79.626  c1.743,74.978-22.667,157.452-22.667,157.452H318.481z"/>
<path style="fill:#76CC5B;" d="M31.315,511.996c46.021-26.646,129.428-44.452,224.682-44.452  c95.257,0,178.667,17.807,224.687,44.455L31.315,511.996z"/>
<path style="opacity:0.2;enable-background:new    ;" d="M108.852,511.996c39.655-22.961,107.081-39.346,185.913-43.442  c-12.655-0.658-25.593-1.01-38.768-1.01c-95.255,0-178.661,17.806-224.682,44.452L108.852,511.996L108.852,511.996z"/>
<path style="opacity:0.2;enable-background:new    ;" d="M295.813,332.32h-79.626c0.508,21.878-1.211,44.39-3.9,65.308  c5.459,1.453,11.132,2.222,16.879,2.222c8.98,0,17.558-1.827,25.347-5.226c9.134,5.047,19.638,7.823,30.819,7.823  c5.028,0,9.988-0.576,14.793-1.681C297.202,378.971,295.278,355.296,295.813,332.32z"/>
<path style="fill:#76CC5B;" d="M425.798,207.801L425.798,207.801L425.798,207.801c33.083-7.57,30.872-55.409-2.769-59.895l0,0l0,0  c28.115-19.01,8.771-62.819-24.218-54.85l0,0l0,0c19.349-27.882-14.515-61.746-42.397-42.397l0,0l0,0  c7.97-32.989-35.84-52.333-54.85-24.218l0,0l0,0C297.079-7.2,249.24-9.411,241.67,23.672l0,0l0,0  c-16.335-29.749-61.743-14.529-56.85,19.054l0,0l0,0c-25.978-21.839-62.821,8.756-46.128,38.304  c-32.114-10.98-55.417,30.859-29.176,52.381l0,0l0,0c-33.911,1.362-40.527,48.793-8.283,59.383l0,0l0,0  c-31.129,13.52-20.164,60.139,13.727,58.365l0,0l0,0c-24.143,23.853,2.922,63.362,33.885,49.465l0,0l0,0  c-13.896,30.963,25.614,58.027,49.465,33.885l0,0l0,0c-1.772,33.891,44.846,44.856,58.365,13.727l0,0l0,0  c10.59,32.243,58.021,25.627,59.383-8.283l0,0l0,0c21.523,26.241,63.361,2.936,52.381-29.176l0,0l0,0  c29.548,16.694,60.143-20.15,38.304-46.128l0,0l0,0C440.328,269.542,455.547,224.134,425.798,207.801z"/>
<g>
</g>
<g>
</g>
<g>
</g>
<g>
</g>
<g>
</g>
<g>
</g>
<g>
</g>
<g>
</g>
<g>
</g>
<g>
</g>
<g>
</g>
<g>
</g>
<g>
</g>
<g>
</g>
<g>
</g>
</svg>
