<?xml version="1.0" encoding="iso-8859-1"?>
<!-- Generator: Adobe Illustrator 19.0.0, SVG Export Plug-In . SVG Version: 6.00 Build 0)  -->
<svg version="1.1" id="Capa_1" xmlns="http://www.w3.org/2000/svg" xmlns:xlink="http://www.w3.org/1999/xlink" x="0px" y="0px"
	 viewBox="0 0 468.293 468.293" style="enable-background:new 0 0 468.293 468.293;" xml:space="preserve">
<path style="fill:#E56353;" d="M143.247,468.293h-57.22c-6.897,0-12.488-5.591-12.488-12.488V12.488C73.538,5.591,79.129,0,86.026,0
	h57.22V468.293z"/>
<rect x="143.249" style="fill:#D15241;" width="288.968" height="468.293"/>
<rect x="143.249" style="fill:#CE412D;" width="17.314" height="468.293"/>
<circle style="fill:#3A556A;" cx="104.755" cy="61.428" r="17.077"/>
<path style="fill:#27A2DB;" d="M73.539,98.893c-20.659,0-37.463-16.805-37.463-37.463s16.805-37.463,37.463-37.463
	s37.463,16.805,37.463,37.463H98.515c0-13.774-11.204-24.976-24.976-24.976S48.564,47.655,48.564,61.43s11.204,24.976,24.976,24.976
	V98.893z"/>
<circle style="fill:#3A556A;" cx="104.755" cy="176.571" r="17.077"/>
<path style="fill:#27A2DB;" d="M73.539,214.038c-20.659,0-37.463-16.805-37.463-37.463s16.805-37.463,37.463-37.463
	s37.463,16.805,37.463,37.463H98.515c0-13.774-11.204-24.976-24.976-24.976S48.564,162.8,48.564,176.574
	s11.204,24.976,24.976,24.976V214.038z"/>
<circle style="fill:#3A556A;" cx="104.755" cy="291.715" r="17.077"/>
<path style="fill:#27A2DB;" d="M73.539,329.182c-20.659,0-37.463-16.805-37.463-37.463s16.805-37.463,37.463-37.463
	s37.463,16.805,37.463,37.463H98.515c0-13.774-11.204-24.976-24.976-24.976s-24.976,11.201-24.976,24.976
	c0,13.774,11.204,24.976,24.976,24.976V329.182z"/>
<circle style="fill:#3A556A;" cx="104.755" cy="406.853" r="17.077"/>
<path style="fill:#27A2DB;" d="M73.539,444.326c-20.659,0-37.463-16.805-37.463-37.463c0-20.659,16.805-37.463,37.463-37.463
	s37.463,16.805,37.463,37.463H98.515c0-13.774-11.204-24.976-24.976-24.976s-24.976,11.201-24.976,24.976
	c0,13.774,11.204,24.976,24.976,24.976V444.326z"/>
<path style="fill:#44C4A1;" d="M368.947,277.854H206.506c-10.345,0-18.732-8.386-18.732-18.732v-49.951
	c0-10.345,8.386-18.732,18.732-18.732h162.441c10.345,0,18.732,8.386,18.732,18.732v49.951
	C387.679,269.467,379.292,277.854,368.947,277.854z"/>
<g>
	<path style="fill:#E1E6E9;" d="M287.725,156.716c-11.268,0-17.162-29.601-17.162-58.838s5.894-58.838,17.162-58.838
		s17.165,29.601,17.165,58.838S298.994,156.716,287.725,156.716z M287.725,44.23c-4.178,0-11.973,18.427-11.973,53.648
		s7.794,53.648,11.973,53.648c4.178,0,11.975-18.427,11.975-53.648S291.904,44.23,287.725,44.23z"/>
	<path style="fill:#E1E6E9;" d="M323.621,141.583c-4.067,0-9.55-2.012-16.4-6.036c-9.649-5.666-20.897-14.722-31.671-25.496
		c-10.774-10.769-19.828-22.02-25.494-31.664c-6.393-10.891-7.716-18.325-3.933-22.111c3.783-3.776,11.218-2.463,22.108,3.933
		c9.649,5.666,20.897,14.722,31.669,25.496l0,0c10.774,10.769,19.828,22.015,25.496,31.664c6.393,10.891,7.716,18.325,3.933,22.111
		C327.926,140.884,326.021,141.583,323.621,141.583z M251.843,59.393c-1.077,0-1.738,0.243-2.05,0.552
		c-0.991,0.993-1.275,5.57,4.738,15.812c5.45,9.279,14.218,20.155,24.688,30.625c10.473,10.47,21.351,19.238,30.63,24.691
		c10.235,6.01,14.813,5.722,15.812,4.738c0.991-0.993,1.275-5.57-4.738-15.812c-5.45-9.279-14.22-20.155-24.691-30.625l0,0
		c-10.47-10.47-21.348-19.238-30.628-24.691C258.57,60.553,254.207,59.393,251.843,59.393z"/>
	<path style="fill:#E1E6E9;" d="M251.83,141.593c-2.397,0-4.303-0.699-5.706-2.103c-7.995-7.997,8.752-33.108,29.429-53.785
		c20.674-20.672,45.773-37.431,53.777-29.429c7.992,7.992-8.755,33.108-29.429,53.785l0,0
		c-10.774,10.774-22.022,19.83-31.672,25.496C261.383,139.581,255.9,141.593,251.83,141.593z M323.611,59.393
		c-2.364,0-6.728,1.161-13.762,5.291c-9.279,5.448-20.155,14.22-30.628,24.691c-10.47,10.47-19.24,21.351-24.691,30.63
		c-6.013,10.247-5.729,14.823-4.738,15.817c1.003,0.988,5.575,1.272,15.809-4.738c9.282-5.453,20.157-14.22,30.63-24.691
		c24.906-24.914,32.396-43.477,29.429-46.447C325.35,59.636,324.688,59.393,323.611,59.393z"/>
</g>
<g>
	<path style="fill:#EBF0F3;" d="M228.614,218c2.156,1.802,3.234,4.578,3.234,8.327c0,3.753-1.101,6.5-3.3,8.241
		c-2.201,1.741-5.575,2.614-10.123,2.614h-5.492v9.081h-5.227V215.3h10.631C223.032,215.3,226.458,216.201,228.614,218z
		 M224.915,230.779c1.047-1.107,1.572-2.729,1.572-4.87c0-2.141-0.665-3.655-1.994-4.542c-1.328-0.887-3.41-1.327-6.245-1.327
		h-5.315v12.401h6.069C221.894,232.441,223.866,231.89,224.915,230.779z"/>
	<path style="fill:#EBF0F3;" d="M242.256,233.505v12.758h-4.96V213.44h4.96v13.554c0.708-1.449,1.779-2.585,3.212-3.41
		c1.431-0.829,2.974-1.244,4.629-1.244c2.659,0,4.807,0.815,6.446,2.437c1.638,1.626,2.459,3.973,2.459,7.044v14.441h-4.962v-12.934
		c0-4.34-1.801-6.51-5.404-6.51c-1.712,0-3.205,0.566-4.474,1.705C242.891,229.658,242.256,231.32,242.256,233.505z"/>
	<path style="fill:#EBF0F3;" d="M268.879,255.653c-2.156,0-4.104-0.782-5.847-2.347l2.26-4.03c1.033,0.973,2.103,1.46,3.21,1.46
		c1.108,0,2.008-0.4,2.702-1.197c0.694-0.797,1.042-1.669,1.042-2.614c0-0.411-3.174-8.49-9.524-24.228h5.315l7.044,17.365
		l7.042-17.365h5.317l-11.429,27.996c-0.68,1.536-1.655,2.747-2.924,3.63C271.816,255.21,270.414,255.653,268.879,255.653z"/>
	<path style="fill:#EBF0F3;" d="M307.86,239.218c0,2.246-0.813,4.041-2.437,5.382c-1.624,1.345-3.706,2.015-6.245,2.015
		c-1.712,0-3.493-0.31-5.337-0.93c-1.846-0.62-3.479-1.489-4.895-2.614l2.392-3.854c2.747,2.069,5.404,3.1,7.974,3.1
		c1.121,0,2.008-0.256,2.657-0.775c0.651-0.515,0.975-1.172,0.975-1.968c0-1.182-1.566-2.246-4.695-3.19
		c-0.236-0.09-0.415-0.148-0.532-0.177c-4.903-1.33-7.354-3.544-7.354-6.647c0-2.185,0.849-3.933,2.549-5.249
		c1.698-1.312,3.904-1.972,6.622-1.972c2.716,0,5.285,0.8,7.707,2.394l-1.86,3.677c-1.921-1.269-4.003-1.903-6.247-1.903
		c-1.181,0-2.141,0.213-2.879,0.642c-0.739,0.429-1.107,1.071-1.107,1.925c0,0.768,0.382,1.33,1.152,1.683
		c0.532,0.267,1.276,0.519,2.237,0.753c0.959,0.238,1.808,0.472,2.547,0.71c0.737,0.234,1.455,0.501,2.149,0.797
		c0.694,0.296,1.438,0.707,2.237,1.24C307.063,235.322,307.86,236.976,307.86,239.218z"/>
	<path style="fill:#EBF0F3;" d="M313.795,218c-0.62-0.62-0.93-1.355-0.93-2.213s0.31-1.597,0.93-2.217
		c0.62-0.62,1.357-0.93,2.213-0.93s1.595,0.31,2.215,0.93c0.62,0.62,0.93,1.359,0.93,2.217s-0.31,1.593-0.93,2.213
		c-0.62,0.62-1.359,0.93-2.215,0.93S314.415,218.62,313.795,218z M318.446,246.262h-4.96v-23.565h4.96V246.262z"/>
	<path style="fill:#EBF0F3;" d="M336.077,246.616c-3.279,0-6.099-1.114-8.461-3.342c-2.363-2.231-3.545-5.148-3.545-8.749
		c0-3.605,1.233-6.536,3.7-8.792c2.464-2.26,5.47-3.392,9.014-3.392s6.541,1.229,8.992,3.677l-2.924,3.59
		c-2.039-1.774-4.092-2.66-6.157-2.66c-2.067,0-3.863,0.689-5.382,2.062c-1.521,1.373-2.282,3.143-2.282,5.314
		s0.753,4.009,2.258,5.515c1.507,1.507,3.36,2.26,5.561,2.26c2.199,0,4.274-1.002,6.224-3.014l2.924,3.19
		C343.134,245.17,339.826,246.616,336.077,246.616z"/>
	<path style="fill:#EBF0F3;" d="M367.748,239.218c0,2.246-0.813,4.041-2.437,5.382c-1.624,1.345-3.706,2.015-6.245,2.015
		c-1.712,0-3.493-0.31-5.337-0.93c-1.846-0.62-3.479-1.489-4.895-2.614l2.392-3.854c2.747,2.069,5.404,3.1,7.974,3.1
		c1.121,0,2.008-0.256,2.657-0.775c0.651-0.515,0.975-1.172,0.975-1.968c0-1.182-1.566-2.246-4.695-3.19
		c-0.236-0.09-0.415-0.148-0.532-0.177c-4.903-1.33-7.354-3.544-7.354-6.647c0-2.185,0.849-3.933,2.549-5.249
		c1.698-1.312,3.904-1.972,6.622-1.972c2.716,0,5.285,0.8,7.707,2.394l-1.86,3.677c-1.921-1.269-4.003-1.903-6.247-1.903
		c-1.181,0-2.141,0.213-2.879,0.642c-0.739,0.429-1.107,1.071-1.107,1.925c0,0.768,0.382,1.33,1.152,1.683
		c0.532,0.267,1.276,0.519,2.237,0.753c0.959,0.238,1.808,0.472,2.547,0.71c0.737,0.234,1.455,0.501,2.149,0.797
		c0.694,0.296,1.438,0.707,2.237,1.24C366.951,235.322,367.748,236.976,367.748,239.218z"/>
</g>
<g>
</g>
<g>
</g>
<g>
</g>
<g>
</g>
<g>
</g>
<g>
</g>
<g>
</g>
<g>
</g>
<g>
</g>
<g>
</g>
<g>
</g>
<g>
</g>
<g>
</g>
<g>
</g>
<g>
</g>
</svg>
