<?xml version="1.0" encoding="iso-8859-1"?>
<!-- Generator: Adobe Illustrator 19.0.0, SVG Export Plug-In . SVG Version: 6.00 Build 0)  -->
<svg xmlns="http://www.w3.org/2000/svg" xmlns:xlink="http://www.w3.org/1999/xlink" version="1.1" id="Layer_1" x="0px" y="0px" viewBox="0 0 512 512" style="enable-background:new 0 0 512 512;" xml:space="preserve" width="512" height="512">
<g>
	<path style="fill:#7FE881;" d="M480,272c0,132.599-107.401,240-240,240c-15,0-29.7-1.5-44.099-4.2L182.1,329.9L160.201,45.801   C185.4,37.099,212.1,32,240,32c66.301,0,126.301,27.001,169.799,70.201C452.999,145.699,480,205.699,480,272z"/>
	<path style="fill:#5BC980;" d="M480,272c0,132.599-107.401,240-240,240c-15,0-29.7-1.5-44.099-4.2L182.1,329.9l227.699-227.699   C452.999,145.699,480,205.699,480,272z"/>
	<path style="fill:#4BB9EC;" d="M317.401,377.601c-2.1,11.699-9,21.899-18.9,28.499L238.2,446.3c-1.5,0.901-2.999,2.401-3.9,3.9   L195.901,507.8c-10.501-2.1-21-4.499-30.901-7.8c-5.099-1.8-10.201-3.6-15-5.7l-44.399-87.9L7.8,212   c17.1-65.7,60.899-120.601,119.7-152.1c10.499-5.4,21.599-10.199,32.701-14.099l48.3,32.1c9.901,6.599,16.8,16.8,18.9,28.499   c2.399,12.001,0,24.001-6.601,33.9L185.7,193.1c-2.701,3.9-3.3,8.699-1.8,13.2l7.8,23.101l-23.401,28.2l33.001,1.199l1.199,2.999   c1.8,6,7.8,10.201,14.099,10.201H240c14.7,0.3,28.2,7.8,36.301,20.099L310.8,343.7C317.401,353.599,319.799,365.6,317.401,377.601z   "/>
	<path style="fill:#0095FF;" d="M317.401,377.601c-2.1,11.699-9,21.899-18.9,28.499L238.2,446.3c-1.5,0.901-2.999,2.401-3.9,3.9   L195.901,507.8c-10.501-2.1-21-4.499-30.901-7.8c-5.099-1.8-10.201-3.6-15-5.7l-44.399-87.9L240,272   c14.7,0.3,28.2,7.8,36.301,20.099L310.8,343.7C317.401,353.599,319.799,365.6,317.401,377.601z"/>
	<path style="fill:#DEECF1;" d="M512,212.1l-31.8,31.8L395.3,159l-37.2,37.2l5.4,37.202l-31.8,31.8L299.9,212.1l-53.101-31.8   l31.8-31.8l37.202,5.4l37.2-37.2L268.1,31.8L299.9,0l116.7,53.101l42.299-42.601c11.1-11.1,31.501-11.1,42.601,0   c11.699,11.7,11.699,30.901,0,42.601L458.899,95.4L512,212.1z"/>
	<path style="fill:#C5D3DD;" d="M512,212.1l-31.8,31.8L395.3,159l-37.2,37.2l5.4,37.202l-31.8,31.8L299.9,212.1L501.501,10.499   c11.699,11.7,11.699,30.901,0,42.601L458.899,95.4L512,212.1z"/>
	<polygon style="fill:#7FE881;" points="78.311,332.513 201.37,258.668 191.651,229.512 62.871,306.79  "/>
	<path style="fill:#7FE881;" d="M150,299.299v195c-10.499-4.199-20.4-9-30-14.7C101.7,469.1,85.201,456.2,70.499,441.501   C27.001,398.301,0,338.301,0,272c0-10.201,0.901-20.099,2.1-30c1.199-10.201,3.3-20.099,5.7-30h54.901   c11.999,0,23.099,4.799,31.8,13.2l42.299,42.299C145.201,276.2,150,287.3,150,299.299z"/>
	<path style="fill:#5BC980;" d="M150,362v132.299c-10.499-4.199-20.4-9-30-14.7C101.7,469.1,85.201,456.2,70.499,441.501L150,362z"/>
</g>















</svg>
