<svg id="Capa_1" enable-background="new 0 0 512 512" height="512" viewBox="0 0 512 512" width="512" xmlns="http://www.w3.org/2000/svg"><g><g><g><path d="m136.779 0-27.354 47.354-47.353 27.353v437.293h193.928l30-236.291-30-275.709z" fill="#fff5f5"/><path d="m256 0h193.928v512h-193.928z" fill="#dce6eb"/></g><path d="m136.779 0v74.707h-74.707z" fill="#dce6eb"/></g><g><g><path d="m168.856 219.301v68.148h30v-68.148c0-31.509 25.634-57.144 57.144-57.144l10-16.157-10-13.843c-48.051 0-87.144 39.093-87.144 87.144z" fill="#c8d2dc"/><path d="m256 132.157v30c31.509 0 57.144 25.635 57.144 57.144v68.148h30v-68.148c0-48.051-39.093-87.144-87.144-87.144z" fill="#a2abb8"/></g><g><path d="m150.909 277.449v174.684h105.091l20-90.133-20-84.551z" fill="#69b1e9"/><path d="m256 277.449h105.091v174.684h-105.091z" fill="#3d9ae2"/></g><g><path d="m241 349.791v30h15l10-15-10-15z" fill="#145383"/><path d="m256 349.791h15v30h-15z" fill="#001737"/></g></g></g></svg>