<?xml version="1.0" encoding="iso-8859-1"?>
<!-- Generator: Adobe Illustrator 19.0.0, SVG Export Plug-In . SVG Version: 6.00 Build 0)  -->
<svg version="1.1" id="Capa_1" xmlns="http://www.w3.org/2000/svg" xmlns:xlink="http://www.w3.org/1999/xlink" x="0px" y="0px"
	 viewBox="0 0 468.293 468.293" style="enable-background:new 0 0 468.293 468.293;" xml:space="preserve">
<path style="fill:#F6C358;" d="M369.893,142.574H98.399c-3.448,0-6.244-2.795-6.244-6.244V6.244C92.155,2.795,94.951,0,98.399,0
	h271.494c3.448,0,6.244,2.795,6.244,6.244v130.087C376.137,139.779,373.342,142.574,369.893,142.574z"/>
<path style="fill:#FCD462;" d="M107.3,90.716V51.859c20.276,0,36.713-16.437,36.713-36.713h180.264
	c0,20.276,16.437,36.713,36.713,36.713v38.857c-20.276,0-36.713,16.437-36.713,36.713H144.014
	C144.014,107.153,127.576,90.716,107.3,90.716z"/>
<circle style="fill:#DC8744;" cx="234.146" cy="71.287" r="46.542"/>
<g>
	<path style="fill:#F6C358;" d="M143.615,78.104h-13.564c-3.765,0-6.817-3.052-6.817-6.817v0c0-3.765,3.052-6.817,6.817-6.817
		h13.564c3.765,0,6.817,3.052,6.817,6.817v0C150.432,75.052,147.38,78.104,143.615,78.104z"/>
	<path style="fill:#F6C358;" d="M338.239,78.104h-13.564c-3.765,0-6.817-3.052-6.817-6.817v0c0-3.765,3.052-6.817,6.817-6.817
		h13.564c3.765,0,6.817,3.052,6.817,6.817v0C345.056,75.052,342.004,78.104,338.239,78.104z"/>
</g>
<path style="fill:#FCD462;" d="M232.574,100.925v-5.22c-6.535-0.666-12.401-3.265-17.591-7.792l5.22-6.221
	c4.004,3.48,8.123,5.551,12.371,6.221V74.041c-5.388-1.286-9.334-2.979-11.836-5.077c-2.502-2.098-3.753-5.208-3.753-9.331
	s1.437-7.495,4.324-10.119c2.886-2.622,6.64-4.05,11.266-4.289v-3.576h4.574v3.646c5.243,0.384,10.201,2.171,14.874,5.365
	l-4.649,6.579c-3.148-2.24-6.552-3.622-10.224-4.149v13.442h0.215c5.482,1.289,9.508,3.029,12.08,5.22
	c2.578,2.194,3.864,5.377,3.864,9.546c0,4.172-1.478,7.571-4.434,10.189c-2.956,2.624-6.861,4.053-11.726,4.292v5.147H232.574z
	 M227.529,54.771c-1.216,1.071-1.821,2.406-1.821,4.004s0.477,2.86,1.432,3.788c0.949,0.931,2.764,1.824,5.435,2.683V52.874
	C230.427,53.066,228.745,53.698,227.529,54.771z M242.583,86.125c1.333-1.094,2.002-2.476,2.002-4.146
	c0-1.667-0.524-2.991-1.571-3.969c-1.053-0.978-3.008-1.894-5.866-2.752v12.869C239.435,87.891,241.245,87.221,242.583,86.125z"/>
<path style="fill:#44C4A1;" d="M367.337,293.087H100.956c-6.897,0-12.488-5.591-12.488-12.488v-32.934
	c0-6.897,5.591-12.488,12.488-12.488h266.381c6.897,0,12.488,5.591,12.488,12.488v32.934
	C379.824,287.496,374.233,293.087,367.337,293.087z"/>
<polygon style="fill:#3EA69B;" points="366.989,293.086 101.304,293.086 124.559,425.078 343.734,425.078 "/>
<path style="fill:#31978C;" d="M124.559,425.078l4.917,27.907c1.559,8.853,9.25,15.307,18.239,15.307h172.864
	c8.989,0,16.68-6.455,18.239-15.307l4.917-27.907H124.559z"/>
<rect x="224.887" y="142.573" style="fill:#64798A;" width="18.519" height="92.603"/>
<g>
</g>
<g>
</g>
<g>
</g>
<g>
</g>
<g>
</g>
<g>
</g>
<g>
</g>
<g>
</g>
<g>
</g>
<g>
</g>
<g>
</g>
<g>
</g>
<g>
</g>
<g>
</g>
<g>
</g>
</svg>
