<svg id="Layer_1" enable-background="new 0 0 512 512" height="512" viewBox="0 0 512 512" width="512" xmlns="http://www.w3.org/2000/svg"><g clip-rule="evenodd" fill-rule="evenodd"><g><path d="m315.407 390.535c-39.009 0-80.976 0-119.928 0 2.614 22.696.239 49.268-4.661 71.494l129.936.001c-5.214-22.227-7.961-48.799-5.347-71.495z" fill="#656565"/><path d="m142.745 474.529c-6.903 0-12.5-5.596-12.5-12.5s5.597-12.5 12.5-12.5h226.082c6.904 0 12.5 5.596 12.5 12.5s-5.596 12.5-12.5 12.5z" fill="#515151"/><path d="m502 355.214c0 19.508-15.813 35.32-35.321 35.32h-421.358c-19.508 0-35.32-15.813-35.32-35.32 0-95.914 0-191.829 0-287.743 0-16.523 13.476-30 30-30h432c16.523 0 30 13.477 30 30-.001 95.914-.001 191.829-.001 287.743z" fill="#6a676b"/><path d="m480 298.278v-230.807c0-4.38-3.62-8-8-8-144 0-288 0-432 0-4.38 0-8 3.62-8 8v230.807z" fill="#92d2fe"/><path d="m45.321 390.535h150.159 119.928 151.272c19.508 0 35.321-15.813 35.321-35.32 0 0 0-13.604 0-34.937h-492.001v34.937c0 19.507 15.813 35.32 35.321 35.32z" fill="#e6e6e6"/></g><g><path d="m156.617 266.603c-5.134 1.963-10.889-.608-12.852-5.742s.608-10.889 5.742-12.852c35.351-13.609 73.9-36.625 109.4-64.263 30.497-23.742 58.552-50.765 80.203-78.03h-25.173c-5.523 0-10-4.477-10-10s4.477-10 10-10h45c5.523 0 10 4.477 10 10v50.513c0 5.523-4.477 10-10 10s-10-4.477-10-10v-20.997c-21.795 26.15-48.768 51.721-77.765 74.296-36.826 28.669-77.172 52.683-114.555 67.075z" fill="#f2f2f2"/><g fill="#eb745e"><path d="m315.583 198.555c9.491 0 18.086 3.848 24.306 10.069 6.221 6.221 10.069 14.815 10.069 24.306 0 9.492-3.848 18.086-10.069 24.306-6.221 6.221-14.815 10.069-24.306 10.069s-18.085-3.848-24.306-10.069-10.069-14.815-10.069-24.306 3.848-18.085 10.069-24.306c6.22-6.22 14.814-10.069 24.306-10.069zm10.165 24.21c-2.601-2.601-6.195-4.21-10.165-4.21s-7.565 1.609-10.165 4.21c-2.601 2.601-4.21 6.195-4.21 10.165s1.609 7.564 4.21 10.165 6.195 4.21 10.165 4.21 7.565-1.609 10.165-4.21 4.21-6.195 4.21-10.165-1.609-7.564-4.21-10.165z"/><path d="m170.42 108.017c-3.538-4.228-2.978-10.525 1.25-14.063 4.229-3.538 10.525-2.978 14.063 1.25l16.058 19.116 16.057-19.116c3.538-4.228 9.834-4.788 14.063-1.25 4.228 3.538 4.788 9.834 1.25 14.063l-18.333 21.825 18.333 21.825c3.538 4.228 2.978 10.525-1.25 14.063s-10.525 2.978-14.063-1.25l-16.057-19.116-16.058 19.116c-3.538 4.228-9.834 4.788-14.063 1.25-4.228-3.538-4.788-9.834-1.25-14.063l18.333-21.825z"/></g></g></g></svg>