<svg id="Capa_1" enable-background="new 0 0 512 512" height="512" viewBox="0 0 512 512" width="512" xmlns="http://www.w3.org/2000/svg"><g><g><path d="m418.692 271.901c-12.316 0-19.517-14.258-11.862-24.17l66.674-86.323c9.625-12.464 11.224-28.348 4.279-42.486-6.94-14.126-20.476-22.56-36.209-22.56h-113.847c-8.285 0-15.001-6.716-15.001-15s6.716-15 15.001-15h113.847c27.025 0 51.217 15.071 63.136 39.331 11.925 24.273 9.066 52.647-7.46 74.051l-66.676 86.325c-2.955 3.826-7.394 5.832-11.882 5.832z" fill="#5e9ff6"/></g><path d="m414.909 192.797c-.34-.92-.77-1.8-1.28-2.63-7.87-15.98-16.851-28.91-25.372-39.04-17.591-20.92-35.802-33.38-46.443-39.56l1.47-58.991c.19-7.59-5.32-14.12-12.841-15.22l-112.257-16.34-143.368-20.861c-5.2-.75-10.411 1.26-13.751 5.31-3.33 4.05-4.31 9.56-2.56 14.51l32.902 93.471c-10.861 6.68-27.332 18.7-43.283 37.68-8.531 10.13-17.511 23.06-25.372 39.04-.51.83-.94 1.71-1.28 2.63-13.8 29.081-23.781 67.951-21.01 118.282 4.38 79.461 34.162 129.231 58.374 157.002 26.772 30.7 52.943 42.22 54.043 42.69 1.87.81 3.9 1.23 5.94 1.23h198.732c2.05 0 4.07-.42 5.95-1.23 1.1-.47 27.272-11.99 54.033-42.69 24.211-27.77 53.993-77.541 58.374-157.002 2.781-50.331-7.2-89.201-21.001-118.281zm-58.903 254.322c-17.991 21.01-35.622 31.52-41.953 34.88h-191.762c-14.251-7.5-85.155-50.811-91.866-172.572-1.621-29.378 1.318-56.141 8.755-80.101 3.009-9.695 11.942-16.33 22.094-16.33h315.506c8.919 0 16.809 5.769 19.525 14.265 21.161 66.193 9.956 161.124-40.299 219.858z" fill="#c5eaff"/><path d="m435.911 311.078c-4.38 79.461-34.162 129.231-58.374 157.002-26.762 30.7-52.933 42.22-54.033 42.69-1.88.81-3.9 1.23-5.95 1.23h-99.366v-490.985l112.257 16.34c7.52 1.1 13.031 7.63 12.841 15.22l-1.47 58.991c10.641 6.18 28.852 18.64 46.443 39.56 8.521 10.13 17.501 23.06 25.372 39.04.51.83.94 1.71 1.28 2.63 13.799 29.081 23.78 67.951 21 118.282z" fill="#8dc2eb"/><path d="m356.006 447.119c-17.991 21.01-35.622 31.52-41.953 34.88h-191.762c-14.251-7.5-85.155-50.811-91.866-172.572-1.75-31.66 1.8-60.281 10.571-85.631 2.23-6.47 8.341-10.8 15.191-10.8h323.82c6.8 0 12.911 4.27 15.151 10.69 22.115 63.582 13.157 162.299-39.152 223.433z" fill="#e8a43e"/><path d="m356.006 447.119c-17.991 21.01-35.622 31.52-41.953 34.88h-95.866v-269.002h161.82c6.8 0 12.911 4.27 15.151 10.69 22.115 63.581 13.157 162.298-39.152 223.432z" fill="#e17b47"/><g><path d="m180.685 317.561-20.181 10.74-20.181 10.73c-1.67.89-3.53 1.34-5.39 1.33-1.1-.01-2.22-.17-3.29-.49-2.88-.89-5.31-2.88-6.72-5.56l-21.473-40.361c-2.95-5.56-.84-12.46 4.71-15.41l20.181-10.74 20.181-10.72c2.67-1.42 5.79-1.72 8.681-.83 2.89.87 5.31 2.87 6.73 5.53l21.461 40.37c2.952 5.56.842 12.46-4.709 15.411z" fill="#eef4ff"/></g><g><path d="m259.4 395.321-12.931 43.85c-1.78 6.04-8.111 9.49-14.151 7.71l-14.131-4.16-7.8-2.29-21.921-6.46c-1.82-.53-3.46-1.51-4.78-2.82-.79-.78-1.47-1.68-2.01-2.65-1.43-2.65-1.78-5.78-.91-8.68l12.921-43.851c1.78-6.03 8.11-9.49 14.151-7.71l10.351 3.04 11.581 3.41 21.911 6.46c2.9.86 5.34 2.83 6.78 5.48 1.449 2.651 1.779 5.771.939 8.671z" fill="#eef4ff"/></g><g><path d="m323.724 274.87-2.66 45.63c-.37 6.29-5.75 11.09-12.031 10.72l-22.821-1.31-22.821-1.32c-1.89-.11-3.71-.69-5.3-1.67-.94-.58-1.81-1.3-2.55-2.13-2-2.26-3.04-5.22-2.85-8.25l2.64-45.631c.37-6.28 5.76-11.08 12.031-10.72l22.831 1.32 22.811 1.33c3.01.17 5.84 1.54 7.841 3.8 2.009 2.251 3.039 5.221 2.879 8.231z" fill="#d9e6fc"/></g><path d="m259.4 395.321-12.931 43.85c-1.78 6.04-8.111 9.49-14.151 7.71l-14.131-4.16v-71.421l11.581 3.41 21.911 6.46c2.9.86 5.34 2.83 6.78 5.48 1.451 2.651 1.781 5.771.941 8.671z" fill="#d9e6fc"/></g></svg>