<?xml version="1.0" encoding="iso-8859-1"?>
<!-- Generator: Adobe Illustrator 19.0.0, SVG Export Plug-In . SVG Version: 6.00 Build 0)  -->
<svg version="1.1" id="Capa_1" xmlns="http://www.w3.org/2000/svg" xmlns:xlink="http://www.w3.org/1999/xlink" x="0px" y="0px"
	 viewBox="0 0 512.24 512.24" style="enable-background:new 0 0 512.24 512.24;" xml:space="preserve">
<g>
	<rect x="185.8" y="141.392" style="fill:#997960;" width="16.32" height="333.008"/>
	<path style="fill:#997960;" d="M336.664,228.336c-87.968,32.528-150.8,116.896-150.8,216.16c5.44,0,10.88,0,16.336,0
		c0-90.112,55.68-167.104,134.464-198.784V228.336z"/>
</g>
<path style="fill:#E14B4B;" d="M292.648,98.688c0-15.28-11.216-27.856-25.84-30.176c8.704-11.984,7.744-28.8-3.056-39.616
	c-10.8-10.8-27.632-11.76-39.616-3.056C221.816,11.216,209.24,0,193.96,0s-27.856,11.216-30.176,25.84
	c-11.984-8.704-28.8-7.744-39.616,3.056s-11.76,27.632-3.056,39.616c-14.624,2.32-25.84,14.88-25.84,30.176
	s11.216,27.856,25.84,30.176c-8.704,11.984-7.744,28.8,3.056,39.616c10.8,10.8,27.632,11.76,39.616,3.056
	c2.32,14.624,14.896,25.84,30.176,25.84s27.856-11.216,30.176-25.84c11.984,8.704,28.8,7.744,39.616-3.056
	c10.8-10.8,11.76-27.632,3.056-39.616C281.432,126.528,292.648,113.968,292.648,98.688z"/>
<circle style="fill:#FFFFFF;" cx="194.024" cy="98.688" r="38.896"/>
<path style="fill:#8BC540;" d="M415.416,257.904c0-15.28-11.216-27.856-25.84-30.176c8.704-11.984,7.744-28.8-3.056-39.616
	c-10.8-10.8-27.632-11.76-39.616-3.056c-2.32-14.624-14.896-25.84-30.176-25.84s-27.856,11.216-30.176,25.84
	c-11.984-8.704-28.8-7.744-39.616,3.056c-10.816,10.8-11.76,27.632-3.056,39.616c-14.624,2.32-25.84,14.896-25.84,30.176
	s11.216,27.856,25.84,30.176c-8.704,11.984-7.744,28.8,3.056,39.616c10.8,10.8,27.632,11.76,39.616,3.056
	c2.32,14.624,14.896,25.84,30.176,25.84s27.856-11.216,30.176-25.84c11.984,8.704,28.8,7.744,39.616-3.056
	c10.8-10.8,11.76-27.632,3.056-39.616C404.2,285.744,415.416,273.184,415.416,257.904z"/>
<circle style="fill:#FFFFFF;" cx="316.728" cy="257.872" r="38.896"/>
<circle style="fill:#8BC540;" cx="316.728" cy="257.872" r="22.88"/>
<circle style="fill:#E14B4B;" cx="194.024" cy="98.688" r="22.88"/>
<path style="fill:#F3C432;" d="M451.96,512.24c-6.896-25.808-30.208-44.928-58.192-44.928c-9.648,0-18.624,2.464-26.72,6.48
	c-5.488-27.76-29.92-48.704-59.28-48.704c-8.08,0-15.776,1.648-22.816,4.528c-4.912-19.52-22.448-34.032-43.488-34.032
	c-17.904,0-33.216,10.528-40.464,25.664c-10.016-7.36-22.256-11.84-35.632-11.84c-28.592,0-52.416,19.92-58.72,46.592
	C80.76,462.112,61.4,484.768,60.28,512.24H451.96z"/>
<g>
</g>
<g>
</g>
<g>
</g>
<g>
</g>
<g>
</g>
<g>
</g>
<g>
</g>
<g>
</g>
<g>
</g>
<g>
</g>
<g>
</g>
<g>
</g>
<g>
</g>
<g>
</g>
<g>
</g>
</svg>
