<svg id="Capa_1" enable-background="new 0 0 512 512" height="512" viewBox="0 0 512 512" width="512" xmlns="http://www.w3.org/2000/svg"><g><g><path d="m48.479 232.387c0 92.1 134.009 223.467 186.65 271.517 5.913 5.397 13.392 8.096 20.871 8.096l20-217.367-20-197.574c-114.611 0-207.521 20.717-207.521 135.328z" fill="#ff5b5b"/><path d="m256 97.059v414.941c7.479 0 14.958-2.699 20.871-8.096 52.641-48.05 186.65-179.417 186.65-271.517 0-114.611-92.91-135.328-207.521-135.328z" fill="#c83c50"/></g><path d="m167.088 279.216h30v30h-30z" fill="#ffe477"/><path d="m291.535 315.657h30v30h-30z" fill="#ffb655"/><path d="m212.467 371.348h30v30h-30z" fill="#ffe477"/><g><path d="m241 45.939v92.393h15l10-61.082-10-65.238c-9.211 8.407-15 20.504-15 33.927z" fill="#58b454"/><path d="m286.94 0c-11.907 0-22.77 4.555-30.94 12.012v126.32h15v-92.393c0-8.789 7.151-15.939 15.94-15.939h26.028v-30z" fill="#3f893c"/></g><g><path d="m219.118 86.703h-136.154v15.27c0 40.714 32.985 73.722 73.69 73.761v54.534h25.583c40.738 0 73.763-22.712 73.763-63.45l10-21.818-10-21.416c0-20.369-16.512-36.881-36.882-36.881z" fill="#86c983"/><path d="m292.882 86.703c-20.369 0-36.882 16.512-36.882 36.882v43.234c0 40.738 33.025 63.45 73.763 63.45h25.583v-54.534c40.704-.04 73.69-33.047 73.69-73.761v-15.27h-136.154z" fill="#58b454"/></g></g></svg>