<svg id="Capa_1" enable-background="new 0 0 512 512" height="512" viewBox="0 0 512 512" width="512" xmlns="http://www.w3.org/2000/svg"><g><g><path clip-rule="evenodd" d="m384.134 93.199-92.927 103.56 38.155 21.749 60.721-21.749 48.881-54.473-11.341-42.764z" fill="#fdb440" fill-rule="evenodd"/></g><g><path clip-rule="evenodd" d="m421.41 51.635 17.554 41.565 37.276 7.523 31.62-35.242c5.978-6.674 5.421-17.036-1.289-23.036l-30.507-27.31c-6.682-5.971-17.085-5.415-23.063 1.288z" fill="#fe636e" fill-rule="evenodd"/></g><g><path clip-rule="evenodd" d="m402.272 60.164h55.831v73.593h-55.831z" fill="#edf3f4" fill-rule="evenodd" transform="matrix(.668 -.745 .745 .668 70.785 352.484)"/></g><g><path clip-rule="evenodd" d="m450.042 95.424-18.14 20.226-10.081 11.269 17.143 15.367 37.277-41.564-17.144-15.367z" fill="#d7e7ec" fill-rule="evenodd"/></g><g><path clip-rule="evenodd" d="m490.688 50.142-31.591 35.213 17.144 15.367 31.62-35.242c5.978-6.674 5.421-17.036-1.289-23.036l-17.114-15.309c6.652 6.001 7.208 16.333 1.23 23.007z" fill="#fb2a39" fill-rule="evenodd"/></g><g><path clip-rule="evenodd" d="m421.821 126.919-64.267 69.84h32.529l48.881-54.473z" fill="#fe9900" fill-rule="evenodd"/></g><g><path clip-rule="evenodd" d="m0 238.178v180.601c0 45.193 37.042 82.221 82.319 82.221h334.403c45.277 0 82.319-37.028 82.319-82.222v-180.6l-260.055-19.026z" fill="#6bd9e7" fill-rule="evenodd"/></g><g><path clip-rule="evenodd" d="m0 203.14v35.037h92.195v-41.418h-85.836c-3.516 0-6.359 2.869-6.359 6.381z" fill="#edf3f4" fill-rule="evenodd"/></g><g><path clip-rule="evenodd" d="m291.207 196.759h-118.042v41.418h325.875v-35.037c0-3.512-2.872-6.381-6.359-6.381h-102.598z" fill="#edf3f4" fill-rule="evenodd"/></g><g><path clip-rule="evenodd" d="m80.853 196.759v41.418 2.049c0 4.274 3.487 7.786 7.766 7.786h4.835 65.175 6.74c4.279 0 7.795-3.512 7.795-7.786v-2.049-41.418c0-4.274-3.517-7.757-7.795-7.757h-76.75c-4.278.001-7.766 3.484-7.766 7.757z" fill="#d7e7ec" fill-rule="evenodd"/></g><g><path clip-rule="evenodd" d="m93.455 248.012v59.156c0 17.884 14.653 32.549 32.588 32.549s32.588-14.665 32.588-32.549v-59.156z" fill="#edf3f4" fill-rule="evenodd"/></g><g><path clip-rule="evenodd" d="m263.631 348.88v61.791c0 4.625 3.78 8.401 8.411 8.401h142.16c4.63 0 8.411-3.776 8.411-8.401v-61.791c0-4.625-3.78-8.401-8.411-8.401h-142.16c-4.631 0-8.411 3.776-8.411 8.401z" fill="#edf3f4" fill-rule="evenodd"/></g><g><path clip-rule="evenodd" d="m149.486 238.178v2.049c0 4.274-3.517 7.786-7.795 7.786h16.938 6.74c4.279 0 7.795-3.512 7.795-7.786v-2.049-41.418c0-4.274-3.517-7.757-7.795-7.757h-23.679c4.279 0 7.795 3.483 7.795 7.757v41.418z" fill="#b5c4cf" fill-rule="evenodd"/></g><g><path clip-rule="evenodd" d="m134.951 248.012v59.156c0 13.728-8.616 25.553-20.748 30.295 3.663 1.464 7.678 2.254 11.839 2.254 17.935 0 32.588-14.665 32.588-32.549v-59.156h-16.938z" fill="#d7e7ec" fill-rule="evenodd"/></g><g><path clip-rule="evenodd" d="m456.841 203.14v31.964 3.073h42.2v-35.037c0-3.512-2.872-6.381-6.359-6.381h-42.2c3.487 0 6.359 2.869 6.359 6.381z" fill="#d7e7ec" fill-rule="evenodd"/></g><g><path clip-rule="evenodd" d="m456.841 238.178v180.601c0 45.194-37.042 82.222-82.319 82.222h42.2c45.277 0 82.319-37.028 82.319-82.222v-180.601z" fill="#00c7dd" fill-rule="evenodd"/></g><g><path clip-rule="evenodd" d="m378.39 348.88v61.791c0 4.625-3.78 8.401-8.381 8.401h44.192c4.63 0 8.411-3.776 8.411-8.401v-61.791c0-4.625-3.78-8.401-8.411-8.401h-44.192c4.601 0 8.381 3.776 8.381 8.401z" fill="#d7e7ec" fill-rule="evenodd"/></g></g></svg>