<?xml version="1.0" encoding="iso-8859-1"?>
<!-- Generator: Adobe Illustrator 19.0.0, SVG Export Plug-In . SVG Version: 6.00 Build 0)  -->
<svg version="1.1" id="Capa_1" xmlns="http://www.w3.org/2000/svg" xmlns:xlink="http://www.w3.org/1999/xlink" x="0px" y="0px"
	 viewBox="0 0 512 512" style="enable-background:new 0 0 512 512;" xml:space="preserve">
<path style="fill:#75B8DB;" d="M335.98,109.338c-4.2,0-7.603-3.404-7.603-7.603V43.446c0-15.571-12.668-28.24-28.239-28.24h-88.277
	c-15.572,0-28.239,12.668-28.239,28.24v58.289c0,4.199-3.404,7.603-7.603,7.603c-4.2,0-7.603-3.404-7.603-7.603V43.446
	C168.415,19.49,187.906,0,211.86,0h88.277c23.956,0,43.446,19.49,43.446,43.446v58.289
	C343.584,105.934,340.18,109.338,335.98,109.338z"/>
<path style="fill:#96CBEB;" d="M374.514,512H137.485c-14.482,0-26.566-11.06-27.845-25.485L75.757,104.488h360.485l-33.884,382.027
	C401.079,500.94,388.995,512,374.514,512z"/>
<g>
	<path style="fill:#75B8DB;" d="M383.594,104.488L349.71,486.515C348.431,500.94,336.346,512,321.866,512h52.648
		c14.482,0,26.566-11.06,27.845-25.485l33.884-382.027C436.243,104.488,383.594,104.488,383.594,104.488z"/>
	<path style="fill:#75B8DB;" d="M469.383,130.686H42.617c-8.824,0-15.978-7.154-15.978-15.978V90.486
		c0-8.824,7.154-15.978,15.978-15.978h426.767c8.824,0,15.978,7.154,15.978,15.978v24.222
		C485.361,123.532,478.208,130.686,469.383,130.686z"/>
</g>
<path style="fill:#66A8C6;" d="M469.384,74.508h-36.671v1.24c0,15.873-12.867,28.74-28.74,28.74H26.639v10.22
	c0,8.824,7.154,15.978,15.978,15.978h426.767c8.824,0,15.978-7.154,15.978-15.978V90.486
	C485.361,81.662,478.208,74.508,469.384,74.508z"/>
<g>
	<path style="fill:#FFFFFF;" d="M285.217,267.079c1.409,2.439,3.964,3.803,6.591,3.803c1.29,0,2.598-0.329,3.795-1.02
		c3.636-2.099,4.883-6.749,2.783-10.386l-35.803-62.012c-1.358-2.352-3.868-3.802-6.584-3.802c-2.716,0-5.226,1.449-6.584,3.802
		l-29.291,50.733l-2.408-4.677c-1.924-3.734-6.511-5.2-10.24-3.278c-3.733,1.923-5.201,6.507-3.279,10.24l8.785,17.058
		c1.32,2.563,3.949,4.122,6.758,4.122c0.448,0,0.903-0.04,1.356-0.122l18.882-3.418c4.132-0.748,6.875-4.704,6.127-8.836
		c-0.748-4.132-4.713-6.879-8.836-6.127l-2.738,0.496l21.468-37.183L285.217,267.079z"/>
	<path style="fill:#FFFFFF;" d="M359.75,365.76l-29.287-50.736l5.255,0.253c4.221,0.192,7.757-3.035,7.96-7.229
		c0.202-4.194-3.034-7.758-7.229-7.96l-19.166-0.922c-3.319-0.158-6.392,1.878-7.521,5.026l-6.482,18.06
		c-1.419,3.952,0.635,8.306,4.587,9.725c0.849,0.304,1.716,0.449,2.569,0.449c3.117,0,6.042-1.933,7.156-5.037l0.94-2.62
		l21.466,37.188l-58.435-0.004c-0.001,0-0.001,0-0.001,0c-4.199,0-7.603,3.404-7.603,7.603s3.404,7.603,7.602,7.604l71.605,0.005
		c0.001,0,0.001,0,0.001,0c2.716,0,5.226-1.449,6.584-3.801C361.108,371.011,361.108,368.113,359.75,365.76z"/>
	<path style="fill:#FFFFFF;" d="M224.727,350.07c-2.717-3.202-7.515-3.595-10.717-0.878s-3.595,7.515-0.878,10.717l1.8,2.121
		l-42.937,0.041l29.169-50.635c2.096-3.639,0.845-8.287-2.793-10.383c-3.639-2.094-8.287-0.847-10.384,2.793l-35.742,62.046
		c-1.355,2.354-1.353,5.252,0.008,7.603c1.359,2.349,3.867,3.795,6.58,3.795c0.002,0,0.005,0,0.007,0l58.583-0.057l-2.842,4.427
		c-2.268,3.534-1.242,8.238,2.292,10.506c1.271,0.816,2.693,1.205,4.1,1.205c2.503,0,4.953-1.235,6.405-3.497l10.364-16.148
		c1.806-2.814,1.562-6.477-0.601-9.026L224.727,350.07z"/>
</g>
<g>
</g>
<g>
</g>
<g>
</g>
<g>
</g>
<g>
</g>
<g>
</g>
<g>
</g>
<g>
</g>
<g>
</g>
<g>
</g>
<g>
</g>
<g>
</g>
<g>
</g>
<g>
</g>
<g>
</g>
</svg>
