<svg id="icon" height="512" viewBox="0 0 128 128" width="512" xmlns="http://www.w3.org/2000/svg"><rect fill="#575b6d" height="82" rx="2.929" width="51.722" x="38.139" y="23"/><path d="m41.137 30.81h45.726v62.232h-45.726z" fill="#69b0ee"/><circle cx="64" cy="99.021" fill="#828a9e" r="3.108"/><rect fill="#828a9e" height="1.952" rx=".976" width="9.274" x="59.363" y="25.929"/><rect fill="#f6b863" height="3.978" rx=".663" width="29.016" x="49.492" y="54.66"/><path d="m51.183 58.164h25.634a0 0 0 0 1 0 0v12.9a1.769 1.769 0 0 1 -1.769 1.769h-22.1a1.769 1.769 0 0 1 -1.769-1.769v-12.9a0 0 0 0 1 .004 0z" fill="#f6b863"/><g fill="#eaa14e"><path d="m51.183 58.638h25.634v1.147h-25.634z"/><rect height="9.356" rx=".877" width="1.754" x="71.495" y="61.633"/><rect height="9.356" rx=".877" width="1.754" x="65.914" y="61.633"/><rect height="9.356" rx=".877" width="1.754" x="60.332" y="61.633"/><rect height="9.356" rx=".877" width="1.754" x="54.75" y="61.633"/><path d="m73.548 56.649a1.6 1.6 0 1 1 -1.6-1.6 1.6 1.6 0 0 1 1.6 1.6z"/></g><rect fill="#eeefee" height="13.253" rx="1.099" transform="matrix(.878 -.478 .478 .878 -16.239 39.396)" width="2.198" x="68.17" y="44.971"/><path d="m54.452 56.649a1.6 1.6 0 1 0 1.6-1.6 1.6 1.6 0 0 0 -1.6 1.6z" fill="#eaa14e"/><rect fill="#eeefee" height="13.253" rx="1.099" transform="matrix(-.878 -.478 .478 -.878 85.557 124.973)" width="2.198" x="57.584" y="44.971"/></svg>