<svg height="512pt" viewBox="0 0 512 512.0007" width="512pt" xmlns="http://www.w3.org/2000/svg"><path d="m496.621094 95.414062-80.035156-80.035156c-20.5-20.5-53.855469-20.507812-74.363282 0l-311.992187 311.988282c-3.488281 3.488281-5.828125 7.894531-6.761719 12.730468l-22.628906 117.191406c-2.90625 15.011719 1.824218 30.421876 12.636718 41.234376l.242188.238281c10.796875 10.644531 26.085938 15.28125 40.992188 12.398437l117.191406-22.628906c4.84375-.941406 9.242187-3.273438 12.726562-6.761719l311.992188-311.992187c20.507812-20.507813 20.5-53.863282 0-74.363282zm0 0" fill="#fed317"/><path d="m496.621094 95.414062-39.777344-39.777343-443.125 443.125c10.796875 10.644531 26.085938 15.285156 40.992188 12.398437l117.191406-22.628906c4.84375-.941406 9.242187-3.273438 12.726562-6.761719l311.992188-311.988281c20.507812-20.511719 20.5-53.867188 0-74.367188zm0 0" fill="#fe9e0f"/><path d="m496.621094 95.414062-80.035156-80.035156c-20.5-20.5-53.855469-20.507812-74.363282 0l-35.273437 35.273438 154.398437 154.398437 35.273438-35.273437c20.507812-20.507813 20.5-53.863282 0-74.363282zm0 0" fill="#ff771a"/><path d="m30.230469 327.367188c-3.488281 3.488281-5.828125 7.894531-6.761719 12.730468l-22.628906 117.191406c-2.898438 15.003907 1.824218 30.40625 12.625 41.21875.007812.007813.007812.007813.011718.015626 10.8125 10.8125 26.222657 15.542968 41.234376 12.636718l117.191406-22.628906c4.84375-.941406 9.242187-3.273438 12.726562-6.761719zm0 0" fill="#687b85"/><path d="m107.414062 404.554688-93.953124 93.953124.015624.015626c10.8125 10.8125 26.222657 15.542968 41.234376 12.636718l117.191406-22.628906c4.84375-.941406 9.242187-3.273438 12.726562-6.761719zm0 0" fill="#586b75"/><path d="m496.621094 95.414062-40.03125-40.03125-72.457032 72.453126 77.21875 77.214843 35.269532-35.273437c20.507812-20.507813 20.5-53.863282 0-74.363282zm0 0" fill="#ff4a05"/></svg>