<svg height="512" viewBox="0 0 128 128" width="512" xmlns="http://www.w3.org/2000/svg"><g><path d="m102.179 67.812 18.821-3.812-18.821-3.812a8.013 8.013 0 0 1 -3.969-13.621l5.982-5.772-9.931 2.853a8.01 8.01 0 0 1 -9.909-9.912c1.67-5.81 2.853-9.928 2.853-9.928l-5.768 5.979a8.018 8.018 0 0 1 -13.627-3.978c-2.128-10.504-3.81-18.809-3.81-18.809l-3.809 18.805a8.022 8.022 0 0 1 -13.636 3.974l-5.755-5.971 2.852 9.926a8.013 8.013 0 0 1 -9.915 9.912l-9.929-2.846 5.968 5.758a8.026 8.026 0 0 1 -3.976 13.635l-18.8 3.807 18.843 3.817a8 8 0 0 1 3.964 13.6c-3.565 3.438-6 5.787-6 5.787l9.944-2.857a8 8 0 0 1 9.9 9.9c-1.671 5.818-2.856 9.942-2.856 9.942l5.784-6a8.006 8.006 0 0 1 13.606 3.972l3.815 18.839 3.816-18.84a8 8 0 0 1 13.6-3.967l5.787 6-2.853-9.938a8.006 8.006 0 0 1 9.907-9.9l9.935 2.854-5.992-5.78a8.013 8.013 0 0 1 3.979-13.617z" fill="#fcba00"/><circle cx="64" cy="64" fill="#fdcd00" r="23.672"/></g></svg>