<svg id="Capa_1" enable-background="new 0 0 512 512" height="512" viewBox="0 0 512 512" width="512" xmlns="http://www.w3.org/2000/svg"><g><path d="m312.441 396.334c0 12.32-6.943 22.307-19.262 22.307h-19.584v19.761c0 6.933 5.672 12.605 12.605 12.605h35.495c6.933 0 12.605-5.672 12.605-12.605v-42.068z" fill="#23a8fe"/><path d="m218.821 418.641c-12.32 0-19.262-9.987-19.262-22.307h-21.858v42.068c0 6.933 5.672 12.605 12.605 12.605h35.495c6.933 0 12.605-5.672 12.605-12.605v-19.761z" fill="#23a8fe"/><g><path d="m300.83 438.402v-21.27c-2.252.971-4.806 1.509-7.651 1.509h-19.584v19.761c0 6.933 5.672 12.605 12.605 12.605h27.236c-6.934 0-12.606-5.672-12.606-12.605z" fill="#0193fa"/></g><path d="m204.937 438.402v-25.867c-3.51-4.066-5.377-9.818-5.377-16.201h-21.858v42.068c0 6.933 5.672 12.605 12.605 12.605h27.236c-6.934 0-12.606-5.672-12.606-12.605z" fill="#0193fa"/><path d="m313.699 272.464v128.944h124.978c6.064 0 11.205-3.858 13.075-9.218z" fill="#ff656f"/><path d="m313.699 272.464v128.944h32.232v-100.99z" fill="#ff4756"/><path d="m60.417 392.658c1.991 5.115 6.983 8.75 12.842 8.75h124.406v-128.325z" fill="#ff656f"/><path d="m197.665 273.083-31.596 27.528v100.797h31.596z" fill="#ff4756"/><path d="m443.929 337.666-130.23-112.942v49.384l130.23 112.942c2.681 2.323 4.795 5.153 6.257 8.28 1.469-2.169 2.329-4.775 2.329-7.58v-31.357c0-7.171-3.128-13.997-8.586-18.727z" fill="#ff8188"/><path d="m345.931 252.677-32.232-27.953v49.384l32.232 27.953z" fill="#ff656f"/><path d="m68.032 337.666c-5.433 4.73-8.546 11.556-8.546 18.726v31.357c0 2.805.855 5.411 2.318 7.58 1.455-3.126 3.56-5.957 6.228-8.28l129.634-112.942v-49.384z" fill="#ff8188"/><path d="m166.069 301.636 31.597-27.528v-49.384l-31.597 27.528z" fill="#ff656f"/><path d="m204.958 59.675c-5.515 11.959-8.444 25.051-8.444 38.414v303.32c0 12.32 9.987 22.307 22.307 22.307h74.357c12.32 0 22.307-9.987 22.307-22.307v-303.32c0-13.363-2.928-26.455-8.444-38.414z" fill="#dfebfa"/><path d="m238.406 401.409v-303.32c0-13.363 2.928-26.455 8.443-38.414h-41.891c-5.515 11.959-8.444 25.051-8.444 38.414v303.32c0 12.32 9.987 22.307 22.307 22.307h41.891c-12.319-.001-22.306-9.988-22.306-22.307z" fill="#b4dbff"/><g><path d="m334.299 512c-4.204 0-7.611-3.407-7.611-7.612v-20.032c0-4.204 3.408-7.611 7.611-7.611s7.612 3.407 7.612 7.611v20.032c-.001 4.205-3.408 7.612-7.612 7.612z" fill="#fee55a"/></g><g><path d="m303.947 512c-4.204 0-7.611-3.407-7.611-7.612v-20.032c0-4.204 3.408-7.611 7.611-7.611s7.612 3.407 7.612 7.611v20.032c-.001 4.205-3.409 7.612-7.612 7.612z" fill="#fee55a"/></g><g><path d="m273.594 512c-4.204 0-7.611-3.407-7.611-7.612v-20.032c0-4.204 3.408-7.611 7.611-7.611s7.612 3.407 7.612 7.611v20.032c0 4.205-3.408 7.612-7.612 7.612z" fill="#fee55a"/></g><g><path d="m238.406 512c-4.204 0-7.611-3.407-7.611-7.612v-20.032c0-4.204 3.408-7.611 7.611-7.611 4.204 0 7.611 3.407 7.611 7.611v20.032c.001 4.205-3.407 7.612-7.611 7.612z" fill="#fee55a"/></g><g><path d="m208.053 512c-4.204 0-7.611-3.407-7.611-7.612v-20.032c0-4.204 3.408-7.611 7.611-7.611 4.204 0 7.612 3.407 7.612 7.611v20.032c0 4.205-3.408 7.612-7.612 7.612z" fill="#fee55a"/></g><g><path d="m177.701 512c-4.204 0-7.611-3.407-7.611-7.612v-20.032c0-4.204 3.408-7.611 7.611-7.611 4.204 0 7.611 3.407 7.611 7.611v20.032c0 4.205-3.407 7.612-7.611 7.612z" fill="#fee55a"/></g><path d="m248.047 3.682-29.748 35.059c-5.662 6.673-10.275 14.076-13.791 21.949h102.984c-3.516-7.873-8.129-15.276-13.791-21.949l-29.748-35.059c-4.166-4.909-11.74-4.909-15.906 0z" fill="#ff8188"/><path d="m276.946 18.994-12.993-15.312c-4.165-4.909-11.74-4.909-15.906 0l-29.749 35.059c-5.662 6.673-10.275 14.076-13.791 21.949h41.891c3.516-7.873 8.129-15.276 13.791-21.949z" fill="#ff656f"/><circle cx="256" cy="144.123" fill="#23a8fe" r="29.188"/><path d="m260.713 144.123c0-9.797 4.832-18.46 12.238-23.754-4.779-3.416-10.628-5.434-16.95-5.434-16.12 0-29.188 13.068-29.188 29.188s13.068 29.188 29.188 29.188c6.323 0 12.171-2.017 16.95-5.434-7.406-5.294-12.238-13.957-12.238-23.754z" fill="#0193fa"/><path d="m260.989 248.018h-9.979c-6.933 0-12.605 5.672-12.605 12.605v155.984c0 6.933 5.672 12.605 12.605 12.605h9.979c6.933 0 12.605-5.672 12.605-12.605v-155.985c0-6.932-5.672-12.604-12.605-12.604z" fill="#ff8188"/><path d="m259.352 416.606v-155.984c0-4.968 2.92-9.275 7.121-11.325-1.662-.811-3.519-1.28-5.484-1.28h-9.979c-6.933 0-12.605 5.672-12.605 12.605v155.984c0 6.933 5.672 12.605 12.605 12.605h9.979c1.965 0 3.822-.469 5.484-1.279-4.202-2.051-7.121-6.358-7.121-11.326z" fill="#ff656f"/></g></svg>