<svg id="Capa_1" enable-background="new 0 0 512 512" height="512" viewBox="0 0 512 512" width="512" xmlns="http://www.w3.org/2000/svg"><g><path d="m433.727 208.375c23.117-21.84 38.189-50.149 43.978-80.375-29.072-10.106-61.131-11.208-91.604-2.102 9.107-30.473 8.005-62.532-2.102-91.604-30.226 5.79-58.535 20.861-80.375 43.978-7.354-30.935-24.342-58.153-47.624-78.272-23.282 20.119-40.27 47.337-47.625 78.273-21.84-23.117-50.149-38.188-80.375-43.978-10.106 29.071-11.208 61.131-2.102 91.604-30.473-9.107-62.532-8.005-91.604 2.102 5.79 30.225 20.861 58.535 43.978 80.375-30.935 7.354-58.153 24.342-78.272 47.624 32.482 46.853 85.072 58.999 116.009 66.354h279.983c30.936-7.355 88.574-25.538 116.008-66.354-20.119-23.282-47.337-40.27-78.273-47.625z" fill="#aad880"/><path d="m152.632 107.86s-6.706 32.213 25.507 64.438c0 0-39.744-9.23-69.805 13.423 0 0 5.367 26.847 46.317 46.317 0 0-28.66 15.442-38.158 31.544 0 0 10.024 35.377 75.821 58.772h-76.306c-30.936-7.355-83.526-19.501-116.008-66.354 20.119-23.282 47.337-40.27 78.273-47.625-23.117-21.84-38.189-50.15-43.978-80.375 29.072-10.106 61.131-11.208 91.604-2.102-9.107-30.473-8.005-62.532 2.102-91.604 30.226 5.79 58.535 20.861 80.375 43.978 7.354-30.935 24.342-58.153 47.624-78.272 0 0-33.553 55.496-26.847 122.622 0 0-25.507-21.479-76.521-14.762z" fill="#9bd069"/><g><path d="m394.678 426.763c-1.453 17.709-5.285 41.661-14.948 64.654-5.244 12.486-17.503 20.583-31.05 20.583h-185.36c-13.547 0-25.806-8.097-31.05-20.583-9.663-22.994-13.495-46.945-14.948-64.654-1.339-16.37-.649-27.403-.649-27.403h278.654s.69 11.033-.649 27.403z" fill="#eab14d"/><path d="m215.705 512h-52.375c-13.547 0-25.806-8.097-31.06-20.583-18.595-44.246-15.597-92.057-15.597-92.057h78.757s-1.308 47.811 6.779 92.057c2.277 12.486 7.613 20.583 13.496 20.583z" fill="#e49542"/><path d="m394.678 426.763c-92.448 2.132-184.907 2.132-277.356 0-1.339-16.37-.649-27.403-.649-27.403l139.327-38.265 139.327 38.265s.69 11.033-.649 27.403z" fill="#e49542"/><path d="m395.987 322.359c-93.325-2.173-186.65-2.173-279.974 0-12.654.295-23.566 9.235-26.101 21.636-2.33 11.4-2.33 22.8 0 34.2 2.535 12.401 13.447 21.341 26.101 21.636 5.557-.843 27.995-4.839 27.995-4.839s37.652 4.687 49.102 6.14c67.626.707 135.252.274 202.878-1.301 12.654-.295 23.566-9.235 26.101-21.636 2.33-11.4 2.33-22.8 0-34.2-2.536-12.401-13.448-21.341-26.102-21.636z" fill="#eab14d"/><path d="m194.884 401.152c-26.29-.268-52.58-.701-78.871-1.319-12.651-.299-23.56-9.241-26.095-21.634-2.339-11.404-2.339-22.808 0-34.202 2.534-12.403 13.444-21.345 26.095-21.644 26.259-.608 52.529-1.04 78.799-1.308-11.641 1.731-21.253 10.497-23.653 22.242-2.431 11.868-2.431 23.746 0 35.624 2.4 11.775 12.053 20.552 23.725 22.241z" fill="#e49542"/></g></g></svg>