<svg height="512" viewBox="0 0 58 58" width="512" xmlns="http://www.w3.org/2000/svg"><g id="Page-1" fill="none" fill-rule="evenodd"><g id="041---Home-Love" fill-rule="nonzero"><path id="Shape" d="m8 17.96v-11.96c0-.55228475.44771525-1 1-1h6c.5522847 0 1 .44771525 1 1v12z" fill="#c03a2b"/><path id="Shape" d="m52 25.09v30.91c-.0032948 1.1032019-.8967981 1.9967052-2 2h-42c-1.10320187-.0032948-1.9967052-.8967981-2-2v-30.91l23-22.09z" fill="#f9eab0"/><path id="Shape" d="m54.994 27.747-25.994-23.078-25.994 23.078c-.4135841.3664939-1.04536043.3307751-1.415-.08l-1.336-1.488c-.17717235-.1968278-.26838345-.4562717-.25336092-.7206682.01502253-.2643966.13503401-.5118392.33336092-.6873318l27.329-24.264c.7624408-.67588897 1.9095592-.67588897 2.672 0l27.329 24.264c.1983269.1754926.3183384.4229352.3333609.6873318.0150226.2643965-.0761886.5238404-.2533609.7206682l-1.336 1.488c-.3696396.4107751-1.0014159.4464939-1.415.08z" fill="#e64c3c"/><path id="Shape" d="m42 28.887c.5888997-1.1217969 1.7338238-1.8419542 3-1.887 1.775 0 3 1.629 3 3.558 0 2.6-2.324 4.136-5.742 7.339-.1436552.1367619-.3693448.1367619-.513 0-3.418-3.203-5.745-4.735-5.745-7.339 0-1.929 1.226-3.558 3-3.558 1.2663667.0444265 2.4115761.7647632 3 1.887z" fill="#df4d60"/><path id="Shape" d="m45.613 27.065c-.078 2.051-.909 7.81-7.849 7.124-.1-.11-.205-.22-.3-.33-.8943855-.8706839-1.4187336-2.052616-1.464-3.3 0-1.928 1.228-3.559 3-3.559 1.2668571.0446187 2.4122628.7658425 3 1.889.5715919-1.0909519 1.6708677-1.8047231 2.9-1.883.0330369-.0054465.0665489-.0074572.1-.006.2059921.0011263.4113524.0229019.613.065z" fill="#ff5364"/><path id="Shape" d="m29 34.945c1.3112335-2.3770691 3.786064-3.8791009 6.5-3.945 3.848 0 6.5 3.405 6.5 7.44 0 5.444-5.037 8.647-12.445 15.345-.3143214.2870615-.7956786.2870615-1.11 0-7.408-6.698-12.445-9.901-12.445-15.345 0-4.035 2.652-7.44 6.5-7.44 2.713936.0658991 5.1887665 1.5679309 6.5 3.945z" fill="#c03a2b"/><path id="Shape" d="m37.569 31.35c-.444 4.053-2.871 15.312-16.3 16.079-.531-.493-1.029-.964-1.484-1.446-2.398-2.443-3.785-4.683-3.785-7.546 0-4.031 2.654-7.437 6.5-7.437 2.7139936.0638671 5.189473 1.565531 6.5 3.943 1.310527-2.377469 3.7860064-3.8791329 6.5-3.943.290267-.0003234.5801267.021742.867.066.4091279.0543836.8117959.1495232 1.202.284z" fill="#e64c3c"/><path id="Shape" d="m16 28.887c.5888997-1.1217969 1.7338238-1.8419542 3-1.887 1.775 0 3 1.629 3 3.558 0 2.6-2.324 4.136-5.742 7.339-.1436552.1367619-.3693448.1367619-.513 0-3.418-3.203-5.745-4.735-5.745-7.339 0-1.929 1.226-3.558 3-3.558 1.2663667.0444265 2.4115761.7647632 3 1.887z" fill="#df4d60"/><path id="Shape" d="m19.613 27.065c-.078 2.051-.909 7.81-7.849 7.124-.1-.11-.205-.22-.295-.33-.8962253-.8698764-1.4224084-2.0519079-1.469-3.3 0-1.928 1.228-3.559 3-3.559 1.2668571.0446187 2.4122628.7658425 3 1.889.5715919-1.0909519 1.6708677-1.8047231 2.9-1.883.0330369-.0054465.0665489-.0074572.1-.006.2059921.0011263.4113524.0229019.613.065z" fill="#ff5364"/></g></g></svg>