<svg height="512pt" viewBox="0 0 512 512.001" width="512pt" xmlns="http://www.w3.org/2000/svg"><path d="m386.800781 79.898438-130.800781 71.101562-130.800781-71.101562c15-46.5 69-79.898438 130.800781-79.898438s115.800781 33.402344 130.800781 79.898438zm0 0" fill="#56c225"/><path d="m386.800781 79.898438-130.800781 71.101562v-151c61.800781 0 115.800781 33.402344 130.800781 79.898438zm0 0" fill="#49a520"/><path d="m512 256c0 20.097656-13 48.898438-69.402344 72.898438l-.898437 4.503906c-14.101563 71.097656-62.699219 130.597656-130.199219 157.597656h-111c-67.5-27-116.097656-86.5-130.199219-157.597656l-.898437-4.503906c-56.402344-24-69.402344-52.800782-69.402344-72.898438 0-17.699219 10.601562-43.5 55.902344-66.597656 3-1.503906 5.097656-4.800782 5.097656-8.101563 0-32.101562 12.300781-62.402343 35.097656-84.902343 42.003906-42.296876 114-45.898438 159.902344-9 36.300781-28.800782 93.902344-39.898438 150.902344-2.398438 29.097656 19.199219 44.699218 53.101562 44.097656 96 0 3.601562 1.800781 6.898438 5.097656 8.402344 45.304688 23.097656 55.902344 48.898437 55.902344 66.597656zm0 0" fill="#70da40"/><path d="m512 256c0 20.097656-13 48.898438-69.402344 72.898438l-.898437 4.503906c-14.101563 71.097656-62.699219 130.597656-130.199219 157.597656h-55.5v-403.601562c36.300781-28.800782 93.902344-39.898438 150.902344-2.398438 29.097656 19.199219 44.699218 53.101562 44.097656 96 0 3.601562 1.800781 6.898438 5.097656 8.402344 45.304688 23.097656 55.902344 48.898437 55.902344 66.597656zm0 0" fill="#56c225"/><path d="m421 241c0 24.601562-10.199219 48.601562-28.199219 65.699219-20.398437 18.902343-31.800781 45.601562-31.800781 73.199219v8.101562c0 35.101562-13.5 68.800781-38.101562 93.398438-1.800782 1.800781-28.496094 25.203124-30.300782 27.003906l-25.496094-9h-22.199218l-25.5 9c-1.804688-1.800782-28.5-25.203125-30.300782-27.003906-24.601562-24.597657-38.101562-58.296876-38.101562-93.398438v-8.101562c0-27.597657-11.398438-54.296876-31.800781-73.199219-17.996094-17.097657-28.199219-41.097657-28.199219-65.699219 0-41.699219 29.097656-77.699219 69.300781-87.300781 16.5-37.796875 54-62.699219 95.699219-62.699219s79.199219 24.902344 95.699219 62.699219c40.203125 9.601562 69.300781 45.601562 69.300781 87.300781zm0 0" fill="#90e36a"/><path d="m421 241c0 24.601562-10.199219 48.601562-28.199219 65.699219-20.398437 18.902343-31.800781 45.601562-31.800781 73.199219v8.101562c0 35.101562-13.5 68.800781-38.101562 93.398438-1.800782 1.800781-28.496094 25.203124-30.300782 27.003906l-25.496094-9h-11.101562v-408.402344c41.699219 0 79.199219 24.902344 95.699219 62.699219 40.203125 9.601562 69.300781 45.601562 69.300781 87.300781zm0 0" fill="#70da40"/><path d="m361 226c0 8.402344-6.597656 15-15 15-15 0-30 6-40.5 16.800781l-31.796875 31.800781c26.394531 66.300782 34.796875 139.296876 23.398437 209.800782l-.601562 3.597656c-.898438 5.101562-5.402344 9-10.5 9h-60c-5.097656 0-9.597656-3.898438-10.5-9l-.597656-3.597656c-11.402344-70.503906-3-143.5 23.398437-209.800782l-31.800781-31.800781c-10.5-10.800781-25.5-16.800781-40.5-16.800781-8.402344 0-15-6.597656-15-15s6.597656-15 15-15c23.101562 0 45.601562 9.300781 61.800781 25.5l13.199219 13.199219v-83.699219c0-8.402344 6.597656-15 15-15s15 6.597656 15 15v83.699219l13.199219-13.199219c16.199219-16.199219 38.699219-25.5 61.800781-25.5 8.402344 0 15 6.597656 15 15zm0 0" fill="#70da40"/><path d="m361 226c0 8.402344-6.597656 15-15 15-15 0-30 6-40.5 16.800781l-31.796875 31.800781c26.394531 66.300782 34.796875 139.296876 23.398437 209.800782l-.601562 3.597656c-.898438 5.101562-5.402344 9-10.5 9h-30v-361c8.402344 0 15 6.597656 15 15v83.699219l13.199219-13.199219c16.199219-16.199219 38.699219-25.5 61.800781-25.5 8.402344 0 15 6.597656 15 15zm0 0" fill="#56c225"/></svg>