<svg id="Capa_1" enable-background="new 0 0 511.984 511.984" height="512" viewBox="0 0 511.984 511.984" width="512" xmlns="http://www.w3.org/2000/svg"><g><g><path d="m511.984 159.867c0-17.599-14.267-31.865-31.865-31.865h-224.116l-10 127.99 127.24 20 138.741-20z" fill="#ff7037"/><path d="m246.003 255.992 10 127.99h82.089v33.661c0 25.612 20.976 46.324 46.686 45.895 25.168-.42 45.117-21.479 45.117-46.65v-32.906h50.224c17.599 0 31.865-14.267 31.865-31.865v-96.125z" fill="#ff4c04"/></g><g><path d="m335.537 255.207c-.42-25.168-21.479-45.117-46.65-45.117h-32.906v-82.089h-82.089v-32.905c0-25.171-19.949-46.23-45.117-46.65-25.71-.429-46.686 20.283-46.686 45.895v33.661h-50.224c-17.598 0-31.865 14.266-31.865 31.865v96.125l223.109 10 112.421-10c0-.262.011-.521.007-.785z" fill="#9de1f7"/><path d="m0 255.992v96.125c0 17.599 14.267 31.865 31.865 31.865h50.224v-69.093c0-25.171 19.949-46.23 45.117-46.65 25.71-.429 46.686 20.283 46.686 45.895v69.849h82.089v-82.089h33.661c25.349 0 45.886-20.552 45.888-45.901h-335.53z" fill="#2fbfef"/></g></g></svg>