<svg id="Capa_1" enable-background="new 0 0 512.03 512.03" height="512" viewBox="0 0 512.03 512.03" width="512" xmlns="http://www.w3.org/2000/svg"><path d="m451.838 495.701h-391.646c-21.427 0-40.749-10.999-51.689-29.423-10.939-18.424-11.347-40.654-1.09-59.467l195.825-359.145c10.699-19.622 30.429-31.336 52.777-31.336 22.349 0 42.078 11.714 52.777 31.336l195.824 359.146c10.257 18.813 9.85 41.043-1.09 59.467-10.939 18.423-30.261 29.422-51.688 29.422z" fill="#ffe645"/><path d="m451.838 495.701c21.427 0 40.749-10.999 51.689-29.423s11.347-40.654 1.09-59.467l-195.825-359.145c-10.699-19.622-30.429-31.336-52.777-31.336v479.371z" fill="#ffb500"/><path d="m268.119 340.71h-24.208c-5.294 0-9.671-4.126-9.983-9.411l-9.586-162.509c-.339-5.744 4.228-10.589 9.983-10.589h43.38c5.754 0 10.321 4.844 9.983 10.589l-9.586 162.509c-.312 5.285-4.689 9.411-9.983 9.411z" fill="#006099"/><path d="m256.015 440.71c-16.569 0-30-13.431-30-30 0-16.569 13.431-30 30-30 16.568 0 30 13.431 30 30 0 16.569-13.431 30-30 30z" fill="#006099"/><g fill="#00213b"><path d="m286.015 410.71c0-16.568-13.431-30-30-30v60c16.569 0 30-13.431 30-30z"/><path d="m277.705 158.201h-21.69v182.509h12.104c5.294 0 9.671-4.126 9.983-9.411l9.586-162.509c.339-5.745-4.229-10.589-9.983-10.589z"/></g></svg>