<?xml version="1.0" encoding="iso-8859-1"?>
<!-- Generator: Adobe Illustrator 19.0.0, SVG Export Plug-In . SVG Version: 6.00 Build 0)  -->
<svg version="1.1" id="Capa_1" xmlns="http://www.w3.org/2000/svg" xmlns:xlink="http://www.w3.org/1999/xlink" x="0px" y="0px"
	 viewBox="0 0 511.999 511.999" style="enable-background:new 0 0 511.999 511.999;" xml:space="preserve">
<path style="fill:#C27B48;" d="M270.977,80.437l-29.958-2.399c0.194-2.478,5.296-60.882,51.863-78.038l10.39,28.201
	C274.854,38.67,271.012,80.021,270.977,80.437z"/>
<path style="fill:#00DD7E;" d="M372.911,442.614c-25.456,36.075-70.658,53.417-114.988,54.338c-0.641,0.01-1.282,0.02-1.923,0.02
	s-1.282-0.01-1.923-0.02c-44.33-0.922-89.532-18.263-114.988-54.338c-39.211-55.56-30.635-139.562-0.07-196.996
	c17.201-32.318,37.468-53.056,45.372-89.301C201.922,75.951,256,79.217,256,79.217s54.078-3.266,71.609,77.099
	c7.904,36.245,28.171,56.983,45.372,89.301C403.546,303.051,412.122,387.053,372.911,442.614z"/>
<path style="fill:#11A892;" d="M386.245,238.555c-5.77-10.84-11.731-20.227-17.502-29.313
	c-11.611-18.283-21.649-34.072-26.458-56.121c-10.208-46.825-32.529-68.504-49.449-78.452
	c-17.311-10.168-32.699-10.579-36.837-10.489c-4.127-0.1-19.525,0.321-36.837,10.489c-16.921,9.948-39.241,31.627-49.449,78.452
	c-4.809,22.05-14.847,37.838-26.458,56.121c-5.77,9.086-11.731,18.473-17.502,29.313c-30.866,58.005-43.699,149.31,1.062,212.724
	c26.037,36.887,73.493,59.578,126.989,60.7c0.711,0.01,1.433,0.02,2.194,0.02c0.01,0,0.01,0,0.02,0c0.731,0,1.453-0.01,2.214-0.02
	c53.457-1.122,100.922-23.813,126.949-60.7C429.944,387.865,417.111,296.56,386.245,238.555z M360.629,433.948
	c-20.547,29.123-59.067,47.065-102.986,47.977c-0.571,0.01-1.112,0.02-1.643,0.02c-0.561,0-1.092-0.01-1.603-0.02
	c-43.959-0.912-82.469-18.854-103.026-47.977c-35.765-50.672-26.608-129.544,0.912-181.277c5.229-9.808,10.88-18.714,16.35-27.309
	c12.042-18.964,24.494-38.57,30.445-65.839c13.855-63.535,51.784-65.308,55.921-65.308c0.07,0,0.13,0.01,0.18,0.01l0.601,0.06
	l0.22-0.01l0.902-0.06c0.411-0.02,41.405-1.713,56.021,65.308c5.951,27.269,18.403,46.875,30.445,65.839
	c2.735,4.298,5.52,8.676,8.265,13.204c2.745,4.528,5.47,9.197,8.085,14.105C387.237,304.404,396.393,383.276,360.629,433.948z"/>
<path style="fill:#C27B48;" d="M332.642,342.615c0,23.775-7.679,46.234-21.601,63.239c-14.533,17.744-34.088,27.513-55.042,27.513
	s-40.508-9.769-55.042-27.513c-13.922-17.006-21.6-39.464-21.6-63.239c0-23.631,7.687-47.958,21.091-66.73
	c14.89-20.879,34.623-32.371,55.551-32.371c20.93,0,40.661,11.493,55.551,32.371C324.955,294.657,332.642,318.984,332.642,342.615z"
	/>
<path style="fill:#00CB7E;" d="M372.911,442.614c-25.456,36.075-70.658,53.417-114.988,54.338c-0.641,0.01-1.282,0.02-1.923,0.02
	V79.217c0,0,54.078-3.266,71.609,77.099c7.904,36.245,28.171,56.983,45.372,89.301C403.546,303.051,412.122,387.053,372.911,442.614
	z"/>
<path style="fill:#A66235;" d="M255.999,433.367V243.514c20.93,0,40.661,11.493,55.551,32.371
	c13.404,18.772,21.091,43.099,21.091,66.73c0,23.775-7.679,46.234-21.601,63.239C296.508,423.599,276.954,433.367,255.999,433.367z"
	/>
<path style="fill:#0F9887;" d="M385.183,451.279c-26.027,36.887-73.493,59.578-126.949,60.7c-0.761,0.01-1.483,0.02-2.214,0.02
	c-0.01,0-0.01,0-0.02,0v-30.054c0.531,0,1.072-0.01,1.643-0.02c43.919-0.912,82.439-18.854,102.986-47.977
	c35.765-50.672,26.608-129.544-0.912-181.277c-2.615-4.909-5.34-9.577-8.085-14.105c-2.745-4.528-5.53-8.906-8.265-13.204
	c-12.042-18.964-24.494-38.57-30.445-65.839c-14.616-67.021-55.61-65.328-56.021-65.308L256,94.274V64.18
	c4.137-0.09,19.525,0.321,36.837,10.489c16.921,9.948,39.241,31.627,49.449,78.452c4.809,22.05,14.847,37.838,26.458,56.121
	c5.77,9.086,11.731,18.473,17.502,29.313C417.111,296.56,429.944,387.865,385.183,451.279z"/>
<g>
</g>
<g>
</g>
<g>
</g>
<g>
</g>
<g>
</g>
<g>
</g>
<g>
</g>
<g>
</g>
<g>
</g>
<g>
</g>
<g>
</g>
<g>
</g>
<g>
</g>
<g>
</g>
<g>
</g>
</svg>
