<svg id="color" enable-background="new 0 0 24 24" height="512" viewBox="0 0 24 24" width="512" xmlns="http://www.w3.org/2000/svg"><g><g><path d="m18.67 4.93c-1.31-2.4-3.88-3.93-6.67-3.93-3.54 0-6.62 2.47-7.4 5.83-2.58.27-4.6 2.44-4.6 5.07 0 2.81 2.31 5.1 5.15 5.1h1.05c-.15-.53-.21-1.08-.2-1.65.07-3.189 2.72-5.81 5.91-5.85h.13c1.57 0 3.05.62 4.19 1.73 1.14 1.12 1.77 2.63 1.77 4.24 0 .521-.07 1.04-.21 1.53h.08c.42 0 .83-.04 1.229-.12 2.841-.58 4.901-3.08 4.901-5.95 0-3.06-2.31-5.62-5.33-6z" fill="#2196f3"/></g></g><g><g><path d="m14.04 21.171v.72c0 .61-.5 1.11-1.119 1.11h-1.841c-.54 0-1.119-.4-1.119-1.29v-.54z" fill="#607d8b"/></g></g><g><g><path d="m16.501 15.471c0 1.35-.601 2.61-1.65 3.46-.42.34-.69.78-.78 1.24-.02.109-.03.229-.03.34v.66h-4.08v-.76l-.02-.24c-.07-.45-.32-.87-.729-1.19-1.11-.87-1.74-2.18-1.71-3.6.05-2.38 2.039-4.351 4.43-4.38 1.21-.03 2.37.439 3.24 1.3.858.84 1.329 1.969 1.329 3.17z" fill="#ffc107"/></g></g><g><g><path d="m12 1c-3.54 0-6.62 2.47-7.4 5.83-2.58.27-4.6 2.44-4.6 5.07 0 2.81 2.31 5.1 5.15 5.1h1.05c-.15-.53-.21-1.08-.2-1.65.07-3.189 2.72-5.81 5.91-5.85h.09z" fill="#1d83d4"/></g></g><g><g><path d="m12 21.171h-2.039v.54c0 .89.579 1.29 1.119 1.29h.92z" fill="#546d79"/></g></g><g><g><path d="m12 11c-.023 0-.046.001-.069.001-2.391.029-4.38 2-4.43 4.38-.03 1.42.6 2.729 1.71 3.6.409.32.659.74.729 1.19l.02.24v.76h2.04z" fill="#dea806"/></g></g></svg>