<svg id="Capa_1" enable-background="new 0 0 512 512" height="512" viewBox="0 0 512 512" width="512" xmlns="http://www.w3.org/2000/svg"><g><path d="m165.667 73-42.333 24.667-42.334-24.667v-68c0-2.761 2.239-5 5-5h74.667c2.761 0 5 2.239 5 5z" fill="#8dc5e8"/><path d="m431 73-43.25 24.667-41.417-24.667v-68c0-2.761 2.239-5 5-5h74.667c2.761 0 5 2.239 5 5z" fill="#5e9ff6"/><path d="m0 183.08v318.92c0 5.52 4.48 10 10 10h281.5l-35.5-375.67z" fill="#fff5f5"/><path d="m512 183.08v318.92c0 5.52-4.48 10-10 10h-246v-375.67z" fill="#e1ebf0"/><path d="m256 73 35.5 55.04-35.5 55.04h-256v-100.08c0-5.52 4.48-10 10-10z" fill="#0b799d"/><path d="m512 83v100.08h-256v-110.08h246c5.52 0 10 4.48 10 10z" fill="#07485e"/><path d="m256 233.35 12.075 138.572-12.075 74.808h-152.17c-8.28 0-15-6.72-15-15 0-8.29 6.72-15 15-15h32.74c1.87-59.09 46.83-107.49 104.43-114.73v-38.65h-20.25c-8.28 0-15-6.71-15-15 0-8.28 6.72-15 15-15z" fill="#8dc5e8"/><path d="m423.17 431.73c0 8.28-6.72 15-15 15h-152.17v-213.38h35.25c8.28 0 15 6.72 15 15 0 8.29-6.72 15-15 15h-20.25v38.65c57.6 7.24 102.56 55.64 104.43 114.73h32.74c8.28 0 15 6.71 15 15z" fill="#5e9ff6"/></g></svg>