<svg id="Capa_1" enable-background="new 0 0 512 512" height="512" viewBox="0 0 512 512" width="512" xmlns="http://www.w3.org/2000/svg"><g><path d="m190.902 368.318h130.191v82.626h-130.191z" fill="#82aee3"/><path d="m300.479 368.318h20.614v82.626h-20.614z" fill="#528fd8"/><path d="m489.959 377.822h-467.923c-12.17 0-18.888-3.479-18.888-15.649l.33-19.999-3.478-8.383v-288.009c0-12.17 9.866-22.036 22.036-22.036h467.923c12.17 0 22.036 9.866 22.036 22.036v288.009l-3.17 5.082v23.3c.001 12.17-6.696 15.649-18.866 15.649z" fill="#fef0ae"/><path d="m512 45.781v316.39c0 12.172-9.874 22.036-22.036 22.036h-20.614c12.162 0 22.036-9.864 22.036-22.036v-316.39c0-12.172-9.874-22.036-22.036-22.036h20.614c12.162 0 22.036 9.863 22.036 22.036z" fill="#fee97d"/><path d="m379.531 488.254h-247.067v-22.106c0-12.727 10.317-23.044 23.044-23.044h200.979c12.727 0 23.044 10.317 23.044 23.044z" fill="#0067c5"/><path d="m379.536 466.147v22.108h-20.614v-22.108c0-12.729-10.317-23.046-23.046-23.046h20.614c12.729 0 23.046 10.317 23.046 23.046z" fill="#0055a3"/><path d="m489.959 384.209h-467.923c-12.17 0-22.036-9.866-22.036-22.036v-28.382h511.995v28.382c0 12.17-9.866 22.036-22.036 22.036z" fill="#0067c5"/><path d="m512 333.786v28.385c0 12.172-9.874 22.036-22.036 22.036h-20.614c12.162 0 22.036-9.864 22.036-22.036v-28.385z" fill="#0055a3"/><path d="m0 294.338h511.995v39.453h-511.995z" fill="#fd9468"/><path d="m491.386 294.338h20.609v39.453h-20.609z" fill="#fe7d43"/><path d="m170.976 294.334h-120.693v-15.63c0-33.328 27.018-60.346 60.346-60.346 33.328 0 60.346 27.018 60.346 60.346v15.63z" fill="#b0e7c9"/><path d="m170.976 278.706v15.625h-20.614v-15.625c0-16.666-6.751-31.756-17.676-42.671-8.617-8.627-19.83-14.646-32.364-16.8 3.35-.577 6.792-.876 10.307-.876 16.666 0 31.756 6.751 42.671 17.676 10.925 10.916 17.676 26.005 17.676 42.671z" fill="#91deb6"/><path d="m110.63 237.953c-7.737 0-14.01-6.272-14.01-14.01v-25.351h28.02v25.351c0 7.738-6.273 14.01-14.01 14.01z" fill="#ffcebf"/><path d="m110.63 201.552c-29.569 0-53.54-23.971-53.54-53.54v-44.492l53.54-16.909 53.54 16.909v44.492c-.001 29.569-23.971 53.54-53.54 53.54z" fill="#ffcebf"/><path d="m164.174 103.52v44.495c0 29.57-23.974 53.534-53.544 53.534-3.525 0-6.967-.34-10.307-.989 24.644-4.803 43.237-26.499 43.237-52.544v-51.01z" fill="#ffb09e"/><path d="m56.887 109.453v13.473s17.145-.836 24.438-22.235h29.305 29.305c7.293 21.399 24.438 22.235 24.438 22.235v-13.473c0-29.681-24.062-53.743-53.743-53.743-29.682 0-53.743 24.062-53.743 53.743z" fill="#596c76"/><path d="m164.369 109.457v13.471s-12.616-.619-20.81-14.306v-1.876c0-23.654-15.285-43.732-36.507-50.916 1.175-.083 2.371-.124 3.576-.124 29.685 0 53.741 24.067 53.741 53.751z" fill="#465a61"/><path d="m456.559 237.953h-247.547c-2.846 0-5.153-2.307-5.153-5.153v-171.936c0-2.846 2.307-5.153 5.153-5.153h247.546c2.846 0 5.153 2.307 5.153 5.153v171.936c.001 2.846-2.306 5.153-5.152 5.153z" fill="#f9f3f1"/><g><g><path d="m90.429 160.483c-4.142 0-7.5-3.357-7.5-7.5v-11.14c0-4.143 3.358-7.5 7.5-7.5s7.5 3.357 7.5 7.5v11.14c0 4.143-3.358 7.5-7.5 7.5z" fill="#596c76"/></g><g><path d="m130.83 160.483c-4.142 0-7.5-3.357-7.5-7.5v-11.14c0-4.143 3.358-7.5 7.5-7.5s7.5 3.357 7.5 7.5v11.14c0 4.143-3.358 7.5-7.5 7.5z" fill="#596c76"/></g></g><g><path d="m377.284 115.232-22.188 15.803v31.596l22.188 15.802c4.202 2.992 9.231 4.6 14.389 4.6h13.404c2.689 0 4.869-2.18 4.869-4.869v-62.663c0-2.689-2.18-4.869-4.869-4.869h-13.404c-5.158 0-10.188 1.608-14.389 4.6z" fill="#acacac"/><path d="m409.949 115.497v62.671c0 2.689-2.181 4.87-4.87 4.87h-13.409c-2.751 0-5.465-.459-8.031-1.339.942-.88 1.524-2.144 1.524-3.532v-62.671c0-1.388-.582-2.652-1.524-3.532 2.565-.88 5.279-1.338 8.031-1.338h13.409c2.689 0 4.87 2.181 4.87 4.871z" fill="#9c9c9c"/><path d="m347.173 195.019h-81.542c-5.505 0-10.01-4.504-10.01-10.01v-76.354c0-5.505 4.504-10.01 10.01-10.01h81.542c5.505 0 10.01 4.504 10.01 10.01v76.354c0 5.506-4.504 10.01-10.01 10.01z" fill="#acacac"/><path d="m357.186 108.656v76.353c0 5.503-4.511 10.014-10.013 10.014h-24.786c5.502 0 10.013-4.511 10.013-10.014v-76.353c0-5.503-4.511-10.014-10.013-10.014h24.786c5.502 0 10.013 4.511 10.013 10.014z" fill="#9c9c9c"/></g><path d="m461.713 60.86v171.939c0 2.845-2.309 5.153-5.153 5.153h-20.614c2.845 0 5.153-2.309 5.153-5.153v-171.939c0-2.845-2.309-5.153-5.153-5.153h20.614c2.844-.001 5.153 2.308 5.153 5.153z" fill="#efe2dd"/></g></svg>