<?xml version="1.0" encoding="iso-8859-1"?>
<!-- Generator: Adobe Illustrator 19.0.0, SVG Export Plug-In . SVG Version: 6.00 Build 0)  -->
<svg version="1.1" id="Capa_1" xmlns="http://www.w3.org/2000/svg" xmlns:xlink="http://www.w3.org/1999/xlink" x="0px" y="0px"
	 viewBox="0 0 512 512" style="enable-background:new 0 0 512 512;" xml:space="preserve">
<path style="fill:#FFC850;" d="M406.988,512H105.012c-8.876,0-16.072-7.196-16.072-16.072V309.67h334.12v186.258
	C423.06,504.804,415.865,512,406.988,512z"/>
<path style="fill:#F9B428;" d="M109.545,495.442V309.67H88.94v185.772c0,9.145,7.413,16.558,16.558,16.558h20.605
	C116.959,512,109.545,504.587,109.545,495.442z"/>
<path style="fill:#AD7B64;" d="M317.175,181.949v79.915c10.193,0,43.083,0,53.276,0v-79.915
	C360.258,181.949,327.368,181.949,317.175,181.949z"/>
<path style="fill:#9E6B57;" d="M317.175,181.949v79.915c7.456,0,13.149,0,20.605,0v-79.915
	C330.323,181.949,324.632,181.949,317.175,181.949z"/>
<path style="fill:#707487;" d="M317.175,130.956v52.023c10.193,0,43.083,0,53.277,0v-52.023
	C354.951,141.872,332.676,141.872,317.175,130.956z"/>
<path style="fill:#5E6377;" d="M317.175,130.956v52.023h20.605v-44.217C330.413,137.845,323.27,135.249,317.175,130.956z"/>
<path style="fill:#00C3FF;" d="M204.831,0c-2.525,0-4.571,2.047-4.571,4.571v257.293c11.289,0,66.553,0,77.842,0V4.571
	c0-2.525-2.047-4.571-4.571-4.571C271.886,0,203.678,0,204.831,0z"/>
<path style="fill:#00AAF0;" d="M225.435,0h-20.604c-2.525,0-4.571,2.047-4.571,4.571v257.293h20.605V4.571
	C220.864,2.047,222.911,0,225.435,0z"/>
<rect x="123.56" y="128.17" style="fill:#9E6B57;" width="42.38" height="137.13"/>
<rect x="123.56" y="128.17" style="fill:#8C5A4B;" width="20.605" height="137.13"/>
<rect x="161.911" y="128.17" style="fill:#AD7B64;" width="38.35" height="137.13"/>
<path style="fill:#F9B428;" d="M438.098,258.013H73.902c-9.328,0-16.89,7.562-16.89,16.89v20.967c0,9.328,7.562,16.89,16.89,16.89
	h364.195c9.328,0,16.89-7.562,16.89-16.89v-20.967C454.988,265.575,447.426,258.013,438.098,258.013z"/>
<path style="fill:#E59F23;" d="M438.098,292.156H73.902c-9.328,0-16.89-7.562-16.89-16.89v-0.364v0.001v20.967
	c0,9.328,7.562,16.89,16.89,16.89h364.195c9.328,0,16.89-7.562,16.89-16.89v-20.605
	C454.988,284.594,447.426,292.156,438.098,292.156z"/>
<path style="fill:#FCE8C5;" d="M432.386,360.389H78.613c-4.267,0-7.727-3.459-7.727-7.727s3.459-7.727,7.727-7.727h353.773
	c4.267,0,7.727,3.459,7.727,7.727S436.654,360.389,432.386,360.389z"/>
<path style="fill:#E4EAF8;" d="M123.56,128.173l34.576-73.329c1.504-3.19,6.042-3.19,7.546,0l34.576,73.329H123.56z"/>
<path style="fill:#D8DCE5;" d="M165.683,54.844c-1.504-3.19-6.042-3.19-7.546,0l-34.576,73.329h20.605l28.046-59.481L165.683,54.844
	z"/>
<path style="fill:#707487;" d="M158.137,54.843l-20.403,43.271h48.352l-20.403-43.271C164.178,51.654,159.642,51.654,158.137,54.843
	z"/>
<path style="fill:#5E6377;" d="M158.137,54.844l-20.403,43.271h20.605l13.874-29.423l-6.53-13.848
	C164.18,51.658,159.644,51.65,158.137,54.844z"/>
<path style="fill:#F0A479;" d="M388.792,93.906c0-31.424-16.125-59.067-40.542-75.151c-2.691-1.773-6.184-1.773-8.875,0
	c-24.416,16.084-40.542,43.727-40.542,75.151C298.835,155.249,388.792,155.4,388.792,93.906z"/>
<path style="fill:#E59770;" d="M354.15,23.002c-1.908-1.49-3.872-2.912-5.899-4.247c-2.691-1.773-6.184-1.773-8.875,0
	c-25.712,16.938-41.733,46.277-40.473,78.701c1.272,32.756,30.474,46.535,55.247,41.341
	C302.878,128.047,312.807,55.287,354.15,23.002z"/>
<g>
	<path style="fill:#5BDDFC;" d="M278.1,201.764h-20.897c-4.267,0-7.727,3.459-7.727,7.727s3.459,7.727,7.727,7.727H278.1V201.764z"
		/>
	<path style="fill:#5BDDFC;" d="M249.477,157.119c0,4.268,3.459,7.727,7.727,7.727H278.1v-15.454h-20.897
		C252.937,149.392,249.477,152.851,249.477,157.119z"/>
	<path style="fill:#5BDDFC;" d="M249.477,104.746c0,4.268,3.459,7.727,7.727,7.727H278.1V97.019h-20.897
		C252.937,97.019,249.477,100.478,249.477,104.746z"/>
	<path style="fill:#5BDDFC;" d="M249.477,52.373c0,4.268,3.459,7.727,7.727,7.727H278.1V44.646h-20.897
		C252.937,44.646,249.477,48.105,249.477,52.373z"/>
</g>
<g>
</g>
<g>
</g>
<g>
</g>
<g>
</g>
<g>
</g>
<g>
</g>
<g>
</g>
<g>
</g>
<g>
</g>
<g>
</g>
<g>
</g>
<g>
</g>
<g>
</g>
<g>
</g>
<g>
</g>
</svg>
