<?xml version="1.0" encoding="iso-8859-1"?>
<!-- Generator: Adobe Illustrator 19.0.0, SVG Export Plug-In . SVG Version: 6.00 Build 0)  -->
<svg version="1.1" id="Capa_1" xmlns="http://www.w3.org/2000/svg" xmlns:xlink="http://www.w3.org/1999/xlink" x="0px" y="0px"
	 viewBox="0 0 511.999 511.999" style="enable-background:new 0 0 511.999 511.999;" xml:space="preserve">
<circle style="fill:#FF9300;" cx="83.45" cy="412.57" r="83.45"/>
<path style="fill:#E57E03;" d="M166.907,412.57c0,46.097-37.365,83.462-83.451,83.462c-33.19,0-61.845-19.365-75.288-47.419
	c14.291,11.48,32.447,18.342,52.193,18.342c46.086,0,83.451-37.355,83.451-83.451c0-12.906-2.934-25.13-8.153-36.032
	C154.713,362.764,166.907,386.241,166.907,412.57z"/>
<path style="fill:#E2EEFD;" d="M501.667,53.677H154.148c-5.707,0-10.333-4.626-10.333-10.333V26.302
	c0-5.707,4.626-10.333,10.333-10.333h347.518c5.707,0,10.333,4.626,10.333,10.333v17.042C512,49.051,507.374,53.677,501.667,53.677z
	"/>
<path style="fill:#00C37A;" d="M164.982,53.533l14.36,136.268c0.277,2.629,2.494,4.625,5.138,4.625h286.855
	c2.644,0,4.861-1.996,5.138-4.625l14.36-136.268C490.833,53.533,164.982,53.533,164.982,53.533z"/>
<path style="fill:#02A562;" d="M490.834,53.53L476.47,189.805c-0.279,2.625-2.49,4.619-5.135,4.619h-26.866
	c2.645,0,4.857-1.994,5.135-4.619L463.967,53.53H490.834z"/>
<path style="fill:#C7DCF2;" d="M511.996,26.301v17.04c0,5.714-4.619,10.333-10.333,10.333h-31.331V15.968h31.331
	C507.377,15.968,511.996,20.598,511.996,26.301z"/>
<path style="fill:#00C37A;" d="M216.208,384.062l9.645,82.475c0.304,2.604,2.51,4.567,5.132,4.567H424.83
	c2.621,0,4.827-1.963,5.132-4.567l9.645-82.475H216.208z"/>
<path style="fill:#02A562;" d="M439.601,384.06l-9.641,82.48c-0.3,2.604-2.511,4.567-5.136,4.567h-20.873
	c2.625,0,4.826-1.963,5.136-4.567l9.641-82.48H439.601z"/>
<path style="fill:#54F7B1;" d="M185.48,194.426l20.608,185.042c0.291,2.616,2.503,4.595,5.135,4.595h233.369
	c2.632,0,4.844-1.979,5.135-4.595l20.608-185.042L185.48,194.426L185.48,194.426z"/>
<path style="fill:#45DD98;" d="M470.332,194.424l-20.604,185.048c-0.289,2.614-2.501,4.588-5.136,4.588h-25.864
	c2.625,0,4.836-1.974,5.136-4.588l20.605-185.048L470.332,194.424L470.332,194.424z"/>
<path style="fill:#E2EEFD;" d="M327.908,471.103h-89.767l6.798,21.33c0.683,2.143,2.674,3.598,4.923,3.598h78.046h78.046
	c2.249,0,4.24-1.455,4.923-3.598l6.798-21.33H327.908z"/>
<path style="fill:#C7DCF2;" d="M417.674,471.108l-6.799,21.328c-0.682,2.139-2.676,3.596-4.918,3.596h-17.226
	c2.253,0,4.237-1.457,4.919-3.596l6.799-21.328H417.674z"/>
<g>
</g>
<g>
</g>
<g>
</g>
<g>
</g>
<g>
</g>
<g>
</g>
<g>
</g>
<g>
</g>
<g>
</g>
<g>
</g>
<g>
</g>
<g>
</g>
<g>
</g>
<g>
</g>
<g>
</g>
</svg>
