<svg height="512" viewBox="0 0 58 58" width="512" xmlns="http://www.w3.org/2000/svg"><g id="Page-1" fill="none" fill-rule="evenodd"><g id="041---Cloud-Repairs" transform="translate(-1)"><path id="Path" d="m10.68 36c-5.46411779-.1294432-9.79341435-4.655526-9.68-10.12-.11341435-5.464474 4.21588221-9.9905568 9.68-10.12h.2c.6873422-5.4498554 5.268057-9.57079588 10.76-9.68.9811476-.00053376 1.9574543.13749581 2.9.41 2.407066-3.9995745 6.7220716-6.45825636 11.39-6.49 6.8296174.12873905 12.5326645 5.24445748 13.4 12.02 5.685013 1.0997431 9.7613285 6.1203137 9.67 11.91.1313028 6.5176992-5.0328371 11.9143371-11.55 12.07z" fill="#4482c3"/><g fill="#bdc3c7"><path id="Path" d="m30 37-3.95 1.68-7.08-7.08c-2.7671003.8878001-5.797776.223647-7.94-1.74-1.41155866-1.4715842-2.1470258-3.4642292-2.03-5.5.01067826-.4521128.28805234-.8549981.70658607-1.026315.41853373-.171317.89879133-.0785502 1.22341393.236315l2.05 2.05c.2609868.2632887.6358498.3794962 1 .31l2.57-.53c.4265455-.0834557.7615024-.414472.85-.84l.53-2.58c.0694962-.3641502-.0467113-.7390132-.31-1l-2.05-2.05c-.3148652-.3246226-.407632-.8048802-.236315-1.2234139.1713169-.4185338.5742022-.6959078 1.026315-.7065861 2.0357708-.1170258 4.0284158.6184413 5.5 2.03 1.9477885 2.138756 2.603775 5.155531 1.72 7.91l3.6 3.61z"/><path id="Path" d="m37.43 40.79 2.63 2.62c2.755601-.8943431 5.7793344-.2330208 7.91 1.73 1.4073879 1.4741903 2.1421621 3.4649576 2.03 5.5-.0146408.4528185-.296486.8538184-.7175847 1.0209555s-.9012258.0685695-1.2224153-.2509555l-2.06-2.03c-.2520138-.2710486-.6284038-.3889081-.99-.31l-2.59.51c-.4201195.091741-.748259.4198805-.84.84l-.51 2.59c-.0789081.3615962.0389514.7379862.31.99l2.03 2.06c.319525.3211895.4180926.8013166.2509555 1.2224153s-.568137.7029439-1.0209555.7175847c-2.0350424.1121621-4.0258097-.6226121-5.5-2.03-1.9746685-2.1403236-2.6434137-5.1783375-1.75-7.95l-6.11-6.1 1.72-4.92z"/><path id="Path" d="m29.28 41.92-.01-.01"/><path id="Path" d="m28.71 36.03-.01.01"/></g><path id="Path" d="m31.93 39.27-2.65 2.65-9.34 9.31c-.099978.1016303-.1812253.220116-.24.35l-1.06 2.48c-.2453951.5673218-.6705753 1.0381825-1.21 1.34l-4.47 2.48c-.3646572.1980761-.8161284.1329992-1.11-.16l-1.64-1.64c-.29545463-.2844391-.36124715-.7326506-.16-1.09l2.49-4.47c.2920692-.5434411.7614438-.9704661 1.33-1.21l2.49-1.07c.131895-.0551436.2510321-.1368377.35-.24l9.34-9.32 2.65-2.64 2.417.917z" fill="#95a5a5"/><path id="Path" d="m31.94 39.26-.01.01" fill="#bdc3c7"/><path id="Path" d="m50.28 27.98-8.03 8.02-.38.38c-.3100824.342106-.7972279.460922-1.23.3-.8747197-.3445393-1.8704498-.138263-2.5363047.525423-.6658549.6636861-.8753788 1.6587378-.5336953 2.534577.1446884.3464959.0911648.7440997-.14 1.04v.01c-.06.07-.11.13-.16.18l-.2.2c-.8139819.8815412-2.1842089.948273-3.08.15l-2.06-2.05-3.23-3.23-2.06-2.05c-.8054412-.8932467-.7384282-2.269247.15-3.08l.2-.2c.0586798-.0586267.1222425-.1121532.19-.16h.01c.2962295-.2211369.6854931-.2740465 1.03-.14.8747197.3445393 1.8704498.138263 2.5363047-.525423.6658549-.6636861.8753788-1.6587378.5336953-2.534577-.1620843-.4327035-.0431062-.9205137.3-1.23l8.41-8.4c.5675662-.5823142 1.3966538-.8283905 2.19-.65 2.0723054.5980438 3.9425785 1.749247 5.41 3.33 1.5801857 1.465655 2.7343086 3.3316022 3.34 5.4.1805182.7922342-.0703712 1.6209295-.66 2.18z" fill="#f29c1f"/><path id="Path" d="m36.044 29.711c-.406161.0015497-.7729127-.2427223-.9280229-.6181022-.1551102-.3753798-.0677627-.8072895.2210229-1.0928978l5.1-5.089c.252944-.2524082.6213321-.3506989.966396-.257847s.6143802.36274.7065.708c.0921199.3452601-.0069519.7134389-.259896.965847l-5.1 5.089c-.18692.1880383-.4408646.2941483-.706.295z" fill="#e57e25"/><path id="Path" d="m39.273 32.935c-.4046536-.000086-.7693712-.2440332-.9239494-.6179987-.1545782-.3739654-.0685454-.8042299.2179494-1.0900013l5.1-5.089c.3910176-.3901891 1.0243108-.3895175 1.4145.0015.3901891.3910176.3895176 1.0243108-.0015 1.4145l-5.1 5.089c-.1876563.1871827-.4419486.2922087-.707.292z" fill="#e57e25"/></g></g></svg>