<svg id="Capa_1" enable-background="new 0 0 512 512" height="512" viewBox="0 0 512 512" width="512" xmlns="http://www.w3.org/2000/svg"><g><path d="m168.435 379.622c-11.379 0-20.604 9.225-20.604 20.604v70.19c0 22.967 16.143 41.585 36.056 41.585 19.913 0 36.056-18.618 36.056-41.585.001 22.966 16.144 41.584 36.057 41.584 19.913 0 36.056-18.618 36.056-41.585 0 22.967 16.143 41.585 36.056 41.585 19.913 0 36.056-18.618 36.056-41.585v-70.19c0-11.379-9.225-20.604-20.604-20.604l-7.815-10h-159.5z" fill="#8ac9fe"/><path d="m199.34 400.225v70.186c0 11.332 3.935 21.603 10.302 29.113-.082.103-.175.196-.258.299-6.521 7.52-15.545 12.177-25.497 12.177-19.913 0-36.056-18.615-36.056-41.589v-70.186c0-11.384 9.22-20.604 20.604-20.604h51.509c-11.384.001-20.604 9.221-20.604 20.604z" fill="#60b7ff"/><path d="m364.17 235.4v-45.35c0-13.68-4.54-26.98-12.91-37.8l-39.58-37.82c-12.2-11.66-19.11-27.81-19.11-44.69v-31.66h-73.14v31.66c0 16.88-6.91 33.03-19.11 44.69l-39.58 37.82c-8.37 10.82-12.91 24.12-12.91 37.8v45.35c0 11.38 9.23 20.6 20.6 20.6h-.6c-11.04 0-20 8.95-20 20v21.81c0 11.05 8.96 20 20 20h-.11c-10.99.06-19.89 9-19.89 20v21.81c0 11.05 8.96 20 20 20h176.34c11.04 0 20-8.95 20-20v-21.81c0-11.04-8.96-20-20-20 11.04 0 20-8.95 20-20v-21.81c0-11.05-8.96-20-20-20h-.6c11.37 0 20.6-9.22 20.6-20.6z" fill="#ecf6fe"/><g fill="#dbebfc"><path d="m219.94 379.62h-52.11c-11.04 0-20-8.95-20-20v-21.81c0-11 8.9-19.94 19.89-20h52.22c-11.38 0-20.6 9.22-20.6 20.6v20.61c0 11.38 9.22 20.6 20.6 20.6z"/><path d="m219.94 317.81h-52.11c-11.04 0-20-8.95-20-20v-21.81c0-11.05 8.96-20 20-20h52.11c-11.38 0-20.6 9.22-20.6 20.6v20.61c0 11.38 9.22 20.6 20.6 20.6z"/><path d="m270.94 48.09v21.64c0 16.89-6.9 33.04-19.11 44.7l-39.58 37.82c-8.37 10.82-12.91 24.12-12.91 37.8v45.35c0 11.38 9.22 20.6 20.6 20.6h-51.51c-11.37 0-20.6-9.22-20.6-20.6v-45.35c0-13.68 4.54-26.98 12.91-37.8l39.58-37.82c12.2-11.66 19.11-27.81 19.11-44.69v-21.65z"/></g><path d="m300.085 48.085h-88.169c-5.523 0-10-4.477-10-10v-28.085c0-5.523 4.477-10 10-10h88.169c5.523 0 10 4.477 10 10v28.085c0 5.522-4.478 10-10 10z" fill="#8ac9fe"/><path d="m263.726 48.089h-51.509c-5.687 0-10.302-4.615-10.302-10.302v-27.485c0-5.687 4.616-10.302 10.302-10.302h51.509c-5.687 0-10.302 4.615-10.302 10.302v27.485c.001 5.687 4.616 10.302 10.302 10.302z" fill="#60b7ff"/></g></svg>