<?xml version="1.0" encoding="iso-8859-1"?>
<!-- Generator: Adobe Illustrator 19.0.0, SVG Export Plug-In . SVG Version: 6.00 Build 0)  -->
<svg version="1.1" id="Capa_1" xmlns="http://www.w3.org/2000/svg" xmlns:xlink="http://www.w3.org/1999/xlink" x="0px" y="0px"
	 viewBox="0 0 512.64 512.64" style="enable-background:new 0 0 512.64 512.64;" xml:space="preserve">
<polygon style="fill:#ED6362;" points="268.152,470.896 268.152,361.904 244.504,361.904 244.504,470.896 135.496,470.896 
	135.496,494.544 377.16,494.544 377.16,470.896 "/>
<path style="fill:#F3F3F3;" d="M410.088,138.272c3.312-10.256,5.152-21.184,5.152-32.544c0-58.384-47.328-105.712-105.712-105.712
	c-35.472,0-66.784,17.52-85.952,44.32c-9.472-3.12-19.408-5.216-29.936-5.216c-53.264,0-96.432,43.168-96.432,96.432
	c0,1.456,0.368,2.816,0.432,4.256c-30.048,10.096-51.856,38.176-51.856,71.632c0,41.904,33.968,75.888,75.888,75.888h269.296
	c41.904,0,75.888-33.968,75.888-75.888C466.856,176.16,442.68,146.768,410.088,138.272z"/>
<path style="fill:#E5E5E5;" d="M319.72,10.192c26.592,0,50.832,9.904,69.408,26.112C369.752,14.096,341.32,0,309.528,0
	c-35.36,0-66.56,17.424-85.76,44.08c-9.456-3.184-19.568-4.976-30.128-4.976c-53.264,0-96.432,43.168-96.432,96.432
	c0,29.232,13.28,55.104,33.824,72.784c-14.528-16.88-23.632-38.576-23.632-62.608c0-53.264,43.168-96.432,96.432-96.432
	c24.032,0,45.728,9.104,62.608,23.632c-8.128-9.456-18.064-17.264-29.2-23.056C256.6,25.712,286.328,10.192,319.72,10.192z"/>
<rect x="114.104" y="257.728" style="fill:#383938;" width="284.448" height="131.616"/>
<g>
	<path style="fill:#464646;" d="M421.064,306.96H91.592c-8.832,0-16,7.168-16,16v66.016c0,8.832,7.168,16,16,16h329.472
		c8.832,0,16-7.168,16-16V322.96C437.064,314.112,429.896,306.96,421.064,306.96z"/>
	<path style="fill:#464646;" d="M421.064,194.032H91.592c-8.832,0-16,7.168-16,16v66.016c0,8.832,7.168,16,16,16h329.472
		c8.832,0,16-7.168,16-16v-66.016C437.064,201.2,429.896,194.032,421.064,194.032z"/>
</g>
<g>
	<path style="fill:#4B9FD8;" d="M383.336,262.496h-84.88c-10.368,0-18.768-8.4-18.768-18.768v-1.376
		c0-10.368,8.4-18.768,18.768-18.768h84.88c10.368,0,18.768,8.4,18.768,18.768v1.376
		C402.104,254.096,393.704,262.496,383.336,262.496z"/>
	<path style="fill:#4B9FD8;" d="M383.336,375.424h-84.88c-10.368,0-18.768-8.4-18.768-18.768v-1.376
		c0-10.368,8.4-18.768,18.768-18.768h84.88c10.368,0,18.768,8.4,18.768,18.768v1.376
		C402.104,367.008,393.704,375.424,383.336,375.424z"/>
</g>
<rect x="226.408" y="452.928" style="fill:#CD494C;" width="59.712" height="59.712"/>
<g>
	<path style="fill:#525252;" d="M249.416,276.08c-0.384,9.216-8.704,15.968-17.792,15.968H91.592c-8.832,0-16-7.168-16-16v-66.016
		c0-8.832,7.168-16,16-16h112.656c9.744,0,17.392,8.048,17.008,17.792c-0.512,9.088-8.704,15.968-17.92,15.968H189.32
		c-8.048,0-14.144,6.88-14.144,15.056c0,0.128,0,0.128,0,0.256v0.128c0,8.176,6.096,15.056,14.144,15.056h43.232
		C242.28,258.288,249.944,266.336,249.416,276.08z"/>
	<path style="fill:#525252;" d="M249.416,388.992c-0.384,9.216-8.704,15.968-17.792,15.968H91.592c-8.832,0-16-7.168-16-16v-66.016
		c0-8.832,7.168-16,16-16h112.656c9.744,0,17.392,8.048,17.008,17.792c-0.512,9.088-8.704,15.968-17.92,15.968H189.32
		c-8.048,0-14.144,6.88-14.144,15.056c0,0.128,0,0.128,0,0.256v0.128c0,8.176,6.096,15.056,14.144,15.056h43.232
		C242.28,371.216,249.944,379.264,249.416,388.992z"/>
</g>
<g>
	<path style="fill:#FDBC4B;" d="M130.76,375.424h-1.376c-10.368,0-18.768-8.4-18.768-18.768v-1.376
		c0-10.368,8.4-18.768,18.768-18.768h1.376c10.368,0,18.768,8.4,18.768,18.768v1.376
		C149.528,367.008,141.128,375.424,130.76,375.424z"/>
	<path style="fill:#FDBC4B;" d="M130.696,262.496h-1.376c-10.368,0-18.768-8.4-18.768-18.768v-1.376
		c0-10.368,8.4-18.768,18.768-18.768h1.376c10.368,0,18.768,8.4,18.768,18.768v1.376
		C149.464,254.096,141.064,262.496,130.696,262.496z"/>
</g>
<g>
</g>
<g>
</g>
<g>
</g>
<g>
</g>
<g>
</g>
<g>
</g>
<g>
</g>
<g>
</g>
<g>
</g>
<g>
</g>
<g>
</g>
<g>
</g>
<g>
</g>
<g>
</g>
<g>
</g>
</svg>
