<?xml version="1.0" encoding="iso-8859-1"?>
<!-- Generator: Adobe Illustrator 19.0.0, SVG Export Plug-In . SVG Version: 6.00 Build 0)  -->
<svg xmlns="http://www.w3.org/2000/svg" xmlns:xlink="http://www.w3.org/1999/xlink" version="1.1" id="Layer_1" x="0px" y="0px" viewBox="0 0 512 512" style="enable-background:new 0 0 512 512;" xml:space="preserve">
<g>
	<path style="fill:#8AD7F8;" d="M198.4,412.8c0,54.4-44.8,99.2-99.2,99.2S0,467.2,0,412.8S99.2,240,99.2,240   S198.4,358.4,198.4,412.8z"/>
	<path style="fill:#8AD7F8;" d="M216.533,105.6c0,34.133-27.733,60.8-60.8,60.8s-60.8-27.733-60.8-60.8S155.733,0,155.733,0   S216.533,72.533,216.533,105.6z"/>
	<path style="fill:#8AD7F8;" d="M512,260.267C512,342.4,444.8,409.6,362.667,409.6s-149.333-67.2-149.333-149.333   S362.667,0,362.667,0S512,178.133,512,260.267z"/>
</g>
<polygon style="fill:#FFFFFF;" points="332.8,330.667 362.667,257.067 311.467,257.067 392.533,148.267 362.667,222.933   413.867,222.933 "/>
<g>
</g>
<g>
</g>
<g>
</g>
<g>
</g>
<g>
</g>
<g>
</g>
<g>
</g>
<g>
</g>
<g>
</g>
<g>
</g>
<g>
</g>
<g>
</g>
<g>
</g>
<g>
</g>
<g>
</g>
</svg>
