<svg id="Capa_1" enable-background="new 0 0 511.161 511.161" height="512" viewBox="0 0 511.161 511.161" width="512" xmlns="http://www.w3.org/2000/svg"><g><path d="m119.25 255.837c0-75.293 61.037-136.33 136.33-136.33s136.33 61.037 136.33 136.33z" fill="#fef48b"/><path d="m391.915 255.834h-20.081c0-71.912-55.682-130.819-126.289-135.955 3.307-.247 6.656-.37 10.035-.37 75.291 0 136.335 61.034 136.335 136.325z" fill="#fef056"/><g><path d="m255.58 84.648c-4.255 0-7.704-3.449-7.704-7.704v-66.669c0-4.255 3.449-7.704 7.704-7.704s7.704 3.449 7.704 7.704v66.669c0 4.256-3.449 7.704-7.704 7.704z" fill="#fef056"/></g><g><g><path d="m151.371 122.579c-2.199 0-4.381-.936-5.905-2.751l-42.854-51.071c-2.735-3.26-2.31-8.119.949-10.853s8.119-2.309 10.853.949l42.854 51.071c2.735 3.26 2.31 8.119-.949 10.853-1.444 1.21-3.201 1.802-4.948 1.802z" fill="#fef056"/></g></g><g><g><path d="m95.924 218.625c-.444 0-.894-.038-1.347-.118l-65.656-11.577c-4.19-.738-6.988-4.734-6.249-8.924s4.739-6.988 8.924-6.248l65.657 11.577c4.19.738 6.988 4.734 6.249 8.924-.659 3.736-3.91 6.366-7.578 6.366z" fill="#fef056"/></g></g><g><g><path d="m415.236 218.625c-3.668 0-6.919-2.629-7.578-6.367-.739-4.191 2.059-8.186 6.249-8.924l65.657-11.577c4.192-.737 8.186 2.058 8.924 6.248.739 4.191-2.059 8.186-6.249 8.924l-65.657 11.577c-.452.081-.902.119-1.346.119z" fill="#fef056"/></g></g><g><g><path d="m359.79 122.579c-1.747 0-3.504-.591-4.948-1.803-3.26-2.734-3.684-7.593-.949-10.853l42.854-51.071c2.734-3.259 7.592-3.685 10.853-.949 3.26 2.734 3.684 7.593.949 10.853l-42.854 51.071c-1.523 1.816-3.707 2.752-5.905 2.752z" fill="#fef056"/></g></g><g><g><g><path d="m200.13 94.428c-3.147 0-6.101-1.943-7.24-5.071l-9.099-24.999c-1.455-3.998.606-8.419 4.604-9.874 4-1.453 8.419.607 9.874 4.604l9.099 24.999c1.455 3.998-.606 8.419-4.604 9.874-.87.317-1.76.467-2.634.467z" fill="#fef056"/></g></g></g><g><g><g><path d="m115.166 165.714c-1.307 0-2.632-.333-3.845-1.033l-23.039-13.302c-3.685-2.128-4.947-6.839-2.82-10.523 2.127-3.685 6.839-4.946 10.523-2.82l23.039 13.302c3.685 2.128 4.947 6.839 2.82 10.523-1.426 2.472-4.016 3.853-6.678 3.853z" fill="#fef056"/></g></g></g><g><g><g><path d="m395.994 165.714c-2.662 0-5.252-1.381-6.679-3.853-2.128-3.684-.865-8.396 2.82-10.523l23.039-13.302c3.684-2.126 8.396-.866 10.523 2.82 2.128 3.684.865 8.396-2.82 10.523l-23.039 13.302c-1.212.7-2.537 1.033-3.844 1.033z" fill="#fef056"/></g></g></g><g><g><g><path d="m311.031 94.428c-.875 0-1.764-.15-2.635-.466-3.998-1.455-6.059-5.876-4.604-9.874l9.099-24.999c1.455-3.997 5.877-6.056 9.874-4.604 3.998 1.455 6.059 5.876 4.604 9.874l-9.099 24.999c-1.138 3.127-4.093 5.07-7.239 5.07z" fill="#fef056"/></g></g></g><path d="m511.161 280.746c-31.95 0-31.95 18.489-63.899 18.489s-31.95-18.489-63.899-18.489c-31.948 0-31.948 18.489-63.896 18.489-31.947 0-31.947-18.489-63.894-18.489-31.946 0-31.946 18.489-63.891 18.489-31.947 0-31.947-18.489-63.894-18.489s-31.947 18.489-63.895 18.489c-31.946 0-31.946-18.489-63.892-18.489v-45.079c31.946 0 31.946 18.489 63.892 18.489 31.947 0 31.947-18.489 63.895-18.489 31.947 0 31.947 18.489 63.894 18.489 31.946 0 31.946-18.489 63.891-18.489 31.947 0 31.947 18.489 63.894 18.489 31.948 0 31.948-18.489 63.896-18.489 31.95 0 31.95 18.489 63.899 18.489s31.95-18.489 63.899-18.489z" fill="#c8effe"/><path d="m511.161 320.289c-31.95 0-31.95 18.489-63.899 18.489s-31.95-18.489-63.899-18.489c-31.948 0-31.948 18.489-63.896 18.489-31.947 0-31.947-18.489-63.894-18.489-31.946 0-31.946 18.489-63.891 18.489-31.947 0-31.947-18.489-63.894-18.489s-31.947 18.489-63.895 18.489c-31.946 0-31.946-18.489-63.892-18.489v-41.598c31.946 0 31.946 18.489 63.892 18.489 31.947 0 31.947-18.489 63.895-18.489 31.947 0 31.947 18.489 63.894 18.489 31.946 0 31.946-18.489 63.891-18.489 31.947 0 31.947 18.489 63.894 18.489 31.948 0 31.948-18.489 63.896-18.489 31.95 0 31.95 18.489 63.899 18.489s31.95-18.489 63.899-18.489z" fill="#b3dafe"/><path d="m511.161 362.846c-31.95 0-31.95 18.489-63.899 18.489s-31.95-18.489-63.899-18.489c-31.948 0-31.948 18.489-63.896 18.489-31.947 0-31.947-18.489-63.894-18.489-31.946 0-31.946 18.489-63.891 18.489-31.947 0-31.947-18.489-63.894-18.489s-31.947 18.489-63.895 18.489c-31.946 0-31.946-18.489-63.892-18.489v-45.078c31.946 0 31.946 18.489 63.892 18.489 31.947 0 31.947-18.489 63.895-18.489 31.947 0 31.947 18.489 63.894 18.489 31.946 0 31.946-18.489 63.891-18.489 31.947 0 31.947 18.489 63.894 18.489 31.948 0 31.948-18.489 63.896-18.489 31.95 0 31.95 18.489 63.899 18.489s31.95-18.489 63.899-18.489z" fill="#c8effe"/><path d="m511.161 508.589v-147.487c-31.95 0-31.95 18.489-63.899 18.489s-31.95-18.489-63.899-18.489c-31.948 0-31.948 18.489-63.896 18.489-31.947 0-31.947-18.489-63.894-18.489-31.946 0-31.946 18.489-63.891 18.489-31.947 0-31.947-18.489-63.894-18.489s-31.947 18.489-63.895 18.489c-31.946 0-31.946-18.489-63.892-18.489v147.487z" fill="#b3dafe"/></g></svg>