<?xml version="1.0" encoding="iso-8859-1"?>
<!-- Generator: Adobe Illustrator 19.0.0, SVG Export Plug-In . SVG Version: 6.00 Build 0)  -->
<svg version="1.1" id="Capa_1" xmlns="http://www.w3.org/2000/svg" xmlns:xlink="http://www.w3.org/1999/xlink" x="0px" y="0px"
	 viewBox="0 0 512 512" style="enable-background:new 0 0 512 512;" xml:space="preserve">
<path style="fill:#8CC63F;" d="M22.296,40.816h146.357v219.266c0,8.922,7.299,16.221,16.221,16.221H388.99v58.507
	c0,8.002,10.234,11.337,14.949,4.871l46.203-63.378h21.79v120.525c0,12.263-10.033,22.296-22.296,22.296H178.318
	c-5.103,0-9.24,4.137-9.24,9.24v71.178c0,11-14.068,15.583-20.547,6.695l-59.556-81.693c-2.483-3.406-6.444-5.42-10.659-5.42h-56.02
	C10.033,419.124,0,409.091,0,396.828V63.112C0,50.849,10.033,40.816,22.296,40.816z"/>
<g>
	<path style="fill:#79AA2D;" d="M352.483,353.591H62.949c-4.267,0-7.727-3.459-7.727-7.727s3.459-7.727,7.727-7.727h289.534
		c4.267,0,7.727,3.459,7.727,7.727S356.75,353.591,352.483,353.591z"/>
	<path style="fill:#79AA2D;" d="M196.437,235.671H62.949c-4.267,0-7.727-3.459-7.727-7.727c0-4.267,3.459-7.727,7.727-7.727h133.488
		c4.267,0,7.727,3.459,7.727,7.727C204.164,232.211,200.704,235.671,196.437,235.671z"/>
	<path style="fill:#79AA2D;" d="M202.254,274.978H62.949c-4.267,0-7.727-3.459-7.727-7.727s3.459-7.727,7.727-7.727h139.305
		c4.267,0,7.727,3.46,7.727,7.727S206.521,274.978,202.254,274.978z"/>
	<path style="fill:#79AA2D;" d="M352.483,314.284H62.949c-4.267,0-7.727-3.459-7.727-7.727s3.459-7.727,7.727-7.727h289.534
		c4.267,0,7.727,3.459,7.727,7.727S356.75,314.284,352.483,314.284z"/>
	<path style="fill:#79AA2D;" d="M196.437,196.364H62.949c-4.267,0-7.727-3.459-7.727-7.727c0-4.267,3.459-7.727,7.727-7.727h133.488
		c4.267,0,7.727,3.459,7.727,7.727C204.164,192.904,200.704,196.364,196.437,196.364z"/>
	<path style="fill:#79AA2D;" d="M196.437,157.057H62.949c-4.267,0-7.727-3.459-7.727-7.727c0-4.267,3.459-7.727,7.727-7.727h133.488
		c4.267,0,7.727,3.459,7.727,7.727C204.164,153.598,200.704,157.057,196.437,157.057z"/>
	<path style="fill:#79AA2D;" d="M196.437,117.75H62.949c-4.267,0-7.727-3.459-7.727-7.727c0-4.267,3.459-7.727,7.727-7.727h133.488
		c4.267,0,7.727,3.459,7.727,7.727C204.164,114.291,200.704,117.75,196.437,117.75z"/>
</g>
<path style="fill:#5DA3E2;" d="M184.874,1.071h310.905c8.922,0,16.221,7.3,16.221,16.221v242.79c0,8.922-7.299,16.221-16.221,16.221
	h-41.856c-2.376,0-4.608,1.135-6.008,3.055l-43.977,60.323c-4.714,6.467-14.949,3.132-14.949-4.871v-53.682
	c0-2.665-2.16-4.826-4.826-4.826h-199.29c-8.922,0-16.221-7.299-16.221-16.221V17.292C168.653,8.371,175.952,1.071,184.874,1.071z"
	/>
<g>
	<path style="fill:#79AA2D;" d="M410.024,334.811c0,8.002,10.235,11.337,14.949,4.871l46.203-63.378h-21.034l-40.118,55.031V334.811
		z"/>
	<path style="fill:#79AA2D;" d="M110.009,424.545c-2.483-3.406-6.444-5.42-10.659-5.42H78.316c4.215,0,8.176,2.014,10.659,5.42
		l59.556,81.693c5.457,7.485,16.295,5.415,19.58-1.995L110.009,424.545z"/>
	<path style="fill:#79AA2D;" d="M21.034,396.828V63.112c0-12.263,10.033-22.296,22.296-22.296H22.296
		C10.033,40.816,0,50.849,0,63.112v333.716c0,12.263,10.033,22.296,22.296,22.296H43.33
		C31.067,419.124,21.034,409.091,21.034,396.828z"/>
</g>
<g>
	<path style="fill:#4887CC;" d="M189.687,260.082V17.292c0-8.922,7.299-16.221,16.221-16.221h-21.034
		c-8.922,0-16.221,7.3-16.221,16.221v242.79c0,8.922,7.3,16.221,16.221,16.221h21.034
		C196.986,276.303,189.687,269.004,189.687,260.082z"/>
	<path style="fill:#4887CC;" d="M410.024,281.129c0-2.665-2.16-4.826-4.826-4.826h-21.034c2.665,0,4.826,2.161,4.826,4.826v53.682
		c0,8.003,10.235,11.337,14.949,4.871l6.085-8.347V281.129z"/>
	<circle style="fill:#4887CC;" cx="237.96" cy="142.29" r="17.325"/>
	<circle style="fill:#4887CC;" cx="306.2" cy="142.29" r="17.325"/>
	<circle style="fill:#4887CC;" cx="374.45" cy="142.29" r="17.325"/>
	<circle style="fill:#4887CC;" cx="442.7" cy="142.29" r="17.325"/>
</g>
<g>
	<path style="fill:#2C75B7;" d="M241.236,142.288c0-5.704,2.769-10.748,7.022-13.905c-2.882-2.139-6.438-3.419-10.302-3.419
		c-9.568,0-17.325,7.757-17.325,17.325s7.757,17.325,17.325,17.325c3.864,0,7.421-1.281,10.302-3.419
		C244.004,153.037,241.236,147.992,241.236,142.288z"/>
	<path style="fill:#2C75B7;" d="M309.483,142.288c0-5.704,2.769-10.748,7.022-13.905c-2.882-2.139-6.438-3.419-10.302-3.419
		c-9.568,0-17.325,7.757-17.325,17.325s7.757,17.325,17.325,17.325c3.864,0,7.421-1.281,10.302-3.419
		C312.252,153.037,309.483,147.992,309.483,142.288z"/>
	<path style="fill:#2C75B7;" d="M377.73,142.288c0-5.704,2.769-10.748,7.022-13.905c-2.882-2.139-6.438-3.419-10.302-3.419
		c-9.568,0-17.325,7.757-17.325,17.325s7.757,17.325,17.325,17.325c3.864,0,7.421-1.281,10.302-3.419
		C380.499,153.037,377.73,147.992,377.73,142.288z"/>
	<path style="fill:#2C75B7;" d="M445.977,142.288c0-5.704,2.769-10.748,7.022-13.905c-2.882-2.139-6.438-3.419-10.302-3.419
		c-9.568,0-17.325,7.757-17.325,17.325s7.757,17.325,17.325,17.325c3.864,0,7.421-1.281,10.302-3.419
		C448.746,153.037,445.977,147.992,445.977,142.288z"/>
</g>
<g>
</g>
<g>
</g>
<g>
</g>
<g>
</g>
<g>
</g>
<g>
</g>
<g>
</g>
<g>
</g>
<g>
</g>
<g>
</g>
<g>
</g>
<g>
</g>
<g>
</g>
<g>
</g>
<g>
</g>
</svg>
