<svg height="512pt" viewBox="0 -76 512 512" width="512pt" xmlns="http://www.w3.org/2000/svg"><path d="m27.101562 0h457.796876v278.75h-457.796876zm0 0" fill="#e0e4fa"/><path d="m256 0h228.898438v278.75h-228.898438zm0 0" fill="#c4c9f7"/><path d="m512 263.75v53.761719c0 23.136719-18.828125 41.96875-41.980469 41.96875h-428.039062c-23.152344 0-41.980469-18.832031-41.980469-41.96875v-53.761719h230v10.25h52v-10.25zm0 0" fill="#0087ff"/><path d="m512 263.75v53.761719c0 23.136719-18.828125 41.96875-41.980469 41.96875h-214.019531v-85.480469h26v-10.25zm0 0" fill="#4b5be4"/><path d="m425.421875 82.761719v103.976562h-259.582031l-79.261719-51.988281 79.261719-51.988281zm0 0" fill="#ff623f"/><path d="m165.839844 186.738281-52.199219-34.234375-3.054687-2.011718-24.007813-15.746094 25.625-16.800782 25.039063-16.425781 25.625-16.800781 2.972656-1.953125zm0 0" fill="#ffdba9"/><path d="m109.421875 119.769531-22.835937 14.976563 22.835937 14.980468zm0 0" fill="#78777f"/><path d="m256 82.761719h169.421875v103.976562h-169.421875zm0 0" fill="#e70020"/><path d="m350.703125 82.761719h74.71875v103.976562h-74.71875zm0 0" fill="#fec000"/></svg>