<svg id="Layer_1" enable-background="new 0 0 512 512" height="512" viewBox="0 0 512 512" width="512" xmlns="http://www.w3.org/2000/svg"><g><g><path d="m192.104 389.941c-7.653-.844-13.294-7.6-13.294-15.3v-61.167c0-7.7 5.641-14.455 13.294-15.3 9.048-.998 16.706 6.059 16.706 14.906v61.955c0 8.846-7.658 15.904-16.706 14.906z" fill="#004960"/></g><path d="m252.008 508.928c-102.019 0-184.721-82.702-184.721-184.721 0-6.588 5.34-11.928 11.928-11.928 102.019 0 184.721 82.702 184.721 184.721 0 6.588-5.341 11.928-11.928 11.928z" fill="#bee75e"/><g><path d="m252.008 512c-3.839 0-7.678-1.465-10.606-4.394l-86.397-86.396c-6.255-6.255-5.831-16.661 1.274-22.353 6.009-4.814 14.774-4.025 20.219 1.419l86.118 86.117c5.858 5.857 5.858 15.355 0 21.213-2.93 2.929-6.769 4.394-10.608 4.394z" fill="#00da80"/></g><g><g><path d="m256 495.787c-8.99 0-16.279 11.945-16.279 2.955v-357.926c0-8.356 6.121-15.687 14.427-16.604 9.819-1.083 18.13 6.576 18.13 16.176v339.121c.001 8.99-7.287 16.278-16.278 16.278z" fill="#00c6cb"/></g><path d="m295.277 61.82c-4.28-22.486-15.998-40.713-33.482-59.288-3.151-3.347-8.49-3.366-11.625-.003-17.211 18.465-28.303 36.899-32.139 59.486-.077.455-.114.918-.114 1.38v61.091c0 3.303 2.053 6.257 5.148 7.41l28.715 10.688c2.616.974 5.552.496 7.724-1.258l38.672-31.219c2.163-1.746 3.25-4.499 2.863-7.251z" fill="#bee75e"/><path d="m256 144.155c0-81.247-46.773-111.855-106.1-114.47-4.695-.207-8.586 3.721-8.239 8.407 4.395 59.309 53.907 106.063 114.339 106.063 60.433 0 109.945-46.755 114.338-106.065.347-4.685-3.541-8.612-8.234-8.407-59.329 2.579-106.104 32.834-106.104 114.472" fill="#00da80"/><path d="m272.279 479.509v-339.121c0-8.99-7.288-16.279-16.279-16.279v371.678c8.991 0 16.279-7.288 16.279-16.278z" fill="#00b4bc"/><path d="m295.276 61.818c-4.283-22.501-16.013-40.737-33.516-59.325-1.562-1.659-3.66-2.488-5.76-2.493v142.932c1.262-.238 2.47-.774 3.503-1.608l38.672-31.219c2.163-1.746 3.25-4.499 2.863-7.251z" fill="#00da80"/><path d="m256 277.329c0-81.638 46.775-111.892 106.104-114.472 4.693-.204 8.581 3.723 8.234 8.407-4.393 59.31-53.905 106.065-114.338 106.065-60.432 0-109.944-46.753-114.338-106.062-.347-4.687 3.544-8.614 8.239-8.407 59.326 2.613 106.099 33.222 106.099 114.469" fill="#00da80"/><g fill="#00b4bc"><path d="m362.104 162.856c-59.316 2.58-106.084 32.822-106.104 114.421v.051c60.433 0 109.945-46.755 114.338-106.065.347-4.684-3.541-8.611-8.234-8.407z"/><path d="m362.104 29.682c-59.316 2.58-106.084 32.822-106.104 114.421v.051c60.433 0 109.945-46.755 114.338-106.065.347-4.684-3.541-8.611-8.234-8.407z"/></g></g><path d="m474.935 400.18v-93.115c.001-7.732-6.267-14-13.999-13.999h-93.116c-61.756 0-111.82 50.064-111.82 111.82v93.115c0 3.866 1.567 7.366 4.1 9.899 1.984 1.984 8.284-2.774 11.166-2.264.797.141 2.659.716 3.497.716l2.6 5.648h85.751c61.659 0 111.821-50.162 111.821-111.82z" fill="#00da80"/><g><path d="m415.278 410.73c-.851-7.707-7.655-13.388-15.409-13.387h-7.849l32.63-32.63c.737-.737 1.383-1.532 1.936-2.37.686-1.039 1.213-2.15 1.616-3.294.571-1.622.873-3.318.873-5.018 0-3.161-1.003-6.314-2.976-8.975-.439-.593-.911-1.169-1.448-1.707-5.899-5.899-15.464-5.899-21.363 0l-32.627 32.627v-20.438c.001-8.909-7.712-16.017-16.824-15.01-7.707.851-13.388 7.655-13.388 15.409v50.251l-84.449 84.825v6.988c0 3.866 1.567 7.366 4.1 9.899 2.217 2.217 7.282-2.093 10.576-1.759.471.048 1.075 1.896 1.559 1.896l5.128 3.963 84.445-84.445h38.459c8.91-.001 16.017-7.713 15.011-16.825z" fill="#00b4bc"/></g><g><path d="m467.529 512h-422.664c-7.7 0-14.455-5.641-15.3-13.294-.998-9.048 6.06-16.706 14.906-16.706h422.664c7.7 0 14.455 5.641 15.3 13.294.998 9.048-6.06 16.706-14.906 16.706z" fill="#08475e"/></g><path d="m467.135 482h-211.135v30h211.529c8.846 0 15.904-7.658 14.906-16.706-.845-7.653-7.6-13.294-15.3-13.294z" fill="#05303d"/></g></svg>