<?xml version="1.0" encoding="iso-8859-1"?>
<!-- Generator: Adobe Illustrator 19.0.0, SVG Export Plug-In . SVG Version: 6.00 Build 0)  -->
<svg version="1.1" id="Capa_1" xmlns="http://www.w3.org/2000/svg" xmlns:xlink="http://www.w3.org/1999/xlink" x="0px" y="0px"
	 viewBox="0 0 468.293 468.293" style="enable-background:new 0 0 468.293 468.293;" xml:space="preserve">
<path style="fill:#44C4A1;" d="M407.817,468.293H89.378c-6.897,0-12.488-5.591-12.488-12.488V12.488C76.891,5.591,82.482,0,89.378,0
	h318.439c3.448,0,6.244,2.795,6.244,6.244v455.805C414.061,465.497,411.266,468.293,407.817,468.293z"/>
<path style="fill:#3EA69B;" d="M106.499,468.293H89.378c-6.897,0-12.488-5.591-12.488-12.488V12.488C76.891,5.591,82.482,0,89.378,0
	h17.121V468.293z"/>
<g>
	<path style="fill:#E1E6E9;" d="M116.67,77.322H66.719c-6.897,0-12.488-5.591-12.488-12.488v0c0-6.897,5.591-12.488,12.488-12.488
		h49.951c6.897,0,12.488,5.591,12.488,12.488v0C129.158,71.731,123.567,77.322,116.67,77.322z"/>
	<path style="fill:#E1E6E9;" d="M116.67,145.047H66.719c-6.897,0-12.488-5.591-12.488-12.488v0c0-6.897,5.591-12.488,12.488-12.488
		h49.951c6.897,0,12.488,5.591,12.488,12.488v0C129.158,139.456,123.567,145.047,116.67,145.047z"/>
	<path style="fill:#E1E6E9;" d="M116.67,212.772H66.719c-6.897,0-12.488-5.591-12.488-12.488v0c0-6.897,5.591-12.488,12.488-12.488
		h49.951c6.897,0,12.488,5.591,12.488,12.488v0C129.158,207.181,123.567,212.772,116.67,212.772z"/>
	<path style="fill:#E1E6E9;" d="M116.67,280.497H66.719c-6.897,0-12.488-5.591-12.488-12.488l0,0
		c0-6.897,5.591-12.488,12.488-12.488h49.951c6.897,0,12.488,5.591,12.488,12.488l0,0
		C129.158,274.906,123.567,280.497,116.67,280.497z"/>
	<path style="fill:#E1E6E9;" d="M116.67,348.221H66.719c-6.897,0-12.488-5.591-12.488-12.488v0c0-6.897,5.591-12.488,12.488-12.488
		h49.951c6.897,0,12.488,5.591,12.488,12.488v0C129.158,342.631,123.567,348.221,116.67,348.221z"/>
	<path style="fill:#E1E6E9;" d="M116.67,415.946H66.719c-6.897,0-12.488-5.591-12.488-12.488l0,0
		c0-6.897,5.591-12.488,12.488-12.488h49.951c6.897,0,12.488,5.591,12.488,12.488l0,0
		C129.158,410.355,123.567,415.946,116.67,415.946z"/>
</g>
<rect x="165.463" y="120.07" style="fill:#FCD462;" width="212.293" height="99.902"/>
<polygon style="fill:#F6C358;" points="365.268,120.071 365.268,207.486 165.463,207.486 165.463,219.974 377.756,219.974 
	377.756,120.071 "/>
<rect x="165.463" y="71.081" style="fill:#EBF0F3;" width="212.293" height="18.732"/>
<g>
</g>
<g>
</g>
<g>
</g>
<g>
</g>
<g>
</g>
<g>
</g>
<g>
</g>
<g>
</g>
<g>
</g>
<g>
</g>
<g>
</g>
<g>
</g>
<g>
</g>
<g>
</g>
<g>
</g>
</svg>
