<svg enable-background="new 0 0 58 58" height="512" viewBox="0 0 58 58" width="512" xmlns="http://www.w3.org/2000/svg"><path d="m24 36 7.299-8.077-25.299-27.923c1.549 11.869 7.839 24.393 15.625 33.441z" fill="#d9dcdd"/><path d="m29.574 36.426c-.965.972.346 3.82-.574 4.148 3.184 1.136 5.802-.836 5.802-.836l2.134 3.222 4.229-4.046-7.141-7.66z" fill="#d9dcdd"/><path d="m41.187 38.964 16.325 17.905c.278.305.759 1.129.296 1.131-15.538-.003-20.872-15.039-20.872-15.039z" fill="#ed8a19"/><path d="m16.835 38.915 4.229 4.046 2.133-3.222s4.344 3.299 8.651-1.037l4.527-5.26c7.786-9.049 14.076-21.573 15.625-33.442z" fill="#e7eced"/><path d="m16.813 38.964-16.324 17.905c-.278.305-.759 1.128-.296 1.131 15.538-.003 20.872-15.039 20.872-15.039z" fill="#466aaa"/></svg>