<svg id="Capa_1" enable-background="new 0 0 512 512" height="512" viewBox="0 0 512 512" width="512" xmlns="http://www.w3.org/2000/svg"><g><path d="m314.947 265.379c-33.849 5.019-58.947 34.086-58.947 68.336-.001-34.253-25.096-63.313-58.947-68.341-.082-.021-155.784-22.571-155.784-22.571l-20.655-2.987v94.725l20.655 3.801 164.51 30.298 32.15 19.726 8.82 5.411 9.251-5.045 50.185-27.365 185.2-26.827v-94.723s-176.356 25.541-176.438 25.562z" fill="#f1f4f6"/><path d="m336.685 262.225c-25.685 12.265-43.001 38.446-43.001 68.202v32.746l-37.684 36.28v-65.738c0-34.251 25.098-63.317 58.947-68.337.082-.021.155-.031.237-.041z" fill="#d4e1e6"/><path d="m41.269 242.803v95.539l-20.655-3.801v-94.725z" fill="#d4e1e6"/><path d="m17.657 354.938 59.833 8.668 73.933 10.709 42.362 6.133c12.616 22.222 36.147 36.137 62.214 36.137s49.598-13.915 62.214-36.137l176.129-25.51c11.266-1.629 19.079-12.09 17.44-23.356-1.629-11.266-12.08-19.079-23.356-17.45l-187.096 27.108c-7.225 1.041-13.348 5.834-16.12 12.575l-1.103 2.69c-4.7 11.462-15.729 18.852-28.108 18.852s-23.408-7.39-28.108-18.842l-1.103-2.7c-2.773-6.741-8.895-11.534-16.12-12.575l-59.246-8.586-73.932-10.71-53.917-7.813c-11.266-1.629-21.727 6.184-23.356 17.45-1.639 11.266 6.174 21.728 17.44 23.357z" fill="#adc9fc"/><path d="m494.343 354.938-176.129 25.51c-12.616 22.222-36.147 36.137-62.214 36.137s-49.598-13.915-62.214-36.137l-42.362-6.133-73.934-10.709-59.833-8.668c-11.266-1.629-19.079-12.09-17.44-23.356.464-3.175 1.618-6.081 3.309-8.576 3.133 4.649 8.153 8.009 14.131 8.875l59.833 8.668 73.933 10.709 42.362 6.133c12.616 22.222 36.147 36.137 62.214 36.137s49.598-13.915 62.214-36.137l176.129-25.51c5.988-.866 10.998-4.226 14.131-8.885 1.68 2.495 2.845 5.401 3.309 8.586 1.64 11.265-6.173 21.727-17.439 23.356z" fill="#94afe5"/><path d="m434.51 298.767v107.187c0 8.854-10.194 13.812-17.161 8.349l-13.255-10.4c-3.845-3.01-9.256-3.01-13.1 0l-13.255 10.4c-6.957 5.463-17.161.505-17.161-8.349v-96.477z" fill="#dd636e"/><path d="m434.51 298.767v15.143l-73.936 10.714v-15.154z" fill="#da4a54"/><g fill="#f5dd81"><path d="m170.111 199.494 2.97-1.689c10.476-5.957 14.551-19.008 9.325-29.868l-16.075-33.402c-5.758-11.964-20.444-16.549-31.987-9.986l-7.381 4.197c-11.542 6.563-15.111 21.529-7.774 32.595l20.486 30.894c6.661 10.044 19.96 13.216 30.436 7.259z"/><path d="m254.076 178.259 3.417.022c12.051.079 22.105-9.186 23.009-21.204l2.78-36.965c.996-13.24-9.431-24.554-22.708-24.641l-8.49-.056c-13.277-.087-23.851 11.089-23.03 24.341l2.294 36.998c.745 12.029 10.677 21.426 22.728 21.505z"/><path d="m338.277 198.734 2.948 1.728c10.397 6.094 23.737 3.097 30.528-6.859l20.889-30.623c7.482-10.969 4.11-25.98-7.345-32.694l-7.325-4.293c-11.455-6.714-26.2-2.322-32.115 9.565l-16.512 33.188c-5.368 10.79-1.465 23.894 8.932 29.988z"/></g></g></svg>