<?xml version="1.0" encoding="iso-8859-1"?>
<!-- Generator: Adobe Illustrator 19.0.0, SVG Export Plug-In . SVG Version: 6.00 Build 0)  -->
<svg version="1.1" id="Capa_1" xmlns="http://www.w3.org/2000/svg" xmlns:xlink="http://www.w3.org/1999/xlink" x="0px" y="0px"
	 viewBox="0 0 512.001 512.001" style="enable-background:new 0 0 512.001 512.001;" xml:space="preserve">
<path style="fill:#AD7B64;" d="M300.01,368.022c-3.933,0-7.528-2.363-9.287-6.106l-34.724-73.882l-34.724,73.882
	c-1.759,3.743-5.354,6.106-9.287,6.106H95.276v133.451c0,5.814,4.43,10.527,9.895,10.527H256h150.829
	c5.465,0,9.895-4.713,9.895-10.527V368.022H300.01z"/>
<g>
	<polygon style="fill:#9E6B57;" points="256.024,512 276.335,512 276.335,331.3 256.024,288.085 	"/>
	<path style="fill:#9E6B57;" d="M115.588,501.473v-133.45H95.277v133.451c0,5.814,4.43,10.527,9.895,10.527h20.311
		C120.018,512,115.588,507.287,115.588,501.473z"/>
</g>
<path style="fill:#FFC850;" d="M323.886,115.404c0-38.038-31.285-68.769-69.527-67.866c-37.068,0.875-66.835,31.912-66.236,68.985
	c0.454,28.111,18,52.061,42.694,61.933c0.873,0.349,1.455,1.181,1.455,2.121v18.989h47.455v-18.619c0-1.14,0.681-2.178,1.738-2.606
	C306.339,168.268,323.886,143.889,323.886,115.404z"/>
<path style="fill:#F9B428;" d="M251.129,178.456c-24.695-9.872-42.239-33.822-42.694-61.933
	c-0.553-34.193,24.732-63.231,57.745-68.226c-3.846-0.579-7.791-0.854-11.82-0.76c-37.068,0.875-66.835,31.912-66.235,68.985
	c0.454,28.111,17.999,52.061,42.694,61.933c0.873,0.349,1.455,1.181,1.455,2.121v18.989h20.311v-18.989
	C252.584,179.637,252.002,178.805,251.129,178.456z"/>
<path style="fill:#FCE8C5;" d="M256,207.182c-4.206,0-7.616-3.41-7.616-7.616v-60.9c0-4.207,3.41-7.616,7.616-7.616
	s7.616,3.41,7.616,7.616v60.9C263.617,203.773,260.207,207.182,256,207.182z"/>
<g>
	<path style="fill:#FC932B;" d="M164.691,120.492h-13.949c-4.206,0-7.616-3.41-7.616-7.616c0-4.207,3.41-7.616,7.616-7.616h13.949
		c4.206,0,7.616,3.41,7.616,7.616C172.307,117.082,168.897,120.492,164.691,120.492z"/>
	<path style="fill:#FC932B;" d="M361.258,120.492H347.31c-4.206,0-7.616-3.41-7.616-7.616c0-4.207,3.41-7.616,7.616-7.616h13.948
		c4.206,0,7.616,3.41,7.616,7.616C368.875,117.082,365.464,120.492,361.258,120.492z"/>
	<path style="fill:#FC932B;" d="M158.248,169.311c-2.103-3.644-0.855-8.301,2.788-10.404l12.08-6.974
		c3.643-2.102,8.301-0.855,10.404,2.788c2.103,3.644,0.855,8.301-2.788,10.404l-12.08,6.974
		C165.008,174.202,160.351,172.954,158.248,169.311z"/>
	<path style="fill:#FC932B;" d="M335.084,74.837c-2.632,0-5.192-1.366-6.603-3.809c-2.103-3.644-0.855-8.301,2.788-10.404
		l12.08-6.974c3.642-2.102,8.301-0.855,10.404,2.788c2.103,3.644,0.855,8.301-2.788,10.404l-12.08,6.974
		C337.686,74.508,336.376,74.837,335.084,74.837z"/>
	<path style="fill:#FC932B;" d="M297.846,40.395c-3.643-2.103-4.891-6.762-2.788-10.404l6.974-12.08
		c2.103-3.644,6.761-4.891,10.404-2.788s4.891,6.762,2.788,10.404l-6.974,12.08C306.149,41.25,301.49,42.498,297.846,40.395z"/>
	<path style="fill:#FC932B;" d="M256,29.182c-4.206,0-7.616-3.41-7.616-7.616V7.616C248.384,3.409,251.794,0,256,0
		s7.616,3.41,7.616,7.616v13.949C263.617,25.773,260.207,29.182,256,29.182z"/>
	<path style="fill:#FC932B;" d="M203.749,37.607l-6.974-12.08c-2.103-3.643-0.855-8.301,2.788-10.404
		c3.643-2.102,8.301-0.856,10.404,2.788l6.974,12.08c2.103,3.643,0.855,8.301-2.788,10.404
		C210.51,42.498,205.852,41.249,203.749,37.607z"/>
	<path style="fill:#FC932B;" d="M343.348,172.099l-12.08-6.974c-3.643-2.103-4.891-6.761-2.788-10.404
		c2.102-3.645,6.762-4.891,10.404-2.788l12.08,6.974c3.643,2.103,4.891,6.761,2.788,10.404
		C351.652,172.951,346.996,174.203,343.348,172.099z"/>
	<path style="fill:#FC932B;" d="M173.115,73.816l-12.08-6.974c-3.643-2.103-4.891-6.761-2.788-10.404
		c2.102-3.645,6.76-4.891,10.404-2.788l12.08,6.974c3.643,2.103,4.891,6.761,2.788,10.404
		C181.419,74.67,176.761,75.919,173.115,73.816z"/>
</g>
<g>
	<path style="fill:#9E6B57;" d="M69.21,369.037h142.778c3.933,0,7.528-2.394,9.287-6.184l34.723-74.818H98.748
		c-2.117,0-4.042,1.229-4.934,3.149l-30.976,66.744C60.47,363.031,63.914,369.037,69.21,369.037z"/>
	<path style="fill:#9E6B57;" d="M442.79,369.037H300.011c-3.933,0-7.528-2.394-9.287-6.184l-34.723-74.818h154.236
		c3.957,0,7.554,2.296,9.219,5.885l29.707,64.008C451.531,363.031,448.086,369.037,442.79,369.037z"/>
</g>
<g>
	<path style="fill:#8C5A4B;" d="M83.149,357.928l30.976-66.744c0.891-1.92,2.816-3.149,4.934-3.149H98.748
		c-2.117,0-4.042,1.229-4.934,3.149l-30.976,66.744c-2.368,5.103,1.076,11.108,6.372,11.108h20.311
		C84.225,369.037,80.781,363.031,83.149,357.928z"/>
	<path style="fill:#8C5A4B;" d="M311.035,362.852l-34.724-74.818H256l34.724,74.818c1.759,3.79,5.354,6.184,9.287,6.184h20.311
		C316.389,369.037,312.794,366.642,311.035,362.852z"/>
</g>
<path style="fill:#FC932B;" d="M267.598,138.665h-23.196c-5.245,0-9.536-4.291-9.536-9.536v-0.798c0-5.245,4.291-9.536,9.536-9.536
	h23.196c5.245,0,9.536,4.291,9.536,9.536v0.798C277.135,134.374,272.844,138.665,267.598,138.665z"/>
<path style="fill:#D8DCE5;" d="M283.798,225.86l-9.877,19.756c-7.383,14.766-28.457,14.766-35.84,0l-9.877-19.756H283.798
	L283.798,225.86z"/>
<path style="fill:#C3C8D1;" d="M248.384,225.86h-20.181l9.877,19.756c5.508,11.016,18.633,13.809,28.011,8.389
	C259.655,250.286,258.853,246.801,248.384,225.86z"/>
<path style="fill:#008CFF;" d="M284.442,199.269h-56.884c-5.313,0-9.661,4.347-9.661,9.661v7.474c0,5.313,4.347,9.661,9.661,9.661
	h56.884c5.313,0,9.661-4.347,9.661-9.661v-7.474C294.103,203.617,289.756,199.269,284.442,199.269z"/>
<path style="fill:#0385DD;" d="M284.442,208.802h-56.884c-3.528,0-6.621-1.922-8.307-4.766c-0.854,1.439-1.353,3.11-1.353,4.895
	v7.474c0,5.313,4.347,9.661,9.661,9.661h56.884c5.313,0,9.661-4.347,9.661-9.661v-7.474c0-1.785-0.5-3.456-1.353-4.895
	C291.063,206.878,287.97,208.802,284.442,208.802z"/>
<g>
</g>
<g>
</g>
<g>
</g>
<g>
</g>
<g>
</g>
<g>
</g>
<g>
</g>
<g>
</g>
<g>
</g>
<g>
</g>
<g>
</g>
<g>
</g>
<g>
</g>
<g>
</g>
<g>
</g>
</svg>
