<svg id="Capa_1" enable-background="new 0 0 512 512" height="512" viewBox="0 0 512 512" width="512" xmlns="http://www.w3.org/2000/svg"><g><path d="m192.539 50.718c-26.123-29.371-69.74-39.589-129.648-30.384-6.673 1.02-11.9 6.248-12.92 12.919-9.206 59.908 1.012 103.525 30.384 129.648 22.955 20.436 52.887 25.606 77.314 25.606 24.019 0 42.728-5.003 44.258-5.426 5.18-1.421 9.336-5.482 10.793-10.793.851-3.079 20.347-76.031-20.181-121.57z" fill="#bfe85f"/><path d="m477.482 33.254c-1.02-6.672-6.248-11.9-12.92-12.92-59.908-9.206-103.525 1.012-129.648 30.384-20.435 22.955-25.606 52.887-25.606 77.314 0 24.019 5.003 42.728 5.426 44.258 1.418 5.169 5.472 9.334 10.793 10.793 3.081.852 76.032 20.348 121.571-20.181 29.371-26.124 39.589-69.74 30.384-129.648z" fill="#00cb76"/><path d="m263.726 112.459 6.607 101.945-6.607 81.914c-8.528 0-15.449-6.921-15.449-15.449v-40.384l-125.58-125.58c-6.036-6.035-6.036-15.82 0-21.845 6.025-6.036 15.809-6.036 21.845 0l103.735 103.735v-68.886c0-8.528 6.921-15.45 15.449-15.45z" fill="#00a963"/><path d="m404.756 114.904-125.58 125.58v40.384c0 8.528-6.921 15.449-15.449 15.449v-183.858c8.528 0 15.449 6.921 15.449 15.449v68.886l103.735-103.735c6.036-6.036 15.82-6.036 21.845 0 6.035 6.025 6.035 15.81 0 21.845z" fill="#008475"/><path d="m263.73 234.081 31.623 133.025-31.623 121.595c-70.31 0-127.31-57-127.31-127.31s57-127.31 127.31-127.31z" fill="#c4715a"/><path d="m391.036 361.392c0 70.31-57 127.31-127.31 127.31v-254.62c70.31 0 127.31 57 127.31 127.31z" fill="#b25f49"/><path d="m263.73 422.701 19.27 35.8-19.27 35.42c-38.14 3.6-76.86-2.33-112.58-17.61l-35.14-17.37h-101.93c-7.78 0-14.08-6.311-14.08-14.081v-44.82l118.17-32.93 99.53 32.93z" fill="#ffa68c"/><path d="m263.73 352.121 23.27 37.783-23.27 32.797-46.03-22.66h-217.7v-72.55c0-7.78 6.3-14.08 14.08-14.08h84.18c34.05-11.3 71.17-8.61 103.23 7.49 11.08 5.55.98.479 62.24 31.22z" fill="#ffbda9"/><path d="m512 383.461c0 15.72-9.77 29.78-24.49 35.28l-172.69 64.45c-16.69 5.54-33.83 9.11-51.09 10.73v-71.22l3.56 1.75c7.64 3.75 16.21 4.17 23.85 1.63 26.57-8.81 29.29-45.27 4.43-57.97l11.45 5.75c173.73-29.7 162.76-28.07 167.41-28.07 20.34 0 37.57 16.53 37.57 37.67z" fill="#f59280"/><path d="m291.14 426.081c-7.64 2.54-16.21 2.12-23.85-1.63l-3.56-1.75v-70.58c8.93 4.48 19.37 9.72 31.62 15.87.08.05.15.08.22.12 24.86 12.7 22.14 49.16-4.43 57.97z" fill="#ffa68c"/></g></svg>