<svg id="Capa_1" enable-background="new 0 0 488.117 488.117" height="512" viewBox="0 0 488.117 488.117" width="512" xmlns="http://www.w3.org/2000/svg"><g id="_x3C_Group_x3E__53_"><path d="m183.561 176.429-170.808 252.511c-10.788 16.02-9.317 27.96 4.34 41.617l1.277 1.532c11.286 11.286 21.057 18.329 35.517 13.071 3.037-1.104 5.981-2.59 8.761-4.462l25.48-17.159 3.12-18.835 22.099 1.852 114.293-76.968 2.697-18.551 22.655 1.477 62.731-42.244c22.465-15.129 31.94-41.475 27.145-65.811-1.968-9.988-11.34-15.637-18.203-24.033-1.368-1.673-2.834-3.296-4.4-4.862l-49.517-49.517c-33.846-32.086-71.442-10.639-87.187 10.382z" fill="#ffe07d"/><path d="m473.346 157.912c-.01-.01-.02-.02-.03-.03-1.623-1.62-1.979-4.126-.764-6.071 4.317-6.913 11.969-23.743-2.331-40.306-2.67-3.093-6.214-5.075-9.763-6.56-2.711-1.134-3.824-4.41-2.372-6.965 10.929-19.241 8.196-44.137-8.21-60.543-17.359-17.359-44.22-19.408-63.834-6.166-1.478-4.004-3.637-7.954-7.033-10.979-23.787-21.183-43.101 0-43.101 0l-6.432-5.986-.127.26c-9.219-8.836-20.965-13.494-32.847-13.973-14.281-.575-25.056 8.713-35.578 20.219-17.414 19.041-16.416 42.651.894 61.787.174.193.35.384.527.574 14.626 15.69 17.318 37.905 7.877 57.165l-.616 3.496c-7.329 14.95-3.727 29.41 8.046 41.183l19.645 19.645c11.773 11.773 31.729 23.759 46.679 16.43l.376-.184c7.553-3.703 15.683-5.414 23.722-5.248 12.706.263 28.448 2.011 38.064 11.195.171.163.337.158.511.319 16.824 15.633 38.714 20.878 57.57 9.273 3.214-1.978 6.246-4.348 9.022-7.108 19.8-19.686 19.835-51.697.105-71.427z" fill="#daf1a1"/><path d="m329.664 216.427c-1.367-1.673-2.834-3.296-4.4-4.862l-49.517-49.517c-8.687-8.236-17.5-13.491-26.185-16.205.017-.011.031-.02.031-.02s-1.071-.31-2.585-.748c-13.562-3.923-28.152-3.264-41.057 2.46-11.219 4.977-21.32 13.161-28.639 24.03l-18.702 27.772.796 23.668-17.845 1.649-134.676 199.985c-10.788 16.02-8.718 37.437 4.939 51.094 11.222 11.222 27.682 14.613 42.083 9.483-.365-.339-.728-.681-1.083-1.036-13.657-13.657-15.998-35.05-5.21-51.07 0 0 170.491-253.172 170.525-253.219 4.145-5.83 8.01-10.756 11.512-14.891 3.033-3.581 8.785-1.404 8.797 3.289.031 12.751 5.004 25.315 14.435 34.746l30.629 30.629c15.337 15.337 38.467 19.792 58.404 11.248l.002-.001.118-.058.358-.175c.151-.074.304-.142.455-.215-1.967-9.988-6.321-19.64-13.185-28.036z" fill="#ffd064"/><g fill="#c9eb74"><path d="m297.689 178.557c-10.213-18.383-8.798-28.269-1.469-43.219 9.442-19.26 5.963-42.318-8.662-58.008-.177-.189-.352-.381-.527-.573-17.31-19.136-17.224-48.729.19-67.77 2.995-3.275 6.311-6.058 9.851-8.354-14.465-.746-29.188 4.695-39.851 16.354-17.414 19.041-17.5 48.634-.19 67.77.175.193.35.384.527.573 14.626 15.69 18.104 38.748 8.662 58.008-7.329 14.95-4.343 32.906 7.43 44.679l25.646 25.646c11.773 11.773 29.729 14.759 44.678 7.43l.376-.184c-27.938-8.31-46.661-42.352-46.661-42.352z"/><path d="m433.391 222.546c-.174-.162-.346-.324-.518-.488-15.699-14.994-39.03-18.707-58.523-9.151l-.376.184c-2.194 1.075-4.453 1.923-6.748 2.559 12.997.056 25.818 5.02 35.647 14.408.171.164.344.326.518.488 17.106 15.895 42.81 17.556 61.763 5.298-11.477-.561-22.801-4.97-31.763-13.298z"/><path d="m308.32 83.297c0-.809.132-1.631.409-2.438 1.568-4.563 4.104-8.617 7.536-12.049 5.969-5.968 13.903-9.255 22.344-9.255s16.375 3.287 22.343 9.255c5.411 5.411 8.495 12.646 8.99 20.082.112-.027.225-.054.337-.08 21.77-5.084 43.615 8.49 48.7 30.259 4.239 18.168-4.378 36.794-20.962 45.294-3.687 1.889-8.206.433-10.096-3.253-1.889-3.687-.434-8.206 3.254-10.095 10.441-5.353 15.867-17.082 13.196-28.534-3.203-13.714-16.967-22.266-30.681-19.063-3.361.785-6.465 2.202-9.224 4.211-2.797 2.038-6.625 1.897-9.265-.34-2.641-2.238-3.406-5.991-1.855-9.083 3.62-7.223.983-14.804-3.002-18.789-3.136-3.136-7.303-4.862-11.736-4.862s-8.602 1.727-11.736 4.862c-1.806 1.806-3.138 3.932-3.958 6.319-1.347 3.917-5.613 6.001-9.53 4.655-3.11-1.072-5.064-3.982-5.064-7.096z"/></g><path d="m161.859 234.77 2.351 12.585c2.929 2.929 6.768 4.394 10.606 4.394s7.678-1.465 10.607-4.394c5.857-5.858 5.857-15.355 0-21.213l-16.962-6.961z" fill="#ffd064"/><path d="m185.423 226.142-26.816-26.807-17.073 25.353 22.676 22.668c1.748 1.748 3.824 2.963 6.027 3.667l16.085-23.885c-.285-.341-.579-.676-.899-.996z" fill="#ffc250"/><path d="m211.681 311.204c-5.857-5.857-15.355-5.857-21.213 0-5.857 5.857-5.857 15.355 0 21.213l37.172 37.171 25.353-17.073z" fill="#ffd064"/><path d="m125.944 375.354c-3.839 0-7.678-1.465-10.606-4.394l-15.46-15.459-.281-6.281c-5.858-5.857-6.858-9.355-1-15.213 5.857-5.857 12.355-9.857 18.213-4l19.741 19.74c5.858 5.857 5.858 15.355 0 21.213-2.929 2.93-6.768 4.394-10.607 4.394z" fill="#ffd064"/><path d="m116.81 330.008c-5.857-5.857-15.355-5.857-21.213 0s-5.858 15.355 0 21.213l4.281 4.281 17.073-25.353z" fill="#ffc250"/><path d="m92.505 425.49c-5.857-5.857-15.355-5.857-21.213 0s-5.858 15.355 0 21.213l16.836 16.836 25.353-17.073z" fill="#ffd064"/></g></svg>