<svg height="511pt" viewBox="-20 0 511 511.99145" width="511pt" xmlns="http://www.w3.org/2000/svg"><path d="m115.761719 439.65625 25.980469 15-33.101563 57.332031-25.980469-15zm0 0" fill="#4895ff"/><path d="m356.214844 439.660156 33.101562 57.332032-25.980468 15-33.101563-57.332032zm0 0" fill="#515be0"/><path d="m438.082031 172.78125-126.886719-106.496094-22.984374-19.285156 11.863281-14.136719c32.648437-38.90625 90.863281-44 129.769531-11.355469l8.757812 7.351563c18.847657 15.816406 30.410157 38.023437 32.554688 62.53125 2.144531 24.511719-5.386719 48.390625-21.199219 67.238281zm0 0" fill="#e30000"/><path d="m33.878906 172.78125-11.875-14.152344c-32.644531-38.90625-27.550781-97.121094 11.355469-129.769531l8.761719-7.351563c38.90625-32.644531 97.117187-27.554687 129.765625 11.355469l11.863281 14.140625zm0 0" fill="#ff4c04"/><path d="m398.210938 99.214844c-43.335938-43.335938-100.949219-67.199219-162.230469-67.199219l-20.015625 229.425781 20.015625 229.425782c61.28125 0 118.894531-23.863282 162.230469-67.199219 43.332031-43.332031 67.195312-100.945313 67.195312-162.226563s-23.863281-118.894531-67.195312-162.226562zm0 0" fill="#4895ff"/><path d="m235.980469 92.019531-20.015625 169.421875 20.015625 169.421875c93.421875 0 169.421875-76.003906 169.421875-169.421875 0-93.417968-76-169.421875-169.421875-169.421875zm0 0" fill="#efe2dd"/><path d="m73.753906 99.214844c-43.335937 43.332031-67.199218 100.945312-67.199218 162.226562s23.863281 118.894532 67.199218 162.226563c43.332032 43.335937 100.945313 67.199219 162.226563 67.199219v-458.851563c-61.28125 0-118.894531 23.863281-162.226563 67.199219zm0 0" fill="#5ecef4"/><path d="m66.558594 261.441406c0 93.417969 76.003906 169.421875 169.421875 169.421875v-338.84375c-93.417969 0-169.421875 76.003907-169.421875 169.421875zm0 0" fill="#fff5f5"/><path d="m220.980469 152.058594h30.003906v79.441406h-30.003906zm0 0" fill="#e30000"/><path d="m265.921875 246.441406h79.441406v30h-79.441406zm0 0" fill="#e30000"/><path d="m235.980469 216.5-20.015625 44.941406 20.015625 44.941406c24.78125 0 44.941406-20.160156 44.941406-44.941406s-20.160156-44.941406-44.941406-44.941406zm0 0" fill="#ff4c04"/><path d="m191.039062 261.441406c0 24.78125 20.160157 44.941406 44.941407 44.941406v-89.886718c-24.78125.003906-44.941407 20.164062-44.941407 44.945312zm0 0" fill="#ff9f22"/></svg>