<svg height="512" viewBox="0 0 58 55" width="512" xmlns="http://www.w3.org/2000/svg"><g id="Page-1" fill="none" fill-rule="evenodd"><g id="042---Add-Message"><path id="Path" d="m36.25 5h-28.25c-4.418278 0-8 3.581722-8 8v24c0 4.418278 3.581722 8 8 8h4c.5522847 0 1 .4477153 1 1v8c-.0000257.390353.2270897.7450391.5816401.9083471.3545504.1633081.7717173.1053824 1.0683599-.1483471l11.07-9.52c.1796813-.1573781.4111588-.2428467.65-.24h19.63c4.418278 0 8-3.581722 8-8v-16.049z" fill="#b0d3f0"/><path id="Path" d="m46 42c-.5522847 0-1-.4477153-1-1s.4477153-1 1-1c1.6568542 0 3-1.3431458 3-3 0-.5522847.4477153-1 1-1s1 .4477153 1 1c-.0033061 2.7600532-2.2399468 4.9966939-5 5z" fill="#90bae1"/><path id="Path" d="m4 14c-.55228475 0-1-.4477153-1-1 .00330612-2.7600532 2.23994685-4.99669388 5-5 .55228475 0 1 .44771525 1 1s-.44771525 1-1 1c-1.65685425 0-3 1.3431458-3 3 0 .5522847-.44771525 1-1 1z" fill="#ecf0f1"/><circle id="Oval" cx="46" cy="12.001" fill="#4fba6f" r="12"/><g fill="#35495e"><path id="Path" d="m33 26h-25c-.55228475 0-1-.4477153-1-1s.44771525-1 1-1h25c.5522847 0 1 .4477153 1 1s-.4477153 1-1 1z"/><path id="Path" d="m28 18h-3c-.5522847 0-1-.4477153-1-1s.4477153-1 1-1h3c.5522847 0 1 .4477153 1 1s-.4477153 1-1 1z"/><path id="Path" d="m46 34h-27c-.5522847 0-1-.4477153-1-1s.4477153-1 1-1h27c.5522847 0 1 .4477153 1 1s-.4477153 1-1 1z"/><path id="Path" d="m21 18h-13c-.55228475 0-1-.4477153-1-1s.44771525-1 1-1h13c.5522847 0 1 .4477153 1 1s-.4477153 1-1 1z"/><path id="Path" d="m15 34h-7c-.55228475 0-1-.4477153-1-1s.44771525-1 1-1h7c.5522847 0 1 .4477153 1 1s-.4477153 1-1 1z"/></g><path id="Path" d="m52 11h-5v-5c0-.55228475-.4477153-1-1-1s-1 .44771525-1 1v5h-5c-.5522847 0-1 .4477153-1 1s.4477153 1 1 1h5v5c0 .5522847.4477153 1 1 1s1-.4477153 1-1v-5h5c.5522847 0 1-.4477153 1-1s-.4477153-1-1-1z" fill="#ecf0f1"/></g></g></svg>