<?xml version="1.0" encoding="iso-8859-1"?>
<!-- Generator: Adobe Illustrator 19.0.0, SVG Export Plug-In . SVG Version: 6.00 Build 0)  -->
<svg version="1.1" id="Layer_1" xmlns="http://www.w3.org/2000/svg" xmlns:xlink="http://www.w3.org/1999/xlink" x="0px" y="0px"
	 viewBox="0 0 508 508" style="enable-background:new 0 0 508 508;" xml:space="preserve">
<path style="fill:#4CDBC4;" d="M430.9,0c-10.2,0-18.4,8.2-18.4,18.4v436.1c0,10.2,8.2,18.4,18.4,18.4c10.2,0,18.4-8.2,18.4-18.4
	V18.4C449.3,8.2,441.1,0,430.9,0z"/>
<path style="fill:#F2F2F2;" d="M412.5,18.4c0-4.5,1.7-8.6,4.4-11.8L163,126.6v219.8l253.9,119.9c-2.7-3.2-4.4-7.3-4.4-11.8V18.4z"/>
<path style="fill:#CDD6E0;" d="M449.3,154v165.2c34.2-11.9,58.7-44.4,58.7-82.6S483.5,165.9,449.3,154z"/>
<path style="fill:#4CDBC4;" d="M21.2,126.6C9.5,126.6,0,136,0,147.7v177.5c0,11.7,9.5,21.2,21.2,21.2H163V126.6H21.2z"/>
<path style="fill:#40596B;" d="M151.5,450.9l-1.1-8.2l-2.7-19.5l-2.8-19.8l-2.7-19.5l-2.8-19.8l-2.5-17.7H35.6l16.5,118.4
	c3.4,24.8,24.6,43.2,49.7,43.2c26.5,0,47.6-20.3,49.9-45.5c0.2-1.5,0.2-3,0.2-4.6C152,455.6,151.8,453.2,151.5,450.9z"/>
<g>
	<path style="fill:#334A5E;" d="M142.1,383.9H98.4c-5.5,0-9.9-4.5-9.9-9.9c0-5.5,4.5-9.9,9.9-9.9h40.9L142.1,383.9z"/>
	<path style="fill:#334A5E;" d="M147.6,423.2h-34.9c-5.5,0-9.9-4.4-9.9-9.9s4.4-9.9,9.9-9.9h32.2L147.6,423.2z"/>
	<path style="fill:#334A5E;" d="M152,457.9c0,1.5-0.1,3.1-0.2,4.6H127c-5.5,0-9.9-4.4-9.9-9.9s4.5-9.9,9.9-9.9h23.3l1.1,8.2
		C151.8,453.2,152,455.6,152,457.9z"/>
</g>
<g>
</g>
<g>
</g>
<g>
</g>
<g>
</g>
<g>
</g>
<g>
</g>
<g>
</g>
<g>
</g>
<g>
</g>
<g>
</g>
<g>
</g>
<g>
</g>
<g>
</g>
<g>
</g>
<g>
</g>
</svg>
