<svg id="Capa_1" enable-background="new 0 0 512 512" height="512" viewBox="0 0 512 512" width="512" xmlns="http://www.w3.org/2000/svg"><g><g><g><path d="m136.779 0-27.354 47.354-47.353 27.353v437.293h193.928l30-236.291-30-275.709z" fill="#fff5f5"/><path d="m256 0h193.928v512h-193.928z" fill="#dce6eb"/></g><path d="m136.779 0v74.707h-74.707z" fill="#dce6eb"/></g><g><path d="m219.493 446.969-29.115-19.046-34.72 2.232 36.507-138.605 63.835 16.813z" fill="#69b1e9"/><path d="m292.507 446.969 29.115-19.046 34.72 2.232-36.507-138.605-63.835 16.813z" fill="#3d9ae2"/><g><path d="m232.479 151.58h-27.161l-13.58 23.522-23.521 13.58v27.16l-13.581 23.522 13.581 23.521v27.16l23.521 13.58 13.58 23.522h27.161l23.521 13.58 20-101.363-20-101.364z" fill="#e1763b"/><path d="m343.783 215.842v-27.16l-23.521-13.58-13.58-23.522h-27.161l-23.521-13.58v202.727l23.521-13.58h27.161l13.58-23.522 23.521-13.58v-27.16l13.581-23.521z" fill="#9a3e2a"/></g><g><path d="m241 224.364v30h15l10-15-10-15z" fill="#dce6eb"/><path d="m256 224.364h15v30h-15z" fill="#c8d2dc"/></g></g></g></svg>