<svg height="512" viewBox="0 0 128 128" width="512" xmlns="http://www.w3.org/2000/svg"><g><path d="m92.053 46.645c-6.128 2.283-17.566 3.821-30.668 3.821s-24.54-1.538-30.669-3.821c-3.013-1.109-4.741-2.421-4.741-3.808v45.75a35.412 35.412 0 0 0 69.142 10.782 34.532 34.532 0 0 0 1.64-9.533q.037-.624.038-1.249v-45.75c.005 1.387-1.728 2.699-4.742 3.808z" fill="#f9ecca"/><path d="m61.385 35.22c-19.559 0-35.41 3.405-35.41 7.617 0 1.387 1.728 2.7 4.741 3.808 6.129 2.283 17.567 3.821 30.669 3.821s24.54-1.538 30.668-3.821c3.014-1.109 4.742-2.421 4.742-3.808.005-4.212-15.852-7.617-35.41-7.617z" fill="#fffcf3"/><path d="m30.716 46.645c6.129 2.283 17.567 3.821 30.669 3.821s24.54-1.538 30.668-3.821c-6.128-2.282-17.566-3.808-30.668-3.808s-24.54 1.526-30.669 3.808z" fill="#ffaa5f"/><path d="m96.8 54.073v9.294a14.523 14.523 0 0 1 -.038 26.469 34.532 34.532 0 0 1 -1.64 9.533 20.794 20.794 0 0 0 18.538-20.656v-4.237a20.789 20.789 0 0 0 -16.86-20.403z" fill="#fff6d8"/><path d="m66.9 56.576c-4.5-2.023-3.9-5.331-3.819-5.676a1.75 1.75 0 1 0 -3.393-.859c-.561 2.215-.076 7.1 5.771 9.73 4.313 1.941 2.639 6.342 2.434 6.837a1.75 1.75 0 0 0 3.222 1.365c1.175-2.759 1.805-8.686-4.215-11.397z" fill="#63516b"/><path d="m93.617 122.247h-64.464a1.75 1.75 0 0 0 0 3.5h64.464a1.75 1.75 0 0 0 0-3.5z" fill="#63516b"/><g fill="#fff6d8"><path d="m75.945 2.618c-2.758 2.129-7.1 7.6-3.8 13.068 2.753 4.552-.881 10.356-.917 10.41a1.75 1.75 0 0 0 2.942 1.9c.2-.311 4.862-7.682.971-14.118-2.509-4.149 2.7-8.294 2.944-8.488a1.75 1.75 0 0 0 -2.141-2.769z"/><path d="m62.05 4.982c-2.759 2.129-7.1 7.6-3.8 13.068a8.215 8.215 0 0 1 .756 6.243 1.751 1.751 0 0 0 1.32 2.094 1.73 1.73 0 0 0 .388.044 1.75 1.75 0 0 0 1.7-1.364 11.739 11.739 0 0 0 -1.174-8.828c-2.515-4.158 2.722-8.314 2.946-8.489a1.75 1.75 0 0 0 -2.136-2.768z"/><path d="m49 2.618c-2.759 2.129-7.1 7.6-3.8 13.068 2.753 4.552-.882 10.356-.917 10.41a1.75 1.75 0 0 0 2.942 1.9c.2-.311 4.861-7.682.97-14.118-2.513-4.157 2.715-8.309 2.945-8.489a1.75 1.75 0 0 0 -2.14-2.771z"/></g><path d="m75.281 70.019-4.591-2.441a2.522 2.522 0 0 0 -2.369 0l-4.59 2.441a2.523 2.523 0 0 0 -1.337 2.227v16.089a2.522 2.522 0 0 0 2.522 2.522h9.184a2.522 2.522 0 0 0 2.522-2.522v-16.089a2.523 2.523 0 0 0 -1.341-2.227z" fill="#ef893c"/></g></svg>