<?xml version="1.0" encoding="iso-8859-1"?>
<!-- Generator: Adobe Illustrator 19.0.0, SVG Export Plug-In . SVG Version: 6.00 Build 0)  -->
<svg version="1.1" id="Capa_1" xmlns="http://www.w3.org/2000/svg" xmlns:xlink="http://www.w3.org/1999/xlink" x="0px" y="0px"
	 viewBox="0 0 468.293 468.293" style="enable-background:new 0 0 468.293 468.293;" xml:space="preserve">
<rect y="56.913" style="fill:#27A2DB;" width="468.293" height="246.89"/>
<g>
	<path style="fill:#D5D6DB;" d="M0,335.026c0,17.242,13.978,31.22,31.22,31.22h405.854c17.242,0,31.22-13.978,31.22-31.22v-31.22H0
		V335.026z"/>
	<path style="fill:#D5D6DB;" d="M468.293,44.427c0-17.242-13.977-31.22-31.22-31.22H31.22C13.978,13.207,0,27.185,0,44.427v12.488
		h468.293V44.427z"/>
</g>
<rect x="172.644" y="365.58" style="fill:#E1E6E9;" width="123.036" height="54.441"/>
<path style="fill:#D5D6DB;" d="M326.009,455.085H142.284c-9.861,0-17.855-7.994-17.855-17.855v0c0-9.861,7.994-17.855,17.855-17.855
	h183.726c9.861,0,17.855,7.994,17.855,17.855v0C343.864,447.091,335.87,455.085,326.009,455.085z"/>
<path style="fill:#FCD462;" d="M276.932,268.359h-85.572c-10.345,0-18.732-8.386-18.732-18.732V160.66h123.035v88.967
	C295.664,259.972,287.277,268.359,276.932,268.359z"/>
<path style="fill:#D5D6DB;" d="M234.146,92.855c-25.505,0-46.181,20.676-46.181,46.181v21.623H206.7v-21.623
	c0-15.137,12.311-27.451,27.445-27.451c15.134,0,27.451,12.314,27.451,27.451v21.623h18.732v-21.623
	C280.328,113.531,259.652,92.855,234.146,92.855z"/>
<path style="fill:#1C75A1;" d="M246.634,216.298c0-7.78-7.116-13.899-15.193-12.203c-4.526,0.95-8.301,4.58-9.399,9.072
	c-1.441,5.895,1.322,11.245,5.859,13.887v16.887c0,3.448,2.795,6.244,6.244,6.244l0,0c3.448,0,6.244-2.795,6.244-6.244v-16.885
	C244.107,224.892,246.634,220.909,246.634,216.298z"/>
<g>
</g>
<g>
</g>
<g>
</g>
<g>
</g>
<g>
</g>
<g>
</g>
<g>
</g>
<g>
</g>
<g>
</g>
<g>
</g>
<g>
</g>
<g>
</g>
<g>
</g>
<g>
</g>
<g>
</g>
</svg>
