<?xml version="1.0" encoding="iso-8859-1"?>
<!-- Generator: Adobe Illustrator 19.0.0, SVG Export Plug-In . SVG Version: 6.00 Build 0)  -->
<svg version="1.1" id="Capa_1" xmlns="http://www.w3.org/2000/svg" xmlns:xlink="http://www.w3.org/1999/xlink" x="0px" y="0px"
	 viewBox="0 0 512 512" style="enable-background:new 0 0 512 512;" xml:space="preserve">
<path style="fill:#00935C;" d="M400.612,297.699c-4.017-13.112-9.868-26.4-17.569-39.782
	c-12.566-21.836-30.027-43.996-51.899-65.865c-37.019-37.013-73.48-60.172-75.014-61.14c-2.435-1.535-13.419-1.518-15.89,0.204
	c-1.392,0.969-34.489,24.17-68.069,61.225c-31.412,34.663-52.473,69.884-62.338,103.797c2.518,0.741,4.428,18.544,6.891,19.551
	c3.143-1.286,6.923-19.277,10.154-20.128c11.815-36.291,35.894-68.731,57.05-92.115c29.068-32.13,58.533-54.001,64.462-58.284
	c10.2,6.659,106.267,71.103,134.68,150.968c3.933,0.92,10.285,22.633,14.09,24.19C399.116,319.52,398.622,298.332,400.612,297.699z"
	/>
<path style="fill:#EF677E;" d="M423.434,294.139c-7.773,0-15.412,1.207-22.822,3.561c-1.99,0.632-3.967,1.33-5.922,2.129
	c-3.806-1.557-7.686-2.779-11.619-3.699c-5.608-1.312-11.329-1.991-17.125-1.991c-48.835,0-88.566,47.467-88.566,105.812
	s39.73,105.812,88.566,105.812c9.86,0,19.511-1.912,28.744-5.69c9.232,3.777,18.884,5.69,28.743,5.69
	c48.835,0,88.566-47.466,88.566-105.812C512,341.607,472.27,294.139,423.434,294.139z"/>
<path style="fill:#E6585F;" d="M423.434,294.139c-3.804,0-7.574,0.293-11.303,0.864c43.5,6.671,77.227,51.192,77.227,104.948
	c0,53.764-33.737,98.29-77.245,104.95c3.735,0.568,7.512,0.861,11.321,0.861c48.835,0,88.566-47.466,88.566-105.812
	S472.27,294.139,423.434,294.139z"/>
<path style="fill:#EF677E;" d="M109.834,296.138c-6.922-2.038-14.038-3.076-21.269-3.076c-20.679,0-40.58,8.882-56.629,24.404
	c-8.376,8.1-14.908,18.145-17.64,23.413C4.101,360.534,0,374.965,0,398.874c0,58.345,39.73,105.812,88.566,105.812
	c9.86,0,19.511-1.912,28.744-5.69c9.232,3.777,18.884,5.69,28.744,5.69c48.835,0,88.566-47.466,88.566-105.812
	s-39.73-105.812-88.566-105.812c-6.503,0-12.911,0.849-19.173,2.5c-3.232,0.852-6.428,1.904-9.571,3.19
	C114.846,297.743,112.352,296.879,109.834,296.138z"/>
<g>
	<path style="fill:#E6585F;" d="M146.053,293.061c-3.983,0-7.93,0.322-11.83,0.948c43.257,6.935,76.726,51.315,76.726,104.864
		c0,53.548-33.467,97.927-76.723,104.863c3.9,0.621,7.846,0.949,11.828,0.949c48.835,0,88.566-47.466,88.566-105.812
		S194.888,293.061,146.053,293.061z"/>
	<path style="fill:#E6585F;" d="M31.122,389.462c-4.233,0-7.681-3.413-7.716-7.654c-0.426-50.695,41.629-64.603,50.064-66.877
		l0.037-0.01c3.65-1.128,7.659,0.6,9.291,4.168c1.773,3.877,0.067,8.456-3.81,10.23c-0.604,0.276-1.081,0.404-1.501,0.518
		c-9.147,2.466-38.967,13.49-38.645,51.842c0.036,4.263-3.39,7.747-7.654,7.783C31.166,389.462,31.143,389.462,31.122,389.462z"/>
	<path style="fill:#E6585F;" d="M310.117,389.462c-4.248,0-7.701-3.435-7.717-7.688c-0.114-28.714,13.664-45.441,25.242-54.417
		c12.414-9.623,24.934-12.477,25.46-12.593c4.165-0.923,8.283,1.703,9.206,5.865c0.921,4.154-1.692,8.266-5.838,9.2
		c-1.631,0.377-38.802,9.452-38.633,51.884c0.017,4.263-3.425,7.732-7.688,7.749C310.139,389.462,310.127,389.462,310.117,389.462z"
		/>
</g>
<path style="fill:#00935C;" d="M493.022,21.883c-3.378-7.433-10.247-12.36-18.375-13.179c-11.792-1.187-23.896-1.788-35.977-1.788
	c-43.286,0-82.673,7.462-117.067,22.179c-29.016,12.416-51.817,27.033-65.937,42.271c-21.79,23.513-19.587,44.285-13.902,57.57
	c5.799,13.552,19.65,29.706,52.714,29.706c0.001,0,0.001,0,0.002,0c20.51,0,46.319-6.404,74.633-18.52
	c69.997-29.953,102.276-68.368,121.765-95.817C495.586,37.672,496.388,29.29,493.022,21.883z"/>
<g>
	<path style="fill:#006E45;" d="M493.022,21.883c-3.378-7.433-10.247-12.36-18.375-13.179c-11.792-1.187-23.896-1.788-35.977-1.788
		c-3.45,0-6.864,0.065-10.263,0.16c8.63,0.244,17.225,0.78,25.658,1.628c8.129,0.818,14.997,5.746,18.375,13.179
		c3.366,7.408,2.565,15.789-2.146,22.422c-19.49,27.45-51.768,65.864-121.765,95.817c-23.622,10.108-45.487,16.224-63.999,17.979
		c3.109,0.347,6.411,0.541,9.947,0.541c0.001,0,0.001,0,0.002,0c20.51,0,46.319-6.404,74.633-18.52
		c69.998-29.953,102.277-68.368,121.765-95.817C495.586,37.672,496.388,29.289,493.022,21.883z"/>
	<path style="fill:#006E45;" d="M282.496,122.468c-3.137,0.089-6.173-1.665-7.571-4.694c-1.872-4.054-0.103-8.857,3.95-10.729
		l149.227-68.903c4.055-1.872,8.857-0.103,10.729,3.951s0.103,8.857-3.95,10.729l-149.227,68.903
		C284.629,122.198,283.557,122.438,282.496,122.468z"/>
</g>
<path style="fill:#7ECB75;" d="M252.698,85.538c-8.654-13.747-24.007-28.231-44.404-41.884
	C167.504,16.348,120.428,8.543,95.998,6.32c-0.62-0.057-1.247-0.084-1.865-0.084c-6.878,0-13.196,3.49-16.905,9.334
	c-3.687,5.814-4.139,13.001-1.206,19.226c9.405,19.97,32.111,58.111,78.508,89.171c17.781,11.903,43.792,26.092,66.735,26.092
	c14.639,0,26.308-5.872,33.745-16.981C261.501,123.381,266.37,107.26,252.698,85.538z"/>
<path style="fill:#5EBE52;" d="M228.646,126.041c-1.546,0-3.108-0.443-4.49-1.368L119.06,54.32
	c-3.71-2.483-4.704-7.504-2.221-11.215c2.483-3.709,7.504-4.704,11.215-2.221l105.097,70.354c3.71,2.483,4.704,7.504,2.221,11.215
	C233.813,124.782,231.253,126.041,228.646,126.041z"/>
<g>
</g>
<g>
</g>
<g>
</g>
<g>
</g>
<g>
</g>
<g>
</g>
<g>
</g>
<g>
</g>
<g>
</g>
<g>
</g>
<g>
</g>
<g>
</g>
<g>
</g>
<g>
</g>
<g>
</g>
</svg>
