<svg id="Capa_1" enable-background="new 0 0 512 512" height="512" viewBox="0 0 512 512" width="512" xmlns="http://www.w3.org/2000/svg"><g><path d="m476.541 126.059h-441.082c-19.191 5.315-35.459 22.971-35.459 43.794v264.767c0 24.99 20.446 45.437 45.437 45.437h167.913c5.673 0 10.587 3.664 12.528 8.995 4.471 12.276 16.241 21.042 30.063 21.042s25.592-8.766 30.063-21.042c1.941-5.331 6.855-8.995 12.528-8.995h168.033c24.99 0 45.436-20.447 45.436-45.437v-264.767c-.001-20.823-16.269-38.479-35.46-43.794z" fill="#ff656f"/><path d="m39.438 434.62v-264.767c0-20.823 16.268-38.479 35.459-43.793h-39.438c-19.191 5.314-35.459 22.97-35.459 43.793v264.767c0 24.99 20.446 45.437 45.437 45.437h39.438c-24.99-.001-45.437-20.447-45.437-45.437z" fill="#ff4756"/><path d="m265.316 489.051c-1.941-5.331-6.855-8.995-12.528-8.995h-39.438c5.673 0 10.587 3.664 12.528 8.995 4.471 12.276 16.241 21.042 30.063 21.042 7.446 0 14.284-2.561 19.719-6.828-4.653-3.653-8.282-8.552-10.344-14.214z" fill="#ff4756"/><path d="m458.998 94.201h-149.648c5.259 9.645 8.261 20.697 8.261 32.456 0 21.358-9.862 40.41-25.28 52.858-6.345 5.123-10.003 12.862-10.003 21.016v14.169h3.297c3.546 0 6.422 2.875 6.422 6.421v15.272c0 3.547-2.875 6.422-6.422 6.422h-5.767v11.36c0 8.908-7.221 16.129-16.129 16.129h-8.823v156.195c0 10.831 9.814 19.611 20.645 19.611h183.446c10.831 0 19.611-8.78 19.611-19.611v-312.686c.001-10.831-8.779-19.612-19.61-19.612z" fill="#dfebfa"/><g><path d="m294.345 426.499v-248.701c-.664.58-1.326 1.163-2.013 1.718-6.345 5.123-10.003 12.862-10.003 21.016v14.168h3.297c3.546 0 6.422 2.875 6.422 6.421v15.272c0 3.547-2.875 6.422-6.422 6.422h-5.767v11.36c0 8.908-7.221 16.129-16.129 16.129h-8.823v156.195c0 10.831 9.814 19.611 20.645 19.611h38.404c-10.831 0-19.611-8.78-19.611-19.611z" fill="#b4dbff"/></g><path d="m248.079 270.303c-8.908 0-16.129-7.221-16.129-16.128v-11.36h-5.767c-3.547 0-6.422-2.875-6.422-6.422v-15.272c0-3.546 2.875-6.421 6.422-6.421h3.297v-14.16c0-8.283-3.865-16.014-10.282-21.251-16.01-13.066-25.949-33.289-24.929-55.791.479-10.557 3.423-20.504 8.246-29.296h-149.512c-10.831 0-19.611 8.78-19.611 19.612v312.686c0 10.831 8.78 19.611 19.611 19.611h183.327c10.831 0 19.611-8.78 19.611-19.611v-156.197z" fill="#dfebfa"/><path d="m72.83 426.499v-312.686c0-10.831 8.78-19.612 19.611-19.612h-39.439c-10.831 0-19.611 8.78-19.611 19.612v312.686c0 10.831 8.78 19.611 19.611 19.611h39.438c-10.83 0-19.61-8.78-19.61-19.611z" fill="#b4dbff"/><path d="m252.695 58.821c-34.807 1.602-63.051 29.868-64.629 64.676-1.02 22.502 8.919 42.725 24.929 55.791 6.417 5.237 10.282 12.969 10.282 21.251v18.296h65.256v-18.304c0-8.155 3.658-15.894 10.003-21.016 15.417-12.448 25.28-31.499 25.28-52.858-.001-38.57-32.155-69.63-71.121-67.836z" fill="#fee55a"/><path d="m250.747 179.288c-16.01-13.066-25.949-33.289-24.929-55.791 1.333-29.402 21.692-54.133 48.961-62.073-6.968-2.013-14.389-2.957-22.083-2.603-34.807 1.602-63.051 29.868-64.629 64.676-1.02 22.502 8.919 42.725 24.929 55.791 6.417 5.237 10.282 12.969 10.282 21.251v18.296h37.752v-18.295c-.001-8.283-3.866-16.014-10.283-21.252z" fill="#ffd301"/><g><path d="m255.905 227.25c-4.283 0-7.755-3.471-7.755-7.755v-47.837c0-4.283 3.472-7.755 7.755-7.755s7.755 3.471 7.755 7.755v47.837c-.001 4.284-3.472 7.755-7.755 7.755z" fill="#ffc20c"/></g><g><path d="m255.905 179.413c-12.314 0-22.333-10.018-22.333-22.333 0-12.314 10.018-22.333 22.333-22.333 12.314 0 22.333 10.018 22.333 22.333s-10.019 22.333-22.333 22.333zm0-29.156c-3.763 0-6.824 3.061-6.824 6.824 0 3.762 3.061 6.824 6.824 6.824s6.824-3.061 6.824-6.824c-.001-3.763-3.061-6.824-6.824-6.824z" fill="#ffc20c"/></g><path d="m225.747 239.713v17.564c0 8.908 7.221 16.129 16.129 16.129h28.058c8.908 0 16.129-7.221 16.129-16.129v-17.563h-60.316z" fill="#23a8fe"/><path d="m260.339 257.277v-17.564h-34.592v17.564c0 8.908 7.221 16.129 16.129 16.129h28.058c1.119 0 2.212-.115 3.267-.332-7.342-1.511-12.862-8.009-12.862-15.797z" fill="#0193fa"/><g><path d="m432.582 390.255h-129.389c-4.283 0-7.755-3.471-7.755-7.755 0-4.283 3.472-7.755 7.755-7.755h129.389c4.283 0 7.755 3.471 7.755 7.755-.001 4.283-3.472 7.755-7.755 7.755z" fill="#b4dbff"/></g><g><path d="m144.666 162.048h-65.247c-4.283 0-7.755-3.471-7.755-7.755 0-4.283 3.472-7.755 7.755-7.755h65.247c4.283 0 7.755 3.471 7.755 7.755s-3.472 7.755-7.755 7.755z" fill="#b4dbff"/></g><g><path d="m144.666 194.649h-65.247c-4.283 0-7.755-3.471-7.755-7.755s3.472-7.755 7.755-7.755h65.247c4.283 0 7.755 3.471 7.755 7.755s-3.472 7.755-7.755 7.755z" fill="#b4dbff"/></g><g><path d="m144.666 227.25h-65.247c-4.283 0-7.755-3.471-7.755-7.755 0-4.283 3.472-7.755 7.755-7.755h65.247c4.283 0 7.755 3.471 7.755 7.755s-3.472 7.755-7.755 7.755z" fill="#b4dbff"/></g><g><path d="m175.447 259.851h-96.028c-4.283 0-7.755-3.471-7.755-7.755s3.472-7.755 7.755-7.755h96.028c4.283 0 7.755 3.471 7.755 7.755s-3.473 7.755-7.755 7.755z" fill="#b4dbff"/></g><g><path d="m190.592 292.452h-111.173c-4.283 0-7.755-3.471-7.755-7.755 0-4.283 3.472-7.755 7.755-7.755h111.173c4.283 0 7.755 3.471 7.755 7.755-.001 4.283-3.472 7.755-7.755 7.755z" fill="#b4dbff"/></g><g><path d="m208.807 325.053h-129.388c-4.283 0-7.755-3.471-7.755-7.755 0-4.283 3.472-7.755 7.755-7.755h129.388c4.283 0 7.755 3.471 7.755 7.755s-3.472 7.755-7.755 7.755z" fill="#b4dbff"/></g><g><path d="m208.807 357.654h-129.388c-4.283 0-7.755-3.471-7.755-7.755s3.472-7.755 7.755-7.755h129.388c4.283 0 7.755 3.471 7.755 7.755s-3.472 7.755-7.755 7.755z" fill="#b4dbff"/></g><g><path d="m208.807 390.255h-129.388c-4.283 0-7.755-3.471-7.755-7.755 0-4.283 3.472-7.755 7.755-7.755h129.388c4.283 0 7.755 3.471 7.755 7.755 0 4.283-3.472 7.755-7.755 7.755z" fill="#b4dbff"/></g><g><path d="m432.582 162.048h-65.248c-4.283 0-7.755-3.471-7.755-7.755 0-4.283 3.472-7.755 7.755-7.755h65.248c4.283 0 7.755 3.471 7.755 7.755-.001 4.284-3.472 7.755-7.755 7.755z" fill="#b4dbff"/></g><g><path d="m432.582 194.649h-65.248c-4.283 0-7.755-3.471-7.755-7.755s3.472-7.755 7.755-7.755h65.248c4.283 0 7.755 3.471 7.755 7.755s-3.472 7.755-7.755 7.755z" fill="#b4dbff"/></g><g><path d="m432.582 227.25h-65.248c-4.283 0-7.755-3.471-7.755-7.755 0-4.283 3.472-7.755 7.755-7.755h65.248c4.283 0 7.755 3.471 7.755 7.755-.001 4.284-3.472 7.755-7.755 7.755z" fill="#b4dbff"/></g><g><path d="m432.582 259.851h-96.147c-4.283 0-7.755-3.471-7.755-7.755s3.472-7.755 7.755-7.755h96.147c4.283 0 7.755 3.471 7.755 7.755s-3.472 7.755-7.755 7.755z" fill="#b4dbff"/></g><g><path d="m432.581 292.452h-111.292c-4.283 0-7.755-3.471-7.755-7.755 0-4.283 3.472-7.755 7.755-7.755h111.292c4.283 0 7.755 3.471 7.755 7.755 0 4.283-3.472 7.755-7.755 7.755z" fill="#b4dbff"/></g><g><path d="m432.582 325.053h-129.389c-4.283 0-7.755-3.471-7.755-7.755 0-4.283 3.472-7.755 7.755-7.755h129.389c4.283 0 7.755 3.471 7.755 7.755-.001 4.284-3.472 7.755-7.755 7.755z" fill="#b4dbff"/></g><g><path d="m432.582 357.654h-129.389c-4.283 0-7.755-3.471-7.755-7.755s3.472-7.755 7.755-7.755h129.389c4.283 0 7.755 3.471 7.755 7.755s-3.472 7.755-7.755 7.755z" fill="#b4dbff"/></g><g><path d="m163.523 131.252h-21.419c-4.283 0-7.755-3.471-7.755-7.755s3.472-7.755 7.755-7.755h21.419c4.283 0 7.755 3.471 7.755 7.755s-3.472 7.755-7.755 7.755z" fill="#fee55a"/></g><g><path d="m369.776 131.252h-21.419c-4.283 0-7.755-3.471-7.755-7.755s3.472-7.755 7.755-7.755h21.419c4.283 0 7.755 3.471 7.755 7.755s-3.472 7.755-7.755 7.755z" fill="#fee55a"/></g><g><path d="m169.963 209.475c-3.029-3.029-3.029-7.938 0-10.967l15.145-15.146c3.028-3.029 7.938-3.028 10.967-.001 3.029 3.029 3.029 7.938 0 10.967l-15.145 15.146c-3.028 3.029-7.938 3.029-10.967.001z" fill="#fee55a"/></g><g><path d="m315.806 63.631c-3.029-3.028-3.029-7.937 0-10.967l15.145-15.145c3.029-3.028 7.939-3.027 10.967.001 3.029 3.028 3.029 7.937 0 10.967l-15.145 15.145c-3.029 3.028-7.939 3.028-10.967-.001z" fill="#fee55a"/></g><g><path d="m255.941 38.834c-4.283 0-7.755-3.471-7.755-7.755v-21.417c0-4.283 3.472-7.755 7.755-7.755s7.755 3.471 7.755 7.755v21.418c-.001 4.283-3.473 7.754-7.755 7.754z" fill="#fee55a"/></g><g><path d="m330.951 209.474-15.145-15.146c-3.029-3.028-3.029-7.937 0-10.967 3.029-3.027 7.939-3.028 10.967.001l15.145 15.146c3.029 3.028 3.029 7.937 0 10.967-3.029 3.028-7.938 3.029-10.967-.001z" fill="#fee55a"/></g><g><path d="m185.109 63.632-15.145-15.145c-3.029-3.029-3.029-7.938 0-10.967 3.028-3.029 7.938-3.028 10.967-.001l15.145 15.145c3.029 3.029 3.029 7.938 0 10.967s-7.938 3.029-10.967.001z" fill="#fee55a"/></g><path d="m291.83 214.7h-71.85c-3.546 0-6.421 2.875-6.421 6.422v15.273c0 3.546 2.875 6.421 6.421 6.421h71.85c3.546 0 6.422-2.875 6.422-6.421v-15.273c-.001-3.547-2.876-6.422-6.422-6.422z" fill="#60b8fe"/><path d="m248.15 236.394v-15.272c0-3.546 2.875-6.422 6.422-6.422h-34.592c-3.546 0-6.422 2.875-6.422 6.422v15.272c0 3.546 2.875 6.421 6.422 6.421h34.592c-3.547 0-6.422-2.875-6.422-6.421z" fill="#23a8fe"/></g></svg>