<svg id="Capa_1" enable-background="new 0 0 512 512" height="512" viewBox="0 0 512 512" width="512" xmlns="http://www.w3.org/2000/svg"><g><circle cx="331" cy="226" fill="#fe8205" r="105"/><path d="m331 331c57.891 0 105-47.109 105-105h-210c0 57.891 47.109 105 105 105z" fill="#fa5d0f"/><path d="m391 512h-165c-33.091 0-60-26.909-60-60v-15c0-8.291 6.709-15 15-15s15 6.709 15 15v15c0 16.538 13.462 30 30 30h165c8.291 0 15 6.709 15 15s-6.709 15-15 15z" fill="#32393f"/><path d="m241 121c8.291 0 15-6.709 15-15v-91c0-8.291-6.709-15-15-15h-75c-58.462 0-90 116.928-90 226s31.538 226 90 226h75c8.291 0 15-6.709 15-15v-91c0-8.291-6.709-15-15-15h-62.988c-6.021-22.793-12.012-57.422-12.012-105s5.991-82.207 12.012-105z" fill="#575f64"/><path d="m166 452h75c8.291 0 15-6.709 15-15v-91c0-8.291-6.709-15-15-15h-62.988c-6.021-22.793-12.012-57.422-12.012-105h-90c0 109.072 31.538 226 90 226z" fill="#474f54"/><path d="m352.211 226 10.605-10.605c5.859-5.859 5.859-15.352 0-21.211s-15.352-5.859-21.211 0l-10.605 10.605-10.605-10.605c-5.859-5.859-15.352-5.859-21.211 0s-5.859 15.352 0 21.211l10.605 10.605-10.605 10.605c-5.859 5.859-5.859 15.352 0 21.211s15.352 5.859 21.211 0l10.605-10.605 10.605 10.605c5.859 5.859 15.352 5.859 21.211 0s5.859-15.352 0-21.211z" fill="#f0f7ff"/><path d="m299.184 257.816c5.859 5.859 15.352 5.859 21.211 0l10.605-10.605 10.605 10.605c5.859 5.859 15.352 5.859 21.211 0s5.859-15.352 0-21.211l-10.605-10.605h-42.422l-10.605 10.605c-5.86 5.86-5.86 15.352 0 21.211z" fill="#dfe7f4"/></g></svg>