<?xml version="1.0" encoding="iso-8859-1"?>
<!-- Generator: Adobe Illustrator 19.0.0, SVG Export Plug-In . SVG Version: 6.00 Build 0)  -->
<svg version="1.1" id="Capa_1" xmlns="http://www.w3.org/2000/svg" xmlns:xlink="http://www.w3.org/1999/xlink" x="0px" y="0px"
	 viewBox="0 0 466.603 466.603" style="enable-background:new 0 0 466.603 466.603;" xml:space="preserve">
<path style="fill:#29A1DA;" d="M190.516,276.087c-42.9-42.9-60.15-85.398-37.943-116.097c3.352-4.633,3.126-10.953-0.52-15.358
	L58.691,31.857L14.855,75.693C1.501,89.047-3.447,108.785,2.467,126.72c11.461,34.754,36.219,106.925,133.355,204.06
	s169.307,121.894,204.061,133.355c17.935,5.914,37.673,0.966,51.027-12.388l43.836-43.836l-92.095-92.095
	c-4.298-4.298-10.952-4.774-16.051-1.466C293.128,336.069,233.207,318.778,190.516,276.087z"/>
<g>
	<path style="fill:#2D92BA;" d="M351.774,452.244c-34.753-11.46-106.924-36.219-204.06-133.355
		C50.578,221.754,25.819,149.583,14.358,114.829c-5.914-17.935-0.966-37.673,12.388-51.027L14.855,75.693
		C1.501,89.047-3.447,108.785,2.467,126.72c11.461,34.754,36.22,106.925,133.355,204.06
		c97.136,97.136,169.307,121.895,204.06,133.355c17.935,5.915,37.674,0.966,51.027-12.387l11.891-11.891
		C389.447,453.211,369.709,458.159,351.774,452.244z"/>
	<path style="fill:#2D92BA;" d="M194.61,125.543l-26.189,26.189c-4.877,4.877-12.784,4.877-17.66,0L46.536,47.507
		c-4.877-4.877-4.877-12.784,0-17.66L72.724,3.658c4.877-4.877,12.784-4.877,17.66,0L194.61,107.882
		C199.486,112.759,199.486,120.666,194.61,125.543z"/>
	<path style="fill:#2D92BA;" d="M462.945,393.879l-26.189,26.189c-4.877,4.877-12.784,4.877-17.66,0L317.844,318.815
		c-4.877-4.877-4.877-12.784,0-17.66l26.189-26.188c4.877-4.877,12.784-4.877,17.66,0l101.252,101.252
		C467.822,381.095,467.822,389.002,462.945,393.879z"/>
</g>
<g>
</g>
<g>
</g>
<g>
</g>
<g>
</g>
<g>
</g>
<g>
</g>
<g>
</g>
<g>
</g>
<g>
</g>
<g>
</g>
<g>
</g>
<g>
</g>
<g>
</g>
<g>
</g>
<g>
</g>
</svg>
