<?xml version="1.0" encoding="iso-8859-1"?>
<!-- Generator: Adobe Illustrator 19.0.0, SVG Export Plug-In . SVG Version: 6.00 Build 0)  -->
<svg xmlns="http://www.w3.org/2000/svg" xmlns:xlink="http://www.w3.org/1999/xlink" version="1.1" id="Layer_1" x="0px" y="0px" viewBox="0 0 512.001 512.001" style="enable-background:new 0 0 512.001 512.001;" xml:space="preserve">
<path style="fill:#EBEDED;" d="M86.269,52.578c-4.588,0-8.306,3.718-8.306,8.306v71.724c0,4.018-3.268,7.286-7.287,7.286H55.593  v-79.01c0-4.588-3.719-8.306-8.306-8.306c-4.588,0-8.306,3.718-8.306,8.306v79.01H23.9c-4.019,0-7.287-3.268-7.287-7.286V60.885  c0-4.588-3.718-8.306-8.306-8.306C3.719,52.578,0,56.296,0,60.885v71.724c0,13.177,10.723,23.899,23.9,23.899h15.081v118.084  c0,4.588,3.718,8.306,8.306,8.306c4.587,0,8.306-3.718,8.306-8.306V156.507h15.081c13.177,0,23.9-10.722,23.9-23.899V60.885  C94.575,56.296,90.855,52.578,86.269,52.578z"/>
<path style="opacity:0.1;fill:#020202;enable-background:new    ;" d="M86.269,52.578c-4.588,0-8.306,3.718-8.306,8.306v71.724  c0,4.018-3.268,7.286-7.287,7.286H55.593v-79.01c0-4.588-3.719-8.306-8.306-8.306c-4.588,0-8.306,3.718-8.306,8.306v79.01H23.9  c-4.019,0-7.287-3.268-7.287-7.286V60.885c0-4.588-3.718-8.306-8.306-8.306C3.719,52.578,0,56.296,0,60.885v71.724  c0,13.177,10.723,23.899,23.9,23.899h15.081v118.084c0,4.588,3.718,8.306,8.306,8.306c4.587,0,8.306-3.718,8.306-8.306V156.507  h15.081c13.177,0,23.9-10.722,23.9-23.899V60.885C94.575,56.296,90.855,52.578,86.269,52.578z"/>
<path style="fill:#EBEDED;" d="M511.997,115.303c0.32-33.243-18.852-60.38-42.818-60.609c-23.967-0.231-43.655,26.532-43.976,59.774  c-0.284,29.546,14.887,48.454,35.091,52.46v107.664c0,4.588,3.719,8.306,8.306,8.306s8.306-3.718,8.306-8.306V166.899  C496.692,162.857,511.718,144.361,511.997,115.303z"/>
<path style="opacity:0.15;fill:#020202;enable-background:new    ;" d="M442.923,114.468c0.279-28.889,15.187-52.874,34.819-58.512  c-2.765-0.797-5.628-1.234-8.563-1.263c-23.967-0.231-43.655,26.532-43.976,59.774c-0.284,29.546,14.887,48.454,35.091,52.46  v107.663c0,4.588,3.719,8.306,8.306,8.306c4.587,0,8.306-3.718,8.306-8.306V166.899c0.163-0.033,0.32-0.075,0.483-0.111  C457.5,162.517,442.642,143.706,442.923,114.468z"/>
<circle style="fill:#D6E0E0;" cx="257.273" cy="271.548" r="151.783"/>
<path style="opacity:0.15;fill:#020202;enable-background:new    ;" d="M123.214,271.545c0-80.851,63.221-146.929,142.922-151.518  c-2.932-0.168-5.884-0.264-8.86-0.264c-83.826,0-151.782,67.955-151.782,151.782c0,83.826,67.955,151.783,151.782,151.783  c2.976,0,5.928-0.095,8.86-0.264C186.435,418.475,123.214,352.396,123.214,271.545z"/>
<path style="fill:#EBEDED;" d="M356.127,313.568c0.018-0.041,0.034-0.082,0.052-0.123c0.157-0.372,0.307-0.749,0.461-1.123  c0.179-0.435,0.361-0.868,0.534-1.307c0.152-0.382,0.295-0.767,0.44-1.151c0.165-0.434,0.336-0.867,0.496-1.305  c0.146-0.402,0.286-0.807,0.429-1.212c0.15-0.424,0.302-0.846,0.447-1.271c0.143-0.42,0.277-0.844,0.413-1.266  c0.136-0.415,0.275-0.828,0.405-1.247c0.134-0.43,0.258-0.864,0.389-1.297c0.123-0.414,0.251-0.827,0.37-1.244  c0.125-0.441,0.243-0.886,0.361-1.329c0.113-0.413,0.228-0.823,0.336-1.236c0.116-0.455,0.225-0.914,0.337-1.372  c0.099-0.405,0.204-0.811,0.297-1.219c0.111-0.472,0.209-0.946,0.311-1.42c0.086-0.399,0.177-0.796,0.259-1.195  c0.103-0.498,0.195-1,0.29-1.501c0.071-0.38,0.15-0.758,0.218-1.137c0.091-0.513,0.172-1.03,0.258-1.545  c0.061-0.374,0.127-0.745,0.185-1.12c0.079-0.516,0.146-1.034,0.217-1.552c0.053-0.379,0.111-0.754,0.161-1.133  c0.065-0.517,0.12-1.039,0.178-1.557c0.043-0.383,0.092-0.764,0.131-1.148c0.055-0.535,0.097-1.074,0.145-1.61  c0.032-0.372,0.07-0.742,0.099-1.115c0.042-0.56,0.072-1.124,0.107-1.686c0.022-0.353,0.05-0.704,0.068-1.059  c0.032-0.615,0.05-1.232,0.071-1.848c0.011-0.305,0.025-0.608,0.033-0.914c0.025-0.924,0.035-1.851,0.035-2.78  c0-6.487-0.576-12.839-1.677-19.009c-8.975-50.238-52.887-88.375-105.708-88.375l0,0l0,0c-52.821,0-96.734,38.137-105.708,88.375  c-1.101,6.17-1.677,12.523-1.677,19.009c0,0.929,0.011,1.856,0.034,2.78c0.009,0.306,0.023,0.609,0.034,0.914  c0.022,0.617,0.039,1.234,0.071,1.848c0.018,0.354,0.045,0.705,0.068,1.059c0.033,0.563,0.065,1.126,0.107,1.686  c0.029,0.373,0.066,0.743,0.099,1.115c0.048,0.536,0.089,1.075,0.145,1.61c0.039,0.384,0.087,0.765,0.131,1.148  c0.059,0.519,0.113,1.04,0.178,1.557c0.05,0.38,0.107,0.755,0.159,1.133c0.072,0.518,0.14,1.036,0.218,1.552  c0.058,0.374,0.124,0.745,0.185,1.12c0.085,0.515,0.166,1.032,0.257,1.545c0.07,0.381,0.147,0.759,0.218,1.137  c0.095,0.499,0.187,1.001,0.29,1.501c0.082,0.399,0.173,0.796,0.259,1.195c0.103,0.474,0.202,0.948,0.311,1.42  c0.094,0.408,0.198,0.813,0.298,1.219c0.112,0.458,0.219,0.917,0.337,1.372c0.107,0.413,0.223,0.823,0.336,1.236  c0.118,0.443,0.236,0.888,0.361,1.329c0.118,0.416,0.247,0.829,0.37,1.244c0.13,0.433,0.254,0.867,0.389,1.297  c0.131,0.419,0.269,0.832,0.405,1.247c0.136,0.423,0.27,0.847,0.413,1.266c0.145,0.426,0.298,0.848,0.447,1.271  c0.143,0.403,0.281,0.809,0.429,1.212c0.162,0.437,0.331,0.869,0.496,1.305c0.146,0.383,0.289,0.769,0.44,1.151  c0.175,0.443,0.359,0.882,0.54,1.321c0.152,0.368,0.299,0.739,0.454,1.105c0.018,0.041,0.033,0.083,0.052,0.125l0.013,0.023  c3.361,7.891,7.64,15.299,12.702,22.086l0.009,0.016c0.016,0.021,0.03,0.04,0.047,0.061c0.56,0.751,1.131,1.493,1.711,2.227  c0.192,0.244,0.389,0.482,0.583,0.724c0.401,0.499,0.805,0.998,1.215,1.491c0.239,0.287,0.481,0.57,0.721,0.854  c0.379,0.444,0.76,0.887,1.144,1.325c0.253,0.29,0.508,0.577,0.765,0.864c0.392,0.436,0.785,0.866,1.183,1.295  c0.254,0.272,0.504,0.545,0.76,0.815c0.451,0.477,0.909,0.947,1.369,1.416c0.206,0.208,0.405,0.419,0.611,0.625  c0.659,0.66,1.325,1.311,2,1.954c0.195,0.186,0.395,0.367,0.59,0.55c0.496,0.464,0.993,0.927,1.497,1.381  c0.271,0.247,0.548,0.487,0.823,0.73c0.439,0.39,0.88,0.775,1.326,1.157c0.296,0.251,0.59,0.502,0.889,0.751  c0.441,0.37,0.887,0.737,1.335,1.1c0.297,0.24,0.593,0.481,0.893,0.718c0.485,0.385,0.977,0.764,1.47,1.141  c0.261,0.2,0.523,0.404,0.787,0.602c0.746,0.56,1.497,1.113,2.259,1.654c0.153,0.11,0.31,0.213,0.464,0.321  c0.624,0.439,1.249,0.872,1.882,1.298c0.297,0.198,0.595,0.391,0.893,0.586c0.501,0.329,1.002,0.657,1.508,0.978  c0.329,0.208,0.658,0.412,0.988,0.617c0.491,0.303,0.985,0.604,1.48,0.898c0.333,0.198,0.667,0.397,1.001,0.591  c0.522,0.303,1.048,0.601,1.576,0.898c0.308,0.172,0.616,0.347,0.925,0.516c0.683,0.374,1.373,0.739,2.065,1.098  c0.156,0.081,0.311,0.166,0.47,0.248c0.837,0.43,1.681,0.845,2.531,1.253c0.3,0.144,0.604,0.281,0.904,0.423  c0.571,0.266,1.141,0.529,1.716,0.787c0.35,0.156,0.703,0.308,1.055,0.461c0.538,0.235,1.08,0.465,1.625,0.69  c0.359,0.15,0.72,0.297,1.083,0.442c0.558,0.225,1.119,0.442,1.683,0.658c0.343,0.131,0.686,0.265,1.032,0.392  c0.665,0.246,1.33,0.482,2.001,0.714c0.245,0.085,0.487,0.175,0.734,0.259c0.905,0.307,1.817,0.601,2.733,0.886  c0.277,0.085,0.555,0.164,0.833,0.248c0.656,0.197,1.314,0.391,1.975,0.577c0.358,0.101,0.718,0.196,1.08,0.292  c0.59,0.159,1.182,0.313,1.776,0.462c0.379,0.095,0.759,0.187,1.137,0.278c0.597,0.143,1.197,0.279,1.799,0.411  c0.364,0.081,0.73,0.162,1.098,0.239c0.672,0.141,1.349,0.272,2.027,0.4c0.293,0.056,0.586,0.115,0.88,0.168  c0.967,0.175,1.939,0.338,2.916,0.486c0.189,0.028,0.381,0.052,0.571,0.08c0.794,0.115,1.589,0.225,2.388,0.324  c0.35,0.043,0.701,0.08,1.051,0.12c0.649,0.073,1.299,0.144,1.951,0.206c0.383,0.037,0.767,0.07,1.153,0.102  c0.636,0.054,1.274,0.102,1.915,0.145c0.381,0.024,0.76,0.051,1.14,0.071c0.686,0.039,1.374,0.068,2.063,0.094  c0.33,0.012,0.658,0.028,0.989,0.038c1.014,0.028,2.031,0.045,3.052,0.045c0.002,0,0.004,0,0.007,0l0,0l0,0c0.002,0,0.004,0,0.007,0  c1.021,0,2.038-0.018,3.052-0.045c0.331-0.01,0.659-0.026,0.989-0.038c0.689-0.025,1.378-0.055,2.063-0.094  c0.381-0.02,0.76-0.047,1.14-0.071c0.64-0.043,1.278-0.091,1.915-0.145c0.385-0.032,0.77-0.065,1.153-0.102  c0.652-0.063,1.302-0.133,1.951-0.206c0.35-0.04,0.701-0.076,1.051-0.12c0.8-0.1,1.594-0.209,2.388-0.324  c0.19-0.028,0.382-0.052,0.571-0.08c0.977-0.15,1.949-0.311,2.916-0.486c0.295-0.053,0.586-0.113,0.88-0.168  c0.678-0.127,1.354-0.259,2.027-0.4c0.368-0.076,0.733-0.158,1.098-0.239c0.601-0.132,1.202-0.268,1.799-0.411  c0.38-0.091,0.76-0.183,1.137-0.278c0.594-0.148,1.185-0.302,1.776-0.462c0.361-0.096,0.721-0.192,1.08-0.292  c0.662-0.185,1.319-0.38,1.975-0.577c0.278-0.083,0.556-0.163,0.833-0.248c0.916-0.285,1.827-0.578,2.733-0.886  c0.246-0.084,0.49-0.174,0.734-0.259c0.67-0.233,1.337-0.468,2.001-0.714c0.347-0.127,0.688-0.261,1.032-0.392  c0.564-0.215,1.125-0.434,1.684-0.658c0.361-0.145,0.721-0.293,1.082-0.442c0.544-0.225,1.085-0.456,1.627-0.69  c0.351-0.153,0.703-0.305,1.053-0.461c0.575-0.257,1.144-0.522,1.714-0.787c0.301-0.142,0.605-0.279,0.905-0.423  c0.849-0.408,1.693-0.823,2.531-1.253c0.158-0.081,0.313-0.166,0.47-0.248c0.692-0.359,1.382-0.723,2.065-1.098  c0.309-0.168,0.617-0.344,0.925-0.516c0.528-0.297,1.054-0.594,1.576-0.898c0.336-0.195,0.668-0.393,1.001-0.591  c0.495-0.296,0.989-0.595,1.48-0.898c0.331-0.205,0.66-0.409,0.989-0.617c0.506-0.321,1.008-0.649,1.508-0.978  c0.298-0.195,0.596-0.389,0.893-0.586c0.631-0.426,1.259-0.858,1.882-1.298c0.154-0.109,0.311-0.212,0.464-0.321  c0.762-0.54,1.513-1.093,2.259-1.654c0.265-0.198,0.526-0.402,0.787-0.602c0.493-0.378,0.985-0.756,1.47-1.141  c0.299-0.238,0.596-0.478,0.893-0.718c0.447-0.363,0.894-0.73,1.335-1.1c0.299-0.249,0.594-0.498,0.888-0.751  c0.446-0.382,0.888-0.767,1.327-1.157c0.275-0.243,0.552-0.483,0.823-0.73c0.504-0.454,1.001-0.917,1.496-1.381  c0.196-0.184,0.396-0.364,0.591-0.55c0.674-0.642,1.341-1.294,2-1.954c0.205-0.207,0.405-0.418,0.611-0.625  c0.46-0.47,0.918-0.94,1.369-1.416c0.255-0.27,0.506-0.543,0.759-0.815c0.396-0.429,0.792-0.858,1.182-1.295  c0.258-0.287,0.514-0.575,0.766-0.864c0.385-0.439,0.765-0.88,1.144-1.325c0.241-0.284,0.483-0.567,0.721-0.854  c0.41-0.492,0.813-0.991,1.215-1.491c0.195-0.243,0.391-0.482,0.583-0.724c0.579-0.734,1.151-1.476,1.711-2.227  c0.017-0.02,0.031-0.04,0.047-0.061l0.009-0.016c5.062-6.789,9.341-14.195,12.702-22.086L356.127,313.568z"/>
<g>
	<path style="fill:#F4712F;" d="M67.212,298.645H27.364c-1.529,0-2.769,1.239-2.769,2.769v135.317   c0,12.513,10.179,22.692,22.693,22.692c12.513,0,22.693-10.179,22.693-22.692V301.414C69.981,299.884,68.74,298.645,67.212,298.645   z"/>
	<path style="fill:#F4712F;" d="M488.524,298.645h-39.848c-1.529,0-2.769,1.239-2.769,2.769v135.317   c0,12.513,10.179,22.692,22.693,22.692c12.513,0,22.693-10.179,22.693-22.692V301.414   C491.293,299.884,490.054,298.645,488.524,298.645z"/>
</g>
<g>
	<path style="fill:#D6E0E0;" d="M67.212,282.898H27.364c-4.587,0-8.306-3.718-8.306-8.306s3.719-8.306,8.306-8.306h39.848   c4.587,0,8.306,3.718,8.306,8.306C75.518,279.179,71.798,282.898,67.212,282.898z"/>
	<path style="fill:#D6E0E0;" d="M488.524,282.898h-39.848c-4.588,0-8.306-3.718-8.306-8.306s3.718-8.306,8.306-8.306h39.848   c4.587,0,8.306,3.718,8.306,8.306C496.831,279.179,493.112,282.898,488.524,282.898z"/>
</g>
<g>
	<path style="fill:#FFFFFF;" d="M202.459,279.309c-2.126,0-4.253-0.811-5.875-2.432c-3.243-3.244-3.243-8.503,0-11.746   l49.838-49.839c3.245-3.245,8.503-3.244,11.746-0.001c3.244,3.244,3.244,8.503,0.001,11.746l-49.838,49.839   C206.71,278.498,204.584,279.309,202.459,279.309z"/>
	<path style="fill:#FFFFFF;" d="M234.907,302.971c-2.126,0-4.253-0.811-5.874-2.432c-3.244-3.245-3.244-8.503,0-11.747   l68.148-68.148c3.244-3.243,8.503-3.243,11.746,0c3.245,3.245,3.245,8.503,0,11.747l-68.148,68.148   C239.157,302.159,237.032,302.971,234.907,302.971z"/>
	<path style="fill:#FFFFFF;" d="M213.566,324.312c-2.126,0-4.253-0.812-5.874-2.432c-3.244-3.245-3.244-8.503,0-11.747l2.956-2.956   c3.243-3.243,8.503-3.243,11.746,0c3.244,3.245,3.244,8.503,0,11.747l-2.956,2.956C217.817,323.501,215.69,324.312,213.566,324.312   z"/>
	<path style="fill:#FFFFFF;" d="M259.677,334.313c-2.125,0-4.251-0.811-5.873-2.432c-3.245-3.245-3.245-8.503,0-11.747l53.16-53.16   c3.244-3.243,8.503-3.243,11.746,0c3.244,3.245,3.244,8.503,0,11.747l-53.16,53.16C263.93,333.502,261.803,334.313,259.677,334.313   z"/>
</g>
<g>
	<path style="opacity:0.15;fill:#020202;enable-background:new    ;" d="M42.314,436.73V301.414c0-1.529,1.239-2.769,2.769-2.769   h-17.72c-1.529,0-2.769,1.239-2.769,2.769v135.317c0,12.513,10.179,22.692,22.693,22.692c3.141,0,6.136-0.643,8.86-1.803   C48.023,454.159,42.314,446.1,42.314,436.73z"/>
	<path style="opacity:0.15;fill:#020202;enable-background:new    ;" d="M463.628,436.73V301.414c0-1.529,1.239-2.769,2.769-2.769   h-17.72c-1.529,0-2.769,1.239-2.769,2.769v135.317c0,12.513,10.179,22.692,22.693,22.692c3.141,0,6.136-0.643,8.86-1.803   C469.337,454.159,463.628,446.1,463.628,436.73z"/>
</g>
<g>
</g>
<g>
</g>
<g>
</g>
<g>
</g>
<g>
</g>
<g>
</g>
<g>
</g>
<g>
</g>
<g>
</g>
<g>
</g>
<g>
</g>
<g>
</g>
<g>
</g>
<g>
</g>
<g>
</g>
</svg>
