<svg id="Capa_1" enable-background="new 0 0 511.999 511.999" height="512" viewBox="0 0 511.999 511.999" width="512" xmlns="http://www.w3.org/2000/svg"><g><g><path d="m401.806 171.566h-269.553v168.868h269.554c6.346 0 11.491-5.145 11.491-11.491 0-5.047 0-140.94 0-145.885 0-6.348-5.145-11.492-11.492-11.492z" fill="#95d6a4"/><path d="m134.655 328.942c0-4.946 0-140.838 0-145.885 0-6.346 5.145-11.491 11.492-11.491h-35.954c-6.347 0-11.492 5.145-11.492 11.491v145.885c0 6.346 5.145 11.491 11.492 11.491h35.954c-6.347.001-11.492-5.144-11.492-11.491z" fill="#78c2a4"/><path d="m267.643 172.384c-36.152 10.627-62.557 44.024-62.557 83.616s26.405 72.989 62.557 83.615c41.118-5.675 72.79-40.937 72.79-83.615 0-42.679-31.671-77.941-72.79-83.616z" fill="#ccf49f"/><path d="m207.248 256c0-40.508 28.533-74.338 66.592-82.528-5.753-1.238-11.718-1.906-17.841-1.906-46.632 0-84.434 37.802-84.434 84.434s37.802 84.434 84.434 84.434c6.123 0 12.088-.668 17.841-1.906-38.059-8.19-66.592-42.02-66.592-82.528z" fill="#b3e59f"/><g fill="#ecf4ff"><path d="m381.298 248.586h-7.908c-4.095 0-7.414 3.319-7.414 7.414s3.319 7.414 7.414 7.414h7.908c4.095 0 7.414-3.319 7.414-7.414s-3.319-7.414-7.414-7.414z"/><path d="m138.609 248.586h-7.908c-4.095 0-7.414 3.319-7.414 7.414s3.319 7.414 7.414 7.414h7.908c4.095 0 7.414-3.319 7.414-7.414s-3.319-7.414-7.414-7.414z"/></g></g><path d="m437.019 74.981c-51.491-51.491-119.459-76.459-186.931-74.911-48.045 10.052-93.811 33.709-131.11 71.008v.001c-25.599 25.598-44.778 55.184-57.544 86.757-31.074 61.54-31.067 134.876.031 196.406 12.766 31.543 31.935 61.101 57.512 86.678 37.299 37.299 83.065 60.956 131.11 71.008 67.472 1.549 135.439-23.419 186.93-74.91h.001c99.975-99.974 99.974-262.064.001-362.037zm-57.074 354.106c-83.118 59.589-199.836 52.069-274.469-22.564-74.634-74.633-82.153-191.351-22.564-274.469 4.126-5.755 12.423-6.455 17.431-1.448l281.051 281.051c5.006 5.007 4.306 13.304-1.449 17.43zm49.142-49.142c-4.126 5.755-12.423 6.455-17.43 1.448l-281.051-281.051c-5.007-5.007-4.307-13.304 1.448-17.43 83.117-59.589 199.836-52.07 274.469 22.564 74.634 74.633 82.153 191.352 22.564 274.469z" fill="#ff636e"/><g><path d="m122.369 437.019c-25.038-25.038-43.803-53.972-56.299-84.849-30.442-60.232-30.449-132.021-.03-192.262 12.497-30.907 31.271-59.868 56.329-84.926v-.001c43.954-43.954 99.915-68.575 157.325-73.879-73.17-6.762-148.693 17.858-204.713 73.878v.001c-99.974 99.974-99.974 262.064 0 362.038 56.02 56.02 131.543 80.641 204.713 73.879-57.41-5.305-113.371-29.926-157.325-73.879z" fill="#ff4654"/></g></g></svg>