<?xml version="1.0" encoding="iso-8859-1"?>
<!-- Generator: Adobe Illustrator 19.0.0, SVG Export Plug-In . SVG Version: 6.00 Build 0)  -->
<svg version="1.1" id="Capa_1" xmlns="http://www.w3.org/2000/svg" xmlns:xlink="http://www.w3.org/1999/xlink" x="0px" y="0px"
	 viewBox="0 0 512 512" style="enable-background:new 0 0 512 512;" xml:space="preserve">
<path style="fill:#FD3018;" d="M466.332,66.386c-29.502-29.502-68.727-45.748-110.449-45.748c-36.9,0-71.848,12.709-99.842,36.055
	c-27.994-23.346-62.943-36.055-99.842-36.055c-41.722,0-80.947,16.247-110.449,45.748C16.248,95.889,0,135.114,0,176.837
	s16.248,80.948,45.75,110.449c0.009,0.01,0.019,0.019,0.028,0.028c0.008,0.009,0.018,0.018,0.026,0.026l199.629,199.628
	c2.929,2.929,6.769,4.394,10.608,4.394c3.84,0,7.679-1.465,10.608-4.394l199.566-199.565c0.049-0.049,0.098-0.097,0.145-0.145
	c0.044-0.044,0.092-0.092,0.14-0.142C527.225,226.202,527.164,127.214,466.332,66.386z"/>
<path style="fill:#E61E14;" d="M466.332,66.386c-29.502-29.502-68.727-45.748-110.449-45.748c-36.9,0-71.848,12.709-99.842,36.055
	c-0.014-0.012-0.027-0.021-0.041-0.033V491.36c0.014,0,0.027,0.002,0.041,0.002c3.84,0,7.679-1.465,10.608-4.394l199.566-199.565
	c0.049-0.049,0.098-0.097,0.145-0.145c0.044-0.044,0.092-0.092,0.14-0.142C527.225,226.202,527.164,127.214,466.332,66.386z"/>
<g>
</g>
<g>
</g>
<g>
</g>
<g>
</g>
<g>
</g>
<g>
</g>
<g>
</g>
<g>
</g>
<g>
</g>
<g>
</g>
<g>
</g>
<g>
</g>
<g>
</g>
<g>
</g>
<g>
</g>
</svg>
