<svg id="Capa_1" enable-background="new 0 0 479.998 479.998" height="512" viewBox="0 0 479.998 479.998" width="512" xmlns="http://www.w3.org/2000/svg"><g><path d="m370.624 381.298c-1.919 0-3.839-.732-5.304-2.197-4.812-4.813-5.298-9.604-4.856-12.776 1.424-10.239 13.361-16.9 31.43-26.983 29.949-16.712 70.965-39.6 70.965-84.078 0-12.549-5.06-21.007-15.037-25.14-17.463-7.235-47.355.176-62.722 15.542-2.931 2.929-7.679 2.929-10.607 0-2.929-2.929-2.929-7.678 0-10.606 19.758-19.758 55.968-28.363 79.069-18.794 15.668 6.49 24.297 20.34 24.297 38.999 0 53.285-47.334 79.699-78.655 97.177-9.149 5.105-21.526 12.013-23.679 15.615.099.12.23.267.403.439 2.929 2.929 2.929 7.678 0 10.606-1.465 1.463-3.385 2.196-5.304 2.196z" fill="#7da2dc"/><path d="m387.731 206.898c-.15 3.48-.35 6.93-.6 10.37-.4 5.72-.93 11.39-1.58 17-13.83 119.49-82.42 210.28-164.95 210.28-88.73 0-161.34-104.93-167.13-237.65-.41-9.31 7.01-17.11 16.33-17.11h301.6c9.32 0 16.74 7.8 16.33 17.11z" fill="#7da2dc"/><path d="m220.599 444.548c-88.73 0-161.342-104.929-167.128-237.652-.406-9.316 7.007-17.108 16.332-17.108h79.006c0 140.7 32.14 254.76 71.79 254.76z" fill="#6d94c5"/><path d="m271.608 139.068c-27.025 27.035-65.311 35.915-99.771 26.723-9.192-34.46-.301-72.735 26.724-99.771 27.035-27.035 65.322-35.926 99.782-26.724 9.191 34.46.3 72.736-26.735 99.772z" fill="#77bf9a"/><path d="m298.342 39.296-126.506 126.495c-9.192-34.46-.301-72.735 26.724-99.771 27.035-27.035 65.322-35.926 99.782-26.724z" fill="#66a582"/><path d="m439.06 428.748c0 28.31-22.94 51.25-51.24 51.25h-334.43c-14.15 0-26.97-5.73-36.24-15.01-9.27-9.27-15.01-22.08-15.01-36.24z" fill="#bdc0c9"/><path d="m439.06 428.748c0 28.31-22.94 51.25-51.24 51.25h-230.94c-14.15 0-26.96-5.73-36.24-15.01-9.27-9.27-15.01-22.08-15.01-36.24z" fill="#d6d8e0"/><path d="m183.233 165.791h-.01c-43.943 11.729-92.753.395-127.233-34.085-34.471-34.471-45.805-83.29-34.076-127.234 43.943-11.729 92.763-.395 127.233 34.086 34.471 34.47 45.805 83.29 34.086 127.233z" fill="#77bf9a"/><path d="m183.223 165.791c-43.943 11.729-92.753.395-127.233-34.085-34.471-34.471-45.805-83.29-34.076-127.234z" fill="#66a582"/><path d="m387.131 217.268c-.4 5.72-.93 11.39-1.58 17h-257.8v-17z" fill="#6d94c5"/></g></svg>