<svg height="512pt" viewBox="-61 0 512 512" width="512pt" xmlns="http://www.w3.org/2000/svg"><path d="m195 151h-30c-74.441406 0-135-61.558594-135-136 0-8.289062 6.710938-15 15-15h30c74.441406 0 135 61.558594 135 136 0 8.289062-6.710938 15-15 15zm0 0" fill="#a8d32a"/><path d="m270 15c0 8.402344-6.597656 15-15 15-24.902344 0-45 21.097656-45 46v60c0 8.402344-6.597656 15-15 15s-15-6.597656-15-15v-60c0-16.800781 5.398438-33.402344 15-45.699219 13.5-18.300781 35.398438-30.300781 60-30.300781 8.402344 0 15 6.597656 15 15zm0 0" fill="#c6715a"/><path d="m270 15c0 8.402344-6.597656 15-15 15-24.902344 0-45 21.097656-45 46v60c0 8.402344-6.597656 15-15 15v-120.699219c13.5-18.300781 35.398438-30.300781 60-30.300781 8.402344 0 15 6.597656 15 15zm0 0" fill="#b35f49"/><path d="m0 316c0 107.402344 87.597656 196 195 196l30-31v-330l-30-30c-107.402344 0-195 87.597656-195 195zm0 0" fill="#ff9f00"/><path d="m360 316c0 91.128906-73.871094 165-165 165s-165-73.871094-165-165 73.871094-165 165-165 165 73.871094 165 165zm0 0" fill="#fed2a4"/><path d="m195 181c-74.441406 0-135 60.558594-135 135s60.558594 135 135 135c8.289062 0 15-6.710938 15-15v-240c0-8.289062-6.710938-15-15-15zm0 0" fill="#fdbf00"/><path d="m205.585938 305.375-114.796876-114.796875-21.210937 21.210937 89.210937 89.210938h-113.789062v30h117.347656l-85.664062 97.542969 23.058594 19.21875 106.785156-122.152344c5.101562-6.117187 4.390625-14.902344-.941406-20.234375zm0 0" fill="#fed2a4"/><path d="m195 121v391c107.402344 0 195-88.597656 195-196s-87.597656-195-195-195zm0 0" fill="#ff7816"/><g fill="#ff4b00"><path d="m330 256c0 8.285156-6.714844 15-15 15s-15-6.714844-15-15 6.714844-15 15-15 15 6.714844 15 15zm0 0"/><path d="m270 256c0 8.285156-6.714844 15-15 15s-15-6.714844-15-15 6.714844-15 15-15 15 6.714844 15 15zm0 0"/><path d="m300 226c0 8.285156-6.714844 15-15 15s-15-6.714844-15-15 6.714844-15 15-15 15 6.714844 15 15zm0 0"/></g></svg>