<svg id="Layer_1" enable-background="new 0 0 512 512" height="512" viewBox="0 0 512 512" width="512" xmlns="http://www.w3.org/2000/svg"><g><path d="m247.967 126.4c-8.284 0-15-6.716-15-15v-96.4c0-8.284 6.716-15 15-15s15 6.716 15 15v96.4c-.001 8.285-6.716 15-15 15z" fill="#14aa6b"/><path d="m352.633 126.4h-104.666c-6.067 0-11.537-3.654-13.858-9.26s-1.038-12.057 3.252-16.347c0 0 39.715-39.716 68.161-68.17 21.048-21.038 49.025-32.623 78.778-32.623h104.667c6.067 0 11.537 3.654 13.858 9.26s1.038 12.057-3.252 16.347l-68.163 68.163c-21.052 21.043-49.028 32.63-78.777 32.63z" fill="#87e752"/><path d="m247.967 512c-132.537 0-239.934-107.235-239.934-239.934 0-96.862 78.804-175.666 175.667-175.666h128.533c96.863 0 175.667 78.804 175.667 175.666 0 132.536-107.237 239.934-239.933 239.934z" fill="#dc2663"/><path d="m312.233 96.4h-64.267v415.6c132.697 0 239.934-107.398 239.934-239.934 0-96.862-78.804-175.666-175.667-175.666z" fill="#c1126b"/></g></svg>