<?xml version="1.0" encoding="iso-8859-1"?>
<!-- Generator: Adobe Illustrator 19.0.0, SVG Export Plug-In . SVG Version: 6.00 Build 0)  -->
<svg xmlns="http://www.w3.org/2000/svg" xmlns:xlink="http://www.w3.org/1999/xlink" version="1.1" id="Layer_1" x="0px" y="0px" viewBox="0 0 512.003 512.003" style="enable-background:new 0 0 512.003 512.003;" xml:space="preserve">
<path style="fill:#FDDD85;" d="M256.002,0C164.008,0,89.433,53.726,89.433,120c0,54.711,50.826,100.866,120.315,115.308v36.975  c0,2.839,2.302,5.141,5.141,5.141h16.307v220.182c0,2.005,1.166,3.827,2.986,4.668l20.048,9.255c1.389,0.641,2.99,0.631,4.37-0.028  l19.281-9.208c1.787-0.853,2.926-2.658,2.926-4.639V470.02c0-1.602-0.747-3.112-2.019-4.085l-6.453-4.932  c-2.577-1.97-2.709-5.805-0.272-7.946l6.997-6.15c1.111-0.976,1.747-2.383,1.747-3.862v-30.264c0-1.791-0.932-3.452-2.459-4.386  l-8.494-5.193c-3.163-1.934-3.301-6.477-0.263-8.6l9.02-6.303c1.376-0.962,2.196-2.535,2.196-4.214V277.424h16.307  c2.839,0,5.141-2.302,5.141-5.141v-36.986c46.282-9.62,84.292-33.295,104.511-64.211c10.137-15.5,15.804-32.816,15.804-51.085  C422.57,53.726,347.995,0,256.002,0z"/>
<ellipse style="fill:#FDD042;" cx="256.001" cy="120" rx="133.07" ry="95.87"/>
<ellipse style="fill:#FFFFFF;" cx="256.001" cy="60.893" rx="36.02" ry="25.953"/>
<g>
</g>
<g>
</g>
<g>
</g>
<g>
</g>
<g>
</g>
<g>
</g>
<g>
</g>
<g>
</g>
<g>
</g>
<g>
</g>
<g>
</g>
<g>
</g>
<g>
</g>
<g>
</g>
<g>
</g>
</svg>
