<svg id="icons" enable-background="new 0 0 64 64" height="512" viewBox="0 0 64 64" width="512" xmlns="http://www.w3.org/2000/svg"><path d="m36.01 23h-8.01-11.14c-1.58-.07-2.851-1.39-2.851-2.99v-16.01c0-1.65 1.351-3 3-3h29v22z" fill="#5d9cec"/><path d="m16.86 21.006h29.149v2h-29.149z" fill="#656d78"/><path d="m57.04 24.001h-.04-9.83c-.05.01-.11.01-.16.01h-1-10-8.01-10.99c-.05 0-.1 0-.149-.01h-9.861c-1.1 0-2 .89-2 2v30.999h20 14 20v-30.999c0-1.1-.87-1.98-1.96-2z" fill="#5d9cec"/><path d="m5.001 26.999c-.553 0-1-.447-1-1 0-1.654 1.346-3 3-3 .553 0 1 .447 1 1s-.447 1-1 1c-.552 0-1 .448-1 1 0 .553-.447 1-1 1z" fill="#545c66"/><path d="m5.001 57.995c-.553 0-1-.447-1-1v-30.996c0-.553.447-1 1-1s1 .447 1 1v30.996c0 .553-.447 1-1 1z" fill="#545c66"/><path d="m59.001 26.999c-.553 0-1-.447-1-1 0-.552-.448-1-1-1-.553 0-1-.447-1-1s.447-1 1-1c1.654 0 3 1.346 3 3 0 .553-.447 1-1 1z" fill="#545c66"/><path d="m59.001 57.995c-.553 0-1-.447-1-1v-30.996c0-.553.447-1 1-1s1 .447 1 1v30.996c0 .553-.447 1-1 1z" fill="#545c66"/><path d="m57.042 24.999h-50.041c-.553 0-1-.447-1-1s.447-1 1-1h50.041c.553 0 1 .447 1 1s-.447 1-1 1z" fill="#545c66"/><path d="m59 57h-20-14-20-2.998l-1.002.996v3.004c0 1.11.9 2 2 2h58c1.11 0 2-.89 2-2v-3.004l-1-.996z" fill="#656d78"/><path d="m39 56.999v1c0 .55-.45 1-1 1h-12c-.55 0-1-.45-1-1v-1" fill="#545c66"/><path d="m23.07 41.01c.489-4.5 4.31-8 8.939-8 3.91 0 7.25 2.51 8.48 6.01 3.091.25 5.511 2.83 5.511 5.98 0 3.31-2.68 6-6 6h-17c-2.75 0-4.99-2.24-4.99-5 0-2.75 2.24-4.99 4.99-4.99z" fill="#f5f7fa"/><path d="m47.01 1c1.65 0 3 1.35 3 3v16.01c0 1.601-1.26 2.91-2.84 2.99h-1.16v-22z" fill="#656d78"/><g fill="#e6e9ed"><path d="m28.002 30.004c-.553 0-1-.447-1-1v-11.996c0-.553.447-1 1-1s1 .447 1 1v11.996c0 .553-.447 1-1 1z"/><path d="m30 20.006c-.256 0-.512-.098-.707-.293l-1.998-1.998c-.391-.391-.391-1.023 0-1.414s1.023-.391 1.414 0l1.998 1.998c.391.391.391 1.023 0 1.414-.195.195-.451.293-.707.293z"/><path d="m26.004 20.006c-.256 0-.512-.098-.707-.293-.391-.391-.391-1.023 0-1.414l1.998-1.998c.391-.391 1.023-.391 1.414 0s.391 1.023 0 1.414l-1.998 1.998c-.195.195-.451.293-.707.293z"/><path d="m36.01 30.004c-.553 0-1-.447-1-1v-11.996c0-.553.447-1 1-1s1 .447 1 1v11.996c0 .553-.447 1-1 1z"/><path d="m36.01 30.004c-.256 0-.512-.098-.707-.293l-1.998-1.998c-.391-.391-.391-1.023 0-1.414s1.023-.391 1.414 0l1.998 1.998c.391.391.391 1.023 0 1.414-.196.195-.451.293-.707.293z"/><path d="m36.01 30.004c-.256 0-.512-.098-.707-.293-.391-.391-.391-1.023 0-1.414l1.998-1.998c.391-.391 1.023-.391 1.414 0s.391 1.023 0 1.414l-1.998 1.998c-.196.195-.451.293-.707.293z"/></g><path d="m48.036 13.009c-.553 0-1.005-.447-1.005-1s.442-1 .994-1h.011c.552 0 1 .447 1 1s-.448 1-1 1z" fill="#ccd1d9"/><path d="m14.01 4v16.01c0 1.601 1.271 2.92 2.851 2.99v-21.984c-1.58.08-2.851 1.384-2.851 2.984z" fill="#656d78"/><path d="m16.86 1.008h29.149v2h-29.149z" fill="#656d78"/><circle cx="2.001" cy="57.995" fill="#656d78" r="1"/><circle cx="62" cy="57.995" fill="#656d78" r="1"/></svg>