<?xml version="1.0" encoding="iso-8859-1"?>
<!-- Generator: Adobe Illustrator 19.0.0, SVG Export Plug-In . SVG Version: 6.00 Build 0)  -->
<svg xmlns="http://www.w3.org/2000/svg" xmlns:xlink="http://www.w3.org/1999/xlink" version="1.1" id="Capa_1" x="0px" y="0px" viewBox="0 0 512 512" style="enable-background:new 0 0 512 512;" xml:space="preserve">
<path style="fill:#C5C9F7;" d="M376,0H76C51.099,0,31,20.099,31,45v362c0,24.899,20.099,45,45,45c3.3,0,62.401-0.3,210-0.3h120  c8.401,0,15-6.601,15-15V45C421,20.099,400.901,0,376,0z"/>
<path style="fill:#A8AFF1;" d="M421,45v391.7c0,8.399-6.599,15-15,15H286V0h90C400.901,0,421,20.099,421,45z"/>
<path style="fill:#E1E4FB;" d="M436,60H196c-8.401,0-15,6.599-15,15v75h-75c-8.401,0-15,6.599-15,15v302c0,24.899,20.099,45,45,45  h300c24.901,0,45-20.101,45-45V105C481,80.099,460.901,60,436,60z"/>
<path style="fill:#C5C9F7;" d="M481,105v362c0,24.899-20.099,45-45,45H286V60h150C460.901,60,481,80.099,481,105z"/>
<path style="fill:#A8AFF1;" d="M211,165c0,8.291-6.709,15-15,15H91v-32.695c0-11.763,4.775-23.291,13.096-31.611l42.598-42.598  C155.014,64.775,166.542,60,178.305,60H211V165z"/>
<g>
	<path style="fill:#17ACE8;" d="M406,242H166c-19.799,0-19.799-30,0-30h240C425.799,212,425.799,242,406,242z"/>
	<path style="fill:#17ACE8;" d="M406,302H166c-19.799,0-19.799-30,0-30h240C425.799,272,425.799,302,406,302z"/>
	<path style="fill:#17ACE8;" d="M406,362H166c-19.799,0-19.799-30,0-30h240C425.799,332,425.799,362,406,362z"/>
	<path style="fill:#17ACE8;" d="M406,422H166c-19.799,0-19.799-30,0-30h240C425.799,392,425.799,422,406,422z"/>
</g>
<g>
	<path style="fill:#1689FC;" d="M406,422H286v-30h120C425.799,392,425.799,422,406,422z"/>
	<path style="fill:#1689FC;" d="M406,362H286v-30h120C425.799,332,425.799,362,406,362z"/>
	<path style="fill:#1689FC;" d="M406,302H286v-30h120C425.799,272,425.799,302,406,302z"/>
	<path style="fill:#1689FC;" d="M406,242H286v-30h120C425.799,212,425.799,242,406,242z"/>
</g>
<g>
</g>
<g>
</g>
<g>
</g>
<g>
</g>
<g>
</g>
<g>
</g>
<g>
</g>
<g>
</g>
<g>
</g>
<g>
</g>
<g>
</g>
<g>
</g>
<g>
</g>
<g>
</g>
<g>
</g>
</svg>
