<svg id="Layer_1" enable-background="new 0 0 512 512" height="512" viewBox="0 0 512 512" width="512" xmlns="http://www.w3.org/2000/svg"><g><g><path d="m298.796 399.697h-31.906c-8.287 0-15.004-6.716-15.004-15s6.718-15 15.004-15h31.906c12.602 0 22.854-10.25 22.854-22.848v-41.146c0-8.284 6.718-15 15.004-15s15.004 6.716 15.004 15v41.146c.001 29.14-23.713 52.848-52.862 52.848z" fill="#61330d"/></g><path d="m357.964 487.162-34.045-24.135c-26.941-19.098-43.025-50.211-43.025-83.229v-87.574c0-.84-.681-1.521-1.522-1.521h-128.741c-.84 0-1.522.681-1.522 1.521v94.54c0 28.705-13.918 55.629-37.34 72.233l-39.739 28.171c-.279.198-.514.462-.671.767-6.575 12.819 2.084 24.065 12.742 24.065h261.802c10.659 0 19.32-11.248 12.734-24.069-.157-.306-.393-.571-.673-.769z" fill="#9d4f14"/><path d="m354.582 484.764-30.662-21.737c-26.941-19.098-43.025-50.211-43.025-83.229v-74.096c0-8.284-6.718-15-15.004-15h-50.889v221.298h130.901c6.532 0 12.314-4.225 14.296-10.447 1.983-6.222-.288-13.011-5.617-16.789z" fill="#804012"/><path d="m426.665 150.083h-74.129c-8.055 0-14.609-6.552-14.609-14.604v-24.164c.001-61.38-49.949-111.315-111.345-111.315s-111.346 49.935-111.346 111.314v24.164c0 8.053-6.553 14.604-14.608 14.604h-15.294c-47.053.001-85.334 38.271-85.334 85.311 0 47.041 38.281 85.311 85.334 85.311h341.331c47.053 0 85.335-38.27 85.335-85.311 0-47.04-38.281-85.31-85.335-85.31z" fill="#00b9a0"/><g><ellipse cx="185.223" cy="103.981" fill="#ffd92e" rx="15.001" ry="14.997"/></g><g><ellipse cx="86.057" cy="234.386" fill="#ffd92e" rx="15.001" ry="14.997"/></g><path d="m426.665 150.083h-74.129c-8.055 0-14.609-6.552-14.609-14.604v-24.164c.001-61.38-49.949-111.315-111.345-111.315-3.91 0-7.773.205-11.58.6v320.103h211.663c47.053 0 85.335-38.27 85.335-85.311 0-47.039-38.281-85.309-85.335-85.309z" fill="#009398"/><g><ellipse cx="271.019" cy="180.528" fill="#fb3" rx="15.001" ry="14.997"/></g><g><ellipse cx="380.353" cy="242.273" fill="#fb3" rx="15.001" ry="14.997"/></g><g><ellipse cx="186.019" cy="242.273" fill="#ffd92e" rx="15.001" ry="14.997"/></g></g></svg>