<svg id="Capa_1" enable-background="new 0 0 512 512" height="512" viewBox="0 0 512 512" width="512" xmlns="http://www.w3.org/2000/svg"><g><g><path d="m0 0v290.936h165.905v94.689l54.786-51.24 13.829-174.955-13.829-159.43z" fill="#ecfaff"/><path d="m220.691 0v334.385l46.455-43.449h85.525l88.71-82.985v-207.951z" fill="#c4e6fe"/></g><path d="m189.443 129.616-50.762-15.917-30.948-43.184-30.7 43.184-50.765 15.917 31.713 42.715-.548 53.05 50.3-16.771 50.545 16.918-.547-53.197z" fill="#fff06d"/><g><path d="m256.99 195.839h105.516v29.845h-105.516z" fill="#a6caee"/></g><g><path d="m256.99 136.697h105.516v29.845h-105.516z" fill="#a6caee"/></g><g><path d="m256.99 77.003h105.516v29.845h-105.516z" fill="#a6caee"/></g><g><path d="m183.833 433.279-13.635 78.721 40.805-18.272 18.273-40.806z" fill="#a071ff"/><path d="m232.384 454.266-3.108-1.344-59.078 59.078 78.722-13.634z" fill="#73f"/></g><g><path d="m397.834 236.528-19.625 2.215-194.343 194.342-.033.194 32.543 32.543 125.707-97.229 79.669-108.147z" fill="#73f"/><path d="m216.376 465.822 32.544 32.544.192-.033 205.264-205.264-32.624-32.623z" fill="#5f29cc"/></g><g><path d="m465.863 170.198c-12.324 0-23.909 4.799-32.623 13.514l-33.928 33.927-5.225 15.141 27.665 27.665 51.742-23.34 24.992-53.395c-8.714-8.713-20.3-13.512-32.623-13.512z" fill="#5f29cc"/><path d="m498.487 183.711-76.734 76.735 32.623 32.623 44.11-44.11c8.714-8.715 13.514-20.3 13.514-32.624s-4.799-23.91-13.513-32.624c0 .001 0 .001 0 0z" fill="#3c1980"/></g><g><path d="m399.313 217.639-21.104 21.104 32.623 32.623h21.841l-.737-21.103z" fill="#fff06d"/></g><path d="m410.832 271.366 52.456 52.457-56.517 56.517 21.104 21.103 77.62-77.62-73.559-73.56z" fill="#fed943"/></g></svg>