<svg id="Capa_1" enable-background="new 0 0 512.01 512.01" height="512" viewBox="0 0 512.01 512.01" width="512" xmlns="http://www.w3.org/2000/svg"><g><path d="m119 144.005v224c0 8.28-6.72 15-15 15h-89c-8.28 0-15-6.72-15-15v-224c0-8.28 6.72-15 15-15h89c8.28 0 15 6.72 15 15z" fill="#425796"/><path d="m119 256.005v112c0 8.28-6.72 15-15 15h-89c-8.28 0-15-6.72-15-15v-112z" fill="#283758"/><path d="m303 85.385v341.24c0 35.106-38.363 56.702-68.4 38.44l-134.6-81.94v-254.24l134.6-81.94c29.979-18.247 68.4 3.294 68.4 38.44z" fill="#eef4ff"/><path d="m303 256.005v170.62c0 35.106-38.363 56.702-68.4 38.44l-134.6-81.94v-127.12z" fill="#d9e6fc"/><path d="m382.97 256.005c0 14.08-5.36 28.17-16.08 38.89-5.82 5.82-15.33 5.88-21.21 0-5.86-5.86-5.86-15.35 0-21.21 4.88-4.88 7.33-11.28 7.33-17.68s-2.45-12.8-7.33-17.68c-5.86-5.86-5.86-15.35 0-21.21s15.35-5.86 21.21 0c10.72 10.72 16.08 24.81 16.08 38.89z" fill="#dd5958"/><path d="m353.01 256.005h29.96c0 14.08-5.36 28.17-16.08 38.89-5.82 5.82-15.33 5.88-21.21 0-5.86-5.86-5.86-15.35 0-21.21 4.88-4.88 7.33-11.28 7.33-17.68z" fill="#d8225b"/><path d="m446.94 256.005c0 30.47-11.6 60.95-34.79 84.15-5.87 5.85-15.35 5.85-21.22 0-5.86-5.86-5.86-15.36 0-21.22 17.35-17.35 26.03-40.14 26.03-62.93s-8.68-45.58-26.03-62.93c-5.86-5.86-5.86-15.36 0-21.22 5.86-5.85 15.36-5.85 21.22 0 23.19 23.2 34.79 53.68 34.79 84.15z" fill="#ffe278"/><path d="m446.94 256.005c0 30.47-11.6 60.95-34.79 84.15-5.87 5.85-15.35 5.85-21.22 0-5.86-5.86-5.86-15.36 0-21.22 17.35-17.35 26.03-40.14 26.03-62.93z" fill="#ffb454"/><path d="m512.01 256.005c0 46.48-18.19 92.98-54.61 129.4-5.82 5.82-15.33 5.88-21.21 0-5.86-5.86-5.86-15.35 0-21.21 30.33-30.33 45.49-69.26 45.49-108.19s-15.16-77.86-45.49-108.19c-5.86-5.86-5.86-15.35 0-21.21 5.85-5.86 15.35-5.86 21.21 0 36.4 36.4 54.61 82.89 54.61 129.4z" fill="#94dfda"/><path d="m512.01 256.005c0 46.48-18.19 92.98-54.61 129.4-5.82 5.82-15.33 5.88-21.21 0-5.86-5.86-5.86-15.35 0-21.21 30.33-30.33 45.49-69.26 45.49-108.19z" fill="#61a7c5"/></g></svg>