<svg id="Capa_1" enable-background="new 0 0 507.871 507.871" height="512" viewBox="0 0 507.871 507.871" width="512" xmlns="http://www.w3.org/2000/svg"><g><path d="m9.338 173.286c12.451-12.451 32.639-12.451 45.09 0l152.842 152.841-45.09 45.09-152.842-152.842c-12.451-12.451-12.451-32.638 0-45.089z" fill="#bd8472"/><g><path d="m4.388 312 10.831 58.041c12.204 65.401 69.287 112.817 135.817 112.817h104.964l10-69.795-10-101.063z" fill="#beebfa"/><path d="m256 312v170.858h105.224c66.53 0 123.612-47.416 135.817-112.817l10.83-58.041z" fill="#96c8ef"/></g><g><path d="m13.488 360.767 1.731 9.274c1.332 7.136 3.198 14.057 5.552 20.726h235.229l10-15-10-15z" fill="#96c8ef"/><path d="m256 360.767v30h235.489c2.354-6.669 4.22-13.59 5.552-20.726l1.73-9.274z" fill="#78b9eb"/></g><g><path d="m206.044 229.063-27.382-12.256.095-.211c3.017-6.604 3.017-19.092 0-25.696l-.058-.128c-6.61-14.47-6.61-36.235-.018-50.667l.046-.101c3.047-6.67 3.047-19.158.03-25.764l-.058-.126 27.29-12.46.055.121c6.593 14.432 6.593 36.197 0 50.629l-.045.1c-3.046 6.67-3.046 19.159-.029 25.764l.057.127c6.61 14.47 6.61 36.236.017 50.668z" fill="#ffe477"/></g><g><g><g><path d="m333.53 229.168-27.306-12.427.038-.083c3.045-6.665 3.045-19.154.028-25.759l-.076-.166c-6.592-14.431-6.592-36.195-.001-50.627l.049-.106c3.044-6.664 3.044-19.154.027-25.76l27.202-12.651.087.188c6.591 14.431 6.591 36.196 0 50.627l-.077.167c-3.017 6.604-3.017 19.093 0 25.697l.076.166c6.592 14.432 6.592 36.196 0 50.628z" fill="#ffb655"/></g></g></g><g><path d="m256.167 31.351-.024-.052-13.619 6.285c3.017 6.604 3.017 19.094-.028 25.759l-.048.105c-6.592 14.431-6.593 36.196.018 50.667l.058.126c3.017 6.604 3.017 19.095.001 25.697l-.077.167c-6.592 14.432-6.592 36.197.018 50.667l.058.127c3.017 6.604 3.017 19.094.01 25.676l-.106.232 13.667 6.18.034-.075.038-.083 7.451-19.1 2.715-70-2.715-96z" fill="#ffe477"/><path d="m269.812 152.405c6.592-14.432 6.592-36.197 0-50.629l-.076-.165c-3.017-6.604-3.017-19.094.027-25.759l.049-.105c6.593-14.432 6.593-36.196 0-50.628l-.049-.105-13.619 6.285.024.052c4.814 10.539 4.814 27.625 0 38.163l-.038.083-.038.083c-4.814 10.539-4.814 27.625 0 38.164l.038.083.038.083c4.814 10.539 4.814 27.625 0 38.163l-.038.083-.038.083c-4.814 10.539-4.814 27.625 0 38.164l.038.083.038.083c4.814 10.539 4.814 27.625 0 38.164l-.038.083-.034.075 13.667 6.18.049-.105c6.593-14.432 6.593-36.196-.019-50.667l-.058-.127c-3.017-6.604-3.017-19.094 0-25.698z" fill="#ffb655"/></g></g></svg>