<svg height="512pt" viewBox="0 -43 512 511" width="512pt" xmlns="http://www.w3.org/2000/svg"><path d="m512 181.078125v173.382813c0 9.617187-7.828125 17.460937-17.449219 17.460937h-477.101562c-9.621094 0-17.449219-7.84375-17.449219-17.460937v-297.621094c0-31.070313 25.230469-56.339844 56.25-56.339844h257.679688c13.050781 0 23.832031 9.941406 25.160156 22.671875l.140625 40.859375h77.847656c10.421875 0 22.140625 5.796875 28.492187 14.097656l57.167969 75.332032c5.371094 7.078124 9.261719 18.699218 9.261719 27.617187zm0 0" fill="#ffdb28"/><path d="m512 181.078125v173.382813c0 9.617187-7.828125 17.460937-17.449219 17.460937h-238.582031v-371.421875h57.960938c13.050781 0 23.832031 9.941406 25.160156 22.671875l.140625 40.859375h77.847656c10.421875 0 22.140625 5.796875 28.492187 14.097656l57.167969 75.332032c5.371094 7.078124 9.261719 18.699218 9.261719 27.617187zm0 0" fill="#ffbf00"/><path d="m502.738281 153.460938-57.167969-75.332032c-6.351562-8.300781-18.070312-14.097656-28.492187-14.097656h-77.847656l-.140625 127.1875h172.910156v-10.140625c0-8.917969-3.890625-20.539063-9.261719-27.617187zm0 0" fill="#88d9f5"/><path d="m132.335938 288.335938c-37.75 0-68.460938 30.765624-68.460938 68.582031 0 37.816406 30.710938 68.582031 68.460938 68.582031s68.460937-30.765625 68.460937-68.582031c0-37.816407-30.710937-68.582031-68.460937-68.582031zm0 0" fill="#57545c"/><path d="m377.695312 288.335938c-37.75 0-68.460937 30.765624-68.460937 68.582031 0 37.816406 30.710937 68.582031 68.460937 68.582031 37.746094 0 68.457032-30.765625 68.457032-68.582031 0-37.816407-30.710938-68.582031-68.457032-68.582031zm0 0" fill="#3a373f"/><path d="m236.265625 95.933594c-.476563-10.09375-8.441406-18.070313-18.550781-18.558594-2.019532-.09375-20.324219-.824219-42.0625 2.335938-30.304688 4.40625-53.109375 14.09375-67.773438 28.792968-12.976562 13.007813-20.121094 30.3125-20.121094 48.734375s7.144532 35.726563 20.121094 48.730469c12.980469 13.015625 30.265625 20.179688 48.671875 20.179688 18.402344 0 35.6875-7.164063 48.671875-20.175782 33.640625-33.71875 31.410156-102.261718 31.042969-110.039062zm0 0" fill="#76d400"/><path d="m83.050781 245.90625c-3.832031 0-7.664062-1.460938-10.59375-4.382812-5.863281-5.851563-5.875-15.347657-.023437-21.210938l85.5-85.695312c5.851562-5.863282 15.347656-5.875 21.210937-.023438 5.867188 5.851562 5.875 15.347656.027344 21.214844l-85.5 85.691406c-2.929687 2.9375-6.777344 4.40625-10.621094 4.40625zm0 0" fill="#00bd00"/></svg>