<svg id="Layer_1" enable-background="new 0 0 512 512" height="512" viewBox="0 0 512 512" width="512" xmlns="http://www.w3.org/2000/svg"><g><path d="m472 96v126.38c0 131.359-85.071 249.691-213.65 289.27-1.51.457-3.129.476-4.7 0-125.819-38.729-213.65-155.006-213.65-289.27v-126.38c0-3.21 1.92-6.12 4.88-7.37l208-88c2-.84 4.24-.84 6.24 0l208 88c2.96 1.25 4.88 4.16 4.88 7.37z" fill="#7acef9"/><path d="m467.12 88.63-208-88c-2-.84-4.24-.84-6.24 0l-16.88 7.141 191.12 80.859c2.96 1.25 4.88 4.16 4.88 7.37v126.38c0 128.246-80.131 239.773-196 283.246 2.521.946 17.264 6.374 20 6.374.79 0 1.59-.12 2.35-.35 125.819-38.729 213.65-155.006 213.65-289.27v-126.38c0-3.21-1.92-6.12-4.88-7.37z" fill="#6cb9e7"/><path d="m424 128v102.24c0 100.992-61.427 191.763-155.22 229.26-10.047 4.025-11.831 5.318-15.42 4.05-98.91-34.62-165.36-128.28-165.36-233.07v-102.48c0-3.15 1.85-6 4.72-7.29l160-72c2.08-.94 4.47-.94 6.56 0l160 72c2.87 1.29 4.72 4.14 4.72 7.29z" fill="#edebfd"/><path d="m419.28 120.71-160-72c-2.09-.94-4.48-.94-6.56 0l-16.72 7.524 143.28 64.476c2.87 1.29 4.72 4.14 4.72 7.29v102.24c0 99.402-59.302 187.639-148.289 226.356 5.759 2.527 11.643 4.851 17.649 6.953 3.737 1.32 6.097-.315 15.42-4.05 93.775-37.489 155.22-128.244 155.22-229.259v-102.24c0-3.15-1.85-6-4.72-7.29z" fill="#d2d2fc"/><path d="m361.66 209.66-104.69 104.68c-9.366 9.387-24.585 9.376-33.94 0l-56.69-56.68c-9.678-9.699-9.825-25.475 0-35.32 9.74-9.73 25.58-9.73 35.32 0l38.34 38.35 86.34-86.35c9.74-9.73 25.58-9.73 35.32 0 9.73 9.74 9.73 25.58 0 35.32z" fill="#7acef9"/><path d="m361.66 174.34c-8.163-8.155-20.609-9.471-30.16-3.956 14.239 8.22 16.693 27.731 5.16 39.276-114.853 114.841-105.682 106.075-109.16 108.207 9.026 5.529 21.325 4.636 29.47-3.527l104.69-104.68c9.73-9.74 9.73-25.58 0-35.32z" fill="#6cb9e7"/></g></svg>