<svg id="color" enable-background="new 0 0 24 24" height="512" viewBox="0 0 24 24" width="512" xmlns="http://www.w3.org/2000/svg"><g><g><path d="m22 7v10h-2v-10h-.32l1.56-1.56c.46.36.76.93.76 1.56z" fill="#607d8b"/></g></g><g><g><path d="m4 5h2.89c-.47.59-.84 1.26-1.07 2h-1.82v10h-2v-10c0-1.1.9-2 2-2z" fill="#607d8b"/></g></g><g><g><path d="m23 17h-22c-.553 0-1 .447-1 1s.447 1 1 1h22c.553 0 1-.447 1-1s-.447-1-1-1z" fill="#90a4ae"/></g></g><g><g><path d="m20 7v10h-16v-10h1.82c-.21.63-.32 1.3-.32 2 0 3.58 2.92 6.5 6.5 6.5s6.5-2.92 6.5-6.5c0-.38-.04-.75-.1-1.11.35-.1.68-.29.939-.55l.341-.34z" fill="#fafafa"/></g></g><g><g><path d="m6.89 5h-2.89c-1.1 0-2 .9-2 2v10h2v-10h1.82c.23-.74.6-1.41 1.07-2z" fill="#546d79"/></g></g><g><g><path d="m12 17h-8-2-1c-.553 0-1 .447-1 1s.447 1 1 1h11z" fill="#7d8f97"/></g></g><g><g><path d="m5.82 7h-1.82v10h8v-1.5c-3.58 0-6.5-2.92-6.5-6.5 0-.7.11-1.37.32-2z" fill="#dadada"/></g></g><g><g><path d="m12 4c-2.757 0-5 2.243-5 5s2.243 5 5 5 5-2.243 5-5-2.243-5-5-5z" fill="#fafafa"/></g></g><g><g><path d="m12 14c-2.757 0-5-2.243-5-5s2.243-5 5-5 5 2.243 5 5-2.243 5-5 5zm0-8.5c-1.93 0-3.5 1.57-3.5 3.5s1.57 3.5 3.5 3.5 3.5-1.57 3.5-3.5-1.57-3.5-3.5-3.5z" fill="#f44336"/></g></g><g><g><path d="m13.75 9c0 .966-.783 1.75-1.75 1.75s-1.75-.784-1.75-1.75.783-1.75 1.75-1.75 1.75.784 1.75 1.75z" fill="#f44336"/></g></g><g><g><path d="m12 9.75c-.192 0-.384-.073-.53-.22-.293-.293-.293-.768 0-1.061l3-3c.293-.293.768-.293 1.061 0s.293.768 0 1.061l-3 3c-.147.147-.34.22-.531.22z" fill="#607d8b"/></g></g><g><g><path d="m17.75 6.5h-2.5c-.414 0-.75-.336-.75-.75v-2.5c0-.199.079-.39.22-.53l2.5-2.5c.215-.215.537-.278.817-.163.28.116.463.39.463.693v1.75h1.75c.303 0 .576.183.692.463s.052.603-.162.817l-2.5 2.5c-.14.141-.332.22-.53.22z" fill="#2196f3"/></g></g><g><g><path d="m12 5.5c-1.93 0-3.5 1.57-3.5 3.5 0 .965.393 1.84 1.026 2.474l1.236-1.236c-.316-.317-.512-.755-.512-1.238 0-.966.783-1.75 1.75-1.75.206 0 .404.036.588.101l1.298-1.298c-.544-.35-1.192-.553-1.886-.553z" fill="#dadada"/></g></g><g><g><path d="m12 4c-2.757 0-5 2.243-5 5 0 1.378.561 2.628 1.466 3.534l1.06-1.06c-.633-.634-1.026-1.509-1.026-2.474 0-1.93 1.57-3.5 3.5-3.5.694 0 1.342.203 1.886.553l.584-.583c.01-.01.02-.019.03-.029v-.77c-.736-.426-1.59-.671-2.5-.671z" fill="#d43a2f"/></g></g><g><g><path d="m12 7.25c-.967 0-1.75.784-1.75 1.75 0 .483.196.921.513 1.237l.707-.707c-.293-.293-.293-.768 0-1.061l1.118-1.118c-.184-.065-.382-.101-.588-.101z" fill="#d43a2f"/></g></g><g><g><path d="m14.5 5.441c-.01.009-.02.019-.03.029l-.583.583-1.298 1.298-1.119 1.119c-.293.293-.293.768 0 1.061l3.25-3.25c-.136-.136-.22-.323-.22-.53z" fill="#546d79"/></g></g><g><g><path d="m17.75 0c-.195 0-.387.076-.53.22l-2.5 2.5c-.141.14-.22.331-.22.53v1.421.77.309c0 .207.084.395.22.53l3.78-3.78v-1.75c0-.303-.183-.577-.463-.693-.093-.038-.19-.057-.287-.057z" fill="#1d83d4"/></g></g></svg>