<svg id="Capa_1" enable-background="new 0 0 512 512" height="512" viewBox="0 0 512 512" width="512" xmlns="http://www.w3.org/2000/svg"><g><g><path d="m421.161 69.448h-312.264v195.625h312.265c7.352 0 13.312-5.96 13.312-13.312 0-5.847 0-163.272 0-169.001 0-7.352-5.961-13.312-13.313-13.312z" fill="#78c2a4"/><path d="m111.68 251.761c0-5.73 0-163.154 0-169.001 0-7.352 5.96-13.312 13.312-13.312h-41.651c-7.352 0-13.312 5.96-13.312 13.312v169.001c0 7.352 5.96 13.312 13.312 13.312h41.651c-7.352 0-13.312-5.96-13.312-13.312z" fill="#66b394"/><path d="m265.74 70.396c-41.88 12.311-72.469 51-72.469 96.865s30.589 84.554 72.469 96.864c47.634-6.574 84.324-47.423 84.324-96.864 0-49.442-36.691-90.291-84.324-96.865z" fill="#b3e59f"/><path d="m195.776 167.26c0-46.927 33.054-86.117 77.144-95.605-6.665-1.434-13.575-2.208-20.668-2.208-54.021 0-97.813 43.792-97.813 97.813s43.792 97.813 97.813 97.813c7.093 0 14.004-.774 20.668-2.208-44.091-9.488-77.144-48.678-77.144-95.605z" fill="#95d6a4"/></g><g><path d="m397.404 174.987h-9.161c-4.267 0-7.726-3.459-7.726-7.726s3.459-7.726 7.726-7.726h9.161c4.267 0 7.726 3.459 7.726 7.726s-3.459 7.726-7.726 7.726z" fill="#ecf4ff"/></g><g><path d="m116.26 174.987h-9.161c-4.267 0-7.726-3.459-7.726-7.726s3.459-7.726 7.726-7.726h9.161c4.267 0 7.726 3.459 7.726 7.726s-3.458 7.726-7.726 7.726z" fill="#ecf4ff"/></g><path d="m259.978 160.28v-40.302c8.637 2.859 14.817 10.369 14.817 19.161 0 4.268 3.459 7.726 7.726 7.726s7.726-3.459 7.726-7.726c0-17.269-13.011-31.724-30.27-35.101v-2.327c0-4.268-3.459-7.726-7.726-7.726s-7.726 3.459-7.726 7.726v2.327c-17.259 3.377-30.27 17.832-30.27 35.101s13.011 31.724 30.27 35.1v40.302c-8.637-2.859-14.817-10.369-14.817-19.161 0-4.268-3.459-7.726-7.726-7.726s-7.726 3.459-7.726 7.726c0 17.269 13.011 31.724 30.27 35.101v2.327c0 4.268 3.459 7.726 7.726 7.726s7.726-3.459 7.726-7.726v-2.327c17.259-3.377 30.27-17.832 30.27-35.101s-13.011-31.723-30.27-35.1zm-30.27-21.141c0-8.792 6.181-16.302 14.817-19.161v38.321c-8.637-2.859-14.817-10.368-14.817-19.16zm30.27 75.403v-38.321c8.637 2.859 14.817 10.369 14.817 19.16 0 8.792-6.181 16.302-14.817 19.161z" fill="#66b394"/><g><path d="m351.133 216.398h-312.265v195.625h312.265c7.352 0 13.312-5.96 13.312-13.312 0-5.847 0-163.272 0-169.001 0-7.352-5.96-13.312-13.312-13.312z" fill="#95d6a4"/><path d="m41.651 398.711c0-5.73 0-163.154 0-169.001 0-7.352 5.96-13.312 13.312-13.312h-41.651c-7.352 0-13.312 5.96-13.312 13.312v169.001c0 7.352 5.96 13.312 13.312 13.312h41.651c-7.351 0-13.312-5.96-13.312-13.312z" fill="#78c2a4"/><path d="m195.711 217.346c-41.88 12.311-72.469 51-72.469 96.865s30.589 84.554 72.469 96.864c47.634-6.574 84.324-47.423 84.324-96.864 0-49.442-36.69-90.291-84.324-96.865z" fill="#ccf49f"/><path d="m125.747 314.21c0-46.927 33.054-86.117 77.144-95.605-6.665-1.434-13.575-2.208-20.668-2.208-54.021 0-97.813 43.792-97.813 97.813s43.792 97.813 97.813 97.813c7.093 0 14.004-.774 20.668-2.208-44.09-9.488-77.144-48.678-77.144-95.605z" fill="#b3e59f"/></g><g><path d="m46.232 321.937h-9.161c-4.267 0-7.726-3.459-7.726-7.726s3.459-7.726 7.726-7.726h9.161c4.267 0 7.726 3.459 7.726 7.726s-3.459 7.726-7.726 7.726z" fill="#ecf4ff"/></g><path d="m189.949 307.231v-40.302c8.637 2.859 14.817 10.369 14.817 19.161 0 4.268 3.459 7.726 7.726 7.726s7.726-3.459 7.726-7.726c0-17.269-13.011-31.724-30.27-35.101v-2.327c0-4.268-3.459-7.726-7.726-7.726s-7.726 3.459-7.726 7.726v2.327c-17.259 3.377-30.27 17.832-30.27 35.101s13.011 31.724 30.27 35.1v40.302c-8.637-2.859-14.817-10.369-14.817-19.161 0-4.268-3.459-7.726-7.726-7.726s-7.726 3.459-7.726 7.726c0 17.269 13.011 31.724 30.27 35.101v2.327c0 4.268 3.459 7.726 7.726 7.726s7.726-3.459 7.726-7.726v-2.327c17.259-3.377 30.27-17.832 30.27-35.101s-13.011-31.724-30.27-35.1zm-30.27-21.141c0-8.792 6.181-16.302 14.817-19.161v38.321c-8.636-2.86-14.817-10.369-14.817-19.16zm30.27 75.402v-38.321c8.637 2.859 14.817 10.369 14.817 19.16 0 8.792-6.18 16.302-14.817 19.161z" fill="#66b394"/><g><path d="m508.157 406.446-119.241-182.37h-7.382l-124.059 190.363v18.245s9.715 5.539 16.745 9.868h214.405c18.544 0 29.68-20.586 19.532-36.106z" fill="#ff636e"/><path d="m269.675 406.446 119.241-182.369-7.567-11.572c-9.211-14.087-29.853-14.087-39.064 0l-126.807 193.941c-10.149 15.521.987 36.107 19.532 36.107h54.196c-18.544-.001-29.68-20.587-19.531-36.107z" fill="#ff4654"/></g><g><path d="m361.818 349.256c-8.79 0-15.916-7.126-15.916-15.916v-46.884c0-8.79 7.126-15.916 15.916-15.916s15.916 7.126 15.916 15.916v46.884c-.001 8.791-7.127 15.916-15.916 15.916z" fill="#ecf4ff"/></g><circle cx="361.174" cy="393.829" fill="#ecf4ff" r="15.272"/></g></svg>