<?xml version="1.0" encoding="iso-8859-1"?>
<!-- Generator: Adobe Illustrator 19.0.0, SVG Export Plug-In . SVG Version: 6.00 Build 0)  -->
<svg xmlns="http://www.w3.org/2000/svg" xmlns:xlink="http://www.w3.org/1999/xlink" version="1.1" id="Capa_1" x="0px" y="0px" viewBox="0 0 409.77 409.77" style="enable-background:new 0 0 409.77 409.77;" xml:space="preserve">
<path style="fill:#FCD462;" d="M17.533,301.468c0,0-46.592-144.384,75.776-237.056c0,0,14.336-12.8,37.888-26.112  c38.912-22.528,103.936-47.616,171.52-19.968c0,0,157.184-51.712,90.624,91.136c0,0,54.784,92.672-46.592,209.92  c0,0-35.84,51.2-107.52,75.264c-36.352,12.288-75.776,10.752-131.072-2.048C108.157,393.116-51.587,446.876,17.533,301.468z"/>
<path style="fill:#F6C358;" d="M239.229,395.164c-36.352,12.288-75.776,10.752-131.072-2.048c0,0-160.256,54.272-90.624-91.136  c0,0-46.592-144.384,75.776-237.056c0,0,14.336-12.8,37.888-26.112L239.229,395.164z"/>
<g>
</g>
<g>
</g>
<g>
</g>
<g>
</g>
<g>
</g>
<g>
</g>
<g>
</g>
<g>
</g>
<g>
</g>
<g>
</g>
<g>
</g>
<g>
</g>
<g>
</g>
<g>
</g>
<g>
</g>
</svg>
