<?xml version="1.0" encoding="iso-8859-1"?>
<!-- Generator: Adobe Illustrator 19.0.0, SVG Export Plug-In . SVG Version: 6.00 Build 0)  -->
<svg version="1.1" id="Capa_1" xmlns="http://www.w3.org/2000/svg" xmlns:xlink="http://www.w3.org/1999/xlink" x="0px" y="0px"
	 viewBox="0 0 512 512" style="enable-background:new 0 0 512 512;" xml:space="preserve">
<path style="fill:#6DAFDF;" d="M480.88,256c18.784-14.08,31.12-36.32,31.12-61.6c0-42.624-34.56-77.184-77.184-77.184
	c-18.992,0-59.28,27.552-98.128,58.096c30.544-38.864,58.096-79.152,58.096-98.128C394.784,34.56,360.224,0,317.6,0
	c-25.28,0-47.52,12.336-61.6,31.12C241.92,12.336,219.68,0,194.4,0c-42.624,0-77.184,34.56-77.184,77.184
	c0,18.992,27.552,59.28,58.096,98.128c-38.864-30.544-79.152-58.096-98.128-58.096C34.56,117.216,0,151.776,0,194.4
	c0,25.28,12.336,47.52,31.12,61.6C12.336,270.08,0,292.32,0,317.6c0,42.624,34.56,77.184,77.184,77.184
	c18.992,0,59.28-27.552,98.128-58.096c-30.544,38.864-58.096,79.152-58.096,98.128c0,42.624,34.56,77.184,77.184,77.184
	c25.28,0,47.52-12.336,61.6-31.12c14.08,18.784,36.32,31.12,61.6,31.12c42.624,0,77.184-34.56,77.184-77.184
	c0-18.992-27.552-59.28-58.096-98.128c38.864,30.544,79.152,58.096,98.128,58.096c42.624,0,77.184-34.56,77.184-77.184
	C512,292.32,499.664,270.08,480.88,256z"/>
<path style="fill:#4D98D2;" d="M372.336,256c9.728-7.28,16.096-18.784,16.096-31.872c0-22.048-17.872-39.936-39.936-39.936
	c-9.824,0-30.672,14.256-50.768,30.064c15.808-20.112,30.064-40.944,30.064-50.768c0-22.048-17.872-39.936-39.92-39.936
	c-13.088,0-24.592,6.384-31.872,16.096c-7.28-9.712-18.784-16.096-31.872-16.096c-22.048,0-39.936,17.872-39.936,39.936
	c0,9.824,14.256,30.672,30.048,50.768c-20.112-15.808-40.944-30.048-50.768-30.048c-22.048,0-39.92,17.872-39.92,39.936
	c0,13.088,6.384,24.592,16.096,31.872c-9.728,7.28-16.096,18.784-16.096,31.872c0,22.048,17.872,39.936,39.92,39.936
	c9.824,0,30.672-14.256,50.768-30.064c-15.808,20.112-30.064,40.944-30.064,50.768c0,22.048,17.872,39.936,39.936,39.936
	c13.088,0,24.592-6.384,31.872-16.096c7.28,9.728,18.784,16.096,31.872,16.096c22.048,0,39.92-17.872,39.92-39.936
	c0-9.824-14.256-30.672-30.064-50.784c20.112,15.808,40.96,30.064,50.784,30.064c22.048,0,39.936-17.872,39.936-39.92
	C388.448,274.784,382.064,263.28,372.336,256z"/>
<circle style="fill:#FFFFFF;" cx="256" cy="256" r="68.384"/>
<circle style="fill:#4D98D2;" cx="256" cy="256" r="41.296"/>
<g>
</g>
<g>
</g>
<g>
</g>
<g>
</g>
<g>
</g>
<g>
</g>
<g>
</g>
<g>
</g>
<g>
</g>
<g>
</g>
<g>
</g>
<g>
</g>
<g>
</g>
<g>
</g>
<g>
</g>
</svg>
