<svg id="Capa_1" enable-background="new 0 0 512 512" height="512" viewBox="0 0 512 512" width="512" xmlns="http://www.w3.org/2000/svg"><g><path d="m139.939 134.736-17.56-110.086c-1.77-11.098 6.804-21.148 18.042-21.148 8.989 0 16.642 6.538 18.046 15.416l18.315 115.821z" fill="#f4d7c8"/><path d="m176.785 134.736h-18.173l-18.317-115.82c-.7-4.445-2.964-8.294-6.174-11.042-.864-.731-1.791-1.389-2.778-1.955 2.655-1.533 5.752-2.418 9.076-2.418 4.497 0 8.654 1.636 11.865 4.373 3.221 2.748 5.485 6.596 6.185 11.042z" fill="#ecbba3"/><path d="m371.328 141.688c-2.009-6.236-7.82-10.453-14.371-10.453h-271.896c-6.552 0-12.362 4.217-14.371 10.453-10.985 34.095-42.517 146.035-22.083 252.853 6.085 31.808 20.178 61.239 41.31 83.992 10.395 11.193 23.272 21.926 38.582 29.096 6.174 2.891 12.822 4.371 19.533 4.371h145.952c6.711 0 13.36-1.479 19.533-4.371 15.31-7.17 28.186-17.903 38.582-29.096 21.132-22.753 35.225-52.184 41.31-83.992 20.436-106.817-11.096-218.757-22.081-252.853z" fill="#fe9738"/><path d="m393.411 394.54c-6.082 31.808-20.18 61.239-41.306 83.992-10.404 11.196-23.277 21.929-38.59 29.102-6.174 2.892-12.822 4.363-19.531 4.363h-22.032c6.709 0 13.357-1.472 19.532-4.363 15.312-7.172 28.186-17.906 38.579-29.102 21.137-22.752 35.225-52.184 41.317-83.992 20.427-106.816-11.104-218.757-22.084-252.85-2.017-6.236-7.821-10.455-14.376-10.455h22.032c6.555 0 12.369 4.219 14.376 10.455 10.99 34.093 42.52 146.034 22.083 252.85z" fill="#fe860a"/><path d="m352.279 379.507-54.993-57.884 54.993-57.895 44.311 46.647c.988 1.05 2.212 1.75 3.509 2.099-.103-7.306-.371-14.53-.792-21.641l-36.387-38.312 28.299-29.791c-1.122-6.308-2.295-12.379-3.499-18.204-.669.37-1.307.854-1.863 1.441l-33.578 35.348-54.993-57.884 46.791-49.261c.823-.864 1.399-1.862 1.739-2.933h-20.242l-38.939 40.987-38.929-40.987h-20.242c.34 1.07.916 2.068 1.739 2.933l46.791 49.261-54.993 57.884-54.982-57.884 46.791-49.261c.823-.864 1.4-1.862 1.739-2.933h-20.252l-38.929 40.987-38.929-40.987h-20.241c.34 1.07.916 2.068 1.739 2.933l46.791 49.261-54.993 57.884-33.568-35.348c-.556-.586-1.183-1.06-1.863-1.441-1.204 5.825-2.387 11.906-3.499 18.214l28.289 29.781-36.377 38.301c-.412 7.121-.689 14.345-.792 21.651 1.297-.35 2.511-1.06 3.509-2.099l44.301-46.647 54.993 57.884-54.993 57.895-44.115-46.45c-1.019-1.07-2.264-1.78-3.602-2.13.175 7.265.535 14.571 1.101 21.919l35.976 37.869-24.79 26.086c1.76 5.444 3.766 10.784 6.03 15.992.257-.206.494-.442.72-.69l28.68-30.182 54.993 57.884-34.844 36.686c4.178 3.067 8.603 5.917 13.275 8.438l32.21-33.918 38.929 40.987h20.252c-.34-1.07-.916-2.068-1.739-2.933l-46.791-49.261 54.993-57.884 54.982 57.884-46.791 49.261c-.823.865-1.4 1.863-1.739 2.933h20.242l38.94-40.987 32.22 33.908c4.672-2.521 9.097-5.362 13.275-8.428l-34.854-36.686 54.993-57.884 28.783 30.295c.195.206.401.401.617.587 2.254-5.207 4.271-10.548 6.03-16.002l-24.79-26.087 35.976-37.869c.566-7.347.926-14.664 1.111-21.929-1.451.381-2.737 1.183-3.715 2.264zm-65.634-184.87 54.982 57.884-54.982 57.894-54.993-57.894zm-186.259 57.885 54.982-57.884 54.993 57.884-54.993 57.884zm54.983 196.076-54.982-57.884 54.982-57.895 55.003 57.895zm10.65-126.985 54.982-57.884 54.993 57.895-54.982 57.884zm120.626 126.985-54.993-57.884 54.993-57.884 54.982 57.884z" fill="#e57917"/><path d="m380.095 139.17c1.554 10.939-.7 22.413-4.59 32.611-4.775 12.555-13.048 23.524-24.265 30.913-1.266.834-2.892.844-4.157.021-2.892-1.863-5.598-3.962-8.088-6.257 7.255-6.782 12.791-15.282 16.372-24.677 3.89-10.198 6.133-21.672 4.59-32.611-.003-.023-.007-.047-.01-.07-.471-3.304 2.191-6.216 5.515-5.917 2.489.224 4.982.309 7.461.244 2.017-.051 4.034-.185 6.051-.422.452 2.048.833 4.107 1.121 6.165z" fill="#fedf30"/><g><path d="m429.498 77.758c8.386-4.463 15.955-10.575 22.343-17.564 9.978-10.919 16.648-24.509 18.262-39.222.179-1.628-.621-3.211-2.038-4.031-12.637-7.311-27.316-10.021-41.837-8.571-11.806 1.179-24.041 4.562-33.923 11.383-15.739 10.864-28.51 27.057-32.558 46.12-.685 3.225-2.801 10.286.959 12.334 3.635 1.98 7.459 3.613 11.401 4.877 18.486 5.926 40.178 3.835 57.391-5.326z" fill="#00c27a"/><path d="m470.107 20.972c-1.616 14.715-8.284 28.299-18.266 39.217-6.39 6.998-13.954 13.11-22.341 17.566-17.216 9.159-38.909 11.258-57.391 5.33-3.941-1.266-7.769-2.902-11.402-4.878-1.43-.782-2.264-2.326-2.13-3.941.103-1.276.206-2.604.247-2.912.021-.144.031-.278.062-.422 18.081 5.259 38.96 3.015 55.631-5.866 8.387-4.456 15.95-10.568 22.341-17.556 9.334-10.208 15.775-22.763 17.885-36.377 4.62 1.42 9.087 3.355 13.326 5.804 1.41.825 2.213 2.409 2.038 4.035z" fill="#08b865"/><path d="m346.379.628c-11.219 7.395-19.49 18.365-24.272 30.915-3.888 10.204-6.137 21.669-4.588 32.611.329 2.324.766 4.642 1.295 6.944-4.727-.906-9.523-1.325-14.265-1.204-8.74.223-17.487 2.14-25.621 5.265-12.708 4.883-23.791 13.326-31.174 24.775-.817 1.266-.81 2.899.02 4.157 7.395 11.219 18.365 19.49 30.915 24.272 10.204 3.888 21.669 6.137 32.611 4.588 2.324-.329 4.642-.766 6.944-1.295-.906 4.727-1.325 9.523-1.204 14.265.223 8.74 2.14 17.487 5.265 25.621 4.883 12.708 13.326 23.791 24.775 31.174 1.267.817 2.899.81 4.157-.02 11.219-7.395 19.49-18.365 24.272-30.915 3.888-10.204 6.137-21.669 4.588-32.611-.329-2.324-.766-4.642-1.295-6.944 4.727.906 9.523 1.325 14.265 1.204 8.74-.223 17.487-2.14 25.621-5.265 12.708-4.883 23.791-13.326 31.174-24.775.817-1.266.81-2.899-.02-4.157-7.395-11.219-18.365-19.49-30.915-24.272-10.204-3.888-21.669-6.137-32.611-4.588-2.324.329-4.642.766-6.944 1.295.906-4.727 1.325-9.523 1.204-14.265-.223-8.74-2.14-17.487-5.265-25.621-4.883-12.708-13.326-23.791-24.775-31.174-1.266-.816-2.899-.809-4.157.02z" fill="#fee45a"/><path d="m338.47 6.874c2.439-2.295 5.084-4.384 7.914-6.246 1.255-.834 2.881-.834 4.157-.021 11.443 7.389 19.891 18.472 24.769 31.18 3.128 8.13 5.043 16.877 5.269 25.613.103 4.271-.216 8.572-.947 12.832-4.487-.494-9.015-.484-13.46.144-.026.004-.051.007-.076.011-3.302.471-6.211-2.194-5.911-5.516.225-2.493.31-4.989.245-7.471-.226-8.737-2.14-17.484-5.269-25.613-3.653-9.508-9.292-18.101-16.691-24.913z" fill="#fedf30"/><path d="m449.865 103.389c-7.389 11.453-18.472 19.892-31.18 24.78-8.13 3.118-16.877 5.042-25.613 5.259-3.849.103-7.738-.154-11.587-.751 5.835-.854 11.587-2.408 17.062-4.507 12.709-4.888 23.792-13.326 31.17-24.78.813-1.266.813-2.902-.021-4.157-7.389-11.217-18.358-19.49-30.913-24.265-4.795-1.832-9.879-3.293-15.055-4.178.864-.154 1.729-.288 2.593-.412 10.939-1.554 22.403.7 32.611 4.59 12.544 4.775 23.514 13.048 30.913 24.265.823 1.254.833 2.891.02 4.156z" fill="#fedf30"/><circle cx="348.808" cy="101.663" fill="#bbec6c" r="19.526"/><path d="m368.333 101.661c0 10.785-8.737 19.531-19.521 19.531-6.802 0-12.781-3.478-16.279-8.747 1.111.206 2.264.309 3.437.309 10.784 0 19.521-8.747 19.521-19.531 0-3.982-1.194-7.687-3.252-10.774 9.148 1.615 16.094 9.6 16.094 19.212z" fill="#a2e62e"/></g></g></svg>