<?xml version="1.0" encoding="iso-8859-1"?>
<!-- Generator: Adobe Illustrator 21.0.0, SVG Export Plug-In . SVG Version: 6.00 Build 0)  -->
<svg version="1.1" id="Capa_1" xmlns="http://www.w3.org/2000/svg" xmlns:xlink="http://www.w3.org/1999/xlink" x="0px" y="0px"
	 viewBox="0 0 512.001 512.001" style="enable-background:new 0 0 512.001 512.001;" xml:space="preserve">
<path style="fill:#FF7816;" d="M511.989,255.006c0,140.697-114.298,256.994-254.995,256.994S0,395.703,0,255.006
	S116.298,0.012,256.995,0.012S511.989,114.309,511.989,255.006z"/>
<path style="fill:#FF4B00;" d="M511.989,255.006c0,140.697-114.298,256.994-254.995,256.994V0.012
	C397.692,0.012,511.989,114.309,511.989,255.006z"/>
<path style="fill:#ECECF1;" d="M481.99,255.006c0,124.197-100.798,224.995-224.995,224.995S30,379.203,30,255.006
	S132.797,30.011,256.995,30.011S481.99,130.809,481.99,255.006z"/>
<path style="fill:#E2E2E7;" d="M481.99,255.006c0,124.197-100.798,224.995-224.995,224.995V30.011
	C381.192,30.011,481.99,130.809,481.99,255.006z"/>
<path style="fill:#FF7816;" d="M451.991,255.006c0,107.397-87.597,194.996-194.996,194.996S61.999,362.403,61.999,255.006
	c0-107.399,87.597-194.996,194.996-194.996S451.991,147.608,451.991,255.006z"/>
<path style="fill:#FF4B00;" d="M451.991,255.006c0,107.397-87.597,194.996-194.996,194.996V60.01
	C364.393,60.01,451.991,147.608,451.991,255.006z"/>
<path style="fill:#ECECF1;" d="M421.991,255.006c0,90.897-74.097,164.996-164.996,164.996S91.998,345.903,91.998,255.006
	c0-90.899,74.097-164.996,164.996-164.996S421.991,164.107,421.991,255.006z"/>
<path style="fill:#E2E2E7;" d="M421.991,255.006c0,90.897-74.097,164.996-164.996,164.996V90.01
	C347.894,90.01,421.991,164.107,421.991,255.006z"/>
<path style="fill:#FF7816;" d="M391.992,255.006c0,74.397-60.6,134.997-134.997,134.997s-134.997-60.6-134.997-134.997
	c0-74.399,60.6-134.997,134.997-134.997S391.992,180.607,391.992,255.006z"/>
<path style="fill:#FF4B00;" d="M391.992,255.006c0,74.397-60.6,134.997-134.997,134.997V120.009
	C331.392,120.009,391.992,180.607,391.992,255.006z"/>
<path style="fill:#ECECF1;" d="M361.992,255.006c0,57.899-47.099,104.998-104.998,104.998s-104.998-47.099-104.998-104.998
	s47.099-104.998,104.998-104.998S361.992,197.107,361.992,255.006z"/>
<path style="fill:#E2E2E7;" d="M361.992,255.006c0,57.899-47.099,104.998-104.998,104.998V150.008
	C314.893,150.008,361.992,197.107,361.992,255.006z"/>
<path style="fill:#FF7816;" d="M331.993,255.006c0,41.399-33.599,74.998-74.998,74.998s-74.998-33.599-74.998-74.998
	s33.599-74.998,74.998-74.998S331.993,213.607,331.993,255.006z"/>
<path style="fill:#FF4B00;" d="M331.993,255.006c0,41.399-33.599,74.998-74.998,74.998V180.008
	C298.394,180.008,331.993,213.607,331.993,255.006z"/>
<path style="fill:#ECECF1;" d="M301.994,255.006c0,24.898-20.099,44.999-44.999,44.999s-44.999-20.101-44.999-44.999
	c0-24.9,20.099-44.999,44.999-44.999S301.994,230.107,301.994,255.006z"/>
<path style="fill:#E2E2E7;" d="M301.994,255.006c0,24.898-20.099,44.999-44.999,44.999v-89.998
	C281.895,210.007,301.994,230.107,301.994,255.006z"/>
<path style="fill:#5A5A5A;" d="M387.491,145.508L267.493,265.505c-5.7,6-15,6-20.7,0.3c-0.298-0.3-0.298-0.3-0.298-0.3
	c-6-5.7-6-15.3,0-21l119.997-119.997c5.7-5.999,15.298-5.999,20.999,0C393.492,130.208,393.492,139.808,387.491,145.508z"/>
<path style="fill:#444444;" d="M387.491,145.508L267.493,265.505c-5.7,6-15,6-20.7,0.3c-0.298-0.3-0.298-0.3-0.298-0.3
	l140.996-140.997C393.492,130.208,393.492,139.808,387.491,145.508z"/>
<path style="fill:#A8EBFA;" d="M510.79,69.31c-2.401-5.7-7.8-9.3-13.801-9.3h-44.999V15.011c0-6-3.6-11.4-9.3-13.801
	c-5.7-2.399-12.001-1.199-16.199,3.301L366.493,64.51c-3.001,2.7-4.501,6.6-4.501,10.5v59.999c0,4.2,1.8,7.8,4.2,10.8
	c2.999,2.401,6.599,4.2,10.8,4.2h59.999c3.9,0,7.8-1.5,10.499-4.501l59.999-59.999C511.989,81.311,513.188,75.01,510.79,69.31z"/>
<path style="fill:#25D9F8;" d="M507.488,85.509l-59.999,59.999c-2.699,3.001-6.599,4.501-10.499,4.501h-59.999
	c-4.2,0-7.8-1.8-10.8-4.2l85.798-85.798h44.999c6,0,11.4,3.6,13.801,9.3C513.188,75.01,511.989,81.311,507.488,85.509z"/>
<g>
</g>
<g>
</g>
<g>
</g>
<g>
</g>
<g>
</g>
<g>
</g>
<g>
</g>
<g>
</g>
<g>
</g>
<g>
</g>
<g>
</g>
<g>
</g>
<g>
</g>
<g>
</g>
<g>
</g>
</svg>
