<svg id="Capa_1" enable-background="new 0 0 426.703 426.703" height="512" viewBox="0 0 426.703 426.703" width="512" xmlns="http://www.w3.org/2000/svg"><g><path d="m207.159 426.703h-27.621c-3.407-.007-6.536-1.881-8.149-4.881l-81.006-153.134-7.316-13.811 90.903 6.905 1.889 6.905 6.63 24.166 3.294 12.083 5.245 18.962 3.268 12.057 5.245 19.009 3.315 12.104 5.204 18.962 3.315 12.057 4.647 16.938c1.368 4.893-1.49 9.969-6.383 11.337-.808.227-1.642.341-2.48.341z" fill="#eeefee"/><path d="m25.545 140.193h80.168v101.259h-80.168c-8.909 0-16.131-7.222-16.131-16.131v-69.017c.011-8.902 7.23-16.111 16.131-16.111z" fill="#eeefee"/><path d="m202.955 260.632 11.537 1.254c40.556 4.401 78.369 22.601 107.108 51.553l70.349 70.895h3.882v-384.334h-3.882l-70.349 70.895c-28.736 28.95-66.545 47.15-107.097 51.553l-11.547 1.254v136.93z" fill="#eeefee"/><path d="m60.259 115.647h139.235c5.084 0 9.205 4.121 9.205 9.205v134.635c0 5.084-4.121 9.205-9.205 9.205h-139.235c-5.084 0-9.205-4.121-9.205-9.205v-134.635c-.001-5.084 4.121-9.205 9.205-9.205z" fill="#ef5261"/><path d="m395.111 0h22.178v384.335h-22.178z" fill="#ef5261"/><g fill="#dbd8dd"><path d="m185.782 304.937h-27.694c-3.342.006-6.057-2.699-6.063-6.041s2.699-6.057 6.041-6.063h.021 24.395z"/><path d="m194.316 335.982h-25.498c-3.329.098-6.108-2.522-6.206-5.851s2.522-6.108 5.851-6.206c.118-.003.236-.003.354 0h22.23z"/><path d="m202.876 367.095h-26.19c-3.342-.006-6.047-2.72-6.041-6.063.006-3.334 2.707-6.035 6.041-6.041h22.896z"/><path d="m211.39 398.119h-23.796c-3.329.098-6.108-2.522-6.206-5.851s2.522-6.108 5.851-6.206c.118-.003.236-.003.354 0h20.482z"/></g></g></svg>