<svg height="512" viewBox="0 0 42 58" width="512" xmlns="http://www.w3.org/2000/svg"><g id="Page-1" fill="none" fill-rule="evenodd"><g id="043---Shopping-Bag" fill-rule="nonzero"><path id="Shape" d="m42 15v39c0 2.209139-1.790861 4-4 4h-34c-2.209139 0-4-1.790861-4-4v-39c.0032948-1.1032019.89679813-1.9967052 2-2h38c1.1032019.0032948 1.9967052.8967981 2 2z" fill="#efc319"/><path id="Shape" d="m21 28.6s1.69-3.6 5.5-3.6c3.256 0 5.5 2.867 5.5 6.263 0 4.533-4.17 7.588-10.326 13.127-.3839501.3428053-.9640499.3428053-1.348 0-6.156-5.539-10.326-8.59-10.326-13.127 0-3.396 2.244-6.263 5.5-6.263 3.81 0 5.5 3.6 5.5 3.6z" fill="#ff5364"/><g fill="#f19b1f"><path id="Shape" d="m42 50v2h-18c-.5522847 0-1-.4477153-1-1s.4477153-1 1-1z"/><path id="Shape" d="m19 51c0 .5522847-.4477153 1-1 1h-18v-2h18c.5522847 0 1 .4477153 1 1z"/><path id="Shape" d="m32 20c-1.1045695 0-2-.8954305-2-2v-5c0-4.97056275-4.0294373-9-9-9s-9 4.02943725-9 9v5c0 1.1045695-.8954305 2-2 2s-2-.8954305-2-2v-5c.00000015-7.17970164 5.8202984-12.99999973 13-12.99999973s12.9999998 5.82029809 13 12.99999973v5c0 1.1045695-.8954305 2-2 2z"/></g></g></g></svg>