<?xml version="1.0" encoding="iso-8859-1"?>
<!-- Generator: Adobe Illustrator 19.0.0, SVG Export Plug-In . SVG Version: 6.00 Build 0)  -->
<svg version="1.1" id="Capa_1" xmlns="http://www.w3.org/2000/svg" xmlns:xlink="http://www.w3.org/1999/xlink" x="0px" y="0px"
	 viewBox="0 0 512 512" style="enable-background:new 0 0 512 512;" xml:space="preserve">
<rect x="205.12" y="34.251" style="fill:#40596B;" width="39.104" height="59.776"/>
<path style="fill:#334A5E;" d="M251.733,0h-54.08c-10.795,0-19.541,8.747-19.541,19.563c0,10.795,8.747,19.541,19.541,19.541h54.08
	c10.795,0,19.563-8.747,19.563-19.541C271.296,8.747,262.517,0,251.733,0"/>
<rect x="368.445" y="110.809" transform="matrix(-0.7071 -0.7071 0.7071 -0.7071 558.7313 492.6364)" style="fill:#40596B;" width="25.898" height="39.584"/>
<path style="fill:#334A5E;" d="M424.085,113.227l-25.312-25.291c-5.067-5.067-13.248-5.067-18.315,0
	c-5.067,5.045-5.067,13.227,0,18.293l25.312,25.312c5.067,5.067,13.248,5.067,18.315,0
	C429.12,126.475,429.12,118.293,424.085,113.227"/>
<path style="fill:#84DBFF;" d="M449.376,287.317c0-124.085-100.608-224.683-224.683-224.683S0.021,163.232,0.021,287.317
	s100.587,224.672,224.672,224.672S449.376,411.392,449.376,287.317"/>
<path style="fill:#FFFFFF;" d="M405.557,287.317c0-99.893-80.981-180.853-180.853-180.853c-99.893,0-180.875,80.96-180.875,180.853
	c0,99.872,80.981,180.853,180.875,180.853C324.587,468.171,405.557,387.189,405.557,287.317"/>
<g>
	<rect x="219.541" y="115.584" style="fill:#ACB3BA;" width="10.315" height="16.939"/>
	
		<rect x="104.101" y="163.388" transform="matrix(-0.7071 0.7071 -0.7071 -0.7071 308.0372 216.1213)" style="fill:#ACB3BA;" width="10.315" height="16.939"/>
	<rect x="52.981" y="282.144" style="fill:#ACB3BA;" width="16.939" height="10.315"/>
	
		<rect x="104.094" y="394.278" transform="matrix(0.7061 0.7081 -0.7081 0.7061 317.2939 40.9982)" style="fill:#ACB3BA;" width="10.325" height="16.928"/>
	<rect x="219.541" y="442.133" style="fill:#ACB3BA;" width="10.315" height="16.939"/>
	
		<rect x="334.943" y="394.269" transform="matrix(0.7071 -0.7071 0.7071 0.7071 -185.1657 358.4462)" style="fill:#ACB3BA;" width="10.315" height="16.939"/>
	<rect x="379.477" y="282.144" style="fill:#ACB3BA;" width="16.939" height="10.336"/>
	
		<rect x="334.969" y="163.413" transform="matrix(-0.7071 -0.7071 0.7071 -0.7071 459.0954 533.9183)" style="fill:#ACB3BA;" width="10.315" height="16.928"/>
</g>
<path style="fill:#FFD15C;" d="M224.747,202.773c-65.397,0-119.893,47.04-131.413,109.024c-1.504-7.893-2.251-16.107-2.251-24.523
	c0-73.707,59.851-133.557,133.664-133.557V202.773z"/>
<path style="fill:#FF7058;" d="M224.683,153.749L224.683,153.749c-8.875,0-16.064,7.189-16.064,16.064v114.421
	c0,8.853,7.189,16.043,16.064,16.043s16.064-7.189,16.064-16.043V169.813C240.747,160.939,233.557,153.749,224.683,153.749"/>
<path style="fill:#40596B;" d="M264.267,287.317c0-21.856-17.728-39.563-39.563-39.563c-21.877,0-39.584,17.707-39.584,39.563
	s17.707,39.563,39.584,39.563C246.539,326.88,264.267,309.163,264.267,287.317"/>
<path style="fill:#334A5E;" d="M240.747,287.317c0-8.875-7.189-16.064-16.043-16.064c-8.875,0-16.064,7.189-16.064,16.064
	c0,8.853,7.189,16.064,16.064,16.064C233.557,303.371,240.747,296.171,240.747,287.317"/>
<path style="fill:#4CDBC4;" d="M224.747,62.624C100.587,62.624,0,163.211,0,287.253C0,411.413,100.587,512,224.747,512
	c124.043,0,224.629-100.587,224.629-224.747C449.376,163.211,348.789,62.624,224.747,62.624 M224.747,468.171
	c-99.957,0-180.917-80.96-180.917-180.917c0-99.829,80.96-180.789,180.917-180.789c99.829,0,180.789,80.96,180.789,180.789
	C405.547,387.211,324.587,468.171,224.747,468.171"/>
<path style="fill:#F1543F;" d="M271.296,391.627c0-66.475,53.877-120.352,120.352-120.352S512,325.141,512,391.627
	S458.123,512,391.648,512S271.296,458.101,271.296,391.627"/>
<path style="fill:#FF7058;" d="M304.651,391.627c0-48.043,38.955-86.997,86.997-86.997s86.997,38.955,86.997,86.997
	c0,48.064-38.955,86.997-86.997,86.997S304.651,439.691,304.651,391.627"/>
<g>
	<path style="fill:#FFFFFF;" d="M364.544,384.064c1.963-2.752,2.912-5.397,2.912-7.957c0-2.539-0.832-4.683-2.517-6.421
		c-1.685-1.707-3.851-2.56-6.475-2.56c-4.811,0-9.397,3.435-13.707,10.293l-13.707-8.107c3.584-5.557,7.52-9.771,11.787-12.629
		s9.728-4.267,16.331-4.267c6.624,0,12.437,2.101,17.44,6.315c5.024,4.213,7.52,9.941,7.52,17.163c0,3.936-1.003,7.733-2.997,11.349
		c-2.016,3.627-5.728,8.224-11.147,13.877l-13.835,14.379h30.293v15.349h-54.08v-12.725l22.475-23.04
		C359.371,390.475,362.603,386.795,364.544,384.064"/>
	<polygon style="fill:#FFFFFF;" points="427.125,397.707 427.125,384.331 443.584,384.331 443.584,397.707 452.245,397.707 
		452.245,412.523 443.584,412.523 443.584,430.859 427.125,430.859 427.125,412.523 396.288,412.523 396.288,399.477 
		423.627,354.165 442.272,354.165 416.267,397.707 	"/>
</g>
<g>
</g>
<g>
</g>
<g>
</g>
<g>
</g>
<g>
</g>
<g>
</g>
<g>
</g>
<g>
</g>
<g>
</g>
<g>
</g>
<g>
</g>
<g>
</g>
<g>
</g>
<g>
</g>
<g>
</g>
</svg>
