<svg height="512pt" viewBox="0 0 512 512" width="512pt" xmlns="http://www.w3.org/2000/svg"><path d="m286.339844 424.726562c-8.265625 0-14.96875-6.714843-14.96875-15 0-8.285156 6.703125-15 14.96875-15 41.863281 0 65.539062-5.519531 86.835937-36.886718 4.648438-6.847656 13.960938-8.621094 20.792969-3.960938s8.601562 13.988282 3.949219 20.839844c-13.761719 20.265625-29.328125 33.289062-48.984375 40.980469-16.179688 6.328125-34.898438 9.027343-62.59375 9.027343zm0 0" fill="#4e1b1c"/><path d="m413.324219 390.34375c-12.738281.003906-25.546875-3.960938-36.253907-12.128906-16.683593-12.734375-24.675781-33-21.828124-52.707032-1.222657-.777343-2.414063-1.609374-3.570313-2.496093-10.882813-8.300781-17.707031-20.238281-19.21875-33.605469-1.492187-13.230469 2.425781-26.222656 11.035156-36.582031 17.082031-20.542969 48.050781-24.363281 69.863281-8.929688 20.621094-19.148437 53.417969-21.15625 76.40625-3.609375 12.398438 9.457032 20.171876 23.046875 21.886719 38.253906 1.699219 15.050782-2.761719 29.828126-12.558593 41.613282-7.082032 8.519531-16.558594 14.800781-27.125 18.1875-.988282 11.191406-5.375 21.953125-12.785157 30.863281-11.550781 13.898437-28.636719 21.140625-45.851562 21.140625zm0 0" fill="#7c7c00"/><path d="m223.21875 406.503906c-1.332031 0-2.683594-.179687-4.027344-.554687-.679687-.1875-1.339844-.425781-1.96875-.699219-.085937 0-.167968 0-.253906 0-16.246094 0-60.492188-2.023438-100.027344-79.242188-3.773437-7.367187-.871094-16.410156 6.480469-20.191406s16.375-.875 20.148437 6.496094c32.304688 63.097656 63.054688 62.949219 74.632813 62.933594 4.730469-.011719 11.859375-.042969 16.824219 6.484375 2.996094 3.933593 3.941406 8.960937 2.597656 13.796875-1.84375 6.632812-7.859375 10.976562-14.40625 10.976562zm0 0" fill="#cf5d43"/><path d="m69.976562 395.367188c-38.585937 0-69.976562-31.460938-69.976562-70.136719 0-35.203125 26.011719-64.433594 59.78125-69.394531 7.988281-23.324219 30.546875-39.683594 56.984375-39.683594 33.125 0 60.074219 26.113281 60.074219 58.214844 0 24.019531-14.917969 44.925781-36.949219 53.753906-1.515625 37.339844-32.296875 67.246094-69.914063 67.246094zm0 0" fill="#d2d200"/><path d="m275.726562 512h-40.792968c-8.09375 0-14.722656-6.449219-14.960938-14.558594l-10.199218-348.039062c-.117188-4.050782 1.40625-7.980469 4.222656-10.890625 2.820312-2.90625 6.691406-4.550781 10.738281-4.550781h61.191406c4.046875 0 7.917969 1.644531 10.738281 4.550781 2.816407 2.910156 4.339844 6.839843 4.222657 10.890625l-10.199219 348.039062c-.238281 8.109375-6.867188 14.558594-14.960938 14.558594zm0 0" fill="#cf5d43"/><path d="m296.664062 138.511719c-2.820312-2.90625-6.691406-4.546875-10.738281-4.546875h-30.597656v378.035156h20.398437c8.09375 0 14.722657-6.449219 14.960938-14.558594l10.199219-348.039062c.117187-4.050782-1.40625-7.980469-4.222657-10.890625zm0 0" fill="#aa403a"/><path d="m331.988281 512h-151.980469c-8.265624 0-14.96875-6.714844-14.96875-15s6.703126-15 14.96875-15h151.980469c8.265625 0 14.964844 6.714844 14.964844 15s-6.699219 15-14.964844 15zm0 0" fill="#aa403a"/><path d="m331.988281 482h-76.65625v30h76.65625c8.265625 0 14.964844-6.714844 14.964844-15s-6.699219-15-14.964844-15zm0 0" fill="#4e1b1c"/><path d="m263.550781 228.769531c-26.355469 0-49.820312-8.445312-63.746093-22.5-1.273438.058594-2.539063.085938-3.800782.085938-45.769531 0-83.003906-35.96875-83.003906-80.183594s37.234375-80.1875 83.003906-80.1875c4.617188 0 9.195313.367187 13.707032 1.09375 14.027343-28.300781 44-47.078125 77.308593-47.078125 45.449219 0 82.746094 34.351562 85.519531 77.582031 22 12.566407 35.730469 35.421875 35.730469 60.679688 0 38.878906-32.707031 70.507812-72.90625 70.507812-3.351562 0-6.695312-.222656-10.003906-.664062-14.144531 12.921875-36.839844 20.664062-61.808594 20.664062zm0 0" fill="#b5b500"/><path d="m372.539062 77.582031c-2.769531-43.230469-40.066406-77.582031-85.519531-77.582031-11.089843 0-21.804687 2.09375-31.691406 5.914062v222.558594c2.707031.183594 5.445313.296875 8.222656.296875 24.964844 0 47.664063-7.742187 61.808594-20.664062 3.308594.441406 6.652344.664062 10.003906.664062 40.199219 0 72.90625-31.628906 72.90625-70.507812 0-25.257813-13.730469-48.113281-35.730469-60.679688zm0 0" fill="#7c7c00"/></svg>