<svg id="Capa_1" enable-background="new 0 0 507.865 507.865" height="512" viewBox="0 0 507.865 507.865" width="512" xmlns="http://www.w3.org/2000/svg"><g><path d="m507.865 214.917c.02 50.175-40.639 90.865-90.814 90.885-.02 0-.039 0-.059 0l-350.047-1.896c-37.027-.055-67-30.115-66.945-67.143.053-36.011 28.544-65.547 64.529-66.898-18.517-48.432 5.734-102.706 54.166-121.223 45.341-17.335 96.421 2.752 117.809 46.328 16.185-38.391 60.427-56.393 98.818-40.208 27.941 11.779 46.114 39.143 46.133 69.465 0 2.469-.112 4.885-.343 7.301.691-.343 1.382-.632 2.067-.921 46.526-18.713 99.413 3.835 118.126 50.361 4.342 10.791 6.569 22.317 6.56 33.949z" fill="#eeefee"/><ellipse cx="251.678" cy="283.8" fill="#575b6d" rx="98.469" ry="98.469" transform="matrix(.707 -.707 .707 .707 -126.962 261.086)"/><path d="m309.822 341.917c-32.109 32.108-84.168 32.106-116.275-.003-32.108-32.11-32.106-84.168.003-116.275 32.108-32.106 84.164-32.106 116.272 0 32.059 32.129 32.059 84.147 0 116.278z" fill="#69b0ee"/><path d="m310.953 342.583h39.488v40.457h-39.488z" fill="#575b6d" transform="matrix(.707 -.707 .707 .707 -159.687 340.103)"/><path d="m424.205 456.323c-12.139 12.143-31.823 12.146-43.966.007-.513-.512-1.007-1.043-1.483-1.59l-65.366-75.243c-.913-1.049-.859-2.626.124-3.609l30.255-30.25c.984-.983 2.56-1.038 3.609-.124l75.231 65.361c12.961 11.261 14.339 30.897 3.077 43.858-.474.547-.969 1.077-1.481 1.59z" fill="#f6b863"/></g></svg>