<?xml version="1.0" encoding="iso-8859-1"?>
<!-- Generator: Adobe Illustrator 19.0.0, SVG Export Plug-In . SVG Version: 6.00 Build 0)  -->
<svg version="1.1" id="Capa_1" xmlns="http://www.w3.org/2000/svg" xmlns:xlink="http://www.w3.org/1999/xlink" x="0px" y="0px"
	 viewBox="0 0 468.293 468.293" style="enable-background:new 0 0 468.293 468.293;" xml:space="preserve">
<g>
	<path style="fill:#64798A;" d="M263.514,443.317c0,13.793,11.182,24.976,24.976,24.976h154.828
		c13.794,0,24.976-11.182,24.976-24.976v-37.463H263.514V443.317z"/>
	<path style="fill:#64798A;" d="M443.317,135.321H288.489c-13.794,0-24.976,11.182-24.976,24.976v24.976h204.779v-24.976
		C468.293,146.503,457.111,135.321,443.317,135.321z"/>
</g>
<rect x="263.511" y="185.257" style="fill:#D5D6DB;" width="204.781" height="220.597"/>
<g>
	<path style="fill:#64798A;" d="M0,307.995c0,13.794,11.182,24.976,24.976,24.976h154.828c13.794,0,24.976-11.182,24.976-24.976
		v-31.22H0V307.995z"/>
	<path style="fill:#64798A;" d="M204.779,24.976C204.779,11.182,193.597,0,179.803,0H24.976C11.182,0,0,11.182,0,24.976v31.22
		h204.779V24.976z"/>
</g>
<g>
	<rect y="56.195" style="fill:#D5D6DB;" width="204.781" height="220.597"/>
	<circle style="fill:#D5D6DB;" cx="102.388" cy="304.89" r="17.108"/>
	<circle style="fill:#D5D6DB;" cx="365.893" cy="437.073" r="17.108"/>
</g>
<g>
	<circle style="fill:#EBF0F3;" cx="365.893" cy="437.073" r="10.527"/>
	<circle style="fill:#EBF0F3;" cx="102.388" cy="304.89" r="10.527"/>
</g>
<circle style="fill:#FCD462;" cx="102.388" cy="166.462" r="68.608"/>
<circle style="fill:#F6C358;" cx="102.388" cy="166.462" r="54.534"/>
<path style="fill:#DC8744;" d="M100.2,207.794v-7.275c-9.108-0.929-17.283-4.55-24.518-10.86l7.275-8.67
	c5.58,4.85,11.322,7.737,17.243,8.67v-19.335c-7.51-1.792-13.009-4.153-16.497-7.076c-3.488-2.924-5.231-7.259-5.231-13.005
	s2.003-10.446,6.026-14.104c4.023-3.654,9.254-5.645,15.702-5.977v-4.984h6.375v5.081c7.308,0.535,14.218,3.025,20.73,7.478
	l-6.48,9.169c-4.388-3.123-9.132-5.049-14.25-5.783v18.735h0.3c7.64,1.796,13.253,4.221,16.837,7.275
	c3.593,3.058,5.385,7.494,5.385,13.305c0,5.815-2.06,10.552-6.18,14.201c-4.12,3.658-9.562,5.649-16.343,5.981v7.174H100.2z
	 M93.168,143.466c-1.695,1.492-2.539,3.354-2.539,5.58s0.665,3.986,1.995,5.28c1.322,1.298,3.852,2.543,7.575,3.739v-17.243
	C97.207,141.09,94.863,141.97,93.168,143.466z M114.15,187.165c1.857-1.525,2.79-3.451,2.79-5.779c0-2.324-0.73-4.169-2.19-5.531
	c-1.468-1.363-4.193-2.64-8.175-3.836v17.936C109.762,189.627,112.284,188.694,114.15,187.165z"/>
<path style="fill:#E56353;" d="M365.903,359.615H324.4V278.57c0,0.98-8.823,17.858-8.823,17.858l-24.183-12.629l20.915-41.683
	l32.353-10.604c0,0,9.133,8.497,21.242,8.497c12.109,0,21.242-8.497,21.242-8.497l32.353,10.604l20.915,41.683l-24.183,12.629
	c0,0-8.823-16.878-8.823-17.858v81.045H365.903z"/>
<path style="fill:#1C75A1;" d="M385.52,79.26c-2.439-2.439-6.39-2.439-8.829,0l-4.543,4.543V46.83
	c0-13.771-11.204-24.976-24.976-24.976h-94.72c-3.448,0-6.244,2.796-6.244,6.244s2.796,6.244,6.244,6.244h94.72
	c6.887,0,12.488,5.601,12.488,12.488v36.974l-4.546-4.545c-2.439-2.439-6.39-2.439-8.829,0c-2.439,2.439-2.439,6.393,0,8.829
	l15.202,15.199c0.575,0.576,1.266,1.032,2.03,1.349c0.763,0.316,1.573,0.482,2.386,0.482s1.623-0.166,2.386-0.482
	c0.764-0.317,1.455-0.773,2.03-1.349l15.199-15.199C387.959,85.65,387.959,81.699,385.52,79.26z"/>
<g>
</g>
<g>
</g>
<g>
</g>
<g>
</g>
<g>
</g>
<g>
</g>
<g>
</g>
<g>
</g>
<g>
</g>
<g>
</g>
<g>
</g>
<g>
</g>
<g>
</g>
<g>
</g>
<g>
</g>
</svg>
