<svg height="512" viewBox="0 0 58 58" width="512" xmlns="http://www.w3.org/2000/svg"><g id="Page-1" fill="none" fill-rule="evenodd"><g id="043---Chat"><path id="Path" d="m42 16.61c6.6015333 1.6175402 12.0119764 6.3300873 14.520149 12.647187s1.8038724 13.4574747-1.890149 19.162813c-.1811678.2683527-.2185696.6087091-.1.91l2.6 6.5c.1486873.3714617.0616423.7957948-.2212814 1.0787186-.2829238.2829237-.7072569.3699687-1.0787186.2212814l-6.5-2.6c-.3012909-.1185696-.6416473-.0811678-.91.1-6.1392383 3.9771422-13.9056741 4.4730997-20.5009347 1.3091709-6.5952605-3.1639288-11.0689272-9.5318017-11.8090653-16.8091709-.2389785-2.387308-.0733186-4.7978288.49-7.13z" fill="#f0c419"/><path id="Path" d="m51.5 29.16c-.3483127.0005805-.6718327-.180121-.854-.477-1.3335206-2.1705229-3.1594771-3.9964794-5.33-5.33-.3047475-.1866713-.486758-.5217435-.4774697-.8789983.0092883-.3572547.2084642-.6824165.5225-.853.3140359-.1705835.6952222-.160673.9999697.0259983 2.4393443 1.4993483 4.4916517 3.5516557 5.991 5.991.1887933.308487.196303.6948743.019639 1.0104641-.176664.3155899-.5099665.511194-.871639.5115359z" fill="#f3d55b"/><path id="Path" d="m28.159 52.5c-.1838788-.0001676-.3641514-.0510315-.521-.147-2.4393443-1.4993483-4.4916517-3.5516557-5.991-5.991-.1866713-.3047475-.1965818-.6859338-.0259983-.9999697.1705835-.3140358.4957453-.5132117.853-.5225.3572548-.0092883.692327.1727222.8789983.4774697 1.3335206 2.1705229 3.1594771 3.9964794 5.33 5.33.3823682.2339511.5623359.6937694.4403577 1.125116s-.516097.7288221-.9643577.727884z" fill="#f29c1f"/><path id="Path" d="m36 0h-30c-3.3137085 0-6 2.6862915-6 6v20c0 3.3137085 2.6862915 6 6 6 .55228475 0 1 .4477153 1 1v5c.00028823.3935712.23140459.7503734.59045589.9115581.35905129.1611847.77925815.0967733 1.07354411-.1645581l7.052-6.494c.1828973-.1627773.4191576-.2527981.664-.253h19.62c3.3137085 0 6-2.6862915 6-6v-20c0-3.3137085-2.6862915-6-6-6z" fill="#b0d3f0"/><path id="Path" d="m4 8c-.55228475 0-1-.44771525-1-1v-1c0-1.65685425 1.34314575-3 3-3h1c.55228475 0 1 .44771525 1 1s-.44771525 1-1 1h-1c-.55228475 0-1 .44771525-1 1v1c0 .55228475-.44771525 1-1 1z" fill="#ecf0f1"/><path id="Path" d="m36 29h-1c-.5522847 0-1-.4477153-1-1s.4477153-1 1-1h1c.5522847 0 1-.4477153 1-1v-1c0-.5522847.4477153-1 1-1s1 .4477153 1 1v1c0 1.6568542-1.3431458 3-3 3z" fill="#90bae1"/></g></g></svg>