<svg id="Capa_1" enable-background="new 0 0 512 512" height="512" viewBox="0 0 512 512" width="512" xmlns="http://www.w3.org/2000/svg"><g><g><path d="m256 66.683c0-36.828-29.855-66.683-66.683-66.683s-66.683 29.855-66.683 66.683c0 18.523 7.554 35.279 19.747 47.363l113.619 113.624 73.619-113.625z" fill="#ff7c48"/><path d="m256 227.67 113.619-113.625c12.193-12.084 19.747-28.84 19.747-47.363 0-36.827-29.855-66.682-66.683-66.682s-66.683 29.855-66.683 66.683z" fill="#ff415b"/></g><g><path d="m102.469 437.232v74.768h106.224v-117.545z" fill="#2681ff"/><path d="m190.026 347.098-70.498-70.498-11.22 11.22c-12.445 12.445-12.445 32.622 0 45.067l23.916 23.916-18.814 18.814-64.676-64.677v-59.334c0-17.6-14.267-31.867-31.867-31.867h-16.867v117.601l99.892 99.892c24.89 24.89 65.244 24.89 90.134 0 24.89-24.89 24.89-65.245 0-90.134z" fill="#ffcdbe"/><g><g><g><path d="m409.531 437.232v74.768h-106.224v-117.545z" fill="#0051be"/></g></g></g><path d="m321.974 347.098 70.498-70.498 11.22 11.22c12.445 12.445 12.445 32.622 0 45.067l-23.916 23.916 18.814 18.814 64.676-64.676v-59.334c0-17.6 14.267-31.867 31.867-31.867h16.867v117.6l-99.892 99.892c-24.89 24.89-65.244 24.89-90.134 0-24.89-24.89-24.89-65.245 0-90.134z" fill="#faa68e"/></g></g></svg>