<?xml version="1.0" encoding="iso-8859-1"?>
<!-- Generator: Adobe Illustrator 19.0.0, SVG Export Plug-In . SVG Version: 6.00 Build 0)  -->
<svg version="1.1" id="Capa_1" xmlns="http://www.w3.org/2000/svg" xmlns:xlink="http://www.w3.org/1999/xlink" x="0px" y="0px"
	 viewBox="0 0 468.293 468.293" style="enable-background:new 0 0 468.293 468.293;" xml:space="preserve">
<path style="fill:#4EBD9E;" d="M468.293,176.773v256.669c0,3.915-1.219,7.572-3.208,10.652c-3.465,5.197-9.304,8.598-16.042,8.598
	H19.25c-6.674,0-12.577-3.401-16.042-8.598C1.219,441.014,0,437.357,0,433.442V176.773c0-3.914,1.219-7.571,3.208-10.651
	c3.465-5.198,9.368-8.599,16.042-8.599h429.792c6.737,0,12.577,3.401,16.042,8.599C467.073,169.201,468.293,172.858,468.293,176.773
	z"/>
<path style="fill:#F4C158;" d="M465.084,444.094c-3.465,5.197-9.304,8.598-16.042,8.598H19.25c-6.674,0-12.577-3.401-16.042-8.598
	l230.938-188.202L465.084,444.094z"/>
<path style="fill:#647989;" d="M465.084,166.853L255.45,352.196c-12.32,10.932-30.287,10.932-42.607,0L3.208,166.853
	c3.465-5.64,9.368-9.33,16.042-9.33h429.792C455.78,157.522,461.619,161.213,465.084,166.853z"/>
<path style="fill:#FAD362;" d="M465.084,166.121L255.45,336.934c-12.32,10.075-30.287,10.075-42.607,0L3.208,166.121
	c3.465-5.198,9.368-8.599,16.042-8.599h429.792C455.78,157.522,461.619,160.923,465.084,166.121z"/>
<path style="fill:#2D92BA;" d="M230.631,16.285c-0.047,0.018-0.094,0.024-0.141,0.044c-1.192,0.49-2.266,1.205-3.161,2.104
	l-32.072,32.071c-3.76,3.757-3.76,9.854,0,13.61c3.76,3.76,9.851,3.76,13.61,0l15.653-15.653v73.322
	c0,5.317,4.308,9.625,9.625,9.625V15.601C232.902,15.601,231.722,15.856,230.631,16.285z"/>
<path style="fill:#1A76A1;" d="M273.035,50.504l-32.072-32.071c-0.895-0.899-1.97-1.614-3.161-2.104
	c-0.047-0.02-0.094-0.026-0.141-0.044c-1.091-0.429-2.271-0.685-3.515-0.685v115.808c5.317,0,9.625-4.308,9.625-9.625V48.461
	l15.653,15.653c1.88,1.88,4.343,2.82,6.805,2.82c2.463,0,4.925-0.94,6.805-2.82C276.795,60.358,276.795,54.261,273.035,50.504z"/>
<g>
</g>
<g>
</g>
<g>
</g>
<g>
</g>
<g>
</g>
<g>
</g>
<g>
</g>
<g>
</g>
<g>
</g>
<g>
</g>
<g>
</g>
<g>
</g>
<g>
</g>
<g>
</g>
<g>
</g>
</svg>
