<svg height="512pt" viewBox="0 0 512 512" width="512pt" xmlns="http://www.w3.org/2000/svg"><path d="m429.035156 198.742188c-5.871094 0-11.445312-3.46875-13.847656-9.222657-3.195312-7.644531.414062-16.429687 8.058594-19.621093l49.359375-20.613282c7.644531-3.191406 16.429687.414063 19.621093 8.0625 3.195313 7.644532-.417968 16.425782-8.0625 19.621094l-49.355468 20.613281c-1.886719.785157-3.847656 1.160157-5.773438 1.160157zm0 0" fill="#ffaf48"/><path d="m183.746094 97.976562c-5.871094 0-11.445313-3.46875-13.847656-9.222656l-20.613282-49.359375c-3.195312-7.644531.414063-16.429687 8.058594-19.621093 7.648438-3.191407 16.429688.417968 19.625 8.0625l20.609375 49.355468c3.195313 7.648438-.414063 16.429688-8.058594 19.625-1.890625.785156-3.847656 1.160156-5.773437 1.160156zm0 0" fill="#ffdd84"/><path d="m348.882812 493.390625c-5.871093 0-11.445312-3.46875-13.851562-9.226563l-20.609375-49.355468c-3.195313-7.644532.414063-16.429688 8.058594-19.621094 7.648437-3.191406 16.429687.414062 19.621093 8.058594l20.613282 49.359375c3.195312 7.644531-.414063 16.429687-8.058594 19.621093-1.890625.789063-3.847656 1.164063-5.773438 1.164063zm0 0" fill="#ffaf48"/><path d="m33.621094 363.878906c-5.871094 0-11.445313-3.46875-13.847656-9.222656-3.191407-7.644531.417968-16.429688 8.0625-19.625l49.355468-20.609375c7.644532-3.191406 16.429688.414063 19.621094 8.058594 3.195312 7.648437-.414062 16.429687-8.058594 19.625l-49.359375 20.613281c-1.886719.785156-3.847656 1.160156-5.773437 1.160156zm0 0" fill="#ffdd84"/><path d="m327.246094 97.558594c-1.898438 0-3.828125-.363282-5.691406-1.128906-7.664063-3.148438-11.324219-11.910157-8.175782-19.574219l20.324219-49.476563c3.148437-7.664062 11.914063-11.324218 19.578125-8.175781 7.660156 3.148437 11.320312 11.910156 8.171875 19.574219l-20.324219 49.476562c-2.382812 5.796875-7.980468 9.304688-13.882812 9.304688zm0 0" fill="#ffaf48"/><path d="m82.546875 199.75c-1.898437 0-3.828125-.363281-5.691406-1.128906l-49.476563-20.324219c-7.664062-3.148437-11.324218-11.910156-8.175781-19.574219 3.144531-7.664062 11.910156-11.320312 19.574219-8.175781l49.476562 20.324219c7.664063 3.148437 11.324219 11.914062 8.175782 19.574218-2.382813 5.796876-7.980469 9.304688-13.882813 9.304688zm0 0" fill="#ffdd84"/><path d="m478.917969 362.582031c-1.898438 0-3.828125-.363281-5.695313-1.128906l-49.476562-20.324219c-7.664063-3.148437-11.324219-11.914062-8.175782-19.574218 3.148438-7.664063 11.910157-11.320313 19.574219-8.175782l49.476563 20.324219c7.664062 3.148437 11.324218 11.910156 8.175781 19.574219-2.382813 5.796875-7.976563 9.304687-13.878906 9.304687zm0 0" fill="#ffaf48"/><path d="m164.417969 493.925781c-1.898438 0-3.828125-.363281-5.695313-1.128906-7.664062-3.148437-11.324218-11.910156-8.175781-19.574219l20.324219-49.476562c3.148437-7.664063 11.914062-11.328125 19.578125-8.175782 7.660156 3.148438 11.320312 11.910157 8.171875 19.574219l-20.324219 49.476563c-2.382813 5.800781-7.980469 9.304687-13.878906 9.304687zm0 0" fill="#ffdd84"/><path d="m388.589844 138.410156c-3.839844 0-7.675782-1.464844-10.605469-4.394531-5.859375-5.855469-5.859375-15.355469 0-21.210937l37.824219-37.824219c5.855468-5.859375 15.351562-5.859375 21.210937 0s5.859375 15.355469 0 21.214843l-37.824219 37.820313c-2.925781 2.929687-6.765624 4.394531-10.605468 4.394531zm0 0" fill="#ffdd84"/><path d="m123.410156 138.410156c-3.839844 0-7.679687-1.464844-10.605468-4.394531l-37.824219-37.820313c-5.859375-5.859374-5.859375-15.355468 0-21.214843 5.859375-5.855469 15.355469-5.855469 21.214843 0l37.820313 37.824219c5.859375 5.855468 5.859375 15.351562 0 21.210937-2.929687 2.929687-6.769531 4.394531-10.605469 4.394531zm0 0" fill="#fff7ad"/><path d="m426.414062 441.410156c-3.839843 0-7.679687-1.464844-10.605468-4.390625l-37.824219-37.824219c-5.855469-5.855468-5.855469-15.355468 0-21.210937 5.859375-5.859375 15.355469-5.859375 21.214844 0l37.820312 37.820313c5.859375 5.855468 5.859375 15.355468 0 21.214843-2.929687 2.925781-6.769531 4.390625-10.605469 4.390625zm0 0" fill="#ffdd84"/><path d="m85.585938 441.414062c-3.839844 0-7.675782-1.464843-10.605469-4.394531-5.859375-5.859375-5.859375-15.355469 0-21.214843l37.824219-37.820313c5.855468-5.855469 15.355468-5.855469 21.210937 0 5.859375 5.855469 5.859375 15.355469 0 21.210937l-37.820313 37.824219c-2.929687 2.929688-6.769531 4.394531-10.609374 4.394531zm0 0" fill="#fff7ad"/><path d="m256 83.488281c-8.285156 0-15-6.714843-15-15v-53.488281c0-8.285156 6.714844-15 15-15s15 6.714844 15 15v53.488281c0 8.285157-6.714844 15-15 15zm0 0" fill="#fff7ad"/><path d="m271 68.488281v-53.488281c0-8.285156-6.714844-15-15-15v83.488281c8.285156 0 15-6.714843 15-15zm0 0" fill="#ffdd84"/><path d="m68.488281 271h-53.488281c-8.285156 0-15-6.714844-15-15s6.714844-15 15-15h53.488281c8.285157 0 15 6.714844 15 15s-6.714843 15-15 15zm0 0" fill="#fff7ad"/><path d="m497 271h-53.488281c-8.285157 0-15-6.714844-15-15s6.714843-15 15-15h53.488281c8.285156 0 15 6.714844 15 15s-6.714844 15-15 15zm0 0" fill="#ffdd84"/><path d="m256 512c-8.285156 0-15-6.714844-15-15v-53.488281c0-8.285157 6.714844-15 15-15s15 6.714843 15 15v53.488281c0 8.285156-6.714844 15-15 15zm0 0" fill="#fff7ad"/><path d="m271 497v-53.488281c0-8.285157-6.714844-15-15-15v83.488281c8.285156 0 15-6.714844 15-15zm0 0" fill="#ffdd84"/><path d="m256 405.023438c-82.171875 0-149.019531-66.851563-149.019531-149.023438s66.847656-149.019531 149.019531-149.019531 149.023438 66.847656 149.023438 149.019531-66.851563 149.023438-149.023438 149.023438zm0 0" fill="#ffdd84"/><path d="m256 106.980469v298.042969c82.171875 0 149.023438-66.851563 149.023438-149.023438s-66.851563-149.019531-149.023438-149.019531zm0 0" fill="#ffaf48"/></svg>