<svg id="Capa_1" enable-background="new 0 0 512 512" height="512" viewBox="0 0 512 512" width="512" xmlns="http://www.w3.org/2000/svg"><g><path d="m131.131 62.509c-72.422 0-131.131 19.607-131.131 43.794 0 29.5 58.709 46.885 131.131 46.885s131.131-16.011 131.131-46.885c-.001-24.187-58.71-43.794-131.131-43.794z" fill="#b1dbfc"/><path d="m55.474 104.793c0-14.22 10.605-27.64 29.395-39.478-49.591 6.247-84.869 22.24-84.869 40.988 0 22.983 35.636 38.611 85.626 44.395-19.255-12.939-30.152-28.333-30.152-45.905z" fill="#8bcaff"/><ellipse cx="131.131" cy="102.21" fill="#bc7c63" rx="42.781" ry="13.29"/><path d="m126.812 102.21c0-5.191 9.585-9.683 23.55-11.871-5.783-.906-12.312-1.419-19.231-1.419-23.627 0-42.781 5.95-42.781 13.29s19.154 13.29 42.781 13.29c6.919 0 13.448-.513 19.231-1.419-13.965-2.188-23.55-6.681-23.55-11.871z" fill="#ab6b51"/><path d="m508.694 100.402c-20.985-14.849-66.223-25.125-118.65-25.125-26.819 0-56.118 5.492-80.789 12.612-20.484 5.912-38.709 17.483-53.883 32.46-17.526 17.298-66.53 29.749-124.241 29.749-72.422 0-131.131-19.608-131.131-43.795v299.394c0 24.187 58.709 43.794 131.131 43.794 58.196 0 101.613-10.106 121.185-28.68 16.272-15.442 35.582-27.378 57.138-33.586 24.629-7.092 53.844-12.555 80.591-12.555 46.352 0 87.084 8.032 110.404 20.156 5.264 2.737 11.552-1.026 11.552-6.959v-281.043c-.001-2.551-1.225-4.949-3.307-6.422z" fill="#dfebfa"/><g fill="#b1dbfc"><path d="m241.926 189.071c-4.267 0-7.727-3.46-7.727-7.727v-15.622c0-4.267 3.46-7.727 7.727-7.727s7.727 3.46 7.727 7.727v15.622c0 4.268-3.459 7.727-7.727 7.727z"/><path d="m241.926 239.849c-4.267 0-7.727-3.46-7.727-7.727v-15.622c0-4.267 3.46-7.727 7.727-7.727s7.727 3.46 7.727 7.727v15.622c0 4.267-3.459 7.727-7.727 7.727z"/><path d="m241.926 290.627c-4.267 0-7.727-3.46-7.727-7.727v-15.623c0-4.267 3.46-7.727 7.727-7.727s7.727 3.46 7.727 7.727v15.623c0 4.268-3.459 7.727-7.727 7.727z"/><path d="m241.926 341.405c-4.267 0-7.727-3.46-7.727-7.727v-15.623c0-4.267 3.46-7.727 7.727-7.727s7.727 3.46 7.727 7.727v15.623c0 4.267-3.459 7.727-7.727 7.727z"/><path d="m241.926 392.183c-4.267 0-7.727-3.46-7.727-7.727v-15.622c0-4.267 3.46-7.727 7.727-7.727s7.727 3.46 7.727 7.727v15.622c0 4.267-3.459 7.727-7.727 7.727z"/></g><g><path d="m51.513 425.375v-238.516c0-20.71 15.737-36.889 34.839-39.382-50.371-6.112-86.352-22.239-86.352-41.174v299.394c0 15.707 24.763 29.479 61.955 37.208-6.723-5.398-10.442-11.319-10.442-17.53z" fill="#b1dbfc"/></g></g></svg>