<?xml version="1.0" encoding="iso-8859-1"?>
<!-- Generator: Adobe Illustrator 19.0.0, SVG Export Plug-In . SVG Version: 6.00 Build 0)  -->
<svg version="1.1" id="Capa_1" xmlns="http://www.w3.org/2000/svg" xmlns:xlink="http://www.w3.org/1999/xlink" x="0px" y="0px"
	 viewBox="0 0 512 512" style="enable-background:new 0 0 512 512;" xml:space="preserve">
<rect x="37.333" y="140.8" style="fill:#F3F3F3;" width="436.267" height="322.133"/>
<rect x="37.333" y="140.8" style="fill:#E8EAE9;" width="436.267" height="24.533"/>
<path style="fill:#415A6B;" d="M195.2,373.333v88.533h121.6v-88.533c0-33.067-26.667-60.8-60.8-60.8l0,0
	C222.933,312.533,195.2,340.267,195.2,373.333z"/>
<path style="fill:#344A5E;" d="M216.533,461.867v-88.533c0-21.333,18.133-39.467,39.467-39.467l0,0
	c21.333,0,39.467,18.133,39.467,39.467v88.533H216.533z"/>
<rect y="461.867" style="fill:#ADB3BA;" width="512" height="50.133"/>
<g>
	<rect x="78.933" y="194.133" style="fill:#8AD7F8;" width="86.4" height="82.133"/>
	<rect x="212.267" y="194.133" style="fill:#8AD7F8;" width="86.4" height="82.133"/>
	<rect x="346.667" y="194.133" style="fill:#8AD7F8;" width="86.4" height="82.133"/>
	<rect x="78.933" y="327.467" style="fill:#8AD7F8;" width="86.4" height="82.133"/>
	<rect x="346.667" y="327.467" style="fill:#8AD7F8;" width="86.4" height="82.133"/>
</g>
<polygon style="fill:#F3705A;" points="474.667,0 510.933,140.8 1.067,140.8 37.333,0 "/>
<g>
</g>
<g>
</g>
<g>
</g>
<g>
</g>
<g>
</g>
<g>
</g>
<g>
</g>
<g>
</g>
<g>
</g>
<g>
</g>
<g>
</g>
<g>
</g>
<g>
</g>
<g>
</g>
<g>
</g>
</svg>
