<svg height="512pt" viewBox="0 0 512 512" width="512pt" xmlns="http://www.w3.org/2000/svg"><path d="m504.882812 2.242188c-4.410156-2.738282-9.949218-2.976563-14.59375-.660157-48.191406 24.097657-87.730468 65.527344-109.527343 114.847657l107.246093 48.164062c15.703126-31.785156 23.992188-68.324219 23.992188-103.757812v-45.835938c0-5.199219-2.695312-10.019531-7.117188-12.757812zm0 0" fill="#93bf00"/><path d="m366.699219 107.199219-120.898438 1.800781c-3.300781-15.300781-4.800781-32.199219-4.800781-48.101562v-45.898438c0-5.101562 2.699219-9.902344 7.199219-12.898438 2.402343-1.503906 5.101562-2.101562 7.800781-2.101562 2.402344 0 4.5.597656 6.597656 1.5 45 22.5 81.902344 60.699219 104.101563 105.699219zm0 0" fill="#a8d32a"/><path d="m512 196v60c0 140.699219-115.300781 256-256 256s-256-115.300781-256-256v-60c0-8.402344 6.597656-15 15-15h482c8.402344 0 15 6.597656 15 15zm0 0" fill="#b35f49"/><path d="m512 196v60c0 140.699219-115.300781 256-256 256v-331h241c8.402344 0 15 6.597656 15 15zm0 0" fill="#99503d"/><path d="m256 91c-123.601562 0-256 36.898438-256 105 0 68.097656 132.398438 105 256 105s256-36.902344 256-105c0-68.101562-132.398438-105-256-105zm0 0" fill="#c6715a"/><path d="m512 196c0 68.097656-132.398438 105-256 105v-210c123.601562 0 256 36.898438 256 105zm0 0" fill="#b35f49"/><path d="m421 346c0 8.285156-6.714844 15-15 15s-15-6.714844-15-15 6.714844-15 15-15 15 6.714844 15 15zm0 0" fill="#804231"/><path d="m361 406c0 8.285156-6.714844 15-15 15s-15-6.714844-15-15 6.714844-15 15-15 15 6.714844 15 15zm0 0" fill="#804231"/><path d="m256 121c-128.699219 0-226 39.601562-226 75s97.300781 75 226 75 226-39.601562 226-75-97.300781-75-226-75zm0 0" fill="#ececf1"/><path d="m482 196c0 35.398438-97.300781 75-226 75v-150c128.699219 0 226 39.601562 226 75zm0 0" fill="#e2e2e7"/><path d="m256 151c-38.699219 0-166 3.300781-166 45s127.300781 45 166 45 165-3.300781 165-45-126.300781-45-165-45zm0 0" fill="#e2e2e7"/><path d="m421 196c0 41.699219-126.300781 45-165 45v-90c38.699219 0 165 3.300781 165 45zm0 0" fill="#d3d3d8"/></svg>