<svg id="Capa_1" enable-background="new 0 0 497 497" height="512" viewBox="0 0 497 497" width="512" xmlns="http://www.w3.org/2000/svg"><g><path d="m459.08 31.956 3.768 21.802c.16.927-.347 1.84-1.218 2.194l-22.564 9.163c-.91.37-1.417 1.346-1.196 2.303l5.882 25.479c.223.967-.297 1.952-1.222 2.313l-25.927 10.115 6.266 27.14c.223.967-.297 1.952-1.222 2.313l-24.316 9.486c-.925.361-1.445 1.346-1.222 2.313l5.878 25.452c.223.968-.297 1.952-1.222 2.313l-24.314 9.483c-.925.361-1.445 1.346-1.222 2.313l5.879 25.45c.224.968-.297 1.953-1.222 2.313l-24.315 9.485c-.925.361-1.445 1.346-1.222 2.313l5.879 25.45c.223.968-.297 1.953-1.222 2.313l-24.315 9.484c-.925.361-1.445 1.346-1.222 2.313l5.878 25.452c.223.968-.297 1.952-1.222 2.313l-24.315 9.484c-.925.361-1.445 1.346-1.222 2.313l5.878 25.451c.223.968-.297 1.952-1.222 2.313l-24.315 9.485c-.925.361-1.445 1.346-1.222 2.313l5.878 25.451c.223.968-.297 1.953-1.222 2.313l-24.313 9.482c-.925.361-1.445 1.346-1.222 2.313l5.879 25.45c.224.968-.297 1.953-1.222 2.313l-24.313 9.481c-.925.361-1.446 1.346-1.222 2.313l5.879 25.451c.223.967-.296 1.952-1.221 2.313l-15.176 5.928c-7.152 2.793-15.279 1.089-20.705-4.343l-120.957-121.066 312.418-325.831c7.5-7.822 19.964-7.95 27.622-.284l15.89 15.905c2.821 2.824 4.7 6.451 5.38 10.384z" fill="#e9edf1"/><path d="m209.465 440.869c3.88 1.04 8.06.85 11.96-.67l15.18-5.93c.93-.36 1.45-1.35 1.22-2.31l-5.88-25.45c-.22-.97.3-1.96 1.23-2.32l24.31-9.48c.92-.36 1.44-1.35 1.22-2.31l-5.88-25.45c-.22-.97.3-1.96 1.22-2.32l24.32-9.48c.92-.36 1.44-1.34 1.22-2.31l-5.88-25.45c-.22-.97.3-1.96 1.22-2.32l24.32-9.48c.92-.36 1.44-1.35 1.22-2.31l-5.88-25.46c-.22-.96.3-1.95 1.22-2.31l24.32-9.48c.92-.36 1.44-1.35 1.22-2.32l-5.88-25.45c-.22-.97.3-1.95 1.22-2.31l24.32-9.49c.92-.36 1.44-1.34 1.22-2.31l-5.88-25.45c-.22-.97.3-1.95 1.22-2.31l24.32-9.49c.92-.36 1.44-1.34 1.22-2.31l-5.88-25.45c-.22-.97.3-1.95 1.22-2.31l24.32-9.49c.92-.36 1.44-1.34 1.22-2.31l-5.88-25.45c-.22-.97.3-1.95 1.22-2.32l24.32-9.48c.93-.36 1.45-1.35 1.22-2.31l-6.26-27.14 25.93-10.12c.92-.36 1.44-1.34 1.22-2.31l-5.88-25.48c-.23-.96.28-1.94 1.19-2.3l22.56-9.17c.88-.35 1.38-1.26 1.22-2.19l-3.77-21.8c-.67-3.94-2.55-7.56-5.37-10.39l-2.08-2.08c1.5.84 2.91 1.9 4.19 3.18l15.89 15.9c2.82 2.83 4.7 6.45 5.37 10.39l3.77 21.8c.16.93-.34 1.84-1.22 2.19l-22.56 9.17c-.91.36-1.42 1.34-1.19 2.3l5.88 25.48c.22.97-.3 1.95-1.22 2.31l-25.93 10.12 6.26 27.14c.23.96-.29 1.95-1.22 2.31l-24.31 9.48c-.93.37-1.45 1.35-1.23 2.32l5.88 25.45c.22.97-.3 1.95-1.22 2.31l-24.32 9.49c-.92.36-1.44 1.34-1.22 2.31l5.88 25.45c.22.97-.3 1.95-1.22 2.31l-24.32 9.49c-.92.36-1.44 1.34-1.22 2.31l5.88 25.45c.22.97-.3 1.95-1.22 2.31l-24.32 9.49c-.92.36-1.44 1.34-1.22 2.31l5.88 25.45c.22.97-.3 1.96-1.22 2.32l-24.32 9.48c-.92.36-1.44 1.35-1.22 2.31l5.88 25.46c.22.96-.3 1.95-1.22 2.31l-24.32 9.48c-.92.36-1.44 1.35-1.22 2.32l5.88 25.45c.22.97-.3 1.95-1.22 2.31l-24.32 9.48c-.92.36-1.44 1.35-1.22 2.32l5.88 25.45c.22.96-.3 1.95-1.22 2.31l-24.31 9.48c-.93.36-1.45 1.35-1.23 2.32l5.88 25.45c.23.96-.29 1.95-1.22 2.31l-15.18 5.93c-7.15 2.79-15.27 1.09-20.7-4.35l-10.04-10.05z" fill="#dce6eb"/><path d="m209.465 440.869c-.24.65-.5 1.29-.78 1.93" fill="#dce6eb"/><path d="m42.618 406.348c-11.339-11.35-11.325-29.756.032-41.088l90.669-89.588c7.551-7.558 19.794-7.558 27.345 0l42.776 42.818c5.439 5.444 8.495 12.829 8.495 20.528v88.268c0 10.266-4.074 20.112-11.327 27.371l-34.971 33.905c-11.337 11.275-29.65 11.246-40.951-.066z" fill="#fca62f"/><path d="m211.935 339.019v88.27c0 10.26-4.08 20.11-11.33 27.37l-34.97 33.9c-11.34 11.28-29.65 11.25-40.95-.06l-14.69-14.71c11.32 11.02 29.4 10.95 40.64-.23l34.97-33.9c7.25-7.26 11.33-17.11 11.33-27.37v-88.27c0-7.7-3.06-15.09-8.5-20.53l15 15c5.44 5.44 8.5 12.83 8.5 20.53z" fill="#f98824"/><path d="m168.183 439.213-5.91 5.582c-7.551 7.558-19.794 7.558-27.345 0l-47.853-47.899c-7.551-7.558-7.551-19.813 0-27.371l5.91-5.582c7.551-7.558 19.794-7.558 27.345 0l47.853 47.899c7.551 7.559 7.551 19.813 0 27.371z" fill="#f3d69e"/><path d="m168.185 439.209-5.91 5.59c-7.55 7.55-19.8 7.55-27.35 0l-14.63-14.65c7.57 7.2 19.55 7.08 26.98-.35l5.91-5.59c7.55-7.55 7.55-19.81 0-27.37l-33.15-33.18c.1.09.2.18.29.28l47.86 47.9c7.55 7.56 7.55 19.82 0 27.37z" fill="#efcb83"/><ellipse cx="151.092" cy="330.414" fill="#e9edf1" rx="17.402" ry="17.419"/><path d="m163.395 342.729c-6.79 6.8-17.81 6.8-24.61 0-5.08-5.08-6.36-12.53-3.84-18.81.85 2.11 2.13 4.1 3.84 5.81 6.8 6.8 17.82 6.8 24.61 0 1.71-1.71 3-3.7 3.84-5.81 2.53 6.28 1.24 13.73-3.84 18.81z" fill="#dce6eb"/></g></svg>