<svg height="512pt" viewBox="-36 0 512 512" width="512pt" xmlns="http://www.w3.org/2000/svg"><path d="m321.613281 44.09375-160.804687-18.777344-160.808594 18.777344v426l160.808594 20.96875 160.804687-20.96875c0-83.867188 0-242.171875 0-426zm0 0" fill="#8ebfe8" fill-rule="evenodd"/><path d="m321.613281 470.09375h-321.613281v15.828125c0 14.339844 11.742188 26.078125 26.082031 26.078125h269.453125c14.339844 0 26.078125-11.738281 26.078125-26.078125zm0 0" fill="#e6e6e6" fill-rule="evenodd"/><path d="m0 44.09375h102.835938c13.140624-.085938 23.421874-.144531 29.992187 11.183594 5.519531 9.523437 16.0625 15.976562 28.210937 15.886718 12.414063 0 22.316407-6.890624 27.953126-15.886718 7.066406-11.242188 16.53125-11.09375 29.992187-11.183594h102.628906v-18.015625c0-14.339844-11.738281-26.078125-26.078125-26.078125h-269.453125c-14.339843 0-26.082031 11.738281-26.082031 26.078125zm0 0" fill="#e6e6e6" fill-rule="evenodd"/><path d="m284.667969 26.078125v18.015625h36.945312v-18.015625c0-14.339844-11.738281-26.078125-26.078125-26.078125h-36.917968c14.339843 0 26.050781 11.738281 26.050781 26.078125zm0 0" fill="#c4cccf" fill-rule="evenodd"/><path d="m284.667969 485.921875c0 14.28125-11.652344 25.992187-25.933594 26.078125h36.796875c14.339844 0 26.082031-11.738281 26.082031-26.078125v-15.828125h-36.945312zm0 0" fill="#c4cccf" fill-rule="evenodd"/><path d="m284.667969 409.0625v61.03125h36.945312v-426h-36.945312zm0 0" fill="#519ad6" fill-rule="evenodd"/><path d="m161.039062 41.070312h-.234374c-4.265626 0-7.722657-3.457031-7.722657-7.722656s3.457031-7.722656 7.722657-7.722656h.234374c4.269532 0 7.726563 3.457031 7.726563 7.722656s-3.457031 7.722656-7.726563 7.722656zm0 0" fill="#35505c"/><path d="m263.960938 164.683594h-224.882813c-4.269531 0-7.726563-3.457032-7.726563-7.722656 0-4.265626 3.457032-7.722657 7.726563-7.722657h224.882813c4.269531 0 7.726562 3.457031 7.726562 7.722657 0 4.265624-3.457031 7.722656-7.726562 7.722656zm0 0" fill="#35505c"/><path d="m263.960938 114.605469h-179.351563c-4.265625 0-7.726563-3.460938-7.726563-7.726563s3.460938-7.722656 7.726563-7.722656h179.351563c4.269531 0 7.726562 3.457031 7.726562 7.722656s-3.457031 7.726563-7.726562 7.726563zm0 0" fill="#35505c"/><path d="m263.960938 214.738281h-224.882813c-4.269531 0-7.726563-3.460937-7.726563-7.726562s3.457032-7.722657 7.726563-7.722657h224.882813c4.269531 0 7.726562 3.457032 7.726562 7.722657s-3.457031 7.726562-7.726562 7.726562zm0 0" fill="#35505c"/><path d="m253.449219 264.816406h-214.371094c-4.269531 0-7.726563-3.457031-7.726563-7.722656s3.457032-7.722656 7.726563-7.722656h214.367187c4.269532 0 7.726563 3.457031 7.726563 7.722656s-3.457031 7.722656-7.722656 7.722656zm0 0" fill="#35505c"/><path d="m227.542969 314.898438h-188.464844c-4.269531 0-7.726563-3.457032-7.726563-7.722657s3.457032-7.722656 7.726563-7.722656h188.464844c4.265625 0 7.726562 3.457031 7.726562 7.722656s-3.460937 7.722657-7.726562 7.722657zm0 0" fill="#35505c"/><path d="m263.960938 364.953125h-224.882813c-4.269531 0-7.726563-3.457031-7.726563-7.722656s3.457032-7.726563 7.726563-7.726563h224.882813c4.269531 0 7.726562 3.460938 7.726562 7.726563s-3.457031 7.722656-7.726562 7.722656zm0 0" fill="#35505c"/><path d="m217.871094 415.035156h-178.792969c-4.269531 0-7.726563-3.460937-7.726563-7.726562s3.457032-7.722656 7.726563-7.722656h178.792969c4.269531 0 7.726562 3.457031 7.726562 7.722656s-3.457031 7.726562-7.726562 7.726562zm0 0" fill="#35505c"/><g fill-rule="evenodd"><path d="m209.523438 375.304688-3.214844 20.179687c-2.277344 14.921875 12.851562 24.648437 25.730468 14.21875l15.421876-13.402344-10.777344-24.792969zm0 0" fill="#546e7a"/><path d="m285.515625 363.246094-23.597656-32.910156-44.539063-4.761719-7.855468 49.730469 37.9375 20.996093zm0 0" fill="#ffd54f"/><path d="m257.1875 347.59375-24.183594 43.800781 14.457032 4.90625 38.054687-33.054687zm0 0" fill="#e6a235"/><path d="m234.289062 389.058594-11.039062 11.390625c-8.820312 5.839843-12.09375 5.429687-15.335938 5.722656 4.148438 8.03125 14.75 11.125 24.125 3.53125l15.421876-13.402344zm0 0" fill="#35505c"/><path d="m348.921875 87.753906-124.183594 224.503906-7.359375 13.316407 68.136719 37.671875 42.085937-76.074219 101.550782-183.59375v-.027344l-22.871094-36.328125-45.265625-1.34375zm0 0" fill="#8bc34a"/><path d="m257.1875 347.59375 28.328125 15.652344 42.085937-76.074219 101.550782-183.59375v-.027344l-28.332032-15.652343v.027343l-101.546874 183.59375zm0 0" fill="#689f38"/><path d="m420.945312 37.964844c-18.722656-10.367188-42.523437-3.503906-52.894531 15.210937l-7.039062 12.703125 68.136719 37.671875 7.011718-12.671875c10.28125-18.542968 3.707032-42.433594-15.214844-52.914062zm0 0" fill="#f0417b"/><path d="m405.085938 33.230469c8.117187 11.070312 10.015624 25.992187 4.292968 38.925781-.46875 1.023438-.964844 2.046875-1.550781 3.066406l-7.007813 12.675782 28.332032 15.652343 7.007812-12.675781c10.28125-18.542969 3.707032-42.429688-15.214844-52.914062-5.023437-2.773438-10.457031-4.320313-15.859374-4.730469zm0 0" fill="#a3316e"/></g></svg>