<?xml version="1.0" encoding="iso-8859-1"?>
<!-- Generator: Adobe Illustrator 19.0.0, SVG Export Plug-In . SVG Version: 6.00 Build 0)  -->
<svg version="1.1" id="Capa_1" xmlns="http://www.w3.org/2000/svg" xmlns:xlink="http://www.w3.org/1999/xlink" x="0px" y="0px"
	 viewBox="0 0 512 512" style="enable-background:new 0 0 512 512;" xml:space="preserve">
<path style="fill:#FFE475;" d="M421.833,59.056C377.427,20.974,318.533,0,256,0S134.574,20.974,90.168,59.056
	c-45.075,38.657-69.899,90.251-69.899,145.28c0,45.522,17.282,75.2,45.164,108.332c18.492,21.971,27.881,38.252,27.881,66.262
	v79.862c0,29.339,23.868,53.208,53.207,53.208h218.958c29.339,0,53.207-23.869,53.207-53.208v-79.861
	c0-28.012,9.389-44.292,27.881-66.263c27.882-33.13,45.164-62.809,45.164-108.332C491.731,149.309,466.908,97.714,421.833,59.056z"
	/>
<g>
	<path style="fill:#FFB726;" d="M421.833,59.056C377.427,20.974,318.533,0,256,0v512h109.48c29.339,0,53.207-23.869,53.207-53.208
		v-79.861c0-28.012,9.389-44.292,27.881-66.263c27.882-33.13,45.164-62.809,45.164-108.332
		C491.731,149.309,466.908,97.714,421.833,59.056z"/>
	<path style="fill:#FFB726;" d="M177.687,110.952c-31.282,0-56.733,25.45-56.733,56.733c0,31.282,25.451,56.732,56.733,56.732
		s56.733-25.45,56.733-56.732C234.42,136.401,208.969,110.952,177.687,110.952z"/>
</g>
<path style="fill:#FC8B26;" d="M343.359,138.942c7.971,0,15.608-7.009,15.239-15.239c-0.37-8.256-6.696-15.239-15.239-15.239
	c-7.971,0-15.608,7.009-15.239,15.239C328.49,131.96,334.816,138.942,343.359,138.942L343.359,138.942z"/>
<g>
	<path style="fill:#FFB726;" d="M205.774,298.365c7.971,0,15.608-7.009,15.239-15.239c-0.37-8.256-6.696-15.239-15.239-15.239
		c-7.971,0-15.608,7.009-15.239,15.239C190.905,291.383,197.231,298.365,205.774,298.365L205.774,298.365z"/>
	<path style="fill:#FFB726;" d="M256,346.505c-28.876,0-52.369,23.492-52.369,52.368c0,28.876,23.492,52.369,52.369,52.369
		c28.877,0,52.369-23.492,52.369-52.369C308.369,369.997,284.876,346.505,256,346.505z"/>
</g>
<g>
	<path style="fill:#FC8B26;" d="M336.807,187.158c-28.231,0-51.199,22.968-51.199,51.199s22.968,51.199,51.199,51.199
		s51.198-22.968,51.198-51.199S365.039,187.158,336.807,187.158z"/>
	<path style="fill:#FC8B26;" d="M256,346.505v104.736c28.877,0,52.369-23.492,52.369-52.369
		C308.369,369.997,284.876,346.505,256,346.505z"/>
</g>
<path style="fill:#8F4F0B;" d="M365.48,512H146.521c-29.339,0-53.207-23.869-53.207-53.208V378.93
	c0-28.01-9.389-44.291-27.881-66.262c-27.882-33.13-45.164-62.809-45.164-108.332c0-55.028,24.824-106.623,69.899-145.28
	C134.574,20.974,193.468,0,256,0s121.426,20.974,165.832,59.056c45.075,38.657,69.899,90.251,69.899,145.28
	c0,45.522-17.282,75.2-45.164,108.332c-18.492,21.97-27.881,38.251-27.881,66.263v79.861C418.686,488.131,394.818,512,365.48,512z
	 M256,30.478c-113.176,0-205.253,77.993-205.253,173.858c0,36.609,13.356,59.419,38.005,88.706
	c22.193,26.368,35.04,48.875,35.04,85.888v79.862c0,12.533,10.196,22.73,22.729,22.73h218.958c12.533,0,22.729-10.197,22.729-22.73
	v-79.861c0-37.014,12.847-59.521,35.04-85.888c24.648-29.287,38.005-52.097,38.005-88.706
	C461.253,108.471,369.177,30.478,256,30.478z"/>
<path style="fill:#592B03;" d="M461.253,204.336c0,36.609-13.356,59.419-38.005,88.706c-22.193,26.368-35.04,48.875-35.04,85.888
	v79.861c0,12.533-10.196,22.73-22.729,22.73H256v30.478h109.48c29.339,0,53.207-23.869,53.207-53.208V378.93
	c0-28.012,9.389-44.292,27.881-66.263c27.882-33.13,45.164-62.809,45.164-108.332c0-55.028-24.824-106.623-69.899-145.28
	C377.427,20.974,318.533,0,256,0v30.478C369.177,30.478,461.253,108.471,461.253,204.336z"/>
<g>
</g>
<g>
</g>
<g>
</g>
<g>
</g>
<g>
</g>
<g>
</g>
<g>
</g>
<g>
</g>
<g>
</g>
<g>
</g>
<g>
</g>
<g>
</g>
<g>
</g>
<g>
</g>
<g>
</g>
</svg>
