<svg enable-background="new 0 0 512 512" height="512" viewBox="0 0 512 512" width="512" xmlns="http://www.w3.org/2000/svg"><g id="_x34_7_Red_Currant"><g><path d="m378.418 125.071c-15.098-42.776-47.955-63.281-58.559-68.965 3.356-31.391 3.306-49.979 3.299-50.628-.032-2.956-2.438-5.328-5.386-5.328-.018 0-.039 0-.058 0-2.975.032-5.36 2.472-5.328 5.444.01.836.091 31.862-7.37 81.845-9.973.706-31.383 7.485-69.687 42.11-2.207 1.999-2.38 5.402-.384 7.611 1.063 1.173 2.527 1.773 3.998 1.773 1.286 0 2.58-.458 3.608-1.389 33.508-30.29 52.441-37.344 60.718-38.897-4.585 28.077-11.486 61.325-21.83 98.022-12.273-.035-46.047 2.541-76.774 29.224-2.246 1.951-2.485 5.35-.534 7.596 1.065 1.231 2.562 1.857 4.069 1.857 1.252 0 2.509-.437 3.53-1.32 25.456-22.109 53.787-25.961 66.572-26.485-7.56 25.603-16.788 52.744-28.074 80.9-11.99.156-47.465 3.963-80.42 41.035-1.975 2.22-1.775 5.628.447 7.601 1.028.915 2.304 1.362 3.577 1.362 1.486 0 2.964-.61 4.029-1.809 26.616-29.938 54.62-36.054 67.868-37.188-10.136 24.353-21.825 49.39-35.277 74.771-11.305 1.151-49.986 7.077-74.135 35.543-1.923 2.267-1.644 5.665.623 7.59 1.013.857 2.251 1.278 3.482 1.278 1.528 0 3.046-.647 4.111-1.904 17.592-20.735 44.892-28.12 59.538-30.687-14.195 25.817-30.226 51.928-48.384 77.981-1.702 2.441-1.102 5.802 1.339 7.501.939.652 2.012.968 3.075.968 1.702 0 3.377-.805 4.424-2.304 28.436-40.799 53.421-84.235 74.497-129.064 8.234 6.557 24.315 22.649 26.505 49.653.229 2.814 2.585 4.95 5.363 4.95.145 0 .292-.005.442-.016 2.964-.242 5.173-2.84 4.931-5.807-2.697-33.258-23.7-52.18-32.608-58.786 10.946-24.04 21.094-49.201 30.072-74.652 9.081 5.476 28.295 21.056 30.693 55.967.195 2.84 2.562 5.018 5.368 5.018.124 0 .25-.005.373-.011 2.969-.205 5.21-2.777 5.005-5.744-2.899-42.228-27.508-59.969-37.847-65.611 8.956-26.385 16.797-53.218 23.68-81.984 10.298 5.754 32.19 21.18 37.503 50.598.468 2.604 2.738 4.429 5.294 4.429.316 0 .639-.026.963-.084 2.927-.531 4.871-3.33 4.342-6.26-6.636-36.758-34.987-54.229-45.56-59.562 7.12-31.441 11.912-60.399 14.982-85.433 11.972 7.277 37.495 26.184 49.741 60.88.781 2.209 2.859 3.593 5.079 3.593.594 0 1.199-.1 1.794-.305 2.8-.996 4.273-4.074 3.281-6.877z" fill="#13bd79"/><g><path d="m423.514 139.823c0 21.626-17.502 39.128-39.129 39.128-21.588 0-39.129-17.502-39.129-39.128 0-21.588 17.541-39.129 39.129-39.129 21.627 0 39.129 17.541 39.129 39.129z" fill="#f96464"/><path d="m423.514 139.823c0 21.626-17.502 39.128-39.129 39.128-2.275 0-4.51-.193-6.669-.578 18.427-3.161 32.421-19.198 32.421-38.55 0-19.314-13.994-35.389-32.421-38.55 2.159-.386 4.395-.579 6.669-.579 21.627 0 39.129 17.541 39.129 39.129z" opacity=".08"/></g><g><path d="m384.386 229.957c0 21.626-17.502 39.128-39.129 39.128-21.588 0-39.129-17.502-39.129-39.128 0-21.588 17.541-39.129 39.129-39.129 21.627 0 39.129 17.541 39.129 39.129z" fill="#f96464"/><path d="m384.386 229.957c0 21.626-17.502 39.128-39.129 39.128-2.275 0-4.51-.193-6.669-.578 18.427-3.161 32.421-19.198 32.421-38.55 0-19.314-13.994-35.389-32.421-38.55 2.159-.386 4.395-.579 6.669-.579 21.627 0 39.129 17.541 39.129 39.129z" opacity=".08"/></g><g><path d="m356.902 322.56c0 21.626-17.502 39.128-39.129 39.128-21.588 0-39.129-17.502-39.129-39.128 0-21.588 17.541-39.129 39.129-39.129 21.627 0 39.129 17.541 39.129 39.129z" fill="#f96464"/><path d="m356.902 322.56c0 21.626-17.502 39.128-39.129 39.128-2.275 0-4.51-.193-6.669-.578 18.427-3.161 32.421-19.198 32.421-38.55 0-19.314-13.994-35.389-32.421-38.55 2.159-.386 4.395-.579 6.669-.579 21.627 0 39.129 17.541 39.129 39.129z" opacity=".08"/></g><g><path d="m317.773 413.236c0 21.626-17.502 39.128-39.129 39.128-21.588 0-39.129-17.502-39.129-39.128 0-21.588 17.541-39.129 39.129-39.129 21.627 0 39.129 17.541 39.129 39.129z" fill="#f96464"/><path d="m317.773 413.236c0 21.626-17.502 39.128-39.129 39.128-2.275 0-4.51-.193-6.669-.578 18.427-3.161 32.421-19.198 32.421-38.55 0-19.314-13.994-35.389-32.421-38.55 2.159-.386 4.395-.579 6.669-.579 21.627 0 39.129 17.541 39.129 39.129z" opacity=".08"/></g><g><path d="m216.293 472.723c0 21.626-17.502 39.128-39.129 39.128-21.588 0-39.129-17.502-39.129-39.128 0-21.588 17.541-39.129 39.129-39.129 21.627 0 39.129 17.541 39.129 39.129z" fill="#f96464"/><path d="m216.293 472.723c0 21.626-17.502 39.128-39.129 39.128-2.275 0-4.51-.193-6.669-.578 18.427-3.161 32.421-19.198 32.421-38.55 0-19.314-13.994-35.389-32.421-38.55 2.159-.386 4.395-.579 6.669-.579 21.627 0 39.129 17.541 39.129 39.129z" opacity=".08"/></g><g><path d="m166.743 400.817c0 21.626-17.502 39.128-39.129 39.128-21.588 0-39.129-17.502-39.129-39.128 0-21.589 17.541-39.129 39.129-39.129 21.627 0 39.129 17.541 39.129 39.129z" fill="#f96464"/><path d="m166.743 400.817c0 21.626-17.502 39.128-39.129 39.128-2.275 0-4.51-.193-6.669-.578 18.427-3.161 32.421-19.198 32.421-38.55 0-19.314-13.994-35.389-32.421-38.55 2.159-.386 4.395-.579 6.669-.579 21.627 0 39.129 17.541 39.129 39.129z" opacity=".08"/></g><g><path d="m216.293 313.433c0 21.626-17.502 39.128-39.129 39.128-21.588 0-39.129-17.502-39.129-39.128 0-21.588 17.541-39.129 39.129-39.129 21.627 0 39.129 17.54 39.129 39.129z" fill="#f96464"/><path d="m216.293 313.433c0 21.626-17.502 39.128-39.129 39.128-2.275 0-4.51-.193-6.669-.578 18.427-3.161 32.421-19.198 32.421-38.55 0-19.314-13.994-35.389-32.421-38.55 2.159-.386 4.395-.579 6.669-.579 21.627 0 39.129 17.54 39.129 39.129z" opacity=".08"/></g><g><path d="m255.422 213.729c0 21.626-17.502 39.128-39.129 39.128-21.588 0-39.129-17.502-39.129-39.128 0-21.588 17.541-39.129 39.129-39.129 21.627 0 39.129 17.541 39.129 39.129z" fill="#f96464"/><path d="m255.422 213.729c0 21.626-17.502 39.128-39.129 39.128-2.275 0-4.51-.193-6.669-.578 18.427-3.161 32.421-19.198 32.421-38.55 0-19.314-13.994-35.389-32.421-38.55 2.159-.386 4.395-.579 6.669-.579 21.627 0 39.129 17.541 39.129 39.129z" opacity=".08"/></g><g><path d="m286.078 123.11c0 21.626-17.502 39.128-39.129 39.128-21.588 0-39.129-17.502-39.129-39.128 0-21.588 17.541-39.129 39.129-39.129 21.627 0 39.129 17.541 39.129 39.129z" fill="#f96464"/><path d="m286.078 123.11c0 21.626-17.502 39.128-39.129 39.128-2.275 0-4.51-.193-6.669-.578 18.427-3.161 32.421-19.198 32.421-38.55 0-19.314-13.994-35.389-32.421-38.55 2.159-.386 4.395-.579 6.669-.579 21.627 0 39.129 17.541 39.129 39.129z" opacity=".08"/></g></g></g></svg>