<svg height="512" viewBox="0 0 58 58" width="512" xmlns="http://www.w3.org/2000/svg"><g id="Page-1" fill="none" fill-rule="evenodd"><g id="044---Emotion-Chat"><path id="Path" d="m33.91 23h18.09c3.3137085 0 6 2.6862915 6 6v16c0 3.3137085-2.6862915 6-6 6-.5522847 0-1 .4477153-1 1v5c-.0004965.3925078-.2305711.7484304-.5882654.9100393-.3576943.1616088-.776857.0990164-1.0717346-.1600393l-7.06-6.5c-.1823042-.1607777-.4169276-.2496502-.66-.25h-11.62c-3.3137085 0-6-2.6862915-6-6v-16c-.0007205-.3353876.0294064-.6701307.09-1z" fill="#ff5364"/><path id="Path" d="m52 48h-1c-.5522847 0-1-.4477153-1-1s.4477153-1 1-1h1c.5522847 0 1-.4477153 1-1v-1c0-.5522847.4477153-1 1-1s1 .4477153 1 1v1c0 1.6568542-1.3431458 3-3 3z" fill="#df4d60"/><circle id="Oval" cx="41" cy="37" fill="#f0c419" r="10"/><circle id="Oval" cx="37" cy="36" fill="#35495e" r="2"/><circle id="Oval" cx="45" cy="36" fill="#35495e" r="2"/><path id="Path" d="m44.014 44c-.3750145.0002-.7186184-.209437-.89-.543-.4242139-.806387-1.2189589-1.3515581-2.124-1.457-.8967273.0971985-1.6868242.6329209-2.109 1.43-.2512896.4918095-.8536904.6867895-1.3455.4354999-.4918095-.2512895-.6867895-.8536903-.4355-1.3454999.7613891-1.4673539 2.2396034-2.4249632 3.89-2.52 1.6600094.1025197 3.1438715 1.0702393 3.907 2.548.1571633.31016.1419338.6796929-.0402184.9758688-.1821522.2961758-.5050756.4764728-.8527816.4761312z" fill="#f29c1f"/><path id="Path" d="m28 0h-22c-3.3137085 0-6 2.6862915-6 6v16c0 3.3137085 2.6862915 6 6 6 .55228475 0 1 .4477153 1 1v5c.00028823.3935712.23140459.7503734.59045589.9115581.35905129.1611847.77925815.0967733 1.07354411-.1645581l7.052-6.494c.1828973-.1627773.4191576-.2527981.664-.253h11.62c3.3137085 0 6-2.6862915 6-6v-16c0-3.3137085-2.6862915-6-6-6z" fill="#b0d3f0"/><path id="Path" d="m4 8c-.55228475 0-1-.44771525-1-1v-1c0-1.65685425 1.34314575-3 3-3h1c.55228475 0 1 .44771525 1 1s-.44771525 1-1 1h-1c-.55228475 0-1 .44771525-1 1v1c0 .55228475-.44771525 1-1 1z" fill="#ecf0f1"/><path id="Path" d="m28 25h-1c-.5522847 0-1-.4477153-1-1s.4477153-1 1-1h1c.5522847 0 1-.4477153 1-1v-1c0-.5522847.4477153-1 1-1s1 .4477153 1 1v1c0 1.6568542-1.3431458 3-3 3z" fill="#90bae1"/><circle id="Oval" cx="17" cy="14" fill="#f0c419" r="10"/><circle id="Oval" cx="13" cy="13" fill="#35495e" r="2"/><circle id="Oval" cx="21" cy="13" fill="#35495e" r="2"/><path id="Path" d="m17 21c-1.6503966-.0950368-3.1286109-1.0526461-3.89-2.52-.2205381-.4881099-.0173259-1.0633136.4608859-1.3045639.4782118-.2412504 1.0615946-.0628715 1.3231141.4045639.4237871.7926515 1.2122806 1.3243043 2.106 1.42.905967-.1043095 1.7018003-.6497136 2.126-1.457.2574603-.4793486.8509289-.6648775 1.3355696-.417523s.6825704.8368032.4454304 1.326523c-.7631285 1.4777607-2.2469906 2.4454803-3.907 2.548z" fill="#f29c1f"/></g></g></svg>