<svg id="Layer_1" enable-background="new 0 0 509.982 509.982" height="512" viewBox="0 0 509.982 509.982" width="512" xmlns="http://www.w3.org/2000/svg"><g><path d="m383.962 134.982-15 10-15-10v-30l15-10 15 10z" fill="#45417e"/><path d="m442.617 28.889c-42.8-38.387-104.217-38.65-147.311 0-14.961 13.419-25.318 29.879-29.401 46.093l100.307 10 105.807-10c-4.084-16.214-14.441-32.674-29.402-46.093z" fill="#ff4d05"/><path d="m472.018 74.982h-206.113c-1.273 5.057-1.943 10.091-1.943 15v15h210v-15c0-4.909-.67-9.944-1.944-15z" fill="#ff1f3d"/><path d="m124.751 134.982-23.039-92.154-65.692-13.138 5.884-29.417 84.308 16.861 29.46 117.842-14.394 5.567z" fill="#c1da4a"/><path d="m80.418 320.152-5.826 40.42c2.29 17.851 5.24 36.38 8.74 54.65 3.06 15.96 8.55 30.54 15.95 43.22l12.555 6.415 5.896 17.575c17.54 17.39 39.899 27.55 64.04 27.55h45.979l22.96-11.5 13.25-24.71 10-155.04-10-147.54-13.333-23.377-22.877-12.833h-122.58l-22.28 20.14c-3.52 21.43-12.96 82.32-13.859 123.721z" fill="#ffec29"/><path d="m447.545 319.629 5.787 40.942c-2.29 17.851-5.239 36.38-8.739 54.65-3.061 15.96-8.551 30.54-15.951 43.22l-13.263 8.707-5.186 15.283c-17.54 17.39-39.9 27.55-64.04 27.55h-45.979l-21.961-10.625-14.25-25.585v-302.58l10-23.585 26.211-12.625h122.579l22.28 20.14c3.52 21.43 12.96 82.32 13.859 123.721z" fill="#ffcb00"/><path d="m195.172 404.982 68.79-68.79 10-18.711-10-23.709-61.29-61.29 61.29-61.29 10-20.461-10-15.749h-36.21l15 15-61.29 61.29-76.29-76.29h-18.83c-1.9 10.972-2.222 12.668-3.45 20.14l77.36 77.36-68.79 68.79-22.43-22.43c-.591 24.825 2.33 56.688 5.56 81.729l16.87-16.88 61.29 61.29-53.47 53.46c5.25 9.02 11.47 17.08 18.45 23.99l56.23-56.24 68.79 68.79-15 15h36.21l10-16.5-10-19.71zm-82.5-82.5 68.79-68.79 61.29 61.29-68.79 68.79z" fill="#ffcb00"/><path d="m458.891 278.842-22.43 22.43-68.79-68.79 77.36-77.36c-1.203-7.316-1.358-8.066-3.45-20.14h-18.83l-76.29 76.29-61.29-61.29 15-15h-36.21v36.21l61.29 61.29-61.29 61.29v42.42l68.79 68.79-68.79 68.79v36.21h36.21l-15-15 68.79-68.79 56.23 56.24c6.979-6.91 13.199-14.971 18.449-23.99l-53.47-53.46 61.29-61.29 16.87 16.88c3.217-24.934 6.153-56.925 5.561-81.73zm-104.929 104.93-68.79-68.79 61.29-61.29 68.79 68.79z" fill="#ffb454"/></g></svg>