<svg height="512" viewBox="0 0 56 58" width="512" xmlns="http://www.w3.org/2000/svg"><g id="Page-1" fill="none" fill-rule="evenodd"><g id="044---Jar-Glass" fill-rule="nonzero"><path id="Shape" d="m38.35 14.16 7.11.57c3.9473771.3220091 7.3149552 2.9837365 8.54 6.75 1.2181099 3.5722492 1.8923093 7.3073141 2 11.08-.0272179 3.4336271-.2542686 6.8627594-.68 10.27-.4281089 3.4455313-3.1766676 6.1401967-6.63 6.5-2.28.25-5 .52-8.69.62v-5.95c3.34-.1 5.85-.34 8-.58.6851147-.0577604 1.2402278-.5797324 1.34-1.26.4066608-3.1844267.6270358-6.3898817.66-9.6-.1228264-3.1518704-.6952753-6.2700332-1.7-9.26-.482895-1.4457073-1.7809531-2.4644862-3.3-2.59l-5-.42z" fill="#3b97d3"/><path id="Shape" d="m37 2v4h-34v-4c0-1.1045695.8954305-2 2-2h30c1.1045695 0 2 .8954305 2 2z" fill="#35495e"/><path id="Shape" d="m36 8.67v-2.67h-32v2.67c-.0004911.87000862-.22798456 1.7248325-.66 2.48l-1.34 2.39c-1.3064005 2.2694637-1.99592433 4.8413876-2 7.46v29c0 4.418278 3.581722 8 8 8h24c4.418278 0 8-3.581722 8-8v-29c-.0075611-2.611828-.6969668-5.1764172-2-7.44l-1.36-2.39c-.4284146-.7629753-.6490984-1.62502133-.64-2.5z" fill="#67b9cc"/><g fill="#2c3e50"><path id="Shape" d="m21 0v2c0 .55228475-.4477153 1-1 1s-1-.44771525-1-1v-2z"/><path id="Shape" d="m17 0v2c0 .55228475-.4477153 1-1 1s-1-.44771525-1-1v-2z"/><path id="Shape" d="m13 0v2c0 .55228475-.4477153 1-1 1s-1-.44771525-1-1v-2z"/><path id="Shape" d="m9 0v2c0 .55228475-.44771525 1-1 1s-1-.44771525-1-1v-2z"/><path id="Shape" d="m25 0v2c0 .55228475-.4477153 1-1 1s-1-.44771525-1-1v-2z"/><path id="Shape" d="m29 0v2c0 .55228475-.4477153 1-1 1s-1-.44771525-1-1v-2z"/><path id="Shape" d="m33 0v2c0 .55228475-.4477153 1-1 1s-1-.44771525-1-1v-2z"/></g><path id="Shape" d="m4 21c-.55228475 0-1-.4477153-1-1v-1c0-.5522847.44771525-1 1-1s1 .4477153 1 1v1c0 .5522847-.44771525 1-1 1z" fill="#9fc9d3"/><path id="Shape" d="m4 48c-.55228475 0-1-.4477153-1-1v-23c0-.5522847.44771525-1 1-1s1 .4477153 1 1v23c0 .5522847-.44771525 1-1 1z" fill="#9fc9d3"/><path id="Shape" d="m32 11h-24c-.55228475 0-1-.4477153-1-1 0-.55228475.44771525-1 1-1h24c.5522847 0 1 .44771525 1 1 0 .5522847-.4477153 1-1 1z" fill="#2fa8cc"/><path id="Shape" d="m40 46v4c0 4.418278-3.581722 8-8 8h-24c-4.418278 0-8-3.581722-8-8v-4c0 4.418278 3.581722 8 8 8h24c4.418278 0 8-3.581722 8-8z" fill="#2fa8cc"/><path id="Shape" d="m39 7h-38c-.55228475 0-1-.44771525-1-1s.44771525-1 1-1h38c.5522847 0 1 .44771525 1 1s-.4477153 1-1 1z" fill="#3f5c6c"/></g></g></svg>