<svg id="Capa_1" enable-background="new 0 0 512 512" height="512" viewBox="0 0 512 512" width="512" xmlns="http://www.w3.org/2000/svg"><g><circle cx="255.997" cy="255.997" fill="#fd9468" r="255.997"/><path d="m512 255.997c0 141.381-114.622 256.003-256.003 256.003-42.346 0-82.285-10.278-117.471-28.488 30.597 12.922 64.24 20.072 99.549 20.072 141.381 0 255.992-114.621 255.992-256.002 0-99.076-56.277-185.003-138.614-227.555 91.978 38.827 156.547 129.857 156.547 235.97z" fill="#fe7d43"/><circle cx="255.997" cy="255.997" fill="#f9f3f1" r="212.835"/><path d="m468.83 255.997c0 117.543-95.29 212.833-212.833 212.833-32.264 0-62.851-7.181-90.259-20.031 21.225 7.109 43.951 10.957 67.573 10.957 117.553 0 212.843-95.29 212.843-212.833 0-85.279-50.155-158.84-122.585-192.802 84.417 28.242 145.261 107.955 145.261 201.876z" fill="#efe2dd"/><path d="m226.382 144.985c-15.039-23.199-35.383-41.206-63.445-23.299-15.673 10.002-27.089 25.962-33.236 43.509-13.068 37.303-6.857 77.233 10.736 111.934 21.676 42.754 59.049 81.69 101.112 104.661 46.325 25.298 92.168 20.165 131.372-15.177 16.568-14.936 24.524-40.862 4.519-56.948-16.476-13.248-41.545-33.756-63.268-19.57-14.952 9.765-19.618 26.154-39.359 27.515-33.757 2.327-69.626-50.132-74.033-79.392-1.366-9.075 1.105-16.973 6.538-24.209 5.695-7.585 12.534-9.481 19.286-14.745 16.056-12.519 11.979-35.457-.222-54.279z" fill="#fd9468"/><path d="m372.923 366.617c-39.208 35.34-85.053 40.474-131.371 15.175-42.069-22.974-79.436-61.904-101.113-104.662-13.118-25.865-19.908-54.631-17.099-83.057 1.883 19.753 7.953 39.208 17.099 57.233 21.677 42.758 59.044 81.689 101.113 104.662 46.318 25.299 92.162 20.165 131.371-15.175 6.019-5.432 10.895-12.305 13.714-19.63 6.997 15.206-.699 33.715-13.714 45.454z" fill="#fe7d43"/></g></svg>