<svg id="Capa_1" enable-background="new 0 0 512 512" height="512" viewBox="0 0 512 512" width="512" xmlns="http://www.w3.org/2000/svg"><g><g><g><path d="m277.643 389.58-138.822 10-138.821-10v-304.58l138.821-10 138.822 10z" fill="#2681ff"/><path d="m277.643 389.58-138.822 10v-324.58l138.822 10z" fill="#0051be"/><path d="m138.821 85h-138.821v-75h138.821l64.846 37.5z" fill="#dbd1cc"/><path d="m138.821 10h138.821v75h-138.821z" fill="#b3a9a9"/><path d="m138.821 478.058h-138.821v-88.478h138.821l10 44.239z" fill="#dbd1cc"/><path d="m138.821 389.58h138.821v88.478h-138.821z" fill="#b3a9a9"/></g><g><g><g><g><path d="m138.821 190h-58.488v-30h58.488l22.512 15z" fill="#0051be"/></g></g></g><g><g><g><path d="m167.667 237.29-28.846 12.71h-78.821v-30h78.821z" fill="#0051be"/></g></g></g><path d="m138.821 160h64.845v30h-64.845z" fill="#00347b"/></g><path d="m138.821 220h85.179v30h-85.179z" fill="#00347b"/></g><g><g><path d="m490.145 320.903h-107.462v-65.12c0-20.758-16.828-37.585-37.585-37.585h-17.443l-6.74 83.537c-1.915 23.729-21.731 42.011-45.537 42.011h-13.098l-10 67.706 10 67.706h44.399c0 .324-.001.646-.001.967-.014 12.078 9.774 21.875 21.853 21.875h170.154l13.237-157.413c1.071-12.747-8.985-23.684-21.777-23.684z" fill="#ffcdbe"/><path d="m252.28 411.451 10 67.706h44.399c0 .324-.001.646-.001.967-.014 12.079 9.774 21.876 21.853 21.876h170.154l7.614-90.549z" fill="#faa68e"/><path d="m165.906 330.168h96.374v162.566h-96.374z" fill="#69b1e9"/><path d="m165.906 411.451h96.374v81.283h-96.374z" fill="#2681ff"/></g></g></g></svg>