<svg id="Capa_1" enable-background="new 0 0 512 512" height="512" viewBox="0 0 512 512" width="512" xmlns="http://www.w3.org/2000/svg"><g><circle cx="256" cy="256" fill="#ffe278" r="256"/><path d="m256 0c-3.972 0-7.919.104-11.847.283 135.884 6.191 244.153 118.304 244.153 255.717s-108.269 249.526-244.153 255.717c3.928.179 7.875.283 11.847.283 141.385 0 256-114.615 256-256s-114.615-256-256-256z" fill="#ffcc4a"/><g fill="#ffb54c"><path d="m256 0c-2.585 0-5.159.05-7.726.126v34.007c0 4.267 3.459 7.726 7.726 7.726s7.726-3.459 7.726-7.726v-34.007c-2.567-.076-5.14-.126-7.726-.126z"/><path d="m69.609 80.536 24.044 24.044c1.508 1.509 3.486 2.263 5.463 2.263s3.955-.755 5.463-2.263c3.018-3.017 3.018-7.91 0-10.926l-24.043-24.045c-3.751 3.533-7.394 7.176-10.927 10.927z"/><path d="m.126 263.726h34.007c4.267 0 7.726-3.459 7.726-7.726s-3.459-7.726-7.726-7.726h-34.007c-.076 2.567-.126 5.141-.126 7.726 0 2.586.05 5.159.126 7.726z"/><path d="m93.654 407.42-24.044 24.044c3.532 3.751 7.176 7.394 10.927 10.927l24.044-24.044c3.018-3.017 3.018-7.909 0-10.926-3.018-3.018-7.91-3.018-10.927-.001z"/><path d="m256 470.14c-4.267 0-7.726 3.459-7.726 7.726v34.007c2.567.077 5.141.127 7.726.127 2.586 0 5.159-.05 7.726-.126v-34.007c0-4.267-3.459-7.727-7.726-7.727z"/><path d="m442.391 431.464-24.044-24.044c-3.017-3.017-7.909-3.017-10.926 0-3.018 3.017-3.018 7.909 0 10.926l24.044 24.044c3.75-3.532 7.393-7.175 10.926-10.926z"/><path d="m511.874 248.274h-34.007c-4.267 0-7.726 3.459-7.726 7.726s3.459 7.726 7.726 7.726h34.007c.076-2.567.126-5.14.126-7.726 0-2.585-.05-5.159-.126-7.726z"/><path d="m431.464 69.609-24.044 24.045c-3.018 3.017-3.018 7.909 0 10.926 1.508 1.509 3.486 2.263 5.463 2.263s3.955-.755 5.463-2.263l24.044-24.044c-3.532-3.751-7.175-7.394-10.926-10.927z"/></g><circle cx="256" cy="256" fill="#ffcc4a" r="221.867"/><circle cx="256" cy="256" fill="#ffb54c" r="187.733"/><path d="m256 34.133c-3.975 0-7.924.11-11.847.316 117.025 6.158 210.019 102.992 210.019 221.551s-92.995 215.393-210.02 221.551c3.923.206 7.872.316 11.847.316 122.534 0 221.867-99.333 221.867-221.867s-99.332-221.867-221.866-221.867z" fill="#ffb54c"/><path d="m256 68.267c-3.98 0-7.928.139-11.847.383 98.161 6.114 175.886 87.648 175.886 187.35s-77.725 181.236-175.886 187.351c3.919.244 7.867.383 11.847.383 103.682 0 187.733-84.051 187.733-187.733s-84.051-187.734-187.733-187.734z" fill="#ff9959"/><path d="m336.715 358.401-114.555-1.014c21.385-29.302 26.348-47.145 22.748-80.138h35.432c9.426 0 17.067-7.641 17.067-17.067s-7.641-17.067-17.067-17.067h-43.613c-7.301-10.782-20.508-34.323-20.425-53.733 0-.023-.003-.045-.003-.068s.003-.044.003-.067c-.046-12.671 5.471-21.957 16.865-28.391 16.968-9.582 43.364-9.721 58.838-.312 12.266 7.458 21.199 17.584 23.895 27.087 2.573 9.068 12.012 14.335 21.077 11.76 9.068-2.573 14.333-12.009 11.76-21.077-5.061-17.835-19.275-34.943-38.999-46.935-26.17-15.911-65.431-16.015-93.354-.245-22.102 12.48-34.246 33.097-34.212 58.064 0 .012-.002.024-.002.037 0 .02.001.039.001.059 0 .025-.001.05-.001.076 0 .017.003.034.003.052-.035 19.456 7.55 39.072 15.046 53.693h-21.78c-9.426 0-17.067 7.641-17.067 17.067s7.641 17.067 17.067 17.067h35.115l.374 3.222c2.701 24.15 1.288 33.148-17.975 59.015l-19.117 24.036c-4.061 5.106-4.856 12.081-2.047 17.97 2.808 5.888 8.729 9.661 15.253 9.719l149.372 1.322c.052.001.102.001.154.001 9.355 0 16.98-7.542 17.062-16.916.082-9.425-7.49-17.134-16.915-17.217z" fill="#ffe278"/></g></svg>