<?xml version="1.0" encoding="iso-8859-1"?>
<!-- Generator: Adobe Illustrator 19.0.0, SVG Export Plug-In . SVG Version: 6.00 Build 0)  -->
<svg version="1.1" id="Capa_1" xmlns="http://www.w3.org/2000/svg" xmlns:xlink="http://www.w3.org/1999/xlink" x="0px" y="0px"
	 viewBox="0 0 468.293 468.293" style="enable-background:new 0 0 468.293 468.293;" xml:space="preserve">
<g>
	<polygon style="fill:#DC8744;" points="170.616,231.405 246.204,263.122 178.543,468.293 156.607,414.641 102.955,436.576 	"/>
	<polygon style="fill:#DC8744;" points="297.676,231.405 222.088,263.122 289.75,468.293 311.686,414.641 365.338,436.576 	"/>
</g>
<polygon style="fill:#F7BE56;" points="352.328,113.908 349.301,47.699 283.091,44.671 234.146,0 185.202,44.671 118.993,47.698 
	115.965,113.908 71.294,162.852 115.965,211.796 118.992,278.006 185.202,281.034 234.146,325.705 283.09,281.034 349.3,278.007 
	352.328,211.796 396.999,162.852 "/>
<ellipse style="fill:#FCD462;" cx="234.147" cy="162.849" rx="87.415" ry="87.415"/>
<polygon style="fill:#F7BE56;" points="234.146,102.165 252.918,140.2 294.892,146.299 264.519,175.906 271.689,217.71 
	234.146,197.973 196.603,217.71 203.773,175.906 173.401,146.299 215.375,140.2 "/>
<g>
</g>
<g>
</g>
<g>
</g>
<g>
</g>
<g>
</g>
<g>
</g>
<g>
</g>
<g>
</g>
<g>
</g>
<g>
</g>
<g>
</g>
<g>
</g>
<g>
</g>
<g>
</g>
<g>
</g>
</svg>
