<svg height="512" viewBox="0 0 48 48" width="512" xmlns="http://www.w3.org/2000/svg"><g id="stapler_remover" data-name="stapler remover"><path d="m41.28 13.54-36.98 13.46a2 2 0 0 1 -2.43-.9 20.26 20.26 0 0 1 -.82-2.18l40.68-14.8.71 1.93a2 2 0 0 1 -1.16 2.49z" fill="#374f68"/><path d="m39.28 12.54c-39.54 14.39-37.12 13.54-37.41 13.56a20.26 20.26 0 0 1 -.82-2.18c43.6-15.87 39.17-14.46 39.39-13.87a2 2 0 0 1 -1.16 2.49z" fill="#425b72"/><path d="m44 21.08-5.13-2.39-22.87 8.31h-11.7l36.92-13.44z" fill="#edebf2"/><path d="m42.96 20.08-5.13-2.39-22.83 8.31h-7.95l33.61-12.24z" fill="#dad7e5"/><path d="m47 37v2h-44v-2a2 2 0 0 1 2-2h40a2 2 0 0 1 2 2z" fill="#374f68"/><path d="m47 37h-40a2 2 0 0 1 -2-2c0-.1-1.23 0 40 0a2 2 0 0 1 2 2z" fill="#425b72"/><path d="m45 27v8h-40a2 2 0 0 1 -2-2v-4a2 2 0 0 1 2-2h11l1.5 4h23.5z" fill="#dad7e5"/><path d="m45 27v6h-38a2 2 0 0 1 -2-2v-4h11l1.5 4h23.5z" fill="#edebf2"/><path d="m7 32a1 1 0 1 1 1-1 1 1 0 0 1 -1 1z" fill="#c6c3d8"/></g></svg>