<?xml version="1.0" encoding="iso-8859-1"?>
<!-- Generator: Adobe Illustrator 19.0.0, SVG Export Plug-In . SVG Version: 6.00 Build 0)  -->
<svg version="1.1" id="Capa_1" xmlns="http://www.w3.org/2000/svg" xmlns:xlink="http://www.w3.org/1999/xlink" x="0px" y="0px"
	 viewBox="0 0 512 512" style="enable-background:new 0 0 512 512;" xml:space="preserve">
<path style="fill:#FF7816;" d="M452,75v45l-40.8,31H42.599L0,120V75c0-24.901,20.099-45,45-45h362C431.901,30,452,50.099,452,75z"/>
<path style="fill:#FF4B00;" d="M452,75v45l-40.8,31H226V30h181C431.901,30,452,50.099,452,75z"/>
<path style="fill:#E7E7E7;" d="M0,120v332h328.4L452,328.4V120H0z"/>
<polygon style="fill:#D3D3D8;" points="452,120 452,328.4 328.4,452 226,452 226,120 "/>
<path style="fill:#FF7816;" d="M407,302c-57.9,0-105,47.1-105,105s47.1,105,105,105s105-47.1,105-105S464.9,302,407,302z"/>
<g>
	<path style="fill:#D3D3D8;" d="M150,272H60v-90h90V272z"/>
	<path style="fill:#D3D3D8;" d="M150,392H60v-90h90V392z"/>
	<path style="fill:#D3D3D8;" d="M181,182v90h90v-90H181z"/>
	<path style="fill:#D3D3D8;" d="M181,302v90h90v-90H181z"/>
</g>
<path style="fill:#BABAC0;" d="M392,272h-90v-90h90V272z"/>
<g>
	<rect x="60" style="fill:#68544F;" width="30" height="90"/>
	<rect x="120" style="fill:#68544F;" width="30" height="90"/>
	<rect x="181" style="fill:#68544F;" width="30" height="90"/>
</g>
<g>
	<rect x="241" style="fill:#53433F;" width="30" height="90"/>
	<rect x="302" style="fill:#53433F;" width="30" height="90"/>
	<rect x="362" style="fill:#53433F;" width="30" height="90"/>
</g>
<g>
	<rect x="226" y="182" style="fill:#BABAC0;" width="45" height="90"/>
	<rect x="226" y="302" style="fill:#BABAC0;" width="45" height="90"/>
</g>
<path style="fill:#FF4B00;" d="M512,407c0,57.9-47.1,105-105,105V302C464.9,302,512,349.1,512,407z"/>
<path style="fill:#E7E7E7;" d="M482,407c0,41.4-33.6,75-75,75s-75-33.6-75-75s33.6-75,75-75S482,365.6,482,407z"/>
<path style="fill:#D3D3D8;" d="M482,407c0,41.4-33.6,75-75,75V332C448.4,332,482,365.6,482,407z"/>
<polygon style="fill:#68544F;" points="452,392 452,422 392,422 392,362 422,362 422,392 "/>
<polygon style="fill:#53433F;" points="452,392 452,422 407,422 407,362 422,362 422,392 "/>
<g>
</g>
<g>
</g>
<g>
</g>
<g>
</g>
<g>
</g>
<g>
</g>
<g>
</g>
<g>
</g>
<g>
</g>
<g>
</g>
<g>
</g>
<g>
</g>
<g>
</g>
<g>
</g>
<g>
</g>
</svg>
