<svg id="Capa_1" enable-background="new 0 0 497 497" height="512" viewBox="0 0 497 497" width="512" xmlns="http://www.w3.org/2000/svg"><g><path d="m270.429 93.734-21.93 5.099-21.93-5.099v-86.852c0-3.801 3.081-6.882 6.882-6.882h30.097c3.801 0 6.882 3.081 6.882 6.882v86.852z" fill="#e5646e"/><path d="m270.429 6.88v86.85l-12.263 5.103-9.667-5.103v-86.85c0-3.8-3.08-6.88-6.88-6.88h21.93c3.8 0 6.88 3.08 6.88 6.88z" fill="#db4655"/><path d="m320.407 187.984v284.884c0 13.328-10.805 24.133-24.133 24.133h-95.551c-13.328 0-24.133-10.805-24.133-24.133v-284.884c0-19.225 11.222-36.681 28.713-44.662 12.954-5.911 21.266-18.839 21.266-33.078v-16.51h43.86v16.509c0 14.239 8.312 27.167 21.266 33.078 17.49 7.982 28.712 25.438 28.712 44.663z" fill="#d8ecfe"/><path d="m320.409 187.98v284.89c0 13.33-10.81 24.13-24.13 24.13h-21.93c13.32 0 24.13-10.8 24.13-24.13v-284.89c0-9.61-2.8-18.78-7.8-26.54-4.99-7.77-12.16-14.13-20.91-18.12-12.96-5.91-21.27-18.84-21.27-33.08v-16.51h21.93v16.51c0 14.24 8.31 27.17 21.27 33.08 8.74 3.99 15.92 10.35 20.91 18.12 4.99 7.76 7.8 16.93 7.8 26.54z" fill="#b3dafe"/><path d="m281.119 221.139h-65.239c-3.611 0-6.538-2.927-6.538-6.538v-12.025c0-3.611 2.927-6.538 6.538-6.538h65.239c3.611 0 6.538 2.927 6.538 6.538v12.025c0 3.611-2.927 6.538-6.538 6.538z" fill="#e5646e"/><path d="m287.659 202.58v12.02c0 3.61-2.93 6.54-6.54 6.54h-19.58c3.61 0 6.54-2.93 6.54-6.54v-12.02c0-3.61-2.93-6.54-6.54-6.54h19.58c3.61 0 6.54 2.93 6.54 6.54z" fill="#db4655"/><path d="m281.119 244.915h-65.239c-3.611 0-6.538 2.927-6.538 6.538v38.775c0 3.611 2.927 6.538 6.538 6.538h65.239c3.611 0 6.538-2.927 6.538-6.538v-38.775c0-3.611-2.927-6.538-6.538-6.538z" fill="#ffd15b"/><path d="m287.659 251.46v38.77c0 3.61-2.93 6.54-6.54 6.54h-21.66c3.61 0 6.53-2.93 6.53-6.54v-38.77c0-3.61-2.92-6.54-6.53-6.54h21.66c3.61 0 6.54 2.93 6.54 6.54z" fill="#ffc344"/><g><path d="m269.584 334.567h-42.17c-4.143 0-7.5-3.357-7.5-7.5s3.357-7.5 7.5-7.5h42.17c4.143 0 7.5 3.357 7.5 7.5s-3.357 7.5-7.5 7.5z" fill="#ffc344"/></g><g fill="#b3dafe"><circle cx="280.371" cy="447.167" r="7.5"/><circle cx="258.796" cy="415.333" r="7.5"/></g></g></svg>