<?xml version="1.0" encoding="iso-8859-1"?>
<!-- Generator: Adobe Illustrator 19.0.0, SVG Export Plug-In . SVG Version: 6.00 Build 0)  -->
<svg xmlns="http://www.w3.org/2000/svg" xmlns:xlink="http://www.w3.org/1999/xlink" version="1.1" id="Capa_1" x="0px" y="0px" viewBox="0 0 409.647 409.647" style="enable-background:new 0 0 409.647 409.647;" xml:space="preserve">
<path style="fill:#E1E6E9;" d="M315.594,360.526c8.704-4.608,18.944-1.024,24.576,7.168c6.656,10.24,2.048,24.576-8.192,24.064  c-15.872-0.512-22.016,9.728-28.672,14.848c-7.68,6.656-19.968,1.536-24.576-7.168c-4.608-8.704-1.024-19.456,8.192-24.064  l-62.464-118.272l28.672-14.848L315.594,360.526z"/>
<path style="fill:#EBF0F3;" d="M238.794,249.422l-14.336,7.68l62.464,118.272c-8.704,4.608-12.288,15.36-8.192,24.064  c4.608,8.704,16.384,13.312,24.576,7.168c4.096-3.072,6.144-7.68,12.288-10.752L238.794,249.422z"/>
<path style="fill:#FCD462;" d="M203.978,283.726L103.626,187.47c-46.592-60.928-49.152-148.48,7.68-178.688l0,0  c56.832-30.208,128,21.504,152.064,94.208l23.552,137.216"/>
<path style="fill:#F6C358;" d="M111.306,8.782l-4.608,2.56c-56.832,30.208-49.664,115.2-3.072,176.128l100.352,96.768l36.864-19.456  L111.306,8.782"/>
<g>
</g>
<g>
</g>
<g>
</g>
<g>
</g>
<g>
</g>
<g>
</g>
<g>
</g>
<g>
</g>
<g>
</g>
<g>
</g>
<g>
</g>
<g>
</g>
<g>
</g>
<g>
</g>
<g>
</g>
</svg>
