<?xml version="1.0" encoding="iso-8859-1"?>
<!-- Generator: Adobe Illustrator 19.0.0, SVG Export Plug-In . SVG Version: 6.00 Build 0)  -->
<svg version="1.1" id="Capa_1" xmlns="http://www.w3.org/2000/svg" xmlns:xlink="http://www.w3.org/1999/xlink" x="0px" y="0px"
	 viewBox="0 0 512 512" style="enable-background:new 0 0 512 512;" xml:space="preserve">
<path style="fill:#79D60D;" d="M256,353.365c-23.798,20.961-55.029,33.683-89.235,33.683c-74.6,0-135.075-60.475-135.075-135.075
	c0-58.652,37.387-108.565,89.625-127.228C126.592,54.971,184.876,0,256,0s129.408,54.971,134.685,124.744
	c52.239,18.663,89.625,68.576,89.625,127.228c0,74.6-60.475,135.075-135.075,135.075C311.029,387.048,279.798,374.326,256,353.365z"
	/>
<path style="fill:#33BC00;" d="M256,353.365c0-70.391,0-304.593,0-353.365c71.124,0,129.408,54.971,134.685,124.744
	c52.239,18.663,89.625,68.576,89.625,127.228c0,74.6-60.475,135.075-135.075,135.075C311.029,387.048,279.798,374.326,256,353.365z"
	/>
<polygon style="fill:#984D00;" points="338.279,206.8 324.317,180.248 271,208.282 271,149.229 241,149.229 241,274.775 
	187.683,246.741 173.721,273.293 241,308.669 241,512 271,512 271,242.176 "/>
<polygon style="fill:#723802;" points="338.279,206.8 324.317,180.248 271,208.282 271,149.229 256,149.229 256,512 271,512 
	271,242.176 "/>
<g>
</g>
<g>
</g>
<g>
</g>
<g>
</g>
<g>
</g>
<g>
</g>
<g>
</g>
<g>
</g>
<g>
</g>
<g>
</g>
<g>
</g>
<g>
</g>
<g>
</g>
<g>
</g>
<g>
</g>
</svg>
