<?xml version="1.0" encoding="iso-8859-1"?>
<!-- Generator: Adobe Illustrator 19.0.0, SVG Export Plug-In . SVG Version: 6.00 Build 0)  -->
<svg version="1.1" id="Capa_1" xmlns="http://www.w3.org/2000/svg" xmlns:xlink="http://www.w3.org/1999/xlink" x="0px" y="0px"
	 viewBox="0 0 512 512" style="enable-background:new 0 0 512 512;" xml:space="preserve">
<polygon style="fill:#404A54;" points="512,102.103 336.735,102.103 315.473,59.579 256,59.579 235.984,277.264 256,452.421 
	512,452.421 "/>
<polygon style="fill:#788B9E;" points="196.527,59.579 175.265,102.103 0,102.103 0,452.421 256,452.421 256,59.579 "/>
<rect x="47.839" y="150.89" style="fill:#BDC4CB;" width="67.26" height="30"/>
<rect x="396.9" y="150.89" style="fill:#788B9E;" width="67.26" height="30"/>
<path style="fill:#BDC4CB;" d="M256,165.837L256,165.837l-20.016,111.425L256,388.686l0,0c61.44,0,111.424-49.985,111.424-111.424
	C367.425,215.822,317.44,165.837,256,165.837z"/>
<path style="fill:#DCE4EC;" d="M144.575,277.262c0,61.44,49.985,111.424,111.425,111.424v-222.85
	C194.561,165.837,144.575,215.822,144.575,277.262z"/>
<path style="fill:#788B9E;" d="M256,217.167l-20.016,60.094L256,337.355c33.136,0,60.095-26.957,60.095-60.093
	S289.136,217.167,256,217.167z"/>
<path style="fill:#BDC4CB;" d="M195.905,277.262c0,33.136,26.958,60.093,60.095,60.093V217.167
	C222.864,217.167,195.905,244.126,195.905,277.262z"/>
<g>
</g>
<g>
</g>
<g>
</g>
<g>
</g>
<g>
</g>
<g>
</g>
<g>
</g>
<g>
</g>
<g>
</g>
<g>
</g>
<g>
</g>
<g>
</g>
<g>
</g>
<g>
</g>
<g>
</g>
</svg>
