<svg height="512pt" viewBox="-101 0 512 512" width="512pt" xmlns="http://www.w3.org/2000/svg"><path d="m229.863281 0-53.554687 196.476562 57.5 16.234376 53.554687-196.476563zm0 0" fill="#8a6746"/><path d="m309.121094 340.71875c0 43.6875-18.375 85.0625-50.601563 114.363281l-10.824219 56.917969h-186.273437l-10.824219-56.917969c-32.222656-29.300781-50.597656-70.675781-50.597656-114.363281l.0195312-.773438 10.7343748-208.8125h287.613282zm0 0" fill="#ffdba9"/><path d="m309.121094 340.71875c0 43.6875-18.375 85.0625-50.601563 114.363281l-10.824219 56.917969h-93.105468v-380.867188h143.777344zm0 0" fill="#ffbdad"/><path d="m309.121094 340.71875c0 43.609375-18.304688 84.914062-50.4375 114.203125h-208.246094c-32.132812-29.289063-50.4375-70.59375-50.4375-114.203125l.0195312-.773438 6.9101568-134.363281h295.261718zm0 0" fill="#ff7a53"/><g fill="#ffdba9"><path d="m34.109375 324.738281h30.710937v30.707031h-30.710937zm0 0"/><path d="m76.265625 382.957031h30.707031v30.710938h-30.707031zm0 0"/><path d="m96.957031 324.738281h30.710938v30.707031h-30.710938zm0 0"/></g><path d="m309.121094 340.71875c0 43.609375-18.304688 84.914062-50.4375 114.203125h-104.09375v-249.339844h147.601562zm0 0" fill="#ff3b62"/></svg>