<svg height="512pt" viewBox="0 -60 512 512" width="512pt" xmlns="http://www.w3.org/2000/svg"><path d="m415.269531 66.007812h-194.621093l22.300781-52.921874c3.339843-7.929688 11.109375-13.085938 19.714843-13.085938h110.59375c8.605469 0 16.371094 5.15625 19.714844 13.085938zm0 0" fill="#345863"/><path d="m481.53125 392.808594h-421.753906v-337.453125h421.753906c16.828125 0 30.46875 13.640625 30.46875 30.46875v276.515625c0 16.828125-13.640625 30.46875-30.46875 30.46875zm0 0" fill="#d6d6d6"/><path d="m481.53125 55.355469h-22.617188v337.453125h22.617188c16.828125 0 30.46875-13.640625 30.46875-30.46875v-276.519532c0-16.824218-13.640625-30.464843-30.46875-30.464843zm0 0" fill="#c4bbbc"/><path d="m59.777344 113.476562h452.222656v221.207032h-452.222656zm0 0" fill="#345863"/><path d="m458.914062 113.476562h53.085938v221.207032h-53.085938zm0 0" fill="#1e4751"/><path d="m86.996094 392.808594h-52.269532c-19.179687 0-34.726562-15.546875-34.726562-34.730469v-290.347656c0-19.175781 15.546875-34.726563 34.726562-34.726563h52.269532c19.179687 0 34.726562 15.546875 34.726562 34.726563v290.347656c0 19.183594-15.546875 34.730469-34.726562 34.730469zm0 0" fill="#d6d6d6"/><path d="m86.996094 33.003906h-52.269532c-.136718 0-.273437 0-.410156.003906 18.992188.21875 34.320313 15.683594 34.320313 34.722657v290.347656c0 19.042969-15.328125 34.507813-34.320313 34.726563.136719.003906.273438.003906.410156.003906h52.269532c19.179687 0 34.726562-15.546875 34.726562-34.730469v-290.347656c0-19.175781-15.546875-34.726563-34.726562-34.726563zm0 0" fill="#c4bbbc"/><path d="m447.253906 224.082031c0 71.40625-57.886718 129.289063-129.292968 129.289063s-129.292969-57.882813-129.292969-129.289063 57.886719-129.292969 129.292969-129.292969 129.292968 57.886719 129.292968 129.292969zm0 0" fill="#c4bbbc"/><path d="m413.375 224.082031c0 52.695313-42.71875 95.414063-95.414062 95.414063-52.699219 0-95.417969-42.71875-95.417969-95.414063 0-52.699219 42.71875-95.417969 95.417969-95.417969 52.695312 0 95.414062 42.71875 95.414062 95.417969zm0 0" fill="#75cff2"/><path d="m317.960938 128.664062c-9.242188 0-18.179688 1.316407-26.628907 3.765626 39.738281 11.527343 68.785157 48.199218 68.785157 91.652343s-29.046876 80.125-68.785157 91.648438c8.449219 2.453125 17.386719 3.765625 26.628907 3.765625 52.695312 0 95.414062-42.71875 95.414062-95.414063 0-52.695312-42.71875-95.417969-95.414062-95.417969zm0 0" fill="#53b4e4"/></svg>