<svg id="Capa_1" enable-background="new 0 0 497 497" height="512" viewBox="0 0 497 497" width="512" xmlns="http://www.w3.org/2000/svg"><path d="m488.213 69.787h-30v357.426h30c5.429-5.429 8.787-12.929 8.787-21.213v-315c0-8.284-3.358-15.784-8.787-21.213z" fill="#4fdbff"/><path d="m467 91c0-8.284-3.358-15.784-8.787-21.213h-449.426c-5.429 5.429-8.787 12.929-8.787 21.213v315c0 8.284 3.358 15.784 8.787 21.213h449.426c5.429-5.429 8.787-12.929 8.787-21.213z" fill="#8ae7ff"/><path d="m467 406-30 30h30c8.284 0 15.784-3.358 21.213-8.787z" fill="#14cfff"/><path d="m467 406-218.5-218.5-239.713 239.713c5.429 5.429 12.929 8.787 21.213 8.787h407c16.569 0 30-13.431 30-30z" fill="#4fdbff"/><path d="m467 61h-30l30 30 21.213-21.213c-5.429-5.429-12.929-8.787-21.213-8.787z" fill="#8ae7ff"/><path d="m437 61h-407c-8.284 0-15.784 3.358-21.213 8.787l197.287 197.287c23.431 23.431 61.421 23.432 84.853 0l176.073-176.074c0-16.569-13.431-30-30-30z" fill="#c4f3ff"/></svg>