<svg height="512pt" viewBox="-145 0 512 512" width="512pt" xmlns="http://www.w3.org/2000/svg"><path d="m187.179688 0c-19.164063 0-34.703126 15.535156-34.703126 34.699219 0 7.585937 2.441407 14.597656 6.570313 20.308593l-35.023437 72.945313 27.042968 12.984375 34.371094-71.582031c.578125.03125 1.15625.042969 1.742188.042969 19.164062 0 34.699218-15.535157 34.699218-34.699219 0-19.164063-15.535156-34.699219-34.699218-34.699219zm0 0" fill="#ff3b62"/><path d="m161.53125 434.71875-7.582031 10.179688c23.421875 5.390624 40.941406 26.390624 40.941406 51.421874v15.679688h-167.839844v-15.679688c0-25.03125 17.519531-46.03125 40.9375-51.421874l-7.578125-10.179688c-39.519531-53.128906-60.410156-114.128906-60.410156-176.417969v-147.609375h221.941406v147.609375c0 62.289063-20.890625 123.289063-60.410156 176.417969zm0 0" fill="#dcfffd"/><path d="m161.53125 434.71875-7.582031 10.179688c23.421875 5.390624 40.941406 26.390624 40.941406 51.421874v15.679688h-83.921875v-401.308594h110.972656v147.609375c0 62.289063-20.890625 123.289063-60.410156 176.417969zm0 0" fill="#8afffc"/><path d="m221.941406 203.230469v55.070312c0 62.289063-20.890625 123.289063-60.410156 176.417969l-7.511719 10.089844h-86.097656l-7.511719-10.089844c-39.519531-53.128906-60.410156-114.128906-60.410156-176.417969v-55.070312zm0 0" fill="#60dd4e"/><path d="m61.804688 354.0625h30.664062v30.667969h-30.664062zm0 0" fill="#ffe470"/><path d="m39.46875 298.046875h30.667969v30.667969h-30.667969zm0 0" fill="#ffe470"/><path d="m221.941406 203.230469v55.070312c0 62.289063-20.890625 123.289063-60.410156 176.417969l-7.511719 10.089844h-43.050781v-241.578125zm0 0" fill="#00ad00"/></svg>