<svg height="512pt" viewBox="0 -36 512 512" width="512pt" xmlns="http://www.w3.org/2000/svg"><path d="m339 440.761719h-166c-24.792969 0-44.960938-20.167969-44.960938-44.960938v-68.1875c0-8.277343 6.710938-14.988281 14.988282-14.988281h225.945312c8.277344 0 14.988282 6.710938 14.988282 14.988281v68.1875c0 24.792969-20.167969 44.960938-44.960938 44.960938zm0 0" fill="#68544f"/><path d="m368.871094 312.625h-112.867188v128.136719h82.921875c24.769531 0 44.921875-20.167969 44.921875-44.960938v-68.1875c-.003906-8.277343-6.707031-14.988281-14.976562-14.988281zm0 0" fill="#53433f"/><path d="m384.035156 342.597656h-256.070312c-70.558594 0-127.96093775-57.402344-127.96093775-127.960937v-57.910157c0-8.277343 6.71093775-3.996093 14.98828175-3.996093h482.019531c8.273437 0 14.984375-4.28125 14.984375 3.996093v57.910157c0 70.558593-57.402344 127.960937-127.960938 127.960937zm0 0" fill="#ff7816"/><path d="m496.792969 152.730469h-240.789063v189.867187h127.917969c70.492187 0 127.84375-57.402344 127.84375-127.960937v-57.910157c0-8.277343-6.703125-3.996093-14.972656-3.996093zm0 0" fill="#ff4b00"/><path d="m156.730469 171.714844c-3.835938 0-7.671875-1.464844-10.597657-4.390625l-141.738281-141.742188c-5.855469-5.851562-5.855469-15.339843 0-21.191406 5.851563-5.855469 15.339844-5.855469 21.191407 0l141.742187 141.738281c5.851563 5.851563 5.851563 15.339844 0 21.195313-2.929687 2.925781-6.761719 4.390625-10.597656 4.390625zm0 0" fill="#a8d3d8"/><path d="m512 156.726562v42.921876h-512v-42.921876c0-8.273437 6.714844-14.988281 14.988281-14.988281h482.023438c8.273437 0 14.988281 6.714844 14.988281 14.988281zm0 0" fill="#ffd400"/><path d="m511.769531 156.726562c0-8.273437-6.707031-14.988281-14.972656-14.988281h-240.792969v57.910157h255.765625zm0 0" fill="#fdbf00"/></svg>