<svg id="Capa_1" enable-background="new 0 0 512 512" height="512" viewBox="0 0 512 512" width="512" xmlns="http://www.w3.org/2000/svg"><g><path d="m170.31 139.474 52.379-35.084-53.205-78.628c-9.739-14.39-29.298-18.16-43.688-8.422l-.105.071c-14.39 9.739-18.16 29.298-8.422 43.688z" fill="#99c94f"/><g><g><path d="m117.273 68.711c-.064 0-.129-.001-.194-.002l-19.212-.48c-4.202-.105-7.523-3.597-7.419-7.8.106-4.202 3.58-7.5 7.8-7.419l19.212.48c4.202.105 7.523 3.597 7.419 7.8-.105 4.136-3.491 7.421-7.606 7.421z" fill="#78a635"/></g></g><g><g><path d="m121.926 103.706c-2.441 0-4.839-1.172-6.31-3.346-2.357-3.482-1.444-8.214 2.037-10.57l13.054-8.835c3.482-2.356 8.215-1.443 10.57 2.037 2.357 3.482 1.444 8.214-2.037 10.57l-13.054 8.835c-1.308.885-2.792 1.309-4.26 1.309z" fill="#78a635"/></g></g><g><g><path d="m140.44 130.569c-2.256 0-4.489-.998-5.99-2.909-2.597-3.305-2.023-8.09 1.282-10.688l12.206-9.591c3.305-2.597 8.091-2.023 10.688 1.282s2.023 8.09-1.282 10.688l-12.206 9.591c-1.394 1.096-3.051 1.627-4.698 1.627z" fill="#78a635"/></g></g><g><g><path d="m169.482 33.376c-.899 0-1.813-.161-2.703-.499-3.93-1.493-5.905-5.889-4.411-9.819l6.896-18.149c1.494-3.93 5.891-5.903 9.819-4.411 3.93 1.493 5.905 5.889 4.411 9.819l-6.896 18.149c-1.155 3.039-4.047 4.91-7.116 4.91z" fill="#78a635"/></g></g><g><g><path d="m187.195 59.534c-2.441 0-4.839-1.172-6.31-3.347-2.357-3.481-1.444-8.213 2.038-10.569l13.154-8.902c3.482-2.356 8.214-1.443 10.569 2.038 2.357 3.481 1.444 8.213-2.038 10.569l-13.154 8.902c-1.308.885-2.791 1.309-4.259 1.309z" fill="#78a635"/></g></g><g><g><path d="m204.857 85.642c-3.087 0-5.991-1.892-7.133-4.954-1.469-3.94.534-8.323 4.473-9.791l19.728-7.354c3.942-1.468 8.323.535 9.791 4.473 1.469 3.94-.534 8.323-4.473 9.791l-19.728 7.354c-.876.327-1.775.481-2.658.481z" fill="#78a635"/></g></g><g><g><path d="m196.372 129.453c-2.441 0-4.839-1.172-6.31-3.346l-70.675-104.43c-2.357-3.481-1.444-8.213 2.037-10.569 3.482-2.356 8.215-1.443 10.57 2.037l70.675 104.43c2.357 3.482 1.444 8.214-2.038 10.57-1.306.884-2.791 1.308-4.259 1.308z" fill="#78a635"/></g></g><path d="m341.69 139.474-52.379-35.084 53.205-78.628c9.739-14.39 29.298-18.16 43.688-8.422l.105.071c14.39 9.739 18.16 29.298 8.422 43.688z" fill="#99c94f"/><g><g><path d="m394.727 68.711c-4.115 0-7.502-3.283-7.606-7.421-.104-4.203 3.217-7.695 7.419-7.8l19.212-.48c.065-.001.13-.002.194-.002 4.115 0 7.502 3.283 7.606 7.421.104 4.203-3.217 7.695-7.419 7.8l-19.212.48c-.065.001-.129.002-.194.002z" fill="#78a635"/></g></g><g><g><path d="m390.074 103.706c-1.468 0-2.951-.424-4.26-1.309l-13.054-8.835c-3.481-2.356-4.393-7.088-2.037-10.57 2.356-3.481 7.086-4.393 10.57-2.037l13.054 8.835c3.481 2.356 4.393 7.088 2.037 10.57-1.47 2.174-3.869 3.346-6.31 3.346z" fill="#78a635"/></g></g><g><g><path d="m371.56 130.569c-1.646 0-3.303-.531-4.698-1.626l-12.206-9.591c-3.305-2.598-3.879-7.383-1.282-10.688 2.598-3.307 7.383-3.878 10.688-1.282l12.206 9.591c3.305 2.598 3.879 7.383 1.282 10.688-1.502 1.91-3.736 2.908-5.99 2.908z" fill="#78a635"/></g></g><g><g><path d="m342.518 33.376c-3.069 0-5.961-1.87-7.116-4.91l-6.896-18.149c-1.494-3.93.482-8.326 4.411-9.819s8.326.482 9.819 4.411l6.896 18.149c1.494 3.93-.482 8.326-4.411 9.819-.89.338-1.804.499-2.703.499z" fill="#78a635"/></g></g><g><g><path d="m324.805 59.534c-1.468 0-2.951-.424-4.259-1.309l-13.154-8.902c-3.482-2.356-4.394-7.088-2.038-10.569 2.355-3.482 7.088-4.394 10.569-2.038l13.154 8.902c3.482 2.356 4.394 7.088 2.038 10.569-1.47 2.175-3.869 3.347-6.31 3.347z" fill="#78a635"/></g></g><g><g><path d="m307.143 85.642c-.883 0-1.781-.155-2.658-.482l-19.728-7.354c-3.939-1.468-5.942-5.851-4.473-9.791 1.469-3.939 5.846-5.945 9.791-4.473l19.728 7.354c3.939 1.468 5.942 5.851 4.473 9.791-1.142 3.063-4.046 4.955-7.133 4.955z" fill="#78a635"/></g></g><g><g><path d="m315.632 129.457c-1.468 0-2.951-.424-4.259-1.309-3.482-2.356-4.394-7.088-2.038-10.57l29.218-43.172c2.356-3.483 7.087-4.394 10.569-2.038s4.394 7.088 2.038 10.57l-29.218 43.172c-1.471 2.175-3.869 3.347-6.31 3.347z" fill="#78a635"/></g></g><g><g><path d="m363.442 58.813c-1.468 0-2.951-.424-4.26-1.309-3.481-2.356-4.393-7.088-2.037-10.57l22.865-33.785c2.355-3.481 7.086-4.392 10.57-2.037 3.481 2.356 4.393 7.088 2.037 10.57l-22.865 33.785c-1.471 2.173-3.869 3.346-6.31 3.346z" fill="#78a635"/></g></g><path d="m350.465 322.856h-189.145l-22.864-80.024c-5.66-19.811-5.66-40.811 0-60.623 13.533-47.367 56.827-80.023 106.089-80.023h22.782c49.221 0 92.489 32.603 106.059 79.916 5.701 19.878 5.701 40.959 0 60.837z" fill="#aad667"/><path d="m373.386 242.939c5.701-19.878 5.701-40.959 0-60.837-13.57-47.313-56.838-79.916-106.059-79.916h-11.435v220.67h94.573z" fill="#aad667"/><path d="m145.679 354.379 14.599 143.662c.658 7.89 7.253 13.959 15.171 13.959h161.131c7.917 0 14.513-6.069 15.171-13.959l14.599-143.662-39.274-10.149h-150.951z" fill="#9e6351"/><path d="m190.724 498.041-14.599-143.662v-10.149l-30.446 10.149 14.599 143.662c.657 7.89 7.253 13.959 15.17 13.959h30.446c-7.917 0-14.513-6.069-15.17-13.959z" fill="#895146"/><circle cx="303.3" cy="464.714" fill="#895146" r="15.762"/><g><g><path d="m255.893 109.797c-4.204 0-7.612-3.407-7.612-7.612v-15.762c0-4.204 3.407-7.612 7.612-7.612 4.204 0 7.612 3.407 7.612 7.612v15.762c0 4.205-3.408 7.612-7.612 7.612z" fill="#78a635"/></g></g><g><g><path d="m151.982 160.07c-1.576 0-3.165-.487-4.527-1.498l-13.312-9.869c-3.377-2.503-4.085-7.271-1.581-10.647 2.503-3.377 7.272-4.084 10.647-1.581l13.312 9.869c3.377 2.503 4.085 7.271 1.581 10.647-1.493 2.015-3.792 3.079-6.12 3.079z" fill="#78a635"/></g></g><g><g><path d="m134.211 204.37h-20.178c-4.204 0-7.612-3.407-7.612-7.612s3.407-7.612 7.612-7.612h20.178c4.204 0 7.612 3.407 7.612 7.612s-3.407 7.612-7.612 7.612z" fill="#78a635"/></g></g><g><g><path d="m124.128 267.421c-2.802 0-5.498-1.553-6.826-4.234-1.867-3.767-.326-8.333 3.44-10.199l16.805-8.327c3.768-1.867 8.332-.327 10.199 3.44s.326 8.333-3.44 10.199l-16.805 8.327c-1.086.538-2.238.794-3.373.794z" fill="#78a635"/></g></g><g><g><path d="m198.328 172.852c-1.988 0-3.974-.774-5.467-2.314l-12.387-12.782c-2.926-3.019-2.85-7.838.168-10.763 3.019-2.927 7.839-2.849 10.763.168l12.387 12.782c2.926 3.019 2.85 7.838-.168 10.763-1.479 1.434-3.388 2.146-5.296 2.146z" fill="#78a635"/></g></g><g><g><path d="m193.401 204.37h-16.319c-4.204 0-7.612-3.407-7.612-7.612s3.407-7.612 7.612-7.612h16.319c4.204 0 7.612 3.407 7.612 7.612s-3.408 7.612-7.612 7.612z" fill="#78a635"/></g></g><g><g><path d="m177.088 259.094c-2.832 0-5.549-1.586-6.861-4.307-1.827-3.786-.238-8.336 3.549-10.162l17.931-8.648c3.789-1.829 8.336-.237 10.162 3.549 1.827 3.786.238 8.336-3.549 10.162l-17.931 8.648c-1.066.514-2.193.758-3.301.758z" fill="#78a635"/></g></g><g><g><path d="m255.888 172.852c-1.684 0-3.379-.556-4.789-1.7l-15.762-12.782c-3.266-2.647-3.766-7.441-1.118-10.706s7.439-3.766 10.706-1.118l15.762 12.782c3.266 2.647 3.766 7.441 1.118 10.706-1.505 1.856-3.701 2.818-5.917 2.818z" fill="#78a635"/></g></g><g><g><path d="m256.014 220.132c-1.939 0-3.877-.735-5.362-2.209l-15.883-15.762c-2.983-2.96-3.002-7.78-.041-10.764 2.96-2.985 7.78-3.003 10.764-.041l15.883 15.762c2.983 2.96 3.002 7.78.041 10.764-1.487 1.5-3.445 2.25-5.402 2.25z" fill="#78a635"/></g></g><g><g><path d="m256.014 267.419c-1.939 0-3.877-.735-5.362-2.209l-15.883-15.762c-2.983-2.96-3.002-7.78-.041-10.764 2.96-2.985 7.78-3.003 10.764-.041l15.883 15.762c2.983 2.96 3.002 7.78.041 10.764-1.487 1.499-3.445 2.25-5.402 2.25z" fill="#78a635"/></g></g><g><g><path d="m255.892 188.965c-1.92 0-3.84-.722-5.321-2.17-3.006-2.94-3.059-7.758-.119-10.763l15.762-16.113c2.939-3.005 7.759-3.059 10.763-.119 3.006 2.94 3.059 7.758.119 10.763l-15.762 16.113c-1.491 1.524-3.466 2.289-5.442 2.289z" fill="#78a635"/></g></g><g><g><path d="m256.014 235.894c-1.939 0-3.877-.735-5.362-2.209-2.983-2.96-3.002-7.78-.041-10.764l15.641-15.761c2.96-2.983 7.78-3.003 10.764-.041 2.983 2.96 3.002 7.78.041 10.764l-15.641 15.761c-1.487 1.499-3.445 2.25-5.402 2.25z" fill="#78a635"/></g></g><g><g><path d="m256.014 283.181c-1.939 0-3.877-.735-5.362-2.209-2.983-2.96-3.002-7.78-.041-10.764l15.641-15.762c2.96-2.985 7.78-3.003 10.764-.041 2.983 2.96 3.002 7.78.041 10.764l-15.641 15.762c-1.487 1.5-3.445 2.25-5.402 2.25z" fill="#78a635"/></g></g><g><g><path d="m313.549 172.852c-2.146 0-4.278-.902-5.783-2.658-2.735-3.191-2.367-7.996.826-10.732l14.911-12.782c3.193-2.735 7.998-2.364 10.732.826 2.735 3.191 2.367 7.996-.826 10.732l-14.911 12.782c-1.434 1.23-3.196 1.832-4.949 1.832z" fill="#78a635"/></g></g><g><g><path d="m328.456 204.37h-9.982c-4.204 0-7.612-3.407-7.612-7.612s3.407-7.612 7.612-7.612h9.982c4.204 0 7.612 3.407 7.612 7.612s-3.407 7.612-7.612 7.612z" fill="#78a635"/></g></g><g><g><path d="m328.457 267.419c-1.99 0-3.978-.776-5.472-2.319l-12.239-12.651c-2.923-3.022-2.842-7.84.178-10.763 3.021-2.922 7.84-2.842 10.763.178l12.239 12.651c2.923 3.022 2.842 7.84-.178 10.763-1.477 1.429-3.385 2.141-5.291 2.141z" fill="#78a635"/></g></g><g><g><path d="m382.111 267.419c-1.945 0-3.889-.74-5.375-2.222l-10.546-10.517c-2.976-2.968-2.983-7.788-.015-10.764 2.967-2.977 7.787-2.984 10.764-.015l10.546 10.517c2.976 2.968 2.983 7.788.015 10.764-1.486 1.49-3.438 2.237-5.389 2.237z" fill="#78a635"/></g></g><g><g><path d="m391.886 204.37h-15.049c-4.204 0-7.612-3.407-7.612-7.612s3.407-7.612 7.612-7.612h15.049c4.204 0 7.612 3.407 7.612 7.612s-3.408 7.612-7.612 7.612z" fill="#78a635"/></g></g><path d="m324.373 188.564c-7.687-51.683-32.816-86.408-62.53-86.408h-11.813c-29.743 0-54.879 34.769-62.546 86.519-3.047 20.56-3.047 42.296 0 62.855l11.857 80.023c.553 3.731 3.756 6.496 7.529 6.496h98.088c3.771 0 6.974-2.761 7.528-6.492l11.887-79.915c3.069-20.634 3.069-42.446 0-63.078zm-121.831 60.734c-2.831-19.099-2.831-39.291 0-58.391 6.138-41.432 25.194-71.806 45.74-73.448v205.367h-34.845zm106.774.104-10.922 73.424h-34.89v-205.371c20.554 1.562 39.649 31.918 45.812 73.349 2.851 19.166 2.851 39.43 0 58.598z" fill="#78a635"/><path d="m375.11 354.38h-238.435c-3.866 0-7-3.134-7-7v-17.524c0-3.866 3.134-7 7-7h238.435c3.866 0 7 3.134 7 7v17.524c0 3.866-3.134 7-7 7z" fill="#895146"/><path d="m129.675 329.856v17.524c0 3.866 3.134 7 7 7h23.446v-31.524h-23.446c-3.866 0-7 3.134-7 7z" fill="#7f4740"/></g></svg>