<?xml version="1.0" encoding="iso-8859-1"?>
<!-- Generator: Adobe Illustrator 19.0.0, SVG Export Plug-In . SVG Version: 6.00 Build 0)  -->
<svg version="1.1" id="Capa_1" xmlns="http://www.w3.org/2000/svg" xmlns:xlink="http://www.w3.org/1999/xlink" x="0px" y="0px"
	 viewBox="0 0 468.286 468.286" style="enable-background:new 0 0 468.286 468.286;" xml:space="preserve">
<circle style="fill:#EBF0F3;" cx="187.242" cy="256.341" r="178.994"/>
<path style="fill:#2D93BA;" d="M374.483,256.341c0-46.326-16.978-90.064-47.667-124.423l0.322-0.326l-6.628-6.711
	c-0.016-0.016-0.029-0.035-0.046-0.052l-6.852-6.937l-0.336,0.341C278.69,86.598,234.39,69.095,187.241,69.095
	c-47.144,0-91.444,17.503-126.03,49.138l-0.336-0.341l-6.852,6.937c-0.016,0.016-0.029,0.035-0.046,0.051l-6.628,6.712l0.322,0.326
	C16.981,166.281,0,210.019,0,256.341c0,47.771,18.135,91.282,47.687,124.398l-0.338,0.342l6.678,6.763
	c0.229,0.232,0.485,0.426,0.716,0.657c1.054,1.057,2.219,1.997,3.299,3.03c29.934,28.646,67.591,46.303,108.274,50.807
	c0.635,0.071,1.246,0.216,1.883,0.28c6.286,0.632,12.638,0.965,19.042,0.965s12.756-0.334,19.042-0.965
	c0.635-0.065,1.245-0.209,1.878-0.28c40.883-4.524,78.722-22.321,108.727-51.215c0.922-0.887,1.923-1.69,2.827-2.596
	c0.239-0.24,0.505-0.442,0.744-0.683l6.678-6.763l-0.34-0.345C356.349,347.62,374.483,304.11,374.483,256.341z M296.133,384.019
	c-1.45,1.242-2.924,2.449-4.41,3.636c-2.793,2.226-5.65,4.374-8.583,6.423c-1.295,0.906-2.597,1.798-3.913,2.665
	c-3.245,2.133-6.57,4.151-9.965,6.06c-1.173,0.66-2.345,1.326-3.532,1.957c-3.579,1.9-7.248,3.651-10.974,5.294
	c-1.166,0.513-2.319,1.049-3.496,1.535c-3.754,1.553-7.598,2.927-11.483,4.21c-1.274,0.419-2.531,0.882-3.816,1.271
	c-1.955,0.593-3.979,1.014-5.964,1.537c12.257-15.534,22.459-37.631,29.753-64.306c14.313,6.872,27.711,15.759,39.773,26.634
	C298.389,381.961,297.295,383.026,296.133,384.019z M134.67,415.787c-3.864-1.277-7.688-2.643-11.423-4.189
	c-1.198-0.495-2.373-1.04-3.559-1.563c-3.7-1.633-7.343-3.37-10.899-5.257c-1.216-0.646-2.414-1.327-3.615-2.003
	c-3.366-1.894-6.662-3.894-9.879-6.008c-1.345-0.885-2.674-1.795-3.995-2.721c-2.901-2.028-5.728-4.152-8.492-6.354
	c-1.519-1.213-3.023-2.446-4.505-3.715c-1.145-0.979-2.224-2.029-3.342-3.038c12.061-10.877,25.46-19.765,39.774-26.637
	c7.295,26.675,17.495,48.772,29.752,64.307c-1.98-0.522-3.999-0.942-5.95-1.534C137.236,416.682,135.962,416.212,134.67,415.787z
	 M64.892,148.333c2.031,1.763,4.087,3.475,6.18,5.141c2.624,2.089,5.296,4.085,8.012,6.021c2.174,1.549,4.355,3.072,6.585,4.521
	c2.792,1.815,5.64,3.51,8.515,5.166c2.283,1.316,4.559,2.632,6.893,3.847c2.967,1.545,5.997,2.943,9.04,4.323
	c0.023,0.011,0.047,0.023,0.071,0.034c-4.355,21.161-6.961,44.522-7.508,69.324H19.684c2.131-37.662,16.537-73.098,41.558-101.415
	C62.419,146.37,63.693,147.293,64.892,148.333z M303.417,153.473c2.093-1.666,4.147-3.377,6.178-5.14
	c1.199-1.04,2.474-1.963,3.651-3.037c25.017,28.313,39.424,63.752,41.554,101.415h-82.993c-0.547-24.803-3.154-48.164-7.509-69.325
	c0.016-0.008,0.033-0.015,0.049-0.023c3.054-1.385,6.094-2.786,9.072-4.337c2.326-1.211,4.593-2.524,6.87-3.835
	c2.884-1.661,5.739-3.361,8.539-5.18c2.224-1.445,4.398-2.964,6.565-4.508C298.112,157.564,300.789,155.565,303.417,153.473z
	 M241.272,165.815c-2.122,0.721-4.226,1.489-6.379,2.124c-3.076,0.906-6.211,1.628-9.344,2.357
	c-2.054,0.478-4.083,1.036-6.159,1.436c-3.501,0.676-7.059,1.129-10.616,1.582c-1.771,0.226-3.514,0.561-5.296,0.731
	c-2.184,0.209-4.41,0.2-6.612,0.324V90.663c17.201,7.561,34.227,34.672,44.896,74.975
	C241.598,165.694,241.437,165.759,241.272,165.815z M177.616,174.37c-2.201-0.125-4.426-0.116-6.61-0.324
	c-1.789-0.17-3.537-0.507-5.313-0.734c-3.551-0.453-7.102-0.904-10.597-1.579c-2.084-0.402-4.12-0.962-6.182-1.442
	c-3.124-0.727-6.249-1.446-9.316-2.35c-2.163-0.637-4.277-1.41-6.409-2.134c-0.156-0.053-0.31-0.115-0.466-0.169
	c10.669-40.303,27.694-67.413,44.892-74.975V174.37z M133.99,186.363c3.426,1.012,6.916,1.81,10.405,2.625
	c2.308,0.539,4.585,1.173,6.918,1.624c3.903,0.755,7.868,1.255,11.834,1.763c1.989,0.254,3.945,0.635,5.947,0.827
	c2.818,0.27,5.68,0.307,8.522,0.45v53.059h-55.689c0.522-22.591,2.806-43.484,6.459-62.186
	C130.254,185.143,132.101,185.804,133.99,186.363z M177.616,265.961v53.096c-16.949,0.857-33.464,3.883-49.23,9.096
	c-3.653-18.703-5.937-39.598-6.459-62.191H177.616z M177.616,338.273v83.741c-17.2-7.562-34.227-34.677-44.895-74.987
	C147.081,342.102,162.135,339.145,177.616,338.273z M196.866,338.273c15.483,0.872,30.539,3.83,44.899,8.754
	c-10.669,40.31-27.697,67.426-44.899,74.987V338.273z M196.866,319.057v-53.096h55.694c-0.522,22.593-2.807,43.489-6.46,62.192
	C230.334,322.94,213.818,319.913,196.866,319.057z M196.866,246.711v-53.059c2.844-0.143,5.706-0.18,8.525-0.45
	c1.996-0.191,3.945-0.57,5.926-0.824c3.974-0.508,7.948-1.01,11.859-1.766c2.322-0.449,4.587-1.08,6.884-1.616
	c3.502-0.818,7.005-1.618,10.444-2.635c1.887-0.557,3.732-1.22,5.597-1.837c3.653,18.702,5.937,39.596,6.459,62.187H196.866z
	 M296.811,133.971c-1.843,1.594-3.723,3.132-5.623,4.638c-2.331,1.848-4.701,3.632-7.114,5.345c-1.957,1.39-3.933,2.746-5.941,4.047
	c-2.492,1.614-5.032,3.136-7.598,4.61c-2.047,1.176-4.097,2.343-6.189,3.429c-1.52,0.788-3.086,1.472-4.628,2.213
	c-7.318-26.713-17.55-48.832-29.846-64.351c25.719,6.714,49.536,19.403,69.669,37.562
	C298.625,132.291,297.742,133.165,296.811,133.971z M114.768,158.253c-1.538-0.739-3.102-1.421-4.617-2.208
	c-2.098-1.089-4.156-2.261-6.21-3.441c-2.56-1.471-5.094-2.99-7.581-4.6c-2.011-1.302-3.991-2.661-5.952-4.054
	c-2.41-1.712-4.778-3.494-7.108-5.341c-1.9-1.507-3.781-3.044-5.624-4.639c-0.931-0.805-1.814-1.68-2.73-2.507
	c20.133-18.159,43.948-30.848,69.666-37.562C132.317,109.421,122.085,131.54,114.768,158.253z M102.681,265.961
	c0.547,24.804,3.153,48.166,7.508,69.328c-17.63,7.987-33.99,18.782-48.644,32.124c-24.228-27.384-39.594-62.644-41.808-101.452
	H102.681z M264.297,335.289c4.356-21.162,6.963-44.525,7.51-69.328h82.939c-2.214,38.807-17.58,74.066-41.806,101.45
	C298.285,354.07,281.927,343.276,264.297,335.289z"/>
<circle style="fill:#FCD462;" cx="344.226" cy="148.764" r="124.06"/>
<circle style="fill:#F6C358;" cx="344.226" cy="148.764" r="98.616"/>
<path style="fill:#DC8744;" d="M340.273,223.461v-13.155c-16.47-1.679-31.253-8.228-44.335-19.637l13.155-15.678
	c10.09,8.77,20.473,13.991,31.18,15.678v-34.963c-13.581-3.241-23.524-7.509-29.83-12.796c-6.306-5.287-9.459-13.126-9.459-23.517
	s3.622-18.89,10.897-25.504c7.274-6.607,16.734-10.207,28.393-10.809v-9.012H351.8v9.188c13.214,0.968,25.709,5.47,37.486,13.522
	l-11.718,16.58c-7.934-5.646-16.514-9.129-25.768-10.457v33.878h0.543c13.815,3.248,23.964,7.634,30.446,13.155
	c6.497,5.529,9.738,13.551,9.738,24.059c0,10.515-3.725,19.08-11.175,25.68c-7.45,6.614-17.291,10.215-29.552,10.816v12.972H340.273
	z M327.558,107.14c-3.065,2.699-4.59,6.064-4.59,10.09s1.203,7.208,3.608,9.547c2.391,2.347,6.966,4.598,13.698,6.761v-31.179
	C334.861,102.842,330.623,104.434,327.558,107.14z M365.498,186.159c3.358-2.757,5.045-6.24,5.045-10.449
	c0-4.202-1.32-7.538-3.96-10.002c-2.655-2.464-7.582-4.774-14.783-6.937v32.433C357.564,190.61,362.125,188.923,365.498,186.159z"/>
<g>
</g>
<g>
</g>
<g>
</g>
<g>
</g>
<g>
</g>
<g>
</g>
<g>
</g>
<g>
</g>
<g>
</g>
<g>
</g>
<g>
</g>
<g>
</g>
<g>
</g>
<g>
</g>
<g>
</g>
</svg>
