<svg height="512" viewBox="0 0 48 48" width="512" xmlns="http://www.w3.org/2000/svg"><g id="sticky_note" data-name="sticky note"><path d="m4 4h40v5h-40z" fill="#ffba55"/><path d="m44 4v3h-35a3 3 0 0 1 -3-3z" fill="#fc6"/><path d="m44 9v30l-8 8h-32v-38z" fill="#fc6"/><path d="m44 9v30l-6 6h-28a4 4 0 0 1 -4-4v-32z" fill="#ffde76"/><g fill="#ffba55"><path d="m39 18h-30a1 1 0 0 1 0-2h30a1 1 0 0 1 0 2z"/><path d="m39 24h-30a1 1 0 0 1 0-2h30a1 1 0 0 1 0 2z"/><path d="m39 30h-30a1 1 0 0 1 0-2h30a1 1 0 0 1 0 2z"/><path d="m24 36h-15a1 1 0 0 1 0-2h15a1 1 0 0 1 0 2z"/><path d="m44 39-8 8v-8z"/></g><path d="m21 1h6v10h-6z" fill="#db5669"/><path d="m27 1c0 8.55-.1 8 0 8a4 4 0 0 1 -4-4v-4z" fill="#f26674"/></g></svg>