<svg id="Capa_1" enable-background="new 0 0 511.998 511.998" height="512" viewBox="0 0 511.998 511.998" width="512" xmlns="http://www.w3.org/2000/svg"><g><path d="m201.619 114.523h105.416v273.523h-105.416z" fill="#4a80aa" transform="matrix(.707 -.707 .707 .707 -103.194 253.436)"/><path d="m211.492 138.359h37.998v273.523h-37.998z" fill="#407093" transform="matrix(.707 -.707 .707 .707 -127.03 243.563)"/><path d="m185.603 31.316c41.565 41.565 41.757 108.836.595 150.64-41.496 42.143-110.016 42.421-151.836.599-20.647-20.647-31.087-47.637-31.318-74.698-.152-17.934 21.574-26.995 34.256-14.313l17.714 17.714c12.044 12.044 31.572 12.044 43.616 0l15.675-15.675c12.044-12.044 12.044-31.572 0-43.616l-17.714-17.714c-12.732-12.732-3.543-34.429 14.463-34.252 27.01.265 53.939 10.705 74.549 31.315z" fill="#4a80aa"/><path d="m328.75 476.943c-41.565-41.565-41.757-108.837-.595-150.64 41.496-42.143 110.015-42.42 151.835-.599 20.647 20.647 31.087 47.637 31.318 74.698.153 17.934-21.573 26.996-34.255 14.314l-17.715-17.715c-12.044-12.044-31.572-12.044-43.616 0l-15.675 15.675c-12.044 12.044-12.044 31.572 0 43.616l17.714 17.714c12.733 12.733 3.544 34.429-14.462 34.252-27.01-.265-53.939-10.705-74.549-31.315z" fill="#4a80aa"/><g fill="#407093"><path d="m54.04 162.878c-20.647-20.647-31.087-47.637-31.318-74.698-.001-.181.013-.356.016-.536-10.179.262-19.795 8.261-19.693 20.213.231 27.061 10.671 54.051 31.318 74.698 41.82 41.821 110.34 41.544 151.836-.599 3.121-3.169 6-6.487 8.645-9.927-41.821 32.134-102.507 29.148-140.804-9.151z"/><path d="m118.307 91.581 15.675-15.675c12.044-12.044 12.044-31.572 0-43.616l-17.714-17.714c-4.238-4.238-6.036-9.469-5.9-14.556-17.547.377-26.345 21.665-13.777 34.233l17.714 17.714c11.369 11.369 12.001 29.403 1.906 41.52.719-.6 1.421-1.231 2.096-1.906z"/></g><g fill="#407093"><path d="m422.977 488.581c-27.01-.265-53.94-10.705-74.55-31.315-38.414-38.414-41.486-98.782-9.24-140.713-3.846 2.955-7.537 6.201-11.032 9.75-41.162 41.804-40.971 109.075.595 150.64 20.61 20.61 47.54 31.05 74.55 31.315 12.012.118 20.089-9.5 20.362-19.697-.23.005-.454.022-.685.02z"/><path d="m496.731 395.038-17.715-17.715c-12.044-12.044-31.572-12.044-43.616 0l-15.675 15.675c-.675.675-1.306 1.377-1.906 2.096 12.117-10.095 30.151-9.463 41.52 1.906l17.715 17.715c12.554 12.554 33.955 3.796 34.239-13.778-5.096.131-10.332-1.668-14.562-5.899z"/></g><g><path d="m203.079 308.948c-29.897-29.897-78.371-29.897-108.268 0l-72.359 72.359c-29.897 29.897-29.897 78.37 0 108.268 29.897 29.897 78.37 29.897 108.268 0l72.359-72.359c29.897-29.897 29.897-78.371 0-108.268z" fill="#e28086"/><path d="m43.575 504.541c-7.638-3.644-14.797-8.636-21.129-14.968-29.893-29.893-29.893-78.364.009-108.266l72.357-72.357c29.902-29.902 78.373-29.902 108.266-.009 6.332 6.332 11.324 13.492 14.968 21.129-28.46-13.594-63.575-8.602-87.145 14.968l-72.357 72.357c-23.571 23.571-28.563 58.687-14.969 87.146z" fill="#dd636e"/><path d="m462.961 116.075 49.01-74.605-41.415-41.414-74.604 49.009-2.116 32.314-206.863 206.864 36.811 36.81 206.863-206.863z" fill="#f9f6f9"/><path d="m407.293 94.831-206.868 206.868-13.449-13.449 206.868-206.868 2.108-32.317 74.609-49.008 15.13 15.13-65.256 58.361z" fill="#dddaec"/><path d="m259.512 312.851-60.337-60.337c-13.236-13.236-34.695-13.236-47.931 0-13.236 13.236-13.236 34.695 0 47.931l60.337 60.337c13.236 13.236 34.695 13.236 47.931 0 13.236-13.236 13.236-34.695 0-47.931z" fill="#e28086"/><path d="m178.851 314.016c0 8.67 3.311 17.34 9.933 23.963l-37.531-37.531c-6.622-6.622-9.933-15.292-9.933-23.962s3.303-17.349 9.925-23.971c13.236-13.236 34.706-13.236 47.942 0l37.531 37.531c-13.236-13.236-34.698-13.227-47.934.009-6.622 6.621-9.933 15.291-9.933 23.961z" fill="#dd636e"/></g></g></svg>