<svg id="Capa_1" enable-background="new 0 0 512 512" height="512" viewBox="0 0 512 512" width="512" xmlns="http://www.w3.org/2000/svg"><g><path d="m275.585 416.699v.381c0 33.335 23.022 62.584 55.626 69.53.916.196 1.853.391 2.799.566 0 0 24.824 3.551 29.558 24.824h-215.136c4.734-21.273 29.558-24.824 29.558-24.824.854-.154 1.698-.329 2.521-.504 32.727-6.895 55.904-36.144 55.904-69.592v-.381c0-6.391-2.398-12.494-6.484-17.413-.021-.031-.041-.051-.062-.072-.666-.73.498-2.354-.158-3.11-39.812-45.881-61.637-138.208-73.189-222.782-7.612-55.793-11.039-106.729-12.458-138.938-.024-.54-1.384-2.188-1.407-2.716-.422-9.52-.659-17.208-.803-22.621-.122-4.961 3.861-9.047 8.831-9.047h210.629c4.971 0 8.954 4.086 8.83 9.046-.288 11.115-1.009 31.801-2.727 58.24-.034.526-1.525 2.604-1.56 3.135-1.946 29.572-5.229 64.572-10.456 102.9-11.743 85.966-33.217 179.748-74.302 224.784-.021.021.989 1.149.969 1.18-4.085 4.92-6.483 11.023-6.483 17.414z" fill="#c8effe"/><path d="m275.585 416.699v.381c0 33.335 23.022 62.584 55.626 69.53.916.196 1.853.391 2.799.566 0 0 24.824 3.551 29.558 24.824h-19.091c.617 0-3.952-6.865-4.899-7.647-3.386-2.779-7.029-3.942-11.238-4.919-4.817-1.122-9.798-1.297-14.645-2.295-17.259-3.53-30.906-15.787-40.848-29.98-10.148-14.48-16.353-32.316-16.353-50.079v-.381c0-6.391 2.398-12.494 6.484-17.413.021-.031.041-.051.062-.072 41.084-45.036 63.067-139.926 74.81-225.892 5.321-39.016 8.542-76.189 10.477-106.035 1.719-26.439 2.439-47.125 2.727-58.24.123-4.961-3.86-9.047-8.83-9.047h19.091c4.971 0 8.954 4.086 8.83 9.046-.288 11.115-1.009 31.801-2.727 58.24-1.935 29.846-5.156 67.019-10.477 106.035-11.743 85.966-33.726 180.855-74.81 225.892-.021.021-.041.041-.062.072-4.086 4.92-6.484 11.023-6.484 17.414z" fill="#99e6fc"/><path d="m356.93 173.322c-5.424 39.716-13.029 81.345-23.691 119.075h-154.468c-5.166-18.237-9.602-37.39-13.431-56.789-4.086-20.738-7.472-41.764-10.281-62.285h201.871z" fill="#fee45a"/><path d="m356.93 173.322c-.34 2.48-.69 4.971-1.039 7.472-2.061 14.725-4.475 29.37-7.203 44.028-1.762 9.467-3.646 18.911-5.7 28.319-2.722 12.465-5.817 24.808-9.152 37.094-.196.72-.391 1.441-.597 2.161h-19.101c10.672-37.729 18.278-79.359 23.712-119.075h19.08z" fill="#fedf30"/><path d="m333.239 292.396c-12.422 43.925-29.002 82.58-51.108 106.817-6.412 7.75-15.407 11.835-24.546 12.257h-3.17c-9.139-.422-18.134-4.508-24.546-12.257-22.096-24.227-38.676-62.882-51.098-106.817z" fill="#bbec6c"/><path d="m333.239 292.396c-.154.545-.309 1.101-.473 1.647-1.8 6.327-3.672 12.417-5.723 18.712-6.336 19.441-13.853 38.262-23.763 56.253-3.267 5.93-6.841 11.812-10.744 17.36-3.985 5.664-8.549 11.582-13.666 16.276-5.61 5.145-13.563 8.827-21.284 8.827h-.546c.916-4.456 2.985-8.635 5.938-12.185.021-.031.041-.051.062-.072 22.106-24.227 38.676-62.882 51.098-106.817h19.101z" fill="#a2e62e"/><path d="m367.418 67.287c-1.935 29.846-5.156 67.019-10.477 106.035h-201.882c-7.739-56.728-11.022-109.586-12.402-141.654 26.038 4.837 51.788 14.83 76.673 24.34 42.041 16.065 88.138 31.163 131.219 18.155 5.846-1.761 11.486-4.077 16.869-6.876z" fill="#fe9738"/><path d="m367.418 67.287c-1.935 29.846-5.156 67.019-10.477 106.035h-19.091c4.878-35.743 7.986-69.952 9.962-98.378.916-.247 1.832-.504 2.738-.782 5.845-1.76 11.485-4.076 16.868-6.875z" fill="#fe860a"/></g></svg>