<?xml version="1.0" encoding="iso-8859-1"?>
<!-- Generator: Adobe Illustrator 19.0.0, SVG Export Plug-In . SVG Version: 6.00 Build 0)  -->
<svg version="1.1" id="Layer_1" xmlns="http://www.w3.org/2000/svg" xmlns:xlink="http://www.w3.org/1999/xlink" x="0px" y="0px"
	 viewBox="0 0 508 508" style="enable-background:new 0 0 508 508;" xml:space="preserve">
<path style="fill:#40596B;" d="M485.05,0H22.85c-11.7,0-21.2,9.5-21.2,21.2v315.1h504.6V21.2C506.25,9.5,496.75,0,485.05,0z"/>
<path style="fill:#F2F2F2;" d="M1.65,336.3v62.4c0,11.7,9.5,21.2,21.2,21.2h462.3c11.7,0,21.2-9.5,21.2-21.2v-62.4H1.65z"/>
<g>
	<circle style="fill:#CDD6E0;" cx="253.95" cy="378" r="16.5"/>
	<polygon style="fill:#CDD6E0;" points="362.65,476.1 145.15,476.1 166.15,435.5 174.25,419.8 333.75,419.8 341.75,435.5 	"/>
</g>
<rect x="87.55" y="476.1" style="fill:#F2F2F2;" width="332.8" height="31.9"/>
<rect x="35.25" y="31.7" style="fill:#FFFFFF;" width="437.5" height="272.9"/>
<polygon style="fill:#ACB3BA;" points="341.75,435.5 166.15,435.5 174.25,419.8 333.75,419.8 "/>
<path style="fill:#4CDBC4;" d="M285.45,270.1h-134.8c-1.1,0-2-0.9-2-2V129.3h140.8v136.8C289.45,268.3,287.65,270.1,285.45,270.1z"
	/>
<path style="fill:#3DC9AE;" d="M148.65,245.3v2.4c0,12.4,10,22.4,22.4,22.4h96c12.4,0,22.4-10,22.4-22.4v-2.4L148.65,245.3
	L148.65,245.3z"/>
<g>
	<circle style="fill:#40596B;" cx="260.45" cy="160.4" r="8"/>
	<circle style="fill:#40596B;" cx="177.65" cy="160.4" r="8"/>
</g>
<path style="fill:#F2F2F2;" d="M260.45,164.2c-2.6,0-4.6-2.1-4.6-4.6v-47.5c0-20.3-16.5-36.8-36.8-36.8s-36.8,16.5-36.8,36.8v47.5
	c0,2.6-2.1,4.6-4.6,4.6c-2.6,0-4.6-2.1-4.6-4.6v-47.5c0-25.4,20.6-46,46-46s46,20.6,46,46v47.5
	C265.05,162.2,262.95,164.2,260.45,164.2z"/>
<rect x="257.95" y="207.9" style="fill:#F8B64C;" width="94.1" height="62.2"/>
<path style="fill:#FF7058;" d="M331.45,165c-4.1-4-10.5-4.1-14.4-0.3c-2.7,2.6-9.5,12.5-12.1,19.6c-2.6-7.1-9.4-16.9-12.1-19.6
	c-3.9-3.8-10.3-3.6-14.4,0.3c-4.1,4-4.2,10.3-0.4,14.1c3.8,3.7,22.4,15.7,26.8,12.2c4.4,3.5,23-8.5,26.8-12.2
	C335.75,175.2,335.55,168.9,331.45,165z M283.15,174.1c-1.1-1.1-0.9-3,0.4-4.2c0.9-0.9,2-1.1,2.5-1.1s1.2,0.1,1.8,0.7
	c2.1,2.1,6.2,8.2,8.7,13.2C291.55,180.2,285.35,176.2,283.15,174.1z M326.85,174.1c-2.1,2.1-8.4,6.1-13.4,8.6
	c2.6-4.9,6.6-11.1,8.7-13.2c0.6-0.6,1.3-0.7,1.8-0.7s1.6,0.1,2.5,1.1C327.75,171.1,327.95,173,326.85,174.1z"/>
<rect x="250.75" y="187.1" style="fill:#FFD15C;" width="108.6" height="20.9"/>
<rect x="294.05" y="187.1" style="fill:#FF7058;" width="21.9" height="83.1"/>
<g>
	<rect x="294.05" y="207.9" style="fill:#F1543F;" width="21.9" height="3.5"/>
	<rect x="294.05" y="187.1" style="fill:#F1543F;" width="21.9" height="3.5"/>
</g>
<g>
</g>
<g>
</g>
<g>
</g>
<g>
</g>
<g>
</g>
<g>
</g>
<g>
</g>
<g>
</g>
<g>
</g>
<g>
</g>
<g>
</g>
<g>
</g>
<g>
</g>
<g>
</g>
<g>
</g>
</svg>
