<svg height="512" viewBox="0 0 42 58" width="512" xmlns="http://www.w3.org/2000/svg"><g id="Page-1" fill="none" fill-rule="evenodd"><g id="045---Coffee-Cup" fill-rule="nonzero"><path id="Shape" d="m23 0h6c1.1045695 0 2 .8954305 2 2v2.852h-10v-2.852c0-1.1045695.8954305-2 2-2z" fill="#3b96d2"/><path id="Shape" d="m34.646 4h-27.292c-.81667795.0011706-1.55060467.49876817-1.854 1.257l-1.5 3.743 17 1.5 17-1.5-1.5-3.743c-.3033953-.75823183-1.0373221-1.2558294-1.854-1.257z" fill="#2980b9"/><path id="Shape" d="m3.98 22-.98-7h36l-.98 7-3.62 26-1.16 8.28c-.1394787.9864644-.9837238 1.7198491-1.98 1.72h-20.52c-.99627622-.0001509-1.84052134-.7335356-1.98-1.72l-1.16-8.28z" fill="#2fa7cb"/><path id="Shape" d="m40.98 15h-39.96c-.32460651.0059402-.63189417-.1460746-.82413665-.4076994-.19224249-.2616247-.24551053-.6002937-.14286335-.9083006l1.358-4c.14260753-.41154705.53145304-.68659393.967-.684h37.244c.435547-.00259393.8243925.27245295.967.684l1.358 4c.1026472.3080069.0493791.6466759-.1428633.9083006-.1922425.2616248-.4995302.4136396-.8241367.4076994z" fill="#3b96d2"/><path id="Shape" d="m38.989 23.146-3.565 24c-.0757888.4930643-.5011504.856323-1 .854h-26.85c-.4988496.002323-.92421115-.3609357-1-.854l-3.565-24c-.0427338-.2894444.04343724-.5830851.23580407-.8035375.19236683-.2204523.47163071-.3456001.76419593-.3424625h33.982c.2922176-.0025485.5709286.1228529.7628447.3432295s.2778318.5136748.2351553.8027705z" fill="#9ec8d2"/><path id="Shape" d="m21 29.24c.958913-1.9040099 2.8703783-3.1426394 5-3.24 2.96 0 5 2.58 5 5.636 0 4.066-3.765 6.811-9.33 11.765-.3826981.3380688-.9573019.3380688-1.34 0-5.565-4.954-9.33-7.701-9.33-11.765 0-3.056 2.04-5.636 5-5.636 2.1296217.0973606 4.041087 1.3359901 5 3.24z" fill="#ff5364"/></g></g></svg>