<svg id="Layer_1" enable-background="new 0 0 497 497" height="512" viewBox="0 0 497 497" width="512" xmlns="http://www.w3.org/2000/svg"><g><path d="m400.595 70.481h-304.224v-51.934c0-10.243 8.304-18.547 18.547-18.547h267.164c10.243 0 18.547 8.304 18.547 18.547z" fill="#9b4f1d"/><path d="m382.082 0h-40c10.243 0 18.546 8.303 18.546 18.546l-.033 51.934h40l.033-51.934c0-10.243-8.303-18.546-18.546-18.546z" fill="#8c471a"/><path d="m406.367 497h-315.734c-13.39 0-24.244-10.855-24.244-24.244v-325.179c0-8.394 1.838-16.687 5.385-24.295l24.615-52.802h304.224l24.615 52.802c3.547 7.608 5.385 15.9 5.385 24.295v325.178c-.001 13.39-10.856 24.245-24.246 24.245z" fill="#fdc435"/><path d="m425.227 123.283-24.615-52.803h-40l24.615 52.802c3.547 7.608 5.385 15.9 5.385 24.295v325.178c0 13.39-10.854 24.244-24.244 24.244h40c13.39 0 24.244-10.854 24.244-24.244v-325.178c0-8.394-1.838-16.686-5.385-24.294z" fill="#fab300"/><path d="m123 173.687h251v267.516h-251z" fill="#f9f2d7"/><path d="m202 0h93v117.326h-93z" fill="#67b856"/><g><path d="m248.649 382.922c-30.042.059-54.443-24.246-54.503-54.287l-.083-42.164c-.059-30.041 24.246-54.443 54.287-54.502 30.041-.059 54.443 24.246 54.502 54.287l.083 42.164c.061 30.041-24.244 54.442-54.286 54.502z" fill="#9b4f1d"/><g><path d="m241.429 361.466c-2.242 0-4.46-1.001-5.938-2.912-2.534-3.276-1.932-7.987 1.345-10.521 3.86-3.015 13.909-12.845 13.892-21.888-.013-6.438-2.987-9.364-7.488-13.794-5.321-5.235-11.943-11.751-11.969-24.457-.016-7.748 3.3-15.705 9.854-23.648 4.563-5.531 9.172-9.109 9.365-9.259 3.278-2.53 7.989-1.923 10.52 1.357 2.527 3.276 1.924 7.979-1.346 10.511-3.733 2.91-13.41 12.351-13.393 21.01.013 6.438 2.987 9.364 7.488 13.794 5.321 5.235 11.943 11.751 11.969 24.457.016 7.937-3.383 16.097-10.101 24.256-4.687 5.691-9.416 9.373-9.615 9.526-1.366 1.057-2.981 1.568-4.583 1.568z" fill="#e2894c"/></g></g></g></svg>