<?xml version="1.0" encoding="iso-8859-1"?>
<!-- Generator: Adobe Illustrator 19.0.0, SVG Export Plug-In . SVG Version: 6.00 Build 0)  -->
<svg version="1.1" id="Capa_1" xmlns="http://www.w3.org/2000/svg" xmlns:xlink="http://www.w3.org/1999/xlink" x="0px" y="0px"
	 viewBox="0 0 512.001 512.001" style="enable-background:new 0 0 512.001 512.001;" xml:space="preserve">
<path style="fill:#715539;" d="M54.174,402.297l-12.254-27.384l370.256-165.664c35.665-15.961,77.663,0.071,93.631,35.748
	c1.824,4.083,3.258,8.309,4.251,12.516c7.909,33.076-8.914,67.183-40.005,81.102l-207.94,93.04l-152.667,68.302l-6.127-13.695
	l-47.851-84.543L54.174,402.297z"/>
<path style="fill:#A17852;" d="M457.828,402.297l12.254-27.384L99.825,209.248c-35.664-15.961-77.663,0.071-93.631,35.748
	c-1.824,4.083-3.258,8.309-4.251,12.516c-7.909,33.076,8.914,67.183,40.005,81.102l207.94,93.04l152.667,68.302l6.127-13.695
	l47.851-84.543L457.828,402.297z"/>
<path style="fill:#C8AD92;" d="M470.081,374.908c-17.277-7.731-36.532-8.271-54.215-1.52c-17.683,6.75-31.68,19.983-39.41,37.262
	c-15.958,35.666,0.076,77.667,35.743,93.625c9.371,4.193,19.179,6.177,28.838,6.177c27.102,0,53.022-15.624,64.787-41.92
	C521.782,432.866,505.747,390.867,470.081,374.908z"/>
<path style="fill:#B38A65;" d="M41.919,374.908c17.277-7.731,36.532-8.271,54.215-1.52c17.683,6.75,31.68,19.983,39.41,37.262
	c15.958,35.666-0.076,77.667-35.743,93.625c-9.371,4.193-19.179,6.177-28.838,6.177c-27.102,0-53.022-15.624-64.787-41.92
	C-9.781,432.866,6.254,390.867,41.919,374.908z"/>
<path style="fill:#FFA92F;" d="M370.595,186.613c0,63.171-51.391,114.562-114.572,114.572h-0.01
	c-63.181,0-114.582-51.401-114.582-114.572c0-26.081,17.74-63.411,52.711-110.982c25.1-34.141,49.811-61.001,50.841-62.131
	l11.03-11.95l0.01,0.01l11.02,11.94c1.03,1.13,25.74,27.991,50.841,62.131C352.854,123.201,370.595,160.532,370.595,186.613z"/>
<path style="fill:#FF4F19;" d="M320.804,236.394c0,35.731-29.061,64.781-64.781,64.791h-0.01c-35.721,0-64.791-29.061-64.791-64.791
	c0-14.87,9.1-34.471,27.811-59.931c12.79-17.4,25.421-31.131,25.951-31.711l11.03-11.95l0.01,0.01l11.02,11.94
	c0.53,0.58,13.16,14.31,25.951,31.711C311.704,201.923,320.804,221.523,320.804,236.394z"/>
<path style="fill:#FF8A1D;" d="M370.595,186.613c0,63.171-51.391,114.562-114.572,114.572V1.559l11.02,11.94
	c1.03,1.13,25.74,27.991,50.841,62.131C352.854,123.201,370.595,160.532,370.595,186.613z"/>
<path style="fill:#FF0C2F;" d="M320.804,236.394c0,35.731-29.061,64.781-64.781,64.791V132.811l11.02,11.94
	c0.53,0.58,13.16,14.31,25.951,31.711C311.704,201.923,320.804,221.523,320.804,236.394z"/>
<g>
</g>
<g>
</g>
<g>
</g>
<g>
</g>
<g>
</g>
<g>
</g>
<g>
</g>
<g>
</g>
<g>
</g>
<g>
</g>
<g>
</g>
<g>
</g>
<g>
</g>
<g>
</g>
<g>
</g>
</svg>
