<svg id="Capa_1" enable-background="new 0 0 512 512" height="512" viewBox="0 0 512 512" width="512" xmlns="http://www.w3.org/2000/svg"><g><path d="m292.398 133.679v62.35h-72.796v-62.35c0-39.615 10.014-88.939 21.566-123.057 4.791-14.163 24.873-14.163 29.664 0 11.552 34.119 21.566 83.442 21.566 123.057z" fill="#aad880"/><path d="m292.398 153.761v42.269h-69.7l-3.096-1.232v-61.118c0-39.615 10.014-88.939 21.566-123.057 4.791-14.163 24.873-14.163 29.664 0-18.828 18.828-47.186 126.91 21.566 143.138z" fill="#9bd069"/><g><path d="m406.241 46.499c-15.069 94.457-68.857 180.784-68.857 180.784l.6 133.829-80.546-33.465c-8.814-50.809-15.522-86.19-13.605-114.275 2.201-32.033 15.638-54.568 49.998-79.693 11.109-8.129 25.283-22.398 39.878-38.678.021-.021.032-.042.053-.063 8.266-9.203 16.659-19.06 24.715-28.8 8.635-10.446 16.88-20.766 24.146-30.032 8.496-10.857 25.787-3.223 23.618 10.393z" fill="#8bc852"/><path d="m337.984 361.112-80.546-33.465c-8.814-50.809-15.522-86.19-13.605-114.275 2.201-32.033 15.638-54.568 49.998-79.693 11.109-8.129 25.283-22.398 39.878-38.678-29.422 37.762-59.17 106.04 3.675 132.281z" fill="#7dbe3b"/><path d="m463.041 137.017c-5.139 75.207-33.371 126.742-56.6 157.08h-.011c-17.396 22.714-31.981 33.549-31.981 33.549l-75.818 6.529c-4.833-6.392-8.656-12.794-11.478-19.165-17.059-38.467 1.695-76.081 48.776-105.64 14.342-8.993 36.719-27.495 58.769-46.807 15.111-13.226 30.064-26.821 42.163-37.993 10.353-9.55 27.138-1.6 26.18 12.447z" fill="#aad880"/><path d="m406.43 294.098c-17.396 22.714-31.981 33.549-31.981 33.549l-75.818 6.529c-4.833-6.392-8.656-12.794-11.478-19.165-17.059-38.467 1.695-76.081 48.776-105.64-30.221 23.914-10.635 91.319 70.501 84.727z" fill="#9bd069"/><path d="m254.563 327.647-79.946-100.364s-53.789-86.327-68.857-180.784c-2.169-13.616 15.121-21.25 23.619-10.393 7.266 9.267 15.511 19.586 24.146 30.032 22.303 26.979 47.228 54.8 64.646 67.541 34.36 25.125 47.797 47.66 49.998 79.693 1.915 28.085-4.793 63.467-13.606 114.275z" fill="#8bc852"/><path d="m265.001 343.069-77.969 10.455-12.416-126.242s-53.789-86.327-68.857-180.784c-2.169-13.616 15.121-21.25 23.619-10.393 7.266 9.267 15.511 19.586 24.146 30.032 3.507 58.096 21.787 150.667 113.022 147.277.548-.021 1.085-.032 1.622-.042 1.916 28.085 5.647 78.889-3.167 129.697z" fill="#7dbe3b"/><path d="m224.846 315.011c-2.822 6.371-6.644 12.773-11.478 19.165l-75.818-6.529s-79.609-59.128-88.591-190.63c-.959-14.047 15.827-21.997 26.178-12.446 12.099 11.173 27.052 24.767 42.163 37.993 22.05 19.313 44.427 37.814 58.77 46.807 47.081 29.559 65.835 67.173 48.776 105.64z" fill="#aad880"/><path d="m224.846 315.011c-2.822 6.371-6.644 12.773-11.478 19.165l-75.818-6.529s-79.609-59.128-88.591-190.63c-.959-14.047 15.827-21.997 26.178-12.446 12.099 11.173 27.052 24.767 42.163 37.993l-3.896 5.718c-9.899 34.897-3.264 142.98 111.442 146.729z" fill="#9bd069"/></g><g><path d="m394.662 426.773c-1.452 17.707-5.284 41.656-14.946 64.647-5.244 12.484-17.501 20.58-31.047 20.58h-185.339c-13.545 0-25.803-8.096-31.046-20.581-9.662-22.991-13.494-46.94-14.946-64.647-1.339-16.368-.649-27.4-.649-27.4h278.621c.001.001.691 11.033-.648 27.401z" fill="#eab14d"/><path d="m215.709 512h-52.368c-13.545 0-25.803-8.096-31.056-20.581-18.593-44.241-15.595-92.046-15.595-92.046h78.748s-1.308 47.805 6.778 92.046c2.276 12.485 7.611 20.581 13.493 20.581z" fill="#e49542"/><path d="m394.662 426.773c-92.438 2.132-184.886 2.132-277.324 0-1.339-16.368-.649-27.4-.649-27.4l139.311-38.261 139.311 38.261s.69 11.032-.649 27.4z" fill="#e49542"/><path d="m395.971 322.381c-93.314-2.172-186.628-2.172-279.942 0-12.652.295-23.563 9.234-26.098 21.634-2.33 11.399-2.33 22.797 0 34.196 2.535 12.399 13.445 21.339 26.098 21.634 2.059.026 34.642-7.109 34.642-7.109s35.2 7.611 40.434 8.388c68.289.737 136.577.311 204.866-1.279 12.652-.295 23.563-9.234 26.098-21.634 2.33-11.399 2.33-22.797 0-34.196-2.535-12.4-13.446-21.339-26.098-21.634z" fill="#eab14d"/><path d="m194.89 401.165c-26.287-.268-52.574-.7-78.862-1.318-12.649-.299-23.558-9.24-26.091-21.631-2.338-11.403-2.338-22.806 0-34.198 2.534-12.402 13.442-21.343 26.091-21.642 26.256-.608 52.523-1.04 78.789-1.308-11.64 1.73-21.25 10.496-23.65 22.239-2.431 11.866-2.431 23.743 0 35.62 2.401 11.773 12.053 20.549 23.723 22.238z" fill="#e49542"/></g></g></svg>