<?xml version="1.0" encoding="iso-8859-1"?>
<!-- Generator: Adobe Illustrator 21.0.0, SVG Export Plug-In . SVG Version: 6.00 Build 0)  -->
<svg version="1.1" id="Capa_1" xmlns="http://www.w3.org/2000/svg" xmlns:xlink="http://www.w3.org/1999/xlink" x="0px" y="0px"
	 viewBox="0 0 512 512" style="enable-background:new 0 0 512 512;" xml:space="preserve">
<polygon style="fill:#A8EBFA;" points="91,211 256,421 240.026,292.274 181,211 144.324,181 "/>
<polygon style="fill:#76E2F8;" points="331,211 271.624,293.254 256,421 421,211 360.999,181 "/>
<path style="fill:#00C0F1;" d="M365.453,127.68c-1.39-2.087-3.257-3.757-5.402-4.905l-16.395,19.789L331,211h90L365.453,127.68z"/>
<g>
	<path style="fill:#25D9F8;" d="M352.973,121H256l8.396,46.075L331,211l29.052-88.226C357.906,121.626,355.481,121,352.973,121z"/>
	<path style="fill:#25D9F8;" d="M91,211h90l16.648-40.552l-45.697-47.674c-2.146,1.148-4.012,2.818-5.403,4.905L91,211z"/>
</g>
<polygon style="fill:#76E2F8;" points="331,211 256,421 181,211 256,181 "/>
<polygon style="fill:#25D9F8;" points="331,211 256,421 256,181 "/>
<path style="fill:#76E2F8;" d="M75.692,416.298c-5.859-5.859-5.859-15.352,0-21.211l21.211-21.211
	c5.859-5.859,15.352-5.859,21.211,0s5.859,15.352,0,21.211l-21.211,21.211C91.044,422.157,81.552,422.157,75.692,416.298z"/>
<g>
	<path style="fill:#25D9F8;" d="M408.886,113.104c-5.859-5.859-5.859-15.352,0-21.211l21.211-21.211
		c5.859-5.859,15.352-5.859,21.211,0s5.859,15.352,0,21.211l-21.211,21.211C424.237,118.964,414.745,118.964,408.886,113.104z"/>
	<path style="fill:#25D9F8;" d="M415.097,416.298l-21.211-21.211c-5.859-5.859-5.859-15.352,0-21.211s15.352-5.859,21.211,0
		l21.211,21.211c5.859,5.859,5.859,15.352,0,21.211C430.448,422.157,420.956,422.157,415.097,416.298z"/>
</g>
<g>
	<path style="fill:#76E2F8;" d="M81.903,113.104l-21.211-21.21c-5.859-5.859-5.859-15.352,0-21.211s15.352-5.859,21.211,0
		l21.211,21.211c5.859,5.859,5.859,15.352,0,21.211S87.763,118.964,81.903,113.104z"/>
	<path style="fill:#76E2F8;" d="M271,15v31c0,8.399-6.599,15-15,15s-15-6.601-15-15V15c0-8.401,6.599-15,15-15S271,6.599,271,15z"/>
	<path style="fill:#76E2F8;" d="M271,466v31c0,8.399-6.599,15-15,15s-15-6.601-15-15v-31c0-8.401,6.599-15,15-15
		S271,457.599,271,466z"/>
	<path style="fill:#76E2F8;" d="M46,271H15c-8.284,0-15-6.716-15-15l0,0c0-8.284,6.716-15,15-15h31c8.284,0,15,6.716,15,15l0,0
		C61,264.284,54.284,271,46,271z"/>
</g>
<path style="fill:#25D9F8;" d="M497,271h-31c-8.284,0-15-6.716-15-15l0,0c0-8.284,6.716-15,15-15h31c8.284,0,15,6.716,15,15l0,0
	C512,264.284,505.284,271,497,271z"/>
<path style="fill:#76E2F8;" d="M256,121h-96.973c-2.507,0-4.933,0.626-7.077,1.774L181,211l72.61-51.132L256,121z"/>
<g>
	<path style="fill:#25D9F8;" d="M256,61V0c8.401,0,15,6.599,15,15v31C271,54.399,264.401,61,256,61z"/>
	<path style="fill:#25D9F8;" d="M271,466v31c0,8.399-6.599,15-15,15v-61C264.401,451,271,457.599,271,466z"/>
</g>
<polygon style="fill:#A8EBFA;" points="331,211 181,211 256,121 "/>
<polygon style="fill:#76E2F8;" points="331,211 256,211 256,121 "/>
<g>
</g>
<g>
</g>
<g>
</g>
<g>
</g>
<g>
</g>
<g>
</g>
<g>
</g>
<g>
</g>
<g>
</g>
<g>
</g>
<g>
</g>
<g>
</g>
<g>
</g>
<g>
</g>
<g>
</g>
</svg>
