<svg id="Capa_1" enable-background="new 0 0 483.254 483.254" height="512" viewBox="0 0 483.254 483.254" width="512" xmlns="http://www.w3.org/2000/svg"><g><g id="icon_44_"><path d="m352.198 418.952h-221.142c-3.968-52.031-3.968-104.29 0-156.321v-206.697h221.142v206.697c3.444 52.05 3.444 104.271 0 156.321z" fill="#eeefee"/><path d="m241.627 321.677c-18.152 0-32.867 14.715-32.867 32.867v70.302h65.734v-70.302c0-18.152-14.715-32.867-32.867-32.867z" fill="#62667c"/><path d="m149.461 143.326h45.131v45.131h-45.131z" fill="#69b0ee"/><g fill="#eeefee" opacity=".3"><path d="m194.592 143.326v2.817l-35.495 42.314h-9.636v-.618l37.411-44.513z"/><path d="m194.592 152.514v5.97l-25.129 29.973h-5.068z"/></g><path d="m219.409 143.326h45.131v45.131h-45.131z" fill="#69b0ee"/><g fill="#eeefee" opacity=".3"><path d="m264.541 143.326v2.817l-35.496 42.314h-9.636v-.618l37.411-44.513z"/><path d="m264.541 152.514v5.97l-25.13 29.973h-5.068z"/></g><path d="m289.357 143.326h45.131v45.131h-45.131z" fill="#69b0ee"/><g fill="#eeefee" opacity=".3"><path d="m334.489 143.326v2.817l-35.496 42.314h-9.636v-.618l37.411-44.513z"/><path d="m334.489 152.514v5.97l-25.13 29.973h-5.074z"/></g><path d="m149.461 78.788h45.131v45.131h-45.131z" fill="#69b0ee"/><g fill="#eeefee" opacity=".3"><path d="m194.592 78.788v2.817l-35.495 42.314h-9.636v-.618l37.411-44.513z"/><path d="m194.592 87.976v5.97l-25.129 29.973h-5.068z"/></g><path d="m219.409 78.788h45.131v45.131h-45.131z" fill="#69b0ee"/><g fill="#eeefee" opacity=".3"><path d="m264.541 78.788v2.817l-35.496 42.314h-9.636v-.618l37.411-44.513z"/><path d="m264.541 87.976v5.97l-25.13 29.973h-5.068z"/></g><path d="m289.357 78.788h45.131v45.131h-45.131z" fill="#69b0ee"/><g fill="#eeefee" opacity=".3"><path d="m334.489 78.788v2.817l-35.496 42.314h-9.636v-.618l37.411-44.513z"/><path d="m334.489 87.976v5.97l-25.13 29.973h-5.074z"/></g><path d="m149.461 207.87h45.131v45.131h-45.131z" fill="#69b0ee"/><g fill="#eeefee" opacity=".3"><path d="m194.592 207.87v2.817l-35.495 42.308h-9.636v-.618l37.411-44.507z"/><path d="m194.592 217.052v5.97l-25.129 29.973h-5.068z"/></g><path d="m219.409 207.87h45.131v45.131h-45.131z" fill="#69b0ee"/><g fill="#eeefee" opacity=".3"><path d="m264.541 207.87v2.817l-35.496 42.308h-9.636v-.618l37.411-44.507z"/><path d="m264.541 217.052v5.97l-25.13 29.973h-5.068z"/></g><path d="m289.357 207.87h45.131v45.131h-45.131z" fill="#69b0ee"/><g fill="#eeefee" opacity=".3"><path d="m334.489 207.87v2.817l-35.496 42.308h-9.636v-.618l37.411-44.507z"/><path d="m334.489 217.052v5.97l-25.13 29.973h-5.074z"/></g><path d="m149.461 272.408h45.131v45.131h-45.131z" fill="#69b0ee"/><g fill="#eeefee" opacity=".3"><path d="m194.592 272.408v2.817l-35.495 42.309h-9.636v-.619l37.411-44.507z"/><path d="m194.592 281.59v5.97l-25.129 29.974h-5.068z"/></g><path d="m289.357 272.408h45.131v45.131h-45.131z" fill="#69b0ee"/><g fill="#eeefee" opacity=".3"><path d="m334.489 272.408v2.817l-35.496 42.309h-9.636v-.619l37.411-44.507z"/><path d="m334.489 281.59v5.97l-25.13 29.974h-5.074z"/></g><path d="m15.323 262.631h115.734v156.321h-115.734z" fill="#dbd8dd"/><path d="m34.081 325.454h30.675v30.675h-30.675z" fill="#69b0ee"/><g fill="#eeefee" opacity=".3"><path d="m64.756 325.454v1.916l-24.127 28.759h-6.548v-.424l25.43-30.251z"/><path d="m64.756 331.695v4.061l-17.079 20.373h-3.447z"/></g><path d="m81.623 325.454h30.675v30.675h-30.675z" fill="#69b0ee"/><g fill="#eeefee" opacity=".3"><path d="m112.298 325.454v1.916l-24.128 28.759h-6.547v-.424l25.43-30.251z"/><path d="m112.298 331.695v4.061l-17.079 20.373h-3.448z"/></g><path d="m34.081 281.59h30.675v30.675h-30.675z" fill="#69b0ee"/><g fill="#eeefee" opacity=".3"><path d="m64.756 281.59v1.915l-24.127 28.76h-6.548v-.424l25.43-30.251z"/><path d="m64.756 287.831v4.061l-17.079 20.373h-3.447z"/></g><path d="m81.623 281.59h30.675v30.675h-30.675z" fill="#69b0ee"/><g fill="#eeefee" opacity=".3"><path d="m112.298 281.59v1.915l-24.128 28.76h-6.547v-.424l25.43-30.251z"/><path d="m112.298 287.831v4.061l-17.079 20.373h-3.448z"/></g><path d="m34.081 369.318h30.675v30.675h-30.675z" fill="#69b0ee"/><g fill="#eeefee" opacity=".3"><path d="m64.756 369.318v1.916l-24.127 28.759h-6.548v-.418l25.43-30.257z"/><path d="m64.756 375.565v4.055l-17.079 20.373h-3.447z"/></g><path d="m81.623 369.318h30.675v30.675h-30.675z" fill="#69b0ee"/><g fill="#eeefee" opacity=".3"><path d="m112.298 369.318v1.916l-24.128 28.759h-6.547v-.418l25.43-30.257z"/><path d="m112.298 375.565v4.055l-17.079 20.373h-3.448z"/></g><path d="m352.198 262.631h115.734v156.321h-115.734z" fill="#dbd8dd"/><path d="m370.957 325.454h30.675v30.675h-30.675z" fill="#69b0ee"/><g fill="#eeefee" opacity=".3"><path d="m401.632 325.454v1.916l-24.128 28.759h-6.547v-.424l25.43-30.251z"/><path d="m401.632 331.695v4.061l-17.079 20.373h-3.448z"/></g><path d="m418.498 325.454h30.675v30.675h-30.675z" fill="#69b0ee"/><g fill="#eeefee" opacity=".3"><path d="m449.173 325.454v1.916l-24.127 28.759h-6.548v-.424l25.43-30.251z"/><path d="m449.173 331.695v4.061l-17.079 20.373h-3.447z"/></g><path d="m370.957 281.59h30.675v30.675h-30.675z" fill="#69b0ee"/><g fill="#eeefee" opacity=".3"><path d="m401.632 281.59v1.915l-24.128 28.76h-6.547v-.424l25.43-30.251z"/><path d="m401.632 287.831v4.061l-17.079 20.373h-3.448z"/></g><path d="m418.498 281.59h30.675v30.675h-30.675z" fill="#69b0ee"/><g fill="#eeefee" opacity=".3"><path d="m449.173 281.59v1.915l-24.127 28.76h-6.548v-.424l25.43-30.251z"/><path d="m449.173 287.831v4.061l-17.079 20.373h-3.447z"/></g><path d="m370.957 369.318h30.675v30.675h-30.675z" fill="#69b0ee"/><g fill="#eeefee" opacity=".3"><path d="m401.632 369.318v1.916l-24.128 28.759h-6.547v-.418l25.43-30.257z"/><path d="m401.632 375.565v4.055l-17.079 20.373h-3.448z"/></g><path d="m418.498 369.318h30.675v30.675h-30.675z" fill="#69b0ee"/><g fill="#eeefee" opacity=".3"><path d="m449.173 369.318v1.916l-24.127 28.759h-6.548v-.418l25.43-30.257z"/><path d="m449.173 375.565v4.055l-17.079 20.373h-3.447z"/></g><path d="m123.024 47.088h236.818c1.653 0 2.994 1.34 2.994 2.994v11.298c0 1.653-1.34 2.994-2.994 2.994h-236.818c-1.653 0-2.994-1.34-2.994-2.994v-11.298c0-1.654 1.34-2.994 2.994-2.994z" fill="#dbd8dd"/><path d="m131.056 248.245h-121.939c-1.998 0-3.619 1.62-3.619 3.619v10.054c0 1.998 1.62 3.618 3.619 3.618h121.939z" fill="#bbbbcd"/><path d="m352.198 265.537h121.939c1.998 0 3.618-1.62 3.618-3.618v-10.054c0-1.998-1.62-3.619-3.618-3.619h-121.939z" fill="#bbbbcd"/><path d="m0 418.952h483.254v17.214h-483.254z" fill="#575b6d"/></g></g></svg>