<svg id="Capa_1" enable-background="new 0 0 508.853 508.853" height="512" viewBox="0 0 508.853 508.853" width="512" xmlns="http://www.w3.org/2000/svg"><g><g fill="#eeefee"><path d="m456.395 346.688c-4.93-5.007-5.263-12.935-.77-18.338 34.753-43.166 34.753-104.708 0-147.873-4.489-5.405-4.153-13.331.775-18.338 5.229-5.314 13.775-5.383 19.089-.154.296.291.578.596.846.913 43.357 53.309 43.357 129.726 0 183.035-4.809 5.696-13.326 6.415-19.022 1.606-.319-.269-.625-.553-.918-.851z"/><path d="m417.632 307.936c-4.657-4.721-5.251-12.105-1.41-17.51 14.908-21.684 14.908-50.314 0-71.998-3.841-5.406-3.246-12.789 1.41-17.51 5.368-5.309 14.024-5.26 19.332.108.589.595 1.122 1.244 1.592 1.937 21.341 30.991 21.341 71.938 0 102.929-4.239 6.247-12.74 7.876-18.987 3.637-.693-.471-1.341-1.004-1.937-1.593z"/><path d="m52.453 346.688c-5.228 5.315-13.774 5.386-19.089.158-.296-.291-.578-.596-.846-.913-43.357-53.309-43.357-129.726 0-183.035 4.809-5.696 13.326-6.415 19.022-1.606.317.268.622.55.913.846 4.929 5.007 5.264 12.933.775 18.338-34.753 43.166-34.753 104.708 0 147.873 4.491 5.405 4.156 13.333-.775 18.339z"/><path d="m81.427 254.426c-.031 12.855 3.875 25.41 11.193 35.978 3.841 5.406 3.246 12.789-1.41 17.51-5.369 5.308-14.024 5.259-19.332-.11-.587-.593-1.118-1.239-1.587-1.93-21.37-30.99-21.37-71.96 0-102.95 4.242-6.249 12.746-7.876 18.995-3.635.692.47 1.339 1.002 1.934 1.59 4.656 4.721 5.253 12.103 1.415 17.51-7.332 10.585-11.244 23.162-11.208 36.037z"/></g><path d="m141.977 41.075h224.893c11.645 0 21.085 9.44 21.085 21.085v384.532c0 11.645-9.44 21.085-21.085 21.085h-224.893c-11.645 0-21.085-9.44-21.085-21.085v-384.532c0-11.645 9.44-21.085 21.085-21.085z" fill="#575b6d"/><path d="m136.956 78.224h234.936v328.312h-234.936z" fill="#69b0ee"/><circle cx="254.424" cy="436.353" fill="#828a9e" r="14.888"/><path d="m273.272 55.833h-37.696c-2.553 0-4.623 2.07-4.623 4.623s2.07 4.623 4.623 4.623h37.69c2.553 0 4.624-2.07 4.624-4.623s-2.07-4.623-4.624-4.623z" fill="#828a9e"/><path d="m176.04 406.536h-8.128l109.278-328.312h8.128z" fill="#eeefee" opacity=".5"/><path d="m237.168 406.536h-37.383l109.278-328.312h37.383z" fill="#eeefee" opacity=".5"/></g></svg>