<svg id="Capa_1" enable-background="new 0 0 497 497" height="512" viewBox="0 0 497 497" width="512" xmlns="http://www.w3.org/2000/svg"><g><path d="m497 129.5v288c0 22.09-17.91 40-40 40h-417c-22.09 0-40-17.91-40-40v-288z" fill="#f5f5f5"/><path d="m497 149.5v-20l-248.5-10-248.5 10v20 268c0 22.09 17.91 40 40 40h20c-22.09 0-40-17.91-40-40v-268z" fill="#e6e6e6"/><path d="m497 79.5v50h-497v-50c0-22.09 17.91-40 40-40h417c22.09 0 40 17.91 40 40z" fill="#50758d"/><g fill="#2b597f"><path d="m474.5 84.5c0-12.406-10.093-22.5-22.5-22.5h-213c-6.385 0-12.152 2.677-16.251 6.963-4.767 4.757-2.529 2.519-7.286 7.286-4.286 4.099-6.963 9.866-6.963 16.251 0 12.406 10.093 22.5 22.5 22.5h213c6.385 0 12.152-2.677 16.251-6.963 4.767-4.757 2.529-2.519 7.286-7.286 4.286-4.099 6.963-9.866 6.963-16.251z"/><path d="m68.25 84.25c0-12.406-10.093-22.5-22.5-22.5-6.385 0-12.152 2.677-16.251 6.963-4.767 4.757-2.529 2.519-7.286 7.286-4.286 4.099-6.963 9.866-6.963 16.251 0 12.406 10.093 22.5 22.5 22.5 6.385 0 12.152-2.677 16.251-6.963 4.767-4.757 2.529-2.519 7.286-7.286 4.286-4.099 6.963-9.866 6.963-16.251z"/><path d="m132.5 84.25c0-12.406-10.093-22.5-22.5-22.5-6.385 0-12.152 2.677-16.251 6.963-4.767 4.757-2.529 2.519-7.286 7.286-4.286 4.099-6.963 9.866-6.963 16.251 0 12.406 10.093 22.5 22.5 22.5 6.385 0 12.152-2.677 16.251-6.963 4.767-4.757 2.529-2.519 7.286-7.286 4.286-4.099 6.963-9.866 6.963-16.251z"/><path d="m196.5 84.25c0-12.406-10.093-22.5-22.5-22.5-6.385 0-12.152 2.677-16.251 6.963-4.767 4.757-2.529 2.519-7.286 7.286-4.286 4.099-6.963 9.866-6.963 16.251 0 12.406 10.093 22.5 22.5 22.5 6.385 0 12.152-2.677 16.251-6.963 4.767-4.757 2.529-2.519 7.286-7.286 4.286-4.099 6.963-9.866 6.963-16.251z"/></g><path d="m45.75 106.75c-12.407 0-22.5-10.094-22.5-22.5s10.093-22.5 22.5-22.5 22.5 10.094 22.5 22.5-10.093 22.5-22.5 22.5z" fill="#fd646f"/><path d="m110 107c-12.407 0-22.5-10.094-22.5-22.5s10.093-22.5 22.5-22.5 22.5 10.094 22.5 22.5-10.093 22.5-22.5 22.5z" fill="#ffc682"/><path d="m174 107c-12.407 0-22.5-10.094-22.5-22.5s10.093-22.5 22.5-22.5 22.5 10.094 22.5 22.5-10.093 22.5-22.5 22.5z" fill="#93ddb7"/><path d="m452 107h-213c-12.407 0-22.5-10.094-22.5-22.5s10.093-22.5 22.5-22.5h213c12.407 0 22.5 10.094 22.5 22.5s-10.093 22.5-22.5 22.5z" fill="#f5f5f5"/><g><g fill="#2b597f"><path d="m211.53 291.84h-27.37c-.67-4.95-1.05-9.95-1.15-15h28.52c4.14 0 7.5 3.36 7.5 7.5s-3.36 7.5-7.5 7.5z"/><path d="m214.53 251.84h-29.67c.87-5.07 2.03-10.09 3.47-15h26.2c4.14 0 7.5 3.36 7.5 7.5s-3.36 7.5-7.5 7.5z"/><path d="m228.03 324.34c0 4.14-3.36 7.5-7.5 7.5h-24.32c-1.4-2.88-2.7-5.82-3.89-8.82-.82-2.05-1.58-4.11-2.28-6.18h30.49c4.14 0 7.5 3.36 7.5 7.5z"/><path d="m243.03 204.34c0 4.14-3.36 7.5-7.5 7.5h-36.98c2.8-5.24 5.93-10.25 9.36-15h27.62c4.14 0 7.5 3.36 7.5 7.5z"/></g><g><path d="m235.532 211.841h-182c-4.143 0-7.5-3.357-7.5-7.5s3.357-7.5 7.5-7.5h182c4.143 0 7.5 3.357 7.5 7.5s-3.357 7.5-7.5 7.5z" fill="#50758d"/></g><g><path d="m214.532 251.841h-161c-4.143 0-7.5-3.357-7.5-7.5s3.357-7.5 7.5-7.5h161c4.143 0 7.5 3.357 7.5 7.5s-3.357 7.5-7.5 7.5z" fill="#50758d"/></g><g><path d="m211.532 291.841h-160c-4.143 0-7.5-3.357-7.5-7.5s3.357-7.5 7.5-7.5h160c4.143 0 7.5 3.357 7.5 7.5s-3.357 7.5-7.5 7.5z" fill="#50758d"/></g><g><path d="m220.532 331.841h-49.032c-4.143 0-7.5-3.357-7.5-7.5s3.357-7.5 7.5-7.5h49.032c4.143 0 7.5 3.357 7.5 7.5s-3.357 7.5-7.5 7.5z" fill="#50758d"/></g><path d="m243.03 204.34c0 4.14-3.36 7.5-7.5 7.5h-33.69c3.57-5.34 7.59-10.36 12-15h21.69c4.14 0 7.5 3.36 7.5 7.5z" fill="#2b597f"/><path d="m222.03 244.34c0 4.14-3.36 7.5-7.5 7.5h-29.32c1.03-5.14 2.41-10.14 4.11-14.99v-.01h25.21c4.14 0 7.5 3.36 7.5 7.5z" fill="#2b597f"/><path d="m219.03 284.34c0 4.14-3.36 7.5-7.5 7.5h-27.15c-.79-4.9-1.25-9.9-1.37-15h28.52c4.14 0 7.5 3.36 7.5 7.5z" fill="#2b597f"/><path d="m228.03 324.34c0 4.14-3.36 7.5-7.5 7.5h-21.61c-2.87-4.78-5.39-9.79-7.52-15h29.13c4.14 0 7.5 3.36 7.5 7.5z" fill="#2b597f"/><g><path d="m136.5 331.841h-82.968c-4.143 0-7.5-3.357-7.5-7.5s3.357-7.5 7.5-7.5h82.968c4.143 0 7.5 3.357 7.5 7.5s-3.357 7.5-7.5 7.5z" fill="#50758d"/></g><path d="m398.495 336.42 57.125 57.94c6.434 6.311 6.495 16.646.137 23.005-6.309 6.309-16.548 6.304-22.88-.011l-60.399-61.981z" fill="#50758d"/><path d="m424.96 363.27-22.68 22.68-29.8-30.58 26.01-18.95z" fill="#2b597f"/><path d="m315.252 161.88c-48.93 0-90.55 31.3-105.93 74.97-2.12 6.04-3.74 12.31-4.82 18.78-1 6.03-1.52 12.22-1.52 18.52 0 14.65 2.81 28.65 7.92 41.48 16.49 41.47 56.99 70.78 104.35 70.78 62 0 112.26-50.26 112.26-112.26s-50.26-112.27-112.26-112.27z" fill="#50758d"/><circle cx="315.247" cy="274.145" fill="#2edffc" r="79.815"/><path d="m376 325.9c-14.63 17.17-36.42 28.06-60.75 28.06-44.08 0-79.82-35.73-79.82-79.81 0-27.93 14.34-52.5 36.06-66.76-11.89 13.93-19.06 32-19.06 51.76 0 44.08 35.74 79.81 79.82 79.81 16.16 0 31.19-4.8 43.75-13.06z" fill="#27bdf3"/><path d="m351.433 230.147c-9.108-9.108-23.932-9.11-33.042 0-7.252 7.253-8.71 18.119-4.415 26.848l-40.055 40.055c-2.929 2.93-2.929 7.678 0 10.606l15.224 15.225c1.465 1.465 3.384 2.197 5.304 2.197 1.919 0 3.839-.732 5.303-2.196 2.93-2.929 2.93-7.678.001-10.606l-9.921-9.922 4.216-4.216 6.716 6.716c1.465 1.464 3.385 2.196 5.304 2.196s3.839-.732 5.304-2.196c2.929-2.93 2.929-7.678 0-10.607l-6.716-6.716 19.928-19.928c3.247 1.598 6.784 2.418 10.328 2.418 5.983 0 11.967-2.277 16.521-6.832 9.109-9.11 9.109-23.931 0-33.042zm-10.608 22.435c-3.259 3.261-8.566 3.263-11.827 0-3.262-3.261-3.262-8.566 0-11.827 1.63-1.631 3.771-2.446 5.913-2.446 2.143 0 4.284.815 5.914 2.446 3.262 3.261 3.262 8.566 0 11.827z" fill="#2b597f"/></g></g></svg>