<?xml version="1.0" encoding="iso-8859-1"?>
<!-- Generator: Adobe Illustrator 19.0.0, SVG Export Plug-In . SVG Version: 6.00 Build 0)  -->
<svg version="1.1" id="Capa_1" xmlns="http://www.w3.org/2000/svg" xmlns:xlink="http://www.w3.org/1999/xlink" x="0px" y="0px"
	 viewBox="0 0 512.006 512.006" style="enable-background:new 0 0 512.006 512.006;" xml:space="preserve">
<circle style="fill:#EBBA16;" cx="256.001" cy="256.002" r="102.398"/>
<g>
	<path style="fill:#DC691D;" d="M358.4,162.145c-2.185,0-4.369-0.836-6.033-2.5c-3.336-3.336-3.336-8.729,0-12.066l25.6-25.6
		c3.328-3.336,8.738-3.336,12.066,0c3.336,3.336,3.336,8.729,0,12.066l-25.6,25.6C362.769,161.309,360.584,162.145,358.4,162.145z"
		/>
	<path style="fill:#DC691D;" d="M153.603,162.145c-2.184,0-4.369-0.836-6.033-2.5l-25.6-25.6c-3.336-3.336-3.336-8.729,0-12.066
		c3.328-3.336,8.738-3.336,12.066,0l25.6,25.6c3.336,3.336,3.336,8.729,0,12.066C157.972,161.309,155.787,162.145,153.603,162.145z"
		/>
</g>
<g>
	<path style="fill:#ED8A19;" d="M28.259,361.336c-3.319,0-6.477-1.954-7.859-5.197c-1.843-4.335,0.179-9.344,4.514-11.196
		l102.091-43.383c4.343-1.852,9.344,0.179,11.196,4.514c1.843,4.335-0.179,9.344-4.514,11.196l-102.1,43.383
		C30.503,361.114,29.368,361.336,28.259,361.336z"/>
	<path style="fill:#ED8A19;" d="M352.793,492.303c-3.319,0-6.477-1.954-7.859-5.197l-43.383-102.091
		c-1.843-4.335,0.179-9.344,4.514-11.196c4.343-1.843,9.344,0.179,11.196,4.514l43.383,102.091
		c1.843,4.335-0.179,9.344-4.514,11.196C355.037,492.081,353.903,492.303,352.793,492.303z"/>
	<path style="fill:#ED8A19;" d="M204.811,136.546c-3.132,0-6.144-1.724-7.637-4.719L137.441,12.362
		c-2.108-4.215-0.401-9.344,3.814-11.452c4.207-2.125,9.344-0.401,11.452,3.814l59.732,119.465
		c2.108,4.215,0.401,9.344-3.814,11.452C207.396,136.256,206.091,136.546,204.811,136.546z"/>
	<path style="fill:#ED8A19;" d="M159.235,492.312c-1.109,0-2.244-0.222-3.336-0.683c-4.335-1.843-6.357-6.852-4.514-11.196
		l43.374-102.1c1.843-4.335,6.852-6.366,11.196-4.514c4.335,1.843,6.357,6.852,4.514,11.196l-43.374,102.1
		C165.712,490.357,162.554,492.312,159.235,492.312z"/>
	<path style="fill:#ED8A19;" d="M483.761,361.31c-1.109,0-2.244-0.222-3.336-0.683l-102.1-43.374
		c-4.335-1.843-6.357-6.852-4.514-11.196c1.843-4.343,6.844-6.357,11.196-4.514l102.1,43.374c4.335,1.843,6.357,6.852,4.514,11.196
		C490.237,359.364,487.08,361.31,483.761,361.31z"/>
	<path style="fill:#ED8A19;" d="M119.462,204.811c-1.195,0-2.415-0.247-3.567-0.785L4.963,152.827
		c-4.275-1.971-6.144-7.048-4.173-11.324c1.971-4.275,7.04-6.161,11.324-4.173l110.931,51.199c4.275,1.971,6.144,7.048,4.173,11.324
		C125.776,202.977,122.696,204.811,119.462,204.811z"/>
	<path style="fill:#ED8A19;" d="M307.192,136.546c-1.28,0-2.586-0.29-3.814-0.896c-4.215-2.108-5.922-7.236-3.814-11.452
		L359.296,4.734c2.108-4.224,7.245-5.931,11.452-3.814c4.215,2.108,5.922,7.236,3.814,11.452l-59.732,119.465
		C313.336,134.822,310.324,136.546,307.192,136.546z"/>
	<path style="fill:#ED8A19;" d="M392.541,204.811c-3.226,0-6.315-1.835-7.757-4.958c-1.971-4.275-0.102-9.352,4.173-11.324
		l110.931-51.199c4.275-1.988,9.344-0.102,11.324,4.173c1.98,4.275,0.102,9.352-4.173,11.324l-110.931,51.199
		C394.956,204.564,393.735,204.811,392.541,204.811z"/>
</g>
<path style="fill:#DC691D;" d="M256.001,512.006c-4.71,0-8.533-3.823-8.533-8.533v-59.732c0-4.71,3.823-8.533,8.533-8.533
	c4.71,0,8.533,3.823,8.533,8.533v59.732C264.534,508.183,260.712,512.006,256.001,512.006z"/>
<path style="fill:#ED8A19;" d="M256.001,418.141c-4.71,0-8.533-3.823-8.533-8.533v-17.066c0-4.71,3.823-8.533,8.533-8.533
	c4.71,0,8.533,3.823,8.533,8.533v17.066C264.534,414.318,260.712,418.141,256.001,418.141z"/>
<path style="fill:#DC691D;" d="M256.001,76.813c-4.71,0-8.533-3.823-8.533-8.533V8.548c0-4.71,3.823-8.533,8.533-8.533
	c4.71,0,8.533,3.823,8.533,8.533V68.28C264.534,72.991,260.712,76.813,256.001,76.813z"/>
<path style="fill:#ED8A19;" d="M256.001,128.013c-4.71,0-8.533-3.823-8.533-8.533v-17.066c0-4.71,3.823-8.533,8.533-8.533
	c4.71,0,8.533,3.823,8.533,8.533v17.066C264.534,124.19,260.712,128.013,256.001,128.013z"/>
<path style="fill:#DC691D;" d="M68.271,264.544H8.539c-4.71,0-8.533-3.823-8.533-8.533c0-4.71,3.823-8.533,8.533-8.533h59.732
	c4.71,0,8.533,3.823,8.533,8.533C76.804,260.721,72.981,264.544,68.271,264.544z"/>
<path style="fill:#ED8A19;" d="M119.47,264.544h-17.066c-4.71,0-8.533-3.823-8.533-8.533c0-4.71,3.823-8.533,8.533-8.533h17.066
	c4.71,0,8.533,3.823,8.533,8.533C128.003,260.721,124.181,264.544,119.47,264.544z"/>
<path style="fill:#DC691D;" d="M503.464,264.544h-59.732c-4.71,0-8.533-3.823-8.533-8.533c0-4.71,3.823-8.533,8.533-8.533h59.732
	c4.71,0,8.533,3.823,8.533,8.533C511.997,260.721,508.174,264.544,503.464,264.544z"/>
<path style="fill:#ED8A19;" d="M409.599,264.544h-17.066c-4.71,0-8.533-3.823-8.533-8.533c0-4.71,3.823-8.533,8.533-8.533h17.066
	c4.71,0,8.533,3.823,8.533,8.533C418.132,260.721,414.309,264.544,409.599,264.544z"/>
<g>
	<path style="fill:#DC691D;" d="M128.003,392.541c-2.184,0-4.369-0.836-6.033-2.5c-3.336-3.336-3.336-8.729,0-12.066l25.6-25.6
		c3.328-3.336,8.738-3.336,12.066,0c3.336,3.336,3.336,8.729,0,12.066l-25.6,25.6C132.372,391.705,130.188,392.541,128.003,392.541z
		"/>
	<path style="fill:#DC691D;" d="M383.999,392.541c-2.185,0-4.369-0.836-6.033-2.5l-25.6-25.6c-3.336-3.336-3.336-8.729,0-12.066
		c3.328-3.336,8.738-3.336,12.066,0l25.6,25.6c3.336,3.336,3.336,8.729,0,12.066C388.368,391.705,386.184,392.541,383.999,392.541z"
		/>
</g>
<path style="fill:#FCE197;" d="M187.736,264.544c-4.71,0-8.533-3.823-8.533-8.533c0-42.342,34.448-76.799,76.799-76.799
	c4.71,0,8.533,3.823,8.533,8.533c0,4.71-3.823,8.533-8.533,8.533c-32.938,0-59.732,26.794-59.732,59.732
	C196.269,260.721,192.446,264.544,187.736,264.544z"/>
<path style="fill:#BC9115;" d="M221.868,302.943c0,19.771,5.384,38.143,14.575,53.546c6.332,1.229,12.868,1.92,19.558,1.92
	c56.549,0,102.398-45.849,102.398-102.398c0-14.942-3.277-29.09-9.028-41.889c-11.528-5.914-24.337-9.31-37.904-9.31
	C261.983,204.811,221.868,248.749,221.868,302.943z"/>
<g>
</g>
<g>
</g>
<g>
</g>
<g>
</g>
<g>
</g>
<g>
</g>
<g>
</g>
<g>
</g>
<g>
</g>
<g>
</g>
<g>
</g>
<g>
</g>
<g>
</g>
<g>
</g>
<g>
</g>
</svg>
