<svg id="Layer_1" enable-background="new 0 0 512 512" height="512" viewBox="0 0 512 512" width="512" xmlns="http://www.w3.org/2000/svg"><g clip-rule="evenodd" fill-rule="evenodd"><g><path d="m350.265 466.305c0 19.63-16.064 35.695-35.694 35.695h-212.536c-19.631 0-35.694-16.062-35.694-35.695v-420.611c0-19.632 16.063-35.694 35.694-35.694h212.536c19.632 0 35.694 16.064 35.694 35.694z" fill="#6a676b"/><path d="m334.266 466.305v-420.611c0-10.8-8.895-19.695-19.695-19.695h-212.536c-10.801 0-19.695 8.895-19.695 19.695v420.611c0 10.8 8.894 19.695 19.695 19.695h212.536c10.799 0 19.695-8.896 19.695-19.695z" fill="#92d2fe"/><g fill="#6a676b"><path d="m208.303 462.412c11.291 0 20.5-9.209 20.5-20.5s-9.209-20.5-20.5-20.5-20.501 9.209-20.501 20.5c.001 11.291 9.21 20.5 20.501 20.5z"/><path d="m150.049 46.157h116.509c4.406 0 8.149-2.719 9.51-6.91l9.503-29.247h-154.535l9.503 29.247c1.361 4.191 5.104 6.91 9.51 6.91z"/></g></g><g><path d="m439.459 164.476c12.424 30.741 6.176 67.266-18.747 92.189-24.246 24.246-59.472 30.814-89.672 19.713l-67.251 67.252c-13.887 13.887-36.613 13.888-50.501 0-13.887-13.887-13.887-36.613 0-50.501l67.251-67.252c-11.1-30.2-4.533-65.425 19.713-89.671 24.923-24.922 61.447-31.171 92.189-18.747-22.76 22.761-30.643 30.643-53.404 53.404l9.936 37.081 37.081 9.936c22.762-22.761 30.645-30.644 53.405-53.404z" fill="#ffd54f"/><path d="m416.962 248.414c-18.278 18.278-42.796 26.51-66.697 24.699-5.391-.409-10.75-1.328-16-2.758-2.349-.64-4.677-1.382-6.975-2.227l-67.251 67.252c-13.887 13.887-36.613 13.888-50.501 0-1.971-1.971-3.662-4.12-5.073-6.396 1.653 5.369 4.594 10.417 8.823 14.646 13.888 13.888 36.613 13.887 50.501 0l67.251-67.252c1.069.393 2.144.764 3.225 1.112 5.229 1.687 10.589 2.855 16 3.506 25.065 3.013 51.211-5.095 70.447-24.331 24.922-24.923 31.171-61.447 18.747-92.189-.235.235-.469.469-.701.701 8.011 28.661.747 60.695-21.796 83.237z" fill="#ffc107"/></g></g></svg>