<svg id="Capa_1" enable-background="new 0 0 511.999 511.999" height="512" viewBox="0 0 511.999 511.999" width="512" xmlns="http://www.w3.org/2000/svg"><g><path d="m477.175 395.995c-2.373-2.651-59.033-64.995-131.176-64.995s-128.804 62.344-131.177 64.995c-5.098 5.698-5.098 14.312 0 20.01 2.373 2.651 59.033 64.995 131.177 64.995s128.804-62.344 131.177-64.995c5.097-5.698 5.097-14.312-.001-20.01z" fill="#f0f7ff"/><path d="m477.175 416.005c5.098-5.698 5.098-14.312 0-20.01-2.373-2.651-59.033-64.995-131.176-64.995v150c72.143 0 128.803-62.344 131.176-64.995z" fill="#dfe7f4"/><path d="m329.519 189.496c-2.505-5.186-7.749-8.496-13.521-8.496h-95.728l79.146-159.291c2.329-4.644 2.08-10.166-.659-14.59s-7.558-7.119-12.758-7.119h-105-75c-6.885 0-12.876 4.688-14.546 11.367l-60 241c-1.128 4.482-.117 9.229 2.725 12.861 2.842 3.647 7.207 5.771 11.821 5.771h70.781l-55.327 222.368c-1.714 6.841 1.567 13.945 7.896 17.08 6.44 3.153 14.009 1.357 18.369-4.072l93.281-117.602 146.719-183.398c3.603-4.512 4.291-10.679 1.801-15.879z" fill="#fed843"/><path d="m329.519 189.496c-2.505-5.186-7.749-8.496-13.521-8.496h-95.728l79.146-159.291c2.329-4.644 2.08-10.166-.659-14.59s-7.558-7.119-12.758-7.119h-105v388.773l146.719-183.398c3.603-4.512 4.291-10.679 1.801-15.879z" fill="#fabe2c"/><circle cx="345.999" cy="376" fill="#ff641a" r="45"/><path d="m390.999 376c0-24.814-20.186-45-45-45v90c24.814 0 45-20.186 45-45z" fill="#f03800"/><circle cx="345.999" cy="376" fill="#3b4a51" r="15"/><path d="m360.999 376c0-8.276-6.724-15-15-15v30c8.276 0 15-6.724 15-15z" fill="#293939"/></g></svg>