<svg height="512" viewBox="0 0 46 58" width="512" xmlns="http://www.w3.org/2000/svg"><g id="Page-1" fill="none" fill-rule="evenodd"><g id="045---Mobile-Phone-Health"><rect id="Rectangle" fill="#90bae1" height="55" rx="3" width="34" x="6"/><path id="Path" d="m40 3v2s-33.14.97-33.98 45.26c-.01658959-.0856164-.02330015-.1728536-.02-.26v-47c0-1.65685425 1.34314575-3 3-3h4l2.86 3.05c.5663757.60708315 1.3597411.95123705 2.19.95h9.9c.8302589.00123705 1.6236243-.34291685 2.19-.95l2.86-3.05h4c1.6568542 0 3 1.34314575 3 3z" fill="#b0d3f0"/><path id="Path" d="m40 50v5c0 1.6568542-1.3431458 3-3 3h-28c-1.65685425 0-3-1.3431458-3-3v-5c0 1.6568542 1.34314575 3 3 3h28c1.6568542 0 3-1.3431458 3-3z" fill="#547580"/><path id="Path" d="m33 0-2.86 3.05c-.5663757.60708315-1.3597411.95123705-2.19.95h-9.9c-.8302589.00123705-1.6236243-.34291685-2.19-.95l-2.86-3.05z" fill="#547580"/><path id="Path" d="m23 13.837s3.533-6.837 11.5-6.837c6.808 0 11.5 6.02 11.5 13.152 0 9.7-9.051 16.176-22.324 28.232-.3842131.3461122-.9677869.3461122-1.352 0-13.273-12.056-22.324-18.533-22.324-28.232 0-7.132 4.692-13.152 11.5-13.152 7.967 0 11.5 6.837 11.5 6.837z" fill="#ff5364"/><path id="Shape" d="m25.613 37h-.1c-.6582513-.0364343-1.221653-.4847496-1.405-1.118l-4.355-14.7-3.653 12.534c-.1831647.6316208-.741449 1.0815091-1.3975702 1.1262192-.6561213.0447102-1.270275-.3252846-1.5374298-.9262192l-1.965-3.916h-2.2c-.55228475 0-1-.4477153-1-1s.44771525-1 1-1h2.412c.6333101-.044328 1.2253916.3166972 1.476.9l1.6 3.191 3.758-12.891c.1915213-.6689684.8041595-1.1292639 1.5-1.127.6945559-.0032398 1.3069243.4548118 1.5 1.122l4.436 14.972 3.46-7.906c.2398996-.5596327.7852341-.9269707 1.394-.939.6126333-.0359319 1.1846341.3074274 1.441.865l1.409 2.813h3.614c.5522847 0 1 .4477153 1 1s-.4477153 1-1 1h-3.942c-.1723366-.0001915-.3417403-.0446083-.492-.129-.383992-.185288-.7014393-.4845754-.909-.857l-1.049-2.1-3.565 8.146c-.2444041.5722744-.8077262.94257-1.43.94z" fill="#f3d55b" fill-rule="nonzero"/></g></g></svg>