<?xml version="1.0" encoding="iso-8859-1"?>
<!-- Generator: Adobe Illustrator 19.0.0, SVG Export Plug-In . SVG Version: 6.00 Build 0)  -->
<svg version="1.1" id="Capa_1" xmlns="http://www.w3.org/2000/svg" xmlns:xlink="http://www.w3.org/1999/xlink" x="0px" y="0px"
	 viewBox="0 0 512 512" style="enable-background:new 0 0 512 512;" xml:space="preserve">
<path style="fill:#C27B48;" d="M316.686,52.347c15.944-8.896,33.142-17.08,51.597-24.535L357.048,0
	c-26.765,10.812-51.273,23.239-73.403,37.186l-0.039-0.002l0.012,0.019c-25.688,16.194-48.171,34.438-67.232,54.609
	c-28.704,30.373-49.727,65.086-62.487,103.175c-21.789,65.043-11.878,117.165-11.445,119.353l29.426-5.82
	c-0.091-0.457-8.827-46.422,10.462-104.004c15.134-45.174,42.531-84.121,81.801-116.546c-5.698,21.042-11.489,48.105-13.436,77.263
	c-4.443,66.56,12.31,119.316,49.795,156.801l21.21-21.21c-32.528-32.528-62.055-97.305-23.433-222.484
	c8.118,10.761,18.94,22.114,32.409,29.859l14.953-26.003C332.999,74.926,323.148,62.45,316.686,52.347z"/>
<path style="fill:#11A892;" d="M465.913,178.139l-20.107,1.84c-0.78,0.07-19.227,1.73-40.564,1.83c-0.67,0-1.33,0.01-1.99,0.01
	c-39.794,0-53.682-5.639-60.681-9.909c-27.736-16.918-36.535-53.252-19.617-80.988c0.86-1.41,1.77-2.77,2.73-4.079
	c17.867-24.486,51.932-31.595,78.259-15.528c7.119,4.339,18.737,14.368,37.475,51.202c9.679,19.007,16.638,36.185,16.928,36.905
	L465.913,178.139z"/>
<path style="fill:#FF475A;" d="M261.656,404.216c0,59.531-48.253,107.784-107.784,107.784S46.087,463.747,46.087,404.216
	S94.34,296.432,153.871,296.432C213.403,296.432,261.656,344.684,261.656,404.216z"/>
<path style="fill:#E5104D;" d="M261.656,404.216c0,59.531-48.253,107.784-107.784,107.784V296.432
	C213.403,296.432,261.656,344.684,261.656,404.216z"/>
<path style="fill:#FF475A;" d="M426.299,404.216c0,59.531-48.253,107.784-107.784,107.784S210.73,463.747,210.73,404.216
	s48.253-107.784,107.784-107.784C378.045,296.432,426.299,344.684,426.299,404.216z"/>
<path style="fill:#E5104D;" d="M426.299,404.216c0,59.531-48.253,107.784-107.784,107.784V296.432
	C378.045,296.432,426.299,344.684,426.299,404.216z"/>
<path style="fill:#0F9887;" d="M465.913,178.139l-20.107,1.84c-0.78,0.07-19.227,1.73-40.564,1.83c-0.67,0-1.33,0.01-1.99,0.01
	c-39.794,0-53.682-5.639-60.681-9.909c-27.736-16.918-36.535-53.252-19.617-80.988c0.86-1.41,1.77-2.77,2.73-4.079L465.913,178.139z
	"/>
<g>
</g>
<g>
</g>
<g>
</g>
<g>
</g>
<g>
</g>
<g>
</g>
<g>
</g>
<g>
</g>
<g>
</g>
<g>
</g>
<g>
</g>
<g>
</g>
<g>
</g>
<g>
</g>
<g>
</g>
</svg>
