<svg id="Capa_1" enable-background="new 0 0 512 512" height="512" viewBox="0 0 512 512" width="512" xmlns="http://www.w3.org/2000/svg"><g><path d="m416.064 511.998h-96.219l-15.845-10.302h-91.782l-20.217 10.302h-96.062c-17.638 0-31.936-14.298-31.936-31.936v-32.064l30.909-10.302h328.814l24.274 10.302v32.064c0 17.638-14.298 31.936-31.936 31.936z" fill="#46778c"/><path d="m126.848 512h-30.906c-17.637 0-31.936-14.299-31.936-31.936v-32.069l30.905-10.302v42.371c.001 17.637 14.3 31.936 31.937 31.936z" fill="#3a6684"/><path d="m448 64.002-24.274 10.302h-328.814l-30.909-10.302v-32.064c0-17.638 14.298-31.936 31.936-31.936h96.063l16.096 10.302h95.903l15.845-10.302h96.219c17.637 0 31.935 14.298 31.935 31.936z" fill="#46778c"/><path d="m126.848 0c-17.637 0-31.936 14.299-31.936 31.936v42.371l-30.905-10.302v-32.069c0-17.637 14.299-31.936 31.935-31.936z" fill="#3a6684"/><path d="m74.3 88.25v335.54l-10.299 24.21h-32.06c-17.64 0-31.94-14.3-31.94-31.94v-96.18l10.3-17.52v-96.32l-10.3-14v-96.1c0-17.64 14.299-31.94 31.94-31.94h32.06z" fill="#46778c"/><path d="m52.541 447.99-.01.01h-20.59c-17.64 0-31.94-14.3-31.94-31.94v-96.18l10.3-17.52v-96.32l-10.3-14v-96.1c0-17.64 14.299-31.94 31.94-31.94h20.59l.01.01c-17.64 0-31.94 14.29-31.94 31.93v320.12c0 17.64 14.3 31.93 31.94 31.93z" fill="#3a6684"/><path d="m480.064 447.998h-32.064l-10.302-24.211v-335.533l10.302-24.252h32.064c17.638 0 31.936 14.298 31.936 31.936v96.102l-10.302 12.967v98.72l10.302 16.157v96.18c-.001 17.636-14.299 31.934-31.936 31.934z" fill="#46778c"/><path d="m192.002.002h127.844v74.301h-127.844z" fill="#9bd8f9"/><path d="m192.002 437.619h127.844v74.301h-127.844z" fill="#9bd8f9"/><path d="m-26.766 218.809h127.844v74.305h-127.844z" fill="#9bd8f9" transform="matrix(0 -1 1 0 -218.805 293.117)"/><path d="m.004 192.036h20.602v127.846h-20.602z" fill="#73c3f9"/><path d="m410.811 218.811h127.844v74.301h-127.844z" fill="#9bd8f9" transform="matrix(0 -1 1 0 218.771 730.694)"/><path d="m64.003 64.002h383.997v383.997h-383.997z" fill="#eaf6ff"/><path d="m64.007 64.005h30.905v383.99h-30.905z" fill="#d8ecfe"/><g><g><path d="m256.002 135.706c-4.267 0-7.726-3.459-7.726-7.726v-32c0-4.268 3.459-7.726 7.726-7.726s7.726 3.459 7.726 7.726v32c0 4.267-3.459 7.726-7.726 7.726z" fill="#365e7d"/></g></g><g><g><path d="m256.002 423.788c-4.267 0-7.726-3.459-7.726-7.726v-32c0-4.268 3.459-7.726 7.726-7.726s7.726 3.459 7.726 7.726v32c0 4.267-3.459 7.726-7.726 7.726z" fill="#365e7d"/></g></g><g><g><path d="m128.003 263.726h-32c-4.267 0-7.726-3.459-7.726-7.726s3.459-7.726 7.726-7.726h31.999c4.267 0 7.726 3.459 7.726 7.726s-3.458 7.726-7.725 7.726z" fill="#365e7d"/></g></g><g><g><path d="m416 263.726h-31.999c-4.267 0-7.726-3.459-7.726-7.726s3.459-7.726 7.726-7.726h31.999c4.267 0 7.726 3.459 7.726 7.726s-3.459 7.726-7.726 7.726z" fill="#365e7d"/></g></g><path d="m272.001 256h-32v-111.999c0-8.836 7.163-16 16-16 8.836 0 16 7.163 16 16z" fill="#2b4d66"/><path d="m256.002 272h79.999c8.836 0 16-7.163 16-16 0-8.836-7.163-16-16-16h-79.999z" fill="#2b4d66"/><circle cx="256.002" cy="256" fill="#f25a74" r="32"/><path d="m256.002 248.274c4.267 0 7.726 3.459 7.726 7.726 0 4.267-3.459 7.726-7.726 7.726-4.267 0-7.726-3.459-7.726-7.726-.001-4.267 3.458-7.726 7.726-7.726z" fill="#2b4d66"/><g fill="#73c3f9"><path d="m256.002 24.275c4.267 0 7.726 3.459 7.726 7.726 0 4.267-3.459 7.726-7.726 7.726-4.267 0-7.726-3.459-7.726-7.726-.001-4.266 3.458-7.726 7.726-7.726z"/><path d="m256.002 472.194c4.267 0 7.726 3.459 7.726 7.726 0 4.267-3.459 7.726-7.726 7.726-4.267 0-7.726-3.459-7.726-7.726-.001-4.267 3.458-7.726 7.726-7.726z"/><path d="m32.003 248.274c4.267 0 7.726 3.459 7.726 7.726 0 4.267-3.459 7.726-7.726 7.726-4.267 0-7.726-3.459-7.726-7.726 0-4.267 3.459-7.726 7.726-7.726z"/><path d="m479.844 248.274c4.267 0 7.726 3.459 7.726 7.726 0 4.267-3.459 7.726-7.726 7.726-4.267 0-7.726-3.459-7.726-7.726 0-4.267 3.459-7.726 7.726-7.726z"/></g></g></svg>