<svg height="512pt" viewBox="0 -144 512 512" width="512pt" xmlns="http://www.w3.org/2000/svg"><path d="m361.011719.871094c-5.632813-.582032-11.332031-.871094-17.113281-.871094h-175.796876c-5.78125 0-11.480468.289062-17.113281.871094-84.6875 8.597656-150.988281 80.320312-150.988281 167.230468v5.757813c0 27.539063 22.410156 49.949219 49.949219 49.949219h412.101562c27.539063 0 49.949219-22.410156 49.949219-49.949219v-5.757813c0-86.910156-66.300781-158.632812-150.988281-167.230468zm0 0" fill="#ff9f00"/><g fill="#ff7816"><path d="m361.011719.871094c-5.632813-.582032-11.332031-.871094-17.113281-.871094h-87.898438v223.808594h206.050781c27.539063 0 49.949219-22.410156 49.949219-49.949219v-5.757813c0-86.910156-66.300781-158.632812-150.988281-167.230468zm0 0"/><path d="m180.988281 0v78.039062c0 8.28125-6.707031 15-15 15-8.277343 0-15-6.71875-15-15v-77.167968c5.632813-.582032 11.332031-.871094 17.113281-.871094zm0 0"/><path d="m241 0v78.039062c0 8.28125-6.71875 15-15 15-8.289062 0-15-6.71875-15-15v-78.039062zm0 0"/></g><path d="m301 0v78.039062c0 8.28125-6.710938 15-15 15-8.28125 0-15-6.71875-15-15v-78.039062zm0 0" fill="#ff4b00"/><path d="m361.011719.871094v77.167968c0 8.28125-6.722657 15-15 15-8.292969 0-15-6.71875-15-15v-78.039062h12.886719c5.78125 0 11.480468.289062 17.113281.871094zm0 0" fill="#ff4b00"/></svg>