<svg height="512pt" viewBox="-57 0 512 512" width="512pt" xmlns="http://www.w3.org/2000/svg"><path d="m302.445312 438.03125h30v58.96875h-30zm0 0" fill="#f8bd2d"/><path d="m317.476562 438.03125h14.96875v58.96875h-14.96875zm0 0" fill="#ff8900"/><path d="m393.6875 372.6875c0 42.027344-34.183594 76.210938-76.214844 76.210938-42.027344 0-76.210937-34.183594-76.210937-76.210938 0-24.785156 27.644531-150.183594 50.851562-251.015625 2.777344-12.078125 12.972657-20.195313 25.359375-20.195313 12.390625 0 22.585938 8.117188 25.359375 20.195313 23.207031 100.832031 50.855469 226.230469 50.855469 251.015625zm0 0" fill="#00b44b"/><path d="m317.476562 448.898438v-347.421876c12.386719 0 22.582032 8.117188 25.359376 20.195313 23.203124 100.828125 50.851562 226.230469 50.851562 251.015625 0 42.027344-34.183594 76.210938-76.210938 76.210938zm0 0" fill="#007f40"/><path d="m66.476562 438.03125h30v58.96875h-30zm0 0" fill="#f8bd2d"/><path d="m81.503906 438.03125h14.96875v58.96875h-14.96875zm0 0" fill="#ff8900"/><path d="m157.71875 372.6875c0 42.027344-34.183594 76.210938-76.214844 76.210938-42.027344 0-76.210937-34.183594-76.210937-76.210938 0-24.785156 27.644531-150.183594 50.851562-251.015625 2.777344-12.078125 12.972657-20.195313 25.359375-20.195313 12.390625 0 22.585938 8.117188 25.359375 20.195313 23.207031 100.832031 50.855469 226.230469 50.855469 251.015625zm0 0" fill="#00b44b"/><path d="m81.503906 448.898438v-347.421876c12.390625 0 22.585938 8.117188 25.359375 20.195313 23.207031 100.828125 50.855469 226.230469 50.855469 251.015625 0 42.027344-34.183594 76.210938-76.214844 76.210938zm0 0" fill="#007f40"/><path d="m184.488281 420.800781h30v76.199219h-30zm0 0" fill="#f8bd2d"/><path d="m199.488281 420.800781h15v76.199219h-15zm0 0" fill="#ff8900"/><path d="m295.089844 340.199219c0 52.722656-42.878906 95.601562-95.601563 95.601562-52.71875 0-95.597656-42.878906-95.597656-95.601562 0-31.089844 34.679687-188.390625 63.789063-314.871094 3.480468-15.148437 16.269531-25.328125 31.808593-25.328125 15.542969 0 28.332031 10.179688 31.8125 25.328125 29.109375 126.480469 63.789063 283.78125 63.789063 314.871094zm0 0" fill="#60d64d"/><path d="m199.488281 435.800781v-435.800781c15.542969 0 28.332031 10.179688 31.8125 25.328125 29.109375 126.480469 63.789063 283.78125 63.789063 314.871094 0 52.722656-42.878906 95.601562-95.601563 95.601562zm0 0" fill="#00b563"/><path d="m0 482h398.980469v30h-398.980469zm0 0" fill="#c8fb78"/><path d="m199.488281 482h199.492188v30h-199.492188zm0 0" fill="#9ce78d"/></svg>