<svg id="Capa_1" enable-background="new 0 0 512 512" height="512" viewBox="0 0 512 512" width="512" xmlns="http://www.w3.org/2000/svg"><g><path d="m503.373 72.533c-6.719-5.631-16.784-4.649-22.725 1.797l-11.56 12.544v-54.748c0-17.74-14.381-32.121-32.121-32.121h-51.245c-10.073 0-18.239 8.166-18.239 18.239 0 10.073 8.166 18.239 18.239 18.239h39.857c3.883 0 7.032 3.148 7.032 7.032v43.36l-11.561-12.545c-5.941-6.446-16.006-7.428-22.725-1.797-7.173 6.012-7.8 16.72-1.53 23.524l41.826 45.386c2.051 2.225 4.612 3.969 7.512 4.834 6.134 1.828 12.547-.062 16.687-4.556l42.082-45.664c6.271-6.804 5.644-17.513-1.529-23.524z" fill="#fd9468"/><path d="m434.819 0h2.145c17.744 0 32.128 14.384 32.128 32.128v46.867c0 1.342-.81 2.566-2.066 3.041l-12.334 10.741c-2.023 2.195-5.689.763-5.689-2.222v-63.901c.001-11.101-5.626-20.884-14.184-26.654z" fill="#fe7d43"/><path d="m504.907 96.058-42.085 45.66c-4.146 4.493-10.549 6.383-16.687 4.555-2.9-.858-5.464-2.604-7.516-4.83l-1.236-1.348c2.012-.888 3.84-2.185 5.351-3.84l42.085-45.67c5.259-5.698 5.658-14.144 1.43-20.272 5.556-2.471 12.234-1.879 17.126 2.216 7.169 6.015 7.802 16.727 1.532 23.529z" fill="#fe7d43"/><g><g><path d="m114.792 483.398h-33.028c-4.23 0-7.659-3.429-7.659-7.659 0-4.231 3.429-7.659 7.659-7.659h33.028c4.23 0 7.659 3.429 7.659 7.659 0 4.231-3.429 7.659-7.659 7.659z" fill="#fe7d43"/></g><g><path d="m92.333 512h-33.028c-4.23 0-7.659-3.429-7.659-7.659s3.429-7.659 7.659-7.659h33.028c4.23 0 7.659 3.429 7.659 7.659s-3.429 7.659-7.659 7.659z" fill="#fe7d43"/></g></g><g><g><path d="m349.909 304.674h-338.453c-5.04 0-9.126-4.086-9.126-9.126v-218.598c0-5.04 4.086-9.126 9.126-9.126h22.634l155.43 57.326 143.159-57.326h17.231c5.04 0 9.126 4.086 9.126 9.126v218.599c-.001 5.04-4.087 9.125-9.127 9.125z" fill="#fee45a"/><path d="m359.038 76.949v218.596c0 5.041-4.084 9.125-9.125 9.125h-17.234c5.041 0 9.125-4.084 9.125-9.125v-218.596c0-5.041-4.084-9.125-9.125-9.125h17.234c5.04 0 9.125 4.084 9.125 9.125z" fill="#fed402"/><path d="m14.946 304.674 161.462-127.645c2.506-1.981 6.045-1.981 8.55 0l161.462 127.645z" fill="#fed402"/><path d="m346.422 304.671h-28.867l-151.306-119.613 10.159-8.031c2.508-1.982 6.041-1.982 8.548 0z" fill="#fac600"/><path d="m14.946 67.824 161.462 170.728c2.506 2.076 6.045 2.076 8.55 0l161.461-170.728z" fill="#fef0ae"/><path d="m346.415 67.824-161.457 170.725c-2.508 2.077-6.049 2.077-8.548 0l-7.376-7.792 154.089-162.933z" fill="#fee97d"/></g><g><path d="m500.541 508.19h-338.453c-5.04 0-9.126-4.086-9.126-9.126v-218.598c0-5.04 4.086-9.126 9.126-9.126h18.595l151.996 74.481 141.077-74.481h26.786c5.04 0 9.126 4.086 9.126 9.126v218.599c-.001 5.039-4.087 9.125-9.127 9.125z" fill="#fee45a"/><path d="m509.67 280.465v218.596c0 5.041-4.084 9.125-9.125 9.125h-17.235c5.041 0 9.125-4.084 9.125-9.125v-218.596c0-5.041-4.084-9.125-9.125-9.125h17.234c5.041 0 9.126 4.084 9.126 9.125z" fill="#fed402"/><path d="m165.578 508.19 161.462-127.645c2.506-1.981 6.045-1.981 8.55 0l161.461 127.645z" fill="#fed402"/><path d="m497.054 508.187h-28.867l-151.306-119.613 10.159-8.031c2.508-1.982 6.041-1.982 8.548 0z" fill="#fac600"/><path d="m165.578 271.34 161.462 170.728c2.506 2.076 6.045 2.076 8.55 0l161.461-170.728z" fill="#fef0ae"/><path d="m497.047 271.34-161.457 170.724c-2.508 2.077-6.049 2.077-8.548 0l-7.376-7.792 154.089-162.932z" fill="#fee97d"/></g></g></g></svg>