<?xml version="1.0" encoding="iso-8859-1"?>
<!-- Generator: Adobe Illustrator 19.0.0, SVG Export Plug-In . SVG Version: 6.00 Build 0)  -->
<svg version="1.1" id="Capa_1" xmlns="http://www.w3.org/2000/svg" xmlns:xlink="http://www.w3.org/1999/xlink" x="0px" y="0px"
	 viewBox="0 0 468.293 468.293" style="enable-background:new 0 0 468.293 468.293;" xml:space="preserve">
<path style="fill:#64798A;" d="M57.776,449.561V18.732C57.776,8.386,66.163,0,76.508,0h315.276c10.345,0,18.732,8.386,18.732,18.732
	v430.829c0,10.345-8.386,18.732-18.732,18.732H76.508C66.163,468.293,57.776,459.906,57.776,449.561z"/>
<g>
	<rect x="88.189" y="53.017" style="fill:#E1E6E9;" width="291.921" height="359.524"/>
	<path style="fill:#E1E6E9;" d="M276.718,32.589h-85.144c-3.359,0-6.082-2.723-6.082-6.082v0c0-3.359,2.723-6.082,6.082-6.082
		h85.144c3.359,0,6.082,2.723,6.082,6.082v0C282.8,29.866,280.077,32.589,276.718,32.589z"/>
	<circle style="fill:#E1E6E9;" cx="301.693" cy="26.505" r="6.082"/>
	<circle style="fill:#E1E6E9;" cx="166.587" cy="26.505" r="6.082"/>
	<path style="fill:#E1E6E9;" d="M256.575,454.389h-44.858c-4.407,0-7.98-3.573-7.98-7.98v-11.992c0-4.407,3.573-7.98,7.98-7.98
		h44.858c4.407,0,7.98,3.573,7.98,7.98v11.992C264.555,450.816,260.982,454.389,256.575,454.389z"/>
</g>
<path style="fill:#D5D6DB;" d="M256.783,426.438H211.51c-4.293,0-7.773,3.48-7.773,7.773v5.301c0-4.291,3.48-7.771,7.773-7.771
	h45.273c4.293,0,7.772,3.48,7.772,7.771v-5.301C264.555,429.918,261.075,426.438,256.783,426.438z"/>
<circle style="fill:#27A2DB;" cx="234.146" cy="167.917" r="43.252"/>
<path style="fill:#E56353;" d="M273.558,219.953c-10.973,8.332-24.602,13.34-39.411,13.34c-14.811,0-28.441-5.007-39.414-13.34
	c-32.006,14.893-54.245,47.248-54.245,84.874c0,51.726,187.317,51.726,187.317,0C327.805,267.2,305.565,234.846,273.558,219.953z"/>
<g>
</g>
<g>
</g>
<g>
</g>
<g>
</g>
<g>
</g>
<g>
</g>
<g>
</g>
<g>
</g>
<g>
</g>
<g>
</g>
<g>
</g>
<g>
</g>
<g>
</g>
<g>
</g>
<g>
</g>
</svg>
