<?xml version="1.0" encoding="iso-8859-1"?>
<!-- Generator: Adobe Illustrator 19.0.0, SVG Export Plug-In . SVG Version: 6.00 Build 0)  -->
<svg version="1.1" id="Capa_1" xmlns="http://www.w3.org/2000/svg" xmlns:xlink="http://www.w3.org/1999/xlink" x="0px" y="0px"
	 viewBox="0 0 512 512" style="enable-background:new 0 0 512 512;" xml:space="preserve">
<polyline style="fill:#ECB53A;" points="369.778,142.222 369.778,497.556 16,497.556 16,142.222 "/>
<rect x="199.11" y="142.22" style="fill:#E18933;" width="170.67" height="355.33"/>
<path style="fill:#DAE7FD;" d="M436.75,120.5H376.5c-8.284,0-15,6.716-15,15V482H30V135.5c0-8.284-6.716-15-15-15s-15,6.716-15,15
	V497c0,8.284,6.716,15,15,15h361.5c8.284,0,15-6.716,15-15v-45.25h45.25c41.493,0,75.25-33.756,75.25-75.248V195.75
	C512,154.257,478.243,120.5,436.75,120.5z M482,376.502c0,24.95-20.299,45.248-45.25,45.248H391.5V150.5h45.25
	c24.951,0,45.25,20.299,45.25,45.25V376.502z"/>
<path style="fill:#EEF5FF;" d="M199.111,482H30V135.5c0-8.284-6.716-15-15-15s-15,6.716-15,15V497c0,8.284,6.716,15,15,15h184.111
	V482z"/>
<path style="fill:#F6E27B;" d="M312.889,0H85.333C38.282,0,0,38.282,0,85.333v56.889c0,15.711,12.735,28.445,28.444,28.445h85.333
	V256c0,47.052,38.281,85.333,85.333,85.333s85.333-38.281,85.333-85.333v-85.333h85.333c15.709,0,28.444-12.733,28.444-28.445
	V85.333C398.222,38.282,359.941,0,312.889,0z"/>
<path style="fill:#ECB53A;" d="M312.889,0H199.111v341.333c47.052,0,85.333-38.281,85.333-85.333v-85.333h85.333
	c15.709,0,28.444-12.733,28.444-28.445V85.333C398.222,38.282,359.941,0,312.889,0z"/>
<g>
</g>
<g>
</g>
<g>
</g>
<g>
</g>
<g>
</g>
<g>
</g>
<g>
</g>
<g>
</g>
<g>
</g>
<g>
</g>
<g>
</g>
<g>
</g>
<g>
</g>
<g>
</g>
<g>
</g>
</svg>
