<?xml version="1.0" encoding="iso-8859-1"?>
<!-- Generator: Adobe Illustrator 19.0.0, SVG Export Plug-In . SVG Version: 6.00 Build 0)  -->
<svg xmlns="http://www.w3.org/2000/svg" xmlns:xlink="http://www.w3.org/1999/xlink" version="1.1" id="Layer_1" x="0px" y="0px" viewBox="0 0 512.001 512.001" style="enable-background:new 0 0 512.001 512.001;" xml:space="preserve">
<path style="fill:#FDDD85;" d="M260.363,150.437c0-62.313-50.249-112.889-112.437-113.418C85.693,36.49,34.238,86.879,33.527,149.11  c-0.627,54.885,37.736,100.912,89.111,112.13v52.023c0,1.721,0.865,3.326,2.303,4.274l16.242,10.693  c2.829,1.862,3.1,5.911,0.544,8.133l-17.33,15.076c-1.117,0.972-1.758,2.379-1.758,3.861v32.032c0,1.625,0.772,3.154,2.08,4.119  l15.444,11.384c2.608,1.922,2.795,5.755,0.386,7.922l-16.215,14.584c-1.079,0.97-1.695,2.353-1.695,3.804v60.641  c0,1.451,0.616,2.834,1.696,3.805l19.022,17.1c1.961,1.763,4.942,1.746,6.883-0.038l19.353-17.79  c1.054-0.969,1.653-2.335,1.653-3.767V261.24C222.206,250.113,260.363,204.735,260.363,150.437z"/>
<circle style="fill:#FDD042;" cx="146.94" cy="151.031" r="90.553"/>
<circle style="fill:#FFFFFF;" cx="146.94" cy="106.034" r="24.824"/>
<path style="fill:#74DBC9;" d="M337.179,72.624c-1.35-0.56-2.874-0.515-4.19,0.122l-33.465,16.21l-4.442,2.151l-33.465,16.21  c-1.315,0.637-2.295,1.806-2.692,3.212l-16.811,59.457c-0.341,1.206-0.227,2.494,0.319,3.622l81.068,167.358  c1.232,2.543,4.292,3.605,6.835,2.374l70.408-34.106l4.442-2.151l70.409-34.106c2.543-1.232,3.605-4.292,2.374-6.835L396.9,98.785  c-0.546-1.128-1.487-2.015-2.644-2.495L337.179,72.624z"/>
<path style="fill:#6DCCBA;" d="M475.585,272.978l-25.06,12.098l-83.303-171.963c-0.546-1.127-1.487-2.015-2.644-2.495L305.43,86.089  l27.555-13.345c1.315-0.637,2.84-0.681,4.19-0.121l57.076,23.669c1.157,0.48,2.098,1.368,2.644,2.495l81.069,167.352  C479.198,268.685,478.132,271.748,475.585,272.978z"/>
<path style="fill:#57565C;" d="M254.267,3.711c-38.618-11.528-80.185,4.453-101.076,38.866c-3.911,6.443-6.998,13.405-9.172,20.692  c-3.42,11.457-4.495,23.247-3.191,35.044c0.426,3.846,3.68,6.691,7.462,6.691c0.275,0,0.554-0.015,0.834-0.046  c4.127-0.456,7.101-4.171,6.646-8.296c-1.081-9.785-0.189-19.573,2.653-29.092c1.808-6.06,4.372-11.844,7.618-17.19  c17.344-28.57,51.86-41.837,83.926-32.263c38.873,11.605,61.058,52.67,49.454,91.544c-1.187,3.976-2.711,7.864-4.531,11.56  c-1.834,3.724-0.301,8.229,3.422,10.063c1.068,0.526,2.2,0.775,3.314,0.775c2.773,0,5.442-1.541,6.749-4.198  c2.189-4.446,4.023-9.122,5.449-13.9C327.8,67.143,301.083,17.686,254.267,3.711z"/>
<g>
</g>
<g>
</g>
<g>
</g>
<g>
</g>
<g>
</g>
<g>
</g>
<g>
</g>
<g>
</g>
<g>
</g>
<g>
</g>
<g>
</g>
<g>
</g>
<g>
</g>
<g>
</g>
<g>
</g>
</svg>
