<?xml version="1.0" encoding="iso-8859-1"?>
<!-- Generator: Adobe Illustrator 19.0.0, SVG Export Plug-In . SVG Version: 6.00 Build 0)  -->
<svg xmlns="http://www.w3.org/2000/svg" xmlns:xlink="http://www.w3.org/1999/xlink" version="1.1" id="Layer_1" x="0px" y="0px" viewBox="0 0 512 512" style="enable-background:new 0 0 512 512;" xml:space="preserve">
<rect x="72.348" y="89.043" style="fill:#79695A;" width="367.304" height="322.783"/>
<rect x="256" y="89.043" style="fill:#6C5B52;" width="183.652" height="322.783"/>
<rect x="105.739" y="89.043" style="fill:#DBE1F1;" width="300.522" height="322.783"/>
<rect x="256" y="89.043" style="fill:#D0D5E5;" width="150.261" height="322.783"/>
<path style="fill:#7CCC92;" d="M356.174,133.565h-66.783c-11.576,0-22.817,1.67-33.391,4.897  c-48.196,14.358-83.478,59.103-83.478,111.972v66.783c0,9.238,7.456,16.696,16.696,16.696H256c64.445,0,116.87-52.424,116.87-116.87  v-66.783C372.87,141.023,365.413,133.565,356.174,133.565z"/>
<path style="fill:#34B772;" d="M372.87,150.261v66.783c0,64.445-52.424,116.87-116.87,116.87v-195.45  c10.574-3.228,21.816-4.897,33.391-4.897h66.783C365.413,133.565,372.87,141.023,372.87,150.261z"/>
<path style="fill:#79695A;" d="M389.565,0h-267.13C94.816,0,72.348,22.468,72.348,50.087v50.087h367.304V50.087  C439.652,22.468,417.184,0,389.565,0z"/>
<path style="fill:#6C5B52;" d="M389.565,0H256v100.174h183.652V50.087C439.652,22.468,417.184,0,389.565,0z"/>
<path style="fill:#79695A;" d="M72.348,400.696v61.217c0,27.619,22.468,50.087,50.087,50.087h267.13  c27.619,0,50.087-22.468,50.087-50.087v-61.217H72.348z"/>
<path style="fill:#6C5B52;" d="M256,512h133.565c27.619,0,50.087-22.468,50.087-50.087v-61.217H256V512z"/>
<path style="fill:#DDDD47;" d="M301.191,228.842l-139.13,139.13c-6.568,6.567-17.03,6.567-23.598,0  c-6.567-6.456-6.567-17.141,0-23.597l139.13-139.13c6.568-6.567,17.03-6.567,23.598,0  C307.757,211.701,307.757,222.386,301.191,228.842z"/>
<path style="fill:#C7D100;" d="M301.191,228.842L256,274.031v-47.193l21.592-21.593c6.568-6.567,17.03-6.567,23.598,0  C307.757,211.701,307.757,222.386,301.191,228.842z"/>
<g>
</g>
<g>
</g>
<g>
</g>
<g>
</g>
<g>
</g>
<g>
</g>
<g>
</g>
<g>
</g>
<g>
</g>
<g>
</g>
<g>
</g>
<g>
</g>
<g>
</g>
<g>
</g>
<g>
</g>
</svg>
