<svg id="Capa_1" enable-background="new 0 0 512 512" height="512" viewBox="0 0 512 512" width="512" xmlns="http://www.w3.org/2000/svg"><g><path d="m420.87 256.753v209.8c0 3.87-3.14 7-7 7h-315.74c-3.86 0-7-3.13-7-7v-209.8l164.87-148.04z" fill="#ecf6fe"/><path d="m281.755 142.012-136.789 122.658c-1.481 1.328-2.327 3.223-2.327 5.212v203.673h-44.509c-3.866 0-7-3.134-7-7v-209.799l164.87-148.037 31.419 28.206z" fill="#dbebfc"/><path d="m477.682 306.145c-.001 0-.001 0 0 0-8.471.001-16.61-3.118-22.918-8.781l-198.764-178.476-198.764 178.475c-14.078 12.639-35.815 11.469-48.453-2.606-6.123-6.819-9.225-15.615-8.732-24.766.492-9.152 4.519-17.564 11.339-23.687l221.686-199.059c13.068-11.733 32.779-11.732 45.847 0l221.688 199.059c6.82 6.122 10.846 14.535 11.339 23.687.492 9.152-2.609 17.947-8.732 24.767-6.499 7.235-15.807 11.386-25.536 11.387z" fill="#d79b7a"/><path d="m281.755 49.79-218.852 196.517c-6.82 6.119-10.848 14.536-11.342 23.684-.494 9.107 2.586 17.873 8.664 24.683l-2.988 2.689c-14.083 12.64-35.819 11.466-48.449-2.606-6.13-6.82-9.23-15.618-8.736-24.766.495-9.148 4.523-17.565 11.342-23.684l221.684-199.062c13.063-11.734 32.78-11.734 45.843 0z" fill="#d08b61"/><g><g><path d="m266.65 395.133v78.42h-15.45v-78.42c0-4.27 3.46-7.73 7.73-7.73 4.26 0 7.72 3.46 7.72 7.73z" fill="#dbebfc"/></g></g><g><g><path d="m283.717 313.229c-4.267 0-7.726-3.459-7.726-7.726v-65.627c0-4.268 3.459-7.726 7.726-7.726s7.726 3.459 7.726 7.726v65.627c0 4.267-3.459 7.726-7.726 7.726z" fill="#dbebfc"/></g><g><path d="m234.13 313.229c-4.267 0-7.726-3.459-7.726-7.726v-65.627c0-4.268 3.459-7.726 7.726-7.726s7.726 3.459 7.726 7.726v65.627c0 4.267-3.459 7.726-7.726 7.726z" fill="#dbebfc"/></g></g><path d="m312.99 304.003v71.13c0 16.57-13.43 30-30 30h-48.13c-16.57 0-30-13.43-30-30v-71.13c0-3.87 3.13-7 7-7h94.13c3.87 0 7 3.13 7 7z" fill="#c6ea7c"/><path d="m266.67 405.133h-31.81c-16.57 0-30-13.43-30-30v-71.13c0-3.87 3.13-7 7-7h23.91v77.22c0 17.07 13.83 30.91 30.9 30.91z" fill="#b2e254"/></g></svg>