<svg id="Capa_1" enable-background="new 0 0 512.5 512.5" height="512" viewBox="0 0 512.5 512.5" width="512" xmlns="http://www.w3.org/2000/svg"><g><path clip-rule="evenodd" d="m8.838 167.802c16.895-7.2 60.208-22.734 82.263-16.384 27.241 7.795 36.822 30.813 30.189 53.915-6.604 23.075-26.93 37.532-54.171 29.708-21.941-6.293-50.09-42.407-61.088-57.488-3.599-4.932-2.58-7.426 2.807-9.751z" fill="#b3e59f" fill-rule="evenodd" stroke="#b3e59f" stroke-miterlimit="10"/><path clip-rule="evenodd" d="m64.653 151.105c9.949-1.502 19.332-1.757 26.447.312 27.241 7.795 36.822 30.813 30.189 53.915-6.519 22.734-26.307 37.078-52.896 30.076 13.578-4.195 23.358-15.392 27.581-30.076 7.23-25.256-5.668-47.905-31.321-54.227z" fill="#95d6a4" fill-rule="evenodd" stroke="#95d6a4" stroke-miterlimit="10"/><path d="m154.625 300.381c.964 4.054-1.559 8.135-5.612 9.099-4.082.964-8.136-1.531-9.128-5.612-.027-.142-7.426-29.991-.992-62.675-24.945-40.338-82.547-48.048-82.717-48.048-4.139-.595-7.029-4.422-6.463-8.561.567-4.139 4.394-7.03 8.561-6.463.17.028 54.709 7.286 85.862 44.533 6.69-17.688 18.567-34.725 38.978-46.886 3.6-2.155 8.249-.992 10.403 2.607 2.154 3.572.964 8.25-2.607 10.376-21.63 12.897-31.947 32.542-36.455 51.79-.057.652-.198 1.304-.425 1.928-6.406 29.65.567 57.77.595 57.912z" fill="#78c2a4" stroke="#78c2a4" stroke-miterlimit="10"/><g clip-rule="evenodd" fill-rule="evenodd"><path d="m141.926 295.93c-16.951-17.404-58.224-47.481-113.897 12.643-71.236 76.962 22.024 237.122 111.97 197.777 6.322-2.75 8.221-2.75 14.599.028 89.86 39.345 183.093-120.871 111.886-197.805-55.729-60.18-97.259-30.275-113.926-12.586-4.14 4.366-6.465 4.224-10.632-.057z" fill="#ee6161"/><path d="m241.112 488.151c47.821-42.095 72.284-128.894 25.37-179.578-10.347-11.169-20.211-19.248-29.509-24.86-11.793 19.276-22.253 39.147-29.056 60.833-12.02 38.297-9.071 78.379 10.686 113.53 6.295 11.139 13.864 21.174 22.509 30.075z" fill="#e94444"/><path d="m363.202 512.444c-89.01 0-158.289-73.759-131.132-160.302 14.286-45.497 47.14-82.036 56.552-105.507 25.059-62.505 13.861-152.393 74.58-154.349 60.748 1.956 49.523 91.844 74.609 154.349 9.411 23.472 42.237 60.011 56.523 105.507 27.187 86.543-42.095 160.302-131.132 160.302z" fill="#ffe07d"/><path d="m363.202 512.444c-4.252 0-8.475-.17-12.642-.51 82.773-6.604 144.314-77.415 118.461-159.791-14.287-45.497-47.141-82.036-56.552-105.507-23.16-57.743-15.365-138.872-61.909-152.421 3.826-1.106 8.022-1.758 12.642-1.928 60.748 1.956 49.523 91.844 74.609 154.349 9.411 23.472 42.237 60.011 56.523 105.507 27.187 86.542-42.095 160.301-131.132 160.301z" fill="#ffd064"/></g><path d="m370.176 96.566c-.964 4.082-5.046 6.605-9.128 5.642-4.081-.964-6.633-5.075-5.641-9.157.028-.142 13.691-56.013-24.011-78.464-3.6-2.155-4.762-6.804-2.607-10.404 2.154-3.571 6.803-4.762 10.374-2.608 47.368 28.234 31.07 94.793 31.013 94.991z" fill="#78c2a4" stroke="#78c2a4" stroke-miterlimit="10"/><path clip-rule="evenodd" d="m508.82 209.217c-4.933-24.945-22.054-100.32-50.344-124.301-33.393-28.347-71.208-20.949-95.275 7.37-24.039 28.347-25.201 66.871 8.192 95.218 28.348 24.066 105.395 28.857 130.82 29.48 5.898.142 7.855-1.474 6.607-7.767z" fill="#b3e59f" fill-rule="evenodd" stroke="#b3e59f" stroke-miterlimit="10"/><path clip-rule="evenodd" d="m508.82 209.217c-4.933-24.945-22.054-100.32-50.344-124.301-18.767-15.959-38.948-20.58-57.317-16.555 10.743 2.353 21.572 7.71 32.004 16.555 28.262 23.981 45.383 99.356 50.315 124.301.736 3.686.368 5.755-1.219 6.832 8.107.539 15.023.822 19.955.935 5.897.142 7.854-1.474 6.606-7.767z" fill="#95d6a4" fill-rule="evenodd" stroke="#95d6a4" stroke-miterlimit="10"/></g></svg>