<svg id="color" enable-background="new 0 0 24 24" height="512" viewBox="0 0 24 24" width="512" xmlns="http://www.w3.org/2000/svg"><g><g><circle cx="15" cy="10" fill="#fafafa" r="5"/></g></g><g><g><path d="m15 15c-2.757 0-5-2.243-5-5s2.243-5 5-5 5 2.243 5 5-2.243 5-5 5zm0-8.5c-1.93 0-3.5 1.57-3.5 3.5s1.57 3.5 3.5 3.5 3.5-1.57 3.5-3.5-1.57-3.5-3.5-3.5z" fill="#f44336"/></g></g><g><g><circle cx="15" cy="10" fill="#f44336" r="1.75"/></g></g><g><g><path d="m15 10.75c-.192 0-.384-.073-.53-.22-.293-.293-.293-.768 0-1.061l3-3c.293-.293.768-.293 1.061 0s.293.768 0 1.061l-3 3c-.147.147-.339.22-.531.22z" fill="#607d8b"/></g></g><g><g><path d="m20.75 7.5h-2.5c-.414 0-.75-.336-.75-.75v-2.5c0-.199.079-.39.22-.53l2.5-2.5c.215-.215.538-.278.817-.163.28.116.463.39.463.693v1.75h1.75c.303 0 .577.183.693.463s.052.603-.163.817l-2.5 2.5c-.14.141-.331.22-.53.22z" fill="#2196f3"/></g></g><g><g><path d="m14 3.58v-.58c0-.55-.45-1-1-1h-10c-.55 0-1 .45-1 1v16h12v-2.58c.32.05.66.08 1 .08s.68-.03 1-.08v4.58c0 1.65-1.35 3-3 3h-10c-1.65 0-3-1.35-3-3v-18c0-1.65 1.35-3 3-3h10c1.65 0 3 1.35 3 3v.59c-.32-.06-.66-.09-1-.09s-.68.03-1 .08z" fill="#607d8b"/></g></g><g><g><path d="m8.5 10c0 3.24 2.39 5.94 5.5 6.42v2.58h-12v-16c0-.55.45-1 1-1h10c.55 0 1 .45 1 1v.58c-3.11.48-5.5 3.18-5.5 6.42z" fill="#fafafa"/></g></g><g><g><path d="m8 0h-5c-1.65 0-3 1.35-3 3v18c0 1.65 1.35 3 3 3h5v-5h-6v-16c0-.55.45-1 1-1h5z" fill="#546d79"/></g></g><g><g><path d="m8 2h-5c-.55 0-1 .45-1 1v16h6z" fill="#dadada"/></g></g><g><g><path d="m15 6.5c-1.93 0-3.5 1.57-3.5 3.5 0 .965.393 1.84 1.026 2.474l1.236-1.236c-.316-.317-.512-.755-.512-1.238 0-.966.783-1.75 1.75-1.75.206 0 .404.036.588.101l1.298-1.298c-.544-.35-1.192-.553-1.886-.553z" fill="#dadada"/></g></g><g><g><path d="m15 5c-2.757 0-5 2.243-5 5 0 1.378.561 2.628 1.466 3.534l1.06-1.06c-.633-.634-1.026-1.509-1.026-2.474 0-1.93 1.57-3.5 3.5-3.5.694 0 1.342.203 1.886.553l.584-.583c.01-.01.02-.019.03-.029v-.77c-.736-.426-1.59-.671-2.5-.671z" fill="#d43a2f"/></g></g><g><g><path d="m15 8.25c-.967 0-1.75.784-1.75 1.75 0 .483.196.921.513 1.237l.707-.707c-.293-.293-.293-.768 0-1.061l1.118-1.118c-.184-.065-.382-.101-.588-.101z" fill="#d43a2f"/></g></g><g><g><path d="m17.5 6.441c-.01.009-.02.019-.03.029l-.583.583-1.298 1.298-1.119 1.119c-.293.293-.293.768 0 1.061l3.25-3.25c-.136-.136-.22-.323-.22-.53z" fill="#546d79"/></g></g><g><g><path d="m20.75 1c-.195 0-.387.076-.53.22l-2.5 2.5c-.141.14-.22.331-.22.53v1.421.77.309c0 .207.084.395.22.53l3.78-3.78v-1.75c0-.303-.183-.577-.463-.693-.093-.038-.19-.057-.287-.057z" fill="#1d83d4"/></g></g></svg>