<svg id="Capa_1" enable-background="new 0 0 512 512" height="512" viewBox="0 0 512 512" width="512" xmlns="http://www.w3.org/2000/svg"><g><g clip-rule="evenodd" fill-rule="evenodd"><path d="m220.113 258.219c-19.304 14.37-48.388 15.705-73.247 1.335-20.522-12.07-35.036-32.604-35.943-56.828-.34-8.975 4.45-10.82 12.019-13.973 20.297-8.521 42.86-5.453 61.711 5.254 24.859 14.37 38.21 40.27 35.46 64.212z" fill="#b3e59f"/><path d="m220.113 258.219c-13.152 9.769-30.784 13.518-48.586 10.393 6.576-1.306 12.784-3.634 18.34-6.957 3.742-2.215 5.528-4.175 5.585-8.576.283-22.437-12.728-45.725-35.802-59.072-7.653-4.345-15.902-7.44-24.378-9.003 16.781-3.237 34.271.426 49.38 9.003 24.86 14.37 38.211 40.27 35.461 64.212z" fill="#95d6a4"/><path d="m227.653 151.123c-15.278 11.359-38.239 12.41-57.911 1.051-15.591-9.23-27.1-24.906-28.347-43.366-.624-9.117 5.13-11.332 12.841-13.859 15.363-5.055 31.465-2.442 45.383 5.425 19.644 11.358 30.189 31.835 28.034 50.749z" fill="#b3e59f"/><path d="m227.653 151.123c-11.14 8.265-26.334 11.076-41.386 7.611 3.175-.795 6.236-1.875 9.128-3.237 8.646-4.146 8.476-5.907 7.086-15.677-2.183-15.336-12.104-30.332-27.864-39.447-5.273-2.954-10.828-5.197-16.525-6.532 14.173-3.493 28.771-.682 41.527 6.532 19.644 11.359 30.189 31.836 28.034 50.75z" fill="#95d6a4"/><path d="m291.887 258.219c19.332 14.37 48.387 15.705 73.247 1.335 20.211-11.871 35.291-32.858 35.972-56.856.255-9.116-5.386-11.275-12.812-14.285-20.098-8.094-42.35-4.97-60.917 5.595-24.889 14.369-38.24 40.269-35.49 64.211z" fill="#b3e59f"/><path d="m284.375 151.123c15.25 11.359 38.239 12.41 57.883 1.051 15.761-9.314 27.582-25.446 28.403-44.19.341-8.037-4.535-9.996-11.309-12.468-15.733-5.821-32.542-3.294-46.942 4.857-19.673 11.359-30.218 31.836-28.035 50.75z" fill="#b3e59f"/><path d="m300.759 158.734c13.011 3.181 28.035 1.221 41.499-6.561 15.761-9.314 27.582-25.446 28.403-44.19.341-8.037-4.535-9.996-11.309-12.468-9.979-3.691-20.439-4.032-30.416-1.675 1.814.454 3.628.994 5.414 1.675 6.774 2.472 11.65 4.431 11.311 12.468-.822 18.744-12.643 34.876-28.403 44.19-5.33 3.097-10.914 5.255-16.499 6.561z" fill="#95d6a4"/><path d="m226.151 48.741c0 22.721 12.415 42.118 29.849 49.7 17.433-7.582 29.849-26.979 29.849-49.7-.17-18.261-7.908-35.897-23.301-46.319-7.37-4.97-11.735-1.562-17.773 3.663-12.472 10.764-18.482 26.355-18.624 42.656z" fill="#b3e59f"/><path d="m243.499 90.233c3.742 3.437 7.966 6.22 12.501 8.208 17.433-7.582 29.849-26.979 29.849-49.7-.17-18.261-7.908-35.897-23.301-46.319-7.37-4.97-11.735-1.562-17.773 3.663-.425.369-.821.738-1.219 1.108 11.396 10.564 17.149 25.814 17.292 41.548 0 16.785-6.776 31.752-17.349 41.492z" fill="#95d6a4"/></g><path d="m248.517 48.741c0-4.175 3.345-7.525 7.483-7.525 4.139 0 7.512 3.351 7.512 7.525v105.819l71.943-41.606c3.571-2.073 8.136-.824 10.177 2.754 2.069 3.579.821 8.151-2.75 10.225l-79.37 45.894v94.146l93.969-54.357c3.571-2.072 8.164-.852 10.232 2.726 2.069 3.607.851 8.18-2.721 10.253l-101.48 58.702v21.669c0 4.147-3.373 7.498-7.512 7.498s-7.483-3.352-7.483-7.498v-21.669l-101.48-58.702c-3.6-2.073-4.819-6.646-2.749-10.253 2.098-3.578 6.661-4.799 10.232-2.726l93.997 54.357v-94.117l-79.427-45.922c-3.572-2.102-4.791-6.674-2.722-10.253 2.069-3.578 6.662-4.799 10.233-2.726l71.915 41.577v-105.791z" fill="#5aa687"/><path clip-rule="evenodd" d="m129.943 341.601c9.892.085 17.093 1.789 26.021 5.992 7.002 3.295 6.35-.312 9.809-5.765 10.63-16.842 34.299-27.69 52.895-32.376 12.33-3.096 24.633-4.43 37.332-4.487 29.707.114 68.201 8.946 87.732 33.37 2.409 3.01 3.061 4.657 4.904 7.838 2.777 4.828 6.377 1.902 10.629 0 7.144-3.209 15.024-4.487 22.791-4.572 27.043.256 51.619 17.863 58.535 44.304 2.665 10.139 6.633 7.781 15.223 10.395 23.98 7.299 40.79 30.615 41.017 55.493v.938c0 32.717-26.477 59.27-59.16 59.27h-181.671-181.673c-32.683 0-59.159-26.554-59.159-59.27.227-25.674 16.441-48.734 41.017-56.431 3.402-1.051 10.12-1.647 12.303-3.692 2.211-2.045 3.005-7.951 4.139-11.103 8.674-24.114 31.89-39.677 57.316-39.904z" fill="#b2a17d" fill-rule="evenodd"/><path d="m225.499 366.934c-4.139 0-7.483-3.352-7.483-7.498 0-4.175 3.345-7.525 7.483-7.525h61.002c4.139 0 7.512 3.35 7.512 7.525 0 4.147-3.373 7.498-7.512 7.498zm-128.494 110.219c-4.139 0-7.512-3.38-7.512-7.526s3.373-7.497 7.512-7.497h61.001c4.139 0 7.512 3.351 7.512 7.497s-3.373 7.526-7.512 7.526zm256.989 0c-4.139 0-7.484-3.38-7.484-7.526s3.346-7.497 7.484-7.497h61.001c4.139 0 7.512 3.351 7.512 7.497s-3.373 7.526-7.512 7.526zm-128.495 0c-4.139 0-7.483-3.38-7.483-7.526s3.345-7.497 7.483-7.497h61.002c4.139 0 7.512 3.351 7.512 7.497s-3.373 7.526-7.512 7.526zm-64.233-55.124c-4.166 0-7.512-3.352-7.512-7.498 0-4.147 3.346-7.525 7.512-7.525h61.002c4.139 0 7.483 3.379 7.483 7.525s-3.345 7.498-7.483 7.498zm128.495 0c-4.139 0-7.512-3.352-7.512-7.498 0-4.147 3.373-7.525 7.512-7.525h61.001c4.139 0 7.484 3.379 7.484 7.525s-3.346 7.498-7.484 7.498z" fill="#917d52"/><path clip-rule="evenodd" d="m388.293 188.412c-11.849-4.771-24.406-5.651-36.539-3.408 3.884.767 7.739 1.874 11.537 3.408 7.427 3.01 13.068 5.169 12.812 14.285-.68 23.998-15.76 44.985-35.972 56.856-7.823 4.516-16.044 7.497-24.265 8.974 15.704 2.983 33.336.228 49.267-8.974 20.211-11.871 35.291-32.858 35.972-56.856.255-9.116-5.385-11.275-12.812-14.285z" fill="#95d6a4" fill-rule="evenodd"/><path clip-rule="evenodd" d="m412.671 486.951h-181.673-181.672c-9.894 0-19.219-2.442-27.411-6.759 9.864 18.914 29.65 31.808 52.412 31.808h181.673 181.672c32.684 0 59.16-26.554 59.16-59.27v-.938c-.199-21.584-12.842-41.946-31.806-51.745 4.28 8.151 6.719 17.296 6.804 26.696v.938c0 32.716-26.475 59.27-59.159 59.27z" fill="#a39474" fill-rule="evenodd"/></g></svg>