<svg height="512" viewBox="0 0 58 52" width="512" xmlns="http://www.w3.org/2000/svg"><g id="Page-1" fill="none" fill-rule="evenodd"><g id="046---Click-On-Folder" fill-rule="nonzero"><path id="Shape" d="m51 5h-26c-.5522847 0-1-.44771525-1-1v-1c0-1.65685425-1.3431458-3-3-3h-14c-1.65685425 0-3 1.34314575-3 3v9h50v-4c0-1.65685425-1.3431458-3-3-3z" fill="#f29c1f"/><path id="Shape" d="m42.7 45h5.46c1.9072274-.0015321 3.5480911-1.3493844 3.92-3.22l5.88-29.39c.116709-.5870173-.0356102-1.1954503-.4151342-1.6582372-.3795241-.4627869-.9463593-.7312821-1.5448658-.7317628h-54c-.59850648.0004807-1.16534175.2689759-1.54486577.7317628-.37952402.4627869-.53184323 1.0712199-.41513423 1.6582372l5.88 29.39c.37190885 1.8706156 2.01277256 3.2184679 3.92 3.22z" fill="#f0c419"/><path id="Shape" d="m7 15h-2c-.55228475 0-1-.4477153-1-1s.44771525-1 1-1h2c.55228475 0 1 .4477153 1 1s-.44771525 1-1 1z" fill="#f9eab0"/><path id="Shape" d="m27 15h-16c-.5522847 0-1-.4477153-1-1s.4477153-1 1-1h16c.5522847 0 1 .4477153 1 1s-.4477153 1-1 1z" fill="#f9eab0"/><path id="Shape" d="m33.141 29.788-2.122 2.121c-.187777.1875683-.2932867.4420908-.2932867.7075s.1055097.5199317.2932867.7075l12.728 12.727c.187777.1875683.2932867.4420908.2932867.7075s-.1055097.5199317-.2932867.7075l-4.242 4.242c-.1875683.187777-.4420908.2932867-.7075.2932867s-.5199317-.1055097-.7075-.2932867l-12.728-12.728c-.3904999-.3903819-1.0235001-.3903819-1.414 0l-2.121 2.12c-.2634421.2625108-.6508028.3571388-1.0056068.245659s-.6184329-.4106496-.6843932-.776659l-2.121-13.433c-.0569122-.3215033.0467127-.6505442.2775842-.8814158.2308716-.2308715.5599125-.3344964.8814158-.2775842l13.435 2.123c.365171.066455.6634936.3297015.7748725.6837649.111379.3540634.0174891.7406895-.2438725 1.0042351z" fill="#3b97d3"/></g></g></svg>