<svg height="512" viewBox="0 0 128 128" width="512" xmlns="http://www.w3.org/2000/svg"><g><g><path d="m64 105.809v-62.891l-52.213-2.131v69.262l45.842 2.131a6.371 6.371 0 0 0 6.371-6.371z" fill="#00b7f0"/><path d="m116.213 110.049v-69.262l-52.213 2.131v62.891a6.371 6.371 0 0 0 6.371 6.371z" fill="#0094ce"/><path d="m58.448 36.261-37.071-1.913v68.2l42.623 2.195v-62.636a5.853 5.853 0 0 0 -5.552-5.846z" fill="#fff5f5"/><g fill="#3c4465"><path d="m56.5 48.641h.092a1.75 1.75 0 0 0 .089-3.5l-27.806-1.431a1.75 1.75 0 0 0 -.18 3.5z"/><path d="m56.5 57.479h.092a1.75 1.75 0 0 0 .089-3.5l-27.806-1.431a1.75 1.75 0 0 0 -.18 3.5z"/><path d="m56.5 66.317h.092a1.75 1.75 0 0 0 .089-3.5l-27.806-1.43a1.75 1.75 0 0 0 -.18 3.5z"/><path d="m56.5 75.155h.092a1.75 1.75 0 0 0 .089-3.5l-27.806-1.43a1.75 1.75 0 0 0 -.18 3.5z"/><path d="m56.5 83.994h.092a1.75 1.75 0 0 0 .089-3.5l-27.806-1.431a1.75 1.75 0 0 0 -.18 3.5z"/><path d="m56.5 92.832h.092a1.75 1.75 0 0 0 .089-3.5l-8.389-.432a1.75 1.75 0 0 0 -.18 3.5z"/></g><path d="m106.623 34.348-37.071 1.913a5.853 5.853 0 0 0 -5.552 5.846v62.636l42.623-2.2z" fill="#efe1e1"/><path d="m71.5 48.641 27.807-1.435a1.75 1.75 0 0 0 -.18-3.5l-27.81 1.439a1.75 1.75 0 0 0 .089 3.5z" fill="#3c4465"/><path d="m71.5 57.479 27.807-1.435a1.75 1.75 0 0 0 -.18-3.5l-27.81 1.438a1.75 1.75 0 0 0 .089 3.5z" fill="#3c4465"/><path d="m71.5 66.317 27.807-1.434a1.75 1.75 0 0 0 -.18-3.5l-27.81 1.438a1.75 1.75 0 0 0 .089 3.5z" fill="#3c4465"/><path d="m71.5 75.155 27.807-1.434a1.75 1.75 0 0 0 -.18-3.5l-27.81 1.438a1.75 1.75 0 0 0 .089 3.5z" fill="#3c4465"/><path d="m71.5 83.994 27.807-1.435a1.75 1.75 0 0 0 -.18-3.5l-27.81 1.441a1.75 1.75 0 0 0 .089 3.5z" fill="#3c4465"/><path d="m71.5 92.832 27.805-1.432a1.75 1.75 0 0 0 -.18-3.5l-27.808 1.436a1.75 1.75 0 0 0 .089 3.5z" fill="#3c4465"/></g><g><path d="m41.1 18.801h13.971v55.165h-13.971z" fill="#ffbe40" transform="matrix(.707 -.707 .707 .707 -18.714 47.587)"/><path d="m62.65 70.827 15.583 5.703-5.704-15.582z" fill="#4d5e80"/><path d="m33.521 21.94-4.685-4.685a4.9 4.9 0 0 0 -6.925 0l-2.954 2.953a4.9 4.9 0 0 0 0 6.926l4.685 4.685z" fill="#3c4465"/><path d="m46.336 18.801h3.5v55.165h-3.5z" fill="#f3963c" transform="matrix(.707 -.707 .707 .707 -18.714 47.587)"/></g></g></svg>