<svg height="512" viewBox="0 0 128 128" width="512" xmlns="http://www.w3.org/2000/svg"><g><path d="m55.98 54.192c6.006-22.739 37.42-47.692 37.42-47.692s14.994 37.212 8.988 59.95-17.923 25.778-30.738 22.393-21.676-11.913-15.67-34.651z" fill="#a5cc2a"/><path d="m72.02 54.192c-6.006-22.739-37.42-47.692-37.42-47.692s-14.994 37.212-8.988 59.95 17.923 25.778 30.738 22.393 21.676-11.913 15.67-34.651z" fill="#a5cc2a"/><path d="m88 62.167c0-23.519-24-55.667-24-55.667s-24 32.148-24 55.667c0 21.208 8.74 28.153 20.177 29.313l-1.183 24.769a5.012 5.012 0 1 0 10.012 0l-1.183-24.769c11.437-1.16 20.177-8.105 20.177-29.313z" fill="#bae543"/><g fill="#a5cc2a"><path d="m77.659 82.143a1.751 1.751 0 0 1 -1.385-2.819 14.41 14.41 0 0 0 1.881-3.337 1.751 1.751 0 0 1 3.239 1.33 17.982 17.982 0 0 1 -2.348 4.144 1.748 1.748 0 0 1 -1.387.682z"/><path d="m64 80.583a1.749 1.749 0 0 1 -1.75-1.75v-49.5a1.75 1.75 0 0 1 3.5 0v49.5a1.749 1.749 0 0 1 -1.75 1.75z"/><path d="m64 49.917a1.748 1.748 0 0 1 -1.266-.541 94.686 94.686 0 0 0 -8.625-7.976 1.751 1.751 0 0 1 2.116-2.79 85.136 85.136 0 0 1 7.775 7.053 85.136 85.136 0 0 1 7.775-7.063 1.751 1.751 0 0 1 2.116 2.79 94.686 94.686 0 0 0 -8.625 7.981 1.748 1.748 0 0 1 -1.266.546z"/><path d="m64 73.917a1.75 1.75 0 0 1 -1.1-.389c-.055-.045-5.69-4.59-9.375-7.383a1.751 1.751 0 1 1 2.116-2.79c2.733 2.073 6.515 5.088 8.359 6.567 1.844-1.479 5.626-4.494 8.359-6.567a1.751 1.751 0 1 1 2.116 2.79c-3.686 2.793-9.32 7.338-9.375 7.383a1.75 1.75 0 0 1 -1.1.389z"/><path d="m64 62.243a1.743 1.743 0 0 1 -1.161-.44 103 103 0 0 0 -11.7-8.953 1.75 1.75 0 1 1 1.806-3 96.118 96.118 0 0 1 11.055 8.326 96.118 96.118 0 0 1 11.057-8.324 1.75 1.75 0 1 1 1.806 3 102.872 102.872 0 0 0 -11.7 8.953 1.743 1.743 0 0 1 -1.163.438z"/></g></g></svg>