<svg id="Capa_1" enable-background="new 0 0 512 512" height="512" viewBox="0 0 512 512" width="512" xmlns="http://www.w3.org/2000/svg"><g><path d="m271.19 290.265v-30h-80.523v-28.956h-30v280.691h110.523v-30h-80.523v-191.735z" fill="#145383"/><g><path d="m109.212 20.787-26.496-20.787h-82.716v66.587l112.066 10 10-31.587-10-24.213z" fill="#69b1e9"/><path d="m224.133 20.787h-112.067v55.8l112.067-10z" fill="#3d9ae2"/></g><g><path d="m0 66.587v124.802l112.066.004 10-65.726-10-59.08z" fill="#96c8ef"/><path d="m112.066 66.587h112.066v124.807h-112.066z" fill="#69b1e9"/></g><g><g><path d="m413.522 144.066-22.704-17.813h-70.881v57.06l96.031 8.569 8.57-27.068-8.57-20.748z" fill="#69b1e9"/><path d="m512 144.066h-96.032v47.816l96.032-8.569z" fill="#3d9ae2"/></g><g><path d="m319.937 183.313v106.945l96.031.003 8.57-56.322-8.57-50.626z" fill="#96c8ef"/><path d="m415.968 183.313h96.032v106.95h-96.032z" fill="#69b1e9"/></g></g><g><g><path d="m413.522 365.801-22.704-17.812h-70.881v57.06l96.031 8.569 8.57-27.068-8.57-20.749z" fill="#69b1e9"/><path d="m512 365.801h-96.032v47.817l96.032-8.569z" fill="#3d9ae2"/></g><g><path d="m319.937 405.049v106.945l96.031.003 8.57-56.322-8.57-50.626z" fill="#96c8ef"/><path d="m415.968 405.049h96.032v106.95h-96.032z" fill="#69b1e9"/></g></g></g></svg>