<svg id="Flat" height="512" viewBox="0 0 512 512" width="512" xmlns="http://www.w3.org/2000/svg"><path d="m56 216h192v112h-192z" fill="#eb5a57"/><path d="m128 56h48v48h-48z" fill="#6a7073"/><path d="m128 24h48v32h-48z" fill="#414649"/><path d="m184 328h-128v128a32 32 0 0 0 64 0 32 32 0 0 0 64 0 32 32 0 0 0 64 0v-128z" fill="#6a7073"/><path d="m120 88h64a64 64 0 0 1 64 64v64a0 0 0 0 1 0 0h-192a0 0 0 0 1 0 0v-64a64 64 0 0 1 64-64z" fill="#6a7073"/><path d="m440 232s16 29.474 16 76.632c0 41.917-32 76.631-32 147.368h-96c0-70.737-32-105.451-32-147.368 0-47.158 16-76.632 16-76.632z" fill="#e9eef2"/><path d="m451.02 264h-150.04c4.7-20.36 11.02-32 11.02-32h128s6.32 11.64 11.02 32z" fill="none"/><path d="m456 308.63c0 41.92-32 76.63-32 147.37h-96c0-70.74-32-105.45-32-147.37a199.121 199.121 0 0 1 4.98-44.63h150.04a199.121 199.121 0 0 1 4.98 44.63z" fill="#6a7073"/><path d="m328 456h96v32h-96z" fill="#c3c6c7"/><path d="m184 64h-64a8 8 0 0 1 0-16h64a8 8 0 0 1 0 16z" fill="#414649"/></svg>