<?xml version="1.0" encoding="iso-8859-1"?>
<!-- Generator: Adobe Illustrator 19.0.0, SVG Export Plug-In . SVG Version: 6.00 Build 0)  -->
<svg version="1.1" id="Capa_1" xmlns="http://www.w3.org/2000/svg" xmlns:xlink="http://www.w3.org/1999/xlink" x="0px" y="0px"
	 viewBox="0 0 490.667 490.667" style="enable-background:new 0 0 490.667 490.667;" xml:space="preserve">
<path style="fill:#BEC4CC;" d="M490.667,133.333V432c-0.02,11.314-4.505,22.162-12.48,30.187l-72.853-72.853L288,272l-2.987-4.587
	L490.667,133.333z"/>
<path style="fill:#A4B0C0;" d="M405.334,389.333l72.853,72.853c-8.025,7.975-18.873,12.46-30.187,12.48H42.667
	c-11.314-0.02-22.162-4.505-30.187-12.48l72.853-72.853L202.667,272l2.667-4.16l40,25.493l39.68-25.92L288,272L405.334,389.333z"/>
<path style="fill:#BEC4CC;" d="M205.334,267.84l-2.667,4.16L85.334,389.333L12.48,462.187C4.505,454.162,0.02,443.314,0,432V154.667
	c-0.013-4.304,0.634-8.585,1.92-12.693L10.667,144L205.334,267.84z"/>
<path style="fill:#D0D7DF;" d="M490.667,133.333l-205.653,134.08l-39.68,25.92l-40-25.493L10.667,144l-8.747-2.027
	C7.477,124.14,23.988,111.995,42.667,112h394.667C480,112,490.667,133.333,490.667,133.333L490.667,133.333z"/>
<circle style="fill:#FED049;" cx="362.667" cy="144" r="128"/>
<g>
	<path style="fill:#F6B445;" d="M341.334,122.667c-5.891,0-10.667-4.776-10.667-10.667c0-5.891-4.776-10.667-10.667-10.667
		c-5.891,0-10.667,4.776-10.667,10.667c0,5.891-4.776,10.667-10.667,10.667S288,117.891,288,112c0-17.673,14.327-32,32-32
		c17.673,0,32,14.327,32,32C352,117.891,347.225,122.667,341.334,122.667z"/>
	<path style="fill:#F6B445;" d="M426.667,122.667c-5.891,0-10.667-4.776-10.667-10.667c0-5.891-4.776-10.667-10.667-10.667
		c-5.891,0-10.667,4.776-10.667,10.667c0,5.891-4.776,10.667-10.667,10.667c-5.891,0-10.667-4.776-10.667-10.667
		c0-17.673,14.327-32,32-32s32,14.327,32,32C437.334,117.891,432.558,122.667,426.667,122.667z"/>
	<path style="fill:#F6B445;" d="M426.667,218.667c-5.891,0-10.667-4.776-10.667-10.667c0-29.455-23.878-53.333-53.333-53.333
		S309.334,178.545,309.334,208c0,5.891-4.776,10.667-10.667,10.667S288,213.891,288,208c0-41.237,33.429-74.667,74.667-74.667
		s74.667,33.429,74.667,74.667C437.334,213.891,432.558,218.667,426.667,218.667z"/>
</g>
<g>
</g>
<g>
</g>
<g>
</g>
<g>
</g>
<g>
</g>
<g>
</g>
<g>
</g>
<g>
</g>
<g>
</g>
<g>
</g>
<g>
</g>
<g>
</g>
<g>
</g>
<g>
</g>
<g>
</g>
</svg>
