<svg id="color" enable-background="new 0 0 24 24" height="512" viewBox="0 0 24 24" width="512" xmlns="http://www.w3.org/2000/svg"><path d="m21 1h-18c-1.654 0-3 1.346-3 3v16c0 1.654 1.346 3 3 3h18c1.654 0 3-1.346 3-3v-16c0-1.654-1.346-3-3-3z" fill="#607d8b"/><path d="m21 21h-18c-.551 0-1-.448-1-1v-14h20v14c0 .552-.449 1-1 1z" fill="#fafafa"/><path d="m12.25 1v5h-10.25v14c0 .552.449 1 1 1h9.25v2h-9.25c-1.654 0-3-1.346-3-3v-16c0-1.654 1.346-3 3-3z" fill="#546d79"/><path d="m2 6v14c0 .552.449 1 1 1h9.25v-15z" fill="#dadada"/><path d="m12 19c-1.93 0-3.5-1.57-3.5-3.5v-5.25c0-1.241 1.01-2.25 2.25-2.25s2.25 1.009 2.25 2.25v5c0 .414-.336.75-.75.75s-.75-.336-.75-.75v-5c0-.414-.337-.75-.75-.75s-.75.336-.75.75v5.25c0 1.103.897 2 2 2s2-.897 2-2v-6.75c0-.414.336-.75.75-.75s.75.336.75.75v6.75c0 1.93-1.57 3.5-3.5 3.5z" fill="#2196f3"/><path d="m10.75 8c-1.24 0-2.25 1.01-2.25 2.25v5.25c0 1.93 1.57 3.5 3.5 3.5.084 0 .167-.003.25-.009v-1.507c-.082.011-.165.016-.25.016-1.103 0-2-.896-2-2v-5.25c0-.414.337-.75.75-.75s.75.336.75.75v5c0 .414.336.75.75.75v-7.425c-.398-.357-.924-.575-1.5-.575z" fill="#1d83d4"/></svg>