<svg id="Layer_1" enable-background="new 0 0 497 497" height="512" viewBox="0 0 497 497" width="512" xmlns="http://www.w3.org/2000/svg"><g><g><path d="m104.251 497c-17.266 0-33.907-7.265-45.658-19.934-11.75-12.669-17.759-29.824-16.486-47.066l21.687-293.73c-15.383-14.749-24.431-35.359-24.431-57.171 0-43.616 35.435-79.099 78.991-79.099h260.293c43.556 0 78.991 35.483 78.991 79.099 0 21.457-8.424 41.381-23.165 56.023l21.771 294.878c1.273 17.243-4.736 34.398-16.487 47.067-11.75 12.668-28.392 19.933-45.657 19.933z" fill="#9b4f1d"/><path d="m427.592 432.121-22.886-309.976c14.509-8.827 24.202-24.803 24.202-43.045 0-27.796-22.503-50.33-50.261-50.33h-260.293c-27.758 0-50.261 22.534-50.261 50.33 0 18.777 10.276 35.141 25.497 43.791l-22.831 309.23c-1.439 19.497 13.969 36.109 33.492 36.109h289.848c19.524.001 34.932-16.612 33.493-36.109z" fill="#f0aa7d"/><path d="m428.907 79.1c0-27.797-22.503-50.33-50.261-50.33h-40c27.758 0 50.261 22.533 50.261 50.33 0 18.242-9.692 34.218-24.201 43.045l22.886 309.976c1.439 19.497-13.969 36.109-33.492 36.109h40c19.523 0 34.932-16.613 33.492-36.109l-22.886-309.976c14.509-8.827 24.201-24.803 24.201-43.045z" fill="#e89d6b"/></g><g><g><path d="m142.5 204c-6.357 0-9.877-8.229-5.303-12.804l108-108c6.637-6.635 17.545 3.668 10.606 10.607l-108 108c-1.464 1.465-3.384 2.197-5.303 2.197z" fill="#9b4f1d"/></g><g><path d="m247.5 416c-6.357 0-9.877-8.229-5.303-12.804l107-107c6.637-6.635 17.545 3.668 10.606 10.607l-107 107c-1.464 1.465-3.384 2.197-5.303 2.197z" fill="#9b4f1d"/></g><g><path d="m142.5 309c-6.357 0-9.877-8.229-5.303-12.804l212-212c6.637-6.635 17.545 3.668 10.606 10.607l-212 212c-1.464 1.465-3.384 2.197-5.303 2.197z" fill="#9b4f1d"/></g><g><path d="m142.5 414c-6.357 0-9.877-8.229-5.303-12.804l212-212c6.637-6.635 17.545 3.668 10.606 10.607l-212 212c-1.464 1.465-3.384 2.197-5.303 2.197z" fill="#9b4f1d"/></g></g></g></svg>