<svg height="512" viewBox="0 0 58 46" width="512" xmlns="http://www.w3.org/2000/svg"><g id="Page-1" fill="none" fill-rule="evenodd"><g id="046---Open-Book" fill-rule="nonzero"><path id="Shape" d="m26.918 7.406-25.718-5.166c-.29425495-.06006455-.59992501.01529927-.83253459.20526377-.23260959.18996449-.36752671.47441353-.36746541.77473623v34.96c-.000097.4752686.33433375.8849463.8.98l23.593 4.719c.3220463.0754467.590067.2975633.724.6.432.872 2.006 1.521 3.883 1.521s3.451-.649 3.883-1.519c.133933-.3024367.4019537-.5245533.724-.6l23.593-4.721c.4656663-.0950537.800097-.5047314.8-.98v-34.96c.0000613-.3003227-.1348558-.58477174-.3674654-.77473623-.2326096-.1899645-.5382796-.26532832-.8325346-.20526377l-25.911 5.205z" fill="#a56a43"/><path id="Shape" d="m29 7.48.0000002 31c.0004912-1.4396096-1.0249556-2.6751889-2.4400002-2.94l-18.56-3.54v-31l5 .95 7 1.34 6.56 1.25c1.4150446.26481106 2.4404914 1.5003904 2.44 2.94z" fill="#f9eab0"/><path id="Shape" d="m8 1v31l-4 4v-31z" fill="#f3d55b"/><path id="Shape" d="m54 36-24.61 4.92c-.1287968.0232093-.2591734.0365812-.3900002.04l.0000002-2.48c-.0004914-1.4396096 1.0249554-2.6751889 2.44-2.94l18.56-3.54z" fill="#f0c419"/><path id="Shape" d="m29 38.48.0000002 2.48c-.1308268-.0034188-.2612034-.0167907-.3900002-.04l-24.61-4.92 4-4 18.56 3.54c1.4150446.2648111 2.4404914 1.5003904 2.44 2.94z" fill="#f0c419"/><path id="Shape" d="m50 1v31l-18.56 3.54c-1.4150446.2648111-2.4404914 1.5003904-2.4400002 2.94l.0000002-31c-.0004914-1.4396096 1.0249554-2.67518894 2.44-2.94z" fill="#f5efca"/><path id="Shape" d="m54 5v31l-4-4v-31z" fill="#f3d55b"/><g fill="#35495e"><path id="Shape" d="m34 10.09c-.517224.001772-.950449-.39116659-.9990089-.90610909-.0485599-.51494251.3035716-.9819414.8120089-1.07689091l11-2.1c.5426198-.10355339 1.0664466.25238023 1.17.795s-.2523802 1.06644661-.795 1.17l-11 2.1c-.0619585.0119174-.1249058.0179443-.188.018z"/><path id="Shape" d="m34 14c-.5151775-.0009643-.9453151-.3931656-.9937068-.9060663-.0483917-.5129006.3008007-.978631.8067068-1.0759337l11-2.1c.5426198-.10355337 1.0664466.2523803 1.17.795.1035533.5426198-.2523803 1.0664466-.795 1.17l-11 2.1c-.0619904.0115819-.1249375.0172739-.188.017z"/><path id="Shape" d="m34 18c-.5151775-.0009643-.9453151-.3931656-.9937068-.9060663-.0483917-.5129006.3008007-.978631.8067068-1.0759337l11-2.1c.5426198-.1035534 1.0664466.2523802 1.17.795s-.2523802 1.0664466-.795 1.17l-11 2.1c-.0619904.0115819-.1249375.0172739-.188.017z"/><path id="Shape" d="m34 22c-.5151775-.0009643-.9453151-.3931656-.9937068-.9060663-.0483917-.5129006.3008007-.978631.8067068-1.0759337l11-2.1c.5426198-.1035534 1.0664466.2523803 1.17.795.1035533.5426198-.2523803 1.0664466-.795 1.17l-11 2.1c-.0619904.0115819-.1249375.0172739-.188.017z"/><path id="Shape" d="m34 26c-.5151775-.0009643-.9453151-.3931656-.9937068-.9060663-.0483917-.5129006.3008007-.978631.8067068-1.0759337l11-2.1c.3510134-.0669873.7111005.0583773.94462.3288702.2335194.2704929.304994.6450198.1875.9825-.1174941.3374802-.4061066.5866425-.75712.6536298l-11 2.1c-.0619904.0115819-.1249375.0172739-.188.017z"/><path id="Shape" d="m34 30c-.5151775-.0009643-.9453151-.3931656-.9937068-.9060663-.0483917-.5129006.3008007-.978631.8067068-1.0759337l6-1.151c.5426198-.1038295 1.0666705.2518802 1.1705.7945s-.2518802 1.0666705-.7945 1.1705l-6 1.15c-.0622934.0119328-.125574.0179596-.189.018z"/><path id="Shape" d="m24 22c-.0634237-.0000877-.1266999-.006114-.189-.018l-11-2.1c-.5426198-.1035534-.8985534-.6273802-.795-1.17s.6273802-.8985534 1.17-.795l11 2.1c.5082412.0949214.8603238.5616206.8120398 1.0763903s-.4810121.9078557-.9980398.9066097z"/><path id="Shape" d="m24 26c-.0634237-.0000877-.1266999-.006114-.189-.018l-11-2.1c-.5426197-.1035534-.8985533-.6273802-.795-1.17.1035534-.5426197.6273802-.8985534 1.17-.795l11 2.1c.5082412.0949214.8603238.5616206.8120398 1.0763903s-.4810121.9078557-.9980398.9066097z"/><path id="Shape" d="m24 30c-.0634237-.0000877-.1266999-.006114-.189-.018l-11-2.1c-.5426197-.1035534-.8985533-.6273802-.795-1.17.1035534-.5426197.6273802-.8985534 1.17-.795l11 2.1c.5082412.0949214.8603238.5616206.8120398 1.0763903s-.4810121.9078557-.9980398.9066097z"/></g><path id="Shape" d="m19.146 15.853-1.891-1.892c-.1520723-.1522214-.384476-.1900827-.577-.094l-2.954 1.477c-.1545169.0774323-.3380663.0695748-.4854005-.0207793s-.2375583-.2503909-.2385995-.4232207v-13.663c-.0000902-.302129.1364207-.58810202.3713936-.77802225.2349729-.18992022.5432144-.26342486.8386064-.19997775l5 1.072c.4605895.09892968.7896696.50590587.79.977v13.192c-.000043.2023268-.1220166.3846856-.3089993.4619747-.1869828.0772891-.402115.0342727-.5450007-.1089747z" fill="#ff5364"/></g></g></svg>