<svg id="Flat" height="512" viewBox="0 0 512 512" width="512" xmlns="http://www.w3.org/2000/svg"><rect fill="#ffb632" height="320" rx="32" width="464" x="24" y="96"/><path d="m488 128v9.3l-115.96 67.95a8 8 0 0 1 -8.08-13.81l122.88-72.02a32.366 32.366 0 0 1 1.16 8.58z" fill="#e09f2c"/><path d="m150.9 202.4a7.983 7.983 0 0 1 -10.95 2.84l-115.95-68.1v-9.14a32.157 32.157 0 0 1 1.2-8.72l122.85 72.17a8 8 0 0 1 2.85 10.95z" fill="#e09f2c"/><path d="m256 160a96 96 0 1 0 55.216 174.541 8 8 0 0 0 -9.216-13.082 80.006 80.006 0 1 1 34-65.459v16a16 16 0 0 1 -32 0v-56a8 8 0 0 0 -16 0v4.261a48 48 0 1 0 4.079 67.346 31.991 31.991 0 0 0 59.921-15.607v-16a96.108 96.108 0 0 0 -96-96zm0 128a32 32 0 1 1 32-32 32.036 32.036 0 0 1 -32 32z" fill="#fbe9d8"/></svg>