<svg id="Capa_1" enable-background="new 0 0 512 512" height="512" viewBox="0 0 512 512" width="512" xmlns="http://www.w3.org/2000/svg"><g><path d="m206.428 0h-116.817c-7.854 0-14.22 6.353-14.22 14.191v170.272h116.817v-170.272c0-7.838 6.366-14.191 14.22-14.191z" fill="#00c53b"/><path d="m129.669 174.334c0 3.451.299 6.83.841 10.128h61.698v-72.537c-34.539 0-62.539 27.942-62.539 62.409z" fill="#74d579"/><path d="m423.696 184.462v-170.271c0-7.838-6.328-14.191-14.135-14.191h-203.965c-7.807 0-14.135 6.353-14.135 14.191v170.272h232.235z" fill="#00c53b"/><path d="m252.472 0h-46.876c-7.807 0-14.135 6.353-14.135 14.191v170.272h46.876v-170.272c0-7.838 6.329-14.191 14.135-14.191z" fill="#00b327"/><path d="m191.461 14.191v64.586c43.337 0 78.468-35.269 78.468-78.777h-64.333c-7.806 0-14.135 6.353-14.135 14.191z" fill="#74d579"/><path d="m205.596 0c-7.686 0-14.135 6.272-14.135 14.191v64.586c17.574 0 33.797-5.801 46.876-15.598v-48.988c0-7.838 6.329-14.191 14.135-14.191z" fill="#4bcd5c"/><path d="m136.402 0h-46.876c-7.807 0-14.136 6.353-14.136 14.191v170.272h46.876v-170.272c.001-7.838 6.329-14.191 14.136-14.191z" fill="#00b327"/><path d="m409.561 0h-64.333c0 43.508 35.131 78.777 78.468 78.777v-64.586c0-7.838-6.328-14.191-14.135-14.191z" fill="#74d579"/><path d="m368.907 184.462c.538-3.298.836-6.677.836-10.128 0-34.467-27.832-62.409-62.164-62.409s-62.164 27.942-62.164 62.409c0 3.451.298 6.83.836 10.128z" fill="#74d579"/><path d="m414.246 389.623c-24.207 0-41.769-17.563-41.769-41.769s17.563-41.769 41.769-41.769h70.998v-100.092c0-12.307-9.977-22.285-22.285-22.285h-426.878c-12.308 0-22.285 9.978-22.285 22.285v283.722c0 12.308 9.977 22.285 22.285 22.285h426.878c12.308 0 22.285-9.977 22.285-22.285v-100.092z" fill="#bc7c63"/><g fill="#ab6b51"><path d="m57.066 489.715v-283.722c0-12.308 9.977-22.285 22.285-22.285h-43.27c-12.308 0-22.285 9.978-22.285 22.285v283.722c0 12.308 9.977 22.285 22.285 22.285h43.27c-12.308 0-22.285-9.977-22.285-22.285z"/><path d="m485.244 226.639v-20.646c0-12.307-9.977-22.285-22.285-22.285h-426.878c-12.308 0-22.285 9.978-22.285 22.285v20.646z"/><path d="m13.796 469.069v20.646c0 12.308 9.977 22.285 22.285 22.285h426.878c12.308 0 22.285-9.977 22.285-22.285v-20.646z"/></g><path d="m79.523 183.707h-43.442c-12.308 0-22.285 9.978-22.285 22.285v20.646h43.442v-20.646c0-12.307 9.977-22.285 22.285-22.285z" fill="#965a44"/><path d="m57.238 489.715v-20.646h-43.442v20.646c0 12.308 9.977 22.285 22.285 22.285h43.442c-12.308 0-22.285-9.977-22.285-22.285z" fill="#965a44"/><path d="m492.254 304.024h-78.008c-24.207 0-43.83 19.623-43.83 43.83 0 24.207 19.623 43.83 43.83 43.83h78.008c3.286 0 5.95-2.664 5.95-5.95v-75.759c0-3.287-2.664-5.951-5.95-5.951z" fill="#ab6b51"/><path d="m413.686 347.854c0-24.206 19.623-43.83 43.83-43.83h-43.27c-24.207 0-43.83 19.623-43.83 43.83s19.623 43.83 43.83 43.83h43.27c-24.206 0-43.83-19.624-43.83-43.83z" fill="#965a44"/><circle cx="414.537" cy="347.854" fill="#dfebfa" r="16.812"/><path d="m75.39 14.191v64.586c43.598 0 78.941-35.269 78.941-78.777h-64.72c-7.854 0-14.221 6.353-14.221 14.191z" fill="#74d579"/><path d="m89.526 0c-7.686 0-14.136 6.272-14.136 14.191v64.586c17.574 0 33.797-5.801 46.876-15.598v-48.988c.001-7.838 6.329-14.191 14.136-14.191z" fill="#4bcd5c"/></g></svg>