<svg height="512" viewBox="0 0 58 58" width="512" xmlns="http://www.w3.org/2000/svg"><g id="Page-1" fill="none" fill-rule="evenodd"><g id="046---Tick"><path id="Path" d="m22.852 3.85 2.037-3.084c.3156418-.478053.8501437-.76577502 1.423-.766h5.376c.5728563.00022498 1.1073582.287947 1.423.766l2.037 3.084 7.289 3.019 3.621-.741c.5615169-.11452729 1.1430213.06052508 1.548.466l3.8 3.8c.4054749.4049787.5805273.9864831.466 1.548l-.741 3.621 3.019 7.289 3.084 2.037c.478053.3156418.765775.8501437.766 1.423v5.376c-.000225.5728563-.287947 1.1073582-.766 1.423l-3.084 2.037-3.019 7.289.741 3.621c.1145273.5615169-.0605251 1.1430213-.466 1.548l-3.8 3.8c-.4049787.4054749-.9864831.5805273-1.548.466l-3.621-.741-7.289 3.019-2.037 3.084c-.3156418.478053-.8501437.765775-1.423.766h-5.376c-.5728563-.000225-1.1073582-.287947-1.423-.766l-2.037-3.084-7.289-3.019-3.621.741c-.5615169.1145273-1.1430213-.0605251-1.548-.466l-3.8-3.8c-.40547492-.4049787-.58052729-.9864831-.466-1.548l.741-3.621-3.019-7.289-3.084-2.037c-.478053-.3156418-.76577502-.8501437-.766-1.423v-5.376c.00022498-.5728563.287947-1.1073582.766-1.423l3.084-2.037 3.019-7.289-.741-3.621c-.11452729-.5615169.06052508-1.1430213.466-1.548l3.8-3.8c.4049787-.40547492.9864831-.58052729 1.548-.466l3.621.741z" fill="#bdc3c7"/><circle id="Oval" cx="29" cy="29" fill="#7f8c8d" r="20"/><path id="Path" d="m22.8 40.416-7.209-7.138c-.3766245-.3723293-.5885748-.879901-.5885748-1.4095s.2119503-1.0371707.5885748-1.4095l1.423-1.409c.7891779-.7779502 2.0568221-.7779502 2.846 0l4.363 4.321 13.919-13.787c.788735-.7790299 2.057265-.7790299 2.846 0l1.423 1.409c.3768147.3720238.5889145.8794804.5889145 1.409s-.2120998 1.0369762-.5889145 1.409l-16.767 16.6c-.7871281.7791018-2.0541373.7813293-2.844.005z" fill="#7ed09e"/></g></g></svg>