<?xml version="1.0" encoding="iso-8859-1"?>
<!-- Generator: Adobe Illustrator 19.0.0, SVG Export Plug-In . SVG Version: 6.00 Build 0)  -->
<svg version="1.1" id="Capa_1" xmlns="http://www.w3.org/2000/svg" xmlns:xlink="http://www.w3.org/1999/xlink" x="0px" y="0px"
	 viewBox="0 0 468.293 468.293" style="enable-background:new 0 0 468.293 468.293;" xml:space="preserve">
<path style="fill:#27A2DB;" d="M468.293,149.854H0V74.927c0-6.897,5.591-12.488,12.488-12.488h443.317
	c6.897,0,12.488,5.591,12.488,12.488V149.854z"/>
<path style="fill:#D5D6DB;" d="M468.293,437.073H12.488C5.591,437.073,0,431.482,0,424.585V149.854h468.293V437.073z"/>
<g>
	<path style="fill:#F6C358;" d="M59.549,93.659L59.549,93.659c-6.897,0-12.488-5.591-12.488-12.488V43.707
		c0-6.897,5.591-12.488,12.488-12.488h0c6.897,0,12.488,5.591,12.488,12.488v37.463C72.037,88.068,66.446,93.659,59.549,93.659z"/>
	<path style="fill:#F6C358;" d="M109.5,93.659L109.5,93.659c-6.897,0-12.488-5.591-12.488-12.488V43.707
		c0-6.897,5.591-12.488,12.488-12.488h0c6.897,0,12.488,5.591,12.488,12.488v37.463C121.988,88.068,116.397,93.659,109.5,93.659z"/>
	<path style="fill:#F6C358;" d="M358.793,93.659L358.793,93.659c-6.897,0-12.488-5.591-12.488-12.488V43.707
		c0-6.897,5.591-12.488,12.488-12.488h0c6.897,0,12.488,5.591,12.488,12.488v37.463C371.281,88.068,365.69,93.659,358.793,93.659z"
		/>
	<path style="fill:#F6C358;" d="M408.744,93.659L408.744,93.659c-6.897,0-12.488-5.591-12.488-12.488V43.707
		c0-6.897,5.591-12.488,12.488-12.488l0,0c6.897,0,12.488,5.591,12.488,12.488v37.463C421.232,88.068,415.641,93.659,408.744,93.659
		z"/>
</g>
<path style="fill:#EBF0F3;" d="M468.293,149.854H0v274.732c0,6.897,5.591,12.488,12.488,12.488h401.867l53.938-53.937V149.854z"/>
<polygon style="fill:#E1E6E9;" points="414.356,437.073 468.292,383.136 414.355,383.136 "/>
<g>
	<path style="fill:#64798A;" d="M93.632,242.853H56.543c-3.448,0-6.244-2.796-6.244-6.244V199.52c0-3.448,2.795-6.244,6.244-6.244
		h37.089c3.448,0,6.244,2.795,6.244,6.244v37.089C99.876,240.058,97.08,242.853,93.632,242.853z"/>
	<path style="fill:#64798A;" d="M173.161,242.853h-37.089c-3.448,0-6.244-2.796-6.244-6.244V199.52c0-3.448,2.796-6.244,6.244-6.244
		h37.089c3.448,0,6.244,2.795,6.244,6.244v37.089C179.405,240.058,176.61,242.853,173.161,242.853z"/>
	<path style="fill:#64798A;" d="M252.691,242.853h-37.089c-3.448,0-6.244-2.796-6.244-6.244V199.52c0-3.448,2.795-6.244,6.244-6.244
		h37.089c3.448,0,6.244,2.795,6.244,6.244v37.089C258.935,240.058,256.139,242.853,252.691,242.853z"/>
	<path style="fill:#64798A;" d="M332.221,242.853h-37.089c-3.448,0-6.244-2.796-6.244-6.244V199.52c0-3.448,2.796-6.244,6.244-6.244
		h37.089c3.448,0,6.244,2.795,6.244,6.244v37.089C338.464,240.058,335.669,242.853,332.221,242.853z"/>
	<path style="fill:#64798A;" d="M411.75,242.853h-37.089c-3.448,0-6.244-2.796-6.244-6.244V199.52c0-3.448,2.796-6.244,6.244-6.244
		h37.089c3.448,0,6.244,2.795,6.244,6.244v37.089C417.994,240.058,415.199,242.853,411.75,242.853z"/>
	<path style="fill:#64798A;" d="M93.632,318.252H56.543c-3.448,0-6.244-2.796-6.244-6.244v-37.089c0-3.448,2.795-6.244,6.244-6.244
		h37.089c3.448,0,6.244,2.795,6.244,6.244v37.089C99.876,315.456,97.08,318.252,93.632,318.252z"/>
	<path style="fill:#64798A;" d="M173.161,318.252h-37.089c-3.448,0-6.244-2.796-6.244-6.244v-37.089
		c0-3.448,2.796-6.244,6.244-6.244h37.089c3.448,0,6.244,2.795,6.244,6.244v37.089C179.405,315.456,176.61,318.252,173.161,318.252z
		"/>
	<path style="fill:#64798A;" d="M252.691,318.252h-37.089c-3.448,0-6.244-2.796-6.244-6.244v-37.089
		c0-3.448,2.795-6.244,6.244-6.244h37.089c3.448,0,6.244,2.795,6.244,6.244v37.089C258.935,315.456,256.139,318.252,252.691,318.252
		z"/>
	<path style="fill:#64798A;" d="M332.221,318.252h-37.089c-3.448,0-6.244-2.796-6.244-6.244v-37.089
		c0-3.448,2.796-6.244,6.244-6.244h37.089c3.448,0,6.244,2.795,6.244,6.244v37.089C338.464,315.456,335.669,318.252,332.221,318.252
		z"/>
	<path style="fill:#64798A;" d="M411.75,318.252h-37.089c-3.448,0-6.244-2.796-6.244-6.244v-37.089c0-3.448,2.796-6.244,6.244-6.244
		h37.089c3.448,0,6.244,2.795,6.244,6.244v37.089C417.994,315.456,415.199,318.252,411.75,318.252z"/>
	<path style="fill:#64798A;" d="M93.632,393.65H56.543c-3.448,0-6.244-2.795-6.244-6.244v-37.089c0-3.448,2.795-6.244,6.244-6.244
		h37.089c3.448,0,6.244,2.795,6.244,6.244v37.089C99.876,390.854,97.08,393.65,93.632,393.65z"/>
	<path style="fill:#64798A;" d="M173.161,393.65h-37.089c-3.448,0-6.244-2.795-6.244-6.244v-37.089c0-3.448,2.796-6.244,6.244-6.244
		h37.089c3.448,0,6.244,2.795,6.244,6.244v37.089C179.405,390.854,176.61,393.65,173.161,393.65z"/>
	<path style="fill:#64798A;" d="M252.691,393.65h-37.089c-3.448,0-6.244-2.795-6.244-6.244v-37.089c0-3.448,2.795-6.244,6.244-6.244
		h37.089c3.448,0,6.244,2.795,6.244,6.244v37.089C258.935,390.854,256.139,393.65,252.691,393.65z"/>
	<path style="fill:#64798A;" d="M332.221,393.65h-37.089c-3.448,0-6.244-2.795-6.244-6.244v-37.089c0-3.448,2.796-6.244,6.244-6.244
		h37.089c3.448,0,6.244,2.795,6.244,6.244v37.089C338.464,390.854,335.669,393.65,332.221,393.65z"/>
</g>
<g>
</g>
<g>
</g>
<g>
</g>
<g>
</g>
<g>
</g>
<g>
</g>
<g>
</g>
<g>
</g>
<g>
</g>
<g>
</g>
<g>
</g>
<g>
</g>
<g>
</g>
<g>
</g>
<g>
</g>
</svg>
