<svg id="Layer_1" enable-background="new 0 0 497 497" height="512" viewBox="0 0 497 497" width="512" xmlns="http://www.w3.org/2000/svg"><g><path d="m497 265.144v-33.288c0-3.441-2.342-6.441-5.681-7.276l-26.453-6.613c-2.498-17.861-7.151-35.028-13.695-51.232l19.576-18.929c2.474-2.392 3.003-6.161 1.282-9.142l-16.644-28.828c-1.721-2.98-5.249-4.407-8.558-3.461l-26.22 7.501c-10.933-13.957-23.526-26.55-37.483-37.483l7.501-26.22c.947-3.309-.48-6.837-3.461-8.558l-28.828-16.645c-2.98-1.721-6.749-1.192-9.142 1.282l-18.929 19.576c-16.204-6.544-33.371-11.197-51.232-13.695l-6.613-26.452c-.834-3.339-3.834-5.681-7.276-5.681h-33.288c-3.442 0-6.441 2.342-7.276 5.681l-6.613 26.453c-17.861 2.498-35.028 7.151-51.232 13.695l-18.929-19.576c-2.392-2.474-6.161-3.003-9.142-1.282l-28.829 16.644c-2.98 1.721-4.407 5.249-3.461 8.558l7.501 26.22c-13.957 10.933-26.55 23.526-37.483 37.483l-26.22-7.5c-3.309-.946-6.837.48-8.558 3.461l-16.644 28.828c-1.721 2.98-1.192 6.749 1.282 9.142l19.576 18.929c-6.544 16.204-11.197 33.371-13.695 51.232l-26.452 6.612c-3.339.834-5.681 3.834-5.681 7.276v33.288c0 3.442 2.342 6.441 5.681 7.276l26.453 6.613c2.498 17.861 7.151 35.028 13.695 51.232l-19.576 18.929c-2.474 2.392-3.003 6.161-1.282 9.142l16.644 28.828c1.721 2.98 5.249 4.407 8.558 3.461l26.22-7.501c10.933 13.957 23.526 26.55 37.483 37.483l-7.5 26.22c-.946 3.309.48 6.837 3.461 8.558l28.829 16.644c2.98 1.721 6.749 1.192 9.142-1.282l18.929-19.576c16.204 6.544 33.371 11.197 51.232 13.695l6.613 26.453c.835 3.339 3.835 5.681 7.276 5.681h33.288c3.442 0 6.441-2.342 7.276-5.681l6.613-26.453c17.861-2.498 35.028-7.151 51.232-13.695l18.929 19.576c2.392 2.474 6.161 3.003 9.142 1.282l28.829-16.644c2.98-1.721 4.407-5.249 3.461-8.558l-7.501-26.22c13.957-10.933 26.55-23.526 37.483-37.483l26.22 7.5c3.309.946 6.837-.48 8.558-3.461l16.644-28.828c1.721-2.98 1.192-6.75-1.282-9.142l-19.576-18.929c6.544-16.204 11.197-33.371 13.695-51.232l26.453-6.613c3.336-.833 5.678-3.833 5.678-7.275z" fill="#c0c8d2"/><path d="m248.5 60v377c104.106 0 188.5-84.394 188.5-188.5s-84.394-188.5-188.5-188.5z" fill="#57697d"/><path d="m407 248.5c0-104.106-70.963-188.5-158.5-188.5-104.106 0-188.5 84.394-188.5 188.5s84.394 188.5 188.5 188.5c87.537 0 158.5-84.394 158.5-188.5z" fill="#728192"/><circle cx="248.5" cy="248.5" fill="#ffeac3" r="128.5"/><path d="m248.5 150v90c24.853 0 45-20.147 45-45s-20.147-45-45-45z" fill="#1b74d6"/><path d="m263.5 195c0-24.853-6.716-45-15-45-24.853 0-45 20.147-45 45s20.147 45 45 45c8.284 0 15-20.147 15-45z" fill="#1e8aff"/><path d="m195.996 270c-16.5 0-30 13.5-30 30v2.316c7.756 11.867 18.005 21.955 30 29.529l30-61.845z" fill="#54a5ff"/><path d="m301.004 270h-30l30 61.845c11.995-7.574 22.244-17.662 30-29.529v-2.316c0-16.5-13.5-30-30-30z" fill="#1b74d6"/><path d="m271.004 270h-45.009c-16.5 0-30 13.5-30 30v31.845c15.199 9.597 33.201 15.155 52.505 15.155s37.306-5.558 52.504-15.155v-31.845c0-16.5-13.5-30-30-30z" fill="#1e8aff"/></g></svg>