<svg id="Capa_1" enable-background="new 0 0 512 512" height="512" viewBox="0 0 512 512" width="512" xmlns="http://www.w3.org/2000/svg"><g><path d="m512 304.736-256 10-256-10v-212.236l256-10 256 10z" fill="#0051be"/><path d="m512 304.736-256 10v-232.236l256 10z" fill="#00347b"/><path d="m256 450.736 32.333-44.618-32.333-44.618h-42.867v89.236z" fill="#b3a9a9"/><path d="m256 361.5h42.333v89.236h-42.333z" fill="#8b8686"/><path d="m256 92.5h-256v-60h256l123.5 30z" fill="#dbd1cc"/><path d="m256 32.5h256v60h-256z" fill="#b3a9a9"/><path d="m256 375.736h-256v-71h256l61 35.5z" fill="#dbd1cc"/><path d="m256 304.736h256v71h-256z" fill="#b3a9a9"/><path d="m256 496.5h-130v-60h130l24 30z" fill="#dbd1cc"/><path d="m256 436.5h130v60h-130z" fill="#b3a9a9"/><path d="m360.618 160.118-104.618 144.618c-79.87 0-144.618-64.748-144.618-144.618s64.748-144.618 144.618-144.618z" fill="#69b1e9"/><path d="m256 15.5c79.87 0 144.618 64.748 144.618 144.618s-64.748 144.618-144.618 144.618z" fill="#2681ff"/><path d="m231.245 229.949-58.332-58.332 21.212-21.213 37.12 37.119 24.755-24.754 21.3 4.731-21.3 37.694z" fill="#f5f2f1"/><path d="m256 205.194 83.088-83.088-21.213-21.212-61.875 61.874z" fill="#dbd1cc"/></g></svg>