<svg id="Capa_1" enable-background="new 0 0 512 512" height="512" viewBox="0 0 512 512" width="512" xmlns="http://www.w3.org/2000/svg"><path d="m364.102 177.657c-8.541 0-15.465-6.924-15.465-15.465v-77.887c0-15.617-12.705-28.322-28.322-28.322h-128.63c-15.617 0-28.322 12.705-28.322 28.322v77.887c0 8.541-6.924 15.465-15.465 15.465s-15.465-6.924-15.465-15.465v-77.887c0-32.671 26.58-59.251 59.251-59.251h128.63c32.671 0 59.251 26.58 59.251 59.251v77.887c.001 8.541-6.922 15.465-15.463 15.465z" fill="#9e9595"/><path d="m485.062 486.946h-458.124c-14.878 0-26.938-12.061-26.938-26.938v-314.08c0-14.877 12.06-26.938 26.938-26.938h458.125c14.877 0 26.938 12.06 26.938 26.938v314.08c-.001 14.877-12.061 26.938-26.939 26.938z" fill="#c56e37"/><path d="m485.062 118.991h-8.604v341.017c0 14.877-12.06 26.938-26.938 26.938h35.541c14.877 0 26.938-12.06 26.938-26.938v-314.08c.001-14.877-12.059-26.937-26.937-26.937z" fill="#a95e2c"/><path d="m103.071 298.751h38.834v188.195h-38.834z" fill="#fdd8a3"/><path d="m370.096 299.438h38.834v187.508h-38.834z" fill="#fdd8a3"/><path d="m151.984 413.935h-58.992c-8.018 0-14.518-6.5-14.518-14.518v-12.955c0-8.018 6.5-14.518 14.518-14.518h58.992c8.018 0 14.518 6.5 14.518 14.518v12.955c-.001 8.018-6.5 14.518-14.518 14.518z" fill="#fceed9"/><path d="m151.984 371.944h-21.882v30.184c0 6.521-5.286 11.807-11.807 11.807h33.688c8.018 0 14.518-6.5 14.518-14.518v-12.955c.001-8.018-6.499-14.518-14.517-14.518z" fill="#fae2c0"/><path d="m419.008 413.935h-58.992c-8.018 0-14.518-6.5-14.518-14.518v-12.955c0-8.018 6.5-14.518 14.518-14.518h58.992c8.018 0 14.518 6.5 14.518 14.518v12.955c0 8.018-6.5 14.518-14.518 14.518z" fill="#fceed9"/><path d="m419.008 371.944h-21.882v30.184c0 6.521-5.286 11.807-11.807 11.807h33.688c8.018 0 14.518-6.5 14.518-14.518v-12.955c.001-8.018-6.499-14.518-14.517-14.518z" fill="#fae2c0"/><path d="m485.062 118.991h-458.124c-14.878 0-26.938 12.06-26.938 26.938v80.014c0 45.632 36.992 82.624 82.624 82.624h346.751c45.632 0 82.624-36.992 82.624-82.624v-80.014c.001-14.878-12.059-26.938-26.937-26.938z" fill="#da8659"/><path d="m485.062 118.991h-458.124c-14.878 0-26.938 12.06-26.938 26.938v80.014c0 45.632 36.992 82.624 82.624 82.624h346.751c45.632 0 82.624-36.992 82.624-82.624v-80.014c.001-14.878-12.059-26.938-26.937-26.938z" fill="#da8659"/><path d="m485.062 118.991h-8.575v102.586c0 29.816-24.17 53.986-53.986 53.986-11.658 0-353.815 0-359.966 0-22.904 0-43.628-9.324-58.594-24.378 10.67 33.283 41.856 57.382 78.682 57.382h346.751c45.632 0 82.624-36.992 82.624-82.624v-80.014c.002-14.878-12.058-26.938-26.936-26.938z" fill="#d57e4b"/></svg>