<?xml version="1.0" encoding="iso-8859-1"?>
<!-- Generator: Adobe Illustrator 19.0.0, SVG Export Plug-In . SVG Version: 6.00 Build 0)  -->
<svg xmlns="http://www.w3.org/2000/svg" xmlns:xlink="http://www.w3.org/1999/xlink" version="1.1" id="Layer_1" x="0px" y="0px" viewBox="0 0 512 512" style="enable-background:new 0 0 512 512;" xml:space="preserve">
<path style="fill:#D7EBFF;" d="M372.87,300.522H139.13c-55.234,0-100.174-44.94-100.174-100.174  c0-27.174,10.695-52.609,30.115-71.614c15.896-15.559,36.082-25.147,57.902-27.711C141.728,42.554,194.941,0,256,0  s114.272,42.554,129.027,101.022c21.826,2.566,42,12.147,57.902,27.711c19.419,19.005,30.115,44.44,30.115,71.614  C473.043,255.581,428.103,300.522,372.87,300.522z"/>
<g>
	<path style="fill:#5CE6E6;" d="M155.826,411.826c-9.223,0-16.696-7.473-16.696-16.696v-33.391c0-9.223,7.473-16.696,16.696-16.696   s16.696,7.473,16.696,16.696v33.391C172.522,404.353,165.049,411.826,155.826,411.826z"/>
	<path style="fill:#5CE6E6;" d="M155.826,512c-9.223,0-16.696-7.473-16.696-16.696v-33.391c0-9.223,7.473-16.696,16.696-16.696   s16.696,7.473,16.696,16.696v33.391C172.522,504.527,165.049,512,155.826,512z"/>
	<path style="fill:#5CE6E6;" d="M256,411.826c-9.223,0-16.696-7.473-16.696-16.696v-33.391c0-9.223,7.473-16.696,16.696-16.696   s16.696,7.473,16.696,16.696v33.391C272.696,404.353,265.223,411.826,256,411.826z"/>
	<path style="fill:#5CE6E6;" d="M256,512c-9.223,0-16.696-7.473-16.696-16.696v-33.391c0-9.223,7.473-16.696,16.696-16.696   s16.696,7.473,16.696,16.696v33.391C272.696,504.527,265.223,512,256,512z"/>
</g>
<g>
	<path style="fill:#36D9D9;" d="M356.174,411.826c-9.223,0-16.696-7.473-16.696-16.696v-33.391c0-9.223,7.473-16.696,16.696-16.696   s16.696,7.473,16.696,16.696v33.391C372.87,404.353,365.397,411.826,356.174,411.826z"/>
	<path style="fill:#36D9D9;" d="M356.174,512c-9.223,0-16.696-7.473-16.696-16.696v-33.391c0-9.223,7.473-16.696,16.696-16.696   s16.696,7.473,16.696,16.696v33.391C372.87,504.527,365.397,512,356.174,512z"/>
	<path style="fill:#36D9D9;" d="M272.696,495.304v-33.391c0-9.223-7.473-16.696-16.696-16.696V512   C265.223,512,272.696,504.527,272.696,495.304z"/>
	<path style="fill:#36D9D9;" d="M272.696,395.13v-33.391c0-9.223-7.473-16.696-16.696-16.696v66.783   C265.223,411.826,272.696,404.353,272.696,395.13z"/>
</g>
<path style="fill:#BDDEFF;" d="M372.87,300.522c55.234,0,100.174-44.94,100.174-100.174c0-27.174-10.695-52.609-30.115-71.614  c-15.902-15.565-36.076-25.147-57.902-27.711C370.272,42.554,317.059,0,256,0v300.522H372.87z"/>
<path style="fill:#FFFFFF;" d="M173.875,138.527c-0.788,0-1.587-0.055-2.391-0.168c-9.125-1.31-15.467-9.771-14.158-18.897  c7.038-49.071,49.456-86.071,98.674-86.071c9.223,0,16.696,7.473,16.696,16.696S265.223,66.783,256,66.783  c-32.718,0-60.929,24.685-65.619,57.419C189.185,132.522,182.044,138.527,173.875,138.527z"/>
<path style="fill:#EDF0F2;" d="M272.696,50.087c0-9.223-7.473-16.696-16.696-16.696v33.391  C265.223,66.783,272.696,59.31,272.696,50.087z"/>
<g>
</g>
<g>
</g>
<g>
</g>
<g>
</g>
<g>
</g>
<g>
</g>
<g>
</g>
<g>
</g>
<g>
</g>
<g>
</g>
<g>
</g>
<g>
</g>
<g>
</g>
<g>
</g>
<g>
</g>
</svg>
