<svg height="511pt" viewBox="0 -50 511.9997 511" width="511pt" xmlns="http://www.w3.org/2000/svg"><path d="m493.527344 157.007812c-4.3125 0-7.808594-3.492187-7.808594-7.804687v-92.132813c0-4.3125 3.496094-7.804687 7.808594-7.804687 4.316406 0 7.8125 3.492187 7.8125 7.804687v92.132813c0 4.3125-3.496094 7.804687-7.8125 7.804687zm0 0" fill="#c4cccf"/><path d="m427.03125 88.734375h-385.117188c-10.925781 0-19.855468 8.925781-19.855468 19.851563v251.542968l212.414062 25.199219 212.445313-25.199219v-251.542968c-.003907-10.925782-8.929688-19.851563-19.886719-19.851563zm0 0" fill="#c4cccf" fill-rule="evenodd"/><path d="m176.699219 360.128906h-162.628907c-7.726562 0-14.070312 6.34375-14.070312 14.097656v22.175782c0 7.753906 6.316406 14.097656 14.070312 14.097656h440.835938c7.726562 0 14.070312-6.34375 14.070312-14.097656v-22.175782c0-7.753906-6.34375-14.097656-14.070312-14.097656h-162.628906v14.65625c0 5.726563-4.699219 10.425782-10.429688 10.425782h-94.722656c-5.757812 0-10.425781-4.699219-10.425781-10.425782zm0 0" fill="#eceff1" fill-rule="evenodd"/><path d="m176.699219 360.128906v14.65625c0 5.726563 4.667969 10.425782 10.425781 10.425782h94.722656c5.726563 0 10.429688-4.699219 10.429688-10.425782v-14.65625zm0 0" fill="#90a4ae" fill-rule="evenodd"/><path d="m230.214844 124.535156h-170.03125c-2.820313 0-5.140625 2.320313-5.140625 5.140625v189.535157c0 2.820312 2.320312 5.113281 5.140625 5.113281h348.609375c2.820312 0 5.140625-2.292969 5.140625-5.113281v-189.535157c0-2.820312-2.320313-5.140625-5.140625-5.140625zm0 0" fill="#8ebfe8" fill-rule="evenodd"/><path d="m388.113281 124.535156v199.789063h20.679688c2.820312 0 5.140625-2.292969 5.140625-5.113281v-189.535157c0-2.820312-2.320313-5.140625-5.140625-5.140625zm0 0" fill="#519ad6" fill-rule="evenodd"/><path d="m413.933594 129.675781v189.535157c0 2.820312-2.320313 5.113281-5.140625 5.113281h-20.679688v35.804687h58.800781v-251.542968c0-10.925782-8.925781-19.851563-19.882812-19.851563h-38.917969v35.800781h20.679688c2.820312 0 5.140625 2.320313 5.140625 5.140625zm0 0" fill="#90a4ae" fill-rule="evenodd"/><path d="m446.914062 360.128906h-29.398437c2.996094 0 5.757813.9375 8.046875 2.554688 3.640625 2.523437 6.050781 6.785156 6.050781 11.542968v22.175782c0 7.722656-6.285156 14.007812-13.980469 14.097656h37.273438c7.722656 0 14.066406-6.34375 14.066406-14.097656v-22.175782c0-7.753906-6.34375-14.097656-14.066406-14.097656zm0 0" fill="#c4cccf" fill-rule="evenodd"/><path d="m422.597656 393.136719h-.207031c-4.3125 0-7.808594-3.496094-7.808594-7.808594s3.496094-7.804687 7.808594-7.804687h.207031c4.3125 0 7.808594 3.496093 7.808594 7.804687 0 4.3125-3.496094 7.808594-7.808594 7.808594zm0 0" fill="#8bc34a"/><path d="m388.320312 393.136719h-.207031c-4.3125 0-7.808593-3.496094-7.808593-7.808594s3.496093-7.804687 7.808593-7.804687h.207031c4.3125 0 7.8125 3.496093 7.8125 7.804687 0 4.3125-3.5 7.808594-7.8125 7.808594zm0 0" fill="#ffd54f"/><path d="m354.074219 393.308594h-.207031c-4.3125 0-7.8125-3.492188-7.8125-7.804688s3.5-7.804687 7.8125-7.804687h.207031c4.3125 0 7.808593 3.492187 7.808593 7.804687s-3.496093 7.804688-7.808593 7.804688zm0 0" fill="#f55a8e"/><path d="m287.90625 268.160156c-2.773438 0-5.457031-1.480468-6.871094-4.085937-2.058594-3.789063-.652344-8.527344 3.140625-10.585938 5.4375-2.949219 8.953125-10.683593 8.953125-19.703125 0-9.019531-3.515625-16.757812-8.953125-19.707031-3.792969-2.054687-5.199219-6.792969-3.140625-10.582031 2.054688-3.792969 6.796875-5.195313 10.589844-3.140625 10.5625 5.726562 17.125 18.535156 17.125 33.425781 0 14.894531-6.5625 27.703125-17.125 33.429688-1.183594.644531-2.460938.949218-3.71875.949218zm0 0" fill="#37474f"/><path d="m312.253906 287.957031c-2.773437 0-5.457031-1.480469-6.871094-4.085937-2.058593-3.792969-.652343-8.53125 3.140626-10.585938 11.339843-6.148437 18.667968-21.648437 18.667968-39.484375 0-17.839843-7.328125-33.339843-18.667968-39.488281-3.792969-2.054688-5.199219-6.792969-3.140626-10.585938 2.054688-3.789062 6.796876-5.195312 10.589844-3.140624 16.554688 8.976562 26.84375 29.367187 26.84375 53.214843 0 23.84375-10.285156 44.234375-26.84375 53.210938-1.183594.640625-2.460937.945312-3.71875.945312zm0 0" fill="#37474f"/><g fill-rule="evenodd"><path d="m270.160156 143.804688h174.9375c.351563 0 .703125 0 1.085938-.027344 11.335937-.558594 20.414062-10.015625 20.414062-21.5v-71.667969l-111.644531-33.457031-106.324219 32.722656v72.398438c0 11.515624 9.136719 20.972656 20.53125 21.5.324219.03125.644532.03125 1 .03125zm0 0" fill="#546e7a"/><path d="m357.628906.5c-5.582031 0-11.132812 1.261719-21.324218 3.761719l-123.832032 28.929687c-6.8125 1.613282-9.546875 6.253906-9.222656 10.867188-.324219 4.609375 2.40625 9.253906 9.222656 10.867187l123.832032 28.933594c10.191406 2.496094 15.742187 3.757813 21.324218 3.757813 5.550782 0 11.128906-1.261719 21.292969-3.757813l123.828125-28.933594c6.84375-1.613281 9.546875-6.253906 9.222656-10.867187.324219-4.609375-2.378906-9.25-9.222656-10.867188l-123.828125-28.929687c-10.164063-2.5-15.742187-3.761719-21.292969-3.761719zm0 0" fill="#7c8c94"/><path d="m401.65625 9.574219c17.914062 11.425781 28.957031 27.082031 28.957031 44.351562 0 1.644531-.117187 3.292969-.320312 4.90625-.589844 4.847657-2.058594 9.546875-4.289063 14.011719l28.726563-6.699219 48.019531-11.21875c.589844-.148437 1.175781-.324219 1.703125-.5 5.582031-1.910156 7.816406-6.167969 7.519531-10.367187.324219-4.613282-2.378906-9.253906-9.222656-10.867188zm0 0" fill="#546e7a"/><path d="m248.628906 87.085938 70.640625 16.449218 17.035157 3.964844c20.351562 5.054688 22.261718 5.054688 42.617187 0l17.503906-3.847656 15.773438-3.4375c17.238281-3.757813 17.535156-1.203125 17.535156 17.183594v26.40625h15.359375c.351562 0 .707031 0 1.085938-.03125 11.339843-.558594 20.414062-10.015626 20.414062-21.5v-58.480469c-3.496094.914062-7.109375 1.851562-10.835938 2.878906l-76.835937 16.800781c-20.355469 5.023438-22.265625 5.023438-42.621094 0l-87.671875-20.410156zm0 0" fill="#37474f"/><path d="m493.527344 144.039062c-9.484375 0-17.210938 7.84375-17.210938 17.449219v27.371094c0 9.605469 7.726563 17.449219 17.210938 17.449219 9.460937 0 17.183594-7.84375 17.183594-17.449219v-27.371094c0-9.605469-7.722657-17.449219-17.183594-17.449219zm0 0" fill="#ffd54f"/><path d="m212.5625 233.800781-10.308594-32.222656h-23.117187c-7.195313 0-13.101563 5.90625-13.101563 13.101563v37.09375c0 7.199218 5.90625 13.101562 13.101563 13.101562h23.117187zm0 0" fill="#c4cccf"/><path d="m202.253906 201.578125v63.296875l25.199219 14.070312c11.632813 6.929688 28.519531 5.285157 28.519531-14.097656v-63.238281c0-19.386719-16.886718-21.03125-28.519531-14.097656zm0 0" fill="#eceff1"/><path d="m229.039062 186.628906c3.730469 2.730469 6.226563 7.550782 6.226563 14.980469v63.238281c0 7.429688-2.496094 12.246094-6.226563 14.976563 11.542969 5.875 26.933594 3.527343 26.933594-14.976563v-63.238281c0-18.503906-15.390625-20.855469-26.933594-14.980469zm0 0" fill="#c4cccf"/></g></svg>