<?xml version="1.0" encoding="iso-8859-1"?>
<!-- Generator: Adobe Illustrator 19.0.0, SVG Export Plug-In . SVG Version: 6.00 Build 0)  -->
<svg version="1.1" id="Capa_1" xmlns="http://www.w3.org/2000/svg" xmlns:xlink="http://www.w3.org/1999/xlink" x="0px" y="0px"
	 viewBox="0 0 511.999 511.999" style="enable-background:new 0 0 511.999 511.999;" xml:space="preserve">
<path style="fill:#45CC5C;" d="M208.735,511.999c-114.455,0-207.57-88.511-207.57-197.305v-79.608
	c0-8.33,6.753-15.084,15.084-15.084h384.974c8.33,0,15.084,6.753,15.084,15.084v79.608
	C416.305,423.489,323.189,511.999,208.735,511.999z"/>
<path style="fill:#D5DEED;" d="M401.221,511.999H16.255c-8.33,0-15.084-6.753-15.084-15.084s6.753-15.084,15.084-15.084h384.966
	c8.33,0,15.084,6.753,15.084,15.084S409.551,511.999,401.221,511.999z"/>
<path style="fill:#FFCE1F;" d="M304.477,173.899c-3.581,0-7.177-1.262-10.058-3.824c-2.513-2.234-24.526-22.633-23.864-50.51
	c0.272-11.46,4.727-28.456,24.409-44.354c8.709-7.035,13.03-14.101,13.207-21.602c0.335-14.079-13.612-27.127-13.753-27.253
	c-6.225-5.536-6.784-15.071-1.247-21.295s15.072-6.783,21.295-1.247c2.513,2.234,24.526,22.633,23.864,50.51
	c-0.272,11.46-4.728,28.456-24.409,44.354c-8.667,7.001-12.987,14.03-13.204,21.489c-0.347,11.878,9.851,23.82,13.81,27.42
	c6.225,5.536,6.753,15.043,1.217,21.268C312.77,172.198,308.633,173.899,304.477,173.899z"/>
<g>
	<path style="fill:#FFDE42;" d="M208.772,173.899c-3.581,0-7.177-1.262-10.058-3.824c-2.513-2.234-24.526-22.633-23.864-50.51
		c0.273-11.46,4.727-28.456,24.409-44.354c8.709-7.035,13.03-14.101,13.207-21.602c0.335-14.079-13.612-27.127-13.753-27.253
		c-6.225-5.536-6.784-15.071-1.247-21.295s15.071-6.783,21.295-1.247c2.513,2.234,24.526,22.633,23.864,50.51
		c-0.273,11.46-4.728,28.456-24.409,44.354c-8.667,7.001-12.987,14.03-13.204,21.489c-0.347,11.878,9.851,23.82,13.81,27.42
		c6.225,5.536,6.753,15.043,1.217,21.268C217.065,172.198,212.928,173.899,208.772,173.899z"/>
	<path style="fill:#FFDE42;" d="M113.028,173.887c-3.566,0-7.145-1.257-10.019-3.813c-2.513-2.234-24.526-22.633-23.863-50.51
		c0.272-11.46,4.727-28.456,24.409-44.354c8.709-7.035,13.03-14.101,13.207-21.602c0.335-14.079-13.612-27.127-13.753-27.253
		c-6.225-5.536-6.784-15.071-1.247-21.295c5.536-6.225,15.072-6.783,21.295-1.247c2.513,2.234,24.526,22.633,23.864,50.51
		c-0.273,11.46-4.728,28.456-24.409,44.354c-8.709,7.035-13.029,14.101-13.207,21.602c-0.334,14.079,13.612,27.128,13.753,27.253
		c6.225,5.536,6.784,15.071,1.247,21.295C121.325,172.178,117.185,173.887,113.028,173.887z"/>
</g>
<path style="fill:#394257;" d="M434.157,399.504h-45.74c-8.33,0-15.084-6.753-15.084-15.084c0-8.33,6.753-15.084,15.084-15.084
	h45.74c25.646,0,46.511-20.865,46.511-46.511s-20.865-46.511-46.511-46.511h-32.936c-8.33,0-15.084-6.753-15.084-15.084
	c0-8.33,6.753-15.084,15.084-15.084h32.936c42.28,0,76.678,34.398,76.678,76.678S476.437,399.504,434.157,399.504z"/>
<g>
	<path style="fill:#FFCE1F;" d="M220.039,168.854c5.536-6.225,5.008-15.732-1.217-21.268c-2.339-2.127-6.854-7.166-10.088-13.383
		v39.694c0.013,0,0.025,0.002,0.038,0.002C212.928,173.899,217.065,172.198,220.039,168.854z"/>
	<path style="fill:#FFCE1F;" d="M218.762,3.812c-2.876-2.558-6.459-3.798-10.028-3.796v39.628c2.196,4.182,3.85,9.007,3.733,13.963
		c-0.094,3.928-1.333,7.735-3.733,11.482v43.718c2.184-3.413,5.329-6.776,9.483-10.131c19.682-15.899,24.138-32.895,24.409-44.354
		C243.287,26.446,221.274,6.046,218.762,3.812z"/>
</g>
<path style="fill:#05B036;" d="M401.221,220.002H208.735v291.997c114.455,0,207.57-88.511,207.57-197.305v-79.608
	C416.305,226.755,409.551,220.002,401.221,220.002z"/>
<path style="fill:#BAC6DB;" d="M401.221,481.832H208.735v30.167h192.486c8.33,0,15.084-6.753,15.084-15.084
	S409.551,481.832,401.221,481.832z"/>
<g>
</g>
<g>
</g>
<g>
</g>
<g>
</g>
<g>
</g>
<g>
</g>
<g>
</g>
<g>
</g>
<g>
</g>
<g>
</g>
<g>
</g>
<g>
</g>
<g>
</g>
<g>
</g>
<g>
</g>
</svg>
