<svg height="512pt" viewBox="-64 0 512 512" width="512pt" xmlns="http://www.w3.org/2000/svg"><path d="m336.335938 0h-224.933594c-3.980469 0-7.792969 1.582031-10.605469 4.394531l-96.402344 96.398438c-2.8125 2.8125-4.394531 6.628906-4.394531 10.605469v353.46875c0 25.988281 21.144531 47.132812 47.132812 47.132812h289.203126c25.914062 0 47.132812-20.953125 47.132812-47.132812v-417.734376c0-25.914062-20.953125-47.132812-47.132812-47.132812zm0 0" fill="#eff6fe"/><path d="m383.464844 47.128906v417.742188c0 26.179687-21.210938 47.128906-47.128906 47.128906h-144.601563v-512h144.601563c26.179687 0 47.128906 21.21875 47.128906 47.128906zm0 0" fill="#d9e4ef"/><path d="m95.335938 112.46875c9.445312 0 17.132812-7.6875 17.132812-17.132812v-95.335938h-1.070312c-3.976563 0-7.792969 1.582031-10.605469 4.394531l-96.398438 96.398438c-2.8125 2.8125-4.394531 6.628906-4.394531 10.605469v1.070312zm0 0" fill="#d9e4ef"/><path d="m207.800781 206.734375h20.171875l-16.585937 24.878906c-4.59375 6.894531-2.730469 16.207031 4.160156 20.800781 2.558594 1.703126 5.449219 2.519532 8.308594 2.519532 4.847656 0 9.605469-2.34375 12.496093-6.679688l32.132813-48.199218c3.359375-5.039063 3.359375-11.605469 0-16.644532l-32.132813-48.199218c-4.597656-6.894532-13.910156-8.757813-20.800781-4.160157-6.894531 4.597657-8.757812 13.910157-4.164062 20.800781l16.585937 24.882813h-20.171875c-79.144531 0-143.53125 64.386719-143.53125 143.53125 0 8.285156 6.714844 15 15 15 8.28125 0 15-6.714844 15-15-.003906-62.601563 50.929688-113.53125 113.53125-113.53125zm0 0" fill="#00d66a"/><path d="m304.199219 241c-8.28125 0-15 6.714844-15 15 0 62.601562-50.929688 113.53125-113.53125 113.53125h-20.171875l16.585937-24.878906c4.59375-6.890625 2.730469-16.207032-4.160156-20.800782-6.894531-4.59375-16.207031-2.734374-20.804687 4.160157l-32.132813 48.199219c-3.355469 5.039062-3.355469 11.605468 0 16.640624l32.132813 48.203126c2.785156 4.175781 11.621093 10.28125 20.804687 4.160156 6.890625-4.597656 8.753906-13.910156 4.160156-20.804688l-16.585937-24.878906h20.171875c79.144531 0 143.53125-64.386719 143.53125-143.53125 0-8.285156-6.714844-15-15-15zm0 0" fill="#3ab4fb"/><path d="m268.484375 200.050781-32.140625 48.199219c-2.890625 4.339844-7.640625 6.679688-12.488281 6.691406-2.863281 0-5.75-.820312-8.3125-2.53125-6.890625-4.589844-8.75-13.898437-4.160157-20.800781l16.589844-24.878906h-20.167968c-5.460938 0-10.820313.390625-16.070313 1.140625v-30.242188c5.28125-.597656 10.640625-.898437 16.070313-.898437h20.167968l-16.589844-24.878907c-4.589843-6.890624-2.730468-16.203124 4.160157-20.800781 6.902343-4.589843 16.210937-2.730469 20.800781 4.160157l32.140625 48.199218c3.359375 5.039063 3.359375 11.609375 0 16.640625zm0 0" fill="#00b85e"/><path d="m319.203125 256c0 73.710938-55.859375 134.621094-127.46875 142.628906v-30.238281c55.03125-7.820313 97.46875-55.242187 97.46875-112.390625 0-8.28125 6.710937-15 15-15 8.28125 0 15 6.71875 15 15zm0 0" fill="#1d9cfd"/></svg>