<?xml version="1.0" encoding="iso-8859-1"?>
<!-- Generator: Adobe Illustrator 19.0.0, SVG Export Plug-In . SVG Version: 6.00 Build 0)  -->
<svg version="1.1" id="Capa_1" xmlns="http://www.w3.org/2000/svg" xmlns:xlink="http://www.w3.org/1999/xlink" x="0px" y="0px"
	 viewBox="0 0 512.001 512.001" style="enable-background:new 0 0 512.001 512.001;" xml:space="preserve">
<path style="fill:#C27B48;" d="M271.521,100.782h-30.016c0-49.754-38.28-74.167-39.91-75.183L217.266,0
	C219.482,1.349,271.521,33.795,271.521,100.782z"/>
<path style="fill:#BDF052;" d="M383.448,450.989c-30.616,38.37-76.28,60.612-125.276,61.002c-0.72,0.01-1.451,0.01-2.171,0.01
	s-1.451,0-2.171-0.01c-48.996-0.39-94.66-22.632-125.276-61.002c-30.376-38.06-41.852-87.036-31.487-134.371
	c6.634-30.286,21.852-54.949,36.569-78.792c13.317-21.601,25.904-41.992,32.027-65.805c11.356-44.153,35.549-65.985,53.859-76.521
	c11.246-6.483,23.863-9.715,36.479-9.715s25.233,3.232,36.489,9.715c18.3,10.536,42.492,32.367,53.849,76.521
	c6.123,23.813,18.71,44.203,32.027,65.805c14.718,23.843,29.936,48.506,36.569,78.792
	C425.3,363.952,413.824,412.929,383.448,450.989z"/>
<path style="fill:#C27B48;" d="M232.312,55.626c7.109-15.828,4.767-10.582,12.245-27.405c0.24,0.106,24.208,10.463,42.342,2.424
	l12.16,27.443C278.967,66.992,251.918,64.434,232.312,55.626z"/>
<path style="fill:#11A892;" d="M396.635,34.969c-35.819,31.989-71.165,66.384-103.585,39.381
	c-17.898-14.922-20.372-41.515-5.393-59.481C315.569-18.611,358.966,11.947,396.635,34.969z"/>
<path style="fill:#0F9887;" d="M396.635,34.969c-35.819,31.989-71.165,66.384-103.585,39.381
	c-8.665-7.224-13.997-17.389-15.018-28.625L396.635,34.969z"/>
<path style="fill:#92D700;" d="M383.448,450.989c-30.616,38.37-76.28,60.612-125.276,61.002c-0.72,0.01-1.451,0.01-2.171,0.01
	V85.785c12.617,0,25.233,3.232,36.489,9.715c18.3,10.536,42.492,32.367,53.849,76.521c6.123,23.813,18.71,44.203,32.027,65.805
	c14.718,23.843,29.936,48.506,36.569,78.792C425.3,363.952,413.824,412.929,383.448,450.989z"/>
<g>
</g>
<g>
</g>
<g>
</g>
<g>
</g>
<g>
</g>
<g>
</g>
<g>
</g>
<g>
</g>
<g>
</g>
<g>
</g>
<g>
</g>
<g>
</g>
<g>
</g>
<g>
</g>
<g>
</g>
</svg>
