<svg id="Capa_1" enable-background="new 0 0 512 512" height="512" viewBox="0 0 512 512" width="512" xmlns="http://www.w3.org/2000/svg"><g><g><g><path d="m478.52 441.663h-445.043v-303.827c0-8.328 6.751-15.08 15.08-15.08h414.884c8.328 0 15.08 6.751 15.08 15.08v303.827z" fill="#82aee3"/><path d="m478.515 137.84v303.821h-20.67v-303.821c0-8.33-6.742-15.083-15.072-15.083h20.67c8.33 0 15.072 6.753 15.072 15.083z" fill="#528fd8"/></g><g><path d="m438.828 402.27h-365.656c-4.555 0-8.247-3.692-8.247-8.247v-230.375c0-4.555 3.692-8.247 8.247-8.247h365.656c4.555 0 8.247 3.692 8.247 8.247v230.376c0 4.554-3.692 8.246-8.247 8.246z" fill="#f9f3f1"/><path d="m447.073 163.643v230.383c0 4.557-3.691 8.247-8.247 8.247h-20.846c4.557 0 8.247-3.691 8.247-8.247v-230.383c0-4.546-3.691-8.237-8.247-8.237h20.846c4.557 0 8.247 3.691 8.247 8.237z" fill="#efe2dd"/></g><path d="m478.794 490.347h-445.591c-18.337 0-33.203-14.866-33.203-33.203v-14.424c0-3.695 2.996-6.691 6.691-6.691h498.614c3.695 0 6.691 2.996 6.691 6.691v14.423c.001 18.338-14.865 33.204-33.202 33.204z" fill="#0067c5"/><path d="m512 442.718v14.423c0 18.34-14.866 33.206-33.206 33.206h-20.67c18.34 0 33.206-14.866 33.206-33.206v-14.423c0-3.691-3-6.691-6.691-6.691h20.67c3.691 0 6.691 3 6.691 6.691z" fill="#0055a3"/></g><path d="m398.18 234.603h-172.188c-9.052 0-16.459 7.407-16.459 16.459v41.461c0 9.052 7.407 16.459 16.459 16.459h3.219c1.978 0 3.89.711 5.388 2.003l38.985 33.634c3.169 2.734 8.085.483 8.085-3.703v-23.687c0-4.555 3.693-8.247 8.247-8.247h108.264c9.052 0 16.459-7.407 16.459-16.459v-41.461c-.001-9.053-7.407-16.459-16.459-16.459z" fill="#b0e7c9"/><path d="m268.845 308.985h21.072c-4.557 0-8.247 3.691-8.247 8.247v23.681c0 4.186-4.918 6.443-8.083 3.711l-12.99-11.206v-16.186c.001-4.557 3.692-8.247 8.248-8.247z" fill="#91deb6"/><path d="m414.64 251.067v41.454c0 9.052-7.412 16.464-16.464 16.464h-21.072c9.052 0 16.464-7.412 16.464-16.464v-41.454c0-9.062-7.412-16.464-16.464-16.464h21.072c9.052 0 16.464 7.402 16.464 16.464z" fill="#91deb6"/><path d="m350.14 21.658h-234.554c-10.023 0-18.224 8.201-18.224 18.224v138.303c0 10.023 8.201 18.224 18.224 18.224l31.17.048c4.55.007 8.235 3.697 8.235 8.247v27.611c0 4.698 5.518 7.225 9.075 4.156l44.045-38c1.497-1.291 3.407-2.002 5.384-2.003l136.645-.059c10.023 0 18.224-8.201 18.224-18.224v-138.302c.001-10.024-8.2-18.225-18.224-18.225z" fill="#fd9468"/><path d="m368.361 39.88v138.31c0 10.021-8.196 18.217-18.216 18.217l-136.65.062c-1.979 0-3.887.711-5.382 2l-44.052 38c-3.557 3.072-9.072.546-9.072-4.155v-6.196l32.052-27.65c1.495-1.289 3.402-2 5.382-2l136.64-.062c10.031 0 18.227-8.196 18.227-18.217v-138.309c0-10.021-8.196-18.227-18.227-18.227h21.083c10.02 0 18.215 8.206 18.215 18.227z" fill="#fe7d43"/></g></svg>