<svg id="Capa_1" enable-background="new 0 0 512 512" height="512" viewBox="0 0 512 512" width="512" xmlns="http://www.w3.org/2000/svg"><g><path d="m296.032 411.516h-40.032l-10.008-15 10.008-15h40.032z" fill="#9b5e34"/><path d="m215.968 381.516h40.032v30h-40.032z" fill="#c9885b"/><path d="m75.048 411.516h-75.048v-306.443c0-41.382 33.667-75.048 75.048-75.048v30c-24.84 0-45.048 20.208-45.048 45.048v276.443h45.048z" fill="#c9885b"/><path d="m512 411.516h-75.048v-30h45.048v-276.443c0-24.84-20.208-45.048-45.048-45.048v-30c41.382 0 75.048 33.666 75.048 75.048z" fill="#9b5e34"/><ellipse cx="145.508" cy="396.516" fill="#dbad5c" rx="85.46" ry="85.46" transform="matrix(.924 -.383 .383 .924 -140.664 85.866)"/><ellipse cx="145.508" cy="396.516" fill="#fff5f5" rx="55.46" ry="55.46" transform="matrix(.383 -.924 .924 .383 -276.508 379.208)"/><circle cx="366.492" cy="396.516" fill="#c9885b" r="85.46"/><circle cx="366.492" cy="396.516" fill="#ebebf0" r="55.46"/></g></svg>