<svg id="Capa_1" enable-background="new 0 0 512 512" height="512" viewBox="0 0 512 512" width="512" xmlns="http://www.w3.org/2000/svg"><g><path d="m287 261.67-31 133.08h-.01c-76.63-.01-138.74-62.12-138.74-138.75 0-19.39 3.98-37.84 11.16-54.6 21.2-49.48 70.35-84.15 127.59-84.15z" fill="#9de1f7"/><path d="m394.75 256c0 76.63-62.12 138.75-138.75 138.75v-277.5c76.63 0 138.75 62.12 138.75 138.75z" fill="#7ed7f5"/><path d="m387.98 213.04-39.47 46.46c-10.92 13.16-29.88 16.24-44.41 7.21l-27.61-17.17c-10.57-6.57-16.16-17.78-16.16-29.11 0-8.27 2.98-16.61 9.16-23.26 8.49-9.13 11.34-22.15 7.45-34l-13.42-45.72c58.34 3.12 107.11 42.27 124.46 95.59z" fill="#00a963"/><path d="m255.99 394.75c-76.63-.01-138.74-62.12-138.74-138.75 0-19.39 3.98-37.84 11.16-54.6l26.47 11.46c12.06 4.89 20.23 19.08 20.23 35.11 0 14.999 7.338 29.381 19.49 34.78 11.335 5.031 20.784 7.568 26.92 22.61z" fill="#00cb76"/><path d="m103.7 141.14c8.28 0 15-6.72 15-15v-49.52c38.08-29.22 85.69-46.62 137.3-46.62l6.667-15-6.667-15c-57.85 0-112.78 19.07-157.6 54.22h-50.1c-8.28 0-15 6.71-15 15 0 8.28 6.72 15 15 15h17.88c-42.77 47.16-66.18 107.67-66.18 171.78 0 68.38 26.63 132.67 74.98 181.02s112.64 74.98 181.02 74.98l6.667-14.667-6.667-15.333c-124.62 0-226-101.38-226-226 0-58.37 22.24-111.64 58.7-151.78v21.92c0 8.28 6.71 15 15 15z" fill="#7ed7f5"/><path d="m463.49 427.95h-17.83c42.87-47.18 66.34-107.76 66.34-171.95 0-68.38-26.63-132.67-74.98-181.02-48.35-48.35-112.64-74.98-181.02-74.98v30c124.62 0 226 101.38 226 226 0 58.48-22.33 111.84-58.91 152.02v-21.99c0-8.28-6.71-15-15-15-8.28 0-15 6.72-15 15v49.51c-38.05 29.13-85.58 46.46-137.09 46.46v30c57.76 0 112.61-19 157.39-54.05h50.1c8.28 0 15-6.72 15-15 0-8.29-6.72-15-15-15z" fill="#2fbfef"/></g></svg>