<svg id="Capa_1" enable-background="new 0 0 512 512" height="512" viewBox="0 0 512 512" width="512" xmlns="http://www.w3.org/2000/svg"><g><path d="m256 0 31.82 266.16-31.82 245.84h-36.33c-16.55 0-30-13.46-30-30v-12.94c0-19.77-10.76-38.22-28.07-48.15l-.85-.49c-17.49-10.15-39.02-10.3-56.19-.39l-11.12 6.42c-14.32 8.27-32.71 3.34-40.98-10.98l-36.33-62.94c-8.27-14.32-3.34-32.71 10.98-40.98l11.17-6.44c17.14-9.9 27.77-28.55 27.72-48.66v-.92c.05-20.09-10.58-38.74-27.72-48.64l-11.17-6.44c-14.32-8.27-19.25-26.66-10.98-40.98l36.33-62.94c8.308-14.358 26.63-19.263 40.98-10.98l11.12 6.42c17.17 9.91 38.7 9.76 56.2-.4l.84-.48c17.31-9.93 28.07-28.38 28.07-48.15v-12.94c0-16.54 13.45-30 30-30z" fill="#8dc5e8"/><path d="m495.87 352.53-36.33 62.94c-4.01 6.94-10.48 11.9-18.22 13.97-7.74 2.08-15.83 1.01-22.77-2.99l-11.11-6.42c-17.17-9.91-38.7-9.76-56.2.4l-.78.45c-17.37 9.96-28.13 28.41-28.13 48.18v12.94c0 16.54-13.45 30-30 30h-36.33v-512h36.33c16.55 0 30 13.46 30 30v12.94c0 19.77 10.76 38.22 28.07 48.15l.85.49c17.49 10.15 39.02 10.3 56.19.39l11.11-6.42c6.95-4 15.03-5.07 22.77-2.99 7.74 2.07 14.21 7.04 18.22 13.98l36.33 62.93c8.27 14.32 3.34 32.71-10.98 40.98l-11.17 6.44c-17.14 9.9-27.77 28.55-27.72 48.66v.86c-.05 20.15 10.58 38.8 27.72 48.7l11.17 6.44c14.32 8.27 19.25 26.66 10.98 40.98z" fill="#5e9ff6"/><path d="m256 125.79 31.36 113.69-31.36 146.73c-71.8 0-130.21-58.41-130.21-130.21s58.41-130.21 130.21-130.21z" fill="#ffd92e"/><path d="m386.21 256c0 71.8-58.41 130.21-130.21 130.21v-260.42c71.8 0 130.21 58.41 130.21 130.21z" fill="#ffb54c"/><g><path d="m256.407 235.29 8.333 14.043-8.333 21.647c-.19.02-.217.02-.407.02-3.68 0-7.523-1.35-10.403-4.03l-17.25-16.1c-6.06-5.65-6.39-15.14-.74-21.2s15.14-6.39 21.2-.74l7.193 6.72z" fill="#8dc5e8"/></g><path d="m296.834 219.03c-5.548-6.152-15.032-6.644-21.185-1.095l-19.649 17.712v35.353c3.593 0 7.022-1.284 9.878-3.86l29.861-26.924c6.152-5.548 6.643-15.033 1.095-21.186z" fill="#5e9ff6"/></g></svg>