<svg height="512pt" viewBox="0 0 512 512.00049" width="512pt" xmlns="http://www.w3.org/2000/svg"><path d="m332 137v92.398438c0 95.402343-56.398438 182.402343-144 221.402343-1.800781.898438-3.898438 1.199219-6 1.199219s-4.199219-.300781-6-1.199219c-87.597656-39-146-126-146-221.402343v-92.398438c0-8.402344 6.597656-15 15-15h272c8.402344 0 15 6.597656 15 15zm0 0" fill="#ff9f00"/><path d="m332 137v92.398438c0 95.402343-56.398438 182.402343-144 221.402343-1.800781.898438-3.898438 1.199219-6 1.199219v-330h135c8.402344 0 15 6.597656 15 15zm0 0" fill="#ff7816"/><path d="m362 122c0 16.5-13.5 30-30 30h-302c-16.5 0-30-13.5-30-30 0-33 28-60 61-60h91v-47c0-8.402344 6.597656-15 15-15h30c8.402344 0 15 6.597656 15 15v47h90c33 0 60 27 60 60zm0 0" fill="#b35f49"/><path d="m362 122c0 16.5-13.5 30-30 30h-150v-152h15c8.402344 0 15 6.597656 15 15v47h90c33 0 60 27 60 60zm0 0" fill="#99503d"/><path d="m433.441406 160.910156 46.199219 80.019532c47.703125 82.621093 42.359375 186.164062-14.003906 263.738281-1.109375 1.679687-2.777344 2.988281-4.597657 4.039062-1.820312 1.050781-3.789062 1.839844-5.796874 1.960938-95.363282 10.023437-187.707032-37.117188-235.40625-119.738281l-46.199219-80.019532c-4.199219-7.277344-1.785157-16.292968 5.488281-20.492187l233.828125-135c7.273437-4.199219 16.289063-1.785157 20.488281 5.492187zm0 0" fill="#ff9f00"/><path d="m433.441406 160.910156 46.199219 80.019532c47.703125 82.621093 42.359375 186.164062-14.003906 263.738281-1.109375 1.679687-2.777344 2.988281-4.597657 4.039062l-165-285.789062 116.914063-67.5c7.273437-4.199219 16.289063-1.785157 20.488281 5.492187zm0 0" fill="#ff7816"/><path d="m451.925781 132.917969c8.25 14.289062 3.304688 32.730469-10.984375 40.980469l-259.804687 150c-14.289063 8.25-32.734375 3.308593-40.984375-10.980469-16.5-28.578125-6.613282-65.460938 21.964844-81.960938l77.941406-45-22.5-38.972656c-4.199219-7.273437-1.785156-16.289063 5.488281-20.488281l25.980469-15c7.277344-4.199219 16.292968-1.785156 20.492187 5.488281l22.5 38.972656 77.941407-45c28.578124-16.5 65.460937-6.617187 81.964843 21.960938zm0 0" fill="#c6715a"/><path d="m451.925781 132.917969c8.25 14.289062 3.304688 32.730469-10.984375 40.980469l-129.902344 75-75-129.902344 12.988282-7.5c7.277344-4.199219 16.292968-1.785156 20.492187 5.488281l22.5 38.972656 77.941407-45c28.578124-16.5 65.460937-6.617187 81.964843 21.960938zm0 0" fill="#b35f49"/></svg>