<?xml version="1.0" encoding="iso-8859-1"?>
<!-- Generator: Adobe Illustrator 19.0.0, SVG Export Plug-In . SVG Version: 6.00 Build 0)  -->
<svg xmlns="http://www.w3.org/2000/svg" xmlns:xlink="http://www.w3.org/1999/xlink" version="1.1" id="Layer_1" x="0px" y="0px" viewBox="0 0 512 512" style="enable-background:new 0 0 512 512;" xml:space="preserve">
<path style="fill:#66C6B9;" d="M210.133,299.733c38.4-90.667-9.6-183.467-105.6-206.933  C66.133,184.533,113.067,277.333,210.133,299.733z"/>
<g>
	<polygon style="fill:#415A6B;" points="188.8,253.867 190.933,188.8 182.4,250.667  "/>
	<polygon style="fill:#415A6B;" points="174.933,225.067 118.4,194.133 172.8,230.4  "/>
	<polygon style="fill:#415A6B;" points="154.667,193.067 158.933,200.533 161.067,146.133  "/>
	<path style="fill:#415A6B;" d="M221.867,449.067h36.267c0-137.6-123.733-288-123.733-288S235.733,313.6,221.867,449.067z"/>
</g>
<path style="fill:#66C6B9;" d="M321.067,230.4c170.667,54.4,145.067-171.733,176-230.4C417.067,56.533,259.2,57.6,321.067,230.4z"/>
<g>
	<path style="fill:#415A6B;" d="M356.267,170.667l-1.067,10.667c32-7.467,61.867-19.2,84.267-37.333   C417.067,158.933,388.267,166.4,356.267,170.667z"/>
	<path style="fill:#415A6B;" d="M374.4,142.933l8.533,1.067c1.067-27.733,5.333-51.2,12.8-71.467   C385.067,91.733,377.6,115.2,374.4,142.933z"/>
	<path style="fill:#415A6B;" d="M395.733,125.867c28.8-10.667,48-22.4,61.867-33.067c-12.8,6.4-34.133,20.267-56.533,24.533   L395.733,125.867z"/>
	<path style="fill:#415A6B;" d="M277.333,449.067C294.4,301.867,350.933,169.6,448,69.333   c-113.067,91.733-190.933,226.133-210.133,379.733H277.333z"/>
</g>
<path style="fill:#FFD15C;" d="M512,512c-71.467-41.6-160-67.2-256-67.2S71.467,470.4,0,512H512z"/>
<g>
</g>
<g>
</g>
<g>
</g>
<g>
</g>
<g>
</g>
<g>
</g>
<g>
</g>
<g>
</g>
<g>
</g>
<g>
</g>
<g>
</g>
<g>
</g>
<g>
</g>
<g>
</g>
<g>
</g>
</svg>
