<svg id="Capa_1" enable-background="new 0 0 512 512" height="512" viewBox="0 0 512 512" width="512" xmlns="http://www.w3.org/2000/svg"><path d="m256.009 512c-2.358 0-4.713-.556-6.863-1.662l-4.419-2.268c-37.474-19.216-94.105-48.255-141.082-110.131-25.725-33.886-45.761-74.203-59.549-119.834-15.989-52.909-24.096-114.633-24.096-183.456 0-5.21 2.703-10.047 7.141-12.776 4.439-2.729 9.975-2.962 14.624-.611 24.519 12.387 64.992 11.659 105.625-1.902 43.819-14.626 78.607-40.703 95.443-71.546 2.682-4.912 7.901-7.929 13.473-7.81 5.597.114 10.664 3.336 13.142 8.354 15.336 31.051 49.087 56.88 92.6 70.866 40.101 12.89 81.843 13.534 108.941 1.682 4.637-2.03 9.984-1.582 14.222 1.189 4.236 2.771 6.789 7.492 6.789 12.554 0 70.252-8.222 133.104-24.438 186.81-14.028 46.462-34.4 87.261-60.548 121.266-44.326 57.644-95.821 85.954-144.865 107.962-1.956.877-4.05 1.313-6.14 1.313z" fill="#2698d1"/><path d="m262.149 510.686c49.044-22.008 100.539-50.318 144.865-107.962 26.148-34.005 46.52-74.804 60.548-121.266 16.216-53.705 24.438-116.557 24.438-186.809 0-5.062-2.553-9.782-6.789-12.554-4.238-2.771-9.585-3.22-14.222-1.189-27.098 11.853-68.84 11.208-108.941-1.682-43.512-13.986-77.264-39.815-92.6-70.866-2.479-5.019-7.546-8.24-13.142-8.354v511.982c1.991-.041 3.98-.464 5.843-1.3z" fill="#125994"/><path d="m252.503 438.782c-28.706-15.587-65.684-38.783-97.086-80.146-36.413-47.964-58.962-112.888-67.022-192.969l-1.048-10.412 10.449-.574c53.116-2.918 109.496-24.031 150.817-56.479l6.257-4.913 6.194 4.993c40.49 32.638 97.752 53.508 153.175 55.828l10.548.441-1.013 10.509c-7.987 82.871-30.962 149.502-68.288 198.041-31.736 41.271-68.655 63.024-93.664 75.798l-4.691 2.397z" fill="#fff566"/><path d="m261.065 98.282-4.759-3.836v346.401l.826.449 4.691-2.397c25.009-12.773 61.928-34.527 93.664-75.798 37.326-48.539 60.301-115.17 68.288-198.041l1.013-10.509-10.548-.441c-55.423-2.32-112.685-23.191-153.175-55.828z" fill="#ffe645"/><path d="m257.132 456.295c-2.465 0-4.927-.606-7.158-1.818l-4.629-2.514v.001c-30.027-16.305-68.743-40.616-101.876-84.258-38.108-50.196-61.659-117.666-70-200.537l-1.048-10.412c-.41-4.076.865-8.142 3.528-11.255 2.664-3.112 6.484-5 10.574-5.225l10.449-.574c50.16-2.756 103.385-22.681 142.376-53.299l6.258-4.914c5.494-4.313 13.239-4.264 18.677.119l6.194 4.993c38.081 30.695 92.058 50.329 144.389 52.52l10.548.441c4.116.173 7.98 2.03 10.686 5.137 2.705 3.106 4.014 7.189 3.618 11.29l-1.013 10.509c-8.261 85.717-32.259 154.939-71.328 205.745-33.58 43.67-72.431 66.579-98.732 80.013l-4.69 2.396c-2.143 1.096-4.484 1.642-6.823 1.642zm-153.272-286.979c8.205 74.919 29.559 135.538 63.503 180.25 28.842 37.991 62.943 59.915 89.98 74.769 23.641-12.265 57.334-32.771 86.253-70.377 34.81-45.267 56.574-107.529 64.724-185.136-55.457-3.431-112.199-24.262-153.57-56.408-41.957 31.857-97.704 52.866-150.89 56.902z" fill="#ffcf2c"/><path d="m425.415 139.564-10.548-.441c-52.332-2.191-106.309-21.824-144.389-52.52l-6.194-4.993c-2.351-1.895-5.133-2.976-7.978-3.249v35.234c41.232 31.47 97.244 51.838 152.015 55.227-8.15 77.606-29.915 139.868-64.724 185.136-28.919 37.607-62.612 58.112-86.253 70.377-.343-.189-.692-.383-1.038-.574v32.51c.275.015.551.025.826.025 2.339 0 4.68-.547 6.824-1.643l4.69-2.396c26.301-13.434 65.151-36.343 98.732-80.013 39.069-50.806 63.067-120.028 71.328-205.745l1.013-10.509c.396-4.101-.913-8.184-3.618-11.29-2.706-3.106-6.57-4.963-10.686-5.136z" fill="#ffb500"/><path d="m238.957 345.376c-.102 0-.203-.001-.305-.003-4.615-.094-8.93-2.307-11.699-6l-50.448-67.3c-4.969-6.629-3.623-16.03 3.005-20.999 6.629-4.971 16.031-3.624 20.999 3.005l38.939 51.946 81.931-100.549c5.234-6.422 14.682-7.385 21.103-2.152 6.422 5.232 7.386 14.681 2.153 21.104l-94.052 115.424c-2.85 3.499-7.122 5.524-11.626 5.524z" fill="#006099"/><path d="m342.483 203.325c-6.421-5.232-15.869-4.27-21.103 2.152l-65.074 79.861v47.492l88.331-108.402c5.232-6.423 4.269-15.871-2.154-21.103z" fill="#004373"/></svg>