<svg id="Capa_1" enable-background="new 0 0 490.278 490.278" height="512" viewBox="0 0 490.278 490.278" width="512" xmlns="http://www.w3.org/2000/svg"><g><path d="m313.707 386.971h-137.136l-13.952 60.683h165.041z" fill="#62667c"/><path d="m23.628 33.221h443.023c13.049 0 23.628 10.579 23.628 23.628v312.768c0 13.049-10.579 23.628-23.628 23.628h-443.023c-13.049 0-23.628-10.579-23.628-23.628v-312.768c0-13.05 10.579-23.628 23.628-23.628z" fill="#575b6d"/><path d="m29.121 62.348h432.03v272.648h-432.03z" fill="#69b0ee"/><path d="m160.156 433.087h169.967c13.049 0 23.628 10.579 23.628 23.628v.343h-217.223v-.343c0-13.049 10.578-23.628 23.628-23.628z" fill="#575b6d"/><g fill="#414451"><circle cx="412.608" cy="364.218" r="10.621"/><circle cx="370.137" cy="364.218" r="10.621"/><circle cx="327.66" cy="364.218" r="10.621"/></g><circle cx="245.139" cy="198.669" fill="#eeefee" r="79.768"/><path d="m286.423 202.131-58.243 38.348c-1.901 1.266-4.468.751-5.733-1.15-.456-.685-.697-1.489-.693-2.312v-76.726c-.011-2.284 1.831-4.144 4.115-4.155.822-.004 1.627.237 2.312.693l58.243 38.395c1.907 1.257 2.434 3.821 1.177 5.728-.309.469-.71.87-1.178 1.179z" fill="#ef5261"/></g></svg>