<?xml version="1.0" encoding="iso-8859-1"?>
<!-- Generator: Adobe Illustrator 19.0.0, SVG Export Plug-In . SVG Version: 6.00 Build 0)  -->
<svg xmlns="http://www.w3.org/2000/svg" xmlns:xlink="http://www.w3.org/1999/xlink" version="1.1" id="Layer_1" x="0px" y="0px" viewBox="0 0 491.52 491.52" style="enable-background:new 0 0 491.52 491.52;" xml:space="preserve">
<path style="fill:#EBF0F3;" d="M223.98,2.283c-39.228,8.212-70.39,40.71-77.358,80.176c-5.574,31.582,3.622,60.942,21.78,82.59  c21.197,25.281,35.097,55.844,35.097,88.836v9.846h84.524v-9.89c0-32.765,13.48-63.337,34.693-88.313  c14.833-17.466,23.801-40.033,23.801-64.771C346.517,37.998,289.136-11.36,223.98,2.283z"/>
<rect x="203.459" y="263.731" style="fill:#64798A;" width="84.603" height="48.84"/>
<path style="fill:#3A556A;" d="M282.443,77.81c-12.091,0-21.934,9.843-21.934,21.956v11.073h-14.743h-14.743V99.766  c0-12.113-9.843-21.956-21.956-21.956c-12.091,0-21.934,9.843-21.934,21.956c0,12.091,9.843,21.934,21.934,21.934h11.492  l10.803,142.445l10.819-0.806L231.446,121.7h14.319h14.318l-10.754,141.639l10.818,0.806L270.966,121.7h11.477  c12.113,0,21.955-9.843,21.955-21.934C304.397,87.653,294.555,77.81,282.443,77.81z M209.067,110.839  c-6.109,0-11.073-4.964-11.073-11.073c0-6.109,4.964-11.094,11.073-11.094c6.109,0,11.094,4.985,11.094,11.094v11.073h-0.424  H209.067z M282.443,110.839h-10.649h-0.424V99.766c0-6.109,4.964-11.094,11.073-11.094c6.109,0,11.094,4.985,11.094,11.094  C293.537,105.875,288.552,110.839,282.443,110.839z"/>
<rect x="245.76" y="218.829" style="fill:#FCD462;" width="166.339" height="272.691"/>
<g>
	<polygon style="fill:#F6C358;" points="448.647,300.55 282.309,300.55 245.76,218.829 412.098,218.829  "/>
	<rect x="79.411" y="218.829" style="fill:#F6C358;" width="166.339" height="272.691"/>
</g>
<polygon style="fill:#DC8744;" points="42.873,300.55 209.211,300.55 245.76,218.829 79.422,218.829 "/>
<g>
</g>
<g>
</g>
<g>
</g>
<g>
</g>
<g>
</g>
<g>
</g>
<g>
</g>
<g>
</g>
<g>
</g>
<g>
</g>
<g>
</g>
<g>
</g>
<g>
</g>
<g>
</g>
<g>
</g>
</svg>
