<svg id="color" enable-background="new 0 0 24 24" height="512" viewBox="0 0 24 24" width="512" xmlns="http://www.w3.org/2000/svg"><g><g><path d="m21.25 17c-.414 0-.75-.336-.75-.75v-2c0-.414.336-.75.75-.75s.75.336.75.75v2c0 .414-.336.75-.75.75z" fill="#ff9800"/></g></g><g><g><path d="m16.75 17c-.414 0-.75-.336-.75-.75v-2c0-.414.336-.75.75-.75s.75.336.75.75v2c0 .414-.336.75-.75.75z" fill="#ff9800"/></g></g><g><g><path d="m16.75 13.48c-.414 0-.75.336-.75.75v2c0 .414.336.75.75.75z" fill="#de8400"/></g></g><g><g><path d="m21.25 13.48c-.414 0-.75.336-.75.75v2c0 .414.336.75.75.75z" fill="#de8400"/></g></g><g><g><path d="m16 18.89v2.11c0 1.65-1.35 3-3 3h-10c-1.65 0-3-1.35-3-3v-18c0-1.65 1.35-3 3-3h10c1.43 0 2.63 1.01 2.93 2.36l-.55.79c-.9 1.31-1.38 2.83-1.38 4.41v-4.56c0-.55-.45-1-1-1h-10c-.55 0-1 .45-1 1v16h12v-2.12l.09.03c.24.96.97 1.72 1.91 1.98z" fill="#607d8b"/></g></g><g><g><path d="m14 3v6.36l-.61.61c-.9.9-1.39 2.09-1.39 3.36v.92c0 1.26.84 2.3 2 2.63v2.12h-12v-16c0-.55.45-1 1-1h10c.55 0 1 .45 1 1z" fill="#fafafa"/></g></g><g><g><path d="m8 0h-5c-1.65 0-3 1.35-3 3v18c0 1.65 1.35 3 3 3h5v-5h-6v-16c0-.55.45-1 1-1h5z" fill="#546d79"/></g></g><g><g><path d="m8 2h-5c-.55 0-1 .45-1 1v16h6z" fill="#dadada"/></g></g><g><g><path d="m23.25 15h-8.5c-.414 0-.75-.336-.75-.75v-.921c0-.735.286-1.425.806-1.945l1.194-1.195v-2.627c0-1.174.354-2.306 1.021-3.273l1.362-1.966c.279-.405.953-.405 1.232 0l1.361 1.966c.67.967 1.024 2.099 1.024 3.273v2.627l1.194 1.194c.52.52.806 1.21.806 1.945v.921c0 .415-.336.751-.75.751z" fill="#eceff1"/></g></g><g><g><path d="m19 2.019c-.238 0-.477.101-.616.304l-1.362 1.966c-.668.967-1.022 2.099-1.022 3.273v2.627l-1.194 1.194c-.52.52-.806 1.21-.806 1.945v.921c0 .414.336.75.75.75h1.25 1.5 1.5z" fill="#cdd0d2"/></g></g></svg>