<svg id="Capa_1" enable-background="new 0 0 512 512" height="512" viewBox="0 0 512 512" width="512" xmlns="http://www.w3.org/2000/svg"><g><g><path d="m25.023 363.22c-13.82 0-25.023-11.204-25.023-25.024v-327.803h157.398l43.607 34.211h175.981v50.047c-125.39 108.097-206.603 268.569-351.963 268.569z" fill="#3d9ae2"/><g><path d="m50.047 94.651v243.545c0 13.82-11.203 25.023-25.023 25.023h201.005l23.555-148.725-23.556-119.843z" fill="#96c8ef"/><path d="m226.028 94.651v268.569h150.958c13.82 0 25.023-11.203 25.023-25.023v-243.546z" fill="#69b1e9"/></g></g><g><g><g><path d="m380.587 322.298 131.413 131.429-24.101 24.105-79.756-51.667-51.469-79.949z" fill="#a2abb8"/><path d="m332.716 370.178 23.958-23.962 131.225 131.616-23.77 23.775z" fill="#7e8b96"/></g><path d="m252.817 242.048c34.607-34.393 90.542-34.219 124.935.388s34.219 90.542-.388 124.935l-75.788-47.888z" fill="#fff5f5"/><path d="m377.364 367.371c-34.607 34.393-90.542 34.219-124.935-.388s-34.219-90.542.388-124.935z" fill="#dce6eb"/></g><g><path d="m366.766 356.707c13.319-13.239 21.604-31.552 21.667-51.77.125-40.441-32.673-73.444-73.114-73.57-20.221-.063-38.582 8.106-51.903 21.345l-17.669-3.593-3.468-17.676c18.771-18.655 44.642-30.164 73.134-30.076 56.982.177 103.197 46.68 103.02 103.662-.088 28.491-11.759 54.291-30.529 72.945l-17.61-3.534z" fill="#c8d2dc"/><path d="m211.749 304.389c.088-28.491 11.759-54.291 30.529-72.945l21.137 21.269c-13.322 13.239-21.604 31.549-21.667 51.77-.125 40.441 32.673 73.444 73.114 73.57 20.223.063 38.582-8.103 51.903-21.345l21.137 21.269c-18.771 18.655-44.642 30.164-73.134 30.076-56.982-.178-103.197-46.681-103.019-103.664z" fill="#a2abb8"/></g></g></g></svg>