<svg id="Capa_1" enable-background="new 0 0 512 512" height="512" viewBox="0 0 512 512" width="512" xmlns="http://www.w3.org/2000/svg"><g><path d="m333.988 272.216c14.484-36.911 42.467-69.841 42.662-110.157.099-20.509-3.977-41.039-12.06-60.176h-108.59-108.59c-8.083 19.137-12.159 39.666-12.06 60.176.195 40.317 28.178 73.246 42.662 110.157 1.098 2.797 2.058 5.656 2.895 8.565.09.312 1.78 1.652 1.867 1.965 4.733 17.034 4.928 34.702 4.19 52.799-.024.585-1.255 1.165-1.281 1.749-.352 7.755-.933 15.388-1.52 22.719-1.728 21.604-6.077 76.906-9.029 114.493-.064.809 3.199 1.609 3.137 2.401-.587 7.481-1.986 14.184-1.545 19.677.71 8.85 5.362 13.175 10.929 12.082l68.345.567 68.253.284c8.338 0 12.297-5.32 11.644-13.633-.41-5.222-.299-10.855-.852-17.893-.09-1.152 1.913-2.306 1.82-3.494-2.952-37.586-7.301-92.883-9.029-114.485-.586-7.329-1.167-14.96-1.519-22.713-.02-.441-1.191-1.173-1.21-1.615-.749-17.845-.585-36.064 3.911-52.939.182-.682 1.881-1.293 2.076-1.969.837-2.907 1.797-5.764 2.894-8.56z" fill="#fee45a"/><path d="m338.604 496.585c.648 8.315-5.918 15.415-14.263 15.415h-19.933c8.336 0 14.911-7.1 14.253-15.415-2.593-33.095-8.644-110.111-10.754-136.568-2.264-28.197-4.435-60.839 6.144-87.8 14.489-36.913 42.47-69.843 42.665-110.162.103-20.509-3.983-41.039-12.061-60.17h19.933c8.089 19.131 12.164 39.66 12.061 60.17-.196 40.319-28.176 73.249-42.655 110.162-1.098 2.796-2.059 5.653-2.897 8.56-.082.285-1.3.984-1.38 1.271-4.833 17.324-5.403 35.244-4.609 53.637.013.301 1.198 1.311 1.212 1.612.353 7.755.934 15.388 1.52 22.72 2.109 26.457 8.16 103.472 10.764 136.568z" fill="#fedf30"/><path d="m336.865 474.5h-161.73l-1.733 22.079c-.652 8.312 5.917 15.417 14.254 15.417h136.688c8.338 0 14.907-7.105 14.254-15.417z" fill="#fac600"/><path d="m326.316 337.295h-140.632c.864-18.976.36-38.683-4.785-56.516h150.203c-5.146 17.833-5.65 37.54-4.786 56.516z" fill="#d77f4a"/><path d="m331.102 280.778c-.196.669-.391 1.348-.566 2.037-1.438 5.667-2.633 11.538-3.293 17.474-.4 3.602-.697 7.216-.905 10.835-.202 3.512-.304 7.029-.331 10.546-.009 1.117.031 15.624.31 15.624h-19.933c-.864-18.976-.36-38.683 4.775-56.516z" fill="#c86d36"/><path d="m375.738 70.595c-1.054-20.812-17.947-37.731-38.757-38.815-10.032-.523-19.328 2.563-26.706 8.074-7.232-23.095-28.796-39.854-54.275-39.854s-47.043 16.759-54.275 39.853c-7.382-5.513-16.682-8.599-26.719-8.073-20.73 1.086-37.584 17.883-38.734 38.609-.671 12.081 3.891 23.104 11.626 31.011l56.673.085c9.277.014 16.79 7.538 16.79 16.815v62.949c0 11.45 9.282 20.733 20.733 20.733 11.45 0 20.733-9.282 20.733-20.733v-51.56c0-9.296 7.544-16.829 16.84-16.815 9.277.014 16.79 7.538 16.79 16.815v20.262c0 11.45 9.282 20.733 20.733 20.733 11.45 0 20.733-9.282 20.733-20.733v-31.427c0-9.296 7.544-16.829 16.84-16.815l9.021.013c7.882-7.883 12.57-18.962 11.954-31.127z" fill="#f3f0f3"/><path d="m363.785 101.72-9.025-.01c-9.292-.01-16.836 7.522-16.836 16.815v31.428c0 5.732-2.315 10.908-6.071 14.664-3.756 3.746-8.943 6.072-14.664 6.072-5.228 0-10.013-1.945-13.666-5.145 2.068-.998 3.941-2.346 5.547-3.952 3.756-3.756 6.072-8.932 6.072-14.664v-43.21c0-9.303 7.543-16.825 16.836-16.815h.031c9.46 0 16.207-5.662 19.643-14.108 3.163-7.774-.116-19.188-4.519-26.133-2.639-4.162-11.985-15.348-17.799-14.579 2.49-.329 5.042-.432 7.646-.298 20.818 1.08 37.705 17.998 38.765 38.806.605 12.173-4.077 23.246-11.96 31.129z" fill="#e2dee2"/><path d="m256 365.318c-20.419 0-36.972-16.553-36.972-36.972v-42.813c0-20.419 16.553-36.972 36.972-36.972 20.419 0 36.972 16.553 36.972 36.972v42.813c0 20.419-16.553 36.972-36.972 36.972z" fill="#00c27a"/><path d="m256 365.318c-20.419 0-36.972-16.553-36.972-36.972v-42.813c0-20.419 16.553-36.972 36.972-36.972 20.419 0 36.972 16.553 36.972 36.972v42.813c0 20.419-16.553 36.972-36.972 36.972z" fill="#00c27a"/><path d="m292.975 285.532v42.809c0 20.427-16.558 36.974-36.975 36.974-3.612 0-7.111-.515-10.404-1.482 15.354-4.497 26.571-18.678 26.571-35.493v-42.809c0-10.208-4.137-19.449-10.836-26.138-4.322-4.333-9.704-7.584-15.734-9.344 3.293-.978 6.792-1.492 10.404-1.492 10.208 0 19.449 4.137 26.138 10.836 6.699 6.69 10.836 15.931 10.836 26.139z" fill="#08b865"/></g></svg>