<?xml version="1.0" encoding="iso-8859-1"?>
<!-- Generator: Adobe Illustrator 19.0.0, SVG Export Plug-In . SVG Version: 6.00 Build 0)  -->
<svg xmlns="http://www.w3.org/2000/svg" xmlns:xlink="http://www.w3.org/1999/xlink" version="1.1" id="Capa_1" x="0px" y="0px" viewBox="0 0 512.001 512.001" style="enable-background:new 0 0 512.001 512.001;" xml:space="preserve">
<path style="fill:#BD0058;" d="M332.423,334.347c0.061-0.21,0.117-0.421,0.168-0.633c0.884-3.647,1.333-7.398,1.333-11.149V158.841  c0-8.812-3.078-17.417-8.668-24.23l-14.065-17.141c-7.199-8.774-11.164-19.857-11.164-31.208v-24.64c0-8.284-6.716-15-15-15h-58.051  c-8.284,0-15,6.716-15,15v24.64c0,11.35-3.965,22.433-11.164,31.208l-14.065,17.141c-5.59,6.813-8.668,15.418-8.668,24.23v163.723  c0,3.751,0.448,7.502,1.333,11.149c0.051,0.212,0.107,0.423,0.168,0.633l14.14,48.895c0.567,2.514,0.564,5.16-0.01,7.672  l-14.504,63.494c-0.748,3.271-1.126,6.63-1.126,9.985v2.776c0,24.719,20.111,44.83,44.928,44.83c3.957,0,7.899-0.524,11.723-1.56  l21.27-5.76l21.272,5.763c3.823,1.035,7.766,1.56,11.723,1.56c24.817,0,44.928-20.111,44.928-44.83v-2.776  c0-3.355-0.379-6.714-1.126-9.985l-14.504-63.494c-0.574-2.512-0.577-5.158-0.01-7.672L332.423,334.347z"/>
<path style="fill:#E83A71;" d="M256.001,46.623h-29.026c-8.284,0-15,6.716-15,15v24.64c0,11.35-3.965,22.433-11.164,31.208  l-14.065,17.141c-5.59,6.813-8.668,15.418-8.668,24.23v163.723c0,3.751,0.448,7.502,1.333,11.149  c0.051,0.212,0.107,0.423,0.168,0.633l14.14,48.895c0.567,2.514,0.564,5.16-0.01,7.672l-14.504,63.494  c-0.748,3.271-1.126,6.63-1.126,9.985v2.776c0,24.719,20.111,44.83,44.928,44.83c3.957,0,7.899-0.524,11.723-1.56l21.271-5.761  V46.623z"/>
<path style="fill:#3A3A7D;" d="M294.986,0h-77.971c-8.284,0-15,6.716-15,15v45.714c0,8.284,6.716,15,15,15h77.971  c8.284,0,15-6.716,15-15V15C309.986,6.716,303.271,0,294.986,0z"/>
<rect x="178.081" y="170.67" style="fill:#C8C5E8;" width="155.84" height="147.76"/>
<rect x="178.081" y="170.67" style="fill:#E8E7F3;" width="77.922" height="147.76"/>
<path style="fill:#5155A2;" d="M256.001,0h-38.985c-8.284,0-15,6.716-15,15v45.714c0,8.284,6.716,15,15,15h38.985V0z"/>
<g>
</g>
<g>
</g>
<g>
</g>
<g>
</g>
<g>
</g>
<g>
</g>
<g>
</g>
<g>
</g>
<g>
</g>
<g>
</g>
<g>
</g>
<g>
</g>
<g>
</g>
<g>
</g>
<g>
</g>
</svg>
