<svg id="Capa_1" enable-background="new 0 0 512 512" height="512" viewBox="0 0 512 512" width="512" xmlns="http://www.w3.org/2000/svg"><path d="m222.737 458.968-63.639-63.639 21.213-21.213 42.426 42.426 106.067-106.066 21.213 21.213z" fill="#574f7f"/><path d="m137.88 437.75-74.24 74.25-63.64-63.64 74.25-74.24z" fill="#6c6fa9"/><path d="m137.88 437.75-74.24 74.25-31.82-31.82 74.25-74.24z" fill="#574f7f"/><path d="m175.98 336.02-48.7-36.15-74.25 74.25 84.85 84.85 74.25-74.25z" fill="#76e2f8"/><path d="m212.13 384.72-74.25 74.25-42.42-42.42 80.52-80.53z" fill="#4bb9ec"/><path d="m432.04 79.96-50.2-34.65-106.07 106.07 31.97 52.88 52.88 31.97 106.07-106.06z" fill="#6c6fa9"/><path d="m466.69 130.17-106.07 106.06-52.88-31.97 124.3-124.3z" fill="#574f7f"/><path d="m512 0-45.31 130.17-84.85-84.86z" fill="#f2ebee"/><path d="m512 0-45.31 130.17-42.43-42.43z" fill="#e2d0da"/><path d="m138.952 208.052h209.997v119.996h-209.997z" fill="#f2ebee" transform="matrix(.707 -.707 .707 .707 -118.089 251.008)"/><path d="m160.167 259.269h209.996v59.991h-209.996z" fill="#e2d0da" transform="matrix(.707 -.707 .707 .707 -126.876 272.223)"/></svg>