<svg height="512" viewBox="0 0 128 128" width="512" xmlns="http://www.w3.org/2000/svg"><g><g><circle cx="42.585" cy="62.55" fill="#fec666" r="14.687"/><g fill="#ffc766"><path d="m42.585 41.22a1.751 1.751 0 0 1 -1.75-1.75v-11.015a1.75 1.75 0 1 1 3.5 0v11.015a1.751 1.751 0 0 1 -1.75 1.75z"/><path d="m26.265 47.98a1.743 1.743 0 0 1 -1.237-.513l-7.789-7.789a1.749 1.749 0 0 1 2.474-2.478l7.787 7.793a1.75 1.75 0 0 1 -1.237 2.987z"/><path d="m19.505 64.3h-11.015a1.75 1.75 0 1 1 0-3.5h11.015a1.75 1.75 0 0 1 0 3.5z"/><path d="m18.476 88.409a1.751 1.751 0 0 1 -1.237-2.988l7.789-7.789a1.75 1.75 0 1 1 2.472 2.475l-7.787 7.793a1.741 1.741 0 0 1 -1.237.509z"/><path d="m58.905 47.98a1.75 1.75 0 0 1 -1.238-2.987l7.789-7.793a1.75 1.75 0 0 1 2.475 2.474l-7.789 7.789a1.745 1.745 0 0 1 -1.237.517z"/></g></g><path d="m96.311 99.546h-47.3c-14.47-1.678-16.438-20.128 0-23.147-4.361-14.09 11.07-24.825 23.65-12.413 13.346-24.516 51.1-5.851 32.54 18.889a11.568 11.568 0 0 1 13.465 15.525l-.455 1.142z" fill="#88e4fe"/></g></svg>