<svg id="Layer_1" enable-background="new 0 0 512 512" height="512" viewBox="0 0 512 512" width="512" xmlns="http://www.w3.org/2000/svg"><g clip-rule="evenodd" fill-rule="evenodd"><g><path d="m106.713 352.432c-53.413 0-96.713-43.3-96.713-96.713 0-45.72 31.728-84.026 74.366-94.112-.241-2.783-.371-5.597-.371-8.442 0-53.413 43.3-96.712 96.713-96.712 36.701 0 68.626 20.443 85.011 50.563 13.078-6.599 27.857-10.321 43.506-10.321 41.357 0 76.645 25.963 90.47 62.476 1.851-.105 3.715-.165 5.593-.165 53.413 0 96.712 43.299 96.712 96.712s-43.3 96.712-96.712 96.712h-298.575z" fill="#e6e6e6"/><path d="m174.707 93.953c36.701 0 68.626 20.443 85.011 50.563 13.078-6.599 27.857-10.321 43.506-10.321 41.357 0 76.645 25.963 90.47 62.476 1.851-.105 3.715-.165 5.593-.165 52.173 0 94.697 41.313 96.643 93.01 3.924-10.521 6.07-21.908 6.07-33.797 0-53.413-43.3-96.712-96.712-96.712-1.878 0-3.742.059-5.593.165-13.825-36.514-49.113-62.476-90.47-62.476-15.649 0-30.427 3.722-43.506 10.321-16.385-30.12-48.311-50.563-85.011-50.563-53.413 0-96.713 43.3-96.713 96.712 0 1.238.025 2.469.072 3.695 13.709-36.743 49.119-62.908 90.64-62.908z" fill="#ccc"/></g><g><g fill="#f2f2f2"><path d="m150.052 369.223h27.684l10.005 75.223c.517 3.891-2.048 7.494-5.884 8.325l-11.967 2.593c-2.137.463-4.152.054-5.94-1.205s-2.842-3.02-3.134-5.187z"/><path d="m306.709 261.824c9.764 0 17.754 7.989 17.754 17.754v145.654c0 9.765-7.989 17.754-17.754 17.754-9.112 0-16.677-6.957-17.648-15.823h-.001c-24.842-19.866-64.105-35.544-108.207-40.369v3.701h-34.477c-20.95 0-38.09-17.141-38.09-38.09v-.001c0-20.949 17.141-38.089 38.09-38.089h34.477v3.701c44.102-4.825 83.344-20.297 108.186-40.163l.001-.001c.874-8.963 8.486-16.028 17.669-16.028z"/><path d="m322.724 331.897v41.016c1.473.327 3.002.501 4.574.501 11.603 0 21.009-9.406 21.009-21.009s-9.406-21.009-21.009-21.009c-1.572 0-3.102.174-4.574.501z"/></g><path d="m180.853 314.315h-34.477c-20.95 0-38.09 17.14-38.09 38.089v.001c0 20.949 17.14 38.09 38.09 38.09h34.477z" fill="#eb745e"/><path d="m306.709 261.824c9.765 0 17.754 7.989 17.754 17.754v145.654c0 9.765-7.989 17.754-17.754 17.754-9.765 0-17.754-7.989-17.754-17.754v-145.654c0-9.765 7.989-17.754 17.754-17.754z" fill="#eb745e"/><path d="m357.277 397.74 23.257 13.427c3.72 2.147 8.484.847 10.621-2.872 2.14-3.724.842-8.481-2.873-10.626l-23.256-13.427c-3.72-2.147-8.484-.848-10.621 2.872-2.141 3.724-.843 8.48 2.872 10.626zm7.748-77.171 23.256-13.427c3.716-2.145 5.014-6.902 2.873-10.626-2.137-3.719-6.901-5.019-10.621-2.872l-23.257 13.427c-3.715 2.145-5.013 6.902-2.873 10.627 2.138 3.718 6.902 5.019 10.622 2.871zm12.979 39.66h25.458c4.322 0 7.824-3.503 7.824-7.824 0-4.322-3.503-7.824-7.824-7.824h-25.458c-4.322 0-7.824 3.503-7.824 7.824s3.502 7.824 7.824 7.824z" fill="#eb745e"/></g></g></svg>