<svg id="Capa_1" enable-background="new 0 0 512 512" height="512" viewBox="0 0 512 512" width="512" xmlns="http://www.w3.org/2000/svg"><g><path d="m342.397 82.178h51.687v41.682h-51.687z" fill="#b1dbfc"/><path d="m342.396 82.178h28.072v41.682h-28.072z" fill="#8bcaff"/><path d="m437.399 0h-138.318c-8.732 0-15.811 7.079-15.811 15.811v53.379c0 8.732 7.079 15.811 15.811 15.811h138.318c8.732 0 15.811-7.079 15.811-15.811v-53.379c0-8.732-7.079-15.811-15.811-15.811z" fill="#dfebfa"/><path d="m311.342 69.19v-53.379c0-8.732 7.079-15.811 15.811-15.811h-28.072c-8.732 0-15.811 7.079-15.811 15.811v53.379c0 8.732 7.079 15.811 15.811 15.811h28.072c-8.732 0-15.811-7.079-15.811-15.811z" fill="#b1dbfc"/><path d="m439.705 122.039h-238.602v125.004h-92.402v-125.004h-36.406c-7.459 0-13.505 6.046-13.505 13.505v253.245c.775-.066 1.556-.107 2.348-.107h389.724c.792 0 1.574.041 2.348.107v-253.245c0-7.458-6.046-13.505-13.505-13.505z" fill="#7b6c79"/><g><path d="m106.693 135.544c0-2.591.743-5.004 2.008-7.059v-6.445h-36.406c-7.459 0-13.505 6.046-13.505 13.505v253.245c.775-.066 1.556-.107 2.348-.107h45.555z" fill="#665e68"/></g><path d="m419.44 26.145h-102.4c-4.212 0-7.626 3.414-7.626 7.626v17.461c0 4.212 3.414 7.626 7.626 7.626h102.4c4.212 0 7.626-3.414 7.626-7.626v-17.462c0-4.211-3.414-7.625-7.626-7.625z" fill="#ff656f"/><path d="m337.487 51.231v-17.461c0-4.212 3.414-7.626 7.625-7.626h-28.072c-4.212 0-7.625 3.414-7.625 7.626v17.461c0 4.212 3.414 7.626 7.625 7.626h28.072c-4.211-.001-7.625-3.414-7.625-7.626z" fill="#ff4756"/><path d="m297.675 241.948v-5.631c0-6.223-5.092-11.315-11.315-11.315h-11.206c-6.223 0-11.315 5.091-11.315 11.315v5.631c0 6.223 5.092 11.315 11.315 11.315h11.206c6.223.001 11.315-5.091 11.315-11.315z" fill="#dfebfa"/><path d="m354.319 241.948v-5.631c0-6.223-5.092-11.315-11.315-11.315h-11.206c-6.223 0-11.315 5.091-11.315 11.315v5.631c0 6.223 5.092 11.315 11.315 11.315h11.206c6.223.001 11.315-5.091 11.315-11.315z" fill="#dfebfa"/><path d="m410.963 241.948v-5.631c0-6.223-5.092-11.315-11.315-11.315h-11.206c-6.223 0-11.315 5.091-11.315 11.315v5.631c0 6.223 5.092 11.315 11.315 11.315h11.206c6.223.001 11.315-5.091 11.315-11.315z" fill="#dfebfa"/><path d="m394.045 241.948v-5.631c0-5.236 3.609-9.658 8.459-10.933-.915-.241-1.869-.382-2.856-.382h-11.206c-6.223 0-11.315 5.092-11.315 11.315v5.631c0 6.223 5.092 11.315 11.315 11.315h11.206c.987 0 1.941-.141 2.856-.382-4.85-1.275-8.459-5.697-8.459-10.933z" fill="#b1dbfc"/><path d="m297.675 292.25v-5.631c0-6.223-5.092-11.315-11.315-11.315h-11.206c-6.223 0-11.315 5.091-11.315 11.315v5.631c0 6.223 5.092 11.315 11.315 11.315h11.206c6.223.001 11.315-5.091 11.315-11.315z" fill="#dfebfa"/><path d="m354.319 292.25v-5.631c0-6.223-5.092-11.315-11.315-11.315h-11.206c-6.223 0-11.315 5.091-11.315 11.315v5.631c0 6.223 5.092 11.315 11.315 11.315h11.206c6.223.001 11.315-5.091 11.315-11.315z" fill="#dfebfa"/><path d="m410.963 292.25v-5.631c0-6.223-5.092-11.315-11.315-11.315h-11.206c-6.223 0-11.315 5.091-11.315 11.315v5.631c0 6.223 5.092 11.315 11.315 11.315h11.206c6.223.001 11.315-5.091 11.315-11.315z" fill="#dfebfa"/><path d="m297.675 342.552v-5.631c0-6.223-5.092-11.315-11.315-11.315h-11.206c-6.223 0-11.315 5.091-11.315 11.315v5.631c0 6.223 5.092 11.315 11.315 11.315h11.206c6.223.001 11.315-5.091 11.315-11.315z" fill="#dfebfa"/><path d="m354.319 342.552v-5.631c0-6.223-5.092-11.315-11.315-11.315h-11.206c-6.223 0-11.315 5.091-11.315 11.315v5.631c0 6.223 5.092 11.315 11.315 11.315h11.206c6.223.001 11.315-5.091 11.315-11.315z" fill="#dfebfa"/><path d="m410.963 342.552v-5.631c0-6.223-5.092-11.315-11.315-11.315h-11.206c-6.223 0-11.315 5.091-11.315 11.315v5.631c0 6.223 5.092 11.315 11.315 11.315h11.206c6.223.001 11.315-5.091 11.315-11.315z" fill="#dfebfa"/><path d="m401.926 156.187h-129.05c-4.523 0-8.19 3.666-8.19 8.19v22.837c0 4.523 3.667 8.19 8.19 8.19h129.05c4.523 0 8.19-3.666 8.19-8.19v-22.837c0-4.524-3.667-8.19-8.19-8.19z" fill="#23a8fe"/><path d="m292.759 187.214v-22.837c0-4.523 3.667-8.19 8.19-8.19h-28.072c-4.523 0-8.19 3.667-8.19 8.19v22.837c0 4.523 3.667 8.19 8.19 8.19h28.072c-4.524 0-8.19-3.667-8.19-8.19z" fill="#0193fa"/><path d="m200.453 81.055-10.368 7.997c-1.066.822-2.552.822-3.618 0l-11.109-8.569c-2.374-1.831-5.686-1.831-8.06 0l-11.107 8.568c-1.066.822-2.553.822-3.619 0l-11.105-8.566c-2.375-1.832-5.688-1.832-8.063.001l-11.099 8.565c-1.066.823-2.553.823-3.619.001l-10.363-7.995c-1.947-1.502-4.772-.114-4.772 2.346v166.732h101.674v-166.734c-.001-2.46-2.825-3.848-4.772-2.346z" fill="#dfebfa"/><g><path d="m132.691 81.036-10.386 8.015c-1.066.823-2.553.823-3.619.001l-10.363-7.995c-1.947-1.502-4.772-.114-4.772 2.346v166.732h28.072v-166.733c0-.957.43-1.84 1.068-2.366z" fill="#b1dbfc"/></g><g><path d="m174.178 133.197h-39.581c-4.267 0-7.726-3.459-7.726-7.726s3.459-7.726 7.726-7.726h39.581c4.267 0 7.726 3.459 7.726 7.726s-3.459 7.726-7.726 7.726z" fill="#b1dbfc"/></g><g><path d="m174.178 162.247h-39.581c-4.267 0-7.726-3.459-7.726-7.726s3.459-7.726 7.726-7.726h39.581c4.267 0 7.726 3.459 7.726 7.726s-3.459 7.726-7.726 7.726z" fill="#b1dbfc"/></g><g><path d="m174.178 191.297h-39.581c-4.267 0-7.726-3.459-7.726-7.726s3.459-7.726 7.726-7.726h39.581c4.267 0 7.726 3.459 7.726 7.726s-3.459 7.726-7.726 7.726z" fill="#b1dbfc"/></g><g><path d="m174.178 220.346h-39.581c-4.267 0-7.726-3.459-7.726-7.726s3.459-7.726 7.726-7.726h39.581c4.267 0 7.726 3.459 7.726 7.726s-3.459 7.726-7.726 7.726z" fill="#b1dbfc"/></g><path d="m223.405 263.989v-5.631c0-6.223-5.092-11.315-11.315-11.315h-115.405c-6.223 0-11.315 5.091-11.315 11.315v5.631c0 6.223 5.092 11.315 11.315 11.315h115.404c6.223 0 11.316-5.092 11.316-11.315z" fill="#b1dbfc"/><path d="m113.443 263.989v-5.631c0-6.223 5.092-11.315 11.315-11.315h-28.073c-6.223 0-11.315 5.092-11.315 11.315v5.631c0 6.224 5.092 11.315 11.315 11.315h28.072c-6.222 0-11.314-5.092-11.314-11.315z" fill="#8bcaff"/><path d="m478.219 482.44v-68.462c0-15.109-12.248-27.357-27.357-27.357h-389.724c-15.109 0-27.357 12.248-27.357 27.357v68.462z" fill="#a89ca8"/><path d="m102.813 386.622h-41.675c-15.109 0-27.356 12.248-27.356 27.357v68.462h41.675v-68.462c0-15.109 12.247-27.357 27.356-27.357z" fill="#938493"/><path d="m345.078 386.622v26.205c0 6.057-4.91 10.966-10.966 10.966h-156.224c-6.056 0-10.966-4.91-10.966-10.966v-26.205z" fill="#dfebfa"/><path d="m194.995 412.826v-26.204h-28.072v26.204c0 6.057 4.91 10.966 10.966 10.966h28.072c-6.057 0-10.966-4.909-10.966-10.966z" fill="#b1dbfc"/><path d="m487.972 479.35h-463.944c-7.19 0-13.072 5.882-13.072 13.072v6.505c0 7.19 5.882 13.072 13.072 13.072h463.944c7.19 0 13.072-5.882 13.072-13.072v-6.505c0-7.19-5.882-13.072-13.072-13.072z" fill="#7b6c79"/><path d="m52.631 498.928v-6.505c0-7.19 5.883-13.072 13.072-13.072h-41.675c-7.19 0-13.072 5.883-13.072 13.072v6.505c0 7.19 5.882 13.072 13.072 13.072h41.675c-7.19 0-13.072-5.883-13.072-13.072z" fill="#665e68"/><g fill="#b1dbfc"><path d="m394.045 292.25v-5.631c0-5.236 3.609-9.658 8.459-10.933-.915-.241-1.869-.382-2.856-.382h-11.206c-6.223 0-11.315 5.092-11.315 11.315v5.631c0 6.223 5.092 11.315 11.315 11.315h11.206c.987 0 1.941-.141 2.856-.382-4.85-1.275-8.459-5.697-8.459-10.933z"/><path d="m394.045 342.552v-5.631c0-5.236 3.609-9.658 8.459-10.933-.915-.241-1.869-.382-2.856-.382h-11.206c-6.223 0-11.315 5.092-11.315 11.315v5.631c0 6.223 5.092 11.315 11.315 11.315h11.206c.987 0 1.941-.141 2.856-.382-4.85-1.275-8.459-5.697-8.459-10.933z"/><path d="m337.401 241.948v-5.631c0-5.236 3.609-9.658 8.459-10.933-.915-.241-1.869-.382-2.856-.382h-11.206c-6.223 0-11.315 5.092-11.315 11.315v5.631c0 6.223 5.092 11.315 11.315 11.315h11.206c.987 0 1.941-.141 2.856-.382-4.85-1.275-8.459-5.697-8.459-10.933z"/><path d="m337.401 292.25v-5.631c0-5.236 3.609-9.658 8.459-10.933-.915-.241-1.869-.382-2.856-.382h-11.206c-6.223 0-11.315 5.092-11.315 11.315v5.631c0 6.223 5.092 11.315 11.315 11.315h11.206c.987 0 1.941-.141 2.856-.382-4.85-1.275-8.459-5.697-8.459-10.933z"/><path d="m337.401 342.552v-5.631c0-5.236 3.609-9.658 8.459-10.933-.915-.241-1.869-.382-2.856-.382h-11.206c-6.223 0-11.315 5.092-11.315 11.315v5.631c0 6.223 5.092 11.315 11.315 11.315h11.206c.987 0 1.941-.141 2.856-.382-4.85-1.275-8.459-5.697-8.459-10.933z"/><path d="m280.757 241.948v-5.631c0-5.236 3.609-9.658 8.459-10.933-.915-.241-1.869-.382-2.856-.382h-11.206c-6.223 0-11.315 5.092-11.315 11.315v5.631c0 6.223 5.092 11.315 11.315 11.315h11.206c.987 0 1.941-.141 2.856-.382-4.85-1.275-8.459-5.697-8.459-10.933z"/><path d="m280.757 292.25v-5.631c0-5.236 3.609-9.658 8.459-10.933-.915-.241-1.869-.382-2.856-.382h-11.206c-6.223 0-11.315 5.092-11.315 11.315v5.631c0 6.223 5.092 11.315 11.315 11.315h11.206c.987 0 1.941-.141 2.856-.382-4.85-1.275-8.459-5.697-8.459-10.933z"/><path d="m280.757 342.552v-5.631c0-5.236 3.609-9.658 8.459-10.933-.915-.241-1.869-.382-2.856-.382h-11.206c-6.223 0-11.315 5.092-11.315 11.315v5.631c0 6.223 5.092 11.315 11.315 11.315h11.206c.987 0 1.941-.141 2.856-.382-4.85-1.275-8.459-5.697-8.459-10.933z"/></g></g></svg>