<svg id="Capa_1" enable-background="new 0 0 512 512" height="512" viewBox="0 0 512 512" width="512" xmlns="http://www.w3.org/2000/svg"><g><path d="m441.185 491.396v-426.233c0-11.379-9.225-20.604-20.604-20.604h-332.082c-11.379 0-20.604 9.224-20.604 20.604v426.233c0 11.379 9.225 20.604 20.604 20.604h332.082c11.379 0 20.604-9.224 20.604-20.604z" fill="#e28086"/><path d="m410.279 475.944v-395.328c0-2.845-2.306-5.151-5.151-5.151h-301.176c-2.845 0-5.151 2.306-5.151 5.151v395.328c0 2.845 2.306 5.151 5.151 5.151h301.176c2.845 0 5.151-2.307 5.151-5.151z" fill="#e7ecf6"/><path d="m423.501 44.559h-30.906c11.379 0 20.604 9.224 20.604 20.604v426.233c0 11.379-9.225 20.604-20.604 20.604h30.906c11.379 0 20.604-9.224 20.604-20.604v-426.233c0-11.379-9.225-20.604-20.604-20.604z" fill="#dd636e"/><path d="m408.048 75.465h-30.906c2.845 0 5.151 2.306 5.151 5.151v395.328c0 2.845-2.306 5.151-5.151 5.151h30.906c2.845 0 5.151-2.306 5.151-5.151v-395.328c0-2.845-2.306-5.151-5.151-5.151z" fill="#d8e2f1"/><path d="m277.447 0h-45.813c-12.146 0-21.991 9.846-21.991 21.991v40.85h89.796v-40.85c-.001-12.145-9.847-21.991-21.992-21.991z" fill="#365e7d"/><path d="m280.367 0h-26.282c12.145 0 21.991 9.846 21.991 21.991v40.85h26.282v-40.85c0-12.145-9.846-21.991-21.991-21.991z" fill="#2b4d66"/><path d="m354.148 101.993v-61.301c0-5.121-4.151-9.272-9.272-9.272h-180.673c-5.121 0-9.272 4.151-9.272 9.272v61.301c0 5.12 4.151 9.272 9.272 9.272h180.673c5.121 0 9.272-4.152 9.272-9.272z" fill="#407093"/><g><g><path d="m362.108 169.803h-212.216c-4.267 0-7.726-3.459-7.726-7.726s3.459-7.726 7.726-7.726h212.217c4.268 0 7.726 3.459 7.726 7.726s-3.459 7.726-7.727 7.726z" fill="#407093"/></g><g><path d="m362.108 235.477h-212.216c-4.267 0-7.726-3.459-7.726-7.726s3.459-7.726 7.726-7.726h212.217c4.268 0 7.726 3.459 7.726 7.726s-3.459 7.726-7.727 7.726z" fill="#407093"/></g><g><path d="m362.108 301.151h-212.216c-4.267 0-7.726-3.459-7.726-7.726 0-4.268 3.459-7.726 7.726-7.726h212.217c4.268 0 7.726 3.459 7.726 7.726s-3.459 7.726-7.727 7.726z" fill="#407093"/></g></g><g><g><path d="m362.108 366.825h-212.216c-4.267 0-7.726-3.459-7.726-7.726s3.459-7.726 7.726-7.726h212.217c4.268 0 7.726 3.459 7.726 7.726s-3.459 7.726-7.727 7.726z" fill="#407093"/></g><g><path d="m362.108 432.499h-212.216c-4.267 0-7.726-3.459-7.726-7.726s3.459-7.726 7.726-7.726h212.217c4.268 0 7.726 3.459 7.726 7.726s-3.459 7.726-7.727 7.726z" fill="#407093"/></g></g><path d="m347.797 31.421h-26.282c5.121 0 9.272 4.151 9.272 9.272v61.301c0 5.12-4.151 9.272-9.272 9.272h26.282c5.121 0 9.272-4.151 9.272-9.272v-61.302c-.001-5.121-4.152-9.271-9.272-9.271z" fill="#365e7d"/><circle cx="254.54" cy="293.079" fill="#b3e59f" r="78.502"/><g><path d="m227.688 323.403-15.328-30.978c-1.893-3.825-.327-8.459 3.498-10.351 3.824-1.894 8.459-.327 10.351 3.498l10.649 21.52 47.58-45.788c3.073-2.957 7.966-2.864 10.925.21s2.865 7.966-.21 10.925l-55.183 53.105c-3.774 3.633-9.974 2.526-12.282-2.141z" fill="#78c2a4"/></g></g></svg>