<?xml version="1.0" encoding="iso-8859-1"?>
<!-- Generator: Adobe Illustrator 19.0.0, SVG Export Plug-In . SVG Version: 6.00 Build 0)  -->
<svg xmlns="http://www.w3.org/2000/svg" xmlns:xlink="http://www.w3.org/1999/xlink" version="1.1" id="Layer_1" x="0px" y="0px" viewBox="0 0 512 512" style="enable-background:new 0 0 512 512;" xml:space="preserve">
<path style="fill:#FFE477;" d="M426.403,108.987c-2.452-5.125-5.682-9.693-9.694-13.703c-4.01-4.122-8.801-7.464-14.038-9.916  c-6.462-3.119-13.703-4.791-21.39-4.791H239.457c-13.369,0-25.96,5.236-35.43,14.706L14.741,284.57  c-19.608,19.497-19.608,51.36,0,70.857l141.715,141.826c7.575,7.465,16.933,12.144,26.626,13.926  c11.364,2.117,23.174,0.111,33.423-5.682c4.012-2.228,7.575-4.902,10.918-8.244L416.71,307.966  c9.471-9.47,14.707-22.059,14.707-35.429V130.712C431.416,122.914,429.633,115.56,426.403,108.987z M358.33,200.901  c-6.238,6.35-14.705,9.804-23.618,9.804c-8.913,0-17.269-3.454-23.62-9.804c-6.349-6.349-9.803-14.705-9.803-23.619  c0-8.913,3.453-17.38,9.803-23.619c6.352-6.35,14.707-9.804,23.62-9.804c2.785,0,5.57,0.334,8.244,1.114  c5.792,1.337,11.141,4.345,15.374,8.69c4.235,4.234,7.13,9.247,8.579,14.595C370.029,179.51,367.132,192.099,358.33,200.901z"/>
<path style="fill:#FFB655;" d="M416.712,95.251l-58.357,58.357c0.006,0.004,0.01,0.007,0.01,0.007  c13.027,13.038,13.027,34.238,0.004,47.271c-6.31,6.31-14.71,9.786-23.642,9.786c-8.922,0-17.321-3.476-23.631-9.786  c-0.002-0.003-0.006-0.007-0.008-0.01L85.604,426.36l70.902,70.902c7.482,7.483,16.859,12.133,26.627,13.865  c11.265,2.126,23.161,0.158,33.403-5.672c3.937-2.207,7.561-4.885,10.87-8.193l189.306-189.306  c9.453-9.453,14.653-22.058,14.653-35.451V130.701C431.364,116.837,425.772,104.311,416.712,95.251z"/>
<path style="fill:#79695A;" d="M511.965,16.739c0,4.234-1.56,8.579-4.901,11.81l-80.661,80.438l-59.494,59.27  c-1.448-5.348-4.344-10.361-8.579-14.595c-4.232-4.345-9.581-7.353-15.374-8.69l59.715-59.605L483.444,4.93  c6.574-6.573,17.046-6.573,23.62,0C510.406,8.161,511.965,12.394,511.965,16.739z"/>
<path style="fill:#6C5B52;" d="M358.33,153.663c4.235,4.234,7.13,9.247,8.579,14.595l59.494-59.27l80.661-80.438  c3.341-3.231,4.901-7.576,4.901-11.81c0-4.345-1.56-8.579-4.901-11.81c-0.099-0.099-0.234-0.127-0.334-0.223L358.016,153.421  C358.11,153.516,358.237,153.567,358.33,153.663z"/>
<path style="fill:#7CCC92;" d="M258.917,253.047L211.65,205.78c-6.54-6.54-17.095-6.539-23.633,0l-47.267,47.267  c-32.614,32.614-32.614,85.554,0,118.169l47.267,47.267c6.54,6.54,17.096,6.539,23.633,0l47.267-47.267  C291.531,338.601,291.531,285.661,258.917,253.047z"/>
<path style="fill:#34B772;" d="M258.917,371.215l-47.267,47.267c-6.539,6.539-17.095,6.54-23.633,0l-47.267-47.267l118.167-118.169  C291.531,285.661,291.531,338.601,258.917,371.215z"/>
<path style="fill:#DDDD47;" d="M216.535,505.455c-10.242,5.83-22.138,7.798-33.403,5.672l-0.001-198.997  c0-9.296,7.485-16.78,16.702-16.702c4.648-0.078,8.745,1.813,11.817,4.884c2.994,2.994,4.884,7.09,4.884,11.817L216.535,505.455z"/>
<path style="fill:#C7D100;" d="M216.535,505.455c-10.242,5.83-22.138,7.798-33.403,5.672V328.831l28.518-28.518  c2.994,2.994,4.884,7.09,4.884,11.817L216.535,505.455z"/>
<g>
</g>
<g>
</g>
<g>
</g>
<g>
</g>
<g>
</g>
<g>
</g>
<g>
</g>
<g>
</g>
<g>
</g>
<g>
</g>
<g>
</g>
<g>
</g>
<g>
</g>
<g>
</g>
<g>
</g>
</svg>
