<svg id="color" enable-background="new 0 0 24 24" height="512" viewBox="0 0 24 24" width="512" xmlns="http://www.w3.org/2000/svg"><path d="m16 22h-2v-2h-4v2h-2c-.552 0-1 .448-1 1s.448 1 1 1h8c.553 0 1-.448 1-1s-.447-1-1-1z" fill="#90a4ae"/><path d="m24 5.75v12.5c0 .96-.79 1.75-1.75 1.75h-20.5c-.96 0-1.75-.79-1.75-1.75v-12.5c0-.96.79-1.75 1.75-1.75h4.75v2h-4.5v12h20v-12h-4.5v-2h4.75c.96 0 1.75.79 1.75 1.75z" fill="#607d8b"/><path d="m12 11c-1.93 0-3.5-1.57-3.5-3.5v-5.25c0-1.241 1.01-2.25 2.25-2.25s2.25 1.009 2.25 2.25v5c0 .414-.336.75-.75.75s-.75-.336-.75-.75v-5c0-.414-.337-.75-.75-.75s-.75.336-.75.75v5.25c0 1.103.897 2 2 2s2-.897 2-2v-6.75c0-.414.336-.75.75-.75s.75.336.75.75v6.75c0 1.93-1.57 3.5-3.5 3.5z" fill="#2196f3"/><path d="m10.75 0c-1.24 0-2.25 1.01-2.25 2.25v5.25c0 1.93 1.57 3.5 3.5 3.5.084 0 .167-.003.25-.009v-1.507c-.082.011-.165.016-.25.016-1.103 0-2-.896-2-2v-5.25c0-.414.337-.75.75-.75s.75.336.75.75v5c0 .414.336.75.75.75v-7.425c-.398-.357-.924-.575-1.5-.575z" fill="#1d83d4"/><path d="m12 20h-2v2h-2c-.552 0-1 .447-1 1s.448 1 1 1h4z" fill="#7d8f97"/><path d="m6.5 4h-4.75c-.96 0-1.75.79-1.75 1.75v12.5c0 .96.79 1.75 1.75 1.75h10.25v-2h-10v-12h4.5z" fill="#546d79"/><path d="m22 6v12h-20v-12h4.5v1.5c0 3.03 2.47 5.5 5.5 5.5s5.5-2.47 5.5-5.5v-1.5z" fill="#fafafa"/><path d="m6.5 6h-4.5v12h10v-5c-3.03 0-5.5-2.47-5.5-5.5z" fill="#dadada"/></svg>