<svg id="Capa_1" enable-background="new 0 0 496.522 496.522" height="512" viewBox="0 0 496.522 496.522" width="512" xmlns="http://www.w3.org/2000/svg"><g><path d="m431.856 446.163c9.223 15.981 3.819 36.409-12.099 45.74l-.007.004c-16.099 9.437-36.804 3.934-46.093-12.251l-49.004-79.964c-3.856-6.677-6.633-13.921-8.228-21.464l-9.634-40.852 30.808-17.784 30.567 28.768c5.736 5.153 10.622 11.179 14.478 17.857z" fill="#6b96ae"/><path d="m379.732 361.591-57.63 33.26c-.29-.59-.57-1.2-.84-1.8-2.13-4.75-3.76-9.71-4.84-14.82l-5.31-22.23-6.09-25.46 28-15 18.77 17.53 16.37 15.29c3.88 3.49 7.38 7.37 10.42 11.59.39.54.77 1.09 1.15 1.64z" fill="#50758d"/><path d="m351.792 333.071c-5.75 4.21-11.77 8.13-18.03 11.75-7.34 4.24-14.9 7.97-22.65 11.18l-6.09-25.46 28-15z" fill="#2b597f"/><circle cx="235.666" cy="175.5" fill="#50758d" r="175.5"/><circle cx="235.666" cy="175.5" fill="#2edffc" r="133.478"/><path d="m355.682 233.931c-11.25 23.16-29.3 43.32-53.28 57.16-63.84 36.86-145.47 14.99-182.33-48.85-29.45-51-21.41-113.37 15.57-155.18-18.7 38.51-18.59 85.31 4.43 125.18 36.86 63.84 118.49 85.71 182.33 48.85 12.84-7.41 23.98-16.63 33.28-27.16z" fill="#27bdf3"/></g></svg>