<svg id="color" enable-background="new 0 0 24 24" height="512" viewBox="0 0 24 24" width="512" xmlns="http://www.w3.org/2000/svg"><path d="m12 24c-.178 0-.356-.063-.498-.189-.348-.309-8.502-7.643-8.502-14.746 0-4.999 4.037-9.065 9-9.065s9 4.066 9 9.065c0 7.103-8.154 14.437-8.502 14.745-.142.127-.32.19-.498.19z" fill="#f44336"/><path d="m12 0c-4.963 0-9 4.066-9 9.065 0 7.103 8.154 14.437 8.502 14.745.142.127.32.19.498.19z" fill="#d43a2f"/><path d="m11.058 14c-.061 0-.123-.009-.183-.029-.252-.083-.408-.322-.375-.573l.483-3.684h-1.425c-.209 0-.401-.111-.498-.287s-.083-.39.036-.554l3.375-4.643c.149-.205.428-.284.67-.193.243.092.388.331.349.578l-.465 2.956h1.409c.203 0 .39.104.49.272s.097.374-.007.54l-3.375 5.357c-.105.165-.291.26-.484.26z" fill="#ffc107"/><path d="m14.433 7.57h-1.409l-2.041 2.144-.483 3.683c-.033.251.123.49.375.573l.183.03c.193 0 .378-.096.482-.261l3.375-5.357c.105-.165.107-.371.007-.539-.099-.168-.286-.273-.489-.273z" fill="#dea806"/></svg>