<svg height="512pt" viewBox="0 0 512 512" width="512pt" xmlns="http://www.w3.org/2000/svg"><path d="m512 220.96875v91.621094c0 51.269531-41.710938 92.96875-92.96875 92.96875-51.269531 0-92.972656-41.699219-92.972656-92.96875v-91.621094c0-51.257812 41.703125-92.96875 92.972656-92.96875 51.257812 0 92.96875 41.710938 92.96875 92.96875zm0 0" fill="#00b44b"/><path d="m512 220.96875v91.621094c0 51.269531-41.710938 92.96875-92.96875 92.96875v-277.558594c51.257812 0 92.96875 41.710938 92.96875 92.96875zm0 0" fill="#007f40"/><path d="m185.941406 273.050781v39.539063c0 51.269531-41.703125 92.96875-92.972656 92.96875-51.257812 0-92.96875-41.699219-92.96875-92.96875v-39.539063c0-51.269531 41.710938-92.972656 92.96875-92.972656 51.269531 0 92.972656 41.703125 92.972656 92.972656zm0 0" fill="#f8bd2d"/><path d="m185.941406 273.050781v39.539063c0 51.269531-41.703125 92.96875-92.972656 92.96875v-225.480469c51.269531 0 92.972656 41.703125 92.972656 92.972656zm0 0" fill="#ff8900"/><path d="m77.96875 303.648438h30v193.351562h-30zm0 0" fill="#b77445"/><path d="m92.96875 303.648438h15v193.351562h-15zm0 0" fill="#a04010"/><path d="m404.03125 303.648438h30v193.351562h-30zm0 0" fill="#b77445"/><path d="m411.128906 261.871094c0 85.539062-69.589844 155.128906-155.128906 155.128906s-155.128906-69.589844-155.128906-155.128906c0-48.890625 22.597656-94.101563 61.070312-123.382813-4.691406-11.828125-7.132812-24.507812-7.132812-37.296875 0-55.800781 45.390625-101.191406 101.191406-101.191406s101.191406 45.390625 101.191406 101.191406c0 12.789063-2.441406 25.46875-7.132812 37.296875 38.472656 29.28125 61.070312 74.492188 61.070312 123.382813zm0 0" fill="#c8fb78"/><path d="m411.128906 261.871094c0 85.539062-69.589844 155.128906-155.128906 155.128906v-417c55.800781 0 101.191406 45.390625 101.191406 101.191406 0 12.789063-2.441406 25.46875-7.132812 37.296875 38.472656 29.28125 61.070312 74.492188 61.070312 123.382813zm0 0" fill="#82e36f"/><path d="m330.988281 265.878906v22.699219c0 25.363281-20.636719 46-46 46h-13.988281v162.421875h-30v-196.140625h-16.328125c-25.371094 0-46-20.640625-46-46v-22.699219h30v22.699219c0 8.820313 7.167969 16 16 16h16.328125v-81.859375h30v115.578125h13.988281c8.820313 0 16-7.179687 16-16v-22.699219zm0 0" fill="#b77445"/><path d="m330.988281 265.878906v22.699219c0 25.363281-20.636719 46-46 46h-13.988281v162.421875h-15v-308h15v115.578125h13.988281c8.820313 0 16-7.179687 16-16v-22.699219zm0 0" fill="#a04010"/><path d="m419.03125 303.648438h15v193.351562h-15zm0 0" fill="#a04010"/><path d="m0 482h512v30h-512zm0 0" fill="#9ce78d"/><path d="m256 482h256v30h-256zm0 0" fill="#36cb8e"/></svg>