<svg height="512pt" viewBox="0 -23 512 512" width="512pt" xmlns="http://www.w3.org/2000/svg"><path d="m222.558594 80.96875-10.128906-68.011719c-1.109376-7.445312-7.503907-12.957031-15.027344-12.957031h-159.851563c-7.527343 0-13.917969 5.511719-15.027343 12.953125l-10.132813 68.015625c-.648437 4.371094.636719 8.808594 3.523437 12.15625 2.882813 3.347656 7.085938 5.273438 11.507813 5.273438h180.105469c4.421875 0 8.625-1.921876 11.507812-5.273438 2.886719-3.347656 4.171875-7.785156 3.523438-12.15625zm0 0" fill="#fccb4f"/><path d="m295.25 10.675781h-58.964844c-8.394531 0-15.195312 6.800781-15.195312 15.191407v57.339843c0 8.390625 6.800781 15.191407 15.195312 15.191407h58.964844c8.390625 0 15.195312-6.800782 15.195312-15.191407v-57.339843c0-8.390626-6.804687-15.191407-15.195312-15.191407zm0 0" fill="#97d85d"/><path d="m295.25 10.675781h-39.25v87.722657h39.25c8.390625 0 15.195312-6.800782 15.195312-15.191407v-57.339843c0-8.390626-6.804687-15.191407-15.195312-15.191407zm0 0" fill="#71b22d"/><path d="m390.601562 10.675781h-58.964843c-8.390625 0-15.195313 6.800781-15.195313 15.191407v57.339843c0 8.390625 6.804688 15.191407 15.195313 15.191407h58.964843c8.394532 0 15.195313-6.800782 15.195313-15.191407v-57.339843c0-8.390626-6.800781-15.191407-15.195313-15.191407zm0 0" fill="#e53535"/><path d="m485.957031 10.675781h-58.96875c-8.390625 0-15.195312 6.800781-15.195312 15.191407v57.339843c0 8.390625 6.804687 15.191407 15.195312 15.191407h58.96875c8.390625 0 15.191407-6.800782 15.191407-15.191407v-57.339843c0-8.390626-6.800782-15.191407-15.191407-15.191407zm0 0" fill="#2a4bd8"/><path d="m496.804688 68.011719h-481.609376c-8.394531 0-15.195312 6.804687-15.195312 15.195312v367.664063c0 8.390625 6.800781 15.195312 15.195312 15.195312h481.609376c8.394531 0 15.195312-6.804687 15.195312-15.195312v-367.664063c0-8.390625-6.800781-15.195312-15.195312-15.195312zm0 0" fill="#ffd561"/><path d="m496.804688 68.011719h-240.804688v398.054687h240.804688c8.390624 0 15.195312-6.804687 15.195312-15.195312v-367.664063c0-8.390625-6.800781-15.195312-15.195312-15.195312zm0 0" fill="#ffbf31"/><path d="m236.285156 330.722656h-163.464844c-8.390624 0-15.195312 6.804688-15.195312 15.195313v49.632812c0 8.390625 6.804688 15.191407 15.195312 15.191407h163.464844c8.390625 0 15.191406-6.800782 15.191406-15.191407v-49.632812c0-8.390625-6.800781-15.195313-15.191406-15.195313zm0 0" fill="#d9f5ff"/></svg>