<svg id="Capa_1" enable-background="new 0 0 512 512" height="512" viewBox="0 0 512 512" width="512" xmlns="http://www.w3.org/2000/svg"><g><path d="m490.658 256.17c-10.746-11.746-24.537-19.991-39.707-23.906-5.992-39.052-39.817-69.055-80.52-69.055-1.618 0-3.235.048-4.849.145-4.119-22.597-15.126-43.349-31.883-59.662-20.913-20.359-48.507-31.571-77.699-31.571s-56.786 11.212-77.699 31.571c-16.757 16.313-27.765 37.065-31.883 59.662-1.614-.097-3.231-.145-4.849-.145-40.702 0-74.528 30.003-80.52 69.055-15.17 3.915-28.96 12.161-39.707 23.906-13.762 15.043-21.342 34.563-21.342 54.965 0 44.919 36.544 81.463 81.463 81.463h349.074c44.919 0 81.463-36.544 81.463-81.463 0-20.402-7.58-39.922-21.342-54.965z" fill="#fff5f5"/><path d="m450.951 232.264c-5.992-39.052-39.817-69.055-80.52-69.055-1.618 0-3.235.048-4.849.145-4.119-22.597-15.126-43.349-31.883-59.662-20.913-20.359-48.507-31.571-77.699-31.571-.914 0-1.827.011-2.738.033v320.444h177.275c44.919 0 81.463-36.544 81.463-81.463 0-20.401-7.58-39.921-21.342-54.964-10.746-11.746-24.537-19.992-39.707-23.907z" fill="#ece6f2"/><path d="m337.417 315.147c-2.592-4.936-7.707-8.027-13.281-8.027h-17.925v-85.491c0-8.284-6.716-15-15-15h-75.898c-8.284 0-15 6.716-15 15v85.491h-17.925c-5.574 0-10.689 3.091-13.281 8.027-2.591 4.936-2.232 10.901.933 15.49l70.875 102.759c2.8 4.06 7.416 6.483 12.348 6.483s9.548-2.424 12.348-6.483l70.875-102.759c3.163-4.589 3.523-10.554.931-15.49z" fill="#dd4e4e"/><path d="m324.137 307.121h-17.925v-85.491c0-8.284-6.716-15-15-15h-37.949v233.25c4.932 0 9.548-2.424 12.348-6.483l70.875-102.759c3.165-4.589 3.524-10.554.933-15.49-2.593-4.936-7.708-8.027-13.282-8.027z" fill="#c21456"/></g></svg>