<svg height="512" viewBox="0 0 58 58" width="512" xmlns="http://www.w3.org/2000/svg"><g id="Page-1" fill="none" fill-rule="evenodd"><g id="048---Secure-Message"><path id="Path" d="m58 16v4h-28.8l12.8-8h12c2.209139 0 4 1.790861 4 4z" fill="#3b97d3"/><path id="Path" d="m58 20v34c0 2.209139-1.790861 4-4 4h-40c-2.209139 0-4-1.790861-4-4v-22l19.2-12z" fill="#ecf0f1"/><path id="Path" d="m54 17h-1c-.5522847 0-1-.4477153-1-1s.4477153-1 1-1h1c.5522847 0 1 .4477153 1 1s-.4477153 1-1 1z" fill="#2980ba"/><path id="Path" d="m6 0h30c3.3137085 0 6 2.6862915 6 6v20c0 3.3137085-2.6862915 6-6 6-.5522847 0-1 .4477153-1 1v5c-.0002882.3935712-.2314046.7503734-.5904559.9115581s-.7792581.0967733-1.0735441-.1645581l-7.052-6.494c-.1828973-.1627773-.4191576-.2527981-.664-.253h-19.62c-3.3137085 0-6-2.6862915-6-6v-20c0-3.3137085 2.6862915-6 6-6z" fill="#b0d3f0"/><path id="Path" d="m4 8c-.55228475 0-1-.44771525-1-1v-1c0-1.65685425 1.34314575-3 3-3h1c.55228475 0 1 .44771525 1 1s-.44771525 1-1 1h-1c-.55228475 0-1 .44771525-1 1v1c0 .55228475-.44771525 1-1 1z" fill="#ecf0f1"/><path id="Path" d="m36 29h-1c-.5522847 0-1-.4477153-1-1s.4477153-1 1-1h1c.5522847 0 1-.4477153 1-1v-1c0-.5522847.4477153-1 1-1s1 .4477153 1 1v1c0 1.6568542-1.3431458 3-3 3z" fill="#90bae1"/><g fill="#35495e"><path id="Path" d="m23 52h-6c-.5522847 0-1-.4477153-1-1s.4477153-1 1-1h6c.5522847 0 1 .4477153 1 1s-.4477153 1-1 1z"/><path id="Path" d="m51 52h-24c-.5522847 0-1-.4477153-1-1s.4477153-1 1-1h24c.5522847 0 1 .4477153 1 1s-.4477153 1-1 1z"/><path id="Path" d="m51 46h-34c-.5522847 0-1-.4477153-1-1s.4477153-1 1-1h34c.5522847 0 1 .4477153 1 1s-.4477153 1-1 1z"/></g><rect id="Rectangle" fill="#f0c419" height="14" rx="3" width="18" x="12" y="14"/><path id="Path" d="m19 14v-4c0-1.1045695.8954305-2 2-2s2 .8954305 2 2v4h4v-4c0-3.3137085-2.6862915-6-6-6s-6 2.6862915-6 6v4z" fill="#95a5a5"/><circle id="Oval" cx="21" cy="20" fill="#f29c1f" r="2"/><path id="Path" d="m21 25c-.5522847 0-1-.4477153-1-1v-3c0-.5522847.4477153-1 1-1s1 .4477153 1 1v3c0 .5522847-.4477153 1-1 1z" fill="#f29c1f"/></g></g></svg>