<?xml version="1.0" encoding="iso-8859-1"?>
<!-- Generator: Adobe Illustrator 19.0.0, SVG Export Plug-In . SVG Version: 6.00 Build 0)  -->
<svg version="1.1" id="Capa_1" xmlns="http://www.w3.org/2000/svg" xmlns:xlink="http://www.w3.org/1999/xlink" x="0px" y="0px"
	 viewBox="0 0 468.293 468.293" style="enable-background:new 0 0 468.293 468.293;" xml:space="preserve">
<rect x="58.262" y="155.136" style="fill:#E1E6E9;" width="351.781" height="225.655"/>
<path style="fill:#D5D6DB;" d="M412.2,125.675H56.093c-6.897,0-12.488,5.591-12.488,12.488v4.486
	c0,6.897,5.591,12.488,12.488,12.488H412.2c6.897,0,12.488-5.591,12.488-12.488v-4.486
	C424.688,131.266,419.097,125.675,412.2,125.675z"/>
<g>
	<path style="fill:#64798A;" d="M410.031,380.782H58.262v38.532c0,13.794,11.182,24.976,24.976,24.976h301.817
		c13.794,0,24.976-11.182,24.976-24.976V380.782z"/>
	<path style="fill:#64798A;" d="M410.031,125.675H58.262V87.143c0-13.794,11.182-24.976,24.976-24.976h301.817
		c13.794,0,24.976,11.182,24.976,24.976V125.675z"/>
	<path style="fill:#64798A;" d="M271.705,24.003h-75.117c-8.095,0-14.657,6.562-14.657,14.657v23.508h14.656V38.659h75.117v23.508
		h14.658V38.66C286.362,30.565,279.8,24.003,271.705,24.003z"/>
	<path style="fill:#64798A;" d="M460.329,175.403h-50.298v28.746c8.095,0,14.657-6.562,14.657-14.657v-1.272h19.403
		c4.398,0,7.964,3.566,7.964,7.964v0c0,4.398,3.566,7.964,7.964,7.964h0.311c4.398,0,7.964-3.566,7.964-7.964v-12.817
		C468.293,178.969,464.727,175.403,460.329,175.403z"/>
	<path style="fill:#64798A;" d="M7.964,175.403h50.299v28.746c-8.095,0-14.657-6.562-14.657-14.657v-1.272H24.202
		c-4.398,0-7.964,3.566-7.964,7.964v0c0,4.398-3.566,7.964-7.964,7.964H7.964c-4.398,0-7.964-3.566-7.964-7.964v-12.817
		C0,178.969,3.566,175.403,7.964,175.403z"/>
</g>
<path style="fill:#EBF0F3;" d="M367.227,305.642c-13.568,30.188-33.078,50.835-43.579,46.116
	c-10.5-4.719,16.498-25.093,26.797-56.547c10.392-31.738,11.835-57.494,22.335-52.775
	C383.281,247.155,380.794,275.453,367.227,305.642z"/>
<g>
</g>
<g>
</g>
<g>
</g>
<g>
</g>
<g>
</g>
<g>
</g>
<g>
</g>
<g>
</g>
<g>
</g>
<g>
</g>
<g>
</g>
<g>
</g>
<g>
</g>
<g>
</g>
<g>
</g>
</svg>
