<svg height="512pt" viewBox="-97 0 512 512" width="512pt" xmlns="http://www.w3.org/2000/svg"><path d="m290.34375 64.519531h-262.246094c-5.746094 0-10.40625-4.660156-10.40625-10.40625v-43.707031c0-5.746094 4.660156-10.40625 10.40625-10.40625h262.246094c5.746094 0 10.402344 4.660156 10.402344 10.40625v43.707031c0 5.746094-4.65625 10.40625-10.402344 10.40625zm0 0" fill="#737277"/><path d="m282.710938 0v33.300781c0 5.746094-4.660157 10.40625-10.40625 10.40625h-254.613282v10.40625c0 5.75 4.660156 10.410157 10.40625 10.410157h262.246094c5.746094 0 10.40625-4.660157 10.40625-10.410157v-43.707031c-.003906-5.746094-4.660156-10.40625-10.40625-10.40625zm0 0" fill="#56555b"/><path d="m290.34375 90.171875v-25.652344h-262.246094v25.652344c0 10.285156-3.804687 20.203125-10.6875 27.847656l-6.722656 7.472657c-6.878906 7.644531-10.6875 17.5625-10.6875 27.847656v317.035156c0 22.988281 18.636719 41.625 41.625 41.625h235.1875c22.988281 0 41.625-18.636719 41.625-41.625v-317.035156c0-10.285156-3.804688-20.203125-10.683594-27.847656l-6.726562-7.472657c-6.878906-7.644531-10.683594-17.5625-10.683594-27.847656zm0 0" fill="#f0a65f"/><path d="m307.753906 125.492188-6.726562-7.472657c-6.878906-7.644531-10.683594-17.5625-10.683594-27.847656v-25.652344h-33.304688v25.652344c0 10.285156 3.808594 20.203125 10.6875 27.847656l6.726563 7.472657c6.878906 7.644531 10.6875 17.5625 10.6875 27.847656v317.035156c0 22.988281-18.636719 41.625-41.628906 41.625h33.300781c22.992188 0 41.628906-18.636719 41.628906-41.625v-317.035156c0-10.285156-3.808594-20.203125-10.6875-27.847656zm0 0" fill="#e28540"/><path d="m318.441406 197.722656h-81.425781c-21.09375-17.542968-48.210937-28.097656-77.792969-28.097656-29.585937 0-56.699218 10.554688-77.796875 28.097656h-81.425781v187.316406h81.421875c21.097656 17.546876 48.214844 28.101563 77.796875 28.101563s56.699219-10.554687 77.796875-28.101563h81.421875v-187.316406zm0 0" fill="#ffd15f"/><path d="m285.140625 197.722656h33.300781v187.316406h-33.300781zm0 0" fill="#fcbf35"/><path d="m159.21875 232.515625c-5.519531 5.519531-9.160156 12.207031-10.929688 19.265625-1.730468 6.921875-5.363281 13.21875-10.410156 18.261719-5.042968 5.042969-11.339844 8.679687-18.257812 10.410156-7.0625 1.769531-13.75 5.40625-19.269532 10.929687-16.257812 16.257813-16.257812 42.613282 0 58.867188 16.253907 16.257812 42.613282 16.257812 58.867188 0 5.519531-5.519531 9.164062-12.207031 10.929688-19.269531 1.730468-6.917969 5.367187-13.214844 10.410156-18.257813 5.042968-5.042968 11.339844-8.679687 18.261718-10.410156 7.058594-1.769531 13.746094-5.410156 19.269532-10.929688 16.253906-16.257812 16.253906-42.613281 0-58.867187-16.257813-16.257813-42.613282-16.257813-58.871094 0zm0 0" fill="#fff3d7"/><path d="m218.089844 232.515625c-3.125-3.125-6.625-5.644531-10.351563-7.566406 8.082031 15.664062 5.566407 35.386719-7.566406 48.519531-5.519531 5.519531-12.207031 9.160156-19.269531 10.925781-6.917969 1.734375-13.214844 5.367188-18.257813 10.414063-5.042969 5.042968-8.679687 11.339844-10.410156 18.257812-1.769531 7.0625-5.410156 13.746094-10.929687 19.269532-13.132813 13.132812-32.851563 15.648437-48.519532 7.566406 1.925782 3.726562 4.441406 7.226562 7.566406 10.351562 16.253907 16.253906 42.613282 16.253906 58.867188 0 5.519531-5.523437 9.164062-12.210937 10.929688-19.269531 1.730468-6.921875 5.367187-13.21875 10.410156-18.261719 5.042968-5.042968 11.339844-8.679687 18.261718-10.410156 7.058594-1.765625 13.746094-5.410156 19.269532-10.929688 16.253906-16.257812 16.253906-42.613281 0-58.867187zm0 0" fill="#f9dbaa"/></svg>