<svg id="Layer_1" enable-background="new 0 0 65 65" height="512" viewBox="0 0 65 65" width="512" xmlns="http://www.w3.org/2000/svg"><g><path d="m55.4 6.5c-2.2-1.8-5.4-1-7.5 0v-.1s-10.1-1.7-12.2-3.9c-2.1-2.2-3.1-1.9-3.1-1.9s-1-.3-3.1 1.9-12.2 3.9-12.2 3.9v.1c-2.1-.9-5.3-1.8-7.5 0-1.4 1.1-2 3.5-1.7 6.3.3 2.1 1.2 5.5 4.4 9.2 2.7 3.3 6.6 6.2 11.3 8.6 2.7 3.6 5.3 5.4 6.4 6.6 2.3 2.8-.6 5.4-.6 5.4v1.2l-1.6.7c0 2.1-4.5 5-4.5 5v1.3h9 9v-1.3s-4.5-3-4.5-5l-1.4-.6v-1.2s-2.9-2.6-.6-5.4c1-1.3 3.7-3 6.4-6.6 4.8-2.4 8.6-5.3 11.3-8.6 3.1-3.7 4.1-7.1 4.4-9.2.3-2.9-.3-5.3-1.7-6.4zm-45.8 6.1c-.3-2.6.4-4.2 1.1-4.8 1.7-1.4 4.6-.4 6.5.5.3 9 2.2 15 4.5 19.2-10.1-5.9-11.8-12.8-12.1-14.9zm45.8 0c-.3 2.1-1.9 9-12.1 15 2.3-4.2 4.3-10.3 4.5-19.2 1.9-1 4.8-1.9 6.5-.5.7.5 1.4 2.1 1.1 4.7z" fill="#fbd984"/><g><path d="m41.5 50.8h-18c-.7 0-1.3.6-1.3 1.3v10h20.6v-10c0-.7-.6-1.3-1.3-1.3z" fill="#788d9a"/></g><g><path d="m43.4 62.1h-21.8c-.6 0-1.2.5-1.2 1.2 0 .6.5 1.2 1.2 1.2h21.7c.6 0 1.2-.5 1.2-1.2 0-.6-.5-1.2-1.1-1.2z" fill="#445c6c"/></g><g><path d="m26.8 53.7h11.3v5.5h-11.3z" fill="#445c6c"/></g></g></svg>