<svg id="Capa_1" enable-background="new 0 0 512 512" height="512" viewBox="0 0 512 512" width="512" xmlns="http://www.w3.org/2000/svg"><g><path d="m502.052 219.847-67.095 27.024c-8.835 7.755-6.026 24.533 0 32.115l67.095 27.023c5.381 2.167 10.997-2.56 9.78-8.232l-7.479-34.848 7.479-34.849c1.217-5.674-4.399-10.401-9.78-8.233z" fill="#eaf6ff"/><path d="m509.103 285.063c-1.904 1.438-4.499 1.973-7.051.945l-67.095-27.023c-1.488-1.872-2.778-4.305-3.746-7.023-3.942 8.534-1.169 20.838 3.746 27.023l67.095 27.023c5.381 2.167 10.997-2.56 9.78-8.232z" fill="#d8ecfe"/><path d="m214.531 185.488.015-.466 14.939-29.793c3.642-7.264.525-16.1-6.87-19.469-4.778-2.178-10.364-1.568-14.561 1.588l-62.854 47.275.526.268c20.055 7.894 42.377 11.052 68.805.597z" fill="#eaf6ff"/><path d="m165.726 184.891-.526-.268 61.378-46.165c-1.132-1.084-2.453-2.01-3.964-2.698-4.778-2.178-10.364-1.568-14.561 1.588l-62.853 47.275.526.268c13.859 5.456 28.802 8.646 45.432 6.648-8.924-1.064-17.362-3.472-25.432-6.648z" fill="#d8ecfe"/><path d="m137.41 329.79c-8.749-1.429-17.428 6.987-26.015 4.588l-.003.002 22.837 39.534c2.931 5.073 10.361 4.743 12.83-.57l14.198-30.553-.01-.025c-7.957-.481-15.91-11.681-23.837-12.976z" fill="#eaf6ff"/><path d="m131.393 334.38.003-.002c4.138 1.156 8.297-.2 12.474-1.754-2.155-1.398-4.308-2.482-6.46-2.834-8.749-1.429-17.428 6.987-26.015 4.588l-.003.002 22.837 39.533c2.931 5.073 10.361 4.743 12.83-.57l3.05-6.563z" fill="#d8ecfe"/><path d="m244.384 332.88.002.052 64.098 21.929c3.745 1.281 7.825-.684 9.158-4.412l14.399-40.283c1.323-3.701 5.357-5.669 9.088-4.435l40.061 13.252c2.917.965 6.125-.017 8.002-2.449l28.981-37.55c-8.852-7.632-19.693-7.072-32.115 0-54.499-6.548-135.695 40.145-141.674 53.896z" fill="#eaf6ff"/><g><g><g><path d="m264.387 322.932-.002-.052c2.216-5.097 14.771-14.719 32.464-24.479-27.773 12.558-49.481 27.618-52.465 34.479l.002.052 64.098 21.929c3.745 1.281 7.825-.684 9.157-4.412l2.961-8.285z" fill="#ddf6f9"/></g><g><path d="m361.129 295.731c-3.731-1.234-7.765.734-9.088 4.435l-2.933 8.205 32.082 10.613c2.917.965 6.125-.017 8.002-2.449l7.083-9.177z" fill="#ddf6f9"/></g></g></g><path d="m418.157 246.87.016-.001-28.336-40.194c-2.144-3.042-6.246-3.961-9.484-2.126l-41.695 23.635c11.644 17.833 27.145 24.898 47.4 18.686 11.796 6.459 22.653 7.388 32.099 0z" fill="#eaf6ff"/><path d="m358.659 238.184 38.147-21.624-6.969-9.885c-2.144-3.042-6.246-3.961-9.484-2.126l-41.695 23.635c7.753 11.873 17.217 18.965 28.654 20.552-3.094-2.931-5.977-6.453-8.653-10.552z" fill="#d8ecfe"/><path d="m338.659 228.184-24.086-49.889c-1.706-3.534-5.918-5.064-9.495-3.45l-47.478 21.43-.021.092c9.327 22.653 62.054 38.85 81.08 31.817z" fill="#eaf6ff"/><path d="m277.58 206.366.021-.092 41.448-18.708-4.476-9.271c-1.706-3.534-5.918-5.064-9.495-3.45l-47.478 21.43-.021.092c4.513 10.964 19.193 20.415 35.298 26.453-7.216-4.811-12.806-10.402-15.297-16.454z" fill="#d8ecfe"/><path d="m450.284 262.929c.052 10.246-5.293 16.056-15.322 16.056h-48.902l-136.534 52.304c-36.641 11.962-74.646 14.96-112.114 8.84-23.603-3.857-46.69-11.28-68.825-22.053s-43.319-24.906-63.097-42.162c-3.67-3.205-5.49-8.312-5.49-13.409 0-5.397 2.037-10.773 6.059-13.885l11.91-9.222c31.523-24.379 66.147-41.169 102.209-49.564l4.332-1.003c45.79-10.659 92.832-7.527 137.557 9.16l84.809 33.436 39.184 15.446h48.902c8.86 0 15.322 4.466 15.322 16.056z" fill="#cad4e6"/><path d="m434.962 258.985h-48.902l-136.534 52.304c-36.641 11.962-74.646 14.96-112.114 8.84-23.603-3.856-46.69-11.28-68.825-22.053s-43.319-24.906-63.097-42.162c-1.118-.976-2.043-2.144-2.818-3.418-1.764 2.901-2.672 6.443-2.672 10.009 0 5.097 1.82 10.204 5.49 13.409 19.778 17.255 40.962 31.388 63.097 42.161s45.222 18.196 68.825 22.053c37.468 6.121 75.473 3.122 112.114-8.84l136.534-52.304h48.902c10.029 0 15.374-5.811 15.322-16.056 0-4.269-.882-7.565-2.433-10.034-2.48 3.951-6.821 6.091-12.889 6.091z" fill="#bac5d9"/><path d="m103.264 276.338c-4.001 11.993-12.51 21.96-23.738 27.77l-18.837 9.956c-9.636-5.097-19.085-10.825-28.297-17.193-4.652-3.215-9.253-6.596-13.782-10.132-4.435-3.453-8.819-7.061-13.12-10.825-1.478-1.292-2.647-2.885-3.526-4.663-3.629-7.33-2.202-17.762 4.094-22.632l11.91-9.222c17.752-13.73 36.475-25.051 55.891-33.818l16.594 20.016c13.793 12.965 18.797 32.774 12.811 50.743z" fill="#bac5d9"/><path d="m50.965 259.817c-4.282 0-7.754-3.472-7.754-7.754 0-4.282 3.472-7.754 7.754-7.754 4.283 0 7.754 3.472 7.754 7.754.001 4.282-3.471 7.754-7.754 7.754z" fill="#97a6bf"/><g><g><path d="m40.549 278.985c0 4.28-4.208 7.754-9.408 7.754h-12.531c-4.435-3.453-8.819-7.061-13.12-10.825-1.478-1.292-2.647-2.885-3.526-4.663.124-.021.248-.021.372-.021h28.804c5.201.001 9.409 3.474 9.409 7.755z" fill="#97a6bf"/></g></g><path d="m149.811 280.221.275.309c.943 1.056 2.174 1.813 3.543 2.176l31.809 8.445c3.008.799 6.19-.415 7.902-3.015l10.827-16.444c3.496-5.31-1.063-12.225-7.321-11.104l-42.911 7.691c-5.572.998-7.892 7.718-4.124 11.942z" fill="#eaf6ff"/><g><path d="m386.99 246.873c-.31.041-.62.062-.931.062h-96.347c-.693 0-1.385-.093-2.057-.279-50.443-13.906-114.264-18.176-188.817-7.382-13.637 1.975-16.738-12.499-8.385-13.678 83.413-11.765 148.092-8.374 200.303 5.831h56.119l39.184 15.446z" fill="#bac5d9"/></g><path d="" fill="#fff"/></g></svg>