<svg id="Capa_1" enable-background="new 0 0 512 512" height="512" viewBox="0 0 512 512" width="512" xmlns="http://www.w3.org/2000/svg"><g><path d="m442.31 512h-372.62v-453.577h80.399l105.911 10 105.911-10h80.399z" fill="#f5f2f1"/><path d="m442.31 512h-186.31v-443.577l105.911-10h80.399z" fill="#dbd1cc"/><g><path d="m345.411 333.104-89.411 109.411c-60.426 0-109.411-48.985-109.411-109.411s48.985-109.411 109.411-109.411z" fill="#69b1e9"/><path d="m256 223.693c60.426 0 109.411 48.985 109.411 109.411s-48.985 109.411-109.411 109.411z" fill="#2681ff"/><g><g><path d="m237.271 391.099-46.713-46.714 21.213-21.213 25.5 25.501 18.729-18.729 15.167 12.556-15.167 29.87z" fill="#f5f2f1"/></g></g><path d="m256 372.37 65.442-65.442-21.213-21.213-44.229 44.229z" fill="#dbd1cc"/></g><path d="m256 153.317 21.667-94.893-21.667-58.424c-32.266 0-58.423 26.157-58.423 58.423h-47.488v94.893h105.911z" fill="#dbd1cc"/><path d="m361.911 153.317v-94.894h-47.487c-.001-32.266-26.158-58.423-58.424-58.423v153.317z" fill="#b3a9a9"/></g></svg>