<svg id="Capa_1" enable-background="new 0 0 497.599 497.599" height="512" viewBox="0 0 497.599 497.599" width="512" xmlns="http://www.w3.org/2000/svg"><g><g><path d="m359.892 134.041c11.258 14.418 17.374 32.186 17.374 50.479v37.851c0 151.553-122.858 274.41-274.41 274.41-39.697 0-76.745-19.917-98.642-53.028l-1.624-2.455c-4.834-7.309 1.022-16.945 9.737-16.021l21.228 2.251c72.091 7.644 134.914-48.87 134.914-121.365v-116.573c0-21.158 9.144-41.285 25.081-55.202l29.997-21.254h118.502z" fill="#f37c7c"/><g id="XMLID_384_"><g><path d="m351.769 124.524-40.98 8.659-2.865 1.714c-16.108 9.634-28.705 24.579-35.471 42.082l-10.743 27.791c-22.73 58.798-21.202 122.928 4.303 180.576 6.181 13.972 13.601 27.148 22.118 39.432 54.778-50.169 89.134-122.273 89.134-202.407v-37.851c0-18.293-6.115-36.061-17.374-50.479z" fill="#ee6161"/><path d="m359.892 134.041-17.844-20.908h-47.095l-15.16 14.365v-14.365h-56.248l-29.997 21.254c-15.937 13.918-25.081 34.044-25.081 55.203v116.572c0 72.496-62.822 129.009-134.914 121.365l-21.228-2.251c-8.714-.924-14.57 8.712-9.737 16.021l1.624 2.455c15.316 23.16 38.049 39.852 63.912 47.801-4.602-4.883-8.829-10.18-12.598-15.878l-1.624-2.455c-4.834-7.309 1.023-16.945 9.737-16.021l21.228 2.251c72.091 7.644 134.914-48.87 134.914-121.365v-116.572c0-21.159 9.144-41.285 25.081-55.203l.418-.296c7.063-5.004 16.14-5.952 24.214-2.831 1.716.663 3.266 1.105 4.349 1.105 4.334 0 8.462-1.366 11.938-3.951l5.685-4.226c3.664-2.723 8.652-2.822 12.42-.245l5.137 3.513c1.729 1.182 3.603 2.159 5.605 2.774 9.891 3.035 20.038-1.889 24.12-10.731l1.514-3.281h22.592c1.883 0 3.745-.274 5.51-.78-2.375-4.674-5.209-9.141-8.472-13.32z" fill="#ee6161"/><path d="m307.264 90.21h7.31c11.7 0 22.8 3.59 32.04 9.91 9.24 6.31 16.62 15.35 20.86 26.26 1.26 3.25-1.13 6.76-4.62 6.76h-32.19l-5.536 11.997c-1.299 2.816-4.818 3.787-7.378 2.037l-16.828-11.505c-2.213-1.513-5.143-1.455-7.294.144l-16.796 12.485c-1.774 1.319-4.203 1.319-5.978.001l-16.805-12.487c-2.152-1.599-5.081-1.656-7.294-.143l-16.82 11.505c-2.559 1.75-6.077.78-7.378-2.034l-4.022-8.705c-.928-2.009-2.939-3.295-5.152-3.295h-28.55c-2.85 0-4.97-2.34-4.97-4.96 0-.6.11-1.2.34-1.8 8.49-21.81 29.5-36.17 52.9-36.17h7.31v-21.12c0-9.14 6.56-16.73 15.22-18.35v-32.54c0-10.05 8.15-18.2 18.21-18.2 5.03 0 9.57 2.04 12.87 5.33 3.29 3.3 5.33 7.84 5.33 12.87v32.54c8.66 1.62 15.22 9.21 15.22 18.35v21.12z" fill="#22b27f"/></g></g></g><path d="m440.222 199.527c7.751 14.742 8.752 32.114 2.747 47.648l-33.086 85.587c-20.576 53.226 9.509 112.549 64.608 127.398l16.224 4.372c6.66 1.795 8.225 10.532 2.601 14.526l-1.889 1.342c-25.474 18.096-58.328 22.203-87.474 10.936-111.27-43.014-166.602-168.085-123.589-279.355l10.743-27.79c5.192-13.431 14.725-24.74 27.083-32.131l35.376-7.474 77.788 28.846z" fill="#97da7b"/><g id="XMLID_385_"><g><path d="m461.249 491.336c-111.27-43.014-166.603-168.085-123.589-279.355l6.301-16.299c1.669-4.317 5.362-7.532 9.868-8.589 2.181-.512 4.447.416 5.643 2.311l3.032 4.805c4.082 6.468 11.605 9.865 19.41 8.446.452-.082.901-.197 1.344-.32l6.464-1.793c1.658-.46 3.424.183 4.399 1.601l3.23 4.7c3.265 4.75 8.422 7.999 14.166 8.474 5.488.454 15.374-5.914 15.374-5.914l14.677 5.678c1.413.545 2.891.909 4.376 1.104-1.033-5.75-2.945-11.379-5.721-16.659l-8.868-26.094-56.525-20.961-21.263-7.885-35.375 7.474c-12.358 7.391-21.891 18.7-27.083 32.131l-10.743 27.79c-43.014 111.27 12.319 236.341 123.589 279.355 20.188 7.804 42.168 8.229 62.23 1.74-1.652-.534-3.307-1.11-4.936-1.74z" fill="#80d261"/><path d="m418.354 153.79 5.99-15.51c2.59-6.7-.07-14.14-5.97-17.79l9.24-23.89c2.85-7.38-.82-15.68-8.2-18.53-1.7-.66-3.44-.97-5.16-.97-5.75 0-11.18 3.49-13.37 9.17l-9.24 23.88c-6.82-1.26-13.79 2.45-16.38 9.16l-5.99 15.5-5.37-2.07c-5.24-2.03-10.69-3.01-16.1-3.01-12.32 0-24.37 5.1-33.01 14.56-1.85 2.02-1.08 5.28 1.48 6.27l23.63 9.14.674 10.553c.15 2.342 2.368 3.988 4.653 3.451l16.374-3.845c1.705-.4 3.476.325 4.41 1.806l9.174 14.54c.893 1.416 2.609 2.079 4.222 1.631l16.561-4.594c1.688-.468 3.488.187 4.48 1.631l9.529 13.866c1.33 1.935 4.081 2.21 5.767.575l5.709-5.535c1.15-1.115 2.844-1.459 4.338-.881l21.178 8.192c2.557.989 5.31-.898 5.31-3.64v-.01c0-18.408-11.323-34.919-28.495-41.551z" fill="#57be92"/></g></g></g></svg>