<?xml version="1.0" encoding="iso-8859-1"?>
<!-- Generator: Adobe Illustrator 19.0.0, SVG Export Plug-In . SVG Version: 6.00 Build 0)  -->
<svg version="1.1" id="Capa_1" xmlns="http://www.w3.org/2000/svg" xmlns:xlink="http://www.w3.org/1999/xlink" x="0px" y="0px"
	 viewBox="0 0 512 512" style="enable-background:new 0 0 512 512;" xml:space="preserve">
<g>
	<path style="fill:#E74C87;" d="M297.216,0c-4.96,0-9.76,0.752-14.256,2.128c-17.392,5.344-36.528,5.344-53.92,0
		C224.528,0.752,219.744,0,214.784,0c-26.992,0-48.88,21.888-48.88,48.88c0,27.008,44.592,175.856,90.096,175.856
		S346.096,75.888,346.096,48.88C346.096,21.888,324.208,0,297.216,0z"/>
	<path style="fill:#E74C87;" d="M214.784,512c4.96,0,9.76-0.752,14.256-2.128c17.392-5.344,36.528-5.344,53.92,0
		c4.512,1.376,9.296,2.128,14.256,2.128c26.992,0,48.88-21.888,48.88-48.88c0-27.008-44.592-175.856-90.096-175.856
		s-90.096,148.848-90.096,175.856C165.904,490.112,187.792,512,214.784,512z"/>
	<path style="fill:#E74C87;" d="M466.16,104.128c-3.52-3.52-7.424-6.368-11.584-8.576c-16.08-8.528-29.6-22.048-38.128-38.128
		c-2.208-4.16-5.056-8.08-8.576-11.584c-19.088-19.088-50.048-19.088-69.136,0c-19.088,19.088-92.816,155.888-60.64,188.064
		s168.976-41.536,188.064-60.64C485.248,154.176,485.248,123.216,466.16,104.128z"/>
	<path style="fill:#E74C87;" d="M45.84,407.872c3.52,3.52,7.424,6.368,11.584,8.576c16.08,8.528,29.6,22.048,38.128,38.128
		c2.208,4.16,5.056,8.08,8.576,11.584c19.088,19.088,50.048,19.088,69.136,0s92.816-155.888,60.64-188.064
		S64.928,319.632,45.84,338.736C26.752,357.824,26.752,388.784,45.84,407.872z"/>
</g>
<g>
	<path style="fill:#D24078;" d="M466.16,104.128c-3.52-3.52-7.424-6.368-11.584-8.576c-16.08-8.528-29.6-22.048-38.128-38.128
		c-2.208-4.16-5.056-8.08-8.576-11.584c-19.088-19.088-50.048-19.088-69.136,0c-19.088,19.088-92.816,155.888-60.64,188.064
		s168.976-41.536,188.064-60.64C485.248,154.176,485.248,123.216,466.16,104.128z"/>
	<path style="fill:#D24078;" d="M45.84,407.872c3.52,3.52,7.424,6.368,11.584,8.576c16.08,8.528,29.6,22.048,38.128,38.128
		c2.208,4.16,5.056,8.08,8.576,11.584c19.088,19.088,50.048,19.088,69.136,0s92.816-155.888,60.64-188.064
		S64.928,319.632,45.84,338.736C26.752,357.824,26.752,388.784,45.84,407.872z"/>
</g>
<g>
	<path style="fill:#E74C87;" d="M512,297.216c0-4.96-0.752-9.76-2.128-14.256c-5.344-17.392-5.344-36.528,0-53.92
		c1.376-4.512,2.128-9.296,2.128-14.256c0-26.992-21.888-48.88-48.88-48.88c-27.008,0-175.856,44.592-175.856,90.096
		s148.848,90.096,175.856,90.096C490.112,346.096,512,324.208,512,297.216z"/>
	<path style="fill:#E74C87;" d="M0,214.784c0,4.96,0.752,9.76,2.128,14.256c5.344,17.392,5.344,36.528,0,53.92
		C0.752,287.472,0,292.256,0,297.216c0,26.992,21.888,48.88,48.88,48.88c27.008,0,175.856-44.592,175.856-90.096
		S75.888,165.904,48.88,165.904C21.888,165.904,0,187.792,0,214.784z"/>
</g>
<g>
	<path style="fill:#D24078;" d="M407.872,466.16c3.52-3.52,6.368-7.424,8.576-11.584c8.528-16.08,22.048-29.6,38.128-38.128
		c4.16-2.208,8.08-5.056,11.584-8.576c19.088-19.088,19.088-50.048,0-69.136c-19.088-19.088-155.888-92.816-188.064-60.64
		s41.536,168.976,60.64,188.064C357.824,485.248,388.784,485.248,407.872,466.16z"/>
	<path style="fill:#D24078;" d="M104.128,45.84c-3.52,3.52-6.368,7.424-8.576,11.584c-8.528,16.08-22.048,29.6-38.128,38.128
		c-4.16,2.208-8.08,5.056-11.584,8.576c-19.088,19.088-19.088,50.048,0,69.136s155.888,92.816,188.064,60.64
		S192.368,64.928,173.264,45.84C154.176,26.752,123.216,26.752,104.128,45.84z"/>
</g>
<circle style="fill:#FFFFFF;" cx="256" cy="256" r="82.032"/>
<circle style="fill:#FFD83B;" cx="256" cy="256" r="52.032"/>
<g>
</g>
<g>
</g>
<g>
</g>
<g>
</g>
<g>
</g>
<g>
</g>
<g>
</g>
<g>
</g>
<g>
</g>
<g>
</g>
<g>
</g>
<g>
</g>
<g>
</g>
<g>
</g>
<g>
</g>
</svg>
