<svg id="Capa_1" enable-background="new 0 0 512 512" height="512" viewBox="0 0 512 512" width="512" xmlns="http://www.w3.org/2000/svg"><g><path d="m256 300c-8.291 0-15 6.709-15 15v60c0 8.291 6.709 15 15 15s15-6.709 15-15v-60c0-8.291-6.709-15-15-15z" fill="#dfe7f4"/><path d="m271 375v-60c0-8.291-6.709-15-15-15v90c8.291 0 15-6.709 15-15z" fill="#c7cfe1"/><circle cx="256" cy="165" fill="#575f64" r="165"/><path d="m421 165c0-90.981-74.019-165-165-165v330c90.981 0 165-74.019 165-165z" fill="#474f54"/><circle cx="256" cy="165" fill="#f0f7ff" r="105"/><path d="m361 165c0-57.891-47.109-105-105-105v210c57.891 0 105-47.109 105-105z" fill="#dfe7f4"/><path d="m256 360c-24.814 0-45 20.186-45 45v62c0 24.814 20.186 45 45 45s45-20.186 45-45v-62c0-24.814-20.186-45-45-45z" fill="#7c8388"/><path d="m301 467v-62c0-24.814-20.186-45-45-45v152c24.814 0 45-20.186 45-45z" fill="#474f54"/></g></svg>