<svg height="512" viewBox="0 0 42 58" width="512" xmlns="http://www.w3.org/2000/svg"><g id="Page-1" fill="none" fill-rule="evenodd"><g id="048---Vase" fill-rule="nonzero"><path id="Shape" d="m1 0h40c.5522847 0 1 .44771525 1 1v49c0 2.209139-1.790861 4-4 4h-34c-2.209139 0-4-1.790861-4-4v-49c0-.55228475.44771525-1 1-1z" fill="#26b99a"/><path id="Shape" d="m6 54h30v2c0 1.1045695-.8954305 2-2 2h-26c-1.1045695 0-2-.8954305-2-2z" fill="#33907c"/><path id="Shape" d="m4 6c-.55228475 0-1-.44771525-1-1v-1c0-.55228475.44771525-1 1-1s1 .44771525 1 1v1c0 .55228475-.44771525 1-1 1z" fill="#81ccb8"/><path id="Shape" d="m4 47c-.55228475 0-1-.4477153-1-1v-37c0-.55228475.44771525-1 1-1s1 .44771525 1 1v37c0 .5522847-.44771525 1-1 1z" fill="#81ccb8"/><path id="Shape" d="m42 46v4c0 2.209139-1.790861 4-4 4h-34c-2.209139 0-4-1.790861-4-4v-4c0 2.209139 1.790861 4 4 4h34c2.209139 0 4-1.790861 4-4z" fill="#14a085"/></g></g></svg>