<?xml version="1.0" encoding="iso-8859-1"?>
<!-- Generator: Adobe Illustrator 19.0.0, SVG Export Plug-In . SVG Version: 6.00 Build 0)  -->
<svg xmlns="http://www.w3.org/2000/svg" xmlns:xlink="http://www.w3.org/1999/xlink" version="1.1" id="Capa_1" x="0px" y="0px" viewBox="0 0 512.001 512.001" style="enable-background:new 0 0 512.001 512.001;" xml:space="preserve">
<path style="fill:#BD0058;" d="M509.509,375.862L276.763,24.192c-4.624-6.986-12.385-11.157-20.763-11.157  c-8.377,0-16.139,4.171-20.763,11.156L2.492,375.862c-3.936,5.947-3.141,13.843,1.902,18.885  c33.962,33.962,73.567,60.26,117.716,78.163c42.636,17.29,87.683,26.056,133.89,26.056s91.254-8.766,133.89-26.056  c44.149-17.903,83.754-44.201,117.716-78.163C512.65,389.704,513.445,381.809,509.509,375.862z"/>
<path style="fill:#E83A71;" d="M256,13.035c-8.377,0-16.139,4.171-20.763,11.156L2.492,375.862  c-3.936,5.947-3.141,13.843,1.902,18.885c33.962,33.962,73.567,60.26,117.716,78.163c42.636,17.29,87.683,26.056,133.89,26.056  V13.035z"/>
<path style="fill:#1BA88A;" d="M509.509,375.862l-20.66-31.216c-65.435,61.812-149.14,98.91-232.849,98.91  c-83.708,0-167.414-37.098-232.848-98.911l-20.66,31.216c-3.936,5.947-3.141,13.843,1.902,18.885  c33.962,33.962,73.567,60.26,117.716,78.163c42.636,17.29,87.683,26.056,133.89,26.056s91.254-8.766,133.89-26.056  c44.149-17.903,83.754-44.201,117.716-78.163C512.65,389.704,513.445,381.809,509.509,375.862z"/>
<path style="fill:#73CB8B;" d="M256,443.556c-83.708,0-167.414-37.098-232.848-98.911l-20.66,31.216  c-3.936,5.947-3.141,13.843,1.902,18.885c33.962,33.962,73.567,60.26,117.716,78.163c42.636,17.29,87.683,26.056,133.89,26.056  V443.556z"/>
<g>
	<circle style="fill:#3A3A7D;" cx="179.36" cy="245.49" r="17.575"/>
	<circle style="fill:#3A3A7D;" cx="148.15" cy="307.49" r="17.575"/>
	<circle style="fill:#3A3A7D;" cx="219.51" cy="337.63" r="17.575"/>
</g>
<g>
	<circle style="fill:#281854;" cx="292.49" cy="337.63" r="17.575"/>
	<circle style="fill:#281854;" cx="363.86" cy="307.49" r="17.575"/>
	<circle style="fill:#281854;" cx="292.49" cy="186.39" r="17.575"/>
	<circle style="fill:#281854;" cx="256" cy="265.58" r="17.575"/>
</g>
<g>
	<path style="fill:#3A3A7D;" d="M256,283.154c-9.706,0-17.575-7.868-17.575-17.574c0-9.706,7.868-17.575,17.575-17.575V283.154z"/>
	<circle style="fill:#3A3A7D;" cx="219.51" cy="186.39" r="17.575"/>
</g>
<circle style="fill:#281854;" cx="332.64" cy="245.49" r="17.575"/>
<g>
</g>
<g>
</g>
<g>
</g>
<g>
</g>
<g>
</g>
<g>
</g>
<g>
</g>
<g>
</g>
<g>
</g>
<g>
</g>
<g>
</g>
<g>
</g>
<g>
</g>
<g>
</g>
<g>
</g>
</svg>
