<svg id="Capa_1" enable-background="new 0 0 600.942 600.942" height="512" viewBox="0 0 600.942 600.942" width="512" xmlns="http://www.w3.org/2000/svg"><path d="m259.971 600.942h-.001z" fill="none"/><g><path d="m556.471 511.942h-512v-313.046l256-169.959 256 169.959z" fill="#fff8d5"/><path d="m556.471 198.896-256-169.958v483.004h256z" fill="#ffe3ba"/><g><path d="m556.471 511.942h-512v-302.963l256 169.958 256-169.958z" fill="#ffe565"/></g><path d="m556.471 208.979-256 169.959v133.004h256z" fill="#ffd400"/><path d="m556.471 511.942h-512v-24.046l231.11-153.435c15.121-10.037 34.66-10.038 49.779.001l231.11 153.434v24.046z" fill="#ffd400"/><path d="m556.471 487.896-231.11-153.434c-7.56-5.02-16.225-7.529-24.89-7.529v185.009h256z" fill="#ffb234"/><path d="m158.263 353.79c-12.02 0-23.321-4.681-31.82-13.181v.001c0-.001 0-.001 0-.001-8.5-8.498-13.181-19.799-13.181-31.819s4.681-23.32 13.181-31.819l116.672-116.673 63.64 63.64-116.673 116.671c-8.499 8.499-19.799 13.181-31.819 13.181z" fill="#388cb3"/><path d="m274.935 192.118-148.492 148.492c8.499 8.5 19.8 13.18 31.82 13.18s23.32-4.682 31.819-13.181l116.673-116.672z" fill="#265d77"/><path d="m342.111 249.884c-32.01 0-64.02-12.184-88.388-36.553-48.737-48.737-48.737-128.04 0-176.777 48.737-48.738 128.04-48.738 176.776 0 48.738 48.737 48.738 128.04 0 176.777-24.369 24.369-56.379 36.553-88.388 36.553z" fill="#6fc8f1"/><path d="m366.86 100.193c-13.646-13.646-35.852-13.646-49.498 0l-21.213-21.213c25.344-25.344 66.58-25.344 91.924 0z" fill="#b7e4f8"/><path d="m430.499 36.554-176.777 176.777c24.369 24.369 56.379 36.553 88.388 36.553 32.01 0 64.02-12.184 88.388-36.553 48.738-48.737 48.739-128.04.001-176.777z" fill="#4bbaed"/></g></svg>