<svg id="Layer_1" enable-background="new 0 0 48 48" height="512" viewBox="0 0 48 48" width="512" xmlns="http://www.w3.org/2000/svg"><path d="m43.467 25.377c-3.986-8.99-11.195-16.568-20.841-20.843-.512-.227-1.116.022-1.331.54l-14.833 35.81c-.171.412.242.824.654.654l35.811-14.833c.518-.215.767-.816.54-1.328z" fill="#c98518"/><path d="m34.991 13.009c-3.471-3.473-7.623-6.373-12.365-8.475-.512-.227-1.116.022-1.331.54l-14.833 35.81c-.085.206-.025.412.108.545 6.256-6.255 20.975-20.974 28.421-28.42z" fill="#cca70d"/><path d="m19.387 9.682s-10.573 25.525-12.926 31.206c-.171.412.244.82.655.649l31.202-12.924c-3.576-8.633-10.3-15.356-18.931-18.931z" fill="#f99f10"/><path d="m30.749 17.251c-3.207-3.207-7.046-5.782-11.362-7.569 0 0-10.573 25.525-12.926 31.206-.085.206-.024.41.109.542z" fill="#f9c900"/><path d="m21.362 31.77c-.878-.727-1.362-1.711-1.362-2.77s.483-2.043 1.362-2.77c.425-.353 1.055-.303 1.408.132.352.425.293 1.056-.132 1.408-.412.341-.638.777-.638 1.23 0 .452.229.893.638 1.229.425.355.484.982.133 1.408-.353.426-.984.486-1.409.133z" fill="#4c9933"/><circle cx="27" cy="24" fill="#fc5696" r="3"/><circle cx="15" cy="33" fill="#fc5696" r="3"/><path d="m20.292 17.706c-.361-.361-.394-.944-.062-1.344.728-.879 1.711-1.363 2.77-1.362 1.058 0 2.041.479 2.77 1.362.352.425.293 1.056-.133 1.408s-1.055.284-1.408-.133c-.341-.408-.776-.637-1.229-.637-.452 0-.889.226-1.23.638-.352.425-.983.484-1.408.132-.025-.021-.048-.042-.07-.064z" fill="#4c9933"/><g fill="#bc9c73"><circle cx="18" cy="23" r="1"/><circle cx="32" cy="27" r="1"/></g></svg>