<svg id="Capa_1" enable-background="new 0 0 511.945 511.945" height="512" viewBox="0 0 511.945 511.945" width="512" xmlns="http://www.w3.org/2000/svg"><g><g><path d="m235.875 450.945h-84.902c-5.332 0-10.254-2.827-12.949-7.427l-42.305-72.305c-2.432-4.175-2.725-9.258-.762-13.682 1.992-4.409 5.947-7.603 10.693-8.584l71.396-14.692c4.307-.894 8.848.161 12.305 2.9 9.316 7.354 19.131 12.935 29.18 16.597 4.307 1.582 7.646 5.039 9.082 9.39l22.5 68.101c1.523 4.57.732 9.58-2.08 13.491-2.812 3.897-7.353 6.211-12.158 6.211z" fill="#e63950"/></g><g><g><path d="m360.973 450.945h-84.903c-4.805 0-9.346-2.314-12.158-6.211-2.813-3.911-3.604-8.921-2.08-13.491l22.5-68.101c1.436-4.351 4.775-7.808 9.082-9.39 10.049-3.662 19.863-9.243 29.18-16.597 3.457-2.71 7.998-3.765 12.305-2.9l71.396 14.692c4.746.981 8.701 4.175 10.693 8.584 1.963 4.424 1.67 9.507-.762 13.682l-42.305 72.305c-2.694 4.6-7.616 7.427-12.948 7.427z" fill="#ae2538"/></g></g><g><g><path d="m422.789 344.744c-4.277 0-8.379-1.831-11.221-5.054-45.061-53.426-53.642-54.626-51.943-66.68.82-5.596 1.348-11.206 1.348-17.065 0-5.874-.527-11.47-1.348-17.065-.615-4.365.703-8.774 3.633-12.085l48.311-54.595c3.164-3.604 7.881-5.435 12.686-4.98 4.775.469 9.053 3.193 11.484 7.354l43.184 73.799c2.725 4.673 2.725 10.474 0 15.146l-43.184 73.799c-2.737 4.68-7.721 7.426-12.95 7.426z" fill="#ae2538"/></g></g><g><g><path d="m322.594 174.734c-24.391-19.252-34.205-13.691-38.262-25.986l-22.5-68.101c-1.523-4.57-.732-9.58 2.08-13.491 2.813-3.896 7.354-6.211 12.158-6.211h84.902c5.332 0 10.254 2.827 12.949 7.427l42.305 72.305c2.432 4.175 2.725 9.258.762 13.682-1.992 4.409-5.947 7.603-10.693 8.584l-71.396 14.692c-4.322.889-8.835-.174-12.305-2.901z" fill="#ae2538"/></g></g><g><path d="m177.047 177.635-71.396-14.692c-4.746-.981-8.701-4.175-10.693-8.584-1.963-4.424-1.67-9.507.762-13.682l42.305-72.305c2.695-4.6 7.617-7.427 12.949-7.427h84.902c4.805 0 9.346 2.314 12.158 6.211 2.813 3.911 3.604 8.921 2.08 13.491l-22.5 68.101c-1.436 4.351-4.775 7.808-9.082 9.39-10.049 3.662-19.863 9.243-29.18 16.597-3.47 2.725-7.982 3.79-12.305 2.9z" fill="#e63950"/></g><g><path d="m89.186 344.744c-5.231 0-10.215-2.748-12.949-7.427l-43.213-73.799c-2.725-4.673-2.725-10.474 0-15.146l43.213-73.799c2.432-4.16 6.709-6.885 11.484-7.354 5.068-.439 9.521 1.392 12.715 4.995l48.281 54.595c2.9 3.296 4.219 7.705 3.604 12.07-.82 5.596-1.348 11.191-1.348 17.065 0 5.859.527 11.47 1.348 17.065.615 4.365-.703 8.774-3.604 12.07l-48.281 54.595c-2.872 3.239-6.973 5.07-11.25 5.07z" fill="#e63950"/></g><g id="Medal_3_"><g><g><g><path d="m460.875 390.652-132.012-27.012c-5.654-1.157-10.137-5.479-11.543-11.074-1.377-5.61.557-11.514 5.01-15.19 20.01-16.494 33.281-39.448 37.354-64.629 1.979-12.448 17.671-17.003 26.016-7.544l89.385 100.781c4.277 4.819 5.01 11.851 1.787 17.446-3.093 5.354-9.281 8.506-15.997 7.222z" fill="#e63950"/></g></g></g><g><g><path d="m359.684 239.144c-4.072-25.181-17.344-48.135-37.354-64.629-9.688-7.999-5.789-23.743 6.533-26.265l132.012-27.012c6.27-1.245 12.773 1.626 15.996 7.222s2.49 12.627-1.787 17.446l-89.385 100.781c-8.286 9.429-24.029 4.954-26.015-7.543z" fill="#e63950"/></g></g><g><path d="m126.217 246.673-89.356-100.752c-4.277-4.834-5.01-11.865-1.787-17.461s9.668-8.496 15.996-7.222l132.012 27.012c12.304 2.518 16.236 18.254 6.533 26.265-20.01 16.494-33.281 39.448-37.354 64.629-1.974 12.423-17.648 17.028-26.044 7.529z" fill="#ff6c6c"/></g><g><path d="m35.074 383.431c-3.223-5.596-2.49-12.627 1.787-17.461l89.355-100.752c8.37-9.448 24.063-4.939 26.045 7.529 4.072 25.181 17.344 48.135 37.354 64.629 4.453 3.677 6.387 9.58 5.01 15.19-1.406 5.596-5.889 9.917-11.543 11.074l-132.012 27.012c-6.692 1.28-12.888-1.858-15.996-7.221z" fill="#ff6c6c"/></g></g><g id="Medal_2_"><g><path d="m292.887 157.918c-22.617-9.258-51.211-9.258-73.828 0-12.017 4.904-23.898-6.614-19.922-18.574l42.627-130.159c4.043-12.246 24.375-12.246 28.418 0l42.627 130.159c4.019 12.09-8.106 23.451-19.922 18.574z" fill="#ff6c6c"/></g></g><path d="m292.887 157.918c11.816 4.876 23.941-6.484 19.922-18.574l-42.627-130.159c-2.022-6.123-8.116-9.185-14.209-9.185v150.975c12.802 0 25.605 2.314 36.914 6.943z" fill="#e63950"/><g><path d="m255.973 511.945c-6.445 0-12.188-4.116-14.209-10.239l-42.627-129.159c-1.846-5.552-.264-11.675 4.014-15.674 4.277-4.028 10.488-5.156 15.908-2.9 22.617 9.258 51.211 9.258 73.828 0 11.873-4.91 23.929 6.52 19.922 18.574l-42.627 129.159c-2.022 6.123-7.764 10.239-14.209 10.239z" fill="#ff6c6c"/></g><path d="m270.182 501.706 42.627-129.159c4.008-12.054-8.049-23.485-19.922-18.574-11.309 4.629-24.111 6.943-36.914 6.943v151.029c6.445 0 12.187-4.116 14.209-10.239z" fill="#e63950"/><circle cx="255.973" cy="255.945" fill="#fed843" r="135"/><path d="m390.973 255.945c0-74.559-60.441-135-135-135v270c74.558 0 135-60.441 135-135z" fill="#fabe2c"/><g><path d="m279.908 311.741-23.936-12.437-23.936 12.437c-5.01 2.593-11.133 2.139-15.732-1.172-4.6-3.34-6.914-8.994-5.977-14.59l4.395-26.646-19.189-18.94c-4.177-4.072-5.454-10.109-3.75-15.322 1.758-5.391 6.416-9.346 12.041-10.195l26.66-4.014 12.07-24.126c5.098-10.166 21.738-10.166 26.836 0l12.07 24.126 26.66 4.014c5.625.85 10.283 4.805 12.041 10.195 1.758 5.405.322 11.338-3.75 15.322l-19.189 18.94 4.395 26.646c.938 5.596-1.377 11.25-5.977 14.59-4.568 3.311-10.681 3.8-15.732 1.172z" fill="#fabe2c"/></g><path d="m279.908 311.741c5.052 2.628 11.164 2.139 15.732-1.172 4.6-3.34 6.914-8.994 5.977-14.59l-4.395-26.646 19.189-18.94c4.072-3.984 5.508-9.917 3.75-15.322-1.758-5.391-6.416-9.346-12.041-10.195l-26.66-4.014-12.07-24.126c-2.549-5.083-7.983-7.625-13.418-7.625v110.193z" fill="#ff9100"/></g></svg>