<svg id="Capa_1" enable-background="new 0 0 512 512" height="512" viewBox="0 0 512 512" width="512" xmlns="http://www.w3.org/2000/svg"><g><g><path d="m292.638 223.593v45.669l-13.686 30.716 13.686 27.77h30.834l12.948-45.605-12.948-58.55z" fill="#73f"/><path d="m323.472 223.593h30.834v104.155h-30.834z" fill="#5f29cc"/></g><g><path d="m123.393 388.161-29.725-72.312-78.71-.023v74.547l46.013 37.273 61.565-37.273z" fill="#80d4ff"/><path d="m14.958 390.373v74.547h78.71l28.868-74.547z" fill="#6daafc"/></g><g><path d="m387.498 316.01-94.83 10.72v-62.256h-57.611c-25.067 0-49.133 11.879-64.378 31.778l-15.027 19.614-61.984-.018v74.524l159.693 41.384 121.676-41.384z" fill="#fecec0"/><path d="m93.668 390.373v74.547h62.38l15.053 17.977c15.451 18.495 38.136 29.103 62.237 29.103h64.825c32.734 0 60.419-23.432 65.83-55.716l11.044-65.911z" fill="#febfad"/></g><g><g><path d="m149.903 0v238.49h173.569l24.838-120.824-24.838-117.666z" fill="#ffffe6"/><path d="m323.472 0h173.569v238.49h-173.569z" fill="#fff7cc"/></g><g><path d="m295.526 85.638-46.022 14.43 28.75 38.726-.497 48.23 45.715-15.377 12.229-54.081-12.229-71.239z" fill="#fff06d"/></g><path d="m397.441 100.068-46.023-14.43-27.946-39.311v125.32l45.715 15.377-.498-48.23z" fill="#fed943"/><g><path d="m266.044 345.89h116.447l5.007-29.88-121.454-.12z" fill="#febfad"/></g></g></g></svg>