<svg id="Layer_1" enable-background="new 0 0 512 512" height="512" viewBox="0 0 512 512" width="512" xmlns="http://www.w3.org/2000/svg"><g><path d="m512 255.995c0 68.379-26.63 132.667-74.98 181.017-48.35 48.349-112.64 74.978-181.02 74.978s-132.67-26.629-181.02-74.979c-48.35-48.348-74.98-112.637-74.98-181.016 0-3.53.08-7.11.22-10.63 2.7-66.109 30.5-127.858 78.29-173.847 44.31-42.639 101.53-67.568 162.49-71.088 4.98-.29 9.98-.43 15-.43s10.02.14 15 .43c60.96 3.52 118.18 28.449 162.49 71.088 47.79 45.989 75.59 107.738 78.29 173.867.14 3.51.22 7.08.22 10.61z" fill="#e7f9fb"/><path d="m511.78 245.385c-2.7-66.129-30.5-127.877-78.29-173.867-44.31-42.638-101.53-67.568-162.49-71.088-4.98-.29-9.98-.43-15-.43v511.99c68.38 0 132.67-26.629 181.02-74.979 48.35-48.348 74.98-112.637 74.98-181.016 0-3.53-.08-7.1-.22-10.61z" fill="#d8f1fb"/><path d="m511.776 245.365c-.338-8.034-6.949-14.369-14.985-14.369-.016 0-.031 0-.046 0-19.429.059-29.822 6.959-38.174 12.504-6.798 4.514-11.289 7.496-21.821 7.496-10.541 0-15.033-2.983-21.834-7.498-7.288-4.839-16.359-10.862-31.798-12.224-6.128-.539-11.967 2.716-14.726 8.216l-125.8 250.775c-2.333 4.65-2.089 10.176.643 14.603s7.563 7.122 12.765 7.122c68.38 0 132.667-26.628 181.019-74.98 48.352-48.35 74.981-112.636 74.981-181.015 0-3.532-.075-7.109-.224-10.63z" fill="#00d5dd"/><path d="m269.38 490.211-127.01-250.655c-2.828-5.58-8.823-8.819-15.041-8.128-14.507 1.615-23.238 7.412-30.253 12.071-6.799 4.515-11.292 7.497-21.827 7.497-10.54 0-15.032-2.983-21.833-7.498-8.35-5.543-18.741-12.443-38.162-12.501-.016 0-.03 0-.046 0-8.035 0-14.648 6.336-14.986 14.369-.147 3.52-.222 7.097-.222 10.629 0 68.379 26.629 132.664 74.981 181.016s112.639 74.979 181.019 74.979c5.213 0 10.052-2.706 12.781-7.148 2.729-4.441 2.955-9.981.599-14.631z" fill="#00e4ef"/><path d="m396.05 255.995c0 32.279-6.95 65.718-20.65 99.388-10.81 26.579-25.85 53.379-44.69 79.638-24.72 34.45-49.26 58.709-59.71 68.439-3.05 2.84-4.9 4.45-5.2 4.71-2.82 2.42-6.31 3.64-9.8 3.64s-6.98-1.22-9.79-3.64c-.3-.26-2.16-1.87-5.21-4.71-10.45-9.74-35-33.989-59.71-68.439-18.84-26.259-33.88-53.059-44.69-79.638-13.7-33.67-20.65-67.109-20.65-99.388 0-2.67.05-5.35.14-8.04v-.01l5.351-16.068-.981-21.692c3.44-17.699 8.83-35.609 16.14-53.579 1.62-3.99 3.34-7.98 5.15-11.98l10.662-9.983 3.548-18.037c7.47-13.29 15.92-26.529 25.33-39.639 24.71-34.448 49.26-58.697 59.71-68.437 3.05-2.84 4.91-4.45 5.21-4.71 5.62-4.85 13.96-4.85 19.59 0 .3.26 2.15 1.87 5.2 4.71 10.45 9.73 34.99 33.99 59.71 68.439 9.41 13.11 17.86 26.35 25.32 39.639 5.24 9.33 9.99 18.68 14.22 28.019 1.81 4 3.53 7.99 5.15 11.98 7.48 18.38 12.95 36.689 16.36 54.789 2.42 12.72 3.81 25.33 4.19 37.78v.01c.07 2.279.1 4.55.1 6.809z" fill="#00da80"/><path d="m241 8.53v191.032c-.558-.565-.914-.973-1.006-1.184-9.589-9.33-84.013-81.749-84.034-81.77-5.23 9.33-9.98 18.68-14.21 28.019 1.997 1.582 75.072 73.612 99.25 96.473v87.563c-1.083-1.064-.569-.559-3.057-3.005-18.796-18.474-117.457-115.447-117.483-115.473-2.437 12.47-3.973 25.996-4.37 37.769.031.03 117.519 115.523 124.58 122.461-.085.044.043.27.33.612v132.433c11.088 12.53 20.728 10.182 30 0v-494.93c-10.04-11.275-20.513-11.059-30 0z" fill="#00b9a0"/><path d="m395.95 249.185v-.01c-.38-12.45-1.77-25.06-4.19-37.78-3.41-18.1-8.88-36.409-16.36-54.789-1.62-3.99-3.34-7.98-5.15-11.98-4.23-9.34-8.98-18.69-14.22-28.019-7.46-13.29-15.91-26.529-25.32-39.639-24.72-34.449-49.26-58.708-59.71-68.438-3.05-2.84-4.9-4.45-5.2-4.71-2.815-2.425-6.308-3.638-9.8-3.638v511.628c3.49 0 6.98-1.22 9.8-3.64.3-.26 2.15-1.87 5.2-4.71 10.45-9.729 34.99-33.989 59.71-68.439 18.84-26.259 33.88-53.059 44.69-79.638 13.7-33.67 20.65-67.109 20.65-99.388 0-2.259-.03-4.53-.1-6.81z" fill="#00b9a0"/><path d="m395.95 249.176c-.503-13.239-1.418-22.038-4.19-37.78-57.675 57.557-96.786 93.386-120.76 116.676v-86.801c.457-.488.679-.747.582-.624 7.599-7.395 98.668-96.021 98.668-96.021-4.58-10.68-8.403-17.266-14.22-28.019-36.617 36.867-65.374 63.004-85.03 81.944v-190.021c-4.952-5.941-10.008-8.398-15-8.375v511.828c5.765-.056 9.294-2.434 15-8.522v-132.669c.016-.023.042-.054.056-.075 2.823-2.747 124.894-121.541 124.894-121.541z" fill="#009398"/></g></svg>