<svg id="Capa_1" enable-background="new 0 0 512 512" height="512" viewBox="0 0 512 512" width="512" xmlns="http://www.w3.org/2000/svg"><path d="m332 62c-8.28 0-15 6.72-15 15v360h-242v-360c0-8.28-6.72-15-15-15h-60v450h392v-450z" fill="#76e2f8"/><path d="m332 62h60v450h-196v-75h121v-360c0-8.28 6.72-15 15-15z" fill="#4bb9ec"/><path d="m60 62h272v390h-272z" fill="#f2ebee"/><path d="m196 62h136v390h-136z" fill="#e8dde3"/><path d="m271 0v122h-30v-92h-90v92h-30v-122z" fill="#6c6fa9"/><path d="m196 0h75v122h-30v-92h-45z" fill="#574f7f"/><g fill="#6c6fa9"><path d="m121 182h150v30h-150z"/><path d="m121 242h150v30h-150z"/><path d="m121 302h150v30h-150z"/><path d="m121 362h150v30h-150z"/></g><path d="m196 182h75v30h-75z" fill="#574f7f"/><path d="m196 242h75v30h-75z" fill="#574f7f"/><path d="m196 302h75v30h-75z" fill="#574f7f"/><path d="m196 362h75v30h-75z" fill="#574f7f"/><path d="m512 92v240c0 8.28-6.72 15-15 15h-60c-8.28 0-15-6.72-15-15v-240c0-8.28 6.72-15 15-15h60c8.28 0 15 6.72 15 15z" fill="#ff9100"/><path d="m512 92v240c0 8.28-6.72 15-15 15h-30v-270h30c8.28 0 15 6.72 15 15z" fill="#ff5e39"/><path d="m512 362v34.54l-45 67.5-45-67.5v-34.54c0-8.28 6.72-15 15-15h60c8.28 0 15 6.72 15 15z" fill="#ffcebf"/><path d="m512 362v34.54l-45 67.5v-117.04h30c8.28 0 15 6.72 15 15z" fill="#ffa78f"/><path d="m422 332h90v30h-90z" fill="#e8dde3"/><path d="m467 332h45v30h-45z" fill="#e2d0da"/><path d="m422 62h90v30h-90z" fill="#6c6fa9"/><path d="m467 62h45v30h-45z" fill="#574f7f"/></svg>