<svg id="Capa_1" enable-background="new 0 0 512 512" height="512" viewBox="0 0 512 512" width="512" xmlns="http://www.w3.org/2000/svg"><g><path d="m496.99 209.81c.44 23.25-19.03 42.29-42.29 42.29h-15.92v244.9h-259.01v-244.9h-15.92c-23.26 0-42.73-19.04-42.29-42.29.42-22.54 18.83-40.69 41.47-40.69h292.49c22.64 0 41.05 18.15 41.47 40.69z" fill="#f0cfa3"/><path d="m496.99 209.81c.44 23.25-19.03 42.29-42.29 42.29h-15.92v244.9h-182.78v-327.88h199.52c22.64 0 41.05 18.15 41.47 40.69z" fill="#edb986"/><path d="m390.45 55.69c.44 23.25-19.03 42.29-42.29 42.29h-15.92v244.9h-259.02v-244.9h-15.92c-23.26 0-42.73-19.04-42.29-42.29.42-22.54 18.83-40.69 41.47-40.69h292.5c22.64 0 41.05 18.15 41.47 40.69z" fill="#efe6ca"/><path d="m390.45 55.69c.44 23.25-19.03 42.29-42.29 42.29h-15.92v244.9h-76.24v-327.88h92.98c22.64 0 41.05 18.15 41.47 40.69z" fill="#f0cfa3"/><path d="m511.99 209.53c-.27-14.86-6.27-28.78-16.88-39.21-10.63-10.45-24.69-16.2-39.59-16.2h-128.28v30h128.28c14.33 0 26.21 11.65 26.48 25.98.13 6.93-2.56 13.57-7.58 18.68-5.19 5.29-12.38 8.32-19.72 8.32h-15.92c-8.28 0-15 6.72-15 15v229.9h-229.01v-144.12h-30v159.12c0 8.29 6.71 15 15 15h259.01c8.29 0 15-6.71 15-15v-229.9h.92c15.35 0 30.34-6.31 41.13-17.31 10.45-10.65 16.17-24.52 16.17-39.17 0-.37 0-.73-.01-1.09z" fill="#7d4a3b"/><path d="m512 210.62c0 14.65-5.72 28.52-16.17 39.17-10.79 11-25.78 17.31-41.13 17.31h-.92v229.9c0 8.29-6.71 15-15 15h-182.78v-30h167.78v-229.9c0-8.28 6.72-15 15-15h15.92c7.34 0 14.53-3.03 19.72-8.32 5.02-5.11 7.71-11.75 7.58-18.68-.27-14.33-12.15-25.98-26.48-25.98h-128.28v-30h128.28c14.9 0 28.96 5.75 39.59 16.2 10.61 10.43 16.61 24.35 16.88 39.21.01.36.01.72.01 1.09z" fill="#7d4d3e"/><g fill="#9d7552"><circle cx="166.73" cy="128.7" r="15"/><circle cx="238.73" cy="128.7" r="15"/><circle cx="202.73" cy="199.55" r="15"/><path d="m388.56 16.2c-10.63-10.45-24.69-16.2-39.58-16.2h-292.5c-14.9 0-28.95 5.75-39.58 16.2-10.61 10.42-16.61 24.35-16.89 39.21-.28 15.05 5.46 29.35 16.16 40.26 10.8 11 25.79 17.31 41.13 17.31h.92v229.9c0 8.29 6.71 15 15 15h259.02c8.28 0 15-6.71 15-15v-229.9h.92c15.34 0 30.33-6.31 41.12-17.31 10.71-10.91 16.45-25.21 16.16-40.26-.27-14.86-6.27-28.79-16.88-39.21zm-20.69 58.46c-5.19 5.29-12.38 8.32-19.71 8.32h-15.92c-8.29 0-15 6.72-15 15v229.9h-229.02v-229.9c0-8.28-6.72-15-15-15h-15.92c-7.34 0-14.53-3.03-19.72-8.32-5.01-5.11-7.7-11.75-7.57-18.69.26-14.32 12.14-25.97 26.47-25.97h292.5c14.33 0 26.2 11.65 26.47 25.98.13 6.93-2.56 13.57-7.58 18.68z"/></g><path d="m405.44 55.41c.29 15.05-5.45 29.35-16.16 40.26-10.79 11-25.78 17.31-41.12 17.31h-.92v229.9c0 8.29-6.72 15-15 15h-76.24v-30h61.24v-229.9c0-8.28 6.71-15 15-15h15.92c7.33 0 14.52-3.03 19.71-8.32 5.02-5.11 7.71-11.75 7.58-18.68-.27-14.33-12.14-25.98-26.47-25.98h-92.98v-30h92.98c14.89 0 28.95 5.75 39.58 16.2 10.61 10.42 16.61 24.35 16.88 39.21z" fill="#7d4a3b"/></g></svg>