<svg id="color" enable-background="new 0 0 24 24" height="512" viewBox="0 0 24 24" width="512" xmlns="http://www.w3.org/2000/svg"><path d="m15.854 23.146c-1.313-1.313-1.353-2.586-1.354-2.649-.002-.275-.225-.497-.5-.497h-4.02c-.276 0-.5.227-.5.503 0 .054-.018 1.328-1.333 2.644-.143.143-.186.358-.108.545.076.186.259.308.461.308h7c.202 0 .385-.122.462-.309s.034-.401-.108-.545z" fill="#90a4ae"/><path d="m24 5.75v13.5c0 .96-.79 1.75-1.75 1.75h-20.5c-.96 0-1.75-.79-1.75-1.75v-13.5c0-.96.79-1.75 1.75-1.75h4.75v2h-4.5v11h20v-11h-4.5v-2h4.75c.96 0 1.75.79 1.75 1.75z" fill="#607d8b"/><path d="m22 6v11h-20v-11h4.5v1.5c0 3.03 2.47 5.5 5.5 5.5s5.5-2.47 5.5-5.5v-1.5z" fill="#fafafa"/><path d="m12 11c-1.93 0-3.5-1.57-3.5-3.5v-5.25c0-1.241 1.01-2.25 2.25-2.25s2.25 1.009 2.25 2.25v5c0 .414-.336.75-.75.75s-.75-.336-.75-.75v-5c0-.414-.337-.75-.75-.75s-.75.336-.75.75v5.25c0 1.103.897 2 2 2s2-.897 2-2v-6.75c0-.414.336-.75.75-.75s.75.336.75.75v6.75c0 1.93-1.57 3.5-3.5 3.5z" fill="#2196f3"/><path d="m10.75 0c-1.24 0-2.25 1.01-2.25 2.25v5.25c0 1.93 1.57 3.5 3.5 3.5.084 0 .167-.003.25-.009v-1.507c-.082.011-.165.016-.25.016-1.103 0-2-.896-2-2v-5.25c0-.414.337-.75.75-.75s.75.336.75.75v5c0 .414.336.75.75.75v-7.425c-.398-.357-.924-.575-1.5-.575z" fill="#1d83d4"/><path d="m5 4h-3.25c-.96 0-1.75.79-1.75 1.75v13.5c0 .96.79 1.75 1.75 1.75h7.659 2.591v-4h-10v-11h3z" fill="#546d79"/><path d="m5 6h-3v11h10v-2.5h-3.25c-2.07 0-3.75-1.68-3.75-3.75z" fill="#dadada"/><path d="m12 21h-2.591c-.118.501-.431 1.315-1.262 2.146-.143.143-.186.357-.108.545.076.188.259.309.461.309h3.5z" fill="#7d8f97"/></svg>