<?xml version="1.0" encoding="iso-8859-1"?>
<!-- Generator: Adobe Illustrator 19.0.0, SVG Export Plug-In . SVG Version: 6.00 Build 0)  -->
<svg version="1.1" id="Capa_1" xmlns="http://www.w3.org/2000/svg" xmlns:xlink="http://www.w3.org/1999/xlink" x="0px" y="0px"
	 viewBox="0 0 512 512" style="enable-background:new 0 0 512 512;" xml:space="preserve">
<path style="fill:#ED8A19;" d="M401.067,320c0-80.119-64.947-145.067-145.067-145.067S110.933,239.881,110.933,320
	c0,14.848,2.253,29.175,6.4,42.667h277.333C398.814,349.175,401.067,334.848,401.067,320z"/>
<path style="fill:#366DB6;" d="M503.467,371.2H8.533c-4.71,0-8.533-3.823-8.533-8.533s3.823-8.533,8.533-8.533h494.933
	c4.71,0,8.533,3.823,8.533,8.533S508.177,371.2,503.467,371.2z"/>
<path style="fill:#C5411E;" d="M256,149.333c-4.71,0-8.533-3.823-8.533-8.533V89.6c0-4.71,3.823-8.533,8.533-8.533
	c4.71,0,8.533,3.823,8.533,8.533v51.2C264.533,145.51,260.71,149.333,256,149.333z"/>
<path style="fill:#AFB6BB;" d="M477.867,29.867c-3.26,0-6.349,0.666-9.216,1.775C465.519,16.034,451.738,4.267,435.2,4.267
	s-30.319,11.767-33.451,27.375c-2.867-1.109-5.956-1.775-9.216-1.775c-14.14,0-25.6,11.46-25.6,25.6s11.46,25.6,25.6,25.6h85.333
	c14.14,0,25.6-11.46,25.6-25.6S492.006,29.867,477.867,29.867z"/>
<path style="fill:#E7ECED;" d="M119.467,72.533c-3.26,0-6.349,0.666-9.216,1.775C107.119,58.701,93.338,46.933,76.8,46.933
	S46.481,58.701,43.349,74.308c-2.867-1.109-5.956-1.775-9.216-1.775c-14.14,0-25.6,11.46-25.6,25.6s11.46,25.6,25.6,25.6h85.333
	c14.14,0,25.6-11.46,25.6-25.6S133.606,72.533,119.467,72.533z"/>
<g>
	<path style="fill:#DC691D;" d="M196.275,234.667c-2.79,0-5.521-1.365-7.159-3.883c-2.569-3.951-1.451-9.233,2.5-11.802
		c18.799-12.237,40.457-18.449,64.358-18.449c0.009,0,0.017,0,0.026,0c4.71,0,8.533,3.823,8.533,8.533S260.71,217.6,256,217.6
		c0,0-0.017,0-0.026,0c-20.54,0-39.066,5.274-55.057,15.684C199.484,234.223,197.871,234.667,196.275,234.667z"/>
	<path style="fill:#DC691D;" d="M145.067,328.533c-4.71,0-8.533-3.823-8.533-8.533c0-21.137,6.835-45.107,18.287-64.137
		c2.432-4.028,7.68-5.342,11.716-2.901c4.036,2.432,5.342,7.671,2.91,11.716C159.667,280.9,153.6,302.106,153.6,320
		C153.6,324.71,149.777,328.533,145.067,328.533z"/>
</g>
<g>
	<path style="fill:#C5411E;" d="M486.4,328.533h-51.2c-4.71,0-8.533-3.823-8.533-8.533c0-4.71,3.823-8.533,8.533-8.533h51.2
		c4.71,0,8.533,3.823,8.533,8.533C494.933,324.71,491.11,328.533,486.4,328.533z"/>
	<path style="fill:#C5411E;" d="M76.8,328.533H25.6c-4.71,0-8.533-3.823-8.533-8.533c0-4.71,3.823-8.533,8.533-8.533h51.2
		c4.71,0,8.533,3.823,8.533,8.533C85.333,324.71,81.51,328.533,76.8,328.533z"/>
	<path style="fill:#C5411E;" d="M128,200.533c-2.185,0-4.369-0.836-6.033-2.5L87.834,163.9c-3.337-3.337-3.337-8.73,0-12.066
		c3.328-3.337,8.738-3.337,12.066,0l34.133,34.133c3.337,3.337,3.337,8.73,0,12.066C132.369,199.697,130.185,200.533,128,200.533z"
		/>
	<path style="fill:#C5411E;" d="M384,200.533c-2.185,0-4.369-0.836-6.033-2.5c-3.337-3.337-3.337-8.73,0-12.066l34.133-34.133
		c3.328-3.337,8.738-3.337,12.066,0c3.337,3.337,3.337,8.73,0,12.066l-34.133,34.133C388.369,199.697,386.185,200.533,384,200.533z"
		/>
</g>
<g>
	<path style="fill:#25AE88;" d="M256,507.733c-4.71,0-8.533-3.823-8.533-8.533V396.8c0-4.71,3.823-8.533,8.533-8.533
		c4.71,0,8.533,3.823,8.533,8.533v102.4C264.533,503.91,260.71,507.733,256,507.733z"/>
	<path style="fill:#25AE88;" d="M298.667,448c-2.185,0-4.369-0.836-6.033-2.5l-42.667-42.667c-3.337-3.337-3.337-8.73,0-12.066
		c3.328-3.337,8.738-3.337,12.066,0l42.667,42.667c3.337,3.337,3.337,8.73,0,12.066C303.036,447.164,300.851,448,298.667,448z"/>
	<path style="fill:#25AE88;" d="M213.333,448c-2.185,0-4.369-0.836-6.033-2.5c-3.337-3.337-3.337-8.73,0-12.066l42.667-42.667
		c3.328-3.337,8.738-3.337,12.066,0c3.337,3.337,3.337,8.73,0,12.066L219.366,445.5C217.702,447.164,215.518,448,213.333,448z"/>
</g>
<g>
</g>
<g>
</g>
<g>
</g>
<g>
</g>
<g>
</g>
<g>
</g>
<g>
</g>
<g>
</g>
<g>
</g>
<g>
</g>
<g>
</g>
<g>
</g>
<g>
</g>
<g>
</g>
<g>
</g>
</svg>
