<?xml version="1.0" encoding="iso-8859-1"?>
<!-- Generator: Adobe Illustrator 19.0.0, SVG Export Plug-In . SVG Version: 6.00 Build 0)  -->
<svg version="1.1" id="Capa_1" xmlns="http://www.w3.org/2000/svg" xmlns:xlink="http://www.w3.org/1999/xlink" x="0px" y="0px"
	 viewBox="0 0 512 512" style="enable-background:new 0 0 512 512;" xml:space="preserve">
<path style="fill:#E8EAE9;" d="M99.733,30.933V368l91.733,91.733H433.6c17.067,0,30.933-13.867,30.933-30.933V30.933
	C464.533,13.867,450.667,0,433.6,0H130.667C113.6,0,99.733,13.867,99.733,30.933z"/>
<path style="fill:#F3F3F3;" d="M47.467,83.2v337.067L139.2,512h242.133c17.067,0,30.933-13.867,30.933-30.933V83.2
	c0-17.067-13.867-30.933-30.933-30.933H78.4C61.333,52.267,47.467,66.133,47.467,83.2z"/>
<g>
	<rect x="196.8" y="442.667" style="fill:#CED6E0;" width="166.4" height="19.2"/>
	<rect x="97.6" y="372.267" style="fill:#CED6E0;" width="265.6" height="19.2"/>
	<rect x="97.6" y="302.933" style="fill:#CED6E0;" width="265.6" height="19.2"/>
	<rect x="271.467" y="233.6" style="fill:#CED6E0;" width="91.733" height="19.2"/>
</g>
<rect x="271.467" y="163.2" style="fill:#66C6B9;" width="91.733" height="19.2"/>
<polygon style="fill:#E8EAE9;" points="47.467,420.267 140.267,512 140.267,420.267 "/>
<polygon style="fill:#F3705A;" points="251.2,170.667 174.4,103.467 97.6,170.667 "/>
<rect x="120" y="170.667" style="fill:#FFD15C;" width="108.8" height="81.067"/>
<rect x="157.333" y="211.2" style="fill:#415A6B;" width="36.267" height="40.533"/>
<g>
</g>
<g>
</g>
<g>
</g>
<g>
</g>
<g>
</g>
<g>
</g>
<g>
</g>
<g>
</g>
<g>
</g>
<g>
</g>
<g>
</g>
<g>
</g>
<g>
</g>
<g>
</g>
<g>
</g>
</svg>
