<?xml version="1.0" encoding="iso-8859-1"?>
<!-- Generator: Adobe Illustrator 19.0.0, SVG Export Plug-In . SVG Version: 6.00 Build 0)  -->
<svg xmlns="http://www.w3.org/2000/svg" xmlns:xlink="http://www.w3.org/1999/xlink" version="1.1" id="Layer_1" x="0px" y="0px" viewBox="0 0 491.52 491.52" style="enable-background:new 0 0 491.52 491.52;" xml:space="preserve">
<path style="fill:#DC8744;" d="M258.936,6.387c-7.98-5.319-18.373-5.319-26.353,0L0,161.442v0.001l245.76,163.84l245.76-163.84  v-0.001L258.936,6.387z"/>
<rect x="57.201" y="17.516" style="fill:#EBF0F3;" width="377.139" height="383.831"/>
<rect x="86.963" y="52.06" style="fill:#44C4A1;" width="144.896" height="13.435"/>
<g>
	<rect x="86.963" y="101.632" style="fill:#E1E6E9;" width="317.594" height="13.435"/>
	<rect x="86.963" y="142.1" style="fill:#E1E6E9;" width="317.594" height="13.435"/>
	<rect x="86.963" y="182.569" style="fill:#E1E6E9;" width="317.594" height="13.435"/>
	<rect x="86.963" y="223.037" style="fill:#E1E6E9;" width="317.594" height="13.435"/>
	<rect x="86.963" y="263.526" style="fill:#E1E6E9;" width="317.594" height="13.435"/>
</g>
<g>
	<polygon style="fill:#FCD462;" points="289.78,295.936 491.52,489.122 491.52,161.443  "/>
	<polygon style="fill:#FCD462;" points="0,161.443 0,489.122 0.001,489.122 201.739,295.936  "/>
</g>
<g>
	<polygon style="fill:#DC8744;" points="282.96,300.483 491.52,489.122 289.78,295.936  "/>
	<polygon style="fill:#DC8744;" points="201.739,295.936 0.001,489.122 208.56,300.483  "/>
</g>
<path style="fill:#F6C358;" d="M275.699,293.916c-17.132-15.495-42.746-15.495-59.878,0l-7.261,6.567L0.001,489.122H491.52  L282.96,300.483L275.699,293.916z"/>
<g>
</g>
<g>
</g>
<g>
</g>
<g>
</g>
<g>
</g>
<g>
</g>
<g>
</g>
<g>
</g>
<g>
</g>
<g>
</g>
<g>
</g>
<g>
</g>
<g>
</g>
<g>
</g>
<g>
</g>
</svg>
