<svg height="511pt" viewBox="-46 1 511 511.999" width="511pt" xmlns="http://www.w3.org/2000/svg"><path d="m415.519531 75.855469-71.445312-71.445313c-2.824219-2.824218-6.652344-4.410156-10.644531-4.410156h-266.4375c-8.316407 0-15.058594 6.742188-15.058594 15.054688v434.300781c0 8.3125 6.742187 15.054687 15.058594 15.054687h337.882812c8.316406 0 15.054688-6.742187 15.054688-15.054687v-362.851563c0-3.992187-1.585938-7.824218-4.410157-10.648437zm0 0" fill="#d9f5ff"/><path d="m415.519531 75.855469-71.445312-71.445313c-2.824219-2.824218-6.652344-4.410156-10.644531-4.410156h-118.25v464.410156h189.695312c8.3125 0 15.054688-6.742187 15.054688-15.054687v-362.851563c0-3.992187-1.585938-7.824218-4.410157-10.648437zm0 0" fill="#87e4f9"/><path d="m419.359375 82.417969-65.371094-.203125c-8.292969-.027344-15.007812-6.753906-15.007812-15.054688v-66.097656c1.886719.742188 3.625 1.878906 5.089843 3.34375l71.445313 71.445312c1.847656 1.847657 3.164063 4.105469 3.84375 6.566407zm0 0" fill="#18c1e8"/><path d="m102.820312 307.355469c-56.417968 0-102.320312 45.902343-102.320312 102.324219 0 56.417968 45.898438 102.320312 102.320312 102.320312 56.421876 0 102.320313-45.902344 102.320313-102.320312 0-56.421876-45.902344-102.324219-102.320313-102.324219zm0 0" fill="#ff769d"/><path d="m154.636719 410.84375c-4.839844-6.765625-14.242188-8.324219-21.003907-3.484375l-15.757812 11.273437v-48.652343c0-8.316407-6.738281-15.054688-15.054688-15.054688-8.316406 0-15.054687 6.738281-15.054687 15.054688v47.949219l-13.960937-10.398438c-6.667969-4.96875-16.101563-3.589844-21.070313 3.078125-4.964844 6.667969-3.585937 16.101563 3.082031 21.070313l38.007813 28.3125c.105469.078124.214843.144531.320312.21875.15625.113281.316407.21875.476563.324218.222656.148438.449218.28125.679687.414063.164063.09375.324219.191406.492188.28125.265625.140625.539062.269531.8125.390625.152343.070312.300781.144531.453125.207031.378906.15625.765625.296875 1.15625.425781.171875.054688.347656.097656.523437.148438.265625.074218.53125.144531.800781.203125.179688.042969.363282.078125.546876.109375.292968.054687.582031.097656.875.132812.160156.023438.316406.042969.476562.058594.460938.042969.921875.070312 1.378906.070312h.003906c.457032 0 .914063-.027343 1.371094-.070312.152344-.011719.304688-.035156.457032-.050781.300781-.035157.597656-.082031.894531-.136719.171875-.03125.339843-.0625.507812-.097656.308594-.070313.609375-.148438.914063-.234375.128906-.039063.265625-.070313.394531-.109375.402344-.128906.800781-.277344 1.191406-.4375.164063-.066406.324219-.148438.488281-.21875.242188-.113282.484376-.226563.722657-.351563.171875-.085937.335937-.179687.503906-.273437.226563-.132813.453125-.269532.675781-.410156.152344-.101563.308594-.199219.460938-.304688.058594-.039062.117187-.074219.179687-.117188l39.570313-28.3125c6.765625-4.839843 8.324218-14.246093 3.484375-21.007812zm0 0" fill="#f93e6b"/><g fill="#87e4f9"><path d="m254.382812 165.71875h-112.082031c-8.3125 0-15.054687-6.742188-15.054687-15.058594 0-8.3125 6.742187-15.054687 15.054687-15.054687h112.082031c8.3125 0 15.054688 6.742187 15.054688 15.054687 0 8.316406-6.742188 15.058594-15.054688 15.058594zm0 0"/><path d="m323.640625 224.9375h-181.339844c-8.3125 0-15.054687-6.738281-15.054687-15.054688 0-8.316406 6.742187-15.054687 15.054687-15.054687h181.339844c8.3125 0 15.054687 6.738281 15.054687 15.054687 0 8.316407-6.742187 15.054688-15.054687 15.054688zm0 0"/><path d="m323.640625 284.160156h-181.339844c-8.3125 0-15.054687-6.742187-15.054687-15.054687 0-8.316407 6.742187-15.058594 15.054687-15.058594h181.339844c8.3125 0 15.054687 6.742187 15.054687 15.058594 0 8.3125-6.742187 15.054687-15.054687 15.054687zm0 0"/></g><path d="m254.382812 135.605469h-39.203124v30.113281h39.203124c8.3125 0 15.054688-6.742188 15.054688-15.058594 0-8.3125-6.742188-15.054687-15.054688-15.054687zm0 0" fill="#18c1e8"/><path d="m323.640625 194.828125h-108.460937v30.109375h108.460937c8.3125 0 15.054687-6.738281 15.054687-15.054688 0-8.316406-6.742187-15.054687-15.054687-15.054687zm0 0" fill="#18c1e8"/><path d="m323.640625 254.046875h-108.460937v30.113281h108.460937c8.3125 0 15.054687-6.742187 15.054687-15.054687 0-8.316407-6.742187-15.058594-15.054687-15.058594zm0 0" fill="#18c1e8"/></svg>