<svg id="Capa_1" enable-background="new 0 0 483.268 483.268" height="512" viewBox="0 0 483.268 483.268" width="512" xmlns="http://www.w3.org/2000/svg"><g><g id="icon_66_"><path d="m237.356 168.587c10.55.556 18.652 9.56 18.096 20.11-.515 9.773-8.323 17.581-18.096 18.096h-7.202v-38.207h7.202z" fill="#f4bb87"/><path d="m84.359 168.587c-10.55.556-18.652 9.56-18.096 20.11.515 9.773 8.323 17.581 18.096 18.096h7.202v-38.207h-7.202z" fill="#f4bb87"/><path d="m32.916 316.244.625-.224c20.361-6.872 39.987-15.756 58.586-26.52 7.582-4.336 14.683-9.463 21.187-15.293h95.472c6.535 5.86 13.691 10.988 21.34 15.293 18.636 10.693 38.254 19.574 58.586 26.52l.442.159c20.306 8.107 33.429 27.987 32.903 49.846v67.143h-322.044v-67.066c-.492-21.851 12.619-41.717 32.903-49.858z" fill="#575b6d"/><path d="m143.057 433.127-40.305-131.846h58.344 58.338l-40.298 131.846z" fill="#dbd8dd"/><path d="m118.593 256.374h85.4v49.516h-85.4z" fill="#f4bb87"/><path d="m182.902 301.281-13.361 22.648h-16.89l-13.36-22.648z" fill="#da364c"/><path d="m203.687 269.044-42.591 32.237 38.519 37.423 9.17-64.479z" fill="#eeefee"/><path d="m118.505 269.044 42.591 32.237-38.519 37.423-9.258-64.479z" fill="#eeefee"/><path d="m144.783 433.127-6.565-7.567 14.433-101.631h16.89l14.433 101.631-6.571 7.567z" fill="#ef5261"/><path d="m175.959 433.168h7.184c23.214-41.424 54.902-89.697 54.902-89.697l-10.319-27.268 22.843 3.501-20.45-30.215c-7.649-4.305-14.805-9.433-21.34-15.293z" fill="#414451"/><path d="m94.525 316.209-10.319 27.263s31.689 48.272 54.891 89.697h7.184l-33.003-158.997c-6.503 5.831-13.605 10.957-21.187 15.293l-20.45 30.215z" fill="#414451"/><path d="m82.373 181.617s-1.179 88.005 78.794 91.117c79.996-3.112 77.998-91.117 77.998-91.117l.177-69.978h-156.362z" fill="#fed19a"/><path d="m82.408 168.587c7.396-9.612 11.598-14.733 13.013-28.023 0 0 74.952 3.112 121.827-18.776 11.938 12.984 19.602 29.319 21.959 46.799 17.368-43.304 11.25-92.296-25.63-107.259-22.13-9.04-66.282-15.965-88.648-7.16-32.838 12.612-49.97 29.873-49.97 66.282-.268 16.352 2.251 32.63 7.449 48.137z" fill="#575b6d"/><path d="m312.549 116.283h156.085c8.082 0 14.633 6.551 14.633 14.633v99.521c0 8.082-6.552 14.633-14.633 14.633h-94.352l-53.199 29.644v-29.655h-8.534c-8.075-.003-14.621-6.547-14.627-14.621v-99.521c0-8.08 6.548-14.631 14.627-14.634z" fill="#eeefee"/><g fill="#dbd8dd"><circle cx="439.133" cy="180.674" r="14.586"/><circle cx="390.595" cy="180.674" r="14.586"/><circle cx="342.057" cy="180.674" r="14.586"/></g></g></g></svg>