<svg id="Capa_1" enable-background="new 0 0 496.156 496.156" height="512" viewBox="0 0 496.156 496.156" width="512" xmlns="http://www.w3.org/2000/svg"><g><path d="m40.986 82.333h414.214c6.525 0 11.814 5.289 11.814 11.814v271.254h-437.842v-271.254c0-6.525 5.289-11.814 11.814-11.814z" fill="#575b6d"/><path d="m49.037 102.198h398.112v243.338h-398.112z" fill="#69b0ee"/><path d="m491.552 365.401c2.39-.148 4.448 1.669 4.596 4.059.009.143.011.287.005.431-1.323 11.547-6.95 22.172-15.76 29.753-10.721 9.277-24.461 14.318-38.637 14.177h-387.356c-28.436 0-51.84-19.274-54.397-43.93-.089-2.393 1.778-4.405 4.171-4.495.144-.005.287-.004.431.005z" fill="#62667c"/><path d="m195.104 365.401h105.947c0 6.401-5.189 11.589-11.589 11.589h-82.768c-6.401 0-11.59-5.189-11.59-11.589z" fill="#828a9e"/><g fill="#eeefee"><path d="m277.648 247.35c-23.564-10.054-34.516-37.307-24.462-60.87 4.835-11.333 13.981-20.276 25.419-24.857l35.312-14.177c23.794-9.549 50.823 1.999 60.372 25.793s-1.999 50.823-25.793 60.372l-35.312 14.177c-11.431 4.59-24.221 4.432-35.536-.438zm64.634-82.739c-6.875-2.952-14.642-3.044-21.584-.254l-35.312 14.177c-14.387 5.981-21.202 22.492-15.222 36.88 5.875 14.132 21.946 21.003 36.221 15.486l35.312-14.177c14.458-5.791 21.483-22.206 15.692-36.664-2.784-6.95-8.217-12.507-15.101-15.448z"/><path d="m146.756 299.845c-23.564-10.054-34.516-37.307-24.462-60.87 4.835-11.333 13.981-20.276 25.419-24.857l35.312-14.177c23.887-9.297 50.787 2.531 60.084 26.417 9.162 23.541-2.186 50.087-25.534 59.73l-35.312 14.177c-11.421 4.588-24.199 4.437-35.507-.42zm64.628-82.739c-6.874-2.952-14.642-3.044-21.584-.254l-35.312 14.177c-14.462 5.8-21.483 22.226-15.683 36.688s22.226 21.483 36.688 15.683l35.312-14.177c14.458-5.791 21.483-22.206 15.692-36.664-2.784-6.95-8.217-12.507-15.101-15.448z"/><path d="m207.306 230.421 74.798-29.997c4.663-1.87 9.959.394 11.829 5.057l.002.005c1.87 4.663-.394 9.959-5.057 11.829l-74.798 29.997c-4.663 1.87-9.959-.394-11.829-5.057l-.002-.005c-1.87-4.663.394-9.959 5.057-11.829z"/></g></g></svg>