<?xml version="1.0" encoding="iso-8859-1"?>
<!-- Generator: Adobe Illustrator 19.0.0, SVG Export Plug-In . SVG Version: 6.00 Build 0)  -->
<svg version="1.1" id="Capa_1" xmlns="http://www.w3.org/2000/svg" xmlns:xlink="http://www.w3.org/1999/xlink" x="0px" y="0px"
	 viewBox="0 0 512 512" style="enable-background:new 0 0 512 512;" xml:space="preserve">
<polygon style="fill:#A17852;" points="310.159,0 310.159,77.708 280.276,77.708 280.276,29.884 231.724,29.884 231.724,75.407 
	201.84,75.407 201.84,0 "/>
<polygon style="fill:#715539;" points="280.276,29.884 256,29.884 256,0 310.159,0 310.159,77.708 280.276,77.708 "/>
<path style="fill:#00E1DE;" d="M480.617,287.383c0,59.997-23.359,116.408-65.784,158.833C372.408,488.631,315.997,512,256,512
	s-116.408-23.369-158.833-65.784c-42.425-42.425-65.784-98.836-65.784-158.833S54.742,170.975,97.167,128.55
	S196.003,62.766,256,62.766s116.408,23.359,158.833,65.784S480.617,227.386,480.617,287.383z"/>
<path style="fill:#00B3B8;" d="M480.617,287.383c0,59.997-23.359,116.408-65.784,158.833C372.408,488.631,315.997,512,256,512
	V62.766c59.997,0,116.408,23.359,158.833,65.784S480.617,227.386,480.617,287.383z"/>
<path style="fill:#EFE6DE;" d="M418.21,287.383c0,89.582-72.628,162.21-162.21,162.21c-89.592,0-162.21-72.628-162.21-162.21
	c0-89.592,72.618-162.21,162.21-162.21C345.582,125.173,418.21,197.791,418.21,287.383z"/>
<path style="fill:#DECCBC;" d="M418.21,287.383c0,89.582-72.628,162.21-162.21,162.21v-324.42
	C345.582,125.173,418.21,197.791,418.21,287.383z"/>
<polygon style="fill:#FF4F19;" points="351.021,192.362 294.012,325.385 256,341.682 160.979,382.404 217.988,249.371 256,233.084 
	"/>
<rect x="103.05" y="272.44" style="fill:#A17852;" width="36.454" height="29.884"/>
<rect x="372.5" y="272.44" style="fill:#715539;" width="36.454" height="29.884"/>
<g>
	<rect x="241.06" y="125.17" style="fill:#A17852;" width="29.884" height="43.32"/>
	<rect x="241.06" y="403.08" style="fill:#A17852;" width="29.884" height="43.32"/>
</g>
<path style="fill:#C8AD92;" d="M256,110.231c-97.68,0-177.152,79.471-177.152,177.151S158.32,464.534,256,464.534
	s177.152-79.471,177.152-177.151S353.68,110.231,256,110.231z M256,434.651c-81.204,0-147.268-66.063-147.268-147.268
	S174.796,140.115,256,140.115s147.268,66.063,147.268,147.268S337.204,434.651,256,434.651z"/>
<g>
	<rect x="256" y="125.17" style="fill:#715539;" width="14.942" height="43.32"/>
	<rect x="256" y="403.08" style="fill:#715539;" width="14.942" height="43.32"/>
</g>
<polygon style="fill:#FF0C2F;" points="294.012,325.385 256,341.682 256,233.084 351.021,192.362 "/>
<path style="fill:#B38A65;" d="M433.152,287.383c0,97.68-79.471,177.151-177.152,177.151V434.65
	c81.204,0,147.268-66.063,147.268-147.268S337.204,140.115,256,140.115v-29.884C353.68,110.231,433.152,189.703,433.152,287.383z"/>
<g>
</g>
<g>
</g>
<g>
</g>
<g>
</g>
<g>
</g>
<g>
</g>
<g>
</g>
<g>
</g>
<g>
</g>
<g>
</g>
<g>
</g>
<g>
</g>
<g>
</g>
<g>
</g>
<g>
</g>
</svg>
