<svg id="Capa_1" enable-background="new 0 0 512 512" height="512" viewBox="0 0 512 512" width="512" xmlns="http://www.w3.org/2000/svg"><g><g><path d="m16.38 0v406.932c0 57.869 47.024 104.948 104.819 104.948l74.801.028 67.044-290.935-67.044-220.973z" fill="#d7e8ff"/><path d="m375.62 252.77v-252.77h-179.62v511.908l239.614.092z" fill="#adcfff"/></g><g><g><path d="m435.62 512c-33.084 0-60-26.911-60-59.989v-199.241h120v199.241c0 33.078-26.916 59.989-60 59.989z" fill="#6aa8ff"/></g></g><g><path d="m61.646 246.504v30h134.354l19.824-15-19.824-15z" fill="#adcfff"/><path d="m196 246.504h134.354v30h-134.354z" fill="#6aa8ff"/><path d="m61.646 336.47h134.354l19.824-15.818-19.824-14.182h-134.354z" fill="#adcfff"/><path d="m196 306.47h134.354v30h-134.354z" fill="#6aa8ff"/><path d="m61.646 396.455h134.354l19.824-14.07-19.824-15.93h-134.354z" fill="#adcfff"/><path d="m196 366.455h134.354v30h-134.354z" fill="#6aa8ff"/><path d="m61.912 45.985v149.904h134.088l36.303-76.238-36.303-73.666z" fill="#ffe377"/><path d="m196 45.985h134.088v149.903h-134.088z" fill="#ffb555"/></g></g></svg>