<?xml version="1.0" encoding="iso-8859-1"?>
<!-- Generator: Adobe Illustrator 19.0.0, SVG Export Plug-In . SVG Version: 6.00 Build 0)  -->
<svg version="1.1" id="Capa_1" xmlns="http://www.w3.org/2000/svg" xmlns:xlink="http://www.w3.org/1999/xlink" x="0px" y="0px"
	 viewBox="0 0 512 512" style="enable-background:new 0 0 512 512;" xml:space="preserve">
<path style="fill:#FBBF00;" d="M164.114,388.035L164.114,388.035c-73.513-52.253-88.711-155.211-33.432-226.476L256,0
	l125.318,161.559c55.279,71.265,40.08,174.223-33.432,226.476l0,0C292.87,427.141,219.13,427.141,164.114,388.035z"/>
<path style="fill:#FFA900;" d="M381.318,161.559L256,0v417.365c32.189,0,64.378-9.776,91.885-29.329l0,0
	C421.398,335.782,436.597,232.825,381.318,161.559z"/>
<rect x="186.501" y="198.217" transform="matrix(-0.8691 -0.4946 0.4946 -0.8691 312.6072 509.1559)" style="fill:#FF8800;" width="74.339" height="29.999"/>
<rect x="273.328" y="176.045" transform="matrix(-0.4946 -0.8691 0.8691 -0.4946 245.6293 569.2613)" style="fill:#E47700;" width="29.999" height="74.339"/>
<rect x="135.642" y="284.397" transform="matrix(-0.8691 -0.4946 0.4946 -0.8691 225.7874 658.5419)" style="fill:#FF8800;" width="128.768" height="29.999"/>
<rect x="296.973" y="235.016" transform="matrix(-0.4946 -0.8691 0.8691 -0.4946 206.0638 718.6265)" style="fill:#E47700;" width="29.999" height="128.768"/>
<rect x="241" y="122.47" style="fill:#FF8800;" width="30" height="389.53"/>
<rect x="256" y="122.47" style="fill:#E47700;" width="15" height="389.53"/>
<g>
</g>
<g>
</g>
<g>
</g>
<g>
</g>
<g>
</g>
<g>
</g>
<g>
</g>
<g>
</g>
<g>
</g>
<g>
</g>
<g>
</g>
<g>
</g>
<g>
</g>
<g>
</g>
<g>
</g>
</svg>
