<svg id="Capa_1" enable-background="new 0 0 512 512" height="512" viewBox="0 0 512 512" width="512" xmlns="http://www.w3.org/2000/svg"><g><g><path d="m289.964 162.893-14.352-30.049-67.482 32.231v-74.784h-33.301v74.784l-67.481-32.231-14.353 30.049 69.561 33.224-55.686 53.307 23.027 24.055 61.583-58.95 61.582 58.95 23.028-24.055-55.687-53.307z" fill="#8d9ca8"/><path d="m382.959 204.175v-25.39c0-3.879-2.857-7.167-6.698-7.708l-41.337-5.822c-2.567-.362-4.636-2.278-5.201-4.808-.849-3.802-1.851-7.547-2.999-11.227-.771-2.473.062-5.162 2.103-6.757l32.88-25.705c3.056-2.389 3.887-6.664 1.947-10.024l-12.695-21.988c-1.94-3.36-6.057-4.778-9.655-3.326l-38.73 15.635c-2.402.97-5.148.347-6.903-1.558-2.623-2.846-5.361-5.584-8.208-8.208-1.904-1.755-2.527-4.502-1.558-6.903l15.635-38.73c1.452-3.597.034-7.715-3.326-9.655l-21.989-12.695c-3.36-1.94-7.635-1.109-10.024 1.947l-25.705 32.88c-1.595 2.041-4.284 2.874-6.757 2.103-3.68-1.148-7.425-2.15-11.227-2.999-2.53-.565-4.447-2.634-4.808-5.201l-5.822-41.337c-.541-3.842-3.828-6.699-7.707-6.699h-25.39c-3.879 0-7.167 2.857-7.708 6.698l-5.822 41.337c-.362 2.567-2.278 4.636-4.808 5.201-3.802.849-7.547 1.851-11.227 2.999-2.473.771-5.161-.062-6.757-2.103l-25.705-32.88c-2.389-3.056-6.664-3.887-10.024-1.947l-21.988 12.696c-3.36 1.94-4.778 6.057-3.326 9.655l15.635 38.73c.969 2.402.347 5.148-1.558 6.903-2.846 2.623-5.584 5.362-8.208 8.208-1.755 1.904-4.502 2.527-6.903 1.558l-38.73-15.635c-3.597-1.452-7.715-.034-9.655 3.326l-12.695 21.988c-1.94 3.36-1.109 7.635 1.947 10.024l32.88 25.705c2.041 1.595 2.874 4.284 2.103 6.757-1.148 3.68-2.15 7.425-2.999 11.227-.565 2.53-2.634 4.447-5.201 4.808l-41.337 5.822c-3.842.541-6.699 3.828-6.699 7.708v25.39c0 3.879 2.857 7.167 6.698 7.708l41.337 5.822c2.567.362 4.636 2.278 5.201 4.808.849 3.802 1.851 7.547 2.999 11.227.771 2.473-.062 5.162-2.103 6.757l-32.88 25.705c-3.056 2.389-3.887 6.664-1.947 10.024l12.695 21.988c1.94 3.36 6.057 4.778 9.655 3.326l38.73-15.635c2.402-.969 5.148-.347 6.903 1.558 2.623 2.846 5.362 5.584 8.208 8.208 1.904 1.755 2.527 4.502 1.558 6.903l-15.635 38.73c-1.452 3.597-.034 7.715 3.326 9.655l21.988 12.695c3.36 1.94 7.635 1.109 10.024-1.947l25.705-32.88c1.595-2.041 4.284-2.874 6.757-2.103 3.68 1.148 7.425 2.15 11.227 2.999 2.53.565 4.447 2.634 4.808 5.201l5.822 41.337c.541 3.841 3.828 6.698 7.708 6.698h25.39c3.879 0 7.167-2.857 7.708-6.698l5.822-41.337c.362-2.567 2.278-4.636 4.808-5.201 3.802-.849 7.547-1.851 11.227-2.999 2.473-.771 5.161.062 6.757 2.103l25.705 32.88c2.389 3.056 6.664 3.887 10.024 1.947l21.989-12.695c3.36-1.94 4.778-6.057 3.326-9.655l-15.635-38.73c-.97-2.402-.347-5.148 1.558-6.903 2.846-2.623 5.584-5.362 8.208-8.208 1.755-1.904 4.502-2.527 6.903-1.558l38.73 15.635c3.597 1.452 7.715.034 9.655-3.326l12.695-21.988c1.94-3.36 1.109-7.635-1.947-10.024l-32.88-25.705c-2.041-1.595-2.874-4.284-2.103-6.757 1.148-3.68 2.15-7.425 2.999-11.227.565-2.53 2.634-4.447 5.201-4.808l41.337-5.822c3.842-.542 6.698-3.829 6.698-7.708zm-191.479 88.493c-55.885 0-101.188-45.304-101.188-101.188s45.303-101.189 101.188-101.189 101.188 45.304 101.188 101.188-45.303 101.189-101.188 101.189z" fill="#c5d3dd"/><circle cx="191.48" cy="191.48" fill="#c5d3dd" r="49.951"/><circle cx="191.48" cy="191.48" fill="#596c76" r="16.65"/><path d="m376.261 171.077-41.337-5.822c-2.567-.362-4.636-2.278-5.201-4.808-.849-3.802-1.851-7.547-2.999-11.227-.771-2.473.062-5.162 2.103-6.757l32.88-25.705c3.056-2.389 3.887-6.664 1.947-10.024l-12.695-21.989c-1.898-3.288-5.881-4.709-9.422-3.408-8.529 33.068-25.19 68.415-49.135 102.811.173 2.421.266 4.865.266 7.331 0 55.885-45.304 101.189-101.188 101.189-2.466 0-4.909-.093-7.331-.266-34.396 23.945-69.743 40.606-102.811 49.135-1.301 3.541.12 7.524 3.408 9.422l21.989 12.695c3.36 1.94 7.635 1.109 10.024-1.947l25.705-32.88c1.595-2.041 4.284-2.874 6.757-2.103 3.68 1.148 7.425 2.15 11.227 2.999 2.53.565 4.447 2.634 4.808 5.201l5.822 41.337c.541 3.841 3.828 6.698 7.708 6.698h25.39c3.879 0 7.167-2.857 7.708-6.698l5.822-41.337c.362-2.567 2.278-4.636 4.808-5.201 3.802-.849 7.547-1.851 11.227-2.999 2.473-.772 5.161.062 6.757 2.103l25.705 32.88c2.389 3.056 6.664 3.887 10.024 1.947l21.989-12.695c3.36-1.94 4.778-6.057 3.326-9.654l-15.635-38.73c-.97-2.402-.347-5.148 1.558-6.903 2.846-2.623 5.584-5.362 8.208-8.208 1.755-1.904 4.502-2.527 6.903-1.558l38.73 15.635c3.597 1.452 7.715.034 9.655-3.326l12.695-21.989c1.94-3.359 1.109-7.635-1.947-10.024l-32.88-25.705c-2.041-1.595-2.874-4.284-2.103-6.757 1.148-3.68 2.15-7.425 2.999-11.227.565-2.53 2.634-4.447 5.201-4.808l41.337-5.822c3.842-.541 6.698-3.828 6.698-7.708v-25.39c-.002-3.88-2.858-7.167-6.7-7.708z" fill="#b6c4cf"/></g><g><path d="m512 420.016v-11.675c0-4.77-3.275-8.917-7.916-10.022l-18.016-4.29c-3.209-.764-5.878-3.012-7.12-6.068-.138-.34-.278-.678-.422-1.015-1.294-3.046-1.003-6.533.732-9.352l9.707-15.775c2.5-4.063 1.884-9.31-1.489-12.684l-8.255-8.255c-3.373-3.373-8.621-3.989-12.684-1.489l-15.775 9.707c-2.819 1.735-6.306 2.026-9.353.732-.337-.143-.675-.284-1.015-.422-3.056-1.242-5.304-3.91-6.068-7.12l-4.29-18.016c-1.105-4.641-5.251-7.916-10.022-7.916h-11.675c-4.77 0-8.917 3.275-10.022 7.916l-4.29 18.016c-.764 3.209-3.012 5.878-6.068 7.12-.34.138-.678.279-1.015.422-3.047 1.294-6.534 1.003-9.353-.732l-15.775-9.707c-4.063-2.5-9.31-1.884-12.684 1.489l-8.255 8.255c-3.373 3.373-3.989 8.621-1.489 12.684l9.707 15.775c1.735 2.819 2.026 6.306.732 9.353-.143.337-.284.675-.422 1.015-1.242 3.056-3.91 5.304-7.12 6.068l-18.016 4.29c-4.641 1.105-7.916 5.251-7.916 10.022v11.675c0 4.77 3.275 8.917 7.916 10.022l18.016 4.29c3.209.764 5.878 3.012 7.12 6.068.138.34.279.678.422 1.015 1.294 3.047 1.003 6.534-.732 9.353l-9.707 15.775c-2.5 4.063-1.884 9.31 1.489 12.684l8.255 8.255c3.373 3.373 8.621 3.989 12.684 1.489l15.775-9.707c2.819-1.735 6.306-2.026 9.353-.732.337.143.675.284 1.015.422 3.056 1.242 5.304 3.91 6.068 7.12l4.29 18.016c1.105 4.641 5.251 7.916 10.022 7.916h11.675c4.77 0 8.917-3.275 10.022-7.916l4.29-18.016c.764-3.209 3.012-5.878 6.068-7.12.34-.138.678-.279 1.015-.422 3.047-1.294 6.534-1.003 9.353.732l15.775 9.707c4.063 2.5 9.31 1.884 12.684-1.489l8.255-8.255c3.373-3.373 3.989-8.621 1.489-12.684l-9.707-15.775c-1.735-2.819-2.026-6.306-.732-9.352.143-.337.284-.675.422-1.015 1.242-3.056 3.91-5.304 7.12-6.068l18.016-4.29c4.641-1.107 7.916-5.253 7.916-10.024zm-97.821 22.112c-15.436 0-27.949-12.513-27.949-27.949s12.513-27.949 27.949-27.949 27.949 12.513 27.949 27.949-12.513 27.949-27.949 27.949z" fill="#c5d3dd"/><path d="m449.559 444.973c-17.41 17.41-36.25 31.598-55.248 42.27l4.01 16.841c1.105 4.641 5.251 7.916 10.022 7.916h11.675c4.77 0 8.917-3.275 10.022-7.916l4.29-18.016c.764-3.209 3.012-5.878 6.068-7.119.34-.138.678-.279 1.015-.422 3.047-1.294 6.534-1.003 9.353.732l15.775 9.707c4.063 2.5 9.31 1.884 12.684-1.489l8.255-8.255c3.373-3.373 3.989-8.621 1.489-12.684l-9.707-15.775c-1.735-2.819-2.026-6.306-.732-9.352.143-.337.284-.675.422-1.015 1.242-3.057 3.91-5.304 7.12-6.068l18.016-4.29c4.641-1.105 7.916-5.251 7.916-10.022v-11.675c0-4.77-3.275-8.917-7.916-10.022l-15.141-3.605c-10.301 17.3-23.504 34.375-39.388 50.259z" fill="#b6c4cf"/></g></g></svg>