<svg id="Capa_1" enable-background="new 0 0 510 510" height="512" viewBox="0 0 510 510" width="512" xmlns="http://www.w3.org/2000/svg"><g><path d="m334.424 446.733c-5.52-2.364-79.408-101.733-79.408-101.733-.005 0-.01 0-.016 0l-9 82.5 9 82.5c.649-.01 1.499.004 3.383-.089.738-.036 3.42-.25 3.759-.286-.12.013-.243.017-.364.029 30.92-3.078 58.287-27.038 72.646-62.921z" fill="#fbc000"/><path d="m286.819 414.1c24.94 24.936 58.877 42.528 93.182 42.526 21.559-.001 41.133-7.135 55.31-21.314 23.802-23.801 27.749-62.791 11.429-100.891-5.575 2.23-134.096-10.364-134.096-10.364.588-.491-56.98 20.943-57.644 20.943 3.224 25.875 14.002 48.843 31.819 69.1z" fill="#ff9201"/><path d="m312.645 324.058 3.502 2.04c21.226 12.366 46.764 18.902 73.853 18.902 13.423 0 26.608-1.636 39.189-4.86 48.336-12.388 80.811-46.604 80.811-85.14 0-33.66-24.778-64.02-63.26-79.422-2.364 5.52-102.102 87.479-102.102 87.479z" fill="#fbc000"/><path d="m435.311 74.688c-23.8-23.801-62.791-27.749-100.89-11.428 2.231 5.574-10.362 134.094-10.362 134.094-.272-.324 20.814 63.049 20.577 65.705l3.88-1.023c37.659-9.935 70.689-37.621 89.858-70.004 25.418-42.938 24.187-90.094-3.063-117.344z" fill="#ff9201"/><path d="m255 165.002 10-105.002-10-60c-33.66 0-64.021 24.779-79.421 63.26z" fill="#fad42b"/><path d="m255 165h.016c1.943 0-2.098-29.134-18.041-51.88-31.975-45.62-55.744-47.432-61.196-49.777-38.165-16.421-77.249-12.497-101.091 11.345-23.801 23.801-27.749 62.791-11.428 100.89 5.575-2.23 134.094 10.364 134.094 10.364z" fill="#fbc000"/><path d="m324.059 197.354 2.039-3.5c19.606-33.654 23.385-76.59 14.042-113.043-12.188-47.552-45.503-79.729-83.272-80.761-.622-.018-1.241-.05-1.868-.05v165h.016z" fill="#fbc000"/><path d="m165.362 246.942 31.992-61-3.5-2.04c-33.528-19.533-76.428-23.426-113.043-14.042-48.336 12.388-80.811 46.603-80.811 85.14 0 33.66 24.778 64.021 63.26 79.421z" fill="#fad42b"/><path d="m185.941 312.647c.273.325-20.813-63.049-20.577-65.705l-3.88 1.023c-37.692 9.943-70.719 37.668-89.858 70.003-25.418 42.939-24.188 90.096 3.062 117.345 14.18 14.18 33.748 21.314 55.31 21.314 14.628 0 30.175-3.297 45.576-9.894-2.228-5.573 10.367-134.086 10.367-134.086z" fill="#fbc000"/><path d="m255 345v165c-38.536 0-72.752-32.475-85.14-80.81-9.367-36.544-5.523-79.461 14.042-113.043l2.039-3.5z" fill="#fad42b"/><path d="m165 255c0 49.705 40.294 90 90 90l10-90-10-90c-49.706 0-90 40.295-90 90z" fill="#9d6b5d"/><path d="m255 165v180c49.706 0 90-40.295 90-90s-40.294-90-90-90z" fill="#895050"/><path d="m195 255c0 33.137 26.863 60 60 60l10-60-10-60c-33.137 0-60 26.863-60 60z" fill="#895050"/><path d="m255 195v120c33.137 0 60-26.863 60-60s-26.863-60-60-60z" fill="#5a344b"/></g></svg>