<?xml version="1.0" encoding="iso-8859-1"?>
<!-- Generator: Adobe Illustrator 19.0.0, SVG Export Plug-In . SVG Version: 6.00 Build 0)  -->
<svg version="1.1" id="Capa_1" xmlns="http://www.w3.org/2000/svg" xmlns:xlink="http://www.w3.org/1999/xlink" x="0px" y="0px"
	 viewBox="0 0 512.002 512.002" style="enable-background:new 0 0 512.002 512.002;" xml:space="preserve">
<g>
	<path style="fill:#BDC4CB;" d="M354.693,435.628h56.22c55.7,0,100.855-45.154,100.855-100.855l0,0
		c0-55.7-45.154-100.855-100.855-100.855h-56.22l-19.998,29.846l19.998,33.831h56.22c20.5,0,37.179,16.679,37.179,37.179
		c0,20.5-16.679,37.179-37.179,37.179h-56.22l-19.998,33.679L354.693,435.628z"/>
	<path style="fill:#BDC4CB;" d="M94.884,125.2H64.912c0-14.025,4.008-21.907,6.934-27.662c2.294-4.51,3.679-7.231,3.679-14.074
		c0-6.842-1.385-9.563-3.679-14.073c-2.926-5.755-6.934-13.635-6.934-27.662c0-14.024,4.008-21.904,6.935-27.659
		c2.293-4.507,3.678-7.227,3.678-14.068h29.973c0,14.025-4.008,21.905-6.935,27.66c-2.293,4.509-3.678,7.229-3.678,14.069
		c0,6.843,1.385,9.564,3.679,14.074c2.926,5.755,6.934,13.635,6.934,27.661s-4.008,21.907-6.934,27.662
		C96.268,115.636,94.884,118.358,94.884,125.2z"/>
	<path style="fill:#BDC4CB;" d="M187.143,125.2h-29.973c0-14.025,4.008-21.907,6.934-27.662c2.294-4.51,3.679-7.231,3.679-14.074
		c0-6.842-1.385-9.563-3.679-14.073c-2.926-5.755-6.934-13.635-6.934-27.662c0-14.024,4.008-21.904,6.935-27.659
		c2.294-4.507,3.679-7.227,3.679-14.068h29.973c0,14.025-4.008,21.905-6.935,27.66c-2.293,4.509-3.678,7.229-3.678,14.069
		c0,6.843,1.385,9.564,3.679,14.074c2.926,5.755,6.934,13.635,6.934,27.661s-4.008,21.907-6.934,27.662
		C188.528,115.636,187.143,118.358,187.143,125.2z"/>
	<path style="fill:#BDC4CB;" d="M279.403,125.2H249.43c0-14.025,4.008-21.907,6.934-27.662c2.294-4.51,3.679-7.231,3.679-14.074
		c0-6.842-1.385-9.563-3.679-14.073c-2.926-5.755-6.934-13.635-6.934-27.662c0-14.024,4.008-21.904,6.935-27.659
		c2.293-4.509,3.678-7.229,3.678-14.07h29.973c0,14.025-4.008,21.905-6.935,27.66c-2.293,4.509-3.678,7.229-3.678,14.069
		c0,6.843,1.385,9.564,3.679,14.074c2.926,5.755,6.934,13.635,6.934,27.661s-4.008,21.907-6.934,27.662
		C280.788,115.636,279.403,118.358,279.403,125.2z"/>
</g>
<polygon style="fill:#DCE4EC;" points="354.693,157.542 177.464,157.542 157.466,334.773 177.464,512.002 354.693,512.002 "/>
<rect x="0.234" y="157.538" style="fill:#EEF6FF;" width="177.228" height="354.457"/>
<g>
</g>
<g>
</g>
<g>
</g>
<g>
</g>
<g>
</g>
<g>
</g>
<g>
</g>
<g>
</g>
<g>
</g>
<g>
</g>
<g>
</g>
<g>
</g>
<g>
</g>
<g>
</g>
<g>
</g>
</svg>
