<?xml version="1.0" encoding="iso-8859-1"?>
<!-- Generator: Adobe Illustrator 19.0.0, SVG Export Plug-In . SVG Version: 6.00 Build 0)  -->
<svg version="1.1" id="Capa_1" xmlns="http://www.w3.org/2000/svg" xmlns:xlink="http://www.w3.org/1999/xlink" x="0px" y="0px"
	 viewBox="0 0 511.328 511.328" style="enable-background:new 0 0 511.328 511.328;" xml:space="preserve">
<path id="SVGCleanerId_0" style="fill:#F3C432;" d="M294.8,39.136c0,21.616-39.136,195.008-39.136,195.008
	S216.528,60.752,216.528,39.136S234.048,0,255.664,0S294.8,17.52,294.8,39.136z"/>
<path id="SVGCleanerId_1" style="fill:#F3C432;" d="M216.528,472.192c0-21.616,39.136-195.008,39.136-195.008
	S294.8,450.576,294.8,472.192s-17.52,39.136-39.136,39.136S216.528,493.808,216.528,472.192z"/>
<g>
	<path id="SVGCleanerId_0_1_" style="fill:#F3C432;" d="M294.8,39.136c0,21.616-39.136,195.008-39.136,195.008
		S216.528,60.752,216.528,39.136S234.048,0,255.664,0S294.8,17.52,294.8,39.136z"/>
</g>
<g>
	<path id="SVGCleanerId_1_1_" style="fill:#F3C432;" d="M216.528,472.192c0-21.616,39.136-195.008,39.136-195.008
		S294.8,450.576,294.8,472.192s-17.52,39.136-39.136,39.136S216.528,493.808,216.528,472.192z"/>
</g>
<path id="SVGCleanerId_2" style="fill:#FFD83B;" d="M237.424,36.384c5.6,20.88,12.672,198.48,12.672,198.48
	S167.408,77.504,161.824,56.64s6.8-42.336,27.68-47.936S231.824,15.504,237.424,36.384z"/>
<path id="SVGCleanerId_3" style="fill:#FFD83B;" d="M273.904,474.944c-5.6-20.88-12.672-198.48-12.672-198.48
	s82.688,157.36,88.272,178.224s-6.8,42.336-27.68,47.936C300.96,508.224,279.504,495.824,273.904,474.944z"/>
<g>
	<path id="SVGCleanerId_2_1_" style="fill:#FFD83B;" d="M237.424,36.384c5.6,20.88,12.672,198.48,12.672,198.48
		S167.408,77.504,161.824,56.64s6.8-42.336,27.68-47.936S231.824,15.504,237.424,36.384z"/>
</g>
<g>
	<path id="SVGCleanerId_3_1_" style="fill:#FFD83B;" d="M273.904,474.944c-5.6-20.88-12.672-198.48-12.672-198.48
		s82.688,157.36,88.272,178.224s-6.8,42.336-27.68,47.936C300.96,508.224,279.504,495.824,273.904,474.944z"/>
</g>
<path id="SVGCleanerId_4" style="fill:#F3C432;" d="M181.296,48.576c10.8,18.72,63.616,188.448,63.616,188.448
	S124.304,106.432,113.504,87.712s-4.4-42.656,14.32-53.472S170.48,29.856,181.296,48.576z"/>
<path id="SVGCleanerId_5" style="fill:#F3C432;" d="M330.032,462.752c-10.8-18.72-63.616-188.448-63.616-188.448
	s120.592,130.592,131.392,149.312c10.8,18.72,4.4,42.656-14.32,53.456C364.784,487.888,340.848,481.472,330.032,462.752z"/>
<g>
	<path id="SVGCleanerId_4_1_" style="fill:#F3C432;" d="M181.296,48.576c10.8,18.72,63.616,188.448,63.616,188.448
		S124.304,106.432,113.504,87.712s-4.4-42.656,14.32-53.472S170.48,29.856,181.296,48.576z"/>
</g>
<g>
	<path id="SVGCleanerId_5_1_" style="fill:#F3C432;" d="M330.032,462.752c-10.8-18.72-63.616-188.448-63.616-188.448
		s120.592,130.592,131.392,149.312c10.8,18.72,4.4,42.656-14.32,53.456C364.784,487.888,340.848,481.472,330.032,462.752z"/>
</g>
<path id="SVGCleanerId_6" style="fill:#FFD83B;" d="M130.224,74.88c15.28,15.28,110.208,165.568,110.208,165.568
	S90.16,145.504,74.88,130.224s-15.28-40.064,0-55.344S114.944,59.6,130.224,74.88z"/>
<path id="SVGCleanerId_7" style="fill:#FFD83B;" d="M381.104,436.448c-15.28-15.28-110.208-165.568-110.208-165.568
	s150.272,94.928,165.568,110.208s15.28,40.064,0,55.344S396.384,451.728,381.104,436.448z"/>
<g>
	<path id="SVGCleanerId_6_1_" style="fill:#FFD83B;" d="M130.224,74.88c15.28,15.28,110.208,165.568,110.208,165.568
		S90.16,145.504,74.88,130.224s-15.28-40.064,0-55.344S114.944,59.6,130.224,74.88z"/>
</g>
<g>
	<path id="SVGCleanerId_7_1_" style="fill:#FFD83B;" d="M381.104,436.448c-15.28-15.28-110.208-165.568-110.208-165.568
		s150.272,94.928,165.568,110.208s15.28,40.064,0,55.344S396.384,451.728,381.104,436.448z"/>
</g>
<path id="SVGCleanerId_8" style="fill:#F3C432;" d="M87.712,113.504c18.72,10.8,149.312,131.392,149.312,131.392
	s-169.728-52.8-188.448-63.616S23.44,146.544,34.24,127.824S68.992,102.704,87.712,113.504z"/>
<path id="SVGCleanerId_9" style="fill:#F3C432;" d="M423.616,397.824c-18.72-10.8-149.312-131.392-149.312-131.392
	s169.728,52.8,188.448,63.616c18.72,10.8,25.136,34.736,14.32,53.456C466.272,402.224,442.336,408.624,423.616,397.824z"/>
<g>
	<path id="SVGCleanerId_8_1_" style="fill:#F3C432;" d="M87.712,113.504c18.72,10.8,149.312,131.392,149.312,131.392
		s-169.728-52.8-188.448-63.616S23.44,146.544,34.24,127.824S68.992,102.704,87.712,113.504z"/>
</g>
<g>
	<path id="SVGCleanerId_9_1_" style="fill:#F3C432;" d="M423.616,397.824c-18.72-10.8-149.312-131.392-149.312-131.392
		s169.728,52.8,188.448,63.616c18.72,10.8,25.136,34.736,14.32,53.456C466.272,402.224,442.336,408.624,423.616,397.824z"/>
</g>
<path id="SVGCleanerId_10" style="fill:#FFD83B;" d="M56.64,161.824c20.88,5.6,178.224,88.272,178.224,88.272
	s-177.6-7.072-198.48-12.672S3.12,210.368,8.704,189.488S35.76,156.224,56.64,161.824z"/>
<path id="SVGCleanerId_11" style="fill:#FFD83B;" d="M454.688,349.504c-20.88-5.6-178.224-88.272-178.224-88.272
	s177.6,7.072,198.48,12.672c20.88,5.6,33.264,27.056,27.68,47.936C497.024,342.72,475.568,355.104,454.688,349.504z"/>
<g>
	<path id="SVGCleanerId_10_1_" style="fill:#FFD83B;" d="M56.64,161.824c20.88,5.6,178.224,88.272,178.224,88.272
		s-177.6-7.072-198.48-12.672S3.12,210.368,8.704,189.488S35.76,156.224,56.64,161.824z"/>
</g>
<g>
	<path id="SVGCleanerId_11_1_" style="fill:#FFD83B;" d="M454.688,349.504c-20.88-5.6-178.224-88.272-178.224-88.272
		s177.6,7.072,198.48,12.672c20.88,5.6,33.264,27.056,27.68,47.936C497.024,342.72,475.568,355.104,454.688,349.504z"/>
</g>
<path id="SVGCleanerId_12" style="fill:#F3C432;" d="M39.136,216.528c21.616,0,195.008,39.136,195.008,39.136
	S60.752,294.8,39.136,294.8S0,277.28,0,255.664S17.52,216.528,39.136,216.528z"/>
<path id="SVGCleanerId_13" style="fill:#F3C432;" d="M472.192,294.8c-21.616,0-195.008-39.136-195.008-39.136
	s173.392-39.136,195.008-39.136s39.136,17.52,39.136,39.136S493.808,294.8,472.192,294.8z"/>
<g>
	<path id="SVGCleanerId_12_1_" style="fill:#F3C432;" d="M39.136,216.528c21.616,0,195.008,39.136,195.008,39.136
		S60.752,294.8,39.136,294.8S0,277.28,0,255.664S17.52,216.528,39.136,216.528z"/>
</g>
<g>
	<path id="SVGCleanerId_13_1_" style="fill:#F3C432;" d="M472.192,294.8c-21.616,0-195.008-39.136-195.008-39.136
		s173.392-39.136,195.008-39.136s39.136,17.52,39.136,39.136S493.808,294.8,472.192,294.8z"/>
</g>
<path id="SVGCleanerId_14" style="fill:#FFD83B;" d="M36.384,273.904c20.88-5.6,198.48-12.672,198.48-12.672
	S77.504,343.92,56.64,349.504s-42.336-6.8-47.936-27.68C3.104,300.96,15.504,279.504,36.384,273.904z"/>
<path id="SVGCleanerId_15" style="fill:#FFD83B;" d="M474.944,237.424c-20.88,5.6-198.48,12.672-198.48,12.672
	s157.36-82.688,178.224-88.272s42.336,6.8,47.936,27.68C508.224,210.368,495.824,231.824,474.944,237.424z"/>
<g>
	<path id="SVGCleanerId_14_1_" style="fill:#FFD83B;" d="M36.384,273.904c20.88-5.6,198.48-12.672,198.48-12.672
		S77.504,343.92,56.64,349.504s-42.336-6.8-47.936-27.68C3.104,300.96,15.504,279.504,36.384,273.904z"/>
</g>
<g>
	<path id="SVGCleanerId_15_1_" style="fill:#FFD83B;" d="M474.944,237.424c-20.88,5.6-198.48,12.672-198.48,12.672
		s157.36-82.688,178.224-88.272s42.336,6.8,47.936,27.68C508.224,210.368,495.824,231.824,474.944,237.424z"/>
</g>
<path id="SVGCleanerId_16" style="fill:#F3C432;" d="M48.576,330.032c18.72-10.8,188.448-63.616,188.448-63.616
	S106.432,387.008,87.712,397.808s-42.656,4.416-53.472-14.304C23.44,364.784,29.856,340.848,48.576,330.032z"/>
<path id="SVGCleanerId_17" style="fill:#F3C432;" d="M462.752,181.296c-18.72,10.8-188.448,63.616-188.448,63.616
	S404.896,124.32,423.616,113.52c18.72-10.8,42.656-4.4,53.456,14.32S481.472,170.48,462.752,181.296z"/>
<g>
	<path id="SVGCleanerId_16_1_" style="fill:#F3C432;" d="M48.576,330.032c18.72-10.8,188.448-63.616,188.448-63.616
		S106.432,387.008,87.712,397.808s-42.656,4.416-53.472-14.304C23.44,364.784,29.856,340.848,48.576,330.032z"/>
</g>
<g>
	<path id="SVGCleanerId_17_1_" style="fill:#F3C432;" d="M462.752,181.296c-18.72,10.8-188.448,63.616-188.448,63.616
		S404.896,124.32,423.616,113.52c18.72-10.8,42.656-4.4,53.456,14.32S481.472,170.48,462.752,181.296z"/>
</g>
<path id="SVGCleanerId_18" style="fill:#FFD83B;" d="M74.88,381.104c15.28-15.28,165.568-110.208,165.568-110.208
	s-94.944,150.272-110.224,165.552s-40.064,15.28-55.344,0S59.6,396.384,74.88,381.104z"/>
<path id="SVGCleanerId_19" style="fill:#FFD83B;" d="M436.448,130.224c-15.28,15.28-165.568,110.208-165.568,110.208
	S365.808,90.16,381.088,74.864s40.064-15.28,55.344,0S451.728,114.944,436.448,130.224z"/>
<g>
	<path id="SVGCleanerId_18_1_" style="fill:#FFD83B;" d="M74.88,381.104c15.28-15.28,165.568-110.208,165.568-110.208
		s-94.944,150.272-110.224,165.552s-40.064,15.28-55.344,0S59.6,396.384,74.88,381.104z"/>
</g>
<g>
	<path id="SVGCleanerId_19_1_" style="fill:#FFD83B;" d="M436.448,130.224c-15.28,15.28-165.568,110.208-165.568,110.208
		S365.808,90.16,381.088,74.864s40.064-15.28,55.344,0S451.728,114.944,436.448,130.224z"/>
</g>
<path id="SVGCleanerId_20" style="fill:#F3C432;" d="M113.504,423.616c10.8-18.72,131.392-149.312,131.392-149.312
	s-52.8,169.728-63.616,188.448c-10.8,18.72-34.736,25.136-53.456,14.32S102.704,442.336,113.504,423.616z"/>
<path id="SVGCleanerId_21" style="fill:#F3C432;" d="M397.824,87.712c-10.8,18.72-131.392,149.312-131.392,149.312
	s52.8-169.728,63.616-188.448s34.736-25.136,53.456-14.32C402.224,45.056,408.624,68.992,397.824,87.712z"/>
<g>
	<path id="SVGCleanerId_20_1_" style="fill:#F3C432;" d="M113.504,423.616c10.8-18.72,131.392-149.312,131.392-149.312
		s-52.8,169.728-63.616,188.448c-10.8,18.72-34.736,25.136-53.456,14.32S102.704,442.336,113.504,423.616z"/>
</g>
<g>
	<path id="SVGCleanerId_21_1_" style="fill:#F3C432;" d="M397.824,87.712c-10.8,18.72-131.392,149.312-131.392,149.312
		s52.8-169.728,63.616-188.448s34.736-25.136,53.456-14.32C402.224,45.056,408.624,68.992,397.824,87.712z"/>
</g>
<path id="SVGCleanerId_22" style="fill:#FFD83B;" d="M161.824,454.688c5.6-20.88,88.272-178.224,88.272-178.224
	s-7.072,177.6-12.672,198.48s-27.056,33.264-47.936,27.68C168.608,497.024,156.224,475.568,161.824,454.688z"/>
<path id="SVGCleanerId_23" style="fill:#FFD83B;" d="M349.504,56.64c-5.584,20.88-88.272,178.224-88.272,178.224
	s7.072-177.6,12.672-198.48S300.96,3.12,321.84,8.704C342.72,14.304,355.104,35.76,349.504,56.64z"/>
<g>
	<path id="SVGCleanerId_22_1_" style="fill:#FFD83B;" d="M161.824,454.688c5.6-20.88,88.272-178.224,88.272-178.224
		s-7.072,177.6-12.672,198.48s-27.056,33.264-47.936,27.68C168.608,497.024,156.224,475.568,161.824,454.688z"/>
</g>
<g>
	<path id="SVGCleanerId_23_1_" style="fill:#FFD83B;" d="M349.504,56.64c-5.584,20.88-88.272,178.224-88.272,178.224
		s7.072-177.6,12.672-198.48S300.96,3.12,321.84,8.704C342.72,14.304,355.104,35.76,349.504,56.64z"/>
</g>
<path style="fill:#E8AF2A;" d="M266.208,284.64c0,0,8.032,62.912,17.408,129.568c-13.984-65.84-27.952-127.696-27.952-127.696
	s-13.968,61.872-27.952,127.696c9.376-66.64,17.408-129.568,17.408-129.568s-34.288,53.376-69.968,110.464
	c31.6-59.44,60.688-115.824,60.688-115.824s-50.464,38.416-103.504,79.856c50.016-45.04,96.624-88.064,96.624-88.064
	S168.4,289.92,104.384,310.72c62.4-25.216,120.912-49.712,120.912-49.712s-63.376-2.992-130.656-5.344
	c67.28-2.352,130.64-5.36,130.64-5.36s-58.512-24.496-120.912-49.712c64.016,20.8,124.576,39.648,124.576,39.648
	s-46.592-43.024-96.624-88.064c53.04,41.44,103.504,79.856,103.504,79.856s-29.056-56.368-60.656-115.808
	c35.664,57.088,69.952,110.448,69.952,110.448s-8.032-62.912-17.408-129.568c13.984,65.856,27.952,127.712,27.952,127.712
	s13.968-61.872,27.952-127.696c-9.376,66.64-17.408,129.568-17.408,129.568s34.288-53.36,69.952-110.432
	c-31.6,59.424-60.672,115.792-60.672,115.792s50.48-38.432,103.52-79.872c-50.016,45.04-96.624,88.08-96.624,88.08
	s60.56-18.848,124.576-39.648c-62.4,25.216-120.912,49.712-120.912,49.712s63.376,3.008,130.64,5.36
	c-67.28,2.352-130.64,5.36-130.64,5.36s58.512,24.496,120.912,49.712c-64.016-20.8-124.576-39.648-124.576-39.648
	s46.608,43.04,96.624,88.08c-53.04-41.44-103.52-79.872-103.52-79.872S304.56,335.68,336.16,395.12
	C300.496,338.016,266.208,284.64,266.208,284.64z"/>
<circle style="fill:#E14B4B;" cx="255.664" cy="255.664" r="50.384"/>
<g>
</g>
<g>
</g>
<g>
</g>
<g>
</g>
<g>
</g>
<g>
</g>
<g>
</g>
<g>
</g>
<g>
</g>
<g>
</g>
<g>
</g>
<g>
</g>
<g>
</g>
<g>
</g>
<g>
</g>
</svg>
