<svg height="512" viewBox="0 0 128 128" width="512" xmlns="http://www.w3.org/2000/svg"><g><path d="m70.937 35.766h-7.937c0-15.7 1.314-25.277 4.016-29.266l5.265 2.339c-1.09 2.684-2.364 10.802-1.344 26.927z" fill="#663325"/><path d="m69.312 28.125c-2.716-3.981-7.762-5.742-7.762-5.742a20.377 20.377 0 0 0 -3.194 4.653c-5.843-2.453-13.385-.5-13.385-.5s1.088 7.491 7.035 10.743c2.445 1.338 23.749 1.5 26.488 0 5.947-3.252 7.035-10.743 7.035-10.743a21.066 21.066 0 0 0 -16.217 1.589z" fill="#bae543"/><path d="m112.65 77.136c0 22.4-15.13 38.84-35.73 43.69a21.753 21.753 0 0 1 -11.13-.1 6.533 6.533 0 0 0 -3.58 0 21.753 21.753 0 0 1 -11.13.1c-20.6-4.85-35.73-21.29-35.73-43.69 0-23.04 16.01-39.77 37.51-44.07a25.171 25.171 0 0 1 9.89.31 6.075 6.075 0 0 0 2.5 0 25.171 25.171 0 0 1 9.89-.31c21.5 4.3 37.51 21.034 37.51 44.07z" fill="#fc4b00"/><path d="m97.273 104.162a1.751 1.751 0 0 1 -1.308-2.912 35.115 35.115 0 0 0 3.589-4.818 1.75 1.75 0 1 1 2.976 1.842 38.68 38.68 0 0 1 -3.946 5.3 1.747 1.747 0 0 1 -1.311.588z" fill="#e43e00"/></g></svg>