<svg height="512pt" viewBox="-46 0 512 512.001" width="512pt" xmlns="http://www.w3.org/2000/svg"><path d="m372.601562 102.800781h-115.199218c-7.5-3.601562-10.5-12.601562-6.902344-20.101562 13.5-28.5 31.800781-56 54-78.199219 2.699219-3 6.601562-4.5 10.5-4.5 3.902344 0 7.800781 1.5 10.5 4.5 22.203125 22.199219 40.5 49.699219 54 78.199219 3.601562 7.5.601562 16.5-6.898438 20.101562zm0 0" fill="#678d12"/><path d="m372.601562 102.800781h-57.601562v-102.800781c3.902344 0 7.800781 1.5 10.5 4.5 22.203125 22.199219 40.5 49.699219 54 78.199219 3.601562 7.5.601562 16.5-6.898438 20.101562zm0 0" fill="#487904"/><path d="m399.902344 128.597656c-8.703125 30.902344-30.300782 56.703125-60.300782 72.003906l-72.300781-15.601562c-43.199219-36.300781-53.699219-97.5-25.199219-145.800781 4.199219-6.601563 12.597657-9 19.5-5.699219l33.300782 16.800781c6 2.996094 8.699218 4.796875 20.097656 16.5 5.402344-6.601562 12.601562-12.601562 20.699219-16.5l33-16.800781c7.203125-3.300781 15.601562-.902344 19.800781 5.699219 15.898438 27 20.101562 59.398437 11.402344 89.398437zm0 0" fill="#81a713"/><path d="m399.902344 128.597656c-8.703125 30.902344-30.300782 56.703125-60.300782 72.003906l-24.601562-5.402343v-128.398438c5.402344-6.601562 12.601562-12.601562 20.703125-16.5l32.996094-16.800781c7.203125-3.300781 15.601562-.902344 19.800781 5.699219 15.898438 27 20.101562 59.398437 11.402344 89.398437zm0 0" fill="#678d12"/><path d="m381.898438 220.097656c-1.5.601563-3.296876.902344-4.796876.902344l-129-.902344c-7.800781-2.699218-12-11.097656-9.300781-18.898437 13.5-39.300781 36.300781-75.597657 65.699219-104.699219 2.699219-3 6.601562-4.5 10.5-4.5 3.902344 0 7.800781 1.5 10.5 4.5 29.402344 29.101562 52.203125 65.398438 65.699219 104.699219 2.703125 7.800781-1.5 16.199219-9.300781 18.898437zm0 0" fill="#a8d32a"/><path d="m381.898438 220.097656c-1.5.601563-3.296876.902344-4.796876.902344l-62.101562-.300781v-128.699219c3.902344 0 7.800781 1.5 10.5 4.5 29.402344 29.101562 52.203125 65.398438 65.699219 104.699219 2.703125 7.800781-1.5 16.199219-9.300781 18.898437zm0 0" fill="#81a713"/><path d="m144.820312 96.785156-99.761718 57.597656c-8.296875.632813-15.394532-5.660156-16.027344-13.953124-2.558594-31.433594-.460938-64.398438 7.664062-94.726563.839844-3.945313 3.46875-7.195313 6.84375-9.144531 3.378907-1.953125 7.503907-2.601563 11.34375-1.355469 30.328126 8.125 59.925782 22.792969 85.867188 40.722656 6.867188 4.695313 8.765625 13.992188 4.070312 20.859375zm0 0" fill="#678d12"/><path d="m144.820312 96.785156-49.882812 28.800782-51.398438-89.027344c3.378907-1.949219 7.503907-2.601563 11.339844-1.355469 30.328125 8.128906 59.925782 22.792969 85.867188 40.726563 6.871094 4.691406 8.769531 13.988281 4.074218 20.855468zm0 0" fill="#487904"/><path d="m181.363281 105.476562c7.917969 31.113282 2.109375 64.253907-16.21875 92.507813l-70.414062 22.636719c-55.5625-9.835938-95.257813-57.585938-94.72656275-113.664063.33984375-7.816406 6.41406275-14.09375 14.03906275-14.6875l37.238281-2.101562c6.699219-.402344 9.933594-.191407 25.65625 4.238281 1.378906-8.414062 4.613281-17.210938 9.679688-24.636719l20.175781-31.050781c4.585937-6.457031 13.0625-8.578125 20-4.964844 27.269531 15.4375 47.105469 41.394532 54.570312 71.722656zm0 0" fill="#81a713"/><path d="m181.363281 105.476562c7.917969 31.113282 2.109375 64.253907-16.21875 92.507813l-24.003906 7.621094-64.199219-111.195313c1.375-8.417968 4.609375-17.210937 9.675782-24.640625l20.175781-31.046875c4.589843-6.460937 13.0625-8.582031 20-4.964844 27.269531 15.433594 47.105469 41.390626 54.570312 71.71875zm0 0" fill="#678d12"/><path d="m211.523438 193.71875c-.996094 1.269531-2.40625 2.429688-3.703126 3.179688l-112.167968 63.722656c-8.105469 1.5625-15.945313-3.613282-17.503906-11.71875-7.960938-40.785156-6.363282-83.621094 4.546874-123.523438.839844-3.945312 3.464844-7.195312 6.84375-9.144531 3.375-1.949219 7.503907-2.601563 11.339844-1.351563 40.015625 10.5 77.910156 30.535157 109.25 57.820313 6.238282 5.402344 6.800782 14.777344 1.394532 21.015625zm0 0" fill="#a8d32a"/><path d="m211.523438 193.71875c-.996094 1.269531-2.40625 2.429688-3.703126 3.179688l-53.933593 30.792968-64.347657-111.457031c3.375-1.953125 7.503907-2.601563 11.339844-1.355469 40.015625 10.503906 77.910156 30.539063 109.25 57.824219 6.238282 5.402344 6.800782 14.777344 1.394532 21.015625zm0 0" fill="#81a713"/><path d="m232.972656 154.664062-30-51.960937c-2.25-3.898437-6.320312-6.742187-10.789062-7.28125-4.617188-.800781-9.222656.820313-12.519532 4.109375-24.789062 23.664062-41.621093 54.511719-49.023437 87.886719-32.609375-10.273438-67.738281-11.121094-100.625-1.488281-4.5 1.214843-8.203125 4.390624-9.824219 8.789062-1.765625 4.140625-1.335937 9.085938.914063 12.984375l30 51.960937c25.800781 44.6875 74.363281 70 125.253906 66.941407l6.300781 10.914062-59.597656 3.578125c-4.945312.429688-9.882812 3.28125-12.171875 7.71875-2.394531 4.847656-2.335937 10.355469.214844 14.773438 34.351562 59.492187 104.984375 60.628906 117.453125 53.429687l37.5 64.953125c4.199218 7.273438 13.214844 9.691406 20.488281 5.492188l25.984375-15c7.273438-4.203125 9.6875-13.21875 5.488281-20.492188l-6.601562-11.433594 7.871093-12.164062c23.660157-35.828125 24.984376-80.933594 3.683594-117.824219-2.550781-4.417969-7.289062-7.226562-12.6875-7.574219-5.246094-.085937-9.921875 2.613282-12.769531 6.679688l-32.894531 49.824219-36.152344-62.613281c28.09375-42.546876 30.453125-97.257813 4.503906-142.203126zm0 0" fill="#b9dd39"/><path d="m228.46875 296.867188 36.152344 62.613281 32.894531-49.824219c2.847656-4.066406 7.523437-6.765625 12.773437-6.679688 5.394532.347657 10.132813 3.15625 12.683594 7.574219 21.300782 36.890625 19.976563 81.996094-3.679687 117.824219l-7.871094 12.164062 6.597656 11.433594c4.203125 7.273438 1.785157 16.289063-5.488281 20.492188l-12.992188 7.5-168.898437-292.546875c7.40625-33.375 24.234375-64.222657 49.023437-87.886719 3.296876-3.289062 7.90625-4.910156 12.523438-4.109375 4.46875.539063 8.535156 3.382813 10.785156 7.28125l30 51.960937c25.949219 44.945313 23.589844 99.65625-4.503906 142.203126zm0 0" fill="#93bf00"/><path d="m420 197v-60c0-4.5-2.097656-9-5.699219-11.699219-3.601562-3-8.398437-3.902343-12.898437-2.703125-33.300782 8.101563-63.300782 26.402344-86.402344 51.601563-23.101562-25.199219-53.101562-43.5-86.398438-51.601563-4.5-1.199218-9.300781-.296875-12.902343 2.703125-3.597657 2.699219-5.699219 7.199219-5.699219 11.699219v60c0 51.597656 29.398438 97.800781 75 120.597656v12.601563l-53.398438-26.699219c-4.5-2.101562-10.199218-2.101562-14.402343.601562-4.496094 3-7.199219 7.796876-7.199219 12.898438 0 68.699219 60.601562 105 75 105v75c0 8.398438 6.601562 15 15 15h30c8.402344 0 15-6.601562 15-15v-13.199219l12.902344-6.601562c38.398437-19.199219 62.097656-57.601563 62.097656-100.199219 0-5.101562-2.699219-9.902344-7.199219-12.898438-4.5-2.703124-9.902343-2.703124-14.398437-.601562l-53.402344 26.699219v-72.300781c45.601562-22.800782 75-69 75-120.898438zm0 0" fill="#b9dd39"/><path d="m345 317.898438v72.300781l53.402344-26.699219c4.5-2.101562 9.898437-2.101562 14.398437.601562 4.5 3 7.199219 7.796876 7.199219 12.898438 0 42.601562-23.699219 81-62.097656 100.199219l-12.902344 6.601562v13.199219c0 8.398438-6.597656 15-15 15h-15v-337.800781c23.101562-25.199219 53.101562-43.5 86.402344-51.601563 4.5-1.199218 9.296875-.296875 12.898437 2.703125 3.601563 2.699219 5.699219 7.199219 5.699219 11.699219v60c0 51.898438-29.398438 98.097656-75 120.898438zm0 0" fill="#93bf00"/></svg>