<?xml version="1.0" encoding="iso-8859-1"?>
<!-- Generator: Adobe Illustrator 19.0.0, SVG Export Plug-In . SVG Version: 6.00 Build 0)  -->
<svg version="1.1" id="Capa_1" xmlns="http://www.w3.org/2000/svg" xmlns:xlink="http://www.w3.org/1999/xlink" x="0px" y="0px"
	 viewBox="0 0 468.293 468.293" style="enable-background:new 0 0 468.293 468.293;" xml:space="preserve">
<rect x="101.126" style="fill:#2D93BA;" width="266.059" height="98.285"/>
<rect x="101.126" y="37.576" style="fill:#E1E6E9;" width="266.059" height="23.127"/>
<path style="fill:#27A2DB;" d="M434.704,94.005L344.168,296.41h-99.208L366.831,0h0.116c10.58,14.742,18.732,26.074,26.247,36.48
	c5.146,7.111,10.002,13.817,15.147,20.928C415.914,67.873,424.066,79.204,434.704,94.005z"/>
<path style="fill:#E1E6E9;" d="M408.341,57.409L305.606,296.41h-22.142l109.73-259.93C398.339,43.591,403.195,50.298,408.341,57.409
	z"/>
<path style="fill:#27A2DB;" d="M33.589,94.005l90.536,202.405h99.208L101.462,0h-0.116c-10.58,14.742-18.732,26.074-26.247,36.48
	c-5.145,7.111-10.002,13.817-15.147,20.928C52.378,67.873,44.226,79.204,33.589,94.005z"/>
<path style="fill:#E1E6E9;" d="M59.952,57.409L162.687,296.41h22.142L75.099,36.48C69.954,43.591,65.097,50.298,59.952,57.409z"/>
<circle style="fill:#FCD462;" cx="234.146" cy="345.981" r="122.312"/>
<path style="fill:#CE412D;" d="M234.575,453.616h-0.43c-7.061,0-14.118-0.69-20.984-2.054l1.911-9.599
	c6.235,1.24,12.651,1.868,19.073,1.868L234.575,453.616z M255.559,451.474l-1.94-9.589c6.254-1.266,12.413-3.165,18.308-5.643
	l3.794,9.02C269.228,447.991,262.449,450.078,255.559,451.474z M192.98,445.434c-6.483-2.692-12.737-6.046-18.585-9.962l5.447-8.132
	c5.318,3.562,10.998,6.61,16.894,9.059L192.98,445.434z M294.254,435.224l-5.475-8.108c5.289-3.576,10.263-7.69,14.768-12.231
	l6.947,6.894C305.534,426.77,300.073,431.295,294.254,435.224z M158.108,422.095c-4.959-4.957-9.465-10.43-13.397-16.271
	l8.122-5.461c3.574,5.318,7.678,10.298,12.193,14.809L158.108,422.095z M323.823,405.447l-8.151-5.418
	c3.55-5.339,6.584-11.032,9.006-16.923l9.049,3.727C331.057,393.314,327.727,399.575,323.823,405.447z M134.735,387.246
	c-2.704-6.488-4.773-13.275-6.149-20.172l9.594-1.916c1.252,6.266,3.134,12.432,5.585,18.327L134.735,387.246z M339.791,366.628
	l-9.603-1.868c1.199-6.158,1.806-12.475,1.806-18.776l9.785-0.323v0.323C341.778,352.911,341.109,359.856,339.791,366.628z
	 M126.513,346.091v-0.107c0-7.004,0.683-14.025,2.031-20.867l9.603,1.892c-1.228,6.218-1.849,12.604-1.849,18.975L126.513,346.091z
	 M330.068,326.612c-1.266-6.264-3.158-12.427-5.623-18.318l9.02-3.779c2.719,6.483,4.802,13.265,6.197,20.157L330.068,326.612z
	 M143.688,308.672l-9.039-3.746c2.69-6.486,6.029-12.742,9.938-18.593l8.141,5.432C149.173,297.088,146.13,302.776,143.688,308.672z
	 M315.338,291.429c-3.569-5.291-7.678-10.265-12.217-14.78l6.899-6.937c4.988,4.964,9.508,10.43,13.43,16.247L315.338,291.429z
	 M164.883,276.938l-6.928-6.909c4.969-4.986,10.444-9.501,16.268-13.414l5.456,8.122
	C174.385,268.298,169.407,272.402,164.883,276.938z M288.277,264.511c-5.327-3.552-11.017-6.586-16.913-9.02l3.736-9.044
	c6.483,2.678,12.747,6.018,18.605,9.923L288.277,264.511z M196.549,255.646l-3.774-9.03c6.498-2.711,13.282-4.787,20.172-6.168
	l1.921,9.594C208.613,251.296,202.45,253.183,196.549,255.646z M253.017,249.963c-6.173-1.214-12.522-1.827-18.872-1.827
	l-0.172-7.838l0.029-1.945c0.01,0,0.024,0,0.033,0c7.114,0,14.085,0.676,20.864,2.007L253.017,249.963z"/>
<polygon style="fill:#DC8744;" points="234.146,278.017 253.766,312 293.006,312 273.386,345.983 293.006,379.965 253.766,379.965 
	234.146,413.948 214.526,379.965 175.287,379.965 194.907,345.983 175.287,312 214.526,312 "/>
<g>
</g>
<g>
</g>
<g>
</g>
<g>
</g>
<g>
</g>
<g>
</g>
<g>
</g>
<g>
</g>
<g>
</g>
<g>
</g>
<g>
</g>
<g>
</g>
<g>
</g>
<g>
</g>
<g>
</g>
</svg>
