<svg height="512" viewBox="0 0 48 48" width="512" xmlns="http://www.w3.org/2000/svg"><g id="whiteboard"><path d="m36 9h6v-1a3 3 0 0 0 -6 0z" fill="#a87e6b"/><path d="m2 9h44v30h-44z" fill="#a87e6b"/><path d="m46 9v28h-38a4 4 0 0 1 -4-4v-24z" fill="#be927c"/><path d="m6 13h36v26h-36z" fill="#dad7e5"/><path d="m42 13v24h-31a3 3 0 0 1 -3-3v-21z" fill="#edebf2"/><path d="m20 37v2h-10v-2a2 2 0 0 1 2-2h6a2 2 0 0 1 2 2z" fill="#db5669"/><path d="m20 37h-6a2 2 0 0 1 -2-2h6a2 2 0 0 1 2 2z" fill="#f26674"/><path d="m1 39h46v4h-46z" fill="#a87e6b"/><path d="m47 39v2h-42a2 2 0 0 1 -2-2z" fill="#be927c"/><path d="m12 8v1h-6v-1a3 3 0 0 1 6 0z" fill="#a87e6b"/><g fill="#be927c"><path d="m12 8h-1.18a2.82 2.82 0 0 1 -2.82-2.82 3 3 0 0 1 4 2.82z"/><path d="m42 8h-1.18a2.82 2.82 0 0 1 -2.82-2.82 3 3 0 0 1 4 2.82z"/></g></g></svg>