<svg id="Capa_1" enable-background="new 0 0 512 512" height="512" viewBox="0 0 512 512" width="512" xmlns="http://www.w3.org/2000/svg"><g><g><path d="m256 512c-23.76 0-46.143-11.587-60.205-30.718-23.584-2.607-44.824-16.201-56.689-36.782-11.895-20.581-13.066-45.762-3.516-67.5-9.551-21.738-8.379-46.919 3.516-67.5 11.865-20.596 33.105-34.189 56.689-36.797 14.062-19.116 36.445-30.703 60.205-30.703s46.143 11.587 60.205 30.703c23.584 2.607 44.795 16.201 56.689 36.797 11.895 20.581 13.066 45.762 3.516 67.5 9.551 21.738 8.379 46.919-3.516 67.5-11.865 20.581-33.105 34.175-56.689 36.782-14.062 19.131-36.445 30.718-60.205 30.718z" fill="#fed843"/></g><path d="m316.205 481.282c23.584-2.607 44.824-16.201 56.689-36.782 11.895-20.581 13.066-45.762 3.516-67.5 9.551-21.738 8.379-46.919-3.516-67.5-11.895-20.596-33.105-34.189-56.689-36.797-14.062-19.116-36.445-30.703-60.205-30.703v270c23.76 0 46.143-11.587 60.205-30.718z" fill="#fabe2c"/><path d="m346 0h-45l-15 37.5-15-37.5h-30l-15 37.5-15-37.5h-45c-8.401 0-15 6.599-15 15v122c0 8.399 6.599 15 15 15h45l15-37.5 15 37.5h30l15-37.5 15 37.5h45c8.401 0 15-6.601 15-15v-122c0-8.401-6.599-15-15-15z" fill="#ff6c6c"/><path d="m256 152h15l15-37.5 15 37.5h45c8.401 0 15-6.601 15-15v-122c0-8.401-6.599-15-15-15h-45l-15 37.5-15-37.5h-15z" fill="#e63950"/><g id="Medal_32_"><g><path d="m256 422c-24.814 0-45-20.186-45-45s20.186-45 45-45 45 20.186 45 45-20.186 45-45 45z" fill="#fabe2c"/></g></g><g><path d="m211 0h30v152h-30z" fill="#f0f7ff"/></g><g><path d="m271 0h30v152h-30z" fill="#dfe7f4"/></g><path d="m301 377c0-24.814-20.186-45-45-45v90c24.814 0 45-20.186 45-45z" fill="#ff9100"/><g id="Unique_Medal_2_"><g><path d="m346 212h-180c-24.814 0-45-20.186-45-45s20.186-45 45-45h180c24.814 0 45 20.186 45 45s-20.186 45-45 45z" fill="#fed843"/></g></g><path d="m256 212h90c24.814 0 45-20.186 45-45s-20.186-45-45-45h-90z" fill="#fabe2c"/><g><path d="m256 272c-24.814 0-45-20.186-45-45s20.186-45 45-45 45 20.186 45 45-20.186 45-45 45zm0-60c-8.262 0-15 6.724-15 15s6.738 15 15 15 15-6.724 15-15-6.738-15-15-15z" fill="#fabe2c"/></g><path d="m271 227c0 8.276-6.738 15-15 15v30c24.814 0 45-20.186 45-45s-20.186-45-45-45v30c8.262 0 15 6.724 15 15z" fill="#ff9100"/></g></svg>