<svg id="Capa_1" enable-background="new 0 0 507.463 507.463" height="512" viewBox="0 0 507.463 507.463" width="512" xmlns="http://www.w3.org/2000/svg"><g><path d="m238.731 372.463h-45c-24.854 0-45-20.147-45-45v-15h45c24.852 0 45 20.147 45 45l10 7.397z" fill="#00cb75"/><path d="m268.731 357.463-10 7.5 10 7.5h45c12.426 0 23.676-5.037 31.819-13.181 8.144-8.143 13.181-19.393 13.181-31.819 0-5.246 0-9.754 0-15-14.981 0-30.019 0-45 0-24.852 0-45 20.146-45 45z" fill="#00a78e"/><path d="m261.231 345.542-7.5 71.921-7.5 10-7.5-10c0-16.356 0-124.464 0-150.72l7.75-7.842 7.252 8.625z" fill="#bee75e"/><path d="m253.733 267.526h-.002v149.936l7.5 10 7.5-10c0-16.356 0-124.465 0-150.722l-8.625-7.84z" fill="#00cb75"/><path d="m124.461 447.463c5.246 10.492 9.754 19.508 15 30l57.135 10 57.136-10 10-15-10-15-64.636-10z" fill="#9d6b5d"/><path d="m383.002 447.463-64.636-10-64.635 10v30l57.135 10 57.136-10c5.246-10.492 9.754-19.508 15-30z" fill="#895050"/><path d="m88.731 417.463v30h165l10-15-10-15c-4.655 0-160.347 0-165 0z" fill="#895050"/><path d="m418.731 417.463c-4.655 0-160.348 0-165 0v30h165c0-10.492 0-19.508 0-30z" fill="#5a344b"/><path d="m139.461 477.463 15 30h99.271l10-15-10-15c-13.827 0-100.354 0-114.271 0z" fill="#895050"/><path d="m368.002 477.463c-13.826 0-100.353 0-114.27 0v30h99.27c5.246-10.492 9.754-19.508 15-30z" fill="#5a344b"/><path d="m202.532 84.638c-29.819-14.484-52.457-23.812-74.185-32.672-.745 24.527-1.763 57.391-2.596 100.669-.907 46.983 30.583 87.182 75.499 104.979 16.5 6.537 34.372 9.912 52.481 9.912l10-46.5-10-44.634c0 .001-49.704-91.029-51.199-91.754z" fill="#fa235e"/><path d="m253.731 176.393v91.134h.001c35.679-.002 71.46-13.229 96.741-38.966 20.037-20.399 31.793-47.185 31.237-75.992-.953-49.419-2.524-97.855-2.599-100.602-10.858 4.616-35.584 13.921-74.186 32.671z" fill="#c91341"/><path d="m229.5 36.003c-9.174 14.539-19.711 32.516-26.804 48.278-7.776 17.283-8.965 26.368-8.965 32.111 0 33.083 26.915 60 60 60l10-88.196-10-88.196c-11.782 17.068-15.759 22.575-24.231 36.003z" fill="#c91341"/><path d="m277.963 36.003c-8.391-13.299-12.243-18.637-24.232-36.003v176.393c33.083 0 60-26.915 60-60 0-5.743-1.189-14.829-8.965-32.112-7.08-15.734-17.608-33.704-26.803-48.278z" fill="#9b000a"/></g></svg>