<svg height="512" viewBox="0 0 46 58" width="512" xmlns="http://www.w3.org/2000/svg"><g id="Page-1" fill="none" fill-rule="evenodd"><g id="049---Vase" fill-rule="nonzero"><path id="Shape" d="m23 58h13.33c1.1473338.0010759 2.2398915-.4905751 3-1.35 4.1654871-4.5596326 6.5354205-10.4755834 6.67-16.65 0-11-9-16-9-26 0-6.46 2.09-10.42 3.57-12.41.2224316-.30439052.254769-.70800679.0836387-1.04392916-.1711302-.33592236-.5166394-.54705075-.8936387-.54607084h-33.52c-.37699926-.00097991-.72250846.21014848-.89363872.54607084-.17113026.33592237-.13879287.73953864.08363872 1.04392916 1.48 1.99 3.57 5.95 3.57 12.41 0 10-9 15-9 26 .13732371 6.1757252 2.51087536 12.0918382 6.68 16.65.76010849.8594249 1.85266618 1.3510759 3 1.35z" fill="#67b9cc"/><path id="Shape" d="m5.81 49.09c-.39289943-.0008198-.74891174-.231641-.91-.59-1.23664985-2.6639256-1.88469352-5.5630683-1.9-8.5 0-4.82 2-8.21 4.25-12.14.13362798-.2297442.35321715-.3968418.61027016-.4643886.257053-.0675467.53042119-.0299853.75972984.1043886.47978339.2711716.64973103.8794053.38 1.36-2.13 3.68-4 6.86-4 11.14.01635504 2.6504641.60297107 5.2663624 1.72 7.67.11137199.2425025.12119902.5194599.02729447.769246-.09390456.2497862-.28375035.4516786-.52729447.560754-.1287602.0586689-.26850513.0893446-.41.09z" fill="#9fc9d3"/><path id="Shape" d="m43.21 51c-1.0595964 2.029865-2.3661809 3.9208857-3.89 5.63-.7601085.8594249-1.8526662 1.3510759-3 1.35h-26.65c-1.14733382.0010759-2.23989151-.4905751-3-1.35-1.52031269-1.7096723-2.82352183-3.6006691-3.88-5.63 2.66273802 1.9736603 5.89566838 3.0267321 9.21 3h22c3.3143316.0267321 6.547262-1.0263397 9.21-3z" fill="#2fa8cc"/></g></g></svg>