<?xml version="1.0" encoding="iso-8859-1"?>
<!-- Generator: Adobe Illustrator 19.0.0, SVG Export Plug-In . SVG Version: 6.00 Build 0)  -->
<svg version="1.1" id="Capa_1" xmlns="http://www.w3.org/2000/svg" xmlns:xlink="http://www.w3.org/1999/xlink" x="0px" y="0px"
	 viewBox="0 0 512 512" style="enable-background:new 0 0 512 512;" xml:space="preserve">
<polygon style="fill:#FFC739;" points="447.322,166.54 376.331,226.488 351.653,113.791 324.667,108.462 256,207.648 
	187.333,108.462 160.347,113.791 135.669,226.488 64.678,166.54 40.181,180.32 71.181,378.32 440.819,378.32 471.819,180.32 "/>
<polygon style="fill:#F79F20;" points="447.322,166.54 376.331,226.488 351.653,113.791 324.667,108.462 256,207.648 256,378.32 
	440.819,378.32 471.819,180.32 "/>
<path style="fill:#FF672A;" d="M471,470H41V366.999l12.775-1.916c134.187-20.128,270.264-20.128,404.45,0L471,366.999V470z"/>
<path style="fill:#FD2D12;" d="M458.225,365.083C391.132,355.019,323.566,349.987,256,349.987V470h215V366.999L458.225,365.083z"/>
<g>
	<path style="fill:#FFE569;" d="M256,430c-11.028,0-20-8.972-20-20s8.972-20,20-20c11.028,0,20,8.972,20,20S267.028,430,256,430z"/>
	<path style="fill:#FFE569;" d="M45,192.667c-24.813,0-45-20.187-45-45s20.187-45,45-45s45,20.187,45,45S69.813,192.667,45,192.667z
		"/>
</g>
<path style="fill:#FFC739;" d="M467,192.667c-24.813,0-45-20.187-45-45s20.187-45,45-45s45,20.187,45,45
	S491.813,192.667,467,192.667z"/>
<path style="fill:#FFE569;" d="M175,132c-24.813,0-45-20.187-45-45s20.187-45,45-45s45,20.187,45,45S199.813,132,175,132z"/>
<g>
	<path style="fill:#FFC739;" d="M337,132c-24.813,0-45-20.187-45-45s20.187-45,45-45s45,20.187,45,45S361.813,132,337,132z"/>
	<path style="fill:#FFC739;" d="M256,390v40c11.028,0,20-8.972,20-20S267.028,390,256,390z"/>
</g>
<g>
</g>
<g>
</g>
<g>
</g>
<g>
</g>
<g>
</g>
<g>
</g>
<g>
</g>
<g>
</g>
<g>
</g>
<g>
</g>
<g>
</g>
<g>
</g>
<g>
</g>
<g>
</g>
<g>
</g>
</svg>
