<svg height="512pt" viewBox="0 -50 512.00008 512" width="512pt" xmlns="http://www.w3.org/2000/svg"><path d="m272.605469 61.695312c0-34.074218-27.746094-61.695312-61.972657-61.695312-34.230468 0-61.976562 27.621094-61.976562 61.695312 0 34.074219 27.746094 61.695313 61.976562 61.695313 34.226563 0 61.972657-27.621094 61.972657-61.695313zm0 0" fill="#f6de41"/><path d="m332.707031 401.847656-83.1875-177.855468c-1.121093-2.390626-3.382812-4.042969-6-4.382813-2.617187-.332031-5.222656.6875-6.914062 2.714844l-20.527344 24.644531-47.589844-106.023438c-1.230469-2.734374-3.933593-4.511718-6.933593-4.550781-.035157-.003906-.070313-.003906-.101563-.003906-2.960937 0-5.664063 1.699219-6.953125 4.371094l-58.316406 121.265625-7.085938-8.863282c-1.632812-2.046874-4.191406-3.121093-6.796875-2.859374-2.605469.261718-4.898437 1.828124-6.089843 4.160156l-75.363282 147.132812c-1.222656 2.390625-1.117187 5.25.285156 7.539063 1.402344 2.292969 3.894532 3.6875 6.578126 3.6875h318.011718c2.636719 0 5.089844-1.347657 6.503906-3.570313 1.417969-2.226562 1.597657-5.019531.480469-7.40625zm0 0" fill="#75b029"/><path d="m511.273438 401.847656-98.222657-209.996094c-1.117187-2.390624-3.378906-4.042968-5.996093-4.382812-2.617188-.328125-5.226563.6875-6.914063 2.714844l-25.664063 30.8125-57.109374-127.222656c-1.226563-2.730469-3.921876-4.503907-6.914063-4.550782-.011719 0-.023437 0-.035156 0-.03125 0-.058594-.003906-.085938-.003906-2.945312 0-5.640625 1.679688-6.933593 4.335938l-39.613282 81.285156-9.792968-12.253906c-1.640626-2.054688-4.214844-3.132813-6.828126-2.855469-2.617187.277343-4.910156 1.863281-6.089843 4.214843l-124.777344 248.878907h387.992187c2.636719 0 5.089844-1.347657 6.503907-3.570313 1.417969-2.226562 1.597656-5.019531.480469-7.40625zm0 0" fill="#85c22d"/><path d="m310.332031 89.222656c-2.945312 0-5.640625 1.675782-6.933593 4.332032l-39.613282 81.285156-9.792968-12.253906c-1.640626-2.050782-4.214844-3.128907-6.828126-2.855469-2.617187.277343-4.910156 1.867187-6.089843 4.214843l-124.777344 248.878907h194.121094v-323.601563c-.03125 0-.058594 0-.085938 0zm0 0" fill="#bbf743"/></svg>