<svg id="Capa_1" enable-background="new 0 0 512 512" height="512" viewBox="0 0 512 512" width="512" xmlns="http://www.w3.org/2000/svg"><g><path d="m249.28 461.17c.31 7.8-5.47 14.64-13.36 15.5-4.69.51-9.46.94-14.28 1.28-9.74.69-19.69 1.04-29.64 1.04s-19.9-.35-29.64-1.04c-4.82-.34-9.59-.77-14.28-1.28-7.89-.86-13.67-7.7-13.36-15.5l.62-3.71c2.03-6.81 8.7-11.41 16-10.61 5.22.57 10.55 1.03 15.94 1.37 8.14.52 16.43.78 24.72.78s16.58-.26 24.72-.78c5.39-.34 10.72-.8 15.94-1.37 7.31-.8 13.97 3.8 16 10.61z" fill="#283758"/><path d="m249.28 461.17c.31 7.8-5.47 14.64-13.36 15.5-4.69.51-9.46.94-14.28 1.28-9.74.69-19.69 1.04-29.64 1.04v-29.99c8.29 0 16.58-.26 24.72-.78 5.39-.34 10.72-.8 15.94-1.37 7.31-.8 13.97 3.8 16 10.61z" fill="#182135"/><path d="m182.8 354.45-15.52 93.77-4.92 29.73-3.56 21.5c-1.22 7.34-7.58 12.55-14.78 12.55-9.31 0-16.33-8.34-14.82-17.45l5.52-33.38.62-3.71 17.86-107.91c1.35-8.17 9.07-13.7 17.25-12.35 8.17 1.35 13.7 9.08 12.35 17.25z" fill="#425796"/><path d="m239.98 512c-7.21 0-13.56-5.21-14.78-12.55l-3.56-21.5-4.92-29.73-15.52-93.77c-1.35-8.17 4.18-15.9 12.35-17.25s15.9 4.18 17.25 12.35l17.86 107.91.62 3.71 5.52 33.38c1.51 9.11-5.51 17.45-14.82 17.45z" fill="#283758"/><path d="m295 272v80c0 8.28-6.72 15-15 15h-176c-8.28 0-15-6.72-15-15v-80c0-8.28 6.72-15 15-15h176c8.28 0 15 6.72 15 15z" fill="#94dfda"/><path d="m295 272v80c0 8.28-6.72 15-15 15h-88v-110h88c8.28 0 15 6.72 15 15z" fill="#61a7c5"/><path d="m512 37.2v213.6c0 20.656-20.467 35.161-39.97 28.3l-116.98-40.94c-6.02-2.11-10.05-7.78-10.05-14.16v-160c0-6.38 4.03-12.05 10.05-14.16l117-40.94c19.38-6.835 39.95 7.544 39.95 28.3z" fill="#425796"/><path d="m512 144v106.8c0 20.656-20.467 35.161-39.97 28.3l-116.98-40.94c-6.02-2.11-10.05-7.78-10.05-14.16v-80z" fill="#283758"/><path d="m375 45v197c0 24.81-20.19 45-45 45h-285c-24.81 0-45-20.19-45-45v-197c0-24.81 20.19-45 45-45h285c24.81 0 45 20.19 45 45z" fill="#eef4ff"/><path d="m375 144v98c0 24.81-20.19 45-45 45h-285c-24.81 0-45-20.19-45-45v-98z" fill="#d9e6fc"/><path d="m200 129h-120c-8.284 0-15 6.716-15 15v64c0 8.284 6.716 15 15 15h120c8.284 0 15-6.716 15-15v-64c0-8.284-6.716-15-15-15z" fill="#425796"/><path d="m280 119c-4.046 0-7.879-1.665-10.61-4.4-5.36-5.341-5.915-14.075-.99-20.109 2.407-2.957 6.005-4.986 10.12-5.421 8.649-.88 16.48 5.976 16.48 14.93 0 8.165-6.644 15-15 15z" fill="#ffe278"/><path d="m280 199c-8.257 0-15-6.753-15-15 0-8.589 7.355-15.767 16.48-14.931 8.434.892 14.276 8.375 13.45 16.41-.809 7.8-7.328 13.521-14.93 13.521z" fill="#dd5958"/></g></svg>