<svg id="Layer_1" enable-background="new 0 0 512 512" height="512" viewBox="0 0 512 512" width="512" xmlns="http://www.w3.org/2000/svg"><g><g><path d="m511.772 487.803c0 13.364-10.833 24.197-24.197 24.197h-457.546c-16.459 0-29.801-13.342-29.801-29.801v-438.372c0-6.574 5.329-11.902 11.902-11.902h313.8z" fill="#ffb454"/><g><path d="m227.426 0h263.444c11.544 0 20.902 9.358 20.902 20.902v311.003c0 11.544-9.358 20.902-20.902 20.902h-361.622c-11.544 0-20.902-9.358-20.902-20.902v-217.562c0-5.301 2.173-10.371 6.011-14.028l99.708-94.97c3.602-3.431 8.386-5.345 13.361-5.345z" fill="#fff5f5"/><g fill="#f4f1f1"><path d="m198.775 106.041c11.544 0 20.902-9.358 20.902-20.902v-83.5c-2.053.897-3.96 2.133-5.612 3.706l-99.708 94.97c-1.735 1.653-3.109 3.604-4.117 5.726z"/><path d="m490.87 0h-180.811v352.807h180.811c11.544 0 20.902-9.358 20.902-20.902v-311.003c0-11.544-9.358-20.902-20.902-20.902z"/></g></g><g><path d="m409.601 172.681h-198.805c-8.284 0-15-6.716-15-15s6.716-15 15-15h198.806c8.284 0 15 6.716 15 15s-6.717 15-15.001 15z" fill="#004762"/></g><path d="m409.601 142.681h-99.543v30h99.543c8.284 0 15-6.716 15-15s-6.716-15-15-15z" fill="#002d3e"/><path d="m83.091 216.739c-10.537 0-19.079 8.542-19.079 19.079v244.748c0 17.36-14.073 31.434-31.434 31.434h455.759c12.943 0 23.435-10.492 23.435-23.435v-255.605c0-8.958-7.262-16.22-16.22-16.22h-412.461z" fill="#ffdd54"/><path d="m495.551 216.739h-185.492v295.261h178.278c12.943 0 23.435-10.492 23.435-23.435v-255.605c0-8.958-7.262-16.221-16.221-16.221z" fill="#ffd321"/></g><path d="m467.533 417.39h-14.73c-1.93 0-3.495-1.565-3.495-3.495v-14.73c0-8.077-6.207-15.027-14.275-15.407-8.614-.406-15.725 6.458-15.725 14.983v15.153c0 1.93-1.565 3.495-3.495 3.495h-14.729c-8.077 0-15.027 6.207-15.407 14.275-.406 8.614 6.458 15.725 14.983 15.725h15.152c1.93 0 3.495 1.565 3.495 3.495v14.73c0 8.077 6.207 15.027 14.275 15.407 8.614.406 15.725-6.458 15.725-14.983v-15.153c0-1.93 1.565-3.495 3.495-3.495h15.153c8.525 0 15.389-7.111 14.983-15.725-.378-8.068-7.328-14.275-15.405-14.275z" fill="#fff5f5"/><g><g><path d="m222.522 421.591h-99.404c-8.284 0-15-6.716-15-15s6.716-15 15-15h99.404c8.284 0 15 6.716 15 15s-6.716 15-15 15z" fill="#fff"/></g><g><path d="m222.522 481.039h-99.404c-8.284 0-15-6.716-15-15s6.716-15 15-15h99.404c8.284 0 15 6.716 15 15s-6.716 15-15 15z" fill="#fff"/></g></g></g></svg>