<svg id="Layer_1" enable-background="new 0 0 510 510" height="512" viewBox="0 0 510 510" width="512" xmlns="http://www.w3.org/2000/svg"><g id="XMLID_2074_"><path id="XMLID_2153_" d="m18.75 75c0 40.169 31.742 73.064 71.461 74.918l3.539-74.918 10-32.5-10-42.5c-41.355 0-75 33.645-75 75z" fill="#f4d844"/><path id="XMLID_2150_" d="m93.75 0v75l35 10 40-10c0-41.355-33.645-75-75-75z" fill="#ecbd2c"/><path id="XMLID_2147_" d="m281.25 75h-196.033l14.001 210.012c1.525 22.884 9.057 45.066 21.778 64.148 7.384 11.076 12.451 23.31 15.06 36.361l10.193 50.964v43.515l67.5 10 67.5-10 10-189z" fill="#f0f7ff"/><path id="XMLID_2146_" d="m281.25 75v405l66.777 10 68.223-10v-43.153l11.452-45.811c1.793-7.169 4.376-14.151 7.68-20.757l13.811-27.624c7.846-15.69 12.415-32.521 13.582-50.024l14.508-217.631z" fill="#dfe7f4"/><path id="XMLID_2145_" d="m146.25 480v30h135l10-15-10-15z" fill="#dfe7f4"/><path id="XMLID_2142_" d="m281.25 480h135v30h-135z" fill="#c7cfe1"/><path id="XMLID_2139_" d="m123.283 195 5.868 88.016c1.178 17.66 6.988 34.777 16.806 49.504 9.568 14.353 16.135 30.205 19.518 47.119l10.775 53.876v1.485h105l10-115.5-10-124.5z" fill="#ff637b"/><path id="XMLID_2138_" d="m378.684 195-20.934 24-9.723-24h-66.777v240h105v-1.847l12.349-49.395c2.322-9.289 5.671-18.338 9.95-26.896l13.812-27.623c6.054-12.108 9.58-25.097 10.48-38.604l6.376-95.635z" fill="#e63950"/><path id="XMLID_2135_" d="m491.25 30v-30h-102.171l-41.052 195 12.206 13 18.451-13 34.737-165z" fill="#c7cfe1"/><path id="XMLID_2132_" d="m326.572 296.91 29.356 6.18 22.756-108.09h-30.657z" fill="#cd0000"/><path id="XMLID_2129_" d="m161.25 142.5h105v105h-105z" fill="#dfe7f4"/><g id="XMLID_2124_"><g><path id="XMLID_949_" d="m206.25 345h30v30h-30z" fill="#e63950"/></g></g><g id="XMLID_2080_"><g><path id="XMLID_948_" d="m251.25 285h30v30h-30z" fill="#e63950"/></g></g><g id="XMLID_2075_"><g><path id="XMLID_965_" d="m281.25 360h30v30h-30z" fill="#cd0000"/></g></g></g></svg>