<?xml version="1.0" encoding="iso-8859-1"?>
<!-- Generator: Adobe Illustrator 21.0.0, SVG Export Plug-In . SVG Version: 6.00 Build 0)  -->
<svg version="1.1" id="Capa_1" xmlns="http://www.w3.org/2000/svg" xmlns:xlink="http://www.w3.org/1999/xlink" x="0px" y="0px"
	 viewBox="0 0 512 512" style="enable-background:new 0 0 512 512;" xml:space="preserve">
<path style="fill:#FFE470;" d="M265.875,352.019c0,0-143.409,143.407-146.707,146.706c-17.399,17.699-45.895,17.699-63.592,0
	l-21.298-20.996l-0.3-0.3v-0.3L13.28,456.431c-17.697-17.699-17.697-46.193,0-63.592c0,0,3.9-3.9,10.5-10.799l44.394,23.096
	l-23.098-44.094c6.3-6.6,12.025-12.025,19.223-19.524l23.098,1.8l-1.8-23.096c7.199-7.201,14.397-14.099,21.298-20.997
	l44.094,22.797l-22.797-44.096c17.699-17.997,30.897-30.895,31.796-31.796c3.001,2.999,27.897,27.897,52.794,52.794
	C238.577,324.721,264.375,350.517,265.875,352.019z"/>
<path style="fill:#FFD400;" d="M265.875,352.019c0,0-143.409,143.407-146.707,146.706c-17.399,17.699-45.895,17.699-63.592,0
	l-21.298-20.996l-0.3-0.3v-0.3l178.804-178.203C238.577,324.721,264.375,350.517,265.875,352.019z"/>
<path style="fill:#FFE470;" d="M498.946,119.046c0,0.3-144.881,145.081-148.182,148.082c-2.999-3.001-27.897-27.897-52.792-52.794
	c-25.798-25.797-51.595-51.593-53.095-53.095c1.5-1.8,14.397-14.397,31.796-31.796l44.094,23.098l-23.096-44.394
	c6.898-6.9,14.097-14.099,21.296-21.298l23.098,1.8l-1.8-22.797c7.499-7.499,14.397-14.297,20.698-20.895l44.394,23.096
	L382.259,23.66c5.999-5.999,10.2-9.9,10.8-10.498c17.397-17.699,45.893-17.399,63.592,0l20.997,21.296l0.599,0.3l20.698,20.697
	C516.344,73.153,516.344,101.648,498.946,119.046z"/>
<path style="fill:#FFD400;" d="M498.946,119.046c0,0.3-144.881,145.081-148.182,148.082c-2.999-3.001-27.897-27.897-52.792-52.794
	L478.248,34.756l20.698,20.697C516.344,73.153,516.344,101.648,498.946,119.046z"/>
<g>
	<path style="fill:#FF9F00;" d="M106.872,377.715c3.838,0,7.675-1.465,10.604-4.394c5.858-5.858,5.858-15.35,0-21.208l-31.82-31.82
		c-7.186,7.186-14.288,14.288-21.208,21.208l31.82,31.82C99.197,376.25,103.035,377.715,106.872,377.715z"/>
	<path style="fill:#FF9F00;" d="M98.169,435.133c-2.999,3.001-6.898,4.5-10.799,4.5s-7.499-1.5-10.5-4.5l-0.298-0.3l-52.794-52.792
		c5.399-5.401,12.898-12.599,21.296-20.997l52.794,52.494l0.3,0.3C103.869,419.835,103.869,429.434,98.169,435.133z"/>
	<path style="fill:#FF9F00;" d="M180.984,352.019c-2.701,2.999-6.598,4.498-10.498,4.498s-7.799-1.5-10.5-4.498l-0.3-0.3
		l-52.792-52.494c7.499-7.799,14.698-14.698,21.296-21.298l52.794,52.794v0.3C186.985,336.72,186.985,346.32,180.984,352.019z"/>
	<path style="fill:#FF9F00;" d="M361.402,123.185c3.838,0,7.675-1.465,10.604-4.394c5.858-5.858,5.858-15.364,0-21.208
		L340.184,65.77c-6.908,6.906-14.033,14.033-21.208,21.208l31.822,31.812C353.727,121.72,357.565,123.185,361.402,123.185z"/>
	<path style="fill:#FF9F00;" d="M435.353,98.049c-2.999,3.001-6.898,4.199-10.498,4.199c-3.9,0-7.499-1.199-10.5-3.9l-0.298-0.3
		l-53.095-53.093c8.698-8.4,15.897-15.599,21.296-21.298l53.095,53.095c0.3,0.298,0.3,0.298,0.3,0.599
		C441.053,83.35,440.753,92.349,435.353,98.049z"/>
	<path style="fill:#FF9F00;" d="M350.764,182.538c-2.999,2.701-6.598,4.199-10.498,4.199c-3.9,0-7.499-1.5-10.498-4.199h-0.3
		l-52.794-53.095c6.3-6.598,13.498-13.797,20.997-21.296l53.393,53.393C356.763,167.24,356.763,176.539,350.764,182.538z"/>
</g>
<polygon style="fill:#FF7816;" points="477.374,371.167 454.276,454.255 371.186,477.354 68.743,174.852 81.343,119.658 
	100.541,100.461 119.738,81.264 174.631,68.665 "/>
<polygon style="fill:#FF4B00;" points="454.276,454.255 371.186,477.354 68.743,174.852 81.343,119.658 100.541,100.461 "/>
<path style="fill:#FF9F00;" d="M454.276,454.255c-2.999,3.001-6.898,4.5-10.498,4.5c-3.9,0-7.799-1.5-10.8-4.5L100.541,121.758
	c-5.999-5.999-5.999-15.298,0-21.296c5.697-5.699,15.296-5.699,21.296,0l332.439,332.498
	C459.975,438.957,459.975,448.556,454.276,454.255z"/>
<path style="fill:#FF7816;" d="M454.276,454.255c-2.999,3.001-6.898,4.5-10.498,4.5c-3.9,0-7.799-1.5-10.8-4.5L100.541,121.758
	c-5.999-5.999-5.999-15.298,0-21.296L454.276,454.255z"/>
<path style="fill:#5A5A5A;" d="M498.671,392.764c-2.399-2.401-18.298-18.598-21.296-21.596c-1.8,1.8-27.298,27.296-53.095,53.093
	c-24.898,24.898-50.093,50.095-53.095,53.095c2.401,2.401,18.6,18.598,21.598,21.596c17.399,17.399,45.893,17.399,63.592,0
	l21.298-21.296l20.996-21.298C516.37,438.957,516.37,410.462,498.671,392.764z"/>
<path style="fill:#FFCEBF;" d="M174.631,68.665l-52.794,53.093l-53.095,53.095L1.152,20.271c-2.401-5.399-0.901-11.699,3.3-15.899
	c4.199-4.198,10.5-5.399,15.899-3.3L174.631,68.665z"/>
<path style="fill:#F89580;" d="M4.452,4.372l117.386,117.386l-53.095,53.095L1.152,20.271C-1.248,14.872,0.251,8.571,4.452,4.372z"
	/>
<path style="fill:#444444;" d="M477.674,477.654l-21.298,21.296c-17.699,17.399-46.193,17.399-63.592,0
	c-2.999-2.999-19.198-19.197-21.598-21.596c3.001-2.999,28.197-28.197,53.095-53.095L477.674,477.654z"/>
<g>
	<path style="fill:#FF7816;" d="M98.169,413.836c5.699,5.998,5.699,15.597,0,21.296c-2.999,3.001-6.898,4.5-10.799,4.5
		s-7.499-1.5-10.5-4.5l-0.298-0.3l21.296-21.296L98.169,413.836z"/>
	<path style="fill:#FF7816;" d="M180.984,331.02c5.999,5.699,5.999,15.298,0,20.997c-2.701,2.999-6.598,4.498-10.498,4.498
		s-7.799-1.5-10.5-4.498l-0.3-0.3l21.298-20.997L180.984,331.02L180.984,331.02z"/>
	<path style="fill:#FF7816;" d="M351.064,161.541c5.699,5.699,5.699,14.998-0.3,20.997c-2.999,2.701-6.598,4.199-10.498,4.199
		c-3.9,0-7.499-1.5-10.498-4.199L351.064,161.541z"/>
	<path style="fill:#FF7816;" d="M435.353,98.049c-2.999,3.001-6.898,4.199-10.498,4.199c-3.9,0-7.499-1.199-10.5-3.9l21.298-20.997
		C441.053,83.35,440.753,92.349,435.353,98.049z"/>
</g>
<g>
</g>
<g>
</g>
<g>
</g>
<g>
</g>
<g>
</g>
<g>
</g>
<g>
</g>
<g>
</g>
<g>
</g>
<g>
</g>
<g>
</g>
<g>
</g>
<g>
</g>
<g>
</g>
<g>
</g>
</svg>
