<?xml version="1.0" encoding="iso-8859-1"?>
<!-- Generator: Adobe Illustrator 19.0.0, SVG Export Plug-In . SVG Version: 6.00 Build 0)  -->
<svg version="1.1" id="Capa_1" xmlns="http://www.w3.org/2000/svg" xmlns:xlink="http://www.w3.org/1999/xlink" x="0px" y="0px"
	 viewBox="0 0 512 512" style="enable-background:new 0 0 512 512;" xml:space="preserve">
<path style="fill:#FF7058;" d="M477.952,209.419c-6.037-19.648-24.181-33.045-44.715-33.045H313.099v193.92H512v-50.155
	L477.952,209.419z"/>
<path style="fill:#84DBFF;" d="M482.496,313.739l-29.707-96.576c-2.656-8.651-10.517-14.453-19.563-14.453h-93.824v111.029
	L482.496,313.739L482.496,313.739z"/>
<path style="fill:#54C0EB;" d="M482.496,313.739l-29.707-96.576c-2.656-8.651-10.517-14.453-19.563-14.453h-93.824L482.496,313.739z
	"/>
<g>
	<path style="fill:#FF7058;" d="M168.416,104.811h-57.888c-25.237,0-45.013-14.827-45.013-33.749
		c0-18.912,19.776-33.749,45.013-33.749c24.853,0,57.888,41.109,57.888,59.893V104.811z M110.528,52.523
		c-16.16,0-29.813,8.501-29.813,18.539c0,10.059,13.653,18.549,29.813,18.549h40.288C143.936,75.648,123.808,52.523,110.528,52.523"
		/>
	<path style="fill:#FF7058;" d="M211.104,104.811h-57.888v-7.605c0-18.795,33.035-59.893,57.888-59.893
		c25.248,0,45.024,14.837,45.024,33.749C256.128,89.995,236.352,104.811,211.104,104.811 M170.816,89.611h40.288
		c16.171,0,29.813-8.491,29.813-18.549c0-10.037-13.643-18.539-29.813-18.539C197.835,52.523,177.696,75.648,170.816,89.611"/>
</g>
<rect x="8.523" y="141.12" style="fill:#F2F2F2;" width="304.587" height="245.205"/>
<path style="fill:#E8EAEA;" d="M300.789,101.269H20.832C9.333,101.269,0,110.603,0,122.112v35.285h321.643v-35.285
	C321.643,110.603,312.309,101.269,300.789,101.269"/>
<rect x="142.187" y="97.216" style="fill:#FF7058;" width="37.259" height="291.221"/>
<path style="fill:#40596B;" d="M6.731,366.208v35.189c0,11.776,9.547,21.333,21.333,21.333h462.56
	c11.776,0,21.333-9.557,21.333-21.333v-35.189H6.731z"/>
<g>
	<path style="fill:#334A5E;" d="M126.752,348.192c-41.163,0-74.539,33.376-74.539,74.539h149.088
		C201.291,381.557,167.915,348.192,126.752,348.192"/>
	<path style="fill:#334A5E;" d="M409.387,348.192c-41.152,0-74.528,33.376-74.528,74.539h149.077
		C483.925,381.557,450.549,348.192,409.387,348.192"/>
</g>
<path style="fill:#40596B;" d="M178.709,422.731c0,28.683-23.264,51.957-51.957,51.957c-28.704,0-51.957-23.275-51.957-51.957
	c0-28.683,23.253-51.968,51.957-51.968C155.445,370.763,178.709,394.037,178.709,422.731"/>
<path style="fill:#E8EAEA;" d="M151.989,422.731c0,13.941-11.307,25.227-25.237,25.227s-25.237-11.296-25.237-25.227
	c0-13.931,11.307-25.237,25.237-25.237S151.989,408.789,151.989,422.731"/>
<path style="fill:#40596B;" d="M461.355,422.731c0,28.683-23.275,51.957-51.979,51.957c-28.683,0-51.947-23.275-51.947-51.957
	c0-28.683,23.264-51.968,51.947-51.968C438.08,370.763,461.355,394.037,461.355,422.731"/>
<path style="fill:#E8EAEA;" d="M434.624,422.731c0,13.941-11.296,25.227-25.227,25.227c-13.952,0-25.248-11.296-25.248-25.227
	c0-13.931,11.307-25.237,25.248-25.237C423.339,397.493,434.624,408.789,434.624,422.731"/>
<g>
</g>
<g>
</g>
<g>
</g>
<g>
</g>
<g>
</g>
<g>
</g>
<g>
</g>
<g>
</g>
<g>
</g>
<g>
</g>
<g>
</g>
<g>
</g>
<g>
</g>
<g>
</g>
<g>
</g>
</svg>
