<svg id="Capa_1" enable-background="new 0 0 512 512" height="512" viewBox="0 0 512 512" width="512" xmlns="http://www.w3.org/2000/svg"><g clip-rule="evenodd" fill-rule="evenodd"><path d="m186.976 442.963c102.955 0 186.947-83.99 186.947-186.945 0-102.982-83.992-186.973-186.947-186.973-102.984 0-186.976 83.99-186.976 186.972 0 102.955 83.992 186.946 186.976 186.946z" fill="#98e5fa"/><path d="m375.566 435.932c-65.764-37.19-109.645-104.06-109.645-180.368 0-75.799 43.342-142.299 108.397-179.66 15.932-9.155 13.353-9.155 29.282 0 65.058 37.361 108.4 103.861 108.4 179.66 0 76.507-44.08 143.49-110.099 180.652-10.148 5.698-16.27 5.415-26.335-.284z" fill="#66b394"/><path d="m376.474 74.657c13.579-7.88 11.963-7.455 27.128 1.247 65.056 37.361 108.398 103.861 108.398 179.66 0 76.507-44.08 143.49-110.099 180.652-9.837 5.527-15.874 5.442-25.428.227l.425-.227c66.02-37.162 110.1-104.146 110.1-180.652 0-75.799-43.343-142.299-108.398-179.66-.738-.425-1.447-.85-2.126-1.247z" fill="#5aa687"/><path d="m396.431 438.852c-5.302 2.013-9.724 1.984-14.939-.028v-40.054c-.029-.453-.029-.878 0-1.304v-49.833l-68.627-68.627c-2.92-2.919-2.92-7.682 0-10.602s7.682-2.92 10.602 0l58.025 58.025v-43.285c-.029-.425-.029-.851 0-1.275v-57.431l-37.022-37.02c-2.919-2.92-2.919-7.682 0-10.602 2.948-2.92 7.683-2.92 10.602 0l26.42 26.418v-57.515c0-4.139 3.345-7.483 7.483-7.483 4.111 0 7.456 3.345 7.456 7.483v74.948c.057.426.057.851 0 1.275v42.491l42.435-42.434c2.92-2.92 7.682-2.92 10.602 0s2.92 7.682 0 10.602l-53.036 53.037v58.223c.057.426.057.851 0 1.305v34.865l26.419-26.418c2.919-2.92 7.682-2.92 10.602 0 2.919 2.947 2.919 7.682 0 10.602l-37.021 37.02v37.617z" fill="#95d6a4"/><path d="m388.975 442.963c-2.523-1.219-5.018-2.494-7.483-3.77v-40.423c-.029-.453-.029-.878 0-1.304v-49.833l-68.627-68.627c-2.92-2.919-2.92-7.682 0-10.602s7.682-2.92 10.602 0l58.025 58.025v-43.285c-.029-.425-.029-.851 0-1.275v-57.431l-37.022-37.02c-2.919-2.92-2.919-7.682 0-10.602 2.948-2.92 7.683-2.92 10.602 0l26.42 26.418v-57.515c0-4.139 3.345-7.483 7.483-7.483 4.111 0 7.456 3.345 7.456 7.483v74.948c.057.426.057.851 0 1.275v42.491l42.435-42.434c2.92-2.92 7.682-2.92 10.602 0s2.92 7.682 0 10.602l-53.036 53.037v58.223c.057.426.057.851 0 1.305v34.865l26.419-26.418c2.919-2.92 7.682-2.92 10.602 0 2.919 2.947 2.919 7.682 0 10.602l-37.021 37.02v37.957c-2.468 1.276-4.934 2.552-7.457 3.771z" fill="#398766"/><path d="m132.436 333.205c0-56.749-53.547-21.09-74.042-43.285-18.341-19.842-20.948-42.207 6.406-54.396 38.722-17.291 32.542-23.754 31.408-66.926-1.162-43.738 39.97-17.83 59.16-46.006 10.517-15.478 1.304-33.762-9.184-49.097-83.651 18.624-146.184 93.26-146.184 182.522 0 75.289 44.533 140.202 108.682 169.824 1.332-14.57.312-29.396 1.729-31.38 20.92-29.366 22.025-22.648 22.025-61.256z" fill="#b3e59f"/><path d="m266.035 248.96c-31.691-.085-67.466 2.778-67.466 38.551 0 26.702-2.381 40.224 29.226 51.704 34.555 12.586 28.262 40.705 42.605 74.409.963 2.269 1.898 5.159 2.891 8.277 16.413-8.589 31.438-19.53 44.534-32.372-32.43-36.481-51.903-83.111-51.903-133.936 0-2.24.056-4.422.113-6.633z" fill="#b3e59f"/><path d="m64.801 235.523c38.722-17.291 32.542-23.754 31.408-66.926-1.162-43.738 39.97-17.83 59.16-46.006 10.517-15.478 1.304-33.762-9.184-49.097-5.273 1.19-10.488 2.579-15.59 4.195 5.045 11.48 6.774 23.414-.227 34.072-19.192 29.197-60.323 2.382-59.161 47.65 1.135 44.702 7.314 51.421-31.408 69.308-27.355 12.643-24.747 35.773-6.406 56.353 7.171 8.022 18.341 8.73 29.878 8.787-1.786-1.049-3.401-2.353-4.876-3.941-18.341-19.84-20.949-42.205 6.406-54.395zm67.635 97.682c0-33.137-18.227-34.781-37.503-34.809 7.512 4.535 12.501 13.549 12.501 31.492 0 39.997-1.105 33.053-22.025 63.468-.992 1.417-.794 9.27-1.049 18.964 7.738 5.074 15.846 9.609 24.321 13.521 1.332-14.57.312-29.396 1.729-31.38 20.921-29.366 22.026-22.648 22.026-61.256z" fill="#95d6a4"/><path d="m240.92 255.564c0 56.607 24.123 108 63.441 145.956 4.393-3.544 8.645-7.314 12.699-11.254.255-.227.51-.481.766-.737-.397-.453-.794-.906-1.191-1.389-31.721-36.255-50.712-82.375-50.712-132.576 0-2.211.027-4.422.113-6.604-8.306-.028-16.895.17-25.03 1.077-.058 1.842-.086 3.684-.086 5.527z" fill="#95d6a4"/><path d="m241.005 250.037c8.136-.907 16.725-1.105 25.03-1.077 1.587-48.048 20.607-92.041 51.393-126.879-4.309-4.195-8.844-8.192-13.55-11.991-37.73 36.68-61.371 85.777-62.873 139.947z" fill="#8bdef5"/></g></svg>