<svg id="Layer_1" enable-background="new 0 0 512 512" height="512" viewBox="0 0 512 512" width="512" xmlns="http://www.w3.org/2000/svg"><g><path d="m512 219.635v234.68c0 4.14-.59 8.15-1.7 11.94h-508.6c-1.11-3.79-1.7-7.8-1.7-11.94v-234.68c0-7.47 1.93-14.5 5.32-20.62l251.34 1.3 251.34 1.29c2.57 5.48 4 11.59 4 18.03z" fill="#fff16b"/><path d="m512 219.635v234.68c0 4.14-.59 8.15-1.7 11.94h-253.64v-265.94l251.34 1.29c2.57 5.48 4 11.59 4 18.03z" fill="#ffd845"/><path d="m508 201.605-82.93 80.82-168.41 54.1-167.28-53.45-84.06-84.06c7.28-13.17 21.31-22.1 37.39-22.1h426.58c17.11 0 31.91 10.12 38.71 24.69z" fill="#ffd845"/><path d="m508 201.605-82.93 80.82-168.41 54.1v-159.61h212.63c17.11 0 31.91 10.12 38.71 24.69z" fill="#ffb454"/><path d="m425.07 56.085v226.34l-86.3 84.1c-2.8 2.73-6.55 4.26-10.47 4.26h-145c-3.97 0-7.79-1.58-10.6-4.39l-83.32-83.32v-226.99c0-22.67 18.45-41.11 41.12-41.11h253.46c22.67 0 41.11 18.44 41.11 41.11z" fill="#ff7d47"/><path d="m425.07 56.085v226.34l-86.3 84.1c-2.8 2.73-6.55 4.26-10.47 4.26h-71.64v-355.81h127.3c22.67 0 41.11 18.44 41.11 41.11z" fill="#ff405c"/><path d="m321.41 209.065c5.86 5.86 5.86 15.36 0 21.22-2.92 2.92-6.76 4.39-10.6 4.39s-7.68-1.47-10.61-4.39l-43.54-43.55-43.55 43.55c-2.93 2.93-6.77 4.4-10.61 4.4s-7.67-1.47-10.6-4.4c-5.86-5.85-5.86-15.35 0-21.21l43.55-43.55-43.54-43.54c-5.86-5.86-5.86-15.35 0-21.21 5.85-5.86 15.35-5.86 21.21 0l43.54 43.54 43.55-43.55c5.86-5.86 15.36-5.86 21.21 0 5.86 5.86 5.86 15.35 0 21.21l-43.55 43.55z" fill="#fff"/><path d="m510.3 466.255c-5.18 17.76-21.6 30.77-41.01 30.77h-426.58c-19.41 0-35.83-13.01-41.01-30.77l245.67-172.73c2.78-1.95 6.05-2.86 9.29-2.72 2.8.13 5.57 1.03 7.97 2.72z" fill="#ffd845"/><path d="m300.2 230.285-43.54-43.55v-42.42l43.55-43.55c5.86-5.86 15.36-5.86 21.21 0 5.86 5.86 5.86 15.35 0 21.21l-43.55 43.55 43.54 43.54c5.86 5.86 5.86 15.36 0 21.22-2.92 2.92-6.76 4.39-10.6 4.39s-7.68-1.47-10.61-4.39z" fill="#d7ffff"/><path d="m510.3 466.255c-5.18 17.76-21.6 30.77-41.01 30.77h-212.63v-206.22c2.8.13 5.57 1.03 7.97 2.72z" fill="#ffb454"/></g></svg>