<svg id="Capa_1" enable-background="new 0 0 512 512" height="512" viewBox="0 0 512 512" width="512" xmlns="http://www.w3.org/2000/svg"><g><path d="m412.081 304.07h-141.081v-68.258c0-8.284-6.716-15-15-15s-15 6.716-15 15v68.258h-141.082c-8.284 0-15 6.716-15 15v80.532c0 8.284 6.716 15 15 15s15-6.716 15-15v-65.532h282.163v65.532c0 8.284 6.716 15 15 15s15-6.716 15-15v-80.532c0-8.284-6.716-15-15-15z" fill="#293f65"/><path d="m412.081 304.07h-141.081v-68.258c0-8.284-6.716-15-15-15v113.258h141.081v65.532c0 8.284 6.716 15 15 15s15-6.716 15-15v-80.532c0-8.284-6.716-15-15-15z" fill="#152133"/><path d="m430.433 136.228c-7.782-8.535-17.615-14.708-28.457-18.002-5.716-29.289-31.512-51.458-62.375-51.458-.085 0-.169 0-.254 0-3.592-16.052-11.744-30.752-23.745-42.474-16.039-15.666-37.206-24.294-59.602-24.294s-43.563 8.628-59.602 24.294c-12 11.722-20.153 26.421-23.745 42.474-30.947-.155-56.897 22.089-62.629 51.458-10.842 3.293-20.674 9.467-28.457 18.002-10.728 11.764-16.635 27.025-16.635 42.974 0 35.134 28.511 63.717 63.556 63.717h255.023c35.045 0 63.556-28.583 63.556-63.717 0-15.948-5.908-31.21-16.634-42.974z" fill="#fff5f5"/><g><g><path d="m99.919 392.958h-67.221c-8.284 0-15 6.716-15 15v89.042h82.221l12.221-20v-69.042z" fill="#3a5d7e"/><path d="m412.244 392.958h-67.221c-8.284 0-15 6.716-15 15v89.042h82.221l12.221-20v-69.042z" fill="#3a5d7e"/><g><path d="m184.837 512h-169.837c-8.284 0-15-6.716-15-15s6.716-15 15-15h169.837c8.284 0 15 6.716 15 15s-6.715 15-15 15z" fill="#cfcfe6"/></g></g><g><g><path d="m497 512h-169.837c-8.284 0-15-6.716-15-15s6.716-15 15-15h169.837c8.284 0 15 6.716 15 15s-6.716 15-15 15z" fill="#cfcfe6"/></g></g></g><path d="m401.976 118.226c-5.716-29.289-31.512-51.458-62.375-51.458-.085 0-.169 0-.254 0-3.592-16.052-11.744-30.752-23.745-42.474-16.039-15.666-37.206-24.294-59.602-24.294v242.919h127.512c35.045 0 63.556-28.583 63.556-63.717 0-15.948-5.908-31.21-16.635-42.974-7.783-8.535-17.616-14.708-28.457-18.002z" fill="#ece6f2"/><path d="m167.14 392.958h-67.221v104.042h82.221v-89.042c0-8.285-6.716-15-15-15z" fill="#293f65"/><path d="m184.837 482h-84.918v30h84.919c8.284 0 15-6.716 15-15s-6.716-15-15.001-15z" fill="#a3aacc"/><path d="m479.302 392.958h-67.059l-.161 104.042h82.221v-89.042c-.001-8.285-6.716-15-15.001-15z" fill="#293f65"/><path d="m497 482h-84.919v30h84.919c8.284 0 15-6.716 15-15s-6.716-15-15-15z" fill="#a3aacc"/></g></svg>