<svg id="Capa_1" enable-background="new 0 0 512 512" height="512" viewBox="0 0 512 512" width="512" xmlns="http://www.w3.org/2000/svg"><g><path d="m146.055 296.595 16.86 5.233 47.256 47.256 5.233 16.86-30.061 50.102c-2.343 3.905-7.732 4.568-10.952 1.348l-79.785-79.785c-3.22-3.22-2.557-8.609 1.348-10.952z" fill="#365e7d"/><path d="m192.145 404.706-6.805 11.341c-2.343 3.905-7.732 4.568-10.952 1.348l-79.785-79.785c-3.22-3.22-2.557-8.609 1.348-10.952l50.109-30.065 16.855 5.235-5.438 6.182-31.08 18.648c-3.905 2.343-4.568 7.732-1.348 10.952z" fill="#2b4d66"/><path d="m209.67 175.188-2.92 22.35-68.5 68.5-21.09 1.66-42.63 19.37-16.51 7.51c-2.66 1.21-5.79.64-7.85-1.42l-14.74-14.74c-2.73-2.73-2.73-7.17 0-9.9l85.66-85.66c1.2-1.19 2.79-1.92 4.48-2.03l30.26-2.03z" fill="#f25a74"/><path d="m60.93 273.468 13.6 13.6-16.51 7.51c-2.66 1.21-5.79.64-7.85-1.42l-14.74-14.74c-2.73-2.73-2.73-7.17 0-9.9l85.66-85.66c1.2-1.19 2.79-1.92 4.48-2.03l30.26-2.03z" fill="#e83d5a"/><path d="m233.58 476.564-14.736-14.736c-2.063-2.063-2.63-5.19-1.423-7.846l26.879-59.144 7.451-18.839 69-69 16.058-4.67-5.639 84.098c-.113 1.691-.836 3.283-2.035 4.481l-85.656 85.656c-2.733 2.733-7.165 2.733-9.899 0z" fill="#f25a74"/><path d="m336.804 302.326-2.182 32.638-59.877 59.877-28.883 63.551 7.896 7.896-10.273 10.273c-2.734 2.734-7.166 2.734-9.899 0l-14.739-14.739c-2.063-2.063-2.63-5.19-1.423-7.846l26.876-59.135 7.451-18.844 69-69z" fill="#e83d5a"/><path d="m512 57.848c0 26.41-6.26 52.47-18.24 75.97-.05.1-.1.2-.16.3-7.81 15.28-18.04 29.46-30.56 41.97l-126.236 126.236-22.229 1.67-.895 21.454-23.144 23.144-22.062 1.504-1.054 21.613-23.13 23.14-127.14-127.14 23.15-23.15 18.7-4.23 4.4-18.87 23.15-23.14 20.12-4.99 3-18.14 126.24-126.23c12.46-12.47 26.6-22.68 41.81-30.49.05-.03.1-.05.15-.08 26.35-13.49 55.93-19.78 85.63-18.12 13.68.76 27.38 3.21 40.81 7.42 5.17 16.489 7.69 33.389 7.69 50.159z" fill="#eaf6ff"/><path d="m463.5.268c-14.8 3.05-29.16 8.08-42.68 15.02-9.81 5.05-19.19 11.09-27.95 18.1-.3.24-.59.47-.88.71-4.49 3.63-231.72 230.42-231.72 230.42l-.02.01 107.17 107.18.01.01-23.14 23.13-127.14-127.14 23.15-23.15 18.7-4.23 4.4-18.87 23.15-23.14 20.12-4.99 3-18.14 126.24-126.23c12.46-12.47 26.6-22.68 41.81-30.49.05-.03.1-.05.15-.08 26.35-13.49 55.93-19.78 85.63-18.12z" fill="#d8ecfe"/><path d="m512 57.848c0 26.522-6.313 52.691-18.393 76.269-.003.001-.004.001-.007.001l-115.73-115.73c37.369-19.136 81.214-23.784 122.713-11.821 2.342.675 4.171 2.5 4.847 4.841 4.414 15.306 6.57 30.929 6.57 46.44z" fill="#f25a74"/><path d="m463.5.268c-14.8 3.05-29.16 8.08-42.68 15.02-9.81 5.05-19.19 11.09-27.95 18.1l-15-15c26.35-13.49 55.93-19.78 85.63-18.12z" fill="#e83d5a"/><path d="m409.93 134.768c0 8.37-3.19 16.73-9.58 23.11l-46.23 46.24c-3.93 3.93-8.62 6.65-13.6 8.15-11.17 3.4-23.81.68-32.64-8.15-12.76-12.77-12.76-33.47 0-46.24l46.24-46.23c8.83-8.83 21.45-11.56 32.62-8.17 4.98 1.51 9.67 4.23 13.61 8.17 6.39 6.39 9.58 14.75 9.58 23.12z" fill="#9bd8f9"/><path d="m327.36 158.698c-12.32 12.32-12.32 32.28 0 44.59l1.65 1.65c3.37 3.36 7.31 5.81 11.51 7.33-11.17 3.4-23.81.68-32.64-8.15-12.76-12.77-12.76-33.47 0-46.24l46.24-46.23c8.83-8.83 21.45-11.56 32.62-8.17-4.2 1.53-8.14 3.98-11.5 7.34z" fill="#73c3f9"/><path d="m125.522 280.243h179.801v32.666h-179.801z" fill="#f25a74" transform="matrix(.707 .707 -.707 .707 272.807 -65.462)"/><path d="m145.503 228.877h32.666v28.231h-32.666z" fill="#e83d5a" transform="matrix(.707 -.707 .707 .707 -124.421 185.605)"/><path d="m171.764 234.001h179.801v32.666h-179.801z" fill="#f25a74" transform="matrix(.707 .707 -.707 .707 253.652 -111.704)"/><path d="m191.74 182.629h32.666v28.231h-32.666z" fill="#e83d5a" transform="matrix(.707 -.707 .707 .707 -78.176 204.755)"/><g><g><g><path d="m7.612 511.998c-1.947 0-3.896-.743-5.383-2.229-2.972-2.973-2.972-7.792 0-10.765l92.465-92.465c2.973-2.971 7.792-2.971 10.765 0 2.972 2.973 2.972 7.792 0 10.765l-92.465 92.465c-1.486 1.486-3.435 2.229-5.382 2.229z" fill="#9bd8f9"/></g></g></g><g><g><g><path d="m7.612 465.766c-1.947 0-3.896-.743-5.383-2.229-2.972-2.973-2.972-7.792 0-10.765l46.232-46.233c2.972-2.971 7.791-2.972 10.765 0 2.972 2.973 2.972 7.792 0 10.765l-46.232 46.233c-1.486 1.486-3.434 2.229-5.382 2.229z" fill="#9bd8f9"/></g></g></g><g><g><g><path d="m52.22 510.374c-1.947 0-3.896-.743-5.383-2.229-2.972-2.973-2.972-7.792 0-10.765l46.232-46.232c2.973-2.971 7.792-2.971 10.765 0 2.972 2.973 2.972 7.792 0 10.765l-46.232 46.232c-1.486 1.485-3.434 2.229-5.382 2.229z" fill="#9bd8f9"/></g></g></g></g></svg>