<?xml version="1.0" encoding="iso-8859-1"?>
<!-- Generator: Adobe Illustrator 19.0.0, SVG Export Plug-In . SVG Version: 6.00 Build 0)  -->
<svg version="1.1" id="Capa_1" xmlns="http://www.w3.org/2000/svg" xmlns:xlink="http://www.w3.org/1999/xlink" x="0px" y="0px"
	 viewBox="0 0 468.293 468.293" style="enable-background:new 0 0 468.293 468.293;" xml:space="preserve">
<path style="fill:#44C4A1;" d="M303.638,468.293H164.655c-10.345,0-18.732-8.386-18.732-18.732V162.537
	c0-6.897,5.591-12.488,12.488-12.488h151.471c6.897,0,12.488,5.591,12.488,12.488v287.024
	C322.37,459.906,313.983,468.293,303.638,468.293z"/>
<path style="fill:#F6C358;" d="M291.609,109.334H176.683c-10.345,0-18.732,8.386-18.732,18.732v21.984h152.389v-21.984
	C310.341,117.72,301.954,109.334,291.609,109.334z"/>
<polygon style="fill:#E56353;" points="243.077,0 225.215,0 200.552,109.334 267.741,109.334 "/>
<path style="fill:#3EA69B;" d="M322.37,296.808H286.58c-5.595-23.807-26.919-41.551-52.434-41.551s-46.839,17.744-52.434,41.551
	h-35.789v24.726h35.789c5.595,23.807,26.919,41.551,52.434,41.551s46.839-17.744,52.434-41.551h35.789V296.808z"/>
<circle style="fill:#E1E6E9;" cx="234.146" cy="309.198" r="36.758"/>
<g>
</g>
<g>
</g>
<g>
</g>
<g>
</g>
<g>
</g>
<g>
</g>
<g>
</g>
<g>
</g>
<g>
</g>
<g>
</g>
<g>
</g>
<g>
</g>
<g>
</g>
<g>
</g>
<g>
</g>
</svg>
