<?xml version="1.0" encoding="iso-8859-1"?>
<!-- Generator: Adobe Illustrator 19.0.0, SVG Export Plug-In . SVG Version: 6.00 Build 0)  -->
<svg xmlns="http://www.w3.org/2000/svg" xmlns:xlink="http://www.w3.org/1999/xlink" version="1.1" id="Capa_1" x="0px" y="0px" viewBox="0 0 512 512" style="enable-background:new 0 0 512 512;" xml:space="preserve">
<polygon style="fill:#06F5DD;" points="400.225,61.811 400.225,419.284 338.414,450.189 338.414,30.905 "/>
<polygon style="fill:#8CFFF3;" points="369.32,30.905 369.32,450.189 111.775,419.284 111.775,61.811 "/>
<g>
	<path style="fill:#9F9F9F;" d="M369.32,419.284L338.414,512h30.905c16.998,0,30.905-13.907,30.905-30.905v-61.811H369.32z"/>
	<path style="fill:#9F9F9F;" d="M369.32,0h-30.905l30.905,61.811h30.905V30.905C400.225,13.907,386.318,0,369.32,0z"/>
</g>
<g>
	<path style="fill:#BFBFBF;" d="M369.32,419.284v61.811c0,16.998-13.907,30.905-30.905,30.905H142.68   c-16.998,0-30.905-13.907-30.905-30.905v-61.811H369.32z"/>
	<path style="fill:#BFBFBF;" d="M369.32,30.905v30.905H111.775V30.905C111.775,13.907,125.682,0,142.68,0h195.734   C355.412,0,369.32,13.907,369.32,30.905z"/>
</g>
<path style="fill:#808080;" d="M286.905,38.632H256c-4.267,0-7.726-3.459-7.726-7.726s3.459-7.726,7.726-7.726h30.905  c4.267,0,7.726,3.459,7.726,7.726S291.172,38.632,286.905,38.632z"/>
<circle style="fill:#FFFFFF;" cx="256" cy="465.642" r="15.453"/>
<circle style="fill:#808080;" cx="225.095" cy="30.905" r="7.726"/>
<g>
</g>
<g>
</g>
<g>
</g>
<g>
</g>
<g>
</g>
<g>
</g>
<g>
</g>
<g>
</g>
<g>
</g>
<g>
</g>
<g>
</g>
<g>
</g>
<g>
</g>
<g>
</g>
<g>
</g>
</svg>
