<svg height="512pt" viewBox="0 0 512 512" width="512pt" xmlns="http://www.w3.org/2000/svg"><path d="m41.5 433.699219h30v63.300781h-30zm0 0" fill="#b77445"/><path d="m56.5 433.699219h15v63.300781h-15zm0 0" fill="#a04010"/><path d="m113 281.960938v110.070312c0 31.148438-25.351562 56.5-56.5 56.5s-56.5-25.351562-56.5-56.5v-110.070312c0-31.152344 25.351562-56.5 56.5-56.5s56.5 25.347656 56.5 56.5zm0 0" fill="#ff7a53"/><path d="m113 281.960938v110.070312c0 31.148438-25.351562 56.5-56.5 56.5v-223.070312c31.148438 0 56.5 25.347656 56.5 56.5zm0 0" fill="#ff4f19"/><path d="m440.5 411h30v86h-30zm0 0" fill="#b77445"/><path d="m455.5 411h15v86h-15zm0 0" fill="#a04010"/><path d="m512 254.910156v110.070313c0 31.148437-25.351562 56.5-56.5 56.5s-56.5-25.351563-56.5-56.5v-110.070313c0-31.160156 25.351562-56.5 56.5-56.5s56.5 25.339844 56.5 56.5zm0 0" fill="#ff7a53"/><path d="m438.988281 161.359375v172.679687c0 40.25-32.738281 72.992188-72.988281 72.992188s-72.988281-32.742188-72.988281-72.992188v-172.679687c0-40.238281 32.738281-72.980469 72.988281-72.980469s72.988281 32.742188 72.988281 72.980469zm0 0" fill="#60d64d"/><path d="m438.988281 161.359375v172.679687c0 40.25-32.738281 72.992188-72.988281 72.992188v-318.652344c40.25 0 72.988281 32.742188 72.988281 72.980469zm0 0" fill="#00b563"/><path d="m221 126.878906v172.679688c0 40.25-32.738281 72.992187-72.988281 72.992187s-72.992188-32.742187-72.992188-72.992187v-172.679688c0-40.238281 32.742188-72.980468 72.992188-72.980468s72.988281 32.742187 72.988281 72.980468zm0 0" fill="#60d64d"/><path d="m221 126.878906v172.679688c0 40.25-32.738281 72.992187-72.988281 72.992187v-318.652343c40.25 0 72.988281 32.742187 72.988281 72.980468zm0 0" fill="#00b563"/><path d="m512 254.910156v110.070313c0 31.148437-25.351562 56.5-56.5 56.5v-223.070313c31.148438 0 56.5 25.339844 56.5 56.5zm0 0" fill="#ff4f19"/><path d="m351 300.648438h30v208.351562h-30zm0 0" fill="#b77445"/><path d="m366 300.648438h15v208.351562h-15zm0 0" fill="#a04010"/><path d="m133.011719 269h30v240h-30zm0 0" fill="#b77445"/><path d="m148.011719 269h15v240h-15zm0 0" fill="#a04010"/><path d="m331.808594 72.988281v186.730469c0 40.25-32.738282 72.992188-72.988282 72.992188h-5.640624c-40.25 0-72.988282-32.742188-72.988282-72.992188v-186.730469c0-40.25 32.738282-72.988281 72.988282-72.988281h5.640624c40.25 0 72.988282 32.738281 72.988282 72.988281zm0 0" fill="#c8fb78"/><path d="m258.820312 332.710938h-2.820312v-332.710938h2.820312c40.25 0 72.988282 32.738281 72.988282 72.988281v186.730469c0 40.25-32.738282 72.992188-72.988282 72.992188zm0 0" fill="#9ce78d"/><path d="m241 232h30v277h-30zm0 0" fill="#b77445"/><path d="m256 232h15v277h-15zm0 0" fill="#a04010"/><path d="m0 482h512v30h-512zm0 0" fill="#9ce78d"/><path d="m256 482h256v30h-256zm0 0" fill="#36cb8e"/></svg>