<svg id="Capa_1" enable-background="new 0 0 512 512" height="512" viewBox="0 0 512 512" width="512" xmlns="http://www.w3.org/2000/svg"><g><g><g><g><g><g><path d="m467 341h-422c-8.284 0-15-6.716-15-15v-250c0-24.813 20.187-45 45-45h362c24.813 0 45 20.187 45 45v250c0 8.284-6.716 15-15 15z" fill="#55696e"/><path d="m437 31h-181v310h211c8.284 0 15-6.716 15-15v-250c0-24.813-20.187-45-45-45z" fill="#3f4a4a"/><g><path d="m60 341h392v-265c0-8.271-6.729-15-15-15h-362c-8.271 0-15 6.729-15 15z" fill="#fff5f5"/></g><path d="m437 61h-181v280h196v-265c0-8.271-6.729-15-15-15z" fill="#f5f0eb"/></g><g><path d="m30 323.28-29.045 77.453c-.632 1.684-.955 3.468-.955 5.267 0 8.284 6.716 15 15 15h482c8.284 0 15-6.716 15-15 0-1.799-.323-3.583-.955-5.267l-29.045-77.453z" fill="#738c96"/></g><path d="m482 323.28h-226v97.72h241c8.284 0 15-6.716 15-15 0-1.799-.323-3.583-.955-5.267z" fill="#55696e"/><path d="m0 436c0 24.813 20.187 45 45 45h422c24.813 0 45-20.187 45-45v-30h-512z" fill="#55696e"/><path d="m256 481h211c24.813 0 45-20.187 45-45v-30h-256z" fill="#3f4a4a"/></g></g></g></g><g><g><path d="m226 271h-120c-8.284 0-15-6.716-15-15v-20c0-41.355 33.645-75 75-75s75 33.645 75 75v20c0 8.284-6.716 15-15 15z" fill="#ff9100"/></g><g><path d="m166 186c-26.192 0-47.5-21.308-47.5-47.5s21.308-47.5 47.5-47.5 47.5 21.308 47.5 47.5-21.308 47.5-47.5 47.5z" fill="#ffe4c2"/></g><path d="m393.535 175.745c5.588-7.756 8.894-17.262 8.894-27.531 0-26.034-21.181-47.214-47.215-47.214h-40.666c-8.284 0-15 6.716-15 15v140c0 3.99 1.59 7.815 4.417 10.63 2.812 2.799 6.617 4.37 10.583 4.37h.066c.374-.002 37.532-.167 47.702-.167 29.05 0 52.684-23.634 52.684-52.684 0-17.372-8.457-32.802-21.465-42.404zm-38.321-44.745c9.492 0 17.215 7.722 17.215 17.214s-7.723 17.214-17.215 17.214c-2.987 0-25.666.038-25.666.038v-34.466zm7.102 109.833c-5.967 0-21.105.056-32.769.103v-45.429c3.536-.014 32.769-.042 32.769-.042 12.508 0 22.684 10.176 22.684 22.684s-10.176 22.684-22.684 22.684z" fill="#7ed8f7"/></g></g></svg>