<svg id="Capa_1" enable-background="new 0 0 512 512" height="512" viewBox="0 0 512 512" width="512" xmlns="http://www.w3.org/2000/svg"><g><path d="m391.597 462.979v-401.584c0-10.721-8.691-19.412-19.412-19.412h-312.709c-10.721 0-19.412 8.691-19.412 19.412v401.584c0 10.721 8.691 19.412 19.412 19.412h312.709c10.72 0 19.412-8.691 19.412-19.412z" fill="#e28086"/><path d="m69.182 448.419v-372.465c0-2.68 2.173-4.853 4.853-4.853h286.51c2.68 0 4.853 2.173 4.853 4.853v372.466c0 2.68-2.173 4.853-4.853 4.853h-286.51c-2.68-.001-4.853-2.173-4.853-4.854z" fill="#e7ecf6"/><g><path d="m312.514 176.204h-190.448c-4.268 0-7.726-3.459-7.726-7.726 0-4.268 3.459-7.726 7.726-7.726h190.448c4.268 0 7.726 3.459 7.726 7.726s-3.458 7.726-7.726 7.726z" fill="#407093"/></g><g><path d="m312.514 232.175h-190.448c-4.268 0-7.726-3.459-7.726-7.726 0-4.268 3.459-7.726 7.726-7.726h190.448c4.268 0 7.726 3.459 7.726 7.726s-3.458 7.726-7.726 7.726z" fill="#407093"/></g><g><path d="m312.514 288.145h-190.448c-4.268 0-7.726-3.459-7.726-7.726s3.459-7.726 7.726-7.726h190.448c4.268 0 7.726 3.459 7.726 7.726s-3.458 7.726-7.726 7.726z" fill="#407093"/></g><path d="m237.328 0h-42.995c-11.443 0-20.72 9.276-20.72 20.72v38.487h84.434v-38.487c0-11.444-9.276-20.72-20.719-20.72z" fill="#365e7d"/><path d="m240.248 0h-29.124c11.443 0 20.72 9.276 20.72 20.72v38.487h29.124v-38.487c0-11.444-9.277-20.72-20.72-20.72z" fill="#2b4d66"/><path d="m309.594 96.095v-57.756c0-4.825-3.911-8.736-8.736-8.736h-170.056c-4.824 0-8.735 3.911-8.735 8.736v57.756c0 4.824 3.911 8.735 8.735 8.735h170.056c4.824 0 8.736-3.911 8.736-8.735z" fill="#407093"/><path d="m375.105 41.982h-29.125c10.721 0 19.412 8.691 19.412 19.412v401.584c0 10.721-8.691 19.412-19.412 19.412h29.124c10.721 0 19.412-8.691 19.412-19.412v-401.583c.001-10.721-8.69-19.413-19.411-19.413z" fill="#dd636e"/><path d="m360.546 71.101h-29.125c2.68 0 4.853 2.173 4.853 4.853v372.466c0 2.68-2.173 4.853-4.853 4.853h29.125c2.68 0 4.853-2.173 4.853-4.853v-372.466c-.001-2.681-2.173-4.853-4.853-4.853z" fill="#d8e2f1"/><path d="m303.778 29.603h-29.124c4.824 0 8.735 3.911 8.735 8.736v57.756c0 4.824-3.911 8.735-8.735 8.735h29.124c4.824 0 8.735-3.911 8.735-8.735v-57.756c.001-4.825-3.91-8.736-8.735-8.736z" fill="#365e7d"/><ellipse cx="363.938" cy="405.462" fill="#ecbe6b" rx="105.078" ry="106.519"/><path d="m365.398 298.924c-4.45 0-8.834.277-13.141.807 52.639 6.476 93.397 51.342 93.397 105.731 0 54.39-40.758 99.255-93.397 105.731 4.307.53 8.691.807 13.141.807 58.839 0 106.538-47.699 106.538-106.538s-47.698-106.538-106.538-106.538z" fill="#eab14d"/><g><path d="m365.199 465.814c-4.268 0-7.726-3.459-7.726-7.726v-83.96c0-4.268 3.459-7.726 7.726-7.726s7.726 3.459 7.726 7.726v83.96c.001 4.267-3.458 7.726-7.726 7.726z" fill="#e7ecf6"/></g><circle cx="365.199" cy="346.574" fill="#e7ecf6" r="7.726"/></g></svg>