<svg height="512pt" viewBox="-76 0 512 512" width="512pt" xmlns="http://www.w3.org/2000/svg"><path d="m281.609375 458.601562 78.109375-56.28125v-387.320312c0-8.28125-6.71875-15-15-15h-289.847656c-30.261719 0-54.871094 24.609375-54.871094 54.871094v402.289062c0 .484375.0234375.960938.0351562 1.441406zm0 0" fill="#ff7816"/><path d="m0 415.101562v42.058594.015625c0 .789063.660156 1.425781 1.453125 1.425781h92.972656v-458.601562h-39.554687c-30.304688 0-54.871094 24.566406-54.871094 54.871094z" fill="#68544f"/><path d="m344.71875 0h-125.148438v458.601562h62.039063l78.109375-56.28125v-387.320312c0-8.28125-6.71875-15-15-15zm0 0" fill="#ff4b00"/><path d="m264.902344 179.660156h-90.660156c-8.28125 0-15 6.71875-15 15v34.242188c0 28.082031 19.296874 51.746094 45.328124 58.429687v52.039063h-8.75c-8.285156 0-15 6.71875-15 15 0 8.285156 6.714844 15 15 15h47.503907c8.285156 0 15-6.714844 15-15 0-8.28125-6.714844-15-15-15h-8.753907v-52.039063c26.035157-6.683593 45.332032-30.347656 45.332032-58.429687v-34.242188c0-8.28125-6.714844-15-15-15zm0 0" fill="#a8d3d8"/><path d="m264.902344 179.660156h-45.332032v189.710938h23.753907c8.285156 0 15-6.714844 15-15 0-8.28125-6.714844-15-15-15h-8.753907v-52.039063c26.035157-6.683593 45.332032-30.347656 45.332032-58.429687v-34.242188c0-8.28125-6.714844-15-15-15zm0 0" fill="#8ebac5"/><path d="m54.839844 402.320312c-30.238282 0-54.8281252 24.589844-54.839844 54.828126v.011718c0 30.238282 24.601562 54.839844 54.839844 54.839844h289.878906c8.28125 0 15-6.71875 15-15v-94.679688zm0 0" fill="#faecd8"/><path d="m219.570312 402.320312v109.679688h125.148438c8.28125 0 15-6.71875 15-15v-94.679688zm0 0" fill="#f3e1c7"/></svg>