<svg id="Capa_1" enable-background="new 0 0 512 512" height="512" viewBox="0 0 512 512" width="512" xmlns="http://www.w3.org/2000/svg"><g fill="#c9e2e7"><path d="m458.393 57.723c-2.988-2.354-6.573-3.598-10.368-3.598-5.171 0-9.971 2.325-13.168 6.38l-69.446 88.066 26.318 20.754 69.446-88.066c5.723-7.256 4.474-17.815-2.782-23.536z"/><path d="m53.607 57.723c2.988-2.354 6.573-3.598 10.368-3.598 5.17 0 9.971 2.325 13.168 6.38l69.446 88.066-26.318 20.754-69.446-88.066c-5.723-7.256-4.474-17.815 2.782-23.536z"/><path d="m93.452 508.94c-8.167-5.365-10.796-16.228-5.986-24.731l60.64-107.224 44.745 29.393-74.326 98.234c-6.065 8.015-17.064 9.589-25.073 4.328z"/><path d="m393.476 504.612-74.326-98.234 44.745-29.393 60.64 107.224c4.81 8.503 2.181 19.366-5.986 24.731-7.99 5.248-18.997 3.702-25.073-4.328z"/></g><circle cx="256" cy="294.389" fill="#fa4954" r="201.577"/><circle cx="256" cy="294.389" fill="#f1faff" r="155.965"/><path d="m256 138.425c-6.175 0-12.263.371-18.251 1.069 77.535 9.039 137.713 74.934 137.713 154.896s-60.178 145.857-137.713 154.896c5.988.698 12.076 1.069 18.251 1.069 86.137 0 155.965-69.828 155.965-155.965s-69.828-155.965-155.965-155.965z" fill="#c7eefb"/><path d="m255.925 184.173c-4.256 0-7.705-3.449-7.705-7.705v-5.813c0-4.256 3.449-7.705 7.705-7.705s7.705 3.449 7.705 7.705v5.813c-.001 4.256-3.45 7.705-7.705 7.705z" fill="#0e80ac"/><path d="m255.925 425.635c-4.256 0-7.705-3.449-7.705-7.705v-5.813c0-4.256 3.449-7.705 7.705-7.705s7.705 3.449 7.705 7.705v5.813c-.001 4.255-3.45 7.705-7.705 7.705z" fill="#0e80ac"/><path d="m343.35 389.423c-1.971 0-3.944-.752-5.448-2.256l-11.067-11.067c-3.009-3.01-3.009-7.887 0-10.897 3.01-3.008 7.887-3.008 10.897 0l11.066 11.066c3.009 3.01 3.009 7.887 0 10.897-1.505 1.504-3.477 2.257-5.448 2.257z" fill="#a8d0d5"/><path d="m179.566 225.639c-1.971 0-3.944-.752-5.448-2.256l-11.066-11.066c-3.009-3.01-3.009-7.887 0-10.897 3.01-3.008 7.887-3.008 10.897 0l11.066 11.066c3.009 3.01 3.009 7.887 0 10.897-1.505 1.504-3.477 2.256-5.449 2.256z" fill="#a8d0d5"/><path d="m332.283 225.639c-1.971 0-3.944-.752-5.448-2.256-3.009-3.01-3.009-7.887 0-10.897l11.066-11.066c3.01-3.008 7.887-3.008 10.897 0 3.009 3.01 3.009 7.887 0 10.897l-11.066 11.066c-1.505 1.504-3.477 2.256-5.449 2.256z" fill="#a8d0d5"/><path d="m168.5 389.423c-1.971 0-3.944-.752-5.448-2.256-3.009-3.01-3.009-7.887 0-10.897l11.066-11.066c3.01-3.008 7.887-3.008 10.897 0 3.009 3.01 3.009 7.887 0 10.897l-11.066 11.066c-1.505 1.503-3.478 2.256-5.449 2.256z" fill="#a8d0d5"/><path d="m379.563 301.998h-5.813c-4.256 0-7.705-3.449-7.705-7.705s3.449-7.705 7.705-7.705h5.813c4.256 0 7.705 3.449 7.705 7.705-.001 4.256-3.45 7.705-7.705 7.705z" fill="#0e80ac"/><path d="m138.101 301.998h-5.813c-4.256 0-7.705-3.449-7.705-7.705s3.449-7.705 7.705-7.705h5.813c4.256 0 7.705 3.449 7.705 7.705-.001 4.256-3.45 7.705-7.705 7.705z" fill="#0e80ac"/><path d="m321.03 329.496c-1.075 0-2.169-.227-3.211-.705l-65.035-29.874c-2.735-1.257-4.488-3.991-4.488-7.001v-85.047c0-4.256 3.449-7.705 7.705-7.705s7.705 3.449 7.705 7.705v80.107l60.547 27.812c3.866 1.777 5.561 6.35 3.785 10.218-1.299 2.823-4.09 4.49-7.008 4.49z" fill="#557981"/><circle cx="256" cy="294.389" fill="#fd7e42" r="20.694"/><path d="m436.082 109.276c-1.674 0-3.36-.543-4.775-1.662l-43.276-34.235c-16.364-12.945-29.918-28.692-40.283-46.802-3.943-6.889-11.322-11.168-19.26-11.168h-146.888c-7.936 0-15.316 4.28-19.26 11.168-10.365 18.11-23.919 33.856-40.283 46.802l-43.275 34.235c-3.337 2.639-8.183 2.075-10.823-1.262-2.64-3.338-2.075-8.183 1.262-10.823l43.275-34.235c14.815-11.721 27.086-25.976 36.471-42.372 6.681-11.672 19.185-18.922 32.633-18.922h146.889c13.449 0 25.953 7.251 32.633 18.923 9.384 16.395 21.654 30.651 36.47 42.372l43.276 34.235c3.337 2.639 3.902 7.485 1.262 10.823-1.521 1.921-3.773 2.923-6.048 2.923z" fill="#a8d0d5"/><path d="m471.202 116.551-76.558-60.371c-25.369-20.005-62.152-15.657-82.158 9.712-6.76 8.572-5.29 21.001 3.281 27.76l137.386 108.339c8.572 6.76 21 5.29 27.76-3.281 20.006-25.37 15.658-62.153-9.711-82.159z" fill="#fb636f"/><path d="m471.202 116.551-9.252-7.296c12.107 16.022 12.423 38.773-.593 55.28l-21.357 27.083 13.153 10.372c8.572 6.76 21.001 5.29 27.76-3.282 20.006-25.368 15.658-62.151-9.711-82.157z" fill="#fa4954"/><path d="m40.798 116.551 76.558-60.372c25.369-20.005 62.152-15.657 82.158 9.712 6.76 8.572 5.29 21.001-3.281 27.76l-137.386 108.34c-8.572 6.76-21.001 5.29-27.76-3.281-20.006-25.37-15.658-62.153 9.711-82.159z" fill="#fb636f"/><path d="m199.513 65.892c-20.005-25.369-56.789-29.717-82.158-9.712l-10.932 8.621c18.124-7.779 39.899-2.817 52.694 13.408l21.739 27.568 15.375-12.125c8.573-6.76 10.042-19.188 3.282-27.76z" fill="#fa4954"/></svg>