<svg id="Capa_1" enable-background="new 0 0 512 512" height="512" viewBox="0 0 512 512" width="512" xmlns="http://www.w3.org/2000/svg"><g><g><path d="m211 45v30c0 8.284 6.716 15 15 15s15-6.716 15-15v-30l-15-10z" fill="#beebfa"/><path d="m351 45v30c0 8.284 6.716 15 15 15s15-6.716 15-15v-30l-15-10z" fill="#7ed8f7"/><path d="m101 45v30c0 8.284-6.716 15-15 15s-15-6.716-15-15v-30l17-10z" fill="#beebfa"/><g><path d="m512 105c0-24.853-20.147-45-45-45h-422c-24.853 0-45 20.147-45 45v82c0 8.284 6.716 15 15 15h482c8.284 0 15-6.716 15-15z" fill="#ff9100"/><path d="m467 60h-211v142h241c8.284 0 15-6.716 15-15v-82c0-24.853-20.147-45-45-45z" fill="#ff6426"/><path d="m0 187v280c0 24.813 20.187 45 45 45h422c24.813 0 45-20.187 45-45v-280z" fill="#fff5f5"/><path d="m256 512h211c24.813 0 45-20.187 45-45v-280h-256z" fill="#f5f0eb"/></g><path d="m256 0c-24.813 0-45 20.187-45 45h30c0-8.271 6.729-15 15-15s15 6.729 15 15v60c0 8.271-6.729 15-15 15-8.284 0-15 6.716-15 15s6.716 15 15 15c24.813 0 45-20.187 45-45v-60c0-24.813-20.187-45-45-45z" fill="#beebfa"/><path d="m271 45v60c0 8.271-6.729 15-15 15v30c24.813 0 45-20.187 45-45v-60c0-24.813-20.187-45-45-45v30c8.271 0 15 6.729 15 15z" fill="#7ed8f7"/><path d="m396 0c-24.813 0-45 20.187-45 45h30c0-8.271 6.729-15 15-15s15 6.729 15 15v60c0 8.271-6.729 15-15 15-8.284 0-15 6.716-15 15s6.716 15 15 15c24.813 0 45-20.187 45-45v-60c0-24.813-20.187-45-45-45z" fill="#7ed8f7"/><path d="m71 45c0-24.813 20.187-45 45-45s45 20.187 45 45v60c0 24.813-20.187 45-45 45-8.284 0-15-6.716-15-15s6.716-15 15-15c8.271 0 15-6.729 15-15v-60c0-8.271-6.729-15-15-15s-15 6.729-15 15z" fill="#beebfa"/><g fill="#dcd2cd"><path d="m436 297h-100c-8.284 0-15-6.716-15-15s6.716-15 15-15h100c8.284 0 15 6.716 15 15s-6.716 15-15 15z"/><path d="m436 357h-100c-8.284 0-15-6.716-15-15s6.716-15 15-15h100c8.284 0 15 6.716 15 15s-6.716 15-15 15z"/><path d="m436 417h-100c-8.284 0-15-6.716-15-15s6.716-15 15-15h100c8.284 0 15 6.716 15 15s-6.716 15-15 15z"/></g></g><circle cx="171" cy="342" fill="#fff79f" r="115"/><path d="m171 227v230c63.411 0 115-51.589 115-115s-51.589-115-115-115z" fill="#ffde55"/><circle cx="171" cy="342" fill="#ffde55" r="85"/><path d="m171 257v170c46.869 0 85-38.131 85-85s-38.131-85-85-85z" fill="#eebf00"/><path d="m183.156 334.391c-1.726-.61-3.488-1.246-5.248-1.906v-29.871c3.907 1.066 5.897 3.035 6.034 3.177 2.725 3.094 7.442 3.408 10.554.696 3.123-2.721 3.449-7.458.728-10.582-2.839-3.258-8.815-7.366-17.316-8.605v-5.3c0-4.142-3.358-7.5-7.5-7.5s-7.5 3.358-7.5 7.5v6.172c-.777.191-1.562.398-2.361.639-9.775 2.944-17.078 11.3-19.058 21.807-1.811 9.608 1.287 18.889 8.084 24.221 3.417 2.68 7.629 5.135 13.334 7.708v38.095c-4.648-.461-7.831-1.773-13.063-5.195-3.466-2.268-8.115-1.297-10.382 2.17-2.268 3.466-1.296 8.115 2.17 10.382 8.307 5.435 14.073 7.184 21.275 7.684v6.317c0 4.142 3.358 7.5 7.5 7.5s7.5-3.358 7.5-7.5v-6.992c14.257-3.242 23.411-15.252 25.402-27.097 2.545-15.136-5.365-28.293-20.153-33.52zm-24.325-11.355c-2.338-1.834-3.359-5.618-2.601-9.64.637-3.382 2.72-7.385 6.678-9.424v21.772c-1.509-.876-2.89-1.777-4.077-2.708zm29.687 42.387c-.913 5.428-4.519 11.165-10.61 13.861v-30.84c.085.03.164.059.249.089 11.561 4.087 10.853 13.961 10.361 16.89z" fill="#fff79f"/><path d="m183.156 334.391c-1.726-.61-3.488-1.246-5.248-1.906v-29.871c3.907 1.066 5.897 3.035 6.034 3.177 2.725 3.094 7.442 3.408 10.554.696 3.123-2.721 3.449-7.458.728-10.582-2.839-3.258-8.815-7.366-17.316-8.605v-5.3c0-3.942-3.044-7.168-6.908-7.47v134.94c3.865-.303 6.908-3.528 6.908-7.47v-6.992c14.257-3.242 23.411-15.252 25.402-27.097 2.544-15.136-5.366-28.293-20.154-33.52zm5.362 31.032c-.913 5.428-4.519 11.165-10.61 13.861v-30.84c.085.03.164.059.249.089 11.561 4.087 10.853 13.961 10.361 16.89z" fill="#ffde55"/></g></svg>