<?xml version="1.0" encoding="iso-8859-1"?>
<!-- Generator: Adobe Illustrator 19.0.0, SVG Export Plug-In . SVG Version: 6.00 Build 0)  -->
<svg version="1.1" id="Capa_1" xmlns="http://www.w3.org/2000/svg" xmlns:xlink="http://www.w3.org/1999/xlink" x="0px" y="0px"
	 viewBox="0 0 512 512" style="enable-background:new 0 0 512 512;" xml:space="preserve">
<path style="fill:#FFD15C;" d="M330.667,165.333c0,91.317-74.027,165.333-165.333,165.333C74.016,330.667,0,256.651,0,165.333
	S74.016,0,165.333,0C256.64,0,330.667,74.016,330.667,165.333"/>
<path style="fill:#F8B64C;" d="M293.141,165.333c0,70.581-57.227,127.808-127.808,127.808c-70.592,0-127.808-57.227-127.808-127.808
	S94.741,37.525,165.333,37.525C235.915,37.525,293.141,94.752,293.141,165.333"/>
<g>
	<path style="fill:#FFD15C;" d="M157.397,244.171v-13.984c-16.235-2.56-31.168-9.899-44.853-22.037l17.835-21.643
		c9.963,8.683,18.955,14.251,27.019,16.672v-28.544c-13.419-3.456-23.264-8.085-29.525-13.899
		c-6.251-5.792-9.387-14.165-9.387-25.088c0-10.933,3.584-19.936,10.72-27.019c7.157-7.083,16.544-11.339,28.192-12.725v-9.408
		h20.288v9.771c12.768,1.792,25.483,7.083,38.133,15.893l-15.723,22.603c-8.043-5.749-15.52-9.557-22.421-11.477v27.584
		c13.792,3.584,23.979,8.352,30.549,14.357s9.877,14.496,9.877,25.504c0,10.976-3.68,20.043-11.029,27.189
		c-7.339,7.168-17.12,11.435-29.397,12.832v13.419L157.397,244.171L157.397,244.171z M157.397,122.517
		c-5.515,1.92-8.256,5.419-8.256,10.517c0,5.12,2.752,9.024,8.256,11.691V122.517z M187.456,192.245
		c0-2.667-0.704-4.896-2.101-6.688c-1.408-1.813-3.957-3.456-7.669-5.003v23.563C184.213,202.08,187.456,198.123,187.456,192.245"/>
	<path style="fill:#FFD15C;" d="M512,346.667C512,437.984,437.973,512,346.667,512c-91.317,0-165.333-74.016-165.333-165.333
		s74.016-165.333,165.333-165.333C437.973,181.333,512,255.349,512,346.667"/>
</g>
<path style="fill:#F8B64C;" d="M474.475,346.667c0,70.581-57.227,127.808-127.808,127.808c-70.592,0-127.808-57.227-127.808-127.808
	s57.216-127.808,127.808-127.808C417.248,218.859,474.475,276.085,474.475,346.667"/>
<path style="fill:#FFD15C;" d="M275.957,341.749v-15.627h18.016c3.723-14.123,10.816-25.419,21.28-33.92
	c10.464-8.48,23.2-12.725,38.176-12.725c18.603,0,34.517,7.52,47.776,22.496l-16.533,21.547
	c-9.056-11.019-19.701-16.523-31.968-16.523c-13.867,0-23.477,6.379-28.8,19.125h43.307v15.627h-46.667
	c-0.107,1.248-0.181,3.083-0.181,5.557c0,2.475,0.075,4.288,0.181,5.397h46.667v15.627h-42.379
	c2.976,5.813,7.029,10.293,12.171,13.376c5.141,3.083,10.816,4.651,17.013,4.651c12.256,0,22.304-4.896,30.112-14.688l17.088,18.955
	c-6.688,7.787-14.4,13.621-23.125,17.461c-8.725,3.851-17.451,5.771-26.123,5.771c-14.005,0-26.208-4.107-36.608-12.352
	c-10.421-8.245-17.547-19.296-21.376-33.163h-18.016v-15.627h15.605c-0.128-1.109-0.192-2.912-0.192-5.397s0.064-4.309,0.192-5.557
	h-15.616V341.749z"/>
<g>
</g>
<g>
</g>
<g>
</g>
<g>
</g>
<g>
</g>
<g>
</g>
<g>
</g>
<g>
</g>
<g>
</g>
<g>
</g>
<g>
</g>
<g>
</g>
<g>
</g>
<g>
</g>
<g>
</g>
</svg>
