<svg id="Capa_1" enable-background="new 0 0 512 512" height="512" viewBox="0 0 512 512" width="512" xmlns="http://www.w3.org/2000/svg"><g><path d="m205.986 174.872c-4.468 0-8.702-1.991-11.552-5.432l-120-144.872c-3.708-4.476-4.496-10.691-2.022-15.951 2.472-5.26 7.761-8.617 13.574-8.617h100c4.468 0 8.702 1.991 11.552 5.432l70 84.509c4.598 5.551 4.598 13.586 0 19.137l-50 60.363c-2.85 3.44-7.084 5.431-11.552 5.431z" fill="#64c83c"/><path d="m336 512h-160c-5.359 0-10.311-2.859-12.99-7.5l-80-138.564c-2.68-4.641-2.68-10.359 0-15l80-138.563c2.68-4.641 7.631-7.5 12.99-7.5h160c5.359 0 10.311 2.859 12.99 7.5l80 138.563c2.68 4.641 2.68 10.359 0 15l-80 138.564c-2.679 4.641-7.631 7.5-12.99 7.5z" fill="#bedceb"/><path d="m348.99 504.5 80-138.564c2.68-4.641 2.68-10.359 0-15l-80-138.563c-2.68-4.641-7.631-7.5-12.99-7.5h-80v307.127h80c5.359 0 10.311-2.859 12.99-7.5z" fill="#a5bfce"/><path d="m336 234.872h-160c-24.813 0-45-20.187-45-45s20.187-45 45-45h160c24.813 0 45 20.187 45 45s-20.187 45-45 45zm-160-60c-8.271 0-15 6.729-15 15s6.729 15 15 15h160c8.271 0 15-6.729 15-15s-6.729-15-15-15z" fill="#dcf0ff"/><path d="m336 144.872h-80v30h80c8.271 0 15 6.729 15 15s-6.729 15-15 15h-80v30h80c24.813 0 45-20.187 45-45s-20.187-45-45-45z" fill="#bedceb"/><path d="m313.039 174.872h-138.955l140.35-169.441c2.85-3.44 7.085-5.431 11.552-5.431h100c12.697 0 19.651 14.791 11.552 24.569z" fill="#85e65a"/><path d="m314.434 5.431-58.434 70.546v98.895h57.039l124.499-150.303c8.099-9.778 1.145-24.569-11.552-24.569h-100c-4.467 0-8.702 1.991-11.552 5.431z" fill="#64c83c"/><path d="m305.44 448.085c-2.388 0-4.783-.569-6.979-1.723l-42.461-22.325-42.462 22.325c-5.057 2.656-11.179 2.214-15.797-1.142-4.619-3.356-6.933-9.044-5.968-14.671l8.109-47.283-34.352-33.486c-4.089-3.985-5.561-9.946-3.796-15.377 1.765-5.43 6.458-9.388 12.108-10.208l47.475-6.898 21.231-43.021c2.527-5.12 7.741-8.361 13.451-8.361s10.924 3.241 13.451 8.361l21.231 43.021 47.475 6.898c5.65.82 10.344 4.778 12.108 10.208 1.765 5.431.293 11.392-3.796 15.377l-34.353 33.486 8.109 47.283c.965 5.627-1.349 11.314-5.968 14.671-2.61 1.899-5.705 2.865-8.816 2.865z" fill="#dcf0ff"/><path d="m350.266 334.403c-1.765-5.43-6.458-9.388-12.108-10.208l-47.475-6.898-21.231-43.021c-2.527-5.12-7.741-8.361-13.451-8.361v158.122l42.462 22.325c2.195 1.153 4.591 1.723 6.979 1.723 3.11 0 6.206-.966 8.818-2.864 4.619-3.356 6.933-9.044 5.968-14.671l-8.109-47.283 34.353-33.486c4.087-3.986 5.558-9.947 3.794-15.378z" fill="#bedceb"/></g></svg>