<svg id="Capa_1" enable-background="new 0 0 512 512" height="512" viewBox="0 0 512 512" width="512" xmlns="http://www.w3.org/2000/svg"><g><g><g><g><path d="m119.467 290.133v168.798c0 2.356-1.91 4.267-4.267 4.267h-12.224c-3.617 0-5.594 4.219-3.278 6.998l33.557 40.269c1.706 2.047 4.85 2.047 6.555 0l33.557-40.269c2.316-2.779.34-6.998-3.278-6.998h-12.224c-2.356 0-4.267-1.91-4.267-4.267v-168.798z" fill="#ff4f75"/></g></g></g><path d="m170.09 463.198h-12.224c-2.356 0-4.267-1.91-4.267-4.267v-168.798h-23.694v168.798c0 2.357 1.91 4.267 4.267 4.267h12.224c3.618 0 5.594 4.219 3.278 6.998l-24.988 29.985 8.569 10.283c1.706 2.047 4.85 2.047 6.556 0l33.557-40.269c2.316-2.778.34-6.997-3.278-6.997z" fill="#f71e78"/><path d="m179.733 307.2h-86.4c-4.418 0-8-3.582-8-8v-18.133c0-4.418 3.582-8 8-8h86.4c4.418 0 8 3.582 8 8v18.133c0 4.418-3.581 8-8 8z" fill="#abd5ed"/><g><ellipse cx="136.533" cy="119.467" fill="#ffcc4a" rx="119.467" ry="119.467" transform="matrix(.707 -.707 .707 .707 -44.486 131.535)"/><path d="m136.533 0c-3.998 0-7.95.2-11.847.584 60.418 5.948 107.62 56.901 107.62 118.883 0 61.981-47.202 112.934-107.62 118.882 3.897.384 7.849.584 11.847.584 65.98 0 119.467-53.487 119.467-119.467 0-65.979-53.487-119.466-119.467-119.466z" fill="#ffb54c"/><g fill="#ffe278"><path d="m136.533 0c-2.596 0-5.171.092-7.726.255v33.878c0 4.267 3.459 7.726 7.726 7.726s7.726-3.459 7.726-7.726v-33.878c-2.555-.163-5.129-.255-7.726-.255z"/><path d="m46.775 40.635 23.955 23.955c1.508 1.509 3.486 2.263 5.463 2.263s3.955-.755 5.463-2.263c3.018-3.017 3.018-7.909 0-10.926l-23.954-23.956c-3.873 3.404-7.523 7.054-10.927 10.927z"/><path d="m51.2 111.74h-33.878c-.163 2.555-.255 5.13-.255 7.726s.092 5.171.255 7.726h33.878c4.267 0 7.726-3.459 7.726-7.726 0-4.266-3.459-7.726-7.726-7.726z"/><path d="m70.73 174.343-23.955 23.955c3.404 3.873 7.054 7.523 10.927 10.927l23.955-23.955c3.018-3.017 3.018-7.909 0-10.927-3.017-3.017-7.91-3.017-10.927 0z"/><path d="m136.533 197.073c-4.267 0-7.726 3.459-7.726 7.726v33.878c2.555.163 5.13.256 7.726.256 2.597 0 5.171-.092 7.727-.256v-33.877c0-4.267-3.459-7.727-7.727-7.727z"/><path d="m226.291 198.298-23.955-23.955c-3.017-3.017-7.91-3.017-10.927 0-3.018 3.017-3.018 7.91 0 10.927l23.955 23.955c3.874-3.404 7.523-7.054 10.927-10.927z"/><path d="m215.365 29.708-23.955 23.956c-3.018 3.017-3.018 7.909 0 10.926 1.509 1.509 3.486 2.263 5.463 2.263s3.955-.755 5.463-2.263l23.955-23.955c-3.404-3.873-7.054-7.523-10.926-10.927z"/><path d="m255.745 111.74h-33.878c-4.267 0-7.726 3.459-7.726 7.726s3.459 7.726 7.726 7.726h33.878c.163-2.555.255-5.13.255-7.726s-.092-5.17-.255-7.726z"/></g><ellipse cx="136.533" cy="119.467" fill="#ffb54c" rx="85.333" ry="85.333" transform="matrix(.707 -.707 .707 .707 -44.486 131.535)"/><path d="m136.533 111.74c-7.033 0-12.754-5.721-12.754-12.754 0-7.032 5.721-12.754 12.754-12.754 7.032 0 12.754 5.721 12.754 12.754 0 4.267 3.459 7.726 7.726 7.726s7.726-3.459 7.726-7.726c0-12.874-8.673-23.753-20.48-27.122v-3.598c0-4.267-3.459-7.726-7.726-7.726s-7.726 3.459-7.726 7.726v3.598c-11.808 3.369-20.48 14.248-20.48 27.122 0 15.553 12.653 28.207 28.207 28.207 7.032 0 12.754 5.721 12.754 12.754 0 7.032-5.721 12.753-12.754 12.753s-12.754-5.721-12.754-12.753c0-4.267-3.459-7.726-7.726-7.726s-7.726 3.459-7.726 7.726c0 12.874 8.673 23.753 20.48 27.122v3.598c0 4.267 3.459 7.726 7.726 7.726s7.726-3.459 7.726-7.726v-3.598c11.807-3.369 20.48-14.248 20.48-27.122 0-15.553-12.654-28.207-28.207-28.207z" fill="#ffe278"/><path d="m136.533 34.133c-4.022 0-7.973.299-11.847.837 41.518 5.77 73.486 41.39 73.486 84.496s-31.968 78.726-73.486 84.496c3.874.538 7.825.837 11.847.837 47.128 0 85.333-38.205 85.333-85.333.001-47.128-38.204-85.333-85.333-85.333z" fill="#ff9959"/></g><g><g><ellipse cx="375.467" cy="392.533" fill="#ffcc4a" rx="119.467" ry="119.467" transform="matrix(.707 -.707 .707 .707 -167.591 380.465)"/><path d="m375.467 273.067c-3.998 0-7.95.201-11.847.584 60.418 5.948 107.62 56.901 107.62 118.883 0 61.981-47.202 112.934-107.62 118.883 3.897.384 7.849.584 11.847.584 65.98 0 119.467-53.487 119.467-119.467-.001-65.98-53.488-119.467-119.467-119.467z" fill="#ffb54c"/><g fill="#ffe278"><path d="m375.467 273.067c-2.596 0-5.171.092-7.726.256v33.877c0 4.267 3.459 7.726 7.726 7.726s7.726-3.459 7.726-7.726v-33.878c-2.555-.163-5.13-.255-7.726-.255z"/><path d="m285.709 313.702 23.955 23.955c1.509 1.508 3.486 2.263 5.463 2.263s3.955-.755 5.463-2.263c3.018-3.017 3.018-7.91 0-10.927l-23.955-23.955c-3.873 3.404-7.523 7.054-10.926 10.927z"/><path d="m290.133 384.807h-33.878c-.163 2.555-.255 5.13-.255 7.726s.092 5.171.255 7.727h33.878c4.267 0 7.726-3.459 7.726-7.726.001-4.268-3.459-7.727-7.726-7.727z"/><path d="m309.664 447.41-23.955 23.955c3.404 3.873 7.054 7.523 10.927 10.927l23.955-23.955c3.018-3.017 3.018-7.909 0-10.927s-7.91-3.018-10.927 0z"/><path d="m375.467 470.14c-4.267 0-7.726 3.459-7.726 7.726v33.878c2.555.163 5.13.256 7.726.256s5.171-.092 7.726-.256v-33.878c0-4.267-3.459-7.726-7.726-7.726z"/><path d="m465.225 471.365-23.955-23.955c-3.017-3.017-7.909-3.017-10.927 0s-3.018 7.909 0 10.927l23.955 23.955c3.873-3.404 7.523-7.055 10.927-10.927z"/><path d="m454.298 302.775-23.955 23.955c-3.018 3.017-3.018 7.909 0 10.927 1.509 1.508 3.486 2.263 5.463 2.263s3.955-.755 5.463-2.263l23.955-23.955c-3.403-3.873-7.053-7.523-10.926-10.927z"/><path d="m494.678 384.807h-33.878c-4.267 0-7.726 3.459-7.726 7.726s3.459 7.726 7.726 7.726h33.878c.163-2.555.255-5.13.255-7.727 0-2.595-.092-5.17-.255-7.725z"/></g><ellipse cx="375.467" cy="392.533" fill="#ffb54c" rx="85.333" ry="85.333" transform="matrix(.707 -.707 .707 .707 -167.591 380.465)"/><path d="m375.467 307.2c-4.022 0-7.973.299-11.847.837 41.518 5.77 73.486 41.39 73.486 84.496s-31.969 78.726-73.486 84.496c3.874.538 7.825.837 11.847.837 47.128 0 85.333-38.205 85.333-85.333s-38.205-85.333-85.333-85.333z" fill="#ff9959"/></g><path d="m409.668 435.423-47.574-.422c8.554-11.913 10.611-19.49 9.218-32.97h14.467c4.267 0 7.726-3.459 7.726-7.726s-3.459-7.726-7.726-7.726h-18.221c-3.085-4.58-8.449-14.224-8.415-22.268 0-.01-.001-.02-.001-.031 0-.01.001-.02.001-.03-.019-5.173 2.237-8.966 6.893-11.596 7.049-3.981 18.007-4.044 24.427-.14 5.017 3.05 8.812 7.337 9.905 11.188 1.164 4.104 5.435 6.487 9.542 5.324 4.105-1.165 6.488-5.437 5.324-9.542-2.178-7.676-8.281-15.029-16.742-20.174-11.231-6.829-28.076-6.876-40.053-.112-9.513 5.371-14.744 14.242-14.745 24.986 0 .02-.003.04-.003.06 0 .009.001.018.001.028 0 .011-.001.022-.001.033 0 .031.005.062.005.093.003 8.075 2.957 16.062 6.02 22.181h-8.382c-4.267 0-7.726 3.459-7.726 7.726s3.459 7.726 7.726 7.726h14.437l.108.925c1.127 10.076.536 13.833-7.515 24.645l-8.096 10.178c-1.838 2.312-2.199 5.47-.927 8.136s3.952 4.374 6.906 4.4l63.286.56c.024.001.046.001.07.001 4.235 0 7.687-3.414 7.724-7.658.037-4.267-3.392-7.757-7.659-7.795z" fill="#ffe278"/></g><path d="m179.492 273.067h-23.694c4.552 0 8.242 3.69 8.242 8.242v17.65c0 4.552-3.69 8.241-8.242 8.241h23.694c4.551 0 8.241-3.69 8.241-8.241v-17.65c0-4.553-3.689-8.242-8.241-8.242z" fill="#97bedb"/><path d="m153.6 349.06v-15.453h-34.133v15.453z" fill="#ffcc4a"/><g><path d="m358.4 221.867v-168.798c0-2.356-1.91-4.267-4.267-4.267h-12.224c-3.617 0-5.594-4.219-3.278-6.998l33.557-40.269c1.706-2.047 4.85-2.047 6.556 0l33.557 40.269c2.316 2.779.34 6.998-3.278 6.998h-12.223c-2.357 0-4.267 1.91-4.267 4.267v168.798z" fill="#b0d16f"/></g><path d="m409.024 48.802h-12.224c-2.356 0-4.267 1.91-4.267 4.267v168.798h-23.694v-168.798c0-2.357 1.91-4.267 4.267-4.267h12.224c3.617 0 5.594-4.219 3.278-6.998l-24.988-29.985 8.569-10.283c1.706-2.047 4.85-2.047 6.556 0l33.557 40.269c2.315 2.778.339 6.997-3.278 6.997z" fill="#89c247"/><path d="m418.667 204.8h-86.4c-4.418 0-8 3.582-8 8v18.133c0 4.418 3.582 8 8 8h86.4c4.418 0 8-3.582 8-8v-18.133c0-4.418-3.582-8-8-8z" fill="#abd5ed"/><path d="m418.425 238.934h-23.694c4.552 0 8.241-3.69 8.241-8.242v-17.65c0-4.552-3.69-8.241-8.241-8.241h23.694c4.552 0 8.241 3.69 8.241 8.241v17.65c.001 4.552-3.689 8.242-8.241 8.242z" fill="#97bedb"/><path d="m392.533 162.94v15.453h-34.133v-15.453z" fill="#ffcc4a"/></g></svg>