<svg height="512" viewBox="0 0 128 128" width="512" xmlns="http://www.w3.org/2000/svg"><g><g><path d="m102.229 59.006v56.539a3 3 0 0 1 -3 3h-28.549a3 3 0 0 1 -3-3v-56.534a15.92 15.92 0 0 1 4.565-11.16 18.182 18.182 0 0 0 5.214-12.745v-22.651a3 3 0 0 1 3-3h9a3 3 0 0 1 3 3v22.657a18.178 18.178 0 0 0 5.208 12.737 15.92 15.92 0 0 1 4.562 11.157z" fill="#74767c"/><rect fill="#e25437" height="7" rx="3" width="20.818" x="74.546" y="16.27"/><path d="m84.955 68.997h17.27v24.818h-17.27z" fill="#ffdbb2"/></g><g><path d="m41.043 120.3a1.751 1.751 0 0 1 -1.75-1.75v-34.641a1.75 1.75 0 0 1 3.5 0v34.636a1.751 1.751 0 0 1 -1.75 1.755z" fill="#dee6f6"/><path d="m54.316 120.3h-26.546a1.75 1.75 0 1 1 0-3.5h26.546a1.75 1.75 0 0 1 0 3.5z" fill="#dee6f6"/><path d="m56.32 56.06v12.58a15.275 15.275 0 0 1 -30.55 0v-10.64c15.27-8.18 15.27 7.09 30.55-1.94z" fill="#e55639"/><path d="m56.32 46.27v9.79c-15.28 9.03-15.28-6.24-30.55 1.94v-11.73z" fill="#e6eeff"/></g></g></svg>