<svg height="512pt" viewBox="0 -27 512 512" width="512pt" xmlns="http://www.w3.org/2000/svg"><path d="m298.6875 371.964844h79.515625v71.53125h-79.515625zm0 0" fill="#b77445"/><path d="m338.4375 371.964844h39.765625v71.53125h-39.765625zm0 0" fill="#a04010"/><path d="m492.359375 383.90625h-307.832031l153.910156-228.007812.007812-.007813zm0 0" fill="#00b44b"/><path d="m492.359375 383.90625h-153.921875v-228.007812l.007812-.007813zm0 0" fill="#007f40"/><path d="m476.160156 297.5625h-275.429687l137.707031-204 .007812-.007812zm0 0" fill="#60d64d"/><path d="m476.160156 297.5625h-137.722656v-204l.007812-.007812zm0 0" fill="#00b563"/><path d="m451.878906 203h-226.867187l113.425781-168.023438.007812-.007812zm0 0" fill="#c8fb78"/><path d="m451.878906 203h-113.441406v-168.023438l.007812-.007812zm0 0" fill="#9ce78d"/><path d="m145.234375 370.765625h87.488281v78.703125h-87.488281zm0 0" fill="#b77445"/><path d="m188.972656 370.765625h43.75v78.703125h-43.75zm0 0" fill="#a04010"/><path d="m358.320312 383.902344h-338.679687l169.332031-250.851563.007813-.007812zm0 0" fill="#00b44b"/><path d="m358.320312 383.902344h-169.347656v-250.851563l.007813-.007812zm0 0" fill="#007f40"/><path d="m340.496094 288.910156h-303.03125l151.507812-224.441406.007813-.011719zm0 0" fill="#60d64d"/><path d="m340.496094 288.910156h-151.523438v-224.441406l.007813-.011719zm0 0" fill="#00b563"/><path d="m313.78125 184.871094h-249.601562l124.792968-184.8632815.007813-.0078125zm0 0" fill="#c8fb78"/><path d="m313.78125 184.871094h-124.808594v-184.8632815l.007813-.0078125zm0 0" fill="#9ce78d"/><path d="m0 428.496094h512v30h-512zm0 0" fill="#9ce78d"/><path d="m256 428.496094h256v30h-256zm0 0" fill="#36cb8e"/></svg>