<svg id="Layer_1" enable-background="new 0 0 512 512" height="512" viewBox="0 0 512 512" width="512" xmlns="http://www.w3.org/2000/svg"><g clip-rule="evenodd" fill-rule="evenodd"><g><path d="m287.755 317.532c0 76.697-277.755 76.697-277.755 0 0-76.696 62.185-138.872 138.882-138.872 76.698-.001 138.873 62.176 138.873 138.872zm-203.06-242.888c0 35.451 28.736 64.187 64.188 64.187 35.451 0 64.187-28.736 64.187-64.187 0-35.441-28.736-64.178-64.187-64.178-35.451.001-64.188 28.738-64.188 64.178z" fill="#92d2fe"/><path d="m284.537 287.668c-19.174 62.69-240.248 64.723-272.51 6.096-1.333 7.724-2.027 15.665-2.027 23.768 0 76.697 277.756 76.697 277.756 0 0-10.252-1.111-20.244-3.219-29.864z" fill="#43bdfd"/></g><g><path d="m369.459 357.772h29.902v52.343h-29.902z" fill="#656565" transform="matrix(.707 -.707 .707 .707 -158.898 384.273)"/><ellipse cx="296.034" cy="295.568" fill="#ffd54f" rx="106.99" ry="106.991" transform="matrix(.707 -.707 .707 .707 -122.292 295.897)"/><ellipse cx="296.034" cy="295.568" fill="#f2f2f2" rx="77.286" ry="77.286" transform="matrix(.526 -.851 .851 .526 -111.025 392)"/><g fill="#515151"><path d="m388.191 403.881 16.157-16.157c5.336-5.337 14.069-5.337 19.406 0l74.244 74.245c5.337 5.336 5.337 14.069 0 19.406l-16.157 16.157c-5.336 5.337-14.069 5.337-19.406 0l-74.244-74.244c-5.337-5.338-5.337-14.071 0-19.407z"/><path d="m402.937 209.771c-5.491-.323-9.68-5.036-9.357-10.527s5.036-9.68 10.527-9.357l60.285 3.728c5.491.323 9.68 5.036 9.357 10.527-.021.357-.061.708-.118 1.053l-10.079 59.553c-.904 5.426-6.036 9.092-11.463 8.188-5.426-.904-9.092-6.037-8.188-11.463l6.003-35.466-142.89 101.255c-3.369 2.491-8.089 2.665-11.688.104l-74.688-53.018-101.05 80.397c-4.306 3.424-10.573 2.708-13.997-1.598s-2.708-10.573 1.598-13.997l106.901-85.052c3.677-2.924 8.784-2.828 12.329-.056l74.682 53.013 134.44-95.266z"/></g></g></g></svg>