<?xml version="1.0" encoding="iso-8859-1"?>
<!-- Generator: Adobe Illustrator 19.0.0, SVG Export Plug-In . SVG Version: 6.00 Build 0)  -->
<svg version="1.1" id="Capa_1" xmlns="http://www.w3.org/2000/svg" xmlns:xlink="http://www.w3.org/1999/xlink" x="0px" y="0px"
	 viewBox="0 0 512 512" style="enable-background:new 0 0 512 512;" xml:space="preserve">
<path style="fill:#C27B48;" d="M273.815,133.779c-18.672-2.819-10.98-1.669-29.672-4.435c3.972-27.355-3.595-70.198-37.712-89.886
	l14.994-25.986C265.082,38.664,280.037,92.451,273.815,133.779z"/>
<path style="fill:#11A892;" d="M387.78,38.056c-10.582,9.515-56.32,65.936-103.357,56.344c-23.182-4.74-36.483-24.082-40.693-34.763
	l-1.23-3.12c1.916-26.373,14.483-43.124,29.822-50.884c24.032-12.161,57.624-4.61,99.857,22.432L387.78,38.056z"/>
<path style="fill:#FF475A;" d="M415.732,436.595c-18.431,22.032-38.723,40.443-60.324,54.734
	C342.956,499.569,324.165,512,304.194,512h-0.14c-21.012-0.06-38.333-6.85-48.053-11.711c-9.721,4.86-27.042,11.651-48.053,11.711
	h-0.14c-19.971,0-38.763-12.431-51.214-20.672c-21.602-14.291-41.903-32.702-60.324-54.734
	c-61.694-73.755-79.846-169.732-47.383-250.468c20.171-50.154,63.045-81.256,114.698-83.206c14.611-0.55,30.032,0.81,48.534,4.26
	c6.28,1.18,12.411,2.93,18.341,4.62c7.311,2.09,14.241,4.06,20.561,4.74h9.961c6.32-0.68,13.251-2.65,20.561-4.74
	c5.93-1.69,12.061-3.44,18.341-4.62c18.501-3.45,33.912-4.81,48.533-4.26c51.654,1.95,94.527,33.052,114.698,83.206
	C495.577,266.862,477.426,362.839,415.732,436.595z"/>
<path style="fill:#0F9887;" d="M387.78,38.056c-10.582,9.515-56.32,65.936-103.357,56.344c-23.182-4.74-36.483-24.082-40.693-34.763
	l-1.23-3.12L387.78,38.056z"/>
<path style="fill:#E5104D;" d="M415.732,436.595c-18.431,22.032-38.723,40.443-60.324,54.734
	C342.956,499.569,324.165,512,304.194,512h-0.14c-21.012-0.06-38.333-6.85-48.053-11.711V116.541h4.98
	c6.32-0.68,13.251-2.65,20.561-4.74c5.93-1.69,12.061-3.44,18.341-4.62c18.501-3.45,33.912-4.81,48.533-4.26
	c51.654,1.95,94.527,33.052,114.698,83.206C495.577,266.862,477.426,362.839,415.732,436.595z"/>
<g>
</g>
<g>
</g>
<g>
</g>
<g>
</g>
<g>
</g>
<g>
</g>
<g>
</g>
<g>
</g>
<g>
</g>
<g>
</g>
<g>
</g>
<g>
</g>
<g>
</g>
<g>
</g>
<g>
</g>
</svg>
