<svg id="Capa_1" enable-background="new 0 0 512 512" height="512" viewBox="0 0 512 512" width="512" xmlns="http://www.w3.org/2000/svg"><g><g><path d="m314.271 511.999h-227.006c-17.293 0-31.312-14.019-31.312-31.312v-449.374c0-17.293 14.019-31.312 31.312-31.312h227.006c17.293 0 31.312 14.019 31.312 31.312v449.375c0 17.293-14.019 31.311-31.312 31.311z" fill="#acacac"/><path d="m345.582 31.314v449.373c0 17.296-14.017 31.314-31.313 31.314h-20.493c17.296 0 31.313-14.017 31.313-31.314v-449.373c0-17.297-14.017-31.314-31.313-31.314h20.493c17.296 0 31.313 14.017 31.313 31.314z" fill="#9c9c9c"/><path d="m263.129 37.213-8.337 14.162c-2.187 3.716-6.177 5.997-10.489 5.997h-43.535-43.535c-4.312 0-8.302-2.281-10.489-5.997l-8.336-14.162c-2.187-3.716-6.177-5.997-10.489-5.997h-23.833c-6.722 0-12.171 5.449-12.171 12.171v425.225c0 6.722 5.449 12.171 12.171 12.171h96.683 96.683c6.722 0 12.171-5.449 12.171-12.171v-425.224c0-6.722-5.449-12.171-12.171-12.171h-23.833c-4.313-.001-8.303 2.28-10.49 5.996z" fill="#d8ecfe"/><path d="m309.617 43.384v425.232c0 6.722-5.441 12.173-12.163 12.173h-20.493c6.722 0 12.163-5.451 12.163-12.173v-425.232c0-6.722-5.441-12.173-12.163-12.173h20.493c6.722 0 12.163 5.451 12.163 12.173z" fill="#c4e2ff"/><g><path d="m225.442 38.93h-49.348c-4.261 0-7.714-3.453-7.714-7.714s3.453-7.714 7.714-7.714h49.348c4.261 0 7.714 3.453 7.714 7.714s-3.453 7.714-7.714 7.714z" fill="#838383"/></g></g><path d="m445.207 158.224h-292.573c-5.986 0-10.839 4.853-10.839 10.839v119.169c0 5.986 4.853 10.839 10.839 10.839h31.106c4.527 0 8.197 3.67 8.197 8.197v39.23c0 6.216 7.3 9.559 12.007 5.499l59.037-50.935c1.488-1.284 3.389-1.991 5.355-1.991h176.871c5.986 0 10.839-4.853 10.839-10.839v-119.168c0-5.987-4.853-10.84-10.839-10.84z" fill="#fd9468"/><path d="m445.207 158.224h-292.573c-5.986 0-10.839 4.853-10.839 10.839v119.169c0 5.986 4.853 10.839 10.839 10.839h31.106c4.527 0 8.197 3.67 8.197 8.197v39.23c0 6.216 7.3 9.559 12.007 5.499l59.037-50.935c1.488-1.284 3.389-1.991 5.355-1.991h176.871c5.986 0 10.839-4.853 10.839-10.839v-119.168c0-5.987-4.853-10.84-10.839-10.84z" fill="#fd9468"/><path d="m247.642 299.077h20.698c-1.967 0-3.873.707-5.359 1.988l-59.04 50.935c-4.703 4.058-12.009.717-12.009-5.502v-1.998l50.352-43.435c1.485-1.281 3.391-1.988 5.358-1.988z" fill="#fe7d43"/><path d="m456.047 169.068v119.167c0 5.984-4.857 10.841-10.841 10.841h-20.698c5.984 0 10.841-4.857 10.841-10.841v-119.167c0-5.994-4.857-10.841-10.841-10.841h20.698c5.984 0 10.841 4.847 10.841 10.841z" fill="#fe7d43"/><g fill="#fd6930"><path d="m350.062 255.714c-5.779.032-11.991.055-16.641.058v-61.961c0-4.261-3.453-7.714-7.714-7.714s-7.714 3.453-7.714 7.714v69.617c0 3.758 2.709 6.97 6.413 7.603.543.092 1.006.173 8.764.173 3.715 0 9.106-.018 16.978-.062 4.26-.024 7.695-3.496 7.671-7.757s-3.464-7.713-7.757-7.671z"/><path d="m228.613 186.097c-4.261 0-7.714 3.453-7.714 7.714v25.929h-32.789v-25.929c0-4.261-3.453-7.714-7.714-7.714s-7.714 3.453-7.714 7.714v69.675c0 4.261 3.453 7.714 7.714 7.714s7.714-3.453 7.714-7.714v-28.318h32.789v28.318c0 4.261 3.453 7.714 7.714 7.714s7.714-3.453 7.714-7.714v-69.675c0-4.261-3.453-7.714-7.714-7.714z"/><path d="m290.886 202.161c4.261 0 7.714-3.453 7.714-7.714s-3.453-7.714-7.714-7.714h-29.091c-4.261 0-7.714 3.453-7.714 7.714v69.039c0 4.261 3.453 7.714 7.714 7.714h29.091c4.261 0 7.714-3.453 7.714-7.714s-3.453-7.714-7.714-7.714h-21.377v-19.092h19.232c4.261 0 7.714-3.453 7.714-7.714s-3.453-7.714-7.714-7.714h-19.232v-19.092h21.377z"/><path d="m397.397 186.097h-19.4c-1.061 0-1.98.183-2.962.594-.683.286-1.323.67-1.901 1.134-.011.009-.024.017-.035.026-1.659 1.334-2.724 3.549-2.801 5.669-.004.097-.015 69.965-.015 69.965 0 4.261 3.453 7.714 7.714 7.714s7.714-3.453 7.714-7.714v-22.593c4.147-.022 8.986-.043 11.686-.043 15.308 0 27.762-12.281 27.762-27.376s-12.454-27.376-27.762-27.376zm0 39.325c-2.681 0-7.461.021-11.595.043-.021-4.265-.043-9.242-.043-11.992 0-2.322-.013-7.491-.025-11.948h11.663c6.685 0 12.334 5.472 12.334 11.948s-5.649 11.949-12.334 11.949z"/></g></g></svg>