<?xml version="1.0" encoding="iso-8859-1"?>
<!-- Generator: Adobe Illustrator 19.0.0, SVG Export Plug-In . SVG Version: 6.00 Build 0)  -->
<svg version="1.1" id="Capa_1" xmlns="http://www.w3.org/2000/svg" xmlns:xlink="http://www.w3.org/1999/xlink" x="0px" y="0px"
	 viewBox="0 0 512 512" style="enable-background:new 0 0 512 512;" xml:space="preserve">
<path style="fill:#EADCD6;" d="M476.806,251.65c1.963,38.57-25.963,70.19-60.604,70.19H40.816V189.067h376.558
	C449.054,189.067,475.033,216.807,476.806,251.65z"/>
<rect x="40.816" y="189.07" style="fill:#DDCDC7;" width="20.605" height="132.77"/>
<path style="fill:#FFD261;" d="M411.08,197.193H25.146c-5.341,0-9.671-4.33-9.671-9.671v-7.148c0-5.574,4.518-10.092,10.092-10.092
	h384.148c46.927,0,86.122,37.263,86.802,84.185c0.691,47.689-37.903,86.706-85.436,86.706H25.566
	c-5.574,0-10.092-4.518-10.092-10.092v-6.896c0-5.481,4.443-9.924,9.924-9.924h384.529c34.062,0,61.521-27.88,59.591-61.887
	C467.775,221.652,442.231,197.193,411.08,197.193z"/>
<g>
	<path style="fill:#F8BF00;" d="M36.079,331.08v-6.896c0-5.481,4.443-9.924,9.924-9.924H25.398c-5.481,0-9.924,4.443-9.924,9.924
		v6.896c0,5.574,4.518,10.092,10.092,10.092h20.605C40.598,341.172,36.079,336.654,36.079,331.08z"/>
	<path style="fill:#F8BF00;" d="M25.146,197.193h20.605c-5.341,0-9.671-4.33-9.671-9.672v-7.148c0-5.574,4.518-10.092,10.092-10.092
		H25.566c-5.574,0-10.092,4.518-10.092,10.092v7.148C15.474,192.863,19.805,197.193,25.146,197.193z"/>
</g>
<g>
	<path style="fill:#C9BCB8;" d="M77.596,234.075h311.618c4.267,0,7.727-3.459,7.727-7.727c0-4.267-3.459-7.727-7.727-7.727H77.596
		c-4.267,0-7.727,3.459-7.727,7.727C69.87,230.615,73.329,234.075,77.596,234.075z"/>
	<path style="fill:#C9BCB8;" d="M77.596,263.454h311.618c4.267,0,7.727-3.459,7.727-7.727c0-4.267-3.459-7.727-7.727-7.727H77.596
		c-4.267,0-7.727,3.459-7.727,7.727C69.87,259.994,73.329,263.454,77.596,263.454z"/>
	<path style="fill:#C9BCB8;" d="M77.596,292.832h311.618c4.267,0,7.727-3.459,7.727-7.727s-3.459-7.727-7.727-7.727H77.596
		c-4.267,0-7.727,3.459-7.727,7.727S73.329,292.832,77.596,292.832z"/>
</g>
<path style="fill:#F8BF00;" d="M382.15,314.26h27.778c34.062,0,61.521-27.88,59.591-61.887c-1.744-30.722-27.288-55.18-58.439-55.18
	h-28.93v-26.912h27.565c46.927,0,86.122,37.263,86.802,84.185c0.691,47.689-37.903,86.706-85.436,86.706h-28.93V314.26H382.15z"/>
<path style="fill:#EADCD6;" d="M35.194,81.369c-1.963,38.57,25.963,70.19,60.604,70.19h375.385V18.786H94.626
	C62.946,18.786,36.967,46.526,35.194,81.369z"/>
<path style="fill:#DDCDC7;" d="M62.581,81.369c1.773-34.843,27.752-62.583,59.432-62.583H94.626
	c-31.68,0-57.659,27.74-59.432,62.583c-1.963,38.57,25.963,70.19,60.604,70.19h27.387C88.544,151.559,60.618,119.939,62.581,81.369z
	"/>
<path style="fill:#C64757;" d="M100.92,26.912h385.934c5.341,0,9.672-4.33,9.672-9.671v-7.148C496.526,4.518,492.007,0,486.434,0
	H102.285C55.358,0,16.163,37.263,15.484,84.185c-0.691,47.689,37.903,86.706,85.436,86.706h385.514
	c5.574,0,10.092-4.518,10.092-10.092v-6.896c0-5.481-4.443-9.924-9.924-9.924H102.073c-34.062,0-61.521-27.88-59.591-61.887
	C44.225,51.37,69.769,26.912,100.92,26.912z"/>
<g>
	<path style="fill:#C9BCB8;" d="M434.404,63.793H122.786c-4.267,0-7.727-3.459-7.727-7.727s3.459-7.727,7.727-7.727h311.618
		c4.267,0,7.727,3.459,7.727,7.727S438.671,63.793,434.404,63.793z"/>
	<path style="fill:#C9BCB8;" d="M434.404,93.172H122.786c-4.267,0-7.727-3.459-7.727-7.727c0-4.267,3.459-7.727,7.727-7.727h311.618
		c4.267,0,7.727,3.459,7.727,7.727C442.13,89.713,438.671,93.172,434.404,93.172z"/>
	<path style="fill:#C9BCB8;" d="M434.404,122.551H122.786c-4.267,0-7.727-3.459-7.727-7.727c0-4.267,3.459-7.727,7.727-7.727
		h311.618c4.267,0,7.727,3.459,7.727,7.727C442.13,119.091,438.671,122.551,434.404,122.551z"/>
</g>
<path style="fill:#B2364B;" d="M129.85,143.979h-27.778c-34.062,0-61.521-27.88-59.591-61.887
	c1.744-30.722,27.288-55.18,58.439-55.18h28.93V0h-27.565C55.358,0,16.163,37.263,15.484,84.185
	c-0.691,47.689,37.903,86.706,85.436,86.706h28.93V143.979z"/>
<path style="fill:#A32F48;" d="M36.088,84.185C36.768,37.263,75.963,0,122.89,0h-20.605C55.358,0,16.163,37.263,15.484,84.185
	c-0.691,47.689,37.903,86.706,85.436,86.706h20.605C73.991,170.891,35.398,131.874,36.088,84.185z"/>
<path style="fill:#EADCD6;" d="M35.194,422.478c-1.963,38.57,25.963,70.19,60.604,70.19h375.385V359.895H94.626
	C62.946,359.895,36.967,387.635,35.194,422.478z"/>
<path style="fill:#DDCDC7;" d="M62.581,422.478c1.773-34.843,27.752-62.583,59.432-62.583H94.626
	c-31.68,0-57.659,27.74-59.432,62.583c-1.963,38.57,25.963,70.19,60.604,70.19h27.387C88.544,492.668,60.618,461.048,62.581,422.478
	z"/>
<path style="fill:#5DA3E2;" d="M100.92,368.021h385.934c5.341,0,9.671-4.33,9.671-9.671v-7.148c0-5.574-4.518-10.092-10.092-10.092
	H102.285c-46.927,0-86.122,37.263-86.802,84.185C14.793,472.983,53.386,512,100.92,512h385.514c5.574,0,10.092-4.518,10.092-10.092
	v-6.896c0-5.481-4.443-9.924-9.924-9.924H102.073c-34.062,0-61.521-27.88-59.591-61.887
	C44.225,392.479,69.769,368.021,100.92,368.021z"/>
<g>
	<path style="fill:#C9BCB8;" d="M434.404,404.902H122.786c-4.267,0-7.727-3.459-7.727-7.727c0-4.267,3.459-7.727,7.727-7.727
		h311.618c4.267,0,7.727,3.459,7.727,7.727C442.13,401.443,438.671,404.902,434.404,404.902z"/>
	<path style="fill:#C9BCB8;" d="M434.404,434.281H122.786c-4.267,0-7.727-3.459-7.727-7.727s3.459-7.727,7.727-7.727h311.618
		c4.267,0,7.727,3.459,7.727,7.727S438.671,434.281,434.404,434.281z"/>
	<path style="fill:#C9BCB8;" d="M434.404,463.66H122.786c-4.267,0-7.727-3.459-7.727-7.727s3.459-7.727,7.727-7.727h311.618
		c4.267,0,7.727,3.459,7.727,7.727S438.671,463.66,434.404,463.66z"/>
</g>
<path style="fill:#4887CC;" d="M129.85,485.088h-27.778c-34.062,0-61.521-27.88-59.591-61.887
	c1.744-30.722,27.288-55.18,58.439-55.18h28.93v-26.912h-27.565c-46.927,0-86.122,37.263-86.802,84.185
	C14.793,472.983,53.386,512,100.92,512h28.93V485.088z"/>
<path style="fill:#2C75B7;" d="M36.088,425.294c0.68-46.922,39.875-84.185,86.802-84.185h-20.605
	c-46.927,0-86.122,37.263-86.802,84.185C14.793,472.983,53.386,512,100.92,512h20.605C73.991,512,35.398,472.983,36.088,425.294z"/>
<path style="fill:#EFA603;" d="M409.927,314.26h20.605c34.062,0,61.521-27.88,59.592-61.887
	c-1.744-30.722-27.288-55.18-58.439-55.18H411.08c31.15,0,56.695,24.458,58.439,55.18C471.449,286.381,443.99,314.26,409.927,314.26
	z"/>
<g>
</g>
<g>
</g>
<g>
</g>
<g>
</g>
<g>
</g>
<g>
</g>
<g>
</g>
<g>
</g>
<g>
</g>
<g>
</g>
<g>
</g>
<g>
</g>
<g>
</g>
<g>
</g>
<g>
</g>
</svg>
