<svg height="512pt" viewBox="0 -79 512.00001 512" width="512pt" xmlns="http://www.w3.org/2000/svg"><path d="m512 185.324219v39.789062h-172.980469v-39.789062c0-47.6875 38.796875-86.484375 86.496094-86.484375 47.6875 0 86.484375 38.796875 86.484375 86.484375zm0 0" fill="#ffdf48"/><path d="m512 185.324219v39.789062h-86.484375v-126.273437c47.6875 0 86.484375 38.796875 86.484375 86.484375zm0 0" fill="#fec000"/><path d="m481.726562 56.222656c0 30.992188-25.21875 56.214844-56.210937 56.214844-31.003906 0-56.222656-25.222656-56.222656-56.214844 0-31.003906 25.21875-56.222656 56.222656-56.222656 30.992187 0 56.210937 25.21875 56.210937 56.222656zm0 0" fill="#ffdba9"/><path d="m481.726562 56.222656c0 30.992188-25.21875 56.214844-56.210937 56.214844v-112.4375c30.992187 0 56.210937 25.21875 56.210937 56.222656zm0 0" fill="#ffc473"/><path d="m274.8125 185.324219v39.789062h-172.980469v-39.789062c0-47.6875 38.796875-86.484375 86.496094-86.484375 47.6875 0 86.484375 38.796875 86.484375 86.484375zm0 0" fill="#ff623f"/><path d="m274.8125 185.324219v39.789062h-86.484375v-126.273437c47.6875 0 86.484375 38.796875 86.484375 86.484375zm0 0" fill="#e70020"/><path d="m244.539062 56.222656c0 30.992188-25.21875 56.214844-56.210937 56.214844-31.003906 0-56.222656-25.222656-56.222656-56.214844 0-31.003906 25.21875-56.222656 56.222656-56.222656 30.992187 0 56.210937 25.21875 56.210937 56.222656zm0 0" fill="#ffdba9"/><path d="m244.539062 56.222656c0 30.992188-25.21875 56.214844-56.210937 56.214844v-112.4375c30.992187 0 56.210937 25.21875 56.210937 56.222656zm0 0" fill="#ffc473"/><path d="m393.40625 185.324219v39.789062h-172.980469v-39.789062c0-47.6875 38.796875-86.484375 86.496094-86.484375 47.6875 0 86.484375 38.796875 86.484375 86.484375zm0 0" fill="#60dd4e"/><path d="m393.40625 185.324219v39.789062h-86.484375v-126.273437c47.6875 0 86.484375 38.796875 86.484375 86.484375zm0 0" fill="#00bb64"/><path d="m363.132812 56.222656c0 30.992188-25.21875 56.214844-56.210937 56.214844-31.003906 0-56.222656-25.222656-56.222656-56.214844 0-31.003906 25.21875-56.222656 56.222656-56.222656 30.992187 0 56.210937 25.21875 56.210937 56.222656zm0 0" fill="#ffdba9"/><path d="m363.132812 56.222656c0 30.992188-25.21875 56.214844-56.210937 56.214844v-112.4375c30.992187 0 56.210937 25.21875 56.210937 56.222656zm0 0" fill="#ffc473"/><path d="m512 207.105469v147.179687h-399.804688l-112.195312-73.589844 112.195312-73.589843zm0 0" fill="#0087ff"/><path d="m112.195312 207.105469v147.179687l-112.195312-73.589844zm0 0" fill="#ffdba9"/><path d="m512 280.695312v73.589844h-399.804688l-112.195312-73.589844zm0 0" fill="#4b5be4"/><path d="m397.953125 207.105469h114.046875v147.179687h-114.046875zm0 0" fill="#e0e4fa"/><path d="m0 280.695312h112.195312v73.589844zm0 0" fill="#ffc473"/><path d="m397.953125 280.695312h114.046875v73.589844h-114.046875zm0 0" fill="#c4c9f7"/><path d="m112.195312 265.6875h285.757813v30.011719h-285.757813zm0 0" fill="#ffdf48"/><path d="m112.195312 280.695312h285.757813v15.003907h-285.757813zm0 0" fill="#fec000"/><path d="m28.300781 262.128906-28.300781 18.566406 28.300781 18.5625zm0 0" fill="#78777f"/><path d="m28.300781 280.695312h-28.300781l28.300781 18.5625zm0 0" fill="#57555c"/></svg>