<svg height="512" viewBox="0 0 58 54" width="512" xmlns="http://www.w3.org/2000/svg"><g id="Page-1" fill="none" fill-rule="evenodd"><g id="050---View-Folder" fill-rule="nonzero"><path id="Shape" d="m51 5h-26c-.5522847 0-1-.44771525-1-1v-1c0-1.65685425-1.3431458-3-3-3h-14c-1.65685425 0-3 1.34314575-3 3v9h50v-4c0-1.65685425-1.3431458-3-3-3z" fill="#f29c1f"/><path id="Shape" d="m42.7 45h5.46c1.9072274-.0015321 3.5480911-1.3493844 3.92-3.22l5.88-29.39c.116709-.5870173-.0356102-1.1954503-.4151342-1.6582372-.3795241-.4627869-.9463593-.7312821-1.5448658-.7317628h-54c-.59850648.0004807-1.16534175.2689759-1.54486577.7317628-.37952402.4627869-.53184323 1.0712199-.41513423 1.6582372l5.88 29.39c.37190885 1.8706156 2.01277256 3.2184679 3.92 3.22z" fill="#f0c419"/><path id="Shape" d="m7 15h-2c-.55228475 0-1-.4477153-1-1s.44771525-1 1-1h2c.55228475 0 1 .4477153 1 1s-.44771525 1-1 1z" fill="#f9eab0"/><path id="Shape" d="m27 15h-16c-.5522847 0-1-.4477153-1-1s.4477153-1 1-1h16c.5522847 0 1 .4477153 1 1s-.4477153 1-1 1z" fill="#f9eab0"/><path id="Shape" d="m46.657 42.84c.8449856-1.0811502.8449856-2.5988498 0-3.68-2.795-3.586-9.647-11.16-17.657-11.16s-14.862 7.574-17.657 11.16c-.8449856 1.0811502-.8449856 2.5988498 0 3.68 2.795 3.586 9.647 11.16 17.657 11.16s14.862-7.574 17.657-11.16z" fill="#ecf0f1"/><circle id="Oval" cx="29" cy="41" fill="#67b9cc" r="9"/><circle id="Oval" cx="29" cy="41" fill="#2fa8cc" r="6"/><circle id="Oval" cx="29" cy="41" fill="#35495e" r="4"/><path id="Shape" d="m13.55 43.83c.41.92.92 2.01 1.51 3.19-1.328251-1.3122168-2.5708109-2.7084267-3.72-4.18-.8407033-1.0826214-.8407033-2.5973786 0-3.68 1.1491891-1.4715733 2.391749-2.8677832 3.72-4.18-.59 1.18-1.1 2.27-1.51 3.19-.7299807 1.8160564-.7299807 3.8439436 0 5.66z" fill="#fb7b76"/><path id="Shape" d="m46.66 42.84c-1.1491891 1.4715733-2.391749 2.8677832-3.72 4.18.59-1.18 1.1-2.27 1.51-3.19.7299807-1.8160564.7299807-3.8439436 0-5.66-.41-.92-.92-2.01-1.51-3.19 1.328251 1.3122168 2.5708109 2.7084267 3.72 4.18.8407033 1.0826214.8407033 2.5973786 0 3.68z" fill="#fb7b76"/><circle id="Oval" cx="24" cy="35" fill="#ecf0f1" r="3"/></g></g></svg>