<svg id="Layer_1" enable-background="new 0 0 512 512" height="512" viewBox="0 0 512 512" width="512" xmlns="http://www.w3.org/2000/svg"><g><g><path d="m512 219.635v234.68c0 4.14-.59 8.15-1.7 11.94h-508.6c-1.11-3.79-1.7-7.8-1.7-11.94v-234.68c0-7.47 1.93-14.5 5.32-20.62l251.34 1.3 251.34 1.29c2.57 5.48 4 11.59 4 18.03z" fill="#fff16b"/><path d="m512 219.635v234.68c0 4.14-.59 8.15-1.7 11.94h-253.64v-265.94l251.34 1.29c2.57 5.48 4 11.59 4 18.03z" fill="#ffd845"/><path d="m508 201.605-82.93 80.82-168.41 54.1-167.28-53.45-84.06-84.06c7.28-13.17 21.31-22.1 37.39-22.1h426.58c17.11 0 31.91 10.12 38.71 24.69z" fill="#ffd845"/><path d="m508 201.605-82.93 80.82-168.41 54.1v-159.61h212.63c17.11 0 31.91 10.12 38.71 24.69z" fill="#ffb454"/><path d="m425.07 56.085v226.34l-86.3 84.1c-2.8 2.73-6.55 4.26-10.47 4.26h-145c-3.97 0-7.79-1.58-10.6-4.39l-83.32-83.32v-226.99c0-22.67 18.45-41.11 41.12-41.11h253.46c22.67 0 41.11 18.44 41.11 41.11z" fill="#ace233"/><path d="m425.07 56.085v226.34l-86.3 84.1c-2.8 2.73-6.55 4.26-10.47 4.26h-71.64v-355.81h127.3c22.67 0 41.11 18.44 41.11 41.11z" fill="#00da80"/><path d="m510.3 466.255c-5.18 17.76-21.6 30.77-41.01 30.77h-426.58c-19.41 0-35.83-13.01-41.01-30.77l245.67-172.73c2.78-1.95 6.05-2.86 9.29-2.72 2.8.13 5.57 1.03 7.97 2.72z" fill="#ffd845"/><path d="m510.3 466.255c-5.18 17.76-21.6 30.77-41.01 30.77h-212.63v-206.22c2.8.13 5.57 1.03 7.97 2.72z" fill="#ffb454"/></g><path d="m328.75 133.95-72.09 72.1-10.82 10.82c-1.4 1.41-3.06 2.5-4.87 3.25-1.8.74-3.75 1.14-5.74 1.14-3.98 0-7.79-1.58-10.6-4.4l-40.07-40.07c-5.85-5.86-5.85-15.35.01-21.21s15.35-5.86 21.21 0l29.46 29.46 72.3-72.3c5.86-5.86 15.36-5.86 21.21 0 5.86 5.86 5.86 15.35 0 21.21z" fill="#fff"/><path d="m328.75 133.95-72.09 72.1v-42.43l50.88-50.88c5.86-5.86 15.36-5.86 21.21 0 5.86 5.86 5.86 15.35 0 21.21z" fill="#d7ffff"/></g></svg>