<svg height="512pt" viewBox="-46 0 511 512" width="512pt" xmlns="http://www.w3.org/2000/svg"><path d="m419.933594 86.503906v362.847656c0 8.320313-6.734375 15.054688-15.058594 15.054688h-224.277344l-113.527344.613281h-.078124c-3.976563 0-7.800782-1.574219-10.621094-4.386719-2.839844-2.820312-4.4375-6.664062-4.4375-10.667968v-434.910156c0-8.320313 6.746094-15.054688 15.058594-15.054688h266.4375c1.816406 0 3.601562.332031 5.269531.953125 2.007812.742187 3.84375 1.917969 5.378906 3.453125l71.449219 71.449219c1.566406 1.5625 2.75 3.453125 3.492187 5.5.601563 1.636719.914063 3.371093.914063 5.148437zm0 0" fill="#d9f5ff"/><path d="m419.019531 81.355469c-.742187-2.046875-1.925781-3.9375-3.492187-5.5l-71.449219-71.449219c-1.535156-1.535156-3.371094-2.710938-5.378906-3.453125-1.667969-.621094-3.453125-.953125-5.269531-.953125h-123.210938v464.40625h194.65625c8.324219 0 15.058594-6.734375 15.058594-15.054688v-362.847656c0-1.777344-.3125-3.511718-.914063-5.148437zm0 0" fill="#87e4f9"/><path d="m419.019531 81.355469-65.316406-.203125c-8.289063-.027344-15.003906-6.753906-15.003906-15.054688v-65.144531c2.007812.742187 3.84375 1.917969 5.378906 3.453125l71.449219 71.449219c1.566406 1.5625 2.75 3.453125 3.492187 5.5zm0 0" fill="#18c1e8"/><path d="m102.820312 307.355469c-56.417968 0-102.320312 45.902343-102.320312 102.324219 0 56.417968 45.902344 102.320312 102.320312 102.320312 56.421876 0 102.324219-45.902344 102.324219-102.320312 0-56.421876-45.902343-102.324219-102.324219-102.324219zm0 0" fill="#ffab66"/><path d="m254.382812 167.722656h-112.082031c-8.3125 0-15.054687-6.742187-15.054687-15.058594 0-8.3125 6.742187-15.054687 15.054687-15.054687h112.082031c8.316407 0 15.054688 6.742187 15.054688 15.054687 0 8.316407-6.738281 15.058594-15.054688 15.058594zm0 0" fill="#87e4f9"/><path d="m254.382812 137.609375h-44.164062v30.113281h44.164062c8.316407 0 15.058594-6.742187 15.058594-15.058594 0-8.3125-6.742187-15.054687-15.058594-15.054687zm0 0" fill="#18c1e8"/><path d="m323.644531 226.945312h-181.34375c-8.3125 0-15.054687-6.742187-15.054687-15.058593 0-8.3125 6.742187-15.054688 15.054687-15.054688h181.339844c8.316406 0 15.058594 6.742188 15.058594 15.054688 0 8.316406-6.742188 15.058593-15.054688 15.058593zm0 0" fill="#87e4f9"/><path d="m323.644531 196.832031h-113.425781v30.113281h113.425781c8.3125 0 15.054688-6.742187 15.054688-15.058593 0-8.3125-6.742188-15.054688-15.054688-15.054688zm0 0" fill="#18c1e8"/><path d="m323.644531 285.164062h-181.34375c-8.3125 0-15.054687-6.742187-15.054687-15.058593 0-8.3125 6.742187-15.054688 15.054687-15.054688h181.339844c8.316406 0 15.058594 6.742188 15.058594 15.054688 0 8.316406-6.742188 15.058593-15.054688 15.058593zm0 0" fill="#87e4f9"/><path d="m323.644531 255.050781h-113.425781v30.113281h113.425781c8.3125 0 15.054688-6.742187 15.054688-15.058593 0-8.3125-6.742188-15.054688-15.054688-15.054688zm0 0" fill="#18c1e8"/><path d="m160.042969 379.84375-27.445313-27.445312c-2.824218-2.824219-6.652344-4.410157-10.644531-4.410157s-7.824219 1.585938-10.644531 4.410157l-53 52.996093c-2.820313 2.820313-4.410156 6.652344-4.410156 10.644531 0 3.992188 1.585937 7.820313 4.410156 10.644532l3.308594 3.308594-16.015626 15.671874c-5.878906 5.878907-5.878906 15.414063 0 21.292969 2.941407 2.941407 6.792969 4.410157 10.644532 4.410157 3.855468 0 7.707031-1.472657 10.648437-4.410157l16.015625-15.671875 2.84375 2.84375c2.941406 2.941406 6.792969 4.410156 10.644532 4.410156 3.855468 0 7.707031-1.46875 10.648437-4.410156l52.996094-52.996094c5.878906-5.878906 5.878906-15.410156 0-21.289062zm0 0" fill="#ff8a33"/></svg>