<svg id="Layer_1" enable-background="new 0 0 510 510" height="512" viewBox="0 0 510 510" width="512" xmlns="http://www.w3.org/2000/svg"><g id="XMLID_4515_"><path id="XMLID_4565_" d="m217.5 480 7.5 10 7.5-10 10-30.207-10-25.76-7.917-12.949-7.083 1.064z" fill="#dfe7f4"/><path id="XMLID_4564_" d="m247.5 480v-67.852l-8.833-2.564-6.167 14.449v55.967l7.5 10z" fill="#c7cfe1"/><path id="XMLID_4561_" d="m157.5 480v30h75l10-15-10-15z" fill="#f0f7ff"/><path id="XMLID_4558_" d="m232.5 480h75v30h-75z" fill="#dfe7f4"/><path id="XMLID_4553_" d="m127.5 60v225c0 61.303 104.903 138.928 105 139.033l10-180.636-10-183.397z" fill="#f0f7ff"/><path id="XMLID_4550_" d="m232.5 60v364.033l9.233-7.212c.955-.746 23.653-18.547 46.664-42.874 32.582-34.445 49.103-64.371 49.103-88.947v-225z" fill="#dfe7f4"/><g id="XMLID_4546_"><g><path id="XMLID_871_" d="m262.961 135-14.128 10-16.333-10 33.288-135h116.712v30h-93.288z" fill="#c7cfe1"/></g></g><path id="XMLID_4543_" d="m157.5 135v69.98h43.25l31.75-23.517 10-27.213-10-19.25z" fill="#f4d844"/><path id="XMLID_4540_" d="m232.5 135v46.463l42.75-5.713 20.37-40.75z" fill="#ecbd2c"/><path id="XMLID_4537_" d="m232.5 213.062-75 21.272 34 39.399h41l10-32.983z" fill="#f4d844"/><path id="XMLID_4534_" d="m232.5 304.099-75-31.868v12.769c0 16.13 14.439 40.3 40.65 68.07 12.89 13.66 25.939 25.31 34.35 32.479l10-56.659z" fill="#f4d844"/><g fill="#ecbd2c"><path id="XMLID_4531_" d="m232.5 304.099v81.451c23.906-20.382 58.623-54.268 70.85-83.21z"/><path id="XMLID_4528_" d="m232.5 213.062v60.671l39.833 13.267 35.167-17.26v-102.19z"/><path id="XMLID_4525_" d="m232.5 304.099 10-15.97-10-14.396c-18.311-3.626-35.38-10.724-51.08-21.283-8.6-5.79-18.41-12.627-23.92-18.116v37.896c21.338 16.032 46.82 27.235 75 31.869z"/><path id="XMLID_4522_" d="m232.5 181.463c-19.159 8.514-43.68 16.759-75 23.518v29.354c27.494-5.745 52.749-12.793 75-21.271l10-15.562z"/></g><path id="XMLID_4519_" d="m295.62 135c-5.73 8.811-22.152 28.255-63.12 46.463v31.6c27.454-10.459 54.463-24.516 75-45.513v-32.55z" fill="#e58f22"/><path id="XMLID_4516_" d="m232.5 273.733v30.365c21.963 3.612 43.941 3.03 65.7-.729 1.729-.3 3.45-.64 5.149-1.03 2.74-6.48 4.15-12.3 4.15-17.34v-15.26c-4.56 1.84-9.4 3.199-14.41 4.07-21.433 3.711-41.673 3.67-60.589-.076z" fill="#e58f22"/></g></svg>