<?xml version="1.0" encoding="iso-8859-1"?>
<!-- Generator: Adobe Illustrator 19.0.0, SVG Export Plug-In . SVG Version: 6.00 Build 0)  -->
<svg version="1.1" id="Capa_1" xmlns="http://www.w3.org/2000/svg" xmlns:xlink="http://www.w3.org/1999/xlink" x="0px" y="0px"
	 viewBox="0 0 468.293 468.293" style="enable-background:new 0 0 468.293 468.293;" xml:space="preserve">
<polygon style="fill:#EBF0F3;" points="286.2,394.599 339.374,447.773 468.281,468.281 447.773,339.374 394.599,286.2 "/>
<path style="fill:#F7BE56;" d="M117.163,8.764l313.032,313.032L321.796,430.195L8.764,117.163
	C-1.853,106.546-2.981,90.517,6.241,81.295L81.295,6.241C90.517-2.981,106.546-1.853,117.163,8.764z"/>
<g>
	<path style="fill:#FCD462;" d="M16.684,70.853L348.911,403.08l-27.115,27.115L8.764,117.163
		C-1.853,106.546-2.981,90.517,6.241,81.295L16.684,70.853z"/>
	
		<rect x="204.3" y="-38.617" transform="matrix(-0.7071 0.7071 -0.7071 -0.7071 520.2656 177.1209)" style="fill:#FCD462;" width="38.3" height="469.856"/>
</g>
<path style="fill:#CE412D;" d="M180.878,72.479L117.163,8.764C106.546-1.853,90.517-2.981,81.295,6.241L6.241,81.295
	c-9.222,9.222-8.094,25.25,2.523,35.867l63.715,63.715L180.878,72.479z"/>
<path style="fill:#2F4859;" d="M461.613,426.316l6.68,41.977l-41.977-6.68c3.516-7.523,8.402-14.52,14.59-20.707
	C447.094,434.718,454.09,429.832,461.613,426.316z"/>
<g>
</g>
<g>
</g>
<g>
</g>
<g>
</g>
<g>
</g>
<g>
</g>
<g>
</g>
<g>
</g>
<g>
</g>
<g>
</g>
<g>
</g>
<g>
</g>
<g>
</g>
<g>
</g>
<g>
</g>
</svg>
