<svg id="color" enable-background="new 0 0 24 24" height="512" viewBox="0 0 24 24" width="512" xmlns="http://www.w3.org/2000/svg"><path d="m20 3c0-1.654-1.346-3-3-3h-10c-1.654 0-3 1.346-3 3v18c0 1.654 1.346 3 3 3h10c1.654 0 3-1.346 3-3z" fill="#607d8b"/><path d="m18 21c0 .552-.448 1-1 1h-10c-.552 0-1-.448-1-1v-18c0-.552.448-1 1-1h.5c.552 0 1 .448 1 1s.448 1 1 1h5c.552 0 1-.448 1-1s.448-1 1-1h.5c.552 0 1 .448 1 1z" fill="#fafafa"/><path d="m10.75 20-.245-.041c-.335-.116-.543-.45-.5-.802l.645-5.157h-1.9c-.279 0-.535-.155-.665-.402-.129-.247-.111-.546.048-.775l4.5-6.5c.199-.287.57-.397.893-.271.324.128.517.463.465.809l-.62 4.139h1.879c.27 0 .52.146.653.38.133.235.129.524-.01.755l-4.5 7.5c-.139.232-.386.365-.643.365z" fill="#ffc107"/><path d="m12 0h-5c-1.654 0-3 1.346-3 3v18c0 1.654 1.346 3 3 3h5v-2h-5c-.552 0-1-.448-1-1v-18c0-.552.448-1 1-1h.5c.552 0 1 .448 1 1s.448 1 1 1h2.5z" fill="#546d79"/><path d="m7.5 2h-.5c-.552 0-1 .448-1 1v18c0 .552.448 1 1 1h5v-3.376l-.607 1.012c-.139.231-.386.364-.643.364l-.245-.041c-.335-.116-.543-.45-.5-.802l.645-5.157h-1.9c-.279 0-.535-.155-.665-.402-.129-.247-.111-.546.048-.775l3.867-5.585v-3.238h-2.5c-.552 0-1-.448-1-1s-.448-1-1-1z" fill="#dadada"/><path d="m15.25 11h-1.879l-2.721 3-.645 5.157c-.044.352.164.687.5.802l.245.041c.257 0 .504-.133.643-.364l4.5-7.5c.139-.231.143-.52.01-.755s-.383-.381-.653-.381z" fill="#dea806"/></svg>