<?xml version="1.0" encoding="iso-8859-1"?>
<!-- Generator: Adobe Illustrator 19.0.0, SVG Export Plug-In . SVG Version: 6.00 Build 0)  -->
<svg version="1.1" id="Capa_1" xmlns="http://www.w3.org/2000/svg" xmlns:xlink="http://www.w3.org/1999/xlink" x="0px" y="0px"
	 viewBox="0 0 513.333 513.333" style="enable-background:new 0 0 513.333 513.333;" xml:space="preserve">
<polygon style="fill:#FFD15C;" points="384.8,274.667 290.933,368.533 290.933,512.533 478.667,512.533 478.667,368.533 "/>
<path style="fill:#415A6B;" d="M482.933,388.8L384.8,290.667L286.667,388.8c-6.4,6.4-18.133,6.4-24.533,0l0,0
	c-6.4-6.4-6.4-18.133,0-24.533l110.933-110.933c6.4-6.4,18.133-6.4,24.533,0l110.933,110.933c6.4,6.4,6.4,18.133,0,24.533l0,0
	C501.067,396.267,489.333,396.267,482.933,388.8z"/>
<path style="fill:#E8EAE9;" d="M181.067,36.8L181.067,36.8c-51.2,52.267-80,81.067-131.2,132.267v343.467h263.467V169.067
	C261.067,117.867,232.267,89.067,181.067,36.8z"/>
<path style="fill:#F3705A;" d="M319.733,197.867L181.067,59.2L42.4,197.867c-9.6,9.6-25.6,9.6-35.2,0l0,0c-9.6-9.6-9.6-25.6,0-35.2
	L164,8c9.6-9.6,25.6-9.6,35.2,0l155.733,155.733c9.6,9.6,9.6,25.6,0,35.2l0,0C344.267,207.467,329.333,207.467,319.733,197.867z"/>
<path style="fill:#415A6B;" d="M181.067,356.8L181.067,356.8c-32,0-57.6,25.6-57.6,57.6v98.133h115.2V414.4
	C238.667,382.4,213.067,356.8,181.067,356.8z"/>
<g>
	<path style="fill:#344A5E;" d="M144.8,512.533V414.4c0-20.267,16-36.267,36.267-36.267s36.267,16,36.267,36.267v98.133H144.8z"/>
	<path style="fill:#344A5E;" d="M384.8,419.733L384.8,419.733c-20.267,0-36.267,16-36.267,36.267v56.533h73.6V456
		C421.067,435.733,405.067,419.733,384.8,419.733z"/>
</g>
<circle style="fill:#8AD7F8;" cx="181.067" cy="226.667" r="57.6"/>
<path style="fill:#415A6B;" d="M181.067,294.933c-37.333,0-68.267-30.933-68.267-68.267s30.933-68.267,68.267-68.267
	s68.267,30.933,68.267,68.267S218.4,294.933,181.067,294.933z M181.067,179.733c-25.6,0-46.933,21.333-46.933,46.933
	s21.333,46.933,46.933,46.933S228,252.267,228,226.667S206.667,179.733,181.067,179.733z"/>
<g>
</g>
<g>
</g>
<g>
</g>
<g>
</g>
<g>
</g>
<g>
</g>
<g>
</g>
<g>
</g>
<g>
</g>
<g>
</g>
<g>
</g>
<g>
</g>
<g>
</g>
<g>
</g>
<g>
</g>
</svg>
