<svg id="Capa_1" enable-background="new 0 0 512 512" height="512" viewBox="0 0 512 512" width="512" xmlns="http://www.w3.org/2000/svg"><g><path d="m310.518 470.624h-220.971v27.198c0 7.826 6.344 14.171 14.171 14.171l192.63.004c7.826 0 14.171-6.344 14.171-14.171v-27.202z" fill="#62dbfb"/><path d="m310.515 470.629v27.199c0 7.825-6.337 14.172-14.172 14.172h-21.976c7.804-.021 14.13-6.358 14.13-14.172v-27.199z" fill="#01d0fb"/><g><path d="m470.46 192.55v194.532c0 29.186-23.66 52.847-52.847 52.847h-67.917v-43.64h61.623c11.045 0 19.999-8.954 19.999-19.999v-172.948c0-11.035-8.953-19.999-19.999-19.999h-61.623v-43.629h67.928c29.18 0 52.836 23.656 52.836 52.836z" fill="#62dbfb"/></g><g><path d="m470.464 192.549v194.535c0 29.187-23.661 52.848-52.848 52.848h-18.729c29.187 0 52.838-23.661 52.838-52.848v-194.535c0-29.176-23.651-52.838-52.827-52.838h18.729c29.175.001 52.837 23.662 52.837 52.838z" fill="#01d0fb"/></g><path d="m325.649 42.571h-251.233l-25.503 38.007c-4.809 7.166-7.376 15.601-7.376 24.231v317.036c0 28.203 22.863 51.066 51.066 51.066h214.86c28.203 0 51.066-22.863 51.066-51.066v-317.035c0-8.63-2.568-17.065-7.376-24.231z" fill="#c8effe"/><path d="m358.525 104.813v317.036c0 28.198-22.86 51.069-51.058 51.069h-21.31c28.198 0 51.058-22.871 51.058-51.069v-317.036c0-8.636-2.56-17.065-7.367-24.234l-25.503-38.01h21.299l25.503 38.01c4.818 7.169 7.378 15.597 7.378 24.234z" fill="#99e6fc"/><path d="m358.525 120.982v300.866c0 28.198-22.86 51.069-51.058 51.069h-214.868c-28.198 0-51.058-22.871-51.058-51.069v-317.035c0-.198 0-.395.01-.593 38.988 1.53 77.758 14.921 114.852 27.459 48.041 16.242 100.712 31.507 149.939 18.355 19.979-5.338 37.896-15.65 52.183-29.052z" fill="#d77f4a"/><path d="m358.525 120.982v300.866c0 28.198-22.86 51.069-51.058 51.069h-21.31c28.198 0 51.058-22.871 51.058-51.069v-284.852c7.741-4.589 14.89-9.989 21.31-16.014z" fill="#c86d36"/><g><g fill="#f3f0f3"><path d="m191.715 305.55-43.281 43.281c-3.728 3.728-9.773 3.728-13.501 0l-43.281-43.281c-3.728-3.728-3.728-9.773 0-13.501l43.281-43.281c3.728-3.728 9.773-3.728 13.501 0l43.281 43.281c3.729 3.728 3.729 9.773 0 13.501z"/><path d="m308.417 263.306-43.281 43.281c-3.728 3.728-9.773 3.728-13.501 0l-43.281-43.281c-3.728-3.728-3.728-9.773 0-13.501l43.281-43.281c3.728-3.728 9.773-3.728 13.501 0l43.281 43.281c3.729 3.728 3.729 9.772 0 13.501z"/></g></g><g><g fill="#e2dee2"><path d="m191.719 305.549-43.286 43.286c-3.725 3.725-9.77 3.725-13.495 0l-5.015-5.015 38.26-38.27c3.735-3.725 3.735-9.77 0-13.495l-38.26-38.27 5.015-5.015c3.725-3.725 9.77-3.725 13.495 0l43.286 43.286c3.725 3.723 3.725 9.768 0 13.493z"/><path d="m308.413 263.304-43.275 43.286c-3.736 3.725-9.77 3.725-13.506 0l-5.005-5.015 38.26-38.27c3.725-3.725 3.725-9.77 0-13.496l-38.26-38.27 5.005-5.015c3.735-3.725 9.77-3.725 13.506 0l43.275 43.286c3.736 3.724 3.736 9.769 0 13.494z"/></g></g><path d="m334.919 44.561h-269.773c-12.304 0-22.279-9.975-22.279-22.279 0-12.304 9.975-22.279 22.279-22.279h269.772c12.304 0 22.279 9.975 22.279 22.279.001 12.304-9.974 22.279-22.278 22.279z" fill="#62dbfb"/><path d="m357.193 22.277c0 6.16-2.487 11.727-6.524 15.764-4.027 4.027-9.594 6.524-15.753 6.524h-22.246c6.16 0 11.727-2.497 15.753-6.524 4.037-4.037 6.524-9.604 6.524-15.764 0-12.298-9.969-22.277-22.278-22.277h22.246c12.31 0 22.278 9.979 22.278 22.277z" fill="#01d0fb"/></g></svg>