<svg id="Capa_1" enable-background="new 0 0 496.77 496.77" height="512" viewBox="0 0 496.77 496.77" width="512" xmlns="http://www.w3.org/2000/svg"><path d="m429.965 222.67v-2.41c0-14.84-5.12-29.22-14.49-40.71l-54.67-67.05v-28.71l2.98-61.87h-227.82v61.87 28.71l-54.67 67.05c-9.37 11.49-14.49 25.87-14.49 40.71v2.41l29.775 56.642-29.775 117.238v47.21c0 29.28 23.73 53.01 53 53.01h257.16c29.27 0 53-23.73 53-53.01v-47.21l-41.882-109.186z" fill="#fdd79b"/><path d="m208.146 21.92h-72.181v61.87 28.71l-54.67 67.05c-9.37 11.49-14.49 25.87-14.49 40.71v2.41l29.775 56.642-29.775 117.238v47.21c0 29.276 23.733 53.01 53.01 53.01h46.865c-10.625-9.694-17.294-23.653-17.294-39.173v-223.5c0-14.84 5.12-29.22 14.49-40.71l36.528-44.799c4.9-6.01 8.869-12.649 11.829-19.697 6.376-15.177 21.168-25.101 37.63-25.101h110.943v-20l2.313-48.033.666-13.837h-155.639z" fill="#fccd7f"/><g><g><path d="m363.895 0h-7.047l-7.5 4.713-7.5-4.713h-25.615l-7.5 5.971-7.499-5.971h-25.615l-6.067 4.713-8.932-4.713h-25.616l-8.77 5.971-6.23-5.971h-25.614l-6.081 4.713-8.919-4.713h-25.615l-7.5 3.994-7.499-3.994h-6.901c-13.6 0-24.62 11.02-24.62 24.62v34.55c0 13.6 11.02 24.62 24.62 24.62h6.901l4.272-5.654 10.728 5.654h25.614l2.942-5.654 12.058 5.654h25.614l6.687-4.509 8.313 4.509h25.615l6.011-3.363 8.989 3.363h25.614l6.154-5.654 8.846 5.654h25.614l6.134-7.291 8.866 7.291h7.047c13.6 0 24.62-11.02 24.62-24.62v-34.55c.001-13.6-11.019-24.62-24.619-24.62z" fill="#99e6fc"/><g fill="#62dbfb"><path d="m138.776 0h15v83.79h-15z"/><path d="m179.39 0h15v83.79h-15z"/><path d="m220.004 0h15v83.79h-15z"/><path d="m260.619 0h15v83.79h-15z"/><path d="m301.234 0h15v83.79h-15z"/><path d="m341.848 0h15v83.79h-15z"/></g><path d="m380.485 222.67c-16.18 0-31.71-5.96-44.02-16.46-23.72-20.22-54.47-32.43-88.08-32.43s-64.36 12.21-88.08 32.43c-12.31 10.5-27.84 16.46-44.02 16.46h-49.48l29.775 56.642-29.775 117.238h49.48c16.18 0 31.71 5.97 44.02 16.46 23.72 20.23 54.47 32.43 88.08 32.43s64.36-12.2 88.08-32.43c12.31-10.49 27.84-16.46 44.02-16.46h49.48v-173.88z" fill="#99e6fc"/><path d="m323.914 268.061c-11.174-16.066-32.961-21.345-50.265-12.203-7.317 3.865-12.863 9.667-16.394 16.408-4.66 8.895-11.591 16.396-20.208 21.55l-3.271 1.956c-8.618 5.154-18.505 7.711-28.546 7.607-7.609-.079-15.345 2.063-22.212 6.68-16.241 10.919-21.899 32.611-13.031 50.057 10.376 20.413 35.642 27.464 54.959 15.912 6.509-3.893 11.473-9.38 14.697-15.665 4.531-8.833 11.533-16.155 20.053-21.25l3.272-1.957c8.52-5.095 18.284-7.8 28.209-7.612 7.062.133 14.245-1.644 20.754-5.536 19.315-11.553 25.058-37.148 11.983-55.947z" fill="#e19974"/></g><path d="m149.385 405.38v-171.283c0-7.858 1.449-15.583 4.192-22.823-11.025 7.325-23.934 11.396-37.292 11.396h-49.48v173.88h49.48c11.7 0 23.052 3.136 33.1 8.83z" fill="#62dbfb"/></g></svg>