<?xml version="1.0" encoding="iso-8859-1"?>
<!-- Generator: Adobe Illustrator 19.0.0, SVG Export Plug-In . SVG Version: 6.00 Build 0)  -->
<svg version="1.1" id="Capa_1" xmlns="http://www.w3.org/2000/svg" xmlns:xlink="http://www.w3.org/1999/xlink" x="0px" y="0px"
	 viewBox="0 0 512.752 512.752" style="enable-background:new 0 0 512.752 512.752;" xml:space="preserve">
<rect x="247.528" y="152.592" style="fill:#8BC540;" width="17.616" height="359.392"/>
<path style="fill:#E14B4B;" d="M362.84,106.496c0-16.496-12.112-30.064-27.888-32.56c9.392-12.944,8.368-31.088-3.296-42.752
	s-29.808-12.704-42.752-3.296C286.392,12.096,272.84,0,256.344,0s-30.064,12.112-32.56,27.888
	c-12.944-9.392-31.088-8.368-42.752,3.296s-12.704,29.808-3.296,42.752c-15.808,2.496-27.92,16.064-27.92,32.56
	s12.112,30.064,27.888,32.56c-9.392,12.944-8.368,31.088,3.296,42.752s29.808,12.704,42.752,3.296
	c2.512,15.792,16.064,27.888,32.56,27.888s30.064-12.112,32.56-27.888c12.944,9.392,31.088,8.368,42.752-3.296
	c11.664-11.664,12.704-29.808,3.296-42.752C350.744,136.56,362.84,122.992,362.84,106.496z"/>
<circle style="fill:#FFFFFF;" cx="256.328" cy="106.496" r="41.984"/>
<path style="fill:#8BC540;" d="M410.344,246.432c-94.928,35.104-162.736,126.16-162.736,233.28c5.872,0,11.744,0,17.616,0
	c0-97.264,60.096-180.352,145.12-214.544V246.432z"/>
<path style="fill:#6DAFDF;" d="M495.336,278.32c0-16.496-12.112-30.064-27.888-32.56c9.392-12.944,8.368-31.088-3.296-42.752
	s-29.808-12.704-42.752-3.296c-2.512-15.792-16.064-27.888-32.56-27.888s-30.064,12.112-32.56,27.888
	c-12.944-9.392-31.088-8.368-42.752,3.296s-12.704,29.808-3.296,42.752c-15.792,2.512-27.888,16.064-27.888,32.56
	s12.112,30.064,27.888,32.56c-9.392,12.944-8.368,31.088,3.296,42.752c11.664,11.664,29.808,12.704,42.752,3.296
	c2.512,15.792,16.064,27.888,32.56,27.888s30.064-12.112,32.56-27.888c12.944,9.392,31.088,8.368,42.752-3.296
	s12.704-29.808,3.296-42.752C483.24,308.384,495.336,294.816,495.336,278.32z"/>
<circle style="fill:#F4F4F4;" cx="388.824" cy="278.32" r="41.984"/>
<circle style="fill:#6DAFDF;" cx="388.824" cy="278.32" r="25.936"/>
<circle style="fill:#E14B4B;" cx="256.328" cy="106.496" r="25.936"/>
<path style="fill:#8BC540;" d="M77.88,238.8v18.176C175.64,284,247.528,373.36,247.528,479.712c5.872,0,11.744,0,17.616,0
	C265.144,363.552,185.464,266.272,77.88,238.8z"/>
<g>
	<path style="fill:#E14B4B;" d="M268.584,415.632c-0.48,0.32-38.72,40.48-44.16,88.8c-3.2-4.944-4.608-10.352-4.544-16.112
		c-3.968,2.624-7.664,8.128-11.296,14.352c5.92-53.92,46.72-96.48,48.48-98.24L268.584,415.632z"/>
	<path style="fill:#E14B4B;" d="M332.264,511.152c-3.84-5.488-8.208-9.744-13.312-12.192c0.896,4.88,0.016,9.488-2.688,13.792
		c0,0-3.04-15.52-35.36-44c-40.16-35.52-27.52-66.24-27.04-67.52l7.36,3.2l7.36,3.2c-0.64,1.6-7.36,22.4,23.04,49.12
		C329.224,489.872,331.944,509.072,332.264,511.152z"/>
	<path style="fill:#E14B4B;" d="M268.584,407.472c0,0,0,0,0,0.16l-7.36-3.2L268.584,407.472z"/>
</g>
<path style="fill:#FFD83B;" d="M17.416,278.32c0-16.496,12.112-30.064,27.888-32.56c-9.392-12.944-8.368-31.088,3.296-42.752
	s29.808-12.704,42.752-3.296c2.512-15.792,16.064-27.888,32.56-27.888s30.064,12.112,32.56,27.888
	c12.944-9.392,31.088-8.368,42.752,3.296s12.704,29.808,3.296,42.752c15.792,2.512,27.888,16.064,27.888,32.56
	s-12.112,30.064-27.888,32.56c9.392,12.944,8.368,31.088-3.296,42.752c-11.664,11.664-29.808,12.704-42.752,3.296
	c-2.512,15.792-16.064,27.888-32.56,27.888s-30.064-12.112-32.56-27.888c-12.944,9.392-31.088,8.368-42.752-3.296
	s-12.704-29.808-3.296-42.752C29.512,308.384,17.416,294.816,17.416,278.32z"/>
<circle style="fill:#FFFFFF;" cx="123.928" cy="278.32" r="41.984"/>
<circle style="fill:#FFD83B;" cx="123.928" cy="278.32" r="25.936"/>
<path style="fill:#E14B4B;" d="M361.592,396.976c-15.616-27.472-108.224-11.072-105.376-6.864
	c2.832-4.192-89.52-20.576-105.136,6.864c-4.656,7.68,21.824,11.76,25.968,25.2c4.016,12.976-8.048,32.8-0.192,35.328
	c17.024,4.256,76.144-33.44,79.36-30.848c3.232-2.608,62.56,35.088,79.584,30.848c7.856-2.544-4.208-22.368-0.192-35.328
	C339.784,408.72,366.248,404.656,361.592,396.976z"/>
<path style="fill:#E9EFF4;" d="M286.056,410.32c-2.016,13.456-15.296,22.64-29.712,22.704c-14.416-0.048-27.696-9.248-29.712-22.704
	c-2.048-13.392,11.216-26.48,29.712-26.464C274.824,383.84,288.088,396.928,286.056,410.32z"/>
<path style="fill:#E14B4B;" d="M273.352,409.056c-0.672,7.744-8.272,13.44-17.024,13.456c-8.736-0.016-16.368-5.696-17.024-13.456
	c-0.672-7.728,6.944-14.688,17.024-14.672C266.408,394.368,274.024,401.328,273.352,409.056z"/>
<g>
</g>
<g>
</g>
<g>
</g>
<g>
</g>
<g>
</g>
<g>
</g>
<g>
</g>
<g>
</g>
<g>
</g>
<g>
</g>
<g>
</g>
<g>
</g>
<g>
</g>
<g>
</g>
<g>
</g>
</svg>
