<svg id="Capa_1" enable-background="new 0 0 490.278 490.278" height="512" viewBox="0 0 490.278 490.278" width="512" xmlns="http://www.w3.org/2000/svg"><g><path d="m313.707 386.971h-137.136l-13.952 60.683h165.041z" fill="#62667c"/><path d="m23.628 33.221h443.023c13.049 0 23.628 10.579 23.628 23.628v312.768c0 13.049-10.579 23.628-23.628 23.628h-443.023c-13.049 0-23.628-10.579-23.628-23.628v-312.768c0-13.05 10.579-23.628 23.628-23.628z" fill="#575b6d"/><path d="m29.121 62.348h432.03v272.648h-432.03z" fill="#69b0ee"/><path d="m160.156 433.087h169.967c13.049 0 23.628 10.579 23.628 23.628v.343h-217.223v-.343c0-13.049 10.578-23.628 23.628-23.628z" fill="#575b6d"/><circle cx="412.608" cy="364.218" fill="#414451" r="10.621"/><circle cx="370.137" cy="364.218" fill="#414451" r="10.621"/><circle cx="327.66" cy="364.218" fill="#414451" r="10.621"/><path d="m335.014 134.46v93.023c0 7.383-5.985 13.367-13.367 13.367h-98.57l-40.51 35.395v-35.395h-13.94c-7.383 0-13.367-5.985-13.367-13.367v-93.023c0-7.383 5.985-13.367 13.367-13.367h.006 152.99c7.383-.013 13.378 5.961 13.391 13.344z" fill="#eeefee"/><g fill="#575b6d"><circle cx="193.016" cy="180.972" r="12.115"/><ellipse cx="245.139" cy="180.972" rx="12.115" ry="12.115" transform="matrix(.16 -.987 .987 .16 27.237 393.957)"/><circle cx="297.262" cy="180.972" r="12.115"/></g></g></svg>