<?xml version="1.0" encoding="iso-8859-1"?>
<!-- Generator: Adobe Illustrator 19.0.0, SVG Export Plug-In . SVG Version: 6.00 Build 0)  -->
<svg xmlns="http://www.w3.org/2000/svg" xmlns:xlink="http://www.w3.org/1999/xlink" version="1.1" id="Layer_1" x="0px" y="0px" viewBox="0 0 513.07 513.07" style="enable-background:new 0 0 513.07 513.07;" xml:space="preserve">
<g>
	<path style="fill:#66C6B9;" d="M299.35,420.27c213.333,44.8,162.133-219.733,192-294.4   C401.75,203.737,203.35,219.737,299.35,420.27z"/>
	<path style="fill:#66C6B9;" d="M239.617,468.27C93.483,546.137,74.283,342.404,36.95,294.404   C119.083,332.804,266.283,301.87,239.617,468.27z"/>
</g>
<path style="fill:#415A6B;" d="M266.283,513.07h26.667c0-20.267-2.133-40.533-4.267-60.8c20.267-27.733,39.467-60.8,58.667-94.933  c33.067-10.667,61.867-25.6,83.2-45.867c-20.267,14.933-46.933,25.6-75.733,33.067c12.8-23.467,25.6-46.933,38.4-69.333  c22.4-12.8,40.533-29.867,58.667-46.933c-16,13.867-32,26.667-52.267,36.267c11.733-20.267,23.467-40.533,34.133-58.667  c-19.2,28.8-40.533,60.8-64,92.8c-2.133-28.8,0-53.333,5.333-73.6c-9.6,24.533-14.933,53.333-13.867,86.4  c-26.667,38.4-53.333,75.733-76.8,110.933c-10.667-68.267-32-129.067-52.267-178.133l-30.933-1.067  c27.733,60.8,55.467,142.933,62.933,235.733c-27.733-22.4-61.867-49.067-93.867-75.733c-6.4-24.533-17.067-43.733-28.8-59.733  c8.533,13.867,14.933,32,20.267,52.267c-23.467-19.2-45.867-37.333-66.133-54.4c11.733,10.667,24.533,22.4,37.333,35.2  c-16-3.2-30.933-8.533-45.867-14.933c17.067,9.6,33.067,17.067,52.267,21.333c13.867,13.867,28.8,27.733,42.667,41.6  c-23.467,1.067-44.8-1.067-62.933-7.467c20.267,10.667,44.8,14.933,70.4,16c25.6,24.533,51.2,48,74.667,65.067  C266.283,503.47,266.283,507.737,266.283,513.07z"/>
<path style="fill:#F3705A;" d="M289.75,92.804c-11.733,0-32,5.333-52.267,11.733c16-13.867,30.933-28.8,36.267-39.467  c17.067-28.8-22.4-10.667-49.067-25.6S194.817-19.196,177.75,9.604c-6.4,10.667-11.733,29.867-16,51.2  c-4.267-21.333-9.6-40.533-16-51.2c-17.067-28.8-20.267,14.933-46.933,29.867c-24.533,16-64-2.133-46.933,26.667  c6.4,10.667,20.267,24.533,36.267,39.467c-20.267-7.467-39.467-12.8-52.267-12.8c-33.067,0,2.133,24.533,2.133,55.467  s-35.2,55.467-2.133,55.467c11.733,0,32-5.333,52.267-11.733c-16,13.867-30.933,28.8-36.267,39.467  c-17.067,28.8,22.4,10.667,49.067,25.6c26.667,14.933,29.867,58.667,46.933,29.867c6.4-10.667,11.733-29.867,16-51.2  c4.267,21.333,9.6,40.533,16,51.2c17.067,28.8,20.267-14.933,46.933-29.867c26.667-14.933,66.133,3.2,49.067-25.6  c-6.4-10.667-20.267-24.533-36.267-39.467c20.267,7.467,40.533,11.733,52.267,11.733c33.067,0-2.133-24.533-2.133-55.467  S322.817,92.804,289.75,92.804z"/>
<circle style="fill:#F05540;" cx="162.817" cy="148.27" r="62.933"/>
<circle style="fill:#F3705A;" cx="162.817" cy="148.27" r="23.467"/>
<g>
</g>
<g>
</g>
<g>
</g>
<g>
</g>
<g>
</g>
<g>
</g>
<g>
</g>
<g>
</g>
<g>
</g>
<g>
</g>
<g>
</g>
<g>
</g>
<g>
</g>
<g>
</g>
<g>
</g>
</svg>
