<svg height="512" viewBox="0 0 58 58" width="512" xmlns="http://www.w3.org/2000/svg"><g id="Page-1" fill="none" fill-rule="evenodd"><g id="050---Message-Settings" transform="translate(-1 -1)"><path id="Path" d="m27.652 1.093c-10.2076932.82878727-19.22137733 6.98012201-23.7139296 16.1834292-4.49255226 9.2033072-3.79775472 20.0937928 1.8279296 28.6515708.18170421.2696495.21909922.6114398.1.914l-4 9.992c-.14868731.3714617-.06164234.7957948.22128144 1.0787186.28292377.2829237.70725684.3699687 1.07871856.2212814l9.992-4c.3025602-.1190992.6443505-.0817042.914.1 10.6009583 6.9658339 24.4989319 6.2336095 34.3092335-1.8076057s13.2560746-21.525149 8.5064077-33.2871142c-4.7496669-11.7619651-16.5924313-19.07214663-29.2356412-18.0462801z" fill="#f0c419"/><path id="Path" d="m43.181 52.25c-.4467587.0007189-.8397951-.2949893-.9628974-.7244537s.0535982-.8884828.4328974-1.1245463c2.7495131-1.7051015 5.1244325-3.9504056 6.981-6.6.3223384-.4368355.9343353-.536699 1.3788184-.2249906.4444831.3117083.5590786.9211186.2581816 1.3729906-2.0108202 2.8704469-4.5830186 5.3031662-7.561 7.151-.1582751.0980901-.340794.1500405-.527.15z" fill="#f29c1f"/><path id="Path" d="m8.749 17.82c-.36305973-.0000887-.69755091-.196947-.87388594-.5143085s-.16680961-.7053651.02488594-1.0136915c1.84608092-2.9774013 4.2767194-5.5495578 7.145-7.561.451872-.30089697 1.0612823-.18630151 1.3729906.25818158.3117084.4444831.2118449 1.05648002-.2249906 1.37881842-2.647067 1.8572934-4.8899434 4.2321638-6.593 6.981-.18306232.2936708-.50494559.4718224-.851.471z" fill="#f3d55b"/><path id="Path" d="m50 31.558v-3.116c.0010693-.8619508-.5502154-1.627624-1.368-1.9l-3.3-1.1c-.3134257-1.0656175-.7373967-2.0955487-1.265-3.073l1.551-3.1c.3850723-.7701446.2340074-1.7003019-.375-2.309l-2.2-2.2c-.6086981-.6090074-1.5388554-.7600723-2.309-.375l-3.1 1.551c-.9774513-.5276033-2.0073825-.9515743-3.073-1.265l-1.1-3.3c-.27168-.8200208-1.0391479-1.3729365-1.903-1.371h-3.116c-.8619508-.0010693-1.627624.5502154-1.9 1.368l-1.1 3.3c-1.0656175.3134257-2.0955487.7373967-3.073 1.265l-3.1-1.551c-.7701446-.3850723-1.7003019-.2340074-2.309.375l-2.2 2.2c-.6090074.6086981-.7600723 1.5388554-.375 2.309l1.551 3.1c-.5276033.9774513-.9515743 2.0073825-1.265 3.073l-3.3 1.1c-.8200208.27168-1.3729365 1.0391479-1.371 1.903v3.116c-.0010693.8619508.5502154 1.627624 1.368 1.9l3.3 1.1c.3134257 1.0656175.7373967 2.0955487 1.265 3.073l-1.551 3.1c-.3850723.7701446-.2340074 1.7003019.375 2.309l2.2 2.2c.6086981.6090074 1.5388554.7600723 2.309.375l3.1-1.552c.9772249.5283394 2.0071993.9526633 3.073 1.266l1.1 3.3c.27168.8200208 1.0391479 1.3729365 1.903 1.371h3.116c.8619508.0010693 1.627624-.5502154 1.9-1.368l1.1-3.3c1.0658007-.3133367 2.0957751-.7376606 3.073-1.266l3.1 1.552c.7701446.3850723 1.7003019.2340074 2.309-.375l2.2-2.2c.6090074-.6086981.7600723-1.5388554.375-2.309l-1.551-3.1c.5276033-.9774513.9515743-2.0073825 1.265-3.073l3.3-1.1c.8200208-.27168 1.3729365-1.0391479 1.371-1.903z" fill="#95a5a5"/><circle id="Oval" cx="30" cy="30" fill="#7f8c8d" r="12"/><circle id="Oval" cx="30" cy="30" fill="#547580" r="3"/></g></g></svg>