<svg id="Layer_1" enable-background="new 0 0 512 512" height="512" viewBox="0 0 512 512" width="512" xmlns="http://www.w3.org/2000/svg"><g><g><g><path d="m469.252 42.748c-39.355-39.355-98.893-34.563-142.519-.002-63.365 50.207-192.4 49.889-252.699 110.191-78.711 78.709-78.713 206.323-.002 285.032 78.707 78.711 206.322 78.707 285.03-.002 60.303-60.301 59.984-189.336 110.189-252.701 34.562-43.625 39.356-103.164.001-142.518z" fill="#54e360"/><path d="m469.252 42.748-395.22 395.221c78.707 78.711 206.322 78.707 285.03-.002 60.303-60.301 59.984-189.336 110.189-252.701 34.562-43.625 39.356-103.164.001-142.518z" fill="#1fbf66"/><path d="m216.561 512c-.007 0-.011 0-.018 0-57.846-.004-112.224-22.529-153.117-63.425-40.902-40.9-63.427-95.28-63.426-153.122s22.526-112.222 63.428-153.121c35.109-35.113 89.545-50.666 142.188-65.707 43.598-12.457 84.777-24.223 111.803-45.636 25.226-19.984 55.277-30.989 84.621-30.989 29.882 0 56.791 11.114 77.818 32.142 21.741 21.739 32.844 49.617 32.107 80.619-.674 28.415-11.668 57.472-30.956 81.819-21.413 27.025-33.179 68.205-45.635 111.803-15.041 52.644-30.594 107.079-65.706 142.19-40.899 40.902-95.275 63.427-153.107 63.427zm185.479-482c-22.609 0-46.046 8.702-65.992 24.504-31.69 25.109-77.698 38.255-122.191 50.967-48.968 13.991-99.603 28.458-129.215 58.073-35.237 35.234-54.642 82.081-54.642 131.909 0 49.829 19.404 96.675 54.639 131.909 35.229 35.229 82.073 54.634 131.906 54.638h.016c49.821.002 96.659-19.402 131.896-54.64 29.615-29.614 44.082-80.251 58.073-129.22 12.712-44.492 25.856-90.5 50.966-122.19 32.207-40.654 32.68-91.067 1.15-122.596-15.28-15.279-34.853-23.354-56.606-23.354z" fill="#265c76"/></g><path d="m298.412 213.589c-21.865-21.867-50.938-33.909-81.863-33.909s-59.999 12.042-81.865 33.909c-45.141 45.14-45.141 118.589 0 163.729 21.863 21.864 50.936 33.907 81.862 33.909h.01c30.919 0 59.99-12.042 81.856-33.909 45.139-45.14 45.139-118.589 0-163.729z" fill="#ca6d36"/></g><path d="m298.411 213.588-163.728 163.728.001.001c21.863 21.864 50.936 33.907 81.862 33.909h.01c30.919 0 59.99-12.042 81.856-33.909 45.139-45.139 45.139-118.588-.001-163.729z" fill="#b24d00"/><path d="m479.858 32.142-21.213 21.213c31.529 31.528 31.057 81.941-1.15 122.596-25.109 31.69-38.254 77.698-50.966 122.19-13.991 48.969-28.458 99.605-58.073 129.22-35.236 35.237-82.074 54.642-131.896 54.64-.003 0-.016 0-.016 0-49.833-.004-96.678-19.408-131.906-54.638 0 0 0-.001-.001-.001l-21.213 21.213.001.001c40.894 40.896 95.271 63.421 153.117 63.425h.018c57.832 0 112.208-22.525 153.108-63.427 35.112-35.111 50.665-89.547 65.706-142.19 12.456-43.598 24.222-84.777 45.635-111.803 19.288-24.348 30.282-53.404 30.956-81.819.737-31.003-10.365-58.881-32.107-80.62z" fill="#1d4659"/></g></svg>