<svg id="Capa_1" enable-background="new 0 0 512 512" height="512" viewBox="0 0 512 512" width="512" xmlns="http://www.w3.org/2000/svg"><g><g><path d="m376.5 15v482c0 8.28-6.72 15-15 15h-346.5c-8.28 0-15-6.72-15-15v-371.11l125.9-125.89h235.6c8.28 0 15 6.72 15 15z" fill="#f0f7ff"/></g><g><path d="m125.9 0v110.89c0 8.28-6.72 15-15 15h-110.9v-14.99c0-3.81 1.45-7.66 4.66-10.87l95.63-95.64c2.72-2.72 6.53-4.39 10.61-4.39z" fill="#dfe7f4"/></g><g><path d="m166 185.895h-90.997c-8.284 0-15-6.716-15-15s6.716-15 15-15h90.997c8.284 0 15 6.716 15 15s-6.716 15-15 15z" fill="#4793ff"/></g><g><path d="m166 245.895h-90.997c-8.284 0-15-6.716-15-15s6.716-15 15-15h90.997c8.284 0 15 6.716 15 15s-6.716 15-15 15z" fill="#4793ff"/></g><g><path d="m166 305.895h-90.997c-8.284 0-15-6.716-15-15s6.716-15 15-15h90.997c8.284 0 15 6.716 15 15s-6.716 15-15 15z" fill="#4793ff"/></g><g><path d="m166 365.895h-90.997c-8.284 0-15-6.716-15-15s6.716-15 15-15h90.997c8.284 0 15 6.716 15 15s-6.716 15-15 15z" fill="#4793ff"/></g><g><path d="m166 425.895h-90.997c-8.284 0-15-6.716-15-15s6.716-15 15-15h90.997c8.284 0 15 6.716 15 15s-6.716 15-15 15z" fill="#4793ff"/></g><path d="m376.5 15v482c0 8.28-6.72 15-15 15h-173.25v-512h173.25c8.28 0 15 6.72 15 15z" fill="#dfe7f4"/><g><g><g><g><g><path d="m498.65 215.75-31.8-3.53 19.94-25.02c4.76-5.98 4.27-14.59-1.15-19.98l-35.92-35.76c-5.41-5.39-14.02-5.85-19.98-1.06l-24.52 19.72-3.47-31.27c-.84-7.6-7.26-13.35-14.91-13.35h-50.68c-7.65 0-14.07 5.75-14.91 13.35l-3.53 31.8-25.02-19.94c-5.98-4.76-14.59-4.27-19.98 1.15l-35.76 35.92c-5.39 5.42-5.85 14.02-1.06 19.98l19.72 24.52-31.27 3.47c-7.6.84-13.35 7.27-13.35 14.91v50.68c0 7.64 5.75 14.07 13.35 14.91l31.8 3.53-19.94 25.02c-4.76 5.98-4.27 14.59 1.15 19.98l35.92 35.76c5.41 5.39 14.02 5.85 19.98 1.06l24.52-19.72 3.47 31.27c.84 7.6 7.26 13.35 14.91 13.35h50.68c7.65 0 14.07-5.75 14.91-13.35l3.53-31.8 25.02 19.94c5.98 4.76 14.59 4.27 19.98-1.15l35.76-35.92c5.39-5.42 5.85-14.02 1.06-19.98l-19.72-24.52 31.27-3.47c7.6-.84 13.35-7.27 13.35-14.91v-50.68c0-7.64-5.75-14.07-13.35-14.91zm-137.15 96.64c-31.09 0-56.39-25.3-56.39-56.39s25.3-56.39 56.39-56.39 56.39 25.3 56.39 56.39-25.3 56.39-56.39 56.39z" fill="#5e54ac"/></g></g></g></g></g><path d="m512 230.66v50.68c0 7.64-5.75 14.07-13.35 14.91l-31.27 3.47 19.72 24.52c4.79 5.96 4.33 14.56-1.06 19.98l-35.76 35.92c-5.39 5.42-14 5.91-19.98 1.15l-25.02-19.94-3.53 31.8c-.84 7.6-7.26 13.35-14.91 13.35h-25.34v-94.11c31.09 0 56.39-25.3 56.39-56.39s-25.3-56.39-56.39-56.39v-94.11h25.34c7.65 0 14.07 5.75 14.91 13.35l3.47 31.27 24.52-19.72c5.96-4.79 14.57-4.33 19.98 1.06l35.92 35.76c5.42 5.39 5.91 14 1.15 19.98l-19.94 25.02 31.8 3.53c7.6.84 13.35 7.27 13.35 14.91z" fill="#453d81"/></g></svg>