<svg id="Layer_1" enable-background="new 0 0 512 512" height="512" viewBox="0 0 512 512" width="512" xmlns="http://www.w3.org/2000/svg"><g clip-rule="evenodd" fill-rule="evenodd"><g><path d="m13.553 20.86h281.396c2.632 0 4.897.938 6.759 2.799l70.87 70.87c1.861 1.861 2.799 4.126 2.799 6.759v380.294c0 5.265-4.294 9.558-9.559 9.558h-352.265c-5.265 0-9.559-4.294-9.559-9.558v-451.164c.001-5.264 4.294-9.558 9.559-9.558z" fill="#f2f2f2"/><path d="m298.908 21.689c1.015.463 1.95 1.121 2.799 1.971l70.87 70.87c.85.85 1.507 1.784 1.971 2.799h-65.64c-5.508 0-10-4.492-10-10z" fill="#ccc"/><path d="m79.6 132.911c-5.523 0-10-4.477-10-10s4.477-10 10-10h110.086c5.523 0 10 4.477 10 10s-4.477 10-10 10zm0 230.936c-5.523 0-10-4.477-10-10s4.477-10 10-10h164.251c5.523 0 10 4.477 10 10s-4.477 10-10 10zm0 57.734c-5.523 0-10-4.477-10-10s4.477-10 10-10h164.251c5.523 0 10 4.477 10 10s-4.477 10-10 10zm0-115.468c-5.523 0-10-4.477-10-10s4.477-10 10-10h164.251c5.523 0 10 4.477 10 10s-4.477 10-10 10zm0-57.734c-5.523 0-10-4.477-10-10s4.477-10 10-10h220.172c5.523 0 10 4.477 10 10s-4.477 10-10 10zm0-57.734c-5.523 0-10-4.477-10-10s4.477-10 10-10h220.172c5.523 0 10 4.477 10 10s-4.477 10-10 10z" fill="#515151"/></g><g><path d="m418.468 122.503c8.785-15.217 28.424-20.479 43.64-11.694 15.217 8.786 20.478 28.424 11.693 43.641l-124.916 216.36-55.129 37.978c-1.604 1.105-3.585 1.168-5.257.166-1.671-1.001-2.549-2.778-2.331-4.714l7.383-65.376z" fill="#ffd54f"/><path d="m349.152 370.356s-55.34-31.951-55.336-31.948c-.174.302-.264.456-.264.456l-7.383 65.377c-.219 1.936.66 3.712 2.331 4.714s3.652.939 5.257-.166l55.129-37.978c-.001-.001.089-.155.266-.455z" fill="#656565"/><path d="m361.797 220.661 55.333 31.946c29.185-50.551 56.671-98.157 56.671-98.157 8.785-15.217 3.524-34.855-11.693-43.641-15.217-8.785-34.855-3.523-43.64 11.694 0 0-27.486 47.607-56.671 98.158z" fill="#656565"/><path d="m414.992 128.524 88.151 50.894c4.649 2.684 6.242 8.63 3.558 13.279l-35.004 60.629c-2.684 4.649-8.63 6.242-13.279 3.558s-6.242-8.63-3.558-13.279l30.144-52.211-79.733-46.034z" fill="#515151"/></g></g></svg>