<?xml version="1.0" encoding="iso-8859-1"?>
<!-- Generator: Adobe Illustrator 19.0.0, SVG Export Plug-In . SVG Version: 6.00 Build 0)  -->
<svg version="1.1" id="Capa_1" xmlns="http://www.w3.org/2000/svg" xmlns:xlink="http://www.w3.org/1999/xlink" x="0px" y="0px"
	 viewBox="0 0 512 512" style="enable-background:new 0 0 512 512;" xml:space="preserve">
<polygon style="fill:#87A0AF;" points="298.524,0 256,0 235.984,83.801 309.155,63.785 "/>
<g>
	<polygon style="fill:#B4D2D7;" points="213.476,0 202.846,63.785 256,83.801 256,0 	"/>
	<polygon style="fill:#B4D2D7;" points="256,512 346.363,512 372.115,244.511 235.984,224.495 	"/>
</g>
<polygon style="fill:#E1EBF0;" points="139.885,244.511 165.637,512 256,512 256,224.495 "/>
<polygon style="fill:#87A0AF;" points="378.255,180.725 378.255,180.725 235.984,160.709 256,244.511 372.115,244.511 "/>
<g>
	<polygon style="fill:#B4D2D7;" points="133.745,180.725 133.745,180.725 139.885,244.511 256,244.511 256,160.709 	"/>
	<polygon style="fill:#B4D2D7;" points="346.363,63.785 256,63.785 235.984,122.255 256,180.725 378.255,180.725 	"/>
</g>
<polygon style="fill:#E1EBF0;" points="165.637,63.785 133.745,180.725 256,180.725 256,63.785 "/>
<g>
</g>
<g>
</g>
<g>
</g>
<g>
</g>
<g>
</g>
<g>
</g>
<g>
</g>
<g>
</g>
<g>
</g>
<g>
</g>
<g>
</g>
<g>
</g>
<g>
</g>
<g>
</g>
<g>
</g>
</svg>
