<svg id="Capa_1" enable-background="new 0 0 512 512" height="512" viewBox="0 0 512 512" width="512" xmlns="http://www.w3.org/2000/svg"><g><path d="m417.52 362.727-267.981-268.632c-4.751-4.762-10.722-4.427-10.622-4.407-3.98 0-7.798 1.582-10.612 4.397l-75.732 75.771c-72.478 72.515-57.391 141.2-29.418 217.855 9.967 27.312 18.574 50.9 15.115 68.424-2.067 10.468 7.164 19.69 17.629 17.628 17.511-3.463 41.084 5.15 68.379 15.122 84.118 30.727 148.708 39.649 217.758-29.436l75.475-75.514c5.852-5.856 5.857-15.346.009-21.208z" fill="#f4a56d"/><path d="m417.508 383.931-75.474 75.521c-69.052 69.079-133.642 60.155-217.758 29.432-27.299-9.974-50.866-18.588-68.382-15.116-5.922 1.17-11.454-1.28-14.745-5.532l241.096-241.111 135.272 135.597c5.853 5.863 5.843 15.357-.009 21.209z" fill="#e7985b"/><path d="m459.897 116.172-64.007-64.039c-63.019-63.051-163.088-69.766-233.97-15.468-47.213 36.165-51.942 105.809-9.776 147.997l175.274 175.366c42.326 42.347 111.9 37.314 147.938-9.78 54.169-70.787 47.673-170.91-15.459-234.076z" fill="#a14e3d"/><path d="m475.357 350.247c-36.041 47.09-105.613 52.132-147.936 9.784l-78.565-78.613-10.443-10.444v-.01l39.712-39.717 30.53-30.533 48.925-48.93 31.23-31.233 37.742-37.746 10.934 10.934 22.417 22.429c63.128 63.168 69.621 163.289 15.454 234.079z" fill="#804230"/><path d="m430.057 100.824 44.154-44.394c5.841-5.878 5.811-15.379-.067-21.222-5.879-5.841-15.379-5.811-21.22.068l-44.082 44.322z" fill="#a14e3d"/><path d="m474.206 56.424-44.154 44.398-10.753-10.764 54.847-54.853c5.872 5.843 5.902 15.347.06 21.219z" fill="#804230"/><path d="m388.813 231.243h48.669v50.18h-48.669z" fill="#a14e3d"/><path d="m228.503 42.323h50.146v-42.108c-16.77-.811-33.662.744-50.146 4.698z" fill="#b65d49"/><path d="m467.491 201.23h39.77c-4.037-17.199-10.639-33.886-19.789-49.442h-19.981z" fill="#a14e3d"/><path d="m437.481 93.745-21.398-21.41h-27.27v49.441h48.668z" fill="#a14e3d"/><path d="m437.481 93.745-21.398-21.41h-27.27v49.441h48.668z" fill="#b65d49"/><path d="m437.485 93.74v28.032h-48.676v-1.221l37.742-37.745z" fill="#a14e3d"/><path d="m511.663 231.243h-44.172v50.18h40.118c3.734-16.515 5.071-33.419 4.054-50.18z" fill="#a14e3d"/><path d="m308.658 72.335h50.145v49.441h-50.145z" fill="#b65d49"/><path d="m308.658 4.233v38.09h50.145v-18.631c-15.788-9.09-32.714-15.595-50.145-19.459z" fill="#b65d49"/><path d="m308.658 151.788h50.145v49.442h-50.145z" fill="#a14e3d"/><path d="m308.658 151.788h50.145v49.442h-50.145z" fill="#b65d49"/><g fill="#a14e3d"><path d="m358.8 151.784v49.451h-50.146v-.52l48.926-48.931z"/><path d="m308.658 231.243h50.145v50.18h-50.145z"/><path d="m388.813 151.788h48.669v49.442h-48.669z"/><path d="m437.481 311.435h-48.669v77.13c16.572 1.373 33.364-1.445 48.669-8.299z"/><path d="m358.803 311.435h-50.145v29.822l18.761 18.771c9.35 9.354 20.03 16.393 31.384 21.181z"/></g><path d="m198.493 42.323v-27.299c-12.771 5.62-25.059 12.82-36.573 21.64-2.355 1.804-4.6 3.695-6.744 5.659z" fill="#b65d49"/><path d="m467.491 311.435v47.892c2.765-2.83 5.397-5.853 7.867-9.08 9.321-12.181 16.846-25.231 22.595-38.812z" fill="#a14e3d"/><path d="m228.503 151.788h50.146v49.442h-50.146z" fill="#b65d49"/><path d="m278.648 231.243h-50.145v29.817l20.352 20.363h29.793z" fill="#b65d49"/><path d="m278.645 231.247v50.171h-29.79l-10.443-10.444v-.01l39.713-39.717z" fill="#a14e3d"/><path d="m123.53 121.776h74.963v-49.441h-65.55c-7.38 15.46-10.563 32.544-9.413 49.441z" fill="#b65d49"/><path d="m198.493 151.788h-68.108c4.79 11.921 12.021 23.13 21.759 32.873l16.56 16.568h29.789z" fill="#b65d49"/><path d="m228.503 72.335h50.146v49.441h-50.146z" fill="#b65d49"/></g></svg>