<?xml version="1.0" encoding="iso-8859-1"?>
<!-- Generator: Adobe Illustrator 19.0.0, SVG Export Plug-In . SVG Version: 6.00 Build 0)  -->
<svg version="1.1" id="Capa_1" xmlns="http://www.w3.org/2000/svg" xmlns:xlink="http://www.w3.org/1999/xlink" x="0px" y="0px"
	 viewBox="0 0 468.293 468.293" style="enable-background:new 0 0 468.293 468.293;" xml:space="preserve">
<path style="fill:#27A2DB;" d="M31.409,354.189V84.941c0-6.897,5.591-12.488,12.488-12.488h380.497
	c6.897,0,12.488,5.591,12.488,12.488v269.247L31.409,354.189L31.409,354.189z"/>
<rect x="48.528" y="89.556" style="fill:#E1E6E9;" width="371.2" height="247.508"/>
<path style="fill:#EBF0F3;" d="M419.728,89.559v94.22c-28.347,72.929-114.638,125.94-216.663,125.94
	c-59.754,0-114.013-18.17-154.537-47.891V89.559H419.728z"/>
<path style="fill:#2D93BA;" d="M455.805,354.189H12.488C5.591,354.189,0,359.78,0,366.677v16.675
	c0,6.897,5.591,12.488,12.488,12.488h443.317c6.897,0,12.488-5.591,12.488-12.488v-16.675
	C468.293,359.78,462.702,354.189,455.805,354.189z"/>
<rect x="209.171" y="368.765" style="fill:#E1E6E9;" width="49.951" height="12.488"/>
<g>
	<path style="fill:#E56353;" d="M109.268,181.125h23.564v64.853H122.44v-55.11h-13.171V181.125z"/>
	<path style="fill:#E56353;" d="M164.099,232.063v-17.63h-17.721v-8.721h17.721v-17.441h8.351v17.441h17.721v8.721h-17.721v17.63
		H164.099z"/>
	<path style="fill:#E56353;" d="M239.711,181.034v9.925h-27.37v15.961c2.722-1.487,5.814-2.227,9.279-2.227
		c6.059,0,11.284,1.823,15.678,5.474c4.39,3.651,6.588,8.596,6.588,14.844c0,6.248-2.288,11.427-6.867,15.538
		c-4.575,4.115-10.204,6.172-16.886,6.172c-8.721,0-15.678-2.907-20.873-8.724l5.844-7.977c0.495,0.495,1.159,1.083,1.993,1.763
		c0.838,0.68,2.552,1.593,5.149,2.737c2.601,1.144,5.444,1.718,8.536,1.718c3.096,0,5.908-0.929,8.445-2.786
		c2.533-1.854,3.802-4.56,3.802-8.117c0-3.556-1.344-6.308-4.036-8.256c-2.688-1.952-6.093-2.926-10.204-2.926
		c-4.115,0-8.026,1.023-11.737,3.062l-4.64-5.01v-31.171H239.711z"/>
	<path style="fill:#E56353;" d="M253.909,196.992h46.759v8.721h-46.759V196.992z M253.909,214.433h46.759v8.721h-46.759V214.433z"/>
	<path style="fill:#E56353;" d="M339.077,189.755c-5.753,0-9.989,1.948-12.711,5.844c-2.722,3.896-4.115,9.155-4.175,15.773
		c1.544-1.729,3.771-3.352,6.682-4.87c2.903-1.514,6.123-2.273,9.646-2.273c5.814,0,10.687,1.933,14.614,5.799
		c3.926,3.866,5.893,9,5.893,15.399c0,6.403-2.122,11.552-6.357,15.448c-4.236,3.9-9.57,5.848-16.003,5.848
		c-10.393,0-17.566-4.64-21.526-13.919c-2.227-5.319-3.337-11.318-3.337-18c0-6.678,0.71-12.247,2.133-16.697
		c1.423-4.455,3.371-7.981,5.844-10.578c4.825-5.07,10.748-7.607,17.766-7.607c7.022,0,13.375,2.197,19.068,6.588l-5.474,8.071
		c-1.423-1.238-3.326-2.352-5.708-3.341C343.048,190.249,340.93,189.755,339.077,189.755z M337.083,213.878
		c-3.745,0-6.867,1.034-9.374,3.107c-2.503,2.073-3.756,4.764-3.756,8.071c0,3.311,1.208,6.157,3.617,8.536
		c2.412,2.382,5.444,3.571,9.094,3.571c3.647,0,6.678-1.065,9.091-3.201c2.412-2.133,3.62-4.855,3.62-8.162
		c0-3.311-1.114-6.123-3.341-8.445C343.807,215.037,340.824,213.878,337.083,213.878z"/>
</g>
<g>
</g>
<g>
</g>
<g>
</g>
<g>
</g>
<g>
</g>
<g>
</g>
<g>
</g>
<g>
</g>
<g>
</g>
<g>
</g>
<g>
</g>
<g>
</g>
<g>
</g>
<g>
</g>
<g>
</g>
</svg>
