<svg height="512pt" viewBox="0 0 512 512" width="512pt" xmlns="http://www.w3.org/2000/svg"><path d="m512 26.480469v412.730469l-44.929688 72.789062h-17.699218l-44.929688-72.789062v-412.730469zm0 0" fill="#ffaa20"/><path d="m512 26.480469v412.730469l-44.929688 72.789062h-8.851562v-485.519531zm0 0" fill="#ff8900"/><path d="m0 41.480469h369v470.519531h-369zm0 0" fill="#f0e7df"/><path d="m184.5 41.480469h184.5v470.519531h-184.5zm0 0" fill="#dfcdbd"/><path d="m103.882812 233.6875-32.601562-38.976562 23.015625-19.246094 12.683594 15.164062 31.097656-27.871094 20.019531 22.34375zm0 0" fill="#ff633d"/><path d="m184.5 187h115.976562v30h-115.976562zm0 0" fill="#a17852"/><path d="m103.882812 319.945312-32.601562-38.976562 23.015625-19.246094 12.683594 15.164063 31.097656-27.867188 20.019531 22.339844zm0 0" fill="#ff633d"/><path d="m184.5 273.257812h115.976562v30h-115.976562zm0 0" fill="#a17852"/><path d="m103.882812 406.203125-32.601562-38.976563 23.015625-19.246093 12.683594 15.164062 31.097656-27.867187 20.019531 22.339844zm0 0" fill="#ff633d"/><path d="m184.5 359.519531h115.976562v30h-115.976562zm0 0" fill="#a17852"/><path d="m66.453125 0h30v85.40625h-30zm0 0" fill="#bd9b7b"/><path d="m135.148438 0h30v85.40625h-30zm0 0" fill="#bd9b7b"/><path d="m203.851562 0h30v85.40625h-30zm0 0" fill="#a17852"/><path d="m272.546875 0h30v85.40625h-30zm0 0" fill="#a17852"/><path d="m512 439.171875v.039063l-44.929688 72.789062h-17.699218l-44.929688-72.789062v-.039063zm0 0" fill="#ffc473"/><path d="m404.441406 26.480469h107.558594v94.5h-107.558594zm0 0" fill="#ff633d"/><path d="m458.21875 26.480469h53.78125v94.5h-53.78125zm0 0" fill="#e70021"/><path d="m458.21875 439.171875h53.78125v.039063l-44.929688 72.789062h-8.851562zm0 0" fill="#ffb74f"/></svg>