<svg enable-background="new 0 0 24 24" height="512" viewBox="0 0 24 24" width="512" xmlns="http://www.w3.org/2000/svg"><path d="m16 3c0-1.654-1.346-3-3-3h-10c-1.654 0-3 1.346-3 3v18c0 1.654 1.346 3 3 3h10c1.654 0 3-1.346 3-3z" fill="#607d8b"/><path d="m14 21c0 .552-.448 1-1 1h-10c-.552 0-1-.448-1-1v-18c0-.552.448-1 1-1h.5c.552 0 1 .448 1 1s.448 1 1 1h5c.552 0 1-.448 1-1s.448-1 1-1h.5c.552 0 1 .448 1 1z" fill="#fafafa"/><path d="m24 8.75v.45l-6.31 3.29c-.43.22-.95.22-1.38 0l-6.31-3.29v-.45c0-.96.79-1.75 1.75-1.75h10.5c.96 0 1.75.79 1.75 1.75z" fill="#2196f3"/><path d="m24 9.2v6.05c0 .96-.79 1.75-1.75 1.75h-10.5c-.96 0-1.75-.79-1.75-1.75v-6.05l6.31 3.29c.43.22.95.22 1.38 0z" fill="#64b5f6"/></svg>