<svg id="Flat" height="512" viewBox="0 0 512 512" width="512" xmlns="http://www.w3.org/2000/svg"><path d="m336 472h-32v-128h-16v128h-32a8 8 0 0 0 0 16h80a8 8 0 0 0 0-16z" fill="#c3c6c7"/><path d="m464 472h-32v-128h-16v128h-32a8 8 0 0 0 0 16h80a8 8 0 0 0 0-16z" fill="#c3c6c7"/><path d="m144 171.674v-147.674h-48v147.674a80.026 80.026 0 0 0 -56 76.326v240h160v-240a80.026 80.026 0 0 0 -56-76.326z" fill="#6a7073"/><path d="m72 264h96v128h-96z" fill="#e9eef2"/><path d="m248 208h96a0 0 0 0 1 0 0v96a48 48 0 0 1 -48 48 48 48 0 0 1 -48-48v-96a0 0 0 0 1 0 0z" fill="#dcdee0"/><path d="m344 256v48a48 48 0 0 1 -96 0v-48z" fill="#962523"/><path d="m376 208h96a0 0 0 0 1 0 0v96a48 48 0 0 1 -48 48 48 48 0 0 1 -48-48v-96a0 0 0 0 1 0 0z" fill="#dcdee0"/><path d="m472 256v48a48 48 0 0 1 -96 0v-48z" fill="#962523"/><path d="m88 24h64v32h-64z" fill="#414649"/></svg>