<svg id="Capa_1" enable-background="new 0 0 512 512" height="512" viewBox="0 0 512 512" width="512" xmlns="http://www.w3.org/2000/svg"><g><path d="m185 370c-102.01 0-185-82.99-185-185s82.99-185 185-185 185 82.99 185 185-82.99 185-185 185z" fill="#fff8d5"/><path d="m185 0v370c102.01 0 185-82.99 185-185s-82.99-185-185-185z" fill="#ffe3ba"/><path d="m185 370c-102.01 0-185-82.99-185-185s82.99-185 185-185 185 82.99 185 185-82.99 185-185 185zm0-340c-85.467 0-155 69.533-155 155s69.533 155 155 155 155-69.533 155-155-69.533-155-155-155z" fill="#4bbaed"/><path d="m185.172 206.195-91.684-91.683 21.213-21.213 70.471 70.471 41.299-41.299 21.213 21.213z" fill="#388cb3"/><path d="m340 185c0 85.467-69.533 155-155 155v30c102.01 0 185-82.99 185-185s-82.99-185-185-185v30c85.467 0 155 69.533 155 155z" fill="#388cb3"/><path d="m185.172 163.77-.172-.172v42.425l.172.172 62.512-62.511-21.213-21.213z" fill="#265d77"/><path d="m447 512h-235v-210h300v145c0 35.841-29.159 65-65 65z" fill="#ffe565"/><path d="m362 512h85c35.841 0 65-29.159 65-65v-145h-150z" fill="#ffd400"/><path d="m512 332h-300v-90h300z" fill="#ffab2d"/><path d="m447 512h-5v-70h70v5c0 35.841-29.159 65-65 65z" fill="#ffb234"/><path d="m267 212h30v45h-30z" fill="#ff7b01"/><path d="m362 242h150v90h-150z" fill="#f90"/><path d="m427 212h30v45h-30z" fill="#ff4f18"/></g></svg>