<?xml version="1.0" encoding="iso-8859-1"?>
<!-- Generator: Adobe Illustrator 19.0.0, SVG Export Plug-In . SVG Version: 6.00 Build 0)  -->
<svg version="1.1" id="Layer_1" xmlns="http://www.w3.org/2000/svg" xmlns:xlink="http://www.w3.org/1999/xlink" x="0px" y="0px"
	 viewBox="0 0 512 512" style="enable-background:new 0 0 512 512;" xml:space="preserve">
<polygon style="fill:#A7AFF3;" points="116.444,105.889 106.114,117.192 95.282,129.048 43.025,81.308 26.244,100.264 0,21.763 
	81.104,38.294 63.821,57.814 "/>
<polygon style="fill:#7885EB;" points="0,21.763 106.114,117.192 95.282,129.048 43.025,81.308 26.244,100.264 "/>
<path style="fill:#FF738E;" d="M449.507,194.427c-4.235,70.659-50.02,113.245-90.42,150.812
	c-33.05,30.739-62.608,57.318-90.336,81.24l-8.908,7.674l-1.662,1.432l-67.784-62.179c-32.266-29.6-65.63-60.214-94.456-98.722
	c-29.401-39.282-36.804-92.145-19.311-137.951c14.91-39.062,50.919-63.79,93.964-64.532c0.669-0.021,1.338-0.021,2.007-0.021
	c35.099,0,67.031,15.976,87.179,42.429c0.021-0.021,0.042-0.052,0.063-0.073c5.123-6.043,11.564-12.578,19.322-18.611
	c21.643-16.781,57.778-32.768,107.023-13.592c22.511,8.762,40.17,24.811,51.044,46.391
	C446.715,147.523,450.96,170.243,449.507,194.427z"/>
<path style="fill:#FF3C62;" d="M449.507,194.427c-4.235,70.659-50.02,113.245-90.42,150.812
	c-33.05,30.739-62.608,57.318-90.336,81.24l-8.908,7.674V114.536c5.123-6.043,11.564-12.578,19.322-18.611
	c21.643-16.781,57.778-32.768,107.023-13.592c22.511,8.762,40.17,24.811,51.044,46.391
	C446.715,147.523,450.96,170.243,449.507,194.427z"/>
<path style="fill:#A7AFF3;" d="M512,426.865l-47.928,12.233l-8.239,51.138l-30.969-4.987l8.689-53.92l-13.3-12.139l-5.311,33.008
	l-30.969-4.987l8.595-53.324L246.543,260.485c-9.933,6.462-22.908,11.02-39.825,11.208l-0.345-31.367
	c11.93-0.136,20.514-3.848,26.662-8.992c13.185-11.02,15.265-28.544,15.527-31.335l31.262,2.52
	c-0.136,1.746-1.589,17.492-10.78,33.667c-0.293,0.512-0.596,1.035-0.91,1.547l145.897,133.288l49.329-12.578l7.748,30.384
	l-29.37,7.497l13.77,12.589l48.744-12.442L512,426.865z"/>
<path style="fill:#7885EB;" d="M464.072,439.098l-8.239,51.138l-30.969-4.987l8.689-53.92l-13.3-12.139l-5.311,33.008l-30.969-4.987
	l8.595-53.324L246.543,260.485c-9.933,6.462-22.908,11.02-39.825,11.208l-0.345-31.367c11.93-0.136,20.514-3.848,26.662-8.992
	L464.072,439.098z"/>
<g>
</g>
<g>
</g>
<g>
</g>
<g>
</g>
<g>
</g>
<g>
</g>
<g>
</g>
<g>
</g>
<g>
</g>
<g>
</g>
<g>
</g>
<g>
</g>
<g>
</g>
<g>
</g>
<g>
</g>
</svg>
