<?xml version="1.0" encoding="iso-8859-1"?>
<!-- Generator: Adobe Illustrator 19.0.0, SVG Export Plug-In . SVG Version: 6.00 Build 0)  -->
<svg version="1.1" id="Layer_1" xmlns="http://www.w3.org/2000/svg" xmlns:xlink="http://www.w3.org/1999/xlink" x="0px" y="0px"
	 viewBox="0 0 512 512" style="enable-background:new 0 0 512 512;" xml:space="preserve">
<circle style="fill:#E24B2D;" cx="232.114" cy="279.16" r="232.114"/>
<path style="fill:#D33218;" d="M464.224,279.156c0,128.191-103.92,232.112-232.112,232.112c0-144.904,0-416.479,0-464.224
	C360.303,47.044,464.224,150.965,464.224,279.156z"/>
<circle style="fill:#F7F7F8;" cx="232.114" cy="279.16" r="178.399"/>
<path style="fill:#E9E9EA;" d="M410.514,279.156c0,98.529-79.873,178.402-178.402,178.402c0-73.807,0-319.547,0-356.804
	C330.641,100.754,410.514,180.627,410.514,279.156z"/>
<polygon style="fill:#7F7F80;" points="152.366,346.888 139.578,316.043 215.416,284.605 215.416,183.547 248.807,183.547 
	248.807,306.909 "/>
<path style="fill:#F1C04F;" d="M512,12.411c-16.968-7.507-35.738-11.685-55.486-11.685c-75.821,0-137.285,61.464-137.285,137.285
	s61.465,137.285,137.285,137.285c19.748,0,38.518-4.177,55.486-11.685C413.134,178.112,413.451,94.414,512,12.411z"/>
<path style="fill:#E88C4A;" d="M512,12.411c-16.968-7.507-131.938,7.614-131.938,125.6S495.032,271.119,512,263.612
	C413.134,178.112,413.451,94.414,512,12.411z"/>
<g>
</g>
<g>
</g>
<g>
</g>
<g>
</g>
<g>
</g>
<g>
</g>
<g>
</g>
<g>
</g>
<g>
</g>
<g>
</g>
<g>
</g>
<g>
</g>
<g>
</g>
<g>
</g>
<g>
</g>
</svg>
