<?xml version="1.0" encoding="iso-8859-1"?>
<!-- Generator: Adobe Illustrator 19.0.0, SVG Export Plug-In . SVG Version: 6.00 Build 0)  -->
<svg version="1.1" id="Layer_1" xmlns="http://www.w3.org/2000/svg" xmlns:xlink="http://www.w3.org/1999/xlink" x="0px" y="0px"
	 viewBox="0 0 512 512" style="enable-background:new 0 0 512 512;" xml:space="preserve">
<g>
	<path style="fill:#FFFFFF;" d="M338.595,265.697v209.195c0,11.84-9.603,21.433-21.433,21.433H194.837
		c-11.829,0-21.433-9.593-21.433-21.433V265.697c0-34.84,24.463-63.963,57.15-71.174V15.675h50.891v178.849
		C314.132,201.734,338.595,230.858,338.595,265.697z"/>
	<path style="fill:#FFFFFF;" d="M338.595,265.697v209.195c0,11.84-9.603,21.433-21.433,21.433H256V15.675h25.445v178.849
		C314.132,201.734,338.595,230.858,338.595,265.697z"/>
</g>
<path style="fill:#FF738E;" d="M338.595,275.876v199.017c0,11.84-9.603,21.433-21.433,21.433H194.837
	c-11.829,0-21.433-9.593-21.433-21.433V275.876H338.595z"/>
<path style="fill:#DFCCBE;" d="M334.436,209.854c-9.875-12.132-22.833-21.443-37.316-26.961V31.349h15.487V0H199.393v31.349h15.487
	v151.543c-14.483,5.518-27.441,14.828-37.316,26.961c-12.791,15.717-19.834,35.55-19.834,55.844v209.195
	c0,20.461,16.647,37.107,37.107,37.107h122.326c20.461,0,37.107-16.647,37.107-37.107V265.697
	C354.27,245.404,347.227,225.57,334.436,209.854z M322.921,474.893c0,3.177-2.581,5.758-5.758,5.758H194.837
	c-3.177,0-5.758-2.581-5.758-5.758V265.697c0-26.637,18.862-50.138,44.851-55.865l12.299-2.717V31.349h19.541v175.766l12.299,2.717
	c25.989,5.727,44.851,29.228,44.851,55.865L322.921,474.893L322.921,474.893z"/>
<path style="fill:#FF3C62;" d="M338.595,275.876v199.017c0,11.84-9.603,21.433-21.433,21.433H256v-220.45H338.595z"/>
<path style="fill:#C9AD91;" d="M354.27,265.697v209.195c0,20.461-16.647,37.107-37.107,37.107H256v-31.349h61.163
	c3.177,0,5.758-2.581,5.758-5.758V265.697c0-26.637-18.862-50.138-44.851-55.865l-12.299-2.717V31.349H256V0h56.607v31.349H297.12
	v151.543c14.483,5.518,27.441,14.828,37.316,26.961C347.227,225.57,354.27,245.404,354.27,265.697z"/>
<g>
	<rect x="227.085" y="437.482" style="fill:#F3F3F3;" width="20.9" height="20.9"/>
	<rect x="206.186" y="395.683" style="fill:#F3F3F3;" width="20.9" height="20.9"/>
	<rect x="247.985" y="395.683" style="fill:#F3F3F3;" width="20.9" height="20.9"/>
</g>
<rect x="256" y="395.683" style="fill:#E6E6E6;" width="12.888" height="20.9"/>
<g>
</g>
<g>
</g>
<g>
</g>
<g>
</g>
<g>
</g>
<g>
</g>
<g>
</g>
<g>
</g>
<g>
</g>
<g>
</g>
<g>
</g>
<g>
</g>
<g>
</g>
<g>
</g>
<g>
</g>
</svg>
