<?xml version="1.0" encoding="iso-8859-1"?>
<!-- Generator: Adobe Illustrator 19.0.0, SVG Export Plug-In . SVG Version: 6.00 Build 0)  -->
<svg version="1.1" id="Layer_1" xmlns="http://www.w3.org/2000/svg" xmlns:xlink="http://www.w3.org/1999/xlink" x="0px" y="0px"
	 viewBox="0 0 512 512" style="enable-background:new 0 0 512 512;" xml:space="preserve">
<path style="fill:#E24B2D;" d="M256.945,453.612c0,0-151.274-67.56-208.993-215.855C-9.752,89.463,155.431-3.299,256.945,106.488
	C358.438-3.299,523.629,89.463,465.91,237.757C408.192,386.053,256.945,453.612,256.945,453.612z"/>
<path style="fill:#D33218;" d="M256.945,453.612c0,0,0-268.905,0-347.125C358.438-3.299,523.629,89.463,465.91,237.757
	C408.192,386.053,256.945,453.612,256.945,453.612z"/>
<polygon style="fill:#F1C04F;" points="278.446,390.674 211.105,212.315 179.918,282.182 0,282.182 0,248.791 158.257,248.791 
	213.685,124.617 278.535,296.376 296.603,248.791 512,248.791 512,282.182 319.643,282.182 "/>
<polygon style="fill:#E88C4A;" points="296.603,248.791 278.535,296.376 256,236.69 256,331.224 278.446,390.674 319.643,282.182 
	512,282.182 512,248.791 "/>
<g>
</g>
<g>
</g>
<g>
</g>
<g>
</g>
<g>
</g>
<g>
</g>
<g>
</g>
<g>
</g>
<g>
</g>
<g>
</g>
<g>
</g>
<g>
</g>
<g>
</g>
<g>
</g>
<g>
</g>
</svg>
