<?xml version="1.0" encoding="iso-8859-1"?>
<!-- Generator: Adobe Illustrator 19.0.0, SVG Export Plug-In . SVG Version: 6.00 Build 0)  -->
<svg version="1.1" id="Layer_1" xmlns="http://www.w3.org/2000/svg" xmlns:xlink="http://www.w3.org/1999/xlink" x="0px" y="0px"
	 viewBox="0 0 512 512" style="enable-background:new 0 0 512 512;" xml:space="preserve">
<path style="fill:#736056;" d="M137.241,469.462l-32.703,32.704c-13.032,13.031-34.328,13.231-47.437-0.112L9.775,454.84
	c-12.948-13.171-12.948-34.378,0-47.326l32.814-32.815L137.241,469.462z"/>
<path style="fill:#665247;" d="M57.1,502.054c13.111,13.343,34.405,13.143,47.437,0.112l32.703-32.704l-47.352-47.408
	l-56.421,56.422L57.1,502.054z"/>
<path style="fill:#EDF0F2;" d="M215.484,434.972c-0.893,3.572-2.79,6.697-5.469,8.929l-1.673,1.339
	c-1.117,0.67-2.456,1.341-3.796,1.786l-9.821,3.237l-57.484,19.198L42.59,374.699l19.198-57.371l3.237-9.822
	c0.446-1.339,1.117-2.679,1.786-3.907l1.339-1.674c6.14-7.37,17.542-8.021,24.556-1.005L211.02,419.346
	C215.148,423.476,216.825,429.391,215.484,434.972z"/>
<path style="fill:#DAE1E6;" d="M137.241,469.462l57.484-19.198l9.821-3.237c1.341-0.446,2.679-1.116,3.796-1.786l1.673-1.339
	c2.679-2.232,4.576-5.358,5.469-8.929c1.341-5.581-0.335-11.497-4.464-15.626l-59.185-59.24l-61.947,61.947L137.241,469.462z"/>
<path style="fill:#38C3E0;" d="M447.87,229.932L282.118,64.181c-3.347-3.349-8.036-5.134-12.723-4.911
	c-4.798,0.335-9.154,2.567-12.167,6.251L68.15,301.925l-1.339,1.674c-0.669,1.228-1.339,2.567-1.786,3.907l-3.237,9.822
	l132.938,132.936l9.821-3.237c1.341-0.446,2.679-1.116,3.796-1.786l1.673-1.339l52.349-41.745c3.683-2.902,5.915-7.367,6.249-12.166
	c0.223-4.688-1.562-9.376-4.91-12.724l-40.852-40.852l94.764-94.651l64.513,64.515l11.719-9.376l52.684-42.08
	c3.683-2.901,5.915-7.367,6.249-12.166C453.005,237.968,451.22,233.28,447.87,229.932z"/>
<path style="fill:#37AFCC;" d="M393.847,296.902l52.684-42.08c3.683-2.901,5.915-7.367,6.249-12.166
	c0.223-4.688-1.561-9.376-4.91-12.724l-82.93-82.93L128.201,383.741l66.524,66.523l9.821-3.237c1.341-0.446,2.679-1.116,3.796-1.786
	l1.673-1.339l52.349-41.745c3.683-2.902,5.915-7.367,6.249-12.166c0.223-4.688-1.562-9.376-4.91-12.724l-40.852-40.852
	l94.764-94.651L393.847,296.902"/>
<path style="fill:#FFCC33;" d="M211.009,371.916c-19.576-19.582-19.576-51.432,0-71.003l71.112-70.997
	c19.555-19.555,51.415-19.576,70.993,0.011l55.308,55.302L250.637,411.536L211.009,371.916z"/>
<path style="fill:#EDF0F2;" d="M447.868,270.338c-4.447,0-8.698-1.766-11.837-4.906L246.62,76.017
	c-6.53-6.534-6.54-17.124-0.011-23.664l47.328-47.437C297.076,1.771,301.327,0,305.774,0h0.011c4.437,0,8.698,1.766,11.837,4.906
	l189.41,189.416c6.53,6.534,6.54,17.124,0.011,23.664l-47.328,47.437c-3.14,3.144-7.401,4.916-11.837,4.916
	C447.868,270.338,447.868,270.338,447.868,270.338z"/>
<path style="fill:#DAE1E6;" d="M436.03,265.434c3.14,3.14,7.39,4.906,11.837,4.906c0,0,0,0,0.011,0
	c4.437,0,8.698-1.771,11.837-4.916l47.328-47.437c6.53-6.54,6.518-17.13-0.011-23.664l-94.706-94.708l-71.058,71.058L436.03,265.434
	z"/>
<g>
</g>
<g>
</g>
<g>
</g>
<g>
</g>
<g>
</g>
<g>
</g>
<g>
</g>
<g>
</g>
<g>
</g>
<g>
</g>
<g>
</g>
<g>
</g>
<g>
</g>
<g>
</g>
<g>
</g>
</svg>
