<?xml version="1.0" encoding="iso-8859-1"?>
<!-- Generator: Adobe Illustrator 19.0.0, SVG Export Plug-In . SVG Version: 6.00 Build 0)  -->
<svg version="1.1" id="Layer_1" xmlns="http://www.w3.org/2000/svg" xmlns:xlink="http://www.w3.org/1999/xlink" x="0px" y="0px"
	 viewBox="0 0 511.985 511.985" style="enable-background:new 0 0 511.985 511.985;" xml:space="preserve">
<path style="fill:#D84532;" d="M117.196,458.961h277.861c117.326,0,160.06-299.11,64.093-299.11H53.088
	C-43.238,159.85-0.505,458.961,117.196,458.961z"/>
<path style="fill:#A0D468;" d="M340.949,65.227L324.152,31.65c0,0-103.646,10.812-99.724,117.044
	c1.109,29.78,20.781,42.765,39.015,42.765c20.726,0,39.6-16.797,27.147-44.733C263.771,86.523,340.949,65.227,340.949,65.227z"/>
<path style="fill:#8CC153;" d="M340.949,65.227L324.152,31.65c0,0-7.891,0.828-19.234,4.25l14.656,29.327
	c0,0-77.162,21.296-50.35,81.498c10.257,23.016-0.734,38.468-16.532,43.202c3.531,1.031,7.172,1.531,10.75,1.531
	c20.726,0,39.6-16.797,27.147-44.733C263.771,86.523,340.949,65.227,340.949,65.227z"/>
<path style="fill:#E9573F;" d="M159.476,469.648h93.81h98.475c117.325,0,160.059-320.485,64.092-320.485H95.368
	C-0.958,149.163,41.776,469.648,159.476,469.648z"/>
<path style="fill:#FC6E51;" d="M298.465,138.475h-85.053c-70.17,0.016-95.717,21.906-95.717,106.889
	c0,84.975,31.875,234.972,86.452,234.972h103.474c54.578,0,86.67-171.371,86.67-235.019
	C394.291,181.662,368.636,138.491,298.465,138.475z"/>
<g>
</g>
<g>
</g>
<g>
</g>
<g>
</g>
<g>
</g>
<g>
</g>
<g>
</g>
<g>
</g>
<g>
</g>
<g>
</g>
<g>
</g>
<g>
</g>
<g>
</g>
<g>
</g>
<g>
</g>
</svg>
