<?xml version="1.0" encoding="iso-8859-1"?>
<!-- Generator: Adobe Illustrator 19.0.0, SVG Export Plug-In . SVG Version: 6.00 Build 0)  -->
<svg version="1.1" id="Layer_1" xmlns="http://www.w3.org/2000/svg" xmlns:xlink="http://www.w3.org/1999/xlink" x="0px" y="0px"
	 viewBox="0 0 512 512" style="enable-background:new 0 0 512 512;" xml:space="preserve">
<path style="fill:#DFCCBE;" d="M490.201,225.626L480.123,507.35h-22.038l-9.743-272.274c1.014-0.68,2.028-1.328,3.021-1.924
	c6.534-3.931,12.545-6.262,17.908-7.527C478.346,223.472,485.549,224.361,490.201,225.626z"/>
<path style="fill:#C9AD91;" d="M490.201,225.626L480.123,507.35h-10.852V225.626C478.346,223.472,485.549,224.361,490.201,225.626z"
	/>
<path style="fill:#FF738E;" d="M494.854,231.908l-5.509,14.291l-13.883-4.987c-0.199-0.052-0.638-0.157-1.307-0.293
	c-0.805-0.157-1.526-0.282-2.248-0.376c-5.541-0.784-17.02-1.37-32.346,3.429c-0.951,0.282-1.83,0.585-2.729,0.899
	c-25.791,8.876-51.017,28.896-74.947,59.506c-33.527,42.894-63.28,105.307-88.434,185.523l-2.729,8.719l-8.949,1.924
	c-0.575,0.125-2.164,0.46-4.652,0.92c-11.249,2.112-40.751,6.9-76.035,6.9c-55.398,0-125.066-11.813-160.851-64.399l-1.641-2.415
	l-15.995-68.34c-1.568-4.934-6.409-23.648,3.293-41.734c7.339-13.674,20.616-22.958,39.455-27.589
	c45.623-11.197,87.942-16.769,89.719-16.999l5.394-0.711l4.673,2.791c1.192,0.69,31.426,17.804,58.032-2.885
	c7.966-6.199,26.544-26.46,53.955-58.743c29.711-34.959,69.804-84.022,118.061-144.521l2.603-3.272
	c29.251-36.684,50.536-63.866,50.746-64.138l9.21-11.772l12.2,8.646c1.066,0.753,26.397,18.975,44.337,55.398
	C510.619,100.853,523.979,156.272,494.854,231.908z"/>
<path style="fill:#FF3C62;" d="M494.854,231.908l-5.509,14.291l-13.883-4.987c-0.199-0.052-0.638-0.157-1.307-0.293
	c-0.805-0.157-1.526-0.282-2.248-0.376c-5.541-0.784-17.02-1.37-32.346,3.429c-0.951,0.282-1.83,0.585-2.729,0.899
	c-25.791,8.876-51.017,28.896-74.947,59.506c-33.527,42.894-63.28,105.307-88.434,185.523l-2.729,8.719l-8.949,1.924
	c-0.575,0.125-2.164,0.46-4.652,0.92V227.339c29.711-34.959,69.804-84.022,118.061-144.521l2.603-3.272
	c29.251-36.684,50.536-63.866,50.746-64.138l9.21-11.772l12.2,8.646c1.066,0.753,26.397,18.975,44.337,55.398
	C510.619,100.853,523.979,156.272,494.854,231.908z"/>
<path style="fill:#DFCCBE;" d="M394.492,101.846c-0.69,1.704-70.985,174.933-137.371,247.842
	c-17.448,19.173-34.625,31.405-50.202,31.771c-75.094,1.756-65.371-66.521-65.371-66.521s39.946,23.836,75.7-3.973
	c7.485-5.823,21.85-21.201,39.873-41.88C296.576,223.827,353.563,153.198,394.492,101.846z"/>
<path style="fill:#C9AD91;" d="M394.492,101.846c-0.69,1.704-70.985,174.933-137.371,247.842v-80.603
	C296.576,223.827,353.563,153.198,394.492,101.846z"/>
<g>
</g>
<g>
</g>
<g>
</g>
<g>
</g>
<g>
</g>
<g>
</g>
<g>
</g>
<g>
</g>
<g>
</g>
<g>
</g>
<g>
</g>
<g>
</g>
<g>
</g>
<g>
</g>
<g>
</g>
</svg>
