<?xml version="1.0" encoding="iso-8859-1"?>
<!-- Generator: Adobe Illustrator 19.0.0, SVG Export Plug-In . SVG Version: 6.00 Build 0)  -->
<svg version="1.1" id="Layer_1" xmlns="http://www.w3.org/2000/svg" xmlns:xlink="http://www.w3.org/1999/xlink" x="0px" y="0px"
	 viewBox="0 0 512 512" style="enable-background:new 0 0 512 512;" xml:space="preserve">
<path style="fill:#FFC033;" d="M405.816,174.191c-0.111,1.224-0.111,2.337-0.111,3.562c-2.114,57.878-9.461,87.263-16.584,115.757
	c-7.457,29.496-14.581,57.656-16.028,118.317c-0.111,7.235-0.223,14.915-0.223,23.151v10.24H139.13v-10.24
	c0-8.237-0.111-15.917-0.223-23.151c-1.447-60.661-8.57-88.821-16.027-118.317c-6.234-24.821-12.579-50.421-15.471-94.831
	c-0.111-1.336-0.223-2.56-0.334-3.896c0.444-6.344,4.341-12.243,10.686-14.692c8.569-3.339,18.253,1.002,21.592,9.572
	c0.223,0.557,0.669,1.113,1.002,1.67c8.459,15.249,32.167,10.017,32.167-7.68c0-27.603,22.483-50.087,50.087-50.087
	c12.8,0,24.487,4.786,33.391,12.911c10.239,9.127,16.696,22.372,16.696,37.176v66.783c0,9.238,7.456,16.696,16.696,16.696
	s16.696-7.457,16.696-16.696v-66.783c0-34.17,33.725-58.657,66.783-47.304C394.017,143.805,405.036,163.061,405.816,174.191z"/>
<path style="fill:#F9A926;" d="M405.816,174.191c-0.111,1.224-0.111,2.337-0.111,3.562c-2.114,57.878-9.461,87.263-16.584,115.757
	c-7.457,29.496-14.581,57.656-16.028,118.317c-0.111,7.235-0.223,14.915-0.223,23.151v10.24H256V146.477
	c10.239,9.127,16.696,22.372,16.696,37.176v66.783c0,9.238,7.456,16.696,16.696,16.696c9.239,0,16.696-7.457,16.696-16.696v-66.783
	c0-34.17,33.725-58.657,66.783-47.304C394.017,143.805,405.036,163.061,405.816,174.191z"/>
<path style="fill:#FFEBCC;" d="M356.174,66.783C356.174,29.941,326.234,0,289.391,0C277.592,0,266.128,3.005,256,8.682
	c-9.017,4.897-16.918,11.798-23.152,20.369c-2.114,2.894-3.895,6.122-5.565,9.35c-6.453-3.117-13.69-5.009-21.369-5.009
	c-21.704,0-40.07,14.024-46.97,33.391h-3.117c-27.603,0-50.087,22.483-50.087,50.087v26.936c0,19.478,0.557,36.174,1.336,50.977
	c0.111,1.336,0.223,2.56,0.334,3.896c0.11,1.002,0.444,2.003,0.778,3.005c8.014,20.591,31.165,32.056,42.296,32.056
	c5.565,0,12.91,0.668,17.697-1.558c21.594-5.454,37.733-25.155,37.733-48.529c0-9.238,7.456-16.696,16.696-16.696
	s16.696,7.457,16.696,16.696v66.783c0,14.803,6.457,28.049,16.696,37.176c8.904,8.125,20.591,12.911,33.391,12.911
	c27.603,0,50.087-22.483,50.087-50.087v-66.783c0-20.257,28.829-22.261,33.503-4.23c2.337,8.904,11.353,14.358,20.37,12.021
	c6.677-1.781,11.352-7.235,12.354-13.69c0-1.224,0-2.337,0.111-3.562c0.223-9.461,0.445-19.478,0.445-30.386V116.87
	C406.261,89.266,383.777,66.783,356.174,66.783z"/>
<path style="fill:#EDF0F2;" d="M138.853,411.826c0.17,7.256,0.277,14.878,0.277,23.125v10.267v16.696
	c0,27.619,22.468,50.087,50.087,50.087h133.565c27.619,0,50.087-22.468,50.087-50.087v-16.696v-10.267
	c0-8.247,0.107-15.87,0.277-23.125H138.853z"/>
<path style="fill:#DAE1E6;" d="M256,512h66.783c27.619,0,50.087-22.468,50.087-50.087v-16.696v-10.267
	c0-8.247,0.107-15.87,0.277-23.125H256V512z"/>
<path style="fill:#FFE0B2;" d="M406.261,116.87v26.936c0,10.908-0.223,20.925-0.445,30.386c-0.111,1.224-0.111,2.337-0.111,3.562
	c-1.002,6.456-5.677,11.91-12.354,13.69c-9.017,2.337-18.032-3.117-20.37-12.021c-4.674-18.031-33.503-16.028-33.503,4.23v66.783
	c0,27.603-22.483,50.087-50.087,50.087c-12.8,0-24.487-4.786-33.391-12.911V8.682C266.128,3.005,277.592,0,289.391,0
	c36.843,0,66.783,29.941,66.783,66.783C383.777,66.783,406.261,89.266,406.261,116.87z"/>
<g>
</g>
<g>
</g>
<g>
</g>
<g>
</g>
<g>
</g>
<g>
</g>
<g>
</g>
<g>
</g>
<g>
</g>
<g>
</g>
<g>
</g>
<g>
</g>
<g>
</g>
<g>
</g>
<g>
</g>
</svg>
