<?xml version="1.0" encoding="iso-8859-1"?>
<!-- Generator: Adobe Illustrator 19.0.0, SVG Export Plug-In . SVG Version: 6.00 Build 0)  -->
<svg version="1.1" id="Layer_1" xmlns="http://www.w3.org/2000/svg" xmlns:xlink="http://www.w3.org/1999/xlink" x="0px" y="0px"
	 viewBox="0 0 512 512" style="enable-background:new 0 0 512 512;" xml:space="preserve">
<path style="fill:#93D963;" d="M264.699,126.721c-85.662,1.198-127.894-41.036-126.697-126.697
	C223.664-1.172,265.896,41.06,264.699,126.721"/>
<path style="fill:#73BF73;" d="M264.699,126.721L138.002,0.025C223.664-1.172,265.896,41.06,264.699,126.721"/>
<path style="fill:#A75A20;" d="M272.696,191.477h-33.391c0-70.059,32.163-125.077,95.594-163.521l17.308,28.555
	C298.703,88.939,272.696,133.086,272.696,191.477z"/>
<path style="fill:#E24B2D;" d="M256,494.683c23.336,0,67.896,38.963,127.766,0s136.846-210.022,69.374-306.005
	C385.666,92.696,302.038,150.665,256,150.665s-129.666-57.97-197.14,38.013c-67.473,95.983,9.503,267.041,69.374,306.005
	S232.664,494.683,256,494.683z"/>
<path style="fill:#D33218;" d="M256,494.683c23.336,0,67.896,38.963,127.766,0s136.846-210.022,69.374-306.005
	C385.666,92.696,302.038,150.665,256,150.665V494.683z"/>
<g>
</g>
<g>
</g>
<g>
</g>
<g>
</g>
<g>
</g>
<g>
</g>
<g>
</g>
<g>
</g>
<g>
</g>
<g>
</g>
<g>
</g>
<g>
</g>
<g>
</g>
<g>
</g>
<g>
</g>
</svg>
