<?xml version="1.0" encoding="iso-8859-1"?>
<!-- Generator: Adobe Illustrator 19.0.0, SVG Export Plug-In . SVG Version: 6.00 Build 0)  -->
<svg version="1.1" id="Layer_1" xmlns="http://www.w3.org/2000/svg" xmlns:xlink="http://www.w3.org/1999/xlink" x="0px" y="0px"
	 viewBox="0 0 512 512" style="enable-background:new 0 0 512 512;" xml:space="preserve">
<path style="fill:#FFE14D;" d="M255.998,512c-5.33,0-10.333-2.545-13.47-6.849l-47.846-65.642l-77.293,24.982
	c-5.036,1.634-10.605,0.76-14.925-2.377c-4.309-3.131-6.86-8.135-6.871-13.459l-0.118-81.228l-77.207-25.215
	c-5.145-1.683-9.15-5.753-10.757-10.925c-1.596-5.172-0.576-10.8,2.724-15.087l46.826-60.871L10.312,195.51
	c-3.354-4.283-4.396-9.932-2.811-15.131s5.601-9.296,10.768-10.985l77.207-25.219l0.119-81.223
	c0.011-5.324,2.562-10.328,6.871-13.459c4.32-3.131,9.888-4.016,14.925-2.377l77.293,24.982l47.846-65.642
	c6.274-8.607,20.667-8.607,26.94,0l47.846,65.642l77.293-24.982c5.047-1.639,10.605-0.755,14.925,2.377
	c4.309,3.131,6.86,8.135,6.871,13.459l0.119,81.223l77.207,25.219c5.166,1.688,9.183,5.785,10.768,10.985s0.542,10.849-2.811,15.131
	l-46.75,59.818l46.826,60.871c3.3,4.287,4.32,9.915,2.724,15.087c-1.606,5.172-5.612,9.242-10.757,10.925l-77.207,25.215
	l-0.119,81.228c-0.011,5.324-2.562,10.328-6.871,13.459c-4.32,3.137-9.878,4.01-14.925,2.377l-77.293-24.982l-47.846,65.642
	C266.332,509.455,261.328,512,255.998,512z"/>
<path style="fill:#FFCC33;" d="M269.469,505.151l47.846-65.642l77.293,24.982c5.047,1.634,10.605,0.76,14.925-2.377
	c4.309-3.131,6.86-8.135,6.871-13.459l0.119-81.228l77.207-25.215c5.145-1.683,9.15-5.753,10.757-10.925
	c1.596-5.172,0.576-10.8-2.724-15.087l-46.826-60.871l46.75-59.818c3.354-4.283,4.396-9.932,2.811-15.131
	c-1.585-5.198-5.601-9.296-10.768-10.985l-77.207-25.219l-0.119-81.223c-0.011-5.324-2.562-10.328-6.871-13.459
	c-4.32-3.131-9.878-4.016-14.925-2.377l-77.293,24.981L269.469,6.455C266.332,2.152,261.166,0,255.998,0v512
	C261.328,512,266.332,509.455,269.469,505.151z"/>
<path style="fill:#FFC033;" d="M255.998,394.182c-76.61,0-138.935-62.325-138.935-138.935s62.325-138.935,138.935-138.935
	s138.935,62.325,138.935,138.935S332.608,394.182,255.998,394.182z"/>
<path style="fill:#F9A926;" d="M394.933,255.247c0-76.61-62.325-138.935-138.935-138.935v277.87
	C332.608,394.182,394.933,331.857,394.933,255.247z"/>
<g>
</g>
<g>
</g>
<g>
</g>
<g>
</g>
<g>
</g>
<g>
</g>
<g>
</g>
<g>
</g>
<g>
</g>
<g>
</g>
<g>
</g>
<g>
</g>
<g>
</g>
<g>
</g>
<g>
</g>
</svg>
