<?xml version="1.0" encoding="iso-8859-1"?>
<!-- Generator: Adobe Illustrator 19.0.0, SVG Export Plug-In . SVG Version: 6.00 Build 0)  -->
<svg version="1.1" id="Layer_1" xmlns="http://www.w3.org/2000/svg" xmlns:xlink="http://www.w3.org/1999/xlink" x="0px" y="0px"
	 viewBox="0 0 512 512" style="enable-background:new 0 0 512 512;" xml:space="preserve">
<path style="fill:#736056;" d="M322.783,133.565H189.217c-9.22,0-16.696-7.475-16.696-16.696V50.087
	C172.522,22.469,194.991,0,222.609,0h66.783c27.618,0,50.087,22.469,50.087,50.087v66.783
	C339.478,126.09,332.003,133.565,322.783,133.565z"/>
<path style="fill:#DBE1E5;" d="M356.174,512H155.826c-27.618,0-50.087-22.469-50.087-50.087v-33.391
	c0-9.22,7.475-16.696,16.696-16.696h267.13c9.22,0,16.696,7.475,16.696,16.696v33.391C406.261,489.531,383.792,512,356.174,512z"/>
<path style="fill:#665247;" d="M289.391,0H256v133.565h66.783c9.22,0,16.696-7.475,16.696-16.696V50.087
	C339.478,22.469,317.009,0,289.391,0z"/>
<path style="fill:#DBE1E5;" d="M389.565,200.348h-267.13c-9.22,0-16.696-7.475-16.696-16.696v-16.696
	c0-36.824,29.959-66.783,66.783-66.783h166.957c36.824,0,66.783,29.959,66.783,66.783v16.696
	C406.261,192.873,398.786,200.348,389.565,200.348z"/>
<g>
	<path style="fill:#C9D3D9;" d="M339.478,100.174H256v100.174h133.565c9.22,0,16.696-7.475,16.696-16.696v-16.696
		C406.261,130.133,376.302,100.174,339.478,100.174z"/>
	<path style="fill:#C9D3D9;" d="M389.565,411.826H256V512h100.174c27.618,0,50.087-22.469,50.087-50.087v-33.391
		C406.261,419.301,398.786,411.826,389.565,411.826z"/>
</g>
<path style="fill:#38C3E0;" d="M406.261,445.217H105.739V166.957h300.522V445.217z"/>
<rect x="256" y="166.957" style="fill:#37AFCC;" width="150.261" height="278.261"/>
<path style="fill:#FFC033;" d="M256,378.435c-15.569,0-30.206-6.062-41.213-17.07c-21.146-21.153-22.906-54.635-4.098-77.883
	l32.333-39.953c3.17-3.918,7.939-6.193,12.978-6.193s9.808,2.275,12.978,6.193l32.332,39.952
	c18.809,23.249,17.048,56.731-4.095,77.882C286.206,372.373,271.569,378.435,256,378.435z"/>
<path style="fill:#F9A926;" d="M297.215,361.363c21.143-21.151,22.904-54.633,4.095-77.882l-32.332-39.952
	c-3.17-3.918-7.939-6.193-12.978-6.193v141.098C271.569,378.435,286.206,372.373,297.215,361.363z"/>
<g>
</g>
<g>
</g>
<g>
</g>
<g>
</g>
<g>
</g>
<g>
</g>
<g>
</g>
<g>
</g>
<g>
</g>
<g>
</g>
<g>
</g>
<g>
</g>
<g>
</g>
<g>
</g>
<g>
</g>
</svg>
