<?xml version="1.0" encoding="iso-8859-1"?>
<!-- Generator: Adobe Illustrator 19.0.0, SVG Export Plug-In . SVG Version: 6.00 Build 0)  -->
<svg version="1.1" id="Layer_1" xmlns="http://www.w3.org/2000/svg" xmlns:xlink="http://www.w3.org/1999/xlink" x="0px" y="0px"
	 viewBox="0 0 512 512" style="enable-background:new 0 0 512 512;" xml:space="preserve">
<path style="fill:#DAE1E6;" d="M454.658,122.078c-44.259-51.111-108.064-80.88-175.239-81.666
	C264.928,40.3,250.1,35.469,236.508,26.37C168.142-19.383,92.823-0.927,45.969,46.006c-0.011,0.011-0.011,0.011-0.022,0.022
	c-46.854,46.944-65.22,122.375-19.613,190.516c9.099,13.592,13.929,28.42,14.042,42.911c0.786,67.063,30.442,130.868,81.554,175.127
	c48.921,42.406,115.422,64.513,186.248,55.38c52.01-6.897,99.066-31.049,134.799-66.714c0.045-0.045,0.079-0.079,0.112-0.112
	c35.418-35.374,59.727-82.07,66.726-134.473C518.912,241.263,498.805,173.189,454.658,122.078z"/>
<path style="fill:#EDF0F2;" d="M443.088,443.136c-0.034,0.034-0.067,0.067-0.112,0.112c-35.733,35.666-82.789,59.817-134.799,66.714
	c-70.826,9.133-137.327-12.974-186.248-55.38c-51.111-44.259-80.767-108.064-81.554-175.127
	c-0.112-14.491-4.943-29.319-14.042-42.911C-19.274,168.404-0.907,92.972,45.947,46.028c0.011-0.011,0.011-0.011,0.022-0.022
	L443.088,443.136z"/>
<path style="fill:#F9A926;" d="M276.157,394.147c-65.041,0-117.949-52.913-117.949-117.949s52.909-117.949,117.949-117.949
	s117.949,52.913,117.949,117.949S341.199,394.147,276.157,394.147z"/>
<path style="fill:#FFC033;" d="M192.794,192.835c-21.359,21.358-34.586,50.845-34.586,83.363
	c0,65.035,52.909,117.949,117.949,117.949c32.52,0,62.007-13.228,83.363-34.586L192.794,192.835z"/>
<path style="fill:#FDCD99;" d="M242.457,293.048c-9.302,0-16.85-7.542-16.85-16.85c0-27.874,22.675-50.55,50.55-50.55
	c9.302,0,16.85,7.542,16.85,16.85s-7.548,16.85-16.85,16.85c-9.291,0-16.85,7.559-16.85,16.85
	C259.307,285.506,251.761,293.048,242.457,293.048z"/>
<path style="fill:#FFE0B2;" d="M225.607,276.198c0,9.308,7.548,16.85,16.85,16.85s16.85-7.542,16.85-16.85
	c0-4.646,1.889-8.859,4.94-11.91l-23.819-23.819C231.277,249.624,225.607,262.261,225.607,276.198z"/>
<g>
</g>
<g>
</g>
<g>
</g>
<g>
</g>
<g>
</g>
<g>
</g>
<g>
</g>
<g>
</g>
<g>
</g>
<g>
</g>
<g>
</g>
<g>
</g>
<g>
</g>
<g>
</g>
<g>
</g>
</svg>
