<?xml version="1.0" encoding="iso-8859-1"?>
<!-- Generator: Adobe Illustrator 19.0.0, SVG Export Plug-In . SVG Version: 6.00 Build 0)  -->
<svg version="1.1" id="Layer_1" xmlns="http://www.w3.org/2000/svg" xmlns:xlink="http://www.w3.org/1999/xlink" x="0px" y="0px"
	 viewBox="0 0 511.988 511.988" style="enable-background:new 0 0 511.988 511.988;" xml:space="preserve">
<g>
	<path style="fill:#8CC153;" d="M445.068,239.15c-5.344-19.202-19.266-43.937-55.25-52.702l-5.062,20.719
		c20.624,5.031,33.937,17.499,39.577,37.077c4.516,15.671,2.453,30.265,2.438,30.405l21.094,3.203
		C447.974,277.087,450.631,259.149,445.068,239.15z"/>
	<path style="fill:#8CC153;" d="M289.134,220.354c14.702,19.405-3.188,59.045-11.312,72.686l9.156,5.484l9.156,5.469
		c0.359-0.594,8.968-15.078,14.733-33.531c8.219-26.28,6.578-48.062-4.719-62.982L289.134,220.354z"/>
	<path style="fill:#8CC153;" d="M85.889,32.14c81.701,150.965,284.946,177.637,284.946,177.637
		C301.836,40.248,85.889,32.14,85.889,32.14z"/>
</g>
<g>
	<path style="fill:#434A54;" d="M362.664,383.85c0,53.014-33.438,95.998-74.671,95.998s-74.67-42.984-74.67-95.998
		c0-53.015,33.437-95.998,74.67-95.998S362.664,330.836,362.664,383.85z"/>
	<path style="fill:#434A54;" d="M511.988,362.522c0,53.015-33.437,95.998-74.67,95.998c-41.234,0-74.654-42.983-74.654-95.998
		c0-53.029,33.42-95.998,74.654-95.998C478.552,266.524,511.988,309.493,511.988,362.522z"/>
</g>
<g style="opacity:0.1;">
	<path style="fill:#FFFFFF;" d="M437.318,266.524c-3.625,0-7.188,0.328-10.656,0.969c36.171,6.656,63.998,46.655,63.998,95.029
		c0,48.358-27.827,88.357-63.998,95.014c3.469,0.641,7.031,0.984,10.656,0.984c41.233,0,74.67-42.983,74.67-95.998
		C511.988,309.493,478.552,266.524,437.318,266.524z"/>
</g>
<g style="opacity:0.1;">
	<path style="fill:#FFFFFF;" d="M288.493,287.852c-3.625,0-7.188,0.344-10.672,0.984c36.187,6.641,63.999,46.655,63.999,95.014
		c0,48.357-27.812,88.357-63.999,95.014c3.484,0.641,7.047,0.984,10.672,0.984c41.233,0,74.655-42.984,74.655-95.998
		S329.726,287.852,288.493,287.852z"/>
</g>
<path style="fill:#A0D468;" d="M501.832,181.214v-0.016c-106.67-5.094-206.792,21.281-211.011,22.406l0.078,0.266
	C107.778,174.932,0,349.163,0,349.163c153.324,21.062,267.572-87.467,303.32-126.669c24.484-5.827,109.811-24.171,197.496-19.983
	v-0.016c0.172,0,0.328,0.031,0.5,0.031c5.891,0,10.672-4.781,10.672-10.672C511.988,186.136,507.473,181.479,501.832,181.214z"/>
<g>
</g>
<g>
</g>
<g>
</g>
<g>
</g>
<g>
</g>
<g>
</g>
<g>
</g>
<g>
</g>
<g>
</g>
<g>
</g>
<g>
</g>
<g>
</g>
<g>
</g>
<g>
</g>
<g>
</g>
</svg>
