<?xml version="1.0" encoding="iso-8859-1"?>
<!-- Generator: Adobe Illustrator 19.0.0, SVG Export Plug-In . SVG Version: 6.00 Build 0)  -->
<svg version="1.1" id="Layer_1" xmlns="http://www.w3.org/2000/svg" xmlns:xlink="http://www.w3.org/1999/xlink" x="0px" y="0px"
	 viewBox="0 0 512 512" style="enable-background:new 0 0 512 512;" xml:space="preserve">
<path style="fill:#E9E9EA;" d="M306.828,75.843L306.828,75.843l0.245-20.191H204.804l0.37,20.191l0,0
	c0,18.14-7.387,35.546-20.595,47.981c-20.182,19.002-32.784,45.963-32.784,75.871v273.454c0,21.457,17.395,38.852,38.852,38.852
	h130.705c21.457,0,38.852-17.395,38.852-38.852V199.694c0-29.907-12.602-56.869-32.784-75.871
	C314.215,111.389,306.828,93.983,306.828,75.843z"/>
<path style="fill:#D8D8DB;" d="M306.828,75.843L306.828,75.843l0.245-20.191h-51.072V512h65.352
	c21.457,0,38.852-17.395,38.852-38.852V199.694c0-29.907-12.602-56.869-32.784-75.871
	C314.215,111.389,306.828,93.983,306.828,75.843z"/>
<path style="fill:#7CBEF9;" d="M298.298,0h-84.595c-11.782,0-21.331,9.551-21.331,21.331v54.511h127.259V21.331
	C319.63,9.551,310.079,0,298.298,0z"/>
<path style="fill:#5AA4E1;" d="M298.298,0h-42.298v75.843h63.629V21.331C319.63,9.551,310.079,0,298.298,0z"/>
<rect x="151.797" y="228.174" style="fill:#C8F7F1;" width="208.406" height="174.069"/>
<rect x="256.001" y="228.174" style="fill:#93CEF9;" width="104.203" height="174.069"/>
<path style="fill:#7CBEF9;" d="M256.001,362.782c31.787,0,34.987-31.147,28.16-45.227c-4.413-9.101-28.16-49.921-28.16-49.921
	s-23.748,40.82-28.16,49.921C221.013,331.635,224.213,362.782,256.001,362.782z"/>
<path style="fill:#5AA4E1;" d="M256.001,362.782c31.787,0,34.987-31.147,28.16-45.227c-4.413-9.101-28.16-49.921-28.16-49.921
	S256.001,340.424,256.001,362.782z"/>
<g>
</g>
<g>
</g>
<g>
</g>
<g>
</g>
<g>
</g>
<g>
</g>
<g>
</g>
<g>
</g>
<g>
</g>
<g>
</g>
<g>
</g>
<g>
</g>
<g>
</g>
<g>
</g>
<g>
</g>
</svg>
