<?xml version="1.0" encoding="iso-8859-1"?>
<!-- Generator: Adobe Illustrator 19.0.0, SVG Export Plug-In . SVG Version: 6.00 Build 0)  -->
<svg version="1.1" id="Layer_1" xmlns="http://www.w3.org/2000/svg" xmlns:xlink="http://www.w3.org/1999/xlink" x="0px" y="0px"
	 viewBox="0 0 511.989 511.989" style="enable-background:new 0 0 511.989 511.989;" xml:space="preserve">
<path style="fill:#434A54;" d="M202.66,26.667c0-5.89-4.773-10.671-10.664-10.671c-1.211,0-2.359,0.219-3.445,0.578l0,0
	c-1.352,0.453-13.546,4.875-25.726,17.531c-11.164,11.593-24.468,32.687-24.468,67.233c0,5.891,4.773,10.656,10.664,10.656
	s10.664-4.766,10.664-10.656c0-51.124,34.374-64.077,35.835-64.608l-0.078,0.031l0,0C199.637,35.324,202.66,31.355,202.66,26.667z"
	/>
<path style="fill:#F6BB42;" d="M249.136,225.194c-16.312-15.296-43.788-120.825-100.115-134.528
	C92.693,104.369,63.647,209.898,47.335,225.194C29.906,241.522,0,279.185,0,334.434c0,53.093,40.71,133.997,141.043,140.31
	c0.148,0.031,0.273,0.031,0.406,0.031c2.289,0,4.508-1.188,6.781-2.219c2.281,1.031,4.5,2.219,6.789,2.219
	c0.133,0,0.258,0,0.406-0.031c100.333-6.312,141.036-87.217,141.036-140.31C296.463,279.185,266.565,241.522,249.136,225.194z"/>
<g style="opacity:0.1;">
	<path d="M170.786,473.119c-0.406-0.188-0.812-0.375-1.219-0.562c-0.773,0.344-1.531,0.719-2.297,1.062
		C168.45,473.463,169.621,473.307,170.786,473.119z"/>
	<path d="M21.336,334.434c0-55.249,29.897-92.912,47.334-109.24c15.25-14.296,41.625-107.435,91.006-130.716
		c-3.438-1.625-6.984-2.922-10.656-3.812C92.693,104.369,63.647,209.898,47.335,225.194C29.906,241.522,0,279.185,0,334.434
		c0,53.093,40.71,133.997,141.043,140.31c0.148,0.031,0.273,0.031,0.406,0.031c1.875,0,3.711-0.812,5.57-1.656
		C57.874,459.963,21.336,384.746,21.336,334.434z"/>
	<path d="M150.536,473.619c1.484,0.625,2.969,1.156,4.484,1.156c0.133,0,0.258,0,0.406-0.031c1.164-0.062,2.32-0.188,3.477-0.281
		C156.059,474.244,153.278,473.963,150.536,473.619z"/>
</g>
<path style="fill:#FFCE54;" d="M511.989,346.652h-63.998h-75.874H298.68h-0.188h-21.374h-35.663H170.66
	c-0.531,50.031,83.186,100.467,85.17,102.186c28.007,24.25,40.539,44.812,115.818,47.062c1.688,0.062,3.359,0.094,5.031,0.094
	c76.983,0,129.685-53.5,135.028-135.311C512.005,356.215,511.989,346.652,511.989,346.652z M455.929,443.994
	c-19.953,20.062-47.359,30.656-79.249,30.656c-1.406,0-2.812,0-4.219-0.062c-0.062,0-0.125,0-0.172,0
	c-27.546-0.844-47.108-4.188-61.562-10.531c-12.297-5.406-20.499-12.906-30.89-22.344c-3.156-2.906-6.437-5.875-10.038-9
	c-1.234-1.062-2.211-1.718-4.352-3.124c-6.406-4.188-25.883-17-43.64-33.999c-10.117-9.719-17.835-19.062-22.882-27.594h42.53
	h35.663h21.374h0.188h73.437h75.874h41.654C486.083,399.152,474.506,425.307,455.929,443.994z"/>
<path style="fill:#FFE7B0;" d="M376.68,474.65c-1.531,0-3.094-0.031-4.625-0.094c-0.031,0-0.062,0-0.094,0
	c-62.187-1.844-77.748-16.031-99.31-35.625c-3.109-2.844-6.344-5.812-9.844-8.812c-0.695-0.625-1.281-1-3.219-2.281
	c-43.359-28.499-70.569-57.405-76.866-81.187h318.454c-0.031,1-0.062,1.938-0.109,2.656c-2.453,37.625-15.453,69.28-37.577,91.529
	C441.491,462.963,411.46,474.65,376.68,474.65z"/>
<path style="fill:#EDCA8C;" d="M319.993,346.652c0,23.562,23.875,42.688,53.343,42.688c29.437,0,53.327-19.125,53.327-42.688l0,0
	H319.993L319.993,346.652z"/>
<path style="fill:#434A54;" d="M362.649,346.652c0,5.906,4.78,10.656,10.687,10.656c5.875,0,10.656-4.75,10.656-10.656l0,0H362.649
	L362.649,346.652z"/>
<g>
</g>
<g>
</g>
<g>
</g>
<g>
</g>
<g>
</g>
<g>
</g>
<g>
</g>
<g>
</g>
<g>
</g>
<g>
</g>
<g>
</g>
<g>
</g>
<g>
</g>
<g>
</g>
<g>
</g>
</svg>
