<svg id="Capa_1" enable-background="new 0 0 451.498 451.498" height="512" viewBox="0 0 451.498 451.498" width="512" xmlns="http://www.w3.org/2000/svg"><g><path d="m367.977 347.813c-4.537 33.268-6.049 48.035 1.512 103.685h-186.442c-5.316-36.741-16.138-40.055-25.4-49.619-5.027-5.365-11.856-8.686-19.18-9.327h-29.966c-14.587.017-26.462-11.724-26.611-26.31l-.91-73.943-36.895-11.341c-10.107-3.082-15.802-13.775-12.719-23.882.819-2.686 2.219-5.158 4.101-7.242l38.561-43.245c1.001-1.121 1.541-2.579 1.512-4.082v-29.948c.086-95.387 77.482-172.645 172.869-172.559s172.644 77.482 172.559 172.869c-.025 27.861-6.79 55.303-19.717 79.983-16.491 29.495-27.748 61.624-33.274 94.961z" fill="#eeefee"/><path d="m360.026 181.047v-36.747l-27.036-5.742c-1.803-6.318-4.332-12.405-7.537-18.14l15.081-23.185-25.991-25.991-23.185 15.08c-5.73-3.209-11.819-5.729-18.14-7.508l-5.742-27.066h-36.753l-5.742 27.036c-6.32 1.8-12.409 4.328-18.146 7.531l-23.185-15.078-25.991 25.991 15.081 23.185c-3.205 5.735-5.735 11.822-7.537 18.14l-27.036 5.742v36.747l27.066 5.742c1.777 6.328 4.297 12.423 7.508 18.158l-15.081 23.185 25.991 25.991 23.185-15.086c5.735 3.205 11.822 5.735 18.14 7.537l5.742 27.036h36.747l5.742-27.066c6.317-1.792 12.404-4.312 18.14-7.508l23.185 15.08 25.991-25.991-15.069-23.179c3.196-5.736 5.715-11.823 7.508-18.14zm-110.915 29.464c-26.425 0-47.846-21.422-47.846-47.846s21.422-47.846 47.846-47.846c26.425 0 47.846 21.422 47.846 47.846 0 26.425-21.421 47.846-47.846 47.846z" fill="#575b6d"/></g></svg>