<?xml version="1.0" encoding="iso-8859-1"?>
<!-- Generator: Adobe Illustrator 19.0.0, SVG Export Plug-In . SVG Version: 6.00 Build 0)  -->
<svg version="1.1" id="Layer_1" xmlns="http://www.w3.org/2000/svg" xmlns:xlink="http://www.w3.org/1999/xlink" x="0px" y="0px"
	 viewBox="0 0 512 512" style="enable-background:new 0 0 512 512;" xml:space="preserve">
<path style="fill:#88CC2A;" d="M254.962,328.415l-71.377-71.371c-6.572-6.572-6.572-17.231,0-23.803L397.145,19.682
	c26.236-26.242,68.921-26.236,95.178-0.006c26.236,26.247,26.236,68.944,0,95.184l0,0L278.765,328.415
	C272.19,334.99,261.538,334.99,254.962,328.415z"/>
<path style="fill:#7FB335;" d="M254.962,328.415c6.575,6.575,17.228,6.575,23.803,0l213.558-213.553
	c26.236-26.242,26.236-68.938,0-95.184L217.935,292.946L254.962,328.415z"/>
<path style="fill:#EDF0F2;" d="M190.803,378.975c-2.553-14.219-9.469-27.337-19.967-37.929
	c-10.477-10.395-23.594-17.299-37.819-19.863c-13.34-2.393-18.534-18.852-8.92-28.466l71.265-71.265l95.18,95.173l-71.267,71.267
	C209.713,397.467,193.23,392.363,190.803,378.975z"/>
<path style="fill:#DAE1E6;" d="M170.836,341.046c10.498,10.591,17.414,23.71,19.967,37.929c2.427,13.389,18.91,18.492,28.471,8.915
	l71.267-71.267l-48.146-48.142l-72.101,72.101C170.465,340.749,170.665,340.877,170.836,341.046z"/>
<path style="fill:#736056;" d="M4.927,507.069c-3.671-3.666-5.436-8.816-4.8-13.961L14.155,379.43
	c10.909-87.174,117.49-124.655,180.495-62.187c40.409,40.768,41.003,104.02,4.482,145.502
	c-17.217,19.42-40.834,31.868-66.521,35.096L18.889,511.874C13.577,512.507,8.522,510.664,4.927,507.069z"/>
<path style="fill:#665247;" d="M199.132,462.746c36.521-41.482,35.926-104.734-4.482-145.502c-0.175-0.174-0.371-0.298-0.548-0.47
	L4.431,506.444c0.18,0.199,0.304,0.434,0.496,0.625c3.594,3.594,8.651,5.438,13.961,4.805l113.722-14.033
	C158.299,494.614,181.915,482.165,199.132,462.746z"/>
<g>
</g>
<g>
</g>
<g>
</g>
<g>
</g>
<g>
</g>
<g>
</g>
<g>
</g>
<g>
</g>
<g>
</g>
<g>
</g>
<g>
</g>
<g>
</g>
<g>
</g>
<g>
</g>
<g>
</g>
</svg>
