<?xml version="1.0" encoding="iso-8859-1"?>
<!-- Generator: Adobe Illustrator 19.0.0, SVG Export Plug-In . SVG Version: 6.00 Build 0)  -->
<svg version="1.1" id="Layer_1" xmlns="http://www.w3.org/2000/svg" xmlns:xlink="http://www.w3.org/1999/xlink" x="0px" y="0px"
	 viewBox="0 0 512 512" style="enable-background:new 0 0 512 512;" xml:space="preserve">
<path style="fill:#88CC2A;" d="M437.401,277.389c-46.486-44.348-122.144-44.37-168.652,0c-1.949,1.859-4.264,3.184-6.759,3.997
	c-1.893,0.624-3.886,0.935-5.879,0.946c-4.676,0.022-9.375-1.626-12.849-4.944c-46.508-44.359-122.166-44.359-168.652,0
	c-22.825,21.768-35.396,50.717-35.396,81.526s12.571,59.769,35.396,81.526C124.626,488.15,190.307,512,256,512h0.111
	c65.659-0.022,131.318-23.883,181.289-71.56c22.825-21.768,35.396-50.717,35.385-81.537
	C472.785,328.105,460.226,299.156,437.401,277.389z"/>
<path style="fill:#7FB335;" d="M472.785,358.903c0.011,30.82-12.56,59.769-35.385,81.537
	c-49.971,47.677-115.63,71.538-181.289,71.56V282.31c1.993-0.011,3.986-0.323,5.879-0.924c2.494-0.813,4.81-2.138,6.759-3.997
	c46.508-44.37,122.166-44.348,168.652,0C460.226,299.156,472.785,328.105,472.785,358.903z"/>
<path style="fill:#88CC2A;" d="M220.71,133.612h-33.403c-64.463,0-116.91-52.447-116.91-116.91C70.396,7.476,77.872,0,87.098,0
	h33.403c64.463,0,116.91,52.447,116.91,116.91C237.411,126.136,229.936,133.612,220.71,133.612z"/>
<path style="fill:#7FB335;" d="M289.743,200.418H256.34c-9.226,0-16.701-7.476-16.701-16.701c0-64.463,52.447-116.91,116.91-116.91
	h33.403c9.226,0,16.702,7.476,16.702,16.701C406.653,147.971,354.206,200.418,289.743,200.418z"/>
<path style="fill:#FFC033;" d="M264.807,373.678c-2.472,2.472-5.512,3.997-8.696,4.598c-1.035,0.189-2.071,0.29-3.118,0.29
	c-4.276,0-8.54-1.626-11.802-4.888c-6.525-6.525-6.525-17.102,0-23.616c5.846-5.846,10.789-11.569,14.92-17.18v-0.011
	c0.156-0.223,0.312-0.434,0.468-0.646c27.246-37.545,18.216-70.603-0.457-107.569c0-0.011-0.011-0.011-0.011-0.022
	c-4.454-8.818-9.464-17.871-14.664-27.257c-29.628-53.523-66.494-120.128,5.868-192.479c2.494-2.494,5.578-4.042,8.796-4.621
	c5.211-0.946,10.789,0.59,14.82,4.621c6.525,6.514,6.525,17.091,0,23.616c-0.178,0.178-0.367,0.367-0.546,0.557
	c-5.567,5.601-10.299,11.09-14.274,16.479c-28.003,37.946-18.884,71.249,0,108.56c4.431,8.774,9.409,17.759,14.564,27.09
	C300.292,234.722,337.159,301.327,264.807,373.678z"/>
<g>
	<path style="fill:#F9A926;" d="M264.807,373.678c-2.472,2.472-5.512,3.997-8.696,4.598v-45.406
		c0.156-0.223,0.312-0.434,0.468-0.646c27.246-37.545,18.216-70.603-0.457-107.569c0-0.011-0.011-0.011-0.011-0.022v-70.525
		c4.431,8.774,9.409,17.759,14.564,27.09C300.292,234.722,337.159,301.327,264.807,373.678z"/>
	<path style="fill:#F9A926;" d="M270.931,28.514c-0.178,0.178-0.367,0.367-0.546,0.557c-5.567,5.601-10.299,11.09-14.274,16.479
		V0.277c5.211-0.946,10.789,0.59,14.82,4.621C277.456,11.412,277.456,21.989,270.931,28.514z"/>
</g>
<path style="fill:#736056;" d="M256.34,378.567c-19.512,0-38.54-3.702-56.552-11.004c-8.547-3.463-12.668-13.205-9.205-21.752
	c3.463-8.541,13.2-12.656,21.752-9.205c28.021,11.351,59.988,11.363,88.009,0c8.541-3.463,18.289,0.658,21.752,9.205
	c3.463,8.552-0.658,18.289-9.205,21.752C294.87,374.865,275.847,378.567,256.34,378.567z"/>
<path style="fill:#665247;" d="M256.111,345.122v33.442c0.076,0,0.151,0.002,0.228,0.002c19.507,0,38.529-3.702,56.552-11.004
	c8.547-3.463,12.668-13.2,9.205-21.752c-3.463-8.547-13.211-12.668-21.752-9.205C286.263,342.317,271.185,345.152,256.111,345.122z"
	/>
<g>
</g>
<g>
</g>
<g>
</g>
<g>
</g>
<g>
</g>
<g>
</g>
<g>
</g>
<g>
</g>
<g>
</g>
<g>
</g>
<g>
</g>
<g>
</g>
<g>
</g>
<g>
</g>
<g>
</g>
</svg>
