<?xml version="1.0" encoding="iso-8859-1"?>
<!-- Generator: Adobe Illustrator 19.0.0, SVG Export Plug-In . SVG Version: 6.00 Build 0)  -->
<svg version="1.1" id="Layer_1" xmlns="http://www.w3.org/2000/svg" xmlns:xlink="http://www.w3.org/1999/xlink" x="0px" y="0px"
	 viewBox="0 0 512 512" style="enable-background:new 0 0 512 512;" xml:space="preserve">
<polygon style="fill:#E9E9E9;" points="365.531,239.545 272.455,146.469 46.042,372.882 0,512 139.118,465.958 "/>
<polygon style="fill:#D4D4D4;" points="365.531,239.545 318.993,193.007 0,512 139.118,465.958 "/>
<path style="fill:#80CDD8;" d="M381.359,223.717l111.364-111.364c25.702-25.702,25.702-67.374,0-93.076l0,0
	c-25.702-25.702-67.374-25.702-93.076,0L288.283,130.641L381.359,223.717z"/>
<g>
	<path style="fill:#5293A9;" d="M381.359,223.717l111.364-111.364c25.702-25.702,25.702-67.374,0-93.076l0,0
		C460.763,51.237,334.82,177.18,334.82,177.18L381.359,223.717z"/>
	
		<rect x="213.881" y="156.558" transform="matrix(-0.7071 -0.7071 0.7071 -0.7071 417.632 551.0729)" style="fill:#5293A9;" width="218.132" height="64.968"/>
</g>
<rect x="306.977" y="195.123" transform="matrix(-0.7071 -0.7071 0.7071 -0.7071 456.1934 644.1761)" style="fill:#3A7484;" width="109.066" height="64.968"/>
<g>
</g>
<g>
</g>
<g>
</g>
<g>
</g>
<g>
</g>
<g>
</g>
<g>
</g>
<g>
</g>
<g>
</g>
<g>
</g>
<g>
</g>
<g>
</g>
<g>
</g>
<g>
</g>
<g>
</g>
</svg>
