<?xml version="1.0" encoding="iso-8859-1"?>
<!-- Generator: Adobe Illustrator 19.0.0, SVG Export Plug-In . SVG Version: 6.00 Build 0)  -->
<svg version="1.1" id="Layer_1" xmlns="http://www.w3.org/2000/svg" xmlns:xlink="http://www.w3.org/1999/xlink" x="0px" y="0px"
	 viewBox="0 0 512 512" style="enable-background:new 0 0 512 512;" xml:space="preserve">
<path style="fill:#C9D2D9;" d="M256,100.174c-9.217,0-16.696-7.473-16.696-16.696V16.696C239.304,7.473,246.783,0,256,0
	s16.696,7.473,16.696,16.696v66.783C272.696,92.701,265.217,100.174,256,100.174z"/>
<path style="fill:#B7C4CC;" d="M272.696,83.478V16.696C272.696,7.473,265.217,0,256,0v100.174
	C265.217,100.174,272.696,92.701,272.696,83.478z"/>
<path style="fill:#C9D2D9;" d="M48.37,104.022c-4.272,0-8.544-1.631-11.804-4.892L12.565,75.125c-6.521-6.521-6.521-17.092,0-23.609
	c6.521-6.521,17.087-6.521,23.609,0l24.001,24.005c6.521,6.521,6.521,17.092,0,23.609C56.913,102.391,52.641,104.022,48.37,104.022z
	"/>
<path style="fill:#B7C4CC;" d="M463.63,115.152c-4.272,0-8.544-1.631-11.804-4.892c-6.521-6.516-6.521-17.092,0-23.609
	l22.979-22.979c6.521-6.521,17.087-6.521,23.609,0c6.521,6.516,6.521,17.092,0,23.609l-22.979,22.979
	C472.174,113.522,467.902,115.152,463.63,115.152z"/>
<path style="fill:#EDF0F2;" d="M196.217,87.309c-19.902-26.793-51.652-42.788-84.913-42.788C53,44.522,5.565,91.956,5.565,150.261
	c0,33.267,15.989,65.011,42.783,84.919c7.373,5.483,17.83,3.987,23.358-3.446l121.066-121.066
	C200.174,105.168,201.717,94.712,196.217,87.309z"/>
<path style="fill:#DAE1E6;" d="M475.434,86.647c-19.999-19.989-46.543-30.995-74.739-30.995c-19.816,0-39.141,5.539-55.88,16.006
	c-7.587,4.734-14.586,10.446-20.794,16.984c-6.359,6.685-6.087,17.25,0.598,23.603l111.957,132.332
	c5.18,7.658,15.55,9.637,23.185,4.489c11.304-7.635,20.913-17.233,28.554-28.533c11.86-17.522,18.12-37.973,18.12-59.142
	C506.435,133.19,495.423,106.646,475.434,86.647z"/>
<path style="fill:#B7C4CC;" d="M417.391,512c-4.272,0-8.544-1.631-11.804-4.892l-46.989-46.984c-6.521-6.516-6.521-17.087,0-23.609
	s17.087-6.521,23.609,0l46.989,46.984c6.521,6.516,6.521,17.087,0,23.609C425.935,510.369,421.663,512,417.391,512z"/>
<path style="fill:#C9D2D9;" d="M94.609,512c-4.272,0-8.544-1.631-11.804-4.892c-6.521-6.521-6.521-17.092,0-23.609l46.989-46.984
	c6.521-6.521,17.087-6.521,23.609,0s6.521,17.092,0,23.609l-46.989,46.984C103.152,510.369,98.881,512,94.609,512z"/>
<path style="fill:#E6563A;" d="M256,500.87c-119.674,0-217.043-97.365-217.043-217.043S136.326,66.783,256,66.783
	s217.043,97.365,217.043,217.043S375.674,500.87,256,500.87z"/>
<path style="fill:#D9472B;" d="M473.043,283.826c0-119.679-97.369-217.043-217.043-217.043V500.87
	C375.674,500.87,473.043,403.505,473.043,283.826z"/>
<path style="fill:#EDF0F2;" d="M256,434.087c-82.858,0-150.261-67.408-150.261-150.261S173.142,133.565,256,133.565
	s150.261,67.408,150.261,150.261S338.858,434.087,256,434.087z"/>
<path style="fill:#DAE1E6;" d="M406.261,283.826c0-82.853-67.403-150.261-150.261-150.261v300.522
	C338.858,434.087,406.261,366.679,406.261,283.826z"/>
<path style="fill:#736056;" d="M322.783,300.522H256c-9.217,0-16.696-7.473-16.696-16.696v-66.783
	c0-9.223,7.479-16.696,16.696-16.696s16.696,7.473,16.696,16.696v50.087h50.087c9.217,0,16.696,7.473,16.696,16.696
	S332,300.522,322.783,300.522z"/>
<path style="fill:#665247;" d="M322.783,300.522c9.217,0,16.696-7.473,16.696-16.696S332,267.13,322.783,267.13h-50.087v-50.087
	c0-9.223-7.479-16.696-16.696-16.696v100.174H322.783z"/>
<path style="fill:#EDF0F2;" d="M289.391,33.391h-66.783c-9.217,0-16.696-7.473-16.696-16.696S213.392,0,222.609,0h66.783
	c9.217,0,16.696,7.473,16.696,16.696S298.608,33.391,289.391,33.391z"/>
<path style="fill:#DAE1E6;" d="M289.391,0H256v33.391h33.391c9.217,0,16.696-7.473,16.696-16.696S298.608,0,289.391,0z"/>
<g>
</g>
<g>
</g>
<g>
</g>
<g>
</g>
<g>
</g>
<g>
</g>
<g>
</g>
<g>
</g>
<g>
</g>
<g>
</g>
<g>
</g>
<g>
</g>
<g>
</g>
<g>
</g>
<g>
</g>
</svg>
