<?xml version="1.0" encoding="iso-8859-1"?>
<!-- Generator: Adobe Illustrator 19.0.0, SVG Export Plug-In . SVG Version: 6.00 Build 0)  -->
<svg version="1.1" id="Capa_1" xmlns="http://www.w3.org/2000/svg" xmlns:xlink="http://www.w3.org/1999/xlink" x="0px" y="0px"
	 viewBox="0 0 468.293 468.293" style="enable-background:new 0 0 468.293 468.293;" xml:space="preserve">
<polygon style="fill:#2F4859;" points="0,146.191 110.587,230.841 230.841,110.587 146.191,0 "/>
<polygon style="fill:#FCD462;" points="435.301,169.327 465.407,442.092 468.293,468.293 442.092,465.407 169.327,435.301 
	127.809,266.907 266.907,127.809 "/>
<g>
	<path style="fill:#EBF0F3;" d="M332.231,270.925c-16.929-16.929-44.378-16.929-61.307,0s-16.929,44.377,0,61.307
		c12.799,12.799,31.606,15.904,47.34,9.349l123.827,123.827l26.201,2.886l-2.886-26.201L341.58,318.265
		C348.136,302.531,345.031,283.724,332.231,270.925z"/>
	
		<rect x="70.687" y="149.025" transform="matrix(-0.7071 0.7071 -0.7071 -0.7071 431.4702 178.6845)" style="fill:#EBF0F3;" width="216.084" height="59.355"/>
</g>
<g>
</g>
<g>
</g>
<g>
</g>
<g>
</g>
<g>
</g>
<g>
</g>
<g>
</g>
<g>
</g>
<g>
</g>
<g>
</g>
<g>
</g>
<g>
</g>
<g>
</g>
<g>
</g>
<g>
</g>
</svg>
