<?xml version="1.0" encoding="iso-8859-1"?>
<!-- Generator: Adobe Illustrator 19.0.0, SVG Export Plug-In . SVG Version: 6.00 Build 0)  -->
<svg version="1.1" id="Layer_1" xmlns="http://www.w3.org/2000/svg" xmlns:xlink="http://www.w3.org/1999/xlink" x="0px" y="0px"
	 viewBox="0 0 511.999 511.999" style="enable-background:new 0 0 511.999 511.999;" xml:space="preserve">
<polygon style="fill:#A7AFF3;" points="334.764,480.652 334.764,511.999 240.306,511.999 240.306,193.305 271.653,193.305 
	271.653,407.509 312.404,407.509 312.404,438.856 271.653,438.856 271.653,480.652 "/>
<polygon style="fill:#7885EB;" points="334.764,480.652 334.764,511.999 256,511.999 256,193.305 271.653,193.305 271.653,407.509 
	312.404,407.509 312.404,438.856 271.653,438.856 271.653,480.652 "/>
<path style="fill:#FF738E;" d="M366.958,74.03c-2.487,41.284-29.623,66.518-51.43,86.8c-18.035,16.771-34.168,31.274-49.319,44.346
	L256,213.984l-0.345,0.293l-41.535-38.097c-17.784-16.311-36.174-33.186-52.245-54.659c-17.439-23.301-21.828-54.659-11.452-81.837
	c9.174-24.012,31.253-39.215,57.637-39.675c18.422-0.293,35.527,6.635,47.94,18.693c0.293,0.282,0.585,0.564,0.867,0.857
	c1.818-1.735,3.803-3.469,5.966-5.151c13.218-10.25,35.255-20.041,65.15-8.401C353.938,16.11,368.87,42.171,366.958,74.03z"/>
<path style="fill:#FF3C62;" d="M366.958,74.03c-2.487,41.284-29.623,66.518-51.43,86.8c-18.035,16.771-34.168,31.274-49.319,44.346
	L256,213.984V18.701c0.293,0.282,0.585,0.564,0.867,0.857c1.818-1.735,3.803-3.469,5.966-5.151
	c13.218-10.25,35.255-20.041,65.15-8.401C353.938,16.11,368.87,42.171,366.958,74.03z"/>
<g>
</g>
<g>
</g>
<g>
</g>
<g>
</g>
<g>
</g>
<g>
</g>
<g>
</g>
<g>
</g>
<g>
</g>
<g>
</g>
<g>
</g>
<g>
</g>
<g>
</g>
<g>
</g>
<g>
</g>
</svg>
