<?xml version="1.0" encoding="iso-8859-1"?>
<!-- Generator: Adobe Illustrator 19.0.0, SVG Export Plug-In . SVG Version: 6.00 Build 0)  -->
<svg version="1.1" id="Layer_1" xmlns="http://www.w3.org/2000/svg" xmlns:xlink="http://www.w3.org/1999/xlink" x="0px" y="0px"
	 viewBox="0 0 511.99 511.99" style="enable-background:new 0 0 511.99 511.99;" xml:space="preserve">
<path style="fill:#CCD1D9;" d="M485.769,101.641c0,0,37.781-82.904,22.641-98.061c-15.156-15.14-98.061,22.64-98.061,22.64
	L237.822,198.747l75.42,75.419L485.769,101.641z"/>
<path style="fill:#ED5564;" d="M342.476,260.027l-90.514-90.513L18.781,402.695c-0.016,0.016-0.031,0.031-0.031,0.047
	c-25,24.983-25,65.515,0,90.498c24.983,24.999,65.514,24.999,90.497,0c0.031-0.016,0.047-0.047,0.078-0.062L342.476,260.027z"/>
<path style="fill:#AAB2BC;" d="M432.974,79.016c-4.156-4.172-10.922-4.172-15.078,0l0,0L312.305,184.592v0.016
	c-4.172,4.156-4.172,10.906,0,15.077c4.156,4.172,10.922,4.172,15.078,0l0,0L432.974,94.094l0,0
	C437.146,89.922,437.146,83.172,432.974,79.016z"/>
<polygon style="fill:#DA4453;" points="327.383,275.104 236.885,184.608 251.963,169.514 342.476,260.027 "/>
<g style="opacity:0.2;">
	<path style="fill:#FFFFFF;" d="M342.476,260.027l-90.514-90.513l0,0l75.42,75.42L94.232,478.085
		c-0.016,0.031-0.047,0.047-0.062,0.078c-22.422,22.421-57.343,24.718-82.342,6.905c2.047,2.875,4.344,5.609,6.922,8.172
		c24.983,24.999,65.514,24.999,90.497,0c0.031-0.016,0.047-0.047,0.078-0.062L342.476,260.027z"/>
</g>
<g>
</g>
<g>
</g>
<g>
</g>
<g>
</g>
<g>
</g>
<g>
</g>
<g>
</g>
<g>
</g>
<g>
</g>
<g>
</g>
<g>
</g>
<g>
</g>
<g>
</g>
<g>
</g>
<g>
</g>
</svg>
