<?xml version="1.0" encoding="iso-8859-1"?>
<!-- Generator: Adobe Illustrator 19.0.0, SVG Export Plug-In . SVG Version: 6.00 Build 0)  -->
<svg version="1.1" id="Layer_1" xmlns="http://www.w3.org/2000/svg" xmlns:xlink="http://www.w3.org/1999/xlink" x="0px" y="0px"
	 viewBox="0 0 511.989 511.989" style="enable-background:new 0 0 511.989 511.989;" xml:space="preserve">
<path style="fill:#A0D468;" d="M340.15,0c0,0-131.739,13.734-126.739,148.724c3,80.936,113.802,64.225,84.083-2.5
	c-34.084-76.498,64-103.561,64-103.561L340.15,0z"/>
<g style="opacity:0.1;">
	<path d="M361.493,42.663L340.15,0c0,0-7.719,0.805-19.359,3.938l19.359,38.726c0,0-98.076,27.062-63.983,103.561
		c13.641,30.64-2.343,50.726-23.905,55.663c29.858,6.695,63.186-15.359,45.232-55.663C263.41,69.726,361.493,42.663,361.493,42.663z
		"/>
</g>
<path style="fill:#E9573F;" d="M160.123,498.772h93.669h98.326c117.153,0,159.824-378.298,63.998-378.298H96.124
	C-0.053,120.474,42.61,498.772,160.123,498.772z"/>
<g style="opacity:0.1;">
	<path d="M117.46,120.474H96.124c-96.177,0-53.514,378.298,63.999,378.298h21.335C63.946,498.772,21.283,120.474,117.46,120.474z"/>
</g>
<g style="opacity:0.1;">
	<path d="M394.539,120.474h21.328c96.17,0,53.515,378.298-63.998,378.298H330.54C448.039,498.772,490.709,120.474,394.539,120.474z"
		/>
</g>
<path style="fill:#FC6E51;" d="M334.868,106.655H177.006c-70.397,0.008-59.702,85.865-59.702,170.715
	c0,84.842,31.976,234.619,86.725,234.619h103.825c54.75,0,86.951-171.121,86.951-234.666
	C394.805,213.769,405.273,106.662,334.868,106.655z"/>
<g>
</g>
<g>
</g>
<g>
</g>
<g>
</g>
<g>
</g>
<g>
</g>
<g>
</g>
<g>
</g>
<g>
</g>
<g>
</g>
<g>
</g>
<g>
</g>
<g>
</g>
<g>
</g>
<g>
</g>
</svg>
