<?xml version="1.0" encoding="iso-8859-1"?>
<!-- Generator: Adobe Illustrator 19.0.0, SVG Export Plug-In . SVG Version: 6.00 Build 0)  -->
<svg version="1.1" id="Layer_1" xmlns="http://www.w3.org/2000/svg" xmlns:xlink="http://www.w3.org/1999/xlink" x="0px" y="0px"
	 viewBox="0 0 512 512" style="enable-background:new 0 0 512 512;" xml:space="preserve">
<path style="fill:#B7C4CC;" d="M389.565,133.565h-66.783c-9.217,0-16.696-7.473-16.696-16.696V50.087
	c0-9.223,7.479-16.696,16.696-16.696h66.783c9.217,0,16.696,7.473,16.696,16.696v66.783
	C406.261,126.092,398.782,133.565,389.565,133.565z"/>
<path style="fill:#C9D3D9;" d="M456.348,166.957h-66.783c-9.217,0-16.696-7.473-16.696-16.696V16.696
	C372.87,7.473,380.348,0,389.565,0h66.783c9.217,0,16.696,7.473,16.696,16.696v133.565
	C473.043,159.484,465.565,166.957,456.348,166.957z"/>
<path style="fill:#736056;" d="M261.565,512c-30.684,0-55.652-24.968-55.652-55.652V150.261c0-9.223,7.479-16.696,16.696-16.696
	h77.913c9.217,0,16.696,7.473,16.696,16.696v306.087C317.217,487.032,292.25,512,261.565,512z"/>
<path style="fill:#665247;" d="M317.217,456.348V150.261c0-9.223-7.479-16.696-16.696-16.696h-38.957V512
	C292.25,512,317.217,487.032,317.217,456.348z"/>
<path style="fill:#DBE1E5;" d="M322.783,166.957H189.217c-9.217,0-16.696-7.473-16.696-16.696c0-18.413-14.978-33.391-33.391-33.391
	s-33.391,14.978-33.391,33.391c0,9.223-7.479,16.696-16.696,16.696H55.652c-9.217,0-16.696-7.473-16.696-16.696V116.87
	C38.957,52.429,91.381,0,155.826,0h166.957c9.217,0,16.696,7.473,16.696,16.696v133.565
	C339.478,159.484,332,166.957,322.783,166.957z"/>
<path style="fill:#C9D3D9;" d="M322.783,0h-61.217v166.957h61.217c9.217,0,16.696-7.473,16.696-16.696V16.696
	C339.478,7.473,332,0,322.783,0z"/>
<g>
</g>
<g>
</g>
<g>
</g>
<g>
</g>
<g>
</g>
<g>
</g>
<g>
</g>
<g>
</g>
<g>
</g>
<g>
</g>
<g>
</g>
<g>
</g>
<g>
</g>
<g>
</g>
<g>
</g>
</svg>
