<?xml version="1.0" encoding="iso-8859-1"?>
<!-- Generator: Adobe Illustrator 19.0.0, SVG Export Plug-In . SVG Version: 6.00 Build 0)  -->
<svg version="1.1" id="Layer_1" xmlns="http://www.w3.org/2000/svg" xmlns:xlink="http://www.w3.org/1999/xlink" x="0px" y="0px"
	 viewBox="0 0 511.99 511.99" style="enable-background:new 0 0 511.99 511.99;" xml:space="preserve">
<path style="fill:#8CC153;" d="M226.413,125.67c-48.405,22.397-171.45,31.866-171.45,31.866S141.805,69.85,190.21,47.452
	c48.39-22.397,95.725-23.046,105.725-1.445C305.934,67.608,274.81,103.271,226.413,125.67z"/>
<path style="fill:#434A54;" d="M297.809,0c-5.905,0-10.687,4.773-10.687,10.664v66.999h21.343V10.664
	C308.466,4.773,303.684,0,297.809,0z"/>
<path style="fill:#FFE7B0;" d="M297.029,501.334c-49.069,0-84.725-12.938-109.021-39.516
	c-12.968-14.203-22.921-32.779-29.593-55.217c-7.109-23.953-10.719-53.109-10.719-86.607c0-41,19.343-103.201,48.155-154.794
	c15.171-27.156,32.078-49.765,48.937-65.382c18-16.688,35.335-25.155,51.522-25.155c16.218,0,33.624,8.476,51.78,25.187
	c17,15.633,34.093,38.249,49.436,65.397c29.219,51.71,48.844,113.903,48.844,154.747c0,33.498-3.625,62.654-10.719,86.607
	c-6.688,22.438-16.625,41.014-29.625,55.217C381.746,488.396,346.091,501.334,297.029,501.334z"/>
<path style="fill:#B6C967;" d="M296.31,63.999c-80.334,0-159.286,170.66-159.286,255.995c0,141.371,61.639,191.996,160.004,191.996
	c98.372,0,159.997-50.625,159.997-191.996C457.026,234.659,376.652,63.999,296.31,63.999z M398.151,454.615
	c-22.124,24.25-55.217,36.031-101.122,36.031c-45.913,0-78.991-11.781-101.146-36.031c-11.875-13-21.046-30.17-27.234-51.061
	c-6.828-22.969-10.296-51.094-10.296-83.561c0-18.594,4.5-43.344,12.64-69.694c8.484-27.422,20.296-55.046,34.171-79.904
	c14.625-26.188,30.827-47.89,46.874-62.749c19.891-18.445,35.054-22.312,44.273-22.312c16.749,0,33.468,12.156,44.562,22.359
	c16.188,14.891,32.562,36.608,47.343,62.796c14.062,24.89,26.062,52.514,34.655,79.896c8.281,26.358,12.812,51.077,12.812,69.608
	c0,32.467-3.438,60.592-10.281,83.561C419.214,424.445,410.057,441.615,398.151,454.615z"/>
<path style="opacity:0.2;fill:#FFFFFF;enable-background:new    ;" d="M296.31,63.999c-7.125,0-14.25,1.352-21.312,3.867
	c72.624,25.78,139.372,174.371,139.372,252.128c0,130.871-52.811,183.965-138.685,191.121c6.906,0.594,14.031,0.875,21.344,0.875
	c98.372,0,159.997-50.625,159.997-191.996C457.026,234.659,376.652,63.999,296.31,63.999z"/>
<path style="fill:#965353;" d="M383.121,330.65c0,58.92-38.187,106.684-85.343,106.684c-47.115,0-85.318-47.764-85.318-106.684
	c0-58.898,38.203-106.655,85.318-106.655C344.934,223.995,383.121,271.752,383.121,330.65z"/>
<g style="opacity:0.2;">
	<path style="fill:#FFFFFF;" d="M297.778,223.995c-3.593,0-7.155,0.281-10.655,0.828c42.093,6.562,74.655,51.452,74.655,105.827
		c0,54.404-32.562,99.279-74.655,105.84c3.5,0.547,7.062,0.844,10.655,0.844c47.156,0,85.343-47.764,85.343-106.684
		C383.121,271.752,344.934,223.995,297.778,223.995z"/>
</g>
<g>
</g>
<g>
</g>
<g>
</g>
<g>
</g>
<g>
</g>
<g>
</g>
<g>
</g>
<g>
</g>
<g>
</g>
<g>
</g>
<g>
</g>
<g>
</g>
<g>
</g>
<g>
</g>
<g>
</g>
</svg>
