<?xml version="1.0" encoding="iso-8859-1"?>
<!-- Generator: Adobe Illustrator 19.0.0, SVG Export Plug-In . SVG Version: 6.00 Build 0)  -->
<svg version="1.1" id="Layer_1" xmlns="http://www.w3.org/2000/svg" xmlns:xlink="http://www.w3.org/1999/xlink" x="0px" y="0px"
	 viewBox="0 0 512 512" style="enable-background:new 0 0 512 512;" xml:space="preserve">
<path style="fill:#FF9F19;" d="M511.443,239.304c-3.673-56.32-25.489-107.631-59.881-148.257
	c-7.126-8.459-14.805-16.473-23.041-24.042C386.783,28.939,332.466,4.452,272.696,0.557C267.242,0.223,261.565,0,256,0
	c-5.565,0-11.242,0.223-16.696,0.557c-59.77,3.896-114.087,28.383-155.826,66.449c-8.237,7.569-15.915,15.583-23.041,24.042
	C26.046,131.673,4.23,182.984,0.557,239.304C0.223,244.758,0,250.435,0,256c0,5.565,0.223,11.242,0.557,16.696
	c3.673,56.32,25.489,107.631,59.881,148.257c7.126,8.459,14.805,16.473,23.041,24.042c41.739,38.066,96.056,62.553,155.826,66.449
	C244.758,511.777,250.435,512,256,512c5.565,0,11.242-0.223,16.696-0.557c59.77-3.896,114.087-28.383,155.826-66.449
	c8.237-7.569,15.915-15.583,23.041-24.042c34.391-40.626,56.208-91.937,59.881-148.257C511.777,267.242,512,261.565,512,256
	C512,250.435,511.777,244.758,511.443,239.304z"/>
<path style="fill:#F28618;" d="M272.696,511.443c59.77-3.896,114.087-28.383,155.826-66.449
	c8.237-7.569,15.915-15.583,23.041-24.042c34.391-40.626,56.208-91.937,59.881-148.257C511.777,267.242,512,261.565,512,256
	c0-5.565-0.223-11.242-0.557-16.696c-3.673-56.32-25.489-107.631-59.881-148.257c-7.126-8.459-14.805-16.473-23.041-24.042
	C386.783,28.939,332.466,4.452,272.696,0.557C267.242,0.223,261.565,0,256,0v512C261.565,512,267.242,511.777,272.696,511.443z"/>
<path style="fill:#FFE0B2;" d="M512,256c0-5.565-0.223-11.242-0.557-16.696h-132.34c3.449-46.859,21.369-89.6,49.418-123.882
	c7.123-8.682,14.805-16.807,23.041-24.376c-7.126-8.459-14.805-16.473-23.041-24.042c-8.237,7.57-15.915,15.583-23.041,24.042
	c-34.391,40.626-56.208,91.937-59.881,148.257h-72.904V0.557C267.242,0.223,261.565,0,256,0c-5.565,0-11.242,0.223-16.696,0.557
	v238.748H166.4c-3.673-56.32-25.489-107.631-59.881-148.257c-7.126-8.459-14.805-16.473-23.041-24.042
	c-8.237,7.569-15.915,15.583-23.041,24.042c8.237,7.569,15.918,15.694,23.041,24.376c28.049,34.282,45.969,77.023,49.418,123.882
	H0.557C0.223,244.758,0,250.435,0,256c0,5.565,0.223,11.242,0.557,16.696h132.34c-3.449,46.859-21.369,89.6-49.418,123.882
	c-7.123,8.682-14.805,16.807-23.041,24.376c7.126,8.459,14.805,16.473,23.041,24.042c8.237-7.569,15.915-15.583,23.041-24.042
	c34.391-40.626,56.208-91.937,59.881-148.257h72.904v238.748C244.758,511.777,250.435,512,256,512
	c5.565,0,11.242-0.223,16.696-0.557V272.696H345.6c3.673,56.32,25.489,107.631,59.881,148.257
	c7.126,8.459,14.805,16.473,23.041,24.042c8.237-7.569,15.915-15.583,23.041-24.042c-8.237-7.569-15.918-15.694-23.041-24.376
	c-28.049-34.282-45.969-77.023-49.418-123.882h132.34C511.777,267.242,512,261.565,512,256z"/>
<path style="fill:#FDCD99;" d="M272.696,511.443V272.696H345.6c3.673,56.32,25.489,107.631,59.881,148.257
	c7.126,8.459,14.805,16.473,23.041,24.042c8.237-7.569,15.915-15.583,23.041-24.042c-8.237-7.569-15.918-15.694-23.041-24.376
	c-28.049-34.282-45.969-77.023-49.418-123.882h132.34C511.777,267.242,512,261.565,512,256s-0.223-11.242-0.557-16.696h-132.34
	c3.449-46.859,21.369-89.6,49.418-123.882c7.123-8.682,14.805-16.807,23.041-24.376c-7.126-8.459-14.805-16.473-23.041-24.042
	c-8.237,7.57-15.915,15.583-23.041,24.042c-34.391,40.626-56.208,91.937-59.881,148.257h-72.904V0.557
	C267.242,0.223,261.565,0,256,0v512C261.565,512,267.242,511.777,272.696,511.443z"/>
<g>
</g>
<g>
</g>
<g>
</g>
<g>
</g>
<g>
</g>
<g>
</g>
<g>
</g>
<g>
</g>
<g>
</g>
<g>
</g>
<g>
</g>
<g>
</g>
<g>
</g>
<g>
</g>
<g>
</g>
</svg>
