<?xml version="1.0" encoding="iso-8859-1"?>
<!-- Generator: Adobe Illustrator 19.0.0, SVG Export Plug-In . SVG Version: 6.00 Build 0)  -->
<svg version="1.1" id="Layer_1" xmlns="http://www.w3.org/2000/svg" xmlns:xlink="http://www.w3.org/1999/xlink" x="0px" y="0px"
	 viewBox="0 0 512 512" style="enable-background:new 0 0 512 512;" xml:space="preserve">
<path style="fill:#37BDD9;" d="M356.174,262.232H155.826c-9.239,0-16.696,7.457-16.696,16.696v216.375
	c0,6.122,3.339,11.798,8.793,14.692c5.454,2.893,12.021,2.671,17.141-0.779l40.849-27.27L256,448.556l50.087,33.391l40.847,27.27
	c5.121,3.45,11.911,3.673,17.141,0.779c5.454-2.894,8.793-8.57,8.793-14.692V278.928
	C372.869,269.69,365.413,262.232,356.174,262.232z"/>
<path style="fill:#33A3BF;" d="M356.174,262.232H256v186.323l50.087,33.391l40.847,27.27c5.121,3.45,11.911,3.673,17.141,0.779
	c5.454-2.894,8.793-8.57,8.793-14.692V278.928C372.869,269.69,365.413,262.232,356.174,262.232z"/>
<path style="fill:#61DAF2;" d="M289.391,263.457h-66.782c-9.239,0-16.696,7.457-16.696,16.696v201.794L256,448.556l50.087,33.391
	V280.152C306.087,270.914,298.63,263.457,289.391,263.457z"/>
<path style="fill:#45C7E6;" d="M289.391,263.457H256v185.099l50.087,33.391V280.152C306.087,270.914,298.63,263.457,289.391,263.457
	z"/>
<path style="fill:#FFE14D;" d="M256,333.912c-92.065,0-166.956-74.897-166.956-166.956S163.935,0,256,0
	s166.956,74.897,166.956,166.956S348.065,333.912,256,333.912z"/>
<path style="fill:#FFCC33;" d="M422.956,166.956C422.956,74.897,348.065,0,256,0v333.912
	C348.065,333.912,422.956,259.016,422.956,166.956z"/>
<path style="fill:#FFC033;" d="M256,33.391c-73.652,0-133.565,59.918-133.565,133.565S182.348,300.521,256,300.521
	s133.565-59.918,133.565-133.565S329.652,33.391,256,33.391z"/>
<path style="fill:#F9A926;" d="M389.565,166.956c0-73.647-59.913-133.565-133.565-133.565v267.13
	C329.652,300.521,389.565,240.603,389.565,166.956z"/>
<path style="fill:#FFE14D;" d="M305.065,251.19c-2.664,0-5.326-0.636-7.771-1.919L256,227.559l-41.294,21.712
	c-5.62,2.945-12.435,2.462-17.587-1.272c-5.141-3.733-7.718-10.065-6.642-16.326l7.891-45.994l-33.413-32.565
	c-4.555-4.434-6.195-11.07-4.228-17.114c1.968-6.049,7.196-10.451,13.478-11.364l46.173-6.706l20.652-41.837
	c2.807-5.701,8.61-9.309,14.969-9.309c6.359,0,12.163,3.608,14.967,9.309l20.652,41.837l46.173,6.706
	c6.283,0.913,11.511,5.315,13.478,11.364c1.968,6.044,0.326,12.68-4.228,17.114l-33.413,32.565l7.891,45.994
	c1.076,6.261-1.5,12.592-6.642,16.326C311.968,250.114,308.522,251.19,305.065,251.19z"/>
<path style="fill:#FFCC33;" d="M297.294,249.271c2.445,1.282,5.109,1.919,7.771,1.919c3.456,0,6.902-1.076,9.815-3.19
	c5.141-3.733,7.718-10.065,6.642-16.326l-7.891-45.994l33.413-32.565c4.555-4.434,6.195-11.07,4.228-17.114
	c-1.968-6.049-7.196-10.451-13.478-11.364l-46.173-6.706l-20.652-41.837c-2.805-5.702-8.609-9.311-14.968-9.311v160.777
	L297.294,249.271z"/>
<g>
</g>
<g>
</g>
<g>
</g>
<g>
</g>
<g>
</g>
<g>
</g>
<g>
</g>
<g>
</g>
<g>
</g>
<g>
</g>
<g>
</g>
<g>
</g>
<g>
</g>
<g>
</g>
<g>
</g>
</svg>
