<?xml version="1.0" encoding="iso-8859-1"?>
<!-- Generator: Adobe Illustrator 19.0.0, SVG Export Plug-In . SVG Version: 6.00 Build 0)  -->
<svg version="1.1" id="Layer_1" xmlns="http://www.w3.org/2000/svg" xmlns:xlink="http://www.w3.org/1999/xlink" x="0px" y="0px"
	 viewBox="0 0 512 512" style="enable-background:new 0 0 512 512;" xml:space="preserve">
<path style="fill:#FF738E;" d="M437.139,181.139c0,59.158-28.75,130.986-85.463,213.5c-41.587,60.513-82.566,103.632-84.287,105.438
	L256,512l-1.795-1.879l-9.594-10.045c-1.721-1.805-42.7-44.925-84.287-105.438c-56.713-82.513-85.463-154.341-85.463-213.5
	c0-99.276,80.288-180.163,179.344-181.128C254.803,0,255.402,0,256,0C355.885,0,437.139,81.264,437.139,181.139z"/>
<path style="fill:#FF3C62;" d="M437.139,181.139c0,59.158-28.75,130.986-85.463,213.5c-41.587,60.513-82.566,103.632-84.287,105.438
	L256,512l-1.795-1.879V0.01C254.803,0,255.402,0,256,0C355.885,0,437.139,81.264,437.139,181.139z"/>
<path style="fill:#D7E9FF;" d="M321.278,172.101c-1.428,23.775-16.249,38.365-32.676,53.648
	c-11.284,10.497-22.725,20.857-34.397,30.923c-7.18-6.581-14.359-13.173-21.539-19.755c-12.512-11.483-25.013-22.893-35.835-37.357
	c-9.93-13.257-12.638-31.185-6.581-47.035c10.843-28.404,52.157-27.259,63.955,0.399c0.021,0.042,0.031,0.073,0.052,0.115
	c0,0,15.22-30.094,46.615-17.865C316.313,141.178,322.223,156.461,321.278,172.101z"/>
<path style="fill:#BBDDFF;" d="M321.278,172.101c-1.428,23.775-16.249,38.365-32.676,53.648
	c-11.284,10.497-22.725,20.857-34.397,30.923V152.924c0.021,0.042,0.031,0.073,0.052,0.115c0,0,15.22-30.094,46.615-17.865
	C316.313,141.178,322.223,156.461,321.278,172.101z"/>
<g>
</g>
<g>
</g>
<g>
</g>
<g>
</g>
<g>
</g>
<g>
</g>
<g>
</g>
<g>
</g>
<g>
</g>
<g>
</g>
<g>
</g>
<g>
</g>
<g>
</g>
<g>
</g>
<g>
</g>
</svg>
