<?xml version="1.0" encoding="iso-8859-1"?>
<!-- Generator: Adobe Illustrator 19.0.0, SVG Export Plug-In . SVG Version: 6.00 Build 0)  -->
<svg version="1.1" id="Layer_1" xmlns="http://www.w3.org/2000/svg" xmlns:xlink="http://www.w3.org/1999/xlink" x="0px" y="0px"
	 viewBox="0 0 512 512" style="enable-background:new 0 0 512 512;" xml:space="preserve">
<path style="fill:#C9D2D9;" d="M24.119,498.508c-5.015-1.672-8.949-5.605-10.62-10.62c-31.314-94.025-7.245-195.868,62.804-265.792
	l36.232-36.237c6.293-6.294,17.438-6.294,23.732,0l189.876,189.865c3.147,3.147,4.917,7.413,4.917,11.865
	c0,4.452-1.77,8.719-4.917,11.865l-36.253,36.253C220.078,505.634,118.281,529.845,24.119,498.508z"/>
<path style="fill:#B7C4CC;" d="M326.141,399.456c3.147-3.147,4.917-7.413,4.917-11.865c0-4.452-1.77-8.719-4.917-11.865
	l-94.935-94.929L17.553,494.449c1.819,1.82,4.058,3.222,6.566,4.059c94.162,31.337,195.959,7.127,265.769-62.798L326.141,399.456z"
	/>
<path style="fill:#EDF0F2;" d="M160.009,351.992c-6.555-6.55-6.555-17.176,0-23.732l118.669-118.675
	c6.555-6.555,17.176-6.555,23.732,0c6.555,6.55,6.555,17.176,0,23.732L183.741,351.992
	C177.184,358.549,166.564,358.549,160.009,351.992z"/>
<path style="fill:#DAE1E6;" d="M302.413,209.589L160.009,351.992c6.555,6.555,17.176,6.555,23.732,0L302.41,233.318
	C308.966,226.762,308.966,216.14,302.413,209.589z"/>
<path style="fill:#FFC033;" d="M326.13,273.805c-4.294,0-8.588-1.639-11.865-4.917l-71.163-71.157
	c-3.147-3.147-4.917-7.413-4.917-11.865c0-4.452,1.77-8.719,4.917-11.865l47.441-47.441c6.555-6.555,17.176-6.555,23.732,0
	l71.163,71.163c3.147,3.147,4.917,7.413,4.917,11.865c0,4.452-1.77,8.719-4.917,11.865l-47.441,47.436
	C334.719,272.166,330.424,273.805,326.13,273.805z"/>
<path style="fill:#F9A926;" d="M314.265,268.888c3.278,3.278,7.572,4.917,11.865,4.917c4.293,0,8.588-1.639,11.865-4.917
	l47.441-47.436c3.147-3.147,4.917-7.413,4.917-11.865c0-4.452-1.77-8.719-4.917-11.865l-35.578-35.578l-71.172,71.172
	L314.265,268.888z"/>
<path style="fill:#736056;" d="M492.952,20.499c-0.336-0.224-0.559-0.448-0.784-0.671c-4.698-4.812-10.068-8.951-16.223-12.307
	C454.24-4.451,420.226-3.333,397.402,19.716L278.692,138.425l94.878,94.878l117.032-116.919
	C519.915,86.958,517.566,45.785,492.952,20.499z"/>
<path style="fill:#665247;" d="M490.603,116.384L373.57,233.303l-47.439-47.439L492.168,19.828c0.224,0.224,0.448,0.448,0.784,0.671
	C517.566,45.785,519.915,86.958,490.603,116.384z"/>
<path style="fill:#FFE14D;" d="M350.07,297.75c-4.294,0-8.588-1.639-11.865-4.917L219.393,174.01
	c-6.555-6.555-6.555-17.181,0-23.737c6.555-6.545,17.177-6.55,23.732,0.006L361.936,269.1c6.555,6.555,6.555,17.181,0,23.737
	C358.658,296.111,354.364,297.75,350.07,297.75z"/>
<path style="fill:#FFCC33;" d="M338.204,292.832c3.278,3.278,7.572,4.917,11.865,4.917c4.293,0,8.588-1.639,11.865-4.912
	c6.555-6.555,6.555-17.181,0-23.737l-59.515-59.52l-23.732,23.732L338.204,292.832z"/>
<g>
</g>
<g>
</g>
<g>
</g>
<g>
</g>
<g>
</g>
<g>
</g>
<g>
</g>
<g>
</g>
<g>
</g>
<g>
</g>
<g>
</g>
<g>
</g>
<g>
</g>
<g>
</g>
<g>
</g>
</svg>
