<?xml version="1.0" encoding="iso-8859-1"?>
<!-- Generator: Adobe Illustrator 19.0.0, SVG Export Plug-In . SVG Version: 6.00 Build 0)  -->
<svg version="1.1" id="Layer_1" xmlns="http://www.w3.org/2000/svg" xmlns:xlink="http://www.w3.org/1999/xlink" x="0px" y="0px"
	 viewBox="0 0 508.1 508.1" style="enable-background:new 0 0 508.1 508.1;" xml:space="preserve">
<path style="fill:#40596B;" d="M412.85,0H95.25c-11.7,0-21.2,9.5-21.2,21.2v465.7c0,11.7,9.5,21.2,21.2,21.2h317.6
	c11.7,0,21.2-9.5,21.2-21.2V21.2C433.95,9.5,424.55,0,412.85,0z"/>
<rect x="119.25" y="119.3" style="fill:#FFFFFF;" width="269.6" height="301.7"/>
<g>
	<path style="fill:#ACB3BA;" d="M310.35,27.6h-83c-0.3,0-0.5-0.2-0.5-0.5V18c0-0.3,0.2-0.5,0.5-0.5h83c0.3,0,0.5,0.2,0.5,0.5v9.2
		C310.85,27.4,310.55,27.6,310.35,27.6z"/>
	<path style="fill:#ACB3BA;" d="M217.35,27.6h-19.6c-0.3,0-0.5-0.2-0.5-0.5V18c0-0.3,0.2-0.5,0.5-0.5h19.6c0.3,0,0.5,0.2,0.5,0.5
		v9.2C217.85,27.4,217.65,27.6,217.35,27.6z"/>
	<circle style="fill:#ACB3BA;" cx="254.05" cy="464.5" r="27"/>
</g>
<g>
	<path style="fill:#F1543F;" d="M132.45,152.9c0,22.4,18.1,40.5,40.5,40.5s40.5-18.1,40.5-40.5v-33.6h-81.1v33.6H132.45z"/>
	<path style="fill:#F1543F;" d="M294.55,119.3v33.6c0,22.4,18.1,40.5,40.5,40.5s40.5-18.1,40.5-40.5v-33.6
		C375.55,119.3,294.55,119.3,294.55,119.3z"/>
</g>
<g>
	<path style="fill:#CDD6E0;" d="M51.45,152.9c0,22.4,18.1,40.5,40.5,40.5s40.5-18.1,40.5-40.5v-33.6h-81V152.9z"/>
	<path style="fill:#CDD6E0;" d="M213.55,152.9c0,22.4,18.1,40.5,40.5,40.5s40.5-18.1,40.5-40.5v-33.6h-81.1v33.6H213.55z"/>
	<path style="fill:#CDD6E0;" d="M375.65,119.3v33.6c0,22.4,18.1,40.5,40.5,40.5l0,0c22.4,0,40.5-18.1,40.5-40.5v-33.6
		C456.65,119.3,375.65,119.3,375.65,119.3z"/>
</g>
<polygon style="fill:#F2F2F2;" points="132.45,119.3 51.45,119.3 120.15,45.2 173.75,45.2 "/>
<polygon style="fill:#FF7058;" points="213.55,119.3 132.45,119.3 173.75,45.2 227.25,45.2 "/>
<polygon style="fill:#F2F2F2;" points="294.55,119.3 213.55,119.3 227.25,45.2 280.85,45.2 "/>
<polygon style="fill:#FF7058;" points="375.65,119.3 294.55,119.3 280.85,45.2 334.35,45.2 "/>
<polygon style="fill:#F2F2F2;" points="456.65,119.3 375.65,119.3 334.35,45.2 387.95,45.2 "/>
<path style="fill:#FFD15C;" d="M185.55,224.3V350c0,11.7,9.5,21.2,21.2,21.2h94.7c11.7,0,21.2-9.5,21.2-21.2V224.3H185.55z"/>
<polygon style="fill:#F8B64C;" points="322.55,250.8 185.55,250.8 196.85,237.6 185.55,224.3 322.55,224.3 311.35,237.6 "/>
<g>
	<circle style="fill:#40596B;" cx="284.85" cy="270.3" r="5.5"/>
	<circle style="fill:#40596B;" cx="223.25" cy="270.3" r="5.5"/>
</g>
<path style="fill:#F2F2F2;" d="M254.05,325.8c-18.6,0-33.7-15.1-33.7-33.7v-21.8c0-1.6,1.3-2.8,2.8-2.8c1.6,0,2.8,1.3,2.8,2.8v21.8
	c0,15.4,12.6,28,28,28s28-12.6,28-28v-21.8c0-1.6,1.3-2.8,2.8-2.8s2.8,1.3,2.8,2.8v21.8C287.75,310.7,272.65,325.8,254.05,325.8z"/>
<g>
</g>
<g>
</g>
<g>
</g>
<g>
</g>
<g>
</g>
<g>
</g>
<g>
</g>
<g>
</g>
<g>
</g>
<g>
</g>
<g>
</g>
<g>
</g>
<g>
</g>
<g>
</g>
<g>
</g>
</svg>
