<?xml version="1.0" encoding="iso-8859-1"?>
<!-- Generator: Adobe Illustrator 19.0.0, SVG Export Plug-In . SVG Version: 6.00 Build 0)  -->
<svg version="1.1" id="Layer_1" xmlns="http://www.w3.org/2000/svg" xmlns:xlink="http://www.w3.org/1999/xlink" x="0px" y="0px"
	 viewBox="0 0 511.988 511.988" style="enable-background:new 0 0 511.988 511.988;" xml:space="preserve">
<path style="fill:#A0D468;" d="M108.942,113.376c-28.405,0.641-86.271-21.594-86.373-26.086c-0.102-4.484,56.687-29.335,85.1-29.983
	c28.414-0.648,51.726,11.383,52.077,26.858C160.105,99.649,137.355,112.727,108.942,113.376z"/>
<path style="fill:#434A54;" d="M191.995,32.002c0-5.891-4.773-10.664-10.663-10.664c-2.805,0-5.344,1.086-7.242,2.844l-0.008-0.008
	c-1.188,1.102-29.008,27.437-24.703,72.834l21.234-2.016c-3.273-34.562,17.14-54.382,18.015-55.21l-0.047,0.047l-0.016-0.016
	C190.675,37.869,191.995,35.096,191.995,32.002z"/>
<path style="fill:#E9573F;" d="M319.992,245.334c0,88.365-71.631,160.005-159.996,160.005S0,333.699,0,245.334
	S71.631,85.337,159.996,85.337S319.992,156.969,319.992,245.334z"/>
<g style="opacity:0.1;">
	<path d="M21.335,245.334c0-84.779,65.937-154.146,149.325-159.638c-3.523-0.234-7.078-0.359-10.664-0.359
		C71.631,85.337,0,156.969,0,245.334s71.631,160.005,159.996,160.005c3.586,0,7.141-0.141,10.664-0.375
		C87.271,399.479,21.335,330.105,21.335,245.334z"/>
</g>
<path style="opacity:0.1;enable-background:new    ;" d="M138.66,351.995c0,5.891-4.772,10.656-10.663,10.656
	s-10.664-4.766-10.664-10.656s4.773-10.655,10.664-10.655C133.888,341.34,138.66,346.105,138.66,351.995z"/>
<path style="opacity:0.1;enable-background:new    ;" d="M159.996,373.339c0,5.875-4.773,10.656-10.664,10.656
	s-10.672-4.781-10.672-10.656c0-5.906,4.781-10.688,10.672-10.688S159.996,367.432,159.996,373.339z"/>
<path style="opacity:0.1;enable-background:new    ;" d="M181.332,351.995c0,5.891-4.781,10.656-10.672,10.656
	s-10.664-4.766-10.664-10.656s4.773-10.655,10.664-10.655S181.332,346.105,181.332,351.995z"/>
<path style="fill:#E6E9ED;" d="M351.992,479.993c-39.891,0-77.39-15.531-105.592-43.734
	c-28.202-28.201-43.741-65.701-43.741-105.606c0-39.874,15.539-77.381,43.741-105.584c28.202-28.202,65.701-43.733,105.592-43.733
	c39.889,0,77.389,15.531,105.592,43.733c28.201,28.203,43.748,65.71,43.748,105.584c0,39.905-15.547,77.405-43.748,105.606
	C429.381,464.462,391.881,479.993,351.992,479.993z"/>
<g>
	<path style="fill:#FC6E51;" d="M351.992,170.663c-88.365,0-159.997,71.639-159.997,159.989
		c0,88.373,71.632,159.997,159.997,159.997c88.373,0,159.996-71.624,159.996-159.997
		C511.988,242.303,440.365,170.663,351.992,170.663z M450.053,428.713c-12.75,12.749-27.594,22.749-44.094,29.718
		c-17.093,7.234-35.249,10.906-53.967,10.906c-18.719,0-36.891-3.672-53.969-10.906c-16.499-6.969-31.342-16.969-44.084-29.718
		c-12.742-12.75-22.742-27.562-29.726-44.093c-7.227-17.062-10.883-35.219-10.883-53.968c0-18.718,3.656-36.874,10.883-53.968
		c6.983-16.5,16.983-31.327,29.726-44.069c12.742-12.742,27.585-22.742,44.084-29.726c17.078-7.227,35.25-10.891,53.969-10.891
		c18.718,0,36.874,3.664,53.967,10.891c16.5,6.984,31.344,16.984,44.094,29.726c12.733,12.742,22.733,27.569,29.718,44.069
		c7.218,17.094,10.874,35.25,10.874,53.968c0,18.749-3.656,36.905-10.874,53.968C472.786,401.151,462.786,415.963,450.053,428.713z"
		/>
	<path style="fill:#FC6E51;" d="M351.992,447.993c-64.687,0-117.334-52.623-117.334-117.341
		c0-64.687,52.647-117.318,117.334-117.318c64.686,0,117.341,52.631,117.341,117.318
		C469.333,395.37,416.678,447.993,351.992,447.993z"/>
</g>
<path style="fill:#E9573F;" d="M351.992,202.663c-70.687,0-127.997,57.311-127.997,127.989c0,70.702,57.311,127.997,127.997,127.997
	s127.997-57.295,127.997-127.997C479.989,259.973,422.678,202.663,351.992,202.663z M362.648,224.521
	c20.952,2.07,40.592,10.203,56.842,23.547l-56.842,56.835V224.521z M326.242,319.996h-80.389
	c2.062-20.937,10.195-40.577,23.547-56.843L326.242,319.996z M284.477,248.068c16.265-13.344,35.905-21.477,56.858-23.547v80.382
	L284.477,248.068z M326.242,341.34L269.4,398.183c-13.352-16.281-21.484-35.906-23.547-56.843H326.242z M341.336,356.417v80.389
	c-20.953-2.062-40.594-10.202-56.858-23.546L341.336,356.417z M362.648,356.417l56.842,56.843
	c-16.25,13.344-35.89,21.483-56.842,23.546V356.417z M377.741,341.34h80.389c-2.062,20.937-10.202,40.562-23.546,56.843
	L377.741,341.34z M377.741,319.996l56.843-56.843c13.344,16.266,21.484,35.906,23.546,56.843H377.741z"/>
<g>
	<path style="fill:#E6E9ED;" d="M373.335,330.652c0,11.781-9.562,21.343-21.343,21.343c-11.781,0-21.344-9.562-21.344-21.343
		s9.562-21.312,21.344-21.312S373.335,318.871,373.335,330.652z"/>
	<path style="fill:#E6E9ED;" d="M330.648,405.339c0,5.874-4.766,10.655-10.656,10.655s-10.656-4.781-10.656-10.655
		c0-5.906,4.766-10.688,10.656-10.688S330.648,399.432,330.648,405.339z"/>
	<path style="fill:#E6E9ED;" d="M426.646,351.995c0,5.891-4.766,10.656-10.656,10.656s-10.656-4.766-10.656-10.656
		s4.766-10.655,10.656-10.655S426.646,346.105,426.646,351.995z"/>
</g>
<path style="opacity:0.2;fill:#FFFFFF;enable-background:new    ;" d="M351.992,170.663c-7.234,0-14.344,0.492-21.344,1.422
	c78.279,10.429,138.685,77.452,138.685,158.567c0,81.139-60.405,148.153-138.685,158.591c7,0.938,14.109,1.406,21.344,1.406
	c88.373,0,159.996-71.624,159.996-159.997C511.988,242.303,440.365,170.663,351.992,170.663z"/>
<g>
</g>
<g>
</g>
<g>
</g>
<g>
</g>
<g>
</g>
<g>
</g>
<g>
</g>
<g>
</g>
<g>
</g>
<g>
</g>
<g>
</g>
<g>
</g>
<g>
</g>
<g>
</g>
<g>
</g>
</svg>
