<?xml version="1.0" encoding="iso-8859-1"?>
<!-- Generator: Adobe Illustrator 19.0.0, SVG Export Plug-In . SVG Version: 6.00 Build 0)  -->
<svg version="1.1" id="Capa_1" xmlns="http://www.w3.org/2000/svg" xmlns:xlink="http://www.w3.org/1999/xlink" x="0px" y="0px"
	 viewBox="0 0 512 512" style="enable-background:new 0 0 512 512;" xml:space="preserve">
<g>
	<path style="fill:#CDD6E0;" d="M279.941,468.811c0,13.227-10.709,23.936-23.925,23.936s-23.925-10.709-23.925-23.936
		c0-13.205,10.709-23.915,23.925-23.915S279.941,455.605,279.941,468.811"/>
	<path style="fill:#CDD6E0;" d="M284.475,40.747h-56.939c-5.163,0-9.333-4.171-9.333-9.333c0-5.141,4.171-9.333,9.333-9.333h56.939
		c5.152,0,9.333,4.192,9.333,9.333C293.808,36.587,289.637,40.747,284.475,40.747"/>
	<path style="fill:#CDD6E0;" d="M322.693,31.413c0,5.163-4.181,9.333-9.333,9.333c-5.152,0-9.333-4.171-9.333-9.333
		c0-5.141,4.181-9.333,9.333-9.333C318.512,22.08,322.693,26.272,322.693,31.413"/>
</g>
<path style="fill:#F2F2F2;" d="M404.88,0H107.131c-17.664,0-32,14.336-32,32v448c0,17.664,14.336,32,32,32h297.739
	c17.685,0,32-14.336,32-32V32C436.88,14.336,422.565,0,404.88,0"/>
<rect x="117.765" y="62.859" style="fill:#54C0EB;" width="276.395" height="362.773"/>
<path style="fill:#FFFFFF;" d="M326.128,244.267h13.227c0-45.963-37.44-83.392-83.307-83.392c-45.973,0-83.413,37.44-83.413,83.392
	c0,45.877,37.451,83.317,83.413,83.317c28.16,0,54.187-14.08,69.653-37.749l17.92,11.733
	c-19.413,29.643-52.171,47.349-87.573,47.349c-57.707,0-104.747-46.933-104.747-104.651c0-57.685,47.04-104.725,104.747-104.725
	s104.64,47.04,104.64,104.725h13.12l-23.787,27.755L326.128,244.267z"/>
<g>
	<path style="fill:#40596B;" d="M234.736,238.293c1.536-2.144,2.283-4.224,2.283-6.229s-0.672-3.691-1.984-5.045
		c-1.312-1.355-3.008-2.016-5.088-2.016c-3.776,0-7.371,2.709-10.763,8.107l-10.763-6.4c2.816-4.352,5.899-7.648,9.248-9.899
		c3.349-2.229,7.648-3.349,12.832-3.349c5.184,0,9.771,1.643,13.685,4.96c3.936,3.296,5.899,7.787,5.899,13.483
		c0,3.083-0.779,6.059-2.357,8.917c-1.579,2.837-4.501,6.453-8.747,10.88l-10.859,11.296h23.776v12.043h-42.443v-9.984l17.653-18.08
		C230.683,243.339,233.211,240.459,234.736,238.293"/>
	<polygon style="fill:#40596B;" points="283.867,249.024 283.867,238.517 296.784,238.517 296.784,249.024 303.579,249.024 
		303.579,260.651 296.784,260.651 296.784,275.019 283.867,275.019 283.867,260.651 259.664,260.651 259.664,250.4 281.115,214.837 
		295.749,214.837 275.344,249.024 	"/>
</g>
<g>
</g>
<g>
</g>
<g>
</g>
<g>
</g>
<g>
</g>
<g>
</g>
<g>
</g>
<g>
</g>
<g>
</g>
<g>
</g>
<g>
</g>
<g>
</g>
<g>
</g>
<g>
</g>
<g>
</g>
</svg>
