<?xml version="1.0" encoding="iso-8859-1"?>
<!-- Generator: Adobe Illustrator 19.0.0, SVG Export Plug-In . SVG Version: 6.00 Build 0)  -->
<svg version="1.1" id="Layer_1" xmlns="http://www.w3.org/2000/svg" xmlns:xlink="http://www.w3.org/1999/xlink" x="0px" y="0px"
	 viewBox="0 0 512 512" style="enable-background:new 0 0 512 512;" xml:space="preserve">
<path style="fill:#DBE1E5;" d="M144.34,495.281H97.103c-4.418,0-8.662-1.758-11.787-4.885l-70.695-70.689
	c-19.494-19.5-19.494-51.216,0-70.705l246.86-246.968c6.241-6.252,17.312-6.263,23.576,0l117.931,117.927
	c4.364,4.364,5.959,10.789,4.146,16.689c-1.813,5.905-6.74,10.317-12.808,11.478l-44.698,8.526v33.333
	c0,9.21-7.468,16.672-16.672,16.672H302.39v30.457c0,9.21-7.468,16.672-16.672,16.672h-30.457v30.566
	c0,9.21-7.468,16.672-16.672,16.672h-30.447v30.451c0,9.21-7.468,16.672-16.672,16.672h-30.457v30.457
	C161.013,487.819,153.546,495.281,144.34,495.281z"/>
<path style="fill:#C9D3D9;" d="M302.391,337.117v-30.457h30.566c9.204,0,16.672-7.462,16.672-16.672v-33.333l44.698-8.526
	c6.068-1.161,10.996-5.574,12.808-11.478c1.813-5.9,0.217-12.325-4.146-16.689L355.125,172.1L61.071,466.154l24.245,24.242
	c3.127,3.127,7.37,4.885,11.787,4.885h47.238c9.204,0,16.672-7.462,16.672-16.672v-30.457h30.457
	c9.204,0,16.672-7.462,16.672-16.672v-30.451h30.447c9.204,0,16.672-7.462,16.672-16.672v-30.566h30.457
	C294.923,353.79,302.391,346.327,302.391,337.117z"/>
<path style="fill:#F37B2A;" d="M495.882,124.24l-92.894-92.899c-19.505-19.505-51.233-19.483-70.695-0.011l-82.611,82.484
	l129.73,129.723c9.748,9.748,22.544,14.62,35.353,14.62c12.798,0,25.594-4.874,35.342-14.62l47.108-47.102
	C515.398,178.377,518.876,147.237,495.882,124.24z M426.542,172.794c-3.257,3.257-7.523,4.885-11.787,4.885
	c-4.265,0-8.532-1.628-11.787-4.885l-47.151-47.157c-6.512-6.512-6.512-17.068,0-23.576c6.512-6.512,17.063-6.512,23.576,0
	l47.151,47.157C433.054,155.732,433.054,166.287,426.542,172.794z"/>
<path style="fill:#E56722;" d="M495.882,124.24l-46.447-46.45l-47.159,47.159l24.266,24.269c6.512,6.512,6.512,17.068,0,23.576
	c-3.257,3.257-7.522,4.885-11.787,4.885c-4.265,0-8.532-1.628-11.787-4.885l-24.266-24.269l-47.151,47.151l47.864,47.861
	c9.748,9.748,22.544,14.62,35.353,14.62c12.798,0,25.594-4.874,35.342-14.62l47.108-47.102
	C515.398,178.377,518.876,147.237,495.882,124.24z"/>
<g>
</g>
<g>
</g>
<g>
</g>
<g>
</g>
<g>
</g>
<g>
</g>
<g>
</g>
<g>
</g>
<g>
</g>
<g>
</g>
<g>
</g>
<g>
</g>
<g>
</g>
<g>
</g>
<g>
</g>
</svg>
