<?xml version="1.0" encoding="iso-8859-1"?>
<!-- Generator: Adobe Illustrator 19.0.0, SVG Export Plug-In . SVG Version: 6.00 Build 0)  -->
<svg version="1.1" id="Layer_1" xmlns="http://www.w3.org/2000/svg" xmlns:xlink="http://www.w3.org/1999/xlink" x="0px" y="0px"
	 viewBox="0 0 512 512" style="enable-background:new 0 0 512 512;" xml:space="preserve">
<polygon style="fill:#595959;" points="317.657,352.903 292.66,327.906 462.007,158.56 435.608,132.162 460.606,107.165 512,158.56 
	"/>
<polygon style="fill:#E68D2C;" points="147.872,393.086 94.604,483.409 0,500.897 17.488,406.292 107.812,353.025 "/>
<polygon style="fill:#E06B34;" points="147.872,393.086 94.604,483.409 0,500.897 127.844,373.058 "/>
<rect x="129.814" y="231.885" transform="matrix(0.7071 0.7071 -0.7071 0.7071 280.8387 -30.3844)" style="fill:#5293A9;" width="94.565" height="183.851"/>
<rect x="170.172" y="248.602" transform="matrix(0.7071 0.7071 -0.7071 0.7071 297.5556 -37.3089)" style="fill:#3A7484;" width="47.283" height="183.851"/>
<path style="fill:#80CDD8;" d="M191.151,226.395l83.356,83.356l198.029-198.029c23.018-23.018,23.018-60.338,0-83.356l0,0
	c-23.018-23.018-60.338-23.018-83.356,0L191.151,226.395z"/>
<path style="fill:#5293A9;" d="M232.825,268.071l41.68,41.68l198.029-198.029c23.018-23.018,23.018-60.338,0-83.356l0,0
	C454.35,46.552,232.825,268.071,232.825,268.071z"/>
<polygon style="fill:#EEBA7D;" points="0,500.897 20.102,497.181 73.229,444.054 56.842,427.668 3.716,480.794 "/>
<g>
</g>
<g>
</g>
<g>
</g>
<g>
</g>
<g>
</g>
<g>
</g>
<g>
</g>
<g>
</g>
<g>
</g>
<g>
</g>
<g>
</g>
<g>
</g>
<g>
</g>
<g>
</g>
<g>
</g>
</svg>
