<?xml version="1.0" encoding="iso-8859-1"?>
<!-- Generator: Adobe Illustrator 19.0.0, SVG Export Plug-In . SVG Version: 6.00 Build 0)  -->
<svg version="1.1" id="Layer_1" xmlns="http://www.w3.org/2000/svg" xmlns:xlink="http://www.w3.org/1999/xlink" x="0px" y="0px"
	 viewBox="0 0 512.001 512.001" style="enable-background:new 0 0 512.001 512.001;" xml:space="preserve">
<rect x="46.385" y="178.18" style="fill:#DFCCBE;" width="419.223" height="333.821"/>
<path style="fill:#A7AFF3;" d="M490.314,149.119v90.448H21.687v-90.448c0-22.257,18.108-40.365,40.365-40.365h387.896
	C472.205,108.754,490.314,126.862,490.314,149.119z"/>
<rect x="255.996" y="178.18" style="fill:#C9AD91;" width="209.611" height="333.821"/>
<path style="fill:#7885EB;" d="M490.314,149.119v90.448H256V108.754h193.948C472.205,108.754,490.314,126.862,490.314,149.119z"/>
<path style="fill:#FF738E;" d="M391.924,31.597c-6.029-13.145-16.813-23.155-30.376-28.192c-13.563-5.026-28.265-4.472-41.41,1.557
	C303.701,12.496,274.245,46.466,256,68.828C237.766,46.466,208.3,12.496,191.863,4.962c-13.145-6.029-27.847-6.583-41.41-1.557
	c-13.563,5.037-24.347,15.047-30.386,28.192c-6.029,13.145-6.573,27.858-1.546,41.41c5.026,13.563,15.036,24.357,28.192,30.386
	c11.024,5.057,34.932,4.984,58.181,5.36V512h31.348l-0.01-403.246h39.529V512h31.348V108.744c3.083-0.052,6.186-0.094,9.268-0.136
	c3.083-0.042,6.144-0.094,9.143-0.167c1.881-0.042,3.741-0.094,5.569-0.157c1.839-0.063,3.636-0.136,5.402-0.219
	c2.121-0.104,4.19-0.219,6.196-0.366c0.637-0.042,1.254-0.094,1.87-0.146c1.39-0.115,2.738-0.251,4.054-0.387
	c0.439-0.042,0.867-0.094,1.296-0.146c0.575-0.073,1.139-0.146,1.693-0.219c5.549-0.752,10.251-1.829,13.688-3.406
	c6.573-3.02,12.372-7.22,17.147-12.372c4.775-5.141,8.527-11.233,11.045-18.014C398.507,59.455,397.963,44.742,391.924,31.597z
	 M204.893,79.162c-21.536-0.334-39.508-1.693-45.109-4.263c-5.538-2.539-9.76-7.085-11.87-12.79
	c-2.121-5.716-1.891-11.902,0.648-17.44c2.539-5.538,7.085-9.749,12.79-11.87c2.591-0.961,5.266-1.432,7.952-1.432
	c3.229,0,6.458,0.7,9.488,2.09c7.116,3.26,26.175,23.584,44.879,45.705H204.893z M364.087,62.109
	c-2.111,5.705-6.332,10.251-11.87,12.79c-2.8,1.285-8.694,2.267-16.572,2.968c-7.889,0.711-17.764,1.129-28.537,1.296l-18.359-0.648
	c18.704-22.121,37.345-41.797,44.461-45.057c5.528-2.539,11.724-2.779,17.44-0.658c5.705,2.121,10.251,6.332,12.79,11.87
	S366.208,56.393,364.087,62.109z"/>
<path style="fill:#FF3C62;" d="M391.924,31.597c-6.029-13.145-16.813-23.155-30.376-28.192c-13.563-5.026-28.265-4.472-41.41,1.557
	C303.701,12.496,274.245,46.466,256,68.828v39.926h19.759V512h31.348V108.754c3.083-0.052,6.186-0.094,9.268-0.146
	c3.083-0.042,6.144-0.094,9.143-0.167c1.881-0.042,3.741-0.094,5.569-0.157c1.839-0.052,3.636-0.136,5.402-0.219
	c2.121-0.104,4.19-0.219,6.196-0.366c0.637-0.042,1.254-0.094,1.87-0.146c1.39-0.115,2.738-0.24,4.054-0.387
	c0.439-0.042,0.867-0.094,1.296-0.146c0.575-0.073,1.139-0.146,1.693-0.219c5.549-0.752,10.251-1.829,13.688-3.406
	c6.573-3.02,12.372-7.22,17.147-12.372c4.775-5.141,8.527-11.233,11.045-18.014C398.507,59.455,397.963,44.742,391.924,31.597z
	 M364.087,62.109c-2.111,5.705-6.332,10.251-11.87,12.79c-2.8,1.285-8.694,2.267-16.572,2.968
	c-7.889,0.711-17.764,1.129-28.537,1.296l-18.359-0.648c18.704-22.121,37.345-41.797,44.461-45.057
	c5.528-2.539,11.724-2.779,17.44-0.658c5.705,2.121,10.251,6.332,12.79,11.87S366.208,56.393,364.087,62.109z"/>
<g>
</g>
<g>
</g>
<g>
</g>
<g>
</g>
<g>
</g>
<g>
</g>
<g>
</g>
<g>
</g>
<g>
</g>
<g>
</g>
<g>
</g>
<g>
</g>
<g>
</g>
<g>
</g>
<g>
</g>
</svg>
