<?xml version="1.0" encoding="iso-8859-1"?>
<!-- Generator: Adobe Illustrator 19.0.0, SVG Export Plug-In . SVG Version: 6.00 Build 0)  -->
<svg version="1.1" id="Layer_1" xmlns="http://www.w3.org/2000/svg" xmlns:xlink="http://www.w3.org/1999/xlink" x="0px" y="0px"
	 viewBox="0 0 512.001 512.001" style="enable-background:new 0 0 512.001 512.001;" xml:space="preserve">
<path style="fill:#D4D4D4;" d="M39.655,452.594c-52.874-52.874-52.874-138.904,0-191.777L259.997,40.475l23.616,23.616
	L63.273,284.433c-39.851,39.851-39.851,104.693,0,144.544s104.694,39.851,144.544,0l249.081-249.08
	c28.96-28.96,28.96-76.082,0-105.043s-76.081-28.96-105.041,0L118.612,308.098c-18.069,18.069-18.069,47.47,0,65.538
	c18.069,18.069,47.47,18.069,65.538,0l204.504-204.504l23.616,23.616L207.768,397.254c-31.091,31.091-81.681,31.091-112.772,0
	s-31.091-81.681,0-112.772L328.24,51.238c41.982-41.982,110.293-41.982,152.275,0s41.982,110.293,0,152.275L231.433,452.595
	C178.561,505.467,92.529,505.467,39.655,452.594z"/>
<g>
	<path style="fill:#AAAAAA;" d="M207.768,397.254L412.272,192.75l-23.616-23.616L184.151,373.638
		c-18.069,18.069-47.47,18.069-65.538,0l-23.616,23.616C126.087,428.345,176.676,428.345,207.768,397.254z"/>
	<path style="fill:#AAAAAA;" d="M480.515,51.238c-6.829-6.829-14.358-12.54-22.355-17.148l-24.881,24.881
		c8.588,3.616,16.635,8.899,23.618,15.883c28.96,28.96,28.96,76.082,0,105.043l-249.08,249.081
		c-39.851,39.851-104.693,39.851-144.544,0l-23.616,23.616c52.874,52.874,138.904,52.874,191.777,0l249.081-249.081
		C522.497,161.531,522.497,93.22,480.515,51.238z"/>
</g>
<g>
</g>
<g>
</g>
<g>
</g>
<g>
</g>
<g>
</g>
<g>
</g>
<g>
</g>
<g>
</g>
<g>
</g>
<g>
</g>
<g>
</g>
<g>
</g>
<g>
</g>
<g>
</g>
<g>
</g>
</svg>
