<?xml version="1.0" encoding="iso-8859-1"?>
<!-- Generator: Adobe Illustrator 19.0.0, SVG Export Plug-In . SVG Version: 6.00 Build 0)  -->
<svg version="1.1" id="Layer_1" xmlns="http://www.w3.org/2000/svg" xmlns:xlink="http://www.w3.org/1999/xlink" x="0px" y="0px"
	 viewBox="0 0 511.988 511.988" style="enable-background:new 0 0 511.988 511.988;" xml:space="preserve">
<path style="fill:#DA4453;" d="M319.992,271.993c0,82.467-74.592,149.325-159.996,149.325S0,354.46,0,271.993
	s71.639-149.324,159.996-149.324S319.992,189.526,319.992,271.993z"/>
<g style="opacity:0.1;">
	<path d="M21.327,271.993c0-79.123,65.952-143.871,149.341-148.996c-3.531-0.219-7.094-0.328-10.672-0.328
		C71.639,122.669,0,189.526,0,271.993s74.592,149.325,159.996,149.325c3.578,0,7.141-0.125,10.672-0.359
		C89.81,415.678,21.327,351.007,21.327,271.993z"/>
</g>
<path style="fill:#688E2D;" d="M213.323,47.998c0-5.891-4.766-10.671-10.656-10.671c-2.031,0-3.938,0.577-5.547,1.577l-0.016-0.016
	c-1.953,1.188-47.78,29.641-47.78,73.108h21.344c0-31.437,37.187-54.671,37.562-54.905l0,0
	C211.292,55.201,213.323,51.842,213.323,47.998z"/>
<path style="fill:#ED5564;" d="M362.664,474.661c82.467,0,149.324-66.857,149.324-149.341H213.323
	C213.323,407.804,280.181,474.661,362.664,474.661z"/>
<g style="opacity:0.2;">
	<path style="fill:#FFFFFF;" d="M364.18,399.991c41.232,0,74.67-33.422,74.67-74.671H289.509
		C289.509,366.569,322.945,399.991,364.18,399.991z"/>
</g>
<g>
	<path style="fill:#ED5564;" d="M323.117,339.117c-4.172,4.172-4.172,10.921,0,15.077c4.172,4.172,10.922,4.172,15.078,0
		c4.172-4.156,4.172-10.905,0-15.077C334.039,334.945,327.289,334.945,323.117,339.117z"/>
	<path style="fill:#ED5564;" d="M355.117,339.117c-4.172,4.172-4.172,10.921,0,15.077c4.172,4.172,10.922,4.172,15.077,0
		c4.172-4.156,4.172-10.905,0-15.077C366.039,334.945,359.289,334.945,355.117,339.117z"/>
	<path style="fill:#ED5564;" d="M387.116,339.117c-4.172,4.172-4.172,10.921,0,15.077c4.171,4.172,10.921,4.172,15.077,0
		c4.172-4.156,4.172-10.905,0-15.077C398.037,334.945,391.287,334.945,387.116,339.117z"/>
	<path style="fill:#ED5564;" d="M344.445,371.116c-4.156,4.172-4.156,10.922,0,15.078c4.172,4.172,10.922,4.172,15.094,0
		c4.156-4.156,4.156-10.906,0-15.078C355.367,366.944,348.617,366.944,344.445,371.116z"/>
	<path style="fill:#ED5564;" d="M376.444,371.116c-4.156,4.172-4.156,10.922,0,15.078c4.172,4.172,10.922,4.172,15.093,0
		c4.156-4.156,4.156-10.906,0-15.078C387.366,366.944,380.616,366.944,376.444,371.116z"/>
</g>
<path style="fill:#76A336;" d="M217.198,134.058L217.198,134.058c-16.781-6.53-41.265-30.999-49.28-39.874h-0.016
	c-1.953-2.156-4.766-3.516-7.906-3.516c-3.422,0-6.469,1.625-8.422,4.125l0,0c-0.297,0.375-29.921,38.265-59.499,49.952l0,0
	c-3.937,1.562-6.749,5.406-6.749,9.922c0,5.891,4.781,10.656,10.671,10.656c1.391,0,2.703-0.266,3.922-0.75v0.016
	c0.047-0.031,0.109-0.047,0.172-0.078c0.031-0.016,0.062-0.031,0.094-0.031c16.625-6.641,32.609-19.422,44.921-31.172
	c-0.031,11.078,1.797,19.906,5.453,26.328c0.047,0.078,0.094,0.172,0.156,0.266c0.031,0.062,0.078,0.141,0.109,0.219l0.016-0.016
	c1.859,3.125,5.266,5.219,9.156,5.219c5.891,0,10.672-4.766,10.672-10.656c0-2-0.562-3.859-1.516-5.453l0.016-0.016
	c-1.234-2.062-3.906-8.688-2.188-25.624c1.266,1.188,2.562,2.391,3.922,3.641c14.718,13.421,27.577,22.358,38.218,26.577
	c0.047,0.016,0.109,0.047,0.156,0.062c0.062,0.031,0.125,0.062,0.188,0.078l0,0c1.203,0.469,2.5,0.734,3.859,0.734
	c5.891,0,10.672-4.781,10.672-10.672C223.995,139.465,221.167,135.605,217.198,134.058z"/>
<g>
</g>
<g>
</g>
<g>
</g>
<g>
</g>
<g>
</g>
<g>
</g>
<g>
</g>
<g>
</g>
<g>
</g>
<g>
</g>
<g>
</g>
<g>
</g>
<g>
</g>
<g>
</g>
<g>
</g>
</svg>
