<?xml version="1.0" encoding="iso-8859-1"?>
<!-- Generator: Adobe Illustrator 19.0.0, SVG Export Plug-In . SVG Version: 6.00 Build 0)  -->
<svg version="1.1" id="Layer_1" xmlns="http://www.w3.org/2000/svg" xmlns:xlink="http://www.w3.org/1999/xlink" x="0px" y="0px"
	 viewBox="0 0 512 512" style="enable-background:new 0 0 512 512;" xml:space="preserve">
<path style="fill:#FFFFFF;" d="M350.041,15.673v167.184c0,51.942-42.099,94.041-94.041,94.041
	c-25.976,0-49.486-10.522-66.497-27.544c-17.021-17.011-27.544-40.521-27.544-66.497V15.673H350.041z"/>
<path style="fill:#E6E6E6;" d="M350.041,15.673v167.184c0,51.942-42.099,94.041-94.041,94.041V15.673H350.041z"/>
<path style="fill:#FF738E;" d="M350.041,99.265v83.592c0,51.942-42.099,94.041-94.041,94.041c-25.976,0-49.486-10.522-66.497-27.544
	c-17.021-17.011-27.544-40.521-27.544-66.497V99.265H350.041z"/>
<g>
	<rect x="214.204" y="193.306" style="fill:#FFFFFF;" width="20.898" height="20.898"/>
	<rect x="193.306" y="151.51" style="fill:#FFFFFF;" width="20.898" height="20.898"/>
	<rect x="235.102" y="151.51" style="fill:#FFFFFF;" width="20.898" height="20.898"/>
</g>
<path style="fill:#FF3C62;" d="M350.041,99.265v83.592c0,51.942-42.099,94.041-94.041,94.041V99.265H350.041z"/>
<path style="fill:#DFCCBE;" d="M146.286,0v182.857c0,29.32,11.41,56.874,32.131,77.573c16.969,16.99,38.536,27.721,61.91,31.033
	v189.189h-47.02V512h125.388v-31.347h-47.02v-189.21c53.102-7.617,94.041-53.405,94.041-108.586V0H146.286z M334.367,182.857
	c0,43.207-35.161,78.367-78.367,78.367c-20.94,0-40.626-8.15-55.421-22.956c-14.796-14.785-22.946-34.471-22.946-55.411V31.347
	h156.735V182.857z"/>
<path style="fill:#C9AD91;" d="M365.714,0v182.857c0,55.181-40.939,100.968-94.041,108.586v189.21h47.02V512H256V261.224
	c43.207,0,78.367-35.161,78.367-78.367V31.347H256V0H365.714z"/>
<g>
</g>
<g>
</g>
<g>
</g>
<g>
</g>
<g>
</g>
<g>
</g>
<g>
</g>
<g>
</g>
<g>
</g>
<g>
</g>
<g>
</g>
<g>
</g>
<g>
</g>
<g>
</g>
<g>
</g>
</svg>
