<svg id="color" enable-background="new 0 0 24 24" height="512" viewBox="0 0 24 24" width="512" xmlns="http://www.w3.org/2000/svg"><path d="m14 10.5v10.75c0 1.52-1.23 2.75-2.75 2.75h-7.5c-1.52 0-2.75-1.23-2.75-2.75v-15.5c0-1.52 1.23-2.75 2.75-2.75h3.75v3.5h-1.5c-.96 0-1.75-.79-1.75-1.75 0-.14-.11-.25-.25-.25h-.25c-.69 0-1.25.56-1.25 1.25v15.5c0 .69.56 1.25 1.25 1.25h7.5c.69 0 1.25-.56 1.25-1.25v-10.75z" fill="#607d8b"/><path d="m12.5 10.5v10.75c0 .69-.56 1.25-1.25 1.25h-7.5c-.69 0-1.25-.56-1.25-1.25v-15.5c0-.69.56-1.25 1.25-1.25h.25c.14 0 .25.11.25.25 0 .96.79 1.75 1.75 1.75h1.5v.75c0 1.79 1.46 3.25 3.25 3.25z" fill="#fafafa"/><path d="m7.5 3h-3.75c-1.52 0-2.75 1.23-2.75 2.75v15.5c0 1.52 1.23 2.75 2.75 2.75h3.75v-1.5h-3.75c-.69 0-1.25-.56-1.25-1.25v-15.5c0-.69.56-1.25 1.25-1.25h.25c.14 0 .25.11.25.25 0 .96.79 1.75 1.75 1.75h1.5z" fill="#546d79"/><path d="m4 4.5h-.25c-.69 0-1.25.56-1.25 1.25v15.5c0 .69.56 1.25 1.25 1.25h3.75v-15.25-.75h-1.5c-.96 0-1.75-.79-1.75-1.75 0-.14-.11-.25-.25-.25z" fill="#dadada"/><path d="m20.25 9h-9.5c-.965 0-1.75-.785-1.75-1.75v-5.5c0-.965.785-1.75 1.75-1.75h9.5c.965 0 1.75.785 1.75 1.75v.25h.25c.965 0 1.75.785 1.75 1.75v1.5c0 .965-.785 1.75-1.75 1.75h-.25v.25c0 .965-.785 1.75-1.75 1.75z" fill="#607d8b"/><path d="m10.75 1.5c-.138 0-.25.112-.25.25v5.5c0 .138.112.25.25.25h9.5c.138 0 .25-.112.25-.25v-1c0-.414.336-.75.75-.75h1c.138 0 .25-.112.25-.25v-1.5c0-.138-.112-.25-.25-.25h-1c-.414 0-.75-.336-.75-.75v-1c0-.138-.112-.25-.25-.25z" fill="#fafafa"/><path d="m12.75 6.75c-.414 0-.75-.336-.75-.75v-3c0-.414.336-.75.75-.75s.75.336.75.75v3c0 .414-.336.75-.75.75z" fill="#4caf50"/><path d="m15.75 6.75c-.414 0-.75-.336-.75-.75v-3c0-.414.336-.75.75-.75s.75.336.75.75v3c0 .414-.336.75-.75.75z" fill="#4caf50"/><path d="m15.75 2.25c-.414 0-.75.336-.75.75v3c0 .414.336.75.75.75z" fill="#429846"/><path d="m12.75 2.25c-.414 0-.75.336-.75.75v3c0 .414.336.75.75.75z" fill="#429846"/><path d="m24 4.5h-1.5v.75c0 .138-.112.25-.25.25h-1c-.414 0-.75.336-.75.75v1c0 .138-.112.25-.25.25h-9.5c-.138 0-.25-.112-.25-.25v-2.75h-1.5v2.75c0 .965.785 1.75 1.75 1.75h9.5c.965 0 1.75-.785 1.75-1.75v-.25h.25c.965 0 1.75-.785 1.75-1.75z" fill="#546d79"/><path d="m22.5 4.5h-6v1.5c0 .414-.336.75-.75.75s-.75-.336-.75-.75v-1.5h-1.5v1.5c0 .414-.336.75-.75.75s-.75-.336-.75-.75v-1.5h-1.5v2.75c0 .138.112.25.25.25h9.5c.138 0 .25-.112.25-.25v-1c0-.414.336-.75.75-.75h1c.138 0 .25-.112.25-.25z" fill="#dadada"/></svg>