<?xml version="1.0" encoding="iso-8859-1"?>
<!-- Generator: Adobe Illustrator 19.0.0, SVG Export Plug-In . SVG Version: 6.00 Build 0)  -->
<svg version="1.1" id="Layer_1" xmlns="http://www.w3.org/2000/svg" xmlns:xlink="http://www.w3.org/1999/xlink" x="0px" y="0px"
	 viewBox="0 0 511.999 511.999" style="enable-background:new 0 0 511.999 511.999;" xml:space="preserve">
<path style="fill:#F1C04F;" d="M45.728,356.097c22.756,0.835,142.859,31.909,246.67-63.999S374.724,74.007,375.69,51.255
	c0.732-17.269,11.494-32.515,27.483-39.078l0,0c18.876-7.747,39.679-0.907,52.658,14.836
	c99.968,121.264,56.809,282.42-53.373,384.213C292.277,513.019,128.215,543.31,15.23,434.072
	C0.561,419.89-4.614,398.611,4.601,380.407l0,0C12.406,364.986,28.455,355.464,45.728,356.097z"/>
<path style="fill:#F6D78F;" d="M403.173,12.178L403.173,12.178c18.876-7.747,39.679-0.908,52.658,14.836
	c99.968,121.264,56.809,282.42-53.373,384.213C292.277,513.019,128.215,543.31,15.23,434.072
	C0.561,419.89-4.614,398.611,4.601,380.407l0,0C187.561,578.445,586.134,210.216,403.173,12.178z"/>
<g>
</g>
<g>
</g>
<g>
</g>
<g>
</g>
<g>
</g>
<g>
</g>
<g>
</g>
<g>
</g>
<g>
</g>
<g>
</g>
<g>
</g>
<g>
</g>
<g>
</g>
<g>
</g>
<g>
</g>
</svg>
