<?xml version="1.0" encoding="iso-8859-1"?>
<!-- Generator: Adobe Illustrator 19.0.0, SVG Export Plug-In . SVG Version: 6.00 Build 0)  -->
<svg version="1.1" id="Capa_1" xmlns="http://www.w3.org/2000/svg" xmlns:xlink="http://www.w3.org/1999/xlink" x="0px" y="0px"
	 viewBox="0 0 512.064 512.064" style="enable-background:new 0 0 512.064 512.064;" xml:space="preserve">
<g>
	<path style="fill:#8CC63E;" d="M376.848,339.152c0,66.72-54.096,120.816-120.816,120.816
		C256.032,393.248,310.128,339.152,376.848,339.152z"/>
	<path style="fill:#8CC63E;" d="M135.216,339.152c0,66.72,54.096,120.816,120.816,120.816
		C256.032,393.248,201.936,339.152,135.216,339.152z"/>
</g>
<rect x="246.032" y="208.352" style="fill:#9A795F;" width="20" height="303.712"/>
<path style="fill:#BF3333;" d="M381.6,228.432C381.6,297.792,325.392,354,256.032,354s-125.568-56.208-125.568-125.568
	c0-23.92,6.784-60.592,18.336-98.064C164.352,79.744,188.272,26.72,217.36,0.016l38.672,29.888L295.104,0
	c28.704,26.704,53.024,79.728,68.56,130.352C374.832,167.84,381.6,204.512,381.6,228.432z"/>
<path style="fill:#D03F3F;" d="M370.784,306.448c-63.392,63.392-166.16,63.392-229.552,0s-63.392-166.16,0-229.552
	C176.8,41.344,384.448,292.8,370.784,306.448z"/>
<path style="fill:#E24B4B;" d="M141.28,306.448c63.392,63.392,166.16,63.392,229.552,0s63.392-166.16,0-229.552
	C335.264,41.344,127.616,292.8,141.28,306.448z"/>
<g>
</g>
<g>
</g>
<g>
</g>
<g>
</g>
<g>
</g>
<g>
</g>
<g>
</g>
<g>
</g>
<g>
</g>
<g>
</g>
<g>
</g>
<g>
</g>
<g>
</g>
<g>
</g>
<g>
</g>
</svg>
