<?xml version="1.0" encoding="iso-8859-1"?>
<!-- Generator: Adobe Illustrator 19.0.0, SVG Export Plug-In . SVG Version: 6.00 Build 0)  -->
<svg version="1.1" id="Layer_1" xmlns="http://www.w3.org/2000/svg" xmlns:xlink="http://www.w3.org/1999/xlink" x="0px" y="0px"
	 viewBox="0 0 512.003 512.003" style="enable-background:new 0 0 512.003 512.003;" xml:space="preserve">
<path style="fill:#A6673A;" d="M256.002,512.003c-9.222,0-16.593-7.477-16.593-16.704V395.073c0-9.227,7.371-16.704,16.593-16.704
	c9.222,0,16.704,7.477,16.704,16.704v100.226C272.707,504.526,265.224,512.003,256.002,512.003z"/>
<path style="fill:#99522E;" d="M272.707,495.298V395.073c0-9.227-7.482-16.704-16.704-16.704v133.634
	C265.224,512.003,272.707,504.526,272.707,495.298z"/>
<path style="fill:#88CC2A;" d="M345.243,445.316c-37.671,0-64.022-16.601-89.242-33.229c-26.579,17.519-54.355,34.931-95.451,33.082
	c-8.494-0.402-15.335-7.128-15.878-15.612c-1.12-17.476,0.87-32.626,6.198-46.046c-42.37-1.153-87.12-13.986-121.008-35.606
	c-4.622-2.952-7.504-7.988-7.711-13.469c-0.207-5.481,2.305-10.712,6.7-13.996c18.923-14.137,41.793-27.433,79.03-33.365
	c-35.823-27.633-66.393-65.333-74.451-123.575c-0.696-5.079,0.968-10.195,4.525-13.882c3.557-3.687,8.548-5.568,13.713-5.025
	c45.578,4.622,90.351,18.966,127.5,40.401c-1.643-71.063,28.863-139.093,64.261-179.554c6.351-7.254,18.792-7.254,25.143,0
	c35.399,40.461,65.904,108.491,64.261,179.554c37.149-21.435,81.922-35.779,127.5-40.401c5.155-0.543,10.157,1.337,13.713,5.025
	c3.556,3.687,5.221,8.803,4.525,13.882c-8.058,58.242-38.629,95.94-74.451,123.575c37.237,5.932,60.107,19.228,79.03,33.365
	c4.393,3.284,6.906,8.515,6.699,13.996c-0.206,5.481-3.088,10.516-7.711,13.469c-33.876,21.62-78.638,34.448-121.008,35.606
	c5.329,13.42,7.319,28.569,6.198,46.046c-0.543,8.482-7.384,15.209-15.878,15.612C349.344,445.267,347.277,445.316,345.243,445.316z
	"/>
<path style="fill:#7FB335;" d="M345.243,445.316c2.033,0,4.1-0.049,6.21-0.147c8.494-0.402,15.335-7.128,15.878-15.612
	c1.12-17.476-0.87-32.626-6.198-46.046c42.37-1.158,87.132-13.986,121.008-35.606c4.622-2.952,7.504-7.988,7.711-13.469
	c0.207-5.481-2.305-10.712-6.699-13.996c-18.923-14.137-41.793-27.433-79.03-33.365c35.823-27.633,66.393-65.333,74.451-123.575
	c0.696-5.079-0.968-10.195-4.525-13.882c-3.557-3.687-8.559-5.568-13.713-5.025c-45.578,4.622-90.351,18.966-127.5,40.401
	c1.643-71.063-28.863-139.093-64.261-179.554c-3.175-3.625-7.873-5.438-12.571-5.438v412.085
	C281.221,428.715,307.572,445.316,345.243,445.316z"/>
<g>
</g>
<g>
</g>
<g>
</g>
<g>
</g>
<g>
</g>
<g>
</g>
<g>
</g>
<g>
</g>
<g>
</g>
<g>
</g>
<g>
</g>
<g>
</g>
<g>
</g>
<g>
</g>
<g>
</g>
</svg>
