<?xml version="1.0" encoding="iso-8859-1"?>
<!-- Generator: Adobe Illustrator 19.0.0, SVG Export Plug-In . SVG Version: 6.00 Build 0)  -->
<svg version="1.1" id="Layer_1" xmlns="http://www.w3.org/2000/svg" xmlns:xlink="http://www.w3.org/1999/xlink" x="0px" y="0px"
	 viewBox="0 0 512 512" style="enable-background:new 0 0 512 512;" xml:space="preserve">
<path style="fill:#FFE14D;" d="M379.931,19.548c-26.08-26.066-68.503-26.063-94.565-0.001C276.374,28.533,265.133,45.04,256,63.421
	c-9.131-18.38-20.372-34.886-29.362-43.87c-26.066-26.067-68.49-26.068-94.573,0c-26.075,26.075-26.075,68.499,0,94.574
	c14.649,14.65,44.887,32.01,70.338,40.382c1.686,0.554,3.45,0.837,5.225,0.837h41.729c2.302,0,4.556-0.495,6.638-1.397
	c2.083,0.904,4.339,1.397,6.647,1.397h41.729c1.775,0,3.539-0.283,5.225-0.837c25.451-8.374,55.69-25.734,70.337-40.382
	C406.008,88.051,406.008,45.627,379.931,19.548z M239.247,121.908h-28.853c-21.559-7.577-45.35-22.093-54.683-31.426
	c-6.314-6.314-9.79-14.71-9.79-23.644c0-8.934,3.477-17.33,9.787-23.64c13.042-13.036,34.258-13.036,47.294,0
	c13.669,13.659,36.282,55.458,36.282,77.339C239.282,121.034,239.27,121.49,239.247,121.908z M356.292,90.483
	c-9.333,9.333-33.125,23.849-54.683,31.426h-28.855c-0.022-0.418-0.035-0.875-0.035-1.371c0-21.881,22.613-63.68,36.286-77.343
	c13.032-13.032,34.248-13.03,47.287,0c6.313,6.314,9.79,14.71,9.79,23.644C366.083,75.773,362.604,84.169,356.292,90.483z"/>
<path style="fill:#FFCC33;" d="M256,63.421v90.529c2.082,0.903,4.337,1.395,6.643,1.395h41.729c1.775,0,3.539-0.283,5.225-0.837
	c25.451-8.374,55.69-25.734,70.337-40.382c26.075-26.075,26.075-68.499-0.003-94.576c-26.08-26.066-68.504-26.063-94.565-0.001
	C276.375,28.533,265.133,45.04,256,63.421L256,63.421z M309.005,43.195c13.032-13.032,34.248-13.03,47.287,0
	c6.313,6.314,9.79,14.71,9.79,23.644s-3.477,17.33-9.79,23.644c-9.333,9.333-33.125,23.849-54.683,31.426h-28.855
	c-0.022-0.418-0.035-0.875-0.035-1.371C272.718,98.657,295.333,56.858,309.005,43.195z"/>
<path style="fill:#E6563A;" d="M456.619,188.781H55.381c-9.228,0-16.718,7.49-16.718,16.718v256.346
	c0,27.652,22.503,50.155,50.155,50.155h334.364c27.652,0,50.155-22.503,50.155-50.155V205.5
	C473.337,196.271,465.847,188.781,456.619,188.781z"/>
<path style="fill:#D9472B;" d="M456.619,188.781H256V512h167.182c27.652,0,50.155-22.503,50.155-50.155V205.5
	C473.337,196.271,465.847,188.781,456.619,188.781z"/>
<path style="fill:#FFE14D;" d="M473.337,333.673H272.718V205.5c0-9.228-7.49-16.718-16.718-16.718s-16.718,7.49-16.718,16.718
	v128.173H38.663v33.436h200.619V512h33.436V367.109h200.619V333.673z"/>
<path style="fill:#FFCC33;" d="M272.718,512V367.109h200.619v-33.436H272.718V205.5c0-9.228-7.49-16.718-16.718-16.718V512H272.718z
	"/>
<path style="fill:#F37B2A;" d="M490.055,222.218H21.945c-9.233,0-16.718-7.485-16.718-16.718v-33.436
	c0-27.655,22.499-50.155,50.155-50.155h401.237c27.655,0,50.155,22.499,50.155,50.155V205.5
	C506.773,214.732,499.289,222.218,490.055,222.218z"/>
<path style="fill:#E56722;" d="M456.619,121.908H256v100.309h234.055c9.233,0,16.718-7.485,16.718-16.718v-33.436
	C506.773,144.407,484.275,121.908,456.619,121.908z"/>
<g>
</g>
<g>
</g>
<g>
</g>
<g>
</g>
<g>
</g>
<g>
</g>
<g>
</g>
<g>
</g>
<g>
</g>
<g>
</g>
<g>
</g>
<g>
</g>
<g>
</g>
<g>
</g>
<g>
</g>
</svg>
