<?xml version="1.0" encoding="iso-8859-1"?>
<!-- Generator: Adobe Illustrator 19.0.0, SVG Export Plug-In . SVG Version: 6.00 Build 0)  -->
<svg version="1.1" id="Layer_1" xmlns="http://www.w3.org/2000/svg" xmlns:xlink="http://www.w3.org/1999/xlink" x="0px" y="0px"
	 viewBox="0 0 512 512" style="enable-background:new 0 0 512 512;" xml:space="preserve">
<g>
	<path style="fill:#FF7F4F;" d="M440.989,445.217H372.87c-9.217,0-16.696-7.473-16.696-16.696V250.435
		c0-9.223,7.479-16.696,16.696-16.696h66.783c27.619,0,50.087,22.468,50.087,50.087v112.641
		C489.739,423.348,467.87,445.217,440.989,445.217z M389.565,411.826h51.424c8.467,0,15.359-6.891,15.359-15.359V283.826
		c0-9.206-7.49-16.696-16.696-16.696h-50.087V411.826z"/>
	<path style="fill:#FF7F4F;" d="M172.522,0H72.348c-9.239,0-16.696,7.457-16.696,16.696v200.348c0,9.238,7.456,16.696,16.696,16.696
		h100.174c9.239,0,16.696-7.457,16.696-16.696V16.696C189.217,7.457,181.761,0,172.522,0z"/>
	<path style="fill:#FF7F4F;" d="M356.174,116.87v100.174c0,9.238-7.456,16.696-16.696,16.696H239.304
		c-9.239,0-16.696-7.457-16.696-16.696V116.87c0-1.892,0.334-3.896,0.892-5.565h131.671
		C355.729,112.974,356.174,114.866,356.174,116.87z"/>
</g>
<g>
	<path style="fill:#386895;" d="M189.217,66.783v33.391H139.13c-9.239,0-16.696-7.457-16.696-16.696s7.456-16.696,16.696-16.696
		H189.217z"/>
	<path style="fill:#386895;" d="M189.217,133.565v33.391H139.13c-9.239,0-16.696-7.457-16.696-16.696s7.456-16.696,16.696-16.696
		H189.217z"/>
</g>
<path style="fill:#D9472B;" d="M440.989,445.217H372.87c-9.217,0-16.696-7.473-16.696-16.696V250.435
	c0-9.223,7.479-16.696,16.696-16.696h66.783c27.619,0,50.087,22.468,50.087,50.087v112.641
	C489.739,423.348,467.87,445.217,440.989,445.217z M389.565,411.826h51.424c8.467,0,15.359-6.891,15.359-15.359V283.826
	c0-9.206-7.49-16.696-16.696-16.696h-50.087V411.826z"/>
<path style="fill:#FFC033;" d="M172.522,0H72.348c-9.239,0-16.696,7.457-16.696,16.696v200.348c0,9.238,7.456,16.696,16.696,16.696
	h100.174c9.239,0,16.696-7.457,16.696-16.696V16.696C189.217,7.457,181.761,0,172.522,0z"/>
<path style="fill:#37AFCC;" d="M356.174,116.87v100.174c0,9.238-7.456,16.696-16.696,16.696H239.304
	c-9.239,0-16.696-7.457-16.696-16.696V116.87c0-1.892,0.334-3.896,0.892-5.565h131.671
	C355.729,112.974,356.174,114.866,356.174,116.87z"/>
<g>
	<path style="fill:#99522E;" d="M189.217,66.783v33.391H139.13c-9.239,0-16.696-7.457-16.696-16.696s7.456-16.696,16.696-16.696
		H189.217z"/>
	<path style="fill:#99522E;" d="M189.217,133.565v33.391H139.13c-9.239,0-16.696-7.457-16.696-16.696s7.456-16.696,16.696-16.696
		H189.217z"/>
</g>
<path style="fill:#F37B2A;" d="M372.87,445.217H38.957c-9.217,0-16.696-7.473-16.696-16.696V217.043
	c0-9.223,7.479-16.696,16.696-16.696H372.87c9.217,0,16.696,7.473,16.696,16.696v211.478
	C389.565,437.744,382.087,445.217,372.87,445.217z"/>
<path style="fill:#E56722;" d="M372.87,200.348H205.913v244.87H372.87c9.217,0,16.696-7.473,16.696-16.696V217.043
	C389.565,207.821,382.087,200.348,372.87,200.348z"/>
<path style="fill:#A6673A;" d="M322.783,512H89.043c-36.883,0-66.783-29.9-66.783-66.783v-33.391h367.304v33.391
	C389.565,482.1,359.665,512,322.783,512z"/>
<path style="fill:#99522E;" d="M389.565,445.217v-33.391H205.913V512h116.87C359.665,512,389.565,482.1,389.565,445.217z"/>
<path style="fill:#FECC97;" d="M355.171,111.304H223.5c0.333-0.668,0.555-1.336,0.888-1.892L274.475,9.238
	C277.258,3.562,283.046,0,289.391,0c6.345,0,12.133,3.562,14.916,9.238l50.087,100.174
	C354.727,109.969,354.95,110.637,355.171,111.304z"/>
<path style="fill:#37AFCC;" d="M304.307,9.238C301.525,3.562,295.737,0,289.391,0c-6.345,0-12.133,3.562-14.916,9.238l-9.48,18.96
	h48.791L304.307,9.238z"/>
<g>
</g>
<g>
</g>
<g>
</g>
<g>
</g>
<g>
</g>
<g>
</g>
<g>
</g>
<g>
</g>
<g>
</g>
<g>
</g>
<g>
</g>
<g>
</g>
<g>
</g>
<g>
</g>
<g>
</g>
</svg>
