<?xml version="1.0" encoding="iso-8859-1"?>
<!-- Generator: Adobe Illustrator 19.0.0, SVG Export Plug-In . SVG Version: 6.00 Build 0)  -->
<svg version="1.1" id="Layer_1" xmlns="http://www.w3.org/2000/svg" xmlns:xlink="http://www.w3.org/1999/xlink" x="0px" y="0px"
	 viewBox="0 0 512 512" style="enable-background:new 0 0 512 512;" xml:space="preserve">
<path style="fill:#665247;" d="M455.24,71.991c-3.898,0-7.796-1.484-10.77-4.459c-5.943-5.949-5.943-15.593,0-21.54l41.535-41.53
	c5.937-5.949,15.593-5.949,21.53,0c5.949,5.949,5.949,15.593,0,21.54l-41.524,41.53C463.036,70.507,459.138,71.991,455.24,71.991z"
	/>
<g>
	<path style="fill:#736056;" d="M15.231,512c-3.898,0-7.796-1.484-10.77-4.459c-5.943-5.949-5.943-15.593,0-21.54l40.612-40.612
		c5.949-5.949,15.593-5.949,21.54,0c5.943,5.949,5.943,15.593,0,21.54l-40.612,40.612C23.027,510.516,19.128,512,15.231,512z"/>
	<path style="fill:#736056;" d="M265.748,210.401c-12.417,5.338-23.555,12.996-32.955,22.394
		c-9.4,9.399-17.057,20.538-22.393,32.953c-3.365,7.89-12.417,11.255-20.074,7.89c-7.661-3.365-11.256-12.3-7.893-19.958
		c6.963-16.013,16.826-30.285,28.893-42.352c12.066-12.067,26.338-21.93,42.352-28.892c7.657-3.249,16.708,0.232,19.958,7.89
		C277.002,198.102,273.521,207.035,265.748,210.401z"/>
</g>
<g>
	<path style="fill:#665247;" d="M265.748,210.401c-12.417,5.338-23.555,12.996-32.955,22.394l-21.466-21.466
		c12.066-12.067,26.338-21.93,42.352-28.892c7.657-3.249,16.708,0.232,19.958,7.89C277.002,198.102,273.521,207.035,265.748,210.401
		z"/>
	<path style="fill:#665247;" d="M369.133,279.933c-75.581,0-137.065-61.484-137.065-137.065S293.552,5.804,369.133,5.804
		s137.065,61.484,137.065,137.065S444.714,279.933,369.133,279.933z"/>
</g>
<path style="fill:#736056;" d="M142.868,506.199c-75.581,0-137.065-61.484-137.065-137.065S67.287,232.07,142.868,232.07
	s137.065,61.484,137.065,137.065S218.448,506.199,142.868,506.199z"/>
<path style="fill:#DAE1E6;" d="M369.133,36.263c-58.781,0-106.606,47.824-106.606,106.606s47.824,106.606,106.606,106.606
	s106.606-47.824,106.606-106.606S427.914,36.263,369.133,36.263z"/>
<path style="fill:#EDF0F2;" d="M142.868,262.528c-58.781,0-106.606,47.824-106.606,106.606S84.086,475.74,142.868,475.74
	s106.606-47.824,106.606-106.606S201.649,262.528,142.868,262.528z"/>
<path style="fill:#DAE1E6;" d="M179.791,347.44c-3.898,0-7.796-1.484-10.764-4.459c-14.425-14.414-37.892-14.414-52.317,0
	c-5.937,5.949-15.587,5.943-21.536-0.006c-5.949-5.943-5.943-15.587,0.006-21.536c26.289-26.289,69.087-26.289,95.376,0
	c5.949,5.949,5.955,15.593,0.006,21.536C187.587,345.951,183.688,347.44,179.791,347.44z"/>
<path style="fill:#EDF0F2;" d="M406.056,121.175c-3.898,0-7.796-1.484-10.764-4.459c-14.425-14.414-37.892-14.414-52.317,0
	c-5.937,5.949-15.587,5.943-21.536-0.006c-5.949-5.943-5.943-15.587,0.006-21.536c26.289-26.289,69.087-26.289,95.376,0
	c5.949,5.949,5.955,15.593,0.006,21.536C413.852,119.685,409.954,121.175,406.056,121.175z"/>
<g>
</g>
<g>
</g>
<g>
</g>
<g>
</g>
<g>
</g>
<g>
</g>
<g>
</g>
<g>
</g>
<g>
</g>
<g>
</g>
<g>
</g>
<g>
</g>
<g>
</g>
<g>
</g>
<g>
</g>
</svg>
