<?xml version="1.0" encoding="iso-8859-1"?>
<!-- Generator: Adobe Illustrator 19.0.0, SVG Export Plug-In . SVG Version: 6.00 Build 0)  -->
<svg version="1.1" id="Layer_1" xmlns="http://www.w3.org/2000/svg" xmlns:xlink="http://www.w3.org/1999/xlink" x="0px" y="0px"
	 viewBox="0 0 511.989 511.989" style="enable-background:new 0 0 511.989 511.989;" xml:space="preserve">
<path style="fill:#8CC153;" d="M286.62,21.219c-2.859-3.008-6.094-4.531-9.609-4.531h-0.281c-4.858,0.117-9.101,2.984-15.116,10.21
	c-4.156,4.984-8.556,11.453-12.383,18.218c-7.492,13.219-16.422,33.625-16.453,55.772c-0.039,36.663,13.742,80.857,15.297,85.74
	c-2.484,24.484-6.977,71.428-7.719,97.163l21.383,0.609c0.742-25.828,5.57-75.444,7.938-98.647
	c9.022-14.859,38.475-65.217,39.85-91.529C310.932,67.476,295.292,30.367,286.62,21.219z"/>
<path style="fill:#A0D468;" d="M389.414,110.1c-2.265-2.195-5.249-3.312-8.843-3.312c-11.031,0-57.093,14.593-78.655,46.819
	c-19.062,28.491-31.006,69.396-33.693,79.17c-5.977,5.758-12.579,14.062-19.023,26.039c-7.062-14.835-14-27.945-20.016-38.671
	l-0.094-2.406c-0.156-3.961-3.922-97.35-20.234-134.474c-7.437-16.921-19.929-36.671-34.28-54.178
	C151.092,0.43,141.756,0.11,138.693,0c-0.148,0-0.297,0-0.438,0c-2.82,0-8.148,0.969-12.227,7.453
	c-6.344,10.102-7.984,31.421-7.398,48.007c0.867,24.671,6.508,48.976,15.883,68.428c18.031,37.421,52.679,76.717,68.343,93.49
	c9.694,16.328,24.812,43.624,38.327,75.866l19.727-8.266c-0.211-0.516-0.422-1.016-0.633-1.516l0.828,0.328
	c8.758-21.562,17.968-32.414,24.358-37.789c15.483-6.688,71.546-31.945,87.764-53.538c5.641-7.516,13.328-21.593,17.812-45.944
	c1.266-6.891,2.109-13.867,2.344-19.664C393.726,119.006,393.18,113.741,389.414,110.1z"/>
<path style="fill:#CCD1D9;" d="M235.754,474.054v27.232c0,5.906,4.789,10.703,10.695,10.703c5.905,0,10.695-4.797,10.695-10.703
	v-27.232H235.754z"/>
<path style="fill:#EC87C0;" d="M342.697,374.727c0,80.217-96.232,115.873-96.232,115.873s-96.217-35.656-96.217-115.873
	c0-54.156,43.077-98.045,96.217-98.045C299.619,276.683,342.697,320.571,342.697,374.727z"/>
<path style="fill:#E6E9ED;" d="M177.255,442.835c28.469,32.656,69.21,47.766,69.21,47.766s40.655-15.078,69.107-47.656
	c-13.125-7.406-37.515-18.094-69.123-18.094C215.012,424.85,190.559,435.413,177.255,442.835z"/>
<g style="opacity:0.2;">
	<path style="fill:#FFFFFF;" d="M246.465,276.683c-3.609,0-7.18,0.203-10.695,0.609c48.116,5.422,85.537,46.967,85.537,97.436
		c0,63.592-60.467,99.17-85.537,111.186c6.555,3.156,10.695,4.688,10.695,4.688s96.232-35.656,96.232-115.873
		C342.697,320.571,299.619,276.683,246.465,276.683z"/>
</g>
<g>
</g>
<g>
</g>
<g>
</g>
<g>
</g>
<g>
</g>
<g>
</g>
<g>
</g>
<g>
</g>
<g>
</g>
<g>
</g>
<g>
</g>
<g>
</g>
<g>
</g>
<g>
</g>
<g>
</g>
</svg>
