<?xml version="1.0" encoding="iso-8859-1"?>
<!-- Generator: Adobe Illustrator 19.0.0, SVG Export Plug-In . SVG Version: 6.00 Build 0)  -->
<svg version="1.1" id="Layer_1" xmlns="http://www.w3.org/2000/svg" xmlns:xlink="http://www.w3.org/1999/xlink" x="0px" y="0px"
	 viewBox="0 0 512.005 512.005" style="enable-background:new 0 0 512.005 512.005;" xml:space="preserve">
<polygon style="fill:#595959;" points="305.635,385.762 280.764,360.891 448.168,193.487 422.135,167.456 447.007,142.585 
	497.91,193.487 "/>
<rect x="418.543" y="17.16" transform="matrix(0.7071 0.7071 -0.7071 0.7071 172.3164 -308.0833)" style="fill:#E68D2C;" width="79.009" height="73.605"/>
<rect x="452.26" y="31.117" transform="matrix(0.7071 0.7071 -0.7071 0.7071 186.2758 -313.8698)" style="fill:#E06B34;" width="39.505" height="73.605"/>
<rect x="13.19" y="455.284" transform="matrix(-0.7071 -0.7071 0.7071 -0.7071 -287.7368 843.2604)" style="fill:#818181;" width="35.173" height="51.876"/>
<rect x="28.199" y="461.501" transform="matrix(-0.7071 -0.7071 0.7071 -0.7071 -281.5227 858.2673)" style="fill:#595959;" width="17.586" height="51.876"/>
<polygon style="fill:#80CDD8;" points="40.304,471.689 65.011,496.397 83.047,478.36 144.234,460.342 488.302,116.273 
	442.012,69.982 395.72,23.692 51.652,367.76 33.634,428.946 15.597,446.983 "/>
<g>
	<polygon style="fill:#5293A9;" points="40.304,471.689 65.011,496.397 83.047,478.36 144.234,460.342 488.302,116.273 
		442.012,69.982 	"/>
	<polygon style="fill:#5293A9;" points="33.634,428.946 15.597,446.982 40.304,471.689 65.012,496.397 83.047,478.36 
		144.234,460.342 51.652,367.76 	"/>
</g>
<polygon style="fill:#3A7484;" points="40.304,471.689 65.012,496.397 83.047,478.36 144.234,460.342 97.942,414.052 "/>
<g>
</g>
<g>
</g>
<g>
</g>
<g>
</g>
<g>
</g>
<g>
</g>
<g>
</g>
<g>
</g>
<g>
</g>
<g>
</g>
<g>
</g>
<g>
</g>
<g>
</g>
<g>
</g>
<g>
</g>
</svg>
