<svg height="512" viewBox="0 0 64 64" width="512" xmlns="http://www.w3.org/2000/svg"><g id="Scissor"><path d="m25.14 5c-2.51 4.31-5 10.15-3.63 14.93l5.35 18.07 5.14-14.17zm6.86 32a1 1 0 0 0 0 2 1 1 0 0 0 0-2zm21.43 13.55a7.5 7.5 0 0 0 -12.6-2.46l-3.69-10.09-1.54 5.17-3.6.88 3.41.83c4.26 11.7 4 11 4.13 11.26a7.49 7.49 0 0 0 13.89-5.59zm-5.85 5.86a3.5 3.5 0 1 1 2.09-4.49 3.5 3.5 0 0 1 -2.09 4.49z" fill="#6fb4e2"/><path d="m32 37a1 1 0 0 0 0 2 1 1 0 0 0 0-2z" fill="#438fd0"/><path d="m32 37a1 1 0 0 0 0 2 1 1 0 0 0 0-2z" fill="none" stroke="#0f283a" stroke-linecap="round" stroke-linejoin="round" stroke-width="2"/><path d="m38.86 5-15.69 43.09a7.49 7.49 0 1 0 1.49 7.59l3.93-10.8 7-1.71c2-6.69.68-2.32 6.89-23.26 1.4-4.78-1.11-10.62-3.62-14.91zm-18 49.33a3.5 3.5 0 1 1 -2.09-4.48 3.5 3.5 0 0 1 2.13 4.46zm11.14-15.33a1 1 0 0 1 0-2 1 1 0 0 1 0 2z" fill="#438fd0"/><circle cx="32" cy="38" fill="#56524f" r="2"/></g></svg>