<?xml version="1.0" encoding="iso-8859-1"?>
<!-- Generator: Adobe Illustrator 19.0.0, SVG Export Plug-In . SVG Version: 6.00 Build 0)  -->
<svg version="1.1" id="Layer_1" xmlns="http://www.w3.org/2000/svg" xmlns:xlink="http://www.w3.org/1999/xlink" x="0px" y="0px"
	 viewBox="0 0 512 512" style="enable-background:new 0 0 512 512;" xml:space="preserve">
<path style="fill:#DBE1E5;" d="M289.394,512h-66.796c-27.625,0-50.097-22.472-50.097-50.097v-77.929
	c0-9.225,7.48-16.699,16.699-16.699h133.592c9.219,0,16.699,7.474,16.699,16.699v77.929C339.492,489.527,317.019,512,289.394,512z"
	/>
<path style="fill:#C9D3D9;" d="M322.793,367.275h-66.796V512h33.398c27.625,0,50.097-22.472,50.097-50.097v-77.929
	C339.492,374.749,332.012,367.275,322.793,367.275z"/>
<path style="fill:#FFE14D;" d="M371.887,41.086c-32.953-26.83-73.697-40.969-115.89-41.08c-13.024-0.111-26.273,1.225-39.41,4.008
	C144.558,19.043,87.67,78.047,75.09,151.077c-12.246,71.472,16.588,141.497,75.368,182.912
	c14.027,9.797,22.043,24.047,22.043,39.075v27.609h166.991v-25.494c0-16.254,8.35-31.506,23.046-41.97
	c48.314-34.511,77.149-90.398,77.149-149.624C439.686,128.033,414.971,76.042,371.887,41.086z"/>
<path style="fill:#FFCC33;" d="M439.686,183.585c0,59.226-28.835,115.112-77.149,149.624c-14.696,10.465-23.046,25.717-23.046,41.97
	v25.494h-83.495V0.006c42.193,0.11,82.939,14.25,115.89,41.08C414.971,76.042,439.686,128.033,439.686,183.585z"/>
<g>
	<path style="fill:#FFC033;" d="M272.695,250.381v150.292h-33.398V250.381c0-9.24,7.458-16.699,16.699-16.699
		C265.238,233.682,272.695,241.141,272.695,250.381z"/>
	<path style="fill:#FFC033;" d="M255.996,267.08c-27.625,0-50.097-22.472-50.097-50.097s22.473-50.097,50.097-50.097
		s50.097,22.472,50.097,50.097S283.621,267.08,255.996,267.08z M255.996,200.284c-9.208,0-16.699,7.491-16.699,16.699
		c0,9.208,7.491,16.699,16.699,16.699s16.699-7.491,16.699-16.699C272.695,207.775,265.204,200.284,255.996,200.284z"/>
</g>
<path style="fill:#FFFFFF;" d="M155.802,200.284c9.219,0,16.699-7.475,16.699-16.699c0-46.042,37.454-83.495,83.495-83.495
	c9.219,0,16.699-7.474,16.699-16.699s-7.48-16.699-16.699-16.699c-64.458,0-116.893,52.44-116.893,116.893
	C139.103,192.809,146.582,200.284,155.802,200.284z"/>
<path style="fill:#DBE1E5;" d="M272.695,83.39c0-9.225-7.48-16.699-16.699-16.699v33.398
	C265.215,100.089,272.695,92.615,272.695,83.39z"/>
<g>
	<path style="fill:#F9A926;" d="M272.695,400.673V250.381c0-9.24-7.458-16.699-16.699-16.699v166.991H272.695z"/>
	<path style="fill:#F9A926;" d="M272.695,216.983c0,9.208-7.491,16.699-16.699,16.699v33.398c27.625,0,50.097-22.472,50.097-50.097
		s-22.472-50.097-50.097-50.097v33.398C265.204,200.284,272.695,207.774,272.695,216.983z"/>
</g>
<g>
</g>
<g>
</g>
<g>
</g>
<g>
</g>
<g>
</g>
<g>
</g>
<g>
</g>
<g>
</g>
<g>
</g>
<g>
</g>
<g>
</g>
<g>
</g>
<g>
</g>
<g>
</g>
<g>
</g>
</svg>
