<?xml version="1.0" encoding="iso-8859-1"?>
<!-- Generator: Adobe Illustrator 19.0.0, SVG Export Plug-In . SVG Version: 6.00 Build 0)  -->
<svg version="1.1" id="Layer_1" xmlns="http://www.w3.org/2000/svg" xmlns:xlink="http://www.w3.org/1999/xlink" x="0px" y="0px"
	 viewBox="0 0 512 512" style="enable-background:new 0 0 512 512;" xml:space="preserve">
<path style="fill:#E6563A;" d="M306.087,166.957H205.913c-5.478,0-10.608-2.685-13.717-7.185c-3.12-4.5-3.837-10.244-1.913-15.374
	L240.37,10.832C242.815,4.315,249.043,0,256,0c6.957,0,13.185,4.315,15.63,10.831l50.087,133.565
	c1.924,5.13,1.207,10.876-1.913,15.374C316.695,164.272,311.565,166.957,306.087,166.957z"/>
<path style="fill:#D9472B;" d="M306.087,166.957c5.478,0,10.608-2.685,13.717-7.185c3.12-4.5,3.837-10.244,1.913-15.374
	L271.63,10.832C269.185,4.315,262.957,0,256,0v166.957H306.087z"/>
<path style="fill:#F37B2A;" d="M356.174,233.739H155.826c-9.217,0-16.696-7.473-16.696-16.696v-33.391
	c0-27.619,22.468-50.087,50.087-50.087h133.565c27.619,0,50.087,22.468,50.087,50.087v33.391
	C372.87,226.266,365.391,233.739,356.174,233.739z"/>
<path style="fill:#E56722;" d="M256,233.739h100.174c9.217,0,16.696-7.473,16.696-16.696v-33.391
	c0-27.619-22.468-50.087-50.087-50.087H256V233.739z"/>
<path style="fill:#EDF0F2;" d="M356.174,512H155.826c-27.619,0-50.087-22.468-50.087-50.087V250.435
	c0-27.619,22.468-50.087,50.087-50.087h200.348c27.619,0,50.087,22.468,50.087,50.087v33.391c0,9.223-7.479,16.696-16.696,16.696
	H289.391v111.304h100.174c9.217,0,16.696,7.473,16.696,16.696v33.391C406.261,489.532,383.793,512,356.174,512z"/>
<path style="fill:#DAE1E6;" d="M256,512h100.174c27.619,0,50.087-22.468,50.087-50.087v-33.391c0-9.223-7.479-16.696-16.696-16.696
	H289.391V300.522h100.174c9.217,0,16.696-7.473,16.696-16.696v-33.391c0-27.619-22.468-50.087-50.087-50.087H256V512z"/>
<path style="fill:#37AFCC;" d="M406.261,445.217h-116.87c-18.442,0-33.391-14.949-33.391-33.391V300.522
	c0-18.442,14.949-33.391,33.391-33.391h116.87V445.217z"/>
<g>
</g>
<g>
</g>
<g>
</g>
<g>
</g>
<g>
</g>
<g>
</g>
<g>
</g>
<g>
</g>
<g>
</g>
<g>
</g>
<g>
</g>
<g>
</g>
<g>
</g>
<g>
</g>
<g>
</g>
</svg>
