<?xml version="1.0" encoding="iso-8859-1"?>
<!-- Generator: Adobe Illustrator 19.0.0, SVG Export Plug-In . SVG Version: 6.00 Build 0)  -->
<svg version="1.1" id="Capa_1" xmlns="http://www.w3.org/2000/svg" xmlns:xlink="http://www.w3.org/1999/xlink" x="0px" y="0px"
	 viewBox="0 0 512 512" style="enable-background:new 0 0 512 512;" xml:space="preserve">
<path style="fill:#FFD54F;" d="M338.24,226.56C315.52,245.44,286.4,256,256,256s-59.52-10.56-82.24-29.44
	c0.64-0.96,1.28-1.6,2.24-2.56c20.48-20.48,32-48.32,32-77.12V48h96v98.88c0,28.8,11.52,56.64,32,77.12
	C336.96,224.96,337.6,225.6,338.24,226.56z"/>
<path style="fill:#455A64;" d="M368,301.12V480c0,17.6-14.4,32-32,32H176c-17.6,0-32-14.4-32-32V301.12
	c0-27.52,10.56-54.4,29.76-74.56C196.48,245.44,225.6,256,256,256s59.52-10.56,82.24-29.44C357.44,246.72,368,273.6,368,301.12z"/>
<path style="fill:#FFC107;" d="M304,64h-96c-8.832,0-16-7.168-16-16V16c0-8.832,7.168-16,16-16h96c8.832,0,16,7.168,16,16v32
	C320,56.832,312.832,64,304,64z"/>
<ellipse style="fill:#FAFAFA;" cx="256" cy="384" rx="48" ry="64"/>
<g>
</g>
<g>
</g>
<g>
</g>
<g>
</g>
<g>
</g>
<g>
</g>
<g>
</g>
<g>
</g>
<g>
</g>
<g>
</g>
<g>
</g>
<g>
</g>
<g>
</g>
<g>
</g>
<g>
</g>
</svg>
