<?xml version="1.0" encoding="iso-8859-1"?>
<!-- Generator: Adobe Illustrator 19.0.0, SVG Export Plug-In . SVG Version: 6.00 Build 0)  -->
<svg version="1.1" id="Layer_1" xmlns="http://www.w3.org/2000/svg" xmlns:xlink="http://www.w3.org/1999/xlink" x="0px" y="0px"
	 viewBox="0 0 512 512" style="enable-background:new 0 0 512 512;" xml:space="preserve">
<path style="fill:#93D963;" d="M256,512c98.643,0,178.609-79.967,178.609-178.609c0-62.614-65.288-170.792-85.815-240.597
	C334.336,43.627,307.249,0,256,0s-78.336,43.627-92.794,92.794c-20.527,69.803-85.815,177.982-85.815,240.597
	C77.391,432.033,157.357,512,256,512z"/>
<path style="fill:#73BF73;" d="M256,512c98.643,0,178.609-79.967,178.609-178.609c0-62.614-65.288-170.792-85.815-240.597
	C334.336,43.627,307.249,0,256,0C256,46.984,256,463.787,256,512z"/>
<path style="fill:#A75A20;" d="M334.391,328.104c0,54.409-35.096,81.076-78.391,81.076s-78.391-26.667-78.391-81.076
	S212.706,208.922,256,208.922S334.391,273.695,334.391,328.104z"/>
<path style="fill:#743C16;" d="M334.391,328.104c0,54.409-35.096,81.076-78.391,81.076c0-66.882,0-178.769,0-200.259
	C299.294,208.922,334.391,273.695,334.391,328.104z"/>
<g>
</g>
<g>
</g>
<g>
</g>
<g>
</g>
<g>
</g>
<g>
</g>
<g>
</g>
<g>
</g>
<g>
</g>
<g>
</g>
<g>
</g>
<g>
</g>
<g>
</g>
<g>
</g>
<g>
</g>
</svg>
