<?xml version="1.0" encoding="iso-8859-1"?>
<!-- Generator: Adobe Illustrator 19.0.0, SVG Export Plug-In . SVG Version: 6.00 Build 0)  -->
<svg version="1.1" id="Layer_1" xmlns="http://www.w3.org/2000/svg" xmlns:xlink="http://www.w3.org/1999/xlink" x="0px" y="0px"
	 viewBox="0 0 512 512" style="enable-background:new 0 0 512 512;" xml:space="preserve">
<path style="fill:#A8EAEF;" d="M343.154,89.043v65.284c0,18.192,8.544,35.328,23.073,46.275l64.181,48.358
	c28.463,21.445,40.714,58.248,30.785,92.474L411.708,512H100.292L50.807,341.436c-9.929-34.226,2.322-71.028,30.785-92.474
	l64.181-48.358c14.53-10.948,23.073-28.083,23.073-46.275V89.043H343.154z"/>
<path style="fill:#80CDD8;" d="M343.154,89.043v65.284c0,18.192,8.544,35.328,23.073,46.275l64.181,48.358
	c28.463,21.445,40.714,58.248,30.785,92.474L411.708,512H256V89.043H343.154z"/>
<path style="fill:#5293A9;" d="M53.98,284.584c-7.332,17.652-8.742,37.656-3.173,56.852L100.292,512h311.417l49.485-170.564
	c5.569-19.196,4.158-39.199-3.173-56.852H53.98z"/>
<path style="fill:#3A7484;" d="M256,284.584C256,300.522,256,512,256,512h155.708l49.485-170.564
	c5.569-19.196,4.158-39.199-3.173-56.852H256z"/>
<rect x="145.864" style="fill:#595959;" width="220.26" height="112.84"/>
<rect x="256" style="fill:#444242;" width="110.136" height="112.84"/>
<g>
</g>
<g>
</g>
<g>
</g>
<g>
</g>
<g>
</g>
<g>
</g>
<g>
</g>
<g>
</g>
<g>
</g>
<g>
</g>
<g>
</g>
<g>
</g>
<g>
</g>
<g>
</g>
<g>
</g>
</svg>
