<svg enable-background="new 0 0 24 24" height="512" viewBox="0 0 24 24" width="512" xmlns="http://www.w3.org/2000/svg"><path d="m10 20v2h-2c-.552 0-1 .448-1 1s.448 1 1 1h8c.553 0 1-.448 1-1s-.447-1-1-1h-2v-2" fill="#90a4ae"/><path d="m22.25 4h-20.5c-.965 0-1.75.785-1.75 1.75v12.5c0 .965.785 1.75 1.75 1.75h20.5c.965 0 1.75-.785 1.75-1.75v-12.5c0-.965-.785-1.75-1.75-1.75z" fill="#607d8b"/><path d="m2 6h20v12h-20z" fill="#fafafa"/><path d="m19 1.75v.45l-6.31 3.29c-.43.22-.95.22-1.38 0l-6.31-3.29v-.45c0-.96.79-1.75 1.75-1.75h10.5c.96 0 1.75.79 1.75 1.75z" fill="#2196f3"/><path d="m19 2.2v6.05c0 .96-.79 1.75-1.75 1.75h-10.5c-.96 0-1.75-.79-1.75-1.75v-6.05l6.31 3.29c.43.22.95.22 1.38 0z" fill="#64b5f6"/></svg>