<?xml version="1.0" encoding="iso-8859-1"?>
<!-- Generator: Adobe Illustrator 19.0.0, SVG Export Plug-In . SVG Version: 6.00 Build 0)  -->
<svg version="1.1" id="Layer_1" xmlns="http://www.w3.org/2000/svg" xmlns:xlink="http://www.w3.org/1999/xlink" x="0px" y="0px"
	 viewBox="0 0 512.001 512.001" style="enable-background:new 0 0 512.001 512.001;" xml:space="preserve">
<path style="fill:#736056;" d="M492.893,20.548l-0.112-0.112c-0.112-0.224-0.337-0.449-0.561-0.673
	c-26.26-26.26-68.792-26.373-95.166,0L254.866,161.951c-6.622,6.621-6.622,17.17,0,23.792l36.248,36.248l35.126,35.126
	c6.621,6.621,17.169,6.621,23.792,0L492.22,114.929C518.368,88.779,518.592,46.92,492.893,20.548z"/>
<path style="fill:#C9D2D9;" d="M112.032,399.95c-6.575-6.57-6.575-17.233,0-23.804l130.932-130.932
	c6.575-6.575,17.229-6.575,23.804,0c6.575,6.57,6.575,17.233,0,23.804L135.836,399.95
	C129.259,406.526,118.608,406.526,112.032,399.95z"/>
<path style="fill:#B7C4CC;" d="M135.836,399.95l130.932-130.932c6.575-6.57,6.575-17.233,0-23.804L112.032,399.95
	C118.607,406.526,129.26,406.526,135.836,399.95z"/>
<path style="fill:#DBE1E5;" d="M28.73,507.045L4.936,483.252c-5.129-5.123-6.4-12.948-3.157-19.431l47.585-95.166
	c2.849-5.704,8.679-9.305,15.058-9.305h47.585c4.461,0,8.746,1.775,11.901,4.932l23.781,23.793
	c3.157,3.157,4.932,7.442,4.932,11.901v47.585c0,6.379-3.606,12.203-9.305,15.058l-95.161,47.58
	C41.698,513.433,33.86,512.175,28.73,507.045z"/>
<path style="fill:#C9D3D9;" d="M28.73,507.045c5.129,5.13,12.969,6.388,19.431,3.157l95.161-47.58
	c5.699-2.855,9.305-8.679,9.305-15.058v-47.585c0-4.461-1.775-8.746-4.932-11.901l-11.891-11.897L16.833,495.149L28.73,507.045z"/>
<path style="fill:#665247;" d="M492.219,114.927L350.031,257.116c-6.622,6.621-17.17,6.621-23.792,0l-35.126-35.126L492.781,20.435
	l0.112,0.112C518.592,46.92,518.368,88.779,492.219,114.927z"/>
<path style="fill:#FFC033;" d="M290.549,309.639L290.549,309.639c-4.461,0-8.746-1.775-11.901-4.932l-83.268-83.281l71.376-71.384
	l95.184,95.176l-59.488,59.488C299.295,307.864,295.01,309.639,290.549,309.639z"/>
<path style="fill:#F9A926;" d="M278.648,304.707c3.157,3.157,7.442,4.932,11.901,4.932c4.461,0,8.746-1.775,11.901-4.932
	l59.488-59.488l-47.59-47.586l-71.386,71.386L278.648,304.707z"/>
<path style="fill:#FFE14D;" d="M302.44,328.495L183.487,209.542c-6.575-6.57-6.575-17.229,0-23.804
	c6.575-6.575,17.229-6.575,23.804,0l118.953,118.953c6.575,6.57,6.575,17.229,0,23.804
	C319.668,335.07,309.017,335.07,302.44,328.495z"/>
<path style="fill:#FFCC33;" d="M302.44,328.495c6.575,6.575,17.229,6.575,23.804,0c6.575-6.575,6.575-17.233,0-23.804
	l-59.477-59.477l-23.804,23.804L302.44,328.495z"/>
<g>
</g>
<g>
</g>
<g>
</g>
<g>
</g>
<g>
</g>
<g>
</g>
<g>
</g>
<g>
</g>
<g>
</g>
<g>
</g>
<g>
</g>
<g>
</g>
<g>
</g>
<g>
</g>
<g>
</g>
</svg>
