<?xml version="1.0" encoding="iso-8859-1"?>
<!-- Generator: Adobe Illustrator 19.0.0, SVG Export Plug-In . SVG Version: 6.00 Build 0)  -->
<svg version="1.1" id="Layer_1" xmlns="http://www.w3.org/2000/svg" xmlns:xlink="http://www.w3.org/1999/xlink" x="0px" y="0px"
	 viewBox="0 0 512 512" style="enable-background:new 0 0 512 512;" xml:space="preserve">
<path style="fill:#FF738E;" d="M116.332,72.445H72.446c-16.324,0-29.605,13.281-29.605,29.605v45.976h103.097V102.05
	C145.938,85.726,132.656,72.445,116.332,72.445z"/>
<rect x="428.063" y="101.355" style="fill:#FF3C62;" width="31.347" height="30.999"/>
<path style="fill:#DFCDBD;" d="M512,159v280.555H0V159c0-23.343,18.986-42.318,42.318-42.318h427.363
	C493.014,116.682,512,135.657,512,159z"/>
<path style="fill:#C9AD91;" d="M512,159v280.555H256V116.682h213.682C493.014,116.682,512,135.657,512,159z"/>
<rect y="194.006" style="fill:#867B6E;" width="188.082" height="31.347"/>
<rect x="327.826" y="194.006" style="fill:#766957;" width="184.174" height="31.347"/>
<g>
	<rect x="443.737" y="370.594" style="fill:#FFFFFF;" width="20.898" height="20.898"/>
	<rect x="406.81" y="370.594" style="fill:#FFFFFF;" width="20.898" height="20.898"/>
</g>
<path style="fill:#FF738E;" d="M371.984,279.686c0,63.948-52.025,115.984-115.984,115.984s-115.984-52.036-115.984-115.984
	c0-63.958,52.025-115.984,115.984-115.984S371.984,215.728,371.984,279.686z"/>
<path style="fill:#D7E9FF;" d="M337.162,279.691c0,44.806-36.336,81.142-81.162,81.142s-81.162-36.336-81.162-81.142
	c0-44.826,36.336-81.162,81.162-81.162S337.162,234.865,337.162,279.691z"/>
<path style="fill:#FF3C62;" d="M371.984,279.686c0,63.948-52.025,115.984-115.984,115.984V163.702
	C319.958,163.702,371.984,215.728,371.984,279.686z"/>
<path style="fill:#BBDDFF;" d="M337.162,279.691c0,44.806-36.336,81.142-81.162,81.142V198.529
	C300.826,198.529,337.162,234.865,337.162,279.691z"/>
<g>
</g>
<g>
</g>
<g>
</g>
<g>
</g>
<g>
</g>
<g>
</g>
<g>
</g>
<g>
</g>
<g>
</g>
<g>
</g>
<g>
</g>
<g>
</g>
<g>
</g>
<g>
</g>
<g>
</g>
</svg>
