<?xml version="1.0" encoding="iso-8859-1"?>
<!-- Generator: Adobe Illustrator 19.0.0, SVG Export Plug-In . SVG Version: 6.00 Build 0)  -->
<svg version="1.1" id="Layer_1" xmlns="http://www.w3.org/2000/svg" xmlns:xlink="http://www.w3.org/1999/xlink" x="0px" y="0px"
	 viewBox="0 0 511.999 511.999" style="enable-background:new 0 0 511.999 511.999;" xml:space="preserve">
<g>
	<path style="fill:#CC9758;" d="M190.134,411.924c-4.335-2.491-6.558-7.507-5.573-12.409l0.018-0.091
		c5.803-29.029-13.024-57.266-42.053-63.069c-29.029-5.803-57.266,13.024-63.069,42.053l-0.018,0.091
		c-0.976,4.904-4.955,8.679-9.915,9.312c-22.286,2.845-41.263,19.617-45.811,42.912c-5.54,28.377,12.806,56.377,41.041,62.603
		c3.261,0.719,6.516,1.126,9.734,1.24c23.973,0.849,47.561,5.563,70.018,13.997c3.015,1.132,6.177,2.008,9.466,2.599
		c28.458,5.108,56.16-13.688,61.955-42.015C220.682,445.897,209.613,423.118,190.134,411.924z"/>
	<path style="fill:#CC9758;" d="M267.029,396.099c-10.08,12.97-28.764,15.313-41.733,5.235c-12.97-10.08-15.313-28.764-5.235-41.734
		c10.08-12.97,41.168-31.275,54.138-21.196C287.169,348.482,277.108,383.129,267.029,396.099z"/>
	<path style="fill:#CC9758;" d="M4.622,343.641c4.317,15.848,20.666,25.195,36.514,20.877s25.195-20.666,20.877-36.514
		s-25.98-44.698-41.828-40.381C4.337,291.941,0.303,327.793,4.622,343.641z"/>
	<path style="fill:#CC9758;" d="M230.082,298.883c-3.56,17.804-20.877,29.352-38.682,25.793
		c-17.804-3.56-29.352-20.877-25.793-38.682c3.56-17.804,24.466-47.299,42.269-43.739
		C225.68,245.814,233.64,281.078,230.082,298.883z"/>
	<path style="fill:#CC9758;" d="M76.105,268.101c-3.56,17.804,7.989,35.122,25.793,38.682s35.122-7.989,38.682-25.793
		s-4.401-53.069-22.205-56.629C100.571,220.802,79.664,250.296,76.105,268.101z"/>
	<path style="fill:#CC9758;" d="M443.08,163.267c-4.966-0.583-8.985-4.316-10.011-9.21l-0.019-0.091
		c-6.101-28.967-34.53-47.504-63.498-41.402c-28.968,6.101-47.504,34.53-41.402,63.498l0.019,0.09
		c1.035,4.892-1.135,9.93-5.446,12.466c-19.363,11.395-30.198,34.285-25.202,57.487c6.087,28.265,33.98,46.774,62.384,41.373
		c3.282-0.623,6.434-1.532,9.436-2.695c22.369-8.664,45.907-13.623,69.87-14.717c3.217-0.147,6.468-0.587,9.723-1.34
		c28.169-6.516,46.227-34.704,40.394-63.023C484.541,182.458,465.394,165.883,443.08,163.267z"/>
	<path style="fill:#CC9758;" d="M507.523,118.43c-4.154,15.892-20.405,25.406-36.297,21.251
		c-15.892-4.154-25.406-20.405-21.251-36.297c4.154-15.892,25.519-44.963,41.411-40.809
		C507.276,66.729,511.679,102.539,507.523,118.43z"/>
	<path style="fill:#CC9758;" d="M245.67,173.585c10.211,12.866,28.92,15.017,41.786,4.804c12.866-10.213,15.017-28.92,4.804-41.786
		c-10.213-12.866-41.487-30.85-54.353-20.638C225.041,126.178,235.458,160.719,245.67,173.585z"/>
	<path style="fill:#CC9758;" d="M435.267,43.629c3.742,17.766-7.627,35.202-25.394,38.946c-17.766,3.742-35.202-7.627-38.946-25.394
		c-3.742-17.766,3.855-53.111,21.621-56.854C410.317-3.415,431.525,25.863,435.267,43.629z"/>
	<path style="fill:#CC9758;" d="M281.615,75.994c3.742,17.766,21.178,29.136,38.946,25.394
		c17.766-3.742,29.136-21.178,25.394-38.946c-3.742-17.766-24.95-47.045-42.717-43.303C285.47,22.881,277.873,58.227,281.615,75.994
		z"/>
</g>
<g>
</g>
<g>
</g>
<g>
</g>
<g>
</g>
<g>
</g>
<g>
</g>
<g>
</g>
<g>
</g>
<g>
</g>
<g>
</g>
<g>
</g>
<g>
</g>
<g>
</g>
<g>
</g>
<g>
</g>
</svg>
