<?xml version="1.0" encoding="iso-8859-1"?>
<!-- Generator: Adobe Illustrator 19.0.0, SVG Export Plug-In . SVG Version: 6.00 Build 0)  -->
<svg version="1.1" id="Layer_1" xmlns="http://www.w3.org/2000/svg" xmlns:xlink="http://www.w3.org/1999/xlink" x="0px" y="0px"
	 viewBox="0 0 511.983 511.983" style="enable-background:new 0 0 511.983 511.983;" xml:space="preserve">
<path style="fill:#8CC153;" d="M307.775,48.024c50.406,12.734,189.965,112.811,184.824,133.122
	c-5.125,20.312-175.465,42.108-225.869,29.375c-50.406-12.718-82.078-59.42-70.734-104.294
	C207.324,61.352,257.371,35.306,307.775,48.024z"/>
<g>
	<path style="fill:#A0D468;" d="M125.904,330.659c-5.688,0-10.422-4.5-10.641-10.25c-1.843-47.062,5.688-93.123,22.39-136.919
		c13.328-34.952,32.484-68.498,56.937-99.732c41.593-53.108,83.733-80.873,85.499-82.029c4.938-3.219,11.547-1.812,14.766,3.125
		c3.218,4.922,1.812,11.531-3.125,14.75c-0.391,0.266-41.39,27.358-80.812,77.889c-23,29.515-40.999,61.14-53.499,94.029
		c-15.547,40.952-22.562,84.045-20.843,128.06c0.234,5.891-4.359,10.844-10.25,11.078
		C126.185,330.659,126.045,330.659,125.904,330.659z"/>
	<path style="fill:#A0D468;" d="M360.572,309.332c-5.781,0-10.547-4.641-10.656-10.453
		c-2.078-104.295-130.483-225.887-131.779-227.09c-4.297-4.031-4.516-10.781-0.484-15.078s10.781-4.516,15.078-0.484
		c1.391,1.297,34.313,32.327,68.014,77.482c19.875,26.641,35.844,52.671,47.453,77.342c14.766,31.39,22.515,60.795,23.046,87.405
		c0.125,5.891-4.562,10.75-10.452,10.875C360.728,309.332,360.65,309.332,360.572,309.332z"/>
</g>
<path style="fill:#D63A5F;" d="M232.574,405.33c0,53.014-47.749,106.653-106.654,106.653S18.766,458.344,19.25,405.33
	c0.875-95.998,63.999-95.998,106.669-85.327C168.575,309.332,232.574,309.332,232.574,405.33z"/>
<g style="opacity:0.2;">
	<path style="fill:#FFFFFF;" d="M149.544,315.862c32.25,3.406,61.702,24.344,61.702,89.468c0,49.779-42.093,100.106-95.998,106.075
		c3.516,0.391,7.062,0.578,10.672,0.578c58.905,0,106.654-53.64,106.654-106.653C232.574,325.94,188.809,312.206,149.544,315.862z"
		/>
</g>
<path style="fill:#C6325C;" d="M467.241,384.002c0,53.014-47.749,106.654-106.653,106.654c-58.922,0-107.155-53.641-106.671-106.654
	c0.875-95.998,63.999-95.998,106.671-85.342C403.242,288.004,467.241,288.004,467.241,384.002z"/>
<g style="opacity:0.2;">
	<path style="fill:#FFFFFF;" d="M384.196,294.535c32.265,3.406,61.718,24.343,61.718,89.467c0,49.764-42.094,100.107-95.998,106.061
		c3.5,0.391,7.062,0.594,10.672,0.594c58.904,0,106.653-53.641,106.653-106.654C467.241,304.613,423.476,290.879,384.196,294.535z"
		/>
</g>
<g>
</g>
<g>
</g>
<g>
</g>
<g>
</g>
<g>
</g>
<g>
</g>
<g>
</g>
<g>
</g>
<g>
</g>
<g>
</g>
<g>
</g>
<g>
</g>
<g>
</g>
<g>
</g>
<g>
</g>
</svg>
