<?xml version="1.0" encoding="iso-8859-1"?>
<!-- Generator: Adobe Illustrator 19.0.0, SVG Export Plug-In . SVG Version: 6.00 Build 0)  -->
<svg version="1.1" id="Layer_1" xmlns="http://www.w3.org/2000/svg" xmlns:xlink="http://www.w3.org/1999/xlink" x="0px" y="0px"
	 viewBox="0 0 511.989 511.989" style="enable-background:new 0 0 511.989 511.989;" xml:space="preserve">
<path style="fill:#A0D468;" d="M356.306,213.668l-3.625,9.507c-0.141,0.391-14.875,39.148-31.219,79.304
	c-14.125,34.779-23.438,55.857-29.499,68.623c-0.906-10.891-1.781-27.203-2.312-51.609c-0.719-32.561-0.469-63.436-0.469-63.74
	l0.093-10.758h-61.42l-0.648,9.976c-0.016,0.305-2.039,31.273-5,63.834c-2.297,25.297-4.273,41.875-5.852,52.719
	c-5.281-10.844-13.148-28.078-24.766-55.453c-14.194-33.467-27.03-65.701-27.155-66.021l-8.836-22.188l-29.569,59.492L205.8,511.988
	h100.583l93.264-284.142L356.306,213.668z"/>
<g style="opacity:0.1;">
	<path d="M268.315,319.492c0.539,24.406,3.516,84.375,4.414,95.264c4.452-9.357,10.655-23.201,19.233-43.654
		c-0.078-2.547-1.562-25.797-1.625-28.547c-0.719-32.561-1.156-86.498-1.156-86.803l0.094-10.758H267.94l-0.086,10.757
		C267.847,256.057,267.604,286.932,268.315,319.492z"/>
	<polygon points="356.306,213.668 353.946,219.871 378.305,227.847 285.057,511.988 306.384,511.988 399.647,227.847 	"/>
	<path d="M170.263,316.07c11.609,27.375,35.616,81.438,40.89,92.266c1.234-8.438,2.711-20.391,4.391-37.234
		c-2.398-5.516-21.133-48.391-23.953-55.031c-14.194-33.467-27.03-65.701-27.155-66.021l-8.836-22.188l-11.844,23.828
		C146.544,258.674,157.888,286.901,170.263,316.07z"/>
</g>
<path style="fill:#76A336;" d="M501.333,123.107c0-39.515-32.046-71.553-71.561-71.553c-20.484,0-38.953,8.609-51.999,22.406
	c-11.062-25.226-36.249-42.851-65.562-42.851c-16.843,0-32.327,5.828-44.553,15.57c-16.812-21.897-43.257-36.015-72.999-36.015
	c-48.39,0-88.061,37.374-91.717,84.826c-6.562-1.977-13.515-3.047-20.726-3.047c-39.515,0-71.554,32.039-71.554,71.553
	c0,32.523,21.695,59.967,51.405,68.67c3.742,47.39,43.366,84.669,91.709,84.669c12.875,0,25.133-2.656,36.257-7.436
	c16.719,17.186,40.093,27.873,65.96,27.873c38.562,0,71.561-23.719,85.248-57.373c13.906,8.438,30.202,13.281,47.64,13.281
	c50.812,0,91.997-41.179,91.997-91.991c0-8.734-1.218-17.18-3.483-25.18C492.083,163.403,501.333,144.34,501.333,123.107z"/>
<path style="fill:#688E2D;" d="M511.989,123.107c0-45.335-36.874-82.217-82.217-82.217c-18,0-35,5.68-49.093,16.227
	c-15.062-22.648-40.655-36.671-68.468-36.671c-15.062,0-29.89,4.195-42.686,11.953C250.158,11.695,223.393,0,194.659,0
	c-26.022,0-50.851,9.758-69.896,27.476c-15.945,14.828-26.641,34.078-30.805,55.14c-3.874-0.562-7.796-0.836-11.741-0.836
	C36.882,81.781,0,118.663,0,163.997c0,18.132,5.788,35.328,16.733,49.726c9.125,11.992,21.555,21.351,35.499,26.843
	c3.422,22.96,14.516,44.054,31.703,60.023c19.046,17.67,43.843,27.404,69.842,27.404c11.617,0,22.953-1.906,33.78-5.688
	c18.836,16.906,42.874,26.125,68.437,26.125c20.812,0,40.874-6.188,57.982-17.938c13.453-9.219,24.391-21.342,32.109-35.467
	c13.359,6.125,27.952,9.328,42.796,9.328c56.608,0,102.669-46.055,102.669-102.663c0-7.359-0.781-14.664-2.328-21.797
	C503.77,164.653,511.989,144.31,511.989,123.107z M470.287,168.552l-4.984,4.445l1.828,6.429c2.047,7.203,3.078,14.695,3.078,22.266
	c0,44.843-36.483,81.334-81.326,81.334c-14.703,0-29.093-3.969-41.64-11.469c-1.562-1.266-8.531-7.273-15-18.492
	c-0.969-1.656-1.844-3.359-2.703-5.078l-6.922-19.188c-2.688-11.085-3.578-23.124-2.656-36.038l0,0c0-0.258,0.031-0.508,0.031-0.766
	c0-5.891-4.781-10.664-10.656-10.664c-5.641,0-10.25,4.367-10.641,9.906l-0.016-0.008c-3.64,50.921,18.125,80.131,29.594,91.827
	c-13.875,26.969-41.499,44.045-72.279,44.045c-22.148,0-42.858-8.75-58.312-24.639l-5.109-5.25l-6.742,2.875
	c-10.147,4.375-20.929,6.562-32.054,6.562c-20.593,0-40.241-7.703-55.327-21.703c-14.89-13.828-24.015-32.531-25.71-52.687
	c0.086-3.711,1.445-34.038,22.468-51.491c14.461-12.007,35.586-15.468,62.796-10.296l0,0c0.648,0.117,1.312,0.188,1.992,0.188
	c5.891,0,10.664-4.773,10.664-10.664c0-5.211-3.734-9.539-8.672-10.477l0,0c-33.765-6.422-60.812-1.43-80.404,14.835
	c-18.945,15.726-26,38.179-28.625,53.015c-7.452-4.102-14.062-9.757-19.241-16.562c-8.102-10.656-12.383-23.383-12.383-36.812
	c0-33.57,27.312-60.889,60.882-60.889c6.008,0,11.937,0.875,17.64,2.594l12.695,3.836l1.023-13.227
	c1.57-20.351,10.703-39.257,25.71-53.218c15.094-14.031,34.758-21.757,55.374-21.757c25.172,0,48.429,11.335,63.976,31.124
	c3.203,16.156,8.008,57.108-19.664,77.639l0.008,0.008c-2.617,1.945-4.32,5.047-4.32,8.555c0,5.891,4.781,10.672,10.672,10.672
	c2.375,0,4.57-0.797,6.344-2.109l0.008,0.008c19.664-14.594,30.312-38.069,30.796-67.897c0.172-11.148-1.094-21.187-2.391-28.39
	c9.594-6.008,20.593-9.164,32.124-9.164c22,0,42.094,11.844,52.875,30.664c-4,5.117-9.625,13.281-14.094,23.531
	c-10.406,23.945-9.625,47.819,2.25,69.053c0.031,0.039,0.047,0.07,0.062,0.109c0.031,0.031,0.031,0.062,0.062,0.094l0,0
	c1.844,3.242,5.312,5.43,9.281,5.43c5.905,0,10.687-4.773,10.687-10.664c0-1.906-0.516-3.688-1.391-5.234h0.016
	c-8.624-15.289-9.171-32.007-1.656-49.71c5.625-13.203,13.906-22.351,15-23.546l0.219-0.219
	c11.624-12.296,27.343-19.07,44.249-19.07c33.562,0,60.873,27.319,60.873,60.889C490.645,140.435,483.239,156.997,470.287,168.552z"
	/>
<g>
</g>
<g>
</g>
<g>
</g>
<g>
</g>
<g>
</g>
<g>
</g>
<g>
</g>
<g>
</g>
<g>
</g>
<g>
</g>
<g>
</g>
<g>
</g>
<g>
</g>
<g>
</g>
<g>
</g>
</svg>
