<?xml version="1.0" encoding="iso-8859-1"?>
<!-- Generator: Adobe Illustrator 19.0.0, SVG Export Plug-In . SVG Version: 6.00 Build 0)  -->
<svg version="1.1" id="Layer_1" xmlns="http://www.w3.org/2000/svg" xmlns:xlink="http://www.w3.org/1999/xlink" x="0px" y="0px"
	 viewBox="0 0 512 512" style="enable-background:new 0 0 512 512;" xml:space="preserve">
<path style="fill:#F28618;" d="M428.522,378.434h-53.109c-9.217,0-16.696-7.473-16.696-16.696s7.479-16.696,16.696-16.696h53.109
	c27.619,0,50.087-22.468,50.087-50.087s-22.468-50.087-50.087-50.087h-11.13c-9.217,0-16.696-7.473-16.696-16.696
	s7.479-16.696,16.696-16.696h11.13c46.032,0,83.478,37.446,83.478,83.478S474.554,378.434,428.522,378.434z"/>
<path style="fill:#FFC033;" d="M233.739,445.216c-110.467,0-200.348-89.875-200.348-200.348v-50.087
	c0-9.223,7.479-16.696,16.696-16.696h367.304c9.217,0,16.696,7.473,16.696,16.696v50.087
	C434.087,355.342,344.206,445.216,233.739,445.216z"/>
<path style="fill:#F9A926;" d="M417.391,178.086H233.739v267.13c110.467,0,200.348-89.875,200.348-200.348v-50.087
	C434.087,185.559,426.608,178.086,417.391,178.086z"/>
<path style="fill:#FFE0B2;" d="M133.565,133.564c-4.272,0-8.544-1.631-11.804-4.892c-6.521-6.521-6.521-17.097,0-23.614l8.826-8.821
	c1.88-1.885,2.76-4.604,2.337-7.25c-0.435-2.625-2.119-4.919-4.511-6.114l-4.63-2.315c-11.957-5.983-20.382-17.434-22.534-30.634
	c-2.13-13.217,2.228-26.744,11.674-36.201l8.836-8.836c6.521-6.511,17.087-6.516,23.609,0.006s6.521,17.097,0,23.614l-8.826,8.821
	c-1.88,1.885-2.76,4.604-2.337,7.25c0.435,2.625,2.119,4.919,4.511,6.114l4.63,2.315c11.956,5.984,20.381,17.435,22.532,30.635
	c2.13,13.217-2.228,26.744-11.674,36.201l-8.836,8.836C142.109,131.935,137.837,133.564,133.565,133.564z"/>
<path style="fill:#FDCD99;" d="M333.913,133.564c-4.272,0-8.544-1.631-11.804-4.892c-6.521-6.521-6.521-17.097,0-23.614l8.826-8.821
	c1.88-1.885,2.76-4.604,2.337-7.25c-0.435-2.625-2.119-4.919-4.511-6.114l-4.63-2.315c-11.956-5.984-20.381-17.435-22.532-30.635
	c-2.13-13.217,2.228-26.744,11.674-36.201l8.836-8.836c6.521-6.511,17.087-6.516,23.609,0.006s6.521,17.097,0,23.614l-8.826,8.821
	c-1.88,1.885-2.76,4.604-2.337,7.25c0.435,2.625,2.119,4.919,4.511,6.114l4.63,2.315c11.956,5.984,20.381,17.435,22.532,30.635
	c2.13,13.217-2.228,26.744-11.674,36.201l-8.836,8.836C342.457,131.935,338.185,133.564,333.913,133.564z"/>
<path style="fill:#FFE0B2;" d="M233.739,133.564c-4.272,0-8.544-1.631-11.804-4.892c-6.521-6.521-6.521-17.097,0-23.614l8.826-8.821
	c1.88-1.885,2.76-4.604,2.337-7.25c-0.435-2.625-2.119-4.919-4.511-6.114l-4.63-2.315c-11.956-5.984-20.381-17.435-22.532-30.635
	c-2.13-13.217,2.228-26.744,11.674-36.201l8.836-8.836c6.521-6.511,17.087-6.516,23.609,0.006c6.521,6.521,6.521,17.097,0,23.614
	l-8.826,8.821c-1.88,1.885-2.76,4.604-2.337,7.25c0.435,2.625,2.119,4.919,4.511,6.114l4.63,2.315
	c11.956,5.984,20.381,17.435,22.532,30.635c2.13,13.217-2.228,26.744-11.674,36.201l-8.836,8.836
	C242.283,131.935,238.011,133.564,233.739,133.564z"/>
<path style="fill:#FDCD99;" d="M245.543,128.679l8.836-8.836c9.445-9.456,13.804-22.983,11.674-36.201
	c-2.153-13.201-10.576-24.652-22.532-30.635l-4.63-2.315c-2.391-1.195-4.076-3.489-4.511-6.114c-0.424-2.647,0.456-5.364,2.337-7.25
	l8.826-8.821c6.521-6.516,6.521-17.092,0-23.614c-3.261-3.261-7.533-4.89-11.804-4.89v133.564
	C238.011,133.564,242.283,131.935,245.543,128.679z"/>
<path style="fill:#A6673A;" d="M384,511.999H83.478C37.446,511.999,0,474.553,0,428.521c0-9.223,7.479-16.696,16.696-16.696h434.087
	c9.217,0,16.696,7.473,16.696,16.696C467.478,474.554,430.032,511.999,384,511.999z"/>
<path style="fill:#99522E;" d="M450.783,411.825H233.739v100.174H384c46.032,0,83.478-37.446,83.478-83.478
	C467.478,419.298,460,411.825,450.783,411.825z"/>
<path style="fill:#736056;" d="M166.957,178.086v83.478c0,9.223,7.479,16.696,16.696,16.696s16.696-7.473,16.696-16.696v-83.478
	H166.957z"/>
<path style="fill:#A6673A;" d="M183.652,345.043c-27.619,0-50.087-22.468-50.087-50.087v-33.391c0-9.223,7.479-16.696,16.696-16.696
	h66.783c9.217,0,16.696,7.473,16.696,16.696v33.391C233.739,322.576,211.271,345.043,183.652,345.043z"/>
<g>
</g>
<g>
</g>
<g>
</g>
<g>
</g>
<g>
</g>
<g>
</g>
<g>
</g>
<g>
</g>
<g>
</g>
<g>
</g>
<g>
</g>
<g>
</g>
<g>
</g>
<g>
</g>
<g>
</g>
</svg>
