<?xml version="1.0" encoding="iso-8859-1"?>
<!-- Generator: Adobe Illustrator 19.0.0, SVG Export Plug-In . SVG Version: 6.00 Build 0)  -->
<svg version="1.1" id="Layer_1" xmlns="http://www.w3.org/2000/svg" xmlns:xlink="http://www.w3.org/1999/xlink" x="0px" y="0px"
	 viewBox="0 0 512 512" style="enable-background:new 0 0 512 512;" xml:space="preserve">
<path style="fill:#FFCC33;" d="M269.968,270.32c-3.376-4.182-8.737-6.109-13.968-5.828v169.543c0.331,0.004,0.658,0.025,0.99,0.025
	c18.543,0,35.978-7.223,49.087-20.332v-0.006c25.196-25.179,27.272-65.06,4.847-92.761L269.968,270.32z"/>
<path style="fill:#736056;" d="M289.391,100.174h-66.783c-9.217,0-16.696-7.473-16.696-16.696V16.696
	C205.913,7.473,213.392,0,222.609,0h66.783c9.217,0,16.696,7.473,16.696,16.696v66.783
	C306.087,92.701,298.608,100.174,289.391,100.174z"/>
<path style="fill:#665247;" d="M289.391,0H256v100.174h33.391c9.217,0,16.696-7.473,16.696-16.696V16.696
	C306.087,7.473,298.608,0,289.391,0z"/>
<path style="fill:#DBE1E5;" d="M322.783,166.957H189.217c-9.217,0-16.696-7.473-16.696-16.696V83.478
	c0-9.223,7.479-16.696,16.696-16.696h133.565c9.217,0,16.696,7.473,16.696,16.696v66.783
	C339.478,159.484,332,166.957,322.783,166.957z"/>
<path style="fill:#C9D3D9;" d="M322.783,66.783H256v100.174h66.783c9.217,0,16.696-7.473,16.696-16.696V83.478
	C339.478,74.256,332,66.783,322.783,66.783z"/>
<path style="fill:#EDF0F2;" d="M389.565,233.739h-267.13c-9.217,0-16.696-7.473-16.696-16.696v-16.696
	c0-36.826,29.956-66.783,66.783-66.783h166.957c36.826,0,66.783,29.956,66.783,66.783v16.696
	C406.261,226.266,398.782,233.739,389.565,233.739z"/>
<path style="fill:#DAE1E6;" d="M339.478,133.565H256v100.174h133.565c9.217,0,16.696-7.473,16.696-16.696v-16.696
	C406.261,163.522,376.304,133.565,339.478,133.565z"/>
<path style="fill:#88CC2A;" d="M356.174,512H155.826c-27.619,0-50.087-22.468-50.087-50.087V200.348h300.522v261.565
	C406.261,489.532,383.793,512,356.174,512z"/>
<path style="fill:#7FB335;" d="M256,512h100.174c27.619,0,50.087-22.468,50.087-50.087V200.348H256V512z"/>
<path style="fill:#FFE14D;" d="M256.99,434.06c-18.543,0-35.978-7.223-49.087-20.336c-13.142-13.136-20.37-30.571-20.37-49.092
	c0-15.75,5.511-31.25,15.5-43.647l40.978-50.664c6.327-7.837,19.631-7.837,25.956,0l40.957,50.641
	c22.423,27.701,20.348,67.582-4.847,92.761l0,0l0,0v0.006C292.967,426.837,275.533,434.06,256.99,434.06z"/>
<path style="fill:#FFCC33;" d="M310.924,320.962l-40.957-50.641c-3.376-4.182-8.737-6.109-13.968-5.828v169.543
	c0.331,0.004,0.658,0.025,0.99,0.025c18.543,0,35.978-7.223,49.087-20.332v-0.006C331.272,388.543,333.348,348.663,310.924,320.962z
	"/>
<g>
</g>
<g>
</g>
<g>
</g>
<g>
</g>
<g>
</g>
<g>
</g>
<g>
</g>
<g>
</g>
<g>
</g>
<g>
</g>
<g>
</g>
<g>
</g>
<g>
</g>
<g>
</g>
<g>
</g>
</svg>
