<?xml version="1.0" encoding="iso-8859-1"?>
<!-- Generator: Adobe Illustrator 19.0.0, SVG Export Plug-In . SVG Version: 6.00 Build 0)  -->
<svg version="1.1" id="Layer_1" xmlns="http://www.w3.org/2000/svg" xmlns:xlink="http://www.w3.org/1999/xlink" x="0px" y="0px"
	 viewBox="0 0 512 512" style="enable-background:new 0 0 512 512;" xml:space="preserve">
<path style="fill:#E6563A;" d="M19.625,492.381c-26.191-26.202-26.153-68.535,0.032-94.574L197.31,220.16
	c3.842-3.837,9.318-5.579,14.674-4.654c5.356,0.931,9.927,4.403,12.257,9.318c6.51,13.726,15.261,26.142,26.028,36.913
	c10.754,10.754,23.175,19.513,36.913,26.028c4.909,2.33,8.382,6.901,9.318,12.257c0.925,5.362-0.816,10.831-4.659,14.674
	L114.166,492.376C88.249,518.462,45.853,518.611,19.625,492.381z"/>
<path style="fill:#D9472B;" d="M114.166,492.376l177.675-177.68c3.842-3.842,5.585-9.312,4.659-14.674
	c-0.936-5.356-4.409-9.927-9.318-12.257c-13.737-6.515-26.158-15.272-36.913-26.028L19.625,492.381
	C45.853,518.61,88.249,518.462,114.166,492.376z"/>
<path style="fill:#C9D2D9;" d="M226.625,285.381c-64.649-64.623-65.559-170.882,0-236.434
	c49.987-49.992,126.414-63.142,190.236-32.7c4.909,2.341,8.36,6.912,9.285,12.263c0.914,5.35-0.816,10.815-4.659,14.653l-88.5,88.5
	l47.352,47.357l88.5-88.495c3.832-3.832,9.253-5.557,14.652-4.659c5.356,0.92,9.916,4.382,12.257,9.28
	c30.446,63.794,17.308,140.25-32.689,190.236C397.749,350.703,291.487,350.27,226.625,285.381z"/>
<path style="fill:#B7C4CC;" d="M463.059,285.381c49.998-49.987,63.137-126.442,32.689-190.236c-2.341-4.899-6.901-8.36-12.257-9.28
	c-5.4-0.898-10.82,0.827-14.652,4.659l-88.5,88.495l-23.675-23.677L226.625,285.381C291.486,350.27,397.749,350.703,463.059,285.381
	z"/>
<g>
</g>
<g>
</g>
<g>
</g>
<g>
</g>
<g>
</g>
<g>
</g>
<g>
</g>
<g>
</g>
<g>
</g>
<g>
</g>
<g>
</g>
<g>
</g>
<g>
</g>
<g>
</g>
<g>
</g>
</svg>
