<?xml version="1.0" encoding="iso-8859-1"?>
<!-- Generator: Adobe Illustrator 19.0.0, SVG Export Plug-In . SVG Version: 6.00 Build 0)  -->
<svg version="1.1" id="Layer_1" xmlns="http://www.w3.org/2000/svg" xmlns:xlink="http://www.w3.org/1999/xlink" x="0px" y="0px"
	 viewBox="0 0 511.999 511.999" style="enable-background:new 0 0 511.999 511.999;" xml:space="preserve">
<path style="fill:#E6563A;" d="M378.435,33.391c-64.78,0-103.068,45.19-122.435,78.136c-19.367-32.946-57.655-78.136-122.435-78.136
	C57.432,33.391,0,94.497,0,175.526c0,22.261,5.009,43.297,14.247,63.777c5.009,11.242,11.353,22.372,18.809,33.391
	c34.838,51.645,94.831,102.4,167.402,163.84c14.358,12.243,29.273,24.821,44.633,38.066c3.117,2.671,7.012,4.007,10.908,4.007
	c3.896,0,7.791-1.336,10.908-4.007c15.36-13.245,30.275-25.823,44.633-38.066c72.572-61.44,132.565-112.195,167.403-163.84
	c7.456-11.019,13.802-22.15,18.809-33.391c9.239-20.48,14.247-41.517,14.247-63.777C512,94.497,454.568,33.391,378.435,33.391z"/>
<path style="fill:#D9472B;" d="M266.908,474.601c15.36-13.245,30.275-25.823,44.633-38.066
	c72.57-61.44,132.563-112.195,167.402-163.84c7.456-11.019,13.802-22.15,18.809-33.391c9.239-20.48,14.247-41.517,14.247-63.777
	C512,94.497,454.568,33.391,378.435,33.391c-64.78,0-103.068,45.19-122.435,78.136v367.082
	C259.896,478.608,263.791,477.272,266.908,474.601z"/>
<path style="fill:#61DAF2;" d="M497.753,239.304c-5.009,11.242-11.353,22.372-18.809,33.391H333.133l-28.826,57.544
	c-2.783,5.677-8.57,9.238-14.916,9.238c-6.345,0-12.133-3.562-14.916-9.238L256,293.286l-33.391-66.783l-18.475,36.953
	c-2.783,5.677-8.57,9.238-14.916,9.238H33.057c-7.457-11.019-13.802-22.15-18.81-33.391h164.619l28.826-57.544
	c2.783-5.677,8.57-9.238,14.916-9.238c6.345,0,12.133,3.562,14.916,9.238L256,218.712l33.391,66.783l18.475-36.953
	c2.783-5.677,8.57-9.238,14.916-9.238H497.753z"/>
<path style="fill:#45C7E6;" d="M497.753,239.304c-5.009,11.242-11.353,22.372-18.809,33.391H333.133l-28.826,57.544
	c-2.783,5.677-8.57,9.238-14.916,9.238c-6.345,0-12.133-3.562-14.916-9.238L256,293.286v-74.574l33.391,66.783l18.475-36.953
	c2.783-5.677,8.57-9.238,14.916-9.238H497.753z"/>
<g>
</g>
<g>
</g>
<g>
</g>
<g>
</g>
<g>
</g>
<g>
</g>
<g>
</g>
<g>
</g>
<g>
</g>
<g>
</g>
<g>
</g>
<g>
</g>
<g>
</g>
<g>
</g>
<g>
</g>
</svg>
