<?xml version="1.0" encoding="iso-8859-1"?>
<!-- Generator: Adobe Illustrator 19.0.0, SVG Export Plug-In . SVG Version: 6.00 Build 0)  -->
<svg version="1.1" id="Layer_1" xmlns="http://www.w3.org/2000/svg" xmlns:xlink="http://www.w3.org/1999/xlink" x="0px" y="0px"
	 viewBox="0 0 512 512" style="enable-background:new 0 0 512 512;" xml:space="preserve">
<path style="fill:#736056;" d="M389.565,512h-267.13c-27.619,0-50.087-22.468-50.087-50.087v-244.87
	c0-40.316,28.729-74.043,66.783-81.799V83.478c0-9.223,7.473-16.696,16.696-16.696h200.348c9.223,0,16.696,7.473,16.696,16.696
	v51.767c38.054,7.756,66.783,41.484,66.783,81.799v244.87C439.652,489.532,417.184,512,389.565,512z"/>
<path style="fill:#665247;" d="M372.87,135.245V83.478c0-9.223-7.473-16.696-16.696-16.696H256V512h133.565
	c27.619,0,50.087-22.468,50.087-50.087v-244.87C439.652,176.728,410.923,143,372.87,135.245z"/>
<path style="fill:#FFC033;" d="M372.87,100.174H139.13c-18.413,0-33.391-14.978-33.391-33.391V33.391
	C105.739,14.978,120.717,0,139.13,0H372.87c18.413,0,33.391,14.978,33.391,33.391v33.391
	C406.261,85.196,391.283,100.174,372.87,100.174z"/>
<path style="fill:#F9A926;" d="M372.87,0H256v100.174h116.87c18.413,0,33.391-14.978,33.391-33.391V33.391
	C406.261,14.978,391.283,0,372.87,0z"/>
<path style="fill:#FFC033;" d="M256,464.135c-1.478,0-2.979-0.196-4.457-0.603c-7.234-2.006-12.239-8.587-12.239-16.092v-83.478
	h-83.478c-6.016,0-11.566-3.233-14.527-8.467c-2.967-5.239-2.886-11.664,0.211-16.82l100.174-166.957
	c3.864-6.423,11.538-9.484,18.771-7.5c7.234,2.006,12.239,8.587,12.239,16.092v83.478h83.478c6.016,0,11.566,3.233,14.527,8.467
	c2.967,5.239,2.886,11.664-0.211,16.82L270.315,456.032C267.245,461.145,261.756,464.135,256,464.135z"/>
<path style="fill:#F9A926;" d="M356.174,263.787h-83.478v-83.478c0-7.505-5.005-14.087-12.239-16.092
	c-1.481-0.406-2.975-0.467-4.457-0.465v300.384c5.756,0,11.245-2.99,14.315-8.103l100.174-166.957
	c3.098-5.158,3.179-11.581,0.211-16.82C367.74,267.02,362.19,263.787,356.174,263.787z"/>
<g>
</g>
<g>
</g>
<g>
</g>
<g>
</g>
<g>
</g>
<g>
</g>
<g>
</g>
<g>
</g>
<g>
</g>
<g>
</g>
<g>
</g>
<g>
</g>
<g>
</g>
<g>
</g>
<g>
</g>
</svg>
