<?xml version="1.0" encoding="iso-8859-1"?>
<!-- Generator: Adobe Illustrator 19.0.0, SVG Export Plug-In . SVG Version: 6.00 Build 0)  -->
<svg version="1.1" id="Layer_1" xmlns="http://www.w3.org/2000/svg" xmlns:xlink="http://www.w3.org/1999/xlink" x="0px" y="0px"
	 viewBox="0 0 511.988 511.988" style="enable-background:new 0 0 511.988 511.988;" xml:space="preserve">
<path style="fill:#F6BB42;" d="M11.655,43.654c0,0-106.06,403.038,321.712,321.727C414.678-62.406,11.655,43.654,11.655,43.654z"/>
<g style="opacity:0.1;">
	<path d="M23.967,40.88c-7.858,1.602-12.312,2.773-12.312,2.773S-94.405,446.691,333.367,365.38
		c0.828-4.312,1.594-8.578,2.312-12.781C-33.375,415.99,10.499,107.145,23.967,40.88z"/>
</g>
<path style="fill:#434A54;" d="M31.334,52.661c0,5.891-4.773,10.664-10.663,10.664c-5.891,0-10.672-4.773-10.672-10.664
	s4.781-10.664,10.672-10.664C26.56,41.997,31.334,46.771,31.334,52.661z"/>
<path style="opacity:0.1;enable-background:new    ;" d="M127.996,298.648c0,5.891-4.773,10.672-10.664,10.672
	c-5.89,0-10.671-4.781-10.671-10.672s4.781-10.656,10.671-10.656C123.223,287.992,127.996,292.758,127.996,298.648z"/>
<path style="opacity:0.1;enable-background:new    ;" d="M149.332,319.992c0,5.891-4.781,10.656-10.672,10.656
	s-10.664-4.766-10.664-10.656s4.773-10.672,10.664-10.672S149.332,314.101,149.332,319.992z"/>
<path style="opacity:0.1;enable-background:new    ;" d="M170.66,298.648c0,5.891-4.773,10.672-10.664,10.672
	s-10.664-4.766-10.664-10.672c0-5.891,4.773-10.656,10.664-10.656S170.66,292.758,170.66,298.648z"/>
<path style="fill:#E6E9ED;" d="M351.992,469.316c-39.891,0-77.39-15.531-105.584-43.732
	c-28.211-28.203-43.741-65.703-43.741-105.592c0-39.891,15.53-77.389,43.741-105.6c28.194-28.203,65.693-43.733,105.584-43.733
	c39.889,0,77.389,15.53,105.592,43.733c28.201,28.211,43.732,65.709,43.732,105.6c0,39.889-15.531,77.389-43.732,105.592
	C429.381,453.785,391.881,469.316,351.992,469.316z"/>
<g>
	<path style="fill:#FFCE54;" d="M351.992,159.988c-88.357,0-159.989,71.631-159.989,160.004
		c0,88.357,71.632,159.996,159.989,159.996s159.996-71.639,159.996-159.996C511.988,231.619,440.349,159.996,351.992,159.988z
		 M450.037,418.037c-12.734,12.734-27.562,22.748-44.078,29.717c-17.077,7.234-35.233,10.891-53.967,10.891
		s-36.891-3.656-53.969-10.891c-16.499-6.969-31.334-16.982-44.076-29.717s-22.742-27.578-29.727-44.078
		c-7.219-17.094-10.883-35.248-10.883-53.967c0-18.734,3.664-36.891,10.883-53.977c6.984-16.506,16.984-31.334,29.727-44.076
		c12.743-12.742,27.577-22.742,44.076-29.727c17.078-7.227,35.234-10.891,53.969-10.891c18.733,0,36.89,3.664,53.967,10.891
		c16.516,6.984,31.344,16.984,44.078,29.727c12.749,12.742,22.749,27.57,29.733,44.076c7.218,17.086,10.89,35.242,10.89,53.977
		c0,18.719-3.672,36.873-10.89,53.967C472.786,390.459,462.786,405.303,450.037,418.037z"/>
	<path style="fill:#FFCE54;" d="M351.992,437.316c-64.702,0-117.326-52.639-117.326-117.324
		c0-64.702,52.624-117.334,117.326-117.334c64.701,0,117.325,52.632,117.325,117.334
		C469.317,384.678,416.693,437.316,351.992,437.316z"/>
</g>
<path style="fill:#F6BB42;" d="M351.992,191.986c-70.687,0-127.99,57.312-127.99,128.006c0,70.686,57.304,127.996,127.99,127.996
	s127.997-57.311,127.997-127.996C479.989,249.299,422.678,191.986,351.992,191.986z M362.664,213.846
	c20.937,2.062,40.576,10.203,56.842,23.547l-56.842,56.85V213.846z M341.32,294.242l-56.843-56.85
	c16.28-13.344,35.905-21.484,56.843-23.547V294.242z M326.242,309.32h-80.381c2.062-20.938,10.195-40.578,23.539-56.842
	L326.242,309.32z M326.242,330.648L269.4,387.49c-13.344-16.266-21.477-35.891-23.539-56.842H326.242z M341.32,345.742v80.389
	c-20.938-2.062-40.562-10.203-56.843-23.547L341.32,345.742z M362.664,345.742l56.842,56.842
	c-16.266,13.344-35.905,21.484-56.842,23.547V345.742z M377.741,330.648h80.389c-2.062,20.951-10.202,40.576-23.546,56.842
	L377.741,330.648z M377.741,309.32l56.843-56.842c13.344,16.264,21.484,35.904,23.546,56.842H377.741z"/>
<g>
	<path style="fill:#E6E9ED;" d="M373.319,319.992c0,11.781-9.546,21.328-21.327,21.328s-21.328-9.547-21.328-21.328
		s9.547-21.344,21.328-21.344S373.319,308.211,373.319,319.992z"/>
	<path style="fill:#E6E9ED;" d="M447.974,277.32c0,5.891-4.766,10.672-10.656,10.672s-10.672-4.781-10.672-10.672
		s4.781-10.664,10.672-10.664C443.209,266.648,447.974,271.43,447.974,277.32z"/>
	<path style="fill:#E6E9ED;" d="M341.32,383.99c0,5.891-4.781,10.656-10.672,10.656s-10.656-4.766-10.656-10.656
		s4.766-10.672,10.656-10.672S341.32,378.099,341.32,383.99z"/>
</g>
<path style="opacity:0.2;fill:#FFFFFF;enable-background:new    ;" d="M351.992,159.988c-7.234,0-14.344,0.492-21.328,1.422
	c78.264,10.429,138.653,77.443,138.653,158.582c0,81.123-60.39,148.137-138.653,158.574c6.984,0.922,14.094,1.422,21.328,1.422
	c88.357,0,159.996-71.639,159.996-159.996C511.988,231.619,440.349,159.996,351.992,159.988z"/>
<g>
</g>
<g>
</g>
<g>
</g>
<g>
</g>
<g>
</g>
<g>
</g>
<g>
</g>
<g>
</g>
<g>
</g>
<g>
</g>
<g>
</g>
<g>
</g>
<g>
</g>
<g>
</g>
<g>
</g>
</svg>
