<?xml version="1.0" encoding="iso-8859-1"?>
<!-- Generator: Adobe Illustrator 19.0.0, SVG Export Plug-In . SVG Version: 6.00 Build 0)  -->
<svg version="1.1" id="Layer_1" xmlns="http://www.w3.org/2000/svg" xmlns:xlink="http://www.w3.org/1999/xlink" x="0px" y="0px"
	 viewBox="0 0 512 512" style="enable-background:new 0 0 512 512;" xml:space="preserve">
<path style="fill:#EDF0F2;" d="M448.017,158.39l-47.207,47.207c-6.488,6.487-17.064,6.541-23.603,0l-70.81-70.81
	c-6.57-6.569-6.57-17.146,0-23.603l47.207-47.207L448.017,158.39z"/>
<path style="fill:#DAE1E6;" d="M448.017,158.39l-47.207-47.207l-59.008,59.009l35.404,35.405c6.54,6.541,17.115,6.486,23.603,0
	L448.017,158.39z"/>
<path style="fill:#61DAF2;" d="M75.704,507.103L4.889,436.295c-6.493-6.493-6.535-17.086,0.011-23.632l47.318-47.209
	c6.523-6.502,17.081-6.508,23.605,0.017l70.815,70.809c6.493,6.493,6.535,17.086-0.011,23.632l-47.318,47.209
	C92.774,513.633,82.229,513.627,75.704,507.103z"/>
<path style="fill:#45C7E6;" d="M75.704,507.103c6.523,6.523,17.07,6.529,23.605,0.017l47.318-47.209
	c6.547-6.547,6.504-17.139,0.011-23.632l-35.463-35.46l-70.879,70.879L75.704,507.103z"/>
<path style="fill:#37BDD9;" d="M134.833,471.704l-94.431-94.424L318.197,99.367l94.418,94.425L134.833,471.704z"/>
<polygon style="fill:#33A3BF;" points="134.833,471.703 412.616,193.792 365.412,146.584 87.56,424.434 "/>
<path style="fill:#61DAF2;" d="M511.925,18.105c-0.223,3.451-8.016,84.393-63.907,140.285l-94.414-94.414
	C409.495,8.085,490.437,0.291,493.888,0.067c5.011-0.445,9.798,1.337,13.25,4.789C510.7,8.307,512.37,13.206,511.925,18.105z"/>
<path style="fill:#45C7E6;" d="M448.017,158.39c55.891-55.891,63.685-136.833,63.907-140.285c0.445-4.899-1.225-9.798-4.786-13.249
	L400.812,111.183L448.017,158.39z"/>
<g>
</g>
<g>
</g>
<g>
</g>
<g>
</g>
<g>
</g>
<g>
</g>
<g>
</g>
<g>
</g>
<g>
</g>
<g>
</g>
<g>
</g>
<g>
</g>
<g>
</g>
<g>
</g>
<g>
</g>
</svg>
