<?xml version="1.0" encoding="iso-8859-1"?>
<!-- Generator: Adobe Illustrator 19.0.0, SVG Export Plug-In . SVG Version: 6.00 Build 0)  -->
<svg version="1.1" id="Layer_1" xmlns="http://www.w3.org/2000/svg" xmlns:xlink="http://www.w3.org/1999/xlink" x="0px" y="0px"
	 viewBox="0 0 512 512" style="enable-background:new 0 0 512 512;" xml:space="preserve">
<path style="fill:#A8EAEF;" d="M134.763,459.749L27.771,510.351c0,0-12.243,5.698-22.03-4.088c-9.786-9.789-4.09-22.03-4.09-22.03
	L52.252,377.24l19.179-19.179l82.51,82.51L134.763,459.749z"/>
<path style="fill:#80CDD8;" d="M134.763,459.749L27.771,510.351c0,0-12.243,5.698-22.03-4.088l106.944-106.948l41.256,41.256
	L134.763,459.749z"/>
<rect x="204.222" y="-24.959" transform="matrix(0.7071 0.7071 -0.7071 0.7071 247.4165 -126.7582)" style="fill:#5293A9;" width="144.994" height="520.475"/>
<rect x="266.104" y="0.678" transform="matrix(0.7071 0.7071 -0.7071 0.7071 273.0516 -137.3732)" style="fill:#3A7484;" width="72.492" height="520.475"/>
<g>
	
		<rect x="342.686" y="80.662" transform="matrix(-0.7071 -0.7071 0.7071 -0.7071 639.4823 459.6521)" style="fill:#E9E9E9;" width="144.505" height="33.447"/>
	
		<rect x="64.705" y="358.068" transform="matrix(-0.7071 -0.7071 0.7071 -0.7071 -30.8081 736.8223)" style="fill:#E9E9E9;" width="144.983" height="33.447"/>
</g>
<g>
	
		<rect x="404.167" y="106.128" transform="matrix(-0.7071 -0.7071 0.7071 -0.7071 664.9622 521.1385)" style="fill:#D4D4D4;" width="72.492" height="33.447"/>
	
		<rect x="126.588" y="383.707" transform="matrix(-0.7071 -0.7071 0.7071 -0.7071 -5.1717 798.7181)" style="fill:#D4D4D4;" width="72.492" height="33.447"/>
</g>
<g>
</g>
<g>
</g>
<g>
</g>
<g>
</g>
<g>
</g>
<g>
</g>
<g>
</g>
<g>
</g>
<g>
</g>
<g>
</g>
<g>
</g>
<g>
</g>
<g>
</g>
<g>
</g>
<g>
</g>
</svg>
