<svg id="Layer_1" enable-background="new 0 0 65 65" height="512" viewBox="0 0 65 65" width="512" xmlns="http://www.w3.org/2000/svg"><g><path d="m52.1.5h-39.2c-1.6 0-3 1.3-3 3v58.1c0 1.6 1.3 3 3 3h39.2c1.6 0 3-1.3 3-3v-58.1c-.1-1.7-1.4-3-3-3z" fill="#788d9a"/><path d="m52.1.5h-39.2c-1.6 0-3 1.3-3 3v.6c0-1.6 1.3-3 3-3h39.2c1.6 0 3 1.3 3 3v-.6c-.1-1.7-1.4-3-3-3z" fill="#899ca5"/><path d="m10 4.5h45.1v53.3h-45.1z" fill="#eff3f5"/><path d="m34.5 2.3h-3.9c-.2 0-.4.2-.4.4s.2.4.4.4h3.9c.2 0 .4-.2.4-.4s-.2-.4-.4-.4z" fill="#899ca5"/><circle cx="32.5" cy="61" fill="#899ca5" r="2.2"/><path d="m47.3 24.7c0 8.2-14.8 27.6-14.8 27.6s-14.8-19.4-14.8-27.6 6.6-14.8 14.8-14.8 14.8 6.7 14.8 14.8z" fill="#f1786b"/><circle cx="32.5" cy="24.7" fill="#eff3f5" r="9.2"/></g></svg>