<?xml version="1.0" encoding="iso-8859-1"?>
<!-- Generator: Adobe Illustrator 19.0.0, SVG Export Plug-In . SVG Version: 6.00 Build 0)  -->
<svg version="1.1" id="Layer_1" xmlns="http://www.w3.org/2000/svg" xmlns:xlink="http://www.w3.org/1999/xlink" x="0px" y="0px"
	 viewBox="0 0 512.001 512.001" style="enable-background:new 0 0 512.001 512.001;" xml:space="preserve">
<path style="fill:#FED159;" d="M342.514,71.517c24.839,0.429,49.536,10.13,68.492,29.086s28.657,43.653,29.096,68.502"/>
<path style="fill:#72C5D5;" d="M17.315,410.696L245.851,182.16l83.604,83.604L100.92,494.3c-23.087,23.087-60.517,23.087-83.604,0
	l0,0C-5.771,471.213-5.771,433.782,17.315,410.696z"/>
<g>
	<polygon style="fill:#5CB1BC;" points="378.951,262.349 303.564,291.654 219.961,208.05 249.267,132.664 335.281,170.115 	"/>
	<path style="fill:#5CB1BC;" d="M45.627,434.912l200.597-200.597l-26.264-26.264L17.315,410.696
		c-23.087,23.087-23.087,60.517,0,83.604l0,0c5.755,5.755,12.403,10.075,19.497,12.96C23.069,484.527,26.001,454.538,45.627,434.912
		z"/>
	<path style="fill:#5CB1BC;" d="M151.013,452.853c-2.214,0-4.427-0.844-6.116-2.533l-83.604-83.604
		c-3.378-3.378-3.378-8.854,0-12.23c3.38-3.379,8.855-3.378,12.231,0l83.604,83.604c3.378,3.378,3.378,8.854,0,12.23
		C155.44,452.009,153.226,452.853,151.013,452.853z"/>
	<path style="fill:#5CB1BC;" d="M180.453,423.414c-2.213,0-4.427-0.844-6.116-2.533l-83.604-83.604
		c-3.378-3.378-3.378-8.854,0-12.23c3.379-3.378,8.854-3.378,12.231,0l83.604,83.604c3.378,3.378,3.378,8.854,0,12.23
		C184.88,422.57,182.666,423.414,180.453,423.414z"/>
	<path style="fill:#5CB1BC;" d="M209.894,393.974c-2.214,0-4.427-0.844-6.116-2.533l-83.605-83.604
		c-3.378-3.378-3.378-8.854,0-12.23c3.379-3.378,8.854-3.378,12.231,0l83.605,83.604c3.378,3.378,3.378,8.854,0,12.23
		C214.32,393.13,212.107,393.974,209.894,393.974z"/>
</g>
<g>
	<path style="fill:#FED159;" d="M430.97,88.133c-1.918,0-3.836-0.732-5.3-2.196c-2.928-2.928-2.928-7.673-0.001-10.6l33.39-33.391
		c2.928-2.927,7.674-2.927,10.6,0c2.928,2.928,2.928,7.673,0.001,10.6l-33.39,33.391C434.806,87.402,432.888,88.133,430.97,88.133z"
		/>
	<path style="fill:#FED159;" d="M385.888,60.089c-0.8,0-1.613-0.129-2.414-0.401c-3.919-1.332-6.017-5.589-4.685-9.509L393.99,5.471
		c1.333-3.92,5.592-6.016,9.509-4.684c3.919,1.332,6.017,5.589,4.685,9.509l-15.201,44.709
		C391.922,58.124,389.008,60.089,385.888,60.089z"/>
	<path style="fill:#FED159;" d="M459.57,134.878c-3.164,0-6.105-2.018-7.131-5.191c-1.273-3.939,0.887-8.164,4.826-9.438
		l44.932-14.53c3.941-1.274,8.165,0.888,9.438,4.826c1.273,3.939-0.887,8.164-4.826,9.438l-44.932,14.53
		C461.112,134.76,460.333,134.878,459.57,134.878z"/>
</g>
<polygon style="fill:#72C5D5;" points="460.86,188.707 392.629,276.022 235.595,118.988 322.899,50.757 354.137,81.995 "/>
<polygon style="fill:#5CB1BC;" points="354.137,81.995 278.203,161.596 235.595,118.988 322.899,50.757 "/>
<g>
</g>
<g>
</g>
<g>
</g>
<g>
</g>
<g>
</g>
<g>
</g>
<g>
</g>
<g>
</g>
<g>
</g>
<g>
</g>
<g>
</g>
<g>
</g>
<g>
</g>
<g>
</g>
<g>
</g>
</svg>
