<?xml version="1.0" encoding="iso-8859-1"?>
<!-- Generator: Adobe Illustrator 19.0.0, SVG Export Plug-In . SVG Version: 6.00 Build 0)  -->
<svg version="1.1" id="Layer_1" xmlns="http://www.w3.org/2000/svg" xmlns:xlink="http://www.w3.org/1999/xlink" x="0px" y="0px"
	 viewBox="0 0 512 512" style="enable-background:new 0 0 512 512;" xml:space="preserve">
<polygon style="fill:#EEBA7D;" points="107.474,512 0,404.526 127.255,326.967 185.046,384.757 "/>
<g>
	<polygon style="fill:#E68D2C;" points="107.474,512 53.737,458.263 156.138,355.849 185.046,384.757 	"/>
	
		<rect x="19.204" y="402.618" transform="matrix(-0.7071 0.7071 -0.7071 -0.7071 366.4845 675.694)" style="fill:#E68D2C;" width="48.194" height="22.261"/>
</g>
<rect x="74.142" y="457.555" transform="matrix(-0.7071 0.7071 -0.7071 -0.7071 499.1146 730.6299)" style="fill:#E06B34;" width="48.194" height="22.261"/>
<rect x="46.671" y="430.094" transform="matrix(-0.7071 0.7071 -0.7071 -0.7071 432.8019 703.1753)" style="fill:#E68D2C;" width="48.194" height="22.261"/>
<rect x="50.597" y="439.582" transform="matrix(-0.7071 0.7071 -0.7071 -0.7071 442.278 707.0972)" style="fill:#E06B34;" width="48.194" height="11.13"/>
<path style="fill:#80CDD8;" d="M183.145,387.999c24.195-6.99,81.881-52.543,81.881-52.543
	C358.58,241.901,539.619,34.752,508.434,3.566S270.086,153.408,176.532,246.961c0,0-45.54,57.699-52.53,81.894L183.145,387.999z"/>
<path style="fill:#5293A9;" d="M265.027,335.456C358.58,241.901,539.619,34.752,508.434,3.566c-0.002-0.002-0.004-0.004-0.007-0.006
	L153.567,358.421l29.578,29.578C207.34,381.009,265.027,335.456,265.027,335.456z"/>
<path style="fill:#E68D2C;" d="M176.532,246.961c0,0-4.192,5.313-10.224,13.382l85.339,85.339
	c8.068-6.034,13.38-10.227,13.38-10.227c3.777-3.777,7.697-7.74,11.738-11.867l-88.366-88.366
	C184.272,239.264,180.309,243.185,176.532,246.961z"/>
<path style="fill:#E06B34;" d="M265.027,335.456c3.777-3.777,7.697-7.74,11.738-11.867l-44.182-44.182l-23.607,23.607l42.671,42.671
	C259.715,339.649,265.027,335.456,265.027,335.456z"/>
<g>
</g>
<g>
</g>
<g>
</g>
<g>
</g>
<g>
</g>
<g>
</g>
<g>
</g>
<g>
</g>
<g>
</g>
<g>
</g>
<g>
</g>
<g>
</g>
<g>
</g>
<g>
</g>
<g>
</g>
</svg>
