<?xml version="1.0" encoding="iso-8859-1"?>
<!-- Generator: Adobe Illustrator 19.0.0, SVG Export Plug-In . SVG Version: 6.00 Build 0)  -->
<svg version="1.1" id="Layer_1" xmlns="http://www.w3.org/2000/svg" xmlns:xlink="http://www.w3.org/1999/xlink" x="0px" y="0px"
	 viewBox="0 0 511.988 511.988" style="enable-background:new 0 0 511.988 511.988;" xml:space="preserve">
<path style="fill:#FFCE54;" d="M234.853,75.494L0,267.49v170.66l511.988-63.998v-170.66
	C490.66,49.495,234.853,75.494,234.853,75.494z"/>
<path style="fill:#F6BB42;" d="M234.853,75.494L0,267.49l511.988-63.998C490.66,49.495,234.853,75.494,234.853,75.494z"/>
<path style="opacity:0.1;enable-background:new    ;" d="M213.526,96.83c0,0,235.073-23.89,273.306,109.811l25.156-3.148
	C490.66,49.495,234.853,75.494,234.853,75.494L0,267.49l5.624-0.703L213.526,96.83z"/>
<g style="opacity:0.1;">
	<path d="M170.668,342.153c0,17.687-14.328,31.999-32,31.999c-17.671,0-31.999-14.312-31.999-31.999
		c0-17.672,14.328-31.999,31.999-31.999C156.34,310.154,170.668,324.481,170.668,342.153z"/>
</g>
<g style="opacity:0.1;">
	<path d="M426.662,267.49c0,23.57-19.109,42.664-42.671,42.664S341.32,291.06,341.32,267.49c0-23.562,19.109-42.663,42.671-42.663
		S426.662,243.929,426.662,267.49z"/>
</g>
<g style="opacity:0.1;">
	<path d="M245.322,192.828c-17.671,0-31.999-11.938-31.999-26.664c0-14.734,14.328-26.671,31.999-26.671
		c17.672,0,31.999,11.938,31.999,26.671C277.321,180.89,262.994,192.828,245.322,192.828z"/>
</g>
<path style="opacity:0.1;enable-background:new    ;" d="M383.991,171.493c0,5.89-4.781,10.671-10.672,10.671
	s-10.655-4.781-10.655-10.671c0-5.891,4.765-10.664,10.655-10.664S383.991,165.602,383.991,171.493z"/>
<path style="opacity:0.1;enable-background:new    ;" d="M298.664,107.494c0,5.891-4.78,10.671-10.671,10.671
	s-10.672-4.781-10.672-10.671s4.781-10.664,10.672-10.664S298.664,101.603,298.664,107.494z"/>
<path style="opacity:0.1;enable-background:new    ;" d="M170.668,214.163c0,5.891-4.781,10.664-10.672,10.664
	s-10.672-4.773-10.672-10.664c0-5.89,4.781-10.671,10.672-10.671S170.668,208.273,170.668,214.163z"/>
<path style="opacity:0.1;enable-background:new    ;" d="M31.999,344.825c0,5.89-4.781,10.671-10.672,10.671
	s-10.656-4.781-10.656-10.671c0-5.891,4.766-10.672,10.656-10.672S31.999,338.934,31.999,344.825z"/>
<path style="opacity:0.1;enable-background:new    ;" d="M298.664,342.153c0,5.89-4.78,10.671-10.671,10.671
	s-10.672-4.781-10.672-10.671c0-5.891,4.781-10.656,10.672-10.656S298.664,336.263,298.664,342.153z"/>
<path style="opacity:0.1;enable-background:new    ;" d="M469.317,342.153c0,5.89-4.766,10.671-10.656,10.671
	s-10.671-4.781-10.671-10.671c0-5.891,4.781-10.656,10.671-10.656C464.552,331.497,469.317,336.263,469.317,342.153z"/>
<path style="opacity:0.1;enable-background:new    ;" d="M213.323,299.498c0,5.891-4.766,10.656-10.656,10.656
	s-10.672-4.766-10.672-10.656s4.781-10.672,10.672-10.672S213.323,293.607,213.323,299.498z"/>
<polygon style="opacity:0.1;enable-background:new    ;" points="486.832,206.64 486.832,377.308 511.988,374.152 511.988,203.492 
	"/>
<g>
</g>
<g>
</g>
<g>
</g>
<g>
</g>
<g>
</g>
<g>
</g>
<g>
</g>
<g>
</g>
<g>
</g>
<g>
</g>
<g>
</g>
<g>
</g>
<g>
</g>
<g>
</g>
<g>
</g>
</svg>
