<?xml version="1.0" encoding="iso-8859-1"?>
<!-- Generator: Adobe Illustrator 19.0.0, SVG Export Plug-In . SVG Version: 6.00 Build 0)  -->
<svg version="1.1" id="Layer_1" xmlns="http://www.w3.org/2000/svg" xmlns:xlink="http://www.w3.org/1999/xlink" x="0px" y="0px"
	 viewBox="0 0 512 512" style="enable-background:new 0 0 512 512;" xml:space="preserve">
<path style="fill:#E68D2C;" d="M0,0v512L512,0H0z M107.163,107.163h146.124L107.163,253.287V107.163z"/>
<polygon style="fill:#E06B34;" points="0,0 0,0 107.163,107.163 253.286,107.163 180.225,180.225 256,256 512,0 "/>
<g>
	<rect x="382.186" y="0" style="fill:#F7F7F8;" width="33.391" height="55.964"/>
	<rect x="325.632" y="0" style="fill:#F7F7F8;" width="33.391" height="44.655"/>
	<rect x="269.078" y="0" style="fill:#F7F7F8;" width="33.391" height="44.655"/>
	<rect x="212.525" y="0" style="fill:#F7F7F8;" width="33.391" height="55.964"/>
	<rect x="155.971" y="0" style="fill:#F7F7F8;" width="33.391" height="44.655"/>
	<rect x="99.417" y="0" style="fill:#F7F7F8;" width="33.391" height="44.655"/>
	<rect x="42.857" y="0" style="fill:#F7F7F8;" width="33.391" height="55.964"/>
</g>
<polygon style="fill:#EEBA7D;" points="207.314,417.355 181.816,512 276.462,486.501 458.485,304.479 389.338,235.331 "/>
<polygon style="fill:#E68D2C;" points="181.816,512 276.462,486.501 458.485,304.479 423.911,269.905 "/>
<path style="fill:#80CDD8;" d="M423.911,269.905l-34.573-34.573L224.601,400.068c-9.548,9.548-9.548,25.027,0,34.573
	c9.548,9.548,25.027,9.548,34.573,0c-9.548,9.548-9.548,25.027,0,34.573c9.548,9.548,25.027,9.548,34.573,0l164.737-164.736
	L423.911,269.905z"/>
<path style="fill:#5293A9;" d="M293.749,469.215c-9.548,9.548-25.027,9.548-34.573,0c-9.548-9.548-9.548-25.027,0-34.573
	l164.736-164.736l34.573,34.573L293.749,469.215z"/>
<path style="fill:#E06B34;" d="M504.712,223.059l-33.955-33.954c-9.718-9.718-25.474-9.718-35.193,0l-26.328,26.328l69.147,69.147
	l26.328-26.328C514.43,248.534,514.43,232.778,504.712,223.059z"/>
<path style="fill:#D1393C;" d="M504.712,223.059l-16.977-16.977c-8.862,8.862-43.924,43.924-43.924,43.924l34.573,34.573
	l26.328-26.328C514.43,248.534,514.43,232.778,504.712,223.059z"/>
<rect x="378.132" y="233.942" transform="matrix(-0.7071 -0.7071 0.7071 -0.7071 562.8099 748.0561)" style="fill:#AAAAAA;" width="116.401" height="47.048"/>
<g>
	
		<rect x="427.816" y="254.525" transform="matrix(-0.7071 -0.7071 0.7071 -0.7071 583.3951 797.7477)" style="fill:#818181;" width="58.2" height="47.048"/>
	<polygon style="fill:#818181;" points="181.816,512 233.505,498.075 195.742,460.31 	"/>
</g>
<polygon style="fill:#595959;" points="181.816,512 233.505,498.075 214.624,479.192 "/>
<g>
</g>
<g>
</g>
<g>
</g>
<g>
</g>
<g>
</g>
<g>
</g>
<g>
</g>
<g>
</g>
<g>
</g>
<g>
</g>
<g>
</g>
<g>
</g>
<g>
</g>
<g>
</g>
<g>
</g>
</svg>
