<?xml version="1.0" encoding="iso-8859-1"?>
<!-- Generator: Adobe Illustrator 19.0.0, SVG Export Plug-In . SVG Version: 6.00 Build 0)  -->
<svg xmlns="http://www.w3.org/2000/svg" xmlns:xlink="http://www.w3.org/1999/xlink" version="1.1" id="Capa_1" x="0px" y="0px" viewBox="0 0 512 512" style="enable-background:new 0 0 512 512;" xml:space="preserve">
<polygon style="fill:#407069;" points="271,195 241,195 241,115 256,135 271,115 "/>
<path style="fill:#4BB3A4;" d="M256,135l59.611-82.111L391,0C391,74.554,330.554,135,256,135z"/>
<g>
	<path style="fill:#60D9CE;" d="M391,0L256,135C256,60.446,316.446,0,391,0z"/>
	<path style="fill:#60D9CE;" d="M256,135l-59.611-82.111L121,0C121,74.554,181.446,135,256,135z"/>
</g>
<path style="fill:#6AF7EF;" d="M121,0l135,135C256,60.446,195.554,0,121,0z"/>
<path style="fill:#FFD15E;" d="M256,512c91.676,0,166-74.324,166-166s-74.324-166-166-166l-77.467,166L256,512z"/>
<g>
	<path style="fill:#FFEA7C;" d="M90,346c0,91.676,74.324,166,166,166V180C164.324,180,90,254.324,90,346z"/>
	<path style="fill:#FFEA7C;" d="M256,482c75.108,0,136-60.892,136-136s-60.892-136-136-136l-63.467,136L256,482z"/>
</g>
<path style="fill:#FFFF66;" d="M120,346c0,75.108,60.892,136,136,136V210C180.892,210,120,270.892,120,346z"/>
<path style="fill:#FFFFC2;" d="M256,452c58.54,0,106-47.46,106-106s-47.46-106-106-106l-49.467,106L256,452z"/>
<path style="fill:#FFFFFF;" d="M150,346c0,58.54,47.46,106,106,106V240C197.46,240,150,287.46,150,346z"/>
<rect x="241" y="280" style="fill:#FFEA7C;" width="30" height="132"/>
<g>
</g>
<g>
</g>
<g>
</g>
<g>
</g>
<g>
</g>
<g>
</g>
<g>
</g>
<g>
</g>
<g>
</g>
<g>
</g>
<g>
</g>
<g>
</g>
<g>
</g>
<g>
</g>
<g>
</g>
</svg>
