<?xml version="1.0" encoding="iso-8859-1"?>
<!-- Generator: Adobe Illustrator 19.0.0, SVG Export Plug-In . SVG Version: 6.00 Build 0)  -->
<svg version="1.1" id="Capa_1" xmlns="http://www.w3.org/2000/svg" xmlns:xlink="http://www.w3.org/1999/xlink" x="0px" y="0px"
	 viewBox="0 0 468.32 468.32" style="enable-background:new 0 0 468.32 468.32;" xml:space="preserve">
<rect x="303.598" y="313.78" transform="matrix(-0.7071 0.7071 -0.7071 -0.7071 810.7674 335.8108)" style="fill:#44C4A1;" width="64.475" height="44.082"/>
<path style="fill:#3EA69B;" d="M328.647,374.242l84.636,84.636c12.59,12.59,33.002,12.59,45.592,0s12.59-33.002,0-45.592
	l-84.636-84.636L328.647,374.242z"/>
<ellipse style="fill:#31978C;" cx="190.653" cy="190.65" rx="190.621" ry="190.621"/>
<path style="fill:#E1E6E9;" d="M307.201,307.204c-64.27,64.27-168.841,64.268-233.109,0S9.824,138.368,74.094,74.098
	s168.839-64.27,233.107-0.002S371.471,242.934,307.201,307.204z"/>
<path style="fill:#27A2DB;" d="M186.362,72.29l-95.884,78.968c-4.884,4.022-2.04,11.949,4.287,11.949l191.765,0
	c6.327,0,9.171-7.927,4.287-11.949L194.936,72.29C192.446,70.24,188.852,70.24,186.362,72.29z"/>
<g>
	<rect x="122.406" y="163.206" style="fill:#2D93BA;" width="19.181" height="82.045"/>
	<rect x="161.499" y="163.206" style="fill:#2D93BA;" width="19.181" height="82.045"/>
	<rect x="200.617" y="163.206" style="fill:#2D93BA;" width="19.181" height="82.045"/>
	<rect x="239.735" y="163.206" style="fill:#2D93BA;" width="19.181" height="82.045"/>
	<path style="fill:#2D93BA;" d="M293.286,284.889H88.009v-7.341c0-6.897,5.591-12.488,12.488-12.488h180.301
		c6.897,0,12.488,5.591,12.488,12.488V284.889z"/>
</g>
<path style="fill:#27A2DB;" d="M280.529,265.06H100.766v-7.341c0-6.897,5.591-12.488,12.488-12.488h154.788
	c6.897,0,12.488,5.591,12.488,12.488V265.06z"/>
<circle style="fill:#2D93BA;" cx="190.651" cy="125.618" r="24.894"/>
<g>
</g>
<g>
</g>
<g>
</g>
<g>
</g>
<g>
</g>
<g>
</g>
<g>
</g>
<g>
</g>
<g>
</g>
<g>
</g>
<g>
</g>
<g>
</g>
<g>
</g>
<g>
</g>
<g>
</g>
</svg>
