<?xml version="1.0" encoding="iso-8859-1"?>
<!-- Generator: Adobe Illustrator 19.0.0, SVG Export Plug-In . SVG Version: 6.00 Build 0)  -->
<svg version="1.1" id="Capa_1" xmlns="http://www.w3.org/2000/svg" xmlns:xlink="http://www.w3.org/1999/xlink" x="0px" y="0px"
	 viewBox="0 0 512.032 512.032" style="enable-background:new 0 0 512.032 512.032;" xml:space="preserve">
<g>
	<path style="fill:#8CC63E;" d="M146.208,333.744c0,60.656,49.168,109.808,109.808,109.808
		C256.016,382.912,206.848,333.744,146.208,333.744z"/>
	<path style="fill:#8CC63E;" d="M365.824,360.144c0,60.656-49.168,109.808-109.808,109.808
		C256.016,409.312,305.184,360.144,365.824,360.144z"/>
</g>
<rect x="246.016" y="208.32" style="fill:#9A795F;" width="20" height="303.712"/>
<path style="fill:#BF3332;" d="M353.216,186.496C331.184,116.64,253.984,0,253.984,0s-77.2,116.64-99.232,186.496H353.216z"/>
<path style="fill:#D03F3E;" d="M341.536,161.632c33.744,47.232,22.8,112.864-24.416,146.608s-112.864,22.8-146.608-24.416
	S130.016,46.336,130.016,46.336S307.808,114.4,341.536,161.632z"/>
<path style="fill:#E14B4B;" d="M170.496,161.632c-33.744,47.232-22.8,112.864,24.416,146.608s112.864,22.8,146.608-24.416
	s40.496-237.472,40.496-237.472S204.224,114.4,170.496,161.632z"/>
<g>
</g>
<g>
</g>
<g>
</g>
<g>
</g>
<g>
</g>
<g>
</g>
<g>
</g>
<g>
</g>
<g>
</g>
<g>
</g>
<g>
</g>
<g>
</g>
<g>
</g>
<g>
</g>
<g>
</g>
</svg>
