<?xml version="1.0" encoding="iso-8859-1"?>
<!-- Generator: Adobe Illustrator 19.0.0, SVG Export Plug-In . SVG Version: 6.00 Build 0)  -->
<svg version="1.1" id="Capa_1" xmlns="http://www.w3.org/2000/svg" xmlns:xlink="http://www.w3.org/1999/xlink" x="0px" y="0px"
	 viewBox="0 0 512 512" style="enable-background:new 0 0 512 512;" xml:space="preserve">
<polygon style="fill:#E8EAEA;" points="255.211,168.085 63.659,168.085 16.117,512 302.752,512 "/>
<rect y="479.392" style="fill:#CDD6E0;" width="318.869" height="32.608"/>
<rect x="83.125" y="53.333" style="fill:#E8EAEA;" width="152.533" height="105.269"/>
<g>
	<rect x="109.749" y="80.021" style="fill:#54C0EB;" width="36.373" height="51.936"/>
	<rect x="172.789" y="80.021" style="fill:#54C0EB;" width="36.16" height="51.936"/>
</g>
<polygon style="fill:#FF7058;" points="159.424,0 62.176,53.333 256.672,53.333 "/>
<g>
	<path style="fill:#40596B;" d="M116.288,423.915V512h86.283v-88.085c0-23.829-19.317-43.125-43.147-43.125
		C135.605,380.789,116.288,400.085,116.288,423.915"/>
	<path style="fill:#40596B;" d="M187.904,294.912v-48.245c0-15.733-12.747-28.48-28.48-28.48s-28.48,12.747-28.48,28.48v48.245
		L187.904,294.912L187.904,294.912z"/>
</g>
<rect x="55.968" y="158.603" style="fill:#F2F2F2;" width="206.912" height="18.955"/>
<rect x="120.981" y="291.605" style="fill:#CDD6E0;" width="76.896" height="14.891"/>
<rect x="136.864" y="306.496" style="fill:#ACB3BA;" width="45.12" height="14.912"/>
<polygon style="fill:#FFD15C;" points="512,186.272 235.659,120.043 235.659,91.936 512,25.707 "/>
<g>
</g>
<g>
</g>
<g>
</g>
<g>
</g>
<g>
</g>
<g>
</g>
<g>
</g>
<g>
</g>
<g>
</g>
<g>
</g>
<g>
</g>
<g>
</g>
<g>
</g>
<g>
</g>
<g>
</g>
</svg>
