<?xml version="1.0" encoding="iso-8859-1"?>
<!-- Generator: Adobe Illustrator 19.0.0, SVG Export Plug-In . SVG Version: 6.00 Build 0)  -->
<svg version="1.1" id="Capa_1" xmlns="http://www.w3.org/2000/svg" xmlns:xlink="http://www.w3.org/1999/xlink" x="0px" y="0px"
	 viewBox="0 0 503.104 503.104" style="enable-background:new 0 0 503.104 503.104;" xml:space="preserve">
<circle style="fill:#3789C9;" cx="251.552" cy="251.552" r="243.248"/>
<path style="fill:#4B9FD8;" d="M347.248,148.608H189.344c-17.296,0-30.192-14.528-29.984-31.824c0-0.144,0-0.288,0-0.432
	s0-0.288,0-0.432c-0.208-17.296,12.688-31.824,29.984-31.824h29.584c19.376,0,36.752-14.512,37.76-33.856
	c1.088-20.64-15.328-37.712-35.744-37.712h-13.68C94.096,33.376,8.304,132.368,8.304,251.552s85.792,218.176,198.944,239.024h48.272
	c19.76,0,35.792-16.016,35.792-35.792c0-19.76-16.016-35.792-35.792-35.792h-47.856c-16.544,0-30.016-13.536-29.936-30.096v-0.384
	c0-0.736-0.016-1.456-0.064-2.192c-0.992-16.32,11.952-30.064,28.304-30.064h96.624c19.376,0,36.752-14.512,37.76-33.856
	c1.088-20.64-15.328-37.712-35.744-37.712h-52.832c-16.64,0-30.096-13.536-30-30.176l0.016-2.064v-0.432
	c-0.096-17.504,14.128-31.824,31.632-31.824H345.2c19.376,0,36.752-14.512,37.76-33.856
	C384.064,165.68,367.648,148.608,347.248,148.608z"/>
<path style="fill:#F3F3F3;" d="M251.552,0C112.848,0,0,112.848,0,251.552s112.848,251.552,251.552,251.552
	s251.552-112.848,251.552-251.552S390.256,0,251.552,0z M486.064,243.248H403.36c-0.928-47.056-9.648-90.832-24.176-127.952
	c13.92-8.24,27.088-17.84,39.344-28.768C458.672,127.136,483.92,182.288,486.064,243.248z M255.984,17.008
	c41.696,2.352,78.624,37.424,102.56,91.008c-31.472,16.128-66.432,24.832-102.56,25.504V17.008z M239.376,17.68v115.472
	c-33.36-1.712-65.6-10.16-94.816-25.152C167.008,57.776,200.848,23.68,239.376,17.68z M239.376,149.76v93.488h-123.04
	c0.896-44.128,8.752-85.184,21.856-119.904C169.408,139.152,203.792,148.064,239.376,149.76z M239.376,259.856v93.664
	c-35.552,1.696-69.904,10.624-101.12,26.448c-13.152-34.768-21.024-75.904-21.92-120.112H239.376z M239.376,370.128v115.296
	c-38.464-5.984-72.272-40-94.736-90.128C173.84,380.304,206.048,371.84,239.376,370.128z M255.984,486.096V369.76
	c36.096,0.688,71.04,9.392,102.48,25.52C334.512,448.752,297.632,483.744,255.984,486.096z M255.984,353.168v-93.312h130.784
	c-0.896,44.208-8.784,85.36-21.92,120.112C331.376,363.024,294.304,353.84,255.984,353.168z M255.984,243.248v-93.12
	c38.368-0.672,75.456-9.84,108.928-26.784c13.104,34.72,20.96,75.776,21.856,119.904L255.984,243.248L255.984,243.248z
	 M406.272,75.2c-10.56,9.296-21.792,17.568-33.664,24.736c-14.096-30.72-32.304-55.888-53.328-73.28
	C351.84,36.496,381.328,53.296,406.272,75.2z M130.496,99.936C118.64,92.768,107.408,84.48,96.848,75.2
	c24.944-21.904,54.416-38.704,86.976-48.528C162.8,44.064,144.592,69.216,130.496,99.936z M84.576,86.512
	C96.832,97.456,110,107.056,123.904,115.28c-14.528,37.12-23.248,80.912-24.176,127.952H17.04
	C19.184,182.288,44.432,127.12,84.576,86.512z M17.04,259.856h82.704c0.944,47.136,9.68,91.008,24.256,128.176
	c-13.888,8.224-27.008,17.808-39.248,28.736C44.496,376.144,19.184,320.912,17.04,259.856z M97.024,428.064
	c10.528-9.264,21.744-17.536,33.568-24.688c14.08,30.624,32.256,55.712,53.232,73.072C151.344,466.64,121.92,449.904,97.024,428.064
	z M372.512,403.376c11.84,7.152,23.04,15.424,33.584,24.688c-24.896,21.824-54.336,38.576-86.816,48.384
	C340.256,459.088,358.432,434,372.512,403.376z M418.368,416.752c-12.24-10.928-25.376-20.512-39.264-28.736
	c14.576-37.168,23.312-81.024,24.256-128.176h82.704C483.92,320.896,458.608,376.128,418.368,416.752z"/>
<rect x="108.672" y="182.704" style="fill:#FEE218;" width="285.776" height="137.68"/>
<path style="fill:#F8D41F;" d="M108.656,182.704v65.152c0,11.824,9.584,21.392,21.392,21.392s21.392-9.584,21.392-21.392v-20.304
	c0-9.888,8.096-17.952,17.984-17.888h0.24c0.432,0,0.88-0.016,1.312-0.032c9.76-0.592,17.968,7.152,17.968,16.928v39.616
	c0,11.584,8.672,21.968,20.24,22.576c12.336,0.64,22.544-9.168,22.544-21.36v-21.76c0-9.952,8.096-18,18.048-17.936h1.232h0.256
	c10.464-0.064,19.024,8.448,19.024,18.912v4.352c0,11.584,8.672,21.968,20.24,22.576c12.336,0.64,22.544-9.168,22.544-21.36v-35.584
	c0-10.336,8.688-18.048,19.024-17.936c0.08,0,0.176,0,0.256,0c0.08,0,0.176,0,0.256,0c10.336-0.128,19.024,7.584,19.024,17.936
	v9.376c0,11.584,8.672,21.968,20.24,22.576c12.336,0.64,22.544-9.168,22.544-21.36v-44.48L108.656,182.704L108.656,182.704z"/>
<g>
	<path style="fill:#464646;" d="M146.752,281.744l-14.416-60.368h12.48l9.104,41.472l11.04-41.472h14.496l10.576,42.176
		l9.264-42.176h12.272l-14.656,60.368h-12.928l-12.016-45.136l-11.984,45.136L146.752,281.744L146.752,281.744z"/>
	<path style="fill:#464646;" d="M226.352,281.744l-14.416-60.368h12.48l9.104,41.472l11.04-41.472h14.496l10.576,42.176
		l9.264-42.176h12.272l-14.656,60.368h-12.928l-12.032-45.136l-11.984,45.136L226.352,281.744L226.352,281.744z"/>
	<path style="fill:#464646;" d="M305.952,281.744l-14.416-60.368h12.48l9.104,41.472l11.04-41.472h14.496l10.576,42.176
		l9.264-42.176h12.272l-14.656,60.368h-12.928l-12.016-45.136l-11.984,45.136L305.952,281.744L305.952,281.744z"/>
</g>
<g>
</g>
<g>
</g>
<g>
</g>
<g>
</g>
<g>
</g>
<g>
</g>
<g>
</g>
<g>
</g>
<g>
</g>
<g>
</g>
<g>
</g>
<g>
</g>
<g>
</g>
<g>
</g>
<g>
</g>
</svg>
