<svg id="Capa_1" enable-background="new 0 0 432.614 432.614" height="512" viewBox="0 0 432.614 432.614" width="512" xmlns="http://www.w3.org/2000/svg"><g><path d="m146.695 45.864c6.299-2.095 12.094 4.01 15.947 9.415 3.356 4.707 6.712 9.414 10.068 14.122 3.092 4.337 6.941 9.105 12.264 9.309 6.12.236 10.803-6.149 11.131-12.265.329-6.115-2.41-11.919-4.877-17.524-5.997-13.623-11.748-37.012 7.13-43.57 4.045-1.405 18.289-11.576 39.031.458 17.286 10.029 12.42 30.247 6.106 43.725-2.598 5.546-5.471 11.284-5.286 17.405s4.717 12.615 10.841 12.523c5.327-.08 9.286-4.755 12.479-9.019 3.466-4.627 6.931-9.254 10.397-13.882 3.979-5.314 9.915-11.281 16.164-9.039 6.183 2.219 7.04 10.471 6.825 17.037-.178 5.44-.382 11.004-2.373 16.07s-6.153 9.623-11.516 10.55c-1.578.272-3.304.263-4.592 1.213-1.772 1.308-1.977 3.838-3.031 5.771-2.254 4.137-7.847 4.853-12.552 4.612-1.659-.085-3.448-.195-4.848.7-1.395.892-2.06 2.597-2.267 4.24-.783 6.234 4.775 12.495 11.058 12.456 2.095-.013 4.721-.376 5.787 1.428.58.982.383 2.226.089 3.329-1.744 6.542-6.387 12.254-12.436 15.297-8.866 4.46-20.988 3.897-26.595 12.085-2.869 4.192-3.093 9.568-3.929 14.579s-2.865 10.482-7.521 12.514c-1.334.582-2.879.566-4.355.159-1.486.373-3.03.353-4.35-.261-4.607-2.141-6.507-7.658-7.225-12.687-.717-5.029-.815-10.409-3.586-14.667-5.413-8.318-17.545-8.039-26.304-12.706-5.976-3.184-10.484-9.003-12.074-15.585-.268-1.109-.436-2.357.167-3.326 1.107-1.778 3.725-1.353 5.819-1.292 6.281.186 11.984-5.942 11.348-12.193-.168-1.647-.793-3.367-2.167-4.292-1.378-.928-3.169-.86-4.83-.814-4.71.131-10.284-.716-12.44-4.905-1.008-1.958-1.154-4.492-2.895-5.841-1.266-.98-2.991-1.011-4.562-1.321-5.34-1.052-9.394-5.706-11.265-10.817-1.872-5.111-1.945-10.678-1.995-16.121-.064-6.567.987-14.797 7.22-16.87z" fill="#31978c"/><path d="m338.317 93.392c-5.254-4.058-12.739-.21-18.162 3.619-4.723 3.334-9.445 6.669-14.168 10.003-4.352 3.073-9.558 6.301-14.651 4.736-5.854-1.799-8.165-9.373-6.455-15.253 1.71-5.881 6.211-10.454 10.392-14.93 10.16-10.877 23.315-31.054 7.662-43.479-3.354-2.662-13.438-16.967-36.991-12.46-19.629 3.756-21.714 24.447-20.206 39.254.62 6.093 1.437 12.458-.759 18.175-2.197 5.717-8.619 10.348-14.369 8.239-5.001-1.835-7.194-7.556-8.799-12.635-1.743-5.512-3.485-11.024-5.228-16.537-2.001-6.33-5.632-13.923-12.271-13.87-6.569.052-10.104 7.558-12.07 13.826-1.628 5.193-3.274 10.513-3.068 15.952s2.628 11.116 7.385 13.762c1.399.778 3.031 1.339 3.933 2.662 1.241 1.819.599 4.276.955 6.449.761 4.65 5.803 7.172 10.324 8.499 1.594.468 3.319.955 4.345 2.262 1.022 1.303 1.087 3.132.739 4.751-1.321 6.143-8.634 10.216-14.552 8.104-1.973-.704-4.332-1.914-5.934-.564-.872.736-1.097 1.975-1.183 3.113-.515 6.751 1.981 13.676 6.685 18.546 6.895 7.138 18.523 10.611 21.11 20.192 1.324 4.904-.241 10.052-1.107 15.058s-.758 10.84 2.965 14.296c1.067.991 2.53 1.485 4.058 1.588 1.279.843 2.743 1.334 4.192 1.191 5.056-.499 8.672-5.079 11.01-9.588 2.338-4.51 4.208-9.555 8.229-12.659 7.856-6.063 19.216-1.793 29.024-3.304 6.692-1.031 12.869-5.035 16.544-10.722.619-.958 1.19-2.081.941-3.194-.458-2.044-3.069-2.508-5.066-3.141-5.99-1.899-9.348-9.567-6.683-15.257.703-1.499 1.861-2.916 3.463-3.335 1.608-.421 3.276.235 4.828.827 4.402 1.679 9.943 2.721 13.362-.521 1.598-1.515 2.573-3.859 4.662-4.557 1.518-.507 3.158.033 4.742.26 5.388.771 10.751-2.283 14.206-6.489s5.363-9.437 7.208-14.557c2.23-6.181 3.957-14.296-1.242-18.312z" fill="#3ea69b"/><path d="m94.297 93.392c5.254-4.058 12.739-.21 18.162 3.619 4.723 3.334 9.445 6.669 14.168 10.003 4.352 3.073 9.558 6.301 14.651 4.736 5.854-1.799 8.165-9.373 6.455-15.253-1.71-5.881-6.211-10.454-10.392-14.93-10.16-10.877-23.315-31.054-7.662-43.479 3.354-2.662 13.438-16.967 36.991-12.46 19.629 3.756 21.714 24.447 20.206 39.254-.62 6.093-1.437 12.458.759 18.175 2.197 5.717 8.619 10.348 14.369 8.239 5.001-1.835 7.194-7.556 8.799-12.635 1.743-5.512 3.485-11.024 5.228-16.537 2.001-6.33 5.632-13.923 12.271-13.87 6.569.052 10.104 7.558 12.07 13.826 1.628 5.193 3.274 10.513 3.068 15.952s-2.628 11.116-7.385 13.762c-1.399.778-3.031 1.339-3.933 2.662-1.241 1.819-.599 4.276-.955 6.449-.761 4.65-5.803 7.172-10.324 8.499-1.594.468-3.319.955-4.345 2.262-1.022 1.303-1.087 3.132-.739 4.751 1.321 6.143 8.634 10.216 14.552 8.104 1.973-.704 4.332-1.914 5.934-.564.872.736 1.097 1.975 1.183 3.113.515 6.751-1.981 13.676-6.685 18.546-6.895 7.138-18.523 10.611-21.11 20.192-1.324 4.904.241 10.052 1.107 15.058s.758 10.84-2.965 14.296c-1.067.991-2.53 1.485-4.058 1.588-1.279.843-2.743 1.334-4.192 1.191-5.056-.499-8.672-5.079-11.01-9.588-2.338-4.51-4.208-9.555-8.229-12.659-7.856-6.063-19.216-1.793-29.024-3.304-6.692-1.031-12.869-5.035-16.544-10.722-.619-.958-1.191-2.081-.941-3.194.458-2.044 3.069-2.508 5.066-3.141 5.99-1.899 9.348-9.567 6.683-15.257-.703-1.499-1.861-2.916-3.463-3.335-1.608-.421-3.276.235-4.828.827-4.402 1.679-9.943 2.721-13.362-.521-1.598-1.515-2.573-3.859-4.662-4.557-1.518-.507-3.158.033-4.742.26-5.388.771-10.751-2.283-14.206-6.489s-5.363-9.437-7.208-14.557c-2.23-6.181-3.957-14.296 1.242-18.312z" fill="#44c4a1"/><path d="m275.753 223.223c0 6.158-.932 17.374-2.663 31.554-.399 3.195-.832 6.557-1.298 10.019-2.496 18.473-6.125 40.54-10.617 62.474-.466 2.33-.932 4.627-1.431 6.956-10.817 50.525-26.128 98.388-43.137 98.388-11.45 0-22.134-21.768-31.187-51.424-.4-1.198-.765-2.396-1.099-3.628-7.855-26.594-14.412-58.846-19.072-87.404-.133-.832-.3-1.664-.399-2.496-4.727-29.157-7.389-54.054-7.389-64.438 0-32.652 26.494-59.146 59.146-59.146 32.685 0 59.146 26.494 59.146 59.145z" fill="#e56353"/><g fill="#d15241"><path d="m273.09 254.777c-.399 3.195-.832 6.557-1.298 10.019-14.212-.699-28.425-1.398-42.671-2.097 12.315-4.493 25.296-7.056 38.343-7.589 1.865-.067 3.729-.233 5.626-.333z"/><path d="m216.307 291.29c-17.008.067-34.05-.299-51.058-1.132-.133-.832-.3-1.664-.399-2.496.366-.1.765-.233 1.132-.399 1.498-.632 2.829-1.698 4.394-2.197 4.493-1.465 9.619 1.864 14.012.1.532-.2 1.065-.499 1.664-.533.699-.033 1.331.366 1.931.699 8.487 4.759 18.605 5.392 28.324 5.958z"/><path d="m261.174 327.27c-.466 2.33-.932 4.627-1.431 6.956-14.812-.366-29.656-.699-44.501-1.032-3.362-.1-7.389-.566-8.854-3.595 4.36 0 8.72.033 13.048.033 1.598 0 3.228 0 4.626-.732 1.199-.632 2.064-1.664 3.162-2.43 1.365-.932 2.996-1.331 4.593-1.731 4.926-1.232 10.019-2.463 15.044-1.764 1.698.233 3.362.666 5.026 1.165 3.13.9 6.225 1.965 9.287 3.13z"/><path d="m231.152 381.123-42.437.1c-1.099 0-2.197 0-3.295-.033-.4-1.198-.765-2.396-1.099-3.628 1.731.067 3.462 0 5.159-.033 7.656-.133 15.277.699 22.899 1.564 6.258.666 12.515 1.365 18.773 2.03z"/></g></g></svg>