<svg height="512" viewBox="0 0 40 58" width="512" xmlns="http://www.w3.org/2000/svg"><g id="Page-1" fill="none" fill-rule="evenodd"><g id="052---Mobile-Phone-Repair" fill-rule="nonzero" transform="translate(-1)"><rect id="Rectangle-path" fill="#90bae1" height="55" rx="3" width="34" x="4"/><path id="Shape" d="m38 3v2s-33.14.97-33.98 45.26c-.01658959-.0856164-.02330015-.1728536-.02-.26v-47c0-1.65685425 1.34314575-3 3-3h4l2.86 3.05c.5663757.60708315 1.3597411.95123705 2.19.95h9.9c.8302589.00123705 1.6236243-.34291685 2.19-.95l2.86-3.05h4c1.6568542 0 3 1.34314575 3 3z" fill="#b0d3f0"/><path id="Shape" d="m38 50v5c0 1.6568542-1.3431458 3-3 3h-28c-1.65685425 0-3-1.3431458-3-3v-5c0 1.6568542 1.34314575 3 3 3h28c1.6568542 0 3-1.3431458 3-3z" fill="#547580"/><path id="Shape" d="m31 0-2.86 3.05c-.5663757.60708315-1.3597411.95123705-2.19.95h-9.9c-.8302589.00123705-1.6236243-.34291685-2.19-.95l-2.86-3.05z" fill="#547580"/><path id="Shape" d="m15.72 48.29c-9.66085327-2.6442771-15.87584309-12.0272181-14.54181969-21.9541848 1.3340234-9.9269668 9.80561849-17.3362688 19.82181969-17.3362688s18.4877963 7.409302 19.8218197 17.3362688c1.3340234 9.9269667-4.8809664 19.3099077-14.5418197 21.9541848z" fill="#e64c3c"/><path id="Shape" d="m25.28 34.85 1 13.44c-3.4563531.9466508-7.1036469.9466508-10.56 0l1-13.45c.0204372-.4133584-.2078079-.799014-.58-.98-3.4343421-1.6833951-5.7461081-5.0316619-6.1032371-8.8396777-.35712906-3.8080157 1.2917771-7.5277281 4.3532371-9.8203223.3043259-.2275496.7108273-.2644137 1.0511231-.0953226.3402958.169091.5564305.5153396.5588769.8953226v5.2c.0033293.7027129.3703807 1.3535669.97 1.72l3 1.8c.6368086.3700588 1.4231914.3700588 2.06 0l3-1.8c.5996193-.3664331.9666707-1.0172871.97-1.72v-5.2c.0009131-.3806023.2178015-.7276891.5594873-.8953486.3416859-.1676595.7489229-.1268206 1.0505127.1053486 3.0546177 2.2966745 4.6982732 6.0142096 4.3414265 9.8192147-.3568466 3.8050051-2.6630486 7.1521088-6.0914265 8.8407853-.3721921.180986-.6004372.5666416-.58.98z" fill="#bdc3c7"/><path id="Shape" d="m21 46c-.5522847 0-1-.4477153-1-1v-7c0-.5522847.4477153-1 1-1s1 .4477153 1 1v7c0 .5522847-.4477153 1-1 1z" fill="#7f8c8d"/></g></g></svg>