<svg id="color" enable-background="new 0 0 24 24" height="512" viewBox="0 0 24 24" width="512" xmlns="http://www.w3.org/2000/svg"><path d="m12 24c-.414 0-.75-.336-.75-.75v-3.25c0-.414.336-.75.75-.75s.75.336.75.75v3.25c0 .414-.336.75-.75.75z" fill="#607d8b"/><path d="m13.25 20.75h-2.5c-.414 0-.75-.336-.75-.75v-2.75c0-.414.336-.75.75-.75h2.5c.414 0 .75.336.75.75v2.75c0 .414-.336.75-.75.75z" fill="#eceff1"/><path d="m15.75 0h-7.5c-1.24 0-2.25 1.009-2.25 2.25v13.5c0 1.241 1.01 2.25 2.25 2.25h7.5c1.24 0 2.25-1.009 2.25-2.25v-13.5c0-1.241-1.01-2.25-2.25-2.25z" fill="#607d8b"/><path d="m8.25 1.5h7.5c.413 0 .75.336.75.75v11.25h-9v-11.25c0-.414.337-.75.75-.75z" fill="#fafafa"/><path d="m12 20.75h-.75v2.5c0 .414.336.75.75.75z" fill="#546d79"/><path d="m12 18h-2v2c0 .414.336.75.75.75h.5.75z" fill="#cdd0d2"/><path d="m12 0h-3.75c-1.24 0-2.25 1.009-2.25 2.25v13.5c0 1.241 1.01 2.25 2.25 2.25h1.75 2v-4.5h-4.5v-11.25c0-.414.337-.75.75-.75h3.75z" fill="#546d79"/><path d="m12 1.5h-3.75c-.413 0-.75.336-.75.75v11.25h4.5z" fill="#dadada"/></svg>