<?xml version="1.0" encoding="iso-8859-1"?>
<!-- Generator: Adobe Illustrator 19.0.0, SVG Export Plug-In . SVG Version: 6.00 Build 0)  -->
<svg version="1.1" id="Capa_1" xmlns="http://www.w3.org/2000/svg" xmlns:xlink="http://www.w3.org/1999/xlink" x="0px" y="0px"
	 viewBox="0 0 512 512" style="enable-background:new 0 0 512 512;" xml:space="preserve">
<path style="fill:#AEADB3;" d="M424.7,96.4H87.3c-8.284,0-15,6.716-15,15V497c0,8.284,6.716,15,15,15h337.4c8.285,0,15-6.716,15-15
	V111.4C439.7,103.116,432.985,96.4,424.7,96.4z"/>
<path style="fill:#8B8892;" d="M424.7,96.4H256V512h168.7c8.285,0,15-6.716,15-15V111.4C439.7,103.116,432.985,96.4,424.7,96.4z"/>
<path style="fill:#787780;" d="M464.866,96.4h-97.467V15c0-8.283-6.715-15-15-15H159.6c-8.283,0-15,6.717-15,15v81.4H47.134
	c-8.284,0-15,6.716-15,15s6.716,15,15,15H159.6h192.799h112.467c8.285,0,15-6.716,15-15S473.151,96.4,464.866,96.4z M174.6,96.4V30
	h162.799v66.4H174.6z"/>
<path style="fill:#57555C;" d="M304.2,415.6c-8.283,0-15-6.716-15-15V207.801c0-8.284,6.717-15,15-15c8.285,0,15,6.716,15,15V400.6
	C319.2,408.884,312.485,415.6,304.2,415.6z"/>
<path style="fill:#787780;" d="M207.799,415.6c-8.283,0-15-6.716-15-15V207.801c0-8.284,6.717-15,15-15c8.285,0,15,6.716,15,15
	V400.6C222.799,408.884,216.085,415.6,207.799,415.6z"/>
<path style="fill:#57555C;" d="M464.866,96.4h-97.467V15c0-8.283-6.715-15-15-15H256v30h81.398v66.4H256v30h96.398h112.467
	c8.285,0,15-6.716,15-15S473.151,96.4,464.866,96.4z"/>
<g>
</g>
<g>
</g>
<g>
</g>
<g>
</g>
<g>
</g>
<g>
</g>
<g>
</g>
<g>
</g>
<g>
</g>
<g>
</g>
<g>
</g>
<g>
</g>
<g>
</g>
<g>
</g>
<g>
</g>
</svg>
