<?xml version="1.0" encoding="iso-8859-1"?>
<!-- Generator: Adobe Illustrator 19.0.0, SVG Export Plug-In . SVG Version: 6.00 Build 0)  -->
<svg version="1.1" id="Capa_1" xmlns="http://www.w3.org/2000/svg" xmlns:xlink="http://www.w3.org/1999/xlink" x="0px" y="0px"
	 viewBox="0 0 468.293 468.293" style="enable-background:new 0 0 468.293 468.293;" xml:space="preserve">
<path style="fill:#29A1DA;" d="M424.507,0H176.078C171.617,0,168,3.617,168,8.078v107.015c0,4.461,3.617,8.078,8.078,8.078h169.647
	l33.81,30.761c5.188,4.72,13.514,1.039,13.514-5.975v-24.786h31.457c4.461,0,8.078-3.617,8.078-8.078V8.078
	C432.585,3.617,428.968,0,424.507,0z"/>
<path style="fill:#2D92BA;" d="M424.507,0H176.079C171.617,0,168,3.616,168,8.078v4.41h244.019c4.461,0,8.078,3.616,8.078,8.078
	v102.605h4.41c4.461,0,8.078-3.616,8.078-8.078V8.078C432.585,3.616,428.968,0,424.507,0z"/>
<path style="fill:#4EBD9E;" d="M424.507,312.242H176.078c-4.461,0-8.078,3.617-8.078,8.078v107.015c0,4.461,3.617,8.078,8.078,8.078
	h169.647l33.81,30.761c5.188,4.72,13.514,1.039,13.514-5.975v-24.786h31.457c4.461,0,8.078-3.617,8.078-8.078V320.32
	C432.585,315.858,428.968,312.242,424.507,312.242z"/>
<path style="fill:#FAD362;" d="M43.786,156.191h248.428c4.461,0,8.078,3.617,8.078,8.078v107.015c0,4.461-3.617,8.078-8.078,8.078
	H122.568l-33.81,30.761c-5.188,4.72-13.514,1.039-13.514-5.975v-24.786H43.786c-4.461,0-8.078-3.617-8.078-8.078V164.269
	C35.708,159.808,39.325,156.191,43.786,156.191z"/>
<path style="fill:#F4C158;" d="M292.215,156.191H43.786c-4.462,0-8.079,3.616-8.079,8.078v4.41h244.019
	c4.461,0,8.078,3.616,8.078,8.078v102.605h4.41c4.461,0,8.078-3.616,8.078-8.078V164.269
	C300.293,159.807,296.676,156.191,292.215,156.191z"/>
<path style="fill:#3CA59A;" d="M424.507,312.242H176.079c-4.462,0-8.079,3.616-8.079,8.078v4.41h244.019
	c4.461,0,8.078,3.616,8.078,8.078v102.605h4.41c4.461,0,8.078-3.616,8.078-8.078V320.319
	C432.585,315.858,428.968,312.242,424.507,312.242z"/>
<g>
	<path style="fill:#E0E5E8;" d="M375.127,36.22H212.785c-3.451,0-6.244,2.793-6.244,6.244c0,3.451,2.793,6.244,6.244,6.244h162.341
		c3.451,0,6.244-2.793,6.244-6.244C381.371,39.012,378.578,36.22,375.127,36.22z"/>
	<path style="fill:#E0E5E8;" d="M375.127,73.683H212.785c-3.451,0-6.244,2.793-6.244,6.244c0,3.451,2.793,6.244,6.244,6.244h162.341
		c3.451,0,6.244-2.793,6.244-6.244C381.371,76.476,378.578,73.683,375.127,73.683z"/>
	<path style="fill:#E0E5E8;" d="M249.171,192.41H86.83c-3.451,0-6.244,2.793-6.244,6.244s2.793,6.244,6.244,6.244h162.341
		c3.451,0,6.244-2.793,6.244-6.244S252.622,192.41,249.171,192.41z"/>
	<path style="fill:#E0E5E8;" d="M249.171,229.874H86.83c-3.451,0-6.244,2.793-6.244,6.244s2.793,6.244,6.244,6.244h162.341
		c3.451,0,6.244-2.793,6.244-6.244S252.622,229.874,249.171,229.874z"/>
	<path style="fill:#E0E5E8;" d="M381.463,348.461H219.122c-3.451,0-6.244,2.793-6.244,6.244c0,3.451,2.793,6.244,6.244,6.244
		h162.341c3.451,0,6.244-2.793,6.244-6.244C387.707,351.254,384.914,348.461,381.463,348.461z"/>
	<path style="fill:#E0E5E8;" d="M381.463,385.925H219.122c-3.451,0-6.244,2.793-6.244,6.244c0,3.451,2.793,6.244,6.244,6.244
		h162.341c3.451,0,6.244-2.793,6.244-6.244C387.707,388.717,384.914,385.925,381.463,385.925z"/>
</g>
<g>
</g>
<g>
</g>
<g>
</g>
<g>
</g>
<g>
</g>
<g>
</g>
<g>
</g>
<g>
</g>
<g>
</g>
<g>
</g>
<g>
</g>
<g>
</g>
<g>
</g>
<g>
</g>
<g>
</g>
</svg>
