<svg id="color" enable-background="new 0 0 24 24" height="512" viewBox="0 0 24 24" width="512" xmlns="http://www.w3.org/2000/svg"><path d="m14 3.01v-.01c0-.55-.45-1-1-1h-.5c-.55 0-1 .45-1 1s-.45 1-1 1h-5c-.55 0-1-.45-1-1s-.45-1-1-1h-.5c-.55 0-1 .45-1 1v18c0 .55.45 1 1 1h10c.55 0 1-.45 1-1v-3.21c.48.14.98.21 1.5.21.17 0 .34-.01.5-.03v3.03c0 1.65-1.35 3-3 3h-10c-1.65 0-3-1.35-3-3v-18c0-1.65 1.35-3 3-3h10c1.65 0 3 1.35 3 3v.38c-.53-.25-1.13-.38-1.75-.38-.09 0-.17 0-.25.01z" fill="#607d8b"/><path d="m10 7.25v5.25c0 2.51 1.7 4.64 4 5.29v3.21c0 .55-.45 1-1 1h-10c-.55 0-1-.45-1-1v-18c0-.55.45-1 1-1h.5c.55 0 1 .45 1 1s.45 1 1 1h5c.55 0 1-.45 1-1s.45-1 1-1h.5c.55 0 1 .45 1 1v.01c-2.23.13-4 1.99-4 4.24z" fill="#fafafa"/><path d="m15.5 16c-1.93 0-3.5-1.57-3.5-3.5v-5.25c0-1.241 1.01-2.25 2.25-2.25s2.25 1.009 2.25 2.25v5c0 .414-.336.75-.75.75s-.75-.336-.75-.75v-5c0-.414-.337-.75-.75-.75s-.75.336-.75.75v5.25c0 1.103.897 2 2 2s2-.897 2-2v-6.75c0-.414.336-.75.75-.75s.75.336.75.75v6.75c0 1.93-1.57 3.5-3.5 3.5z" fill="#2196f3"/><path d="m14.25 5c-1.24 0-2.25 1.01-2.25 2.25v5.25c0 1.93 1.57 3.5 3.5 3.5.084 0 .167-.003.25-.009v-1.507c-.082.01-.165.016-.25.016-1.103 0-2-.896-2-2v-5.25c0-.414.337-.75.75-.75s.75.336.75.75v5c0 .414.336.75.75.75v-7.425c-.398-.357-.924-.575-1.5-.575z" fill="#1d83d4"/><path d="m8 0h-5c-1.65 0-3 1.35-3 3v18c0 1.65 1.35 3 3 3h5v-2h-5c-.55 0-1-.45-1-1v-18c0-.55.45-1 1-1h.5c.55 0 1 .45 1 1s.45 1 1 1h2.5z" fill="#546d79"/><path d="m3.5 2h-.5c-.55 0-1 .45-1 1v18c0 .55.45 1 1 1h5v-18h-2.5c-.55 0-1-.45-1-1s-.45-1-1-1z" fill="#dadada"/></svg>