<?xml version="1.0" encoding="iso-8859-1"?>
<!-- Generator: Adobe Illustrator 19.0.0, SVG Export Plug-In . SVG Version: 6.00 Build 0)  -->
<svg version="1.1" id="Capa_1" xmlns="http://www.w3.org/2000/svg" xmlns:xlink="http://www.w3.org/1999/xlink" x="0px" y="0px"
	 viewBox="0 0 511.2 511.2" style="enable-background:new 0 0 511.2 511.2;" xml:space="preserve">
<polygon style="fill:#F3F3F3;" points="53.6,276.533 53.6,511.2 456.8,511.2 456.8,276.533 255.2,74.933 "/>
<rect x="68.533" y="60" style="fill:#F05540;" width="57.6" height="118.4"/>
<g>
	<path style="fill:#F7B64C;" d="M116.533,382.133c0-76.8,61.867-138.667,138.667-138.667s138.667,61.867,138.667,138.667"/>
	<path style="fill:#F7B64C;" d="M393.867,382.133H116.533c0-76.8,61.867-138.667,138.667-138.667
		C332,243.467,393.867,305.333,393.867,382.133z"/>
</g>
<g>
	<path style="fill:#FFD15C;" d="M255.2,243.467c-18.133,0-36.267,3.2-52.267,10.667v44.8c0,28.8,23.467,52.267,52.267,52.267
		c28.8,0,52.267-23.467,52.267-52.267v-44.8C291.467,246.667,273.333,243.467,255.2,243.467z"/>
	<path style="fill:#FFD15C;" d="M394.933,378.933H115.467c-9.6,0-17.067,7.467-17.067,17.067c0,9.6,7.467,17.067,17.067,17.067H396
		c9.6,0,17.067-7.467,17.067-17.067C413.067,386.4,404.533,378.933,394.933,378.933z"/>
</g>
<circle style="fill:#415A6B;" cx="255.2" cy="298.933" r="35.2"/>
<circle style="fill:#8AD7F8;" cx="255.2" cy="298.933" r="24.533"/>
<ellipse transform="matrix(-0.7071 -0.7071 0.7071 -0.7071 213.7407 664.8353)" style="fill:#FFFFFF;" cx="244.562" cy="288.151" rx="3.2" ry="6.4"/>
<g>
	<path style="fill:#F3705A;" d="M501.6,232.8l-224-224c-11.733-11.733-32-11.733-43.733,0L8.8,232.8
		c-11.733,11.733-11.733,32,0,43.733s32,11.733,43.733,0L255.2,73.867l202.667,202.667c11.733,11.733,32,11.733,43.733,0l0,0
		C514.4,264.8,514.4,245.6,501.6,232.8z"/>
	<rect x="52.533" y="29.067" style="fill:#F3705A;" width="90.667" height="49.067"/>
</g>
<g>
</g>
<g>
</g>
<g>
</g>
<g>
</g>
<g>
</g>
<g>
</g>
<g>
</g>
<g>
</g>
<g>
</g>
<g>
</g>
<g>
</g>
<g>
</g>
<g>
</g>
<g>
</g>
<g>
</g>
</svg>
