<?xml version="1.0" encoding="iso-8859-1"?>
<!-- Generator: Adobe Illustrator 19.0.0, SVG Export Plug-In . SVG Version: 6.00 Build 0)  -->
<svg version="1.1" id="Capa_1" xmlns="http://www.w3.org/2000/svg" xmlns:xlink="http://www.w3.org/1999/xlink" x="0px" y="0px"
	 viewBox="0 0 512 512" style="enable-background:new 0 0 512 512;" xml:space="preserve">
<g>
	<path style="fill:#D23F77;" d="M320,128c-30.256,70.688-68.368,128-64,128c-4.368,0-94.256-57.312-64-128S260.368,0,256,0
		C260.368,0,350.256,57.312,320,128z"/>
	<path style="fill:#D23F77;" d="M192,384c30.256-70.688,68.368-128,64-128c4.368,0,94.256,57.312,64,128
		c-30.256,70.688-68.368,128-64,128C251.632,512,161.744,454.688,192,384z"/>
</g>
<g>
	<path style="fill:#E84D88;" d="M391.76,210.752C320.384,239.344,252.912,252.912,256,256
		c-3.088-3.088-26.128-107.184,45.248-135.76c71.376-28.592,138.848-42.176,135.76-45.248
		C440.112,78.064,463.152,182.16,391.76,210.752z"/>
	<path style="fill:#E84D88;" d="M120.24,301.248C191.616,272.656,259.088,259.088,256,256c3.088,3.088,26.128,107.184-45.248,135.76
		c-71.376,28.592-138.848,42.176-135.76,45.248C71.888,433.936,48.848,329.84,120.24,301.248z"/>
</g>
<g>
	<path style="fill:#D23F77;" d="M384,320c-70.688-30.256-128-68.368-128-64c0-4.368,57.312-94.256,128-64s128,68.368,128,64
		C512,260.368,454.688,350.256,384,320z"/>
	<path style="fill:#D23F77;" d="M128,192c70.688,30.256,128,68.368,128,64c0,4.368-57.312,94.256-128,64
		C57.312,289.744,0,251.632,0,256C0,251.632,57.312,161.744,128,192z"/>
</g>
<g>
	<path style="fill:#E84D88;" d="M301.248,391.76C272.656,320.384,259.088,252.912,256,256c3.088-3.088,107.184-26.128,135.76,45.248
		c28.592,71.376,42.176,138.848,45.248,135.76C433.936,440.112,329.84,463.152,301.248,391.76z"/>
	<path style="fill:#E84D88;" d="M210.752,120.24C239.344,191.616,252.912,259.088,256,256
		c-3.088,3.088-107.184,26.128-135.76-45.248C91.648,139.36,78.064,71.888,74.976,74.976
		C78.064,71.888,182.16,48.848,210.752,120.24z"/>
</g>
<circle style="fill:#FFFFFF;" cx="256" cy="256" r="74.416"/>
<circle style="fill:#E84D88;" cx="256" cy="256" r="44.896"/>
<g>
</g>
<g>
</g>
<g>
</g>
<g>
</g>
<g>
</g>
<g>
</g>
<g>
</g>
<g>
</g>
<g>
</g>
<g>
</g>
<g>
</g>
<g>
</g>
<g>
</g>
<g>
</g>
<g>
</g>
</svg>
