<?xml version="1.0" encoding="iso-8859-1"?>
<!-- Generator: Adobe Illustrator 19.0.0, SVG Export Plug-In . SVG Version: 6.00 Build 0)  -->
<svg version="1.1" id="Layer_1" xmlns="http://www.w3.org/2000/svg" xmlns:xlink="http://www.w3.org/1999/xlink" x="0px" y="0px"
	 viewBox="0 0 508 508" style="enable-background:new 0 0 508 508;" xml:space="preserve">
<path style="fill:#40596B;" d="M471.7,164.3L471.7,164.3c-20,0-36.3-16.2-36.3-36.3c0,20-16.2,36.3-36.3,36.3s-36.3-16.2-36.3-36.3
	c0,20-16.2,36.3-36.3,36.3c-20,0-36.3-16.2-36.3-36.3c0,20-16.2,36.3-36.3,36.3c-20,0-36.3-16.2-36.3-36.3c0,20-16.2,36.3-36.3,36.3
	c-20,0-36.3-16.2-36.3-36.3c0,20-16.2,36.3-36.3,36.3c-20,0-36.3-16.2-36.3-36.3c0,20-16.2,36.3-36.3,36.3c-3.3,0-6.4-0.6-9.4-1.4
	v210.6H481V162.9C478.1,163.7,475,164.3,471.7,164.3z"/>
<path style="fill:#84DBFF;" d="M435.6,129.6h-0.3c-0.8,19.3-16.6,34.7-36.1,34.7s-35.3-15.4-36.1-34.7h-0.3
	c-0.8,19.3-16.6,34.7-36.1,34.7s-35.3-15.4-36.1-34.7h-0.3c-0.8,19.3-16.6,34.7-36.1,34.7s-35.3-15.4-36.1-34.7h-0.3
	c-0.8,19.3-16.6,34.7-36.1,34.7s-35.3-15.4-36.1-34.7H145c-0.8,19.3-16.6,34.7-36.1,34.7s-35.3-15.4-36.1-34.7h-0.3
	c-0.5,11.6-6.4,21.8-15.4,28.1v194H451v-194C442,151.4,436.1,141.2,435.6,129.6z"/>
<path style="fill:#F2F2F2;" d="M26.8,373.6v33.8c0,11.7,9.5,21.2,21.2,21.2h412c11.7,0,21.2-9.5,21.2-21.2v-33.8H26.8z"/>
<g>
	<circle style="fill:#CDD6E0;" cx="254" cy="401.1" r="10.8"/>
	<polygon style="fill:#CDD6E0;" points="333.1,442.7 325.8,428.6 182.2,428.6 174.9,442.7 156,479.3 351.9,479.3 	"/>
</g>
<rect x="104.2" y="479.2" style="fill:#F2F2F2;" width="299.7" height="28.8"/>
<polygon style="fill:#ACB3BA;" points="325.8,428.6 182.2,428.6 174.9,442.7 333.1,442.7 "/>
<polygon style="fill:#FF7058;" points="26.8,0 0,96.1 72.6,96.1 91.7,0 "/>
<polygon style="fill:#F2F2F2;" points="91.7,0 72.6,96.1 145.1,96.1 156.6,0 "/>
<polygon style="fill:#FF7058;" points="156.6,0 145.1,96.1 217.7,96.1 221.5,0 "/>
<polygon style="fill:#F2F2F2;" points="286.5,0 221.5,0 217.7,96.1 290.3,96.1 "/>
<polygon style="fill:#FF7058;" points="351.4,0 286.5,0 290.3,96.1 362.9,96.1 "/>
<polygon style="fill:#F2F2F2;" points="416.3,0 351.4,0 362.9,96.1 435.4,96.1 "/>
<polygon style="fill:#FF7058;" points="481.2,0 416.3,0 435.4,96.1 508,96.1 "/>
<g>
	<path style="fill:#FFFFFF;" d="M313.3,214.5c-1-1.2-2.4-1.9-4-1.9h-82.8l-3.9-16c-0.6-2.3-2.6-3.9-4.9-3.9h-19
		c-2.8,0-5.1,2.3-5.1,5.1s2.3,5.1,5.1,5.1h15l16.8,68.9c0.6,2.3,2.6,3.9,4.9,3.9h61h5.8v9h-61.6c-2.8,0-5.1,2.3-5.1,5.1
		c0,2.8,2.3,5.1,5.1,5.1h66.6c2.8,0,5.1-2.3,5.1-5.1v-19.2c0-2.8-2.3-5.1-5.1-5.1h-4.4l11.4-46.6
		C314.6,217.3,314.3,215.7,313.3,214.5z M248,265.4h-8.6l-4-16.3H248V265.4z M248,239h-15l-4-16.3h19V239z M273.7,265.4h-15.5v-16.3
		h15.5V265.4z M273.7,239h-15.5v-16.3h15.5V239z M292.4,265.4h-8.6v-16.3h12.6L292.4,265.4z M298.9,239h-15.1v-16.3h19.1L298.9,239z
		"/>
	<circle style="fill:#FFFFFF;" cx="254.4" cy="310.5" r="11.6"/>
	<circle style="fill:#FFFFFF;" cx="287.1" cy="310.5" r="11.6"/>
</g>
<g>
	<path style="fill:#CDD6E0;" d="M72.6,128c0,20,16.2,36.3,36.3,36.3c20,0,36.3-16.2,36.3-36.3V96.1H72.6V128z"/>
	<path style="fill:#CDD6E0;" d="M217.7,128c0,20,16.2,36.3,36.3,36.3c20,0,36.3-16.2,36.3-36.3V96.1h-72.6L217.7,128L217.7,128z"/>
	<path style="fill:#CDD6E0;" d="M362.9,96.1V128c0,20,16.2,36.3,36.3,36.3s36.3-16.2,36.3-36.3V96.1H362.9z"/>
</g>
<g>
	<path style="fill:#F1543F;" d="M0,128c0,20,16.2,36.3,36.3,36.3c20,0,36.3-16.2,36.3-36.3V96.1H0V128z"/>
	<path style="fill:#F1543F;" d="M145.1,128c0,20,16.2,36.3,36.3,36.3c20,0,36.3-16.2,36.3-36.3V96.1h-72.6V128z"/>
	<path style="fill:#F1543F;" d="M290.3,128c0,20,16.2,36.3,36.3,36.3c20,0,36.3-16.2,36.3-36.3V96.1h-72.6L290.3,128L290.3,128z"/>
	<path style="fill:#F1543F;" d="M435.4,96.1V128c0,20,16.2,36.3,36.3,36.3l0,0c20,0,36.3-16.2,36.3-36.3V96.1H435.4z"/>
</g>
<g>
	<path style="fill:#334A5E;" d="M290.3,128c0,0.5-0.1,1-0.2,1.6h0.3C290.4,129.1,290.3,128.6,290.3,128z"/>
	<path style="fill:#334A5E;" d="M145.1,128c0,0.5-0.1,1-0.2,1.6h0.3C145.3,129.1,145.1,128.6,145.1,128z"/>
	<path style="fill:#334A5E;" d="M72.6,128c0,0.5-0.1,1-0.2,1.6h0.3C72.7,129.1,72.6,128.6,72.6,128z"/>
	<path style="fill:#334A5E;" d="M217.7,128c0,0.5-0.1,1-0.2,1.6h0.3C217.8,129.1,217.7,128.6,217.7,128z"/>
	<path style="fill:#334A5E;" d="M36.3,164.3c-3.3,0-6.4-0.6-9.4-1.4v11.4c3,0.8,6.2,1.3,9.4,1.3c7.7,0,14.9-2.4,20.8-6.6v-11.3
		C51.2,161.8,44,164.3,36.3,164.3z"/>
	<path style="fill:#334A5E;" d="M362.9,128c0,0.5-0.1,1-0.2,1.6h0.3C363,129.1,362.9,128.6,362.9,128z"/>
	<path style="fill:#334A5E;" d="M471.7,164.3L471.7,164.3c-7.7,0-14.9-2.5-20.7-6.6V169c5.9,4.1,13,6.5,20.8,6.5
		c3.3,0,6.4-0.5,9.4-1.3v-11.4C478.1,163.7,475,164.3,471.7,164.3z"/>
	<path style="fill:#334A5E;" d="M435.4,128c0,0.5-0.1,1-0.2,1.6h0.3C435.6,129.1,435.4,128.6,435.4,128z"/>
</g>
<path style="fill:#54C0EB;" d="M435.6,129.6h-0.3c-0.8,19.3-16.6,34.7-36.1,34.7s-35.3-15.4-36.1-34.7h-0.3
	c-0.8,19.3-16.6,34.7-36.1,34.7s-35.3-15.4-36.1-34.7h-0.3c-0.8,19.3-16.6,34.7-36.1,34.7s-35.3-15.4-36.1-34.7h-0.3
	c-0.8,19.3-16.6,34.7-36.1,34.7s-35.3-15.4-36.1-34.7H145c-0.8,19.3-16.6,34.7-36.1,34.7s-35.3-15.4-36.1-34.7h-0.3
	c-0.5,11.6-6.4,21.8-15.4,28.1V169c1.7-1.1,3.4-2.5,4.9-4c6.5-6.6,10.6-15.6,10.6-25.7c0,20,16.3,36.3,36.3,36.3
	s36.3-16.3,36.3-36.3c0,20,16.3,36.3,36.3,36.3s36.3-16.3,36.3-36.3c0,20,16.2,36.3,36.2,36.3s36.3-16.3,36.3-36.3
	c0,20,16.3,36.3,36.3,36.3c10,0,19.1-4.1,25.7-10.6c6.5-6.6,10.6-15.6,10.6-25.7c0,20,16.3,36.3,36.3,36.3s36.3-16.3,36.3-36.3
	c0,12.3,6.1,23.2,15.5,29.7v-11.3C442,151.4,436.1,141.2,435.6,129.6z"/>
<g>
</g>
<g>
</g>
<g>
</g>
<g>
</g>
<g>
</g>
<g>
</g>
<g>
</g>
<g>
</g>
<g>
</g>
<g>
</g>
<g>
</g>
<g>
</g>
<g>
</g>
<g>
</g>
<g>
</g>
</svg>
