<svg id="color" enable-background="new 0 0 24 24" height="512" viewBox="0 0 24 24" width="512" xmlns="http://www.w3.org/2000/svg"><g><g><path d="m10.383 6.014c-3.354 0-6.506 1.305-8.875 3.674l-.035.034c-.201.201-.271.498-.181.767.09.27.324.465.605.505l4.677.67.106.008c.212 0 .417-.09.56-.251l3.703-4.159c.197-.221.245-.536.124-.806-.121-.269-.389-.442-.684-.442z" fill="#2196f3"/></g></g><g><g><path d="m23.26 0c-4.63-.1-9.87 2.31-13.21 6.02-.11.11-.21.22-.3.33l-4.57 5.12-.14.15c-.27.3-.25.75.03 1.03l3.91 3.91c.96-2.38 3.3-4.06 6.02-4.06.38 0 .75.04 1.11.1.1-.35.29-.68.55-.94l2.5-2.5c.42-.43.99-.66 1.59-.66.3 0 .59.06.86.17.11.05.21.1.31.16 1.37-2.59 2.14-5.45 2.08-8.09-.01-.4-.34-.73-.74-.74z" fill="#eceff1"/></g></g><g><g><path d="m18.9 5.1c-.97-.98-2.56-.98-3.54 0-.97.97-.97 2.56 0 3.54.49.48 1.13.73 1.77.73s1.28-.25 1.77-.73c.97-.98.97-2.57 0-3.54z" fill="#2196f3"/></g></g><g><g><path d="m7.08 16.92c-1.2-1.19-3.27-1.19-4.47 0-1.02 1.03-2.33 5.27-2.58 6.11-.08.27-.01.56.189.75.141.14.331.22.531.22l.22-.03c.84-.25 5.08-1.56 6.11-2.58.59-.6.92-1.39.92-2.23 0-.85-.33-1.64-.92-2.24z" fill="#ff9800"/></g></g><g><g><path d="m10.052 6.018c-3.23.083-6.253 1.379-8.544 3.67l-.035.034c-.201.201-.271.498-.181.767.09.27.324.465.605.505l3.287.471 4.566-5.115c.09-.11.19-.22.3-.33 0-.001.001-.001.002-.002z" fill="#1d83d4"/></g></g><g><g><path d="m22.981-.003c-4.559 0-9.656 2.386-12.929 6.021-.001.001-.002.001-.002.002-.11.11-.21.22-.3.33l-4.566 5.116-.004.004-.14.15c-.27.3-.25.75.03 1.03l3.14 3.14 7.15-7.15c-.97-.98-.97-2.57 0-3.54.49-.49 1.133-.735 1.774-.735s1.281.245 1.766.735l4.876-4.876c-.133-.134-.316-.219-.516-.224-.093-.002-.186-.003-.279-.003z" fill="#cdd0d2"/></g></g><g><g><path d="m17.134 4.365c-.641 0-1.284.245-1.774.735-.97.97-.97 2.56 0 3.54l3.54-3.54c-.485-.49-1.125-.735-1.766-.735z" fill="#1d83d4"/></g></g><g><g><path d="m4.845 16.027c-.818 0-1.635.297-2.235.892-1.02 1.03-2.33 5.27-2.58 6.11-.08.27-.01.56.189.75l6.86-6.86c-.599-.594-1.417-.892-2.234-.892z" fill="#de8400"/></g></g><g><g><path d="m15 14c-2.757 0-5 2.243-5 5s2.243 5 5 5 5-2.243 5-5-2.243-5-5-5z" fill="#fafafa"/></g></g><g><g><path d="m15 24c-2.757 0-5-2.243-5-5s2.243-5 5-5 5 2.243 5 5-2.243 5-5 5zm0-8.5c-1.93 0-3.5 1.57-3.5 3.5s1.57 3.5 3.5 3.5 3.5-1.57 3.5-3.5-1.57-3.5-3.5-3.5z" fill="#f44336"/></g></g><g><g><path d="m16.75 19c0 .966-.784 1.75-1.75 1.75s-1.75-.784-1.75-1.75.784-1.75 1.75-1.75 1.75.784 1.75 1.75z" fill="#f44336"/></g></g><g><g><path d="m15 19.75c-.192 0-.384-.073-.53-.22-.293-.293-.293-.768 0-1.061l3-3c.293-.293.768-.293 1.061 0s.293.768 0 1.061l-3 3c-.147.147-.339.22-.531.22z" fill="#607d8b"/></g></g><g><g><path d="m20.75 16.5h-2.5c-.414 0-.75-.336-.75-.75v-2.5c0-.199.079-.39.22-.53l2.5-2.5c.215-.215.538-.278.817-.163.28.116.463.39.463.693v1.75h1.75c.303 0 .577.183.693.463s.052.603-.163.817l-2.5 2.5c-.14.141-.331.22-.53.22z" fill="#2196f3"/></g></g><g><g><path d="m15 15.5c-1.93 0-3.5 1.57-3.5 3.5 0 .965.393 1.84 1.026 2.474l1.236-1.236c-.316-.317-.512-.755-.512-1.238 0-.966.784-1.75 1.75-1.75.206 0 .404.036.588.101l1.298-1.298c-.544-.35-1.192-.553-1.886-.553z" fill="#dadada"/></g></g><g><g><path d="m15 14c-2.757 0-5 2.243-5 5 0 1.378.561 2.628 1.466 3.534l1.06-1.06c-.633-.634-1.026-1.509-1.026-2.474 0-1.93 1.57-3.5 3.5-3.5.694 0 1.342.203 1.886.553l.583-.583c.01-.01.02-.019.03-.029v-.77c-.735-.427-1.589-.671-2.499-.671z" fill="#d43a2f"/></g></g><g><g><path d="m15 17.25c-.966 0-1.75.784-1.75 1.75 0 .483.196.921.513 1.237l.707-.707c-.293-.293-.293-.768 0-1.061l1.118-1.118c-.184-.065-.382-.101-.588-.101z" fill="#d43a2f"/></g></g><g><g><path d="m17.5 15.441c-.01.009-.02.019-.03.029l-.583.583-1.298 1.298-1.119 1.119c-.293.293-.293.768 0 1.061l3.25-3.25c-.136-.136-.22-.323-.22-.53z" fill="#546d79"/></g></g><g><g><path d="m20.75 10c-.195 0-.387.076-.531.22l-2.5 2.5c-.141.141-.22.332-.22.53v1.421.77.309c0 .207.084.395.22.53l3.78-3.78v-1.75c0-.303-.183-.577-.463-.693-.092-.038-.189-.057-.286-.057z" fill="#1d83d4"/></g></g></svg>