<svg id="Layer_1" height="512" viewBox="0 0 512 512" width="512" xmlns="http://www.w3.org/2000/svg" data-name="Layer 1"><path d="m314.71 352.27-117.41.01c-102 6.68-177.4 30.41-177.4 58.65 0 33.44 105.71 60.55 236.1 60.55s236.1-27.11 236.1-60.55c0-28.24-75.4-51.96-177.39-58.66z" fill="#dae9f4"/><path d="m59.9 410.93c0-28.24 75.4-51.97 177.4-58.65l77.46-.007h-.05l-117.41.01c-102 6.68-177.4 30.41-177.4 58.65 0 33.44 105.71 60.55 236.1 60.55q10.107 0 20-.218c-121.028-2.608-216.1-28.623-216.1-60.335z" fill="#bccee2"/><path d="m197.3 352.28c-43.18-39.29-94.39-99.72-94.39-165.41 0-80.81 68.69-146.35 153.09-146.35s153.09 65.54 153.09 146.35c0 65.68-51.2 126.11-94.38 165.4-31.49 28.64-58.71 46.05-58.71 46.05s-27.22-17.4-58.7-46.04zm131.55-167.19a72.85 72.85 0 1 0 -72.85 72.86 72.855 72.855 0 0 0 72.85-72.86z" fill="#eb7288"/><path d="m132.91 186.87c0-75.964 60.7-138.429 138.09-145.648q-7.406-.69-15-.7c-84.4 0-153.09 65.54-153.09 146.35 0 65.69 51.21 126.12 94.39 165.41 31.48 28.64 58.7 46.04 58.7 46.04s5.746-3.678 15-10.417a526.244 526.244 0 0 1 -43.7-35.623c-43.18-39.292-94.39-99.722-94.39-165.412z" fill="#d3627a"/><g fill="#fff"><path d="m191.989 80.737 5.6 10.614a123.488 123.488 0 0 1 16.711-7.292l-3.975-11.323a135.878 135.878 0 0 0 -18.336 8.001z"/><path d="m123 192h12c0-36 18.381-70.913 49.17-92.635l-6.918-9.909c-33.971 23.967-54.252 62.544-54.252 102.544z"/></g></svg>