<svg id="Capa_1" enable-background="new 0 0 329.392 329.392" height="512" viewBox="0 0 329.392 329.392" width="512" xmlns="http://www.w3.org/2000/svg"><g><path d="m18.402 328.045c-2.686 0-5.378-.196-8.05-.589-2.387-.35-4.039-2.573-3.687-4.958.352-2.389 2.599-4.058 4.958-3.687 12.338 1.813 25.141-1.408 35.144-8.832 1.549-1.152 3.241-2.586 4.738-4.258-4.805 1.024-9.765 1.353-14.721.858-2.121-.205-4.869-.632-7.331-2.142-4.864-2.991-7.668-6.75-8.335-11.184-.693-4.617 1.124-9.66 5.118-14.2 1.229-1.421 2.682-2.163 3.819-2.663 7.651-3.379 16.312-3.128 23.156.691 5.491 3.064 9.385 8.295 10.8 14.068 5.357-3.473 9.933-8.111 13.106-13.599 2.643-4.574 3.987-8.99 3.996-13.125.004-2.411 1.961-4.361 4.369-4.361h.009c2.413.004 4.365 1.963 4.361 4.378-.011 5.684-1.749 11.568-5.169 17.481-4.879 8.444-12.265 15.156-20.854 19.47-1.594 5.649-5.634 10.987-11.853 15.6-9.679 7.19-21.58 11.052-33.574 11.052zm22.749-45.259c-2.541 0-5.148.533-7.574 1.604-.527.23-.685.337-.73.371-2.279 2.599-3.386 5.197-3.085 7.19.265 1.767 1.7 3.46 4.267 5.035.934.576 2.413.781 3.595.896 6.144.593 12.406-.371 18.213-2.586-.256-4.19-2.912-8.372-6.88-10.586-2.299-1.28-5.013-1.924-7.806-1.924z" fill="#ebf0f3"/><path d="m122.002 291.601c7.407 2.384 28.328-14.158 28.328-14.158 40.373-29.974 69.234-56.805 88.23-76.439 19.634-18.996 46.466-47.858 76.439-88.23 0 0 16.542-20.921 14.158-28.328-1.936-6.015-6.515-33.251-20.108-50.608-3.145-4.016-6.872-1.615-11.061-4.188l-7.939-3.223c-10.016-4.067-13.41-2.262-21.476 4.937-14.22 12.692-39.081 22.737-45.932 41.255-2.232 6.033-1.404 12.773 1.993 18.235l2.876 16.686 9.618 15.467s-5.696 27.694-26.864 49.704c-22.009 21.168-49.704 26.864-49.704 26.864l-16.523-10.275-9.533-.43c-5.462-3.397-12.203-4.225-18.235-1.993-18.517 6.85-30.592 15.984-43.284 30.204-7.198 8.065-9.164 19.516-5.098 29.532l-2.962 9.38c2.828 4.604 3.151 13.068 7.675 16.421 17.388 12.881 43.525 17.296 49.402 19.187z" fill="#27a2db"/><path d="m228.621 109.313-8.192-13.178c-3.405-5.456-4.217-12.195-1.994-18.235 6.852-18.506 27.966-39.562 42.184-52.27 8.064-7.18 19.518-9.146 29.533-5.086l7.949 3.22c5.157 3.163 9.445 7.707 13.036 12.921l-6.083-2.379c-10.087-3.932-21.84-1.467-30.331 6.425-14.973 13.89-37.269 36.87-44.891 56.658-1.496 3.889-1.88 8.035-1.211 11.924z" fill="#d5d6db"/><path d="m146.869 191.065-13.178-8.192c-5.456-3.405-12.195-4.217-18.235-1.994-18.506 6.852-39.562 27.966-52.27 42.184-7.18 8.064-9.146 19.518-5.086 29.533l3.22 7.949c3.163 5.157 7.707 9.445 12.921 13.036l-2.379-6.083c-3.932-10.087-1.467-21.84 6.425-30.331 13.89-14.973 36.87-37.269 56.658-44.891 3.889-1.496 8.035-1.881 11.924-1.211z" fill="#d5d6db"/><path d="m154.205 1.348h-140.404c-7.622 0-13.801 6.179-13.801 13.801v83.591c0 7.622 6.179 13.801 13.801 13.801h101.536l26.963 26.963s0-17.04 0-26.963h11.905c7.622 0 13.801-6.179 13.801-13.801v-83.591c0-7.622-6.179-13.801-13.801-13.801z" fill="#ebf0f3"/><path d="m114.817 47.184h-21.054v-21.054h-19.521v21.054h-21.054v19.521h21.054v21.054h19.521v-21.054h21.054z" fill="#e56353"/></g></svg>