<svg height="512" viewBox="0 0 58 58" width="512" xmlns="http://www.w3.org/2000/svg"><g id="Page-1" fill="none" fill-rule="evenodd"><g id="054---Photo-Album" fill-rule="nonzero"><path id="Shape" d="m4 6h-2c-1.1045695 0-2 .8954305-2 2v48c0 1.1045695.8954305 2 2 2h54c1.1045695 0 2-.8954305 2-2v-48c0-1.1045695-.8954305-2-2-2h-2" fill="#c03a2b"/><path id="Shape" d="m29 6v48c0-3.3137085-2.6862915-6-6-6h-17c-1.10320187-.0032948-1.9967052-.8967981-2-2v-44c.0032948-1.10320187.89679813-1.9967052 2-2h17c3.3137085 0 6 2.6862915 6 6z" fill="#f5efca"/><path id="Shape" d="m29 54h-23c-1.10320187-.0032948-1.9967052-.8967981-2-2v-6c.0032948 1.1032019.89679813 1.9967052 2 2h17c3.3137085 0 6 2.6862915 6 6z" fill="#e4c05c"/><path id="Shape" d="m54 2v44c-.0032948 1.1032019-.8967981 1.9967052-2 2h-17c-3.3137085 0-6 2.6862915-6 6v-48c0-3.3137085 2.6862915-6 6-6h17c1.1032019.0032948 1.9967052.89679813 2 2z" fill="#f9eab0"/><path id="Shape" d="m54 46v6c-.0032948 1.1032019-.8967981 1.9967052-2 2h-23c0-3.3137085 2.6862915-6 6-6h17c1.1032019-.0032948 1.9967052-.8967981 2-2z" fill="#b19046"/><g fill="#fff"><rect id="Rectangle-path" height="15" rx="2" width="16" x="8" y="27"/><rect id="Rectangle-path" height="15" rx="2" width="16" x="34" y="27"/><rect id="Rectangle-path" height="15" rx="2" width="16" x="8" y="5"/><rect id="Rectangle-path" height="15" rx="2" width="16" x="34" y="5"/></g><path id="Shape" d="m16 8.863c.5947241-1.11295586 1.7387315-1.82338447 3-1.863 1.776 0 3 1.608 3 3.514 0 2.635-2.442 4.159-6 7.486-3.558-3.327-6-4.851-6-7.486 0-1.906 1.224-3.514 3-3.514 1.2612685.03961553 2.4052759.75004414 3 1.863z" fill="#df4d60"/><path id="Shape" d="m19.769 7.116c-.207 1.974-1.4 7.468-8.084 6.9-.1038087-.1025832-.201954-.2107433-.294-.324-.8543504-.8415515-1.3523847-1.979404-1.391-3.178 0-1.905 1.222-3.514 3-3.514 1.26148.03981678 2.4055372.75065762 3 1.864.5944628-1.11334238 1.73852-1.82418322 3-1.864.0454162-.00101889.0908499.00098553.136.006.2151481.00647015.4282823.0435077.633.11z" fill="#ff5364"/><path id="Shape" d="m42 8.863c.5947241-1.11295586 1.7387315-1.82338447 3-1.863 1.776 0 3 1.608 3 3.514 0 2.635-2.442 4.159-6 7.486-3.558-3.327-6-4.851-6-7.486 0-1.906 1.224-3.514 3-3.514 1.2612685.03961553 2.4052759.75004414 3 1.863z" fill="#df4d60"/><path id="Shape" d="m45.769 7.116c-.207 1.974-1.4 7.468-8.084 6.9-.1038087-.1025832-.201954-.2107433-.294-.324-.8543504-.8415515-1.3523847-1.979404-1.391-3.178 0-1.905 1.222-3.514 3-3.514 1.26148.03981678 2.4055372.75065762 3 1.864.5944628-1.11334238 1.73852-1.82418322 3-1.864.0454162-.00101889.0908499.00098553.136.006.2151481.00647015.4282823.0435077.633.11z" fill="#ff5364"/><path id="Shape" d="m16 30.863c.5947241-1.1129559 1.7387315-1.8233845 3-1.863 1.776 0 3 1.608 3 3.514 0 2.635-2.442 4.159-6 7.486-3.558-3.327-6-4.851-6-7.486 0-1.906 1.224-3.514 3-3.514 1.2612685.0396155 2.4052759.7500441 3 1.863z" fill="#df4d60"/><path id="Shape" d="m19.769 29.116c-.207 1.974-1.4 7.468-8.084 6.9-.1038087-.1025832-.201954-.2107433-.294-.324-.8543504-.8415515-1.3523847-1.979404-1.391-3.178 0-1.905 1.222-3.514 3-3.514 1.26148.0398168 2.4055372.7506576 3 1.864.5944628-1.1133424 1.73852-1.8241832 3-1.864.0454162-.0010189.0908499.0009855.136.006.2151481.0064701.4282823.0435077.633.11z" fill="#ff5364"/><path id="Shape" d="m42 30.863c.5947241-1.1129559 1.7387315-1.8233845 3-1.863 1.776 0 3 1.608 3 3.514 0 2.635-2.442 4.159-6 7.486-3.558-3.327-6-4.851-6-7.486 0-1.906 1.224-3.514 3-3.514 1.2612685.0396155 2.4052759.7500441 3 1.863z" fill="#df4d60"/><path id="Shape" d="m45.769 29.116c-.207 1.974-1.4 7.468-8.084 6.9-.1038087-.1025832-.201954-.2107433-.294-.324-.8543504-.8415515-1.3523847-1.979404-1.391-3.178 0-1.905 1.222-3.514 3-3.514 1.26148.0398168 2.4055372.7506576 3 1.864.5944628-1.1133424 1.73852-1.8241832 3-1.864.0454162-.0010189.0908499.0009855.136.006.2151481.0064701.4282823.0435077.633.11z" fill="#ff5364"/></g></g></svg>