<?xml version="1.0" encoding="iso-8859-1"?>
<!-- Generator: Adobe Illustrator 19.0.0, SVG Export Plug-In . SVG Version: 6.00 Build 0)  -->
<svg version="1.1" id="Capa_1" xmlns="http://www.w3.org/2000/svg" xmlns:xlink="http://www.w3.org/1999/xlink" x="0px" y="0px"
	 viewBox="0 0 512.016 512.016" style="enable-background:new 0 0 512.016 512.016;" xml:space="preserve">
<path style="fill:#F3C432;" d="M309.256,278.048c21.04,6.368,46.816,11.648,74.752,11.648c70.688,0,128-33.712,128-33.712
	s-57.312-33.712-128-33.712c-27.936,0-53.712,5.28-74.752,11.648c19.376-10.384,41.344-24.864,61.088-44.624
	c49.984-49.984,66.672-114.336,66.672-114.336s-64.352,16.688-114.336,66.672c-19.76,19.76-34.24,41.712-44.624,61.104
	c6.368-21.04,11.648-46.816,11.648-74.752C289.72,57.312,256.008,0,256.008,0s-33.712,57.312-33.712,128
	c0,27.936,5.28,53.712,11.648,74.752c-10.384-19.376-24.864-41.344-44.624-61.088c-49.984-50-114.336-66.688-114.336-66.688
	s16.688,64.352,66.672,114.336c19.76,19.76,41.712,34.24,61.088,44.624c-21.024-6.352-46.8-11.648-74.736-11.648
	c-70.688,0-128,33.712-128,33.712s57.312,33.712,128,33.712c27.936,0,53.712-5.28,74.752-11.648
	c-19.392,10.384-41.344,24.864-61.104,44.624c-49.984,49.984-66.672,114.336-66.672,114.336s64.352-16.688,114.336-66.672
	c19.76-19.76,34.24-41.712,44.624-61.088c-6.368,21.04-11.648,46.816-11.648,74.752c0,70.688,33.712,128,33.712,128
	s33.712-57.312,33.712-128c0-27.936-5.28-53.712-11.648-74.752c10.384,19.392,24.864,41.344,44.624,61.104
	c49.984,49.984,114.336,66.672,114.336,66.672s-16.688-64.352-66.672-114.336C350.6,302.928,328.632,288.432,309.256,278.048z"/>
<path style="fill:#FFD83B;" d="M295.864,297.632c16.704,14.304,38.16,29.52,63.728,40.768
	c64.704,28.48,130.736,20.704,130.736,20.704s-38.88-53.936-103.584-82.4c-25.568-11.248-51.28-16.8-73.104-19.44
	c21.92-1.696,47.856-6.112,73.888-16.24c65.888-25.616,107.088-77.808,107.088-77.808s-65.632-10.64-131.52,14.976
	c-26.048,10.128-48.144,24.384-65.456,37.952c14.304-16.704,29.52-38.16,40.768-63.728c28.48-64.704,20.704-130.736,20.704-130.736
	s-53.936,38.88-82.4,103.584c-11.248,25.568-16.8,51.28-19.456,73.12c-1.696-21.92-6.112-47.856-16.24-73.888
	C215.4,58.608,163.224,17.408,163.224,17.408s-10.64,65.632,14.976,131.52c10.128,26.032,24.384,48.144,37.952,65.456
	c-16.704-14.304-38.16-29.52-63.728-40.768C87.72,145.12,21.688,152.88,21.688,152.88s38.88,53.936,103.584,82.4
	c25.568,11.248,51.296,16.8,73.12,19.456c-21.92,1.696-47.856,6.112-73.904,16.24C58.6,296.592,17.4,348.768,17.4,348.768
	s65.632,10.64,131.52-14.976c26.032-10.128,48.144-24.384,65.456-37.952c-14.304,16.704-29.52,38.16-40.768,63.728
	c-28.48,64.704-20.704,130.736-20.704,130.736s53.936-38.88,82.4-103.584c11.248-25.568,16.8-51.28,19.456-73.12
	c1.696,21.92,6.112,47.856,16.24,73.904c25.616,65.888,77.792,107.088,77.792,107.088s10.64-65.632-14.976-131.52
	C323.688,337.04,309.416,314.944,295.864,297.632z"/>
<circle style="fill:#FFFFFF;" cx="256.008" cy="256" r="74.576"/>
<circle style="fill:#8E6D53;" cx="256.008" cy="256" r="48.56"/>
<g>
</g>
<g>
</g>
<g>
</g>
<g>
</g>
<g>
</g>
<g>
</g>
<g>
</g>
<g>
</g>
<g>
</g>
<g>
</g>
<g>
</g>
<g>
</g>
<g>
</g>
<g>
</g>
<g>
</g>
</svg>
