<?xml version="1.0" encoding="iso-8859-1"?>
<!-- Generator: Adobe Illustrator 19.0.0, SVG Export Plug-In . SVG Version: 6.00 Build 0)  -->
<svg version="1.1" id="Capa_1" xmlns="http://www.w3.org/2000/svg" xmlns:xlink="http://www.w3.org/1999/xlink" x="0px" y="0px"
	 viewBox="0 0 468.293 468.293" style="enable-background:new 0 0 468.293 468.293;" xml:space="preserve">
<path style="fill:#D5D6DB;" d="M27.223,176.599v89.038H12.488C5.619,265.637,0,260.018,0,253.15v-64.063
	c0-6.868,5.619-12.488,12.488-12.488H27.223z"/>
<path style="fill:#EBF0F3;" d="M420.401,374.656c0,3.496,0.75,6.805,2.061,9.74L133.994,282.871
	c0.188-0.624,0.312-1.249,0.312-1.935V161.301c0-0.686-0.124-1.311-0.312-1.935L422.462,57.84c-1.311,2.998-2.061,6.306-2.061,9.74
	V374.656z"/>
<g>
	<path style="fill:#27A2DB;" d="M468.293,67.58v307.076c0,13.236-10.678,23.913-23.915,23.913c-9.741,0-18.169-5.806-21.916-14.173
		c-1.311-2.935-2.061-6.244-2.061-9.74V67.58c0-3.434,0.75-6.742,2.061-9.74c1.186-2.685,2.872-5.12,4.933-7.181
		c4.37-4.308,10.364-6.992,16.983-6.992C457.614,43.667,468.293,54.406,468.293,67.58z"/>
	<path style="fill:#27A2DB;" d="M134.306,161.301v119.634c0,0.686-0.124,1.311-0.312,1.935c-0.813,2.498-3.184,4.309-5.932,4.309
		H39.71c-6.93,0-12.488-5.62-12.488-12.488V167.545c0-6.867,5.558-12.488,12.488-12.488h88.351c2.748,0,5.12,1.811,5.932,4.309
		C134.181,159.99,134.306,160.615,134.306,161.301z"/>
</g>
<path style="fill:#1C75A1;" d="M116.937,424.626H69.125c-5.223,0-9.457-4.234-9.457-9.457V287.18h42.162v95.209h0
	c14.557,4.253,24.563,17.601,24.563,32.767v0.013C126.393,420.392,122.159,424.626,116.937,424.626z"/>
<path style="fill:#44C4A1;" d="M101.78,363.86h4.123c3.448,0,6.244-2.795,6.244-6.244v-4.019c0-3.448-2.795-6.244-6.244-6.244
	h-4.123V363.86z"/>
<path style="fill:#E56353;" d="M101.78,335.071h4.123c3.448,0,6.244-2.796,6.244-6.244v-4.019c0-3.448-2.795-6.244-6.244-6.244
	h-4.123V335.071z"/>
<g>
</g>
<g>
</g>
<g>
</g>
<g>
</g>
<g>
</g>
<g>
</g>
<g>
</g>
<g>
</g>
<g>
</g>
<g>
</g>
<g>
</g>
<g>
</g>
<g>
</g>
<g>
</g>
<g>
</g>
</svg>
