<?xml version="1.0" encoding="iso-8859-1"?>
<!-- Generator: Adobe Illustrator 19.0.0, SVG Export Plug-In . SVG Version: 6.00 Build 0)  -->
<svg version="1.1" id="Layer_1" xmlns="http://www.w3.org/2000/svg" xmlns:xlink="http://www.w3.org/1999/xlink" x="0px" y="0px"
	 viewBox="0 0 512 512" style="enable-background:new 0 0 512 512;" xml:space="preserve">
<path style="fill:#A1401D;" d="M505.787,318.397h-33.391c0-101.074-59.866-192.522-152.515-232.974l13.361-30.601
	C438.058,100.587,505.787,204.046,505.787,318.397z"/>
<path style="fill:#E9E9EA;" d="M449.74,317.71c0-83.684-46.359-156.531-114.79-194.29H121.002
	C52.572,161.18,6.213,234.027,6.213,317.71S52.572,474.242,121.002,512h213.947C403.381,474.242,449.74,401.395,449.74,317.71z"/>
<path style="fill:#C8C8CB;" d="M449.74,317.71c0-83.684-46.359-156.531-114.79-194.29H227.976c0,48.632,0,308.241,0,388.578H334.95
	C403.381,474.242,449.74,401.395,449.74,317.71z"/>
<polygon style="fill:#E27E4F;" points="58.434,0 121.002,123.422 334.95,123.422 334.95,25.126 "/>
<polygon style="fill:#DC5323;" points="227.977,15.406 227.977,123.422 334.95,123.422 334.95,25.126 "/>
<path style="fill:#744E12;" d="M6.276,322.783C8.107,404.331,53.958,475.007,121.002,512H334.95
	c67.044-36.993,112.895-107.669,114.726-189.217L6.276,322.783L6.276,322.783z"/>
<path style="fill:#3D2B0C;" d="M227.977,322.783c0,0,0,134.915,0,189.217H334.95c67.044-36.993,112.895-107.669,114.726-189.217
	L227.977,322.783L227.977,322.783z"/>
<g>
</g>
<g>
</g>
<g>
</g>
<g>
</g>
<g>
</g>
<g>
</g>
<g>
</g>
<g>
</g>
<g>
</g>
<g>
</g>
<g>
</g>
<g>
</g>
<g>
</g>
<g>
</g>
<g>
</g>
</svg>
