<?xml version="1.0" encoding="iso-8859-1"?>
<!-- Generator: Adobe Illustrator 19.0.0, SVG Export Plug-In . SVG Version: 6.00 Build 0)  -->
<svg version="1.1" id="Capa_1" xmlns="http://www.w3.org/2000/svg" xmlns:xlink="http://www.w3.org/1999/xlink" x="0px" y="0px"
	 viewBox="0 0 468.293 468.293" style="enable-background:new 0 0 468.293 468.293;" xml:space="preserve">
<path style="fill:#F6C358;" d="M112.836,28.469L43.251,98.053c-5.59,5.59-12.988,4.344-16.438-2.769l-9.326-19.227
	c-9.585-19.76-5.598-43.423,9.931-58.953l0,0C42.948,1.575,66.611-2.412,86.371,7.173l24.912,12.083
	C115.271,21.19,115.969,25.336,112.836,28.469z"/>
<rect x="82.864" y="59.999" transform="matrix(-0.7071 0.7071 -0.7071 -0.7071 207.9067 71.5311)" style="fill:#2F4859;" width="12.55" height="37.651"/>
<path style="fill:#F6C358;" d="M359.924,32.936l69.585,69.584c3.133,3.133,7.279,2.435,9.213-1.552l12.083-24.912
	c9.585-19.76,5.598-43.423-9.931-58.953l0,0c-15.53-15.529-39.192-19.516-58.953-9.931l-19.228,9.326
	C355.58,19.949,354.334,27.346,359.924,32.936z"/>
<g>
	
		<rect x="360.346" y="72.572" transform="matrix(-0.7071 0.7071 -0.7071 -0.7071 703.0375 -133.5165)" style="fill:#2F4859;" width="37.651" height="12.55"/>
	<path style="fill:#2F4859;" d="M239.978,0c-27.054,0-49.15,21.28-50.594,47.895c4.206-0.942,8.537-1.758,12.868-2.448
		c2.512-18.518,18.455-32.892,37.726-32.892c20.025,0,36.471,15.567,37.977,35.152c4.268,0.942,8.537,2.009,12.68,3.201v-0.251
		C290.636,22.723,267.975,0,239.978,0z"/>
	<path style="fill:#2F4859;" d="M438.153,247.008c0-93.091-62.332-171.619-147.514-196.1c-4.143-1.193-8.412-2.26-12.681-3.202
		c-14.123-3.076-28.749-4.708-43.814-4.708c-10.86,0-21.53,0.816-31.889,2.448c-4.331,0.69-8.662,1.506-12.868,2.448
		C98.242,68.296,30.135,149.711,30.135,247.008c0,71.51,36.816,134.382,92.499,170.807L99.02,453.178
		c-4.313,6.458,0.316,15.115,8.081,15.115h27.213c5.367,0,9.718-4.351,9.718-9.718v-28.526
		c27.179,13.405,57.756,20.968,90.112,20.968s62.933-7.563,90.112-20.968v28.526c0,5.367,4.351,9.718,9.718,9.718h27.213
		c7.765,0,12.394-8.657,8.081-15.115l-23.614-35.363C401.337,381.39,438.153,318.517,438.153,247.008z"/>
</g>
<circle style="fill:#E1E6E9;" cx="234.146" cy="247.009" r="172.625"/>
<g>
	<path style="fill:#1C75A1;" d="M243.507,118.91V225.93c-2.934-0.937-6.119-1.436-9.366-1.436s-6.431,0.499-9.366,1.436V118.91
		c0-5.182,4.183-9.366,9.366-9.366C239.323,109.544,243.507,113.727,243.507,118.91z"/>
	<path style="fill:#1C75A1;" d="M202.797,255.838c0,3.247,0.5,6.431,1.436,9.366h-71.805c-5.12,0-9.366-4.183-9.366-9.366
		c0-5.182,4.245-9.366,9.366-9.366h71.805C203.297,249.407,202.797,252.592,202.797,255.838z"/>
</g>
<path style="fill:#E56353;" d="M332.483,348.373c-2.435,2.435-6.369,2.435-8.804,0l-68.932-68.933
	c3.184-2.747,5.806-6.181,7.617-10.053l70.119,70.119C334.917,341.942,334.917,345.938,332.483,348.373z"/>
<path style="fill:#2F4859;" d="M265.486,255.838c0,4.87-1.124,9.428-3.122,13.55c-1.811,3.871-4.433,7.305-7.617,10.053
	c-5.495,4.808-12.738,7.742-20.605,7.742c-14.049,0-25.912-9.241-29.909-21.979c-0.936-2.934-1.436-6.119-1.436-9.366
	c0-3.247,0.5-6.431,1.436-9.366c3.059-9.803,10.802-17.483,20.543-20.542c2.934-0.937,6.119-1.436,9.366-1.436
	s6.431,0.499,9.366,1.436C256.245,229.926,265.486,241.79,265.486,255.838z"/>
<path style="fill:#64798A;" d="M234.138,274.696c-8.28,0-15.506-5.317-17.988-13.226c-0.573-1.799-0.866-3.723-0.866-5.631
	c0-1.912,0.293-3.832,0.841-5.558c1.86-5.966,6.482-10.582,12.39-12.436c1.787-0.57,3.707-0.863,5.622-0.863
	c1.915,0,3.841,0.29,5.561,0.841c7.982,2.503,13.299,9.735,13.299,18.015c0,2.817-0.628,5.54-1.872,8.098
	c-1.122,2.396-2.665,4.43-4.537,6.049C243.095,273.041,238.693,274.696,234.138,274.696z"/>
<g>
	<path style="fill:#E56353;" d="M234.144,86.873L234.144,86.873c-3.448,0-6.244-2.795-6.244-6.244v-6.244h12.488v6.244
		C240.388,84.077,237.593,86.873,234.144,86.873z"/>
	<path style="fill:#E56353;" d="M234.144,407.143L234.144,407.143c3.448,0,6.244,2.796,6.244,6.244v6.244H227.9v-6.244
		C227.9,409.939,230.696,407.143,234.144,407.143z"/>
	<path style="fill:#E56353;" d="M347.378,133.775L347.378,133.775c-2.439-2.438-2.439-6.392,0-8.83l4.415-4.415l8.831,8.83
		l-4.415,4.415C353.769,136.213,349.816,136.213,347.378,133.775z"/>
	<path style="fill:#E56353;" d="M120.919,360.236L120.919,360.236c2.439,2.438,2.439,6.392,0,8.83l-4.415,4.415l-8.83-8.83
		l4.415-4.415C114.527,357.798,118.48,357.798,120.919,360.236z"/>
	<path style="fill:#E56353;" d="M394.284,247.006L394.284,247.006c0-3.448,2.795-6.244,6.244-6.244l6.243,0l0.001,12.488l-6.244,0
		C397.08,253.249,394.284,250.454,394.284,247.006z"/>
	<path style="fill:#E56353;" d="M74.021,247.007L74.021,247.007c0,3.449-2.795,6.244-6.244,6.244l-6.243,0l-0.001-12.488l6.244,0
		C71.226,240.764,74.021,243.559,74.021,247.007z"/>
	<path style="fill:#E56353;" d="M347.389,360.238L347.389,360.238c2.438-2.439,6.392-2.439,8.83,0l4.415,4.415l-8.829,8.83
		l-4.415-4.415C344.951,366.629,344.951,362.676,347.389,360.238z"/>
	<path style="fill:#E56353;" d="M120.921,133.783L120.921,133.783c-2.438,2.439-6.392,2.439-8.83,0l-4.415-4.415l8.829-8.83
		l4.415,4.415C123.359,127.392,123.359,131.345,120.921,133.783z"/>
</g>
<g>
</g>
<g>
</g>
<g>
</g>
<g>
</g>
<g>
</g>
<g>
</g>
<g>
</g>
<g>
</g>
<g>
</g>
<g>
</g>
<g>
</g>
<g>
</g>
<g>
</g>
<g>
</g>
<g>
</g>
</svg>
