<?xml version="1.0" encoding="iso-8859-1"?>
<!-- Generator: Adobe Illustrator 19.0.0, SVG Export Plug-In . SVG Version: 6.00 Build 0)  -->
<svg version="1.1" id="Capa_1" xmlns="http://www.w3.org/2000/svg" xmlns:xlink="http://www.w3.org/1999/xlink" x="0px" y="0px"
	 viewBox="0 0 499.671 499.671" style="enable-background:new 0 0 499.671 499.671;" xml:space="preserve">
<path style="fill:#2F4859;" d="M177.51,112.73V74.354c0-16.427,13.36-29.787,29.787-29.787h85.073
	c16.427,0,29.793,13.36,29.793,29.787v38.376h31.22V74.354c0-33.64-27.372-61.006-61.012-61.006h-85.073
	c-33.64,0-61.006,27.366-61.006,61.006v38.376H177.51z"/>
<path style="fill:#64798A;" d="M25.575,196.924v270.668c0,10.345,8.386,18.732,18.732,18.732h411.057
	c10.345,0,18.732-8.387,18.732-18.732V196.924H25.575z"/>
<polygon style="fill:#D5D6DB;" points="357.803,232.665 357.803,298.226 382.779,323.202 407.754,298.226 407.754,232.665 "/>
<circle style="fill:#EBF0F3;" cx="382.768" cy="289.609" r="11.32"/>
<polygon style="fill:#D5D6DB;" points="91.917,232.665 91.917,298.226 116.893,323.202 141.868,298.226 141.868,232.665 "/>
<circle style="fill:#EBF0F3;" cx="116.891" cy="289.609" r="11.32"/>
<path style="fill:#2F4859;" d="M0,109.608V257.38h499.671V109.608c0-10.345-8.386-18.732-18.732-18.732H18.732
	C8.386,90.876,0,99.263,0,109.608z"/>
<g>
</g>
<g>
</g>
<g>
</g>
<g>
</g>
<g>
</g>
<g>
</g>
<g>
</g>
<g>
</g>
<g>
</g>
<g>
</g>
<g>
</g>
<g>
</g>
<g>
</g>
<g>
</g>
<g>
</g>
</svg>
