<svg enable-background="new 0 0 24 24" height="512" viewBox="0 0 24 24" width="512" xmlns="http://www.w3.org/2000/svg"><path d="m21.25 4h-18.5c-1.517 0-2.75 1.233-2.75 2.75v10.5c0 1.517 1.233 2.75 2.75 2.75h18.5c1.517 0 2.75-1.233 2.75-2.75v-10.5c0-1.517-1.233-2.75-2.75-2.75z" fill="#ffc107"/><path d="m20.25 8h-4.5c-.414 0-.75.336-.75.75v4.5c0 .414.336.75.75.75h4.5c.414 0 .75-.336.75-.75v-4.5c0-.414-.336-.75-.75-.75z" fill="#fafafa"/><g fill="#ffa000"><path d="m8.25 13.5h-4.5c-.414 0-.75-.336-.75-.75s.336-.75.75-.75h4.5c.414 0 .75.336.75.75s-.336.75-.75.75z"/><path d="m12.25 16.5h-8.5c-.414 0-.75-.336-.75-.75s.336-.75.75-.75h8.5c.414 0 .75.336.75.75s-.336.75-.75.75z"/></g></svg>