<svg id="color" enable-background="new 0 0 24 24" height="512" viewBox="0 0 24 24" width="512" xmlns="http://www.w3.org/2000/svg"><path d="m17.5 11c-3.584 0-6.5 2.916-6.5 6.5s2.916 6.5 6.5 6.5 6.5-2.916 6.5-6.5-2.916-6.5-6.5-6.5zm2.53 7.78-2 2c-.146.147-.338.22-.53.22s-.384-.073-.53-.22l-2-2c-.293-.293-.293-.768 0-1.061s.768-.293 1.061 0l.72.72v-3.689c0-.414.336-.75.75-.75s.75.336.75.75v3.689l.72-.72c.293-.293.768-.293 1.061 0s.291.768-.002 1.061z" fill="#8bc34a"/><path d="m17.503 9c1.306 0 2.54.305 3.647.834.691-.852 1.148-1.871 1.298-2.982.499-3.69-2.383-6.852-5.971-6.852-3.215 0-4.674 2.317-5.224 2.732-.527-.398-2.046-2.732-5.224-2.732-5.346 0-8.042 6.518-4.261 10.306l7.238 7.253c0-.02-.003-.039-.003-.059 0-4.687 3.813-8.5 8.5-8.5z" fill="#f44336"/></svg>