<?xml version="1.0" encoding="iso-8859-1"?>
<!-- Generator: Adobe Illustrator 19.0.0, SVG Export Plug-In . SVG Version: 6.00 Build 0)  -->
<svg version="1.1" id="Capa_1" xmlns="http://www.w3.org/2000/svg" xmlns:xlink="http://www.w3.org/1999/xlink" x="0px" y="0px"
	 viewBox="0 0 512 512" style="enable-background:new 0 0 512 512;" xml:space="preserve">
<path style="fill:#F2F2F2;" d="M193.824,123.061V48h124.341v75.061h26.667V37.333c0-8.832-7.157-16-16-16H183.157
	c-8.832,0-16,7.168-16,16v85.728H193.824z"/>
<path style="fill:#334A5E;" d="M480,99.509H32c-17.675,0-32,14.325-32,32v327.157c0,17.675,14.325,32,32,32h448
	c17.675,0,32-14.325,32-32V131.509C512,113.835,497.675,99.509,480,99.509"/>
<path style="fill:#40596B;" d="M480,99.509H32c-17.675,0-32,14.325-32,32v144.117h512V131.509
	C512,113.835,497.675,99.509,480,99.509"/>
<rect x="94.187" y="99.509" style="fill:#FFD15C;" width="39.637" height="247.573"/>
<path style="fill:#F8B64C;" d="M139.861,349.44v-46.773c0-2.891-2.357-5.248-5.259-5.248H93.387c-2.891,0-5.248,2.357-5.248,5.248
	v46.773c0,2.891,2.357,5.248,5.248,5.248h41.216C137.515,354.688,139.861,352.331,139.861,349.44"/>
<rect x="378.187" y="99.509" style="fill:#FFD15C;" width="39.637" height="247.573"/>
<path style="fill:#F8B64C;" d="M423.861,349.44v-46.773c0-2.891-2.357-5.248-5.259-5.248h-41.216c-2.891,0-5.248,2.357-5.248,5.248
	v46.773c0,2.891,2.357,5.248,5.248,5.248h41.216C421.515,354.688,423.861,352.331,423.861,349.44"/>
<g>
</g>
<g>
</g>
<g>
</g>
<g>
</g>
<g>
</g>
<g>
</g>
<g>
</g>
<g>
</g>
<g>
</g>
<g>
</g>
<g>
</g>
<g>
</g>
<g>
</g>
<g>
</g>
<g>
</g>
</svg>
