<?xml version="1.0" encoding="iso-8859-1"?>
<!-- Generator: Adobe Illustrator 19.0.0, SVG Export Plug-In . SVG Version: 6.00 Build 0)  -->
<svg version="1.1" id="Capa_1" xmlns="http://www.w3.org/2000/svg" xmlns:xlink="http://www.w3.org/1999/xlink" x="0px" y="0px"
	 viewBox="0 0 511.968 511.968" style="enable-background:new 0 0 511.968 511.968;" xml:space="preserve">
<g>
	<path style="fill:#F2992D;" d="M178.864,333.104c-37.088,2.16-68.4-0.416-93.952-6.272C23.152,425.184,86.768,488.8,185.12,427.04
		C179.28,401.504,176.688,370.192,178.864,333.104z"/>
	<path style="fill:#F2992D;" d="M333.104,178.864c37.088-2.16,68.4,0.416,93.952,6.272c61.76-98.352-1.856-161.968-100.208-100.208
		C332.688,110.464,335.264,141.776,333.104,178.864z"/>
	<path style="fill:#F2992D;" d="M178.864,178.864c-2.16-37.088,0.416-68.4,6.272-93.952C86.784,23.152,23.168,86.768,84.928,185.12
		C110.464,179.28,141.776,176.688,178.864,178.864z"/>
	<path style="fill:#F2992D;" d="M333.104,333.104c2.16,37.088-0.416,68.4-6.272,93.952c98.352,61.76,161.968-1.856,100.208-100.208
		C401.504,332.688,370.192,335.264,333.104,333.104z"/>
	<path style="fill:#F2992D;" d="M255.984,146.912c24.704-27.76,48.656-48.064,70.864-62c-25.872-113.216-115.84-113.216-141.728,0
		C207.328,98.848,231.28,119.152,255.984,146.912z"/>
	<path style="fill:#F2992D;" d="M427.056,185.12c-13.936,22.208-34.24,46.16-62,70.864c27.76,24.704,48.064,48.656,62,70.864
		C540.272,300.96,540.272,211.008,427.056,185.12z"/>
	<path style="fill:#F2992D;" d="M255.984,365.056c-24.704,27.76-48.656,48.064-70.864,62c25.888,113.216,115.84,113.216,141.728,0
		C304.64,413.12,280.672,392.816,255.984,365.056z"/>
	<path style="fill:#F2992D;" d="M146.912,255.984c-27.76-24.704-48.064-48.656-62-70.864c-113.216,25.888-113.216,115.84,0,141.728
		C98.848,304.64,119.152,280.672,146.912,255.984z"/>
</g>
<path style="fill:#DF8726;" d="M365.056,255.984c27.76-24.704,48.064-48.656,62-70.864c-25.552-5.84-56.864-8.432-93.952-6.272
	c2.16-37.088-0.416-68.4-6.272-93.952c-22.192,13.952-46.16,34.256-70.848,62.016c-24.704-27.76-48.656-48.064-70.864-62
	c-5.84,25.552-8.432,56.864-6.272,93.952c-37.088-2.16-68.4,0.416-93.952,6.272c13.936,22.208,34.24,46.16,62,70.864
	c-27.76,24.704-48.064,48.656-62,70.864c25.552,5.84,56.864,8.432,93.952,6.272c-2.16,37.088,0.416,68.4,6.272,93.952
	c22.208-13.936,46.16-34.24,70.864-62c24.704,27.76,48.656,48.064,70.864,62c5.84-25.552,8.432-56.864,6.272-93.952
	c37.088,2.16,68.4-0.416,93.952-6.272C413.12,304.64,392.816,280.672,365.056,255.984z"/>
<circle style="fill:#FFFFFF;" cx="255.984" cy="255.984" r="83.12"/>
<circle style="fill:#FFD93B;" cx="255.984" cy="255.984" r="47.568"/>
<g>
</g>
<g>
</g>
<g>
</g>
<g>
</g>
<g>
</g>
<g>
</g>
<g>
</g>
<g>
</g>
<g>
</g>
<g>
</g>
<g>
</g>
<g>
</g>
<g>
</g>
<g>
</g>
<g>
</g>
</svg>
