<?xml version="1.0" encoding="iso-8859-1"?>
<!-- Generator: Adobe Illustrator 19.0.0, SVG Export Plug-In . SVG Version: 6.00 Build 0)  -->
<svg version="1.1" id="Capa_1" xmlns="http://www.w3.org/2000/svg" xmlns:xlink="http://www.w3.org/1999/xlink" x="0px" y="0px"
	 viewBox="0 0 505.408 505.408" style="enable-background:new 0 0 505.408 505.408;" xml:space="preserve">
<path style="fill:#FFCC5B;" d="M476.704,76.16v42.4h-448v-42.4c0-17.6,14.24-32,32-32h26.4c8.832,0,16-7.168,16-16V16
	c0-8.96,7.2-16,16-16h100.32c8.8,0,16,7.04,16,16v12.16c0,8.832,7.168,16,16,16h193.28C462.304,44.16,476.704,58.56,476.704,76.16z"
	/>
<path style="fill:#FDBC4B;" d="M28.704,118.608v260.576c0,17.68,14.32,32,32,32h106.528v-103.36h160.672v103.36h116.8
	c17.68,0,32-14.32,32-32V118.608H28.704z"/>
<path style="fill:#F9B444;" d="M290.832,118.608c-12.096,0-21.904,9.808-21.904,21.904s9.808,21.904,21.904,21.904h29.296
	c10.128,0,18.368,8.288,18.32,18.416v0.24c0,0.448,0.016,0.896,0.048,1.344c0.608,9.984-7.312,18.4-17.328,18.4h-69.984
	c-11.856,0-22.496,8.88-23.12,20.72c-0.656,12.64,9.392,23.088,21.872,23.088h43.168c10.176,0,18.416,8.288,18.368,18.464v1.264
	v0.256c0.064,10.704-8.656,19.472-19.36,19.472h-4.464c-11.856,0-22.496,8.88-23.12,20.72c-0.656,12.64,9.392,23.088,21.872,23.088
	h44.944c10.592,0,18.48,8.896,18.352,19.472c0,0.08,0,0.176,0,0.256s0,0.176,0,0.256c0.128,10.592-7.76,19.472-18.352,19.472
	h-18.096c-11.856,0-22.496,8.88-23.12,20.72c-0.656,12.64,9.392,23.088,21.872,23.088h132.704c17.68,0,32-14.32,32-32V118.608
	H290.832z"/>
<path style="fill:#FFFFFF;" d="M424.352,76.784H81.056c-8.832,0-16,7.168-16,16v25.824h375.296V92.784
	C440.352,83.952,433.184,76.784,424.352,76.784z"/>
<g style="opacity:0.1;">
	<rect x="28.704" y="104.24" style="fill:#010101;" width="448" height="14.336"/>
</g>
<g style="opacity:0.07;">
	<path style="fill:#010101;" d="M475.008,389.024l-140.48-216.896l-93.984-17.536l-53.36,45.616
		c7.856,2.352-13.584,31.296-13.68,40.064c0,0.08-21.568,38.112,29.168,81.536c0.064,0.048,147.04,26,147.04,26.096
		c0.08,7.088-3.616,13.152-9.12,16.56l5.488,46.72h98.624C458.928,411.184,470.832,401.84,475.008,389.024z"/>
</g>
<path style="fill:#FEE218;" d="M329.184,392.608h-152.96v-37.312h152.96V392.608z M177.824,391.008H327.6V356.88H177.824V391.008z"
	/>
<path style="fill:#F3F3F3;" d="M358.688,239.44c0-58.448-47.536-106-105.984-106s-105.984,47.552-105.984,106v117.776h20.224
	V239.424c0-47.36,38.4-85.76,85.76-85.76s85.76,38.4,85.76,85.76V357.2h20.224V239.44z"/>
<path style="fill:#FFFFFF;" d="M252.704,153.664c-47.36,0-85.76,38.4-85.76,85.76V357.2h171.52V239.424
	C338.464,192.064,300.064,153.664,252.704,153.664z M187.184,316.752V239.44c0-36.144,29.392-65.536,65.52-65.536
	s65.52,29.392,65.52,65.536v77.312L187.184,316.752L187.184,316.752z"/>
<path style="fill:#3789C9;" d="M359.984,505.408h-214.56c-17.68,0-32-14.32-32-32v-151.92c0-17.68,14.32-32,32-32h214.56
	c17.68,0,32,14.32,32,32v151.92C391.984,491.072,377.664,505.408,359.984,505.408z"/>
<path style="fill:#4B9FD8;" d="M145.424,289.472h57.232c8.928,0,16.16,7.232,16.16,16.16s-7.232,16.16-16.16,16.16H181.04
	c-7.472,0-13.552,6.112-13.52,13.584v0.176c0,0.336-0.016,0.656-0.032,0.992c-0.448,7.376,5.408,13.584,12.784,13.584h36.208
	c8.752,0,16.592,6.56,17.056,15.296c0.496,9.328-6.928,17.04-16.144,17.04h-16.416c-7.52,0-13.6,6.112-13.552,13.632v0.944v0.192
	c-0.048,7.904,6.384,14.368,14.288,14.368h3.296c8.752,0,16.592,6.56,17.056,15.296c0.496,9.328-6.928,17.04-16.144,17.04h-33.168
	c-7.808,0-13.632,6.56-13.552,14.368c0,0.064,0,0.128,0,0.192s0,0.128,0,0.192c-0.096,7.808,5.728,14.368,13.552,14.368h13.36
	c8.752,0,16.592,6.56,17.056,15.296c0.496,9.328-6.928,17.04-16.144,17.04h-41.6c-17.68,0-32-14.32-32-32v-151.92
	C113.424,303.808,127.744,289.472,145.424,289.472z"/>
<path style="fill:#464646;" d="M282.48,379.92c0-16.448-13.328-29.776-29.776-29.776s-29.776,13.328-29.776,29.776
	c0,10.432,5.392,19.584,13.504,24.896l-6.864,39.92h46.24l-6.864-39.92C277.088,399.504,282.48,390.352,282.48,379.92z"/>
<g>
</g>
<g>
</g>
<g>
</g>
<g>
</g>
<g>
</g>
<g>
</g>
<g>
</g>
<g>
</g>
<g>
</g>
<g>
</g>
<g>
</g>
<g>
</g>
<g>
</g>
<g>
</g>
<g>
</g>
</svg>
