<svg id="Capa_1" enable-background="new 0 0 426.703 426.703" height="512" viewBox="0 0 426.703 426.703" width="512" xmlns="http://www.w3.org/2000/svg"><g><g fill="#62667c"><path d="m374.666 115.97v208.668h-137.659l-5.724 22.251h-59.156l-5.724-22.251h-137.658v-208.668c.02-9.599 7.797-17.376 17.396-17.396h311.139c9.599-.003 17.383 7.776 17.386 17.375z"/><path d="m170.447 333.057h-141.702v-8.404h137.664z"/><path d="m374.676 324.653v8.404h-141.701l4.032-8.404z"/></g><path d="m356.786 119.867v186.891h-310.14v-186.891c0-1.871 1.517-3.388 3.388-3.388h303.365c1.87.001 3.387 1.517 3.387 3.388z" fill="#69b0ee"/><path d="m403.422 330.284v5.547c0 11.559-9.37 20.929-20.929 20.929-.007 0-.014 0-.021 0h-361.543c-11.559 0-20.929-9.37-20.929-20.929v-5.547c0-3.11 2.521-5.63 5.63-5.63h160.794l5.724 12.021h59.166l5.724-12.021h160.794c3.094.022 5.59 2.536 5.59 5.63z" fill="#525666"/><path d="m426.703 122.505c0 29.037-31.295 52.557-69.917 52.557-10.484.047-20.894-1.768-30.743-5.36-21.991 15.949-37.597 10.1-37.597 10.1 7.732-5.332 13.607-12.945 16.803-21.777-11.206-8.434-17.969-21.506-18.379-35.526 0-29.057 31.295-52.557 69.917-52.557s69.916 23.506 69.916 52.563z" fill="#eeefee"/><circle cx="394.914" cy="122.505" fill="#62667c" r="7.956"/><circle cx="356.786" cy="122.505" fill="#62667c" r="7.956"/><circle cx="318.653" cy="122.505" fill="#62667c" r="7.956"/></g></svg>