<svg height="512" viewBox="0 0 58 58" width="512" xmlns="http://www.w3.org/2000/svg"><g id="Page-1" fill="none" fill-rule="evenodd"><g id="056---Meal" fill-rule="nonzero"><circle id="Oval" cx="29" cy="29" fill="#b0d3f0" r="29"/><circle id="Oval" cx="29" cy="29" fill="#90bae1" r="19"/><path id="Shape" d="m27.77 36.85 17.98 19.62.09.11c.8905963.905017 2.1061024 1.4163389 3.3758281 1.4200954 1.2697257.0037566 2.4882361-.500364 3.3841719-1.4000954.9159501-.9215734 1.4208491-2.1740315 1.4001377-3.4731978-.0207113-1.2991664-.565277-2.5348939-1.5101377-3.4268022l-19.37-18.58-4.81-4.61-26.22-25.15c-.34694534-.35152879-.87149985-.45941653-1.32901605-.27334535s-.75787192.62944873-.76098395 1.12334535c.06 10.64 8.43 21.03 12.85 25.17 2.5603814 2.5954306 5.9361759 4.2303603 9.56 4.63z" fill="#556080"/><path id="Shape" d="m58 12.89c.0044239.5299291-.2004052 1.0402052-.57 1.42l-12.47 12.48c-1.5681604 1.5598421-4.1018396 1.5598421-5.67 0l-1.09-1.09-28.82 30.86c-1.1221668 1.2017682-2.80631025 1.7030514-4.40300935 1.3105502-1.59669909-.3925011-2.85649588-1.6174648-3.29360128-3.2025339s.01677111-3.2826027 1.18661063-4.4380163l.09-.09 30.88-28.8-1.63-1.63c-1.5598421-1.5681604-1.5598421-4.1018396 0-5.67l12.4-12.4c.7364023-.76770496 1.9356709-.84996526 2.77-.19.4185838.36519391.6701398.88529356.6965622 1.44016371.0264223.55487014-.1745741 1.0965199-.5565622 1.49983629l-10 10c-.5881832.5881833-.5881832 1.5418167 0 2.13.5881833.5881832 1.5418167.5881832 2.13 0l9.92-9.92c.4912402-.51982143 1.2224863-.73808273 1.9182849-.57256696.6957987.16551576 1.2504416.6896628 1.455 1.375.2045585.68533719.0279553 1.42774553-.4632849 1.94756696l-10.01 10c-.5801105.5915042-.5801105 1.5384958 0 2.13.6053103.5551809 1.5346897.5551809 2.14 0l9.91-9.93c.7404177-.767752 1.9420106-.8498753 2.78-.19.4408841.3868098.6955794.943501.7 1.53z" fill="#8697cb"/></g></g></svg>