<?xml version="1.0" encoding="iso-8859-1"?>
<!-- Generator: Adobe Illustrator 19.0.0, SVG Export Plug-In . SVG Version: 6.00 Build 0)  -->
<svg version="1.1" id="Capa_1" xmlns="http://www.w3.org/2000/svg" xmlns:xlink="http://www.w3.org/1999/xlink" x="0px" y="0px"
	 viewBox="0 0 468.62 468.62" style="enable-background:new 0 0 468.62 468.62;" xml:space="preserve">
<polygon style="fill:#64798A;" points="337.55,406.21 313.732,406.21 313.732,162.826 235.211,68.423 253.528,53.194 
	337.55,154.213 "/>
<ellipse style="fill:#E1E6E9;" cx="114.53" cy="150.968" rx="37.651" ry="37.651"/>
<path style="fill:#EBF0F3;" d="M94.175,169.551c12.861,14.089,33.95,16.126,49.204,5.544c-1.071,1.278-2.204,2.521-3.469,3.677
	c-15.355,14.016-39.165,12.931-53.181-2.424c-14.016-15.355-12.931-39.165,2.423-53.181c1.266-1.156,2.607-2.17,3.977-3.121
	C81.204,134.275,81.314,155.462,94.175,169.551z"/>
<path style="fill:#D15241;" d="M39.017,61.195c-1.772,1.618-2.241,4.594-0.338,6.679L190.35,234.029
	c1.935,2.12,4.942,1.924,6.714,0.306c0.904-0.825,1.493-2.064,1.461-3.564l-2-83.293l60.505-55.231
	c5.665-5.171,6.16-13.842,1.191-19.564c-0.061-0.136-0.187-0.275-0.283-0.379l-52.058-57.03c-0.095-0.104-0.19-0.209-0.32-0.281
	c-5.247-5.468-13.958-5.798-19.623-0.628l-60.505,55.231l-82.734-9.533C41.208,59.896,39.921,60.371,39.017,61.195z"/>
<path style="fill:#3A556A;" d="M211.016,20.887l41.827,45.821l17.37-15.856c7.85-7.166,8.405-19.339,1.239-27.19L255.575,6.271
	c-7.166-7.85-19.339-8.405-27.19-1.239L211.016,20.887z"/>
<path style="fill:#E56353;" d="M210.975,20.925L93.614,128.056l41.832,45.827l117.36-107.131c-0.041-0.114-0.142-0.225-0.217-0.308
	l-41.353-45.302C211.161,21.059,211.085,20.976,210.975,20.925z"/>
<circle style="fill:#27A2DB;" cx="324.972" cy="159.165" r="37.463"/>
<g>
	<circle style="fill:#3A556A;" cx="324.972" cy="159.165" r="18.482"/>
	<path style="fill:#3A556A;" d="M404.619,406.21H245.001c0,14.638-11.91,26.547-26.548,26.547v24.086
		c0,6.521,5.323,11.777,11.844,11.777h189.026c6.52,0,11.843-5.256,11.843-11.777v-24.086
		C416.529,432.758,404.619,420.848,404.619,406.21z"/>
</g>
<path style="fill:#E56353;" d="M291.359,406.21h-26.462v-5.587c0-3.448,2.796-6.244,6.244-6.244h13.975
	c3.448,0,6.244,2.796,6.244,6.244V406.21z"/>
<g>
</g>
<g>
</g>
<g>
</g>
<g>
</g>
<g>
</g>
<g>
</g>
<g>
</g>
<g>
</g>
<g>
</g>
<g>
</g>
<g>
</g>
<g>
</g>
<g>
</g>
<g>
</g>
<g>
</g>
</svg>
