<?xml version="1.0" encoding="iso-8859-1"?>
<!-- Generator: Adobe Illustrator 19.0.0, SVG Export Plug-In . SVG Version: 6.00 Build 0)  -->
<svg xmlns="http://www.w3.org/2000/svg" xmlns:xlink="http://www.w3.org/1999/xlink" version="1.1" id="Layer_1" x="0px" y="0px" viewBox="0 0 512.325 512.325" style="enable-background:new 0 0 512.325 512.325;" xml:space="preserve">
<path style="fill:#F3F3F3;" d="M502.574,431.096L319.107,174.029v-131.2H193.24v131.2L9.774,431.096  c-24.533,34.133,0,81.067,41.6,81.067h408.533C502.574,512.163,527.107,465.229,502.574,431.096z"/>
<rect x="193.24" y="42.829" style="fill:#E8EAE9;" width="126.933" height="19.2"/>
<path style="fill:#F3F3F3;" d="M319.107,42.829H193.24c-11.733,0-21.333-9.6-21.333-21.333s9.6-21.333,21.333-21.333h126.933  c11.733,0,21.333,9.6,21.333,21.333S330.84,42.829,319.107,42.829z"/>
<path style="fill:#FFD15C;" d="M364.974,311.629h-217.6l-100.267,140.8c-3.2,5.333-2.133,9.6-1.067,10.667  c1.067,2.133,3.2,6.4,9.6,6.4h405.333c4.267,0,7.467-3.2,7.467-5.333c1.067-2.133,2.133-5.333-1.067-9.6L364.974,311.629z"/>
<g>
	<circle style="fill:#F7B64C;" cx="152.707" cy="416.163" r="21.333"/>
	<circle style="fill:#F7B64C;" cx="239.107" cy="362.829" r="32"/>
	<circle style="fill:#F7B64C;" cx="291.374" cy="437.496" r="11.733"/>
	<circle style="fill:#F7B64C;" cx="311.64" cy="321.229" r="20.267"/>
</g>
<g>
	<circle style="fill:#FFD15C;" cx="218.84" cy="268.963" r="20.267"/>
	<circle style="fill:#FFD15C;" cx="273.24" cy="190.029" r="10.667"/>
</g>
<g>
</g>
<g>
</g>
<g>
</g>
<g>
</g>
<g>
</g>
<g>
</g>
<g>
</g>
<g>
</g>
<g>
</g>
<g>
</g>
<g>
</g>
<g>
</g>
<g>
</g>
<g>
</g>
<g>
</g>
</svg>
