<svg id="Capa_1" enable-background="new 0 0 426.778 426.778" height="512" viewBox="0 0 426.778 426.778" width="512" xmlns="http://www.w3.org/2000/svg"><g><path d="m80.382 207.197-54.118-54.118c-35.019-35.019-35.019-91.795 0-126.814s91.795-35.019 126.814 0l54.118 54.118c35.019 35.019 35.019 91.795 0 126.814s-91.795 35.018-126.814 0zm41-152.209c-18.378-18.29-48.104-18.219-66.394.159-18.228 18.316-18.228 47.919 0 66.235l57.079 57.079c18.378 18.29 48.104 18.219 66.394-.159 18.228-18.316 18.228-47.919 0-66.235z" fill="#eeefee"/><path d="m273.71 400.524-54.118-54.118c-35.022-35.016-35.026-91.792-.01-126.814s91.792-35.026 126.814-.01l54.118 54.118c35.019 35.019 35.019 91.795 0 126.814s-91.795 35.019-126.814 0zm41-152.208c-18.376-18.293-48.101-18.225-66.394.15-18.234 18.317-18.234 47.927 0 66.244l57.079 57.079c18.376 18.293 48.101 18.225 66.394-.15 18.234-18.317 18.234-47.927 0-66.244z" fill="#eeefee"/><path d="m252.989 282.692-108.903-108.903c-8.202-8.202-8.202-21.501 0-29.703s21.501-8.202 29.703 0l108.903 108.903c8.202 8.202 8.202 21.501 0 29.703s-21.501 8.202-29.703 0z" fill="#dbd8dd"/></g></svg>