<?xml version="1.0" encoding="iso-8859-1"?>
<!-- Generator: Adobe Illustrator 19.0.0, SVG Export Plug-In . SVG Version: 6.00 Build 0)  -->
<svg version="1.1" id="Layer_1" xmlns="http://www.w3.org/2000/svg" xmlns:xlink="http://www.w3.org/1999/xlink" x="0px" y="0px"
	 viewBox="0 0 508.1 508.1" style="enable-background:new 0 0 508.1 508.1;" xml:space="preserve">
<path style="fill:#54C0EB;" d="M486.8,145.75H21.2c-11.7,0-21.2,9.5-21.2,21.2v60.6c0,11.7,9.5,21.2,21.2,21.2h465.7
	c11.7,0,21.2-9.5,21.2-21.2v-60.6C508,155.25,498.5,145.75,486.8,145.75z"/>
<g>
	<path style="fill:#F2F2F2;" d="M185.7,10.55l-147,147.1c-14,14-14,36.8,0,50.8s36.8,14,50.8,0l147-147.1c14-14,14-36.8,0-50.8
		S199.8-3.45,185.7,10.55z"/>
	<path style="fill:#F2F2F2;" d="M469.3,157.65l-147-147.1c-14-14-36.8-14-50.8,0s-14,36.8,0,50.8l147.1,147.1c14,14,36.8,14,50.8,0
		C483.4,194.45,483.4,171.65,469.3,157.65z"/>
</g>
<g>
	<circle style="fill:#40596B;" cx="62.6" cy="184.45" r="14.8"/>
	<circle style="fill:#40596B;" cx="445.4" cy="184.45" r="14.8"/>
</g>
<path style="fill:#84DBFF;" d="M36.6,248.75l2.4,14.1l36.3,217.2c2.9,16.2,16.9,28,33.4,28h290.6c16.4,0,30.5-11.8,33.4-28
	l36.3-217.2l2.4-14.1L36.6,248.75L36.6,248.75z M129.4,406.45c0,8.5-6.9,15.5-15.5,15.5s-15.5-6.9-15.5-15.5v-97.6
	c0-8.5,6.9-15.5,15.5-15.5s15.5,6.9,15.5,15.5V406.45z M199.5,406.45c0,8.5-6.9,15.5-15.5,15.5c-8.5,0-15.5-6.9-15.5-15.5v-97.6
	c0-8.5,6.9-15.5,15.5-15.5c8.5,0,15.5,6.9,15.5,15.5V406.45z M269.5,406.45c0,8.5-6.9,15.5-15.5,15.5c-8.5,0-15.5-6.9-15.5-15.5
	v-97.6c0-8.5,6.9-15.5,15.5-15.5c8.5,0,15.5,6.9,15.5,15.5V406.45z M339.5,406.45c0,8.5-6.9,15.5-15.5,15.5
	c-8.5,0-15.5-6.9-15.5-15.5v-97.6c0-8.5,6.9-15.5,15.5-15.5c8.5,0,15.5,6.9,15.5,15.5V406.45z M409.5,406.45
	c0,8.5-6.9,15.5-15.5,15.5l0,0c-8.5,0-15.5-6.9-15.5-15.5v-97.6c0-8.5,6.9-15.5,15.5-15.5l0,0c8.5,0,15.5,6.9,15.5,15.5V406.45z"/>
<polygon style="fill:#73CCE0;" points="471.4,248.75 469,262.85 38.9,262.85 36.6,248.75 "/>
<g>
</g>
<g>
</g>
<g>
</g>
<g>
</g>
<g>
</g>
<g>
</g>
<g>
</g>
<g>
</g>
<g>
</g>
<g>
</g>
<g>
</g>
<g>
</g>
<g>
</g>
<g>
</g>
<g>
</g>
</svg>
