<svg id="color" enable-background="new 0 0 24 24" height="512" viewBox="0 0 24 24" width="512" xmlns="http://www.w3.org/2000/svg"><g><g><path d="m10.383 6.014c-3.353 0-6.506 1.305-8.875 3.674l-.035.034c-.201.201-.271.498-.182.767.09.27.324.465.605.505l4.678.67.105.008c.213 0 .418-.09.561-.252l3.703-4.159c.196-.221.244-.536.123-.806-.12-.268-.388-.441-.683-.441z" fill="#2196f3"/></g></g><g><g><path d="m23.26 0c-4.63-.1-9.87 2.31-13.21 6.02-.11.11-.21.22-.3.33l-4.57 5.12-.14.15c-.271.3-.25.75.03 1.03l4.67 4.67c-.15-.52-.24-1.05-.24-1.58 0-2.89 2.36-5.24 5.25-5.24.98 0 1.93.27 2.75.78.82-.51 1.77-.78 2.75-.78.22 0 .44.01.65.05 2-3 3.18-6.57 3.1-9.81-.01-.4-.34-.73-.74-.74z" fill="#eceff1"/></g></g><g><g><path d="m18.9 5.1c-.971-.98-2.561-.98-3.54 0-.971.97-.971 2.56 0 3.54.489.48 1.13.73 1.77.73s1.28-.25 1.77-.73c.97-.98.97-2.57 0-3.54z" fill="#2196f3"/></g></g><g><g><path d="m7.08 16.92c-1.2-1.19-3.271-1.19-4.47 0-1.02 1.03-2.33 5.27-2.58 6.11-.08.27-.011.56.189.75.141.14.331.22.531.22l.22-.03c.84-.25 5.08-1.56 6.11-2.58.59-.6.92-1.39.92-2.23 0-.85-.33-1.64-.92-2.24z" fill="#ff9800"/></g></g><g><g><path d="m10.052 6.018c-3.23.083-6.253 1.379-8.544 3.67l-.035.034c-.201.201-.271.498-.182.767.09.27.324.465.605.505l3.287.471 4.567-5.115c.09-.11.19-.22.3-.33 0-.001.001-.001.002-.002z" fill="#1d83d4"/></g></g><g><g><path d="m22.981-.003c-4.559 0-9.656 2.386-12.929 6.021-.001.001-.002.001-.002.002-.11.11-.21.22-.3.33l-4.567 5.116-.003.004-.14.15c-.271.3-.25.75.03 1.03l3.14 3.14 1.492-1.492c.497-1.728 1.864-3.093 3.592-3.592l2.066-2.066c-.971-.98-.97-2.57 0-3.54.49-.49 1.132-.735 1.773-.735s1.281.245 1.767.735l4.876-4.876c-.133-.134-.316-.219-.516-.224-.093-.002-.186-.003-.279-.003z" fill="#cdd0d2"/></g></g><g><g><path d="m17.134 4.365c-.641 0-1.284.245-1.773.735-.971.97-.971 2.56 0 3.54l3.539-3.54c-.485-.49-1.125-.735-1.766-.735z" fill="#1d83d4"/></g></g><g><g><path d="m4.845 16.027c-.818 0-1.635.297-2.235.892-1.02 1.03-2.33 5.27-2.58 6.11-.08.27-.011.56.189.75l6.86-6.86c-.599-.594-1.417-.892-2.234-.892z" fill="#de8400"/></g></g><g><g><path d="m17.5 24c-.157 0-.314-.049-.447-.148-.62-.461-6.053-4.602-6.053-8.114 0-2.061 1.683-3.738 3.75-3.738 1.064 0 2.054.446 2.75 1.194.696-.748 1.686-1.194 2.75-1.194 2.067 0 3.75 1.677 3.75 3.738 0 3.512-5.433 7.653-6.053 8.114-.133.099-.29.148-.447.148z" fill="#f44336"/></g></g><g><g><path d="m14.75 12c-2.067 0-3.75 1.677-3.75 3.738 0 3.512 5.433 7.653 6.053 8.114.133.099.29.148.447.148v-10.806c-.696-.748-1.687-1.194-2.75-1.194z" fill="#d43a2f"/></g></g></svg>