<?xml version="1.0" encoding="iso-8859-1"?>
<!-- Generator: Adobe Illustrator 19.0.0, SVG Export Plug-In . SVG Version: 6.00 Build 0)  -->
<svg version="1.1" id="Capa_1" xmlns="http://www.w3.org/2000/svg" xmlns:xlink="http://www.w3.org/1999/xlink" x="0px" y="0px"
	 viewBox="0 0 512 512" style="enable-background:new 0 0 512 512;" xml:space="preserve">
<path style="fill:#F3F3F3;" d="M424.152,151.216c3.632-11.216,5.648-23.168,5.648-35.6C429.8,51.76,378.04,0,314.184,0
	c-38.784,0-73.024,19.168-94,48.48c-10.368-3.408-21.232-5.712-32.736-5.712c-58.24,0-105.456,47.216-105.456,105.456
	c0,1.6,0.4,3.072,0.464,4.656c-32.864,11.04-56.704,41.744-56.704,78.336c0,45.84,37.152,82.992,82.992,82.992h294.512
	c45.84,0,82.992-37.152,82.992-82.992C486.264,192.64,459.816,160.512,424.152,151.216z"/>
<path style="fill:#E5E5E5;" d="M325.336,11.136c29.088,0,55.6,10.816,75.92,28.56C380.056,15.408,348.952,0,314.184,0
	c-38.656,0-72.8,19.056-93.792,48.208c-10.352-3.488-21.392-5.44-32.96-5.44c-58.24,0-105.456,47.216-105.456,105.456
	c0,31.968,14.528,60.272,36.992,79.6c-15.872-18.448-25.84-42.176-25.84-68.464c0-58.24,47.216-105.456,105.456-105.456
	c26.272,0,50,9.952,68.464,25.856c-8.896-10.336-19.76-18.88-31.936-25.216C256.312,28.112,288.824,11.136,325.336,11.136z"/>
<path style="fill:#CACACA;" d="M401.352,333.12H272.008V231.216c0-8.848-7.168-16-16-16s-16,7.152-16,16V333.12H110.664
	c-8.832,0-16,7.152-16,16v107.312c0,8.848,7.168,16,16,16s16-7.152,16-16V365.12h258.704v91.312c0,8.848,7.168,16,16,16
	s16-7.152,16-16V349.12C417.352,340.288,410.2,333.12,401.352,333.12z"/>
<g>
	<path style="fill:#EC9922;" d="M312.328,286.784h-112.64c-8.832,0-16-7.168-16-16V158.128c0-8.832,7.168-16,16-16h112.656
		c8.832,0,16,7.168,16,16v112.656C328.328,279.616,321.176,286.784,312.328,286.784z"/>
	<path style="fill:#EC9922;" d="M150.216,512h-79.12c-8.832,0-16-7.168-16-16v-79.136c0-8.832,7.168-16,16-16h79.136
		c8.832,0,16,7.168,16,16V496C166.216,504.832,159.064,512,150.216,512z"/>
	<path style="fill:#EC9922;" d="M440.92,512h-79.136c-8.832,0-16-7.168-16-16v-79.136c0-8.832,7.168-16,16-16h79.136
		c8.832,0,16,7.168,16,16V496C456.92,504.832,449.768,512,440.92,512z"/>
</g>
<g>
</g>
<g>
</g>
<g>
</g>
<g>
</g>
<g>
</g>
<g>
</g>
<g>
</g>
<g>
</g>
<g>
</g>
<g>
</g>
<g>
</g>
<g>
</g>
<g>
</g>
<g>
</g>
<g>
</g>
</svg>
