<?xml version="1.0" encoding="iso-8859-1"?>
<!-- Generator: Adobe Illustrator 19.0.0, SVG Export Plug-In . SVG Version: 6.00 Build 0)  -->
<svg version="1.1" id="Capa_1" xmlns="http://www.w3.org/2000/svg" xmlns:xlink="http://www.w3.org/1999/xlink" x="0px" y="0px"
	 viewBox="0 0 513.067 513.067" style="enable-background:new 0 0 513.067 513.067;" xml:space="preserve">
<rect x="69.333" y="41.2" style="fill:#4EC0AA;" width="67.2" height="126.933"/>
<rect x="52.267" y="15.6" style="fill:#66C6B9;" width="101.333" height="43.733"/>
<polygon style="fill:#F3F3F3;" points="256,30.533 454.4,211.867 454.4,512.667 57.6,512.667 57.6,211.867 "/>
<rect x="309.278" y="362.567" transform="matrix(-0.7071 -0.7071 0.7071 -0.7071 279.2089 888.786)" style="fill:#ADB3BA;" width="28.8" height="48"/>
<polygon style="fill:#E8EAE9;" points="454.4,211.867 454.4,289.733 256,108.4 57.6,289.733 57.6,211.867 256,30.533 "/>
<path style="fill:#66C6B9;" d="M457.6,255.6L256,71.067L54.4,255.6c-11.733,11.733-32,11.733-44.8,0l0,0
	c-12.8-11.733-12.8-29.867,0-41.6l224-204.8c12.8-11.733,33.067-11.733,45.867,0l224,204.8c12.8,11.733,12.8,29.867,0,41.6l0,0
	C489.6,267.333,469.333,267.333,457.6,255.6z"/>
<path style="fill:#F3705A;" d="M318.933,425.2c10.667,22.4,27.733,48,52.267,72.533c17.067,18.133,45.867,18.133,62.933,0l0,0
	c17.067-17.067,17.067-45.867,0-62.933C409.6,411.333,384,393.2,361.6,382.533L318.933,425.2z"/>
<path style="fill:#415A6B;" d="M237.867,420.933c-67.2,0-120.533-53.333-120.533-120.533s53.333-120.533,120.533-120.533
	c66.133,0,120.533,54.4,120.533,120.533C358.4,367.6,304,420.933,237.867,420.933z M237.867,218.267
	c-45.867,0-82.133,37.333-82.133,82.133s37.333,82.133,82.133,82.133C283.733,382.533,320,345.2,320,300.4
	C320,255.6,282.667,218.267,237.867,218.267z"/>
<path style="fill:#F3705A;" d="M375.467,390L326.4,438c-5.333,5.333-12.8,5.333-17.067,0c-5.333-5.333-5.333-12.8,0-17.067
	l49.067-49.067c5.333-5.333,12.8-5.333,17.067,0C379.733,377.2,379.733,384.667,375.467,390z"/>
<path style="fill:#F05540;" d="M375.467,388.933C375.467,388.933,375.467,390,375.467,388.933L326.4,438l0,0
	c2.133,4.267,4.267,8.533,7.467,12.8l54.4-54.4C384,394.267,379.733,391.067,375.467,388.933z"/>
<g>
</g>
<g>
</g>
<g>
</g>
<g>
</g>
<g>
</g>
<g>
</g>
<g>
</g>
<g>
</g>
<g>
</g>
<g>
</g>
<g>
</g>
<g>
</g>
<g>
</g>
<g>
</g>
<g>
</g>
</svg>
