<svg height="512" viewBox="0 0 58 58" width="512" xmlns="http://www.w3.org/2000/svg"><g id="Page-1" fill="none" fill-rule="evenodd"><g id="058---Search-Folder" fill-rule="nonzero"><path id="Shape" d="m51 5h-26c-.5522847 0-1-.44771525-1-1v-1c0-1.65685425-1.3431458-3-3-3h-14c-1.65685425 0-3 1.34314575-3 3v9h50v-4c0-1.65685425-1.3431458-3-3-3z" fill="#f29c1f"/><path id="Shape" d="m42.7 45h5.46c1.9072274-.0015321 3.5480911-1.3493844 3.92-3.22l5.88-29.39c.116709-.5870173-.0356102-1.1954503-.4151342-1.6582372-.3795241-.4627869-.9463593-.7312821-1.5448658-.7317628h-54c-.59850648.0004807-1.16534175.2689759-1.54486577.7317628-.37952402.4627869-.53184323 1.0712199-.41513423 1.6582372l5.88 29.39c.37190885 1.8706156 2.01277256 3.2184679 3.92 3.22z" fill="#f0c419"/><path id="Rectangle-path" d="m12.218 42.348h9.028v6h-9.028z" fill="#7f8c8d" transform="matrix(.707 -.707 .707 .707 -27.165 25.114)"/><path id="Shape" d="m7.2614706 45.3184025h6c.5522848 0 1 .4477153 1 1v9c0 1.6568543-1.3431457 3-3 3h-2c-1.65685425 0-3-1.3431457-3-3v-9c0-.5522847.44771525-1 1-1z" fill="#955ba5" transform="matrix(.707 .707 -.707 .707 39.647 7.921)"/><path id="Shape" d="m7 15h-2c-.55228475 0-1-.4477153-1-1s.44771525-1 1-1h2c.55228475 0 1 .4477153 1 1s-.44771525 1-1 1z" fill="#f9eab0"/><path id="Shape" d="m27 15h-16c-.5522847 0-1-.4477153-1-1s.4477153-1 1-1h16c.5522847 0 1 .4477153 1 1s-.4477153 1-1 1z" fill="#f9eab0"/><circle id="Oval" cx="29" cy="33.08" fill="#95a5a5" r="15"/><circle id="Oval" cx="29" cy="33.08" fill="#7f8c8d" r="12.08"/><path id="Shape" d="m36.72 40.8c-3.1224834 3.1226386-7.8185525 4.0568358-11.8983961 2.3669686-4.0798436-1.6898671-6.7399876-5.6710004-6.7399876-10.0869686s2.660144-8.3971015 6.7399876-10.0869686c4.0798436-1.6898672 8.7759127-.75567 11.8983961 2.3669686.0393407.037464.0760919.0775562.11.12 4.163485 4.2756814 4.1144527 11.1045453-.11 15.32z" fill="#2fa8cc"/><path id="Shape" d="m36.83 25.48c.1803424 4.4922772-2.4112607 8.6358842-6.5294471 10.4396631s-8.9210172.8989578-12.1005529-2.2796631c-.0393407-.037464-.0760919-.0775562-.11-.12-.1803424-4.4922772 2.4112607-8.6358842 6.5294471-10.4396631s8.9210172-.8989578 12.1005529 2.2796631c.0393407.037464.0760919.0775562.11.12z" fill="#67b9cc"/></g></g></svg>