<?xml version="1.0" encoding="iso-8859-1"?>
<!-- Generator: Adobe Illustrator 19.0.0, SVG Export Plug-In . SVG Version: 6.00 Build 0)  -->
<svg version="1.1" id="Capa_1" xmlns="http://www.w3.org/2000/svg" xmlns:xlink="http://www.w3.org/1999/xlink" x="0px" y="0px"
	 viewBox="0 0 512 512" style="enable-background:new 0 0 512 512;" xml:space="preserve">
<path style="fill:#F2F2F2;" d="M435.488,0.003H32c-17.664,0-32,14.325-32,32v403.488c0,17.675,14.336,32,32,32h403.488
	c17.675,0,32-14.325,32-32V32.003C467.488,14.328,453.163,0.003,435.488,0.003"/>
<rect x="175.957" y="0.003" style="fill:#FFD15C;" width="115.563" height="88.565"/>
<rect x="42.773" y="341.197" style="fill:#CDD6E0;" width="146.283" height="83.381"/>
<path style="fill:#40596B;" d="M484.309,365.912H298.816V265.165c0-51.147,41.589-92.757,92.736-92.757
	c51.136,0,92.747,41.611,92.747,92.757v100.747H484.309z M330.827,333.912H452.32v-68.747c0-33.515-27.253-60.757-60.747-60.757
	s-60.736,27.253-60.736,60.757v68.747H330.827z"/>
<path style="fill:#FF7058;" d="M489.653,316.685c-63.84-20.064-132.331-20.064-196.181,0c-13.323,4.192-22.357,16.64-22.357,30.603
	v119.061c0,13.963,9.035,26.421,22.357,30.592c63.84,20.075,132.331,20.075,196.181,0C502.976,492.771,512,480.312,512,466.349
	V347.288C512,333.325,502.976,320.877,489.653,316.685"/>
<path style="fill:#40596B;" d="M404.064,412.685l6.304,24.437h-37.589l6.304-24.437c-4.672-3.755-7.723-9.483-7.723-15.925
	c0-11.179,9.067-20.235,20.245-20.235c11.115,0,20.192,9.067,20.192,20.235C411.787,403.203,408.736,408.931,404.064,412.685"/>
<g>
</g>
<g>
</g>
<g>
</g>
<g>
</g>
<g>
</g>
<g>
</g>
<g>
</g>
<g>
</g>
<g>
</g>
<g>
</g>
<g>
</g>
<g>
</g>
<g>
</g>
<g>
</g>
<g>
</g>
</svg>
