<svg id="color" enable-background="new 0 0 24 24" height="512" viewBox="0 0 24 24" width="512" xmlns="http://www.w3.org/2000/svg"><path d="m14.25 0h-11.5c-1.52 0-2.75 1.23-2.75 2.75v15.5c0 1.52 1.23 2.75 2.75 2.75h7.38l.22-1.23c.1-.56.36-1.06.76-1.47l5.89-5.88v-9.67c0-1.52-1.23-2.75-2.75-2.75z" fill="#eceff1"/><path d="m8.5 0h-5.75c-1.52 0-2.75 1.23-2.75 2.75v15.5c0 1.52 1.23 2.75 2.75 2.75h5.75v-3.75z" fill="#cdd0d2"/><g fill="#90a4ae"><path d="m13 10h-9c-.552 0-1-.448-1-1s.448-1 1-1h9c.552 0 1 .448 1 1s-.448 1-1 1z"/><path d="m9 14h-5c-.552 0-1-.448-1-1s.448-1 1-1h5c.552 0 1 .448 1 1s-.448 1-1 1z"/><path d="m8 6h-4c-.552 0-1-.448-1-1s.448-1 1-1h4c.552 0 1 .448 1 1s-.448 1-1 1z"/></g><path d="m9 5h-6c0 .553.448 1 1 1h4c.552 0 1-.447 1-1z" fill="#7d8f97"/><path d="m14 9h-11c0 .553.448 1 1 1h9c.552 0 1-.447 1-1z" fill="#7d8f97"/><path d="m10 13h-7c0 .553.448 1 1 1h5c.552 0 1-.447 1-1z" fill="#7d8f97"/><path d="m12.528 24c-.197 0-.389-.078-.53-.22-.173-.173-.251-.419-.208-.661l.53-3.005c.026-.151.1-.291.208-.399l7.425-7.425c.912-.913 1.808-.667 2.298-.177l1.237 1.237c.683.683.683 1.792 0 2.475l-7.425 7.425c-.108.109-.248.182-.4.209l-3.005.529zm3.005-1.28h.01z" fill="#ffc107"/><path d="m22.944 12.806-10.96 10.96c.005.005.009.01.014.014.142.142.333.22.53.22l.13-.012 3.005-.529c.152-.027.292-.1.4-.209l7.425-7.425c.683-.683.683-1.792 0-2.475z" fill="#dea806"/></svg>