<?xml version="1.0" encoding="iso-8859-1"?>
<!-- Generator: Adobe Illustrator 19.0.0, SVG Export Plug-In . SVG Version: 6.00 Build 0)  -->
<svg version="1.1" id="Capa_1" xmlns="http://www.w3.org/2000/svg" xmlns:xlink="http://www.w3.org/1999/xlink" x="0px" y="0px"
	 viewBox="0 0 512 512" style="enable-background:new 0 0 512 512;" xml:space="preserve">
<rect x="372.267" y="196.267" style="fill:#E8EAE9;" width="139.733" height="315.733"/>
<g>
	<rect x="414.933" y="233.6" style="fill:#55C0EB;" width="54.4" height="62.933"/>
	<rect x="414.933" y="323.2" style="fill:#55C0EB;" width="54.4" height="62.933"/>
	<rect x="414.933" y="411.733" style="fill:#55C0EB;" width="54.4" height="62.933"/>
</g>
<rect y="196.267" style="fill:#E8EAE9;" width="139.733" height="315.733"/>
<g>
	<rect x="42.667" y="233.6" style="fill:#55C0EB;" width="54.4" height="62.933"/>
	<rect x="42.667" y="411.733" style="fill:#55C0EB;" width="54.4" height="62.933"/>
	<rect x="42.667" y="323.2" style="fill:#55C0EB;" width="54.4" height="62.933"/>
</g>
<polygon style="fill:#F3705A;" points="139.733,170.667 139.733,512 372.267,512 372.267,170.667 256,54.4 "/>
<path style="fill:#415A6B;" d="M196.267,405.333V512h118.4V405.333c0-33.067-26.667-59.733-59.733-59.733l0,0
	C222.933,345.6,196.267,372.267,196.267,405.333z"/>
<path style="fill:#344A5E;" d="M217.6,512V405.333c0-21.333,17.067-38.4,38.4-38.4s38.4,17.067,38.4,38.4V512H217.6z"/>
<path style="fill:#415A6B;" d="M376.533,174.933L256,54.4L135.467,174.933c-8.533,8.533-23.467,8.533-32,0l0,0
	c-8.533-8.533-8.533-23.467,0-32L240,6.4c8.533-8.533,23.467-8.533,32,0l136.533,136.533c8.533,8.533,8.533,23.467,0,32l0,0
	C400,183.467,385.067,183.467,376.533,174.933z"/>
<path style="fill:#F05540;" d="M256,54.4L139.733,170.667V195.2C185.6,149.333,211.2,124.8,256,78.933
	c22.4,22.4,92.8,92.8,116.267,116.267v-24.533L256,54.4z"/>
<circle style="fill:#FFFFFF;" cx="256" cy="222.933" r="46.933"/>
<g>
</g>
<g>
</g>
<g>
</g>
<g>
</g>
<g>
</g>
<g>
</g>
<g>
</g>
<g>
</g>
<g>
</g>
<g>
</g>
<g>
</g>
<g>
</g>
<g>
</g>
<g>
</g>
<g>
</g>
</svg>
