<?xml version="1.0" encoding="iso-8859-1"?>
<!-- Generator: Adobe Illustrator 19.0.0, SVG Export Plug-In . SVG Version: 6.00 Build 0)  -->
<svg version="1.1" id="Capa_1" xmlns="http://www.w3.org/2000/svg" xmlns:xlink="http://www.w3.org/1999/xlink" x="0px" y="0px"
	 viewBox="0 0 512 512" style="enable-background:new 0 0 512 512;" xml:space="preserve">
<path style="fill:#2488FF;" d="M310.9,269.263l-68.163-68.166c-2.813-2.814-6.628-4.395-10.606-4.395
	c-3.979,0-7.794,1.58-10.607,4.395L18.51,404.111C6.574,416.047,0,431.918,0.001,448.799c0,16.883,6.575,32.752,18.511,44.686
	C30.447,505.424,46.319,511.998,63.201,512h0.003c16.88,0,32.749-6.574,44.684-18.512L310.9,290.477
	C316.759,284.619,316.759,275.121,310.9,269.263z"/>
<path style="fill:#006DF0;" d="M276.82,235.18L18.513,493.486C30.449,505.424,46.32,511.998,63.201,512h0.003
	c16.88,0,32.749-6.574,44.684-18.512L310.9,290.477c5.859-5.857,5.859-15.355,0-21.213L276.82,235.18z"/>
<path style="fill:#FED42D;" d="M509.021,236.075l-63.211-84.711l33.943-100.096c1.834-5.408,0.438-11.387-3.6-15.424
	c-4.035-4.039-10.014-5.434-15.424-3.6L360.632,66.189L275.925,2.978c-4.574-3.414-10.693-3.936-15.78-1.344
	c-5.087,2.592-8.262,7.848-8.189,13.557l1.347,105.686l-86.296,61.031c-4.662,3.297-7.048,8.953-6.154,14.594
	c0.894,5.639,4.911,10.281,10.363,11.977l100.93,31.373l31.374,100.934c1.695,5.451,6.338,9.469,11.977,10.363
	c0.785,0.123,1.57,0.184,2.35,0.184c4.818,0,9.406-2.326,12.244-6.338l61.031-86.301l105.688,1.352
	c5.719,0.086,10.963-3.102,13.557-8.189C512.956,246.768,512.435,240.65,509.021,236.075z"/>
<path style="fill:#FCBF29;" d="M509.021,236.075l-63.211-84.711l33.943-100.096c1.834-5.408,0.438-11.387-3.598-15.424
	l-204.01,204.01l31.373,100.932c1.695,5.451,6.338,9.469,11.977,10.363c0.785,0.123,1.57,0.184,2.35,0.184
	c4.818,0,9.406-2.326,12.244-6.338l61.031-86.301l105.688,1.352c5.719,0.086,10.963-3.102,13.557-8.189
	C512.956,246.768,512.435,240.65,509.021,236.075z"/>
<g>
</g>
<g>
</g>
<g>
</g>
<g>
</g>
<g>
</g>
<g>
</g>
<g>
</g>
<g>
</g>
<g>
</g>
<g>
</g>
<g>
</g>
<g>
</g>
<g>
</g>
<g>
</g>
<g>
</g>
</svg>
