<?xml version="1.0" encoding="iso-8859-1"?>
<!-- Generator: Adobe Illustrator 19.0.0, SVG Export Plug-In . SVG Version: 6.00 Build 0)  -->
<svg version="1.1" id="Capa_1" xmlns="http://www.w3.org/2000/svg" xmlns:xlink="http://www.w3.org/1999/xlink" x="0px" y="0px"
	 viewBox="0 0 514.133 514.133" style="enable-background:new 0 0 514.133 514.133;" xml:space="preserve">
<path style="fill:#FF7058;" d="M455.467,514.133h-396.8c-11.733,0-21.333-9.6-21.333-21.333V53.333C37.333,41.6,46.933,32,58.667,32
	h396.8C467.2,32,476.8,41.6,476.8,53.333v438.4C476.8,504.533,467.2,514.133,455.467,514.133z"/>
<rect x="66.133" y="60.8" style="fill:#F2F2F2;" width="381.867" height="424.533"/>
<path style="fill:#40596B;" d="M334.933,0H179.2c-13.867,0-24.533,10.667-24.533,24.533v62.933h204.8V24.533
	C359.467,11.733,348.8,0,334.933,0z"/>
<g>
	<rect x="177.067" y="219.733" style="fill:#CDD6E0;" width="248.533" height="21.333"/>
	<rect x="177.067" y="306.133" style="fill:#CDD6E0;" width="248.533" height="21.333"/>
	<rect x="177.067" y="392.533" style="fill:#CDD6E0;" width="248.533" height="21.333"/>
</g>
<g>
	<rect x="87.467" y="373.333" style="fill:#FFFFFF;" width="58.667" height="58.667"/>
	<rect x="87.467" y="286.933" style="fill:#FFFFFF;" width="58.667" height="58.667"/>
	<rect x="87.467" y="200.533" style="fill:#FFFFFF;" width="58.667" height="58.667"/>
	<rect x="87.467" y="114.133" style="fill:#FFFFFF;" width="58.667" height="58.667"/>
</g>
<g>
	<polygon style="fill:#FFD15C;" points="108.8,161.067 94.933,147.2 102.4,139.733 108.8,146.133 130.133,124.8 137.6,133.333 	"/>
	<polygon style="fill:#FFD15C;" points="109.867,247.467 94.933,233.6 103.467,226.133 109.867,232.533 130.133,212.267 
		138.667,219.733 	"/>
</g>
<rect x="177.067" y="133.333" style="fill:#CDD6E0;" width="248.533" height="21.333"/>
<g>
</g>
<g>
</g>
<g>
</g>
<g>
</g>
<g>
</g>
<g>
</g>
<g>
</g>
<g>
</g>
<g>
</g>
<g>
</g>
<g>
</g>
<g>
</g>
<g>
</g>
<g>
</g>
<g>
</g>
</svg>
