<?xml version="1.0" encoding="iso-8859-1"?>
<!-- Generator: Adobe Illustrator 19.0.0, SVG Export Plug-In . SVG Version: 6.00 Build 0)  -->
<svg version="1.1" id="Capa_1" xmlns="http://www.w3.org/2000/svg" xmlns:xlink="http://www.w3.org/1999/xlink" x="0px" y="0px"
	 viewBox="0 0 468.293 468.293" style="enable-background:new 0 0 468.293 468.293;" xml:space="preserve">
<path style="fill:#E56354;" d="M365.268,468.293H103.024c-10.345,0-18.732-8.386-18.732-18.732V18.732
	C84.293,8.386,92.679,0,103.024,0h262.244C375.613,0,384,8.386,384,18.732v430.829C384,459.906,375.613,468.293,365.268,468.293z"/>
<polygon style="fill:#2D92BA;" points="103.024,46.829 103.024,267.18 290.402,46.829 "/>
<polygon style="fill:#29A1DA;" points="290.402,46.829 103.024,267.18 103.024,396.488 365.268,396.488 365.268,46.829 "/>
<g>
	<path style="fill:#3B566A;" d="M288.78,29.659h-74.927c-3.448,0-6.244-2.795-6.244-6.244v0c0-3.448,2.796-6.244,6.244-6.244h74.927
		c3.448,0,6.244,2.795,6.244,6.244v0C295.024,26.863,292.229,29.659,288.78,29.659z"/>
	<path style="fill:#3B566A;" d="M192,29.659h-12.488c-3.448,0-6.244-2.795-6.244-6.244v0c0-3.448,2.795-6.244,6.244-6.244H192
		c3.448,0,6.244,2.795,6.244,6.244v0C198.244,26.863,195.448,29.659,192,29.659z"/>
	<path style="fill:#3B566A;" d="M261.753,449.771h-38.355c-10.099,0-18.286-8.187-18.286-18.286v0
		c0-10.099,8.187-18.286,18.286-18.286h38.355c10.099,0,18.286,8.187,18.286,18.286v0
		C280.039,441.584,271.852,449.771,261.753,449.771z"/>
</g>
<path style="fill:#FAD362;" d="M239.094,329.288c23.417,17.337,56.751,13.81,74.939-8.931c2.446-3.058,3.64-5.174,3.64-5.174
	c10.168-14.464-3.703-24.004-3.703-24.004l-39.456-26.465c0,0-8.654-4.752-19.796,2.391c-3.526,2.261-6.123,5.646-8.279,9.234
	c-3.509,5.843-13.943,14.118-41.272-13.165c-27.33-27.284-19.044-37.703-13.193-41.208c3.593-2.152,6.983-4.746,9.247-8.267
	c7.153-11.127,2.392-19.766,2.392-19.766l-26.513-39.392c0,0-9.557-13.848-24.041-3.692c0,0-2.119,1.192-5.181,3.635
	c-22.773,18.164-26.299,51.448-8.932,74.827c10.342,13.922,26.538,34.245,46.192,53.865
	C204.793,302.796,225.15,318.965,239.094,329.288z"/>
<path style="fill:#F4C158;" d="M239.095,329.288c23.417,17.336,56.751,13.809,74.939-8.931c0.092-0.115,0.153-0.203,0.241-0.316
	c-18.869,14.974-46.376,15.56-66.547,0.626c-13.945-10.324-34.302-26.492-53.955-46.112c-19.653-19.62-35.85-39.943-46.192-53.865
	c-14.96-20.138-14.377-47.604,0.615-66.445c-0.112,0.088-0.201,0.148-0.316,0.24c-22.772,18.164-26.299,51.449-8.932,74.827
	c10.342,13.922,26.538,34.245,46.192,53.865C204.793,302.796,225.15,318.964,239.095,329.288z"/>
<path style="fill:#E0E5E8;" d="M340.293,221.589c0.004-51.551-41.946-93.51-93.509-93.51c-5.057-0.002-9.16,4.1-9.157,9.157
	c0,5.059,4.098,9.157,9.157,9.157c41.472,0.006,75.192,33.736,75.194,75.195c0,2.53,1.025,4.819,2.681,6.476
	c1.657,1.657,3.946,2.681,6.476,2.681C336.192,230.748,340.295,226.646,340.293,221.589z"/>
<path style="fill:#EBEFF2;" d="M282.686,185.69c-9.592-9.592-22.339-14.872-35.9-14.87c-5.059,0-9.16,4.1-9.157,9.157
	c0,5.059,4.098,9.157,9.157,9.157c8.668,0,16.818,3.377,22.948,9.507c6.13,6.13,9.507,14.28,9.507,22.949
	c0,2.53,1.024,4.819,2.681,6.476c1.657,1.657,3.946,2.681,6.476,2.681c5.059,0,9.16-4.1,9.157-9.157
	C297.554,208.025,292.273,195.278,282.686,185.69z"/>
<g>
</g>
<g>
</g>
<g>
</g>
<g>
</g>
<g>
</g>
<g>
</g>
<g>
</g>
<g>
</g>
<g>
</g>
<g>
</g>
<g>
</g>
<g>
</g>
<g>
</g>
<g>
</g>
<g>
</g>
</svg>
