<?xml version="1.0" encoding="iso-8859-1"?>
<!-- Generator: Adobe Illustrator 19.0.0, SVG Export Plug-In . SVG Version: 6.00 Build 0)  -->
<svg version="1.1" id="Capa_1" xmlns="http://www.w3.org/2000/svg" xmlns:xlink="http://www.w3.org/1999/xlink" x="0px" y="0px"
	 viewBox="0 0 508.608 508.608" style="enable-background:new 0 0 508.608 508.608;" xml:space="preserve">
<path style="fill:#FFCC5B;" d="M385.456,438.528h-73.392v-170.24h54.832L353.44,145.024H36.128L0.336,473.136
	c-2.064,18.928,12.768,35.472,31.808,35.472h325.28c19.04,0,33.872-16.544,31.808-35.472L385.456,438.528z"/>
<path style="fill:#FDBC4B;" d="M144.8,425.28c11.584,0,20.976-9.392,20.976-20.976s-9.392-20.976-20.976-20.976H97.056
	c-9.696,0-17.6-7.936-17.552-17.648v-0.224c0-0.432-0.016-0.864-0.032-1.28c-0.576-9.568,7.008-17.632,16.592-17.632h63.424
	c11.36,0,21.552-8.512,22.144-19.856c0.64-12.096-8.992-22.112-20.96-22.112h-31.184c-9.76,0-17.648-7.936-17.584-17.696v-1.216
	v-0.256c-0.064-10.256,8.288-18.656,18.544-18.656h60.784c11.36,0,21.536-8.512,22.144-19.856
	c0.64-12.096-8.992-22.112-20.944-22.112H92.88c-10.144,0-17.696-8.512-17.584-18.656c0-0.08,0-0.16,0-0.256c0-0.08,0-0.16,0-0.256
	c-0.128-10.144,7.44-18.656,17.584-18.656h37.024c11.36,0,21.536-8.512,22.144-19.856c0.64-12.096-8.992-22.112-20.96-22.112H36.112
	L5.552,425.28H144.8z"/>
<path style="fill:#E95454;" d="M384.016,425.28H5.552l-5.216,47.856c-2.064,18.928,12.768,35.472,31.808,35.472h325.28
	c19.04,0,33.872-16.544,31.808-35.472L384.016,425.28z"/>
<g>
	<circle style="fill:#464646;" cx="108.72" cy="201.44" r="21.248"/>
	<circle style="fill:#464646;" cx="280.864" cy="201.44" r="21.248"/>
</g>
<path style="fill:#E5E5E5;" d="M290.304,201.44h-18.896V95.52c0-42.256-34.368-76.624-76.624-76.624S118.16,53.28,118.16,95.52
	v105.92H99.264V95.52c0-52.672,42.848-95.52,95.52-95.52s95.52,42.848,95.52,95.52V201.44z"/>
<g>
	<path style="fill:#E04C4B;" d="M148.272,451.232H43.568c-8.672,0-15.712,7.024-15.712,15.712c0,8.688,7.04,15.712,15.712,15.712
		h104.704c8.672,0,15.712-7.024,15.712-15.712C163.968,458.256,156.944,451.232,148.272,451.232z"/>
	<path style="fill:#E04C4B;" d="M197.696,451.232h-9.952c-8.672,0-15.712,7.024-15.712,15.712c0,8.688,7.04,15.712,15.712,15.712
		h9.968c8.672,0,15.712-7.024,15.712-15.712C213.408,458.256,206.384,451.232,197.696,451.232z"/>
</g>
<g style="opacity:0.15;">
	<path style="fill:#010101;" d="M389.232,473.136l-3.776-34.592h-73.392v-59.968l-68.496-3.408L292,423.6l4.56,39.408l45.6,45.6
		h15.28C376.48,508.608,391.296,492.064,389.232,473.136z"/>
</g>
<path style="fill:#3789C9;" d="M508.464,375.168v-40.144l-31.952-9.44c-2.16-7.28-4.96-14.16-8.528-20.688l15.888-29.216l-28.4-28.4
	l-29.216,15.888c-6.544-3.552-13.488-6.368-20.688-8.528l-9.44-31.952h-40.224l-9.44,31.952c-7.2,2.16-14.16,4.96-20.688,8.528
	l-29.232-15.904l-28.4,28.4l15.888,29.216c-3.552,6.544-6.368,13.408-8.528,20.688l-31.952,9.44v40.144l31.952,9.44
	c2.16,7.28,4.96,14.24,8.528,20.688l-15.888,29.216l28.4,28.48l29.216-15.984c6.544,3.552,13.488,6.464,20.688,8.528l9.44,32.032
	h40.24l9.44-32.032c7.2-2.064,14.16-4.96,20.688-8.528l29.216,15.984l28.4-28.48l-15.888-29.216
	c3.552-6.464,6.368-13.408,8.528-20.688L508.464,375.168z M376.016,406.048c-28.144,0-50.912-22.848-50.912-50.912
	c0-28.144,22.768-50.992,50.912-50.992c28.144,0,50.912,22.848,50.912,50.992C426.928,383.2,404.16,406.048,376.016,406.048z"/>
<path style="fill:#E5E5E5;" d="M373.872,268.512c-48.256,0-87.344,39.088-87.344,87.344s39.088,87.232,87.344,87.232
	s87.344-38.976,87.344-87.232S422.128,268.512,373.872,268.512z M373.872,420.656c-35.824,0-64.8-29.072-64.8-64.8
	c0-35.824,28.976-64.896,64.8-64.896s64.8,29.072,64.8,64.896C438.656,391.584,409.696,420.656,373.872,420.656z"/>
<g>
</g>
<g>
</g>
<g>
</g>
<g>
</g>
<g>
</g>
<g>
</g>
<g>
</g>
<g>
</g>
<g>
</g>
<g>
</g>
<g>
</g>
<g>
</g>
<g>
</g>
<g>
</g>
<g>
</g>
</svg>
