<?xml version="1.0" encoding="iso-8859-1"?>
<!-- Generator: Adobe Illustrator 19.0.0, SVG Export Plug-In . SVG Version: 6.00 Build 0)  -->
<svg xmlns="http://www.w3.org/2000/svg" xmlns:xlink="http://www.w3.org/1999/xlink" version="1.1" id="Layer_1" x="0px" y="0px" viewBox="0 0 512 512" style="enable-background:new 0 0 512 512;" xml:space="preserve">
<polygon style="fill:#66C6B9;" points="302.933,398.933 428.8,458.667 406.4,393.6 512,310.4 418.133,278.4 433.067,237.867   333.867,276.267 425.6,170.667 394.667,176 459.733,52.267 336,117.333 341.333,86.4 235.733,178.133 274.133,78.933 233.6,93.867   201.6,0 118.4,105.6 53.333,83.2 113.067,209.067 0,167.467 107.733,300.8 81.067,317.867 169.6,342.4 194.133,430.933   211.2,404.267 344.533,512 "/>
<path style="fill:#415A6B;" d="M202.667,323.2l157.867-169.6l-163.2,151.467l-29.867-176l13.867,189.867l-25.6,23.467  c-26.667,27.733-44.8,62.933-54.4,88.533H128c14.933-39.467,42.667-72.533,42.667-72.533l20.267-22.4l154.667-2.133L202.667,323.2z"/>
<g>
</g>
<g>
</g>
<g>
</g>
<g>
</g>
<g>
</g>
<g>
</g>
<g>
</g>
<g>
</g>
<g>
</g>
<g>
</g>
<g>
</g>
<g>
</g>
<g>
</g>
<g>
</g>
<g>
</g>
</svg>
