<?xml version="1.0" encoding="iso-8859-1"?>
<!-- Generator: Adobe Illustrator 19.0.0, SVG Export Plug-In . SVG Version: 6.00 Build 0)  -->
<svg xmlns="http://www.w3.org/2000/svg" xmlns:xlink="http://www.w3.org/1999/xlink" version="1.1" id="Capa_1" x="0px" y="0px" viewBox="0 0 512 512" style="enable-background:new 0 0 512 512;" xml:space="preserve">
<path style="fill:#FFD15E;" d="M447,191c0,35.37-9.75,69.93-28.21,99.93L358.5,391.99l-192.5,30L256,0C361.32,0,447,85.68,447,191z"/>
<g>
	<path style="fill:#FFFF66;" d="M256,0v421.99l-102.5-30L93.21,290.93C74.75,260.93,65,226.37,65,191C65,85.68,150.68,0,256,0z"/>
	<path style="fill:#FFFF66;" d="M417,191c0,29.82-8.22,58.94-23.76,84.22l-51.78,86.77H256l-60-165.995L256,30   C344.78,30,417,102.22,417,191z"/>
</g>
<path style="fill:#FFFFFF;" d="M256,30v331.99h-85.46l-51.78-86.78C103.22,249.94,95,220.82,95,191C95,102.22,167.22,30,256,30z"/>
<g>
	<rect x="241" y="60" style="fill:#41828D;" width="30" height="41"/>
	
		<rect x="157.369" y="97.865" transform="matrix(-0.7071 -0.7071 0.7071 -0.7071 223.8329 318.445)" style="fill:#41828D;" width="41" height="30"/>
	<rect x="125" y="176" style="fill:#41828D;" width="41" height="30"/>
	
		<rect x="162.87" y="248.633" transform="matrix(-0.7071 -0.7071 0.7071 -0.7071 113.3376 585.2114)" style="fill:#41828D;" width="30" height="41"/>
	<rect x="241" y="281" style="fill:#41828D;" width="30" height="41"/>
	
		<rect x="313.635" y="254.132" transform="matrix(-0.7071 -0.7071 0.7071 -0.7071 380.0979 695.7061)" style="fill:#41828D;" width="41" height="30"/>
	<rect x="346" y="176" style="fill:#41828D;" width="41" height="30"/>
	
		<rect x="319.13" y="92.357" transform="matrix(-0.7071 -0.7071 0.7071 -0.7071 490.5939 428.9239)" style="fill:#41828D;" width="30" height="41"/>
</g>
<path style="fill:#116371;" d="M256,296c57.988,0,105-47.012,105-105S313.988,86,256,86l-49,105L256,296z"/>
<path style="fill:#41828D;" d="M151,191c0,57.988,47.012,105,105,105V86C198.012,86,151,133.012,151,191z"/>
<path style="fill:#70A2AA;" d="M256,266c41.42,0,75-33.58,75-75s-33.58-75-75-75l-35,75L256,266z"/>
<path style="fill:#A0C1C6;" d="M181,191c0,41.42,33.58,75,75,75V116C214.58,116,181,149.58,181,191z"/>
<path style="fill:#FFFF66;" d="M256,221c16.568,0,30-13.432,30-30s-13.432-30-30-30l-14,30L256,221z"/>
<path style="fill:#FFFFC2;" d="M226,191c0,16.568,13.432,30,30,30v-60C239.432,161,226,174.432,226,191z"/>
<path style="fill:#0D4A55;" d="M226,422l132.52,30c0,22.32-6.99,42.99-18.86,60H256L226,422z"/>
<path style="fill:#116371;" d="M256,422v90l-83.66-0.01c-11.88-17.01-18.86-37.68-18.86-60L256,422z"/>
<polygon style="fill:#A0C1C6;" points="358.5,391.99 358.52,452 256,452 226,421.995 256,391.99 "/>
<polygon style="fill:#CFE0E3;" points="256,391.99 256,452 153.48,451.99 153.5,391.99 "/>
<g>
</g>
<g>
</g>
<g>
</g>
<g>
</g>
<g>
</g>
<g>
</g>
<g>
</g>
<g>
</g>
<g>
</g>
<g>
</g>
<g>
</g>
<g>
</g>
<g>
</g>
<g>
</g>
<g>
</g>
</svg>
