<svg height="512" viewBox="0 0 58 58" width="512" xmlns="http://www.w3.org/2000/svg"><g id="Page-1" fill="none" fill-rule="evenodd"><g id="060---Sync-Folder" fill-rule="nonzero"><path id="Shape" d="m51 5h-26c-.5522847 0-1-.44771525-1-1v-1c0-1.65685425-1.3431458-3-3-3h-14c-1.65685425 0-3 1.34314575-3 3v9h50v-4c0-1.65685425-1.3431458-3-3-3z" fill="#f29c1f"/><path id="Shape" d="m42.7 45h5.46c1.9072274-.0015321 3.5480911-1.3493844 3.92-3.22l5.88-29.39c.116709-.5870173-.0356102-1.1954503-.4151342-1.6582372-.3795241-.4627869-.9463593-.7312821-1.5448658-.7317628h-54c-.59850648.0004807-1.16534175.2689759-1.54486577.7317628-.37952402.4627869-.53184323 1.0712199-.41513423 1.6582372l5.88 29.39c.37190885 1.8706156 2.01277256 3.2184679 3.92 3.22z" fill="#f0c419"/><path id="Shape" d="m7 15h-2c-.55228475 0-1-.4477153-1-1s.44771525-1 1-1h2c.55228475 0 1 .4477153 1 1s-.44771525 1-1 1z" fill="#f9eab0"/><path id="Shape" d="m27 15h-16c-.5522847 0-1-.4477153-1-1s.4477153-1 1-1h16c.5522847 0 1 .4477153 1 1s-.4477153 1-1 1z" fill="#f9eab0"/><path id="Shape" d="m42.286 26.092c-1.0932451-.1576672-2.1073138.6007576-2.265 1.694l-.255 1.768c-4.2534755-4.3842911-10.7407429-5.7513218-16.401727-3.456257-5.660984 2.2950648-9.3647735 7.7937333-9.364273 13.902257 0 1.1045695.8954305 2 2 2s2-.8954305 2-2c.0015608-4.4910464 2.733139-8.5301399 6.9006761-10.2037992 4.167537-1.6736593 8.9340002-.6457368 12.0413239 2.5967992l-2.584-.372c-1.0800479-.1330026-2.0682321.621925-2.2238799 1.6989426-.1556478 1.0770175.5783674 2.0808329 1.6518799 2.2590574l6.928 1c.0946989.0139176.1902839.0209361.286.021.9939205-.0002213 1.8368694-.7302943 1.979-1.714l1-6.929c.1576982-1.0929066-.6001631-2.1068201-1.693-2.265z" fill="#df4d60"/><path id="Shape" d="m15.714 56.908c.525152.0760025 1.0589819-.0598005 1.4839751-.3775138.4249932-.3177134.7063108-.7912925.7820249-1.3164862l.255-1.768c4.2535822 4.3835613 10.7403783 5.7501226 16.4009148 3.4551502 5.6605364-2.2949725 9.3641659-7.7930759 9.3640852-13.9011502 0-1.1045695-.8954305-2-2-2s-2 .8954305-2 2c-.0015608 4.4910464-2.733139 8.5301399-6.9006761 10.2037992-4.167537 1.6736593-8.9340002.6457368-12.0413239-2.5967992l2.584.372c.7147586.1186642 1.4378012-.1585199 1.8900682-.7245726.4522669-.5660527.5630237-1.3324433.2895236-2.003382-.2735002-.6709386-.8884819-1.1414906-1.6075918-1.2300454l-6.928-1c-.094695-.0139528-.1902826-.0209715-.286-.021-.9939205.0002213-1.8368694.7302943-1.979 1.714l-1 6.929c-.1576982 1.0929066.6001631 2.1068201 1.693 2.265z" fill="#ff5364"/></g></g></svg>