<?xml version="1.0" encoding="iso-8859-1"?>
<!-- Generator: Adobe Illustrator 19.0.0, SVG Export Plug-In . SVG Version: 6.00 Build 0)  -->
<svg version="1.1" id="Capa_1" xmlns="http://www.w3.org/2000/svg" xmlns:xlink="http://www.w3.org/1999/xlink" x="0px" y="0px"
	 viewBox="0 0 480 480" style="enable-background:new 0 0 480 480;" xml:space="preserve">
<path style="fill:#FFC107;" d="M464,304H48c-8.832,0-16,7.168-16,16v16c0,44.128,35.904,80,80,80h288c44.128,0,80-35.872,80-80v-16
	C480,311.168,472.832,304,464,304z"/>
<path style="fill:#D32F2F;" d="M416,224c0-5.472,0.576-10.816,1.6-16H48c-26.496,0-48,21.504-48,48s21.504,48,48,48h416
	c4.832,0,9.408-0.928,13.824-2.272C442.432,293.472,416,261.92,416,224z"/>
<path style="fill:#FFC107;" d="M418.016,206.592C380.544,199.968,352,167.392,352,128c0-22.624,9.504-42.976,24.608-57.536
	C363.616,66.624,350.112,64,336,64H176c-72.352,0-133.824,54.144-142.912,125.984c-0.576,4.576,0.832,9.152,3.872,12.608
	c3.04,3.424,7.392,5.408,12,5.408h368.896C417.952,207.552,417.92,207.04,418.016,206.592z"/>
<g>
</g>
<g>
</g>
<g>
</g>
<g>
</g>
<g>
</g>
<g>
</g>
<g>
</g>
<g>
</g>
<g>
</g>
<g>
</g>
<g>
</g>
<g>
</g>
<g>
</g>
<g>
</g>
<g>
</g>
</svg>
