<?xml version="1.0" encoding="iso-8859-1"?>
<!-- Generator: Adobe Illustrator 19.0.0, SVG Export Plug-In . SVG Version: 6.00 Build 0)  -->
<svg version="1.1" id="Capa_1" xmlns="http://www.w3.org/2000/svg" xmlns:xlink="http://www.w3.org/1999/xlink" x="0px" y="0px"
	 viewBox="0 0 468.293 468.293" style="enable-background:new 0 0 468.293 468.293;" xml:space="preserve">
<path style="fill:#EBF0F3;" d="M418.341,207.922l-60.566,231.024c-4.371,17.483-19.98,29.346-38.088,29.346H148.605
	c-18.107,0-33.093-11.863-38.088-29.346L49.951,207.922c-9.99-38.712,19.356-76.8,59.317-76.8h13.737
	c19.356,0,34.966-15.61,34.966-34.966V59.317h152.976v36.839c0,19.356,15.61,34.966,34.966,34.966h13.112
	C398.985,131.122,428.332,169.21,418.341,207.922z"/>
<path style="fill:#D5D6DB;" d="M379.005,134.244c14.361,14.985,21.229,36.215,15.61,58.693l-60.566,231.024
	c-4.371,17.483-19.98,29.346-38.088,29.346H124.254c-2.498,0-4.995,0-7.493-0.624c7.493,9.99,18.732,15.61,31.22,15.61h171.083
	c18.107,0,33.717-11.863,38.088-29.346l60.566-231.024C427.083,175.454,408.351,144.234,379.005,134.244z"/>
<ellipse style="fill:#27A2DB;" cx="234.146" cy="281.6" rx="105.522" ry="84.293"/>
<path style="fill:#E56353;" d="M269.737,305.951c0,19.356-15.61,35.59-35.59,35.59s-35.59-15.61-35.59-35.59
	s35.59-84.293,35.59-84.293S269.737,286.595,269.737,305.951z"/>
<path style="fill:#E1E6E9;" d="M234.146,331.551c-14.361,0-25.6-11.239-25.6-25.6c0-2.498,2.498-4.995,4.995-4.995
	c2.498,0,4.995,2.498,4.995,4.995c0,8.741,6.868,16.234,16.234,16.234c2.498,0,4.995,2.498,4.995,4.995
	C239.766,329.678,236.644,331.551,234.146,331.551z"/>
<path style="fill:#64798A;" d="M324.683,77.424H143.61V12.488C143.61,5.62,149.229,0,156.098,0h156.722
	c6.868,0,12.488,5.62,12.488,12.488v64.937H324.683z"/>
<g>
	<rect x="172.956" y="10.615" style="fill:#3A556A;" width="9.366" height="55.571"/>
	<rect x="201.054" y="10.615" style="fill:#3A556A;" width="9.366" height="55.571"/>
	<rect x="229.776" y="10.615" style="fill:#3A556A;" width="9.366" height="55.571"/>
	<rect x="257.873" y="10.615" style="fill:#3A556A;" width="9.366" height="55.571"/>
	<rect x="285.971" y="10.615" style="fill:#3A556A;" width="9.366" height="55.571"/>
</g>
<g>
</g>
<g>
</g>
<g>
</g>
<g>
</g>
<g>
</g>
<g>
</g>
<g>
</g>
<g>
</g>
<g>
</g>
<g>
</g>
<g>
</g>
<g>
</g>
<g>
</g>
<g>
</g>
<g>
</g>
</svg>
