<svg id="color" enable-background="new 0 0 24 24" height="512" viewBox="0 0 24 24" width="512" xmlns="http://www.w3.org/2000/svg"><g><g><path d="m10.383 6.014c-3.354 0-6.506 1.305-8.875 3.674l-.035.034c-.201.201-.271.498-.182.767.09.27.324.465.605.505l4.678.67.105.008c.213 0 .418-.09.561-.251l3.703-4.159c.196-.221.244-.536.123-.806-.12-.269-.388-.442-.683-.442z" fill="#2196f3"/></g></g><g><g><path d="m23.256.003c-4.63-.1-9.87 2.31-13.21 6.02-.109.11-.21.22-.3.33l-4.57 5.12-.14.15c-.271.3-.25.75.03 1.03l5.22 5.2c-.7-.6-.97-1.55-.67-2.43.29-.87 1.08-1.47 2-1.52l2.75-.16 1.02-2.76c.32-.89 1.17-1.48 2.11-1.48s1.79.59 2.11 1.48l.33.89c2.579-3.24 4.15-7.4 4.06-11.13-.01-.4-.34-.73-.74-.74z" fill="#eceff1"/></g></g><g><g><path d="m18.9 5.1c-.971-.98-2.56-.98-3.54 0-.971.97-.971 2.56 0 3.54.489.48 1.13.73 1.77.73s1.28-.25 1.77-.73c.97-.98.97-2.57 0-3.54z" fill="#2196f3"/></g></g><g><g><path d="m7.082 16.92c-1.2-1.19-3.271-1.19-4.47 0-1.021 1.03-2.33 5.27-2.58 6.11-.08.27-.011.56.189.75.141.14.331.22.531.22l.22-.03c.84-.25 5.08-1.56 6.11-2.58.59-.6.92-1.39.92-2.23 0-.85-.33-1.64-.92-2.24z" fill="#ff9800"/></g></g><g><g><path d="m10.05 6.018c-3.229.083-6.252 1.379-8.543 3.67l-.034.034c-.201.201-.271.498-.182.767.09.27.324.465.605.505l3.286.471 4.564-5.112c.09-.11.19-.22.3-.33.001-.002.003-.003.004-.005z" fill="#1d83d4"/></g></g><g><g><path d="m22.977 0c-4.558 0-9.654 2.385-12.927 6.018-.001.002-.003.003-.004.005-.109.11-.21.22-.3.33l-4.564 5.112-.006.007-.14.15c-.271.3-.25.75.03 1.03l3.146 3.134 7.148-7.146c-.971-.98-.971-2.57 0-3.54.49-.49 1.132-.735 1.773-.735s1.281.245 1.767.735l4.873-4.873c-.134-.134-.317-.219-.517-.224-.093-.002-.186-.003-.279-.003z" fill="#cdd0d2"/></g></g><g><g><path d="m17.134 4.365c-.641 0-1.284.245-1.773.735-.971.97-.971 2.56 0 3.54l3.539-3.54c-.485-.49-1.125-.735-1.766-.735z" fill="#1d83d4"/></g></g><g><g><path d="m4.847 16.027c-.818 0-1.635.297-2.234.892-1.021 1.03-2.33 5.27-2.58 6.11-.08.269-.011.559.188.749l6.86-6.86c-.6-.593-1.417-.891-2.234-.891z" fill="#de8400"/></g></g><g><g><path d="m21.054 24c-.147 0-.295-.043-.422-.13l-3.132-2.131-3.132 2.131c-.257.174-.597.173-.852-.006-.256-.179-.374-.497-.297-.798l.975-3.85-2.932-2.503c-.232-.199-.321-.519-.224-.81.098-.29.362-.492.669-.509l3.734-.211 1.353-3.69c.11-.297.392-.493.706-.493s.596.196.704.492l1.354 3.69 3.734.211c.307.018.571.219.669.509.098.291.009.611-.224.81l-2.932 2.503.975 3.85c.077.302-.041.62-.297.798-.129.092-.279.137-.429.137z" fill="#ffc107"/></g></g><g><g><path d="m17.5 11c-.315 0-.596.196-.704.492l-1.353 3.69-3.734.211c-.307.018-.571.219-.669.509-.098.291-.009.611.224.81l2.932 2.503-.975 3.85c-.077.302.041.62.297.798.129.09.279.135.43.135.147 0 .295-.043.422-.13l3.132-2.131v-10.737z" fill="#dea806"/></g></g></svg>