<?xml version="1.0" encoding="iso-8859-1"?>
<!-- Generator: Adobe Illustrator 19.0.0, SVG Export Plug-In . SVG Version: 6.00 Build 0)  -->
<svg version="1.1" id="Capa_1" xmlns="http://www.w3.org/2000/svg" xmlns:xlink="http://www.w3.org/1999/xlink" x="0px" y="0px"
	 viewBox="0 0 512 512" style="enable-background:new 0 0 512 512;" xml:space="preserve">
<path style="fill:#66C6B9;" d="M256,512L256,512C120.533,476.8,25.6,354.133,25.6,214.4V51.2c146.133-68.267,314.667-68.267,460.8,0
	v163.2C486.4,354.133,391.467,476.8,256,512L256,512z"/>
<path style="fill:#FFFFFF;" d="M256,456.533C151.467,423.467,78.933,325.333,78.933,214.4v-128
	C135.467,65.067,196.267,53.333,256,53.333S376.533,65.067,433.067,86.4v128C433.067,325.333,360.533,423.467,256,456.533z"/>
<path style="fill:#F3705A;" d="M181.333,342.4c-20.267-12.8-25.6-40.533-11.733-60.8l0,0c7.467-10.667,10.667-22.4,12.8-35.2
	c1.067-9.6,3.2-22.4-4.267-30.933c8.533,7.467,17.067,12.8,20.267,24.533c2.133,9.6,3.2,29.867-4.267,38.4
	c4.267,2.133,17.067-8.533,19.2-12.8c6.4-9.6,5.333-27.733,1.067-38.4c-5.333-12.8-7.467-21.333-5.333-43.733
	c0-3.2,1.067-7.467,3.2-10.667c7.467-14.933,22.4-20.267,38.4-25.6c-5.333,2.133-12.8,8.533-17.067,12.8s-7.467,9.6-8.533,16
	c-2.133,10.667,4.267,22.4,11.733,28.8c2.133-5.333-1.067-11.733,1.067-17.067c3.2-8.533,12.8-17.067,21.333-17.067
	c50.133-4.267,40.533-56.533,34.133-67.2c19.2,0,30.933,67.2,29.867,78.933c-1.067,10.667-14.933,13.867-23.467,16
	c-8.533,2.133-18.133,7.467-22.4,14.933c-6.4,11.733-2.133,26.667,6.4,36.267c11.733,11.733,22.4,26.667,11.733,42.667
	c10.667-5.333,18.133-9.6,20.267-23.467c1.067-12.8-7.467-17.067-11.733-26.667c-8.533-18.133,9.6-39.467,24.533-48
	c0,2.133-2.133,4.267-4.267,7.467c-2.133,4.267-3.2,9.6-4.267,13.867c-3.2,12.8,0,26.667,4.267,38.4
	c7.467,20.267,23.467,39.467,24.533,61.867c0,10.667-3.2,21.333-10.667,29.867C293.333,381.867,229.333,372.267,181.333,342.4z"/>
<path style="fill:#FFD15C;" d="M302.933,334.933c0-5.333-3.2-10.667-5.333-14.933c-3.2-4.267-8.533-7.467-10.667-12.8
	c-3.2-6.4,1.067-21.333,3.2-29.867c-4.267,4.267-8.533,12.8-9.6,20.267c-2.133,10.667,0,13.867,0,22.4
	c-5.333-3.2-11.733-16-10.667-21.333c1.067-5.333,6.4-8.533,6.4-14.933c1.067-11.733-13.867-19.2-21.333-26.667
	c1.067,12.8,3.2,37.333-13.867,40.533c6.4-8.533,9.6-28.8,1.067-36.267c-1.067,8.533-2.133,16-6.4,23.467S224,298.667,217.6,305.067
	c-7.467,8.533-9.6,17.067-7.467,28.8C219.733,376.533,297.6,381.867,302.933,334.933z"/>
<g>
</g>
<g>
</g>
<g>
</g>
<g>
</g>
<g>
</g>
<g>
</g>
<g>
</g>
<g>
</g>
<g>
</g>
<g>
</g>
<g>
</g>
<g>
</g>
<g>
</g>
<g>
</g>
<g>
</g>
</svg>
