<?xml version="1.0" encoding="iso-8859-1"?>
<!-- Generator: Adobe Illustrator 19.0.0, SVG Export Plug-In . SVG Version: 6.00 Build 0)  -->
<svg xmlns="http://www.w3.org/2000/svg" xmlns:xlink="http://www.w3.org/1999/xlink" version="1.1" id="Layer_1" x="0px" y="0px" viewBox="0 0 512 512" style="enable-background:new 0 0 512 512;" xml:space="preserve">
<path style="fill:#66C6B9;" d="M199.467,188.8C86.4,231.467,68.267,17.067,23.467,0C126.933,27.733,261.333,7.467,199.467,188.8z"/>
<g>
	<path style="fill:#4EC0AA;" d="M217.6,206.933c-24.533-67.2-81.067-137.6-139.733-178.133c59.733,39.467,102.4,125.867,132.267,192   C212.267,215.467,214.4,211.2,217.6,206.933z"/>
	<path style="fill:#4EC0AA;" d="M174.933,130.133c-22.4-3.2-45.867-9.6-65.067-21.333c19.2,13.867,40.533,23.467,61.867,29.867   C172.8,135.467,173.867,132.267,174.933,130.133z"/>
	<path style="fill:#4EC0AA;" d="M147.2,92.8c-2.133-28.8-8.533-50.133-19.2-65.067c12.8,14.933,21.333,35.2,26.667,62.933   C152.533,90.667,149.333,91.733,147.2,92.8z"/>
	<path style="fill:#4EC0AA;" d="M120.533,57.6c2.133,2.133,5.333,4.267,7.467,6.4c-20.267-4.267-37.333-12.8-56.533-21.333   C87.467,49.067,103.467,54.4,120.533,57.6z"/>
</g>
<path style="fill:#66C6B9;" d="M263.467,125.867c50.133,16,74.667-6.4,109.867-29.867c32-24.533,73.6-50.133,101.333-48  C407.467,11.733,261.333-12.8,263.467,125.867z"/>
<g>
	<path style="fill:#4EC0AA;" d="M215.467,236.8C233.6,114.133,341.333,52.267,420.267,42.667c-54.4,6.4-193.067,44.8-220.8,194.133   H215.467z"/>
	<path style="fill:#4EC0AA;" d="M302.933,85.333c20.267,0,39.467,1.067,57.6-1.067c-18.133,4.267-37.333,5.333-57.6,7.467   C301.867,89.6,301.867,87.467,302.933,85.333z"/>
	<path style="fill:#4EC0AA;" d="M328.533,74.667c10.667-19.2,25.6-33.067,41.6-41.6C353.067,40.533,336,53.333,324.267,72.533   C325.333,72.533,327.467,73.6,328.533,74.667z"/>
	<path style="fill:#4EC0AA;" d="M362.667,55.467c-3.2,1.067-5.333,2.133-8.533,3.2c17.067,0,33.067-1.067,50.133-1.067   C390.4,56.533,376.533,56.533,362.667,55.467z"/>
</g>
<path style="fill:#F3705A;" d="M388.267,333.867L293.333,224c-3.2-4.267-7.467-6.4-12.8-6.4h-131.2  c-5.333,0-10.667,2.133-13.867,6.4l-83.2,109.867h-35.2c-9.6,0-17.067,7.467-17.067,17.067v88.533c0,9.6,7.467,12.8,17.067,12.8  h477.867c9.6,0,17.067-7.467,17.067-17.067v-61.867c0-8.533-5.333-14.933-13.867-17.067L388.267,333.867z"/>
<g>
	<path style="fill:#415A6B;" d="M195.2,240h-39.467c-2.133,0-4.267,1.067-5.333,3.2l-61.867,80c-3.2,4.267,0,11.733,5.333,11.733   H195.2c4.267,0,7.467-3.2,7.467-7.467v-80C202.667,243.2,199.467,240,195.2,240z"/>
	<path style="fill:#415A6B;" d="M344.533,322.133l-61.867-80c-1.067-2.133-3.2-3.2-5.333-3.2h-45.867   c-4.267,0-7.467,3.2-7.467,7.467v80c0,4.267,3.2,7.467,7.467,7.467H339.2C344.533,333.867,347.733,326.4,344.533,322.133z"/>
	<circle style="fill:#415A6B;" cx="96" cy="451.2" r="60.8"/>
</g>
<circle style="fill:#E8EAE9;" cx="96" cy="451.2" r="32"/>
<circle style="fill:#415A6B;" cx="395.733" cy="451.2" r="60.8"/>
<circle style="fill:#E8EAE9;" cx="395.733" cy="451.2" r="32"/>
<g>
</g>
<g>
</g>
<g>
</g>
<g>
</g>
<g>
</g>
<g>
</g>
<g>
</g>
<g>
</g>
<g>
</g>
<g>
</g>
<g>
</g>
<g>
</g>
<g>
</g>
<g>
</g>
<g>
</g>
</svg>
