<?xml version="1.0" encoding="iso-8859-1"?>
<!-- Generator: Adobe Illustrator 19.0.0, SVG Export Plug-In . SVG Version: 6.00 Build 0)  -->
<svg version="1.1" id="Capa_1" xmlns="http://www.w3.org/2000/svg" xmlns:xlink="http://www.w3.org/1999/xlink" x="0px" y="0px"
	 viewBox="0 0 510.616 510.616" style="enable-background:new 0 0 510.616 510.616;" xml:space="preserve">
<path style="fill:#6F7070;" d="M432.224,142.476V74.044c0-19.248-15.6-34.848-34.848-34.848H34.848C15.6,39.196,0,54.796,0,74.044
	v68.432H432.224z"/>
<path style="fill:#E5E5E5;" d="M432.176,142.46v294.08c0,19.2-15.52,34.88-34.88,34.88h-362.4c-19.36,0-34.88-15.68-34.88-34.88
	V142.46H432.176z"/>
<circle style="fill:#8BD5EC;" cx="47.312" cy="90.828" r="20.672"/>
<circle style="fill:#FFCC5B;" cx="107.984" cy="90.828" r="20.672"/>
<circle style="fill:#F89E62;" cx="168.576" cy="90.828" r="20.672"/>
<path style="fill:#F3F3F3;" d="M195.264,446.78c0-13.6-11.024-24.624-24.624-24.624h-32.944c-11.392,0-20.656-9.312-20.592-20.704
	v-0.272c0-0.512-0.016-1.008-0.048-1.504c-0.688-11.232,8.224-20.688,19.472-20.688h43.632c13.328,0,25.28-9.984,25.984-23.296
	c0.736-14.208-10.56-25.952-24.592-25.952h-13.488c-11.456,0-20.704-9.312-20.64-20.768l0.016-1.424v-0.288
	c-0.064-12.048,9.728-21.904,21.76-21.904h17.44c13.328,0,25.28-9.984,25.984-23.296c0.736-14.208-10.56-25.952-24.592-25.952
	h-62.944c-11.904,0-20.784-10-20.64-21.904c0-0.096,0-0.192,0-0.288s0-0.192,0-0.288c-0.144-11.904,8.736-21.904,20.64-21.904
	h20.352c13.328,0,25.28-9.984,25.984-23.296c0.736-14.208-10.56-25.952-24.592-25.952H0v294.096c0,19.248,15.6,34.848,34.848,34.848
	h135.776C184.24,471.404,195.264,460.38,195.264,446.78z"/>
<g style="opacity:0.6;">
	<rect x="45.824" y="190.908" style="fill:#FFFFFF;" width="340.576" height="232.064"/>
</g>
<g>
	<path style="fill:#686969;" d="M345.504,77.58h-68.128c-7.328,0-13.264,5.936-13.264,13.264s5.936,13.264,13.264,13.264h68.128
		c7.328,0,13.264-5.936,13.264-13.264C358.768,83.5,352.816,77.58,345.504,77.58z"/>
	<path style="fill:#686969;" d="M393.984,77.58h-15.168c-7.328,0-13.264,5.936-13.264,13.264s5.936,13.264,13.264,13.264h15.168
		c7.328,0,13.264-5.936,13.264-13.264C407.248,83.5,401.312,77.58,393.984,77.58z"/>
</g>
<g>
	<rect x="68.064" y="225.228" style="fill:#ED6362;" width="134.192" height="32"/>
	<rect x="68.064" y="290.94" style="fill:#ED6362;" width="134.192" height="32"/>
	<rect x="68.064" y="356.588" style="fill:#ED6362;" width="181.504" height="32"/>
</g>
<g style="opacity:0.1;">
	<path style="fill:#010101;" d="M432.176,205.98v230.56c0,19.2-15.52,34.88-34.88,34.88h-37.44l-94.88-95.04l160.16-173.6
		L432.176,205.98z"/>
</g>
<rect x="355.23" y="137.974" transform="matrix(-0.7071 -0.7071 0.7071 -0.7071 470.8181 711.9252)" style="fill:#4B9FD8;" width="55.247" height="240.958"/>
<rect x="435.444" y="171.228" transform="matrix(-0.7071 -0.7071 0.7071 -0.7071 664.418 631.842)" style="fill:#F3F3F3;" width="55.247" height="14.176"/>
<path style="fill:#E95454;" d="M502.528,138.796c-10.784-10.784-28.288-10.784-39.072,0l-14.944,14.944l39.072,39.072l14.944-14.944
	C513.312,167.068,513.312,149.58,502.528,138.796z"/>
<polygon style="fill:#FFCC5B;" points="317.248,363.148 278.176,324.076 264.912,376.412 "/>
<polygon style="fill:#464646;" points="286.864,370.844 270.48,354.46 264.912,376.412 "/>
<g>
	<path style="fill:#51B7E8;" d="M352.816,288.508c-5.328-5.328-5.344-13.984,0-19.312l29.824-29.824
		c5.344-5.344,13.984-5.328,19.312,0s5.344,13.984,0,19.312l-29.824,29.824C366.784,293.852,358.144,293.852,352.816,288.508z"/>
	<path style="fill:#51B7E8;" d="M320.832,320.492c-5.328-5.328-5.344-13.984,0-19.312l4.16-4.16c5.344-5.344,13.984-5.328,19.312,0
		s5.344,13.984,0,19.312l-4.16,4.16C334.8,325.836,326.16,325.82,320.832,320.492z"/>
</g>
<g>
</g>
<g>
</g>
<g>
</g>
<g>
</g>
<g>
</g>
<g>
</g>
<g>
</g>
<g>
</g>
<g>
</g>
<g>
</g>
<g>
</g>
<g>
</g>
<g>
</g>
<g>
</g>
<g>
</g>
</svg>
