<svg id="color" enable-background="new 0 0 24 24" height="512" viewBox="0 0 24 24" width="512" xmlns="http://www.w3.org/2000/svg"><path d="m14.25 0h-11.5c-1.52 0-2.75 1.23-2.75 2.75v15.5c0 1.52 1.23 2.75 2.75 2.75h7.84c-.38-.93-.59-1.94-.59-3 0-.91.44-1.71 1.12-2.21-.01-.03-.01-.06-.02-.09-.03-.12-.05-.24-.07-.36-.01-.08-.02-.15-.02-.23 0-.04-.01-.07-.01-.11v-2.25c0-1.12.67-2.12 1.71-2.55.33-.13.68-.2 1.04-.2.55 0 1.09.17 1.54.48.55-.2 1.12-.34 1.71-.41v-7.32c0-1.52-1.23-2.75-2.75-2.75z" fill="#eceff1"/><path d="m8.5 0h-5.75c-1.52 0-2.75 1.23-2.75 2.75v15.5c0 1.52 1.23 2.75 2.75 2.75h5.75v-3.75z" fill="#cdd0d2"/><g fill="#90a4ae"><path d="m13 10h-9c-.552 0-1-.448-1-1s.448-1 1-1h9c.552 0 1 .448 1 1s-.448 1-1 1z"/><path d="m9 14h-5c-.552 0-1-.448-1-1s.448-1 1-1h5c.552 0 1 .448 1 1s-.448 1-1 1z"/><path d="m8 6h-4c-.552 0-1-.448-1-1s.448-1 1-1h4c.552 0 1 .448 1 1s-.448 1-1 1z"/></g><path d="m9 5h-6c0 .553.448 1 1 1h4c.552 0 1-.447 1-1z" fill="#7d8f97"/><path d="m14 9h-11c0 .553.448 1 1 1h9c.552 0 1-.447 1-1z" fill="#7d8f97"/><path d="m10 13h-7c0 .553.448 1 1 1h5c.552 0 1-.447 1-1z" fill="#7d8f97"/><path d="m18 24c-3.309 0-6-2.691-6-6 0-.414.336-.75.75-.75s.75.336.75.75c0 2.481 2.019 4.5 4.5 4.5s4.5-2.019 4.5-4.5-2.019-4.5-4.5-4.5c-1.489 0-2.778.684-3.632 1.925-.234.341-.7.429-1.043.193-.342-.235-.428-.702-.193-1.043 1.125-1.636 2.899-2.575 4.868-2.575 3.309 0 6 2.691 6 6s-2.691 6-6 6z" fill="#607d8b"/><path d="m15.945 15.75h-2.195c-.414 0-.75-.336-.75-.75v-2.25c0-.305.185-.58.467-.695.281-.114.605-.047.82.172l2.195 2.25c.21.216.271.537.154.814-.116.278-.389.459-.691.459z" fill="#607d8b"/><path d="m12.75 17.25c-.414 0-.75.336-.75.75 0 3.309 2.691 6 6 6v-1.5c-2.481 0-4.5-2.019-4.5-4.5 0-.414-.336-.75-.75-.75zm.326-1.921c.055.112.139.213.249.289.13.089.278.132.424.132h.021-.02c-.296 0-.552-.172-.674-.421zm-.001-.001.001.001zm-.075-.343c-.001.033.001.067.005.1-.003-.028-.005-.056-.005-.085zm5-2.985c-1.12 0-2.177.304-3.088.867l1.079 1.106c.604-.31 1.283-.473 2.009-.473z" fill="#546d79"/><path d="m13.748 12c-.095 0-.19.018-.281.055-.282.115-.467.39-.467.695v2.235.015c0 .029.002.057.005.085.01.086.034.168.07.243l.001.001c.122.249.378.421.674.421h.021 2.174c.302 0 .574-.181.691-.459.117-.277.056-.599-.154-.814l-.491-.503-1.079-1.106-.625-.641c-.145-.149-.341-.227-.539-.227z" fill="#546d79"/></svg>