<?xml version="1.0" encoding="iso-8859-1"?>
<!-- Generator: Adobe Illustrator 19.0.0, SVG Export Plug-In . SVG Version: 6.00 Build 0)  -->
<svg version="1.1" id="Capa_1" xmlns="http://www.w3.org/2000/svg" xmlns:xlink="http://www.w3.org/1999/xlink" x="0px" y="0px"
	 viewBox="0 0 512 512" style="enable-background:new 0 0 512 512;" xml:space="preserve">
<g>
	<path style="fill:#F2992D;" d="M256,256c-35.488,0.016-99.824-13.696-137.344-56.896C52.336,203.776,0,256,0,256
		s52.336,52.224,118.656,56.896C151.536,275.024,210.544,255.984,256,256z"/>
	<path style="fill:#F2992D;" d="M256,256c-29.104,29.12-84,60.656-137.344,56.896c-43.584,50.192-43.68,124.128-43.68,124.128
		s73.936-0.08,124.128-43.68C195.584,343.408,223.728,288.256,256,256z"/>
	<path style="fill:#F2992D;" d="M256,256c0.016,35.488-13.696,99.824-56.896,137.344C203.776,459.664,256,512,256,512
		s52.224-52.336,56.896-118.656C275.024,360.464,255.984,301.456,256,256z"/>
	<path style="fill:#F2992D;" d="M256,256c29.12,29.104,60.656,84,56.896,137.344c50.192,43.584,124.128,43.68,124.128,43.68
		s-0.08-73.936-43.68-124.128C343.408,316.416,288.256,288.272,256,256z"/>
	<path style="fill:#F2992D;" d="M256,256c35.488-0.016,99.824,13.696,137.344,56.896C459.664,308.224,512,256,512,256
		s-52.336-52.224-118.656-56.896C360.464,236.976,301.456,256.016,256,256z"/>
	<path style="fill:#F2992D;" d="M256,256c29.104-29.12,84-60.656,137.344-56.896c43.584-50.192,43.68-124.128,43.68-124.128
		s-73.936,0.08-124.128,43.68C316.416,168.592,288.272,223.744,256,256z"/>
	<path style="fill:#F2992D;" d="M256,256c-29.12-29.104-60.656-84-56.896-137.344c-50.192-43.584-124.128-43.68-124.128-43.68
		s0.08,73.936,43.68,124.128C168.592,195.584,223.744,223.728,256,256z"/>
	<path style="fill:#F2992D;" d="M256,256c-0.016-35.488,13.696-99.824,56.896-137.344C308.224,52.336,256,0,256,0
		s-52.224,52.336-56.896,118.656C236.976,151.536,256.016,210.544,256,256z"/>
</g>
<g>
	<path style="fill:#DF8726;" d="M118.656,199.104C151.536,236.976,210.544,256.016,256,256
		C226.896,226.88,172,195.344,118.656,199.104z"/>
	<path style="fill:#DF8726;" d="M118.656,312.896C168.592,316.416,223.744,288.272,256,256
		C220.512,255.984,156.176,269.696,118.656,312.896z"/>
	<path style="fill:#DF8726;" d="M199.104,393.344C236.976,360.464,256.016,301.456,256,256
		C226.88,285.104,195.344,340,199.104,393.344z"/>
	<path style="fill:#DF8726;" d="M312.896,393.344C316.416,343.408,288.272,288.256,256,256
		C255.984,291.488,269.696,355.824,312.896,393.344z"/>
	<path style="fill:#DF8726;" d="M256,256c29.104,29.12,84,60.656,137.344,56.896C360.464,275.024,301.456,255.984,256,256z"/>
	<path style="fill:#DF8726;" d="M393.344,199.104C343.408,195.584,288.256,223.728,256,256
		C291.488,256.016,355.824,242.304,393.344,199.104z"/>
	<path style="fill:#DF8726;" d="M312.896,118.656C275.024,151.536,255.984,210.544,256,256
		C285.12,226.896,316.656,172,312.896,118.656z"/>
	<path style="fill:#DF8726;" d="M199.104,118.656C195.584,168.592,223.728,223.744,256,256
		C256.016,220.512,242.304,156.176,199.104,118.656z"/>
</g>
<circle style="fill:#FFFFFF;" cx="256" cy="256" r="79.12"/>
<circle style="fill:#8E6D53;" cx="256" cy="256" r="52.272"/>
<g>
</g>
<g>
</g>
<g>
</g>
<g>
</g>
<g>
</g>
<g>
</g>
<g>
</g>
<g>
</g>
<g>
</g>
<g>
</g>
<g>
</g>
<g>
</g>
<g>
</g>
<g>
</g>
<g>
</g>
</svg>
