<?xml version="1.0" encoding="iso-8859-1"?>
<!-- Generator: Adobe Illustrator 19.0.0, SVG Export Plug-In . SVG Version: 6.00 Build 0)  -->
<svg version="1.1" id="Layer_1" xmlns="http://www.w3.org/2000/svg" xmlns:xlink="http://www.w3.org/1999/xlink" x="0px" y="0px"
	 viewBox="0 0 512.156 512.156" style="enable-background:new 0 0 512.156 512.156;" xml:space="preserve">
<g>
	<path style="fill:#FAC176;" d="M20.189,205.215c29.431,10.999,87.861,38.868,136.395,99.284c0,0,74.134,134.144,117.01,130.79
		c0,0,107.723,2.895,220.531-24.973c16.428-4.061,23.137-24.444,13.745-38.524c-10.134-15.175-35.566-31.232-95.691-37.35
		c-17.752-1.81-35.672-0.291-53.045,3.814c-21.989,5.182-57.812,8.324-80.534-17.117C243.942,282.315,66.454,67.39,51.2,77.1
		c0,0-48.94,34.481-51.182,98.463C-0.441,188.672,7.901,200.625,20.189,205.215"/>
	<g>
		<path style="fill:#D8A261;" d="M412.182,334.439c-17.761-1.81-35.681-0.282-53.054,3.814c-2.357,0.556-4.899,1.077-7.539,1.554
			c-15.439,26.315-24.726,58.898-24.92,94.332c41.966-2.189,103.901-8.121,167.459-23.826c16.428-4.052,23.137-24.444,13.745-38.515
			C497.739,356.614,472.297,340.565,412.182,334.439"/>
		<path style="fill:#D8A261;" d="M20.252,205.215c-2.931-1.095-5.606-2.631-8.024-4.476l-0.009,0.018
			c31.214,37.685,49.576,87.199,49.576,136.536v97.995h35.31V247.376C66.605,224.812,38.092,211.88,20.252,205.215"/>
	</g>
</g>
<g>
</g>
<g>
</g>
<g>
</g>
<g>
</g>
<g>
</g>
<g>
</g>
<g>
</g>
<g>
</g>
<g>
</g>
<g>
</g>
<g>
</g>
<g>
</g>
<g>
</g>
<g>
</g>
<g>
</g>
</svg>
