<?xml version="1.0" encoding="iso-8859-1"?>
<!-- Generator: Adobe Illustrator 19.0.0, SVG Export Plug-In . SVG Version: 6.00 Build 0)  -->
<svg version="1.1" id="Layer_1" xmlns="http://www.w3.org/2000/svg" xmlns:xlink="http://www.w3.org/1999/xlink" x="0px" y="0px"
	 viewBox="0 0 512 512" style="enable-background:new 0 0 512 512;" xml:space="preserve">
<g>
	<path style="fill:#35495E;" d="M223.996,310.44c-2.825-11.802-3.31-62.526-3.31-79.448V95.267V61.793
		C220.685,27.666,193.02,0,158.892,0S100.78,30.164,97.099,61.793c0,0-18.873,209.355-29.237,249.379
		c-10.487,40.466-7.177,108.694,9.931,141.241C94.892,484.97,123.582,512,158.892,512c44.138,0,64.291-67.69,66.94-87.172
		c2.083-15.281,7.142-72.024,0-105.56L223.996,310.44z"/>
	<path style="fill:#16242D;" d="M145.928,397.245c21.222,0,36.802-11.149,48.252-28.239c0.177-15.475-4.696-51.085-4.696-51.085
		c-3.566-16.243-4.105-61.272-4.105-86.925V61.797c0-14.601-11.882-26.483-26.483-26.483c-14.38,0-24.797,15.272-26.677,30.182
		c-2.172,24.108-19.474,213.222-30.182,254.535c-3.54,13.656-5.058,31.25-4.846,48.94
		C108.658,386.016,124.318,397.245,145.928,397.245"/>
	<path style="fill:#233442;" d="M225.835,319.267l-1.836-8.828c-1.086-4.511-1.818-14.707-2.322-26.527l-0.794,1.81
		c-7.601,54.051-26.756,111.519-74.955,111.519c-46.442,0-65.633-51.482-74.055-102.276l-0.556-1.28
		c-1.227,7.336-2.392,13.356-3.46,17.487c-10.478,40.466-7.168,108.694,9.931,141.241C94.896,484.97,123.585,512,158.896,512
		c44.138,0,64.291-67.69,66.94-87.172C227.919,409.547,232.968,352.803,225.835,319.267"/>
	<path style="fill:#35495E;" d="M288.004,310.44c2.825-11.802,3.31-62.526,3.31-79.448V95.267V61.793
		C291.315,27.666,318.98,0,353.108,0s58.112,30.164,61.793,61.793c0,0,18.873,209.355,29.237,249.379
		c10.487,40.466,7.177,108.694-9.931,141.241C417.108,484.97,388.418,512,353.108,512c-44.138,0-64.291-67.69-66.94-87.172
		c-2.083-15.281-7.142-72.024,0-105.56L288.004,310.44z"/>
	<path style="fill:#16242D;" d="M366.072,397.245c-21.221,0-36.802-11.149-48.252-28.239c-0.177-15.475,4.696-51.085,4.696-51.085
		c3.566-16.243,4.105-61.272,4.105-86.925V61.797c0-14.601,11.882-26.483,26.483-26.483c14.38,0,24.797,15.272,26.677,30.182
		c2.172,24.108,19.474,213.222,30.182,254.535c3.54,13.656,5.058,31.25,4.846,48.94
		C403.342,386.016,387.682,397.245,366.072,397.245"/>
	<path style="fill:#233442;" d="M286.165,319.267l1.836-8.828c1.086-4.511,1.818-14.707,2.322-26.527l0.794,1.81
		c7.601,54.051,26.756,111.519,74.955,111.519c46.442,0,65.633-51.482,74.055-102.276l0.556-1.28
		c1.227,7.336,2.392,13.356,3.46,17.487c10.478,40.466,7.168,108.694-9.931,141.241C417.104,484.97,388.415,512,353.104,512
		c-44.138,0-64.291-67.69-66.94-87.172C284.081,409.547,279.032,352.803,286.165,319.267"/>
</g>
<g>
</g>
<g>
</g>
<g>
</g>
<g>
</g>
<g>
</g>
<g>
</g>
<g>
</g>
<g>
</g>
<g>
</g>
<g>
</g>
<g>
</g>
<g>
</g>
<g>
</g>
<g>
</g>
<g>
</g>
</svg>
