<?xml version="1.0" encoding="iso-8859-1"?>
<!-- Generator: Adobe Illustrator 19.0.0, SVG Export Plug-In . SVG Version: 6.00 Build 0)  -->
<svg version="1.1" id="Layer_1" xmlns="http://www.w3.org/2000/svg" xmlns:xlink="http://www.w3.org/1999/xlink" x="0px" y="0px"
	 viewBox="0 0 511.847 511.847" style="enable-background:new 0 0 511.847 511.847;" xml:space="preserve">
<g>
	<path style="fill:#35495E;" d="M8.828,216.042c0,0-35.31-52.966,35.31-123.586c0,0,189.793,222.897,267.034,236.138
		c0,0,43.405,11.485,75.767-8.969c0,0,90.483,25.15,112.552,36.184c22.069,11.034,10.858,30.164-4.776,34.578
		c0.026,0.23-212.047,49.47-257.103,19.129C205.427,387.845,105.931,260.18,105.931,260.18
		C80.817,244.229,38.003,221.877,8.828,216.042"/>
	<path style="fill:#233442;" d="M17.655,410.249h35.31v-97.766c0-15.598,4.873-31.1,15.104-42.867
		c8.536-9.825,20.206-9.437,37.862-9.437c-25.114-15.951-67.928-38.303-97.103-44.138C17.655,251.353,17.655,385.973,17.655,410.249
		"/>
</g>
<g>
</g>
<g>
</g>
<g>
</g>
<g>
</g>
<g>
</g>
<g>
</g>
<g>
</g>
<g>
</g>
<g>
</g>
<g>
</g>
<g>
</g>
<g>
</g>
<g>
</g>
<g>
</g>
<g>
</g>
</svg>
