<?xml version="1.0" encoding="iso-8859-1"?>
<!-- Generator: Adobe Illustrator 19.0.0, SVG Export Plug-In . SVG Version: 6.00 Build 0)  -->
<svg version="1.1" id="Capa_1" xmlns="http://www.w3.org/2000/svg" xmlns:xlink="http://www.w3.org/1999/xlink" x="0px" y="0px"
	 viewBox="0 0 512 512" style="enable-background:new 0 0 512 512;" xml:space="preserve">
<path style="fill:#CDD6E0;" d="M505.6,54.933L468.267,17.6c-8.533-8.533-23.467-8.533-32,0c-6.4,6.4-8.533,14.933-5.333,23.467
	L160,266.133l94.933,96l227.2-268.8C489.6,95.467,499.2,94.4,505.6,88C514.133,78.4,514.133,63.467,505.6,54.933z"/>
<path style="fill:#334A5E;" d="M349.867,500.8H162.133c-11.733,0-21.333-9.6-21.333-21.333v-44.8c0-11.733,9.6-21.333,21.333-21.333
	h187.733c11.733,0,21.333,9.6,21.333,21.333v44.8C371.2,491.2,361.6,500.8,349.867,500.8z"/>
<path style="fill:#40596B;" d="M19.2,227.733c0,131.2,105.6,236.8,236.8,236.8s236.8-105.6,236.8-236.8L19.2,227.733L19.2,227.733z"
	/>
<path style="fill:#FF7058;" d="M493.867,209.6H18.133C7.467,209.6,0,218.133,0,227.733c0,10.667,8.533,18.133,18.133,18.133H492.8
	c10.667,0,18.133-8.533,18.133-18.133C512,218.133,503.467,209.6,493.867,209.6z"/>
<g>
	<path style="fill:#3DC9AE;" d="M324.267,294.933c-107.733-2.133-102.4,68.267-99.2,87.467c-9.6,10.667-8.533,19.2-8.533,20.267
		c0,2.133,2.133,4.267,4.267,4.267l0,0c2.133,0,4.267-2.133,4.267-4.267c0,0-1.067-5.333,5.333-13.867
		c2.133,1.067,4.267,1.067,6.4,2.133c40.533,10.667,81.067-19.2,86.4-60.8C326.4,310.933,324.267,294.933,324.267,294.933z"/>
	<path style="fill:#3DC9AE;" d="M263.467,296c-1.067,1.067-3.2,1.067-4.267,2.133c-8.533,3.2-16,8.533-21.333,13.867
		c-2.133,2.133-4.267,4.267-5.333,5.333c-9.6,10.667-13.867,23.467-14.933,34.133C202.667,340.8,192,324.8,189.867,305.6
		c-2.133-18.133,0-32,0-32C227.2,273.6,249.6,283.2,263.467,296z"/>
</g>
<g>
	<path style="fill:#4CDBC4;" d="M259.2,298.133c-8.533,3.2-16,8.533-21.333,13.867c-11.733-11.733-26.667-23.467-42.667-34.133
		C222.933,278.933,245.333,285.333,259.2,298.133z"/>
	<path style="fill:#4CDBC4;" d="M229.333,381.333C227.2,370.667,225.067,347.2,240,328c13.867-18.133,40.533-27.733,77.867-28.8
		C270.933,330.133,238.933,368.533,229.333,381.333z"/>
</g>
<g>
</g>
<g>
</g>
<g>
</g>
<g>
</g>
<g>
</g>
<g>
</g>
<g>
</g>
<g>
</g>
<g>
</g>
<g>
</g>
<g>
</g>
<g>
</g>
<g>
</g>
<g>
</g>
<g>
</g>
</svg>
