<?xml version="1.0" encoding="iso-8859-1"?>
<!-- Generator: Adobe Illustrator 19.0.0, SVG Export Plug-In . SVG Version: 6.00 Build 0)  -->
<svg version="1.1" id="Layer_1" xmlns="http://www.w3.org/2000/svg" xmlns:xlink="http://www.w3.org/1999/xlink" x="0px" y="0px"
	 viewBox="0 0 512 512" style="enable-background:new 0 0 512 512;" xml:space="preserve">
<g>
	<path style="fill:#35495E;" d="M210.746,53.16C205.088,23.04,181.915,0,150.065,0c-31.841,0-55.014,23.04-60.672,53.16
		c-6.991,37.182-18.776,237.497-18.776,273.461c0,33.668,35.972,138.62,53.027,169.754c5.288,9.657,15.413,15.625,26.421,15.625
		c11.017,0,21.142-5.967,26.43-15.625c17.055-31.135,53.018-136.086,53.018-169.754C229.514,290.657,217.738,90.342,210.746,53.16"
		/>
	<path style="fill:#131F28;" d="M227.658,275.777c-8.828,26.483-23.155,86.148-77.586,86.148c-54.44,0-68.767-59.666-77.594-86.148
		l-1.854,50.838c0,33.677,35.964,138.628,53.018,169.754c5.288,9.657,15.413,15.625,26.43,15.625
		c11.008,0,21.133-5.967,26.421-15.625c17.055-31.126,53.027-136.077,53.027-169.754L227.658,275.777z"/>
	<path style="fill:#233442;" d="M150.07,361.928c19.244,0,33.404-7.53,44.147-18.344c0-5.323-0.009-10.902-0.009-16.967
		c0-18.202-14.265-246.175-18.176-266.937c-2.207-11.785-10.187-24.373-25.962-24.373s-23.755,12.588-25.971,24.382
		c-3.902,20.754-18.167,248.726-18.167,266.929v16.984C116.675,354.407,130.835,361.928,150.07,361.928"/>
	<path style="fill:#35495E;" d="M422.608,53.16C416.95,23.04,393.777,0,361.927,0c-31.841,0-55.014,23.04-60.672,53.16
		c-6.991,37.182-18.776,237.497-18.776,273.461c0,33.668,35.972,138.62,53.027,169.754c5.288,9.657,15.413,15.625,26.421,15.625
		c11.017,0,21.142-5.967,26.43-15.625c17.055-31.135,53.018-136.086,53.018-169.754C441.376,290.657,429.6,90.342,422.608,53.16"/>
	<path style="fill:#131F28;" d="M439.52,275.777c-8.828,26.483-23.155,86.148-77.586,86.148c-54.44,0-68.767-59.666-77.594-86.148
		l-1.854,50.838c0,33.677,35.964,138.628,53.018,169.754c5.288,9.657,15.413,15.625,26.43,15.625
		c11.008,0,21.133-5.967,26.421-15.625c17.055-31.126,53.027-136.077,53.027-169.754L439.52,275.777z"/>
	<path style="fill:#233442;" d="M361.932,361.928c19.244,0,33.404-7.53,44.147-18.344c0-5.323-0.009-10.902-0.009-16.967
		c0-18.202-14.265-246.175-18.176-266.937c-2.207-11.785-10.187-24.373-25.962-24.373c-15.775,0-23.755,12.588-25.971,24.382
		c-3.902,20.754-18.167,248.726-18.167,266.929v16.984C328.537,354.407,342.697,361.928,361.932,361.928"/>
</g>
<g>
</g>
<g>
</g>
<g>
</g>
<g>
</g>
<g>
</g>
<g>
</g>
<g>
</g>
<g>
</g>
<g>
</g>
<g>
</g>
<g>
</g>
<g>
</g>
<g>
</g>
<g>
</g>
<g>
</g>
</svg>
