<?xml version="1.0" encoding="iso-8859-1"?>
<!-- Generator: Adobe Illustrator 19.0.0, SVG Export Plug-In . SVG Version: 6.00 Build 0)  -->
<svg version="1.1" id="Layer_1" xmlns="http://www.w3.org/2000/svg" xmlns:xlink="http://www.w3.org/1999/xlink" x="0px" y="0px"
	 viewBox="0 0 503.687 503.687" style="enable-background:new 0 0 503.687 503.687;" xml:space="preserve">
<g>
	<g>
		<path style="fill:#233442;" d="M8.535,285.285c0,0,6.508,56.407,8.678,78.102s13,26.034,26.034,26.034h52.068v-86.78
			c-32.751-14.188-53.56-13.555-92.264-35.094C4.404,273.362,6.114,279.254,8.535,285.285"/>
		<path style="fill:#233442;" d="M402.652,320.764l-43.416-1.874c-7.159-0.312-12.722-6.37-12.409-13.538l0.364-8.418
			c0.304-7.168,6.37-12.722,13.529-12.418l43.416,1.874c7.168,0.312,12.722,6.37,12.409,13.538l-0.364,8.426
			C415.878,315.514,409.82,321.077,402.652,320.764"/>
	</g>
	<path style="fill:#35495E;" d="M416.29,305.916l-0.104,2.439c-0.312,7.159-6.37,12.722-13.538,12.409l-43.407-1.874
		c-7.168-0.312-12.722-6.37-12.418-13.538l0.191-4.391c-47.564-5.823-90.259-25.374-132.799-46.774
		c-7.55-3.801-15.377-7.888-23.439-12.288l-156.203-86.78C20.705,169.619-9.677,213.244,3.045,267.55
		c38.712,21.53,59.522,20.897,92.273,35.094c0,0,82.441,23.135,138.847,69.424c8.678,8.678,67.332,32.056,215.864,10.847
		C555.736,367.815,484.013,319.071,416.29,305.916"/>
	<path style="fill:#233442;" d="M160.577,225.121l36.612-69.97c5.849-11.177,1.536-24.975-9.641-30.824l-17.46-9.138
		c-13.156-6.882-29.392-1.796-36.283,11.351l-33.931,64.859L160.577,225.121z"/>
</g>
<g>
</g>
<g>
</g>
<g>
</g>
<g>
</g>
<g>
</g>
<g>
</g>
<g>
</g>
<g>
</g>
<g>
</g>
<g>
</g>
<g>
</g>
<g>
</g>
<g>
</g>
<g>
</g>
<g>
</g>
</svg>
