<?xml version="1.0" encoding="iso-8859-1"?>
<!-- Generator: Adobe Illustrator 19.0.0, SVG Export Plug-In . SVG Version: 6.00 Build 0)  -->
<svg version="1.1" id="Layer_1" xmlns="http://www.w3.org/2000/svg" xmlns:xlink="http://www.w3.org/1999/xlink" x="0px" y="0px"
	 viewBox="0 0 512 512" style="enable-background:new 0 0 512 512;" xml:space="preserve">
<g>
	<path style="fill:#F0C419;" d="M141.064,459.034c-18.423,0-35.584,5.226-50.255,14.133C107.916,495.678,131.3,512,158.71,512
		c19.588,0,34.428-13.347,45.135-29.873C186.905,467.747,165.022,459.034,141.064,459.034"/>
	<g>
		<path style="fill:#804169;" d="M370.484,414.897c35.31,0,65.333-52.93,73.746-103.724
			c-10.364-40.024-29.237-249.379-29.237-249.379C411.311,30.164,387.327,0,353.199,0s-61.793,27.666-61.793,61.793v169.198
			c0,16.914-5.155,88.276-5.155,88.276C293.86,373.31,335.173,414.897,370.484,414.897"/>
		<path style="fill:#804169;" d="M141.518,414.897c35.31,0,76.623-41.587,84.233-95.629c0,0-5.155-71.362-5.155-88.276V61.793
			C220.596,27.666,192.93,0,158.803,0s-58.112,30.164-61.793,61.793c0,0-18.873,209.355-29.237,249.379
			C76.185,361.966,106.208,414.897,141.518,414.897"/>
	</g>
	<path style="fill:#683156;" d="M444.232,311.172c-8.422,50.794-38.435,103.724-73.746,103.724
		c-35.31,0-76.632-41.587-84.233-95.629c-7.133,33.536-2.083,90.28,0,105.56c1.474,10.814,8.36,36.458,21.725,57.159
		c16.905-14.292,38.727-22.952,62.596-22.952c18.405,0,35.549,5.217,50.211,14.115c0.097,0,0.185,0.018,0.274,0.026
		c4.943-6.497,9.41-13.462,13.241-20.762C451.4,419.866,454.71,351.629,444.232,311.172"/>
	<path style="fill:#F0C419;" d="M370.572,459.034c18.423,0,35.584,5.226,50.255,14.133C403.72,495.678,380.335,512,352.926,512
		c-19.588,0-34.428-13.347-45.135-29.873C324.73,467.747,346.614,459.034,370.572,459.034"/>
	<path style="fill:#683156;" d="M225.747,319.264c-7.601,54.051-48.922,95.629-84.233,95.629S76.19,361.972,67.768,311.169
		C57.29,351.635,60.6,419.863,77.699,452.41c3.822,7.274,8.254,14.239,13.171,20.727c14.663-8.889,31.797-14.106,50.194-14.106
		c23.94,0,45.824,8.713,62.755,23.075c13.471-20.71,20.454-46.433,21.928-57.282C227.83,409.544,232.879,352.8,225.747,319.264"/>
</g>
<g>
</g>
<g>
</g>
<g>
</g>
<g>
</g>
<g>
</g>
<g>
</g>
<g>
</g>
<g>
</g>
<g>
</g>
<g>
</g>
<g>
</g>
<g>
</g>
<g>
</g>
<g>
</g>
<g>
</g>
</svg>
