<?xml version="1.0" encoding="iso-8859-1"?>
<!-- Generator: Adobe Illustrator 19.0.0, SVG Export Plug-In . SVG Version: 6.00 Build 0)  -->
<svg version="1.1" id="Layer_1" xmlns="http://www.w3.org/2000/svg" xmlns:xlink="http://www.w3.org/1999/xlink" x="0px" y="0px"
	 viewBox="0 0 511.996 511.996" style="enable-background:new 0 0 511.996 511.996;" xml:space="preserve">
<g>
	<path style="fill:#F0C419;" d="M494.343,472.274l-114.891,30.579c-30.049,7.495-61.952,6.347-90.633-5.323
		c-28.186-11.476-56.638-33.986-64.644-78.018c-17.24-94.852-66.304-167.927-109.418-167.927v256H70.618
		c0,0,6.974-236.394-44.756-313.997C-25.876,115.984,6.46,58.499,66.099,8.923c0,0,12.932-19.403,47.422,22.272
		c29.82,36.034,184.408,248.02,187.648,253.043c6.012,9.322,26.447,30.067,89.318,29.846c25.106-0.088,50.203,4.114,73.675,13.012
		c21.504,8.139,42.116,20.436,45.992,38.223c8.625,39.521-15.81,62.508-15.81,62.508V472.274z"/>
	<path style="fill:#C49A16;" d="M379.449,502.849l114.891-30.579v-43.52l-79.51,21.16c-30.049,7.503-61.952,6.356-90.633-5.323
		c-28.186-11.476-56.638-33.977-64.644-78.018c-17.24-94.844-70.868-150.29-109.418-167.918
		c-56.32-25.167-136.633-30.155-138.425-30.367c3.761,8.201,8.351,16.605,14.151,25.3c51.73,77.603,44.756,313.997,44.756,313.997
		h44.138v-256c43.114,0,92.178,73.084,109.418,167.927c8.007,44.041,36.467,66.542,64.653,78.018
		C317.506,509.205,349.4,510.344,379.449,502.849"/>
</g>
<g>
</g>
<g>
</g>
<g>
</g>
<g>
</g>
<g>
</g>
<g>
</g>
<g>
</g>
<g>
</g>
<g>
</g>
<g>
</g>
<g>
</g>
<g>
</g>
<g>
</g>
<g>
</g>
<g>
</g>
</svg>
