<?xml version="1.0" encoding="iso-8859-1"?>
<!-- Generator: Adobe Illustrator 19.0.0, SVG Export Plug-In . SVG Version: 6.00 Build 0)  -->
<svg version="1.1" id="Capa_1" xmlns="http://www.w3.org/2000/svg" xmlns:xlink="http://www.w3.org/1999/xlink" x="0px" y="0px"
	 viewBox="0 0 512 512" style="enable-background:new 0 0 512 512;" xml:space="preserve">
<polygon style="fill:#F3F3F3;" points="296.533,443.733 147.2,498.133 0,434.133 112,283.733 192,299.733 265.6,286.933 
	362.667,302.933 512,512 "/>
<polygon style="fill:#66C6B9;" points="93.867,333.867 37.333,419.2 154.667,465.067 169.6,396.8 "/>
<polygon style="fill:#FFD15C;" points="167.467,368 178.133,362.667 189.867,308.267 120.533,293.333 103.467,320 "/>
<polygon style="fill:#CED6E0;" points="245.333,341.333 180.267,378.667 251.733,433.067 292.267,419.2 280.533,360.533 "/>
<polygon style="fill:#4EC0AA;" points="258.133,333.867 277.333,343.467 273.067,324.267 "/>
<polygon style="fill:#CED6E0;" points="250.667,323.2 212.267,304 189.867,308.267 178.133,362.667 "/>
<g>
	<polygon style="fill:#4EC0AA;" points="169.6,396.8 154.667,465.067 222.933,442.667 	"/>
	<polygon style="fill:#4EC0AA;" points="262.4,316.8 270.933,312.533 266.667,293.333 229.333,300.8 	"/>
</g>
<g>
	<polygon style="fill:#66C6B9;" points="273.067,324.267 277.333,343.467 416,413.867 349.867,308.267 312.533,301.867 	"/>
	<polygon style="fill:#66C6B9;" points="295.467,298.667 266.667,293.333 270.933,312.533 	"/>
</g>
<polygon style="fill:#FFD15C;" points="280.533,360.533 292.267,419.2 446.933,465.067 435.2,444.8 "/>
<path style="fill:#F3705A;" d="M401.067,145.067c0,80-145.067,234.667-145.067,234.667s-145.067-153.6-145.067-234.667S176,0,256,0
	S401.067,65.067,401.067,145.067z"/>
<circle style="fill:#FFFFFF;" cx="256" cy="145.067" r="82.133"/>
<g>
</g>
<g>
</g>
<g>
</g>
<g>
</g>
<g>
</g>
<g>
</g>
<g>
</g>
<g>
</g>
<g>
</g>
<g>
</g>
<g>
</g>
<g>
</g>
<g>
</g>
<g>
</g>
<g>
</g>
</svg>
