<?xml version="1.0" encoding="iso-8859-1"?>
<!-- Generator: Adobe Illustrator 19.0.0, SVG Export Plug-In . SVG Version: 6.00 Build 0)  -->
<svg version="1.1" id="Layer_1" xmlns="http://www.w3.org/2000/svg" xmlns:xlink="http://www.w3.org/1999/xlink" x="0px" y="0px"
	 viewBox="0 0 503.295 503.295" style="enable-background:new 0 0 503.295 503.295;" xml:space="preserve">
<g>
	<path style="fill:#F0C419;" d="M43.692,91.015c-27.032,39.32-59.861,80.87-34.695,156.941
		c8.296,25.062,15.976,50.298,21.565,76.088c6.448,29.739,13.13,64.217,13.13,79.377h60.746V264.575
		c0,0,71.055,33.08,135.593,120.953c3.992,4.209,31.189,50.436,152.481,10.821c0,0,68.278-22.033,82.744-26.181
		c4.191-1.198,23.352-7.828,27.119-21.695c5.406-19.855-13.017-52.606-54.775-59.114c-41.767-6.508-84.376-1.484-110.956-49.759
		c-26.572-48.267-38.582-107.364-51.052-116.58c-12.479-9.225-43.919-5.901-59.93,2.708c-16.54,8.895-87.899,32.004-123.392,4.339
		C72.963,107.226,43.692,91.015,43.692,91.015"/>
	<path style="fill:#C49A16;" d="M475.258,370.171c4.191-1.206,23.352-7.836,27.119-21.695c2.924-10.743-1.189-25.244-12.141-37.341
		c-6.179,4.053-12.731,6.326-14.978,6.968c-14.466,4.148-82.753,26.173-82.753,26.173c-112.336,35.285-145.226-6.066-149.218-10.275
		c-57.492-68.886-112.814-69.424-138.847-69.424c0,0,71.047,33.08,135.593,120.945c3.992,4.217,31.189,50.445,152.472,10.821
		C392.505,396.344,460.792,374.319,475.258,370.171"/>
</g>
<g>
</g>
<g>
</g>
<g>
</g>
<g>
</g>
<g>
</g>
<g>
</g>
<g>
</g>
<g>
</g>
<g>
</g>
<g>
</g>
<g>
</g>
<g>
</g>
<g>
</g>
<g>
</g>
<g>
</g>
</svg>
