<?xml version="1.0" encoding="iso-8859-1"?>
<!-- Generator: Adobe Illustrator 19.0.0, SVG Export Plug-In . SVG Version: 6.00 Build 0)  -->
<svg version="1.1" id="Layer_1" xmlns="http://www.w3.org/2000/svg" xmlns:xlink="http://www.w3.org/1999/xlink" x="0px" y="0px"
	 viewBox="0 0 511.982 511.982" style="enable-background:new 0 0 511.982 511.982;" xml:space="preserve">
<g>
	<path style="fill:#9E281F;" d="M89.45,269.954c-27.595-19.235-52.921-30.561-69.279-36.67c-3.178-1.192-6.082-2.887-8.651-4.961
		c-0.009,0.009-0.009,0.009-0.018,0.009c31.214,37.685,50.273,88.664,50.273,138.002v97.103h35.31V275.613
		C94.552,273.706,92.054,271.773,89.45,269.954"/>
	<path style="fill:#C03A2B;" d="M494.583,357.51c-35.964,0-66.825-22.087-80.561-52.983c-0.406-0.9-1.165-2.737-1.165-2.737
		l-0.247-0.132c0,0-1.457-0.15-2.242-0.23c-4.299-0.433-8.73-0.662-13.162-0.662c-11.07,0-22.528,1.386-34.039,4.105
		c-11.379,2.675-22.457,4.043-32.927,4.043c-26.88,0-49.293-9.198-64.821-26.589c-7.159-8.015-20.074-23.146-36.423-42.302
		C188.522,192.602,84.639,73.667,52.948,48.544c-2.26,5.032-7.857,18.326-14.601,35.213c18.441,10.69,32.256,30.217,32.256,53.063
		c0,34.127-27.666,61.793-61.793,61.793H0.38C0.15,200.476,0,202.188,0,203.627c0,13.127,7.883,25.062,20.171,29.661
		c16.358,6.109,41.684,17.434,69.279,36.67c33.598,23.411,61.246,54.316,82.812,89.123
		c24.117,38.912,70.691,106.673,101.314,104.271c0,0,107.723,2.895,220.531-24.964c8.757-2.163,15.607-11.079,17.876-19.085V355.7
		C506.35,356.839,500.551,357.51,494.583,357.51"/>
</g>
<g>
</g>
<g>
</g>
<g>
</g>
<g>
</g>
<g>
</g>
<g>
</g>
<g>
</g>
<g>
</g>
<g>
</g>
<g>
</g>
<g>
</g>
<g>
</g>
<g>
</g>
<g>
</g>
<g>
</g>
</svg>
