<?xml version="1.0" encoding="iso-8859-1"?>
<!-- Generator: Adobe Illustrator 19.0.0, SVG Export Plug-In . SVG Version: 6.00 Build 0)  -->
<svg version="1.1" id="Layer_1" xmlns="http://www.w3.org/2000/svg" xmlns:xlink="http://www.w3.org/1999/xlink" x="0px" y="0px"
	 viewBox="0 0 511.573 511.573" style="enable-background:new 0 0 511.573 511.573;" xml:space="preserve">
<g>
	<path style="fill:#C03A2B;" d="M61.368,453.143h17.655l17.593-211.862c0,0,83.474,51.156,140.888,137.128
		c31.003,46.451,77.277,74.39,133.12,74.734h0.026c6.082,0.035,11.299,0.706,17.337,0c18.953-2.216,63.709-9.092,96.433-18.979
		c29.193-8.819,36.829-46.424,13.118-65.589c-12.579-10.169-100.785-56.673-100.785-56.673s-59.833,35.046-97.907,5.694
		c0,0-138.787-115.482-222.649-259.487c0,0-3.99,2.03-10.037,6.197C24.398,93.039-21.02,119.901,10.547,191.996
		C33.437,244.264,61.368,250.108,61.368,453.143"/>
</g>
<g>
</g>
<g>
</g>
<g>
</g>
<g>
</g>
<g>
</g>
<g>
</g>
<g>
</g>
<g>
</g>
<g>
</g>
<g>
</g>
<g>
</g>
<g>
</g>
<g>
</g>
<g>
</g>
<g>
</g>
</svg>
