<?xml version="1.0" encoding="iso-8859-1"?>
<!-- Generator: Adobe Illustrator 19.0.0, SVG Export Plug-In . SVG Version: 6.00 Build 0)  -->
<svg version="1.1" id="Layer_1" xmlns="http://www.w3.org/2000/svg" xmlns:xlink="http://www.w3.org/1999/xlink" x="0px" y="0px"
	 viewBox="0 0 503.673 503.673" style="enable-background:new 0 0 503.673 503.673;" xml:space="preserve">
<g>
	<path style="fill:#FAC176;" d="M43.681,446.005h43.39V237.733c0,0,90.737,50.289,147.178,134.804
		c30.477,45.663,75.967,73.129,130.864,73.468h0.026c5.979,0.035,11.906-0.312,17.842-1.007c18.64-2.178,61.831-7.932,94.008-17.651
		c28.689-8.669,36.196-45.637,12.887-64.477c-12.366-9.997-99.076-55.713-99.076-55.713s-58.819,34.452-96.247,5.597
		c0,0-145.104-113.525-227.545-255.089c0,0-3.931,1.996-9.876,6.092C16.076,92.004-8.057,140.566,2.46,189.284
		c11.924,55.218,41.22,166.27,41.22,230.686V446.005z"/>
	<path style="fill:#D8A261;" d="M43.681,419.971v26.034h43.39v-52.068H42.405C43.221,403.205,43.681,411.952,43.681,419.971"/>
</g>
<g>
</g>
<g>
</g>
<g>
</g>
<g>
</g>
<g>
</g>
<g>
</g>
<g>
</g>
<g>
</g>
<g>
</g>
<g>
</g>
<g>
</g>
<g>
</g>
<g>
</g>
<g>
</g>
<g>
</g>
</svg>
