<svg id="Capa_1" enable-background="new 0 0 353.851 353.851" height="512" viewBox="0 0 353.851 353.851" width="512" xmlns="http://www.w3.org/2000/svg"><g><path d="m11.417 39.595h331.017c6.305 0 11.417 5.112 11.417 11.417v286.786c0 6.305-5.112 11.417-11.417 11.417h-331.017c-6.305 0-11.417-5.112-11.417-11.417v-286.786c0-6.306 5.112-11.417 11.417-11.417z" fill="#eeefee"/><path d="m353.851 50.996v63.537h-353.851v-63.537c.017-6.298 5.119-11.4 11.417-11.417h331.017c6.299.017 11.4 5.119 11.417 11.417z" fill="#2cbfae"/><path d="m286.432 4.636c6.107 0 11.058 4.951 11.058 11.058v47.796c0 6.107-4.951 11.058-11.058 11.058-6.107 0-11.058-4.951-11.058-11.058v-47.796c0-6.107 4.951-11.058 11.058-11.058z" fill="#575b6d"/><path d="m67.419 4.636c6.107 0 11.058 4.951 11.058 11.058v47.796c0 6.107-4.951 11.058-11.058 11.058-6.107 0-11.058-4.951-11.058-11.058v-47.796c0-6.107 4.951-11.058 11.058-11.058z" fill="#575b6d"/><g fill="#dbd8dd"><path d="m122.407 142.326h27.538c3.153 0 5.708 2.556 5.708 5.708v27.538c0 3.153-2.556 5.708-5.708 5.708h-27.538c-3.153 0-5.708-2.556-5.708-5.708v-27.538c-.001-3.152 2.555-5.708 5.708-5.708z"/><path d="m203.907 142.326h27.538c3.153 0 5.708 2.556 5.708 5.708v27.538c0 3.153-2.556 5.708-5.708 5.708h-27.538c-3.153 0-5.708-2.556-5.708-5.708v-27.538c-.001-3.152 2.555-5.708 5.708-5.708z"/><path d="m285.407 142.326h27.538c3.153 0 5.708 2.556 5.708 5.708v27.538c0 3.153-2.556 5.708-5.708 5.708h-27.538c-3.153 0-5.708-2.556-5.708-5.708v-27.538c0-3.152 2.555-5.708 5.708-5.708z"/><path d="m40.901 209.074h27.538c3.153 0 5.708 2.556 5.708 5.708v27.538c0 3.153-2.556 5.708-5.708 5.708h-27.538c-3.153 0-5.708-2.556-5.708-5.708v-27.538c0-3.152 2.555-5.708 5.708-5.708z"/><path d="m122.407 209.074h27.538c3.153 0 5.708 2.556 5.708 5.708v27.538c0 3.153-2.556 5.708-5.708 5.708h-27.538c-3.153 0-5.708-2.556-5.708-5.708v-27.538c-.001-3.152 2.555-5.708 5.708-5.708z"/><path d="m203.907 209.074h27.538c3.153 0 5.708 2.556 5.708 5.708v27.538c0 3.153-2.556 5.708-5.708 5.708h-27.538c-3.153 0-5.708-2.556-5.708-5.708v-27.538c-.001-3.152 2.555-5.708 5.708-5.708z"/><path d="m285.407 209.074h27.538c3.153 0 5.708 2.556 5.708 5.708v27.538c0 3.153-2.556 5.708-5.708 5.708h-27.538c-3.153 0-5.708-2.556-5.708-5.708v-27.538c0-3.152 2.555-5.708 5.708-5.708z"/><path d="m40.901 275.827h27.538c3.153 0 5.708 2.556 5.708 5.708v27.538c0 3.153-2.556 5.708-5.708 5.708h-27.538c-3.153 0-5.708-2.556-5.708-5.708v-27.538c0-3.152 2.555-5.708 5.708-5.708z"/><path d="m122.407 275.827h27.538c3.153 0 5.708 2.556 5.708 5.708v27.538c0 3.153-2.556 5.708-5.708 5.708h-27.538c-3.153 0-5.708-2.556-5.708-5.708v-27.538c-.001-3.152 2.555-5.708 5.708-5.708z"/><path d="m203.907 275.827h27.538c3.153 0 5.708 2.556 5.708 5.708v27.538c0 3.153-2.556 5.708-5.708 5.708h-27.538c-3.153 0-5.708-2.556-5.708-5.708v-27.538c-.001-3.152 2.555-5.708 5.708-5.708z"/></g></g></svg>