<?xml version="1.0" encoding="iso-8859-1"?>
<!-- Generator: Adobe Illustrator 19.0.0, SVG Export Plug-In . SVG Version: 6.00 Build 0)  -->
<svg version="1.1" id="Layer_1" xmlns="http://www.w3.org/2000/svg" xmlns:xlink="http://www.w3.org/1999/xlink" x="0px" y="0px"
	 viewBox="0 0 512.004 512.004" style="enable-background:new 0 0 512.004 512.004;" xml:space="preserve">
<g>
	<g>
		<path style="fill:#C03A2B;" d="M85.334,465.07H51.201c-4.71,0-8.533-3.823-8.533-8.533v-94.805
			c0-48.777-13.321-88.55-40.704-121.617c-2.441-2.944-2.62-7.142-0.461-10.283c2.167-3.149,6.161-4.48,9.771-3.243
			c13.679,4.642,42.155,16.521,79.138,43.887c2.176,1.613,3.456,4.156,3.456,6.861v179.2
			C93.868,461.247,90.045,465.07,85.334,465.07"/>
		<path style="fill:#C03A2B;" d="M153.605,337.07c-2.492,0-4.975-1.092-6.656-3.191c-11.887-14.788-29.995-26.086-45.978-36.053
			c-7.501-4.668-14.583-9.097-20.719-13.628c-3.789-2.807-4.582-8.149-1.775-11.938s8.141-4.582,11.938-1.783
			c5.581,4.139,12.382,8.38,19.584,12.868c17.135,10.692,36.557,22.793,50.253,39.851c2.953,3.669,2.364,9.045-1.306,11.998
			C157.368,336.455,155.482,337.07,153.605,337.07"/>
		<path style="fill:#C03A2B;" d="M272.909,465.057c-5.487,0-8.559-0.068-8.738-0.077c-46.089,0.009-110.865-118.869-118.101-132.429
			c-2.133-4.002-0.768-8.977,3.115-11.315c13.645-8.243,20.727-18.833,21.658-32.384C174.153,240.656,100.399,162.798,30.263,106
			c-3.644-2.944-5.197-6.025-4.651-9.165c0.29-19.251,7.1-35.678,19.738-47.582c3.089-2.91,7.834-3.098,11.153-0.469
			c30.933,24.525,134.059,135.663,173.628,182.025l0.819,0.964c15.386,18.005,27.537,32.23,34.27,39.782
			c18.722,20.966,50.057,27.691,86.161,19.166c18.5-4.369,33.715-5.367,48.461-3.84c58.121,5.914,99.337,26.65,109.21,35.209
			c1.877,1.621,2.953,3.968,2.953,6.443v85.333c0,13.065-12.083,23.851-23.774,26.735
			C396.77,463.197,301.683,465.057,272.909,465.057"/>
	</g>
	<path style="fill:#9E281F;" d="M495.905,362.761c-1.417,0-2.33-0.017-3.379-0.034c-1.306-0.026-2.816-0.06-5.879-0.06
		c-41.609,0-80.051-23.245-93.491-56.533c-0.41-1.016-0.623-2.099-0.623-3.2v-7.322c0-2.423,1.033-4.727,2.833-6.349
		c1.809-1.621,4.207-2.415,6.63-2.133c57.071,6.221,97.417,26.607,107.059,34.953c1.869,1.621,2.944,3.977,2.944,6.451v25.6
		c0,4.659-3.729,8.448-8.38,8.533C499.788,362.736,497.518,362.761,495.905,362.761"/>
</g>
<g>
</g>
<g>
</g>
<g>
</g>
<g>
</g>
<g>
</g>
<g>
</g>
<g>
</g>
<g>
</g>
<g>
</g>
<g>
</g>
<g>
</g>
<g>
</g>
<g>
</g>
<g>
</g>
<g>
</g>
</svg>
