<?xml version="1.0" encoding="iso-8859-1"?>
<!-- Generator: Adobe Illustrator 19.0.0, SVG Export Plug-In . SVG Version: 6.00 Build 0)  -->
<svg version="1.1" id="Layer_1" xmlns="http://www.w3.org/2000/svg" xmlns:xlink="http://www.w3.org/1999/xlink" x="0px" y="0px"
	 viewBox="0 0 512.152 512.152" style="enable-background:new 0 0 512.152 512.152;" xml:space="preserve">
<g>
	<path style="fill:#6ECDE6;" d="M20.189,205.213c29.431,10.999,87.861,38.868,136.395,99.284c0,0,74.134,134.144,117.01,130.79
		c0,0,107.723,2.895,220.531-24.973c16.428-4.061,23.137-24.444,13.745-38.524c-10.134-15.175-35.566-31.232-95.691-37.35
		c-17.752-1.81-35.672-0.291-53.045,3.814c-21.989,5.182-57.812,8.324-80.534-17.117C243.942,282.314,66.454,67.388,51.2,77.099
		c0,0-48.94,34.481-51.182,98.463C-0.441,188.671,7.901,200.623,20.189,205.213"/>
	<g>
		<path style="fill:#63AEC6;" d="M330.259,394.791c-34.648,0-63.885-12.253-84.577-35.434c-7.574-8.483-21.778-25.123-36.811-42.743
			c-7.583-8.881-16.358-19.315-25.838-30.605c-35.257-41.949-79.13-94.146-109.639-123.533c-3.513-3.39-3.619-8.969-0.238-12.482
			c3.39-3.513,8.995-3.61,12.482-0.238c31.179,30.031,75.388,82.635,110.919,124.902c9.446,11.246,18.185,21.636,25.75,30.499
			c14.963,17.54,29.087,34.101,36.546,42.443c23.755,26.624,62.393,35.61,106.355,25.256c4.714-1.156,9.499,1.818,10.62,6.568
			c1.112,4.74-1.827,9.499-6.568,10.611C355.877,393.193,342.759,394.791,330.259,394.791"/>
		<path style="fill:#63AEC6;" d="M88.276,108.748c0-1.095-0.141-2.163-0.168-3.257C68.882,86.22,55.005,74.683,51.2,77.101
			c0,0-48.94,34.481-51.182,98.454c-0.459,13.118,7.883,25.062,20.171,29.661c5.094,1.898,11.096,4.343,17.717,7.336
			C68.555,188.302,88.276,150.865,88.276,108.748"/>
		<path style="fill:#63AEC6;" d="M20.252,205.299c-2.931-1.095-5.606-2.631-8.024-4.476l-0.009,0.018
			c31.214,37.685,49.576,87.199,49.576,136.536v97.995h35.31V247.46C66.605,224.896,38.092,211.964,20.252,205.299"/>
	</g>
</g>
<g>
</g>
<g>
</g>
<g>
</g>
<g>
</g>
<g>
</g>
<g>
</g>
<g>
</g>
<g>
</g>
<g>
</g>
<g>
</g>
<g>
</g>
<g>
</g>
<g>
</g>
<g>
</g>
<g>
</g>
</svg>
