<?xml version="1.0" encoding="iso-8859-1"?>
<!-- Generator: Adobe Illustrator 19.0.0, SVG Export Plug-In . SVG Version: 6.00 Build 0)  -->
<svg version="1.1" id="Layer_1" xmlns="http://www.w3.org/2000/svg" xmlns:xlink="http://www.w3.org/1999/xlink" x="0px" y="0px"
	 viewBox="0 0 512.004 512.004" style="enable-background:new 0 0 512.004 512.004;" xml:space="preserve">
<g>
	<path style="fill:#FAC176;" d="M291.406,230.991V61.793C291.406,27.666,319.071,0,353.199,0c34.127,0,58.112,30.164,61.793,61.793
		c0,0,18.873,209.355,29.237,249.379c10.487,40.466,7.177,108.694-9.931,141.241C417.199,484.97,388.509,512,353.199,512
		c-44.138,0-64.291-67.69-66.94-87.172c-2.083-15.281-7.142-72.024,0-105.56C286.259,319.267,291.406,247.914,291.406,230.991"/>
	<path style="fill:#D69F5F;" d="M286.256,424.831c2.648,19.474,22.802,87.172,66.94,87.172c35.31,0,64-27.039,81.108-59.586
		c17.099-32.547,20.409-100.785,9.931-141.241C435.813,361.97,405.799,414.9,370.488,414.9s-76.632-41.587-84.233-95.629
		C279.123,352.807,284.172,409.551,286.256,424.831"/>
	<path style="fill:#FAC176;" d="M220.598,230.991V61.793C220.598,27.666,192.932,0,158.805,0s-58.112,30.164-61.793,61.793
		c0,0-18.873,209.355-29.237,249.379c-10.487,40.466-7.177,108.694,9.931,141.241C94.805,484.97,123.494,512,158.805,512
		c44.138,0,64.291-67.69,66.94-87.172c2.083-15.281,7.142-72.024,0-105.56C225.744,319.267,220.598,247.914,220.598,230.991"/>
	<path style="fill:#D69F5F;" d="M225.748,424.831c-2.648,19.474-22.802,87.172-66.94,87.172c-35.31,0-64-27.039-81.108-59.586
		c-17.099-32.547-20.409-100.785-9.931-141.241C76.191,361.97,106.205,414.9,141.515,414.9s76.632-41.587,84.233-95.629
		C232.881,352.807,227.831,409.551,225.748,424.831"/>
</g>
<g>
</g>
<g>
</g>
<g>
</g>
<g>
</g>
<g>
</g>
<g>
</g>
<g>
</g>
<g>
</g>
<g>
</g>
<g>
</g>
<g>
</g>
<g>
</g>
<g>
</g>
<g>
</g>
<g>
</g>
</svg>
