<svg height="512" viewBox="0 0 48 58" width="512" xmlns="http://www.w3.org/2000/svg"><g id="Page-1" fill="none" fill-rule="evenodd"><g id="061---Country-Book" fill-rule="nonzero" transform="translate(-1)"><path id="Shape" d="m47 0h-41c-2.76142375 0-5 2.23857625-5 5v44c-.00311634.1635861.00356227.327212.02.49.32491085 2.607865 2.56231031 4.5521177 5.19 4.51h40.79c1.1032019-.0032948 1.9967052-.8967981 2-2v-50c-.0032948-1.10320187-.8967981-1.9967052-2-2z" fill="#f9eab0"/><path id="Shape" d="m49 2v39c0 1.1-.9 3-2 3h-41c-2.76142375 0-5 2.2385763-5 5v-44c0-2.76142375 2.23857625-5 5-5h41c1.1032019.0032948 1.9967052.89679813 2 2z" fill="#3f5c6c"/><g fill="#35495e"><path id="Shape" d="m8 0v2c0 .55228475-.44771525 1-1 1s-1-.44771525-1-1v-2z"/><path id="Shape" d="m7 9c-.55228475 0-1-.44771525-1-1v-2c0-.55228475.44771525-1 1-1s1 .44771525 1 1v2c0 .55228475-.44771525 1-1 1z"/><path id="Shape" d="m49 41v11c-.0032948 1.1032019-.8967981 1.9967052-2 2h-1c-1.66 0-3-2.24-3-5s1.34-5 3-5h1c1.1 0 2-1.9 2-3z"/><path id="Shape" d="m7 15c-.55228475 0-1-.4477153-1-1v-2c0-.5522847.44771525-1 1-1s1 .4477153 1 1v2c0 .5522847-.44771525 1-1 1z"/><path id="Shape" d="m7 21c-.55228475 0-1-.4477153-1-1v-2c0-.5522847.44771525-1 1-1s1 .4477153 1 1v2c0 .5522847-.44771525 1-1 1z"/><path id="Shape" d="m7 27c-.55228475 0-1-.4477153-1-1v-2c0-.5522847.44771525-1 1-1s1 .4477153 1 1v2c0 .5522847-.44771525 1-1 1z"/><path id="Shape" d="m7 33c-.55228475 0-1-.4477153-1-1v-2c0-.5522847.44771525-1 1-1s1 .4477153 1 1v2c0 .5522847-.44771525 1-1 1z"/><path id="Shape" d="m7 39c-.55228475 0-1-.4477153-1-1v-2c0-.5522847.44771525-1 1-1s1 .4477153 1 1v2c0 .5522847-.44771525 1-1 1z"/><path id="Shape" d="m8 42v2h-2v-2c0-.5522847.44771525-1 1-1s1 .4477153 1 1z"/></g><path id="Shape" d="m46 54h-39.79c-2.62768969.0421177-4.86508915-1.902135-5.19-4.51-.01643773-.162788-.02311634-.3264139-.02-.49 0-2.7614237 2.23857625-5 5-5h40c-1.66 0-3 2.24-3 5s1.34 5 3 5z" fill="#f9eab0"/><path id="Shape" d="m11 49h10v8c.0000756.3602062-.193577.692619-.5069584.8702156-.3133815.1775966-.6980603.1729304-1.0070416-.0122156l-2.972-1.783c-.3164363-.1896131-.7115637-.1896131-1.028 0l-2.972 1.783c-.3089813.185146-.6936601.1898122-1.0070416.0122156-.3133814-.1775966-.507034-.5100094-.5069584-.8702156z" fill="#ff5364"/><path id="Shape" d="m25 50h-17c-.55228475 0-1-.4477153-1-1s.44771525-1 1-1h17c.5522847 0 1 .4477153 1 1s-.4477153 1-1 1z" fill="#fac176"/><path id="Shape" d="m31.43 30.34c3.27.67 5.57 2.28 5.57 4.16 0 2.49-4.03 4.5-9 4.5s-9-2.01-9-4.5c0-1.89 2.32-3.5 5.61-4.17z" fill="#2fa8cc"/><path id="Shape" d="m38.231 12.1c3.7 9.108-6.989 18.783-9.648 20.709-.3469191.2525026-.8170809.2525026-1.164 0-2.27-1.642-10.419-9.285-10.419-16.809-.0151329-5.3049537 3.7686842-9.86034006 8.9863588-10.81879379 5.2176747-.95845373 10.3734317 1.95478963 12.2446412 6.91879379z" fill="#e64c3c"/><circle id="Oval" cx="28" cy="16" fill="#ecf0f1" r="6"/></g></g></svg>