<svg id="color" enable-background="new 0 0 24 24" height="512" viewBox="0 0 24 24" width="512" xmlns="http://www.w3.org/2000/svg"><path d="m14.25 0h-11.5c-1.52 0-2.75 1.23-2.75 2.75v15.5c0 1.52 1.23 2.75 2.75 2.75h8.14c-.88-1.2-1.39-2.66-1.39-4.25 0-4 3.25-7.25 7.25-7.25.08 0 .17 0 .25.01v-6.76c0-1.52-1.23-2.75-2.75-2.75z" fill="#eceff1"/><path d="m8.5 0h-5.75c-1.52 0-2.75 1.23-2.75 2.75v15.5c0 1.52 1.23 2.75 2.75 2.75h5.75v-3.75z" fill="#cdd0d2"/><g fill="#90a4ae"><path d="m13 10h-9c-.552 0-1-.448-1-1s.448-1 1-1h9c.552 0 1 .448 1 1s-.448 1-1 1z"/><path d="m9 14h-5c-.552 0-1-.448-1-1s.448-1 1-1h5c.552 0 1 .448 1 1s-.448 1-1 1z"/><path d="m8 6h-4c-.552 0-1-.448-1-1s.448-1 1-1h4c.552 0 1 .448 1 1s-.448 1-1 1z"/></g><path d="m9 5h-6c0 .553.448 1 1 1h4c.552 0 1-.447 1-1z" fill="#7d8f97"/><path d="m14 9h-11c0 .553.448 1 1 1h9c.552 0 1-.447 1-1z" fill="#7d8f97"/><path d="m10 13h-7c0 .553.448 1 1 1h5c.552 0 1-.447 1-1z" fill="#7d8f97"/><path d="m16.75 22c-2.895 0-5.25-2.355-5.25-5.25s2.355-5.25 5.25-5.25 5.25 2.355 5.25 5.25-2.355 5.25-5.25 5.25zm0-8.5c-1.792 0-3.25 1.458-3.25 3.25s1.458 3.25 3.25 3.25 3.25-1.458 3.25-3.25-1.458-3.25-3.25-3.25z" fill="#546e7a"/><path d="m23 24c-.256 0-.512-.098-.707-.293l-3.25-3.25c-.391-.391-.391-1.023 0-1.414s1.023-.391 1.414 0l3.25 3.25c.391.391.391 1.023 0 1.414-.195.195-.451.293-.707.293z" fill="#546e7a"/><path d="m13.039 13.039c-.95.951-1.539 2.264-1.539 3.711 0 2.895 2.355 5.25 5.25 5.25 1.087 0 2.098-.332 2.936-.9l-.643-.643c-.368-.368-.389-.952-.063-1.345-.583.55-1.368.888-2.23.888-1.792 0-3.25-1.458-3.25-3.25 0-.896.365-1.708.953-2.297z" fill="#49606a"/><path d="m19.043 19.043c-.022.022-.043.046-.063.069-.326.393-.305.976.063 1.345l.643.643 2.607 2.607c.195.195.451.293.707.293s.512-.098.707-.293z" fill="#49606a"/></svg>