<?xml version="1.0" encoding="iso-8859-1"?>
<!-- Generator: Adobe Illustrator 19.0.0, SVG Export Plug-In . SVG Version: 6.00 Build 0)  -->
<svg version="1.1" id="Layer_1" xmlns="http://www.w3.org/2000/svg" xmlns:xlink="http://www.w3.org/1999/xlink" x="0px" y="0px"
	 viewBox="0 0 503.095 503.095" style="enable-background:new 0 0 503.095 503.095;" xml:space="preserve">
<g>
	<path style="fill:#C03A2B;" d="M446.969,293.245c-14.987-3.619-30-7.055-44.796-11.359c-25.452-7.411-59.314-18.068-72.973-25.964
		c0,0-24.663,35.762-89.574,4.304C177.154,229.939,25.576,143.073,25.576,143.073c-7.159,14.31-32.161,51.009-23.934,95.458
		c35.189,0.061,142.996,42.314,164.222,54.237c32.187,16.271,72.678,67.254,163.441,67.254h78.102c0,0,26.754,0,95.458-8.678
		C502.864,351.344,509.849,308.44,446.969,293.245"/>
	<g>
		<path style="fill:#9E281F;" d="M502.861,351.342c0,0,6.994-42.904-55.895-58.099c-14.987-3.619-29.991-7.055-44.796-11.359
			c-11.897-3.463-25.591-7.645-38.244-11.915l-0.017,0.009c-13.607,31.267-11.099,60.928,8.062,90.043h35.432
			C407.403,360.02,434.158,360.02,502.861,351.342"/>
		<path style="fill:#9E281F;" d="M11.837,267.817c0,0,22.415,55.322,22.415,92.203h78.102c0,0,21.33-83.525,53.517-67.254
			c-21.235-11.924-129.033-54.177-164.222-54.237C3.402,247.996,6.569,257.794,11.837,267.817"/>
	</g>
</g>
<g>
</g>
<g>
</g>
<g>
</g>
<g>
</g>
<g>
</g>
<g>
</g>
<g>
</g>
<g>
</g>
<g>
</g>
<g>
</g>
<g>
</g>
<g>
</g>
<g>
</g>
<g>
</g>
<g>
</g>
</svg>
