<svg id="Layer_1" enable-background="new 0 0 65 65" height="512" viewBox="0 0 65 65" width="512" xmlns="http://www.w3.org/2000/svg"><g><path d="m57.7 5.5c-1.3-1.1-2.6-2.1-4.1-2.9-6.2-3.3-14-2.4-20.5.3-2 .8-4 1.9-6.1 2.4-3 .8-6.3.7-9.4.5-2.4-.2-5.2-.7-6.5-2.5v31.5c5.3.7 10.8 1 15.8-.8 4.5-1.6 8.2-4.6 11.8-7.6 4.1-3.4 8.2-6.9 12.3-10.3 2.1-1.7 4.3-3.6 7-4.1 2.2-.5 4.6 0 6.5 1.2-1.9-2.8-4.2-5.4-6.8-7.7z" fill="#f1786b"/><path d="m7.4.5h3.7v57.9h-3.7z" fill="#dbdfe0"/><path d="m11.5 58.4h-4.6c-3.6 0-6.4 2.7-6.4 6.1h17.5c0-3.4-2.9-6.1-6.5-6.1z" fill="#788d9a"/></g></svg>