<?xml version="1.0" encoding="iso-8859-1"?>
<!-- Generator: Adobe Illustrator 19.0.0, SVG Export Plug-In . SVG Version: 6.00 Build 0)  -->
<svg version="1.1" id="Layer_1" xmlns="http://www.w3.org/2000/svg" xmlns:xlink="http://www.w3.org/1999/xlink" x="0px" y="0px"
	 viewBox="0 0 512 512" style="enable-background:new 0 0 512 512;" xml:space="preserve">
<g>
	<g>
		<path style="fill:#C03A2B;" d="M225.146,310.343c-2.163-26.403-4.502-52.824-4.502-79.351V61.793
			C220.644,27.666,192.978,0,158.851,0s-58.112,30.164-61.793,61.793c0,0-18.873,209.355-29.246,249.379
			c-10.478,40.466-7.168,108.694,9.931,141.241C94.851,484.97,123.54,512,158.851,512c44.138,0,64.291-67.69,66.94-87.172
			C231.007,386.534,228.262,348.451,225.146,310.343"/>
		<path style="fill:#C03A2B;" d="M286.854,310.343c2.163-26.403,4.502-52.824,4.502-79.351V61.793
			C291.356,27.666,319.022,0,353.149,0s58.112,30.164,61.793,61.793c0,0,18.873,209.355,29.246,249.379
			c10.478,40.466,7.168,108.694-9.931,141.241C417.149,484.97,388.46,512,353.149,512c-44.138,0-64.291-67.69-66.94-87.172
			C280.993,386.534,283.738,348.451,286.854,310.343"/>
	</g>
	<g>
		<path style="fill:#9E281F;" d="M150.022,397.246c27.577-0.291,46.001-25.45,44.138-52.966c-0.459-6.771-4.82-26.359-4.82-26.359
			c-3.575-16.243-4.114-61.272-4.114-86.925V64.622c0-10.99-5.791-21.495-15.581-26.492c-19.827-10.116-35.249,8.907-37.57,27.366
			c-2.18,24.108-19.482,213.222-30.182,254.535c-1.783,6.886-4.043,15.854-4.838,24.249c-2.657,28.116,15.898,52.604,44.138,52.966
			H150.022"/>
		<path style="fill:#9E281F;" d="M361.761,397.246c-27.569-0.291-46.001-25.45-44.138-52.966c0.459-6.771,4.82-26.359,4.82-26.359
			c3.575-16.243,4.114-61.272,4.114-86.925V64.622c0-10.99,5.791-21.495,15.581-26.492c19.827-10.116,35.249,8.907,37.57,27.366
			c2.18,24.108,19.482,213.222,30.181,254.535c1.783,6.886,4.043,15.854,4.838,24.249c2.657,28.116-15.898,52.604-44.138,52.966
			H361.761"/>
	</g>
</g>
<g>
</g>
<g>
</g>
<g>
</g>
<g>
</g>
<g>
</g>
<g>
</g>
<g>
</g>
<g>
</g>
<g>
</g>
<g>
</g>
<g>
</g>
<g>
</g>
<g>
</g>
<g>
</g>
<g>
</g>
</svg>
