<?xml version="1.0" encoding="iso-8859-1"?>
<!-- Generator: Adobe Illustrator 19.0.0, SVG Export Plug-In . SVG Version: 6.00 Build 0)  -->
<svg version="1.1" id="Layer_1" xmlns="http://www.w3.org/2000/svg" xmlns:xlink="http://www.w3.org/1999/xlink" x="0px" y="0px"
	 viewBox="0 0 512 512" style="enable-background:new 0 0 512 512;" xml:space="preserve">
<g>
	<g>
		<path style="fill:#805333;" d="M210.037,53.16C204.379,23.04,181.551,0,149.701,0C117.86,0,95.032,23.04,89.373,53.16
			C83.097,86.546,71.294,333.25,70.65,361.931c-0.689,30.976,5.076,64.247,17.382,92.69c12.359,28.557,32.106,57.114,61.67,57.379
			c29.572-0.265,49.32-28.822,61.678-57.379c12.306-28.442,18.803-61.714,18.114-92.69C228.858,333.25,216.314,86.546,210.037,53.16
			"/>
		<path style="fill:#805333;" d="M421.9,53.16C416.241,23.04,393.413,0,361.563,0c-31.841,0-54.669,23.04-60.328,53.16
			c-6.276,33.386-18.141,280.09-18.776,308.771c-0.689,30.976,5.129,64.247,17.434,92.69c12.359,28.557,32.106,57.114,61.669,57.379
			c29.572-0.265,49.32-28.822,61.678-57.379c12.306-28.442,18.803-61.714,18.114-92.69C440.72,333.25,428.176,86.546,421.9,53.16"/>
	</g>
	<g>
		<path style="fill:#5E391F;" d="M149.7,300.11c-15.837,0-31.682-3.134-47.413-9.428c-4.529-1.81-6.735-6.947-4.926-11.476
			c1.81-4.546,6.947-6.744,11.476-4.926c27.507,11.008,54.237,10.99,81.726,0c4.493-1.81,9.666,0.38,11.476,4.926
			c1.81,4.529-0.397,9.666-4.926,11.476C181.391,296.976,165.546,300.11,149.7,300.11"/>
		<path style="fill:#5E391F;" d="M149.7,335.42c-15.837,0-31.682-3.134-47.413-9.428c-4.529-1.81-6.735-6.947-4.926-11.476
			c1.81-4.546,6.947-6.744,11.476-4.926c27.507,10.999,54.237,10.999,81.726,0c4.493-1.81,9.666,0.388,11.476,4.926
			c1.81,4.529-0.397,9.666-4.926,11.476C181.391,332.286,165.546,335.42,149.7,335.42"/>
		<path style="fill:#5E391F;" d="M181.125,126.617c-1.298-17.69-2.657-35.372-4.087-53.045
			c-1.404-17.417-5.182-38.268-27.339-38.268c-22.148,0-25.927,20.851-27.33,38.268c-1.43,17.673-2.79,35.354-4.087,53.045
			c-1.871,25.459-2.278,50.935-3.893,76.412h35.31h35.31C183.403,177.552,182.997,152.075,181.125,126.617"/>
		<path style="fill:#5E391F;" d="M361.562,300.11c-15.837,0-31.682-3.134-47.413-9.428c-4.529-1.81-6.735-6.947-4.926-11.476
			c1.81-4.546,6.947-6.744,11.476-4.926c27.507,11.008,54.237,10.99,81.726,0c4.476-1.81,9.666,0.38,11.476,4.926
			c1.81,4.529-0.397,9.666-4.926,11.476C393.253,296.976,377.408,300.11,361.562,300.11"/>
		<path style="fill:#5E391F;" d="M361.562,335.42c-15.837,0-31.682-3.134-47.413-9.428c-4.529-1.81-6.735-6.947-4.926-11.476
			c1.81-4.546,6.947-6.744,11.476-4.926c27.507,10.999,54.237,10.999,81.726,0c4.476-1.81,9.666,0.388,11.476,4.926
			c1.81,4.529-0.397,9.666-4.926,11.476C393.253,332.286,377.408,335.42,361.562,335.42"/>
		<path style="fill:#5E391F;" d="M392.987,126.617c-1.298-17.69-2.657-35.372-4.087-53.045
			c-1.404-17.417-5.182-38.268-27.339-38.268c-22.148,0-25.927,20.851-27.33,38.268c-1.43,17.673-2.789,35.354-4.087,53.045
			c-1.871,25.459-2.277,50.935-3.893,76.412h35.31h35.31C395.265,177.552,394.859,152.075,392.987,126.617"/>
	</g>
</g>
<g>
</g>
<g>
</g>
<g>
</g>
<g>
</g>
<g>
</g>
<g>
</g>
<g>
</g>
<g>
</g>
<g>
</g>
<g>
</g>
<g>
</g>
<g>
</g>
<g>
</g>
<g>
</g>
<g>
</g>
</svg>
