<?xml version="1.0" encoding="iso-8859-1"?>
<!-- Generator: Adobe Illustrator 19.0.0, SVG Export Plug-In . SVG Version: 6.00 Build 0)  -->
<svg version="1.1" id="Capa_1" xmlns="http://www.w3.org/2000/svg" xmlns:xlink="http://www.w3.org/1999/xlink" x="0px" y="0px"
	 viewBox="0 0 511.997 511.997" style="enable-background:new 0 0 511.997 511.997;" xml:space="preserve">
<path style="fill:#FF7058;" d="M405.884,362.035L255.932,511.997L105.969,362.035c-82.645-82.837-82.645-217.077,0-299.915
	c82.848-82.827,217.269-82.827,299.915,0C488.721,144.957,488.721,279.197,405.884,362.035"/>
<path style="fill:#FFFFFF;" d="M410.044,212.072c0,85.109-69.045,153.909-153.899,153.909c-85.109,0-154.144-68.8-154.144-153.909
	c0-85.088,69.045-153.899,154.144-153.899C341.009,58.184,409.799,126.995,410.044,212.072"/>
<g>
	<path style="fill:#FF7058;" d="M270.385,164.168h-50.101c-15.424,0-27.957-12.544-27.957-27.957
		c0-15.403,12.533-27.947,27.957-27.947c12.789,0,30.197,23.755,42.539,43.712L270.385,164.168z M219.676,124.189
		c-6.005,0.075-11.349,5.429-11.349,12.021c0,6.592,5.355,11.957,11.957,11.957h20.864
		C232.177,135.453,223.26,125.288,219.676,124.189"/>
	<path style="fill:#FF7058;" d="M291.772,164.168h-50.123l7.573-12.224c12.341-19.936,29.771-43.691,42.549-43.691
		c15.413,0,27.957,12.544,27.957,27.947C319.74,151.624,307.196,164.168,291.772,164.168 M270.897,148.168h20.875
		c6.603,0,11.957-5.365,11.957-11.957c0-6.592-5.355-11.947-11.957-11.947C288.668,125.288,279.836,135.453,270.897,148.168"/>
</g>
<path style="fill:#E8EAEA;" d="M160.231,189.405v111.456c0,8.32,6.837,15.04,15.051,15.04h161.408c8.331,0,15.051-6.72,15.051-15.04
	V189.405H160.231z"/>
<path style="fill:#CDD6E0;" d="M347.132,156.168H164.924c-9.376,0-16.981,7.605-16.981,16.992v30.336h216.181V173.16
	C364.124,163.773,356.508,156.168,347.132,156.168"/>
<rect x="245.329" y="153.533" style="fill:#FF7058;" width="21.333" height="162.379"/>
<g>
</g>
<g>
</g>
<g>
</g>
<g>
</g>
<g>
</g>
<g>
</g>
<g>
</g>
<g>
</g>
<g>
</g>
<g>
</g>
<g>
</g>
<g>
</g>
<g>
</g>
<g>
</g>
<g>
</g>
</svg>
