<?xml version="1.0" encoding="iso-8859-1"?>
<!-- Generator: Adobe Illustrator 19.0.0, SVG Export Plug-In . SVG Version: 6.00 Build 0)  -->
<svg version="1.1" id="Layer_1" xmlns="http://www.w3.org/2000/svg" xmlns:xlink="http://www.w3.org/1999/xlink" x="0px" y="0px"
	 viewBox="0 0 512.004 512.004" style="enable-background:new 0 0 512.004 512.004;" xml:space="preserve">
<g>
	<path style="fill:#FAC176;" d="M223.997,310.44c-2.825-11.802-3.31-62.526-3.31-79.448V95.267V61.793
		C220.687,27.666,193.021,0,158.894,0s-58.112,30.164-61.793,61.793c0,0-18.873,209.355-29.237,249.379
		c-10.487,40.466-7.177,108.694,9.931,141.241C94.894,484.97,123.584,512,158.894,512c44.138,0,64.291-67.69,66.94-87.172
		c2.083-15.281,7.142-72.024,0-105.56L223.997,310.44z"/>
	<path style="fill:#AF7C4A;" d="M145.929,397.245c21.222,0,36.802-11.149,48.252-28.239c0.177-15.475-4.696-51.085-4.696-51.085
		c-3.566-16.243-4.105-61.272-4.105-86.925V61.797c0-14.601-11.882-26.483-26.483-26.483c-14.38,0-24.797,15.272-26.677,30.182
		c-2.172,24.108-19.474,213.222-30.182,254.535c-3.54,13.656-5.058,31.25-4.846,48.94
		C108.659,386.016,124.319,397.245,145.929,397.245"/>
	<path style="fill:#D69F5F;" d="M225.837,319.267l-1.836-8.828c-1.086-4.511-1.818-14.707-2.322-26.527l-0.794,1.81
		c-7.601,54.051-26.756,111.519-74.955,111.519c-46.442,0-65.633-51.482-74.055-102.276l-0.556-1.28
		c-1.227,7.336-2.392,13.356-3.46,17.487c-10.478,40.466-7.168,108.694,9.931,141.241C94.897,484.97,123.587,512,158.897,512
		c44.138,0,64.291-67.69,66.94-87.172C227.92,409.547,232.97,352.803,225.837,319.267"/>
	<g>
		<path style="fill:#FAC176;" d="M141.248,459.038c-18.423,0-35.584,5.226-50.255,14.133c17.108,22.51,40.492,38.833,67.902,38.833
			c19.588,0,34.428-13.347,45.135-29.873C187.089,467.751,165.206,459.038,141.248,459.038"/>
		<path style="fill:#FAC176;" d="M288.006,310.44c2.825-11.802,3.31-62.526,3.31-79.448V95.267V61.793
			C291.317,27.666,318.982,0,353.11,0s58.112,30.164,61.793,61.793c0,0,18.873,209.355,29.237,249.379
			c10.487,40.466,7.177,108.694-9.931,141.241C417.11,484.97,388.42,512,353.11,512c-44.138,0-64.291-67.69-66.94-87.172
			c-2.083-15.281-7.142-72.024,0-105.56L288.006,310.44z"/>
	</g>
	<path style="fill:#AF7C4A;" d="M366.074,397.245c-21.221,0-36.802-11.149-48.252-28.239c-0.177-15.475,4.696-51.085,4.696-51.085
		c3.566-16.243,4.105-61.272,4.105-86.925V61.797c0-14.601,11.882-26.483,26.483-26.483c14.38,0,24.797,15.272,26.677,30.182
		c2.172,24.108,19.474,213.222,30.182,254.535c3.54,13.656,5.058,31.25,4.846,48.94
		C403.344,386.016,387.684,397.245,366.074,397.245"/>
	<path style="fill:#D69F5F;" d="M286.167,319.267l1.836-8.828c1.086-4.511,1.818-14.707,2.322-26.527l0.794,1.81
		c7.601,54.051,26.756,111.519,74.955,111.519c46.442,0,65.633-51.482,74.055-102.276l0.556-1.28
		c1.227,7.336,2.392,13.356,3.46,17.487c10.478,40.466,7.168,108.694-9.931,141.241C417.106,484.97,388.416,512,353.106,512
		c-44.138,0-64.291-67.69-66.94-87.172C284.083,409.547,279.034,352.803,286.167,319.267"/>
	<path style="fill:#FAC176;" d="M370.756,459.038c18.423,0,35.584,5.226,50.255,14.133c-17.108,22.51-40.492,38.833-67.902,38.833
		c-19.588,0-34.428-13.347-45.135-29.873C324.914,467.751,346.798,459.038,370.756,459.038"/>
</g>
<g>
</g>
<g>
</g>
<g>
</g>
<g>
</g>
<g>
</g>
<g>
</g>
<g>
</g>
<g>
</g>
<g>
</g>
<g>
</g>
<g>
</g>
<g>
</g>
<g>
</g>
<g>
</g>
<g>
</g>
</svg>
