<?xml version="1.0" encoding="iso-8859-1"?>
<!-- Generator: Adobe Illustrator 19.0.0, SVG Export Plug-In . SVG Version: 6.00 Build 0)  -->
<svg version="1.1" id="Layer_1" xmlns="http://www.w3.org/2000/svg" xmlns:xlink="http://www.w3.org/1999/xlink" x="0px" y="0px"
	 viewBox="0 0 512.034 512.034" style="enable-background:new 0 0 512.034 512.034;" xml:space="preserve">
<g transform="translate(0 -1)">
	<path style="fill:#C03A2B;" d="M26.492,212.996c-0.494,0-0.98-0.035-1.483-0.124c-15.651-2.648-25.009-15.801-25.009-35.187
		c0-4.873,3.946-8.828,8.828-8.828s8.828,3.955,8.828,8.828c0,7.318,1.783,16.34,10.302,17.779c4.802,0.812,8.042,5.367,7.23,10.178
		C34.455,209.951,30.721,212.996,26.492,212.996"/>
	<path style="fill:#BDC3C7;" d="M501.195,273.509l-0.159,0.009c2.172,6.276,0.159,11.132,0.159,11.132
		C458.037,336.158,0,301.351,0,301.351v61.714c0,0,211.862,0,350.835-0.23c83.968-0.132,127.514-16.693,148.824-32.018
		c11.688-8.422,15.113-23.808,10.205-37.085L501.195,273.509z"/>
	<g>
		<path style="fill:#ECF0F1;" d="M379.587,310.664c61.325-3.354,109.047-11.026,121.609-26.015c0,0,18.097-43.158-111.378-38.983
			l-10.231,64.203V310.664z"/>
		<path style="fill:#ECF0F1;" d="M357.982,250.203l7.027-16.216L200.481,156.56c0,0-26.236,41.481-75.511,53.283l159.806,69.288
			C312.979,291.357,345.756,278.407,357.982,250.203"/>
	</g>
	<g>
		<path d="M52.966,230.652c4.873,0,8.828,3.955,8.828,8.828c0,4.873-3.955,8.828-8.828,8.828s-8.828-3.955-8.828-8.828
			C44.139,234.606,48.094,230.652,52.966,230.652"/>
		<path d="M44.139,265.962c4.873,0,8.828,3.955,8.828,8.828s-3.955,8.828-8.828,8.828s-8.828-3.955-8.828-8.828
			S39.266,265.962,44.139,265.962"/>
	</g>
	<g>
		<path style="fill:#BDC3C7;" d="M211.854,212.768c-1.545,0-3.116-0.406-4.537-1.262c-4.175-2.507-5.535-7.927-3.019-12.111
			l26.483-44.138c2.507-4.175,7.927-5.544,12.111-3.019c4.175,2.507,5.535,7.927,3.019,12.111l-26.483,44.138
			C217.777,211.241,214.856,212.768,211.854,212.768"/>
		<path style="fill:#BDC3C7;" d="M247.164,230.423c-1.545,0-3.116-0.406-4.537-1.262c-4.175-2.507-5.535-7.927-3.019-12.111
			l26.483-44.138c2.507-4.175,7.918-5.535,12.111-3.019c4.175,2.507,5.535,7.927,3.019,12.111l-26.483,44.138
			C253.088,228.896,250.166,230.423,247.164,230.423"/>
		<path style="fill:#BDC3C7;" d="M282.475,248.078c-1.545,0-3.116-0.406-4.537-1.262c-4.175-2.507-5.535-7.927-3.019-12.111
			l26.483-44.138c2.507-4.175,7.918-5.535,12.111-3.019c4.175,2.507,5.535,7.927,3.019,12.111l-26.483,44.138
			C288.398,246.551,285.476,248.078,282.475,248.078"/>
		<path style="fill:#BDC3C7;" d="M317.785,265.733c-1.545,0-3.116-0.406-4.537-1.262c-4.175-2.507-5.535-7.927-3.019-12.111
			l26.483-44.138c2.498-4.167,7.918-5.535,12.111-3.019c4.175,2.507,5.535,7.927,3.019,12.111l-26.483,44.138
			C323.708,264.206,320.787,265.733,317.785,265.733"/>
	</g>
	<path style="fill:#C03A2B;" d="M379.587,309.873l10.231-64.212l-24.806-11.67l-7.027,16.207
		c-12.235,28.213-45.012,41.163-73.216,28.928l-159.806-69.279h0.009c-27.321,6.541-61.705,3.999-102.7-19.871
		c0,0-19.023,101.632-22.272,111.378c0,0,230.206,17.487,379.586,9.313V309.873z"/>
</g>
<g>
</g>
<g>
</g>
<g>
</g>
<g>
</g>
<g>
</g>
<g>
</g>
<g>
</g>
<g>
</g>
<g>
</g>
<g>
</g>
<g>
</g>
<g>
</g>
<g>
</g>
<g>
</g>
<g>
</g>
</svg>
