<svg height="512" viewBox="0 0 58 56" width="512" xmlns="http://www.w3.org/2000/svg"><g id="Page-1" fill="none" fill-rule="evenodd"><g id="061---Locked-Folder" fill-rule="nonzero"><path id="Shape" d="m51 5h-26c-.5522847 0-1-.44771525-1-1v-1c0-1.65685425-1.3431458-3-3-3h-14c-1.65685425 0-3 1.34314575-3 3v9h50v-4c0-1.65685425-1.3431458-3-3-3z" fill="#f29c1f"/><path id="Shape" d="m42.7 45h5.46c1.9072274-.0015321 3.5480911-1.3493844 3.92-3.22l5.88-29.39c.116709-.5870173-.0356102-1.1954503-.4151342-1.6582372-.3795241-.4627869-.9463593-.7312821-1.5448658-.7317628h-54c-.59850648.0004807-1.16534175.2689759-1.54486577.7317628-.37952402.4627869-.53184323 1.0712199-.41513423 1.6582372l5.88 29.39c.37190885 1.8706156 2.01277256 3.2184679 3.92 3.22z" fill="#f0c419"/><path id="Shape" d="m7 15h-2c-.55228475 0-1-.4477153-1-1s.44771525-1 1-1h2c.55228475 0 1 .4477153 1 1s-.44771525 1-1 1z" fill="#f9eab0"/><path id="Shape" d="m27 15h-16c-.5522847 0-1-.4477153-1-1s.4477153-1 1-1h16c.5522847 0 1 .4477153 1 1s-.4477153 1-1 1z" fill="#f9eab0"/><path id="Shape" d="m22 35v-5c0-3.8659932 3.1340068-7 7-7s7 3.1340068 7 7v5h4v-5c0-6.0751322-4.9248678-11-11-11s-11 4.9248678-11 11v5z" fill="#95a5a5"/><path id="Shape" d="m18 34h22c1.1045695 0 2 .8954305 2 2v15c0 2.7614237-2.2385763 5-5 5h-16c-2.7614237 0-5-2.2385763-5-5v-15c0-1.1045695.8954305-2 2-2z" fill="#2fa8cc"/><path id="Shape" d="m32 43c.0032158-1.3740425-.9274623-2.5746319-2.2589269-2.9140511-1.3314645-.3394192-2.7233249.2691049-3.3783008 1.4769996s-.405622 2.7063604.6052277 3.6370515l-.58 3.476c-.0950865.5792001.0690551 1.1709318.4489262 1.6183826.379871.4474508.9371205.7054467 1.5240738.7056174h1.278c.5879836.0000723 1.1462101-.2585952 1.5262725-.7072345.3800625-.4486394.5434508-1.041792.4467275-1.6217655l-.58-3.476c.6157228-.5638904.9668458-1.3600835.968-2.195z" fill="#285680"/></g></g></svg>