<?xml version="1.0" encoding="iso-8859-1"?>
<!-- Generator: Adobe Illustrator 19.0.0, SVG Export Plug-In . SVG Version: 6.00 Build 0)  -->
<svg version="1.1" id="Layer_1" xmlns="http://www.w3.org/2000/svg" xmlns:xlink="http://www.w3.org/1999/xlink" x="0px" y="0px"
	 viewBox="0 0 505.071 505.071" style="enable-background:new 0 0 505.071 505.071;" xml:space="preserve">
<g>
	<path style="fill:#35495E;" d="M476.921,405.694c-11.732,4.873-41.057,8.828-54.519,8.828c-29.493,0-78.663,0.256-78.663,0.256
		c-65.757,0-100.308-59.727-174.53-107.547c-56.285-36.273-63.647,0.609-63.647,10.443v97.103h-35.31V395.11
		c0-94.031-36.246-89.724-62.058-141.347S23.563,112.415,48.757,90.293c0,0,138.478,110.618,235.988,186.686
		c49.911,38.93,163.902,76.323,200.739,76.323C526.771,353.303,492.343,399.285,476.921,405.694"/>
	<path style="fill:#233442;" d="M68.334,361.809c1.227,9.551,1.924,20.489,1.924,33.298v19.668h35.31v-52.966H68.334z"/>
</g>
<g>
</g>
<g>
</g>
<g>
</g>
<g>
</g>
<g>
</g>
<g>
</g>
<g>
</g>
<g>
</g>
<g>
</g>
<g>
</g>
<g>
</g>
<g>
</g>
<g>
</g>
<g>
</g>
<g>
</g>
</svg>
