<?xml version="1.0" encoding="iso-8859-1"?>
<!-- Generator: Adobe Illustrator 19.0.0, SVG Export Plug-In . SVG Version: 6.00 Build 0)  -->
<svg version="1.1" id="Layer_1" xmlns="http://www.w3.org/2000/svg" xmlns:xlink="http://www.w3.org/1999/xlink" x="0px" y="0px"
	 viewBox="0 0 503.687 503.687" style="enable-background:new 0 0 503.687 503.687;" xml:space="preserve">
<g>
	<g>
		<path style="fill:#633E25;" d="M8.535,263.786c0,0,6.508,56.407,8.678,78.102s13,26.034,26.034,26.034h52.068v-86.78
			c-32.751-14.188-53.56-13.555-92.273-35.094C4.404,251.863,6.114,257.755,8.535,263.786"/>
		<path style="fill:#633E25;" d="M402.651,299.265l-43.416-1.874c-7.159-0.312-12.722-6.37-12.41-13.538l0.364-8.418
			c0.312-7.168,6.37-12.722,13.529-12.418l43.416,1.874c7.168,0.312,12.722,6.37,12.41,13.538l-0.356,8.426
			C415.877,294.015,409.819,299.578,402.651,299.265"/>
	</g>
	<path style="fill:#805333;" d="M416.29,284.417l-0.104,2.439c-0.312,7.159-6.37,12.722-13.538,12.41l-43.407-1.874
		c-7.168-0.312-12.722-6.37-12.418-13.538l0.191-4.391c-47.564-5.823-90.26-25.374-132.799-46.774
		c-7.55-3.801-15.377-7.888-23.439-12.288L34.572,133.62C20.705,148.12-9.677,191.745,3.045,246.051
		c38.712,21.53,59.522,20.897,92.273,35.094c0,0,82.441,23.135,138.847,69.424c8.678,8.678,67.332,32.056,215.864,10.847
		C555.736,346.316,484.013,297.572,416.29,284.417"/>
</g>
<g>
</g>
<g>
</g>
<g>
</g>
<g>
</g>
<g>
</g>
<g>
</g>
<g>
</g>
<g>
</g>
<g>
</g>
<g>
</g>
<g>
</g>
<g>
</g>
<g>
</g>
<g>
</g>
<g>
</g>
</svg>
