<?xml version="1.0" encoding="iso-8859-1"?>
<!-- Generator: Adobe Illustrator 19.0.0, SVG Export Plug-In . SVG Version: 6.00 Build 0)  -->
<svg version="1.1" id="Layer_1" xmlns="http://www.w3.org/2000/svg" xmlns:xlink="http://www.w3.org/1999/xlink" x="0px" y="0px"
	 viewBox="0 0 512 512" style="enable-background:new 0 0 512 512;" xml:space="preserve">
<g>
	<path style="fill:#805333;" d="M223.906,310.44c-2.825-11.802-3.31-62.526-3.31-79.448V95.267V61.793
		C220.596,27.666,192.93,0,158.803,0S100.691,30.164,97.01,61.793c0,0-18.873,209.355-29.237,249.379
		c-10.487,40.466-7.177,108.694,9.931,141.241C94.803,484.97,123.493,512,158.803,512c44.138,0,64.291-67.69,66.94-87.172
		c2.083-15.281,7.142-72.024,0-105.56L223.906,310.44z"/>
	<path style="fill:#5E3A21;" d="M145.839,397.245c21.222,0,36.802-11.149,48.252-28.239c0.177-15.475-4.696-51.085-4.696-51.085
		c-3.566-16.243-4.105-61.272-4.105-86.925V61.797c0-14.601-11.882-26.483-26.483-26.483c-14.38,0-24.797,15.272-26.677,30.182
		c-2.172,24.108-19.474,213.222-30.182,254.535c-3.54,13.656-5.058,31.25-4.846,48.94
		C108.569,386.016,124.229,397.245,145.839,397.245"/>
	<path style="fill:#9B6B4B;" d="M225.746,319.267l-1.836-8.828c-1.086-4.511-1.818-14.707-2.322-26.527l-0.794,1.81
		c-7.601,54.051-26.756,111.519-74.955,111.519c-46.442,0-65.633-51.482-74.055-102.276l-0.556-1.28
		c-1.227,7.336-2.392,13.356-3.46,17.487c-10.478,40.466-7.168,108.694,9.931,141.241C94.807,484.97,123.496,512,158.807,512
		c44.138,0,64.291-67.69,66.94-87.172C227.829,409.547,232.879,352.803,225.746,319.267"/>
	<path style="fill:#5E3A21;" d="M167.724,459.038h-35.31c-9.754,0-17.655-7.901-17.655-17.655l0,0
		c0-9.754,7.901-17.655,17.655-17.655h35.31c9.754,0,17.655,7.901,17.655,17.655l0,0
		C185.379,451.137,177.479,459.038,167.724,459.038"/>
	<path style="fill:#805333;" d="M288.094,310.44c2.825-11.802,3.31-62.526,3.31-79.448V95.267V61.793
		C291.404,27.666,319.07,0,353.197,0c34.127,0,58.112,30.164,61.793,61.793c0,0,18.873,209.355,29.237,249.379
		c10.487,40.466,7.177,108.694-9.931,141.241C417.197,484.97,388.507,512,353.197,512c-44.138,0-64.291-67.69-66.94-87.172
		c-2.083-15.281-7.142-72.024,0-105.56L288.094,310.44z"/>
	<path style="fill:#5E3A21;" d="M366.161,397.245c-21.222,0-36.802-11.149-48.252-28.239c-0.177-15.475,4.696-51.085,4.696-51.085
		c3.566-16.243,4.105-61.272,4.105-86.925V61.797c0-14.601,11.882-26.483,26.483-26.483c14.38,0,24.797,15.272,26.677,30.182
		c2.172,24.108,19.474,213.222,30.181,254.535c3.54,13.656,5.058,31.25,4.846,48.94
		C403.431,386.016,387.771,397.245,366.161,397.245"/>
	<path style="fill:#9B6B4B;" d="M286.254,319.267l1.836-8.828c1.086-4.511,1.818-14.707,2.322-26.527l0.794,1.81
		c7.601,54.051,26.756,111.519,74.955,111.519c46.442,0,65.633-51.482,74.055-102.276l0.556-1.28
		c1.227,7.336,2.392,13.356,3.46,17.487c10.478,40.466,7.168,108.694-9.931,141.241C417.193,484.97,388.504,512,353.193,512
		c-44.138,0-64.291-67.69-66.94-87.172C284.171,409.547,279.121,352.803,286.254,319.267"/>
	<path style="fill:#5E3A21;" d="M344.276,459.038h35.31c9.754,0,17.655-7.901,17.655-17.655l0,0c0-9.754-7.901-17.655-17.655-17.655
		h-35.31c-9.754,0-17.655,7.901-17.655,17.655l0,0C326.621,451.137,334.521,459.038,344.276,459.038"/>
</g>
<g>
</g>
<g>
</g>
<g>
</g>
<g>
</g>
<g>
</g>
<g>
</g>
<g>
</g>
<g>
</g>
<g>
</g>
<g>
</g>
<g>
</g>
<g>
</g>
<g>
</g>
<g>
</g>
<g>
</g>
</svg>
