<?xml version="1.0" encoding="iso-8859-1"?>
<!-- Generator: Adobe Illustrator 19.0.0, SVG Export Plug-In . SVG Version: 6.00 Build 0)  -->
<svg version="1.1" id="Layer_1" xmlns="http://www.w3.org/2000/svg" xmlns:xlink="http://www.w3.org/1999/xlink" x="0px" y="0px"
	 viewBox="0 0 503.404 503.404" style="enable-background:new 0 0 503.404 503.404;" xml:space="preserve">
<g>
	<g>
		<path style="fill:#233442;" d="M403.416,296.374c-4.226-0.434-8.582-0.651-12.939-0.651c-10.882,0-22.146,1.354-33.471,4.027
			c-3.011,0.712-6.005,1.31-8.973,1.831l-21.79,152.559c41.09-2.36,99.536-8.322,159.492-23.135
			c8.609-2.126,14.379-8.843,16.61-16.714c0.581-0.642,0.963-1.354,0.963-2.039c0-2.169,0.477-82.328-0.694-84.897
			C498.457,318.225,461.263,302.267,403.416,296.374"/>
		<path style="fill:#233442;" d="M87.933,265.429c-27.127-18.909-52.024-30.043-68.105-36.048c-3.124-1.172-5.979-2.838-8.504-4.877
			c-0.009,0.009-0.009,0.009-0.017,0.009c30.685,37.046,49.421,87.162,49.421,135.663v95.458h34.712V270.992
			C92.949,269.118,90.493,267.217,87.933,265.429"/>
	</g>
	<path style="fill:#35495E;" d="M348.039,301.582c-8.036,1.415-15.881,2.143-23.396,2.143c-26.424,0-48.458-9.034-63.731-26.138
		c-7.029-7.88-19.725-22.754-35.805-41.576C185.327,189.393,83.204,72.475,52.05,47.769C44.57,64.413,0,172.792,0,200.232
		c0,12.895,7.749,24.637,19.829,29.149c16.08,6.005,40.969,17.148,68.105,36.048c33.028,23.014,60.199,53.396,81.408,87.621
		c23.708,38.252,69.493,104.856,99.597,102.504c0,0,22.389,0.59,57.301-1.423L348.039,301.582L348.039,301.582"/>
</g>
<g>
</g>
<g>
</g>
<g>
</g>
<g>
</g>
<g>
</g>
<g>
</g>
<g>
</g>
<g>
</g>
<g>
</g>
<g>
</g>
<g>
</g>
<g>
</g>
<g>
</g>
<g>
</g>
<g>
</g>
</svg>
