<?xml version="1.0" encoding="iso-8859-1"?>
<!-- Generator: Adobe Illustrator 19.0.0, SVG Export Plug-In . SVG Version: 6.00 Build 0)  -->
<svg version="1.1" id="Capa_1" xmlns="http://www.w3.org/2000/svg" xmlns:xlink="http://www.w3.org/1999/xlink" x="0px" y="0px"
	 viewBox="0 0 468.293 468.293" style="enable-background:new 0 0 468.293 468.293;" xml:space="preserve">
<path style="fill:#64798A;" d="M269.965,468.293h-71.628c-4.159,0-7.878-2.589-9.322-6.49l-12.049-32.561h114.37l-12.049,32.561
	C277.843,465.703,274.124,468.293,269.965,468.293z"/>
<path style="fill:#FCD462;" d="M154.095,347.888h160.087c2.431-26.713,13.667-52.128,32.944-70.993
	c29.946-29.308,48.538-70.162,48.538-115.377c0-93.011-78.618-167.659-173.027-161.118C145.431,5.748,81.9,66.622,73.599,143.568
	c-5.609,51.986,13.488,99.647,46.999,132.768C139.976,295.488,151.594,320.952,154.095,347.888z"/>
<path style="fill:#E1E6E9;" d="M117.064,157.619c-0.338,0-0.677-0.018-1.018-0.055c-5.14-0.555-8.86-5.174-8.305-10.317
	c6.476-60.003,56.893-108.405,117.271-112.588c3.064-0.213,6.11-0.317,9.137-0.317c5.174,0,9.366,4.192,9.366,9.366
	s-4.192,9.366-9.366,9.366c-2.595,0-5.207,0.091-7.841,0.274c-51.46,3.561-94.427,44.796-99.945,95.912
	C125.845,154.058,121.784,157.619,117.064,157.619z"/>
<path style="fill:#64798A;" d="M323.607,357.827v24.6c0,5.467-4.473,9.94-9.94,9.94H154.635c-5.516,0-9.94-4.473-9.94-9.94v-24.6
	c0-5.467,4.423-9.94,9.94-9.94h159.033C319.135,347.888,323.607,352.361,323.607,357.827z"/>
<path style="fill:#3A556A;" d="M323.607,370.152v12.275c0,5.467-4.473,9.94-9.94,9.94H154.635c-5.516,0-9.94-4.473-9.94-9.94
	v-12.275H323.607z"/>
<path style="fill:#64798A;" d="M323.607,402.307v24.6c0,5.467-4.473,9.94-9.94,9.94H154.635c-5.516,0-9.94-4.473-9.94-9.94v-24.6
	c0-5.467,4.423-9.94,9.94-9.94h159.033C319.135,392.368,323.607,396.84,323.607,402.307z"/>
<path style="fill:#3A556A;" d="M323.607,414.632v12.276c0,5.467-4.473,9.94-9.94,9.94H154.635c-5.516,0-9.94-4.473-9.94-9.94
	v-12.276H323.607z"/>
<g>
	<path style="fill:#DC8744;" d="M187.885,175.906c-19.249,0-34.91,15.66-34.91,34.91s15.66,34.91,34.91,34.91
		c9.209,0,17.572-3.61,23.817-9.456v111.62h11.096V210.815C222.797,191.566,207.135,175.906,187.885,175.906z M187.885,234.629
		c-13.13,0-23.814-10.684-23.814-23.814c0-13.13,10.684-23.814,23.814-23.814c13.133,0,23.817,10.684,23.817,23.814
		C211.702,223.945,201.018,234.629,187.885,234.629z"/>
	<path style="fill:#DC8744;" d="M280.408,175.906c-19.249,0-34.912,15.66-34.912,34.91v137.073h11.096v-111.62
		c6.245,5.846,14.608,9.456,23.817,9.456c19.249,0,34.91-15.66,34.91-34.91S299.657,175.906,280.408,175.906z M280.408,234.629
		c-13.133,0-23.817-10.684-23.817-23.814c0-13.13,10.684-23.814,23.817-23.814c13.13,0,23.814,10.684,23.814,23.814
		C304.221,223.945,293.538,234.629,280.408,234.629z"/>
</g>
<g>
</g>
<g>
</g>
<g>
</g>
<g>
</g>
<g>
</g>
<g>
</g>
<g>
</g>
<g>
</g>
<g>
</g>
<g>
</g>
<g>
</g>
<g>
</g>
<g>
</g>
<g>
</g>
<g>
</g>
</svg>
