<?xml version="1.0" encoding="iso-8859-1"?>
<!-- Generator: Adobe Illustrator 19.0.0, SVG Export Plug-In . SVG Version: 6.00 Build 0)  -->
<svg version="1.1" id="Layer_1" xmlns="http://www.w3.org/2000/svg" xmlns:xlink="http://www.w3.org/1999/xlink" x="0px" y="0px"
	 viewBox="0 0 512 512" style="enable-background:new 0 0 512 512;" xml:space="preserve">
<g transform="translate(-1)">
	<path style="fill:#805333;" d="M226.141,310.343c-2.163-26.403-4.502-52.824-4.502-79.351V61.793
		C221.639,27.666,193.974,0,159.846,0s-58.112,30.164-61.793,61.793c0,0-18.873,209.355-29.246,249.379
		c-10.478,40.466-7.168,108.694,9.931,141.241C95.846,484.97,124.536,512,159.846,512c44.138,0,64.291-67.69,66.94-87.172
		C232.003,386.534,229.258,348.451,226.141,310.343"/>
	<g>
		<path style="fill:#5E391F;" d="M151.12,397.246c27.577-0.291,46.001-25.45,44.138-52.966c-0.459-6.771-4.82-26.359-4.82-26.359
			c-3.575-16.243-4.114-61.272-4.114-86.925V64.622c0-10.99-5.791-21.495-15.581-26.492c-19.827-10.116-35.249,8.907-37.57,27.366
			c-2.18,24.108-19.482,213.222-30.182,254.535c-1.783,6.886-4.043,15.854-4.838,24.249c-2.657,28.116,15.898,52.604,44.138,52.966
			H151.12"/>
		<path style="fill:#5E391F;" d="M226.788,424.832c0.053-0.371,0.071-0.733,0.124-1.103h-40.483c-6.056,0-11.97,3.151-16.605,7.777
			l-18.706,18.706l18.706,18.706c4.634,4.634,7.777,7.874,16.605,7.777c2.692-0.026,11.423-0.035,21.875-0.035
			C219.541,457.062,225.438,434.728,226.788,424.832"/>
		<path style="fill:#5E391F;" d="M115.81,423.729H68.847c2.516,11.017,5.8,20.895,9.896,28.69
			c4.52,8.607,9.869,16.799,15.925,24.241c10.125,0,18.511,0.009,21.142,0.035c8.828,0.097,11.97-3.143,16.605-7.777l18.706-18.706
			l-18.706-18.706C127.789,426.88,121.866,423.729,115.81,423.729"/>
	</g>
	<path style="fill:#805333;" d="M287.859,310.343c2.163-26.403,4.502-52.824,4.502-79.351V61.793
		C292.361,27.666,320.026,0,354.154,0c34.127,0,58.112,30.164,61.793,61.793c0,0,18.873,209.355,29.246,249.379
		c10.478,40.466,7.168,108.694-9.931,141.241C418.154,484.97,389.464,512,354.154,512c-44.138,0-64.291-67.69-66.94-87.172
		C281.997,386.534,284.742,348.451,287.859,310.343"/>
	<g>
		<path style="fill:#5E391F;" d="M362.88,397.246c-27.577-0.291-46.001-25.45-44.138-52.966c0.459-6.771,4.82-26.359,4.82-26.359
			c3.575-16.243,4.114-61.272,4.114-86.925V64.622c0-10.99,5.791-21.495,15.581-26.492c19.827-10.116,35.249,8.907,37.57,27.366
			c2.18,24.108,19.482,213.222,30.181,254.535c1.783,6.886,4.043,15.854,4.838,24.249c2.657,28.116-15.898,52.604-44.138,52.966
			H362.88"/>
		<path style="fill:#5E391F;" d="M287.212,424.832c-0.053-0.371-0.071-0.733-0.124-1.103h40.483c6.056,0,11.97,3.151,16.605,7.777
			l18.706,18.706l-18.706,18.706c-4.634,4.634-7.777,7.874-16.605,7.777c-2.692-0.026-11.423-0.035-21.875-0.035
			C294.459,457.062,288.562,434.728,287.212,424.832"/>
		<path style="fill:#5E391F;" d="M398.19,423.729h46.963c-2.516,11.017-5.8,20.895-9.896,28.69
			c-4.52,8.607-9.869,16.799-15.925,24.241c-10.125,0-18.511,0.009-21.142,0.035c-8.828,0.097-11.97-3.143-16.605-7.777
			l-18.706-18.706l18.706-18.706C386.211,426.88,392.134,423.729,398.19,423.729"/>
	</g>
</g>
<g>
</g>
<g>
</g>
<g>
</g>
<g>
</g>
<g>
</g>
<g>
</g>
<g>
</g>
<g>
</g>
<g>
</g>
<g>
</g>
<g>
</g>
<g>
</g>
<g>
</g>
<g>
</g>
<g>
</g>
</svg>
