<?xml version="1.0" encoding="iso-8859-1"?>
<!-- Generator: Adobe Illustrator 19.0.0, SVG Export Plug-In . SVG Version: 6.00 Build 0)  -->
<svg version="1.1" id="Layer_1" xmlns="http://www.w3.org/2000/svg" xmlns:xlink="http://www.w3.org/1999/xlink" x="0px" y="0px"
	 viewBox="0 0 503.095 503.095" style="enable-background:new 0 0 503.095 503.095;" xml:space="preserve">
<g>
	<path style="fill:#804169;" d="M446.969,314.672c-14.987-3.619-30-7.055-44.796-11.359c-25.452-7.411-59.314-18.068-72.973-25.964
		c0,0-25.123,36.3-89.574,4.304C177.449,250.776,25.576,164.5,25.576,164.5c-7.159,14.31-32.161,51.009-23.934,95.458
		c35.189,0.061,142.996,42.314,164.222,54.237c32.187,16.271,72.678,67.254,163.441,67.254h78.102c0,0,26.754,0,95.458-8.678
		C502.864,372.771,509.849,329.867,446.969,314.672"/>
	<g>
		<path style="fill:#683156;" d="M502.861,372.769c0,0,6.994-42.904-55.895-58.099c-14.987-3.619-29.991-7.055-44.796-11.359
			c-11.897-3.463-25.591-7.645-38.244-11.915l-0.017,0.009c-13.607,31.267-11.099,60.928,8.062,90.043h35.432
			C407.403,381.447,434.158,381.447,502.861,372.769"/>
		<path style="fill:#683156;" d="M154.387,236.4l41.637-68.842c6.508-11.273,2.647-25.695-8.635-32.204l-17.885-10.327
			c-12.054-6.96-27.457-2.829-34.408,9.216l-41.463,68.53C112.576,213.351,133.647,225.04,154.387,236.4"/>
		<path style="fill:#683156;" d="M11.837,289.244c0,0,22.415,55.322,22.415,92.203h78.102c0,0,21.33-83.525,53.517-67.254
			c-21.235-11.924-129.033-54.177-164.222-54.237C3.402,269.423,6.569,279.22,11.837,289.244"/>
	</g>
</g>
<g>
</g>
<g>
</g>
<g>
</g>
<g>
</g>
<g>
</g>
<g>
</g>
<g>
</g>
<g>
</g>
<g>
</g>
<g>
</g>
<g>
</g>
<g>
</g>
<g>
</g>
<g>
</g>
<g>
</g>
</svg>
