<?xml version="1.0" encoding="iso-8859-1"?>
<!-- Generator: Adobe Illustrator 19.0.0, SVG Export Plug-In . SVG Version: 6.00 Build 0)  -->
<svg version="1.1" id="Layer_1" xmlns="http://www.w3.org/2000/svg" xmlns:xlink="http://www.w3.org/1999/xlink" x="0px" y="0px"
	 viewBox="0 0 512.158 512.158" style="enable-background:new 0 0 512.158 512.158;" xml:space="preserve">
<g>
	<path style="fill:#4482C3;" d="M505.971,369.197c-10.505,8.254-23.711,13.215-38.109,13.215c-29.458,0-54.06-20.63-60.248-48.225
		c-16.26-1.139-32.591,0.327-48.481,4.069c-21.99,5.191-57.812,8.333-80.525-17.117C243.942,282.316,66.454,67.4,51.209,77.101
		c0,0-48.94,34.489-51.191,98.463c-0.459,13.118,7.883,25.062,20.171,29.652c29.431,10.999,87.87,38.877,136.395,99.293
		c0,0,74.134,134.135,117.01,130.781c0,0,107.723,2.895,220.531-24.964c16.437-4.061,23.146-24.452,13.745-38.524
		C507.295,370.936,506.651,370.062,505.971,369.197"/>
	<path style="fill:#285680;" d="M20.192,205.22c-2.94-1.103-5.641-2.639-8.068-4.502v0.009
		c31.214,37.676,49.611,87.234,49.611,136.572l0.062,98.074h35.31V247.425C66.59,224.835,38.041,211.894,20.192,205.22"/>
</g>
<g>
</g>
<g>
</g>
<g>
</g>
<g>
</g>
<g>
</g>
<g>
</g>
<g>
</g>
<g>
</g>
<g>
</g>
<g>
</g>
<g>
</g>
<g>
</g>
<g>
</g>
<g>
</g>
<g>
</g>
</svg>
