<?xml version="1.0" encoding="iso-8859-1"?>
<!-- Generator: Adobe Illustrator 19.0.0, SVG Export Plug-In . SVG Version: 6.00 Build 0)  -->
<svg version="1.1" id="Capa_1" xmlns="http://www.w3.org/2000/svg" xmlns:xlink="http://www.w3.org/1999/xlink" x="0px" y="0px"
	 viewBox="0 0 512 512" style="enable-background:new 0 0 512 512;" xml:space="preserve">
<g>
	<path style="fill:#415A6B;" d="M178.133,92.8v56.533c0,8.533,7.467,16,16,16s16-7.467,16-16V92.8H178.133z"/>
	<path style="fill:#415A6B;" d="M409.6,92.8v56.533c0,8.533,7.467,16,16,16s16-7.467,16-16V92.8H409.6z"/>
</g>
<g>
	<path style="fill:#FFD15C;" d="M54.4,0C42.667,0,33.067,9.6,33.067,21.333V512h42.667V21.333C75.733,9.6,66.133,0,54.4,0z"/>
	<path style="fill:#FFD15C;" d="M490.667,60.8H21.333C9.6,60.8,0,70.4,0,82.133s9.6,21.333,21.333,21.333h469.333
		c11.733,0,21.333-9.6,21.333-21.333S502.4,60.8,490.667,60.8z"/>
</g>
<path style="fill:#E8EAE9;" d="M480,135.467H139.733c-18.133,0-32,13.867-32,32v233.6c0,18.133,13.867,32,32,32H480
	c18.133,0,32-13.867,32-32v-233.6C512,150.4,498.133,135.467,480,135.467z"/>
<polygon style="fill:#F3705A;" points="411.733,281.6 310.4,179.2 208,281.6 "/>
<rect x="238.933" y="281.6" style="fill:#8AD7F8;" width="141.867" height="107.733"/>
<g>
	<rect x="288" y="336" style="fill:#415A6B;" width="44.8" height="54.4"/>
	<circle style="fill:#415A6B;" cx="53.333" cy="82.133" r="8.533"/>
</g>
<g>
</g>
<g>
</g>
<g>
</g>
<g>
</g>
<g>
</g>
<g>
</g>
<g>
</g>
<g>
</g>
<g>
</g>
<g>
</g>
<g>
</g>
<g>
</g>
<g>
</g>
<g>
</g>
<g>
</g>
</svg>
