<svg id="color" enable-background="new 0 0 24 24" height="512" viewBox="0 0 24 24" width="512" xmlns="http://www.w3.org/2000/svg"><path d="m16.082 18.129c-.261 0-.514-.136-.652-.379-.205-.359-.08-.817.279-1.022l4.836-2.757c.359-.204.818-.08 1.023.279.205.36.08.818-.28 1.023l-4.835 2.757c-.117.068-.246.099-.371.099z" fill="#b0bec5"/><path d="m21.568 14.25-6.139 3.5c.139.243.392.379.652.379.125 0 .254-.031.371-.099l4.835-2.757c.361-.205.486-.663.281-1.023z" fill="#99a5ac"/><path d="m20.918 22.127c-.125 0-.252-.031-.369-.096l-4.854-2.739c-.361-.204-.488-.661-.285-1.022.205-.359.662-.486 1.022-.284l4.854 2.739c.36.203.488.66.284 1.022-.136.243-.39.38-.652.38z" fill="#b0bec5"/><path d="m15.41 18.27c-.203.361-.076.818.285 1.022l4.854 2.739c.117.064.244.096.369.096.262 0 .516-.137.653-.381z" fill="#99a5ac"/><path d="m14.25 0h-11.5c-1.52 0-2.75 1.23-2.75 2.75v15.5c0 1.52 1.23 2.75 2.75 2.75h9.61c-.83-.73-1.36-1.8-1.36-3 0-2.21 1.79-4 4-4 .4 0 .77.08 1.13.18l.87-.49v-10.94c0-1.52-1.23-2.75-2.75-2.75z" fill="#eceff1"/><path d="m8.5 0h-5.75c-1.52 0-2.75 1.23-2.75 2.75v15.5c0 1.52 1.23 2.75 2.75 2.75h5.75v-3.75z" fill="#cdd0d2"/><g fill="#90a4ae"><path d="m13 10h-9c-.552 0-1-.448-1-1s.448-1 1-1h9c.552 0 1 .448 1 1s-.448 1-1 1z"/><path d="m9 14h-5c-.552 0-1-.448-1-1s.448-1 1-1h5c.552 0 1 .448 1 1s-.448 1-1 1z"/><path d="m8 6h-4c-.552 0-1-.448-1-1s.448-1 1-1h4c.552 0 1 .448 1 1s-.448 1-1 1z"/></g><path d="m22 16c-1.103 0-2-.897-2-2s.897-2 2-2 2 .897 2 2-.897 2-2 2z" fill="#546e7a"/><path d="m22 24c-1.103 0-2-.897-2-2s.897-2 2-2 2 .897 2 2-.897 2-2 2z" fill="#546e7a"/><path d="m9 5h-6c0 .553.448 1 1 1h4c.552 0 1-.447 1-1z" fill="#7d8f97"/><path d="m14 9h-11c0 .553.448 1 1 1h9c.552 0 1-.447 1-1z" fill="#7d8f97"/><path d="m10 13h-7c0 .553.448 1 1 1h5c.552 0 1-.447 1-1z" fill="#7d8f97"/><path d="m15 20c-1.104 0-2-.896-2-2 0-1.103.896-2 2-2 1.103 0 2 .897 2 2 0 1.104-.897 2-2 2z" fill="#546e7a"/><path d="m15 16c-1.104 0-2 .897-2 2 0 1.104.896 2 2 2z" fill="#49606a"/><path d="m22 12c-1.104 0-2 .897-2 2 0 1.104.896 2 2 2z" fill="#49606a"/><path d="m22 20c-1.104 0-2 .897-2 2 0 1.104.896 2 2 2z" fill="#49606a"/></svg>