<?xml version="1.0" encoding="iso-8859-1"?>
<!-- Generator: Adobe Illustrator 19.0.0, SVG Export Plug-In . SVG Version: 6.00 Build 0)  -->
<svg xmlns="http://www.w3.org/2000/svg" xmlns:xlink="http://www.w3.org/1999/xlink" version="1.1" id="Capa_1" x="0px" y="0px" viewBox="0 0 409.6 409.6" style="enable-background:new 0 0 409.6 409.6;" xml:space="preserve">
<path style="fill:#3A556A;" d="M149.936,409.6L149.936,409.6c-13.824,0-23.552-30.72-22.016-62.976l12.8-197.12  c0.512-5.12,4.608-9.216,9.216-9.216l0,0c5.12,0,9.216,4.096,9.216,9.216l12.8,197.12C173.488,378.88,163.76,409.6,149.936,409.6z"/>
<path style="fill:#64798A;" d="M149.936,409.6V140.288c0,0-9.216,4.096-9.216,9.216l-12.8,197.12  C126.384,378.88,136.112,409.6,149.936,409.6L149.936,409.6"/>
<g>
	<path style="fill:#EBF0F3;" d="M178.096,192.512h-56.32c-11.776,0-20.992-9.216-20.992-20.992v-52.736h98.304v52.736   C199.088,183.296,189.872,192.512,178.096,192.512z"/>
	<path style="fill:#EBF0F3;" d="M196.016,130.56h-8.704c-2.048,0-3.072-1.536-3.072-3.072V3.072c0-2.048,1.536-3.072,3.072-3.072   h8.704c2.048,0,3.072,1.536,3.072,3.072v123.904C199.088,129.024,197.552,130.56,196.016,130.56z"/>
	<path style="fill:#EBF0F3;" d="M168.88,130.56h-8.704c-2.048,0-3.072-1.536-3.072-3.072V3.072c0-2.048,1.536-3.072,3.072-3.072   h8.704c2.048,0,3.072,1.536,3.072,3.072v123.904C171.952,129.024,170.928,130.56,168.88,130.56z"/>
	<path style="fill:#EBF0F3;" d="M140.208,130.56h-8.704c-2.048,0-3.072-1.536-3.072-3.072V3.072c0-2.048,1.536-3.072,3.072-3.072   h8.704c2.048,0,3.072,1.536,3.072,3.072v123.904C143.792,129.024,142.256,130.56,140.208,130.56z"/>
	<path style="fill:#EBF0F3;" d="M113.072,130.56h-8.704c-2.048,0-3.072-1.536-3.072-3.072V3.072c0-2.048,1.536-3.072,3.072-3.072   h8.704c2.048,0,3.072,1.536,3.072,3.072v123.904C116.144,129.024,114.608,130.56,113.072,130.56z"/>
</g>
<path style="fill:#3A556A;" d="M286.64,409.6L286.64,409.6c-13.824,0-23.552-30.72-22.016-62.976l12.8-197.12  c0.512-5.12,4.608-9.216,9.216-9.216l0,0c5.12,0,9.216,4.096,9.216,9.216l12.8,197.12C310.192,378.88,300.464,409.6,286.64,409.6z"/>
<path style="fill:#64798A;" d="M286.64,409.6V140.288c0,0-9.216,4.096-9.216,9.216l-12.8,197.12  C262.576,378.88,272.304,409.6,286.64,409.6L286.64,409.6"/>
<path style="fill:#EBF0F3;" d="M300.464,6.144v210.432c0,0-37.376-41.984-36.352-66.048c0,0-2.56-130.56,33.28-147.456  L300.464,6.144z"/>
<g>
</g>
<g>
</g>
<g>
</g>
<g>
</g>
<g>
</g>
<g>
</g>
<g>
</g>
<g>
</g>
<g>
</g>
<g>
</g>
<g>
</g>
<g>
</g>
<g>
</g>
<g>
</g>
<g>
</g>
</svg>
