<?xml version="1.0" encoding="iso-8859-1"?>
<!-- Generator: Adobe Illustrator 19.0.0, SVG Export Plug-In . SVG Version: 6.00 Build 0)  -->
<svg version="1.1" id="Capa_1" xmlns="http://www.w3.org/2000/svg" xmlns:xlink="http://www.w3.org/1999/xlink" x="0px" y="0px"
	 viewBox="0 0 512 512" style="enable-background:new 0 0 512 512;" xml:space="preserve">
<path style="fill:#787780;" d="M352.4,190.666H159.602c-8.285,0-15-6.716-15-15V111.4C144.602,49.974,194.574,0,256,0
	s111.4,49.974,111.4,111.4v64.266C367.4,183.95,360.684,190.666,352.4,190.666z M174.602,160.666H337.4V111.4
	c0-44.885-36.517-81.4-81.4-81.4s-81.398,36.516-81.398,81.4V160.666L174.602,160.666z"/>
<path style="fill:#57555C;" d="M256,0v30c44.884,0,81.4,36.516,81.4,81.4v49.266H256v30h96.4c8.283,0,15-6.716,15-15V111.4
	C367.4,49.974,317.426,0,256,0z"/>
<path style="fill:#FED42D;" d="M416.666,160.666H95.334c-8.284,0-15,6.717-15,15V497c0,8.284,6.716,15,15,15h321.332
	c8.283,0,15-6.716,15-15V175.666C431.666,167.383,424.949,160.666,416.666,160.666z"/>
<path style="fill:#FCBF29;" d="M416.666,160.666H256V512h160.666c8.283,0,15-6.716,15-15V175.666
	C431.666,167.383,424.949,160.666,416.666,160.666z"/>
<path style="fill:#787780;" d="M305.082,320.082C305.082,292.975,283.107,271,256,271s-49.082,21.975-49.082,49.082
	c0,21.875,14.313,40.399,34.082,46.739V412.4c0,8.284,6.716,15,15,15s15-6.716,15-15v-45.579
	C290.769,360.481,305.082,341.957,305.082,320.082z"/>
<path style="fill:#57555C;" d="M256,427.399c8.284,0,15-6.716,15-15V366.82c19.769-6.34,34.082-24.864,34.082-46.739
	C305.082,292.975,283.107,271,256,271V427.399z"/>
<g>
</g>
<g>
</g>
<g>
</g>
<g>
</g>
<g>
</g>
<g>
</g>
<g>
</g>
<g>
</g>
<g>
</g>
<g>
</g>
<g>
</g>
<g>
</g>
<g>
</g>
<g>
</g>
<g>
</g>
</svg>
