<svg id="color" enable-background="new 0 0 24 24" height="512" viewBox="0 0 24 24" width="512" xmlns="http://www.w3.org/2000/svg"><path d="m9.75 11c-.092 0-.184-.017-.271-.051-.29-.112-.479-.39-.479-.699v-2.25h-1.25c-.965 0-1.75-.785-1.75-1.75v-4.5c0-.965.785-1.75 1.75-1.75h8.5c.965 0 1.75.785 1.75 1.75v4.5c0 .965-.785 1.75-1.75 1.75h-3.42l-2.527 2.757c-.145.158-.347.243-.553.243z" fill="#2196f3"/><g fill="#ffcc80"><path d="m4.277 24h-3.527c-.414 0-.75-.336-.75-.75v-15.415c0-.361.257-.671.612-.737.347-.065.711-.098 1.082-.098 1.716 0 3.312.687 4.493 1.935 1.039 1.099 1.974 2.419 1.831 4.617l1.801 2.747c.118.178.181.386.181.601 0 .606-.493 1.1-1.1 1.1h-.9v2.293c0 .499-.217.971-.596 1.295s-.878.465-1.371.392l-1.006-.261v1.531c0 .414-.336.75-.75.75zm4.294-6.87h.01z"/><path d="m23.25 24h-3.527c-.414 0-.75-.336-.75-.75v-1.529l-.931.243c-.566.092-1.069-.051-1.447-.376-.378-.324-.595-.796-.595-1.295v-2.293h-.9c-.606 0-1.1-.493-1.1-1.1 0-.217.063-.426.183-.605l1.799-2.744c-.143-2.198.792-3.519 1.831-4.617 1.181-1.247 2.777-1.934 4.493-1.934.373 0 .737.033 1.083.098.354.067.611.376.611.737v15.415c0 .414-.336.75-.75.75zm-7.813-6.882-.004.005c.002-.002.003-.004.004-.005z"/></g></svg>