<?xml version="1.0" encoding="iso-8859-1"?>
<!-- Generator: Adobe Illustrator 19.0.0, SVG Export Plug-In . SVG Version: 6.00 Build 0)  -->
<svg version="1.1" id="Capa_1" xmlns="http://www.w3.org/2000/svg" xmlns:xlink="http://www.w3.org/1999/xlink" x="0px" y="0px"
	 viewBox="0 0 511.968 511.968" style="enable-background:new 0 0 511.968 511.968;" xml:space="preserve">
<path style="fill:#8BC540;" d="M254.584,363.2c0,0-8-65.376,91.376-90.72c0,0,107.392-16.672,113.392-32.688
	c0,0-26.016,54.032-35.36,117.392c0,0-25.344,100.72-100.048,76.048C249.256,408.56,254.584,363.2,254.584,363.2z"/>
<path style="fill:#7FB241;" d="M223.48,495.168c17.84-37.792,42.816-75.616,67.792-108.24
	c52.656-69.824,107.792-110.464,167.296-145.776C395.48,282.064,342.6,328.512,298.424,392.24
	c-23.376,33.168-46.176,70.8-62.16,108.48L223.48,495.168z"/>
<path style="fill:#8BC540;" d="M52.616,274.496c0,0,50.688,23.2,88.48,32.64c0,0,78.176,22.336,49.824,71.296
	c0,0-5.168,11.776-17.344,23.184c-32.352,30.304-86.48,17.968-102.08-23.52c-3.216-8.56-4.768-18.4-3.424-29.52
	C74.104,298.544,52.616,274.496,52.616,274.496z"/>
<path style="fill:#7FB241;" d="M221.976,502.352c-13.936-36.336-32.384-70.144-53.328-103.504
	c-48.56-70.624-70.4-90.384-116.032-124.352c54.896,36.912,76.256,58.416,122.864,119.712c22.784,32.672,43.36,66.352,59.44,102.976
	L221.976,502.352z"/>
<rect x="213.832" y="239.808" style="fill:#997960;" width="29.216" height="272.16"/>
<path style="fill:#F3C432;" d="M376.52,148.064c0-12.288-8.176-22.64-19.376-25.984c9.024-7.424,12.544-20.144,7.776-31.456
	c-4.56-10.832-15.344-17.12-26.448-16.528c4.736-10.064,2.976-22.416-5.328-30.72c-8.688-8.688-21.792-10.24-32.064-4.672
	c1.136-11.632-5.376-23.104-16.752-27.744c-10.88-4.432-22.96-1.264-30.384,7.008C250.184,7.488,240.2,0,228.456,0
	c-12.288,0-22.64,8.176-25.984,19.376c-7.424-9.024-20.144-12.544-31.456-7.776c-10.832,4.56-17.12,15.344-16.528,26.448
	c-10.064-4.752-22.432-2.992-30.736,5.312c-8.688,8.688-10.24,21.792-4.672,32.064c-11.632-1.12-23.104,5.376-27.744,16.752
	c-4.432,10.896-1.264,22.96,7.008,30.4c-10.464,3.76-17.968,13.728-17.968,25.488c0,12.288,8.176,22.64,19.376,25.984
	c-9.024,7.424-12.544,20.144-7.776,31.456c4.56,10.832,15.344,17.12,26.448,16.528c-4.736,10.064-2.976,22.416,5.328,30.72
	c8.688,8.688,21.792,10.24,32.064,4.672c-1.136,11.632,5.376,23.104,16.752,27.744c10.88,4.432,22.96,1.264,30.384-7.008
	c3.76,10.464,13.744,17.952,25.504,17.952c12.288,0,22.64-8.176,25.984-19.376c7.424,9.024,20.144,12.544,31.456,7.776
	c10.832-4.56,17.12-15.344,16.528-26.448c10.064,4.736,22.416,2.976,30.72-5.328c8.688-8.688,10.24-21.792,4.672-32.064
	c11.632,1.136,23.104-5.376,27.744-16.752c4.432-10.88,1.264-22.96-7.008-30.384C369.016,169.808,376.52,159.824,376.52,148.064z"/>
<circle style="fill:#FFFFFF;" cx="228.456" cy="148.064" r="69.472"/>
<circle style="fill:#E8AF2A;" cx="228.456" cy="148.064" r="47.648"/>
<g>
</g>
<g>
</g>
<g>
</g>
<g>
</g>
<g>
</g>
<g>
</g>
<g>
</g>
<g>
</g>
<g>
</g>
<g>
</g>
<g>
</g>
<g>
</g>
<g>
</g>
<g>
</g>
<g>
</g>
</svg>
