<?xml version="1.0" encoding="iso-8859-1"?>
<!-- Generator: Adobe Illustrator 19.0.0, SVG Export Plug-In . SVG Version: 6.00 Build 0)  -->
<svg xmlns="http://www.w3.org/2000/svg" xmlns:xlink="http://www.w3.org/1999/xlink" version="1.1" id="Layer_1" x="0px" y="0px" viewBox="0 0 512 512" style="enable-background:new 0 0 512 512;" xml:space="preserve">
<path style="fill:#4EC0AA;" d="M510.933,512v-71.467c-39.467-6.4-83.2-10.667-131.2-10.667C232.533,429.867,112,466.133,99.2,512  H510.933z"/>
<rect x="190.933" y="361.6" style="fill:#E8EAE9;" width="32" height="124.8"/>
<path style="fill:#F3F3F3;" d="M395.733,366.933h-377.6c-13.867,0-21.333-12.8-16-28.8L64,141.867  c2.133-7.467,11.733-12.8,20.267-12.8h244.267c8.533,0,18.133,5.333,20.267,12.8l62.933,196.267  C417.067,354.133,409.6,366.933,395.733,366.933z"/>
<g>
	<polygon style="fill:#8AD7F8;" points="212.267,148.267 213.333,187.733 268.8,187.733 263.467,148.267  "/>
	<polygon style="fill:#8AD7F8;" points="137.6,248.533 199.467,248.533 200.533,199.467 144,199.467  "/>
	<polygon style="fill:#8AD7F8;" points="280.533,187.733 336,187.733 326.4,148.267 275.2,148.267  "/>
	<polygon style="fill:#8AD7F8;" points="269.867,199.467 213.333,199.467 214.4,248.533 276.267,248.533  "/>
	<polygon style="fill:#8AD7F8;" points="121.6,262.4 57.6,262.4 41.6,325.333 112,325.333  "/>
	<polygon style="fill:#8AD7F8;" points="145.067,187.733 200.533,187.733 200.533,148.267 150.4,148.267  "/>
	<polygon style="fill:#8AD7F8;" points="356.267,262.4 292.267,262.4 301.867,325.333 372.267,325.333  "/>
	<polygon style="fill:#8AD7F8;" points="282.667,199.467 290.133,248.533 352,248.533 339.2,199.467  "/>
	<polygon style="fill:#8AD7F8;" points="277.333,262.4 214.4,262.4 214.4,325.333 285.867,325.333  "/>
	<polygon style="fill:#8AD7F8;" points="76.8,187.733 132.267,187.733 138.667,148.267 87.467,148.267  "/>
	<polygon style="fill:#8AD7F8;" points="123.733,248.533 131.2,199.467 74.667,199.467 61.867,248.533  "/>
	<polygon style="fill:#8AD7F8;" points="199.467,262.4 135.467,262.4 128,325.333 198.4,325.333  "/>
</g>
<path style="fill:#66C6B9;" d="M291.2,512c-20.267-35.2-107.733-72.533-202.667-72.533c-32,0-61.867,3.2-88.533,9.6V512H291.2z"/>
<polygon style="fill:#FFD15C;" points="512,91.733 488.533,108.8 502.4,133.333 474.667,137.6 476.8,166.4 449.067,157.867   438.4,184.533 417.067,165.333 396.8,184.533 386.133,157.867 358.4,166.4 360.533,137.6 332.8,133.333 346.667,108.8 323.2,91.733   346.667,75.733 332.8,51.2 360.533,46.933 358.4,18.133 386.133,26.667 396.8,0 417.067,19.2 438.4,0 449.067,26.667 476.8,18.133   474.667,46.933 502.4,51.2 488.533,75.733 "/>
<circle style="fill:#F7B64C;" cx="417.067" cy="91.733" r="50.133"/>
<g>
</g>
<g>
</g>
<g>
</g>
<g>
</g>
<g>
</g>
<g>
</g>
<g>
</g>
<g>
</g>
<g>
</g>
<g>
</g>
<g>
</g>
<g>
</g>
<g>
</g>
<g>
</g>
<g>
</g>
</svg>
