<?xml version="1.0" encoding="iso-8859-1"?>
<!-- Generator: Adobe Illustrator 19.0.0, SVG Export Plug-In . SVG Version: 6.00 Build 0)  -->
<svg version="1.1" id="Capa_1" xmlns="http://www.w3.org/2000/svg" xmlns:xlink="http://www.w3.org/1999/xlink" x="0px" y="0px"
	 viewBox="0 0 512 512" style="enable-background:new 0 0 512 512;" xml:space="preserve">
<path style="fill:#F3F3F3;" d="M432,0H80C61.867,0,48,13.867,48,32v448c0,18.133,13.867,32,32,32h261.333l121.6-121.6V32
	C464,13.867,449.067,0,432,0z"/>
<polygon style="fill:#E8EAE9;" points="341.333,512 464,390.4 341.333,390.4 "/>
<g>
	<rect x="102.4" y="435.2" style="fill:#CED6E0;" width="183.467" height="24.533"/>
	<rect x="102.4" y="369.067" style="fill:#CED6E0;" width="183.467" height="24.533"/>
	<rect x="102.4" y="304" style="fill:#CED6E0;" width="308.267" height="24.533"/>
	<rect x="102.4" y="238.933" style="fill:#CED6E0;" width="308.267" height="24.533"/>
</g>
<rect x="102.4" y="172.8" style="fill:#66C6B9;" width="139.733" height="24.533"/>
<g>
	<path style="fill:#F3705A;" d="M131.2,71.467c-2.133,1.067-3.2,3.2-3.2,6.4s1.067,4.267,3.2,6.4
		c2.133,1.067,7.467,3.2,14.933,5.333c7.467,2.133,13.867,5.333,18.133,8.533c4.267,4.267,6.4,9.6,6.4,17.067
		s-3.2,13.867-8.533,18.133c-5.333,4.267-12.8,7.467-22.4,7.467c-12.8,0-25.6-5.333-36.267-14.933L114.133,112
		c8.533,8.533,17.067,11.733,24.533,11.733c3.2,0,6.4-1.067,8.533-2.133s3.2-3.2,3.2-6.4c0-2.133-1.067-4.267-3.2-6.4
		c-2.133-1.067-6.4-3.2-12.8-4.267c-9.6-2.133-17.067-5.333-21.333-9.6s-6.4-9.6-6.4-18.133s3.2-13.867,8.533-19.2
		c5.333-4.267,12.8-6.4,21.333-6.4c5.333,0,10.667,1.067,17.067,3.2c5.333,2.133,10.667,4.267,14.933,8.533l-9.6,13.867
		c-7.467-5.333-14.933-8.533-22.4-8.533C135.467,69.333,133.333,70.4,131.2,71.467z"/>
	<path style="fill:#F3705A;" d="M246.4,139.733l-7.467-18.133h-35.2l-7.467,18.133H176L212.267,54.4H230.4l36.267,85.333H246.4z
		 M221.867,80L211.2,104.533h21.333L221.867,80z"/>
	<path style="fill:#F3705A;" d="M276.267,139.733V54.4h19.2v68.267h35.2v17.067H276.267z"/>
	<path style="fill:#F3705A;" d="M404.267,54.4v17.067h-41.6v17.067H400v16h-37.333v18.133h42.667v17.067h-61.867V54.4
		C343.467,54.4,404.267,54.4,404.267,54.4z"/>
</g>
<g>
</g>
<g>
</g>
<g>
</g>
<g>
</g>
<g>
</g>
<g>
</g>
<g>
</g>
<g>
</g>
<g>
</g>
<g>
</g>
<g>
</g>
<g>
</g>
<g>
</g>
<g>
</g>
<g>
</g>
</svg>
