<svg id="Layer_1" enable-background="new 0 0 65 65" height="512" viewBox="0 0 65 65" width="512" xmlns="http://www.w3.org/2000/svg"><g><path d="m54.3 22.3c0 20.1-21.8 42.2-21.8 42.2s-21.8-22.2-21.8-42.2c0-12.1 9.8-21.8 21.8-21.8 12.1 0 21.8 9.8 21.8 21.8z" fill="#f1786b"/><path d="m32.5 1.2c12 0 21.7 9.6 21.8 21.6 0-.1 0-.3 0-.4 0-12.1-9.8-21.8-21.8-21.8-12.1 0-21.8 9.8-21.8 21.8v.4c.1-12 9.8-21.6 21.8-21.6z" fill="#fc8c83"/><circle cx="32.5" cy="22.3" fill="#eff3f5" r="13.8"/><g><g><path d="m28.6 20.3v-3.5c0-2.2 1.8-3.9 3.9-3.9 2.2 0 3.9 1.8 3.9 3.9v3.5h2.4v-3.5c0-3.5-2.8-6.3-6.3-6.3s-6.3 2.8-6.3 6.3v3.5z" fill="#dbdfe0"/></g><g><path d="m24.5 19.9h16v11.8h-16z" fill="#fdc77c"/></g><g><path d="m24.5 19.9h16v.5h-16z" fill="#fbd984"/></g><g><path d="m34 28.4-.9-2.7c.4-.2.7-.6.7-1.1 0-.7-.6-1.3-1.3-1.3s-1.3.6-1.3 1.3c0 .5.3.9.7 1.1l-.9 2.7z" fill="#445c6c"/></g></g></g></svg>