<?xml version="1.0" encoding="iso-8859-1"?>
<!-- Generator: Adobe Illustrator 19.0.0, SVG Export Plug-In . SVG Version: 6.00 Build 0)  -->
<svg version="1.1" id="Capa_1" xmlns="http://www.w3.org/2000/svg" xmlns:xlink="http://www.w3.org/1999/xlink" x="0px" y="0px"
	 viewBox="0 0 512 512" style="enable-background:new 0 0 512 512;" xml:space="preserve">
<path style="fill:#455A64;" d="M496,288.008h-96c-8.832,0-16,7.168-16,16v64c0,8.832,7.168,16,16,16h96c8.832,0,16-7.168,16-16v-64
	C512,295.176,504.832,288.008,496,288.008z"/>
<g>
	<path style="fill:#CFD8DC;" d="M320,224.008c-4.416,0-8.8-1.824-11.968-5.376c-5.888-6.592-5.248-16.704,1.344-22.592
		c0.416-0.48,7.52-8.928-3.328-28.192c-24.032-42.752,2.208-66.784,3.328-67.808c6.56-5.888,16.704-5.312,22.592,1.344
		c5.76,6.464,5.28,16.288-0.928,22.208c-1.056,1.184-7.712,9.664,2.912,28.576c24.064,42.752-2.176,66.784-3.328,67.808
		C327.584,222.664,323.776,224.008,320,224.008z"/>
	<path style="fill:#CFD8DC;" d="M208,192.008c-4.416,0-8.8-1.824-11.968-5.376c-5.856-6.592-5.28-16.704,1.344-22.592
		c0.384-0.48,7.52-8.928-3.328-28.192c-24.032-42.752,2.176-66.784,3.328-67.808c6.56-5.888,16.704-5.28,22.592,1.344
		c5.76,6.464,5.312,16.288-0.928,22.208c-1.056,1.184-7.712,9.664,2.912,28.576c24.032,42.752-2.176,66.784-3.328,67.808
		C215.584,190.664,211.776,192.008,208,192.008z"/>
	<path style="fill:#CFD8DC;" d="M96,224.008c-4.416,0-8.8-1.824-11.968-5.376c-5.856-6.592-5.28-16.704,1.344-22.592
		c0.384-0.48,7.52-8.928-3.328-28.192c-24.032-42.752,2.176-66.784,3.328-67.808c6.592-5.888,16.672-5.312,22.592,1.344
		c5.76,6.464,5.312,16.288-0.928,22.208c-1.056,1.184-7.712,9.664,2.912,28.576c24.032,42.752-2.176,66.784-3.328,67.808
		C103.584,222.664,99.776,224.008,96,224.008z"/>
</g>
<path style="fill:#607D8B;" d="M400,288.008H16c-8.832,0-16,7.168-16,16v64c0,44.128,35.904,80,80,80h256c44.128,0,80-35.872,80-80
	v-64C416,295.176,408.832,288.008,400,288.008z"/>
<g>
</g>
<g>
</g>
<g>
</g>
<g>
</g>
<g>
</g>
<g>
</g>
<g>
</g>
<g>
</g>
<g>
</g>
<g>
</g>
<g>
</g>
<g>
</g>
<g>
</g>
<g>
</g>
<g>
</g>
</svg>
