<svg id="Capa_1" enable-background="new 0 0 422.543 422.543" height="512" viewBox="0 0 422.543 422.543" width="512" xmlns="http://www.w3.org/2000/svg"><g><g><circle cx="211.372" cy="211.271" fill="#ebf0f3" r="128.56"/><path d="m422.543 237.262v-51.883l-48.241-5.688c-4.266-21.941-12.92-42.795-25.442-61.312l29.933-38.064-36.667-36.767-38.114 30.232c-18.536-12.521-39.405-21.174-61.362-25.442l-5.338-48.241h-51.883l-5.588 48.241c-21.954 4.278-42.822 12.93-61.36 25.442l-38.064-30.231-36.666 36.768 29.933 38.064c-12.528 18.506-21.167 39.365-25.392 61.312l-48.292 5.686v51.883l48.291 5.588c4.216 21.963 12.855 42.841 25.392 61.362l-29.933 38.013 36.667 36.767 38.064-30.231c18.509 12.559 39.39 21.199 61.36 25.392l5.588 48.291h51.883l5.588-48.291c21.973-4.185 42.856-12.827 61.36-25.392l38.114 30.231 36.667-36.767-29.933-38.014c12.532-18.528 21.188-39.4 25.442-61.362zm-211.171 85.755c-61.689 0-111.697-50.009-111.697-111.697 0-61.689 50.009-111.697 111.697-111.697 61.669 0 111.67 49.978 111.697 111.647.028 61.689-49.959 111.72-111.647 111.747-.018 0-.034 0-.05 0z" fill="#3a556a"/><path d="m211.372 82.711c-71.001 0-128.56 57.558-128.56 128.56s57.558 128.56 128.56 128.56 128.56-57.558 128.56-128.56c-.002-71.002-57.559-128.56-128.56-128.56zm0 240.306c-61.689 0-111.697-50.009-111.697-111.697 0-61.689 50.009-111.697 111.697-111.697 61.669 0 111.67 49.978 111.697 111.647.028 61.689-49.959 111.72-111.647 111.747-.018 0-.034 0-.05 0z" fill="#2f4859"/><path d="m224.142 128.806-60.313 91.892 51.433 9.729-15.763 62.607 64.603-90.444-52.73-7.034z" fill="#f7be56"/></g></g></svg>