<svg id="Layer_1" enable-background="new 0 0 65 65" height="512" viewBox="0 0 65 65" width="512" xmlns="http://www.w3.org/2000/svg"><g><path d="m64.5 20.1c0 10.8-19.6 40-19.6 40s-19.6-29.2-19.6-40 8.8-19.6 19.6-19.6 19.6 8.8 19.6 19.6z" fill="#f1786b"/><path d="m44.9 2.1c10.5 0 19.1 8.3 19.6 18.8 0-.3 0-.5 0-.8 0-10.8-8.8-19.6-19.6-19.6s-19.6 8.8-19.6 19.6v.8c.5-10.5 9.1-18.8 19.6-18.8z" fill="#f98980"/><circle cx="44.9" cy="20.1" fill="#eff3f5" r="12.3"/><g fill="#5ac8ae"><circle cx="15.6" cy="36.6" r="7.4"/><path d="m15.6 64.5c5.9 0 11.3-2.5 15.1-6.4-1.3-7.1-7.6-12.5-15.1-12.5s-13.8 5.4-15.1 12.5c3.8 3.9 9.1 6.4 15.1 6.4z"/></g></g></svg>