<?xml version="1.0" encoding="iso-8859-1"?>
<!-- Generator: Adobe Illustrator 19.0.0, SVG Export Plug-In . SVG Version: 6.00 Build 0)  -->
<svg version="1.1" id="Layer_1" xmlns="http://www.w3.org/2000/svg" xmlns:xlink="http://www.w3.org/1999/xlink" x="0px" y="0px"
	 viewBox="0 0 508 508" style="enable-background:new 0 0 508 508;" xml:space="preserve">
<g>
	<rect y="0.037" style="fill:#334A5E;" width="32.5" height="240"/>
	<rect x="48.3" y="0.037" style="fill:#334A5E;" width="16.3" height="194.8"/>
	<rect x="81" y="0.037" style="fill:#334A5E;" width="16.3" height="194.8"/>
	<path style="fill:#334A5E;" d="M212.9,0.037v118.2c-11.5,3.6-22.4,8.7-32.5,15V0.037H212.9z"/>
	<path style="fill:#334A5E;" d="M130,0.037v185.7c-1.7,3-3.3,6-4.8,9.1h-11.5V0.037H130z"/>
	<path style="fill:#334A5E;" d="M162.8,0.037v146c-5.8,4.9-11.3,10.4-16.3,16.2V0.037H162.8z"/>
	<path style="fill:#334A5E;" d="M393.2,0.037v201.2c-7.6-18.1-18.7-34.4-32.6-48V0.037H393.2z"/>
	<path style="fill:#334A5E;" d="M244.8,0.037v111.8c-5.5,0.4-10.9,1.2-16.3,2.2v-114H244.8z"/>
	<path style="fill:#334A5E;" d="M277.6,0.037v112.5c-5.3-0.7-10.8-1.2-16.3-1.3V0.037H277.6z"/>
	<path style="fill:#334A5E;" d="M310.3,0.037v120.9c-5.3-2-10.7-3.8-16.3-5.2V0.037H310.3z"/>
	<path style="fill:#334A5E;" d="M343,0.037v138.4c-5.2-3.7-10.6-7-16.2-10.1V0.037H343z"/>
	<rect x="475.5" y="0.037" style="fill:#334A5E;" width="32.5" height="240"/>
	<rect x="408.9" y="0.037" style="fill:#334A5E;" width="16.3" height="194.8"/>
	<rect x="441.6" y="0.037" style="fill:#334A5E;" width="16.3" height="194.8"/>
</g>
<ellipse style="fill:#84DBFF;" cx="257.8" cy="258.138" rx="146.8" ry="147"/>
<path style="fill:#FFFFFF;" d="M257.8,155.237c-56.7,0-102.8,46.2-102.8,103s46.1,103,102.8,103s102.8-46.2,102.8-103
	C360.6,201.437,314.5,155.237,257.8,155.237z"/>
<path style="fill:#4CDBC4;" d="M495.4,438.638l-66.5-66.6c-15.9-15.9-41.6-15.9-57.4,0c-15.9,15.9-15.9,41.6,0,57.5l66.4,66.5
	c15.9,15.9,41.6,15.9,57.4,0C511.2,480.237,511.2,454.438,495.4,438.638z"/>
<path style="fill:#3DC9AE;" d="M371.5,372.037L371.5,372.037c4.3-4.3,9.3-7.4,14.6-9.3l-13.3-13.3c-7,8.9-15.1,16.9-23.9,24
	l13.3,13.3C364.1,381.337,367.2,376.337,371.5,372.037z"/>
<g>
</g>
<g>
</g>
<g>
</g>
<g>
</g>
<g>
</g>
<g>
</g>
<g>
</g>
<g>
</g>
<g>
</g>
<g>
</g>
<g>
</g>
<g>
</g>
<g>
</g>
<g>
</g>
<g>
</g>
</svg>
