<svg id="color" enable-background="new 0 0 24 24" height="512" viewBox="0 0 24 24" width="512" xmlns="http://www.w3.org/2000/svg"><path d="m4.277 24h-3.527c-.414 0-.75-.336-.75-.75v-15.415c0-.361.257-.671.612-.737.347-.065.711-.098 1.082-.098 1.716 0 3.312.687 4.493 1.935 1.039 1.099 1.974 2.419 1.831 4.617l1.801 2.747c.118.178.181.386.181.601 0 .606-.493 1.1-1.1 1.1h-.9v2.293c0 .499-.217.971-.596 1.295s-.878.465-1.371.392l-1.006-.261v1.531c0 .414-.336.75-.75.75zm4.294-6.87h.01z" fill="#ffcc80"/><path d="m23.25 24h-3.527c-.414 0-.75-.336-.75-.75v-1.529l-.931.243c-.566.092-1.069-.051-1.447-.376-.378-.324-.595-.796-.595-1.295v-2.293h-.9c-.606 0-1.1-.493-1.1-1.1 0-.217.063-.426.183-.605l1.799-2.744c-.143-2.198.792-3.519 1.831-4.617 1.181-1.247 2.777-1.934 4.493-1.934.373 0 .737.033 1.083.098.354.067.611.376.611.737v15.415c0 .414-.336.75-.75.75zm-7.813-6.882-.004.005c.002-.002.003-.004.004-.005z" fill="#ffcc80"/><path d="m14.04 10.17v.72c0 .61-.5 1.11-1.12 1.11h-1.84c-.54 0-1.12-.4-1.12-1.29v-.54z" fill="#607d8b"/><path d="m16.5 4.47c0 1.35-.6 2.61-1.65 3.46-.42.34-.69.78-.78 1.24-.02.11-.03.23-.03.34v.66h-4.08v-.76c0-.08-.01-.16-.02-.24-.07-.45-.32-.87-.73-1.19-1.11-.87-1.74-2.18-1.71-3.6.05-2.38 2.04-4.35 4.43-4.38 1.21-.03 2.37.44 3.24 1.3.86.84 1.33 1.97 1.33 3.17z" fill="#ffc107"/></svg>