<?xml version="1.0" encoding="iso-8859-1"?>
<!-- Generator: Adobe Illustrator 19.0.0, SVG Export Plug-In . SVG Version: 6.00 Build 0)  -->
<svg version="1.1" id="Capa_1" xmlns="http://www.w3.org/2000/svg" xmlns:xlink="http://www.w3.org/1999/xlink" x="0px" y="0px"
	 viewBox="0 0 468.293 468.293" style="enable-background:new 0 0 468.293 468.293;" xml:space="preserve">
<path style="fill:#3B566A;" d="M105.765,62.115l14.918,14.918C195.281,2.436,316.661,2.44,391.259,77.038
	s74.597,195.974-0.001,270.571l14.918,14.918c82.822-82.821,82.822-217.586,0.001-300.407
	C323.352-20.705,188.586-20.706,105.765,62.115z"/>
<path style="fill:#D4D5DB;" d="M415.169,408.311c10.299-10.299,10.299-26.997,0-37.295l-63.374-63.374
	c-10.298-10.299-26.996-10.299-37.295,0l-12.686,12.686l100.669,100.669L415.169,408.311z"/>
<path style="fill:#E56354;" d="M265.763,326.543L141.749,202.529c-8.239-8.239-8.239-21.597,0-29.836l6.216-6.216L47.297,65.809
	L15.448,97.657c-20.598,20.597-20.598,53.993,0,74.59l280.596,280.597c20.597,20.598,53.993,20.598,74.59,0l31.849-31.849
	L301.815,320.327l-6.216,6.216C287.36,334.782,274.002,334.782,265.763,326.543z"/>
<path style="fill:#D4D5DB;" d="M160.651,153.792c10.299-10.299,10.299-26.997,0-37.295L97.278,53.123
	c-10.299-10.299-26.996-10.299-37.295,0L47.297,65.809l100.668,100.668L160.651,153.792z"/>
<g>
	<path style="fill:#647989;" d="M254.166,156.077c3.061-4.168,4.578-8.41,4.578-12.69s-1.63-7.913-4.889-10.923
		c-3.26-3.011-7.39-4.516-12.379-4.516c-8.771,0-16.049,4.491-21.859,13.461l-14.531-8.41c4.69-7.029,9.866-12.329,15.527-15.9
		c5.648-3.571,12.939-5.35,21.859-5.35c8.92,0,16.733,2.824,23.464,8.485c6.731,5.648,10.09,13.374,10.09,23.153
		c0,5.511-1.431,10.762-4.28,15.75c-2.849,5.001-8.099,11.421-15.75,19.259l-25.069,25.529l48.458,0v17.281l-73.067,0l0-15.29
		l32.409-32.558C245.954,166.017,251.105,160.257,254.166,156.077z"/>
	<path style="fill:#647989;" d="M339.001,177.936v-19.557l17.119,0v19.557l12.852,0v16.36l-12.852,0l0,26.91l-17.119,0v-26.91
		l-45.858,0v-15.9l39.289-64.047l19.719,0l-38.679,63.586L339.001,177.936z"/>
</g>
<g>
</g>
<g>
</g>
<g>
</g>
<g>
</g>
<g>
</g>
<g>
</g>
<g>
</g>
<g>
</g>
<g>
</g>
<g>
</g>
<g>
</g>
<g>
</g>
<g>
</g>
<g>
</g>
<g>
</g>
</svg>
