<?xml version="1.0" encoding="iso-8859-1"?>
<!-- Generator: Adobe Illustrator 19.0.0, SVG Export Plug-In . SVG Version: 6.00 Build 0)  -->
<svg version="1.1" id="Capa_1" xmlns="http://www.w3.org/2000/svg" xmlns:xlink="http://www.w3.org/1999/xlink" x="0px" y="0px"
	 viewBox="0 0 512 512" style="enable-background:new 0 0 512 512;" xml:space="preserve">
<path style="fill:#6F7070;" d="M512,122.336V41.28C512,18.48,493.52,0,470.72,0H41.28C18.48,0,0,18.48,0,41.28v81.056H512z"/>
<path style="fill:#E5E5E5;" d="M0,470.72C0,493.52,18.48,512,41.28,512h429.44c22.8,0,41.28-18.48,41.28-41.28V122.336H0V470.72z"/>
<circle style="fill:#8BD5EC;" cx="56.128" cy="61.168" r="24.496"/>
<circle style="fill:#FFCC5B;" cx="127.904" cy="61.168" r="24.496"/>
<circle style="fill:#F89E62;" cx="199.696" cy="61.168" r="24.496"/>
<path style="fill:#F3F3F3;" d="M175.296,482.832c0-16.112-13.056-29.168-29.168-29.168h-39.024c-13.488,0-24.464-11.04-24.4-24.528
	v-0.32c0-0.592-0.016-1.2-0.048-1.776c-0.816-13.296,9.744-24.512,23.072-24.512h51.696c15.792,0,29.952-11.824,30.784-27.6
	c0.88-16.816-12.496-30.736-29.136-30.736h-15.984c-13.568,0-24.528-11.04-24.448-24.592l0.016-1.696v-0.352
	c-0.08-14.272,11.52-25.936,25.792-25.936h20.656c15.792,0,29.952-11.824,30.784-27.6c0.88-16.832-12.496-30.736-29.136-30.736
	h-74.56c-14.096,0-24.608-11.84-24.448-25.936c0-0.112,0-0.24,0-0.352s0-0.24,0-0.352c-0.16-14.096,10.352-25.936,24.448-25.936
	h24.112c15.792,0,29.952-11.824,30.784-27.6c0.864-16.848-12.528-30.768-29.152-30.768H0V470.72C0,493.52,18.48,512,41.28,512
	h104.848C162.24,512,175.296,498.944,175.296,482.832z"/>
<g>
	<path style="fill:#676767;" d="M405.392,45.456H284.688c-8.672,0-15.712,7.024-15.712,15.712s7.04,15.712,15.712,15.712h120.704
		c8.672,0,15.712-7.024,15.712-15.712S414.064,45.456,405.392,45.456z"/>
	<path style="fill:#676767;" d="M462.832,45.456h-17.968c-8.672,0-15.712,7.024-15.712,15.712s7.04,15.712,15.712,15.712h17.968
		c8.672,0,15.712-7.024,15.712-15.712S471.504,45.456,462.832,45.456z"/>
</g>
<g>
	<path style="fill:#CACACA;" d="M444.48,176.368H314.272c-8.672,0-15.712,7.024-15.712,15.712s7.04,15.712,15.712,15.712H444.48
		c8.672,0,15.712-7.024,15.712-15.712C460.192,183.392,453.152,176.368,444.48,176.368z"/>
	<path style="fill:#CACACA;" d="M444.48,259.76H314.272c-8.672,0-15.712,7.024-15.712,15.712c0,8.688,7.04,15.712,15.712,15.712
		H444.48c8.672,0,15.712-7.024,15.712-15.712C460.192,266.784,453.152,259.76,444.48,259.76z"/>
	<path style="fill:#CACACA;" d="M446,343.152H57.456c-8.672,0-15.712,7.024-15.712,15.712c0,8.688,7.04,15.712,15.712,15.712
		h388.528c8.672,0,15.712-7.024,15.712-15.712C461.696,350.192,454.672,343.152,446,343.152z"/>
	<path style="fill:#CACACA;" d="M446,426.56H57.456c-8.672,0-15.712,7.024-15.712,15.712c0,8.688,7.04,15.712,15.712,15.712h388.528
		c8.672,0,15.712-7.024,15.712-15.712C461.696,433.584,454.672,426.56,446,426.56z"/>
</g>
<path style="fill:#E95454;" d="M235.008,212.496c0,56.528-96.576,117.968-96.576,117.968S41.76,269.008,41.76,212.496
	c0-30.096,24.304-54.384,54.288-54.384c17.28,0,32.432,8.128,42.384,20.64c9.968-12.512,25.104-20.64,42.288-20.64
	C210.704,158.096,235.008,182.4,235.008,212.496z"/>
<path style="fill:#EC6A69;" d="M147.52,310.72c0.512-9.856-7.328-18.016-17.072-18.016h-9.36c-7.936,0-14.368-6.464-14.32-14.416
	v-0.992v-0.208c-0.048-8.352,6.752-15.2,15.104-15.2h12.096c9.248,0,17.552-6.928,18.032-16.176c0.512-9.856-7.328-18-17.056-18
	h-43.68c-8.256,0-14.416-6.928-14.32-15.2c0-0.064,0-0.128,0-0.208s0-0.144,0-0.208c-0.096-8.256,6.064-15.2,14.32-15.2h14.128
	c9.248,0,17.552-6.928,18.032-16.176c0.512-9.856-7.328-18-17.072-18h-32.16c-19.088,8.416-32.432,27.456-32.432,49.728
	c0,48.016,69.568,99.424,90.576,113.872C140.336,325.088,147.088,318.976,147.52,310.72z"/>
<g>
</g>
<g>
</g>
<g>
</g>
<g>
</g>
<g>
</g>
<g>
</g>
<g>
</g>
<g>
</g>
<g>
</g>
<g>
</g>
<g>
</g>
<g>
</g>
<g>
</g>
<g>
</g>
<g>
</g>
</svg>
