<?xml version="1.0" encoding="iso-8859-1"?>
<!-- Generator: Adobe Illustrator 19.0.0, SVG Export Plug-In . SVG Version: 6.00 Build 0)  -->
<svg version="1.1" id="Capa_1" xmlns="http://www.w3.org/2000/svg" xmlns:xlink="http://www.w3.org/1999/xlink" x="0px" y="0px"
	 viewBox="0 0 485.984 485.984" style="enable-background:new 0 0 485.984 485.984;" xml:space="preserve">
<path style="fill:#7FB241;" d="M82.592,220.544c0,0,18.384-31.008-26.416-90.736c0,0,43.648,14.928,62.016,56.272
	c0,0,8.032-56.272-31.008-107.968c0,0,26.416,5.744,47.088,34.448c0,0,39.056-94.176,95.328-112.56
	c0,0-70.064,112.56-40.192,220.512H82.592V220.544z"/>
<path style="fill:#8BC540;" d="M189.776,220.544c0,0,47.088-84.992-28.72-209.04c0,0,80.4,14.928,95.328,172.272
	c0,0,20.672-47.088-12.64-142.416c0,0,43.648,19.52,58.576,68.912c0,0,18.384-73.504,86.144-110.256c0,0-51.68,81.552-44.8,160.8
	c0,0,17.232-39.056,58.576-59.728c0,0-29.856,42.496-26.416,90.736c0,0-4.592-29.856,53.984-60.88c0,0-31.008,56.272-22.976,89.584
	H189.776V220.544z"/>
<path style="fill:#997960;" d="M438.448,409.184c-0.8,4.8-1.6,9.76-2.56,14.72c-2.4,12.64-5.6,25.28-9.44,37.6
	c-4.64,14.56-18.4,24.48-33.76,24.48H93.328c-15.36,0-29.12-9.92-33.76-24.48c-3.84-12.32-7.04-24.96-9.6-37.6
	c-0.96-4.96-1.76-9.92-2.56-14.72c-4.32-28.8-5.12-57.92-2.24-86.72c0.32-4.16,0.8-8.16,1.44-12.32
	c1.92-14.24,4.64-28.32,8.32-42.24h376.16c3.68,13.92,6.4,28,8.16,42.24c0.64,4.16,1.12,8.16,1.44,12.32
	C443.568,351.264,442.768,380.384,438.448,409.184z"/>
<g>
	<path style="fill:#8E6D53;" d="M440.752,322.496l-46.24,26.56l-50.4-28.96l-50.56,28.96l-50.56-28.96l-50.4,28.96l-50.56-28.96
		l-50.56,28.96l-46.24-26.56c0.32-4.16,0.8-8.16,1.44-12.32l44.8,25.6l50.56-28.96l50.56,28.96l50.4-28.96l50.56,28.96l50.56-28.96
		l50.4,28.96l44.8-25.6C439.952,314.336,440.432,318.336,440.752,322.496z"/>
	<path style="fill:#8E6D53;" d="M438.512,409.216c-0.8,4.8-1.6,9.76-2.56,14.72l-41.44,23.68l-50.4-28.96l-50.56,28.96l-50.56-28.96
		l-50.4,28.96l-50.56-28.96l-50.56,28.96l-41.44-23.68c-0.96-4.96-1.76-9.92-2.56-14.72l44,25.12l50.56-28.96l50.56,28.96
		l50.4-28.96l50.56,28.96l50.56-28.96l50.4,28.96L438.512,409.216z"/>
</g>
<path style="fill:#A5856D;" d="M458.992,245.504c0,13.92-11.04,25.12-24.96,25.12H52.112c-13.92,0-25.12-11.2-25.12-25.12
	c0-13.76,11.2-24.96,25.12-24.96h381.92C447.952,220.544,458.992,231.744,458.992,245.504z"/>
<g>
</g>
<g>
</g>
<g>
</g>
<g>
</g>
<g>
</g>
<g>
</g>
<g>
</g>
<g>
</g>
<g>
</g>
<g>
</g>
<g>
</g>
<g>
</g>
<g>
</g>
<g>
</g>
<g>
</g>
</svg>
