<?xml version="1.0" encoding="iso-8859-1"?>
<!-- Generator: Adobe Illustrator 19.0.0, SVG Export Plug-In . SVG Version: 6.00 Build 0)  -->
<svg version="1.1" id="Capa_1" xmlns="http://www.w3.org/2000/svg" xmlns:xlink="http://www.w3.org/1999/xlink" x="0px" y="0px"
	 viewBox="0 0 468.293 468.293" style="enable-background:new 0 0 468.293 468.293;" xml:space="preserve">
<path style="fill:#E1E6E9;" d="M312.248,154.71H156.045c-3.934,0-6.551,4.066-4.92,7.648l12.736,27.96V441.26
	c0,14.929,12.103,27.033,27.033,27.033h86.506c14.93,0,27.033-12.104,27.033-27.033V190.318l12.736-27.96
	C318.799,158.776,316.182,154.71,312.248,154.71z"/>
<path style="fill:#3EA69B;" d="M234.147,362.341c-5.174,0-9.366-4.195-9.366-9.366V49.878c0-5.171,4.192-9.366,9.366-9.366
	s9.366,4.195,9.366,9.366v303.098C243.513,358.146,239.321,362.341,234.147,362.341z"/>
<g>
	<path style="fill:#44C4A1;" d="M226.324,129.928c-41.804,0-75.692-33.888-75.692-75.691
		C192.436,54.236,226.324,88.125,226.324,129.928z"/>
	<path style="fill:#44C4A1;" d="M224.782,54.065c-29.86,0-54.066-24.206-54.066-54.065C200.575,0,224.782,24.206,224.782,54.065z"/>
	<path style="fill:#44C4A1;" d="M241.968,129.928c41.804,0,75.692-33.888,75.692-75.691
		C275.857,54.236,241.968,88.125,241.968,129.928z"/>
	<path style="fill:#44C4A1;" d="M243.513,54.065c29.86,0,54.066-24.206,54.066-54.065C267.719,0,243.513,24.206,243.513,54.065z"/>
</g>
<path style="fill:#27A2DB;" d="M176.349,323.71v117.552c0,8.018,6.524,14.543,14.546,14.543H277.4
	c8.018,0,14.543-6.524,14.543-14.543V255.027L176.349,323.71z"/>
<g>
	<circle style="fill:#2D93BA;" cx="256" cy="349.846" r="12.488"/>
	<circle style="fill:#2D93BA;" cx="203.739" cy="352.25" r="12.488"/>
	<circle style="fill:#2D93BA;" cx="203.739" cy="424.648" r="12.488"/>
	<circle style="fill:#2D93BA;" cx="234.146" cy="390.993" r="12.488"/>
	<circle style="fill:#2D93BA;" cx="265.285" cy="424.648" r="12.488"/>
</g>
<g>
</g>
<g>
</g>
<g>
</g>
<g>
</g>
<g>
</g>
<g>
</g>
<g>
</g>
<g>
</g>
<g>
</g>
<g>
</g>
<g>
</g>
<g>
</g>
<g>
</g>
<g>
</g>
<g>
</g>
</svg>
