<?xml version="1.0" encoding="iso-8859-1"?>
<!-- Generator: Adobe Illustrator 19.0.0, SVG Export Plug-In . SVG Version: 6.00 Build 0)  -->
<svg xmlns="http://www.w3.org/2000/svg" xmlns:xlink="http://www.w3.org/1999/xlink" version="1.1" id="Layer_1" x="0px" y="0px" viewBox="0 0 512.18 512.18" style="enable-background:new 0 0 512.18 512.18;" xml:space="preserve">
<path style="fill:#E8EAE9;" d="M346.925,399.114c6.4-33.067,22.4-62.933,44.8-88.533c30.933-33.067,49.067-76.8,49.067-125.867  c1.067-108.8-93.867-196.267-205.867-183.467c-87.467,9.6-157.867,83.2-163.2,171.733c-3.2,54.4,16,103.467,50.133,139.733  c22.4,24.533,37.333,54.4,43.733,86.4H346.925z"/>
<path style="fill:#344A5E;" d="M165.592,428.98v61.867c0,11.733,9.6,21.333,21.333,21.333h139.733  c11.733,0,21.333-9.6,21.333-21.333V428.98H165.592z"/>
<g>
	<path style="fill:#415A6B;" d="M346.925,431.114H165.592c-9.6,0-18.133-8.533-18.133-18.133l0,0c0-9.6,8.533-18.133,18.133-18.133   h181.333c9.6,0,18.133,8.533,18.133,18.133l0,0C365.059,423.647,356.525,431.114,346.925,431.114z"/>
	<path style="fill:#415A6B;" d="M346.925,489.78H165.592c-9.6,0-18.133-8.533-18.133-18.133l0,0c0-9.6,8.533-18.133,18.133-18.133   h181.333c9.6,0,18.133,8.533,18.133,18.133l0,0C365.059,481.247,356.525,489.78,346.925,489.78z"/>
</g>
<path style="fill:#66C6B9;" d="M281.858,313.78c128-100.267-45.867-180.267-73.6-233.6  C209.325,168.714,120.792,272.18,281.858,313.78z"/>
<g>
	<path style="fill:#415A6B;" d="M259.458,255.114c12.8-23.467,22.4-46.933,23.467-69.333c1.067,22.4-4.267,46.933-14.933,71.467   C265.858,256.18,262.658,256.18,259.458,255.114z"/>
	<path style="fill:#415A6B;" d="M207.192,176.18c9.6,18.133,24.533,35.2,45.867,52.267v-8.533   C232.792,204.98,217.858,191.114,207.192,176.18z"/>
	<path style="fill:#415A6B;" d="M241.325,182.58c1.067,3.2,2.133,6.4,3.2,9.6c4.267-20.267,3.2-39.467,1.067-58.667   C245.592,150.58,245.592,166.58,241.325,182.58z"/>
	<path style="fill:#415A6B;" d="M290.392,347.914c-17.067-106.667-59.733-190.933-59.733-190.933s30.933,81.067,39.467,190.933   H290.392z"/>
</g>
<g>
</g>
<g>
</g>
<g>
</g>
<g>
</g>
<g>
</g>
<g>
</g>
<g>
</g>
<g>
</g>
<g>
</g>
<g>
</g>
<g>
</g>
<g>
</g>
<g>
</g>
<g>
</g>
<g>
</g>
</svg>
