<?xml version="1.0" encoding="iso-8859-1"?>
<!-- Generator: Adobe Illustrator 19.0.0, SVG Export Plug-In . SVG Version: 6.00 Build 0)  -->
<svg version="1.1" id="Capa_1" xmlns="http://www.w3.org/2000/svg" xmlns:xlink="http://www.w3.org/1999/xlink" x="0px" y="0px"
	 viewBox="0 0 511.926 511.926" style="enable-background:new 0 0 511.926 511.926;" xml:space="preserve">
<path style="fill:#ECEFF1;" d="M418.671,58.294C359.407,9.462,281.455-10.026,204.719,4.918
	C104.623,24.342,24.335,104.63,4.911,204.726c-14.912,76.704,4.544,154.688,53.376,213.952
	c48.864,59.264,120.896,93.248,197.632,93.248c44.704,0,81.856-33.568,86.272-78.08l3.872-38.752
	c2.592-25.824,23.2-46.4,48.992-48.992l38.752-3.872c44.544-4.448,78.112-41.6,78.112-86.304
	C511.919,179.19,477.935,107.158,418.671,58.294z"/>
<circle style="fill:#FFC107;" cx="223.919" cy="223.926" r="96"/>
<path style="fill:#FFECB3;" d="M191.919,239.926c-8.832,0-16-7.168-16-16c0-26.464,21.536-48,48-48c8.832,0,16,7.168,16,16
	s-7.168,16-16,16s-16,7.168-16,16S200.751,239.926,191.919,239.926z"/>
<g>
</g>
<g>
</g>
<g>
</g>
<g>
</g>
<g>
</g>
<g>
</g>
<g>
</g>
<g>
</g>
<g>
</g>
<g>
</g>
<g>
</g>
<g>
</g>
<g>
</g>
<g>
</g>
<g>
</g>
</svg>
