<?xml version="1.0" encoding="iso-8859-1"?>
<!-- Generator: Adobe Illustrator 19.0.0, SVG Export Plug-In . SVG Version: 6.00 Build 0)  -->
<svg version="1.1" id="Capa_1" xmlns="http://www.w3.org/2000/svg" xmlns:xlink="http://www.w3.org/1999/xlink" x="0px" y="0px"
	 viewBox="0 0 468.293 468.293" style="enable-background:new 0 0 468.293 468.293;" xml:space="preserve">
<path style="fill:#EBF0F3;" d="M134.422,0L59.317,75.104v374.457c0,10.345,8.386,18.732,18.732,18.732h312.196
	c10.345,0,18.732-8.386,18.732-18.732V18.732C408.976,8.386,400.59,0,390.245,0C390.245,0,134.422,0,134.422,0z"/>
<polygon style="fill:#D5D6DB;" points="134.421,75.104 134.421,0 59.316,75.104 "/>
<path style="fill:#44C4A1;" d="M252.718,433.587l-17.161-19.613c-0.746-0.853-2.073-0.853-2.819,0l-17.161,19.613
	c-1.139,1.302-3.283,0.496-3.283-1.233v-90.76H256v90.76C256,434.084,253.856,434.889,252.718,433.587z"/>
<path style="fill:#E56353;" d="M255.628,349.176l-4.313,5.735c-9.443,12.556-24.895,12.556-34.337,0l-4.314-5.736l-3.192-1.322
	l-7.106,1.006c-15.555,2.201-26.481-8.725-24.28-24.28l1.006-7.106l-1.322-3.192l-5.736-4.314c-12.556-9.443-12.556-24.894,0-34.337
	l5.736-4.314l1.322-3.192l-1.006-7.106c-2.202-15.555,8.724-26.482,24.28-24.281l7.106,1.005l3.192-1.322l4.314-5.736
	c9.443-12.556,24.894-12.556,34.337,0l4.313,5.735l3.192,1.322l7.107-1.006c15.555-2.201,26.481,8.725,24.28,24.28l-1.005,7.106
	l1.322,3.192l5.736,4.314c12.556,9.443,12.556,24.894,0.001,34.337l-5.735,4.313l-1.322,3.192l1.006,7.106
	c2.202,15.555-8.724,26.482-24.28,24.281l-7.105-1.005"/>
<circle style="fill:#EBF0F3;" cx="234.146" cy="292.777" r="51.025"/>
<g>
	<rect x="140.488" y="183.808" style="fill:#D5D6DB;" width="187.317" height="12.488"/>
	<rect x="140.488" y="146.345" style="fill:#D5D6DB;" width="187.317" height="12.488"/>
	<rect x="140.488" y="108.881" style="fill:#D5D6DB;" width="187.317" height="12.488"/>
</g>
<g>
</g>
<g>
</g>
<g>
</g>
<g>
</g>
<g>
</g>
<g>
</g>
<g>
</g>
<g>
</g>
<g>
</g>
<g>
</g>
<g>
</g>
<g>
</g>
<g>
</g>
<g>
</g>
<g>
</g>
</svg>
