<svg enable-background="new 0 0 24 24" height="512" viewBox="0 0 24 24" width="512" xmlns="http://www.w3.org/2000/svg"><path d="m21 1h-18c-1.654 0-3 1.346-3 3v16c0 1.654 1.346 3 3 3h18c1.654 0 3-1.346 3-3v-16c0-1.654-1.346-3-3-3z" fill="#607d8b"/><path d="m21 21h-18c-.551 0-1-.448-1-1v-14h20v14c0 .552-.449 1-1 1z" fill="#fafafa"/><path d="m19 10.75v.45l-6.31 3.29c-.43.22-.95.22-1.38 0l-6.31-3.29v-.45c0-.96.79-1.75 1.75-1.75h10.5c.96 0 1.75.79 1.75 1.75z" fill="#2196f3"/><path d="m19 11.2v6.05c0 .96-.79 1.75-1.75 1.75h-10.5c-.96 0-1.75-.79-1.75-1.75v-6.05l6.31 3.29c.43.22.95.22 1.38 0z" fill="#64b5f6"/></svg>