<?xml version="1.0" encoding="iso-8859-1"?>
<!-- Generator: Adobe Illustrator 19.0.0, SVG Export Plug-In . SVG Version: 6.00 Build 0)  -->
<svg version="1.1" id="Capa_1" xmlns="http://www.w3.org/2000/svg" xmlns:xlink="http://www.w3.org/1999/xlink" x="0px" y="0px"
	 viewBox="0 0 468.293 468.293" style="enable-background:new 0 0 468.293 468.293;" xml:space="preserve">
<path style="fill:#29A1DA;" d="M38.026,56.118C-29.459,123.603-4.73,257.747,93.26,355.737s232.134,122.72,299.619,55.235
	l-101.81-67.604c-40.792,40.792-108.311,25.287-159.518-25.921S64.837,198.721,105.63,157.929L38.026,56.118z"/>
<g>
	<path style="fill:#2D92BA;" d="M134.296,107.441l-60.14-85.783c-2.097-2.991-6.411-3.154-8.833-0.42
		c-6.137,6.927-11.377,14.478-15.782,22.532c-0.986,1.803-0.863,4.024,0.262,5.745l59.214,90.513c2.489,3.804,8.241,3.196,9.84-1.06
		c3.31-8.811,8.241-17.062,14.92-24.513C135.54,112.486,135.813,109.605,134.296,107.441z"/>
	<path style="fill:#2D92BA;" d="M341.556,314.702l85.783,60.14c2.991,2.097,3.154,6.412,0.42,8.833
		c-6.927,6.137-14.478,11.377-22.532,15.782c-1.803,0.987-4.024,0.863-5.745-0.262l-90.513-59.214
		c-3.804-2.489-3.196-8.241,1.06-9.84c8.811-3.31,17.062-8.241,24.513-14.919C336.511,313.458,339.393,313.185,341.556,314.702z"/>
</g>
<path style="fill:#FAD362;" d="M456.834,55.841H207.898c-6.328,0-11.459,5.13-11.459,11.459v148.717
	c0,6.328,5.13,11.459,11.459,11.459h14.145v18.057c0,9.18,10.255,14.633,17.866,9.5l40.859-27.557h176.065
	c6.328,0,11.459-5.13,11.459-11.459V67.299C468.293,60.971,463.162,55.841,456.834,55.841z"/>
<path style="fill:#F4C158;" d="M456.834,55.841H207.898c-6.328,0-11.459,5.13-11.459,11.459v1.029h247.907
	c6.329,0,11.459,5.13,11.459,11.459v147.688h1.029c6.328,0,11.459-5.13,11.459-11.459V67.299
	C468.293,60.97,463.162,55.841,456.834,55.841z"/>
<g>
	<circle style="fill:#4EBD9E;" cx="248.07" cy="142.548" r="18.732"/>
	<circle style="fill:#4EBD9E;" cx="304.265" cy="142.548" r="18.732"/>
	<circle style="fill:#4EBD9E;" cx="360.46" cy="142.548" r="18.732"/>
	<circle style="fill:#4EBD9E;" cx="416.656" cy="142.548" r="18.732"/>
</g>
<g>
</g>
<g>
</g>
<g>
</g>
<g>
</g>
<g>
</g>
<g>
</g>
<g>
</g>
<g>
</g>
<g>
</g>
<g>
</g>
<g>
</g>
<g>
</g>
<g>
</g>
<g>
</g>
<g>
</g>
</svg>
