<?xml version="1.0" encoding="iso-8859-1"?>
<!-- Generator: Adobe Illustrator 19.0.0, SVG Export Plug-In . SVG Version: 6.00 Build 0)  -->
<svg version="1.1" id="Capa_1" xmlns="http://www.w3.org/2000/svg" xmlns:xlink="http://www.w3.org/1999/xlink" x="0px" y="0px"
	 viewBox="0 0 468.293 468.293" style="enable-background:new 0 0 468.293 468.293;" xml:space="preserve">
<circle style="fill:#D15241;" cx="234.146" cy="234.146" r="234.146"/>
<circle style="fill:#EBF0F3;" cx="234.146" cy="234.146" r="206.299"/>
<g>
	<path style="fill:#2F4859;" d="M234.146,76.783c-6.282,0-11.376,5.093-11.376,11.376v127.975c0,6.282,5.093,11.376,11.376,11.376
		s11.376-5.093,11.376-11.376V88.159C245.522,81.876,240.429,76.783,234.146,76.783z"/>
	<path style="fill:#2F4859;" d="M357.383,234.147c0-6.282-5.093-11.376-11.376-11.376h-93.848c-6.282,0-11.376,5.093-11.376,11.376
		c0,6.282,5.093,11.376,11.376,11.376h93.848C352.29,245.522,357.383,240.429,357.383,234.147z"/>
</g>
<path style="fill:#CE412D;" d="M326.389,320.357L192.727,186.695c-1.666-1.666-4.366-1.666-6.032,0
	c-1.666,1.666-1.666,4.366,0,6.032L320.357,326.39c0.833,0.833,1.922,1.25,3.016,1.25s2.183-0.417,3.016-1.25
	C328.056,324.723,328.056,322.024,326.389,320.357z"/>
<circle style="fill:#DC8744;" cx="234.146" cy="234.146" r="31.282"/>
<g>
	<path style="fill:#27A2DB;" d="M242.223,28.022v29.348c0,4.437-3.64,8.02-8.077,8.02s-8.077-3.583-8.077-8.02V28.022
		c2.673-0.114,5.403-0.171,8.077-0.171S239.55,27.908,242.223,28.022z"/>
	<path style="fill:#27A2DB;" d="M94.105,82.684l20.752,20.752c3.137,3.137,3.097,8.245-0.04,11.382
		c-3.137,3.137-8.245,3.177-11.382,0.04L82.683,94.106c1.81-1.971,3.7-3.942,5.59-5.832C90.164,86.384,92.135,84.493,94.105,82.684z
		"/>
	<path style="fill:#27A2DB;" d="M28.022,226.07H57.37c4.437,0,8.02,3.64,8.02,8.077s-3.583,8.077-8.02,8.077H28.022
		c-0.114-2.673-0.171-5.403-0.171-8.077S27.908,228.743,28.022,226.07z"/>
	<path style="fill:#27A2DB;" d="M82.683,374.188l20.752-20.752c3.137-3.137,8.245-3.097,11.382,0.04
		c3.137,3.137,3.177,8.245,0.04,11.382L94.105,385.61c-1.971-1.81-3.942-3.7-5.832-5.59
		C86.383,378.129,84.493,376.158,82.683,374.188z"/>
	<path style="fill:#27A2DB;" d="M226.07,440.271v-29.348c0-4.437,3.64-8.02,8.077-8.02s8.077,3.583,8.077,8.02v29.348
		c-2.673,0.114-5.403,0.171-8.077,0.171S228.743,440.385,226.07,440.271z"/>
	<path style="fill:#27A2DB;" d="M374.187,385.61l-20.752-20.752c-3.137-3.137-3.097-8.245,0.04-11.382
		c3.137-3.137,8.245-3.177,11.382-0.04l20.752,20.752c-1.81,1.971-3.7,3.942-5.59,5.832
		C378.129,381.91,376.158,383.8,374.187,385.61z"/>
	<path style="fill:#27A2DB;" d="M440.271,242.223h-29.348c-4.437,0-8.02-3.64-8.02-8.077s3.583-8.077,8.02-8.077h29.348
		c0.114,2.673,0.171,5.403,0.171,8.077S440.385,239.55,440.271,242.223z"/>
	<path style="fill:#27A2DB;" d="M385.609,94.106l-20.752,20.752c-3.137,3.137-8.245,3.097-11.382-0.04
		c-3.137-3.137-3.177-8.245-0.04-11.382l20.752-20.752c1.971,1.81,3.942,3.7,5.832,5.59C381.909,90.164,383.8,92.135,385.609,94.106
		z"/>
</g>
<g>
</g>
<g>
</g>
<g>
</g>
<g>
</g>
<g>
</g>
<g>
</g>
<g>
</g>
<g>
</g>
<g>
</g>
<g>
</g>
<g>
</g>
<g>
</g>
<g>
</g>
<g>
</g>
<g>
</g>
</svg>
