<svg id="color" enable-background="new 0 0 24 24" height="512" viewBox="0 0 24 24" width="512" xmlns="http://www.w3.org/2000/svg"><path d="m7.727 8.481c-.192 0-.384-.073-.53-.22-.293-.293-.293-.768 0-1.061l5.193-5.193c.85-.851 2.332-.851 3.182 0l.828.83c.293.293.293.768 0 1.061s-.768.293-1.061 0l-.829-.829c-.293-.292-.768-.292-1.061 0l-5.192 5.193c-.147.146-.338.219-.53.219z" fill="#455a64"/><path d="m16.4 3.9c-.29.29-.77.29-1.06 0l-.83-.83c-.29-.29-.77-.29-1.06 0l-5.19 5.19c-.15.15-.34.22-.53.22-.2 0-.39-.07-.53-.22l5.72-5.72c.59-.59 1.54-.59 2.12 0z" fill="#3c4e57"/><path d="m23.16.84c-1.07-1.09-2.96-1.08-4.03 0l-1.47 1.46-.52.52c-.14.14-.22.33-.22.53s.08.39.22.53l2.98 2.98c.14.14.33.22.53.22s.39-.08.53-.22l.52-.52 1.46-1.47c.53-.53.84-1.27.84-2.01 0-.76-.3-1.48-.84-2.02z" fill="#455a64"/><path d="m8.02 20.15-4.17-4.17c-.18-.18-.44-.26-.69-.2-.12.02-.23.08-.33.16l-.04.04c-.07.07-.13.16-.17.26l-2.57 6.74c-.11.28-.04.59.17.8.14.14.33.22.53.22.09 0 .18-.02.27-.05l6.74-2.57c.1-.04.19-.1.26-.17l.04-.04c.08-.09.14-.21.16-.33.06-.25-.02-.51-.2-.69z" fill="#f5f5f5"/><path d="m21.59 7.64-1.38 1.38c-.92-.34-1.92-.52-2.96-.52-4.83 0-8.75 3.93-8.75 8.75 0 1.04.18 2.04.52 2.96l-.96.96-.04.04-5.23-5.23.04-.04 12.28-12.27 1.06-1.06.21-.2c.35-.35.89-.39 1.28-.11.04.03.09.07.13.11l3.81 3.81c.04.04.07.08.1.12.28.39.24.95-.11 1.3z" fill="#90a4ae"/><path d="m23.16.84-3.47 3.47 1.91 1.91.1.12 1.46-1.47c.53-.53.84-1.27.84-2.01 0-.76-.3-1.48-.84-2.02z" fill="#3c4e57"/><path d="m5.405 18.595-5.185 5.185c.14.14.33.22.53.22l.27-.05 6.74-2.57c.101-.04.19-.1.26-.17l.04-.04-.04.04z" fill="#d5d5d5"/><path d="m8.725 15.275-3.32 3.32 2.615 2.615.04-.04.96-.96c-.34-.92-.52-1.92-.52-2.96 0-.679.078-1.34.225-1.975zm10.965-10.965-4.414 4.414c.634-.146 1.295-.224 1.974-.224 1.04 0 2.04.18 2.96.52l1.38-1.38c.351-.35.391-.909.11-1.3l-.1-.12z" fill="#7d8f97"/><path d="m17.25 24c-3.723 0-6.75-3.027-6.75-6.75s3.027-6.75 6.75-6.75 6.75 3.027 6.75 6.75-3.027 6.75-6.75 6.75z" fill="#2196f3"/><path d="m17.25 21c-.553 0-1-.447-1-1v-5.5c0-.553.447-1 1-1s1 .447 1 1v5.5c0 .553-.447 1-1 1z" fill="#fff"/><path d="m20 18.25h-5.5c-.553 0-1-.447-1-1s.447-1 1-1h5.5c.553 0 1 .447 1 1s-.447 1-1 1z" fill="#fff"/><path d="m17.25 10.5c-3.723 0-6.75 3.027-6.75 6.75s3.027 6.75 6.75 6.75v-3c-.553 0-1-.447-1-1v-1.75h-1.75c-.553 0-1-.447-1-1s.447-1 1-1h1.75v-1.75c0-.553.447-1 1-1z" fill="#1d83d4"/><g fill="#dedede"><path d="m17.25 18.25h-1v1.75c0 .553.447 1 1 1zm0-4.75c-.553 0-1 .447-1 1v1.75h1z"/><path d="m17.25 16.25h-1-1.75c-.553 0-1 .447-1 1s.447 1 1 1h1.75 1z"/></g></svg>