<?xml version="1.0" encoding="iso-8859-1"?>
<!-- Generator: Adobe Illustrator 19.0.0, SVG Export Plug-In . SVG Version: 6.00 Build 0)  -->
<svg version="1.1" id="Capa_1" xmlns="http://www.w3.org/2000/svg" xmlns:xlink="http://www.w3.org/1999/xlink" x="0px" y="0px"
	 viewBox="0 0 510.848 510.848" style="enable-background:new 0 0 510.848 510.848;" xml:space="preserve">
<g>
	<path style="fill:#7FB241;" d="M436.896,485.544l10.192,1.232c-1.296-9.04,3.872-25.184,3.872-25.184
		C444.88,465.48,438.576,481.144,436.896,485.544z"/>
	<path style="fill:#7FB241;" d="M447.088,448.68c-21.952,10.976-21.312,35.52-21.312,35.52l10.448,1.264
		C434.304,476.744,447.088,448.68,447.088,448.68z"/>
	<path style="fill:#7FB241;" d="M436.432,486.776c0,0,0.192-0.496,0.464-1.232l-0.672-0.08
		C436.32,485.88,436.272,486.472,436.432,486.776z"/>
	<path style="fill:#7FB241;" d="M452.624,461.608c0,0,5.168,16.144,3.872,25.184l10.192-1.232
		C465.008,481.144,458.72,465.48,452.624,461.608z"/>
	<path style="fill:#7FB241;" d="M456.496,448.68c0,0,12.784,28.064,10.848,36.784l10.448-1.264
		C477.808,484.2,478.448,459.672,456.496,448.68z"/>
	<path style="fill:#7FB241;" d="M467.152,486.776c0.16-0.32,0.112-0.912,0.208-1.312l-0.672,0.08
		C466.96,486.28,467.152,486.776,467.152,486.776z"/>
	<path style="fill:#7FB241;" d="M490.112,486.776c0,0,0.192-0.496,0.464-1.232l-0.672-0.08
		C490.016,485.88,489.952,486.472,490.112,486.776z"/>
	<path style="fill:#7FB241;" d="M500.768,448.68c-21.952,10.976-21.312,35.52-21.312,35.52l10.448,1.264
		C487.984,476.744,500.768,448.68,500.768,448.68z"/>
	<path style="fill:#7FB241;" d="M504.64,461.608c-6.096,3.872-12.384,19.536-14.064,23.952l10.192,1.232
		C499.488,477.736,504.64,461.608,504.64,461.608z"/>
	<path style="fill:#7FB241;" d="M398.944,461.608c0,0,5.168,16.144,3.872,25.184l10.192-1.232
		C411.328,481.144,405.024,465.48,398.944,461.608z"/>
	<path style="fill:#7FB241;" d="M402.816,448.68c0,0,12.8,28.064,10.864,36.784l10.448-1.264
		C424.128,484.2,424.768,459.672,402.816,448.68z"/>
	<path style="fill:#7FB241;" d="M413.472,486.776c0.16-0.32,0.112-0.912,0.208-1.312l-0.672,0.08
		C413.28,486.28,413.472,486.776,413.472,486.776z"/>
	<rect y="479.368" style="fill:#7FB241;" width="510.848" height="27.088"/>
</g>
<circle style="fill:#F3C432;" cx="435.104" cy="67.48" r="63.088"/>
<path style="fill:#E9EFF4;" d="M432.704,122.216c-2.416,0-4.704,0.592-6.736,1.6c-0.688-1.072-1.44-2.096-2.272-3.072
	c-3.648-5.888-10.16-9.824-17.6-9.824c-0.08,0-0.144,0-0.224,0c-1.296-0.176-2.608-0.272-3.952-0.272
	c-0.544,0-1.072,0.016-1.6,0.048c-3.616-11.424-14.304-19.712-26.928-19.712c-1.104,0-2.192,0.064-3.264,0.192
	c0.08-0.944,0.128-1.904,0.128-2.864c0-20-16.208-36.208-36.208-36.208S297.84,68.312,297.84,88.312
	c0,0.416,0.016,0.832,0.032,1.232c-2.56-0.688-5.248-1.072-8.032-1.072c-16.976,0-30.736,13.76-30.736,30.736
	c0,1.824,0.16,3.6,0.464,5.328c-12.624,0.592-22.688,11.024-22.688,23.792c0,13.152,10.672,23.824,23.824,23.824
	c5.856,0,11.232-2.128,15.376-5.632c8.576,10.256,21.472,16.784,35.904,16.784c12.704,0,24.224-5.072,32.656-13.296
	c4.336,4.032,10.128,6.496,16.512,6.496c10.256,0,19.024-6.368,22.56-15.376c4.944,4.096,11.28,6.56,18.192,6.56
	c11.376,0,21.184-6.656,25.776-16.288c1.568,0.544,3.232,0.864,4.992,0.864c8.304,0,15.04-6.736,15.04-15.04
	C447.744,128.936,441.008,122.216,432.704,122.216z"/>
<path style="fill:#F3C432;" d="M266.608,479.896c-3.776-80.08,23.632-157.872,75.728-217.328c-1.2-1.04-2.384-2.096-3.584-3.136
	c-52.848,60.32-80.672,139.232-76.896,220.464L266.608,479.896L266.608,479.896z"/>
<g>
	<path style="fill:#FFD83B;" d="M233.152,352.184c-12.448,37.456,6.208,71.776,32.992,74.112
		C270.048,393.976,258.544,361.608,233.152,352.184z"/>
	<path style="fill:#FFD83B;" d="M325.84,382.984c-8.736,25.6-32.752,45.792-59.696,43.312
		C270.528,392.056,300.688,373.544,325.84,382.984z"/>
	<path style="fill:#FFD83B;" d="M258.096,294.536c-18.768,34.736-6.304,71.504,19.632,78.512
		C287.152,342.152,281.456,308.248,258.096,294.536z"/>
	<path style="fill:#FFD83B;" d="M344,341.032c-13.04,23.696-40.176,39.184-66.256,32.016
		C287.968,340.36,320.864,327.336,344,341.032z"/>
	<path style="fill:#FFD83B;" d="M293.248,241.464c-24.784,31.104-18.928,69.472,5.376,80.928
		C313.296,293.64,313.808,259.064,293.248,241.464z"/>
	<path style="fill:#FFD83B;" d="M369.584,302.392c-17.152,21.184-46.528,31.632-70.96,20
		C314.416,292.024,349.232,284.808,369.584,302.392z"/>
	<path style="fill:#FFD83B;" d="M375.888,226.632C369.04,256.52,346.8,281.016,318,290.04
		C314.848,259.496,344.656,226.712,375.888,226.632z"/>
</g>
<g>
	<path style="fill:#F3C432;" d="M313.424,430.504c-1.984-0.72-4.928-1.44-8.544-1.888c-7.216-1.072-17.456-0.048-26.8,5.44
		c-4.176,2.432-7.968,5.792-11.264,9.536c-0.576,8.032-0.832,16.112-0.768,24.24c0.224-1.248,0.48-2.528,0.912-4.208
		c1.824-7.632,6.736-17.024,14.144-23.376c7.36-6.4,16.624-9.328,23.648-9.552c3.504-0.208,6.496,0,8.528,0.352
		c2.064,0.32,3.248,0.512,3.248,0.512S315.408,431.176,313.424,430.504z"/>
	<path style="fill:#F3C432;" d="M218.32,426.872c2.112-0.384,5.168-0.464,8.784,0c7.28,0.688,16.768,4.96,24.864,12.624
		c3.632,3.424,6.816,7.504,9.664,11.68c-0.368,8.192-0.416,16.416-0.144,24.688c-0.272-1.264-0.576-2.56-1.04-4.272
		c-1.984-7.76-6.24-17.696-12.544-25.904c-6.288-8.16-14.48-14.016-21.248-16.192c-3.344-1.2-6.288-1.776-8.352-1.872
		c-2.08-0.16-3.28-0.24-3.28-0.24S216.224,427.192,218.32,426.872z"/>
	<path style="fill:#F3C432;" d="M361.328,479.896c-2.08-51.744,15.744-101.952,49.424-140.4c-0.784-0.688-1.552-1.36-2.336-2.048
		c-34.176,39.008-52.272,89.936-50.192,142.448H361.328z"/>
</g>
<g>
	<path style="fill:#FFD83B;" d="M339.52,397.96c-8.128,24.448,4.048,46.832,21.52,48.368
		C363.6,425.224,356.096,404.12,339.52,397.96z"/>
	<path style="fill:#FFD83B;" d="M400,418.072c-5.696,16.704-21.376,29.872-38.96,28.256C363.92,423.992,383.584,411.896,400,418.072
		z"/>
	<path style="fill:#FFD83B;" d="M355.792,360.36c-12.256,22.656-4.112,46.656,12.816,51.232
		C374.752,391.416,371.04,369.288,355.792,360.36z"/>
	<path style="fill:#FFD83B;" d="M411.856,390.68c-8.512,15.456-26.208,25.568-43.232,20.896
		C375.28,390.248,396.752,381.752,411.856,390.68z"/>
	<path style="fill:#FFD83B;" d="M378.736,325.72c-16.176,20.288-12.352,45.328,3.504,52.8
		C391.808,359.768,392.144,337.208,378.736,325.72z"/>
	<path style="fill:#FFD83B;" d="M428.544,365.48c-11.2,13.824-30.368,20.64-46.304,13.04
		C392.544,358.712,415.264,354.008,428.544,365.48z"/>
	<path style="fill:#FFD83B;" d="M432.656,316.04c-4.464,19.504-18.976,35.488-37.76,41.376
		C392.816,337.496,412.272,316.088,432.656,316.04z"/>
</g>
<g>
	<path style="fill:#F3C432;" d="M391.904,449.064c-1.296-0.464-3.216-0.944-5.584-1.232c-4.704-0.704-11.392-0.032-17.488,3.552
		c-2.72,1.584-5.2,3.776-7.344,6.224c-0.368,5.248-0.544,10.512-0.496,15.808c0.144-0.816,0.32-1.648,0.592-2.752
		c1.184-4.976,4.4-11.104,9.232-15.248c4.8-4.176,10.848-6.096,15.44-6.224c2.288-0.144,4.24,0,5.568,0.24
		c1.344,0.208,2.112,0.336,2.112,0.336S393.2,449.496,391.904,449.064z"/>
	<path style="fill:#F3C432;" d="M329.84,446.696c1.376-0.256,3.36-0.304,5.728,0c4.752,0.448,10.944,3.232,16.224,8.24
		c2.368,2.224,4.448,4.896,6.304,7.616c-0.24,5.344-0.272,10.72-0.096,16.112c-0.176-0.832-0.384-1.664-0.672-2.784
		c-1.296-5.056-4.064-11.552-8.176-16.896c-4.096-5.328-9.44-9.136-13.872-10.56c-2.176-0.784-4.112-1.168-5.456-1.216
		c-1.36-0.096-2.144-0.16-2.144-0.16S328.48,446.904,329.84,446.696z"/>
	<path style="fill:#F3C432;" d="M58.896,479.896c-3.776-80.08,23.632-157.872,75.728-217.328c-1.2-1.04-2.384-2.096-3.584-3.136
		c-52.848,60.32-80.672,139.232-76.896,220.464L58.896,479.896L58.896,479.896z"/>
</g>
<g>
	<path style="fill:#FFD83B;" d="M25.44,352.184c-12.448,37.456,6.208,71.776,32.992,74.112
		C62.336,393.976,50.832,361.608,25.44,352.184z"/>
	<path style="fill:#FFD83B;" d="M118.128,382.984c-8.736,25.6-32.752,45.792-59.696,43.312
		C62.816,392.056,92.96,373.544,118.128,382.984z"/>
	<path style="fill:#FFD83B;" d="M50.384,294.536c-18.768,34.736-6.304,71.504,19.632,78.512
		C79.44,342.152,73.744,308.248,50.384,294.536z"/>
	<path style="fill:#FFD83B;" d="M136.288,341.032c-13.04,23.696-40.176,39.184-66.256,32.016
		C80.256,340.36,113.152,327.336,136.288,341.032z"/>
	<path style="fill:#FFD83B;" d="M85.52,241.464c-24.784,31.104-18.928,69.472,5.376,80.928
		C105.584,293.64,106.08,259.064,85.52,241.464z"/>
	<path style="fill:#FFD83B;" d="M161.872,302.392c-17.152,21.184-46.528,31.632-70.96,20
		C106.704,292.024,141.52,284.808,161.872,302.392z"/>
	<path style="fill:#FFD83B;" d="M168.16,226.632c-6.848,29.888-29.088,54.384-57.888,63.408
		C107.136,259.496,136.928,226.712,168.16,226.632z"/>
</g>
<g>
	<path style="fill:#F3C432;" d="M105.712,430.504c-1.984-0.72-4.928-1.44-8.544-1.888c-7.216-1.072-17.456-0.048-26.8,5.44
		c-4.176,2.432-7.968,5.792-11.264,9.536c-0.576,8.032-0.832,16.112-0.768,24.24c0.224-1.248,0.48-2.528,0.912-4.208
		c1.824-7.632,6.736-17.024,14.144-23.376c7.36-6.4,16.624-9.328,23.648-9.552c3.504-0.208,6.496,0,8.528,0.352
		c2.064,0.32,3.248,0.512,3.248,0.512S107.696,431.176,105.712,430.504z"/>
	<path style="fill:#F3C432;" d="M10.608,426.872c2.112-0.384,5.168-0.464,8.784,0c7.28,0.688,16.768,4.96,24.864,12.624
		c3.632,3.424,6.816,7.504,9.664,11.68c-0.368,8.192-0.416,16.416-0.144,24.688c-0.272-1.264-0.576-2.56-1.04-4.272
		c-1.984-7.76-6.24-17.696-12.544-25.904c-6.288-8.16-14.48-14.016-21.248-16.192c-3.344-1.2-6.288-1.776-8.352-1.872
		c-2.08-0.16-3.28-0.24-3.28-0.24S8.512,427.192,10.608,426.872z"/>
	<path style="fill:#F3C432;" d="M153.616,479.896c-2.08-51.744,15.744-101.952,49.424-140.4c-0.784-0.688-1.552-1.36-2.336-2.048
		c-34.176,39.008-52.272,89.936-50.192,142.448H153.616z"/>
</g>
<g>
	<path style="fill:#FFD83B;" d="M131.808,397.96c-8.128,24.448,4.048,46.832,21.52,48.368
		C155.872,425.224,148.368,404.12,131.808,397.96z"/>
	<path style="fill:#FFD83B;" d="M192.288,418.072c-5.696,16.704-21.376,29.872-38.96,28.256
		C156.192,423.992,175.872,411.896,192.288,418.072z"/>
	<path style="fill:#FFD83B;" d="M148.08,360.36c-12.256,22.656-4.112,46.656,12.816,51.232
		C167.04,391.416,163.328,369.288,148.08,360.36z"/>
	<path style="fill:#FFD83B;" d="M204.128,390.68c-8.512,15.456-26.208,25.568-43.232,20.896
		C167.568,390.248,189.04,381.752,204.128,390.68z"/>
	<path style="fill:#FFD83B;" d="M171.008,325.72c-16.176,20.288-12.352,45.328,3.504,52.8
		C184.096,359.768,184.432,337.208,171.008,325.72z"/>
	<path style="fill:#FFD83B;" d="M220.816,365.48c-11.2,13.824-30.368,20.64-46.304,13.04
		C184.832,358.712,207.536,354.008,220.816,365.48z"/>
	<path style="fill:#FFD83B;" d="M224.928,316.04c-4.464,19.504-18.976,35.488-37.76,41.376
		C185.104,337.496,204.56,316.088,224.928,316.04z"/>
</g>
<g>
	<path style="fill:#F3C432;" d="M184.176,449.064c-1.296-0.464-3.216-0.944-5.584-1.232c-4.704-0.704-11.392-0.032-17.488,3.552
		c-2.72,1.584-5.2,3.776-7.344,6.224c-0.368,5.248-0.544,10.512-0.496,15.808c0.144-0.816,0.32-1.648,0.592-2.752
		c1.184-4.976,4.4-11.104,9.232-15.248c4.8-4.176,10.848-6.096,15.44-6.224c2.288-0.144,4.24,0,5.568,0.24
		c1.344,0.208,2.112,0.336,2.112,0.336S185.472,449.496,184.176,449.064z"/>
	<path style="fill:#F3C432;" d="M122.128,446.696c1.376-0.256,3.36-0.304,5.728,0c4.752,0.448,10.944,3.232,16.224,8.24
		c2.368,2.224,4.448,4.896,6.304,7.616c-0.24,5.344-0.272,10.72-0.096,16.112c-0.176-0.832-0.384-1.664-0.672-2.784
		c-1.296-5.056-4.064-11.552-8.176-16.896c-4.096-5.328-9.44-9.136-13.872-10.56c-2.176-0.784-4.112-1.168-5.456-1.216
		c-1.36-0.096-2.144-0.16-2.144-0.16S120.752,446.904,122.128,446.696z"/>
</g>
<g>
</g>
<g>
</g>
<g>
</g>
<g>
</g>
<g>
</g>
<g>
</g>
<g>
</g>
<g>
</g>
<g>
</g>
<g>
</g>
<g>
</g>
<g>
</g>
<g>
</g>
<g>
</g>
<g>
</g>
</svg>
