<?xml version="1.0" encoding="iso-8859-1"?>
<!-- Generator: Adobe Illustrator 19.0.0, SVG Export Plug-In . SVG Version: 6.00 Build 0)  -->
<svg version="1.1" id="Layer_1" xmlns="http://www.w3.org/2000/svg" xmlns:xlink="http://www.w3.org/1999/xlink" x="0px" y="0px"
	 viewBox="0 0 508.1 508.1" style="enable-background:new 0 0 508.1 508.1;" xml:space="preserve">
<path style="fill:#40596B;" d="M322.6,0H21.3C9.6,0,0.1,9.5,0.1,21.2v465.7c0,11.7,9.5,21.2,21.2,21.2h301.3
	c11.7,0,21.2-9.5,21.2-21.2V21.2C343.8,9.5,334.3,0,322.6,0z"/>
<rect x="46.1" y="56.2" style="fill:#FFFFFF;" width="251.7" height="346.2"/>
<g>
	<path style="fill:#ACB3BA;" d="M208.9,20.6h-74c-4.2,0-7.5,3.4-7.5,7.5l0,0c0,4.2,3.4,7.5,7.5,7.5h74c4.2,0,7.5-3.4,7.5-7.5l0,0
		C216.5,23.9,213.1,20.6,208.9,20.6z"/>
	<ellipse style="fill:#ACB3BA;" cx="171.9" cy="455.2" rx="27" ry="26.5"/>
</g>
<path style="fill:#84DBFF;" d="M486.5,110.9H166.6c-11.9,0-21.6,9.5-21.6,21.2v194.2c0,11.7,9.7,21.2,21.6,21.2h319.8
	c11.9,0,21.6-9.5,21.6-21.2V132.2C508.1,120.4,498.4,110.9,486.5,110.9z"/>
<ellipse style="fill:#FFFFFF;" cx="412.3" cy="165.1" rx="28.6" ry="28.1"/>
<ellipse style="fill:#40596B;" cx="452.9" cy="165.1" rx="28.6" ry="28.1"/>
<g>
	<rect x="171.5" y="156.9" style="fill:#FFFFFF;" width="177.1" height="16.4"/>
	<rect x="171.5" y="221.1" style="fill:#FFFFFF;" width="110.2" height="16.4"/>
</g>
<rect x="171.5" y="287.8" style="fill:#FF7058;" width="63.8" height="16.4"/>
<rect x="253.6" y="287.8" style="fill:#40596B;" width="63.8" height="16.4"/>
<rect x="335.7" y="287.8" style="fill:#FF7058;" width="63.8" height="16.4"/>
<rect x="417.8" y="287.8" style="fill:#40596B;" width="63.8" height="16.4"/>
<g>
</g>
<g>
</g>
<g>
</g>
<g>
</g>
<g>
</g>
<g>
</g>
<g>
</g>
<g>
</g>
<g>
</g>
<g>
</g>
<g>
</g>
<g>
</g>
<g>
</g>
<g>
</g>
<g>
</g>
</svg>
