<?xml version="1.0" encoding="iso-8859-1"?>
<!-- Generator: Adobe Illustrator 19.0.0, SVG Export Plug-In . SVG Version: 6.00 Build 0)  -->
<svg version="1.1" id="Capa_1" xmlns="http://www.w3.org/2000/svg" xmlns:xlink="http://www.w3.org/1999/xlink" x="0px" y="0px"
	 viewBox="0 0 512 512" style="enable-background:new 0 0 512 512;" xml:space="preserve">
<path style="fill:#334A5E;" d="M512,17.067C512,7.467,504.533,0,494.933,0h-473.6C9.6,0,0,9.6,0,21.333v339.2h512V17.067z"/>
<path style="fill:#F2F2F2;" d="M0,360.533v40.533C0,412.8,9.6,422.4,21.333,422.4h469.333c11.733,0,21.333-9.6,21.333-21.333
	v-40.533H0z"/>
<g>
	<circle style="fill:#CDD6E0;" cx="256" cy="391.467" r="11.733"/>
	<rect x="157.867" y="422.4" style="fill:#CDD6E0;" width="196.267" height="57.6"/>
</g>
<rect x="157.867" y="422.4" style="fill:#C3D0DB;" width="196.267" height="16"/>
<path style="fill:#F2F2F2;" d="M377.6,480H134.4c-8.533,0-14.933,7.467-14.933,16s6.4,16,14.933,16h244.267
	c8.533,0,14.933-7.467,14.933-16C393.6,486.4,386.133,480,377.6,480z"/>
<rect x="34.133" y="30.933" style="fill:#84DBFF;" width="443.733" height="297.6"/>
<path style="fill:#FFFFFF;" d="M366.933,161.067c-4.267,0-7.467,2.133-9.6,5.333l-28.8,51.2l-38.4-140.8
	c-1.067-4.267-5.333-7.467-10.667-7.467c-5.333,0-9.6,3.2-10.667,8.533l-37.333,160L196.267,112c-1.067-4.267-4.267-7.467-9.6-7.467
	c-4.267-1.067-8.533,2.133-10.667,5.333l-37.333,68.267H34.133v21.333h110.933c4.267,0,7.467-2.133,9.6-5.333l28.8-51.2
	l39.467,140.8C224,288,228.267,291.2,233.6,291.2l0,0c5.333,0,9.6-3.2,10.667-8.533l37.333-160l35.2,125.867
	c1.067,4.267,4.267,7.467,9.6,7.467c4.267,1.067,8.533-2.133,10.667-5.333l38.4-69.333H480V160H366.933V161.067z"/>
<g>
</g>
<g>
</g>
<g>
</g>
<g>
</g>
<g>
</g>
<g>
</g>
<g>
</g>
<g>
</g>
<g>
</g>
<g>
</g>
<g>
</g>
<g>
</g>
<g>
</g>
<g>
</g>
<g>
</g>
</svg>
