<svg id="Layer_1" enable-background="new 0 0 65 65" height="512" viewBox="0 0 65 65" width="512" xmlns="http://www.w3.org/2000/svg"><g><path d="m64.5 64.5h-64l15.9-25.9h32.2z" fill="#5ac8ae"/><path d="m44.9 38.6c-5.1 7.2-12.4 14.8-12.4 14.8s-7.3-7.6-12.4-14.8z" fill="#3faa8e"/><path d="m49.9 17.9c0 9.6-17.4 35.5-17.4 35.5s-17.4-26-17.4-35.5 7.8-17.4 17.4-17.4 17.4 7.8 17.4 17.4z" fill="#f1786b"/><path d="m32.5 1.9c9.3 0 16.9 7.4 17.3 16.6 0-.2 0-.5 0-.7 0-9.6-7.8-17.4-17.4-17.4s-17.3 7.9-17.3 17.5v.7c.5-9.3 8.1-16.7 17.4-16.7z" fill="#f98980"/><circle cx="32.5" cy="17.9" fill="#eff3f5" r="10.9"/></g></svg>