<?xml version="1.0" encoding="iso-8859-1"?>
<!-- Generator: Adobe Illustrator 19.0.0, SVG Export Plug-In . SVG Version: 6.00 Build 0)  -->
<svg xmlns="http://www.w3.org/2000/svg" xmlns:xlink="http://www.w3.org/1999/xlink" version="1.1" id="Layer_1" x="0px" y="0px" viewBox="0 0 491.52 491.52" style="enable-background:new 0 0 491.52 491.52;" xml:space="preserve">
<path style="fill:#3A556A;" d="M0,105.81v310.834c0,16.004,12.973,28.976,28.976,28.976h433.568  c16.003,0,28.976-12.973,28.976-28.976V105.81c0-16.004-12.973-28.976-28.976-28.976H28.976C12.973,76.834,0,89.806,0,105.81z"/>
<path style="fill:#64798A;" d="M0,87.937V398.77c0,16.004,12.973,28.976,28.976,28.976h433.568  c16.003,0,28.976-12.973,28.976-28.976V87.937c0-16.004-12.973-28.976-28.976-28.976H28.976C12.973,58.96,0,71.933,0,87.937z"/>
<rect x="35.748" y="94.71" style="fill:#EBF0F3;" width="384.87" height="297.267"/>
<rect x="35.743" y="375.706" style="fill:#E1E6E9;" width="384.87" height="16.292"/>
<g>
	<path style="fill:#3A556A;" d="M479.73,243.353c0,13.78-11.206,24.986-24.986,24.986s-24.995-11.206-24.995-24.986   c0-13.78,11.215-24.986,24.995-24.986S479.73,229.573,479.73,243.353z M438.685,243.353c0,8.849,7.2,16.049,16.058,16.049   c8.849,0,16.049-7.2,16.049-16.049c0-8.849-7.2-16.049-16.049-16.049C445.885,227.304,438.685,234.504,438.685,243.353z"/>
	<rect x="12.165" y="213.883" style="fill:#3A556A;" width="8.934" height="58.941"/>
</g>
<circle style="fill:#E56353;" cx="228.183" cy="243.354" r="124.109"/>
<path style="fill:#FFFFFF;" d="M228.181,340.632c-53.638,0-97.274-43.645-97.274-97.283c0-53.638,43.636-97.274,97.274-97.274  c53.637,0,97.283,43.636,97.283,97.274C325.464,296.987,281.819,340.632,228.181,340.632z"/>
<path style="fill:#E56353;" d="M228.181,313.822c-38.854,0-70.464-31.61-70.464-70.472c0-38.854,31.61-70.464,70.464-70.464  c38.862,0,70.472,31.61,70.472,70.464C298.654,282.212,267.044,313.822,228.181,313.822z"/>
<path style="fill:#FFFFFF;" d="M228.181,287.012c-24.07,0-43.654-19.584-43.654-43.662c0-24.07,19.584-43.654,43.654-43.654  c24.078,0,43.662,19.584,43.662,43.654C271.844,267.428,252.26,287.012,228.181,287.012z"/>
<circle style="fill:#E56353;" cx="228.183" cy="243.354" r="16.85"/>
<polygon style="fill:#2F4859;" points="390.687,45.9 377.283,45.9 377.283,84.778 353.512,108.549 353.512,83.075 340.109,83.075   340.109,121.952 225.289,236.772 234.768,246.252 349.587,131.432 388.465,131.432 388.465,118.028 362.991,118.028 386.762,94.256   425.64,94.256 425.64,80.853 390.687,80.853 "/>
<g>
</g>
<g>
</g>
<g>
</g>
<g>
</g>
<g>
</g>
<g>
</g>
<g>
</g>
<g>
</g>
<g>
</g>
<g>
</g>
<g>
</g>
<g>
</g>
<g>
</g>
<g>
</g>
<g>
</g>
</svg>
