<?xml version="1.0" encoding="iso-8859-1"?>
<!-- Generator: Adobe Illustrator 19.0.0, SVG Export Plug-In . SVG Version: 6.00 Build 0)  -->
<svg version="1.1" id="Capa_1" xmlns="http://www.w3.org/2000/svg" xmlns:xlink="http://www.w3.org/1999/xlink" x="0px" y="0px"
	 viewBox="0 0 468.293 468.293" style="enable-background:new 0 0 468.293 468.293;" xml:space="preserve">
<g>
	<path style="fill:#3A556A;" d="M160.333,367.592c-0.187,0.375-0.312,0.812-0.562,1.249l-41.395,76.983
		c-2.435,4.558-8.116,6.243-12.674,3.808c-4.558-2.435-6.306-8.116-3.808-12.674l37.274-69.365H160.333z"/>
	<path style="fill:#3A556A;" d="M367.556,441.39c0,3.309-1.811,6.556-4.933,8.241c-4.558,2.435-10.239,0.749-12.674-3.808
		l-41.395-76.983c-0.187-0.437-0.375-0.874-0.562-1.249h21.166l37.274,69.365C367.181,438.393,367.556,439.892,367.556,441.39z"/>
</g>
<rect x="19.019" y="75.414" style="fill:#3EA69B;" width="430.286" height="273.433"/>
<rect x="37.751" y="94.171" style="fill:#D5D6DB;" width="392.829" height="235.976"/>
<rect x="50.238" y="106.658" style="fill:#E1E6E9;" width="367.853" height="210.994"/>
<g>
	<path style="fill:#31978C;" d="M468.293,75.416H0.029v-6.243c0-6.897,5.591-12.488,12.488-12.488h443.288
		c6.897,0,12.488,5.591,12.488,12.488V75.416z"/>
	<path style="fill:#31978C;" d="M468.264,348.861v6.243c0,6.868-5.557,12.487-12.487,12.487H12.487
		C5.619,367.592,0,361.973,0,355.105v-6.243H468.264z"/>
</g>
<path style="fill:#3A556A;" d="M207.49,56.686c-0.088-0.882-0.136-1.776-0.136-2.681c0-14.78,12.026-26.806,26.806-26.806
	c14.783,0,26.808,12.026,26.808,26.806c0,0.905-0.048,1.799-0.136,2.681h9.651c0.065-0.888,0.135-1.775,0.135-2.68
	c0-20.135-16.323-36.458-36.458-36.458c-20.135,0-36.458,16.323-36.458,36.458c0,0.905,0.07,1.792,0.135,2.68H207.49z"/>
<path style="fill:#F6C358;" d="M269.246,124.528c-10.631-5.112-22.5-8.06-35.085-8.06c-12.586,0-24.455,2.948-35.086,8.06
	l35.085,73.111L269.246,124.528z"/>
<path style="fill:#2D93BA;" d="M199.076,299.739c10.631,5.112,22.5,8.06,35.085,8.06c12.585,0,24.454-2.947,35.085-8.06
	l-35.085-73.111L199.076,299.739z"/>
<path style="fill:#F6C358;" d="M269.246,299.74c27.237-13.097,46.086-40.867,46.086-73.111h-81.171L269.246,299.74z"/>
<path style="fill:#DC8744;" d="M269.246,153.518l-35.085,73.111h81.171C315.332,194.384,296.483,166.615,269.246,153.518z"/>
<path style="fill:#D15241;" d="M199.076,299.739l35.085-73.111h-81.17C152.99,258.872,171.839,286.642,199.076,299.739z"/>
<path style="fill:#E56353;" d="M152.99,226.629h81.17l-35.085-73.111C171.838,166.615,152.99,194.385,152.99,226.629z"/>
<g>
</g>
<g>
</g>
<g>
</g>
<g>
</g>
<g>
</g>
<g>
</g>
<g>
</g>
<g>
</g>
<g>
</g>
<g>
</g>
<g>
</g>
<g>
</g>
<g>
</g>
<g>
</g>
<g>
</g>
</svg>
