<?xml version="1.0" encoding="iso-8859-1"?>
<!-- Generator: Adobe Illustrator 19.0.0, SVG Export Plug-In . SVG Version: 6.00 Build 0)  -->
<svg version="1.1" id="Capa_1" xmlns="http://www.w3.org/2000/svg" xmlns:xlink="http://www.w3.org/1999/xlink" x="0px" y="0px"
	 viewBox="0 0 512 512" style="enable-background:new 0 0 512 512;" xml:space="preserve">
<path style="fill:#CED6E0;" d="M218.667,289.067L38.4,382.933v54.4l0,0L247.467,329.6L218.667,289.067z"/>
<rect x="476.8" y="67.2" style="fill:#344A5E;" width="35.2" height="90.667"/>
<rect x="412.8" y="37.333" style="fill:#415A6B;" width="69.333" height="151.467"/>
<path style="fill:#E8EAE9;" d="M113.067,0C50.133,0,0,50.133,0,113.067c0,61.867,50.133,113.067,113.067,113.067h292.267L488.533,0
	H113.067z"/>
<path style="fill:#415A6B;" d="M186.667,275.2c0,30.933,25.6,56.533,57.6,56.533c30.933,0,56.533-25.6,57.6-56.533H186.667z"/>
<path style="fill:#CED6E0;" d="M332.8,225.067H157.867v25.6c0,13.867,11.733,25.6,25.6,25.6h122.667c13.867,0,25.6-11.733,25.6-25.6
	v-25.6H332.8z"/>
<path style="fill:#415A6B;" d="M0,313.6L0,313.6V512l0,0c29.867-14.933,49.067-45.867,49.067-78.933V393.6
	C49.067,359.467,29.867,329.6,0,313.6z"/>
<g>
</g>
<g>
</g>
<g>
</g>
<g>
</g>
<g>
</g>
<g>
</g>
<g>
</g>
<g>
</g>
<g>
</g>
<g>
</g>
<g>
</g>
<g>
</g>
<g>
</g>
<g>
</g>
<g>
</g>
</svg>
