<?xml version="1.0" encoding="iso-8859-1"?>
<!-- Generator: Adobe Illustrator 19.0.0, SVG Export Plug-In . SVG Version: 6.00 Build 0)  -->
<svg version="1.1" id="Capa_1" xmlns="http://www.w3.org/2000/svg" xmlns:xlink="http://www.w3.org/1999/xlink" x="0px" y="0px"
	 viewBox="0 0 512 512" style="enable-background:new 0 0 512 512;" xml:space="preserve">
<path style="fill:#CACACA;" d="M192.704,324.56V34.336H77.6c-17.68,0-32,14.336-32,32V480c0,17.68,14.32,32,32,32h322.48
	c17.68,0,32-14.32,32-32V324.56H192.704z"/>
<path style="fill:#F3F3F3;" d="M353.52,0H111.936c-17.68,0-32,14.32-32,32v413.664c0,17.664,14.32,32,32,32H434.4
	c17.68,0,32-14.336,32-32V112.88L353.52,0z"/>
<path style="fill:#CACACA;" d="M353.52,80.88c0,17.68,14.32,32,32,32h80.88L353.52,0V80.88z"/>
<g style="opacity:0.15;">
	<path style="fill:#FFFFFF;" d="M368.4,53.584c-6.656,5.808-7.344,15.904-1.536,22.576l22.032,25.264
		c5.808,6.656,15.92,7.344,22.576,1.536c6.656-5.808,7.344-15.904,1.536-22.576L390.976,55.12
		C385.168,48.448,375.072,47.76,368.4,53.584z"/>
</g>
<g style="opacity:0.75;">
	<path style="fill:#CACACA;" d="M383.2,357.6c0-8.832-7.152-16-16-16H179.136c-8.848,0-16,7.168-16,16s7.152,16,16,16H367.2
		C376.048,373.6,383.2,366.448,383.2,357.6z"/>
</g>
<g style="opacity:0.75;">
	<path style="fill:#CACACA;" d="M383.2,415.76c0-8.832-7.152-16-16-16H179.136c-8.848,0-16,7.168-16,16s7.152,16,16,16H367.2
		C376.048,431.76,383.2,424.592,383.2,415.76z"/>
</g>
<path style="fill:#FFCC5B;" d="M378.336,199.936c0-58.08-47.088-105.168-105.168-105.168v105.168H378.336z"/>
<path style="fill:#FCB33E;" d="M273.168,199.936l74.368,74.368c19.04-19.04,30.8-45.328,30.8-74.368L273.168,199.936
	L273.168,199.936z"/>
<path style="fill:#3789C9;" d="M273.168,94.752C215.088,94.752,168,141.84,168,199.92s47.088,105.168,105.168,105.168
	c29.04,0,55.328-11.776,74.368-30.8l-74.368-74.368L273.168,94.752L273.168,94.752z"/>
<g style="opacity:0.3;">
	<path style="fill:#FFFFFF;" d="M247.344,280.608c-2.208,0-4.448-0.448-6.592-1.424c-31.072-14.064-51.168-45.168-51.168-79.28
		c0-47.968,39.008-86.992,86.976-86.992c28.416,0,55.088,13.92,71.376,37.248c5.056,7.248,3.28,17.216-3.968,22.288
		c-7.232,5.04-17.216,3.264-22.288-3.968c-10.288-14.752-27.168-23.568-45.12-23.568c-30.32,0-54.976,24.672-54.976,54.992
		c0,21.568,12.688,41.232,32.352,50.128c8.048,3.648,11.632,13.12,7.984,21.168C259.264,277.12,253.44,280.608,247.344,280.608z"/>
</g>
<g>
</g>
<g>
</g>
<g>
</g>
<g>
</g>
<g>
</g>
<g>
</g>
<g>
</g>
<g>
</g>
<g>
</g>
<g>
</g>
<g>
</g>
<g>
</g>
<g>
</g>
<g>
</g>
<g>
</g>
</svg>
