<svg id="color" enable-background="new 0 0 24 24" height="512" viewBox="0 0 24 24" width="512" xmlns="http://www.w3.org/2000/svg"><g fill="#2196f3"><circle cx="4" cy="17" r="2"/><path d="m5.25 20h-2.5c-1.517 0-2.75 1.233-2.75 2.75v.5c0 .414.336.75.75.75h6.5c.414 0 .75-.336.75-.75v-.5c0-1.517-1.233-2.75-2.75-2.75z"/><circle cx="20" cy="17" r="2"/><path d="m21.25 20h-2.5c-1.517 0-2.75 1.233-2.75 2.75v.5c0 .414.336.75.75.75h6.5c.414 0 .75-.336.75-.75v-.5c0-1.517-1.233-2.75-2.75-2.75z"/></g><path d="m20 14c-.414 0-.75-.336-.75-.75v-.25h-14.5v.25c0 .414-.336.75-.75.75s-.75-.336-.75-.75v-1c0-.414.336-.75.75-.75h16c.414 0 .75.336.75.75v1c0 .414-.336.75-.75.75z" fill="#607d8b"/><path d="m12 13c-.414 0-.75-.336-.75-.75v-1.5c0-.414.336-.75.75-.75s.75.336.75.75v1.5c0 .414-.336.75-.75.75z" fill="#607d8b"/><path d="m16.36 3.237-2.542-.379-1.151-2.429c-.124-.262-.388-.429-.678-.429-.001 0-.002 0-.003 0-.29.001-.555.17-.677.434l-1.134 2.436-2.541.397c-.278.043-.508.238-.596.505-.089.268-.019.561.177.762l1.867 1.898-.431 2.7c-.046.283.076.568.311.732.128.091.278.136.43.136.125 0 .251-.031.365-.095l2.259-1.258 2.269 1.242c.25.138.559.122.795-.046.233-.166.353-.451.306-.735l-.45-2.696 1.854-1.911c.196-.202.263-.496.172-.762-.092-.267-.323-.46-.602-.502z" fill="#ffc107"/></svg>