<svg height="512" viewBox="0 0 58 58" width="512" xmlns="http://www.w3.org/2000/svg"><g id="Page-1" fill="none" fill-rule="evenodd"><g id="068---Time-and-Date"><path id="Path" d="m22.852 3.85 2.037-3.084c.3156418-.478053.8501437-.76577502 1.423-.766h5.376c.5728563.00022498 1.1073582.287947 1.423.766l2.037 3.084 7.289 3.019 3.621-.741c.5615169-.11452729 1.1430213.06052508 1.548.466l3.8 3.8c.4054749.4049787.5805273.9864831.466 1.548l-.741 3.621 3.019 7.289 3.084 2.037c.478053.3156418.765775.8501437.766 1.423v5.376c-.000225.5728563-.287947 1.1073582-.766 1.423l-3.084 2.037-3.019 7.289.741 3.621c.1145273.5615169-.0605251 1.1430213-.466 1.548l-3.8 3.8c-.4049787.4054749-.9864831.5805273-1.548.466l-3.621-.741-7.289 3.019-2.037 3.084c-.3156418.478053-.8501437.765775-1.423.766h-5.376c-.5728563-.000225-1.1073582-.287947-1.423-.766l-2.037-3.084-7.289-3.019-3.621.741c-.5615169.1145273-1.1430213-.0605251-1.548-.466l-3.8-3.8c-.40547492-.4049787-.58052729-.9864831-.466-1.548l.741-3.621-3.019-7.289-3.084-2.037c-.478053-.3156418-.76577502-.8501437-.766-1.423v-5.376c.00022498-.5728563.287947-1.1073582.766-1.423l3.084-2.037 3.019-7.289-.741-3.621c-.11452729-.5615169.06052508-1.1430213.466-1.548l3.8-3.8c.4049787-.40547492.9864831-.58052729 1.548-.466l3.621.741z" fill="#bdc3c7"/><circle id="Oval" cx="29" cy="29" fill="#ecf0f1" r="20"/><path id="Path" d="m47.23 20.77c-7.5820497-3.4249311-16.4925009-1.7983525-22.3754267 4.0845733s-7.5095044 14.793377-4.0845733 22.3754267c-8.1071117-3.6621099-12.82094855-12.2387792-11.56702724-21.0458213 1.25392134-8.807042 8.17416394-15.7272846 16.98120594-16.98120594 8.8070421-1.25392131 17.3837114 3.45991554 21.0458213 11.56702724z" fill="#fff"/><g fill="#547580"><path id="Path" d="m29 13c-.5522847 0-1-.4477153-1-1v-3c0-.55228475.4477153-1 1-1s1 .44771525 1 1v3c0 .5522847-.4477153 1-1 1z"/><path id="Path" d="m29 50c-.5522847 0-1-.4477153-1-1v-3c0-.5522847.4477153-1 1-1s1 .4477153 1 1v3c0 .5522847-.4477153 1-1 1z"/><path id="Path" d="m49 30h-3c-.5522847 0-1-.4477153-1-1s.4477153-1 1-1h3c.5522847 0 1 .4477153 1 1s-.4477153 1-1 1z"/><path id="Path" d="m12 30h-3c-.55228475 0-1-.4477153-1-1s.44771525-1 1-1h3c.5522847 0 1 .4477153 1 1s-.4477153 1-1 1z"/><path id="Path" d="m36 37c-.2651948-.0000566-.5195073-.1054506-.707-.293l-7-7c-.1875494-.1874927-.2929434-.4418052-.293-.707v-13c0-.5522847.4477153-1 1-1s1 .4477153 1 1v12.586l6.707 6.707c.2859079.2859943.3714219.7160366.216678 1.0896546-.1547439.3736179-.5192821.6172591-.923678.6173454z"/></g><path id="Shape" d="m29 50c-11.5979797 0-21-9.4020203-21-21s9.4020203-21 21-21 21 9.4020203 21 21c-.0132259 11.592497-9.407503 20.9867741-21 21zm0-40c-10.4934102 0-19 8.5065898-19 19s8.5065898 19 19 19 19-8.5065898 19-19c-.0115735-10.4886126-8.5113874-18.9884265-19-19z" fill="#e64c3c" fill-rule="nonzero"/></g></g></svg>