<?xml version="1.0" encoding="iso-8859-1"?>
<!-- Generator: Adobe Illustrator 19.0.0, SVG Export Plug-In . SVG Version: 6.00 Build 0)  -->
<svg version="1.1" id="Layer_1" xmlns="http://www.w3.org/2000/svg" xmlns:xlink="http://www.w3.org/1999/xlink" x="0px" y="0px"
	 viewBox="0 0 508 508" style="enable-background:new 0 0 508 508;" xml:space="preserve">
<path style="fill:#F2F2F2;" d="M437.8,0H37.6c19.6,0,35.6,15.4,37,35l0.1,2.7v440.2c0,16.6,13.3,30.1,29.7,30.1h363.1V30.1
	C467.5,13.5,454.2,0,437.8,0z"/>
<path style="fill:#CDD6E0;" d="M151.2,466.9c0,22.7-18.1,41.1-40.5,41.1h356.8c22.4,0,40.5-18.4,40.5-41.1H151.2z"/>
<path style="fill:#84DBFF;" d="M223.1,437.5H112.5V325.3H223v112.2H223.1z M132.3,417.4h71v-72h-71V417.4z"/>
<rect x="112.5" y="46.4" style="fill:#4CDBC4;" width="317.1" height="72.2"/>
<path style="fill:#84DBFF;" d="M223.1,278.1H112.5V165.9H223v112.2H223.1z M132.3,258h71v-72h-71V258z"/>
<g>
	<rect x="252.5" y="218.3" style="fill:#CDD6E0;" width="177.1" height="18.1"/>
	<rect x="252.5" y="372.3" style="fill:#CDD6E0;" width="177.1" height="18.1"/>
	<path style="fill:#CDD6E0;" d="M37.5,0h-0.2C16.7,0,0,16.7,0,37.2v0.4h74.7v-0.4C74.7,16.7,58,0,37.5,0z"/>
</g>
<g>
</g>
<g>
</g>
<g>
</g>
<g>
</g>
<g>
</g>
<g>
</g>
<g>
</g>
<g>
</g>
<g>
</g>
<g>
</g>
<g>
</g>
<g>
</g>
<g>
</g>
<g>
</g>
<g>
</g>
</svg>
