<svg id="Capa_1" enable-background="new 0 0 334.435 334.435" height="512" viewBox="0 0 334.435 334.435" width="512" xmlns="http://www.w3.org/2000/svg"><g><path d="m267.022 76.362c-13.999-3.211-28.366-1.218-42.078 5.014-24.392 11.084-51.92 11.084-76.312 0-13.712-6.231-28.079-8.224-42.078-5.013-47.341 10.857-72.546 77.091-56.297 147.937s67.798 119.477 115.139 108.619c4.37-1.002 8.547-2.484 12.521-4.398 5.624-2.708 12.118-2.708 17.742 0 3.974 1.913 8.151 3.395 12.521 4.398 47.341 10.858 98.89-37.773 115.139-108.619s-8.956-137.08-56.297-147.938z" fill="#e56353"/><path d="m323.312 224.334c-16.272 70.777-67.825 119.449-115.129 108.577-4.392-1.008-8.569-2.448-12.528-4.392-5.616-2.736-12.097-2.736-17.713 0-4.032 1.944-8.207 3.384-12.528 4.392-34.776 7.992-71.857-16.129-95.401-57.529 22.68 27.144 51.912 41.257 79.633 34.849 4.392-1.008 8.568-2.52 12.528-4.392 5.616-2.736 12.168-2.736 17.784 0 3.96 1.872 8.136 3.384 12.528 4.392 47.305 10.872 98.857-37.8 115.129-108.649 9.144-40.104 5.112-78.697-8.784-106.633 25.777 26.712 36.577 76.753 24.481 129.385z" fill="#d15241"/><path d="m186.788 92.281c-17.893.398-32.639-8.553-34.959-4.488-2.675 3.598 11.772 22.664 34.959 22.607 23.189.058 37.631-19.009 34.959-22.607-2.322-4.065-17.067 4.886-34.959 4.488z" fill="#d15241"/><path d="m211.861 1.272c-45.421 30.48-32.276 95.609-32.116 96.361.724 3.382 3.705 5.699 7.038 5.699.492 0 .991-.049 1.491-.158 3.888-.819 6.377-4.637 5.562-8.525-.546-2.595-11.189-56.215 26.069-81.342 2.046-1.38 3.369-3.608 3.369-6.076 0-5.849-6.558-9.218-11.413-5.959z" fill="#44c4a1"/><path d="m186.788 52.15s-139.887-60.337-180.614 79.946c0 0 122.143 22.626 180.614-79.946z" fill="#44c4a1"/><path d="m186.788 52.15s-121.683-2.127-167.567 71.67c0 0 40.709-55.777 167.567-71.67z" fill="#3ea69b"/><path d="m252.6 108.603c-4.165-7.446.956-16.757 9.487-16.681 8.614.076 17.81 2.532 22.19 11.41 9.463 19.181 19.518 77.142-4.14 117.361-16.234 27.598-33.025 51.854-54.96 63.595-10.489 5.614-21.209-7.031-14.032-16.519 27.479-36.324 70.778-106.74 41.455-159.166z" fill="#ebf0f3" opacity=".15"/></g></svg>