<?xml version="1.0" encoding="iso-8859-1"?>
<!-- Generator: Adobe Illustrator 19.0.0, SVG Export Plug-In . SVG Version: 6.00 Build 0)  -->
<svg xmlns="http://www.w3.org/2000/svg" xmlns:xlink="http://www.w3.org/1999/xlink" version="1.1" id="Layer_1" x="0px" y="0px" viewBox="0 0 481.882 481.882" style="enable-background:new 0 0 481.882 481.882;" xml:space="preserve">
<path style="fill:#EBF0F3;" d="M466.824,103.304H15.059C6.626,103.304,0,109.929,0,118.362v283.708  c0,8.433,6.626,15.059,15.059,15.059h451.765c8.433,0,15.059-6.626,15.059-15.059V118.362  C481.882,109.929,475.257,103.304,466.824,103.304z"/>
<rect y="171.972" style="fill:#E56353;" width="481.882" height="175.285"/>
<path style="fill:#E1E6E9;" d="M240.941,382.795c32.527,0,61.44-13.854,82.522-35.539H158.419  C179.501,369.544,208.414,382.795,240.941,382.795z"/>
<path style="fill:#D15241;" d="M126.494,268.951c0,30.72,12.047,58.428,31.925,78.908h165.045  c19.878-20.48,31.925-48.188,31.925-78.908c0-40.358-21.082-75.896-53.007-96.376H180.104  C148.179,192.452,126.494,227.991,126.494,268.951z"/>
<circle style="fill:#FFFFFF;" cx="240.941" cy="259.915" r="114.447"/>
<path style="fill:#EBF0F3;" d="M240.941,348.461c-46.984,0-85.534-39.755-85.534-88.546s38.551-88.546,85.534-88.546  s85.534,39.755,85.534,88.546S287.925,348.461,240.941,348.461z"/>
<path style="fill:#3A556A;" d="M240.941,327.981c-36.141,0-66.259-30.72-66.259-68.066s29.515-68.066,66.259-68.066  c36.141,0,66.259,30.72,66.259,68.066S277.082,327.981,240.941,327.981z"/>
<ellipse style="fill:#6E8696;" cx="240.941" cy="259.915" rx="46.381" ry="47.586"/>
<path style="fill:#64798A;" d="M263.831,218.353c10.842,33.129-6.024,77.101-51.802,77.101c-0.602,0-1.205,0-2.409,0  c8.433,7.831,19.275,12.047,30.72,12.047c25.299,0,46.381-21.685,46.381-47.586C287.322,242.447,277.685,226.786,263.831,218.353z"/>
<ellipse style="fill:#27A2DB;" cx="269.252" cy="240.64" rx="9.638" ry="9.638"/>
<ellipse style="fill:#D5D6DB;" cx="217.449" cy="280.395" rx="7.228" ry="7.228"/>
<g>
	<path style="fill:#64798A;" d="M99.991,87.642H51.802c-1.807,0-3.012,1.205-3.012,3.012v12.649h54.212V90.654   C102.4,88.847,101.195,87.642,99.991,87.642z"/>
	<path style="fill:#64798A;" d="M281.299,70.174c-1.807-3.614-4.819-5.421-9.035-5.421h-84.329c-3.614,0-7.228,2.409-9.035,5.421   l-15.661,33.129h133.12L281.299,70.174z"/>
</g>
<path style="fill:#EBF0F3;" d="M263.831,79.209h-67.464c-3.614,0-6.626,3.012-6.626,6.626c0,3.614,3.012,6.626,6.626,6.626h67.464  c3.614,0,6.626-3.012,6.626-6.626C270.456,82.221,267.445,79.209,263.831,79.209z"/>
<g>
</g>
<g>
</g>
<g>
</g>
<g>
</g>
<g>
</g>
<g>
</g>
<g>
</g>
<g>
</g>
<g>
</g>
<g>
</g>
<g>
</g>
<g>
</g>
<g>
</g>
<g>
</g>
<g>
</g>
</svg>
