<?xml version="1.0" encoding="iso-8859-1"?>
<!-- Generator: Adobe Illustrator 19.0.0, SVG Export Plug-In . SVG Version: 6.00 Build 0)  -->
<svg version="1.1" id="Capa_1" xmlns="http://www.w3.org/2000/svg" xmlns:xlink="http://www.w3.org/1999/xlink" x="0px" y="0px"
	 viewBox="0 0 512.004 512.004" style="enable-background:new 0 0 512.004 512.004;" xml:space="preserve">
<path style="fill:#344A5E;" d="M135.519,121.577L40.586,13.844c-5.333-6.4-13.867-6.4-19.2-1.067
	c-5.333,4.267-5.333,12.8-1.067,18.133l78.933,89.6h36.267V121.577z"/>
<path style="fill:#E8EAE9;" d="M22.452,148.244c-33.067-36.267-28.8-92.8,7.467-125.867s93.867-28.8,125.867,8.533L22.452,148.244z"
	/>
<path style="fill:#344A5E;" d="M412.852,121.577l78.933-89.6c5.333-5.333,4.267-13.867-1.067-19.2
	c-5.333-5.333-13.867-4.267-19.2,1.067l-94.933,107.733L412.852,121.577L412.852,121.577z"/>
<path style="fill:#E8EAE9;" d="M489.652,148.244c33.067-37.333,28.8-93.867-8.533-125.867s-93.867-28.8-125.867,8.533
	L489.652,148.244z"/>
<g>
	<polygon style="fill:#415A6B;" points="135.519,457.577 98.186,511.977 166.452,511.977 210.186,457.577 	"/>
	<polygon style="fill:#415A6B;" points="309.386,457.577 352.052,511.977 420.319,511.977 382.986,457.577 	"/>
</g>
<circle style="fill:#F3705A;" cx="256.052" cy="273.044" r="226.133"/>
<circle style="fill:#FFFFFF;" cx="256.052" cy="273.044" r="176"/>
<path style="fill:#FFD15C;" d="M269.919,259.177v-86.4c0-7.467-6.4-13.867-13.867-13.867c-7.467,0-13.867,6.4-13.867,13.867v100.267
	L269.919,259.177z"/>
<g>
	<circle style="fill:#E8EAE9;" cx="256.052" cy="127.977" r="8.533"/>
	<circle style="fill:#E8EAE9;" cx="256.052" cy="417.044" r="8.533"/>
	<circle style="fill:#E8EAE9;" cx="401.119" cy="273.044" r="8.533"/>
	<circle style="fill:#E8EAE9;" cx="110.986" cy="273.044" r="8.533"/>
</g>
<path style="fill:#8AD7F8;" d="M242.186,273.044c0,7.467,6.4,13.867,13.867,13.867h67.2c7.467,0,13.867-6.4,13.867-13.867
	s-6.4-13.867-13.867-13.867h-53.333L242.186,273.044z"/>
<circle style="fill:#415A6B;" cx="256.052" cy="273.044" r="28.8"/>
<circle style="fill:#344A5E;" cx="256.052" cy="273.044" r="13.867"/>
<g>
</g>
<g>
</g>
<g>
</g>
<g>
</g>
<g>
</g>
<g>
</g>
<g>
</g>
<g>
</g>
<g>
</g>
<g>
</g>
<g>
</g>
<g>
</g>
<g>
</g>
<g>
</g>
<g>
</g>
</svg>
