<?xml version="1.0" encoding="iso-8859-1"?>
<!-- Generator: Adobe Illustrator 19.0.0, SVG Export Plug-In . SVG Version: 6.00 Build 0)  -->
<svg xmlns="http://www.w3.org/2000/svg" xmlns:xlink="http://www.w3.org/1999/xlink" version="1.1" id="Capa_1" x="0px" y="0px" viewBox="0 0 409.6 409.6" style="enable-background:new 0 0 409.6 409.6;" xml:space="preserve">
<path style="fill:#E56353;" d="M251.392,409.6h-93.184c-10.752,0-20.48-8.192-21.504-18.432L115.712,168.96  c-1.536-18.432,9.216-33.792,24.064-33.792h130.048c15.36,0,26.112,15.36,24.064,33.792l-20.992,222.208  C271.872,401.408,262.656,409.6,251.392,409.6z"/>
<path style="fill:#D15241;" d="M208.384,409.6h-50.176c-10.752,0-20.48-8.192-21.504-18.432L115.712,168.96  c-1.536-18.432,9.216-33.792,24.064-33.792h68.608L208.384,409.6L208.384,409.6z"/>
<g>
	<path style="fill:#F6C358;" d="M275.456,253.44L258.56,375.808c-1.024,8.192-8.192,14.848-16.896,14.848h-74.24   c-8.704,0-16.384-6.656-16.896-14.848L133.632,253.44H275.456z"/>
	<path style="fill:#F6C358;" d="M305.152,167.424c0-39.424-45.056-71.68-100.352-71.68s-100.352,31.744-100.352,71.68H305.152z"/>
</g>
<g>
	<rect x="104.448" y="167.424" style="fill:#3A556A;" width="200.192" height="17.408"/>
	<ellipse style="fill:#3A556A;" cx="204.8" cy="103.424" rx="15.36" ry="4.608"/>
</g>
<polygon style="fill:#E56353;" points="208.384,108.032 196.096,107.52 209.92,47.616 281.088,0 287.744,10.24 220.672,54.784 "/>
<g>
</g>
<g>
</g>
<g>
</g>
<g>
</g>
<g>
</g>
<g>
</g>
<g>
</g>
<g>
</g>
<g>
</g>
<g>
</g>
<g>
</g>
<g>
</g>
<g>
</g>
<g>
</g>
<g>
</g>
</svg>
