<svg id="color" enable-background="new 0 0 24 24" height="512" viewBox="0 0 24 24" width="512" xmlns="http://www.w3.org/2000/svg"><path d="m19 3.75v15.5c0 .25-.12.48-.33.62-.13.09-.27.13-.42.13-.09 0-.19-.02-.28-.05l-10.07-4.03-1.58-.63-.72-.29-.13-.05c-.28-.12-.47-.39-.47-.7v-5.5c0-.31.19-.58.47-.7l.13-.05 12.37-4.95c.23-.09.49-.06.7.08s.33.37.33.62z" fill="#eceff1"/><path d="m8.5 21.17c.02.21-.05.42-.19.58s-.35.25-.56.25h-3c-.37 0-.69-.27-.74-.64l-.91-6.36h2.5l.72.29 1.58.63z" fill="#607d8b"/><g fill="#ffc107"><path d="m20.75 9.5c-.22 0-.438-.097-.586-.281-.259-.323-.206-.796.117-1.055l2.5-2c.323-.257.795-.205 1.055.117.259.323.206.796-.117 1.055l-2.5 2c-.139.11-.304.164-.469.164z"/><path d="m23.25 18c-.165 0-.33-.054-.469-.164l-2.5-2c-.323-.259-.376-.731-.117-1.055.261-.322.732-.374 1.055-.117l2.5 2c.323.259.376.731.117 1.055-.149.184-.366.281-.586.281z"/><path d="m23.25 12.75h-2.5c-.414 0-.75-.336-.75-.75s.336-.75.75-.75h2.5c.414 0 .75.336.75.75s-.336.75-.75.75z"/></g><path d="m2.25 8c-1.24 0-2.25 1.01-2.25 2.25v2.75c0 1.18.92 2 2.25 2h3.35v-7z" fill="#2196f3"/></svg>