<?xml version="1.0" encoding="iso-8859-1"?>
<!-- Generator: Adobe Illustrator 19.0.0, SVG Export Plug-In . SVG Version: 6.00 Build 0)  -->
<svg version="1.1" id="Capa_1" xmlns="http://www.w3.org/2000/svg" xmlns:xlink="http://www.w3.org/1999/xlink" x="0px" y="0px"
	 viewBox="0 0 468.293 468.293" style="enable-background:new 0 0 468.293 468.293;" xml:space="preserve">
<path style="fill:#3B566A;" d="M78.83,468.293H41.367c-6.897,0-12.488-5.591-12.488-12.488V12.488C28.879,5.591,34.47,0,41.367,0
	H78.83V468.293z"/>
<rect x="78.86" style="fill:#647989;" width="31.22" height="468.293"/>
<rect x="110.018" style="fill:#FAD362;" width="286.033" height="468.293"/>
<path style="fill:#E0E5E8;" d="M396.082,69.631h12.112c6.897,0,12.488-5.591,12.488-12.488V26.084
	c0-6.897-5.591-12.488-12.488-12.488h-12.112V69.631z"/>
<path style="fill:#E56354;" d="M396.082,131.91h18.356c6.897,0,12.488-5.591,12.488-12.488V88.363
	c0-6.897-5.591-12.488-12.488-12.488h-18.356V131.91z"/>
<path style="fill:#29A1DA;" d="M396.082,194.188h24.6c6.897,0,12.488-5.591,12.488-12.488v-31.059
	c0-6.897-5.591-12.488-12.488-12.488h-24.6V194.188z"/>
<path style="fill:#DA8542;" d="M396.082,256.467h30.844c6.897,0,12.488-5.591,12.488-12.488V212.92
	c0-6.897-5.591-12.488-12.488-12.488h-30.844V256.467z"/>
<circle style="fill:#29A1DA;" cx="253.065" cy="234.146" r="118.634"/>
<path style="fill:#E0E5E8;" d="M241.169,246.043c18.19,18.19,28.374,24.768,34.432,26.351c3.035,0.793,6.254-0.099,8.472-2.317
	l6.234-6.234c1.978-1.978,4.779-2.895,7.549-2.505c25.106,3.534,33.346,18.708,35.932,26.35c0.875,2.584,0.447,5.431-1.078,7.693
	l-2.482,3.682c-1.761,2.612-3.965,4.901-6.553,6.697c-4.136,2.87-11.094,6.852-20.243,9.031c-4.337,1.033-8.896,0.539-12.912-1.397
	c-10.324-4.976-34.727-17.033-67.197-49.502s-44.527-56.873-49.502-67.197c-1.936-4.017-2.43-8.575-1.397-12.912
	c2.179-9.149,6.161-16.106,9.031-20.243c1.795-2.588,4.085-4.793,6.697-6.553l3.682-2.482c2.262-1.525,5.109-1.953,7.693-1.078
	c7.642,2.586,22.816,10.826,26.35,35.932c0.39,2.77-0.527,5.571-2.505,7.549l-6.234,6.234c-2.218,2.218-3.11,5.437-2.317,8.472
	C216.401,217.669,222.978,227.853,241.169,246.043z"/>
<g>
</g>
<g>
</g>
<g>
</g>
<g>
</g>
<g>
</g>
<g>
</g>
<g>
</g>
<g>
</g>
<g>
</g>
<g>
</g>
<g>
</g>
<g>
</g>
<g>
</g>
<g>
</g>
<g>
</g>
</svg>
