<svg height="512" viewBox="0 0 58 58" width="512" xmlns="http://www.w3.org/2000/svg"><g id="Page-1" fill="none" fill-rule="evenodd"><g id="070---User"><path id="Path" d="m34.81 31.88-4.79 7.23c-4.1438143.6220198-8.3298652.9195905-12.52.89-3.1729719.010004-6.3441958-.1502263-9.5-.48-.7-.08-1.37-.17-2-.26-3.68-.55-6-1.36-6-2.26v-2.5c-.0013705-7.0031545 4.17247007-13.3327581 10.61-16.09h13.78c5.5677131 2.3876119 9.5078152 7.4810068 10.42 13.47z" fill="#f29c1f"/><path id="Path" d="m28 10.5c0 5.7989899-4.7010101 10.5-10.5 10.5s-10.5-4.7010101-10.5-10.5c0-5.79898987 4.7010101-10.5 10.5-10.5 2.7889341-.01364592 5.467586 1.08821837 7.4396838 3.06031617s3.0739621 4.65074976 3.0603162 7.43968383z" fill="#fdd7ad"/><path id="Path" d="m8 32v7.52c-.7-.08-1.37-.17-2-.26v-7.26c0-.5522847.44771525-1 1-1s1 .4477153 1 1z" fill="#e57e25"/><path id="Path" d="m58 39.42v3.16c-.0031474.3341542-.1716936.6450284-.45.83l-1.81 1.19-1.77 4.28.44 2.12c.0621112.3309285-.0425969.6712298-.28.91l-2.22 2.22c-.2387702.2374031-.5790715.3421112-.91.28l-2.12-.44-4.28 1.77-1.19 1.81c-.1849716.2783064-.4958458.4468526-.83.45h-3.16c-.3341542-.0031474-.6450284-.1716936-.83-.45l-1.19-1.81-4.28-1.77-2.12.44c-.3309285.0621112-.6712298-.0425969-.91-.28l-2.22-2.22c-.2374031-.2387702-.3421112-.5790715-.28-.91l.44-2.12-1.77-4.28-1.81-1.19c-.2783064-.1849716-.4468526-.4958458-.45-.83v-3.16c.0031474-.3341542.1716936-.6450284.45-.83l1.81-1.19 1.77-4.28-.44-2.12c-.0621112-.3309285.0425969-.6712298.28-.91l2.22-2.22c.2387702-.2374031.5790715-.3421112.91-.28l2.12.44.55-.23 3.73-1.54 1.19-1.81c.1849716-.2783064.4958458-.4468526.83-.45h3.16c.3341542.0031474.6450284.1716936.83.45l1.19 1.81 4.28 1.77 2.12-.44c.3309285-.0621112.6712298.0425969.91.28l2.22 2.22c.2374031.2387702.3421112.5790715.28.91l-.44 2.12 1.77 4.28 1.81 1.19c.2783064.1849716.4468526.4958458.45.83z" fill="#bdc3c7"/><circle id="Oval" cx="41" cy="41" fill="#7f8c8d" r="10"/></g></g></svg>