<?xml version="1.0" encoding="iso-8859-1"?>
<!-- Generator: Adobe Illustrator 19.0.0, SVG Export Plug-In . SVG Version: 6.00 Build 0)  -->
<svg version="1.1" id="Capa_1" xmlns="http://www.w3.org/2000/svg" xmlns:xlink="http://www.w3.org/1999/xlink" x="0px" y="0px"
	 viewBox="0 0 512 512" style="enable-background:new 0 0 512 512;" xml:space="preserve">
<path style="fill:#FFD15C;" d="M0,396.8V512h512c0-29.867,0-73.6,0-115.2H0z"/>
<path style="fill:#F2F2F2;" d="M296.533,154.667l78.933,78.933l-163.2,164.267c-43.733,43.733-115.2,43.733-158.933,0l0,0
	L296.533,154.667z"/>
<path style="fill:#FF7058;" d="M499.2,12.8L499.2,12.8c-17.067-17.067-43.733-17.067-60.8,0L296.533,154.667l60.8,60.8L499.2,73.6
	C516.267,56.533,516.267,29.867,499.2,12.8z"/>
<path style="fill:#CDD6E0;" d="M281.6,199.467L156.8,325.333c-3.2,3.2-3.2,8.533,0,11.733c3.2,3.2,8.533,3.2,11.733,0L294.4,211.2
	c3.2-3.2,3.2-8.533,0-11.733C290.133,196.267,284.8,196.267,281.6,199.467z"/>
<g>
	<path style="fill:#F1543F;" d="M380.8,94.933c-3.2,1.067-6.4,4.267-5.333,7.467L384,152.533c1.067,3.2,4.267,6.4,7.467,5.333
		c3.2-1.067,6.4-4.267,5.333-7.467l-8.533-50.133C387.2,96,384,93.867,380.8,94.933z"/>
	<path style="fill:#F1543F;" d="M408.533,67.2c-3.2,1.067-6.4,4.267-5.333,7.467l8.533,50.133c1.067,3.2,4.267,6.4,7.467,5.333
		c3.2-1.067,6.4-4.267,5.333-7.467L416,72.533C414.933,69.333,411.733,66.133,408.533,67.2z"/>
	<path style="fill:#F1543F;" d="M435.2,39.467c-3.2,1.067-6.4,4.267-5.333,7.467l8.533,50.133c1.067,3.2,4.267,6.4,7.467,5.333
		c3.2-1.067,6.4-4.267,5.333-7.467L442.667,44.8C442.667,41.6,439.467,39.467,435.2,39.467z"/>
</g>
<g>
	<path style="fill:#FF7058;" d="M193.067,425.6c0,5.333-4.267,8.533-8.533,8.533c-5.333,0-8.533-4.267-8.533-8.533
		c0-5.333,8.533-18.133,8.533-18.133S193.067,420.267,193.067,425.6z"/>
	<path style="fill:#FF7058;" d="M214.4,404.267c0,3.2-3.2,6.4-6.4,6.4c-3.2,0-6.4-3.2-6.4-6.4c0-3.2,6.4-12.8,6.4-12.8
		S214.4,401.067,214.4,404.267z"/>
</g>
<g>
</g>
<g>
</g>
<g>
</g>
<g>
</g>
<g>
</g>
<g>
</g>
<g>
</g>
<g>
</g>
<g>
</g>
<g>
</g>
<g>
</g>
<g>
</g>
<g>
</g>
<g>
</g>
<g>
</g>
</svg>
