<?xml version="1.0" encoding="iso-8859-1"?>
<!-- Generator: Adobe Illustrator 19.0.0, SVG Export Plug-In . SVG Version: 6.00 Build 0)  -->
<svg version="1.1" id="Layer_1" xmlns="http://www.w3.org/2000/svg" xmlns:xlink="http://www.w3.org/1999/xlink" x="0px" y="0px"
	 viewBox="0 0 512 512" style="enable-background:new 0 0 512 512;" xml:space="preserve">
<polygon style="fill:#666666;" points="337.086,462.76 174.914,462.76 190.736,366.93 321.264,366.93 "/>
<polygon style="fill:#444242;" points="337.086,462.76 256,462.76 256,366.93 321.264,366.93 "/>
<g>
	<rect y="32.547" style="fill:#666666;" width="512" height="345.66"/>
	<rect x="256" y="32.547" style="fill:#666666;" width="256" height="345.66"/>
</g>
<rect x="33.391" y="65.939" style="fill:#BEEFEF;" width="445.22" height="278.87"/>
<rect x="256" y="65.939" style="fill:#92DBDE;" width="222.61" height="278.87"/>
<g>
	<rect x="124.82" y="446.062" style="fill:#666666;" width="262.38" height="33.391"/>
	<rect x="256" y="446.062" style="fill:#666666;" width="131.18" height="33.391"/>
</g>
<g>
	
		<rect x="99.654" y="105.607" transform="matrix(0.7071 0.7071 -0.7071 0.7071 135.5242 -40.2513)" style="fill:#FFFFFF;" width="33.391" height="75.719"/>
	
		<rect x="142.147" y="112.307" transform="matrix(0.7071 0.7071 -0.7071 0.7071 178.0287 -57.8477)" style="fill:#FFFFFF;" width="33.391" height="147.339"/>
</g>
<g>
</g>
<g>
</g>
<g>
</g>
<g>
</g>
<g>
</g>
<g>
</g>
<g>
</g>
<g>
</g>
<g>
</g>
<g>
</g>
<g>
</g>
<g>
</g>
<g>
</g>
<g>
</g>
<g>
</g>
</svg>
