<?xml version="1.0" encoding="iso-8859-1"?>
<!-- Generator: Adobe Illustrator 19.0.0, SVG Export Plug-In . SVG Version: 6.00 Build 0)  -->
<svg xmlns="http://www.w3.org/2000/svg" xmlns:xlink="http://www.w3.org/1999/xlink" version="1.1" id="Layer_1" x="0px" y="0px" viewBox="0 0 512.533 512.533" style="enable-background:new 0 0 512.533 512.533;" xml:space="preserve">
<polygon style="fill:#F3F3F3;" points="256.8,21.867 57.333,221.333 57.333,512.533 457.333,512.533 457.333,221.333 "/>
<rect x="200.267" y="371.733" style="fill:#415A6B;" width="114.133" height="140.8"/>
<path style="fill:#F3705A;" d="M8.267,275.733L8.267,275.733C-2.4,265.067-2.4,249.067,8.267,238.4L237.6,8  c10.667-10.667,26.667-10.667,37.333,0l229.333,229.333c10.667,10.667,10.667,26.667,0,37.333l0,0  c-10.667,10.667-26.667,10.667-37.333,0L256.8,64.533l-211.2,211.2C36,285.333,18.933,285.333,8.267,275.733z"/>
<path style="fill:#4EC0AA;" d="M280.267,219.2c-28.8,18.133-46.933,67.2-7.467,88.533c38.4-23.467,36.267-33.067,44.8-55.467  c5.333-17.067,20.267-45.867,42.667-50.133C338.933,203.2,305.867,200,280.267,219.2z"/>
<g>
	<path style="fill:#415A6B;" d="M272.8,328h7.467c-6.4-50.133,12.8-99.2,54.4-117.333C295.2,227.733,260,271.467,272.8,328z"/>
	<path style="fill:#415A6B;" d="M277.067,270.4c12.8-8.533,23.467-13.867,30.933-20.267C300.533,257.6,290.933,264,279.2,273.6   C279.2,272.533,278.133,271.467,277.067,270.4z"/>
	<path style="fill:#415A6B;" d="M287.733,254.4c-1.067-13.867,4.267-27.733,13.867-37.333c-9.6,9.6-17.067,22.4-17.067,37.333   C285.6,254.4,286.667,254.4,287.733,254.4z"/>
	<path style="fill:#415A6B;" d="M301.6,233.067c-1.067,1.067-3.2,3.2-4.267,4.267c9.6-5.333,18.133-10.667,27.733-14.933   C317.6,225.6,310.133,229.867,301.6,233.067z"/>
</g>
<path style="fill:#66C6B9;" d="M253.6,291.733c36.267-77.867-69.333-82.133-94.933-100.267C180,232,168.267,309.867,253.6,291.733z"/>
<g>
	<path style="fill:#415A6B;" d="M230.133,269.333c0-13.867-1.067-27.733-5.333-38.4c6.4,10.667,8.533,23.467,9.6,37.333   C233.333,268.267,231.2,268.267,230.133,269.333z"/>
	<path style="fill:#415A6B;" d="M221.6,254.4c-14.933-1.067-25.6-5.333-35.2-9.6c8.533,6.4,20.267,10.667,34.133,13.867   C220.533,256.533,221.6,255.467,221.6,254.4z"/>
	<path style="fill:#415A6B;" d="M203.467,239.467c1.067,1.067,2.133,2.133,4.267,4.267c-3.2-10.667-7.467-19.2-12.8-27.733   C198.133,223.467,202.4,230.933,203.467,239.467z"/>
	<path style="fill:#415A6B;" d="M289.867,344C255.733,275.733,192.8,229.867,192.8,229.867s49.067,44.8,81.067,114.133H289.867z"/>
</g>
<g>
</g>
<g>
</g>
<g>
</g>
<g>
</g>
<g>
</g>
<g>
</g>
<g>
</g>
<g>
</g>
<g>
</g>
<g>
</g>
<g>
</g>
<g>
</g>
<g>
</g>
<g>
</g>
<g>
</g>
</svg>
