<?xml version="1.0" encoding="iso-8859-1"?>
<!-- Generator: Adobe Illustrator 19.0.0, SVG Export Plug-In . SVG Version: 6.00 Build 0)  -->
<svg version="1.1" id="Capa_1" xmlns="http://www.w3.org/2000/svg" xmlns:xlink="http://www.w3.org/1999/xlink" x="0px" y="0px"
	 viewBox="0 0 514.133 514.133" style="enable-background:new 0 0 514.133 514.133;" xml:space="preserve">
<path style="fill:#415A6B;" d="M401.6,514.133H111.467c-23.467,0-42.667-19.2-42.667-42.667v-428.8C68.8,19.2,88,0,111.467,0h291.2
	c23.467,0,42.667,19.2,42.667,42.667v429.867C444.267,494.933,426.133,514.133,401.6,514.133z"/>
<rect x="111.467" y="69.333" style="fill:#FFFFFF;" width="291.2" height="333.867"/>
<rect x="187.2" y="152.533" style="fill:#F05540;" width="26.667" height="49.067"/>
<rect x="180.8" y="140.8" style="fill:#F3705A;" width="40.533" height="19.2"/>
<g>
	<path style="fill:#344A5E;" d="M288.533,45.867h-64c-6.4,0-11.733-5.333-11.733-11.733l0,0c0-6.4,5.333-11.733,11.733-11.733h64
		c6.4,0,11.733,5.333,11.733,11.733l0,0C300.267,40.533,294.933,45.867,288.533,45.867z"/>
	<circle style="fill:#344A5E;" cx="256.533" cy="458.667" r="28.8"/>
</g>
<rect x="184" y="231.467" style="fill:#FFD15C;" width="146.133" height="110.933"/>
<polygon style="fill:#F3705A;" points="360,231.467 256.533,129.067 153.067,231.467 "/>
<rect x="232" y="285.867" style="fill:#415A6B;" width="49.067" height="56.533"/>
<g>
</g>
<g>
</g>
<g>
</g>
<g>
</g>
<g>
</g>
<g>
</g>
<g>
</g>
<g>
</g>
<g>
</g>
<g>
</g>
<g>
</g>
<g>
</g>
<g>
</g>
<g>
</g>
<g>
</g>
</svg>
