<?xml version="1.0" encoding="iso-8859-1"?>
<!-- Generator: Adobe Illustrator 19.0.0, SVG Export Plug-In . SVG Version: 6.00 Build 0)  -->
<svg version="1.1" id="Capa_1" xmlns="http://www.w3.org/2000/svg" xmlns:xlink="http://www.w3.org/1999/xlink" x="0px" y="0px"
	 viewBox="0 0 468.291 468.291" style="enable-background:new 0 0 468.291 468.291;" xml:space="preserve">
<path style="fill:#E1E6E9;" d="M463.185,237.832c-6.931,16.171-20.105,28.784-35.715,36.839
	c-28.41,14.611-90.287,49.826-109.018,87.477c-4.434,8.928-9.303,17.607-15.547,25.35c-24.227,29.971-81.796,84.043-143.049,17.857
	c0,0-14.61-18.107-24.913-45.143c-11.613-30.532-33.343-56.258-61.252-72.242c-7.181-4.183-14.799-7.742-22.791-10.489
	c-4.495-1.623-8.803-2.809-12.738-3.497c-3.122-0.498-6.306-2.247-9.553-5.057c-4.994-4.309-10.114-11.051-14.672-19.543
	c-37.526-69.37,4.433-155.66,81.608-172.145c25.787-5.494,57.256-13.986,82.357-26.412c18.294-8.991,37.588-15.859,57.756-18.294
	c12.113-1.436,25.474-1.686,38.462,0.687c6.244,1.124,12.425,2.935,18.357,5.432c18.794,7.992,32.157,24.788,38.526,44.145
	c1.872,5.681,5.369,13.361,11.8,21.354c10.239,12.675,27.91,26.037,58.444,33.218c23.726,5.556,44.706,20.418,56.944,41.521
	C467.617,195.061,472.738,215.416,463.185,237.832z"/>
<path style="fill:#D5D6DB;" d="M458.199,178.919c-9.738-16.8-25.085-29.534-42.905-36.868c12.438,7.506,23.041,17.899,30.418,30.624
	c9.389,16.202,14.558,36.559,4.994,58.95c-6.909,16.171-20.101,28.819-35.736,36.865c-28.415,14.619-90.28,49.79-109.018,87.467
	c-4.441,8.928-9.291,17.62-15.559,25.374c-19.247,23.811-59.581,62.806-106.095,44.549c51.698,31.541,97.631-12.386,118.582-38.305
	c6.268-7.755,11.119-16.447,15.559-25.374c18.738-37.678,80.604-72.848,109.018-87.467c15.636-8.046,28.828-20.694,35.736-36.865
	C472.757,215.478,467.587,195.121,458.199,178.919z"/>
<path style="fill:#F6C358;" d="M290.34,212.107c0,37.96-30.756,68.682-68.683,68.682c-29.634,0-54.885-18.725-64.502-45.029v-0.034
	c-2.719-7.34-4.18-15.293-4.18-23.619c0-37.927,30.722-68.683,68.683-68.683c24.197,0,45.472,12.506,57.706,31.436
	c0,0.034,0,0.034,0,0.034C286.329,185.633,290.34,198.377,290.34,212.107z"/>
<path style="fill:#FCD462;" d="M283.543,198.513c0,37.96-30.756,68.683-68.683,68.683c-24.231,0-45.505-12.506-57.706-31.436v-0.034
	c-2.719-7.34-4.18-15.293-4.18-23.619c0-37.927,30.722-68.683,68.683-68.683c24.197,0,45.472,12.506,57.706,31.436
	c0,0.034,0,0.034,0,0.034C282.081,182.268,283.543,190.221,283.543,198.513z"/>
<path style="fill:#E1E6E9;" d="M179.426,212.106c-3.754,0-6.797-3.043-6.797-6.797c0-22.487,18.293-40.781,40.781-40.781
	c3.754,0,6.797,3.043,6.797,6.797c0,3.754-3.043,6.797-6.797,6.797c-14.991,0-27.188,12.197-27.188,27.188
	C186.223,209.063,183.179,212.106,179.426,212.106z"/>
<g>
</g>
<g>
</g>
<g>
</g>
<g>
</g>
<g>
</g>
<g>
</g>
<g>
</g>
<g>
</g>
<g>
</g>
<g>
</g>
<g>
</g>
<g>
</g>
<g>
</g>
<g>
</g>
<g>
</g>
</svg>
