<?xml version="1.0" encoding="iso-8859-1"?>
<!-- Generator: Adobe Illustrator 19.0.0, SVG Export Plug-In . SVG Version: 6.00 Build 0)  -->
<svg version="1.1" id="Capa_1" xmlns="http://www.w3.org/2000/svg" xmlns:xlink="http://www.w3.org/1999/xlink" x="0px" y="0px"
	 viewBox="0 0 512 512" style="enable-background:new 0 0 512 512;" xml:space="preserve">
<path style="fill:#E8EAE9;" d="M512,167.467v-124.8C512,19.2,492.8,0,469.333,0s-42.667,19.2-42.667,42.667v124.8H512z"/>
<path style="fill:#F3F3F3;" d="M426.667,42.667C426.667,19.2,445.867,0,469.333,0H42.667C19.2,0,0,19.2,0,42.667V512h426.667V42.667
	z"/>
<rect x="53.333" y="56.533" style="fill:#F05540;" width="133.333" height="23.467"/>
<rect x="53.333" y="131.2" style="fill:#8AD7F8;" width="320" height="23.467"/>
<g>
	<rect x="53.333" y="206.933" style="fill:#E8EAE9;" width="320" height="23.467"/>
	<rect x="53.333" y="281.6" style="fill:#E8EAE9;" width="151.467" height="23.467"/>
	<rect x="53.333" y="357.333" style="fill:#E8EAE9;" width="151.467" height="23.467"/>
	<rect x="53.333" y="433.067" style="fill:#E8EAE9;" width="151.467" height="23.467"/>
</g>
<polygon style="fill:#F05540;" points="341.333,469.333 310.4,442.667 278.4,469.333 278.4,353.067 341.333,353.067 "/>
<path style="fill:#FFD15C;" d="M384,324.267c0,7.467-11.733,12.8-13.867,19.2c-2.133,6.4,4.267,18.133,0,23.467
	c-4.267,5.333-17.067,3.2-22.4,6.4c-5.333,4.267-6.4,17.067-13.867,19.2c-6.4,2.133-14.933-7.467-22.4-7.467s-16,9.6-22.4,7.467
	c-6.4-2.133-7.467-14.933-13.867-19.2c-5.333-4.267-18.133-1.067-22.4-6.4c-4.267-5.333,2.133-17.067,0-23.467
	c-2.133-6.4-13.867-11.733-13.867-19.2c0-7.467,11.733-12.8,13.867-19.2c2.133-6.4-4.267-18.133,0-23.467
	c4.267-5.333,17.067-3.2,22.4-6.4c5.333-4.267,6.4-17.067,13.867-19.2c6.4-2.133,14.933,7.467,22.4,7.467s16-9.6,22.4-7.467
	c6.4,2.133,7.467,14.933,13.867,19.2c5.333,4.267,18.133,1.067,22.4,6.4c4.267,5.333-2.133,17.067,0,23.467
	C372.267,312.533,384,317.867,384,324.267z"/>
<circle style="fill:#F7B64C;" cx="312.533" cy="324.267" r="39.467"/>
<g>
</g>
<g>
</g>
<g>
</g>
<g>
</g>
<g>
</g>
<g>
</g>
<g>
</g>
<g>
</g>
<g>
</g>
<g>
</g>
<g>
</g>
<g>
</g>
<g>
</g>
<g>
</g>
<g>
</g>
</svg>
