<?xml version="1.0" encoding="iso-8859-1"?>
<!-- Generator: Adobe Illustrator 19.0.0, SVG Export Plug-In . SVG Version: 6.00 Build 0)  -->
<svg version="1.1" id="Capa_1" xmlns="http://www.w3.org/2000/svg" xmlns:xlink="http://www.w3.org/1999/xlink" x="0px" y="0px"
	 viewBox="0 0 512 512" style="enable-background:new 0 0 512 512;" xml:space="preserve">
<polygon style="fill:#F2F2F2;" points="359.456,0 54.453,0 54.453,512 457.547,512 457.547,98.08 "/>
<polygon style="fill:#E8EAEA;" points="359.456,0 359.456,98.08 457.547,98.08 "/>
<g>
	<rect x="221.76" y="452.587" style="fill:#CDD6E0;" width="114.944" height="16.683"/>
	<rect x="221.749" y="415.755" style="fill:#CDD6E0;" width="193.173" height="16.683"/>
	<path style="fill:#CDD6E0;" d="M176.224,474.667H91.787v-84.459h84.437V474.667z M102.453,464h63.125v-63.125h-63.125V464z"/>
</g>
<polygon style="fill:#3DC9AE;" points="143.712,460.064 111.051,427.424 122.379,416.107 143.712,437.44 200.651,380.501 
	211.957,391.819 "/>
<g>
	<rect x="221.76" y="327.531" style="fill:#CDD6E0;" width="114.944" height="16.672"/>
	<rect x="221.749" y="290.667" style="fill:#CDD6E0;" width="193.173" height="16.683"/>
	<path style="fill:#CDD6E0;" d="M176.224,349.525H91.787v-84.437h84.437V349.525z M102.453,338.859h63.125v-63.104h-63.125V338.859z
		"/>
</g>
<polygon style="fill:#FFD15C;" points="143.712,334.955 111.051,302.293 122.379,291.008 143.712,312.341 200.651,255.381 
	211.957,266.688 "/>
<g>
	<rect x="221.76" y="202.4" style="fill:#CDD6E0;" width="114.944" height="16.683"/>
	<rect x="221.749" y="165.504" style="fill:#CDD6E0;" width="193.173" height="16.683"/>
	<path style="fill:#CDD6E0;" d="M176.224,224.427H91.787v-84.437h84.437V224.427z M102.453,213.76h63.125v-63.104h-63.125V213.76z"
		/>
</g>
<polygon style="fill:#FF7058;" points="143.712,209.835 111.051,177.184 122.379,165.877 143.712,187.211 200.651,130.272 
	211.957,141.589 "/>
<g>
</g>
<g>
</g>
<g>
</g>
<g>
</g>
<g>
</g>
<g>
</g>
<g>
</g>
<g>
</g>
<g>
</g>
<g>
</g>
<g>
</g>
<g>
</g>
<g>
</g>
<g>
</g>
<g>
</g>
</svg>
