<?xml version="1.0" encoding="iso-8859-1"?>
<!-- Generator: Adobe Illustrator 19.0.0, SVG Export Plug-In . SVG Version: 6.00 Build 0)  -->
<svg version="1.1" id="Capa_1" xmlns="http://www.w3.org/2000/svg" xmlns:xlink="http://www.w3.org/1999/xlink" x="0px" y="0px"
	 viewBox="0 0 468.293 468.293" style="enable-background:new 0 0 468.293 468.293;" xml:space="preserve">
<path style="fill:#E1E6E9;" d="M62.813,161.152c5.975-46.825,45.882-83.05,94.333-83.05c19.678,0,37.96,5.975,53.136,16.206
	c21.022-31.03,56.557-51.427,96.86-51.427c64.57,0,116.916,52.346,116.916,116.917c0,15.793-3.171,30.834-8.847,44.577
	c29.455,0.868,53.081,24.961,53.081,54.625c0,30.214-24.493,54.707-54.707,54.707H76.955C34.454,313.707,0,279.253,0,236.751
	C0,199.088,27.077,167.799,62.813,161.152z"/>
<path style="fill:#EBF0F3;" d="M62.813,179.884c5.976-46.826,45.882-83.05,94.332-83.05c19.678,0,37.96,5.974,53.137,16.206
	c21.021-31.03,56.556-51.428,96.859-51.428c61.426,0,111.686,47.399,116.446,107.602c0.252-3.114,0.471-6.237,0.471-9.417
	c0-64.571-52.346-116.917-116.917-116.917c-40.303,0-75.838,20.397-96.859,51.428c-15.177-10.232-33.459-16.206-53.137-16.206
	c-48.45,0-88.357,36.224-94.332,83.05C27.077,167.799,0,199.088,0,236.751c0,3.188,0.254,6.312,0.63,9.398
	C4.682,212.753,30.082,185.972,62.813,179.884z"/>
<path style="fill:#E1E6E9;" d="M467.437,268.35c0.526-3.045,0.856-6.157,0.856-9.351c0-27.714-20.625-50.553-47.356-54.145
	c-1.457,6.276-3.309,12.402-5.726,18.252C441.484,223.88,463.069,243.148,467.437,268.35z"/>
<path style="fill:#EBF0F3;" d="M420.937,204.855c1.966-8.473,3.122-17.254,3.122-26.326c0-3.145-0.227-6.232-0.471-9.315
	c-0.998,12.354-3.843,24.184-8.377,35.161C417.149,204.431,419.056,204.602,420.937,204.855z"/>
<circle style="fill:#F6C358;" cx="234.146" cy="319.017" r="106.396"/>
<circle style="fill:#FCD462;" cx="234.146" cy="319.017" r="84.561"/>
<path style="fill:#F6C358;" d="M230.751,383.067v-11.28c-14.122-1.44-26.798-7.055-38.016-16.839l11.28-13.443
	c8.652,7.52,17.555,11.997,26.735,13.443v-29.98c-11.645-2.779-20.171-6.439-25.578-10.972s-8.111-11.255-8.111-20.165
	s3.106-16.197,9.344-21.869c6.237-5.665,14.349-8.753,24.346-9.268v-7.728h9.884v7.879c11.331,0.83,22.045,4.691,32.143,11.595
	l-10.048,14.217c-6.803-4.842-14.16-7.828-22.095-8.966v29.049h0.465c11.846,2.785,20.548,6.546,26.107,11.28
	c5.571,4.741,8.35,11.62,8.35,20.63c0,9.017-3.194,16.361-9.582,22.02c-6.388,5.672-14.826,8.759-25.34,9.274v11.123H230.751z
	 M219.848,283.325c-2.628,2.314-3.936,5.2-3.936,8.652c0,3.452,1.031,6.181,3.094,8.187c2.05,2.012,5.973,3.942,11.745,5.797
	v-26.735C226.111,279.64,222.476,281.005,219.848,283.325z M252.381,351.081c2.88-2.364,4.326-5.351,4.326-8.96
	c0-3.603-1.132-6.464-3.395-8.576c-2.276-2.113-6.501-4.093-12.676-5.948v27.811C245.577,354.898,249.488,353.452,252.381,351.081z"
	/>
<g>
</g>
<g>
</g>
<g>
</g>
<g>
</g>
<g>
</g>
<g>
</g>
<g>
</g>
<g>
</g>
<g>
</g>
<g>
</g>
<g>
</g>
<g>
</g>
<g>
</g>
<g>
</g>
<g>
</g>
</svg>
