<?xml version="1.0" encoding="iso-8859-1"?>
<!-- Generator: Adobe Illustrator 19.0.0, SVG Export Plug-In . SVG Version: 6.00 Build 0)  -->
<svg version="1.1" id="Capa_1" xmlns="http://www.w3.org/2000/svg" xmlns:xlink="http://www.w3.org/1999/xlink" x="0px" y="0px"
	 viewBox="0 0 512 512" style="enable-background:new 0 0 512 512;" xml:space="preserve">
<path style="fill:#464646;" d="M455.343,398.956v-222.72c0-12.665-10.307-22.973-22.973-22.973H79.629
	c-12.665,0-22.973,10.307-22.973,22.973v222.72H455.343z"/>
<rect x="79.629" y="176.236" style="fill:#3789C9;" width="352.674" height="215.781"/>
<path style="fill:#E5E5E5;" d="M56.657,392.017v31.596c0,12.665,10.307,22.973,22.973,22.973h352.741
	c12.665,0,22.973-10.307,22.973-22.973v-31.596H56.657z"/>
<rect x="193.819" y="446.585" style="fill:#CACACA;" width="124.295" height="44.598"/>
<path style="fill:#E5E5E5;" d="M346.206,491.251H165.794c-5.726,0-10.375,4.648-10.375,10.375l0,0
	c0,5.726,4.648,10.375,10.375,10.375h180.413c5.726,0,10.375-4.648,10.375-10.375l0,0
	C356.581,495.899,351.933,491.251,346.206,491.251z"/>
<path style="fill:#CACACA;" d="M262.872,430.821h-13.743c-6.333,0-11.453-5.12-11.453-11.453s5.12-11.453,11.453-11.453h13.743
	c6.333,0,11.453,5.12,11.453,11.453C274.324,425.634,269.204,430.821,262.872,430.821z"/>
<g style="opacity:0.07;">
	<polygon style="fill:#010101;" points="193.819,446.585 318.114,475.284 318.114,446.585 	"/>
</g>
<path style="fill:#2385C7;" d="M374.838,176.236c-8.893,0-16.168,7.208-16.168,16.168s7.208,16.168,16.168,16.168h21.625
	c7.478,0,13.541,6.131,13.541,13.608v0.202c0,0.337,0,0.674,0,1.011c0.472,7.343-5.389,13.541-12.8,13.541h-36.177
	c-8.758,0-16.573,6.535-17.044,15.293c-0.472,9.297,6.939,17.044,16.168,17.044h16.438c7.545,0,13.608,6.131,13.541,13.608v0.943
	v0.202c0.067,7.882-6.4,14.349-14.282,14.349h-3.301c-8.758,0-16.573,6.535-17.044,15.293c-0.472,9.297,6.939,17.044,16.168,17.044
	h33.145c7.815,0,13.608,6.535,13.541,14.349c0,0.067,0,0.135,0,0.202s0,0.135,0,0.202c0.067,7.815-5.726,14.349-13.541,14.349
	h-13.339c-8.758,0-16.573,6.535-17.044,15.293c-0.472,9.297,6.939,17.044,16.168,17.044h41.903V176.168L374.838,176.236
	L374.838,176.236z"/>
<path style="fill:#FEE218;" d="M322.156,224.067H189.844v-32.404h132.379v32.404H322.156z M191.394,222.451h129.213v-29.305H191.394
	V222.451z"/>
<g style="opacity:0.12;">
	<path style="fill:#010101;" d="M432.371,153.263h-77.204L148.345,314.947l131.705,131.705h152.32
		c12.665,0,22.973-10.307,22.973-22.973v-24.724v-6.939V176.236C455.343,163.571,445.036,153.263,432.371,153.263z"/>
</g>
<path style="fill:#CACACA;" d="M347.554,91.554C347.554,41.095,306.459,0,256,0s-91.554,41.095-91.554,91.554V193.28h17.448V91.554
	c0-40.96,33.145-74.105,74.105-74.105s74.105,33.145,74.105,74.105v101.794h17.448V91.554L347.554,91.554z"/>
<path style="fill:#E5E5E5;" d="M256,17.448c-40.96,0-74.105,33.145-74.105,74.105v101.794h148.211V91.554
	C330.105,50.661,296.893,17.448,256,17.448z M199.343,158.383V91.554c0-31.259,25.398-56.657,56.589-56.657
	s56.589,25.398,56.589,56.657v66.829H199.343z"/>
<path style="fill:#FFCC5B;" d="M344.724,321.415H167.276c-17.448,0-31.663-14.147-31.663-31.663V166.467
	c0-17.448,14.147-31.663,31.663-31.663h177.381c17.448,0,31.663,14.147,31.663,31.663v123.284
	C376.32,307.267,362.173,321.415,344.724,321.415z"/>
<path style="fill:#F9B342;" d="M344.724,134.804h-45.474c-7.747,0-13.945,6.265-13.945,13.945c0,7.747,6.265,13.945,13.945,13.945
	h18.661c6.467,0,11.722,5.255,11.655,11.722v0.135c0,0.269,0,0.539,0,0.876c0.404,6.4-4.648,11.722-11.048,11.722h-31.326
	c-7.545,0-14.349,5.659-14.754,13.204c-0.404,8.084,5.996,14.686,13.945,14.686h14.215c6.467,0,11.722,5.255,11.722,11.789v0.808
	v0.202c0.067,6.804-5.524,12.396-12.328,12.396h-2.829c-7.545,0-14.349,5.659-14.754,13.204
	c-0.404,8.084,5.996,14.686,13.945,14.686h28.632c6.737,0,11.789,5.659,11.722,12.396c0,0.067,0,0.135,0,0.202s0,0.135,0,0.202
	c0.067,6.737-4.985,12.396-11.722,12.396h-11.52c-7.545,0-14.349,5.659-14.754,13.204c-0.404,8.084,5.996,14.686,13.945,14.686h32
	c17.448,0,31.663-14.147,31.663-31.663V166.265C376.32,149.019,362.173,134.804,344.724,134.804z"/>
<path style="fill:#464646;" d="M281.735,212.952c0-14.215-11.52-25.735-25.735-25.735c-14.215,0-25.735,11.52-25.735,25.735
	c0,9.027,4.648,16.909,11.655,21.491l-5.928,34.493h39.949l-5.928-34.493C277.086,229.861,281.735,221.979,281.735,212.952z"/>
<g>
</g>
<g>
</g>
<g>
</g>
<g>
</g>
<g>
</g>
<g>
</g>
<g>
</g>
<g>
</g>
<g>
</g>
<g>
</g>
<g>
</g>
<g>
</g>
<g>
</g>
<g>
</g>
<g>
</g>
</svg>
