<?xml version="1.0" encoding="iso-8859-1"?>
<!-- Generator: Adobe Illustrator 19.0.0, SVG Export Plug-In . SVG Version: 6.00 Build 0)  -->
<svg xmlns="http://www.w3.org/2000/svg" xmlns:xlink="http://www.w3.org/1999/xlink" version="1.1" id="Layer_1" x="0px" y="0px" viewBox="0 0 512.079 512.079" style="enable-background:new 0 0 512.079 512.079;" xml:space="preserve">
<path style="fill:#E8EAE9;" d="M423.554,150.479c-8.533-77.867-70.4-140.8-148.267-149.333  C173.954-10.588,87.554,69.412,87.554,168.612c0,40.533,13.867,77.867,38.4,106.667c29.867,37.333,49.067,82.133,51.2,129.067  H335.02c2.133-45.867,18.133-90.667,48-124.8C411.82,245.412,428.887,199.545,423.554,150.479z"/>
<path style="fill:#66C6B9;" d="M265.687,232.612c62.933-8.533,99.2-64,81.067-125.867  C283.82,115.279,247.554,170.745,265.687,232.612z"/>
<g>
	<polygon style="fill:#4EC0AA;" points="251.82,246.479 327.554,134.479 258.22,250.745  "/>
	<polygon style="fill:#4EC0AA;" points="282.754,201.679 321.154,185.679 284.887,204.879  "/>
	<polygon style="fill:#4EC0AA;" points="296.62,188.879 295.554,147.279 292.354,188.879  "/>
	<polygon style="fill:#4EC0AA;" points="307.287,166.479 305.154,171.812 336.087,154.745  "/>
</g>
<path style="fill:#66C6B9;" d="M244.354,287.012c-51.2,2.133-87.467-38.4-80-89.6C215.554,195.279,250.754,235.812,244.354,287.012z  "/>
<g>
	<polygon style="fill:#4EC0AA;" points="257.154,295.545 182.487,217.679 252.887,299.812  "/>
	<polygon style="fill:#4EC0AA;" points="227.287,264.612 194.22,257.145 226.22,267.812  "/>
	<polygon style="fill:#4EC0AA;" points="214.487,256.079 210.22,223.012 217.687,255.012  "/>
	<polygon style="fill:#4EC0AA;" points="202.754,240.079 205.954,243.279 179.287,234.745  "/>
	<path style="fill:#4EC0AA;" d="M201.687,106.745c32,33.067,56.533,77.867,59.733,135.467c3.2,74.667,5.333,149.333,5.333,149.333   H245.42c0,0,2.133-74.667,5.333-149.333C251.82,185.679,230.487,138.745,201.687,106.745z"/>
</g>
<path style="fill:#344A5E;" d="M209.154,475.812c5.333,20.267,24.533,36.267,46.933,36.267s41.6-14.933,46.933-36.267H209.154z"/>
<path style="fill:#FFD15C;" d="M176.087,405.412h161.067c8.533,0,14.933-6.4,14.933-14.933c0-8.533-6.4-14.933-14.933-14.933  H176.087c-8.533,0-14.933,6.4-14.933,14.933S167.554,405.412,176.087,405.412z"/>
<path style="fill:#F7B64C;" d="M177.154,405.412v50.133c0,11.733,9.6,20.267,20.267,20.267h116.267  c11.733,0,20.267-9.6,20.267-20.267v-50.133H177.154z"/>
<path style="fill:#FFD15C;" d="M336.087,427.812h-160c-8.533,0-14.933,6.4-14.933,14.933c0,8.533,6.4,14.933,14.933,14.933h161.067  c8.533,0,14.933-6.4,14.933-14.933C351.02,434.212,344.62,427.812,336.087,427.812z"/>
<g>
</g>
<g>
</g>
<g>
</g>
<g>
</g>
<g>
</g>
<g>
</g>
<g>
</g>
<g>
</g>
<g>
</g>
<g>
</g>
<g>
</g>
<g>
</g>
<g>
</g>
<g>
</g>
<g>
</g>
</svg>
