<?xml version="1.0" encoding="iso-8859-1"?>
<!-- Generator: Adobe Illustrator 19.0.0, SVG Export Plug-In . SVG Version: 6.00 Build 0)  -->
<svg version="1.1" id="Layer_1" xmlns="http://www.w3.org/2000/svg" xmlns:xlink="http://www.w3.org/1999/xlink" x="0px" y="0px"
	 viewBox="0 0 508.05 508.05" style="enable-background:new 0 0 508.05 508.05;" xml:space="preserve">
<path style="fill:#F2F2F2;" d="M220.213,117.05c-0.2,0-0.4,0-0.6-0.1c-0.8,6.8-1.1,13.8-0.7,21.3c1.8,32.8,15.8,67.8,39.3,98.5
	c41.6,54.2,101.8,80.1,143.6,65v-144.4c0-10-4.4-19.5-12.1-26l-92.4-77.4l-25.9-21.7l-29-24.3c-12.6-10.6-30.8-10.6-43.4,0
	l-147.3,123.4c-7.7,6.4-12.1,16-12.1,26v329.5c0,11.7,9.5,21.2,21.2,21.2h319.9c11.7,0,21.2-9.5,21.2-21.2v-161.7
	c-8,2-16.3,3.1-25,3.1c-45.7,0-98.4-28.2-136.4-77.7c-26.3-34.3-41.9-73.7-43.9-111c-0.6-11.1,0-21.6,1.7-31.4
	c-7.5-7.1-11.8-17.5-10.3-28.9c1.7-12.5,11-23.1,23-26.9c6.5-2.1,12.6-1.9,18.1-0.5c7.9,2.1,14.8,7,19.2,13.7
	c6.6,9.7,7.9,23.2,0.9,36.4C243.513,112.25,232.013,117.35,220.213,117.05z"/>
<g>
	<rect x="99.313" y="211.35" style="fill:#CDD6E0;" width="242.8" height="20.3"/>
	<rect x="99.313" y="272.35" style="fill:#CDD6E0;" width="242.8" height="20.3"/>
	<rect x="99.313" y="333.45" style="fill:#CDD6E0;" width="242.8" height="20.3"/>
	<rect x="99.313" y="394.45" style="fill:#CDD6E0;" width="242.8" height="20.3"/>
</g>
<path style="fill:#40596B;" d="M432.613,310.35c-9.2,7.1-19.7,12-30.8,14.8c-8,2-16.3,3.1-25,3.1c-45.7,0-98.4-28.2-136.4-77.7
	c-26.3-34.3-41.9-73.7-43.9-111c-0.6-11.1,0-21.6,1.7-31.4c4.1-23.2,14.6-42.6,30.8-56.4c7.9,2.1,14.8,7,19.2,13.7
	c-0.7,0.5-1.5,1-2.2,1.5c-14.6,11.2-23.6,28.6-26.4,50c-0.8,6.8-1.1,13.8-0.7,21.3c1.8,32.8,15.8,67.8,39.3,98.5
	c41.6,54.2,101.8,80.1,143.6,65c6.1-2.3,11.9-5.3,17.1-9.3c40.9-31.5,35.4-107.7-12.2-169.8c-23.6-30.7-53.7-53.3-84.9-63.4
	c-8.4-2.8-16.6-4.5-24.5-5.2l-25.9-21.7c17.6-2.9,37-1.2,57.3,5.5c35.5,11.6,69.5,36.9,95.8,71.1
	C479.713,180.85,483.413,271.25,432.613,310.35z"/>
<g>
</g>
<g>
</g>
<g>
</g>
<g>
</g>
<g>
</g>
<g>
</g>
<g>
</g>
<g>
</g>
<g>
</g>
<g>
</g>
<g>
</g>
<g>
</g>
<g>
</g>
<g>
</g>
<g>
</g>
</svg>
