<svg id="Capa_1" enable-background="new 0 0 441.778 441.778" height="512" viewBox="0 0 441.778 441.778" width="512" xmlns="http://www.w3.org/2000/svg"><g><g><path d="m321.147 221.426c-21.8 17.261-86.704 38.363-137.29 133.298 1.047-102.518-23.346-218.256-70.989-307.604 48.54 103.815 63.756 295.831 41.057 390.416l20.653 4.241c4.483-20.405 7.071-41.179 7.733-62.059 41.256-71.488 60.213-91.742 138.836-158.292" fill="#5fa348"/><path d="m248.909 153.33c-7.102 1.842-14.6 1.423-21.452-1.197 2.903 1.618 5.614 3.56 8.081 5.787 12.372 11.473 9.429 24.595.897 33.773-8.531 9.18-19.406 13.22-30.53 6.385 1.896 12.822-6.135 21.103-16.562 24.645-12.722 4.341-26.789 1.896-32.227-14.118-1.007-3.245-1.659-6.591-1.946-9.977-.426 7.297-3.131 14.277-7.733 19.954-9.394 11.18-26.073 12.626-37.252 3.231-.054-.046-.109-.093-.163-.138-5.63-4.999-8.337-12.515-7.184-19.954-1.565.96-3.241 1.731-4.989 2.295-13.566 5.404-28.944-1.212-34.349-14.778-.025-.063-.05-.125-.075-.188-2.314-6.699-1.276-14.102 2.793-19.904-7.106 1.401-14.446-.803-19.606-5.887-10.171-10.46-9.948-27.181.499-37.365 1.166-1.297 2.51-2.423 3.991-3.342-7.127-2.079-12.744-7.583-14.966-14.668-4.166-13.995 3.802-28.718 17.798-32.884.104-.031.207-.062.311-.091 7.118-1.842 14.632-1.423 21.502 1.197-2.925-1.589-5.654-3.514-8.131-5.737-12.372-11.523-8.78-25.292.35-34.921 7.484-8.081 18.308-12.073 29.234-4.989-1.696-12.921 7.134-21.402 18.308-25.192 11.175-3.792 24.944-1.397 30.48 14.668.974 3.135 1.626 6.362 1.946 9.628.411-7.291 3.099-14.27 7.683-19.954 9.269-11.247 25.902-12.849 37.149-3.58.056.046.112.093.166.138 5.63 4.999 8.337 12.515 7.184 19.954 1.567-.946 3.241-1.699 4.989-2.245 13.54-5.395 28.89 1.206 34.285 14.745.029.073.059.147.087.222 2.514 6.774 1.524 14.352-2.643 20.254 7.105-1.366 14.428.834 19.606 5.887 10.131 10.5 9.841 27.223-.649 37.365-1.22 1.259-2.576 2.379-4.041 3.342 7.118 2.094 12.728 7.592 14.966 14.668 4.128 14.064-3.925 28.812-17.991 32.94-.04.012-.079.023-.119.035" fill="#fe7058"/><path d="m392.335 258.343c-5.416 1.401-11.133 1.087-16.364-.897 2.197 1.239 4.254 2.711 6.135 4.389 7.241 5.723 8.473 16.231 2.752 23.474-.618.783-1.306 1.508-2.053 2.168-6.087 6.585-14.716 9.977-23.148 4.989 1.298 8.569-4.19 16.703-12.622 18.707-9.677 3.292-20.354 1.496-24.445-10.726-.79-2.427-1.292-4.939-1.496-7.484-.297 5.62-2.338 11.008-5.837 15.415-7.018 8.497-19.596 9.695-28.093 2.677-.132-.109-.263-.22-.392-.333-4.213-3.759-6.272-9.374-5.488-14.966-1.115.695-2.303 1.264-3.542 1.696-10.211 4.147-21.85-.768-25.997-10.979-.066-.164-.131-.329-.194-.495-1.913-5.16-1.148-10.933 2.046-15.415-5.416 1.084-11.018-.577-14.966-4.439-7.893-7.691-8.058-20.324-.367-28.217.12-.123.244-.247.367-.367.95-.943 1.985-1.795 3.093-2.545-5.482-1.54-9.816-5.743-11.523-11.175-3.166-10.556 2.825-21.68 13.383-24.846.112-.034.225-.066.336-.098 5.453-1.405 11.208-1.075 16.462.947-2.238-1.197-4.317-2.673-6.185-4.389-9.429-8.78-6.735-19.257 0-26.74 5.313-6.833 14.954-8.497 22.249-3.842-1.297-9.977 5.388-16.214 13.869-19.157 8.504-3.796 18.475.021 22.27 8.525.382.856.692 1.743.927 2.651.739 2.389 1.239 4.846 1.496 7.334.313-5.563 2.333-10.893 5.787-15.265 7.034-8.484 19.615-9.658 28.099-2.624.131.109.26.219.388.329 4.22 3.755 6.281 9.374 5.488 14.966 1.125-.721 2.331-1.307 3.592-1.746 10.215-4.138 21.85.787 25.988 11.002.07.173.138.347.203.523 1.864 5.172 1.081 10.929-2.096 15.415 5.414-1.066 11.008.593 14.966 4.439 7.88 7.705 8.021 20.339.317 28.219-.104.107-.21.213-.317.317-.908.968-1.93 1.822-3.043 2.545 5.472 1.557 9.799 5.752 11.523 11.175 3.159 10.559-2.84 21.678-13.399 24.837-.123.037-.247.072-.37.107" fill="#fe7058"/><path d="m330.125 173.835c-3.802.06-7.412 1.684-9.977 4.489-2.169 2.743-3.441 6.087-3.642 9.578-.172-1.557-.489-3.093-.947-4.589-1.137-4.504-5.232-7.627-9.877-7.533-1.563.025-3.11.294-4.589.799-5.532 1.214-9.269 6.389-8.68 12.023-1.637-1.1-3.564-1.69-5.538-1.696-3.27.137-6.338 1.617-8.481 4.091-4.642 3.983-5.178 10.974-1.195 15.616.367.429.767.828 1.195 1.195 1.195 1.051 2.499 1.971 3.892 2.743-2.093-.803-4.297-1.273-6.535-1.397-1.269-.028-2.535.157-3.742.549-6.767 1.787-10.802 8.72-9.017 15.487.043.16.088.319.137.477 1.057 3.423 3.783 6.074 7.234 7.034-.703.461-1.355.997-1.946 1.596-4.959 4.899-5.009 12.889-.11 17.848.037.037.073.073.11.11 1.949 1.897 4.564 2.955 7.284 2.943.698.048 1.398.048 2.096 0-2.044 2.798-2.532 6.441-1.297 9.677 1.755 4.928 6.495 8.155 11.723 7.981 1.598.003 3.184-.267 4.689-.799.789-.254 1.543-.607 2.245-1.047-.513 3.521.781 7.065 3.442 9.429 2.134 2.003 4.956 3.11 7.882 3.093 3.811-.068 7.423-1.711 9.977-4.539 2.216-2.759 3.507-6.144 3.692-9.677.113 1.598.432 3.173.947 4.689 1.106 4.582 5.266 7.764 9.977 7.633 1.701-.023 3.386-.326 4.989-.897 5.298-1.239 8.752-6.344 7.931-11.723 1.608.984 3.452 1.518 5.338 1.546 3.586-.203 6.928-1.881 9.23-4.639 4.345-3.862 4.737-10.515.875-14.86-.404-.455-.847-.874-1.325-1.253-1.173-1.056-2.463-1.977-3.842-2.743 2.11.699 4.313 1.085 6.535 1.147 1.272.004 2.535-.198 3.742-.599 6.683-1.884 10.573-8.827 8.689-15.51-.019-.068-.04-.137-.059-.204-1.072-3.404-3.795-6.033-7.234-6.984.699-.467 1.336-1.019 1.896-1.646 4.946-4.873 5.005-12.833.131-17.778-.044-.044-.087-.088-.131-.131-1.943-1.908-4.561-2.965-7.284-2.943-.698-.048-1.398-.048-2.096 0 1.985-2.821 2.469-6.434 1.297-9.677-1.77-4.944-6.523-8.188-11.773-8.031-1.58-.003-3.15.267-4.639.799-.794.264-1.549.633-2.245 1.097.493-3.52-.797-7.055-3.442-9.429-2.15-2.01-4.989-3.118-7.931-3.093" fill="#f46a55"/><path d="m168.093 37.592c-5.326.068-10.385 2.344-13.969 6.285-3.015 3.828-4.758 8.503-4.989 13.369-.266-2.106-.752-4.179-1.446-6.185-1.539-6.445-7.341-10.964-13.968-10.876-2.173.025-4.329.395-6.385 1.097-7.434 2.545-13.369 8.231-12.173 16.812-2.298-1.516-4.98-2.345-7.733-2.395-4.517.095-8.802 2.022-11.873 5.338-6.037 6.585-8.431 15.764 0 23.496 1.664 1.479 3.488 2.767 5.438 3.842-2.978-1.004-6.088-1.56-9.23-1.646-1.778-.019-3.546.251-5.238.799-9.369 2.708-14.77 12.5-12.061 21.869.013.044.025.087.038.131 1.451 4.783 5.194 8.526 9.977 9.977-.975.651-1.878 1.402-2.693 2.245-6.876 6.893-6.876 18.051 0 24.944 3.489 3.338 8.375 4.787 13.12 3.892-2.818 3.94-3.51 9.02-1.846 13.569 2.306 7.006 8.887 11.71 16.264 11.623 2.323-.05 4.618-.507 6.785-1.347 1.11-.355 2.168-.859 3.143-1.496-.653 4.964 1.219 9.926 4.989 13.22 2.999 2.777 6.939 4.31 11.026 4.291 5.35-.072 10.428-2.367 14.018-6.335 3.024-3.881 4.767-8.605 4.989-13.519.172 2.238.607 4.448 1.297 6.585 1.692 6.445 7.607 10.871 14.268 10.676 2.463-.029 4.903-.451 7.234-1.247 7.407-1.78 12.218-8.932 11.076-16.462 2.219 1.423 4.798 2.185 7.434 2.195 4.917-.385 9.469-2.742 12.622-6.535 6.083-5.596 6.476-15.064.88-21.147-.46-.501-.955-.969-1.479-1.402-1.651-1.473-3.457-2.761-5.388-3.842 2.946.988 6.024 1.527 9.13 1.596 1.695-.007 3.376-.278 4.989-.799 9.396-2.717 14.81-12.537 12.092-21.934-.006-.022-.013-.044-.019-.068-1.451-4.783-5.194-8.526-9.977-9.977.987-.634 1.891-1.389 2.693-2.245 6.887-6.867 6.905-18.017.04-24.905-.013-.013-.026-.026-.04-.04-2.67-2.617-6.24-4.116-9.977-4.191-.988.003-1.975.103-2.943.3 2.818-3.94 3.51-9.02 1.846-13.569-2.467-6.92-9.119-11.456-16.462-11.225-2.225-.001-4.433.37-6.535 1.097-1.112.373-2.169.893-3.143 1.546.72-4.971-1.165-9.964-4.989-13.22-2.978-2.808-6.933-4.345-11.026-4.291" fill="#f46a55"/><path d="m301.441 213.045c-8.491 9.147-7.959 23.446 1.188 31.937s23.446 7.959 31.937-1.188 7.959-23.446-1.188-31.937c-.003-.003-.006-.006-.01-.009-9.114-8.487-23.382-7.98-31.868 1.134-.019.021-.04.041-.059.063z" fill="#985b3f"/><path d="m165.649 384.807s.3-1.696.649-4.639c.424-4.043.542-8.112.35-12.173-.314-12.77-3.739-25.27-9.977-36.418-8.588-14.656-22.545-25.391-38.911-29.933-18.508-5.288-43.202-3.492-68.694 12.173l6.435 11.623c4.241 7.633 10.277 18.558 16.712 32.476 8.485 17.377 22.267 31.614 39.361 40.657 7.967 4.112 17.063 5.497 25.891 3.941 11.143-2.501 21.093-8.752 28.184-17.707z" fill="#65b54e"/><path d="m66.223 314.715c21.004.712 41.356 7.467 58.617 19.456-3.254-5.454-5.295-11.545-5.987-17.86-.261-2.256-.093-4.542.499-6.735 1.589 9.667 4.846 18.986 9.628 27.538 11.456 8.569 21.404 18.989 29.433 30.83 5.34 7.768 9.744 16.142 13.12 24.944 1.01 2.659.009 5.663-2.395 7.184-2.41 1.884-5.889 1.458-7.773-.95-.579-.74-.959-1.614-1.107-2.541-2.43-12.112-7.431-23.561-14.668-33.575-10.635-4.517-22.376-5.768-33.723-3.592-5.69.913-11.25 2.504-16.562 4.739 21.7-12.472 36.468-11.523 43.652-9.329-9.832-10.619-21.448-19.433-34.322-26.041-5.67-1-11.504-.483-16.911 1.496-2.197.812-4.238 1.993-6.037 3.492 4.638-4.718 10.779-7.666 17.361-8.331-2.295-1.097-4.639-2.096-6.834-2.993-8.391-3.416-17.096-6.005-25.991-7.732z" fill="#5fa348"/><path d="m81.838 333.522-1.397 1.247c.432-.451.899-.868 1.397-1.247z" fill="#819b43"/><path d="m124.491 89.176c-13.645 14.738-12.76 37.748 1.98 51.394 14.738 13.645 37.748 12.76 51.394-1.98 13.613-14.703 12.767-37.648-1.89-51.31-14.731-13.694-37.775-12.852-51.468 1.88-.006.004-.01.01-.016.016z" fill="#985b3f"/><g fill="#dc8744"><ellipse cx="320.248" cy="214.941" rx="2.245" ry="3.492"/><path d="m309.971 235.644c-1.247 0-2.245 1.546-2.245 3.442s.997 3.492 2.245 3.492c1.247 0 2.245-1.546 2.245-3.492.001-1.945-.998-3.442-2.245-3.442z"/><path d="m305.682 226.415c-1.247 0-2.245 1.546-2.245 3.492s.997 3.492 2.245 3.492 2.295-1.596 2.295-3.492-1.248-3.492-2.295-3.492z"/><path d="m311.418 217.037c-.699-1.047-2.545-.947-4.141 0s-2.245 2.793-1.546 3.842c.699 1.047 2.593.947 4.141 0 1.546-.949 2.245-2.845 1.546-3.842z"/><path d="m317.655 223.671c-.699-1.047-2.545-.947-4.141 0s-2.245 2.843-1.496 3.842c.749.997 2.545.947 4.141 0 1.596-.949 2.243-2.844 1.496-3.842z"/><path d="m313.663 209.503c-.699-1.047-2.545-.997-4.141 0s-2.245 2.793-1.546 3.842c.699 1.047 2.593.947 4.141 0 1.546-.949 2.294-2.645 1.546-3.842z"/><path d="m332.071 218.733c0-1.247-1.347-2.395-3.292-2.545-1.946-.15-3.542.699-3.642 1.946s1.347 2.395 3.292 2.545c1.946.148 3.542-.699 3.642-1.946z"/><path d="m300.692 226.415c1.247 0 2.295-1.496 2.345-3.392s-.897-3.492-2.146-3.542c-1.247-.05-2.295 1.496-2.345 3.392-.048 1.895.699 3.492 2.146 3.542z"/><path d="m320.648 225.667c0 1.247 1.496 2.295 3.392 2.345s3.492-.897 3.542-2.145c.05-1.247-1.496-2.295-3.392-2.345s-3.542.797-3.542 2.145z"/><path d="m329.976 227.811c0 1.247 1.496 2.345 3.442 2.395s3.492-.947 3.542-2.195c.05-1.247-1.347-2.345-3.442-2.345-2.094.001-3.492.898-3.542 2.145z"/><path d="m327.432 232.152c-1.197-.3-2.545.997-2.993 2.843-.449 1.846 0 3.592 1.347 3.892s2.545-.947 3.043-2.793-.15-3.642-1.397-3.942z"/><path d="m336.81 236.292c-.35-1.247-2.146-1.746-3.991-1.247-1.846.499-3.043 1.946-2.693 3.143.349 1.197 2.145 1.746 3.991 1.247 1.846-.498 3.043-1.945 2.693-3.143z"/><path d="m304.883 239.236c.947-.799.699-2.643-.549-4.091s-2.993-1.996-3.941-1.197c-.947.799-.749 2.643.499 4.091 1.248 1.447 3.044 1.995 3.991 1.197z"/><path d="m329.926 242.529c-.35-1.197-2.096-1.696-3.941-1.197-1.846.499-3.043 1.946-2.693 3.143s2.096 1.746 3.941 1.197c1.845-.55 3.042-1.947 2.693-3.143z"/><path d="m313.863 233.649c0 1.247 1.496 2.345 3.392 2.395s3.492-.947 3.542-2.195c.05-1.247-1.496-2.295-3.392-2.345-1.896-.051-3.542.898-3.542 2.145z"/><path d="m312.467 245.621c0 1.247 1.496 2.295 3.392 2.345s3.542-.897 3.542-2.195c0-1.297-1.496-2.295-3.392-2.345s-3.493 1.148-3.542 2.195z"/><path d="m155.073 88.277c-1.896 0-3.392 2.345-3.392 4.989 0 2.643 1.496 5.238 3.392 5.238s3.442-2.345 3.442-5.238-1.546-4.989-3.442-4.989z"/><path d="m139.558 124.595c-1.846 0-3.392 2.345-3.392 4.989 0 2.643 1.546 5.238 3.392 5.238s3.442-2.345 3.442-5.238-1.546-4.989-3.442-4.989z"/><ellipse cx="132.723" cy="116.115" rx="3.392" ry="5.238"/><path d="m141.752 96.658c-1.097-1.546-3.892-1.446-6.235 0-2.345 1.446-3.442 4.291-2.345 5.837s3.892 1.446 6.235-.25 3.443-4.04 2.345-5.587z"/><path d="m151.031 106.685c-1.047-1.546-3.892-1.446-6.235 0-2.345 1.446-3.392 4.291-2.345 5.837s3.892 1.446 6.285 0c2.395-1.446 3.542-4.289 2.295-5.837z"/><path d="m145.194 85.285c-1.097-1.546-3.892-1.446-6.285 0-2.395 1.446-3.392 4.291-2.345 5.837s3.892 1.446 6.285 0c2.395-1.448 3.194-4.291 2.345-5.837z"/><path d="m172.931 99.203c0-1.846-2.046-3.592-4.989-3.842s-5.338 1.097-5.538 2.943 2.046 3.642 4.989 3.892c2.945.25 5.389-1.247 5.538-2.993z"/><path d="m125.24 110.926c1.896 0 3.492-2.245 3.542-4.989.05-2.743-1.347-5.288-3.242-5.338s-3.492 2.245-3.542 4.989c-.051 2.745 1.346 5.338 3.242 5.338z"/><path d="m156.02 109.53c0 1.896 2.245 3.492 4.989 3.592 2.743.1 5.288-1.397 5.338-3.292.05-1.896-2.245-3.442-4.989-3.542-2.743-.101-5.338 1.396-5.338 3.242z"/><path d="m169.789 112.972c0 1.896 2.245 3.492 4.989 3.542 2.743.05 5.288-1.347 5.338-3.242s-2.245-3.492-4.989-3.592-5.288 1.246-5.338 3.292z"/><path d="m165.997 119.507c-1.846-.449-3.892 1.446-4.589 4.291-.699 2.843 0 5.438 2.046 5.887s3.892-1.446 4.589-4.291c.699-2.844-.25-5.438-2.046-5.887z"/><path d="m180.065 125.892c-.499-1.796-3.193-2.593-5.987-1.796-2.793.799-4.589 2.943-4.091 4.739.499 1.796 3.242 2.643 5.987 1.796s4.641-3.093 4.091-4.739z"/><path d="m131.875 130.183c1.446-1.197 1.097-3.991-.799-6.185-1.896-2.195-4.539-3.043-5.987-1.796-1.446 1.247-1.097 3.991.799 6.185 1.895 2.195 4.54 3.043 5.987 1.796z"/><path d="m169.739 135.171c-.549-1.796-3.242-2.595-5.987-1.796-2.743.799-4.639 2.943-4.091 4.989.549 2.046 3.193 2.643 5.987 1.796s4.59-3.193 4.091-4.989z"/><path d="m145.394 121.802c0 1.846 2.295 3.442 4.989 3.542s5.638-1.397 5.638-3.242c0-1.846-2.295-3.492-4.989-3.592s-5.588 1.396-5.638 3.292z"/><path d="m143.348 140.11c0 1.846 2.245 3.442 4.989 3.542 2.743.1 5.288-1.397 5.338-3.242.05-1.846-2.245-3.492-4.989-3.592-2.743-.1-5.288 1.396-5.338 3.292z"/></g></g></g></svg>