<?xml version="1.0" encoding="iso-8859-1"?>
<!-- Generator: Adobe Illustrator 19.0.0, SVG Export Plug-In . SVG Version: 6.00 Build 0)  -->
<svg xmlns="http://www.w3.org/2000/svg" xmlns:xlink="http://www.w3.org/1999/xlink" version="1.1" id="Layer_1" x="0px" y="0px" viewBox="0 0 491.52 491.52" style="enable-background:new 0 0 491.52 491.52;" xml:space="preserve">
<path style="fill:#3A556A;" d="M374.166,17.246H117.354c-15.443,0-27.959,12.519-27.959,27.959v418.355  c0,15.442,12.517,27.959,27.959,27.959h256.812c15.442,0,27.959-12.518,27.959-27.959V45.206  C402.125,29.765,389.608,17.246,374.166,17.246z"/>
<path style="fill:#64798A;" d="M374.166,0H117.354c-15.443,0-27.959,12.518-27.959,27.959v418.356  c0,15.441,12.517,27.959,27.959,27.959h256.812c15.442,0,27.959-12.519,27.959-27.959V27.959C402.125,12.518,389.608,0,374.166,0z"/>
<rect x="123.904" y="34.493" style="fill:#EBF0F3;" width="243.738" height="371.354"/>
<rect x="123.904" y="385.587" style="fill:#D5D6DB;" width="243.738" height="20.275"/>
<circle style="fill:#3A556A;" cx="245.76" cy="438.784" r="25.651"/>
<path style="fill:#DC8744;" d="M239.3,345.61v-21.462c-26.87-2.752-50.989-13.423-72.331-32.062l21.462-25.578  c16.461,14.308,33.402,22.85,50.869,25.578v-57.042c-22.157-5.288-38.379-12.227-48.668-20.865  c-10.289-8.614-15.433-21.415-15.433-38.379c0-16.94,5.91-30.818,17.778-41.585c11.868-10.791,27.301-16.678,46.323-17.659v-14.691  h18.807v15.003c21.558,1.555,41.944,8.924,61.158,22.036l-19.118,27.062c-12.945-9.212-26.942-14.907-42.04-17.06v55.272h0.885  c22.539,5.288,39.097,12.466,49.673,21.462c10.6,9.02,15.888,22.109,15.888,39.264c0,17.156-6.077,31.105-18.232,41.896  c-12.155,10.767-28.21,16.653-48.213,17.634v21.176H239.3z M218.555,155.82c-5.001,4.403-7.489,9.906-7.489,16.462  c0,6.58,1.962,11.748,5.886,15.577c3.9,3.828,11.366,7.513,22.348,11.03V148.02C230.47,148.81,223.556,151.418,218.555,155.82z   M280.454,284.739c5.479-4.498,8.231-10.192,8.231-17.06c0-6.843-2.154-12.298-6.46-16.318c-4.331-3.997-12.37-7.777-24.118-11.317  v52.926C267.51,291.99,274.951,289.262,280.454,284.739z"/>
<path style="fill:#FCD462;" d="M239.3,338.488v-21.462c-26.87-2.752-50.989-13.423-72.331-32.062l21.462-25.578  c16.461,14.309,33.402,22.85,50.869,25.578v-57.042c-22.157-5.288-38.379-12.226-48.668-20.865  c-10.289-8.613-15.433-21.414-15.433-38.379c0-16.94,5.91-30.818,17.778-41.585c11.868-10.791,27.301-16.677,46.323-17.658V94.744  h18.807v15.002c21.558,1.555,41.944,8.925,61.158,22.037l-19.118,27.061c-12.945-9.212-26.942-14.906-42.04-17.06v55.272h0.885  c22.539,5.288,39.097,12.466,49.673,21.462c10.6,9.021,15.888,22.109,15.888,39.264c0,17.156-6.077,31.105-18.232,41.896  c-12.155,10.767-28.21,16.654-48.213,17.635v21.175H239.3z M218.555,148.699c-5.001,4.402-7.489,9.905-7.489,16.461  c0,6.58,1.962,11.748,5.886,15.577c3.9,3.828,11.366,7.513,22.348,11.031v-50.869C230.47,141.688,223.556,144.296,218.555,148.699z   M280.454,277.619c5.479-4.499,8.231-10.193,8.231-17.06c0-6.844-2.154-12.299-6.46-16.318c-4.331-3.996-12.37-7.777-24.118-11.317  v52.927C267.51,284.868,274.951,282.141,280.454,277.619z"/>
<g>
</g>
<g>
</g>
<g>
</g>
<g>
</g>
<g>
</g>
<g>
</g>
<g>
</g>
<g>
</g>
<g>
</g>
<g>
</g>
<g>
</g>
<g>
</g>
<g>
</g>
<g>
</g>
<g>
</g>
</svg>
