<?xml version="1.0" encoding="iso-8859-1"?>
<!-- Generator: Adobe Illustrator 19.0.0, SVG Export Plug-In . SVG Version: 6.00 Build 0)  -->
<svg version="1.1" id="Layer_1" xmlns="http://www.w3.org/2000/svg" xmlns:xlink="http://www.w3.org/1999/xlink" x="0px" y="0px"
	 viewBox="0 0 508 508" style="enable-background:new 0 0 508 508;" xml:space="preserve">
<path style="fill:#84DBFF;" d="M419.7,262.4c-0.4-2.1-0.8-4.3-1.2-6.4c-17.3-84.4-85.8-150.3-172-164.5c-6.3-1.1-12.7-1.8-19.1-2.3
	c-5.2-0.4-10.5-0.6-15.9-0.6c-13.2,0-26.2,1.2-38.8,3.5c-0.6,0.1-1.2,0.2-1.9,0.3C118.2,102.7,72.7,132,42,173
	c-2.4,3-4.5,6.2-6.7,9.4C13,215.6,0,255.4,0,298.3C0,414.1,94.6,508,211.4,508s211.4-93.9,211.4-209.7
	C422.8,286,421.8,274.1,419.7,262.4z"/>
<g>
	<path style="fill:#54C0EB;" d="M200,128.3c-0.3,6.6-9.9,7.2-16.2,9.5c-4.5,1.7-8,5.4-11.5,8.7c-8,7.5-17,14-26.8,19.2
		c-10.1,5.4-24,8.8-31.5,0.2c24-9.7,42.2-31.2,50.4-55.4c-11.5,6.3-20.3,16.3-30.3,24.8c-11.4,9.5-24.4,16.8-35.4,26.7
		c-10.9,10-19.9,23.6-19.3,38.2c-0.1-8.4-5.3-16.3-12.4-21s-15.9-6.4-24.3-6.3c-0.2,0-0.5,0-0.7,0.1c30.7-41,76.2-70.3,128.7-80.5
		c0.6-0.1,1.2-0.2,1.9-0.3c2.6,10.7,9.4,20.4,18.9,26.3C195.4,120.9,200.3,123.7,200,128.3z"/>
	<path style="fill:#54C0EB;" d="M246.4,91.5c5.2,2.9,10.2,6.1,13.7,10.5c1,1.2,1.9,2.8,1.6,4.2c-0.7,3.8-6.4,3-9.9,4.6
		c-5.9,2.7-4,12.1,1.3,15.8c5.3,3.8,12.3,4.2,18.1,7.2c2.3,1.1,4.5,3.2,4.1,5.7c-0.2,1.4-1.1,2.4-2,3.4
		c-6.9,7.7-13.9,15.5-20.8,23.3c-1.8,1.9-3.6,4-6.1,5.1c-3.1,1.6-6.8,1.5-10.4,1.4c-13.5-0.4-30.4,2.5-34,15.4
		c-0.9,3.2-0.9,6.9-3.1,9.3c-2,2.3-5.6,2.9-7.3,5.5c-2.6,4,1,9,1.7,13.7c1,7.5-7.8,14.4-14.9,11.6c-0.3-8.1-0.5-16.3-0.7-24.4
		c-0.1-1.4-0.1-2.8-0.9-3.8c-0.9-1.3-2.5-1.9-4-2.3c-7.8-2.4-17.5-4-22.9,2c-5.5,6-2.7,15.5,1.6,22.4c4.3,6.8,10.2,13.5,10.4,21.5
		c0.1,4-1.9,8.5-5.7,9.3c-5.7,1.2-9.4-6.1-9.8-11.9c-7.4,15.2-9.9,32.6-6.9,49.2c-11.9,3-23.7,6-35.6,8.9c-4.3,1.1-9,2.4-11.8,5.9
		c-2.7,3.3-3,7.9-2.9,12.1c0.2,14.5,3.9,28.8,10.7,41.6c2.4,4.3,5.2,8.7,9.1,11.6c11.1,8.3,27,4,40.4,7.7
		c11.4,3.2,20.6,12.2,26.3,22.5s8.6,22,11.3,33.5c1.3,5.3,2.6,10.9,6.4,14.8c4.5,4.5,11.2,5.7,17.4,6.7c10.7,1.7,22.3,3.3,31.7-2
		c8.1-4.5,13.2-13.4,21.9-16.7c5.9-2.2,12.4-1.4,18.5-2.8s12.4-6.6,11.1-12.7c-1.3-5.7-9-9.9-7.3-15.6c1.3-3.9,6-5,9.9-6.3
		c17.4-5.9,26.8-28.7,18.2-44.9c-1.3-2.5-3.1-5.1-3.3-8c-0.6-8.8,11.8-11.8,17.8-18.4c5.5-5.9,5.6-14.8,6.4-22.8
		c0.9-8,4-17.2,11.8-19.4c7.6-2.3,15.2,3.6,19.9,9.9c4.5,6.4,8.1,14,14.8,18.2c0.2-13.9,0.3-27.8,0.6-41.7c0.1-5,0.3-10.4,3.5-14.2
		c5.5-6.4,15.6-4.8,23.9-3c2.7,0.6,5.6,1.1,8.3,0.8C401.1,171.6,332.6,105.8,246.4,91.5z M288,227.7l0.8-0.3c2.4,0.1,4.7,0.1,7,0.2
		c-1.2,5,0.2,10.5,3.6,14.4c1.5,1.7,3.4,3,4.9,4.8c3.7,4.2,4.8,10.4,2.8,15.6c-4.5,0.3-9.1,0.6-13.6-0.5c-4.4-1.1-8.6-3.8-10.5-7.9
		c-1.1-2.6-1.2-5.4-1.3-8.2C281.4,239.1,282.1,231.1,288,227.7z M225.6,299.6c-6.9-1.2-12.8-5.5-19-8.8c-9-4.7-19.1-7.3-29.2-7.3
		c-3.6-0.1-7.2,0.2-10.7-0.6c-3.5-0.9-6.8-3.2-7.8-6.6c-1.2-4.3,1.8-8.8,5.5-11.4c3.7-2.5,8.1-3.9,11.8-6.5l0.7-6.6
		c8.1,8.2,18.1,14.5,28.9,18.6c5.2,2,10.6,3.3,16.1,3.9c5.8,0.6,11.6,0.1,17.3-0.3c1.9-0.2,3.8-0.3,5.6-0.5
		c3.9-0.3,7.8-0.6,11.7-0.9c4.7-0.3,9.6-0.8,13.4-3.6c1.5,5.7-1.2,11.8-5.4,15.9c-4.1,4.1-9.7,6.6-15.1,9.1
		C242.1,297.4,233.9,300.9,225.6,299.6z M307.2,340.7c-0.3,1.3-1,2.6-2.1,3.3c-0.9,0.5-1.8,0.7-2.8,0.7c-9,1.2-19,2.1-26.1-3.5
		c-3.3-2.6-5.5-6.3-7.5-9.7c-2.8-4.7-5.5-9.4-8.2-14c-2.8-4.7-5.6-10-4.4-15.3c4.2-0.5,8.6-0.2,12.8,0.7l1.2,1.3
		c-1.4,3.4,0.1,7.4,2.7,9.9s6.1,4,9.5,5.3c2.8,1.2,5.8,2.3,8.7,3.4c4.1,1.6,8.3,3.3,11.6,6.3C306,331.9,308.2,336.4,307.2,340.7z
		 M322.7,296.6c-0.8,0.8-1.8,1.3-3,1.6c-8.4,2.8-18.6-3.9-19.4-12.7l1.3-1.1c6.2,0,12.4-0.1,18.6-0.1c1.1-0.1,2.3,0,3.2,0.7
		c0.9,0.8,1,2,1.1,3.2C324.8,291.2,324.9,294.5,322.7,296.6z"/>
</g>
<path style="fill:#FF7058;" d="M389.4,0c-65.5,0-118.6,52.7-118.6,117.7s118.6,227.9,118.6,227.9S508,182.7,508,117.7
	S454.9,0,389.4,0z"/>
<ellipse style="fill:#FFFFFF;" cx="389.4" cy="117.7" rx="53.6" ry="53.2"/>
<g>
</g>
<g>
</g>
<g>
</g>
<g>
</g>
<g>
</g>
<g>
</g>
<g>
</g>
<g>
</g>
<g>
</g>
<g>
</g>
<g>
</g>
<g>
</g>
<g>
</g>
<g>
</g>
<g>
</g>
</svg>
