<?xml version="1.0" encoding="iso-8859-1"?>
<!-- Generator: Adobe Illustrator 19.0.0, SVG Export Plug-In . SVG Version: 6.00 Build 0)  -->
<svg xmlns="http://www.w3.org/2000/svg" xmlns:xlink="http://www.w3.org/1999/xlink" version="1.1" id="Layer_1" x="0px" y="0px" viewBox="0 0 482.086 482.086" style="enable-background:new 0 0 482.086 482.086;" xml:space="preserve">
<rect x="230.367" y="107.833" transform="matrix(0.7071 0.7071 -0.7071 0.7071 283.0648 -93.0537)" style="fill:#CE412D;" width="46.983" height="374.66"/>
<rect x="197.675" y="74.326" transform="matrix(0.7071 0.7071 -0.7071 0.7071 249.797 -79.7512)" style="fill:#D15241;" width="46.983" height="374.66"/>
<rect x="164.564" y="41.246" transform="matrix(0.7071 0.7071 -0.7071 0.7071 216.7074 -66.027)" style="fill:#E56353;" width="46.983" height="374.66"/>
<rect x="289.254" y="115.53" transform="matrix(0.7071 0.7071 -0.7071 0.7071 192.7155 -217.9339)" style="fill:#44C4A1;" width="140.347" height="16.263"/>
<path style="fill:#2F4859;" d="M478.02,82.899l-22.889-22.287l-73.487,73.487l33.129,33.129l63.247-63.247  C483.441,98.56,483.441,88.922,478.02,82.899z"/>
<rect x="349.736" y="57.369" transform="matrix(-0.7071 0.7071 -0.7071 -0.7071 742.6456 -145.8933)" style="fill:#3A556A;" width="103.604" height="46.983"/>
<path style="fill:#64798A;" d="M422.002,27.482L399.112,4.593c-6.024-6.024-15.059-6.024-21.082,0L315.385,67.84l33.129,33.129  L422.002,27.482z"/>
<path style="fill:#FCD462;" d="M38.905,344.32l-25.901,86.739c9.638,0,19.878,3.614,27.708,10.842  c7.831,7.831,11.445,17.468,10.842,27.708l86.739-25.901L38.905,344.32z"/>
<path style="fill:#64798A;" d="M40.712,441.901c-7.831-7.228-17.468-10.842-27.708-10.842L0.354,472.621  c-1.807,5.421,3.614,10.842,9.035,9.035l41.562-12.649C51.554,459.369,47.94,449.732,40.712,441.901z"/>
<g>
</g>
<g>
</g>
<g>
</g>
<g>
</g>
<g>
</g>
<g>
</g>
<g>
</g>
<g>
</g>
<g>
</g>
<g>
</g>
<g>
</g>
<g>
</g>
<g>
</g>
<g>
</g>
<g>
</g>
</svg>
