<?xml version="1.0" encoding="iso-8859-1"?>
<!-- Generator: Adobe Illustrator 19.0.0, SVG Export Plug-In . SVG Version: 6.00 Build 0)  -->
<svg xmlns="http://www.w3.org/2000/svg" xmlns:xlink="http://www.w3.org/1999/xlink" version="1.1" id="Layer_1" x="0px" y="0px" viewBox="0 0 481.882 481.882" style="enable-background:new 0 0 481.882 481.882;" xml:space="preserve">
<path style="fill:#64798A;" d="M261.713,372.856l-45.779-107.821l-43.369,18.071l45.779,107.821  C219.548,393.939,262.918,375.868,261.713,372.856z"/>
<polygon style="fill:#FCD462;" points="99.68,72.885 108.113,69.271 116.546,65.656 110.522,24.094 79.2,0 73.779,39.755 "/>
<g>
	<polygon style="fill:#64798A;" points="185.214,251.784 188.226,250.579 206.899,242.748 159.313,130.711 140.64,138.541    138.231,139.144 115.944,148.781 163.529,260.819  "/>
	<path style="fill:#64798A;" d="M147.266,110.833l-21.685-51.802c-1.205-3.012-37.948,12.047-36.744,15.661l21.685,51.802   C109.318,122.88,146.061,107.821,147.266,110.833z"/>
</g>
<path style="fill:#F6C358;" d="M148.471,113.845l-21.685-51.802c-1.205-3.012-37.948,12.047-36.744,15.661l21.685,51.802  C110.522,125.892,147.266,110.833,148.471,113.845z"/>
<path style="fill:#FCD462;" d="M160.518,133.722l-20.48-48.188c-1.807-3.614-44.574,14.456-43.369,18.071l20.48,48.188  C115.944,148.179,159.313,129.506,160.518,133.722z"/>
<path style="fill:#F6C358;" d="M88.235,34.936c1.205,2.409,3.614,3.614,6.626,2.409c2.409-1.205,3.614-3.614,2.409-6.626  c-0.602-1.807-2.409-3.012-4.819-3.012L81.609,2.409L78.598,0l-0.602,3.614l10.842,26.504  C88.235,31.322,87.633,33.129,88.235,34.936z"/>
<g>
	
		<rect x="163.095" y="251.771" transform="matrix(-0.9213 0.3888 -0.3888 -0.9213 459.531 420.7887)" style="fill:#FCD462;" width="48.187" height="10.24"/>
	<path style="fill:#FCD462;" d="M173.167,285.515l-1.807-4.819l44.574-18.673l1.807,4.819   C202.682,273.468,188.226,280.094,173.167,285.515z"/>
</g>
<rect x="169.649" y="262.083" transform="matrix(-0.9214 0.3887 -0.3887 -0.9214 471.3654 438.4492)" style="fill:#F6C358;" width="43.371" height="9.638"/>
<polygon style="fill:#DC8744;" points="167.144,270.456 211.115,251.784 209.308,253.591 169.553,270.456 "/>
<path style="fill:#F6C358;" d="M236.414,389.722l11.445-4.819c1.205-0.602,1.205-1.807,1.205-2.409l-41.562-98.184  c-0.602-1.205-1.807-1.205-2.409-1.205l-11.445,4.819c-1.205,0.602-1.205,1.807-1.205,2.409l41.562,98.184  C234.607,389.722,235.209,390.325,236.414,389.722z"/>
<g>
	
		<rect x="221.483" y="302.795" transform="matrix(0.9214 -0.3887 0.3887 0.9214 -116.6404 114.5471)" style="fill:#3A556A;" width="6.626" height="85.537"/>
	<polygon style="fill:#3A556A;" points="203.887,304.791 209.911,302.381 206.296,286.72 195.454,291.539  "/>
</g>
<path style="fill:#F6C358;" d="M271.953,400.565l-7.228-16.866c1.205,2.409-39.153,19.878-40.358,16.866l7.228,16.866  C232.198,419.84,272.555,402.974,271.953,400.565z"/>
<path style="fill:#FCD462;" d="M268.941,390.927l-7.228-18.071c1.205,3.012-42.165,21.082-43.369,18.071l7.228,18.071  C227.379,412.009,270.146,393.939,268.941,390.927z"/>
<path style="fill:#CE412D;" d="M387.002,33.732c1.205,0,2.409-0.602,3.012-2.409l1.205-7.831c0-1.205-0.602-3.012-1.807-3.012  c-1.205,0-2.409,0.602-3.012,2.409l-1.205,7.831C385.195,32.527,385.798,33.732,387.002,33.732z"/>
<path style="fill:#E56353;" d="M359.294,300.574l43.972-232.508c0-1.807,0-3.012-0.602-4.819l-12.649-34.936l-4.217-1.205  l-24.696,28.311c-1.205,1.205-1.807,2.409-1.807,4.216l-43.972,232.508L359.294,300.574z"/>
<path style="fill:#3A556A;" d="M296.649,404.179l38.551,7.228c2.409,0.602,5.421-1.205,6.024-4.216l20.48-107.219l-48.188-9.035  l-20.48,107.219C292.433,401.167,294.24,404.179,296.649,404.179z"/>
<path style="fill:#2F4859;" d="M312.913,395.144l10.842,1.807c0.602,0,1.205-0.602,1.807-1.205l16.264-87.341  c0-0.602-0.602-1.205-1.205-1.807l-10.842-1.807c-0.602,0-1.205,0.602-1.807,1.205l-16.264,87.341  C311.708,394.541,312.311,395.144,312.913,395.144z"/>
<g>
	
		<rect x="323.674" y="321.797" transform="matrix(0.9825 0.1863 -0.1863 0.9825 71.9433 -54.5248)" style="fill:#EBF0F3;" width="4.819" height="67.464"/>
	<polygon style="fill:#EBF0F3;" points="330.381,319.247 335.2,319.849 338.212,311.416 330.984,309.609  "/>
</g>
<rect x="283.457" y="32.232" transform="matrix(0.9011 0.4336 -0.4336 0.9011 94.4669 -111.1897)" style="fill:#44C4A1;" width="15.059" height="238.531"/>
<rect x="270.238" y="26.079" transform="matrix(0.9011 0.4336 -0.4336 0.9011 90.4917 -106.0668)" style="fill:#3EA69B;" width="15.059" height="238.531"/>
<rect x="256.769" y="19.062" transform="matrix(0.9011 0.4336 -0.4336 0.9011 86.1169 -100.9203)" style="fill:#31978C;" width="15.059" height="238.531"/>
<rect x="202.641" y="252.195" transform="matrix(0.9011 0.4336 -0.4336 0.9011 132.7722 -72.3203)" style="fill:#E56353;" width="44.574" height="5.421"/>
<path style="fill:#EBF0F3;" d="M225.572,295.153l-9.035-4.216l14.456-30.118l13.252,6.626l-12.047,25.901  C230.391,295.153,227.981,296.358,225.572,295.153z"/>
<rect x="200.354" y="264.656" transform="matrix(-0.4336 0.9011 -0.9011 -0.4336 556.2429 194.7399)" style="fill:#E1E6E9;" width="33.129" height="15.059"/>
<path style="fill:#D5D6DB;" d="M202.682,284.311l-9.035-4.216c-2.409-1.205-3.614-4.216-2.409-6.024l12.047-25.901l13.252,6.626  L202.682,284.311z"/>
<path style="fill:#FCD462;" d="M309.299,28.311l23.492-16.866c1.205,3.012,3.012,5.421,6.024,7.228  c3.012,1.205,6.626,1.807,9.638,0.602l1.205,28.913L309.299,28.311z"/>
<path style="fill:#64798A;" d="M338.814,18.673c-3.012-1.205-5.421-4.216-6.024-7.228l10.842-8.433c1.807-1.205,3.614,0,3.614,1.807  l0.602,13.854C345.44,19.878,341.826,19.878,338.814,18.673z"/>
<rect x="202.581" y="3.716" transform="matrix(-0.9275 0.3738 -0.3738 -0.9275 521.9818 229.6639)" style="fill:#EBF0F3;" width="72.282" height="323.461"/>
<rect x="230.897" y="3.704" transform="matrix(-0.9275 0.3738 -0.3738 -0.9275 521.989 229.6385)" style="fill:#E1E6E9;" width="15.661" height="323.461"/>
<g>
	
		<rect x="206.892" y="14.332" transform="matrix(-0.9275 0.3738 -0.3738 -0.9275 415.1551 -48.8353)" style="fill:#D5D6DB;" width="10.842" height="3.012"/>
	
		<rect x="209.393" y="21.023" transform="matrix(-0.9275 0.3738 -0.3738 -0.9275 422.4764 -36.8741)" style="fill:#D5D6DB;" width="10.842" height="3.012"/>
	
		<rect x="211.652" y="27.142" transform="matrix(-0.9275 0.3737 -0.3737 -0.9275 429.1235 -25.9047)" style="fill:#D5D6DB;" width="10.842" height="3.012"/>
	
		<rect x="208.768" y="34.982" transform="matrix(-0.9275 0.3738 -0.3738 -0.9275 431.7158 -10.7478)" style="fill:#D5D6DB;" width="16.263" height="3.012"/>
	
		<rect x="217.211" y="40.262" transform="matrix(-0.9275 0.3738 -0.3738 -0.9275 444.7375 -2.7121)" style="fill:#D5D6DB;" width="10.842" height="3.012"/>
	
		<rect x="219.48" y="46.382" transform="matrix(-0.9275 0.3738 -0.3738 -0.9275 451.3999 8.2354)" style="fill:#D5D6DB;" width="10.842" height="3.012"/>
	
		<rect x="221.981" y="53.073" transform="matrix(-0.9275 0.3738 -0.3738 -0.9275 458.7212 20.1966)" style="fill:#D5D6DB;" width="10.842" height="3.012"/>
	
		<rect x="218.862" y="60.359" transform="matrix(-0.9275 0.3738 -0.3738 -0.9275 460.6576 34.3943)" style="fill:#D5D6DB;" width="16.263" height="3.012"/>
	
		<rect x="227.304" y="65.634" transform="matrix(-0.9275 0.3738 -0.3738 -0.9275 473.677 42.4183)" style="fill:#D5D6DB;" width="10.842" height="3.012"/>
	
		<rect x="229.805" y="72.312" transform="matrix(-0.9275 0.3738 -0.3738 -0.9275 480.9938 54.3563)" style="fill:#D5D6DB;" width="10.842" height="3.012"/>
	
		<rect x="232.859" y="78.789" transform="matrix(-0.9275 0.3738 -0.3738 -0.9275 489.3008 65.7001)" style="fill:#D5D6DB;" width="10.842" height="3.012"/>
	
		<rect x="229.181" y="86.307" transform="matrix(-0.9275 0.3738 -0.3738 -0.9275 490.2467 80.5522)" style="fill:#D5D6DB;" width="16.263" height="3.012"/>
	
		<rect x="237.629" y="91.564" transform="matrix(-0.9275 0.3738 -0.3738 -0.9275 503.271 88.5392)" style="fill:#D5D6DB;" width="10.842" height="3.012"/>
	
		<rect x="240.683" y="98.017" transform="matrix(-0.9275 0.3738 -0.3738 -0.9275 511.5689 99.8365)" style="fill:#D5D6DB;" width="10.842" height="3.012"/>
	
		<rect x="242.952" y="104.137" transform="matrix(-0.9275 0.3738 -0.3738 -0.9275 518.2313 110.7841)" style="fill:#D5D6DB;" width="10.842" height="3.012"/>
	
		<rect x="240.064" y="112" transform="matrix(-0.9275 0.3738 -0.3738 -0.9275 520.8289 126.007)" style="fill:#D5D6DB;" width="16.263" height="3.012"/>
	
		<rect x="247.948" y="117.524" transform="matrix(-0.9275 0.3738 -0.3738 -0.9275 532.8646 134.7203)" style="fill:#D5D6DB;" width="10.842" height="3.012"/>
	
		<rect x="250.776" y="123.394" transform="matrix(-0.9275 0.3738 -0.3738 -0.9275 540.5107 144.9786)" style="fill:#D5D6DB;" width="10.842" height="3.012"/>
	
		<rect x="253.277" y="130.073" transform="matrix(-0.9275 0.3738 -0.3738 -0.9275 547.8276 156.9166)" style="fill:#D5D6DB;" width="10.842" height="3.012"/>
	
		<rect x="250.383" y="137.93" transform="matrix(-0.9275 0.3738 -0.3738 -0.9275 550.4113 172.1301)" style="fill:#D5D6DB;" width="16.263" height="3.012"/>
	
		<rect x="258.6" y="142.67" transform="matrix(-0.9275 0.3738 -0.3738 -0.9275 562.7969 179.2079)" style="fill:#D5D6DB;" width="10.842" height="3.012"/>
	
		<rect x="261.095" y="149.324" transform="matrix(-0.9275 0.3738 -0.3738 -0.9275 570.0931 191.1017)" style="fill:#D5D6DB;" width="10.842" height="3.012"/>
	
		<rect x="263.596" y="156.003" transform="matrix(-0.9275 0.3738 -0.3738 -0.9275 577.41 203.0397)" style="fill:#D5D6DB;" width="10.842" height="3.012"/>
	
		<rect x="260.477" y="163.301" transform="matrix(-0.9275 0.3738 -0.3738 -0.9275 579.3509 217.2606)" style="fill:#D5D6DB;" width="16.263" height="3.012"/>
	
		<rect x="268.907" y="168.588" transform="matrix(-0.9275 0.3738 -0.3738 -0.9275 592.3516 225.3123)" style="fill:#D5D6DB;" width="10.842" height="3.012"/>
	
		<rect x="271.414" y="175.284" transform="matrix(-0.9275 0.3738 -0.3738 -0.9275 599.6868 237.2829)" style="fill:#D5D6DB;" width="10.842" height="3.012"/>
	
		<rect x="273.69" y="181.374" transform="matrix(-0.9275 0.3738 -0.3738 -0.9275 606.3495 248.1701)" style="fill:#D5D6DB;" width="10.842" height="3.012"/>
	
		<rect x="270.796" y="189.237" transform="matrix(-0.9275 0.3738 -0.3738 -0.9275 608.9355 263.3953)" style="fill:#D5D6DB;" width="16.263" height="3.012"/>
	
		<rect x="279.244" y="194.506" transform="matrix(-0.9275 0.3738 -0.3738 -0.9275 621.9643 271.4055)" style="fill:#D5D6DB;" width="10.842" height="3.012"/>
	
		<rect x="281.508" y="200.656" transform="matrix(-0.9275 0.3738 -0.3738 -0.9275 628.6263 282.4133)" style="fill:#D5D6DB;" width="10.842" height="3.012"/>
	
		<rect x="284.567" y="207.085" transform="matrix(-0.9275 0.3738 -0.3738 -0.9275 636.9269 293.662)" style="fill:#D5D6DB;" width="10.842" height="3.012"/>
	
		<rect x="281.121" y="215.168" transform="matrix(-0.9275 0.3738 -0.3738 -0.9275 638.5295 309.5162)" style="fill:#D5D6DB;" width="16.263" height="3.012"/>
	
		<rect x="289.338" y="219.865" transform="matrix(-0.9275 0.3738 -0.3738 -0.9275 650.8994 316.5127)" style="fill:#D5D6DB;" width="10.842" height="3.012"/>
	
		<rect x="292.391" y="226.337" transform="matrix(-0.9275 0.3738 -0.3738 -0.9275 659.204 327.8449)" style="fill:#D5D6DB;" width="10.842" height="3.012"/>
	
		<rect x="294.886" y="233.033" transform="matrix(-0.9275 0.3738 -0.3738 -0.9275 666.5161 339.8199)" style="fill:#D5D6DB;" width="10.842" height="3.012"/>
	
		<rect x="291.773" y="240.314" transform="matrix(-0.9275 0.3738 -0.3738 -0.9275 668.4619 354.0038)" style="fill:#D5D6DB;" width="16.263" height="3.012"/>
	
		<rect x="299.657" y="245.843" transform="matrix(-0.9275 0.3738 -0.3738 -0.9275 680.4998 362.7287)" style="fill:#D5D6DB;" width="10.842" height="3.012"/>
	
		<rect x="302.71" y="252.267" transform="matrix(-0.9275 0.3738 -0.3738 -0.9275 688.7864 373.968)" style="fill:#D5D6DB;" width="10.842" height="3.012"/>
	
		<rect x="304.965" y="258.407" transform="matrix(-0.9275 0.3737 -0.3737 -0.9275 695.4151 384.9966)" style="fill:#D5D6DB;" width="10.842" height="3.012"/>
	
		<rect x="302.092" y="266.244" transform="matrix(-0.9275 0.3738 -0.3738 -0.9275 698.0442 400.1269)" style="fill:#D5D6DB;" width="16.263" height="3.012"/>
	
		<rect x="310.512" y="271.539" transform="matrix(-0.9275 0.3737 -0.3737 -0.9275 711.015 408.2366)" style="fill:#D5D6DB;" width="10.842" height="3.012"/>
	
		<rect x="312.81" y="277.668" transform="matrix(-0.9275 0.3738 -0.3738 -0.9275 717.7489 419.1542)" style="fill:#D5D6DB;" width="10.842" height="3.012"/>
	
		<rect x="315.281" y="284.338" transform="matrix(-0.9275 0.3737 -0.3737 -0.9275 724.991 431.1244)" style="fill:#D5D6DB;" width="10.842" height="3.012"/>
	
		<rect x="312.387" y="292.18" transform="matrix(-0.9275 0.3738 -0.3738 -0.9275 727.5824 446.2706)" style="fill:#D5D6DB;" width="16.263" height="3.012"/>
</g>
<path style="fill:#F6C358;" d="M393.628,157.816H88.838c-17.468,0-31.322,13.252-31.322,29.515s13.854,29.515,31.322,29.515h304.188  c17.468,0,31.322-13.252,31.322-29.515C424.951,171.068,411.096,157.816,393.628,157.816z"/>
<polygon style="fill:#DC8744;" points="394.231,216.245 88.838,216.245 88.838,216.847 388.207,266.24 "/>
<path style="fill:#FCD462;" d="M88.838,216.847l28.913,247.567c1.205,10.24,10.24,17.468,21.082,17.468h206.005  c10.842,0,19.878-7.831,21.082-17.468l22.889-198.174L88.838,216.847z"/>
<path style="fill:#F6C358;" d="M148.471,285.515v160.828c0,4.819,4.216,9.035,9.638,9.035V276.48  C152.687,276.48,148.471,280.696,148.471,285.515z"/>
<path style="fill:#DC8744;" d="M158.108,276.48v178.899c5.421,0,9.638-4.216,9.638-9.035V285.515  C167.746,280.696,163.529,276.48,158.108,276.48z"/>
<path style="fill:#F6C358;" d="M202.08,285.515v160.828c0,4.819,4.216,9.035,9.638,9.035V276.48  C206.296,276.48,202.08,280.696,202.08,285.515z"/>
<path style="fill:#DC8744;" d="M211.718,276.48v178.899c5.421,0,9.638-4.216,9.638-9.035V285.515  C221.355,280.696,217.139,276.48,211.718,276.48z"/>
<path style="fill:#F6C358;" d="M256.292,285.515v160.828c0,4.819,4.216,9.035,9.638,9.035V276.48  C260.508,276.48,256.292,280.696,256.292,285.515z"/>
<path style="fill:#DC8744;" d="M265.929,276.48v178.899c5.421,0,9.638-4.216,9.638-9.035V285.515  C275.567,280.696,271.351,276.48,265.929,276.48z"/>
<path style="fill:#F6C358;" d="M309.901,285.515v160.828c0,4.819,4.216,9.035,9.638,9.035V276.48  C314.118,276.48,309.901,280.696,309.901,285.515z"/>
<path style="fill:#DC8744;" d="M319.539,276.48v178.899c5.421,0,9.638-4.216,9.638-9.035V285.515  C329.176,280.696,324.96,276.48,319.539,276.48z"/>
<g>
</g>
<g>
</g>
<g>
</g>
<g>
</g>
<g>
</g>
<g>
</g>
<g>
</g>
<g>
</g>
<g>
</g>
<g>
</g>
<g>
</g>
<g>
</g>
<g>
</g>
<g>
</g>
<g>
</g>
</svg>
