<?xml version="1.0" encoding="iso-8859-1"?>
<!-- Generator: Adobe Illustrator 19.0.0, SVG Export Plug-In . SVG Version: 6.00 Build 0)  -->
<svg version="1.1" id="Capa_1" xmlns="http://www.w3.org/2000/svg" xmlns:xlink="http://www.w3.org/1999/xlink" x="0px" y="0px"
	 viewBox="0 0 514.133 514.133" style="enable-background:new 0 0 514.133 514.133;" xml:space="preserve">
<rect x="75.733" y="13.867" style="fill:#F05540;" width="51.2" height="110.933"/>
<rect x="275.2" y="215.467" style="fill:#E8EAE9;" width="237.867" height="298.667"/>
<rect x="32" y="177.067" style="fill:#F3F3F3;" width="242.133" height="337.067"/>
<rect x="105.6" y="382.933" style="fill:#344A5E;" width="96" height="130.133"/>
<g>
	<polygon style="fill:#F3705A;" points="306.133,177.067 1.067,177.067 33.067,91.733 275.2,91.733 	"/>
	<rect x="57.6" style="fill:#F3705A;" width="88.533" height="49.067"/>
</g>
<rect x="312.533" y="266.667" style="fill:#415A6B;" width="164.267" height="196.267"/>
<g>
	<rect x="401.067" y="279.467" style="fill:#8AD7F8;" width="61.867" height="77.867"/>
	<rect x="325.333" y="279.467" style="fill:#8AD7F8;" width="61.867" height="77.867"/>
	<rect x="325.333" y="371.2" style="fill:#8AD7F8;" width="61.867" height="77.867"/>
	<rect x="401.067" y="371.2" style="fill:#8AD7F8;" width="61.867" height="77.867"/>
</g>
<rect x="71.467" y="226.133" style="fill:#415A6B;" width="164.267" height="104.533"/>
<g>
	<rect x="160" y="240" style="fill:#8AD7F8;" width="61.867" height="77.867"/>
	<rect x="85.333" y="240" style="fill:#8AD7F8;" width="61.867" height="77.867"/>
</g>
<g>
</g>
<g>
</g>
<g>
</g>
<g>
</g>
<g>
</g>
<g>
</g>
<g>
</g>
<g>
</g>
<g>
</g>
<g>
</g>
<g>
</g>
<g>
</g>
<g>
</g>
<g>
</g>
<g>
</g>
</svg>
