<?xml version="1.0" encoding="iso-8859-1"?>
<!-- Generator: Adobe Illustrator 19.0.0, SVG Export Plug-In . SVG Version: 6.00 Build 0)  -->
<svg xmlns="http://www.w3.org/2000/svg" xmlns:xlink="http://www.w3.org/1999/xlink" version="1.1" id="Layer_1" x="0px" y="0px" viewBox="0 0 514.133 514.133" style="enable-background:new 0 0 514.133 514.133;" xml:space="preserve">
<g>
	<ellipse style="fill:#4EC0AA;" cx="275.2" cy="122.667" rx="106.667" ry="121.6"/>
	<ellipse style="fill:#4EC0AA;" cx="265.6" cy="234.667" rx="106.667" ry="121.6"/>
	<path style="fill:#4EC0AA;" d="M412.8,134.4c40.533,19.2,49.067,66.133,20.267,105.6s-85.333,56.533-125.867,37.333   s-49.067-66.133-20.267-105.6S372.267,115.2,412.8,134.4z"/>
	<path style="fill:#4EC0AA;" d="M236.8,236.8c-2.133,55.467-41.6,84.267-88.533,65.067c-46.933-19.2-84.267-81.067-83.2-136.533   s41.6-84.267,88.533-65.067S238.933,181.333,236.8,236.8z"/>
</g>
<path style="fill:#344A5E;" d="M276.267,406.4l5.333,78.933l-40.533,1.067c4.267-80,6.4-155.733-60.8-261.333  c2.133,2.133,37.333,26.667,67.2,81.067L254.933,92.8l12.8,185.6c27.733-42.667,64-76.8,97.067-98.133  c-3.2,2.133-13.867,11.733-27.733,28.8C292.267,263.467,270.933,334.933,276.267,406.4z"/>
<path style="fill:#F7B64C;" d="M301.867,513.067c-44.8-55.467-114.133-89.6-190.933-89.6C70.4,423.467,33.067,432,0,449.067v64  H301.867z"/>
<path style="fill:#FFD15C;" d="M514.133,513.067v-89.6c0,0,0,0-1.067,0c-120.533,0-227.2,35.2-298.667,89.6H514.133z"/>
<g>
</g>
<g>
</g>
<g>
</g>
<g>
</g>
<g>
</g>
<g>
</g>
<g>
</g>
<g>
</g>
<g>
</g>
<g>
</g>
<g>
</g>
<g>
</g>
<g>
</g>
<g>
</g>
<g>
</g>
</svg>
