<?xml version="1.0" encoding="iso-8859-1"?>
<!-- Generator: Adobe Illustrator 19.0.0, SVG Export Plug-In . SVG Version: 6.00 Build 0)  -->
<svg version="1.1" id="Capa_1" xmlns="http://www.w3.org/2000/svg" xmlns:xlink="http://www.w3.org/1999/xlink" x="0px" y="0px"
	 viewBox="0 0 468.293 468.293" style="enable-background:new 0 0 468.293 468.293;" xml:space="preserve">
<path style="fill:#D5D6DB;" d="M73.456,5.23L0,78.685v363.894c0,11.313,9.171,20.483,20.483,20.483h284.851
	c11.313,0,20.483-9.171,20.483-20.483V25.713c0-11.313-9.171-20.483-20.483-20.483H73.456z"/>
<g>
	<polygon style="fill:#64798A;" points="73.456,78.685 73.455,5.231 0,78.685 	"/>
	<path style="fill:#64798A;" d="M265.146,132.193H60.672c-3.448,0-6.244-2.796-6.244-6.244v0c0-3.448,2.795-6.244,6.244-6.244
		h204.475c3.448,0,6.244,2.795,6.244,6.244v0C271.39,129.398,268.595,132.193,265.146,132.193z"/>
	<path style="fill:#64798A;" d="M265.146,190.163H60.672c-3.448,0-6.244-2.795-6.244-6.244l0,0c0-3.448,2.795-6.244,6.244-6.244
		h204.475c3.448,0,6.244,2.795,6.244,6.244l0,0C271.39,187.368,268.595,190.163,265.146,190.163z"/>
	<path style="fill:#64798A;" d="M202.707,248.133H60.672c-3.448,0-6.244-2.795-6.244-6.244l0,0c0-3.448,2.795-6.244,6.244-6.244
		h142.036c3.448,0,6.244,2.796,6.244,6.244l0,0C208.951,245.338,206.155,248.133,202.707,248.133z"/>
	<path style="fill:#64798A;" d="M165.244,306.103H60.672c-3.448,0-6.244-2.796-6.244-6.244l0,0c0-3.448,2.795-6.244,6.244-6.244
		h104.572c3.448,0,6.244,2.795,6.244,6.244l0,0C171.488,303.307,168.692,306.103,165.244,306.103z"/>
	<path style="fill:#64798A;" d="M140.268,364.073H60.672c-3.448,0-6.244-2.795-6.244-6.244l0,0c0-3.448,2.795-6.244,6.244-6.244
		h79.597c3.448,0,6.244,2.796,6.244,6.244l0,0C146.512,361.277,143.716,364.073,140.268,364.073z"/>
	<path style="fill:#64798A;" d="M265.146,422.043H60.672c-3.448,0-6.244-2.796-6.244-6.244v0c0-3.448,2.795-6.244,6.244-6.244
		h204.475c3.448,0,6.244,2.795,6.244,6.244v0C271.39,419.247,268.595,422.043,265.146,422.043z"/>
</g>
<polygon style="fill:#3A556A;" points="221.696,364.09 197.55,337.811 185.734,372.902 "/>
<path style="fill:#EBF0F3;" d="M462.892,141.417l-23.098-25.139c-7.654-8.33-20.612-8.878-28.942-1.224l-15.083,13.859
	l50.816,55.305l15.083-13.859C469.998,162.705,470.546,149.747,462.892,141.417z"/>
<rect x="403.409" y="125.948" transform="matrix(-0.7364 0.6766 -0.6766 -0.7364 828.8757 4.0304)" style="fill:#44C4A1;" width="20.486" height="75.114"/>
<path style="fill:#EBF0F3;" d="M246.591,334.504c-4.875,4.48-12.735,3.858-17.556-1.389c-4.821-5.247-4.776-13.131,0.099-17.611
	c-4.875,4.48-12.735,3.858-17.556-1.389c-2.055-2.237-3.171-4.954-3.461-7.681l-10.566,31.377l24.146,26.279l32.157-7.879
	c-2.693-0.519-5.306-1.86-7.362-4.097C241.671,346.868,241.715,338.983,246.591,334.504z"/>
<g>
	<path style="fill:#F6C358;" d="M380.686,142.772l-170.083,156.28l-2.486,7.382c0.289,2.727,1.405,5.445,3.461,7.681
		c4.821,5.247,12.681,5.868,17.556,1.389c-0.653,0.6-1.204,1.268-1.683,1.975l170.128-156.322L380.686,142.772z"/>
	<path style="fill:#F6C358;" d="M414.756,179.852L245.854,335.047c0.242-0.189,0.507-0.332,0.737-0.543
		c-4.875,4.48-4.919,12.364-0.099,17.611c2.055,2.237,4.668,3.578,7.362,4.097l7.565-1.854l170.083-156.28L414.756,179.852z"/>
</g>
<path style="fill:#FCD462;" d="M397.579,161.157L227.45,317.479c-3.101,4.576-2.591,11.092,1.584,15.636
	c4.594,4.999,11.918,5.743,16.819,1.932l168.902-155.195L397.579,161.157z"/>
<g>
</g>
<g>
</g>
<g>
</g>
<g>
</g>
<g>
</g>
<g>
</g>
<g>
</g>
<g>
</g>
<g>
</g>
<g>
</g>
<g>
</g>
<g>
</g>
<g>
</g>
<g>
</g>
<g>
</g>
</svg>
