<?xml version="1.0" encoding="iso-8859-1"?>
<!-- Generator: Adobe Illustrator 19.0.0, SVG Export Plug-In . SVG Version: 6.00 Build 0)  -->
<svg version="1.1" id="Capa_1" xmlns="http://www.w3.org/2000/svg" xmlns:xlink="http://www.w3.org/1999/xlink" x="0px" y="0px"
	 viewBox="0 0 512 512" style="enable-background:new 0 0 512 512;" xml:space="preserve">
<path style="fill:#AEADB3;" d="M496.454,90.787c-2.099-4.395-6.2-7.496-10.999-8.32c-4.803-0.824-9.7,0.734-13.143,4.178
	l-85.813,85.818l-46.953-46.953l85.814-85.816c3.443-3.443,5.001-8.344,4.178-13.143s-3.926-8.9-8.319-10.998
	C399.916,5.377,376.12,0,352.402,0c-42.627,0-82.701,16.6-112.842,46.738c-45.197,45.197-58.838,113.031-35.485,171.813
	L18.522,404.109c-0.066,0.066-0.133,0.135-0.197,0.201C6.512,416.225,0.01,432.012,0.01,448.801
	c0,16.881,6.574,32.752,18.512,44.688C30.458,505.426,46.329,512,63.21,512s32.751-6.574,44.688-18.512l185.564-185.565
	c18.662,7.387,38.843,11.26,58.966,11.26c0.003,0,0.006,0,0.008,0c42.622,0,82.693-16.6,112.833-46.74
	C513.016,224.699,525.547,151.695,496.454,90.787z"/>
<path style="fill:#8B8892;" d="M496.454,90.787c-2.099-4.395-6.2-7.496-10.999-8.32c-4.803-0.824-9.7,0.734-13.143,4.178
	l-85.813,85.818l-23.477-23.477L18.521,493.488c0.001,0,0.001,0,0.001,0C30.458,505.426,46.329,512,63.21,512
	s32.751-6.574,44.688-18.512l185.564-185.565c18.662,7.387,38.843,11.26,58.966,11.26c0.003,0,0.006,0,0.008,0
	c42.622,0,82.693-16.6,112.833-46.74C513.016,224.699,525.547,151.695,496.454,90.787z"/>
<g>
</g>
<g>
</g>
<g>
</g>
<g>
</g>
<g>
</g>
<g>
</g>
<g>
</g>
<g>
</g>
<g>
</g>
<g>
</g>
<g>
</g>
<g>
</g>
<g>
</g>
<g>
</g>
<g>
</g>
</svg>
