<svg id="Capa_1" enable-background="new 0 0 506.007 506.007" height="512" viewBox="0 0 506.007 506.007" width="512" xmlns="http://www.w3.org/2000/svg"><g><g><path d="m380.11 279.418c.399-9.977.799-19.307 1.496-28.984.164-2.425 1.254-4.692 3.043-6.335-.764-11.736-2.347-23.405-4.739-34.921-4.483-17.121-12.206-33.227-22.749-47.443-12.322-17.81-42.503-30.48-48.54-51.932-1.097-.599-2.245-1.247-3.392-1.796-72.647-34.694-159.664-3.925-194.358 68.722s-3.925 159.664 68.722 194.358 159.664 3.925 194.358-68.722c2.417-5.061 4.539-10.258 6.357-15.563.3-.897.499-1.896.799-2.793-.755-1.407-1.102-2.998-.997-4.591z" fill="#ebf0f3"/><g fill="#27a2db"><path d="m338.304 281.961c-.329-.482-.8-.847-1.347-1.047-.681-.294-1.382-.543-2.096-.749-.463-.267-1.034-.267-1.496 0-.423.388-.893.723-1.397.997h-1.247c-.649-.449-.449-.749-.699-1.247-.25-.499-1.247-.947-1.846-1.347l-1.147-.847c-.542-.123-1.104-.123-1.646 0h-5.837c-.944.125-1.9.125-2.843 0-.997-.3-1.646-1.247-2.395-1.896l-1.097-.749c-.608-.254-1.179-.589-1.696-.997-.451-.598-.615-1.364-.449-2.096.101-1.14 0-2.288-.3-3.392 0-.649-.499-1.746-1.197-1.846-.648-.05-1.298-.05-1.946 0h-1.546c-.545.1-1.101.1-1.646 0-1.347-.499-1.896-2.295-2.545-3.442s-.649-1.646-1.247-1.946h-1.247c-1.347-.075-2.695-.075-4.041 0-.69.203-1.436.053-1.996-.399l-.799-.897c-.421-.295-.764-.689-.997-1.147l-.35-1.047-.947-1.247c-.52-.745-1.25-1.317-2.096-1.646-1.658-.191-3.331-.191-4.989 0-1.172.203-2.37.203-3.542 0-.749-.399-.749-1.496-1.546-1.646-1.051-.009-2.085.267-2.993.799-1.097.399-2.245 0-3.342 0-.991.072-1.981-.154-2.843-.649-.799-.399-1.347-.997-2.245-1.047-.897-.05-2.643 0-3.991 0h-1.347c-.856-.173-1.739-.173-2.593 0l-1.197.649h-.599c-.449 0-.649.749-1.147.947-.595.128-1.167.347-1.696.649-.847.649-1.047 1.546-2.145 1.796h-1.147c-.449 0-.649.449-1.147.499-.582.051-1.165.051-1.746 0h-1.446c-1.047-.35-1.896-1.397-2.893-1.896s-1.496-.897-2.245-1.347c-.627-.513-1.335-.916-2.096-1.197h-1.097c-.586-.115-1.134-.372-1.596-.749-.906-.646-1.856-1.231-2.843-1.746-.849-.399-1.696-.749-2.046-1.696s-.449-1.596-.699-2.345c-.289-.535-.507-1.104-.649-1.696-.048-.564-.048-1.132 0-1.696 0-1.147 2.893-2.693.449-3.093-.698-.05-1.398-.05-2.096 0-.69-.148-1.405-.148-2.096 0-.947.399-1.746 1.197-2.743 1.546-.827.125-1.668.125-2.495 0-.527.097-1.069.097-1.596 0-.919-.41-1.493-1.339-1.446-2.345-.256-1.225.035-2.499.799-3.492.633-.767 1.373-1.438 2.195-1.996l2.495-2.195c.599-.499 1.047-.699 1.047-1.496.148-.847-.07-1.717-.599-2.395-.699-.749-1.596-.499-2.495-.449s-2.993-.35-4.041.449c-.379.286-.615.724-.649 1.197-.167.551-.42 1.073-.749 1.546-.305.809-.673 1.592-1.097 2.345-.749.997-.997 1.446-2.195 1.596-.863.05-1.73.05-2.593 0-.975.145-1.968.145-2.943 0-1.032-.424-1.978-1.034-2.793-1.796-.855-.734-1.435-1.737-1.646-2.843 0-1.646 0-3.292 0-4.989-.075-1.445-.075-2.894 0-4.341.048-.532.048-1.065 0-1.596-.1-.443-.1-.903 0-1.347.662-.962 1.577-1.721 2.643-2.195.759-.423 1.627-.614 2.495-.549h2.195c1.135-.209 2.229-.596 3.242-1.147h.799l.897-.499c.925-.148 1.868-.148 2.793 0 1.496 0 3.143-1.696 4.339-2.643.695-.648 1.445-1.232 2.245-1.746.957-.27 1.868-.692 2.693-1.247.464-.626 1.219-.965 1.996-.897.649 0 .897 0 1.147.847.25.849 0 1.197.399 1.696l.897.799c.947.897.499 2.643 1.097 3.692.339.439.705.855 1.097 1.247l.847.849c.623.15 1.273.15 1.896 0h2.195c.664.075 1.332.075 1.996 0 1.147 0 1.297-1.646 1.846-2.495.461-.656.706-1.442.699-2.245 0-.847 0-1.646 0-2.495.106-.739-.154-1.483-.699-1.996-.667-.671-1.162-1.492-1.446-2.395 0-.649.649-1.996 1.397-2.096.549.006 1.082-.189 1.496-.549.448-.421.805-.931 1.047-1.496.54-.952 1.14-1.868 1.796-2.743.449-.699.847-1.596 1.646-1.896s2.245 0 3.093-1.097c.654-.877 1.16-1.853 1.496-2.893.3-1.047 0-2.046.35-3.043s.3 0 .399-.699v-1.147c.104-.775.542-1.469 1.197-1.896 1.496-.847 3.242 0 4.639-.799l.649-.499c.35-.137.609-.435.699-.799.1-.595.1-1.201 0-1.796 0-.549 0-1.097 0-1.596s0-1.446 0-2.145-.549-1.596.35-1.896c.877-.125 1.767-.125 2.643 0 .561-.097 1.135-.097 1.696 0 .949.316 1.944.467 2.943.449.947 0 2.345.35 3.193 0l1.197-1.047c.282-.241.46-.58.499-.947.273-.602.273-1.294 0-1.896-.687-1.239-1.897-2.1-3.292-2.345-1.197 0-2.395 0-3.592 0-.99-.04-1.938-.408-2.693-1.047-1.397-1.147-1.297-2.893-1.397-4.589 0-.799 0-1.397.549-1.996 1.231-.681 2.643-.96 4.041-.799.875-.15 1.77-.15 2.643 0l.799.699h.649c.897.35 1.047.997.997 1.846-.125 1.261-.125 2.53 0 3.792.25 1.596 2.395 2.943 3.892 3.292.768.201 1.576.201 2.345 0 .902-.508 1.698-1.187 2.345-1.996.335-.452.54-.987.599-1.546.292-.676.413-1.413.35-2.145 0-.799-.947-1.496-1.596-1.946l-1.097-.599c-.699 0-1.297 0-1.996-.35s-1.097-1.247-1.896-1.646-1.247-.35-1.247-1.197.997-2.046 1.397-2.545c.399-.499.799-.749.799-1.397-.009-.605-.26-1.181-.699-1.596-.587-.354-1.26-.543-1.946-.549-.618-.172-1.254-.273-1.896-.3-.997 0-1.996 0-2.993 0s-1.397 0-1.796 0-.25-1.097-.25-1.646v-1.197-1.047l-1.247-1.147c-1.344-.913-2.627-1.913-3.842-2.993-.749-.799-1.197-1.596-2.395-1.596-.856.019-1.654.445-2.146 1.147-.499.699-.449 1.796-1.397 1.896-.83.075-1.665.075-2.495 0-1.347 0-1.047-1.347-1.047-2.295-.078-.947.269-1.88.947-2.545l.997-.847c.604-.173 1.242-.173 1.846 0 1.097 0 .847-.749.847-1.596 0-.849 0-1.546 0-2.345-.076-1.126-.665-2.156-1.596-2.793-.997-.799-2.545-.499-3.742-.449-.596.076-1.2.076-1.796 0-.617-.342-1.187-.761-1.696-1.247-.724-.448-1.311-1.087-1.696-1.846-.35-.699-.599-1.397-.997-2.096l-.749-1.197c0-.549 0-.849-.35-1.446-.35-.598-2.195-.749-3.342-.799 0-1.347 1.696-1.397 2.545-1.746.58-.398 1.22-.7 1.896-.897.747-.051 1.498-.051 2.245 0 1.407-.081 2.817.037 4.191.35.678.233 1.27.67 1.696 1.247.699.799 1.147 2.345 2.245 2.595h1.197c.449.154.847.43 1.147.799 1.072 1.22 2.222 2.37 3.442 3.442.947.749 2.046 0 2.993.799.499.473.935 1.01 1.297 1.596.35.599.549 1.347.947 1.896.191.305.496.52.849.599 1.216.445 2.335 1.123 3.292 1.996l.947 1.297c.141.388.241.789.3 1.197.662 1.066 1.753 1.795 2.993 1.996.46-.1.937-.1 1.397 0 .449.25.649.649 1.297.399.524-.258.934-.703 1.147-1.247v-.649l.35-1.047v-.599l-.449-.599c-.397-.433-.869-.789-1.397-1.047l-1.347-.399c-.463-.432-.85-.937-1.147-1.496.847-1.047 2.145-1.097 3.242-1.696.667-.435 1.134-1.116 1.297-1.896.125-1.244.125-2.498 0-3.742-.076-1.079-.076-2.163 0-3.242 0-.997.35-1.746-.35-2.495-1.032-1.081-2.294-1.916-3.692-2.445l-.799-.499-.749-.649c-.649-.399-1.446 0-2.145-.35-.543-.197-1.118-.298-1.696-.3-1.592-.14-3.079-.847-4.191-1.996-1.297-.979-2.928-1.41-4.539-1.197h-4.989c-1.446 0-2.943 0-4.389 0s-2.593.649-3.941.699h-3.792c-1.147.093-2.25.489-3.193 1.147-.699.333-1.474.471-2.245.399h-1.297c-1.573.32-3.013 1.101-4.141 2.245l-1.247.849-2.545 1.097-1.047.749c-.623.787-1.126 1.661-1.496 2.593-.698 1.013-1.079 2.212-1.097 3.442v.897l-.3.35c-1.091.612-2.355.84-3.592.649-.947-.449-.599-3.143-.399-3.941 1.397-.449 2.643 0 3.542-1.297.286-.476.286-1.071 0-1.546-.543-.755-1.286-1.342-2.146-1.696-.897-.449-1.846-.549-2.743-.947-.429-.228-.844-.477-1.247-.749-.98-.27-2.013-.27-2.993 0-.856.407-1.607 1.003-2.195 1.746-.489.592-.922 1.226-1.297 1.896 0 .449 0 1.297-.449 1.696-.402.339-.924.501-1.446.449-.871.057-1.727.242-2.545.549l-.947.35-.799-.449-.897-.699h-4.989c-.752.197-1.542.197-2.295 0-.84-.74-1.608-1.56-2.295-2.445-.75-.796-1.419-1.665-1.996-2.595-.451-1.071-.605-2.242-.449-3.392v-1.097c0-.599 0-.799.699-1.197 1.342-1.044 3.068-1.461 4.739-1.147h5.488c.809-.048 1.621.053 2.395.3.934.323 1.908.524 2.893.599h2.843c.755-.041 1.496-.21 2.195-.499 1.449-.313 2.915-.546 4.389-.699 1.397-.3 2.495-1.297 3.892-1.596 1.397-.3 1.297-.399 1.996-.599 1.623-.443 3.313-.596 4.989-.449.576.126 1.17.126 1.746 0l1.397-1.147.749-.897c.549-.549 1.846-.3 2.545-.3h1.147c.897 0 1.347-1.097 1.946-1.646s.649-1.796.649-2.893 0-2.843-.799-3.492h-.499l-.749-.35c-.649-.449-1.147-.3-1.996-.3h-5.338c-2.129.134-4.229.57-6.235 1.297-2.765.483-5.582.618-8.381.399h-6.834c-1.056-.051-2.115.05-3.143.3-1.413.37-2.771.924-4.041 1.646-1.096.664-2.248 1.232-3.442 1.696-.532.048-1.065.048-1.596 0-.699 0-1.147.749-1.846.897-.606.031-1.2.184-1.746.449-.749.499-1.446 1.197-2.195 1.746l-1.097.897-.749 1.297c-.46.583-.96 1.134-1.496 1.646-.796.649-1.689 1.17-2.643 1.546-.57.263-1.153.496-1.746.699-.794.501-1.629.934-2.495 1.297h-1.047l-1.297.399c-.825.148-1.658.248-2.495.3-.499 0-.849.399-1.297.499h-.847c-.909-.007-1.817.11-2.693.35-.991.47-1.943 1.021-2.843 1.646-.649.399-1.347.699-1.946 1.147-.599.449-1.746 1.546-2.693 2.245-.781.435-1.488.991-2.096 1.646l-.499.699-.897.649c-.421.667-.582 1.467-.449 2.245 0 .599 0 1.247.449 1.496h2.843c.524-.125 1.072-.125 1.596 0 1.247.599.399 1.796-.449 2.195l-2.893 1.397c-1.172.421-2.32.905-3.442 1.446-.421.291-.896.493-1.397.599-.599 0-1.047 0-1.347.749-1.197 1.946 1.097 3.492 2.793 3.692 1.179.076 2.363.076 3.542 0 2.442-.181 4.758-1.163 6.585-2.793.858-.555 1.878-.802 2.893-.699.897 0 2.345-.35 2.943.549.549 1.169.549 2.523 0 3.692-.3.599-.847.947-1.197 1.496-.278.429-.401.938-.35 1.446-.013.887-.351 1.739-.947 2.395-.499.599-1.347 1.147-1.596 1.946-.15.909-.15 1.836 0 2.743.153.841.352 1.676.599 2.495.05.747.05 1.498 0 2.245v2.545c0 .847-.599 1.696-.699 2.545.043.724-.041 1.451-.25 2.146-.35.799-.749 1.496-1.147 2.245-.394 1.029-.861 2.029-1.397 2.993-.518.733-1.12 1.404-1.796 1.996-.649.599-1.446.849-2.046 1.446-.599.599-1.596 1.796-2.395 2.643-.799.849-.649 2.893-.649 4.339-.123.743-.123 1.502 0 2.245l.35.847c.313.584.483 1.234.499 1.896.034 1.554.269 3.097.699 4.589.417.778.956 1.486 1.596 2.096.947 1.097 2.096 2.046 1.946 3.642-.079.883-.316 1.745-.699 2.545l-.499.749c-.749.649-.749.847-.699 1.896.05 1.047 0 2.545 0 3.842-.006.69.148 1.373.449 1.996l.35.897c0 .799.599.799 1.147 1.297l.897 1.247c.399.649 1.247 1.147 1.546 1.896.3.749 0 .997.3 1.496.395.62.863 1.189 1.397 1.696.404.345.771.728 1.097 1.147v.35c.355.599.874 1.084 1.496 1.397.601.194 1.245.194 1.846 0l.997.3.399 1.097.3 1.047.947.649.499.847c.399.549.3.549 1.147.549.843-.115 1.702-.012 2.495.3.649.499.3 1.397.449 2.096.148.891.148 1.802 0 2.693-.125 1.11-.125 2.232 0 3.342v2.046c.12 1.402.827 2.689 1.946 3.542.549.749.799.549 1.596.897.799.35.749.599 1.147.897.399.3 1.047 0 1.596.649s1.197 1.197 1.896 1.696c.629.539 1.314 1.007 2.046 1.397l1.297.449c.706.238 1.391.539 2.046.897.461.329.881.715 1.247 1.147.661.587 1.379 1.106 2.146 1.546l1.347.897 1.147 1.147 1.546.499c.551.211 1.118.379 1.696.499h1.546c.93.075 1.864.075 2.793 0 1.019-.225 2.074-.225 3.093 0 .449 0 1.197.3 1.496.699.226.611.376 1.248.449 1.896.449 1.197 1.696 1.996 2.445 2.993s.499.849 1.247.849h1.197c.968.226 1.975.226 2.943 0l.947-.649c.847 0 1.047.749 1.546 1.147.411.357.971.488 1.496.35.643-.048 1.273.211 1.696.699.417.382.698.89.799 1.446 0 .749.499.897 1.197 1.047.699.15 3.143-.649 3.392 1.197.084 1.27 1 2.329 2.245 2.593h1.397c.683.029 1.348.217 1.946.549.655.141 1.291.358 1.896.649.599.399 1.047.897 1.696 1.247.662.419 1.414.674 2.195.749h3.392 1.496c.893-.128 1.802.087 2.545.599-1.833 4.632-4.14 9.062-6.884 13.22-.275-.377-.736-.57-1.197-.499l-.849.649c-.408.348-.841.665-1.297.947-.749.449-1.147.499-1.496 1.247-.283.642-.404 1.345-.35 2.046v4.389c.044.695-.057 1.392-.3 2.046l-.549 1.247c-.15.498-.404.957-.749 1.347-.702.608-1.132 1.469-1.197 2.395v1.646c-.25 1.1-.25 2.242 0 3.342.624.815 1.344 1.552 2.145 2.195.46.426.943.825 1.446 1.197.549.449 1.097.749 1.646 1.197.549.449 1.397 1.397 2.145 2.046.749.649 1.297.799 1.896 1.397.405.537.839 1.054 1.297 1.546l1.147.749.3.897.35 1.097c.749 1.147 1.596 2.146 2.245 3.342.451.9 1.059 1.711 1.796 2.395.637.595 1.236 1.228 1.796 1.896.537.74 1.216 1.367 1.996 1.846h.699l1.197.649c.802.424 1.514 1 2.096 1.696.536.58.808 1.357.749 2.146v2.943c.125.793.125 1.601 0 2.395-.297.885-.717 1.725-1.247 2.495l-.897 1.646-.847.947c-1.297 1.447-2.245 3.143-3.392 4.689v.847c-.175.771-.424 1.523-.749 2.245-.333.774-.601 1.576-.799 2.395.059.648-.1 1.297-.449 1.846-.749 1.097-.549 2.643-1.297 3.842-.405.626-.772 1.275-1.097 1.946-.708 1.441-1.228 2.966-1.546 4.539v1.746c0 .549-.449.749-.499 1.197v1.047c0 .649-.699 1.147-.947 1.746s-.449 1.347-.699 2.046-.599 1.147-.849 1.696v.599c-.257.756-.609 1.477-1.047 2.145-.251 1.353-.251 2.739 0 4.091-.054.52-.138 1.035-.25 1.546-.05.598-.05 1.198 0 1.796v.897l-.3.449c-.15.891-.15 1.802 0 2.693-.075.996-.075 1.997 0 2.993.079.621.505 1.144 1.097 1.347.683.419 1.422.739 2.195.947.856.175 1.739.175 2.593 0 .441-.145.891-.263 1.347-.35.521.147 1.075.147 1.596 0 .728-.419 1.429-.886 2.096-1.397.677-.574 1.163-1.339 1.397-2.195.222-.579.507-1.129.849-1.646.348-.552.601-1.16.749-1.796-.037-1.003.43-1.959 1.247-2.545l-4.241 2.743c0-.699 1.247-1.147 1.696-1.596s.749-1.047 1.197-1.546 1.097-.499 1.546-.947c.327-.446.486-.994.449-1.546-.148-.402-.148-.844 0-1.247l.549-.599.35-.947c.25-.849.399-.947 1.297-1.097.897-.15.997 0 1.247-.549s0-.897.749-.947 1.097 0 1.696 0 .649-2.693 2.245-3.292c.676-.126 1.37-.126 2.046 0 .545.1 1.101.1 1.646 0l.749-.799.897-.849c1.226-.953 2.16-2.232 2.693-3.692 1.247 0 1.397 1.696 2.793 1.596s1.247-.799 1.446-1.696c.2-.897 0-2.145.649-2.593.649-.449 2.693 1.796 3.592 0 .15-.792.15-1.604 0-2.395-.153-.957-.05-1.938.3-2.843l.599-.35c.947-.997.599-1.197 2.345-.399l1.996 1.347 1.347.847c.749 0 1.047-.35 1.397-.897.35-.549.649-.997.947-1.496l.399-.897.749-.549c.614-.452 1.01-1.138 1.097-1.896.101-.651.417-1.247.897-1.696.599-.599.947-1.297 1.596-1.896.746-.452 1.579-.74 2.445-.847 1.047-.35 1.197-1.447 1.397-2.495.026-.608.128-1.212.3-1.796l.499-.947c.144-.827.856-1.435 1.696-1.446.645-.084 1.242-.383 1.696-.847l.947-.997c.342-.703.725-1.386 1.147-2.046.449-.499 1.147-.749 1.646-1.247s1.097-.897 1.646-1.397c.549-.499.897-.947 1.397-1.397.784-.75 1.869-1.1 2.943-.947 1.348-.013 2.652-.489 3.692-1.347.693-.421 1.41-.803 2.145-1.147.599-.3.649-.649.997-1.197.329-.464.629-.947.897-1.446.219-.668.386-1.351.499-2.046.05-.464.05-.932 0-1.397 0-1.047.599-1.347 1.047-2.245.247-.439.351-.946.3-1.446-.05-.564-.05-1.132 0-1.696.326-.725.783-1.385 1.347-1.946l.699-1.097c.25-.499.649-.799.897-1.297.298-.515.454-1.101.449-1.696v-1.247c.188-.595.554-1.118 1.047-1.496.601-.492 1.167-1.026 1.696-1.596.35-.449 0-.699 0-1.197-.16-1.019.131-2.057.799-2.843.416-.483.884-.918 1.397-1.297.577-.468 1.097-1.004 1.546-1.596.599-.799 1.297-1.496 1.896-2.295l.599-.699c.275-.662.379-1.383.3-2.096 0-1.546 0-3.093 0-4.639.364-1.021.382-2.124.06-3.151z"/><path d="m305.229 108.006.399 2.245c.275 1.395.376 2.82.3 4.241 0 2.146-.847 5.937.749 7.683s5.488.3 7.284 2.593c.793 1.523 1.461 3.107 1.996 4.739.725 1.486 1.743 2.809 2.993 3.892.853.812 1.546 1.777 2.046 2.843 1.097 1.796 1.796 1.496 3.592 2.145 2.429.483 4.243 2.52 4.439 4.989 0 2.593 1.397 6.185 4.339 6.635 2.943.449 5.438-.499 8.031 0 .974.134 1.881.57 2.593 1.247.997 1.197 0 1.746 0 3.143s1.496 2.395 2.096 3.642.399 3.592 1.147 5.438c1.259 3.052 3.165 5.792 5.588 8.031 2.539 2.104 4.67 4.658 6.285 7.533.921 2.889.921 5.992 0 8.88-.2 1.112-.518 2.198-.947 3.242-.799 1.646-3.842 3.143-3.842 4.989.551 2.09 1.614 4.011 3.093 5.588 1.746 2.046 4.639 3.292 5.538 6.037.216 1.269.332 2.554.35 3.842.908 2.921 2.793 5.439 5.338 7.134 1.153.768 2.179 1.711 3.043 2.793.593 1.819.714 3.759.35 5.638-.198 2.273-.198 4.561 0 6.834.549 2.743 3.342 2.743 4.291 5.588.325 2.483.325 4.999 0 7.484 0 4.489-.749 8.83-.749 13.319-.31 4.793-.142 9.607.499 14.368.561 4.041 1.972 7.918 4.141 11.374l.449.549c23.809-70.077-8.61-146.881-75.431-178.698z"/><path d="m503.33 172.56-55.375-39.91-29.134 61.76 28.784-7.484c29.013 113.274-39.294 228.62-152.567 257.633-5.63 1.442-11.318 2.652-17.048 3.626l4.689 27.538c130.366-22.242 218.017-145.954 195.775-276.318-1.116-6.542-2.504-13.035-4.159-19.462z"/></g><path d="m242.37.001c-78.448-.169-151.953 38.283-196.554 102.816l-26.041-15.415 10.776 67.447 64.305-23.048-24.944-14.966c67.632-95.284 199.703-117.703 294.988-50.07 22.204 15.76 41.157 35.657 55.818 58.601l23.546-14.966c-43.93-68.969-120.122-110.633-201.894-110.399z" fill="#3a556a"/><path d="m248.058 469.887-46.245-50.186-3.642 26.888c-114.419-24.498-187.316-137.112-162.818-251.531 1.212-5.66 2.655-11.268 4.326-16.81l-26.69-8.081c-38.275 126.587 33.315 260.237 159.903 298.515 7.108 2.148 14.311 3.966 21.587 5.447l-4.291 31.878z" fill="#e56353"/></g></g></svg>