<?xml version="1.0" encoding="iso-8859-1"?>
<!-- Generator: Adobe Illustrator 19.0.0, SVG Export Plug-In . SVG Version: 6.00 Build 0)  -->
<svg version="1.1" id="Layer_1" xmlns="http://www.w3.org/2000/svg" xmlns:xlink="http://www.w3.org/1999/xlink" x="0px" y="0px"
	 viewBox="0 0 508 508" style="enable-background:new 0 0 508 508;" xml:space="preserve">
<path style="fill:#40596B;" d="M422.9,133.1c-2.5-3.5-6.7-5.9-11.4-5.9H21.6c-11.7,0-21.2,9.5-21.2,21.2v233.8h425.2V141.3
	C425.6,138.2,424.6,135.4,422.9,133.1z"/>
<path style="fill:#F2F2F2;" d="M0.5,382.2v30.3c0,11.7,9.5,21.2,21.2,21.2h382.8c11.7,0,21.2-9.5,21.2-21.2v-30.3H0.5z"/>
<g>
	<circle style="fill:#CDD6E0;" cx="213" cy="407.9" r="10.1"/>
	<polygon style="fill:#CDD6E0;" points="304.7,481.1 121.4,481.1 139,446.9 145.8,433.7 280.3,433.7 287.1,446.9 	"/>
</g>
<g>
	<path style="fill:#F2F2F2;" d="M332.1,481.1H94c-11.7,0-21.2,9.5-21.2,21.2v5.7h280.4v-5.7C353.3,490.6,343.8,481.1,332.1,481.1z"
		/>
	<rect x="28.7" y="153.9" style="fill:#F2F2F2;" width="368.7" height="207.9"/>
</g>
<polygon style="fill:#ACB3BA;" points="287.1,446.9 139,446.9 145.8,433.7 280.3,433.7 "/>
<path style="fill:#84DBFF;" d="M486.4,0h-312c-11.7,0-21.2,9.5-21.2,21.2v193c0,11.7,9.5,21.2,21.2,21.2h307.3c0.9,0,1.8,0,2.6-0.1
	c13.1-1.3,23.3-12.3,23.3-25.8V21.2C507.5,9.5,498.1,0,486.4,0z"/>
<rect x="153.2" y="44.6" style="fill:#334A5E;" width="354.4" height="41.5"/>
<rect x="194.6" y="127.2" style="fill:#FFFFFF;" width="74.5" height="12.5"/>
<rect x="194.6" y="178.2" style="fill:#40596B;" width="47.9" height="12.5"/>
<rect x="269.1" y="178.2" style="fill:#FF7058;" width="47.9" height="12.5"/>
<rect x="343.7" y="178.2" style="fill:#40596B;" width="47.9" height="12.5"/>
<rect x="418.2" y="178.2" style="fill:#FF7058;" width="47.9" height="12.5"/>
<g>
</g>
<g>
</g>
<g>
</g>
<g>
</g>
<g>
</g>
<g>
</g>
<g>
</g>
<g>
</g>
<g>
</g>
<g>
</g>
<g>
</g>
<g>
</g>
<g>
</g>
<g>
</g>
<g>
</g>
</svg>
