<?xml version="1.0" encoding="iso-8859-1"?>
<!-- Generator: Adobe Illustrator 19.0.0, SVG Export Plug-In . SVG Version: 6.00 Build 0)  -->
<svg version="1.1" id="Capa_1" xmlns="http://www.w3.org/2000/svg" xmlns:xlink="http://www.w3.org/1999/xlink" x="0px" y="0px"
	 viewBox="0 0 512 512" style="enable-background:new 0 0 512 512;" xml:space="preserve">
<path style="fill:#FF7058;" d="M512,256c0,141.376-114.613,256-256,256S0,397.376,0,256C0,114.613,114.613,0,256,0
	S512,114.613,512,256"/>
<path style="fill:#FFFFFF;" d="M256,469.333c-117.632,0-213.333-95.701-213.333-213.333S138.368,42.667,256,42.667
	S469.333,138.368,469.333,256S373.632,469.333,256,469.333"/>
<path style="fill:#4CDBC4;" d="M298.805,213.195L298.805,213.195c-2.709-2.709-7.093-2.709-9.803,0l-128.64,128.619
	c-2.688,2.709-2.688,7.104,0.021,9.813c2.709,2.699,7.083,2.699,9.792,0l128.629-128.64
	C301.515,220.277,301.515,215.904,298.805,213.195"/>
<g>
	<path style="fill:#40596B;" d="M274.891,85.781c0,10.443-8.459,18.891-18.891,18.891c-10.421,0-18.891-8.459-18.891-18.891
		S245.579,66.891,256,66.891C266.432,66.891,274.891,75.339,274.891,85.781"/>
	<path style="fill:#40596B;" d="M274.891,426.219c0,10.443-8.459,18.891-18.891,18.891c-10.421,0-18.891-8.459-18.891-18.891
		s8.469-18.891,18.891-18.891C266.432,407.328,274.891,415.787,274.891,426.219"/>
	<path style="fill:#40596B;" d="M426.219,274.88c-10.443,0-18.891-8.459-18.891-18.891s8.459-18.891,18.891-18.891
		s18.891,8.459,18.891,18.891S436.661,274.88,426.219,274.88"/>
	<path style="fill:#40596B;" d="M85.781,274.88c-10.443,0-18.891-8.459-18.891-18.891s8.459-18.891,18.891-18.891
		s18.891,8.459,18.891,18.891S96.213,274.88,85.781,274.88"/>
</g>
<path style="fill:#FFD15C;" d="M321.632,306.56l-51.851-51.84c-2.005-2.005-3.125-4.715-3.125-7.541V143.424
	c0-5.888-4.768-10.667-10.667-10.667c-5.877,0-10.667,4.779-10.667,10.667V256c0,2.827,1.12,5.536,3.125,7.541l58.101,58.091
	c4.171,4.181,10.912,4.181,15.083,0C325.803,317.483,325.803,310.731,321.632,306.56"/>
<path style="fill:#4CDBC4;" d="M287.008,256c0,17.131-13.877,31.019-31.008,31.019c-17.131,0-31.019-13.888-31.019-31.019
	s13.888-31.008,31.019-31.008S287.008,238.859,287.008,256"/>
<path style="fill:#3DC9AE;" d="M270.805,256c0,8.181-6.624,14.805-14.816,14.805c-8.171,0-14.795-6.624-14.795-14.805
	c0-8.171,6.624-14.805,14.795-14.805C264.181,241.195,270.805,247.829,270.805,256"/>
<g>
</g>
<g>
</g>
<g>
</g>
<g>
</g>
<g>
</g>
<g>
</g>
<g>
</g>
<g>
</g>
<g>
</g>
<g>
</g>
<g>
</g>
<g>
</g>
<g>
</g>
<g>
</g>
<g>
</g>
</svg>
