<?xml version="1.0" encoding="iso-8859-1"?>
<!-- Generator: Adobe Illustrator 19.0.0, SVG Export Plug-In . SVG Version: 6.00 Build 0)  -->
<svg version="1.1" id="Layer_1" xmlns="http://www.w3.org/2000/svg" xmlns:xlink="http://www.w3.org/1999/xlink" x="0px" y="0px"
	 viewBox="0 0 508 508" style="enable-background:new 0 0 508 508;" xml:space="preserve">
<path style="fill:#FFD15C;" d="M471.7,170.3c-20,0-36.3-16.2-36.3-36.3c0,20-16.2,36.3-36.3,36.3s-36.3-16.2-36.3-36.3
	c0,20-16.2,36.3-36.3,36.3c-20,0-36.3-16.2-36.3-36.3c0,20-16.2,36.3-36.3,36.3s-36.3-16.2-36.3-36.3c0,20-16.2,36.3-36.3,36.3
	S145,154.1,145,134c0,20-16.2,36.3-36.3,36.3S72.6,154.1,72.6,134c0,20-16.2,36.3-36.3,36.3c-1.1,0-2.1-0.2-3.2-0.3v292.8h441.8V170
	C473.8,170.1,472.8,170.3,471.7,170.3z"/>
<polygon style="fill:#FF7058;" points="72.6,97.8 0,97.8 33.1,0 96.2,0 "/>
<polygon style="fill:#F2F2F2;" points="145.1,97.8 72.6,97.8 96.2,0 159.3,0 "/>
<g>
	<polygon style="fill:#FF7058;" points="217.7,97.8 145.1,97.8 159.3,0 222.4,0 	"/>
	<polygon style="fill:#FF7058;" points="362.9,97.8 290.3,97.8 285.6,0 348.7,0 	"/>
</g>
<polygon style="fill:#F2F2F2;" points="290.3,97.8 217.7,97.8 222.4,0 285.6,0 "/>
<polygon style="fill:#FF7058;" points="508,97.8 435.4,97.8 411.8,0 474.9,0 "/>
<polygon style="fill:#F2F2F2;" points="435.4,97.8 362.9,97.8 348.7,0 411.8,0 "/>
<rect y="462.8" style="fill:#40596B;" width="508" height="45.2"/>
<rect x="99.4" y="217" style="fill:#FFFFFF;" width="309.2" height="199.2"/>
<rect x="122" y="239.6" style="fill:#84DBFF;" width="264.1" height="154.1"/>
<g>
	<path style="fill:#F1543F;" d="M0,134c0,20,16.2,36.3,36.3,36.3s36.3-16.2,36.3-36.3V97.8H0V134z"/>
	<path style="fill:#F1543F;" d="M145.1,134c0,20,16.2,36.3,36.3,36.3s36.3-16.2,36.3-36.3V97.8h-72.6V134z"/>
	<path style="fill:#F1543F;" d="M290.3,134c0,20,16.2,36.3,36.3,36.3c20,0,36.3-16.2,36.3-36.3V97.8h-72.6L290.3,134L290.3,134z"/>
	<path style="fill:#F1543F;" d="M435.4,97.8V134c0,20,16.2,36.3,36.3,36.3S508,154.1,508,134V97.8H435.4z"/>
</g>
<g>
	<path style="fill:#CDD6E0;" d="M72.6,134c0,20,16.2,36.3,36.3,36.3s36.3-16.2,36.3-36.3V97.8H72.6V134z"/>
	<path style="fill:#CDD6E0;" d="M217.7,134c0,20,16.2,36.3,36.3,36.3s36.3-16.2,36.3-36.3V97.8h-72.6L217.7,134L217.7,134z"/>
	<path style="fill:#CDD6E0;" d="M362.9,97.8V134c0,20,16.2,36.3,36.3,36.3s36.3-16.2,36.3-36.3V97.8H362.9z"/>
</g>
<path style="fill:#F8B64C;" d="M471.7,170.3c-20,0-36.3-16.2-36.3-36.3c0,20-16.2,36.3-36.3,36.3s-36.3-16.2-36.3-36.3
	c0,20-16.2,36.3-36.3,36.3c-20,0-36.3-16.2-36.3-36.3c0,20-16.2,36.3-36.3,36.3s-36.3-16.2-36.3-36.3c0,20-16.2,36.3-36.3,36.3
	S145,154.1,145,134c0,20-16.2,36.3-36.3,36.3S72.6,154.1,72.6,134c0,20-16.2,36.3-36.3,36.3c-1.1,0-2.1-0.2-3.2-0.3v11.4
	c1.1,0.1,2.1,0.2,3.2,0.2c20,0,36.3-16.2,36.3-36.2c0,20,16.3,36.2,36.3,36.2s36.3-16.2,36.3-36.2c0,20,16.3,36.2,36.3,36.2
	s36.3-16.2,36.3-36.2c0,20,16.2,36.2,36.2,36.2s36.3-16.2,36.3-36.2c0,20,16.3,36.2,36.3,36.2s36.3-16.2,36.3-36.2
	c0,20,16.3,36.2,36.3,36.2s36.3-16.2,36.3-36.2c0,20,16.2,36.2,36.3,36.2c1.1,0,2.1-0.1,3.2-0.2V170
	C473.8,170.1,472.8,170.3,471.7,170.3z"/>
<g>
</g>
<g>
</g>
<g>
</g>
<g>
</g>
<g>
</g>
<g>
</g>
<g>
</g>
<g>
</g>
<g>
</g>
<g>
</g>
<g>
</g>
<g>
</g>
<g>
</g>
<g>
</g>
<g>
</g>
</svg>
