<svg id="color" enable-background="new 0 0 24 24" height="512" viewBox="0 0 24 24" width="512" xmlns="http://www.w3.org/2000/svg"><path d="m22 17.5c-2 0-6 2.531-8 2.531s-4.25-1.531-4.25-1.531 2.694.5 4.25.5 2-.531 2-1.25c0-1.75-2.972-2.022-4.476-2.251-1.476-.822-3.037-1.333-5.482-1.539-.014.142-.037.284-.077.425l-2.009 7.08c2.276 1.035 6.988 2.535 9.044 2.535 3 0 11-4 11-5s-1-1.5-2-1.5z" fill="#ffcc80"/><path d="m3.5 22h-2.75c-.414 0-.75-.336-.75-.75v-8.5c0-.414.336-.75.75-.75 3.505 0 5.138 1.216 5.205 1.268.242.185.349.498.269.792l-2 7.386c-.089.327-.385.554-.724.554z" fill="#607d8b"/><path d="m23.961 5.286c-.089-.267-.319-.46-.598-.503l-3.923-.6-1.762-3.752c-.246-.526-1.111-.526-1.357 0l-1.761 3.753-3.923.6c-.278.042-.509.236-.598.503-.09.267-.022.561.174.762l2.861 2.932-.677 4.149c-.046.283.073.568.309.734.234.166.544.181.795.043l3.499-1.935 3.499 1.935c.113.062.238.093.363.093.151 0 .303-.046.432-.137.235-.166.354-.451.309-.734l-.677-4.149 2.861-2.932c.196-.201.264-.495.174-.762z" fill="#ffc107"/></svg>