<?xml version="1.0" encoding="iso-8859-1"?>
<!-- Generator: Adobe Illustrator 19.0.0, SVG Export Plug-In . SVG Version: 6.00 Build 0)  -->
<svg version="1.1" id="Capa_1" xmlns="http://www.w3.org/2000/svg" xmlns:xlink="http://www.w3.org/1999/xlink" x="0px" y="0px"
	 viewBox="0 0 512 512" style="enable-background:new 0 0 512 512;" xml:space="preserve">
<polygon style="fill:#F3F3F3;" points="369.067,0 0,71.467 0,512 369.067,512 "/>
<g>
	<rect x="148.267" y="107.733" style="fill:#8AD7F8;" width="73.6" height="85.333"/>
	<rect x="45.867" y="107.733" style="fill:#8AD7F8;" width="73.6" height="85.333"/>
	<rect x="249.6" y="107.733" style="fill:#8AD7F8;" width="73.6" height="85.333"/>
	<rect x="148.267" y="220.8" style="fill:#8AD7F8;" width="73.6" height="85.333"/>
	<rect x="45.867" y="220.8" style="fill:#8AD7F8;" width="73.6" height="85.333"/>
	<rect x="249.6" y="220.8" style="fill:#8AD7F8;" width="73.6" height="85.333"/>
</g>
<path style="fill:#415A6B;" d="M171.733,361.6L171.733,361.6c-34.133,0-61.867,27.733-61.867,61.867V512h124.8v-88.533
	C233.6,389.333,205.867,361.6,171.733,361.6z"/>
<path style="fill:#344A5E;" d="M130.133,512v-88.533c0-22.4,18.133-40.533,40.533-40.533s40.533,18.133,40.533,40.533V512H130.133z"
	/>
<rect x="369.067" y="180.267" style="fill:#415A6B;" width="142.933" height="331.733"/>
<g>
	<rect x="405.333" y="238.933" style="fill:#8AD7F8;" width="70.4" height="88.533"/>
	<rect x="405.333" y="364.8" style="fill:#8AD7F8;" width="70.4" height="88.533"/>
</g>
<g>
</g>
<g>
</g>
<g>
</g>
<g>
</g>
<g>
</g>
<g>
</g>
<g>
</g>
<g>
</g>
<g>
</g>
<g>
</g>
<g>
</g>
<g>
</g>
<g>
</g>
<g>
</g>
<g>
</g>
</svg>
