<?xml version="1.0" encoding="iso-8859-1"?>
<!-- Generator: Adobe Illustrator 19.0.0, SVG Export Plug-In . SVG Version: 6.00 Build 0)  -->
<svg version="1.1" id="Capa_1" xmlns="http://www.w3.org/2000/svg" xmlns:xlink="http://www.w3.org/1999/xlink" x="0px" y="0px"
	 viewBox="0 0 509.344 509.344" style="enable-background:new 0 0 509.344 509.344;" xml:space="preserve">
<path style="fill:#4B9FD8;" d="M483.28,32.064v343.52c0,17.6-14.24,32-32,32H58c-17.6,0-32-14.4-32-32V32.064c0-17.76,14.4-32,32-32
	h393.28C469.04,0.064,483.28,14.304,483.28,32.064z"/>
<path style="fill:#2B71B8;" d="M451.344,0H58.016c-17.68,0-32,14.32-32,32v66.96h457.328V32C483.344,14.32,469.024,0,451.344,0z"/>
<circle style="fill:#FFFFFF;" cx="81.072" cy="49.488" r="22.448"/>
<circle style="fill:#FFDB70;" cx="142.208" cy="49.488" r="22.448"/>
<circle style="fill:#464646;" cx="203.344" cy="49.488" r="22.448"/>
<path style="fill:#3789C9;" d="M26.016,372.832V98.96h122.448c12.752,0,23.104,10.336,23.104,23.104
	c0,12.752-10.336,23.104-23.104,23.104h-30.896c-10.688,0-19.376,8.736-19.312,19.424v0.256c0,0.48-0.016,0.944-0.048,1.408
	c-0.64,10.528,7.712,19.408,18.272,19.408h47.312c12.512,0,23.728,9.36,24.368,21.856c0.704,13.328-9.904,24.336-23.072,24.336
	H107.12c-10.736,0-19.424,8.736-19.36,19.472v1.344v0.272c-0.064,11.296,9.12,20.544,20.416,20.544h55.296
	c12.512,0,23.712,9.36,24.368,21.856c0.704,13.328-9.904,24.336-23.072,24.336h-59.04c-11.168,0-19.488,9.376-19.36,20.544
	c0,0.096,0,0.192,0,0.272s0,0.192,0,0.272c-0.128,11.168,8.192,20.544,19.36,20.544h38.56c12.512,0,23.728,9.36,24.368,21.856
	c0.704,13.328-9.904,24.336-23.072,24.336h-84.88C41.552,407.52,26.016,391.984,26.016,372.832z"/>
<g>
	<path style="fill:#3897D3;" d="M46.096,168.368v82.928c0,8.192,6.64,14.848,14.848,14.848s14.848-6.64,14.848-14.848v-82.928
		c0-8.192-6.64-14.848-14.848-14.848S46.096,160.176,46.096,168.368z"/>
	<path style="fill:#3897D3;" d="M46.096,129.216v1.856c0,8.192,6.64,14.848,14.848,14.848s14.848-6.64,14.848-14.848v-1.856
		c0-8.192-6.64-14.848-14.848-14.848S46.096,121.024,46.096,129.216z"/>
</g>
<g style="opacity:0.12;">
	<path style="fill:#010101;" d="M451.28,407.584c17.76,0,32-14.4,32-32v-52.32l-38-38l-54.208-2.08l-136.4-136.4l-8.72,260.8H451.28
		z"/>
</g>
<polygon style="fill:#FEE218;" points="254.672,146.784 313.568,266.128 445.28,285.264 349.968,378.176 372.48,509.344 
	254.672,447.408 136.864,509.344 159.376,378.176 64.064,285.264 195.776,266.128 "/>
<g>
	<polygon style="fill:#EEC71C;" points="254.672,146.784 254.672,341.344 313.568,266.128 	"/>
	<polygon style="fill:#EEC71C;" points="254.672,341.344 445.28,285.264 349.968,378.176 	"/>
	<polygon style="fill:#EEC71C;" points="254.672,341.344 254.672,447.408 372.48,509.344 	"/>
	<polygon style="fill:#EEC71C;" points="254.672,341.344 159.376,378.176 136.864,509.344 	"/>
	<polygon style="fill:#EEC71C;" points="254.672,341.344 195.776,266.128 64.064,285.264 	"/>
</g>
<g>
</g>
<g>
</g>
<g>
</g>
<g>
</g>
<g>
</g>
<g>
</g>
<g>
</g>
<g>
</g>
<g>
</g>
<g>
</g>
<g>
</g>
<g>
</g>
<g>
</g>
<g>
</g>
<g>
</g>
</svg>
