<?xml version="1.0" encoding="iso-8859-1"?>
<!-- Generator: Adobe Illustrator 19.0.0, SVG Export Plug-In . SVG Version: 6.00 Build 0)  -->
<svg version="1.1" id="Capa_1" xmlns="http://www.w3.org/2000/svg" xmlns:xlink="http://www.w3.org/1999/xlink" x="0px" y="0px"
	 viewBox="0 0 512 512" style="enable-background:new 0 0 512 512;" xml:space="preserve">
<polygon style="fill:#F3C432;" points="512,256 452.144,300.8 486.688,367.12 413.28,381.408 415.616,456.16 343.28,437.28 
	312.96,505.632 256,457.136 199.04,505.632 168.72,437.28 96.368,456.144 98.72,381.392 25.312,367.104 59.856,300.8 0,256 
	59.856,211.2 25.312,144.88 98.72,130.592 96.384,55.84 168.72,74.72 199.04,6.368 256,54.864 312.96,6.368 343.28,74.72 
	415.632,55.856 413.28,130.608 486.688,144.896 452.144,211.2 "/>
<circle style="fill:#FFD83B;" cx="256" cy="256" r="153.904"/>
<path style="fill:#3F4347;" d="M357.232,278.72c0,0.8,0,1.44-0.16,2.24c-8.8,55.36-61.92,96-121.6,84.32
	c-39.84-7.84-72-40-79.84-79.84c-12.96-65.44,37.12-123.04,100.48-123.04v-25.44l39.52,39.68l-39.52,39.84v-25.76
	c-46.24,0-82.72,42.24-72.64,90.08c5.92,28,28.64,50.56,56.64,56.48c43.68,9.28,82.72-20.32,89.12-60.8
	c1.12-6.72,6.88-11.68,13.76-11.68C350.832,264.8,357.232,271.2,357.232,278.72z"/>
<g>
</g>
<g>
</g>
<g>
</g>
<g>
</g>
<g>
</g>
<g>
</g>
<g>
</g>
<g>
</g>
<g>
</g>
<g>
</g>
<g>
</g>
<g>
</g>
<g>
</g>
<g>
</g>
<g>
</g>
</svg>
