<?xml version="1.0" encoding="iso-8859-1"?>
<!-- Generator: Adobe Illustrator 19.0.0, SVG Export Plug-In . SVG Version: 6.00 Build 0)  -->
<svg version="1.1" id="Capa_1" xmlns="http://www.w3.org/2000/svg" xmlns:xlink="http://www.w3.org/1999/xlink" x="0px" y="0px"
	 viewBox="0 0 468.292 468.292" style="enable-background:new 0 0 468.292 468.292;" xml:space="preserve">
<path style="fill:#E0E5E8;" d="M408.483,13.347H245.535c-10.345,0-18.732,8.386-18.732,18.732v323.898h222.757
	c10.345,0,18.732-8.386,18.732-18.732V73.158L408.483,13.347z"/>
<path style="fill:#DA8542;" d="M383.204,243.596v190.229c0,3.52-0.914,6.9-2.464,9.857c-3.52,6.688-10.56,11.264-18.657,11.264
	H21.121c-8.097,0-15.137-4.576-18.657-11.264C0.915,440.725,0,437.345,0,433.824V243.596c0-3.52,0.915-6.971,2.464-9.928
	c3.591-6.617,10.631-11.193,18.657-11.193h340.963c8.027,0,15.067,4.576,18.657,11.193
	C382.29,236.625,383.204,240.075,383.204,243.596z"/>
<path style="fill:#FAD362;" d="M380.741,443.681c-3.52,6.688-10.56,11.264-18.657,11.264H21.121
	c-8.097,0-15.137-4.576-18.657-11.264l154.465-105.323l34.708-23.656l34.638,23.656L380.741,443.681z"/>
<path style="fill:#DA8542;" d="M380.741,233.668L226.275,345.398l-18.023,12.18c-9.927,7.252-23.374,7.252-33.301,0l-18.023-12.18
	L2.464,233.668c3.591-6.617,10.631-11.193,18.657-11.193h340.963C370.11,222.475,377.151,227.05,380.741,233.668z"/>
<path style="fill:#F4C158;" d="M380.741,233.668l-154.465,104.69l-18.023,12.18c-9.927,7.252-23.374,7.252-33.301,0l-18.023-12.18
	L2.464,233.668c3.591-6.617,10.631-11.193,18.657-11.193h340.963C370.11,222.475,377.151,227.05,380.741,233.668z"/>
<polygon style="fill:#EBEFF2;" points="408.483,73.158 468.292,73.158 408.483,13.347 "/>
<g>
	<rect x="244.586" y="60.647" style="fill:#D4D5DB;" width="149.854" height="12.488"/>
	<rect x="244.586" y="99.902" style="fill:#D4D5DB;" width="205.918" height="12.488"/>
	<rect x="244.586" y="139.158" style="fill:#D4D5DB;" width="205.918" height="12.488"/>
	<rect x="244.586" y="178.388" style="fill:#D4D5DB;" width="205.918" height="12.488"/>
</g>
<g>
</g>
<g>
</g>
<g>
</g>
<g>
</g>
<g>
</g>
<g>
</g>
<g>
</g>
<g>
</g>
<g>
</g>
<g>
</g>
<g>
</g>
<g>
</g>
<g>
</g>
<g>
</g>
<g>
</g>
</svg>
