<?xml version="1.0" encoding="iso-8859-1"?>
<!-- Generator: Adobe Illustrator 19.0.0, SVG Export Plug-In . SVG Version: 6.00 Build 0)  -->
<svg version="1.1" id="Capa_1" xmlns="http://www.w3.org/2000/svg" xmlns:xlink="http://www.w3.org/1999/xlink" x="0px" y="0px"
	 viewBox="0 0 512 512" style="enable-background:new 0 0 512 512;" xml:space="preserve">
<path style="fill:#F8B64C;" d="M470.539,173.419H41.493V480c0,17.675,14.325,32,32,32h365.056c17.664,0,32-14.325,32-32V173.419
	H470.539z"/>
<polygon style="fill:#FFD15C;" points="470.539,173.419 41.493,173.419 0,253.931 512,253.931 "/>
<rect x="84.149" y="382.549" style="fill:#FFFFFF;" width="142.176" height="86.784"/>
<g>
	<rect x="102.187" y="394.987" style="fill:#40596B;" width="11.243" height="61.931"/>
	<rect x="125.909" y="394.987" style="fill:#40596B;" width="11.232" height="49.472"/>
	<rect x="149.653" y="394.987" style="fill:#40596B;" width="11.243" height="61.931"/>
	<rect x="173.333" y="394.987" style="fill:#40596B;" width="11.243" height="49.472"/>
	<rect x="197.056" y="394.987" style="fill:#40596B;" width="11.232" height="61.931"/>
</g>
<polygon style="fill:#FF7058;" points="293.856,0 218.165,0 218.165,64.597 167.019,64.597 256.085,153.653 345.003,64.597 
	293.856,64.597 "/>
<g>
</g>
<g>
</g>
<g>
</g>
<g>
</g>
<g>
</g>
<g>
</g>
<g>
</g>
<g>
</g>
<g>
</g>
<g>
</g>
<g>
</g>
<g>
</g>
<g>
</g>
<g>
</g>
<g>
</g>
</svg>
