<?xml version="1.0" encoding="iso-8859-1"?>
<!-- Generator: Adobe Illustrator 19.0.0, SVG Export Plug-In . SVG Version: 6.00 Build 0)  -->
<svg version="1.1" id="Capa_1" xmlns="http://www.w3.org/2000/svg" xmlns:xlink="http://www.w3.org/1999/xlink" x="0px" y="0px"
	 viewBox="0 0 512.004 512.004" style="enable-background:new 0 0 512.004 512.004;" xml:space="preserve">
<circle style="fill:#FFD83B;" cx="201.442" cy="227.122" r="199.056"/>
<g>
	<path style="fill:#EDEDEF;" d="M477.25,162.53h-47.984c-5.056,0-9.168-4.096-9.168-9.168l0,0c0-5.056,4.096-9.168,9.168-9.168
		h3.888c17.6,0,32.864-13.088,34.576-30.608c1.952-20.16-14.016-37.296-33.792-37.296h-179.2c-17.6,0-32.88,13.088-34.576,30.608
		c-1.952,20.16,14.016,37.296,33.792,37.296h114.752c5.056,0,9.168,4.096,9.168,9.168l0,0c0,5.056-4.096,9.168-9.168,9.168h-0.464
		c-17.6,0-32.88,13.088-34.576,30.608c-1.952,20.16,14.016,37.296,33.792,37.296H478.05c19.776,0,35.744-17.136,33.792-37.296
		C510.13,175.618,494.85,162.53,477.25,162.53z"/>
	<path style="fill:#EDEDEF;" d="M257.25,416.034h-47.984c-5.056,0-9.168-4.096-9.168-9.168l0,0c0-5.056,4.096-9.168,9.168-9.168
		h3.888c17.6,0,32.864-13.088,34.576-30.608c1.952-20.16-14.016-37.296-33.792-37.296h-179.2c-17.6,0-32.88,13.088-34.576,30.608
		c-1.952,20.16,14.016,37.296,33.792,37.296h114.752c5.056,0,9.168,4.096,9.168,9.168l0,0c0,5.056-4.096,9.168-9.168,9.168h-0.48
		c-17.6,0-32.88,13.088-34.576,30.608c-1.952,20.16,14.016,37.296,33.792,37.296h110.592c19.776,0,35.744-17.136,33.792-37.296
		C290.114,429.122,274.85,416.034,257.25,416.034z"/>
</g>
<g>
</g>
<g>
</g>
<g>
</g>
<g>
</g>
<g>
</g>
<g>
</g>
<g>
</g>
<g>
</g>
<g>
</g>
<g>
</g>
<g>
</g>
<g>
</g>
<g>
</g>
<g>
</g>
<g>
</g>
</svg>
