<svg height="512" viewBox="0 0 58 58" width="512" xmlns="http://www.w3.org/2000/svg"><g id="Page-1" fill="none" fill-rule="evenodd"><g id="078---Locked-Folder" fill-rule="nonzero"><path id="Shape" d="m48 16v-4c0-2.209139-1.790861-4-4-4h-18.78c-1.3808754-.00161879-2.664426-.71134674-3.4-1.88l-2.64-4.24c-.735574-1.16865326-2.0191246-1.87838121-3.4-1.88h-11.78c-2.209139 0-4 1.790861-4 4v50c-.00253809.4543259.07882556.9052162.24 1.33.55572211 1.6007497 2.06553304 2.672876 3.76 2.67h2z" fill="#f0c419"/><g fill="#f29c1f"><path id="Shape" d="m53.83 21.13-.98 2.87-11.61 34h-37.24c-1.69446696.002876-3.20427789-1.0692503-3.76-2.67l12.26-36.46c.5014383-1.7027039 2.064996-2.8713004 3.84-2.87h33.66c1.2596184.0022255 2.4446066.5976507 3.1981733 1.6069973.7535668 1.0093466.9876714 2.3146906.6318267 3.5230027z"/><path id="Shape" d="m4 7c-.55228475 0-1-.44771525-1-1v-2c0-.55228475.44771525-1 1-1s1 .44771525 1 1v2c0 .55228475-.44771525 1-1 1z"/><path id="Shape" d="m8 7c-.55228475 0-1-.44771525-1-1v-2c0-.55228475.44771525-1 1-1s1 .44771525 1 1v2c0 .55228475-.44771525 1-1 1z"/><path id="Shape" d="m12 7c-.5522847 0-1-.44771525-1-1v-2c0-.55228475.4477153-1 1-1s1 .44771525 1 1v2c0 .55228475-.4477153 1-1 1z"/><path id="Shape" d="m16 7c-.5522847 0-1-.44771525-1-1v-2c0-.55228475.4477153-1 1-1s1 .44771525 1 1v2c0 .55228475-.4477153 1-1 1z"/></g><path id="Shape" d="m57.83 29.13-8.91 26.16c-.5495606 1.6196681-2.0696371 2.7094584-3.78 2.71h-39.14l2.7-8 7.8-23.13c.5014383-1.7027039 2.064996-2.8713004 3.84-2.87h33.66c1.2596184.0022255 2.4446066.5976507 3.1981733 1.6069973.7535668 1.0093466.9876714 2.3146906.6318267 3.5230027z" fill="#f0c419"/><path id="Shape" d="m23 29h-2c-.5522847 0-1-.4477153-1-1s.4477153-1 1-1h2c.5522847 0 1 .4477153 1 1s-.4477153 1-1 1z" fill="#f9eab0"/><path id="Shape" d="m45 29h-17c-.5522847 0-1-.4477153-1-1s.4477153-1 1-1h17c.5522847 0 1 .4477153 1 1s-.4477153 1-1 1z" fill="#f9eab0"/><path id="Shape" d="m37 17v-6c0-3.86599325 3.1340068-7 7-7s7 3.13400675 7 7v6h4v-6c0-6.07513225-4.9248678-11-11-11s-11 4.92486775-11 11v6z" fill="#95a5a5"/><path id="Shape" d="m32 16h24c1.1045695 0 2 .8954305 2 2v17c0 1.3260824-.5267842 2.597852-1.4644661 3.5355339s-2.2094515 1.4644661-3.5355339 1.4644661h-18c-2.7614237 0-5-2.2385763-5-5v-17c0-1.1045695.8954305-2 2-2z" fill="#3b97d3"/><path id="Shape" d="m47 25c.0032158-1.3740425-.9274623-2.5746319-2.2589269-2.9140511-1.3314645-.3394192-2.7233249.2691049-3.3783008 1.4769996s-.405622 2.7063604.6052277 3.6370515l-.58 3.476c-.0950865.5792001.0690551 1.1709318.4489262 1.6183826.379871.4474508.9371205.7054467 1.5240738.7056174h1.278c.5879836.0000723 1.1462101-.2585952 1.5262725-.7072345.3800625-.4486394.5434508-1.041792.4467275-1.6217655l-.58-3.476c.6157228-.5638904.9668458-1.3600835.968-2.195z" fill="#285680"/></g></g></svg>