<?xml version="1.0" encoding="iso-8859-1"?>
<!-- Generator: Adobe Illustrator 19.0.0, SVG Export Plug-In . SVG Version: 6.00 Build 0)  -->
<svg version="1.1" id="Capa_1" xmlns="http://www.w3.org/2000/svg" xmlns:xlink="http://www.w3.org/1999/xlink" x="0px" y="0px"
	 viewBox="0 0 514.14 514.14" style="enable-background:new 0 0 514.14 514.14;" xml:space="preserve">
<rect x="35.201" y="48" style="fill:#CED6E0;" width="444.8" height="410.67"/>
<g>
	<rect x="31.998" y="46.94" style="fill:#E8EAE9;" width="76.8" height="72.53"/>
	<rect x="121.598" y="46.94" style="fill:#E8EAE9;" width="129.07" height="72.53"/>
	<rect x="263.468" y="46.94" style="fill:#E8EAE9;" width="129.07" height="72.53"/>
	<rect x="405.338" y="46.94" style="fill:#E8EAE9;" width="74.67" height="72.53"/>
	<rect x="31.998" y="132.27" style="fill:#E8EAE9;" width="27.733" height="72.53"/>
	<rect x="72.535" y="132.27" style="fill:#E8EAE9;" width="129.07" height="72.53"/>
	<rect x="215.468" y="132.27" style="fill:#E8EAE9;" width="129.07" height="72.53"/>
	<rect x="357.338" y="132.27" style="fill:#E8EAE9;" width="122.67" height="72.53"/>
	<rect x="31.998" y="217.6" style="fill:#E8EAE9;" width="76.8" height="72.53"/>
	<rect x="121.598" y="217.6" style="fill:#E8EAE9;" width="129.07" height="72.53"/>
	<rect x="263.468" y="217.6" style="fill:#E8EAE9;" width="129.07" height="72.53"/>
	<rect x="405.338" y="217.6" style="fill:#E8EAE9;" width="74.67" height="72.53"/>
	<rect x="31.998" y="302.94" style="fill:#E8EAE9;" width="124.8" height="72.53"/>
	<rect x="169.598" y="302.94" style="fill:#E8EAE9;" width="129.07" height="72.53"/>
	<rect x="311.468" y="302.94" style="fill:#E8EAE9;" width="129.07" height="72.53"/>
	<rect x="453.338" y="302.94" style="fill:#E8EAE9;" width="25.6" height="72.53"/>
	<rect x="31.998" y="388.27" style="fill:#E8EAE9;" width="76.8" height="72.53"/>
	<rect x="121.598" y="388.27" style="fill:#E8EAE9;" width="129.07" height="72.53"/>
	<rect x="263.468" y="388.27" style="fill:#E8EAE9;" width="129.07" height="72.53"/>
	<rect x="405.338" y="388.27" style="fill:#E8EAE9;" width="74.67" height="72.53"/>
</g>
<path style="fill:#415A6B;" d="M128.001,458.67V252.803c0-71.467,57.6-129.067,129.067-129.067l0,0
	c71.467,0,129.067,57.6,129.067,129.067v206.933H128.001V458.67z"/>
<rect x="2.135" style="fill:#ADB3BA;" width="509.87" height="71.47"/>
<path style="fill:#F3705A;" d="M336.001,347.737c-19.2-20.267-5.333-74.667-5.333-74.667s-20.267,11.733-21.333,36.267
	c-1.067,18.133-12.8,36.267-12.8,36.267c10.667-17.067-1.067-50.133-22.4-64c-21.333-12.8-19.2-71.467-19.2-71.467
	c-59.734,57.6-45.867,116.266-45.867,116.266c-9.6-7.467-16-25.6-16-25.6c-44.8,69.333-13.867,105.6,10.667,121.6
	c-1.067-7.467,0-16,0-23.467c0-21.333,2.133-39.467,10.667-58.667c4.267,6.4,4.267,14.933,9.6,21.333
	c5.333,7.467,9.6,12.8,13.867,21.333c0-21.333-13.867-38.4-13.867-59.733c0-11.733,1.067-19.2,6.4-29.867
	c4.267-7.467,11.733-21.333,20.267-24.533c1.067,11.733-3.2,23.467,3.2,34.133c6.4,10.667,14.933,20.267,21.333,29.867
	c7.467,10.667,14.933,24.533,17.067,38.4c2.133,7.467,3.2,20.267,2.133,28.8c1.067-3.2,4.267-5.333,5.333-8.533
	c2.133-4.267,2.133-8.533,4.267-12.8c3.2-9.6,7.467-19.2,7.467-29.867c2.133,9.6,9.6,16,11.733,24.533
	c4.267,14.933,0,30.933-6.4,44.8c-1.067,1.067-1.067,3.2-2.133,4.267C346.668,402.137,349.868,363.737,336.001,347.737z"/>
<path style="fill:#FFD15C;" d="M314.668,424.537c9.6-12.8,13.867-33.067,9.6-48c-1.867-11.3-10.667-18.133-12.8-27.733
	c-0.4,10.767-4.736,21.29-7.936,30.89c-1.067,4.267-2.631,5.376-3.797,11.776c-1.067,2.133-2.801,2.631-3.868,5.831
	c1.067-8.533-0.399-15.431-2.532-22.898c-1.6-14-8.507-26.687-15.974-38.42c-6.293-10.747-14.992-20.598-21.989-30.621
	c-6.4-10.667-3.637-24.826-4.703-36.559c-8.533,3.2-17.933,17.767-21.338,26.76c-5.333,9.6-5.883,20.612-5.353,32.394
	c0.959,21.312,13.891,33.646,13.891,54.979c-3.2-8.533-5.908-11.699-12.308-19.166c-5.333-6.4-6.892-17.101-11.159-23.501
	c-8.533,19.2-10.711,39.467-10.711,61.47c0,7.467-1.022,13.197,0.044,20.663c5.167,4.667,7.5,8,27.733,14.933
	c0-4.267-1.067-7.467-2.133-9.6c-2.133-11.733-12.8-33.067-3.2-43.733c3.2,7.467,4.267,14.933,9.6,21.333
	c5.333,6.4,9.6,10.667,13.867,17.067c0-10.667,0-21.333,1.067-30.933c2.133-13.867,3.2-25.6-2.133-38.4
	c6.4,9.6,14.933,14.933,20.267,25.6c5.333,11.733,6.4,22.4,6.4,35.2c0,10.667-4.267,18.133-7.467,26.667
	C281.601,437.337,296.535,435.203,314.668,424.537z"/>
<rect x="2.135" y="442.67" style="fill:#ADB3BA;" width="509.87" height="71.47"/>
<g>
</g>
<g>
</g>
<g>
</g>
<g>
</g>
<g>
</g>
<g>
</g>
<g>
</g>
<g>
</g>
<g>
</g>
<g>
</g>
<g>
</g>
<g>
</g>
<g>
</g>
<g>
</g>
<g>
</g>
</svg>
