<?xml version="1.0" encoding="iso-8859-1"?>
<!-- Generator: Adobe Illustrator 19.0.0, SVG Export Plug-In . SVG Version: 6.00 Build 0)  -->
<svg version="1.1" id="Layer_1" xmlns="http://www.w3.org/2000/svg" xmlns:xlink="http://www.w3.org/1999/xlink" x="0px" y="0px"
	 viewBox="0 0 508.032 508.032" style="enable-background:new 0 0 508.032 508.032;" xml:space="preserve">
<path style="fill:#4CDBC4;" d="M186.616,345.132v162.9h-77.4l-55-148.6l-4.6-14.3l-0.5-1.5c3.2,1,6.5,1.5,10,1.5H186.616z"/>
<polygon style="fill:#3DC9AE;" points="186.616,345.132 186.616,359.432 54.216,359.432 49.616,345.132 "/>
<path style="fill:#40596B;" d="M59.116,77.332c-18.7,0-33.9,15.4-33.9,34.3v199.2c0,18.9,15.1,34.3,33.9,34.3h155.8v-267.8H59.116z"
	/>
<path style="fill:#F2F2F2;" d="M481.116,0.832l-266.2,76.5v267.8l264.7,96.7c13.8,5,28.3-5.3,28.3-20.2v-400.1
	C508.016,7.232,494.616-3.068,481.116,0.832z"/>
<path style="fill:#CDD6E0;" d="M481.116,0.832l-34,9.8v419.3l32.6,11.9c13.8,5,28.3-5.3,28.3-20.2v-400.1
	C508.016,7.232,494.616-3.068,481.116,0.832z"/>
<path style="fill:#F2F2F2;" d="M11.316,115.832c-6.2,0-11.3,5.1-11.3,11.4v167.9c0,6.3,5.1,11.4,11.3,11.4h13.9v-190.7H11.316z"/>
<g>
	<path style="fill:#334A5E;" d="M92.416,211.232c0,5.7-4.6,10.3-10.2,10.3h-57v-20.7h57
		C87.816,200.832,92.416,205.532,92.416,211.232z"/>
	<path style="fill:#334A5E;" d="M92.416,165.932c0,5.7-4.6,10.3-10.2,10.3h-57v-20.6h57
		C87.816,155.632,92.416,160.332,92.416,165.932z"/>
	<path style="fill:#334A5E;" d="M92.416,256.432c0,5.7-4.6,10.3-10.2,10.3h-57v-20.6h57
		C87.816,246.132,92.416,250.732,92.416,256.432z"/>
</g>
<g>
</g>
<g>
</g>
<g>
</g>
<g>
</g>
<g>
</g>
<g>
</g>
<g>
</g>
<g>
</g>
<g>
</g>
<g>
</g>
<g>
</g>
<g>
</g>
<g>
</g>
<g>
</g>
<g>
</g>
</svg>
