<?xml version="1.0" encoding="iso-8859-1"?>
<!-- Generator: Adobe Illustrator 19.0.0, SVG Export Plug-In . SVG Version: 6.00 Build 0)  -->
<svg version="1.1" id="Capa_1" xmlns="http://www.w3.org/2000/svg" xmlns:xlink="http://www.w3.org/1999/xlink" x="0px" y="0px"
	 viewBox="0 0 468.293 468.293" style="enable-background:new 0 0 468.293 468.293;" xml:space="preserve">
<path style="fill:#44C4A1;" d="M150.348,468.293H81.665c-10.345,0-18.732-8.386-18.732-18.732V18.732C62.933,8.386,71.32,0,81.665,0
	h68.683V468.293z"/>
<path style="fill:#3EA69B;" d="M411.603,468.293H150.348V0h261.255c10.345,0,18.732,8.386,18.732,18.732v430.829
	C430.335,459.906,421.948,468.293,411.603,468.293z"/>
<g>
	<path style="fill:#64798A;" d="M75.421,72.818H50.446c-6.897,0-12.488-5.591-12.488-12.488v0c0-6.897,5.591-12.488,12.488-12.488
		h24.976c6.897,0,12.488,5.591,12.488,12.488v0C87.909,67.228,82.318,72.818,75.421,72.818z"/>
	<path style="fill:#64798A;" d="M75.421,142.345H50.446c-6.897,0-12.488-5.591-12.488-12.488v0c0-6.897,5.591-12.488,12.488-12.488
		h24.976c6.897,0,12.488,5.591,12.488,12.488v0C87.909,136.754,82.318,142.345,75.421,142.345z"/>
	<path style="fill:#64798A;" d="M75.421,211.871H50.446c-6.897,0-12.488-5.591-12.488-12.488v0c0-6.897,5.591-12.488,12.488-12.488
		h24.976c6.897,0,12.488,5.591,12.488,12.488v0C87.909,206.28,82.318,211.871,75.421,211.871z"/>
	<path style="fill:#64798A;" d="M75.421,281.397H50.446c-6.897,0-12.488-5.591-12.488-12.488v0c0-6.897,5.591-12.488,12.488-12.488
		h24.976c6.897,0,12.488,5.591,12.488,12.488v0C87.909,275.806,82.318,281.397,75.421,281.397z"/>
	<path style="fill:#64798A;" d="M75.421,350.924H50.446c-6.897,0-12.488-5.591-12.488-12.488v0c0-6.897,5.591-12.488,12.488-12.488
		h24.976c6.897,0,12.488,5.591,12.488,12.488v0C87.909,345.333,82.318,350.924,75.421,350.924z"/>
	<path style="fill:#64798A;" d="M75.421,420.45H50.446c-6.897,0-12.488-5.591-12.488-12.488v0c0-6.897,5.591-12.488,12.488-12.488
		h24.976c6.897,0,12.488,5.591,12.488,12.488v0C87.909,414.859,82.318,420.45,75.421,420.45z"/>
</g>
<path style="fill:#E1E6E9;" d="M375.804,220.33H204.879c-6.897,0-12.488-5.591-12.488-12.488v-65.497
	c0-6.897,5.591-12.488,12.488-12.488h170.926c6.897,0,12.488,5.591,12.488,12.488v65.497
	C388.292,214.739,382.701,220.33,375.804,220.33z"/>
<polygon style="fill:#FCD462;" points="225.041,71.831 208.716,59.343 192.391,71.831 192.391,0 225.041,0 "/>
<path style="fill:#64798A;" d="M359.024,181.337H221.659c-3.448,0-6.244-2.796-6.244-6.244v0c0-3.448,2.795-6.244,6.244-6.244
	h137.366c3.448,0,6.244,2.795,6.244,6.244v0C365.268,178.542,362.473,181.337,359.024,181.337z"/>
<g>
</g>
<g>
</g>
<g>
</g>
<g>
</g>
<g>
</g>
<g>
</g>
<g>
</g>
<g>
</g>
<g>
</g>
<g>
</g>
<g>
</g>
<g>
</g>
<g>
</g>
<g>
</g>
<g>
</g>
</svg>
