<?xml version="1.0" encoding="iso-8859-1"?>
<!-- Generator: Adobe Illustrator 19.0.0, SVG Export Plug-In . SVG Version: 6.00 Build 0)  -->
<svg version="1.1" id="Capa_1" xmlns="http://www.w3.org/2000/svg" xmlns:xlink="http://www.w3.org/1999/xlink" x="0px" y="0px"
	 viewBox="0 0 512 512" style="enable-background:new 0 0 512 512;" xml:space="preserve">
<path style="fill:#D9D9D9;" d="M493.49,18.514c-24.64-24.641-64.733-24.645-89.378-0.004L245.395,177.229
	c-5.858,5.857-5.858,15.355,0,21.213c5.857,5.857,15.355,5.857,21.213,0l46.952,46.955l0,0c-5.858,5.857-5.858,15.356,0,21.213
	c2.929,2.928,6.767,4.393,10.606,4.393s7.678-1.465,10.607-4.393l158.72-158.721C505.428,95.951,512,80.08,512,63.199
	C511.999,46.316,505.425,30.447,493.49,18.514z"/>
<path style="fill:#F2F2F2;" d="M493.489,404.111L258.3,168.924c-5.857-5.857-15.355-5.857-21.213,0s-5.858,15.355,0,21.213l0,0
	l-46.949,46.951c-5.857-5.857-15.355-5.857-21.213,0s-5.858,15.355,0,21.213l235.188,235.188C416.05,505.426,431.92,512,448.801,512
	c16.882,0,32.752-6.574,44.686-18.512C518.13,468.846,518.13,428.752,493.489,404.111z"/>
<path style="fill:#E61E14;" d="M135.501,271c-36.193,0-70.22-14.096-95.812-39.688C14.096,205.721,0,171.693,0,135.5
	c0.001-36.193,14.096-70.221,39.689-95.813C65.281,14.096,99.308,0,135.501,0c36.192,0,70.219,14.096,95.81,39.689
	c25.594,25.59,39.69,59.615,39.69,95.811c0,36.193-14.096,70.221-39.69,95.813C205.72,256.904,171.693,271,135.501,271z M135.501,30
	c-28.18,0-54.672,10.975-74.598,30.902C40.975,80.828,30,107.32,30,135.5s10.975,54.674,30.902,74.598
	C80.829,230.025,107.321,241,135.501,241c28.179,0,54.671-10.975,74.598-30.9c19.928-19.926,30.902-46.42,30.902-74.6
	S230.026,80.828,210.1,60.902C190.172,40.975,163.68,30,135.501,30z"/>
<path style="fill:#FD3018;" d="M135.501,512c-36.193,0-70.22-14.096-95.812-39.688C14.096,446.721,0,412.693,0,376.5
	c0.001-36.193,14.096-70.221,39.689-95.813c25.592-25.594,59.618-39.689,95.812-39.689c36.192,0,70.219,14.096,95.811,39.692
	c25.593,25.59,39.689,59.617,39.689,95.81s-14.096,70.221-39.69,95.813C205.72,497.904,171.693,512,135.501,512z M135.501,270.998
	c-28.18,0-54.672,10.975-74.598,30.904C40.975,321.828,30,348.32,30,376.5s10.975,54.674,30.902,74.598
	C80.829,471.025,107.321,482,135.501,482c28.179,0,54.671-10.975,74.598-30.9c19.928-19.926,30.902-46.42,30.902-74.6
	s-10.975-54.672-30.901-74.598C190.172,281.973,163.68,270.998,135.501,270.998z"/>
<g>
</g>
<g>
</g>
<g>
</g>
<g>
</g>
<g>
</g>
<g>
</g>
<g>
</g>
<g>
</g>
<g>
</g>
<g>
</g>
<g>
</g>
<g>
</g>
<g>
</g>
<g>
</g>
<g>
</g>
</svg>
