<?xml version="1.0" encoding="iso-8859-1"?>
<!-- Generator: Adobe Illustrator 19.0.0, SVG Export Plug-In . SVG Version: 6.00 Build 0)  -->
<svg version="1.1" id="Layer_1" xmlns="http://www.w3.org/2000/svg" xmlns:xlink="http://www.w3.org/1999/xlink" x="0px" y="0px"
	 viewBox="0 0 508.1 508.1" style="enable-background:new 0 0 508.1 508.1;" xml:space="preserve">
<path style="fill:#CDD6E0;" d="M486.8,0.05H21.2C9.5,0.05,0,9.55,0,21.25v186.3h508V21.25C508,9.55,498.5,0.05,486.8,0.05z"/>
<path style="fill:#F2F2F2;" d="M0,207.45v279.4c0,11.7,9.5,21.2,21.2,21.2h465.7c11.7,0,21.2-9.5,21.2-21.2v-279.4H0z"/>
<rect x="41.1" y="36.45" style="fill:#FFFFFF;" width="425.7" height="134.6"/>
<g>
	<rect x="41.1" y="375.95" style="fill:#CDD6E0;" width="119.9" height="95.6"/>
	<rect x="41.1" y="243.95" style="fill:#CDD6E0;" width="119.9" height="95.6"/>
</g>
<rect x="346.9" y="375.95" style="fill:#FF7058;" width="119.9" height="95.6"/>
<rect x="346.9" y="243.95" style="fill:#ACB3BA;" width="119.9" height="95.6"/>
<g>
	<rect x="194" y="375.95" style="fill:#CDD6E0;" width="119.9" height="95.6"/>
	<rect x="194" y="243.95" style="fill:#CDD6E0;" width="119.9" height="95.6"/>
</g>
<g>
</g>
<g>
</g>
<g>
</g>
<g>
</g>
<g>
</g>
<g>
</g>
<g>
</g>
<g>
</g>
<g>
</g>
<g>
</g>
<g>
</g>
<g>
</g>
<g>
</g>
<g>
</g>
<g>
</g>
</svg>
