<?xml version="1.0" encoding="iso-8859-1"?>
<!-- Generator: Adobe Illustrator 19.0.0, SVG Export Plug-In . SVG Version: 6.00 Build 0)  -->
<svg version="1.1" id="Capa_1" xmlns="http://www.w3.org/2000/svg" xmlns:xlink="http://www.w3.org/1999/xlink" x="0px" y="0px"
	 viewBox="0 0 468.293 468.293" style="enable-background:new 0 0 468.293 468.293;" xml:space="preserve">
<path style="fill:#647989;" d="M468.293,280.749l0.001-93.206l-59.835-13.539c-2.44-7.072-5.267-13.961-8.514-20.614l32.721-51.857
	l-65.905-65.906l-51.858,32.72c-6.652-3.246-13.543-6.074-20.614-8.514L280.75,0h-93.206l-13.538,59.833
	c-7.07,2.439-13.958,5.266-20.61,8.511l-51.859-32.723l-65.906,65.905l32.72,51.859c-3.247,6.652-6.075,13.541-8.514,20.614
	L0.001,187.538L0,280.743l59.834,13.54c2.44,7.073,5.267,13.962,8.514,20.616l-32.722,51.858l65.906,65.907l51.858-32.721
	c6.654,3.247,13.543,6.075,20.614,8.514l13.54,59.837h93.206l13.538-59.837c7.072-2.439,13.962-5.267,20.615-8.514l51.857,32.721
	l65.906-65.905l-32.721-51.86c3.247-6.652,6.074-13.541,8.514-20.613L468.293,280.749z"/>
<circle style="fill:#EBEFF2;" cx="234.147" cy="234.147" r="161.842"/>
<g>
	<path style="fill:#29A1DA;" d="M242.137,106.394v61.822c11.769-0.711,23.235-2.986,34.164-6.729
		C267.973,132.142,255.126,112.311,242.137,106.394z"/>
	<path style="fill:#29A1DA;" d="M242.137,284.028c13.066,0.702,25.802,3.145,37.966,7.173c3.026-14.694,4.969-31.181,5.419-49.061
		h-43.385V284.028z"/>
	<path style="fill:#29A1DA;" d="M242.137,361.899c12.992-5.919,25.842-25.757,34.169-55.113c-10.931-3.744-22.398-6.02-34.169-6.731
		V361.899z"/>
	<path style="fill:#29A1DA;" d="M291.179,312.936c-5.502,18.766-12.933,34.519-21.76,45.992
		c18.366-5.166,35.409-14.365,50.022-27.167C310.799,324.193,301.298,317.897,291.179,312.936z"/>
	<path style="fill:#29A1DA;" d="M301.519,242.141c-0.472,19.717-2.684,38.275-6.317,55.002
		c15.199,7.019,29.214,16.693,41.443,28.811c20.169-22.506,33.029-51.682,34.869-83.813H301.519z"/>
	<path style="fill:#29A1DA;" d="M269.4,109.34c8.833,11.472,16.269,27.228,21.773,45.999c10.121-4.961,19.624-11.259,28.267-18.828
		C304.823,123.705,287.773,114.505,269.4,109.34z"/>
	<path style="fill:#29A1DA;" d="M166.763,226.153c0.472-19.727,2.687-38.293,6.323-55.026
		c-15.192-7.017-29.202-16.687-41.426-28.799c-20.154,22.511-33.033,51.682-34.878,83.825H166.763z"/>
	<path style="fill:#29A1DA;" d="M242.137,226.153h43.385c-0.45-17.888-2.395-34.381-5.423-49.081
		c-12.163,4.027-24.898,6.47-37.962,7.171V226.153z"/>
	<path style="fill:#29A1DA;" d="M226.149,184.243c-13.066-0.702-25.801-3.146-37.965-7.175c-3.029,14.701-4.974,31.195-5.424,49.085
		h43.389V184.243z"/>
	<path style="fill:#29A1DA;" d="M226.149,106.394c-12.99,5.917-25.839,25.746-34.167,55.09c10.93,3.744,22.397,6.02,34.167,6.732
		V106.394z"/>
	<path style="fill:#29A1DA;" d="M173.082,297.147c-3.634-16.728-5.847-35.288-6.319-55.006H96.781
		c1.839,32.131,14.7,61.308,34.869,83.813C143.876,313.839,157.888,304.166,173.082,297.147z"/>
	<path style="fill:#29A1DA;" d="M295.197,171.131c3.635,16.732,5.849,35.297,6.321,55.022h69.993
		c-1.845-32.143-14.724-61.314-34.878-83.825C324.406,154.442,310.393,164.114,295.197,171.131z"/>
	<path style="fill:#29A1DA;" d="M226.149,242.141H182.76c0.45,17.881,2.394,34.369,5.42,49.064
		c12.165-4.029,24.902-6.473,37.969-7.176V242.141z"/>
	<path style="fill:#29A1DA;" d="M198.863,358.924c-8.826-11.472-16.257-27.222-21.758-45.984
		c-10.116,4.96-19.613,11.255-28.253,18.82C163.463,344.56,180.502,353.757,198.863,358.924z"/>
	<path style="fill:#29A1DA;" d="M148.853,136.511c8.641,7.567,18.14,13.863,28.258,18.823c5.505-18.767,12.94-34.521,21.771-45.991
		C180.513,114.509,163.468,123.708,148.853,136.511z"/>
	<path style="fill:#29A1DA;" d="M226.149,361.9v-61.843c-11.772,0.712-23.241,2.989-34.172,6.734
		C200.305,336.145,213.156,355.982,226.149,361.9z"/>
</g>
<g>
</g>
<g>
</g>
<g>
</g>
<g>
</g>
<g>
</g>
<g>
</g>
<g>
</g>
<g>
</g>
<g>
</g>
<g>
</g>
<g>
</g>
<g>
</g>
<g>
</g>
<g>
</g>
<g>
</g>
</svg>
