<?xml version="1.0" encoding="iso-8859-1"?>
<!-- Generator: Adobe Illustrator 19.0.0, SVG Export Plug-In . SVG Version: 6.00 Build 0)  -->
<svg version="1.1" id="Capa_1" xmlns="http://www.w3.org/2000/svg" xmlns:xlink="http://www.w3.org/1999/xlink" x="0px" y="0px"
	 viewBox="0 0 468.293 468.293" style="enable-background:new 0 0 468.293 468.293;" xml:space="preserve">
<path style="fill:#E1E6E9;" d="M384,0H84.293C73.947,0,65.561,8.386,65.561,18.732v370.107l79.455,79.454H384
	c10.345,0,18.732-8.386,18.732-18.732V18.732C402.732,8.386,394.345,0,384,0z"/>
<g>
	<polygon style="fill:#EBF0F3;" points="145.016,388.838 65.561,388.838 145.016,468.293 	"/>
	<rect x="117.816" y="57.556" style="fill:#EBF0F3;" width="232.648" height="89.182"/>
</g>
<g>
	<path style="fill:#E56353;" d="M131.047,128.707V76.335h8.841v43.982h23.902v8.39H131.047z"/>
	<path style="fill:#E56353;" d="M215.791,121.475c-5.296,5.171-11.838,7.756-19.631,7.756c-7.793,0-14.338-2.585-19.631-7.756
		c-5.296-5.171-7.942-11.61-7.942-19.329s2.646-14.165,7.942-19.329c5.293-5.171,11.838-7.756,19.631-7.756
		c7.793,0,14.335,2.585,19.631,7.756c5.293,5.165,7.942,11.61,7.942,19.329S221.084,116.304,215.791,121.475z M209.309,88.694
		c-3.573-3.695-7.954-5.543-13.149-5.543c-5.195,0-9.579,1.848-13.149,5.543c-3.573,3.701-5.357,8.183-5.357,13.451
		s1.784,9.75,5.357,13.451c3.57,3.695,7.954,5.543,13.149,5.543c5.195,0,9.576-1.848,13.149-5.543
		c3.57-3.701,5.357-8.183,5.357-13.451S212.88,92.396,209.309,88.694z"/>
	<path style="fill:#E56353;" d="M240.965,116.792l-5.244,11.915h-9.442l23.076-52.372h9.442l23.076,52.372h-9.439l-5.247-11.915
		H240.965z M263.593,108.627l-9.515-21.579l-9.515,21.579H263.593z"/>
	<path style="fill:#E56353;" d="M328.404,76.335h8.841v52.372h-9.591l-29.671-38.213v38.213h-8.841V76.335h8.841l30.421,39.11
		V76.335z"/>
</g>
<g>
	<rect x="117.822" y="184.819" style="fill:#D5D6DB;" width="232.648" height="12.488"/>
	<rect x="140.488" y="229.463" style="fill:#D5D6DB;" width="187.317" height="12.488"/>
	<rect x="117.822" y="274.17" style="fill:#D5D6DB;" width="232.648" height="12.488"/>
	<rect x="140.488" y="318.814" style="fill:#D5D6DB;" width="187.317" height="12.488"/>
</g>
<g>
</g>
<g>
</g>
<g>
</g>
<g>
</g>
<g>
</g>
<g>
</g>
<g>
</g>
<g>
</g>
<g>
</g>
<g>
</g>
<g>
</g>
<g>
</g>
<g>
</g>
<g>
</g>
<g>
</g>
</svg>
