<?xml version="1.0" encoding="iso-8859-1"?>
<!-- Generator: Adobe Illustrator 19.0.0, SVG Export Plug-In . SVG Version: 6.00 Build 0)  -->
<svg xmlns="http://www.w3.org/2000/svg" xmlns:xlink="http://www.w3.org/1999/xlink" version="1.1" id="Capa_1" x="0px" y="0px" viewBox="0 0 409.6 409.6" style="enable-background:new 0 0 409.6 409.6;" xml:space="preserve">
<path style="fill:#F6C358;" d="M144.128,0c0,0,173.056,7.68,261.12,253.952L4.352,409.6L144.128,0z"/>
<path style="fill:#FCD462;" d="M4.352,409.6l400.896-155.648c-25.088-69.632-56.832-120.32-89.6-157.184L4.352,409.6z"/>
<path style="fill:#DC8744;" d="M120.064,71.168L144.128,0c0,0,173.056,7.68,261.12,253.952l-73.728,28.672  C332.032,282.624,286.976,103.936,120.064,71.168z"/>
<g>
	<ellipse style="fill:#E56353;" cx="79.402" cy="303.616" rx="23.55" ry="23.55"/>
	<ellipse style="fill:#E56353;" cx="174.23" cy="299.233" rx="23.55" ry="23.55"/>
	<ellipse style="fill:#E56353;" cx="132.904" cy="170.393" rx="23.55" ry="23.55"/>
	<ellipse style="fill:#E56353;" cx="244.635" cy="223.821" rx="23.55" ry="23.55"/>
</g>
<g>
	<path style="fill:#DC8744;" d="M101.632,354.816c-9.216,17.408-34.304,21.504-55.808,10.24c-4.096-2.048-5.632-7.168-3.584-11.264   c2.048-4.096,7.168-5.632,11.264-3.584c13.312,7.168,28.672,5.632,33.28-3.072c2.048-4.096,7.168-5.632,11.264-3.584   C102.144,346.112,103.68,350.72,101.632,354.816z"/>
	<path style="fill:#DC8744;" d="M79.104,252.928c5.632-18.432,29.184-28.16,52.736-20.992c4.608,1.536,6.656,6.144,5.632,10.24   c-1.536,4.608-6.144,6.656-10.24,5.632c-14.336-4.608-29.184,0-32.256,9.728c-1.536,4.608-6.144,6.656-10.24,5.632   C80.128,262.144,78.08,257.536,79.104,252.928z"/>
	<path style="fill:#DC8744;" d="M272.64,281.088c-14.336,13.312-39.424,9.216-56.32-8.704c-3.072-3.584-3.072-8.704,0.512-11.776   c3.584-3.072,8.704-3.072,11.776,0.512c10.24,11.264,25.088,14.848,32.768,7.68c3.584-3.072,8.704-3.072,11.776,0.512   C276.224,272.896,276.224,278.016,272.64,281.088z"/>
	<path style="fill:#DC8744;" d="M173.312,154.624c9.728-16.896,35.328-20.48,56.32-8.192c4.096,2.56,5.12,7.68,3.072,11.264   c-2.56,4.096-7.68,5.12-11.264,3.072c-12.8-7.68-28.16-6.656-33.28,2.048c-2.56,4.096-7.68,5.12-11.264,3.072   C172.288,163.328,170.752,158.208,173.312,154.624z"/>
</g>
<g>
</g>
<g>
</g>
<g>
</g>
<g>
</g>
<g>
</g>
<g>
</g>
<g>
</g>
<g>
</g>
<g>
</g>
<g>
</g>
<g>
</g>
<g>
</g>
<g>
</g>
<g>
</g>
<g>
</g>
</svg>
