<?xml version="1.0" encoding="iso-8859-1"?>
<!-- Generator: Adobe Illustrator 19.0.0, SVG Export Plug-In . SVG Version: 6.00 Build 0)  -->
<svg version="1.1" id="Layer_1" xmlns="http://www.w3.org/2000/svg" xmlns:xlink="http://www.w3.org/1999/xlink" x="0px" y="0px"
	 viewBox="0 0 512 512" style="enable-background:new 0 0 512 512;" xml:space="preserve">
<path style="fill:#F1F2F2;" d="M322.408,485.039H189.592c-11.145,0-19.18-10.742-16.007-21.443l26.589-89.659
	c2.101-7.088,8.614-11.949,16.007-11.949h79.636c7.393,0,13.905,4.861,16.007,11.949l26.59,89.659
	C341.583,474.282,333.568,485.039,322.408,485.039z"/>
<g>
	<path style="fill:#BCBEC0;" d="M338.414,463.598l-26.59-89.659c-2.101-7.088-8.614-11.948-16.007-11.948H256v123.05h66.408
		C333.568,485.039,341.583,474.282,338.414,463.598z"/>
	<path style="fill:#BCBEC0;" d="M377.751,485.039H134.249c-9.22,0-16.696-7.475-16.696-16.696c0-9.22,7.475-16.696,16.696-16.696
		h243.503c9.22,0,16.696,7.475,16.696,16.696C394.447,477.564,386.972,485.039,377.751,485.039z"/>
	<path style="fill:#BCBEC0;" d="M495.304,395.377H16.696C7.475,395.377,0,387.902,0,378.681V303.25
		c0-9.22,7.475-16.696,16.696-16.696h478.609c9.22,0,16.696,7.475,16.696,16.696v75.431
		C512,387.902,504.525,395.377,495.304,395.377z"/>
</g>
<path style="fill:#808285;" d="M495.304,286.555H256v108.822h239.304c9.22,0,16.696-7.475,16.696-16.696V303.25
	C512,294.03,504.525,286.555,495.304,286.555z"/>
<path style="fill:#F1F2F2;" d="M512,319.946H0V43.655c0-9.22,7.475-16.696,16.696-16.696h478.609c9.22,0,16.696,7.475,16.696,16.696
	V319.946z"/>
<path style="fill:#BCBEC0;" d="M512,43.655c0-9.22-7.475-16.696-16.696-16.696H256v292.986h256V43.655z"/>
<path style="fill:#0778B8;" d="M343.147,261.734H168.853c-9.22,0-16.696-7.475-16.696-16.696v-143.17
	c0-9.22,7.475-16.696,16.696-16.696h174.294c9.22,0,16.696,7.475,16.696,16.696v143.17
	C359.842,254.26,352.367,261.734,343.147,261.734z"/>
<path style="fill:#224F9C;" d="M343.147,85.173H256v176.561h87.147c9.22,0,16.696-7.475,16.696-16.696v-143.17
	C359.842,92.648,352.367,85.173,343.147,85.173z"/>
<path style="fill:#62D2A2;" d="M343.147,261.734h-58.526c-5.216,0-10.131-2.436-13.289-6.588l-28.621-37.629
	c-4.543-5.973-4.543-14.243,0-20.215l29.263-38.47c6.685-8.79,19.901-8.775,26.576,0l57.884,76.098
	C364.779,245.899,356.937,261.734,343.147,261.734z"/>
<path style="fill:#9DF3C4;" d="M284.621,261.734H168.853c-13.782,0-21.639-15.829-13.288-26.803l57.884-76.098
	c6.679-8.783,19.905-8.772,26.576,0l57.884,76.098C306.251,245.897,298.416,261.734,284.621,261.734z"/>
<path style="fill:#808285;" d="M377.751,451.648H256v33.391h121.751c9.22,0,16.696-7.475,16.696-16.696
	C394.447,459.123,386.972,451.648,377.751,451.648z"/>
<path style="fill:#1FAB89;" d="M356.434,234.931l-57.884-76.098c-6.674-8.775-19.891-8.79-26.576,0L256,179.834v55.155
	l15.332,20.157c3.158,4.151,8.073,6.588,13.289,6.588h58.526C356.937,261.734,364.779,245.899,356.434,234.931z"/>
<path style="fill:#62D2A2;" d="M297.909,234.931L256,179.834v81.9h28.621C298.417,261.734,306.251,245.897,297.909,234.931z"/>
<g>
</g>
<g>
</g>
<g>
</g>
<g>
</g>
<g>
</g>
<g>
</g>
<g>
</g>
<g>
</g>
<g>
</g>
<g>
</g>
<g>
</g>
<g>
</g>
<g>
</g>
<g>
</g>
<g>
</g>
</svg>
