<?xml version="1.0" encoding="iso-8859-1"?>
<!-- Generator: Adobe Illustrator 19.0.0, SVG Export Plug-In . SVG Version: 6.00 Build 0)  -->
<svg version="1.1" id="Capa_1" xmlns="http://www.w3.org/2000/svg" xmlns:xlink="http://www.w3.org/1999/xlink" x="0px" y="0px"
	 viewBox="0 0 512 512" style="enable-background:new 0 0 512 512;" xml:space="preserve">
<path style="fill:#ED6362;" d="M256,0h-1.6C149.6,0.8,64.64,86.08,64.64,191.2c0,99.84,170.72,297.28,189.76,318.88v0.16
	c0.96,0.96,1.6,1.76,1.6,1.76s191.36-215.04,191.36-320.8C447.36,85.6,361.6,0,256,0z M256,306.4c-0.48,0-1.12,0-1.6-0.16
	c-62.88-0.64-113.6-51.84-113.6-115.04c0-63.04,50.72-114.24,113.6-114.88c0.48-0.16,1.12-0.16,1.6-0.16
	c63.52,0,115.2,51.52,115.2,115.04C371.2,254.88,319.52,306.4,256,306.4z"/>
<path style="fill:#E95454;" d="M447.36,191.2C447.36,296.96,256,512,256,512s-0.64-0.8-1.6-1.76v-204c0.48,0.16,1.12,0.16,1.6,0.16
	c63.52,0,115.2-51.52,115.2-115.2c0-63.52-51.68-115.04-115.2-115.04c-0.48,0-1.12,0-1.6,0.16V0h1.6
	C361.6,0,447.36,85.6,447.36,191.2z"/>
<path style="fill:#6F7070;" d="M354.384,206.144V176.32l-23.744-7.008c-1.6-5.408-3.696-10.512-6.336-15.376l11.808-21.712
	l-21.088-21.088l-21.712,11.808c-4.864-2.64-10.032-4.736-15.376-6.336l-7.008-23.744H241.04l-7.008,23.744
	c-5.344,1.6-10.512,3.696-15.376,6.336l-21.712-11.808l-21.088,21.088l11.808,21.712c-2.64,4.864-4.736,9.968-6.336,15.376
	l-23.744,7.008v29.824l23.744,7.008c1.6,5.408,3.696,10.576,6.336,15.376l-11.808,21.712l21.088,21.152l21.712-11.872
	c4.864,2.64,10.032,4.8,15.376,6.336l7.008,23.808h29.888l7.008-23.808c5.344-1.536,10.512-3.696,15.376-6.336l21.712,11.872
	l21.088-21.152l-11.808-21.712c2.64-4.8,4.736-9.968,6.336-15.376L354.384,206.144z M255.984,229.088
	c-20.912,0-37.824-16.976-37.824-37.824c0-20.912,16.912-37.888,37.824-37.888c20.912,0,37.824,16.976,37.824,37.888
	C293.808,212.112,276.896,229.088,255.984,229.088z"/>
<g>
	<path style="fill:#F37878;" d="M207.6,368.608l-38.464-52.016c-5.152-6.976-14.992-8.448-21.968-3.296
		c-6.976,5.168-8.448,14.992-3.296,21.968l38.464,52.016c5.152,6.976,14.992,8.448,21.968,3.296
		C211.296,385.424,212.768,375.584,207.6,368.608z"/>
	<path style="fill:#F37878;" d="M232.24,401.936l-1.168-1.584c-5.152-6.976-14.992-8.448-21.968-3.296
		c-6.976,5.168-8.448,14.992-3.296,21.968l1.168,1.584c5.152,6.976,14.992,8.448,21.968,3.296
		C235.92,418.736,237.392,408.912,232.24,401.936z"/>
</g>
<path style="fill:#D84B4B;" d="M403.168,102.128l-43.488-47.92c-5.824-6.432-15.76-6.912-22.192-1.072s-6.912,15.76-1.072,22.192
	l43.472,47.904c5.824,6.432,15.76,6.912,22.192,1.072S408.992,108.544,403.168,102.128z"/>
<g>
</g>
<g>
</g>
<g>
</g>
<g>
</g>
<g>
</g>
<g>
</g>
<g>
</g>
<g>
</g>
<g>
</g>
<g>
</g>
<g>
</g>
<g>
</g>
<g>
</g>
<g>
</g>
<g>
</g>
</svg>
