<?xml version="1.0" encoding="iso-8859-1"?>
<!-- Generator: Adobe Illustrator 19.0.0, SVG Export Plug-In . SVG Version: 6.00 Build 0)  -->
<svg version="1.1" id="Layer_1" xmlns="http://www.w3.org/2000/svg" xmlns:xlink="http://www.w3.org/1999/xlink" x="0px" y="0px"
	 viewBox="0 0 508.1 508.1" style="enable-background:new 0 0 508.1 508.1;" xml:space="preserve">
<path style="fill:#F2F2F2;" d="M42.8,223.425v246.2c0,11.7,9.5,21.2,21.2,21.2h380.2c11.7,0,21.2-9.5,21.2-21.2v-246.2H42.8z"/>
<path style="fill:#FF7058;" d="M486.8,149.825H21.2c-11.7,0-21.2,9.5-21.2,21.2v31.3c0,11.7,9.5,21.2,21.2,21.2h465.7
	c11.7,0,21.2-9.5,21.2-21.2v-31.3C508,159.225,498.5,149.825,486.8,149.825z"/>
<g>
	<path style="fill:#40596B;" d="M460.6,24.325c-9.4-9.4-24.6-9.4-34,0l-137.3,137.3c-9.4,9.4-9.4,24.6,0,34s24.6,9.4,34,0
		l137.3-137.3C469.9,48.925,469.9,33.725,460.6,24.325z"/>
	<path style="fill:#40596B;" d="M80.9,24.325c-9.4-9.4-24.6-9.4-34,0s-9.4,24.6,0,34l137.3,137.3c9.4,9.4,24.6,9.4,34,0
		s9.4-24.6,0-34L80.9,24.325z"/>
</g>
<g>
	<path style="fill:#FFFFFF;" d="M438.6,273.325H69.4c-0.8,0-1.5,0.6-1.5,1.5v27.8c0,0.8,0.6,1.4,1.5,1.4h369.2
		c0.8,0,1.5-0.6,1.5-1.4v-27.8C440,273.925,439.4,273.325,438.6,273.325z"/>
	<path style="fill:#FFFFFF;" d="M410.4,341.725H103.3c-0.8,0-1.5,0.6-1.5,1.4v27.8c0,0.8,0.6,1.5,1.5,1.5h307.1
		c0.8,0,1.4-0.6,1.4-1.4v-27.8C411.8,342.325,411.2,341.725,410.4,341.725z"/>
	<path style="fill:#FFFFFF;" d="M382.1,410.125H131.5c-0.8,0-1.5,0.6-1.5,1.5v27.8c0,0.8,0.6,1.5,1.4,1.5H382c0.8,0,1.5-0.6,1.5-1.5
		v-27.8C383.6,410.825,382.9,410.125,382.1,410.125z"/>
</g>
<rect x="42.8" y="223.425" style="fill:#E2E2E2;" width="422.5" height="14.1"/>
<g>
</g>
<g>
</g>
<g>
</g>
<g>
</g>
<g>
</g>
<g>
</g>
<g>
</g>
<g>
</g>
<g>
</g>
<g>
</g>
<g>
</g>
<g>
</g>
<g>
</g>
<g>
</g>
<g>
</g>
</svg>
