<?xml version="1.0" encoding="iso-8859-1"?>
<!-- Generator: Adobe Illustrator 19.0.0, SVG Export Plug-In . SVG Version: 6.00 Build 0)  -->
<svg version="1.1" id="Capa_1" xmlns="http://www.w3.org/2000/svg" xmlns:xlink="http://www.w3.org/1999/xlink" x="0px" y="0px"
	 viewBox="0 0 468.293 468.293" style="enable-background:new 0 0 468.293 468.293;" xml:space="preserve">
<path style="fill:#EBF0F3;" d="M402.732,12.488v443.317c0,6.868-5.62,12.488-12.488,12.488H78.049
	c-6.868,0-12.488-5.62-12.488-12.488V101.776L167.337,0h222.907C397.112,0,402.732,5.62,402.732,12.488z"/>
<g>
	<polygon style="fill:#E1E6E9;" points="167.337,0 167.337,101.776 65.561,101.776 	"/>
	<rect x="103.024" y="146.107" style="fill:#E1E6E9;" width="48.702" height="18.732"/>
	<rect x="192.312" y="146.107" style="fill:#E1E6E9;" width="172.956" height="18.732"/>
	<rect x="265.366" y="81.795" style="fill:#E1E6E9;" width="99.902" height="18.732"/>
	<rect x="204.8" y="81.795" style="fill:#E1E6E9;" width="29.346" height="18.732"/>
	<rect x="319.688" y="211.044" style="fill:#E1E6E9;" width="45.58" height="18.732"/>
	<rect x="103.024" y="211.044" style="fill:#E1E6E9;" width="174.205" height="18.732"/>
	<rect x="182.322" y="275.356" style="fill:#E1E6E9;" width="182.946" height="18.732"/>
	<rect x="103.024" y="275.356" style="fill:#E1E6E9;" width="44.956" height="18.732"/>
	<rect x="103.024" y="340.293" style="fill:#E1E6E9;" width="168.585" height="18.732"/>
	<rect x="325.307" y="340.293" style="fill:#E1E6E9;" width="39.961" height="18.732"/>
	<rect x="103.024" y="404.605" style="fill:#E1E6E9;" width="34.341" height="18.732"/>
	<rect x="187.317" y="404.605" style="fill:#E1E6E9;" width="177.951" height="18.732"/>
</g>
<g>
</g>
<g>
</g>
<g>
</g>
<g>
</g>
<g>
</g>
<g>
</g>
<g>
</g>
<g>
</g>
<g>
</g>
<g>
</g>
<g>
</g>
<g>
</g>
<g>
</g>
<g>
</g>
<g>
</g>
</svg>
