<?xml version="1.0" encoding="iso-8859-1"?>
<!-- Generator: Adobe Illustrator 19.0.0, SVG Export Plug-In . SVG Version: 6.00 Build 0)  -->
<svg version="1.1" id="Capa_1" xmlns="http://www.w3.org/2000/svg" xmlns:xlink="http://www.w3.org/1999/xlink" x="0px" y="0px"
	 viewBox="0 0 512 512" style="enable-background:new 0 0 512 512;" xml:space="preserve">
<polygon style="fill:#4CDBC4;" points="511.957,422.421 206.624,512 0.043,296.469 305.248,206.741 "/>
<polygon style="fill:#FFFFFF;" points="511.957,422.421 206.624,512 0.043,296.469 305.248,206.741 "/>
<g>
	<polygon style="fill:#4CDBC4;" points="102.123,402.965 206.624,512 296.085,485.76 324.224,402.965 	"/>
	<polygon style="fill:#4CDBC4;" points="462.645,370.965 393.461,298.773 368.917,370.965 	"/>
</g>
<g>
	<polygon style="fill:#F2F2F2;" points="368.501,272.747 305.248,206.752 0.043,296.469 71.456,370.976 335.104,370.976 	"/>
	<polygon style="fill:#F2F2F2;" points="333.621,474.741 511.957,422.421 493.312,402.976 358.016,402.976 	"/>
</g>
<path style="fill:#FF7058;" d="M400.064,144.107c0,79.584-144.107,242.869-144.107,242.869S111.851,223.691,111.851,144.107
	S176.373,0,255.957,0S400.064,64.523,400.064,144.107"/>
<path style="fill:#FFFFFF;" d="M324.608,144.107c0,37.92-30.731,68.651-68.651,68.651s-68.672-30.731-68.672-68.651
	c0-37.931,30.752-68.661,68.672-68.661S324.608,106.176,324.608,144.107"/>
<g>
</g>
<g>
</g>
<g>
</g>
<g>
</g>
<g>
</g>
<g>
</g>
<g>
</g>
<g>
</g>
<g>
</g>
<g>
</g>
<g>
</g>
<g>
</g>
<g>
</g>
<g>
</g>
<g>
</g>
</svg>
