<svg id="color" enable-background="new 0 0 24 24" height="512" viewBox="0 0 24 24" width="512" xmlns="http://www.w3.org/2000/svg"><path d="m18.25 24h-12.5c-1.517 0-2.75-1.233-2.75-2.75v-13.5c0-.414.336-.75.75-.75h16.5c.414 0 .75.336.75.75v13.5c0 1.517-1.233 2.75-2.75 2.75z" fill="#90a4ae"/><path d="m12 8.5h-9v12.75c0 1.517 1.233 2.75 2.75 2.75h6.25v-4c-1.11-.011-2.182-.366-3.024-1.004-.148-.108-.288-.223-.421-.346l-.295.273c-.141.131-.324.2-.51.2-.102 0-.203-.021-.3-.063-.273-.118-.45-.388-.45-.686v-1.753c0-.414.336-.75.75-.75h1.889c.309 0 .585.189.698.476.112.287.038.614-.188.824l-.489.454c.068.058.138.114.211.167.594.449 1.345.697 2.13.708v-7c-.018 0-.035 0-.053 0-1.783 0-3.268 1.217-3.452 2.83-.044.383-.368.665-.744.665l-.087-.005c-.412-.047-.707-.419-.66-.83.271-2.371 2.395-4.16 4.942-4.16h.053z" fill="#7d8f97"/><path d="m16.25 14.129h-1.889c-.309 0-.585-.189-.698-.476-.112-.287-.038-.614.188-.824l1.889-1.753c.218-.203.537-.255.81-.138.273.119.45.389.45.688v1.753c0 .414-.336.75-.75.75z" fill="#fff"/><path d="m15.25 4.5h-6.5c-.414 0-.75-.336-.75-.75v-2c0-.965.785-1.75 1.75-1.75h4.5c.965 0 1.75.785 1.75 1.75v2c0 .414-.336.75-.75.75z" fill="#90a4ae"/><path d="m22.25 8.5h-20.5c-.414 0-.75-.336-.75-.75v-2c0-1.517 1.233-2.75 2.75-2.75h16.5c1.517 0 2.75 1.233 2.75 2.75v2c0 .414-.336.75-.75.75z" fill="#607d8b"/><g fill="#fff"><path d="m7.751 14.995-.086-.005c-.412-.047-.707-.419-.66-.83.271-2.371 2.395-4.16 4.942-4.16 1.129 0 2.222.356 3.077 1.004.724.527 1.276 1.247 1.588 2.072.146.388-.183.333-.57.479-.385.147-.686.438-.832.051-.209-.551-.582-1.035-1.08-1.398-.607-.459-1.379-.708-2.183-.708-1.783 0-3.268 1.217-3.452 2.83-.044.383-.368.665-.744.665z"/><path d="m12.053 20c-1.129 0-2.222-.356-3.077-1.004-.724-.527-1.276-1.247-1.588-2.072-.146-.388.079-.367.467-.513.389-.144.79-.404.936-.017.209.551.582 1.035 1.08 1.398.607.459 1.379.708 2.183.708 1.783 0 3.268-1.217 3.452-2.83.047-.412.425-.713.83-.66.412.047.707.419.66.83-.272 2.371-2.396 4.16-4.943 4.16z"/><path d="m7.75 19.124c-.102 0-.203-.021-.3-.063-.273-.119-.45-.389-.45-.687v-1.753c0-.414.336-.75.75-.75h1.889c.309 0 .585.189.698.476.112.287.038.614-.188.824l-1.889 1.752c-.141.132-.324.201-.51.201z"/></g><path d="m12 0h-2.25c-.965 0-1.75.785-1.75 1.75v1.25h4z" fill="#7d8f97"/><path d="m12 3h-4-4.25c-1.517 0-2.75 1.233-2.75 2.75v2c0 .414.336.75.75.75h1.25 9z" fill="#546d79"/><path d="m11.947 10c-2.547 0-4.671 1.789-4.942 4.16-.047.411.248.783.66.83l.086.005c.376 0 .7-.282.744-.665.185-1.613 1.669-2.83 3.452-2.83h.053v-1.5c-.018 0-.035 0-.053 0z" fill="#dedede"/><path d="m9.659 17.625-1.105 1.025c.133.123.273.239.421.346.843.637 1.915.993 3.025 1.004v-1.5c-.785-.011-1.536-.258-2.13-.708-.073-.053-.143-.109-.211-.167z" fill="#dedede"/><path d="m9.639 15.871h-1.889c-.414 0-.75.336-.75.75v1.753c0 .298.177.568.45.687.097.042.198.063.3.063.186 0 .369-.069.51-.2l.295-.273 1.105-1.025.489-.454c.227-.21.301-.537.188-.824-.113-.288-.39-.477-.698-.477z" fill="#dedede"/></svg>