<?xml version="1.0" encoding="iso-8859-1"?>
<!-- Generator: Adobe Illustrator 19.0.0, SVG Export Plug-In . SVG Version: 6.00 Build 0)  -->
<svg version="1.1" id="Capa_1" xmlns="http://www.w3.org/2000/svg" xmlns:xlink="http://www.w3.org/1999/xlink" x="0px" y="0px"
	 viewBox="0 0 468.28 468.28" style="enable-background:new 0 0 468.28 468.28;" xml:space="preserve">
<path style="fill:#F6C358;" d="M424.097,370.45v34.393c0,35.035-85.046,63.437-189.957,63.437S44.184,439.878,44.184,404.843V370.45
	H424.097z"/>
<path style="fill:#FCD462;" d="M424.097,336.854v34.393c0,35.035-85.046,63.437-189.957,63.437S44.184,406.282,44.184,371.247
	v-34.393H424.097z"/>
<path style="fill:#F6C358;" d="M424.097,303.258v34.393c0,35.035-85.046,63.437-189.957,63.437S44.184,372.686,44.184,337.651
	v-34.393H424.097z"/>
<path style="fill:#FCD462;" d="M424.097,269.662v34.393c0,35.035-85.046,63.437-189.957,63.437S44.184,339.09,44.184,304.055
	v-34.393H424.097z"/>
<ellipse style="fill:#F6C358;" cx="234.14" cy="263.58" rx="189.958" ry="63.438"/>
<circle style="fill:#FCD462;" cx="278.909" cy="137.865" r="137.865"/>
<path style="fill:#DC8744;" d="M278.935,246.005c-59.63,0-108.14-48.511-108.14-108.138c0-59.63,48.511-108.14,108.14-108.14
	c59.628,0,108.138,48.511,108.138,108.14C387.073,197.494,338.562,246.005,278.935,246.005z"/>
<path style="fill:#F6C358;" d="M274.57,220.105v-14.484c-18.125-1.849-34.393-9.058-48.812-21.621l14.484-17.261
	c11.117,9.656,22.557,15.404,34.328,17.261v-38.494c-14.952-3.568-25.891-8.267-32.834-14.088
	c-6.943-5.821-10.423-14.451-10.423-25.891c0-11.44,4.004-20.797,12.005-28.079c8.001-7.274,18.423-11.238,31.252-11.9v-9.922
	h12.699v10.116c14.548,1.066,28.305,6.023,41.271,14.887l-12.901,18.254c-8.727-6.216-18.189-10.051-28.37-11.513v37.299h0.597
	c15.21,3.576,26.384,8.404,33.529,14.484c7.145,6.087,10.713,14.92,10.713,26.489c0,11.577-4.101,21.007-12.304,28.273
	c-8.203,7.282-19.045,11.246-32.536,11.908v14.282H274.57z M260.579,92.037c-3.367,2.971-5.054,6.677-5.054,11.109
	c0,4.432,1.316,7.936,3.964,10.512c2.648,2.583,7.67,5.062,15.081,7.444V86.773C268.62,87.306,263.953,89.058,260.579,92.037z
	 M302.35,179.036c3.698-3.036,5.554-6.87,5.554-11.505c0-4.626-1.461-8.299-4.368-11.012c-2.906-2.713-8.332-5.256-16.268-7.637
	v35.709C293.615,183.936,298.645,182.079,302.35,179.036z"/>
<g>
</g>
<g>
</g>
<g>
</g>
<g>
</g>
<g>
</g>
<g>
</g>
<g>
</g>
<g>
</g>
<g>
</g>
<g>
</g>
<g>
</g>
<g>
</g>
<g>
</g>
<g>
</g>
<g>
</g>
</svg>
