<?xml version="1.0" encoding="iso-8859-1"?>
<!-- Generator: Adobe Illustrator 19.0.0, SVG Export Plug-In . SVG Version: 6.00 Build 0)  -->
<svg version="1.1" id="Capa_1" xmlns="http://www.w3.org/2000/svg" xmlns:xlink="http://www.w3.org/1999/xlink" x="0px" y="0px"
	 viewBox="0 0 512 512" style="enable-background:new 0 0 512 512;" xml:space="preserve">
<path style="fill:#F2F2F2;" d="M456.373,417.643H55.627c-17.685,0-32-14.325-32-32V89.792c0-17.675,14.315-32,32-32h400.747
	c17.675,0,32,14.325,32,32v295.851C488.373,403.317,474.048,417.643,456.373,417.643"/>
<rect x="66.283" y="100.448" style="fill:#40596B;" width="379.424" height="253.301"/>
<path style="fill:#CDD6E0;" d="M512,400.608L512,400.608H0c0,29.6,24,53.6,53.6,53.6h404.789C488,454.208,512,430.208,512,400.608"
	/>
<polygon style="fill:#ACB3BA;" points="184,400.608 191.083,420.256 320.907,420.256 327.989,400.608 "/>
<path style="fill:#54C0EB;" d="M256,233.579c-70.955,0-129.568,52.149-140.043,120.171h280.085
	C385.557,285.739,326.944,233.579,256,233.579"/>
<path style="fill:#F2F2F2;" d="M261.109,238.165c0.128,2.016,1.749,4.384,3.68,3.723c2.549-2.432,5.131-4.864,7.701-7.285
	c0-0.011,0.011-0.021,0.021-0.032c-3.765-0.437-7.573-0.715-11.413-0.853C261.291,235.125,261.024,236.683,261.109,238.165"/>
<path style="fill:#FFFFFF;" d="M396.619,356.821c-0.555,0.363-1.109,0.725-1.675,1.067c-0.896,0.544-1.856,1.131-2.283,2.08
	c-0.896,1.995,1.376,4.299,3.563,4.149c0.395-0.032,0.757-0.16,1.131-0.288C397.163,361.483,396.917,359.136,396.619,356.821"/>
<path style="fill:#F2F2F2;" d="M385.323,350.251c-0.139-2.251,1.461-4.224,3.093-5.771c1.472-1.387,3.328-2.592,5.248-3.349
	c-10.101-40.661-37.749-74.368-74.443-92.672c-2.613,1.397-5.867,0.053-8.288-1.685c-2.443-1.739-4.789-3.947-7.776-4.299
	c-1.515-0.181-3.104,0.139-4.512-0.427c-1.248-0.501-2.112-1.589-2.837-2.763c-5.728-1.675-11.616-3.019-17.621-3.968
	c-0.704,0.715-1.195,1.653-1.152,2.656c0.096,2.229,2.251,4.064,4.48,4.107c-2.005-0.491-4.224-0.053-5.888,1.173
	c-1.184,0.864-2.112,2.112-3.445,2.731c-3.797,1.739-7.467-2.336-10.763-4.928c-5.312-4.171-13.643-4.597-18.624-0.043
	c-2.443,2.208-4.683,5.675-7.925,5.173c-0.939-0.139-1.792-0.629-2.72-0.832c-3.808-0.864-7.136,4.619-4.629,7.595
	c2.517,2.976,7.243,1.803,10.976,0.747c3.765-1.056,9.003-0.981,10.144,2.752c0.779,2.517-1.013,5.131-0.939,7.776
	c0.107,3.445,4.021,6.208,7.296,5.131c3.296-1.067,4.832-5.611,2.869-8.448c2.549,0.341,2.795,3.979,2.005,6.421
	c-0.789,2.453-1.749,5.6,0.245,7.221c1.376-1.035,2.741-2.069,4.128-3.115c2.4,4.043,4.779,8.075,7.189,12.107
	c1.461,2.453,2.549,6.304,0,7.573c-7.499-4.448-14.432-9.824-20.619-15.957c-1.536-1.515-3.029-3.093-4.203-4.896
	c-1.237-1.92-2.101-4.075-3.467-5.909c-3.328-4.501-9.248-6.485-14.848-6.443c-5.6,0.053-11.019,1.845-16.331,3.627
	c-6.379,2.133-13.067,4.459-17.557,9.483c-4.491,5.013-5.728,13.621-0.768,18.197c-1.557,3.979,0.832,7.264,4.107,10.027
	c3.264,2.773,7.317,4.469,10.603,7.2c3.307,2.72,5.856,7.157,4.437,11.2c-0.587,1.675-1.771,3.061-2.496,4.672
	c-1.248,2.763-1.088,5.931-1.632,8.907c-1.035,5.728-4.864,10.869-10.048,13.493l1.184-0.736c1.152,3.2,0.309,6.539-1.013,9.771
	h43.861c0.608-1.035,1.184-2.08,1.931-3.019c7.339-9.472,22.891-8.693,30.741-17.749c-2.955,0.544-5.909-1.483-7.392-4.096
	s-1.835-5.696-2.144-8.683c-0.864-8.16-1.696-16.64,1.109-24.341c0.992,8.139,2.005,16.288,2.997,24.437
	c0.203,1.6,0.427,3.285,1.365,4.608c2.037,2.869,6.283,2.699,9.771,2.24c2.773-0.373,5.621-0.768,8.032-2.187
	c2.411-1.408,4.277-4.128,3.829-6.891c-0.512-3.072-3.477-4.992-5.653-7.232c-2.176-2.229-3.456-6.368-0.896-8.139
	c4.224,7.296,9.813,13.813,16.384,19.115c2.229,1.803,4.661,3.563,5.877,6.155c1.408,2.965,0.96,6.443,0.48,9.696
	c-0.779,5.365-1.568,10.72-2.368,16.085h1.504c3.573-3.797,8.267-6.528,13.397-7.531c4.629-0.907,10.987,1.045,10.837,5.749
	c-0.021,0.587-0.192,1.184-0.341,1.781H378.4c-2.048-6.549-4.117-13.088-6.176-19.637c3.552-1.493,7.573,1.664,8.811,5.312
	c1.227,3.659,0.651,7.637,0.821,11.477c0.043,0.939,0.16,1.909,0.341,2.848h4.437C385.995,352.64,385.397,351.509,385.323,350.251"
	/>
<path style="fill:#FF7058;" d="M244.789,204.768c0,41.109-74.443,119.104-74.443,119.104s-74.443-77.995-74.443-119.104
	s33.333-74.443,74.443-74.443S244.789,163.659,244.789,204.768"/>
<path style="fill:#FFFFFF;" d="M209.003,204.768c0,21.344-17.301,38.645-38.645,38.645c-21.333,0-38.635-17.301-38.635-38.645
	s17.301-38.645,38.635-38.645C191.701,166.123,209.003,183.424,209.003,204.768"/>
<g>
</g>
<g>
</g>
<g>
</g>
<g>
</g>
<g>
</g>
<g>
</g>
<g>
</g>
<g>
</g>
<g>
</g>
<g>
</g>
<g>
</g>
<g>
</g>
<g>
</g>
<g>
</g>
<g>
</g>
</svg>
