<svg height="512" viewBox="0 0 58 58" width="512" xmlns="http://www.w3.org/2000/svg"><g id="Page-1" fill="none" fill-rule="evenodd"><g id="082---Starred-Files" fill-rule="nonzero"><path id="Shape" d="m50 53h4c2.209139 0 4-1.790861 4-4v-35l-14-14h-20c-2.2064037.0065896-3.9934104 1.79359627-4 4v20z" fill="#b0d3f0"/><path id="Shape" d="m44 0v10c0 2.209139 1.790861 4 4 4h10z" fill="#90bae1"/><path id="Shape" d="m50 28v26c0 2.209139-1.790861 4-4 4h-42c-2.209139 0-4-1.790861-4-4v-36c0-2.209139 1.790861-4 4-4h14c2.209139 0 4 1.790861 4 4v2c0 2.209139 1.790861 4 4 4h20c2.209139 0 4 1.790861 4 4z" fill="#955ba5"/><g fill="#2980ba"><path id="Shape" d="m28 13h-2c-.5522847 0-1-.4477153-1-1s.4477153-1 1-1h2c.5522847 0 1 .4477153 1 1s-.4477153 1-1 1z"/><path id="Shape" d="m40 13h-7c-.5522847 0-1-.4477153-1-1s.4477153-1 1-1h7c.5522847 0 1 .4477153 1 1s-.4477153 1-1 1z"/><path id="Shape" d="m28 17h-2c-.5522847 0-1-.4477153-1-1s.4477153-1 1-1h2c.5522847 0 1 .4477153 1 1s-.4477153 1-1 1z"/><path id="Shape" d="m40 17h-7c-.5522847 0-1-.4477153-1-1s.4477153-1 1-1h7c.5522847 0 1 .4477153 1 1s-.4477153 1-1 1z"/><path id="Shape" d="m28 21h-2c-.5522847 0-1-.4477153-1-1s.4477153-1 1-1h2c.5522847 0 1 .4477153 1 1s-.4477153 1-1 1z"/><path id="Shape" d="m40 21h-7c-.5522847 0-1-.4477153-1-1s.4477153-1 1-1h7c.5522847 0 1 .4477153 1 1s-.4477153 1-1 1z"/></g><path id="Shape" d="m25.768 29.5 2.732 5.8c.1204122.2594343.3616668.4422483.644.488l6.126.934c.323765.0599715.5881602.2934287.687755.6072778.0995947.313849.0181893.6570403-.211755.8927222l-4.446 4.557c-.199175.205618-.2886517.4937258-.241.776l1.041 6.411c.0637167.325106-.0647479.6579337-.3303684.8559223s-.6212774.2260162-.9146316.0720777l-5.455-3.01c-.2489264-.1375608-.5510736-.1375608-.8 0l-5.457 3.01c-.2933542.1539385-.6490111.1259109-.9146316-.0720777s-.3940851-.5308163-.3303684-.8559223l1.048-6.411c.0476517-.2822742-.041825-.570382-.241-.776l-4.448-4.55c-.2299443-.2356819-.3113497-.5788732-.211755-.8927222.0995948-.3138491.36399-.5473063.687755-.6072778l6.126-.934c.2827023-.0481058.5229719-.2336494.641-.495l2.732-5.8c.1358854-.3023467.4365209-.4968334.768-.4968334s.6321146.1944867.768.4968334z" fill="#f0c419"/><path id="Shape" d="m4 21c-.55228475 0-1-.4477153-1-1v-2c0-.5522847.44771525-1 1-1s1 .4477153 1 1v2c0 .5522847-.44771525 1-1 1z" fill="#b49aca"/><path id="Shape" d="m4 40c-.55228475 0-1-.4477153-1-1v-14c0-.5522847.44771525-1 1-1s1 .4477153 1 1v14c0 .5522847-.44771525 1-1 1z" fill="#b49aca"/></g></g></svg>