<?xml version="1.0" encoding="iso-8859-1"?>
<!-- Generator: Adobe Illustrator 19.0.0, SVG Export Plug-In . SVG Version: 6.00 Build 0)  -->
<svg version="1.1" id="Layer_1" xmlns="http://www.w3.org/2000/svg" xmlns:xlink="http://www.w3.org/1999/xlink" x="0px" y="0px"
	 viewBox="0 0 508 508" style="enable-background:new 0 0 508 508;" xml:space="preserve">
<polygon style="fill:#F2F2F2;" points="430.4,35.3 395.1,0 359.8,35.3 324.6,0 289.3,35.3 254,0 218.7,35.3 183.4,0 148.2,35.3 
	112.9,0 77.6,35.3 42.3,0 42.3,508 77.6,472.7 112.9,508 148.2,472.7 183.4,508 218.7,472.7 254,508 289.3,472.7 324.6,508 
	359.8,472.7 395.1,508 430.4,472.7 465.7,508 465.7,0 "/>
<rect x="70.6" y="73.7" style="fill:#84DBFF;" width="134.9" height="166.2"/>
<g>
	<rect x="235.5" y="280.5" style="fill:#4CDBC4;" width="202" height="20.3"/>
	<rect x="235.5" y="347.2" style="fill:#4CDBC4;" width="202" height="20.3"/>
</g>
<g>
	<rect x="235.5" y="121.8" style="fill:#CDD6E0;" width="202" height="20.3"/>
	<rect x="235.5" y="171.5" style="fill:#CDD6E0;" width="109.9" height="20.3"/>
</g>
<g>
	<rect x="70.6" y="280.5" style="fill:#4CDBC4;" width="117.6" height="20.3"/>
	<rect x="70.6" y="347.2" style="fill:#4CDBC4;" width="117.6" height="20.3"/>
</g>
<rect x="70.6" y="413.9" style="fill:#CDD6E0;" width="164.9" height="20.3"/>
<g>
</g>
<g>
</g>
<g>
</g>
<g>
</g>
<g>
</g>
<g>
</g>
<g>
</g>
<g>
</g>
<g>
</g>
<g>
</g>
<g>
</g>
<g>
</g>
<g>
</g>
<g>
</g>
<g>
</g>
</svg>
