<?xml version="1.0" encoding="iso-8859-1"?>
<!-- Generator: Adobe Illustrator 19.0.0, SVG Export Plug-In . SVG Version: 6.00 Build 0)  -->
<svg version="1.1" id="Layer_1" xmlns="http://www.w3.org/2000/svg" xmlns:xlink="http://www.w3.org/1999/xlink" x="0px" y="0px"
	 viewBox="0 0 512 512" style="enable-background:new 0 0 512 512;" xml:space="preserve">
<path style="fill:#BCBEC0;" d="M369.454,186.002h-96c-8.836,0-16-7.164-16-16v-53.333c0-8.836,7.164-16,16-16h96
	c8.836,0,16,7.164,16,16v53.333C385.454,178.839,378.29,186.002,369.454,186.002z"/>
<path style="fill:#808285;" d="M369.454,100.669h-48v85.333h48c8.836,0,16-7.164,16-16v-53.333
	C385.454,107.833,378.29,100.669,369.454,100.669z"/>
<path style="fill:#F1F2F2;" d="M392.997,132.669H249.911c-8.836,0-16-7.164-16-16V42.002c0-8.836,7.164-16,16-16h143.085
	c8.836,0,16,7.164,16,16v74.667C408.997,125.506,401.834,132.669,392.997,132.669z"/>
<path style="fill:#BCBEC0;" d="M125.632,485.998H64c-35.29,0-64-28.71-64-64V218.009c0-35.29,28.71-64,64-64h61.632
	c8.836,0,16,7.164,16,16v299.989C141.632,478.834,134.468,485.998,125.632,485.998z"/>
<path style="fill:#F1F2F2;" d="M448,485.998H109.632V154.009H448c35.346,0,64,28.654,64,64v203.989
	C512,457.344,483.346,485.998,448,485.998z"/>
<g>
	<path style="fill:#BCBEC0;" d="M448,154.007H321.455v331.989H448c35.346,0,64-28.654,64-64V218.007
		C512,182.661,483.346,154.007,448,154.007z"/>
	<path style="fill:#BCBEC0;" d="M321.454,444.002c-68.373,0-124-55.627-124-124s55.626-124,124-124s124,55.627,124,124
		S389.828,444.002,321.454,444.002z"/>
</g>
<path style="fill:#808285;" d="M445.454,320.002c0-68.374-55.626-124-124-124v248C389.828,444.002,445.454,388.377,445.454,320.002z
	"/>
<path style="fill:#FEE856;" d="M321.454,384.002c-35.29,0-64-28.71-64-64s28.71-64,64-64s64,28.71,64,64
	S356.743,384.002,321.454,384.002z"/>
<path style="fill:#BCBEC0;" d="M392.997,26.002h-71.542v106.667h71.542c8.836,0,16-7.164,16-16V42.002
	C408.997,33.166,401.834,26.002,392.997,26.002z"/>
<path style="fill:#FFCE3E;" d="M385.454,320.002c0-35.29-28.71-64-64-64v128C356.745,384.002,385.454,355.292,385.454,320.002z"/>
<g>
</g>
<g>
</g>
<g>
</g>
<g>
</g>
<g>
</g>
<g>
</g>
<g>
</g>
<g>
</g>
<g>
</g>
<g>
</g>
<g>
</g>
<g>
</g>
<g>
</g>
<g>
</g>
<g>
</g>
</svg>
