<?xml version="1.0" encoding="iso-8859-1"?>
<!-- Generator: Adobe Illustrator 19.0.0, SVG Export Plug-In . SVG Version: 6.00 Build 0)  -->
<svg xmlns="http://www.w3.org/2000/svg" xmlns:xlink="http://www.w3.org/1999/xlink" version="1.1" id="Layer_1" x="0px" y="0px" viewBox="0 0 491.52 491.52" style="enable-background:new 0 0 491.52 491.52;" xml:space="preserve">
<g>
	<polygon style="fill:#F6C358;" points="163.84,491.52 0,440.307 0,104.619 163.84,155.831  "/>
	<polygon style="fill:#F6C358;" points="491.52,491.52 327.68,440.307 327.68,104.619 491.52,155.831  "/>
</g>
<polygon style="fill:#DC8744;" points="163.84,491.52 327.68,440.307 327.68,104.619 163.84,155.831 "/>
<g>
	<polygon style="fill:#FCD462;" points="163.84,478.604 0,427.392 0,91.703 163.84,142.915  "/>
	<polygon style="fill:#FCD462;" points="491.52,478.604 327.68,427.392 327.68,91.703 491.52,142.915  "/>
</g>
<polygon style="fill:#F6C358;" points="163.84,478.604 327.68,427.392 327.68,91.703 163.84,142.915 "/>
<path style="fill:#E56353;" d="M245.76,96.87c0,53.5,97.767,164.033,97.767,164.033V0C289.531,0,245.76,43.37,245.76,96.87z"/>
<path style="fill:#D15241;" d="M343.527,0v260.902c0,0,97.768-110.533,97.768-164.033S397.523,0,343.527,0z"/>
<ellipse style="fill:#EBF0F3;" cx="343.552" cy="91.704" rx="53.448" ry="52.956"/>
<g>
</g>
<g>
</g>
<g>
</g>
<g>
</g>
<g>
</g>
<g>
</g>
<g>
</g>
<g>
</g>
<g>
</g>
<g>
</g>
<g>
</g>
<g>
</g>
<g>
</g>
<g>
</g>
<g>
</g>
</svg>
