<?xml version="1.0" encoding="iso-8859-1"?>
<!-- Generator: Adobe Illustrator 19.0.0, SVG Export Plug-In . SVG Version: 6.00 Build 0)  -->
<svg version="1.1" id="Layer_1" xmlns="http://www.w3.org/2000/svg" xmlns:xlink="http://www.w3.org/1999/xlink" x="0px" y="0px"
	 viewBox="0 0 507.96 507.96" style="enable-background:new 0 0 507.96 507.96;" xml:space="preserve">
<path style="fill:#334A5E;" d="M458.13,129.06H49.73c-11.7,0-21.2,9.5-21.2,21.2v241.6h450.7v-241.6
	C479.23,138.56,469.83,129.06,458.13,129.06z"/>
<path style="fill:#F2F2F2;" d="M28.63,391.86v26.6c0,11.7,9.5,21.2,21.2,21.2h408.4c11.7,0,21.2-9.5,21.2-21.2v-26.6H28.63z"/>
<g>
	<circle style="fill:#CDD6E0;" cx="253.93" cy="415.76" r="11.5"/>
	<rect x="169.43" y="439.66" style="fill:#CDD6E0;" width="169" height="37.8"/>
</g>
<rect x="169.43" y="439.66" style="fill:#ACB3BA;" width="169" height="15"/>
<path style="fill:#F2F2F2;" d="M349.93,477.36h-192c-11.7,0-21.2,9.5-21.2,21.2v9.4h234.4v-9.4
	C371.13,486.86,361.63,477.36,349.93,477.36z"/>
<rect x="60.63" y="159.46" style="fill:#FFFFFF;" width="386.5" height="209.3"/>
<rect x="123.43" y="101.36" style="fill:#F8B64C;" width="261" height="36.5"/>
<rect x="116.13" y="137.76" style="fill:#FFD15C;" width="275.6" height="230.9"/>
<g>
	<rect x="116.13" y="355.26" style="fill:#F8B64C;" width="275.6" height="13.5"/>
	<polygon style="fill:#F8B64C;" points="116.13,137.76 160.93,137.76 160.93,112.66 	"/>
</g>
<polygon style="fill:#FFD15C;" points="160.93,112.66 123.43,101.36 123.43,133.66 "/>
<polygon style="fill:#F8B64C;" points="391.73,137.76 346.93,137.76 346.93,112.66 "/>
<polygon style="fill:#FFD15C;" points="346.93,112.66 384.43,101.36 384.43,133.66 "/>
<g>
	<circle style="fill:#F8B64C;" cx="176.13" cy="170.36" r="13.1"/>
	<circle style="fill:#F8B64C;" cx="331.73" cy="170.36" r="13.1"/>
</g>
<path style="fill:#4CDBC4;" d="M331.73,175.06L331.73,175.06c-4,0-7.3-3.3-7.3-7.3v-80.8c0-38.2-29.6-70.7-67.8-72.2
	c-40.1-1.5-73.2,30.7-73.2,70.4v82.6c0,4-3.3,7.3-7.3,7.3l0,0c-4,0-7.3-3.3-7.3-7.3v-80.5c0-46.1,35.8-85.4,81.9-87.2
	c48.4-1.8,88.4,37,88.4,85.1v82.6C339.13,171.76,335.83,175.06,331.73,175.06z"/>
<g>
</g>
<g>
</g>
<g>
</g>
<g>
</g>
<g>
</g>
<g>
</g>
<g>
</g>
<g>
</g>
<g>
</g>
<g>
</g>
<g>
</g>
<g>
</g>
<g>
</g>
<g>
</g>
<g>
</g>
</svg>
