<?xml version="1.0" encoding="iso-8859-1"?>
<!-- Generator: Adobe Illustrator 19.0.0, SVG Export Plug-In . SVG Version: 6.00 Build 0)  -->
<svg xmlns="http://www.w3.org/2000/svg" xmlns:xlink="http://www.w3.org/1999/xlink" version="1.1" id="Layer_1" x="0px" y="0px" viewBox="0 0 513.067 513.067" style="enable-background:new 0 0 513.067 513.067;" xml:space="preserve">
<circle style="fill:#415A6B;" cx="257.067" cy="158.4" r="157.867"/>
<g>
	<path style="fill:#E8EAE9;" d="M244.267,1.6c-1.067,0-3.2,0-4.267,0c1.067,0,2.133,0,3.2,0C243.2,1.6,243.2,1.6,244.267,1.6z"/>
	<path style="fill:#E8EAE9;" d="M173.867,285.333c0-1.067-1.067-2.133-2.133-2.133c-1.067-1.067-1.067-1.067-1.067-2.133   c1.067,0,2.133,1.067,4.267,1.067c2.133,1.067,4.267,1.067,5.333-1.067c1.067-1.067,1.067-2.133,2.133-3.2   c3.2-4.267,5.333-9.6,6.4-14.933v-1.067c-2.133-3.2,0-5.333,2.133-6.4s4.267-2.133,5.333-3.2h1.067   c3.2,1.067,4.267-1.067,5.333-3.2c2.133-6.4,4.267-11.733,3.2-19.2c0-1.067,0-2.133,1.067-3.2c1.067-2.133,3.2-4.267,5.333-6.4   c1.067-2.133,3.2-4.267,3.2-6.4c0-3.2-1.067-4.267-3.2-6.4c-2.133-1.067-4.267-3.2-6.4-4.267c0,0,0-1.067-1.067-1.067   c-4.267,0-8.533-3.2-11.733,0l0,0l0,0c1.067-3.2-2.133-3.2-3.2-4.267c-2.133-1.067-3.2,0-4.267,1.067   c-2.133,2.133-4.267,1.067-6.4,0c-1.067,0-1.067-1.067-2.133-1.067c-1.067,0-1.067,0-2.133,0c0-1.067,1.067-1.067,1.067-2.133   c0-1.067,1.067-1.067,1.067-1.067c2.133-1.067,3.2-3.2,2.133-5.333c-1.067-1.067-1.067-3.2-2.133-5.333   c-1.067-1.067-1.067-1.067-2.133-2.133c0,0-1.067-1.067-3.2,0l-1.067-1.067c-1.067,0-3.2,0-4.267,0   c-2.133-2.133-3.2-3.2-5.333-5.333L160,174.4c-1.067-1.067-2.133-2.133-3.2-3.2c-2.133-1.067-4.267-2.133-7.467-2.133   c-2.133,0-6.4,0-8.533-3.2c-1.067-1.067-2.133-1.067-3.2,0c-1.067,0-2.133,2.133-2.133,3.2s0,2.133,0,3.2H134.4   c0-1.067,0-2.133,0-3.2c0-1.067,0-2.133,0-3.2c1.067,0,1.067-1.067,2.133-1.067c0,0,0,0,0-1.067c-3.2,2.133-6.4,3.2-8.533,5.333   l0,0c-1.067,1.067-3.2,3.2-4.267,4.267c-2.133-2.133-4.267-3.2-7.467-2.133c-2.133,1.067-4.267,1.067-5.333-1.067   c-1.067-1.067-2.133-2.133-3.2-4.267l1.067-1.067c0-3.2,1.067-5.333,1.067-8.533c1.067-1.067,0-3.2-1.067-3.2s-3.2,0-4.267,0   c0,1.067,0,1.067,0,2.133c0,3.2,0,5.333,0,8.533c0,0,1.067,0,1.067,1.067c-1.067,0-1.067,0-1.067,0c0,1.067,0,1.067,0,2.133   c0,0,0,0,1.067,1.067c1.067,1.067,2.133,2.133,3.2,3.2c0,0,1.067,0,2.133,0c3.2,2.133,3.2,2.133,6.4,0   c2.133-1.067,3.2-1.067,4.267,0c0,1.067,1.067,2.133,1.067,3.2c0,1.067,0,1.067,0,2.133c0,2.133,1.067,5.333,0,7.467   c-1.067,2.133-2.133,4.267-4.267,6.4c-1.067,2.133-2.133,3.2-3.2,5.333c-1.067,2.133-1.067,4.267,1.067,5.333   c-1.067,1.067-1.067,2.133-2.133,4.267c-1.067,1.067-1.067,4.267,1.067,5.333c1.067,1.067,2.133,2.133,3.2,4.267   c1.067,2.133,2.133,5.333,4.267,8.533c1.067,2.133,3.2,5.333,4.267,7.467c1.067,2.133,3.2,3.2,4.267,4.267   c3.2,2.133,6.4,4.267,9.6,6.4c3.2,4.267,3.2,8.533,2.133,12.8c0,1.067,0,1.067,0,2.133c0,2.133,0,3.2,0,5.333   c9.6,11.733,21.333,21.333,35.2,29.867C174.933,290.667,176,288.533,173.867,285.333z"/>
	<path style="fill:#E8EAE9;" d="M106.667,118.933c1.067,0,2.133,1.067,3.2,1.067c3.2,0,4.267,1.067,4.267,4.267   c-1.067,2.133,1.067,6.4,3.2,7.467c3.2-3.2,1.067-6.4,1.067-9.6c0-2.133-1.067-4.267,1.067-6.4c3.2-2.133,5.333-5.333,8.533-6.4   c3.2-2.133,6.4-5.333,5.333-7.467c0-1.067,0-2.133,0-4.267c0,0,0,0,1.067,0l1.067,1.067c1.067-1.067,2.133-2.133,3.2-3.2   C139.733,94.4,140.8,94.4,140.8,94.4c1.067-2.133,3.2-2.133,5.333-3.2c2.133-1.067,4.267-2.133,4.267-3.2   c1.067-3.2,3.2-3.2,5.333-4.267s3.2-2.133,4.267-3.2c1.067,0,1.067,0,2.133,0c2.133,0,3.2-2.133,5.333,0   c-2.133,1.067-4.267,2.133-5.333,3.2V84.8c4.267-2.133,8.533-3.2,11.733-5.333V78.4c-1.067,0-2.133,1.067-2.133,1.067   c-2.133-1.067-3.2-1.067-4.267-2.133s0-2.133,1.067-3.2c1.067,0,1.067-1.067,1.067-2.133c-3.2-1.067-6.4,1.067-9.6,2.133   c0,0-1.067,0-2.133,0l1.067-1.067c5.333-2.133,9.6-5.333,16-4.267H176c3.2-1.067,6.4-2.133,9.6-3.2   c2.133-1.067,3.2-2.133,4.267-3.2c-2.133-4.267-5.333-1.067-8.533-2.133c1.067-1.067,2.133-1.067,2.133-2.133   c-1.067-1.067-2.133-3.2-2.133-4.267c0-2.133,0-5.333,0-8.533c-2.133,1.067-3.2,2.133-4.267,3.2   C176,49.6,174.933,49.6,172.8,50.667c-1.067-1.067-2.133-2.133-2.133-3.2c2.133-2.133,1.067-4.267-1.067-5.333   c-1.067,0-1.067-1.067-2.133-1.067c-5.333-2.133-7.467-1.067-9.6,3.2c0,1.067-1.067,1.067-2.133,2.133s-2.133,2.133-1.067,2.133   c1.067,3.2-1.067,5.333-3.2,6.4c-3.2,2.133-6.4,4.267-7.467,8.533c0,1.067-3.2,2.133-4.267,2.133c0,0-1.067-1.067,0-3.2   c1.067-1.067,1.067-2.133,2.133-4.267c-1.067,0-1.067,0-2.133,0s-2.133-1.067-2.133-1.067c-14.933,18.133-25.6,38.4-32,61.867   C105.6,118.933,105.6,118.933,106.667,118.933z"/>
	<path style="fill:#E8EAE9;" d="M205.867,10.133c6.4-1.067,10.667,4.267,10.667,8.533c1.067,1.067,2.133,3.2,2.133,4.267   c0,1.067-2.133,3.2-3.2,4.267c-1.067,1.067-1.067,1.067-2.133,1.067c-2.133,1.067-3.2,2.133-2.133,5.333c0,1.067,0,1.067,0,2.133   c-1.067,2.133,0,5.333,2.133,6.4c2.133,1.067,4.267,4.267,7.467,2.133c3.2-1.067,4.267-3.2,5.333-4.267   c2.133-4.267,5.333-6.4,10.667-6.4c3.2,0,5.333-1.067,7.467-3.2c2.133-2.133,5.333-4.267,8.533-2.133c0,0,1.067,0,2.133,0   c3.2-1.067,6.4-1.067,9.6-2.133c0,0,0,0,0-1.067c-2.133,0-4.267,0-5.333-1.067c0-1.067,1.067-2.133,2.133-2.133   c1.067-2.133,1.067-2.133,3.2-1.067c0,1.067,2.133,1.067,3.2,2.133v-1.067c-2.133-1.067-4.267-3.2-6.4-4.267c0,0,0,0,0-1.067   c6.4,1.067,10.667-3.2,13.867-7.467c0,0,0-1.067-1.067-2.133c2.133-2.133,3.2-4.267,6.4-4.267c1.067,0,2.133,0,3.2-1.067   c-8.533,0-17.067-1.067-26.667-1.067c-4.267,0-8.533,0-12.8,1.067H243.2c-1.067,0-2.133,0-3.2,0   c-12.8,1.067-25.6,4.267-37.333,8.533C203.733,11.2,204.8,11.2,205.867,10.133z"/>
	<path style="fill:#E8EAE9;" d="M353.067,33.6v1.067l-2.133,1.067c-1.067,0-2.133,0-3.2-1.067c1.067,1.067,2.133,1.067,3.2,2.133   v1.067c-1.067,0-3.2,0-4.267,0c-4.267-3.2-6.4-5.333-8.533-7.467c0,0,0,0,0-1.067c1.067,0,2.133,0,3.2,0   c3.2,0,5.333,2.133,8.533,1.067c-2.133-2.133-5.333-3.2-7.467-5.333c-3.2,0-6.4,0-8.533-2.133c-3.2-1.067-7.467-1.067-11.733,0   c-2.133,0-4.267,2.133-6.4,2.133c-5.333,0-7.467,4.267-10.667,7.467c-3.2,3.2-5.333,5.333-9.6,6.4s-5.333,5.333-3.2,8.533   c1.067,2.133,3.2,3.2,6.4,1.067c1.067,0,2.133-1.067,3.2-1.067c1.067,2.133,2.133,3.2,3.2,5.333c1.067,3.2,2.133,3.2,4.267,1.067   c2.133-2.133,4.267-5.333,7.467-8.533l0,0c-1.067-1.067-3.2-2.133-3.2-3.2c0-2.133,1.067-3.2,3.2-4.267   c1.067-1.067,3.2-2.133,4.267-3.2c1.067-2.133,4.267-2.133,3.2-4.267c0,1.067,0,2.133,1.067,2.133c2.133,1.067,1.067,3.2,0,4.267   c0,1.067-1.067,1.067-1.067,2.133c-3.2,3.2-2.133,5.333,2.133,7.467c1.067,0,2.133,0,3.2,0c2.133,0,3.2-1.067,5.333-1.067   c1.067,0,2.133,1.067,3.2,1.067c-1.067,1.067-2.133,1.067-3.2,2.133c-1.067,0-2.133,0-3.2,0c-2.133,0-3.2,0-5.333,0V49.6   c1.067,1.067,1.067,1.067,2.133,2.133c-2.133,1.067-7.467,2.133-7.467,3.2s0,1.067,0,1.067c-1.067,1.067-2.133,1.067-3.2,2.133   c-1.067,0-2.133,1.067-2.133,0c-2.133-1.067-4.267,2.133-5.333,0c-2.133-4.267-32,5.333-32,13.867   c1.067,2.133-4.267,3.2-7.467,2.133c0,0,0,0,0,1.067c0,0,1.067,0,2.133,0c3.2,1.067,3.2,3.2,3.2,5.333   c0,1.067-1.067,3.2-1.067,4.267c-2.133,0-5.333,0-7.467,0c-2.133,0-4.267-1.067-5.333-1.067c-1.067,0-2.133,1.067-2.133,2.133   c1.067,1.067,1.067,1.067,2.133,2.133l-1.067,1.067c0,3.2-2.133,6.4-1.067,9.6c0,1.067,0,1.067,1.067,2.133   c1.067,0,1.067-1.067,2.133-1.067c0,0,0,1.067,1.067,1.067c3.2,2.133,9.6,1.067,12.8-1.067c1.067-1.067,2.133-1.067,2.133-2.133   c0-5.333,4.267-6.4,8.533-9.6c-1.067,0-1.067-1.067-2.133-1.067c-1.067-1.067,1.067-2.133,4.267-1.067   c2.133,1.067,3.2-1.067,3.2-2.133c1.067,0,2.133,0,2.133,0c1.067-1.067,3.2-1.067,3.2,1.067c1.067,4.267,4.267,5.333,7.467,7.467   c3.2,2.133,5.333,3.2,4.267,7.467c2.133-2.133,2.133-2.133,1.067-5.333c1.067,0,3.2,0,4.267,0l0,0   c-4.267-2.133-8.533-5.333-11.733-8.533c-1.067-1.067-1.067-2.133-1.067-3.2c1.067,0,2.133,0,3.2-1.067c0,0,1.067,0,1.067,1.067   c0,0-1.067,1.067,0,1.067c2.133,1.067,4.267,3.2,6.4,4.267c1.067,0,3.2,1.067,4.267,1.067c0,0,0,0,1.067,1.067   c0,2.133,1.067,5.333,1.067,7.467c2.133,1.067,3.2,2.133,5.333,3.2c-1.067,0-2.133,0-3.2,1.067c1.067,1.067,2.133,2.133,3.2,3.2   c2.133-3.2,2.133-5.333,0-7.467v-2.133c1.067,0,5.333,1.067,8.533,3.2c0,1.067,1.067,1.067,1.067,2.133   c1.067,3.2,4.267,5.333,7.467,4.267c1.067,0,2.133,0,3.2,0c2.133,1.067,3.2,1.067,5.333,0c2.133-1.067,3.2-1.067,4.267,1.067   c-1.067,1.067-2.133,2.133,0,3.2c0,0,1.067,1.067,0,2.133c0,1.067-1.067,2.133-1.067,2.133h-1.067   c-1.067,2.133-1.067,4.267-2.133,5.333c-1.067,0-2.133-1.067-4.267-1.067c-2.133,0-3.2,0-5.333,0c-1.067,0-2.133,0-2.133,0   c-2.133,0-6.4,0-8.533-1.067c0,0,0-1.067-1.067-1.067c-1.067-1.067-3.2-2.133-4.267-2.133c-2.133-1.067-5.333,0-4.267,2.133   c1.067,2.133-1.067,3.2-2.133,4.267c-2.133-1.067-4.267-1.067-6.4-2.133c-1.067,0-1.067,0-2.133-1.067   c-2.133-4.267-5.333-3.2-9.6-4.267c-3.2-2.133-2.133-5.333-2.133-8.533c0-2.133-1.067-2.133-2.133-2.133s-2.133,1.067-3.2,1.067   c-1.067,0-2.133,0-3.2,0c-2.133,0-5.333-1.067-7.467,0c-3.2,1.067-7.467,3.2-10.667,4.267c-1.067,0-4.267-1.067-6.4-1.067   c-2.133,2.133-16,18.133-17.067,19.2c-3.2,4.267-3.2,44.8-2.133,46.933c0,2.133,37.333,6.4,37.333,6.4c3.2,0,6.4,2.133,7.467,5.333   c2.133,0,4.267-1.067,6.4-1.067c1.067,2.133,2.133,4.267,3.2,6.4c0,0,1.067,0,2.133,0c2.133,0,4.267,0,6.4,0   c-1.067,0-1.067,1.067-2.133,1.067c-1.067,0-2.133-1.067-3.2-1.067c0,1.067,0,2.133,0,3.2h-4.267c-2.133,5.333-2.133,5.333,0,7.467   c1.067,2.133,2.133,3.2,3.2,4.267c1.067,1.067,2.133,2.133,3.2,3.2c0,1.067,0,1.067,0,2.133c1.067,0,1.067,0,1.067,0   c-1.067,1.067-1.067,2.133,0,3.2c0,1.067,1.067,1.067,1.067,2.133s0,3.2,1.067,4.267c1.067,2.133,1.067,4.267-1.067,7.467   c-1.067,2.133-2.133,5.333-3.2,8.533c0,1.067-1.067,3.2,1.067,3.2c-1.067,1.067-1.067,2.133,0,3.2   c3.2,5.333,5.333,11.733,6.4,18.133c0,2.133,0,5.333,3.2,6.4c1.067,2.133,2.133,5.333,3.2,7.467c0,1.067,1.067,2.133,0,3.2   c0,3.2,2.133,5.333,5.333,4.267c3.2-1.067,6.4-2.133,8.533,0h1.067c3.2-2.133,6.4-4.267,9.6-7.467c3.2-3.2,5.333-6.4,7.467-9.6   c0,0-1.067-1.067-1.067-2.133c0-2.133,1.067-4.267,4.267-5.333c4.267-2.133,5.333-4.267,2.133-8.533   c-1.067-2.133-1.067-3.2,1.067-5.333c3.2-3.2,5.333-6.4,9.6-7.467c1.067,0,2.133-2.133,2.133-3.2c3.2-4.267,0-8.533,0-11.733   c-2.133-4.267-4.267-9.6-3.2-14.933c2.133-3.2,4.267-5.333,6.4-8.533c3.2-3.2,5.333-5.333,8.533-8.533   c2.133-2.133,4.267-3.2,5.333-4.267c2.133-4.267,4.267-8.533,6.4-12.8c2.133-3.2,2.133-3.2,1.067-6.4   c-3.2,1.067-7.467,1.067-10.667,3.2c-3.2,1.067-5.333,0-6.4-2.133c0-1.067,0-2.133-1.067-2.133c2.133-1.067,3.2-1.067,4.267-1.067   c2.133,0,3.2-1.067,5.333-2.133c5.333-2.133,10.667-4.267,13.867-8.533c4.267,0,6.4-3.2,8.533-6.4c1.067-2.133,3.2-4.267,4.267-6.4   c0-1.067,0-2.133-1.067-2.133c-2.133-1.067-4.267-3.2-6.4-4.267c0-1.067,0-3.2-1.067-4.267l-1.067,1.067   c-3.2,4.267-4.267,4.267-9.6,4.267c0,0,0,0,0,1.067c-1.067-1.067-1.067-2.133-2.133-3.2c-1.067-1.067-2.133-1.067-2.133-2.133   c-1.067-1.067-1.067-3.2-2.133-4.267c-1.067-1.067-3.2-3.2-4.267-4.267c1.067-1.067,2.133-1.067,3.2-2.133c1.067,0,2.133,0,3.2,0   c1.067,1.067,2.133,2.133,3.2,4.267s7.467,5.333,9.6,4.267c2.133-1.067,3.2,0,4.267,2.133c1.067,1.067,3.2,2.133,5.333,2.133   C405.333,92.267,384,57.067,353.067,33.6z"/>
</g>
<path style="fill:#FFD15C;" d="M84.267,442.133H201.6v-74.667c0-6.4-2.133-11.733-6.4-17.067l-74.667-74.667  c-9.6-8.533-25.6-8.533-35.2,2.133c-7.467,9.6-6.4,23.467,2.133,32l28.8,28.8c5.333,5.333,5.333,13.867,0,19.2s-13.867,5.333-19.2,0  l-50.133-50.133v-93.867c0-13.867-11.733-24.533-25.6-23.467C9.6,191.467,0,202.133,0,214.933v102.4c0,6.4,2.133,11.733,6.4,17.067  l76.8,76.8L84.267,442.133z"/>
<rect x="66.133" y="438.933" style="fill:#ADB3BA;" width="157.867" height="21.333"/>
<rect x="55.467" y="460.267" style="fill:#344A5E;" width="178.133" height="52.267"/>
<path style="fill:#FFD15C;" d="M429.867,442.133H312.533v-74.667c0-6.4,2.133-11.733,6.4-17.067l74.667-74.667  c9.6-9.6,25.6-9.6,34.133,2.133c7.467,9.6,6.4,23.467-2.133,32l-28.8,28.8c-5.333,5.333-5.333,13.867,0,19.2  c5.333,5.333,13.867,5.333,19.2,0l50.133-50.133v-93.867c0-13.867,11.733-24.533,25.6-23.467  c11.733,1.067,21.333,11.733,21.333,24.533v102.4c0,6.4-2.133,11.733-6.4,17.067l-76.8,76.8L429.867,442.133z"/>
<rect x="290.133" y="438.933" style="fill:#ADB3BA;" width="157.867" height="21.333"/>
<rect x="280.533" y="460.267" style="fill:#344A5E;" width="178.133" height="52.267"/>
<g>
</g>
<g>
</g>
<g>
</g>
<g>
</g>
<g>
</g>
<g>
</g>
<g>
</g>
<g>
</g>
<g>
</g>
<g>
</g>
<g>
</g>
<g>
</g>
<g>
</g>
<g>
</g>
<g>
</g>
</svg>
