<?xml version="1.0" encoding="iso-8859-1"?>
<!-- Generator: Adobe Illustrator 19.0.0, SVG Export Plug-In . SVG Version: 6.00 Build 0)  -->
<svg version="1.1" id="Capa_1" xmlns="http://www.w3.org/2000/svg" xmlns:xlink="http://www.w3.org/1999/xlink" x="0px" y="0px"
	 viewBox="0 0 511.852 511.852" style="enable-background:new 0 0 511.852 511.852;" xml:space="preserve">
<path style="fill:#ECEFF1;" d="M333.363,288.252l116.48,116.48c15.68-10.56,36.8-8.64,50.24,5.12c15.68,15.36,15.68,40.96,0,56.32
	c-6.08,6.4-14.08,10.24-22.4,11.52c-1.28,8.32-5.12,16.32-11.52,22.4c-15.36,15.68-40.96,15.68-56.32,0
	c-13.76-13.44-15.68-34.56-5.12-50.24l-116.48-116.48"/>
<path style="fill:#FFA000;" d="M359.187,270.3c-22.272-51.872-41.248-105.76-56.448-160.192L299.635,99.1
	c-0.096-0.672-0.256-1.344-0.448-2.016c-6.272-22.08-18.016-42.176-33.92-58.048c-56.16-56.192-152.576-51.104-214.944,11.296
	s-67.456,158.816-11.328,214.944c15.904,15.904,35.968,27.648,58.048,33.92c0.704,0.224,1.376,0.352,2.08,0.48l11.008,3.072
	c54.4,15.232,108.288,34.176,160.16,56.48c2.016,0.832,4.192,1.28,6.304,1.28c4.16,0,8.256-1.632,11.328-4.672l67.872-67.872
	C360.435,283.292,361.779,276.316,359.187,270.3z"/>
<g>
</g>
<g>
</g>
<g>
</g>
<g>
</g>
<g>
</g>
<g>
</g>
<g>
</g>
<g>
</g>
<g>
</g>
<g>
</g>
<g>
</g>
<g>
</g>
<g>
</g>
<g>
</g>
<g>
</g>
</svg>
