<svg height="512" viewBox="0 0 58 58" width="512" xmlns="http://www.w3.org/2000/svg"><g id="Page-1" fill="none" fill-rule="evenodd"><g id="083---Refresh"><path id="Path" d="m22.852 3.85 2.037-3.084c.3156418-.478053.8501437-.76577502 1.423-.766h5.376c.5728563.00022498 1.1073582.287947 1.423.766l2.037 3.084 7.289 3.019 3.621-.741c.5615169-.11452729 1.1430213.06052508 1.548.466l3.8 3.8c.4054749.4049787.5805273.9864831.466 1.548l-.741 3.621 3.019 7.289 3.084 2.037c.478053.3156418.765775.8501437.766 1.423v5.376c-.000225.5728563-.287947 1.1073582-.766 1.423l-3.084 2.037-3.019 7.289.741 3.621c.1145273.5615169-.0605251 1.1430213-.466 1.548l-3.8 3.8c-.4049787.4054749-.9864831.5805273-1.548.466l-3.621-.741-7.289 3.019-2.037 3.084c-.3156418.478053-.8501437.765775-1.423.766h-5.376c-.5728563-.000225-1.1073582-.287947-1.423-.766l-2.037-3.084-7.289-3.019-3.621.741c-.5615169.1145273-1.1430213-.0605251-1.548-.466l-3.8-3.8c-.40547492-.4049787-.58052729-.9864831-.466-1.548l.741-3.621-3.019-7.289-3.084-2.037c-.478053-.3156418-.76577502-.8501437-.766-1.423v-5.376c.00022498-.5728563.287947-1.1073582.766-1.423l3.084-2.037 3.019-7.289-.741-3.621c-.11452729-.5615169.06052508-1.1430213.466-1.548l3.8-3.8c.4049787-.40547492.9864831-.58052729 1.548-.466l3.621.741z" fill="#bdc3c7"/><g fill="#e64c3c"><path id="Path" d="m18.183 39.053c-.4535599.3833879-.7132753.9485183-.7088319 1.5423896s.272586 1.1550522.7318319 1.5316104c4.2335591 3.4820944 9.886399 4.7091328 15.1826251 3.295629 5.2962261-1.4135037 9.5858985-5.2940878 11.5213749-10.422629.4869651-1.2882564.8127702-2.6317828.97-4h2.12c.3969064-.0320232.7455173-.2760486.9114633-.6380183s.1233142-.7853613-.1114633-1.1069817l-4-5.819c-.181164-.2633629-.4803432-.4206901-.8-.4206901s-.618836.1573272-.8.4206901l-4 5.819c-.2347775.3216204-.2774093.745012-.1114633 1.1069817s.5145569.6059951.9114633.6380183h1.85c-.2147718 1.3973955-.6608803 2.7492393-1.32 4-1.8052887 3.4684574-5.0758885 5.9401056-8.9054261 6.7299829-3.8295375.7898773-7.8112055-.1859242-10.8415739-2.6569829-.7472292-.6360572-1.8430743-.6444867-2.6-.02z"/><path id="Path" d="m39.817 18.947c.4535599-.3833879.7132753-.9485183.7088319-1.5423896s-.272586-1.1550522-.7318319-1.5316104c-4.2335591-3.4820944-9.886399-4.7091328-15.1826251-3.295629-5.2962261 1.4135037-9.5858985 5.2940878-11.5213749 10.422629-.4869651 1.2882564-.8127702 2.6317828-.97 4h-2.12c-.39690637.0320232-.74551726.2760486-.91146327.6380183-.165946.3619697-.12331421.7853613.11146327 1.1069817l3.488 5.074.512.744c.181164.2633629.4803432.4206901.8.4206901s.618836-.1573272.8-.4206901l4-5.819c.2342398-.3216007.2765611-.7446234.1106752-1.1062547-.1658859-.3616312-.5141206-.6054998-.9106752-.6377453h-1.85c.2147718-1.3973955.6608803-2.7492393 1.32-4 1.8052887-3.4684574 5.0758885-5.9401056 8.9054261-6.7299829 3.8295375-.7898773 7.8112055.1859242 10.8415739 2.6569829.7472292.6360572 1.8430743.6444867 2.6.02z"/></g></g></g></svg>