<?xml version="1.0" encoding="iso-8859-1"?>
<!-- Generator: Adobe Illustrator 19.0.0, SVG Export Plug-In . SVG Version: 6.00 Build 0)  -->
<svg xmlns="http://www.w3.org/2000/svg" xmlns:xlink="http://www.w3.org/1999/xlink" version="1.1" id="Capa_1" x="0px" y="0px" viewBox="0 0 409.782 409.782" style="enable-background:new 0 0 409.782 409.782;" xml:space="preserve">
<path style="fill:#31978C;" d="M161.883,99.84c0,0-23.552,5.632-45.056,30.72c0,0-52.736,48.64-31.744,176.64  c4.096,25.088,11.776,60.928,38.912,88.576c0,0,51.712,15.872,78.336,13.824c16.896-1.024,49.664-4.096,68.096-9.216  c25.6-7.168,47.616-43.008,57.856-119.296c6.144-47.104,11.264-131.584-57.856-174.08c0,0-13.824-4.608-18.432-6.144  c-8.192-2.56-20.48-7.168-31.232,3.584c0,0-17.92-10.752-34.816,1.024C185.435,105.984,182.363,96.768,161.883,99.84z"/>
<g>
	<path style="fill:#44C4A1;" d="M270.427,107.52c0,0,79.36-40.96,91.648,135.168c3.072,45.568-16.384,141.824-76.288,150.016   c0,0,51.2-56.832,43.008-161.792C325.723,194.048,316.507,137.728,270.427,107.52z"/>
	<path style="fill:#44C4A1;" d="M231.003,112.64c0,0,76.8-38.4,89.6,137.216c3.584,45.568-17.408,141.824-80.384,150.016   c0,0,38.912-56.32,29.696-161.28C267.355,202.752,263.259,153.6,231.003,112.64z"/>
	<path style="fill:#44C4A1;" d="M140.379,109.568c0,0-80.384-40.448-92.672,135.68c-3.072,45.568,16.384,141.824,76.288,150.016   c0,0-50.176-56.832-43.008-161.792C84.059,197.12,94.299,140.288,140.379,109.568z"/>
	<path style="fill:#44C4A1;" d="M178.779,115.712c0,0-76.8-38.4-89.6,137.216c-3.584,45.568,17.408,141.824,80.384,150.016   c0,0-38.912-56.32-29.696-161.28C142.427,205.312,146.523,156.672,178.779,115.712z"/>
	<ellipse style="fill:#44C4A1;" cx="204.379" cy="261.12" rx="59.904" ry="148.48"/>
	<path style="fill:#44C4A1;" d="M148.059,102.4c0,0,26.112-1.024,30.72,6.144c0,0,30.208-8.704,42.496,0   c0,0,26.112-10.752,41.984-4.608c0,0-34.816-8.192-34.816-36.352c0-17.408,10.752-47.104-18.944-67.584l-22.016,21.504   c0,0,28.672,28.672,8.704,52.224C186.971,84.48,168.027,99.84,148.059,102.4z"/>
</g>
<path style="fill:#3EA69B;" d="M148.059,102.4c0,0,26.112-1.024,30.72,6.144c0,0,30.208-8.704,42.496,0  c0,0,26.112-10.752,41.984-4.608c0,0-34.816-8.192-34.816-36.352c0-17.408,10.752-47.104-18.944-67.584l-22.016,21.504  c0,0,28.672,28.672,8.704,52.224C186.971,84.48,168.027,99.84,148.059,102.4z"/>
<path style="fill:#44C4A1;" d="M198.747,10.752l-11.264,11.264c0,0,28.672,28.672,8.704,52.224  c-9.216,10.752-28.16,26.112-48.128,28.672c0,0,26.112-1.024,30.72,6.144c0,0,18.432-5.632,32.768-3.584  C211.547,105.472,226.907,29.696,198.747,10.752z"/>
<g>
</g>
<g>
</g>
<g>
</g>
<g>
</g>
<g>
</g>
<g>
</g>
<g>
</g>
<g>
</g>
<g>
</g>
<g>
</g>
<g>
</g>
<g>
</g>
<g>
</g>
<g>
</g>
<g>
</g>
</svg>
