<?xml version="1.0" encoding="iso-8859-1"?>
<!-- Generator: Adobe Illustrator 19.0.0, SVG Export Plug-In . SVG Version: 6.00 Build 0)  -->
<svg xmlns="http://www.w3.org/2000/svg" xmlns:xlink="http://www.w3.org/1999/xlink" version="1.1" id="Layer_1" x="0px" y="0px" viewBox="0 0 491.52 491.52" style="enable-background:new 0 0 491.52 491.52;" xml:space="preserve">
<path style="fill:#64798A;" d="M391.833,146.073C391.833,65.399,326.435,0,245.761,0C165.086,0,99.687,65.399,99.687,146.073  c0,74.161,55.313,135.267,126.909,144.673v32.914h38.328v-32.914C336.52,281.34,391.833,220.234,391.833,146.073z M245.761,257.65  c-61.623,0-111.578-49.955-111.578-111.578S184.138,34.495,245.761,34.495c61.622,0,111.578,49.955,111.578,111.578  S307.383,257.65,245.761,257.65z"/>
<circle style="fill:#27A2DB;" cx="245.76" cy="146.074" r="92.826"/>
<circle style="fill:#64798A;" cx="245.76" cy="146.074" r="34.493"/>
<circle style="fill:#FFFFFF;" cx="224.978" cy="125.286" r="17.27"/>
<path style="fill:#3A556A;" d="M271.679,320.295h-51.838c-2.581,0-4.673,2.092-4.673,4.673v19.654h61.184v-19.654  C276.352,322.387,274.26,320.295,271.679,320.295z"/>
<path style="fill:#FCD462;" d="M286.427,347.8c0-1.756-1.424-3.179-3.178-3.179h-74.977c-1.754,0-3.178,1.423-3.178,3.179v123.778  h81.333V347.8z"/>
<path style="fill:#F6C358;" d="M205.093,471.579v16.763c0,1.755,1.424,3.179,3.178,3.179h74.977c1.754,0,3.178-1.424,3.178-3.179  v-16.763H205.093z"/>
<g>
</g>
<g>
</g>
<g>
</g>
<g>
</g>
<g>
</g>
<g>
</g>
<g>
</g>
<g>
</g>
<g>
</g>
<g>
</g>
<g>
</g>
<g>
</g>
<g>
</g>
<g>
</g>
<g>
</g>
</svg>
