<svg height="512" viewBox="0 0 58 58" width="512" xmlns="http://www.w3.org/2000/svg"><g id="Page-1" fill="none" fill-rule="evenodd"><g id="085---Spanner-and-Cog"><path id="Path" d="m40 22v30.14l-4.85 2.01-2.04 3.08c-.3133727.4795162-.8471675.7689683-1.42.77h-5.38c-.5728325-.0010317-1.1066273-.2904838-1.42-.77l-2.04-3.08-7.29-3.02-3.62.74c-.5610882.1156624-1.1428413-.0569869-1.55-.46l-3.8-3.8c-.40301307-.4071587-.5756624-.9889118-.46-1.55l.74-3.62-3.02-7.29-3.08-2.04c-.47951616-.3133727-.76896826-.8471675-.77-1.42v-5.38c.00103174-.5728325.29048384-1.1066273.77-1.42l3.08-2.04 3.02-7.29-.74-3.62c-.1156624-.5610882.05698693-1.1428413.46-1.55l3.8-3.8c.4071587-.40301307.9889118-.5756624 1.55-.46l3.62.74 7.29-3.02 2.04-3.08c.3133727-.47951616.8471675-.76896826 1.42-.77h5.38c.5728325.00103174 1.1066273.29048384 1.42.77l1.55 2.34z" fill="#3b97d3"/><path id="Shape" d="m52.61.46c-.3045034-.22675278-.7105862-.26317761-1.0505827-.09423524-.3399966.16894238-.5562287.51459198-.5594173.89423524v11.12c.0026457.3801569-.2104962.7289345-.55.9l-5 2.5c-.2836743.1399671-.6163257.1399671-.9 0l-5-2.5c-.3395038-.1710655-.5526457-.5198431-.55-.9v-11.12c-.0031886-.37964326-.2194207-.72529286-.5594173-.89423524-.3399965-.16894237-.7460793-.13251754-1.0505827.09423524-1.0310138.74946113-1.9502149 1.64172595-2.73 2.65-1.7306347 2.26568792-2.6656048 5.03896393-2.66 7.89-.0013799.7781407.068917 1.5547546.21 2.32.7867837 4.3390687 3.7195937 7.9834334 7.79 9.68v30c0 2.7614237 2.2385763 5 5 5s5-2.2385763 5-5v-30c4.3453108-1.8104806 7.3723963-5.8285823 7.9138671-10.5047319.5414707-4.67614962-1.4872795-9.27968742-5.3038671-12.0352681zm-6.61 52.54c0 .5522847-.4477153 1-1 1s-1-.4477153-1-1v-3c0-.5522847.4477153-1 1-1s1 .4477153 1 1z" fill="#bdc3c7" fill-rule="nonzero"/><path id="Path" d="m40 23v17.62c-5.21968 4.940679-13.0932721 5.7946184-19.2508187 2.0878694-6.1575467-3.7067489-9.0878469-11.0644664-7.1645416-17.9895126 1.9233052-6.9250462 8.2281934-11.7178586 15.4153603-11.7183568 1.0779887-.0005391 2.1533326.1066603 3.21.32.7867837 4.3390687 3.7195937 7.9834334 7.79 9.68z" fill="#285680"/></g></g></svg>