<?xml version="1.0" encoding="iso-8859-1"?>
<!-- Generator: Adobe Illustrator 19.0.0, SVG Export Plug-In . SVG Version: 6.00 Build 0)  -->
<svg version="1.1" id="Capa_1" xmlns="http://www.w3.org/2000/svg" xmlns:xlink="http://www.w3.org/1999/xlink" x="0px" y="0px"
	 viewBox="0 0 513.872 513.872" style="enable-background:new 0 0 513.872 513.872;" xml:space="preserve">
<path style="fill:#54C0EB;" d="M490.299,256.925c0,128.885-104.48,233.365-233.355,233.365
	c-128.896,0-233.376-104.48-233.376-233.365S128.048,23.56,256.944,23.56C385.819,23.56,490.299,128.04,490.299,256.925"/>
<path style="fill:#FF7058;" d="M60.901,3.603l15.211,19.947C-2.139,89.693-22.16,201.224,25.883,289.437
	c-1.419-9.579-2.187-19.381-2.325-29.301c-0.501-36.597,7.445-71.264,22.069-102.283c13.515-33.579,35.499-64.277,65.557-88.48
	l15.211,19.947l19.253-82.731L60.901,3.603z"/>
<path style="fill:#40596B;" d="M487.963,224.328c1.408,9.568,2.187,19.371,2.325,29.408c0.491,35.84-7.147,69.973-21.237,100.459
	c-0.107,0.331-0.213,0.661-0.416,0.971c-13.515,33.909-35.701,64.811-65.984,89.333l-15.211-19.947l-19.253,82.613l84.853,3.104
	l-15.317-19.947C516.091,424.189,536.005,312.648,487.963,224.328"/>
<g>
	<path style="fill:#F2F2F2;" d="M238.917,429.213c-1.824,0.373-3.168,1.909-4.885,2.624c-2.773,1.131-5.888-0.032-8.885-0.192
		c-2.987-0.139-6.72,1.909-6.048,4.821c3.189,4.16,6.368,8.32,9.547,12.48c1.696,2.219,3.467,4.619,3.712,7.403
		c0.224,2.784-1.813,5.952-4.608,5.813c1.216-3.072-1.504-6.827-4.8-7.04c-3.296-0.213-6.325,2.677-6.741,5.952
		c1.045-2.869,0.725-6.208-0.789-8.843c-1.109-1.888-2.795-3.435-3.499-5.515c-1.984-5.867,4.608-10.635,8.939-15.083
		c6.955-7.157,8.896-19.349,2.965-27.403c-2.891-3.925-7.637-7.776-6.4-12.491c0.363-1.355,1.216-2.528,1.653-3.861
		c1.856-5.472-5.675-11.221-10.464-7.979c-4.768,3.232-3.776,10.368-2.805,16.053c0.971,5.685,0.021,13.397-5.632,14.507
		c-3.819,0.736-7.403-2.304-11.307-2.592c-5.099-0.395-9.771,4.949-8.693,9.941c1.077,5.003,7.52,7.968,12,5.536
		c-0.907,3.691-6.293,3.488-9.781,1.952c-3.477-1.557-7.968-3.435-10.667-0.747c1.312,2.176,2.624,4.363,3.936,6.539
		c-6.315,2.891-12.629,5.803-18.944,8.704c-3.84,1.771-9.675,2.795-11.147-1.173c7.723-10.336,16.715-19.712,26.709-27.872
		c2.475-2.005,5.035-3.968,7.872-5.408c3.008-1.536,6.315-2.475,9.237-4.192c7.147-4.213,10.997-12.619,11.787-20.864
		c0.8-8.245-1.003-16.523-2.784-24.619c-2.155-9.739-4.544-19.947-11.243-27.339c-6.688-7.392-19.168-10.549-26.667-3.979
		c-5.621-2.912-10.837,0.096-15.413,4.48c-4.587,4.373-7.712,10.08-12.245,14.507c-4.523,4.437-11.456,7.477-17.184,4.779
		c-2.379-1.109-4.224-3.083-6.485-4.416c-3.861-2.272-8.555-2.517-12.864-3.787c-8.267-2.421-15.243-8.864-18.293-16.907
		l0.896,1.877c-7.413,1.803-14.656-2.987-21.109-7.083c-6.453-4.107-14.795-7.776-21.419-3.968
		c-2.027,1.173-3.499,2.805-4.501,4.715c11.36,41.643,33.995,78.635,64.384,107.52c2.432-0.299,4.917-0.341,7.371-0.341
		c12.139,0,24.757,0.107,35.659,5.44c-12.149,0.213-24.288,0.405-36.448,0.619c-0.117,0.011-0.224,0.021-0.341,0.021
		c30.88,27.296,69.024,46.507,111.189,54.432c1.259-2.272,3.851-3.435,6.251-4.469c10.187-4.352,20.288-10.165,26.272-19.477
		c5.973-9.323,6.464-22.891-1.44-30.645C243.195,430.099,241.072,428.776,238.917,429.213"/>
	<path style="fill:#F2F2F2;" d="M265.349,31.08c0.203,3.328,2.891,7.221,6.027,6.123c4.224-4,8.437-7.989,12.672-11.989
		c0.011-0.011,0.021-0.021,0.043-0.043c-6.187-0.715-12.469-1.184-18.795-1.408C265.648,26.099,265.211,28.669,265.349,31.08"/>
	<path style="fill:#F2F2F2;" d="M483.376,200.456c-16.619-66.88-62.08-122.325-122.432-152.437
		c-4.299,2.315-9.653,0.096-13.632-2.763c-4.032-2.869-7.893-6.496-12.811-7.083c-2.475-0.277-5.109,0.235-7.413-0.683
		c-2.059-0.832-3.467-2.613-4.64-4.555c-9.451-2.763-19.125-4.971-29.024-6.517c-1.141,1.163-1.963,2.72-1.888,4.363
		c0.16,3.669,3.701,6.688,7.36,6.763c-3.296-0.821-6.933-0.096-9.685,1.92c-1.952,1.429-3.477,3.477-5.664,4.491
		c-6.251,2.88-12.288-3.829-17.696-8.096c-8.736-6.859-22.443-7.573-30.635-0.085c-4,3.648-7.691,9.355-13.045,8.533
		c-1.547-0.245-2.944-1.045-4.48-1.387c-6.251-1.408-11.712,7.595-7.584,12.501c4.139,4.896,11.893,2.965,18.059,1.227
		c6.165-1.749,14.795-1.611,16.672,4.523c1.291,4.149-1.643,8.448-1.525,12.789c0.149,5.675,6.592,10.208,12,8.448
		c5.397-1.76,7.915-9.237,4.683-13.92c4.192,0.576,4.608,6.549,3.317,10.581c-1.312,4.021-2.869,9.195,0.416,11.872
		c2.251-1.707,4.523-3.413,6.773-5.12c3.936,6.635,7.872,13.269,11.819,19.904c2.411,4.043,4.224,10.389,0.011,12.459
		c-12.309-7.317-23.755-16.16-33.909-26.251c-2.517-2.485-4.992-5.088-6.912-8.053c-2.027-3.157-3.467-6.699-5.696-9.717
		c-5.483-7.392-15.211-10.677-24.416-10.592c-9.227,0.085-18.144,3.029-26.88,5.963c-10.496,3.52-21.504,7.339-28.885,15.605
		c-7.381,8.235-9.408,22.411-1.28,29.931c-2.539,6.56,1.387,11.947,6.752,16.501c5.376,4.565,12.043,7.339,17.483,11.829
		c5.419,4.491,9.6,11.776,7.296,18.443c-0.96,2.752-2.912,5.035-4.117,7.68c-2.069,4.544-1.803,9.749-2.699,14.667
		c-1.696,9.397-8,17.867-16.544,22.187l1.973-1.216c2.869,7.989-1.568,16.544-5.355,24.149c-3.787,7.605-6.869,17.227-1.888,24.107
		c6.283,8.672,19.755,6.005,29.472,1.547c10.688-4.907,20.821-10.891,30.944-16.864c4.373-2.581,8.832-5.237,12.128-9.099
		c3.296-3.861,5.227-8.715,8.352-12.725c12.096-15.573,37.643-14.293,50.56-29.195c-4.853,0.907-9.728-2.432-12.171-6.731
		c-2.453-4.299-3.019-9.376-3.541-14.293c-1.429-13.408-2.784-27.371,1.835-40.032c1.653,13.397,3.296,26.795,4.939,40.192
		c0.331,2.645,0.704,5.419,2.251,7.584c3.371,4.715,10.336,4.448,16.085,3.691c4.555-0.619,9.248-1.248,13.205-3.584
		c3.947-2.336,7.029-6.805,6.293-11.339c-0.811-5.056-5.707-8.213-9.291-11.893c-3.584-3.669-5.707-10.464-1.483-13.397
		c6.955,12.011,16.149,22.731,26.944,31.456c3.669,2.955,7.659,5.856,9.675,10.112c2.304,4.885,1.557,10.603,0.768,15.947
		c-1.451,9.899-2.901,19.797-4.373,29.707c6.048-8.032,15.125-13.696,24.981-15.637c7.616-1.483,18.08,1.707,17.845,9.472
		c-0.16,5.013-4.821,10.848-1.109,14.24c2.027,1.867,5.312,1.259,7.776,2.528c4.725,2.443,3.659,9.333,2.453,14.507
		c-1.184,5.184-0.043,12.715,5.269,12.811c-10.229,6.645-12.992,21.035-9.643,32.768c3.328,11.744,11.381,21.461,19.264,30.795
		c2.901-3.509-0.672-8.576-3.936-11.755c-6.133-5.963-12.277-14.645-8.597-22.357c1.899-3.925,6.08-6.635,7.061-10.88
		c0.939-4.032-1.291-8.544,0.523-12.245c1.888-3.851,7.2-4.917,9.365-8.619c2.176-3.765,0.32-8.437-0.885-12.629
		c-1.195-4.181-0.96-9.877,3.115-11.403c2.688-1.024,5.611,0.427,8.203,1.664c10.421,4.949,23.563,6.677,32.981,0.032
		c2.752-1.941,5.152-4.725,5.504-8.085c0.224-2.165-0.437-4.32-1.109-6.4l-10.805-34.389c5.845-2.453,12.459,2.741,14.485,8.736
		c2.016,6.005,1.067,12.555,1.355,18.891c0.288,6.336,2.475,13.397,8.224,16.096c2.741-1.568,2.571-5.664,1.216-8.523
		c-1.344-2.869-3.531-5.493-3.733-8.661c-0.213-3.701,2.421-6.944,5.109-9.493C477.168,203.699,480.219,201.704,483.376,200.456"/>
</g>
<path style="fill:#FFFFFF;" d="M488.24,226.28c-0.917,0.597-1.835,1.184-2.763,1.76c-1.472,0.885-3.04,1.845-3.744,3.403
	c-1.483,3.307,2.251,7.072,5.856,6.837c0.661-0.043,1.248-0.267,1.877-0.469C489.147,233.939,488.731,230.088,488.24,226.28"/>
<g>
</g>
<g>
</g>
<g>
</g>
<g>
</g>
<g>
</g>
<g>
</g>
<g>
</g>
<g>
</g>
<g>
</g>
<g>
</g>
<g>
</g>
<g>
</g>
<g>
</g>
<g>
</g>
<g>
</g>
</svg>
