<?xml version="1.0" encoding="iso-8859-1"?>
<!-- Generator: Adobe Illustrator 19.0.0, SVG Export Plug-In . SVG Version: 6.00 Build 0)  -->
<svg version="1.1" id="Layer_1" xmlns="http://www.w3.org/2000/svg" xmlns:xlink="http://www.w3.org/1999/xlink" x="0px" y="0px"
	 viewBox="0 0 507.8 507.8" style="enable-background:new 0 0 507.8 507.8;" xml:space="preserve">
<path style="fill:#CDD6E0;" d="M486.6,0H21.2C9.4,0,0,9.5,0,21.2V186c0,11.7,9.5,21.2,21.2,21.2h73.3V106.8h318.8v100.5h73.3
	c11.8,0,21.2-9.6,21.2-21.2V21.2C507.8,9.4,498.3,0,486.6,0z"/>
<polygon style="fill:#ACB3BA;" points="33.9,33.7 33.9,173.4 94.5,173.4 94.5,106.8 413.3,106.8 413.3,173.4 474,173.4 474,33.7 "/>
<path style="fill:#40596B;" d="M445.4,120.4h-383c-0.9,0-1.6-0.7-1.6-1.6V88.3c0-0.9,0.7-1.6,1.6-1.6h382.9c0.9,0,1.6,0.7,1.6,1.6
	v30.6C447,119.7,446.3,120.4,445.4,120.4z"/>
<path style="fill:#4CDBC4;" d="M94.5,106.8v379.8c0,11.7,9.5,21.2,21.2,21.2H392c11.7,0,21.2-9.5,21.2-21.2V106.8H94.5z"/>
<path style="fill:#F2F2F2;" d="M135.2,106.8v316c21.8,0,39.5,17.7,39.5,39.5h158.4c0-21.8,17.7-39.5,39.5-39.5v-316
	C372.6,106.8,135.2,106.8,135.2,106.8z"/>
<g>
	<circle style="fill:#4CDBC4;" cx="253.9" cy="334.2" r="22.7"/>
	<ellipse style="fill:#4CDBC4;" cx="253.9" cy="197.7" rx="99.5" ry="72.9"/>
</g>
<path style="fill:#F2F2F2;" d="M253.1,225.8c4.9-4.1,8.8-11.7,11.8-22.9h27.3c-2,4.5-5.7,7.3-11.2,8.4l2.3,17.7
	c7-1.2,12.6-4.1,16.8-8.4c4.2-4.4,6.7-10.3,7.6-17.7h6.9v-10.1h-6.9c-0.8-8.1-3.8-14.4-9-19.3c-5.2-4.9-11.7-7.3-19.3-7.3
	s-14,2.1-19.3,6.4c-5.3,4.3-9.3,11-11.9,20.1h-29.3c1.2-2.6,3.2-4.8,5.9-6.9c2.6-2.1,5.9-3.5,9.6-4.2l-2-18.2
	c-9.2,1.4-16.3,4.6-21.3,9.6c-5.1,5-8.1,11.6-9,19.7h-9.2v10.2h9.5c1.3,9.1,4.8,16.2,10.6,21.3c5.8,5.1,12.9,7.7,21.4,7.7
	C242.2,231.9,248.3,229.9,253.1,225.8z M268.3,192.8c1.3-3.1,3-5.3,5.1-6.8c2.2-1.5,4.4-2.2,6.9-2.2c2.7,0,5.2,0.8,7.4,2.4
	c2.2,1.6,3.9,3.8,4.7,6.6H268.3z M223,211.5c-2.6-2.2-4.2-5-4.9-8.5h27.3c-1.2,4.2-3,7.2-5.2,9.1c-2.3,1.8-5,2.7-8.1,2.7
	C228.6,214.7,225.5,213.6,223,211.5z"/>
<g>
</g>
<g>
</g>
<g>
</g>
<g>
</g>
<g>
</g>
<g>
</g>
<g>
</g>
<g>
</g>
<g>
</g>
<g>
</g>
<g>
</g>
<g>
</g>
<g>
</g>
<g>
</g>
<g>
</g>
</svg>
