<?xml version="1.0" encoding="iso-8859-1"?>
<!-- Generator: Adobe Illustrator 19.0.0, SVG Export Plug-In . SVG Version: 6.00 Build 0)  -->
<svg xmlns="http://www.w3.org/2000/svg" xmlns:xlink="http://www.w3.org/1999/xlink" version="1.1" id="Layer_1" x="0px" y="0px" viewBox="0 0 491.523 491.523" style="enable-background:new 0 0 491.523 491.523;" xml:space="preserve">
<g>
	<path style="fill:#EBF0F3;" d="M98.281,491.522c-25.179,0-50.357-9.585-69.527-28.754c-38.339-38.334-38.339-100.711,0-139.046   l69.552-69.549c38.33-38.342,100.716-38.334,139.046,0c38.339,38.334,38.339,100.707,0,139.041l-69.553,69.553   C148.629,481.937,123.451,491.522,98.281,491.522z M167.825,260.518c-16.186,0-32.372,6.164-44.691,18.484l-69.553,69.548   c-24.638,24.647-24.638,64.743,0,89.39c24.631,24.631,64.743,24.648,89.39,0l69.553-69.552c24.638-24.643,24.638-64.743,0-89.386   C200.204,266.681,184.019,260.518,167.825,260.518z"/>
	<path style="fill:#EBF0F3;" d="M323.699,266.103c-25.178,0-50.358-9.585-69.527-28.754c-38.33-38.334-38.33-100.711,0-139.045   l69.553-69.549c38.33-38.343,100.715-38.334,139.045,0c38.339,38.334,38.339,100.707,0,139.041l-69.552,69.552   C374.048,256.518,348.869,266.103,323.699,266.103z M393.252,35.1c-16.194,0-32.38,6.164-44.7,18.483l-69.553,69.549   c-24.638,24.643-24.638,64.748,0,89.39c24.648,24.652,64.743,24.635,89.391,0l69.552-69.552   c11.934-11.938,18.509-27.811,18.509-44.692c0-16.884-6.575-32.757-18.509-44.695C425.623,41.264,409.437,35.1,393.252,35.1z"/>
</g>
<path style="fill:#64798A;" d="M168.554,340.526c-4.492,0-8.985-1.714-12.414-5.144c-6.858-6.854-6.858-17.973,0-24.827  l154.417-154.416c6.858-6.859,17.968-6.859,24.827,0c6.858,6.854,6.858,17.973,0,24.827L180.967,335.381  C177.538,338.811,173.046,340.526,168.554,340.526z"/>
<g>
</g>
<g>
</g>
<g>
</g>
<g>
</g>
<g>
</g>
<g>
</g>
<g>
</g>
<g>
</g>
<g>
</g>
<g>
</g>
<g>
</g>
<g>
</g>
<g>
</g>
<g>
</g>
<g>
</g>
</svg>
