<?xml version="1.0" encoding="iso-8859-1"?>
<!-- Generator: Adobe Illustrator 19.0.0, SVG Export Plug-In . SVG Version: 6.00 Build 0)  -->
<svg version="1.1" id="Capa_1" xmlns="http://www.w3.org/2000/svg" xmlns:xlink="http://www.w3.org/1999/xlink" x="0px" y="0px"
	 viewBox="0 0 511.334 511.334" style="enable-background:new 0 0 511.334 511.334;" xml:space="preserve">
<rect x="312.385" y="301.944" transform="matrix(-0.7071 0.7071 -0.7071 -0.7071 823.4745 340.6596)" style="fill:#CED6E0;" width="57.599" height="77.866"/>
<circle style="fill:#8AD7F8;" cx="190.001" cy="190.001" r="167.467"/>
<rect x="120.667" y="175.067" style="fill:#FFFFFF;" width="142.933" height="106.667"/>
<polygon style="fill:#F3705A;" points="95.067,184.667 287.067,184.667 191.067,87.601 "/>
<path style="fill:#344A5E;" d="M325.467,325.467c-74.667,74.667-196.267,74.667-269.867,0s-74.667-196.267,0-269.867
	s196.267-74.667,269.867,0S400.134,250.801,325.467,325.467z M88.667,88.667c-55.467,55.467-55.467,147.2,0,202.667
	s147.2,55.467,202.667,0s55.467-147.2,0-202.667S144.134,33.201,88.667,88.667z"/>
<path style="fill:#F3705A;" d="M324.401,382.001c24.533,42.667,68.267,98.133,82.133,110.933c24.533,24.533,62.933,24.533,86.4,0
	c24.533-24.533,24.533-62.933,0-86.4c-12.8-12.8-68.267-56.533-110.933-82.133L324.401,382.001z"/>
<path style="fill:#F05540;" d="M411.867,342.534c-9.6-6.4-20.267-12.8-28.8-18.133l-57.6,57.6c5.333,9.6,11.733,19.2,18.133,28.8
	L411.867,342.534z"/>
<path style="fill:#F3705A;" d="M393.734,336.134l-57.6,57.6c-6.4,6.4-17.067,6.4-23.467,0c-6.4-6.4-6.4-17.067,0-23.467l57.6-57.6
	c6.4-6.4,17.067-6.4,23.467,0C401.201,319.067,401.201,329.734,393.734,336.134z"/>
<rect x="169.734" y="228.401" style="fill:#344A5E;" width="43.733" height="53.333"/>
<g>
</g>
<g>
</g>
<g>
</g>
<g>
</g>
<g>
</g>
<g>
</g>
<g>
</g>
<g>
</g>
<g>
</g>
<g>
</g>
<g>
</g>
<g>
</g>
<g>
</g>
<g>
</g>
<g>
</g>
</svg>
