<?xml version="1.0" encoding="iso-8859-1"?>
<!-- Generator: Adobe Illustrator 19.0.0, SVG Export Plug-In . SVG Version: 6.00 Build 0)  -->
<svg xmlns="http://www.w3.org/2000/svg" xmlns:xlink="http://www.w3.org/1999/xlink" version="1.1" id="Layer_1" x="0px" y="0px" viewBox="0 0 512 512" style="enable-background:new 0 0 512 512;" xml:space="preserve">
<polygon style="fill:#FFD15C;" points="512,112 475.733,129.067 500.267,161.067 459.733,161.067 469.333,201.6 432,183.467   422.4,224 397.867,192 372.267,224 362.667,183.467 326.4,201.6 334.933,161.067 294.4,161.067 320,129.067 282.667,112 320,93.867   294.4,61.867 334.933,61.867 326.4,22.4 362.667,39.467 372.267,0 397.867,32 422.4,0 432,39.467 469.333,22.4 459.733,61.867   500.267,61.867 475.733,93.867 "/>
<circle style="fill:#F7B64C;" cx="397.867" cy="112" r="57.6"/>
<path style="fill:#F3F3F3;" d="M455.467,259.2c3.2-35.2-13.867-69.333-45.867-88.533c-29.867-17.067-64-16-91.733,0  c-18.133-34.133-51.2-60.8-92.8-68.267C152.533,89.6,84.267,136.533,70.4,209.067c-2.133,10.667-2.133,21.333-2.133,32  C29.867,247.467,0,281.6,0,322.133c0,44.8,36.267,82.133,82.133,82.133H438.4c40.533,0,73.6-33.067,73.6-73.6  C512,295.467,488.533,266.667,455.467,259.2z"/>
<path style="fill:#F3705A;" d="M337.067,481.067c41.6-41.6,41.6-109.867,0-152.533c-21.333-21.333-48-30.933-75.733-30.933v30.933  c19.2,0,39.467,7.467,54.4,22.4c29.867,29.867,29.867,78.933,0,108.8l-13.867-13.867V496H352L337.067,481.067z"/>
<path style="fill:#66C6B9;" d="M184.533,328.533c-41.6,41.6-41.6,109.867,0,152.533c21.333,21.333,48,30.933,75.733,30.933v-30.933  c-19.2,0-39.467-7.467-54.4-22.4c-29.867-29.867-29.867-78.933,0-108.8l13.867,13.867V313.6H169.6L184.533,328.533z"/>
<g>
</g>
<g>
</g>
<g>
</g>
<g>
</g>
<g>
</g>
<g>
</g>
<g>
</g>
<g>
</g>
<g>
</g>
<g>
</g>
<g>
</g>
<g>
</g>
<g>
</g>
<g>
</g>
<g>
</g>
</svg>
