<?xml version="1.0" encoding="iso-8859-1"?>
<!-- Generator: Adobe Illustrator 19.0.0, SVG Export Plug-In . SVG Version: 6.00 Build 0)  -->
<svg version="1.1" id="Capa_1" xmlns="http://www.w3.org/2000/svg" xmlns:xlink="http://www.w3.org/1999/xlink" x="0px" y="0px"
	 viewBox="0 0 468.293 468.293" style="enable-background:new 0 0 468.293 468.293;" xml:space="preserve">
<path style="fill:#D5D6DB;" d="M325.27,468.293H143.023c-6.897,0-12.488-5.591-12.488-12.488v-28.162h207.222v28.162
	C337.757,462.702,332.166,468.293,325.27,468.293z"/>
<path style="fill:#E1E6E9;" d="M348.143,446.814H120.15c-13.794,0-24.976-11.182-24.976-24.976V72.746
	c16.137-16.137,25.185-25.185,41.322-41.322h195.301c16.137,16.137,25.185,25.185,41.322,41.322v349.092
	C373.118,435.632,361.936,446.814,348.143,446.814z"/>
<g>
	<path style="fill:#D5D6DB;" d="M331.525,31.424H136.767c-16.243,16.243-25.351,25.35-41.593,41.593v6.285
		c12.565-12.565,21.287-21.287,35.308-35.308H325.24c16.243,16.243,25.351,25.35,41.594,41.593v348.656
		c0,1.522-0.189,2.995-0.447,4.442c4.144-4.482,6.732-10.427,6.732-17.012V73.017C356.875,56.774,347.768,47.668,331.525,31.424z"/>
	<path style="fill:#D5D6DB;" d="M331.665,31.424H136.628c-8.621,0-15.61-6.989-15.61-15.61V15.61c0-8.621,6.989-15.61,15.61-15.61
		h195.037c8.621,0,15.61,6.989,15.61,15.61v0.205C347.275,24.436,340.286,31.424,331.665,31.424z"/>
</g>
<path style="fill:#27A2DB;" d="M234.147,140.291c-52.585,0-95.213,42.628-95.213,95.212c0,0,37.602,28.351,91.278,0
	c44.654-23.476,99.147,0,99.147,0C329.359,182.919,286.731,140.291,234.147,140.291z"/>
<path style="fill:#E56353;" d="M234.146,352.808c52.585,0,95.213-42.628,95.213-95.212c0,0-37.602-28.351-91.278,0
	c-44.654,23.476-99.147,0-99.147,0C138.934,310.18,181.562,352.808,234.146,352.808z"/>
<g>
</g>
<g>
</g>
<g>
</g>
<g>
</g>
<g>
</g>
<g>
</g>
<g>
</g>
<g>
</g>
<g>
</g>
<g>
</g>
<g>
</g>
<g>
</g>
<g>
</g>
<g>
</g>
<g>
</g>
</svg>
