<?xml version="1.0" encoding="iso-8859-1"?>
<!-- Generator: Adobe Illustrator 19.0.0, SVG Export Plug-In . SVG Version: 6.00 Build 0)  -->
<svg version="1.1" id="Capa_1" xmlns="http://www.w3.org/2000/svg" xmlns:xlink="http://www.w3.org/1999/xlink" x="0px" y="0px"
	 viewBox="0 0 512 512" style="enable-background:new 0 0 512 512;" xml:space="preserve">
<path style="fill:#FFD15C;" d="M441.911,147.584V51.189c0-6.923-5.611-12.523-12.533-12.523H167.02
	c-6.923,0-12.544,5.6-12.544,12.523v96.395L441.911,147.584L441.911,147.584z"/>
<path style="fill:#F8B64C;" d="M154.476,159.328v154.229c0,6.923,5.611,12.533,12.544,12.533h262.357
	c6.912,0,12.533-5.611,12.533-12.533V159.328H154.476z"/>
<g>
	<rect x="267.201" y="38.667" style="fill:#F2F2F2;" width="62.059" height="62.059"/>
	<path style="fill:#F2F2F2;" d="M455.959,332.085c-3.893-0.693-7.893-1.131-12-1.131h-1.003l47.339-208.885H123.34L109.377,13.568
		C108.396,5.813,101.772,0,93.964,0H42.956v36.235h32.8l42.549,330.955h325.643c4.267,0,8.299,0.917,12,2.453v-37.557H455.959z
		 M218.689,293.824c0,10.763-8.693,19.467-19.456,19.467c-10.773,0-19.467-8.704-19.467-19.467v-99.488
		c0-10.763,8.693-19.467,19.467-19.467c10.763,0,19.456,8.704,19.456,19.467V293.824z M307.521,293.824
		c0,10.763-8.811,19.467-19.563,19.467c-10.784,0-19.477-8.704-19.477-19.467v-99.488c0-10.763,8.693-19.467,19.477-19.467
		c10.752,0,19.563,8.704,19.563,19.467V293.824z M396.236,293.824c0,10.763-8.8,19.467-19.563,19.467
		c-10.784,0-19.467-8.704-19.467-19.467v-99.488c0-10.763,8.683-19.467,19.467-19.467c10.763,0,19.563,8.704,19.563,19.467V293.824z
		"/>
</g>
<path style="fill:#FF7058;" d="M443.959,330.955h-1.003l-8.213,36.235h7.936c15.371,0,29.504,10.347,32.437,25.44
	c3.936,20.277-11.563,38.112-31.168,38.112H103.063c-10.016,0-18.123,8.107-18.123,18.112c0,10.016,8.107,18.123,18.123,18.123
	h340.896c44.832,0,79.669-43.595,64.352-90.603C499.351,348.907,472.855,330.955,443.959,330.955"/>
<path style="fill:#334A5E;" d="M233.377,457.088c0,30.325-24.587,54.912-54.912,54.912s-54.891-24.587-54.891-54.912
	s24.576-54.912,54.891-54.912C208.791,402.176,233.377,426.763,233.377,457.088"/>
<path style="fill:#F2F2F2;" d="M201.623,457.088c0,12.789-10.357,23.168-23.168,23.168c-12.789,0-23.168-10.379-23.168-23.168
	c0-12.8,10.379-23.168,23.168-23.168C191.276,433.92,201.623,444.288,201.623,457.088"/>
<path style="fill:#334A5E;" d="M438.849,457.088c0,30.325-24.597,54.912-54.901,54.912c-30.336,0-54.901-24.587-54.901-54.912
	s24.576-54.912,54.901-54.912C414.252,402.176,438.849,426.763,438.849,457.088"/>
<path style="fill:#F2F2F2;" d="M407.105,457.088c0,12.789-10.379,23.168-23.168,23.168c-12.789,0-23.168-10.379-23.168-23.168
	c0-12.8,10.379-23.168,23.168-23.168C396.727,433.92,407.105,444.288,407.105,457.088"/>
<path style="fill:#FF7058;" d="M57.42,0.011H18.124c-10.005,0-18.101,8.107-18.101,18.112c0,9.995,8.107,18.112,18.101,18.112H57.42
	c10.005,0,18.101-8.117,18.101-18.112C75.521,8.117,67.415,0.011,57.42,0.011"/>
<g>
</g>
<g>
</g>
<g>
</g>
<g>
</g>
<g>
</g>
<g>
</g>
<g>
</g>
<g>
</g>
<g>
</g>
<g>
</g>
<g>
</g>
<g>
</g>
<g>
</g>
<g>
</g>
<g>
</g>
</svg>
