<?xml version="1.0" encoding="iso-8859-1"?>
<!-- Generator: Adobe Illustrator 19.0.0, SVG Export Plug-In . SVG Version: 6.00 Build 0)  -->
<svg version="1.1" id="Capa_1" xmlns="http://www.w3.org/2000/svg" xmlns:xlink="http://www.w3.org/1999/xlink" x="0px" y="0px"
	 viewBox="0 0 512 512" style="enable-background:new 0 0 512 512;" xml:space="preserve">
<path style="fill:#787878;" d="M512,122.336V41.28C512,18.48,493.52,0,470.72,0H41.28C18.48,0,0,18.48,0,41.28v81.056H512z"/>
<path style="fill:#E5E5E5;" d="M0,470.72C0,493.52,18.48,512,41.28,512h429.44c22.8,0,41.28-18.48,41.28-41.28V122.336H0V470.72z"/>
<circle style="fill:#FFDB70;" cx="56.128" cy="61.168" r="24.496"/>
<g>
	<circle style="fill:#FDBC4B;" cx="127.904" cy="61.168" r="24.496"/>
	<circle style="fill:#FDBC4B;" cx="199.696" cy="61.168" r="24.496"/>
</g>
<path style="fill:#CACACA;" d="M175.296,482.832c0-16.112-13.056-29.168-29.168-29.168h-39.024c-13.488,0-24.464-11.04-24.4-24.528
	v-0.32c0-0.592-0.016-1.2-0.048-1.776c-0.816-13.296,9.744-24.512,23.072-24.512h51.696c15.792,0,29.952-11.824,30.784-27.6
	c0.88-16.816-12.496-30.736-29.136-30.736h-15.984c-13.568,0-24.528-11.04-24.448-24.592l0.016-1.696v-0.352
	c-0.08-14.272,11.52-25.936,25.792-25.936h20.656c15.792,0,29.952-11.824,30.784-27.6c0.88-16.832-12.496-30.736-29.136-30.736
	h-74.56c-14.096,0-24.608-11.84-24.448-25.936c0-0.112,0-0.24,0-0.352s0-0.24,0-0.352c-0.16-14.096,10.352-25.936,24.448-25.936
	h24.112c15.792,0,29.952-11.824,30.784-27.6c0.864-16.848-12.528-30.768-29.152-30.768H0V470.72C0,493.52,18.48,512,41.28,512
	h104.848C162.24,512,175.296,498.944,175.296,482.832z"/>
<g style="opacity:0.5;">
	<rect x="48" y="170.336" style="fill:#FFFFFF;" width="416" height="293.664"/>
</g>
<path style="fill:#3789C9;" d="M435.504,464c4.224-15.568,6.672-31.872,6.672-48.768c0-102.832-83.36-186.176-186.176-186.176
	S69.824,312.416,69.824,415.232c0,16.912,2.448,33.2,6.672,48.768H435.504z"/>
<path style="fill:#4B9FD8;" d="M178.928,464c-3.984-3.008-6.72-7.568-6.64-12.912v-1.376c-0.624-8.912,6.528-16.448,15.456-16.448
	h84.768c10.672,0,20.096-7.904,20.72-18.464c0.496-11.296-8.416-20.592-19.6-20.592H212.72c-9.04,0-16.448-7.408-16.448-16.448
	l0.128-1.136v-0.256c-0.128-9.552,7.664-17.328,17.2-17.328h70.336c10.672,0,20.096-7.904,20.72-18.592
	c0.496-11.184-8.416-20.592-19.584-20.592H228.8c-9.424,0-16.448-7.904-16.32-17.328c0-0.128,0-0.128,0-0.256
	c0-0.128,0-0.128,0-0.256c-0.128-9.424,6.912-17.328,16.32-17.328h51.6c10.448,0,19.776-7.792,20.56-18.192v-1.024
	c0.08-10.96-8.624-19.84-19.552-19.84H177.904C114.016,276.544,69.84,341.808,69.84,417.616c0,16.032,2.192,31.52,5.904,46.4
	h103.184V464z"/>
<rect x="248" y="229.056" style="fill:#F3F3F3;" width="16" height="234.96"/>
<path style="fill:#FFFFFF;" d="M84.736,464c-3.744-13.136-6.16-26.832-6.784-41.024h78.592c0.272,14.176,1.344,27.872,3.024,41.024
	h15.728c-1.808-13.184-2.944-26.896-3.248-41.024h167.936c-0.304,14.112-1.44,27.84-3.248,41.024h15.728
	c1.68-13.152,2.736-26.848,3.008-41.024h78.592c-0.608,14.192-3.04,27.888-6.784,41.024h16.208
	c4.064-15.616,6.464-31.888,6.464-48.768c0-106.944-86.992-193.936-193.92-193.936S62.08,308.304,62.08,415.248
	c0,16.864,2.384,33.152,6.448,48.768h16.208V464z M172.032,407.488c0.576-26.976,4.048-52.64,9.904-75.472
	c23.136,9.552,48.192,14.576,74.08,14.576c25.824,0,50.88-5.04,74.048-14.608c5.856,22.832,9.328,48.512,9.904,75.504
	L172.032,407.488L172.032,407.488z M434.048,407.488h-78.592c-0.576-29.808-4.4-57.68-10.912-82.336
	c15.456-7.952,29.824-18.112,42.88-30.192C414.864,324.928,432.176,364.192,434.048,407.488z M376.48,284
	c-11.168,10.256-23.296,19.12-36.384,26.128c-9.232-28.32-22.128-51.424-37.536-66.96C330.528,250.752,355.728,264.928,376.48,284z
	 M256,236.8c28.64,0,54.48,32.24,69.76,80.144c-21.776,9.248-45.376,14.16-69.744,14.16c-24.432,0-48.032-4.896-69.776-14.112
	C201.504,269.056,227.344,236.8,256,236.8z M209.44,243.168c-15.408,15.536-28.304,38.656-37.552,66.992
	c-13.088-7.024-25.232-15.888-36.368-26.176C156.272,264.928,181.472,250.752,209.44,243.168z M124.576,294.96
	c13.024,12.112,27.392,22.288,42.864,30.24c-6.496,24.64-10.32,52.512-10.896,82.288H77.952
	C79.824,364.192,97.136,324.928,124.576,294.96z"/>
<g>
</g>
<g>
</g>
<g>
</g>
<g>
</g>
<g>
</g>
<g>
</g>
<g>
</g>
<g>
</g>
<g>
</g>
<g>
</g>
<g>
</g>
<g>
</g>
<g>
</g>
<g>
</g>
<g>
</g>
</svg>
