<?xml version="1.0" encoding="iso-8859-1"?>
<!-- Generator: Adobe Illustrator 19.0.0, SVG Export Plug-In . SVG Version: 6.00 Build 0)  -->
<svg xmlns="http://www.w3.org/2000/svg" xmlns:xlink="http://www.w3.org/1999/xlink" version="1.1" id="Layer_1" x="0px" y="0px" viewBox="0 0 491.52 491.52" style="enable-background:new 0 0 491.52 491.52;" xml:space="preserve">
<path style="fill:#E56353;" d="M449.313,106.726C486.044,42.104,491.507,0.013,491.507,0.013s-49.141-1.589-119.132,29.775  L449.313,106.726L449.313,106.726z"/>
<path style="fill:#EBF0F3;" d="M189.165,391.11l-18.385-18.385c49.793-23.068,110.828-67.31,169.376-125.858  c52.223-52.223,86.583-100.428,109.157-140.141l-76.938-76.938c-43.012,19.274-93.884,50.968-146.107,103.191  c-18.885,18.885-36.255,38.025-51.932,56.966c-32.927,39.783-58.298,78.678-73.926,112.411L189.165,391.11z M313.607,114.792  c17.43-17.43,45.691-17.43,63.121,0c17.43,17.43,17.43,45.691,0,63.121c-17.43,17.43-45.691,17.43-63.121,0  C296.177,160.482,296.177,132.222,313.607,114.792z"/>
<path style="fill:#D15241;" d="M491.507,0.013c0,0-5.462,42.09-42.194,106.713l12.419,12.419  C493.095,49.155,491.507,0.013,491.507,0.013z"/>
<path style="fill:#E1E6E9;" d="M449.313,106.726c-22.573,39.712-56.934,87.918-109.157,140.141  c-58.548,58.548-119.583,102.79-169.376,125.858l18.385,18.385c33.732-15.628,72.628-40.999,112.411-73.927  c18.942-15.677,38.082-33.047,56.966-51.931c52.223-52.223,83.917-103.095,103.191-146.107L449.313,106.726L449.313,106.726z"/>
<path style="fill:#D15241;" d="M376.729,177.912c17.43-17.43,17.43-45.691,0-63.121c-17.43-17.43-45.691-17.43-63.121,0  c-17.43,17.43-17.43,45.691,0,63.121C331.038,195.343,359.298,195.343,376.729,177.912z M322.467,123.65  c12.538-12.538,32.866-12.538,45.403,0c12.538,12.538,12.538,32.865,0,45.403c-12.537,12.537-32.866,12.537-45.403,0  C309.928,156.515,309.928,136.188,322.467,123.65z"/>
<ellipse style="fill:#EBF0F3;" cx="345.184" cy="146.323" rx="32.103" ry="32.103"/>
<path style="fill:#64798A;" d="M100.41,302.356c15.628-33.732,40.999-72.628,73.926-112.411L8.656,249.123  c-11.758,4.2-11.464,20.93,0.434,24.714l90.643,28.83l-20.065,9.256l18.648,18.648l7.532,7.532l9.047,9.047l0.001,0l29.473,29.473  l9.047,9.047l7.532,7.532l18.649,18.649l9.256-20.065l28.83,90.643c3.784,11.898,20.514,12.192,24.715,0.434l59.178-165.681  c-39.783,32.927-78.679,58.299-112.411,73.927L100.41,302.356z"/>
<path style="fill:#FCD462;" d="M145.256,398.104c-14.316,14.316-71.521,19.681-71.521,19.681s5.365-57.206,19.68-71.521  c3.661-3.662,7.908-6.372,12.435-8.161l-7.532-7.532c-5.96,2.355-11.552,5.925-16.372,10.745  c-18.848,18.848-25.913,94.17-25.913,94.17s75.322-7.064,94.171-25.912c4.821-4.82,8.39-10.412,10.745-16.373l-7.532-7.532  C151.627,390.197,148.917,394.444,145.256,398.104z"/>
<path style="fill:#E56353;" d="M73.735,417.785c0,0,57.205-5.365,71.521-19.681c3.662-3.66,6.372-7.907,8.16-12.434l-9.047-9.047  c-1.108,2.804-2.788,5.436-5.057,7.704c-8.87,8.871-44.314,12.194-44.314,12.194s3.323-35.445,12.194-44.315  c2.268-2.269,4.899-3.948,7.704-5.057l-9.047-9.047c-4.527,1.789-8.773,4.499-12.435,8.161  C79.1,360.579,73.735,417.785,73.735,417.785z"/>
<path style="fill:#FCD462;" d="M94.998,396.522c0,0,35.445-3.324,44.314-12.194c2.269-2.268,3.948-4.9,5.057-7.704l-29.473-29.473  l-0.001,0c-2.805,1.109-5.436,2.788-7.704,5.057C98.322,361.077,94.998,396.522,94.998,396.522z"/>
<g>
</g>
<g>
</g>
<g>
</g>
<g>
</g>
<g>
</g>
<g>
</g>
<g>
</g>
<g>
</g>
<g>
</g>
<g>
</g>
<g>
</g>
<g>
</g>
<g>
</g>
<g>
</g>
<g>
</g>
</svg>
