<?xml version="1.0" encoding="iso-8859-1"?>
<!-- Generator: Adobe Illustrator 19.0.0, SVG Export Plug-In . SVG Version: 6.00 Build 0)  -->
<svg version="1.1" id="Layer_1" xmlns="http://www.w3.org/2000/svg" xmlns:xlink="http://www.w3.org/1999/xlink" x="0px" y="0px"
	 viewBox="0 0 508.1 508.1" style="enable-background:new 0 0 508.1 508.1;" xml:space="preserve">
<rect x="11.2" y="0.2" style="fill:#334A5E;" width="485.6" height="56.2"/>
<path style="fill:#F8B64C;" d="M0,432.7v54c0,11.7,9.5,21.2,21.2,21.2h465.7c11.7,0,21.2-9.5,21.2-21.2v-54H0z"/>
<rect y="56.4" style="fill:#FFD15C;" width="508" height="376.3"/>
<polygon style="fill:#40596B;" points="0,56.4 69,56.4 69,17.6 "/>
<polygon style="fill:#FFD15C;" points="69,17.6 11.2,0.2 11.2,50 "/>
<polygon style="fill:#40596B;" points="508,56.4 439,56.4 439,17.6 "/>
<polygon style="fill:#FFD15C;" points="439,17.6 496.8,0.2 496.8,50 "/>
<g>
	<circle style="fill:#40596B;" cx="154.3" cy="149.5" r="20.1"/>
	<circle style="fill:#40596B;" cx="353.7" cy="149.5" r="20.1"/>
</g>
<path style="fill:#F8B64C;" d="M376.7,251.2c-0.3,16.7-4.1,33.4-11.4,49.4c-20.3,43.9-62.9,71.2-111.3,71.2s-91-27.3-111.3-71.2
	c-7.4-16-11.1-32.7-11.4-49.4h-17c0.3,19.1,4.6,38.2,13,56.5c23.1,50,71.6,81,126.7,81s103.6-31.1,126.7-81
	c8.4-18.2,12.7-37.4,13-56.5L376.7,251.2L376.7,251.2z"/>
<path style="fill:#F2F2F2;" d="M254,377.5c-55.1,0-103.6-31.1-126.7-81s-15.2-107.1,20.5-149c3-3.6,8.4-4,11.9-1c3.6,3,4,8.4,1,11.9
	c-31.4,36.8-38.3,87-18,130.9s62.9,71.2,111.3,71.2s91-27.3,111.3-71.2s13.4-94.1-18-130.9c-3-3.6-2.6-8.9,1-11.9s8.9-2.6,11.9,1
	c35.7,41.9,43.6,99,20.5,149C357.6,346.4,309.1,377.5,254,377.5z"/>
<g>
</g>
<g>
</g>
<g>
</g>
<g>
</g>
<g>
</g>
<g>
</g>
<g>
</g>
<g>
</g>
<g>
</g>
<g>
</g>
<g>
</g>
<g>
</g>
<g>
</g>
<g>
</g>
<g>
</g>
</svg>
