<?xml version="1.0" encoding="iso-8859-1"?>
<!-- Generator: Adobe Illustrator 19.0.0, SVG Export Plug-In . SVG Version: 6.00 Build 0)  -->
<svg xmlns="http://www.w3.org/2000/svg" xmlns:xlink="http://www.w3.org/1999/xlink" version="1.1" id="Layer_1" x="0px" y="0px" viewBox="0 0 512 512" style="enable-background:new 0 0 512 512;" xml:space="preserve">
<path style="fill:#F3F3F3;" d="M442.667,325.333C442.667,428.8,359.467,512,256,512S69.333,428.8,69.333,325.333  c0-84.267,55.467-154.667,131.2-178.133V13.867H310.4V147.2C387.2,170.667,442.667,242.133,442.667,325.333z"/>
<rect x="201.6" y="27.733" style="fill:#E8EAE9;" width="109.867" height="18.133"/>
<path style="fill:#F3F3F3;" d="M310.4,27.733H201.6c-7.467,0-13.867-6.4-13.867-13.867S193.067,0,201.6,0h109.867  c7.467,0,13.867,6.4,13.867,13.867S318.933,27.733,310.4,27.733z"/>
<path style="fill:#FFD15C;" d="M145.067,474.667C176,498.133,214.4,512,256,512s80-13.867,110.933-37.333  c-26.667-30.933-66.133-51.2-110.933-51.2C211.2,423.467,171.733,443.733,145.067,474.667z"/>
<path style="fill:#66C6B9;" d="M267.733,356.267c71.467,0,119.467-56.533,108.8-126.933  C305.067,228.267,256,285.867,267.733,356.267z"/>
<polygon style="fill:#4EC0AA;" points="334.933,316.8 294.4,327.467 304,316.8 304,316.8 304,315.733 318.933,296.533   356.267,282.667 323.2,292.267 350.933,257.067 305.067,307.2 309.333,266.667 299.733,312.533 251.733,366.933 259.2,373.333   290.133,333.867 "/>
<path style="fill:#66C6B9;" d="M236.8,400c-64,2.133-108.8-46.933-101.333-109.867C199.467,286.933,244.267,336,236.8,400z"/>
<g>
	<polygon style="fill:#4EC0AA;" points="174.933,368 212.267,375.467 202.667,365.867 202.667,365.867 202.667,364.8 188.8,348.8    154.667,337.067 184.533,344.533 158.933,314.667 201.6,357.333 196.267,321.067 205.867,362.667 251.733,409.6 245.333,414.933    216.533,380.8  "/>
	<path style="fill:#4EC0AA;" d="M241.067,455.467h32c-3.2-134.4-42.667-214.4-42.667-214.4S257.067,327.467,241.067,455.467z"/>
</g>
<g>
</g>
<g>
</g>
<g>
</g>
<g>
</g>
<g>
</g>
<g>
</g>
<g>
</g>
<g>
</g>
<g>
</g>
<g>
</g>
<g>
</g>
<g>
</g>
<g>
</g>
<g>
</g>
<g>
</g>
</svg>
