<?xml version="1.0" encoding="iso-8859-1"?>
<!-- Generator: Adobe Illustrator 19.0.0, SVG Export Plug-In . SVG Version: 6.00 Build 0)  -->
<svg version="1.1" id="Layer_1" xmlns="http://www.w3.org/2000/svg" xmlns:xlink="http://www.w3.org/1999/xlink" x="0px" y="0px"
	 viewBox="0 0 508 508" style="enable-background:new 0 0 508 508;" xml:space="preserve">
<path style="fill:#4CDBC4;" d="M508,21.2C508,9.5,498.5,0,486.8,0H21.2C9.5,0,0,9.5,0,21.2v81h0.1C0.6,91,9.8,82.1,21.2,82.1h465.6
	c11.4,0,20.6,9,21.1,20.1h0.1L508,21.2z"/>
<path style="fill:#FFFFFF;" d="M474.1,82.1V61.7c-2.2,0-4.3-0.2-6.5-0.7c-12.5-2.9-21.8-14.1-21.8-27.3H62
	c0,13.2-9.3,24.4-21.7,27.3c-2,0.5-4.2,0.7-6.5,0.7v20.5h440.3V82.1z"/>
<path style="fill:#4CDBC4;" d="M249.9,49.5c-11.2,0-21.7,4.1-30.7,11.5h61.4C271.6,53.6,261.1,49.5,249.9,49.5z"/>
<g>
	<path style="fill:#3DC9AE;" d="M21.2,82.1h12.7V61.7c2.2,0,4.4-0.2,6.5-0.7H21.2C13.5,60.9,6.3,63,0,66.6v36.2
		C0.2,91.4,9.6,82.1,21.2,82.1z"/>
	<path style="fill:#3DC9AE;" d="M486.8,60.9h-19.2c2.1,0.5,4.2,0.7,6.5,0.7v20.5h12.7c10,0,18.4,7,20.6,16.3l0.6,0.3v-32
		C501.8,63,494.6,60.9,486.8,60.9z"/>
</g>
<g>
	<path style="fill:#F2F2F2;" d="M298.2,82.1h175.9V61.7c-2.2,0-4.3-0.2-6.5-0.7h-187C287.4,66.3,293.4,73.6,298.2,82.1z"/>
	<path style="fill:#F2F2F2;" d="M201.6,82.1c4.8-8.6,10.7-15.9,17.6-21.2H40.4c-2,0.5-4.2,0.7-6.5,0.7v20.5H201.6z"/>
</g>
<path style="fill:#3DC9AE;" d="M298.2,82.1c-4.9-8.6-10.8-15.9-17.7-21.2h-61.4c-6.9,5.4-12.8,12.7-17.6,21.2H298.2z"/>
<path style="fill:#4CDBC4;" d="M508,102.7c0-11.7-9.5-21.2-21.2-21.2H21.2C9.5,81.4,0,90.9,0,102.7v81h0.1
	c0.5-11.2,9.7-20.1,21.1-20.1h465.6c11.4,0,20.6,9,21.1,20.1h0.1L508,102.7z"/>
<path style="fill:#FFFFFF;" d="M474.1,163.6v-20.5c-2.2,0-4.3-0.2-6.5-0.7c-12.5-2.9-21.8-14.1-21.8-27.3H62
	c0,13.2-9.3,24.4-21.7,27.3c-2,0.5-4.2,0.7-6.5,0.7v20.5H474.1z"/>
<path style="fill:#4CDBC4;" d="M249.9,130.9c-11.2,0-21.7,4.1-30.7,11.5h61.4C271.6,135,261.1,130.9,249.9,130.9z"/>
<g>
	<path style="fill:#3DC9AE;" d="M21.2,163.6h12.7v-20.5c2.2,0,4.4-0.2,6.5-0.7H21.2c-7.7,0-14.9,2.1-21.2,5.7v36.2
		C0.2,172.8,9.6,163.6,21.2,163.6z"/>
	<path style="fill:#3DC9AE;" d="M486.8,142.3h-19.2c2.1,0.5,4.2,0.7,6.5,0.7v20.5h12.7c10,0,18.4,7,20.6,16.3l0.6,0.3v-32
		C501.8,144.5,494.6,142.3,486.8,142.3z"/>
</g>
<g>
	<path style="fill:#F2F2F2;" d="M298.2,163.6h175.9v-20.5c-2.2,0-4.3-0.2-6.5-0.7h-187C287.4,147.7,293.4,155,298.2,163.6z"/>
	<path style="fill:#F2F2F2;" d="M201.6,163.6c4.8-8.6,10.7-15.9,17.6-21.2H40.4c-2,0.5-4.2,0.7-6.5,0.7v20.5H201.6z"/>
</g>
<path style="fill:#3DC9AE;" d="M298.2,163.6c-4.9-8.6-10.8-15.9-17.7-21.2h-61.4c-6.9,5.4-12.8,12.7-17.6,21.2H298.2z"/>
<path style="fill:#4CDBC4;" d="M486.8,245H21.2C9.5,245,0,254.4,0,266v221c0,11.6,9.5,21,21.2,21h465.6c11.7,0,21.2-9.4,21.2-21V266
	C508,254.4,498.5,245,486.8,245z"/>
<path style="fill:#FFFFFF;" d="M33.9,446.4V306.5c15.6,0,28.2-12.5,28.2-28h383.8c0,15.5,12.6,28,28.2,28v139.9
	c-15.6,0-28.2,12.5-28.2,28H62.1C62.1,459,49.5,446.4,33.9,446.4z"/>
<g>
	<ellipse style="fill:#4CDBC4;" cx="136.3" cy="376.5" rx="18.9" ry="18.7"/>
	<ellipse style="fill:#4CDBC4;" cx="363.5" cy="376.5" rx="18.9" ry="18.7"/>
	<ellipse style="fill:#4CDBC4;" cx="249.9" cy="376.5" rx="60.6" ry="82.1"/>
</g>
<path style="fill:#FFFFFF;" d="M273.3,377.1c-3.4-4-9.7-7.2-19-9.7v-22.5c3.8,1.6,6.1,4.7,7,9.2l14.7-1.9c-1-5.8-3.4-10.4-7-13.8
	c-3.7-3.5-8.6-5.5-14.7-6.3v-5.7h-8.4v5.7c-6.7,0.7-12,3.1-16,7.4c-4.1,4.3-6,9.6-6,15.9s1.7,11.5,5.3,15.9
	c3.6,4.4,9.1,7.7,16.8,9.8v24.2c-2.1-1-4-2.6-5.7-4.9c-1.7-2.2-2.9-4.9-3.5-7.9l-15.2,1.6c1.1,7.6,3.8,13.4,8,17.6s9.7,6.7,16.4,7.4
	v7.6h8.4v-7.8c7.6-1.1,13.5-4,17.7-8.7c4.2-4.8,6.4-10.6,6.4-17.6C278.4,386.2,276.7,381.1,273.3,377.1z M245.9,364.6
	c-2.5-1.1-4.4-2.5-5.6-4.2c-1.2-1.8-1.9-3.6-1.9-5.7c0-2.2,0.7-4.3,2-6.1c1.4-1.8,3.2-3.2,5.5-3.9V364.6z M261.4,402
	c-1.8,2.1-4.2,3.5-7.1,4v-22.5c3.5,1,6,2.5,7.6,4.3c1.5,1.9,2.3,4.1,2.3,6.7C264.1,397.4,263.2,399.9,261.4,402z"/>
<path style="fill:#4CDBC4;" d="M508,184.1c0-11.7-9.5-21.2-21.2-21.2H21.2C9.5,162.9,0,172.4,0,184.1v81h0.1
	C0.5,254,9.8,245,21.2,245h465.6c11.4,0,20.6,9,21.1,20.1h0.1L508,184.1z"/>
<path style="fill:#FFFFFF;" d="M474.1,245v-20.5c-2.2,0-4.3-0.2-6.5-0.7c-12.5-2.9-21.8-14.1-21.8-27.3H62
	c0,13.2-9.3,24.4-21.7,27.3c-2,0.5-4.2,0.7-6.5,0.7V245H474.1z"/>
<path style="fill:#4CDBC4;" d="M249.9,212.3c-11.2,0-21.7,4.1-30.7,11.5h61.4C271.6,216.5,261.1,212.3,249.9,212.3z"/>
<g>
	<path style="fill:#3DC9AE;" d="M0,229.5v36.2C0.2,254.3,9.6,245,21.1,245h12.7v-20.5c2.2,0,4.4-0.2,6.5-0.7H21.2
		C13.5,223.8,6.3,225.9,0,229.5z"/>
	<path style="fill:#3DC9AE;" d="M486.8,223.8h-19.2c2.1,0.5,4.2,0.7,6.5,0.7V245h12.7c10,0,18.4,7,20.6,16.3l0.6,0.3v-32
		C501.8,225.9,494.6,223.8,486.8,223.8z"/>
</g>
<g>
	<path style="fill:#F2F2F2;" d="M298.2,245h175.9v-20.5c-2.2,0-4.3-0.2-6.5-0.7h-187C287.4,229.1,293.4,236.4,298.2,245z"/>
	<path style="fill:#F2F2F2;" d="M201.6,245c4.8-8.6,10.7-15.9,17.6-21.2H40.4c-2,0.5-4.2,0.7-6.5,0.7V245H201.6z"/>
</g>
<path style="fill:#3DC9AE;" d="M298.2,245c-4.9-8.6-10.8-15.9-17.7-21.2h-61.4c-6.9,5.4-12.8,12.7-17.6,21.2H298.2z"/>
<g>
</g>
<g>
</g>
<g>
</g>
<g>
</g>
<g>
</g>
<g>
</g>
<g>
</g>
<g>
</g>
<g>
</g>
<g>
</g>
<g>
</g>
<g>
</g>
<g>
</g>
<g>
</g>
<g>
</g>
</svg>
