<?xml version="1.0" encoding="iso-8859-1"?>
<!-- Generator: Adobe Illustrator 19.0.0, SVG Export Plug-In . SVG Version: 6.00 Build 0)  -->
<svg xmlns="http://www.w3.org/2000/svg" xmlns:xlink="http://www.w3.org/1999/xlink" version="1.1" id="Layer_1" x="0px" y="0px" viewBox="0 0 491.52 491.52" style="enable-background:new 0 0 491.52 491.52;" xml:space="preserve">
<path style="fill:#EBF0F3;" d="M193.976,0.007H12.975C5.81,0.007,0,5.816,0,12.982v329.215c0,7.166,5.81,12.975,12.975,12.975  h246.009c7.165,0,12.975-5.809,12.975-12.975V77.993L193.976,0.007z"/>
<g>
	<path style="fill:#D5D6DB;" d="M193.976,0.007v65.01c0,7.166,5.809,12.975,12.974,12.975h65.009L193.976,0.007z"/>
	<rect x="31.365" y="279.675" style="fill:#D5D6DB;" width="209.224" height="12.913"/>
	<rect x="31.365" y="245.417" style="fill:#D5D6DB;" width="209.224" height="12.918"/>
	<rect x="31.365" y="211.149" style="fill:#D5D6DB;" width="209.224" height="12.918"/>
	<rect x="31.365" y="176.906" style="fill:#D5D6DB;" width="209.224" height="12.918"/>
	<rect x="31.365" y="142.653" style="fill:#D5D6DB;" width="209.224" height="12.918"/>
	<rect x="31.365" y="108.39" style="fill:#D5D6DB;" width="209.224" height="12.918"/>
	<rect x="31.365" y="313.907" style="fill:#D5D6DB;" width="209.224" height="12.913"/>
</g>
<g>
	<path style="fill:#E56353;" d="M71.287,26.579v9.088H40.74V50.82h27.432v8.595H40.74v15.318h31.531v9.087H31.078V26.579H71.287z"/>
	<path style="fill:#E56353;" d="M127.551,26.579h9.661V83.82h-10.48L94.299,42.054V83.82h-9.661V26.579h9.661l33.253,42.743V26.579z   "/>
</g>
<path style="fill:#FCD462;" d="M271.496,136.348h-181c-7.165,0-12.975,5.809-12.975,12.975v329.215  c0,7.165,5.81,12.975,12.975,12.975h246.009c7.165,0,12.975-5.81,12.975-12.975V214.333L271.496,136.348z"/>
<path style="fill:#D5D6DB;" d="M271.496,136.348v65.01c0,7.165,5.81,12.975,12.975,12.975h65.009L271.496,136.348z"/>
<g>
	<rect x="108.887" y="416" style="fill:#F6C358;" width="209.224" height="12.918"/>
	<rect x="108.887" y="381.747" style="fill:#F6C358;" width="209.224" height="12.918"/>
	<rect x="108.887" y="347.505" style="fill:#F6C358;" width="209.224" height="12.918"/>
	<rect x="108.887" y="313.242" style="fill:#F6C358;" width="209.224" height="12.918"/>
	<rect x="108.887" y="278.989" style="fill:#F6C358;" width="209.224" height="12.918"/>
	<rect x="108.887" y="244.736" style="fill:#F6C358;" width="209.224" height="12.913"/>
	<rect x="108.887" y="450.253" style="fill:#F6C358;" width="209.224" height="12.918"/>
</g>
<g>
	<path style="fill:#E56353;" d="M148.808,162.919v9.087h-30.548v15.154h27.432v8.595h-27.432v15.318h31.531v9.088h-41.192v-57.242   H148.808z"/>
	<path style="fill:#E56353;" d="M179.475,170.448c-2.812,0-5.114,0.574-6.918,1.722c-1.803,1.147-2.705,2.881-2.705,5.202   c0,2.321,0.902,4.093,2.705,5.323c1.803,1.23,5.638,2.554,11.509,3.972c5.865,1.419,10.286,3.412,13.262,5.979   c2.977,2.567,4.465,6.344,4.465,11.339c0,4.994-1.886,9.049-5.65,12.165c-3.765,3.109-8.709,4.666-14.826,4.666   c-8.948,0-16.895-3.083-23.832-9.257l6.061-7.284c5.788,5.02,11.792,7.53,18.016,7.53c3.115,0,5.587-0.668,7.416-2.005   c1.829-1.337,2.744-3.109,2.744-5.323c0-2.214-0.864-3.929-2.579-5.158c-1.722-1.23-4.686-2.346-8.886-3.355   c-4.206-1.015-7.403-1.943-9.586-2.787c-2.181-0.845-4.124-1.949-5.814-3.317c-3.386-2.567-5.076-6.495-5.076-11.793   c0-5.297,1.923-9.377,5.777-12.24c3.846-2.87,8.608-4.301,14.29-4.301c3.657,0,7.29,0.6,10.89,1.797   c3.601,1.205,6.716,2.895,9.334,5.083l-5.158,7.283c-1.691-1.526-3.986-2.781-6.88-3.765   C185.138,170.941,182.287,170.448,179.475,170.448z"/>
</g>
<path style="fill:#EBF0F3;" d="M413.536,67.837H232.535c-7.165,0-12.975,5.809-12.975,12.975v329.215  c0,7.166,5.81,12.975,12.975,12.975h246.009c7.165,0,12.975-5.809,12.975-12.975V145.822L413.536,67.837z"/>
<g>
	<path style="fill:#D5D6DB;" d="M413.536,67.837v65.01c0,7.166,5.809,12.975,12.974,12.975h65.009L413.536,67.837z"/>
	<rect x="250.931" y="347.505" style="fill:#D5D6DB;" width="209.224" height="12.918"/>
	<rect x="250.931" y="313.242" style="fill:#D5D6DB;" width="209.224" height="12.918"/>
	<rect x="250.931" y="278.989" style="fill:#D5D6DB;" width="209.224" height="12.918"/>
	<rect x="250.931" y="244.736" style="fill:#D5D6DB;" width="209.224" height="12.913"/>
	<rect x="250.931" y="210.483" style="fill:#D5D6DB;" width="209.224" height="12.913"/>
	<rect x="250.931" y="176.225" style="fill:#D5D6DB;" width="209.224" height="12.913"/>
	<rect x="250.931" y="381.747" style="fill:#D5D6DB;" width="209.224" height="12.918"/>
</g>
<g>
	<path style="fill:#E56353;" d="M293.957,101.9c5.518,4.995,8.274,11.944,8.274,20.842c0,8.897-2.674,15.942-8.028,21.126   c-5.348,5.19-13.54,7.782-24.563,7.782h-19.001V94.408h19.65C280.555,94.408,288.444,96.905,293.957,101.9z M292.487,122.988   c0-13.105-7.51-19.656-22.525-19.656H260.3v39.23h10.727c6.937,0,12.247-1.652,15.93-4.956   C290.646,134.301,292.487,129.427,292.487,122.988z"/>
	<path style="fill:#E56353;" d="M354.886,94.408v9.087H324.34v15.154h27.432v8.595H324.34v15.318h31.531v9.088h-41.192V94.408   H354.886z"/>
</g>
<g>
</g>
<g>
</g>
<g>
</g>
<g>
</g>
<g>
</g>
<g>
</g>
<g>
</g>
<g>
</g>
<g>
</g>
<g>
</g>
<g>
</g>
<g>
</g>
<g>
</g>
<g>
</g>
<g>
</g>
</svg>
