<svg id="color" enable-background="new 0 0 24 24" height="512" viewBox="0 0 24 24" width="512" xmlns="http://www.w3.org/2000/svg"><path d="m21.25 17h-6.5c-.965 0-1.75-.785-1.75-1.75v-7.5c0-.965.785-1.75 1.75-1.75h6.5c.965 0 1.75.785 1.75 1.75v7.5c0 .965-.785 1.75-1.75 1.75z" fill="#03a9f4"/><path d="m18 6h-3.25c-.965 0-1.75.785-1.75 1.75v7.5c0 .965.785 1.75 1.75 1.75h3.25z" fill="#0393d4"/><path d="m19.25 14h-2.5c-.414 0-.75-.336-.75-.75s.336-.75.75-.75h2.5c.414 0 .75.336.75.75s-.336.75-.75.75z" fill="#fff"/><path d="m19.25 11h-2.5c-.414 0-.75-.336-.75-.75s.336-.75.75-.75h2.5c.414 0 .75.336.75.75s-.336.75-.75.75z" fill="#fff"/><path d="m19.5 7.5c-.414 0-.75-.336-.75-.75v-1.5c0-.414.336-.75.75-.75s.75.336.75.75v1.5c0 .414-.336.75-.75.75z" fill="#0288d1"/><path d="m16.5 7.5c-.414 0-.75-.336-.75-.75v-1.5c0-.414.336-.75.75-.75s.75.336.75.75v1.5c0 .414-.336.75-.75.75z" fill="#0288d1"/><path d="m16.5 4.5c-.414 0-.75.336-.75.75v1.5c0 .414.336.75.75.75z" fill="#0276b6"/><path d="m19.5 4.5c-.414 0-.75.336-.75.75v1.5c0 .414.336.75.75.75z" fill="#0276b6"/><path d="m20 10.25h-4c0 .414.336.75.75.75h2.5c.414 0 .75-.336.75-.75z" fill="#dedede"/><path d="m20 13.25h-4c0 .414.336.75.75.75h2.5c.414 0 .75-.336.75-.75z" fill="#dedede"/><path d="m17 19v2c0 1.65-1.35 3-3 3h-10c-1.65 0-3-1.35-3-3v-18c0-1.65 1.35-3 3-3h10c1.49 0 2.74 1.1 2.96 2.54-.15-.03-.3-.04-.46-.04-.55 0-1.07.17-1.5.46-.02-.53-.46-.96-1-.96h-.5c-.55 0-1 .45-1 1s-.45 1-1 1h-5c-.55 0-1-.45-1-1s-.45-1-1-1h-.5c-.55 0-1 .45-1 1v18c0 .55.45 1 1 1h10c.55 0 1-.45 1-1v-2z" fill="#607d8b"/><path d="m14.75 19h.25v2c0 .55-.45 1-1 1h-10c-.55 0-1-.45-1-1v-18c0-.55.45-1 1-1h.5c.55 0 1 .45 1 1s.45 1 1 1h5c.55 0 1-.45 1-1s.45-1 1-1h.5c.54 0 .98.43 1 .96-.42.271-.76.66-.98 1.11-1.72.34-3.02 1.86-3.02 3.68v7.5c0 2.07 1.68 3.75 3.75 3.75z" fill="#fafafa"/><path d="m9 0h-5c-1.65 0-3 1.35-3 3v18c0 1.65 1.35 3 3 3h5v-2h-5c-.55 0-1-.45-1-1v-18c0-.55.45-1 1-1h.5c.55 0 1 .45 1 1s.45 1 1 1h2.5z" fill="#546d79"/><path d="m4.5 2h-.5c-.55 0-1 .45-1 1v18c0 .55.45 1 1 1h5v-18h-2.5c-.55 0-1-.45-1-1s-.45-1-1-1z" fill="#dadada"/></svg>