<svg height="512" viewBox="0 0 49 59" width="512" xmlns="http://www.w3.org/2000/svg"><g id="Page-1" fill="none" fill-rule="evenodd"><g id="088---Manual"><path id="Path" d="m48 46v11c0 .5522847-.4477153 1-1 1h-5v-12z" fill="#802f34"/><path id="Path" d="m44 46v12h-38c-3.31165334-.0049563-5.99504366-2.6883467-6-6 0-.17.01-.34.02-.5.2641564-3.1073187 2.86147582-5.4961576 5.98-5.5z" fill="#f5efca"/><path id="Path" d="m49 1v45h-42v-46h41c.5522847 0 1 .44771525 1 1z" fill="#e64c3c"/><g fill="#b19046"><path id="Path" d="m44 49v2h-7c-.5522847 0-1-.4477153-1-1s.4477153-1 1-1z"/><path id="Path" d="m33 51h-28c-.55228475 0-1-.4477153-1-1s.44771525-1 1-1h28c.5522847 0 1 .4477153 1 1s-.4477153 1-1 1z"/><path id="Path" d="m12 55h-7c-.55228475 0-1-.4477153-1-1s.44771525-1 1-1h7c.5522847 0 1 .4477153 1 1s-.4477153 1-1 1z"/><path id="Path" d="m44 53v2h-28c-.5522847 0-1-.4477153-1-1s.4477153-1 1-1z"/></g><path id="Path" d="m0 52c.00440864 3.8641657 3.13583434 6.9955914 7 7h41c.5522847 0 1-.4477153 1-1s-.4477153-1-1-1h-41c-2.76142375 0-5-2.2385763-5-5s2.23857625-5 5-5h41c.5522847 0 1-.4477153 1-1s-.4477153-1-1-1h-41v-45h-1c-3.3137085 0-6 2.6862915-6 6z" fill="#c03a2b"/><path id="Shape" d="m33.61 4.97c-.3030185-.23328494-.7125486-.27332815-1.0550163-.10315783-.3424678.17017031-.5578981.5207528-.5549837.90315783v6.61c.0026457.3801569-.2104962.7289345-.55.9l-3 1.5c-.2836743.1399671-.6163257.1399671-.9 0l-3-1.5c-.3395038-.1710655-.5526457-.5198431-.55-.9v-6.61c.0029144-.38240503-.2125159-.73298752-.5549837-.90315783-.3424677-.17017032-.7519978-.13012711-1.0550163.10315783-2.4059642 1.91598437-3.6656017 4.92887043-3.3393021 7.9871687.3262995 3.0582984 2.1932544 5.7375984 4.9493021 7.1028313v16.94c0 2.209139 1.790861 4 4 4s4-1.790861 4-4v-16.94c2.7560477-1.3652329 4.6230026-4.0445329 4.9493021-7.1028313.3262996-3.05829827-.9333379-6.07118433-3.3393021-7.9871687zm-4.61 32.03c0 .5522847-.4477153 1-1 1s-1-.4477153-1-1v-2c0-.5522847.4477153-1 1-1s1 .4477153 1 1z" fill="#bdc3c7" fill-rule="nonzero"/></g></g></svg>