<?xml version="1.0" encoding="iso-8859-1"?>
<!-- Generator: Adobe Illustrator 19.0.0, SVG Export Plug-In . SVG Version: 6.00 Build 0)  -->
<svg xmlns="http://www.w3.org/2000/svg" xmlns:xlink="http://www.w3.org/1999/xlink" version="1.1" id="Layer_1" x="0px" y="0px" viewBox="0 0 512 512" style="enable-background:new 0 0 512 512;" xml:space="preserve">
<g>
	<path style="fill:#66C6B9;" d="M230.4,89.578c43.733,62.933,19.2,124.8-30.933,141.867C118.4,258.111,67.2,140.778,65.067,126.911   c-5.333-2.133,9.6,4.267,11.733,5.333C38.4,67.178,48,33.044,0,9.578c36.267-16,108.8-18.133,181.333,43.733   c-1.067-3.2-2.133-7.467-3.2-9.6C197.333,53.311,216.533,69.311,230.4,89.578z"/>
	<path style="fill:#66C6B9;" d="M328.533,194.111c-41.6,40.533-30.933,90.667,4.267,109.867   c56.533,30.933,110.933-49.067,114.133-60.8c4.267-1.067-7.467,2.133-9.6,2.133c37.333-42.667,35.2-69.333,74.667-80   c-24.533-17.067-81.067-32-141.867,8.533c1.067-2.133,2.133-5.333,4.267-7.467C358.4,171.711,342.4,180.244,328.533,194.111z"/>
</g>
<path style="fill:#415A6B;" d="M420.267,193.044c-53.333,32-126.933,116.267-158.933,153.6C212.267,119.444,83.2,40.511,83.2,40.511  S256,174.911,240,473.578h37.333c-2.133-37.333-6.4-72.533-11.733-104.533C308.267,303.978,420.267,193.044,420.267,193.044z"/>
<path style="fill:#FFD15C;" d="M396.8,511.978c-29.867-46.933-82.133-77.867-140.8-77.867c-59.733,0-110.933,30.933-140.8,77.867  H396.8z"/>
<g>
</g>
<g>
</g>
<g>
</g>
<g>
</g>
<g>
</g>
<g>
</g>
<g>
</g>
<g>
</g>
<g>
</g>
<g>
</g>
<g>
</g>
<g>
</g>
<g>
</g>
<g>
</g>
<g>
</g>
</svg>
