<?xml version="1.0" encoding="iso-8859-1"?>
<!-- Generator: Adobe Illustrator 19.0.0, SVG Export Plug-In . SVG Version: 6.00 Build 0)  -->
<svg xmlns="http://www.w3.org/2000/svg" xmlns:xlink="http://www.w3.org/1999/xlink" version="1.1" id="Layer_1" x="0px" y="0px" viewBox="0 0 513.067 513.067" style="enable-background:new 0 0 513.067 513.067;" xml:space="preserve">
<path style="fill:#E8EAE9;" d="M88.533,421.68C39.467,421.68,0,382.213,0,333.147c0-38.4,24.533-71.467,58.667-83.2  C43.733,193.413,70.4,132.613,124.8,104.88c59.733-29.867,133.333-8.533,167.467,48c23.467-11.733,51.2-13.867,77.867-4.267  c40.533,14.933,65.067,54.4,64,96c43.733,5.333,78.933,42.667,78.933,87.467c0,49.067-39.467,88.533-88.533,88.533h-336V421.68z"/>
<g>
	<path style="fill:#415A6B;" d="M176,318.213c11.733,0,21.333-4.267,27.733-13.867l14.933,14.933   c-11.733,13.867-25.6,20.267-41.6,20.267s-29.867-5.333-39.467-14.933c-10.667-10.667-16-23.467-16-38.4c0-16,5.333-28.8,16-38.4   c10.667-10.667,23.467-16,39.467-16c17.067,0,32,6.4,42.667,19.2l-14.933,16c-7.467-9.6-17.067-13.867-27.733-13.867   c-8.533,0-16,3.2-22.4,8.533s-9.6,13.867-9.6,23.467s3.2,17.067,8.533,23.467C161.067,316.08,167.467,318.213,176,318.213z"/>
	<path style="fill:#415A6B;" d="M323.2,324.613c-10.667,10.667-23.467,16-39.467,16s-27.733-5.333-38.4-16   c-10.667-10.667-16-23.467-16-38.4c0-14.933,5.333-27.733,16-38.4c10.667-10.667,23.467-16,39.467-16s28.8,5.333,39.467,16   s16,23.467,16,38.4C340.267,301.147,333.867,313.947,323.2,324.613z M315.733,286.213c0-9.6-3.2-17.067-8.533-23.467   c-6.4-6.4-13.867-9.6-22.4-9.6c-8.533,0-16,3.2-22.4,9.6c-6.4,6.4-8.533,14.933-8.533,23.467c0,9.6,3.2,17.067,8.533,23.467   c6.4,6.4,12.8,9.6,22.4,9.6c8.533,0,16-3.2,22.4-9.6C312.533,303.28,315.733,295.813,315.733,286.213z"/>
	<path style="fill:#415A6B;" d="M375.467,307.547c1.067-2.133,2.133-3.2,2.133-5.333c0-2.133-1.067-3.2-2.133-4.267   c-1.067-1.067-2.133-2.133-4.267-2.133c-3.2,0-6.4,2.133-9.6,7.467l-9.6-5.333c2.133-4.267,5.333-6.4,7.467-8.533   c2.133-2.133,6.4-3.2,10.667-3.2c4.267,0,8.533,1.067,11.733,4.267c3.2,3.2,5.333,6.4,5.333,11.733   c0,2.133-1.067,5.333-2.133,7.467c-1.067,2.133-4.267,5.333-7.467,9.6l-9.6,9.6h20.267v10.667H352v-8.533l14.933-16   C372.267,311.813,374.4,309.68,375.467,307.547z"/>
</g>
<g>
</g>
<g>
</g>
<g>
</g>
<g>
</g>
<g>
</g>
<g>
</g>
<g>
</g>
<g>
</g>
<g>
</g>
<g>
</g>
<g>
</g>
<g>
</g>
<g>
</g>
<g>
</g>
<g>
</g>
</svg>
