<?xml version="1.0" encoding="iso-8859-1"?>
<!-- Generator: Adobe Illustrator 19.0.0, SVG Export Plug-In . SVG Version: 6.00 Build 0)  -->
<svg version="1.1" id="Capa_1" xmlns="http://www.w3.org/2000/svg" xmlns:xlink="http://www.w3.org/1999/xlink" x="0px" y="0px"
	 viewBox="0 0 468.293 468.293" style="enable-background:new 0 0 468.293 468.293;" xml:space="preserve">
<path style="fill:#E56353;" d="M441.462,202.929H26.831v-39.934c0-20.69,16.773-37.463,37.463-37.463h339.704
	c20.69,0,37.463,16.773,37.463,37.463V202.929z"/>
<path style="fill:#D15241;" d="M389.502,468.293H78.79c-13.794,0-24.976-11.182-24.976-24.976V202.929h360.663v240.388
	C414.478,457.111,403.296,468.293,389.502,468.293z"/>
<g>
	<path style="fill:#F6C358;" d="M283.093,0c-19.785,0-37.433,9.224-48.946,23.572C222.634,9.224,204.986,0,185.201,0
		c-34.612,0-62.767,28.158-62.767,62.767s28.155,62.764,62.767,62.764h17.158v342.761h63.577V125.531h17.158
		c34.612,0,62.767-28.155,62.767-62.764S317.704,0,283.093,0z M150.076,62.767c0-19.368,15.759-35.125,35.125-35.125
		s35.125,15.757,35.125,35.125v35.122h-35.125C165.835,97.889,150.076,82.133,150.076,62.767z M283.093,97.889h-35.125V62.767
		c0-19.368,15.759-35.125,35.125-35.125c19.366,0,35.125,15.757,35.125,35.125C318.217,82.133,302.458,97.889,283.093,97.889z"/>
	<path style="fill:#F6C358;" d="M414.478,292.818H53.815v63.577h360.663"/>
</g>
<g>
</g>
<g>
</g>
<g>
</g>
<g>
</g>
<g>
</g>
<g>
</g>
<g>
</g>
<g>
</g>
<g>
</g>
<g>
</g>
<g>
</g>
<g>
</g>
<g>
</g>
<g>
</g>
<g>
</g>
</svg>
