<?xml version="1.0" encoding="iso-8859-1"?>
<!-- Generator: Adobe Illustrator 19.0.0, SVG Export Plug-In . SVG Version: 6.00 Build 0)  -->
<svg version="1.1" id="Layer_1" xmlns="http://www.w3.org/2000/svg" xmlns:xlink="http://www.w3.org/1999/xlink" x="0px" y="0px"
	 viewBox="0 0 508.1 508.1" style="enable-background:new 0 0 508.1 508.1;" xml:space="preserve">
<path style="fill:#40596B;" d="M412.85,0H95.25c-11.7,0-21.2,9.5-21.2,21.2v465.7c0,11.7,9.5,21.2,21.2,21.2h317.6
	c11.7,0,21.2-9.5,21.2-21.2V21.2C433.95,9.5,424.55,0,412.85,0z"/>
<rect x="119.25" y="45.2" style="fill:#FFFFFF;" width="269.6" height="372.5"/>
<g>
	<path style="fill:#ACB3BA;" d="M290.95,17.5h-73.8c-2.8,0-5.1,2.3-5.1,5.1s2.3,5.1,5.1,5.1h73.8c2.8,0,5.1-2.3,5.1-5.1
		S293.75,17.5,290.95,17.5z"/>
	<path style="fill:#ACB3BA;" d="M254.05,439.1c-13.1,0-23.8,10.6-23.8,23.8l0,0c0,13.1,10.6,23.8,23.8,23.8
		c13.1,0,23.8-10.6,23.8-23.8l0,0C277.85,449.7,267.15,439.1,254.05,439.1z"/>
</g>
<rect x="150.65" y="255.4" style="fill:#FFD15C;" width="50" height="122.9"/>
<rect x="229.05" y="199" style="fill:#84DBFF;" width="50" height="179.4"/>
<rect x="307.45" y="142.5" style="fill:#FF7058;" width="50" height="235.8"/>
<g>
</g>
<g>
</g>
<g>
</g>
<g>
</g>
<g>
</g>
<g>
</g>
<g>
</g>
<g>
</g>
<g>
</g>
<g>
</g>
<g>
</g>
<g>
</g>
<g>
</g>
<g>
</g>
<g>
</g>
</svg>
