<?xml version="1.0" encoding="iso-8859-1"?>
<!-- Generator: Adobe Illustrator 19.0.0, SVG Export Plug-In . SVG Version: 6.00 Build 0)  -->
<svg version="1.1" id="Capa_1" xmlns="http://www.w3.org/2000/svg" xmlns:xlink="http://www.w3.org/1999/xlink" x="0px" y="0px"
	 viewBox="0 0 512 512" style="enable-background:new 0 0 512 512;" xml:space="preserve">
<path style="fill:#E8EAE9;" d="M42.667,42.667V406.4l105.6,105.6h278.4c23.467,0,42.667-19.2,42.667-42.667V42.667
	C469.333,19.2,450.133,0,426.667,0H85.333C61.867,0,42.667,19.2,42.667,42.667z"/>
<g>
	<rect x="96" y="286.933" style="fill:#CED6E0;" width="321.067" height="28.8"/>
	<rect x="96" y="356.267" style="fill:#CED6E0;" width="321.067" height="28.8"/>
	<rect x="201.6" y="424.533" style="fill:#CED6E0;" width="215.467" height="28.8"/>
	<polygon style="fill:#CED6E0;" points="42.667,406.4 148.267,512 148.267,406.4 	"/>
</g>
<rect x="183.467" y="124.8" style="fill:#FFD15C;" width="145.067" height="109.867"/>
<polygon style="fill:#F3705A;" points="366.933,134.4 256,41.6 145.067,134.4 "/>
<path style="fill:#415A6B;" d="M280.533,234.667h-48v-30.933c0-13.867,10.667-24.533,24.533-24.533l0,0
	c13.867,0,24.533,10.667,24.533,24.533v30.933H280.533z"/>
<g>
</g>
<g>
</g>
<g>
</g>
<g>
</g>
<g>
</g>
<g>
</g>
<g>
</g>
<g>
</g>
<g>
</g>
<g>
</g>
<g>
</g>
<g>
</g>
<g>
</g>
<g>
</g>
<g>
</g>
</svg>
