<svg height="512" viewBox="0 0 58 58" width="512" xmlns="http://www.w3.org/2000/svg"><g id="Page-1" fill="none" fill-rule="evenodd"><g id="090---Desktop"><path id="Path" d="m58 4v39h-58v-39c0-2.209139 1.790861-4 4-4h50c2.209139 0 4 1.790861 4 4z" fill="#2fa8cc"/><path id="Rectangle" d="m22 46h14v9h-14z" fill="#3f5c6c"/><path id="Path" d="m58 40v4c0 2.209139-1.790861 4-4 4h-50c-2.209139 0-4-1.790861-4-4v-4z" fill="#547580"/><path id="Path" d="m54.91.11c-12 .67-54.91 5.49-54.91 39.89v-36c0-2.209139 1.790861-4 4-4h50c.3065975.00085229.6120302.03777272.91.11z" fill="#67b9cc"/><path id="Path" d="m15.244 10.726.913-1.383c.142607-.21563741.3844783-.3446605.643-.343h2.4c.2567511.00002551.4963674.12884747.638.343l.913 1.383 3.267 1.353 1.624-.332c.2514485-.0513095.5118473.0272235.693.209l1.7 1.7c.1817765.1811527.2603095.4415515.209.693l-.332 1.624 1.353 3.267 1.383.913c.2202679.1412695.3530461.3853248.352.647v2.41c-.0000255.2567511-.1288475.4963674-.343.638l-1.383.913-1.353 3.267.332 1.624c.0513095.2514485-.0272235.5118473-.209.693l-1.7 1.7c-.1811527.1817765-.4415515.2603095-.693.209l-1.624-.332-3.267 1.353-.913 1.383c-.1436142.2164543-.3872559.3452418-.647.342h-2.4c-.2567511-.0000255-.4963674-.1288475-.638-.343l-.913-1.383-3.267-1.353-1.624.332c-.2514485.0513095-.51184732-.0272235-.693-.209l-1.7-1.7c-.18177652-.1811527-.26030951-.4415515-.209-.693l.332-1.624-1.362-3.271-1.383-.913c-.21415253-.1416326-.34297449-.3812489-.343-.638v-2.405c.00002551-.2567511.12884747-.4963674.343-.638l1.383-.913 1.353-3.267-.332-1.624c-.05130951-.2514485.02722348-.5118473.209-.693l1.7-1.7c.18115268-.1817765.4415515-.2603095.693-.209l1.624.332z" fill="#bdc3c7"/><path id="Path" d="m40.88 6.328.7-1.064c.1094159-.1653779.2947039-.26459904.493-.264h1.854c.1975875.00007344.3819747.09921442.491.264l.7 1.064 2.513 1.041 1.249-.256c.193731-.03916634.3942041.02127594.534.161l1.31 1.31c.1397241.13979586.2001663.34026902.161.534l-.256 1.249 1.041 2.513 1.064.7c.1647856.1090253.2639266.2934125.264.491v1.854c-.0000734.1975875-.0992144.3819747-.264.491l-1.064.7-1.041 2.513.256 1.249c.0391663.193731-.0212759.3942041-.161.534l-1.31 1.31c-.1397959.1397241-.340269.2001663-.534.161l-1.249-.256-2.511 1.045-.7 1.064c-.1090253.1647856-.2934125.2639266-.491.264h-1.856c-.1975875-.0000734-.3819747-.0992144-.491-.264l-.7-1.064-2.513-1.041-1.249.256c-.193731.0391663-.3942041-.0212759-.534-.161l-1.31-1.31c-.1397241-.1397959-.2001663-.340269-.161-.534l.256-1.249-1.043-2.513-1.064-.7c-.1653779-.1094159-.264599-.2947039-.264-.493v-1.854c.0000734-.1975875.0992144-.3819747.264-.491l1.064-.7 1.041-2.513-.256-1.249c-.0391663-.19373098.0212759-.39420414.161-.534l1.31-1.31c.1397959-.13972406.340269-.20016634.534-.161l1.249.256z" fill="#bdc3c7"/><circle id="Oval" cx="18" cy="22" fill="#7f8c8d" r="7"/><circle id="Oval" cx="43" cy="15" fill="#7f8c8d" r="5"/><path id="Path" d="m44 56v1c0 .5522847-.4477153 1-1 1h-28c-.5522847 0-1-.4477153-1-1v-1c0-1.6568542 1.3431458-3 3-3h24c1.6568542 0 3 1.3431458 3 3z" fill="#547580"/><path id="Path" d="m32 45h-6c-.5522847 0-1-.4477153-1-1s.4477153-1 1-1h6c.5522847 0 1 .4477153 1 1s-.4477153 1-1 1z" fill="#bdc3c7"/></g></g></svg>