<?xml version="1.0" encoding="iso-8859-1"?>
<!-- Generator: Adobe Illustrator 19.0.0, SVG Export Plug-In . SVG Version: 6.00 Build 0)  -->
<svg version="1.1" id="Capa_1" xmlns="http://www.w3.org/2000/svg" xmlns:xlink="http://www.w3.org/1999/xlink" x="0px" y="0px"
	 viewBox="0 0 509.556 509.556" style="enable-background:new 0 0 509.556 509.556;" xml:space="preserve">
<polygon style="fill:#6F7070;" points="429.104,218.84 509.152,138.808 494.96,85.992 447.008,133.944 390.496,118.856 
	375.408,62.344 423.36,14.392 370.544,0.2 290.512,80.248 304.736,133.336 133.152,304.92 80.048,290.712 0,370.744 14.192,423.56 
	62.144,375.608 118.656,390.696 133.744,447.208 85.808,495.16 138.608,509.352 218.656,429.304 204.528,376.584 376.384,204.728 
	"/>
<path style="fill:#787878;" d="M305.52,157.032c7.808,6.848,7.792,19.008,0.144,26.656l-26.32,26.32
	c-6.192,6.192-6.304,15.744-0.224,21.056l0.864,0.864c6.368,5.776,16.704,5.088,23.088-1.296l51.088-51.088
	c7.056-7.056,18.464-8.624,25.504-2.752c7.328,6.16,7.216,17.472-0.144,24.816l-157.6,157.6c-7.36,7.36-18.656,7.472-24.816,0.144
	c-5.872-7.04-4.304-18.432,2.752-25.504l2.704-2.704c6.384-6.384,7.088-16.72,1.296-23.088l-0.864-0.864
	c-5.296-6.08-14.864-5.968-21.056,0.224l-26.32,26.32c-7.648,7.648-19.808,7.664-26.656-0.144
	c-6.448-7.424-5.088-19.408,2.272-26.752l147.536-147.536C286.128,151.944,298.096,150.568,305.52,157.032z"/>
<path style="fill:#FFCC5B;" d="M238.16,328.504L400.256,490.6c25.008,25.008,65.536,25.008,90.544,0s25.008-65.536,0-90.544
	l-162.112-162.08L238.16,328.504z"/>
<polygon style="fill:#E5E5E5;" points="29.344,0.2 0.384,29.16 41.984,86.936 64.48,93.256 268.912,297.672 297.856,268.728 
	93.44,64.296 87.12,41.8 "/>
<path style="fill:#FDBC4B;" d="M345.936,242.344L242.528,345.752c-5.968,5.968-15.648,5.968-21.616,0l0,0
	c-5.968-5.968-5.968-15.648,0-21.616L324.32,220.728c5.968-5.968,15.648-5.968,21.616,0l0,0
	C351.904,226.696,351.904,236.376,345.936,242.344z"/>
<g>
	<path style="fill:#FFDB70;" d="M349.68,369.656l82.8,82.8c6.768,6.768,17.744,6.768,24.512,0s6.768-17.744,0-24.512l-82.8-82.8
		c-6.768-6.768-17.744-6.768-24.512,0C342.912,351.928,342.912,362.888,349.68,369.656z"/>
	<path style="fill:#FFDB70;" d="M317.36,337.336l1.536,1.536c6.768,6.768,17.744,6.768,24.512,0s6.768-17.744,0-24.512l-1.536-1.536
		c-6.768-6.768-17.744-6.768-24.512,0S310.592,330.568,317.36,337.336z"/>
</g>
<g>
</g>
<g>
</g>
<g>
</g>
<g>
</g>
<g>
</g>
<g>
</g>
<g>
</g>
<g>
</g>
<g>
</g>
<g>
</g>
<g>
</g>
<g>
</g>
<g>
</g>
<g>
</g>
<g>
</g>
</svg>
