<?xml version="1.0" encoding="iso-8859-1"?>
<!-- Generator: Adobe Illustrator 19.0.0, SVG Export Plug-In . SVG Version: 6.00 Build 0)  -->
<svg version="1.1" id="Capa_1" xmlns="http://www.w3.org/2000/svg" xmlns:xlink="http://www.w3.org/1999/xlink" x="0px" y="0px"
	 viewBox="0 0 468.293 468.293" style="enable-background:new 0 0 468.293 468.293;" xml:space="preserve">
<path style="fill:#2D93BA;" d="M344.039,321.561l-33.717,33.717c-2.498,2.498-6.244,2.498-8.741,0l-13.737-13.737l42.459-42.459
	l13.737,13.737C346.537,314.693,346.537,319.063,344.039,321.561z"/>
<path style="fill:#27A2DB;" d="M118.634,244.137c-48.702,0-88.039-39.337-88.039-88.039s39.337-88.039,88.039-88.039
	s88.039,39.337,88.039,88.039S167.337,244.137,118.634,244.137z M118.634,88.039c-37.463,0-68.059,30.595-68.059,68.059
	s30.595,68.059,68.059,68.059s68.059-30.595,68.059-68.059S156.098,88.039,118.634,88.039z"/>
<path style="fill:#44C4A1;" d="M118.634,400.234c-48.702,0-88.039-39.337-88.039-88.039s39.337-88.039,88.039-88.039
	s88.039,39.337,88.039,88.039S167.337,400.234,118.634,400.234z M118.634,244.137c-37.463,0-68.059,30.595-68.059,68.059
	s30.595,68.059,68.059,68.059s68.059-30.595,68.059-68.059S156.098,244.137,118.634,244.137z"/>
<g>
	<rect x="81.171" y="131.122" style="fill:#E1E6E9;" width="75.551" height="12.488"/>
	<rect x="81.171" y="12.488" style="fill:#E1E6E9;" width="75.551" height="12.488"/>
	<rect x="81.171" y="443.317" style="fill:#E1E6E9;" width="75.551" height="12.488"/>
	<rect x="81.171" y="168.585" style="fill:#E1E6E9;" width="75.551" height="12.488"/>
	<rect x="81.171" y="287.22" style="fill:#E1E6E9;" width="75.551" height="12.488"/>
	<rect x="81.171" y="324.683" style="fill:#E1E6E9;" width="75.551" height="12.488"/>
</g>
<g>
	<path style="fill:#FCD462;" d="M118.634,88.039C69.932,88.039,30.595,48.702,30.595,0H51.2c0,37.463,30.595,68.059,68.059,68.059
		S186.693,37.463,186.693,0h20.605C206.673,48.702,167.337,88.039,118.634,88.039z"/>
	<path style="fill:#FCD462;" d="M206.673,468.293h-20.605c0-37.463-30.595-68.059-68.059-68.059s-68.059,30.595-68.059,68.059
		H30.595c0-48.702,39.337-88.039,88.039-88.039S206.673,419.59,206.673,468.293z"/>
</g>
<ellipse style="fill:#64798A;" cx="224.411" cy="235.222" rx="128.621" ry="128.621"/>
<ellipse style="fill:#EBF0F3;" cx="224.202" cy="235.395" rx="112.394" ry="112.394"/>
<path style="fill:#F6C358;" d="M437.698,424.585c0,8.741-15.61,24.351-24.351,24.351c-34.341,0-98.029-98.654-98.029-98.654
	l24.351-24.351C339.668,325.932,437.698,389.62,437.698,424.585z"/>
<ellipse style="fill:#3A556A;" cx="405.977" cy="417.353" rx="13.112" ry="13.112"/>
<g>
</g>
<g>
</g>
<g>
</g>
<g>
</g>
<g>
</g>
<g>
</g>
<g>
</g>
<g>
</g>
<g>
</g>
<g>
</g>
<g>
</g>
<g>
</g>
<g>
</g>
<g>
</g>
<g>
</g>
</svg>
