<?xml version="1.0" encoding="iso-8859-1"?>
<!-- Generator: Adobe Illustrator 19.0.0, SVG Export Plug-In . SVG Version: 6.00 Build 0)  -->
<svg version="1.1" id="Capa_1" xmlns="http://www.w3.org/2000/svg" xmlns:xlink="http://www.w3.org/1999/xlink" x="0px" y="0px"
	 viewBox="0 0 512 512" style="enable-background:new 0 0 512 512;" xml:space="preserve">
<path style="fill:#455A64;" d="M352,512L352,512c-17.664,0-32-14.336-32-32V288h64v192C384,497.664,369.664,512,352,512z"/>
<path style="fill:#ECEFF1;" d="M368,0H176c-26.464,0-48,21.536-48,48v256c0,26.464,21.536,48,48,48h192c8.832,0,16-7.168,16-16V16
	C384,7.168,376.832,0,368,0z"/>
<g>
	<path style="fill:#CFD8DC;" d="M208,288c-8.832,0-16-7.168-16-16V80c0-8.832,7.168-16,16-16s16,7.168,16,16v192
		C224,280.832,216.832,288,208,288z"/>
	<circle style="fill:#CFD8DC;" cx="304" cy="80" r="16"/>
</g>
<g>
</g>
<g>
</g>
<g>
</g>
<g>
</g>
<g>
</g>
<g>
</g>
<g>
</g>
<g>
</g>
<g>
</g>
<g>
</g>
<g>
</g>
<g>
</g>
<g>
</g>
<g>
</g>
<g>
</g>
</svg>
