<svg height="512" viewBox="0 0 56 58" width="512" xmlns="http://www.w3.org/2000/svg"><g id="Page-1" fill="none" fill-rule="evenodd"><g id="091---Search-File" fill-rule="nonzero"><path id="Shape" d="m44 14v-10c0-2.209139-1.790861-4-4-4h-35l-5 23v31c0 2.209139 1.790861 4 4 4h36c2.209139 0 4-1.790861 4-4z" fill="#f0c419"/><path id="Shape" d="m5 0 7.341 6.007c.910431.74520829 1.4466149 1.85344064 1.4658808 3.02981165.0192658 1.17637105-.4803406 2.30156685-1.3658808 3.07618835l-12.441 10.887z" fill="#f3d55b"/><path id="Shape" d="m4 28c-.55228475 0-1-.4477153-1-1v-2c0-.5522847.44771525-1 1-1s1 .4477153 1 1v2c0 .5522847-.44771525 1-1 1z" fill="#f3d55b"/><path id="Shape" d="m4 50c-.55228475 0-1-.4477153-1-1v-18c0-.5522847.44771525-1 1-1s1 .4477153 1 1v18c0 .5522847-.44771525 1-1 1z" fill="#f3d55b"/><g fill="#e57e25"><path id="Shape" d="m20 8h-2c-.5522847 0-1-.44771525-1-1s.4477153-1 1-1h2c.5522847 0 1 .44771525 1 1s-.4477153 1-1 1z"/><path id="Shape" d="m38 8h-14c-.5522847 0-1-.44771525-1-1s.4477153-1 1-1h14c.5522847 0 1 .44771525 1 1s-.4477153 1-1 1z"/><path id="Shape" d="m21 14h-4c-.5522847 0-1-.4477153-1-1s.4477153-1 1-1h4c.5522847 0 1 .4477153 1 1s-.4477153 1-1 1z"/><path id="Shape" d="m38 14h-13c-.5522847 0-1-.4477153-1-1s.4477153-1 1-1h13c.5522847 0 1 .4477153 1 1s-.4477153 1-1 1z"/></g><path id="Rectangle-path" d="m40.348 42.027h6v6.641h-6z" fill="#7f8c8d" transform="matrix(.707 -.707 .707 .707 -19.37 43.933)"/><path id="Shape" d="m48.8181748 45.3178932h2c1.6568543 0 3 1.3431458 3 3v9c0 .5522848-.4477152 1-1 1h-6c-.5522847 0-1-.4477152-1-1v-9c0-1.6568542 1.3431458-3 3-3z" fill="#ff5364" transform="matrix(-.707 .707 -.707 -.707 121.686 53.232)"/><circle id="Oval" cx="31.08" cy="33.08" fill="#95a5a5" r="15"/><circle id="Oval" cx="31.08" cy="33.08" fill="#7f8c8d" r="13.08"/><path id="Shape" d="m38.91 40.91c-3.1012816 3.0961157-7.7356578 4.0741477-11.8235526 2.4952253-4.0878948-1.5789223-6.8615891-5.4182725-7.0764474-9.7952253v-.01c-.1998258-4.3810786 2.2016218-8.4681981 6.1259807-10.4260508s8.6339785-1.4184266 12.0140193 1.3760508v.01c.2675563.2138301.5213913.4442855.76.69 2.0791706 2.0753038 3.2475621 4.8923417 3.2475621 7.83s-1.1683915 5.7546962-3.2475621 7.83z" fill="#2fa8cc"/><path id="Shape" d="m38.15 24.55v.01c.1998258 4.3810786-2.2016218 8.4681981-6.1259807 10.4260508s-8.6339785 1.4184266-12.0140193-1.3760508v-.01c-.1998258-4.3810786 2.2016218-8.4681981 6.1259807-10.4260508s8.6339785-1.4184266 12.0140193 1.3760508z" fill="#67b9cc"/></g></g></svg>