<?xml version="1.0" encoding="iso-8859-1"?>
<!-- Generator: Adobe Illustrator 19.0.0, SVG Export Plug-In . SVG Version: 6.00 Build 0)  -->
<svg version="1.1" id="Capa_1" xmlns="http://www.w3.org/2000/svg" xmlns:xlink="http://www.w3.org/1999/xlink" x="0px" y="0px"
	 viewBox="0 0 512 512" style="enable-background:new 0 0 512 512;" xml:space="preserve">
<path style="fill:#FF7058;" d="M354.133,50.133c-38.4,0-73.6,17.067-98.133,43.733c-24.533-26.667-58.667-43.733-98.133-43.733
	c-72.533,0-131.2,58.667-131.2,131.2C26.667,294.4,256,461.867,256,461.867S485.333,294.4,485.333,181.333
	C485.333,108.8,426.667,50.133,354.133,50.133z"/>
<path style="fill:#40596B;" d="M278.4,346.667c-1.067,0-1.067,0-2.133,0c-4.267-1.067-8.533-4.267-8.533-9.6l-19.2-169.6
	l-43.733,112c-1.067,4.267-5.333,6.4-9.6,6.4l0,0c-4.267,0-8.533-3.2-9.6-6.4l-26.667-72.533l-33.067,34.133
	c-2.133,2.133-4.267,3.2-7.467,3.2H10.667C5.333,244.267,0,240,0,233.6c0-5.333,4.267-10.667,10.667-10.667h102.4l41.6-43.733
	c2.133-2.133,6.4-4.267,9.6-3.2c3.2,1.067,6.4,3.2,7.467,6.4l23.467,61.867L244.267,118.4c2.133-4.267,6.4-7.467,11.733-6.4
	s8.533,4.267,9.6,9.6l20.267,174.933L336,188.8c2.133-3.2,5.333-6.4,9.6-6.4c4.267,0,7.467,2.133,9.6,5.333l37.333,67.2
	l13.867-26.667c2.133-3.2,5.333-5.333,9.6-5.333h85.333c5.333,0,10.667,4.267,10.667,10.667c0,5.333-4.267,10.667-10.667,10.667
	h-81.067L400,282.667c-2.133,3.2-5.333,5.333-9.6,5.333l0,0c-4.267,0-7.467-2.133-9.6-5.333l-36.267-66.133L288,340.267
	C285.867,344.533,281.6,346.667,278.4,346.667z"/>
<g>
</g>
<g>
</g>
<g>
</g>
<g>
</g>
<g>
</g>
<g>
</g>
<g>
</g>
<g>
</g>
<g>
</g>
<g>
</g>
<g>
</g>
<g>
</g>
<g>
</g>
<g>
</g>
<g>
</g>
</svg>
