<?xml version="1.0" encoding="iso-8859-1"?>
<!-- Generator: Adobe Illustrator 19.0.0, SVG Export Plug-In . SVG Version: 6.00 Build 0)  -->
<svg version="1.1" id="Capa_1" xmlns="http://www.w3.org/2000/svg" xmlns:xlink="http://www.w3.org/1999/xlink" x="0px" y="0px"
	 viewBox="0 0 468.293 468.293" style="enable-background:new 0 0 468.293 468.293;" xml:space="preserve">
<path style="fill:#E56354;" d="M458.165,102.289H166.226c-5.594,0-10.128,4.534-10.128,10.128v155.578
	c0,5.594,4.534,10.128,10.128,10.128h193.275l34.697,33.871c5.696,5.56,15.284,2.68,16.972-5.099l6.247-28.772h40.748
	c5.594,0,10.128-4.534,10.128-10.128V112.417C468.293,106.823,463.758,102.289,458.165,102.289z"/>
<g>
	<circle style="fill:#EBEFF2;" cx="356.527" cy="189.671" r="23.146"/>
	<circle style="fill:#EBEFF2;" cx="420.171" cy="189.671" r="23.146"/>
</g>
<g>
	<path style="fill:#D4D5DB;" d="M369.458,170.479c2.498,3.695,3.957,8.151,3.957,12.947c0,12.784-10.364,23.148-23.148,23.148
		c-4.796,0-9.252-1.459-12.947-3.957c4.16,6.155,11.203,10.201,19.191,10.201c12.784,0,23.148-10.364,23.148-23.148
		C379.66,181.682,375.613,174.639,369.458,170.479z"/>
	<path style="fill:#D4D5DB;" d="M433.116,170.479c2.498,3.695,3.957,8.151,3.957,12.947c0,12.784-10.364,23.148-23.148,23.148
		c-4.797,0-9.252-1.459-12.947-3.957c4.16,6.155,11.203,10.201,19.191,10.201c12.784,0,23.148-10.364,23.148-23.148
		C443.317,181.682,439.271,174.639,433.116,170.479z"/>
</g>
<path style="fill:#29A1DA;" d="M10.128,153.411h291.939c5.594,0,10.128,4.534,10.128,10.128v155.578
	c0,5.594-4.534,10.128-10.128,10.128H108.792l-34.697,33.871c-5.695,5.56-15.284,2.68-16.972-5.099l-6.247-28.772H10.128
	C4.534,329.244,0,324.71,0,319.116V163.539C0,157.945,4.534,153.411,10.128,153.411z"/>
<g>
	<circle style="fill:#EBEFF2;" cx="60.61" cy="243.518" r="23.146"/>
	<circle style="fill:#EBEFF2;" cx="124.266" cy="243.518" r="23.146"/>
	<circle style="fill:#EBEFF2;" cx="187.929" cy="243.518" r="23.146"/>
	<circle style="fill:#EBEFF2;" cx="251.586" cy="243.518" r="23.146"/>
</g>
<g>
	<path style="fill:#D4D5DB;" d="M73.558,224.327c2.498,3.695,3.957,8.151,3.957,12.947c0,12.784-10.364,23.148-23.148,23.148
		c-4.796,0-9.252-1.459-12.947-3.957c4.16,6.155,11.203,10.201,19.191,10.201c12.784,0,23.148-10.364,23.148-23.148
		C83.76,235.53,79.713,228.487,73.558,224.327z"/>
	<path style="fill:#D4D5DB;" d="M137.216,224.327c2.498,3.695,3.957,8.151,3.957,12.947c0,12.784-10.364,23.148-23.148,23.148
		c-4.796,0-9.252-1.459-12.947-3.957c4.16,6.155,11.203,10.201,19.191,10.201c12.784,0,23.148-10.364,23.148-23.148
		C147.417,235.53,143.371,228.487,137.216,224.327z"/>
	<path style="fill:#D4D5DB;" d="M200.873,224.327c2.498,3.695,3.957,8.151,3.957,12.947c0,12.784-10.364,23.148-23.148,23.148
		c-4.796,0-9.252-1.459-12.947-3.957c4.16,6.155,11.203,10.201,19.191,10.201c12.784,0,23.148-10.364,23.148-23.148
		C211.074,235.53,207.028,228.487,200.873,224.327z"/>
	<path style="fill:#D4D5DB;" d="M264.53,224.327c2.498,3.695,3.957,8.151,3.957,12.947c0,12.784-10.364,23.148-23.148,23.148
		c-4.796,0-9.252-1.459-12.947-3.957c4.16,6.155,11.203,10.201,19.191,10.201c12.784,0,23.148-10.364,23.148-23.148
		C274.732,235.53,270.685,228.487,264.53,224.327z"/>
</g>
<g>
</g>
<g>
</g>
<g>
</g>
<g>
</g>
<g>
</g>
<g>
</g>
<g>
</g>
<g>
</g>
<g>
</g>
<g>
</g>
<g>
</g>
<g>
</g>
<g>
</g>
<g>
</g>
<g>
</g>
</svg>
