<svg height="512" viewBox="0 0 44 58" width="512" xmlns="http://www.w3.org/2000/svg"><g id="Page-1" fill="none" fill-rule="evenodd"><g id="092---Stats-File" fill-rule="nonzero"><path id="Shape" d="m44 14v-10c0-2.209139-1.790861-4-4-4h-35l-5 23v31c0 2.209139 1.790861 4 4 4h36c2.209139 0 4-1.790861 4-4z" fill="#f0c419"/><circle id="Oval" cx="22" cy="27" fill="#ff5364" r="5"/><circle id="Oval" cx="35" cy="21" fill="#ff5364" r="5"/><path id="Shape" d="m5 0 7.341 6.007c.910431.74520829 1.4466149 1.85344064 1.4658808 3.02981165.0192658 1.17637105-.4803406 2.30156685-1.3658808 3.07618835l-12.441 10.887z" fill="#f3d55b"/><path id="Shape" d="m21 6h-2c-.5522847 0-1-.44771525-1-1s.4477153-1 1-1h2c.5522847 0 1 .44771525 1 1s-.4477153 1-1 1z" fill="#e57e25"/><path id="Shape" d="m39 6h-14c-.5522847 0-1-.44771525-1-1s.4477153-1 1-1h14c.5522847 0 1 .44771525 1 1s-.4477153 1-1 1z" fill="#e57e25"/><path id="Shape" d="m22 12h-4c-.5522847 0-1-.4477153-1-1s.4477153-1 1-1h4c.5522847 0 1 .4477153 1 1s-.4477153 1-1 1z" fill="#e57e25"/><path id="Shape" d="m39 12h-13c-.5522847 0-1-.4477153-1-1s.4477153-1 1-1h13c.5522847 0 1 .4477153 1 1s-.4477153 1-1 1z" fill="#e57e25"/><circle id="Oval" cx="9" cy="33" fill="#ff5364" r="5"/><circle id="Oval" cx="9" cy="33" fill="#df4d60" r="1"/><circle id="Oval" cx="22" cy="27" fill="#df4d60" r="1"/><circle id="Oval" cx="35" cy="21" fill="#df4d60" r="1"/><path id="Shape" d="m13 43v11h-8v-11c0-.5522847.44771525-1 1-1h6c.5522847 0 1 .4477153 1 1z" fill="#3b97d3"/><path id="Shape" d="m26 37v17h-8v-17c0-.5522847.4477153-1 1-1h6c.5522847 0 1 .4477153 1 1z" fill="#3b97d3"/><path id="Shape" d="m39 31v23h-8v-23c0-.5522847.4477153-1 1-1h6c.5522847 0 1 .4477153 1 1z" fill="#3b97d3"/><g fill="#2980ba"><path id="Shape" d="m13 45v2h-3c-.55228475 0-1-.4477153-1-1s.44771525-1 1-1z"/><path id="Shape" d="m13 49v2h-3c-.55228475 0-1-.4477153-1-1s.44771525-1 1-1z"/><path id="Shape" d="m26 45v2h-3c-.5522847 0-1-.4477153-1-1s.4477153-1 1-1z"/><path id="Shape" d="m26 41v2h-3c-.5522847 0-1-.4477153-1-1s.4477153-1 1-1z"/><path id="Shape" d="m26 49v2h-3c-.5522847 0-1-.4477153-1-1s.4477153-1 1-1z"/><path id="Shape" d="m39 45v2h-3c-.5522847 0-1-.4477153-1-1s.4477153-1 1-1z"/><path id="Shape" d="m39 41v2h-3c-.5522847 0-1-.4477153-1-1s.4477153-1 1-1z"/><path id="Shape" d="m39 37v2h-3c-.5522847 0-1-.4477153-1-1s.4477153-1 1-1z"/><path id="Shape" d="m39 33v2h-3c-.5522847 0-1-.4477153-1-1s.4477153-1 1-1z"/><path id="Shape" d="m39 49v2h-3c-.5522847 0-1-.4477153-1-1s.4477153-1 1-1z"/></g><path id="Shape" d="m40 55h-36c-.55228475 0-1-.4477153-1-1s.44771525-1 1-1h36c.5522847 0 1 .4477153 1 1s-.4477153 1-1 1z" fill="#f29c1f"/></g></g></svg>