<svg height="512" viewBox="0 0 50 58" width="512" xmlns="http://www.w3.org/2000/svg"><g id="Page-1" fill="none" fill-rule="evenodd"><g id="093---Gear-Pointer"><path id="Path" d="m30 41v3l-9.95.01-.09-.01c-.4339651-.002045-.8386153-.2193571-1.08-.58l-1.54-2.34-5.53-2.29-2.75.56c-.4242485.0925613-.86627487-.0396689-1.17-.35l-2.89-2.89c-.31033115-.3037251-.44256126-.7457515-.35-1.17l.56-2.75-2.29-5.53-2.34-1.54c-.36064291-.2413847-.57795504-.6460349-.58-1.08v-4.08c.00204496-.4339651.21935709-.8386153.58-1.08l2.34-1.54 2.29-5.53-.56-2.75c-.09256126-.4242485.03966885-.86627487.35-1.17l2.89-2.89c.30372513-.31033115.7457515-.44256126 1.17-.35l2.75.56 5.53-2.29 1.54-2.34c.2413847-.36064291.6460349-.57795504 1.08-.58h4.08c.4339651.00204496.8386153.21935709 1.08.58l1.54 2.34 5.53 2.29 2.75-.56c.4242485-.09256126.8662749.03966885 1.17.35l2.89 2.89c.3103311.30372513.4425613.7457515.35 1.17l-.56 2.75 2.29 5.53 2.34 1.54c.3606429.2413847.577955.6460349.58 1.08v4.08c-.002045.4339651-.2193571.8386153-.58 1.08l-2.34 1.54-2.29 5.53-.08.12z" fill="#bdc3c7"/><path id="Path" d="m35 22c-.001518 1.0685383-.1324719 2.1329582-.39 3.17-.5909414-.9443188-1.7362909-1.3824782-2.8066165-1.0736858-1.0703256.3087925-1.8062667 1.2897103-1.8033835 2.4036858v5.74c-4.7713702 3.725103-11.4823975 3.664024-16.1851765-.1473059-4.70277892-3.8113299-6.15261778-10.3641603-3.4966178-15.8036483 2.656-5.439488 8.7148713-8.32595606 14.6123531-6.96137745 5.8974817 1.36457855 10.0726784 6.61903875 10.0694412 12.67233165z" fill="#7f8c8d"/><path id="Path" d="m50 40.5v12.5c0 2.7614237-2.2385763 5-5 5h-11c-1.1748934.0029697-2.29113-.513061-3.05-1.41v-.01c-.1791211-.2044873-.3335193-.4293715-.46-.67-.7299538-1.4149876-1.6631884-2.7154518-2.77-3.86-2.0200089-1.9279046-4.1610292-3.724892-6.41-5.38-.8010373-.5938412-1.2723989-1.5328529-1.27-2.53-.0016501-.0435732.0017052-.0871918.01-.13.0366643-1.0889366.6332833-2.0816624 1.5776483-2.6250793.944365-.543417 2.102454-.5604046 3.0623517-.0449207l5.31 2.66v-17.5c.0048037-1.1097948.7406673-2.0835758 1.8069824-2.3912112 1.0663152-.3076354 2.2077975.1245252 2.8030176 1.0612112.2572115.3956802.3928011.8580755.39 1.33v8c-.0002425-1.1881715.8358344-2.2123657 2-2.45.1647784-.03198.3321518-.0487173.5-.05l1.21.31c.2044496.1145719.392765.2558085.56.42.4685697.4697537.731185 1.1065057.73 1.77v3c-.0002425-1.1881715.8358344-2.2123657 2-2.45.1647784-.03198.3321518-.0487173.5-.05.6636932-.0021341 1.3008186.2605727 1.770123.729877.4693043.4693044.7320111 1.1064298.729877 1.770123v3c-.0002425-1.1881715.8358344-2.2123657 2-2.45.1647784-.03198.3321518-.0487173.5-.05.6636932-.0021341 1.3008186.2605727 1.770123.729877.4693043.4693044.7320111 1.1064298.729877 1.770123z" fill="#fdd7ad"/><g fill="#f9c795"><path id="Path" d="m37 32.05v10.95c0 .5522847-.4477153 1-1 1s-1-.4477153-1-1v-8.5c-.0002425-1.1881715.8358344-2.2123657 2-2.45z"/><path id="Path" d="m42 35.05v7.95c0 .5522847-.4477153 1-1 1s-1-.4477153-1-1v-5.5c-.0002425-1.1881715.8358344-2.2123657 2-2.45z"/><path id="Path" d="m47 38.05v4.95c0 .5522847-.4477153 1-1 1s-1-.4477153-1-1v-2.5c-.0002425-1.1881715.8358344-2.2123657 2-2.45z"/></g></g></g></svg>