<?xml version="1.0" encoding="iso-8859-1"?>
<!-- Generator: Adobe Illustrator 19.0.0, SVG Export Plug-In . SVG Version: 6.00 Build 0)  -->
<svg xmlns="http://www.w3.org/2000/svg" xmlns:xlink="http://www.w3.org/1999/xlink" version="1.1" id="Layer_1" x="0px" y="0px" viewBox="0 0 481.882 481.882" style="enable-background:new 0 0 481.882 481.882;" xml:space="preserve">
<g>
	<polygon style="fill:#64798A;" points="409.6,441.525 153.6,441.525 153.6,273.468 171.068,273.468 171.068,424.056 409.6,424.056     "/>
	<rect x="63.247" y="263.831" style="fill:#64798A;" width="17.468" height="166.249"/>
</g>
<path style="fill:#EBF0F3;" d="M412.009,128.904C405.986,56.621,345.148,0,271.059,0c-39.153,0-74.089,15.661-99.991,40.96  c-10.24-4.819-21.082-7.228-33.129-7.228c-42.767,0-77.704,34.936-77.704,77.704c0,6.024,0.602,12.649,2.409,18.071  C27.106,136.734,0,168.659,0,206.607c0,42.767,34.936,77.704,77.704,77.704h326.475c42.767,0,77.704-34.936,77.704-77.704  C481.882,166.249,451.162,133.12,412.009,128.904z"/>
<g>
	<path style="fill:#D5D6DB;" d="M53.609,170.466l27.106-5.421L77.704,153.6l-9.638,1.807c-13.854,2.409-25.901,10.842-33.129,22.287   C40.358,174.682,46.381,171.671,53.609,170.466z"/>
	<path style="fill:#D5D6DB;" d="M409.6,155.407l-21.685-2.409l-1.807-21.685c-5.421-59.031-55.416-104.809-114.447-104.809   c-30.72,0-59.633,12.047-81.318,33.732l-13.252,13.252l-16.866-7.831c-7.228-3.012-14.456-4.819-21.685-4.819   c-18.071,0-33.732,9.035-42.767,23.492c7.831-5.421,18.071-8.433,28.311-8.433c7.228,0,15.059,1.807,21.685,4.819l16.866,7.831   l13.252-13.252c21.685-21.685,50.598-33.732,81.318-33.732c59.031,0,109.628,46.381,114.447,104.809l1.807,21.685l21.685,2.409   c26.504,3.012,46.381,24.696,46.381,51.2c0,10.24-3.012,19.878-8.433,28.311c13.854-9.035,23.492-25.299,23.492-42.767   C455.379,180.104,435.501,157.816,409.6,155.407z"/>
</g>
<circle style="fill:#FCD462;" cx="71.68" cy="430.682" r="51.2"/>
<path style="fill:#F6C358;" d="M103.002,389.722c15.661,31.322,0.602,78.306-44.574,78.306c-12.047,0-21.685-3.012-29.515-8.433  c9.035,13.252,24.696,22.287,42.165,22.287c28.311,0,51.2-22.889,51.2-51.2C123.482,413.816,115.652,399.36,103.002,389.722z"/>
<circle style="fill:#E56353;" cx="268.649" cy="430.682" r="51.2"/>
<path style="fill:#D15241;" d="M300.574,389.722c15.661,31.322,0.602,78.306-44.574,78.306c-12.047,0-21.685-3.012-29.515-8.433  c9.035,13.252,24.696,22.287,42.165,22.287c28.311,0,51.2-22.889,51.2-51.2C320.452,413.816,312.621,399.36,300.574,389.722z"/>
<circle style="fill:#44C4A1;" cx="430.682" cy="430.682" r="51.2"/>
<path style="fill:#3EA69B;" d="M462.005,389.722c15.661,31.322,0.602,78.306-44.574,78.306c-12.047,0-21.685-3.012-29.515-8.433  c9.035,13.252,24.696,22.287,42.165,22.287c28.311,0,51.2-22.889,51.2-51.2C481.882,413.816,474.052,399.36,462.005,389.722z"/>
<g>
</g>
<g>
</g>
<g>
</g>
<g>
</g>
<g>
</g>
<g>
</g>
<g>
</g>
<g>
</g>
<g>
</g>
<g>
</g>
<g>
</g>
<g>
</g>
<g>
</g>
<g>
</g>
<g>
</g>
</svg>
