<?xml version="1.0" encoding="iso-8859-1"?>
<!-- Generator: Adobe Illustrator 19.0.0, SVG Export Plug-In . SVG Version: 6.00 Build 0)  -->
<svg version="1.1" id="Capa_1" xmlns="http://www.w3.org/2000/svg" xmlns:xlink="http://www.w3.org/1999/xlink" x="0px" y="0px"
	 viewBox="0 0 512 512" style="enable-background:new 0 0 512 512;" xml:space="preserve">
<path style="fill:#40596B;" d="M460.8,64H310.4h-99.2h-160c-11.733,0-21.333,9.6-21.333,21.333v405.333
	C29.867,502.4,39.467,512,51.2,512h409.6c11.733,0,21.333-9.6,21.333-21.333V85.333C482.133,73.6,472.533,64,460.8,64z"/>
<path style="fill:#F2F2F2;" d="M450.133,106.667c0-6.4-4.267-10.667-10.667-10.667H72.533c-6.4,0-10.667,4.267-10.667,10.667
	v362.667c0,6.4,4.267,10.667,10.667,10.667h304l73.6-73.6V106.667z"/>
<path style="fill:#CDD6E0;" d="M450.133,407.467H387.2c-6.4,0-10.667,4.267-10.667,10.667V480L450.133,407.467z"/>
<path style="fill:#ACB3BA;" d="M338.133,35.2H297.6C294.4,14.933,277.333,0,256,0s-38.4,14.933-41.6,35.2h-40.533
	c-12.8,0-23.467,10.667-23.467,23.467V108.8h211.2V58.667C361.6,45.867,350.933,35.2,338.133,35.2z M256,54.4
	c-10.667,0-19.2-8.533-19.2-19.2s8.533-20.267,19.2-20.267c10.667,0,19.2,8.533,19.2,19.2S266.667,54.4,256,54.4z"/>
<path style="fill:#FF7058;" d="M309.333,178.133c-21.333,0-40.533,9.6-53.333,24.533c-12.8-14.933-32-24.533-53.333-24.533
	c-39.467,0-72.533,32-72.533,72.533C130.133,320,256,397.867,256,397.867S381.867,320,381.867,250.667
	C381.867,211.2,349.867,178.133,309.333,178.133z"/>
<polygon style="fill:#FFFFFF;" points="232.533,321.067 197.333,285.867 214.4,269.867 232.533,288 297.6,221.867 314.667,238.933 
	"/>
<g>
</g>
<g>
</g>
<g>
</g>
<g>
</g>
<g>
</g>
<g>
</g>
<g>
</g>
<g>
</g>
<g>
</g>
<g>
</g>
<g>
</g>
<g>
</g>
<g>
</g>
<g>
</g>
<g>
</g>
</svg>
