<?xml version="1.0" encoding="iso-8859-1"?>
<!-- Generator: Adobe Illustrator 19.0.0, SVG Export Plug-In . SVG Version: 6.00 Build 0)  -->
<svg version="1.1" id="Capa_1" xmlns="http://www.w3.org/2000/svg" xmlns:xlink="http://www.w3.org/1999/xlink" x="0px" y="0px"
	 viewBox="0 0 512 512" style="enable-background:new 0 0 512 512;" xml:space="preserve">
<path style="fill:#ADB3BA;" d="M298.667,42.667h-32v-32C266.667,4.267,262.4,0,256,0c-6.4,0-10.667,4.267-10.667,10.667v32h-32
	c-6.4,0-10.667,4.267-10.667,10.667S206.933,64,213.333,64h32v92.8h21.333V64h32c6.4,0,10.667-4.267,10.667-10.667
	S304,42.667,298.667,42.667z"/>
<polygon style="fill:#F3705A;" points="512,246.4 475.733,137.6 36.267,137.6 0,246.4 "/>
<g>
	<rect x="36.267" y="246.4" style="fill:#E8EAE9;" width="139.733" height="265.6"/>
	<rect x="336" y="246.4" style="fill:#E8EAE9;" width="139.733" height="265.6"/>
</g>
<g>
	<rect x="73.6" y="289.067" style="fill:#8AD7F8;" width="65.067" height="69.333"/>
	<rect x="373.333" y="289.067" style="fill:#8AD7F8;" width="65.067" height="69.333"/>
	<rect x="73.6" y="400" style="fill:#8AD7F8;" width="65.067" height="69.333"/>
	<rect x="373.333" y="400" style="fill:#8AD7F8;" width="65.067" height="69.333"/>
</g>
<path style="fill:#F05540;" d="M361.6,235.733l-92.8-92.8c-7.467-7.467-19.2-7.467-26.667,0l-92.8,92.8
	c-7.467,7.467-7.467,19.2,0,26.667c7.467,7.467,19.2,7.467,26.667,0l80-80l80,80c7.467,7.467,19.2,7.467,26.667,0
	C369.067,254.933,369.067,243.2,361.6,235.733z"/>
<polygon style="fill:#F3F3F3;" points="336,512 336,262.4 256,183.467 176,262.4 176,512 "/>
<path style="fill:#415A6B;" d="M211.2,428.8V512h89.6v-83.2c0-24.533-20.267-44.8-44.8-44.8l0,0
	C231.467,384,211.2,404.267,211.2,428.8z"/>
<path style="fill:#344A5E;" d="M228.267,512v-83.2c0-14.933,12.8-27.733,27.733-27.733c14.933,0,27.733,12.8,27.733,27.733V512
	H228.267z"/>
<g>
</g>
<g>
</g>
<g>
</g>
<g>
</g>
<g>
</g>
<g>
</g>
<g>
</g>
<g>
</g>
<g>
</g>
<g>
</g>
<g>
</g>
<g>
</g>
<g>
</g>
<g>
</g>
<g>
</g>
</svg>
