<?xml version="1.0" encoding="iso-8859-1"?>
<!-- Generator: Adobe Illustrator 19.0.0, SVG Export Plug-In . SVG Version: 6.00 Build 0)  -->
<svg version="1.1" id="Capa_1" xmlns="http://www.w3.org/2000/svg" xmlns:xlink="http://www.w3.org/1999/xlink" x="0px" y="0px"
	 viewBox="0 0 468.293 468.293" style="enable-background:new 0 0 468.293 468.293;" xml:space="preserve">
<path style="fill:#F6C358;" d="M382.037,147.891c0-87.232-75.524-156.825-164.752-146.957
	C150.528,8.317,96.293,61.314,87.567,127.909c-6.34,48.39,10.748,92.959,41.488,123.993c23.327,23.551,37.044,54.927,37.044,88.075
	v0.005h136.093v0c0-33.192,13.792-64.565,37.131-88.167C365.729,225.113,382.037,188.414,382.037,147.891z"/>
<path style="fill:#D5D6DB;" d="M289.618,446.169H178.674c-6.897,0-12.488-5.591-12.488-12.488v-93.7h135.92v93.7
	C302.106,440.578,296.515,446.169,289.618,446.169z"/>
<g>
	<rect x="166.213" y="385.374" style="fill:#64798A;" width="135.917" height="15.847"/>
	<rect x="166.213" y="353.28" style="fill:#64798A;" width="135.917" height="15.847"/>
	<rect x="166.213" y="417.03" style="fill:#64798A;" width="135.917" height="15.847"/>
	<path style="fill:#64798A;" d="M262.9,468.293h-57.508c-3.695,0-7.206-1.612-9.615-4.414l-15.224-17.71h107.186l-15.224,17.71
		C270.106,466.681,266.595,468.293,262.9,468.293z"/>
</g>
<circle style="fill:#FCD462;" cx="234.146" cy="153.725" r="90.736"/>
<circle style="fill:#F6C358;" cx="234.146" cy="153.725" r="73.335"/>
<path style="fill:#DC8744;" d="M230.975,213.493v-10.526c-13.172-1.344-24.994-6.583-35.473-15.712l10.526-12.544
	c8.079,7.017,16.393,11.195,24.948,12.544V159.28c-10.866-2.593-18.816-6.008-23.862-10.238c-5.046-4.23-7.575-10.502-7.575-18.816
	s2.91-15.114,8.725-20.406c5.814-5.286,13.389-8.167,22.712-8.648V93.96h9.229v7.352c10.573,0.774,20.571,4.377,29.993,10.819
	l-9.376,13.266c-6.343-4.518-13.219-7.305-20.618-8.367v27.107h0.434c11.054,2.599,19.174,6.108,24.367,10.526
	c5.193,4.424,7.786,10.843,7.786,19.25c0,8.414-2.981,15.267-8.942,20.547c-5.961,5.292-13.841,8.173-23.645,8.654v10.379H230.975z
	 M220.807,120.421c-2.447,2.159-3.673,4.852-3.673,8.073c0,3.221,0.956,5.768,2.881,7.639c1.924,1.878,5.574,3.679,10.96,5.41
	v-24.948C226.651,116.983,223.26,118.256,220.807,120.421z M251.164,183.647c2.687-2.206,4.037-4.993,4.037-8.361
	c0-3.362-1.062-6.032-3.174-8.003c-2.112-1.971-6.055-3.82-11.823-5.55v25.951C244.816,187.208,248.471,185.859,251.164,183.647z"/>
<g>
</g>
<g>
</g>
<g>
</g>
<g>
</g>
<g>
</g>
<g>
</g>
<g>
</g>
<g>
</g>
<g>
</g>
<g>
</g>
<g>
</g>
<g>
</g>
<g>
</g>
<g>
</g>
<g>
</g>
</svg>
