<?xml version="1.0" encoding="iso-8859-1"?>
<!-- Generator: Adobe Illustrator 19.0.0, SVG Export Plug-In . SVG Version: 6.00 Build 0)  -->
<svg xmlns="http://www.w3.org/2000/svg" xmlns:xlink="http://www.w3.org/1999/xlink" version="1.1" id="Layer_1" x="0px" y="0px" viewBox="0 0 491.52 491.52" style="enable-background:new 0 0 491.52 491.52;" xml:space="preserve">
<path style="fill:#64798A;" d="M491.52,14.761C491.52,6.609,485.189,0,477.378,0H14.142C6.333,0,0,6.609,0,14.761V335.39h491.52  V14.761z"/>
<g>
	<rect x="28.042" y="29.271" style="fill:#EBF0F3;" width="435.456" height="276.838"/>
	<path style="fill:#EBF0F3;" d="M0,335.39v54.401c0,8.153,6.333,14.761,14.142,14.761h463.235c7.812,0,14.142-6.608,14.142-14.761   V335.39H0z"/>
</g>
<ellipse style="fill:#64798A;" cx="245.76" cy="369.971" rx="19.2" ry="20.04"/>
<rect x="175.667" y="404.531" style="fill:#E1E6E9;" width="140.211" height="63.186"/>
<polygon style="fill:#D5D6DB;" points="315.865,467.739 175.655,404.551 315.865,404.551 "/>
<polygon style="fill:#EBF0F3;" points="315.865,467.739 175.655,467.739 157.669,491.52 333.851,491.52 "/>
<g>
	<path style="fill:#E56353;" d="M225.959,123.026h19.225l-17.841,89.34h-19.225l7.019-35.145H180.88l-7.019,35.145h-19.224   l17.841-89.34h19.224l-7.453,37.324h34.256L225.959,123.026z"/>
	<path style="fill:#E56353;" d="M329.843,134.722c-6.667-7.795-17.671-11.696-33.035-11.696h-30.436l-3.472,17.386h19.226h10.72   c9.778,0,16.545,2.361,20.334,7.093c3.779,4.728,4.787,11.483,3.035,20.257c-1.752,8.778-5.445,15.466-11.086,20.063   c-5.653,4.602-12.862,6.906-21.656,6.906h-12.194l7.241-36.257h-19.224l-10.763,53.892h29.453c16.427,0,29.458-4.046,39.078-12.143   c9.629-8.091,15.826-19.085,18.6-32.971C338.435,153.361,336.499,142.518,329.843,134.722z"/>
</g>
<g>
</g>
<g>
</g>
<g>
</g>
<g>
</g>
<g>
</g>
<g>
</g>
<g>
</g>
<g>
</g>
<g>
</g>
<g>
</g>
<g>
</g>
<g>
</g>
<g>
</g>
<g>
</g>
<g>
</g>
</svg>
