<?xml version="1.0" encoding="iso-8859-1"?>
<!-- Generator: Adobe Illustrator 19.0.0, SVG Export Plug-In . SVG Version: 6.00 Build 0)  -->
<svg version="1.1" id="Capa_1" xmlns="http://www.w3.org/2000/svg" xmlns:xlink="http://www.w3.org/1999/xlink" x="0px" y="0px"
	 viewBox="0 0 512 512" style="enable-background:new 0 0 512 512;" xml:space="preserve">
<path style="fill:#FFD15C;" d="M138.816,297.312c-41.664,42.752-29.44,81.888-69.045,144.896
	c62.997-39.605,102.144-27.371,144.896-69.045L138.816,297.312z"/>
<path style="fill:#FF7058;" d="M168.064,257.6c-37.963,48.075-23.285,86.517-50.805,137.109
	c50.603-27.509,89.056-12.832,137.109-50.795L168.064,257.6z"/>
<path style="fill:#FFFFFF;" d="M176.736,274.731c-20.373,32.789-21.952,81.365-21.952,81.365s48.597-1.696,81.269-22.037
	L176.736,274.731z"/>
<polygon style="fill:#CDD6E0;" points="190.496,266.443 56.949,204.245 86.677,174.517 220.224,236.715 "/>
<path style="fill:#F2F2F2;" d="M69.888,271.701c42.165-43.467,72.736-97.611,89.867-159.755C97.6,129.077,43.456,159.648,0,201.813
	L69.888,271.701z"/>
<path style="fill:#40596B;" d="M24.501,180.405C16.043,187.211,7.787,194.251,0,201.813l69.877,69.888
	c7.563-7.797,14.603-16.043,21.419-24.501L24.501,180.405z"/>
<polygon style="fill:#CDD6E0;" points="245.547,321.504 307.755,455.051 337.472,425.323 275.275,291.776 "/>
<path style="fill:#F2F2F2;" d="M240.288,442.112c43.467-42.165,97.611-72.736,159.765-89.867
	C382.912,414.389,352.352,468.533,310.187,512L240.288,442.112z"/>
<path style="fill:#40596B;" d="M331.584,487.499c-6.805,8.459-13.835,16.704-21.408,24.501l-69.888-69.888
	c7.787-7.563,16.043-14.603,24.501-21.408L331.584,487.499z"/>
<path style="fill:#F2F2F2;" d="M512,0c-97.077,0-190.165,38.56-258.816,107.2L102.229,258.155L253.835,409.76l150.955-150.955
	C473.44,190.165,512,97.067,512,0"/>
<path style="fill:#FF7058;" d="M462.016,184.469C494.432,128.949,512,65.387,512,0c-65.397,0-128.96,17.568-184.48,49.973
	L462.016,184.469z"/>
<path style="fill:#40596B;" d="M356.523,250.037c-26.101,26.112-68.459,26.112-94.56,0c-26.112-26.112-26.112-68.459,0-94.571
	c26.101-26.112,68.459-26.112,94.56,0C382.645,181.579,382.645,223.925,356.523,250.037"/>
<path style="fill:#84DBFF;" d="M338.581,232.096c-16.213,16.203-42.475,16.203-58.688,0s-16.213-42.485,0-58.688
	c16.213-16.203,42.475-16.203,58.688,0S354.795,215.893,338.581,232.096"/>
<g>
</g>
<g>
</g>
<g>
</g>
<g>
</g>
<g>
</g>
<g>
</g>
<g>
</g>
<g>
</g>
<g>
</g>
<g>
</g>
<g>
</g>
<g>
</g>
<g>
</g>
<g>
</g>
<g>
</g>
</svg>
