<?xml version="1.0" encoding="iso-8859-1"?>
<!-- Generator: Adobe Illustrator 19.0.0, SVG Export Plug-In . SVG Version: 6.00 Build 0)  -->
<svg version="1.1" id="Capa_1" xmlns="http://www.w3.org/2000/svg" xmlns:xlink="http://www.w3.org/1999/xlink" x="0px" y="0px"
	 viewBox="0 0 468.293 468.293" style="enable-background:new 0 0 468.293 468.293;" xml:space="preserve">
<path style="fill:#64798A;" d="M455.805,390.244H12.488C5.591,390.244,0,384.653,0,377.756V90.537
	c0-6.897,5.591-12.488,12.488-12.488h443.317c6.897,0,12.488,5.591,12.488,12.488v287.219
	C468.293,384.653,462.702,390.244,455.805,390.244z"/>
<rect x="18.732" y="96.78" style="fill:#EBF0F3;" width="430.829" height="274.732"/>
<polygon style="fill:#D15241;" points="110.108,173.399 59.318,192.035 78.318,202.266 63.703,226.222 133.128,202.266 "/>
<polygon style="fill:#64798A;" points="106.534,195.353 133.128,202.266 133.128,177.784 "/>
<polygon style="fill:#D15241;" points="358.186,173.399 408.976,192.035 389.976,202.266 404.591,226.222 335.166,202.266 "/>
<polygon style="fill:#64798A;" points="361.76,195.353 335.166,202.266 335.166,177.784 "/>
<path style="fill:#E56353;" d="M234.217,130.352c-63.83,0-127.684,32.126-127.684,32.126v32.875c0,0,65.666-32.126,130.382-32.126
	c62.871,0,124.845,32.126,124.845,32.126v-32.875C361.76,162.479,298,130.352,234.217,130.352z"/>
<g>
	<rect x="159.22" y="226.591" style="fill:#D5D6DB;" width="149.854" height="15.61"/>
	<rect x="59.317" y="274.482" style="fill:#D5D6DB;" width="349.659" height="15.61"/>
	<rect x="59.317" y="322.31" style="fill:#D5D6DB;" width="349.659" height="15.61"/>
</g>
<g>
</g>
<g>
</g>
<g>
</g>
<g>
</g>
<g>
</g>
<g>
</g>
<g>
</g>
<g>
</g>
<g>
</g>
<g>
</g>
<g>
</g>
<g>
</g>
<g>
</g>
<g>
</g>
<g>
</g>
</svg>
