<?xml version="1.0" encoding="iso-8859-1"?>
<!-- Generator: Adobe Illustrator 19.0.0, SVG Export Plug-In . SVG Version: 6.00 Build 0)  -->
<svg version="1.1" id="Capa_1" xmlns="http://www.w3.org/2000/svg" xmlns:xlink="http://www.w3.org/1999/xlink" x="0px" y="0px"
	 viewBox="0 0 468.293 468.293" style="enable-background:new 0 0 468.293 468.293;" xml:space="preserve">
<path style="fill:#DC8744;" d="M467.129,262.211c0,0,22.522,125.788-130.604,170.574l-9.491-223.723L434.15,35.507l10.999,12.735
	c11.523,13.341,18.034,30.282,18.413,47.906L467.129,262.211z"/>
<path style="fill:#FCD462;" d="M434.15,35.507c0,0,105.76,74.574-107.116,173.555L1.222,64.796c-1.967-0.871-1.437-3.797,0.71-3.923
	L434.15,35.507z"/>
<path style="fill:#F6C358;" d="M328.436,209.062L0,62.867v44.403c0,2.371,2.335,3.974,4.57,3.182
	c3.396-1.204,7.028-1.897,10.847-1.897c18.53,0,33.552,14.906,33.552,33.293s-15.021,33.294-33.552,33.294
	c-3.819,0-7.451-0.693-10.847-1.898c-2.235-0.793-4.57,0.81-4.57,3.182l0,10.534c0,1.774,1.37,3.171,3.131,3.384
	c18.359,2.223,32.603,17.646,32.603,36.465c0,18.82-14.244,34.243-32.604,36.466C1.37,263.487,0,264.884,0,266.657v19.691
	l338.001,146.437L328.436,209.062z"/>
<g>
	<ellipse style="fill:#DC8744;" cx="187.998" cy="88.482" rx="33.386" ry="10.321"/>
	<ellipse style="fill:#DC8744;" cx="243.281" cy="122.256" rx="27.348" ry="8.454"/>
	<ellipse style="fill:#DC8744;" cx="327.037" cy="152.364" rx="27.348" ry="8.454"/>
	<ellipse style="fill:#DC8744;" cx="338.245" cy="91.948" rx="44.6" ry="13.787"/>
	<path style="fill:#DC8744;" d="M208.655,210.185c-12.05,2.608-20.658,19.321-20.658,37.641s8.608,35.033,20.658,37.641
		c13.988,3.027,27.093-13.614,27.093-37.641S222.643,207.158,208.655,210.185z"/>
	<path style="fill:#DC8744;" d="M268.314,296.747c-8.666,1.875-14.857,13.896-14.857,27.071c0,13.175,6.191,25.195,14.857,27.071
		c10.06,2.177,19.485-9.791,19.485-27.071C287.799,306.539,278.374,294.571,268.314,296.747z"/>
	<path style="fill:#DC8744;" d="M131.007,224.921c-7.333,1.587-12.571,11.757-12.571,22.905s5.238,21.318,12.571,22.905
		c8.512,1.842,16.487-8.284,16.487-22.905S139.518,223.079,131.007,224.921z"/>
	<path style="fill:#DC8744;" d="M98.118,147.437c-7.333,1.587-12.571,11.757-12.571,22.905s5.238,21.318,12.571,22.905
		c8.512,1.842,16.487-8.284,16.487-22.905C114.605,155.721,106.63,145.595,98.118,147.437z"/>
	<path style="fill:#DC8744;" d="M65.666,224.921c-7.333,1.587-12.571,11.757-12.571,22.905s5.238,21.318,12.571,22.905
		c8.512,1.842,16.487-8.284,16.487-22.905S74.178,223.079,65.666,224.921z"/>
</g>
<g>
</g>
<g>
</g>
<g>
</g>
<g>
</g>
<g>
</g>
<g>
</g>
<g>
</g>
<g>
</g>
<g>
</g>
<g>
</g>
<g>
</g>
<g>
</g>
<g>
</g>
<g>
</g>
<g>
</g>
</svg>
