<?xml version="1.0" encoding="iso-8859-1"?>
<!-- Generator: Adobe Illustrator 19.0.0, SVG Export Plug-In . SVG Version: 6.00 Build 0)  -->
<svg version="1.1" id="Capa_1" xmlns="http://www.w3.org/2000/svg" xmlns:xlink="http://www.w3.org/1999/xlink" x="0px" y="0px"
	 viewBox="0 0 511.763 511.763" style="enable-background:new 0 0 511.763 511.763;" xml:space="preserve">
<rect x="157.867" y="203.615" style="fill:#FFD15C;" width="240" height="132.267"/>
<path style="fill:#CDD6E0;" d="M508.8,372.148c-5.333-8.533-17.067-10.667-25.6-4.267L416,413.748V137.481
	c0-9.6-8.533-18.133-18.133-18.133H176v-57.6c0-25.6-21.333-46.933-46.933-46.933H62.933c-9.6,0-18.133,8.533-18.133,18.133
	s8.533,18.133,18.133,18.133H128c6.4,0,10.667,5.333,10.667,10.667v132.267c0,9.6,8.533,18.133,18.133,18.133
	s18.133-8.533,18.133-18.133v-38.4H377.6v165.333h-70.4v36.267h70.4v74.667c0,3.2,1.067,5.333,2.133,8.533
	c-3.2,5.333-3.2,12.8,1.067,18.133c3.2,5.333,9.6,7.467,14.933,7.467c3.2,0,7.467-1.067,10.667-3.2l96-66.133
	C512,391.348,514.133,380.681,508.8,372.148z"/>
<g>
	<path style="fill:#FF7058;" d="M508.8,372.148c-5.333-8.533-17.067-10.667-25.6-4.267L416,413.748l8.533,13.867h-36.267
		l-8.533,4.267c0,3.2,1.067,5.333,2.133,8.533c-3.2,5.333-3.2,12.8,1.067,18.133c3.2,5.333,9.6,7.467,14.933,7.467
		c3.2,0,7.467-1.067,10.667-3.2l96-66.133C512,391.348,514.133,380.681,508.8,372.148z"/>
	<path style="fill:#FF7058;" d="M157.867,181.215C70.4,181.215,0,251.615,0,339.081s70.4,157.867,157.867,157.867
		s157.867-70.4,157.867-157.867S245.333,181.215,157.867,181.215z M157.867,464.948C88.533,464.948,32,408.415,32,339.081
		s56.533-125.867,125.867-125.867s125.867,56.533,125.867,125.867S227.2,464.948,157.867,464.948z"/>
</g>
<circle style="fill:#40596B;" cx="396.8" cy="448.948" r="48"/>
<circle style="fill:#FFFFFF;" cx="396.8" cy="448.948" r="20.267"/>
<g>
	<path style="fill:#FF7058;" d="M253.867,256.948c-4.267-5.333-8.533-9.6-13.867-13.867l-72.533,72.533v-102.4c-3.2,0-6.4,0-9.6,0
		s-6.4,0-9.6,0v102.4l-72.533-72.533c-5.333,4.267-9.6,8.533-13.867,13.867l72.533,72.533H32c0,3.2,0,6.4,0,9.6c0,3.2,0,6.4,0,9.6
		h102.4l-72.533,72.533c4.267,5.333,8.533,9.6,13.867,13.867l72.533-72.533v102.4c3.2,0,6.4,0,9.6,0c3.2,0,6.4,0,9.6,0v-102.4
		L240,435.081c5.333-4.267,9.6-8.533,13.867-13.867l-72.533-72.533h102.4c0-3.2,0-6.4,0-9.6s0-6.4,0-9.6h-102.4L253.867,256.948z"/>
	<circle style="fill:#FF7058;" cx="157.867" cy="339.081" r="40.533"/>
</g>
<circle style="fill:#FFFFFF;" cx="157.867" cy="339.081" r="20.267"/>
<g>
</g>
<g>
</g>
<g>
</g>
<g>
</g>
<g>
</g>
<g>
</g>
<g>
</g>
<g>
</g>
<g>
</g>
<g>
</g>
<g>
</g>
<g>
</g>
<g>
</g>
<g>
</g>
<g>
</g>
</svg>
