<?xml version="1.0" encoding="iso-8859-1"?>
<!-- Generator: Adobe Illustrator 19.0.0, SVG Export Plug-In . SVG Version: 6.00 Build 0)  -->
<svg xmlns="http://www.w3.org/2000/svg" xmlns:xlink="http://www.w3.org/1999/xlink" version="1.1" id="Layer_1" x="0px" y="0px" viewBox="0 0 491.521 491.521" style="enable-background:new 0 0 491.521 491.521;" xml:space="preserve">
<rect x="81.885" y="252.212" style="fill:#F6C358;" width="49.746" height="11.09"/>
<rect x="81.885" y="170.087" style="fill:#FCD462;" width="49.746" height="82.125"/>
<rect x="153.396" y="58.271" style="fill:#44C4A1;" width="49.746" height="193.94"/>
<rect x="153.396" y="252.212" style="fill:#3EA69B;" width="49.746" height="11.09"/>
<rect x="224.907" y="115.523" style="fill:#E56353;" width="49.746" height="136.689"/>
<rect x="224.907" y="252.212" style="fill:#D15241;" width="49.746" height="11.09"/>
<ellipse style="opacity:0.25;fill:#27A2DB;enable-background:new    ;" cx="178.267" cy="178.269" rx="136.172" ry="136.172"/>
<path style="fill:#3A556A;" d="M286.578,319.654l28.403,28.403l33.077-33.076l-28.404-28.404  c53.666-69.901,48.668-170.366-15.33-234.363c-69.618-69.618-182.492-69.618-252.111,0.001  c-69.617,69.618-69.617,182.49,0.001,252.109C116.212,368.322,216.677,373.32,286.578,319.654z M81.981,274.557  c-53.178-53.178-53.177-139.396,0-192.574c53.178-53.178,139.396-53.177,192.574,0c53.178,53.178,53.178,139.395,0,192.574  C221.377,327.734,135.158,327.734,81.981,274.557z"/>
<path style="fill:#2F4859;" d="M306.249,350.983l44.734-44.734c2.227-2.228,5.838-2.228,8.065-0.001l16.96,16.96l-52.8,52.8  l-16.96-16.96C304.021,356.821,304.021,353.21,306.249,350.983z"/>
<path style="fill:#FCD462;" d="M317.258,387.445c-1.515-1.515-1.515-3.971-0.001-5.485l64.702-64.702  c1.514-1.514,3.971-1.515,5.486,0.001l88.474,88.475l-70.186,70.186L317.258,387.445z"/>
<path style="fill:#F6C358;" d="M475.919,405.733l14.465,14.465c1.516,1.515,1.516,3.971,0.001,5.486l-64.701,64.701  c-1.514,1.514-3.972,1.514-5.486-0.001l-14.465-14.465L475.919,405.733z"/>
<g>
</g>
<g>
</g>
<g>
</g>
<g>
</g>
<g>
</g>
<g>
</g>
<g>
</g>
<g>
</g>
<g>
</g>
<g>
</g>
<g>
</g>
<g>
</g>
<g>
</g>
<g>
</g>
<g>
</g>
</svg>
