<?xml version="1.0" encoding="iso-8859-1"?>
<!-- Generator: Adobe Illustrator 19.0.0, SVG Export Plug-In . SVG Version: 6.00 Build 0)  -->
<svg version="1.1" id="Capa_1" xmlns="http://www.w3.org/2000/svg" xmlns:xlink="http://www.w3.org/1999/xlink" x="0px" y="0px"
	 viewBox="0 0 512.293 512.293" style="enable-background:new 0 0 512.293 512.293;" xml:space="preserve">
<path style="fill:#F8B64C;" d="M290.28,44.8C288.146,19.2,264.68,0,239.08,0H42.813C19.346,0,0.146,19.2,0.146,42.667V460.8
	c0,25.6,19.2,49.067,44.8,51.2c29.867,3.2,54.4-20.267,54.4-49.067V99.2h141.867C270.013,99.2,293.48,73.6,290.28,44.8z"/>
<path style="fill:#F2F2F2;" d="M482.28,512H49.213V70.4c0-11.733,9.6-21.333,21.333-21.333h390.4c11.733,0,21.333,9.6,21.333,21.333
	L482.28,512L482.28,512z"/>
<g>
	<rect x="116.413" y="72.533" style="fill:#CDD6E0;" width="299.733" height="26.667"/>
	<rect x="116.413" y="123.733" style="fill:#CDD6E0;" width="299.733" height="26.667"/>
</g>
<path style="fill:#FFD15C;" d="M490.813,165.333H120.68c-11.733,0-21.333,9.6-21.333,21.333v265.6v9.6
	c0,27.733-22.4,49.067-49.067,49.067l0,0h440.533c11.733,0,21.333-9.6,21.333-21.333V186.667
	C512.146,174.933,502.546,165.333,490.813,165.333z"/>
<path style="fill:#FF7058;" d="M352.146,240c-18.133,0-35.2,8.533-46.933,21.333C293.48,248.533,276.413,240,258.28,240
	c-35.2,0-62.933,28.8-62.933,62.933c0,54.4,109.867,134.4,109.867,134.4s110.933-80,110.933-134.4
	C416.146,267.733,387.346,240,352.146,240z"/>
<path style="fill:#FFFFFF;" d="M315.88,381.867L315.88,381.867c-3.2,0-4.267-2.133-5.333-4.267l-9.6-82.133l-21.333,54.4
	c-1.067,2.133-2.133,3.2-4.267,3.2l0,0c-2.133,0-4.267-1.067-4.267-3.2l-12.8-35.2l-16,17.067c-1.067,1.067-2.133,1.067-3.2,1.067
	h-51.2c-3.2,0-5.333-2.133-5.333-5.333s2.133-5.333,5.333-5.333h49.067l20.267-21.333c1.067-1.067,3.2-2.133,4.267-1.067
	c2.133,0,3.2,1.067,3.2,3.2l10.667,29.867l23.467-60.8c1.067-2.133,3.2-3.2,5.333-3.2s4.267,2.133,4.267,4.267l9.6,84.267
	l24.533-52.267c1.067-2.133,2.133-3.2,4.267-3.2s3.2,1.067,4.267,2.133l18.133,32l6.4-12.8c1.067-2.133,2.133-3.2,4.267-3.2h41.6
	c3.2,0,5.333,2.133,5.333,5.333c0,3.2-2.133,5.333-5.333,5.333h-37.333l-9.6,21.333c-1.067,2.133-2.133,3.2-4.267,3.2l0,0
	c-2.133,0-3.2-1.067-4.267-2.133l-17.067-32l-27.733,58.667C320.146,380.8,318.013,381.867,315.88,381.867z"/>
<g>
</g>
<g>
</g>
<g>
</g>
<g>
</g>
<g>
</g>
<g>
</g>
<g>
</g>
<g>
</g>
<g>
</g>
<g>
</g>
<g>
</g>
<g>
</g>
<g>
</g>
<g>
</g>
<g>
</g>
</svg>
