<?xml version="1.0" encoding="iso-8859-1"?>
<!-- Generator: Adobe Illustrator 19.0.0, SVG Export Plug-In . SVG Version: 6.00 Build 0)  -->
<svg version="1.1" id="Capa_1" xmlns="http://www.w3.org/2000/svg" xmlns:xlink="http://www.w3.org/1999/xlink" x="0px" y="0px"
	 viewBox="0 0 503.008 503.008" style="enable-background:new 0 0 503.008 503.008;" xml:space="preserve">
<path style="fill:#6F7070;" d="M153.824,343.359c-0.32-1.456-1.76-2.368-3.2-2.048l-16.784,3.712l9.232,42.992l16.784-3.712
	c1.456-0.32,2.368-1.76,2.048-3.2L153.824,343.359z"/>
<circle style="fill:#F89E62;" cx="350.704" cy="233.327" r="77.264"/>
<path style="fill:#E5E5E5;" d="M14.176,178.975C6.336,178.975,0,185.327,0,193.151v80.352c0,7.84,6.352,14.176,14.176,14.176h22.88
	V178.975L14.176,178.975L14.176,178.975z"/>
<path style="fill:#CD494C;" d="M53.056,152.543c-8.832,0-16,7.168-16,16v129.552c0,8.832,7.168,16,16,16h113.936V152.543H53.056z"/>
<path style="fill:#ED6362;" d="M67.888,314.111L94.4,436.207c3.488,15.056,16.88,25.712,32.336,25.712l0,0
	c21.344,0,37.152-19.872,32.336-40.672l-23.056-107.136L67.888,314.111L67.888,314.111z"/>
<path style="fill:#E5E5E5;" d="M326.736,420.863L166.992,314.111V152.543L326.736,45.791c21.328-12.96,48.608,2.4,48.608,27.344
	v320.368C375.344,418.463,348.048,433.823,326.736,420.863z"/>
<path style="fill:#4B9FD8;" d="M326.736,45.791L326,46.239v374.176l0.736,0.448c21.328,12.96,48.608-2.4,48.608-27.344V73.135
	C375.344,48.191,348.048,32.831,326.736,45.791z"/>
<path style="fill:#D2545B;" d="M95.824,314.111c-6.672,0-12.096-5.408-12.096-12.096c0-6.672,5.408-12.096,12.096-12.096H112
	c5.6,0,10.144-4.576,10.112-10.176v-0.128c0-0.256,0-0.496,0.016-0.736c0.336-5.52-4.048-10.16-9.568-10.16H80.896
	c-6.544,0-12.416-4.912-12.768-11.44c-0.368-6.976,5.184-12.752,12.08-12.752h16.864c5.616,0,10.176-4.576,10.144-10.192v-0.704
	v-0.144c0.032-5.92-4.784-10.752-10.688-10.752h-34.8c-6.544,0-12.416-4.896-12.768-11.44c-0.368-6.992,5.184-12.752,12.08-12.752
	h57.152c5.84,0,10.208-4.912,10.128-10.752c0-0.048,0-0.096,0-0.144s0-0.096,0-0.144c0.064-5.84-4.288-10.752-10.128-10.752h-10
	c-6.544,0-12.416-4.912-12.768-11.44c-0.352-6.992,5.2-12.768,12.096-12.768h59.472v161.552H95.824V314.111z"/>
<g>
	<path style="fill:#DCDBDB;" d="M269.44,136.463l-27.392,18.576c-7.312,4.96-17.264,3.056-22.224-4.256s-3.056-17.264,4.256-22.224
		l27.392-18.576c7.312-4.96,17.264-3.056,22.224,4.256C278.656,121.551,276.752,131.503,269.44,136.463z"/>
	<path style="fill:#DCDBDB;" d="M309.872,109.023l-7.072,4.8c-7.312,4.96-17.264,3.056-22.224-4.256s-3.056-17.264,4.256-22.224
		l7.072-4.8c7.312-4.96,17.264-3.056,22.224,4.256C319.088,94.127,317.184,104.063,309.872,109.023z"/>
	<path style="fill:#DCDBDB;" d="M211.28,175.919l-0.432,0.288c-7.312,4.96-17.264,3.056-22.224-4.256s-3.056-17.264,4.256-22.224
		l0.432-0.288c7.312-4.96,17.264-3.056,22.224,4.256S218.592,170.959,211.28,175.919z"/>
</g>
<g>
	<path style="fill:#2B98D1;" d="M349.344,321.135c-6.048-0.032-10.976,4.848-11.008,10.896l0.144,57.664
		c-0.032,6.048,4.848,10.976,10.896,11.008c6.048,0.032,10.976-4.848,11.008-10.896l-0.144-57.664
		C360.272,326.095,355.392,321.167,349.344,321.135z"/>
	<path style="fill:#2B98D1;" d="M349.376,315.439c6.048,0.032,10.976-4.848,11.008-10.896l0.032-5.856
		c0.032-6.048-4.848-10.976-10.896-11.008c-6.048-0.032-10.976,4.848-11.008,10.896l-0.032,5.856
		C338.448,310.479,343.312,315.407,349.376,315.439z"/>
</g>
<g>
	<path style="fill:#DCDBDB;" d="M495.008,225.327h-46.336c-4.416,0-8,3.584-8,8s3.584,8,8,8h46.336c4.416,0,8-3.584,8-8
		S499.44,225.327,495.008,225.327z"/>
	<path style="fill:#DCDBDB;" d="M435.856,165.487l32.752-32.768c3.12-3.12,3.12-8.192,0-11.312s-8.192-3.12-11.312,0l-32.752,32.768
		c-3.12,3.12-3.12,8.192,0,11.312C427.68,168.607,432.736,168.607,435.856,165.487z"/>
	<path style="fill:#DCDBDB;" d="M435.856,301.167c-3.12-3.12-8.192-3.12-11.312,0s-3.12,8.192,0,11.312l32.752,32.768
		c3.12,3.12,8.192,3.12,11.312,0c3.12-3.12,3.12-8.192,0-11.312L435.856,301.167z"/>
</g>
<g>
</g>
<g>
</g>
<g>
</g>
<g>
</g>
<g>
</g>
<g>
</g>
<g>
</g>
<g>
</g>
<g>
</g>
<g>
</g>
<g>
</g>
<g>
</g>
<g>
</g>
<g>
</g>
<g>
</g>
</svg>
