<?xml version="1.0" encoding="iso-8859-1"?>
<!-- Generator: Adobe Illustrator 19.0.0, SVG Export Plug-In . SVG Version: 6.00 Build 0)  -->
<svg xmlns="http://www.w3.org/2000/svg" xmlns:xlink="http://www.w3.org/1999/xlink" version="1.1" id="Layer_1" x="0px" y="0px" viewBox="0 0 481.663 481.663" style="enable-background:new 0 0 481.663 481.663;" xml:space="preserve">
<path style="fill:#F6C358;" d="M50.118,123.975v-13.854h382.494v13.854v45.176h24.696v-62.645c0-9.035-7.831-16.866-16.866-16.866  H222.391c-7.831,0-15.059-4.216-19.275-10.842l-21.685-34.334c-4.216-6.626-11.445-10.842-19.275-10.842H41.685  c-9.035,0-16.866,7.831-16.866,16.866v118.061h24.696v-44.574H50.118z"/>
<rect x="50.118" y="109.519" style="fill:#EBF0F3;" width="382.494" height="13.854"/>
<rect x="50.118" y="123.975" style="fill:#FFFFFF;" width="382.494" height="45.176"/>
<path style="fill:#FCD462;" d="M465.139,169.151h-7.831h-24.696H50.118H24.819h-7.831c-10.24,0-18.071,8.433-16.866,18.673  l22.889,245.158c1.205,8.433,9.035,15.059,18.673,15.059H439.84c9.035,0,17.468-6.626,18.673-15.059l22.889-245.158  C483.21,177.584,475.379,169.151,465.139,169.151z"/>
<circle style="fill:#F6C358;" cx="241.064" cy="314.319" r="95.172"/>
<circle style="fill:#FFFFFF;" cx="241.064" cy="308.897" r="95.172"/>
<path style="fill:#E56353;" d="M300.697,244.446v89.148l0,0c0.602,7.228-6.626,15.661-18.071,19.275  c-4.216,1.205-7.831,1.807-11.445,1.807c-7.831,0-13.854-3.012-15.661-8.433c-2.409-7.831,4.819-17.468,18.071-21.685  c7.228-2.409,13.252-2.409,18.673-0.602v-46.984l-64.452,16.264v59.031l0,0c0.602,7.228-6.626,15.661-18.071,19.275  c-4.216,1.205-7.831,1.807-11.445,1.807c-7.831,0-13.854-3.012-15.661-8.433c-2.409-7.831,4.819-17.468,18.071-21.685  c7.228-2.409,13.252-2.409,18.673-0.602v-77.704L300.697,244.446z"/>
<g>
</g>
<g>
</g>
<g>
</g>
<g>
</g>
<g>
</g>
<g>
</g>
<g>
</g>
<g>
</g>
<g>
</g>
<g>
</g>
<g>
</g>
<g>
</g>
<g>
</g>
<g>
</g>
<g>
</g>
</svg>
