<svg id="Capa_1" enable-background="new 0 0 405.643 405.643" height="512" viewBox="0 0 405.643 405.643" width="512" xmlns="http://www.w3.org/2000/svg"><g><g><path d="m129.067 85.996c-20.481 11.281-35.046 30.908-39.91 53.778-1.793 8.805-2.012 17.859-.649 26.74 1.404 6.658 3.426 13.171 6.037 19.456 2.536 6.303 4.751 12.729 6.635 19.257 6.034 5.182 13.494 8.416 21.402 9.28 7.138.489 14.296-.618 20.953-3.242 6.385-2.593 11.125-4.439 14.966-6.335 3.89-2.054 7.441-4.696 10.526-7.832 6.649-7.017 12.109-15.071 16.164-23.846 4.978-9.773 8.924-20.039 11.773-30.63 3.66-14.245 8.827-28.057 15.415-41.206 4.989-9.528 7.882-14.966 7.882-14.966-28.324-15.729-62.716-15.898-91.194-.454z" fill="#65b54e"/><path d="m187.087 99.166c3.006-1.244 6.088-2.294 9.23-3.143-27.131 3.762-51.852 17.6-69.243 38.763 2.229-7.721 2.956-15.8 2.146-23.796-.278-2.752-1.073-5.426-2.345-7.882.363 12.385-.912 24.765-3.792 36.817-10.766 14.477-17.947 31.3-20.953 49.089-.975 6.749-2.442 13.419-4.389 19.954-1.596 4.873-3.881 9.492-6.785 13.719-2.348 2.799-1.991 6.97.799 9.329 4.439 3.842 13.619.399 15.415-6.135 6.037-18.807 3.043-35.321 6.735-48.74 9.86-10.049 23.029-16.183 37.067-17.261 6.742-.761 13.563-.441 20.204.947-11.043-4.066-22.929-5.301-34.572-3.592-6.774.913-13.209 3.521-18.707 7.583 7.153-16.883 18.277-31.789 32.426-43.452 6.686-2.958 14.101-3.861 21.302-2.593 2.899.504 5.686 1.518 8.231 2.993-6.736-4.668-14.977-6.645-23.098-5.538 2.693-1.996 5.338-3.842 7.931-5.438 7.092-4.553 14.59-8.445 22.398-11.624z" fill="#5fa348"/><path d="m179.753 121.515 1.746 1.147c-.561-.413-1.144-.796-1.746-1.147z" fill="#3c6b34"/><path d="m99.334 126.753s18.757-50.486 82.163-46.195c-34.025-1.829-66.043 16.173-82.163 46.195z" fill="#ebf0f3"/><path d="m243.828 236.506h21.252v35.818h-21.252z" fill="#1c2c35" transform="matrix(.707 -.707 .707 .707 -105.371 254.443)"/><g fill="#2f4859"><path d="m247.5 247.481c-56.605 56.624-148.396 56.641-205.021.035s-56.642-148.397-.036-205.021 148.396-56.641 205.021-.035c.012.012.024.023.035.035 56.509 56.645 56.509 148.34.001 204.986zm-187.826-187.825c-47.126 47.128-47.126 123.536.001 170.663s123.536 47.126 170.663-.001c47.126-47.128 47.126-123.534 0-170.662-47.16-47.046-123.501-47.046-170.664 0z"/><path d="m243.686 273.161 29.491-29.491c3.488-3.488 9.142-3.488 12.629 0l117.221 117.221c3.488 3.488 3.488 9.142 0 12.629l-29.491 29.491c-3.488 3.488-9.142 3.488-12.629 0l-117.221-117.221c-3.486-3.487-3.486-9.141 0-12.629z"/></g></g></g></svg>