<?xml version="1.0" encoding="iso-8859-1"?>
<!-- Generator: Adobe Illustrator 19.0.0, SVG Export Plug-In . SVG Version: 6.00 Build 0)  -->
<svg xmlns="http://www.w3.org/2000/svg" xmlns:xlink="http://www.w3.org/1999/xlink" version="1.1" id="Layer_1" x="0px" y="0px" viewBox="0 0 512.038 512.038" style="enable-background:new 0 0 512.038 512.038;" xml:space="preserve">
<path style="fill:#66C6B9;" d="M492.819,78.971c-8.533,20.267-30.933,29.867-51.2,21.333c-20.267-8.533-29.867-30.933-21.333-51.2  c20.267-52.267,91.733-49.067,91.733-49.067C489.619,32.038,504.552,49.105,492.819,78.971z"/>
<path style="fill:#415A6B;" d="M432.019,130.171c16-59.733,50.133-107.733,50.133-107.733c-32,38.4-56.533,75.733-65.067,107.733  L432.019,130.171L432.019,130.171z"/>
<path style="fill:#66C6B9;" d="M362.686,103.505c11.733,9.6,28.8,8.533,39.467-2.133c10.667-10.667,9.6-27.733-2.133-38.4  c-28.8-25.6-72.533-2.133-72.533-2.133C350.952,73.638,345.619,88.571,362.686,103.505z"/>
<path style="fill:#415A6B;" d="M426.686,130.171l4.267-4.267l-1.067-8.533c-17.067-13.867-41.6-36.267-78.933-51.2  C350.952,65.105,398.952,90.705,426.686,130.171z"/>
<polygon style="fill:#E8EAE9;" points="470.419,322.171 382.952,322.171 398.952,170.705 401.086,146.171 404.286,123.771   449.086,123.771 452.286,146.171 454.419,170.705 "/>
<polygon style="fill:#F3F3F3;" points="344.552,263.505 344.552,314.705 172.819,263.505 172.819,314.705 0.019,263.505   0.019,512.038 512.019,512.038 512.019,313.638 "/>
<g>
	<rect x="42.686" y="372.305" style="fill:#55C0EB;" width="100.267" height="58.667"/>
	<rect x="205.886" y="372.305" style="fill:#55C0EB;" width="100.267" height="58.667"/>
	<rect x="369.086" y="372.305" style="fill:#55C0EB;" width="100.267" height="58.667"/>
</g>
<polygon style="fill:#F3705A;" points="454.419,170.705 398.952,170.705 401.086,146.171 452.286,146.171 "/>
<g>
</g>
<g>
</g>
<g>
</g>
<g>
</g>
<g>
</g>
<g>
</g>
<g>
</g>
<g>
</g>
<g>
</g>
<g>
</g>
<g>
</g>
<g>
</g>
<g>
</g>
<g>
</g>
<g>
</g>
</svg>
