<svg height="512" viewBox="0 0 58 58" width="512" xmlns="http://www.w3.org/2000/svg"><g id="Page-1" fill="none" fill-rule="evenodd"><g id="096---Repair-Date"><path id="Path" d="m58 12v42c0 2.209139-1.790861 4-4 4h-50c-2.209139 0-4-1.790861-4-4v-42z" fill="#f9eab0"/><path id="Path" d="m58 8v4h-58v-4c0-2.209139 1.790861-4 4-4h50c2.209139 0 4 1.790861 4 4z" fill="#e64c3c"/><g fill="#bdc3c7"><rect id="Rectangle" height="8" rx="2" width="4" x="27"/><rect id="Rectangle" height="8" rx="2" width="4" x="17"/><rect id="Rectangle" height="8" rx="2" width="4" x="7"/><rect id="Rectangle" height="8" rx="2" width="4" x="47"/><rect id="Rectangle" height="8" rx="2" width="4" x="37"/></g><path id="Path" d="m29 34.04-3.45 2.58-6.8-6.8c-2.4294749.7794057-5.0903414.1953131-6.97-1.53-1.2405352-1.2915731-1.88572651-3.042289-1.78-4.83.0068529-.3971731.2497443-.7520461.6175053-.9021971.3677611-.1501509.7896194-.0666847 1.0724947.2121971l1.8 1.8c.2320139.2276801.5602179.328379.88.27l2.26-.47c.3725914-.0693941.6655432-.3583872.74-.73l.47-2.27c.058379-.3197821-.0423199-.6479861-.27-.88l-1.8-1.8c-.2788818-.2828753-.362348-.7047336-.2121971-1.0724947.150151-.367761.505024-.6106524.9021971-.6175053 1.787711-.1057265 3.5384269.5394648 4.83 1.78 1.7140619 1.8778322 2.290336 4.5302194 1.51 6.95l3.73 3.73-.07.07z" fill="#95a5a5"/><path id="Path" d="m35.47 38.54.07-.07 1.73 1.72c2.4211527-.7859528 5.0779814-.204891 6.95 1.52 1.2363424 1.294193 1.8808364 3.0430165 1.78 4.83-.0133243.3964602-.2597332.7475627-.628045.8948874-.3683119.1473247-.7888855.0630152-1.071955-.2148874l-1.81-1.79c-.2234791-.2349044-.5527937-.3371055-.87-.27l-2.27.45c-.3703625.0803484-.6596516.3696375-.74.74l-.45 2.27c-.0671055.3172063.0350956.6465209.27.87l1.79 1.81c.2779026.2830695.3622121.7036431.2148874 1.071955-.1473247.3683118-.4984272.6147207-.8948874.628045-1.7869835.1008364-3.535807-.5436576-4.83-1.78-1.7353768-1.8782521-2.3239431-4.5459094-1.54-6.98l-4.79-4.79 2.58-3.45z" fill="#95a5a5"/><path id="Path" d="m47.37 26.64-7.37 7.37c-.2705114.3030527-.6987004.4101-1.08.27-.768851-.3211906-1.6561812-.1341748-2.23.47-.6021445.5711862-.785604 1.4565776-.46 2.22.142458.3811699.0350723.8107127-.27 1.08l-.42.42-.07.07c-.7111045.7784702-1.9173945.8365509-2.7.13l-1.81-1.8-4.63-4.63c-.7065745-.7863443-.6485995-1.9949002.13-2.71l.49-.49c.2731485-.2986584.6984415-.4049816 1.08-.27.7664629.30584 1.6413861.1267219 2.225997-.4557157s.7669862-1.4566876.464003-2.2242843c-.142458-.3811699-.0350723-.8107127.27-1.08l7.37-7.38c.4959502-.5132371 1.2243378-.7294772 1.92-.57 1.8146056.5276402 3.4525346 1.5366597 4.74 2.92 1.386908 1.2845369 2.3965801 2.9235252 2.92 4.74.1609144.695707-.0555341 1.4247965-.57 1.92z" fill="#f29c1f"/><path id="Path" d="m34.89 28.281c-.4043959-.0000863-.7689341-.2437275-.923678-.6173454-.1547439-.373618-.0692299-.8036603.216678-1.0896546l4.469-4.469c.2527654-.2525868.6210837-.3511379.966213-.25853s.6146361.3623054.707.7075c.0923638.3451947-.0064476.7134432-.259213.96603l-4.466 4.468c-.1882272.1882861-.4437659.2937408-.71.293z" fill="#e57e25"/><path id="Path" d="m37.721 31.112c-.4043959-.0000863-.7689341-.2437275-.923678-.6173454-.1547439-.373618-.0692299-.8036603.216678-1.0896546l4.469-4.468c.2525868-.2531227.6210259-.3522643.96653-.260079.345504.0921852.6155827.3616921.7085.707s-.0054432.7139563-.25803.967079l-4.469 4.468c-.1882272.1882861-.4437659.2937408-.71.293z" fill="#e57e25"/><path id="Path" d="m30.96 36.87-2.58 2.58-7.6 7.61c-.0899759.0882923-.1613772.1936943-.21.31l-.94 2.17c-.2118594.5005337-.5849653.9158781-1.06 1.18l-3.91 2.18c-.3217325.1749087-.7201113.1179974-.98-.14l-1.44-1.44c-.2569458-.2563421-.3139736-.6514634-.14-.97l2.18-3.92c.2641219-.4750347.6794663-.8481406 1.18-1.06l2.17-.94c.1163057-.0486228.2217077-.1200241.31-.21l7.61-7.6 2.58-2.58z" fill="#bdc3c7"/><path id="Path" d="m28.14 34.03-.01.01" fill="#95a5a5"/><path id="Path" d="m30.97 36.86-.01.01" fill="#95a5a5"/><path id="Rectangle" d="m0 12h58v2h-58z" fill="#e4c05c"/></g></g></svg>