<?xml version="1.0" encoding="iso-8859-1"?>
<!-- Generator: Adobe Illustrator 19.0.0, SVG Export Plug-In . SVG Version: 6.00 Build 0)  -->
<svg version="1.1" id="Capa_1" xmlns="http://www.w3.org/2000/svg" xmlns:xlink="http://www.w3.org/1999/xlink" x="0px" y="0px"
	 viewBox="0 0 512 512" style="enable-background:new 0 0 512 512;" xml:space="preserve">
<path style="fill:#40596B;" d="M312.789,0H42.667C19.104,0,0,19.104,0,42.667v426.667C0,492.896,19.104,512,42.667,512h270.123
	c23.563,0,42.667-19.104,42.667-42.667V42.667C355.456,19.104,336.352,0,312.789,0"/>
<rect x="42.667" y="42.667" style="fill:#FFFFFF;" width="270.123" height="354.987"/>
<path style="fill:#334A5E;" d="M201.707,456.395c0,13.248-10.731,23.979-23.979,23.979s-24-10.731-24-23.979
	c0-13.248,10.752-24,24-24C190.976,432.395,201.707,443.147,201.707,456.395"/>
<path style="fill:#84DBFF;" d="M179.349,202.357h-101.6V100.768h101.6V202.357z M93.749,186.357h69.6v-69.579h-69.6V186.357z"/>
<polygon style="fill:#FF7058;" points="133.685,175.776 98.539,140.629 109.856,129.333 133.685,153.141 199.691,87.125 
	211.019,98.443 "/>
<path style="fill:#84DBFF;" d="M179.349,353.163h-101.6v-101.6h101.6V353.163z M93.749,337.163h69.6v-69.6h-69.6V337.163z"/>
<polygon style="fill:#FF7058;" points="133.685,326.56 98.539,291.413 109.856,280.128 133.685,303.936 199.691,237.92 
	211.019,249.227 "/>
<path style="fill:#FFD15C;" d="M492.853,141.024H290.731c-10.581,0-19.147,8.587-19.147,19.168v191.349
	c0,10.581,8.565,19.168,19.147,19.168h202.123c10.56,0,19.147-8.587,19.147-19.168V160.192
	C512,149.6,503.413,141.024,492.853,141.024"/>
<rect x="364.587" y="141.024" style="fill:#F8B64C;" width="54.357" height="60.896"/>
<g>
</g>
<g>
</g>
<g>
</g>
<g>
</g>
<g>
</g>
<g>
</g>
<g>
</g>
<g>
</g>
<g>
</g>
<g>
</g>
<g>
</g>
<g>
</g>
<g>
</g>
<g>
</g>
<g>
</g>
</svg>
