<?xml version="1.0" encoding="iso-8859-1"?>
<!-- Generator: Adobe Illustrator 19.0.0, SVG Export Plug-In . SVG Version: 6.00 Build 0)  -->
<svg xmlns="http://www.w3.org/2000/svg" xmlns:xlink="http://www.w3.org/1999/xlink" version="1.1" id="Capa_1" x="0px" y="0px" viewBox="0 0 411.1 411.1" style="enable-background:new 0 0 411.1 411.1;" xml:space="preserve">
<path style="fill:#44C4A1;" d="M149.25,0c0,0,103.4,24.6,65,123.9C213.75,123.9,114.45,108.5,149.25,0z"/>
<path style="fill:#3EA69B;" d="M149.25,0c-34.8,108.5,64.5,123.9,64.5,123.9L149.25,0z"/>
<path style="fill:#D15241;" d="M208.15,161.6c-0.1,0-0.3,0-0.4,0c-2.8-0.2-4.8-2.6-4.6-5.4c0.4-4.5,9.6-109.5,63.6-118.2  c2.7-0.4,5.3,1.4,5.7,4.1c0.4,2.7-1.4,5.3-4.1,5.7c-46.2,7.5-55.1,108.1-55.2,109.1C212.85,159.7,210.65,161.6,208.15,161.6z"/>
<ellipse style="fill:#3A556A;" cx="215.75" cy="198.6" rx="33.3" ry="40.4"/>
<path style="fill:#64798A;" d="M215.75,241.1c-19.5,0-35.3-19-35.3-42.4s15.8-42.4,35.3-42.4s35.3,19,35.3,42.4  S235.25,241.1,215.75,241.1z M215.75,160.2c-17.2,0-31.3,17.2-31.3,38.4s14,38.4,31.3,38.4c17.2,0,31.3-17.2,31.3-38.4  S233.05,160.2,215.75,160.2z"/>
<ellipse style="fill:#3A556A;" cx="169.15" cy="152.6" rx="33.3" ry="40.4"/>
<path style="fill:#64798A;" d="M169.15,195c-19.5,0-35.3-19-35.3-42.4s15.8-42.4,35.3-42.4s35.3,19,35.3,42.4S188.65,195,169.15,195  z M169.15,114.1c-17.2,0-31.3,17.2-31.3,38.4s14,38.4,31.3,38.4c17.2,0,31.3-17.2,31.3-38.4S186.45,114.1,169.15,114.1z"/>
<ellipse style="fill:#3A556A;" cx="169.15" cy="239.1" rx="33.3" ry="40.4"/>
<path style="fill:#64798A;" d="M169.15,281.5c-19.5,0-35.3-19-35.3-42.4s15.8-42.4,35.3-42.4s35.3,19,35.3,42.4  S188.65,281.5,169.15,281.5z M169.15,200.6c-17.2,0-31.3,17.2-31.3,38.4s14,38.4,31.3,38.4c17.2,0,31.3-17.2,31.3-38.4  S186.45,200.6,169.15,200.6z"/>
<ellipse style="fill:#3A556A;" cx="255.75" cy="140.3" rx="33.3" ry="40.4"/>
<path style="fill:#64798A;" d="M255.75,182.7c-19.5,0-35.3-19-35.3-42.4s15.8-42.4,35.3-42.4s35.3,19,35.3,42.4  S275.15,182.7,255.75,182.7z M255.75,101.8c-17.2,0-31.3,17.2-31.3,38.4s14,38.4,31.3,38.4c17.3,0,31.3-17.2,31.3-38.4  S272.95,101.8,255.75,101.8z"/>
<ellipse style="fill:#3A556A;" cx="271.55" cy="218.6" rx="33.3" ry="40.4"/>
<path style="fill:#64798A;" d="M271.55,261c-19.5,0-35.3-19-35.3-42.4s15.8-42.4,35.3-42.4s35.3,19,35.3,42.4S291.05,261,271.55,261  z M271.55,180.2c-17.2,0-31.3,17.2-31.3,38.4s14,38.4,31.3,38.4c17.3,0,31.3-17.2,31.3-38.4S288.85,180.2,271.55,180.2z"/>
<ellipse style="fill:#3A556A;" cx="228.05" cy="272.9" rx="33.3" ry="40.4"/>
<path style="fill:#64798A;" d="M228.05,315.3c-19.5,0-35.3-19-35.3-42.4c0-23.4,15.8-42.4,35.3-42.4s35.3,19,35.3,42.4  C263.35,296.3,247.55,315.3,228.05,315.3z M228.05,234.4c-17.2,0-31.3,17.2-31.3,38.4c0,21.2,14,38.4,31.3,38.4  c17.2,0,31.3-17.2,31.3-38.4C259.35,251.6,245.35,234.4,228.05,234.4z"/>
<ellipse style="fill:#3A556A;" cx="181.95" cy="308.7" rx="33.3" ry="40.4"/>
<path style="fill:#64798A;" d="M181.95,351.2c-19.5,0-35.3-19-35.3-42.4c0-23.4,15.8-42.4,35.3-42.4s35.3,19,35.3,42.4  C217.25,332.2,201.45,351.2,181.95,351.2z M181.95,270.3c-17.2,0-31.3,17.2-31.3,38.4c0,21.2,14,38.4,31.3,38.4  c17.2,0,31.3-17.2,31.3-38.4C213.25,287.5,199.25,270.3,181.95,270.3z"/>
<ellipse style="fill:#3A556A;" cx="282.35" cy="287.7" rx="33.3" ry="40.4"/>
<path style="fill:#64798A;" d="M282.35,330.2c-19.5,0-35.3-19-35.3-42.4c0-23.4,15.8-42.4,35.3-42.4s35.3,19,35.3,42.4  C317.65,311.2,301.85,330.2,282.35,330.2z M282.35,249.3c-17.2,0-31.3,17.2-31.3,38.4c0,21.2,14,38.4,31.3,38.4s31.3-17.2,31.3-38.4  C313.65,266.5,299.55,249.3,282.35,249.3z"/>
<ellipse style="fill:#3A556A;" cx="237.85" cy="340.5" rx="33.3" ry="40.4"/>
<path style="fill:#64798A;" d="M237.85,382.9c-19.5,0-35.3-19-35.3-42.4s15.8-42.4,35.3-42.4s35.3,19,35.3,42.4  C273.15,363.9,257.25,382.9,237.85,382.9z M237.85,302c-17.2,0-31.3,17.2-31.3,38.4s14,38.4,31.3,38.4c17.3,0,31.3-17.2,31.3-38.4  S255.05,302,237.85,302z"/>
<ellipse style="fill:#3A556A;" cx="128.75" cy="193" rx="33.3" ry="40.4"/>
<path style="fill:#64798A;" d="M128.75,235.4c-19.5,0-35.3-19-35.3-42.4s15.8-42.4,35.3-42.4s35.3,19,35.3,42.4  S148.25,235.4,128.75,235.4z M128.75,154.6c-17.2,0-31.3,17.2-31.3,38.4s14,38.4,31.3,38.4c17.2,0,31.3-17.2,31.3-38.4  S145.95,154.6,128.75,154.6z"/>
<ellipse style="fill:#3A556A;" cx="128.75" cy="259.6" rx="33.3" ry="40.4"/>
<path style="fill:#64798A;" d="M128.75,302c-19.5,0-35.3-19-35.3-42.4c0-23.4,15.8-42.4,35.3-42.4s35.3,19,35.3,42.4  C164.05,283,148.25,302,128.75,302z M128.75,221.1c-17.2,0-31.3,17.2-31.3,38.4c0,21.2,14,38.4,31.3,38.4  c17.2,0,31.3-17.2,31.3-38.4C160.05,238.3,145.95,221.1,128.75,221.1z"/>
<ellipse style="fill:#3A556A;" cx="135.95" cy="328.2" rx="33.3" ry="40.4"/>
<path style="fill:#64798A;" d="M135.95,370.6c-19.5,0-35.3-19-35.3-42.4s15.8-42.4,35.3-42.4s35.3,19,35.3,42.4  S155.35,370.6,135.95,370.6z M135.95,289.7c-17.2,0-31.3,17.2-31.3,38.4c0,21.2,14,38.4,31.3,38.4c17.2,0,31.3-17.2,31.3-38.4  S153.15,289.7,135.95,289.7z"/>
<ellipse style="fill:#3A556A;" cx="188.65" cy="368.6" rx="33.3" ry="40.4"/>
<path style="fill:#64798A;" d="M188.65,411.1c-19.5,0-35.3-19-35.3-42.4s15.8-42.4,35.3-42.4s35.3,19,35.3,42.4  C223.95,392,208.15,411.1,188.65,411.1z M188.65,330.2c-17.2,0-31.3,17.2-31.3,38.4s14,38.4,31.3,38.4c17.3,0,31.3-17.2,31.3-38.4  S205.95,330.2,188.65,330.2z"/>
<g>
</g>
<g>
</g>
<g>
</g>
<g>
</g>
<g>
</g>
<g>
</g>
<g>
</g>
<g>
</g>
<g>
</g>
<g>
</g>
<g>
</g>
<g>
</g>
<g>
</g>
<g>
</g>
<g>
</g>
</svg>
