<?xml version="1.0" encoding="iso-8859-1"?>
<!-- Generator: Adobe Illustrator 19.0.0, SVG Export Plug-In . SVG Version: 6.00 Build 0)  -->
<svg version="1.1" id="Capa_1" xmlns="http://www.w3.org/2000/svg" xmlns:xlink="http://www.w3.org/1999/xlink" x="0px" y="0px"
	 viewBox="0 0 468.293 468.293" style="enable-background:new 0 0 468.293 468.293;" xml:space="preserve">
<path style="fill:#D5D6DB;" d="M276.572,418.112L126.384,246.169L244.323,99.906c3.85-4.777,3.1-11.766-1.675-15.618
	c-4.777-3.853-11.768-3.102-15.618,1.675L103.24,239.483c-3.384,4.195-3.265,10.217,0.282,14.278L247.08,418.112H276.572z"/>
<path style="fill:#64798A;" d="M98.641,277.499l-17.797-17.797c-7.315-7.315-7.315-19.175,0-26.491l17.797-17.797
	c7.315-7.315,19.175-7.315,26.491,0l17.797,17.797c7.315,7.315,7.315,19.175,0,26.491l-17.797,17.797
	C117.816,284.814,105.956,284.814,98.641,277.499z"/>
<path style="fill:#FFFFFF;" d="M97.144,242.041l10.327-10.328c2.438-2.439,6.392-2.439,8.831,0l10.327,10.328
	c2.438,2.438,2.438,6.391,0,8.83l-10.327,10.328c-2.438,2.439-6.392,2.439-8.831,0L97.144,250.87
	C94.706,248.432,94.706,244.479,97.144,242.041z"/>
<path style="fill:#D15241;" d="M244.947,99.509l-41.909-26.661c-5.477-3.484-6.319-11.145-1.729-15.735L255.45,2.972
	c4.59-4.59,12.251-3.749,15.735,1.728l26.661,41.909L244.947,99.509z"/>
<ellipse style="fill:#F6C358;" cx="326.766" cy="128.444" rx="40.286" ry="40.286"/>
<path style="fill:#E56353;" d="M257.578,59.241c-36.472,36.472-38.126,94.576-4.963,133.011c2.573,2.981,7.158,3.145,9.943,0.361
	L390.949,64.22c2.784-2.784,2.621-7.37-0.361-9.943C352.154,21.114,294.05,22.769,257.578,59.241z"/>
<path style="fill:#D15241;" d="M354.755,468.293H180.394v-12.717c0-20.691,16.773-37.463,37.463-37.463h99.434
	c20.69,0,37.463,16.773,37.463,37.463V468.293z"/>
<g>
</g>
<g>
</g>
<g>
</g>
<g>
</g>
<g>
</g>
<g>
</g>
<g>
</g>
<g>
</g>
<g>
</g>
<g>
</g>
<g>
</g>
<g>
</g>
<g>
</g>
<g>
</g>
<g>
</g>
</svg>
