<?xml version="1.0" encoding="iso-8859-1"?>
<!-- Generator: Adobe Illustrator 19.0.0, SVG Export Plug-In . SVG Version: 6.00 Build 0)  -->
<svg version="1.1" id="Capa_1" xmlns="http://www.w3.org/2000/svg" xmlns:xlink="http://www.w3.org/1999/xlink" x="0px" y="0px"
	 viewBox="0 0 512 512" style="enable-background:new 0 0 512 512;" xml:space="preserve">
<path style="fill:#D32F2F;" d="M464,320H48c-26.496,0-48-21.504-48-48l0,0c0-26.496,21.504-48,48-48h416c26.496,0,48,21.504,48,48
	l0,0C512,298.496,490.496,320,464,320z"/>
<g>
	<path style="fill:#FFC107;" d="M48.96,224h414.08c4.608,0,8.96-1.984,12-5.408s4.448-8.032,3.872-12.608
		C469.792,134.144,408.352,80,336,80H176c-72.352,0-133.824,54.144-142.912,125.984c-0.576,4.576,0.832,9.152,3.872,12.608
		C40,222.016,44.352,224,48.96,224z"/>
	<path style="fill:#FFC107;" d="M464,320H48c-8.832,0-16,7.168-16,16v16c0,44.128,35.904,80,80,80h288c44.128,0,80-35.872,80-80v-16
		C480,327.168,472.832,320,464,320z"/>
</g>
<g>
</g>
<g>
</g>
<g>
</g>
<g>
</g>
<g>
</g>
<g>
</g>
<g>
</g>
<g>
</g>
<g>
</g>
<g>
</g>
<g>
</g>
<g>
</g>
<g>
</g>
<g>
</g>
<g>
</g>
</svg>
