<?xml version="1.0" encoding="iso-8859-1"?>
<!-- Generator: Adobe Illustrator 19.0.0, SVG Export Plug-In . SVG Version: 6.00 Build 0)  -->
<svg version="1.1" id="Capa_1" xmlns="http://www.w3.org/2000/svg" xmlns:xlink="http://www.w3.org/1999/xlink" x="0px" y="0px"
	 viewBox="0 0 512 512" style="enable-background:new 0 0 512 512;" xml:space="preserve">
<rect x="152" style="fill:#F3F3F3;" width="343.467" height="512"/>
<path style="fill:#55C0EB;" d="M105.067,0C81.6,0,62.4,19.2,62.4,42.667v426.667C62.4,492.8,81.6,512,105.067,512H152V0H105.067z"/>
<g>
	<path style="fill:#415A6B;" d="M41.067,134.4h41.6c12.8,0,24.533-10.667,24.533-24.533c0-12.8-10.667-24.533-24.533-24.533h-41.6
		c-12.8,0-24.533,10.667-24.533,24.533C17.6,123.733,28.267,134.4,41.067,134.4z"/>
	<path style="fill:#415A6B;" d="M82.667,377.6h-41.6c-12.8,0-24.533,10.667-24.533,24.533c0,12.8,10.667,24.533,24.533,24.533h41.6
		c12.8,0,24.533-10.667,24.533-24.533C107.2,388.267,96.533,377.6,82.667,377.6z"/>
</g>
<path style="fill:#F3705A;" d="M444.267,246.4L337.6,139.733c-7.467-7.467-19.2-7.467-26.667,0L204.267,246.4
	c-7.467,7.467-7.467,19.2,0,26.667s19.2,7.467,26.667,0l92.8-92.8l92.8,92.8c7.467,7.467,19.2,7.467,26.667,0
	C451.733,266.667,451.733,253.867,444.267,246.4z"/>
<polygon style="fill:#FFD15C;" points="323.733,181.333 230.933,274.133 230.933,377.6 416.533,377.6 416.533,274.133 "/>
<rect x="292.8" y="305.067" style="fill:#415A6B;" width="61.867" height="71.467"/>
<g>
</g>
<g>
</g>
<g>
</g>
<g>
</g>
<g>
</g>
<g>
</g>
<g>
</g>
<g>
</g>
<g>
</g>
<g>
</g>
<g>
</g>
<g>
</g>
<g>
</g>
<g>
</g>
<g>
</g>
</svg>
