<svg id="color" enable-background="new 0 0 24 24" height="512" viewBox="0 0 24 24" width="512" xmlns="http://www.w3.org/2000/svg"><path d="m3.17 9.97c-.12 0-.24-.029-.349-.086-1.74-.913-2.821-2.693-2.821-4.644 0-2.889 2.351-5.24 5.24-5.24 1.951 0 3.73 1.081 4.644 2.821.103.197.114.429.03.634-.084.206-.255.363-.467.43-2.644.839-4.723 2.918-5.562 5.561-.067.212-.224.383-.43.467-.091.038-.188.057-.285.057z" fill="#607d8b"/><path d="m1.537 1.536c-.949.949-1.537 2.259-1.537 3.704 0 1.951 1.081 3.73 2.821 4.644.109.057.229.086.349.086.097 0 .194-.019.285-.056.206-.084.363-.255.43-.467.419-1.322 1.149-2.502 2.104-3.458z" fill="#546d79"/><path d="m20.83 9.97c-.097 0-.194-.019-.285-.056-.206-.084-.363-.255-.43-.467-.839-2.644-2.918-4.723-5.562-5.562-.212-.067-.383-.224-.467-.43-.084-.205-.073-.437.03-.634.913-1.74 2.693-2.821 4.644-2.821 2.889 0 5.24 2.351 5.24 5.24 0 1.951-1.081 3.73-2.821 4.644-.109.057-.229.086-.349.086z" fill="#607d8b"/><path d="m22.463 1.536-4.452 4.452c.955.955 1.685 2.136 2.104 3.458.067.212.224.383.43.467.091.038.188.056.285.056.12 0 .24-.029.349-.086 1.74-.912 2.821-2.692 2.821-4.643 0-1.445-.588-2.755-1.537-3.704z" fill="#546d79"/><path d="m19.001 24c-.333 0-.659-.166-.849-.469l-2.01-3.21c-.293-.468-.151-1.085.317-1.378s1.085-.151 1.378.317l2.01 3.21c.293.468.151 1.085-.317 1.378-.164.103-.348.152-.529.152z" fill="#cfd8dc"/><path d="m16.459 18.942c-.468.293-.61.91-.317 1.378l2.01 3.21c.19.304.516.47.849.47.181 0 .365-.049.53-.152z" fill="#b4bcc0"/><path d="m4.999 24c-.181 0-.365-.049-.53-.152-.468-.293-.61-.91-.317-1.378l2.01-3.21c.293-.468.909-.61 1.378-.317.468.293.61.91.317 1.378l-2.01 3.21c-.189.303-.515.469-.848.469z" fill="#cfd8dc"/><path d="m7.541 18.942-3.071 4.905c.164.104.348.153.529.153.333 0 .659-.166.849-.469l2.01-3.21c.292-.468.15-1.086-.317-1.379z" fill="#b4bcc0"/><path d="m12 22c-5.514 0-10-4.486-10-10 0-1.022.153-2.033.454-3.002.987-3.113 3.431-5.557 6.54-6.543 1.948-.604 4.07-.603 6.009-.001 3.113.987 5.557 3.431 6.542 6.54.302.973.455 1.984.455 3.006 0 5.514-4.486 10-10 10z" fill="#f5f5f5"/><path d="m12 2.002c-1.016 0-2.033.151-3.007.453-3.108.986-5.552 3.43-6.54 6.543-.3.969-.453 1.98-.453 3.002 0 5.514 4.486 10 10 10z" fill="#d5d5d5"/><path d="m12 13h-5c-.552 0-1-.448-1-1s.448-1 1-1h4v-4c0-.552.448-1 1-1s1 .448 1 1v5c0 .552-.448 1-1 1z" fill="#607d8b"/><path d="m12 6c-.552 0-1 .448-1 1v4h-4c-.552 0-1 .448-1 1h6z" fill="#546d79"/></svg>