<?xml version="1.0" encoding="iso-8859-1"?>
<!-- Generator: Adobe Illustrator 19.0.0, SVG Export Plug-In . SVG Version: 6.00 Build 0)  -->
<svg version="1.1" id="Capa_1" xmlns="http://www.w3.org/2000/svg" xmlns:xlink="http://www.w3.org/1999/xlink" x="0px" y="0px"
	 viewBox="0 0 512 512" style="enable-background:new 0 0 512 512;" xml:space="preserve">
<path style="fill:#F3F3F3;" d="M409.6,0H32C13.867,0,0,13.867,0,32v298.667c0,18.133,13.867,32,32,32h448c18.133,0,32-13.867,32-32
	V102.4L409.6,0z"/>
<g>
	<polygon style="fill:#CED6E0;" points="512,102.4 409.6,0 409.6,102.4 	"/>
	<rect x="53.333" y="169.6" style="fill:#CED6E0;" width="405.333" height="21.333"/>
	<rect x="53.333" y="227.2" style="fill:#CED6E0;" width="405.333" height="21.333"/>
	<rect x="53.333" y="290.133" style="fill:#CED6E0;" width="405.333" height="21.333"/>
</g>
<polygon style="fill:#F05540;" points="232.533,377.6 305.067,512 323.2,467.2 371.2,476.8 318.933,377.6 "/>
<polygon style="fill:#F3705A;" points="193.067,377.6 140.8,476.8 188.8,467.2 206.933,512 279.467,377.6 "/>
<circle style="fill:#FFD15C;" cx="256" cy="294.4" r="107.733"/>
<circle style="fill:#F7B64C;" cx="256" cy="294.4" r="73.6"/>
<rect x="53.333" y="59.733" style="fill:#66C6B9;" width="170.667" height="21.333"/>
<g>
</g>
<g>
</g>
<g>
</g>
<g>
</g>
<g>
</g>
<g>
</g>
<g>
</g>
<g>
</g>
<g>
</g>
<g>
</g>
<g>
</g>
<g>
</g>
<g>
</g>
<g>
</g>
<g>
</g>
</svg>
