<?xml version="1.0" encoding="iso-8859-1"?>
<!-- Generator: Adobe Illustrator 19.0.0, SVG Export Plug-In . SVG Version: 6.00 Build 0)  -->
<svg version="1.1" id="Capa_1" xmlns="http://www.w3.org/2000/svg" xmlns:xlink="http://www.w3.org/1999/xlink" x="0px" y="0px"
	 viewBox="0 0 511.708 511.708" style="enable-background:new 0 0 511.708 511.708;" xml:space="preserve">
<path style="fill:#E8EAE9;" d="M255.584,68.787L48.651,213.854v178.133c0,18.133,13.867,32,32,32h16v87.467l137.6-87.467h196.267
	c18.133,0,32-13.867,32-32V213.854L255.584,68.787z"/>
<g>
	<circle style="fill:#F3705A;" cx="137.184" cy="273.587" r="30.933"/>
	<circle style="fill:#F3705A;" cx="255.584" cy="273.587" r="30.933"/>
	<circle style="fill:#F3705A;" cx="373.984" cy="273.587" r="30.933"/>
</g>
<path style="fill:#415A6B;" d="M497.717,161.587l-59.733-41.6V31.454h-57.6v49.067L272.651,5.854c-10.667-7.467-25.6-7.467-36.267,0
	L13.451,161.587c-13.867,9.6-18.133,29.867-7.467,43.733l0,0c9.6,13.867,29.867,18.133,43.733,7.467l205.867-144l206.933,144
	c13.867,9.6,34.133,6.4,43.733-7.467S512.651,172.254,497.717,161.587z"/>
<g>
</g>
<g>
</g>
<g>
</g>
<g>
</g>
<g>
</g>
<g>
</g>
<g>
</g>
<g>
</g>
<g>
</g>
<g>
</g>
<g>
</g>
<g>
</g>
<g>
</g>
<g>
</g>
<g>
</g>
</svg>
