<svg height="512" viewBox="0 0 57 58" width="512" xmlns="http://www.w3.org/2000/svg"><g id="Page-1" fill="none" fill-rule="evenodd"><g id="099---Protected-File" fill-rule="nonzero"><path id="Shape" d="m44 14v-10c0-2.209139-1.790861-4-4-4h-35l-5 23v31c0 2.209139 1.790861 4 4 4h36c2.209139 0 4-1.790861 4-4z" fill="#f0c419"/><path id="Shape" d="m5 0 7.341 6.007c.910431.74520829 1.4466149 1.85344064 1.4658808 3.02981165.0192658 1.17637105-.4803406 2.30156685-1.3658808 3.07618835l-12.441 10.887z" fill="#f3d55b"/><path id="Shape" d="m4 28c-.55228475 0-1-.4477153-1-1v-2c0-.5522847.44771525-1 1-1s1 .4477153 1 1v2c0 .5522847-.44771525 1-1 1z" fill="#f3d55b"/><path id="Shape" d="m4 50c-.55228475 0-1-.4477153-1-1v-18c0-.5522847.44771525-1 1-1s1 .4477153 1 1v18c0 .5522847-.44771525 1-1 1z" fill="#f3d55b"/><g fill="#e57e25"><path id="Shape" d="m20 11h-2c-.5522847 0-1-.4477153-1-1 0-.55228475.4477153-1 1-1h2c.5522847 0 1 .44771525 1 1 0 .5522847-.4477153 1-1 1z"/><path id="Shape" d="m27.95 11h-3.95c-.5522847 0-1-.4477153-1-1 0-.55228475.4477153-1 1-1h3.95c.5522847 0 1 .44771525 1 1 0 .5522847-.4477153 1-1 1z"/><path id="Shape" d="m29.04 17h-7.04c-.5522847 0-1-.4477153-1-1s.4477153-1 1-1h7.04c.5522847 0 1 .4477153 1 1s-.4477153 1-1 1z"/><path id="Shape" d="m18 17h-4c-.5522847 0-1-.4477153-1-1s.4477153-1 1-1h4c.5522847 0 1 .4477153 1 1s-.4477153 1-1 1z"/></g><path id="Shape" d="m56.02 20.98c-7.57-.27-11.77-3.63-13.32-5.19-.3866109-.3865714-1.0133891-.3865714-1.4 0-1.55 1.56-5.75 4.92-13.32 5.19-.5417537.0171041-.9738428.4580113-.98 1v11.02s0 15 15 15 15-15 15-15v-11.02c-.0061572-.5419887-.4382463-.9828959-.98-1z" fill="#3b97d3"/><path id="Shape" d="m57 31v2s0 15-15 15v-17z" fill="#2980ba"/><path id="Shape" d="m42 15.5v15.5h-15v-9.02c.0061572-.5419887.4382463-.9828959.98-1 7.57-.27 11.77-3.63 13.32-5.19.1873848-.1830474.4380653-.2869007.7-.29z" fill="#2980ba"/></g></g></svg>