<?xml version="1.0" encoding="iso-8859-1"?>
<!-- Generator: Adobe Illustrator 19.0.0, SVG Export Plug-In . SVG Version: 6.00 Build 0)  -->
<svg xmlns="http://www.w3.org/2000/svg" xmlns:xlink="http://www.w3.org/1999/xlink" version="1.1" id="Layer_1" x="0px" y="0px" viewBox="0 0 512 512" style="enable-background:new 0 0 512 512;" xml:space="preserve">
<g>
	<polygon style="fill:#F7B64C;" points="123.733,460.8 123.733,512 158.933,512 184.533,460.8  "/>
	<path style="fill:#F7B64C;" d="M209.067,52.267V38.4c0-7.467,5.333-12.8,12.8-12.8h55.467c7.467,0,12.8,5.333,12.8,12.8v13.867   h25.6V38.4c0-21.333-17.067-38.4-38.4-38.4h-55.467c-21.333,0-38.4,17.067-38.4,38.4v13.867   C183.467,52.267,209.067,52.267,209.067,52.267z"/>
</g>
<path style="fill:#FFD15C;" d="M408.533,146.133v291.2c0,21.333-17.067,38.4-38.4,38.4H124.8c-21.333,0-38.4-17.067-38.4-38.4  v-291.2H408.533z"/>
<g>
	<path style="fill:#F7B64C;" d="M152.533,230.4v147.2c0,18.133,14.933,33.067,33.067,33.067l0,0   c18.133,0,33.067-14.933,33.067-33.067V230.4c0-18.133-14.933-33.067-33.067-33.067l0,0   C166.4,197.333,152.533,212.267,152.533,230.4z"/>
	<path style="fill:#F7B64C;" d="M278.4,230.4v147.2c0,18.133,14.933,33.067,33.067,33.067l0,0c18.133,0,33.067-14.933,33.067-33.067   V230.4c0-18.133-14.933-33.067-33.067-33.067l0,0C292.267,197.333,278.4,212.267,278.4,230.4z"/>
	<path style="fill:#F7B64C;" d="M422.4,149.333H76.8c-12.8,0-22.4-9.6-22.4-22.4s9.6-22.4,22.4-22.4h345.6   c12.8,0,22.4,9.6,22.4,22.4S435.2,149.333,422.4,149.333z"/>
</g>
<path style="fill:#FFD15C;" d="M422.4,104.533C422.4,104.533,423.467,104.533,422.4,104.533c-8.533-30.933-37.333-54.4-72.533-54.4  H149.333c-34.133,0-64,22.4-73.6,54.4H76.8H422.4z"/>
<circle style="fill:#415A6B;" cx="391.467" cy="445.867" r="66.133"/>
<circle style="fill:#CED6E0;" cx="391.467" cy="445.867" r="30.933"/>
<g>
</g>
<g>
</g>
<g>
</g>
<g>
</g>
<g>
</g>
<g>
</g>
<g>
</g>
<g>
</g>
<g>
</g>
<g>
</g>
<g>
</g>
<g>
</g>
<g>
</g>
<g>
</g>
<g>
</g>
</svg>
