<?xml version="1.0" encoding="iso-8859-1"?>
<!-- Generator: Adobe Illustrator 19.0.0, SVG Export Plug-In . SVG Version: 6.00 Build 0)  -->
<svg version="1.1" id="Capa_1" xmlns="http://www.w3.org/2000/svg" xmlns:xlink="http://www.w3.org/1999/xlink" x="0px" y="0px"
	 viewBox="0 0 512 512" style="enable-background:new 0 0 512 512;" xml:space="preserve">
<path style="fill:#CACACA;" d="M147.106,324.56V34.336H32.002c-17.68,0-32,14.32-32,32V480c0,17.68,14.32,32,32,32h322.48
	c17.68,0,32-14.32,32-32V324.56H147.106z"/>
<path style="fill:#F3F3F3;" d="M307.922,0H66.338c-17.664,0-32,14.32-32,32v413.664c0,17.664,14.32,32,32,32h322.464
	c17.68,0,32-14.336,32-32V112.88L307.922,0z"/>
<path style="fill:#CACACA;" d="M307.922,80.88c0,17.68,14.336,32,32,32h80.88L307.922,0V80.88z"/>
<g style="opacity:0.15;">
	<path style="fill:#FFFFFF;" d="M322.818,53.584c-6.656,5.808-7.36,15.904-1.536,22.576l22.032,25.264
		c5.808,6.672,15.92,7.344,22.576,1.536c6.656-5.808,7.344-15.92,1.536-22.576L345.378,55.12
		C339.57,48.448,329.474,47.76,322.818,53.584z"/>
</g>
<g>
	<path style="fill:#D8D6D6;" d="M161.602,399.76H93.538c-8.848,0-16,7.168-16,16s7.152,16,16,16h68.064c8.848,0,16-7.168,16-16
		C177.602,406.912,170.45,399.76,161.602,399.76z"/>
	<path style="fill:#D8D6D6;" d="M361.602,399.76h-68.064c-8.848,0-16,7.168-16,16s7.152,16,16,16h68.064c8.848,0,16-7.168,16-16
		C377.602,406.912,370.45,399.76,361.602,399.76z"/>
	<path style="fill:#D8D6D6;" d="M361.602,319.76H93.538c-8.848,0-16,7.168-16,16s7.152,16,16,16h268.064c8.848,0,16-7.168,16-16
		C377.602,326.912,370.45,319.76,361.602,319.76z"/>
	<path style="fill:#D8D6D6;" d="M93.538,271.76h268.064c8.848,0,16-7.168,16-16s-7.152-16-16-16H93.538c-8.848,0-16,7.168-16,16
		S84.69,271.76,93.538,271.76z"/>
	<path style="fill:#D8D6D6;" d="M93.538,191.76h116.064c8.848,0,16-7.168,16-16s-7.152-16-16-16H93.538c-8.848,0-16,7.168-16,16
		S84.69,191.76,93.538,191.76z"/>
	<path style="fill:#D8D6D6;" d="M93.538,111.76h116.064c8.848,0,16-7.168,16-16s-7.152-16-16-16H93.538c-8.848,0-16,7.168-16,16
		S84.69,111.76,93.538,111.76z"/>
</g>
<g style="opacity:0.07;">
	<path style="fill:#010101;" d="M420.802,445.664V204.08l-236.24,236.256l37.344,37.344h166.896
		C406.482,477.664,420.802,463.344,420.802,445.664z"/>
</g>
<rect x="310.144" y="113.249" transform="matrix(-0.7071 -0.7071 0.7071 -0.7071 385.026 724.2181)" style="fill:#4B9FD8;" width="64.719" height="338.237"/>
<rect x="423.897" y="160.274" transform="matrix(-0.7071 -0.7071 0.7071 -0.7071 659.6752 610.403)" style="fill:#F3F3F3;" width="64.719" height="16.608"/>
<path style="fill:#E95454;" d="M502.53,122.368c-12.64-12.64-33.136-12.64-45.776,0l-17.504,17.504l45.776,45.776l17.504-17.504
	C515.154,155.488,515.154,135.008,502.53,122.368z"/>
<polygon style="fill:#FFCC5B;" points="245.874,424.784 200.114,379.008 184.562,440.336 "/>
<polygon style="fill:#464646;" points="210.274,433.808 191.074,414.608 184.562,440.336 "/>
<g>
	<path style="fill:#51B7E8;" d="M318.37,306.512c-6.256-6.256-6.256-16.368,0-22.624l74.528-74.528
		c6.256-6.256,16.384-6.256,22.624,0c6.256,6.256,6.256,16.368,0,22.624l-74.528,74.528
		C334.754,312.768,324.626,312.768,318.37,306.512z"/>
	<path style="fill:#51B7E8;" d="M269.586,355.296c-6.24-6.256-6.256-16.368,0-22.624l16.192-16.192
		c6.256-6.256,16.384-6.24,22.624,0c6.24,6.256,6.256,16.368,0,22.624l-16.192,16.192
		C285.97,361.552,275.842,361.536,269.586,355.296z"/>
</g>
<g>
</g>
<g>
</g>
<g>
</g>
<g>
</g>
<g>
</g>
<g>
</g>
<g>
</g>
<g>
</g>
<g>
</g>
<g>
</g>
<g>
</g>
<g>
</g>
<g>
</g>
<g>
</g>
<g>
</g>
</svg>
