<?xml version="1.0" encoding="iso-8859-1"?>
<!-- Generator: Adobe Illustrator 19.0.0, SVG Export Plug-In . SVG Version: 6.00 Build 0)  -->
<svg version="1.1" id="Capa_1" xmlns="http://www.w3.org/2000/svg" xmlns:xlink="http://www.w3.org/1999/xlink" x="0px" y="0px"
	 viewBox="0 0 512.488 512.488" style="enable-background:new 0 0 512.488 512.488;" xml:space="preserve">
<path style="fill:#DAE5EF;" d="M330.848,335.528l-48.48,48.48c-38.56,38.56-103.84,44.16-169.12,14.24
	c-29.76-65.28-24.32-130.56,14.24-169.12l48.48-48.48c14.4-14.4,37.76-14.4,52.32,0l102.56,102.72
	C345.248,297.768,345.248,321.128,330.848,335.528z"/>
<polygon style="fill:#5B5F63;" points="417.536,133.88 290.864,260.536 221.856,289.704 251.024,220.696 377.696,94.04 "/>
<path style="fill:#E14B4B;" d="M386.256,125.096c-1.584-1.584-3.088-3.248-4.528-4.976c-22.8-27.616-20.08-69.808,6.176-96.064
	l18.464-18.464c7.456-7.456,19.536-7.456,26.992,0l72.592,72.592c7.456,7.456,7.456,19.552,0,26.992l-20.016,20.032
	c-14,14-33.376,21.488-53.168,20.544C415.248,144.92,398.624,137.48,386.256,125.096z M419.872,46.088l-4.96,4.96
	c-12.496,12.496-14.128,32.16-3.728,44.768c5.904,7.168,14.24,11.376,23.424,11.808c9.2,0.432,17.856-2.912,24.352-9.408
	l6.528-6.528L419.872,46.088z"/>
<path style="fill:#A4856D;" d="M510.432,512.488c-8.96-33.568-39.296-58.432-75.696-58.432c-12.544,0-24.224,3.2-34.752,8.432
	c-7.136-36.096-38.912-63.344-77.104-63.344c-10.512,0-20.512,2.144-29.68,5.888c-6.384-25.392-29.184-44.272-56.576-44.272
	c-23.28,0-43.2,13.696-52.64,33.376c-13.024-9.568-28.96-15.392-46.352-15.392c-37.2,0-68.176,25.904-76.368,60.592
	c-33.68,7.952-58.848,37.424-60.32,73.152H510.432z"/>
<g>
</g>
<g>
</g>
<g>
</g>
<g>
</g>
<g>
</g>
<g>
</g>
<g>
</g>
<g>
</g>
<g>
</g>
<g>
</g>
<g>
</g>
<g>
</g>
<g>
</g>
<g>
</g>
<g>
</g>
</svg>
