<?xml version="1.0" encoding="iso-8859-1"?>
<!-- Generator: Adobe Illustrator 19.0.0, SVG Export Plug-In . SVG Version: 6.00 Build 0)  -->
<svg version="1.1" id="Capa_1" xmlns="http://www.w3.org/2000/svg" xmlns:xlink="http://www.w3.org/1999/xlink" x="0px" y="0px"
	 viewBox="0 0 468.293 468.293" style="enable-background:new 0 0 468.293 468.293;" xml:space="preserve">
<path style="fill:#27A2DB;" d="M372.69,468.293H95.602c-13.794,0-24.976-11.182-24.976-24.976V201.686
	c0-6.897,5.591-12.488,12.488-12.488h302.063c6.897,0,12.488,5.591,12.488,12.488v241.631
	C397.666,457.111,386.484,468.293,372.69,468.293z"/>
<path style="fill:#D5D6DB;" d="M234.147,0L234.147,0C166.44,0,111.554,54.887,111.554,122.592v66.606h29.965v-66.606
	c0-51.076,41.554-92.626,92.629-92.626c51.07,0,92.624,41.551,92.624,92.626v66.606h29.967v-66.606
	C356.739,54.887,301.852,0,234.147,0z"/>
<g>
	<rect x="339.799" y="234.583" style="fill:#2D93BA;" width="57.868" height="32.5"/>
	<rect x="339.799" y="286.533" style="fill:#2D93BA;" width="57.868" height="32.5"/>
	<rect x="339.799" y="338.457" style="fill:#2D93BA;" width="57.868" height="32.5"/>
	<rect x="339.799" y="390.369" style="fill:#2D93BA;" width="57.868" height="32.5"/>
	<rect x="70.625" y="234.583" style="fill:#2D93BA;" width="57.868" height="32.5"/>
	<rect x="70.625" y="286.533" style="fill:#2D93BA;" width="57.868" height="32.5"/>
	<rect x="70.625" y="338.457" style="fill:#2D93BA;" width="57.868" height="32.5"/>
	<rect x="70.625" y="390.369" style="fill:#2D93BA;" width="57.868" height="32.5"/>
</g>
<circle style="fill:#FCD462;" cx="234.146" cy="328.741" r="73.36"/>
<circle style="fill:#F6C358;" cx="234.146" cy="328.741" r="58.312"/>
<path style="fill:#FCD462;" d="M231.805,372.916v-7.779c-9.739-0.993-18.481-4.865-26.217-11.612l7.779-9.271
	c5.967,5.186,12.107,8.273,18.438,9.271V332.85c-8.031-1.917-13.911-4.44-17.64-7.567c-3.729-3.126-5.594-7.762-5.594-13.906
	c0-6.144,2.142-11.17,6.444-15.081c4.301-3.907,9.895-6.036,16.79-6.392v-5.329h6.816v5.433c7.814,0.572,15.203,3.235,22.167,7.996
	l-6.929,9.804c-4.692-3.339-9.765-5.399-15.237-6.183v20.033h0.321c8.169,1.921,14.171,4.514,18.004,7.779
	c3.842,3.27,5.758,8.013,5.758,14.227c0,6.218-2.203,11.283-6.608,15.185c-4.406,3.911-10.225,6.04-17.475,6.396v7.671H231.805z
	 M224.286,304.131c-1.813,1.596-2.714,3.586-2.714,5.967c0,2.381,0.711,4.262,2.133,5.646c1.414,1.388,4.119,2.719,8.1,3.998
	v-18.438C228.605,301.59,226.098,302.531,224.286,304.131z M246.721,350.858c1.986-1.63,2.983-3.69,2.983-6.179
	c0-2.485-0.781-4.458-2.342-5.915c-1.57-1.457-4.484-2.823-8.742-4.102v19.179C242.03,353.49,244.727,352.493,246.721,350.858z"/>
<g>
</g>
<g>
</g>
<g>
</g>
<g>
</g>
<g>
</g>
<g>
</g>
<g>
</g>
<g>
</g>
<g>
</g>
<g>
</g>
<g>
</g>
<g>
</g>
<g>
</g>
<g>
</g>
<g>
</g>
</svg>
