<?xml version="1.0" encoding="iso-8859-1"?>
<!-- Generator: Adobe Illustrator 19.0.0, SVG Export Plug-In . SVG Version: 6.00 Build 0)  -->
<svg version="1.1" id="Capa_1" xmlns="http://www.w3.org/2000/svg" xmlns:xlink="http://www.w3.org/1999/xlink" x="0px" y="0px"
	 viewBox="0 0 511.995 511.995" style="enable-background:new 0 0 511.995 511.995;" xml:space="preserve">
<rect x="128.424" y="460.901" style="fill:#344A5E;" width="253.12" height="25.643"/>
<g>
	<polygon style="fill:#415A6B;" points="136.083,511.995 79.848,511.995 174.099,333.808 230.333,333.808 	"/>
	<polygon style="fill:#415A6B;" points="375.912,511.995 432.147,511.995 337.896,333.808 281.661,333.808 	"/>
</g>
<path style="fill:#F3705A;" d="M409.288,16.016c-101.077-21.355-205.504-21.355-306.581,0C79.144,21.083,60.264,45.68,60.243,69.285
	v324.587c0,23.648,19.253,42.891,42.997,42.997h305.504c23.776-0.107,42.997-19.349,42.997-42.997V69.285
	C451.731,45.68,432.851,21.061,409.288,16.016"/>
<path style="fill:#F05540;" d="M430.163,75.387v-6.08c-0.021-14.005-12.128-29.333-25.333-32.192
	c-48.853-10.304-98.912-15.541-148.832-15.541s-100,5.227-148.768,15.52c-13.291,2.88-25.397,18.208-25.397,32.192v6.101
	C81.832,75.387,430.163,75.387,430.163,75.387z"/>
<g>
	<path style="fill:#344A5E;" d="M403.016,361.915c0,14.752-11.936,26.688-26.688,26.688c-14.731,0-26.688-11.936-26.688-26.688
		c0-14.731,11.957-26.688,26.688-26.688C391.08,335.227,403.016,347.184,403.016,361.915"/>
	<path style="fill:#344A5E;" d="M162.333,361.915c0,14.752-11.936,26.688-26.688,26.688c-14.731,0-26.667-11.936-26.667-26.688
		c0-14.731,11.936-26.688,26.667-26.688C150.397,335.227,162.333,347.184,162.333,361.915"/>
</g>
<path style="fill:#FFD15C;" d="M451.752,279.451H327.667c-2.88,0-5.621,1.12-7.627,3.147l-64.043,64l-64.021-64
	c-2.037-2.016-4.768-3.147-7.648-3.147H60.243v21.557h119.627l68.501,68.48c2.101,2.101,4.853,3.147,7.627,3.147
	s5.525-1.045,7.627-3.147l68.501-68.48h119.627V279.451z"/>
<g>
	<path style="fill:#F3F3F3;" d="M252.264,49.179c0,9.504-7.691,17.184-17.184,17.184c-9.483,0-17.184-7.691-17.184-17.184
		s7.701-17.184,17.184-17.184C244.584,31.995,252.264,39.685,252.264,49.179"/>
	<path style="fill:#F3F3F3;" d="M294.077,49.179c0,9.504-7.691,17.184-17.184,17.184c-9.493,0-17.184-7.691-17.184-17.184
		s7.68-17.184,17.184-17.184C286.397,31.995,294.077,39.685,294.077,49.179"/>
	<path style="fill:#F3F3F3;" d="M229.896,110.181H110.771c-9.333,0-16.917,7.563-16.917,16.896v102.208
		c0,9.355,7.584,16.917,16.917,16.917h119.125c9.333,0,16.917-7.563,16.917-16.917V127.077
		C246.813,117.744,239.229,110.181,229.896,110.181"/>
	<path style="fill:#F3F3F3;" d="M401.203,110.181H282.099c-9.355,0-16.917,7.563-16.917,16.896v102.208
		c0,9.355,7.563,16.917,16.917,16.917h119.104c9.355,0,16.917-7.563,16.917-16.917V127.077
		C418.12,117.744,410.557,110.181,401.203,110.181"/>
</g>
<g>
</g>
<g>
</g>
<g>
</g>
<g>
</g>
<g>
</g>
<g>
</g>
<g>
</g>
<g>
</g>
<g>
</g>
<g>
</g>
<g>
</g>
<g>
</g>
<g>
</g>
<g>
</g>
<g>
</g>
</svg>
