<?xml version="1.0" encoding="iso-8859-1"?>
<!-- Generator: Adobe Illustrator 19.0.0, SVG Export Plug-In . SVG Version: 6.00 Build 0)  -->
<svg version="1.1" id="Capa_1" xmlns="http://www.w3.org/2000/svg" xmlns:xlink="http://www.w3.org/1999/xlink" x="0px" y="0px"
	 viewBox="0 0 512 512" style="enable-background:new 0 0 512 512;" xml:space="preserve">
<polygon style="fill:#F3F3F3;" points="360.533,0 469.333,108.8 469.333,512 42.667,512 42.667,0 "/>
<path style="fill:#415A6B;" d="M429.867,183.467L400,153.6c-3.2-3.2-9.6-3.2-12.8,0l-29.867,29.867c-3.2,3.2-3.2,9.6,0,12.8
	c3.2,3.2,9.6,3.2,12.8,0L384,181.333v243.2H202.667l13.867-14.933c3.2-3.2,3.2-9.6,0-12.8l0,0c-3.2-3.2-9.6-3.2-12.8,0l-28.8,29.867
	c-3.2,3.2-3.2,8.533,0,12.8l28.8,29.867c3.2,3.2,9.6,3.2,12.8,0l0,0c3.2-3.2,3.2-9.6,0-12.8l-13.867-13.867h189.867
	c5.333,0,8.533-4.267,8.533-8.533v-252.8L416,196.267c3.2,3.2,9.6,3.2,12.8,0C433.067,192,433.067,186.667,429.867,183.467z"/>
<polygon style="fill:#CED6E0;" points="360.533,0 469.333,108.8 360.533,108.8 "/>
<rect x="116.267" y="215.467" style="fill:#8AD7F8;" width="185.6" height="141.867"/>
<rect x="179.2" y="283.733" style="fill:#415A6B;" width="60.8" height="73.6"/>
<polygon style="fill:#F3705A;" points="337.067,215.467 209.067,87.467 81.067,215.467 "/>
<g>
</g>
<g>
</g>
<g>
</g>
<g>
</g>
<g>
</g>
<g>
</g>
<g>
</g>
<g>
</g>
<g>
</g>
<g>
</g>
<g>
</g>
<g>
</g>
<g>
</g>
<g>
</g>
<g>
</g>
</svg>
