<?xml version="1.0" encoding="iso-8859-1"?>
<!-- Generator: Adobe Illustrator 19.0.0, SVG Export Plug-In . SVG Version: 6.00 Build 0)  -->
<svg version="1.1" id="Capa_1" xmlns="http://www.w3.org/2000/svg" xmlns:xlink="http://www.w3.org/1999/xlink" x="0px" y="0px"
	 viewBox="0 0 511.9 511.9" style="enable-background:new 0 0 511.9 511.9;" xml:space="preserve">
<path style="fill:#FFD15C;" d="M372.388,69.3h-349.9c-11.7,0-21.3,9.6-21.3,21.3v400c0,11.7,9.6,21.3,21.3,21.3h349.9
	c11.7,0,21.3-9.6,21.3-21.3v-400C393.688,78.9,384.088,69.3,372.388,69.3z"/>
<rect x="43.888" y="112" style="fill:#F2F2F2;" width="307.2" height="357.3"/>
<path style="fill:#40596B;" d="M291.288,40.5h-30.9c-10.7-23.4-35.2-40.5-62.9-40.5s-52.3,17.1-63,40.5h-32
	c-13.9,0-25.6,11.7-25.6,25.6V129h240V66.1C316.888,52.3,306.288,40.5,291.288,40.5z"/>
<circle style="fill:#FFFFFF;" cx="197.488" cy="51.2" r="22.4"/>
<circle style="fill:#FF7058;" cx="197.488" cy="214.4" r="57.6"/>
<polygon style="fill:#FFFFFF;" points="240.088,203.7 208.088,203.7 208.088,171.7 186.788,171.7 186.788,203.7 154.788,203.7 
	154.788,224 186.788,224 186.788,257.1 208.088,257.1 208.088,224 240.088,224 "/>
<g>
	<rect x="69.488" y="297.6" style="fill:#CDD6E0;" width="257.1" height="26.7"/>
	<rect x="69.488" y="359.5" style="fill:#CDD6E0;" width="257.1" height="26.7"/>
	<rect x="69.488" y="421.3" style="fill:#CDD6E0;" width="141.9" height="26.7"/>
</g>
<path style="fill:#FF7058;" d="M506.588,202.4l-46.2-46.2c-6.4-6.4-16-6.4-21.3,0l-28.8,28.8l68.6,68.6l28.8-28.8
	C511.888,217.3,511.888,207.7,506.588,202.4z"/>
<path style="fill:#D8AB53;" d="M267.888,370.1L267.888,370.1L267.888,370.1z"/>
<path style="fill:#FFD05C;" d="M315.888,416.1l-55.5,13.8l-33.1,7.5l7.5-33.1l12.8-55.5l0,0c4.3-0.9,8.7,0,13.9,6.4
	c4.3,4.3,6.4,9.6,6.4,14.9c7.5-1.1,14.9,1.1,20.3,6.4c3.2,3.2,5,5.8,6.1,9s1.3,7.1,1.3,10.3c5.1,0,11.2,2,14.1,6.4
	c0.3,0.5,0.6,0.9,1,1.3C314.488,407.6,315.888,412,315.888,416.1z"/>
<path style="fill:#40596B;" d="M407.588,230.4l-139.7,139.7l0,0c0-5.3-3.2-10.7-6.4-14.9c-4.3-4.3-8.5-6.4-13.9-6.4l0,0l138.7-138.7
	L407.588,230.4L407.588,230.4z"/>
<path style="fill:#334A5E;" d="M294.588,395.8c1.1-7.5-1.1-13.9-6.5-19.3c-4.3-4.3-10.7-6.4-17.1-6.4c-1.1,0-2.1,0-3.2,0
	l139.7-139.7l26.7,26.7L294.588,395.8z"/>
<path style="fill:#40596B;" d="M454.588,277.4l-138.7,138.7l0,0c-1.1-5.3-3.2-9.6-6.4-13.9c-4.3-4.3-9.6-6.4-14.9-6.4l0,0
	l139.7-139.7L454.588,277.4z"/>
<polygon style="fill:#334A5E;" points="260.388,429.9 227.288,437.3 234.788,404.3 "/>
<polygon style="fill:#84DBFF;" points="385.988,210.4 411.188,184 479.888,252.6 454.788,277.7 "/>
<g>
	<polygon style="fill:#55BFE9;" points="432.088,205.9 432.088,205.9 410.788,184.5 	"/>
</g>
<g>
</g>
<g>
</g>
<g>
</g>
<g>
</g>
<g>
</g>
<g>
</g>
<g>
</g>
<g>
</g>
<g>
</g>
<g>
</g>
<g>
</g>
<g>
</g>
<g>
</g>
<g>
</g>
<g>
</g>
</svg>
