<?xml version="1.0" encoding="iso-8859-1"?>
<!-- Generator: Adobe Illustrator 19.0.0, SVG Export Plug-In . SVG Version: 6.00 Build 0)  -->
<svg version="1.1" id="Capa_1" xmlns="http://www.w3.org/2000/svg" xmlns:xlink="http://www.w3.org/1999/xlink" x="0px" y="0px"
	 viewBox="0 0 468.293 468.293" style="enable-background:new 0 0 468.293 468.293;" xml:space="preserve">
<path style="fill:#E56354;" d="M269.807,92.764H10.916C4.887,92.764,0,97.652,0,103.68v140.632c0,6.029,4.887,10.916,10.916,10.916
	h20.865c3.014,0,5.458,2.444,5.458,5.458v23.134c0,4.603,5.348,7.139,8.912,4.226l38.644-31.586
	c0.975-0.797,2.195-1.232,3.454-1.232h181.558c6.029,0,10.916-4.887,10.916-10.916V103.68
	C280.723,97.652,275.835,92.764,269.807,92.764z"/>
<path style="fill:#D15242;" d="M6.244,93.852v137.973c0,6.029,4.887,10.916,10.916,10.916h20.865c3.014,0,5.458,2.444,5.458,5.458
	v23.135c0,4.603,5.348,7.139,8.912,4.226l38.644-31.586c0.975-0.797,2.195-1.232,3.454-1.232H276.05c1.679,0,3.251-0.41,4.672-1.088
	v2.659c0,6.029-4.888,10.916-10.916,10.916H88.249c-1.259,0-2.479,0.435-3.454,1.232l-38.644,31.586
	c-3.564,2.914-8.912,0.378-8.912-4.226v-23.135c0-3.014-2.444-5.458-5.458-5.458H10.916C4.887,255.229,0,250.341,0,244.313V103.681
	C0,99.331,2.563,95.606,6.244,93.852z"/>
<circle style="fill:#E0E5E8;" cx="65.436" cy="167.212" r="24.976"/>
<path style="fill:#D4D5DB;" d="M65.434,142.233v49.951c13.793,0,24.976-11.182,24.976-24.976
	C90.41,153.415,79.228,142.233,65.434,142.233z"/>
<circle style="fill:#E0E5E8;" cx="140.363" cy="167.212" r="24.976"/>
<path style="fill:#D4D5DB;" d="M140.361,142.233v49.951c13.793,0,24.976-11.182,24.976-24.976
	C165.337,153.415,154.155,142.233,140.361,142.233z"/>
<path style="fill:#4EBD9E;" d="M198.486,179.003h258.89c6.029,0,10.916,4.887,10.916,10.916v140.632
	c0,6.029-4.887,10.916-10.916,10.916h-20.865c-3.014,0-5.458,2.444-5.458,5.458v23.134c0,4.603-5.348,7.139-8.912,4.226
	l-38.644-31.586c-0.975-0.797-2.195-1.232-3.454-1.232H198.486c-6.029,0-10.916-4.887-10.916-10.916V189.919
	C187.57,183.891,192.457,179.003,198.486,179.003z"/>
<path style="fill:#3CA59A;" d="M462.049,180.091v137.973c0,6.029-4.887,10.916-10.916,10.916h-20.865
	c-3.014,0-5.458,2.444-5.458,5.458v23.135c0,4.603-5.348,7.139-8.912,4.226l-38.644-31.586c-0.975-0.797-2.195-1.232-3.454-1.232
	H192.242c-1.679,0-3.251-0.41-4.672-1.088v2.659c0,6.029,4.888,10.916,10.916,10.916h181.558c1.259,0,2.479,0.435,3.454,1.232
	l38.644,31.586c3.564,2.913,8.912,0.378,8.912-4.226v-23.135c0-3.014,2.444-5.458,5.458-5.458h20.865
	c6.029,0,10.916-4.888,10.916-10.916V189.919C468.293,185.57,465.73,181.845,462.049,180.091z"/>
<circle style="fill:#E0E5E8;" cx="253.003" cy="254.564" r="24.976"/>
<path style="fill:#D4D5DB;" d="M253.005,229.559v49.951c13.793,0,24.976-11.182,24.976-24.976
	C277.98,240.742,266.798,229.559,253.005,229.559z"/>
<circle style="fill:#E0E5E8;" cx="327.93" cy="254.564" r="24.976"/>
<path style="fill:#D4D5DB;" d="M327.931,229.559v49.951c13.793,0,24.976-11.182,24.976-24.976
	C352.907,240.742,341.725,229.559,327.931,229.559z"/>
<circle style="fill:#E0E5E8;" cx="402.857" cy="254.564" r="24.976"/>
<path style="fill:#D4D5DB;" d="M402.858,229.559v49.951c13.793,0,24.976-11.182,24.976-24.976
	C427.834,240.742,416.652,229.559,402.858,229.559z"/>
<g>
</g>
<g>
</g>
<g>
</g>
<g>
</g>
<g>
</g>
<g>
</g>
<g>
</g>
<g>
</g>
<g>
</g>
<g>
</g>
<g>
</g>
<g>
</g>
<g>
</g>
<g>
</g>
<g>
</g>
</svg>
