<?xml version="1.0" encoding="iso-8859-1"?>
<!-- Generator: Adobe Illustrator 19.0.0, SVG Export Plug-In . SVG Version: 6.00 Build 0)  -->
<svg version="1.1" id="Capa_1" xmlns="http://www.w3.org/2000/svg" xmlns:xlink="http://www.w3.org/1999/xlink" x="0px" y="0px"
	 viewBox="0 0 468.293 468.293" style="enable-background:new 0 0 468.293 468.293;" xml:space="preserve">
<path style="fill:#D5D6DB;" d="M468.293,70.499c0-17.242-13.977-31.22-31.22-31.22H31.22C13.977,39.28,0,53.257,0,70.499v218.232
	h468.293V70.499z"/>
<path style="fill:#64798A;" d="M0,288.731v38.23c0,17.242,13.977,31.22,31.22,31.22h405.854c17.242,0,31.22-13.978,31.22-31.22
	v-38.23H0z"/>
<path style="fill:#EBF0F3;" d="M446.439,288.731H21.854V67.48c0-3.448,2.795-6.244,6.244-6.244h412.098
	c3.448,0,6.244,2.795,6.244,6.244V288.731z"/>
<path style="fill:#D5D6DB;" d="M315.66,429.013H152.632c-13.34,0-19.557-16.531-9.524-25.322l26.943-12.665v-32.846h128.19v32.846
	l26.943,12.665C335.217,412.482,329,429.013,315.66,429.013z"/>
<path style="fill:#2D93BA;" d="M232.164,150.008v-6.584c-8.243-0.844-15.642-4.118-22.19-9.836l6.584-7.847
	c5.05,4.39,10.247,7.01,15.606,7.847v-17.5c-6.797-1.622-11.774-3.751-14.93-6.401c-3.156-2.643-4.735-6.57-4.735-11.774
	c0-5.197,1.813-9.454,5.454-12.758c3.641-3.311,8.375-5.116,14.211-5.417v-4.507h5.77v4.602c6.614,0.477,12.868,2.738,18.762,6.761
	l-5.865,8.302c-3.971-2.826-8.265-4.573-12.897-5.234v16.956h0.272c6.915,1.622,11.994,3.824,15.239,6.584
	c3.252,2.767,4.874,6.783,4.874,12.046c0,5.263-1.864,9.543-5.593,12.853c-3.729,3.303-8.654,5.109-14.791,5.41v6.496H232.164z
	 M225.8,91.783c-1.534,1.351-2.298,3.039-2.298,5.05c0,2.019,0.602,3.604,1.806,4.779c1.197,1.174,3.487,2.305,6.856,3.384V89.39
	C229.456,89.633,227.334,90.433,225.8,91.783z M244.79,131.334c1.681-1.38,2.525-3.127,2.525-5.234c0-2.099-0.661-3.773-1.982-5.006
	c-1.329-1.226-3.795-2.386-7.399-3.472v16.237C240.819,133.558,243.102,132.721,244.79,131.334z"/>
<g>
	<rect x="149.092" y="165.9" style="fill:#FFFFFF;" width="170.084" height="24.976"/>
	<rect x="149.092" y="206.38" style="fill:#FFFFFF;" width="170.084" height="24.976"/>
</g>
<circle style="fill:#EBF0F3;" cx="234.146" cy="323.434" r="18.114"/>
<path style="fill:#64798A;" d="M120.332,206.382l-13.245,51.48l-5.636-23.769l-17.171,17.17c-1.219,1.219-3.196,1.219-4.415,0
	l-4.415-4.415c-1.219-1.219-1.219-3.196,0-4.415l17.17-17.17l-23.77-5.635L120.332,206.382z"/>
<g>
</g>
<g>
</g>
<g>
</g>
<g>
</g>
<g>
</g>
<g>
</g>
<g>
</g>
<g>
</g>
<g>
</g>
<g>
</g>
<g>
</g>
<g>
</g>
<g>
</g>
<g>
</g>
<g>
</g>
</svg>
