<?xml version="1.0" encoding="iso-8859-1"?>
<!-- Generator: Adobe Illustrator 19.0.0, SVG Export Plug-In . SVG Version: 6.00 Build 0)  -->
<svg version="1.1" id="Capa_1" xmlns="http://www.w3.org/2000/svg" xmlns:xlink="http://www.w3.org/1999/xlink" x="0px" y="0px"
	 viewBox="0 0 490.56 490.56" style="enable-background:new 0 0 490.56 490.56;" xml:space="preserve">
<polygon style="fill:#FDBC4B;" points="245.28,15.504 321.072,169.072 490.56,193.696 367.92,313.248 396.864,482.048 
	245.28,402.352 93.696,482.048 122.64,313.248 0,193.696 169.488,169.072 "/>
<g>
	<polygon style="fill:#FFDB70;" points="245.28,15.504 245.28,265.856 321.072,169.072 	"/>
	<polygon style="fill:#FFDB70;" points="245.28,265.856 490.56,193.696 367.92,313.248 	"/>
	<polygon style="fill:#FFDB70;" points="245.28,265.856 245.28,402.352 396.864,482.048 	"/>
	<polygon style="fill:#FFDB70;" points="245.28,265.856 122.64,313.248 93.696,482.048 	"/>
	<polygon style="fill:#FFDB70;" points="245.28,265.856 169.488,169.072 0,193.696 	"/>
</g>
<g>
	<path style="fill:#FEE218;" d="M119.456,115.6c0-33.232-20.304-53.536-53.536-53.536c33.232,0,53.536-20.304,53.536-53.552
		c0,33.232,20.304,53.552,53.536,53.552C139.76,62.064,119.456,82.368,119.456,115.6z"/>
	<path style="fill:#FEE218;" d="M54.768,122.48c0-20.736-12.672-33.408-33.408-33.408c20.736,0,33.408-12.672,33.408-33.408
		c0,20.736,12.672,33.408,33.408,33.408C67.44,89.072,54.768,101.744,54.768,122.48z"/>
</g>
<g style="opacity:0.3;">
	<path style="fill:#FFFFFF;" d="M360.528,318.4c-0.496,9.36-8.752,16.304-18.128,16.304h-54.528c-7.904,0-14.24,6.688-13.744,14.48
		c0.128,0.368,0.128,0.736,0.128,1.088v0.128c-0.128,8.032,6.448,14.592,14.352,14.592h31.104c9.488,0,17.28,7.664,17.28,17.28
		c0,9.488-7.792,17.152-17.28,17.152H136.528c-9.728,0-17.632-8.144-17.152-18.128c0.48-9.36,8.88-16.304,18.128-16.304h78.352
		c8.272,0,14.48-7.056,14.352-15.328c0-0.112,0-0.24,0-0.24c0-0.128,0-0.128,0-0.24c0.128-8.272-6.08-15.328-14.352-15.328h-60.16
		c-9.856,0-17.76-8.272-17.152-18.128c0.48-9.36,8.752-16.304,18.128-16.304h28.288c8.4,0,15.2-6.928,15.2-15.456v-1.088
		c0-8.032-6.448-14.592-14.48-14.592h-65.488c-9.728,0-17.632-8.272-17.152-18.128c0.48-9.36,8.88-16.416,18.128-16.416h86.656
		c7.904,0,14.112-6.576,13.616-14.48v-1.216c0-8.032-6.448-14.48-14.48-14.48h-23.12c-9.488,0-17.152-7.792-17.152-17.28
		c0-9.488,7.664-17.28,17.152-17.28h111.184c9.856,0,17.76,8.272,17.152,18.24c-0.48,9.248-8.752,16.304-18.128,16.304h-14.24
		c-8.384,0-14.592,6.928-14.48,15.328c0,0,0,0.128,0,0.24v0.128c-0.128,8.4,6.08,15.328,14.48,15.328H387.84
		c9.856,0,17.76,8.272,17.28,18.24c-0.48,9.248-8.88,16.304-18.24,16.304h-76.16c-8.512,0-15.328,6.928-15.328,15.328v1.216
		c0,8.032,6.448,14.592,14.48,14.592h33.488C353.232,300.288,361.136,308.432,360.528,318.4z"/>
</g>
<g>
</g>
<g>
</g>
<g>
</g>
<g>
</g>
<g>
</g>
<g>
</g>
<g>
</g>
<g>
</g>
<g>
</g>
<g>
</g>
<g>
</g>
<g>
</g>
<g>
</g>
<g>
</g>
<g>
</g>
</svg>
