<?xml version="1.0" encoding="iso-8859-1"?>
<!-- Generator: Adobe Illustrator 19.0.0, SVG Export Plug-In . SVG Version: 6.00 Build 0)  -->
<svg version="1.1" id="Capa_1" xmlns="http://www.w3.org/2000/svg" xmlns:xlink="http://www.w3.org/1999/xlink" x="0px" y="0px"
	 viewBox="0 0 468.293 468.293" style="enable-background:new 0 0 468.293 468.293;" xml:space="preserve">
<path style="fill:#64798A;" d="M213.226,379.977L88.315,255.066l-32.626,32.626c-6.083,6.083-7.541,15.399-3.607,23.05l0,0
	c15.867,30.855,9.988,68.426-14.546,92.96l0,0l27.053,27.053l0,0c24.534-24.534,62.105-30.412,92.96-14.545l0,0
	c7.651,3.934,16.966,2.477,23.05-3.607L213.226,379.977z"/>
<g>
	<polygon style="fill:#F6C358;" points="42.641,452.595 0,441.346 37.591,403.755 64.536,430.7 	"/>
	<path style="fill:#F6C358;" d="M251.759,468.291l-128.207,0c-4.847,0-8.775-3.929-8.775-8.776l0-4.647
		c0-4.846,3.929-8.775,8.775-8.775l128.207,0c4.847,0,8.775,3.929,8.775,8.776l0,4.647
		C260.534,464.363,256.606,468.291,251.759,468.291z"/>
</g>
<path style="fill:#E56353;" d="M462.902,90.589c7.595-8.803,7.11-21.976-1.111-30.197l-53.89-53.89
	c-8.221-8.221-21.393-8.706-30.197-1.111l-34.943,30.148l89.993,89.993L462.902,90.589z"/>
<polygon style="fill:#FCD462;" points="342.761,35.539 88.315,255.066 213.226,379.977 432.754,125.532 "/>
<g>
</g>
<g>
</g>
<g>
</g>
<g>
</g>
<g>
</g>
<g>
</g>
<g>
</g>
<g>
</g>
<g>
</g>
<g>
</g>
<g>
</g>
<g>
</g>
<g>
</g>
<g>
</g>
<g>
</g>
</svg>
