<?xml version="1.0" encoding="iso-8859-1"?>
<!-- Generator: Adobe Illustrator 19.0.0, SVG Export Plug-In . SVG Version: 6.00 Build 0)  -->
<svg version="1.1" id="Capa_1" xmlns="http://www.w3.org/2000/svg" xmlns:xlink="http://www.w3.org/1999/xlink" x="0px" y="0px"
	 viewBox="0 0 512.533 512.533" style="enable-background:new 0 0 512.533 512.533;" xml:space="preserve">
<path style="fill:#8AD7F8;" d="M503.6,200L311.6,8c-10.667-10.667-27.733-10.667-38.4,0l-192,192
	c-10.667,10.667-10.667,27.733,0,38.4s27.733,10.667,38.4,0L293.467,66.667L465.2,238.4c10.667,10.667,27.733,10.667,38.4,0l0,0
	C515.333,227.733,515.333,210.667,503.6,200z"/>
<polygon style="fill:#E8EAE9;" points="465.2,446.4 465.2,238.4 293.467,66.667 120.667,238.4 120.667,446.4 "/>
<path style="fill:#F3705A;" d="M230.533,415.467c18.133-25.6,29.867-64,29.867-107.733c0-78.933-39.467-142.933-87.467-142.933
	c-10.667,0-20.267,3.2-29.867,8.533c-3.2-1.067-7.467-2.133-10.667-2.133c-38.4,1.067-68.267,61.867-68.267,136.533
	c0,43.733,10.667,82.133,26.667,107.733H230.533z"/>
<polygon style="fill:#E8EAE9;" points="218.8,512.533 206,378.133 119.6,378.133 105.733,512.533 "/>
<polygon style="fill:#4EC0AA;" points="174,430.4 183.6,421.867 162.267,400.533 142,421.867 150.533,430.4 "/>
<polygon style="fill:#66C6B9;" points="181.467,512.533 174,430.4 150.533,430.4 144.133,512.533 "/>
<polygon style="fill:#F7B64C;" points="199.6,349.333 199.6,363.2 162.267,400.533 162.267,400.533 126,363.2 126,349.333 "/>
<path style="fill:#415A6B;" d="M325.467,512.533L307.333,436.8c-3.2-11.733-10.667-21.333-22.4-26.667L206,377.067l-42.667,134.4
	h162.133V512.533z"/>
<polygon style="fill:#F3F3F3;" points="199.6,363.2 206,378.133 191.067,426.133 162.267,400.533 "/>
<polygon style="fill:#344A5E;" points="186.8,512.533 236.933,442.133 208.133,424 240.133,410.133 206,378.133 163.333,512.533 "/>
<path style="fill:#415A6B;" d="M162.267,512.533l-42.667-134.4L40.667,411.2c-11.733,4.267-19.2,14.933-22.4,26.667L0.133,512.533
	H162.267z"/>
<polygon style="fill:#F3F3F3;" points="126,363.2 119.6,378.133 134.533,426.133 162.267,400.533 "/>
<polygon style="fill:#344A5E;" points="87.6,442.133 137.733,512.533 162.267,512.533 119.6,378.133 85.467,410.133 117.467,424 "/>
<path style="fill:#FFD15C;" d="M179.333,218.133c-17.067,17.067-41.6,27.733-72.533,27.733c-4.267,0-7.467,0-11.733-1.067
	c-2.133,9.6-4.267,19.2-4.267,29.867c0,50.133,32,91.733,71.467,91.733s71.467-40.533,71.467-91.733
	c0-14.933-3.2-27.733-7.467-40.533C208.133,233.067,192.133,226.667,179.333,218.133z"/>
<g>
</g>
<g>
</g>
<g>
</g>
<g>
</g>
<g>
</g>
<g>
</g>
<g>
</g>
<g>
</g>
<g>
</g>
<g>
</g>
<g>
</g>
<g>
</g>
<g>
</g>
<g>
</g>
<g>
</g>
</svg>
