<?xml version="1.0" encoding="iso-8859-1"?>
<!-- Generator: Adobe Illustrator 19.0.0, SVG Export Plug-In . SVG Version: 6.00 Build 0)  -->
<svg version="1.1" id="Capa_1" xmlns="http://www.w3.org/2000/svg" xmlns:xlink="http://www.w3.org/1999/xlink" x="0px" y="0px"
	 viewBox="0 0 512 512" style="enable-background:new 0 0 512 512;" xml:space="preserve">
<path style="fill:#ADB3BA;" d="M382.987,227.648c-1.109,0-2.229-0.288-3.264-0.875l-123.712-71.691l-123.712,71.691
	c-3.147,1.792-7.125,0.725-8.939-2.379c-1.792-3.125-0.725-7.125,2.389-8.939l126.987-73.557c2.016-1.163,4.523-1.163,6.56,0
	l126.976,73.557c3.125,1.813,4.192,5.813,2.379,8.939C387.445,226.475,385.237,227.648,382.987,227.648"/>
<path style="fill:#415A6B;" d="M256.011,184.416c-24.587,0-44.565-20-44.565-44.565c0-20.021,13.28-37.003,31.499-42.603V66.731
	c0-7.211,5.856-13.067,13.067-13.067c7.211,0,13.056,5.856,13.056,13.067v41.621c0,7.232-5.845,13.067-13.056,13.067
	c-10.165,0-18.443,8.267-18.443,18.443s8.277,18.443,18.443,18.443c10.165,0,18.443-8.267,18.443-18.443
	c0-7.211,5.845-13.067,13.067-13.067c7.211,0,13.067,5.856,13.067,13.067C300.576,164.416,280.587,184.416,256.011,184.416"/>
<path style="fill:#F3705A;" d="M169.952,0v57.376c0,17.685,14.336,32,32,32h108.107c17.685,0,32-14.315,32-32V0H169.952z"/>
<path style="fill:#ADB3BA;" d="M205.099,184.608l48.651-28.192c-4.331-2.08-7.168-5.856-8.544-10.165l-40.107,23.253V184.608z"/>
<rect x="144.661" y="275.957" style="fill:#CED6E0;" width="222.667" height="56.395"/>
<rect x="144.661" y="332.373" style="fill:#ADB3BA;" width="222.667" height="56.395"/>
<rect x="144.661" y="388.747" style="fill:#CED6E0;" width="222.667" height="56.395"/>
<path style="fill:#E8EAE9;" d="M404.917,209.12H107.093c-17.312,0-31.349,14.037-31.349,31.349v240.192
	c0,17.323,14.037,31.339,31.349,31.339h297.824c17.312,0,31.339-14.016,31.339-31.339V240.48
	C436.256,223.168,422.229,209.12,404.917,209.12 M144.619,275.957h174.336l-174.336,135.36V275.957z M367.307,445.163H192.971
	l174.336-135.349L367.307,445.163L367.307,445.163z"/>
<g>
	<path style="fill:#ADB3BA;" d="M127.488,247.755c0,6.667-5.408,12.085-12.075,12.085c-6.667,0-12.064-5.419-12.064-12.085
		c0-6.667,5.397-12.085,12.064-12.085C122.08,235.669,127.488,241.088,127.488,247.755"/>
	<path style="fill:#ADB3BA;" d="M408.64,247.755c0,6.667-5.419,12.085-12.085,12.085c-6.667,0-12.064-5.419-12.064-12.085
		c0-6.667,5.397-12.085,12.064-12.085C403.221,235.669,408.64,241.088,408.64,247.755"/>
	<path style="fill:#ADB3BA;" d="M127.488,473.333c0,6.667-5.408,12.085-12.075,12.085c-6.667,0-12.064-5.419-12.064-12.085
		s5.397-12.064,12.064-12.064C122.08,461.269,127.488,466.667,127.488,473.333"/>
	<path style="fill:#ADB3BA;" d="M408.64,473.333c0,6.667-5.419,12.085-12.085,12.085c-6.667,0-12.064-5.419-12.064-12.085
		s5.397-12.064,12.064-12.064C403.221,461.269,408.64,466.667,408.64,473.333"/>
</g>
<g>
</g>
<g>
</g>
<g>
</g>
<g>
</g>
<g>
</g>
<g>
</g>
<g>
</g>
<g>
</g>
<g>
</g>
<g>
</g>
<g>
</g>
<g>
</g>
<g>
</g>
<g>
</g>
<g>
</g>
</svg>
