<?xml version="1.0" encoding="iso-8859-1"?>
<!-- Generator: Adobe Illustrator 19.0.0, SVG Export Plug-In . SVG Version: 6.00 Build 0)  -->
<svg version="1.1" id="Capa_1" xmlns="http://www.w3.org/2000/svg" xmlns:xlink="http://www.w3.org/1999/xlink" x="0px" y="0px"
	 viewBox="0 0 512.006 512.006" style="enable-background:new 0 0 512.006 512.006;" xml:space="preserve">
<path style="fill:#E5E5E5;" d="M445.216,256.273v-67.472l-53.696-15.856c-3.616-12.24-8.352-23.792-14.336-34.784l26.72-49.12
	l-47.728-47.712l-49.104,26.72c-10.992-5.984-22.672-10.72-34.784-14.336L256.416,0.001H188.8l-15.856,53.696
	c-12.096,3.616-23.792,8.352-34.784,14.336l-49.12-26.72L41.328,89.041l26.72,49.12c-5.984,10.992-10.72,22.544-14.336,34.784
	L0,188.801v67.472l53.712,15.856c3.616,12.24,8.352,23.936,14.336,34.784l-26.72,49.12l47.728,47.856l49.12-26.848
	c10.992,5.984,22.672,10.848,34.784,14.336l15.856,53.84h67.616l15.856-53.84c12.112-3.472,23.792-8.352,34.784-14.336
	l49.104,26.848l47.728-47.856l-26.72-49.12c5.984-10.848,10.72-22.544,14.336-34.784L445.216,256.273z M222.608,308.177
	c-47.312,0-85.568-38.4-85.568-85.568c0-47.296,38.256-85.696,85.568-85.696s85.568,38.4,85.568,85.696
	C308.176,269.777,269.904,308.177,222.608,308.177z"/>
<path style="fill:#CACACA;" d="M222.608,107.265c-63.728,0-115.344,51.616-115.344,115.328c0,63.728,51.616,115.2,115.344,115.2
	s115.344-51.472,115.344-115.2C337.936,158.881,286.32,107.265,222.608,107.265z M222.608,308.177
	c-47.312,0-85.568-38.4-85.568-85.568c0-47.296,38.256-85.696,85.568-85.696s85.568,38.4,85.568,85.696
	C308.176,269.777,269.904,308.177,222.608,308.177z"/>
<g style="opacity:0.35;">
	<path style="fill:#FFFFFF;" d="M177.296,370.897c-1.472,0-2.96-0.224-4.432-0.72C109.424,348.881,66.8,289.601,66.8,222.625
		c0-85.904,69.904-155.792,155.808-155.792c37.472,0,73.696,13.488,101.984,37.984c5.808,5.024,6.448,13.824,1.408,19.616
		c-5.04,5.808-13.808,6.448-19.632,1.408c-23.232-20.128-52.976-31.2-83.76-31.2c-70.576,0-127.984,57.408-127.984,127.968
		c0,54.992,34.992,103.68,87.104,121.168c7.28,2.448,11.2,10.336,8.768,17.616C188.528,367.217,183.104,370.897,177.296,370.897z"/>
</g>
<rect x="359.162" y="342.972" transform="matrix(-0.7071 0.7071 -0.7071 -0.7071 926.4124 383.7461)" style="fill:#464646;" width="49.136" height="81.535"/>
<path style="fill:#E95454;" d="M502.752,502.753L502.752,502.753c-12.336,12.336-32.336,12.336-44.688,0l-67.84-67.84l44.672-44.688
	l67.84,67.84C515.088,470.401,515.088,490.417,502.752,502.753z"/>
<circle style="fill:#464646;" cx="306.08" cy="306.081" r="125.168"/>
<circle style="fill:#3789C9;" cx="306.08" cy="306.081" r="95.216"/>
<path style="fill:#ED6362;" d="M502.752,458.065l-67.84-67.84l-23.808,23.808c-3.728,3.728-3.728,9.776,0,13.504
	s9.776,3.728,13.504,0l9.024-9.024c3.12-3.12,8.224-3.104,11.328,0.032l0.064,0.08c0.144,0.144,0.272,0.272,0.432,0.4
	c3.264,2.896,3.424,7.92,0.336,11.008l-14.336,14.336c-3.664,3.664-4.192,9.68-0.736,13.52c3.696,4.096,10,4.224,13.856,0.368
	l17.456-17.456c3.136-3.136,8.224-3.12,11.36,0.032l0.384,0.384l0.08,0.08c3.328,3.28,3.344,8.672,0.032,11.968l-8.816,8.816
	c-3.648,3.664-4.192,9.664-0.736,13.52c3.696,4.096,10,4.224,13.856,0.368l9.904-9.904c3.264-3.264,8.432-2.96,11.664,0.352
	c0.032,0.032,0.048,0.048,0.08,0.08c0.032,0.032,0.048,0.048,0.08,0.08c3.296,3.216,3.616,8.4,0.352,11.664l-11.264,11.264
	c-3.664,3.664-4.192,9.664-0.736,13.504c3.488,3.872,9.264,4.064,13.152,0.832c0.432-0.384,0.928-0.672,1.344-1.088
	C515.088,490.417,515.088,470.401,502.752,458.065z"/>
<g>
	<path style="fill:#FFFFFF;" d="M230.608,315.425l10.576-1.024c0.64,3.552,1.936,6.16,3.872,7.824
		c1.952,1.664,4.576,2.496,7.872,2.496c3.504,0,6.144-0.736,7.92-2.224s2.656-3.216,2.656-5.2c0-1.28-0.368-2.352-1.12-3.248
		c-0.752-0.896-2.048-1.664-3.92-2.336c-1.28-0.448-4.176-1.216-8.704-2.352c-5.824-1.44-9.92-3.216-12.272-5.328
		c-3.312-2.96-4.96-6.576-4.96-10.832c0-2.736,0.784-5.312,2.336-7.696s3.792-4.208,6.72-5.456s6.464-1.872,10.592-1.872
		c6.752,0,11.84,1.488,15.264,4.448c3.408,2.96,5.216,6.912,5.376,11.856l-10.88,0.48c-0.464-2.768-1.456-4.752-2.992-5.968
		c-1.536-1.216-3.824-1.824-6.88-1.824c-3.152,0-5.632,0.656-7.424,1.952c-1.152,0.832-1.728,1.952-1.728,3.344
		c0,1.28,0.544,2.368,1.616,3.264c1.376,1.152,4.704,2.352,9.984,3.6c5.296,1.248,9.2,2.544,11.728,3.872
		c2.528,1.328,4.512,3.152,5.952,5.472s2.144,5.168,2.144,8.576c0,3.088-0.864,5.968-2.576,8.672c-1.712,2.688-4.144,4.704-7.28,6
		c-3.136,1.312-7.04,1.968-11.712,1.968c-6.8,0-12.032-1.568-15.68-4.72C233.504,326.033,231.328,321.441,230.608,315.425z"/>
	<path style="fill:#FFFFFF;" d="M283.536,332.945v-53.84h39.92v9.104H294.4v11.936h27.024v9.072H294.4v14.656h30.08v9.072H283.536z"
		/>
	<path style="fill:#FFFFFF;" d="M331.504,306.353c0-5.488,0.816-10.096,2.464-13.808c1.232-2.736,2.896-5.2,5.008-7.376
		s4.432-3.792,6.96-4.848c3.36-1.424,7.216-2.128,11.6-2.128c7.936,0,14.288,2.464,19.04,7.376
		c4.768,4.928,7.152,11.76,7.152,20.528c0,8.688-2.368,15.488-7.088,20.4s-11.04,7.36-18.944,7.36c-8,0-14.368-2.448-19.104-7.328
		C333.872,321.649,331.504,314.929,331.504,306.353z M342.704,305.985c0,6.096,1.408,10.72,4.224,13.872s6.384,4.72,10.72,4.72
		s7.888-1.552,10.672-4.688c2.784-3.12,4.16-7.808,4.16-14.048c0-6.176-1.36-10.768-4.064-13.808s-6.304-4.56-10.784-4.56
		s-8.096,1.536-10.832,4.608C344.08,295.153,342.704,299.793,342.704,305.985z"/>
</g>
<g>
</g>
<g>
</g>
<g>
</g>
<g>
</g>
<g>
</g>
<g>
</g>
<g>
</g>
<g>
</g>
<g>
</g>
<g>
</g>
<g>
</g>
<g>
</g>
<g>
</g>
<g>
</g>
<g>
</g>
</svg>
