<?xml version="1.0" encoding="iso-8859-1"?>
<!-- Generator: Adobe Illustrator 19.0.0, SVG Export Plug-In . SVG Version: 6.00 Build 0)  -->
<svg version="1.1" id="Capa_1" xmlns="http://www.w3.org/2000/svg" xmlns:xlink="http://www.w3.org/1999/xlink" x="0px" y="0px"
	 viewBox="0 0 468.293 468.293" style="enable-background:new 0 0 468.293 468.293;" xml:space="preserve">
<path style="fill:#F6C358;" d="M139.092,370.92h-6.393v-32.161h6.393c8.881,0,16.08,7.199,16.08,16.08v0
	C155.172,363.72,147.973,370.92,139.092,370.92z"/>
<polygon style="fill:#E1E6E9;" points="382.38,359.073 132.147,279.897 132.147,143.644 382.38,64.467 "/>
<g>
	<path style="fill:#E56353;" d="M394.785,370.92L394.785,370.92c-6.851,0-12.405-5.554-12.405-12.405V65.026
		c0-6.851,5.554-12.405,12.405-12.405l0,0c6.851,0,12.405,5.554,12.405,12.405v293.489
		C407.189,365.366,401.635,370.92,394.785,370.92z"/>
	<rect x="34.254" y="143.81" style="fill:#E56353;" width="97.898" height="135.917"/>
</g>
<path style="fill:#D15241;" d="M46.656,289.032L46.656,289.032c-6.851,0-12.405-5.554-12.405-12.405V146.913
	c0-6.851,5.554-12.405,12.405-12.405h0c6.851,0,12.405,5.554,12.405,12.405v129.714C59.061,283.478,53.507,289.032,46.656,289.032z"
	/>
<path style="fill:#D5D6DB;" d="M34.251,273.527l-26.155-9.689C3.23,262.036,0,257.396,0,252.207v-80.872
	c0-5.189,3.23-9.83,8.096-11.632l26.155-9.689V273.527z"/>
<g>
	<path style="fill:#64798A;" d="M407.19,150.046v123.448c33.803-0.354,61.103-27.837,61.103-61.724S440.992,150.4,407.19,150.046z"
		/>
	<path style="fill:#64798A;" d="M108.656,415.672L108.656,415.672c-12.974,0-23.491-10.517-23.491-23.491V279.728h46.981v112.452
		C132.147,405.155,121.629,415.672,108.656,415.672z"/>
</g>
<g>
</g>
<g>
</g>
<g>
</g>
<g>
</g>
<g>
</g>
<g>
</g>
<g>
</g>
<g>
</g>
<g>
</g>
<g>
</g>
<g>
</g>
<g>
</g>
<g>
</g>
<g>
</g>
<g>
</g>
</svg>
