<?xml version="1.0" encoding="iso-8859-1"?>
<!-- Generator: Adobe Illustrator 19.0.0, SVG Export Plug-In . SVG Version: 6.00 Build 0)  -->
<svg version="1.1" id="Capa_1" xmlns="http://www.w3.org/2000/svg" xmlns:xlink="http://www.w3.org/1999/xlink" x="0px" y="0px"
	 viewBox="0 0 511.733 511.733" style="enable-background:new 0 0 511.733 511.733;" xml:space="preserve">
<path style="fill:#F3705A;" d="M499.733,227.867L283.2,11.333c-14.933-14.933-40.533-14.933-55.467,0L11.2,227.867
	c-14.933,14.933-14.933,40.533,0,55.467c14.933,14.933,40.533,14.933,55.467,0l188.8-188.8l188.8,189.867
	c14.933,14.933,40.533,14.933,55.467,0C515.733,268.4,515.733,243.867,499.733,227.867z"/>
<polygon style="fill:#FFD15C;" points="444.267,509.467 444.267,283.333 255.467,94.533 66.667,283.333 66.667,509.467 "/>
<path style="fill:#415A6B;" d="M318.4,509.467v-102.4c0-35.2-27.733-62.933-62.933-62.933l0,0c-35.2,0-62.933,27.733-62.933,62.933
	v102.4L318.4,509.467L318.4,509.467z"/>
<path style="fill:#F3F3F3;" d="M310.933,511.6h178.133c11.733,0,22.4-9.6,22.4-22.4V251.333c0-11.733-9.6-22.4-22.4-22.4H310.933
	c-11.733,0-22.4,9.6-22.4,22.4V489.2C289.6,502,299.2,511.6,310.933,511.6z"/>
<g>
	<rect x="325.867" y="463.6" style="fill:#CED6E0;" width="148.267" height="13.867"/>
	<rect x="325.867" y="415.6" style="fill:#CED6E0;" width="148.267" height="13.867"/>
	<rect x="325.867" y="367.6" style="fill:#CED6E0;" width="148.267" height="13.867"/>
	<rect x="325.867" y="316.4" style="fill:#CED6E0;" width="148.267" height="13.867"/>
</g>
<rect x="325.867" y="266.267" style="fill:#66C6B9;" width="76.8" height="13.867"/>
<g>
</g>
<g>
</g>
<g>
</g>
<g>
</g>
<g>
</g>
<g>
</g>
<g>
</g>
<g>
</g>
<g>
</g>
<g>
</g>
<g>
</g>
<g>
</g>
<g>
</g>
<g>
</g>
<g>
</g>
</svg>
