<?xml version="1.0" encoding="iso-8859-1"?>
<!-- Generator: Adobe Illustrator 19.0.0, SVG Export Plug-In . SVG Version: 6.00 Build 0)  -->
<svg version="1.1" id="Capa_1" xmlns="http://www.w3.org/2000/svg" xmlns:xlink="http://www.w3.org/1999/xlink" x="0px" y="0px"
	 viewBox="0 0 512.016 512.016" style="enable-background:new 0 0 512.016 512.016;" xml:space="preserve">
<path style="fill:#5CA3D9;" d="M512.008,256.048c0,56.96-18.592,109.52-50.144,152.064C415.336,471.104,340.472,512,256.056,512
	C114.6,512,0.008,397.408,0.008,256.048c0-63.568,23.168-121.792,61.632-166.48C90.072,56.272,126.776,30.48,168.728,15.28
	C195.992,5.456,225.384,0,256.056,0c36.992,0,72.048,7.888,103.776,22.096C449.512,61.824,512.008,151.68,512.008,256.048z"/>
<g>
	<path style="fill:#E9EFF4;" d="M359.544,362.624c-25.456-9.52-50.912-19.056-76.352-28.576c-2.4-0.896-4.912-1.872-6.592-3.808
		c-2.096-2.4-2.496-5.776-3.2-8.88c-3.888-17.072-20.512-30.352-38.032-30.352c-3.952,0-8.048,0.576-11.744-0.816
		c-3.904-1.472-6.704-4.88-9.296-8.128c-3.888-4.88-7.776-9.76-11.664-14.64c-2.576-3.232-5.296-6.576-9.04-8.304
		c-7.776-3.584-16.752,0.88-25.296,0.768c-8.512-0.112-16.192-4.736-23.984-8.144c-7.792-3.424-17.264-5.584-24.496-1.088
		c-7.968,4.96-9.728,15.744-9.456,25.12c0.256,9.376,1.616,19.376-2.832,27.632c-1.856,3.456-4.608,6.32-6.88,9.52
		c-7.456,10.528-9.232,24.864-4.528,36.88c6.016,15.424,21.6,26.752,23.584,43.184c0.448,3.664,0.208,7.568,1.984,10.8
		c2.256,4.128,7.056,5.968,11.168,8.256c21.2,11.84,27.248,39.184,29.6,63.36c0.64,6.528,1.28,13.232,2.176,19.888
		c26.928,10.256,55.952,16.16,86.352,16.72c6.16-3.568,12.336-7.12,18.24-11.104c5.856-3.968,12.048-8.88,13.104-15.872
		c0.4-2.704-0.016-5.472,0.4-8.176c1.616-10.24,13.856-14.656,24.16-15.68s22.176-1.376,28.672-9.44
		c7.936-9.84,2.784-24.544,5.776-36.816c2.816-11.504,12.448-19.776,20.464-28.48c5.024-5.456,9.632-14.064,4.8-19.696
		C364.792,364.64,362.104,363.6,359.544,362.624z"/>
	<path style="fill:#E9EFF4;" d="M77.896,236.176l-19.088-21.424c-4.096-10.896-6.528-22.384-7.104-34.08
		c-0.192-3.696-0.096-7.6,1.744-10.704c3.024-5.264,9.84-6.72,15.776-7.696c6.016-0.944,13.296,0.944,17.984-2.912
		c22.352-18.272,34-48.272,71.52-48.272c4.544,0,8.816,0.416,12.96,1.008c5.632-2.944,11.424-5.52,17.488-7.36
		c7.6-2.336,15.584-3.792,22.288-8.08c4.096-2.624,7.888-7.2,6.624-11.872c-0.384-1.648-1.456-3.024-2.432-4.384
		c-2.336-3.408-4.672-6.72-7.104-10.128c-4.288-6.032-10.032-12.848-17.424-11.968c-5.936,0.784-9.936,6.128-14.992,9.248
		c-6.224,3.888-14.608,4.288-21.216,0.784c-4-2.048-7.504-5.936-7.008-10.416c0.288-3.312,2.72-6.128,5.456-7.984
		c7.392-5.056,16.944-5.264,25.904-5.264c11.008-0.096,22.096-0.096,33.104-0.096c5.264,0,10.912-0.096,15.184-3.12
		c4.288-2.928,6.128-9.936,2.24-13.44c-2.144-1.952-5.36-2.144-8.272-2.336c-17.824-1.264-35.536-4.48-52.768-9.44h-0.096
		l-1.536-0.304C125.816,31.2,89.688,56.704,61.64,89.568L61.608,89.6l0.016,0.928c-8.944,16.448-17.712,33.088-23.456,50.912
		c-6.032,18.784-8.464,39.232-3.504,58.416C37.576,210.96,42.84,221.28,48.68,231.2c4.96,8.464,10.704,17.136,19.28,22.096
		c6.72,3.984,14.608,5.456,22.384,6.624c2.928,0.48,7.008,0.192,7.6-2.816c0.288-1.36-0.384-2.624-1.072-3.792
		C92.408,245.904,85.784,239.872,77.896,236.176z"/>
</g>
<path id="SVGCleanerId_0" style="fill:#E9EFF4;" d="M511.928,256.016c0,56.96-18.592,109.52-50.144,152.064
	c-1.36-0.288-2.72-0.784-4.096-1.168c-1.072-26.576,14.416-52.08,11.584-78.56c-1.552-14.512-8.672-28.336-7.888-42.928
	c0.192-3.696,0.976-7.6-0.384-11.104c-2.336-6.336-10.224-8.768-16.848-7.888c-6.72,0.88-12.848,4.096-19.376,5.648
	c-17.712,4.192-36.896-5.36-47.408-20.352c-10.416-14.992-13.136-34.368-11.008-52.576c2.144-18.112,8.672-35.44,15.28-52.48
	c1.36-3.312,2.72-7.104,1.264-10.512c-2.24-5.056-9.152-5.648-13.536-9.056c-4.288-3.408-5.552-10.032-2.928-14.8
	c2.72-4.768,9.056-7.104,14.112-5.264c3.12-5.744-4.192-11.488-6.528-17.616c-4.096-10.512,7.296-21.024,7.2-32.416
	c0-6.72-4.096-12.656-8.08-18.016c-4.288-5.744-8.768-11.392-13.44-16.944C449.416,61.792,511.928,151.648,511.928,256.016z"/>
<g>
	<path id="SVGCleanerId_0_1_" style="fill:#E9EFF4;" d="M511.928,256.016c0,56.96-18.592,109.52-50.144,152.064
		c-1.36-0.288-2.72-0.784-4.096-1.168c-1.072-26.576,14.416-52.08,11.584-78.56c-1.552-14.512-8.672-28.336-7.888-42.928
		c0.192-3.696,0.976-7.6-0.384-11.104c-2.336-6.336-10.224-8.768-16.848-7.888c-6.72,0.88-12.848,4.096-19.376,5.648
		c-17.712,4.192-36.896-5.36-47.408-20.352c-10.416-14.992-13.136-34.368-11.008-52.576c2.144-18.112,8.672-35.44,15.28-52.48
		c1.36-3.312,2.72-7.104,1.264-10.512c-2.24-5.056-9.152-5.648-13.536-9.056c-4.288-3.408-5.552-10.032-2.928-14.8
		c2.72-4.768,9.056-7.104,14.112-5.264c3.12-5.744-4.192-11.488-6.528-17.616c-4.096-10.512,7.296-21.024,7.2-32.416
		c0-6.72-4.096-12.656-8.08-18.016c-4.288-5.744-8.768-11.392-13.44-16.944C449.416,61.792,511.928,151.648,511.928,256.016z"/>
</g>
<path style="opacity:0.05;fill:#3F4347;enable-background:new    ;" d="M392.376,39.456c25.04,39.536,39.632,86.352,39.632,136.592
	c0,56.96-18.592,109.52-50.144,152.064C335.336,391.104,260.472,432,176.056,432c-50.224,0-96.928-14.656-136.448-39.632
	C84.952,464.176,164.808,512,256.056,512c84.416,0,159.28-40.896,205.808-103.872c31.552-42.56,50.144-95.12,50.144-152.08
	C512.008,164.832,464.264,84.72,392.376,39.456z"/>
<g>
</g>
<g>
</g>
<g>
</g>
<g>
</g>
<g>
</g>
<g>
</g>
<g>
</g>
<g>
</g>
<g>
</g>
<g>
</g>
<g>
</g>
<g>
</g>
<g>
</g>
<g>
</g>
<g>
</g>
</svg>
