<svg height="512" viewBox="0 0 58 58" width="512" xmlns="http://www.w3.org/2000/svg"><g id="Page-1" fill="none" fill-rule="evenodd"><g id="104---Navigation-Files" fill-rule="nonzero"><path id="Shape" d="m50 53h4c2.209139 0 4-1.790861 4-4v-35l-14-14h-20c-2.2064037.0065896-3.9934104 1.79359627-4 4v20z" fill="#b0d3f0"/><path id="Shape" d="m44 0v10c0 2.209139 1.790861 4 4 4h10z" fill="#90bae1"/><path id="Shape" d="m50 28v26c0 2.209139-1.790861 4-4 4h-42c-2.209139 0-4-1.790861-4-4v-36c0-2.209139 1.790861-4 4-4h14c2.209139 0 4 1.790861 4 4v2c0 2.209139 1.790861 4 4 4h20c2.209139 0 4 1.790861 4 4z" fill="#f0c419"/><g fill="#2980ba"><path id="Shape" d="m28 13h-2c-.5522847 0-1-.4477153-1-1s.4477153-1 1-1h2c.5522847 0 1 .4477153 1 1s-.4477153 1-1 1z"/><path id="Shape" d="m40 13h-7c-.5522847 0-1-.4477153-1-1s.4477153-1 1-1h7c.5522847 0 1 .4477153 1 1s-.4477153 1-1 1z"/><path id="Shape" d="m28 17h-2c-.5522847 0-1-.4477153-1-1s.4477153-1 1-1h2c.5522847 0 1 .4477153 1 1s-.4477153 1-1 1z"/><path id="Shape" d="m40 17h-7c-.5522847 0-1-.4477153-1-1s.4477153-1 1-1h7c.5522847 0 1 .4477153 1 1s-.4477153 1-1 1z"/><path id="Shape" d="m28 21h-2c-.5522847 0-1-.4477153-1-1s.4477153-1 1-1h2c.5522847 0 1 .4477153 1 1s-.4477153 1-1 1z"/><path id="Shape" d="m40 21h-7c-.5522847 0-1-.4477153-1-1s.4477153-1 1-1h7c.5522847 0 1 .4477153 1 1s-.4477153 1-1 1z"/></g><path id="Shape" d="m4 21c-.55228475 0-1-.4477153-1-1v-2c0-.5522847.44771525-1 1-1s1 .4477153 1 1v2c0 .5522847-.44771525 1-1 1z" fill="#f3d55b"/><path id="Shape" d="m4 40c-.55228475 0-1-.4477153-1-1v-14c0-.5522847.44771525-1 1-1s1 .4477153 1 1v14c0 .5522847-.44771525 1-1 1z" fill="#f3d55b"/><path id="Shape" d="m38 41c.0029938 5.9173648-3.9923607 11.0894336-9.7186551 12.5809992-5.7262944 1.4915655-11.7371525-1.0741191-14.6213449-6.2409992-1.0916257-1.9344903-1.6635334-4.1187645-1.66-6.34 0-7.1797017 5.8202983-13 13-13 7.1746792.012111 12.987889 5.8253208 13 13z" fill="#2fa8cc"/><path id="Shape" d="m33 36c0 7.1797017-5.8202983 13-13 13-2.2212355.0035334-4.4055097-.5683743-6.34-1.66-1.0916257-1.9344903-1.6635334-4.1187645-1.66-6.34 0-7.1797017 5.8202983-13 13-13 2.2212355-.0035334 4.4055097.5683743 6.34 1.66 1.0916257 1.9344903 1.6635334 4.1187645 1.66 6.34z" fill="#67b9cc"/><path id="Shape" d="m24.8 44.988v.012l-6.307 3.182c-.1906764.0894314-.4169493.0497931-.5658712-.0991288s-.1885602-.3751948-.0991288-.5658712l3.182-6.307.007-.007 4.183-4.191.007-.007 6.307-3.182c.1906764-.0894314.4169493-.0497931.5658712.0991288s.1885602.3751948.0991288.5658712l-3.179 6.312-.007.007z" fill="#e64c3c"/><circle id="Oval" cx="25" cy="41" fill="#c03a2b" r="4"/></g></g></svg>