<?xml version="1.0" encoding="iso-8859-1"?>
<!-- Generator: Adobe Illustrator 19.0.0, SVG Export Plug-In . SVG Version: 6.00 Build 0)  -->
<svg version="1.1" id="Capa_1" xmlns="http://www.w3.org/2000/svg" xmlns:xlink="http://www.w3.org/1999/xlink" x="0px" y="0px"
	 viewBox="0 0 468.293 468.293" style="enable-background:new 0 0 468.293 468.293;" xml:space="preserve">
<path style="fill:#64798A;" d="M85.129,455.805V71.335c0-6.897,5.591-12.488,12.488-12.488h273.059
	c6.897,0,12.488,5.591,12.488,12.488v384.47c0,6.897-5.591,12.488-12.488,12.488H97.617
	C90.72,468.293,85.129,462.702,85.129,455.805z"/>
<rect x="101.289" y="75.008" style="fill:#E1E6E9;" width="265.709" height="377.132"/>
<g>
	<path style="fill:#3A556A;" d="M303.477,98.685H164.813c0-3.497,0.261-6.889,0.73-10.229c4.958-33.401,33.818-59.077,68.628-59.077
		c34.757,0,63.617,25.677,68.575,59.077C303.216,91.796,303.477,95.189,303.477,98.685z"/>
	<path style="fill:#3A556A;" d="M234.145,48.099c-13.26,0-24.049-10.789-24.049-24.049S220.885,0,234.145,0
		c13.263,0,24.052,10.789,24.052,24.049S247.409,48.099,234.145,48.099z M234.145,11.569c-6.883,0-12.481,5.598-12.481,12.481
		s5.598,12.481,12.481,12.481s12.484-5.598,12.484-12.481S241.028,11.569,234.145,11.569z"/>
</g>
<path style="fill:#64798A;" d="M303.477,98.685H164.813c0-3.497,0.261-6.889,0.73-10.229h137.203
	C303.216,91.796,303.477,95.189,303.477,98.685z"/>
<path style="fill:#E56353;" d="M196.894,209.179h-56.726v-56.726h56.726V209.179z M152.774,196.573h31.515v-31.514h-31.515V196.573z
	"/>
<path style="fill:#44C4A1;" d="M196.894,303.772h-56.726v-56.726h56.726V303.772z M152.774,291.166h31.515v-31.515h-31.515V291.166z
	"/>
<path style="fill:#3A556A;" d="M196.894,398.362h-56.726v-56.726h56.726V398.362z M152.774,385.756h31.515v-31.515h-31.515V385.756z
	"/>
<g>
	<rect x="225.929" y="152.451" style="fill:#E56353;" width="102.194" height="12.613"/>
	<rect x="225.929" y="196.571" style="fill:#E56353;" width="51.094" height="12.613"/>
</g>
<g>
	<rect x="225.929" y="247.071" style="fill:#44C4A1;" width="102.194" height="12.613"/>
	<rect x="225.929" y="291.153" style="fill:#44C4A1;" width="51.094" height="12.613"/>
</g>
<g>
	<rect x="225.929" y="341.666" style="fill:#3A556A;" width="102.194" height="12.613"/>
	<rect x="225.929" y="385.748" style="fill:#3A556A;" width="51.094" height="12.613"/>
</g>
<g>
</g>
<g>
</g>
<g>
</g>
<g>
</g>
<g>
</g>
<g>
</g>
<g>
</g>
<g>
</g>
<g>
</g>
<g>
</g>
<g>
</g>
<g>
</g>
<g>
</g>
<g>
</g>
<g>
</g>
</svg>
