<?xml version="1.0" encoding="iso-8859-1"?>
<!-- Generator: Adobe Illustrator 19.0.0, SVG Export Plug-In . SVG Version: 6.00 Build 0)  -->
<svg xmlns="http://www.w3.org/2000/svg" xmlns:xlink="http://www.w3.org/1999/xlink" version="1.1" id="Capa_1" x="0px" y="0px" viewBox="0 0 409.6 409.6" style="enable-background:new 0 0 409.6 409.6;" xml:space="preserve">
<polygon style="fill:#31978C;" points="237.312,78.336 172.288,78.336 197.376,0 212.224,0 "/>
<polygon style="fill:#44C4A1;" points="204.544,0 197.376,0 172.288,78.336 204.544,78.336 "/>
<path style="fill:#D15241;" d="M263.936,409.6h-117.76c-5.632,0-9.728-4.608-9.728-9.728V104.96c0-5.632,4.608-9.728,9.728-9.728  h117.76c5.632,0,9.728,4.608,9.728,9.728v294.912C273.664,404.992,269.568,409.6,263.936,409.6z"/>
<path style="fill:#E56353;" d="M205.056,94.72h-56.32c-7.168,0-12.8,5.632-12.8,12.8V396.8c0,7.168,5.632,12.8,12.8,12.8h56.832  L205.056,94.72z"/>
<rect x="154.368" y="76.288" style="fill:#F6C358;" width="102.912" height="18.944"/>
<rect x="154.368" y="76.288" style="fill:#FCD462;" width="50.176" height="18.944"/>
<g>
</g>
<g>
</g>
<g>
</g>
<g>
</g>
<g>
</g>
<g>
</g>
<g>
</g>
<g>
</g>
<g>
</g>
<g>
</g>
<g>
</g>
<g>
</g>
<g>
</g>
<g>
</g>
<g>
</g>
</svg>
