<?xml version="1.0" encoding="iso-8859-1"?>
<!-- Generator: Adobe Illustrator 19.0.0, SVG Export Plug-In . SVG Version: 6.00 Build 0)  -->
<svg version="1.1" id="Capa_1" xmlns="http://www.w3.org/2000/svg" xmlns:xlink="http://www.w3.org/1999/xlink" x="0px" y="0px"
	 viewBox="0 0 468.292 468.292" style="enable-background:new 0 0 468.292 468.292;" xml:space="preserve">
<path style="fill:#F6C358;" d="M282.786,108.425h-0.006l43.752-80.772C333.293,15.172,324.256,0,310.062,0h-0.143
	c-6.786,0-12.796,3.698-16.673,9.268c-5.849,8.402-15.514,13.918-26.54,13.918c-8.918,0-14.303-5.466-19.665-11.626
	c-6.995-8.035-18.798-8.035-25.793,0c-5.362,6.16-10.747,11.626-19.665,11.626c-11.026,0-20.69-5.516-26.54-13.918
	C171.169,3.698,165.158,0,158.373,0h-0.143c-14.194,0-23.231,15.172-16.47,27.653l43.752,80.772h-0.006
	c0,0-153.703,245.839-105.552,312.899c44.966,62.624,263.418,62.624,308.384,0C436.489,354.264,282.786,108.425,282.786,108.425z"/>
<circle style="fill:#DC8744;" cx="234.146" cy="318.439" r="90.437"/>
<path style="fill:#FCD462;" d="M230.397,389.142v-12.454c-15.592-1.59-29.588-7.789-41.973-18.591l12.454-14.842
	c9.552,8.303,19.383,13.246,29.518,14.842v-33.101c-12.857-3.068-22.271-7.109-28.241-12.114c-5.97-5.005-8.955-12.427-8.955-22.264
	s3.429-17.883,10.316-24.145c6.887-6.255,15.842-9.664,26.88-10.233v-8.532h10.913v8.699c12.51,0.916,24.339,5.179,35.489,12.801
	l-11.094,15.696c-7.511-5.346-15.634-8.643-24.395-9.9v32.073h0.514c13.079,3.075,22.687,7.227,28.824,12.454
	c6.151,5.234,9.219,12.829,9.219,22.777c0,9.955-3.527,18.064-10.58,24.312c-7.053,6.262-16.37,9.671-27.977,10.24v12.281H230.397z
	 M218.359,279.017c-2.902,2.555-4.346,5.741-4.346,9.552c0,3.811,1.139,6.824,3.416,9.039c2.263,2.221,6.595,4.353,12.968,6.401
	v-29.518C225.274,274.949,221.261,276.456,218.359,279.017z M254.278,353.827c3.18-2.61,4.776-5.908,4.776-9.893
	c0-3.978-1.25-7.137-3.749-9.469c-2.513-2.333-7.178-4.519-13.995-6.567v30.705C246.767,358.041,251.085,356.444,254.278,353.827z"
	/>
<path style="fill:#DC8744;" d="M305.853,134.026c-0.006,0-0.006,0-0.012,0c-9.494-0.003-18.427-3.704-25.146-10.421l-3.445-3.448
	c-2-2-4.659-3.104-7.488-3.104c0,0,0,0-0.006,0c-2.823,0-5.482,1.101-7.482,3.101l-3.47,3.466
	c-6.701,6.704-15.628,10.405-25.128,10.405c-0.006,0-0.006,0-0.012,0c-9.494-0.003-18.427-3.704-25.146-10.421l-3.445-3.448
	c-3.988-3.994-10.982-3.997-14.982,0.003c-4.866,4.878-12.78,4.875-17.659,0.003c-4.878-4.878-4.878-12.784,0-17.662
	c6.713-6.72,15.646-10.421,25.152-10.421c9.5,0,18.433,3.701,25.152,10.418l3.445,3.448c2,1.997,4.659,3.104,7.488,3.104
	c0.006,0,0.006,0,0.006,0c2.823,0,5.482-1.101,7.482-3.101l3.445-3.442c6.726-6.729,15.659-10.43,25.152-10.43
	c0.006,0,0.006,0,0.012,0c9.5,0.003,18.433,3.704,25.146,10.424l3.445,3.445c2,1.997,4.659,3.104,7.488,3.104
	c0.006,0,0.006,0,0.006,0c2.823,0,5.482-1.101,7.482-3.101l3.445-3.442c6.732-6.732,15.659-10.43,25.159-10.43h0.006
	c9.5,0.003,18.433,3.704,25.146,10.424c4.878,4.878,4.878,12.784,0,17.662c-4.878,4.872-12.78,4.875-17.659-0.003
	c-2.006-2.003-4.665-3.107-7.494-3.107l0,0c-2.829,0-5.488,1.104-7.488,3.104l-3.47,3.463
	C324.28,130.324,315.353,134.026,305.853,134.026z"/>
<g>
</g>
<g>
</g>
<g>
</g>
<g>
</g>
<g>
</g>
<g>
</g>
<g>
</g>
<g>
</g>
<g>
</g>
<g>
</g>
<g>
</g>
<g>
</g>
<g>
</g>
<g>
</g>
<g>
</g>
</svg>
