<?xml version="1.0" encoding="iso-8859-1"?>
<!-- Generator: Adobe Illustrator 19.0.0, SVG Export Plug-In . SVG Version: 6.00 Build 0)  -->
<svg version="1.1" id="Capa_1" xmlns="http://www.w3.org/2000/svg" xmlns:xlink="http://www.w3.org/1999/xlink" x="0px" y="0px"
	 viewBox="0 0 468.286 468.286" style="enable-background:new 0 0 468.286 468.286;" xml:space="preserve">
<path style="fill:#64798A;" d="M319.03,342.345v30.505c0,5.953-3.88,11.239-9.634,12.844c-49.235,13.647-101.28,13.647-150.517,0
	c-5.685-1.605-9.566-6.891-9.566-12.844v-30.438c26.29,10.235,54.922,15.855,84.824,15.855
	C264.107,358.266,292.739,352.647,319.03,342.345z"/>
<path style="fill:#E1E6E9;" d="M468.275,124.129c0,99.341-61.879,184.232-149.245,218.216
	c-26.291,10.302-54.923,15.921-84.893,15.921c-29.902,0-58.534-5.62-84.824-15.855C61.946,308.428,0,223.537,0,124.129H468.275z"/>
<g>
	<ellipse style="fill:#D5D6DB;" cx="234.146" cy="124.157" rx="234.14" ry="51.799"/>
	<path style="fill:#D5D6DB;" d="M157.757,319.553c-1.25,0-2.524-0.253-3.75-0.79C78.196,285.595,44.629,196.254,43.232,192.467
		c-1.78-4.854,0.707-10.229,5.555-12.015c4.835-1.784,10.232,0.692,12.024,5.546c0.317,0.854,32.311,85.683,100.707,115.607
		c4.738,2.073,6.896,7.595,4.823,12.332C164.806,317.455,161.367,319.553,157.757,319.553z"/>
</g>
<g>
</g>
<g>
</g>
<g>
</g>
<g>
</g>
<g>
</g>
<g>
</g>
<g>
</g>
<g>
</g>
<g>
</g>
<g>
</g>
<g>
</g>
<g>
</g>
<g>
</g>
<g>
</g>
<g>
</g>
</svg>
