<?xml version="1.0" encoding="iso-8859-1"?>
<!-- Generator: Adobe Illustrator 19.0.0, SVG Export Plug-In . SVG Version: 6.00 Build 0)  -->
<svg version="1.1" id="Capa_1" xmlns="http://www.w3.org/2000/svg" xmlns:xlink="http://www.w3.org/1999/xlink" x="0px" y="0px"
	 viewBox="0 0 511.837 511.837" style="enable-background:new 0 0 511.837 511.837;" xml:space="preserve">
<g>
	<path style="fill:#66C6B9;" d="M251.319,187.57c118.4,14.933,201.6-68.267,186.667-185.6
		C319.585-14.03,236.385,69.17,251.319,187.57z"/>
	<path style="fill:#66C6B9;" d="M219.319,179.037C131.852,190.77,69.985,128.904,80.652,40.37
		C168.119,28.637,229.985,91.57,219.319,179.037z"/>
</g>
<path style="fill:#415A6B;" d="M236.385,26.504c-9.6,0-18.133,8.533-18.133,18.133V293.17h36.267V44.637
	C254.519,33.97,245.985,26.504,236.385,26.504z"/>
<path style="fill:#E8EAE9;" d="M331.319,511.837H146.785c-9.6,0-17.067-6.4-18.133-16L95.585,272.904h288l-33.067,222.933
	C348.385,505.437,340.919,511.837,331.319,511.837z"/>
<polygon style="fill:#CED6E0;" points="377.185,317.704 383.585,272.904 95.585,272.904 101.985,317.704 "/>
<path style="fill:#E8EAE9;" d="M383.585,296.37h-288c-12.8,0-23.467-10.667-23.467-23.467c0-12.8,10.667-23.467,23.467-23.467h288
	c12.8,0,23.467,10.667,23.467,23.467C407.052,285.704,396.385,296.37,383.585,296.37z"/>
<g>
</g>
<g>
</g>
<g>
</g>
<g>
</g>
<g>
</g>
<g>
</g>
<g>
</g>
<g>
</g>
<g>
</g>
<g>
</g>
<g>
</g>
<g>
</g>
<g>
</g>
<g>
</g>
<g>
</g>
</svg>
