<?xml version="1.0" encoding="iso-8859-1"?>
<!-- Generator: Adobe Illustrator 19.0.0, SVG Export Plug-In . SVG Version: 6.00 Build 0)  -->
<svg version="1.1" id="Capa_1" xmlns="http://www.w3.org/2000/svg" xmlns:xlink="http://www.w3.org/1999/xlink" x="0px" y="0px"
	 viewBox="0 0 512 512" style="enable-background:new 0 0 512 512;" xml:space="preserve">
<path style="fill:#FF7058;" d="M337.483,337.68H0.011V105.147c0-11.776,9.557-21.333,21.333-21.333h294.805
	c11.787,0,21.333,9.557,21.333,21.333V337.68z"/>
<g>
	<path style="fill:#F1543F;" d="M35.147,292.123V129.381c0-8.043,6.517-14.56,14.539-14.56c8.043,0,14.549,6.517,14.549,14.56
		v162.741c0,8.032-6.507,14.549-14.549,14.549C41.664,306.672,35.147,300.155,35.147,292.123"/>
	<path style="fill:#F1543F;" d="M94.667,292.123V129.381c0-8.043,6.517-14.56,14.549-14.56c8.043,0,14.549,6.517,14.549,14.56
		v162.741c0,8.032-6.507,14.549-14.549,14.549C101.184,306.672,94.667,300.155,94.667,292.123"/>
	<path style="fill:#F1543F;" d="M154.197,292.123V129.381c0-8.043,6.507-14.56,14.549-14.56c8.043,0,14.539,6.517,14.539,14.56
		v162.741c0,8.032-6.496,14.549-14.539,14.549C160.704,306.672,154.197,300.155,154.197,292.123"/>
	<path style="fill:#F1543F;" d="M213.728,292.123V129.381c0-8.043,6.507-14.56,14.539-14.56c8.043,0,14.549,6.517,14.549,14.56
		v162.741c0,8.032-6.507,14.549-14.549,14.549C220.235,306.672,213.728,300.155,213.728,292.123"/>
	<path style="fill:#F1543F;" d="M273.248,292.123V129.381c0-8.043,6.517-14.56,14.549-14.56c8.043,0,14.549,6.517,14.549,14.56
		v162.741c0,8.032-6.507,14.549-14.549,14.549C279.776,306.672,273.248,300.155,273.248,292.123"/>
</g>
<path style="fill:#F2F2F2;" d="M416.928,150.043h-79.445v187.648h157.792V228.379c0-8.491-3.371-16.629-9.387-22.635l-46.336-46.325
	C433.557,153.413,425.419,150.043,416.928,150.043"/>
<polygon style="fill:#84DBFF;" points="466.016,270.704 466.016,227.216 418.069,179.291 366.731,179.291 366.731,270.704 "/>
<path style="fill:#334A5E;" d="M495.264,371.184H33.515C15.019,371.184,0,356.197,0,337.691h495.264
	c9.248,0,16.736,7.499,16.736,16.747v0.011C512,363.696,504.512,371.184,495.264,371.184"/>
<path style="fill:#40596B;" d="M167.456,371.184c0,31.488-25.525,57.003-57.024,57.003c-31.467,0-57.003-25.515-57.003-57.003
	s25.536-57.013,57.003-57.013C141.941,314.181,167.456,339.707,167.456,371.184"/>
<path style="fill:#CDD6E0;" d="M139.093,371.184c0,15.819-12.821,28.651-28.661,28.651c-15.808,0-28.629-12.832-28.629-28.651
	s12.811-28.651,28.629-28.651C126.272,342.544,139.093,355.365,139.093,371.184"/>
<path style="fill:#40596B;" d="M458.443,371.184c0,31.488-25.536,57.003-57.013,57.003s-57.003-25.515-57.003-57.003
	s25.525-57.013,57.003-57.013S458.443,339.707,458.443,371.184"/>
<path style="fill:#CDD6E0;" d="M430.08,371.184c0,15.819-12.811,28.651-28.651,28.651c-15.819,0-28.651-12.832-28.651-28.651
	s12.821-28.651,28.651-28.651C417.269,342.544,430.08,355.365,430.08,371.184"/>
<g>
</g>
<g>
</g>
<g>
</g>
<g>
</g>
<g>
</g>
<g>
</g>
<g>
</g>
<g>
</g>
<g>
</g>
<g>
</g>
<g>
</g>
<g>
</g>
<g>
</g>
<g>
</g>
<g>
</g>
</svg>
