<?xml version="1.0" encoding="iso-8859-1"?>
<!-- Generator: Adobe Illustrator 19.0.0, SVG Export Plug-In . SVG Version: 6.00 Build 0)  -->
<svg version="1.1" id="Capa_1" xmlns="http://www.w3.org/2000/svg" xmlns:xlink="http://www.w3.org/1999/xlink" x="0px" y="0px"
	 viewBox="0 0 511.492 511.492" style="enable-background:new 0 0 511.492 511.492;" xml:space="preserve">
<path style="fill:#FFDB70;" d="M447.761,328.387c0,0,110.784-145.584-33.872-273.76c0,0-100.816-98.336-259.12-31.136
	c0,0-71.904,27.472-91.344,123.6c0,0-7.104,49.44,0,99.808c0,0-49.664,65.008-38.672,89.728c0,0,8.24,12.816,30.208,10.992v18.304
	c0,0-14.208,17.392,8.464,24.72c0,0-2.96,26.544,18.096,26.544c0,0-47.616,96.144,98.88,60.432c0,0,31.136-0.912,38.448,33.872
	h236.224C455.089,511.507,401.985,408.035,447.761,328.387z"/>
<path style="fill:#FFCC5B;" d="M230.961,31.379c-0.736,16.704,12.432,30.432,28.944,30.432l126.64,0.032
	c17.504,0,31.376,15.584,28.496,33.632c-2.272,14.256-15.696,24.128-30.128,24.128h-89.104
	c-17.232,0.496-30.768,16.048-27.664,33.984c2.432,14.112,15.744,23.808,30.064,23.808h138.88c12.848,0,24.304,9.616,24.304,26.352
	c0,13.36-10.944,24.304-24.304,24.304H313.345c-15.776,0-29.68,11.68-30.608,27.28c-0.736,16.704,12.432,30.432,28.944,30.432
	h90.848c12.608,0,23.248,8.992,23.248,26.352c0,14.08-11.52,25.6-25.6,25.6H296.465c-15.776,0-29.68,11.68-30.608,27.456
	c-0.736,16.512,12.432,30.432,28.944,30.432h83.12c13.312,0,24.112,10.8,24.112,24.112c0,17.712-12.16,27.84-25.6,27.84h-84.592
	c-15.936,0-28.848,12.912-28.848,28.848s12.912,28.848,28.848,28.848h160.336c-10.4-23.248-43.584-108.672-4.4-176.848
	c0,0,110.784-145.584-33.872-273.76c0,0-38.816-37.808-106.064-50.496h-46.432C245.809,4.115,231.889,15.795,230.961,31.379z"/>
<path style="fill:#464646;" d="M319.009,203.731v-25.056l-19.936-5.888c-1.344-4.544-3.104-8.832-5.328-12.912l9.92-18.24
	l-17.712-17.728l-18.24,9.92c-4.08-2.224-8.416-3.984-12.912-5.312l-5.888-19.936h-25.104l-5.888,19.936
	c-4.496,1.344-8.832,3.104-12.912,5.312l-18.24-9.92l-17.728,17.728l9.92,18.24c-2.224,4.08-3.984,8.368-5.328,12.912l-19.936,5.888
	v25.056l19.936,5.888c1.344,4.544,3.104,8.88,5.328,12.912l-9.92,18.24l17.728,17.776l18.24-9.968
	c4.08,2.224,8.416,4.032,12.912,5.328l5.888,20h25.104l5.888-20c4.496-1.296,8.832-3.104,12.912-5.328l18.24,9.968l17.728-17.776
	l-9.92-18.24c2.224-4.032,3.984-8.368,5.328-12.912L319.009,203.731z M236.353,224.035c-18.128,0-32.864-14.672-32.864-32.8
	s14.72-32.864,32.864-32.864c18.128,0,32.864,14.72,32.864,32.864C269.217,209.363,254.497,224.035,236.353,224.035z"/>
<path style="fill:#787878;" d="M236.353,246.883c-30.72,0-55.728-24.96-55.728-55.648c0-30.72,24.992-55.728,55.728-55.728
	c30.72,0,55.728,24.992,55.728,55.728C292.081,221.923,267.089,246.883,236.353,246.883z M236.353,147.523
	c-24.112,0-43.728,19.616-43.728,43.728c0,24.064,19.616,43.648,43.728,43.648s43.728-19.584,43.728-43.648
	C280.081,167.123,260.465,147.523,236.353,147.523z"/>
<path style="fill:#CD494C;" d="M412.289,138.547l-4.768-15.84l-13.728,0.08c-1.712-2.624-3.648-4.992-5.824-7.152l2.8-13.424
	l-14.576-7.824l-9.648,9.744c-3.008-0.624-6.08-0.912-9.184-0.896l-7.52-11.488l-15.872,4.784l0.08,13.728
	c-2.592,1.712-4.992,3.648-7.152,5.824l-13.424-2.8l-7.824,14.576l9.744,9.632c-0.624,3.008-0.928,6.048-0.912,9.184l-11.488,7.52
	l4.768,15.84l13.728-0.08c1.712,2.624,3.648,5.024,5.824,7.152l-2.8,13.424l14.592,7.856l9.632-9.776
	c3.008,0.624,6.096,0.944,9.184,0.896l7.536,11.52l15.872-4.784l-0.08-13.76c2.592-1.68,4.992-3.648,7.152-5.824l13.424,2.832
	l7.824-14.608l-9.744-9.632c0.64-2.976,0.928-6.048,0.912-9.184L412.289,138.547z M363.905,167.123
	c-11.472,3.456-23.568-3.024-27.024-14.48s3.056-23.584,14.512-27.024c11.456-3.456,23.568,3.056,27.024,14.512
	S375.361,163.667,363.905,167.123z"/>
<g>
</g>
<g>
</g>
<g>
</g>
<g>
</g>
<g>
</g>
<g>
</g>
<g>
</g>
<g>
</g>
<g>
</g>
<g>
</g>
<g>
</g>
<g>
</g>
<g>
</g>
<g>
</g>
<g>
</g>
</svg>
