<?xml version="1.0" encoding="iso-8859-1"?>
<!-- Generator: Adobe Illustrator 19.0.0, SVG Export Plug-In . SVG Version: 6.00 Build 0)  -->
<svg version="1.1" id="Capa_1" xmlns="http://www.w3.org/2000/svg" xmlns:xlink="http://www.w3.org/1999/xlink" x="0px" y="0px"
	 viewBox="0 0 512.896 512.896" style="enable-background:new 0 0 512.896 512.896;" xml:space="preserve">
<path style="fill:#DAE5EF;" d="M210.16,512.896c-33.28,0-60.336-27.056-60.336-60.336v-34.816c0-7.728,6.272-14,14-14
	s14,6.272,14,14v34.816c0,17.824,14.512,32.336,32.336,32.336c17.84,0,32.336-14.512,32.336-32.336V14c0-7.728,6.272-14,14-14
	s14,6.272,14,14v438.544C270.496,485.824,243.424,512.896,210.16,512.896z"/>
<path style="fill:#E24B4B;" d="M242.496,399.92v52.624c0,17.824-14.512,32.336-32.336,32.336s-32.336-14.512-32.336-32.336v-34.816
	c0-7.728-6.272-14-14-14s-14,6.272-14,14v34.816c0,33.28,27.072,60.336,60.336,60.336s60.336-27.056,60.336-60.336V399.92
	L242.496,399.92L242.496,399.92z"/>
<path style="fill:#3E4347;" d="M82.96,254.464c29.12,0,55.152,10.16,72.56,26.128h3.008c26.48-15.184,60.64-24.352,97.952-24.352
	s71.472,9.168,97.952,24.352h3.008c17.424-15.968,43.44-26.128,72.56-26.128s55.152,10.16,72.56,26.128h1.376
	c0-136.672-110.8-247.488-247.488-247.488c-136.672,0-247.488,110.8-247.488,247.488h1.44
	C27.808,264.624,53.84,254.464,82.96,254.464z"/>
<path style="fill:#5A5F63;" d="M256.496,256.256c37.296,0,71.456,9.152,97.92,24.336h2.24c0-164.592-100.16-247.488-100.16-247.488
	S156.336,116,156.336,280.592h2.24C185.04,265.424,219.184,256.256,256.496,256.256z"/>
<g>
</g>
<g>
</g>
<g>
</g>
<g>
</g>
<g>
</g>
<g>
</g>
<g>
</g>
<g>
</g>
<g>
</g>
<g>
</g>
<g>
</g>
<g>
</g>
<g>
</g>
<g>
</g>
<g>
</g>
</svg>
