<?xml version="1.0" encoding="iso-8859-1"?>
<!-- Generator: Adobe Illustrator 19.0.0, SVG Export Plug-In . SVG Version: 6.00 Build 0)  -->
<svg version="1.1" id="Capa_1" xmlns="http://www.w3.org/2000/svg" xmlns:xlink="http://www.w3.org/1999/xlink" x="0px" y="0px"
	 viewBox="0 0 468.293 468.293" style="enable-background:new 0 0 468.293 468.293;" xml:space="preserve">
<path style="fill:#EBF0F3;" d="M344.278,38.948L381.117,0h-286.1C71.202,0,51.898,19.304,51.898,43.118v305.619
	c0,23.813,19.304,43.118,43.118,43.118h284.949l-35.688-38.481V38.948z"/>
<g>
	<path style="fill:#E1E6E9;" d="M380.336,0c-19.915,0-36.058,16.144-36.058,36.059v50.432h72.117V36.059
		C416.395,16.144,400.25,0,380.336,0z"/>
	<path style="fill:#E1E6E9;" d="M344.278,305.364v50.432c0,19.915,16.143,36.059,36.058,36.059
		c19.915,0,36.059-16.144,36.059-36.059v-50.432H344.278z"/>
</g>
<polygon style="fill:#FCD462;" points="198.088,358.166 166.868,358.166 166.868,468.293 198.088,449.648 229.307,468.293 
	229.307,358.166 "/>
<path style="fill:#E56353;" d="M202.129,221.979l12.509,9.758c1.475,1.151,3.371,1.618,5.212,1.285l15.611-2.828
	c2.965-0.537,5.915,1.011,7.157,3.756l6.541,14.454c0.771,1.705,2.233,3,4.018,3.56l15.137,4.751
	c2.875,0.902,4.767,3.644,4.592,6.652l-0.925,15.838c-0.109,1.868,0.583,3.694,1.904,5.02l11.195,11.241
	c2.126,2.135,2.528,5.442,0.974,8.024l-8.18,13.594c-0.965,1.603-1.2,3.542-0.647,5.329l4.689,15.156
	c0.89,2.878-0.291,5.994-2.866,7.558l-13.56,8.236c-1.599,0.971-2.709,2.578-3.05,4.418l-2.892,15.599
	c-0.549,2.962-3.043,5.172-6.05,5.36l-15.834,0.991c-1.867,0.117-3.597,1.024-4.754,2.495l-9.81,12.469
	c-1.863,2.368-5.098,3.165-7.848,1.934l-14.481-6.481c-1.708-0.764-3.661-0.764-5.368,0l-14.481,6.481
	c-2.75,1.231-5.985,0.434-7.848-1.934l-9.81-12.469c-1.157-1.47-2.886-2.378-4.754-2.495l-15.834-0.991
	c-3.007-0.188-5.501-2.397-6.05-5.36l-2.892-15.599c-0.341-1.84-1.45-3.447-3.05-4.418l-13.56-8.236
	c-2.575-1.564-3.757-4.679-2.866-7.558l4.689-15.156c0.553-1.788,0.318-3.726-0.647-5.329l-8.18-13.594
	c-1.553-2.582-1.152-5.889,0.974-8.024l11.195-11.241c1.32-1.326,2.013-3.152,1.904-5.02l-0.925-15.838
	c-0.176-3.008,1.717-5.75,4.592-6.652l15.137-4.751c1.785-0.56,3.247-1.855,4.018-3.56l6.541-14.454
	c1.242-2.745,4.192-4.293,7.157-3.756l15.611,2.828c1.841,0.333,3.737-0.134,5.213-1.285l12.509-9.758
	C196.422,220.126,199.753,220.126,202.129,221.979z"/>
<circle style="fill:#E1E6E9;" cx="198.057" cy="308.898" r="59.498"/>
<g>
	<rect x="87.215" y="41.834" style="fill:#D5D6DB;" width="39.18" height="17.814"/>
	<rect x="147.856" y="41.834" style="fill:#D5D6DB;" width="161.093" height="17.814"/>
	<rect x="87.215" y="101.388" style="fill:#D5D6DB;" width="108.631" height="17.814"/>
	<rect x="234.334" y="101.388" style="fill:#D5D6DB;" width="74.596" height="17.814"/>
	<rect x="87.215" y="160.968" style="fill:#D5D6DB;" width="35.39" height="17.814"/>
	<rect x="154.474" y="160.968" style="fill:#D5D6DB;" width="154.505" height="17.814"/>
</g>
<g>
</g>
<g>
</g>
<g>
</g>
<g>
</g>
<g>
</g>
<g>
</g>
<g>
</g>
<g>
</g>
<g>
</g>
<g>
</g>
<g>
</g>
<g>
</g>
<g>
</g>
<g>
</g>
<g>
</g>
</svg>
