<?xml version="1.0" encoding="iso-8859-1"?>
<!-- Generator: Adobe Illustrator 19.0.0, SVG Export Plug-In . SVG Version: 6.00 Build 0)  -->
<svg version="1.1" id="Capa_1" xmlns="http://www.w3.org/2000/svg" xmlns:xlink="http://www.w3.org/1999/xlink" x="0px" y="0px"
	 viewBox="0 0 512.512 512.512" style="enable-background:new 0 0 512.512 512.512;" xml:space="preserve">
<path style="fill:#DAE5EF;" d="M217.616,512.512c-27.76,0-50.352-22.576-50.352-50.352v-29.04c0-6.448,5.232-11.68,11.68-11.68
	s11.68,5.232,11.68,11.68v29.04c0,14.88,12.112,26.992,26.976,26.992c14.88,0,26.992-12.112,26.992-26.992V96.256
	c0-6.448,5.232-11.68,11.68-11.68s11.68,5.232,11.68,11.68v365.92C267.968,489.936,245.376,512.512,217.616,512.512z"/>
<path style="fill:#5B5F63;" d="M244.592,418.256v43.904c0,14.88-12.112,26.992-26.992,26.992s-26.976-12.112-26.976-26.992v-29.04
	c0-6.448-5.232-11.68-11.68-11.68s-11.68,5.232-11.68,11.68v29.04c0,27.776,22.592,50.352,50.352,50.352
	s50.336-22.576,50.336-50.352v-43.904H244.592z"/>
<path style="fill:#E14B4B;" d="M111.488,296.896c24.304,0,46.016,8.48,60.544,21.792h2.512c22.096-12.672,50.592-20.32,81.728-20.32
	s59.632,7.648,81.728,20.32h2.512c14.528-13.312,36.256-21.792,60.544-21.792s46.016,8.48,60.544,21.792h1.152
	c0-114.048-92.448-206.496-206.496-206.496S49.76,204.64,49.76,318.688h1.168C65.472,305.376,87.2,296.896,111.488,296.896z"/>
<path style="fill:#FFD83B;" d="M256.272,298.384c31.12,0,59.616,7.632,81.712,20.304h1.856
	c0.016-137.328-83.568-206.496-83.568-206.496s-83.568,69.168-83.568,206.496h1.856
	C196.672,306.032,225.152,298.384,256.272,298.384z"/>
<g>
	<path style="fill:#6DAFDF;" d="M86.112,23.712c-4.912,8.512-2,19.408,6.528,24.336c8.528,4.912,19.424,2,24.336-6.528
		S120.384,0,120.384,0S91.04,15.184,86.112,23.712z"/>
	<path style="fill:#6DAFDF;" d="M188.864,23.712c-4.912,8.528-2,19.424,6.528,24.336s19.424,2,24.336-6.528S223.136,0,223.136,0
		S193.776,15.184,188.864,23.712z"/>
	<path style="fill:#6DAFDF;" d="M291.6,23.712c-4.912,8.528-2,19.424,6.528,24.336s19.424,2,24.336-6.528S325.872,0,325.872,0
		S296.512,15.184,291.6,23.712z"/>
	<path style="fill:#6DAFDF;" d="M428.592,0c0,0-29.344,15.184-34.256,23.712c-4.912,8.528-2,19.424,6.528,24.336
		c8.528,4.912,19.424,2,24.336-6.528C430.112,33.008,428.592,0,428.592,0z"/>
	<path style="fill:#6DAFDF;" d="M129.488,103.68c-4.912,8.512-2,19.408,6.528,24.336c8.528,4.912,19.424,2,24.336-6.528
		s3.408-41.52,3.408-41.52S134.4,95.152,129.488,103.68z"/>
	<path style="fill:#6DAFDF;" d="M334.96,103.68c-4.912,8.528-2,19.424,6.528,24.336c8.528,4.912,19.424,2,24.336-6.528
		s3.408-41.52,3.408-41.52S339.888,95.152,334.96,103.68z"/>
</g>
<g>
</g>
<g>
</g>
<g>
</g>
<g>
</g>
<g>
</g>
<g>
</g>
<g>
</g>
<g>
</g>
<g>
</g>
<g>
</g>
<g>
</g>
<g>
</g>
<g>
</g>
<g>
</g>
<g>
</g>
</svg>
