<?xml version="1.0" encoding="iso-8859-1"?>
<!-- Generator: Adobe Illustrator 19.0.0, SVG Export Plug-In . SVG Version: 6.00 Build 0)  -->
<svg version="1.1" id="Capa_1" xmlns="http://www.w3.org/2000/svg" xmlns:xlink="http://www.w3.org/1999/xlink" x="0px" y="0px"
	 viewBox="0 0 512 512" style="enable-background:new 0 0 512 512;" xml:space="preserve">
<rect x="203.2" y="397.541" style="fill:#CED6E0;" width="114.496" height="71.477"/>
<path style="fill:#E8EAE9;" d="M469.333,1.104H42.667C19.104,1.104,0,20.208,0,43.771v326.645C0,394,19.104,413.083,42.667,413.083
	h426.667C492.896,413.083,512,394,512,370.416V43.771C512,20.208,492.896,1.104,469.333,1.104"/>
<rect x="47.168" y="41.541" style="fill:#54C0EB;" width="426.667" height="279.573"/>
<path style="fill:#FF7058;" d="M461.397,365.979c0,7.648-6.187,13.856-13.856,13.856c-7.648,0-13.835-6.208-13.835-13.856
	c0-7.648,6.187-13.856,13.835-13.856C455.211,352.123,461.397,358.331,461.397,365.979"/>
<path style="fill:#FFD15C;" d="M412.192,365.979c0,7.648-6.187,13.856-13.856,13.856c-7.648,0-13.835-6.208-13.835-13.856
	c0-7.648,6.187-13.856,13.835-13.856C406.005,352.123,412.192,358.331,412.192,365.979"/>
<path style="fill:#E8EAE9;" d="M342.421,454.309h-163.84c-31.253,0-56.587,25.333-56.587,56.587h277.003
	C398.997,479.643,373.664,454.309,342.421,454.309"/>
<g>
</g>
<g>
</g>
<g>
</g>
<g>
</g>
<g>
</g>
<g>
</g>
<g>
</g>
<g>
</g>
<g>
</g>
<g>
</g>
<g>
</g>
<g>
</g>
<g>
</g>
<g>
</g>
<g>
</g>
</svg>
