<?xml version="1.0" encoding="iso-8859-1"?>
<!-- Generator: Adobe Illustrator 19.0.0, SVG Export Plug-In . SVG Version: 6.00 Build 0)  -->
<svg version="1.1" id="Capa_1" xmlns="http://www.w3.org/2000/svg" xmlns:xlink="http://www.w3.org/1999/xlink" x="0px" y="0px"
	 viewBox="0 0 510.632 510.632" style="enable-background:new 0 0 510.632 510.632;" xml:space="preserve">
<path style="fill:#6F7070;" d="M405.92,363.724V118.908c0-13.952-11.312-25.264-25.264-25.264H25.264
	C11.312,93.644,0,104.956,0,118.908v244.816H405.92z"/>
<rect x="25.264" y="118.908" style="fill:#FDBC4B;" width="355.36" height="237.168"/>
<path style="fill:#E5E5E5;" d="M0,356.124v34.752c0,13.952,11.312,25.264,25.264,25.264h355.392
	c13.952,0,25.264-11.312,25.264-25.264v-34.752H0z"/>
<rect x="134.64" y="416.124" style="fill:#CACACA;" width="136.64" height="49.056"/>
<path style="fill:#E5E5E5;" d="M302.112,465.196h-198.32c-6.304,0-11.408,5.104-11.408,11.408l0,0
	c0,6.304,5.104,11.408,11.408,11.408h198.32c6.304,0,11.408-5.104,11.408-11.408l0,0
	C313.536,470.316,308.416,465.196,302.112,465.196z"/>
<path style="fill:#CACACA;" d="M210.512,398.764h-15.088c-6.976,0-12.64-5.648-12.64-12.64c0-6.976,5.664-12.64,12.64-12.64h15.088
	c6.976,0,12.64,5.648,12.64,12.64C223.136,393.116,217.488,398.764,210.512,398.764z"/>
<g style="opacity:0.07;">
	<polygon style="fill:#010101;" points="134.64,416.14 271.28,447.628 271.28,416.14 	"/>
</g>
<path style="fill:#FFCC5B;" d="M123.216,356.124c9.808,0,17.76-7.952,17.76-17.76s-7.952-17.76-17.76-17.76H99.472
	c-8.208,0-14.896-6.72-14.848-14.928v-0.192c0-0.368-0.016-0.72-0.032-1.088c-0.496-8.096,5.936-14.912,14.048-14.912h56.736
	c9.616,0,18.24-7.2,18.736-16.8c0.544-10.24-7.616-18.72-17.728-18.72H121.36c-8.256,0-14.928-6.72-14.88-14.976v-1.024v-0.208
	c-0.048-8.688,7.008-15.792,15.696-15.792h3.616c9.616,0,18.24-7.2,18.736-16.8c0.544-10.24-7.616-18.72-17.728-18.72H90.368
	c-8.576,0-14.976-7.2-14.88-15.792c0-0.064,0-0.144,0-0.208s0-0.144,0-0.208c-0.096-8.576,6.304-15.792,14.88-15.792h14.672
	c9.616,0,18.24-7.2,18.736-16.8c0.544-10.24-7.616-18.72-17.728-18.72h-80.8v237.2H123.216z"/>
<g>
	<path style="fill:#D9DADB;" d="M63.488,373.724H37.664c-6.848,0-12.4,5.552-12.4,12.4s5.552,12.4,12.4,12.4h25.824
		c6.848,0,12.4-5.552,12.4-12.4S70.336,373.724,63.488,373.724z"/>
	<path style="fill:#D9DADB;" d="M96.192,373.724H94.64c-6.848,0-12.4,5.552-12.4,12.4s5.552,12.4,12.4,12.4h1.552
		c6.848,0,12.4-5.552,12.4-12.4S103.04,373.724,96.192,373.724z"/>
</g>
<g style="opacity:0.1;">
	<path style="fill:#010101;" d="M405.92,390.876V363.74v-7.616V148.668l-143.648,40.416l-39.136,53.6L393.152,412.7
		C400.752,408.348,405.92,400.252,405.92,390.876z"/>
</g>
<rect x="357.787" y="184.741" transform="matrix(-0.7071 0.7071 -0.7071 -0.7071 812.1794 114.6013)" style="fill:#464646;" width="49.136" height="81.535"/>
<path style="fill:#E95454;" d="M501.376,344.508L501.376,344.508c-12.336,12.336-32.336,12.336-44.688,0l-67.84-67.84l44.688-44.688
	l67.84,67.84C513.712,312.156,513.712,332.156,501.376,344.508z"/>
<circle style="fill:#464646;" cx="304.752" cy="147.788" r="125.168"/>
<circle style="fill:#3789C9;" cx="304.752" cy="147.788" r="95.216"/>
<path style="fill:#ED6362;" d="M501.376,299.82l-67.84-67.84l-23.808,23.808c-3.728,3.728-3.728,9.776,0,13.504
	s9.776,3.728,13.504,0l9.024-9.024c3.12-3.12,8.224-3.104,11.328,0.032l0.08,0.08c0.144,0.144,0.272,0.272,0.432,0.4
	c3.264,2.896,3.408,7.92,0.336,11.008l-14.336,14.336c-3.664,3.664-4.192,9.664-0.736,13.52c3.696,4.096,10.016,4.224,13.856,0.368
	l17.456-17.456c3.136-3.136,8.24-3.12,11.36,0.032l0.384,0.4l0.08,0.08c3.328,3.28,3.344,8.672,0.032,11.968l-8.816,8.816
	c-3.648,3.648-4.192,9.664-0.736,13.52c3.696,4.096,10,4.224,13.856,0.368l9.904-9.904c3.264-3.264,8.432-2.96,11.664,0.352
	c0.032,0.032,0.048,0.048,0.08,0.08c0.032,0.032,0.048,0.048,0.08,0.08c3.296,3.232,3.616,8.4,0.352,11.664l-11.264,11.264
	c-3.648,3.648-4.192,9.664-0.736,13.52c3.488,3.872,9.264,4.064,13.152,0.832c0.432-0.384,0.928-0.672,1.344-1.088
	C513.712,332.156,513.712,312.156,501.376,299.82z"/>
<g>
	<path style="fill:#FFFFFF;" d="M229.248,157.18l10.576-1.024c0.64,3.552,1.936,6.16,3.872,7.824
		c1.952,1.664,4.576,2.496,7.872,2.496c3.504,0,6.144-0.736,7.92-2.224s2.656-3.216,2.656-5.2c0-1.28-0.368-2.352-1.12-3.248
		s-2.048-1.664-3.904-2.336c-1.28-0.448-4.176-1.232-8.704-2.352c-5.824-1.44-9.92-3.216-12.272-5.328
		c-3.312-2.96-4.96-6.576-4.96-10.832c0-2.736,0.784-5.312,2.336-7.696s3.792-4.208,6.72-5.456s6.464-1.872,10.592-1.872
		c6.752,0,11.84,1.488,15.264,4.448c3.424,2.96,5.216,6.912,5.392,11.856l-10.864,0.48c-0.464-2.768-1.456-4.752-2.992-5.968
		s-3.824-1.824-6.88-1.824c-3.152,0-5.632,0.656-7.424,1.952c-1.152,0.832-1.728,1.952-1.728,3.344c0,1.28,0.544,2.368,1.616,3.264
		c1.376,1.152,4.704,2.352,9.984,3.6c5.296,1.248,9.2,2.544,11.728,3.872c2.528,1.328,4.512,3.152,5.952,5.472
		s2.144,5.168,2.144,8.576c0,3.088-0.864,5.968-2.576,8.672c-1.712,2.688-4.144,4.688-7.28,6s-7.04,1.968-11.712,1.968
		c-6.8,0-12.032-1.568-15.68-4.72C232.128,167.788,229.952,163.196,229.248,157.18z"/>
	<path style="fill:#FFFFFF;" d="M282.176,174.7v-53.84h39.92v9.104H293.04V141.9h27.024v9.072H293.04v14.656h30.08v9.072
		L282.176,174.7L282.176,174.7z"/>
	<path style="fill:#FFFFFF;" d="M330.144,148.108c0-5.488,0.816-10.08,2.464-13.808c1.232-2.736,2.896-5.2,5.008-7.376
		s4.432-3.792,6.96-4.848c3.36-1.424,7.216-2.128,11.6-2.128c7.936,0,14.288,2.464,19.04,7.376s7.136,11.76,7.136,20.528
		c0,8.688-2.368,15.488-7.088,20.4c-4.72,4.912-11.04,7.36-18.944,7.36c-8,0-14.368-2.448-19.104-7.328
		C332.496,163.404,330.144,156.668,330.144,148.108z M341.344,147.74c0,6.096,1.408,10.72,4.224,13.872s6.384,4.72,10.72,4.72
		s7.888-1.568,10.672-4.688c2.784-3.12,4.176-7.808,4.176-14.048c0-6.176-1.36-10.768-4.064-13.808s-6.304-4.56-10.784-4.56
		s-8.096,1.536-10.832,4.608S341.344,141.548,341.344,147.74z"/>
</g>
<g>
</g>
<g>
</g>
<g>
</g>
<g>
</g>
<g>
</g>
<g>
</g>
<g>
</g>
<g>
</g>
<g>
</g>
<g>
</g>
<g>
</g>
<g>
</g>
<g>
</g>
<g>
</g>
<g>
</g>
</svg>
