<svg height="512" viewBox="0 0 58 58" width="512" xmlns="http://www.w3.org/2000/svg"><g id="Page-1" fill="none" fill-rule="evenodd"><g id="108---Photos" fill-rule="nonzero"><path id="Shape" d="m50 53h4c2.209139 0 4-1.790861 4-4v-35l-14-14h-20c-2.2064037.0065896-3.9934104 1.79359627-4 4v20z" fill="#b0d3f0"/><path id="Shape" d="m44 0v10c0 2.209139 1.790861 4 4 4h10z" fill="#90bae1"/><path id="Shape" d="m50 28v26c0 2.209139-1.790861 4-4 4h-42c-2.209139 0-4-1.790861-4-4v-36c0-2.209139 1.790861-4 4-4h14c2.209139 0 4 1.790861 4 4v2c0 2.209139 1.790861 4 4 4h20c2.209139 0 4 1.790861 4 4z" fill="#f0c419"/><g fill="#2980ba"><path id="Shape" d="m28 13h-2c-.5522847 0-1-.4477153-1-1s.4477153-1 1-1h2c.5522847 0 1 .4477153 1 1s-.4477153 1-1 1z"/><path id="Shape" d="m40 13h-7c-.5522847 0-1-.4477153-1-1s.4477153-1 1-1h7c.5522847 0 1 .4477153 1 1s-.4477153 1-1 1z"/><path id="Shape" d="m28 17h-2c-.5522847 0-1-.4477153-1-1s.4477153-1 1-1h2c.5522847 0 1 .4477153 1 1s-.4477153 1-1 1z"/><path id="Shape" d="m40 17h-7c-.5522847 0-1-.4477153-1-1s.4477153-1 1-1h7c.5522847 0 1 .4477153 1 1s-.4477153 1-1 1z"/><path id="Shape" d="m28 21h-2c-.5522847 0-1-.4477153-1-1s.4477153-1 1-1h2c.5522847 0 1 .4477153 1 1s-.4477153 1-1 1z"/><path id="Shape" d="m40 21h-7c-.5522847 0-1-.4477153-1-1s.4477153-1 1-1h7c.5522847 0 1 .4477153 1 1s-.4477153 1-1 1z"/></g><path id="Shape" d="m4 21c-.55228475 0-1-.4477153-1-1v-2c0-.5522847.44771525-1 1-1s1 .4477153 1 1v2c0 .5522847-.44771525 1-1 1z" fill="#f3d55b"/><path id="Shape" d="m4 40c-.55228475 0-1-.4477153-1-1v-14c0-.5522847.44771525-1 1-1s1 .4477153 1 1v14c0 .5522847-.44771525 1-1 1z" fill="#f3d55b"/><path id="Shape" d="m39 35v16c-.0032948 1.1032019-.8967981 1.9967052-2 2h-24c-1.1032019-.0032948-1.9967052-.8967981-2-2v-16c.0032948-1.1032019.8967981-1.9967052 2-2h3.919c.6736498.0008992 1.3024929-.3373906 1.673-.9l1.436-2.2c.3703123-.5623128.9987047-.9005623 1.672-.9h6.59c.6732953-.0005623 1.3016877.3376872 1.672.9l1.444 2.2c.3703123.5623128.9987047.9005623 1.672.9h3.922c1.1032019.0032948 1.9967052.8967981 2 2z" fill="#955ba5"/><circle id="Oval" cx="25" cy="42" fill="#35495e" r="8"/><circle id="Oval" cx="25" cy="42" fill="#2fa8cc" r="5"/><circle id="Oval" cx="25" cy="42" fill="#67b9cc" r="3"/></g></g></svg>