<?xml version="1.0" encoding="iso-8859-1"?>
<!-- Generator: Adobe Illustrator 19.0.0, SVG Export Plug-In . SVG Version: 6.00 Build 0)  -->
<svg version="1.1" id="Capa_1" xmlns="http://www.w3.org/2000/svg" xmlns:xlink="http://www.w3.org/1999/xlink" x="0px" y="0px"
	 viewBox="0 0 512 512" style="enable-background:new 0 0 512 512;" xml:space="preserve">
<path style="fill:#E8EAE9;" d="M250.667,190.933v-140.8c0-10.667-8.533-19.2-19.2-19.2c-10.667,0-19.2,8.533-19.2,19.2v140.8
	H250.667z"/>
<g>
	<path style="fill:#F3705A;" d="M338.133,21.333c-19.2,0-37.333,10.667-46.933,28.8h-40.533v30.933h87.467
		c16,0,29.867-12.8,29.867-29.867S355.2,21.333,338.133,21.333z"/>
	<path style="fill:#F3705A;" d="M171.733,50.133c-8.533-17.067-26.667-28.8-46.933-28.8C108.8,21.333,96,35.2,96,51.2
		s12.8,29.867,29.867,29.867h87.467V50.133H171.733z"/>
</g>
<rect x="174.933" y="185.6" style="fill:#415A6B;" width="113.067" height="54.4"/>
<rect x="146.133" y="226.133" style="fill:#ADB3BA;" width="171.733" height="43.733"/>
<path style="fill:#CED6E0;" d="M125.867,363.733c17.067,37.333,57.6,62.933,105.6,62.933s88.533-25.6,105.6-62.933H125.867z"/>
<path style="fill:#E8EAE9;" d="M484.267,475.733H377.6V416c0-21.333-17.067-38.4-38.4-38.4H25.6V270.933h313.6
	c80,0,145.067,65.067,145.067,145.067V475.733z"/>
<g>
	<path style="fill:#CED6E0;" d="M25.6,242.133c-13.867,0-25.6,11.733-25.6,25.6v112c0,14.933,11.733,25.6,25.6,25.6
		s25.6-11.733,25.6-25.6v-112C50.133,253.867,39.467,242.133,25.6,242.133z"/>
	<path style="fill:#CED6E0;" d="M512,465.067c0-13.867-11.733-25.6-25.6-25.6h-112c-13.867,0-25.6,11.733-25.6,25.6
		c0,13.867,11.733,25.6,25.6,25.6h112C500.267,490.667,512,478.933,512,465.067z"/>
</g>
<g>
</g>
<g>
</g>
<g>
</g>
<g>
</g>
<g>
</g>
<g>
</g>
<g>
</g>
<g>
</g>
<g>
</g>
<g>
</g>
<g>
</g>
<g>
</g>
<g>
</g>
<g>
</g>
<g>
</g>
</svg>
