<?xml version="1.0" encoding="iso-8859-1"?>
<!-- Generator: Adobe Illustrator 19.0.0, SVG Export Plug-In . SVG Version: 6.00 Build 0)  -->
<svg xmlns="http://www.w3.org/2000/svg" xmlns:xlink="http://www.w3.org/1999/xlink" version="1.1" id="Capa_1" x="0px" y="0px" viewBox="0 0 409.6 409.6" style="enable-background:new 0 0 409.6 409.6;" xml:space="preserve">
<ellipse style="fill:#E56353;" cx="204.8" cy="244.992" rx="204.8" ry="160.768"/>
<path style="fill:#D15241;" d="M204.8,406.272c113.152,0,204.8-72.192,204.8-160.768s-91.648-161.28-204.8-161.28V406.272z"/>
<path style="fill:#44C4A1;" d="M181.76,84.224c-52.736-13.312-91.648,27.648-91.648,27.648c14.848-9.216,64.512,4.608,64.512,4.608  c-22.528,12.288-19.456,50.688-19.456,50.688c6.144-25.6,70.656-36.352,70.656-36.352c32.768-5.12,72.192,43.008,72.192,43.008  c1.536-34.816-27.136-57.856-27.136-57.856l67.584-4.608c-31.744-29.696-87.552-27.648-87.552-27.648s-9.216-42.496-30.72-80.384  L181.76,84.224z"/>
<g>
	<path style="fill:#EBF0F3;" d="M82.432,339.712c-3.072,0-5.632-1.024-7.68-3.584C22.016,268.544,35.84,216.32,57.344,184.576   c2.56-3.584,8.192-5.12,12.288-2.56c4.096,2.048,5.632,7.168,3.072,11.264C54.272,220.928,42.496,266.496,89.6,327.424   c3.072,3.584,2.048,8.704-2.048,11.264C86.016,339.2,83.968,339.712,82.432,339.712z"/>
	<ellipse style="fill:#EBF0F3;" cx="82.432" cy="164.608" rx="15.872" ry="13.824"/>
</g>
<ellipse style="fill:#CE412D;" cx="204.8" cy="102.656" rx="27.136" ry="13.312"/>
<ellipse style="fill:#EBF0F3;" cx="204.8" cy="102.656" rx="17.408" ry="8.704"/>
<g>
</g>
<g>
</g>
<g>
</g>
<g>
</g>
<g>
</g>
<g>
</g>
<g>
</g>
<g>
</g>
<g>
</g>
<g>
</g>
<g>
</g>
<g>
</g>
<g>
</g>
<g>
</g>
<g>
</g>
</svg>
