<?xml version="1.0" encoding="iso-8859-1"?>
<!-- Generator: Adobe Illustrator 19.0.0, SVG Export Plug-In . SVG Version: 6.00 Build 0)  -->
<svg version="1.1" id="Capa_1" xmlns="http://www.w3.org/2000/svg" xmlns:xlink="http://www.w3.org/1999/xlink" x="0px" y="0px"
	 viewBox="0 0 468.293 468.293" style="enable-background:new 0 0 468.293 468.293;" xml:space="preserve">
<path style="fill:#3EA69B;" d="M217.684,38.18c13.623-13.229,24.313-19.568,25.551-20.279c4.586-2.623,6.186-8.463,3.572-13.058
	c-2.614-4.601-8.472-6.201-13.067-3.59c-4.037,2.296-98.897,57.912-100.273,202.265c-0.05,5.29,4.199,9.623,9.492,9.673
	c0.031,0,0.062,0,0.094,0c5.247,0,9.53-4.23,9.58-9.492c0.705-73.961,27.556-122.469,51.864-151.332
	c27.703,18.29,135.404,97.947,119.906,221.304c-0.661,5.25,3.063,10.044,8.313,10.703c0.406,0.05,0.808,0.075,1.207,0.075
	c4.76,0,8.887-3.544,9.495-8.388C359.754,146.029,251.653,61.342,217.684,38.18z"/>
<g>
	<path style="fill:#E56353;" d="M200.213,201.702c-8.039-5.46-18.322-6.686-27.475-3.421c-9.541,3.404-21.87,5.461-35.361,5.461
		c-13.494,0-25.826-2.058-35.368-5.463c-9.134-3.26-19.4-2.052-27.425,3.394C41.946,223.82,21.595,262.68,26.03,306.021
		c5.535,54.092,50.768,97.027,105.062,99.994c64.681,3.535,118.236-47.868,118.236-111.779
		C249.328,255.721,229.837,221.825,200.213,201.702z"/>
	<path style="fill:#E56353;" d="M393.752,263.808c-8.039-5.46-18.322-6.686-27.475-3.421c-9.541,3.404-21.87,5.461-35.361,5.461
		c-13.494,0-25.826-2.058-35.368-5.463c-9.134-3.26-19.4-2.052-27.425,3.394c-32.637,22.147-52.988,61.007-48.553,104.348
		c5.535,54.092,50.768,97.027,105.062,99.994c64.681,3.534,118.236-47.868,118.236-111.779
		C442.867,317.827,423.376,283.93,393.752,263.808z"/>
</g>
<path style="fill:#3EA69B;" d="M390.886,17.704L390.886,17.704c-56.854,6.264-97.865,57.433-91.598,114.286l0,0
	C356.142,125.726,397.153,74.557,390.886,17.704z"/>
<g>
	<path style="fill:#E1E6E9;" d="M62.833,277.448c-0.127,0-0.256-0.003-0.386-0.012c-3.484-0.207-6.139-3.204-5.929-6.688
		c2.222-37.076,31.363-52.057,32.601-52.677c3.126-1.559,6.923-0.293,8.481,2.827c1.559,3.12,0.299,6.91-2.815,8.475
		c-1.13,0.58-23.879,12.632-25.65,42.134C68.935,274.862,66.151,277.448,62.833,277.448z"/>
	<path style="fill:#E1E6E9;" d="M260.648,363.321c-0.125,0.02-0.253,0.038-0.383,0.05c-3.473,0.354-6.572-2.179-6.923-5.652
		c-3.741-36.953,22.627-56.405,23.749-57.216c2.837-2.039,6.787-1.398,8.824,1.433c2.038,2.83,1.402,6.773-1.422,8.816
		c-1.022,0.754-21.549,16.292-18.576,45.696C266.257,359.791,263.923,362.789,260.648,363.321z"/>
</g>
<g>
</g>
<g>
</g>
<g>
</g>
<g>
</g>
<g>
</g>
<g>
</g>
<g>
</g>
<g>
</g>
<g>
</g>
<g>
</g>
<g>
</g>
<g>
</g>
<g>
</g>
<g>
</g>
<g>
</g>
</svg>
