<svg height="512" viewBox="0 0 58 54" width="512" xmlns="http://www.w3.org/2000/svg"><g id="Page-1" fill="none" fill-rule="evenodd"><g id="109---Folder" fill-rule="nonzero"><path id="Shape" d="m58 19v29c0 3.3137085-2.6862915 6-6 6h-46c-3.3137085 0-6-2.6862915-6-6v-44c0-2.209139 1.790861-4 4-4h22c2.209139 0 4 1.790861 4 4v2h18c2.209139 0 4 1.790861 4 4v3c3.3116533.0049563 5.9950437 2.6883467 6 6z" fill="#f0c419"/><path id="Shape" d="m52 10v3h-52v-9c0-2.209139 1.790861-4 4-4h22c2.209139 0 4 1.790861 4 4v2h18c2.209139 0 4 1.790861 4 4z" fill="#f29c1f"/><g fill="#e57e25"><path id="Shape" d="m18 13h-4c-.5522847 0-1-.4477153-1-1s.4477153-1 1-1h4c.5522847 0 1 .4477153 1 1s-.4477153 1-1 1z"/><path id="Shape" d="m52 11v2h-29c-.5522847 0-1-.4477153-1-1s.4477153-1 1-1z"/></g></g></g></svg>