<?xml version="1.0" encoding="iso-8859-1"?>
<!-- Generator: Adobe Illustrator 19.0.0, SVG Export Plug-In . SVG Version: 6.00 Build 0)  -->
<svg version="1.1" id="Capa_1" xmlns="http://www.w3.org/2000/svg" xmlns:xlink="http://www.w3.org/1999/xlink" x="0px" y="0px"
	 viewBox="0 0 511.984 511.984" style="enable-background:new 0 0 511.984 511.984;" xml:space="preserve">
<path style="fill:#464646;" d="M472.816,180.472v260h-433.6v-260c0-17.6,14.4-32,32-32h369.6
	C458.416,148.472,472.816,162.872,472.816,180.472z"/>
<rect x="71.248" y="180.664" style="fill:#FDBC4B;" width="369.44" height="227.936"/>
<path style="fill:#FFCC5B;" d="M246.352,408.488c9.424,0,17.072-7.648,17.072-17.072c0-9.424-7.648-17.056-17.072-17.056H223.52
	c-7.888,0-14.32-6.464-14.272-14.352v-0.192c0-0.352-0.016-0.704-0.032-1.04c-0.48-7.776,5.696-14.336,13.504-14.336h30.24
	c9.248,0,17.52-6.912,18-16.144c0.512-9.84-7.312-17.984-17.04-17.984h-9.36c-7.936,0-14.352-6.448-14.304-14.384v-0.992v-0.208
	c-0.048-8.352,6.736-15.168,15.088-15.168h12.08c9.248,0,17.52-6.912,18-16.144c0.512-9.84-7.312-17.984-17.04-17.984h-43.616
	c-8.24,0-14.4-6.928-14.304-15.168c0-0.064,0-0.144,0-0.208s0-0.144,0-0.208c-0.096-8.24,6.048-15.168,14.304-15.168h14.112
	c9.248,0,17.52-6.912,18-16.144c0.512-9.84-7.312-17.984-17.04-17.984H71.248v227.936L246.352,408.488L246.352,408.488z"/>
<path style="fill:#E5E5E5;" d="M485.84,440.488H26.16C11.712,440.488,0,452.2,0,466.664c0,14.448,11.712,26.16,26.16,26.16h459.664
	c14.448,0,26.16-11.712,26.16-26.16C512,452.2,500.288,440.488,485.84,440.488z"/>
<path style="fill:#F3F3F3;" d="M511.888,465.496c-0.624-13.904-12-25.008-26.048-25.008H26.16
	c-14.048,0-25.424,11.104-26.048,25.008H511.888z"/>
<g style="opacity:0.1;">
	<path style="fill:#010101;" d="M472.816,180.472v259.68h-125.12l-143.2-143.2l123.36-148.48h112.96
		C458.416,148.472,472.816,162.872,472.816,180.472z"/>
</g>
<path style="fill:#4B9FD8;" d="M256,32.472c0,0-42.768,50.496-120.576,47.296v50.256c0,79.248,47.52,150.752,120.576,181.456l0,0
	c73.056-30.688,120.576-102.208,120.576-181.456V79.768C298.768,82.968,256,32.472,256,32.472z"/>
<path style="fill:#3789C9;" d="M255.008,33.56c-6.464,7.024-48.24,49.136-119.584,46.208v50.256
	c0,78.88,47.104,150.064,119.584,180.992V33.56z"/>
<path style="fill:#F3F3F3;" d="M256,324.792c-1.76,0-3.52-0.352-5.152-1.04C172.64,290.904,122.112,214.84,122.112,130.024v-50.24
	c0-3.632,1.472-7.104,4.096-9.616c2.608-2.496,6.096-3.952,9.76-3.696c69.84,2.96,108.288-40.784,109.888-42.656
	c2.528-2.944,6.24-4.656,10.128-4.656c0.016,0,0.032,0,0.048,0c3.888,0.032,7.584,1.712,10.112,4.672
	c1.68,1.952,39.984,45.632,109.888,42.64c3.68-0.24,7.152,1.2,9.776,3.696c2.624,2.512,4.096,5.984,4.096,9.616v50.256
	c0,84.816-50.528,160.88-128.752,193.728C259.504,324.44,257.76,324.792,256,324.792z M148.752,93.144v36.896
	c0,72.192,41.92,137.088,107.248,166.896c65.344-29.808,107.264-94.704,107.264-166.896V93.144
	c-54.208-1.84-90.672-27.344-107.264-42C239.408,65.8,202.928,91.304,148.752,93.144z"/>
<path style="fill:#3789C9;" d="M293.344,188.808H271.28c-7.056,0-12.8-5.776-12.768-12.832V175.8v-0.832
	c-0.048-6.704,5.392-12.176,12.096-12.176h23.728c8.224,0,14.848-6.896,14.416-15.216c-0.416-7.808-7.424-13.664-15.232-13.664
	h-17.072c-6.592,0-11.824-5.536-11.424-12.128c0.016-0.288,0.032-0.592,0.032-0.88v-0.16c-0.032-6.672,5.392-12.144,12.08-12.144
	h6.816c7.968,0,14.448-6.464,14.448-14.432c0-7.984-6.464-14.448-14.448-14.448h-44.08v192.864h42.288
	c8.224,0,14.848-6.896,14.416-15.216c-0.4-7.808-7.408-13.664-15.232-13.664H269.76c-6.976,0-12.176-5.856-12.096-12.832
	c0-0.048,0-0.112,0-0.176c0-0.048,0-0.112,0-0.176c-0.08-6.976,5.12-12.848,12.096-12.848h24.4c8.224,0,14.848-6.88,14.416-15.216
	C308.176,194.664,301.168,188.808,293.344,188.808z"/>
<path style="fill:#FFFFFF;" d="M232.912,228.344c-4.624,0-9.248-1.76-12.784-5.296l-30.4-30.4c-7.056-7.056-7.056-18.496,0-25.552
	c7.04-7.056,18.496-7.056,25.552,0l17.632,17.632l63.824-63.824c7.056-7.056,18.496-7.056,25.552,0s7.056,18.496,0,25.552
	l-76.592,76.592C242.16,226.584,237.536,228.344,232.912,228.344z"/>
<g>
</g>
<g>
</g>
<g>
</g>
<g>
</g>
<g>
</g>
<g>
</g>
<g>
</g>
<g>
</g>
<g>
</g>
<g>
</g>
<g>
</g>
<g>
</g>
<g>
</g>
<g>
</g>
<g>
</g>
</svg>
