<?xml version="1.0" encoding="iso-8859-1"?>
<!-- Generator: Adobe Illustrator 19.0.0, SVG Export Plug-In . SVG Version: 6.00 Build 0)  -->
<svg version="1.1" id="Capa_1" xmlns="http://www.w3.org/2000/svg" xmlns:xlink="http://www.w3.org/1999/xlink" x="0px" y="0px"
	 viewBox="0 0 512 512" style="enable-background:new 0 0 512 512;" xml:space="preserve">
<path style="fill:#FFD83B;" d="M301.184,446.608c0,0,9.392-12.784,12.064-45.52c2.656-32.736,25.856-54.224,25.856-54.224
	s34.432-23.872,43.664-33.648s23.328-34.384,36.256-59.68c0,0,12.544-36.416,36.512-32.032c0,0,3.2-10.112,3.888-29.44
	c0,0,4.72-92.288,29.168-101.104c0,0,17.424-5.6,19.344,20.944c0,0,6.032,107.264,0.048,166.64c0,0-3.152,20,4.016,68.208
	c0,0-1.472,15.248-19.584,25.12c0,0-91.056,58.4-96.928,108.496L301.184,446.608z"/>
<path style="fill:#F3C432;" d="M464.288,223.008c23.712,13.584-4.128,68.928-4.128,68.928c-0.368,10.48-6.128,22.624-6.128,22.624
	c-7.808,7.408-33.744,49.584-33.744,49.584c-11.408,26.144-27.536,33.536-27.536,33.536s16.112-3.248,29.248-27.216
	c0,0,20.496-39.952,34.704-43.984c0,0,13.088-13.504,10.304-33.552c0,0-0.288-10.912,5.088-20.304c0,0,13.712-30.176,0.688-44.768
	L464.288,223.008z"/>
<g>
	<path style="fill:#FFFFFF;" d="M434.96,238.272l-4.208,9.984c-0.976,2.336,0.112,5.024,2.448,6l24.768,10.432
		c2.336,0.976,5.024-0.112,6-2.448l4.208-9.984c3.872-9.168-0.432-19.744-9.6-23.6C449.392,224.8,438.816,229.088,434.96,238.272z"
		/>
	<path style="fill:#FFFFFF;" d="M502.368,95.04c-14,28.544,5.664,37.712,5.664,37.712h0.896
		c-0.528-12.832-0.976-20.832-0.976-20.832C507.312,103.376,505.088,98.176,502.368,95.04z"/>
</g>
<polygon style="fill:#DDE3E9;" points="417.184,508.832 423.904,489.12 299.248,445.36 286.992,481.52 362.32,508.832 "/>
<polygon style="fill:#5B5F63;" points="362.96,508.832 280.064,478.864 269.68,508.832 "/>
<path style="fill:#FFD83B;" d="M210.816,446.608c0,0-9.392-12.784-12.064-45.52s-25.856-54.224-25.856-54.224
	s-34.432-23.872-43.664-33.648s-23.328-34.384-36.256-59.68c0,0-12.544-36.416-36.512-32.032c0,0-3.2-10.112-3.888-29.44
	c0,0-4.72-92.288-29.168-101.104c0,0-17.424-5.6-19.344,20.944c0,0-6.032,107.264-0.048,166.64c0,0,3.152,20-4.016,68.208
	c0,0,1.472,15.248,19.584,25.12c0,0,91.056,58.4,96.928,108.496L210.816,446.608z"/>
<path style="fill:#F3C432;" d="M47.712,223.008C24,236.592,51.84,291.936,51.84,291.936c0.368,10.48,6.128,22.624,6.128,22.624
	c7.808,7.408,33.744,49.584,33.744,49.584c11.408,26.144,27.536,33.536,27.536,33.536S103.136,394.432,90,370.464
	c0,0-20.496-39.952-34.704-43.984c0,0-13.088-13.504-10.304-33.552c0,0,0.288-10.912-5.088-20.304c0,0-13.712-30.176-0.688-44.768
	L47.712,223.008z"/>
<g>
	<path style="fill:#FFFFFF;" d="M77.04,238.272l4.208,9.984c0.976,2.336-0.112,5.024-2.448,6l-24.768,10.432
		c-2.336,0.976-5.024-0.112-6-2.448l-4.192-9.984c-3.872-9.168,0.432-19.744,9.6-23.6C62.608,224.8,73.184,229.088,77.04,238.272z"
		/>
	<path style="fill:#FFFFFF;" d="M9.632,95.04c14,28.544-5.664,37.712-5.664,37.712H3.072C3.6,119.92,4.048,111.92,4.048,111.92
		C4.688,103.376,6.912,98.176,9.632,95.04z"/>
</g>
<polygon style="fill:#DDE3E9;" points="149.68,508.832 225.008,481.52 212.752,445.36 88.096,489.12 94.816,508.832 "/>
<polygon style="fill:#5B5F63;" points="242.32,508.832 231.936,478.864 149.04,508.832 "/>
<path style="fill:#65B1EF;" d="M373.344,220.56c0,64.912-52.656,117.344-117.344,117.344c-64.912,0-117.344-52.432-117.344-117.344
	C138.656,155.872,256,3.168,256,3.168S373.344,155.872,373.344,220.56z"/>
<path style="fill:#FFFFFF;" d="M344.912,220.56c1.36,15.696,0.88,24.96-7.472,44.176c-9.696,16.416-13.92,23.488-37.248,37.264
	c-15.328,6.656-26.832,9.616-44.176,7.472c25.904-4.944,19.584-4.016,40.576-14.064c14.8-9.328,24.576-18.88,34.272-34.256
	C341.04,239.808,340.016,246.368,344.912,220.56z"/>
<g>
</g>
<g>
</g>
<g>
</g>
<g>
</g>
<g>
</g>
<g>
</g>
<g>
</g>
<g>
</g>
<g>
</g>
<g>
</g>
<g>
</g>
<g>
</g>
<g>
</g>
<g>
</g>
<g>
</g>
</svg>
