<?xml version="1.0" encoding="iso-8859-1"?>
<!-- Generator: Adobe Illustrator 19.0.0, SVG Export Plug-In . SVG Version: 6.00 Build 0)  -->
<svg version="1.1" id="Capa_1" xmlns="http://www.w3.org/2000/svg" xmlns:xlink="http://www.w3.org/1999/xlink" x="0px" y="0px"
	 viewBox="0 0 511.653 511.653" style="enable-background:new 0 0 511.653 511.653;" xml:space="preserve">
<g>
	<path style="fill:#8BC540;" d="M321.376,156.13c0,0-7.168-58.512,81.808-81.2c0,0,96.128-14.928,101.504-29.264
		c0,0-23.28,48.368-31.648,105.088c0,0-22.688,90.16-89.568,68.064S321.376,156.13,321.376,156.13z"/>
	<path style="fill:#8BC540;" d="M140.592,106.77c0,0,45.376,20.768,79.2,29.216c0,0,69.984,20,44.608,63.824
		c0,0-4.624,10.544-15.52,20.752c-28.96,27.136-77.424,16.096-91.376-21.056c-2.88-7.664-4.272-16.464-3.072-26.416
		C159.808,128.29,140.592,106.77,140.592,106.77z"/>
</g>
<g>
	<path style="fill:#7FB241;" d="M294.416,313.106c-0.096-0.128-19.344-41.776-27.2-56.224c-9.488-18.48-27.92-47.504-36.304-58.64
		c-35.344-48-57.632-67.152-90.32-91.488c32.592,21.92,56.464,39.952,95.296,87.728c9.008,10.848,29.056,39.264,39.664,57.664
		c8.816,14.512,20.256,35.776,28.224,53.936L294.416,313.106z"/>
	<path style="fill:#7FB241;" d="M413.136,114.978c-14.48,12.688-39.824,39.968-67.488,76.112c-11.28,16-29.76,41.584-46.016,73.328
		c-9.632,18.592-12.176,37.456-1.648,56.608c4.352,0,8.72,0,13.072,0c-8.896-16.176-8.944-35.344-0.432-51.936
		c14.688-31.44,31.456-56.832,41.984-73.088c25.6-36.32,49.28-64.16,63.664-77.808c37.2-35.968,48.96-44.448,88.416-70.016
		C475.136,65.73,458.128,74.802,413.136,114.978z"/>
</g>
<path style="fill:#FFD83B;" d="M79.392,308.194c0,0,16.784,1.92,48.448-12.96c31.664-14.864,63.808-4.8,63.808-4.8
	s40.304,19.184,54.208,22.544s44.128,3.36,74.352,1.92c0,0,40.304-7.68,48.928,16.784c0,0,11.04-2.4,29.264-12
	c0,0,87.792-44.496,108.896-26.56c0,0,14.384,13.136-9.12,28.96c0,0-95.952,62.368-154,88.272c0,0-20.144,7.68-60.928,39.824
	c0,0-14.864,6.72-33.584-4.8c0,0-102.176-53.248-151.6-32.144L79.392,308.194z"/>
<path style="fill:#F3C432;" d="M372.4,340.578c0,29.104-65.904,32.672-65.904,32.672c-9.888,5.216-24.16,6.32-24.16,6.32
	c-10.976-3.296-63.696-4.944-63.696-4.944c-30.208,3.296-45.584-7.68-45.584-7.68s11.536,13.184,40.64,12.624
	c0,0,47.776-2.192,59.04,8.784c0,0,19.408,4.944,36.48-8.24c0,0,9.92-6.048,21.456-6.048c0,0,35.152-3.296,41.728-23.056V340.578z"
	/>
<g>
	<path style="fill:#FFFFFF;" d="M342.784,321.554l-11.456,1.392c-2.672,0.32-4.576,2.752-4.256,5.44l3.472,28.416
		c0.32,2.672,2.752,4.576,5.44,4.256l11.456-1.392c10.528-1.28,18.016-10.848,16.72-21.376S353.296,320.274,342.784,321.554z"/>
	<path style="fill:#FFFFFF;" d="M510.848,308.018c-33.792,2.16-31.856,25.2-31.856,25.2l0.48,0.832
		c11.584-7.28,18.736-11.936,18.736-11.936C505.76,317.026,509.392,312.21,510.848,308.018z"/>
</g>
<polygon style="fill:#E8EFF3;" points="105.072,444.13 63.744,452.146 39.616,313.57 79.52,305.762 "/>
<polygon style="fill:#3F4347;" points="0,465.986 64.576,455.314 38.4,305.762 0,313.01 "/>
<g>
</g>
<g>
</g>
<g>
</g>
<g>
</g>
<g>
</g>
<g>
</g>
<g>
</g>
<g>
</g>
<g>
</g>
<g>
</g>
<g>
</g>
<g>
</g>
<g>
</g>
<g>
</g>
<g>
</g>
</svg>
