<?xml version="1.0" encoding="iso-8859-1"?>
<!-- Generator: Adobe Illustrator 19.0.0, SVG Export Plug-In . SVG Version: 6.00 Build 0)  -->
<svg xmlns="http://www.w3.org/2000/svg" xmlns:xlink="http://www.w3.org/1999/xlink" version="1.1" id="Capa_1" x="0px" y="0px" viewBox="0 0 409.608 409.608" style="enable-background:new 0 0 409.608 409.608;" xml:space="preserve">
<path style="fill:#3EA69B;" d="M187.508,136.196c0,0-23.04-10.24-29.696-5.632c0,0-24.064-18.432-38.4-15.36  c0,0-19.456-18.944-35.84-18.944c0,0,34.304,5.12,44.032-19.968c6.144-15.872,7.168-46.08,41.472-53.76l11.776,27.136  c0,0-35.84,15.36-26.112,43.52C159.348,106.5,170.612,126.98,187.508,136.196z"/>
<path style="fill:#44C4A1;" d="M174.708,35.844l6.144,13.824c0,0-35.84,15.36-26.112,43.52c4.608,12.8,15.872,33.28,32.768,43.008  c0,0-23.04-10.24-29.696-5.632c0,0-14.848-11.264-28.16-14.848C129.652,116.228,142.964,43.524,174.708,35.844z"/>
<path style="fill:#F6C358;" d="M82.548,88.068c0,0-24.064,5.12-45.568,29.696c0,0-52.736,47.104-32.256,169.984  c4.096,24.576,11.776,58.88,39.424,85.504c0,0,51.712,14.848,78.848,13.312c17.408-1.024,50.176-4.096,68.608-8.704  c25.6-6.656,48.128-41.472,58.368-114.688c6.144-45.568,11.264-126.976-58.368-167.424c0,0-13.824-4.608-18.432-6.144  c-8.192-2.56-20.48-7.168-31.744,3.584c0,0-17.92-10.24-35.328,1.024C106.612,94.212,103.028,85.508,82.548,88.068z"/>
<g>
	<path style="fill:#FCD462;" d="M152.18,100.868c0,0,77.312-36.864,90.112,132.608c3.584,44.032-17.408,136.704-80.896,144.896   c0,0,38.912-54.272,30.208-155.648C188.532,187.396,184.436,140.292,152.18,100.868z"/>
	<path style="fill:#FCD462;" d="M99.444,103.94c0,0-77.312-36.864-90.112,132.608C5.748,280.58,26.74,373.252,90.228,381.444   c0,0-38.912-54.272-30.208-155.648C63.092,190.468,67.188,143.364,99.444,103.94z"/>
	<ellipse style="fill:#FCD462;" cx="125.556" cy="243.716" rx="60.416" ry="143.36"/>
</g>
<path style="fill:#44C4A1;" d="M407.156,302.084c0,0,32.256,79.36-137.216,82.432c-44.032,1.024-135.68-25.6-139.776-89.088  c0,0,52.224,41.984,153.6,38.912C319.092,333.316,366.196,332.292,407.156,302.084z"/>
<path style="fill:#F6C358;" d="M407.156,295.428c0,0,32.256,79.36-137.216,82.432c-44.032,1.024-135.68-25.6-139.776-89.088  c0,0,52.224,41.984,153.6,38.912C319.092,326.66,366.196,325.124,407.156,295.428z"/>
<g>
</g>
<g>
</g>
<g>
</g>
<g>
</g>
<g>
</g>
<g>
</g>
<g>
</g>
<g>
</g>
<g>
</g>
<g>
</g>
<g>
</g>
<g>
</g>
<g>
</g>
<g>
</g>
<g>
</g>
</svg>
