<?xml version="1.0" encoding="iso-8859-1"?>
<!-- Generator: Adobe Illustrator 19.0.0, SVG Export Plug-In . SVG Version: 6.00 Build 0)  -->
<svg version="1.1" id="Capa_1" xmlns="http://www.w3.org/2000/svg" xmlns:xlink="http://www.w3.org/1999/xlink" x="0px" y="0px"
	 viewBox="0 0 512 512" style="enable-background:new 0 0 512 512;" xml:space="preserve">
<path style="fill:#CACACA;" d="M192.704,324.56V34.336H77.6c-17.68,0-32,14.32-32,32V480c0,17.68,14.32,32,32,32h322.464
	c17.68,0,32-14.32,32-32V324.56H192.704z"/>
<path style="fill:#F3F3F3;" d="M353.52,0H111.936c-17.68,0-32,14.32-32,32v413.664c0,17.664,14.32,32,32,32H434.4
	c17.68,0,32-14.336,32-32V112.88L353.52,0z"/>
<path style="fill:#CACACA;" d="M353.52,80.88c0,17.68,14.336,32,32,32h80.88L353.52,0V80.88z"/>
<g style="opacity:0.15;">
	<path style="fill:#FFFFFF;" d="M368.4,53.584c-6.656,5.808-7.344,15.92-1.536,22.576l22.032,25.264
		c5.808,6.672,15.92,7.344,22.576,1.536s7.344-15.92,1.536-22.576L390.976,55.12C385.168,48.448,375.056,47.776,368.4,53.584z"/>
</g>
<g>
	<path style="fill:#D8D6D6;" d="M204.224,90.256H136.16c-8.848,0-16,7.168-16,16s7.152,16,16,16h68.064c8.848,0,16-7.168,16-16
		S213.072,90.256,204.224,90.256z"/>
	<path style="fill:#D8D6D6;" d="M244.224,34.256H136.16c-8.848,0-16,7.168-16,16s7.152,16,16,16h108.064c8.848,0,16-7.168,16-16
		S253.072,34.256,244.224,34.256z"/>
</g>
<path style="fill:#6F7070;" d="M332.384,429.872H129.648c-8.832,0-16-7.168-16-16v-113.2c0-8.832,7.168-16,16-16h202.72
	c8.832,0,16,7.168,16,16v113.2C348.384,422.704,341.216,429.872,332.384,429.872z"/>
<rect x="348.368" y="325.072" style="fill:#676767;" width="11.824" height="64.48"/>
<path style="fill:#6F7070;" d="M402.336,288.864l-42.144,36.208v64.4l42.144,36.208c5.184,4.448,13.216,0.768,13.216-6.064V294.944
	C415.552,288.096,407.52,284.4,402.336,288.864z"/>
<path style="fill:#787878;" d="M332.384,284.672H129.648c-8.832,0-16,7.168-16,16v49.68c0,9.712,7.872,17.568,17.568,17.568
	c9.712,0,17.568-7.872,17.568-17.568v-23.504c0-8.128,6.656-14.736,14.784-14.704h0.192c0.368,0,0.72-0.016,1.072-0.032
	c8.016-0.48,14.768,5.872,14.768,13.904v32.144c0,9.52,7.12,18.048,16.624,18.544c10.128,0.528,18.512-7.536,18.512-17.552v-10.64
	c0-8.16,6.64-14.784,14.816-14.736h1.024h0.208c8.592-0.048,15.616,6.944,15.616,15.536v3.584c0,9.52,7.12,18.048,16.624,18.544
	c10.128,0.528,18.512-7.536,18.512-17.552V317.84c0-8.496,7.136-14.832,15.632-14.72c0.064,0,0.144,0,0.208,0s0.144,0,0.208,0
	c8.496-0.096,15.632,6.224,15.632,14.72v14.528c0,9.52,7.12,18.048,16.624,18.544c10.128,0.528,18.512-7.536,18.512-17.552v-32.704
	C348.384,291.824,341.216,284.672,332.384,284.672z"/>
<g>
	<path style="fill:#464646;" d="M173.28,187.376c-26.864,0-48.64,21.776-48.64,48.64s21.776,48.64,48.64,48.64
		s48.64-21.776,48.64-48.64S200.16,187.376,173.28,187.376z M173.28,252.928c-9.344,0-16.912-7.568-16.912-16.912
		c0-9.328,7.568-16.912,16.912-16.912c9.344,0,16.912,7.568,16.912,16.912S182.624,252.928,173.28,252.928z"/>
	<path style="fill:#464646;" d="M280.8,187.376c-26.864,0-48.64,21.776-48.64,48.64s21.776,48.64,48.64,48.64
		s48.64-21.776,48.64-48.64S307.664,187.376,280.8,187.376z M280.8,252.928c-9.344,0-16.912-7.568-16.912-16.912
		c0-9.328,7.568-16.912,16.912-16.912s16.912,7.568,16.912,16.912C297.696,245.36,290.128,252.928,280.8,252.928z"/>
</g>
<g>
</g>
<g>
</g>
<g>
</g>
<g>
</g>
<g>
</g>
<g>
</g>
<g>
</g>
<g>
</g>
<g>
</g>
<g>
</g>
<g>
</g>
<g>
</g>
<g>
</g>
<g>
</g>
<g>
</g>
</svg>
