<?xml version="1.0" encoding="iso-8859-1"?>
<!-- Generator: Adobe Illustrator 19.0.0, SVG Export Plug-In . SVG Version: 6.00 Build 0)  -->
<svg version="1.1" id="Capa_1" xmlns="http://www.w3.org/2000/svg" xmlns:xlink="http://www.w3.org/1999/xlink" x="0px" y="0px"
	 viewBox="0 0 512 512" style="enable-background:new 0 0 512 512;" xml:space="preserve">
<path style="fill:#6F7070;" d="M512,294.72v-77.6l-61.76-18.24c-4.16-14.08-9.6-27.36-16.48-40l30.72-56.48L409.6,47.52
	l-56.48,30.72c-12.64-6.88-26.08-12.32-40-16.48L294.88,0h-77.76l-18.24,61.76c-13.92,4.16-27.36,9.6-40,16.48L102.4,47.52
	L47.52,102.4l30.72,56.48c-6.88,12.64-12.32,25.92-16.48,40L0,217.12v77.6l61.76,18.24c4.16,14.08,9.6,27.52,16.48,40l-30.72,56.48
	l54.88,55.04l56.48-30.88c12.64,6.88,26.08,12.48,40,16.48L217.12,512h77.76l18.24-61.92c13.92-4,27.36-9.6,40-16.48l56.48,30.88
	l54.88-55.04l-30.72-56.48c6.88-12.48,12.32-25.92,16.48-40L512,294.72z"/>
<path style="fill:#FFFFFF;" d="M256,123.36c-73.28,0-132.64,59.36-132.64,132.64S182.72,388.48,256,388.48S388.64,329.28,388.64,256
	S329.28,123.36,256,123.36z"/>
<path style="fill:#808080;" d="M198.8,425.696C125.84,401.216,76.816,333.024,76.816,256C76.816,157.216,157.2,76.832,256,76.832
	c43.088,0,84.752,15.52,117.28,43.696c6.672,5.776,7.408,15.888,1.616,22.56c-5.776,6.688-15.872,7.424-22.576,1.632
	c-26.704-23.152-60.912-35.888-96.32-35.888c-81.152,0-147.184,66.016-147.184,147.168c0,63.248,40.256,119.232,100.16,139.344
	c8.368,2.816,12.88,11.888,10.08,20.272C216.272,423.904,207.28,428.512,198.8,425.696z"/>
<path style="fill:#FDBC4B;" d="M361.856,255.92c0-58.464-47.392-105.856-105.856-105.856V255.92H361.856z"/>
<path style="fill:#EC9922;" d="M256,255.92l74.848,74.848c19.152-19.152,31.008-45.616,31.008-74.848L256,255.92L256,255.92z"/>
<path style="fill:#2B71B8;" d="M256,150.064c-58.464,0-105.856,47.392-105.856,105.856S197.536,361.776,256,361.776
	c29.232,0,55.696-11.856,74.848-31.008L256,255.92V150.064z"/>
<g>
	<path style="fill:#636464;" d="M259.056,49.104h-6.128c-8.832,0-16-7.152-16-16s7.168-16,16-16h6.128c8.832,0,16,7.152,16,16
		S267.904,49.104,259.056,49.104z"/>
	<path style="fill:#636464;" d="M259.056,494.736h-6.128c-8.832,0-16-7.152-16-16s7.168-16,16-16h6.128c8.832,0,16,7.152,16,16
		C275.056,487.568,267.904,494.736,259.056,494.736z"/>
	<path style="fill:#636464;" d="M404.4,111.856l-4.336-4.336c-6.24-6.256-6.256-16.368,0-22.624s16.384-6.256,22.624,0l4.336,4.336
		c6.24,6.256,6.256,16.368,0,22.624C420.768,118.096,410.656,118.096,404.4,111.856z"/>
	<path style="fill:#636464;" d="M89.296,426.944l-4.336-4.336c-6.256-6.24-6.256-16.368,0-22.624c6.256-6.256,16.384-6.24,22.624,0
		l4.336,4.336c6.256,6.24,6.256,16.368,0,22.624C105.68,433.2,95.552,433.2,89.296,426.944z"/>
	<path style="fill:#636464;" d="M462.816,258.976v-6.128c0-8.832,7.152-16,16-16s16,7.168,16,16v6.128c0,8.832-7.152,16-16,16
		C469.968,274.976,462.816,267.824,462.816,258.976z"/>
	<path style="fill:#636464;" d="M17.184,258.976v-6.128c0-8.832,7.152-16,16-16s16,7.168,16,16v6.128c0,8.832-7.152,16-16,16
		S17.184,267.824,17.184,258.976z"/>
	<path style="fill:#636464;" d="M400.064,404.32L404.4,400c6.256-6.24,16.368-6.256,22.624,0c6.256,6.256,6.24,16.384,0,22.624
		l-4.336,4.336c-6.24,6.24-16.368,6.256-22.624,0C393.824,420.688,393.824,410.576,400.064,404.32z"/>
	<path style="fill:#636464;" d="M84.976,89.216l4.336-4.336c6.256-6.256,16.368-6.256,22.624,0c6.256,6.256,6.256,16.384,0,22.624
		l-4.336,4.352c-6.24,6.256-16.368,6.256-22.624,0C78.72,105.6,78.72,95.472,84.976,89.216z"/>
</g>
<g>
</g>
<g>
</g>
<g>
</g>
<g>
</g>
<g>
</g>
<g>
</g>
<g>
</g>
<g>
</g>
<g>
</g>
<g>
</g>
<g>
</g>
<g>
</g>
<g>
</g>
<g>
</g>
<g>
</g>
</svg>
