<?xml version="1.0" encoding="iso-8859-1"?>
<!-- Generator: Adobe Illustrator 19.0.0, SVG Export Plug-In . SVG Version: 6.00 Build 0)  -->
<svg version="1.1" id="Capa_1" xmlns="http://www.w3.org/2000/svg" xmlns:xlink="http://www.w3.org/1999/xlink" x="0px" y="0px"
	 viewBox="0 0 512 512" style="enable-background:new 0 0 512 512;" xml:space="preserve">
<path style="fill:#8BC540;" d="M368.256,180.64c0,64.48-33.28,148.96-108.96,148.96s-108.96-84.48-108.96-148.96
	C150.336,85.92,259.296,0,259.296,0S368.256,85.92,368.256,180.64z"/>
<g>
	<path style="fill:#719C40;" d="M267.584,329.2c-2.72,0.224-5.44,0.336-8.272,0.336s-5.664-0.112-8.384-0.336l8.384-241.776
		L267.584,329.2z"/>
	<polygon style="fill:#719C40;" points="257.248,142.592 259.248,145.072 261.248,142.592 269.616,132.208 277.984,121.84 
		267.616,130.208 259.248,136.96 250.88,130.208 240.512,121.84 248.88,132.208 	"/>
	<path style="fill:#719C40;" d="M257.248,214.096l1.376,1.504l1.376-0.56c0.32-0.336,0.896-0.352,1.216-0.688
		c0.992-1.024,2.992-3.28,3.984-4.288c4.144-4.224,12.496-13.632,16.56-17.936c5.36-5.68,14.88-16.576,19.984-22.512
		c-5.632,4.848-16.256,14.08-21.648,19.168c-0.288,0.272-0.848,0.768-1.136,1.04c-4.832,4.56-14.448,13.2-19.2,17.856
		c-0.224,0.208-0.256,0.416-0.368,0.64c-5.248-5.088-14.896-13.808-19.984-18.608c-0.288-0.272-0.704-0.656-0.992-0.928
		c-5.392-5.088-16.016-14.32-21.664-19.168c5.104,5.936,14.624,16.832,19.984,22.528
		C242.096,197.808,251.808,208.496,257.248,214.096z"/>
	<path style="fill:#719C40;" d="M290.848,248.944c-10.704,10.08-21.072,20.464-31.6,30.72c-10.512-10.256-20.896-20.64-31.584-30.72
		c-11.36-10.72-22.8-21.376-34.672-31.584c10.208,11.872,20.864,23.312,31.584,34.672s21.776,22.384,32.672,33.584l2,2.064l2-2.064
		c10.88-11.216,21.952-22.224,32.656-33.6c10.72-11.36,21.376-22.8,31.6-34.672C313.648,227.568,302.208,238.224,290.848,248.944z"
		/>
</g>
<path style="fill:#FFD83B;" d="M301.184,449.776c0,0,9.392-12.784,12.064-45.52c2.656-32.736,25.856-54.224,25.856-54.224
	s34.432-23.872,43.664-33.648s23.328-34.384,36.256-59.68c0,0,12.544-36.416,36.512-32.032c0,0,3.2-10.112,3.888-29.44
	c0,0,4.72-92.288,29.168-101.104c0,0,17.424-5.6,19.344,20.944c0,0,6.032,107.264,0.048,166.64c0,0-3.152,20,4.016,68.208
	c0,0-1.472,15.248-19.584,25.12c0,0-91.056,58.4-96.928,108.496L301.184,449.776z"/>
<path style="fill:#F3C432;" d="M464.288,226.192c23.712,13.584-4.128,68.928-4.128,68.928c-0.368,10.48-6.128,22.624-6.128,22.624
	c-7.808,7.408-33.744,49.584-33.744,49.584c-11.408,26.144-27.536,33.536-27.536,33.536s16.112-3.248,29.248-27.216
	c0,0,20.496-39.952,34.704-43.984c0,0,13.088-13.504,10.304-33.552c0,0-0.288-10.912,5.088-20.304c0,0,13.712-30.176,0.688-44.768
	L464.288,226.192z"/>
<g>
	<path style="fill:#FFFFFF;" d="M434.96,241.44l-4.208,9.984c-0.976,2.336,0.112,5.024,2.448,6l24.768,10.432
		c2.336,0.976,5.024-0.112,6-2.448l4.208-9.984c3.872-9.168-0.432-19.744-9.6-23.6C449.392,227.968,438.816,232.272,434.96,241.44z"
		/>
	<path style="fill:#FFFFFF;" d="M502.368,98.208c-14,28.544,5.664,37.712,5.664,37.712h0.896
		c-0.528-12.832-0.976-20.832-0.976-20.832C507.312,106.56,505.088,101.36,502.368,98.208z"/>
</g>
<polygon style="fill:#DAE5EF;" points="417.184,512 423.904,492.288 299.248,448.544 286.992,484.688 362.32,512 "/>
<polygon style="fill:#5B5F63;" points="362.96,512 280.064,482.032 269.68,512 "/>
<path style="fill:#FFD83B;" d="M210.816,449.776c0,0-9.392-12.784-12.064-45.52s-25.856-54.224-25.856-54.224
	s-34.432-23.872-43.664-33.648S105.904,282,92.976,256.704c0,0-12.544-36.416-36.512-32.032c0,0-3.2-10.112-3.888-29.44
	c0,0-4.72-92.288-29.168-101.104c0,0-17.424-5.6-19.344,20.944c0,0-6.032,107.264-0.048,166.64c0,0,3.152,20-4.016,68.208
	c0,0,1.472,15.248,19.584,25.12c0,0,91.056,58.4,96.928,108.496L210.816,449.776z"/>
<path style="fill:#F3C432;" d="M47.712,226.192C24,239.776,51.84,295.12,51.84,295.12c0.368,10.48,6.128,22.624,6.128,22.624
	c7.808,7.408,33.744,49.584,33.744,49.584c11.408,26.144,27.536,33.536,27.536,33.536S103.136,397.616,90,373.648
	c0,0-20.496-39.952-34.704-43.984c0,0-13.088-13.504-10.304-33.552c0,0,0.288-10.912-5.088-20.304c0,0-13.712-30.176-0.688-44.768
	L47.712,226.192z"/>
<g>
	<path style="fill:#FFFFFF;" d="M77.04,241.44l4.208,9.984c0.976,2.336-0.112,5.024-2.448,6l-24.768,10.432
		c-2.336,0.976-5.024-0.112-6-2.448l-4.192-9.968c-3.872-9.168,0.432-19.744,9.6-23.6C62.608,227.968,73.184,232.272,77.04,241.44z"
		/>
	<path style="fill:#FFFFFF;" d="M9.632,98.208c14,28.544-5.664,37.712-5.664,37.712H3.072c0.528-12.832,0.976-20.832,0.976-20.832
		C4.688,106.56,6.912,101.36,9.632,98.208z"/>
</g>
<polygon style="fill:#DAE5EF;" points="149.68,512 225.008,484.688 212.752,448.544 88.096,492.288 94.816,512 "/>
<polygon style="fill:#5B5F63;" points="242.32,512 231.936,482.032 149.04,512 "/>
<g>
</g>
<g>
</g>
<g>
</g>
<g>
</g>
<g>
</g>
<g>
</g>
<g>
</g>
<g>
</g>
<g>
</g>
<g>
</g>
<g>
</g>
<g>
</g>
<g>
</g>
<g>
</g>
<g>
</g>
</svg>
