<?xml version="1.0" encoding="iso-8859-1"?>
<!-- Generator: Adobe Illustrator 19.0.0, SVG Export Plug-In . SVG Version: 6.00 Build 0)  -->
<svg version="1.1" id="Capa_1" xmlns="http://www.w3.org/2000/svg" xmlns:xlink="http://www.w3.org/1999/xlink" x="0px" y="0px"
	 viewBox="0 0 512.064 512.064" style="enable-background:new 0 0 512.064 512.064;" xml:space="preserve">
<path style="fill:#F3F3F3;" d="M426.432,341.664c0,94.08-76.32,170.4-170.4,170.4s-170.4-76.32-170.4-170.4
	c0-79.52,54.4-146.08,127.84-165.12V50.784h84.96v125.76C372.032,195.424,426.432,262.144,426.432,341.664z"/>
<path style="fill:#CACACA;" d="M310.128,0H201.92c-14,0-25.36,11.36-25.36,25.36s11.36,25.36,25.36,25.36h108.208
	c14,0,25.36-11.36,25.36-25.36S324.128,0,310.128,0z"/>
<path style="fill:#E5E5E5;" d="M245.232,74.672c0,13.184,10.688,23.872,23.888,23.872h7.936c10.32,0,19.056,6.544,20.016,21.792
	c0.656,10.896-7.984,20.064-18.88,20.064h-36.288c-12.928,0-24.528,9.68-25.2,22.592c-0.72,13.776,10.224,25.168,23.84,25.168h7.056
	c11.104,0,20.08,9.04,20.016,20.144c-0.08,14.944-10.096,22.896-21.12,22.896h-12.864c-12.928,0-24.528,9.68-25.2,22.592
	c-0.72,13.776,10.224,25.168,23.84,25.168h56.992c10.48,0,19.84,7.968,20.016,21.808c0.128,11.536-8.464,21.232-20.016,21.232
	H269.52c-12.928,0-24.528,9.68-25.2,22.592c-0.72,13.776,10.224,25.168,23.84,25.168h155.728c1.52-9.152,2.512-18.496,2.512-28.096
	c0-79.52-54.4-146.24-128-165.12V50.784h-29.312C255.92,50.784,245.232,61.472,245.232,74.672z"/>
<path style="fill:#FFCC5B;" d="M101.712,345.616c2.144,83.472,70.336,150.496,154.304,150.496
	c83.984,0,152.16-67.04,154.304-150.496H101.712z"/>
<circle style="fill:#FDBC4B;" cx="320.192" cy="428.528" r="37.984"/>
<g style="opacity:0.06;">
	<rect x="213.472" y="50.784" style="fill:#010101;" width="84.96" height="12.768"/>
</g>
<g>
</g>
<g>
</g>
<g>
</g>
<g>
</g>
<g>
</g>
<g>
</g>
<g>
</g>
<g>
</g>
<g>
</g>
<g>
</g>
<g>
</g>
<g>
</g>
<g>
</g>
<g>
</g>
<g>
</g>
</svg>
