<?xml version="1.0" encoding="iso-8859-1"?>
<!-- Generator: Adobe Illustrator 19.0.0, SVG Export Plug-In . SVG Version: 6.00 Build 0)  -->
<svg version="1.1" id="Capa_1" xmlns="http://www.w3.org/2000/svg" xmlns:xlink="http://www.w3.org/1999/xlink" x="0px" y="0px"
	 viewBox="0 0 512 512" style="enable-background:new 0 0 512 512;" xml:space="preserve">
<path style="fill:#464646;" d="M512,349.68V40.88c0-17.6-14.272-31.872-31.872-31.872H31.872C14.272,9.024,0,23.28,0,40.896v308.8
	h512V349.68z"/>
<rect x="31.872" y="40.896" style="fill:#4B9FD8;" width="448.32" height="299.152"/>
<path style="fill:#E5E5E5;" d="M0,340.08v50.864c0,17.6,14.272,31.872,31.872,31.872h448.256c17.6,0,31.872-14.272,31.872-31.872
	V340.08L0,340.08L0,340.08z"/>
<rect x="169.824" y="422.816" style="fill:#CACACA;" width="172.336" height="51.376"/>
<path style="fill:#E5E5E5;" d="M381.072,474.192H130.928c-7.952,0-14.4,6.448-14.4,14.4l0,0c0,7.952,6.448,14.4,14.4,14.4h250.144
	c7.952,0,14.4-6.448,14.4-14.4l0,0C395.472,480.64,389.024,474.192,381.072,474.192z"/>
<path style="fill:#CACACA;" d="M265.52,397.392h-19.04c-8.8,0-15.936-7.12-15.936-15.936s7.136-15.936,15.936-15.936h19.04
	c8.8,0,15.936,7.12,15.936,15.936C281.456,390.256,274.32,397.392,265.52,397.392z"/>
<g style="opacity:0.07;">
	<polygon style="fill:#010101;" points="169.824,422.816 342.176,462.528 342.176,422.816 	"/>
</g>
<path style="fill:#3789C9;" d="M396.416,40.896c-12.368,0-22.4,10.032-22.4,22.4s10.032,22.4,22.4,22.4h29.952
	c10.352,0,18.784,8.48,18.736,18.832v0.24c0,0.464,0.016,0.912,0.048,1.376c0.624,10.208-7.488,18.816-17.712,18.816h-71.552
	c-12.128,0-22.992,9.088-23.632,21.2c-0.672,12.912,9.6,23.6,22.368,23.6h44.144c10.416,0,18.832,8.48,18.768,18.88v1.296v0.272
	c0.064,10.96-8.848,19.92-19.792,19.92h-4.56c-12.128,0-22.992,9.088-23.632,21.2c-0.672,12.912,9.6,23.6,22.368,23.6h45.952
	c10.832,0,18.896,9.088,18.768,19.92c0,0.096,0,0.176,0,0.272s0,0.176,0,0.272c0.128,10.832-7.952,19.92-18.768,19.92H419.36
	c-12.128,0-22.992,9.088-23.632,21.2c-0.672,12.912,9.6,23.6,22.368,23.6h62.064V40.896H396.416z"/>
<g>
	<path style="fill:#D9DADB;" d="M80.08,365.808H47.52c-8.64,0-15.648,6.992-15.648,15.648c0,8.64,7.008,15.648,15.648,15.648h32.56
		c8.64,0,15.648-6.992,15.648-15.648C95.728,372.8,88.72,365.808,80.08,365.808z"/>
	<path style="fill:#D9DADB;" d="M121.344,365.808h-1.952c-8.64,0-15.648,6.992-15.648,15.648c0,8.64,7.008,15.648,15.648,15.648
		h1.952c8.64,0,15.648-6.992,15.648-15.648C136.992,372.8,129.984,365.808,121.344,365.808z"/>
</g>
<g>
	<path style="fill:#52AADF;" d="M48.048,121.792v64.432c0,8.64,6.992,15.648,15.648,15.648s15.648-7.008,15.648-15.648v-64.432
		c0-8.64-6.992-15.648-15.648-15.648S48.048,113.152,48.048,121.792z"/>
	<path style="fill:#52AADF;" d="M48.048,72.56v9.92c0,8.64,6.992,15.648,15.648,15.648S79.344,91.12,79.344,82.48v-9.92
		c0-8.64-6.992-15.648-15.648-15.648S48.048,63.92,48.048,72.56z"/>
</g>
<path style="fill:#6F7070;" d="M401.904,297.168c-3.12-10.576-7.216-20.544-12.384-30.048l23.072-42.432l-41.232-41.216
	l-42.4,23.088c-9.488-5.168-19.584-9.248-30.048-12.384l-13.696-46.4H226.8l-13.696,46.4c-10.464,3.12-20.544,7.216-30.048,12.384
	l-42.432-23.072l-41.232,41.216l23.072,42.432c-5.168,9.488-9.248,19.472-12.384,30.048l-46.4,13.696v29.2h118.384
	c0-40.864,33.056-74.032,73.92-74.032s73.92,33.168,73.92,74.032h118.384v-29.2L401.904,297.168z"/>
<path style="fill:#FFFFFF;" d="M256,240.448c-55.04,0-99.632,44.592-99.632,99.632h25.728c0-40.864,33.056-74.032,73.92-74.032
	s73.92,33.168,73.92,74.032h25.712C355.632,285.04,311.04,240.448,256,240.448z"/>
<path style="fill:#7D7D7D;" d="M345.296,255.232c-4.32,5.04-11.904,5.648-16.944,1.2C308.288,239.12,282.56,229.504,256,229.504
	c-60.928,0-110.576,49.632-110.576,110.576h-24.032c0-74.272,60.464-134.608,134.608-134.608c32.336,0,63.696,11.664,88.096,32.816
	C349.152,242.608,349.632,250.176,345.296,255.232z"/>
<g>
</g>
<g>
</g>
<g>
</g>
<g>
</g>
<g>
</g>
<g>
</g>
<g>
</g>
<g>
</g>
<g>
</g>
<g>
</g>
<g>
</g>
<g>
</g>
<g>
</g>
<g>
</g>
<g>
</g>
</svg>
