<?xml version="1.0" encoding="iso-8859-1"?>
<!-- Generator: Adobe Illustrator 19.0.0, SVG Export Plug-In . SVG Version: 6.00 Build 0)  -->
<svg version="1.1" id="Capa_1" xmlns="http://www.w3.org/2000/svg" xmlns:xlink="http://www.w3.org/1999/xlink" x="0px" y="0px"
	 viewBox="0 0 512 512" style="enable-background:new 0 0 512 512;" xml:space="preserve">
<rect x="280.558" y="287.936" transform="matrix(-0.7071 0.7071 -0.7071 -0.7071 771.2572 319.3402)" style="fill:#344A5E;" width="77.866" height="62.933"/>
<circle style="fill:#F3F3F3;" cx="186.667" cy="186.667" r="165.333"/>
<path style="fill:#415A6B;" d="M186.667,372.267C83.2,372.267,0,289.067,0,186.667C0,83.2,83.2,0,186.667,0
	s186.667,83.2,186.667,186.667S289.067,372.267,186.667,372.267z M186.667,42.667c-80,0-144,64-144,144c0,78.933,64,144,144,144
	s144-64,144-144C329.6,106.667,265.6,42.667,186.667,42.667z"/>
<path style="fill:#F3705A;" d="M505.6,410.667L405.333,310.4c-8.533-8.533-23.467-8.533-32,0L310.4,373.333
	c-8.533,8.533-8.533,23.467,0,32L410.667,505.6c8.533,8.533,23.467,8.533,32,0l62.933-62.933
	C514.133,433.067,514.133,419.2,505.6,410.667z"/>
<polygon style="fill:#8AD7F8;" points="117.333,190.933 117.333,269.867 256,269.867 256,190.933 186.667,121.6 "/>
<path style="fill:#F3705A;" d="M282.667,170.667L198.4,86.4c-6.4-6.4-17.067-6.4-23.467,0l-84.267,84.267
	c-6.4,6.4-6.4,17.067,0,23.467s17.067,6.4,23.467,0l72.533-72.533l72.533,72.533c6.4,6.4,17.067,6.4,23.467,0
	C289.067,187.733,289.067,177.067,282.667,170.667z"/>
<rect x="166.4" y="219.733" style="fill:#415A6B;" width="40.533" height="50.133"/>
<g>
</g>
<g>
</g>
<g>
</g>
<g>
</g>
<g>
</g>
<g>
</g>
<g>
</g>
<g>
</g>
<g>
</g>
<g>
</g>
<g>
</g>
<g>
</g>
<g>
</g>
<g>
</g>
<g>
</g>
</svg>
