<?xml version="1.0" encoding="iso-8859-1"?>
<!-- Generator: Adobe Illustrator 19.0.0, SVG Export Plug-In . SVG Version: 6.00 Build 0)  -->
<svg version="1.1" id="Capa_1" xmlns="http://www.w3.org/2000/svg" xmlns:xlink="http://www.w3.org/1999/xlink" x="0px" y="0px"
	 viewBox="0 0 468.293 468.293" style="enable-background:new 0 0 468.293 468.293;" xml:space="preserve">
<path style="fill:#D4D5DB;" d="M317.215,150.154v112.391c31.036,0,56.195-25.16,56.195-56.196
	C373.41,175.314,348.251,150.154,317.215,150.154z"/>
<path style="fill:#2D92BA;" d="M127.921,412.095H87.131c-9.306,0-16.85-7.544-16.85-16.85v-144.84h59.916v133.586l7.064,9.388
	C143.057,401.082,137.561,412.095,127.921,412.095z"/>
<path style="fill:#647989;" d="M314.841,368.285h-19.232c-3.448,0-6.244-2.795-6.244-6.244v-299.6c0-3.448,2.796-6.244,6.244-6.244
	h19.232c3.448,0,6.244,2.795,6.244,6.244v299.6C321.085,365.49,318.289,368.285,314.841,368.285z"/>
<path style="fill:#E0E5E8;" d="M258.431,61.484c-20.49,0-40.065,8.483-54.076,23.435c-44.41,47.394-105.596,75.291-170.226,77.915
	c-5.623,0.228-10.031,4.911-10.031,10.538v38.869v0v38.869c0,5.627,4.408,10.31,10.031,10.538
	c64.63,2.624,125.816,30.521,170.226,77.915c14.011,14.951,33.586,23.435,54.076,23.435h30.934V212.242v0V61.484H258.431z"/>
<g>
	<path style="fill:#647989;" d="M24.099,250.405H6.244c-3.448,0-6.244-2.795-6.244-6.244v-63.839c0-3.448,2.795-6.244,6.244-6.244
		h17.855V250.405z"/>
	<path style="fill:#647989;" d="M130.197,343.478h3.19c3.448,0,6.244-2.796,6.244-6.244v-9.564c0-3.448-2.796-6.244-6.244-6.244
		h-3.19V343.478z"/>
	<path style="fill:#647989;" d="M130.197,377.068h3.19c3.448,0,6.244-2.795,6.244-6.244v-9.564c0-3.448-2.796-6.244-6.244-6.244
		h-3.19V377.068z"/>
	<path style="fill:#647989;" d="M460.363,198.421H404.79c-4.378,0-7.93,3.549-7.93,7.93c0,4.381,3.552,7.93,7.93,7.93h55.572
		c4.378,0,7.93-3.549,7.93-7.93C468.293,201.97,464.741,198.421,460.363,198.421z"/>
	<path style="fill:#647989;" d="M460.363,246.001l-55.572-15.86c-4.378,0-7.93,3.549-7.93,7.93c0,4.381,3.552,7.93,7.93,7.93
		l55.572,15.86c4.378,0,7.93-3.549,7.93-7.93S464.741,246.001,460.363,246.001z"/>
	<path style="fill:#647989;" d="M460.363,150.84l-55.572,15.86c-4.378,0-7.93,3.549-7.93,7.93c0,4.381,3.552,7.93,7.93,7.93
		l55.572-15.86c4.378,0,7.93-3.549,7.93-7.93S464.741,150.84,460.363,150.84z"/>
</g>
<g>
</g>
<g>
</g>
<g>
</g>
<g>
</g>
<g>
</g>
<g>
</g>
<g>
</g>
<g>
</g>
<g>
</g>
<g>
</g>
<g>
</g>
<g>
</g>
<g>
</g>
<g>
</g>
<g>
</g>
</svg>
