<?xml version="1.0" encoding="iso-8859-1"?>
<!-- Generator: Adobe Illustrator 19.0.0, SVG Export Plug-In . SVG Version: 6.00 Build 0)  -->
<svg version="1.1" id="Capa_1" xmlns="http://www.w3.org/2000/svg" xmlns:xlink="http://www.w3.org/1999/xlink" x="0px" y="0px"
	 viewBox="0 0 517.36 517.36" style="enable-background:new 0 0 517.36 517.36;" xml:space="preserve">
<path style="fill:#5CA3D9;" d="M467.446,169.104c0,37.616-12.272,72.32-33.104,100.416c-30.736,41.6-80.176,68.592-135.904,68.592
	c-93.408,0-169.088-75.664-169.088-169.024c0-41.984,15.296-80.432,40.704-109.936c18.768-21.984,43.008-39.024,70.72-49.056
	C258.774,3.6,278.198,0,298.438,0c24.432,0,47.568,5.2,68.528,14.592C426.166,40.848,467.446,100.192,467.446,169.104z"/>
<g>
	<path style="fill:#E8EFF3;" d="M366.758,239.488c-16.8-6.288-33.616-12.576-50.416-18.88c-1.584-0.592-3.248-1.232-4.352-2.512
		c-1.376-1.584-1.648-3.808-2.112-5.856c-2.56-11.28-13.552-20.048-25.12-20.048c-2.608,0-5.312,0.384-7.76-0.528
		c-2.576-0.96-4.432-3.216-6.144-5.376c-2.56-3.216-5.136-6.448-7.696-9.664c-1.696-2.128-3.488-4.336-5.968-5.488
		c-5.136-2.368-11.056,0.576-16.704,0.512c-5.616-0.064-10.688-3.12-15.84-5.376c-5.152-2.256-11.408-3.68-16.176-0.72
		c-5.264,3.28-6.416,10.4-6.256,16.576c0.176,6.192,1.072,12.784-1.872,18.24c-1.232,2.272-3.04,4.176-4.544,6.288
		c-4.928,6.96-6.096,16.416-2.992,24.352c3.968,10.176,14.256,17.664,15.584,28.512c0.288,2.416,0.144,4.992,1.312,7.136
		c1.488,2.72,4.656,3.936,7.376,5.456c14,7.824,18,25.872,19.552,41.84c0.416,4.304,0.848,8.736,1.44,13.136
		c17.776,6.768,36.944,10.672,57.024,11.04c4.064-2.352,8.144-4.704,12.048-7.344c3.872-2.624,7.968-5.856,8.656-10.48
		c0.272-1.776-0.016-3.616,0.272-5.392c1.056-6.768,9.152-9.68,15.952-10.352c6.816-0.672,14.64-0.912,18.928-6.224
		c5.248-6.496,1.84-16.208,3.808-24.32c1.856-7.6,8.224-13.056,13.52-18.816c3.328-3.6,6.352-9.28,3.168-13.008
		C370.23,240.816,368.454,240.128,366.758,239.488z"/>
	<path style="fill:#E8EFF3;" d="M180.774,155.984l-12.608-14.144c-2.704-7.2-4.304-14.784-4.688-22.496
		c-0.128-2.448-0.064-5.008,1.152-7.072c2-3.472,6.496-4.432,10.416-5.072c3.968-0.624,8.784,0.624,11.872-1.92
		c14.752-12.064,22.448-31.872,47.216-31.872c3.008,0,5.824,0.272,8.56,0.672c3.712-1.936,7.536-3.648,11.552-4.864
		c5.008-1.536,10.288-2.512,14.72-5.344c2.704-1.744,5.2-4.752,4.368-7.84c-0.256-1.088-0.96-2-1.6-2.896
		c-1.536-2.256-3.088-4.432-4.688-6.688c-2.832-3.984-6.624-8.48-11.504-7.904c-3.92,0.512-6.56,4.048-9.904,6.112
		c-4.112,2.576-9.648,2.832-14.016,0.512c-2.64-1.344-4.944-3.92-4.624-6.88c0.192-2.192,1.792-4.048,3.6-5.264
		c4.88-3.344,11.184-3.472,17.104-3.472c7.264-0.064,14.592-0.064,21.856-0.064c3.472,0,7.2-0.064,10.032-2.064
		c2.832-1.936,4.048-6.56,1.472-8.88c-1.408-1.28-3.536-1.408-5.472-1.536c-11.76-0.832-23.472-2.96-34.848-6.24h-0.064
		l-1.008-0.192c-27.248,10.08-51.12,26.928-69.632,48.624l-0.016,0.016l0.016,0.608c-5.92,10.864-11.696,21.856-15.488,33.632
		c-4,12.368-5.6,25.872-2.32,38.544c1.92,7.328,5.392,14.144,9.248,20.704c3.28,5.6,7.072,11.312,12.736,14.592
		c4.432,2.64,9.648,3.6,14.784,4.368c1.936,0.32,4.624,0.128,5.008-1.872c0.192-0.896-0.256-1.744-0.704-2.512
		C190.342,162.4,185.974,158.416,180.774,155.984z"/>
</g>
<path style="fill:#FFD83B;" d="M467.382,169.088c0,37.616-12.272,72.32-33.104,100.416c-0.896-0.192-1.792-0.512-2.704-0.768
	c-0.704-17.552,9.52-34.4,7.648-51.888c-1.024-9.584-5.728-18.704-5.2-28.352c0.128-2.448,0.64-5.008-0.256-7.328
	c-1.536-4.176-6.752-5.792-11.12-5.2c-4.432,0.576-8.48,2.704-12.8,3.728c-11.696,2.768-24.368-3.536-31.312-13.44
	c-6.88-9.904-8.672-22.688-7.264-34.72c1.408-11.952,5.728-23.408,10.096-34.656c0.896-2.192,1.808-4.688,0.832-6.944
	c-1.472-3.344-6.048-3.728-8.944-5.984c-2.832-2.256-3.664-6.624-1.936-9.776c1.808-3.152,5.984-4.688,9.328-3.472
	c2.064-3.792-2.768-7.584-4.304-11.632c-2.704-6.944,4.816-13.888,4.752-21.408c0-4.432-2.704-8.352-5.344-11.888
	c-2.832-3.792-5.792-7.52-8.88-11.184C426.118,40.816,467.382,100.16,467.382,169.088z"/>
<path style="opacity:0.05;fill:#3F4347;enable-background:new    ;" d="M388.438,26.08c16.528,26.112,26.176,57.024,26.176,90.208
	c0,37.616-12.272,72.32-33.104,100.416c-30.736,41.6-80.176,68.592-135.904,68.592c-33.168,0-64-9.68-90.112-26.16
	c29.936,47.408,82.672,78.992,142.944,78.992c55.744,0,105.184-27.008,135.904-68.592c20.832-28.096,33.104-62.816,33.104-100.416
	C467.446,108.88,435.91,55.968,388.438,26.08z"/>
<path style="fill:#E8EFF3;" d="M467.382,169.088c0,37.616-12.272,72.32-33.104,100.416c-0.896-0.192-1.792-0.512-2.704-0.768
	c-0.704-17.552,9.52-34.4,7.648-51.888c-1.024-9.584-5.728-18.704-5.2-28.352c0.128-2.448,0.64-5.008-0.256-7.328
	c-1.536-4.176-6.752-5.792-11.12-5.2c-4.432,0.576-8.48,2.704-12.8,3.728c-11.696,2.768-24.368-3.536-31.312-13.44
	c-6.88-9.904-8.672-22.688-7.264-34.72c1.408-11.952,5.728-23.408,10.096-34.656c0.896-2.192,1.808-4.688,0.832-6.944
	c-1.472-3.344-6.048-3.728-8.944-5.984c-2.832-2.256-3.664-6.624-1.936-9.776c1.808-3.152,5.984-4.688,9.328-3.472
	c2.064-3.792-2.768-7.584-4.304-11.632c-2.704-6.944,4.816-13.888,4.752-21.408c0-4.432-2.704-8.352-5.344-11.888
	c-2.832-3.792-5.792-7.52-8.88-11.184C426.118,40.816,467.382,100.16,467.382,169.088z"/>
<path style="fill:#FFD83B;" d="M82.246,359.568c0,0,16.784,1.92,48.448-12.96c31.664-14.864,63.808-4.8,63.808-4.8
	s40.304,19.184,54.208,22.544s44.128,3.36,74.352,1.92c0,0,40.304-7.68,48.928,16.784c0,0,11.04-2.4,29.264-12
	c0,0,87.792-44.496,108.896-26.56c0,0,14.384,13.136-9.12,28.96c0,0-95.952,62.368-154,88.272c0,0-20.144,7.68-60.928,39.824
	c0,0-14.864,6.72-33.584-4.8c0,0-102.176-53.248-151.6-32.144L82.246,359.568z"/>
<path style="fill:#F3C432;" d="M375.254,391.952c0,29.104-65.904,32.672-65.904,32.672c-9.888,5.216-24.16,6.32-24.16,6.32
	c-10.976-3.296-63.696-4.944-63.696-4.944c-30.208,3.296-45.584-7.68-45.584-7.68s11.536,13.184,40.64,12.624
	c0,0,47.776-2.192,59.04,8.784c0,0,19.408,4.944,36.48-8.24c0,0,9.92-6.048,21.456-6.048c0,0,35.152-3.296,41.728-23.056V391.952z"
	/>
<g>
	<path style="fill:#FFFFFF;" d="M345.638,372.928l-11.456,1.392c-2.672,0.32-4.576,2.752-4.256,5.44l3.472,28.416
		c0.32,2.672,2.752,4.576,5.44,4.256l11.456-1.392c10.528-1.28,18.016-10.848,16.72-21.376
		C365.718,379.136,356.15,371.632,345.638,372.928z"/>
	<path style="fill:#FFFFFF;" d="M513.702,359.392c-33.792,2.16-31.856,25.2-31.856,25.2l0.48,0.832
		c11.584-7.28,18.736-11.936,18.736-11.936C508.614,368.4,512.246,363.584,513.702,359.392z"/>
</g>
<polygon style="fill:#DAE5EF;" points="107.926,495.504 66.598,503.52 42.47,364.944 82.374,357.136 "/>
<polygon style="fill:#5B5F63;" points="2.854,517.36 67.43,506.688 41.254,357.136 2.854,364.384 "/>
<g>
</g>
<g>
</g>
<g>
</g>
<g>
</g>
<g>
</g>
<g>
</g>
<g>
</g>
<g>
</g>
<g>
</g>
<g>
</g>
<g>
</g>
<g>
</g>
<g>
</g>
<g>
</g>
<g>
</g>
</svg>
