<?xml version="1.0" encoding="iso-8859-1"?>
<!-- Generator: Adobe Illustrator 19.0.0, SVG Export Plug-In . SVG Version: 6.00 Build 0)  -->
<svg version="1.1" id="Capa_1" xmlns="http://www.w3.org/2000/svg" xmlns:xlink="http://www.w3.org/1999/xlink" x="0px" y="0px"
	 viewBox="0 0 513.736 513.736" style="enable-background:new 0 0 513.736 513.736;" xml:space="preserve">
<polygon style="fill:#BBC7D1;" points="257.088,512.868 307.008,512.868 340.32,348.244 290.384,348.244 "/>
<g>
	<circle style="fill:#FFD83B;" cx="114.144" cy="114.964" r="73.568"/>
	<path style="fill:#FFD83B;" d="M114.08,31.572c-3.856,0-6.96-3.12-6.96-6.96V7.828c0-3.84,3.12-6.96,6.96-6.96
		c3.856,0,6.96,3.12,6.96,6.96v16.784C121.056,28.468,117.936,31.572,114.08,31.572z"/>
	<path style="fill:#FFD83B;" d="M114.08,229.044c-3.856,0-6.96-3.12-6.96-6.96v-16.768c0-3.856,3.12-6.96,6.96-6.96
		c3.856,0,6.96,3.12,6.96,6.96v16.768C121.056,225.924,117.936,229.044,114.08,229.044z"/>
	<path style="fill:#FFD83B;" d="M173.056,55.988c-2.72-2.72-2.72-7.12,0-9.84l11.856-11.856c2.72-2.72,7.12-2.72,9.84,0
		s2.72,7.12,0,9.84l-11.856,11.856C180.176,58.708,175.776,58.708,173.056,55.988z"/>
	<path style="fill:#FFD83B;" d="M33.424,195.62c-2.72-2.72-2.72-7.12,0-9.84l11.856-11.856c2.72-2.72,7.12-2.72,9.84,0
		s2.72,7.12,0,9.84L43.264,195.62C40.544,198.34,36.144,198.34,33.424,195.62z"/>
	<path style="fill:#FFD83B;" d="M221.216,121.924h-16.768c-3.856,0-6.96-3.12-6.96-6.96c0-3.856,3.12-6.96,6.96-6.96h16.768
		c3.856,0,6.96,3.12,6.96,6.96C228.176,118.804,225.072,121.924,221.216,121.924z"/>
	<path style="fill:#FFD83B;" d="M23.744,121.924H6.96c-3.856,0-6.96-3.12-6.96-6.96c0-3.856,3.12-6.96,6.96-6.96h16.784
		c3.856,0,6.96,3.12,6.96,6.96S27.584,121.924,23.744,121.924z"/>
	<path style="fill:#FFD83B;" d="M184.912,195.62l-11.856-11.856c-2.72-2.72-2.72-7.12,0-9.84s7.12-2.72,9.84,0l11.856,11.856
		c2.72,2.72,2.72,7.12,0,9.84C192.048,198.34,187.632,198.34,184.912,195.62z"/>
	<path style="fill:#FFD83B;" d="M45.28,55.988L33.424,44.132c-2.72-2.72-2.72-7.12,0-9.84s7.12-2.72,9.84,0L55.12,46.148
		c2.72,2.72,2.72,7.12,0,9.84S48,58.708,45.28,55.988z"/>
</g>
<path style="fill:#DDE3E9;" d="M415.632,473.348l-257.328-69.792c-4.944-1.344-6.672-8.8-3.904-16.624L219.888,200.5
	c2.464-7.008,8.64-13.008,13.872-13.408l265.36-20.544c10.32-0.8,16.688,6.64,14,16.688l-72.992,273.76
	C436.976,468.804,425.904,476.132,415.632,473.348z"/>
<g>
	<polygon style="fill:#6DAFDF;" points="409.376,189.012 346.512,192.74 328.288,250.596 390.848,251.492 	"/>
	<polygon style="fill:#6DAFDF;" points="186.384,322.436 226.656,327.7 248.304,263.412 207.44,262.02 	"/>
	<polygon style="fill:#6DAFDF;" points="263.536,249.684 315.728,250.42 333.856,193.492 281.248,196.612 	"/>
	<polygon style="fill:#6DAFDF;" points="406.048,251.7 476.048,252.692 494.736,183.956 424.624,188.116 	"/>
	<polygon style="fill:#6DAFDF;" points="310.896,265.556 258.848,263.78 237.056,329.06 288.528,335.796 	"/>
	<polygon style="fill:#6DAFDF;" points="263.6,414.084 283.472,351.684 232.144,343.796 212.848,401.604 	"/>
	<polygon style="fill:#6DAFDF;" points="221.776,342.212 181.632,336.052 163.04,389.364 202.624,399.092 	"/>
	<polygon style="fill:#6DAFDF;" points="252.976,249.54 270.576,197.236 229.168,199.7 212,248.964 	"/>
	<polygon style="fill:#6DAFDF;" points="372.8,365.396 352.208,435.86 421.584,452.916 442.48,376.1 	"/>
	<polygon style="fill:#6DAFDF;" points="471.056,271.028 401.088,268.644 378.032,347.508 447.776,356.628 	"/>
	<polygon style="fill:#6DAFDF;" points="323.44,265.988 300.96,337.428 362.944,345.54 385.92,268.116 	"/>
	<polygon style="fill:#6DAFDF;" points="357.744,363.076 295.872,353.588 275.872,417.092 337.232,432.18 	"/>
</g>
<g>
</g>
<g>
</g>
<g>
</g>
<g>
</g>
<g>
</g>
<g>
</g>
<g>
</g>
<g>
</g>
<g>
</g>
<g>
</g>
<g>
</g>
<g>
</g>
<g>
</g>
<g>
</g>
<g>
</g>
</svg>
