<?xml version="1.0" encoding="iso-8859-1"?>
<!-- Generator: Adobe Illustrator 19.0.0, SVG Export Plug-In . SVG Version: 6.00 Build 0)  -->
<svg version="1.1" id="Capa_1" xmlns="http://www.w3.org/2000/svg" xmlns:xlink="http://www.w3.org/1999/xlink" x="0px" y="0px"
	 viewBox="0 0 512.002 512.002" style="enable-background:new 0 0 512.002 512.002;" xml:space="preserve">
<polygon style="fill:#415A6B;" points="421.335,224.535 232.535,40.001 43.735,224.535 "/>
<rect x="99.201" y="224.535" style="fill:#8AD7F8;" width="267.733" height="200.533"/>
<rect x="99.201" y="224.535" style="fill:#55C0EB;" width="267.733" height="23.467"/>
<rect x="195.201" y="324.801" style="fill:#415A6B;" width="74.667" height="100.267"/>
<path style="fill:#FFD15C;" d="M101.335,105.068L90.668,80.535c-46.933,19.2-72.533,67.2-67.2,115.2
	c-6.4-7.467-10.667-16-14.933-25.6c-23.467-56.533,3.2-121.6,58.667-145.067l-9.6-24.533l83.2,26.667L101.335,105.068z"/>
<path style="fill:#F3705A;" d="M410.668,408.001l10.667,24.533c46.933-19.2,72.533-67.2,67.2-115.2c6.4,7.467,10.667,16,14.933,25.6
	c23.467,56.533-3.2,120.533-58.667,144l10.667,24.533l-83.2-26.667L410.668,408.001z"/>
<g>
</g>
<g>
</g>
<g>
</g>
<g>
</g>
<g>
</g>
<g>
</g>
<g>
</g>
<g>
</g>
<g>
</g>
<g>
</g>
<g>
</g>
<g>
</g>
<g>
</g>
<g>
</g>
<g>
</g>
</svg>
