<?xml version="1.0" encoding="iso-8859-1"?>
<!-- Generator: Adobe Illustrator 19.0.0, SVG Export Plug-In . SVG Version: 6.00 Build 0)  -->
<svg xmlns="http://www.w3.org/2000/svg" xmlns:xlink="http://www.w3.org/1999/xlink" version="1.1" id="Capa_1" x="0px" y="0px" viewBox="0 0 410.563 410.563" style="enable-background:new 0 0 410.563 410.563;" xml:space="preserve">
<g>
	<path style="fill:#44C4A1;" d="M209.748,160.195c-3.584,0-6.656-2.048-7.68-5.632l-47.616-143.36   c-1.536-4.608,1.024-9.216,5.12-10.752c4.608-1.536,9.216,1.024,10.752,5.12l47.616,143.36c1.536,4.608-1.024,9.216-5.12,10.752   C211.796,160.195,210.772,160.195,209.748,160.195z"/>
	<path style="fill:#44C4A1;" d="M213.332,160.195c-3.072,0-6.144-2.048-7.68-5.12c-2.048-4.096,0-9.216,4.608-10.752l150.016-64.512   c4.096-2.048,9.216,0,10.752,4.608c2.048,4.096,0,9.216-4.608,10.752l-149.504,64.512   C215.892,160.195,214.356,160.195,213.332,160.195z"/>
	<path style="fill:#44C4A1;" d="M213.332,154.051c-2.048,0-3.584-0.512-5.12-2.048c-3.584-3.072-4.096-8.192-1.024-11.776   l68.608-84.992c3.072-3.584,8.192-4.096,11.776-1.024c3.584,3.072,4.096,8.192,1.024,11.776l-68.608,84.992   C218.452,153.027,215.892,154.051,213.332,154.051z"/>
	<path style="fill:#44C4A1;" d="M208.724,150.467c-0.512,0-1.024,0-1.536,0c-4.608-1.024-7.68-5.12-6.656-9.728l20.992-109.056   c1.024-4.608,5.12-7.68,9.728-6.656c4.608,1.024,7.68,5.12,6.656,9.728l-20.992,109.056   C215.892,147.907,212.308,150.467,208.724,150.467z"/>
</g>
<path style="fill:#E56353;" d="M39.764,410.051c0,0,38.4-51.2,13.824-167.424c-10.24-48.128,16.384-174.592,167.424-104.96  c0,0,7.68,3.072,10.752,5.632c108.032,65.024,9.728,186.368-38.912,194.048s-83.456,21.504-107.008,34.816  c0,0-33.792,20.992-47.104,38.4"/>
<path style="fill:#D15241;" d="M221.012,137.667c0,0,7.68,3.072,10.752,5.632c108.032,65.024,9.728,186.368-38.912,194.048  s-83.456,21.504-107.008,34.816c0,0-33.792,20.992-47.104,38.4L221.012,137.667z"/>
<g>
</g>
<g>
</g>
<g>
</g>
<g>
</g>
<g>
</g>
<g>
</g>
<g>
</g>
<g>
</g>
<g>
</g>
<g>
</g>
<g>
</g>
<g>
</g>
<g>
</g>
<g>
</g>
<g>
</g>
</svg>
