<?xml version="1.0" encoding="iso-8859-1"?>
<!-- Generator: Adobe Illustrator 19.0.0, SVG Export Plug-In . SVG Version: 6.00 Build 0)  -->
<svg version="1.1" id="Capa_1" xmlns="http://www.w3.org/2000/svg" xmlns:xlink="http://www.w3.org/1999/xlink" x="0px" y="0px"
	 viewBox="0 0 512.063 512.063" style="enable-background:new 0 0 512.063 512.063;" xml:space="preserve">
<path style="fill:#5A5F63;" d="M211.793,479.823c6.176,18.624,23.552,32.24,44.304,32.24c20.624,0,37.968-13.632,44.144-32.24
	H211.793z"/>
<path style="fill:#FFD83B;" d="M420.977,164.943c0-93.28-77.424-168.464-171.504-164.816
	C161.857,3.519,90.625,78.159,91.089,165.839c0.256,49.296,22.192,93.408,56.72,123.408c31.488,27.36,48.928,67.504,48.928,109.216
	v2.416h118.56v-2.368c0-43.104,20.016-82.832,51.872-111.872C400.225,256.511,420.977,213.183,420.977,164.943z"/>
<path style="fill:#E9EFF4;" d="M315.553,400.879h-119.04c-8.16,0-14.784,6.624-14.784,14.784l0,0c0,8.16,6.624,14.784,14.784,14.784
	h119.056c8.16,0,14.784-6.624,14.784-14.784l0,0C330.337,407.487,323.713,400.879,315.553,400.879z"/>
<path style="fill:#DEE4E9;" d="M315.553,430.431h-119.04c-8.16,0-14.784,6.624-14.784,14.784l0,0c0,8.16,6.624,14.784,14.784,14.784
	h119.056c8.16,0,14.784-6.624,14.784-14.784l0,0C330.337,437.055,323.713,430.431,315.553,430.431z"/>
<path style="fill:#E9EFF4;" d="M315.553,459.983h-119.04c-8.16,0-14.784,6.624-14.784,14.784l0,0c0,8.16,6.624,14.784,14.784,14.784
	h119.056c8.16,0,14.784-6.624,14.784-14.784l0,0C330.337,466.607,323.713,459.983,315.553,459.983z"/>
<g>
	<path style="fill:#8BC540;" d="M180.353,212.431c0,0,28.272,22.272,50.544,33.968c0,0,45.648,25.936,20.4,52.336
		c0,0-5.04,6.608-14.416,11.904c-24.912,14.08-57.008-1.904-60.464-30.32c-0.72-5.872-0.192-12.272,2.352-19.04
		C190.161,230.783,180.353,212.431,180.353,212.431z"/>
	<path style="fill:#8BC540;" d="M257.985,249.407c0,0-12.512-44.688,54.016-72.896c0,0,73.024-23.024,75.52-34.816
		c0,0-10.48,34.192-11.984,74.784c-0.448,12.16-1.984,24.336-6.128,35.792c-7.248,20.096-22.88,44.096-55.664,38.544
		C259.089,281.583,257.985,249.407,257.985,249.407z"/>
</g>
<path style="fill:#7FB241;" d="M304.337,234.495c-8.8,12.704-24.08,39.28-32.656,58.08c-7.12,15.344-15.536,34.688-19.648,51.088
	c-8.192-28.144-19.728-55.168-27.584-69.28c-15.776-29.712-27.184-43.424-44.112-61.968c15.808,19.056,26.624,33.408,40.832,63.6
	c7.76,15.632,18.368,44.912,24.96,73.984v50.88h14.512c0,0-2.272-48.352,2.384-62.288c4.336-14.752,9.712-28.912,15.552-42.944
	c6.688-16.368,20.688-44.016,29.904-58.528c31.024-50.608,56.464-73.136,79.328-93.456
	C362.273,164.607,336.689,186.159,304.337,234.495z"/>
<g>
</g>
<g>
</g>
<g>
</g>
<g>
</g>
<g>
</g>
<g>
</g>
<g>
</g>
<g>
</g>
<g>
</g>
<g>
</g>
<g>
</g>
<g>
</g>
<g>
</g>
<g>
</g>
<g>
</g>
</svg>
