<?xml version="1.0" encoding="iso-8859-1"?>
<!-- Generator: Adobe Illustrator 19.0.0, SVG Export Plug-In . SVG Version: 6.00 Build 0)  -->
<svg version="1.1" id="Capa_1" xmlns="http://www.w3.org/2000/svg" xmlns:xlink="http://www.w3.org/1999/xlink" x="0px" y="0px"
	 viewBox="0 0 512 512" style="enable-background:new 0 0 512 512;" xml:space="preserve">
<rect x="39.467" y="136.533" style="fill:#E8EAE9;" width="433.067" height="375.467"/>
<polygon style="fill:#F3705A;" points="67.2,0 1.067,107.733 128,107.733 161.067,0 "/>
<path style="fill:#F05540;" d="M128,107.733H0V150.4c0,35.2,28.8,64,64,64l0,0c35.2,0,64-28.8,64-64V107.733z"/>
<polygon style="fill:#FFD15C;" points="161.067,0 128,107.733 256,107.733 256,0 "/>
<path style="fill:#F7B64C;" d="M256,107.733H128V150.4c0,35.2,28.8,64,64,64l0,0c35.2,0,64-28.8,64-64V107.733z"/>
<polygon style="fill:#F3705A;" points="256,0 256,107.733 384,107.733 350.933,0 "/>
<path style="fill:#F05540;" d="M384,107.733H256V150.4c0,35.2,28.8,64,64,64l0,0c35.2,0,64-28.8,64-64V107.733z"/>
<polygon style="fill:#FFD15C;" points="350.933,0 384,107.733 510.933,107.733 444.8,0 "/>
<path style="fill:#F7B64C;" d="M510.933,107.733H384V150.4c0,35.2,28.8,64,64,64l0,0c35.2,0,64-28.8,64-64v-42.667H510.933z"/>
<rect x="113.067" y="249.6" style="fill:#415A6B;" width="286.933" height="262.4"/>
<g>
	<rect x="132.267" y="268.8" style="fill:#8AD7F8;" width="113.067" height="222.933"/>
	<rect x="265.6" y="268.8" style="fill:#8AD7F8;" width="113.067" height="222.933"/>
</g>
<g>
	<path style="fill:#415A6B;" d="M289.067,400H288c-4.267,0-7.467-3.2-7.467-7.467V368c0-4.267,3.2-7.467,7.467-7.467h2.133
		c4.267,0,7.467,3.2,7.467,7.467v24.533C296.533,396.8,293.333,400,289.067,400z"/>
	<path style="fill:#415A6B;" d="M224,400h-2.133c-4.267,0-7.467-3.2-7.467-7.467V368c0-4.267,3.2-7.467,7.467-7.467H224
		c4.267,0,7.467,3.2,7.467,7.467v24.533C231.467,396.8,228.267,400,224,400z"/>
</g>
<g>
	
		<rect x="168.27" y="287.05" transform="matrix(-0.8424 -0.5388 0.5388 -0.8424 146.5056 686.2759)" style="fill:#56C0EB;" width="10.666" height="69.331"/>
	
		<rect x="171.758" y="326.146" transform="matrix(-0.8424 -0.5388 0.5388 -0.8424 132.4418 758.2222)" style="fill:#56C0EB;" width="10.666" height="67.198"/>
	
		<rect x="323.055" y="281.387" transform="matrix(-0.8424 -0.5388 0.5388 -0.8424 435.3106 757.2787)" style="fill:#56C0EB;" width="10.666" height="67.198"/>
	
		<rect x="168.744" y="371.476" transform="matrix(-0.8424 -0.5388 0.5388 -0.8424 101.8896 842.0804)" style="fill:#56C0EB;" width="10.666" height="69.331"/>
	
		<rect x="336.035" y="315.675" transform="matrix(-0.8424 -0.5388 0.5388 -0.8424 440.1751 829.4102)" style="fill:#56C0EB;" width="10.666" height="69.331"/>
</g>
<g>
</g>
<g>
</g>
<g>
</g>
<g>
</g>
<g>
</g>
<g>
</g>
<g>
</g>
<g>
</g>
<g>
</g>
<g>
</g>
<g>
</g>
<g>
</g>
<g>
</g>
<g>
</g>
<g>
</g>
</svg>
