<?xml version="1.0" encoding="iso-8859-1"?>
<!-- Generator: Adobe Illustrator 19.0.0, SVG Export Plug-In . SVG Version: 6.00 Build 0)  -->
<svg version="1.1" id="Capa_1" xmlns="http://www.w3.org/2000/svg" xmlns:xlink="http://www.w3.org/1999/xlink" x="0px" y="0px"
	 viewBox="0 0 468.294 468.294" style="enable-background:new 0 0 468.294 468.294;" xml:space="preserve">
<path style="fill:#D5D6DB;" d="M341.203,291.465L176.829,127.091c13.291-32.735,6.69-71.656-19.863-98.209
	C136.399,8.315,108.415-0.212,81.627,3.125l32.828,32.828c11.215,11.215,11.215,29.397,0,40.612l-37.97,37.969
	c-11.215,11.215-29.397,11.215-40.612,0L3.046,81.706c-3.71,29.781,7.245,61.04,33.104,81.942
	c25.81,20.864,61.02,25.25,90.833,13.228l164.434,164.434c-12.022,29.812-7.636,65.023,13.228,90.833
	c20.903,25.859,52.161,36.815,81.943,33.104L353.76,432.42c-11.215-11.215-11.215-29.397,0-40.612l37.97-37.969
	c11.215-11.215,29.397-11.215,40.612,0l32.828,32.828c3.337-26.788-5.19-54.772-25.757-75.339
	C412.859,284.775,373.937,278.174,341.203,291.465z"/>
<path style="fill:#27A2DB;" d="M80.585,462.806L5.486,387.709c-7.315-7.315-7.315-19.175,0-26.491l160.25-160.25
	c2.438-2.438,6.392-2.438,8.83,0l92.759,92.758c2.438,2.438,2.438,6.392,0,8.83l-160.25,160.25
	C99.76,470.122,87.9,470.122,80.585,462.806z"/>
<path style="fill:#1C75A1;" d="M262.907,289.308l-83.921-83.921l16.731-16.731c2.438-2.438,6.392-2.438,8.83,0l75.091,75.09
	c2.438,2.438,2.438,6.392,0,8.83L262.907,289.308z"/>
<g>
	<path style="fill:#E1E6E9;" d="M74.133,399.581l-5.421-5.421c-2.438-2.438-2.438-6.392,0-8.83l112.306-112.305
		c2.438-2.438,6.392-2.438,8.83,0l5.421,5.421c2.438,2.438,2.438,6.392,0,8.83L82.964,399.581
		C80.525,402.019,76.572,402.019,74.133,399.581z"/>
	<path style="fill:#E1E6E9;" d="M102.636,428.084l-5.421-5.421c-2.438-2.438-2.438-6.392,0-8.83l112.306-112.306
		c2.438-2.438,6.392-2.438,8.83,0l5.421,5.421c2.438,2.438,2.438,6.392,0,8.83L111.466,428.084
		C109.028,430.522,105.075,430.522,102.636,428.084z"/>
	<path style="fill:#E1E6E9;" d="M45.631,371.078l-5.421-5.421c-2.438-2.438-2.438-6.392,0-8.83l112.306-112.305
		c2.438-2.438,6.392-2.438,8.83,0l5.421,5.421c2.438,2.438,2.438,6.392,0,8.83L54.461,371.078
		C52.022,373.517,48.069,373.517,45.631,371.078z"/>
</g>
<polygon style="fill:#64798A;" points="256.344,240.453 227.841,211.95 387.082,52.71 391.115,34.426 439.791,0.001 468.294,28.504 
	433.869,77.18 415.585,81.212 "/>
<g>
</g>
<g>
</g>
<g>
</g>
<g>
</g>
<g>
</g>
<g>
</g>
<g>
</g>
<g>
</g>
<g>
</g>
<g>
</g>
<g>
</g>
<g>
</g>
<g>
</g>
<g>
</g>
<g>
</g>
</svg>
