<?xml version="1.0" encoding="iso-8859-1"?>
<!-- Generator: Adobe Illustrator 19.0.0, SVG Export Plug-In . SVG Version: 6.00 Build 0)  -->
<svg version="1.1" id="Capa_1" xmlns="http://www.w3.org/2000/svg" xmlns:xlink="http://www.w3.org/1999/xlink" x="0px" y="0px"
	 viewBox="0 0 468.294 468.294" style="enable-background:new 0 0 468.294 468.294;" xml:space="preserve">
<path style="fill:#E1E6E9;" d="M52.242,20.883L0,73.125v361.792c0,6.9,5.594,12.494,12.494,12.494h275.305
	c6.9,0,12.494-5.594,12.494-12.494V33.377c0-6.9-5.594-12.494-12.494-12.494H52.242z"/>
<g>
	<polygon style="fill:#D5D6DB;" points="52.242,73.125 52.242,20.883 0,73.125 	"/>
	<rect x="56.439" y="388.615" style="fill:#D5D6DB;" width="187.38" height="12.488"/>
	<rect x="56.439" y="340.231" style="fill:#D5D6DB;" width="124.422" height="12.488"/>
	<rect x="56.439" y="291.841" style="fill:#D5D6DB;" width="105.378" height="12.488"/>
	<rect x="56.439" y="243.457" style="fill:#D5D6DB;" width="73.884" height="12.488"/>
	<rect x="56.439" y="195.073" style="fill:#D5D6DB;" width="78.018" height="12.488"/>
	<rect x="56.439" y="146.689" style="fill:#D5D6DB;" width="103.38" height="12.488"/>
	<rect x="56.439" y="98.305" style="fill:#D5D6DB;" width="187.38" height="12.488"/>
	
		<rect x="322.679" y="290.182" transform="matrix(-0.7071 0.7071 -0.7071 -0.7071 791.5394 297.9967)" style="fill:#D5D6DB;" width="22.747" height="45.5"/>
</g>
<path style="fill:#3EA69B;" d="M466.465,413.751l-31.6,31.6c-2.438,2.438-6.392,2.438-8.83,0l-91.703-91.703
	c-2.438-2.438-2.438-6.392,0-8.83l31.6-31.6c2.438-2.438,6.392-2.438,8.83,0l91.703,91.703
	C468.904,407.359,468.904,411.313,466.465,413.751z"/>
<g>
	<path style="fill:#44C4A1;" d="M380.87,319.326l-40.431,40.431l-6.108-6.108c-2.438-2.438-2.438-6.392,0-8.83l31.6-31.6
		c2.438-2.438,6.392-2.438,8.83,0L380.87,319.326z"/>
	<path style="fill:#44C4A1;" d="M466.465,413.751l-31.6,31.6c-2.438,2.438-6.392,2.438-8.83,0l-6.108-6.108l40.431-40.431
		l6.108,6.108C468.904,407.359,468.904,411.313,466.465,413.751z"/>
</g>
<circle style="fill:#3A556A;" cx="238.074" cy="216.976" r="118.634"/>
<circle style="fill:#EBF0F3;" cx="238.074" cy="216.976" r="100.402"/>
<path style="fill:#D5D6DB;" d="M233.921,295.428l-0.001-13.819c-17.299-1.764-32.828-8.642-46.569-20.627l13.817-16.469
	c10.599,9.212,21.505,14.697,32.751,16.468l-0.002-36.727c-14.265-3.404-24.709-7.887-31.334-13.441
	c-6.624-5.554-9.937-13.788-9.937-24.703c-0.001-10.915,3.804-19.843,11.444-26.791c7.64-6.94,17.576-10.723,29.823-11.355l0-9.467
	l12.108,0l0,9.652c13.88,1.016,27.005,5.746,39.375,14.203l-12.307,17.416c-8.334-5.931-17.346-9.59-27.066-10.984l0.002,35.587
	l0.57,0c14.511,3.412,25.171,8.018,31.981,13.818c6.824,5.808,10.229,14.235,10.23,25.273c0,11.046-3.912,20.043-11.737,26.976
	c-7.825,6.948-18.161,10.731-31.04,11.362l0.001,13.626L233.921,295.428z M220.56,173.238c-3.219,2.835-4.821,6.37-4.821,10.599
	c0,4.229,1.264,7.572,3.79,10.029c2.511,2.465,7.317,4.83,14.388,7.102l-0.001-32.753
	C228.231,168.724,223.779,170.396,220.56,173.238z M260.415,256.243c3.527-2.896,5.299-6.555,5.299-10.977
	c0-4.414-1.387-7.918-4.16-10.507c-2.788-2.588-7.964-5.014-15.528-7.287l0.002,34.07
	C252.082,260.919,256.873,259.147,260.415,256.243z"/>
<g>
</g>
<g>
</g>
<g>
</g>
<g>
</g>
<g>
</g>
<g>
</g>
<g>
</g>
<g>
</g>
<g>
</g>
<g>
</g>
<g>
</g>
<g>
</g>
<g>
</g>
<g>
</g>
<g>
</g>
</svg>
