<svg height="512" viewBox="0 0 58 56" width="512" xmlns="http://www.w3.org/2000/svg"><g id="Page-1" fill="none" fill-rule="evenodd"><g id="119---Back-Folder" fill-rule="nonzero"><path id="Shape" d="m45 4.99v3.23s-37.26 45.4-37.71 46.06c-.53538092.7607325-1.31542652 1.3148825-2.21 1.57-1.20497884.3378936-2.49865126.0923609-3.49603508-.6635303-.99738382-.7558913-1.58351401-1.9350122-1.58396492-3.1864697v-46.38c-.00188542-.90467521.60580567-1.69713724 1.48-1.93l13.32-3.55c.9916666-.26823138 2.0486287-.14282909 2.95.35l8.27 4.52c.9013713.49282909 1.9583334.61823138 2.95.35l12.26-3.27c.9003747-.23910625 1.8607375-.04636805 2.5991323.52162798.7383949.56799603 1.171023 1.44678927 1.1708677 2.37837202z" fill="#f29c1f"/><path id="Shape" d="m53 9.99v29.73c-.001284 1.802193-1.2101932 3.3799219-2.95 3.85l-44.97 12.28c1.72608654-.4840196 2.91935403-2.0573346 2.92-3.85v-32.38c-.00188542-.9046752.60580567-1.6971372 1.48-1.93l35.52-9.47 4.23-1.13c.9003747-.23910625 1.8607375-.04636805 2.5991323.52162798.7383949.56799603 1.171023 1.44678927 1.1708677 2.37837202z" fill="#f0c419"/><path id="Shape" d="m21.25 36.954 14.365 12.83c.2433723.2200612.593635.2758759.8933508.1423564.2997158-.1335196.4924804-.4312462.4916492-.7593564v-6.167c18.362 0 21 13 21 13 0-28-21-27-21-27v-5.166c.0003356-.3278713-.1923716-.6252136-.4917879-.758816-.2994163-.1336023-.6494218-.0784235-.8932121.140816l-14.365 12.536c-.1598727.1591412-.2497501.3754225-.2497501.601s.0898774.4418588.2497501.601z" fill="#2fa8cc"/></g></g></svg>