<?xml version="1.0" encoding="iso-8859-1"?>
<!-- Generator: Adobe Illustrator 19.0.0, SVG Export Plug-In . SVG Version: 6.00 Build 0)  -->
<svg version="1.1" id="Capa_1" xmlns="http://www.w3.org/2000/svg" xmlns:xlink="http://www.w3.org/1999/xlink" x="0px" y="0px"
	 viewBox="0 0 512.003 512.003" style="enable-background:new 0 0 512.003 512.003;" xml:space="preserve">
<path style="fill:#FFD15C;" d="M419.392,0.001H32c-17.664,0-32,14.325-32,32v368.565c0,17.664,14.336,32,32,32h387.392
	c17.685,0,32-14.336,32-32V32.001C451.392,14.326,437.088,0.001,419.392,0.001"/>
<rect x="173.621" y="0.001" style="fill:#F3705A;" width="104.149" height="113.493"/>
<path style="fill:#E8EAE9;" d="M510.336,393.995L396.875,124.662c-4.587-10.859-17.088-15.947-27.957-11.371l-164.587,69.333
	l-37.547,92.224l94.4,224.096c4.565,10.869,17.067,15.947,27.936,11.381l209.813-88.384
	C509.792,417.366,514.891,404.854,510.336,393.995"/>
<polygon style="fill:#ADB3BA;" points="204.331,182.614 166.795,274.849 231.691,247.51 "/>
<g>
	
		<rect x="304.723" y="171.296" transform="matrix(-0.3882 -0.9216 0.9216 -0.3882 181.9118 669.7095)" style="fill:#CED6E0;" width="17.067" height="206.351"/>
	
		<rect x="325.45" y="220.409" transform="matrix(-0.3871 -0.922 0.922 -0.3871 164.9151 756.7791)" style="fill:#CED6E0;" width="17.055" height="206.339"/>
	
		<rect x="346.191" y="269.579" transform="matrix(-0.3882 -0.9216 0.9216 -0.3882 148.9022 844.3619)" style="fill:#CED6E0;" width="17.067" height="206.351"/>
	
		<rect x="366.873" y="318.736" transform="matrix(-0.3882 -0.9216 0.9216 -0.3882 132.3109 931.6605)" style="fill:#CED6E0;" width="17.067" height="206.351"/>
</g>
<g>
</g>
<g>
</g>
<g>
</g>
<g>
</g>
<g>
</g>
<g>
</g>
<g>
</g>
<g>
</g>
<g>
</g>
<g>
</g>
<g>
</g>
<g>
</g>
<g>
</g>
<g>
</g>
<g>
</g>
</svg>
