<?xml version="1.0" encoding="iso-8859-1"?>
<!-- Generator: Adobe Illustrator 19.0.0, SVG Export Plug-In . SVG Version: 6.00 Build 0)  -->
<svg version="1.1" id="Capa_1" xmlns="http://www.w3.org/2000/svg" xmlns:xlink="http://www.w3.org/1999/xlink" x="0px" y="0px"
	 viewBox="0 0 512 512" style="enable-background:new 0 0 512 512;" xml:space="preserve">
<rect x="181.333" y="423.467" style="fill:#CED6E0;" width="148.267" height="46.933"/>
<path style="fill:#E8EAE9;" d="M121.6,512L121.6,512h268.8l0,0c0-25.6-20.267-45.867-45.867-45.867H167.467
	C141.867,466.133,121.6,486.4,121.6,512z"/>
<path style="fill:#415A6B;" d="M512,67.2v283.733H0V67.2c0-12.8,10.667-23.467,23.467-23.467H489.6
	C501.333,43.733,512,54.4,512,67.2z"/>
<path style="fill:#E8EAE9;" d="M512,349.867v61.867c0,13.867-10.667,24.533-24.533,24.533H24.533C10.667,437.333,0,425.6,0,412.8
	v-61.867h512V349.867z"/>
<rect x="28.8" y="72.533" style="fill:#8AD7F8;" width="453.333" height="277.333"/>
<rect x="76.8" y="68.267" style="fill:#FFFFFF;" width="358.4" height="281.6"/>
<path style="fill:#F3705A;" d="M435.2,68.267V22.4C435.2,9.6,424.533,0,412.8,0H99.2C87.467,0,76.8,10.667,76.8,22.4v45.867H435.2z"
	/>
<g>
	<circle style="fill:#FFFFFF;" cx="388.267" cy="34.133" r="12.8"/>
	<circle style="fill:#FFFFFF;" cx="343.467" cy="34.133" r="12.8"/>
	<circle style="fill:#FFFFFF;" cx="298.667" cy="34.133" r="12.8"/>
</g>
<polygon style="fill:#66C6B9;" points="356.267,200.533 256,100.267 155.733,200.533 "/>
<rect x="182.4" y="200.533" style="fill:#E8EAE9;" width="148.267" height="119.467"/>
<rect x="232.533" y="269.867" style="fill:#415A6B;" width="45.867" height="49.067"/>
<circle style="fill:#F3705A;" cx="423.467" cy="393.6" r="13.867"/>
<circle style="fill:#415A6B;" cx="469.333" cy="393.6" r="13.867"/>
<g>
</g>
<g>
</g>
<g>
</g>
<g>
</g>
<g>
</g>
<g>
</g>
<g>
</g>
<g>
</g>
<g>
</g>
<g>
</g>
<g>
</g>
<g>
</g>
<g>
</g>
<g>
</g>
<g>
</g>
</svg>
