<?xml version="1.0" encoding="iso-8859-1"?>
<!-- Generator: Adobe Illustrator 19.0.0, SVG Export Plug-In . SVG Version: 6.00 Build 0)  -->
<svg xmlns="http://www.w3.org/2000/svg" xmlns:xlink="http://www.w3.org/1999/xlink" version="1.1" id="Capa_1" x="0px" y="0px" viewBox="0 0 409.6 409.6" style="enable-background:new 0 0 409.6 409.6;" xml:space="preserve">
<path style="fill:#44C4A1;" d="M46.08,75.73c0,0,33.792-2.56,40.448,34.304c0,0,23.552,2.56,15.872,17.92  c0,0,32.768,23.552,10.24,37.888c0,0,12.288,31.744-3.584,29.696c0,0-35.84,21.504-47.616-0.512c0,0-22.528,2.56-22.016-20.48  c0,0-15.36-7.168-8.704-29.184c0,0-33.792-10.24-12.8-29.696c0,0-13.312-20.48,2.56-32.768c0,0-4.608-23.04,5.632-27.136  C25.088,55.25,38.4,54.226,46.08,75.73z"/>
<path style="fill:#3EA69B;" d="M202.24,82.898c0,0,20.992,26.112-5.12,52.736c0,0,11.264,20.992-6.144,23.552  c0,0-1.024,40.448-25.6,29.696c0,0-18.944,28.16-26.624,13.824c0,0-37.888-17.408-26.624-39.936c0,0-14.848-16.896,4.608-30.208  c0,0-2.56-16.384,18.944-23.552c0,0-10.752-33.28,16.896-27.136c0,0,9.216-22.016,28.672-16.384c0,0,16.384-16.896,25.6-10.752  C207.36,54.738,216.064,64.466,202.24,82.898z"/>
<circle style="fill:#CE412D;" cx="111.104" cy="150.994" r="48.128"/>
<path style="fill:#44C4A1;" d="M272.896,77.778c0,0,26.624,20.48,7.68,52.224c0,0,15.872,17.408,0,24.064  c0,0,8.704,39.424-17.408,35.328c0,0-11.776,31.744-22.528,19.968c0,0-40.96-7.68-35.328-32.256c0,0-18.432-12.8-3.072-30.208  c0,0-6.656-15.36,12.8-27.648c0,0-18.432-29.696,9.728-30.72c0,0,3.584-24.064,23.552-23.04c0,0,11.776-20.48,22.016-16.896  C270.848,48.594,281.088,56.274,272.896,77.778z"/>
<path style="fill:#3EA69B;" d="M390.656,109.522c0,0,14.336,30.72-17.408,50.176c0,0,6.144,23.04-11.264,21.504  c0,0-10.752,38.912-31.744,23.04c0,0-25.088,23.04-29.184,7.168c0,0-32.768-25.6-16.384-45.056c0,0-10.24-19.968,11.264-28.16  c0,0,1.024-16.896,24.064-18.432c0,0-2.56-34.816,23.04-22.528c0,0,14.336-19.456,31.744-9.216c0,0,19.968-12.8,27.648-4.608  C402.432,82.386,408.064,94.162,390.656,109.522z"/>
<ellipse style="fill:#E1E6E9;" cx="283.293" cy="149.339" rx="48.127" ry="48.127"/>
<path style="fill:#27A2DB;" d="M409.6,192.466c0,93.184-91.648,168.96-204.8,168.96S0,285.65,0,192.466H409.6z"/>
<rect y="150.994" style="fill:#3A556A;" width="409.6" height="41.472"/>
<rect y="174.034" style="fill:#D5D6DB;" width="409.6" height="18.432"/>
<path style="fill:#2D93BA;" d="M0,192.466c0,93.184,91.648,168.96,204.8,168.96v-168.96H0z"/>
<g>
</g>
<g>
</g>
<g>
</g>
<g>
</g>
<g>
</g>
<g>
</g>
<g>
</g>
<g>
</g>
<g>
</g>
<g>
</g>
<g>
</g>
<g>
</g>
<g>
</g>
<g>
</g>
<g>
</g>
</svg>
