<?xml version="1.0" encoding="iso-8859-1"?>
<!-- Generator: Adobe Illustrator 19.0.0, SVG Export Plug-In . SVG Version: 6.00 Build 0)  -->
<svg version="1.1" id="Capa_1" xmlns="http://www.w3.org/2000/svg" xmlns:xlink="http://www.w3.org/1999/xlink" x="0px" y="0px"
	 viewBox="0 0 468.35 468.35" style="enable-background:new 0 0 468.35 468.35;" xml:space="preserve">
<path style="fill:#EBF0F3;" d="M262.096,262.088c-52.957,52.957-139.126,52.96-192.084,0.002s-52.957-139.129,0-192.086
	s139.128-52.957,192.086,0S315.054,209.131,262.096,262.088z"/>
<path style="fill:#64798A;" d="M48.631,48.638c-64.842,64.842-64.842,169.99,0,234.832c59.029,59.029,151.482,64.286,216.452,15.815
	c6.455-4.744,12.566-10.002,18.379-15.815c5.813-5.813,11.071-11.925,15.815-18.379c48.47-64.97,43.213-157.423-15.815-216.452
	C218.621-16.203,113.473-16.203,48.631,48.638z M262.096,262.088c-52.957,52.957-139.126,52.96-192.084,0.002
	s-52.957-139.129,0-192.086s139.128-52.957,192.086,0S315.054,209.131,262.096,262.088z"/>
<path style="fill:#D5D6DB;" d="M299.278,265.09l34.024,34.024l-34.195,34.195l-34.024-34.024
	c6.455-4.744,12.566-10.002,18.379-15.815C289.275,277.657,294.533,271.545,299.278,265.09z"/>
<rect x="341.057" y="312.021" transform="matrix(-0.7071 0.7071 -0.7071 -0.7071 919.293 380.7496)" style="fill:#3A556A;" width="79.467" height="137.491"/>
<g>
	<path style="fill:#FCD462;" d="M360.3,304.102l-56.191,56.191l-7.175-7.175c-4.877-4.877-4.877-12.784,0-17.66l38.53-38.53
		c4.877-4.877,12.784-4.877,17.66,0L360.3,304.102z"/>
	<path style="fill:#FCD462;" d="M464.693,426.155l-38.53,38.53c-4.877,4.877-12.784,4.877-17.66,0l-7.175-7.175l56.191-56.191
		l7.175,7.175C469.57,413.372,469.57,421.279,464.693,426.155z"/>
</g>
<path style="fill:#2F4859;" d="M160.44,271.97v-18.655c-23.355-2.381-44.318-11.667-62.869-27.847l18.655-22.232
	c14.308,12.436,29.032,19.84,44.214,22.232v-49.58c-19.258-4.596-33.358-10.648-42.301-18.145
	c-8.943-7.497-13.414-18.613-13.414-33.348c0-14.735,5.137-26.786,15.452-36.166c10.315-9.369,23.729-14.475,40.263-15.327v-12.78
	h16.346v13.029c18.738,1.373,36.457,7.757,53.157,19.175l-16.617,23.511c-11.251-8.007-23.417-12.946-36.54-14.828v48.041h0.769
	c19.591,4.606,33.982,10.825,43.174,18.655c9.213,7.84,13.809,19.216,13.809,34.117c0,14.911-5.282,27.057-15.847,36.415
	c-10.565,9.379-24.519,14.485-41.906,15.338v18.395H160.44z M142.409,107.02c-4.347,3.827-6.509,8.599-6.509,14.308
	c0,5.709,1.705,10.222,5.116,13.539c3.39,3.327,9.878,6.52,19.424,9.587v-44.214C152.766,100.927,146.755,103.183,142.409,107.02z
	 M196.21,219.074c4.762-3.91,7.154-8.849,7.154-14.818c0-5.958-1.872-10.69-5.615-14.183c-3.764-3.494-10.752-6.769-20.963-9.837
	v45.992C184.959,225.385,191.427,222.994,196.21,219.074z"/>
<g>
</g>
<g>
</g>
<g>
</g>
<g>
</g>
<g>
</g>
<g>
</g>
<g>
</g>
<g>
</g>
<g>
</g>
<g>
</g>
<g>
</g>
<g>
</g>
<g>
</g>
<g>
</g>
<g>
</g>
</svg>
