<?xml version="1.0" encoding="iso-8859-1"?>
<!-- Generator: Adobe Illustrator 19.0.0, SVG Export Plug-In . SVG Version: 6.00 Build 0)  -->
<svg version="1.1" id="Capa_1" xmlns="http://www.w3.org/2000/svg" xmlns:xlink="http://www.w3.org/1999/xlink" x="0px" y="0px"
	 viewBox="0 0 512 512" style="enable-background:new 0 0 512 512;" xml:space="preserve">
<path style="fill:#415A6B;" d="M0.267,314.667V480c0,17.067,14.933,32,33.067,32h69.333V314.667H0.267z"/>
<path style="fill:#E8EAE9;" d="M398.133,0h-364.8C15.2,0,0.267,14.933,0.267,33.067v292.267L63.2,512h333.867
	c18.133,0,33.067-14.933,33.067-33.067V33.067C430.133,14.933,415.2,0,398.133,0z"/>
<g>
	<rect x="55.733" y="54.4" style="fill:#CED6E0;" width="321.067" height="21.333"/>
	<rect x="55.733" y="131.2" style="fill:#CED6E0;" width="321.067" height="21.333"/>
	<rect x="55.733" y="206.933" style="fill:#CED6E0;" width="321.067" height="21.333"/>
	<rect x="55.733" y="283.733" style="fill:#CED6E0;" width="321.067" height="21.333"/>
	<rect x="170.933" y="359.467" style="fill:#CED6E0;" width="204.8" height="21.333"/>
	<rect x="170.933" y="436.267" style="fill:#CED6E0;" width="204.8" height="21.333"/>
</g>
<path style="fill:#66C6B9;" d="M83.467,401.067l-83.2-75.733L63.2,512c0-14.933,6.4-34.133,20.267-46.933
	C101.6,446.933,102.667,418.133,83.467,401.067z"/>
<path style="fill:#F7B64C;" d="M274.4,290.133l-67.2,16l16-67.2c0,0,32-2.133,42.667,8.533
	C276.533,258.133,274.4,290.133,274.4,290.133z"/>
<path style="fill:#FFD15C;" d="M255.2,275.2l-48,29.867l29.867-48c8.533-8.533,17.067-8.533,21.333-3.2
	C263.733,258.133,263.733,266.667,255.2,275.2z"/>
<path style="fill:#415A6B;" d="M230.667,299.733l-23.467,5.333l5.333-23.467C222.133,283.733,228.533,291.2,230.667,299.733z"/>
<path style="fill:#F05540;" d="M419.467,41.6L223.2,237.867c4.267,0,8.533,1.067,10.667,4.267c4.267,4.267,5.333,9.6,3.2,14.933
	L436.533,57.6L419.467,41.6z"/>
<path style="fill:#F3705A;" d="M436.533,57.6L237.067,257.067c5.333-2.133,10.667-1.067,14.933,3.2l0,0
	c4.267,4.267,5.333,9.6,3.2,14.933L454.667,75.733L436.533,57.6z"/>
<path style="fill:#F05540;" d="M454.667,75.733L255.2,275.2c5.333-2.133,10.667-1.067,14.933,3.2c3.2,3.2,4.267,7.467,4.267,10.667
	L471.733,92.8L454.667,75.733z"/>
<path style="fill:#8AD7F8;" d="M473.867,89.6l33.067-33.067c6.4-6.4,6.4-16,0-21.333L477.067,5.333c-6.4-6.4-16-6.4-21.333,0
	L422.667,38.4L473.867,89.6z"/>
<rect x="442.896" y="25.215" transform="matrix(-0.7071 0.7071 -0.7071 -0.7071 814.1119 -214.254)" style="fill:#E8EAE9;" width="17.066" height="72.533"/>
<g>
</g>
<g>
</g>
<g>
</g>
<g>
</g>
<g>
</g>
<g>
</g>
<g>
</g>
<g>
</g>
<g>
</g>
<g>
</g>
<g>
</g>
<g>
</g>
<g>
</g>
<g>
</g>
<g>
</g>
</svg>
