<?xml version="1.0" encoding="iso-8859-1"?>
<!-- Generator: Adobe Illustrator 19.0.0, SVG Export Plug-In . SVG Version: 6.00 Build 0)  -->
<svg version="1.1" id="Capa_1" xmlns="http://www.w3.org/2000/svg" xmlns:xlink="http://www.w3.org/1999/xlink" x="0px" y="0px"
	 viewBox="0 0 490.656 490.656" style="enable-background:new 0 0 490.656 490.656;" xml:space="preserve">
<path style="fill:#66C6B9;" d="M218.741,107.909H99.84c-54.357,0-98.421,44.064-98.421,98.421s44.064,98.443,98.421,98.443h118.891
	c54.357,0,98.421-44.085,98.421-98.443S273.099,107.909,218.741,107.909"/>
<path style="fill:#ADB3BA;" d="M471.744,304.752H18.923C8.48,304.752,0,313.232,0,323.696c0,10.443,8.48,18.923,18.923,18.923
	h452.811c10.443,0,18.923-8.48,18.923-18.923C490.667,313.232,482.187,304.752,471.744,304.752"/>
<path style="fill:#F3705A;" d="M463.744,184.24l-57.504-57.504c-4-4-9.44-6.251-15.083-6.251h-52.672
	c-11.776,0-21.333,9.557-21.333,21.333v162.923h152.832V199.312C469.995,193.669,467.744,188.24,463.744,184.24"/>
<g>
	<polygon style="fill:#415A6B;" points="391.157,141.829 360.757,141.829 360.757,223.803 448.661,223.803 448.661,199.333 	"/>
	<path style="fill:#415A6B;" d="M165.515,328.773c0,29.803-24.16,53.973-53.973,53.973c-29.803,0-53.973-24.171-53.973-53.973
		S81.739,274.8,111.541,274.8C141.355,274.811,165.515,298.971,165.515,328.773"/>
</g>
<path style="fill:#E8EAE9;" d="M135.264,328.773c0,13.099-10.613,23.712-23.712,23.712c-13.109,0-23.733-10.613-23.733-23.712
	c0-13.109,10.624-23.712,23.733-23.712C124.651,305.072,135.264,315.675,135.264,328.773"/>
<path style="fill:#415A6B;" d="M447.541,328.773c0,29.803-24.16,53.973-53.973,53.973s-53.973-24.171-53.973-53.973
	s24.16-53.973,53.973-53.973S447.541,298.971,447.541,328.773"/>
<path style="fill:#E8EAE9;" d="M417.28,328.773c0,13.099-10.603,23.712-23.712,23.712c-13.099,0-23.723-10.613-23.723-23.712
	c0-13.109,10.624-23.712,23.723-23.712C406.677,305.072,417.28,315.675,417.28,328.773"/>
<g>
</g>
<g>
</g>
<g>
</g>
<g>
</g>
<g>
</g>
<g>
</g>
<g>
</g>
<g>
</g>
<g>
</g>
<g>
</g>
<g>
</g>
<g>
</g>
<g>
</g>
<g>
</g>
<g>
</g>
</svg>
