<?xml version="1.0" encoding="iso-8859-1"?>
<!-- Generator: Adobe Illustrator 19.0.0, SVG Export Plug-In . SVG Version: 6.00 Build 0)  -->
<svg version="1.1" id="Capa_1" xmlns="http://www.w3.org/2000/svg" xmlns:xlink="http://www.w3.org/1999/xlink" x="0px" y="0px"
	 viewBox="0 0 512.052 512.052" style="enable-background:new 0 0 512.052 512.052;" xml:space="preserve">
<rect x="199.509" y="326.178" transform="matrix(-0.9553 0.2957 -0.2957 -0.9553 640.9056 627.1626)" style="fill:#7FB241;" width="147.043" height="71.729"/>
<path style="fill:#F3C432;" d="M240.325,25.211c-8.576,4.272-12.208,14.688-9.376,23.84l25.008,80.768
	c1.072,3.488-0.864,7.184-4.352,8.256c-3.488,1.072-7.184-0.88-8.256-4.352L206.453,14.555
	c-2.832-9.152-11.712-15.712-21.216-14.384c-12.096,1.696-19.312,13.616-15.856,24.768l34.304,110.832
	c1.072,3.488-0.864,7.184-4.352,8.256c-3.488,1.072-7.184-0.88-8.256-4.352L153.845,19.419
	c-2.832-9.152-11.728-15.696-21.216-14.368c-12.096,1.68-19.312,13.6-15.856,24.768l41.616,134.416
	c1.072,3.488-0.864,7.184-4.352,8.256l0,0c-3.488,1.072-7.184-0.88-8.256-4.352L111.589,57.755
	c-2.832-9.168-11.712-15.712-21.2-14.384c-12.096,1.696-19.312,13.616-15.856,24.768l52.224,168.72c0,0-51.136-46.704-70.432-44.944
	c-30.32,2.768-18.608,29.216-18.608,29.216l54.944,57.584c28.368,29.712,62.144,53.744,99.536,70.752l140.464-43.488
	c13.36-30.016-1.216-62.4-12.032-97.344l-5.792-18.736L267.413,36.683C263.957,25.531,251.269,19.771,240.325,25.211z"/>
<rect x="195.857" y="369.263" transform="matrix(-0.5278 0.8494 -0.8494 -0.5278 730.1129 479.6615)" style="fill:#5A5F63;" width="71.73" height="147.044"/>
<path style="fill:#FFD83B;" d="M464.613,197.355c-8.848-3.68-19.104,0.4-24.16,8.544l-44.624,71.808
	c-1.92,3.104-6,4.048-9.104,2.128s-4.048-6-2.128-9.104l65.84-105.952c5.056-8.144,4.192-19.136-3.04-25.44
	c-9.2-8.032-22.928-5.664-29.104,4.256l-61.232,98.544c-1.92,3.104-6,4.048-9.104,2.128s-4.048-6-2.128-9.104l66.448-106.928
	c5.056-8.144,4.192-19.136-3.04-25.44c-9.2-8.032-22.928-5.664-29.104,4.256l-74.272,119.52c-1.92,3.104-6,4.048-9.104,2.128l0,0
	c-3.104-1.92-4.048-6-2.128-9.104l60.992-98.16c5.056-8.144,4.192-19.136-3.04-25.44c-9.2-8.032-22.928-5.664-29.104,4.256
	l-93.216,150.016c0,0,1.76-69.216-12.208-82.64c-21.968-21.088-34.256,5.088-34.256,5.088l-7.488,79.232
	c-3.856,40.896,0.144,82.16,11.792,121.552l124.896,77.6c31.424-9.568,46.336-41.824,65.632-72.88l10.352-16.656l84.64-136.224
	C479.845,215.403,475.877,202.043,464.613,197.355z"/>
<g>
</g>
<g>
</g>
<g>
</g>
<g>
</g>
<g>
</g>
<g>
</g>
<g>
</g>
<g>
</g>
<g>
</g>
<g>
</g>
<g>
</g>
<g>
</g>
<g>
</g>
<g>
</g>
<g>
</g>
</svg>
