<svg height="512" viewBox="0 0 48 58" width="512" xmlns="http://www.w3.org/2000/svg"><g id="Page-1" fill="none" fill-rule="evenodd"><g id="124---Script-Folder" fill-rule="nonzero"><path id="Shape" d="m44 4c2.209139 0 4 1.790861 4 4v46c0 2.209139-1.790861 4-4 4h-36c-2.209139 0-4-1.790861-4-4z" fill="#90bae1"/><path id="Shape" d="m13 0h27c2.209139 0 4 1.790861 4 4v46c0 2.209139-1.790861 4-4 4h-36c-2.209139 0-4-1.790861-4-4v-37z" fill="#b0d3f0"/><path id="Shape" d="m34 5h-6c-.5522847 0-1-.44771525-1-1s.4477153-1 1-1h6c.5522847 0 1 .44771525 1 1s-.4477153 1-1 1z" fill="#ecf0f1"/><path id="Shape" d="m40 5h-2c-.5522847 0-1-.44771525-1-1s.4477153-1 1-1h2c.5522847 0 1 .44771525 1 1s-.4477153 1-1 1z" fill="#ecf0f1"/><path id="Shape" d="m13 0v9c0 2.209139-1.790861 4-4 4h-9z" fill="#90bae1"/><path id="Shape" d="m15 31c-2.243 0-4-1.361-4-3.1v-2.8c0-.52-.855-1.1-2-1.1-.55228475 0-1-.4477153-1-1s.44771525-1 1-1c1.145 0 2-.58 2-1.1v-2.8c0-1.739 1.757-3.1 4-3.1.5522847 0 1 .4477153 1 1s-.4477153 1-1 1c-1.145 0-2 .58-2 1.1v2.8c-.014572.8188684-.3932387 1.5886652-1.033 2.1.6397613.5113348 1.018428 1.2811316 1.033 2.1v2.8c0 .52.855 1.1 2 1.1.5522847 0 1 .4477153 1 1s-.4477153 1-1 1z" fill="#955ba5"/><path id="Shape" d="m31 31c-.5522847 0-1-.4477153-1-1s.4477153-1 1-1c1.145 0 2-.58 2-1.1v-2.8c.014572-.8188684.3932387-1.5886652 1.033-2.1-.6397613-.5113348-1.018428-1.2811316-1.033-2.1v-2.8c0-.52-.855-1.1-2-1.1-.5522847 0-1-.4477153-1-1s.4477153-1 1-1c2.243 0 4 1.361 4 3.1v2.8c0 .52.855 1.1 2 1.1.5522847 0 1 .4477153 1 1s-.4477153 1-1 1c-1.145 0-2 .58-2 1.1v2.8c0 1.739-1.757 3.1-4 3.1z" fill="#955ba5"/><circle id="Oval" cx="19" cy="26" fill="#ff5364" r="1"/><circle id="Oval" cx="23" cy="26" fill="#ff5364" r="1"/><circle id="Oval" cx="27" cy="26" fill="#ff5364" r="1"/><g fill="#2980ba"><path id="Shape" d="m6 38h-1c-.55228475 0-1-.4477153-1-1s.44771525-1 1-1h1c.55228475 0 1 .4477153 1 1s-.44771525 1-1 1z"/><path id="Shape" d="m19 38h-9c-.55228475 0-1-.4477153-1-1s.44771525-1 1-1h9c.5522847 0 1 .4477153 1 1s-.4477153 1-1 1z"/><path id="Shape" d="m39 38h-15c-.5522847 0-1-.4477153-1-1s.4477153-1 1-1h15c.5522847 0 1 .4477153 1 1s-.4477153 1-1 1z"/><path id="Shape" d="m6 43h-1c-.55228475 0-1-.4477153-1-1s.44771525-1 1-1h1c.55228475 0 1 .4477153 1 1s-.44771525 1-1 1z"/><path id="Shape" d="m39 43h-9c-.5522847 0-1-.4477153-1-1s.4477153-1 1-1h9c.5522847 0 1 .4477153 1 1s-.4477153 1-1 1z"/><path id="Shape" d="m25 43h-15c-.55228475 0-1-.4477153-1-1s.44771525-1 1-1h15c.5522847 0 1 .4477153 1 1s-.4477153 1-1 1z"/><path id="Shape" d="m6 48h-1c-.55228475 0-1-.4477153-1-1s.44771525-1 1-1h1c.55228475 0 1 .4477153 1 1s-.44771525 1-1 1z"/><path id="Shape" d="m19 48h-9c-.55228475 0-1-.4477153-1-1s.44771525-1 1-1h9c.5522847 0 1 .4477153 1 1s-.4477153 1-1 1z"/><path id="Shape" d="m39 48h-15c-.5522847 0-1-.4477153-1-1s.4477153-1 1-1h15c.5522847 0 1 .4477153 1 1s-.4477153 1-1 1z"/></g></g></g></svg>