<?xml version="1.0" encoding="iso-8859-1"?>
<!-- Generator: Adobe Illustrator 19.0.0, SVG Export Plug-In . SVG Version: 6.00 Build 0)  -->
<svg version="1.1" id="Capa_1" xmlns="http://www.w3.org/2000/svg" xmlns:xlink="http://www.w3.org/1999/xlink" x="0px" y="0px"
	 viewBox="0 0 511.963 511.963" style="enable-background:new 0 0 511.963 511.963;" xml:space="preserve">
<path style="fill:#F3C432;" d="M487.584,490.368L487.584,490.368c24.048-14.752,31.584-46.192,16.832-70.24L260.08,21.696
	c-4.624-7.536-14.464-9.888-22-5.28l-59.792,36.688c-7.536,4.624-9.888,14.464-5.28,22L417.344,473.52
	C432.096,497.568,463.536,505.104,487.584,490.368z"/>
<rect x="220.711" y="58.754" transform="matrix(0.8525 -0.5228 0.5228 0.8525 -32.296 162.5139)" style="fill:#5B5F63;" width="102.148" height="159.446"/>
<path style="fill:#BAC6D0;" d="M76.624,294.896c24.08,37.152,55.856,64.976,91.984,86.32l101.328-148.064l-83.344-135.92
	L11.408,120.064C29.408,180.672,40.864,239.728,76.624,294.896z"/>
<path style="fill:#DAE5EF;" d="M0,121.552l31.472-4.096c11.92,81.648,82.752,197.136,150.128,244.784l-17.92,26.192
	C89.024,344.56,5.264,207.968,0,121.552z"/>
<g>
</g>
<g>
</g>
<g>
</g>
<g>
</g>
<g>
</g>
<g>
</g>
<g>
</g>
<g>
</g>
<g>
</g>
<g>
</g>
<g>
</g>
<g>
</g>
<g>
</g>
<g>
</g>
<g>
</g>
</svg>
