<?xml version="1.0" encoding="iso-8859-1"?>
<!-- Generator: Adobe Illustrator 19.0.0, SVG Export Plug-In . SVG Version: 6.00 Build 0)  -->
<svg xmlns="http://www.w3.org/2000/svg" xmlns:xlink="http://www.w3.org/1999/xlink" version="1.1" id="Capa_1" x="0px" y="0px" viewBox="0 0 415.333 415.333" style="enable-background:new 0 0 415.333 415.333;" xml:space="preserve">
<path style="fill:#DC8744;" d="M399.707,102.465l-339.5,266.8c-10.2,8.2-25.1,6.1-32.8-4.1l-15.4-19.5c-8.1-10.2-6-25,4.2-32.7  l339.5-266.8c10.2-8.2,25.1-6.1,32.8,4.1l15.4,19.5C412.007,79.465,409.907,94.265,399.707,102.465z"/>
<path style="fill:#44C4A1;" d="M74.307,348.065l-8.6-2.6l17.4-57.9c4.7-14.8,17.6-24.6,32.8-25.2l33.3-1  c11.8-0.4,21.4-9.6,22.3-21.4l1-13.8c0.6-7.6,4.4-14.6,10.4-19.2c6-4.5,13.7-6.3,21-4.8l12.8,2.6c10.4,2.1,20.9-4.7,23.4-15.1  l5.1-22.5c1.8-8,7-14.6,14.3-18.1c7.1-3.4,15.3-3.3,22.3,0.2l0.7,0.3l0.5,0.5c3.8,1.7,7.9,1.6,11.8-0.3c4.2-2,7.3-6,8.3-10.7  l3.1-18.3c1.4-8.3,6.3-15.7,13.5-20.1c7.1-4.5,15.9-5.7,23.9-3.4l30.6,8.2l-2.3,8.7l-30.7-8.2c-5.7-1.6-11.8-0.8-16.8,2.4  c-5,3.2-8.4,8.1-9.4,14l-3.1,18.6c-1.5,7.4-6.5,13.7-13.2,17c-6.5,3.2-13.9,3.1-20.3-0.1l-0.7-0.3l-0.5-0.5c-4.4-2-9.4-1.9-13.8,0.2  c-4.8,2.3-8.2,6.6-9.4,11.9l-5.1,22.5c-3.6,15.1-18.8,24.9-33.9,21.8l-12.8-2.6c-4.8-1-9.9,0.2-13.8,3.2c-4.1,3.1-6.5,7.6-6.9,12.7  l-1,13.8c-1.2,16.4-14.5,29.2-31,29.8l-33.3,1c-11.4,0.4-21,7.9-24.5,18.9L74.307,348.065z"/>
<path style="fill:#FCD462;" d="M280.407,27.765l-264.2,207.3c-17.4,13.9-20.5,39-6.7,56.4l12.8,16.4l327.2-257l-12.8-16.4  C322.907,16.965,297.807,13.965,280.407,27.765z"/>
<path style="fill:#F6C358;" d="M22.907,307.865L22.907,307.865c-26.1-27.6-34.3-50.7-1-76.8l127-99.3l37.9,48.1"/>
<path style="fill:#FCD462;" d="M400.207,179.865l-264.2,207.3c-17.4,13.8-42.5,10.8-56.3-6.7l-12.8-16.4l327.2-257l12.8,16.4  C420.207,140.865,417.607,166.465,400.207,179.865z"/>
<path style="fill:#F6C358;" d="M66.907,364.165L66.907,364.165c23,35.3,50.2,42.5,77.8,16.4l123.4-96.8l-37.9-48.1"/>
<g>
</g>
<g>
</g>
<g>
</g>
<g>
</g>
<g>
</g>
<g>
</g>
<g>
</g>
<g>
</g>
<g>
</g>
<g>
</g>
<g>
</g>
<g>
</g>
<g>
</g>
<g>
</g>
<g>
</g>
</svg>
