<svg height="512" viewBox="0 0 48 58" width="512" xmlns="http://www.w3.org/2000/svg"><g id="Page-1" fill="none" fill-rule="evenodd"><g id="126---Image-Files" fill-rule="nonzero"><path id="Shape" d="m44 4c2.209139 0 4 1.790861 4 4v46c0 2.209139-1.790861 4-4 4h-36c-2.209139 0-4-1.790861-4-4z" fill="#90bae1"/><path id="Shape" d="m13 0h27c2.209139 0 4 1.790861 4 4v46c0 2.209139-1.790861 4-4 4h-36c-2.209139 0-4-1.790861-4-4v-37z" fill="#b0d3f0"/><path id="Shape" d="m34 5h-6c-.5522847 0-1-.44771525-1-1s.4477153-1 1-1h6c.5522847 0 1 .44771525 1 1s-.4477153 1-1 1z" fill="#ecf0f1"/><path id="Shape" d="m40 5h-2c-.5522847 0-1-.44771525-1-1s.4477153-1 1-1h2c.5522847 0 1 .44771525 1 1s-.4477153 1-1 1z" fill="#ecf0f1"/><path id="Shape" d="m13 0v9c0 2.209139-1.790861 4-4 4h-9z" fill="#90bae1"/><g fill="#2980ba"><path id="Shape" d="m6 50h-1c-.55228475 0-1-.4477153-1-1s.44771525-1 1-1h1c.55228475 0 1 .4477153 1 1s-.44771525 1-1 1z"/><path id="Shape" d="m39 50h-9c-.5522847 0-1-.4477153-1-1s.4477153-1 1-1h9c.5522847 0 1 .4477153 1 1s-.4477153 1-1 1z"/><path id="Shape" d="m25 50h-15c-.55228475 0-1-.4477153-1-1s.44771525-1 1-1h15c.5522847 0 1 .4477153 1 1s-.4477153 1-1 1z"/></g><rect id="Rectangle-path" fill="#2fa8cc" height="24" rx="4" width="30" x="7" y="18"/><circle id="Oval" cx="25.5" cy="24.5" fill="#f0c419" r="2.5"/><path id="Shape" d="m37 29v9c0 2.209139-1.790861 4-4 4h-6.83c-.032648-2.5987786-.9817596-5.1025916-2.68-7.07 3-3.29 7.89-5.55 13.51-5.93z" fill="#26b99a"/><path id="Shape" d="m26.17 42h-15.17c-2.209139 0-4-1.790861-4-4v-9.58c.28-.01.55-.02.83-.02 4.9878107-.1095751 9.8575985 1.524297 13.77 4.62.6889854.5754635 1.3218207 1.2149955 1.89 1.91 1.6982404 1.9674084 2.647352 4.4712214 2.68 7.07z" fill="#65ddb9"/></g></g></svg>