<?xml version="1.0" encoding="iso-8859-1"?>
<!-- Generator: Adobe Illustrator 19.0.0, SVG Export Plug-In . SVG Version: 6.00 Build 0)  -->
<svg version="1.1" id="Capa_1" xmlns="http://www.w3.org/2000/svg" xmlns:xlink="http://www.w3.org/1999/xlink" x="0px" y="0px"
	 viewBox="0 0 512 512" style="enable-background:new 0 0 512 512;" xml:space="preserve">
<path style="fill:#F3F3F3;" d="M502.517,229.248c0,121.376-98.4,219.776-219.776,219.776s-219.765-98.4-219.765-219.776
	S161.365,9.483,282.741,9.483S502.517,107.872,502.517,229.248"/>
<path style="fill:#CED6E0;" d="M412.491,51.904c26.656,36.352,42.421,81.195,42.421,129.749
	c0,121.376-98.379,219.776-219.765,219.776c-48.544,0-93.387-15.776-129.76-42.421c40,54.549,104.523,90.005,177.355,90.005
	c121.376,0,219.776-98.4,219.776-219.776C502.517,156.416,467.061,91.893,412.491,51.904"/>
<path style="fill:#55C0EB;" d="M282.741,0C156.331,0,53.483,102.837,53.483,229.237c0,126.421,102.848,229.259,229.259,229.259
	S512,355.659,512,229.237C512,102.837,409.163,0,282.741,0 M72.704,238.731h68.64c0.864,33.899,6.283,65.888,15.307,94.453h-56.608
	C84,305.088,74.219,272.981,72.704,238.731 M292.224,106.357V19.659c36.96,4.875,69.355,37.941,89.899,86.699H292.224z
	 M389.248,125.323c9.355,28.096,15.061,60.213,15.936,94.443h-112.96v-94.443L389.248,125.323L389.248,125.323z M273.269,19.659
	v86.699h-89.899C203.893,57.6,236.309,24.533,273.269,19.659 M273.269,125.323v94.443H160.288
	c0.896-34.24,6.603-66.357,15.957-94.443L273.269,125.323L273.269,125.323z M141.333,219.776H72.704
	c1.525-34.24,11.307-66.357,27.339-94.443h56.597C147.616,153.888,142.208,185.877,141.333,219.776 M160.288,238.731h112.981v94.453
	h-97.024C166.891,305.088,161.184,272.981,160.288,238.731 M273.269,352.149v86.709c-36.96-4.875-69.355-37.952-89.899-86.709
	H273.269z M292.224,438.859v-86.709h89.899C361.579,400.907,329.184,433.984,292.224,438.859 M292.224,333.184v-94.453h112.96
	c-0.875,34.251-6.581,66.357-15.936,94.453H292.224z M424.139,238.731h68.651c-1.525,34.251-11.296,66.357-27.339,94.453h-56.597
	C417.856,304.619,423.285,272.629,424.139,238.731 M424.139,219.776c-0.853-33.899-6.283-65.888-15.296-94.443h56.597
	c16.053,28.096,25.824,60.213,27.339,94.443H424.139z M453.227,106.357h-51.083c-12.085-30.677-28.523-56.405-47.936-74.88
	C394.272,46.005,428.683,72.384,453.227,106.357 M211.275,31.477c-19.403,18.464-35.861,44.203-47.925,74.88h-51.083
	C136.811,72.384,171.211,46.005,211.275,31.477 M112.267,352.149h51.083c12.085,30.688,28.523,56.416,47.925,74.88
	C171.211,412.501,136.811,386.101,112.267,352.149 M354.208,427.019c19.392-18.453,35.851-44.192,47.936-74.88h51.083
	C428.683,386.112,394.261,412.512,354.208,427.019"/>
<path style="fill:#FFD15C;" d="M221.365,269.291H21.333C9.557,269.291,0,278.837,0,290.624v200.043C0,502.443,9.557,512,21.333,512
	h200.043c11.787,0,21.333-9.557,21.333-21.333V290.624C242.699,278.837,233.163,269.291,221.365,269.291"/>
<rect x="93.088" y="269.333" style="fill:#415A6B;" width="56.523" height="63.339"/>
<g>
</g>
<g>
</g>
<g>
</g>
<g>
</g>
<g>
</g>
<g>
</g>
<g>
</g>
<g>
</g>
<g>
</g>
<g>
</g>
<g>
</g>
<g>
</g>
<g>
</g>
<g>
</g>
<g>
</g>
</svg>
