<?xml version="1.0" encoding="iso-8859-1"?>
<!-- Generator: Adobe Illustrator 19.0.0, SVG Export Plug-In . SVG Version: 6.00 Build 0)  -->
<svg version="1.1" id="Capa_1" xmlns="http://www.w3.org/2000/svg" xmlns:xlink="http://www.w3.org/1999/xlink" x="0px" y="0px"
	 viewBox="0 0 511.2 511.2" style="enable-background:new 0 0 511.2 511.2;" xml:space="preserve">
<polygon style="fill:#F3F3F3;" points="456.8,276.533 456.8,511.2 53.6,511.2 53.6,276.533 255.2,74.933 "/>
<rect x="383.2" y="60" style="fill:#F05540;" width="57.6" height="118.4"/>
<g>
	<path style="fill:#F3705A;" d="M501.6,232.8l-224-224c-11.733-11.733-32-11.733-43.733,0L8.8,232.8
		c-11.733,11.733-11.733,32,0,43.733s32,11.733,43.733,0L255.2,73.867l202.667,202.667c11.733,11.733,32,11.733,43.733,0l0,0
		C514.4,264.8,514.4,245.6,501.6,232.8z"/>
	<rect x="367.2" y="29.067" style="fill:#F3705A;" width="90.667" height="49.067"/>
</g>
<path style="fill:#4EC0AA;" d="M384.267,457.867H126.133c-11.733,0-20.267-9.6-20.267-20.267V302.133
	c0-11.733,9.6-20.267,20.267-20.267h259.2c11.733,0,20.267,9.6,20.267,20.267V437.6C404.533,448.267,396,457.867,384.267,457.867z"
	/>
<path style="fill:#FFFFFF;" d="M126.133,394.933v-52.267c23.467,0,41.6-19.2,41.6-41.6h174.933c0,23.467,19.2,41.6,41.6,41.6v52.267
	c-23.467,0-41.6,19.2-41.6,41.6H167.733C167.733,414.133,148.533,394.933,126.133,394.933z"/>
<g>
	<ellipse style="fill:#4EC0AA;" cx="255.2" cy="369.333" rx="39.467" ry="46.933"/>
	<circle style="fill:#4EC0AA;" cx="345.867" cy="369.333" r="11.733"/>
	<circle style="fill:#4EC0AA;" cx="164.533" cy="369.333" r="11.733"/>
</g>
<g>
</g>
<g>
</g>
<g>
</g>
<g>
</g>
<g>
</g>
<g>
</g>
<g>
</g>
<g>
</g>
<g>
</g>
<g>
</g>
<g>
</g>
<g>
</g>
<g>
</g>
<g>
</g>
<g>
</g>
</svg>
