<svg height="512" viewBox="0 0 48 58" width="512" xmlns="http://www.w3.org/2000/svg"><g id="Page-1" fill="none" fill-rule="evenodd"><g id="128---Graph-File" fill-rule="nonzero"><path id="Shape" d="m44 4c2.209139 0 4 1.790861 4 4v46c0 2.209139-1.790861 4-4 4h-36c-2.209139 0-4-1.790861-4-4z" fill="#90bae1"/><path id="Shape" d="m13 0h27c2.209139 0 4 1.790861 4 4v46c0 2.209139-1.790861 4-4 4h-36c-2.209139 0-4-1.790861-4-4v-37z" fill="#b0d3f0"/><path id="Shape" d="m34 5h-6c-.5522847 0-1-.44771525-1-1s.4477153-1 1-1h6c.5522847 0 1 .44771525 1 1s-.4477153 1-1 1z" fill="#ecf0f1"/><path id="Shape" d="m40 5h-2c-.5522847 0-1-.44771525-1-1s.4477153-1 1-1h2c.5522847 0 1 .44771525 1 1s-.4477153 1-1 1z" fill="#ecf0f1"/><path id="Shape" d="m13 0v9c0 2.209139-1.790861 4-4 4h-9z" fill="#90bae1"/><path id="Shape" d="m33 24c.0052842 2.498108-.8452503 4.9226608-2.41 6.87l-8.59-6.87 9.84-4.92c.7643967 1.5273373 1.1616077 3.2120601 1.16 4.92z" fill="#3b97d3"/><path id="Shape" d="m30.59 30.87c-2.0171705 2.5239205-5.0419614 4.033379-8.2715507 4.1277439-3.2295893.0943648-6.3373539-1.2359075-8.4984493-3.6377439l8.18-7.36z" fill="#955ba5"/><path id="Shape" d="m22 12.9999988v11.0000012l-8.18 7.36c-2.9073794-3.229318-3.6412655-7.8675131-1.8728755-11.8366624 1.7683901-3.9691493 5.7076085-6.5253186 10.0528755-6.5233388z" fill="#f0c419"/><path id="Shape" d="m31.84 19.08-9.84 4.92v-11.0000098c4.1682147-.005536 7.98008 2.3497629 9.84 6.0800098z" fill="#ff5364"/><g fill="#2980ba"><path id="Shape" d="m6 42h-1c-.55228475 0-1-.4477153-1-1s.44771525-1 1-1h1c.55228475 0 1 .4477153 1 1s-.44771525 1-1 1z"/><path id="Shape" d="m19 42h-9c-.55228475 0-1-.4477153-1-1s.44771525-1 1-1h9c.5522847 0 1 .4477153 1 1s-.4477153 1-1 1z"/><path id="Shape" d="m39 42h-15c-.5522847 0-1-.4477153-1-1s.4477153-1 1-1h15c.5522847 0 1 .4477153 1 1s-.4477153 1-1 1z"/><path id="Shape" d="m6 47h-1c-.55228475 0-1-.4477153-1-1s.44771525-1 1-1h1c.55228475 0 1 .4477153 1 1s-.44771525 1-1 1z"/><path id="Shape" d="m39 47h-9c-.5522847 0-1-.4477153-1-1s.4477153-1 1-1h9c.5522847 0 1 .4477153 1 1s-.4477153 1-1 1z"/><path id="Shape" d="m25 47h-15c-.55228475 0-1-.4477153-1-1s.44771525-1 1-1h15c.5522847 0 1 .4477153 1 1s-.4477153 1-1 1z"/></g></g></g></svg>