<?xml version="1.0" encoding="iso-8859-1"?>
<!-- Generator: Adobe Illustrator 19.0.0, SVG Export Plug-In . SVG Version: 6.00 Build 0)  -->
<svg version="1.1" id="Capa_1" xmlns="http://www.w3.org/2000/svg" xmlns:xlink="http://www.w3.org/1999/xlink" x="0px" y="0px"
	 viewBox="0 0 468.293 468.293" style="enable-background:new 0 0 468.293 468.293;" xml:space="preserve">
<path style="fill:#E56353;" d="M292.153,468.293H90.554c-20.69,0-37.463-16.773-37.463-37.463V108.794h276.526v322.036
	C329.616,451.52,312.843,468.293,292.153,468.293z"/>
<path style="fill:#CE412D;" d="M398.241,167.631h-68.624v22.614h51.663c6.245,0,11.307,5.063,11.307,11.307v95.015
	c0,6.245-5.063,11.307-11.307,11.307h-51.663v22.615h68.624c9.367,0,16.961-7.594,16.961-16.961V184.592
	C415.202,175.225,407.608,167.631,398.241,167.631z"/>
<rect x="125.89" y="108.794" style="fill:#D5D6DB;" width="16.958" height="113.077"/>
<g>
	<path style="fill:#CE412D;" d="M163.166,313.955H105.57c-6.897,0-12.488-5.591-12.488-12.488v-67.11
		c0-6.897,5.591-12.488,12.488-12.488h57.596c6.897,0,12.488,5.591,12.488,12.488v67.11
		C175.654,308.364,170.063,313.955,163.166,313.955z"/>
	<path style="fill:#CE412D;" d="M190.718,86.443c-1.447,0-2.893-0.552-3.997-1.656c-4.301-4.296-6.67-10.01-6.67-16.089
		c0-6.082,2.369-11.796,6.67-16.092l1.298-1.295c4.456-4.458,4.456-11.722-0.006-16.186l-1.286-1.284
		c-4.307-4.304-6.675-10.018-6.675-16.097s2.369-11.793,6.67-16.089c2.208-2.208,5.786-2.208,7.995,0
		c2.208,2.208,2.208,5.789,0,7.995c-2.164,2.164-3.357,5.038-3.357,8.094c0,3.059,1.193,5.933,3.357,8.097l1.286,1.284
		c8.873,8.878,8.873,23.313,0.006,32.186l-1.297,1.295c-2.159,2.159-3.351,5.033-3.351,8.091c0,3.056,1.193,5.93,3.357,8.094
		c2.208,2.206,2.208,5.786,0,7.995C193.611,85.891,192.164,86.443,190.718,86.443z"/>
	<path style="fill:#CE412D;" d="M223.439,86.443c-1.037,0-2.074-0.396-2.865-1.187c-3.083-3.079-4.781-7.175-4.781-11.532
		c0-4.359,1.698-8.455,4.781-11.534l0.93-0.928c3.194-3.196,3.194-8.402-0.004-11.601l-0.922-0.92
		c-3.087-3.085-4.785-7.181-4.785-11.538s1.698-8.453,4.781-11.532c1.583-1.583,4.147-1.583,5.73,0c1.583,1.583,1.583,4.149,0,5.73
		c-1.551,1.551-2.406,3.611-2.406,5.802c0,2.192,0.855,4.252,2.406,5.804l0.922,0.92c6.36,6.364,6.36,16.711,0.004,23.07
		l-0.93,0.928c-1.547,1.547-2.402,3.607-2.402,5.8c0,2.19,0.855,4.25,2.406,5.802c1.583,1.581,1.583,4.147,0,5.73
		C225.513,86.048,224.476,86.443,223.439,86.443z"/>
	<path style="fill:#CE412D;" d="M158.356,86.443c-1.037,0-2.074-0.396-2.865-1.187c-3.083-3.079-4.781-7.175-4.781-11.532
		c0-4.359,1.698-8.455,4.781-11.534l0.93-0.928c3.194-3.196,3.194-8.402-0.004-11.601l-0.922-0.92
		c-3.087-3.085-4.785-7.181-4.785-11.538s1.698-8.453,4.781-11.532c1.583-1.583,4.147-1.583,5.73,0c1.583,1.583,1.583,4.149,0,5.73
		c-1.551,1.551-2.406,3.611-2.406,5.802c0,2.192,0.855,4.252,2.406,5.804l0.922,0.92c6.36,6.364,6.36,16.711,0.004,23.07
		l-0.93,0.928c-1.547,1.547-2.402,3.607-2.402,5.8c0,2.19,0.855,4.25,2.406,5.802c1.583,1.581,1.583,4.147,0,5.73
		C160.43,86.048,159.393,86.443,158.356,86.443z"/>
</g>
<g>
</g>
<g>
</g>
<g>
</g>
<g>
</g>
<g>
</g>
<g>
</g>
<g>
</g>
<g>
</g>
<g>
</g>
<g>
</g>
<g>
</g>
<g>
</g>
<g>
</g>
<g>
</g>
<g>
</g>
</svg>
