<?xml version="1.0" encoding="iso-8859-1"?>
<!-- Generator: Adobe Illustrator 19.0.0, SVG Export Plug-In . SVG Version: 6.00 Build 0)  -->
<svg version="1.1" id="Capa_1" xmlns="http://www.w3.org/2000/svg" xmlns:xlink="http://www.w3.org/1999/xlink" x="0px" y="0px"
	 viewBox="0 0 512 512" style="enable-background:new 0 0 512 512;" xml:space="preserve">
<rect x="197.333" y="369.067" style="fill:#344A5E;" width="116.267" height="93.867"/>
<g>
	<path style="fill:#415A6B;" d="M485.333,407.467H26.667C11.733,407.467,0,395.733,0,380.8V26.667C0,11.733,11.733,0,26.667,0
		h458.667C500.267,0,512,11.733,512,26.667V380.8C512,395.733,500.267,407.467,485.333,407.467z"/>
	<path style="fill:#415A6B;" d="M0,328.533V380.8c0,14.933,11.733,26.667,26.667,26.667h458.667
		c14.933,0,26.667-11.733,26.667-26.667v-52.267L0,328.533L0,328.533z"/>
</g>
<g>
	<rect x="42.667" y="42.667" style="fill:#FFFFFF;" width="426.667" height="285.867"/>
	<rect x="42.667" y="112" style="fill:#FFFFFF;" width="426.667" height="216.533"/>
</g>
<rect x="42.667" y="42.667" style="fill:#8AD7F8;" width="426.667" height="69.333"/>
<path style="fill:#415A6B;" d="M393.6,512c-24.533-45.867-76.8-77.867-137.6-77.867s-113.067,32-137.6,77.867H393.6z"/>
<g>
	<rect x="288" y="278.4" style="fill:#CED6E0;" width="152.533" height="16"/>
	<rect x="288" y="236.8" style="fill:#CED6E0;" width="152.533" height="16"/>
	<rect x="288" y="196.267" style="fill:#CED6E0;" width="152.533" height="16"/>
</g>
<rect x="98.133" y="192" style="fill:#FFD15C;" width="129.067" height="102.4"/>
<g>
	<polygon style="fill:#F3705A;" points="163.2,129.067 80,199.467 246.4,199.467 	"/>
	<circle style="fill:#F3705A;" cx="413.867" cy="76.8" r="13.867"/>
</g>
<circle style="fill:#FFD15C;" cx="364.8" cy="76.8" r="13.867"/>
<circle style="fill:#F3F3F3;" cx="315.733" cy="76.8" r="13.867"/>
<circle style="fill:#FFFFFF;" cx="256" cy="369.067" r="16"/>
<path style="fill:#415A6B;" d="M182.4,294.4v-29.867c0-10.667-8.533-20.267-20.267-20.267l0,0c-10.667,0-20.267,8.533-20.267,20.267
	V294.4"/>
<g>
</g>
<g>
</g>
<g>
</g>
<g>
</g>
<g>
</g>
<g>
</g>
<g>
</g>
<g>
</g>
<g>
</g>
<g>
</g>
<g>
</g>
<g>
</g>
<g>
</g>
<g>
</g>
<g>
</g>
</svg>
