<svg height="512" viewBox="0 0 58 58" width="512" xmlns="http://www.w3.org/2000/svg"><g id="Page-1" fill="none" fill-rule="evenodd"><g id="129---Trash-File" fill-rule="nonzero"><path id="Shape" d="m44 4c2.209139 0 4 1.790861 4 4v46c0 2.209139-1.790861 4-4 4h-36c-2.209139 0-4-1.790861-4-4z" fill="#90bae1"/><path id="Shape" d="m13 0h27c2.209139 0 4 1.790861 4 4v46c0 2.209139-1.790861 4-4 4h-36c-2.209139 0-4-1.790861-4-4v-37z" fill="#b0d3f0"/><path id="Shape" d="m34 5h-6c-.5522847 0-1-.44771525-1-1s.4477153-1 1-1h6c.5522847 0 1 .44771525 1 1s-.4477153 1-1 1z" fill="#ecf0f1"/><path id="Shape" d="m40 5h-2c-.5522847 0-1-.44771525-1-1s.4477153-1 1-1h2c.5522847 0 1 .44771525 1 1s-.4477153 1-1 1z" fill="#ecf0f1"/><path id="Shape" d="m13 0v9c0 2.209139-1.790861 4-4 4h-9z" fill="#90bae1"/><path id="Shape" d="m50.21 58h-20.42c-1.0199043.0011462-1.8773011-.7653407-1.99-1.779l-3.8-32.221 16-3 16 3-3.8 32.221c-.1126989 1.0136593-.9700957 1.7801462-1.99 1.779z" fill="#7f8c8d"/><path id="Shape" d="m32 14h16c1.1045695 0 2 .8954305 2 2v4h-20v-4c0-1.1045695.8954305-2 2-2z" fill="#7f8c8d"/><g fill="#547580"><path id="Shape" d="m40 55c-.5522847 0-1-.4477153-1-1v-26c0-.5522847.4477153-1 1-1s1 .4477153 1 1v26c0 .5522847-.4477153 1-1 1z"/><path id="Shape" d="m34 55c-.5076124-.0007517-.9341327-.3816962-.992-.886l-3-26c-.0450023-.5383751.3457429-1.0151548.8824702-1.0767731.5367272-.0616182 1.0253545.3142064 1.1035298.8487731l3 26c.0626862.5483403-.3307198 1.0437902-.879 1.107-.0381414.0048203-.0765556.0071585-.115.007z"/><path id="Shape" d="m46 55c-.0384435.0001252-.0768555-.0022129-.115-.007-.5482802-.0632098-.9416862-.5586597-.879-1.107l3-26c.0303738-.3633702.256125-.6814032.5891311-.8299541s.7204721-.1040684 1.0111497.1160836c.2906777.2201521.4384827.5810708.3857192.9418705l-3 26c-.0578673.5043038-.4843876.8852483-.992.886z"/></g><rect id="Rectangle-path" fill="#95a5a5" height="5" rx="2" width="36" x="22" y="19"/></g></g></svg>