<?xml version="1.0" encoding="iso-8859-1"?>
<!-- Generator: Adobe Illustrator 19.0.0, SVG Export Plug-In . SVG Version: 6.00 Build 0)  -->
<svg version="1.1" id="Capa_1" xmlns="http://www.w3.org/2000/svg" xmlns:xlink="http://www.w3.org/1999/xlink" x="0px" y="0px"
	 viewBox="0 0 511.632 511.632" style="enable-background:new 0 0 511.632 511.632;" xml:space="preserve">
<path style="fill:#E9EFF4;" d="M350.584,511.616H161.048c-26.512,0-48-21.488-48-48V93.504c0-26.512,21.488-48,48-48h189.536
	c26.512,0,48,21.488,48,48v370.128C398.584,490.128,377.096,511.616,350.584,511.616z"/>
<g>
	<path style="fill:#5A5F63;" d="M398.584,136.384V95.216c0-27.456-22.256-49.728-49.728-49.728h-186.08
		c-27.456,0-49.728,22.256-49.728,49.728v41.168L398.584,136.384L398.584,136.384z"/>
	<path style="fill:#5A5F63;" d="M113.048,411.136v50.768c0,27.456,22.256,49.728,49.728,49.728h186.08
		c27.456,0,49.728-22.256,49.728-49.728v-50.768H113.048z"/>
</g>
<path style="fill:#DEE4E9;" d="M325.064,45.504H186.568V16c0-8.832,7.168-16,16-16h106.496c8.832,0,16,7.168,16,16V45.504z"/>
<polygon style="fill:#F4C534;" points="311.272,259.136 267.624,259.136 290.056,188.912 200.36,297.984 243.096,297.984 
	221.576,368.208 "/>
<g>
</g>
<g>
</g>
<g>
</g>
<g>
</g>
<g>
</g>
<g>
</g>
<g>
</g>
<g>
</g>
<g>
</g>
<g>
</g>
<g>
</g>
<g>
</g>
<g>
</g>
<g>
</g>
<g>
</g>
</svg>
