<?xml version="1.0" encoding="iso-8859-1"?>
<!-- Generator: Adobe Illustrator 19.0.0, SVG Export Plug-In . SVG Version: 6.00 Build 0)  -->
<svg version="1.1" id="Capa_1" xmlns="http://www.w3.org/2000/svg" xmlns:xlink="http://www.w3.org/1999/xlink" x="0px" y="0px"
	 viewBox="0 0 468.293 468.293" style="enable-background:new 0 0 468.293 468.293;" xml:space="preserve">
<path style="fill:#E1E6E9;" d="M402.732,12.488v443.317c0,6.897-5.591,12.488-12.488,12.488H78.049
	c-6.897,0-12.488-5.591-12.488-12.488V89.35L154.911,0h235.333C397.141,0,402.732,5.591,402.732,12.488z"/>
<polygon style="fill:#D5D6DB;" points="154.911,0 154.911,89.35 65.561,89.35 "/>
<g>
	<polygon style="fill:#E56353;" points="244.819,351.536 230.041,357.193 258.19,433.929 273.016,414.447 300.235,422.615 
		259.598,345.879 	"/>
	<polygon style="fill:#E56353;" points="223.474,351.536 238.252,357.193 210.103,433.929 195.277,414.447 168.058,422.615 
		208.695,345.879 	"/>
</g>
<path style="fill:#27A2DB;" d="M243.234,222.518l4.343,6.464c2.942,4.379,8.589,6.038,13.432,3.944l7.148-3.09
	c7.14-3.087,15.132,2.049,15.29,9.826l0.159,7.786c0.107,5.275,3.962,9.723,9.167,10.58l7.684,1.265
	c7.676,1.264,11.622,9.905,7.55,16.533l-4.076,6.635c-2.761,4.496-1.924,10.321,1.992,13.857l5.78,5.218
	c5.774,5.213,4.422,14.616-2.587,17.991l-7.016,3.378c-4.754,2.289-7.198,7.643-5.815,12.734l2.041,7.515
	c2.039,7.507-4.182,14.686-11.902,13.736l-7.729-0.951c-5.236-0.644-10.188,2.538-11.777,7.569l-2.346,7.426
	c-2.343,7.418-11.458,10.094-17.439,5.121l-5.988-4.979c-4.057-3.373-9.942-3.373-13.999,0l-5.988,4.979
	c-5.981,4.973-15.096,2.297-17.439-5.121l-2.346-7.426c-1.589-5.031-6.54-8.213-11.777-7.569l-7.729,0.951
	c-7.721,0.95-13.942-6.229-11.902-13.736l2.041-7.515c1.383-5.091-1.062-10.445-5.815-12.734l-7.016-3.378
	c-7.009-3.375-8.361-12.778-2.587-17.991l5.78-5.218c3.916-3.535,4.754-9.361,1.992-13.857l-4.076-6.635
	c-4.072-6.628-0.125-15.269,7.55-16.533l7.684-1.265c5.206-0.857,9.06-5.305,9.168-10.58l0.159-7.786
	c0.158-7.777,8.15-12.913,15.29-9.826l7.148,3.09c4.843,2.094,10.49,0.435,13.432-3.944l4.343-6.464
	C229.397,216.061,238.896,216.061,243.234,222.518z"/>
<circle style="fill:#FCD462;" cx="234.146" cy="298.146" r="54.74"/>
<g>
	<rect x="185.132" y="38.431" style="fill:#D5D6DB;" width="187.317" height="12.488"/>
	<rect x="185.132" y="82.563" style="fill:#D5D6DB;" width="187.317" height="12.488"/>
	<rect x="95.813" y="126.695" style="fill:#D5D6DB;" width="276.667" height="12.488"/>
	<rect x="95.813" y="170.827" style="fill:#D5D6DB;" width="276.667" height="12.488"/>
</g>
<g>
</g>
<g>
</g>
<g>
</g>
<g>
</g>
<g>
</g>
<g>
</g>
<g>
</g>
<g>
</g>
<g>
</g>
<g>
</g>
<g>
</g>
<g>
</g>
<g>
</g>
<g>
</g>
<g>
</g>
</svg>
