<svg height="512" viewBox="0 0 48 58" width="512" xmlns="http://www.w3.org/2000/svg"><g id="Page-1" fill="none" fill-rule="evenodd"><g id="132---Paste-Files" fill-rule="nonzero"><path id="Shape" d="m44 4c2.209139 0 4 1.790861 4 4v46c0 2.209139-1.790861 4-4 4h-36c-2.209139 0-4-1.790861-4-4z" fill="#90bae1"/><path id="Shape" d="m13 0h27c2.209139 0 4 1.790861 4 4v46c0 2.209139-1.790861 4-4 4h-36c-2.209139 0-4-1.790861-4-4v-37z" fill="#b0d3f0"/><path id="Shape" d="m34 5h-6c-.5522847 0-1-.44771525-1-1s.4477153-1 1-1h6c.5522847 0 1 .44771525 1 1s-.4477153 1-1 1z" fill="#ecf0f1"/><path id="Shape" d="m40 5h-2c-.5522847 0-1-.44771525-1-1s.4477153-1 1-1h2c.5522847 0 1 .44771525 1 1s-.4477153 1-1 1z" fill="#ecf0f1"/><path id="Shape" d="m13 0v9c0 2.209139-1.790861 4-4 4h-9z" fill="#90bae1"/><path id="Shape" d="m25 26h-6l-1.293-9.05c-.1776835-1.2444974.1933661-2.5048623 1.0170196-3.4545676.8236534-.9497053 2.0188626-1.495299 3.2759804-1.4954324 1.2571178.0001334 2.452327.5457271 3.2759804 1.4954324.8236535.9497053 1.1947031 2.2100702 1.0170196 3.4545676z" fill="#f29c1f"/><path id="Shape" d="m15 26h14c1.1045695 0 2 .8954305 2 2v3h-18v-3c0-1.1045695.8954305-2 2-2z" fill="#f0c419"/><path id="Shape" d="m32 45h-20c-.3536572.0009667-.6815233-.1849387-.8622694-.4889209-.1807462-.3039822-.187488-.6808263-.0177306-.9910791 2.68-4.55 1.88-12.52 1.88-12.52h18s-.8 7.97 1.88 12.52c.1697574.3102528.1630156.6870969-.0177306.9910791-.1807461.3039822-.5086122.4898876-.8622694.4889209z" fill="#f9eab0"/><g fill="#fac176"><path id="Shape" d="m19 42v3h-2v-3c0-.5522847.4477153-1 1-1s1 .4477153 1 1z"/><path id="Shape" d="m23 36v9h-2v-9c0-.5522847.4477153-1 1-1s1 .4477153 1 1z"/></g></g></g></svg>