<?xml version="1.0" encoding="iso-8859-1"?>
<!-- Generator: Adobe Illustrator 19.0.0, SVG Export Plug-In . SVG Version: 6.00 Build 0)  -->
<svg version="1.1" id="Capa_1" xmlns="http://www.w3.org/2000/svg" xmlns:xlink="http://www.w3.org/1999/xlink" x="0px" y="0px"
	 viewBox="0 0 508.729 508.729" style="enable-background:new 0 0 508.729 508.729;" xml:space="preserve">
<path style="fill:#428DC3;" d="M507.504,260.539L448.8,160.827l-105.728,61.504l66.144,116.192h37.648
	c14.768,0,29.04-5.008,40.336-14.144c2.432-2.448,5.152-5.12,8.256-8.048l1.04-1.584c10.08-15.408,14.208-34.016,11.344-52.208
	C507.664,261.259,507.504,260.539,507.504,260.539z"/>
<path style="fill:#6DAFDF;" d="M495.472,316.347l-14.496,22.192l-51.648,89.088c-9.6,16.528-27.248,26.688-46.352,26.688h-60v47.04
	l-57.904-104.928l57.904-104.944v47.04h123.92c1.184,0,2.352-0.064,3.488-0.16c13.52-0.72,26.448-5.568,36.848-14
	c2.32-2.352,4.928-4.88,7.872-7.68c0.048-0.016,0.112-0.064,0.16-0.096C495.344,316.539,495.408,316.427,495.472,316.347z"/>
<path style="fill:#428DC3;" d="M115.168,456.747l115.696-0.512l0.096-122.32l-133.696-1.344l-18.96,32.528
	c-7.44,12.752-10.304,27.616-8.096,41.984c0.896,3.328,1.824,7.024,2.8,11.184l0.848,1.68c8.24,16.464,22.24,29.408,39.392,36.096
	C114.48,456.523,115.168,456.747,115.168,456.747z"/>
<path style="fill:#6DAFDF;" d="M73.008,418.251l-11.872-23.696l-50.96-89.488c-9.456-16.624-9.344-36.976,0.272-53.488l30.208-51.84
	L0,176.043l119.808,2.8l61.52,102.864l-40.64-23.664L78.304,365.099c-0.592,1.024-1.12,2.064-1.616,3.088
	c-6.192,12.032-8.496,25.648-6.448,38.88c0.864,3.2,1.728,6.704,2.672,10.672c0,0.048,0,0.128,0,0.176
	C72.912,418.043,72.976,418.155,73.008,418.251z"/>
<path style="fill:#428DC3;" d="M138.8,27.659L84.256,129.691l107.584,58.224l64.736-116.976l-19.6-32.144
	c-7.68-12.608-19.392-22.192-33.088-27.072c-3.36-0.8-7.04-1.728-11.168-2.864l-1.888-0.064c-18.4-0.576-36.448,5.584-50.48,17.504
	C139.328,27.147,138.8,27.659,138.8,27.659z"/>
<path style="fill:#6DAFDF;" d="M192.704,8.859L219.2,9.675l102.944-2.288c19.104-0.416,36.976,9.36,46.928,25.68l31.248,51.216
	l40.16-24.496l-59.424,104.064l-119.744,5.232l40.16-24.496L236.944,38.795c-0.624-1.008-1.28-1.968-1.952-2.896
	c-7.648-11.168-18.528-19.68-31.136-24.16c-3.216-0.768-6.72-1.664-10.656-2.72c-0.048-0.032-0.112-0.064-0.16-0.08
	C192.944,8.875,192.816,8.875,192.704,8.859z"/>
<g>
</g>
<g>
</g>
<g>
</g>
<g>
</g>
<g>
</g>
<g>
</g>
<g>
</g>
<g>
</g>
<g>
</g>
<g>
</g>
<g>
</g>
<g>
</g>
<g>
</g>
<g>
</g>
<g>
</g>
</svg>
