<?xml version="1.0" encoding="iso-8859-1"?>
<!-- Generator: Adobe Illustrator 19.0.0, SVG Export Plug-In . SVG Version: 6.00 Build 0)  -->
<svg version="1.1" id="Capa_1" xmlns="http://www.w3.org/2000/svg" xmlns:xlink="http://www.w3.org/1999/xlink" x="0px" y="0px"
	 viewBox="0 0 511.36 511.36" style="enable-background:new 0 0 511.36 511.36;" xml:space="preserve">
<path style="fill:#4E99D2;" d="M434.944,332.096c0,99.184-80.432,179.264-179.264,179.264c-99.184,0-179.264-80.096-179.264-179.264
	C76.416,233.264,255.68,0,255.68,0S434.944,233.264,434.944,332.096z"/>
<path style="fill:#6DAFDF;" d="M407.44,320.368c2.176,21.168,4.976,35.6-12.16,75.728c-16.336,27.84-23.68,40.352-63.872,63.888
	c-33.456,14.272-47.168,15.104-75.728,12.16c40.784-8.48,31.52-6.336,69.008-24.528c36.528-24.656,43.728-36.816,58.256-58.208
	C390.72,373.344,397.568,368.224,407.44,320.368z"/>
<path style="fill:#FFFFFF;" d="M350.944,334.976c0,52.592-42.816,95.264-95.264,95.264c-52.592,0-95.264-42.672-95.264-95.264
	c0-52.448,42.672-95.28,95.264-95.28V208.8l65.664,52.448l-65.664,52.448V282.8c-28.736,0-52.16,23.424-52.16,52.16
	s23.424,52.16,52.16,52.16s52.16-23.424,52.16-52.16h43.104V334.976z"/>
<g>
</g>
<g>
</g>
<g>
</g>
<g>
</g>
<g>
</g>
<g>
</g>
<g>
</g>
<g>
</g>
<g>
</g>
<g>
</g>
<g>
</g>
<g>
</g>
<g>
</g>
<g>
</g>
<g>
</g>
</svg>
