<?xml version="1.0" encoding="iso-8859-1"?>
<!-- Generator: Adobe Illustrator 19.0.0, SVG Export Plug-In . SVG Version: 6.00 Build 0)  -->
<svg version="1.1" id="Capa_1" xmlns="http://www.w3.org/2000/svg" xmlns:xlink="http://www.w3.org/1999/xlink" x="0px" y="0px"
	 viewBox="0 0 468.293 468.293" style="enable-background:new 0 0 468.293 468.293;" xml:space="preserve">
<rect x="34.596" y="50.775" style="fill:#E0E5E8;" width="276.355" height="349.296"/>
<g>
	<path style="fill:#647989;" d="M292.256,0H53.337C42.992,0,34.606,8.386,34.606,18.732v32.045h276.382V18.732
		C310.987,8.386,302.601,0,292.256,0z"/>
	<path style="fill:#647989;" d="M310.987,400.07H34.606v49.491c0,10.345,8.386,18.732,18.732,18.732h238.918
		c10.345,0,18.732-8.386,18.732-18.732L310.987,400.07L310.987,400.07z"/>
</g>
<g>
	<circle style="fill:#3B566A;" cx="172.774" cy="434.201" r="21.854"/>
	<path style="fill:#3B566A;" d="M122.845,25.388L122.845,25.388c0-3.448,2.796-6.244,6.244-6.244l87.414,0
		c3.449,0,6.244,2.796,6.244,6.244v0c0,3.448-2.796,6.244-6.244,6.244l-87.414,0C125.641,31.632,122.845,28.837,122.845,25.388z"/>
	<circle style="fill:#3B566A;" cx="109.835" cy="25.388" r="6.244"/>
	<circle style="fill:#3B566A;" cx="235.775" cy="25.388" r="6.244"/>
</g>
<path style="fill:#4EBD9E;" d="M421.209,134.186H200.766c-6.897,0-12.488,5.591-12.488,12.488v145.808
	c0,6.897,5.591,12.488,12.488,12.488h153.845l31.521,23.473c4.119,3.067,9.973,0.128,9.973-5.008V304.97h25.104
	c6.897,0,12.488-5.591,12.488-12.488V146.674C433.697,139.777,428.106,134.186,421.209,134.186z"/>
<path style="fill:#3CA59A;" d="M196.704,303.493V157.685c0-6.896,5.591-12.488,12.488-12.488h220.443
	c1.402,0,2.727,0.284,3.985,0.71c-0.404-6.532-5.777-11.72-12.41-11.72H200.766c-6.897,0-12.488,5.591-12.488,12.488v145.808
	c0,5.495,3.572,10.108,8.503,11.779C196.765,304.002,196.704,303.757,196.704,303.493z"/>
<circle style="fill:#E0E5E8;" cx="235.025" cy="225.424" r="17.72"/>
<path style="fill:#D4D5DB;" d="M245.151,210.892c1.998,2.868,3.186,6.341,3.186,10.101c0,9.786-7.933,17.719-17.719,17.719
	c-3.76,0-7.233-1.189-10.101-3.186c3.202,4.595,8.507,7.616,14.531,7.616c9.786,0,17.719-7.933,17.719-17.719
	C252.767,219.398,249.746,214.093,245.151,210.892z"/>
<circle style="fill:#E0E5E8;" cx="285.663" cy="225.424" r="17.72"/>
<path style="fill:#D4D5DB;" d="M295.777,210.892c1.998,2.868,3.186,6.341,3.186,10.101c0,9.786-7.933,17.719-17.719,17.719
	c-3.76,0-7.233-1.189-10.101-3.186c3.202,4.595,8.507,7.616,14.531,7.616c9.786,0,17.719-7.933,17.719-17.719
	C303.393,219.398,300.372,214.093,295.777,210.892z"/>
<circle style="fill:#E0E5E8;" cx="336.301" cy="225.424" r="17.72"/>
<path style="fill:#D4D5DB;" d="M346.404,210.892c1.998,2.868,3.186,6.341,3.186,10.101c0,9.786-7.933,17.719-17.719,17.719
	c-3.76,0-7.233-1.189-10.101-3.186c3.202,4.595,8.506,7.616,14.531,7.616c9.786,0,17.719-7.933,17.719-17.719
	C354.02,219.398,350.999,214.093,346.404,210.892z"/>
<circle style="fill:#E0E5E8;" cx="386.939" cy="225.424" r="17.72"/>
<path style="fill:#D4D5DB;" d="M397.03,210.892c1.998,2.868,3.186,6.341,3.186,10.101c0,9.786-7.933,17.719-17.719,17.719
	c-3.76,0-7.233-1.189-10.101-3.186c3.202,4.595,8.507,7.616,14.531,7.616c9.786,0,17.719-7.933,17.719-17.719
	C404.646,219.398,401.625,214.093,397.03,210.892z"/>
<g>
</g>
<g>
</g>
<g>
</g>
<g>
</g>
<g>
</g>
<g>
</g>
<g>
</g>
<g>
</g>
<g>
</g>
<g>
</g>
<g>
</g>
<g>
</g>
<g>
</g>
<g>
</g>
<g>
</g>
</svg>
