<?xml version="1.0" encoding="iso-8859-1"?>
<!-- Generator: Adobe Illustrator 19.0.0, SVG Export Plug-In . SVG Version: 6.00 Build 0)  -->
<svg version="1.1" id="Capa_1" xmlns="http://www.w3.org/2000/svg" xmlns:xlink="http://www.w3.org/1999/xlink" x="0px" y="0px"
	 viewBox="0 0 510.768 510.768" style="enable-background:new 0 0 510.768 510.768;" xml:space="preserve">
<path style="fill:#6DAFDF;" d="M387.432,244.64c0,73.056-59.248,132.048-132.048,132.048c-73.056,0-132.048-58.992-132.048-132.048
	C123.336,171.824,255.384,0,255.384,0S387.432,171.824,387.432,244.64z"/>
<path style="fill:#FFFFFF;" d="M355.432,244.64c1.472,16.992,1.088,27.856-8.416,49.712c-10.912,18.48-15.664,26.432-41.92,41.936
	c-16.208,7.04-29.856,10.864-49.712,8.4c31.776-6.064,29.664-8.176,45.664-15.824c16.656-10.496,27.664-21.248,38.56-38.544
	C351.208,266.032,350.136,272.592,355.432,244.64z"/>
<ellipse style="fill:#4D98D2;" cx="255.384" cy="451.376" rx="193.28" ry="59.392"/>
<ellipse style="fill:#5CA3D9;" cx="255.384" cy="451.376" rx="115.44" ry="35.472"/>
<g>
</g>
<g>
</g>
<g>
</g>
<g>
</g>
<g>
</g>
<g>
</g>
<g>
</g>
<g>
</g>
<g>
</g>
<g>
</g>
<g>
</g>
<g>
</g>
<g>
</g>
<g>
</g>
<g>
</g>
</svg>
