<svg height="512" viewBox="0 0 58 54" width="512" xmlns="http://www.w3.org/2000/svg"><g id="Page-1" fill="none" fill-rule="evenodd"><g id="139---Game-Folder" fill-rule="nonzero"><path id="Shape" d="m58 19v29c0 3.3137085-2.6862915 6-6 6h-46c-3.3137085 0-6-2.6862915-6-6v-44c0-2.209139 1.790861-4 4-4h22c2.209139 0 4 1.790861 4 4v2h18c2.209139 0 4 1.790861 4 4v3c3.3116533.0049563 5.9950437 2.6883467 6 6z" fill="#f0c419"/><path id="Rectangle-path" d="m21.64 21h14.72v14h-14.72z" fill="#35495e"/><path id="Shape" d="m7.39 30.6v.01l-3.2 11.31c-.61108695 2.0848337.25434132 4.3201816 2.11 5.45.68127034.4133587 1.46313554.6313123 2.26.63 1.5894535-.0122307 3.0554416-.8591616 3.86-2.23l5.37-8.95z" fill="#35495e"/><path id="Shape" d="m50.61 30.6v.01l3.2 11.31c.6110869 2.0848337-.2543413 4.3201816-2.11 5.45-.6812703.4133587-1.4631355.6313123-2.26.63-1.5894535-.0122307-3.0554416-.8591616-3.86-2.23l-5.37-8.95z" fill="#35495e"/><path id="Shape" d="m52 10v3h-52v-9c0-2.209139 1.790861-4 4-4h22c2.209139 0 4 1.790861 4 4v2h18c2.209139 0 4 1.790861 4 4z" fill="#f29c1f"/><path id="Shape" d="m18 13h-4c-.5522847 0-1-.4477153-1-1s.4477153-1 1-1h4c.5522847 0 1 .4477153 1 1s-.4477153 1-1 1z" fill="#e57e25"/><path id="Shape" d="m52 11v2h-29c-.5522847 0-1-.4477153-1-1s.4477153-1 1-1z" fill="#e57e25"/><circle id="Oval" cx="16" cy="28" fill="#3f5c6c" r="9"/><circle id="Oval" cx="42" cy="28" fill="#3f5c6c" r="9"/><path id="Shape" d="m15 23h2c.5522847 0 1 .4477153 1 1v2l-2 2-2-2v-2c0-.5522847.4477153-1 1-1z" fill="#7f8c8d"/><path id="Shape" d="m15 33h2c.5522847 0 1-.4477153 1-1v-2l-2-2-2 2v2c0 .5522847.4477153 1 1 1z" fill="#7f8c8d"/><g fill="#95a5a5"><path id="Shape" d="m11 29v-2c0-.5522847.4477153-1 1-1h2l2 2-2 2h-2c-.5522847 0-1-.4477153-1-1z"/><path id="Shape" d="m21 29v-2c0-.5522847-.4477153-1-1-1h-2l-2 2 2 2h2c.5522847 0 1-.4477153 1-1z"/><path id="Shape" d="m44 25c-.5522847 0-1-.4477153-1-1s-.4477153-1-1-1-1 .4477153-1 1-.4477153 1-1 1-1-.4477153-1-1c0-1.6568542 1.3431458-3 3-3s3 1.3431458 3 3c0 .5522847-.4477153 1-1 1z"/><path id="Shape" d="m42 35c-1.6568542 0-3-1.3431458-3-3 0-.5522847.4477153-1 1-1s1 .4477153 1 1 .4477153 1 1 1 1-.4477153 1-1 .4477153-1 1-1 1 .4477153 1 1c0 1.6568542-1.3431458 3-3 3z"/><path id="Shape" d="m38 31c-1.6568542 0-3-1.3431458-3-3s1.3431458-3 3-3c.5522847 0 1 .4477153 1 1s-.4477153 1-1 1-1 .4477153-1 1 .4477153 1 1 1 1 .4477153 1 1-.4477153 1-1 1z"/><path id="Shape" d="m46 31c-.5522847 0-1-.4477153-1-1s.4477153-1 1-1 1-.4477153 1-1-.4477153-1-1-1-1-.4477153-1-1 .4477153-1 1-1c1.6568542 0 3 1.3431458 3 3s-1.3431458 3-3 3z"/></g><circle id="Oval" cx="29" cy="26" fill="#2c3e50" r="1"/><circle id="Oval" cx="29" cy="31" fill="#2c3e50" r="1"/></g></g></svg>