<?xml version="1.0" encoding="iso-8859-1"?>
<!-- Generator: Adobe Illustrator 19.0.0, SVG Export Plug-In . SVG Version: 6.00 Build 0)  -->
<svg version="1.1" id="Capa_1" xmlns="http://www.w3.org/2000/svg" xmlns:xlink="http://www.w3.org/1999/xlink" x="0px" y="0px"
	 viewBox="0 0 468.293 468.293" style="enable-background:new 0 0 468.293 468.293;" xml:space="preserve">
<path style="fill:#DA8542;" d="M367.124,468.293H101.169c-6.897,0-12.488-5.591-12.488-12.488V50.997
	c0-6.897,5.591-12.488,12.488-12.488h265.955c6.897,0,12.488,5.591,12.488,12.488v404.808
	C379.612,462.702,374.021,468.293,367.124,468.293z"/>
<rect x="108.494" y="58.349" style="fill:#E0E5E8;" width="251.255" height="390.119"/>
<path style="fill:#4EBD9E;" d="M260.595,26.449c0-2.113-0.806-4.227-2.418-5.839L239.985,2.418c-3.225-3.225-8.453-3.225-11.678,0
	l-18.191,18.191c-1.613,1.612-2.418,3.726-2.418,5.839h-24.127c-7.303,0-13.224,5.921-13.224,13.224v23.985
	c0,3.652,2.96,6.612,6.612,6.612h114.374c3.652,0,6.612-2.96,6.612-6.612V39.673c0-7.303-5.921-13.224-13.224-13.224H260.595z"/>
<circle style="fill:#3B566A;" cx="234.146" cy="24.988" r="10.964"/>
<circle style="fill:#F4C158;" cx="154.786" cy="138.128" r="26.449"/>
<path style="fill:#E56354;" d="M157.364,147.805c-0.09,0-0.187-0.003-0.278-0.006c-1.84-0.077-3.558-0.917-4.752-2.315
	l-10.131-11.878c-2.37-2.78-2.04-6.951,0.736-9.321c2.777-2.37,6.961-2.04,9.324,0.739l5.508,6.457l32.318-32.017
	c2.602-2.57,6.786-2.551,9.35,0.045c2.57,2.593,2.551,6.78-0.039,9.35l-37.38,37.031
	C160.78,147.121,159.101,147.805,157.364,147.805z"/>
<circle style="fill:#F4C158;" cx="154.786" cy="225.736" r="26.449"/>
<path style="fill:#E56354;" d="M157.364,235.415c-0.09,0-0.187-0.003-0.278-0.006c-1.84-0.077-3.558-0.917-4.752-2.315
	l-10.131-11.878c-2.37-2.78-2.04-6.951,0.736-9.321c2.777-2.37,6.961-2.04,9.324,0.739l5.508,6.457l32.318-32.017
	c2.602-2.57,6.786-2.551,9.35,0.045c2.57,2.593,2.551,6.78-0.039,9.35L162.02,233.5C160.78,234.731,159.101,235.415,157.364,235.415
	z"/>
<circle style="fill:#F4C158;" cx="154.786" cy="313.35" r="26.449"/>
<path style="fill:#E56354;" d="M157.364,323.025c-0.09,0-0.187-0.003-0.278-0.006c-1.84-0.077-3.558-0.917-4.752-2.315
	l-10.131-11.878c-2.37-2.78-2.04-6.951,0.736-9.321c2.777-2.37,6.961-2.04,9.324,0.739l5.508,6.457l32.318-32.017
	c2.602-2.57,6.786-2.551,9.35,0.045c2.57,2.593,2.551,6.78-0.039,9.35l-37.38,37.031C160.78,322.34,159.101,323.025,157.364,323.025
	z"/>
<circle style="fill:#F4C158;" cx="154.786" cy="400.983" r="26.449"/>
<g>
	<path style="fill:#E56354;" d="M157.364,410.635c-0.09,0-0.187-0.003-0.278-0.006c-1.84-0.078-3.558-0.917-4.752-2.315
		l-10.131-11.878c-2.37-2.78-2.04-6.951,0.736-9.321c2.777-2.37,6.961-2.04,9.324,0.739l5.508,6.457l32.318-32.017
		c2.602-2.57,6.786-2.551,9.35,0.045c2.57,2.592,2.551,6.78-0.039,9.35l-37.38,37.031
		C160.78,409.95,159.101,410.635,157.364,410.635z"/>
	<path style="fill:#E56354;" d="M333.32,131.517H227.527c-3.655,0-6.612,2.961-6.612,6.612s2.957,6.612,6.612,6.612H333.32
		c3.655,0,6.612-2.961,6.612-6.612S336.974,131.517,333.32,131.517z"/>
	<path style="fill:#E56354;" d="M333.32,219.126H227.527c-3.655,0-6.612,2.961-6.612,6.612s2.957,6.612,6.612,6.612H333.32
		c3.655,0,6.612-2.961,6.612-6.612S336.974,219.126,333.32,219.126z"/>
	<path style="fill:#E56354;" d="M333.32,306.736H227.527c-3.655,0-6.612,2.961-6.612,6.612c0,3.651,2.957,6.612,6.612,6.612H333.32
		c3.655,0,6.612-2.961,6.612-6.612C339.932,309.697,336.974,306.736,333.32,306.736z"/>
	<path style="fill:#E56354;" d="M333.32,394.346H227.527c-3.655,0-6.612,2.961-6.612,6.612s2.957,6.612,6.612,6.612H333.32
		c3.655,0,6.612-2.961,6.612-6.612S336.974,394.346,333.32,394.346z"/>
</g>
<g>
</g>
<g>
</g>
<g>
</g>
<g>
</g>
<g>
</g>
<g>
</g>
<g>
</g>
<g>
</g>
<g>
</g>
<g>
</g>
<g>
</g>
<g>
</g>
<g>
</g>
<g>
</g>
<g>
</g>
</svg>
