<svg height="512" viewBox="0 0 58 54" width="512" xmlns="http://www.w3.org/2000/svg"><g id="Page-1" fill="none" fill-rule="evenodd"><g id="143---Script-Folder" fill-rule="nonzero"><path id="Shape" d="m58 19v29c0 3.3137085-2.6862915 6-6 6h-46c-3.3137085 0-6-2.6862915-6-6v-44c0-2.209139 1.790861-4 4-4h22c2.209139 0 4 1.790861 4 4v2h18c2.209139 0 4 1.790861 4 4v3c3.3116533.0049563 5.9950437 2.6883467 6 6z" fill="#f0c419"/><path id="Shape" d="m52 10v3h-52v-9c0-2.209139 1.790861-4 4-4h22c2.209139 0 4 1.790861 4 4v2h18c2.209139 0 4 1.790861 4 4z" fill="#f29c1f"/><path id="Shape" d="m18 13h-4c-.5522847 0-1-.4477153-1-1s.4477153-1 1-1h4c.5522847 0 1 .4477153 1 1s-.4477153 1-1 1z" fill="#e57e25"/><path id="Shape" d="m52 11v2h-29c-.5522847 0-1-.4477153-1-1s.4477153-1 1-1z" fill="#e57e25"/><path id="Shape" d="m40 36c.0016097 1.1056415-.4544906 2.1626359-1.26 2.92l-10.91 9.91c.7476392-.7523311 1.1681058-1.7693573 1.17-2.83-.1452666-1.5358755-.8584596-2.9622614-2-4l-.76-.76-1.24-1.24-5-5c-1.1415404-1.0377386-1.8547334-2.4641245-2-4-.0006309-1.1493597.4951491-2.2429921 1.36-3l.1-.09c1.1952282-.9824699 2.849866-1.1875443 4.2487788-.5265901s2.2912024 2.0693934 2.2912212 3.6165901l5.76-5.24 6.24 6.24c1.1415404 1.0377386 1.8547334 2.4641245 2 4z" fill="#ecf0f1"/><path id="Shape" d="m37 21-5.24 4.76-5.76 5.24c-.0000188-1.5471967-.8923084-2.9556359-2.2912212-3.6165901s-3.0535506-.4558798-4.2487788.5265901l10.69-9.72.21-.19c1.1795104-1.0362227 2.8561612-1.2865925 4.2869384-.6401571 1.4307772.6464355 2.3510757 2.0701258 2.3530616 3.6401571z" fill="#d1d4d1"/><path id="Shape" d="m29 46c-.0018942 1.0606427-.4223608 2.0776689-1.17 2.83l-.09.09c-.7454876.6910152-1.723515 1.0765151-2.74 1.08-2.209139 0-4-1.790861-4-4l5.24-4.76.76.76c1.1415404 1.0377386 1.8547334 2.4641245 2 4z" fill="#d1d4d1"/><g fill="#e57e25"><path id="Shape" d="m47 19h-4c-.5522847 0-1-.4477153-1-1s.4477153-1 1-1h4c.5522847 0 1 .4477153 1 1s-.4477153 1-1 1z"/><path id="Shape" d="m53 19h-2c-.5522847 0-1-.4477153-1-1s.4477153-1 1-1h2c.5522847 0 1 .4477153 1 1s-.4477153 1-1 1z"/><path id="Shape" d="m44 23h-3c-.5522847 0-1-.4477153-1-1s.4477153-1 1-1h3c.5522847 0 1 .4477153 1 1s-.4477153 1-1 1z"/><path id="Shape" d="m53 23h-5c-.5522847 0-1-.4477153-1-1s.4477153-1 1-1h5c.5522847 0 1 .4477153 1 1s-.4477153 1-1 1z"/><path id="Shape" d="m53 27h-8c-.5522847 0-1-.4477153-1-1s.4477153-1 1-1h8c.5522847 0 1 .4477153 1 1s-.4477153 1-1 1z"/></g></g></g></svg>