<?xml version="1.0" encoding="iso-8859-1"?>
<!-- Generator: Adobe Illustrator 19.0.0, SVG Export Plug-In . SVG Version: 6.00 Build 0)  -->
<svg version="1.1" id="Capa_1" xmlns="http://www.w3.org/2000/svg" xmlns:xlink="http://www.w3.org/1999/xlink" x="0px" y="0px"
	 viewBox="0 0 512.064 512.064" style="enable-background:new 0 0 512.064 512.064;" xml:space="preserve">
<rect style="fill:#65B1EF;" width="512" height="291.552"/>
<polygon style="fill:#5B5F63;" points="0,291.456 48.944,225.456 69.296,249.648 103.392,215.008 120.992,237.008 156.736,190.256 
	177.632,216.656 254.624,171.568 338.768,223.264 355.264,205.104 371.216,225.456 388.256,206.208 422.352,253.504 
	451.504,211.712 512,291.456 "/>
<g>
	<polygon style="fill:#777B7E;" points="22.544,274.96 50.592,241.408 44.544,268.352 	"/>
	<polygon style="fill:#777B7E;" points="54.992,274.96 103.392,231.504 108.896,244.704 87.984,270.56 99.536,270 154.528,212.256 
		167.728,250.752 150.688,243.6 170.48,281.552 54.992,281.552 	"/>
	<polygon style="fill:#777B7E;" points="161.136,212.256 177.088,241.408 212.832,258.176 224.384,225.456 250.768,197.408 
		282.128,238.656 279.376,207.312 317.872,225.456 256,182.016 193.024,222.704 	"/>
	<polygon style="fill:#777B7E;" points="256,274.96 296.976,237.552 323.376,237.552 289.68,263.408 304.672,262.848 
		278.272,281.552 272.224,271.104 	"/>
	<polygon style="fill:#777B7E;" points="328.864,244.16 353.616,216.656 367.36,227.104 351.408,246.912 351.408,231.776 
		340.96,251.312 339.872,244.16 328.864,255.152 	"/>
	<polygon style="fill:#777B7E;" points="356.368,262.848 386.064,222.704 405.856,242.784 389.904,242.784 403.104,259.552 
		373.968,281.552 387.712,255.152 381.12,255.152 	"/>
	<polygon style="fill:#777B7E;" points="427.856,259.552 450.96,220.096 475.696,259.552 454.448,235.904 439.408,270 	"/>
	<polygon style="fill:#777B7E;" points="466.352,279.36 482.304,265.6 491.648,279.36 	"/>
</g>
<g style="opacity:0.2;">
	<circle style="fill:#FFFFFF;" cx="396.096" cy="110.224" r="67.232"/>
</g>
<circle style="fill:#FFD93B;" cx="396.096" cy="110.224" r="44.752"/>
<polygon style="fill:#8BC540;" points="42.624,291.584 0.064,379.616 0.064,291.584 "/>
<polygon style="fill:#7FB241;" points="85.344,291.584 0.064,512.064 0.064,379.616 42.624,291.584 "/>
<polygon style="fill:#8BC540;" points="64,512.016 0,512.016 85.328,291.552 128,291.552 "/>
<polygon style="fill:#7FB241;" points="128,512.016 64,512.016 128,291.552 170.656,291.552 "/>
<polygon style="fill:#8BC540;" points="192,512.016 128,512.016 170.656,291.552 213.328,291.552 "/>
<polygon style="fill:#7FB241;" points="256,512.016 192,512.016 213.328,291.552 256,291.552 "/>
<polygon style="fill:#8BC540;" points="320,512.016 256,512.016 256,291.552 298.656,291.552 "/>
<polygon style="fill:#7FB241;" points="384,512.016 320,512.016 298.656,291.552 341.328,291.552 "/>
<polygon style="fill:#8BC540;" points="448,512.016 384,512.016 341.328,291.552 384,291.552 "/>
<polygon style="fill:#7FB241;" points="512,512.016 448,512.016 384,291.552 426.656,291.552 "/>
<polygon style="fill:#8BC540;" points="512.064,379.872 512.064,512.064 426.624,291.584 469.344,291.584 "/>
<polygon style="fill:#7FB241;" points="512.064,291.584 512.064,379.872 469.344,291.584 "/>
<g>
</g>
<g>
</g>
<g>
</g>
<g>
</g>
<g>
</g>
<g>
</g>
<g>
</g>
<g>
</g>
<g>
</g>
<g>
</g>
<g>
</g>
<g>
</g>
<g>
</g>
<g>
</g>
<g>
</g>
</svg>
