<?xml version="1.0" encoding="iso-8859-1"?>
<!-- Generator: Adobe Illustrator 19.0.0, SVG Export Plug-In . SVG Version: 6.00 Build 0)  -->
<svg xmlns="http://www.w3.org/2000/svg" xmlns:xlink="http://www.w3.org/1999/xlink" version="1.1" id="Capa_1" x="0px" y="0px" viewBox="0 0 409.6 409.6" style="enable-background:new 0 0 409.6 409.6;" xml:space="preserve">
<ellipse style="fill:#D5D6DB;" cx="204.8" cy="325.704" rx="204.8" ry="54.272"/>
<ellipse style="fill:#DC8744;" cx="204.8" cy="325.704" rx="172.032" ry="45.568"/>
<path style="fill:#27A2DB;" d="M396.8,199.752c0,83.456-81.92,151.552-183.296,151.552S29.696,283.208,29.696,199.752H396.8z"/>
<path style="fill:#2D93BA;" d="M29.696,199.752c0,83.456,81.92,151.552,183.296,151.552V199.752H29.696z"/>
<ellipse style="fill:#3A556A;" cx="213.504" cy="199.752" rx="183.296" ry="24.576"/>
<path style="fill:#E1E6E9;" d="M385.024,199.752c0,11.264-37.888,24.576-170.496,24.576c-116.224,0-176.128-11.776-176.128-23.04  c0-11.264,73.728-14.336,175.104-14.336S385.024,188.488,385.024,199.752z"/>
<path style="fill:#44C4A1;" d="M168.96,223.816l30.208,0.512L351.232,84.04c16.384-13.312,25.6-31.744,18.432-39.424L358.912,32.84  c-7.168-7.68-26.112-1.024-40.96,13.824L168.96,223.816z"/>
<path style="fill:#3EA69B;" d="M185.344,223.816h13.824L351.232,83.528c16.384-13.312,25.6-31.744,18.432-39.424l-5.632-6.144  L185.344,223.816z"/>
<ellipse style="fill:#FFFFFF;" cx="341.604" cy="61.862" rx="16.896" ry="16.896"/>
<g>
</g>
<g>
</g>
<g>
</g>
<g>
</g>
<g>
</g>
<g>
</g>
<g>
</g>
<g>
</g>
<g>
</g>
<g>
</g>
<g>
</g>
<g>
</g>
<g>
</g>
<g>
</g>
<g>
</g>
</svg>
