<?xml version="1.0" encoding="iso-8859-1"?>
<!-- Generator: Adobe Illustrator 19.0.0, SVG Export Plug-In . SVG Version: 6.00 Build 0)  -->
<svg version="1.1" id="Capa_1" xmlns="http://www.w3.org/2000/svg" xmlns:xlink="http://www.w3.org/1999/xlink" x="0px" y="0px"
	 viewBox="0 0 512 512" style="enable-background:new 0 0 512 512;" xml:space="preserve">
<circle style="fill:#FFD83B;" cx="361.216" cy="78.248" r="54.512"/>
<g>
	<path style="fill:#E9EFF4;" d="M351.696,126.152c-1.792,0-3.472,0.432-4.96,1.184c-0.512-0.784-1.056-1.552-1.664-2.256
		c-2.688-4.336-7.488-7.232-12.96-7.232c-0.048,0-0.112,0-0.16,0c-0.944-0.128-1.92-0.208-2.912-0.208
		c-0.4,0-0.784,0.016-1.184,0.032c-2.656-8.416-10.528-14.528-19.84-14.528c-0.816,0-1.616,0.048-2.4,0.144
		c0.048-0.704,0.096-1.408,0.096-2.112c0-14.736-11.936-26.672-26.672-26.672s-26.672,11.936-26.672,26.672
		c0,0.304,0.016,0.608,0.016,0.912c-1.888-0.512-3.872-0.784-5.92-0.784c-12.512,0-22.64,10.144-22.64,22.64
		c0,1.344,0.128,2.64,0.352,3.92c-9.312,0.432-16.72,8.128-16.72,17.536c0,9.696,7.856,17.552,17.552,17.552
		c4.32,0,8.272-1.568,11.328-4.144c6.32,7.552,15.824,12.368,26.448,12.368c9.36,0,17.84-3.728,24.048-9.792
		c3.184,2.96,7.456,4.784,12.16,4.784c7.552,0,14.016-4.704,16.624-11.328c3.632,3.024,8.304,4.832,13.408,4.832
		c8.384,0,15.616-4.912,18.992-12c1.152,0.4,2.384,0.64,3.68,0.64c6.112,0,11.072-4.96,11.072-11.072
		S357.824,126.152,351.696,126.152z"/>
	<path style="fill:#E9EFF4;" d="M201.216,68.84c-1.872,0-3.632,0.448-5.184,1.232c-0.528-0.832-1.12-1.616-1.744-2.368
		c-2.816-4.544-7.84-7.568-13.568-7.568c-0.064,0-0.112,0-0.16,0c-0.992-0.144-2.016-0.208-3.04-0.208
		c-0.416,0-0.832,0.016-1.232,0.032c-2.784-8.816-11.024-15.216-20.768-15.216c-0.848,0-1.696,0.048-2.512,0.144
		c0-0.72,0.048-1.456,0.048-2.208c0-15.424-12.496-27.936-27.936-27.936S97.2,27.256,97.2,42.68c0,0.32,0.016,0.64,0.032,0.96
		c-1.984-0.528-4.064-0.816-6.208-0.816c-13.088,0-23.712,10.624-23.712,23.712c0,1.408,0.128,2.768,0.368,4.112
		C57.936,71.096,50.176,79.144,50.176,89c0,10.16,8.224,18.384,18.384,18.384c4.528,0,8.656-1.632,11.872-4.352
		c6.624,7.92,16.576,12.96,27.696,12.96c9.808,0,18.688-3.904,25.184-10.256c3.328,3.104,7.808,5.008,12.72,5.008
		c7.92,0,14.672-4.912,17.408-11.856c3.808,3.152,8.704,5.056,14.032,5.056c8.768,0,16.352-5.136,19.888-12.56
		c1.2,0.416,2.496,0.672,3.84,0.672c6.4,0,11.6-5.2,11.6-11.6C212.816,74.04,207.616,68.84,201.216,68.84z"/>
</g>
<rect y="318.744" style="fill:#719C40;" width="512" height="178.512"/>
<polygon style="fill:#5B5F63;" points="179.392,318.744 73.504,497.256 438.496,497.256 332.608,318.744 "/>
<g>
	<polygon style="fill:#FFFFFF;" points="262.512,333.48 249.488,333.48 250.224,323.768 261.776,323.768 	"/>
	<polygon style="fill:#FFFFFF;" points="264.208,356.152 247.792,356.152 248.912,341.112 263.072,341.112 	"/>
	<polygon style="fill:#FFFFFF;" points="267.136,394.984 244.864,394.984 246.848,368.6 265.152,368.6 	"/>
	<polygon style="fill:#FFFFFF;" points="273.312,476.808 238.688,476.808 243.056,418.856 268.944,418.856 	"/>
</g>
<rect x="357.728" y="259.096" style="fill:#997960;" width="14.688" height="59.664"/>
<polygon style="fill:#64892F;" points="397.744,280.92 365.072,156.552 332.4,280.92 "/>
<rect x="449.12" y="259.096" style="fill:#997960;" width="14.688" height="59.664"/>
<path style="fill:#64892F;" d="M456.48,285.304L456.48,285.304c-17.968,0-32.672-14.704-32.672-32.672V189.24
	c0-17.968,14.704-32.672,32.672-32.672l0,0c17.968,0,32.672,14.704,32.672,32.672v63.392
	C489.152,270.6,474.448,285.304,456.48,285.304z"/>
<rect x="48.16" y="259.096" style="fill:#997960;" width="14.688" height="59.664"/>
<path style="fill:#64892F;" d="M55.52,285.304L55.52,285.304c-17.968,0-32.672-14.704-32.672-32.672V189.24
	c0-17.968,14.704-32.672,32.672-32.672l0,0c17.968,0,32.672,14.704,32.672,32.672v63.392C88.192,270.6,73.488,285.304,55.52,285.304
	z"/>
<rect x="139.6" y="259.096" style="fill:#997960;" width="14.688" height="59.664"/>
<polygon style="fill:#64892F;" points="179.6,280.92 146.928,156.552 114.256,280.92 "/>
<g>
</g>
<g>
</g>
<g>
</g>
<g>
</g>
<g>
</g>
<g>
</g>
<g>
</g>
<g>
</g>
<g>
</g>
<g>
</g>
<g>
</g>
<g>
</g>
<g>
</g>
<g>
</g>
<g>
</g>
</svg>
