<svg height="512" viewBox="0 0 54 58" width="512" xmlns="http://www.w3.org/2000/svg"><g id="Page-1" fill="none" fill-rule="evenodd"><g id="146---Paste-File" fill-rule="nonzero"><path id="Shape" d="m44 14v-10c0-2.209139-1.790861-4-4-4h-35l-5 23v31c0 2.209139 1.790861 4 4 4h36c2.209139 0 4-1.790861 4-4z" fill="#f0c419"/><path id="Shape" d="m5 0 7.341 6.007c.910431.74520829 1.4466149 1.85344064 1.4658808 3.02981165.0192658 1.17637105-.4803406 2.30156685-1.3658808 3.07618835l-12.441 10.887z" fill="#f3d55b"/><path id="Shape" d="m4 28c-.55228475 0-1-.4477153-1-1v-2c0-.5522847.44771525-1 1-1s1 .4477153 1 1v2c0 .5522847-.44771525 1-1 1z" fill="#f3d55b"/><path id="Shape" d="m4 50c-.55228475 0-1-.4477153-1-1v-18c0-.5522847.44771525-1 1-1s1 .4477153 1 1v18c0 .5522847-.44771525 1-1 1z" fill="#f3d55b"/><g fill="#e57e25"><path id="Shape" d="m20 11h-2c-.5522847 0-1-.4477153-1-1 0-.55228475.4477153-1 1-1h2c.5522847 0 1 .44771525 1 1 0 .5522847-.4477153 1-1 1z"/><path id="Shape" d="m38 11h-14c-.5522847 0-1-.4477153-1-1 0-.55228475.4477153-1 1-1h14c.5522847 0 1 .44771525 1 1 0 .5522847-.4477153 1-1 1z"/><path id="Shape" d="m18 17h-4c-.5522847 0-1-.4477153-1-1s.4477153-1 1-1h4c.5522847 0 1 .4477153 1 1s-.4477153 1-1 1z"/><path id="Shape" d="m38 17h-16c-.5522847 0-1-.4477153-1-1s.4477153-1 1-1h16c.5522847 0 1 .4477153 1 1s-.4477153 1-1 1z"/></g><path id="Shape" d="m44.952 44.709-4.243 4.243 5.485 7.313c.7542836 1.0057652 1.9078786 1.6347386 3.1618913 1.7239546s2.4850339-.3701052 3.3741087-1.2589546c.8888494-.8890748 1.3481706-2.120096 1.2589546-3.3741087s-.7181894-2.4076077-1.7239546-3.1618913z" fill="#a56a43"/><path id="Shape" d="m32.0627058 42.5622136h18v3c0 1.1045695-.8954305 2-2 2h-14c-1.1045695 0-2-.8954305-2-2z" fill="#cb8252" transform="matrix(.707 -.707 .707 .707 -19.837 42.234)"/><path id="Shape" d="m45.66 36.93-12.73 12.73-2.83-2.83 2.82-2.82 9.91-9.91z" fill="#95a5a5"/><path id="Shape" d="m42.83 34.1-9.91 9.91-2.82 2.82-8.48-8.48c-.3899779-.3930079-.3899779-1.0269921 0-1.42l11.31-11.31c.3930079-.3899779 1.0269921-.3899779 1.42 0z" fill="#f9eab0"/><path id="Shape" d="m27.97 37.64c-.182678.1912473-.4355257.2996106-.7.3-.2674295-.0002088-.5234464-.1083849-.71-.3l-2.83-2.82 1.42-1.42 2.82 2.83c.191781.1843911.3001659.4389549.3001659.705s-.1083849.5206089-.3001659.705z" fill="#fac176"/><path id="Shape" d="m30.81 34.81c-.190164.1849909-.4447023.2889572-.71.29-.2623399-.0011046-.5137394-.1052558-.7-.29l-2.83-2.83 1.41-1.41 2.83 2.83c.3877236.3900375.3877236 1.0199625 0 1.41z" fill="#fac176"/><path id="Shape" d="m33.64 31.98c-.3943361.3867403-1.0256639.3867403-1.42 0l-2.82-2.83 1.41-1.41 2.83 2.83c.3877236.3900375.3877236 1.0199625 0 1.41z" fill="#fac176"/></g></g></svg>