<?xml version="1.0" encoding="iso-8859-1"?>
<!-- Generator: Adobe Illustrator 19.0.0, SVG Export Plug-In . SVG Version: 6.00 Build 0)  -->
<svg xmlns="http://www.w3.org/2000/svg" xmlns:xlink="http://www.w3.org/1999/xlink" version="1.1" id="Capa_1" x="0px" y="0px" viewBox="0 0 410.112 410.112" style="enable-background:new 0 0 410.112 410.112;" xml:space="preserve">
<rect x="24.576" y="252.936" style="fill:#D15241;" width="355.328" height="18.432"/>
<path style="fill:#DC8744;" d="M393.216,323.08H16.384C7.68,323.08,0,315.912,0,306.696V287.24c0-8.704,7.168-16.384,16.384-16.384  h377.344c8.704,0,16.384,7.168,16.384,16.384v19.456C409.6,315.912,402.432,323.08,393.216,323.08z"/>
<path style="fill:#FCD462;" d="M357.888,398.344H41.984c-18.432,0-33.792-14.848-33.792-33.792v-20.48H391.68v20.48  C391.68,382.984,376.32,398.344,357.888,398.344z"/>
<path style="fill:#F6C358;" d="M199.68,344.072H8.192v22.016c1.536,24.064,18.944,35.328,51.2,32.256H199.68V344.072z"/>
<g>
	<path style="fill:#44C4A1;" d="M344.576,344.072c0,6.656,7.68,12.288,17.92,12.288s17.92-5.632,17.92-12.288"/>
	<path style="fill:#44C4A1;" d="M308.736,344.072c0,6.656,7.68,12.288,17.92,12.288c9.728,0,17.92-5.632,17.92-12.288"/>
	<path style="fill:#44C4A1;" d="M273.408,344.072c0,6.656,7.68,12.288,17.92,12.288c9.728,0,17.92-5.632,17.92-12.288"/>
	<path style="fill:#44C4A1;" d="M238.08,344.072c0,6.656,7.68,12.288,17.92,12.288c9.728,0,17.92-5.632,17.92-12.288"/>
	<path style="fill:#44C4A1;" d="M202.752,344.072c0,6.656,7.68,12.288,17.92,12.288c9.728,0,17.92-5.632,17.92-12.288"/>
	<path style="fill:#44C4A1;" d="M166.912,344.072c0,6.656,7.68,12.288,17.92,12.288c9.728,0,17.92-5.632,17.92-12.288"/>
	<path style="fill:#44C4A1;" d="M131.584,344.072c0,6.656,7.68,12.288,17.92,12.288c9.728,0,17.92-5.632,17.92-12.288"/>
	<path style="fill:#44C4A1;" d="M96.256,344.072c0,6.656,7.68,12.288,17.92,12.288s17.92-5.632,17.92-12.288"/>
	<path style="fill:#44C4A1;" d="M60.416,344.072c0,6.656,7.68,12.288,17.92,12.288s17.92-5.632,17.92-12.288"/>
	<path style="fill:#44C4A1;" d="M25.088,344.072c0,6.656,7.68,12.288,17.92,12.288s17.92-5.632,17.92-12.288"/>
	<rect x="24.576" y="323.08" style="fill:#44C4A1;" width="355.328" height="22.016"/>
</g>
<path style="fill:#FCD462;" d="M394.24,161.288c0-82.944-84.48-150.016-189.44-150.016S15.36,78.344,15.36,161.288H394.24z"/>
<path style="fill:#F6C358;" d="M204.8,161.288H15.36c0-82.944,84.48-150.016,189.44-150.016V161.288z"/>
<rect x="24.576" y="161.288" style="fill:#D15241;" width="355.328" height="18.432"/>
<path style="fill:#DC8744;" d="M393.216,231.432H16.384C7.68,231.432,0,224.264,0,215.048v-19.456  c0-8.704,7.168-16.384,16.384-16.384h377.344c8.704,0,16.384,7.168,16.384,16.384v19.456  C409.6,224.264,402.432,231.432,393.216,231.432z"/>
<g>
	<path style="fill:#44C4A1;" d="M344.576,252.424c0,6.656,7.68,12.288,17.92,12.288c9.728,0,17.92-5.632,17.92-12.288"/>
	<path style="fill:#44C4A1;" d="M308.736,252.424c0,6.656,7.68,12.288,17.92,12.288s17.92-5.632,17.92-12.288"/>
	<path style="fill:#44C4A1;" d="M273.408,252.424c0,6.656,7.68,12.288,17.92,12.288c9.728,0,17.92-5.632,17.92-12.288"/>
	<path style="fill:#44C4A1;" d="M238.08,252.424c0,6.656,7.68,12.288,17.92,12.288c10.24,0,17.92-5.632,17.92-12.288"/>
	<path style="fill:#44C4A1;" d="M202.752,252.424c0,6.656,7.68,12.288,17.92,12.288c9.728,0,17.92-5.632,17.92-12.288"/>
	<path style="fill:#44C4A1;" d="M166.912,252.424c0,6.656,7.68,12.288,17.92,12.288c9.728,0,17.92-5.632,17.92-12.288"/>
	<path style="fill:#44C4A1;" d="M131.584,252.424c0,6.656,7.68,12.288,17.92,12.288c9.728,0,17.92-5.632,17.92-12.288"/>
	<path style="fill:#44C4A1;" d="M96.256,252.424c0,6.656,7.68,12.288,17.92,12.288c9.728,0,17.92-5.632,17.92-12.288"/>
	<path style="fill:#44C4A1;" d="M60.416,252.424c0,6.656,7.68,12.288,17.92,12.288s17.92-5.632,17.92-12.288"/>
	<path style="fill:#44C4A1;" d="M25.088,252.424c0,6.656,7.68,12.288,17.92,12.288s17.92-5.632,17.92-12.288"/>
	<rect x="24.576" y="231.432" style="fill:#44C4A1;" width="355.328" height="22.016"/>
</g>
<g>
	<path style="fill:#FFFFFF;" d="M186.88,48.648c10.24-1.536,16.896-8.192,15.36-12.288c-1.024-3.584-10.24-6.144-19.456-1.536   c-6.144,2.56-22.016,13.824-22.016,13.824S180.224,49.672,186.88,48.648z"/>
	<path style="fill:#FFFFFF;" d="M131.584,73.736c10.24-1.536,16.896-8.192,15.36-12.288s-10.24-6.144-19.456-1.536   c-6.144,2.56-22.016,13.824-22.016,13.824S124.928,74.76,131.584,73.736z"/>
	<path style="fill:#FFFFFF;" d="M89.6,104.968c10.24-1.536,16.896-8.192,15.36-12.288c-1.024-3.584-10.24-6.144-19.456-1.536   c-6.144,2.56-22.016,13.824-22.016,13.824S83.456,105.992,89.6,104.968z"/>
	<path style="fill:#FFFFFF;" d="M222.208,65.544c10.24-1.536,16.896-8.192,15.36-12.288c-1.024-3.584-10.24-6.144-19.456-1.536   c-6.144,2.56-22.016,13.824-22.016,13.824S215.552,66.056,222.208,65.544z"/>
	<path style="fill:#FFFFFF;" d="M154.624,102.408c10.24-1.536,16.896-8.192,15.36-12.288c-1.024-3.584-10.24-6.144-19.456-1.536   c-6.144,2.56-22.016,13.824-22.016,13.824S147.968,103.432,154.624,102.408z"/>
	<path style="fill:#FFFFFF;" d="M222.208,99.336c10.24-1.536,16.896-8.192,15.36-12.288c-1.024-3.584-10.24-6.144-19.456-1.536   c-6.144,2.56-22.016,13.824-22.016,13.824S215.552,100.36,222.208,99.336z"/>
	<path style="fill:#FFFFFF;" d="M121.856,133.64c10.24-1.536,16.896-8.192,15.36-12.288c-1.024-3.584-10.24-6.144-19.456-1.536   c-6.144,2.56-22.016,13.824-22.016,13.824S115.2,134.664,121.856,133.64z"/>
	<path style="fill:#FFFFFF;" d="M275.456,51.72c10.24-1.536,16.896-8.192,15.36-12.288c-1.024-3.584-10.24-6.144-19.456-1.536   c-6.144,2.56-22.016,13.824-22.016,13.824S268.8,52.744,275.456,51.72z"/>
	<path style="fill:#FFFFFF;" d="M193.024,128.52c10.24-1.536,16.896-8.192,15.36-12.288c-1.024-3.584-10.24-6.144-19.456-1.536   c-6.144,2.56-22.016,13.824-22.016,13.824S186.88,129.544,193.024,128.52z"/>
	<path style="fill:#FFFFFF;" d="M278.528,90.12c10.24-1.536,16.896-8.192,15.36-12.288c-1.024-3.584-10.24-6.144-19.456-1.536   c-6.144,2.56-22.016,13.824-22.016,13.824S271.872,91.144,278.528,90.12z"/>
	<path style="fill:#FFFFFF;" d="M249.856,136.712c10.24-1.536,16.896-8.192,15.36-12.288c-1.024-3.584-10.24-6.144-19.456-1.536   c-6.144,2.56-22.016,13.824-22.016,13.824S243.712,137.736,249.856,136.712z"/>
	<path style="fill:#FFFFFF;" d="M310.784,125.448c10.24-1.536,16.896-8.192,15.36-12.288c-1.024-3.584-10.24-6.144-19.456-1.536   c-6.144,2.56-22.016,13.824-22.016,13.824S304.64,126.472,310.784,125.448z"/>
</g>
<g>
</g>
<g>
</g>
<g>
</g>
<g>
</g>
<g>
</g>
<g>
</g>
<g>
</g>
<g>
</g>
<g>
</g>
<g>
</g>
<g>
</g>
<g>
</g>
<g>
</g>
<g>
</g>
<g>
</g>
</svg>
