<?xml version="1.0" encoding="iso-8859-1"?>
<!-- Generator: Adobe Illustrator 19.0.0, SVG Export Plug-In . SVG Version: 6.00 Build 0)  -->
<svg version="1.1" id="Capa_1" xmlns="http://www.w3.org/2000/svg" xmlns:xlink="http://www.w3.org/1999/xlink" x="0px" y="0px"
	 viewBox="0 0 512 512" style="enable-background:new 0 0 512 512;" xml:space="preserve">
<rect style="fill:#65B1EF;" width="512" height="458.896"/>
<circle style="fill:#FFD83B;" cx="391.84" cy="117.648" r="92.512"/>
<path style="fill:#FFFFFF;" d="M429.648,215.536c-2.896,0-5.616,0.704-8.032,1.92c-0.816-1.28-1.728-2.512-2.704-3.664
	c-4.352-7.04-12.144-11.728-21.024-11.728c-0.08,0-0.176,0-0.256,0c-1.536-0.208-3.12-0.336-4.72-0.336
	c-0.64,0-1.28,0.016-1.92,0.064c-4.32-13.648-17.072-23.552-32.16-23.552c-1.312,0-2.624,0.08-3.888,0.224
	c0.096-1.136,0.144-2.272,0.144-3.424c0-23.888-19.36-43.248-43.248-43.248s-43.248,19.36-43.248,43.248
	c0,0.496,0.016,0.992,0.032,1.472c-3.056-0.832-6.272-1.28-9.6-1.28c-20.272,0-36.72,16.432-36.72,36.72
	c0,2.176,0.192,4.288,0.56,6.352c-15.088,0.72-27.104,13.168-27.104,28.432c0,15.712,12.736,28.464,28.464,28.464
	c7.008,0,13.408-2.528,18.368-6.736c10.256,12.256,25.648,20.048,42.88,20.048c15.168,0,28.928-6.064,38.992-15.872
	c5.168,4.816,12.096,7.76,19.712,7.76c12.256,0,22.72-7.616,26.96-18.368c5.904,4.896,13.472,7.824,21.728,7.824
	c13.584,0,25.312-7.952,30.784-19.456c1.872,0.656,3.856,1.024,5.952,1.024c9.92,0,17.968-8.048,17.968-17.968
	S439.568,215.536,429.648,215.536z"/>
<g style="opacity:0.2;">
	<path style="fill:#FFFFFF;" d="M191.536,86.208c-1.808,0-3.504,0.432-5.024,1.2c-0.512-0.8-1.072-1.568-1.696-2.288
		c-2.72-4.4-7.584-7.328-13.12-7.328c-0.048,0-0.112,0-0.16,0c-0.96-0.128-1.936-0.192-2.944-0.192c-0.4,0-0.8,0.016-1.2,0.032
		c-2.688-8.528-10.672-14.704-20.08-14.704c-0.816,0-1.632,0.048-2.432,0.144c0.048-0.704,0.096-1.424,0.096-2.144
		c0-14.912-12.096-26.992-26.992-26.992s-27.008,12.08-27.008,26.992c0,0.304,0.016,0.624,0.016,0.928
		c-1.904-0.512-3.92-0.8-5.984-0.8c-12.656,0-22.928,10.256-22.928,22.928c0,1.36,0.128,2.688,0.352,3.968
		C53.024,88.4,45.52,96.176,45.52,105.696c0,9.808,7.952,17.776,17.776,17.776c4.368,0,8.368-1.584,11.472-4.208
		c6.4,7.648,16.016,12.528,26.768,12.528c9.472,0,18.064-3.776,24.352-9.904c3.232,2.992,7.552,4.832,12.304,4.832
		c7.648,0,14.192-4.752,16.832-11.472c3.68,3.056,8.416,4.896,13.568,4.896c8.48,0,15.808-4.96,19.216-12.144
		c1.168,0.416,2.416,0.64,3.712,0.64c6.192,0,11.216-5.024,11.216-11.216C202.752,91.232,197.728,86.208,191.536,86.208z"/>
</g>
<path style="fill:#FDE7AA;" d="M512,437.888c-170.672,25.52-341.328-123.456-512-28.72v55.888h512V437.888z"/>
<path style="fill:#FFDC96;" d="M512,382.672C341.328,414.976,170.672,490.16,0,407.216C0,429.232,0,489.984,0,512h512V382.672z"/>
<g>
	<path style="fill:#719C40;" d="M474.448,420.624h-30.624c-5.472,0-9.904-4.432-9.904-9.904s4.432-9.904,9.904-9.904h20.72v-15.984
		c0-5.472,4.432-9.904,9.904-9.904s9.904,4.432,9.904,9.904v25.888C484.352,416.208,479.92,420.624,474.448,420.624z"/>
	<path style="fill:#719C40;" d="M435.136,458h-30.72c-5.472,0-9.904-4.432-9.904-9.904v-25.888c0-5.472,4.432-9.904,9.904-9.904
		c5.472,0,9.904,4.432,9.904,9.904v15.968h20.816c5.472,0,9.904,4.432,9.904,9.904S440.608,458,435.136,458z"/>
	<path style="fill:#719C40;" d="M450.928,471.776h-22.384V360.88c0-6.176,5.008-11.2,11.2-11.2l0,0c6.176,0,11.2,5.008,11.2,11.184
		v110.912H450.928z"/>
	<path style="fill:#719C40;" d="M178.88,420.736h-65.184c-9.344,0-16.912-7.568-16.912-16.912s7.568-16.912,16.912-16.912h48.272
		v-31.696c0-9.344,7.568-16.912,16.912-16.912c9.344,0,16.912,7.568,16.912,16.912v48.608
		C195.792,413.152,188.224,420.736,178.88,420.736z"/>
	<path style="fill:#719C40;" d="M113.696,336.496H47.36c-9.344,0-16.912-7.568-16.912-16.912v-48.608
		c0-9.344,7.568-16.912,16.912-16.912s16.912,7.568,16.912,16.912v31.696h49.424c9.344,0,16.912,7.568,16.912,16.912
		S123.04,336.496,113.696,336.496z"/>
	<path style="fill:#719C40;" d="M134.72,480.144H92.688V254.752c0-11.6,9.408-21.024,21.024-21.024l0,0
		c11.6,0,21.024,9.408,21.024,21.024v225.392H134.72z"/>
</g>
<g>
</g>
<g>
</g>
<g>
</g>
<g>
</g>
<g>
</g>
<g>
</g>
<g>
</g>
<g>
</g>
<g>
</g>
<g>
</g>
<g>
</g>
<g>
</g>
<g>
</g>
<g>
</g>
<g>
</g>
</svg>
