<?xml version="1.0" encoding="iso-8859-1"?>
<!-- Generator: Adobe Illustrator 19.0.0, SVG Export Plug-In . SVG Version: 6.00 Build 0)  -->
<svg version="1.1" id="Capa_1" xmlns="http://www.w3.org/2000/svg" xmlns:xlink="http://www.w3.org/1999/xlink" x="0px" y="0px"
	 viewBox="0 0 468.293 468.293" style="enable-background:new 0 0 468.293 468.293;" xml:space="preserve">
<path style="fill:#D5D6DB;" d="M102.714,394.758v30.6c0,23.713-19.223,42.936-42.936,42.936c-23.713,0-42.936-19.223-42.936-42.936
	v-30.6H102.714z"/>
<path style="fill:#EBF0F3;" d="M102.714,425.357V0h348.737v425.357c0,23.713-19.223,42.936-42.936,42.936h0H59.778
	C83.491,468.293,102.714,449.07,102.714,425.357z"/>
<g>
	<rect x="133.47" y="345.494" style="fill:#D5D6DB;" width="143.61" height="18.732"/>
	<rect x="133.47" y="285.159" style="fill:#D5D6DB;" width="287.22" height="18.732"/>
	<rect x="133.47" y="224.78" style="fill:#D5D6DB;" width="143.61" height="18.732"/>
	<rect x="133.47" y="164.421" style="fill:#D5D6DB;" width="287.22" height="18.732"/>
	<rect x="133.47" y="104.086" style="fill:#D5D6DB;" width="143.61" height="18.732"/>
	<rect x="133.47" y="43.707" style="fill:#D5D6DB;" width="287.22" height="18.732"/>
	<rect x="133.47" y="405.854" style="fill:#D5D6DB;" width="287.22" height="18.732"/>
</g>
<g>
</g>
<g>
</g>
<g>
</g>
<g>
</g>
<g>
</g>
<g>
</g>
<g>
</g>
<g>
</g>
<g>
</g>
<g>
</g>
<g>
</g>
<g>
</g>
<g>
</g>
<g>
</g>
<g>
</g>
</svg>
