<svg height="512" viewBox="0 0 58 54" width="512" xmlns="http://www.w3.org/2000/svg"><g id="Page-1" fill="none" fill-rule="evenodd"><g id="148---Internet-Folder" fill-rule="nonzero"><path id="Shape" d="m58 19v29c0 3.3137085-2.6862915 6-6 6h-46c-3.3137085 0-6-2.6862915-6-6v-44c0-2.209139 1.790861-4 4-4h22c2.209139 0 4 1.790861 4 4v2h18c2.209139 0 4 1.790861 4 4v3c3.3116533.0049563 5.9950437 2.6883467 6 6z" fill="#f0c419"/><path id="Shape" d="m52 10v3h-52v-9c0-2.209139 1.790861-4 4-4h22c2.209139 0 4 1.790861 4 4v2h18c2.209139 0 4 1.790861 4 4z" fill="#f29c1f"/><path id="Shape" d="m18 13h-4c-.5522847 0-1-.4477153-1-1s.4477153-1 1-1h4c.5522847 0 1 .4477153 1 1s-.4477153 1-1 1z" fill="#e57e25"/><path id="Shape" d="m52 11v2h-29c-.5522847 0-1-.4477153-1-1s.4477153-1 1-1z" fill="#e57e25"/><circle id="Oval" cx="29" cy="34" fill="#2fa8cc" r="16"/><g fill="#65ddb9"><path id="Shape" d="m45 34c.0066833 3.2894788-1.0064776 6.5001509-2.9 9.19-.7-.43-1.4-.86-2.11-1.28-.6370999-.3438098-1.2256011-.7708936-1.75-1.27-.5305411-.5021514-.8459401-1.1902947-.88-1.92-.01-1.32 1.14-2.3 2.13-3.19.9543941-.7369937 1.6651587-1.7439102 2.04-2.89.3548082-1.1860483-.1877912-2.4563199-1.29-3.02-.53-.2-1.18-.18-1.6-.57-.6-.53-.41-1.49-.17-2.26-.7434934-.1198425-1.4944466.1660534-1.97.75-.4642646.5767053-1.0261162 1.0674794-1.66 1.45-.68.31-1.68.06-1.82-.66-.12-.57.32-1.08.68-1.53 1.0637321-1.3656012 1.637781-3.0490083 1.63-4.78-.1287382-.8692563-.0073397-1.7571997.35-2.56 5.6802955 2.6098642 9.3204568 8.2888283 9.32 14.54z"/><path id="Shape" d="m29.27 38.01c-.1247305 1.0175657-.4510922 2.0000503-.96 2.89-.45.94-.91 1.88-1.36 2.83-.3728589 1.0937856-1.1588931 1.9982633-2.19 2.52-.3768268.1553989-.8056522.1181098-1.15-.1-.3386829-.3253779-.4957196-.7964879-.42-1.26.0816756-.4517864.1085365-.9117779.08-1.37-.2696475-.9116968-.9989216-1.6143828-1.92-1.85-.8984056-.2334299-1.7648516-.5759784-2.58-1.02-.8248791-.5045381-1.1213595-1.5596593-.68-2.42.37-.51 1.08-.69 1.45-1.2.52-.74.08-1.76-.37-2.54-.7148618-1.3976243-1.605409-2.6981593-2.65-3.87-.7112996-.5907982-1.3137198-1.3015187-1.78-2.1-.1732295-.3836758-.2651584-.799058-.27-1.22 2.4154119-5.2451533 7.4739183-8.7780784 13.23-9.24-.37 1.55-.67 3.24.06 4.64.4.77 1.12 1.43 1.2 2.31.13 1.35-1.28 2.31-1.83 3.56-.34.79-.44 1.85-1.24 2.19s-1.66-.36-2.53-.47c-1.000639-.0724241-1.9197389.5527294-2.22 1.51-.2727779.9564986.008516 1.9853408.73 2.67.7245378.6672701 1.6861137 1.0166067 2.67.97 1.17-.04 2.4-.53 3.45-.01.8913989.5385389 1.3904425 1.5444235 1.28 2.58z"/></g></g></g></svg>