<?xml version="1.0" encoding="iso-8859-1"?>
<!-- Generator: Adobe Illustrator 19.0.0, SVG Export Plug-In . SVG Version: 6.00 Build 0)  -->
<svg version="1.1" id="Capa_1" xmlns="http://www.w3.org/2000/svg" xmlns:xlink="http://www.w3.org/1999/xlink" x="0px" y="0px"
	 viewBox="0 0 468.262 468.262" style="enable-background:new 0 0 468.262 468.262;" xml:space="preserve">
<path style="fill:#E56353;" d="M323.326,222.939v221.596c0,13.113-10.616,23.727-23.79,23.727H168.726
	c-13.113,0-23.79-10.614-23.79-23.727V222.939c0-37.526,21.166-71.805,54.759-88.601l4.683-2.311v-2.434
	c-5.245-6.119-8.43-13.861-8.43-22.352c0-5.308,1.248-10.366,3.497-14.861c3.184-6.431,4.933-13.425,4.933-20.605v-20.48h59.505
	v20.48c0,7.18,1.811,14.174,4.994,20.605c2.248,4.495,3.497,9.553,3.497,14.861c0,8.491-3.184,16.233-8.491,22.352v2.434
	l4.745,2.311C302.158,151.134,323.326,185.413,323.326,222.939z"/>
<path style="fill:#3A556A;" d="M263.834,51.271h-59.383c-3.448,0-6.244-2.795-6.244-6.244V12.488C198.207,5.591,203.798,0,210.695,0
	h46.896c6.897,0,12.488,5.591,12.488,12.488v32.539C270.078,48.475,267.283,51.271,263.834,51.271z"/>
<rect x="144.937" y="230.197" style="fill:#FCD462;" width="178.388" height="177.077"/>
<g>
</g>
<g>
</g>
<g>
</g>
<g>
</g>
<g>
</g>
<g>
</g>
<g>
</g>
<g>
</g>
<g>
</g>
<g>
</g>
<g>
</g>
<g>
</g>
<g>
</g>
<g>
</g>
<g>
</g>
</svg>
