<?xml version="1.0" encoding="iso-8859-1"?>
<!-- Generator: Adobe Illustrator 19.0.0, SVG Export Plug-In . SVG Version: 6.00 Build 0)  -->
<svg version="1.1" id="Layer_1" xmlns="http://www.w3.org/2000/svg" xmlns:xlink="http://www.w3.org/1999/xlink" x="0px" y="0px"
	 viewBox="0 0 512 512" style="enable-background:new 0 0 512 512;" xml:space="preserve">
<path style="fill:#DBE9FD;" d="M5.565,150.261v345.043c0,9.217,7.479,16.696,16.696,16.696h467.478
	c9.217,0,16.696-7.479,16.696-16.696V150.261H5.565z"/>
<path style="fill:#C5DCFD;" d="M256,512h233.739c9.217,0,16.696-7.479,16.696-16.696V150.261H256V512z"/>
<path style="fill:#8FF0F0;" d="M222.609,445.217H55.652c-9.217,0-16.696-7.479-16.696-16.696V261.565
	c0-9.217,7.479-16.696,16.696-16.696h166.957c9.217,0,16.696,7.479,16.696,16.696v166.957
	C239.304,437.739,231.826,445.217,222.609,445.217z"/>
<path style="fill:#875334;" d="M439.652,512H306.087V261.565c0-9.22,7.475-16.696,16.696-16.696h100.174
	c9.22,0,16.696,7.475,16.696,16.696V512z"/>
<path style="fill:#DBE9FD;" d="M122.435,378.435c-4.272,0-8.544-1.631-11.804-4.892c-6.521-6.521-6.521-17.087,0-23.609
	l33.391-33.391c6.521-6.521,17.087-6.521,23.609,0c6.521,6.521,6.521,17.087,0,23.609l-33.391,33.391
	C130.979,376.804,126.707,378.435,122.435,378.435z"/>
<path style="fill:#EFBE44;" d="M55.652,200.348L55.652,200.348c-27.662,0-50.087-22.424-50.087-50.087V50.087
	C5.565,22.424,27.99,0,55.652,0h50.087v150.261C105.739,177.923,83.315,200.348,55.652,200.348z"/>
<path style="fill:#E4A738;" d="M456.348,200.348L456.348,200.348c-27.662,0-50.087-22.424-50.087-50.087V0h50.087
	c27.662,0,50.087,22.424,50.087,50.087v100.174C506.435,177.923,484.01,200.348,456.348,200.348z"/>
<path style="fill:#FF6243;" d="M155.826,200.348L155.826,200.348c-27.662,0-50.087-22.424-50.087-50.087V0h100.174v150.261
	C205.913,177.923,183.489,200.348,155.826,200.348z"/>
<path style="fill:#FF3501;" d="M356.174,200.348L356.174,200.348c-27.662,0-50.087-22.424-50.087-50.087V0h100.174v150.261
	C406.261,177.923,383.836,200.348,356.174,200.348z"/>
<path style="fill:#EFBE44;" d="M256,200.348L256,200.348c-27.662,0-50.087-22.424-50.087-50.087V0h100.174v150.261
	C306.087,177.923,283.662,200.348,256,200.348z"/>
<path style="fill:#E4A738;" d="M256,200.348c27.662,0,50.087-22.424,50.087-50.087V0H256V200.348z"/>
<g>
</g>
<g>
</g>
<g>
</g>
<g>
</g>
<g>
</g>
<g>
</g>
<g>
</g>
<g>
</g>
<g>
</g>
<g>
</g>
<g>
</g>
<g>
</g>
<g>
</g>
<g>
</g>
<g>
</g>
</svg>
