<?xml version="1.0" encoding="iso-8859-1"?>
<!-- Generator: Adobe Illustrator 19.0.0, SVG Export Plug-In . SVG Version: 6.00 Build 0)  -->
<svg version="1.1" id="Layer_1" xmlns="http://www.w3.org/2000/svg" xmlns:xlink="http://www.w3.org/1999/xlink" x="0px" y="0px"
	 viewBox="0 0 512 512" style="enable-background:new 0 0 512 512;" xml:space="preserve">
<path style="fill:#9DB0CA;" d="M116.87,239.304H50.087c-9.217,0-16.696-7.479-16.696-16.696v-66.783
	c0-9.217,7.479-16.696,16.696-16.696h33.391c27.619,0,50.087,22.468,50.087,50.087v33.391
	C133.565,231.826,126.087,239.304,116.87,239.304z"/>
<path style="fill:#8A9199;" d="M110.649,473.043c-2.511,0-5.054-0.565-7.456-1.761c-8.25-4.13-11.587-14.152-7.467-22.402
	l17.337-34.674c4.131-8.25,14.163-11.555,22.402-7.467c8.25,4.131,11.587,14.152,7.467,22.402l-17.337,34.674
	C122.67,469.663,116.768,473.043,110.649,473.043z"/>
<path style="fill:#737980;" d="M401.339,473.043c-6.12,0-12.022-3.38-14.946-9.228l-17.326-34.674
	c-4.119-8.25-0.771-18.283,7.467-22.402c8.261-4.087,18.283-0.782,22.402,7.467l17.326,34.674c4.119,8.25,0.771,18.283-7.467,22.402
	C406.393,472.478,403.85,473.043,401.339,473.043z"/>
<path style="fill:#B1C6E4;" d="M361.739,439.652H150.261c-64.445,0-116.87-52.424-116.87-116.87v-33.391
	c0-9.217,7.479-16.696,16.696-16.696h411.826c9.217,0,16.696,7.479,16.696,16.696v33.391
	C478.609,387.228,426.184,439.652,361.739,439.652z"/>
<path style="fill:#9DB0CA;" d="M461.913,272.696H256v166.957h105.739c64.445,0,116.87-52.424,116.87-116.87v-33.391
	C478.609,280.174,471.13,272.696,461.913,272.696z"/>
<path style="fill:#B1C6E4;" d="M50.087,239.31c-9.217,0-16.696-7.479-16.696-16.696V89.043c0-27.619,22.468-50.087,50.087-50.087
	s50.087,22.468,50.087,50.087c0,9.223-7.479,16.696-16.696,16.696s-16.696-7.473-16.696-16.696c0-9.206-7.49-16.696-16.696-16.696
	s-16.696,7.49-16.696,16.696v133.571C66.783,231.831,59.304,239.31,50.087,239.31z"/>
<path style="fill:#DBE9FD;" d="M461.913,306.087H50.087C22.468,306.087,0,283.619,0,256s22.468-50.087,50.087-50.087h411.826
	C489.532,205.913,512,228.381,512,256S489.532,306.087,461.913,306.087z"/>
<path style="fill:#C5DCFD;" d="M461.913,205.913H256v100.174h205.913C489.532,306.087,512,283.619,512,256
	S489.532,205.913,461.913,205.913z"/>
<g>
</g>
<g>
</g>
<g>
</g>
<g>
</g>
<g>
</g>
<g>
</g>
<g>
</g>
<g>
</g>
<g>
</g>
<g>
</g>
<g>
</g>
<g>
</g>
<g>
</g>
<g>
</g>
<g>
</g>
</svg>
