<?xml version="1.0" encoding="iso-8859-1"?>
<!-- Generator: Adobe Illustrator 19.0.0, SVG Export Plug-In . SVG Version: 6.00 Build 0)  -->
<svg version="1.1" id="Layer_1" xmlns="http://www.w3.org/2000/svg" xmlns:xlink="http://www.w3.org/1999/xlink" x="0px" y="0px"
	 viewBox="0 0 512 512" style="enable-background:new 0 0 512 512;" xml:space="preserve">
<path style="fill:#B1C6E4;" d="M461.913,239.304H395.13c-9.217,0-16.696,7.479-16.696,16.696v43.826
	c0,21.869,17.783,39.652,39.652,39.652h20.87c21.869,0,39.652-17.783,39.652-39.652V256
	C478.609,246.783,471.13,239.304,461.913,239.304z"/>
<path style="fill:#9DB0CA;" d="M461.913,239.304h-33.391v100.174h10.435c21.869,0,39.652-17.783,39.652-39.652V256
	C478.609,246.783,471.13,239.304,461.913,239.304z"/>
<path style="fill:#C5DCFD;" d="M463.423,139.13l-75.457,0.13c-19.772,0.022-39.066,3.88-56.934,11.304l-153.381,59.011
	l6.012,196.685c3.467,0,6.968-1.076,9.956-3.305l160.25-119.283c8.848-7.076,19.967-10.978,31.293-10.978h81.12
	c25.206,0,45.717-20.511,45.717-45.717V187.62C512,161.173,490.794,139.222,463.423,139.13z"/>
<g>
	<path style="fill:#B1C6E4;" d="M463.423,139.13l-34.902,0.06v133.505h37.761c25.206,0,45.717-20.511,45.717-45.717V187.62
		C512,161.173,490.794,139.222,463.423,139.13z"/>
	<path style="fill:#B1C6E4;" d="M200.348,489.739c0,9.22-7.475,16.696-16.696,16.696H16.696C7.475,506.435,0,498.96,0,489.739
		V122.435h183.652c9.22,0,16.696,7.475,16.696,16.696V489.739z"/>
</g>
<path style="fill:#DBE9FD;" d="M83.478,439.652c-9.217,0-16.696-7.479-16.696-16.696V205.913c0-9.217,7.479-16.696,16.696-16.696
	s16.696,7.479,16.696,16.696v217.043C100.174,432.174,92.695,439.652,83.478,439.652z"/>
<path style="fill:#8FF0F0;" d="M428.522,506.435c-36.826,0-66.783-29.956-66.783-66.783c0-32.413,45.283-84.511,54.359-94.631
	c6.327-7.066,18.522-7.066,24.848,0c9.076,10.12,54.359,62.218,54.359,94.631C495.304,476.478,465.348,506.435,428.522,506.435z"/>
<path style="fill:#87D7D7;" d="M495.304,439.652c0-32.413-45.283-84.511-54.359-94.631c-3.163-3.533-7.794-5.299-12.424-5.299
	v166.713C465.348,506.435,495.304,476.478,495.304,439.652z"/>
<path style="fill:#C5DCFD;" d="M367.304,55.652c0,21.927-14.692,41.628-35.617,47.972l-131.005,52.202l-100.508,0.445l-83.478-0.445
	H0v-41.183c0-42.073,31.388-77.69,73.127-82.922c0.223,0,10.685-1.113,27.047-2.894c63.332-6.79,215.93-23.263,217.043-23.263
	C344.821,5.565,367.304,28.049,367.304,55.652z"/>
<g>
</g>
<g>
</g>
<g>
</g>
<g>
</g>
<g>
</g>
<g>
</g>
<g>
</g>
<g>
</g>
<g>
</g>
<g>
</g>
<g>
</g>
<g>
</g>
<g>
</g>
<g>
</g>
<g>
</g>
</svg>
