<?xml version="1.0" encoding="iso-8859-1"?>
<!-- Generator: Adobe Illustrator 19.0.0, SVG Export Plug-In . SVG Version: 6.00 Build 0)  -->
<svg version="1.1" id="Layer_1" xmlns="http://www.w3.org/2000/svg" xmlns:xlink="http://www.w3.org/1999/xlink" x="0px" y="0px"
	 viewBox="0 0 512.001 512.001" style="enable-background:new 0 0 512.001 512.001;" xml:space="preserve">
<path style="fill:#D99E62;" d="M182.26,155.826l20.87-83.478c0-9.223-7.479-16.696-16.696-16.696H16.694
	c-5.369,0-10.403,2.581-13.544,6.934C0.01,66.94-0.838,72.537,0.857,77.625l32.533,78.201H182.26z"/>
<path style="fill:#FFC080;" d="M178.086,489.74H66.782c-18.442,0-33.391-14.949-33.391-33.391V155.826h144.696V489.74z"/>
<path style="fill:#FFD9B3;" d="M428.521,489.74H144.695V155.826h333.914v283.827C478.608,467.315,456.184,489.74,428.521,489.74z"/>
<path style="fill:#FFC080;" d="M478.608,155.826H311.652V489.74h116.87c27.663,0,50.087-22.425,50.087-50.087V155.826z"/>
<g>
	<path style="fill:#95673F;" d="M395.13,422.957H228.173c-9.217,0-16.696-7.473-16.696-16.696c0-9.223,7.479-16.696,16.696-16.696
		H395.13c9.217,0,16.696,7.473,16.696,16.696C411.826,415.484,404.347,422.957,395.13,422.957z"/>
	<path style="fill:#95673F;" d="M306.76,260.891l-33.381-33.381c-3.263-3.268-7.719-4.901-11.814-4.901
		c-4.312,0-8.649,1.733-11.814,4.901l-33.381,33.381c-6.521,6.516-6.521,17.092,0,23.609c6.521,6.521,17.087,6.521,23.609,0
		l4.892-4.892v59.871c0,9.223,7.479,16.696,16.696,16.696s16.696-7.473,16.696-16.696v-59.87l4.892,4.892
		c6.522,6.522,17.086,6.522,23.609,0C313.282,277.984,313.282,267.408,306.76,260.891z"/>
</g>
<g>
	<path style="fill:#875334;" d="M406.934,260.891l-33.381-33.381c-3.263-3.268-7.719-4.901-11.814-4.901
		c-4.312,0-8.649,1.733-11.814,4.901l-33.381,33.381c-6.521,6.516-6.521,17.092,0,23.609c6.521,6.521,17.087,6.521,23.609,0
		l4.892-4.892v59.871c0,9.223,7.479,16.696,16.696,16.696c9.217,0,16.696-7.473,16.696-16.696v-59.87l4.892,4.892
		c6.522,6.522,17.086,6.522,23.609,0C413.456,277.984,413.456,267.408,406.934,260.891z"/>
	<path style="fill:#875334;" d="M395.13,389.566h-83.478v33.391h83.478c9.217,0,16.696-7.473,16.696-16.696
		C411.826,397.039,404.347,389.566,395.13,389.566z"/>
</g>
<path style="fill:#E6B78A;" d="M478.608,155.826L511.5,43.005c1.25-4.989,0.13-10.272-3.033-14.326
	c-3.163-4.048-8.022-6.418-13.163-6.418H194.782c-7.663,0-14.337,5.212-16.196,12.646l-33.891,120.919H478.608z"/>
<path style="fill:#D99E62;" d="M508.467,28.679c-3.163-4.048-8.022-6.418-13.163-6.418H349.372l-37.72,133.566h166.957L511.5,43.005
	C512.75,38.016,511.63,32.733,508.467,28.679z"/>
<g>
</g>
<g>
</g>
<g>
</g>
<g>
</g>
<g>
</g>
<g>
</g>
<g>
</g>
<g>
</g>
<g>
</g>
<g>
</g>
<g>
</g>
<g>
</g>
<g>
</g>
<g>
</g>
<g>
</g>
</svg>
