<?xml version="1.0" encoding="iso-8859-1"?>
<!-- Generator: Adobe Illustrator 19.0.0, SVG Export Plug-In . SVG Version: 6.00 Build 0)  -->
<svg version="1.1" id="Layer_1" xmlns="http://www.w3.org/2000/svg" xmlns:xlink="http://www.w3.org/1999/xlink" x="0px" y="0px"
	 viewBox="0 0 512 512" style="enable-background:new 0 0 512 512;" xml:space="preserve">
<rect x="411.826" y="100.174" style="fill:#6BBAE2;" width="100.174" height="345.043"/>
<rect x="461.913" y="100.174" style="fill:#60AED5;" width="50.087" height="345.043"/>
<path style="fill:#DDEBFF;" d="M361.739,512H16.696C7.479,512,0,504.527,0,495.304V16.696C0,7.473,7.479,0,16.696,0h345.043
	c9.217,0,16.696,7.473,16.696,16.696v478.609C378.435,504.527,370.956,512,361.739,512z"/>
<path style="fill:#C5DCFD;" d="M361.739,0H189.217v512h172.522c9.217,0,16.696-7.473,16.696-16.696V16.696
	C378.435,7.473,370.956,0,361.739,0z"/>
<path style="fill:#A1AAB3;" d="M228.174,100.174h-77.913c-9.217,0-16.696-7.473-16.696-16.696s7.479-16.696,16.696-16.696h77.913
	c9.217,0,16.696,7.473,16.696,16.696S237.391,100.174,228.174,100.174z"/>
<path style="fill:#8A9199;" d="M294.957,233.739h-77.913c-9.217,0-16.696-7.473-16.696-16.696s7.479-16.696,16.696-16.696h77.913
	c9.217,0,16.696,7.473,16.696,16.696S304.174,233.739,294.957,233.739z"/>
<g>
	<path style="fill:#A1AAB3;" d="M150.261,233.739H83.478c-9.217,0-16.696-7.473-16.696-16.696s7.479-16.696,16.696-16.696h66.783
		c9.217,0,16.696,7.473,16.696,16.696S159.478,233.739,150.261,233.739z"/>
	<path style="fill:#A1AAB3;" d="M172.522,367.304H83.478c-9.217,0-16.696-7.473-16.696-16.696s7.479-16.696,16.696-16.696h89.043
		c9.217,0,16.696,7.473,16.696,16.696S181.739,367.304,172.522,367.304z"/>
</g>
<g>
	<path style="fill:#8A9199;" d="M294.957,367.304h-55.652c-9.217,0-16.696-7.473-16.696-16.696s7.479-16.696,16.696-16.696h55.652
		c9.217,0,16.696,7.473,16.696,16.696S304.174,367.304,294.957,367.304z"/>
	<path style="fill:#8A9199;" d="M228.174,66.783h-38.957v33.391h38.957c9.217,0,16.696-7.473,16.696-16.696
		S237.391,66.783,228.174,66.783z"/>
</g>
<path style="fill:#A1AAB3;" d="M294.957,166.957H83.478c-9.217,0-16.696-7.473-16.696-16.696s7.479-16.696,16.696-16.696h211.478
	c9.217,0,16.696,7.473,16.696,16.696S304.174,166.957,294.957,166.957z"/>
<path style="fill:#8A9199;" d="M294.957,133.565H189.217v33.391h105.739c9.217,0,16.696-7.473,16.696-16.696
	S304.174,133.565,294.957,133.565z"/>
<path style="fill:#A1AAB3;" d="M294.957,300.522H83.478c-9.217,0-16.696-7.473-16.696-16.696s7.479-16.696,16.696-16.696h211.478
	c9.217,0,16.696,7.473,16.696,16.696S304.174,300.522,294.957,300.522z"/>
<path style="fill:#8A9199;" d="M294.957,267.13H189.217v33.391h105.739c9.217,0,16.696-7.473,16.696-16.696
	S304.174,267.13,294.957,267.13z"/>
<path style="fill:#A1AAB3;" d="M294.957,434.087H83.478c-9.217,0-16.696-7.473-16.696-16.696s7.479-16.696,16.696-16.696h211.478
	c9.217,0,16.696,7.473,16.696,16.696S304.174,434.087,294.957,434.087z"/>
<path style="fill:#8A9199;" d="M294.957,400.696H189.217v33.391h105.739c9.217,0,16.696-7.473,16.696-16.696
	S304.174,400.696,294.957,400.696z"/>
<path style="fill:#6E6057;" d="M411.826,411.826v50.087c0,13.385,5.218,25.962,14.674,35.413
	c9.456,9.462,22.033,14.674,35.413,14.674s25.956-5.212,35.413-14.669c9.456-9.456,14.674-22.033,14.674-35.418v-50.087H411.826z"/>
<path style="fill:#615349;" d="M461.913,512c13.38,0,25.956-5.212,35.413-14.669c9.456-9.456,14.674-22.033,14.674-35.418v-50.087
	h-50.087V512z"/>
<path style="fill:#FFD9B3;" d="M512,100.174V83.478c0-2.592-0.609-5.147-1.761-7.467L476.848,9.228
	C474.022,3.571,468.24,0,461.913,0s-12.109,3.571-14.935,9.228l-33.391,66.783c-1.152,2.321-1.761,4.875-1.761,7.467v16.696H512z"/>
<path style="fill:#FFC080;" d="M512,100.174V83.478c0-2.592-0.609-5.147-1.761-7.467L476.848,9.228
	C474.022,3.571,468.24,0,461.913,0v100.174H512z"/>
<g>
</g>
<g>
</g>
<g>
</g>
<g>
</g>
<g>
</g>
<g>
</g>
<g>
</g>
<g>
</g>
<g>
</g>
<g>
</g>
<g>
</g>
<g>
</g>
<g>
</g>
<g>
</g>
<g>
</g>
</svg>
