<?xml version="1.0" encoding="iso-8859-1"?>
<!-- Generator: Adobe Illustrator 19.0.0, SVG Export Plug-In . SVG Version: 6.00 Build 0)  -->
<svg version="1.1" id="Layer_1" xmlns="http://www.w3.org/2000/svg" xmlns:xlink="http://www.w3.org/1999/xlink" x="0px" y="0px"
	 viewBox="0 0 512 512" style="enable-background:new 0 0 512 512;" xml:space="preserve">
<path style="fill:#B1C6E4;" d="M320.794,199.54l-26.293-98.13c-5.271-19.685-21.283-34.055-40.804-36.619
	c-12.66-1.648-25.292-2.443-37.862-2.583l57.337,209.88c10.474-6.256,20.759-12.92,30.591-20.449
	C319.391,239.671,326.076,219.214,320.794,199.54z"/>
<path style="fill:#C5DCFD;" d="M21.25,127.073C5.62,139.04-1.065,159.497,4.217,179.181l26.293,98.13
	c5.271,19.695,21.294,34.065,40.804,36.609c13.605,1.771,27.177,2.649,40.677,2.682L52.018,106.327
	C41.458,112.621,31.16,119.486,21.25,127.073z"/>
<path style="fill:#DBE9FD;" d="M215.832,62.206c-18.188-0.203-36.389,1.332-54.441,4.296
	c-37.777,6.202-74.845,19.247-109.373,39.825l59.974,210.275c0.252,0.001,0.505,0.025,0.758,0.025
	c16.047,0,32.334-1.446,48.641-4.056c38.075-6.094,76.261-19.27,111.78-40.485L215.832,62.206z"/>
<path style="fill:#C5DCFD;" d="M215.832,62.206c-18.188-0.203-36.389,1.332-54.441,4.296V312.57
	c38.075-6.094,76.261-19.27,111.78-40.485L215.832,62.206z"/>
<path style="fill:#A1A9AF;" d="M333.913,282.855H16.696C7.473,282.855,0,290.334,0,299.551v66.783
	c0,9.217,7.473,16.696,16.696,16.696h317.217V282.855z"/>
<rect x="150.261" y="282.858" style="fill:#8A9096;" width="183.652" height="100.174"/>
<path style="fill:#6E6057;" d="M116.87,449.812c-27.619,0-50.087-22.468-50.087-50.087s22.468-50.087,50.087-50.087
	s50.087,22.468,50.087,50.087S144.489,449.812,116.87,449.812z"/>
<path style="fill:#615349;" d="M166.957,399.725c0-27.619-22.468-50.087-50.087-50.087v100.174
	C144.489,449.812,166.957,427.344,166.957,399.725z"/>
<path style="fill:#8EB043;" d="M374.762,82.508h-57.544c-9.238,0-16.696,7.457-16.696,16.696v217.043v50.087v16.696h161.391
	c27.603,0,50.087-22.483,50.087-50.087V219.746C512,144.058,450.449,82.508,374.762,82.508z"/>
<path style="fill:#615349;" d="M512,219.745v29.718H384c-9.238,0-16.696-7.457-16.696-16.696V82.507h7.457
	C450.449,82.508,512,144.058,512,219.745z"/>
<path style="fill:#6E6057;" d="M395.13,449.812c-27.619,0-50.087-22.468-50.087-50.087s22.468-50.087,50.087-50.087
	c27.619,0,50.087,22.468,50.087,50.087S422.749,449.812,395.13,449.812z"/>
<path style="fill:#615349;" d="M445.217,399.725c0-27.619-22.468-50.087-50.087-50.087v100.174
	C422.749,449.812,445.217,427.344,445.217,399.725z"/>
<path style="fill:#C5DCFD;" d="M512,282.855h-50.087c-9.223,0-16.696,7.479-16.696,16.696c0,9.217,7.473,16.696,16.696,16.696H512
	V282.855z"/>
<path style="fill:#DBE9FD;" d="M116.87,383.029c-9.206,0-16.696,7.49-16.696,16.696c0,9.206,7.49,16.696,16.696,16.696
	s16.696-7.49,16.696-16.696C133.565,390.519,126.076,383.029,116.87,383.029z"/>
<path style="fill:#C5DCFD;" d="M133.565,399.725c0-9.206-7.49-16.696-16.696-16.696v33.391
	C126.076,416.421,133.565,408.931,133.565,399.725z"/>
<path style="fill:#DBE9FD;" d="M395.13,383.029c-9.206,0-16.696,7.49-16.696,16.696c0,9.206,7.49,16.696,16.696,16.696
	c9.206,0,16.696-7.49,16.696-16.696C411.826,390.519,404.336,383.029,395.13,383.029z"/>
<path style="fill:#C5DCFD;" d="M411.826,399.725c0-9.206-7.49-16.696-16.696-16.696v33.391
	C404.336,416.421,411.826,408.931,411.826,399.725z"/>
<g>
</g>
<g>
</g>
<g>
</g>
<g>
</g>
<g>
</g>
<g>
</g>
<g>
</g>
<g>
</g>
<g>
</g>
<g>
</g>
<g>
</g>
<g>
</g>
<g>
</g>
<g>
</g>
<g>
</g>
</svg>
