<?xml version="1.0" encoding="iso-8859-1"?>
<!-- Generator: Adobe Illustrator 19.0.0, SVG Export Plug-In . SVG Version: 6.00 Build 0)  -->
<svg version="1.1" id="Layer_1" xmlns="http://www.w3.org/2000/svg" xmlns:xlink="http://www.w3.org/1999/xlink" x="0px" y="0px"
	 viewBox="0 0 512 512" style="enable-background:new 0 0 512 512;" xml:space="preserve">
<path style="fill:#DBE9FD;" d="M389.662,66.461H122.338c-27.639,0-50.123,22.484-50.123,50.123v345.293
	c0,27.639,22.484,50.123,50.123,50.123h267.323c27.639,0,50.123-22.484,50.123-50.123V116.584
	C439.785,88.945,417.301,66.461,389.662,66.461z"/>
<path style="fill:#C5DCFD;" d="M389.662,66.461H256V512h133.662c27.639,0,50.123-22.484,50.123-50.123V116.584
	C439.785,88.945,417.301,66.461,389.662,66.461z"/>
<path style="fill:#6BBAE2;" d="M289.416,244.677h-66.831c-9.224,0-16.708-7.478-16.708-16.708v-61.262h-50.123
	c-6.331,0-12.118-3.573-14.946-9.235c-2.828-5.662-2.219-12.433,1.577-17.496L242.632,6.315c6.309-8.42,20.428-8.42,26.737,0
	l100.246,133.662c3.796,5.064,4.405,11.835,1.577,17.496c-2.828,5.662-8.615,9.235-14.946,9.235h-50.123v61.262
	C306.123,237.199,298.639,244.677,289.416,244.677z"/>
<path style="fill:#8A9199;" d="M356.246,311.508h-27.128c-9.224,0-16.708-7.478-16.708-16.708c0-9.229,7.484-16.708,16.708-16.708
	h27.128c9.224,0,16.708,7.478,16.708,16.708C372.954,304.029,365.47,311.508,356.246,311.508z"/>
<g>
	<path style="fill:#A1AAB3;" d="M262.288,311.508H155.754c-9.224,0-16.708-7.478-16.708-16.708c0-9.229,7.484-16.708,16.708-16.708
		h106.534c9.224,0,16.708,7.478,16.708,16.708C278.996,304.029,271.512,311.508,262.288,311.508z"/>
	<path style="fill:#A1AAB3;" d="M356.246,378.339H155.754c-9.224,0-16.708-7.478-16.708-16.708c0-9.229,7.484-16.708,16.708-16.708
		h200.493c9.224,0,16.708,7.478,16.708,16.708C372.954,370.86,365.47,378.339,356.246,378.339z"/>
	<path style="fill:#A1AAB3;" d="M356.246,445.169H155.754c-9.224,0-16.708-7.478-16.708-16.708c0-9.229,7.484-16.708,16.708-16.708
		h200.493c9.224,0,16.708,7.478,16.708,16.708C372.954,437.691,365.47,445.169,356.246,445.169z"/>
</g>
<g>
	<path style="fill:#8A9199;" d="M356.246,411.754H256v33.415h100.246c9.224,0,16.708-7.478,16.708-16.708
		C372.954,419.232,365.47,411.754,356.246,411.754z"/>
	<path style="fill:#8A9199;" d="M356.246,344.923H256v33.415h100.246c9.224,0,16.708-7.478,16.708-16.708
		C372.954,352.402,365.47,344.923,356.246,344.923z"/>
</g>
<path style="fill:#A9B0B7;" d="M262.288,278.092H256v33.415h6.288c9.224,0,16.708-7.478,16.708-16.708
	C278.996,285.571,271.512,278.092,262.288,278.092z"/>
<path style="fill:#60AED5;" d="M289.416,244.677c9.224,0,16.708-7.478,16.708-16.708v-61.262h50.123
	c6.331,0,12.118-3.573,14.946-9.235c2.828-5.662,2.219-12.433-1.577-17.496L269.369,6.315C266.214,2.105,261.107,0,256,0v244.677
	H289.416z"/>
<g>
</g>
<g>
</g>
<g>
</g>
<g>
</g>
<g>
</g>
<g>
</g>
<g>
</g>
<g>
</g>
<g>
</g>
<g>
</g>
<g>
</g>
<g>
</g>
<g>
</g>
<g>
</g>
<g>
</g>
</svg>
