<?xml version="1.0" encoding="iso-8859-1"?>
<!-- Generator: Adobe Illustrator 19.0.0, SVG Export Plug-In . SVG Version: 6.00 Build 0)  -->
<svg version="1.1" id="Layer_1" xmlns="http://www.w3.org/2000/svg" xmlns:xlink="http://www.w3.org/1999/xlink" x="0px" y="0px"
	 viewBox="0 0 512 512" style="enable-background:new 0 0 512 512;" xml:space="preserve">
<path style="fill:#95673F;" d="M217.043,0H116.87c-9.217,0-16.696,7.473-16.696,16.696v66.783h133.565V16.696
	C233.739,7.473,226.261,0,217.043,0z"/>
<path style="fill:#DBE9FD;" d="M0,200.348v294.956C0,504.525,7.475,512,16.696,512h478.609c9.22,0,16.696-7.475,16.696-16.696
	V200.348H0z"/>
<path style="fill:#C5DCFD;" d="M256,512h239.304c9.22,0,16.696-7.475,16.696-16.696V200.348H256V512z"/>
<path style="fill:#FF6243;" d="M512,200.348l-61.826-126.13c-3.098-4.647-8.304-7.435-13.891-7.435H91.24
	c-5.587,0-10.793,2.788-13.891,7.435L0,200.348H512z"/>
<path style="fill:#FF3501;" d="M436.283,66.783H256v133.565h256l-61.826-126.13C447.076,69.571,441.869,66.783,436.283,66.783z"/>
<path style="fill:#A1AAB3;" d="M217.043,400.696H83.478c-9.217,0-16.696-7.473-16.696-16.696V250.435
	c0-9.223,7.479-16.696,16.696-16.696h133.565c9.217,0,16.696,7.473,16.696,16.696V384
	C233.739,393.223,226.261,400.696,217.043,400.696z"/>
<path style="fill:#ECEFF0;" d="M100.174,367.304h100.174V267.13H100.174V367.304z"/>
<g>
	<rect x="66.783" y="300.522" style="fill:#A1AAB3;" width="166.957" height="33.391"/>
	<rect x="133.565" y="233.739" style="fill:#A1AAB3;" width="33.391" height="100.174"/>
</g>
<path style="fill:#875334;" d="M445.217,512H278.261V250.435c0-9.22,7.475-16.696,16.696-16.696h133.565
	c9.22,0,16.696,7.475,16.696,16.696V512z"/>
<path style="fill:#E79D2E;" d="M328.348,367.304h-50.087v-33.391h50.087c9.22,0,16.696,7.475,16.696,16.696l0,0
	C345.043,359.829,337.568,367.304,328.348,367.304z"/>
<g>
</g>
<g>
</g>
<g>
</g>
<g>
</g>
<g>
</g>
<g>
</g>
<g>
</g>
<g>
</g>
<g>
</g>
<g>
</g>
<g>
</g>
<g>
</g>
<g>
</g>
<g>
</g>
<g>
</g>
</svg>
