<?xml version="1.0" encoding="iso-8859-1"?>
<!-- Generator: Adobe Illustrator 19.0.0, SVG Export Plug-In . SVG Version: 6.00 Build 0)  -->
<svg version="1.1" id="Layer_1" xmlns="http://www.w3.org/2000/svg" xmlns:xlink="http://www.w3.org/1999/xlink" x="0px" y="0px"
	 viewBox="0 0 512 512" style="enable-background:new 0 0 512 512;" xml:space="preserve">
<path style="fill:#E6B78A;" d="M489.739,144.696h-131.45c-27.158,0-53.426,11.353-72.014,31.054L256,207.694l-64.89,68.452
	c-25.266,26.713-24.71,68.007,1.336,94.052c3.005,3.005,6.233,5.677,9.572,8.014c-2.337,0.111-4.563,0.223-6.901,0.223H72.682
	c-36.953,0-67.117,30.163-67.117,67.116c0,36.73,29.05,65.892,66.449,66.449h165.955c6.01,0,12.021-0.223,18.031-0.779
	c46.525-3.784,88.487-22.706,119.986-54.094l72.57-72.57l51.868-43.409c3.784-3.116,6.01-7.903,6.01-12.8V161.391
	C506.435,152.153,498.977,144.696,489.739,144.696z"/>
<path style="fill:#D99E62;" d="M506.435,161.391v166.957c0,4.897-2.226,9.684-6.01,12.8l-51.868,43.409l-72.57,72.57
	c-31.499,31.388-73.461,50.31-119.986,54.094V207.694l30.275-31.944c18.588-19.701,44.856-31.054,72.014-31.054h131.45
	C498.977,144.696,506.435,152.153,506.435,161.391z"/>
<path style="fill:#615349;" d="M489.739,378.435c-9.217,0-16.696-7.473-16.696-16.696V128c0-9.223,7.479-16.696,16.696-16.696
	c9.217,0,16.696,7.473,16.696,16.696v233.739C506.435,370.962,498.956,378.435,489.739,378.435z"/>
<path style="fill:#EFBE44;" d="M105.739,0C50.505,0,5.565,44.94,5.565,100.174c0,36.065,19.337,69.022,50.087,86.777v96.875
	c0,4.429,1.761,8.674,4.892,11.804l33.391,33.391c3.26,3.261,7.532,4.892,11.804,4.892s8.544-1.631,11.804-4.892l33.391-33.391
	c3.131-3.13,4.892-7.375,4.892-11.804v-96.875c30.75-17.755,50.087-50.712,50.087-86.777C205.913,44.94,160.973,0,105.739,0z
	 M105.738,100.174c-9.22,0-16.696-7.475-16.696-16.696s7.475-16.696,16.696-16.696s16.696,7.475,16.696,16.696
	S114.96,100.174,105.738,100.174z"/>
<path style="fill:#FFD9B3;" d="M358.289,178.087c-18.031,0-35.395,7.457-47.75,20.591L256,256.223l-40.626,42.852
	c-12.689,13.468-12.466,34.393,0.668,47.527c10.797,10.797,27.158,12.8,39.958,6.122c2.894-1.558,5.788-3.673,8.237-6.122
	l55.096-55.096c6.567-6.567,17.03-6.567,23.597,0s6.567,17.03,0,23.597l-60.55,60.55c-8.014,8.014-16.807,14.692-26.379,20.146
	c-18.365,10.463-39.179,16.028-60.883,16.028H72.682c-18.588,0-33.725,15.137-33.725,33.725c0,18.254,14.581,32.835,33.28,33.057
	h163.729c6.79,0,13.468-0.334,20.035-1.002c37.621-3.784,71.235-18.922,96.39-44.077l73.016-73.127
	c0.89-0.779,46.637-39.068,47.638-39.847v-142.47H358.289z"/>
<path style="fill:#FFC080;" d="M473.043,178.087v142.47c-1.002,0.779-46.748,39.068-47.638,39.847L352.39,433.53
	c-25.155,25.155-58.769,40.292-96.39,44.077v-81.809c9.572-5.454,18.365-12.132,26.379-20.146l60.55-60.55
	c6.567-6.567,6.567-17.03,0-23.597s-17.03-6.567-23.597,0l-55.096,55.096c-2.449,2.449-5.343,4.563-8.237,6.122v-96.501
	l54.539-57.544c12.355-13.134,29.718-20.591,47.75-20.591H473.043z"/>
<g>
</g>
<g>
</g>
<g>
</g>
<g>
</g>
<g>
</g>
<g>
</g>
<g>
</g>
<g>
</g>
<g>
</g>
<g>
</g>
<g>
</g>
<g>
</g>
<g>
</g>
<g>
</g>
<g>
</g>
</svg>
