<?xml version="1.0" encoding="iso-8859-1"?>
<!-- Generator: Adobe Illustrator 19.0.0, SVG Export Plug-In . SVG Version: 6.00 Build 0)  -->
<svg version="1.1" id="Layer_1" xmlns="http://www.w3.org/2000/svg" xmlns:xlink="http://www.w3.org/1999/xlink" x="0px" y="0px"
	 viewBox="0 0 512 512" style="enable-background:new 0 0 512 512;" xml:space="preserve">
<path style="fill:#6E6057;" d="M302.199,346.334l-10.133-10.133c-9.634-9.634-22.445-14.939-36.066-14.939
	c-10.078,0-19.709,2.912-27.94,8.324c-16.856-33.488-51.552-56.519-91.526-56.519c-49.91,0-91.591,35.9-100.592,83.231
	c-1.165-3.181-1.808-6.605-1.808-10.164v-260.8c0-9.411,7.656-17.067,17.067-17.067s17.067,7.656,17.067,17.067
	c0,9.428,7.639,17.067,17.067,17.067S102.4,94.761,102.4,85.333c0-28.233-22.967-51.2-51.2-51.2S0,57.101,0,85.333v260.8
	c0,25.797,15.304,48.443,38.312,58.3c12.527,42.399,51.817,73.433,98.221,73.433c56.461,0,102.4-45.939,102.4-102.4
	c0-3.221-0.157-6.405-0.449-9.551l5.583-5.582c6.577-6.577,17.289-6.577,23.867,0l10.133,10.133
	c3.334,3.334,7.701,5.001,12.066,5.001s8.734-1.667,12.066-5.001C308.867,363.806,308.867,352.994,302.199,346.334z"/>
<path style="fill:#615349;" d="M460.8,34.133c-28.233,0-51.2,22.967-51.2,51.2c0,9.428,7.639,17.067,17.067,17.067
	s17.067-7.639,17.067-17.067c0-9.411,7.656-17.067,17.067-17.067s17.067,7.656,17.067,17.067v256c0,4.342-0.832,8.521-2.331,12.388
	c-10-46.05-51.068-80.655-100.069-80.655c-39.975,0-74.67,23.031-91.526,56.518c-8.232-5.412-17.862-8.324-27.94-8.324V355.4
	c4.322,0,8.645,1.644,11.933,4.933l5.583,5.582c-0.292,3.147-0.449,6.331-0.449,9.552c0,56.461,45.939,102.4,102.4,102.4
	c47.142,0,86.94-32.027,98.797-75.462C497.187,390.988,512,367.563,512,341.333v-256C512,57.101,489.033,34.133,460.8,34.133z"/>
<path style="fill:#DADFE4;" d="M375.467,307.2c-37.645,0-68.267,30.622-68.267,68.267s30.622,68.267,68.267,68.267
	s68.267-30.622,68.267-68.267S413.111,307.2,375.467,307.2z"/>
<path style="fill:#ECEFF0;" d="M136.533,307.2c-37.645,0-68.267,30.622-68.267,68.267s30.622,68.267,68.267,68.267
	s68.267-30.622,68.267-68.267S174.178,307.2,136.533,307.2z"/>
<g>
</g>
<g>
</g>
<g>
</g>
<g>
</g>
<g>
</g>
<g>
</g>
<g>
</g>
<g>
</g>
<g>
</g>
<g>
</g>
<g>
</g>
<g>
</g>
<g>
</g>
<g>
</g>
<g>
</g>
</svg>
