<?xml version="1.0" encoding="iso-8859-1"?>
<!-- Generator: Adobe Illustrator 19.0.0, SVG Export Plug-In . SVG Version: 6.00 Build 0)  -->
<svg version="1.1" id="Layer_1" xmlns="http://www.w3.org/2000/svg" xmlns:xlink="http://www.w3.org/1999/xlink" x="0px" y="0px"
	 viewBox="0 0 512 512" style="enable-background:new 0 0 512 512;" xml:space="preserve">
<g>
	<path style="fill:#615349;" d="M256,111.304c-9.217,0-16.696-7.473-16.696-16.696V16.696C239.304,7.473,246.783,0,256,0
		s16.696,7.473,16.696,16.696v77.913C272.696,103.831,265.217,111.304,256,111.304z"/>
	<path style="fill:#615349;" d="M272.696,94.609V16.696C272.696,7.473,265.217,0,256,0v111.304
		C265.217,111.304,272.696,103.831,272.696,94.609z"/>
</g>
<path style="fill:#95673F;" d="M256,77.913c-38.025,0-83.478,26.366-83.478,93.157c0,9.223,7.479,16.696,16.696,16.696h133.565
	c9.217,0,16.696-7.473,16.696-16.696C339.478,108.546,298.34,77.913,256,77.913z"/>
<path style="fill:#875334;" d="M322.783,187.766c9.217,0,16.696-7.473,16.696-16.696c0-62.523-41.138-93.157-83.478-93.157v109.853
	H322.783z"/>
<path style="fill:#F6DF5A;" d="M356.174,378.435H155.826c-9.217,0-16.696,7.473-16.696,16.696C139.13,459.571,191.555,512,256,512
	s116.87-52.429,116.87-116.87C372.87,385.908,365.391,378.435,356.174,378.435z"/>
<path style="fill:#F0CA45;" d="M356.174,378.435H256V512c64.445,0,116.87-52.429,116.87-116.87
	C372.87,385.908,365.391,378.435,356.174,378.435z"/>
<path style="fill:#FF6243;" d="M489.739,411.826H22.261c-9.217,0-16.696-7.473-16.696-16.696
	c0-138.092,112.347-250.435,250.435-250.435S506.435,257.038,506.435,395.13C506.435,404.353,498.956,411.826,489.739,411.826z"/>
<path style="fill:#FF3501;" d="M489.739,411.826c9.217,0,16.696-7.473,16.696-16.696c0-138.092-112.348-250.435-250.435-250.435
	v267.13H489.739z"/>
<path style="fill:#FFD9B3;" d="M102.968,345.049c-2.239,0-4.511-0.451-6.685-1.408c-8.446-3.701-12.294-13.549-8.598-21.995
	C117.011,254.723,183.076,211.478,256,211.478c9.217,0,16.696,7.473,16.696,16.696S265.217,244.87,256,244.87
	c-59.664,0-113.729,35.397-137.728,90.18C115.522,341.315,109.402,345.049,102.968,345.049z"/>
<path style="fill:#FFC080;" d="M272.696,228.174c0-9.223-7.479-16.696-16.696-16.696v33.391
	C265.217,244.87,272.696,237.397,272.696,228.174z"/>
<g>
</g>
<g>
</g>
<g>
</g>
<g>
</g>
<g>
</g>
<g>
</g>
<g>
</g>
<g>
</g>
<g>
</g>
<g>
</g>
<g>
</g>
<g>
</g>
<g>
</g>
<g>
</g>
<g>
</g>
</svg>
