<?xml version="1.0" encoding="iso-8859-1"?>
<!-- Generator: Adobe Illustrator 19.0.0, SVG Export Plug-In . SVG Version: 6.00 Build 0)  -->
<svg version="1.1" id="Layer_1" xmlns="http://www.w3.org/2000/svg" xmlns:xlink="http://www.w3.org/1999/xlink" x="0px" y="0px"
	 viewBox="0 0 512 512" style="enable-background:new 0 0 512 512;" xml:space="preserve">
<path style="fill:#DBE9FD;" d="M422.957,434.087H89.043c-9.217,0-16.696-7.479-16.696-16.696V50.087
	C72.348,22.468,94.816,0,122.435,0h267.13c27.619,0,50.087,22.468,50.087,50.087v367.304
	C439.652,426.608,432.174,434.087,422.957,434.087z"/>
<path style="fill:#C5DCFD;" d="M389.565,0H256v434.087h166.957c9.217,0,16.696-7.479,16.696-16.696V50.087
	C439.652,22.468,417.184,0,389.565,0z"/>
<path style="fill:#80D7D7;" d="M356.174,267.13H155.826c-9.217,0-16.696-7.479-16.696-16.696V83.478
	c0-9.217,7.479-16.696,16.696-16.696h200.348c9.217,0,16.696,7.479,16.696,16.696v166.957
	C372.87,259.652,365.391,267.13,356.174,267.13z"/>
<path style="fill:#77BDBD;" d="M356.174,66.783H256V267.13h100.174c9.217,0,16.696-7.479,16.696-16.696V83.478
	C372.87,74.261,365.391,66.783,356.174,66.783z"/>
<path style="fill:#8FF0F0;" d="M172.522,233.739h166.957V100.174H172.522V233.739z"/>
<rect x="256" y="100.174" style="fill:#87D7D7;" width="83.478" height="133.565"/>
<g>
	<path style="fill:#95673F;" d="M55.652,445.217c-9.217,0-16.696-7.479-16.696-16.696V250.435c0-9.217,7.479-16.696,16.696-16.696
		s16.696,7.479,16.696,16.696v178.087C72.348,437.739,64.869,445.217,55.652,445.217z"/>
	<path style="fill:#95673F;" d="M122.435,445.217c-9.217,0-16.696-7.479-16.696-16.696V250.435c0-9.217,7.479-16.696,16.696-16.696
		s16.696,7.479,16.696,16.696v178.087C139.13,437.739,131.652,445.217,122.435,445.217z"/>
	<path style="fill:#95673F;" d="M189.217,445.217c-9.217,0-16.696-7.479-16.696-16.696V250.435c0-9.217,7.479-16.696,16.696-16.696
		c9.217,0,16.696,7.479,16.696,16.696v178.087C205.913,437.739,198.435,445.217,189.217,445.217z"/>
	<path style="fill:#95673F;" d="M256,445.217c-9.217,0-16.696-7.479-16.696-16.696V250.435c0-9.217,7.479-16.696,16.696-16.696
		s16.696,7.479,16.696,16.696v178.087C272.696,437.739,265.217,445.217,256,445.217z"/>
</g>
<g>
	<path style="fill:#875334;" d="M322.783,445.217c-9.217,0-16.696-7.479-16.696-16.696V250.435c0-9.217,7.479-16.696,16.696-16.696
		s16.696,7.479,16.696,16.696v178.087C339.478,437.739,332,445.217,322.783,445.217z"/>
	<path style="fill:#875334;" d="M389.565,445.217c-9.217,0-16.696-7.479-16.696-16.696V250.435c0-9.217,7.479-16.696,16.696-16.696
		c9.217,0,16.696,7.479,16.696,16.696v178.087C406.261,437.739,398.782,445.217,389.565,445.217z"/>
	<path style="fill:#875334;" d="M456.348,445.217c-9.217,0-16.696-7.479-16.696-16.696V250.435c0-9.217,7.479-16.696,16.696-16.696
		c9.217,0,16.696,7.479,16.696,16.696v178.087C473.043,437.739,465.565,445.217,456.348,445.217z"/>
	<path style="fill:#875334;" d="M272.696,428.522V250.435c0-9.217-7.479-16.696-16.696-16.696v211.478
		C265.217,445.217,272.696,437.739,272.696,428.522z"/>
</g>
<path style="fill:#B1C6E4;" d="M495.304,512H16.696C7.479,512,0,504.521,0,495.304v-33.391c0-27.619,22.468-50.087,50.087-50.087
	h411.826c27.619,0,50.087,22.468,50.087,50.087v33.391C512,504.521,504.521,512,495.304,512z"/>
<path style="fill:#9DB0CA;" d="M461.913,411.826H256V512h239.304c9.217,0,16.696-7.479,16.696-16.696v-33.391
	C512,434.294,489.532,411.826,461.913,411.826z"/>
<rect x="239.304" y="66.783" style="fill:#80D7D7;" width="33.391" height="200.348"/>
<rect x="256" y="66.783" style="fill:#77BDBD;" width="16.696" height="200.348"/>
<path style="fill:#6E6057;" d="M495.304,267.13H16.696C7.479,267.13,0,259.652,0,250.435s7.479-16.696,16.696-16.696h478.609
	c9.217,0,16.696,7.479,16.696,16.696S504.521,267.13,495.304,267.13z"/>
<path style="fill:#615349;" d="M495.304,233.739H256v33.391h239.304c9.217,0,16.696-7.479,16.696-16.696
	S504.521,233.739,495.304,233.739z"/>
<g>
</g>
<g>
</g>
<g>
</g>
<g>
</g>
<g>
</g>
<g>
</g>
<g>
</g>
<g>
</g>
<g>
</g>
<g>
</g>
<g>
</g>
<g>
</g>
<g>
</g>
<g>
</g>
<g>
</g>
</svg>
