<?xml version="1.0" encoding="iso-8859-1"?>
<!-- Generator: Adobe Illustrator 19.0.0, SVG Export Plug-In . SVG Version: 6.00 Build 0)  -->
<svg version="1.1" id="Layer_1" xmlns="http://www.w3.org/2000/svg" xmlns:xlink="http://www.w3.org/1999/xlink" x="0px" y="0px"
	 viewBox="0 0 512 512" style="enable-background:new 0 0 512 512;" xml:space="preserve">
<path style="fill:#615349;" d="M456.902,478.609H289.947c-9.22,0-16.695-7.475-16.695-16.695v-66.782
	c0-9.22,7.475-16.695,16.695-16.695h83.477V133.569h-83.477c-9.22,0-16.695-7.475-16.695-16.695V50.092
	c0-9.22,7.475-16.695,16.695-16.695h166.955c9.22,0,16.695,7.475,16.695,16.695v411.822
	C473.598,471.134,466.123,478.609,456.902,478.609z"/>
<path style="fill:#C5DCFD;" d="M390.12,411.827H289.947c-9.22,0-16.695-7.475-16.695-16.695V116.874
	c0-9.22,7.475-16.695,16.695-16.695H390.12c9.22,0,16.695,7.475,16.695,16.695v278.258
	C406.816,404.352,399.341,411.827,390.12,411.827z"/>
<path style="fill:#95673F;" d="M288.834,512c-0.782,0-1.576-0.055-2.359-0.168L52.739,478.441
	c-8.229-1.174-14.337-8.217-14.337-16.527V50.092c0-8.31,6.108-15.353,14.337-16.527L286.476,0.174
	c4.76-0.701,9.641,0.745,13.293,3.913c3.663,3.174,5.761,7.771,5.761,12.614v478.604c0,4.843-2.098,9.44-5.761,12.614
	C296.715,510.565,292.824,512,288.834,512z"/>
<path style="fill:#875334;" d="M286.476,0.174l-114.51,16.358v478.941l114.51,16.358c0.782,0.115,1.576,0.168,2.359,0.168
	c3.989,0,7.88-1.435,10.934-4.081c3.663-3.174,5.761-7.771,5.761-12.614V16.7c0-4.843-2.098-9.44-5.761-12.614
	C296.117,0.918,291.237-0.528,286.476,0.174z"/>
<path style="fill:#EFBE44;" d="M222.053,272.698h-33.391c-9.217,0-16.695-7.473-16.695-16.695s7.478-16.695,16.695-16.695h33.391
	c9.217,0,16.695,7.473,16.695,16.695S231.271,272.698,222.053,272.698z"/>
<g>
</g>
<g>
</g>
<g>
</g>
<g>
</g>
<g>
</g>
<g>
</g>
<g>
</g>
<g>
</g>
<g>
</g>
<g>
</g>
<g>
</g>
<g>
</g>
<g>
</g>
<g>
</g>
<g>
</g>
</svg>
