<?xml version="1.0" encoding="iso-8859-1"?>
<!-- Generator: Adobe Illustrator 19.0.0, SVG Export Plug-In . SVG Version: 6.00 Build 0)  -->
<svg version="1.1" id="Layer_1" xmlns="http://www.w3.org/2000/svg" xmlns:xlink="http://www.w3.org/1999/xlink" x="0px" y="0px"
	 viewBox="0 0 512 512" style="enable-background:new 0 0 512 512;" xml:space="preserve">
<path style="fill:#6BBAE2;" d="M389.565,100.174h-267.13c-9.217,0-16.696-7.479-16.696-16.696V16.696
	C105.739,7.479,113.218,0,122.435,0h267.13c9.217,0,16.696,7.479,16.696,16.696v66.783
	C406.261,92.695,398.782,100.174,389.565,100.174z"/>
<path style="fill:#60AED5;" d="M389.565,0H256v100.174h133.565c9.217,0,16.696-7.479,16.696-16.696V16.696
	C406.261,7.479,398.782,0,389.565,0z"/>
<path style="fill:#DBE9FD;" d="M473.043,178.087H38.957V83.478c0-9.22,7.475-16.696,16.696-16.696h400.696
	c9.22,0,16.696,7.475,16.696,16.696V178.087z"/>
<path style="fill:#C5DCFD;" d="M456.348,66.783H256v111.304h217.043V83.478C473.043,74.258,465.568,66.783,456.348,66.783z"/>
<rect x="38.957" y="144.696" style="fill:#8FF0F0;" width="434.087" height="166.957"/>
<rect x="256" y="144.696" style="fill:#87D7D7;" width="217.043" height="166.957"/>
<path style="fill:#DBE9FD;" d="M456.348,512H55.652c-9.22,0-16.696-7.475-16.696-16.696V278.261h434.087v217.043
	C473.043,504.525,465.568,512,456.348,512z"/>
<path style="fill:#C5DCFD;" d="M256,512h200.348c9.22,0,16.696-7.475,16.696-16.696V278.261H256V512z"/>
<path style="fill:#95673F;" d="M337.867,445.217H174.151C163.758,391.903,204.509,345.043,256,345.043
	c22.29,0,43.252,8.681,59.027,24.441C334.692,389.167,343.333,416.898,337.867,445.217z"/>
<path style="fill:#875334;" d="M337.867,445.217c5.466-28.319-3.176-56.051-22.84-75.733
	c-15.775-15.761-36.737-24.441-59.027-24.441v100.174H337.867z"/>
<path style="fill:#8FF0F0;" d="M339.478,512H172.522v-83.478h166.957V512z"/>
<rect x="256" y="428.522" style="fill:#87D7D7;" width="83.478" height="83.478"/>
<g>
	<path style="fill:#80D7D7;" d="M122.435,311.652c-9.217,0-16.696-7.479-16.696-16.696V161.391c0-9.217,7.479-16.696,16.696-16.696
		s16.696,7.479,16.696,16.696v133.565C139.13,304.174,131.652,311.652,122.435,311.652z"/>
	<path style="fill:#80D7D7;" d="M189.217,311.652c-9.217,0-16.696-7.479-16.696-16.696V161.391c0-9.217,7.479-16.696,16.696-16.696
		c9.217,0,16.696,7.479,16.696,16.696v133.565C205.913,304.174,198.435,311.652,189.217,311.652z"/>
</g>
<path style="fill:#77BDBD;" d="M322.783,311.652c-9.217,0-16.696-7.479-16.696-16.696V161.391c0-9.217,7.479-16.696,16.696-16.696
	s16.696,7.479,16.696,16.696v133.565C339.478,304.174,332,311.652,322.783,311.652z"/>
<path style="fill:#80D7D7;" d="M55.652,311.652c-9.217,0-16.696-7.479-16.696-16.696V161.391c0-9.217,7.479-16.696,16.696-16.696
	s16.696,7.479,16.696,16.696v133.565C72.348,304.174,64.869,311.652,55.652,311.652z"/>
<g>
	<path style="fill:#77BDBD;" d="M389.565,311.652c-9.217,0-16.696-7.479-16.696-16.696V161.391c0-9.217,7.479-16.696,16.696-16.696
		c9.217,0,16.696,7.479,16.696,16.696v133.565C406.261,304.174,398.782,311.652,389.565,311.652z"/>
	<path style="fill:#77BDBD;" d="M456.348,311.652c-9.217,0-16.696-7.479-16.696-16.696V161.391c0-9.217,7.479-16.696,16.696-16.696
		c9.217,0,16.696,7.479,16.696,16.696v133.565C473.043,304.174,465.565,311.652,456.348,311.652z"/>
</g>
<path style="fill:#8FF0F0;" d="M122.435,445.217H38.957V345.043h83.478c9.22,0,16.696,7.475,16.696,16.696v66.783
	C139.13,437.742,131.655,445.217,122.435,445.217z"/>
<path style="fill:#87D7D7;" d="M473.043,445.217h-83.478c-9.22,0-16.696-7.475-16.696-16.696v-66.783
	c0-9.22,7.475-16.696,16.696-16.696h83.478V445.217z"/>
<rect x="239.304" y="144.696" style="fill:#80D7D7;" width="33.391" height="166.957"/>
<rect x="256" y="144.696" style="fill:#77BDBD;" width="16.696" height="166.957"/>
<rect x="306.087" y="66.783" style="fill:#9DB0CA;" width="33.391" height="77.913"/>
<rect x="172.522" y="66.783" style="fill:#B1C6E4;" width="33.391" height="77.913"/>
<rect x="38.957" y="144.696" style="fill:#A1AAB3;" width="434.087" height="33.391"/>
<rect x="256" y="144.696" style="fill:#8A9199;" width="217.043" height="33.391"/>
<path style="fill:#A1AAB3;" d="M489.739,311.652H22.261c-9.217,0-16.696-7.479-16.696-16.696c0-9.217,7.479-16.696,16.696-16.696
	h467.478c9.217,0,16.696,7.479,16.696,16.696C506.435,304.174,498.956,311.652,489.739,311.652z"/>
<path style="fill:#8A9199;" d="M489.739,278.261H256v33.391h233.739c9.217,0,16.696-7.479,16.696-16.696
	C506.435,285.739,498.956,278.261,489.739,278.261z"/>
<rect x="239.304" y="411.826" style="fill:#80D7D7;" width="33.391" height="100.174"/>
<rect x="256" y="411.826" style="fill:#77BDBD;" width="16.696" height="100.174"/>
<path style="fill:#80D7D7;" d="M339.478,428.522v16.696H172.522v-13.802c0-6.678,0.779-13.245,2.226-19.59h163.061
	C338.922,417.169,339.478,422.845,339.478,428.522z"/>
<path style="fill:#77BDBD;" d="M256,411.826v33.391h83.478v-16.696c0-5.677-0.557-11.353-1.67-16.696H256z"/>
<g>
</g>
<g>
</g>
<g>
</g>
<g>
</g>
<g>
</g>
<g>
</g>
<g>
</g>
<g>
</g>
<g>
</g>
<g>
</g>
<g>
</g>
<g>
</g>
<g>
</g>
<g>
</g>
<g>
</g>
</svg>
