<?xml version="1.0" encoding="iso-8859-1"?>
<!-- Generator: Adobe Illustrator 19.0.0, SVG Export Plug-In . SVG Version: 6.00 Build 0)  -->
<svg version="1.1" id="Layer_1" xmlns="http://www.w3.org/2000/svg" xmlns:xlink="http://www.w3.org/1999/xlink" x="0px" y="0px"
	 viewBox="0 0 512 512" style="enable-background:new 0 0 512 512;" xml:space="preserve">
<path style="fill:#DBE9FD;" d="M495.304,166.957H281.13H16.696C7.479,166.957,0,174.435,0,183.652v300.522
	c0,9.217,7.479,16.696,16.696,16.696h478.609c9.217,0,16.696-7.479,16.696-16.696V183.652
	C512,174.435,504.521,166.957,495.304,166.957z"/>
<path style="fill:#C5DCFD;" d="M495.304,166.957H281.13H256V500.87h239.304c9.217,0,16.696-7.479,16.696-16.696V183.652
	C512,174.435,504.521,166.957,495.304,166.957z"/>
<path style="fill:#A1AAB3;" d="M428.522,434.087H83.478c-9.217,0-16.696-7.479-16.696-16.696c0-9.217,7.479-16.696,16.696-16.696
	h345.043c9.217,0,16.696,7.479,16.696,16.696C445.217,426.608,437.739,434.087,428.522,434.087z"/>
<path style="fill:#8A9199;" d="M428.522,367.304H292.391c-9.217,0-16.696-7.479-16.696-16.696c0-9.217,7.479-16.696,16.696-16.696
	h136.131c9.217,0,16.696,7.479,16.696,16.696C445.217,359.826,437.739,367.304,428.522,367.304z"/>
<path style="fill:#A1AAB3;" d="M125.434,367.304H83.478c-9.217,0-16.696-7.479-16.696-16.696c0-9.217,7.479-16.696,16.696-16.696
	h41.956c9.217,0,16.696,7.479,16.696,16.696C142.13,359.826,134.653,367.304,125.434,367.304z"/>
<path style="fill:#8A9199;" d="M428.522,300.522h-66.794c-9.217,0-16.696-7.479-16.696-16.696c0-9.217,7.479-16.696,16.696-16.696
	h66.794c9.217,0,16.696,7.479,16.696,16.696C445.217,293.043,437.739,300.522,428.522,300.522z"/>
<path style="fill:#A1AAB3;" d="M125.434,300.522H83.478c-9.217,0-16.696-7.479-16.696-16.696c0-9.217,7.479-16.696,16.696-16.696
	h41.956c9.217,0,16.696,7.479,16.696,16.696C142.13,293.043,134.653,300.522,125.434,300.522z"/>
<path style="fill:#6E6057;" d="M500.87,61.217c0-13.385-5.207-25.962-14.674-35.418c-9.455-9.462-22.033-14.669-35.413-14.669
	c-13.37,0-25.945,5.207-35.413,14.669L372.079,69.09l70.832,70.832l43.286-43.286C495.663,87.175,500.87,74.598,500.87,61.217z"/>
<path style="fill:#615349;" d="M486.199,25.804l-78.703,78.703l35.415,35.415l43.286-43.286
	c9.466-9.461,14.673-22.037,14.673-35.418C500.87,47.834,495.664,35.259,486.199,25.804z"/>
<path style="fill:#FFD9B3;" d="M238.281,202.887l-35.411,35.411c-1.837,1.837-3.218,4.065-4.033,6.522l-23.609,70.836
	c-2,5.999-0.435,12.62,4.033,17.086c3.184,3.184,7.446,4.891,11.804,4.892c1.772,0,3.555-0.283,5.284-0.859l70.826-23.609
	c2.456-0.816,4.685-2.196,6.522-4.033l35.417-35.417L238.281,202.887z"/>
<path style="fill:#FFC080;" d="M179.259,332.743l0.001,0.001c3.184,3.184,7.446,4.891,11.804,4.892c1.772,0,3.555-0.283,5.284-0.859
	l70.826-23.609c2.456-0.816,4.685-2.196,6.522-4.033l35.417-35.417l-35.415-35.415L179.259,332.743z"/>
<rect x="212.593" y="121.323" transform="matrix(-0.7071 0.7071 -0.7071 -0.7071 702.6306 51.7785)" style="fill:#6BBAE2;" width="255.998" height="100.171"/>
<rect x="333.259" y="61.119" transform="matrix(0.7071 0.7071 -0.7071 0.7071 238.6706 -197.9662)" style="fill:#60AED5;" width="50.084" height="255.998"/>
<path style="fill:#8A9199;" d="M428.522,400.696H256v33.391h172.522c9.217,0,16.696-7.479,16.696-16.696
	C445.217,408.174,437.739,400.696,428.522,400.696z"/>
<g>
</g>
<g>
</g>
<g>
</g>
<g>
</g>
<g>
</g>
<g>
</g>
<g>
</g>
<g>
</g>
<g>
</g>
<g>
</g>
<g>
</g>
<g>
</g>
<g>
</g>
<g>
</g>
<g>
</g>
</svg>
