<?xml version="1.0" encoding="iso-8859-1"?>
<!-- Generator: Adobe Illustrator 19.0.0, SVG Export Plug-In . SVG Version: 6.00 Build 0)  -->
<svg version="1.1" id="Layer_1" xmlns="http://www.w3.org/2000/svg" xmlns:xlink="http://www.w3.org/1999/xlink" x="0px" y="0px"
	 viewBox="0 0 512 512" style="enable-background:new 0 0 512 512;" xml:space="preserve">
<path style="fill:#95673F;" d="M422.957,512H89.043c-9.217,0-16.696-7.473-16.696-16.696V16.696C72.348,7.473,79.826,0,89.043,0
	h333.913c9.217,0,16.696,7.473,16.696,16.696v478.609C439.652,504.527,432.174,512,422.957,512z"/>
<path style="fill:#875334;" d="M422.957,0H256v512h166.957c9.217,0,16.696-7.473,16.696-16.696V16.696
	C439.652,7.473,432.174,0,422.957,0z"/>
<path style="fill:#AE794A;" d="M222.609,211.478h-66.783c-9.217,0-16.696-7.473-16.696-16.696V83.478
	c0-9.223,7.479-16.696,16.696-16.696h66.783c9.217,0,16.696,7.473,16.696,16.696v111.304
	C239.304,204.005,231.826,211.478,222.609,211.478z"/>
<path style="fill:#95673F;" d="M356.174,211.478h-66.783c-9.217,0-16.696-7.473-16.696-16.696V83.478
	c0-9.223,7.479-16.696,16.696-16.696h66.783c9.217,0,16.696,7.473,16.696,16.696v111.304
	C372.87,204.005,365.391,211.478,356.174,211.478z"/>
<path style="fill:#AE794A;" d="M222.609,445.217h-66.783c-9.217,0-16.696-7.473-16.696-16.696V317.217
	c0-9.223,7.479-16.696,16.696-16.696h66.783c9.217,0,16.696,7.473,16.696,16.696v111.304
	C239.304,437.744,231.826,445.217,222.609,445.217z"/>
<path style="fill:#95673F;" d="M356.174,445.217h-66.783c-9.217,0-16.696-7.473-16.696-16.696V317.217
	c0-9.223,7.479-16.696,16.696-16.696h66.783c9.217,0,16.696,7.473,16.696,16.696v111.304
	C372.87,437.744,365.391,445.217,356.174,445.217z"/>
<path style="fill:#DBE9FD;" d="M222.609,272.696h-66.783c-9.217,0-16.696-7.473-16.696-16.696s7.479-16.696,16.696-16.696h66.783
	c9.217,0,16.696,7.473,16.696,16.696S231.826,272.696,222.609,272.696z"/>
<g>
</g>
<g>
</g>
<g>
</g>
<g>
</g>
<g>
</g>
<g>
</g>
<g>
</g>
<g>
</g>
<g>
</g>
<g>
</g>
<g>
</g>
<g>
</g>
<g>
</g>
<g>
</g>
<g>
</g>
</svg>
