<?xml version="1.0" encoding="iso-8859-1"?>
<!-- Generator: Adobe Illustrator 19.0.0, SVG Export Plug-In . SVG Version: 6.00 Build 0)  -->
<svg version="1.1" id="Layer_1" xmlns="http://www.w3.org/2000/svg" xmlns:xlink="http://www.w3.org/1999/xlink" x="0px" y="0px"
	 viewBox="0 0 512 512" style="enable-background:new 0 0 512 512;" xml:space="preserve">
<path style="fill:#9DCA40;" d="M346.478,151.608c3.174,2.826,7.13,4.217,11.076,4.217c4.609,0,9.196-1.891,12.489-5.603
	c6.131-6.891,5.5-17.446-1.391-23.571L255.957,26.477c-6.327-5.62-15.848-5.62-22.174,0L121.087,126.651
	c-6.891,6.125-7.522,16.679-1.391,23.571c6.098,6.875,16.663,7.516,23.565,1.386H346.478z"/>
<path style="fill:#8EB043;" d="M346.478,151.608c3.174,2.826,7.13,4.217,11.076,4.217c4.609,0,9.196-1.891,12.489-5.603
	c6.131-6.891,5.5-17.446-1.391-23.571L255.957,26.477c-3.163-2.809-7.125-4.215-11.087-4.215v129.346H346.478z"/>
<path style="fill:#95673F;" d="M428.522,122.434H83.478C37.446,122.434,0,159.88,0,205.912V406.26
	c0,46.032,37.446,83.478,83.478,83.478h345.043c27.619,0,50.087-22.468,50.087-50.087v-267.13
	C478.609,144.9,456.141,122.434,428.522,122.434z"/>
<path style="fill:#875334;" d="M428.522,122.434H244.87v367.304h183.652c27.619,0,50.087-22.468,50.087-50.087v-267.13
	C478.609,144.9,456.141,122.434,428.522,122.434z"/>
<path style="fill:#95673F;" d="M461.913,389.564H395.13c-46.032,0-83.478-37.446-83.478-83.478s37.446-83.478,83.478-83.478h66.783
	c27.619,0,50.087,22.468,50.087,50.087v66.783C512,367.096,489.532,389.564,461.913,389.564z"/>
<circle style="fill:#DADFE4;" cx="395.13" cy="306.087" r="16.696"/>
<g>
</g>
<g>
</g>
<g>
</g>
<g>
</g>
<g>
</g>
<g>
</g>
<g>
</g>
<g>
</g>
<g>
</g>
<g>
</g>
<g>
</g>
<g>
</g>
<g>
</g>
<g>
</g>
<g>
</g>
</svg>
