<?xml version="1.0" encoding="iso-8859-1"?>
<!-- Generator: Adobe Illustrator 19.0.0, SVG Export Plug-In . SVG Version: 6.00 Build 0)  -->
<svg version="1.1" id="Layer_1" xmlns="http://www.w3.org/2000/svg" xmlns:xlink="http://www.w3.org/1999/xlink" x="0px" y="0px"
	 viewBox="0 0 512 512" style="enable-background:new 0 0 512 512;" xml:space="preserve">
<path style="fill:#6E6057;" d="M461.913,256H50.087c-9.217,0-16.696-7.473-16.696-16.696V139.13
	c0-46.032,37.446-83.478,83.478-83.478H395.13c46.032,0,83.478,37.446,83.478,83.478v100.174
	C478.609,248.527,471.13,256,461.913,256z"/>
<path style="fill:#615349;" d="M395.13,55.652H256V256h205.913c9.217,0,16.696-7.473,16.696-16.696V139.13
	C478.609,93.098,441.163,55.652,395.13,55.652z"/>
<path style="fill:#DBE9FD;" d="M361.739,155.826h-72.348c-12.875,0-24.509,5.018-33.391,13.027
	c-8.882-8.009-20.517-13.027-33.391-13.027h-72.348c-27.619,0-50.087,22.468-50.087,50.087v33.391
	c0,9.223,7.479,16.696,16.696,16.696H256h139.13c9.217,0,16.696-7.473,16.696-16.696v-33.391
	C411.826,178.294,389.358,155.826,361.739,155.826z"/>
<path style="fill:#C5DCFD;" d="M395.13,256c9.217,0,16.696-7.473,16.696-16.696v-33.391c0-27.619-22.468-50.087-50.087-50.087
	h-72.348c-12.875,0-24.509,5.018-33.391,13.027V256H395.13z"/>
<path d="M495.304,322.783H16.696C7.479,322.783,0,315.31,0,306.087s7.479-16.696,16.696-16.696h478.609
	c9.217,0,16.696,7.473,16.696,16.696S504.521,322.783,495.304,322.783z"/>
<path style="fill:#6E6057;" d="M116.87,456.348H50.087c-9.217,0-16.696-7.473-16.696-16.696V372.87
	c0-9.223,7.479-16.696,16.696-16.696h66.783c9.217,0,16.696,7.473,16.696,16.696v66.783
	C133.565,448.875,126.087,456.348,116.87,456.348z"/>
<path style="fill:#615349;" d="M461.913,456.348H395.13c-9.217,0-16.696-7.473-16.696-16.696V372.87
	c0-9.223,7.479-16.696,16.696-16.696h66.783c9.217,0,16.696,7.473,16.696,16.696v66.783
	C478.609,448.875,471.13,456.348,461.913,456.348z"/>
<path style="fill:#95673F;" d="M495.304,389.565H16.696C7.475,389.565,0,382.09,0,372.87v-83.478h512v83.478
	C512,382.09,504.525,389.565,495.304,389.565z"/>
<path style="fill:#875334;" d="M512,289.391H256v100.174h239.304c9.22,0,16.696-7.475,16.696-16.696V289.391z"/>
<path style="fill:#6BBAE2;" d="M512,322.783H0v-50.087c0-27.662,22.424-50.087,50.087-50.087h411.826
	c27.662,0,50.087,22.424,50.087,50.087V322.783z"/>
<path style="fill:#60AED5;" d="M461.913,222.609H256v100.174h256v-50.087C512,245.033,489.576,222.609,461.913,222.609z"/>
<g>
</g>
<g>
</g>
<g>
</g>
<g>
</g>
<g>
</g>
<g>
</g>
<g>
</g>
<g>
</g>
<g>
</g>
<g>
</g>
<g>
</g>
<g>
</g>
<g>
</g>
<g>
</g>
<g>
</g>
</svg>
