<?xml version="1.0" encoding="iso-8859-1"?>
<!-- Generator: Adobe Illustrator 19.0.0, SVG Export Plug-In . SVG Version: 6.00 Build 0)  -->
<svg version="1.1" id="Layer_1" xmlns="http://www.w3.org/2000/svg" xmlns:xlink="http://www.w3.org/1999/xlink" x="0px" y="0px"
	 viewBox="0 0 512.001 512.001" style="enable-background:new 0 0 512.001 512.001;" xml:space="preserve">
<g>
	<path style="fill:#B1C6E4;" d="M4.945,363.815L4.945,363.815c-6.593-6.593-6.593-17.281,0-23.873l83.557-83.557l23.873,23.873
		l-83.557,83.557C22.226,370.407,11.537,370.407,4.945,363.815z"/>
	<path style="fill:#B1C6E4;" d="M52.692,411.561L52.692,411.561c-6.593-6.593-6.593-17.281,0-23.873l83.557-83.557l23.873,23.873
		l-83.557,83.557C69.973,418.154,59.285,418.154,52.692,411.561z"/>
</g>
<g>
	<path style="fill:#9DB0CA;" d="M100.439,459.308L100.439,459.308c-6.593-6.593-6.593-17.281,0-23.873l83.557-83.557l23.873,23.873
		l-83.557,83.557C117.721,465.901,107.032,465.901,100.439,459.308z"/>
	<path style="fill:#9DB0CA;" d="M148.187,507.056L148.187,507.056c-6.593-6.593-6.593-17.281,0-23.873l83.557-83.557l23.873,23.873
		l-83.557,83.557C165.468,513.649,154.779,513.649,148.187,507.056z"/>
</g>
<rect x="248.736" y="66.309" transform="matrix(-0.7071 -0.7071 0.7071 -0.7071 360.7332 574.644)" style="fill:#6E6057;" width="101.286" height="292.605"/>
<rect x="291.97" y="84.229" transform="matrix(0.7071 0.7071 -0.7071 0.7071 255.9428 -156.8383)" style="fill:#615349;" width="50.643" height="292.605"/>
<path style="fill:#B1C6E4;" d="M231.745,447.372L64.629,280.256l35.811-35.811c19.778-19.778,51.843-19.778,71.621,0l95.495,95.495
	c19.778,19.778,19.778,51.843,0,71.621L231.745,447.372z"/>
<path style="fill:#9DB0CA;" d="M267.555,339.94l-47.747-47.747l-71.621,71.621l83.557,83.557l35.811-35.811
	C287.332,391.783,287.332,359.718,267.555,339.94z"/>
<path style="fill:#B1C6E4;" d="M420.744,158.899l-67.642-67.642c-20.876-20.876-20.876-54.723,0-75.6l0,0
	c20.876-20.876,54.723-20.876,75.6,0L496.344,83.3c20.876,20.876,20.876,54.723,0,75.6l0,0
	C475.467,179.776,441.621,179.776,420.744,158.899z"/>
<path style="fill:#9DB0CA;" d="M496.344,83.3l-33.821-33.822l-75.6,75.6l33.821,33.821c20.876,20.876,54.723,20.876,75.6,0
	C517.22,138.023,517.22,104.175,496.344,83.3z"/>
<g>
</g>
<g>
</g>
<g>
</g>
<g>
</g>
<g>
</g>
<g>
</g>
<g>
</g>
<g>
</g>
<g>
</g>
<g>
</g>
<g>
</g>
<g>
</g>
<g>
</g>
<g>
</g>
<g>
</g>
</svg>
