<?xml version="1.0" encoding="iso-8859-1"?>
<!-- Generator: Adobe Illustrator 19.0.0, SVG Export Plug-In . SVG Version: 6.00 Build 0)  -->
<svg version="1.1" id="Layer_1" xmlns="http://www.w3.org/2000/svg" xmlns:xlink="http://www.w3.org/1999/xlink" x="0px" y="0px"
	 viewBox="0 0 512 512" style="enable-background:new 0 0 512 512;" xml:space="preserve">
<path style="fill:#6E6057;" d="M172.522,512h-66.783c-9.217,0-16.696-7.473-16.696-16.696v-66.783
	c0-9.223,7.479-16.696,16.696-16.696h66.783c9.217,0,16.696,7.473,16.696,16.696v66.783C189.217,504.527,181.739,512,172.522,512z"
	/>
<path style="fill:#615349;" d="M406.261,512h-66.783c-9.217,0-16.696-7.473-16.696-16.696v-66.783
	c0-9.223,7.479-16.696,16.696-16.696h66.783c9.217,0,16.696,7.473,16.696,16.696v66.783C422.957,504.527,415.478,512,406.261,512z"
	/>
<path style="fill:#EFBE44;" d="M439.652,445.217H72.348c-27.619,0-50.087-22.468-50.087-50.087V50.087
	C22.261,22.468,44.729,0,72.348,0h367.304c27.619,0,50.087,22.468,50.087,50.087V395.13
	C489.739,422.749,467.271,445.217,439.652,445.217z"/>
<path style="fill:#E4A738;" d="M439.652,0H256v445.217h183.652c27.619,0,50.087-22.468,50.087-50.087V50.087
	C489.739,22.468,467.271,0,439.652,0z"/>
<path style="fill:#F6DF5A;" d="M89.043,239.304v116.87c0,9.223,7.479,16.696,16.696,16.696h300.522
	c9.217,0,16.696-7.473,16.696-16.696v-116.87H89.043z"/>
<path style="fill:#F0CA45;" d="M256,239.304V372.87h150.261c9.217,0,16.696-7.473,16.696-16.696v-116.87H256z"/>
<path style="fill:#F6DF5A;" d="M422.957,205.913V89.043c0-9.22-7.475-16.696-16.696-16.696H105.739
	c-9.22,0-16.696,7.475-16.696,16.696v116.87H422.957z"/>
<path style="fill:#F0CA45;" d="M422.957,205.913V89.043c0-9.22-7.475-16.696-16.696-16.696H256v133.565H422.957z"/>
<g>
	<circle style="fill:#95673F;" cx="256" cy="289.391" r="16.696"/>
	<circle style="fill:#95673F;" cx="256" cy="155.826" r="16.696"/>
</g>
<g>
	<path style="fill:#875334;" d="M272.696,289.391c0-9.22-7.475-16.696-16.696-16.696v33.391
		C265.22,306.087,272.696,298.612,272.696,289.391z"/>
	<path style="fill:#875334;" d="M272.696,155.826c0-9.22-7.475-16.696-16.696-16.696v33.391
		C265.22,172.522,272.696,165.047,272.696,155.826z"/>
</g>
<g>
</g>
<g>
</g>
<g>
</g>
<g>
</g>
<g>
</g>
<g>
</g>
<g>
</g>
<g>
</g>
<g>
</g>
<g>
</g>
<g>
</g>
<g>
</g>
<g>
</g>
<g>
</g>
<g>
</g>
</svg>
