<?xml version="1.0" encoding="iso-8859-1"?>
<!-- Generator: Adobe Illustrator 19.0.0, SVG Export Plug-In . SVG Version: 6.00 Build 0)  -->
<svg version="1.1" id="Layer_1" xmlns="http://www.w3.org/2000/svg" xmlns:xlink="http://www.w3.org/1999/xlink" x="0px" y="0px"
	 viewBox="0 0 512 512" style="enable-background:new 0 0 512 512;" xml:space="preserve">
<g>
	<path style="fill:#FF3501;" d="M378.467,288.348c-0.283,4.598,1.337,9.119,4.5,12.478c3.152,3.358,7.554,5.26,12.163,5.26h100.174
		c4.609,0,9.011-1.902,12.163-5.261c3.163-3.359,4.783-7.88,4.5-12.478l-7.239-82.434H385.706L378.467,288.348z"/>
	<path style="fill:#FF3501;" d="M495.272,54.609c-0.554-8.794-7.848-15.653-16.663-15.653h-66.783
		c-8.815,0-16.109,6.859-16.663,15.653l-3.196,51.13h106.5L495.272,54.609z"/>
</g>
<polygon style="fill:#B1C6E4;" points="498.468,105.739 391.967,105.739 385.706,205.913 504.728,205.913 "/>
<path style="fill:#FF6243;" d="M189.25,288.348c-0.283,4.598,1.337,9.119,4.5,12.478c3.152,3.358,7.554,5.26,12.163,5.26h100.174
	c4.609,0,9.011-1.902,12.163-5.261c3.163-3.359,4.783-7.88,4.5-12.478l-7.239-115.826H196.489L189.25,288.348z"/>
<path style="fill:#FF3501;" d="M256,172.522v133.565h50.087c4.609,0,9.011-1.902,12.163-5.261c3.163-3.359,4.783-7.88,4.5-12.478
	l-7.239-115.826H256z"/>
<path style="fill:#B8C2C9;" d="M116.87,306.087H50.087c-9.217,0-16.696-7.479-16.696-16.696v-66.783
	c0-9.217,7.479-16.696,16.696-16.696h66.783c9.217,0,16.696,7.479,16.696,16.696v66.783
	C133.565,298.608,126.087,306.087,116.87,306.087z"/>
<path style="fill:#A1AAB3;" d="M150.261,239.304H16.696C7.479,239.304,0,231.826,0,222.609s7.479-16.696,16.696-16.696h133.565
	c9.217,0,16.696,7.479,16.696,16.696S159.478,239.304,150.261,239.304z"/>
<path style="fill:#DBE9FD;" d="M495.304,506.435H16.696C7.479,506.435,0,498.956,0,489.739V289.391
	c0-9.217,7.479-16.696,16.696-16.696h478.609c9.217,0,16.696,7.479,16.696,16.696v200.348
	C512,498.956,504.521,506.435,495.304,506.435z"/>
<path style="fill:#C5DCFD;" d="M495.304,272.696H256v233.739h239.304c9.217,0,16.696-7.479,16.696-16.696V289.391
	C512,280.174,504.521,272.696,495.304,272.696z"/>
<path style="fill:#8FF0F0;" d="M422.957,439.652H89.043c-9.217,0-16.696-7.479-16.696-16.696v-66.783
	c0-9.217,7.479-16.696,16.696-16.696h333.913c9.217,0,16.696,7.479,16.696,16.696v66.783
	C439.652,432.174,432.174,439.652,422.957,439.652z"/>
<path style="fill:#87D7D7;" d="M422.957,339.478H256v100.174h166.957c9.217,0,16.696-7.479,16.696-16.696v-66.783
	C439.652,346.957,432.174,339.478,422.957,339.478z"/>
<g>
	<rect x="155.826" y="339.478" style="fill:#80D7D7;" width="33.391" height="100.174"/>
	<rect x="239.304" y="339.478" style="fill:#80D7D7;" width="33.391" height="100.174"/>
</g>
<g>
	<rect x="322.783" y="339.478" style="fill:#77BDBD;" width="33.391" height="100.174"/>
	<rect x="256" y="339.478" style="fill:#77BDBD;" width="16.696" height="100.174"/>
</g>
<polygon style="fill:#C5DCFD;" points="309.25,72.348 202.75,72.348 196.489,172.522 315.511,172.522 "/>
<polygon style="fill:#B1C6E4;" points="256,172.522 315.511,172.522 309.25,72.348 256,72.348 "/>
<path style="fill:#FF6243;" d="M306.055,21.218c-0.554-8.794-7.848-15.653-16.663-15.653h-66.783
	c-8.815,0-16.109,6.859-16.663,15.653l-3.196,51.13h106.5L306.055,21.218z"/>
<path style="fill:#FF3501;" d="M289.391,5.565H256v66.783h53.25l-3.196-51.131C305.5,12.424,298.207,5.565,289.391,5.565z"/>
<g>
</g>
<g>
</g>
<g>
</g>
<g>
</g>
<g>
</g>
<g>
</g>
<g>
</g>
<g>
</g>
<g>
</g>
<g>
</g>
<g>
</g>
<g>
</g>
<g>
</g>
<g>
</g>
<g>
</g>
</svg>
