<?xml version="1.0" encoding="iso-8859-1"?>
<!-- Generator: Adobe Illustrator 19.0.0, SVG Export Plug-In . SVG Version: 6.00 Build 0)  -->
<svg version="1.1" id="Layer_1" xmlns="http://www.w3.org/2000/svg" xmlns:xlink="http://www.w3.org/1999/xlink" x="0px" y="0px"
	 viewBox="0 0 512 512" style="enable-background:new 0 0 512 512;" xml:space="preserve">
<path d="M328.348,0H256v83.478h72.348v83.478h83.478v-16.696v-16.696V83.478C411.826,37.446,374.38,0,328.348,0z"/>
<path style="fill:#875334;" d="M328.348,0H183.652c-46.032,0-83.478,37.446-83.478,83.478v83.478h83.478V83.478h144.696v83.478
	h83.478V83.478C411.826,37.446,374.38,0,328.348,0z"/>
<path style="fill:#6D432A;" d="M328.348,0H256v83.478h72.348v83.478h83.478V83.478C411.826,37.446,374.38,0,328.348,0z"/>
<path style="fill:#95673F;" d="M461.913,512H50.087C22.468,512,0,489.532,0,461.913V183.652c0-27.619,22.468-50.087,50.087-50.087
	h411.826c27.619,0,50.087,22.468,50.087,50.087v278.261C512,489.532,489.532,512,461.913,512z"/>
<path style="fill:#875334;" d="M461.913,133.565H256V512h205.913C489.532,512,512,489.532,512,461.913V183.652
	C512,156.033,489.532,133.565,461.913,133.565z"/>
<path style="fill:#6D432A;" d="M512,225.186l-206.228,78.792c-8.631,3.25-12.989,12.88-9.739,21.511
	c2.511,6.69,8.87,10.815,15.619,10.815c1.957,0,3.946-0.348,5.88-1.076L512,260.93V225.186z"/>
<path style="fill:#875334;" d="M206.228,303.978L0,225.186v35.743l194.468,74.299c1.934,0.728,3.923,1.076,5.88,1.076
	c6.749,0,13.108-4.125,15.619-10.815C219.217,316.859,214.859,307.228,206.228,303.978z"/>
<path style="fill:#DBE9FD;" d="M311.652,400.696H200.348c-9.217,0-16.696-7.473-16.696-16.696V250.435
	c0-9.223,7.479-16.696,16.696-16.696h111.304c9.217,0,16.696,7.473,16.696,16.696V384
	C328.348,393.223,320.869,400.696,311.652,400.696z"/>
<path style="fill:#C5DCFD;" d="M311.652,233.739H256v166.957h55.652c9.217,0,16.696-7.473,16.696-16.696V250.435
	C328.348,241.212,320.869,233.739,311.652,233.739z"/>
<path style="fill:#EFBE44;" d="M183.652,293.565V384c0,9.223,7.479,16.696,16.696,16.696h111.304
	c9.217,0,16.696-7.473,16.696-16.696v-90.435H183.652z"/>
<path style="fill:#E4A738;" d="M256,293.565v107.13h55.652c9.217,0,16.696-7.473,16.696-16.696v-90.435H256z"/>
<g>
</g>
<g>
</g>
<g>
</g>
<g>
</g>
<g>
</g>
<g>
</g>
<g>
</g>
<g>
</g>
<g>
</g>
<g>
</g>
<g>
</g>
<g>
</g>
<g>
</g>
<g>
</g>
<g>
</g>
</svg>
