<?xml version="1.0" encoding="iso-8859-1"?>
<!-- Generator: Adobe Illustrator 19.0.0, SVG Export Plug-In . SVG Version: 6.00 Build 0)  -->
<svg version="1.1" id="Layer_1" xmlns="http://www.w3.org/2000/svg" xmlns:xlink="http://www.w3.org/1999/xlink" x="0px" y="0px"
	 viewBox="0 0 512 512" style="enable-background:new 0 0 512 512;" xml:space="preserve">
<path style="fill:#DBE9FD;" d="M428.526,506.438H83.479c-27.619,0-50.088-22.468-50.088-50.087V155.825
	c0-9.223,7.473-16.696,16.696-16.696h411.825c9.217,0,16.696,7.473,16.696,16.696V456.35
	C478.608,483.969,456.141,506.438,428.526,506.438z"/>
<path style="fill:#C5DCFD;" d="M461.913,139.129h-205.91v367.308h172.524c27.615,0,50.082-22.468,50.082-50.087V155.825
	C478.608,146.601,471.13,139.129,461.913,139.129z"/>
<path style="fill:#FF6243;" d="M495.304,172.521H16.696C7.473,172.521,0,165.048,0,155.825V55.65
	C0,28.031,22.468,5.563,50.088,5.563h411.825C489.532,5.563,512,28.031,512,55.65v100.175
	C512,165.048,504.521,172.521,495.304,172.521z"/>
<path style="fill:#FF3501;" d="M328.351,422.958H294.96c-9.223,0-16.696-7.473-16.696-16.696c0-9.223,7.473-16.696,16.696-16.696
	h33.392c9.206,0,16.696-7.49,16.696-16.696c0-9.206-7.49-16.696-16.696-16.696H294.96c-9.223,0-16.696-7.473-16.696-16.696v-66.783
	c0-9.223,7.473-16.696,16.696-16.696h66.783c9.223,0,16.696,7.473,16.696,16.696s-7.473,16.696-16.696,16.696h-50.087v33.392h16.696
	c27.619,0,50.087,22.468,50.087,50.087S355.971,422.958,328.351,422.958z"/>
<path style="fill:#FF6243;" d="M217.046,422.958h-66.783c-9.223,0-16.696-7.473-16.696-16.696c0-38.392,23.832-53.359,41.234-64.289
	c17.256-10.838,25.549-16.886,25.549-35.886c0-9.206-7.49-16.696-16.696-16.696c-9.206,0-16.696,7.49-16.696,16.696
	c0,9.223-7.473,16.696-16.696,16.696c-9.223,0-16.696-7.473-16.696-16.696c0-27.619,22.468-50.088,50.088-50.088
	s50.087,22.468,50.087,50.088c0,38.305-23.805,53.251-41.18,64.163c-10.919,6.853-18.25,11.799-22.18,19.316h46.664
	c9.223,0,16.696,7.473,16.696,16.696C233.742,415.485,226.269,422.958,217.046,422.958z"/>
<path style="fill:#FF3501;" d="M461.913,5.563h-205.91v166.958h239.301c9.217,0,16.696-7.473,16.696-16.696V55.65
	C512,28.03,489.533,5.563,461.913,5.563z"/>
<path style="fill:#615349;" d="M361.743,205.515c-9.223,0-16.696-7.473-16.696-16.696v-66.783c0-9.223,7.473-16.696,16.696-16.696
	c9.223,0,16.696,7.473,16.696,16.696v66.783C378.439,198.042,370.966,205.515,361.743,205.515z"/>
<path style="fill:#6E6057;" d="M150.262,205.515c-9.223,0-16.696-7.473-16.696-16.696v-66.783c0-9.223,7.473-16.696,16.696-16.696
	c9.223,0,16.696,7.473,16.696,16.696v66.783C166.958,198.042,159.485,205.515,150.262,205.515z"/>
<g>
</g>
<g>
</g>
<g>
</g>
<g>
</g>
<g>
</g>
<g>
</g>
<g>
</g>
<g>
</g>
<g>
</g>
<g>
</g>
<g>
</g>
<g>
</g>
<g>
</g>
<g>
</g>
<g>
</g>
</svg>
