<?xml version="1.0" encoding="iso-8859-1"?>
<!-- Generator: Adobe Illustrator 19.0.0, SVG Export Plug-In . SVG Version: 6.00 Build 0)  -->
<svg version="1.1" id="Layer_1" xmlns="http://www.w3.org/2000/svg" xmlns:xlink="http://www.w3.org/1999/xlink" x="0px" y="0px"
	 viewBox="0 0 512 512" style="enable-background:new 0 0 512 512;" xml:space="preserve">
<path style="fill:#C5DCFD;" d="M428.522,5.565c-27.229,0-51.378,13.161-66.625,33.391c-10.529,13.971-16.854,31.283-16.854,50.087
	c0,74.221,0,92.692,0,166.957c0,9.223,7.473,16.696,16.696,16.696h16.696h116.87c9.217,0,16.696-7.473,16.696-16.696V89.043
	C512,43.011,474.554,5.565,428.522,5.565z"/>
<path style="fill:#B1C6E4;" d="M478.609,239.304H378.435c0-84.075,0-99.005,0-150.261c0-27.619,22.468-50.087,50.087-50.087
	s50.087,22.468,50.087,50.087V239.304z"/>
<g>
	<path style="fill:#737980;" d="M427.359,139.093h-65.619c-9.223,0-16.696-7.473-16.696-16.696s7.473-16.696,16.696-16.696h65.62
		c9.223,0,16.696,7.473,16.696,16.696S436.581,139.093,427.359,139.093z"/>
	<path style="fill:#737980;" d="M427.359,205.875h-65.619c-9.223,0-16.696-7.473-16.696-16.696c0-9.223,7.473-16.696,16.696-16.696
		h65.62c9.223,0,16.696,7.473,16.696,16.696C444.054,198.402,436.581,205.875,427.359,205.875z"/>
</g>
<path style="fill:#DDEBFF;" d="M428.522,5.565H105.739C47.435,5.565,0,53,0,111.304v378.435c0,9.223,7.473,16.696,16.696,16.696
	h345.043c9.223,0,16.696-7.473,16.696-16.696c0-129.624,0-245.028,0-400.696c0-27.619,22.468-50.087,50.087-50.087
	c9.223,0,16.696-7.473,16.696-16.696S437.744,5.565,428.522,5.565z"/>
<path style="fill:#C5DCFD;" d="M428.052,5.565H289.391c-55.325,0-100.174,44.849-100.174,100.174v400.696h172.522
	c9.22,0,16.696-7.475,16.696-16.696V89.043c0-27.619,22.468-50.087,50.087-50.087c9.489,0,17.125-7.91,16.677-17.498
	C444.779,12.477,437.043,5.565,428.052,5.565z"/>
<path style="fill:#A1AAB3;" d="M150.261,272.696H83.478c-9.223,0-16.696-7.473-16.696-16.696V122.435
	c0-9.223,7.473-16.696,16.696-16.696h66.783c9.223,0,16.696,7.473,16.696,16.696V256
	C166.957,265.223,159.484,272.696,150.261,272.696z"/>
<g>
	<path style="fill:#8A9199;" d="M294.957,439.652h-77.913c-9.223,0-16.696-7.473-16.696-16.696V322.783
		c0-9.223,7.473-16.696,16.696-16.696h77.913c9.223,0,16.696,7.473,16.696,16.696v100.174
		C311.652,432.179,304.179,439.652,294.957,439.652z"/>
	<path style="fill:#8A9199;" d="M294.957,139.13h-77.913c-9.223,0-16.696-7.473-16.696-16.696s7.473-16.696,16.696-16.696h77.913
		c9.223,0,16.696,7.473,16.696,16.696S304.179,139.13,294.957,139.13z"/>
	<path style="fill:#8A9199;" d="M294.957,205.913h-77.913c-9.223,0-16.696-7.473-16.696-16.696s7.473-16.696,16.696-16.696h77.913
		c9.223,0,16.696,7.473,16.696,16.696S304.179,205.913,294.957,205.913z"/>
</g>
<g>
	<path style="fill:#A1AAB3;" d="M150.261,372.87H83.478c-9.223,0-16.696-7.473-16.696-16.696s7.473-16.696,16.696-16.696h66.783
		c9.223,0,16.696,7.473,16.696,16.696S159.484,372.87,150.261,372.87z"/>
	<path style="fill:#A1AAB3;" d="M150.261,439.652H83.478c-9.223,0-16.696-7.473-16.696-16.696s7.473-16.696,16.696-16.696h66.783
		c9.223,0,16.696,7.473,16.696,16.696S159.484,439.652,150.261,439.652z"/>
</g>
<path style="fill:#8A9199;" d="M294.957,272.696h-77.913c-9.223,0-16.696-7.473-16.696-16.696s7.473-16.696,16.696-16.696h77.913
	c9.223,0,16.696,7.473,16.696,16.696S304.179,272.696,294.957,272.696z"/>
<g>
</g>
<g>
</g>
<g>
</g>
<g>
</g>
<g>
</g>
<g>
</g>
<g>
</g>
<g>
</g>
<g>
</g>
<g>
</g>
<g>
</g>
<g>
</g>
<g>
</g>
<g>
</g>
<g>
</g>
</svg>
