<?xml version="1.0" encoding="iso-8859-1"?>
<!-- Generator: Adobe Illustrator 19.0.0, SVG Export Plug-In . SVG Version: 6.00 Build 0)  -->
<svg version="1.1" id="Layer_1" xmlns="http://www.w3.org/2000/svg" xmlns:xlink="http://www.w3.org/1999/xlink" x="0px" y="0px"
	 viewBox="0 0 512 512" style="enable-background:new 0 0 512 512;" xml:space="preserve">
<path style="fill:#6BBAE2;" d="M256,0C186.441,0,120.351,28.71,72.523,80.227c0.161,53.821,47.165,75.79,83.162,61.349
	c64.696-25.858,135.946-25.869,200.619,0c36.666,14.671,83.058-8.24,83.163-61.358C391.752,28.822,325.718,0,256,0z"/>
<path style="fill:#60AED5;" d="M356.304,141.576c36.667,14.671,83.058-8.24,83.163-61.358C391.752,28.822,325.718,0,256,0v122.178
	C289.985,122.175,323.967,128.641,356.304,141.576z"/>
<path style="fill:#6E6057;" d="M439.469,80.219C391.752,28.822,325.718,0,256,0C186.441,0,120.351,28.71,72.523,80.227
	C31.014,124.941,5.565,184.76,5.565,250.435c0,28.065,4.837,69.403,15.652,98.468l31.304-11.652
	c-7.988-21.446-13.565-57.153-13.565-86.815c0-118.468,97.025-217.043,217.043-217.043c119.802,0,217.043,98.367,217.043,217.043
	c0,29.663-5.576,65.369-13.566,86.815l31.304,11.652c10.815-29.065,15.653-70.402,15.653-98.468
	C506.435,184.755,480.983,124.932,439.469,80.219z"/>
<path style="fill:#615349;" d="M473.043,250.435c0,29.663-5.576,65.369-13.566,86.815l31.304,11.652
	c10.815-29.065,15.653-70.402,15.653-98.468c0-65.68-25.452-125.502-66.966-170.215C391.752,28.822,325.718,0,256,0v33.391
	C375.802,33.391,473.043,131.759,473.043,250.435z"/>
<path style="fill:#DBE9FD;" d="M72.348,311.652c-36.826,0-66.783,29.956-66.783,66.783s29.956,66.783,66.783,66.783
	c7.641,0,15.142-1.282,22.272-3.804V315.457C87.49,312.934,79.989,311.652,72.348,311.652z"/>
<path style="fill:#C5DCFD;" d="M439.652,311.652c-7.641,0-15.142,1.282-22.272,3.804v125.956c7.13,2.522,14.631,3.804,22.272,3.804
	c36.826,0,66.783-29.956,66.783-66.783S476.478,311.652,439.652,311.652z"/>
<path style="fill:#6BBAE2;" d="M139.13,512c-36.826,0-66.783-29.956-66.783-66.783V311.652c0-36.826,29.956-66.783,66.783-66.783
	s66.783,29.956,66.783,66.783v133.565C205.913,482.044,175.957,512,139.13,512z"/>
<path style="fill:#60AED5;" d="M372.87,512c-36.826,0-66.783-29.956-66.783-66.783V311.652c0-36.826,29.956-66.783,66.783-66.783
	s66.783,29.956,66.783,66.783v133.565C439.652,482.044,409.696,512,372.87,512z"/>
<g>
</g>
<g>
</g>
<g>
</g>
<g>
</g>
<g>
</g>
<g>
</g>
<g>
</g>
<g>
</g>
<g>
</g>
<g>
</g>
<g>
</g>
<g>
</g>
<g>
</g>
<g>
</g>
<g>
</g>
</svg>
