<?xml version="1.0" encoding="iso-8859-1"?>
<!-- Generator: Adobe Illustrator 19.0.0, SVG Export Plug-In . SVG Version: 6.00 Build 0)  -->
<svg version="1.1" id="Layer_1" xmlns="http://www.w3.org/2000/svg" xmlns:xlink="http://www.w3.org/1999/xlink" x="0px" y="0px"
	 viewBox="0 0 512 512" style="enable-background:new 0 0 512 512;" xml:space="preserve">
<rect x="289.389" y="183.65" style="fill:#80D7D7;" width="100.173" height="178.085"/>
<path style="fill:#9DB0CA;" d="M389.564,378.436H289.391c-9.22,0-16.695-7.475-16.695-16.695V183.656
	c0-9.22,7.475-16.695,16.695-16.695h100.173c9.22,0,16.695,7.475,16.695,16.695v178.085
	C406.259,370.961,398.785,378.436,389.564,378.436z"/>
<path style="fill:#C5DCFD;" d="M456.345,378.436h-66.782c-9.22,0-16.695-7.475-16.695-16.695V183.656
	c0-9.22,7.475-16.695,16.695-16.695h66.782c9.22,0,16.695,7.475,16.695,16.695v178.085
	C473.041,370.961,465.567,378.436,456.345,378.436z"/>
<rect x="122.434" y="183.65" style="fill:#80D7D7;" width="100.173" height="178.085"/>
<path style="fill:#B1C6E4;" d="M222.609,378.436H122.436c-9.22,0-16.695-7.475-16.695-16.695V183.656
	c0-9.22,7.475-16.695,16.695-16.695h100.173c9.22,0,16.695,7.475,16.695,16.695v178.085
	C239.304,370.961,231.83,378.436,222.609,378.436z"/>
<g>
	<path style="fill:#DBE9FD;" d="M122.436,378.436H55.654c-9.22,0-16.695-7.475-16.695-16.695V183.656
		c0-9.22,7.475-16.695,16.695-16.695h66.782c9.22,0,16.695,7.475,16.695,16.695v178.085
		C139.132,370.961,131.658,378.436,122.436,378.436z"/>
	<path style="fill:#DBE9FD;" d="M289.391,378.436h-66.782c-9.22,0-16.695-7.475-16.695-16.695V183.656
		c0-9.22,7.475-16.695,16.695-16.695h66.782c9.22,0,16.695,7.475,16.695,16.695v178.085
		C306.086,370.961,298.612,378.436,289.391,378.436z"/>
</g>
<g>
	<path style="fill:#C5DCFD;" d="M289.391,166.96H256v211.476h33.391c9.22,0,16.695-7.475,16.695-16.695V183.656
		C306.086,174.435,298.612,166.96,289.391,166.96z"/>
	<path style="fill:#C5DCFD;" d="M456.345,445.218H55.654c-9.22,0-16.695-7.475-16.695-16.695v-83.477h434.082v83.477
		C473.041,437.743,465.567,445.218,456.345,445.218z"/>
</g>
<path style="fill:#B1C6E4;" d="M473.041,345.045H256v100.173h200.346c9.22,0,16.695-7.475,16.695-16.695V345.045z"/>
<path style="fill:#DBE9FD;" d="M489.736,512H22.263c-9.223,0-16.695-7.478-16.695-16.695v-66.782
	c0-9.217,7.473-16.695,16.695-16.695h467.473c9.217,0,16.695,7.478,16.695,16.695v66.782C506.432,504.522,498.955,512,489.736,512z"
	/>
<g>
	<path style="fill:#C5DCFD;" d="M489.736,411.827H256V512h233.737c9.217,0,16.695-7.478,16.695-16.695v-66.782
		C506.432,419.306,498.955,411.827,489.736,411.827z"/>
	<path style="fill:#C5DCFD;" d="M489.736,200.351H22.263c-7.256,0-13.685-4.685-15.896-11.598
		c-2.217-6.913,0.288-14.467,6.191-18.684L246.294,3.114c5.804-4.152,13.609-4.152,19.412,0l233.737,166.955
		c5.902,4.217,8.402,11.771,6.195,18.684C503.421,195.666,496.998,200.351,489.736,200.351z"/>
</g>
<g>
	<path style="fill:#B1C6E4;" d="M489.736,200.351c7.26,0,13.685-4.685,15.902-11.598c2.206-6.913-0.294-14.467-6.195-18.684
		L265.707,3.114C262.805,1.038,259.402,0,256,0v200.351H489.736z"/>
	<circle style="fill:#B1C6E4;" cx="255.998" cy="116.868" r="16.695"/>
</g>
<path style="fill:#9DB0CA;" d="M272.695,116.874c0-9.22-7.475-16.695-16.695-16.695v33.391
	C265.221,133.569,272.695,126.094,272.695,116.874z"/>
<g>
</g>
<g>
</g>
<g>
</g>
<g>
</g>
<g>
</g>
<g>
</g>
<g>
</g>
<g>
</g>
<g>
</g>
<g>
</g>
<g>
</g>
<g>
</g>
<g>
</g>
<g>
</g>
<g>
</g>
</svg>
