<?xml version="1.0" encoding="iso-8859-1"?>
<!-- Generator: Adobe Illustrator 19.0.0, SVG Export Plug-In . SVG Version: 6.00 Build 0)  -->
<svg version="1.1" id="Layer_1" xmlns="http://www.w3.org/2000/svg" xmlns:xlink="http://www.w3.org/1999/xlink" x="0px" y="0px"
	 viewBox="0 0 512 512" style="enable-background:new 0 0 512 512;" xml:space="preserve">
<path style="fill:#DBE9FD;" d="M34.689,310.114v-122.1L151.241,70.071l116.553,117.944v122.1H34.689z"/>
<polygon style="fill:#C5DCFD;" points="267.794,310.114 267.794,188.014 151.241,70.071 151.241,310.114 "/>
<path style="fill:#95673F;" d="M151.241,188.011c-27.544,0-49.951,22.407-49.951,49.951v66.602c0,9.192,7.453,16.65,16.65,16.65
	h66.602c9.198,0,16.65-7.458,16.65-16.65v-66.602C201.193,210.418,178.786,188.011,151.241,188.011z"/>
<path style="fill:#875334;" d="M184.542,321.214c9.198,0,16.65-7.458,16.65-16.65v-66.602c0-27.544-22.407-49.951-49.951-49.951
	v133.203H184.542z"/>
<path style="fill:#FF6243;" d="M285.832,225.475c-4.26,0-8.521-1.626-11.772-4.879L151.241,97.778L28.423,220.596
	c-6.504,6.504-17.041,6.504-23.545,0c-6.504-6.504-6.504-17.041,0-23.545L139.469,62.46c6.504-6.504,17.041-6.504,23.545,0
	l134.591,134.591c6.504,6.504,6.504,17.041,0,23.545C294.353,223.848,290.093,225.475,285.832,225.475z"/>
<path style="fill:#FF3501;" d="M274.06,220.596c3.252,3.252,7.513,4.879,11.772,4.879s8.521-1.626,11.772-4.879
	c6.504-6.504,6.504-17.041,0-23.545L163.013,62.462c-3.252-3.252-7.513-4.879-11.772-4.879v40.195L274.06,220.596z"/>
<path style="fill:#A1A9AF;" d="M334.396,287.914H18.038c-9.198,0-16.65,7.458-16.65,16.65v66.602c0,9.192,7.453,16.65,16.65,16.65
	h316.358V287.914z"/>
<rect x="151.241" y="287.908" style="fill:#8A9096;" width="183.154" height="99.902"/>
<path style="fill:#8EB043;" d="M375.134,88.109h-57.388c-9.213,0-16.65,7.437-16.65,16.65v216.455v49.951v16.65h160.954
	c27.529,0,49.951-22.423,49.951-49.951v-112.89C512,149.493,450.616,88.109,375.134,88.109z"/>
<path style="fill:#615349;" d="M512,224.975v29.638H384.347c-9.213,0-16.65-7.437-16.65-16.65V88.109h7.437
	C450.616,88.109,512,149.493,512,224.975z"/>
<path style="fill:#6E6057;" d="M395.447,454.418c-27.544,0-49.951-22.407-49.951-49.951c0-27.544,22.407-49.951,49.951-49.951
	c27.544,0,49.951,22.407,49.951,49.951C445.399,432.011,422.992,454.418,395.447,454.418z"/>
<path style="fill:#615349;" d="M445.399,404.466c0-27.544-22.407-49.951-49.951-49.951v99.902
	C422.992,454.418,445.399,432.011,445.399,404.466z"/>
<path style="fill:#DBE9FD;" d="M395.447,387.816c-9.181,0-16.65,7.469-16.65,16.65s7.469,16.65,16.65,16.65s16.65-7.469,16.65-16.65
	S404.628,387.816,395.447,387.816z"/>
<path style="fill:#C5DCFD;" d="M412.098,404.466c0-9.181-7.469-16.65-16.65-16.65v33.301
	C404.628,421.117,412.098,413.647,412.098,404.466z"/>
<path style="fill:#6E6057;" d="M117.941,454.418c-27.544,0-49.951-22.407-49.951-49.951c0-27.544,22.407-49.951,49.951-49.951
	s49.951,22.407,49.951,49.951C167.892,432.011,145.485,454.418,117.941,454.418z"/>
<path style="fill:#615349;" d="M167.892,404.466c0-27.544-22.407-49.951-49.951-49.951v99.902
	C145.485,454.418,167.892,432.011,167.892,404.466z"/>
<path style="fill:#DBE9FD;" d="M117.941,387.816c-9.181,0-16.65,7.469-16.65,16.65s7.469,16.65,16.65,16.65s16.65-7.469,16.65-16.65
	S127.122,387.816,117.941,387.816z"/>
<g>
	<path style="fill:#C5DCFD;" d="M134.591,404.466c0-9.181-7.469-16.65-16.65-16.65v33.301
		C127.122,421.117,134.591,413.647,134.591,404.466z"/>
	<path style="fill:#C5DCFD;" d="M512,287.914h-49.951c-9.198,0-16.65,7.458-16.65,16.65s7.453,16.65,16.65,16.65H512V287.914z"/>
</g>
<g>
</g>
<g>
</g>
<g>
</g>
<g>
</g>
<g>
</g>
<g>
</g>
<g>
</g>
<g>
</g>
<g>
</g>
<g>
</g>
<g>
</g>
<g>
</g>
<g>
</g>
<g>
</g>
<g>
</g>
</svg>
