<?xml version="1.0" encoding="iso-8859-1"?>
<!-- Generator: Adobe Illustrator 19.0.0, SVG Export Plug-In . SVG Version: 6.00 Build 0)  -->
<svg version="1.1" id="Layer_1" xmlns="http://www.w3.org/2000/svg" xmlns:xlink="http://www.w3.org/1999/xlink" x="0px" y="0px"
	 viewBox="0 0 512 512" style="enable-background:new 0 0 512 512;" xml:space="preserve">
<path style="fill:#DBE9FD;" d="M356.174,512h-66.783c-9.217,0-16.696-7.473-16.696-16.696v-128h-33.391v61.217
	c0,9.223-7.479,16.696-16.696,16.696h-66.783c-9.217,0-16.696-7.473-16.696-16.696v-61.217h-33.391v128
	c0,9.223-7.479,16.696-16.696,16.696H22.261c-9.217,0-16.696-7.473-16.696-16.696V50.087C5.565,22.468,28.033,0,55.652,0h400.696
	c27.619,0,50.087,22.468,50.087,50.087v411.826c0,9.223-7.479,16.696-16.696,16.696h-66.783c-9.217,0-16.696-7.473-16.696-16.696
	v-94.609H372.87v128C372.87,504.527,365.391,512,356.174,512z"/>
<path style="fill:#C5DCFD;" d="M456.348,0H256v367.304h16.696v128c0,9.223,7.479,16.696,16.696,16.696h66.783
	c9.217,0,16.696-7.473,16.696-16.696v-128h33.391v94.609c0,9.223,7.479,16.696,16.696,16.696h66.783
	c9.217,0,16.696-7.473,16.696-16.696V50.087C506.435,22.468,483.967,0,456.348,0z"/>
<path style="fill:#A1AAB3;" d="M422.957,233.739H89.043c-9.217,0-16.696-7.473-16.696-16.696s7.479-16.696,16.696-16.696h333.913
	c9.217,0,16.696,7.473,16.696,16.696S432.174,233.739,422.957,233.739z"/>
<path style="fill:#8A9199;" d="M422.957,200.348H256v33.391h166.957c9.217,0,16.696-7.473,16.696-16.696
	S432.174,200.348,422.957,200.348z"/>
<path style="fill:#A1AAB3;" d="M422.957,166.957H89.043c-9.217,0-16.696-7.473-16.696-16.696s7.479-16.696,16.696-16.696h333.913
	c9.217,0,16.696,7.473,16.696,16.696S432.174,166.957,422.957,166.957z"/>
<path style="fill:#8A9199;" d="M422.957,133.565H256v33.391h166.957c9.217,0,16.696-7.473,16.696-16.696
	S432.174,133.565,422.957,133.565z"/>
<path style="fill:#A1AAB3;" d="M422.957,100.174H89.043c-9.217,0-16.696-7.473-16.696-16.696s7.479-16.696,16.696-16.696h333.913
	c9.217,0,16.696,7.473,16.696,16.696S432.174,100.174,422.957,100.174z"/>
<path style="fill:#8A9199;" d="M422.957,66.783H256v33.391h166.957c9.217,0,16.696-7.473,16.696-16.696
	S432.174,66.783,422.957,66.783z"/>
<path style="fill:#A1AAB3;" d="M422.957,300.522H89.043c-9.217,0-16.696-7.473-16.696-16.696s7.479-16.696,16.696-16.696h333.913
	c9.217,0,16.696,7.473,16.696,16.696S432.174,300.522,422.957,300.522z"/>
<path style="fill:#8A9199;" d="M422.957,267.13H256v33.391h166.957c9.217,0,16.696-7.473,16.696-16.696
	S432.174,267.13,422.957,267.13z"/>
<g>
</g>
<g>
</g>
<g>
</g>
<g>
</g>
<g>
</g>
<g>
</g>
<g>
</g>
<g>
</g>
<g>
</g>
<g>
</g>
<g>
</g>
<g>
</g>
<g>
</g>
<g>
</g>
<g>
</g>
</svg>
