<?xml version="1.0" encoding="iso-8859-1"?>
<!-- Generator: Adobe Illustrator 19.0.0, SVG Export Plug-In . SVG Version: 6.00 Build 0)  -->
<svg version="1.1" id="Layer_1" xmlns="http://www.w3.org/2000/svg" xmlns:xlink="http://www.w3.org/1999/xlink" x="0px" y="0px"
	 viewBox="0 0 512.001 512.001" style="enable-background:new 0 0 512.001 512.001;" xml:space="preserve">
<path style="fill:#FF3501;" d="M502.038,169.15c-0.033-0.434-0.078-0.868-0.111-1.302c-0.033-0.39-0.067-0.768-0.1-1.158
	c-0.022-0.301-0.045-0.59-0.067-0.879c-0.078-0.935-0.156-1.859-0.234-2.771c-0.022-0.312-0.056-0.612-0.078-0.913c0,0,0,0,0-0.011
	c-0.033-0.479-0.078-0.935-0.111-1.38c-0.067-0.824-0.145-1.636-0.2-2.426c-0.033-0.367-0.056-0.712-0.089-1.035
	c-0.045-0.557-0.1-1.102-0.134-1.636c-0.022-0.334-0.045-0.601-0.067-0.801c-0.011-0.178-0.022-0.301-0.033-0.356
	c-0.022-0.267-0.045-0.523-0.067-0.779l-0.189-2.271l-0.178-2.137c-0.033-0.456-0.078-0.902-0.111-1.336l-0.156-1.87l-0.267-3.25
	l-0.078-0.924c-0.011-0.145-0.022-0.289-0.033-0.423l-0.067-0.79c-0.011-0.122-0.022-0.245-0.033-0.356l-0.078-0.946
	c-0.011-0.089-0.011-0.178-0.022-0.267l-4.285-51.478c0-0.011,0-0.033-0.011-0.056c-0.746-8.626-7.969-15.249-16.629-15.249h-66.783
	c-7.19,0-13.379,4.552-15.705,11.03c-0.49,1.347-0.813,2.783-0.935,4.274l-4.285,51.478l-1.28,15.304c0,0-0.011,0.2-0.045,0.557
	c-0.033,0.334-0.067,0.801-0.122,1.391c-0.011,0.134-0.022,0.278-0.033,0.423c-0.267,3.283-0.779,9.505-1.302,15.716
	c8.014,0,16.017,0,16.017,0H486.3c0,0,8.014,0,16.017,0C502.216,171.387,502.127,170.263,502.038,169.15z"/>
<path style="fill:#B1C6E4;" d="M502.316,172.522c-0.1-1.135-0.189-2.259-0.278-3.373c-0.033-0.434-0.078-0.868-0.111-1.302
	c-0.033-0.39-0.067-0.768-0.1-1.158c-0.022-0.289-0.045-0.579-0.067-0.879c-0.078-0.935-0.156-1.859-0.234-2.771
	c-0.022-0.312-0.056-0.612-0.078-0.913c0,0,0,0,0-0.011c-0.033-0.467-0.078-0.924-0.111-1.38c-0.067-0.824-0.145-1.636-0.2-2.426
	c-0.033-0.345-0.067-0.69-0.089-1.035c-0.045-0.557-0.1-1.102-0.134-1.636c-0.033-0.267-0.056-0.534-0.067-0.801
	c-0.011-0.122-0.022-0.234-0.033-0.356c-0.022-0.267-0.045-0.523-0.067-0.779c-0.067-0.779-0.134-1.536-0.189-2.271
	c-0.067-0.735-0.122-1.447-0.178-2.137c-0.033-0.456-0.078-0.902-0.111-1.336c-0.056-0.646-0.111-1.28-0.156-1.87
	c-0.1-1.202-0.189-2.293-0.267-3.25c-0.033-0.323-0.056-0.623-0.078-0.924c-0.011-0.145-0.022-0.289-0.033-0.423
	c-0.033-0.278-0.056-0.545-0.067-0.79c-0.011-0.122-0.022-0.245-0.033-0.356c-0.033-0.356-0.056-0.668-0.078-0.946
	c-0.011-0.089-0.011-0.178-0.022-0.267H390.901l-1.28,15.304c0,0-0.011,0.2-0.045,0.557c0,0.1,0,0.211-0.011,0.323
	c-0.033,0.334-0.067,0.69-0.111,1.069c-0.011,0.134-0.022,0.278-0.033,0.423c-0.501,5.331-1.235,14.247-2.727,32.412
	c-0.991,12.088-2.326,28.238-4.141,50.087h125.329C507.292,232.193,504.52,199.024,502.316,172.522z"/>
<path style="fill:#FF3501;" d="M504.55,303.294c1.104-0.735,2.127-1.604,3.041-2.598c3.162-3.436,4.74-8.038,4.352-12.691
	c-0.094-1.119-5.97-71.648-6.841-82.091c-13.9,0-105.563,0-119.768,0c-0.197,2.361-6.96,83.512-6.841,82.091
	c-0.388,4.654,1.19,9.255,4.352,12.691c1.592,1.731,3.513,3.085,5.623,4.004c2.08,0.906,4.345,1.387,6.663,1.387h100.174
	C498.623,306.088,501.835,305.099,504.55,303.294z"/>
<path style="fill:#DBE9FD;" d="M333.913,272.696v-83.478c0-6.122-3.339-11.798-8.793-14.692c-5.455-2.894-12.021-2.56-17.141,0.779
	L256,209.921l-72.348,48.306v-69.009c0-6.122-3.339-11.798-8.793-14.692c-5.455-2.894-12.021-2.56-17.141,0.779L7.457,275.479
	C2.783,278.595,0,283.827,0,289.392V489.74c0,9.238,7.457,16.696,16.696,16.696h478.609c9.238,0,16.696-7.457,16.696-16.696V272.696
	H333.913z"/>
<path style="fill:#C5DCFD;" d="M512,272.696V489.74c0,9.238-7.457,16.696-16.696,16.696H256V209.921l51.979-34.616
	c5.12-3.339,11.687-3.673,17.141-0.779c5.454,2.894,8.793,8.57,8.793,14.692v83.478H512z"/>
<path style="fill:#A1AAB3;" d="M445.217,5.566H294.957c-15.805,0-29.83,7.235-38.957,18.699c-3.562,4.341-6.344,9.238-8.237,14.692
	h-52.981c-27.603,0-50.087,22.483-50.087,50.087c0,17.141,8.57,32.835,23.04,42.184c8.014,5.12,17.363,7.903,27.047,7.903h100.174
	c21.816,0,40.292-13.913,47.193-33.391h136.459c9.238,0,16.696-7.457,16.696-16.696V55.653
	C495.304,28.049,472.821,5.566,445.217,5.566z"/>
<path style="fill:#87D7D7;" d="M417.391,439.653H283.826c-9.217,0-16.696-7.479-16.696-16.696v-66.783
	c0-9.217,7.479-16.696,16.696-16.696h133.565c9.217,0,16.696,7.479,16.696,16.696v66.783
	C434.087,432.174,426.608,439.653,417.391,439.653z"/>
<rect x="333.913" y="339.479" style="fill:#77BDBD;" width="33.391" height="100.174"/>
<path style="fill:#8FF0F0;" d="M217.043,439.653H83.478c-9.217,0-16.696-7.479-16.696-16.696v-66.783
	c0-9.217,7.479-16.696,16.696-16.696h133.565c9.217,0,16.696,7.479,16.696,16.696v66.783
	C233.739,432.174,226.261,439.653,217.043,439.653z"/>
<rect x="133.565" y="339.479" style="fill:#80D7D7;" width="33.391" height="100.174"/>
<path style="fill:#8A9199;" d="M495.304,55.653v33.391c0,9.238-7.457,16.696-16.696,16.696H342.15
	c-6.901,19.478-25.377,33.391-47.193,33.391H256V24.265c9.127-11.464,23.151-18.699,38.957-18.699h150.261
	C472.821,5.566,495.304,28.049,495.304,55.653z"/>
<g>
</g>
<g>
</g>
<g>
</g>
<g>
</g>
<g>
</g>
<g>
</g>
<g>
</g>
<g>
</g>
<g>
</g>
<g>
</g>
<g>
</g>
<g>
</g>
<g>
</g>
<g>
</g>
<g>
</g>
</svg>
