<?xml version="1.0" encoding="iso-8859-1"?>
<!-- Generator: Adobe Illustrator 19.0.0, SVG Export Plug-In . SVG Version: 6.00 Build 0)  -->
<svg version="1.1" id="Layer_1" xmlns="http://www.w3.org/2000/svg" xmlns:xlink="http://www.w3.org/1999/xlink" x="0px" y="0px"
	 viewBox="0 0 512 512" style="enable-background:new 0 0 512 512;" xml:space="preserve">
<path style="fill:#C5DCFD;" d="M150.261,512H16.696C7.479,512,0,504.527,0,495.305V217.044c0-9.223,7.479-16.696,16.696-16.696
	h133.565c9.217,0,16.696,7.473,16.696,16.696v278.261C166.957,504.527,159.478,512,150.261,512z"/>
<path style="fill:#B1C6E4;" d="M495.304,512H361.739c-9.217,0-16.696-7.473-16.696-16.696V217.044
	c0-9.223,7.479-16.696,16.696-16.696h133.565c9.217,0,16.696,7.473,16.696,16.696v278.261C512,504.527,504.522,512,495.304,512z"/>
<path style="fill:#DBE9FD;" d="M133.565,512V144.699L256,26.435l122.435,118.264V512H133.565z"/>
<polygon style="fill:#C5DCFD;" points="378.435,512 378.435,144.699 256,26.435 256,512 "/>
<path style="fill:#FF6243;" d="M414.609,192c-4.272,0-8.544-1.631-11.804-4.892L256,40.305L114.76,181.543
	c-6.521,6.521-17.087,6.521-23.609,0c-6.521-6.516-6.521-17.092,0-23.609L244.195,4.891c6.521-6.521,17.087-6.521,23.609,0
	L426.413,163.5c6.521,6.516,6.521,17.092,0,23.609C423.153,190.37,418.881,192,414.609,192z"/>
<path style="fill:#95673F;" d="M311.652,512H200.348V350.609c0-9.22,7.475-16.696,16.696-16.696h77.913
	c9.22,0,16.696,7.475,16.696,16.696V512z"/>
<g>
	<path style="fill:#80D7D7;" d="M83.478,333.913c-9.217,0-16.696-7.473-16.696-16.696v-33.391c0-9.223,7.479-16.696,16.696-16.696
		s16.696,7.473,16.696,16.696v33.391C100.174,326.44,92.696,333.913,83.478,333.913z"/>
	<path style="fill:#80D7D7;" d="M83.478,434.087c-9.217,0-16.696-7.473-16.696-16.696V384c0-9.223,7.479-16.696,16.696-16.696
		s16.696,7.473,16.696,16.696v33.391C100.174,426.614,92.696,434.087,83.478,434.087z"/>
</g>
<g>
	<path style="fill:#77BDBD;" d="M428.522,333.913c-9.217,0-16.696-7.473-16.696-16.696v-33.391c0-9.223,7.479-16.696,16.696-16.696
		c9.217,0,16.696,7.473,16.696,16.696v33.391C445.217,326.44,437.739,333.913,428.522,333.913z"/>
	<path style="fill:#77BDBD;" d="M428.522,434.087c-9.217,0-16.696-7.473-16.696-16.696V384c0-9.223,7.479-16.696,16.696-16.696
		c9.217,0,16.696,7.473,16.696,16.696v33.391C445.217,426.614,437.739,434.087,428.522,434.087z"/>
</g>
<path style="fill:#8FF0F0;" d="M222.609,300.522c-9.217,0-16.696-7.473-16.696-16.696v-33.391c0-9.223,7.479-16.696,16.696-16.696
	s16.696,7.473,16.696,16.696v33.391C239.304,293.049,231.826,300.522,222.609,300.522z"/>
<path style="fill:#87D7D7;" d="M289.391,300.522c-9.217,0-16.696-7.473-16.696-16.696v-33.391c0-9.223,7.479-16.696,16.696-16.696
	c9.217,0,16.696,7.473,16.696,16.696v33.391C306.087,293.049,298.609,300.522,289.391,300.522z"/>
<path style="fill:#875334;" d="M294.957,333.913H256V512h55.652V350.609C311.652,341.389,304.177,333.913,294.957,333.913z"/>
<path style="fill:#FF3501;" d="M402.805,187.108c3.261,3.261,7.533,4.892,11.804,4.892s8.544-1.631,11.804-4.892
	c6.521-6.516,6.521-17.092,0-23.609L267.804,4.891C264.544,1.631,260.272,0,256,0v40.304L402.805,187.108z"/>
<path style="fill:#B1C6E4;" d="M256,200.348c-27.619,0-50.087-22.468-50.087-50.087s22.468-50.087,50.087-50.087
	s50.087,22.468,50.087,50.087S283.619,200.348,256,200.348z"/>
<path style="fill:#9DB0CA;" d="M306.087,150.261c0-27.619-22.468-50.087-50.087-50.087v100.174
	C283.619,200.348,306.087,177.88,306.087,150.261z"/>
<path style="fill:#DBE9FD;" d="M256,166.957c-9.206,0-16.696-7.49-16.696-16.696s7.49-16.696,16.696-16.696
	c9.206,0,16.696,7.49,16.696,16.696S265.206,166.957,256,166.957z"/>
<path style="fill:#C5DCFD;" d="M272.696,150.261c0-9.206-7.49-16.696-16.696-16.696v33.391
	C265.206,166.957,272.696,159.467,272.696,150.261z"/>
<g>
</g>
<g>
</g>
<g>
</g>
<g>
</g>
<g>
</g>
<g>
</g>
<g>
</g>
<g>
</g>
<g>
</g>
<g>
</g>
<g>
</g>
<g>
</g>
<g>
</g>
<g>
</g>
<g>
</g>
</svg>
