<?xml version="1.0" encoding="iso-8859-1"?>
<!-- Generator: Adobe Illustrator 19.0.0, SVG Export Plug-In . SVG Version: 6.00 Build 0)  -->
<svg version="1.1" id="Layer_1" xmlns="http://www.w3.org/2000/svg" xmlns:xlink="http://www.w3.org/1999/xlink" x="0px" y="0px"
	 viewBox="0 0 511.999 511.999" style="enable-background:new 0 0 511.999 511.999;" xml:space="preserve">
<path style="fill:#DBE9FD;" d="M256,29.174L55.652,229.522v22.261v232.391c0,9.223,7.473,16.696,16.696,16.696h367.304
	c9.223,0,16.696-7.473,16.696-16.696V229.522L256,29.174z"/>
<path style="fill:#C5DCFD;" d="M256,29.174v471.696h183.652c9.223,0,16.696-7.473,16.696-16.696V229.522L256,29.174z"/>
<path style="fill:#875334;" d="M456.348,233.739L356.174,133.565V94.609c0-9.22,7.475-16.696,16.696-16.696h66.783
	c9.22,0,16.696,7.475,16.696,16.696V233.739z"/>
<path style="fill:#FF6243;" d="M495.305,283.826c-4.272,0-8.544-1.631-11.804-4.892L256,51.435L28.5,278.934
	c-6.521,6.521-17.087,6.521-23.609,0c-6.521-6.516-6.521-17.092,0-23.609L244.195,16.021c6.521-6.521,17.087-6.521,23.609,0
	l239.304,239.304c6.521,6.516,6.521,17.092,0,23.609C503.848,282.195,499.576,283.826,495.305,283.826z"/>
<path style="fill:#FF3501;" d="M267.804,16.022c-3.26-3.261-7.532-4.892-11.804-4.892v40.304l227.501,227.501
	c3.261,3.261,7.533,4.892,11.804,4.892s8.544-1.631,11.804-4.892c6.521-6.516,6.521-17.092,0-23.609L267.804,16.022z"/>
<path style="fill:#95673F;" d="M239.305,300.522H139.131c-9.22,0-16.696,7.475-16.696,16.696v183.652H256V317.217
	C256,307.997,248.525,300.522,239.305,300.522z"/>
<path style="fill:#60AED5;" d="M456.348,300.522h-128c-9.22,0-16.696,7.475-16.696,16.696v100.174
	c0,9.22,7.475,16.696,16.696,16.696h128V300.522z"/>
<path style="fill:#6BBAE2;" d="M294.957,267.13h-77.913c-9.223,0-16.696-7.473-16.696-16.696v-77.913
	c0-9.223,7.473-16.696,16.696-16.696h77.913c9.223,0,16.696,7.473,16.696,16.696v77.913
	C311.652,259.657,304.179,267.13,294.957,267.13z"/>
<path style="fill:#E4A738;" d="M256,400.696h-50.087c-9.22,0-16.696-7.475-16.696-16.696l0,0c0-9.22,7.475-16.696,16.696-16.696H256
	V400.696z"/>
<path style="fill:#60AED5;" d="M294.957,155.826H256V267.13h38.957c9.223,0,16.696-7.473,16.696-16.696v-77.913
	C311.652,163.299,304.179,155.826,294.957,155.826z"/>
<g>
</g>
<g>
</g>
<g>
</g>
<g>
</g>
<g>
</g>
<g>
</g>
<g>
</g>
<g>
</g>
<g>
</g>
<g>
</g>
<g>
</g>
<g>
</g>
<g>
</g>
<g>
</g>
<g>
</g>
</svg>
