<?xml version="1.0" encoding="iso-8859-1"?>
<!-- Generator: Adobe Illustrator 19.0.0, SVG Export Plug-In . SVG Version: 6.00 Build 0)  -->
<svg version="1.1" id="Layer_1" xmlns="http://www.w3.org/2000/svg" xmlns:xlink="http://www.w3.org/1999/xlink" x="0px" y="0px"
	 viewBox="0 0 511.999 511.999" style="enable-background:new 0 0 511.999 511.999;" xml:space="preserve">
<path style="fill:#DBE9FD;" d="M256,29.174L55.652,229.522v22.261v232.391c0,9.223,7.473,16.696,16.696,16.696h367.304
	c9.223,0,16.696-7.473,16.696-16.696V229.522L256,29.174z"/>
<path style="fill:#C5DCFD;" d="M256,29.174v471.696h183.652c9.223,0,16.696-7.473,16.696-16.696V229.522L256,29.174z"/>
<path style="fill:#875334;" d="M456.348,233.739L356.174,133.565V94.609c0-9.22,7.475-16.696,16.696-16.696h66.783
	c9.22,0,16.696,7.475,16.696,16.696V233.739z"/>
<path style="fill:#FF6243;" d="M495.305,283.826c-4.272,0-8.544-1.631-11.804-4.892L256,51.435L28.5,278.934
	c-6.521,6.521-17.087,6.521-23.609,0c-6.521-6.516-6.521-17.092,0-23.609L244.195,16.021c6.521-6.521,17.087-6.521,23.609,0
	l239.304,239.304c6.521,6.516,6.521,17.092,0,23.609C503.848,282.195,499.576,283.826,495.305,283.826z"/>
<path style="fill:#FF3501;" d="M267.804,16.022c-3.26-3.261-7.532-4.892-11.804-4.892v40.304l227.501,227.501
	c3.261,3.261,7.533,4.892,11.804,4.892s8.544-1.631,11.804-4.892c6.521-6.516,6.521-17.092,0-23.609L267.804,16.022z"/>
<path style="fill:#60AED5;" d="M333.913,434.087c-27.619,0-50.087-22.468-50.087-50.087s22.468-50.087,50.087-50.087
	S384,356.381,384,384S361.532,434.087,333.913,434.087z"/>
<g>
	<path style="fill:#6BBAE2;" d="M178.087,300.522c-27.619,0-50.087-22.468-50.087-50.087s22.468-50.087,50.087-50.087
		s50.087,22.468,50.087,50.087S205.706,300.522,178.087,300.522z"/>
	<path style="fill:#6BBAE2;" d="M347.047,227.283L256,344.376l-64.779,83.256c-3.228,4.23-8.125,6.456-13.134,6.456
		c-3.562,0-7.235-1.113-10.24-3.562c-7.346-5.565-8.57-16.139-2.894-23.374L256,290.059l64.779-83.256
		c5.565-7.235,16.139-8.57,23.374-2.893C351.499,209.475,352.724,220.049,347.047,227.283z"/>
</g>
<path style="fill:#60AED5;" d="M347.047,227.283L256,344.376v-54.316l64.779-83.256c5.565-7.235,16.139-8.57,23.374-2.893
	C351.499,209.475,352.724,220.049,347.047,227.283z"/>
<g>
</g>
<g>
</g>
<g>
</g>
<g>
</g>
<g>
</g>
<g>
</g>
<g>
</g>
<g>
</g>
<g>
</g>
<g>
</g>
<g>
</g>
<g>
</g>
<g>
</g>
<g>
</g>
<g>
</g>
</svg>
