<?xml version="1.0" encoding="iso-8859-1"?>
<!-- Generator: Adobe Illustrator 19.0.0, SVG Export Plug-In . SVG Version: 6.00 Build 0)  -->
<svg version="1.1" id="Layer_1" xmlns="http://www.w3.org/2000/svg" xmlns:xlink="http://www.w3.org/1999/xlink" x="0px" y="0px"
	 viewBox="0 0 512.001 512.001" style="enable-background:new 0 0 512.001 512.001;" xml:space="preserve">
<path style="fill:#DBE9FD;" d="M33.392,116.871v378.434c0,9.217,7.479,16.696,16.696,16.696h411.714
	c9.217,0,16.696-7.479,16.696-16.696V116.871C478.497,116.871,33.392,116.871,33.392,116.871z"/>
<path style="fill:#C5DCFD;" d="M256,512h205.801c9.217,0,16.696-7.479,16.696-16.696V116.871H256V512z"/>
<path style="fill:#FF6243;" d="M495.304,133.566H16.696c-6.152,0-11.815-3.391-14.718-8.815c-2.913-5.435-2.587-12.022,0.826-17.141
	L69.587,7.437c3.098-4.641,8.304-7.435,13.891-7.435h345.043c5.587,0,10.793,2.794,13.891,7.435l66.782,100.174
	c3.413,5.12,3.739,11.707,0.826,17.141C507.119,130.175,501.456,133.566,495.304,133.566z"/>
<path style="fill:#FF3501;" d="M442.412,7.435C439.315,2.794,434.108,0,428.522,0H256v133.565h239.304
	c6.152,0,11.815-3.391,14.718-8.815c2.913-5.435,2.587-12.022-0.826-17.141L442.412,7.435z"/>
<path style="fill:#8FF0F0;" d="M389.565,267.131H256c-9.217,0-16.696-7.479-16.696-16.696v-66.782
	c0-9.217,7.479-16.696,16.696-16.696h133.565c9.217,0,16.584,7.479,16.584,16.696v66.782
	C406.15,259.653,398.782,267.131,389.565,267.131z"/>
<path style="fill:#87D7D7;" d="M389.565,267.131c9.217,0,16.584-7.479,16.584-16.696v-66.782c0-9.217-7.367-16.696-16.584-16.696
	H256v100.174H389.565z"/>
<rect x="306.086" y="166.956" style="fill:#77BDBD;" width="33.391" height="100.174"/>
<g>
	<path style="fill:#8FF0F0;" d="M189.218,267.131h-66.782c-9.217,0-16.696-7.479-16.696-16.696v-66.782
		c0-9.217,7.479-16.696,16.696-16.696h66.782c9.217,0,16.584,7.479,16.584,16.696v66.782
		C205.802,259.653,198.435,267.131,189.218,267.131z"/>
	<path style="fill:#8FF0F0;" d="M122.435,400.696H33.392V300.522h89.043c9.22,0,16.584,7.475,16.584,16.696v66.782
		C139.02,393.221,131.656,400.696,122.435,400.696z"/>
</g>
<path style="fill:#95673F;" d="M339.367,512H172.522V317.218c0-9.22,7.475-16.696,16.696-16.696h133.565
	c9.22,0,16.584,7.475,16.584,16.696V512z"/>
<path style="fill:#875334;" d="M322.783,300.522H256V512h83.367V317.218C339.367,307.997,332.003,300.522,322.783,300.522z"/>
<path style="fill:#87D7D7;" d="M478.497,400.696h-88.932c-9.22,0-16.696-7.475-16.696-16.696v-66.782
	c0-9.22,7.475-16.696,16.696-16.696h88.932V400.696z"/>
<path style="fill:#EFBE44;" d="M222.609,417.392h-50.087v-33.391h50.087c9.22,0,16.696,7.475,16.696,16.696l0,0
	C239.305,409.917,231.83,417.392,222.609,417.392z"/>
<g>
</g>
<g>
</g>
<g>
</g>
<g>
</g>
<g>
</g>
<g>
</g>
<g>
</g>
<g>
</g>
<g>
</g>
<g>
</g>
<g>
</g>
<g>
</g>
<g>
</g>
<g>
</g>
<g>
</g>
</svg>
