<?xml version="1.0" encoding="iso-8859-1"?>
<!-- Generator: Adobe Illustrator 19.0.0, SVG Export Plug-In . SVG Version: 6.00 Build 0)  -->
<svg version="1.1" id="Layer_1" xmlns="http://www.w3.org/2000/svg" xmlns:xlink="http://www.w3.org/1999/xlink" x="0px" y="0px"
	 viewBox="0 0 512 512" style="enable-background:new 0 0 512 512;" xml:space="preserve">
<path style="fill:#615349;" d="M245.788,372.88h-14.435c-9.223,0-16.696-7.473-16.696-16.696s7.473-16.696,16.696-16.696h14.435
	c13.859,0,25.587-9.918,27.892-23.587l4.424-26.282c1.522-9.092,10.141-15.25,19.233-13.69c9.092,1.527,15.223,10.141,13.69,19.233
	l-4.424,26.282C301.587,351.25,276.011,372.88,245.788,372.88z"/>
<path style="fill:#95673F;" d="M251.882,490.974c-8.57,9.795-20.814,15.471-33.837,15.471h-43.409
	c-22.15,0-41.183-16.584-44.299-38.511L103.29,278.828l135.011,8.237l7.457,52.424l14.358,100.174l2.226,15.583
	C264.237,468.156,260.341,481.179,251.882,490.974z"/>
<g>
	<path style="fill:#875334;" d="M260.118,439.662h-52.647c-9.238,0-16.696-7.457-16.696-16.696s7.457-16.696,16.696-16.696h47.861
		L260.118,439.662z"/>
	<path style="fill:#875334;" d="M250.546,372.88h-43.075c-9.238,0-16.696-7.457-16.696-16.696s7.457-16.696,16.696-16.696h38.289
		L250.546,372.88z"/>
</g>
<path style="fill:#C5DCFD;" d="M50.087,139.141C22.468,139.141,0,161.609,0,189.228s22.468,50.087,50.087,50.087h34.451V139.141
	H50.087z"/>
<path style="fill:#B1C6E4;" d="M0,189.228c0,27.619,22.468,50.087,50.087,50.087h34.451v-50.087H0z"/>
<path style="fill:#D8842A;" d="M428.522,272.706c-9.223,0-16.696-7.473-16.696-16.696V122.445c0-9.223,7.473-16.696,16.696-16.696
	c46.032,0,83.478,37.446,83.478,83.478S474.554,272.706,428.522,272.706z"/>
<path style="fill:#BF6525;" d="M411.826,256.01c0,9.223,7.473,16.696,16.696,16.696c46.032,0,83.478-37.446,83.478-83.478H411.826
	V256.01z"/>
<path style="fill:#E79D2E;" d="M345.043,55.2c-23.993,10.445-55.06,17.159-82.549,17.159h-99.19
	c-53.224-0.001-96.522,43.299-96.522,96.521v40.696c0,53.222,43.299,96.522,96.522,96.522h99.19
	c27.489,0,58.556,6.713,82.549,17.159c13.899,6.051,18.537,9.698,33.391,19.601V35.599C363.928,45.27,359.014,49.118,345.043,55.2z"
	/>
<path style="fill:#D8842A;" d="M66.783,189.228v20.348c0,53.222,43.299,96.522,96.522,96.522h99.19
	c27.489,0,58.556,6.713,82.549,17.159c13.899,6.051,18.538,9.698,33.391,19.601V189.228H66.783z"/>
<path style="fill:#DBE9FD;" d="M419.261,8.38l-40.826,27.218c-14.506,9.671-19.42,13.519-33.391,19.601v268.055
	c13.899,6.051,18.537,9.698,33.391,19.601l40.826,27.218c5.126,3.42,11.706,3.734,17.141,0.831
	c5.424-2.907,8.815-8.565,8.815-14.723V22.269C445.217,8.946,430.332,0.996,419.261,8.38z"/>
<path style="fill:#C5DCFD;" d="M345.043,189.228v134.028c13.899,6.051,18.538,9.698,33.391,19.601l40.826,27.218
	c5.126,3.42,11.706,3.734,17.141,0.831c5.424-2.907,8.815-8.565,8.815-14.723V189.227H345.043V189.228z"/>
<g>
</g>
<g>
</g>
<g>
</g>
<g>
</g>
<g>
</g>
<g>
</g>
<g>
</g>
<g>
</g>
<g>
</g>
<g>
</g>
<g>
</g>
<g>
</g>
<g>
</g>
<g>
</g>
<g>
</g>
</svg>
