<?xml version="1.0" encoding="iso-8859-1"?>
<!-- Generator: Adobe Illustrator 19.0.0, SVG Export Plug-In . SVG Version: 6.00 Build 0)  -->
<svg version="1.1" id="Layer_1" xmlns="http://www.w3.org/2000/svg" xmlns:xlink="http://www.w3.org/1999/xlink" x="0px" y="0px"
	 viewBox="0 0 512 512" style="enable-background:new 0 0 512 512;" xml:space="preserve">
<path style="fill:#6E6057;" d="M413.217,55.652H98.794c-17.467,0-33.88,6.772-46.228,19.076
	c-12.359,12.326-19.174,28.733-19.163,46.2c0,75.772,0.022,186.772,0.055,251.951c0,9.217,7.479,16.685,16.696,16.685h0.011h411.749
	c9.217,0,16.696-7.473,16.696-16.696V121.043C478.609,84.989,449.272,55.652,413.217,55.652z"/>
<path style="fill:#615349;" d="M413.217,55.652H256v333.913h205.913c9.217,0,16.696-7.473,16.696-16.696V121.043
	C478.609,84.989,449.272,55.652,413.217,55.652z"/>
<path style="fill:#8FF0F0;" d="M66.837,356.174c-0.022-66.239-0.043-165.62-0.043-235.245c0-8.657,3.228-16.451,9.347-22.56
	c6.12-6.097,13.956-9.325,22.653-9.325h314.424c17.642,0,32,14.354,32,32v235.13H66.837z"/>
<path style="fill:#87D7D7;" d="M256,89.043v267.13h189.217v-235.13c0-17.646-14.358-32-32-32H256z"/>
<path style="fill:#806F65;" d="M436.174,456.348H75.826C34.011,456.348,0,422.331,0,380.522v-7.652
	c0-9.223,7.479-16.696,16.696-16.696h478.609c9.217,0,16.696,7.473,16.696,16.696v7.652
	C512,422.331,477.989,456.348,436.174,456.348z"/>
<path style="fill:#6E6057;" d="M495.304,356.174H256v100.174h180.174c41.815,0,75.826-34.017,75.826-75.826v-7.652
	C512,363.647,504.521,356.174,495.304,356.174z"/>
<g>
	<path style="fill:#DBE9FD;" d="M295.624,150.929L128.668,317.885c-3.228,3.228-7.569,4.897-11.798,4.897s-8.57-1.67-11.798-4.897
		c-6.567-6.456-6.567-17.141,0-23.597l166.957-166.957c6.567-6.567,17.03-6.567,23.596,0
		C302.191,133.788,302.191,144.473,295.624,150.929z"/>
	<path style="fill:#DBE9FD;" d="M406.929,150.929L239.972,317.885c-3.228,3.228-7.569,4.897-11.798,4.897s-8.57-1.67-11.798-4.897
		c-6.567-6.456-6.567-17.141,0-23.597l166.957-166.957c6.567-6.567,17.03-6.567,23.597,0
		C413.496,133.788,413.496,144.473,406.929,150.929z"/>
</g>
<g>
	<path style="fill:#C5DCFD;" d="M406.929,150.929L256,301.857v-47.193l127.332-127.332c6.567-6.567,17.03-6.567,23.597,0
		C413.496,133.788,413.496,144.473,406.929,150.929z"/>
	<path style="fill:#C5DCFD;" d="M295.624,150.929L256,190.553V143.36l16.028-16.028c6.567-6.567,17.03-6.567,23.597,0
		C302.191,133.788,302.191,144.473,295.624,150.929z"/>
</g>
<g>
</g>
<g>
</g>
<g>
</g>
<g>
</g>
<g>
</g>
<g>
</g>
<g>
</g>
<g>
</g>
<g>
</g>
<g>
</g>
<g>
</g>
<g>
</g>
<g>
</g>
<g>
</g>
<g>
</g>
</svg>
