<?xml version="1.0" encoding="iso-8859-1"?>
<!-- Generator: Adobe Illustrator 19.0.0, SVG Export Plug-In . SVG Version: 6.00 Build 0)  -->
<svg version="1.1" id="Layer_1" xmlns="http://www.w3.org/2000/svg" xmlns:xlink="http://www.w3.org/1999/xlink" x="0px" y="0px"
	 viewBox="0 0 512 512" style="enable-background:new 0 0 512 512;" xml:space="preserve">
<path style="fill:#6E6057;" d="M155.815,178.087c-2.75,0-5.543-0.673-8.109-2.109c-8.054-4.489-10.957-14.652-6.468-22.706
	l70.478-126.576c4.478-8.065,14.674-10.978,22.706-6.468c8.054,4.489,10.957,14.652,6.468,22.706L170.413,169.51
	C167.358,175,161.674,178.087,155.815,178.087z"/>
<path style="fill:#615349;" d="M356.185,178.087c-5.859,0-11.543-3.086-14.598-8.565L271.598,43.935
	c-4.489-8.054-1.598-18.228,6.457-22.717c8.055-4.489,18.228-1.598,22.717,6.457l69.989,125.587
	c4.489,8.054,1.598,18.228-6.457,22.717C361.728,177.414,358.934,178.087,356.185,178.087z"/>
<path style="fill:#95673F;" d="M456.348,512H55.652c-27.619,0-50.087-22.468-50.087-50.087v-267.13
	c0-27.619,22.468-50.087,50.087-50.087h400.696c27.619,0,50.087,22.468,50.087,50.087v267.13
	C506.435,489.532,483.967,512,456.348,512z"/>
<path style="fill:#875334;" d="M456.348,144.696H256V512h200.348c27.619,0,50.087-22.468,50.087-50.087v-267.13
	C506.435,167.164,483.967,144.696,456.348,144.696z"/>
<path style="fill:#DDEBFF;" d="M422.957,445.217H89.043c-9.217,0-16.696-7.479-16.696-16.696V228.174
	c0-9.217,7.479-16.696,16.696-16.696h333.913c9.217,0,16.696,7.479,16.696,16.696v200.348
	C439.652,437.739,432.174,445.217,422.957,445.217z"/>
<path style="fill:#C2DAFD;" d="M422.957,211.478H256v233.739h166.957c9.217,0,16.696-7.479,16.696-16.696V228.174
	C439.652,218.957,432.174,211.478,422.957,211.478z"/>
<g>
	<path style="fill:#A1AAB3;" d="M233.739,378.435h-77.913c-9.217,0-16.696-7.479-16.696-16.696c0-9.217,7.479-16.696,16.696-16.696
		h77.913c9.217,0,16.696,7.479,16.696,16.696C250.435,370.956,242.956,378.435,233.739,378.435z"/>
	<path style="fill:#A1AAB3;" d="M356.174,311.652H155.826c-9.217,0-16.696-7.479-16.696-16.696c0-9.217,7.479-16.696,16.696-16.696
		h200.348c9.217,0,16.696,7.479,16.696,16.696C372.87,304.174,365.391,311.652,356.174,311.652z"/>
</g>
<path style="fill:#8A9199;" d="M356.174,278.261H256v33.391h100.174c9.217,0,16.696-7.479,16.696-16.696
	C372.87,285.739,365.391,278.261,356.174,278.261z"/>
<path style="fill:#DBE9FD;" d="M256,100.174c-27.619,0-50.087-22.468-50.087-50.087C205.913,22.775,227.954,0,256,0
	c19.25,0,37.022,11.24,45.272,28.641l0,0c3.196,6.739,4.815,13.956,4.815,21.446C306.087,77.706,283.619,100.174,256,100.174z"/>
<path style="fill:#C5DCFD;" d="M306.087,50.087c0-7.49-1.619-14.707-4.815-21.446C293.022,11.24,275.25,0,256,0v100.174
	C283.619,100.174,306.087,77.706,306.087,50.087z"/>
<path style="fill:#A1AAB3;" d="M256,33.391c-9.167,0-16.696,7.415-16.696,16.696c0,9.206,7.49,16.696,16.696,16.696
	s16.696-7.49,16.696-16.696c0-2.5-1.598-7.13-1.598-7.141C268.348,37.141,262.423,33.391,256,33.391z"/>
<path style="fill:#8A9199;" d="M272.696,50.087c0-2.5-1.598-7.13-1.598-7.141c-2.749-5.805-8.674-9.554-15.097-9.554v33.391
	C265.206,66.783,272.696,59.293,272.696,50.087z"/>
<g>
</g>
<g>
</g>
<g>
</g>
<g>
</g>
<g>
</g>
<g>
</g>
<g>
</g>
<g>
</g>
<g>
</g>
<g>
</g>
<g>
</g>
<g>
</g>
<g>
</g>
<g>
</g>
<g>
</g>
</svg>
