<?xml version="1.0" encoding="iso-8859-1"?>
<!-- Generator: Adobe Illustrator 19.0.0, SVG Export Plug-In . SVG Version: 6.00 Build 0)  -->
<svg version="1.1" id="Layer_1" xmlns="http://www.w3.org/2000/svg" xmlns:xlink="http://www.w3.org/1999/xlink" x="0px" y="0px"
	 viewBox="0 0 512 512" style="enable-background:new 0 0 512 512;" xml:space="preserve">
<path style="fill:#EFBE44;" d="M463.163,48.837C431.674,17.342,389.75,0,345.109,0c-44.636,0-86.565,17.342-118.054,48.837
	c-42.593,42.593-58.685,103.543-43.196,161.25L4.892,390.521C1.761,393.652,0,397.896,0,402.326v92.978
	C0,504.527,7.473,512,16.696,512h92.978c4.429,0,8.674-1.761,11.804-4.892l23.609-23.609c3.131-3.131,5.114-7.375,5.114-11.804
	V442.97h30.305c4.429,0,8.674-2.095,11.804-5.226l23.614-23.614c3.131-3.131,5.56-7.375,5.56-11.804v-30.639h29.86
	c4.429,0,8.674-1.65,11.804-4.779l38.766-38.766c57.728,15.5,118.663-0.603,161.25-43.196C494.663,253.457,512,211.527,512,166.891
	C512,122.25,494.663,80.326,463.163,48.837z M414.563,191.951c-13.021,13.016-30.125,19.527-47.229,19.527
	c-17.104,0-34.202-6.511-47.223-19.522l-0.006-0.006c-26.033-26.043-26.033-68.408,0.006-94.441
	c12.597-12.603,29.37-19.538,47.223-19.538c17.853,0,34.625,6.934,47.223,19.538C440.596,123.543,440.596,165.908,414.563,191.951z"
	/>
<path style="fill:#E4A738;" d="M463.163,48.837l-48.64,48.64c0.011,0.011,0.023,0.022,0.036,0.033
	c26.039,26.033,26.039,68.397,0.006,94.441c-13.023,13.016-30.126,19.527-47.23,19.527c-17.104,0-34.202-6.511-47.223-19.522
	l-0.006-0.006c-0.01-0.01-0.019-0.02-0.028-0.03L4.89,507.11c3.021,3.022,7.195,4.89,11.806,4.89h92.978
	c4.43,0,8.675-1.761,11.805-4.891l23.609-23.609c3.131-3.131,5.114-7.375,5.113-11.805V442.97h30.305
	c4.429,0,8.674-2.095,11.804-5.226l23.614-23.614c3.13-3.13,5.559-7.375,5.559-11.804v-30.639h29.86
	c4.43,0,8.674-1.651,11.804-4.781l38.766-38.766c57.729,15.5,118.664-0.603,161.25-43.196C494.663,253.457,512,211.526,512,166.892
	C512,122.25,494.663,80.326,463.163,48.837z"/>
<g>
</g>
<g>
</g>
<g>
</g>
<g>
</g>
<g>
</g>
<g>
</g>
<g>
</g>
<g>
</g>
<g>
</g>
<g>
</g>
<g>
</g>
<g>
</g>
<g>
</g>
<g>
</g>
<g>
</g>
</svg>
