<?xml version="1.0" encoding="iso-8859-1"?>
<!-- Generator: Adobe Illustrator 19.0.0, SVG Export Plug-In . SVG Version: 6.00 Build 0)  -->
<svg version="1.1" id="Layer_1" xmlns="http://www.w3.org/2000/svg" xmlns:xlink="http://www.w3.org/1999/xlink" x="0px" y="0px"
	 viewBox="0 0 512 512" style="enable-background:new 0 0 512 512;" xml:space="preserve">
<path style="fill:#FF6243;" d="M504.097,186.212L437.315,74.908c-1.892-3.117-4.786-5.565-8.125-6.901L262.233,1.224
	C260.23,0.445,258.115,0,256,0c-2.115,0-4.23,0.445-6.233,1.224L82.81,68.007c-3.339,1.336-6.233,3.784-8.125,6.901L7.903,186.212
	c-3.005,5.12-3.117,11.576-0.223,16.807c3.005,5.231,8.57,8.459,14.581,8.459h467.478c6.01,0,11.576-3.228,14.581-8.459
	C507.214,197.788,507.103,191.332,504.097,186.212z"/>
<path style="fill:#FF3501;" d="M504.32,203.019c-3.005,5.231-8.57,8.459-14.581,8.459H256V0c2.115,0,4.23,0.445,6.233,1.224
	L429.19,68.007c3.339,1.336,6.233,3.784,8.125,6.901l66.783,111.304C507.103,191.332,507.214,197.788,504.32,203.019z"/>
<path style="fill:#DBE9FD;" d="M473.043,211.478v283.826c0,9.238-7.457,16.696-16.696,16.696H55.652
	c-9.238,0-16.696-7.457-16.696-16.696V211.478H473.043z"/>
<path style="fill:#C5DCFD;" d="M473.043,211.478v283.826c0,9.238-7.457,16.696-16.696,16.696H256V211.478H473.043z"/>
<path style="fill:#8FF0F0;" d="M139.13,445.217H38.957V345.043H139.13c9.22,0,16.696,7.475,16.696,16.696v66.783
	C155.826,437.742,148.351,445.217,139.13,445.217z"/>
<path style="fill:#87D7D7;" d="M473.043,445.217H372.87c-9.22,0-16.696-7.475-16.696-16.696v-66.783
	c0-9.22,7.475-16.696,16.696-16.696h100.174V445.217z"/>
<path style="fill:#B1C6E4;" d="M456.348,512H294.957v-83.478h178.087v66.783C473.043,504.525,465.568,512,456.348,512z"/>
<path style="fill:#BED8FD;" d="M217.043,512H55.652c-9.22,0-16.696-7.475-16.696-16.696v-66.783h178.087V512z"/>
<path style="fill:#95673F;" d="M256,328.348c-2.894,0-5.788,0.223-8.793,0.557c-33.614,4.341-57.99,34.616-57.99,68.563V512h133.565
	V395.13C322.783,358.289,292.842,328.348,256,328.348z"/>
<path style="fill:#875334;" d="M322.783,395.13V512H256V328.348C292.842,328.348,322.783,358.289,322.783,395.13z"/>
<path style="fill:#8FF0F0;" d="M356.174,278.261H155.826c-9.223,0-16.696-7.479-16.696-16.696V128
	c0-9.217,7.473-16.696,16.696-16.696h200.348c9.223,0,16.696,7.479,16.696,16.696v133.565
	C372.87,270.782,365.397,278.261,356.174,278.261z"/>
<path style="fill:#EFBE44;" d="M222.609,428.522h-33.391V395.13h33.391c9.22,0,16.696,7.475,16.696,16.696l0,0
	C239.304,421.047,231.829,428.522,222.609,428.522z"/>
<path style="fill:#87D7D7;" d="M356.174,111.304H256v166.957h100.174c9.223,0,16.696-7.479,16.696-16.696V128
	C372.87,118.783,365.397,111.304,356.174,111.304z"/>
<rect x="239.304" y="111.304" style="fill:#80D7D7;" width="33.391" height="166.957"/>
<rect x="256" y="111.304" style="fill:#77BDBD;" width="16.696" height="166.957"/>
<path style="fill:#A1AAB3;" d="M489.739,294.957H22.261c-9.223,0-16.696-7.479-16.696-16.696c0-9.217,7.473-16.696,16.696-16.696
	h467.478c9.217,0,16.696,7.479,16.696,16.696C506.435,287.478,498.956,294.957,489.739,294.957z"/>
<path style="fill:#8A9199;" d="M489.739,261.565H256v33.391h233.739c9.217,0,16.696-7.479,16.696-16.696
	C506.435,269.044,498.956,261.565,489.739,261.565z"/>
<rect x="139.13" y="178.087" style="fill:#80D7D7;" width="233.739" height="33.391"/>
<rect x="256" y="178.087" style="fill:#77BDBD;" width="116.87" height="33.391"/>
<g>
</g>
<g>
</g>
<g>
</g>
<g>
</g>
<g>
</g>
<g>
</g>
<g>
</g>
<g>
</g>
<g>
</g>
<g>
</g>
<g>
</g>
<g>
</g>
<g>
</g>
<g>
</g>
<g>
</g>
</svg>
