<?xml version="1.0" encoding="iso-8859-1"?>
<!-- Generator: Adobe Illustrator 19.0.0, SVG Export Plug-In . SVG Version: 6.00 Build 0)  -->
<svg version="1.1" id="Layer_1" xmlns="http://www.w3.org/2000/svg" xmlns:xlink="http://www.w3.org/1999/xlink" x="0px" y="0px"
	 viewBox="0 0 512 512" style="enable-background:new 0 0 512 512;" xml:space="preserve">
<rect x="166.957" y="139.13" style="fill:#B1B7BD;" width="100.174" height="100.174"/>
<rect x="217.043" y="139.13" style="fill:#A1A9AF;" width="50.087" height="100.174"/>
<path style="fill:#B1B7BD;" d="M217.043,5.565c-27.619,0-50.087,22.468-50.087,50.087v33.391c0,9.217,7.479,16.696,16.696,16.696
	h66.783c9.217,0,16.696-7.479,16.696-16.696V55.652C267.13,28.033,244.663,5.565,217.043,5.565z"/>
<path style="fill:#A1A9AF;" d="M250.435,105.739c9.217,0,16.696-7.479,16.696-16.696V55.652c0-27.619-22.468-50.087-50.087-50.087
	v100.174H250.435z"/>
<path style="fill:#FF6243;" d="M317.217,172.522H116.87c-27.619,0-50.087-22.468-50.087-50.087s22.468-50.087,50.087-50.087h200.348
	c27.619,0,50.087,22.468,50.087,50.087S344.836,172.522,317.217,172.522z"/>
<path style="fill:#FF3501;" d="M317.217,72.348H217.043v100.174h100.174c27.619,0,50.087-22.468,50.087-50.087
	S344.836,72.348,317.217,72.348z"/>
<path style="fill:#C9D0D7;" d="M361.739,272.696h-39.513c-13.913-29.162-39.513-51.757-70.233-61.44
	c-11.242-3.562-23.04-5.343-34.95-5.343c-45.078,0-85.927,26.379-105.183,66.783H16.696C7.457,272.696,0,280.153,0,289.391v100.174
	c0,9.238,7.457,16.696,16.696,16.696h94.72c19.367,40.403,60.327,66.783,105.628,66.783c45.078,0,85.927-26.379,105.071-66.783
	h39.624c9.238,0,16.696,7.457,16.696,16.696v66.783c0,9.238,7.457,16.696,16.696,16.696h100.174c9.238,0,16.696-7.457,16.696-16.696
	v-66.783C512,340.146,444.55,272.696,361.739,272.696z"/>
<path style="fill:#B8C2C9;" d="M512,422.957v66.783c0,9.238-7.457,16.696-16.696,16.696H395.13c-9.238,0-16.696-7.457-16.696-16.696
	v-66.783c0-9.238-7.457-16.696-16.696-16.696h-39.624c-19.144,40.403-59.993,66.783-105.071,66.783v-267.13
	c11.91,0,23.708,1.781,34.95,5.343c30.72,9.683,56.32,32.278,70.233,61.44h39.513C444.55,272.696,512,340.146,512,422.957z"/>
<g>
</g>
<g>
</g>
<g>
</g>
<g>
</g>
<g>
</g>
<g>
</g>
<g>
</g>
<g>
</g>
<g>
</g>
<g>
</g>
<g>
</g>
<g>
</g>
<g>
</g>
<g>
</g>
<g>
</g>
</svg>
