<?xml version="1.0" encoding="iso-8859-1"?>
<!-- Generator: Adobe Illustrator 19.0.0, SVG Export Plug-In . SVG Version: 6.00 Build 0)  -->
<svg version="1.1" id="Layer_1" xmlns="http://www.w3.org/2000/svg" xmlns:xlink="http://www.w3.org/1999/xlink" x="0px" y="0px"
	 viewBox="0 0 512.001 512.001" style="enable-background:new 0 0 512.001 512.001;" xml:space="preserve">
<path style="fill:#C5DCFD;" d="M407.962,246.735c2.542-6.353,1.112-13.5-3.733-18.344l-119.119-119.12
	c-6.591-6.591-17.232-6.591-23.823,0L14.473,356.086c-19.298,19.298-19.298,50.744,0,70.042l55.588,55.588
	c4.289,4.289,10.483,5.877,16.042,4.447c5.797-1.509,10.323-5.877,11.991-11.516l10.959-40.818l52.174-4.684
	c6.829-0.636,12.706-5.401,14.612-12.071l12.627-42.485l52.174-4.685c6.829-0.635,12.627-5.321,14.612-11.911l12.706-42.565
	l52.094-4.765c6.829-0.635,12.627-5.32,14.612-11.912l12.31-41.533l45.345-0.08C399.146,257.138,405.341,253.009,407.962,246.735z"
	/>
<path style="fill:#B1C6E4;" d="M392.317,257.138l-45.345,0.08l-12.31,41.533c-1.984,6.591-7.783,11.277-14.612,11.912l-52.094,4.765
	l-12.706,42.565c-1.986,6.591-7.783,11.277-14.612,11.911l-52.174,4.685l-12.627,42.485c-1.906,6.67-7.783,11.435-14.612,12.071
	l-52.174,4.684l-10.959,40.818c-1.668,5.639-6.195,10.006-11.991,11.516c-5.559,1.43-11.753-0.159-16.042-4.447l-19.136-19.139
	L344.67,168.831l59.559,59.559c4.844,4.844,6.273,11.991,3.733,18.344C405.341,253.009,399.146,257.138,392.317,257.138z"/>
<path style="fill:#FF6243;" d="M495.553,129.125l-87.354-87.354c-21.929-21.929-57.483-21.929-79.413,0l-79.413,79.413
	l127.06,127.06c21.929,21.929,57.484,21.929,79.413,0l39.706-39.706C517.483,186.609,517.483,151.054,495.553,129.125z
	 M428.053,180.743L428.053,180.743c-6.579,6.579-17.245,6.579-23.824,0l-47.647-47.647c-6.579-6.579-6.579-17.245,0-23.823
	c6.579-6.579,17.245-6.579,23.824,0l47.647,47.648C434.632,163.499,434.632,174.164,428.053,180.743z"/>
<path style="fill:#FF3501;" d="M495.553,129.125l-55.588-55.589l-47.647,47.648l35.736,35.736c6.579,6.579,6.579,17.245,0,23.823
	s-17.245,6.579-23.824,0l-35.736-35.736l-47.647,47.648l55.588,55.588c21.929,21.929,57.484,21.929,79.413,0l39.706-39.706
	C517.483,186.609,517.483,151.054,495.553,129.125z"/>
<g>
</g>
<g>
</g>
<g>
</g>
<g>
</g>
<g>
</g>
<g>
</g>
<g>
</g>
<g>
</g>
<g>
</g>
<g>
</g>
<g>
</g>
<g>
</g>
<g>
</g>
<g>
</g>
<g>
</g>
</svg>
