<?xml version="1.0" encoding="iso-8859-1"?>
<!-- Generator: Adobe Illustrator 19.0.0, SVG Export Plug-In . SVG Version: 6.00 Build 0)  -->
<svg version="1.1" id="Layer_1" xmlns="http://www.w3.org/2000/svg" xmlns:xlink="http://www.w3.org/1999/xlink" x="0px" y="0px"
	 viewBox="0 0 512 512" style="enable-background:new 0 0 512 512;" xml:space="preserve">
<path style="fill:#B1C6E4;" d="M306.087,512H205.913c-9.217,0-16.696-7.479-16.696-16.696V384c0-9.217,7.479-16.696,16.696-16.696
	h100.174c9.217,0,16.696,7.479,16.696,16.696v111.304C322.783,504.521,315.304,512,306.087,512z"/>
<path style="fill:#9DB0CA;" d="M306.087,367.304H256V512h50.087c9.217,0,16.696-7.479,16.696-16.696V384
	C322.783,374.783,315.304,367.304,306.087,367.304z"/>
<path style="fill:#6E6057;" d="M461.913,400.696H50.087C22.468,400.696,0,378.228,0,350.609V50.087C0,22.468,22.468,0,50.087,0
	h411.826C489.532,0,512,22.468,512,50.087v300.522C512,378.228,489.532,400.696,461.913,400.696z"/>
<path style="fill:#615349;" d="M461.913,0H256v400.696h205.913c27.619,0,50.087-22.468,50.087-50.087V50.087
	C512,22.468,489.532,0,461.913,0z"/>
<path style="fill:#DBE9FD;" d="M428.522,333.913H83.478c-9.217,0-16.696-7.479-16.696-16.696V83.478
	c0-9.217,7.479-16.696,16.696-16.696h345.043c9.217,0,16.696,7.479,16.696,16.696v233.739
	C445.217,326.435,437.739,333.913,428.522,333.913z"/>
<path style="fill:#C5DCFD;" d="M428.522,66.783H256v267.13h172.522c9.217,0,16.696-7.479,16.696-16.696V83.478
	C445.217,74.261,437.739,66.783,428.522,66.783z"/>
<path style="fill:#9DCA40;" d="M301.195,171.848l-33.391-33.391c-3.285-3.286-7.751-4.892-11.804-4.892
	c-4.245,0-8.604,1.691-11.804,4.892l-33.391,33.391c-6.521,6.521-6.521,17.087,0,23.609c6.521,6.521,17.087,6.521,23.609,0
	l4.892-4.892v59.87c0,9.217,7.479,16.696,16.696,16.696c9.217,0,16.696-7.479,16.696-16.696v-59.869l4.892,4.892
	c6.522,6.522,17.086,6.522,23.609,0C307.718,188.935,307.718,178.37,301.195,171.848z"/>
<path style="fill:#8EB043;" d="M272.696,250.435v-59.869l4.892,4.892c6.521,6.521,17.087,6.521,23.609,0s6.521-17.087,0-23.609
	l-33.391-33.391c-3.286-3.286-7.752-4.892-11.805-4.892V267.13C265.217,267.13,272.696,259.652,272.696,250.435z"/>
<path style="fill:#6E6057;" d="M378.435,512h-244.87c-9.217,0-16.696-7.479-16.696-16.696c0-9.217,7.479-16.696,16.696-16.696
	h244.87c9.217,0,16.696,7.479,16.696,16.696C395.13,504.521,387.652,512,378.435,512z"/>
<path style="fill:#615349;" d="M378.435,478.609H256V512h122.435c9.217,0,16.696-7.479,16.696-16.696
	C395.13,486.087,387.652,478.609,378.435,478.609z"/>
<g>
</g>
<g>
</g>
<g>
</g>
<g>
</g>
<g>
</g>
<g>
</g>
<g>
</g>
<g>
</g>
<g>
</g>
<g>
</g>
<g>
</g>
<g>
</g>
<g>
</g>
<g>
</g>
<g>
</g>
</svg>
