<?xml version="1.0" encoding="iso-8859-1"?>
<!-- Generator: Adobe Illustrator 19.0.0, SVG Export Plug-In . SVG Version: 6.00 Build 0)  -->
<svg version="1.1" id="Layer_1" xmlns="http://www.w3.org/2000/svg" xmlns:xlink="http://www.w3.org/1999/xlink" x="0px" y="0px"
	 viewBox="0 0 512 512" style="enable-background:new 0 0 512 512;" xml:space="preserve">
<path style="fill:#C9D0D7;" d="M256.28,461.915c-85.925,0-155.828-69.903-155.828-155.828S170.355,150.26,256.28,150.26
	s155.828,69.903,155.828,155.828S342.204,461.915,256.28,461.915z"/>
<path style="fill:#B8C2C9;" d="M412.108,306.087c0-85.925-69.903-155.828-155.828-155.828v311.656
	C342.204,461.915,412.108,392.012,412.108,306.087z"/>
<path style="fill:#E6E6E6;" d="M256.28,183.651c-67.511,0-122.436,54.925-122.436,122.436s54.925,122.436,122.436,122.436
	s122.436-54.925,122.436-122.436S323.791,183.651,256.28,183.651z"/>
<path style="fill:#DADFE4;" d="M378.716,306.087c0-67.511-54.925-122.436-122.436-122.436v244.872
	C323.791,428.524,378.716,373.599,378.716,306.087z"/>
<circle cx="256.281" cy="239.696" r="16.696"/>
<circle style="fill:#FF6243;" cx="256.281" cy="239.696" r="16.696"/>
<path style="fill:#B1C6E4;" d="M50.088,322.783H16.696C7.473,322.783,0,315.305,0,306.087s7.473-16.696,16.696-16.696h33.392
	c9.223,0,16.696,7.479,16.696,16.696S59.31,322.783,50.088,322.783z"/>
<path style="fill:#9DB0CA;" d="M495.304,322.783h-33.392c-9.223,0-16.696-7.479-16.696-16.696s7.473-16.696,16.696-16.696h33.392
	c9.217,0,16.696,7.479,16.696,16.696S504.521,322.783,495.304,322.783z"/>
<g>
	<path style="fill:#B1C6E4;" d="M256.28,116.868c-9.223,0-16.918-7.479-16.918-16.696V66.781c0-9.217,7.696-16.696,16.918-16.696
		s16.362,7.479,16.362,16.696v33.392C272.642,109.389,265.503,116.868,256.28,116.868z"/>
	<path style="fill:#B1C6E4;" d="M153.062,144.455c-5.772,0-11.385-2.99-14.479-8.348l-16.696-28.924
		c-4.609-7.99-1.87-18.196,6.114-22.804c8.001-4.609,18.202-1.88,22.81,6.108l16.696,28.924c4.609,7.99,1.87,18.196-6.114,22.804
		C158.763,143.737,155.893,144.455,153.062,144.455z"/>
</g>
<path style="fill:#9DB0CA;" d="M463.239,442.437c-2.837,0-5.707-0.718-8.337-2.239l-28.918-16.696
	c-7.984-4.609-10.723-14.816-6.108-22.804c4.609-7.99,14.82-10.718,22.804-6.108l28.918,16.696
	c7.99,4.609,10.718,14.816,6.108,22.804C474.619,439.447,468.999,442.437,463.239,442.437z"/>
<g>
	<path style="fill:#B1C6E4;" d="M77.659,219.826c-2.832,0-5.701-0.718-8.331-2.239L40.409,200.89
		c-7.984-4.609-10.723-14.816-6.108-22.804c4.615-7.978,14.826-10.718,22.804-6.108l28.918,16.696
		c7.984,4.609,10.723,14.816,6.108,22.804C89.039,216.836,83.43,219.826,77.659,219.826z"/>
	<path style="fill:#B1C6E4;" d="M48.772,442.437c-5.772,0-11.381-2.99-14.473-8.348c-4.615-7.99-1.875-18.196,6.108-22.804
		l28.918-16.696c8.005-4.609,18.202-1.88,22.804,6.108c4.615,7.99,1.875,18.196-6.108,22.804l-28.918,16.696
		C54.473,441.719,51.603,442.437,48.772,442.437z"/>
</g>
<g>
	<path style="fill:#9DB0CA;" d="M434.347,219.826c-5.772,0-11.381-2.99-14.473-8.348c-4.615-7.99-1.876-18.196,6.108-22.804
		l28.918-16.696c7.967-4.609,18.206-1.891,22.804,6.108c4.609,7.99,1.88,18.196-6.108,22.804l-28.918,16.696
		C440.049,219.108,437.178,219.826,434.347,219.826z"/>
	<path style="fill:#9DB0CA;" d="M358.944,144.455c-2.832,0-5.701-0.718-8.331-2.239c-7.984-4.609-10.723-14.816-6.114-22.804
		l16.696-28.924c4.615-7.99,14.826-10.718,22.81-6.108c7.984,4.609,10.723,14.816,6.114,22.804l-16.696,28.924
		C370.33,141.465,364.716,144.455,358.944,144.455z"/>
</g>
<path style="fill:#FF3501;" d="M272.976,239.695c0-9.221-7.475-16.696-16.696-16.696v33.392
	C265.5,256.391,272.976,248.915,272.976,239.695z"/>
<path style="fill:#9DB0CA;" d="M272.642,100.172V66.781c0-9.217-7.139-16.696-16.362-16.696v66.783
	C265.503,116.868,272.642,109.389,272.642,100.172z"/>
<g>
</g>
<g>
</g>
<g>
</g>
<g>
</g>
<g>
</g>
<g>
</g>
<g>
</g>
<g>
</g>
<g>
</g>
<g>
</g>
<g>
</g>
<g>
</g>
<g>
</g>
<g>
</g>
<g>
</g>
</svg>
