<?xml version="1.0" encoding="iso-8859-1"?>
<!-- Generator: Adobe Illustrator 19.0.0, SVG Export Plug-In . SVG Version: 6.00 Build 0)  -->
<svg version="1.1" id="Layer_1" xmlns="http://www.w3.org/2000/svg" xmlns:xlink="http://www.w3.org/1999/xlink" x="0px" y="0px"
	 viewBox="0 0 512.001 512.001" style="enable-background:new 0 0 512.001 512.001;" xml:space="preserve">
<path style="fill:#B1C6E4;" d="M453.289,256.709L232.183,477.815c-22.764,22.764-52.696,34.107-82.709,34.186
	c-29.932,0-59.785-11.421-82.628-34.264c-8.113-8.113-14.887-17.25-20.244-27.018c-9.138-16.857-14.021-35.919-14.021-55.61
	c-0.078-31.271,12.131-60.653,34.264-82.787L287.873,91.293c15.754-15.754,36.706-24.418,59.077-24.418
	c22.292-0.079,43.323,8.664,59.077,24.418c32.61,32.61,32.532,85.622,0,118.154L184.921,430.552
	c-9.767,9.767-22.529,14.652-35.446,14.651c-12.76,0-25.6-4.963-35.446-14.651c-9.059-9.059-13.863-20.796-14.494-32.767
	c-0.788-13.706,4.017-27.649,14.494-38.124l197.475-197.475c6.459-6.459,17.093-6.538,23.631,0c6.538,6.538,6.459,17.172,0,23.631
	L137.66,383.291c-6.459,6.459-6.538,17.093,0,23.631c6.617,6.459,17.172,6.459,23.631,0l221.106-221.106
	c19.535-19.535,19.535-51.357,0-70.893c-9.452-9.452-22.055-14.651-35.446-14.651c-13.391,0-25.994,5.199-35.446,14.651
	L90.477,335.951c-15.833,15.833-24.497,36.785-24.497,59.156c0,10.555,1.969,20.874,5.828,30.406
	c4.017,10.634,10.398,20.322,18.669,28.593c32.61,32.61,85.544,32.61,118.075,0.079l221.106-221.107
	c22.055-22.055,34.264-51.436,34.185-82.708c0-31.192-12.052-60.574-34.185-82.708c-22.055-22.055-51.515-34.185-82.708-34.185
	c-31.271-0.079-60.652,12.13-82.708,34.185L43.216,288.689c-6.538,6.538-17.093,6.538-23.631,0s-6.538-17.093,0-23.631
	L240.611,44.032C268.967,15.675,306.699,0,346.871,0s77.982,15.597,106.417,44.032c28.435,28.435,44.032,66.245,44.032,106.417
	S481.645,228.352,453.289,256.709z"/>
<g>
	<path style="fill:#9DB0CA;" d="M453.289,256.709L232.183,477.815c-22.764,22.764-52.696,34.107-82.709,34.186
		c-29.932,0-59.785-11.421-82.628-34.264c-8.113-8.113-14.887-17.25-20.244-27.018l25.206-25.206
		c4.017,10.634,10.398,20.322,18.669,28.593c32.61,32.61,85.544,32.61,118.075,0.079l221.106-221.107
		c22.055-22.055,34.264-51.436,34.185-82.708c0-31.192-12.052-60.574-34.185-82.708l23.631-23.631
		c28.435,28.435,44.032,66.245,44.032,106.417S481.645,228.352,453.289,256.709z"/>
	<path style="fill:#9DB0CA;" d="M406.027,209.447L184.921,430.552c-9.767,9.767-22.529,14.652-35.446,14.651
		c-12.76,0-25.6-4.963-35.446-14.651c-9.059-9.059-13.863-20.796-14.494-32.767l235.599-235.599c6.538,6.538,6.459,17.172,0,23.631
		L137.66,383.291c-6.459,6.459-6.538,17.093,0,23.631c6.617,6.459,17.172,6.459,23.631,0l221.106-221.106
		c19.535-19.535,19.535-51.357,0-70.893l23.631-23.631C438.638,123.904,438.559,176.916,406.027,209.447z"/>
</g>
<g>
</g>
<g>
</g>
<g>
</g>
<g>
</g>
<g>
</g>
<g>
</g>
<g>
</g>
<g>
</g>
<g>
</g>
<g>
</g>
<g>
</g>
<g>
</g>
<g>
</g>
<g>
</g>
<g>
</g>
</svg>
