<?xml version="1.0" encoding="iso-8859-1"?>
<!-- Generator: Adobe Illustrator 19.0.0, SVG Export Plug-In . SVG Version: 6.00 Build 0)  -->
<svg version="1.1" id="Layer_1" xmlns="http://www.w3.org/2000/svg" xmlns:xlink="http://www.w3.org/1999/xlink" x="0px" y="0px"
	 viewBox="0 0 512.001 512.001" style="enable-background:new 0 0 512.001 512.001;" xml:space="preserve">
<path style="fill:#DBE9FD;" d="M356.107,372.806H155.674c-9.227,0-16.703-7.476-16.703-16.703V222.482
	c0-9.227,7.476-16.703,16.703-16.703h200.432c9.227,0,16.591,7.476,16.591,16.703v133.622
	C372.698,365.33,365.334,372.806,356.107,372.806z"/>
<path style="fill:#C5DCFD;" d="M356.107,205.779H255.889v167.027h100.217c9.227,0,16.591-7.476,16.591-16.703V222.482
	C372.698,213.255,365.334,205.779,356.107,205.779z"/>
<path style="fill:#6BBAE2;" d="M437.058,437.058c-49.885,49.997-115.471,74.939-181.057,74.939h-0.111
	c-65.586,0-131.06-24.943-180.946-74.939c-6.57-6.458-6.57-17.037,0-23.606c6.458-6.458,17.037-6.458,23.606,0
	c41.979,41.979,97.766,65.141,157.339,65.141h0.111c59.573,0,115.471-23.161,157.451-65.141
	c51.667-51.667,74.717-125.604,61.466-197.871c-1.67-9.019,4.343-17.705,13.474-19.375c9.019-1.67,17.705,4.343,19.375,13.362
	C523.021,292.635,496.519,377.708,437.058,437.058z"/>
<path style="fill:#60AED5;" d="M437.058,437.058c-49.885,49.997-115.471,74.939-181.057,74.939h-0.111v-33.405h0.111
	c59.573,0,115.471-23.161,157.451-65.141c51.667-51.667,74.717-125.604,61.466-197.871c-1.67-9.019,4.343-17.705,13.474-19.375
	c9.019-1.67,17.705,4.343,19.375,13.362C523.021,292.635,496.519,377.708,437.058,437.058z"/>
<g>
	<path style="fill:#6BBAE2;" d="M51.287,477.423c-1.571,0-3.153-0.223-4.709-0.674c-5.862-1.724-10.314-6.508-11.614-12.478
		l-19.688-90.549c-1.207-5.556,0.494-11.342,4.513-15.36s9.781-5.715,15.36-4.513l90.549,19.682
		c5.97,1.299,10.754,5.752,12.472,11.614c1.724,5.862,0.109,12.201-4.214,16.518l-70.862,70.867
		C59.921,475.71,55.653,477.423,51.287,477.423z"/>
	<path style="fill:#6BBAE2;" d="M437.058,98.55c-6.458,6.458-17.037,6.458-23.607,0c-43.427-43.427-100.55-65.141-157.562-65.141
		S141.977,55.123,98.55,98.55c-51.667,51.667-74.717,125.604-61.466,197.871c1.67,9.019-4.343,17.816-13.474,19.375
		c-1.002,0.223-2.004,0.334-3.006,0.334c-7.906,0-14.921-5.678-16.369-13.696C-11.02,219.366,15.481,134.405,74.943,74.943
		c49.885-49.997,115.36-74.939,180.946-74.939s131.283,24.943,181.169,74.939C443.628,81.402,443.628,91.98,437.058,98.55z"/>
</g>
<g>
	<path style="fill:#60AED5;" d="M437.058,98.55c-6.458,6.458-17.037,6.458-23.607,0c-43.427-43.427-100.55-65.141-157.562-65.141
		V0.004c65.586,0,131.283,24.943,181.169,74.939C443.628,81.402,443.628,91.98,437.058,98.55z"/>
	<path style="fill:#60AED5;" d="M480.408,158.538c-1.185,0-2.371-0.125-3.545-0.381l-90.56-19.688
		c-5.97-1.299-10.754-5.752-12.478-11.614c-1.718-5.867-0.104-12.201,4.219-16.518l70.862-70.862
		c4.323-4.328,10.667-5.916,16.518-4.219c5.862,1.724,10.32,6.508,11.614,12.478l19.694,90.549
		c1.207,5.556-0.489,11.342-4.513,15.36C489.053,156.81,484.791,158.538,480.408,158.538z"/>
</g>
<path style="fill:#FF6243;" d="M389.512,239.184H122.269c-7.188,0-13.572-4.6-15.844-11.424c-2.278-6.818,0.07-14.326,5.823-18.644
	l133.622-100.216c5.937-4.447,14.104-4.447,20.041,0l133.622,100.216c5.752,4.317,8.101,11.826,5.823,18.644
	C403.083,234.584,396.701,239.184,389.512,239.184z"/>
<path style="fill:#FF3501;" d="M265.911,108.901c-2.97-2.224-6.495-3.336-10.022-3.336v133.619h133.623
	c7.188,0,13.571-4.6,15.844-11.424c2.278-6.818-0.07-14.326-5.823-18.644L265.911,108.901z"/>
<g>
</g>
<g>
</g>
<g>
</g>
<g>
</g>
<g>
</g>
<g>
</g>
<g>
</g>
<g>
</g>
<g>
</g>
<g>
</g>
<g>
</g>
<g>
</g>
<g>
</g>
<g>
</g>
<g>
</g>
</svg>
