<?xml version="1.0" encoding="iso-8859-1"?>
<!-- Generator: Adobe Illustrator 19.0.0, SVG Export Plug-In . SVG Version: 6.00 Build 0)  -->
<svg version="1.1" id="Layer_1" xmlns="http://www.w3.org/2000/svg" xmlns:xlink="http://www.w3.org/1999/xlink" x="0px" y="0px"
	 viewBox="0 0 512 512" style="enable-background:new 0 0 512 512;" xml:space="preserve">
<path style="fill:#BFC5C9;" d="M189.217,0c-9.22,0-16.696,7.475-16.696,16.696c0,9.206-7.49,16.696-16.696,16.696
	s-16.696-7.49-16.696-16.696C139.13,7.475,131.655,0,122.435,0h-16.696v166.957h16.696c9.22,0,16.696-7.475,16.696-16.696
	c0-9.206,7.49-16.696,16.696-16.696s16.696,7.49,16.696,16.696c0,9.22,7.475,16.696,16.696,16.696h16.696V0H189.217z"/>
<polygon style="fill:#95673F;" points="306.087,278.261 205.913,278.261 197.334,345.043 314.666,345.043 "/>
<polygon style="fill:#875334;" points="256,345.043 314.666,345.043 306.087,278.261 256,278.261 "/>
<path style="fill:#BFC5C9;" d="M306.087,278.261v-128c0-9.217-7.479-16.696-16.696-16.696h-66.783
	c-9.217,0-16.696,7.479-16.696,16.696v128H306.087z"/>
<g>
	<path style="fill:#A9AFB3;" d="M289.391,133.565H256v144.696h50.087v-128C306.087,141.044,298.608,133.565,289.391,133.565z"/>
	<path style="fill:#A9AFB3;" d="M456.348,133.565c-2.554,0-5.109-0.587-7.467-1.761c-37.13-18.566-81.5-18.566-118.63,0
		c-5.185,2.566-11.326,2.304-16.25-0.728c-4.913-3.044-7.913-8.425-7.913-14.207V16.696C306.087,7.479,313.565,0,322.783,0h33.391
		c31.206,0,60.554,12.152,82.641,34.228c22.076,22.087,34.228,51.435,34.228,82.641c0,5.782-3,11.163-7.913,14.207
		C462.446,132.728,459.402,133.565,456.348,133.565z"/>
</g>
<path style="fill:#6E6057;" d="M332.772,453.674l-18.106-108.631H197.334l-18.106,108.631c-2.424,14.554,1.652,29.359,11.185,40.608
	C199.956,505.543,213.88,512,228.63,512h54.739c14.75,0,28.674-6.457,38.217-17.717
	C331.119,483.033,335.195,468.228,332.772,453.674z"/>
<path style="fill:#615349;" d="M314.666,345.043H256V512h27.37c14.75,0,28.674-6.457,38.217-17.717
	c9.532-11.25,13.609-26.054,11.185-40.608L314.666,345.043z"/>
<path style="fill:#DAE0E6;" d="M322.783,166.957H189.217c-9.22,0-16.696-7.475-16.696-16.696V16.696
	c0-9.22,7.475-16.696,16.696-16.696h150.261v150.261C339.478,159.481,332.003,166.957,322.783,166.957z"/>
<path style="fill:#C3CFD9;" d="M339.478,0H256v166.957h66.783c9.22,0,16.696-7.475,16.696-16.696V0z"/>
<path style="fill:#DAE0E6;" d="M122.435,166.957H55.652c-9.217,0-16.696-7.479-16.696-16.696V16.696C38.957,7.479,46.435,0,55.652,0
	h66.783c9.217,0,16.696,7.479,16.696,16.696v133.565C139.13,159.478,131.652,166.957,122.435,166.957z"/>
<g>
</g>
<g>
</g>
<g>
</g>
<g>
</g>
<g>
</g>
<g>
</g>
<g>
</g>
<g>
</g>
<g>
</g>
<g>
</g>
<g>
</g>
<g>
</g>
<g>
</g>
<g>
</g>
<g>
</g>
</svg>
