<?xml version="1.0" encoding="iso-8859-1"?>
<!-- Generator: Adobe Illustrator 19.0.0, SVG Export Plug-In . SVG Version: 6.00 Build 0)  -->
<svg version="1.1" id="Layer_1" xmlns="http://www.w3.org/2000/svg" xmlns:xlink="http://www.w3.org/1999/xlink" x="0px" y="0px"
	 viewBox="0 0 512 512" style="enable-background:new 0 0 512 512;" xml:space="preserve">
<path style="fill:#DBE9FD;" d="M495.304,512H16.696C7.479,512,0,504.521,0,495.304V128c0-9.217,7.479-16.696,16.696-16.696h478.609
	c9.217,0,16.696,7.479,16.696,16.696v367.304C512,504.521,504.521,512,495.304,512z"/>
<path style="fill:#C5DCFD;" d="M495.304,111.304H256V512h239.304c9.217,0,16.696-7.479,16.696-16.696V128
	C512,118.783,504.521,111.304,495.304,111.304z"/>
<path style="fill:#6E6057;" d="M183.652,512H116.87c-9.217,0-16.696-7.479-16.696-16.696v-33.391
	c0-9.217,7.479-16.696,16.696-16.696h66.783c9.217,0,16.696,7.479,16.696,16.696v33.391C200.348,504.521,192.869,512,183.652,512z"
	/>
<path style="fill:#615349;" d="M395.13,512h-66.783c-9.217,0-16.696-7.479-16.696-16.696v-33.391
	c0-9.217,7.479-16.696,16.696-16.696h66.783c9.217,0,16.696,7.479,16.696,16.696v33.391C411.826,504.521,404.348,512,395.13,512z"/>
<path style="fill:#FF3501;" d="M410.968,323.065l-21.935-65.815c-9.13-27.381-34.664-45.772-63.511-45.772H186.478
	c-28.848,0-54.38,18.391-63.511,45.772l-13.395,40.192l-14.289-14.289c-6.521-6.521-17.087-6.521-23.609,0
	c-6.521,6.521-6.521,17.087,0,23.609l33.391,33.391c0.186,0.186,0.385,0.346,0.577,0.521c0.176,0.16,0.346,0.325,0.528,0.476
	c0.373,0.313,0.759,0.6,1.152,0.875c0.101,0.07,0.195,0.15,0.297,0.218c0.519,0.346,1.053,0.659,1.599,0.941
	c0.091,0.047,0.186,0.085,0.278,0.129c0.456,0.225,0.918,0.431,1.389,0.611c0.17,0.066,0.344,0.121,0.518,0.181
	c0.405,0.14,0.814,0.267,1.227,0.375c0.198,0.052,0.396,0.1,0.597,0.146c0.417,0.092,0.837,0.167,1.26,0.228
	c0.186,0.027,0.371,0.06,0.559,0.08c0.608,0.067,1.217,0.109,1.827,0.109h278.261c5.369,0,10.403-2.576,13.544-6.934
	C411.815,333.761,412.663,328.163,410.968,323.065z"/>
<path style="fill:#CD2A00;" d="M440.326,283.152c-6.521-6.521-17.087-6.521-23.609,0l-14.289,14.289l-13.395-40.192
	c-9.13-27.381-34.664-45.772-63.511-45.772H256v133.565h139.13c0.61,0,1.22-0.042,1.827-0.109c0.188-0.021,0.373-0.053,0.559-0.08
	c0.423-0.061,0.843-0.135,1.26-0.228c0.2-0.046,0.398-0.094,0.597-0.146c0.413-0.108,0.821-0.235,1.227-0.375
	c0.173-0.06,0.346-0.116,0.518-0.181c0.471-0.18,0.933-0.386,1.389-0.611c0.091-0.046,0.187-0.082,0.278-0.129
	c0.546-0.282,1.081-0.594,1.599-0.941c0.101-0.068,0.195-0.147,0.296-0.217c0.393-0.275,0.779-0.562,1.153-0.875
	c0.181-0.152,0.353-0.317,0.529-0.477c0.191-0.175,0.391-0.335,0.575-0.521l33.391-33.391
	C446.848,300.239,446.848,289.674,440.326,283.152z"/>
<path style="fill:#6E6057;" d="M140.033,311.652h231.935l-14.609-43.837c-4.577-13.728-17.37-22.945-31.837-22.945H186.478
	c-14.467,0-27.261,9.217-31.837,22.945L140.033,311.652z"/>
<path style="fill:#615349;" d="M325.522,244.87H256v66.783h115.967l-14.609-43.837C352.782,254.087,339.989,244.87,325.522,244.87z"
	/>
<path style="fill:#FF6243;" d="M389.392,478.609H122.608c-30.782,0-55.826-25.043-55.826-55.826v-53.739
	c0-31.642,25.75-57.392,57.392-57.392h263.652c31.641,0,57.391,25.75,57.391,57.391v53.739
	C445.217,453.565,420.174,478.609,389.392,478.609z"/>
<path style="fill:#FF3501;" d="M387.827,311.652H256v166.957h133.392c30.782,0,55.826-25.043,55.826-55.826v-53.739
	C445.217,337.402,419.467,311.652,387.827,311.652z"/>
<path style="fill:#6E6057;" d="M294.957,411.826h-77.913c-9.217,0-16.696-7.479-16.696-16.696c0-9.217,7.479-16.696,16.696-16.696
	h77.913c9.217,0,16.696,7.479,16.696,16.696C311.652,404.348,304.174,411.826,294.957,411.826z"/>
<path style="fill:#615349;" d="M294.957,378.435H256v33.391h38.957c9.217,0,16.696-7.479,16.696-16.696
	C311.652,385.913,304.174,378.435,294.957,378.435z"/>
<circle style="fill:#DBE9FD;" cx="150.261" cy="395.13" r="16.696"/>
<circle style="fill:#C5DCFD;" cx="361.739" cy="395.13" r="16.696"/>
<path style="fill:#6E6057;" d="M512,144.696H0V77.909c0-7.625,5.167-14.28,12.554-16.17L251.858,0.521
	c2.717-0.695,5.565-0.695,8.282,0l239.301,61.216C506.831,63.628,512,70.285,512,77.913V144.696z"/>
<path style="fill:#615349;" d="M512,144.696V77.913c0-7.627-5.169-14.285-12.557-16.175L260.142,0.522
	C258.783,0.174,257.391,0,256,0v144.696H512z"/>
<rect y="111.304" style="fill:#A1A9AF;" width="512" height="66.783"/>
<rect x="256" y="111.304" style="fill:#8A9096;" width="256" height="66.783"/>
<g>
</g>
<g>
</g>
<g>
</g>
<g>
</g>
<g>
</g>
<g>
</g>
<g>
</g>
<g>
</g>
<g>
</g>
<g>
</g>
<g>
</g>
<g>
</g>
<g>
</g>
<g>
</g>
<g>
</g>
</svg>
