<?xml version="1.0" encoding="iso-8859-1"?>
<!-- Generator: Adobe Illustrator 19.0.0, SVG Export Plug-In . SVG Version: 6.00 Build 0)  -->
<svg version="1.1" id="Layer_1" xmlns="http://www.w3.org/2000/svg" xmlns:xlink="http://www.w3.org/1999/xlink" x="0px" y="0px"
	 viewBox="0 0 512 512" style="enable-background:new 0 0 512 512;" xml:space="preserve">
<path style="fill:#C9D0D7;" d="M389.565,311.652h-66.783c-9.217,0-16.696,7.479-16.696,16.696v166.957
	c0,9.217,7.479,16.696,16.696,16.696h66.783c9.217,0,16.696-7.479,16.696-16.696V328.348
	C406.261,319.131,398.782,311.652,389.565,311.652z"/>
<path style="fill:#B8C2C9;" d="M389.565,311.652h-33.391V512h33.391c9.217,0,16.696-7.479,16.696-16.696V328.348
	C406.261,319.131,398.782,311.652,389.565,311.652z"/>
<path style="fill:#FF6243;" d="M450.783,345.044h-267.13V66.783h239.304c46.103,0,83.478,37.375,83.478,83.478v139.13
	C506.435,320.127,481.518,345.044,450.783,345.044z"/>
<path style="fill:#6E6057;" d="M230.957,345.044H105.739V150.261c0-46.103,37.375-83.478,83.478-83.478l0,0
	c46.103,0,83.478,37.375,83.478,83.478v153.043C272.696,326.357,254.009,345.044,230.957,345.044z"/>
<path style="fill:#C5DCFD;" d="M256,166.957c-365.661,0-46.179,0-200.348,0c-9.217,0-16.696,7.479-16.696,16.696
	c0,54.498,0,89.607,0,144.696c0,9.217,7.479,16.696,16.696,16.696H256c9.217,0,16.696-7.479,16.696-16.696
	c0-54.999,0-90.136,0-144.696C272.696,174.435,265.217,166.957,256,166.957z"/>
<path style="fill:#FF3501;" d="M256,311.652H22.261c-9.217,0-16.696,7.479-16.696,16.696c0,9.217,7.479,16.696,16.696,16.696H256
	c9.217,0,16.696-7.479,16.696-16.696v-16.696H256z"/>
<path style="fill:#ECEFF0;" d="M256,166.957h-10.791H66.443H55.652c-9.217,0-16.696,7.479-16.696,16.696v3.852
	c44.524,36.429,29.462,24.106,106.62,87.235c3.011,2.347,6.63,3.522,10.25,3.522c3.62,0,7.239-1.174,10.25-3.522
	c78.92-64.571,62.509-51.142,106.62-87.235v-3.852C272.696,174.435,265.217,166.957,256,166.957z"/>
<path style="fill:#FF3501;" d="M422.957,66.783h-66.783v278.261h94.609c30.736,0,55.652-24.917,55.652-55.652v-139.13
	C506.435,104.156,469.061,66.783,422.957,66.783z"/>
<path style="fill:#8FF0F0;" d="M322.783,133.565c-3.054,0-6.098-0.837-8.783-2.489c-4.913-3.044-7.913-8.425-7.913-14.207V16.696
	c0-5.782,3-11.163,7.913-14.207c4.935-3.033,11.076-3.316,16.25-0.728l100.174,50.087c5.652,2.826,9.228,8.608,9.228,14.935
	s-3.576,12.109-9.228,14.935L330.25,131.804C327.891,132.979,325.337,133.565,322.783,133.565z"/>
<path style="fill:#87D7D7;" d="M430.424,51.848l-74.25-37.124v104.12l74.25-37.124c5.652-2.827,9.228-8.609,9.228-14.936
	S436.076,54.674,430.424,51.848z"/>
<path style="fill:#ECEFF0;" d="M322.783,233.739c-9.217,0-16.696-7.479-16.696-16.696V16.696C306.087,7.479,313.565,0,322.783,0
	c9.217,0,16.696,7.479,16.696,16.696v200.348C339.478,226.261,332,233.739,322.783,233.739z"/>
<g>
</g>
<g>
</g>
<g>
</g>
<g>
</g>
<g>
</g>
<g>
</g>
<g>
</g>
<g>
</g>
<g>
</g>
<g>
</g>
<g>
</g>
<g>
</g>
<g>
</g>
<g>
</g>
<g>
</g>
</svg>
