<?xml version="1.0" encoding="iso-8859-1"?>
<!-- Generator: Adobe Illustrator 19.0.0, SVG Export Plug-In . SVG Version: 6.00 Build 0)  -->
<svg version="1.1" id="Layer_1" xmlns="http://www.w3.org/2000/svg" xmlns:xlink="http://www.w3.org/1999/xlink" x="0px" y="0px"
	 viewBox="0 0 512 512" style="enable-background:new 0 0 512 512;" xml:space="preserve">
<path style="fill:#875334;" d="M322.78,267.13c-9.217,0-16.696-7.473-16.696-16.696v-66.783c0-9.223,7.479-16.696,16.696-16.696
	c9.217,0,16.696,7.473,16.696,16.696v66.783C339.476,259.657,331.997,267.13,322.78,267.13z"/>
<path style="fill:#95673F;" d="M255.998,445.217c-9.217,0-16.696-7.473-16.696-16.696v-244.87c0-9.223,7.479-16.696,16.696-16.696
	s16.696,7.473,16.696,16.696v244.87C272.693,437.744,265.215,445.217,255.998,445.217z"/>
<path style="fill:#875334;" d="M272.693,428.522v-244.87c0-9.223-7.479-16.696-16.696-16.696v278.261
	C265.215,445.217,272.693,437.744,272.693,428.522z"/>
<path style="fill:#E79D2E;" d="M389.565,200.348h-267.13c-5,0-9.739-2.245-12.914-6.108c-3.174-3.87-4.434-8.957-3.456-13.859
	l33.391-166.957C141.01,5.62,147.87,0,155.826,0h200.348c7.956,0,14.816,5.62,16.37,13.424l33.391,166.957
	c0.978,4.902-0.283,9.99-3.456,13.859C399.304,198.103,394.565,200.348,389.565,200.348z"/>
<path style="fill:#D8842A;" d="M372.543,13.424C370.99,5.62,364.13,0,356.174,0H255.998v200.348h133.567
	c5,0,9.739-2.245,12.914-6.108c3.174-3.87,4.434-8.957,3.456-13.859L372.543,13.424z"/>
<path style="fill:#E79D2E;" d="M322.78,512H189.215c-9.217,0-16.696-7.473-16.696-16.696c0-46.032,37.446-83.478,83.478-83.478
	s83.478,37.446,83.478,83.478C339.476,504.527,331.997,512,322.78,512z"/>
<path style="fill:#D8842A;" d="M322.78,512c9.217,0,16.696-7.473,16.696-16.696c0-46.032-37.446-83.478-83.478-83.478V512H322.78z"
	/>
<path style="fill:#95673F;" d="M356.172,512H155.824c-9.217,0-16.696-7.473-16.696-16.696s7.479-16.696,16.696-16.696h200.348
	c9.217,0,16.696,7.473,16.696,16.696S365.389,512,356.172,512z"/>
<path style="fill:#875334;" d="M356.172,478.609H255.998V512h100.174c9.217,0,16.696-7.473,16.696-16.696
	S365.389,478.609,356.172,478.609z"/>
<g>
</g>
<g>
</g>
<g>
</g>
<g>
</g>
<g>
</g>
<g>
</g>
<g>
</g>
<g>
</g>
<g>
</g>
<g>
</g>
<g>
</g>
<g>
</g>
<g>
</g>
<g>
</g>
<g>
</g>
</svg>
