<?xml version="1.0" encoding="iso-8859-1"?>
<!-- Generator: Adobe Illustrator 19.0.0, SVG Export Plug-In . SVG Version: 6.00 Build 0)  -->
<svg version="1.1" id="Layer_1" xmlns="http://www.w3.org/2000/svg" xmlns:xlink="http://www.w3.org/1999/xlink" x="0px" y="0px"
	 viewBox="0 0 512.001 512.001" style="enable-background:new 0 0 512.001 512.001;" xml:space="preserve">
<path style="fill:#DBE9FD;" d="M461.858,33.517H50.143c-27.612,0-50.074,22.462-50.074,50.074v278.19
	c0,27.612,22.462,49.852,50.074,49.852h50.074v83.68c0,6.753,4.064,12.839,10.302,15.42c6.088,2.531,13.33,1.251,18.191-3.619
	l95.258-95.48h237.89c27.612,0,50.074-22.24,50.074-49.852V83.591C511.933,55.978,489.472,33.517,461.858,33.517z"/>
<path style="fill:#C5DCFD;" d="M461.858,33.517H261.567v378.116h200.291c27.612,0,50.074-22.24,50.074-49.852V83.591
	C511.933,55.978,489.472,33.517,461.858,33.517z"/>
<path style="fill:#6BBAE2;" d="M311.364,300.182H211.216c-9.22,0-16.691-7.471-16.691-16.691v-116.84H144.45
	c-6.547,0-12.492-3.83-15.197-9.797c-2.712-5.96-1.679-12.959,2.635-17.887L248.728,5.436c6.335-7.249,18.789-7.249,25.124,0
	l116.84,133.531c4.314,4.928,5.347,11.927,2.635,17.887c-2.706,5.966-8.65,9.797-15.197,9.797h-50.074v116.84
	C328.056,292.711,320.585,300.182,311.364,300.182z"/>
<path style="fill:#60AED5;" d="M273.852,5.436c-3.106-3.552-7.681-5.338-12.285-5.409v300.155h49.797
	c9.22,0,16.691-7.471,16.691-16.691v-116.84h50.074c6.547,0,12.492-3.83,15.197-9.797c2.712-5.96,1.679-12.959-2.635-17.887
	L273.852,5.436z"/>
<g>
</g>
<g>
</g>
<g>
</g>
<g>
</g>
<g>
</g>
<g>
</g>
<g>
</g>
<g>
</g>
<g>
</g>
<g>
</g>
<g>
</g>
<g>
</g>
<g>
</g>
<g>
</g>
<g>
</g>
</svg>
