<?xml version="1.0" encoding="iso-8859-1"?>
<!-- Generator: Adobe Illustrator 19.0.0, SVG Export Plug-In . SVG Version: 6.00 Build 0)  -->
<svg version="1.1" id="Capa_1" xmlns="http://www.w3.org/2000/svg" xmlns:xlink="http://www.w3.org/1999/xlink" x="0px" y="0px"
	 viewBox="0 0 468.293 468.293" style="enable-background:new 0 0 468.293 468.293;" xml:space="preserve">
<path style="fill:#E1E6E9;" d="M348.972,12.488v443.317c0,6.897-5.591,12.488-12.488,12.488H24.289
	c-6.897,0-12.488-5.591-12.488-12.488V85.479L97.28,0h239.204C343.381,0,348.972,5.591,348.972,12.488z"/>
<g>
	<polygon style="fill:#D5D6DB;" points="97.28,0 97.28,85.479 11.801,85.479 	"/>
	<rect x="128.312" y="72.991" style="fill:#D5D6DB;" width="189.665" height="12.488"/>
	<rect x="42.814" y="134.931" style="fill:#D5D6DB;" width="275.169" height="12.488"/>
	<rect x="42.814" y="196.933" style="fill:#D5D6DB;" width="275.169" height="12.488"/>
	<rect x="42.814" y="258.885" style="fill:#D5D6DB;" width="275.169" height="12.488"/>
	<rect x="42.814" y="320.849" style="fill:#D5D6DB;" width="181.698" height="12.488"/>
	<rect x="42.814" y="382.814" style="fill:#D5D6DB;" width="147.731" height="12.488"/>
</g>
<path style="fill:#3A556A;" d="M456.492,123.255l-10.739,21.042l-10.864,21.229c-9.866,8.117-36.84,8.117-36.84,8.117
	c5.37,11.676,25.601,22.041,25.601,22.041l-12.113,12.113c-6.306,11.739-44.082,8.991-44.082,8.991
	c8.991,5.432,24.289,27.91,24.289,27.91c-7.243,13.487-70.182,15.735-70.182,15.735c-0.936,7.68,43.146,20.23,43.146,20.23
	c-3.559,6.306-26.974,30.595-26.974,30.595c-22.478,8.117-53.947-3.559-53.947-3.559c-13.237-4.059-24.226,1.561-33.092,11.052
	c-8.002,8.546-14.264,20.241-18.825,30.909c-11.814,13.16-28.991,32.293-40.805,45.453h0c-1.498,0.874-3.309-0.687-2.747-2.31
	C272.796,159.657,456.492,123.255,456.492,123.255z"/>
<path style="fill:#E1E6E9;" d="M399.586,158.524c0,0-141.878,96.528-195.16,212.282
	C204.426,370.806,273.193,249.567,399.586,158.524z"/>
<g>
</g>
<g>
</g>
<g>
</g>
<g>
</g>
<g>
</g>
<g>
</g>
<g>
</g>
<g>
</g>
<g>
</g>
<g>
</g>
<g>
</g>
<g>
</g>
<g>
</g>
<g>
</g>
<g>
</g>
</svg>
