<?xml version="1.0" encoding="iso-8859-1"?>
<!-- Generator: Adobe Illustrator 19.0.0, SVG Export Plug-In . SVG Version: 6.00 Build 0)  -->
<svg version="1.1" id="Capa_1" xmlns="http://www.w3.org/2000/svg" xmlns:xlink="http://www.w3.org/1999/xlink" x="0px" y="0px"
	 viewBox="0 0 468.293 468.293" style="enable-background:new 0 0 468.293 468.293;" xml:space="preserve">
<path style="fill:#F6C358;" d="M282.313,10.698v41.239h-96.279V10.698c0-5.884,4.76-10.698,10.698-10.698h74.884
	C277.499,0,282.313,4.813,282.313,10.698z"/>
<g>
	<rect x="193.63" y="51.937" style="fill:#D15241;" width="81.033" height="33.861"/>
	<path style="fill:#D15241;" d="M328.314,256.906c-0.482-15.619-11.715-39.743-20.059-55.683
		c-6.793-12.89-12.944-26.102-18.347-39.635l-0.481-1.284c0,0-4.493-10.966-8.505-26.264h-93.551
		c-4.011,15.298-8.452,26.264-8.452,26.264l-0.534,1.284c-5.349,13.533-11.555,26.744-18.294,39.635
		c-8.344,15.939-19.576,40.064-20.058,55.683c-0.054,1.069-0.054,2.085-0.107,3.155v189.563c0,10.324,8.397,18.669,18.668,18.669
		h151.105c10.324,0,18.667-8.345,18.667-18.669V260.061C328.366,258.991,328.314,257.975,328.314,256.906z"/>
</g>
<path style="fill:#EBF0F3;" d="M274.665,91.732v-5.937h-81.036v5.937c0,14.497-2.995,29.847-6.258,42.309h93.551
	C277.66,121.579,274.665,106.229,274.665,91.732z"/>
<path style="fill:#DC8744;" d="M259.741,0l-73.707,22.411V10.698c0-5.884,4.76-10.698,10.698-10.698H259.741z"/>
<path style="fill:#E1E6E9;" d="M167.488,288.066c-3.442,0-6.367-2.638-6.66-6.132c-4.706-56.623,34.491-97.846,36.162-99.575
	c2.57-2.643,6.801-2.706,9.444-0.162c2.654,2.565,2.732,6.796,0.172,9.455c-0.366,0.381-36.648,38.722-32.448,89.175
	c0.303,3.677-2.429,6.911-6.111,7.219C167.859,288.061,167.671,288.066,167.488,288.066z"/>
<path style="fill:#FCD462;" d="M278.132,429.361h-87.971c-6.897,0-12.488-5.591-12.488-12.488v-86.094
	c0-6.897,5.591-12.488,12.488-12.488h87.971c6.897,0,12.488,5.591,12.488,12.488v86.094
	C290.62,423.77,285.029,429.361,278.132,429.361z"/>
<g>
</g>
<g>
</g>
<g>
</g>
<g>
</g>
<g>
</g>
<g>
</g>
<g>
</g>
<g>
</g>
<g>
</g>
<g>
</g>
<g>
</g>
<g>
</g>
<g>
</g>
<g>
</g>
<g>
</g>
</svg>
