<?xml version="1.0" encoding="iso-8859-1"?>
<!-- Generator: Adobe Illustrator 19.0.0, SVG Export Plug-In . SVG Version: 6.00 Build 0)  -->
<svg version="1.1" id="Capa_1" xmlns="http://www.w3.org/2000/svg" xmlns:xlink="http://www.w3.org/1999/xlink" x="0px" y="0px"
	 viewBox="0 0 512 512" style="enable-background:new 0 0 512 512;" xml:space="preserve">
<circle style="fill:#FFD83B;" cx="420.48" cy="83.04" r="83.04"/>
<circle style="fill:#F3C432;" cx="420.48" cy="83.04" r="53.936"/>
<path style="fill:#997960;" d="M260.72,152.64c-8.864-2.864-17.648-6-26.336-9.504C190,186.56,51.52,371.712,176.656,500
	c2.496,0.48,5.008,0.944,7.52,1.408c24.56-5.632,49.104-11.248,73.664-16.88C203.76,447.552,143.888,305.6,260.72,152.64z"/>
<path style="fill:#FFD93B;" d="M333.84,512c-30.608-50.624-91.904-85.248-162.672-85.248S39.088,461.376,8.48,512H333.84z"/>
<path style="fill:#7FB241;" d="M239.392,192.896c0,0,44.8,46.528-4.304,118.032c0,0,17.568-6.896,23.008-24.992
	c0,0,12.32,22.4-43.68,79.264c0,0,33.664-12.528,44.832-26.512c0,0-27.424,41.168-57.664,60.976c0,0,165.328-16.368,112.784-151.632
	c0,0,22.4,11.2,25.84,40.496c0,0,5.264-67.2-69.312-109.424c0,0,64.144,17.232,83.104,80.992c0,0,9.472-19.824-3.44-43.936
	c0,0,37.04,33.6,40.496,93.904c0,0,9.472-10.336,6.032-43.072c0,0,20.784,30.544,18.576,71.712c0,0,65.856-144.08-84.912-181.12
	c0,0,18.096-6.896,51.696,7.76c0,0-24.128-39.632-117.168-26.704c0,0,43.072-29.296,93.056-12.928c0,0-6.032-10.336-22.4-14.64
	c0,0,38.768-3.92,67.2,17.856c0,0,0.864-11.824-16.368-29.92c0,0,37.04,7.28,47.392,29.92c0,0-11.2-58.352-49.104-66.96
	s-97.36,29.296-97.36,29.296s11.2-15.472,39.632-30.56c0,0-35.328,0.416-71.504,34.88c0,0,3.44-3.44-9.472-44.8
	c0,0,2.592,36.192-8.608,52.56c0,0,0-112.864-90.464-95.632c0,0,28.432,11.2,35.328,25.84c0,0-13.792-8.608-31.872-3.44
	c0,0,43.936,19.824,50.832,39.632c0,0-6.032-7.76-27.568-8.608c0,0,40.8,29.68,46.256,67.824c0,0-25.568-53.184-66.928-59.216
	c0,0,25.84,17.232,27.568,35.328c0,0-86.16-88.352-172.32,23.888c0,0,41.36-19.584,52.56-10.096c0,0-15.504,5.168-30.16,31.872
	c0,0,37.904-36.192,82.704-26.704c0,0-5.168-2.592-21.536,14.64c0,0,48.256-20.672,98.224,8.608c0,0-68.064-12.064-102.528,17.232
	c0,0,41.264-10.336,53.808,0.864c0,0-76.208-1.728-79.648,74.96c0,0-1.728,43.936,26.704,78.4c0,0-6.896-31.872,10.336-58.592
	c0,0-0.864,18.096,12.928,41.36c0,0-4.304-48.256,17.232-81.856c0,0-2.176,33.36,9.248,51.568c0,0-9.248-78.288,75.184-91.2
	C213.536,179.968,236.8,179.968,239.392,192.896z"/>
<g>
</g>
<g>
</g>
<g>
</g>
<g>
</g>
<g>
</g>
<g>
</g>
<g>
</g>
<g>
</g>
<g>
</g>
<g>
</g>
<g>
</g>
<g>
</g>
<g>
</g>
<g>
</g>
<g>
</g>
</svg>
