<?xml version="1.0" encoding="iso-8859-1"?>
<!-- Generator: Adobe Illustrator 19.0.0, SVG Export Plug-In . SVG Version: 6.00 Build 0)  -->
<svg version="1.1" id="Capa_1" xmlns="http://www.w3.org/2000/svg" xmlns:xlink="http://www.w3.org/1999/xlink" x="0px" y="0px"
	 viewBox="0 0 468.293 468.293" style="enable-background:new 0 0 468.293 468.293;" xml:space="preserve">
<g>
	<path style="fill:#3A556A;" d="M303,164.642c-0.824-1.117-1.647-2.235-2.529-3.293c-5.412-6.766-10.236-13.883-14.53-21.295
		c-7.059-12.471-12.471-25.825-16.059-39.707h-71.471c-3.588,13.824-8.941,27.178-16.118,39.647
		c-4.176,7.471-9.059,14.588-14.471,21.354c-0.883,1.058-1.706,2.176-2.529,3.293c-26.059,33.824-40.707,75.059-41.707,117.648
		h221.12C343.706,239.702,329.059,198.466,303,164.642z"/>
	<path style="fill:#3A556A;" d="M123.469,432.998c0,19.47,15.765,35.295,35.295,35.295h150.766c19.53,0,35.295-15.825,35.295-35.295
		v-23.471H123.469V432.998z"/>
</g>
<path style="fill:#FCD462;" d="M344.707,282.29h-221.12c-0.118,1.706-0.118,3.471-0.118,5.178v122.06h221.355v-122.06
	C344.824,285.761,344.824,283.996,344.707,282.29z"/>
<path style="fill:#E1E6E9;" d="M264.588,59.23c0,14.001,1.824,27.765,5.294,41.118h-71.471c3.47-13.353,5.294-27.117,5.294-41.118
	V33.346c0,0-3.294,0.707-4.059,0c-5.824-5.822-6.412-27.881,0-33.058c0.824-0.648,3.059,0,4.059,0h60.883c1,0,3.235-0.648,4,0
	c6.471,5.177,5.882,27.236,0,33.058c-0.706,0.707-4,0-4,0V59.23z"/>
<circle style="fill:#E56353;" cx="234.146" cy="345.906" r="45.549"/>
<path style="fill:#FCD462;" d="M303,164.642l-58.471,58.412c-2.765,2.766-6.47,4.354-10.412,4.354
	c-3.882,0-7.588-1.588-10.353-4.354l-58.471-58.412c0.823-1.117,1.647-2.235,2.529-3.293c5.412-6.766,10.294-13.883,14.471-21.354
	l51.824,51.883l51.824-51.824c4.294,7.412,9.118,14.529,14.53,21.295C301.353,162.407,302.176,163.525,303,164.642z"/>
<g>
</g>
<g>
</g>
<g>
</g>
<g>
</g>
<g>
</g>
<g>
</g>
<g>
</g>
<g>
</g>
<g>
</g>
<g>
</g>
<g>
</g>
<g>
</g>
<g>
</g>
<g>
</g>
<g>
</g>
</svg>
