<?xml version="1.0" encoding="iso-8859-1"?>
<!-- Generator: Adobe Illustrator 19.0.0, SVG Export Plug-In . SVG Version: 6.00 Build 0)  -->
<svg xmlns="http://www.w3.org/2000/svg" xmlns:xlink="http://www.w3.org/1999/xlink" version="1.1" id="Capa_1" x="0px" y="0px" viewBox="0 0 410.112 410.112" style="enable-background:new 0 0 410.112 410.112;" xml:space="preserve">
<path style="fill:#FCD462;" d="M15.872,287.488c-6.656,30.208,10.24,65.024,40.448,65.024h299.52  c29.696,0,46.08-35.84,37.888-65.024H15.872z"/>
<path style="fill:#F6C358;" d="M15.872,287.488c-6.656,30.208,10.24,65.024,40.96,65.024h145.92v-63.488L15.872,287.488z"/>
<path style="fill:#DC8744;" d="M389.632,290.048H19.968C9.216,290.048,0,281.344,0,270.08v-23.552  c0-10.752,8.704-19.968,19.968-19.968h370.176c10.752,0,19.968,8.704,19.968,19.968v23.552  C409.6,281.344,400.896,290.048,389.632,290.048z"/>
<path style="fill:#FCD462;" d="M355.328,204.544c37.888,0,32.256-65.536,1.536-91.136C317.44,79.616,277.504,57.6,204.8,57.6  c-68.608,0-118.784,25.088-159.232,55.808c-33.792,26.112-30.72,91.136,10.24,91.136L355.328,204.544z"/>
<path style="fill:#F6C358;" d="M204.8,57.6c-68.608,0-118.784,25.088-159.232,55.808c-33.792,26.112-30.72,91.136,10.24,91.136  H204.8V57.6z"/>
<path style="fill:#EBF0F3;" d="M126.976,102.656v-0.512c0,0,18.432-13.824,25.6-17.408c6.144-2.56,13.312,1.024,14.336,6.144l0,0  c1.536,5.12-2.56,11.776-9.216,12.8C150.016,104.704,126.976,102.656,126.976,102.656z"/>
<path style="fill:#CE412D;" d="M375.296,226.56H30.208c-2.56,0-5.12-2.048-5.12-5.12v-12.288c0-2.56,2.048-5.12,5.12-5.12h345.088  c2.56,0,5.12,2.048,5.12,5.12v12.288C379.904,224.512,377.856,226.56,375.296,226.56z"/>
<g>
	<path style="fill:#EBF0F3;" d="M190.464,78.592V78.08c0,0,18.432-13.824,25.6-17.408c6.144-2.56,13.312,1.024,14.336,6.144l0,0   c1.536,5.12-2.56,11.776-9.216,12.8C213.504,80.64,190.464,78.592,190.464,78.592z"/>
	<path style="fill:#EBF0F3;" d="M81.408,132.352v-0.512c0,0,18.432-13.824,25.6-17.408c6.144-2.56,13.312,1.024,14.336,6.144l0,0   c1.536,5.12-2.56,11.776-9.216,12.8C104.448,134.4,81.408,132.352,81.408,132.352z"/>
	<path style="fill:#EBF0F3;" d="M144.896,132.352v-0.512c0,0,18.432-13.824,25.6-17.408c6.144-2.56,13.312,1.024,14.336,6.144l0,0   c1.536,5.12-2.56,11.776-9.216,12.8C167.936,134.4,144.896,132.352,144.896,132.352z"/>
	<path style="fill:#EBF0F3;" d="M194.048,111.872v-0.512c0,0,18.432-13.824,25.6-17.408c6.144-2.56,13.312,1.024,14.336,6.144l0,0   c1.536,5.12-2.56,11.776-9.216,12.8C217.088,113.92,194.048,111.872,194.048,111.872z"/>
	<path style="fill:#EBF0F3;" d="M118.784,162.048v-0.512c0,0,18.432-13.824,25.6-17.408c6.144-2.56,13.312,1.024,14.336,6.144l0,0   c1.536,5.12-2.56,11.776-9.216,12.8C141.824,164.096,118.784,162.048,118.784,162.048z"/>
</g>
<path style="fill:#CE412D;" d="M256,283.904c-5.632,0-11.776-1.536-17.408-4.096l-55.296-26.624  c-5.12-2.56-10.752-2.048-15.872,0.512l-44.032,24.064c-13.824,7.68-30.72,7.168-44.544-0.512l-58.368-33.28  c-4.096-2.048-5.12-7.168-3.072-11.264s7.168-5.12,11.264-3.072l58.368,33.28c8.704,5.12,19.456,5.12,28.672,0.512l44.032-24.064  c9.216-5.12,20.992-5.632,30.72-1.024l55.296,26.624c7.68,3.584,16.896,3.072,24.064-2.048l31.744-23.04  c10.752-7.68,25.088-8.704,36.864-2.56l55.808,30.208c4.096,2.048,5.632,7.168,3.584,11.264s-7.168,5.632-11.264,3.584  l-55.808-29.696c-6.144-3.584-13.824-3.072-19.456,1.536l-31.744,23.04C272.384,281.344,264.192,283.904,256,283.904z"/>
<g>
</g>
<g>
</g>
<g>
</g>
<g>
</g>
<g>
</g>
<g>
</g>
<g>
</g>
<g>
</g>
<g>
</g>
<g>
</g>
<g>
</g>
<g>
</g>
<g>
</g>
<g>
</g>
<g>
</g>
</svg>
