<?xml version="1.0" encoding="iso-8859-1"?>
<!-- Generator: Adobe Illustrator 19.0.0, SVG Export Plug-In . SVG Version: 6.00 Build 0)  -->
<svg version="1.1" id="Capa_1" xmlns="http://www.w3.org/2000/svg" xmlns:xlink="http://www.w3.org/1999/xlink" x="0px" y="0px"
	 viewBox="0 0 512.067 512.067" style="enable-background:new 0 0 512.067 512.067;" xml:space="preserve">
<circle style="fill:#FFD83B;" cx="221.323" cy="94.626" r="94.592"/>
<circle style="fill:#F3C432;" cx="221.323" cy="94.626" r="59.376"/>
<g>
	<path style="fill:#719C40;" d="M103.419,241.97c0.144-8.352,3.152-17.424,7.488-24.4c5.12-8.352,12.08-14.96,22.432-19.792
		c8.464-3.808,16.464-4.976,25.104-4.768c-9.376,2.32-12.16,2.208-23.568,7.904c-8.592,4.896-15.52,10.352-21.04,18.544
		C108.427,227.41,104.795,236.034,103.419,241.97z"/>
	<path style="fill:#719C40;" d="M130.923,257.138c5.808-4.88,18.304-10.016,30.672-10.864c9.072-0.56,14.944,0.384,22.368,2.464
		c6.576,1.792,14.848,5.92,22.288,12.192c-6.976-3.232-14.72-7.152-23.184-8.816c-6.256-1.536-13.76-2.336-21.248-2.032
		C149.083,250.882,138.187,253.81,130.923,257.138z"/>
	<path style="fill:#719C40;" d="M14.251,258.29c3.728-3.648,11.376-8.8,20.016-12.304c8.096-3.056,14.976-4.8,23.84-4.464
		c8.752,0.224,17.552,3.376,24.816,9.936c-8.256-3.92-15.632-6.576-24.88-6.24c-7.392-0.016-15.552,1.76-22.576,4.032
		C28.475,251.698,21.499,254.418,14.251,258.29z"/>
	<path style="fill:#719C40;" d="M14.251,318.61c2.24-8.912,8.272-18.608,14.848-25.008c9.744-9.744,18.144-13.664,29.36-17.232
		c9.904-2.56,17.44-3.568,29.024-2.528c-13.008,1.888-15.088,1.712-27.968,5.856c-9.792,3.648-19.184,8-28,16.416
		C23.547,303.314,17.019,312.53,14.251,318.61z"/>
	<path style="fill:#719C40;" d="M82.923,366.418c-3.264-5.056-7.088-14.656-8.592-24.256c-1.568-11.088-1.072-19.808,3.408-29.968
		c2.72-6.544,8.8-13.504,18.096-18.24c-6.656,6.032-10.928,9.808-14.896,19.632c-3.44,9.2-4.128,18.128-3.168,28.144
		C78.939,351.602,80.827,359.954,82.923,366.418z"/>
</g>
<path style="fill:#7FB241;" d="M161.387,239.842c0,0-22.128-1.952-31.824,10.416c-0.912,1.168-2.768,0.112-2.256-1.28
	c2.32-6.368,7.872-15.072,20.944-23.44c1.04-0.672,0.704-2.288-0.528-2.432c-0.144-0.016-0.288-0.032-0.448-0.048
	c-1.168-0.08-1.648-1.52-0.768-2.304c3.088-2.768,8.4-6.448,15.28-6.928c0.56-0.032,1.072-0.4,1.2-0.944
	c0.224-1.024-0.256-2.592-4.96-3.152c-1.264-0.144-1.6-1.84-0.496-2.448c3.392-1.92,8.816-4.32,14.256-4.08
	c0.896,0.048,1.536-0.832,1.296-1.68c-0.256-0.944-0.992-2.208-2.784-3.648c-0.864-0.688-0.544-2.08,0.528-2.32
	c1.936-0.416,4.64-0.848,7.456-0.8c1.408,0.032,1.856-1.888,0.592-2.512c-10.992-5.408-34.928-11.776-65.712,11.44
	c0,0-21.552,15.808-14.928,45.008c0.272,1.184-1.04,2.096-2.032,1.392c-9.952-7.008-42.848-27.328-67.616-9.584
	c-0.096,0.08-0.208,0.128-0.32,0.176c-1.904,0.656-18.96,7.088-28.176,30.848c-0.432,1.136,0.752,2.208,1.84,1.664
	c4.656-2.4,13.84-6.624,21.232-6.944c0.976-0.048,1.648,1.008,1.216,1.888c-0.432,0.928-0.896,2-1.168,2.896
	c2.832-1.392,14.992-7.2,22.96-7.856c1.04-0.08,1.76,1.024,1.264,1.936c-0.576,1.072-1.168,2.464-1.328,3.808
	c-0.112,0.976,0.88,1.728,1.808,1.36c5.968-2.4,27.248-10.16,40.384-4.8c1.408,0.576,0.944,2.656-0.56,2.56
	c-13.824-0.96-49.92-0.464-70.976,27.408c0,0-12.72,16.96-5.824,37.744c0.368,1.12,1.952,1.2,2.448,0.128
	c2.064-4.528,6.368-13.184,11.104-18.144c0.768-0.8,2.096-0.368,2.256,0.736c0.352,2.336,1.12,5.84,2.8,8.608
	c0.56,0.928,1.968,0.768,2.352-0.256c1.696-4.56,6.416-14.72,16.192-19.568c0.96-0.48,2.048,0.384,1.856,1.44
	c-0.304,1.648-0.496,3.888-0.016,6.048c0.256,1.152,1.776,1.456,2.416,0.464c4.448-6.944,19.248-27.568,38.544-28.064
	c1.408-0.032,1.904,1.888,0.64,2.512c-6.448,3.2-17.696,10.464-24.144,24.32c-6.928,14.864-5.632,32.192,2.368,46.512
	c4.432,7.952,11.088,15.872,20.4,17.376c1.12,0.176,1.968-1.008,1.376-1.984c-2.384-3.936-6.656-12.24-4.32-17.76
	c0.368-0.848,1.52-1.04,2.144-0.368c0.72,0.768,1.792,1.616,3.152,1.84c0.96,0.16,1.744-0.8,1.424-1.728
	c-1.488-4.368-4.944-16.88,0.368-26.048c0.448-0.768,1.52-0.896,2.128-0.24c1.76,1.872,5.168,5.104,7.616,4.816
	c0.784-0.096,1.296-0.864,1.104-1.616c-1.168-4.848-5.696-26.864,5.68-38.88c0.528-0.56,1.424-0.512,1.936,0.064
	c1.024,1.184,2.848,3.44,5.088,6.56c1.728-9.04,9.696-14.912,17.904-15.936c-1.504-1.792-2.896-3.664-4.496-5.392
	c-0.656-0.704-0.384-1.84,0.528-2.144c5.312-1.792,21.28-6.032,39.936,0.112c0.928,0.304,1.904-0.448,1.744-1.424
	c-0.192-1.2-0.784-2.88-2.336-4.832c-0.688-0.88-0.112-2.16,0.992-2.16c6.128-0.032,20.304,0.432,28.624,5.104
	c1.04,0.576,2.288-0.352,1.936-1.488c-0.288-0.944-0.88-2.192-2-3.808c-0.624-0.896,0.016-2.112,1.104-2.08
	c3.952,0.112,11.504,0.736,17.632,3.712c1.232,0.608,2.448-0.88,1.616-1.984C213.899,258.146,195.771,240.13,161.387,239.842z"/>
<path style="fill:#8BC540;" d="M479.531,207.794c-0.128-0.048-0.256-0.112-0.384-0.192c-28.464-20.4-66.256,2.96-77.696,11.008
	c-1.136,0.8-2.64-0.24-2.336-1.6c7.6-33.552-17.168-51.712-17.168-51.712c-35.36-26.688-62.864-19.36-75.504-13.152
	c-1.456,0.72-0.944,2.912,0.688,2.88c3.248-0.064,6.352,0.432,8.576,0.928c1.232,0.272,1.6,1.872,0.608,2.656
	c-2.064,1.648-2.896,3.104-3.184,4.176c-0.272,0.992,0.464,1.984,1.488,1.936c6.256-0.288,12.48,2.48,16.384,4.688
	c1.264,0.72,0.864,2.64-0.576,2.816c-5.408,0.64-5.952,2.464-5.696,3.632c0.144,0.624,0.736,1.056,1.376,1.088
	c7.904,0.544,14.016,4.768,17.552,7.952c0.992,0.896,0.448,2.544-0.896,2.656c-0.176,0.016-0.336,0.032-0.512,0.048
	c-1.408,0.16-1.792,2.016-0.608,2.784c15.024,9.632,21.392,19.632,24.064,26.944c0.592,1.6-1.552,2.816-2.608,1.472
	c-11.088-14.208-36.528-11.968-36.528-11.968c-39.504,0.336-60.336,21.04-68.544,31.904c-0.96,1.264,0.432,2.96,1.856,2.272
	c7.04-3.408,15.728-4.128,20.272-4.256c1.248-0.032,1.984,1.376,1.264,2.4c-1.28,1.84-1.968,3.28-2.304,4.368
	c-0.4,1.296,1.04,2.368,2.224,1.696c9.568-5.36,25.856-5.904,32.896-5.872c1.28,0,1.936,1.488,1.152,2.496
	c-1.776,2.24-2.448,4.16-2.672,5.536c-0.176,1.12,0.928,1.984,2,1.632c21.44-7.056,39.776-2.192,45.888-0.112
	c1.04,0.352,1.344,1.648,0.608,2.464c-0.64,0.704-1.184,1.472-1.792,2.192c7.552,3.984,13.664,9.552,20.432,14.992
	c0.528,0.432,0.704,1.104,1.152,1.6c0.48-0.592,1.12-1.424,1.456-1.824c0.576-0.672,1.616-0.72,2.224-0.08
	c13.056,13.808,7.872,39.104,6.512,44.672c-0.208,0.88,0.384,1.76,1.28,1.856c2.816,0.336,6.736-3.392,8.752-5.536
	c0.704-0.752,1.936-0.608,2.448,0.272c6.112,10.544,2.128,24.912,0.432,29.936c-0.368,1.072,0.528,2.16,1.648,1.984
	c1.568-0.256,2.784-1.216,3.616-2.112c0.72-0.784,2.048-0.576,2.464,0.416c2.688,6.336-2.224,15.872-4.96,20.4
	c-0.672,1.12,0.288,2.48,1.584,2.272c10.688-1.728,18.336-10.832,23.424-19.952c9.184-16.464,10.672-36.368,2.72-53.44
	c-7.424-15.92-20.336-24.272-27.744-27.952c-1.456-0.72-0.88-2.928,0.736-2.88c22.176,0.576,39.184,24.288,44.288,32.256
	c0.736,1.152,2.48,0.8,2.768-0.528c0.544-2.496,0.32-5.072-0.016-6.96c-0.224-1.216,1.024-2.208,2.144-1.648
	c11.216,5.568,16.656,17.248,18.592,22.48c0.432,1.168,2.048,1.344,2.704,0.288c1.936-3.168,2.816-7.2,3.216-9.888
	c0.192-1.248,1.728-1.76,2.608-0.832c5.424,5.712,10.368,15.648,12.752,20.848c0.576,1.248,2.384,1.152,2.816-0.144
	c7.936-23.888-6.688-43.376-6.688-43.376c-24.192-32.016-65.68-32.592-81.552-31.488c-1.728,0.128-2.256-2.272-0.64-2.928
	c15.104-6.16,39.552,2.768,46.416,5.52c1.056,0.416,2.192-0.432,2.08-1.552c-0.176-1.536-0.848-3.136-1.52-4.368
	c-0.56-1.056,0.272-2.32,1.456-2.224c9.136,0.752,23.12,7.424,26.368,9.024c-0.32-1.024-0.848-2.256-1.344-3.328
	c-0.48-1.024,0.272-2.224,1.408-2.16c8.512,0.368,19.056,5.216,24.4,7.984c1.232,0.64,2.608-0.608,2.112-1.904
	C501.323,215.954,481.723,208.546,479.531,207.794z"/>
<path style="fill:#4CC6E5;" d="M512.011,512.034V453.65c-32.784-7.216-40.672-18.864-87.584-18.864
	c-57.152,0-57.152,22.848-114.288,22.848s-57.136-22.848-114.272-22.848s-57.136,22.848-114.272,22.848
	c-42.944,0-54.384-16-81.568-21.6v76H512.011z"/>
<g>
	<path style="fill:#7FB241;" d="M393.195,209.282c-0.16-9.584-3.616-20.016-8.608-28.032c-5.984-9.776-14.064-17.264-25.776-22.736
		c-9.856-4.432-18.96-5.712-28.832-5.472c10.528,2.608,14.112,2.592,27.088,9.088c9.52,5.408,17.648,11.648,24.176,21.312
		C387.435,192.562,391.595,202.466,393.195,209.282z"/>
	<path style="fill:#7FB241;" d="M361.595,226.722c-6.848-5.76-21.136-11.52-35.248-12.48c-11.344-0.688-22.192,0.8-33.12,5.536
		c-4.816,1.904-11.808,5.92-18.176,11.312c5.872-2.72,13.408-6.304,19.376-8.112c10.336-3.376,21.392-4.768,31.68-4.336
		C340.603,219.522,353.019,222.802,361.595,226.722z"/>
	<path style="fill:#7FB241;" d="M495.659,228.034c-4.24-4.16-13.04-10.096-23.008-14.128c-10.176-3.84-20.08-6.16-31.28-4.8
		c-9.76,0.992-17.536,4.72-24.624,11.088c9.552-4.544,14.224-6.496,24.96-7.104c9.776-0.576,20.288,1.568,29.568,4.576
		C479.755,220.642,487.355,223.602,495.659,228.034z"/>
	<path style="fill:#7FB241;" d="M495.659,297.362c-2.688-10.656-9.824-21.696-17.056-28.736
		c-8.624-8.64-18.592-14.592-29.168-18.336c-13.536-4.304-23.584-5.632-37.904-4.368c13.472,1.952,20,2.208,36.432,8.336
		c9.808,4.144,20.32,10.032,27.888,17.248C484.731,279.554,492.571,290.594,495.659,297.362z"/>
	<path style="fill:#7FB241;" d="M416.747,352.29c3.68-5.696,8.128-16.784,9.872-27.872c2.72-19.248-0.464-29.824-8.016-41.456
		c-4.992-6.896-10.24-10.656-16.688-13.952c6.32,5.728,9.376,8.496,13.84,15.808c6.848,11.952,8.208,25.44,6.896,39.088
		C421.323,335.186,419.243,344.53,416.747,352.29z"/>
</g>
<g>
	<path style="fill:#9A795F;" d="M131.195,278.674c53.28,57.28,52.64,156.16,51.36,182.56h-48.96c8.8-26.24,11.52-53.92,11.52-53.92
		c6.4-65.6-26.4-106.88-32.32-113.92L131.195,278.674z"/>
	<path style="fill:#9A795F;" d="M345.275,399.314c0,0,3.04,31.68,13.28,61.92h-56.32c-1.28-30.4-2.08-143.84,59.04-209.92
		l21.12,17.12C375.515,276.434,337.915,323.954,345.275,399.314z"/>
</g>
<g>
</g>
<g>
</g>
<g>
</g>
<g>
</g>
<g>
</g>
<g>
</g>
<g>
</g>
<g>
</g>
<g>
</g>
<g>
</g>
<g>
</g>
<g>
</g>
<g>
</g>
<g>
</g>
<g>
</g>
</svg>
