<?xml version="1.0" encoding="iso-8859-1"?>
<!-- Generator: Adobe Illustrator 19.0.0, SVG Export Plug-In . SVG Version: 6.00 Build 0)  -->
<svg version="1.1" id="Capa_1" xmlns="http://www.w3.org/2000/svg" xmlns:xlink="http://www.w3.org/1999/xlink" x="0px" y="0px"
	 viewBox="0 0 468.293 468.293" style="enable-background:new 0 0 468.293 468.293;" xml:space="preserve">
<path style="fill:#647989;" d="M0,344.751V49.354c0-10.345,8.386-18.732,18.732-18.732h430.829c10.345,0,18.732,8.386,18.732,18.732
	v295.397c0,10.345-8.386,18.732-18.732,18.732H18.732C8.386,363.483,0,355.096,0,344.751z"/>
<rect x="23.895" y="52.674" style="fill:#EBEFF2;" width="420.527" height="288.78"/>
<rect x="156.054" y="363.483" style="fill:#D4D5DB;" width="156.16" height="34.092"/>
<path style="fill:#647989;" d="M156.053,397.573H312.24l22.322,30.546c2.9,3.969,0.066,9.551-4.85,9.551h-191.13
	c-4.916,0-7.751-5.582-4.85-9.551L156.053,397.573z"/>
<path style="fill:#D4D5DB;" d="M330.947,252.43l3.894,3.894l13.173,38.852l4.284,12.593c1.566,4.602-2.831,8.998-7.433,7.432
	l-12.592-4.285l-38.853-13.172l-3.894-3.894L330.947,252.43z"/>
<path style="fill:#FAD362;" d="M147.927,152.253l144.812,144.812c1.688,1.688,3.969,0.979,3.492-1.085l-1.144-4.956
	c-0.312-1.353,0.613-2.278,1.965-1.965l8.352,1.927c1.353,0.312,2.278-0.613,1.965-1.965l-1.927-8.352
	c-0.312-1.353,0.613-2.278,1.965-1.965l8.352,1.927c1.353,0.312,2.278-0.613,1.965-1.965l-1.927-8.352
	c-0.312-1.353,0.613-2.277,1.965-1.965l8.352,1.927c1.353,0.312,2.278-0.613,1.966-1.966l-1.927-8.351
	c-0.312-1.353,0.613-2.278,1.965-1.965l4.956,1.144c2.064,0.476,2.773-1.804,1.085-3.492L189.348,110.833L147.927,152.253z"/>
<path style="fill:#3B566A;" d="M348.013,295.177l4.284,12.593c1.566,4.602-2.831,8.998-7.433,7.432l-12.592-4.285L348.013,295.177z"
	/>
<rect x="133.997" y="118.606" transform="matrix(-0.7071 0.7071 -0.7071 -0.7071 367.9742 99.9477)" style="fill:#29A1DA;" width="58.58" height="15.154"/>
<path style="fill:#E56354;" d="M178.632,100.116l-41.421,41.42l-17.882-17.882c-4.877-4.877-4.877-12.784,0-17.66l23.76-23.76
	c4.877-4.877,12.784-4.877,17.66,0L178.632,100.116z"/>
<path style="fill:#F4C158;" d="M166.135,313.672l-48.611-48.611c-2.438-2.438-2.438-6.392,0-8.83L293.327,80.429
	c2.438-2.438,6.392-2.438,8.83,0l48.611,48.611c2.438,2.438,2.438,6.392,0,8.83L174.965,313.672
	C172.527,316.111,168.574,316.111,166.135,313.672z"/>
<g>
	
		<rect x="290.454" y="84.707" transform="matrix(-0.7071 0.7071 -0.7071 -0.7071 568.0532 -45.0391)" style="fill:#DA8542;" width="5.801" height="20.842"/>
	
		<rect x="276.055" y="97.988" transform="matrix(-0.7071 0.7071 -0.7071 -0.7071 550.8123 -17.1362)" style="fill:#DA8542;" width="5.801" height="15.042"/>
	
		<rect x="265.66" y="109.467" transform="matrix(-0.7071 0.7071 -0.7071 -0.7071 543.2342 14.7612)" style="fill:#DA8542;" width="5.801" height="20.842"/>
	
		<rect x="251.256" y="122.746" transform="matrix(-0.7071 0.7071 -0.7071 -0.7071 525.9844 42.6639)" style="fill:#DA8542;" width="5.801" height="15.042"/>
	
		<rect x="240.909" y="134.296" transform="matrix(-0.7071 0.7071 -0.7071 -0.7071 518.5394 74.6481)" style="fill:#DA8542;" width="5.801" height="20.842"/>
	
		<rect x="226.451" y="147.535" transform="matrix(-0.7071 0.7071 -0.7071 -0.7071 501.1679 102.5218)" style="fill:#DA8542;" width="5.801" height="15.042"/>
	
		<rect x="216.106" y="159.066" transform="matrix(-0.7071 0.7071 -0.7071 -0.7071 493.7123 134.4714)" style="fill:#DA8542;" width="5.801" height="20.842"/>
	
		<rect x="201.647" y="172.329" transform="matrix(-0.7071 0.7071 -0.7071 -0.7071 476.3577 162.386)" style="fill:#DA8542;" width="5.801" height="15.042"/>
	
		<rect x="191.31" y="183.868" transform="matrix(-0.7071 0.7071 -0.7071 -0.7071 468.9198 194.3444)" style="fill:#DA8542;" width="5.801" height="20.842"/>
	
		<rect x="176.848" y="197.118" transform="matrix(-0.7071 0.7071 -0.7071 -0.7071 451.5519 222.2395)" style="fill:#DA8542;" width="5.801" height="15.042"/>
	
		<rect x="166.519" y="208.657" transform="matrix(-0.7071 0.7071 -0.7071 -0.7071 444.1291 254.1917)" style="fill:#DA8542;" width="5.801" height="20.842"/>
	
		<rect x="152.074" y="221.908" transform="matrix(-0.7071 0.7071 -0.7071 -0.7071 426.7888 282.0753)" style="fill:#DA8542;" width="5.801" height="15.042"/>
	
		<rect x="141.685" y="233.509" transform="matrix(-0.7071 0.7071 -0.7071 -0.7071 419.3075 314.1774)" style="fill:#DA8542;" width="5.801" height="20.842"/>
	
		<rect x="127.215" y="246.733" transform="matrix(-0.7071 0.7071 -0.7071 -0.7071 401.9048 342.0324)" style="fill:#DA8542;" width="5.801" height="15.042"/>
</g>
<ellipse style="fill:#3B566A;" cx="332.254" cy="132.367" rx="8.704" ry="8.704"/>
<g>
</g>
<g>
</g>
<g>
</g>
<g>
</g>
<g>
</g>
<g>
</g>
<g>
</g>
<g>
</g>
<g>
</g>
<g>
</g>
<g>
</g>
<g>
</g>
<g>
</g>
<g>
</g>
<g>
</g>
</svg>
