<?xml version="1.0" encoding="iso-8859-1"?>
<!-- Generator: Adobe Illustrator 19.0.0, SVG Export Plug-In . SVG Version: 6.00 Build 0)  -->
<svg version="1.1" id="Capa_1" xmlns="http://www.w3.org/2000/svg" xmlns:xlink="http://www.w3.org/1999/xlink" x="0px" y="0px"
	 viewBox="0 0 512 512" style="enable-background:new 0 0 512 512;" xml:space="preserve">
<polygon style="fill:#FFD83B;" points="322.848,161.432 245.344,174.776 314.976,211.336 237.152,199.992 292,256.36 
	221.488,221.512 256.32,292.024 199.968,237.176 211.312,314.984 174.768,245.352 161.424,322.856 148.08,245.352 111.536,314.984 
	122.864,237.16 66.512,292.024 101.344,221.512 30.832,256.344 85.696,199.992 7.872,211.32 77.504,174.776 0,161.432 
	77.504,148.104 7.872,111.544 85.696,122.888 30.848,66.52 101.36,101.368 66.512,30.856 122.864,85.704 111.536,7.88 
	148.08,77.528 161.424,0.024 174.768,77.528 211.312,7.88 199.968,85.704 256.336,30.856 221.488,101.368 292,66.536 
	237.152,122.888 314.976,111.544 245.344,148.104 "/>
<circle style="fill:#F3C432;" cx="161.44" cy="161.432" r="63.136"/>
<path style="fill:#7AA440;" d="M290.624,441.32c21.392-3.376,43.92-5.296,67.28-5.296c58.432,0,112.032,11.344,154.064,30.224
	V338.344c-32.896-9.888-69.216-15.504-107.504-15.504c-76.768,0-145.728,22.208-194.208,57.504
	C243.12,395.432,270.704,416.36,290.624,441.32z"/>
<path style="fill:#7FB241;" d="M290.56,441.256c-66.24,10.56-120.8,36-151.04,69.6c-0.48,0.32-0.64,0.8-0.96,1.12H0v-144.16
	c27.36-8.48,57.28-13.28,88.8-13.28c44.48,0,85.92,9.6,121.44,25.92C243.04,395.496,270.72,416.28,290.56,441.256z"/>
<path style="fill:#8BC540;" d="M512,466.216v45.76H139.68c-0.16-0.32-0.16-0.8-0.16-1.12c30.24-33.6,84.8-59.04,151.04-69.6
	c21.44-3.36,44-5.28,67.36-5.28C416.32,435.96,469.92,447.336,512,466.216z"/>
<g>
</g>
<g>
</g>
<g>
</g>
<g>
</g>
<g>
</g>
<g>
</g>
<g>
</g>
<g>
</g>
<g>
</g>
<g>
</g>
<g>
</g>
<g>
</g>
<g>
</g>
<g>
</g>
<g>
</g>
</svg>
