<?xml version="1.0" encoding="iso-8859-1"?>
<!-- Generator: Adobe Illustrator 19.0.0, SVG Export Plug-In . SVG Version: 6.00 Build 0)  -->
<svg version="1.1" id="Capa_1" xmlns="http://www.w3.org/2000/svg" xmlns:xlink="http://www.w3.org/1999/xlink" x="0px" y="0px"
	 viewBox="0 0 512.016 512.016" style="enable-background:new 0 0 512.016 512.016;" xml:space="preserve">
<rect x="261.616" y="385.768" style="fill:#997960;" width="30.864" height="100.144"/>
<path style="fill:#7FB241;" d="M351.248,348.728c0,40.976-33.216,74.208-74.208,74.208s-74.208-33.216-74.208-74.208
	S236.048,140.52,277.04,140.52S351.248,307.736,351.248,348.728z"/>
<rect x="373.424" y="367.176" style="fill:#997960;" width="36.576" height="118.672"/>
<path style="fill:#8BC540;" d="M479.648,326.088c0,48.56-39.36,87.92-87.92,87.92s-87.92-39.36-87.92-87.92
	s39.36-246.72,87.92-246.72S479.648,277.528,479.648,326.088z"/>
<g>
	<path style="fill:#7FB241;" d="M391.712,79.368c-0.864,0-1.712,0.208-2.56,0.32c30.56,67.872,51.376,183.936,51.376,220.992
		c0,53.488-43.36,96.848-96.848,96.848c-1.12,0-2.208-0.128-3.328-0.176c14.464,10.432,32.16,16.656,51.344,16.656
		c48.56,0,87.92-39.36,87.92-87.936S440.272,79.368,391.712,79.368z"/>
	<rect x="0.016" y="471.128" style="fill:#7FB241;" width="512" height="40.88"/>
</g>
<path style="fill:#FFF100;" d="M188.64,0.008c3.92,13.536,6.144,27.776,6.144,42.576c0,84.32-68.368,152.688-152.688,152.688
	c-14.608,0-28.688-2.176-42.08-6v63.056c13.616,2.72,27.664,4.192,42.08,4.192c118.144,0,213.92-95.776,213.92-213.92
	c0-14.592-1.488-28.832-4.272-42.592H188.64z"/>
<path style="fill:#FCD91A;" d="M133.536,42.584c0,50.512-40.944,91.456-91.456,91.456c-15.264,0-29.424-4.096-42.08-10.704v65.936
	c13.376,3.84,27.456,6,42.08,6c84.32,0,152.688-68.368,152.688-152.688c0-14.8-2.208-29.056-6.144-42.576h-66.08
	C129.344,12.776,133.536,27.128,133.536,42.584z"/>
<path style="fill:#F3C432;" d="M0.016,123.336c12.656,6.608,26.816,10.704,42.08,10.704c50.512,0,91.456-40.944,91.456-91.456
	c0-15.456-4.208-29.808-10.976-42.576H0.016V123.336z"/>
<g>
</g>
<g>
</g>
<g>
</g>
<g>
</g>
<g>
</g>
<g>
</g>
<g>
</g>
<g>
</g>
<g>
</g>
<g>
</g>
<g>
</g>
<g>
</g>
<g>
</g>
<g>
</g>
<g>
</g>
</svg>
