<?xml version="1.0" encoding="iso-8859-1"?>
<!-- Generator: Adobe Illustrator 19.0.0, SVG Export Plug-In . SVG Version: 6.00 Build 0)  -->
<svg version="1.1" id="Capa_1" xmlns="http://www.w3.org/2000/svg" xmlns:xlink="http://www.w3.org/1999/xlink" x="0px" y="0px"
	 viewBox="0 0 512 512" style="enable-background:new 0 0 512 512;" xml:space="preserve">
<path style="fill:#E8AF2A;" d="M290.624,453.088c21.392-3.376,43.92-5.296,67.28-5.296c58.432,0,112.032,11.344,154.064,30.224
	V350.112c-32.896-9.888-69.216-15.504-107.504-15.504c-76.768,0-145.728,22.208-194.208,57.504
	C243.12,407.2,270.704,428.128,290.624,453.088z"/>
<path style="fill:#F3C432;" d="M290.56,407.296c-66.24,10.56-120.8,36-151.04,69.6c-0.48,0.32-0.64,0.8-0.96,1.12H0v-144.16
	c27.36-8.48,57.28-13.28,88.8-13.28c44.48,0,85.92,9.6,121.44,25.92C243.04,361.536,270.72,382.336,290.56,407.296z"/>
<polygon style="fill:#8BC540;" points="145.28,148.992 44.64,362.304 245.92,362.304 "/>
<polygon style="fill:#7FB241;" points="145.28,112.24 60.448,292.032 230.112,292.032 "/>
<polygon style="fill:#8BC540;" points="145.28,75.488 76.272,221.744 214.288,221.744 "/>
<rect x="124.016" y="362.304" style="fill:#A4856D;" width="42.528" height="72.784"/>
<polygon style="fill:#8BC540;" points="382.256,197.536 300.832,370.096 463.664,370.096 "/>
<polygon style="fill:#7FB241;" points="382.256,167.808 313.632,313.248 450.88,313.248 "/>
<polygon style="fill:#8BC540;" points="382.256,138.064 326.416,256.384 438.08,256.384 "/>
<rect x="365.056" y="370.08" style="fill:#A4856D;" width="34.4" height="64.992"/>
<g>
	<path style="fill:#FFD83B;" d="M512,470.224c-58.128-41.456-151.008-68.448-256.016-68.448
		c-104.992,0-197.856,26.976-255.984,68.432v17.024h512V470.224z"/>
	<circle style="fill:#FFD83B;" cx="256" cy="83.552" r="58.784"/>
</g>
<g>
</g>
<g>
</g>
<g>
</g>
<g>
</g>
<g>
</g>
<g>
</g>
<g>
</g>
<g>
</g>
<g>
</g>
<g>
</g>
<g>
</g>
<g>
</g>
<g>
</g>
<g>
</g>
<g>
</g>
</svg>
