<?xml version="1.0" encoding="iso-8859-1"?>
<!-- Generator: Adobe Illustrator 19.0.0, SVG Export Plug-In . SVG Version: 6.00 Build 0)  -->
<svg version="1.1" id="Capa_1" xmlns="http://www.w3.org/2000/svg" xmlns:xlink="http://www.w3.org/1999/xlink" x="0px" y="0px"
	 viewBox="0 0 468.293 468.293" style="enable-background:new 0 0 468.293 468.293;" xml:space="preserve">
<path style="fill:#FAD362;" d="M451.891,190.788v259.041c0,4.677-1.723,8.924-4.616,12.186c-3.385,3.877-8.309,6.278-13.848,6.278
	H34.865c-5.539,0-10.463-2.4-13.848-6.278c-2.892-3.261-4.616-7.508-4.616-12.186V190.788H451.891z"/>
<path style="fill:#F4C158;" d="M447.275,462.015c-3.385,3.877-8.309,6.278-13.848,6.278H34.865c-5.539,0-10.463-2.4-13.848-6.278
	L234.146,329.51L447.275,462.015z"/>
<polygon style="fill:#3B566A;" points="451.891,190.788 393.301,238.301 368.683,258.303 234.146,367.544 99.61,258.303 
	74.992,238.301 16.401,190.788 234.146,0 "/>
<polygon style="fill:#E0E5E8;" points="148.439,32.557 74.992,106.004 74.992,238.301 99.61,258.303 234.146,367.544 
	368.683,258.303 393.301,238.301 393.301,32.557 "/>
<polygon style="fill:#EBEFF2;" points="148.439,106.004 148.439,32.557 74.992,106.004 "/>
<g>
	<path style="fill:#D4D5DB;" d="M355.128,68.541H202.027c-3.448,0-6.244,2.796-6.244,6.244c0,3.448,2.796,6.244,6.244,6.244h153.101
		c3.448,0,6.244-2.796,6.244-6.244C361.372,71.337,358.576,68.541,355.128,68.541z"/>
	<path style="fill:#D4D5DB;" d="M320.062,243.949H148.23c-3.448,0-6.244,2.796-6.244,6.244s2.796,6.244,6.244,6.244h171.832
		c3.448,0,6.244-2.796,6.244-6.244S323.511,243.949,320.062,243.949z"/>
</g>
<path style="fill:#29A1DA;" d="M233.031,219.58c-15.62,0-28.703-5.208-39.251-15.62c-10.553-10.411-15.83-23.427-15.83-39.041
	c0-15.62,5.532-28.981,16.596-40.09c11.058-11.103,24.425-16.664,40.09-16.664c15.659,0,28.862,5.56,39.597,16.664
	c10.735,11.109,16.108,24.658,16.108,40.646c0,10.042-1.906,18.15-5.719,24.334c-3.813,6.179-8.879,9.271-15.2,9.271
	c-4.556,0-8.181-1.555-10.876-4.669s-4.136-7.552-4.323-13.316c-5.203,11.989-13.52,17.986-24.959,17.986
	c-7.994,0-15.035-3.206-21.123-9.623c-6.088-6.411-9.135-14.547-9.135-24.403c0-9.85,2.882-18.127,8.647-24.817
	c5.764-6.695,13.384-10.042,22.871-10.042c4.272,0,8.318,1.118,12.13,3.347c3.807,2.23,6.553,4.879,8.227,7.949v-9.345h13.384
	v48.663c0,6.508,2.553,9.764,7.671,9.764c2.877,0,5.503-2.116,7.875-6.343c2.372-4.233,3.557-9.787,3.557-16.664
	c0-14.871-4.488-27.472-13.458-37.787c-8.97-10.32-20.544-15.478-34.717-15.478c-14.179,0-26.241,4.97-36.187,14.916
	c-9.946,9.952-14.916,21.849-14.916,35.699s4.692,25.401,14.082,34.649c9.39,9.248,21.004,13.872,34.859,13.872
	c11.154,0,19.705-2.786,25.656-8.363l3.069,5.157c-3.257,2.791-7.58,5.044-12.97,6.763
	C243.397,218.717,238.143,219.58,233.031,219.58z M251.017,164.431c0-5.997-1.765-10.945-5.299-14.854
	c-3.535-3.904-8.136-5.855-13.804-5.855c-5.668,0-10.224,2.003-13.662,5.997c-3.438,4-5.157,8.902-5.157,14.712
	c0,5.81,1.691,10.876,5.089,15.2c3.387,4.318,8.017,6.479,13.872,6.479s10.479-2.111,13.872-6.343
	C249.321,175.54,251.017,170.428,251.017,164.431z"/>
<g>
</g>
<g>
</g>
<g>
</g>
<g>
</g>
<g>
</g>
<g>
</g>
<g>
</g>
<g>
</g>
<g>
</g>
<g>
</g>
<g>
</g>
<g>
</g>
<g>
</g>
<g>
</g>
<g>
</g>
</svg>
