<?xml version="1.0" encoding="iso-8859-1"?>
<!-- Generator: Adobe Illustrator 19.0.0, SVG Export Plug-In . SVG Version: 6.00 Build 0)  -->
<svg version="1.1" id="Capa_1" xmlns="http://www.w3.org/2000/svg" xmlns:xlink="http://www.w3.org/1999/xlink" x="0px" y="0px"
	 viewBox="0 0 468.297 468.297" style="enable-background:new 0 0 468.297 468.297;" xml:space="preserve">
<path style="fill:#E1E6E9;" d="M128.154,421.092l-5.585,5.585c-0.688,0.688-1.538,1.133-2.469,1.417l-51.765,18.334L7.648,467.953
	c-4.539,1.61-8.916-2.764-7.309-7.304l21.492-60.725l18.334-51.765c0.283-0.931,0.769-1.74,1.457-2.429l5.585-5.585L128.154,421.092
	z"/>
<path style="fill:#27A2DB;" d="M399.163,150.084L122.205,427.041c-1.862,1.862-4.938,0.405-4.816-2.226
	c0.203-5.14-1.659-10.402-5.626-14.368c-4.978-4.978-12.061-6.638-18.375-4.938c-0.931,0.283-1.862,0.081-2.509-0.405
	c-0.972-0.647-1.497-1.902-1.133-3.238c1.7-6.314,0.041-13.397-4.938-18.375c-5.019-5.019-12.101-6.678-18.415-4.978
	c-2.307,0.607-4.25-1.336-3.602-3.602c1.66-6.354,0-13.437-4.978-18.415c-3.967-3.967-9.187-5.788-14.328-5.585
	c-2.631,0.121-4.088-2.954-2.226-4.816L318.217,69.138L399.163,150.084z"/>
<path style="fill:#64798A;" d="M68.335,446.428L7.648,467.953c-4.539,1.61-8.916-2.764-7.309-7.304l21.492-60.725
	c9.39,4.857,18.456,11.494,26.753,19.791C56.841,427.972,63.478,437.038,68.335,446.428z"/>
<g>
	<path style="fill:#2D93BA;" d="M399.163,150.084L122.205,427.041c-1.862,1.862-4.938,0.405-4.816-2.226
		c0.203-5.14-1.659-10.402-5.626-14.368c-4.978-4.978-12.061-6.638-18.375-4.938c-0.931,0.283-1.862,0.081-2.509-0.405
		l281.653-281.652L399.163,150.084z"/>
	<path style="fill:#2D93BA;" d="M318.217,69.138L41.259,346.095c-1.862,1.862-0.405,4.938,2.226,4.816
		c5.14-0.203,10.402,1.659,14.368,5.626c4.978,4.978,6.638,12.061,4.938,18.375c-0.283,0.931-0.081,1.862,0.405,2.509L344.848,95.77
		L318.217,69.138z"/>
</g>
<rect x="309.158" y="90.906" transform="matrix(-0.7071 -0.7071 0.7071 -0.7071 553.4395 432.9961)" style="fill:#E1E6E9;" width="114.476" height="21.941"/>
<path style="fill:#E56353;" d="M414.677,134.57l-80.946-80.946l49.962-49.962c4.877-4.877,12.784-4.877,17.66,0l63.286,63.286
	c4.877,4.877,4.877,12.784,0,17.66L414.677,134.57z"/>
<g>
</g>
<g>
</g>
<g>
</g>
<g>
</g>
<g>
</g>
<g>
</g>
<g>
</g>
<g>
</g>
<g>
</g>
<g>
</g>
<g>
</g>
<g>
</g>
<g>
</g>
<g>
</g>
<g>
</g>
</svg>
