<?xml version="1.0" encoding="iso-8859-1"?>
<!-- Generator: Adobe Illustrator 19.0.0, SVG Export Plug-In . SVG Version: 6.00 Build 0)  -->
<svg version="1.1" id="Capa_1" xmlns="http://www.w3.org/2000/svg" xmlns:xlink="http://www.w3.org/1999/xlink" x="0px" y="0px"
	 viewBox="0 0 512 512" style="enable-background:new 0 0 512 512;" xml:space="preserve">
<g>
	<rect x="359.152" y="355.072" style="fill:#8E6D53;" width="25.984" height="92.528"/>
	<rect x="121.328" y="355.072" style="fill:#8E6D53;" width="25.984" height="92.528"/>
	<rect x="235.504" y="336.992" style="fill:#8E6D53;" width="37.136" height="110.608"/>
</g>
<circle style="fill:#FFD83B;" cx="405.872" cy="122.704" r="106.128"/>
<g>
	<rect y="414.944" style="fill:#7FB241;" width="512" height="80.48"/>
	<polygon style="fill:#7FB241;" points="293.776,377.04 319.552,322.224 306.096,322.224 331.888,267.536 318.432,267.536 
		372.128,153.664 425.824,267.536 412.368,267.536 438.16,322.224 424.704,322.224 450.496,377.04 	"/>
</g>
<polygon style="fill:#8BC540;" points="55.952,377.04 81.744,322.224 68.288,322.224 94.08,267.536 80.624,267.536 134.32,153.664 
	188.016,267.536 174.56,267.536 200.336,322.224 186.88,322.224 212.672,377.04 "/>
<polygon style="fill:#719C40;" points="142.016,369.632 178.88,291.248 159.648,291.248 196.528,213.056 177.28,213.056 
	254.064,50.24 330.832,213.056 311.584,213.056 348.464,291.248 329.232,291.248 366.096,369.632 "/>
<g>
</g>
<g>
</g>
<g>
</g>
<g>
</g>
<g>
</g>
<g>
</g>
<g>
</g>
<g>
</g>
<g>
</g>
<g>
</g>
<g>
</g>
<g>
</g>
<g>
</g>
<g>
</g>
<g>
</g>
</svg>
