<?xml version="1.0" encoding="iso-8859-1"?>
<!-- Generator: Adobe Illustrator 19.0.0, SVG Export Plug-In . SVG Version: 6.00 Build 0)  -->
<svg version="1.1" id="Capa_1" xmlns="http://www.w3.org/2000/svg" xmlns:xlink="http://www.w3.org/1999/xlink" x="0px" y="0px"
	 viewBox="0 0 468.293 468.293" style="enable-background:new 0 0 468.293 468.293;" xml:space="preserve">
<g>
	<path style="fill:#3B566A;" d="M89.139,248.804c0-4.586-3.716-8.303-8.303-8.303H8.303c-4.586,0-8.303,3.716-8.303,8.303
		s3.716,8.303,8.303,8.303h72.534C85.423,257.106,89.139,253.39,89.139,248.804z"/>
	<path style="fill:#3B566A;" d="M80.837,273.711H24.908c-4.586,0-8.303,3.716-8.303,8.303s3.716,8.303,8.303,8.303h55.929
		c4.586,0,8.303-3.716,8.303-8.303S85.423,273.711,80.837,273.711z"/>
	<path style="fill:#3B566A;" d="M80.837,306.922H47.048c-4.586,0-8.303,3.716-8.303,8.303s3.716,8.303,8.303,8.303h33.789
		c4.586,0,8.303-3.716,8.303-8.303S85.423,306.922,80.837,306.922z"/>
</g>
<rect x="80.84" y="112.234" style="fill:#FAD362;" width="387.434" height="243.824"/>
<polygon style="fill:#F4C158;" points="468.293,356.045 80.838,356.045 274.565,175.84 "/>
<polygon style="fill:#FAD362;" points="457.961,356.045 91.17,356.045 274.565,180.454 "/>
<polygon style="fill:#DA8542;" points="312.814,259.005 468.293,112.235 80.838,112.235 236.317,259.005 "/>
<polygon style="fill:#F4C158;" points="312.814,248.672 468.293,112.235 80.838,112.235 236.317,248.672 "/>
<g>
</g>
<g>
</g>
<g>
</g>
<g>
</g>
<g>
</g>
<g>
</g>
<g>
</g>
<g>
</g>
<g>
</g>
<g>
</g>
<g>
</g>
<g>
</g>
<g>
</g>
<g>
</g>
<g>
</g>
</svg>
