<?xml version="1.0" encoding="iso-8859-1"?>
<!-- Generator: Adobe Illustrator 19.0.0, SVG Export Plug-In . SVG Version: 6.00 Build 0)  -->
<svg version="1.1" id="Capa_1" xmlns="http://www.w3.org/2000/svg" xmlns:xlink="http://www.w3.org/1999/xlink" x="0px" y="0px"
	 viewBox="0 0 512 512" style="enable-background:new 0 0 512 512;" xml:space="preserve">
<g>
	<rect x="14.624" y="418.728" style="fill:#CE7629;" width="106.704" height="19.568"/>
	<rect x="14.624" y="475.192" style="fill:#CE7629;" width="106.704" height="19.568"/>
</g>
<g>
	<rect x="337.28" y="418.728" style="fill:#E18823;" width="164.448" height="19.568"/>
	<rect x="337.28" y="475.192" style="fill:#E18823;" width="164.448" height="19.568"/>
</g>
<path style="fill:#A4856D;" d="M146.944,491.784c13.472-12.496,27.84-43.584,43.456-106.592c0.064-0.24,0.096-0.448,0.144-0.688
	c0.784-4.864,20.32-58-5.216-131.84c-2.56-7.424,6.784-13.072,12.08-7.264l0,0c4.432,4.864,12.528,1.728,12.528-4.848v-45.024
	c0-4.256,3.664-7.584,7.904-7.168l40.88,4c3.696,0.368,6.496,3.456,6.496,7.168v31.616c0,6.528,7.984,9.696,12.464,4.928
	l27.04-28.832c3.952-4.208,11.008-2.288,12.288,3.344l3.504,15.52c0.64,2.8-0.416,5.712-2.752,7.392
	c-16.08,11.488-68.08,63.296-44.8,184.448c0.064,0.352,0.144,0.672,0.256,1.008c1.552,4.608,6.768,41.152,38,70.736
	c4.144,3.92,2.416,10.832-3.12,12.224c-7.968,2-17.904,4.688-25.28,7.296c-21.424,7.584-50.416-10.512-60.144-17.248
	c-2.112-1.456-4.784-1.68-7.104-0.576c-10.992,5.216-43.024,19.552-55.504,16c-4.256-1.216-7.824-2.432-10.768-3.552
	C144.256,501.88,142.992,495.448,146.944,491.784z"/>
<path style="fill:#7FB241;" d="M293.44,197.096c0-15.36-12.464-27.824-27.824-27.824c-2.128,0-4.192,0.256-6.176,0.704
	c0.448-1.984,0.704-4.048,0.704-6.176c0-15.36-12.464-27.824-27.824-27.824c-7.376,0-14.064,2.896-19.056,7.584
	c-4.368-9.648-14.064-16.384-25.344-16.384c-6.128,0-11.776,2-16.384,5.376c-2.928-21.632-21.424-38.304-43.84-38.304
	c-24.464,0-44.288,19.824-44.288,44.288c0,4.848,0.8,9.504,2.24,13.872c-8.224,5.92-13.6,15.536-13.6,26.448
	c0,6.24,1.792,12.048,4.832,17.008c-7.872,4.912-13.136,13.632-13.136,23.6c0,0.624,0.048,1.248,0.096,1.872
	c-0.624-0.048-1.232-0.096-1.872-0.096c-15.36,0-27.824,12.464-27.824,27.824c0,7.232,2.784,13.792,7.296,18.736
	c-8.176,4.848-13.68,13.744-13.68,23.936c0,15.376,12.464,27.824,27.824,27.824c12.992,0,23.856-8.912,26.928-20.944
	c4.768,3.808,10.784,6.096,17.36,6.096c4.464,0,8.656-1.072,12.384-2.944c7.984,11.76,21.472,19.504,36.768,19.504
	c13.024,0,24.688-5.632,32.816-14.576c3.696,0.992,7.568,1.584,11.584,1.584c18.992,0,35.152-11.952,41.488-28.736
	c8.592-8.096,13.968-19.536,13.968-32.272c0-0.176-0.016-0.336-0.032-0.512c11.248-2.16,20.048-11.088,22.08-22.368
	C283.76,221.912,293.44,210.632,293.44,197.096z M139.68,181.512c-0.896,0.192-1.76,0.432-2.624,0.672
	c0.016-0.128,0-0.256,0.016-0.368c0.928-0.208,1.856-0.448,2.752-0.704C139.776,181.24,139.728,181.384,139.68,181.512z"/>
<g>
	<path style="fill:#8BC540;" d="M337.872,86.456c2.704-3.776,4.32-8.384,4.32-13.392c0-12.704-10.304-23.008-23.008-23.008
		c-2.656,0-5.2,0.48-7.584,1.296c-3.28-8.688-10.72-15.296-19.904-17.408c-0.4-18.624-15.6-33.616-34.32-33.616
		c-14.992,0-27.696,9.616-32.4,22.992c-5.728-5.504-13.488-8.912-22.064-8.912c-17.584,0-31.84,14.256-31.84,31.84
		c0,0.048,0,0.112,0,0.16c-1.072-0.08-2.144-0.16-3.232-0.16c-22.176,0-40.144,17.968-40.144,40.144
		c0,22.016,17.744,39.888,39.712,40.128c4.352,16.608,19.424,28.88,37.408,28.88c12.816,0,24.16-6.256,31.2-15.856
		c4,14.512,17.264,25.2,33.056,25.2c18.96,0,34.32-15.36,34.32-34.32c0-0.112-0.016-0.208-0.016-0.32
		c3.04,1.488,6.448,2.336,10.048,2.336c4.192,0,8.112-1.136,11.504-3.104c3.392,1.968,7.312,3.104,11.504,3.104
		c12.704,0,23.008-10.304,23.008-23.008C359.456,97.176,349.92,87.208,337.872,86.456z"/>
	<path style="fill:#8BC540;" d="M272.416,276.04c3.872-21.296-10.256-41.696-31.552-45.568c-5.136-0.928-10.224-0.8-15.04,0.208
		c-4.16-2.64-8.864-4.56-14.016-5.488c-20.512-3.728-40.16,9.28-45.024,29.28c-10.928,3.152-19.712,12.208-21.888,24.144
		c-0.176-0.032-0.352-0.032-0.512-0.064c0.016-14.656-10.432-27.68-25.36-30.384c-15.392-2.8-30.16,6.336-34.864,20.816
		c-1.84-0.832-3.792-1.472-5.872-1.84c-13.888-2.528-27.2,6.688-29.728,20.592c-2.208,12.112,4.528,23.776,15.488,28.24
		c0.32,11.84,8.88,22.224,20.992,24.432c11.968,2.176,23.504-4.4,28.08-15.152c4.448,7.184,11.776,12.56,20.736,14.176
		c9.648,1.76,19.056-1.2,25.904-7.2c3.824,6,10.032,10.464,17.584,11.84c8.864,1.616,17.488-1.392,23.424-7.296
		c5.216,4.672,11.696,8.032,19.088,9.376c21.296,3.872,41.696-10.256,45.568-31.552c1.28-7.024,0.56-13.952-1.696-20.224
		C268.032,289.304,271.136,283.08,272.416,276.04z"/>
</g>
<path style="fill:#7BA740;" d="M420.736,277.896c2.208-5.024,3.136-10.672,2.368-16.496c-1.296-9.728-6.992-17.76-14.8-22.448
	c3.824-6.32,5.6-13.936,4.56-21.824c-1.52-11.44-8.64-20.768-18.224-25.616c3.632-5.728,5.344-12.688,4.384-19.936
	c-1.872-14.064-13.248-24.512-26.8-25.792c2.08-4.512,2.976-9.616,2.272-14.912c-1.984-14.832-15.6-25.248-30.432-23.28
	c-7.984,1.072-14.672,5.52-18.848,11.712c-5.296-1.968-11.136-2.704-17.136-1.904c-10.848,1.44-19.904,7.632-25.392,16.176
	c-8.736-5.824-19.504-8.672-30.736-7.168c-24.496,3.264-41.712,25.776-38.448,50.288c2.368,17.776,14.88,31.664,30.912,36.736
	c-3.136,4.832-4.656,10.752-3.824,16.912c0.048,0.368,0.144,0.72,0.208,1.088c-10.896,4.8-17.808,16.352-16.16,28.752
	c1.488,11.216,9.552,19.92,19.792,22.8c-3.728,7.04-5.408,15.264-4.272,23.76c2.896,21.728,22.864,36.976,44.576,34.08
	c5.248-0.704,10.112-2.432,14.432-4.912c4.752,5.328,11.792,8.448,19.328,8.048c5.632,4.304,12.88,6.48,20.448,5.472
	c10.352-1.376,18.576-8.304,22.128-17.392c3.792,1.568,8.032,2.208,12.4,1.632c4.192-0.56,7.984-2.176,11.168-4.512
	c6.064,3.952,13.52,5.856,21.264,4.832c17.184-2.288,29.248-18.064,26.96-35.248C431.696,290.104,427.152,282.776,420.736,277.896z
	 M339.504,176.76c0,0.176,0.032,0.352,0.048,0.528c-0.08-0.096-0.16-0.192-0.24-0.288
	C339.376,176.904,339.44,176.824,339.504,176.76z"/>
<g>
	<polygon style="fill:#F29A2E;" points="29.232,511.672 0,511.672 0,396.008 14.624,380.584 29.232,396.008 	"/>
	<polygon style="fill:#F29A2E;" points="82.592,511.672 53.36,511.672 53.36,396.008 67.968,380.584 82.592,396.008 	"/>
	<polygon style="fill:#F29A2E;" points="135.936,511.672 106.704,511.672 106.704,396.008 121.328,380.584 135.936,396.008 	"/>
	<polygon style="fill:#F29A2E;" points="351.936,511.672 322.704,511.672 322.704,396.008 337.312,380.584 351.936,396.008 	"/>
	<polygon style="fill:#F29A2E;" points="405.296,511.672 376.064,511.672 376.064,396.008 390.672,380.584 405.296,396.008 	"/>
	<polygon style="fill:#F29A2E;" points="458.64,511.672 429.408,511.672 429.408,396.008 444.032,380.584 458.64,396.008 	"/>
	<polygon style="fill:#F29A2E;" points="512,511.672 482.768,511.672 482.768,396.008 497.376,380.584 512,396.008 	"/>
</g>
<g>
</g>
<g>
</g>
<g>
</g>
<g>
</g>
<g>
</g>
<g>
</g>
<g>
</g>
<g>
</g>
<g>
</g>
<g>
</g>
<g>
</g>
<g>
</g>
<g>
</g>
<g>
</g>
<g>
</g>
</svg>
