<?xml version="1.0" encoding="iso-8859-1"?>
<!-- Generator: Adobe Illustrator 19.0.0, SVG Export Plug-In . SVG Version: 6.00 Build 0)  -->
<svg version="1.1" id="Capa_1" xmlns="http://www.w3.org/2000/svg" xmlns:xlink="http://www.w3.org/1999/xlink" x="0px" y="0px"
	 viewBox="0 0 512 512" style="enable-background:new 0 0 512 512;" xml:space="preserve">
<path style="fill:#E9B02C;" d="M512,471.752c-53.184-93.968-148.976-156.96-258.736-156.96c-106.032,0-199.12,58.736-253.264,147.44
	v16.352h512V471.752z"/>
<polygon style="fill:#7FB241;" points="186.656,79.224 72.72,323.864 300.592,323.864 "/>
<polygon style="fill:#8BC540;" points="186.656,33.992 92.16,207.496 281.136,207.496 "/>
<rect x="164.448" y="323.864" style="fill:#997960;" width="44.4" height="81.536"/>
<circle style="fill:#FFD93B;" cx="384.64" cy="100.984" r="67.568"/>
<path style="fill:#F4C534;" d="M0,478.568h344.576c-52.32-55.904-150.24-93.632-262.672-93.632c-28.4,0-55.856,2.416-81.904,6.928
	C0,391.864,0,478.568,0,478.568z"/>
<path style="fill:#FFD93B;" d="M512,429.4c-57.856-32.144-134.416-51.776-218.56-51.776c-121.216,0-226.784,40.672-283.2,100.944
	H512V429.4z"/>
<g>
</g>
<g>
</g>
<g>
</g>
<g>
</g>
<g>
</g>
<g>
</g>
<g>
</g>
<g>
</g>
<g>
</g>
<g>
</g>
<g>
</g>
<g>
</g>
<g>
</g>
<g>
</g>
<g>
</g>
</svg>
