<?xml version="1.0" encoding="iso-8859-1"?>
<!-- Generator: Adobe Illustrator 19.0.0, SVG Export Plug-In . SVG Version: 6.00 Build 0)  -->
<svg version="1.1" id="Capa_1" xmlns="http://www.w3.org/2000/svg" xmlns:xlink="http://www.w3.org/1999/xlink" x="0px" y="0px"
	 viewBox="0 0 512 512" style="enable-background:new 0 0 512 512;" xml:space="preserve">
<path style="fill:#9A795F;" d="M325.68,512c-47.12,0-94.256,0-141.376,0c29.76-85.152,35.12-173.472,24.528-258.624
	c30.768,0,61.536,0,92.304,0C290.56,338.528,295.92,426.848,325.68,512z"/>
<path style="fill:#8BC540;" d="M392.16,111.456C368.176,45.712,315.856,0,254.992,0C194.096,0,141.76,45.76,117.776,111.552
	C53.104,112.8,1.04,165.52,1.04,230.496c0,65.76,53.296,119.056,119.056,119.056c14.448,0,28.224-2.704,41.04-7.424
	c25.792,25.968,58.368,41.584,93.856,41.584c35.744,0,68.528-15.824,94.416-42.128c13.216,5.056,27.504,7.952,42.496,7.952
	c65.76,0,119.056-53.296,119.056-119.056C510.96,164.832,457.792,111.584,392.16,111.456z"/>
<g>
	<circle style="fill:#7FB241;" cx="92.992" cy="191.856" r="18.256"/>
	<circle style="fill:#7FB241;" cx="186.96" cy="157.52" r="18.256"/>
	<circle style="fill:#7FB241;" cx="248.88" cy="329.136" r="18.256"/>
	<circle style="fill:#7FB241;" cx="365.008" cy="292.64" r="18.256"/>
	<circle style="fill:#7FB241;" cx="325.68" cy="139.28" r="18.256"/>
	<circle style="fill:#7FB241;" cx="256" cy="236.464" r="18.256"/>
	<circle style="fill:#7FB241;" cx="438.24" cy="214.784" r="18.256"/>
	<circle style="fill:#7FB241;" cx="244.56" cy="47.104" r="18.256"/>
	<circle style="fill:#7FB241;" cx="132.864" cy="301.472" r="18.256"/>
</g>
<g>
</g>
<g>
</g>
<g>
</g>
<g>
</g>
<g>
</g>
<g>
</g>
<g>
</g>
<g>
</g>
<g>
</g>
<g>
</g>
<g>
</g>
<g>
</g>
<g>
</g>
<g>
</g>
<g>
</g>
</svg>
