<?xml version="1.0" encoding="iso-8859-1"?>
<!-- Generator: Adobe Illustrator 19.0.0, SVG Export Plug-In . SVG Version: 6.00 Build 0)  -->
<svg version="1.1" id="Capa_1" xmlns="http://www.w3.org/2000/svg" xmlns:xlink="http://www.w3.org/1999/xlink" x="0px" y="0px"
	 viewBox="0 0 468.304 468.304" style="enable-background:new 0 0 468.304 468.304;" xml:space="preserve">
<rect x="287.149" y="269.963" transform="matrix(-0.7071 0.7071 -0.7071 -0.7071 735.4301 304.6087)" style="fill:#3B566A;" width="34.96" height="69.308"/>
<path style="fill:#1A76A1;" d="M387.579,335.642l69.09,69.09c13.844,13.844,15.466,36.386,2.522,51.076
	c-14.167,16.078-38.686,16.621-53.566,1.741l-70.01-70.01c-12.118-12.118-18.933-28.538-18.934-45.675v-0.316l24.841-24.841h0.348
	C359.015,316.709,375.456,323.519,387.579,335.642z"/>
<path style="fill:#29A1DA;" d="M443.929,391.992l13.627,13.627c14.323,14.323,14.323,37.609,0.001,51.93
	c-14.356,14.356-37.609,14.323-51.931,0l-13.627-13.627L443.929,391.992z"/>
<path style="fill:#4EBD9E;" d="M298.652,298.649c-68.228,68.228-179.245,68.23-247.474,0s-68.229-179.248-0.002-247.476
	c68.231-68.231,179.25-68.231,247.48-0.002S366.884,230.418,298.652,298.649z"/>
<ellipse style="fill:#E0E5E8;" cx="174.914" cy="174.913" rx="148.761" ry="148.761"/>
<path style="fill:#EBEFF2;" d="M66.005,179.867c3.45,35.723,24.755,59.923,18.72,60.506c-6.036,0.583-36.895-25.527-40.345-61.25
	c-3.45-35.723,21.814-67.531,27.85-68.114C78.265,110.425,62.555,144.144,66.005,179.867z"/>
<g>
</g>
<g>
</g>
<g>
</g>
<g>
</g>
<g>
</g>
<g>
</g>
<g>
</g>
<g>
</g>
<g>
</g>
<g>
</g>
<g>
</g>
<g>
</g>
<g>
</g>
<g>
</g>
<g>
</g>
</svg>
