<?xml version="1.0" encoding="iso-8859-1"?>
<!-- Generator: Adobe Illustrator 19.0.0, SVG Export Plug-In . SVG Version: 6.00 Build 0)  -->
<svg version="1.1" id="Capa_1" xmlns="http://www.w3.org/2000/svg" xmlns:xlink="http://www.w3.org/1999/xlink" x="0px" y="0px"
	 viewBox="0 0 512 512" style="enable-background:new 0 0 512 512;" xml:space="preserve">
<rect x="347.296" y="364.72" style="fill:#997960;" width="42.032" height="137.408"/>
<g>
	<path style="fill:#8BC540;" d="M478.192,333.008c0,60.688-49.2,109.888-109.888,109.888s-109.888-49.2-109.888-109.888
		S307.632,0.032,368.304,0.032S478.192,272.32,478.192,333.008z"/>
	<rect y="484.672" style="fill:#8BC540;" width="512" height="27.296"/>
</g>
<g>
	<circle style="fill:#FFD83B;" cx="131.072" cy="131.104" r="84.528"/>
	<path style="fill:#FFD83B;" d="M131.056,35.312c-4.416,0-8-3.584-8-8V8.032c0-4.416,3.584-8,8-8s8,3.584,8,8v19.28
		C139.056,31.728,135.488,35.312,131.056,35.312z"/>
	<path style="fill:#FFD83B;" d="M131.056,262.176c-4.416,0-8-3.584-8-8v-19.264c0-4.416,3.584-8,8-8s8,3.584,8,8v19.264
		C139.056,258.592,135.488,262.176,131.056,262.176z"/>
	<path style="fill:#FFD83B;" d="M198.816,63.36c-3.12-3.12-3.12-8.192,0-11.312l13.632-13.632c3.12-3.12,8.192-3.12,11.312,0
		s3.12,8.192,0,11.312L210.128,63.36C206.992,66.48,201.936,66.48,198.816,63.36z"/>
	<path style="fill:#FFD83B;" d="M38.384,223.776c-3.12-3.12-3.12-8.192,0-11.312l13.632-13.632c3.12-3.12,8.192-3.12,11.312,0
		s3.12,8.192,0,11.312l-13.632,13.632C46.576,226.912,41.52,226.912,38.384,223.776z"/>
	<path style="fill:#FFD83B;" d="M254.144,139.104H234.88c-4.416,0-8-3.584-8-8s3.584-8,8-8h19.264c4.416,0,8,3.584,8,8
		S258.56,139.104,254.144,139.104z"/>
	<path style="fill:#FFD83B;" d="M27.264,139.104H8c-4.416,0-8-3.584-8-8s3.584-8,8-8h19.264c4.416,0,8,3.584,8,8
		S31.68,139.104,27.264,139.104z"/>
	<path style="fill:#FFD83B;" d="M212.432,223.776L198.8,210.144c-3.12-3.12-3.12-8.192,0-11.312s8.192-3.12,11.312,0l13.632,13.632
		c3.12,3.12,3.12,8.192,0,11.312C220.624,226.912,215.568,226.912,212.432,223.776z"/>
	<path style="fill:#FFD83B;" d="M52.016,63.36L38.384,49.728c-3.12-3.12-3.12-8.192,0-11.312s8.192-3.12,11.312,0l13.632,13.632
		c3.12,3.12,3.12,8.192,0,11.312S55.136,66.48,52.016,63.36z"/>
</g>
<g>
</g>
<g>
</g>
<g>
</g>
<g>
</g>
<g>
</g>
<g>
</g>
<g>
</g>
<g>
</g>
<g>
</g>
<g>
</g>
<g>
</g>
<g>
</g>
<g>
</g>
<g>
</g>
<g>
</g>
</svg>
