<?xml version="1.0" encoding="iso-8859-1"?>
<!-- Generator: Adobe Illustrator 19.0.0, SVG Export Plug-In . SVG Version: 6.00 Build 0)  -->
<svg xmlns="http://www.w3.org/2000/svg" xmlns:xlink="http://www.w3.org/1999/xlink" version="1.1" id="Capa_1" x="0px" y="0px" viewBox="0 0 409.6 409.6" style="enable-background:new 0 0 409.6 409.6;" xml:space="preserve">
<path style="fill:#F6C358;" d="M164.096,59.392c0,0,18.944,61.952-20.48,126.976c-28.672,48.128-37.376,120.32-24.064,223.232  h170.496c13.312-102.912,4.608-175.104-24.064-223.232c-38.912-65.024-20.48-126.976-20.48-126.976"/>
<path style="fill:#FCD462;" d="M164.096,59.392c0,0,18.944,61.952-20.48,126.976c-28.672,48.128-37.376,120.32-24.064,223.232  h87.552V59.392H164.096z"/>
<rect x="164.096" y="41.984" style="fill:#FFFFFF;" width="82.432" height="17.92"/>
<rect x="206.592" y="41.984" style="fill:#E1E6E9;" width="39.936" height="17.92"/>
<polygon style="fill:#2D93BA;" points="255.232,13.824 155.392,13.824 164.096,41.984 246.528,41.984 "/>
<polygon style="fill:#27A2DB;" points="206.592,13.824 155.392,13.824 164.096,41.984 206.592,41.984 "/>
<rect x="148.224" style="fill:#3A556A;" width="113.664" height="13.824"/>
<rect x="163.584" y="222.72" style="fill:#FFFFFF;" width="89.6" height="120.32"/>
<rect x="207.104" y="222.72" style="fill:#E1E6E9;" width="46.592" height="120.32"/>
<g>
</g>
<g>
</g>
<g>
</g>
<g>
</g>
<g>
</g>
<g>
</g>
<g>
</g>
<g>
</g>
<g>
</g>
<g>
</g>
<g>
</g>
<g>
</g>
<g>
</g>
<g>
</g>
<g>
</g>
</svg>
