<?xml version="1.0" encoding="iso-8859-1"?>
<!-- Generator: Adobe Illustrator 19.0.0, SVG Export Plug-In . SVG Version: 6.00 Build 0)  -->
<svg version="1.1" id="Capa_1" xmlns="http://www.w3.org/2000/svg" xmlns:xlink="http://www.w3.org/1999/xlink" x="0px" y="0px"
	 viewBox="0 0 468.293 468.293" style="enable-background:new 0 0 468.293 468.293;" xml:space="preserve">
<g>
	<path style="fill:#E1E6E9;" d="M438.946,175.766l-58.693-58.693l-62.439,62.439c-9.366-6.868-19.356-13.112-29.971-17.483V70.244
		h-108.02v92.41c-10.615,4.371-20.605,10.615-29.971,17.483l-62.439-62.439L28.722,176.39l72.429,72.429
		c-4.371,13.737-6.868,28.098-6.868,43.707c0,77.424,62.439,139.863,139.863,139.863S374.01,369.951,374.01,292.527
		c0-14.985-2.498-29.971-6.868-43.707L438.946,175.766z"/>
	<path style="fill:#E1E6E9;" d="M295.961,35.902H172.332c-3.746,0-6.244,2.498-6.244,6.244v28.098c0,3.746,2.498,6.244,6.244,6.244
		h123.005c3.746,0,6.244-2.498,6.244-6.244V42.146C302.205,39.024,299.083,35.902,295.961,35.902z"/>
</g>
<rect x="179.824" y="76.488" style="fill:#D5D6DB;" width="108.02" height="27.473"/>
<path style="fill:#E1E6E9;" d="M441.444,184.507l-68.059-68.683c-2.498-2.498-2.498-6.244,0-8.741l16.234-16.234
	c2.498-2.498,6.244-2.498,8.741,0l68.059,68.059c2.498,2.498,2.498,6.244,0,8.741l-16.234,16.234
	C447.688,187.005,443.941,187.005,441.444,184.507z"/>
<rect x="389.016" y="115.574" transform="matrix(-0.7071 0.7071 -0.7071 -0.7071 793.296 -14.4023)" style="fill:#D5D6DB;" width="21.229" height="83.043"/>
<path style="fill:#E1E6E9;" d="M26.849,184.507l68.059-68.059c2.498-2.498,2.498-6.244,0-8.741L78.673,91.473
	c-2.498-2.498-6.244-2.498-8.741,0L1.873,159.532c-2.498,2.498-2.498,6.244,0,8.741l16.234,16.234
	C20.605,187.005,24.351,187.005,26.849,184.507z"/>
<rect x="27.362" y="146.447" transform="matrix(-0.7071 0.7071 -0.7071 -0.7071 228.6506 219.4139)" style="fill:#D5D6DB;" width="83.043" height="21.229"/>
<path style="fill:#27A2DB;" d="M358.4,291.902c0,68.683-55.571,124.254-124.254,124.254s-124.254-55.571-124.254-124.254
	c0-16.859,3.746-33.717,9.99-48.702c6.244-14.985,32.468-12.488,45.58-3.746c3.746,2.498,6.868,5.62,11.239,6.244
	c6.868,0.624,11.863-4.995,17.483-8.741c11.239-8.117,27.473-8.741,39.337-1.873c0.624,0.624,1.249,0.624,1.873,1.249
	c9.366,5.62,16.234,15.61,26.849,17.483c9.366,1.873,18.732-3.122,26.849-8.117c8.117-5.62,15.61-11.863,24.976-13.112
	c11.863-1.873,23.727,4.371,33.717,11.239C354.654,258.185,358.4,274.42,358.4,291.902z"/>
<g>
	<circle style="fill:#2D93BA;" cx="321.561" cy="311.883" r="15.61"/>
	<circle style="fill:#2D93BA;" cx="271.61" cy="359.337" r="15.61"/>
	<circle style="fill:#2D93BA;" cx="265.99" cy="283.785" r="15.61"/>
	<circle style="fill:#2D93BA;" cx="146.732" cy="311.883" r="15.61"/>
	<circle style="fill:#2D93BA;" cx="196.683" cy="359.337" r="15.61"/>
	<circle style="fill:#2D93BA;" cx="202.302" cy="283.785" r="15.61"/>
</g>
<g>
</g>
<g>
</g>
<g>
</g>
<g>
</g>
<g>
</g>
<g>
</g>
<g>
</g>
<g>
</g>
<g>
</g>
<g>
</g>
<g>
</g>
<g>
</g>
<g>
</g>
<g>
</g>
<g>
</g>
</svg>
