<?xml version="1.0" encoding="iso-8859-1"?>
<!-- Generator: Adobe Illustrator 19.0.0, SVG Export Plug-In . SVG Version: 6.00 Build 0)  -->
<svg version="1.1" id="Capa_1" xmlns="http://www.w3.org/2000/svg" xmlns:xlink="http://www.w3.org/1999/xlink" x="0px" y="0px"
	 viewBox="0 0 468.293 468.293" style="enable-background:new 0 0 468.293 468.293;" xml:space="preserve">
<rect x="10.296" y="169.828" style="fill:#27A2DB;" width="447.688" height="298.465"/>
<path style="fill:#E56353;" d="M398.241,122.024l-48.292-38.622L254.716,7.216c-12.027-9.622-29.116-9.622-41.143,0L118.34,83.402
	l-48.291,38.622l-59.753,47.814l59.753,50.977l131.384,112.105c9.431,8.058,21.072,12.058,32.712,12.058s23.28-4,32.712-12.058
	l131.384-112.105l59.753-50.977L398.241,122.024z"/>
<path style="fill:#EBF0F3;" d="M398.241,72.259v148.556L266.857,332.919c-9.432,8.059-21.072,12.058-32.712,12.058
	c-11.64,0-23.28-3.999-32.712-12.058L70.049,220.816V72.259c0-7.033,5.701-12.734,12.734-12.734h302.724
	C392.54,59.525,398.241,65.227,398.241,72.259z"/>
<path style="fill:#2D93BA;" d="M264.805,293.131c-17.395-15.771-43.919-15.771-61.314,0L10.299,468.293h223.849h223.849
	L264.805,293.131z"/>
<g>
	<rect x="145.065" y="96.968" style="fill:#D5D6DB;" width="178.157" height="12.731"/>
	<rect x="109.893" y="141.674" style="fill:#D5D6DB;" width="248.445" height="12.731"/>
	<rect x="109.893" y="186.38" style="fill:#D5D6DB;" width="248.445" height="12.731"/>
	<rect x="145.065" y="231.131" style="fill:#D5D6DB;" width="178.157" height="12.731"/>
</g>
<g>
</g>
<g>
</g>
<g>
</g>
<g>
</g>
<g>
</g>
<g>
</g>
<g>
</g>
<g>
</g>
<g>
</g>
<g>
</g>
<g>
</g>
<g>
</g>
<g>
</g>
<g>
</g>
<g>
</g>
</svg>
