<?xml version="1.0" encoding="iso-8859-1"?>
<!-- Generator: Adobe Illustrator 19.0.0, SVG Export Plug-In . SVG Version: 6.00 Build 0)  -->
<svg version="1.1" id="Capa_1" xmlns="http://www.w3.org/2000/svg" xmlns:xlink="http://www.w3.org/1999/xlink" x="0px" y="0px"
	 viewBox="0 0 468.293 468.293" style="enable-background:new 0 0 468.293 468.293;" xml:space="preserve">
<path style="fill:#E1E6E9;" d="M102.879,68.298H18.742v-24.59C18.742,19.568,38.31,0,62.449,0h20.504
	c11.004,0,19.925,8.921,19.925,19.925V68.298z"/>
<path style="fill:#D5D6DB;" d="M397.007,468.293H108.83c-24.139,0-43.707-19.568-43.707-43.707V0H353.3
	c24.139,0,43.707,19.568,43.707,43.707V468.293z"/>
<path style="fill:#E1E6E9;" d="M402.224,468.293c26.138,0,47.326-21.189,47.326-47.326v-35.495H148.38v35.495
	c0,26.138-21.189,47.326-47.326,47.326H402.224z"/>
<g>
	<rect x="296.267" y="86.378" style="fill:#EBF0F3;" width="53.916" height="20.455"/>
	<rect x="296.267" y="132.102" style="fill:#EBF0F3;" width="53.916" height="20.455"/>
	<rect x="296.267" y="177.826" style="fill:#EBF0F3;" width="53.916" height="20.455"/>
	<rect x="296.267" y="223.532" style="fill:#EBF0F3;" width="53.916" height="20.455"/>
	<rect x="296.267" y="269.268" style="fill:#EBF0F3;" width="53.916" height="20.455"/>
	<rect x="296.267" y="314.992" style="fill:#EBF0F3;" width="53.916" height="20.455"/>
	<rect x="111.947" y="86.378" style="fill:#EBF0F3;" width="150.79" height="20.455"/>
	<rect x="111.947" y="132.102" style="fill:#EBF0F3;" width="150.79" height="20.455"/>
	<rect x="111.947" y="177.826" style="fill:#EBF0F3;" width="150.79" height="20.455"/>
	<rect x="111.947" y="223.532" style="fill:#EBF0F3;" width="150.79" height="20.455"/>
	<rect x="111.947" y="269.268" style="fill:#EBF0F3;" width="150.79" height="20.455"/>
	<rect x="111.947" y="314.992" style="fill:#EBF0F3;" width="150.79" height="20.455"/>
</g>
<g>
</g>
<g>
</g>
<g>
</g>
<g>
</g>
<g>
</g>
<g>
</g>
<g>
</g>
<g>
</g>
<g>
</g>
<g>
</g>
<g>
</g>
<g>
</g>
<g>
</g>
<g>
</g>
<g>
</g>
</svg>
