<?xml version="1.0" encoding="iso-8859-1"?>
<!-- Generator: Adobe Illustrator 19.0.0, SVG Export Plug-In . SVG Version: 6.00 Build 0)  -->
<svg version="1.1" id="Capa_1" xmlns="http://www.w3.org/2000/svg" xmlns:xlink="http://www.w3.org/1999/xlink" x="0px" y="0px"
	 viewBox="0 0 468.293 468.293" style="enable-background:new 0 0 468.293 468.293;" xml:space="preserve">
<path style="fill:#E0E5E8;" d="M255.207,234.146c63.72-18.993,112.439-120.331,112.439-196.198H100.647
	c0,75.867,48.718,177.205,112.438,196.198c-63.72,18.993-112.438,120.332-112.438,196.198h266.998
	C367.646,354.477,318.927,253.138,255.207,234.146z"/>
<g>
	<path style="fill:#DA8542;" d="M220.316,209.893l1.004,0.299c8.369,2.494,17.285,2.494,25.654,0l1.004-0.299
		c29.695-8.853,56.045-42.158,73.317-81.188H146.999C164.271,167.734,190.62,201.04,220.316,209.893z"/>
	<path style="fill:#DA8542;" d="M130.997,390.597l-3.145,21.826h212.591l-3.145-21.826c-4.039-28.028-28.055-48.831-56.372-48.831
		h-93.556C159.052,341.766,135.035,362.57,130.997,390.597z"/>
</g>
<g>
	<path style="fill:#D4D5DB;" d="M364.674,37.948H103.619c-6.897,0-12.488-5.591-12.488-12.488V12.488
		C91.131,5.591,96.722,0,103.619,0h261.055c6.897,0,12.488,5.591,12.488,12.488v12.973
		C377.162,32.357,371.571,37.948,364.674,37.948z"/>
	<path style="fill:#D4D5DB;" d="M364.674,468.293H103.619c-6.897,0-12.488-5.591-12.488-12.488v-12.973
		c0-6.897,5.591-12.488,12.488-12.488h261.055c6.897,0,12.488,5.591,12.488,12.488v12.973
		C377.162,462.702,371.571,468.293,364.674,468.293z"/>
</g>
<rect x="222.096" y="199.911" style="fill:#DA8542;" width="24.151" height="177.183"/>
<g>
</g>
<g>
</g>
<g>
</g>
<g>
</g>
<g>
</g>
<g>
</g>
<g>
</g>
<g>
</g>
<g>
</g>
<g>
</g>
<g>
</g>
<g>
</g>
<g>
</g>
<g>
</g>
<g>
</g>
</svg>
