<?xml version="1.0" encoding="iso-8859-1"?>
<!-- Generator: Adobe Illustrator 19.0.0, SVG Export Plug-In . SVG Version: 6.00 Build 0)  -->
<svg version="1.1" id="Capa_1" xmlns="http://www.w3.org/2000/svg" xmlns:xlink="http://www.w3.org/1999/xlink" x="0px" y="0px"
	 viewBox="0 0 468.293 468.293" style="enable-background:new 0 0 468.293 468.293;" xml:space="preserve">
<path style="fill:#64798A;" d="M419.393,94.556H48.9c-10.345,0-18.732-8.386-18.732-18.732V18.732C30.168,8.386,38.555,0,48.9,0
	h370.493c10.345,0,18.732,8.386,18.732,18.732v57.092C438.124,86.169,429.738,94.556,419.393,94.556z"/>
<path style="fill:#E1E6E9;" d="M57.375,94.556h353.543c15.502,15.502,24.193,24.193,39.694,39.694v294.348
	c-15.502,15.502-24.193,24.193-39.694,39.694H57.375C41.873,452.791,33.182,444.1,17.68,428.598V134.25
	C33.182,118.748,41.873,110.057,57.375,94.556z"/>
<path style="fill:#E56353;" d="M393.744,226.638c-11.08,0-20.848-5.613-26.616-14.151c-2.693-3.986-8.27-3.986-10.963,0
	c-5.768,8.538-15.536,14.151-26.616,14.151c-11.08,0-20.848-5.613-26.616-14.151c-2.693-3.986-8.27-3.986-10.963,0
	c-5.768,8.538-15.536,14.151-26.616,14.151c-11.08,0-20.848-5.613-26.616-14.151c-2.693-3.986-8.27-3.986-10.963,0
	c-5.768,8.538-15.536,14.151-26.616,14.151c-11.08,0-20.848-5.613-26.616-14.151c-2.693-3.986-8.27-3.986-10.963,0
	c-5.768,8.538-15.536,14.151-26.616,14.151c-10.735,0-20.207-5.283-26.015-13.385c-2.574-3.59-7.811-3.59-10.385,0
	c-5.808,8.102-15.28,13.385-26.015,13.385c-7.815,0-14.959-2.8-20.509-7.448c-4.262-3.57-10.698-0.818-10.698,4.741v192.954
	l25.754,25.748h330.101l25.754-25.748V223.932c0-5.56-6.436-8.311-10.698-4.741C408.703,223.839,401.558,226.638,393.744,226.638z"
	/>
<g>
	<path style="fill:#D5D6DB;" d="M87.327,76.927c-3.451,0-6.244-2.793-6.244-6.244V23.872c0-3.451,2.793-6.244,6.244-6.244
		s6.244,2.793,6.244,6.244v46.811C93.571,74.134,90.779,76.927,87.327,76.927z"/>
	<path style="fill:#D5D6DB;" d="M119.954,76.927c-3.451,0-6.244-2.793-6.244-6.244V23.872c0-3.451,2.793-6.244,6.244-6.244
		s6.244,2.793,6.244,6.244v46.811C126.198,74.134,123.405,76.927,119.954,76.927z"/>
	<path style="fill:#D5D6DB;" d="M152.58,76.927c-3.451,0-6.244-2.793-6.244-6.244V23.872c0-3.451,2.793-6.244,6.244-6.244
		s6.244,2.793,6.244,6.244v46.811C158.824,74.134,156.031,76.927,152.58,76.927z"/>
	<path style="fill:#D5D6DB;" d="M185.207,76.927c-3.451,0-6.244-2.793-6.244-6.244V23.872c0-3.451,2.793-6.244,6.244-6.244
		s6.244,2.793,6.244,6.244v46.811C191.451,74.134,188.658,76.927,185.207,76.927z"/>
	<path style="fill:#D5D6DB;" d="M217.833,76.927c-3.451,0-6.244-2.793-6.244-6.244V23.872c0-3.451,2.793-6.244,6.244-6.244
		c3.451,0,6.244,2.793,6.244,6.244v46.811C224.077,74.134,221.284,76.927,217.833,76.927z"/>
	<path style="fill:#D5D6DB;" d="M250.46,76.927c-3.451,0-6.244-2.793-6.244-6.244V23.872c0-3.451,2.793-6.244,6.244-6.244
		s6.244,2.793,6.244,6.244v46.811C256.703,74.134,253.911,76.927,250.46,76.927z"/>
	<path style="fill:#D5D6DB;" d="M283.086,76.927c-3.451,0-6.244-2.793-6.244-6.244V23.872c0-3.451,2.793-6.244,6.244-6.244
		c3.451,0,6.244,2.793,6.244,6.244v46.811C289.33,74.134,286.537,76.927,283.086,76.927z"/>
	<path style="fill:#D5D6DB;" d="M315.712,76.927c-3.451,0-6.244-2.793-6.244-6.244V23.872c0-3.451,2.793-6.244,6.244-6.244
		c3.451,0,6.244,2.793,6.244,6.244v46.811C321.956,74.134,319.164,76.927,315.712,76.927z"/>
	<path style="fill:#D5D6DB;" d="M348.339,76.927c-3.451,0-6.244-2.793-6.244-6.244V23.872c0-3.451,2.793-6.244,6.244-6.244
		c3.451,0,6.244,2.793,6.244,6.244v46.811C354.583,74.134,351.79,76.927,348.339,76.927z"/>
	<path style="fill:#D5D6DB;" d="M380.965,76.927c-3.451,0-6.244-2.793-6.244-6.244V23.872c0-3.451,2.793-6.244,6.244-6.244
		s6.244,2.793,6.244,6.244v46.811C387.209,74.134,384.417,76.927,380.965,76.927z"/>
</g>
<g>
</g>
<g>
</g>
<g>
</g>
<g>
</g>
<g>
</g>
<g>
</g>
<g>
</g>
<g>
</g>
<g>
</g>
<g>
</g>
<g>
</g>
<g>
</g>
<g>
</g>
<g>
</g>
<g>
</g>
</svg>
