<?xml version="1.0" encoding="iso-8859-1"?>
<!-- Generator: Adobe Illustrator 19.0.0, SVG Export Plug-In . SVG Version: 6.00 Build 0)  -->
<svg version="1.1" id="Capa_1" xmlns="http://www.w3.org/2000/svg" xmlns:xlink="http://www.w3.org/1999/xlink" x="0px" y="0px"
	 viewBox="0 0 468.293 468.293" style="enable-background:new 0 0 468.293 468.293;" xml:space="preserve">
<path style="fill:#64798A;" d="M32.554,350.227V73.104c0-6.897,5.591-12.488,12.488-12.488h378.207
	c6.897,0,12.488,5.591,12.488,12.488v277.122H32.554z"/>
<rect x="49.589" y="77.649" style="fill:#E1E6E9;" width="369.139" height="255.538"/>
<path style="fill:#3A556A;" d="M468.293,350.227H0v0c0,31.728,25.721,57.449,57.449,57.449h353.394
	C442.572,407.676,468.293,381.955,468.293,350.227L468.293,350.227z"/>
<circle style="fill:#44C4A1;" cx="70.906" cy="378.942" r="13.424"/>
<circle style="fill:#FCD462;" cx="116.324" cy="378.942" r="13.424"/>
<path style="fill:#64798A;" d="M326.242,205.416c0-16.381-27.799-26.683-61.578-30.515c-3.832-33.777-14.136-61.576-30.517-61.576
	c-16.384,0-26.689,27.799-30.52,61.579c-33.78,3.829-61.581,14.137-61.581,30.518s27.801,26.686,61.581,30.518
	c3.831,33.78,14.136,61.579,30.52,61.579c16.382,0,26.686-27.799,30.517-61.582C298.445,232.102,326.242,221.797,326.242,205.416z
	 M234.148,122.69c7.397,0,17.031,18.96,21.006,51.317c-6.909-0.521-13.956-0.817-21.009-0.817c-7.052,0-14.098,0.296-21.006,0.817
	C217.114,141.651,226.749,122.69,234.148,122.69z M257.011,205.422c0,7.817-0.34,15.11-0.899,21.963
	c-6.855,0.561-14.15,0.902-21.967,0.902c-7.816,0-15.109-0.341-21.963-0.899c-0.559-6.854-0.899-14.149-0.899-21.966
	s0.341-15.113,0.899-21.966c6.854-0.558,14.147-0.899,21.963-0.899c7.817,0,15.111,0.341,21.966,0.899
	C256.67,190.312,257.011,197.605,257.011,205.422z M151.413,205.422c0-7.399,18.961-17.034,51.32-21.009
	c-0.522,6.909-0.817,13.954-0.817,21.009c0,7.055,0.295,14.101,0.817,21.009C170.374,222.455,151.413,212.821,151.413,205.422z
	 M234.148,288.154c-7.399,0-17.034-18.96-21.009-51.317c6.908,0.521,13.954,0.817,21.006,0.817c7.054,0,14.101-0.296,21.01-0.82
	C251.18,269.19,241.545,288.154,234.148,288.154z M265.56,226.428c0.522-6.909,0.817-13.954,0.817-21.006
	c0-7.055-0.295-14.101-0.817-21.009c32.357,3.976,51.317,13.61,51.317,21.003C316.877,212.815,297.915,222.449,265.56,226.428z"/>
<circle style="fill:#E56353;" cx="234.146" cy="119.171" r="15.597"/>
<path style="fill:#E1E6E9;" d="M229.258,114.982c-2.934,3.058-4.013,6.783-5.021,5.816c-1.008-0.967-1.562-6.259,1.372-9.316
	c2.934-3.058,8.246-2.723,9.253-1.757C235.869,110.691,232.191,111.924,229.258,114.982z"/>
<circle style="fill:#E56353;" cx="234.146" cy="291.653" r="15.597"/>
<path style="fill:#E1E6E9;" d="M229.258,287.487c-2.934,3.058-4.013,6.783-5.021,5.816c-1.008-0.967-1.562-6.259,1.372-9.316
	c2.934-3.058,8.246-2.723,9.253-1.757C235.869,283.197,232.191,284.429,229.258,287.487z"/>
<circle style="fill:#27A2DB;" cx="147.419" cy="205.418" r="15.597"/>
<path style="fill:#E1E6E9;" d="M142.533,201.231c-2.934,3.058-4.013,6.783-5.021,5.816c-1.008-0.967-1.562-6.259,1.372-9.316
	c2.934-3.058,8.246-2.723,9.253-1.757C149.144,196.941,145.467,198.174,142.533,201.231z"/>
<circle style="fill:#27A2DB;" cx="320.868" cy="205.418" r="15.597"/>
<path style="fill:#E1E6E9;" d="M315.982,201.231c-2.934,3.058-4.013,6.783-5.021,5.816c-1.008-0.967-1.562-6.259,1.372-9.316
	c2.934-3.058,8.246-2.723,9.253-1.757C322.594,196.941,318.916,198.174,315.982,201.231z"/>
<g>
</g>
<g>
</g>
<g>
</g>
<g>
</g>
<g>
</g>
<g>
</g>
<g>
</g>
<g>
</g>
<g>
</g>
<g>
</g>
<g>
</g>
<g>
</g>
<g>
</g>
<g>
</g>
<g>
</g>
</svg>
