<?xml version="1.0" encoding="iso-8859-1"?>
<!-- Generator: Adobe Illustrator 19.0.0, SVG Export Plug-In . SVG Version: 6.00 Build 0)  -->
<svg version="1.1" id="Capa_1" xmlns="http://www.w3.org/2000/svg" xmlns:xlink="http://www.w3.org/1999/xlink" x="0px" y="0px"
	 viewBox="0 0 468.69 468.69" style="enable-background:new 0 0 468.69 468.69;" xml:space="preserve">
<path style="fill:#E1E6E9;" d="M361.803,207.668l106.689-123.3L456.724,72.6L340.632,188.691l-13.518-13.518L443.205,59.081
	l-10.139-10.139L316.975,165.033l-13.518-13.518L419.548,35.424l-10.139-10.139L293.317,141.376l-13.518-13.518L395.891,11.767
	L384.124,0L260.822,106.687c-14.69,12.711-15.503,35.221-1.766,48.958l53.789,53.789
	C326.582,223.171,349.092,222.358,361.803,207.668z"/>
<path style="fill:#D5D6DB;" d="M139.187,358.747l161.487-161.485l-29.446-29.446L109.741,329.301
	c-17.968,17.967-41.099,29.635-65.95,33.52c-10.094,1.578-19.567,5.863-26.791,13.087l-0.254,0.254
	c-20.128,20.127-22.514,52.891-3.729,74.277c20.584,23.435,56.311,24.301,78.014,2.598l1.549-1.549
	c7.224-7.224,11.509-16.697,13.087-26.791C109.551,399.846,121.219,376.715,139.187,358.747z"/>
<path style="fill:#E1E6E9;" d="M48.754,388.712c-17.34,5.417-29.316,14.56-30.516,10.721c-1.2-3.839,10.621-16.104,27.961-21.521
	c17.34-5.417,33.635-1.936,34.834,1.904C82.233,383.655,66.094,383.295,48.754,388.712z"/>
<g>
</g>
<g>
</g>
<g>
</g>
<g>
</g>
<g>
</g>
<g>
</g>
<g>
</g>
<g>
</g>
<g>
</g>
<g>
</g>
<g>
</g>
<g>
</g>
<g>
</g>
<g>
</g>
<g>
</g>
</svg>
