<?xml version="1.0" encoding="iso-8859-1"?>
<!-- Generator: Adobe Illustrator 19.0.0, SVG Export Plug-In . SVG Version: 6.00 Build 0)  -->
<svg version="1.1" id="Capa_1" xmlns="http://www.w3.org/2000/svg" xmlns:xlink="http://www.w3.org/1999/xlink" x="0px" y="0px"
	 viewBox="0 0 468.293 468.293" style="enable-background:new 0 0 468.293 468.293;" xml:space="preserve">
<path style="fill:#4EBD9E;" d="M468.293,220.553c0-89.048-104.831-161.236-234.146-161.236S0,131.504,0,220.553
	s104.831,161.236,234.146,161.236c34.97,0,68.119-5.317,97.918-14.78l67.524,41.967l-7.15-69.636
	C439.055,309.867,468.293,267.566,468.293,220.553z"/>
<path style="fill:#3CA59A;" d="M468.293,220.553c0-15.802-3.36-31.056-9.512-45.487c2.112,8.707,3.268,17.636,3.268,26.755
	c0,47.014-29.238,89.315-75.855,118.787l7.151,69.636l-67.524-41.967c-29.799,9.463-62.948,14.78-97.918,14.78
	c-106.369,0-196.113-48.857-224.634-115.748c18.515,76.308,114.805,134.48,230.878,134.48c34.97,0,68.119-5.317,97.918-14.78
	l67.524,41.967l-7.151-69.636C439.055,309.867,468.293,267.566,468.293,220.553z"/>
<path style="fill:#FAD362;" d="M208.33,238.147c12.941,12.941,27.563,24.899,37.556,32.073c6.305,4.526,14.951,3.817,20.439-1.671
	l15.348-15.348c2.286-2.286,5.677-3.049,8.72-1.957c11.687,4.195,30.555,6.946,40.678,8.205c4.027,0.501,7.101,3.816,7.308,7.868
	l1.896,37.097c0.395,7.723-5.812,14.201-13.544,14.061c-23.426-0.423-75.679-6.864-133.772-64.957s-64.534-110.346-64.957-133.772
	c-0.14-7.731,6.338-13.938,14.061-13.544l37.097,1.896c4.052,0.207,7.368,3.282,7.868,7.309c1.259,10.123,4.01,28.991,8.205,40.678
	c1.092,3.043,0.329,6.434-1.957,8.72l-15.348,15.348c-5.488,5.488-6.197,14.134-1.671,20.438
	C183.431,210.584,195.389,225.206,208.33,238.147z"/>
<g>
</g>
<g>
</g>
<g>
</g>
<g>
</g>
<g>
</g>
<g>
</g>
<g>
</g>
<g>
</g>
<g>
</g>
<g>
</g>
<g>
</g>
<g>
</g>
<g>
</g>
<g>
</g>
<g>
</g>
</svg>
