<?xml version="1.0" encoding="iso-8859-1"?>
<!-- Generator: Adobe Illustrator 19.0.0, SVG Export Plug-In . SVG Version: 6.00 Build 0)  -->
<svg version="1.1" id="Capa_1" xmlns="http://www.w3.org/2000/svg" xmlns:xlink="http://www.w3.org/1999/xlink" x="0px" y="0px"
	 viewBox="0 0 468.293 468.293" style="enable-background:new 0 0 468.293 468.293;" xml:space="preserve">
<path style="fill:#1C75A1;" d="M331.269,468.293H137.023c-10.891,0-17.541-11.969-11.789-21.217l44.059-84.712h129.705
	l44.059,84.712C348.811,456.324,342.161,468.293,331.269,468.293z"/>
<path style="fill:#E1E6E9;" d="M376.991,241.193c0,101.901-63.954,127.823-142.845,127.823S91.301,343.094,91.301,241.193
	S155.255,0,234.146,0S376.991,139.292,376.991,241.193z"/>
<path style="fill:#2D93BA;" d="M398.248,246.091c0,11.316-1.596,22.283-4.581,32.765c-17.424,60.809-82.19,106.069-159.52,106.069
	c-77.331,0-142.097-45.259-159.521-106.069c-2.985-10.482-4.581-21.45-4.581-32.765H398.248z"/>
<path style="fill:#EBF0F3;" d="M164.524,137.988c-0.515,0-1.037-0.054-1.563-0.176c-3.735-0.861-6.067-4.583-5.21-8.318
	c15.883-69.092,69.387-91.679,71.657-92.608c3.562-1.444,7.599,0.251,9.053,3.803c1.447,3.539-0.247,7.586-3.783,9.043l0,0
	c-2.003,0.827-49.182,21.042-63.397,82.867C170.544,135.811,167.687,137.988,164.524,137.988z"/>
<path style="fill:#27A2DB;" d="M398.248,246.091c0,11.316-1.596,22.283-4.581,32.765H74.626c-2.985-10.482-4.581-21.45-4.581-32.765
	H398.248z"/>
<path style="fill:#2D93BA;" d="M331.269,454.409H137.023c-5.34,0-9.634-2.895-11.973-6.919c-5.316,9.188,1.24,20.802,11.973,20.802
	h194.246c10.733,0,17.289-11.614,11.973-20.802C340.904,451.515,336.61,454.409,331.269,454.409z"/>
<g>
</g>
<g>
</g>
<g>
</g>
<g>
</g>
<g>
</g>
<g>
</g>
<g>
</g>
<g>
</g>
<g>
</g>
<g>
</g>
<g>
</g>
<g>
</g>
<g>
</g>
<g>
</g>
<g>
</g>
</svg>
