<?xml version="1.0" encoding="iso-8859-1"?>
<!-- Generator: Adobe Illustrator 19.0.0, SVG Export Plug-In . SVG Version: 6.00 Build 0)  -->
<svg version="1.1" id="Capa_1" xmlns="http://www.w3.org/2000/svg" xmlns:xlink="http://www.w3.org/1999/xlink" x="0px" y="0px"
	 viewBox="0 0 468.293 468.293" style="enable-background:new 0 0 468.293 468.293;" xml:space="preserve">
<path style="fill:#E56354;" d="M234.146,0c0,0-52.41,74.367-186.21,64.771v189.417c0,104.231,74.083,195.104,176.828,212.641
	c3.076,0.525,6.203,1.013,9.382,1.463c3.179-0.45,6.306-0.938,9.382-1.463c102.745-17.537,176.828-108.411,176.828-212.641V64.771
	C286.556,74.367,234.146,0,234.146,0z"/>
<path style="fill:#FAD362;" d="M371.512,236.992c0,34.525-12.693,65.947-33.678,90.092c-25.16,28.941-62.28,47.275-103.687,47.275
	c-41.407,0-78.527-18.334-103.687-47.275c-20.986-24.145-33.678-55.567-33.678-90.092c0-75.875,61.49-137.366,137.366-137.366
	S371.512,161.117,371.512,236.992z"/>
<g>
	<path style="fill:#DA8542;" d="M337.834,327.084c-25.16,28.941-62.28,47.275-103.687,47.275
		c-41.407,0-78.527-18.334-103.687-47.275c6.713-51.279,50.603-90.825,103.687-90.825
		C287.231,236.259,331.121,275.804,337.834,327.084z"/>
	<circle style="fill:#DA8542;" cx="234.146" cy="198.993" r="42.946"/>
</g>
<g>
</g>
<g>
</g>
<g>
</g>
<g>
</g>
<g>
</g>
<g>
</g>
<g>
</g>
<g>
</g>
<g>
</g>
<g>
</g>
<g>
</g>
<g>
</g>
<g>
</g>
<g>
</g>
<g>
</g>
</svg>
