<?xml version="1.0" encoding="iso-8859-1"?>
<!-- Generator: Adobe Illustrator 19.0.0, SVG Export Plug-In . SVG Version: 6.00 Build 0)  -->
<svg version="1.1" id="Capa_1" xmlns="http://www.w3.org/2000/svg" xmlns:xlink="http://www.w3.org/1999/xlink" x="0px" y="0px"
	 viewBox="0 0 468.293 468.293" style="enable-background:new 0 0 468.293 468.293;" xml:space="preserve">
<path style="fill:#EBF0F3;" d="M380.635,0H48.021l38.768,43.895v387.646c0,20.297,16.453,36.75,36.75,36.75h293.846V36.75
	C417.384,16.455,400.931,0,380.635,0z"/>
<g>
	<path style="fill:#D5D6DB;" d="M49.343,0C28.662,0,11.896,16.767,11.896,37.448v26.265h74.893V37.448
		C86.789,16.767,70.024,0,49.343,0z"/>
	<path style="fill:#D5D6DB;" d="M159.265,404.58v26.265c0,20.681-16.765,37.448-37.446,37.448H418.95
		c20.681,0,37.446-16.767,37.446-37.448V404.58H159.265z"/>
</g>
<path style="fill:#FCD462;" d="M379.038,283.384v10.302c-0.074,0.356-0.146,0.701-0.221,1.057l-17.824,40.839l-7.451,17.091
	c-2.179,4.998-9.268,4.998-11.447,0l-7.451-17.091l-17.824-40.839c-0.074-0.356-0.146-0.701-0.221-1.057v-10.302H379.038z"/>
<path style="fill:#27A2DB;" d="M379.038,111.802v181.884c0,2.809-3.809,3.684-4.995,1.186c-1.686-3.372-3.309-6.992-5.432-6.992
	c-3.871,0-6.057,11.239-9.74,12.363c-0.188,0.063-0.437,0.125-0.625,0.125c-4.058,0-6.369-12.488-10.427-12.488
	c-4.058,0-6.369,12.488-10.427,12.488c-0.188,0-0.437-0.063-0.625-0.125c-3.684-1.123-5.869-12.363-9.74-12.363
	c-2.06,0-3.746,3.62-5.37,6.992c-1.249,2.498-5.058,1.623-5.058-1.186V111.802H379.038z"/>
<path style="fill:#1C75A1;" d="M360.993,335.582l-7.451,17.091c-2.179,4.998-9.268,4.998-11.447,0l-7.451-17.091
	c3.684-2.747,8.242-4.37,13.175-4.37S357.309,332.835,360.993,335.582z"/>
<path style="fill:#2D93BA;" d="M358.87,111.802v188.441c-0.188,0.063-0.437,0.125-0.625,0.125c-4.058,0-6.369-12.488-10.427-12.488
	c-4.058,0-6.369,12.488-10.427,12.488c-0.188,0-0.437-0.063-0.625-0.125V111.802H358.87z"/>
<rect x="316.628" y="98.71" style="fill:#44C4A1;" width="62.439" height="13.093"/>
<path style="fill:#E56353;" d="M379.038,98.711h-62.439V60.169c0-6.634,5.378-12.012,12.012-12.012h38.415
	c6.634,0,12.012,5.378,12.012,12.012V98.711z"/>
<g>
	<rect x="124.716" y="73.285" style="fill:#D5D6DB;" width="153.538" height="12.488"/>
	<rect x="124.716" y="122.38" style="fill:#D5D6DB;" width="153.538" height="12.488"/>
	<rect x="124.716" y="171.495" style="fill:#D5D6DB;" width="153.538" height="12.488"/>
	<rect x="124.716" y="220.597" style="fill:#D5D6DB;" width="153.538" height="12.488"/>
	<rect x="124.716" y="269.705" style="fill:#D5D6DB;" width="153.538" height="12.488"/>
	<rect x="124.716" y="318.814" style="fill:#D5D6DB;" width="153.538" height="12.488"/>
</g>
<g>
</g>
<g>
</g>
<g>
</g>
<g>
</g>
<g>
</g>
<g>
</g>
<g>
</g>
<g>
</g>
<g>
</g>
<g>
</g>
<g>
</g>
<g>
</g>
<g>
</g>
<g>
</g>
<g>
</g>
</svg>
