<?xml version="1.0" encoding="iso-8859-1"?>
<!-- Generator: Adobe Illustrator 19.0.0, SVG Export Plug-In . SVG Version: 6.00 Build 0)  -->
<svg version="1.1" id="Capa_1" xmlns="http://www.w3.org/2000/svg" xmlns:xlink="http://www.w3.org/1999/xlink" x="0px" y="0px"
	 viewBox="0 0 468.293 468.293" style="enable-background:new 0 0 468.293 468.293;" xml:space="preserve">
<path style="fill:#FCD462;" d="M153.564,121.469c0,27.501-16.213,51.239-39.678,61.98c-0.41,0.205-0.752,0.342-1.162,0.546
	c-8.346,3.626-17.582,5.679-27.364,5.679c-10.672,0-20.728-2.463-29.759-6.773c-1.299-0.616-2.599-1.299-3.899-2.053
	c-12.313-6.978-22.233-17.649-28.185-30.579c-4.173-8.757-6.43-18.47-6.43-28.8c0-10.809,2.53-21.071,7.046-30.169
	c9.44-19.154,27.637-33.179,49.323-37.01c3.831-0.752,7.866-1.094,11.903-1.094c4.036,0,8.003,0.342,11.835,1.094
	C129.21,59.832,153.564,87.811,153.564,121.469z"/>
<g>
	<path style="fill:#F6C358;" d="M110.159,174.279c-0.349,0.174-0.64,0.291-0.991,0.465c-7.112,3.09-14.982,4.839-23.318,4.839
		c-9.094,0-17.663-2.099-25.359-5.771l24.601-52.348L110.159,174.279z"/>
	<path style="fill:#F6C358;" d="M110.159,68.591c-0.349-0.174-0.64-0.291-0.991-0.465c-7.112-3.09-14.982-4.839-23.318-4.839
		c-9.094,0-17.663,2.099-25.359,5.771l24.601,52.348L110.159,68.591z"/>
	<path style="fill:#F6C358;" d="M85.354,120.765l-52.698,25.241c-3.556-7.462-5.479-15.739-5.479-24.542
		c0-9.211,2.156-17.955,6.004-25.708L85.354,120.765z"/>
	<path style="fill:#F6C358;" d="M85.296,120.765l52.698,25.241c3.556-7.462,5.479-15.739,5.479-24.542
		c0-9.211-2.156-17.955-6.004-25.708L85.296,120.765z"/>
</g>
<rect x="252.647" y="281.781" style="fill:#D5D6DB;" width="27.367" height="157.034"/>
<path style="fill:#E1E6E9;" d="M212.123,438.821h108.414c7.428,0,13.449,6.022,13.449,13.449v2.572
	c0,7.428-6.022,13.449-13.449,13.449H212.123c-7.428,0-13.449-6.022-13.449-13.449v-2.572
	C198.674,444.843,204.695,438.821,212.123,438.821z"/>
<path style="fill:#E56353;" d="M437.497,114.217c12.186,0,18.292,14.731,9.679,23.352l-53.698,53.746l-117.46,117.46
	c-5.346,5.346-14.014,5.346-19.36,0L85.456,137.574c-8.619-8.619-2.515-23.357,9.675-23.357H437.497z"/>
<path style="fill:#E1E6E9;" d="M447.176,137.57l-53.698,53.746c-78.74,25.107-141.882-17.855-141.882-17.855
	c-50.008-21.549-91.328-5.336-119.034,11.219l-47.105-47.106c-8.619-8.619-2.515-23.357,9.675-23.357h342.366
	C449.683,114.217,455.789,128.949,447.176,137.57z"/>
<path style="fill:#64798A;" d="M368.006,114.217h-20.523V64.96c0-14.445,5.846-28.274,16.207-38.339l24.418-23.72
	c4.066-3.949,10.564-3.854,14.512,0.212l0,0c3.947,4.065,3.852,10.561-0.212,14.509l-24.414,23.716
	c-6.385,6.202-9.988,14.725-9.988,23.626V114.217z"/>
<g>
</g>
<g>
</g>
<g>
</g>
<g>
</g>
<g>
</g>
<g>
</g>
<g>
</g>
<g>
</g>
<g>
</g>
<g>
</g>
<g>
</g>
<g>
</g>
<g>
</g>
<g>
</g>
<g>
</g>
</svg>
