<?xml version="1.0" encoding="iso-8859-1"?>
<!-- Generator: Adobe Illustrator 19.0.0, SVG Export Plug-In . SVG Version: 6.00 Build 0)  -->
<svg version="1.1" id="Capa_1" xmlns="http://www.w3.org/2000/svg" xmlns:xlink="http://www.w3.org/1999/xlink" x="0px" y="0px"
	 viewBox="0 0 468.293 468.293" style="enable-background:new 0 0 468.293 468.293;" xml:space="preserve">
<path style="fill:#44C4A1;" d="M249.282,45.446L249.282,45.446c-1.99-27.015-25.503-47.301-52.517-45.311
	C198.755,27.149,222.267,47.436,249.282,45.446z"/>
<path style="fill:#3A556A;" d="M281.657,9.822c0,0-42.203,10.411-49.578,65.187h5.308c0,0,8.16-18.707,20.195-31.058
	c9.887-10.145,24.075-14.37,24.075-14.37V9.822z"/>
<path style="fill:#E56353;" d="M293.58,61.246c-15.888-0.429-30.939,2.946-44.328,9.269c-9.614,4.54-20.6,4.54-30.213,0
	c-13.387-6.322-28.437-9.697-44.322-9.269c-50.127,1.352-91.82,79.741-94.88,129.793c-3.471,56.776,41.547,126.832,97.572,126.832
	c13.483,0,26.322-2.739,38.003-7.682c11.965-5.064,25.501-5.064,37.466,0c11.681,4.943,24.52,7.682,38.003,7.682
	c56.024,0,101.041-70.052,97.573-126.826C385.398,140.992,343.707,62.601,293.58,61.246z"/>
<ellipse style="fill:#D15241;" cx="182.828" cy="189.54" rx="70.194" ry="94.92"/>
<path style="fill:#3A556A;" d="M465.892,468.293H47.263c-24.777,0-44.862-20.085-44.862-44.862v-61.758
	c0-24.777,20.085-44.862,44.862-44.862h418.629v12.013l-12.01,6.019v115.416l12.01,6.022V468.293z"/>
<path style="fill:#D5D6DB;" d="M453.882,334.824H48.396c-15.431,0-27.983,12.045-27.983,26.852v30.874h433.469V334.824z"/>
<path style="fill:#E1E6E9;" d="M20.413,392.55v30.88c0,14.801,12.552,26.846,27.983,26.846h405.485V392.55H20.413z"/>
<g>
</g>
<g>
</g>
<g>
</g>
<g>
</g>
<g>
</g>
<g>
</g>
<g>
</g>
<g>
</g>
<g>
</g>
<g>
</g>
<g>
</g>
<g>
</g>
<g>
</g>
<g>
</g>
<g>
</g>
</svg>
