<?xml version="1.0" encoding="iso-8859-1"?>
<!-- Generator: Adobe Illustrator 19.0.0, SVG Export Plug-In . SVG Version: 6.00 Build 0)  -->
<svg version="1.1" id="Capa_1" xmlns="http://www.w3.org/2000/svg" xmlns:xlink="http://www.w3.org/1999/xlink" x="0px" y="0px"
	 viewBox="0 0 468.413 468.413" style="enable-background:new 0 0 468.413 468.413;" xml:space="preserve">
<path style="fill:#1A76A1;" d="M335.961,278.41l120.525,120.525c15.878,15.878,15.925,41.645,0,57.569
	c-15.878,15.878-41.692,15.878-57.57,0L278.391,335.979L335.961,278.41z"/>
<ellipse style="fill:#2D92BA;" cx="190.44" cy="190.439" rx="190.408" ry="190.408"/>
<ellipse style="fill:#EBEFF2;" cx="190.44" cy="190.439" rx="165.114" ry="165.114"/>
<g>
	
		<rect x="370.075" y="404.207" transform="matrix(-0.7071 0.7071 -0.7071 -0.7071 991.7149 410.7625)" style="fill:#E0E5E8;" width="81.421" height="13.131"/>
	
		<rect x="342.227" y="376.409" transform="matrix(-0.7071 0.7071 -0.7071 -0.7071 924.5181 383.0001)" style="fill:#E0E5E8;" width="81.421" height="13.131"/>
</g>
<g>
	<polygon style="fill:#DA8542;" points="126.635,202.116 114.771,163.862 106.713,163.862 94.849,202.116 81.463,163.862 
		71.802,163.862 90.362,217.019 99.256,217.019 110.439,180.591 111.046,180.591 122.223,217.019 131.122,217.019 149.676,163.862 
		140.022,163.862 	"/>
	<polygon style="fill:#DA8542;" points="206.335,202.116 194.471,163.862 186.413,163.862 174.549,202.116 161.163,163.862 
		151.502,163.862 170.062,217.019 178.956,217.019 190.139,180.591 190.746,180.591 201.923,217.019 210.822,217.019 
		229.376,163.862 219.722,163.862 	"/>
	<polygon style="fill:#DA8542;" points="299.416,163.862 286.029,202.116 274.165,163.862 266.107,163.862 254.243,202.116 
		240.857,163.862 231.196,163.862 249.756,217.019 258.65,217.019 269.833,180.591 270.439,180.591 281.617,217.019 
		290.516,217.019 309.07,163.862 	"/>
</g>
<g>
</g>
<g>
</g>
<g>
</g>
<g>
</g>
<g>
</g>
<g>
</g>
<g>
</g>
<g>
</g>
<g>
</g>
<g>
</g>
<g>
</g>
<g>
</g>
<g>
</g>
<g>
</g>
<g>
</g>
</svg>
