<?xml version="1.0" encoding="iso-8859-1"?>
<!-- Generator: Adobe Illustrator 19.0.0, SVG Export Plug-In . SVG Version: 6.00 Build 0)  -->
<svg version="1.1" id="Capa_1" xmlns="http://www.w3.org/2000/svg" xmlns:xlink="http://www.w3.org/1999/xlink" x="0px" y="0px"
	 viewBox="0 0 468.293 468.293" style="enable-background:new 0 0 468.293 468.293;" xml:space="preserve">
<path style="fill:#647989;" d="M361.505,468.293H106.787c-10.345,0-18.732-8.386-18.732-18.732V18.732
	C88.056,8.386,96.442,0,106.787,0h254.718c10.345,0,18.732,8.386,18.732,18.732v430.829
	C380.237,459.906,371.851,468.293,361.505,468.293z"/>
<rect x="106.49" y="45.643" style="fill:#29A1DA;" width="255.313" height="355.584"/>
<g>
	<circle style="fill:#3B566A;" cx="234.146" cy="434.763" r="21.854"/>
	<path style="fill:#3B566A;" d="M271.61,29.251h-74.927c-3.448,0-6.244-2.795-6.244-6.244v0c0-3.448,2.796-6.244,6.244-6.244h74.927
		c3.448,0,6.244,2.795,6.244,6.244v0C277.854,26.455,275.058,29.251,271.61,29.251z"/>
</g>
<circle style="fill:#E0E5E8;" cx="234.146" cy="223.407" r="93.659"/>
<circle style="fill:#E56354;" cx="234.146" cy="223.407" r="68.683"/>
<circle style="fill:#E0E5E8;" cx="234.146" cy="223.407" r="43.707"/>
<circle style="fill:#E56354;" cx="234.146" cy="223.407" r="18.732"/>
<path style="fill:#D4D5DB;" d="M305.296,142.288l-72.791,72.793c-3.048,3.048-3.048,7.99,0,11.038v0
	c3.048,3.048,7.99,3.048,11.038,0l72.791-72.793L305.296,142.288z"/>
<path style="fill:#3B566A;" d="M324.469,112.633l0,15.832c0,1.724,1.398,3.122,3.122,3.122h15.832c2.781,0,4.174,3.363,2.208,5.329
	l-21.425,21.426c-0.585,0.585-1.38,0.914-2.208,0.914h-22.076c-1.724,0-3.122-1.398-3.122-3.122l-0.001-22.075
	c0-0.828,0.329-1.622,0.914-2.208l21.425-21.426C321.106,108.458,324.469,109.851,324.469,112.633z"/>
<g>
</g>
<g>
</g>
<g>
</g>
<g>
</g>
<g>
</g>
<g>
</g>
<g>
</g>
<g>
</g>
<g>
</g>
<g>
</g>
<g>
</g>
<g>
</g>
<g>
</g>
<g>
</g>
<g>
</g>
</svg>
