<?xml version="1.0" encoding="iso-8859-1"?>
<!-- Generator: Adobe Illustrator 19.0.0, SVG Export Plug-In . SVG Version: 6.00 Build 0)  -->
<svg version="1.1" id="Capa_1" xmlns="http://www.w3.org/2000/svg" xmlns:xlink="http://www.w3.org/1999/xlink" x="0px" y="0px"
	 viewBox="0 0 468.293 468.293" style="enable-background:new 0 0 468.293 468.293;" xml:space="preserve">
<path style="fill:#647989;" d="M443.317,446.125H24.976C11.182,446.125,0,434.943,0,421.149V171.393
	c0-13.794,11.182-24.976,24.976-24.976h418.341c13.794,0,24.976,11.182,24.976,24.976v249.756
	C468.293,434.943,457.111,446.125,443.317,446.125z"/>
<path style="fill:#E0E5E8;" d="M31.221,377.442V215.101c0-20.69,16.773-37.463,37.463-37.463h268.488
	c20.69,0,37.463,16.773,37.463,37.463v162.341c0,20.69-16.773,37.463-37.463,37.463H68.685
	C47.994,414.906,31.221,398.133,31.221,377.442z"/>
<path style="fill:#D4D5DB;" d="M356.645,183.141c3.468,5.679,5.503,12.33,5.503,19.473v162.341
	c0,20.691-16.773,37.463-37.463,37.463H56.197c-7.142,0-13.793-2.035-19.473-5.503c6.579,10.774,18.412,17.991,31.96,17.991h268.488
	c20.691,0,37.463-16.773,37.463-37.463V215.101C374.636,201.553,367.419,189.72,356.645,183.141z"/>
<path style="fill:#FFFFFF;" d="M71.175,231.588c-19.565,26.903-13.192,68.013-17.44,64.924s-11.001-52.604,8.564-79.507
	s58.038-21.006,62.286-17.917S90.74,204.685,71.175,231.588z"/>
<circle style="fill:#2D92BA;" cx="420.552" cy="222.97" r="26.537"/>
<circle style="fill:#29A1DA;" cx="420.552" cy="222.97" r="15.922"/>
<circle style="fill:#2D92BA;" cx="420.552" cy="297.272" r="26.537"/>
<circle style="fill:#29A1DA;" cx="420.552" cy="297.272" r="15.922"/>
<g>
	<path style="fill:#D4D5DB;" d="M440.846,358.663H400.26c-3.451,0-6.244,2.796-6.244,6.244c0,3.448,2.793,6.244,6.244,6.244h40.585
		c3.451,0,6.244-2.796,6.244-6.244C447.09,361.459,444.297,358.663,440.846,358.663z"/>
	<path style="fill:#D4D5DB;" d="M440.846,383.639H400.26c-3.451,0-6.244,2.796-6.244,6.244c0,3.448,2.793,6.244,6.244,6.244h40.585
		c3.451,0,6.244-2.796,6.244-6.244C447.09,386.434,444.297,383.639,440.846,383.639z"/>
</g>
<g>
	<path style="fill:#304859;" d="M40.446,446.125h46.046v5.444c0,3.448-2.795,6.244-6.244,6.244H46.69
		c-3.448,0-6.244-2.796-6.244-6.244V446.125z"/>
	<path style="fill:#304859;" d="M381.8,446.125h46.047v5.444c0,3.448-2.796,6.244-6.244,6.244h-33.559
		c-3.448,0-6.244-2.796-6.244-6.244V446.125z"/>
	<path style="fill:#304859;" d="M235.262,132.89c-0.049,0-0.098,0-0.146,0c-2.683-0.043-5.213-1.232-6.957-3.262l-50.805-59.146
		c-3.372-3.924-2.921-9.838,1-13.207c3.933-3.375,9.841-2.918,13.207,1l43.927,51.137l87.082-95.892
		c3.494-3.817,9.421-4.07,13.232-0.582c3.817,3.494,4.079,9.418,0.585,13.235L242.171,129.85
		C240.396,131.789,237.884,132.89,235.262,132.89z"/>
	<path style="fill:#304859;" d="M234.147,108.955c-20.692,0-37.464,16.773-37.464,37.463h74.927
		C271.61,125.728,254.836,108.955,234.147,108.955z"/>
</g>
<g>
</g>
<g>
</g>
<g>
</g>
<g>
</g>
<g>
</g>
<g>
</g>
<g>
</g>
<g>
</g>
<g>
</g>
<g>
</g>
<g>
</g>
<g>
</g>
<g>
</g>
<g>
</g>
<g>
</g>
</svg>
