<?xml version="1.0" encoding="iso-8859-1"?>
<!-- Generator: Adobe Illustrator 19.0.0, SVG Export Plug-In . SVG Version: 6.00 Build 0)  -->
<svg version="1.1" id="Capa_1" xmlns="http://www.w3.org/2000/svg" xmlns:xlink="http://www.w3.org/1999/xlink" x="0px" y="0px"
	 viewBox="0 0 468.293 468.293" style="enable-background:new 0 0 468.293 468.293;" xml:space="preserve">
<path style="fill:#E1E6E9;" d="M221.971,377.009c16.092,12.666,36.488,18.667,56.949,17.756
	c42.026-1.875,91.18,16.062,126.069,32.066c-3.213,10.99-0.636,23.312,8.03,31.978c11.077,11.077,28.179,12.447,40.751,4.118
	L267.609,276.767l9.158-9.158l186.163,186.161c8.328-12.572,6.958-29.675-4.119-40.751c-8.666-8.666-20.989-11.244-31.979-8.03
	c-16.004-34.889-33.941-84.042-32.067-126.068c0.91-20.461-5.091-40.857-17.757-56.949c-10.939-13.898-27.887-26.574-53.948-29.853
	c0,0-36.311-6.546-75.655-41.179c-7.085-6.236-17.837-5.814-24.51,0.859l-71.098,71.098c-6.673,6.673-7.095,17.425-0.859,24.51
	c34.633,39.343,41.179,75.655,41.179,75.655C195.397,349.122,208.074,366.071,221.971,377.009z"/>
<ellipse style="fill:#3A556A;" cx="263.509" cy="263.54" rx="30.608" ry="30.608"/>
<path style="fill:#D5D6DB;" d="M245.908,136.486L136.486,245.91c-9.876,9.877-25.889,9.877-35.766,0l-1.329-1.329
	c-9.877-9.877-9.877-25.89,0-35.767L208.813,99.392c9.877-9.877,25.89-9.877,35.766,0l1.329,1.329
	C255.785,110.597,255.785,126.61,245.908,136.486z"/>
<polygon style="fill:#F6C358;" points="0,154.35 154.347,0.002 199.328,108.877 108.876,199.329 "/>
<g>
</g>
<g>
</g>
<g>
</g>
<g>
</g>
<g>
</g>
<g>
</g>
<g>
</g>
<g>
</g>
<g>
</g>
<g>
</g>
<g>
</g>
<g>
</g>
<g>
</g>
<g>
</g>
<g>
</g>
</svg>
