<?xml version="1.0" encoding="iso-8859-1"?>
<!-- Generator: Adobe Illustrator 19.0.0, SVG Export Plug-In . SVG Version: 6.00 Build 0)  -->
<svg version="1.1" id="Capa_1" xmlns="http://www.w3.org/2000/svg" xmlns:xlink="http://www.w3.org/1999/xlink" x="0px" y="0px"
	 viewBox="0 0 468.293 468.293" style="enable-background:new 0 0 468.293 468.293;" xml:space="preserve">
<path style="fill:#DC8744;" d="M452.769,89.882L88.933,453.718c-30.006,30.006-81.305,10.82-84.373-31.478
	c-1.043-14.338-0.47-30.538,2.537-48.517c-7.507-11.352-8.427-30.763-1.166-50.214c2.353-6.32,5.359-12.027,8.755-17.018
	c6.136-9,13.664-15.627,21.293-18.879l0.02-0.02c0.287-0.164,0.573-0.245,0.859-0.368c7.711-15.156,17.059-31.09,28.247-47.801
	c-5.604-13.664,1.391-34.936,18.245-51.79c6.259-6.259,13.111-11.147,19.963-14.563c2.612-1.297,5.236-2.381,7.829-3.237
	c7.193-2.375,13.741-6.33,18.885-11.891c0.034-0.037,0.068-0.073,0.102-0.11l0.02-0.02c4.172-4.541,8.488-9.143,12.927-13.786
	c7.997-7.67,15.872-14.932,23.625-21.825c1.186-12.067,8.14-26.058,19.983-37.901c9.45-9.449,20.29-15.79,30.415-18.552
	c2.676-0.749,5.308-1.237,7.851-1.459c11.346-0.992,22.38-4.199,32.116-10.108l0.184-0.112
	c21.006-12.784,40.683-22.561,59.071-29.904c6.75-7.732,16.732-14.645,28.881-19.186c18.879-7.057,37.697-6.361,49.192,0.511
	c9.552-0.634,18.552-0.593,26.897,0.021C463.589,8.578,482.776,59.876,452.769,89.882z"/>
<g>
	<path style="fill:#FCD462;" d="M137.082,336.394c-3.068,9.082-35.324,6.443-72.019-5.911c-21.354-7.2-39.537-16.057-50.378-23.993
		c6.136-9,13.664-15.627,21.293-18.879l0.02-0.02c11.618,1.718,25.506,5.093,40.111,10.002
		C112.824,309.926,140.13,327.292,137.082,336.394z"/>
	<path style="fill:#FCD462;" d="M230.005,206.449c-3.048,9.061-35.304,6.422-72.019-5.911c-24.462-8.223-44.753-18.695-54.673-27.47
		c2.612-1.297,5.236-2.381,7.829-3.237c7.193-2.375,13.741-6.33,18.885-11.891c0.034-0.037,0.068-0.073,0.102-0.11l0.02-0.02
		c11.352,1.779,24.79,5.072,38.903,9.818C205.787,179.982,233.052,197.347,230.005,206.449z"/>
	<path style="fill:#FCD462;" d="M345.243,100.457c-3.069,9.082-35.284,6.443-72.019-5.911c-25.752-8.652-46.86-19.779-56.126-28.799
		c2.672-0.748,5.299-1.235,7.837-1.458c11.358-0.997,22.384-4.191,32.13-10.109l0.184-0.112c8.448,1.861,17.59,4.377,27.04,7.568
		C321.005,74.009,348.311,91.375,345.243,100.457z"/>
</g>
<g>
</g>
<g>
</g>
<g>
</g>
<g>
</g>
<g>
</g>
<g>
</g>
<g>
</g>
<g>
</g>
<g>
</g>
<g>
</g>
<g>
</g>
<g>
</g>
<g>
</g>
<g>
</g>
<g>
</g>
</svg>
