<?xml version="1.0" encoding="iso-8859-1"?>
<!-- Generator: Adobe Illustrator 19.0.0, SVG Export Plug-In . SVG Version: 6.00 Build 0)  -->
<svg version="1.1" id="Capa_1" xmlns="http://www.w3.org/2000/svg" xmlns:xlink="http://www.w3.org/1999/xlink" x="0px" y="0px"
	 viewBox="0 0 468.293 468.293" style="enable-background:new 0 0 468.293 468.293;" xml:space="preserve">
<path style="fill:#EBF0F3;" d="M346.537,468.293H46.829c-6.868,0-12.488-5.62-12.488-12.488V37.463C34.341,16.859,51.2,0,71.805,0
	h324.683l-37.463,89.288v366.517C359.024,462.673,353.405,468.293,346.537,468.293z"/>
<path style="fill:#D5D6DB;" d="M433.951,89.288h-74.927V37.463C359.024,16.859,375.883,0,396.488,0l0,0
	c20.605,0,37.463,16.859,37.463,37.463V89.288z"/>
<polygon style="fill:#64798A;" points="213.541,370.888 243.512,334.673 201.054,261.62 192.312,261.62 149.854,334.673 
	180.449,370.888 "/>
<path style="fill:#D5D6DB;" d="M178.576,369.015h36.215c3.746,0,6.244,2.498,6.244,6.244v6.244c0,3.746-2.498,6.244-6.244,6.244
	h-36.215c-3.746,0-6.244-2.498-6.244-6.244v-6.244C172.332,372.137,175.454,369.015,178.576,369.015z"/>
<path style="fill:#DC8744;" d="M169.834,387.122h54.322c4.371,0,7.493,3.746,6.868,8.117l-8.741,73.054h-51.2l-8.741-73.054
	C162.341,390.868,165.463,387.122,169.834,387.122z"/>
<path style="fill:#E1E6E9;" d="M201.054,317.19V261.62h-8.117v55.571c-3.746,1.873-6.868,5.62-6.868,9.99
	c0,6.244,4.995,11.239,11.239,11.239c6.244,0,11.239-4.995,11.239-11.239C207.922,322.81,204.8,319.063,201.054,317.19z"/>
<g>
	<rect x="78.049" y="179.824" style="fill:#D5D6DB;" width="237.893" height="15.61"/>
	<rect x="78.049" y="121.756" style="fill:#D5D6DB;" width="237.893" height="15.61"/>
	<rect x="78.049" y="63.063" style="fill:#D5D6DB;" width="237.893" height="15.61"/>
</g>
<g>
</g>
<g>
</g>
<g>
</g>
<g>
</g>
<g>
</g>
<g>
</g>
<g>
</g>
<g>
</g>
<g>
</g>
<g>
</g>
<g>
</g>
<g>
</g>
<g>
</g>
<g>
</g>
<g>
</g>
</svg>
