<?xml version="1.0" encoding="iso-8859-1"?>
<!-- Generator: Adobe Illustrator 19.0.0, SVG Export Plug-In . SVG Version: 6.00 Build 0)  -->
<svg version="1.1" id="Capa_1" xmlns="http://www.w3.org/2000/svg" xmlns:xlink="http://www.w3.org/1999/xlink" x="0px" y="0px"
	 viewBox="0 0 468.293 468.293" style="enable-background:new 0 0 468.293 468.293;" xml:space="preserve">
<path style="fill:#D5D6DB;" d="M394.199,432.45c-0.479-18.248,14.442-33.442,32.688-32.9c14.237,0.423,26.777-4.275,35.663-31.594
	c1.588-4.882,1.915-10.202,0.701-15.191c-9.805-40.287-53.393-48.576-77.1-24.869c-2.207,2.207-2.799,6.792-5.787,7.096
	c-38.84,3.953-110.422-110.423-110.422-110.423l-50.728,50.728c0,0,114.376,71.583,110.423,110.423
	c-0.538,5.283-8.469,6.701-11.854,11.37c-11.72,16.165-11.058,38.93,1.522,54.435c17.108,21.087,48.156,22.284,66.848,3.593
	C392.877,448.393,394.416,440.709,394.199,432.45z"/>
<path style="fill:#DC8744;" d="M293.541,126.848c-2.877-5.3-9.325-7.397-14.806-4.883c-18.453,8.462-40.976,5.129-56.173-10.069
	c-11.715-11.715-16.403-27.794-14.066-43.004c0.906-5.896-2.665-11.354-8.413-12.951c-7.999-2.222-15.551-6.462-21.842-12.753
	c-8.56-8.56-13.342-19.449-14.39-30.627c-0.487-5.198-4.094-9.573-9.219-10.566c-41.047-7.953-78.728,8.452-109.292,39.016
	C-5.031,91.38-17.006,161.068,55.243,233.317c72.249,72.249,201.362,119.698,251.731,69.329
	C342.374,267.246,329.43,192.961,293.541,126.848z"/>
<path style="fill:#F6C358;" d="M81.834,219.09C16.077,153.334,45.607,89.997,46.973,87.172c3.25-6.697,11.309-9.492,18.009-6.246
	c6.678,3.246,9.473,11.245,6.283,17.927c-1.135,2.446-24.858,55.925,41.058,111.672c5.77,4.914,6.391,13.315,1.586,18.992
	c-4.806,5.684-13.311,6.395-18.992,1.586C90.187,227.101,85.831,223.088,81.834,219.09z"/>
<g>
</g>
<g>
</g>
<g>
</g>
<g>
</g>
<g>
</g>
<g>
</g>
<g>
</g>
<g>
</g>
<g>
</g>
<g>
</g>
<g>
</g>
<g>
</g>
<g>
</g>
<g>
</g>
<g>
</g>
</svg>
