<?xml version="1.0" encoding="iso-8859-1"?>
<!-- Generator: Adobe Illustrator 19.0.0, SVG Export Plug-In . SVG Version: 6.00 Build 0)  -->
<svg version="1.1" id="Capa_1" xmlns="http://www.w3.org/2000/svg" xmlns:xlink="http://www.w3.org/1999/xlink" x="0px" y="0px"
	 viewBox="0 0 468.28 468.28" style="enable-background:new 0 0 468.28 468.28;" xml:space="preserve">
<g>
	<rect y="186.78" style="fill:#27A2DB;" width="123.367" height="15.135"/>
	<rect x="344.913" y="186.78" style="fill:#27A2DB;" width="123.367" height="15.135"/>
	<polygon style="fill:#27A2DB;" points="234.146,39.299 115.441,82.546 115.441,443.864 234.146,443.864 352.852,443.864 
		352.852,82.546 	"/>
</g>
<g>
	<rect x="7.924" y="201.865" style="fill:#2D93BA;" width="107.52" height="241.976"/>
	<rect x="352.843" y="201.865" style="fill:#2D93BA;" width="107.52" height="241.976"/>
</g>
<path style="fill:#64798A;" d="M393.902,121.669c-1.726,0-3.47-0.36-5.14-1.116L234.146,50.608L79.53,120.547
	c-6.293,2.848-13.683,0.055-16.524-6.232c-2.841-6.28-0.055-13.683,6.232-16.524L229,25.522c3.268-1.476,7.024-1.476,10.293,0
	l159.762,72.274c6.287,2.841,9.073,10.244,6.232,16.524C403.201,118.937,398.659,121.669,393.902,121.669z"/>
<g>
	<rect x="147.231" y="119.515" style="fill:#E1E6E9;" width="45.474" height="45.474"/>
	<rect x="211.419" y="119.515" style="fill:#E1E6E9;" width="45.474" height="45.474"/>
	<rect x="275.612" y="119.515" style="fill:#E1E6E9;" width="45.474" height="45.474"/>
</g>
<g>
	<polygon style="fill:#D5D6DB;" points="192.678,164.991 147.204,119.517 192.678,119.517 	"/>
	<polygon style="fill:#D5D6DB;" points="256.883,164.991 211.41,119.517 256.883,119.517 	"/>
	<polygon style="fill:#D5D6DB;" points="321.089,164.991 275.615,119.517 321.089,119.517 	"/>
</g>
<g>
	<rect x="147.231" y="186.755" style="fill:#E1E6E9;" width="45.474" height="45.474"/>
	<rect x="211.419" y="186.755" style="fill:#E1E6E9;" width="45.474" height="45.474"/>
	<rect x="275.612" y="186.755" style="fill:#E1E6E9;" width="45.474" height="45.474"/>
</g>
<g>
	<polygon style="fill:#D5D6DB;" points="192.678,232.226 147.204,186.753 192.678,186.753 	"/>
	<polygon style="fill:#D5D6DB;" points="256.883,232.226 211.41,186.753 256.883,186.753 	"/>
	<polygon style="fill:#D5D6DB;" points="321.089,232.226 275.615,186.753 321.089,186.753 	"/>
</g>
<g>
	<rect x="147.231" y="253.996" style="fill:#E1E6E9;" width="45.474" height="45.474"/>
	<rect x="211.419" y="253.996" style="fill:#E1E6E9;" width="45.474" height="45.474"/>
	<rect x="275.612" y="253.996" style="fill:#E1E6E9;" width="45.474" height="45.474"/>
</g>
<g>
	<polygon style="fill:#D5D6DB;" points="192.678,299.462 147.204,253.988 192.678,253.988 	"/>
	<polygon style="fill:#D5D6DB;" points="256.883,299.462 211.41,253.988 256.883,253.988 	"/>
	<polygon style="fill:#D5D6DB;" points="321.089,299.462 275.615,253.988 321.089,253.988 	"/>
</g>
<rect x="383.875" y="235.951" style="fill:#E1E6E9;" width="45.474" height="45.474"/>
<polygon style="fill:#D5D6DB;" points="429.347,281.409 383.874,235.936 429.347,235.936 "/>
<rect x="383.875" y="300.138" style="fill:#E1E6E9;" width="45.474" height="45.474"/>
<polygon style="fill:#D5D6DB;" points="429.347,345.615 383.874,300.141 429.347,300.141 "/>
<rect x="383.875" y="364.344" style="fill:#E1E6E9;" width="45.474" height="45.474"/>
<polygon style="fill:#D5D6DB;" points="429.347,409.82 383.874,364.346 429.347,364.346 "/>
<rect x="38.943" y="235.951" style="fill:#E1E6E9;" width="45.474" height="45.474"/>
<polygon style="fill:#D5D6DB;" points="84.419,281.409 38.945,235.936 84.419,235.936 "/>
<rect x="38.943" y="300.138" style="fill:#E1E6E9;" width="45.474" height="45.474"/>
<polygon style="fill:#D5D6DB;" points="84.419,345.615 38.945,300.141 84.419,300.141 "/>
<rect x="38.943" y="364.344" style="fill:#E1E6E9;" width="45.474" height="45.474"/>
<polygon style="fill:#D5D6DB;" points="84.419,409.82 38.945,364.346 84.419,364.346 "/>
<path style="fill:#E1E6E9;" d="M277.028,443.864h-85.763v-95.419c0-7.949,6.444-14.393,14.393-14.393h56.978
	c7.949,0,14.393,6.444,14.393,14.393V443.864z"/>
<path style="fill:#D5D6DB;" d="M206.361,363.541c0-7.948,6.444-14.392,14.393-14.392h56.275v-0.703
	c0-7.95-6.444-14.393-14.393-14.393h-56.978c-7.949,0-14.393,6.444-14.393,14.393v95.418h15.096V363.541z"/>
<g>
</g>
<g>
</g>
<g>
</g>
<g>
</g>
<g>
</g>
<g>
</g>
<g>
</g>
<g>
</g>
<g>
</g>
<g>
</g>
<g>
</g>
<g>
</g>
<g>
</g>
<g>
</g>
<g>
</g>
</svg>
