<?xml version="1.0" encoding="iso-8859-1"?>
<!-- Generator: Adobe Illustrator 19.0.0, SVG Export Plug-In . SVG Version: 6.00 Build 0)  -->
<svg version="1.1" id="Capa_1" xmlns="http://www.w3.org/2000/svg" xmlns:xlink="http://www.w3.org/1999/xlink" x="0px" y="0px"
	 viewBox="0 0 468.293 468.293" style="enable-background:new 0 0 468.293 468.293;" xml:space="preserve">
<path style="fill:#64798A;" d="M270.886,122.322c-4.796,0-8.686-3.891-8.686-8.686V46.328c0-2.992,1.538-5.774,4.072-7.357
	L326.317,1.33c4.072-2.55,9.427-1.323,11.972,2.743c2.55,4.066,1.323,9.427-2.743,11.972l-55.974,35.09v62.5
	C279.572,118.431,275.681,122.322,270.886,122.322z"/>
<rect x="216.101" y="315.629" style="fill:#D5D6DB;" width="23.165" height="119.383"/>
<path style="fill:#E1E6E9;" d="M312.736,198.811c-5.374-10.54-9.468-21.763-11.053-33.488c-3.98-29.447,4.295-50.103,10.483-60.857
	c2.202-3.827-0.649-8.587-5.065-8.587h-79.418h-79.419c-4.416,0-7.267,4.76-5.065,8.587c6.188,10.753,14.462,31.409,10.483,60.856
	c-1.585,11.725-5.68,22.948-11.053,33.489c-11.515,22.587-32.783,79.827,21.247,119.547c37.669,27.692,89.946,27.692,127.615,0
	C345.521,278.638,324.251,221.398,312.736,198.811z"/>
<path style="fill:#44C4A1;" d="M284.469,167.653c-0.004-0.029-0.005-0.055-0.008-0.084H170.906
	c-0.004,0.027-0.005,0.052-0.008,0.079c-1.725,12.775-5.91,25.55-12.792,39.054c-11.887,23.322-25.612,67.025,16.061,97.658
	c15.478,11.378,33.982,17.395,53.52,17.395c19.533,0,38.036-6.017,53.52-17.395c41.673-30.639,27.948-74.337,16.049-97.658
	C290.379,193.203,286.194,180.428,284.469,167.653z"/>
<path style="fill:#D5D6DB;" d="M192.751,434.96h69.863c18.409,0,33.333,14.924,33.333,33.333v0h-136.53v0
	C159.418,449.883,174.342,434.96,192.751,434.96z"/>
<g>
</g>
<g>
</g>
<g>
</g>
<g>
</g>
<g>
</g>
<g>
</g>
<g>
</g>
<g>
</g>
<g>
</g>
<g>
</g>
<g>
</g>
<g>
</g>
<g>
</g>
<g>
</g>
<g>
</g>
</svg>
