<?xml version="1.0" encoding="iso-8859-1"?>
<!-- Generator: Adobe Illustrator 19.0.0, SVG Export Plug-In . SVG Version: 6.00 Build 0)  -->
<svg version="1.1" id="Capa_1" xmlns="http://www.w3.org/2000/svg" xmlns:xlink="http://www.w3.org/1999/xlink" x="0px" y="0px"
	 viewBox="0 0 468.816 468.816" style="enable-background:new 0 0 468.816 468.816;" xml:space="preserve">
<g>
	<path style="fill:#E1E6E9;" d="M146.107,56.227L56.82,145.515l-51.2-51.2c-7.493-7.493-7.493-19.356,0-26.224L68.059,5.651
		c7.493-7.493,19.356-7.493,26.224,0L146.107,56.227z"/>
	<path style="fill:#E1E6E9;" d="M196.059,337.203l140.488-140.488c34.966,11.863,75.551,4.371,103.024-23.727
		c27.473-27.473,35.59-66.81,24.351-101.151l-53.073,53.073c-5.62,5.62-14.361,5.62-19.356,0l-44.956-44.956
		c-5.62-5.62-5.62-14.361,0-19.356L399.61,7.525c-34.966-11.239-75.551-2.498-103.024,26.849
		c-23.727,24.976-31.844,60.566-24.351,92.41l-143.61,143.61c-33.717-9.99-71.805-1.873-98.029,24.351
		C1.249,323.466-6.244,365.3,6.868,400.89l44.956-44.956c1.873-1.873,4.995-3.122,7.493-2.498l41.834,4.371
		c4.371,0.624,7.493,3.746,8.117,7.493l9.366,46.829c0.624,3.122-0.624,6.244-2.498,8.741l-41.834,41.834
		c33.717,9.366,70.556,0.624,96.78-25.6C197.932,409.632,206.049,371.544,196.059,337.203z"/>
</g>
<path style="fill:#FCD462;" d="M405.229,315.973l31.22,31.22l14.361,48.078l17.483,59.317c2.498,8.117-4.995,16.234-13.737,13.737
	l-59.317-17.483l-48.078-14.361l-31.22-31.22L405.229,315.973z"/>
<path style="fill:#3A556A;" d="M450.81,395.271l17.483,59.317c2.498,8.117-4.995,16.234-13.737,13.737l-59.317-17.483
	c-0.624-3.746-1.249-6.868,0-8.741c4.371-4.371,19.356,4.995,23.727,0.624c4.371-4.371-4.995-19.356-0.624-23.727
	c4.371-4.371,19.356,4.995,23.727,0.624c4.371-4.371-4.995-19.356-0.624-23.727C443.941,394.022,447.063,394.022,450.81,395.271z"/>
<path style="fill:#E56353;" d="M436.449,347.193c-3.122,6.868-24.976-6.244-30.595-0.624c-5.62,5.62,6.244,24.976,0.624,30.595
	c-4.371,4.371-17.483-1.873-25.6-1.873c-1.873,0-3.746,0.624-4.995,1.249c-5.62,5.62,6.244,24.976,0.624,30.595
	c-5.62,5.62-24.976-6.244-30.595-0.624c-5.62,5.62,7.493,27.473,0.624,30.595L73.054,161.749l47.454-41.21l41.21-47.454
	L436.449,347.193z"/>
<path style="fill:#D15241;" d="M118.01,117.417l259.122,259.122l0,0c5.62-5.62,24.976,6.244,30.595,0.624
	c5.62-5.62-6.244-24.976-0.624-30.595c5.62-5.62,27.473,7.493,30.595,0.624L162.341,72.461L118.01,117.417z"/>
<rect x="46.673" y="92.995" transform="matrix(-0.7071 0.7071 -0.7071 -0.7071 264.3465 108.3384)" style="fill:#27A2DB;" width="126.126" height="31.844"/>
<g>
</g>
<g>
</g>
<g>
</g>
<g>
</g>
<g>
</g>
<g>
</g>
<g>
</g>
<g>
</g>
<g>
</g>
<g>
</g>
<g>
</g>
<g>
</g>
<g>
</g>
<g>
</g>
<g>
</g>
</svg>
