<?xml version="1.0" encoding="iso-8859-1"?>
<!-- Generator: Adobe Illustrator 19.0.0, SVG Export Plug-In . SVG Version: 6.00 Build 0)  -->
<svg version="1.1" id="Capa_1" xmlns="http://www.w3.org/2000/svg" xmlns:xlink="http://www.w3.org/1999/xlink" x="0px" y="0px"
	 viewBox="0 0 468.293 468.293" style="enable-background:new 0 0 468.293 468.293;" xml:space="preserve">
<g>
	<path style="fill:#2F4859;" d="M458.373,228.397H441.6c-5.863,0-11.425,2.593-15.195,7.083l-15.321,18.249"/>
	<path style="fill:#2F4859;" d="M411.078,263.65c-2.248,0-4.514-0.762-6.368-2.322c-4.198-3.523-4.747-9.778-1.221-13.976
		l15.319-18.251c5.671-6.752,13.976-10.624,22.792-10.624h16.772c5.477,0,9.92,4.44,9.92,9.92c0,5.48-4.443,9.92-9.92,9.92H441.6
		c-2.939,0-5.709,1.292-7.602,3.542l-15.319,18.248C416.722,262.446,413.907,263.65,411.078,263.65z"/>
	<path style="fill:#2F4859;" d="M9.92,228.397h16.773c5.863,0,11.425,2.593,15.195,7.083l15.321,18.249"/>
	<path style="fill:#2F4859;" d="M57.215,263.65c2.248,0,4.514-0.762,6.368-2.322c4.198-3.523,4.747-9.778,1.221-13.976
		l-15.319-18.251c-5.67-6.752-13.976-10.624-22.792-10.624H9.92c-5.477,0-9.92,4.44-9.92,9.92c0,5.48,4.443,9.92,9.92,9.92h16.772
		c2.939,0,5.709,1.292,7.602,3.542l15.319,18.248C51.57,262.446,54.386,263.65,57.215,263.65z"/>
</g>
<path style="fill:#3A556A;" d="M234.147,46.066c-25.973,0-47.028,21.055-47.028,47.027s21.055,47.027,47.028,47.027
	c25.972,0,47.026-21.055,47.026-47.027S260.118,46.066,234.147,46.066z M234.147,121.819c-15.865,0-28.725-12.861-28.725-28.725
	s12.86-28.725,28.725-28.725c15.864,0,28.725,12.861,28.725,28.725S250.011,121.819,234.147,121.819z"/>
<path style="fill:#64798A;" d="M415.836,149.207H52.456c-19.164-1.643-31.101,1.078-38.46,4.641
	c-5.546,2.685-4.993,10.845,0.974,12.385c12.907,3.332,31.775,12.317,34.998,36.486v181.207c0,21.153,17.148,38.301,38.301,38.301
	h291.757c21.153,0,38.301-17.148,38.301-38.301V202.719c3.222-24.168,22.091-33.154,34.997-36.486c5.967-1.54,6.52-9.7,0.974-12.385
	C446.937,150.286,435.001,147.565,415.836,149.207z"/>
<path style="fill:#D5D6DB;" d="M429.613,148.717c-14.464-32.734-47.107-55.623-85.198-55.623H123.877
	c-38.09,0-70.734,22.889-85.198,55.623H429.613z"/>
<g>
	<path style="fill:#E1E6E9;" d="M85.018,346.95H49.969v-18.732h35.049c5.173,0,9.366,4.193,9.366,9.366v0
		C94.384,342.757,90.19,346.95,85.018,346.95z"/>
	<path style="fill:#E1E6E9;" d="M109.993,309.486H49.969v-18.732h60.024c5.173,0,9.366,4.193,9.366,9.366v0
		C119.359,305.293,115.166,309.486,109.993,309.486z"/>
</g>
<g>
</g>
<g>
</g>
<g>
</g>
<g>
</g>
<g>
</g>
<g>
</g>
<g>
</g>
<g>
</g>
<g>
</g>
<g>
</g>
<g>
</g>
<g>
</g>
<g>
</g>
<g>
</g>
<g>
</g>
</svg>
