<?xml version="1.0" encoding="iso-8859-1"?>
<!-- Generator: Adobe Illustrator 19.0.0, SVG Export Plug-In . SVG Version: 6.00 Build 0)  -->
<svg version="1.1" id="Capa_1" xmlns="http://www.w3.org/2000/svg" xmlns:xlink="http://www.w3.org/1999/xlink" x="0px" y="0px"
	 viewBox="0 0 468.293 468.293" style="enable-background:new 0 0 468.293 468.293;" xml:space="preserve">
<path style="fill:#E1E6E9;" d="M367.962,122.918V49.197h-82.655v73.721c-58.068,17.691-100.331,71.642-100.331,135.494
	c0,78.237,63.423,141.658,141.658,141.658s141.658-63.421,141.658-141.658C468.293,194.56,426.03,140.609,367.962,122.918z"/>
<path style="fill:#E56353;" d="M448.611,258.412c0,67.258-54.719,121.976-121.976,121.976S204.658,325.67,204.658,258.412
	c8.916-9.617,25.605-10.16,34.761-0.771c1.99,2.041,3.909,4.597,6.735,4.968c1.439,0.189,2.886-0.246,4.236-0.78
	c11.107-4.394,19.554-15.81,31.494-16.15c11.487-0.327,20.155,9.645,29.177,16.762c3.136,2.474,6.764,4.76,10.758,4.713
	c5.068-0.059,9.22-3.762,13.434-6.579c6.354-4.248,14.129-6.817,21.68-5.635c5.034,0.788,9.862,3.484,13.032,7.4
	c2.767,3.418,8.031,3.418,11.25,0.422c1.293-1.203,2.58-2.416,3.917-3.56c3.908-3.341,8.672-6.23,13.808-5.992
	c9.515,0.442,17.533,11.33,26.591,8.385c2.385-0.775,4.36-2.445,6.58-3.611C436.966,255.434,443.787,255.806,448.611,258.412z"/>
<path style="fill:#EBF0F3;" d="M370.781,16.245h-88.293c-3.448,0-6.244,2.795-6.244,6.244v20.465c0,3.448,2.796,6.244,6.244,6.244
	h88.293c3.448,0,6.244-2.795,6.244-6.244V22.489C377.025,19.04,374.229,16.245,370.781,16.245z"/>
<rect x="285.284" y="49.196" style="fill:#D5D6DB;" width="82.657" height="16.958"/>
<g>
	<circle style="fill:#D15241;" cx="271.672" cy="304.765" r="13.125"/>
	<circle style="fill:#D15241;" cx="311.196" cy="333.518" r="13.125"/>
	<circle style="fill:#D15241;" cx="345.288" cy="299.895" r="13.125"/>
	<circle style="fill:#D15241;" cx="385.249" cy="326.15" r="13.125"/>
</g>
<path style="fill:#EBF0F3;" d="M315.598,423.256L205.175,223.688V119.189h-92.49v104.499L2.261,423.256
	c-6.841,13.105,2.666,28.792,17.449,28.792h278.439C312.931,452.048,322.438,436.361,315.598,423.256z"/>
<path style="fill:#44C4A1;" d="M96.436,297.348L29.73,413.172c-4.561,8.736,1.777,19.195,11.633,19.195H276.5
	c9.855,0,16.193-10.458,11.632-19.195l-66.709-115.823H96.436z"/>
<path style="fill:#EBF0F3;" d="M207.328,83.418H110.53c-3.448,0-6.244,2.795-6.244,6.244v23.282c0,3.448,2.795,6.244,6.244,6.244
	h96.798c3.448,0,6.244-2.795,6.244-6.244V89.662C213.572,86.214,210.777,83.418,207.328,83.418z"/>
<rect x="112.684" y="119.19" style="fill:#E1E6E9;" width="92.491" height="17.883"/>
<g>
	<circle style="fill:#3EA69B;" cx="111.166" cy="368.952" r="13.125"/>
	<circle style="fill:#3EA69B;" cx="137.534" cy="327.805" r="13.125"/>
	<circle style="fill:#3EA69B;" cx="157.053" cy="395.183" r="13.125"/>
	<circle style="fill:#3EA69B;" cx="78.798" cy="408.301" r="13.125"/>
	<circle style="fill:#3EA69B;" cx="201.653" cy="354.029" r="13.125"/>
	<circle style="fill:#3EA69B;" cx="240.222" cy="402.376" r="13.125"/>
</g>
<g>
</g>
<g>
</g>
<g>
</g>
<g>
</g>
<g>
</g>
<g>
</g>
<g>
</g>
<g>
</g>
<g>
</g>
<g>
</g>
<g>
</g>
<g>
</g>
<g>
</g>
<g>
</g>
<g>
</g>
</svg>
