<?xml version="1.0" encoding="iso-8859-1"?>
<!-- Generator: Adobe Illustrator 19.0.0, SVG Export Plug-In . SVG Version: 6.00 Build 0)  -->
<svg version="1.1" id="Capa_1" xmlns="http://www.w3.org/2000/svg" xmlns:xlink="http://www.w3.org/1999/xlink" x="0px" y="0px"
	 viewBox="0 0 468.293 468.293" style="enable-background:new 0 0 468.293 468.293;" xml:space="preserve">
<g>
	<path style="fill:#E1E6E9;" d="M234.145,468.293L234.145,468.293c-4.503,0-8.154-3.651-8.154-8.154V353.35H242.3v106.789
		C242.3,464.642,238.649,468.293,234.145,468.293z"/>
	<path style="fill:#E1E6E9;" d="M121.927,415.902L121.927,415.902c0-4.503,3.651-8.154,8.154-8.154l208.131-0.01
		c4.504,0,8.155,3.651,8.155,8.154v0c0,4.503-3.651,8.154-8.154,8.154l-208.131,0.01
		C125.578,424.057,121.927,420.406,121.927,415.902z"/>
</g>
<circle style="fill:#44C4A1;" cx="234.146" cy="415.906" r="30.807"/>
<path style="fill:#E1E6E9;" d="M172.247,0v74.004H98.243v266.855c0,6.897,5.591,12.488,12.488,12.488h246.832
	c6.897,0,12.488-5.591,12.488-12.488V12.488C370.05,5.591,364.459,0,357.562,0H172.247z"/>
<g>
	<polygon style="fill:#D5D6DB;" points="172.247,0 98.243,74.004 172.247,74.004 	"/>
	<rect x="213.086" y="61.515" style="fill:#D5D6DB;" width="125.378" height="12.488"/>
	<rect x="129.848" y="115.949" style="fill:#D5D6DB;" width="208.603" height="12.488"/>
	<rect x="129.848" y="170.427" style="fill:#D5D6DB;" width="208.603" height="12.488"/>
	<rect x="129.848" y="224.887" style="fill:#D5D6DB;" width="208.603" height="12.488"/>
	<rect x="129.848" y="279.352" style="fill:#D5D6DB;" width="208.603" height="12.488"/>
</g>
<g>
</g>
<g>
</g>
<g>
</g>
<g>
</g>
<g>
</g>
<g>
</g>
<g>
</g>
<g>
</g>
<g>
</g>
<g>
</g>
<g>
</g>
<g>
</g>
<g>
</g>
<g>
</g>
<g>
</g>
</svg>
