<?xml version="1.0" encoding="iso-8859-1"?>
<!-- Generator: Adobe Illustrator 19.0.0, SVG Export Plug-In . SVG Version: 6.00 Build 0)  -->
<svg version="1.1" id="Capa_1" xmlns="http://www.w3.org/2000/svg" xmlns:xlink="http://www.w3.org/1999/xlink" x="0px" y="0px"
	 viewBox="0 0 467.668 467.668" style="enable-background:new 0 0 467.668 467.668;" xml:space="preserve">
<rect x="80.546" y="54.946" style="fill:#27A2DB;" width="306.576" height="412.722"/>
<rect x="103.649" y="78.673" style="fill:#E1E6E9;" width="259.122" height="365.268"/>
<path style="fill:#3A556A;" d="M275.98,63.688h-84.917V42.459C191.063,18.732,210.42,0,233.522,0
	c23.727,0,42.459,19.356,42.459,42.459V63.688z M205.424,48.702h56.195v-6.868c0-15.61-12.488-28.098-28.098-28.098
	s-28.098,12.488-28.098,28.098V48.702z"/>
<g>
	<path style="fill:#64798A;" d="M152.976,56.82v43.083h161.717V56.82c0-6.244-4.995-11.863-11.863-11.863h-137.99
		C157.971,45.58,152.976,50.576,152.976,56.82z"/>
	<polygon style="fill:#64798A;" points="146.732,181.073 137.366,171.083 128.624,180.449 146.732,198.556 189.815,155.473 
		181.073,146.732 	"/>
	<rect x="209.171" y="164.215" style="fill:#64798A;" width="124.878" height="12.488"/>
	<polygon style="fill:#64798A;" points="146.732,248.507 137.366,239.141 128.624,247.883 146.732,265.99 189.815,222.907 
		181.073,214.166 	"/>
	<rect x="209.171" y="231.649" style="fill:#64798A;" width="124.878" height="12.488"/>
	<polygon style="fill:#64798A;" points="146.732,316.566 137.366,307.2 128.624,315.941 146.732,334.049 189.815,290.966 
		181.073,282.224 	"/>
	<rect x="209.171" y="299.707" style="fill:#64798A;" width="124.878" height="12.488"/>
	<polygon style="fill:#64798A;" points="146.732,384 137.366,374.634 128.624,383.376 146.732,402.107 189.815,359.024 
		181.073,350.283 	"/>
	<rect x="209.171" y="367.766" style="fill:#64798A;" width="124.878" height="12.488"/>
</g>
<g>
</g>
<g>
</g>
<g>
</g>
<g>
</g>
<g>
</g>
<g>
</g>
<g>
</g>
<g>
</g>
<g>
</g>
<g>
</g>
<g>
</g>
<g>
</g>
<g>
</g>
<g>
</g>
<g>
</g>
</svg>
