<?xml version="1.0" encoding="iso-8859-1"?>
<!-- Generator: Adobe Illustrator 19.0.0, SVG Export Plug-In . SVG Version: 6.00 Build 0)  -->
<svg version="1.1" id="Capa_1" xmlns="http://www.w3.org/2000/svg" xmlns:xlink="http://www.w3.org/1999/xlink" x="0px" y="0px"
	 viewBox="0 0 468.293 468.293" style="enable-background:new 0 0 468.293 468.293;" xml:space="preserve">
<g>
	<polygon style="fill:#64798A;" points="264.277,432.673 204.015,432.673 150.051,378.71 163.295,365.466 211.771,413.941 
		256.521,413.941 304.997,365.466 318.24,378.71 	"/>
	<path style="fill:#64798A;" d="M0,330.648V41.292c0-6.897,5.591-12.488,12.488-12.488h443.317c6.897,0,12.488,5.591,12.488,12.488
		v289.356c0,6.897-5.591,12.488-12.488,12.488H12.488C5.591,343.136,0,337.545,0,330.648z"/>
</g>
<rect x="18.488" y="47.266" style="fill:#EBF0F3;" width="431.329" height="277.354"/>
<g>
	<path style="fill:#3A556A;" d="M132.38,75.225h-21.576c-3.448,0-6.244-2.795-6.244-6.244V28.804h34.064v40.177
		C138.624,72.429,135.829,75.225,132.38,75.225z"/>
	<path style="fill:#3A556A;" d="M357.494,75.225h-21.576c-3.448,0-6.244-2.795-6.244-6.244V28.804h34.064v40.177
		C363.738,72.429,360.942,75.225,357.494,75.225z"/>
	<path style="fill:#3A556A;" d="M265.973,28.804H202.32V12.488C202.32,5.591,207.911,0,214.807,0h38.678
		c6.897,0,12.488,5.591,12.488,12.488V28.804z"/>
	<polygon style="fill:#3A556A;" points="125.102,468.293 94.293,468.293 155.911,343.136 186.719,343.136 	"/>
	<polygon style="fill:#3A556A;" points="343.191,468.293 373.999,468.293 312.382,343.136 281.573,343.136 	"/>
</g>
<g>
	<path style="fill:#E56353;" d="M178.541,230.817c-8.433,1.25-10.677-0.451-10.683-0.457c-0.299-0.793,0.183-3.598,0.518-5.561
		c2.89-16.939,3.165-34.159,0.823-51.183c-0.652-4.75-4.756-8.335-9.585-8.079c-4.787,0.152-8.689,3.902-9.037,8.683
		c-0.36,4.976-0.732,10.128-1.262,15.329c-3.171-2.183-6.409-3.994-9.274-5.335c-10.463-4.915-21.774-4.024-30.872-3.311
		c-5.049,0.396-11.323,0.896-17.244,3.89c-7.646,3.872-12.262,10.652-15.067,15.421c-5.97,10.152-9.689,21.707-10.756,33.409
		c-0.506,5.427-0.732,13.524,3.043,21.159c3.982,8.043,11.97,14.256,21.915,17.055c4.122,1.159,8.226,1.689,12.274,1.689
		c20.811,0,39.951-14.201,50.14-31.116c4.244,5.14,12.372,9.238,27.823,6.933c5.116-0.762,8.646-5.524,7.884-10.64
		C188.425,233.58,183.706,230.019,178.541,230.817z M138.041,231.702c-8.03,14.165-25.439,26.738-41.915,22.098
		c-4.774-1.341-8.585-4.079-10.189-7.323c-1.256-2.537-1.646-6.177-1.183-11.14c0.823-8.976,3.677-17.841,8.25-25.628
		c2.518-4.28,4.933-6.963,7.378-8.201c2.622-1.329,6.506-1.634,10.262-1.933c3.067-0.238,6.311-0.494,9.488-0.494
		c4.317,0,8.5,0.469,11.951,2.091c6.878,3.226,12.396,8.079,13.659,10.402C143.998,218.665,141.559,225.494,138.041,231.702z"/>
	<path style="fill:#E56353;" d="M283.48,187.263c-12.585-4.878-25.811,1.226-33.354,9.451c-3.323,3.616-5.835,7.61-7.884,11.701
		c-1.213-33.463-1.378-67.073-0.488-100.384c0.14-5.171-3.939-9.476-9.11-9.61c-0.085-0.006-0.171-0.006-0.256-0.006
		c-5.055,0-9.22,4.03-9.354,9.116c-1.311,48.823-0.372,98.274,2.78,146.982c0.024,0.604,0.11,1.195,0.25,1.774
		c0.232,0.976,0.61,1.89,1.122,2.72c0.823,1.348,1.988,2.494,3.433,3.293c0.396,0.22,0.811,0.415,1.238,0.579
		c3.921,1.537,8.012,2.22,12.14,2.22c14.579,0,29.652-8.463,39.61-17.299c9.72-8.622,15.433-18.067,16.976-28.073
		C302.724,205.848,295.37,191.891,283.48,187.263z M282.071,216.872c-1.073,6.945-6.512,13.03-10.89,16.915
		c-6.585,5.835-15.421,10.848-23.159,12.213l6.14-17.177c2.543-7.098,5.165-14.439,9.762-19.439
		c2.915-3.183,6.933-5.098,10.25-5.098c0.902,0,1.75,0.14,2.512,0.439C280.401,206.165,282.864,211.726,282.071,216.872z"/>
	<path style="fill:#E56353;" d="M402.389,244.061c-0.677-5.128-5.402-8.713-10.512-8.061c-15.61,2.055-31.89-2.043-44.659-11.262
		c-2.988-2.152-3.86-3.39-4.061-4.043c-0.091-0.299-0.439-2.018,1.939-6.323c7.945-14.402,24.311-24.055,40.756-24.055
		c0.043,0,0.104,0,0.14,0c5.159,0,9.354-4.177,9.366-9.341c0.012-5.171-4.165-9.378-9.341-9.39c-0.055,0-0.11,0-0.171,0
		c-23.415,0-45.835,13.226-57.152,33.738c-4.268,7.738-5.39,14.579-3.427,20.927c2.043,6.573,6.945,10.762,10.988,13.677
		c13.787,9.957,30.72,15.323,47.695,15.323c3.47,0,6.939-0.226,10.378-0.677C399.456,253.897,403.065,249.189,402.389,244.061z"/>
</g>
<g>
</g>
<g>
</g>
<g>
</g>
<g>
</g>
<g>
</g>
<g>
</g>
<g>
</g>
<g>
</g>
<g>
</g>
<g>
</g>
<g>
</g>
<g>
</g>
<g>
</g>
<g>
</g>
<g>
</g>
</svg>
