<?xml version="1.0" encoding="iso-8859-1"?>
<!-- Generator: Adobe Illustrator 19.0.0, SVG Export Plug-In . SVG Version: 6.00 Build 0)  -->
<svg version="1.1" id="Capa_1" xmlns="http://www.w3.org/2000/svg" xmlns:xlink="http://www.w3.org/1999/xlink" x="0px" y="0px"
	 viewBox="0 0 468.293 468.293" style="enable-background:new 0 0 468.293 468.293;" xml:space="preserve">
<path style="fill:#E56353;" d="M137.366,468.293H18.732C8.386,468.293,0,459.906,0,449.561V18.732C0,8.386,8.386,0,18.732,0h118.634
	c10.345,0,18.732,8.386,18.732,18.732v430.829C156.098,459.906,147.711,468.293,137.366,468.293z"/>
<rect x="26.799" y="32.337" style="fill:#EBF0F3;" width="102.462" height="191.575"/>
<circle style="fill:#E1E6E9;" cx="78.049" cy="368.016" r="45.593"/>
<circle style="fill:#64798A;" cx="78.049" cy="368.016" r="34.866"/>
<path style="fill:#3A556A;" d="M56.322,380.094c0-19.223,15.64-34.864,34.864-34.864c5.841,0,11.342,1.461,16.184,4.011
	c-6.208-9.651-17.017-16.071-29.319-16.071c-19.223,0-34.864,15.64-34.864,34.864c0,13.382,7.589,25.01,18.68,30.853
	C58.374,393.456,56.322,387.015,56.322,380.094z"/>
<g>
	<rect x="41.947" y="60.191" style="fill:#D5D6DB;" width="72.198" height="10.727"/>
	<rect x="41.947" y="101.919" style="fill:#D5D6DB;" width="72.198" height="10.727"/>
	<rect x="41.947" y="143.641" style="fill:#D5D6DB;" width="72.198" height="10.727"/>
	<rect x="41.947" y="185.381" style="fill:#D5D6DB;" width="72.198" height="10.727"/>
</g>
<path style="fill:#44C4A1;" d="M293.463,468.293H174.829c-10.345,0-18.732-8.386-18.732-18.732V18.732
	C156.098,8.386,164.484,0,174.829,0h118.634c10.345,0,18.732,8.386,18.732,18.732v430.829
	C312.195,459.906,303.809,468.293,293.463,468.293z"/>
<rect x="182.896" y="32.356" style="fill:#EBF0F3;" width="102.462" height="191.575"/>
<circle style="fill:#E1E6E9;" cx="234.146" cy="368.016" r="45.593"/>
<circle style="fill:#64798A;" cx="234.146" cy="368.016" r="34.866"/>
<path style="fill:#3A556A;" d="M212.419,380.094c0-19.223,15.64-34.864,34.864-34.864c5.841,0,11.342,1.461,16.184,4.011
	c-6.208-9.651-17.017-16.071-29.319-16.071c-19.223,0-34.864,15.64-34.864,34.864c0,13.382,7.589,25.01,18.68,30.853
	C214.471,393.456,212.419,387.015,212.419,380.094z"/>
<g>
	<rect x="198.057" y="60.191" style="fill:#D5D6DB;" width="72.198" height="10.727"/>
	<rect x="198.057" y="101.919" style="fill:#D5D6DB;" width="72.198" height="10.727"/>
	<rect x="198.057" y="143.641" style="fill:#D5D6DB;" width="72.198" height="10.727"/>
	<rect x="198.057" y="185.381" style="fill:#D5D6DB;" width="72.198" height="10.727"/>
</g>
<path style="fill:#27A2DB;" d="M449.561,468.293H330.927c-10.345,0-18.732-8.386-18.732-18.732V18.732
	C312.195,8.386,320.582,0,330.927,0h118.634c10.345,0,18.732,8.386,18.732,18.732v430.829
	C468.293,459.906,459.906,468.293,449.561,468.293z"/>
<rect x="338.994" y="32.356" style="fill:#EBF0F3;" width="102.462" height="191.575"/>
<circle style="fill:#E1E6E9;" cx="390.244" cy="368.016" r="45.593"/>
<circle style="fill:#64798A;" cx="390.244" cy="368.016" r="34.866"/>
<path style="fill:#3A556A;" d="M368.517,380.094c0-19.223,15.64-34.864,34.864-34.864c5.841,0,11.342,1.461,16.184,4.011
	c-6.208-9.651-17.017-16.071-29.319-16.071c-19.223,0-34.864,15.64-34.864,34.864c0,13.382,7.589,25.01,18.68,30.853
	C370.569,393.456,368.517,387.015,368.517,380.094z"/>
<g>
	<rect x="354.154" y="60.191" style="fill:#D5D6DB;" width="72.198" height="10.727"/>
	<rect x="354.154" y="101.919" style="fill:#D5D6DB;" width="72.198" height="10.727"/>
	<rect x="354.154" y="143.641" style="fill:#D5D6DB;" width="72.198" height="10.727"/>
	<rect x="354.154" y="185.381" style="fill:#D5D6DB;" width="72.198" height="10.727"/>
</g>
<g>
</g>
<g>
</g>
<g>
</g>
<g>
</g>
<g>
</g>
<g>
</g>
<g>
</g>
<g>
</g>
<g>
</g>
<g>
</g>
<g>
</g>
<g>
</g>
<g>
</g>
<g>
</g>
<g>
</g>
</svg>
