<?xml version="1.0" encoding="iso-8859-1"?>
<!-- Generator: Adobe Illustrator 19.0.0, SVG Export Plug-In . SVG Version: 6.00 Build 0)  -->
<svg version="1.1" id="Capa_1" xmlns="http://www.w3.org/2000/svg" xmlns:xlink="http://www.w3.org/1999/xlink" x="0px" y="0px"
	 viewBox="0 0 468.293 468.293" style="enable-background:new 0 0 468.293 468.293;" xml:space="preserve">
<path style="fill:#DC8744;" d="M468.293,234.146c0,99.653-62.252,184.757-149.978,218.537c-26.1,10.115-54.51,15.61-84.168,15.61
	s-58.068-5.495-84.168-15.61C62.252,418.904,0,333.799,0,234.146C0,137.99,57.944,55.383,140.863,19.356
	c2.872-1.249,5.807-2.435,8.742-3.622C175.829,5.62,204.364,0,234.146,0c29.784,0,58.319,5.62,84.543,15.735
	c2.934,1.186,5.87,2.373,8.742,3.622C410.35,55.383,468.293,137.99,468.293,234.146z"/>
<path style="fill:#EBF0F3;" d="M446.441,234.15c0-26.313-4.798-52.101-14.27-76.646l-1.591-4.13l0.024-0.011l-0.213-0.48
	l-0.202-0.524l-0.026,0.01l-1.794-4.048c-10.662-24.049-25.498-45.677-44.107-64.285c-18.61-18.61-40.241-33.451-64.284-44.107
	l-4.049-1.797l0.01-0.026l-0.512-0.197l-0.489-0.217l-0.011,0.024l-4.136-1.594c-49.088-18.928-104.197-18.928-153.285,0
	l-5.148,1.984l0.019,0.05l-4.36,1.923c-23.784,10.498-45.313,25.285-63.982,43.957c-18.675,18.678-33.467,40.204-43.957,63.98
	l-2.066,4.68l-0.008-0.003l-0.063,0.164l-0.087,0.197l0.008,0.004l-1.851,4.77c-9.39,24.24-14.156,49.918-14.156,76.322
	c0,26.404,4.766,52.082,14.156,76.322l1.851,4.77l-0.008,0.004l0.087,0.197l0.063,0.164l0.008-0.003l2.066,4.68
	c10.49,23.774,25.277,45.3,43.957,63.98c18.663,18.667,40.187,33.456,63.977,43.959l4.677,2.064l-0.003,0.007l0.151,0.058
	l0.216,0.095l0.004-0.01l4.767,1.849c24.243,9.394,49.924,14.157,76.325,14.157c26.408,0,52.082-4.763,76.319-14.157l4.447-1.725
	l0.022,0.05l5.04-2.237c24.049-10.665,45.679-25.505,64.284-44.11c18.61-18.607,33.451-40.236,44.107-64.282l1.795-4.051l0.025,0.01
	l0.194-0.503l0.22-0.498l-0.025-0.011l1.592-4.133C441.643,286.254,446.441,260.466,446.441,234.15z M435.412,234.15
	c0,23.112-3.904,45.793-11.615,67.505L248.961,234.15l174.836-67.505C431.509,188.36,435.412,211.041,435.412,234.15z
	 M320.521,52.314c20.796,9.9,39.601,23.176,55.944,39.519s29.617,35.139,39.52,55.943l-171.363,75.897L320.521,52.314z
	 M301.653,44.495l-67.505,174.844L166.643,44.495C210.077,29.084,258.218,29.084,301.653,44.495z M91.832,91.834
	c16.38-16.381,35.072-29.609,55.631-39.371l75.511,170.514L52.463,147.462C62.22,126.916,75.445,108.222,91.832,91.834z
	 M32.884,234.15c0-23.168,3.866-45.739,11.491-67.174l173.969,67.174L44.374,301.324C36.749,279.889,32.884,257.318,32.884,234.15z
	 M147.463,415.838c-20.559-9.765-39.256-22.993-55.631-39.371c-16.386-16.389-29.611-35.082-39.369-55.628l170.511-75.514
	L147.463,415.838z M234.148,435.415c-23.165,0-45.739-3.864-67.176-11.494l67.175-173.965l0.001,0.002l0.001-0.002l67.17,173.965
	C279.887,431.551,257.319,435.415,234.148,435.415z M376.464,376.467c-16.343,16.34-35.136,29.617-55.944,39.522l-75.899-171.362
	l171.363,75.9C406.081,341.325,392.807,360.124,376.464,376.467z"/>
<g>
	<path style="fill:#FCD462;" d="M304.151,53.365l-70.003,181.316L164.144,53.365c-2.591-6.71,0.983-14.278,7.845-16.434
		c19.625-6.166,40.518-9.525,62.158-9.525c21.64,0,42.534,3.359,62.159,9.525C303.168,39.087,306.741,46.655,304.151,53.365z"/>
	<path style="fill:#FCD462;" d="M56.95,155.515c-6.611-2.928-9.391-10.849-6.042-17.256c9.463-18.104,21.826-35.09,37.026-50.289
		s32.186-27.563,50.289-37.026c6.407-3.349,14.328-0.568,17.256,6.042l78.318,176.847L56.95,155.515z"/>
	<path style="fill:#FCD462;" d="M411.495,155.83l-177.699,78.705l78.705-177.698c2.928-6.61,10.847-9.389,17.255-6.041
		c18.206,9.511,35.326,21.895,50.605,37.174c15.279,15.279,27.663,32.399,37.174,50.605
		C420.884,144.983,418.106,152.902,411.495,155.83z"/>
	<path style="fill:#FCD462;" d="M414.967,304.187l-181.316-70.004l181.316-70.003c6.71-2.591,14.278,0.983,16.434,7.845
		c6.166,19.625,9.525,40.518,9.525,62.158c0,21.64-3.359,42.534-9.525,62.159C429.245,303.204,421.677,306.778,414.967,304.187z"/>
	<path style="fill:#FCD462;" d="M53.222,303.854c-6.744,2.604-14.312-1.03-16.474-7.929c-6.11-19.492-9.378-40.246-9.378-61.742
		c0-21.496,3.268-42.249,9.379-61.741c2.163-6.899,9.73-10.533,16.474-7.929l180.429,69.67L53.222,303.854z"/>
	<path style="fill:#FCD462;" d="M312.502,411.532l-78.705-177.699l177.698,78.705c6.61,2.928,9.389,10.847,6.041,17.255
		c-9.511,18.206-21.895,35.326-37.174,50.605c-15.279,15.279-32.399,27.663-50.605,37.174
		C323.35,420.921,315.43,418.142,312.502,411.532z"/>
	<path style="fill:#FCD462;" d="M303.818,415.11c2.604,6.744-1.03,14.312-7.929,16.474c-19.492,6.11-40.246,9.378-61.742,9.378
		s-42.249-3.268-61.741-9.378c-6.899-2.163-10.533-9.73-7.929-16.474l69.67-180.429L303.818,415.11z"/>
	<path style="fill:#FCD462;" d="M155.478,411.382c-2.928,6.611-10.849,9.391-17.256,6.042c-18.104-9.463-35.09-21.826-50.29-37.026
		c-15.2-15.2-27.563-32.186-37.026-50.289c-3.349-6.407-0.568-14.328,6.042-17.256l176.847-78.319L155.478,411.382z"/>
</g>
<circle style="fill:#F6C358;" cx="234.146" cy="234.209" r="24.976"/>
<g>
</g>
<g>
</g>
<g>
</g>
<g>
</g>
<g>
</g>
<g>
</g>
<g>
</g>
<g>
</g>
<g>
</g>
<g>
</g>
<g>
</g>
<g>
</g>
<g>
</g>
<g>
</g>
<g>
</g>
</svg>
