<?xml version="1.0" encoding="iso-8859-1"?>
<!-- Generator: Adobe Illustrator 19.0.0, SVG Export Plug-In . SVG Version: 6.00 Build 0)  -->
<svg version="1.1" id="Capa_1" xmlns="http://www.w3.org/2000/svg" xmlns:xlink="http://www.w3.org/1999/xlink" x="0px" y="0px"
	 viewBox="0 0 468.291 468.291" style="enable-background:new 0 0 468.291 468.291;" xml:space="preserve">
<path style="fill:#FCD462;" d="M387.964,128.81v307.7c0,17.545-14.236,31.781-31.782,31.781H112.109
	c-17.545,0-31.782-14.236-31.782-31.781v-307.7c0-12.051,3.747-24.039,11.426-33.342c12.55-15.048,19.543-34.154,19.543-54.135
	v-0.187h245.697v0.187c0,19.981,6.993,39.087,19.543,54.135C384.218,104.772,387.964,116.76,387.964,128.81z"/>
<path style="fill:#F6C358;" d="M369.16,259.852c-5.577,12.313-9.365,23.881-8.919,31.987c0,0,5.807,126.751-30.658,176.453h26.599
	c17.545,0,31.782-14.236,31.782-31.781V259.852H369.16z"/>
<g>
	<path style="fill:#E56353;" d="M355.247,57.204H113.045c-10.345,0-18.732-8.386-18.732-18.732V18.732
		C94.313,8.386,102.7,0,113.045,0h242.202c10.345,0,18.732,8.386,18.732,18.732v19.741
		C373.979,48.818,365.593,57.204,355.247,57.204z"/>
	<path style="fill:#E56353;" d="M387.963,247.385h-68.074l-63.667-63.667c-12.192-12.192-31.959-12.192-44.151,0l-63.667,63.667
		H80.329v52.433h68.074l63.667,63.667c12.192,12.192,31.959,12.192,44.151,0l63.667-63.667h68.074V247.385z"/>
</g>
<path style="fill:#44C4A1;" d="M212.07,331l-35.323-35.323c-12.192-12.192-12.192-31.959,0-44.151l35.323-35.323
	c12.192-12.192,31.959-12.192,44.151,0l35.323,35.323c12.192,12.192,12.192,31.959,0,44.151L256.222,331
	C244.03,343.192,224.262,343.192,212.07,331z"/>
<g>
</g>
<g>
</g>
<g>
</g>
<g>
</g>
<g>
</g>
<g>
</g>
<g>
</g>
<g>
</g>
<g>
</g>
<g>
</g>
<g>
</g>
<g>
</g>
<g>
</g>
<g>
</g>
<g>
</g>
</svg>
