<?xml version="1.0" encoding="iso-8859-1"?>
<!-- Generator: Adobe Illustrator 19.0.0, SVG Export Plug-In . SVG Version: 6.00 Build 0)  -->
<svg version="1.1" id="Capa_1" xmlns="http://www.w3.org/2000/svg" xmlns:xlink="http://www.w3.org/1999/xlink" x="0px" y="0px"
	 viewBox="0 0 468.293 468.293" style="enable-background:new 0 0 468.293 468.293;" xml:space="preserve">
<rect x="204.8" y="49.115" style="fill:#D5D6DB;" width="58.761" height="28.098"/>
<path style="fill:#E1E6E9;" d="M323.81,347.023v98.854c0,12.385-10.031,22.416-22.416,22.416H166.899
	c-12.385,0-22.416-9.975-22.416-30.598v-90.728c0-5.772,1.849-11.544,5.996-15.579c3.474-3.474,6.613-9.919,9.247-18.549
	c4.427-14.738,7.173-35.865,7.173-59.346c0-25.162-7.173-49.707-13.337-66.239c-2.41-6.5-4.707-11.768-6.388-15.411
	c-1.962-4.147-2.746-8.742-2.41-13.337c3.699-49.931,42.31-89.215,89.383-89.215c47.073,0,85.685,39.284,89.383,89.215
	c0.336,4.595-0.448,9.191-2.354,13.337c-1.681,3.643-3.979,8.91-6.389,15.411c-6.22,16.532-13.394,41.077-13.394,66.239
	c0,23.481,2.802,44.607,7.229,59.346c2.578,8.63,5.716,15.075,9.246,18.549C321.961,335.422,323.81,341.25,323.81,347.023z"/>
<path style="fill:#D5D6DB;" d="M317.87,331.387c-3.531-3.474-6.669-9.919-9.246-18.549c-4.427-14.738-7.229-35.865-7.229-59.346
	c0-25.162,7.173-49.707,13.394-66.239c2.41-6.5,4.707-11.768,6.389-15.411c1.905-4.147,2.69-8.742,2.354-13.337
	c-3.698-49.931-42.31-89.215-89.383-89.215c-1.89,0-3.742,0.166-5.604,0.291c44.489,2.985,80.229,40.998,83.779,88.924
	c0.336,4.595-0.448,9.191-2.354,13.337c-1.681,3.643-3.979,8.91-6.389,15.411c-6.22,16.532-13.394,41.077-13.394,66.239
	c0,23.481,2.802,44.607,7.229,59.346c2.578,8.63,5.716,15.075,9.246,18.549c4.091,4.035,5.94,9.863,5.94,15.635v98.854
	c0,12.385-10.031,22.416-22.416,22.416h11.208c12.385,0,22.416-10.031,22.416-22.416v-98.854
	C323.81,341.25,321.961,335.422,317.87,331.387z"/>
<path style="fill:#64798A;" d="M269.027,49.113h-69.741V12.488C199.285,5.591,204.876,0,211.773,0h44.766
	c6.897,0,12.488,5.591,12.488,12.488V49.113z"/>
<path style="fill:#EBF0F3;" d="M180.213,146.18c-0.088,0-0.172-0.003-0.26-0.005c-3.092-0.14-5.484-2.761-5.344-5.853
	c1.078-23.738,32.004-47.943,33.32-48.961c2.449-1.894,5.965-1.448,7.859,0.999c1.896,2.444,1.45,5.965-0.993,7.861
	c-7.826,6.072-28.291,25.207-28.989,40.61C185.669,143.835,183.19,146.18,180.213,146.18z"/>
<path style="fill:#E56353;" d="M301.394,253.492c0,23.481,2.802,44.607,7.229,59.346H159.726
	c4.427-14.738,7.173-35.865,7.173-59.346c0-25.162-7.173-49.707-13.337-66.239h161.226
	C308.567,203.785,301.394,228.331,301.394,253.492z"/>
<path style="fill:#E1E6E9;" d="M260.968,263.54c0,14.798-11.996,26.794-26.794,26.794c-14.798,0-26.794-11.996-26.794-26.794
	s26.794-53.783,26.794-53.783S260.968,248.743,260.968,263.54z"/>
<path style="fill:#EBF0F3;" d="M228.542,282.181c-0.396,0-0.796-0.073-1.183-0.232c-5.113-2.095-8.68-5.518-10.604-10.171
	c-3.933-9.518,0.683-20.704,0.881-21.177c0.671-1.585,2.494-2.332,4.082-1.668c1.588,0.665,2.338,2.494,1.677,4.082
	c-0.04,0.091-3.805,9.311-0.86,16.399c1.284,3.088,3.634,5.299,7.189,6.753c1.598,0.655,2.36,2.479,1.707,4.073
	C230.936,281.449,229.771,282.181,228.542,282.181z"/>
<g>
</g>
<g>
</g>
<g>
</g>
<g>
</g>
<g>
</g>
<g>
</g>
<g>
</g>
<g>
</g>
<g>
</g>
<g>
</g>
<g>
</g>
<g>
</g>
<g>
</g>
<g>
</g>
<g>
</g>
</svg>
