<?xml version="1.0" encoding="iso-8859-1"?>
<!-- Generator: Adobe Illustrator 19.0.0, SVG Export Plug-In . SVG Version: 6.00 Build 0)  -->
<svg version="1.1" id="Capa_1" xmlns="http://www.w3.org/2000/svg" xmlns:xlink="http://www.w3.org/1999/xlink" x="0px" y="0px"
	 viewBox="0 0 468.847 468.847" style="enable-background:new 0 0 468.847 468.847;" xml:space="preserve">
<path style="fill:#F6C358;" d="M46.291,445.346L17.569,467.2c-3.122,1.873-6.868,1.873-9.366-0.624l-3.122-3.122l-3.122-3.122
	c-2.498-2.498-2.498-6.244-0.624-9.366l21.854-28.722l11.863,11.863L46.291,445.346z"/>
<path style="fill:#FCD462;" d="M464.633,104.429L163.677,405.385L49.413,452.215c-2.498,1.249-5.62,0.624-7.493-1.249
	l-23.102-23.102c-1.873-1.873-2.498-4.995-1.873-7.493l46.829-114.263L364.73,4.527c5.62-5.62,14.361-5.62,19.98,0l39.961,39.961
	l39.961,39.961C470.252,90.068,470.252,98.81,464.633,104.429z"/>
<path style="fill:#27A2DB;" d="M442.779,141.268L209.882,374.166c-2.498,2.498-7.493,2.498-9.99,0l-52.449-52.449l-52.449-52.449
	c-2.498-2.498-2.498-7.493,0-9.99L327.891,26.38c3.122-2.498,7.493-2.498,9.99,0l104.898,104.898
	C445.277,134.4,445.277,138.771,442.779,141.268z"/>
<ellipse style="fill:#E1E6E9;" cx="268.891" cy="199.834" rx="56.818" ry="56.818"/>
<g>
	
		<rect x="356.349" y="55.822" transform="matrix(-0.7072 0.7071 -0.7071 -0.7072 697.6161 -78.6302)" style="fill:#44C4A1;" width="17.484" height="98.66"/>
	
		<rect x="326.334" y="85.778" transform="matrix(-0.7071 0.7071 -0.7071 -0.7071 667.5431 -6.2968)" style="fill:#44C4A1;" width="17.483" height="98.653"/>
	
		<rect x="195.507" y="217.293" transform="matrix(-0.7072 0.7071 -0.7071 -0.7072 537.2029 310.7513)" style="fill:#44C4A1;" width="17.484" height="98.66"/>
	
		<rect x="165.533" y="247.227" transform="matrix(-0.7071 0.7071 -0.7071 -0.7071 507.2002 383.0174)" style="fill:#44C4A1;" width="17.483" height="98.653"/>
</g>
<g>
</g>
<g>
</g>
<g>
</g>
<g>
</g>
<g>
</g>
<g>
</g>
<g>
</g>
<g>
</g>
<g>
</g>
<g>
</g>
<g>
</g>
<g>
</g>
<g>
</g>
<g>
</g>
<g>
</g>
</svg>
