<?xml version="1.0" encoding="iso-8859-1"?>
<!-- Generator: Adobe Illustrator 19.0.0, SVG Export Plug-In . SVG Version: 6.00 Build 0)  -->
<svg version="1.1" id="Capa_1" xmlns="http://www.w3.org/2000/svg" xmlns:xlink="http://www.w3.org/1999/xlink" x="0px" y="0px"
	 viewBox="0 0 468.293 468.293" style="enable-background:new 0 0 468.293 468.293;" xml:space="preserve">
<rect x="215.415" y="305.951" style="fill:#E1E6E9;" width="37.463" height="120.002"/>
<g>
	<path style="fill:#D5D6DB;" d="M160.91,425.939h146.473c11.696,0,21.177,9.481,21.177,21.177v0
		c0,11.696-9.481,21.177-21.177,21.177H160.91c-11.696,0-21.177-9.481-21.177-21.177v0
		C139.733,435.42,149.214,425.939,160.91,425.939z"/>
	<path style="fill:#D5D6DB;" d="M295.014,0h-60.576h-61.16c0,0-141.351,205.617-20.031,295.399
		c43.653,32.305,118.144,32.305,161.797,0C436.365,205.617,295.014,0,295.014,0z"/>
</g>
<path style="fill:#44C4A1;" d="M337.903,80.233h-0.326c0,14.281-11.577,25.857-25.857,25.857c-8.533,0-16.101-4.133-20.81-10.507
	c-2.542-3.44-7.553-3.44-10.095,0c-4.709,6.374-12.277,10.507-20.81,10.507c-8.533,0-16.1-4.133-20.81-10.507
	c-2.542-3.44-7.553-3.44-10.095,0c-4.709,6.374-12.277,10.507-20.81,10.507c-8.533,0-16.101-4.133-20.81-10.507
	c-2.542-3.44-7.553-3.44-10.095,0c-4.709,6.374-12.277,10.507-20.81,10.507c-14.28,0-25.857-11.577-25.857-25.857h-0.326
	c-28.796,68.149-49.458,163.116,24.318,216.231c42.912,30.894,115.964,30.894,158.876,0
	C387.361,243.349,366.699,148.383,337.903,80.233z"/>
<g>
</g>
<g>
</g>
<g>
</g>
<g>
</g>
<g>
</g>
<g>
</g>
<g>
</g>
<g>
</g>
<g>
</g>
<g>
</g>
<g>
</g>
<g>
</g>
<g>
</g>
<g>
</g>
<g>
</g>
</svg>
