<?xml version="1.0" encoding="iso-8859-1"?>
<!-- Generator: Adobe Illustrator 19.0.0, SVG Export Plug-In . SVG Version: 6.00 Build 0)  -->
<svg version="1.1" id="Capa_1" xmlns="http://www.w3.org/2000/svg" xmlns:xlink="http://www.w3.org/1999/xlink" x="0px" y="0px"
	 viewBox="0 0 468.293 468.293" style="enable-background:new 0 0 468.293 468.293;" xml:space="preserve">
<path style="fill:#64798A;" d="M31.007,352.388V86.896c0-6.897,5.591-12.488,12.488-12.488h381.303
	c6.897,0,12.488,5.591,12.488,12.488v265.492H31.007z"/>
<rect x="47.017" y="90.443" style="fill:#EBF0F3;" width="374.203" height="245.885"/>
<path style="fill:#D5D6DB;" d="M468.293,352.388H0v0c0,22.918,18.578,41.496,41.496,41.496h385.301
	C449.714,393.884,468.293,375.306,468.293,352.388L468.293,352.388z"/>
<path style="fill:#1C75A1;" d="M250.184,378.48h-32.075c-2.952,0-5.346-2.391-5.346-5.346c0-2.955,2.394-5.346,5.346-5.346h32.075
	c2.952,0,5.346,2.391,5.346,5.346C255.529,376.089,253.136,378.48,250.184,378.48z"/>
<g>
	<rect x="338.794" y="142.661" style="fill:#F6C358;" width="12.488" height="141.468"/>
	<rect x="305.889" y="142.661" style="fill:#F6C358;" width="12.488" height="141.468"/>
	<rect x="273.046" y="161.236" style="fill:#F6C358;" width="12.488" height="104.323"/>
	<rect x="120.339" y="142.661" style="fill:#F6C358;" width="12.488" height="141.468"/>
	<rect x="153.225" y="142.661" style="fill:#F6C358;" width="12.488" height="141.468"/>
	<rect x="186.131" y="161.236" style="fill:#F6C358;" width="12.488" height="104.323"/>
</g>
<g>
	<path style="fill:#27A2DB;" d="M369.152,293.498h-20.415c-45.643,0-88.86-21.03-121.692-59.22l-2.265-2.628v-29.506
		c-28.912-32.348-66.155-50.116-105.226-50.116H99.14v-18.732h20.415c45.643,0,88.86,21.03,121.692,59.22l2.265,2.628v29.506
		c28.912,32.348,66.155,50.116,105.226,50.116h20.415V293.498z"/>
	<path style="fill:#27A2DB;" d="M119.555,293.498H99.14v-18.732h20.415c39.07,0,76.314-17.768,105.226-50.116v-29.506l2.265-2.628
		c32.832-38.189,76.049-59.22,121.692-59.22h20.415v18.732h-20.415c-39.07,0-76.314,17.768-105.226,50.116v29.506l-2.265,2.628
		C208.415,272.467,165.198,293.498,119.555,293.498z"/>
</g>
<g>
</g>
<g>
</g>
<g>
</g>
<g>
</g>
<g>
</g>
<g>
</g>
<g>
</g>
<g>
</g>
<g>
</g>
<g>
</g>
<g>
</g>
<g>
</g>
<g>
</g>
<g>
</g>
<g>
</g>
</svg>
