<?xml version="1.0" encoding="iso-8859-1"?>
<!-- Generator: Adobe Illustrator 19.0.0, SVG Export Plug-In . SVG Version: 6.00 Build 0)  -->
<svg version="1.1" id="Capa_1" xmlns="http://www.w3.org/2000/svg" xmlns:xlink="http://www.w3.org/1999/xlink" x="0px" y="0px"
	 viewBox="0 0 467.357 467.357" style="enable-background:new 0 0 467.357 467.357;" xml:space="preserve">
<g transform="matrix(0.7071 -0.7071 0.7071 0.7071 -0.2 47.952)">
	<rect x="137.401" y="225.633" style="fill:#E1E6E9;" width="89.912" height="142.985"/>
	<rect x="137.401" y="261.847" style="fill:#EBF0F3;" width="89.912" height="70.556"/>
</g>
<path style="fill:#E1E6E9;" d="M155.162,413.647l-21.229,21.229l-68.683,18.107L12.176,466.72
	c-6.868,1.873-13.737-4.371-11.863-11.863l14.361-52.449l17.483-68.059l21.229-21.229L155.162,413.647z"/>
<g>
	<path style="fill:#D5D6DB;" d="M150.791,418.018l-17.483,17.483l-74.302,19.356c-10.615,2.498-16.859-11.863-7.493-17.483
		l72.429-44.332L150.791,418.018z"/>
	<path style="fill:#D5D6DB;" d="M49.64,316.867L32.157,334.35l-19.356,74.302c-2.498,10.615,11.863,16.859,17.483,7.493
		l44.332-72.429L49.64,316.867z"/>
</g>
<polygon style="fill:#FCD462;" points="363.708,205.101 133.308,435.501 125.191,393.042 124.566,393.042 82.732,384.925 
	74.615,343.091 74.615,342.467 32.157,334.35 262.557,103.95 "/>
<polygon style="fill:#F6C358;" points="338.108,179.501 124.566,393.042 82.732,384.925 74.615,343.091 288.157,129.55 "/>
<path style="fill:#64798A;" d="M65.249,452.984L12.176,466.72c-6.868,1.873-13.737-4.371-11.863-11.863l14.361-52.449
	c13.112,0,26.224,4.995,36.215,14.985C60.254,426.759,65.249,439.871,65.249,452.984z"/>
<path style="fill:#E56353;" d="M414.908,153.901L313.757,52.75L360.586,5.92c7.493-7.493,19.356-7.493,26.224,0l74.927,74.927
	c7.493,7.493,7.493,19.356,0,26.224L414.908,153.901z"/>
<g>
</g>
<g>
</g>
<g>
</g>
<g>
</g>
<g>
</g>
<g>
</g>
<g>
</g>
<g>
</g>
<g>
</g>
<g>
</g>
<g>
</g>
<g>
</g>
<g>
</g>
<g>
</g>
<g>
</g>
</svg>
