<?xml version="1.0" encoding="iso-8859-1"?>
<!-- Generator: Adobe Illustrator 19.0.0, SVG Export Plug-In . SVG Version: 6.00 Build 0)  -->
<svg version="1.1" id="Capa_1" xmlns="http://www.w3.org/2000/svg" xmlns:xlink="http://www.w3.org/1999/xlink" x="0px" y="0px"
	 viewBox="0 0 468.291 468.291" style="enable-background:new 0 0 468.291 468.291;" xml:space="preserve">
<path style="fill:#EBF0F3;" d="M372.023,8.842l-83.239,114.95c-44.344,61.237-98.142,115.035-159.379,159.379L2.433,375.116
	l90.791,90.791l91.945-126.972c44.344-61.237,98.142-115.035,159.379-159.379L459.4,96.387c7.659-5.546,10.729-15.422,7.666-24.369
	c-4.493-13.123-12.72-31.846-26.155-45.28c-13.26-13.26-31.698-21.263-44.661-25.611C387.337-1.863,377.537,1.227,372.023,8.842z"/>
<ellipse transform="matrix(-0.7071 -0.7071 0.7071 -0.7071 -215.6883 751.6786)" style="fill:#D5D6DB;" cx="47.834" cy="420.51" rx="64.2" ry="21.023"/>
<path style="fill:#FCD462;" d="M263.6,205.532l-23.042-23.042l-37.322,37.322l23.042,23.042c8.236,8.236,13.367,19.07,14.522,30.66
	l7.437,74.645l17.656-16.097l20.484,12.296l-8.712-87.44l87.44,8.712l-12.296-20.484l16.097-17.656l-74.645-7.437
	C282.669,218.9,271.836,213.769,263.6,205.532z"/>
<g>
</g>
<g>
</g>
<g>
</g>
<g>
</g>
<g>
</g>
<g>
</g>
<g>
</g>
<g>
</g>
<g>
</g>
<g>
</g>
<g>
</g>
<g>
</g>
<g>
</g>
<g>
</g>
<g>
</g>
</svg>
