<?xml version="1.0" encoding="iso-8859-1"?>
<!-- Generator: Adobe Illustrator 19.0.0, SVG Export Plug-In . SVG Version: 6.00 Build 0)  -->
<svg version="1.1" id="Capa_1" xmlns="http://www.w3.org/2000/svg" xmlns:xlink="http://www.w3.org/1999/xlink" x="0px" y="0px"
	 viewBox="0 0 468.371 468.371" style="enable-background:new 0 0 468.371 468.371;" xml:space="preserve">
<polygon style="fill:#EBF0F3;" points="22.073,206.045 249.766,257.845 249.766,333.873 30.252,286.745 9.98,258.936 9.98,234.944 
	"/>
<path style="fill:#E56353;" d="M22.77,208.7l-0.832-8.196c0,0-54.853,45.813,9.224,90.875l-0.751-7.396
	C-5.179,252.93,11.26,222.746,22.77,208.7z"/>
<path style="fill:#E1E6E9;" d="M248.897,255.87c0,0-31.879,32.001,0,73.003l26.878,5l189.603-78.004
	c0,0-35.594-34.996-10.594-81.001L248.897,255.87z"/>
<polygon style="fill:#E56353;" points="258.873,125.628 21.938,200.504 258.873,251.849 454.827,170.469 "/>
<path style="fill:#D15241;" d="M257.732,251.602L26.435,201.479c-2.317-0.502-4.509,1.256-4.521,3.627l-0.036,7.13
	c-0.009,1.762,1.216,3.29,2.937,3.664l232.914,50.681c0.744,0.162,1.52,0.092,2.224-0.2l192.573-79.976
	c1.392-0.578,2.3-1.938,2.3-3.445v-6.902c0-2.66-2.705-4.466-5.161-3.445l-189.713,78.788
	C259.25,251.693,258.475,251.763,257.732,251.602z"/>
<polygon style="fill:#E56353;" points="266.678,327.762 31.162,276.398 31.162,291.38 266.678,342.743 468.371,254.268 
	468.371,239.287 "/>
<path style="fill:#D15241;" d="M31.162,276.398c-40.405-38.065,5.412-72.723,5.412-72.723l-14.636-3.172
	c0,0-55.192,45.437,9.509,90.875L31.162,276.398z"/>
<polygon style="fill:#27A2DB;" points="377.881,230.296 416.667,216.074 418.908,241.36 403.818,239.287 384.226,255.373 "/>
<g>
</g>
<g>
</g>
<g>
</g>
<g>
</g>
<g>
</g>
<g>
</g>
<g>
</g>
<g>
</g>
<g>
</g>
<g>
</g>
<g>
</g>
<g>
</g>
<g>
</g>
<g>
</g>
<g>
</g>
</svg>
