<?xml version="1.0" encoding="iso-8859-1"?>
<!-- Generator: Adobe Illustrator 19.0.0, SVG Export Plug-In . SVG Version: 6.00 Build 0)  -->
<svg version="1.1" id="Capa_1" xmlns="http://www.w3.org/2000/svg" xmlns:xlink="http://www.w3.org/1999/xlink" x="0px" y="0px"
	 viewBox="0 0 468.293 468.293" style="enable-background:new 0 0 468.293 468.293;" xml:space="preserve">
<path style="fill:#EBF0F3;" d="M184.435,154.756V68.895H101.34v85.861C42.693,172.554,0,227.026,0,291.486
	c0,78.915,63.973,142.887,142.887,142.887s142.887-63.972,142.887-142.887C285.775,227.026,243.081,172.554,184.435,154.756z"/>
<path style="fill:#FCD462;" d="M18.468,291.487c0,68.606,55.811,124.422,124.417,124.422s124.422-55.816,124.422-124.422
	c0-6.588-8.646-9.066-15.166-10.003s-13.188,1.058-18.929,4.289c-6.022,3.389-11.718,8.28-18.624,8.537
	c-11.06,0.411-20.9-11.338-31.504-8.165c-5.416,1.621-8.921,6.678-13.177,10.398c-7.504,6.559-18.313,9.122-27.964,6.632
	c-6.837-1.764-12.826-5.797-19.183-8.87c-6.358-3.072-13.753-5.212-20.427-2.907c-3.462,1.196-6.433,3.494-9.784,4.973
	c-5.96,2.63-13.087,2.462-18.916-0.447c-5.572-2.781-9.726-7.752-14.954-11.136C45.725,276.404,27.399,278.903,18.468,291.487z"/>
<path style="fill:#E1E6E9;" d="M184.022,68.895h-82.27c-6.897,0-12.488-5.591-12.488-12.488v-10c0-6.897,5.591-12.488,12.488-12.488
	h82.27c6.897,0,12.488,5.591,12.488,12.488v10C196.51,63.304,190.919,68.895,184.022,68.895z"/>
<rect x="101.339" y="68.895" style="fill:#D5D6DB;" width="83.094" height="21.448"/>
<g>
	<circle style="fill:#F6C358;" cx="84.48" cy="347.91" r="13.849"/>
	<circle style="fill:#F6C358;" cx="147.481" cy="331.489" r="13.849"/>
	<circle style="fill:#F6C358;" cx="136.517" cy="380.254" r="13.849"/>
	<circle style="fill:#F6C358;" cx="208.834" cy="345.319" r="13.849"/>
</g>
<g>
	<circle style="fill:#D5D6DB;" cx="98.316" cy="219.017" r="13.849"/>
	<circle style="fill:#D5D6DB;" cx="192.375" cy="219.017" r="13.849"/>
	<circle style="fill:#D5D6DB;" cx="147.481" cy="255.251" r="13.849"/>
</g>
<path style="fill:#44C4A1;" d="M468.293,306.872v-27.536l-9.235-2.012c-11.081-2.414-19.91-10.369-24.234-20.854
	c-0.06-0.146-0.121-0.292-0.182-0.438c-4.405-10.534-3.856-22.476,2.314-32.083l5.103-7.946l-19.471-19.471l-7.946,5.103
	c-9.608,6.17-21.55,6.72-32.084,2.314c-0.146-0.061-0.292-0.122-0.438-0.182c-10.485-4.324-18.44-13.153-20.854-24.235l-2.012-9.234
	h-27.536l-2.012,9.234c-2.414,11.082-10.369,19.911-20.854,24.235c-0.145,0.06-0.291,0.12-0.436,0.181
	c-10.535,4.406-22.477,3.856-32.085-2.315l-7.946-5.104l-19.471,19.471l5.103,7.946c6.17,9.608,6.72,21.551,2.314,32.085
	c-0.061,0.146-0.121,0.292-0.182,0.438c-4.324,10.484-13.153,18.439-24.235,20.853l-9.235,2.012v27.536l9.234,2.012
	c11.081,2.414,19.91,10.369,24.234,20.853c0.06,0.147,0.121,0.293,0.182,0.439c4.406,10.535,3.857,22.477-2.314,32.085l-5.103,7.945
	l19.471,19.471l7.945-5.102c9.608-6.17,21.551-6.72,32.085-2.314c0.146,0.061,0.292,0.122,0.439,0.182
	c10.485,4.324,18.439,13.153,20.853,24.235l2.012,9.234h27.536l2.012-9.234c2.414-11.082,10.369-19.911,20.854-24.235
	c0.146-0.06,0.292-0.121,0.437-0.182c10.534-4.405,22.477-3.856,32.085,2.315l7.945,5.103l19.471-19.471l-5.103-7.947
	c-6.17-9.608-6.72-21.55-2.314-32.084c0.061-0.145,0.121-0.291,0.181-0.437c4.324-10.485,13.154-18.44,24.236-20.854
	L468.293,306.872z"/>
<circle style="fill:#64798A;" cx="345.488" cy="293.089" r="48.053"/>
<circle style="fill:#EBF0F3;" cx="345.488" cy="293.089" r="32.037"/>
<g>
</g>
<g>
</g>
<g>
</g>
<g>
</g>
<g>
</g>
<g>
</g>
<g>
</g>
<g>
</g>
<g>
</g>
<g>
</g>
<g>
</g>
<g>
</g>
<g>
</g>
<g>
</g>
<g>
</g>
</svg>
