<?xml version="1.0" encoding="iso-8859-1"?>
<!-- Generator: Adobe Illustrator 19.0.0, SVG Export Plug-In . SVG Version: 6.00 Build 0)  -->
<svg version="1.1" id="Capa_1" xmlns="http://www.w3.org/2000/svg" xmlns:xlink="http://www.w3.org/1999/xlink" x="0px" y="0px"
	 viewBox="0 0 468.293 468.293" style="enable-background:new 0 0 468.293 468.293;" xml:space="preserve">
<path style="fill:#EBF0F3;" d="M402.732,6.244v455.805c0,3.448-2.796,6.244-6.244,6.244H71.805c-3.448,0-6.244-2.796-6.244-6.244
	V86.353L151.915,0h244.573C399.936,0,402.732,2.795,402.732,6.244z"/>
<polygon style="fill:#E1E6E9;" points="151.915,0 151.915,86.353 65.561,86.353 "/>
<g>
	<path style="fill:#E56353;" d="M153.692,182.573H101.57v-52.122h52.122V182.573z M110.936,173.207h33.39v-33.39h-33.39V173.207z"/>
	<path style="fill:#E56353;" d="M130.869,166.207c-1.238,0-2.433-0.494-3.311-1.372l-9.341-9.341c-1.829-1.829-1.829-4.793,0-6.622
		s4.793-1.829,6.622,0l5.72,5.72l28.293-33.921c1.652-1.988,4.61-2.262,6.598-0.598c1.988,1.659,2.25,4.61,0.598,6.598
		l-31.579,37.854c-0.841,1.012-2.073,1.622-3.384,1.677C131.009,166.207,130.936,166.207,130.869,166.207z"/>
</g>
<path style="fill:#44C4A1;" d="M153.692,266.933H101.57v-52.122h52.122V266.933z M110.936,257.567h33.39v-33.39h-33.39V257.567z"/>
<g>
	<path style="fill:#27A2DB;" d="M153.692,351.299H101.57v-52.122h52.122V351.299z M110.936,341.933h33.39v-33.39h-33.39V341.933z"/>
	<path style="fill:#27A2DB;" d="M130.869,334.933c-1.238,0-2.433-0.494-3.311-1.372l-9.341-9.341c-1.829-1.829-1.829-4.793,0-6.622
		c1.829-1.829,4.793-1.829,6.622,0l5.72,5.72l28.293-33.921c1.652-1.994,4.61-2.256,6.598-0.598s2.25,4.61,0.598,6.598
		l-31.579,37.854c-0.841,1.012-2.073,1.622-3.384,1.677C131.009,334.933,130.936,334.933,130.869,334.933z"/>
</g>
<path style="fill:#44C4A1;" d="M153.692,435.659H101.57v-52.122h52.122V435.659z M110.936,426.293h33.39v-33.39h-33.39V426.293z"/>
<rect x="203.114" y="150.266" style="fill:#E56353;" width="163.59" height="12.488"/>
<rect x="203.114" y="234.646" style="fill:#44C4A1;" width="163.59" height="12.488"/>
<rect x="203.114" y="319.001" style="fill:#D5D6DB;" width="163.59" height="12.488"/>
<rect x="203.114" y="403.356" style="fill:#44C4A1;" width="163.59" height="12.488"/>
<g>
</g>
<g>
</g>
<g>
</g>
<g>
</g>
<g>
</g>
<g>
</g>
<g>
</g>
<g>
</g>
<g>
</g>
<g>
</g>
<g>
</g>
<g>
</g>
<g>
</g>
<g>
</g>
<g>
</g>
</svg>
