<?xml version="1.0" encoding="iso-8859-1"?>
<!-- Generator: Adobe Illustrator 19.0.0, SVG Export Plug-In . SVG Version: 6.00 Build 0)  -->
<svg version="1.1" id="Layer_1" xmlns="http://www.w3.org/2000/svg" xmlns:xlink="http://www.w3.org/1999/xlink" x="0px" y="0px"
	 viewBox="0 0 512 512" style="enable-background:new 0 0 512 512;" xml:space="preserve">
<g>
	<path style="fill:#4D3A2D;" d="M130.439,27.488c-28.96-5.104-56.391,13.899-63.803,44.211C42.933,168.612,9.83,312.346,0,355.178
		l13.781,16.271c0,0,41.478-181.389,69.433-295.696c5.247-21.458,24.276-34.981,44.262-31.457c4.636,0.817,9.067-2.28,9.885-6.922
		C138.18,32.732,135.08,28.306,130.439,27.488z"/>
	<path style="fill:#4D3A2D;" d="M381.561,27.488c28.96-5.104,56.391,13.899,63.803,44.211
		c23.703,96.914,56.806,240.648,66.636,283.48l-13.781,16.271c0,0-41.478-181.389-69.433-295.696
		c-5.247-21.458-24.276-34.981-44.262-31.457c-4.636,0.817-9.067-2.28-9.885-6.922C373.82,32.732,376.92,28.306,381.561,27.488z"/>
</g>
<circle style="fill:#A0C9FF;" cx="126.555" cy="377.89" r="98.918"/>
<path style="fill:#CFE4FF;" d="M154.927,283.109l-123.15,123.15c5.14,17.2,14.833,32.431,27.681,44.302l139.77-139.77
	C187.359,297.941,172.126,288.249,154.927,283.109z"/>
<circle style="fill:#A0C9FF;" cx="385.445" cy="377.89" r="98.918"/>
<path style="fill:#CFE4FF;" d="M413.811,283.109l-123.15,123.15c5.14,17.2,14.832,32.431,27.681,44.302l139.77-139.77
	C446.243,297.941,431.011,288.249,413.811,283.109z"/>
<g>
	<path style="fill:#735643;" d="M9.124,346.054c-5.039,0-9.124,4.085-9.124,9.124v13.588c0,5.039,4.085,9.124,9.124,9.124h18.517
		l5.236-31.835H9.124V346.054z"/>
	<path style="fill:#735643;" d="M502.876,346.054h-23.755l5.236,31.835h18.517c5.039,0,9.124-4.085,9.124-9.124v-13.589
		C512,350.139,507.915,346.054,502.876,346.054z"/>
</g>
<g>
	<path style="fill:#4D3A2D;" d="M385.443,287.506H126.557c-4.713,0-8.533-3.821-8.533-8.533s3.821-8.533,8.533-8.533h258.884
		c4.713,0,8.533,3.821,8.533,8.533S390.155,287.506,385.443,287.506z"/>
	<path style="fill:#4D3A2D;" d="M216.941,409.529c0,4.713,3.821,8.533,8.533,8.533c4.713,0,8.533-3.821,8.533-8.533v-31.639h-17.067
		V409.529z"/>
	<path style="fill:#4D3A2D;" d="M277.992,377.889v31.639c0,4.713,3.821,8.533,8.533,8.533s8.533-3.821,8.533-8.533v-31.639H277.992z
		"/>
</g>
<path style="fill:#735643;" d="M385.443,270.44c-54.076,0-98.942,40.157-106.365,92.215c-7.07-3.335-14.923-5.112-23.078-5.112
	c-8.154,0-16.007,1.777-23.078,5.112c-7.422-52.058-52.289-92.215-106.365-92.215c-59.249,0-107.449,48.202-107.449,107.449
	S67.31,485.339,126.557,485.339c57.906,0,105.251-46.045,107.368-103.442c6.166-4.721,13.881-7.289,22.074-7.289
	c8.193,0,15.908,2.568,22.074,7.289c2.116,57.399,49.462,103.442,107.368,103.442c59.249,0,107.449-48.202,107.449-107.449
	S444.69,270.44,385.443,270.44z M126.557,468.273c-49.838,0-90.383-40.546-90.383-90.383s40.546-90.383,90.383-90.383
	s90.383,40.546,90.383,90.383S176.395,468.273,126.557,468.273z M385.443,468.273c-49.838,0-90.383-40.546-90.383-90.383
	s40.546-90.383,90.383-90.383s90.383,40.546,90.383,90.383S435.28,468.273,385.443,468.273z"/>
<g>
</g>
<g>
</g>
<g>
</g>
<g>
</g>
<g>
</g>
<g>
</g>
<g>
</g>
<g>
</g>
<g>
</g>
<g>
</g>
<g>
</g>
<g>
</g>
<g>
</g>
<g>
</g>
<g>
</g>
</svg>
