<?xml version="1.0" encoding="iso-8859-1"?>
<!-- Generator: Adobe Illustrator 19.0.0, SVG Export Plug-In . SVG Version: 6.00 Build 0)  -->
<svg version="1.1" id="Layer_1" xmlns="http://www.w3.org/2000/svg" xmlns:xlink="http://www.w3.org/1999/xlink" x="0px" y="0px"
	 viewBox="0 0 511.999 511.999" style="enable-background:new 0 0 511.999 511.999;" xml:space="preserve">
<path style="fill:#352517;" d="M328.947,7.926c-1.268-3.419-4.005-6.087-7.455-7.269s-7.247-0.751-10.348,1.167
	c-22.82,14.122-67.963,51.522-70.12,127.295l27.257,4.67c0,0,23.465-52.974,67.651-77.166c5.285-2.893,7.661-9.227,5.565-14.876
	L328.947,7.926z"/>
<path style="fill:#A9825A;" d="M385.583,197.544c0-7.441-6.032-13.473-13.473-13.473H139.886c-7.441,0-13.473,6.032-13.473,13.473
	v154.437c0,49.161,27.385,91.902,67.726,113.853c22.568,12.282,43.688,27.993,61.857,46.161l0.002,0.002l0.002-0.002
	c18.365-18.365,39.043-33.747,61.857-46.161c40.341-21.953,67.726-64.694,67.726-113.853V197.544H385.583z"/>
<path style="fill:#7E6142;" d="M372.11,184.071H256.002v327.924c18.365-18.365,39.042-33.746,61.854-46.159
	c40.34-21.953,67.726-64.694,67.726-113.853V197.544C385.583,190.103,379.551,184.071,372.11,184.071z"/>
<path style="fill:#533F29;" d="M255.999,95.341c-75.9,0-138.379,57.469-146.294,131.267c-0.433,4.042,0.872,8.078,3.588,11.104
	c2.716,3.026,6.591,4.769,10.657,4.769h264.098c4.069,0,7.946-1.73,10.664-4.758s4.015-7.069,3.582-11.115
	C394.377,152.809,331.899,95.341,255.999,95.341z"/>
<g>
	<rect x="126.412" y="242.486" style="fill:#7E6142;" width="259.169" height="41.064"/>
	<rect x="255.996" y="242.486" style="fill:#7E6142;" width="129.584" height="41.064"/>
</g>
<path style="fill:#443221;" d="M402.292,226.608c-7.916-73.798-70.393-131.267-146.294-131.267v147.14h132.049
	c4.069,0,7.946-1.73,10.664-4.758C401.428,234.695,402.727,230.653,402.292,226.608z"/>
<g>
</g>
<g>
</g>
<g>
</g>
<g>
</g>
<g>
</g>
<g>
</g>
<g>
</g>
<g>
</g>
<g>
</g>
<g>
</g>
<g>
</g>
<g>
</g>
<g>
</g>
<g>
</g>
<g>
</g>
</svg>
