<?xml version="1.0" encoding="iso-8859-1"?>
<!-- Generator: Adobe Illustrator 19.0.0, SVG Export Plug-In . SVG Version: 6.00 Build 0)  -->
<svg version="1.1" id="Layer_1" xmlns="http://www.w3.org/2000/svg" xmlns:xlink="http://www.w3.org/1999/xlink" x="0px" y="0px"
	 viewBox="0 0 512 512" style="enable-background:new 0 0 512 512;" xml:space="preserve">
<path style="fill:#80D0E1;" d="M450.297,512h-68.014c-10.345,0-18.732-8.387-18.732-18.732V335.089
	c0-10.345,8.387-18.732,18.732-18.732h68.014c10.345,0,18.732,8.387,18.732,18.732v158.179C469.028,503.613,460.641,512,450.297,512
	z"/>
<path style="fill:#20B8AE;" d="M469.028,353.821H363.551v-176.91c0-10.345,8.387-18.732,18.732-18.732h68.014
	c10.345,0,18.732,8.387,18.732,18.732V353.821z"/>
<path style="fill:#FF9392;" d="M469.028,195.643H363.551V18.732C363.551,8.387,371.938,0,382.283,0h68.014
	c10.345,0,18.732,8.387,18.732,18.732V195.643z"/>
<path style="fill:#FFDA79;" d="M401.015,512H61.703c-10.345,0-18.732-8.387-18.732-18.732V18.732C42.972,8.387,51.359,0,61.703,0
	h339.311V512z"/>
<rect x="221.996" style="fill:#FFD155;" width="179.025" height="512"/>
<g>
	<path style="fill:#FFC72D;" d="M275.863,417.833h-107.74c-10.345,0-18.732-8.387-18.732-18.732
		c0-10.345,8.387-18.732,18.732-18.732h107.74c10.345,0,18.732,8.387,18.732,18.732
		C294.595,409.446,286.208,417.833,275.863,417.833z"/>
	<path style="fill:#FFC72D;" d="M320.418,338.744h-196.85c-10.345,0-18.732-8.387-18.732-18.732
		c0-10.345,8.387-18.732,18.732-18.732h196.85c10.345,0,18.732,8.387,18.732,18.732C339.15,330.357,330.763,338.744,320.418,338.744
		z"/>
</g>
<path style="fill:#F1F2F2;" d="M320.418,237.459h-196.85c-10.345,0-18.732-8.387-18.732-18.732V112.898
	c0-10.345,8.387-18.732,18.732-18.732h196.85c10.345,0,18.732,8.387,18.732,18.732v105.829
	C339.15,229.074,330.763,237.459,320.418,237.459z"/>
<g>
	<path style="fill:#FFBE00;" d="M275.863,380.37h-53.87v37.463h53.87c10.345,0,18.732-8.387,18.732-18.732
		C294.595,388.757,286.208,380.37,275.863,380.37z"/>
	<path style="fill:#FFBE00;" d="M320.418,301.281h-98.425v37.463h98.425c10.345,0,18.732-8.387,18.732-18.732
		C339.15,309.668,330.763,301.281,320.418,301.281z"/>
</g>
<path style="fill:#E6E7E8;" d="M320.418,94.167h-98.425v143.293h98.425c10.345,0,18.732-8.387,18.732-18.732V112.898
	C339.15,102.554,330.763,94.167,320.418,94.167z"/>
<g>
</g>
<g>
</g>
<g>
</g>
<g>
</g>
<g>
</g>
<g>
</g>
<g>
</g>
<g>
</g>
<g>
</g>
<g>
</g>
<g>
</g>
<g>
</g>
<g>
</g>
<g>
</g>
<g>
</g>
</svg>
