<?xml version="1.0" encoding="iso-8859-1"?>
<!-- Generator: Adobe Illustrator 19.0.0, SVG Export Plug-In . SVG Version: 6.00 Build 0)  -->
<svg version="1.1" id="Layer_1" xmlns="http://www.w3.org/2000/svg" xmlns:xlink="http://www.w3.org/1999/xlink" x="0px" y="0px"
	 viewBox="0 0 512 512" style="enable-background:new 0 0 512 512;" xml:space="preserve">
<path style="fill:#F1F2F2;" d="M204.375,267.435H82.045c-19.792,0-37.35-11.863-44.733-30.223L1.248,147.596
	c-4.507-11.198,3.749-23.437,15.832-23.437h74.784c6.964,0,13.229,4.231,15.831,10.69l10.505,26.087l149.775-23.869
	c10.353-1.653,19.752,6.359,19.752,16.853v56.409c0,9.425-7.641,17.066-17.066,17.066h-28.667l-23.778,32.957
	C215.007,264.8,209.858,267.435,204.375,267.435z"/>
<path style="fill:#E6E7E8;" d="M498.053,183.852c-23.104-23.748-45.258-8.711-55.675-19.819
	c-32.029-34.135-77.841-42.354-94.727-39.661l-79.675,12.697h-0.001l-14.38,2.291c0,17.376,0,68.404,0,88.037h17.066h14.871
	l-10.718,11.138c-4.744,4.931-6.085,12.219-3.405,18.516c2.679,6.296,8.861,10.383,15.703,10.383h174.962
	c26.781,0,49.17-21.473,49.906-47.867c0-0.002,0-0.005,0-0.007C512.349,206.145,507.403,193.463,498.053,183.852z"/>
<path style="fill:#D1D3D4;" d="M201.008,356.906h-61.211c-13.894,0-21.972-15.785-13.838-27.054l93.463-129.507
	c3.208-4.446,8.358-7.081,13.841-7.081h92.373c15.027,0,22.699,18.089,12.298,28.899L213.305,351.674
	C210.087,355.017,205.648,356.906,201.008,356.906z"/>
<path style="fill:#C7E9F4;" d="M365.636,388.1h-61.089c-24.103,0-43.712-19.609-43.712-43.712c0-28.456,26.997-49.591,54.859-42.281
	c29.348-51.164,107.469-30.184,107.469,28.467C423.161,362.295,397.356,388.1,365.636,388.1z"/>
<path style="fill:#80D0E1;" d="M342.719,277.585v110.517h22.918c31.72,0,57.525-25.806,57.525-57.525
	C423.161,285.664,377.357,262.842,342.719,277.585z"/>
<g>
</g>
<g>
</g>
<g>
</g>
<g>
</g>
<g>
</g>
<g>
</g>
<g>
</g>
<g>
</g>
<g>
</g>
<g>
</g>
<g>
</g>
<g>
</g>
<g>
</g>
<g>
</g>
<g>
</g>
</svg>
