<?xml version="1.0" encoding="iso-8859-1"?>
<!-- Generator: Adobe Illustrator 19.0.0, SVG Export Plug-In . SVG Version: 6.00 Build 0)  -->
<svg version="1.1" id="Layer_1" xmlns="http://www.w3.org/2000/svg" xmlns:xlink="http://www.w3.org/1999/xlink" x="0px" y="0px"
	 viewBox="0 0 495.44 495.44" style="enable-background:new 0 0 495.44 495.44;" xml:space="preserve">
<g>
	<path style="fill:#EE8700;" d="M247.72,495.44c42.756,0,78.637-29.963,87.756-69.995H247.72V495.44z"/>
	<path style="fill:#FFA733;" d="M159.964,425.445c9.12,40.032,45,69.995,87.756,69.995v-69.995H159.964z"/>
	<path style="fill:#FFCD00;" d="M413.729,385.445h41.491V328.17l-30-30v-73.54c0-79.3-52.71-148.46-127.5-170.35V50
		c0-27.57-22.43-50-50-50v219.435L413.729,385.445z"/>
	<polygon style="fill:#FFCD00;" points="247.72,385.445 357.16,385.445 247.72,276.005 	"/>
	<path style="fill:#FFDA44;" d="M247.72,276.005L99.211,127.496C80.806,155.614,70.22,189.102,70.22,224.63v73.54l-30,30v57.275
		h207.5V276.005z"/>
	<path style="fill:#FFDA44;" d="M247.72,0c-27.57,0-50,22.43-50,50v4.28c-27.89,8.163-52.707,22.903-72.868,42.287L247.72,219.435V0
		z"/>
	<polygon style="fill:#FFB655;" points="357.16,385.445 20.22,385.445 20.22,425.445 397.16,425.445 	"/>
	<polygon style="fill:#FFB655;" points="453.729,425.445 475.22,425.445 475.22,385.445 413.729,385.445 	"/>
	
		<rect x="227.72" y="-74.014" transform="matrix(-0.7071 0.7071 -0.7071 -0.7071 598.0489 247.726)" style="fill:#003F8A;" width="40.001" height="643.467"/>
</g>
<g>
</g>
<g>
</g>
<g>
</g>
<g>
</g>
<g>
</g>
<g>
</g>
<g>
</g>
<g>
</g>
<g>
</g>
<g>
</g>
<g>
</g>
<g>
</g>
<g>
</g>
<g>
</g>
<g>
</g>
</svg>
