<?xml version="1.0" encoding="iso-8859-1"?>
<!-- Generator: Adobe Illustrator 19.0.0, SVG Export Plug-In . SVG Version: 6.00 Build 0)  -->
<svg version="1.1" id="Layer_1" xmlns="http://www.w3.org/2000/svg" xmlns:xlink="http://www.w3.org/1999/xlink" x="0px" y="0px"
	 viewBox="0 0 512 512" style="enable-background:new 0 0 512 512;" xml:space="preserve">
<path style="fill:#954927;" d="M11.346,500.654c49.571,11.194,222.267,46.373,378.974-110.334S511.848,60.917,500.654,11.346
	C451.083,0.153,278.387-35.026,121.68,121.68S0.153,451.083,11.346,500.654z"/>
<path style="fill:#69351D;" d="M11.346,500.654c49.571,11.194,222.267,46.373,378.974-110.334S511.848,60.917,500.654,11.346
	C439.314,72.686,62.924,449.076,11.346,500.654z"/>
<g>
	<path style="fill:#F1F1F2;" d="M494.745,222.245c4.302-13.765,7.638-27.243,10.183-40.334L330.089,7.072
		c-13.092,2.546-26.568,5.881-40.334,10.183L494.745,222.245z"/>
	<path style="fill:#F1F1F2;" d="M181.911,504.928c13.092-2.546,26.568-5.881,40.334-10.183L17.254,289.755
		c-4.302,13.765-7.638,27.243-10.183,40.334L181.911,504.928z"/>
</g>
<g>
	<path style="fill:#DCDBDE;" d="M392.25,119.75l102.495,102.495c4.302-13.765,7.638-27.243,10.183-40.334l-87.42-87.42
		L392.25,119.75z"/>
	<path style="fill:#DCDBDE;" d="M181.911,504.928c13.092-2.546,26.568-5.881,40.334-10.183L119.751,392.25l-25.258,25.258
		L181.911,504.928z"/>
	
		<rect x="120.233" y="238.134" transform="matrix(-0.7071 0.7071 -0.7071 -0.7071 618.0255 255.9897)" style="fill:#DCDBDE;" width="271.524" height="35.717"/>
</g>
<g>
	
		<rect x="178.604" y="241.734" transform="matrix(-0.7071 0.7071 -0.7071 -0.7071 558.4948 399.7195)" style="fill:#F1F1F2;" width="35.717" height="147.588"/>
	
		<rect x="238.133" y="182.21" transform="matrix(-0.7071 0.7071 -0.7071 -0.7071 618.0271 256.0127)" style="fill:#F1F1F2;" width="35.717" height="147.588"/>
	
		<rect x="297.67" y="122.678" transform="matrix(-0.7071 0.7071 -0.7071 -0.7071 677.5673 112.2868)" style="fill:#F1F1F2;" width="35.717" height="147.588"/>
</g>
<g>
</g>
<g>
</g>
<g>
</g>
<g>
</g>
<g>
</g>
<g>
</g>
<g>
</g>
<g>
</g>
<g>
</g>
<g>
</g>
<g>
</g>
<g>
</g>
<g>
</g>
<g>
</g>
<g>
</g>
</svg>
