<?xml version="1.0" encoding="iso-8859-1"?>
<!-- Generator: Adobe Illustrator 19.0.0, SVG Export Plug-In . SVG Version: 6.00 Build 0)  -->
<svg version="1.1" id="Layer_1" xmlns="http://www.w3.org/2000/svg" xmlns:xlink="http://www.w3.org/1999/xlink" x="0px" y="0px"
	 viewBox="0 0 512 512" style="enable-background:new 0 0 512 512;" xml:space="preserve">
<g>
	<polygon style="fill:#3F4A5A;" points="275.387,0 236.593,0 225.265,56.504 286.728,56.504 	"/>
	<polygon style="fill:#3F4A5A;" points="144.847,24.553 111.206,43.96 129.646,98.657 182.892,67.796 	"/>
	<polygon style="fill:#3F4A5A;" points="44.022,111.196 24.635,144.776 67.884,182.853 98.66,129.618 	"/>
	<polygon style="fill:#3F4A5A;" points="0.013,236.588 0.041,275.412 56.558,286.74 56.558,225.28 	"/>
	<polygon style="fill:#3F4A5A;" points="24.635,367.206 44.022,400.781 98.66,382.364 67.884,329.162 	"/>
	<polygon style="fill:#3F4A5A;" points="111.206,468.009 144.847,487.375 182.892,444.157 129.646,413.33 	"/>
	<polygon style="fill:#3F4A5A;" points="236.593,512 275.387,512 286.728,455.478 225.277,455.478 	"/>
	<polygon style="fill:#3F4A5A;" points="367.206,487.375 400.809,468.009 382.369,413.33 329.137,444.157 	"/>
	<polygon style="fill:#3F4A5A;" points="468.001,400.781 487.401,367.206 444.132,329.162 413.391,382.364 	"/>
	<polygon style="fill:#3F4A5A;" points="511.987,275.412 511.987,236.588 455.496,225.28 455.496,286.74 	"/>
	<polygon style="fill:#3F4A5A;" points="487.401,144.776 468.001,111.232 413.391,129.618 444.132,182.853 	"/>
	<polygon style="fill:#3F4A5A;" points="400.809,43.96 367.145,24.612 329.137,67.796 382.369,98.657 	"/>
</g>
<g>
	<path style="fill:#333C49;" d="M255.985,54.211c-111.432,0-201.802,90.291-201.802,201.787
		c0,111.485,90.371,201.782,201.802,201.782c111.524,0,201.864-90.294,201.864-201.782
		C457.848,144.502,367.508,54.211,255.985,54.211z M255.992,409.587c-84.792,0-153.572-68.767-153.572-153.585
		c0-84.833,68.78-153.597,153.572-153.597c84.854,0,153.613,68.764,153.613,153.597C409.605,340.82,340.846,409.587,255.992,409.587
		z"/>
	<path style="fill:#333C49;" d="M333.824,333.883c-19.927,19.899-47.455,32.2-77.85,32.2c-60.754,0-110.052-49.298-110.052-110.054
		c0-45.885,28.065-85.22,67.968-101.724l42.084,101.724L333.824,333.883z"/>
</g>
<path style="fill:#F67656;" d="M366.077,256.003H255.985v-110.08C316.772,145.923,366.077,195.215,366.077,256.003z"/>
<path style="fill:#E6E5E5;" d="M366.077,256.003c0,30.4-12.314,57.915-32.241,77.855l-77.855-77.855L366.077,256.003
	L366.077,256.003z"/>
<path style="fill:#D65A38;" d="M255.974,145.917v110.111l-42.084-101.724C226.842,148.89,241.083,145.917,255.974,145.917z"/>
<g>
</g>
<g>
</g>
<g>
</g>
<g>
</g>
<g>
</g>
<g>
</g>
<g>
</g>
<g>
</g>
<g>
</g>
<g>
</g>
<g>
</g>
<g>
</g>
<g>
</g>
<g>
</g>
<g>
</g>
</svg>
