<?xml version="1.0" encoding="iso-8859-1"?>
<!-- Generator: Adobe Illustrator 19.0.0, SVG Export Plug-In . SVG Version: 6.00 Build 0)  -->
<svg version="1.1" id="Layer_1" xmlns="http://www.w3.org/2000/svg" xmlns:xlink="http://www.w3.org/1999/xlink" x="0px" y="0px"
	 viewBox="0 0 512 512" style="enable-background:new 0 0 512 512;" xml:space="preserve">
<rect y="64" style="fill:#EFEFEF;" width="512" height="384"/>
<g>
	<rect x="48.08" y="122.64" style="fill:#C9C9C9;" width="177.76" height="10.64"/>
	<rect x="48.08" y="154.64" style="fill:#C9C9C9;" width="177.76" height="10.64"/>
	<rect x="48.08" y="186.64" style="fill:#C9C9C9;" width="177.76" height="10.64"/>
	<rect x="48.08" y="218.64" style="fill:#C9C9C9;" width="177.76" height="10.64"/>
	<rect x="48.08" y="250.64" style="fill:#C9C9C9;" width="177.76" height="10.64"/>
	<rect x="48.08" y="282.64" style="fill:#C9C9C9;" width="177.76" height="10.64"/>
	<rect x="48.08" y="314.64" style="fill:#C9C9C9;" width="421.36" height="10.64"/>
	<rect x="48.08" y="346.64" style="fill:#C9C9C9;" width="421.36" height="10.64"/>
	<rect x="48.08" y="378.64" style="fill:#C9C9C9;" width="421.36" height="10.64"/>
</g>
<rect x="283.28" y="227.52" style="fill:#FF5F5F;" width="24.4" height="66.72"/>
<g>
	<rect x="242.64" y="254.8" style="fill:#8AD5DD;" width="24.4" height="39.44"/>
	<rect x="323.92" y="190.48" style="fill:#8AD5DD;" width="24.4" height="103.76"/>
</g>
<rect x="364.56" y="123.84" style="fill:#FF5F5F;" width="24.4" height="170.4"/>
<rect x="405.12" y="158.16" style="fill:#8AD5DD;" width="24.4" height="136.08"/>
<rect x="445.76" y="212.96" style="fill:#FF5F5F;" width="24.4" height="81.52"/>
<g>
</g>
<g>
</g>
<g>
</g>
<g>
</g>
<g>
</g>
<g>
</g>
<g>
</g>
<g>
</g>
<g>
</g>
<g>
</g>
<g>
</g>
<g>
</g>
<g>
</g>
<g>
</g>
<g>
</g>
</svg>
