<?xml version="1.0" encoding="iso-8859-1"?>
<!-- Generator: Adobe Illustrator 19.0.0, SVG Export Plug-In . SVG Version: 6.00 Build 0)  -->
<svg version="1.1" id="Layer_1" xmlns="http://www.w3.org/2000/svg" xmlns:xlink="http://www.w3.org/1999/xlink" x="0px" y="0px"
	 viewBox="0 0 512.001 512.001" style="enable-background:new 0 0 512.001 512.001;" xml:space="preserve">
<path style="fill:#533F29;" d="M280.736,70.887c-1.044-2.814-3.297-5.01-6.136-5.984c-2.839-0.973-5.964-0.619-8.517,0.96
	c-18.783,11.623-55.939,42.407-57.713,104.772l22.435,3.843c0,0,19.313-43.601,55.681-63.512c4.35-2.382,6.306-7.595,4.581-12.244
	L280.736,70.887z"/>
<path style="fill:#FF4D00;" d="M338.684,149.524c-25.557-8.999-57.089-5.282-83.299,7.887
	c-28.553,14.345-62.214,14.321-90.773-0.016c-26.203-13.155-57.72-16.865-83.267-7.87c-46.936,16.528-70.991,69.668-53.727,118.695
	c17.263,49.026,79.01,209.368,160.072,183.313c9.41-3.024,16.741-12.523,22.325-26.164c5.584,13.64,12.915,23.139,22.325,26.164
	c81.062,26.055,142.808-134.288,160.072-183.313C409.675,219.194,385.62,166.052,338.684,149.524z"/>
<path style="fill:#B8000C;" d="M338.684,149.524c-25.557-8.999-57.089-5.282-83.299,7.887c-14.17,7.119-29.597,10.695-45.035,10.743
	v258.004c5.541,13.211,12.764,22.41,21.99,25.375c81.062,26.055,142.808-134.288,160.072-183.313
	C409.676,219.195,385.62,166.052,338.684,149.524z"/>
<path style="fill:#A8DA64;" d="M180.409,35.103c28.253,28.253,36.457,65.856,18.325,83.988s-55.735,9.928-83.988-18.325
	C93.374,79.394,83.364,31.811,79.756,9.9c-0.446-2.708,0.441-5.466,2.382-7.406c1.941-1.94,4.699-2.827,7.407-2.382
	C111.455,3.722,159.037,13.731,180.409,35.103z"/>
<path style="fill:#7FA24D;" d="M180.409,35.103c28.253,28.253,36.457,65.856,18.325,83.988
	C145.254,46.889,82.138,2.496,82.138,2.496c1.941-1.94,4.699-2.827,7.407-2.382C111.455,3.722,159.037,13.731,180.409,35.103z"/>
<path style="fill:#FBDBAC;" d="M489.972,422.621c0-50.575-54.484-104.21-76.93-123.138c0,0-191.046,94.065-231.773,113.346
	c-14.152,6.7-14.523,21.312-13.135,30.901c12.207,84.267,183.374,69.294,234.999,63.264S489.972,468.301,489.972,422.621z"/>
<path style="fill:#B8000C;" d="M413.043,299.484c0,0-6.277,3.091-16.794,8.264c32.167,28.577,74.582,81.968,74.582,114.873
	c0,16.891-6.282,31.843-18.166,43.24c-12.49,11.976-30.384,19.626-51.751,22.122c-27.305,3.189-54.563,5.789-78.78,4.876
	c-96.909-3.656-137.823-23.083-142.449-79.204c-12.585,7.013-12.884,20.863-11.548,30.079c8.144,56.22,87.048,68.269,153.998,68.269
	c33.399,0,63.819-2.997,81-5.004c51.625-6.03,86.839-38.695,86.839-84.374C489.972,372.047,435.489,318.412,413.043,299.484z"/>
<path style="fill:#FAC678;" d="M310.114,396.639c44.262-16.888,47.735-53.41,46.929-69.615
	c-38.302,18.819-88.878,43.635-127.21,62.319C237.676,396.659,263.08,414.584,310.114,396.639z"/>
<path style="fill:#533F29;" d="M292.442,370.396c4.104-4.104,17.128-10.474,21.232-6.37s-2.266,17.128-6.37,21.232
	c-4.104,4.104-10.758,4.104-14.862,0C288.338,381.154,288.338,374.5,292.442,370.396z"/>
<g>
</g>
<g>
</g>
<g>
</g>
<g>
</g>
<g>
</g>
<g>
</g>
<g>
</g>
<g>
</g>
<g>
</g>
<g>
</g>
<g>
</g>
<g>
</g>
<g>
</g>
<g>
</g>
<g>
</g>
</svg>
