<?xml version="1.0" encoding="iso-8859-1"?>
<!-- Generator: Adobe Illustrator 19.0.0, SVG Export Plug-In . SVG Version: 6.00 Build 0)  -->
<svg version="1.1" id="Layer_1" xmlns="http://www.w3.org/2000/svg" xmlns:xlink="http://www.w3.org/1999/xlink" x="0px" y="0px"
	 viewBox="0 0 512 512" style="enable-background:new 0 0 512 512;" xml:space="preserve">
<polygon style="fill:#F2484B;" points="256,0 33.391,0 33.391,512 256,512 278.261,256 "/>
<rect x="256" style="fill:#FF9D49;" width="222.609" height="512"/>
<path style="fill:#BD1515;" d="M144.696,395.13c18.449,0,33.391,14.943,33.391,33.391c0,18.432-14.943,33.391-33.391,33.391
	c-18.432,0-33.391-14.959-33.391-33.391C111.304,410.073,126.264,395.13,144.696,395.13z"/>
<path style="fill:#FF6E1D;" d="M367.304,395.13c18.449,0,33.391,14.943,33.391,33.391c0,18.432-14.943,33.391-33.391,33.391
	c-18.432,0-33.391-14.959-33.391-33.391C333.913,410.073,348.872,395.13,367.304,395.13z"/>
<polygon style="fill:#6DA8D6;" points="189.217,66.783 100.174,66.783 100.174,144.696 144.696,166.957 189.217,144.696 "/>
<rect x="100.174" y="144.696" style="fill:#FFFFFF;" width="89.043" height="166.957"/>
<polygon style="fill:#4284B2;" points="411.826,66.783 322.783,66.783 322.783,144.696 367.304,166.957 411.826,144.696 "/>
<rect x="322.783" y="144.696" style="fill:#F2EBD9;" width="89.043" height="166.957"/>
<g>
</g>
<g>
</g>
<g>
</g>
<g>
</g>
<g>
</g>
<g>
</g>
<g>
</g>
<g>
</g>
<g>
</g>
<g>
</g>
<g>
</g>
<g>
</g>
<g>
</g>
<g>
</g>
<g>
</g>
</svg>
