<?xml version="1.0" encoding="iso-8859-1"?>
<!-- Generator: Adobe Illustrator 19.0.0, SVG Export Plug-In . SVG Version: 6.00 Build 0)  -->
<svg version="1.1" id="Layer_1" xmlns="http://www.w3.org/2000/svg" xmlns:xlink="http://www.w3.org/1999/xlink" x="0px" y="0px"
	 viewBox="0 0 512.001 512.001" style="enable-background:new 0 0 512.001 512.001;" xml:space="preserve">
<path style="fill:#D64394;" d="M255.989,512c-53.884,0-97.022-43.79-97.022-96.915c0-2.003,0.059-4.032,0.19-6.073l7.71-124.943
	l1.661-26.889v-0.012l36.686-85.493l50.788-1.186l50.788,4.744l36.674,81.935l1.661,26.889l7.71,124.955
	C356.273,464.829,311.925,512,255.989,512z"/>
<g>
	<polygon style="fill:#BC3987;" points="345.124,284.057 343.463,282.076 306.789,238.393 256.001,298.883 205.212,238.393 
		168.526,282.076 168.526,282.088 166.866,284.069 168.526,257.18 168.526,257.168 205.212,171.675 256.001,170.489 
		306.789,175.233 343.463,257.168 	"/>
	<path style="fill:#BC3987;" d="M209.968,415.084c0-2.003,0.059-4.031,0.19-6.073l9.37-151.832v-0.012l11.181-49.911l-25.497-30.369
		l-36.686,80.281v0.012l-9.37,151.832c-0.13,2.041-0.19,4.069-0.19,6.073c0,53.125,43.138,96.915,97.022,96.915
		c8.851,0,17.411-1.184,25.538-3.393C240.14,497.384,209.968,459.507,209.968,415.084z"/>
</g>
<path style="fill:#9AD14B;" d="M351.647,177.926l5.93,96.05l-14.114-16.807l-36.674-43.684l-50.788,60.491l-50.788-60.491
	l-36.686,43.684v0.012l-14.103,16.795l5.919-96.05c2.064-33.46,21.255-62.116,48.701-77.606
	c10.046-5.67,16.676-15.894,18.123-27.328l7.105-56.351c0.593-4.756,2.918-8.919,6.286-11.885C243.926,1.779,248.35,0,253.142,0
	c9.584,0,17.661,7.128,18.871,16.641l6.69,53.101c1.542,12.229,9.097,22.868,20.116,28.407
	C328.447,113.011,349.488,142.817,351.647,177.926z"/>
<path style="fill:#90BC42;" d="M203.042,177.926c2.064-33.46,21.255-62.114,48.701-77.606c10.046-5.67,16.676-15.892,18.123-27.328
	l4.625-36.681l-2.478-19.67C270.803,7.128,262.726,0,253.142,0c-4.792,0-9.216,1.779-12.584,4.756
	c-3.368,2.965-5.693,7.13-6.286,11.886l-7.105,56.351c-1.447,11.435-8.077,21.658-18.123,27.328
	c-27.446,15.492-46.637,44.146-48.701,77.606l-5.919,96.05l14.103-16.795v-0.012l31.978-38.078L203.042,177.926z"/>
<g>
</g>
<g>
</g>
<g>
</g>
<g>
</g>
<g>
</g>
<g>
</g>
<g>
</g>
<g>
</g>
<g>
</g>
<g>
</g>
<g>
</g>
<g>
</g>
<g>
</g>
<g>
</g>
<g>
</g>
</svg>
