<?xml version="1.0" encoding="iso-8859-1"?>
<!-- Generator: Adobe Illustrator 19.0.0, SVG Export Plug-In . SVG Version: 6.00 Build 0)  -->
<svg version="1.1" id="Layer_1" xmlns="http://www.w3.org/2000/svg" xmlns:xlink="http://www.w3.org/1999/xlink" x="0px" y="0px"
	 viewBox="0 0 512 512" style="enable-background:new 0 0 512 512;" xml:space="preserve">
<path style="fill:#957856;" d="M279.273,38.193v-14.92C279.273,10.42,268.853,0,256,0c-12.853,0-23.273,10.42-23.273,23.273v14.92
	C139.083,57.428,71.607,190.11,71.607,309.705c0,62.169,18.602,114.123,53.794,150.242C158.105,493.513,204.487,512,256,512
	s97.894-18.487,130.597-52.051c35.194-36.12,53.795-88.074,53.795-150.242C440.393,190.11,372.919,57.428,279.273,38.193z"/>
<path id="SVGCleanerId_0" style="fill:#A4E276;" d="M350.057,152.013C323.066,107.741,288.784,82.35,256,82.35
	c-32.786,0-67.069,25.391-94.057,69.663c-27.419,44.976-43.789,103.926-43.789,157.692c0,96.069,52.82,155.748,137.846,155.748
	s137.846-59.679,137.846-155.748C393.846,255.941,377.476,196.99,350.057,152.013z"/>
<path style="fill:#6A563D;" d="M118.154,309.705c0-53.766,16.37-112.716,43.789-157.692C188.933,107.741,223.214,82.35,256,82.35
	c-11.838,0-21.591-8.847-23.061-20.285c-0.124-0.981-0.213-1.972-0.213-2.988V38.193C139.083,57.428,71.607,190.11,71.607,309.705
	c0,62.169,18.602,114.123,53.794,150.242C158.105,493.513,204.487,512,256,512v-46.547
	C170.973,465.453,118.154,405.775,118.154,309.705z"/>
<g>
	<path id="SVGCleanerId_0_1_" style="fill:#A4E276;" d="M350.057,152.013C323.066,107.741,288.784,82.35,256,82.35
		c-32.786,0-67.069,25.391-94.057,69.663c-27.419,44.976-43.789,103.926-43.789,157.692c0,96.069,52.82,155.748,137.846,155.748
		s137.846-59.679,137.846-155.748C393.846,255.941,377.476,196.99,350.057,152.013z"/>
</g>
<g>
	<path style="fill:#A78966;" d="M256,250.63c-42.446,0-76.979,34.533-76.979,76.979s34.533,76.979,76.979,76.979
		s76.979-34.533,76.979-76.979S298.447,250.63,256,250.63z"/>
	<path style="fill:#A78966;" d="M232.939,62.065C234.409,73.503,244.162,82.35,256,82.35c11.838,0,21.591-8.847,23.061-20.285
		c0.124-0.981,0.213-1.972,0.213-2.988V38.193v-14.92C279.273,10.42,268.853,0,256,0c-12.853,0-23.273,10.42-23.273,23.273v14.92
		v20.884C232.727,60.092,232.815,61.085,232.939,62.065z"/>
</g>
<path style="fill:#806749;" d="M179.021,327.609c0,42.446,34.533,76.979,76.979,76.979V250.629
	C213.554,250.63,179.021,285.163,179.021,327.609z"/>
<path style="fill:#64C37D;" d="M161.943,152.013c-27.419,44.976-43.789,103.926-43.789,157.692
	c0,96.069,52.82,155.748,137.846,155.748v-60.864c-42.446,0-76.979-34.533-76.979-76.979s34.533-76.979,76.979-76.979V82.35
	C223.214,82.35,188.933,107.741,161.943,152.013z"/>
<g>
</g>
<g>
</g>
<g>
</g>
<g>
</g>
<g>
</g>
<g>
</g>
<g>
</g>
<g>
</g>
<g>
</g>
<g>
</g>
<g>
</g>
<g>
</g>
<g>
</g>
<g>
</g>
<g>
</g>
</svg>
