<?xml version="1.0" encoding="iso-8859-1"?>
<!-- Generator: Adobe Illustrator 19.0.0, SVG Export Plug-In . SVG Version: 6.00 Build 0)  -->
<svg version="1.1" id="Layer_1" xmlns="http://www.w3.org/2000/svg" xmlns:xlink="http://www.w3.org/1999/xlink" x="0px" y="0px"
	 viewBox="0 0 512.004 512.004" style="enable-background:new 0 0 512.004 512.004;" xml:space="preserve">
<rect x="234.697" y="403.421" style="fill:#DFDFE1;" width="42.615" height="108.583"/>
<polygon style="fill:#E17858;" points="304.683,426.149 207.321,426.149 256.001,328.787 "/>
<g>
	<polygon style="fill:#FF4F19;" points="256.001,328.787 256.001,426.149 304.683,426.149 	"/>
	<path style="fill:#FF4F19;" d="M451.472,29.83c-39.773-39.774-104.257-39.774-144.03,0L256.003,81.27l-51.44-51.439
		c-39.773-39.774-104.257-39.774-144.03,0c-39.773,39.773-39.773,104.257,0,144.03l195.469,195.469L451.47,173.86
		C491.244,134.086,491.244,69.603,451.472,29.83z"/>
</g>
<path style="fill:#AF2E08;" d="M451.472,29.83c-39.773-39.774-104.257-39.774-144.03,0L256.003,81.27v288.06L451.472,173.86
	C491.244,134.086,491.244,69.603,451.472,29.83z"/>
<g>
</g>
<g>
</g>
<g>
</g>
<g>
</g>
<g>
</g>
<g>
</g>
<g>
</g>
<g>
</g>
<g>
</g>
<g>
</g>
<g>
</g>
<g>
</g>
<g>
</g>
<g>
</g>
<g>
</g>
</svg>
