<?xml version="1.0" encoding="iso-8859-1"?>
<!-- Generator: Adobe Illustrator 19.0.0, SVG Export Plug-In . SVG Version: 6.00 Build 0)  -->
<svg version="1.1" id="Layer_1" xmlns="http://www.w3.org/2000/svg" xmlns:xlink="http://www.w3.org/1999/xlink" x="0px" y="0px"
	 viewBox="0 0 511.999 511.999" style="enable-background:new 0 0 511.999 511.999;" xml:space="preserve">
<path style="fill:#A4E276;" d="M380.121,62.06c-24.429,0-46.491,10.316-62.061,26.823c-5.328-5.649-11.432-10.55-18.115-14.583
	l34.571-34.571c9.089-9.087,9.089-23.824,0-32.912c-9.087-9.089-23.824-9.089-32.912,0l-55.884,55.884
	c-20.297,2.448-38.431,12.029-51.782,26.183c-15.568-16.507-37.63-26.824-62.059-26.824c-47.053,0-85.333,38.281-85.333,85.333
	c0,1.215,0.096,2.428,0.285,3.629L93.12,444.187c1.063,37.575,31.96,67.812,69.789,67.812c17.866,0,34.185-6.744,46.545-17.821
	c12.361,11.076,28.68,17.821,46.545,17.821s34.185-6.744,46.545-17.821c12.361,11.076,28.68,17.821,46.545,17.821
	c37.829,0,68.726-30.237,69.789-67.812l46.291-293.163c0.189-1.201,0.284-2.416,0.284-3.631
	C465.454,100.34,427.174,62.06,380.121,62.06z"/>
<path style="fill:#368B4C;" d="M276.706,64.626c8.294,2.076,16.103,5.367,23.24,9.674l34.571-34.571
	c9.089-9.087,9.089-23.824,0-32.912c-9.087-9.089-23.824-9.089-32.912,0l-55.884,55.884c3.373-0.408,6.799-0.641,10.279-0.641
	C263.143,62.06,270.072,62.964,276.706,64.626z"/>
<path style="fill:#64C37D;" d="M93.12,444.187c1.063,37.575,31.96,67.812,69.789,67.812c17.866,0,34.185-6.744,46.545-17.821
	c12.361,11.076,28.68,17.821,46.545,17.821V62.06c-3.48,0-6.906,0.231-10.279,0.639c-20.297,2.448-38.431,12.029-51.782,26.183
	C178.37,72.377,156.307,62.06,131.878,62.06c-47.053,0-85.333,38.281-85.333,85.333c0,1.215,0.096,2.428,0.285,3.629L93.12,444.187z
	"/>
<g>
</g>
<g>
</g>
<g>
</g>
<g>
</g>
<g>
</g>
<g>
</g>
<g>
</g>
<g>
</g>
<g>
</g>
<g>
</g>
<g>
</g>
<g>
</g>
<g>
</g>
<g>
</g>
<g>
</g>
</svg>
