<?xml version="1.0" encoding="iso-8859-1"?>
<!-- Generator: Adobe Illustrator 19.0.0, SVG Export Plug-In . SVG Version: 6.00 Build 0)  -->
<svg version="1.1" id="Layer_1" xmlns="http://www.w3.org/2000/svg" xmlns:xlink="http://www.w3.org/1999/xlink" x="0px" y="0px"
	 viewBox="0 0 512.001 512.001" style="enable-background:new 0 0 512.001 512.001;" xml:space="preserve">
<path style="fill:#FBDBAC;" d="M411.593,483.868c-6.284-3.336-10.831-13.048-10.831-24.516c0-11.467,4.547-21.177,10.831-24.512
	v-1.244H114.043v51.511h297.549V483.868z"/>
<path style="fill:#FAC678;" d="M411.593,434.842v-1.244H256v51.511h155.593v-1.24c-6.284-3.336-10.831-13.048-10.831-24.516
	C400.762,447.885,405.309,438.175,411.593,434.842z"/>
<path style="fill:#A9825A;" d="M134.851,442.409c8.035,0,270.939,0,278.89,0c8.422,0,15.249-6.827,15.249-15.249V15.249
	C428.989,6.828,422.163,0,413.74,0H117.808C98.59,0,83.012,15.578,83.012,34.796c0,21.646,0,405.389,0,425.365l0,0l0,0
	c0,28.584,23.255,51.84,51.839,51.84h277.093c9.413,0,17.044-7.631,17.044-17.044c0-9.413-7.631-17.044-17.044-17.044H134.851
	c-9.788,0-17.751-7.963-17.751-17.752C117.1,450.372,125.063,442.409,134.851,442.409z"/>
<g>
	<path style="fill:#7E6142;" d="M413.74,0H256v442.409c73.283,0,153.406,0,157.74,0c8.422,0,15.249-6.827,15.249-15.249V15.249
		C428.989,6.827,422.162,0,413.74,0z"/>
	<path style="fill:#7E6142;" d="M411.945,477.912H256V512h155.944c9.413,0,17.044-7.631,17.044-17.044
		S421.358,477.912,411.945,477.912z"/>
</g>
<path style="fill:#FFDC35;" d="M256,270.561c-9.413,0-17.044-7.631-17.044-17.044v-149.99c0-9.413,7.631-17.044,17.044-17.044
	s17.044,7.631,17.044,17.044v149.99C273.044,262.931,265.414,270.561,256,270.561z"/>
<path style="fill:#FFEA8D;" d="M293.498,164.886h-74.996c-9.413,0-17.044-7.631-17.044-17.044c0-9.413,7.631-17.044,17.044-17.044
	h74.996c9.413,0,17.044,7.631,17.044,17.044C310.542,157.255,302.912,164.886,293.498,164.886z"/>
<path style="fill:#FBDBAC;" d="M417.066,433.597c0.223,0,0.443,0.012,0.662,0.027v-0.027H417.066z"/>
<g>
</g>
<g>
</g>
<g>
</g>
<g>
</g>
<g>
</g>
<g>
</g>
<g>
</g>
<g>
</g>
<g>
</g>
<g>
</g>
<g>
</g>
<g>
</g>
<g>
</g>
<g>
</g>
<g>
</g>
</svg>
