<?xml version="1.0" encoding="iso-8859-1"?>
<!-- Generator: Adobe Illustrator 19.0.0, SVG Export Plug-In . SVG Version: 6.00 Build 0)  -->
<svg version="1.1" id="Layer_1" xmlns="http://www.w3.org/2000/svg" xmlns:xlink="http://www.w3.org/1999/xlink" x="0px" y="0px"
	 viewBox="0 0 512 512" style="enable-background:new 0 0 512 512;" xml:space="preserve">
<g>
	<polygon style="fill:#E86C59;" points="256,52.966 150.069,158.897 150.069,353.103 361.931,353.103 361.931,158.897 	"/>
	<polygon style="fill:#816652;" points="238.345,512 273.655,512 273.655,388.414 238.345,388.414 	"/>
	<polygon style="fill:#B49377;" points="114.759,388.414 397.241,388.414 397.241,353.103 114.759,353.103 	"/>
	<path style="fill:#FFFFFF;" d="M300.138,185.379c0-24.373-19.765-44.138-44.138-44.138s-44.138,19.765-44.138,44.138
		s19.765,44.138,44.138,44.138S300.138,209.752,300.138,185.379"/>
	<path style="fill:#FFCC5D;" d="M291.31,308.966H220.69c-4.882,0-8.828-3.955-8.828-8.828c0-4.873,3.946-8.828,8.828-8.828h70.621
		c4.882,0,8.828,3.955,8.828,8.828C300.138,305.011,296.192,308.966,291.31,308.966"/>
	<polygon style="fill:#C2493D;" points="256,0 97.103,158.897 123.586,185.379 256,52.966 388.414,185.379 414.897,158.897 	"/>
</g>
<g>
</g>
<g>
</g>
<g>
</g>
<g>
</g>
<g>
</g>
<g>
</g>
<g>
</g>
<g>
</g>
<g>
</g>
<g>
</g>
<g>
</g>
<g>
</g>
<g>
</g>
<g>
</g>
<g>
</g>
</svg>
