<?xml version="1.0" encoding="iso-8859-1"?>
<!-- Generator: Adobe Illustrator 19.0.0, SVG Export Plug-In . SVG Version: 6.00 Build 0)  -->
<svg version="1.1" id="Layer_1" xmlns="http://www.w3.org/2000/svg" xmlns:xlink="http://www.w3.org/1999/xlink" x="0px" y="0px"
	 viewBox="0 0 512 512" style="enable-background:new 0 0 512 512;" xml:space="preserve">
<path style="fill:#F7B239;" d="M256.007,0c141.379,0,255.985,114.621,255.985,256S397.386,512,256.007,512
	c-141.394,0-256-114.621-256-256S114.614,0,256.007,0z"/>
<g>
	<path style="fill:#B27214;" d="M373.655,245.165c21.655,0,39.201,17.546,39.201,39.201c0,21.64-17.546,39.201-39.201,39.201
		c-21.64,0-39.201-17.561-39.201-39.201C334.454,262.711,352.015,245.165,373.655,245.165z"/>
	<path style="fill:#B27214;" d="M184.594,323.568c17.824,0,32.271,14.446,32.271,32.271c0,17.839-14.446,32.285-32.271,32.285
		c-17.839,0-32.285-14.446-32.285-32.285C152.309,338.014,166.755,323.568,184.594,323.568z"/>
	<path style="fill:#B27214;" d="M199.581,127.576c14.637,0,26.509,11.873,26.509,26.524c0,14.637-11.873,26.509-26.509,26.509
		c-14.651,0-26.524-11.873-26.524-26.509C173.057,139.449,184.93,127.576,199.581,127.576z"/>
</g>
<path style="fill:#E09B2D;" d="M124.293,256c0-119.946,82.498-220.616,193.854-248.388C298.251,2.649,277.44,0,256.007,0
	c-141.394,0-256,114.621-256,256s114.606,256,256,256c21.433,0,42.244-2.65,62.14-7.612
	C206.791,476.616,124.293,375.946,124.293,256z"/>
<g>
</g>
<g>
</g>
<g>
</g>
<g>
</g>
<g>
</g>
<g>
</g>
<g>
</g>
<g>
</g>
<g>
</g>
<g>
</g>
<g>
</g>
<g>
</g>
<g>
</g>
<g>
</g>
<g>
</g>
</svg>
