<?xml version="1.0" encoding="iso-8859-1"?>
<!-- Generator: Adobe Illustrator 19.0.0, SVG Export Plug-In . SVG Version: 6.00 Build 0)  -->
<svg version="1.1" id="Layer_1" xmlns="http://www.w3.org/2000/svg" xmlns:xlink="http://www.w3.org/1999/xlink" x="0px" y="0px"
	 viewBox="0 0 512 512" style="enable-background:new 0 0 512 512;" xml:space="preserve">
<path style="fill:#EFC27B;" d="M370.439,72.752C343.837,25.837,303.195,0,256.001,0s-87.836,25.837-114.438,72.752
	c-20.944,36.935-32.956,86.761-32.956,136.702c0,2.599,0.045,5.184,0.11,7.758h23.271h23.288h100.724h100.724h23.288h23.271
	c0.067-2.576,0.11-5.159,0.11-7.758C403.395,159.513,391.383,109.687,370.439,72.752z"/>
<path style="fill:#DEDEE0;" d="M433.052,244.86c1.305-6.816-0.5-13.857-4.921-19.205c-4.422-5.348-10.997-8.443-17.935-8.443h-6.91
	h-23.271h-23.288H256.001H155.276h-23.288h-23.271h-6.91c-6.94,0-13.515,3.097-17.937,8.443c-4.422,5.347-6.226,12.389-4.921,19.205
	c9.91,51.763,31.981,92.708,64.416,120.064c-22.568,31.024-34.757,73.883-34.757,123.803c0,12.853,10.42,23.273,23.273,23.273
	h124.121h124.121c12.853,0,23.273-10.42,23.273-23.273c0-49.92-12.189-92.779-34.757-123.803
	C401.071,337.568,423.144,296.623,433.052,244.86z"/>
<path style="fill:#ECB45C;" d="M155.276,217.212h100.724V0c-47.194,0-87.836,25.837-114.438,72.752
	c-20.944,36.935-32.956,86.762-32.956,136.702c0,2.599,0.045,5.184,0.11,7.758h23.271H155.276z"/>
<path style="fill:#C3C3C7;" d="M178.219,384.222h-0.127c-0.321,0-0.642-0.019-0.962-0.031c-0.2-0.008-0.402-0.009-0.6-0.022
	c-0.335-0.023-0.667-0.061-0.999-0.098c-0.199-0.023-0.399-0.04-0.597-0.068c-0.337-0.045-0.669-0.104-1.001-0.164
	c-0.188-0.034-0.377-0.068-0.565-0.107c-0.337-0.07-0.67-0.147-1.002-0.233c-0.175-0.045-0.352-0.092-0.528-0.141
	c-0.338-0.095-0.673-0.194-1.002-0.301c-0.163-0.053-0.323-0.112-0.486-0.168c-0.34-0.119-0.678-0.242-1.01-0.377
	c-0.135-0.056-0.268-0.116-0.405-0.174c-0.352-0.152-0.704-0.304-1.049-0.473c-0.064-0.031-0.124-0.065-0.186-0.096
	c-0.397-0.197-0.791-0.403-1.178-0.624c-0.057-0.033-0.115-0.068-0.172-0.102c-1.412-0.811-2.807-1.643-4.188-2.493
	c-6.608-4.073-12.874-8.625-18.8-13.622c-22.567,31.021-34.755,73.88-34.755,123.8c0,12.853,10.42,23.273,23.273,23.273h124.121
	V384.222H178.219z"/>
<g>
	<path style="fill:#D6D5D8;" d="M345.593,381.074c-0.039,0.023-0.078,0.047-0.116,0.068c-0.348,0.199-0.703,0.382-1.058,0.562
		c-0.107,0.054-0.213,0.113-0.321,0.166c-0.323,0.158-0.655,0.299-0.985,0.442c-0.157,0.067-0.309,0.138-0.467,0.202
		c-0.321,0.13-0.649,0.248-0.976,0.365c-0.172,0.062-0.343,0.123-0.517,0.18c-0.323,0.105-0.65,0.203-0.981,0.295
		c-0.182,0.051-0.365,0.099-0.549,0.147c-0.326,0.082-0.655,0.16-0.987,0.228c-0.191,0.04-0.385,0.074-0.577,0.11
		c-0.329,0.059-0.659,0.116-0.991,0.163c-0.2,0.028-0.402,0.045-0.602,0.068c-0.332,0.036-0.661,0.076-0.996,0.098
		c-0.199,0.012-0.4,0.014-0.6,0.022c-0.32,0.014-0.641,0.031-0.962,0.031h-0.127h-77.779V512h124.121
		c12.853,0,23.273-10.42,23.273-23.273c0-49.92-12.189-92.779-34.757-123.803c-5.925,4.999-12.192,9.55-18.8,13.622
		C348.437,379.411,347.022,380.253,345.593,381.074z"/>
	<path style="fill:#D6D5D8;" d="M83.871,225.655c-4.422,5.348-6.226,12.389-4.921,19.205c9.91,51.763,31.981,92.708,64.416,120.064
		c5.925,4.999,12.192,9.55,18.8,13.622c1.382,0.852,2.776,1.683,4.188,2.493c0.057,0.033,0.115,0.068,0.172,0.102
		c0.386,0.222,0.78,0.427,1.178,0.624c0.062,0.031,0.123,0.065,0.186,0.096c0.344,0.168,0.697,0.321,1.049,0.473
		c0.137,0.057,0.27,0.119,0.405,0.174c0.334,0.135,0.672,0.258,1.01,0.377c0.161,0.057,0.321,0.115,0.486,0.168
		c0.33,0.109,0.666,0.208,1.002,0.301c0.175,0.05,0.351,0.096,0.528,0.141c0.332,0.085,0.666,0.163,1.002,0.233
		c0.188,0.039,0.377,0.071,0.565,0.107c0.332,0.06,0.664,0.118,1.001,0.164c0.199,0.028,0.399,0.045,0.597,0.068
		c0.332,0.036,0.664,0.074,0.999,0.098c0.199,0.012,0.4,0.014,0.6,0.022c0.32,0.014,0.641,0.031,0.962,0.031h0.127h77.779V217.212
		H155.276h-23.288h-23.271h-6.91C94.868,217.212,88.291,220.309,83.871,225.655z"/>
</g>
<g>
</g>
<g>
</g>
<g>
</g>
<g>
</g>
<g>
</g>
<g>
</g>
<g>
</g>
<g>
</g>
<g>
</g>
<g>
</g>
<g>
</g>
<g>
</g>
<g>
</g>
<g>
</g>
<g>
</g>
</svg>
