<?xml version="1.0" encoding="iso-8859-1"?>
<!-- Generator: Adobe Illustrator 19.0.0, SVG Export Plug-In . SVG Version: 6.00 Build 0)  -->
<svg version="1.1" id="Layer_1" xmlns="http://www.w3.org/2000/svg" xmlns:xlink="http://www.w3.org/1999/xlink" x="0px" y="0px"
	 viewBox="0 0 512 512" style="enable-background:new 0 0 512 512;" xml:space="preserve">
<path style="fill:#E6E6E6;" d="M411.706,206.838l-163.351,34.369l-148.06-34.369C100.295,113.946,170.001,0,256.006,0
	C341.999,0,411.706,113.946,411.706,206.838z"/>
<path style="fill:#CCCCCC;" d="M289.799,5.911C278.918,2.093,267.613,0,256.006,0c-86.005,0-155.712,113.946-155.712,206.838h67.59
	C167.884,126.484,220.049,30.391,289.799,5.911z"/>
<path style="fill:#2BA5F7;" d="M433.87,206.838h-22.164H100.295H78.13c0,90.213,59.517,165.901,138.929,184.865v78.188
	c-11.631,0-22.152,4.719-29.765,12.332c-7.626,7.613-12.332,18.146-12.332,29.778h162.076c0-23.261-18.849-42.11-42.097-42.11
	v-78.188C374.353,372.752,433.87,297.051,433.87,206.838z"/>
<path style="fill:#2197D8;" d="M256.006,396.281c13.365,0,26.398-1.581,38.934-4.578c2.992-0.714,5.952-1.518,8.885-2.391
	c-74.925-22.303-130.049-95.658-130.049-182.474h-73.482H78.13c0,90.213,59.517,165.901,138.929,184.865l0,0v78.188
	c-11.631,0-22.152,4.719-29.765,12.332c-7.626,7.613-12.332,18.146-12.332,29.778h42.084c0-11.631,4.706-22.164,12.332-29.778
	c7.613-7.613,18.135-12.332,29.765-12.332h-7.562v-73.674C253.053,396.254,254.527,396.281,256.006,396.281z"/>
<g>
</g>
<g>
</g>
<g>
</g>
<g>
</g>
<g>
</g>
<g>
</g>
<g>
</g>
<g>
</g>
<g>
</g>
<g>
</g>
<g>
</g>
<g>
</g>
<g>
</g>
<g>
</g>
<g>
</g>
</svg>
