<?xml version="1.0" encoding="iso-8859-1"?>
<!-- Generator: Adobe Illustrator 19.0.0, SVG Export Plug-In . SVG Version: 6.00 Build 0)  -->
<svg version="1.1" id="Layer_1" xmlns="http://www.w3.org/2000/svg" xmlns:xlink="http://www.w3.org/1999/xlink" x="0px" y="0px"
	 viewBox="0 0 512 512" style="enable-background:new 0 0 512 512;" xml:space="preserve">
<rect x="92.754" y="408.116" style="fill:#F2F2F4;" width="356.174" height="74.203"/>
<rect x="256" y="408.116" style="fill:#DFDFE1;" width="192.928" height="74.203"/>
<path style="fill:#B4D8F1;" d="M448.928,512H129.855c-36.824,0-66.783-29.959-66.783-66.783V66.783
	C63.072,29.959,93.031,0,129.855,0h319.072v422.957H129.855c-12.275,0-22.261,9.986-22.261,22.261s9.986,22.261,22.261,22.261
	h319.072V512z"/>
<rect x="256" style="fill:#98C8ED;" width="192.928" height="422.957"/>
<path style="fill:#FF4F19;" d="M256,304.232l86.399-86.399c17.58-17.58,17.58-46.083,0-63.662c-17.58-17.58-46.083-17.58-63.662,0
	L256,176.907l-22.737-22.737c-17.58-17.58-46.083-17.58-63.662,0c-17.58,17.58-17.58,46.083,0,63.662L256,304.232z"/>
<path style="fill:#AF2E08;" d="M342.399,154.17c-17.58-17.58-46.083-17.58-63.662,0L256,176.906v127.326l86.399-86.399
	C359.979,200.253,359.979,171.75,342.399,154.17z"/>
<path style="fill:#98C8ED;" d="M129.855,422.957h319.072v-44.522H129.855c-36.883,0-66.783,29.899-66.783,66.783
	c0,36.824,29.959,66.783,66.783,66.783h319.072v-44.522H129.855c-12.275,0-22.261-9.986-22.261-22.261
	S117.58,422.957,129.855,422.957z"/>
<g>
	<rect x="256" y="467.478" style="fill:#7AB9E8;" width="192.928" height="44.522"/>
	<rect x="256" y="378.435" style="fill:#7AB9E8;" width="192.928" height="44.522"/>
</g>
<g>
</g>
<g>
</g>
<g>
</g>
<g>
</g>
<g>
</g>
<g>
</g>
<g>
</g>
<g>
</g>
<g>
</g>
<g>
</g>
<g>
</g>
<g>
</g>
<g>
</g>
<g>
</g>
<g>
</g>
</svg>
