<?xml version="1.0" encoding="iso-8859-1"?>
<!-- Generator: Adobe Illustrator 19.0.0, SVG Export Plug-In . SVG Version: 6.00 Build 0)  -->
<svg version="1.1" id="Layer_1" xmlns="http://www.w3.org/2000/svg" xmlns:xlink="http://www.w3.org/1999/xlink" x="0px" y="0px"
	 viewBox="0 0 512 512" style="enable-background:new 0 0 512 512;" xml:space="preserve">
<path style="fill:#FFB655;" d="M430.971,176.175c-22.638-11.318-48.766-20.165-77.062-26.332c-0.064-0.014-0.126-0.028-0.188-0.042
	c-30.559-6.645-63.648-10.164-97.721-10.164s-67.162,3.519-97.721,10.164c-0.062,0.014-0.124,0.028-0.188,0.042
	c-28.297,6.167-54.424,15.014-77.062,26.332C28.778,202.302,0,238.915,0,279.273c0,14.204,4.745,34.797,27.341,52.241
	c14.018,10.822,33.116,19.194,58.382,25.592c40.536,10.266,96.234,15.258,170.277,15.258s129.741-4.991,170.277-15.258
	c25.266-6.398,44.364-14.77,58.382-25.592C507.255,314.07,512,293.477,512,279.273C512,238.915,483.222,202.302,430.971,176.175z"/>
<g>
	<path style="fill:#806749;" d="M139.636,172.609v5.871v24.211v6.794c0,12.853,10.42,23.273,23.273,23.273
		c12.853,0,23.273-10.42,23.273-23.273v-17.743v-19.135c0-1.472-0.152-2.906-0.414-4.302c-2.02-10.794-11.477-18.97-22.858-18.97
		c-1.584,0-3.134,0.161-4.63,0.464c-0.062,0.014-0.124,0.028-0.188,0.042C147.552,152.062,139.636,161.409,139.636,172.609z"/>
	<path style="fill:#806749;" d="M326.232,168.307c-0.262,1.396-0.414,2.83-0.414,4.302v19.135v17.743
		c0,12.853,10.42,23.273,23.273,23.273c12.853,0,23.273-10.42,23.273-23.273v-6.794v-24.211v-5.871
		c0-11.2-7.916-20.547-18.455-22.767c-0.064-0.014-0.126-0.029-0.188-0.042c-1.497-0.303-3.046-0.464-4.63-0.464
		C337.709,149.336,328.251,157.511,326.232,168.307z"/>
	<path style="fill:#806749;" d="M256,139.636c-12.853,0-23.273,10.42-23.273,23.273v0.577v23.29v22.678
		c0,12.853,10.42,23.273,23.273,23.273c12.853,0,23.273-10.42,23.273-23.273v-22.678v-23.29v-0.577
		C279.273,150.056,268.853,139.636,256,139.636z"/>
</g>
<path style="fill:#EE8700;" d="M232.727,209.455v-22.678v-23.29v-0.577c0-12.853,10.42-23.273,23.273-23.273
	c-34.073,0-67.162,3.519-97.721,10.164c1.497-0.303,3.046-0.464,4.63-0.464c11.382,0,20.84,8.176,22.858,18.97
	c0.262,1.396,0.414,2.83,0.414,4.302v19.135v17.743c0,12.853-10.42,23.273-23.273,23.273c-12.853,0-23.273-10.42-23.273-23.273
	v-6.794v-24.211v-5.871c0-11.2,7.916-20.547,18.455-22.767c-28.297,6.167-54.424,15.014-77.062,26.332
	C28.778,202.302,0,238.915,0,279.273c0,14.204,4.745,34.797,27.341,52.241c14.018,10.822,33.116,19.194,58.382,25.592
	c40.536,10.266,96.234,15.258,170.277,15.258V232.727C243.147,232.727,232.727,222.307,232.727,209.455z"/>
<g>
</g>
<g>
</g>
<g>
</g>
<g>
</g>
<g>
</g>
<g>
</g>
<g>
</g>
<g>
</g>
<g>
</g>
<g>
</g>
<g>
</g>
<g>
</g>
<g>
</g>
<g>
</g>
<g>
</g>
</svg>
