<?xml version="1.0" encoding="iso-8859-1"?>
<!-- Generator: Adobe Illustrator 19.0.0, SVG Export Plug-In . SVG Version: 6.00 Build 0)  -->
<svg version="1.1" id="Layer_1" xmlns="http://www.w3.org/2000/svg" xmlns:xlink="http://www.w3.org/1999/xlink" x="0px" y="0px"
	 viewBox="0 0 512 512" style="enable-background:new 0 0 512 512;" xml:space="preserve">
<path style="fill:#A78966;" d="M411.151,38.788H256H100.848C45.241,38.788,0,84.029,0,139.636
	c-0.002,26.939,10.49,52.264,29.536,71.312c13.435,13.435,29.995,22.612,48.04,26.855v212.136c0,12.853,10.42,23.273,23.273,23.273
	H256h155.15c12.853,0,23.273-10.42,23.273-23.273l0.002-212.165c44.426-10.533,77.574-50.536,77.576-98.138
	C512,84.029,466.759,38.788,411.151,38.788z"/>
<path style="fill:#FFB655;" d="M411.151,85.333H256H100.848c-29.943,0-54.303,24.36-54.303,54.303
	c0,14.507,5.648,28.143,15.905,38.4c10.256,10.256,23.892,15.903,38.397,15.903c6.173,0,12.093,2.451,16.457,6.817
	c4.366,4.363,6.817,10.282,6.817,16.455v209.455H256h131.877V217.212c0-12.853,10.42-23.273,23.273-23.273
	c29.943,0,54.303-24.36,54.305-54.303C465.455,109.694,441.094,85.333,411.151,85.333z"/>
<g>
	<path style="fill:#806749;" d="M318.065,302.552c6.128,0,12.119-2.498,16.448-6.827c4.329-4.329,6.825-10.333,6.825-16.462
		s-2.496-12.117-6.825-16.446s-10.333-6.827-16.448-6.827c-6.127,0-12.131,2.498-16.46,6.827
		c-4.329,4.329-6.813,10.318-6.813,16.446c0,6.128,2.484,12.133,6.813,16.462C305.934,300.054,311.938,302.552,318.065,302.552z"/>
	<path style="fill:#806749;" d="M124.121,426.667V217.212c0-6.173-2.451-12.093-6.817-16.455
		c-4.364-4.366-10.283-6.817-16.457-6.817c-14.505,0-28.141-5.648-38.397-15.903c-10.257-10.257-15.905-23.893-15.905-38.4
		c0-29.943,24.36-54.303,54.303-54.303H256V38.788H100.848C45.241,38.788,0,84.029,0,139.636
		c-0.002,26.939,10.49,52.264,29.536,71.312c13.435,13.435,29.995,22.612,48.04,26.855v212.136c0,12.853,10.42,23.273,23.273,23.273
		H256v-46.545H124.121z"/>
	<path style="fill:#806749;" d="M287.967,340.393c-4.329-4.329-10.333-6.811-16.448-6.811c-0.737,0-1.471,0.04-2.202,0.11
		c-0.326,0.033-0.649,0.092-0.973,0.138c-0.393,0.056-0.785,0.102-1.173,0.177c-0.436,0.085-0.867,0.199-1.297,0.307
		c-0.261,0.065-0.524,0.123-0.782,0.197c-0.504,0.147-1.002,0.32-1.496,0.5c-0.168,0.061-0.338,0.116-0.503,0.182
		c-0.549,0.216-1.091,0.455-1.624,0.711c-0.096,0.047-0.192,0.09-0.29,0.137c-0.574,0.287-1.137,0.596-1.688,0.928
		c-0.043,0.026-0.088,0.053-0.133,0.079c-0.579,0.355-1.142,0.734-1.691,1.137c-0.012,0.009-0.025,0.019-0.036,0.028
		c-0.563,0.417-1.106,0.86-1.631,1.327L256,339.543c-0.315,0.282-0.641,0.551-0.94,0.85c-4.329,4.329-6.813,10.333-6.813,16.446
		c0,6.128,2.484,12.133,6.813,16.462c0.299,0.299,0.625,0.569,0.94,0.85c0.524,0.469,1.069,0.912,1.634,1.333
		c0.012,0.008,0.025,0.017,0.036,0.025c0.546,0.405,1.112,0.785,1.691,1.14c0.045,0.028,0.09,0.054,0.133,0.081
		c0.549,0.332,1.114,0.642,1.688,0.929c0.098,0.048,0.194,0.092,0.292,0.138c0.532,0.256,1.072,0.496,1.621,0.712
		c0.168,0.065,0.34,0.121,0.509,0.183c0.49,0.18,0.987,0.354,1.489,0.501c0.262,0.076,0.527,0.133,0.793,0.2
		c0.427,0.109,0.853,0.222,1.286,0.306c0.389,0.076,0.785,0.124,1.179,0.178c0.323,0.045,0.644,0.105,0.968,0.138
		c0.731,0.071,1.465,0.112,2.202,0.112c6.113,0,12.119-2.498,16.448-6.827c4.344-4.329,6.825-10.333,6.825-16.462
		C294.793,350.728,292.31,344.723,287.967,340.393z"/>
</g>
<path style="fill:#EE8700;" d="M46.545,139.636c0,14.507,5.648,28.143,15.905,38.4c10.256,10.256,23.892,15.903,38.397,15.903
	c6.173,0,12.093,2.451,16.457,6.817c4.366,4.363,6.817,10.282,6.817,16.455v209.455H256v-52.514c-0.315-0.282-0.641-0.551-0.94-0.85
	c-4.329-4.329-6.813-10.333-6.813-16.462c0-6.111,2.484-12.117,6.813-16.446c0.299-0.299,0.625-0.569,0.94-0.85V85.333H100.848
	C70.906,85.333,46.545,109.694,46.545,139.636z"/>
<g>
</g>
<g>
</g>
<g>
</g>
<g>
</g>
<g>
</g>
<g>
</g>
<g>
</g>
<g>
</g>
<g>
</g>
<g>
</g>
<g>
</g>
<g>
</g>
<g>
</g>
<g>
</g>
<g>
</g>
</svg>
