<?xml version="1.0" encoding="iso-8859-1"?>
<!-- Generator: Adobe Illustrator 19.0.0, SVG Export Plug-In . SVG Version: 6.00 Build 0)  -->
<svg version="1.1" id="Layer_1" xmlns="http://www.w3.org/2000/svg" xmlns:xlink="http://www.w3.org/1999/xlink" x="0px" y="0px"
	 viewBox="0 0 512.001 512.001" style="enable-background:new 0 0 512.001 512.001;" xml:space="preserve">
<path style="fill:#2C3E50;" d="M337.72,127.191H174.281c-11.557,0-20.36-10.38-18.483-21.776l3.753-22.774
	c17.911-108.676,174.992-108.66,192.9-0.001l3.753,22.775C358.08,116.818,349.27,127.191,337.72,127.191z M196.351,89.728h119.297
	l-0.165-0.997c-11.045-67.025-107.925-67.013-118.969,0.001L196.351,89.728z"/>
<path style="fill:#22313F;" d="M356.202,105.414l-3.753-22.775C343.496,28.309,299.749,1.141,256,1.14v37.327
	c26.98-0.001,53.961,16.752,59.484,50.263l0.165,0.997H256v37.463h81.72C349.27,127.191,358.08,116.818,356.202,105.414z"/>
<path style="fill:#6A82A1;" d="M463.952,510.862H48.048C21.554,510.862,0,489.308,0,462.815V137.774
	c0-26.493,21.554-48.048,48.048-48.048h415.905c26.494,0,48.048,21.554,48.048,48.048v325.04
	C512,489.308,490.446,510.862,463.952,510.862z"/>
<g>
	<path style="fill:#36495E;" d="M463.952,89.727H256v421.135h207.952c26.494,0,48.048-21.554,48.048-48.048v-325.04
		C512,111.281,490.446,89.727,463.952,89.727z"/>
	<path style="fill:#36495E;" d="M463.952,89.727H48.048C21.554,89.727,0,111.281,0,137.774c0,18.208,0,129.869,0,145.254
		c252.214,64.405,237.975,62.872,247.034,58.177l8.961,2.11l10.715-2.524c9.559,4.923-7.066,6.677,245.289-57.764
		c0-15.385,0-127.047,0-145.254C512,111.281,490.446,89.727,463.952,89.727z"/>
</g>
<g>
	<path style="fill:#2C3E50;" d="M463.952,89.727H256v253.589l10.711-2.523c9.559,4.923-7.066,6.677,245.289-57.764
		c0-15.385,0-127.047,0-145.254C512,111.281,490.446,89.727,463.952,89.727z"/>
	<path style="fill:#2C3E50;" d="M292.938,377.416h-73.875c-10.345,0-18.732-8.387-18.732-18.732v-90.206
		c0-10.345,8.387-18.732,18.732-18.732h73.875c10.345,0,18.732,8.387,18.732,18.732v90.206
		C311.669,369.03,303.283,377.416,292.938,377.416z"/>
</g>
<path style="fill:#22313F;" d="M292.938,249.747H256v127.669h36.938c10.345,0,18.732-8.387,18.732-18.732v-90.206
	C311.669,258.134,303.283,249.747,292.938,249.747z"/>
<g>
</g>
<g>
</g>
<g>
</g>
<g>
</g>
<g>
</g>
<g>
</g>
<g>
</g>
<g>
</g>
<g>
</g>
<g>
</g>
<g>
</g>
<g>
</g>
<g>
</g>
<g>
</g>
<g>
</g>
</svg>
