<?xml version="1.0" encoding="iso-8859-1"?>
<!-- Generator: Adobe Illustrator 19.0.0, SVG Export Plug-In . SVG Version: 6.00 Build 0)  -->
<svg version="1.1" id="Layer_1" xmlns="http://www.w3.org/2000/svg" xmlns:xlink="http://www.w3.org/1999/xlink" x="0px" y="0px"
	 viewBox="0 0 512 512" style="enable-background:new 0 0 512 512;" xml:space="preserve">
<path style="fill:#69351D;" d="M346.985,106.81h-33.391v-9.824c0-31.757-25.836-57.593-57.593-57.593s-57.594,25.836-57.594,57.593
	v9.824h-33.391v-9.824c0-50.169,40.815-90.985,90.986-90.985s90.985,40.815,90.985,90.985L346.985,106.81L346.985,106.81z"/>
<path style="fill:#3F1A0C;" d="M346.985,106.81h-33.391v-9.824c0-31.757-25.836-57.593-57.593-57.593c0-14.536,0-21.215,0-33.391
	c50.169,0,90.985,40.815,90.985,90.985V106.81z"/>
<rect x="27.601" y="278.926" style="fill:#954927;" width="456.793" height="227.072"/>
<rect x="256" y="278.926" style="fill:#69351D;" width="228.397" height="227.072"/>
<rect y="90.114" style="fill:#C17644;" width="512" height="209.452"/>
<rect x="256" y="90.114" style="fill:#954927;" width="256" height="209.452"/>
<path style="fill:#F4DA49;" d="M319.349,345.041H192.651V254.08h126.698V345.041z"/>
<path style="fill:#E69824;" d="M319.349,345.041H256V254.08h63.349V345.041z"/>
<g>
</g>
<g>
</g>
<g>
</g>
<g>
</g>
<g>
</g>
<g>
</g>
<g>
</g>
<g>
</g>
<g>
</g>
<g>
</g>
<g>
</g>
<g>
</g>
<g>
</g>
<g>
</g>
<g>
</g>
</svg>
