<?xml version="1.0" encoding="iso-8859-1"?>
<!-- Generator: Adobe Illustrator 19.0.0, SVG Export Plug-In . SVG Version: 6.00 Build 0)  -->
<svg version="1.1" id="Layer_1" xmlns="http://www.w3.org/2000/svg" xmlns:xlink="http://www.w3.org/1999/xlink" x="0px" y="0px"
	 viewBox="0 0 512 512" style="enable-background:new 0 0 512 512;" xml:space="preserve">
<polygon style="fill:#FF9811;" points="153.6,19.2 153.6,147.2 192,147.2 192,57.6 320,57.6 320,147.2 358.4,147.2 358.4,19.2 "/>
<polygon style="fill:#FF5023;" points="256,19.2 256,57.6 320,57.6 320,147.2 358.4,147.2 358.4,19.2 "/>
<polygon style="fill:#78B9EB;" points="272.64,134.4 115.199,134.4 102.4,147.2 76.799,134.4 0,134.4 0,492.8 76.799,492.8 
	102.4,480 115.199,492.8 272.64,492.8 "/>
<polygon style="fill:#3C5D76;" points="512,492.8 512,134.4 435.199,134.4 409.599,147.2 396.799,134.4 256,134.4 256,492.8 
	396.799,492.8 409.599,480 435.199,492.8 "/>
<rect x="76.8" y="134.4" style="fill:#FFE98F;" width="38.4" height="358.4"/>
<rect x="396.8" y="134.4" style="fill:#FFDA44;" width="38.4" height="358.4"/>
<g>
</g>
<g>
</g>
<g>
</g>
<g>
</g>
<g>
</g>
<g>
</g>
<g>
</g>
<g>
</g>
<g>
</g>
<g>
</g>
<g>
</g>
<g>
</g>
<g>
</g>
<g>
</g>
<g>
</g>
</svg>
