<?xml version="1.0" encoding="iso-8859-1"?>
<!-- Generator: Adobe Illustrator 19.0.0, SVG Export Plug-In . SVG Version: 6.00 Build 0)  -->
<svg version="1.1" id="Layer_1" xmlns="http://www.w3.org/2000/svg" xmlns:xlink="http://www.w3.org/1999/xlink" x="0px" y="0px"
	 viewBox="0 0 512 512" style="enable-background:new 0 0 512 512;" xml:space="preserve">
<path id="SVGCleanerId_0" style="fill:#A4E276;" d="M393.968,118.033C383.555,51.257,325.651,0,256,0
	S128.445,51.257,118.032,118.033C51.257,128.447,0,186.349,0,256c0,76.995,62.641,139.636,139.636,139.636h46.545v93.091
	c0,12.853,10.42,23.273,23.273,23.273H256h46.545c12.853,0,23.273-10.42,23.273-23.273v-93.091h46.545
	C449.359,395.636,512,332.995,512,256C512,186.349,460.743,128.447,393.968,118.033z"/>
<g>
	<path id="SVGCleanerId_0_1_" style="fill:#A4E276;" d="M393.968,118.033C383.555,51.257,325.651,0,256,0
		S128.445,51.257,118.032,118.033C51.257,128.447,0,186.349,0,256c0,76.995,62.641,139.636,139.636,139.636h46.545v93.091
		c0,12.853,10.42,23.273,23.273,23.273H256h46.545c12.853,0,23.273-10.42,23.273-23.273v-93.091h46.545
		C449.359,395.636,512,332.995,512,256C512,186.349,460.743,128.447,393.968,118.033z"/>
</g>
<path style="fill:#B6E892;" d="M368.576,259.171c-11.1-6.476-25.353-2.728-31.829,8.375l-47.568,81.538h-9.906v-69.818
	c0-12.853-10.42-23.273-23.273-23.273c-12.853,0-23.273,10.42-23.273,23.273v69.818h-9.906l-47.568-81.538
	c-6.476-11.103-20.727-14.85-31.829-8.375c-11.101,6.478-14.851,20.727-8.375,31.829l33.891,58.09l13.576,23.273l3.666,6.285v16.988
	v93.091c0,12.853,10.42,23.273,23.273,23.273H256h46.545c12.853,0,23.273-10.42,23.273-23.273v-93.091v-16.988l3.666-6.285
	l13.576-23.273l33.89-58.09C383.427,279.898,379.677,265.649,368.576,259.171z"/>
<path style="fill:#64C37D;" d="M182.516,372.364l-13.576-23.273l-33.89-58.09c-6.478-11.103-2.728-25.352,8.375-31.829
	c11.101-6.474,25.353-2.728,31.829,8.375l47.568,81.538h9.905v-69.818c0-12.853,10.42-23.273,23.273-23.273V0
	c-69.651,0-127.555,51.257-137.968,118.033C51.257,128.447,0,186.349,0,256c0,76.995,62.641,139.636,139.636,139.636h46.545v-16.988
	L182.516,372.364z"/>
<path style="fill:#7ED63E;" d="M232.727,279.267v69.818h-9.906l-47.568-81.538c-6.476-11.103-20.727-14.85-31.829-8.375
	c-11.101,6.478-14.851,20.727-8.375,31.829l33.891,58.09l13.576,23.273l3.666,6.285v16.988v93.091
	c0,12.853,10.42,23.273,23.273,23.273H256V255.994C243.147,255.994,232.727,266.414,232.727,279.267z"/>
<g>
</g>
<g>
</g>
<g>
</g>
<g>
</g>
<g>
</g>
<g>
</g>
<g>
</g>
<g>
</g>
<g>
</g>
<g>
</g>
<g>
</g>
<g>
</g>
<g>
</g>
<g>
</g>
<g>
</g>
</svg>
