<?xml version="1.0" encoding="iso-8859-1"?>
<!-- Generator: Adobe Illustrator 19.0.0, SVG Export Plug-In . SVG Version: 6.00 Build 0)  -->
<svg version="1.1" id="Layer_1" xmlns="http://www.w3.org/2000/svg" xmlns:xlink="http://www.w3.org/1999/xlink" x="0px" y="0px"
	 viewBox="0 0 512 512" style="enable-background:new 0 0 512 512;" xml:space="preserve">
<path style="fill:#3F556B;" d="M512,104V56c0-8.84-7.16-16-16-16H16C7.16,40,0,47.16,0,56v48H512z"/>
<path style="fill:#E2E7F0;" d="M0,456V104h512v352c0,8.84-7.16,16-16,16H16C7.16,472,0,464.84,0,456z"/>
<circle style="fill:#F26A56;" cx="40" cy="72" r="8"/>
<circle style="fill:#F6B545;" cx="72" cy="72" r="8"/>
<circle style="fill:#89C763;" cx="104" cy="72" r="8"/>
<path style="fill:#4C9CD6;" d="M72,144h368c4.416,0,8,3.584,8,8v104c0,4.416-3.584,8-8,8H72c-4.416,0-8-3.584-8-8V152
	C64,147.584,67.584,144,72,144z"/>
<g>
	<path style="fill:#748B9E;" d="M232,320H72c-4.416,0-8-3.584-8-8s3.584-8,8-8h160c4.416,0,8,3.584,8,8S236.416,320,232,320z"/>
	<path style="fill:#748B9E;" d="M232,352H72c-4.416,0-8-3.584-8-8s3.584-8,8-8h160c4.416,0,8,3.584,8,8S236.416,352,232,352z"/>
	<path style="fill:#748B9E;" d="M232,384H72c-4.416,0-8-3.584-8-8s3.584-8,8-8h160c4.416,0,8,3.584,8,8S236.416,384,232,384z"/>
	<path style="fill:#748B9E;" d="M168,416H72c-4.416,0-8-3.584-8-8s3.584-8,8-8h96c4.416,0,8,3.584,8,8S172.416,416,168,416z"/>
	<path style="fill:#748B9E;" d="M440,320H280c-4.416,0-8-3.584-8-8s3.584-8,8-8h160c4.416,0,8,3.584,8,8S444.416,320,440,320z"/>
	<path style="fill:#748B9E;" d="M440,352H280c-4.416,0-8-3.584-8-8s3.584-8,8-8h160c4.416,0,8,3.584,8,8S444.416,352,440,352z"/>
	<path style="fill:#748B9E;" d="M440,384H280c-4.416,0-8-3.584-8-8s3.584-8,8-8h160c4.416,0,8,3.584,8,8S444.416,384,440,384z"/>
	<path style="fill:#748B9E;" d="M376,416h-96c-4.416,0-8-3.584-8-8s3.584-8,8-8h96c4.416,0,8,3.584,8,8S380.416,416,376,416z"/>
</g>
<path style="fill:#576D7E;" d="M144,56h336c4.416,0,8,3.584,8,8v16c0,4.416-3.584,8-8,8H144c-4.416,0-8-3.584-8-8V64
	C136,59.584,139.584,56,144,56z"/>
<g>
</g>
<g>
</g>
<g>
</g>
<g>
</g>
<g>
</g>
<g>
</g>
<g>
</g>
<g>
</g>
<g>
</g>
<g>
</g>
<g>
</g>
<g>
</g>
<g>
</g>
<g>
</g>
<g>
</g>
</svg>
