<?xml version="1.0" encoding="iso-8859-1"?>
<!-- Generator: Adobe Illustrator 19.0.0, SVG Export Plug-In . SVG Version: 6.00 Build 0)  -->
<svg version="1.1" id="Layer_1" xmlns="http://www.w3.org/2000/svg" xmlns:xlink="http://www.w3.org/1999/xlink" x="0px" y="0px"
	 viewBox="0 0 512 512" style="enable-background:new 0 0 512 512;" xml:space="preserve">
<path style="fill:#FFB655;" d="M465.779,205.714c-1.199-43.371-23.765-83.585-63.863-113.58
	c-39.199-29.323-90.952-45.472-145.728-45.472c-0.002,0-0.003,0-0.005,0c-54.78,0.002-106.534,16.15-145.733,45.472
	C70.392,122.1,47.827,162.267,46.587,205.59C19.48,215.179,0,241.048,0,271.394c0,30.355,19.455,56.238,46.538,65.85v27.241
	c0,55.61,45.242,100.852,100.852,100.852h108.793H364.61c55.61,0,100.852-45.242,100.852-100.852v-27.242
	c27.083-9.61,46.538-35.494,46.538-65.849C512,241.185,492.698,215.405,465.779,205.714z"/>
<path style="fill:#CC7400;" d="M465.779,205.714c-7.348-2.645-15.261-4.098-23.506-4.105c-0.026,0-0.05-0.002-0.074-0.002h-23.275
	h-162.74H93.442h-23.35h-0.292c-8.136,0-15.945,1.413-23.213,3.983C19.48,215.179,0,241.048,0,271.394
	c0,30.355,19.455,56.238,46.538,65.85c7.28,2.583,15.108,4.005,23.263,4.005h0.011h23.274h163.098h162.732h23.274h0.009
	c8.157,0,15.983-1.42,23.264-4.005C492.545,327.634,512,301.75,512,271.395C512,241.185,492.698,215.405,465.779,205.714z"/>
<g>
	<path style="fill:#EE8700;" d="M70.092,201.607h23.35h162.743V46.664c-54.78,0.002-106.534,16.15-145.733,45.472
		c-40.058,29.967-62.623,70.133-63.863,113.456c7.268-2.571,15.077-3.983,23.213-3.983h0.29V201.607z"/>
	<path style="fill:#EE8700;" d="M93.085,341.249H69.811h-0.011c-8.155,0-15.983-1.42-23.263-4.005v27.241
		c0,55.61,45.242,100.852,100.852,100.852h108.793v-124.09H93.085V341.249z"/>
</g>
<path style="fill:#AA6100;" d="M46.538,337.244c7.28,2.585,15.108,4.005,23.263,4.005h0.011h23.274h163.098V201.607H93.442h-23.35
	h-0.292c-8.136,0-15.945,1.413-23.213,3.983C19.48,215.179,0,241.048,0,271.395C0,301.75,19.455,327.634,46.538,337.244z"/>
<g>
</g>
<g>
</g>
<g>
</g>
<g>
</g>
<g>
</g>
<g>
</g>
<g>
</g>
<g>
</g>
<g>
</g>
<g>
</g>
<g>
</g>
<g>
</g>
<g>
</g>
<g>
</g>
<g>
</g>
</svg>
