<?xml version="1.0" encoding="iso-8859-1"?>
<!-- Generator: Adobe Illustrator 19.0.0, SVG Export Plug-In . SVG Version: 6.00 Build 0)  -->
<svg version="1.1" id="Layer_1" xmlns="http://www.w3.org/2000/svg" xmlns:xlink="http://www.w3.org/1999/xlink" x="0px" y="0px"
	 viewBox="0 0 512 512" style="enable-background:new 0 0 512 512;" xml:space="preserve">
<path style="fill:#65C6BB;" d="M385.644,512H126.355c-9.425,0-17.067-7.641-17.067-17.067V335.644
	c0-9.425,7.641-17.067,17.067-17.067h259.289c9.425,0,17.067,7.641,17.067,17.067v159.289C402.71,504.359,395.069,512,385.644,512z"
	/>
<path style="fill:#20B8AE;" d="M385.644,318.578H255.999V512h129.644c9.425,0,17.067-7.641,17.067-17.067V335.644
	C402.71,326.219,395.069,318.578,385.644,318.578z"/>
<path style="fill:#6A82A1;" d="M281.169,449.422h-50.34c-9.425,0-17.067-7.641-17.067-17.067s7.641-17.067,17.067-17.067h50.34
	c9.425,0,17.067,7.641,17.067,17.067S290.595,449.422,281.169,449.422z"/>
<path style="fill:#65C6BB;" d="M385.644,193.422H126.355c-9.425,0-17.067-7.641-17.067-17.067V17.067
	C109.289,7.641,116.93,0,126.355,0h259.289c9.425,0,17.067,7.641,17.067,17.067v159.289
	C402.71,185.781,395.069,193.422,385.644,193.422z"/>
<path style="fill:#20B8AE;" d="M385.644,0H255.999v193.422h129.644c9.425,0,17.067-7.641,17.067-17.067V17.067
	C402.71,7.641,395.069,0,385.644,0z"/>
<path style="fill:#6A82A1;" d="M281.169,96.711h-50.34c-9.425,0-17.067-7.641-17.067-17.067s7.641-17.067,17.067-17.067h50.34
	c9.425,0,17.067,7.641,17.067,17.067S290.595,96.711,281.169,96.711z"/>
<path style="fill:#20B8AE;" d="M402.71,352.711H109.289V159.289h293.423v193.422H402.71z"/>
<rect x="255.999" y="159.289" style="fill:#1DA49C;" width="146.705" height="193.422"/>
<path style="fill:#6A82A1;" d="M281.169,273.067h-50.34c-9.425,0-17.067-7.641-17.067-17.067c0-9.425,7.641-17.067,17.067-17.067
	h50.34c9.425,0,17.067,7.641,17.067,17.067C298.236,265.425,290.595,273.067,281.169,273.067z"/>
<g>
	<path style="fill:#36495E;" d="M281.169,415.289h-25.17v34.133h25.17c9.425,0,17.067-7.641,17.067-17.067
		S290.595,415.289,281.169,415.289z"/>
	<path style="fill:#36495E;" d="M281.169,62.578h-25.17v34.133h25.17c9.425,0,17.067-7.641,17.067-17.067
		S290.595,62.578,281.169,62.578z"/>
	<path style="fill:#36495E;" d="M281.169,238.933h-25.17v34.133h25.17c9.425,0,17.067-7.641,17.067-17.067
		C298.236,246.575,290.595,238.933,281.169,238.933z"/>
</g>
<g>
</g>
<g>
</g>
<g>
</g>
<g>
</g>
<g>
</g>
<g>
</g>
<g>
</g>
<g>
</g>
<g>
</g>
<g>
</g>
<g>
</g>
<g>
</g>
<g>
</g>
<g>
</g>
<g>
</g>
</svg>
