<?xml version="1.0" encoding="iso-8859-1"?>
<!-- Generator: Adobe Illustrator 19.0.0, SVG Export Plug-In . SVG Version: 6.00 Build 0)  -->
<svg version="1.1" id="Layer_1" xmlns="http://www.w3.org/2000/svg" xmlns:xlink="http://www.w3.org/1999/xlink" x="0px" y="0px"
	 viewBox="0 0 512 512" style="enable-background:new 0 0 512 512;" xml:space="preserve">
<path style="fill:#65C6BB;" d="M245.519,374.128H182.69c-9.425,0-17.067-7.641-17.067-17.067V79.896
	C165.623,35.841,201.464,0,245.519,0s79.896,35.841,79.896,79.896v39.368c0,13.142-14.27,21.344-25.622,14.767
	c-16.31-9.448-37.209,2.326-37.209,21.523V357.06C262.585,366.486,254.944,374.128,245.519,374.128z"/>
<g>
	<path style="fill:#20B8AE;" d="M256,0.709v369.801c4.003-3.123,6.585-7.98,6.585-13.45V155.556
		c0-19.198,20.898-30.971,37.209-21.523c11.352,6.576,25.622-1.625,25.622-14.767V79.896C325.415,39.396,295.117,5.861,256,0.709z"
		/>
	<path style="fill:#20B8AE;" d="M329.308,374.128h-83.789c-9.425,0-17.067-7.641-17.067-17.067V155.556
		c0-32.511,26.45-58.961,58.961-58.961c32.732,0,58.961,26.656,58.961,58.961v201.505
		C346.375,366.486,338.734,374.128,329.308,374.128z"/>
</g>
<path style="fill:#1DA49C;" d="M287.413,96.594c-11.543,0-22.312,3.346-31.413,9.102v268.431h73.308
	c9.425,0,17.067-7.641,17.067-17.067V155.556C346.375,123.25,320.146,96.594,287.413,96.594z"/>
<g>
	<path style="fill:#20B8AE;" d="M196.349,193.479h-34.726c-9.425,0-17.067-7.641-17.067-17.067c0-9.425,7.641-17.067,17.067-17.067
		h34.726c9.425,0,17.067,7.641,17.067,17.067C213.415,185.839,205.774,193.479,196.349,193.479z"/>
	<path style="fill:#20B8AE;" d="M196.349,252.427h-34.726c-9.425,0-17.067-7.641-17.067-17.067s7.641-17.067,17.067-17.067h34.726
		c9.425,0,17.067,7.641,17.067,17.067C213.415,244.787,205.774,252.427,196.349,252.427z"/>
	<path style="fill:#20B8AE;" d="M196.349,134.532h-34.726c-9.425,0-17.067-7.641-17.067-17.067s7.641-17.067,17.067-17.067h34.726
		c9.425,0,17.067,7.641,17.067,17.067S205.774,134.532,196.349,134.532z"/>
	<path style="fill:#20B8AE;" d="M196.349,311.376h-34.726c-9.425,0-17.067-7.641-17.067-17.067c0-9.425,7.641-17.067,17.067-17.067
		h34.726c9.425,0,17.067,7.641,17.067,17.067C213.415,303.734,205.774,311.376,196.349,311.376z"/>
</g>
<path style="fill:#FFD155;" d="M333.015,512H178.986c-9.425,0-17.067-7.641-17.067-17.067V408.71
	c0-9.425,7.641-17.067,17.067-17.067h154.029c9.425,0,17.067,7.641,17.067,17.067v86.223C350.082,504.359,342.44,512,333.015,512z"
	/>
<path style="fill:#FFC72D;" d="M333.015,391.644H256V512h77.014c9.425,0,17.067-7.641,17.067-17.067V408.71
	C350.082,399.285,342.44,391.644,333.015,391.644z"/>
<path style="fill:#FFDA79;" d="M357.16,425.777H154.84c-9.425,0-17.067-7.641-17.067-17.067v-51.646
	c0-9.425,7.641-17.067,17.067-17.067h202.32c9.425,0,17.067,7.641,17.067,17.067v51.646
	C374.227,418.136,366.585,425.777,357.16,425.777z"/>
<g>
	<path style="fill:#356F7C;" d="M345.903,193.479h-34.727c-9.425,0-17.067-7.641-17.067-17.067c0-9.425,7.641-17.067,17.067-17.067
		h34.727c9.425,0,17.067,7.641,17.067,17.067C362.969,185.839,355.328,193.479,345.903,193.479z"/>
	<path style="fill:#356F7C;" d="M345.903,252.427h-34.727c-9.425,0-17.067-7.641-17.067-17.067s7.641-17.067,17.067-17.067h34.727
		c9.425,0,17.067,7.641,17.067,17.067C362.969,244.787,355.328,252.427,345.903,252.427z"/>
	<path style="fill:#356F7C;" d="M345.903,311.376h-34.727c-9.425,0-17.067-7.641-17.067-17.067c0-9.425,7.641-17.067,17.067-17.067
		h34.727c9.425,0,17.067,7.641,17.067,17.067C362.969,303.734,355.328,311.376,345.903,311.376z"/>
</g>
<path style="fill:#FFD155;" d="M357.16,339.998H256v85.779h101.16c9.425,0,17.067-7.641,17.067-17.067v-51.646
	C374.227,347.639,366.585,339.998,357.16,339.998z"/>
<g>
</g>
<g>
</g>
<g>
</g>
<g>
</g>
<g>
</g>
<g>
</g>
<g>
</g>
<g>
</g>
<g>
</g>
<g>
</g>
<g>
</g>
<g>
</g>
<g>
</g>
<g>
</g>
<g>
</g>
</svg>
