<?xml version="1.0" encoding="iso-8859-1"?>
<!-- Generator: Adobe Illustrator 19.0.0, SVG Export Plug-In . SVG Version: 6.00 Build 0)  -->
<svg version="1.1" id="Layer_1" xmlns="http://www.w3.org/2000/svg" xmlns:xlink="http://www.w3.org/1999/xlink" x="0px" y="0px"
	 viewBox="0 0 512 512" style="enable-background:new 0 0 512 512;" xml:space="preserve">
<path style="fill:#8E572E;" d="M379.025,57.725H131.809c-41.172,0-74.667,33.495-74.667,74.667v190.217
	c0,10.396,8.428,18.824,18.824,18.824c10.396,0,18.824-8.428,18.824-18.824l0,0h321.255l0,0c0,10.396,8.428,18.824,18.824,18.824
	s18.824-8.428,18.824-18.824V132.392C453.692,91.22,420.196,57.725,379.025,57.725z"/>
<path style="fill:#AF6A3A;" d="M252.281,57.725H131.809c-41.172,0-74.667,33.495-74.667,74.667v190.217
	c0,10.396,8.428,18.824,18.824,18.824s18.824-8.428,18.824-18.824l0,0h157.491V57.725z"/>
<path style="fill:#573024;" d="M453.692,132.392c0-41.172-33.495-74.667-74.667-74.667H131.809
	c-41.172,0-74.667,33.495-74.667,74.667v30.95h396.549V132.392z"/>
<circle style="fill:#FF5E5A;" cx="252.901" cy="28.863" r="28.863"/>
<circle style="fill:#D9433D;" cx="252.901" cy="28.863" r="28.863"/>
<path style="fill:#FF5E5A;" d="M252.907,57.725c-15.941,0-28.863-12.922-28.863-28.863S236.966,0,252.907,0V57.725z"/>
<path style="fill:#83432D;" d="M252.281,57.725H131.809c-41.172,0-74.667,33.495-74.667,74.667v30.95h195.139L252.281,57.725z"/>
<path style="fill:#625F69;" d="M461.697,305.197H50.305c-10.396,0-18.824,8.428-18.824,18.824c0,10.396,8.428,18.824,18.824,18.824
	h44.078l10.563,15.573c10.322,15.216,27.512,24.328,45.898,24.328h72.531v91.608h-38.902c-10.396,0-18.824,8.428-18.824,18.824
	S174.077,512,184.472,512h136.784c10.396,0,18.824-8.428,18.824-18.824s-8.428-18.824-18.824-18.824h-38.902v-91.608h78.803
	c18.386,0,35.576-9.112,45.897-24.328l10.563-15.573h44.078c10.396,0,18.824-8.428,18.824-18.824S472.092,305.197,461.697,305.197z"
	/>
<path style="fill:#827E8C;" d="M252.865,305.197H50.305c-10.396,0-18.824,8.428-18.824,18.824c0,10.396,8.428,18.824,18.824,18.824
	h44.078l10.563,15.573c10.322,15.216,27.512,24.328,45.898,24.328h72.531v91.608h-38.902c-10.396,0-18.824,8.428-18.824,18.824
	S174.077,512,184.472,512h68.392v-22.588v-7.139v-7.92l-0.001-91.608h0.001l-0.003-39.901h0.003V305.197z"/>
<g>
</g>
<g>
</g>
<g>
</g>
<g>
</g>
<g>
</g>
<g>
</g>
<g>
</g>
<g>
</g>
<g>
</g>
<g>
</g>
<g>
</g>
<g>
</g>
<g>
</g>
<g>
</g>
<g>
</g>
</svg>
