<?xml version="1.0" encoding="iso-8859-1"?>
<!-- Generator: Adobe Illustrator 19.0.0, SVG Export Plug-In . SVG Version: 6.00 Build 0)  -->
<svg version="1.1" id="Layer_1" xmlns="http://www.w3.org/2000/svg" xmlns:xlink="http://www.w3.org/1999/xlink" x="0px" y="0px"
	 viewBox="0 0 512 512" style="enable-background:new 0 0 512 512;" xml:space="preserve">
<path style="fill:#F1F2F2;" d="M494.14,471.604H17.86c-9.864,0-17.86-7.997-17.86-17.86V172.42c0-9.864,7.997-17.86,17.86-17.86
	H494.14c9.864,0,17.86,7.997,17.86,17.86v281.324C512,463.608,504.003,471.604,494.14,471.604z"/>
<path style="fill:#E6E7E8;" d="M494.14,154.56H256v317.045h238.14c9.864,0,17.86-7.997,17.86-17.86V172.42
	C512,162.556,504.003,154.56,494.14,154.56z"/>
<g>
	<circle style="fill:#6A82A1;" cx="107.365" cy="283.886" r="26.374"/>
	<circle style="fill:#6A82A1;" cx="206.455" cy="283.886" r="26.374"/>
	<circle style="fill:#6A82A1;" cx="107.365" cy="377.999" r="26.374"/>
	<circle style="fill:#6A82A1;" cx="206.455" cy="377.999" r="26.374"/>
</g>
<path style="fill:#FFAFAE;" d="M512,190.281H0V86.88c0-9.864,7.997-17.86,17.86-17.86H494.14c9.864,0,17.86,7.997,17.86,17.86
	V190.281z"/>
<g>
	<path style="fill:#FF9392;" d="M512,86.88c0-9.864-7.997-17.86-17.86-17.86H256v121.261h256V86.88z"/>
	<path style="fill:#FF9392;" d="M107.371,129.565c-9.864,0-17.86-7.997-17.86-17.86V58.256c0-9.864,7.997-17.86,17.86-17.86
		s17.86,7.997,17.86,17.86v53.449C125.232,121.569,117.235,129.565,107.371,129.565z"/>
	<path style="fill:#FF9392;" d="M206.457,129.565c-9.864,0-17.86-7.997-17.86-17.86V58.256c0-9.864,7.997-17.86,17.86-17.86
		c9.864,0,17.86,7.997,17.86,17.86v53.449C224.318,121.569,216.321,129.565,206.457,129.565z"/>
</g>
<g>
	<circle style="fill:#36495E;" cx="305.545" cy="283.886" r="26.374"/>
	<circle style="fill:#36495E;" cx="404.623" cy="283.886" r="26.374"/>
	<circle style="fill:#36495E;" cx="305.545" cy="377.999" r="26.374"/>
	<circle style="fill:#36495E;" cx="404.623" cy="377.999" r="26.374"/>
</g>
<g>
	<path style="fill:#FF7876;" d="M305.543,129.565c-9.864,0-17.86-7.997-17.86-17.86V58.256c0-9.864,7.997-17.86,17.86-17.86
		s17.86,7.997,17.86,17.86v53.449C323.403,121.569,315.407,129.565,305.543,129.565z"/>
	<path style="fill:#FF7876;" d="M404.629,129.565c-9.864,0-17.86-7.997-17.86-17.86V58.256c0-9.864,7.997-17.86,17.86-17.86
		s17.86,7.997,17.86,17.86v53.449C422.489,121.569,414.493,129.565,404.629,129.565z"/>
</g>
<g>
</g>
<g>
</g>
<g>
</g>
<g>
</g>
<g>
</g>
<g>
</g>
<g>
</g>
<g>
</g>
<g>
</g>
<g>
</g>
<g>
</g>
<g>
</g>
<g>
</g>
<g>
</g>
<g>
</g>
</svg>
