<?xml version="1.0" encoding="iso-8859-1"?>
<!-- Generator: Adobe Illustrator 19.0.0, SVG Export Plug-In . SVG Version: 6.00 Build 0)  -->
<svg version="1.1" id="Layer_1" xmlns="http://www.w3.org/2000/svg" xmlns:xlink="http://www.w3.org/1999/xlink" x="0px" y="0px"
	 viewBox="0 0 512 512" style="enable-background:new 0 0 512 512;" xml:space="preserve">
<path style="fill:#FF5F5F;" d="M0,166.8V85.52C0,71.2,11.68,59.44,26,59.44h459.92c14.32,0,26,11.68,26,26v81.28H0V166.8z"/>
<path style="fill:#EFEFEF;" d="M512,166.8v290.64c0,14.32-11.68,26-26,26H26c-14.32,0-26-11.68-26-26V166.8L512,166.8L512,166.8z"/>
<path style="fill:#002833;" d="M273.44,413.84v-48.16h-82.16v-15.76l78.88-112.88H296v109.92h24.72v18.8H296v48.16h-22.56V413.84z
	 M273.44,346.96v-59.04c0-9.28,0.24-18.48,0.8-27.76h-0.8c-5.44,10.32-9.76,17.92-14.72,26.08l-43.28,60.16v0.56L273.44,346.96
	L273.44,346.96z"/>
<g>
	<path style="fill:#FFFFFF;" d="M190.88,84.16h7.44v38.64c0,15.36-7.52,20.08-17.52,20.08c-2.72,0-6.08-0.64-8-1.36l1.12-6.08
		c1.52,0.64,3.76,1.12,6.24,1.12c6.72,0,10.64-3.04,10.64-14.32V84.16H190.88z"/>
	<path style="fill:#FFFFFF;" d="M218.24,84.16v34.24c0,12.96,5.76,18.48,13.44,18.48c8.56,0,14.08-5.68,14.08-18.48V84.16h7.52
		v33.68c0,17.76-9.36,25.04-21.84,25.04c-11.84,0-20.72-6.8-20.72-24.72V84.08h7.52V84.16z"/>
	<path style="fill:#FFFFFF;" d="M266.32,84.16h7.44v51.52h24.72v6.24h-32.16V84.16z"/>
	<path style="fill:#FFFFFF;" d="M312.4,142v-24.56l-18.24-33.28h8.48l8.16,15.92c2.24,4.4,3.92,7.92,5.76,11.92h0.16
		c1.6-3.76,3.6-7.52,5.84-11.92l8.32-15.92h8.48L320,117.36V142H312.4z"/>
</g>
<g>
	<rect x="79.76" y="28.56" style="fill:#002833;" width="22.72" height="79.44"/>
	<rect x="407.36" y="28.56" style="fill:#002833;" width="22.72" height="79.44"/>
</g>
<g>
</g>
<g>
</g>
<g>
</g>
<g>
</g>
<g>
</g>
<g>
</g>
<g>
</g>
<g>
</g>
<g>
</g>
<g>
</g>
<g>
</g>
<g>
</g>
<g>
</g>
<g>
</g>
<g>
</g>
</svg>
