<?xml version="1.0" encoding="iso-8859-1"?>
<!-- Generator: Adobe Illustrator 19.0.0, SVG Export Plug-In . SVG Version: 6.00 Build 0)  -->
<svg version="1.1" id="Layer_1" xmlns="http://www.w3.org/2000/svg" xmlns:xlink="http://www.w3.org/1999/xlink" x="0px" y="0px"
	 viewBox="0 0 512 512" style="enable-background:new 0 0 512 512;" xml:space="preserve">
<rect x="23.273" y="69.818" style="fill:#D6E5F6;" width="465.455" height="418.909"/>
<rect x="256" y="69.818" style="fill:#A4C6EC;" width="232.727" height="418.909"/>
<path style="fill:#385C8E;" d="M488.727,46.545H256H23.273C10.42,46.545,0,56.965,0,69.818v418.909C0,501.582,10.42,512,23.273,512
	H256h232.727C501.58,512,512,501.582,512,488.727V69.818C512,56.965,501.58,46.545,488.727,46.545z M155.152,465.455H46.545v-62.061
	h108.606V465.455z M155.152,356.848H46.545v-62.061h108.606V356.848z M310.303,465.455H256h-54.303v-62.061H256h54.303V465.455z
	 M310.303,356.848H256h-54.303v-62.061H256h54.303V356.848z M465.455,465.455H356.848v-62.061h108.606V465.455z M465.455,356.848
	H356.848v-62.061h108.606V356.848z M465.455,248.242H356.848v-85.333c0-12.853-10.42-23.273-23.273-23.273
	s-23.273,10.42-23.273,23.273v85.333H256h-54.303v-85.333c0-12.853-10.42-23.273-23.273-23.273
	c-12.853,0-23.273,10.42-23.273,23.273v85.333H46.545V93.091H256h209.455V248.242z"/>
<path style="fill:#1D3366;" d="M488.727,46.545H256v46.545h209.455v155.152H356.848v-85.333c0-12.853-10.42-23.273-23.273-23.273
	s-23.273,10.42-23.273,23.273v85.333H256v46.545h54.303v62.061H256v46.545h54.303v62.061H256V512h232.727
	C501.58,512,512,501.582,512,488.727V69.818C512,56.965,501.58,46.545,488.727,46.545z M465.455,465.455H356.848v-62.061h108.606
	V465.455z M465.455,356.848H356.848v-62.061h108.606V356.848z"/>
<path style="fill:#D8145D;" d="M488.727,46.545H23.273C10.42,46.545,0,56.965,0,69.818v93.091c0,12.853,10.42,23.273,23.273,23.273
	h465.455c12.853,0,23.273-10.42,23.273-23.273V69.818C512,56.965,501.58,46.545,488.727,46.545z"/>
<path style="fill:#A90140;" d="M488.727,46.545H256v139.636h232.727c12.853,0,23.273-10.42,23.273-23.273V69.818
	C512,56.965,501.58,46.545,488.727,46.545z"/>
<path style="fill:#A4C6EC;" d="M333.576,0c-12.853,0-23.273,10.42-23.273,23.273v46.545c0,12.853,10.42,23.273,23.273,23.273
	s23.273-10.42,23.273-23.273V23.273C356.848,10.42,346.428,0,333.576,0z"/>
<path style="fill:#D6E5F6;" d="M178.424,0c-12.853,0-23.273,10.42-23.273,23.273v46.545c0,12.853,10.42,23.273,23.273,23.273
	c12.853,0,23.273-10.42,23.273-23.273V23.273C201.697,10.42,191.277,0,178.424,0z"/>
<g>
</g>
<g>
</g>
<g>
</g>
<g>
</g>
<g>
</g>
<g>
</g>
<g>
</g>
<g>
</g>
<g>
</g>
<g>
</g>
<g>
</g>
<g>
</g>
<g>
</g>
<g>
</g>
<g>
</g>
</svg>
