<?xml version="1.0" encoding="iso-8859-1"?>
<!-- Generator: Adobe Illustrator 19.0.0, SVG Export Plug-In . SVG Version: 6.00 Build 0)  -->
<svg version="1.1" id="Layer_1" xmlns="http://www.w3.org/2000/svg" xmlns:xlink="http://www.w3.org/1999/xlink" x="0px" y="0px"
	 viewBox="0 0 435 435" style="enable-background:new 0 0 435 435;" xml:space="preserve">
<g>
	<polygon style="fill:#005ECE;" points="343.333,42.5 343.333,97.5 303.333,97.5 303.333,42.5 217.5,42.5 217.5,142.5 435,142.5 
		435,42.5 	"/>
	<polygon style="fill:#9BC9FF;" points="217.5,249.216 246.927,219.789 275.211,248.073 245.784,277.5 275.211,306.927 
		246.927,335.211 217.5,305.784 217.5,412.5 435,412.5 435,142.5 217.5,142.5 	"/>
	<polygon style="fill:#BDDBFF;" points="188.073,335.211 159.789,306.927 189.216,277.5 159.789,248.073 188.073,219.789 
		217.5,249.216 217.5,142.5 0,142.5 0,412.5 217.5,412.5 217.5,305.784 	"/>
	<polygon style="fill:#2488FF;" points="217.5,42.5 131.667,42.5 131.667,102.5 91.667,102.5 91.667,42.5 0,42.5 0,142.5 
		217.5,142.5 	"/>
	<rect x="91.667" y="22.5" style="fill:#46F8FF;" width="40" height="80"/>
	<rect x="303.333" y="22.5" style="fill:#00E7F0;" width="40" height="75"/>
	<polygon style="fill:#003F8A;" points="159.789,248.073 189.216,277.5 159.789,306.927 188.073,335.211 217.5,305.784 
		246.927,335.211 275.211,306.927 245.784,277.5 275.211,248.073 246.927,219.789 217.5,249.216 188.073,219.789 	"/>
</g>
<g>
</g>
<g>
</g>
<g>
</g>
<g>
</g>
<g>
</g>
<g>
</g>
<g>
</g>
<g>
</g>
<g>
</g>
<g>
</g>
<g>
</g>
<g>
</g>
<g>
</g>
<g>
</g>
<g>
</g>
</svg>
