<?xml version="1.0" encoding="iso-8859-1"?>
<!-- Generator: Adobe Illustrator 19.0.0, SVG Export Plug-In . SVG Version: 6.00 Build 0)  -->
<svg version="1.1" id="Layer_1" xmlns="http://www.w3.org/2000/svg" xmlns:xlink="http://www.w3.org/1999/xlink" x="0px" y="0px"
	 viewBox="0 0 512.001 512.001" style="enable-background:new 0 0 512.001 512.001;" xml:space="preserve">
<rect x="239.057" y="100.617" style="fill:#A9825A;" width="33.874" height="96.043"/>
<path style="fill:#FF9900;" d="M341.526,501.012c0,6.069-4.92,10.989-10.989,10.989H181.461c-6.069,0-10.989-4.92-10.989-10.989
	v-304.35h171.053v304.35H341.526z"/>
<path style="fill:#FFDC35;" d="M302.857,86.321c0,25.88-20.979,46.859-46.859,46.859S209.14,112.2,209.14,86.321
	c0-32.638,40.742-60.369,39.838-83.648c-0.036-0.944,0.446-1.831,1.258-2.314s1.821-0.479,2.632,0.006
	C289.855,22.433,302.857,61.481,302.857,86.321z"/>
<path style="fill:#FFFFFF;" d="M280.61,93.889c0,13.592-11.019,24.612-24.611,24.612c-13.592,0-24.611-11.019-24.611-24.612
	c0-17.142,21.399-31.707,20.924-43.933c-0.019-0.496,0.235-0.962,0.661-1.215c0.427-0.253,0.956-0.251,1.382,0.003
	C273.781,60.335,280.61,80.844,280.61,93.889z"/>
<g>
	<path style="fill:#FF4B00;" d="M253.778,196.662v315.338h76.76c6.069,0,10.989-4.92,10.989-10.989v-304.35H253.778z"/>
	<path style="fill:#FF4B00;" d="M170.472,251.582c10.845-5.303,25.086-11.335,34.396-11.7c28.793-1.129,36.071,17.367,57.585,20.084
		c19.821,2.502,38.912-10.622,57.021-11.051c8.795-0.208,16.201,1.234,22.051,3.12v-55.372H170.472V251.582z"/>
</g>
<path style="fill:#FBDBAC;" d="M356.773,225.292c0,2.999-1.472,5.807-3.94,7.513c-2.467,1.706-5.615,2.095-8.421,1.034
	c-6.215-2.347-14.633-4.364-24.937-4.12c-18.109,0.429-37.2,13.553-57.021,11.051c-21.514-2.717-28.793-21.213-57.585-20.084
	c-9.906,0.388-25.393,7.19-36.433,12.707c-2.832,1.415-6.195,1.262-8.887-0.403c-2.692-1.667-4.323-4.607-4.323-7.773v-46.751
	c0-4.941,2.303-9.599,6.229-12.599s9.026-3.998,13.794-2.703c18.476,5.021,47.948,11.228,80.752,11.228
	c33.232,0,62.435-6.133,80.732-11.139c4.769-1.305,9.875-0.308,13.806,2.692c3.93,3.001,6.236,7.664,6.236,12.61v46.737H356.773z"/>
<path style="fill:#F0C586;" d="M350.537,165.946c-3.93-3.001-9.036-3.997-13.806-2.692c-18.297,5.005-47.5,11.139-80.732,11.139
	c-0.743,0-1.483-0.007-2.221-0.014v64.274c2.662,0.97,5.512,1.717,8.677,2.116c19.821,2.502,38.912-10.622,57.021-11.051
	c10.303-0.244,18.722,1.772,24.937,4.12c2.806,1.06,5.954,0.672,8.421-1.034c2.467-1.706,3.94-4.514,3.94-7.513v-46.736
	C356.773,173.611,354.467,168.947,350.537,165.946z"/>
<g>
</g>
<g>
</g>
<g>
</g>
<g>
</g>
<g>
</g>
<g>
</g>
<g>
</g>
<g>
</g>
<g>
</g>
<g>
</g>
<g>
</g>
<g>
</g>
<g>
</g>
<g>
</g>
<g>
</g>
</svg>
