<?xml version="1.0" encoding="iso-8859-1"?>
<!-- Generator: Adobe Illustrator 19.0.0, SVG Export Plug-In . SVG Version: 6.00 Build 0)  -->
<svg version="1.1" id="Layer_1" xmlns="http://www.w3.org/2000/svg" xmlns:xlink="http://www.w3.org/1999/xlink" x="0px" y="0px"
	 viewBox="0 0 512 512" style="enable-background:new 0 0 512 512;" xml:space="preserve">
<path style="fill:#FFDB2D;" d="M365.714,189.406V0H307.2v189.406c0,9.965-3.391,19.633-9.617,27.415l-29.664,37.081
	c-12.45,15.562-19.234,34.899-19.234,54.829V512h175.543V308.732c0-19.93-6.783-39.267-19.234-54.831l-29.664-37.08
	C369.105,209.039,365.714,199.371,365.714,189.406z"/>
<path style="fill:#FFAF33;" d="M404.995,253.901l-29.664-37.08c-6.226-7.781-9.617-17.45-9.617-27.415V0h-29.257v512h87.771V308.732
	C424.229,288.802,417.445,269.464,404.995,253.901z"/>
<path style="fill:#5CA15D;" d="M404.995,253.901l-6.773-8.467L336.457,307.2l-61.765-61.765l-6.773,8.467
	c-12.45,15.562-19.234,34.899-19.234,54.829V512h175.543V308.732C424.229,288.802,417.445,269.464,404.995,253.901z"/>
<path style="fill:#4E894D;" d="M404.995,253.901l-6.773-8.467L336.457,307.2V512h87.771V308.732
	C424.229,288.802,417.445,269.464,404.995,253.901z"/>
<rect x="95.086" y="131.657" style="fill:#B4D8F1;" width="87.771" height="49.737"/>
<rect x="292.571" y="387.657" style="fill:#F2F2F4;" width="87.771" height="43.886"/>
<rect x="336.457" y="387.657" style="fill:#DFDFE1;" width="43.886" height="43.886"/>
<polygon style="fill:#B4D8F1;" points="160.914,468.114 160.914,365.714 117.029,365.714 117.029,468.114 87.771,468.114 
	87.771,512 190.171,512 190.171,468.114 "/>
<path style="fill:#98C8ED;" d="M182.857,131.657h-43.886v248.686c24.238,0,43.886-19.649,43.886-43.886V131.657z"/>
<path style="fill:#FFEA8A;" d="M95.086,175.543v160.914c0,24.237,19.648,43.886,43.886,43.886s43.886-19.649,43.886-43.886V175.543
	H95.086z"/>
<path style="fill:#FFDB2D;" d="M138.971,175.543v204.8c24.238,0,43.886-19.649,43.886-43.886V175.543H138.971z"/>
<g>
</g>
<g>
</g>
<g>
</g>
<g>
</g>
<g>
</g>
<g>
</g>
<g>
</g>
<g>
</g>
<g>
</g>
<g>
</g>
<g>
</g>
<g>
</g>
<g>
</g>
<g>
</g>
<g>
</g>
</svg>
