<?xml version="1.0" encoding="iso-8859-1"?>
<!-- Generator: Adobe Illustrator 19.0.0, SVG Export Plug-In . SVG Version: 6.00 Build 0)  -->
<svg version="1.1" id="Layer_1" xmlns="http://www.w3.org/2000/svg" xmlns:xlink="http://www.w3.org/1999/xlink" x="0px" y="0px"
	 viewBox="0 0 511.997 511.997" style="enable-background:new 0 0 511.997 511.997;" xml:space="preserve">
<path style="fill:#1470B8;" d="M485.712,265.762c-2.464-9.023-0.856-18.661,4.399-26.396c14.734-20.613,22.396-45.457,21.837-70.789
	c0-94.545-78.948-160.535-191.97-160.535c-102.704,0-177.252,54.471-189.97,135.339c20.285-4.967,41.106-7.439,61.99-7.359
	c113.022,0,191.97,65.99,191.97,160.535c-0.04,7.015-0.576,14.014-1.6,20.957c1.488,0.504,2.928,1.12,4.319,1.84l101.744,54.711
	c7.783,4.183,17.485,1.264,21.661-6.519c1.968-3.663,2.432-7.951,1.296-11.958L485.712,265.762z"/>
<g>
	<circle style="fill:#0261A5;" cx="319.946" cy="168.049" r="23.996"/>
	<circle style="fill:#0261A5;" cx="391.935" cy="168.049" r="23.996"/>
</g>
<path style="fill:#3689C9;" d="M191.998,136.022c-113.022,0-191.97,65.99-191.97,160.535c-0.552,25.372,7.135,50.24,21.917,70.869
	c5.255,7.735,6.863,17.373,4.399,26.396L0.668,483.568c-2.424,8.495,2.504,17.349,10.998,19.773
	c3.999,1.144,8.295,0.68,11.958-1.296l101.504-54.631c6.735-3.607,14.534-4.687,21.997-3.04c14.79,2.768,29.827,3.975,44.873,3.599
	c114.782,0,191.97-60.87,191.97-151.416C383.968,202.012,305.02,136.022,191.998,136.022z"/>
<g>
	<circle style="fill:#1470B8;" cx="191.966" cy="296.029" r="23.996"/>
	<circle style="fill:#1470B8;" cx="119.977" cy="296.029" r="23.996"/>
	<circle style="fill:#1470B8;" cx="263.955" cy="296.029" r="23.996"/>
</g>
<g>
</g>
<g>
</g>
<g>
</g>
<g>
</g>
<g>
</g>
<g>
</g>
<g>
</g>
<g>
</g>
<g>
</g>
<g>
</g>
<g>
</g>
<g>
</g>
<g>
</g>
<g>
</g>
<g>
</g>
</svg>
