<?xml version="1.0" encoding="iso-8859-1"?>
<!-- Generator: Adobe Illustrator 19.0.0, SVG Export Plug-In . SVG Version: 6.00 Build 0)  -->
<svg version="1.1" id="Layer_1" xmlns="http://www.w3.org/2000/svg" xmlns:xlink="http://www.w3.org/1999/xlink" x="0px" y="0px"
	 viewBox="0 0 512 512" style="enable-background:new 0 0 512 512;" xml:space="preserve">
<path style="fill:#FFEA8A;" d="M512,18.163H0v376.471h75.294v84.116c0,13.416,16.22,20.135,25.707,10.648l94.764-94.764H512V18.163z
	"/>
<rect x="256" y="18.162" style="fill:#FFDB2D;" width="256" height="376.471"/>
<path style="fill:#FF4F19;" d="M256,296.751l87.669-87.669c17.839-17.839,17.839-46.761,0-64.598
	c-17.839-17.839-46.761-17.839-64.598,0L256,167.554l-23.072-23.072c-17.839-17.839-46.761-17.839-64.598,0
	c-17.839,17.839-17.839,46.761,0,64.598L256,296.751z"/>
<path style="fill:#AF2E08;" d="M343.669,144.483c-17.839-17.839-46.761-17.839-64.598,0L256,167.554v129.197l87.669-87.669
	C361.508,191.243,361.508,162.321,343.669,144.483z"/>
<g>
</g>
<g>
</g>
<g>
</g>
<g>
</g>
<g>
</g>
<g>
</g>
<g>
</g>
<g>
</g>
<g>
</g>
<g>
</g>
<g>
</g>
<g>
</g>
<g>
</g>
<g>
</g>
<g>
</g>
</svg>
