<?xml version="1.0" encoding="iso-8859-1"?>
<!-- Generator: Adobe Illustrator 19.0.0, SVG Export Plug-In . SVG Version: 6.00 Build 0)  -->
<svg version="1.1" id="Layer_1" xmlns="http://www.w3.org/2000/svg" xmlns:xlink="http://www.w3.org/1999/xlink" x="0px" y="0px"
	 viewBox="0 0 512 512" style="enable-background:new 0 0 512 512;" xml:space="preserve">
<polygon style="fill:#FF9811;" points="279.273,17.455 0,17.455 0,203.636 65.164,203.636 162.909,273.455 148.945,203.636 
	279.273,203.636 "/>
<polygon style="fill:#FF5023;" points="279.273,17.455 139.636,17.455 139.636,256.831 162.909,273.455 148.945,203.636 
	279.273,203.636 "/>
<rect x="34.909" y="87.273" style="fill:#FFFFFF;" width="46.545" height="46.545"/>
<rect x="197.818" y="87.273" style="fill:#FFDA44;" width="46.545" height="46.545"/>
<polygon style="fill:#FFFFFF;" points="139.636,133.818 116.364,133.818 116.364,87.273 139.636,87.273 151.273,110.545 "/>
<rect x="139.636" y="87.273" style="fill:#FFDA44;" width="23.273" height="46.545"/>
<polygon style="fill:#78B9EB;" points="512,238.545 232.727,238.545 232.727,424.727 281.6,424.727 267.636,494.545 
	365.382,424.727 512,424.727 "/>
<rect x="372.364" y="238.545" style="fill:#3C5D76;" width="139.636" height="186.182"/>
<rect x="267.636" y="308.364" style="fill:#FFFFFF;" width="46.545" height="46.545"/>
<rect x="430.545" y="308.364" style="fill:#C9E3F7;" width="46.545" height="46.545"/>
<polygon style="fill:#FFFFFF;" points="372.364,354.909 349.091,354.909 349.091,308.364 372.364,308.364 384,331.636 "/>
<rect x="372.364" y="308.364" style="fill:#C9E3F7;" width="23.273" height="46.545"/>
<g>
</g>
<g>
</g>
<g>
</g>
<g>
</g>
<g>
</g>
<g>
</g>
<g>
</g>
<g>
</g>
<g>
</g>
<g>
</g>
<g>
</g>
<g>
</g>
<g>
</g>
<g>
</g>
<g>
</g>
</svg>
