<?xml version="1.0" encoding="iso-8859-1"?>
<!-- Generator: Adobe Illustrator 19.0.0, SVG Export Plug-In . SVG Version: 6.00 Build 0)  -->
<svg version="1.1" id="Layer_1" xmlns="http://www.w3.org/2000/svg" xmlns:xlink="http://www.w3.org/1999/xlink" x="0px" y="0px"
	 viewBox="0 0 512 512" style="enable-background:new 0 0 512 512;" xml:space="preserve">
<path style="fill:#FFB655;" d="M465.777,205.695c-1.201-43.371-23.765-83.583-63.863-113.578
	c-39.197-29.323-90.95-45.472-145.727-45.472c-0.307,0-0.616,0.008-0.923,0.009c-54.437,0.18-105.833,16.305-144.813,45.463
	c-40.058,29.965-62.623,70.133-63.863,113.456C19.48,215.16,0,241.03,0,271.376c0,30.355,19.455,56.238,46.538,65.85v27.241
	c0,55.61,45.242,100.852,100.852,100.852h107.875c0.244,0.008,0.487,0.036,0.734,0.036c0.247,0,0.489-0.03,0.735-0.036H364.61
	c55.61,0,100.852-45.242,100.852-100.852v-27.242c27.083-9.61,46.538-35.494,46.538-65.849
	C512,241.165,492.697,215.384,465.777,205.695z"/>
<path style="fill:#F4D853;" d="M356.852,341.229h-32.915h-68.673h-67.203h-32.913h-32.913l77.541,77.543l23.274,23.274
	l16.493,16.493c4.189,4.191,9.817,6.594,15.724,6.78c0.244,0.008,0.487,0.036,0.734,0.036s0.489-0.03,0.735-0.036
	c5.905-0.188,11.533-2.59,15.722-6.78l16.493-16.493l23.274-23.274l77.544-77.543H356.852z"/>
<path style="fill:#CC7400;" d="M465.777,205.695c-7.348-2.645-15.261-4.096-23.508-4.105c-0.025,0-0.047-0.002-0.071-0.002h-23.277
	H255.266H93.442h-23.35h-0.292c-8.136,0-15.945,1.413-23.213,3.983C19.48,215.16,0,241.03,0,271.376
	c0,30.355,19.455,56.238,46.538,65.85c7.28,2.585,15.108,4.005,23.263,4.005h0.011h23.274h29.149h32.913h32.913h67.203h68.673
	h32.915h32.913h29.149h23.274h0.009c8.157,0,15.983-1.42,23.264-4.005c27.083-9.61,46.538-35.494,46.538-65.849
	C512,241.165,492.697,215.384,465.777,205.695z"/>
<g>
	<path style="fill:#EE8700;" d="M223.049,442.046l-23.274-23.274l-77.541-77.543H93.085H69.811h-0.011
		c-8.155,0-15.983-1.42-23.263-4.005v27.241c0,55.61,45.242,100.852,100.852,100.852h107.875c-5.907-0.188-11.534-2.59-15.724-6.78
		L223.049,442.046z"/>
	<path style="fill:#EE8700;" d="M70.092,201.588h23.35h161.824V46.654c-54.438,0.18-105.834,16.305-144.814,45.463
		c-40.058,29.967-62.623,70.133-63.863,113.456c7.268-2.571,15.077-3.983,23.213-3.983h0.29V201.588z"/>
</g>
<path style="fill:#EEBF00;" d="M188.061,341.229h-32.913h-32.913l77.541,77.543l23.274,23.274l16.493,16.493
	c4.189,4.191,9.817,6.594,15.724,6.78v-124.09L188.061,341.229L188.061,341.229z"/>
<path style="fill:#AA6100;" d="M69.811,341.229h23.274h29.149h32.913h32.913h67.203V201.588H93.442h-23.35h-0.292
	c-8.136,0-15.945,1.413-23.213,3.983C19.48,215.16,0,241.03,0,271.376c0,30.355,19.455,56.238,46.538,65.85
	c7.28,2.583,15.108,4.005,23.263,4.005h0.011V341.229z"/>
<g>
</g>
<g>
</g>
<g>
</g>
<g>
</g>
<g>
</g>
<g>
</g>
<g>
</g>
<g>
</g>
<g>
</g>
<g>
</g>
<g>
</g>
<g>
</g>
<g>
</g>
<g>
</g>
<g>
</g>
</svg>
