<?xml version="1.0" encoding="iso-8859-1"?>
<!-- Generator: Adobe Illustrator 19.0.0, SVG Export Plug-In . SVG Version: 6.00 Build 0)  -->
<svg version="1.1" id="Layer_1" xmlns="http://www.w3.org/2000/svg" xmlns:xlink="http://www.w3.org/1999/xlink" x="0px" y="0px"
	 viewBox="0 0 512 512" style="enable-background:new 0 0 512 512;" xml:space="preserve">
<g>
	<path style="fill:#E09B2D;" d="M222.783,193.733c13.573,0,24.569,10.995,24.569,24.555c0,13.56-10.995,24.555-24.569,24.555
		c-13.56,0-24.555-10.995-24.555-24.555C198.228,204.729,209.223,193.733,222.783,193.733z"/>
	<path style="fill:#E09B2D;" d="M306.318,308.246c21.142,0,38.279,17.152,38.279,38.294c0,21.155-17.137,38.294-38.279,38.294
		c-21.155,0-38.294-17.137-38.294-38.294C268.024,325.397,285.162,308.246,306.318,308.246z"/>
</g>
<path style="fill:#F7B239;" d="M428.214,247.177c-7.891,7.903-18.807,12.78-30.862,12.78c-24.096,0-43.63-19.534-43.63-43.63
	c0-12.054,4.877-22.959,12.78-30.862L256.006,74.982l-120.832,120.82c16.689,8.157,28.175,25.27,28.175,45.082
	c0,27.679-22.438,50.117-50.117,50.117c-19.812,0-36.937-11.485-45.07-28.175L0,330.976c37.312,37.312,80.736,64.773,127.053,82.382
	c41.439,15.782,85.202,23.661,128.953,23.661c92.657,0,185.303-35.352,255.994-106.043L428.214,247.177z M222.784,240.424
	c-11.631,0-21.167-8.968-22.063-20.369c-0.048-0.581-0.073-1.174-0.073-1.767c0-6.293,2.626-11.969,6.838-15.975
	c3.97-3.824,9.367-6.16,15.298-6.16c12.236,0,22.148,9.912,22.148,22.136S235.02,240.424,222.784,240.424z M306.317,379.991
	c-18.481,0-33.452-14.971-33.452-33.452c0-18.469,14.971-33.452,33.452-33.452c18.469,0,33.439,14.983,33.439,33.452
	C339.756,365.02,324.785,379.991,306.317,379.991z"/>
<g>
	<path style="fill:#E09B2D;" d="M256.006,74.982l-48.519,127.331l-6.765,17.742l-73.668,193.303
		C80.736,395.749,37.312,368.288,0,330.976l68.162-68.15c8.133,16.689,25.258,28.175,45.07,28.175
		c27.679,0,50.117-22.438,50.117-50.117c0-19.812-11.485-36.925-28.175-45.082L256.006,74.982z"/>
	<circle style="fill:#E09B2D;" cx="317.475" cy="281.748" r="9.077"/>
	<circle style="fill:#E09B2D;" cx="186.767" cy="385.843" r="9.077"/>
</g>
<g>
</g>
<g>
</g>
<g>
</g>
<g>
</g>
<g>
</g>
<g>
</g>
<g>
</g>
<g>
</g>
<g>
</g>
<g>
</g>
<g>
</g>
<g>
</g>
<g>
</g>
<g>
</g>
<g>
</g>
</svg>
