<?xml version="1.0" encoding="iso-8859-1"?>
<!-- Generator: Adobe Illustrator 19.0.0, SVG Export Plug-In . SVG Version: 6.00 Build 0)  -->
<svg version="1.1" id="Layer_1" xmlns="http://www.w3.org/2000/svg" xmlns:xlink="http://www.w3.org/1999/xlink" x="0px" y="0px"
	 viewBox="0 0 512.001 512.001" style="enable-background:new 0 0 512.001 512.001;" xml:space="preserve">
<path style="fill:#6DC180;" d="M386.914,387.203c-70.27-38.329-117.539-109.962-136.699-207.154
	c-8.252-41.856-9.654-79.759-9.341-104.556c-19.552,10.252-38.458,33.27-54.024,66.508
	c-26.132,55.802-40.522,136.177-40.522,226.321h-43.008c0-97.712,15.416-182.279,44.582-244.563
	c29.38-62.743,70.502-97.296,115.787-97.296h23.837l-2.444,23.713c-0.054,0.543-5.552,57.106,7.545,122.628
	c16.968,84.886,55.621,144.316,114.884,176.642L386.914,387.203z"/>
<g>
	<path style="fill:#5CA15D;" d="M240.873,75.494v0.145C240.873,75.593,240.873,75.54,240.873,75.494L240.873,75.494z"/>
	<path style="fill:#5CA15D;" d="M240.873,87.518V75.639C240.828,79.313,240.828,83.302,240.873,87.518z"/>
	<path style="fill:#5CA15D;" d="M292.624,172.805c-13.097-65.522-7.6-122.085-7.545-122.628l2.446-23.71h-23.837
		c-7.74,0-15.355,1.034-22.816,3.022v46.006h0.001c0,0.047,0,0.099-0.001,0.146v11.879c0.268,24.247,2.325,56.943,9.341,92.531
		c19.159,97.192,66.429,168.825,136.699,207.154l20.594-37.757C348.245,317.121,309.592,257.691,292.624,172.805z"/>
</g>
<path style="fill:#4E894D;" d="M405.608,25.215c-33.62-33.62-88.027-33.62-121.646,0l-20.274,20.274l20.274,20.274
	c33.62,33.62,88.027,33.62,121.646,0l20.274-20.274L405.608,25.215z"/>
<path style="fill:#FF4F19;" d="M153.498,339.652c-10.197,0-19.89,2.143-28.672,5.981c-8.782-3.838-18.475-5.981-28.672-5.981
	c-39.588,0-71.681,32.093-71.681,71.681c0,55.423,44.929,100.353,100.353,100.353s100.353-44.929,100.353-100.353
	C225.178,371.744,193.085,339.652,153.498,339.652z"/>
<path style="fill:#AF2E08;" d="M400.791,335.639c-9.988,2.056-19.05,6.109-26.879,11.638c-9.376-1.99-19.302-2.135-29.289-0.08
	c-38.776,7.979-63.741,45.881-55.763,84.656c11.171,54.287,64.233,89.238,118.52,78.069c54.287-11.171,89.238-64.233,78.069-118.52
	C477.468,352.626,439.566,327.659,400.791,335.639z"/>
<g>
</g>
<g>
</g>
<g>
</g>
<g>
</g>
<g>
</g>
<g>
</g>
<g>
</g>
<g>
</g>
<g>
</g>
<g>
</g>
<g>
</g>
<g>
</g>
<g>
</g>
<g>
</g>
<g>
</g>
</svg>
