<?xml version="1.0" encoding="iso-8859-1"?>
<!-- Generator: Adobe Illustrator 19.0.0, SVG Export Plug-In . SVG Version: 6.00 Build 0)  -->
<svg version="1.1" id="Layer_1" xmlns="http://www.w3.org/2000/svg" xmlns:xlink="http://www.w3.org/1999/xlink" x="0px" y="0px"
	 viewBox="0 0 512 512" style="enable-background:new 0 0 512 512;" xml:space="preserve">
<path style="fill:#F2F2F2;" d="M302.823,399.146c31.155,0,56.426,25.244,56.426,56.412s-25.272,56.44-56.426,56.44
	c-19.489,0-36.696-9.894-46.831-24.933c-10.134,15.039-27.328,24.933-46.816,24.933c-31.169,0-56.44-25.272-56.44-56.44
	s25.272-56.412,56.44-56.412c0.667,0,1.318,0.014,1.956,0.028v-63.868h89.722v63.868
	C301.504,399.16,302.156,399.146,302.823,399.146z"/>
<path style="fill:#E6E6E6;" d="M200.926,455.559c0-31.169,25.272-56.412,56.44-56.412c0.667,0,1.318,0.014,1.956,0.028v-63.867
	h-48.191v63.867c-0.638-0.014-1.29-0.028-1.956-0.028c-31.169,0-56.44,25.244-56.44,56.412S178.007,512,209.175,512
	c8.618,0,16.784-1.942,24.092-5.4C214.154,497.557,200.926,478.104,200.926,455.559z"/>
<path style="fill:#F7B239;" d="M257.851,0.013c71.254,0.999,128.895,60.032,128.275,131.286
	c-0.253,29.276-10.185,56.249-26.733,77.871c-31.262,40.814-47.773,91.003-47.773,142.407v0.569c0,2.578-2.09,4.668-4.668,4.668
	h-10.918h-80.085h-10.906c-2.578,0-4.668-2.09-4.668-4.668l0,0c0-51.429-16.093-101.909-47.494-142.634
	c-16.941-21.963-27.011-49.493-27.011-79.376C125.869,57.654,185.13-0.999,257.851,0.013z"/>
<path style="fill:#E09B2D;" d="M255.991,0c-30.377,0.013-54.971,58.286-54.971,130.135c0,29.883,4.251,57.413,11.412,79.375
	c13.272,40.726,20.065,91.207,20.065,142.634v4.668h-27.454c-2.578,0-4.668-2.09-4.668-4.668l0,0
	c0-51.428-16.093-101.909-47.494-142.634c-16.941-21.962-27.011-49.492-27.011-79.375C125.869,58.274,184.13,0,255.991,0z"/>
<g>
</g>
<g>
</g>
<g>
</g>
<g>
</g>
<g>
</g>
<g>
</g>
<g>
</g>
<g>
</g>
<g>
</g>
<g>
</g>
<g>
</g>
<g>
</g>
<g>
</g>
<g>
</g>
<g>
</g>
</svg>
