<?xml version="1.0" encoding="iso-8859-1"?>
<!-- Generator: Adobe Illustrator 19.0.0, SVG Export Plug-In . SVG Version: 6.00 Build 0)  -->
<svg version="1.1" id="Layer_1" xmlns="http://www.w3.org/2000/svg" xmlns:xlink="http://www.w3.org/1999/xlink" x="0px" y="0px"
	 viewBox="0 0 512 512" style="enable-background:new 0 0 512 512;" xml:space="preserve">
<path style="fill:#A78966;" d="M463.44,48.859c-0.043-0.045-0.084-0.088-0.127-0.132C431.89,17.305,390.115,0,345.677,0
	S259.46,17.306,228.038,48.73c-30.715,30.716-58.984,107.185-84.058,227.272c-0.446,2.134-0.891,4.246-1.335,6.406
	c-1.465,7.145,0.754,14.546,5.912,19.705c0,0,0.004,0.001,0.003,0.003l15.342,15.339l15.476,15.472l15.217,15.214l15.346,15.343
	l0.003,0.004c4.111,4.108,9.646,6.354,15.343,6.354c1.452,0,2.914-0.146,4.363-0.443c2.157-0.444,4.266-0.888,6.396-1.334
	c120.085-25.074,196.553-53.345,227.268-84.06C528.129,219.184,528.173,113.739,463.44,48.859z"/>
<path style="fill:#D6D5D8;" d="M225.285,369.838c-5.697-0.001-11.232-2.245-15.342-6.354l-0.003-0.004l-15.346-15.342
	l-15.219-15.214L163.9,317.452l-15.34-15.339c0.001,0-0.001-0.003-0.003-0.003c-5.157-5.159-7.378-12.561-5.912-19.705
	c0.444-2.16,0.89-4.272,1.335-6.406l-33.472,33.472H65.141c-35.895,0-65.099,29.203-65.099,65.099s29.202,65.097,65.099,65.099
	l7.232-0.001l0.001,7.233c0,35.897,29.203,65.099,65.099,65.099s65.097-29.205,65.099-65.099l-0.001-45.366l33.475-33.474
	c-2.129,0.446-4.239,0.89-6.396,1.334C228.199,369.692,226.737,369.838,225.285,369.838z"/>
<path style="fill:#806749;" d="M148.556,302.111c0.001,0,0.004,0.003,0.003,0.003l15.34,15.339l15.476,15.472L463.44,48.859
	c-0.043-0.045-0.084-0.088-0.127-0.132C431.89,17.305,390.115,0,345.677,0S259.46,17.306,228.038,48.73
	c-30.715,30.716-58.984,107.185-84.058,227.272c-0.446,2.134-0.891,4.246-1.335,6.406
	C141.178,289.55,143.398,296.952,148.556,302.111z"/>
<polygon style="fill:#AF2E08;" points="179.376,332.924 179.376,332.924 163.9,317.451 "/>
<polygon style="fill:#DB380E;" points="194.593,348.137 179.376,332.924 179.376,332.924 "/>
<g>
</g>
<g>
</g>
<g>
</g>
<g>
</g>
<g>
</g>
<g>
</g>
<g>
</g>
<g>
</g>
<g>
</g>
<g>
</g>
<g>
</g>
<g>
</g>
<g>
</g>
<g>
</g>
<g>
</g>
</svg>
