<?xml version="1.0" encoding="iso-8859-1"?>
<!-- Generator: Adobe Illustrator 19.0.0, SVG Export Plug-In . SVG Version: 6.00 Build 0)  -->
<svg version="1.1" id="Layer_1" xmlns="http://www.w3.org/2000/svg" xmlns:xlink="http://www.w3.org/1999/xlink" x="0px" y="0px"
	 viewBox="0 0 512 512" style="enable-background:new 0 0 512 512;" xml:space="preserve">
<rect x="91.36" style="fill:#B27214;" width="329.293" height="258.148"/>
<polygon style="fill:#2BA5F7;" points="420.647,229.157 389.1,225.468 323.871,217.825 288.621,213.7 288.621,213.687 
	223.392,206.057 188.142,201.919 122.848,194.276 91.353,190.587 58.607,278.336 91.353,284.608 91.353,512 420.66,512 
	420.66,347.689 453.393,353.962 "/>
<g>
	<polygon style="fill:#995C0D;" points="389.1,156.233 389.1,225.468 323.871,217.825 323.871,156.233 	"/>
	<rect x="323.851" y="29.465" style="fill:#995C0D;" width="65.229" height="94.878"/>
	<rect x="223.399" y="29.465" style="fill:#995C0D;" width="65.229" height="94.878"/>
	<rect x="122.92" y="29.465" style="fill:#995C0D;" width="65.229" height="94.878"/>
	<polygon style="fill:#995C0D;" points="288.621,156.233 288.621,213.687 223.392,206.057 223.392,156.233 	"/>
	<polygon style="fill:#995C0D;" points="188.142,156.233 188.142,201.919 122.848,194.276 122.927,193.618 122.927,156.233 	"/>
</g>
<polygon style="fill:#2197D8;" points="420.66,347.689 420.66,374.861 91.353,364.688 91.353,284.608 "/>
<g>
</g>
<g>
</g>
<g>
</g>
<g>
</g>
<g>
</g>
<g>
</g>
<g>
</g>
<g>
</g>
<g>
</g>
<g>
</g>
<g>
</g>
<g>
</g>
<g>
</g>
<g>
</g>
<g>
</g>
</svg>
