<?xml version="1.0" encoding="iso-8859-1"?>
<!-- Generator: Adobe Illustrator 19.0.0, SVG Export Plug-In . SVG Version: 6.00 Build 0)  -->
<svg version="1.1" id="Layer_1" xmlns="http://www.w3.org/2000/svg" xmlns:xlink="http://www.w3.org/1999/xlink" x="0px" y="0px"
	 viewBox="0 0 512 512" style="enable-background:new 0 0 512 512;" xml:space="preserve">
<path style="fill:#A9A8AE;" d="M124.121,341.333h93.091c-12.853,0-23.273-10.42-23.273-23.273v-23.273V46.545V23.273
	C193.939,10.42,204.359,0,217.212,0h-93.091c-12.853,0-23.273,10.42-23.273,23.273v294.788
	C100.848,330.913,111.268,341.333,124.121,341.333z"/>
<path style="fill:#A78966;" d="M387.879,341.333h-23.273h-46.545h-23.273h-23.273v100.848c0,38.499,31.319,69.818,69.818,69.818
	s69.818-31.319,69.818-69.818V318.061C411.151,330.913,400.732,341.333,387.879,341.333z"/>
<path style="fill:#57575C;" d="M193.939,23.273v23.273v248.242v23.273c0,12.853,10.42,23.273,23.273,23.273h54.303h23.273h23.273
	h46.545h23.273c12.853,0,23.273-10.42,23.273-23.273V23.273C411.151,10.42,400.732,0,387.879,0H217.212
	C204.359,0,193.939,10.42,193.939,23.273z"/>
<path style="fill:#806749;" d="M318.061,341.333h-23.273h-23.273v100.848c0,38.498,31.32,69.818,69.818,69.818V341.333H318.061z"/>
<g>
</g>
<g>
</g>
<g>
</g>
<g>
</g>
<g>
</g>
<g>
</g>
<g>
</g>
<g>
</g>
<g>
</g>
<g>
</g>
<g>
</g>
<g>
</g>
<g>
</g>
<g>
</g>
<g>
</g>
</svg>
