<?xml version="1.0" encoding="iso-8859-1"?>
<!-- Generator: Adobe Illustrator 19.0.0, SVG Export Plug-In . SVG Version: 6.00 Build 0)  -->
<svg version="1.1" id="Layer_1" xmlns="http://www.w3.org/2000/svg" xmlns:xlink="http://www.w3.org/1999/xlink" x="0px" y="0px"
	 viewBox="0 0 512.001 512.001" style="enable-background:new 0 0 512.001 512.001;" xml:space="preserve">
<path style="fill:#BD6428;" d="M112,64.001h288c17.672,0,32,14.328,32,32v384c0,17.672-14.328,32-32,32H112
	c-17.672,0-32-14.328-32-32v-384C80,78.329,94.328,64.001,112,64.001z"/>
<path style="fill:#F5F6F6;" d="M120,480.001c-4.416,0-8-3.584-8-8v-368c0-4.416,3.584-8,8-8h272c4.416,0,8,3.584,8,8v288l-88,88H120
	z"/>
<path style="fill:#A35623;" d="M176,96.001h-16v-16c0-8.84,7.16-16,16-16l0,0V96.001z"/>
<path style="fill:#CECECE;" d="M400,392.001h-80c-4.416,0-8,3.584-8,8v80L400,392.001z"/>
<path style="fill:#D17F4D;" d="M88,88.001L88,88.001c4.416,0,8,3.584,8,8v264c0,4.416-3.584,8-8,8l0,0c-4.416,0-8-3.584-8-8v-264
	C80,91.585,83.584,88.001,88,88.001z"/>
<g>
	<path style="fill:#E9E9E9;" d="M304,408.001v16c0,4.416-3.584,8-8,8l0,0c-4.416,0-8,3.584-8,8s-3.584,8-8,8h-8
		c-4.416,0-8,3.584-8,8s-3.584,8-8,8H112v8c0,4.416,3.584,8,8,8h192v-80C307.584,400.001,304,403.585,304,408.001z"/>
	<path style="fill:#E9E9E9;" d="M392,96.001H160c0.128,2.4,0.128,4.8,0,7.2c-0.44,8.824,6.352,16.336,15.176,16.776
		c0.28,0.016,0.552,0.024,0.824,0.024h192c8.84,0,16,7.16,16,16v24l0,0c0,8.84,7.16,16,16,16l0,0v-72
		C400,99.585,396.416,96.001,392,96.001z"/>
</g>
<path style="fill:#9BA7AF;" d="M308.72,45.121c-6.96-2.872-12.232-8.76-14.32-16c-6.184-21.208-28.392-33.384-49.6-27.2
	c-13.12,3.824-23.376,14.08-27.2,27.2c-2.088,7.24-7.36,13.128-14.32,16l-17.2,6.88c-6.064,2.416-10.056,8.272-10.08,14.8v29.2
	c0,8.84,7.16,16,16,16h128c8.84,0,16-7.16,16-16v-29.2c-0.024-6.528-4.016-12.384-10.08-14.8L308.72,45.121z M256,56.001
	c-8.84,0-16-7.16-16-16s7.16-16,16-16c8.84,0,16,7.16,16,16S264.84,56.001,256,56.001z"/>
<path style="fill:#72818B;" d="M312,64.001c-4.416,0-8,3.584-8,8l0,0c0,4.416-3.584,8-8,8h-16c-4.416,0-8,3.584-8,8l0,0
	c0,4.416-3.584,8-8,8h-88c0,8.84,7.16,16,16,16h128c8.84,0,16-7.16,16-16v-32H312z"/>
<path style="fill:#AFBABF;" d="M225.04,40.001c-4.416,0.144-8.112-3.328-8.248-7.744c-0.024-0.76,0.064-1.52,0.248-2.256
	c4.584-17.744,20.632-30.104,38.96-30c4.416,0,8,3.584,8,8s-3.584,8-8,8c-10.96-0.016-20.544,7.392-23.28,18
	C231.816,37.513,228.664,39.969,225.04,40.001z"/>
<path style="fill:#A35623;" d="M400,80.001h-32c-8.84,0-16-7.16-16-16h-16v32h56c4.416,0,8,3.584,8,8v288l-88,88H120
	c0,8.84,7.16,16,16,16h194.72c8.488,0.008,16.632-3.36,22.64-9.36l53.28-53.28c6-6.008,9.368-14.152,9.36-22.64V96.001
	C416,87.169,408.84,80.001,400,80.001z"/>
<g>
	<path style="fill:#9BA7AF;" d="M160,336.001c-4.416,0-8,3.584-8,8l0,0c0,4.416,3.584,8,8,8s8-3.584,8-8l0,0
		C168,339.585,164.416,336.001,160,336.001z"/>
	<path style="fill:#9BA7AF;" d="M224,336.001c-4.416,0-8,3.584-8,8l0,0c0,4.416,3.584,8,8,8s8-3.584,8-8l0,0
		C232,339.585,228.416,336.001,224,336.001z"/>
	<path style="fill:#9BA7AF;" d="M288,336.001c-4.416,0-8,3.584-8,8l0,0c0,4.416,3.584,8,8,8s8-3.584,8-8l0,0
		C296,339.585,292.416,336.001,288,336.001z"/>
	<path style="fill:#9BA7AF;" d="M352,336.001c-4.416,0-8,3.584-8,8l0,0c0,4.416,3.584,8,8,8s8-3.584,8-8l0,0
		C360,339.585,356.416,336.001,352,336.001z"/>
</g>
<path style="fill:#3CB54A;" d="M216,176.001h16c4.416,0,8,3.584,8,8v128c0,4.416-3.584,8-8,8h-16c-4.416,0-8-3.584-8-8v-128
	C208,179.585,211.584,176.001,216,176.001z"/>
<path style="fill:#3689C9;" d="M344,208.001h16c4.416,0,8,3.584,8,8v96c0,4.416-3.584,8-8,8h-16c-4.416,0-8-3.584-8-8v-96
	C336,211.585,339.584,208.001,344,208.001z"/>
<path style="fill:#FFCB5B;" d="M280,256.001h16c4.416,0,8,3.584,8,8v48c0,4.416-3.584,8-8,8h-16c-4.416,0-8-3.584-8-8v-48
	C272,259.585,275.584,256.001,280,256.001z"/>
<path style="fill:#EE2C39;" d="M152,224.001h16c4.416,0,8,3.584,8,8v80c0,4.416-3.584,8-8,8h-16c-4.416,0-8-3.584-8-8v-80
	C144,227.585,147.584,224.001,152,224.001z"/>
<path style="fill:#0E9347;" d="M224,224.001v48c0,4.416-3.584,8-8,8l0,0c-4.416,0-8,3.584-8,8v24c0,4.416,3.584,8,8,8h16
	c4.416,0,8-3.584,8-8v-88c0-4.416-3.584-8-8-8l0,0C227.584,216.001,224,219.585,224,224.001z"/>
<path style="fill:#1B6FAB;" d="M352,240.001v40c0,4.416-3.584,8-8,8l0,0c-4.416,0-8,3.584-8,8v16c0,4.416,3.584,8,8,8h16
	c4.416,0,8-3.584,8-8v-72c0-4.416-3.584-8-8-8l0,0C355.584,232.001,352,235.585,352,240.001z"/>
<path style="fill:#CC202C;" d="M160,264.001v24c0,4.416-3.584,8-8,8l0,0c-4.416,0-8,3.584-8,8v8c0,4.416,3.584,8,8,8h16
	c4.416,0,8-3.584,8-8v-48c0-4.416-3.584-8-8-8l0,0C163.584,256.001,160,259.585,160,264.001z"/>
<path style="fill:#F7B84E;" d="M288,280.001v16c0,4.416-3.584,8-8,8l0,0c-4.416,0-8,3.584-8,8l0,0c0,4.416,3.584,8,8,8h16
	c4.416,0,8-3.584,8-8v-32c0-4.416-3.584-8-8-8l0,0C291.584,272.001,288,275.585,288,280.001z"/>
<g>
</g>
<g>
</g>
<g>
</g>
<g>
</g>
<g>
</g>
<g>
</g>
<g>
</g>
<g>
</g>
<g>
</g>
<g>
</g>
<g>
</g>
<g>
</g>
<g>
</g>
<g>
</g>
<g>
</g>
</svg>
