<?xml version="1.0" encoding="iso-8859-1"?>
<!-- Generator: Adobe Illustrator 19.0.0, SVG Export Plug-In . SVG Version: 6.00 Build 0)  -->
<svg version="1.1" id="Layer_1" xmlns="http://www.w3.org/2000/svg" xmlns:xlink="http://www.w3.org/1999/xlink" x="0px" y="0px"
	 viewBox="0 0 512.001 512.001" style="enable-background:new 0 0 512.001 512.001;" xml:space="preserve">
<path style="fill:#BD6428;" d="M136,64.001h288c17.672,0,32,14.328,32,32v384c0,17.672-14.328,32-32,32H136
	c-17.672,0-32-14.328-32-32v-384C104,78.329,118.328,64.001,136,64.001z"/>
<path style="fill:#F5F6F6;" d="M144,480.001c-4.416,0-8-3.584-8-8v-368c0-4.416,3.584-8,8-8h272c4.416,0,8,3.584,8,8v288l-88,88H144
	z"/>
<path style="fill:#A35623;" d="M200,96.001h-16v-16c0-8.84,7.16-16,16-16l0,0V96.001z"/>
<path style="fill:#CECECE;" d="M424,392.001h-80c-4.416,0-8,3.584-8,8v80L424,392.001z"/>
<path style="fill:#D17F4D;" d="M112,88.001L112,88.001c4.416,0,8,3.584,8,8v264c0,4.416-3.584,8-8,8l0,0c-4.416,0-8-3.584-8-8v-264
	C104,91.585,107.584,88.001,112,88.001z"/>
<g>
	<path style="fill:#E9E9E9;" d="M328,408.001v16c0,4.416-3.584,8-8,8l0,0c-4.416,0-8,3.584-8,8s-3.584,8-8,8h-8
		c-4.416,0-8,3.584-8,8s-3.584,8-8,8H136v8c0,4.416,3.584,8,8,8h192v-80C331.584,400.001,328,403.585,328,408.001z"/>
	<path style="fill:#E9E9E9;" d="M416,96.001H184c0.128,2.4,0.128,4.8,0,7.2c-0.44,8.824,6.352,16.336,15.176,16.776
		c0.28,0.016,0.552,0.024,0.824,0.024h192c8.84,0,16,7.16,16,16v24l0,0c0,8.84,7.16,16,16,16l0,0v-72
		C424,99.585,420.416,96.001,416,96.001z"/>
</g>
<path style="fill:#9BA7AF;" d="M332.72,45.121c-6.96-2.872-12.232-8.76-14.32-16c-6.184-21.208-28.392-33.384-49.6-27.2
	c-13.12,3.824-23.376,14.08-27.2,27.2c-2.088,7.24-7.36,13.128-14.32,16l-17.2,6.88c-6.064,2.416-10.056,8.272-10.08,14.8v29.2
	c0,8.84,7.16,16,16,16h128c8.84,0,16-7.16,16-16v-29.2c-0.024-6.528-4.016-12.384-10.08-14.8L332.72,45.121z M280,56.001
	c-8.84,0-16-7.16-16-16s7.16-16,16-16s16,7.16,16,16S288.84,56.001,280,56.001z"/>
<path style="fill:#72818B;" d="M336,64.001c-4.416,0-8,3.584-8,8l0,0c0,4.416-3.584,8-8,8h-16c-4.416,0-8,3.584-8,8l0,0
	c0,4.416-3.584,8-8,8h-88c0,8.84,7.16,16,16,16h128c8.84,0,16-7.16,16-16v-32H336z"/>
<path style="fill:#AFBABF;" d="M249.04,40.001c-4.416,0.144-8.112-3.328-8.248-7.744c-0.024-0.76,0.064-1.52,0.248-2.256
	c4.584-17.744,20.632-30.104,38.96-30c4.416,0,8,3.584,8,8s-3.584,8-8,8c-10.96-0.016-20.544,7.392-23.28,18
	C255.816,37.513,252.664,39.969,249.04,40.001z"/>
<path style="fill:#A35623;" d="M424,80.001h-32c-8.84,0-16-7.16-16-16h-16v32h56c4.416,0,8,3.584,8,8v288l-88,88H144
	c0,8.84,7.16,16,16,16h194.72c8.488,0.008,16.632-3.36,22.64-9.36l53.28-53.28c6-6.008,9.368-14.152,9.36-22.64V96.001
	C440,87.169,432.84,80.001,424,80.001z"/>
<path style="fill:#EE2C39;" d="M328,192.001h-32v-32c0-4.416-3.584-8-8-8h-16c-4.416,0-8,3.584-8,8v32h-32c-4.416,0-8,3.584-8,8v16
	c0,4.416,3.584,8,8,8h32v32c0,4.416,3.584,8,8,8h16c4.416,0,8-3.584,8-8v-32h32c4.416,0,8-3.584,8-8v-16
	C336,195.585,332.416,192.001,328,192.001z"/>
<path style="fill:#CC202C;" d="M296,208.001c-8.84,0-16,7.16-16,16l0,0v16c0,4.416-3.584,8-8,8s-8,3.584-8,8c0,4.416,3.584,8,8,8h16
	c4.416,0,8-3.584,8-8v-32h32c4.416,0,8-3.584,8-8l0,0c0-4.416-3.584-8-8-8H296z"/>
<path style="fill:#F15B55;" d="M264,208.001c8.84,0,16-7.16,16-16l0,0v-16c0-4.416,3.584-8,8-8s8-3.584,8-8s-3.584-8-8-8h-16
	c-4.416,0-8,3.584-8,8v32h-32c-4.416,0-8,3.584-8,8l0,0c0,4.416,3.584,8,8,8H264z"/>
<path style="fill:#CECECE;" d="M240,368.001c-2.68-0.016-5.168-1.368-6.64-3.6l-13.68-20.4H176c-4.416,0-8-3.584-8-8s3.584-8,8-8h48
	c2.68,0.016,5.168,1.368,6.64,3.6l8,11.68l18.16-42.4c1.728-4.064,6.432-5.96,10.496-4.224c1.904,0.808,3.416,2.32,4.224,4.224
	l17.2,40l16-32.56c1.32-2.56,3.92-4.208,6.8-4.32c2.832-0.168,5.536,1.168,7.12,3.52l13.68,20.48H384c4.416,0,8,3.584,8,8
	s-3.584,8-8,8h-56c-2.68-0.016-5.168-1.368-6.64-3.6l-8-12.56l-17.84,35.68c-1.392,2.856-4.344,4.616-7.52,4.48
	c-3.12-0.096-5.904-2-7.12-4.88l-16.88-38.8l-16.64,38.88c-1.16,2.696-3.712,4.544-6.64,4.8H240z"/>
<circle style="fill:#595A66;" cx="176" cy="368.001" r="56"/>
<circle style="fill:#35363E;" cx="176" cy="368.001" r="24"/>
<path style="fill:#6F707E;" d="M208,360.001c4.416,0,8,3.584,8,8c0,22.088-17.912,40-40,40c-4.416,0-8-3.584-8-8s3.584-8,8-8
	c13.256,0,24-10.744,24-24C200,363.585,203.584,360.001,208,360.001z"/>
<path style="fill:#484A54;" d="M144,376.001c-4.416,0-8-3.584-8-8c0-22.088,17.912-40,40-40c4.416,0,8,3.584,8,8s-3.584,8-8,8
	c-13.256,0-24,10.744-24,24C152,372.417,148.416,376.001,144,376.001z"/>
<path style="fill:#9BA7AF;" d="M120,368.001c-0.008-5.416,0.776-10.808,2.32-16H120c-17.672,0-32-14.328-32-32v-48
	c0-8.84,7.16-16,16-16v-32c-26.512,0-48,21.488-48,48v48c0,35.344,28.656,64,64,64h2.32
	C120.776,378.809,119.992,373.417,120,368.001z"/>
<g>
	<path style="fill:#72818B;" d="M88,299.601v-27.6c0-8.84,7.16-16,16-16v-16c-17.672,0-32,14.328-32,32v32c0,8.84,7.16,16,16,16l0,0
		V299.601z"/>
	<path style="fill:#72818B;" d="M120,368.001c-0.008-5.416,0.776-10.808,2.32-16H120c-1.856-0.024-3.696-0.216-5.52-0.56
		c-0.376,1.28-0.72,2.584-1.04,3.92c-1.464,5.92-7.448,9.528-13.368,8.064c-0.92-0.224-1.8-0.568-2.632-1.024
		c-7.696-4.072-14.136-10.152-18.64-17.6c-1.68-4.088-6.36-6.032-10.448-4.344c-4.088,1.68-6.032,6.36-4.344,10.448
		c0.28,0.68,0.656,1.32,1.112,1.904c10.36,17.736,28.664,29.368,49.12,31.2l0,0c1.92,0,3.76,0,5.76,0h2.32
		C120.776,378.809,119.992,373.417,120,368.001z"/>
</g>
<path style="fill:#AFBABF;" d="M64,272.001L64,272.001c4.416,0,8,3.584,8,8v32c0,4.416-3.584,8-8,8l0,0c-4.416,0-8-3.584-8-8v-32
	C56,275.585,59.584,272.001,64,272.001z"/>
<path style="fill:#E9E9E9;" d="M207.44,424.001c-1.664-4.08-6.312-6.048-10.4-4.4l-2.56,0.88l-2.48,1.12l0,0
	c-19.904,5.936-41.464,0.36-56-14.48v48.88c0-8.84,7.16-16,16-16h24c9.264,0.024,18.448-1.744,27.04-5.2
	c4.12-1.584,6.184-6.216,4.592-10.336C207.576,424.305,207.512,424.153,207.44,424.001z"/>
<path style="fill:#A35623;" d="M122.32,384.001H120c-5.4-0.016-10.776-0.712-16-2.08v18.08c0,4.416,3.584,8,8,8s8,3.584,8,8v8
	c0,4.416,3.584,8,8,8c4.416,0,8-3.584,8-8v-16.88C129.632,400.641,124.936,392.705,122.32,384.001z"/>
<g>
</g>
<g>
</g>
<g>
</g>
<g>
</g>
<g>
</g>
<g>
</g>
<g>
</g>
<g>
</g>
<g>
</g>
<g>
</g>
<g>
</g>
<g>
</g>
<g>
</g>
<g>
</g>
<g>
</g>
</svg>
