<?xml version="1.0" encoding="iso-8859-1"?>
<!-- Generator: Adobe Illustrator 19.0.0, SVG Export Plug-In . SVG Version: 6.00 Build 0)  -->
<svg version="1.1" id="Layer_1" xmlns="http://www.w3.org/2000/svg" xmlns:xlink="http://www.w3.org/1999/xlink" x="0px" y="0px"
	 viewBox="0 0 512.001 512.001" style="enable-background:new 0 0 512.001 512.001;" xml:space="preserve">
<path style="fill:#BD6428;" d="M112,64.001h288c17.672,0,32,14.328,32,32v384c0,17.672-14.328,32-32,32H112
	c-17.672,0-32-14.328-32-32v-384C80,78.329,94.328,64.001,112,64.001z"/>
<path style="fill:#F5F6F6;" d="M120,480.001c-4.416,0-8-3.584-8-8v-368c0-4.416,3.584-8,8-8h272c4.416,0,8,3.584,8,8v288l-88,88H120
	z"/>
<path style="fill:#A35623;" d="M176,96.001h-16v-16c0-8.84,7.16-16,16-16l0,0V96.001z"/>
<path style="fill:#CECECE;" d="M400,392.001h-80c-4.416,0-8,3.584-8,8v80L400,392.001z"/>
<path style="fill:#D17F4D;" d="M88,88.001L88,88.001c4.416,0,8,3.584,8,8v264c0,4.416-3.584,8-8,8l0,0c-4.416,0-8-3.584-8-8v-264
	C80,91.585,83.584,88.001,88,88.001z"/>
<g>
	<path style="fill:#E9E9E9;" d="M304,408.001v16c0,4.416-3.584,8-8,8l0,0c-4.416,0-8,3.584-8,8s-3.584,8-8,8h-8
		c-4.416,0-8,3.584-8,8s-3.584,8-8,8H112v8c0,4.416,3.584,8,8,8h192v-80C307.584,400.001,304,403.585,304,408.001z"/>
	<path style="fill:#E9E9E9;" d="M392,96.001H160c0.128,2.4,0.128,4.8,0,7.2c-0.44,8.824,6.352,16.336,15.176,16.776
		c0.28,0.016,0.552,0.024,0.824,0.024h192c8.84,0,16,7.16,16,16v24l0,0c0,8.84,7.16,16,16,16l0,0v-72
		C400,99.585,396.416,96.001,392,96.001z"/>
</g>
<path style="fill:#9BA7AF;" d="M308.72,45.121c-6.96-2.872-12.232-8.76-14.32-16c-6.184-21.208-28.392-33.384-49.6-27.2
	c-13.12,3.824-23.376,14.08-27.2,27.2c-2.088,7.24-7.36,13.128-14.32,16l-17.2,6.88c-6.064,2.416-10.056,8.272-10.08,14.8v29.2
	c0,8.84,7.16,16,16,16h128c8.84,0,16-7.16,16-16v-29.2c-0.024-6.528-4.016-12.384-10.08-14.8L308.72,45.121z M256,56.001
	c-8.84,0-16-7.16-16-16s7.16-16,16-16c8.84,0,16,7.16,16,16S264.84,56.001,256,56.001z"/>
<path style="fill:#72818B;" d="M312,64.001c-4.416,0-8,3.584-8,8l0,0c0,4.416-3.584,8-8,8h-16c-4.416,0-8,3.584-8,8l0,0
	c0,4.416-3.584,8-8,8h-88c0,8.84,7.16,16,16,16h128c8.84,0,16-7.16,16-16v-32H312z"/>
<path style="fill:#AFBABF;" d="M225.04,40.001c-4.416,0.144-8.112-3.328-8.248-7.744c-0.024-0.76,0.064-1.52,0.248-2.256
	c4.584-17.744,20.632-30.104,38.96-30c4.416,0,8,3.584,8,8s-3.584,8-8,8c-10.96-0.016-20.544,7.392-23.28,18
	C231.816,37.513,228.664,39.969,225.04,40.001z"/>
<path style="fill:#A35623;" d="M400,80.001h-32c-8.84,0-16-7.16-16-16h-16v32h56c4.416,0,8,3.584,8,8v288l-88,88H120
	c0,8.84,7.16,16,16,16h194.72c8.488,0.008,16.632-3.36,22.64-9.36l53.28-53.28c6-6.008,9.368-14.152,9.36-22.64V96.001
	C416,87.169,408.84,80.001,400,80.001z"/>
<path style="fill:#3689C9;" d="M192,352.001c-4.416,0-8,3.584-8,8l0,0c0,4.416,3.584,8,8,8s8-3.584,8-8l0,0
	C200,355.585,196.416,352.001,192,352.001z"/>
<path style="fill:#FFCB5B;" d="M256,352.001c-4.416,0-8,3.584-8,8l0,0c0,4.416,3.584,8,8,8s8-3.584,8-8l0,0
	C264,355.585,260.416,352.001,256,352.001z"/>
<g>
	<path style="fill:#EE2C39;" d="M320,352.001c-4.416,0-8,3.584-8,8l0,0c0,4.416,3.584,8,8,8s8-3.584,8-8l0,0
		C328,355.585,324.416,352.001,320,352.001z"/>
	<path style="fill:#EE2C39;" d="M256,168.001c-5.952,0.008-11.88,0.68-17.68,2l23.44,70H336
		C331.88,198.969,297.24,167.793,256,168.001z"/>
</g>
<path style="fill:#FFCB5B;" d="M258.32,256.001l-65.36,41.12c27.192,34.824,77.464,41.008,112.288,13.816
	c17.176-13.416,28.144-33.256,30.352-54.936H258.32z"/>
<path style="fill:#3689C9;" d="M176,248.001c-0.112,12.328,2.624,24.512,8,35.6l62.16-39.12L224,174.561
	C194.808,187.305,175.952,216.145,176,248.001z"/>
<path style="fill:#1B6FAB;" d="M192,248.001c0.04-20.896,10.288-40.464,27.44-52.4c5.496-4.056,7.816-11.16,5.76-17.68l-1.2-3.36
	c-40.576,17.48-59.296,64.552-41.816,105.128c0.568,1.32,1.176,2.624,1.816,3.912l2.8-1.76c5.744-3.632,8.568-10.496,7.04-17.12
	C192.48,259.257,191.864,253.633,192,248.001z"/>
<path style="fill:#F6B545;" d="M332.24,256.001c-6.832,0.008-12.904,4.344-15.12,10.8c-10.44,33.768-46.28,52.68-80.048,42.24
	c-8.36-2.584-16.104-6.856-22.752-12.56c-5.376-4.328-12.928-4.712-18.72-0.96l-2.56,1.6c27.24,34.784,77.528,40.896,112.312,13.656
	c17.104-13.392,28.024-33.168,30.248-54.776H332.24z"/>
<path style="fill:#CC202C;" d="M256,168.001c-5.952,0.008-11.88,0.68-17.68,2l1.04,3.12c2.288,6.808,8.832,11.256,16,10.88H256
	c28.08,0.024,52.872,18.352,61.12,45.2c2.216,6.456,8.288,10.792,15.12,10.8H336C331.88,198.969,297.24,167.793,256,168.001z"/>
<g>
</g>
<g>
</g>
<g>
</g>
<g>
</g>
<g>
</g>
<g>
</g>
<g>
</g>
<g>
</g>
<g>
</g>
<g>
</g>
<g>
</g>
<g>
</g>
<g>
</g>
<g>
</g>
<g>
</g>
</svg>
