<?xml version="1.0" encoding="iso-8859-1"?>
<!-- Generator: Adobe Illustrator 19.0.0, SVG Export Plug-In . SVG Version: 6.00 Build 0)  -->
<svg version="1.1" id="Layer_1" xmlns="http://www.w3.org/2000/svg" xmlns:xlink="http://www.w3.org/1999/xlink" x="0px" y="0px"
	 viewBox="0 0 512.001 512.001" style="enable-background:new 0 0 512.001 512.001;" xml:space="preserve">
<path style="fill:#BD6428;" d="M112,64.001h288c17.672,0,32,14.328,32,32v384c0,17.672-14.328,32-32,32H112
	c-17.672,0-32-14.328-32-32v-384C80,78.329,94.328,64.001,112,64.001z"/>
<path style="fill:#F5F6F6;" d="M120,480.001c-4.416,0-8-3.584-8-8v-368c0-4.416,3.584-8,8-8h272c4.416,0,8,3.584,8,8v288l-88,88H120
	z"/>
<path style="fill:#A35623;" d="M176,96.001h-16v-16c0-8.84,7.16-16,16-16l0,0V96.001z"/>
<path style="fill:#CECECE;" d="M400,392.001h-80c-4.416,0-8,3.584-8,8v80L400,392.001z"/>
<path style="fill:#D17F4D;" d="M88,88.001L88,88.001c4.416,0,8,3.584,8,8v264c0,4.416-3.584,8-8,8l0,0c-4.416,0-8-3.584-8-8v-264
	C80,91.585,83.584,88.001,88,88.001z"/>
<g>
	<path style="fill:#E9E9E9;" d="M304,408.001v16c0,4.416-3.584,8-8,8l0,0c-4.416,0-8,3.584-8,8s-3.584,8-8,8h-8
		c-4.416,0-8,3.584-8,8s-3.584,8-8,8H112v8c0,4.416,3.584,8,8,8h192v-80C307.584,400.001,304,403.585,304,408.001z"/>
	<path style="fill:#E9E9E9;" d="M392,96.001H160c0.128,2.4,0.128,4.8,0,7.2c-0.44,8.824,6.352,16.336,15.176,16.776
		c0.28,0.016,0.552,0.024,0.824,0.024h192c8.84,0,16,7.16,16,16v24l0,0c0,8.84,7.16,16,16,16l0,0v-72
		C400,99.585,396.416,96.001,392,96.001z"/>
</g>
<path style="fill:#9BA7AF;" d="M308.72,45.121c-6.96-2.872-12.232-8.76-14.32-16c-6.184-21.208-28.392-33.384-49.6-27.2
	c-13.12,3.824-23.376,14.08-27.2,27.2c-2.088,7.24-7.36,13.128-14.32,16l-17.2,6.88c-6.064,2.416-10.056,8.272-10.08,14.8v29.2
	c0,8.84,7.16,16,16,16h128c8.84,0,16-7.16,16-16v-29.2c-0.024-6.528-4.016-12.384-10.08-14.8L308.72,45.121z M256,56.001
	c-8.84,0-16-7.16-16-16s7.16-16,16-16c8.84,0,16,7.16,16,16S264.84,56.001,256,56.001z"/>
<path style="fill:#72818B;" d="M312,64.001c-4.416,0-8,3.584-8,8l0,0c0,4.416-3.584,8-8,8h-16c-4.416,0-8,3.584-8,8l0,0
	c0,4.416-3.584,8-8,8h-88c0,8.84,7.16,16,16,16h128c8.84,0,16-7.16,16-16v-32H312z"/>
<path style="fill:#AFBABF;" d="M225.04,40.001c-4.416,0.144-8.112-3.328-8.248-7.744c-0.024-0.76,0.064-1.52,0.248-2.256
	c4.584-17.744,20.632-30.104,38.96-30c4.416,0,8,3.584,8,8s-3.584,8-8,8c-10.96-0.016-20.544,7.392-23.28,18
	C231.816,37.513,228.664,39.969,225.04,40.001z"/>
<path style="fill:#A35623;" d="M400,80.001h-32c-8.84,0-16-7.16-16-16h-16v32h56c4.416,0,8,3.584,8,8v288l-88,88H120
	c0,8.84,7.16,16,16,16h194.72c8.488,0.008,16.632-3.36,22.64-9.36l53.28-53.28c6-6.008,9.368-14.152,9.36-22.64V96.001
	C416,87.169,408.84,80.001,400,80.001z"/>
<path style="fill:#EE2C39;" d="M152,336.001c-4.416,0-8,3.584-8,8l0,0c0,4.416,3.584,8,8,8s8-3.584,8-8l0,0
	C160,339.585,156.416,336.001,152,336.001z"/>
<path style="fill:#9BA7AF;" d="M192,336.001h72c4.416,0,8,3.584,8,8l0,0c0,4.416-3.584,8-8,8h-72c-4.416,0-8-3.584-8-8l0,0
	C184,339.585,187.584,336.001,192,336.001z"/>
<path style="fill:#3CB54A;" d="M152,368.001c-4.416,0-8,3.584-8,8l0,0c0,4.416,3.584,8,8,8s8-3.584,8-8l0,0
	C160,371.585,156.416,368.001,152,368.001z"/>
<path style="fill:#9BA7AF;" d="M192,368.001h56c4.416,0,8,3.584,8,8l0,0c0,4.416-3.584,8-8,8h-56c-4.416,0-8-3.584-8-8l0,0
	C184,371.585,187.584,368.001,192,368.001z"/>
<g>
	<path style="fill:#CECECE;" d="M216,280.001c-4.416-0.024-7.984-3.616-7.96-8.04c0.008-1.648,0.528-3.256,1.48-4.6l40-56
		c2.56-3.6,7.56-4.44,11.16-1.88s4.44,7.56,1.88,11.16l0,0l-40,56C221.048,278.761,218.6,280.017,216,280.001z"/>
	<path style="fill:#CECECE;" d="M312,248.001c-1.072,0-2.136-0.216-3.12-0.64l-56-24c-4.064-1.744-5.944-6.456-4.2-10.52
		s6.456-5.944,10.52-4.2l56,24c4.064,1.728,5.96,6.432,4.224,10.496C318.16,246.105,315.232,248.025,312,248.001z"/>
</g>
<path style="fill:#9BA7AF;" d="M312,240.001c-1.072,0-2.136-0.216-3.12-0.64l-56-24c-1.52-0.712-2.784-1.888-3.6-3.36
	c-0.208,0.28-0.392,0.576-0.56,0.88c-1.728,4.04,0.128,8.72,4.16,10.48l56,24c4.04,1.728,8.72-0.128,10.48-4.16
	c0.944-2.328,0.736-4.968-0.56-7.12C317.376,238.489,314.8,239.977,312,240.001z"/>
<g>
	<path style="fill:#CECECE;" d="M312,248.001c-4.416,0.008-8.008-3.568-8.016-7.984c0-1.504,0.416-2.976,1.216-4.256l40-64
		c2.344-3.752,7.288-4.904,11.04-2.56c3.752,2.344,4.904,7.288,2.56,11.04l-40,64C317.336,246.585,314.768,248.009,312,248.001z"/>
	<path style="fill:#CECECE;" d="M216,280.001c-1.072,0-2.136-0.216-3.12-0.64l-56-24c-4.064-1.744-5.944-6.456-4.2-10.52
		s6.456-5.944,10.52-4.2l56,24c4.064,1.728,5.96,6.432,4.224,10.496C222.16,278.105,219.232,280.025,216,280.001z"/>
</g>
<path style="fill:#9BA7AF;" d="M222.8,268.081c-2.04,3.4-6.256,4.792-9.92,3.28l-56-24c-1.52-0.712-2.784-1.888-3.6-3.36
	c-0.208,0.28-0.392,0.576-0.56,0.88c-1.728,4.04,0.128,8.72,4.16,10.48l56,24c4.04,1.728,8.72-0.128,10.48-4.16
	C224.304,272.873,224.096,270.233,222.8,268.081z"/>
<circle style="fill:#EE2C39;" cx="216" cy="272.001" r="16"/>
<g>
	<circle style="fill:#3CB54A;" cx="160" cy="248.001" r="16"/>
	<circle style="fill:#3CB54A;" cx="256" cy="216.001" r="16"/>
</g>
<circle style="fill:#EE2C39;" cx="312" cy="240.001" r="16"/>
<circle style="fill:#3CB54A;" cx="352" cy="176.001" r="16"/>
<g>
	<path style="fill:#9BA7AF;" d="M337.92,183.441l-1.92,2.72c0.232,1.824,0.8,3.584,1.68,5.2c1.688,2.864,1.688,6.416,0,9.28
		l-16.56,26.56c1.936,1.44,3.52,3.296,4.64,5.44l20.88-33.44l4.48-7.2C345.528,191.657,340.52,188.409,337.92,183.441z"/>
	<path style="fill:#9BA7AF;" d="M241.44,222.561l-1.44,2c0.072,2.048,0.56,4.064,1.44,5.92c1.4,3.104,1.072,6.72-0.88,9.52
		l-14.16,20c1.736,1.504,3.128,3.352,4.08,5.44l19.12-26.72l4.88-6.72C248.752,231.433,243.776,227.825,241.44,222.561z"/>
</g>
<g>
	<path style="fill:#CC202C;" d="M323.28,251.281c4.888-4.864,6.112-12.312,3.04-18.48c-1.104-1.912-3.552-2.568-5.464-1.464
		c-0.312,0.184-0.6,0.408-0.856,0.664l-16,16c-1.576,1.544-1.6,4.08-0.056,5.656c0.256,0.256,0.544,0.48,0.856,0.664
		C310.968,257.393,318.416,256.169,323.28,251.281z"/>
	<path style="fill:#CC202C;" d="M227.28,283.281c4.888-4.864,6.112-12.312,3.04-18.48c-1.104-1.912-3.552-2.568-5.464-1.464
		c-0.312,0.184-0.6,0.408-0.856,0.664l-16,16c-1.576,1.544-1.6,4.08-0.056,5.656c0.256,0.256,0.544,0.48,0.856,0.664
		C214.968,289.393,222.416,288.169,227.28,283.281z"/>
</g>
<g>
	<path style="fill:#0E9347;" d="M363.28,187.281c4.888-4.864,6.112-12.312,3.04-18.48c-1.104-1.912-3.552-2.568-5.464-1.464
		c-0.312,0.184-0.6,0.408-0.856,0.664l-16,16c-1.576,1.544-1.6,4.08-0.056,5.656c0.256,0.256,0.544,0.48,0.856,0.664
		C350.968,193.393,358.416,192.169,363.28,187.281z"/>
	<path style="fill:#0E9347;" d="M267.28,227.281c4.888-4.864,6.112-12.312,3.04-18.48c-1.104-1.912-3.552-2.568-5.464-1.464
		c-0.312,0.184-0.6,0.408-0.856,0.664l-16,16c-1.576,1.544-1.6,4.08-0.056,5.656c0.256,0.256,0.544,0.48,0.856,0.664
		C254.968,233.393,262.416,232.169,267.28,227.281z"/>
	<path style="fill:#0E9347;" d="M171.28,259.281c4.888-4.864,6.112-12.312,3.04-18.48c-1.104-1.912-3.552-2.568-5.464-1.464
		c-0.312,0.184-0.6,0.408-0.856,0.664l-16,16c-1.576,1.544-1.6,4.08-0.056,5.656c0.256,0.256,0.544,0.48,0.856,0.664
		C158.968,265.393,166.416,264.169,171.28,259.281z"/>
</g>
<g>
</g>
<g>
</g>
<g>
</g>
<g>
</g>
<g>
</g>
<g>
</g>
<g>
</g>
<g>
</g>
<g>
</g>
<g>
</g>
<g>
</g>
<g>
</g>
<g>
</g>
<g>
</g>
<g>
</g>
</svg>
