<?xml version="1.0" encoding="iso-8859-1"?>
<!-- Generator: Adobe Illustrator 19.0.0, SVG Export Plug-In . SVG Version: 6.00 Build 0)  -->
<svg version="1.1" id="Layer_1" xmlns="http://www.w3.org/2000/svg" xmlns:xlink="http://www.w3.org/1999/xlink" x="0px" y="0px"
	 viewBox="0 0 512.001 512.001" style="enable-background:new 0 0 512.001 512.001;" xml:space="preserve">
<path style="fill:#BD6428;" d="M112,64.001h288c17.672,0,32,14.328,32,32v384c0,17.672-14.328,32-32,32H112
	c-17.672,0-32-14.328-32-32v-384C80,78.329,94.328,64.001,112,64.001z"/>
<path style="fill:#F5F6F6;" d="M120,480.001c-4.416,0-8-3.584-8-8v-368c0-4.416,3.584-8,8-8h272c4.416,0,8,3.584,8,8v288l-88,88H120
	z"/>
<path style="fill:#A35623;" d="M176,96.001h-16v-16c0-8.84,7.16-16,16-16l0,0V96.001z"/>
<path style="fill:#CECECE;" d="M400,392.001h-80c-4.416,0-8,3.584-8,8v80L400,392.001z"/>
<path style="fill:#D17F4D;" d="M88,88.001L88,88.001c4.416,0,8,3.584,8,8v264c0,4.416-3.584,8-8,8l0,0c-4.416,0-8-3.584-8-8v-264
	C80,91.585,83.584,88.001,88,88.001z"/>
<g>
	<path style="fill:#E9E9E9;" d="M304,408.001v16c0,4.416-3.584,8-8,8l0,0c-4.416,0-8,3.584-8,8s-3.584,8-8,8h-8
		c-4.416,0-8,3.584-8,8s-3.584,8-8,8H112v8c0,4.416,3.584,8,8,8h192v-80C307.584,400.001,304,403.585,304,408.001z"/>
	<path style="fill:#E9E9E9;" d="M392,96.001H160c0.128,2.4,0.128,4.8,0,7.2c-0.44,8.824,6.352,16.336,15.176,16.776
		c0.28,0.016,0.552,0.024,0.824,0.024h192c8.84,0,16,7.16,16,16v24l0,0c0,8.84,7.16,16,16,16l0,0v-72
		C400,99.585,396.416,96.001,392,96.001z"/>
</g>
<path style="fill:#9BA7AF;" d="M308.72,45.121c-6.96-2.872-12.232-8.76-14.32-16c-6.184-21.208-28.392-33.384-49.6-27.2
	c-13.12,3.824-23.376,14.08-27.2,27.2c-2.088,7.24-7.36,13.128-14.32,16l-17.2,6.88c-6.064,2.416-10.056,8.272-10.08,14.8v29.2
	c0,8.84,7.16,16,16,16h128c8.84,0,16-7.16,16-16v-29.2c-0.024-6.528-4.016-12.384-10.08-14.8L308.72,45.121z M256,56.001
	c-8.84,0-16-7.16-16-16s7.16-16,16-16c8.84,0,16,7.16,16,16S264.84,56.001,256,56.001z"/>
<path style="fill:#72818B;" d="M312,64.001c-4.416,0-8,3.584-8,8l0,0c0,4.416-3.584,8-8,8h-16c-4.416,0-8,3.584-8,8l0,0
	c0,4.416-3.584,8-8,8h-88c0,8.84,7.16,16,16,16h128c8.84,0,16-7.16,16-16v-32H312z"/>
<path style="fill:#AFBABF;" d="M225.04,40.001c-4.416,0.144-8.112-3.328-8.248-7.744c-0.024-0.76,0.064-1.52,0.248-2.256
	c4.584-17.744,20.632-30.104,38.96-30c4.416,0,8,3.584,8,8s-3.584,8-8,8c-10.96-0.016-20.544,7.392-23.28,18
	C231.816,37.513,228.664,39.969,225.04,40.001z"/>
<path style="fill:#A35623;" d="M400,80.001h-32c-8.84,0-16-7.16-16-16h-16v32h56c4.416,0,8,3.584,8,8v288l-88,88H120
	c0,8.84,7.16,16,16,16h194.72c8.488,0.008,16.632-3.36,22.64-9.36l53.28-53.28c6-6.008,9.368-14.152,9.36-22.64V96.001
	C416,87.169,408.84,80.001,400,80.001z"/>
<circle style="fill:#FCD063;" cx="256" cy="264.001" r="104"/>
<path style="fill:#FFFFFF;" d="M284.96,317.921c-1.488-0.008-2.944-0.392-4.24-1.12L256,303.281l-24.72,13.52
	c-3.056,1.688-6.824,1.408-9.6-0.72c-2.832-2.216-4.216-5.816-3.6-9.36l4.72-28.64l-20-20.32c-2.528-2.568-3.448-6.312-2.4-9.76
	c1.056-3.456,4.024-5.984,7.6-6.48l27.6-4.16l12.4-26.08c2.232-4.416,7.616-6.192,12.032-3.968c1.712,0.864,3.104,2.256,3.968,3.968
	l12.32,26.08l27.68,4.16c3.488,0.584,6.344,3.096,7.36,6.48c1.096,3.456,0.208,7.24-2.32,9.84l-20,20.32l4.72,28.64
	c0.616,3.544-0.768,7.144-3.6,9.36C288.656,317.281,286.84,317.897,284.96,317.921z"/>
<path style="fill:#DDDFE1;" d="M311.52,248.001c-1.04-3.432-3.968-5.952-7.52-6.48h-1.2c-0.44,0.944-1.032,1.808-1.76,2.56
	l-17.12,17.36c-1.768,1.824-2.576,4.376-2.16,6.88l4.08,24.64c0.616,3.544-0.768,7.144-3.6,9.36c-1.536,1.184-3.424,1.832-5.36,1.84
	c-1.488-0.008-2.944-0.392-4.24-1.12l-20.88-11.44c-2.472-1.432-5.528-1.432-8,0l-20.88,11.44c-1.472,0.792-3.136,1.152-4.8,1.04
	l-0.48,2.8c-0.616,3.544,0.768,7.144,3.6,9.36c2.776,2.128,6.544,2.408,9.6,0.72l25.2-13.68l24.72,13.52
	c1.296,0.728,2.752,1.112,4.24,1.12c1.936-0.008,3.824-0.656,5.36-1.84c2.832-2.216,4.216-5.816,3.6-9.36l-4.72-28.64l20-20.32
	C311.696,255.177,312.584,251.433,311.52,248.001z"/>
<g>
	<path style="fill:#F7B84E;" d="M319.52,258.081c-1.04-3.432-3.968-5.952-7.52-6.48l0,0c-0.104,2.368-1.072,4.616-2.72,6.32
		l-20,20.32l4.72,28.64c0.616,3.544-0.768,7.144-3.6,9.36c-1.536,1.184-3.424,1.832-5.36,1.84c-1.488-0.008-2.944-0.392-4.24-1.12
		l-24.8-13.68l-24.72,13.52c-1.616,0.864-3.464,1.2-5.28,0.96c-0.128,3.104,1.24,6.08,3.68,8c2.776,2.128,6.544,2.408,9.6,0.72
		l24.72-13.12l24.72,13.52c1.296,0.728,2.752,1.112,4.24,1.12c1.936-0.008,3.824-0.656,5.36-1.84c2.832-2.216,4.216-5.816,3.6-9.36
		l-4.64-28.8l20-20.32C319.688,265.113,320.544,261.449,319.52,258.081z"/>
	<path style="fill:#F7B84E;" d="M344,248.001c-8.84,0-16,7.16-16,16c0,39.768-32.232,72-72,72c-8.84,0-16,7.16-16,16s7.16,16,16,16
		c57.44,0,104-46.56,104-104C360,255.169,352.84,248.001,344,248.001z"/>
</g>
<path style="fill:#FFE7A7;" d="M168,280.001c8.84,0,16-7.16,16-16c0-39.768,32.232-72,72-72c8.84,0,16-7.16,16-16s-7.16-16-16-16
	c-57.44,0-104,46.56-104,104C152,272.841,159.16,280.001,168,280.001z"/>
<g>
</g>
<g>
</g>
<g>
</g>
<g>
</g>
<g>
</g>
<g>
</g>
<g>
</g>
<g>
</g>
<g>
</g>
<g>
</g>
<g>
</g>
<g>
</g>
<g>
</g>
<g>
</g>
<g>
</g>
</svg>
