<?xml version="1.0" encoding="iso-8859-1"?>
<!-- Generator: Adobe Illustrator 19.0.0, SVG Export Plug-In . SVG Version: 6.00 Build 0)  -->
<svg version="1.1" id="Layer_1" xmlns="http://www.w3.org/2000/svg" xmlns:xlink="http://www.w3.org/1999/xlink" x="0px" y="0px"
	 viewBox="0 0 512 512" style="enable-background:new 0 0 512 512;" xml:space="preserve">
<circle style="fill:#D6E5F6;" cx="256" cy="256" r="228.571"/>
<path style="fill:#A4C6EC;" d="M256,27.429v457.143c126.235,0,228.571-102.336,228.571-228.568
	C484.571,129.765,382.235,27.429,256,27.429z"/>
<path style="fill:#D8145D;" d="M256,512C114.843,512,0,397.16,0,256.004C0,114.843,114.843,0,256,0
	c141.16,0,256,114.843,256,256.004C512,397.16,397.16,512,256,512z M256,54.857c-110.91,0-201.143,90.235-201.143,201.147
	c0,110.907,90.233,201.139,201.143,201.139s201.143-90.233,201.143-201.139C457.143,145.092,366.91,54.857,256,54.857z"/>
<path style="fill:#1D3366;" d="M374.821,283.546H256c-15.146,0-27.429-12.279-27.429-27.429V137.296
	c0-15.15,12.283-27.429,27.429-27.429c15.15,0,27.429,12.279,27.429,27.429v91.392h91.392c15.15,0,27.429,12.283,27.429,27.429
	C402.249,271.269,389.972,283.546,374.821,283.546z"/>
<path style="fill:#A90140;" d="M256,0v54.857c110.91,0,201.143,90.235,201.143,201.147c0,110.907-90.233,201.139-201.143,201.139
	V512c141.16,0,256-114.84,256-255.996C512,114.843,397.16,0,256,0z"/>
<g>
</g>
<g>
</g>
<g>
</g>
<g>
</g>
<g>
</g>
<g>
</g>
<g>
</g>
<g>
</g>
<g>
</g>
<g>
</g>
<g>
</g>
<g>
</g>
<g>
</g>
<g>
</g>
<g>
</g>
</svg>
