<?xml version="1.0" encoding="iso-8859-1"?>
<!-- Generator: Adobe Illustrator 19.0.0, SVG Export Plug-In . SVG Version: 6.00 Build 0)  -->
<svg version="1.1" id="Layer_1" xmlns="http://www.w3.org/2000/svg" xmlns:xlink="http://www.w3.org/1999/xlink" x="0px" y="0px"
	 viewBox="0 0 512 512" style="enable-background:new 0 0 512 512;" xml:space="preserve">
<circle style="fill:#D6E5F6;" cx="255.999" cy="255.999" r="233.575"/>
<path style="fill:#A7C7FC;" d="M256,22.423v467.154c128.999,0,233.575-104.576,233.575-233.577S384.999,22.423,256,22.423z"/>
<path style="fill:#4D80C9;" d="M256,512C114.841,512,0.002,397.159,0.002,256C0.001,114.841,114.841,0,256,0
	s255.999,114.841,255.999,256S397.159,512,256,512z M256,44.846C139.57,44.846,44.848,139.57,44.848,256S139.57,467.154,256,467.154
	S467.152,372.43,467.152,256S372.43,44.846,256,44.846z"/>
<path style="fill:#1D3366;" d="M338.189,293.469h-97.137c-12.384,0-22.423-10.04-22.423-22.423v-97.14
	c0-12.384,10.04-22.423,22.423-22.423c12.384,0,22.423,10.04,22.423,22.423v74.717h74.714c12.384,0,22.423,10.04,22.423,22.423
	C360.612,283.43,350.574,293.469,338.189,293.469z"/>
<path style="fill:#385C8E;" d="M256,0v44.846c116.43,0,211.152,94.723,211.152,211.154S372.43,467.154,256,467.154V512
	c141.159,0,255.999-114.841,255.999-256S397.159,0,256,0z"/>
<g>
</g>
<g>
</g>
<g>
</g>
<g>
</g>
<g>
</g>
<g>
</g>
<g>
</g>
<g>
</g>
<g>
</g>
<g>
</g>
<g>
</g>
<g>
</g>
<g>
</g>
<g>
</g>
<g>
</g>
</svg>
