<?xml version="1.0" encoding="iso-8859-1"?>
<!-- Generator: Adobe Illustrator 19.0.0, SVG Export Plug-In . SVG Version: 6.00 Build 0)  -->
<svg version="1.1" id="Layer_1" xmlns="http://www.w3.org/2000/svg" xmlns:xlink="http://www.w3.org/1999/xlink" x="0px" y="0px"
	 viewBox="0 0 512 512" style="enable-background:new 0 0 512 512;" xml:space="preserve">
<path style="fill:#3F4A5A;" d="M255.962,0.065C114.616,0.065,0,114.574,0,256.006c0,141.404,114.616,255.928,255.962,255.928
	C397.42,511.935,512,397.411,512,256.006C512,114.574,397.42,0.065,255.962,0.065z"/>
<path style="fill:#FFFFFF;" d="M468.357,256.012c0,117.281-95.112,212.388-212.383,212.388
	c-117.304,0-212.416-95.107-212.416-212.388c0-117.297,95.112-212.393,212.416-212.393
	C373.245,43.619,468.357,138.717,468.357,256.012z"/>
<path style="fill:#F67656;" d="M256,43.619v212.37h212.357C468.337,138.71,373.258,43.631,256,43.619z"/>
<g>
	<rect x="243.917" y="133.403" style="fill:#3F4A5A;" width="24.044" height="96.192"/>
	<rect x="282.368" y="243.995" style="fill:#3F4A5A;" width="96.161" height="24.038"/>
	<path style="fill:#3F4A5A;" d="M300.431,255.988c0,24.581-19.901,44.498-44.483,44.498c-24.576,0-44.483-19.917-44.483-44.498
		c0-24.584,19.909-44.475,44.483-44.475C280.53,211.514,300.431,231.405,300.431,255.988z"/>
</g>
<path style="fill:#FFFFFF;" d="M276.388,255.988c0,11.3-9.155,20.439-20.436,20.439c-11.287,0-20.434-9.139-20.434-20.439
	c0-11.279,9.147-20.449,20.434-20.449C267.233,235.537,276.388,244.707,276.388,255.988z"/>
<path style="fill:#F67656;" d="M267.976,255.988c0,6.623-5.399,12.04-12.024,12.04c-6.633,0-12.024-5.414-12.024-12.04
	c0-6.618,5.391-12.001,12.024-12.001C262.574,243.987,267.976,249.371,267.976,255.988z"/>
<g>
	<path style="fill:#3F4A5A;" d="M255.974,87.494c-6.625,0-12.042-5.376-12.042-12.017c0-6.651,5.417-12.029,12.042-12.029
		c6.612,0,12.001,5.379,12.001,12.029C267.976,82.118,262.587,87.494,255.974,87.494z"/>
	<path style="fill:#3F4A5A;" d="M171.699,110.071c-5.755,3.305-13.092,1.352-16.417-4.401c-3.338-5.757-1.336-13.107,4.416-16.422
		c5.724-3.308,13.084-1.359,16.387,4.393C179.425,99.401,177.426,106.758,171.699,110.071z"/>
	<path style="fill:#3F4A5A;" d="M110.003,171.752c-3.292,5.747-10.65,7.724-16.412,4.393c-5.75-3.318-7.708-10.683-4.408-16.42
		c3.32-5.734,10.683-7.711,16.433-4.403C111.365,158.652,113.326,166.017,110.003,171.752z"/>
	<path style="fill:#3F4A5A;" d="M87.421,256.012c0.013,6.612-5.363,12.024-12.001,12.014c-6.666,0-12.024-5.399-12.024-12.014
		c0-6.618,5.386-12.024,12.024-12.024C82.058,243.987,87.421,249.394,87.421,256.012z"/>
	<path style="fill:#3F4A5A;" d="M110.003,340.276c3.333,5.734,1.375,13.1-4.388,16.425c-5.75,3.325-13.112,1.326-16.433-4.416
		c-3.3-5.742-1.341-13.1,4.408-16.41C99.354,332.55,106.701,334.519,110.003,340.276z"/>
	<path style="fill:#3F4A5A;" d="M171.699,401.975c5.747,3.274,7.726,10.65,4.388,16.399c-3.32,5.76-10.662,7.718-16.387,4.401
		c-5.755-3.325-7.767-10.683-4.416-16.425C158.61,400.593,165.947,398.644,171.699,401.975z"/>
	<path style="fill:#3F4A5A;" d="M255.962,424.552c6.625-0.015,12.012,5.343,12.012,12.001c0,6.661-5.386,12.009-12.001,12.024
		c-6.625-0.015-12.042-5.376-12.042-12.024S249.308,424.544,255.962,424.552z"/>
	<path style="fill:#3F4A5A;" d="M340.244,401.975c5.729-3.341,13.079-1.39,16.387,4.375c3.305,5.76,1.306,13.1-4.352,16.425
		c-5.75,3.318-13.117,1.359-16.448-4.401C332.506,412.627,334.505,405.262,340.244,401.975z"/>
	<path style="fill:#3F4A5A;" d="M401.892,340.276c3.302-5.757,10.632-7.726,16.407-4.383c5.755,3.308,7.721,10.65,4.449,16.381
		c-3.308,5.75-10.637,7.749-16.425,4.426C400.584,353.376,398.582,346.019,401.892,340.276z"/>
	<path style="fill:#3F4A5A;" d="M424.468,256.019c0-6.625,5.366-12.032,12.032-12.012c6.659-0.02,12.024,5.386,12.024,12.001
		c0,6.618-5.368,12.019-12.024,12.019C429.832,268.026,424.468,262.637,424.468,256.019z"/>
	<path style="fill:#3F4A5A;" d="M401.892,171.757c-3.31-5.74-1.341-13.087,4.431-16.43c5.788-3.31,13.117-1.334,16.399,4.396
		c3.295,5.74,1.331,13.105-4.362,16.422C412.549,179.462,405.22,177.509,401.892,171.757z"/>
	<path style="fill:#3F4A5A;" d="M340.244,110.071c-5.74-3.313-7.739-10.657-4.413-16.428c3.366-5.755,10.698-7.7,16.387-4.413
		c5.716,3.336,7.718,10.688,4.413,16.44C353.362,111.415,345.974,113.376,340.244,110.071z"/>
</g>
<g>
</g>
<g>
</g>
<g>
</g>
<g>
</g>
<g>
</g>
<g>
</g>
<g>
</g>
<g>
</g>
<g>
</g>
<g>
</g>
<g>
</g>
<g>
</g>
<g>
</g>
<g>
</g>
<g>
</g>
</svg>
