<?xml version="1.0" encoding="iso-8859-1"?>
<!-- Generator: Adobe Illustrator 19.0.0, SVG Export Plug-In . SVG Version: 6.00 Build 0)  -->
<svg version="1.1" id="Capa_1" xmlns="http://www.w3.org/2000/svg" xmlns:xlink="http://www.w3.org/1999/xlink" x="0px" y="0px"
	 viewBox="0 0 350 350" style="enable-background:new 0 0 350 350;" xml:space="preserve">
<g id="XMLID_1163_">
	<circle id="XMLID_1166_" style="fill:#8EC8F0;" cx="277.586" cy="120.862" r="48.276"/>
	<g id="XMLID_1167_">
		<path id="XMLID_1170_" style="fill:#C1E8E6;" d="M350,199.31c0-36.66-29.719-66.379-66.379-66.379
			c-2.037,0-4.048,0.106-6.038,0.286c0-0.095,0.004-0.19,0.004-0.286c0-59.99-48.631-108.621-108.621-108.621
			c-56.225,0-102.472,42.719-108.055,97.471C26.386,127.294,0,157.199,0,193.276c0,39.993,32.421,72.414,72.414,72.414h217.241
			v-0.285C323.486,262.354,350,233.935,350,199.31z"/>
		<path id="XMLID_1173_" style="fill:#8EC8F0;" d="M283.621,132.931c-2.037,0-4.048,0.106-6.038,0.286
			c0-0.095,0.004-0.19,0.004-0.286c0-59.644-48.074-108.051-107.586-108.608V265.69h119.655v-0.285
			C323.486,262.353,350,233.935,350,199.31C350,162.65,320.281,132.931,283.621,132.931z"/>
	</g>
	<polygon id="XMLID_1176_" style="fill:#6DA8D6;" points="205.297,239.799 205.297,162.145 134.703,162.145 134.703,239.799 
		108.864,239.799 170,325.69 231.136,239.799 	"/>
	<polygon id="XMLID_1179_" style="fill:#2974A8;" points="205.297,239.799 205.297,162.145 170,162.145 170,325.69 231.136,239.799 
			"/>
</g>
<g>
</g>
<g>
</g>
<g>
</g>
<g>
</g>
<g>
</g>
<g>
</g>
<g>
</g>
<g>
</g>
<g>
</g>
<g>
</g>
<g>
</g>
<g>
</g>
<g>
</g>
<g>
</g>
<g>
</g>
</svg>
