<?xml version="1.0" encoding="iso-8859-1"?>
<!-- Generator: Adobe Illustrator 19.0.0, SVG Export Plug-In . SVG Version: 6.00 Build 0)  -->
<svg version="1.1" id="Layer_1" xmlns="http://www.w3.org/2000/svg" xmlns:xlink="http://www.w3.org/1999/xlink" x="0px" y="0px"
	 viewBox="0 0 512 512" style="enable-background:new 0 0 512 512;" xml:space="preserve">
<path style="fill:#EAEAEA;" d="M417.392,140.928h-7.584c-7.536-31.728-36.128-55.504-70.336-55.504c-8.304,0-16.72,1.824-23.68,4.16
	C299.072,42.096,253.76,8,200.352,8C132.736,8,77.904,62.544,77.904,129.84c0,4.24,0.224,8.432,0.64,12.544
	C34.112,150.032,0,188.736,0,235.056C0,286.832,42.576,329.2,94.608,329.2h322.784c52.032,0,94.608-42.368,94.608-94.144
	C512,183.296,469.424,140.928,417.392,140.928z"/>
<polygon style="fill:#FABC3D;" points="328.336,377.504 362.272,343.552 256,237.296 149.728,343.552 183.664,377.504 
	218.336,342.832 232,329.168 232,348.48 232,504 280,504 280,348.48 280,329.168 293.664,342.832 "/>
<g>
</g>
<g>
</g>
<g>
</g>
<g>
</g>
<g>
</g>
<g>
</g>
<g>
</g>
<g>
</g>
<g>
</g>
<g>
</g>
<g>
</g>
<g>
</g>
<g>
</g>
<g>
</g>
<g>
</g>
</svg>
