<?xml version="1.0" encoding="iso-8859-1"?>
<!-- Generator: Adobe Illustrator 19.0.0, SVG Export Plug-In . SVG Version: 6.00 Build 0)  -->
<svg version="1.1" id="Layer_1" xmlns="http://www.w3.org/2000/svg" xmlns:xlink="http://www.w3.org/1999/xlink" x="0px" y="0px"
	 viewBox="0 0 512 512" style="enable-background:new 0 0 512 512;" xml:space="preserve">
<path style="fill:#EAEAEA;" d="M417.392,161.896h-7.584c-7.536-31.728-36.128-55.504-70.336-55.504c-8.304,0-16.72,1.824-23.68,4.16
	c-16.72-47.488-62.032-81.584-115.44-81.584c-67.616,0-122.448,54.544-122.448,121.84c0,4.24,0.224,8.432,0.64,12.544
	C34.112,171,0,209.704,0,256.024c0,51.776,42.576,94.144,94.608,94.144h322.784c52.032,0,94.608-42.368,94.608-94.144
	C512,204.264,469.424,161.896,417.392,161.896z"/>
<circle style="fill:#32BEA6;" cx="256" cy="345.576" r="137.456"/>
<path style="fill:#FFFFFF;" d="M220.752,392.744c5.184,3.328,17.264,8.528,29.952,8.528c23.504,0,30.784-14.976,30.576-26.208
	c-0.224-18.944-17.264-27.04-34.96-27.04h-10.192v-13.712h10.192c13.312,0,30.16-6.88,30.16-22.896
	c0-10.816-6.864-20.368-23.696-20.368c-10.816,0-21.216,4.784-27.04,8.944l-4.784-13.312c7.072-5.2,20.8-10.4,35.36-10.4
	c26.624,0,38.688,15.808,38.688,32.256c0,13.936-8.32,25.792-24.96,31.824v0.4c16.64,3.328,30.16,15.808,30.16,34.736
	c0,21.648-16.848,40.56-49.296,40.56c-15.184,0-28.496-4.784-35.152-9.136L220.752,392.744z"/>
<g>
</g>
<g>
</g>
<g>
</g>
<g>
</g>
<g>
</g>
<g>
</g>
<g>
</g>
<g>
</g>
<g>
</g>
<g>
</g>
<g>
</g>
<g>
</g>
<g>
</g>
<g>
</g>
<g>
</g>
</svg>
