<?xml version="1.0" encoding="iso-8859-1"?>
<!-- Generator: Adobe Illustrator 19.0.0, SVG Export Plug-In . SVG Version: 6.00 Build 0)  -->
<svg version="1.1" id="Layer_1" xmlns="http://www.w3.org/2000/svg" xmlns:xlink="http://www.w3.org/1999/xlink" x="0px" y="0px"
	 viewBox="0 0 512 512" style="enable-background:new 0 0 512 512;" xml:space="preserve">
<path style="fill:#EAEAEA;" d="M417.392,148.928h-7.584c-7.536-31.728-36.128-55.504-70.336-55.504c-8.304,0-16.72,1.824-23.68,4.16
	C299.072,50.096,253.76,16,200.352,16C132.736,16,77.904,70.544,77.904,137.84c0,4.24,0.224,8.432,0.64,12.544
	C34.112,158.032,0,196.736,0,243.056C0,294.832,42.576,337.2,94.608,337.2h322.784c52.032,0,94.608-42.368,94.608-94.144
	C512,191.296,469.424,148.928,417.392,148.928z"/>
<g>
	<polygon style="fill:#32BEA6;" points="228.272,309.232 262.208,275.28 155.936,169.024 49.68,275.28 83.616,309.232 
		118.288,274.56 131.936,260.896 131.936,280.208 131.936,435.728 179.936,435.728 179.936,280.208 179.936,260.896 193.6,274.56 	
		"/>
	<polygon style="fill:#32BEA6;" points="283.728,355.792 249.792,389.744 356.064,496 462.32,389.744 428.384,355.792 
		393.712,390.464 380.064,404.128 380.064,384.816 380.064,229.296 332.064,229.296 332.064,384.816 332.064,404.128 318.4,390.464 
			"/>
</g>
<g>
</g>
<g>
</g>
<g>
</g>
<g>
</g>
<g>
</g>
<g>
</g>
<g>
</g>
<g>
</g>
<g>
</g>
<g>
</g>
<g>
</g>
<g>
</g>
<g>
</g>
<g>
</g>
<g>
</g>
</svg>
