<?xml version="1.0" encoding="iso-8859-1"?>
<!-- Generator: Adobe Illustrator 19.0.0, SVG Export Plug-In . SVG Version: 6.00 Build 0)  -->
<svg version="1.1" id="Layer_1" xmlns="http://www.w3.org/2000/svg" xmlns:xlink="http://www.w3.org/1999/xlink" x="0px" y="0px"
	 viewBox="0 0 433.72 433.72" style="enable-background:new 0 0 433.72 433.72;" xml:space="preserve">
<g>
	<path style="fill:#EF806F;" d="M406.03,251.19c17.06,16.37,27.69,39.41,27.69,64.93c0,49.71-40.3,90-90,90c-49.71,0-90-40.29-90-90
		c0-3.53,0.2-7,0.6-10.42c5.16-44.79,43.22-79.58,89.4-79.58C367.9,226.12,389.86,235.65,406.03,251.19z"/>
	<path style="fill:#1EA6C6;" d="M412.91,216.89c0,7.16-0.85,14.12-2.46,20.79c-18.61-15.89-42.07-24.56-66.73-24.56
		c-52.35,0-96.33,39.16-102.31,91.07c-0.06,0.48-0.11,0.96-0.16,1.44H70.99C31.78,305.63,0,273.84,0,234.64
		c0-30.52,19.26-56.54,46.29-66.57c-0.1-1.46-0.16-2.94-0.16-4.42c0-36.41,29.51-65.92,65.92-65.92c11.66,0,22.61,3.04,32.12,8.36
		c10.19-44.94,50.38-78.49,98.4-78.49c55.73,0,100.91,45.18,100.91,100.91c0,0.58-0.02,1.16-0.03,1.75
		C383.19,139.06,412.91,174.5,412.91,216.89z"/>
	<g>
		<g>
			<g>
				<path style="fill:#FFFFFF;" d="M312.719,336.79c-1.979,0-3.909-0.8-5.3-2.2c-0.35-0.34-0.66-0.73-0.939-1.14
					c-0.271-0.41-0.5-0.84-0.69-1.29c-0.189-0.46-0.33-0.93-0.43-1.41c-0.09-0.48-0.141-0.97-0.141-1.46s0.051-0.98,0.141-1.47
					c0.1-0.48,0.24-0.95,0.43-1.4c0.19-0.45,0.42-0.89,0.69-1.3c0.279-0.41,0.59-0.79,0.939-1.14c0.34-0.34,0.721-0.65,1.13-0.93
					c0.41-0.27,0.851-0.5,1.301-0.69c0.449-0.19,0.92-0.33,1.399-0.43c0.97-0.19,1.97-0.19,2.93,0c0.48,0.1,0.95,0.24,1.41,0.43
					c0.45,0.19,0.88,0.42,1.29,0.69c0.41,0.28,0.79,0.59,1.141,0.93c0.35,0.35,0.659,0.73,0.93,1.14c0.27,0.41,0.51,0.85,0.69,1.3
					c0.189,0.45,0.329,0.92,0.43,1.4c0.1,0.49,0.149,0.98,0.149,1.47s-0.05,0.98-0.149,1.46c-0.101,0.48-0.24,0.95-0.43,1.41
					c-0.181,0.45-0.421,0.88-0.69,1.29c-0.271,0.41-0.58,0.8-0.93,1.14C316.62,335.99,314.69,336.79,312.719,336.79z"/>
				<path style="fill:#FFFFFF;" d="M374.719,336.79c-0.489,0-0.979-0.05-1.47-0.15c-0.479-0.1-0.95-0.24-1.399-0.43
					c-0.45-0.18-0.891-0.42-1.301-0.69c-0.409-0.27-0.79-0.58-1.14-0.93c-0.34-0.35-0.66-0.73-0.93-1.14
					c-0.271-0.41-0.5-0.84-0.69-1.29c-0.189-0.46-0.33-0.93-0.43-1.41c-0.09-0.48-0.141-0.97-0.141-1.46
					c0-1.98,0.801-3.91,2.19-5.31c0.35-0.34,0.73-0.66,1.14-0.93s0.851-0.5,1.301-0.69c0.449-0.19,0.92-0.33,1.399-0.43
					c0.97-0.19,1.97-0.19,2.93,0c0.48,0.1,0.95,0.24,1.41,0.43c0.45,0.19,0.88,0.42,1.29,0.69s0.79,0.59,1.141,0.93
					c1.399,1.4,2.199,3.33,2.199,5.31c0,0.49-0.05,0.98-0.149,1.46c-0.101,0.48-0.24,0.95-0.43,1.41
					c-0.181,0.45-0.421,0.88-0.69,1.29c-0.271,0.41-0.58,0.79-0.93,1.14c-0.351,0.35-0.73,0.66-1.141,0.93s-0.84,0.51-1.29,0.69
					c-0.46,0.19-0.93,0.33-1.41,0.43C375.7,336.74,375.21,336.79,374.719,336.79z"/>
				<path style="fill:#FFFFFF;" d="M343.719,336.79c-0.489,0-0.979-0.05-1.47-0.15c-0.479-0.1-0.95-0.24-1.399-0.43
					c-0.45-0.18-0.891-0.42-1.301-0.69c-0.409-0.27-0.79-0.58-1.14-0.93c-0.34-0.34-0.65-0.73-0.93-1.14
					c-0.271-0.4-0.5-0.84-0.69-1.29c-0.189-0.46-0.33-0.93-0.43-1.41c-0.09-0.48-0.141-0.97-0.141-1.46s0.051-0.98,0.141-1.47
					c0.1-0.48,0.24-0.95,0.43-1.4c0.19-0.45,0.42-0.89,0.69-1.3c0.279-0.41,0.59-0.79,0.93-1.14c0.35-0.34,0.73-0.66,1.14-0.93
					s0.851-0.5,1.301-0.69c0.449-0.19,0.92-0.33,1.399-0.43c0.97-0.19,1.97-0.19,2.93,0c0.48,0.1,0.95,0.24,1.41,0.43
					c0.45,0.19,0.88,0.42,1.29,0.69s0.79,0.59,1.141,0.93c0.35,0.35,0.659,0.73,0.93,1.14c0.27,0.41,0.51,0.85,0.69,1.3
					c0.189,0.45,0.329,0.92,0.43,1.4c0.1,0.49,0.149,0.98,0.149,1.47s-0.05,0.98-0.149,1.46c-0.101,0.48-0.24,0.95-0.43,1.41
					c-0.181,0.45-0.421,0.89-0.69,1.29c-0.271,0.41-0.58,0.8-0.93,1.14c-0.351,0.35-0.73,0.66-1.141,0.93s-0.84,0.51-1.29,0.69
					c-0.46,0.19-0.93,0.33-1.41,0.43C344.7,336.74,344.21,336.79,343.719,336.79z"/>
			</g>
		</g>
	</g>
</g>
<g>
</g>
<g>
</g>
<g>
</g>
<g>
</g>
<g>
</g>
<g>
</g>
<g>
</g>
<g>
</g>
<g>
</g>
<g>
</g>
<g>
</g>
<g>
</g>
<g>
</g>
<g>
</g>
<g>
</g>
</svg>
