<?xml version="1.0" encoding="iso-8859-1"?>
<!-- Generator: Adobe Illustrator 19.0.0, SVG Export Plug-In . SVG Version: 6.00 Build 0)  -->
<svg version="1.1" id="Layer_1" xmlns="http://www.w3.org/2000/svg" xmlns:xlink="http://www.w3.org/1999/xlink" x="0px" y="0px"
	 viewBox="0 0 512 512" style="enable-background:new 0 0 512 512;" xml:space="preserve">
<path style="fill:#EAEAEA;" d="M417.392,172.536h-7.584c-7.536-31.728-36.128-55.504-70.336-55.504c-8.304,0-16.72,1.824-23.68,4.16
	c-16.72-47.488-62.032-81.584-115.44-81.584c-67.616,0-122.448,54.544-122.448,121.84c0,4.24,0.224,8.432,0.64,12.544
	C34.112,181.64,0,220.344,0,266.664c0,51.776,42.576,94.144,94.608,94.144h322.784c52.032,0,94.608-42.368,94.608-94.144
	C512,214.904,469.424,172.536,417.392,172.536z"/>
<polygon style="fill:#333333;" points="393.536,429.848 294.368,330.68 336.896,288.136 179.856,260.856 207.152,417.896 
	251.824,373.224 350.992,472.392 "/>
<g>
</g>
<g>
</g>
<g>
</g>
<g>
</g>
<g>
</g>
<g>
</g>
<g>
</g>
<g>
</g>
<g>
</g>
<g>
</g>
<g>
</g>
<g>
</g>
<g>
</g>
<g>
</g>
<g>
</g>
</svg>
