<?xml version="1.0" encoding="iso-8859-1"?>
<!-- Generator: Adobe Illustrator 19.0.0, SVG Export Plug-In . SVG Version: 6.00 Build 0)  -->
<svg version="1.1" id="Layer_1" xmlns="http://www.w3.org/2000/svg" xmlns:xlink="http://www.w3.org/1999/xlink" x="0px" y="0px"
	 viewBox="0 0 512 512" style="enable-background:new 0 0 512 512;" xml:space="preserve">
<g>
	<circle style="fill:#E04F5F;" cx="132" cy="468" r="36"/>
	<circle style="fill:#E04F5F;" cx="296" cy="468" r="36"/>
	<circle style="fill:#E04F5F;" cx="460" cy="468" r="36"/>
</g>
<path style="fill:#EAEAEA;" d="M417.392,140.928h-7.584c-7.536-31.728-36.128-55.504-70.336-55.504c-8.304,0-16.72,1.824-23.68,4.16
	C299.072,42.096,253.76,8,200.352,8C132.736,8,77.904,62.544,77.904,129.84c0,4.24,0.224,8.432,0.64,12.544
	C34.112,150.032,0,188.736,0,235.056C0,286.832,42.576,329.2,94.608,329.2h322.784c52.032,0,94.608-42.368,94.608-94.144
	C512,183.296,469.424,140.928,417.392,140.928z"/>
<g>
	<polygon style="fill:#E04F5F;" points="304,439.92 288,439.92 288,246 198.32,246 198.32,142 214.32,142 214.32,230 304,230 	"/>
	<polygon style="fill:#E04F5F;" points="468,435.44 452,435.392 452.128,388.48 140.144,388.48 140,435.44 124,435.392 
		124.192,372.48 468.192,372.48 	"/>
</g>
<g>
</g>
<g>
</g>
<g>
</g>
<g>
</g>
<g>
</g>
<g>
</g>
<g>
</g>
<g>
</g>
<g>
</g>
<g>
</g>
<g>
</g>
<g>
</g>
<g>
</g>
<g>
</g>
<g>
</g>
</svg>
