<?xml version="1.0" encoding="iso-8859-1"?>
<!-- Generator: Adobe Illustrator 19.0.0, SVG Export Plug-In . SVG Version: 6.00 Build 0)  -->
<svg version="1.1" id="Layer_1" xmlns="http://www.w3.org/2000/svg" xmlns:xlink="http://www.w3.org/1999/xlink" x="0px" y="0px"
	 viewBox="0 0 512 512" style="enable-background:new 0 0 512 512;" xml:space="preserve">
<path style="fill:#EAEAEA;" d="M417.392,149.36h-7.584c-7.536-31.728-36.128-55.504-70.336-55.504c-8.304,0-16.72,1.824-23.68,4.16
	c-16.72-47.488-62.032-81.584-115.44-81.584c-67.616,0-122.448,54.544-122.448,121.84c0,4.24,0.224,8.432,0.64,12.544
	C34.112,158.464,0,197.168,0,243.488c0,51.776,42.576,94.144,94.608,94.144h322.784c52.032,0,94.608-42.368,94.608-94.144
	C512,191.728,469.424,149.36,417.392,149.36z"/>
<path style="fill:#25B7D3;" d="M256,175.104c-76.72,0-138.912,62.192-138.912,138.912c0,45.776,22.24,86.272,56.4,111.568v69.984
	l56.464-45.168c8.448,1.6,17.136,2.528,26.048,2.528c76.72,0,138.912-62.192,138.912-138.912S332.72,175.104,256,175.104z"/>
<g>
	<circle style="fill:#FFFFFF;" cx="189.12" cy="308.864" r="20.352"/>
	<circle style="fill:#FFFFFF;" cx="256" cy="308.864" r="20.352"/>
	<circle style="fill:#FFFFFF;" cx="322.88" cy="308.864" r="20.352"/>
</g>
<g>
</g>
<g>
</g>
<g>
</g>
<g>
</g>
<g>
</g>
<g>
</g>
<g>
</g>
<g>
</g>
<g>
</g>
<g>
</g>
<g>
</g>
<g>
</g>
<g>
</g>
<g>
</g>
<g>
</g>
</svg>
