<?xml version="1.0" encoding="iso-8859-1"?>
<!-- Generator: Adobe Illustrator 19.0.0, SVG Export Plug-In . SVG Version: 6.00 Build 0)  -->
<svg version="1.1" id="Layer_1" xmlns="http://www.w3.org/2000/svg" xmlns:xlink="http://www.w3.org/1999/xlink" x="0px" y="0px"
	 viewBox="0 0 512 512" style="enable-background:new 0 0 512 512;" xml:space="preserve">
<path style="fill:#9DE8F7;" d="M460.631,243.707c-0.893,0-1.731,0.092-2.629,0.154c3.469-8.968,5.394-18.716,5.394-28.884
	c0-44.27-35.866-80.131-80.164-80.131c-12.186,0-23.726,2.739-34.092,7.616c-17.052-56.507-69.507-97.646-131.574-97.646
	c-75.912,0-137.441,61.532-137.441,137.431c0,1.347,0.069,2.662,0.077,3.96c-0.008,0-0.038,0-0.077,0
	C35.894,186.207,0,222.07,0,266.345c0,44.239,35.894,80.125,80.123,80.125h119.516v38.474h-43.046c-2.153,0-4.196,1.27-5.082,3.4
	c-0.881,2.117-0.343,4.477,1.185,6.001l71.247,71.232c0.996,0.986,2.376,1.608,3.896,1.608c1.523,0,2.9-0.622,3.884-1.608
	l71.232-71.232c1.526-1.523,2.074-3.884,1.183-6.001c-0.873-2.13-2.926-3.4-5.079-3.4H256v-76.961h-43.057
	c-2.158,0-4.219-1.285-5.089-3.4c-0.881-2.115-0.338-4.47,1.188-6.001l71.235-71.217c1.001-0.991,2.36-1.608,3.886-1.608
	c1.518,0,2.9,0.617,3.894,1.608l71.247,71.217c1.526,1.531,2.066,3.886,1.183,6.001c-0.883,2.115-2.926,3.4-5.079,3.4h-43.052
	v38.484h148.275c28.375,0,51.369-22.999,51.369-51.377C512,266.708,489.006,243.707,460.631,243.707z"/>
<g>
</g>
<g>
</g>
<g>
</g>
<g>
</g>
<g>
</g>
<g>
</g>
<g>
</g>
<g>
</g>
<g>
</g>
<g>
</g>
<g>
</g>
<g>
</g>
<g>
</g>
<g>
</g>
<g>
</g>
</svg>
