<?xml version="1.0" encoding="iso-8859-1"?>
<!-- Generator: Adobe Illustrator 19.0.0, SVG Export Plug-In . SVG Version: 6.00 Build 0)  -->
<svg version="1.1" id="Layer_1" xmlns="http://www.w3.org/2000/svg" xmlns:xlink="http://www.w3.org/1999/xlink" x="0px" y="0px"
	 viewBox="0 0 512 512" style="enable-background:new 0 0 512 512;" xml:space="preserve">
<path style="fill:#D6E5F6;" d="M402.285,102.431c-14.193-0.676-26.119,10.23-26.79,24.354l-0.06,1.215H136.564l-0.058-1.217
	c-0.674-14.121-12.629-25.03-26.79-24.354c-14.121,0.671-25.025,12.665-24.354,26.788l17.067,358.402
	C103.078,501.27,114.335,512,128,512h256c13.665,0,24.921-10.73,25.571-24.38l17.067-358.402
	C427.31,115.094,416.406,103.101,402.285,102.431z"/>
<path style="fill:#A4C6EC;" d="M402.285,102.431c-14.193-0.676-26.119,10.23-26.79,24.354l-0.06,1.215H256v384h128
	c13.665,0,24.921-10.73,25.571-24.38l17.067-358.402C427.31,115.094,416.406,103.101,402.285,102.431z"/>
<path style="fill:#D8145D;" d="M413.368,229.782c-4.83-5.055-11.517-7.916-18.509-7.916H117.14c-6.992,0-13.679,2.86-18.509,7.916
	s-7.383,11.865-7.066,18.848l4.654,102.4c0.621,13.67,11.887,24.436,25.573,24.436h268.413c13.688,0,24.951-10.766,25.573-24.436
	l4.654-102.4C420.751,241.647,418.198,234.837,413.368,229.782z"/>
<path style="fill:#385C8E;" d="M435.2,102.4h-8.533V25.6c0-14.136-11.462-25.6-25.6-25.6H110.933c-14.138,0-25.6,11.464-25.6,25.6
	v76.8H76.8c-14.138,0-25.6,11.464-25.6,25.6c0,14.138,11.462,25.6,25.6,25.6h34.133h290.133H435.2c14.138,0,25.6-11.462,25.6-25.6
	C460.8,113.864,449.338,102.4,435.2,102.4z"/>
<path style="fill:#A90140;" d="M390.207,375.467c13.687,0,24.951-10.766,25.573-24.436l4.654-102.4
	c0.317-6.984-2.236-13.793-7.066-18.848s-11.517-7.916-18.509-7.916H256v153.6H390.207z"/>
<path style="fill:#1D3366;" d="M435.2,102.4h-8.533V25.6c0-14.136-11.462-25.6-25.6-25.6H256v153.6h145.067H435.2
	c14.138,0,25.6-11.462,25.6-25.6C460.8,113.864,449.338,102.4,435.2,102.4z"/>
<g>
</g>
<g>
</g>
<g>
</g>
<g>
</g>
<g>
</g>
<g>
</g>
<g>
</g>
<g>
</g>
<g>
</g>
<g>
</g>
<g>
</g>
<g>
</g>
<g>
</g>
<g>
</g>
<g>
</g>
</svg>
