<?xml version="1.0" encoding="iso-8859-1"?>
<!-- Generator: Adobe Illustrator 19.0.0, SVG Export Plug-In . SVG Version: 6.00 Build 0)  -->
<svg version="1.1" id="Layer_1" xmlns="http://www.w3.org/2000/svg" xmlns:xlink="http://www.w3.org/1999/xlink" x="0px" y="0px"
	 viewBox="0 0 512 512" style="enable-background:new 0 0 512 512;" xml:space="preserve">
<path style="fill:#A1A1A1;" d="M441.386,164.868h-25.678l0,0H88.314v66.121c0,90.407,73.29,163.697,163.697,163.697l0,0
	c63.332,0,118.258-35.968,145.48-88.589h43.895c38.937,0,70.614-31.678,70.614-70.614S480.322,164.868,441.386,164.868z
	 M441.386,267.579h-29.788c2.686-11.766,4.11-24.011,4.11-36.591v-27.604h25.678c17.699,0,32.097,14.399,32.097,32.097
	S459.084,267.579,441.386,267.579z"/>
<path style="fill:#D6D6D6;" d="M88.314,164.868h163.697v229.817l0,0c-90.407,0-163.697-73.29-163.697-163.697
	C88.314,230.988,88.314,164.868,88.314,164.868z"/>
<path style="fill:#625F69;" d="M484.762,374.488H19.258C8.623,374.488,0,383.111,0,393.747s8.623,19.258,19.258,19.258h52.647
	l6.715,12.655c13.006,24.512,38.486,39.837,66.235,39.837H252.01h107.154c27.749,0,53.229-15.325,66.235-39.837l6.715-12.655h52.647
	c10.636,0,19.258-8.623,19.258-19.258C504.019,383.111,495.398,374.488,484.762,374.488z"/>
<path style="fill:#827E8C;" d="M19.258,374.488C8.623,374.488,0,383.111,0,393.747s8.623,19.258,19.258,19.258h52.647l6.715,12.655
	c13.006,24.512,38.486,39.837,66.235,39.837H252.01v-52.492v-38.517L19.258,374.488L19.258,374.488z"/>
<path style="fill:#DE9833;" d="M415.708,164.868c0-51.506-42.155-93.26-94.156-93.26c-12.151,0-23.75,2.305-34.414,6.455
	c-10.203-9.461-22.075-17.148-35.127-22.566c-13.961-5.796-29.273-8.995-45.332-8.995c-65.371,0-118.365,52.994-118.365,118.365
	h163.697H415.708z"/>
<path style="fill:#F3A938;" d="M252.011,55.498c-13.961-5.796-29.273-8.995-45.332-8.995c-65.371,0-118.365,52.994-118.365,118.365
	h163.697V55.498z"/>
<g>
</g>
<g>
</g>
<g>
</g>
<g>
</g>
<g>
</g>
<g>
</g>
<g>
</g>
<g>
</g>
<g>
</g>
<g>
</g>
<g>
</g>
<g>
</g>
<g>
</g>
<g>
</g>
<g>
</g>
</svg>
