<?xml version="1.0" encoding="iso-8859-1"?>
<!-- Generator: Adobe Illustrator 19.0.0, SVG Export Plug-In . SVG Version: 6.00 Build 0)  -->
<svg version="1.1" id="Layer_1" xmlns="http://www.w3.org/2000/svg" xmlns:xlink="http://www.w3.org/1999/xlink" x="0px" y="0px"
	 viewBox="0 0 512 512" style="enable-background:new 0 0 512 512;" xml:space="preserve">
<path style="fill:#DFDFE1;" d="M85.333,308.513h13.128v-39.385H85.333C38.281,269.129,0,307.409,0,354.462
	s38.281,85.333,85.333,85.333h13.128v-39.385H85.333c-25.336,0-45.949-20.613-45.949-45.949
	C39.385,329.126,59.997,308.513,85.333,308.513z"/>
<path style="fill:#CFCDD2;" d="M426.667,269.129h-13.128v39.385h13.128c25.336,0,45.949,20.613,45.949,45.949
	s-20.613,45.949-45.949,45.949h-13.128v39.385h13.128c47.053,0,85.333-38.281,85.333-85.333S473.719,269.129,426.667,269.129z"/>
<path style="fill:#FF4F19;" d="M332.43,57.612c-15.552-15.552-40.766-15.552-56.316,0L256,77.726l-20.114-20.114
	c-15.552-15.552-40.766-15.552-56.316,0c-15.552,15.552-15.552,40.766,0,56.316L256,190.359l76.43-76.43
	C347.981,98.378,347.981,73.164,332.43,57.612z"/>
<polyline style="fill:#F2F2F4;" points="85.333,269.129 85.333,466.052 229.744,466.052 229.744,269.129 85.333,269.129 "/>
<polyline style="fill:#DFDFE1;" points="426.667,269.129 426.667,466.052 282.256,466.052 282.256,269.129 426.667,269.129 "/>
<path style="fill:#AF2E08;" d="M332.43,57.612c-15.552-15.552-40.764-15.552-56.316,0L256,77.726v112.633l76.43-76.43
	C347.981,98.378,347.981,73.164,332.43,57.612z"/>
<g>
</g>
<g>
</g>
<g>
</g>
<g>
</g>
<g>
</g>
<g>
</g>
<g>
</g>
<g>
</g>
<g>
</g>
<g>
</g>
<g>
</g>
<g>
</g>
<g>
</g>
<g>
</g>
<g>
</g>
</svg>
