<?xml version="1.0" encoding="iso-8859-1"?>
<!-- Generator: Adobe Illustrator 19.0.0, SVG Export Plug-In . SVG Version: 6.00 Build 0)  -->
<svg version="1.1" id="Layer_1" xmlns="http://www.w3.org/2000/svg" xmlns:xlink="http://www.w3.org/1999/xlink" x="0px" y="0px"
	 viewBox="0 0 512.001 512.001" style="enable-background:new 0 0 512.001 512.001;" xml:space="preserve">
<g>
	<path style="fill:#D6D6D6;" d="M228.197,150.828c-2.129-2.28-5.11-3.575-8.23-3.575H41.85c-3.12,0-6.1,1.295-8.23,3.575
		s-3.218,5.342-3.004,8.455l17.209,251.258c0.405,5.907,5.314,10.491,11.234,10.491h143.699c5.92,0,10.829-4.584,11.234-10.491
		l17.209-251.258C231.415,156.171,230.327,153.109,228.197,150.828z"/>
	<path style="fill:#D6D6D6;" d="M51.315,123.436l7.402-37.184c0.699-3.512,3.782-6.041,7.363-6.041h131.379
		c3.581,0,6.663,2.53,7.363,6.041l7.402,37.184"/>
</g>
<g>
	<path style="fill:#AF6A3A;" d="M47.825,410.542c0.405,5.907,5.314,10.491,11.234,10.491h143.699c5.92,0,10.829-4.584,11.234-10.491
		l4.269-62.328H43.556L47.825,410.542z"/>
	<path style="fill:#AF6A3A;" d="M231.202,159.283c0.213-3.113-0.874-6.174-3.004-8.455c-2.129-2.28-5.11-3.575-8.23-3.575H41.85
		c-3.12,0-6.1,1.295-8.23,3.575s-3.218,5.342-3.004,8.455l3.582,52.301H227.62L231.202,159.283z"/>
</g>
<path style="fill:#83432D;" d="M232.014,112.491H31.524c-6.219,0-11.261,5.042-11.261,11.261v34.762
	c0,6.219,5.042,11.261,11.261,11.261h200.491c6.219,0,11.261-5.042,11.261-11.261v-34.762
	C243.275,117.533,238.233,112.491,232.014,112.491z"/>
<g>
	<path style="fill:#A1A1A1;" d="M485.319,150.828c-2.129-2.28-5.11-3.575-8.229-3.575H298.97c-3.12,0-6.1,1.295-8.23,3.575
		c-2.13,2.28-3.218,5.342-3.004,8.455l17.209,251.258c0.405,5.907,5.314,10.491,11.234,10.491h143.699
		c5.92,0,10.829-4.584,11.234-10.491l17.209-251.258C488.536,156.171,487.448,153.109,485.319,150.828z"/>
	<path style="fill:#A1A1A1;" d="M308.436,123.436l7.402-37.184c0.699-3.512,3.782-6.041,7.363-6.041H454.58
		c3.581,0,6.663,2.53,7.363,6.041l7.402,37.184"/>
</g>
<path style="fill:#573024;" d="M440.053,287.097c-1.835-13.105-8.494-25.972-18.75-36.227
	c-10.257-10.257-23.122-16.916-36.228-18.751c-14.516-2.033-28.208,2.164-37.557,11.513c-9.348,9.348-13.544,23.037-11.513,37.557
	c1.835,13.105,8.494,25.972,18.75,36.227c10.257,10.257,23.122,16.916,36.228,18.751c2.404,0.336,4.784,0.502,7.125,0.502
	c11.807,0,22.631-4.214,30.432-12.014C437.89,315.306,442.084,301.617,440.053,287.097z"/>
<path style="fill:#83432D;" d="M182.932,287.097c-1.835-13.105-8.494-25.972-18.75-36.227
	c-10.257-10.257-23.122-16.916-36.228-18.751c-14.516-2.033-28.208,2.164-37.557,11.513c-9.348,9.348-13.544,23.037-11.513,37.557
	c1.835,13.105,8.494,25.972,18.75,36.227c10.257,10.257,23.122,16.916,36.228,18.751c2.404,0.336,4.784,0.502,7.125,0.502
	c11.807,0,22.631-4.214,30.432-12.014C180.768,315.306,184.964,301.617,182.932,287.097z"/>
<g>
	<path style="fill:#8E572E;" d="M304.946,410.542c0.405,5.907,5.314,10.491,11.234,10.491h143.699
		c5.92,0,10.829-4.584,11.234-10.491l4.269-62.328H300.677L304.946,410.542z"/>
	<path style="fill:#8E572E;" d="M488.323,159.283c0.213-3.113-0.874-6.174-3.004-8.455c-2.129-2.28-5.11-3.575-8.229-3.575H298.97
		c-3.12,0-6.1,1.295-8.23,3.575c-2.13,2.28-3.218,5.342-3.004,8.455l3.582,52.301H484.74L488.323,159.283z"/>
</g>
<path style="fill:#573024;" d="M489.136,112.491H288.645c-6.219,0-11.261,5.042-11.261,11.261v34.762
	c0,6.219,5.042,11.261,11.261,11.261h200.491c6.219,0,11.261-5.042,11.261-11.261v-34.762
	C500.396,117.533,495.355,112.491,489.136,112.491z"/>
<g>
	
		<line style="fill:none;stroke:#000000;stroke-width:30;stroke-linecap:round;stroke-linejoin:round;stroke-miterlimit:10;" x1="204.52" y1="364.074" x2="59.029" y2="364.074"/>
	
		<line style="fill:none;stroke:#000000;stroke-width:30;stroke-linecap:round;stroke-linejoin:round;stroke-miterlimit:10;" x1="461.635" y1="364.074" x2="316.141" y2="364.074"/>
</g>
<path style="fill:#449CC2;" d="M496.516,345.415H15.484C6.933,345.415,0,352.404,0,361.025c0,8.621,6.933,15.61,15.484,15.61
	h273.503v23.746c0,17.347,14.062,31.409,31.409,31.409h136.989c17.347,0,31.409-14.062,31.409-31.409v-23.746h7.723
	c8.551,0,15.484-6.989,15.484-15.61C512.001,352.404,505.067,345.415,496.516,345.415z"/>
<path style="fill:#81C5E0;" d="M257.042,345.415H15.484C6.933,345.415,0,352.404,0,361.025c0,8.621,6.933,15.61,15.484,15.61h16.39
	v23.746c0,17.347,14.062,31.409,31.409,31.409h136.989c17.347,0,31.409-14.062,31.409-31.409v-23.746h25.361V345.415z"/>
<g>
</g>
<g>
</g>
<g>
</g>
<g>
</g>
<g>
</g>
<g>
</g>
<g>
</g>
<g>
</g>
<g>
</g>
<g>
</g>
<g>
</g>
<g>
</g>
<g>
</g>
<g>
</g>
<g>
</g>
</svg>
