<?xml version="1.0" encoding="iso-8859-1"?>
<!-- Generator: Adobe Illustrator 19.0.0, SVG Export Plug-In . SVG Version: 6.00 Build 0)  -->
<svg version="1.1" id="Layer_1" xmlns="http://www.w3.org/2000/svg" xmlns:xlink="http://www.w3.org/1999/xlink" x="0px" y="0px"
	 viewBox="0 0 511.998 511.998" style="enable-background:new 0 0 511.998 511.998;" xml:space="preserve">
<g>
	<path style="fill:#8E572E;" d="M331.609,417.742H297.58c-9.884,0-17.897-8.013-17.897-17.897s8.013-17.897,17.897-17.897h34.029
		c39.145,0,70.992-31.846,70.992-70.991s-31.847-70.992-70.992-70.992H297.58c-9.884,0-17.897-8.013-17.897-17.897
		c0-9.884,8.013-17.897,17.897-17.897h34.029c58.882,0,106.786,47.903,106.786,106.785S390.491,417.742,331.609,417.742z"/>
	<path style="fill:#8E572E;" d="M268.111,511.998H140.292c-11.832,0-21.763-8.919-23.027-20.684L73.728,189.17
		c-1.037-7.192,4.542-13.633,11.81-13.633h237.327c7.266,0,12.845,6.44,11.81,13.633l-43.537,302.145
		C289.872,503.08,279.943,511.998,268.111,511.998z"/>
</g>
<path style="fill:#AF6A3A;" d="M204.201,511.998h-63.909c-11.832,0-21.763-8.919-23.027-20.684L73.728,189.17
	c-1.037-7.192,4.542-13.633,11.81-13.633h118.663V511.998z"/>
<path style="fill:#F3A938;" d="M163.157,151.231c-4.455,0-8.876-1.904-11.95-5.593c-12.377-14.853-28.108-50.622,0.951-79.679
	c4.41-4.41,9.833-11.857,6.025-25.56c-2.417-8.706-7.307-15.31-7.354-15.373c-5.235-6.806-3.961-16.564,2.843-21.8
	s16.564-3.961,21.8,2.844c12.113,15.746,27.423,53.123-1.329,81.875c-6.932,6.932-8.867,14.559-6.09,24.001
	c2.286,7.771,6.994,13.735,7.041,13.79c5.496,6.596,4.605,16.397-1.991,21.894C170.196,150.049,166.666,151.231,163.157,151.231z"/>
<path style="fill:#DE9833;" d="M245.328,151.231c-4.455,0-8.876-1.904-11.95-5.593C221,130.784,205.27,95.015,234.329,65.958
	c4.41-4.41,9.833-11.857,6.025-25.56c-2.417-8.706-7.307-15.31-7.354-15.373c-5.235-6.806-3.961-16.564,2.843-21.8
	c6.806-5.235,16.565-3.961,21.8,2.844c12.113,15.746,27.423,53.123-1.329,81.875c-6.932,6.932-8.867,14.559-6.09,24.001
	c2.285,7.771,6.994,13.735,7.039,13.79c5.496,6.596,4.605,16.397-1.991,21.894C252.365,150.049,248.836,151.231,245.328,151.231z"/>
<g>
</g>
<g>
</g>
<g>
</g>
<g>
</g>
<g>
</g>
<g>
</g>
<g>
</g>
<g>
</g>
<g>
</g>
<g>
</g>
<g>
</g>
<g>
</g>
<g>
</g>
<g>
</g>
<g>
</g>
</svg>
