<?xml version="1.0" encoding="iso-8859-1"?>
<!-- Generator: Adobe Illustrator 19.0.0, SVG Export Plug-In . SVG Version: 6.00 Build 0)  -->
<svg version="1.1" id="Layer_1" xmlns="http://www.w3.org/2000/svg" xmlns:xlink="http://www.w3.org/1999/xlink" x="0px" y="0px"
	 viewBox="0 0 512 512" style="enable-background:new 0 0 512 512;" xml:space="preserve">
<path style="fill:#F1F2F2;" d="M367.381,112.401H144.618c-10.345,0-18.732-8.387-18.732-18.732V18.732
	C125.886,8.387,134.273,0,144.618,0h222.764c10.345,0,18.732,8.387,18.732,18.732V93.67
	C386.113,104.016,377.727,112.401,367.381,112.401z"/>
<path style="fill:#E6E7E8;" d="M367.381,0H256v112.401h111.381c10.345,0,18.732-8.387,18.732-18.732V18.732
	C386.113,8.387,377.727,0,367.381,0z"/>
<path style="fill:#F1F2F2;" d="M373.719,512H138.281c-9.701,0-17.796-7.407-18.658-17.068
	c-19.165-215.052-9.734-109.473-28.913-324.66c-0.975-10.953,7.663-20.395,18.658-20.395h293.261
	c10.997,0,19.635,9.442,18.657,20.395c-19.61,220.036-9.488,106.727-28.912,324.66C391.515,504.593,383.419,512,373.719,512z"/>
<g>
	<path style="fill:#E6E7E8;" d="M402.631,149.876H256V512h117.719c9.702,0,17.796-7.407,18.657-17.068
		c19.425-217.933,9.303-104.625,28.912-324.66C422.265,159.318,413.627,149.876,402.631,149.876z"/>
	<path style="fill:#E6E7E8;" d="M454.514,187.34H57.486c-10.345,0-18.732-8.387-18.732-18.732V93.67
		c0-10.345,8.387-18.732,18.732-18.732h397.027c10.345,0,18.732,8.387,18.732,18.732v74.938
		C473.245,178.954,464.859,187.34,454.514,187.34z"/>
	<path style="fill:#E6E7E8;" d="M414.865,242.338H97.134c5.307,59.552,10.623,119.446,15.771,177.198h286.191
		C403.341,371.909,409.948,297.513,414.865,242.338z"/>
</g>
<path style="fill:#D1D3D4;" d="M414.865,242.338H256v177.198h143.095C403.341,371.909,409.948,297.513,414.865,242.338z"/>
<circle style="fill:#FFDA79;" cx="256" cy="330.939" r="28.909"/>
<path style="fill:#D1D3D4;" d="M454.514,74.938H256V187.34h198.514c10.345,0,18.732-8.387,18.732-18.732V93.67
	C473.245,83.325,464.859,74.938,454.514,74.938z"/>
<path style="fill:#FFD155;" d="M256,302.028v57.826c15.968,0,28.913-12.945,28.913-28.913
	C284.913,314.972,271.968,302.028,256,302.028z"/>
<g>
</g>
<g>
</g>
<g>
</g>
<g>
</g>
<g>
</g>
<g>
</g>
<g>
</g>
<g>
</g>
<g>
</g>
<g>
</g>
<g>
</g>
<g>
</g>
<g>
</g>
<g>
</g>
<g>
</g>
</svg>
