<?xml version="1.0" encoding="iso-8859-1"?>
<!-- Generator: Adobe Illustrator 19.0.0, SVG Export Plug-In . SVG Version: 6.00 Build 0)  -->
<svg version="1.1" id="Layer_1" xmlns="http://www.w3.org/2000/svg" xmlns:xlink="http://www.w3.org/1999/xlink" x="0px" y="0px"
	 viewBox="0 0 512 512" style="enable-background:new 0 0 512 512;" xml:space="preserve">
<path style="fill:#F2F2F4;" d="M11.294,150.588v88.916c0,99.839,80.935,180.774,180.774,180.774s180.774-80.935,180.774-180.774
	v-88.916H11.294z"/>
<path style="fill:#DFDFE1;" d="M372.706,421.647H11.294l0,0c0,49.9,40.453,90.353,90.353,90.353h180.706
	C332.253,512,372.706,471.547,372.706,421.647L372.706,421.647z"/>
<path style="fill:#CFCDD2;" d="M402.824,346.353h-75.294v-45.176h75.294c29.062,0,52.706-23.644,52.706-52.706
	s-23.644-52.706-52.706-52.706h-29.982v-45.176h29.982c53.972,0,97.882,43.91,97.882,97.882S456.796,346.353,402.824,346.353z"/>
<rect x="124.235" style="fill:#F2F2F4;" width="45.176" height="97.882"/>
<g>
	<rect x="214.588" style="fill:#DFDFE1;" width="45.176" height="97.882"/>
	<path style="fill:#DFDFE1;" d="M192,150.588v269.688c0.023,0,0.045,0,0.068,0c99.838,0,180.774-80.935,180.774-180.774v-88.915H192
		z"/>
</g>
<path style="fill:#CFCDD2;" d="M192,421.647V512h90.353c49.9,0,90.353-40.453,90.353-90.353l0,0H192z"/>
<g>
</g>
<g>
</g>
<g>
</g>
<g>
</g>
<g>
</g>
<g>
</g>
<g>
</g>
<g>
</g>
<g>
</g>
<g>
</g>
<g>
</g>
<g>
</g>
<g>
</g>
<g>
</g>
<g>
</g>
</svg>
