<?xml version="1.0" encoding="iso-8859-1"?>
<!-- Generator: Adobe Illustrator 19.0.0, SVG Export Plug-In . SVG Version: 6.00 Build 0)  -->
<svg version="1.1" id="Layer_1" xmlns="http://www.w3.org/2000/svg" xmlns:xlink="http://www.w3.org/1999/xlink" x="0px" y="0px"
	 viewBox="0 0 512 512" style="enable-background:new 0 0 512 512;" xml:space="preserve">
<path style="fill:#F9EBDB;" d="M241.466,33.182h-19.97c-36.651,0-66.364,29.712-66.364,66.364l165.909,22.121L298.92,0
	C274.362,0,252.941,13.352,241.466,33.182z"/>
<path style="fill:#F7CD95;" d="M376.344,33.182h-19.97C344.899,13.352,323.478,0,298.92,0v121.666l143.788-22.121
	C442.708,62.894,412.996,33.182,376.344,33.182z"/>
<polygon style="fill:#74D1D2;" points="185.671,445.637 130.368,500.939 130.368,512 298.92,512 321.041,423.515 "/>
<polygon style="fill:#51C0C2;" points="467.473,500.939 412.17,445.637 298.92,423.515 298.92,512 467.473,512 "/>
<path style="fill:#C8FEFF;" d="M127.481,132.727h30.579l2.95,33.435L298.92,268.73l22.121-102.823L298.92,99.545H127.481
	c-45.741,0-82.954,37.213-82.954,82.954v66.364c0,45.741,37.213,82.954,82.954,82.954h66.845v-33.182h-66.845
	c-27.445,0-49.773-22.328-49.773-49.773V182.5C77.708,155.055,100.036,132.727,127.481,132.727z"/>
<polygon style="fill:#98E1E2;" points="298.92,99.545 298.92,268.73 436.83,166.162 442.708,99.545 "/>
<path style="fill:#C67741;" d="M227.026,191.306c-33.868,0-35.839-22.536-66.016-25.144l24.66,279.474h113.25l22.121-139.864
	L298.92,165.908C262.973,165.909,262.973,191.306,227.026,191.306z"/>
<path style="fill:#B75548;" d="M436.83,166.162c-30.178,2.608-32.148,25.144-66.016,25.144c-35.947,0-35.947-25.397-71.894-25.397
	v279.728h113.25L436.83,166.162z"/>
<g>
</g>
<g>
</g>
<g>
</g>
<g>
</g>
<g>
</g>
<g>
</g>
<g>
</g>
<g>
</g>
<g>
</g>
<g>
</g>
<g>
</g>
<g>
</g>
<g>
</g>
<g>
</g>
<g>
</g>
</svg>
