<?xml version="1.0" encoding="iso-8859-1"?>
<!-- Generator: Adobe Illustrator 19.0.0, SVG Export Plug-In . SVG Version: 6.00 Build 0)  -->
<svg version="1.1" id="Layer_1" xmlns="http://www.w3.org/2000/svg" xmlns:xlink="http://www.w3.org/1999/xlink" x="0px" y="0px"
	 viewBox="0 0 512 512" style="enable-background:new 0 0 512 512;" xml:space="preserve">
<path style="fill:#625F69;" d="M153.423,464.964h123.469c19.483,0,35.277,15.793,35.277,35.277l0,0
	c0,6.494-5.264,11.759-11.759,11.759H129.905c-6.494,0-11.759-5.264-11.759-11.759l0,0
	C118.146,480.759,133.941,464.964,153.423,464.964z"/>
<path style="fill:#A1A1A1;" d="M276.892,464.964h-35.865v-137.58h-51.739v137.58h-35.865c-19.483,0-35.277,15.793-35.277,35.277l0,0
	c0,6.494,5.264,11.759,11.759,11.759H300.41c6.494,0,11.759-5.264,11.759-11.759l0,0
	C312.169,480.759,296.375,464.964,276.892,464.964z"/>
<path style="fill:#D6D6D6;" d="M189.803,326.871v137.58h-35.865c-19.483,0-35.277,15.793-35.277,35.277
	c0,6.494,5.264,11.759,11.759,11.759h85.252v-22.342V464.45v-137.58H189.803z"/>
<path style="fill:#449CC2;" d="M325.707,98.085h-12.002l6.764-85.398C321.009,5.849,315.606,0,308.746,0H121.57
	c-6.86,0-12.263,5.849-11.722,12.688L132.373,297.1c1.988,23.116,21.332,40.868,44.534,40.868h76.501
	c23.202,0,42.546-17.751,44.533-40.868l0.861-10.871h26.903c42.173,0,76.484-34.31,76.484-76.484V174.57
	C402.191,132.395,367.88,98.085,325.707,98.085z M366.914,209.744c0,22.722-18.486,41.207-41.207,41.207h-24.109l9.313-117.59
	h14.796c22.721,0,41.207,18.485,41.207,41.207L366.914,209.744L366.914,209.744z"/>
<path style="fill:#81C5E0;" d="M215.158,337.968h-38.251c-23.202,0-42.545-17.751-44.534-40.868L109.848,12.688
	C109.306,5.849,114.71,0,121.57,0h93.588v337.968H215.158z"/>
<g>
</g>
<g>
</g>
<g>
</g>
<g>
</g>
<g>
</g>
<g>
</g>
<g>
</g>
<g>
</g>
<g>
</g>
<g>
</g>
<g>
</g>
<g>
</g>
<g>
</g>
<g>
</g>
<g>
</g>
</svg>
