<?xml version="1.0" encoding="iso-8859-1"?>
<!-- Generator: Adobe Illustrator 19.0.0, SVG Export Plug-In . SVG Version: 6.00 Build 0)  -->
<svg version="1.1" id="Layer_1" xmlns="http://www.w3.org/2000/svg" xmlns:xlink="http://www.w3.org/1999/xlink" x="0px" y="0px"
	 viewBox="0 0 511.999 511.999" style="enable-background:new 0 0 511.999 511.999;" xml:space="preserve">
<path style="fill:#625F69;" d="M76.093,415.034v61.835c0,7.874,6.383,14.258,14.258,14.258H320.55
	c7.874,0,14.258-6.383,14.258-14.258v-61.835l75.709-319.49c0.255-1.078,0.384-2.18,0.384-3.288V35.13
	c0-7.874-6.383-14.258-14.258-14.258H14.258C6.383,20.872,0,27.255,0,35.13v55.61c0,1.102,0.128,2.2,0.381,3.274L76.093,415.034z"/>
<path style="fill:#827E8C;" d="M76.093,415.034v61.835c0,7.874,6.383,14.258,14.258,14.258h115.1V20.872H14.258
	C6.383,20.872,0,27.255,0,35.13v55.61c0,1.102,0.128,2.2,0.381,3.274L76.093,415.034z"/>
<path style="fill:#A1A1A1;" d="M406.453,112.691l4.063-17.148c0.255-1.078,0.385-2.18,0.385-3.288V35.13
	c0-7.874-6.383-14.258-14.258-14.258H14.258C6.383,20.872,0,27.255,0,35.13v55.61c0,1.102,0.128,2.2,0.381,3.274l75.712,321.02
	h258.715l16.209-68.403h43.719c64.659,0,117.263-52.605,117.263-117.263C512,168.662,465.63,118.589,406.453,112.691z
	 M394.736,303.856h-33.584l35.293-148.937c40.285,0.914,72.781,33.946,72.781,74.447
	C469.227,270.441,435.811,303.856,394.736,303.856z"/>
<path style="fill:#D6D6D6;" d="M205.45,20.872H14.258C6.383,20.872,0,27.255,0,35.13v55.61c0,1.102,0.128,2.2,0.381,3.274
	l75.712,321.02H205.45V20.872z"/>
<g>
</g>
<g>
</g>
<g>
</g>
<g>
</g>
<g>
</g>
<g>
</g>
<g>
</g>
<g>
</g>
<g>
</g>
<g>
</g>
<g>
</g>
<g>
</g>
<g>
</g>
<g>
</g>
<g>
</g>
</svg>
