<?xml version="1.0" encoding="iso-8859-1"?>
<!-- Generator: Adobe Illustrator 19.0.0, SVG Export Plug-In . SVG Version: 6.00 Build 0)  -->
<svg version="1.1" id="Layer_1" xmlns="http://www.w3.org/2000/svg" xmlns:xlink="http://www.w3.org/1999/xlink" x="0px" y="0px"
	 viewBox="0 0 512 512" style="enable-background:new 0 0 512 512;" xml:space="preserve">
<path style="fill:#F2D23D;" d="M442.181,279.269c-12.854,0-23.276,10.421-23.276,23.276H93.095
	c0-12.854-10.421-23.276-23.276-23.276s-23.276,10.421-23.276,23.276v93.089c0,34.142,23.935,64.913,67.396,86.643
	C152.272,501.445,202.724,512,255.999,512c53.27,0,103.721-10.556,142.057-29.723c43.465-21.73,67.4-52.501,67.4-86.643v-93.089
	C465.456,289.689,455.035,279.269,442.181,279.269z"/>
<g>
	<path style="fill:#F6E27D;" d="M442.181,279.269c-12.854,0-23.276,10.421-23.276,23.276H255.999V512
		c53.27,0,103.721-10.556,142.057-29.723c43.465-21.73,67.4-52.501,67.4-86.643v-93.089
		C465.456,289.689,455.035,279.269,442.181,279.269z"/>
	<path style="fill:#F6E27D;" d="M442.181,186.178c-12.854,0-23.276,10.421-23.276,23.276H93.095
		c0-12.854-10.421-23.276-23.276-23.276s-23.276,10.421-23.276,23.276v93.089c0,34.142,23.935,64.911,67.396,86.643
		c38.332,19.168,88.785,29.722,142.06,29.722c53.27,0,103.721-10.555,142.057-29.722c43.465-21.732,67.4-52.502,67.4-86.643v-93.089
		C465.456,196.599,455.035,186.178,442.181,186.178z"/>
</g>
<g>
	<path style="fill:#F2D23D;" d="M442.181,186.178c-12.854,0-23.276,10.421-23.276,23.276H255.999v209.454
		c53.27,0,103.721-10.555,142.057-29.722c43.465-21.732,67.4-52.502,67.4-86.643v-93.089
		C465.456,196.599,455.035,186.178,442.181,186.178z"/>
	<path style="fill:#F2D23D;" d="M442.181,93.089c-12.854,0-23.276,10.421-23.276,23.276H93.095
		c0-12.854-10.421-23.276-23.276-23.276s-23.276,10.421-23.276,23.276v93.089c0,34.141,23.935,64.91,67.396,86.642
		c38.334,19.168,88.785,29.723,142.06,29.723c53.27,0,103.72-10.556,142.057-29.722c43.465-21.733,67.4-52.504,67.4-86.643v-93.089
		C465.456,103.51,455.035,93.089,442.181,93.089z"/>
</g>
<g>
	<path style="fill:#F6E27D;" d="M442.181,93.089c-12.854,0-23.276,10.421-23.276,23.276H255.999v209.454
		c53.27,0,103.72-10.556,142.057-29.722c43.465-21.733,67.4-52.504,67.4-86.643v-93.089
		C465.456,103.51,455.035,93.089,442.181,93.089z"/>
	<path style="fill:#F6E27D;" d="M398.054,29.722C359.719,10.556,309.27,0,255.999,0c-53.275,0-103.726,10.556-142.06,29.722
		c-43.46,21.732-67.396,52.501-67.396,86.643s23.935,64.911,67.396,86.643c38.334,19.167,88.785,29.722,142.06,29.722
		c53.27,0,103.721-10.556,142.057-29.722c43.465-21.732,67.4-52.502,67.4-86.643S441.519,51.453,398.054,29.722z"/>
</g>
<path style="fill:#F2D23D;" d="M398.054,29.722C359.719,10.556,309.27,0,255.999,0v232.73c53.27,0,103.721-10.556,142.057-29.722
	c43.465-21.732,67.4-52.502,67.4-86.643S441.519,51.453,398.054,29.722z"/>
<g>
</g>
<g>
</g>
<g>
</g>
<g>
</g>
<g>
</g>
<g>
</g>
<g>
</g>
<g>
</g>
<g>
</g>
<g>
</g>
<g>
</g>
<g>
</g>
<g>
</g>
<g>
</g>
<g>
</g>
</svg>
