<?xml version="1.0" encoding="iso-8859-1"?>
<!-- Generator: Adobe Illustrator 19.0.0, SVG Export Plug-In . SVG Version: 6.00 Build 0)  -->
<svg version="1.1" id="Layer_1" xmlns="http://www.w3.org/2000/svg" xmlns:xlink="http://www.w3.org/1999/xlink" x="0px" y="0px"
	 viewBox="0 0 512 512" style="enable-background:new 0 0 512 512;" xml:space="preserve">
<circle style="fill:#4AAEE2;" cx="256" cy="256" r="256"/>
<circle style="fill:#FFFFFF;" cx="256" cy="256" r="210.989"/>
<polygon style="fill:#BEC3CC;" points="224.173,224.173 240.086,271.914 287.827,287.827 381.321,130.679 "/>
<polygon style="fill:#FF615C;" points="130.679,381.321 287.827,287.827 224.173,224.173 "/>
<g>
	<path style="fill:#A3E1FF;" d="M256,104.088c-4.661,0-8.44-3.779-8.44-8.44V78.769c0-4.661,3.779-8.44,8.44-8.44
		c4.661,0,8.44,3.779,8.44,8.44v16.879C264.44,100.309,260.661,104.088,256,104.088z"/>
	<path style="fill:#A3E1FF;" d="M256,441.67c-4.661,0-8.44-3.779-8.44-8.44v-16.879c0-4.661,3.779-8.44,8.44-8.44
		c4.661,0,8.44,3.779,8.44,8.44v16.879C264.44,437.892,260.661,441.67,256,441.67z"/>
	<path style="fill:#A3E1FF;" d="M433.231,264.44h-16.879c-4.661,0-8.44-3.779-8.44-8.44c0-4.661,3.779-8.44,8.44-8.44h16.879
		c4.661,0,8.44,3.779,8.44,8.44C441.67,260.661,437.892,264.44,433.231,264.44z"/>
	<path style="fill:#A3E1FF;" d="M95.648,264.44H78.769c-4.661,0-8.44-3.779-8.44-8.44c0-4.661,3.779-8.44,8.44-8.44h16.879
		c4.661,0,8.44,3.779,8.44,8.44C104.088,260.661,100.309,264.44,95.648,264.44z"/>
</g>
<g>
</g>
<g>
</g>
<g>
</g>
<g>
</g>
<g>
</g>
<g>
</g>
<g>
</g>
<g>
</g>
<g>
</g>
<g>
</g>
<g>
</g>
<g>
</g>
<g>
</g>
<g>
</g>
<g>
</g>
</svg>
