<?xml version="1.0" encoding="iso-8859-1"?>
<!-- Generator: Adobe Illustrator 19.0.0, SVG Export Plug-In . SVG Version: 6.00 Build 0)  -->
<svg version="1.1" id="Layer_1" xmlns="http://www.w3.org/2000/svg" xmlns:xlink="http://www.w3.org/1999/xlink" x="0px" y="0px"
	 viewBox="0 0 512 512" style="enable-background:new 0 0 512 512;" xml:space="preserve">
<path style="fill:#36495E;" d="M326.768,448.879H185.232c-10.345,0-18.732-8.387-18.732-18.732v-77.155
	c0-10.345,8.387-18.732,18.732-18.732h141.537c10.345,0,18.732,8.387,18.732,18.732v77.155
	C345.5,440.492,337.113,448.879,326.768,448.879z"/>
<path style="fill:#2C3E50;" d="M326.768,334.261h-70.775v114.618h70.775c10.345,0,18.732-8.387,18.732-18.732v-77.155
	C345.5,342.648,337.113,334.261,326.768,334.261z"/>
<g>
	<path style="fill:#6A82A1;" d="M383.377,499.631H128.623c-10.345,0-18.732-8.387-18.732-18.732v-50.752
		c0-10.345,8.387-18.732,18.732-18.732h254.754c10.345,0,18.732,8.387,18.732,18.732v50.752
		C402.109,491.244,393.722,499.631,383.377,499.631z"/>
	<path style="fill:#6A82A1;" d="M493.268,371.725H18.732C8.387,371.725,0,363.338,0,352.993V31.101
		c0-10.345,8.387-18.732,18.732-18.732h474.537c10.345,0,18.732,8.387,18.732,18.732v321.892
		C512,363.338,503.613,371.725,493.268,371.725z"/>
</g>
<path style="fill:#36495E;" d="M493.268,12.369H255.993v359.355h237.276c10.345,0,18.732-8.387,18.732-18.732V31.101
	C512,20.756,503.613,12.369,493.268,12.369z"/>
<path style="fill:#E6E7E8;" d="M439.423,317.881H72.577c-10.345,0-18.732-8.387-18.732-18.732V84.946
	c0-10.345,8.387-18.732,18.732-18.732h366.847c10.345,0,18.732,8.387,18.732,18.732v214.203
	C458.155,309.494,449.768,317.881,439.423,317.881z"/>
<path style="fill:#65C6BB;" d="M315.135,250.704l-28.299-67.139l-24.662,44.769c-6.019,10.926-20.848,13.012-29.652,4.207
	l-29.682-29.681l-32.753,50.176c-5.656,8.663-17.259,11.103-25.925,5.447c-8.663-5.654-11.102-17.262-5.447-25.925l45.367-69.501
	c6.502-9.96,20.532-11.406,28.931-3.007l28.374,28.374l31.288-56.797c7.56-13.725,27.617-12.593,33.668,1.763l27.682,65.673
	l6.892-13.492c4.705-9.212,15.988-12.866,25.203-8.161c9.212,4.705,12.866,15.989,8.16,25.203l-25.202,49.336
	C341.832,266.135,321.312,265.36,315.135,250.704z"/>
<path style="fill:#36495E;" d="M383.377,411.416H255.993v88.215h127.384c10.345,0,18.732-8.387,18.732-18.732v-50.752
	C402.109,419.803,393.722,411.416,383.377,411.416z"/>
<path style="fill:#D1D3D4;" d="M439.423,66.213H255.993V317.88h183.43c10.345,0,18.732-8.387,18.732-18.732V84.945
	C458.155,74.6,449.768,66.213,439.423,66.213z"/>
<path style="fill:#20B8AE;" d="M366.119,177.412c-9.215-4.707-20.497-1.053-25.203,8.161l-6.892,13.492l-27.682-65.673
	c-6.05-14.356-26.107-15.489-33.668-1.763l-16.682,30.284v73.072c2.476-1.607,4.627-3.828,6.181-6.651l24.662-44.769l28.299,67.139
	c6.176,14.657,26.696,15.431,33.942,1.246l25.202-49.336C378.985,193.402,375.332,182.118,366.119,177.412z"/>
<g>
</g>
<g>
</g>
<g>
</g>
<g>
</g>
<g>
</g>
<g>
</g>
<g>
</g>
<g>
</g>
<g>
</g>
<g>
</g>
<g>
</g>
<g>
</g>
<g>
</g>
<g>
</g>
<g>
</g>
</svg>
