<?xml version="1.0" encoding="iso-8859-1"?>
<!-- Generator: Adobe Illustrator 19.0.0, SVG Export Plug-In . SVG Version: 6.00 Build 0)  -->
<svg version="1.1" id="Capa_1" xmlns="http://www.w3.org/2000/svg" xmlns:xlink="http://www.w3.org/1999/xlink" x="0px" y="0px"
	 viewBox="0 0 360 360" style="enable-background:new 0 0 360 360;" xml:space="preserve">
<g id="XMLID_1192_">
	<rect id="XMLID_74_" y="30" style="fill:#6DA8D6;" width="360" height="300"/>
	<rect id="XMLID_1198_" x="180" y="30" style="fill:#2974A8;" width="180" height="300"/>
	<g id="XMLID_1199_">
		<rect id="XMLID_67_" x="31.765" y="72.904" style="fill:#DEDFE8;" width="296.471" height="192.548"/>
		<rect id="XMLID_1203_" x="180" y="72.904" style="fill:#C9C7D7;" width="148.235" height="192.548"/>
	</g>
	<g id="XMLID_1204_">
		<g id="XMLID_1212_">
			<g id="XMLID_1313_">
				<g id="XMLID_1314_">
					<g id="XMLID_1315_">
						<path id="XMLID_1316_" style="fill:#6DA8D6;" d="M180,221.012c-25.677,0-46.566-20.889-46.566-46.566v-23.722
							c0-25.677,20.889-46.566,46.566-46.566s46.566,20.889,46.566,46.566v23.722C226.566,200.123,205.677,221.012,180,221.012z
							 M180,132.098c-10.271,0-18.626,8.356-18.626,18.626v23.722c0,10.27,8.355,18.626,18.626,18.626
							c10.271,0,18.626-8.356,18.626-18.626v-23.722C198.626,140.454,190.271,132.098,180,132.098z"/>
					</g>
				</g>
			</g>
		</g>
		<rect id="XMLID_44_" x="121.211" y="167.237" style="fill:#F9E375;" width="117.578" height="82.763"/>
		<path id="XMLID_1224_" style="fill:#2974A8;" d="M180,104.159v27.939c10.271,0,18.626,8.356,18.626,18.626v23.722
			c0,10.27-8.355,18.626-18.626,18.626v27.939c25.677,0,46.566-20.889,46.566-46.566v-23.722
			C226.566,125.048,205.677,104.159,180,104.159z"/>
		<rect id="XMLID_1227_" x="180" y="167.237" style="fill:#F5D361;" width="58.789" height="82.763"/>
	</g>
	<circle id="XMLID_1230_" style="fill:#DEDFE8;" cx="180" cy="300" r="20"/>
	<path id="XMLID_1233_" style="fill:#C9C7D7;" d="M180,280v40c11.046,0,20-8.954,20-20S191.046,280,180,280z"/>
</g>
<g>
</g>
<g>
</g>
<g>
</g>
<g>
</g>
<g>
</g>
<g>
</g>
<g>
</g>
<g>
</g>
<g>
</g>
<g>
</g>
<g>
</g>
<g>
</g>
<g>
</g>
<g>
</g>
<g>
</g>
</svg>
