<?xml version="1.0" encoding="iso-8859-1"?>
<!-- Generator: Adobe Illustrator 19.0.0, SVG Export Plug-In . SVG Version: 6.00 Build 0)  -->
<svg version="1.1" id="Capa_1" xmlns="http://www.w3.org/2000/svg" xmlns:xlink="http://www.w3.org/1999/xlink" x="0px" y="0px"
	 viewBox="0 0 350 350" style="enable-background:new 0 0 350 350;" xml:space="preserve">
<g id="XMLID_89_">
	<g id="XMLID_90_">
		<g id="XMLID_104_">
			<g id="XMLID_92_">
				<circle id="XMLID_93_" style="fill:#94DAF9;" cx="277.586" cy="128.37" r="48.276"/>
				<g id="XMLID_102_">
					<path id="XMLID_103_" style="fill:#C1E8E6;" d="M350,206.818c0-36.66-29.719-66.379-66.379-66.379
						c-2.037,0-4.048,0.106-6.038,0.286c0-0.095,0.004-0.19,0.004-0.286c0-59.99-48.631-108.621-108.621-108.621
						c-56.225,0-102.472,42.719-108.055,97.471C26.386,134.802,0,164.707,0,200.784c0,39.993,32.421,72.414,72.414,72.414h217.241
						v-0.285C323.486,269.861,350,241.443,350,206.818z"/>
				</g>
			</g>
		</g>
		<circle id="XMLID_138_" style="fill:#8EC8F0;" cx="277.586" cy="128.37" r="48.276"/>
		<path id="XMLID_221_" style="fill:#8EC8F0;" d="M283.621,140.439c-2.037,0-4.048,0.106-6.038,0.286
			c0-0.095,0.004-0.19,0.004-0.286c0-59.644-48.074-108.051-107.586-108.608v241.366h119.655v-0.285
			c33.83-3.051,60.345-31.469,60.345-66.094C350,170.158,320.281,140.439,283.621,140.439z"/>
	</g>
	<g id="XMLID_227_">
		<g id="XMLID_223_">
			<path id="XMLID_224_" style="fill:#6DA8D6;" d="M170,283.231c-30.958,0-56.144-25.186-56.144-56.144v-22.458
				c0-30.958,25.186-56.144,56.144-56.144s56.144,25.186,56.144,56.144v22.458C226.144,258.045,200.958,283.231,170,283.231z
				 M170,182.171c-12.384,0-22.458,10.075-22.458,22.458v22.458c0,12.383,10.074,22.458,22.458,22.458
				c12.384,0,22.458-10.075,22.458-22.458v-22.458C192.458,192.246,182.384,182.171,170,182.171z"/>
		</g>
	</g>
	<rect id="XMLID_37_" x="99.118" y="218.394" style="fill:#F9E375;" width="141.765" height="99.788"/>
	<path id="XMLID_235_" style="fill:#2974A8;" d="M170,148.485v33.687c12.384,0,22.458,10.075,22.458,22.458v22.458
		c0,12.383-10.074,22.458-22.458,22.458v33.687c30.958,0,56.144-25.186,56.144-56.144v-22.458
		C226.144,173.671,200.958,148.485,170,148.485z"/>
	<rect id="XMLID_238_" x="170" y="218.394" style="fill:#F5D361;" width="70.882" height="99.788"/>
</g>
<g>
</g>
<g>
</g>
<g>
</g>
<g>
</g>
<g>
</g>
<g>
</g>
<g>
</g>
<g>
</g>
<g>
</g>
<g>
</g>
<g>
</g>
<g>
</g>
<g>
</g>
<g>
</g>
<g>
</g>
</svg>
