<?xml version="1.0" encoding="iso-8859-1"?>
<!-- Generator: Adobe Illustrator 19.0.0, SVG Export Plug-In . SVG Version: 6.00 Build 0)  -->
<svg version="1.1" id="Layer_1" xmlns="http://www.w3.org/2000/svg" xmlns:xlink="http://www.w3.org/1999/xlink" x="0px" y="0px"
	 viewBox="0 0 512 512" style="enable-background:new 0 0 512 512;" xml:space="preserve">
<rect x="37.642" y="403.915" style="fill:#3F4A5A;" width="270.592" height="14.492"/>
<rect x="37.642" y="418.405" style="fill:#333C49;" width="270.592" height="14.5"/>
<rect x="37.642" y="432.92" style="fill:#262E37;" width="270.592" height="14.474"/>
<polygon style="fill:#EFEFEF;" points="37.642,447.412 12.529,432.895 12.529,418.436 37.642,403.928 "/>
<polygon style="fill:#CCCBCA;" points="37.642,447.412 37.642,432.91 12.529,428.069 12.529,432.895 "/>
<polygon style="fill:#3F4A5A;" points="12.529,432.895 0,425.645 12.529,418.436 "/>
<rect x="308.224" y="432.92" style="fill:#CCCBCA;" width="14.487" height="14.474"/>
<rect x="308.224" y="403.915" style="fill:#EFEFEF;" width="14.487" height="28.982"/>
<path style="fill:#E66847;" d="M326.083,447.387h-3.374v-14.492h3.374c5.542,0,11.118-2.107,15.375-6.349
	c2.36-2.391,4.076-5.166,5.11-8.133c0.819,2.332,1.249,4.767,1.249,7.232c0.008,5.568-2.125,11.136-6.359,15.393
	C337.201,445.285,331.625,447.387,326.083,447.387z"/>
<path style="fill:#F67656;" d="M326.083,432.895h-3.374l0.01-29l3.364,0.026c5.542-0.008,11.144,2.117,15.375,6.367
	c2.35,2.342,4.05,5.158,5.11,8.125c-1.034,2.967-2.749,5.742-5.11,8.133C337.201,430.785,331.625,432.895,326.083,432.895z"/>
<g>
	<path style="fill:#EFEFEF;" d="M512,361.729c0,5.24-2.007,10.476-5.993,14.474c-4.006,4.001-9.249,6.001-14.482,6.001H20.46
		c-5.225,0-10.465-1.999-14.472-6.001C1.999,372.205,0,366.97,0,361.729V85.062c0-5.233,1.999-10.483,5.988-14.474
		c4.006-4.001,9.247-6.001,14.472-6.001h471.066c5.233,0,10.475,1.999,14.482,6.001C509.993,74.579,512,79.83,512,85.062V361.729z"
		/>
	<polygon style="fill:#EFEFEF;" points="456.486,447.269 456.486,382.204 391.414,382.204 	"/>
</g>
<g>
	<rect x="55.501" y="303.743" style="fill:#CCCBCA;" width="400.998" height="22.95"/>
	<rect x="239.155" y="257.842" style="fill:#CCCBCA;" width="217.344" height="22.958"/>
	<rect x="239.155" y="211.916" style="fill:#CCCBCA;" width="217.344" height="22.95"/>
	<rect x="239.155" y="166.002" style="fill:#CCCBCA;" width="217.344" height="22.968"/>
</g>
<rect x="239.155" y="120.096" style="fill:#3F4A5A;" width="108.672" height="22.95"/>
<rect x="55.493" y="120.096" style="fill:#F67656;" width="160.696" height="160.691"/>
<path style="fill:#FFFFFF;" d="M151.616,153.645h-31.539l-35.182,93.591h29.542l4.552-15.45h32.837l4.685,15.45h30.282
	L151.616,153.645z M125.279,211.552l10.209-33.633l10.324,33.633H125.279z"/>
<g>
</g>
<g>
</g>
<g>
</g>
<g>
</g>
<g>
</g>
<g>
</g>
<g>
</g>
<g>
</g>
<g>
</g>
<g>
</g>
<g>
</g>
<g>
</g>
<g>
</g>
<g>
</g>
<g>
</g>
</svg>
