<?xml version="1.0" encoding="iso-8859-1"?>
<!-- Generator: Adobe Illustrator 19.0.0, SVG Export Plug-In . SVG Version: 6.00 Build 0)  -->
<svg version="1.1" id="Layer_1" xmlns="http://www.w3.org/2000/svg" xmlns:xlink="http://www.w3.org/1999/xlink" x="0px" y="0px"
	 viewBox="0 0 511.997 511.997" style="enable-background:new 0 0 511.997 511.997;" xml:space="preserve">
<path style="fill:#EFEFEF;" d="M450.281,66.258v427.666c0,4.626-1.766,9.249-5.299,12.774c-3.525,3.533-8.151,5.299-12.774,5.299
	H76.815c-4.626,0-9.249-1.766-12.78-5.299c-3.525-3.525-5.292-8.151-5.292-12.774V18.066c0-4.626,1.766-9.242,5.292-12.774
	C67.566,1.766,72.192,0,76.815,0h307.197L450.281,66.258z"/>
<g>
	<path style="fill:#CCCBCA;" d="M450.281,66.258h-48.192c-4.626,0-9.257-1.766-12.774-5.292c-3.533-3.533-5.299-8.159-5.299-12.782
		V0L450.281,66.258z"/>
	<rect x="125.005" y="147.328" style="fill:#CCCBCA;" width="258.995" height="20.268"/>
	<rect x="125.005" y="187.827" style="fill:#CCCBCA;" width="258.995" height="20.268"/>
</g>
<rect x="125.005" y="66.258" style="fill:#3F4A5A;" width="129.513" height="20.268"/>
<g>
	<rect x="125.005" y="106.783" style="fill:#CCCBCA;" width="258.995" height="20.268"/>
	<rect x="125.005" y="431.027" style="fill:#CCCBCA;" width="258.995" height="20.257"/>
	<rect x="125.005" y="390.502" style="fill:#CCCBCA;" width="258.995" height="20.265"/>
	<rect x="125.005" y="349.978" style="fill:#CCCBCA;" width="258.995" height="20.257"/>
</g>
<rect x="58.742" y="245.939" style="fill:#FAD97F;" width="391.552" height="22.067"/>
<rect x="58.744" y="268.006" style="fill:#F8C963;" width="391.526" height="22.083"/>
<rect x="58.744" y="290.074" style="fill:#F5B947;" width="391.526" height="22.06"/>
<polygon style="fill:#EFEFEF;" points="58.744,312.166 20.511,290.043 20.503,268.032 58.744,245.967 "/>
<polygon style="fill:#CCCBCA;" points="58.744,312.166 58.744,290.081 20.511,282.701 20.511,290.043 "/>
<polygon style="fill:#3F4A5A;" points="20.511,290.043 1.423,279.007 20.503,268.032 "/>
<rect x="450.276" y="290.048" style="fill:#CCCBCA;" width="22.057" height="22.067"/>
<polygon style="fill:#EFEFEF;" points="472.323,290.068 472.338,245.942 450.281,245.942 450.281,290.068 "/>
<path style="fill:#333C49;" d="M477.481,312.118h-5.143v-22.075h5.143c8.433,0,16.924-3.2,23.383-9.659
	c3.592-3.633,6.236-7.882,7.775-12.401c1.275,3.584,1.935,7.276,1.935,11.026c0,8.492-3.251,16.934-9.71,23.45
	C494.413,308.918,485.914,312.118,477.481,312.118z"/>
<path style="fill:#3F4A5A;" d="M477.481,290.043h-5.143v-44.142l5.143,0.015c8.433,0,16.924,3.251,23.383,9.708
	c3.574,3.574,6.175,7.834,7.775,12.357c-1.541,4.518-4.183,8.768-7.775,12.401C494.405,286.843,485.914,290.043,477.481,290.043z"/>
<g>
</g>
<g>
</g>
<g>
</g>
<g>
</g>
<g>
</g>
<g>
</g>
<g>
</g>
<g>
</g>
<g>
</g>
<g>
</g>
<g>
</g>
<g>
</g>
<g>
</g>
<g>
</g>
<g>
</g>
</svg>
