<?xml version="1.0" encoding="iso-8859-1"?>
<!-- Generator: Adobe Illustrator 19.0.0, SVG Export Plug-In . SVG Version: 6.00 Build 0)  -->
<svg version="1.1" id="Layer_1" xmlns="http://www.w3.org/2000/svg" xmlns:xlink="http://www.w3.org/1999/xlink" x="0px" y="0px"
	 viewBox="0 0 511.997 511.997" style="enable-background:new 0 0 511.997 511.997;" xml:space="preserve">
<path style="fill:#EFEFEF;" d="M410.413,66.258v427.666c0,4.626-1.761,9.249-5.297,12.78c-3.525,3.528-8.151,5.294-12.774,5.294
	H36.955c-4.621,0-9.249-1.766-12.774-5.294c-3.53-3.53-5.297-8.156-5.297-12.78V18.071c0-4.626,1.766-9.249,5.297-12.78
	C27.706,1.761,32.334,0,36.955,0h307.2L410.413,66.258z"/>
<path style="fill:#CCCBCA;" d="M410.413,66.258h-48.187c-4.626,0-9.249-1.766-12.774-5.297c-3.535-3.525-5.297-8.151-5.297-12.774V0
	L410.413,66.258z"/>
<rect x="318.375" y="176.316" transform="matrix(-0.7072 -0.7071 0.7071 -0.7072 350.894 748.3453)" style="fill:#9DE8F7;" width="24.089" height="250.383"/>
<rect x="335.383" y="193.319" transform="matrix(-0.7071 -0.7071 0.7071 -0.7071 367.901 789.3925)" style="fill:#84D7E8;" width="24.112" height="250.366"/>
<rect x="352.454" y="210.399" transform="matrix(-0.7071 -0.7071 0.7071 -0.7071 384.9441 830.6132)" style="fill:#6BC7D9;" width="24.087" height="250.366"/>
<polygon style="fill:#E6E5E5;" points="284.502,432.625 237.91,445.066 220.909,428.07 233.391,381.517 "/>
<polygon style="fill:#CCCBCA;" points="284.502,432.625 267.452,415.575 232.234,439.393 237.91,445.066 "/>
<polygon style="fill:#3F4A5A;" points="237.91,445.066 214.65,451.282 220.909,428.07 "/>
<rect x="449.427" y="226.483" transform="matrix(-0.7069 -0.7073 0.7073 -0.7069 618.9819 733.5456)" style="fill:#CCCBCA;" width="24.094" height="24.087"/>
<rect x="411.841" y="200.939" transform="matrix(-0.707 -0.7072 0.7072 -0.707 593.5228 671.8565)" style="fill:#E6E5E5;" width="48.189" height="24.084"/>
<path style="fill:#D65A38;" d="M482.502,234.547l-3.963,3.963l-17.037-17.037l3.958-3.963c6.52-6.518,10.609-15.547,10.609-25.513
	c-0.041-5.581-1.275-10.906-3.574-15.588c3.748,1.787,7.109,4.129,10.01,7.025c6.559,6.561,10.557,15.59,10.609,25.6
	C493.108,219,489.012,228.035,482.502,234.547z"/>
<path style="fill:#F67656;" d="M465.458,217.508l-3.958,3.963l-34.076-34.076l3.965-3.963c6.518-6.513,15.588-10.563,25.549-10.563
	c5.537,0,10.819,1.28,15.549,3.538c2.299,4.682,3.535,10.007,3.574,15.588C476.067,201.964,471.978,210.99,465.458,217.508z"/>
<g>
	<rect x="85.142" y="147.328" style="fill:#3F4A5A;" width="259.021" height="20.268"/>
	<rect x="85.142" y="228.378" style="fill:#3F4A5A;" width="248.627" height="20.268"/>
	<rect x="85.142" y="187.853" style="fill:#3F4A5A;" width="259.021" height="20.262"/>
</g>
<rect x="85.142" y="66.258" style="fill:#F67656;" width="129.508" height="20.262"/>
<g>
	<rect x="85.142" y="106.788" style="fill:#3F4A5A;" width="259.021" height="20.262"/>
	<rect x="85.142" y="431.027" style="fill:#3F4A5A;" width="45.97" height="20.262"/>
	<rect x="85.142" y="268.902" style="fill:#3F4A5A;" width="208.102" height="20.262"/>
	<rect x="85.142" y="390.502" style="fill:#3F4A5A;" width="86.505" height="20.265"/>
	<rect x="85.142" y="309.427" style="fill:#3F4A5A;" width="167.578" height="20.268"/>
	<rect x="85.142" y="349.952" style="fill:#3F4A5A;" width="127.032" height="20.262"/>
</g>
<g>
</g>
<g>
</g>
<g>
</g>
<g>
</g>
<g>
</g>
<g>
</g>
<g>
</g>
<g>
</g>
<g>
</g>
<g>
</g>
<g>
</g>
<g>
</g>
<g>
</g>
<g>
</g>
<g>
</g>
</svg>
