<?xml version="1.0" encoding="iso-8859-1"?>
<!-- Generator: Adobe Illustrator 19.0.0, SVG Export Plug-In . SVG Version: 6.00 Build 0)  -->
<svg version="1.1" id="Layer_1" xmlns="http://www.w3.org/2000/svg" xmlns:xlink="http://www.w3.org/1999/xlink" x="0px" y="0px"
	 viewBox="0 0 512 512" style="enable-background:new 0 0 512 512;" xml:space="preserve">
<path style="fill:#FFDA79;" d="M424.146,512H87.845c-10.345,0-18.731-8.387-18.731-18.731V18.75
	c0-10.345,8.387-18.731,18.731-18.731h212.094c4.967,0,9.731,1.973,13.244,5.486l124.209,124.194
	c3.513,3.513,5.486,8.278,5.486,13.245v350.324C442.877,503.614,434.492,512,424.146,512z"/>
<g>
	<path style="fill:#FFD155;" d="M437.392,129.7L313.183,5.505c-3.513-3.513-8.278-5.486-13.244-5.486h-43.942V512h168.151
		c10.345,0,18.731-8.387,18.731-18.731V142.945C442.877,137.977,440.904,133.213,437.392,129.7z"/>
	<path style="fill:#FFD155;" d="M248.574,400.979c-31.248-1.041-56.77-17.188-56.77-33.853c0-8.854,7.813-21.875,17.708-21.875
		c10.938,0,19.792,15.364,39.062,18.75v-42.187c-23.958-9.115-52.082-20.312-52.082-53.646c0-33.073,24.479-48.958,52.082-52.864
		v-7.291c0-3.646,4.167-7.032,9.896-7.032c4.949,0,9.896,3.385,9.896,7.032v6.51c16.146,0.521,46.614,4.688,46.614,22.656
		c0,7.032-4.688,21.355-16.146,21.355c-8.594,0-13.543-8.333-30.468-9.635v38.02c23.697,8.854,51.302,21.094,51.302,56.249
		c0,32.291-20.834,51.822-51.302,56.77v7.551c0,3.646-4.948,7.032-9.896,7.032c-5.729,0-9.896-3.385-9.896-7.032L248.574,400.979
		L248.574,400.979z M251.179,280.668V249.68c-11.719,2.343-16.667,8.333-16.667,14.583
		C234.512,271.813,241.283,276.501,251.179,280.668z M265.762,328.844v34.896c8.855-2.083,15.886-7.032,15.886-16.406
		C281.647,338.741,275.136,333.272,265.762,328.844z"/>
	<path style="fill:#FFD155;" d="M233.065,161.68h-78.342c-10.345,0-18.731-8.387-18.731-18.731s8.387-18.731,18.731-18.731h78.342
		c10.345,0,18.731,8.387,18.731,18.731C251.796,153.295,243.41,161.68,233.065,161.68z"/>
</g>
<g>
	<path style="fill:#FFC72D;" d="M424.141,161.68H299.944c-10.345,0-18.731-8.387-18.731-18.731V18.751
		c0-16.619,20.183-25.038,31.975-13.244l124.198,124.199C449.139,141.458,440.818,161.68,424.141,161.68z"/>
	<path style="fill:#FFC72D;" d="M268.367,286.918v-38.02c16.927,1.302,21.874,9.635,30.468,9.635
		c11.458,0,16.146-14.323,16.146-21.355c0-17.968-30.468-22.135-46.614-22.656v-6.51c0-3.646-4.948-7.032-9.896-7.032
		c-0.865,0-1.69,0.085-2.474,0.23v213.08c0.785,0.144,1.61,0.23,2.474,0.23c4.949,0,9.896-3.385,9.896-7.032v-7.551
		c30.468-4.948,51.302-24.479,51.302-56.77C319.669,308.012,292.064,295.772,268.367,286.918z M265.762,363.74v-34.896
		c9.375,4.428,15.886,9.896,15.886,18.49C281.647,356.709,274.615,361.656,265.762,363.74z"/>
</g>
<g>
</g>
<g>
</g>
<g>
</g>
<g>
</g>
<g>
</g>
<g>
</g>
<g>
</g>
<g>
</g>
<g>
</g>
<g>
</g>
<g>
</g>
<g>
</g>
<g>
</g>
<g>
</g>
<g>
</g>
</svg>
