<?xml version="1.0" encoding="iso-8859-1"?>
<!-- Generator: Adobe Illustrator 19.0.0, SVG Export Plug-In . SVG Version: 6.00 Build 0)  -->
<svg version="1.1" id="Layer_1" xmlns="http://www.w3.org/2000/svg" xmlns:xlink="http://www.w3.org/1999/xlink" x="0px" y="0px"
	 viewBox="0 0 512 512" style="enable-background:new 0 0 512 512;" xml:space="preserve">
<path style="fill:#F2D23D;" d="M295.537,76.766c-6.032-3.052-12.458-5.422-19.184-7.017c-3.716-0.881-7.516-1.547-11.396-1.938
	c-2.898-0.291-5.84-0.443-8.814-0.443s-5.916,0.152-8.814,0.443c-3.88,0.389-7.68,1.055-11.396,1.938
	c-6.726,1.595-13.153,3.967-19.184,7.017c-28.553,14.446-48.186,44.055-48.186,78.181v81.183
	c7.047,6.869,13.79,13.998,20.211,21.377c7.137,8.205,13.879,16.714,20.211,25.496c1.245,1.727,2.474,3.464,3.686,5.213
	c0.381,0.548,0.751,1.105,1.128,1.655c0.823,1.202,1.651,2.4,2.459,3.611c0.594,0.892,1.175,1.793,1.764,2.691
	c0.575,0.878,1.159,1.753,1.726,2.637c0.684,1.064,1.35,2.138,2.022,3.209c0.455,0.725,0.92,1.446,1.369,2.173
	c0.756,1.222,1.492,2.455,2.233,3.686c0.352,0.586,0.71,1.165,1.06,1.753c0.808,1.362,1.598,2.734,2.386,4.107
	c0.265,0.463,0.54,0.922,0.806,1.386c0.827,1.455,1.637,2.918,2.444,4.384c0.216,0.389,0.437,0.776,0.649,1.165
	c0.864,1.58,1.708,3.172,2.548,4.766c0.147,0.278,0.299,0.554,0.445,0.831c0.876,1.677,1.737,3.363,2.587,5.054
	c0.1,0.199,0.205,0.397,0.306,0.597c0.869,1.737,1.721,3.482,2.561,5.232c0.075,0.158,0.155,0.314,0.23,0.473
	c0.885,1.849,1.753,3.704,2.606,5.567c0.027,0.059,0.055,0.119,0.084,0.178c0.866,1.898,1.717,3.804,2.551,5.718
	c0.012,0.028,0.026,0.057,0.036,0.084c0.843,1.936,1.668,3.878,2.478,5.829c0.003,0.007,0.005,0.013,0.009,0.02
	c1.622,3.915,3.176,7.862,4.661,11.838v0.001c0.779,2.088,1.543,4.184,2.282,6.288c0.015,0.038,0.028,0.075,0.04,0.112
	c0,0.003,0.003,0.004,0.003,0.007c11.322-32.186,27.202-62.583,47.155-90.259c6.331-8.785,13.074-17.293,20.211-25.499
	c6.42-7.382,13.165-14.512,20.211-21.381v-81.183C343.72,120.821,324.089,91.213,295.537,76.766z"/>
<path style="fill:#A4E276;" d="M404.352,121.263c-11.162,0-20.211,9.049-20.211,20.211v60.68
	c-14.403,10.399-27.895,21.769-40.421,33.981c-7.045,6.869-13.79,13.999-20.211,21.381c-7.137,8.205-13.879,16.715-20.211,25.499
	c-19.953,27.675-35.833,58.073-47.155,90.259c0-0.003-0.003-0.004-0.003-0.007c-0.013-0.038-0.027-0.075-0.04-0.112
	c-0.036-0.101-0.074-0.201-0.109-0.302c-0.706-2.002-1.432-3.998-2.173-5.985v-0.001c-1.485-3.975-3.038-7.921-4.661-11.838
	c-0.004-0.007-0.007-0.013-0.009-0.02c-0.808-1.951-1.636-3.894-2.478-5.829c-0.012-0.028-0.026-0.055-0.036-0.084
	c-0.834-1.913-1.684-3.82-2.551-5.718c-0.028-0.059-0.057-0.119-0.084-0.178c-0.853-1.863-1.721-3.72-2.606-5.567
	c-0.075-0.159-0.155-0.315-0.23-0.473c-0.841-1.75-1.694-3.496-2.561-5.232c-0.1-0.199-0.205-0.396-0.306-0.597
	c-0.85-1.691-1.711-3.378-2.587-5.054c-0.146-0.279-0.298-0.554-0.445-0.831c-0.839-1.594-1.684-3.185-2.548-4.766
	c-0.213-0.391-0.434-0.776-0.649-1.165c-0.807-1.466-1.617-2.931-2.444-4.384c-0.264-0.465-0.539-0.923-0.806-1.386
	c-0.79-1.372-1.579-2.745-2.386-4.107c-0.35-0.587-0.709-1.168-1.06-1.753c-0.741-1.231-1.478-2.464-2.233-3.686
	c-0.449-0.729-0.913-1.448-1.369-2.173c-0.672-1.071-1.338-2.145-2.022-3.209c-0.567-0.884-1.151-1.758-1.726-2.637
	c-0.587-0.897-1.168-1.799-1.764-2.691c-0.81-1.21-1.636-2.409-2.459-3.611c-0.377-0.55-0.746-1.106-1.128-1.655
	c-1.213-1.748-2.443-3.486-3.686-5.213c-6.331-8.782-13.074-17.291-20.211-25.496c-6.42-7.38-13.164-14.508-20.211-21.377
	c-12.526-12.209-26.016-23.58-40.421-33.978v-60.684c0-11.162-9.049-20.211-20.211-20.211s-20.211,9.049-20.211,20.211v67.611
	c-0.381,2.253-0.376,4.537,0,6.761v127.733c0,92.818,75.474,168.338,168.272,168.42c0.05,0,0.1,0.001,0.15,0.001
	c92.867,0,168.421-75.554,168.421-168.421V212.655v-0.034v-3.778v-67.37C424.562,130.312,415.515,121.263,404.352,121.263z"/>
<g>
	<path style="fill:#64C37D;" d="M247.327,67.812c2.898-0.291,5.839-0.443,8.814-0.443c2.975,0,5.916,0.152,8.814,0.443
		c3.88,0.389,7.68,1.055,11.396,1.938c6.726,1.595,13.153,3.967,19.184,7.017l15.317-15.318c7.893-7.892,7.893-20.689,0-28.582
		c-7.892-7.893-20.689-7.893-28.582,0l-5.919,5.919V20.211C276.352,9.049,267.303,0,256.141,0s-20.211,9.049-20.211,20.211v18.576
		l-5.92-5.919c-7.892-7.893-20.689-7.893-28.582,0c-7.893,7.892-7.893,20.689,0,28.582l15.317,15.318
		c6.032-3.052,12.458-5.422,19.184-7.017C239.647,68.867,243.448,68.201,247.327,67.812z"/>
	<path style="fill:#64C37D;" d="M107.931,121.263c-11.162,0-20.211,9.049-20.211,20.211v67.611c-0.381,2.253-0.376,4.537,0,6.761
		v127.733c0,92.818,75.474,168.338,168.271,168.42V372.852c-0.706-2.002-1.432-3.998-2.173-5.985v-0.001
		c-1.485-3.975-3.038-7.921-4.661-11.838c-0.004-0.007-0.007-0.013-0.009-0.02c-0.808-1.951-1.636-3.894-2.478-5.829
		c-0.012-0.028-0.026-0.055-0.036-0.084c-0.834-1.913-1.684-3.82-2.551-5.718c-0.028-0.059-0.057-0.119-0.084-0.178
		c-0.853-1.863-1.721-3.72-2.606-5.567c-0.075-0.159-0.155-0.315-0.23-0.473c-0.841-1.75-1.694-3.496-2.561-5.232
		c-0.1-0.199-0.205-0.396-0.306-0.597c-0.85-1.691-1.711-3.378-2.587-5.054c-0.146-0.279-0.298-0.554-0.445-0.831
		c-0.839-1.594-1.684-3.185-2.548-4.766c-0.213-0.391-0.434-0.776-0.649-1.165c-0.807-1.466-1.617-2.931-2.444-4.384
		c-0.264-0.465-0.539-0.923-0.806-1.386c-0.79-1.372-1.579-2.745-2.386-4.107c-0.35-0.587-0.709-1.168-1.06-1.753
		c-0.741-1.231-1.478-2.464-2.233-3.686c-0.449-0.729-0.914-1.448-1.369-2.173c-0.672-1.071-1.338-2.145-2.022-3.209
		c-0.567-0.884-1.151-1.758-1.726-2.637c-0.587-0.897-1.168-1.799-1.764-2.691c-0.81-1.21-1.636-2.409-2.459-3.611
		c-0.377-0.55-0.746-1.106-1.128-1.655c-1.213-1.748-2.443-3.486-3.686-5.213c-6.331-8.782-13.074-17.291-20.211-25.496
		c-6.42-7.38-13.164-14.508-20.211-21.377c-12.526-12.209-26.016-23.58-40.421-33.978v-60.683
		C128.141,130.312,119.094,121.263,107.931,121.263z"/>
</g>
<path style="fill:#EEBF00;" d="M188.773,257.508c7.137,8.205,13.879,16.714,20.211,25.496c1.245,1.727,2.474,3.464,3.686,5.213
	c0.381,0.548,0.751,1.105,1.128,1.655c0.823,1.202,1.651,2.4,2.459,3.611c0.594,0.892,1.175,1.793,1.764,2.691
	c0.575,0.878,1.159,1.753,1.726,2.637c0.684,1.064,1.35,2.138,2.022,3.209c0.455,0.725,0.92,1.446,1.369,2.173
	c0.756,1.222,1.492,2.455,2.233,3.686c0.352,0.586,0.71,1.165,1.06,1.753c0.808,1.362,1.598,2.734,2.386,4.107
	c0.265,0.463,0.54,0.922,0.806,1.386c0.827,1.455,1.637,2.918,2.444,4.384c0.216,0.389,0.437,0.776,0.649,1.165
	c0.864,1.58,1.708,3.172,2.548,4.766c0.147,0.278,0.299,0.554,0.445,0.831c0.876,1.677,1.737,3.363,2.587,5.054
	c0.1,0.199,0.205,0.397,0.306,0.597c0.869,1.737,1.721,3.482,2.561,5.232c0.075,0.158,0.155,0.314,0.23,0.473
	c0.885,1.849,1.753,3.704,2.606,5.567c0.027,0.059,0.055,0.119,0.084,0.178c0.866,1.898,1.717,3.804,2.551,5.718
	c0.012,0.028,0.026,0.057,0.036,0.084c0.843,1.936,1.668,3.878,2.478,5.829c0.003,0.007,0.005,0.013,0.009,0.02
	c1.622,3.915,3.176,7.862,4.661,11.838v0.001c0.779,2.088,1.543,4.184,2.282,6.288c0.015,0.038,0.028,0.075,0.04,0.112V67.368
	c-2.975,0-5.916,0.152-8.815,0.443c-3.88,0.389-7.68,1.055-11.396,1.938c-6.726,1.595-13.153,3.967-19.184,7.017
	c-28.551,14.446-48.183,44.055-48.183,78.181v81.183C175.609,242.999,182.354,250.128,188.773,257.508z"/>
<g>
	<path style="fill:#F1CB30;" d="M256.141,373.266c-0.013-0.038-0.027-0.075-0.04-0.112
		C256.114,373.191,256.129,373.228,256.141,373.266L256.141,373.266z"/>
	<path style="fill:#F1CB30;" d="M253.818,366.866v-0.001V366.866z"/>
	<path style="fill:#F1CB30;" d="M238.603,331.924c-0.1-0.199-0.205-0.396-0.306-0.597
		C238.396,331.528,238.503,331.725,238.603,331.924z"/>
	<path style="fill:#F1CB30;" d="M235.71,326.273c-0.146-0.279-0.298-0.554-0.445-0.831
		C235.413,325.72,235.564,325.994,235.71,326.273z"/>
	<path style="fill:#F1CB30;" d="M241.394,337.63c-0.075-0.159-0.155-0.315-0.23-0.473
		C241.239,337.315,241.319,337.471,241.394,337.63z"/>
	<path style="fill:#F1CB30;" d="M244.082,343.376c-0.028-0.059-0.057-0.119-0.084-0.178
		C244.026,343.257,244.055,343.316,244.082,343.376z"/>
	<path style="fill:#F1CB30;" d="M249.158,355.026c-0.004-0.007-0.007-0.013-0.009-0.02
		C249.151,355.013,249.154,355.019,249.158,355.026z"/>
	<path style="fill:#F1CB30;" d="M246.671,349.177c-0.012-0.027-0.026-0.055-0.036-0.084
		C246.646,349.121,246.659,349.149,246.671,349.177z"/>
	<path style="fill:#F1CB30;" d="M232.719,320.675c-0.213-0.391-0.434-0.776-0.649-1.165
		C232.283,319.899,232.504,320.286,232.719,320.675z"/>
	<path style="fill:#F1CB30;" d="M223.138,304.193c-0.449-0.729-0.914-1.448-1.369-2.173
		C222.225,302.744,222.689,303.464,223.138,304.193z"/>
	<path style="fill:#F1CB30;" d="M212.671,288.217c-1.213-1.748-2.443-3.486-3.686-5.213
		C210.228,284.731,211.457,286.468,212.671,288.217z"/>
	<path style="fill:#F1CB30;" d="M216.258,293.481c-0.81-1.21-1.636-2.409-2.459-3.611
		C214.622,291.072,215.448,292.271,216.258,293.481z"/>
	<path style="fill:#F1CB30;" d="M219.748,298.81c-0.567-0.884-1.151-1.758-1.726-2.637
		C218.596,297.052,219.18,297.926,219.748,298.81z"/>
	<path style="fill:#F1CB30;" d="M229.624,315.125c-0.264-0.465-0.539-0.923-0.806-1.386
		C229.083,314.202,229.358,314.66,229.624,315.125z"/>
	<path style="fill:#F1CB30;" d="M226.432,309.632c-0.35-0.587-0.709-1.168-1.06-1.753
		C225.722,308.465,226.082,309.045,226.432,309.632z"/>
</g>
<polygon style="fill:#F2D23D;" points="256.144,373.274 256.141,373.266 256.141,373.266 "/>
<g>
</g>
<g>
</g>
<g>
</g>
<g>
</g>
<g>
</g>
<g>
</g>
<g>
</g>
<g>
</g>
<g>
</g>
<g>
</g>
<g>
</g>
<g>
</g>
<g>
</g>
<g>
</g>
<g>
</g>
</svg>
