<?xml version="1.0" encoding="iso-8859-1"?>
<!-- Generator: Adobe Illustrator 19.0.0, SVG Export Plug-In . SVG Version: 6.00 Build 0)  -->
<svg version="1.1" id="Layer_1" xmlns="http://www.w3.org/2000/svg" xmlns:xlink="http://www.w3.org/1999/xlink" x="0px" y="0px"
	 viewBox="0 0 512.003 512.003" style="enable-background:new 0 0 512.003 512.003;" xml:space="preserve">
<path style="fill:#FF3F62;" d="M488.727,340.983H417.74c-2.445-17.068-7.533-33.292-14.84-48.244l83.252-111.882
	c34.845-36.405,34.391-94.35-1.418-130.157c-9.328-9.329-29.083-23.454-92.676-38.369c-32.859-7.705-61.863-11.917-63.081-12.092
	c-7.258-1.044-14.587,1.392-19.774,6.578s-7.624,12.513-6.578,19.774c0.175,1.218,4.388,30.222,12.094,63.08
	c14.913,63.593,29.04,83.35,38.367,92.678c14.811,14.811,33.741,23.989,54.203,26.523l-32.344,43.467
	c-29.822-31.674-72.109-51.485-118.942-51.485s-89.12,19.811-118.942,51.485l-32.344-43.467
	c20.461-2.534,39.393-11.711,54.203-26.523c9.329-9.329,23.454-29.085,38.367-92.678c7.706-32.858,11.919-61.862,12.094-63.08
	c1.046-7.261-1.392-14.587-6.578-19.774c-5.188-5.188-12.518-7.626-19.774-6.578c-1.218,0.175-30.222,4.388-63.081,12.092
	C56.355,27.246,36.598,41.372,27.272,50.7c-35.809,35.809-36.263,93.756-1.415,130.16l83.249,111.879
	c-7.308,14.952-12.395,31.176-14.84,48.244H23.276c-12.853,0-23.273,10.42-23.273,23.273s10.42,23.273,23.273,23.273h74.887
	c6.035,13.85,16.297,27.988,27.313,40.186L95.94,476.709c-6.634,11.008-3.091,25.31,7.917,31.947
	c3.759,2.265,7.902,3.344,11.992,3.344c7.889,0,15.585-4.012,19.954-11.261l25.069-41.59c22.619,15.974,55.696,32.681,95.127,32.681
	s72.508-16.708,95.127-32.681l25.069,41.59C380.566,507.987,388.259,512,396.15,512c4.09,0,8.234-1.078,11.992-3.344
	c11.008-6.636,14.552-20.939,7.917-31.947l-29.534-48.995c11.017-12.198,21.279-26.337,27.313-40.186h74.887
	c12.853,0,23.273-10.42,23.273-23.273S501.58,340.983,488.727,340.983z"/>
<g>
	<path style="fill:#B8002B;" d="M94.263,340.983H23.276c-12.853,0-23.273,10.42-23.273,23.273c0,12.853,10.42,23.273,23.273,23.273
		h74.887c-3.486-7.998-5.562-15.9-5.562-23.273C92.6,356.354,93.176,348.587,94.263,340.983z"/>
	<path style="fill:#B8002B;" d="M141.362,443.594c-5.218-4.687-10.637-10.065-15.886-15.878l-29.534,48.995
		c-6.634,11.008-3.091,25.311,7.917,31.947c3.759,2.265,7.902,3.344,11.992,3.344c7.889,0,15.585-4.012,19.954-11.261l25.069-41.59
		c-7.256-5.126-13.428-10.167-18.393-14.566C142.105,444.253,141.722,443.917,141.362,443.594z"/>
	<path style="fill:#B8002B;" d="M137.06,252.338l-32.344-43.467c-3.829,0.475-7.703,0.743-11.621,0.743
		c-6.163,0-12.232-0.599-18.146-1.761c-17.948-3.527-34.453-12.279-47.678-25.504c-0.487-0.486-0.942-0.995-1.415-1.489
		l83.249,111.879c3.717-7.602,8.009-14.876,12.817-21.763C126.511,264.395,131.574,258.166,137.06,252.338z"/>
</g>
<g>
	<path style="fill:#D8143A;" d="M488.727,340.983H417.74c1.088,7.604,1.663,15.371,1.663,23.273c0,7.373-2.076,15.275-5.562,23.273
		h74.887c12.853,0,23.273-10.42,23.273-23.273C512,351.403,501.58,340.983,488.727,340.983z"/>
	<path style="fill:#D8143A;" d="M370.642,443.594c-0.36,0.324-0.743,0.661-1.119,0.993c-4.965,4.398-11.138,9.439-18.393,14.566
		l25.069,41.59c4.369,7.249,12.063,11.261,19.954,11.261c4.09,0,8.234-1.078,11.992-3.344c11.008-6.636,14.552-20.939,7.917-31.947
		l-29.534-48.995C381.279,433.528,375.86,438.905,370.642,443.594z"/>
	<path style="fill:#D8143A;" d="M402.9,292.739l83.252-111.882c-0.475,0.495-0.931,1.004-1.418,1.493
		c-13.227,13.225-29.73,21.977-47.681,25.504c-5.911,1.162-11.981,1.761-18.14,1.761c-0.003,0-0.003,0-0.006,0
		c-3.918,0-7.792-0.268-11.619-0.743l-32.344,43.467c5.486,5.827,10.549,12.057,15.14,18.638
		C394.891,277.864,399.182,285.137,402.9,292.739z"/>
	<path style="fill:#D8143A;" d="M74.948,207.853c5.916,1.162,11.985,1.761,18.146,1.761c3.918,0,7.792-0.268,11.621-0.743
		c20.461-2.534,39.393-11.711,54.203-26.523c9.329-9.329,23.454-29.085,38.367-92.678c7.706-32.858,11.919-61.862,12.094-63.08
		c1.046-7.261-1.392-14.587-6.578-19.774c-5.188-5.188-12.518-7.626-19.774-6.578c-1.218,0.175-30.222,4.388-63.081,12.092
		C56.354,27.246,36.597,41.372,27.271,50.7c-35.809,35.809-36.263,93.756-1.415,130.16c0.473,0.495,0.928,1.002,1.415,1.489
		C40.496,195.575,56.999,204.327,74.948,207.853z"/>
	<path style="fill:#D8143A;" d="M137.06,252.338c-5.486,5.827-10.549,12.057-15.14,18.638c-4.808,6.889-9.1,14.161-12.817,21.763
		c-7.308,14.952-12.395,31.176-14.84,48.244c-1.088,7.604-1.663,15.371-1.663,23.273c0,7.373,2.076,15.275,5.562,23.273
		c6.035,13.85,16.297,27.988,27.314,40.186c5.249,5.814,10.668,11.191,15.886,15.878c0.36,0.324,0.743,0.661,1.119,0.993
		c4.965,4.399,11.138,9.439,18.393,14.566c22.619,15.974,55.696,32.681,95.127,32.681V200.853
		C209.169,200.853,166.881,220.664,137.06,252.338z"/>
</g>
<g>
</g>
<g>
</g>
<g>
</g>
<g>
</g>
<g>
</g>
<g>
</g>
<g>
</g>
<g>
</g>
<g>
</g>
<g>
</g>
<g>
</g>
<g>
</g>
<g>
</g>
<g>
</g>
<g>
</g>
</svg>
