<?xml version="1.0" encoding="iso-8859-1"?>
<!-- Generator: Adobe Illustrator 19.0.0, SVG Export Plug-In . SVG Version: 6.00 Build 0)  -->
<svg version="1.1" id="Layer_1" xmlns="http://www.w3.org/2000/svg" xmlns:xlink="http://www.w3.org/1999/xlink" x="0px" y="0px"
	 viewBox="0 0 512 512" style="enable-background:new 0 0 512 512;" xml:space="preserve">
<path style="fill:#F9EBDB;" d="M225.338,24.626c-22.968,0-43.002,12.447-53.72,30.929c-33.46,0.899-60.314,28.182-60.314,61.732
	v25.043l166.957,22.261L256,32.713C246.955,27.576,236.495,24.626,225.338,24.626z"/>
<g>
	<path style="fill:#F7CD95;" d="M340.382,55.555c-10.717-18.482-30.753-30.929-53.72-30.929c-11.157,0-21.616,2.95-30.662,8.087
		v131.878l144.696-22.261v-25.043C400.696,83.738,373.842,56.455,340.382,55.555z"/>
	<path style="fill:#F7CD95;" d="M137.444,309.287H83.478C37.448,309.287,0,271.839,0,225.809V142.33h111.304l22.261,33.391H33.391
		v50.087c0,27.618,22.469,50.087,50.087,50.087h53.966V309.287z"/>
	<path style="fill:#F7CD95;" d="M111.304,142.33v66.783l11.13,16.696l-11.13,16.696V259.2c0,79.913,64.782,144.696,144.696,144.696
		l22.261-130.783L256,142.33H111.304z"/>
</g>
<path style="fill:#FF9A52;" d="M256,142.33v261.565c79.913,0,144.696-64.782,144.696-144.696v-16.696l-11.13-16.696l11.13-16.696
	V142.33H256z"/>
<polygon style="fill:#F9EBDB;" points="36.174,420.591 58.76,487.374 255.443,487.374 277.704,420.591 "/>
<g>
	<polygon style="fill:#E8D6BD;" points="255.443,420.591 255.443,487.374 453.704,487.374 475.826,420.591 	"/>
	<polygon style="fill:#E8D6BD;" points="0,403.896 0,437.287 255.722,437.287 266.991,420.591 256,403.896 	"/>
</g>
<rect x="256" y="403.89" style="fill:#D2BA9C;" width="256" height="33.391"/>
<polygon style="fill:#F9EBDB;" points="111.304,209.113 111.304,242.504 256,242.504 267.13,225.809 256,209.113 "/>
<rect x="256" y="209.107" style="fill:#F7CD95;" width="144.696" height="33.391"/>
<g>
</g>
<g>
</g>
<g>
</g>
<g>
</g>
<g>
</g>
<g>
</g>
<g>
</g>
<g>
</g>
<g>
</g>
<g>
</g>
<g>
</g>
<g>
</g>
<g>
</g>
<g>
</g>
<g>
</g>
</svg>
