<?xml version="1.0" encoding="iso-8859-1"?>
<!-- Generator: Adobe Illustrator 19.0.0, SVG Export Plug-In . SVG Version: 6.00 Build 0)  -->
<svg version="1.1" id="Layer_1" xmlns="http://www.w3.org/2000/svg" xmlns:xlink="http://www.w3.org/1999/xlink" x="0px" y="0px"
	 viewBox="0 0 512 512" style="enable-background:new 0 0 512 512;" xml:space="preserve">
<path style="fill:#2BA5F7;" d="M443.221,250.98c-7.212-7.224-17.187-11.685-28.204-11.685h-30.558
	c22.02,0,39.877-17.844,39.877-39.877c0-11.016-4.461-20.979-11.685-28.191c-7.212-7.212-17.187-11.673-28.191-11.673h-33.247
	c22.02,0,39.877-17.857,39.877-39.877c0-11.016-4.461-20.992-11.685-28.204c-7.212-7.212-17.175-11.673-28.191-11.673h-46.791l0,0
	l0,0c-2.677-3.42-5.068-7.113-7.15-11.066c-11.574-21.921-11.376-46.915-1.611-67.746c-15.738-2.565-32.405-0.198-47.572,7.819
	C221.123,23.046,206.253,51.225,207.69,79.8l0,0l0,0h-46.903c-22.02,0-39.877,17.844-39.877,39.877
	c0,11.004,4.461,20.979,11.685,28.191c7.212,7.224,17.187,11.685,28.191,11.685H127.54c-22.02,0-39.877,17.844-39.877,39.864
	c0,11.016,4.461,20.979,11.685,28.204c7.212,7.212,17.175,11.673,28.191,11.673H96.982c-22.02,0-39.877,17.857-39.877,39.877
	c0,11.016,4.461,20.979,11.685,28.191c7.212,7.224,17.175,11.685,28.191,11.685l99.556,18.244h118.936l99.543-18.244
	c22.033,0,39.877-17.857,39.877-39.877C454.894,268.155,450.433,258.192,443.221,250.98z"/>
<polygon style="fill:#F7B239;" points="415.017,319.047 393.889,319.047 315.474,319.047 196.538,319.047 118.123,319.047 
	96.982,319.047 59.41,319.047 122.076,512 162.076,512 215.485,512 296.515,512 349.936,512 389.924,512 452.602,319.047 "/>
<polygon style="fill:#E09B2D;" points="196.538,319.047 118.123,319.047 96.982,319.047 59.41,319.047 122.076,512 162.076,512 
	215.485,512 "/>
<path style="fill:#2197D8;" d="M248.088,8.808C221.123,23.046,206.253,51.225,207.69,79.8h-46.903
	c-22.02,0-39.877,17.844-39.877,39.877c0,11.004,4.461,20.979,11.685,28.191c7.212,7.224,17.187,11.685,28.191,11.685H127.54
	c-22.02,0-39.877,17.844-39.877,39.864c0,11.016,4.461,20.979,11.685,28.204c7.212,7.212,17.175,11.673,28.191,11.673H96.982
	c-22.02,0-39.877,17.857-39.877,39.877c0,11.016,4.461,20.979,11.685,28.191c7.212,7.224,17.175,11.685,28.191,11.685h96.656
	c-11.016,0-20.979-4.461-28.191-11.685c-7.224-7.212-11.685-17.175-11.685-28.191c0-22.02,17.857-39.877,39.877-39.877h30.558
	c-11.016,0-20.979-4.461-28.191-11.673c-7.224-7.224-11.685-17.187-11.685-28.204c0-22.02,17.857-39.864,39.877-39.864h33.247
	c-11.004,0-20.979-4.461-28.191-11.685c-7.224-7.212-11.685-17.187-11.685-28.191c0-22.033,17.857-39.877,39.877-39.877h0.431
	c-1.306-25.972,10.861-51.613,33.334-66.761c1.141-4.13,2.63-8.164,4.451-12.051C279.922-1.577,263.255,0.789,248.088,8.808z"/>
<g>
</g>
<g>
</g>
<g>
</g>
<g>
</g>
<g>
</g>
<g>
</g>
<g>
</g>
<g>
</g>
<g>
</g>
<g>
</g>
<g>
</g>
<g>
</g>
<g>
</g>
<g>
</g>
<g>
</g>
</svg>
