<?xml version="1.0" encoding="iso-8859-1"?>
<!-- Generator: Adobe Illustrator 19.0.0, SVG Export Plug-In . SVG Version: 6.00 Build 0)  -->
<svg version="1.1" id="Layer_1" xmlns="http://www.w3.org/2000/svg" xmlns:xlink="http://www.w3.org/1999/xlink" x="0px" y="0px"
	 viewBox="0 0 512 512" style="enable-background:new 0 0 512 512;" xml:space="preserve">
<path style="fill:#F95428;" d="M312.69,55.649c0,18.585-9.119,35.034-23.098,45.141h-65.101
	c-13.979-10.107-23.098-26.556-23.098-45.141C201.393,24.927,226.306,0,257.041,0C287.79,0,312.69,24.927,312.69,55.649z"/>
<path style="fill:#E54728;" d="M249.455,55.649c0-22.119,12.916-41.232,31.62-50.204C273.801,1.957,265.65,0,257.041,0
	c-30.735,0-55.649,24.927-55.649,55.649c0,18.585,9.119,35.034,23.098,45.141h48.062C258.574,90.683,249.455,74.234,249.455,55.649z
	"/>
<polygon style="fill:#F7B239;" points="419.355,304.105 404.561,304.105 320.073,304.105 191.927,304.105 107.439,304.105 
	94.728,304.105 44.18,304.105 111.698,512 154.796,512 212.341,512 299.646,512 357.204,512 400.289,512 467.82,304.105 "/>
<path style="fill:#B27214;" d="M423.44,221.714c-10.08-10.067-23.992-16.302-39.347-16.302h-39.988
	c29.306,0,53.072-23.752,53.072-53.059v-5.167c0-29.306-23.766-53.072-53.072-53.072h-54.514h-65.101h-54.5
	c-29.306,0-53.072,23.766-53.072,53.072v5.167c0,29.306,23.766,53.059,53.072,53.059h-39.987c-30.722,0-55.649,24.927-55.649,55.649
	c0,15.381,6.235,29.28,16.302,39.36c1.295,1.295,2.657,2.523,4.072,3.685h12.711h84.488h128.147h84.488h14.793
	c12.43-10.201,20.388-25.688,20.388-43.045C439.742,245.693,433.507,231.794,423.44,221.714z"/>
<g>
	<path style="fill:#995C0D;" d="M164.756,300.42c1.295,1.295,2.657,2.523,4.072,3.685h-74.1c-1.415-1.162-2.777-2.39-4.072-3.685
		c-10.067-10.08-16.302-23.979-16.302-39.36c0-30.722,24.927-55.649,55.649-55.649h74.1c-30.722,0-55.649,24.927-55.649,55.649
		C148.454,276.441,154.689,290.34,164.756,300.42z"/>
	<path style="fill:#995C0D;" d="M244.091,205.411h-74.1c-29.306,0-53.072-23.752-53.072-53.059v-5.167
		c0-29.306,23.766-53.072,53.072-53.072h74.1c-29.306,0-53.072,23.766-53.072,53.072v5.167
		C191.019,181.659,214.784,205.411,244.091,205.411z"/>
</g>
<polygon style="fill:#E09B2D;" points="191.927,304.105 107.439,304.105 94.728,304.105 44.18,304.105 111.698,512 154.796,512 
	212.341,512 "/>
<g>
</g>
<g>
</g>
<g>
</g>
<g>
</g>
<g>
</g>
<g>
</g>
<g>
</g>
<g>
</g>
<g>
</g>
<g>
</g>
<g>
</g>
<g>
</g>
<g>
</g>
<g>
</g>
<g>
</g>
</svg>
