<?xml version="1.0" encoding="iso-8859-1"?>
<!-- Generator: Adobe Illustrator 19.0.0, SVG Export Plug-In . SVG Version: 6.00 Build 0)  -->
<svg version="1.1" id="Layer_1" xmlns="http://www.w3.org/2000/svg" xmlns:xlink="http://www.w3.org/1999/xlink" x="0px" y="0px"
	 viewBox="0 0 512 512" style="enable-background:new 0 0 512 512;" xml:space="preserve">
<path style="fill:#FF4F19;" d="M437.381,118.506c-40.957-40.957-107.362-40.957-148.319,0l-52.971,52.971l-52.971-52.971
	c-40.957-40.957-107.362-40.957-148.319,0s-40.957,107.362,0,148.319l201.29,201.29l201.29-201.29
	C478.338,225.868,478.338,159.463,437.381,118.506z"/>
<polygon style="fill:#56545A;" points="511.999,94.247 511.987,0.023 417.75,0 449.36,31.61 362.987,117.985 394.018,149.016 
	480.392,62.64 "/>
<polygon style="fill:#88888F;" points="174.651,306.321 49.425,431.546 0.001,431.546 0.001,475.43 36.572,475.43 36.572,512 
	80.456,512 80.456,462.576 205.682,337.352 "/>
<path style="fill:#AF2E08;" d="M437.381,118.506c-40.957-40.957-107.362-40.958-148.319,0l-52.971,52.971v296.639l201.29-201.29
	C478.338,225.868,478.338,159.463,437.381,118.506z"/>
<g>
</g>
<g>
</g>
<g>
</g>
<g>
</g>
<g>
</g>
<g>
</g>
<g>
</g>
<g>
</g>
<g>
</g>
<g>
</g>
<g>
</g>
<g>
</g>
<g>
</g>
<g>
</g>
<g>
</g>
</svg>
