<?xml version="1.0" encoding="iso-8859-1"?>
<!-- Generator: Adobe Illustrator 19.0.0, SVG Export Plug-In . SVG Version: 6.00 Build 0)  -->
<svg version="1.1" id="Layer_1" xmlns="http://www.w3.org/2000/svg" xmlns:xlink="http://www.w3.org/1999/xlink" x="0px" y="0px"
	 viewBox="0 0 512 512" style="enable-background:new 0 0 512 512;" xml:space="preserve">
<rect x="64" style="fill:#EFEFEF;" width="384" height="512"/>
<g>
	<rect x="232.56" y="109.68" style="fill:#C9C9C9;" width="172.72" height="10.64"/>
	<rect x="232.56" y="141.68" style="fill:#C9C9C9;" width="172.72" height="10.64"/>
	<rect x="232.56" y="173.68" style="fill:#C9C9C9;" width="172.72" height="10.64"/>
	<rect x="232.56" y="205.68" style="fill:#C9C9C9;" width="172.72" height="10.64"/>
	<rect x="106.72" y="237.68" style="fill:#C9C9C9;" width="298.56" height="10.64"/>
	<rect x="106.72" y="269.68" style="fill:#C9C9C9;" width="298.56" height="10.64"/>
	<rect x="106.72" y="301.68" style="fill:#C9C9C9;" width="298.56" height="10.64"/>
	<rect x="106.72" y="333.68" style="fill:#C9C9C9;" width="298.56" height="10.64"/>
	<rect x="106.72" y="365.68" style="fill:#C9C9C9;" width="298.56" height="10.64"/>
	<rect x="106.72" y="397.68" style="fill:#C9C9C9;" width="298.56" height="10.64"/>
	<rect x="106.72" y="429.68" style="fill:#C9C9C9;" width="298.56" height="10.64"/>
	<rect x="106.72" y="461.68" style="fill:#C9C9C9;" width="298.56" height="10.64"/>
	<rect x="106.72" y="40.32" style="fill:#C9C9C9;" width="298.48" height="32"/>
	<circle style="fill:#C9C9C9;" cx="156.72" cy="133.92" r="24.64"/>
</g>
<g>
	<path style="fill:#002833;" d="M155.6,215.92l-23.84-51.68c0,0-24.96,0.32-24.96,23.36s0,28.32,0,28.32S155.76,215.92,155.6,215.92
		z"/>
	<path style="fill:#002833;" d="M157.92,215.92l23.84-51.68c0,0,24.96,0.32,24.96,23.36s0,28.32,0,28.32
		S157.76,215.92,157.92,215.92z"/>
</g>
<polygon style="fill:#FF5F5F;" points="156.72,164.24 139.6,164.24 156.72,202.24 173.92,164.24 "/>
<g>
</g>
<g>
</g>
<g>
</g>
<g>
</g>
<g>
</g>
<g>
</g>
<g>
</g>
<g>
</g>
<g>
</g>
<g>
</g>
<g>
</g>
<g>
</g>
<g>
</g>
<g>
</g>
<g>
</g>
</svg>
