<?xml version="1.0" encoding="iso-8859-1"?>
<!-- Generator: Adobe Illustrator 19.0.0, SVG Export Plug-In . SVG Version: 6.00 Build 0)  -->
<svg version="1.1" id="Layer_1" xmlns="http://www.w3.org/2000/svg" xmlns:xlink="http://www.w3.org/1999/xlink" x="0px" y="0px"
	 viewBox="0 0 512 512" style="enable-background:new 0 0 512 512;" xml:space="preserve">
<path style="fill:#77757F;" d="M69.818,54.303C31.32,54.303,0,85.623,0,124.121v46.545c0,30.34,19.458,56.207,46.545,65.815v197.942
	c0,12.853,10.42,23.273,23.273,23.273s23.273-10.42,23.273-23.273V236.482c27.088-9.607,46.545-35.475,46.545-65.815v-46.545
	C139.636,85.623,108.316,54.303,69.818,54.303z"/>
<path style="fill:#57575C;" d="M0,124.121v46.545c0,30.34,19.458,56.207,46.545,65.815v197.942c0,12.853,10.42,23.273,23.273,23.273
	V54.303C31.32,54.303,0,85.623,0,124.121z"/>
<path style="fill:#77757F;" d="M302.545,54.303c-16.545,0-32.281,3.494-46.545,9.745c-41.055,17.993-69.818,58.999-69.818,106.619
	v108.606c0,12.853,10.42,23.273,23.273,23.273H256h23.273v131.879c0,12.853,10.42,23.273,23.273,23.273s23.273-10.42,23.273-23.273
	V77.576C325.818,64.723,315.398,54.303,302.545,54.303z"/>
<path style="fill:#A9A8AE;" d="M209.455,302.545h69.818v131.879c0,12.853,10.42,23.273,23.273,23.273s23.273-10.42,23.273-23.273
	V77.576c0-12.853-10.42-23.273-23.273-23.273c-64.163,0-116.364,52.201-116.364,116.364v108.606
	C186.182,292.125,196.602,302.545,209.455,302.545z"/>
<path style="fill:#77757F;" d="M209.455,302.545h69.818v131.879c0,12.853,10.42,23.273,23.273,23.273s23.273-10.42,23.273-23.273
	V77.576c0-12.853-10.42-23.273-23.273-23.273c-64.163,0-116.364,52.201-116.364,116.364v108.606
	C186.182,292.125,196.602,302.545,209.455,302.545z"/>
<path style="fill:#57575C;" d="M186.182,170.667v108.606c0,12.853,10.42,23.273,23.273,23.273H256V64.048
	C214.945,82.041,186.182,123.048,186.182,170.667z"/>
<path style="fill:#77757F;" d="M488.727,54.303c-12.853,0-23.273,10.42-23.273,23.273v93.091c0,12.833-10.44,23.273-23.273,23.273
	c-12.833,0-23.273-10.44-23.273-23.273V77.576c0-12.853-10.42-23.273-23.273-23.273s-23.273,10.42-23.273,23.273v93.091
	c0,30.34,19.458,56.207,46.545,65.815v197.942c0,12.853,10.42,23.273,23.273,23.273c12.853,0,23.273-10.42,23.273-23.273V236.482
	C492.542,226.875,512,201.007,512,170.667V77.576C512,64.723,501.58,54.303,488.727,54.303z"/>
<path style="fill:#A9A8AE;" d="M488.727,54.303c-12.853,0-23.273,10.42-23.273,23.273v93.091c0,12.833-10.44,23.273-23.273,23.273
	c-12.834,0-23.273-10.44-23.273-23.273V77.576c0-12.853-10.42-23.273-23.273-23.273s-23.273,10.42-23.273,23.273v93.091
	c0,30.34,19.458,56.207,46.545,65.815v197.942c0,12.853,10.42,23.273,23.273,23.273c12.853,0,23.273-10.42,23.273-23.273V236.482
	C492.542,226.875,512,201.007,512,170.667V77.576C512,64.723,501.58,54.303,488.727,54.303z"/>
<path style="fill:#77757F;" d="M488.727,54.303c-12.853,0-23.273,10.42-23.273,23.273v93.091c0,12.833-10.44,23.273-23.273,23.273
	c-12.834,0-23.273-10.44-23.273-23.273V77.576c0-12.853-10.42-23.273-23.273-23.273s-23.273,10.42-23.273,23.273v93.091
	c0,30.34,19.458,56.207,46.545,65.815v197.942c0,12.853,10.42,23.273,23.273,23.273c12.853,0,23.273-10.42,23.273-23.273V236.482
	C492.542,226.875,512,201.007,512,170.667V77.576C512,64.723,501.58,54.303,488.727,54.303z"/>
<path style="fill:#57575C;" d="M418.909,170.667V77.576c0-12.853-10.42-23.273-23.273-23.273s-23.273,10.42-23.273,23.273v93.091
	c0,30.34,19.458,56.207,46.545,65.815v197.942c0,12.853,10.42,23.273,23.273,23.273V193.939
	C429.349,193.939,418.909,183.499,418.909,170.667z"/>
<g>
</g>
<g>
</g>
<g>
</g>
<g>
</g>
<g>
</g>
<g>
</g>
<g>
</g>
<g>
</g>
<g>
</g>
<g>
</g>
<g>
</g>
<g>
</g>
<g>
</g>
<g>
</g>
<g>
</g>
</svg>
