<?xml version="1.0" encoding="iso-8859-1"?>
<!-- Generator: Adobe Illustrator 19.0.0, SVG Export Plug-In . SVG Version: 6.00 Build 0)  -->
<svg version="1.1" id="Layer_1" xmlns="http://www.w3.org/2000/svg" xmlns:xlink="http://www.w3.org/1999/xlink" x="0px" y="0px"
	 viewBox="0 0 512 512" style="enable-background:new 0 0 512 512;" xml:space="preserve">
<path style="fill:#FF9392;" d="M256,512c-59.235,0-107.425-48.19-107.425-107.425V166.467c0-3.488,1.069-6.895,3.064-9.757
	l47.895-68.731c9.52-13.663,31.068-6.894,31.068,9.757v304.663c0,13.999,11.393,25.387,25.398,25.387
	c14.005,0,25.398-11.389,25.398-25.387V97.736c0-16.654,21.549-23.418,31.068-9.757l47.895,68.731
	c1.994,2.864,3.064,6.269,3.064,9.757v238.108C363.425,463.81,315.235,512,256,512z"/>
<path style="fill:#FF7876;" d="M360.361,156.71l-47.895-68.731c-9.52-13.661-31.068-6.897-31.068,9.757v304.663
	c0,13.999-11.393,25.387-25.398,25.387V512c59.233,0,107.425-48.19,107.425-107.425V166.467
	C363.425,162.979,362.356,159.574,360.361,156.71z"/>
<path style="fill:#F1F2F2;" d="M256,461.919c-32.826,0-59.53-26.701-59.53-59.519V17.08c0-12.085,12.255-20.357,23.468-15.819
	l84.928,34.366c6.446,2.608,10.665,8.866,10.665,15.819v350.953C315.53,435.218,288.826,461.919,256,461.919z"/>
<path style="fill:#E6E7E8;" d="M304.865,35.626L256,15.854v446.065c32.826,0,59.53-26.701,59.53-59.519V51.447
	C315.53,44.493,311.312,38.234,304.865,35.626z"/>
<rect x="196.466" y="352.383" style="fill:#6A82A1;" width="119.065" height="34.132"/>
<rect x="256.005" y="352.383" style="fill:#36495E;" width="59.527" height="34.132"/>
<g>
</g>
<g>
</g>
<g>
</g>
<g>
</g>
<g>
</g>
<g>
</g>
<g>
</g>
<g>
</g>
<g>
</g>
<g>
</g>
<g>
</g>
<g>
</g>
<g>
</g>
<g>
</g>
<g>
</g>
</svg>
