<?xml version="1.0" encoding="iso-8859-1"?>
<!-- Generator: Adobe Illustrator 19.0.0, SVG Export Plug-In . SVG Version: 6.00 Build 0)  -->
<svg version="1.1" id="Layer_1" xmlns="http://www.w3.org/2000/svg" xmlns:xlink="http://www.w3.org/1999/xlink" x="0px" y="0px"
	 viewBox="0 0 512 512" style="enable-background:new 0 0 512 512;" xml:space="preserve">
<g>
	<path style="fill:#FFD155;" d="M494.933,426.042h-55.288c-9.425,0-17.067-7.641-17.067-17.067V158.312
		c0-9.425,7.641-17.067,17.067-17.067h55.288c9.425,0,17.067,7.641,17.067,17.067v250.664
		C512,418.401,504.359,426.042,494.933,426.042z"/>
	<path style="fill:#FFD155;" d="M222.306,426.042H17.067C7.641,426.042,0,418.401,0,408.975v-141.12
		c0-9.425,7.641-17.067,17.067-17.067h205.239c9.425,0,17.067,7.641,17.067,17.067v141.12
		C239.373,418.401,231.731,426.042,222.306,426.042z"/>
</g>
<path style="fill:#6A82A1;" d="M148.508,371.986H90.864c-9.425,0-17.067-7.641-17.067-17.067s7.641-17.067,17.067-17.067h57.644
	c9.425,0,17.067,7.641,17.067,17.067S157.934,371.986,148.508,371.986z"/>
<path style="fill:#FFDA79;" d="M239.373,284.615H0V141.246h239.373V284.615z"/>
<g>
	<path style="fill:#6A82A1;" d="M148.508,247.064H90.864c-9.425,0-17.067-7.641-17.067-17.067c0-9.425,7.641-17.067,17.067-17.067
		h57.644c9.425,0,17.067,7.641,17.067,17.067C165.575,239.423,157.934,247.064,148.508,247.064z"/>
	<path style="fill:#6A82A1;" d="M494.933,175.379H17.067C7.641,175.379,0,167.738,0,158.313v-55.288
		c0-9.425,7.641-17.067,17.067-17.067h477.867c9.425,0,17.067,7.641,17.067,17.067v55.288
		C512,167.738,504.359,175.379,494.933,175.379z"/>
</g>
<path style="fill:#36495E;" d="M494.933,85.958H255.997l0.001,89.421h238.936c9.425,0,17.067-7.641,17.067-17.067v-55.288
	C512,93.599,504.359,85.958,494.933,85.958z"/>
<g>
</g>
<g>
</g>
<g>
</g>
<g>
</g>
<g>
</g>
<g>
</g>
<g>
</g>
<g>
</g>
<g>
</g>
<g>
</g>
<g>
</g>
<g>
</g>
<g>
</g>
<g>
</g>
<g>
</g>
</svg>
