<?xml version="1.0" encoding="iso-8859-1"?>
<!-- Generator: Adobe Illustrator 19.0.0, SVG Export Plug-In . SVG Version: 6.00 Build 0)  -->
<svg version="1.1" id="Layer_1" xmlns="http://www.w3.org/2000/svg" xmlns:xlink="http://www.w3.org/1999/xlink" x="0px" y="0px"
	 viewBox="0 0 512.001 512.001" style="enable-background:new 0 0 512.001 512.001;" xml:space="preserve">
<path style="fill:#545257;" d="M256,174.639c-14.192,0-27.324-9.701-36.977-27.316c-6.949-12.679-11.265-27.875-11.265-39.657
	c0-26.601,21.641-48.241,48.241-48.241s48.241,21.641,48.241,48.241c0,11.783-4.316,26.977-11.265,39.656
	C283.324,164.939,270.192,174.639,256,174.639z M256,93.163c-7.997,0-14.503,6.506-14.503,14.503
	c0,11.197,8.909,29.655,14.503,32.98c5.595-3.325,14.503-21.784,14.503-32.98C270.504,99.669,263.998,93.163,256,93.163z"/>
<path style="fill:#424145;" d="M256,59.425v33.738c7.997,0,14.503,6.506,14.503,14.503c0,11.197-8.909,29.655-14.503,32.98v33.993
	c14.192,0,27.325-9.701,36.977-27.317c6.949-12.678,11.265-27.874,11.265-39.656C304.242,81.066,282.601,59.425,256,59.425z"/>
<path style="fill:#00D9E1;" d="M477.707,429.252c-2.713,13.562-14.62,23.323-28.451,23.323H62.743
	c-13.831,0-25.738-9.762-28.451-23.323L21.118,363.38h469.763L477.707,429.252z"/>
<g>
	<path style="fill:#00A3AA;" d="M256.001,363.38v89.195h193.257c13.831,0,25.738-9.762,28.451-23.323l13.174-65.872H256.001z"/>
	<polygon style="fill:#00A3AA;" points="485.427,390.654 490.881,363.38 21.119,363.38 26.574,390.654 	"/>
</g>
<path style="fill:#DFDEE1;" d="M256,141.27c-134.876,0-245.462,90.325-255.932,205.123c-0.417,4.575,1.111,9.112,4.206,12.506
	s7.479,5.344,12.072,5.344h479.309c4.596,0,8.981-1.935,12.078-5.332c3.097-3.396,4.617-7.94,4.199-12.518
	C501.462,231.594,390.877,141.27,256,141.27z"/>
<path style="fill:#AEACB3;" d="M511.933,346.393C501.462,231.594,390.878,141.27,256.001,141.27v222.973h239.654
	c4.596,0,8.981-1.935,12.078-5.332C510.831,355.515,512.35,350.971,511.933,346.393z"/>
<g>
</g>
<g>
</g>
<g>
</g>
<g>
</g>
<g>
</g>
<g>
</g>
<g>
</g>
<g>
</g>
<g>
</g>
<g>
</g>
<g>
</g>
<g>
</g>
<g>
</g>
<g>
</g>
<g>
</g>
</svg>
