<?xml version="1.0" encoding="iso-8859-1"?>
<!-- Generator: Adobe Illustrator 19.0.0, SVG Export Plug-In . SVG Version: 6.00 Build 0)  -->
<svg version="1.1" id="Layer_1" xmlns="http://www.w3.org/2000/svg" xmlns:xlink="http://www.w3.org/1999/xlink" x="0px" y="0px"
	 viewBox="0 0 512 512" style="enable-background:new 0 0 512 512;" xml:space="preserve">
<polygon style="fill:#A3E3E5;" points="378.013,472.613 367.09,512 144.91,512 133.987,472.613 164.104,417.354 223.184,422.605 
	291.455,431.796 340.031,422.605 "/>
<polygon style="fill:#8DCCCC;" points="159.798,472.612 133.987,472.612 144.91,511.999 207.925,511.999 197.001,472.612 "/>
<polygon style="fill:#A3E3E5;" points="422.402,0 418.726,62.072 412.07,174.312 411.623,174.286 259.945,204.666 100.377,174.286 
	99.93,174.312 99.93,174.286 93.274,62.072 89.598,0 "/>
<polygon style="fill:#8DCCCC;" points="219.298,174.286 99.93,174.286 93.274,62.072 89.598,0 216.883,0 "/>
<polygon style="fill:#F95428;" points="411.623,174.286 364.49,174.286 292.702,174.286 219.298,174.286 147.51,174.286 
	100.377,174.286 99.93,174.312 117.602,472.612 133.987,472.612 159.798,472.612 223.447,472.612 288.553,472.612 352.215,472.612 
	378.013,472.612 394.398,472.612 412.07,174.312 "/>
<polygon style="fill:#E54728;" points="219.298,174.286 223.447,472.613 159.798,472.613 147.51,174.286 "/>
<polygon style="fill:#D13420;" points="147.51,174.286 159.798,472.613 133.987,472.613 117.602,472.613 99.93,174.312 
	100.377,174.286 "/>
<g>
</g>
<g>
</g>
<g>
</g>
<g>
</g>
<g>
</g>
<g>
</g>
<g>
</g>
<g>
</g>
<g>
</g>
<g>
</g>
<g>
</g>
<g>
</g>
<g>
</g>
<g>
</g>
<g>
</g>
</svg>
