<?xml version="1.0" encoding="iso-8859-1"?>
<!-- Generator: Adobe Illustrator 19.0.0, SVG Export Plug-In . SVG Version: 6.00 Build 0)  -->
<svg version="1.1" id="Layer_1" xmlns="http://www.w3.org/2000/svg" xmlns:xlink="http://www.w3.org/1999/xlink" x="0px" y="0px"
	 viewBox="0 0 512 512" style="enable-background:new 0 0 512 512;" xml:space="preserve">
<path style="fill:#ECB45C;" d="M488.727,155.152H318.061c-6.189,0-12.122,2.465-16.49,6.85L189.237,274.795
	c-13.189,13.186-20.454,30.72-20.454,49.369c0,18.105,6.844,35.156,19.307,48.199H69.818C31.32,372.364,0,403.684,0,442.182
	S31.32,512,69.818,512h201.697c3.626,0,7.058-0.83,10.117-2.31c2.293-1.105,4.44-2.608,6.343-4.51l163.846-163.846h36.906
	c12.853,0,23.273-10.42,23.273-23.273V178.424C512,165.57,501.58,155.152,488.727,155.152z"/>
<path style="fill:#EFC27B;" d="M215.329,324.164c0,6.215,2.422,12.058,6.817,16.454c4.397,4.397,10.242,6.819,16.457,6.819
	c6.217,0,12.06-2.42,16.454-6.817l39.016-39.016c9.089-9.089,23.824-9.089,32.912,0c9.089,9.087,9.089,23.823,0,32.912
	l-77.573,77.576c-4.364,4.364-10.283,6.817-16.455,6.817H69.818c-12.833,0-23.273,10.44-23.273,23.273s10.44,23.273,23.273,23.273
	h192.056l163.851-163.849c4.364-4.364,10.283-6.816,16.455-6.816h23.273v-93.092H327.727L222.178,307.675
	C217.75,312.106,215.329,317.949,215.329,324.164z"/>
<path style="fill:#B3D8F4;" d="M148.435,71.373c-17.648-32.386-35.024-59.527-35.756-60.666C108.4,4.034,101.018,0,93.091,0
	S77.782,4.034,73.503,10.707c-0.732,1.139-18.108,28.281-35.756,60.666C3.913,133.458,0,157.775,0,170.667
	c0,51.33,41.761,93.091,93.091,93.091s93.091-41.761,93.091-93.091C186.182,157.775,182.269,133.458,148.435,71.373z"/>
<path style="fill:#8CB7E8;" d="M73.503,10.707c-0.732,1.139-18.108,28.281-35.756,60.666C3.914,133.458,0,157.775,0,170.667
	c0,51.332,41.761,93.091,93.091,93.091V0C85.164,0,77.782,4.034,73.503,10.707z"/>
<g>
</g>
<g>
</g>
<g>
</g>
<g>
</g>
<g>
</g>
<g>
</g>
<g>
</g>
<g>
</g>
<g>
</g>
<g>
</g>
<g>
</g>
<g>
</g>
<g>
</g>
<g>
</g>
<g>
</g>
</svg>
