<?xml version="1.0" encoding="iso-8859-1"?>
<!-- Generator: Adobe Illustrator 19.0.0, SVG Export Plug-In . SVG Version: 6.00 Build 0)  -->
<svg version="1.1" id="Layer_1" xmlns="http://www.w3.org/2000/svg" xmlns:xlink="http://www.w3.org/1999/xlink" x="0px" y="0px"
	 viewBox="0 0 495 495" style="enable-background:new 0 0 495 495;" xml:space="preserve">
<g>
	<path style="fill:#FFCD00;" d="M495,267.5v-40h-74.324c-3.799-33.108-16.904-63.424-36.634-88.257l52.61-52.61l-28.285-28.284
		l-52.609,52.609c-24.834-19.731-55.15-32.835-88.257-36.634V0h-40v74.324c6.565-0.753,13.236-1.154,20-1.154v70.33
		c57.438,0,104,46.562,104,104s-46.562,104-104,104v70.33c-6.764,0-13.435-0.401-20-1.154V495h40v-74.324
		c33.107-3.799,63.423-16.904,88.257-36.634l52.609,52.609l28.285-28.284l-52.61-52.61c19.731-24.833,32.835-55.149,36.634-88.257
		H495z"/>
	<path style="fill:#FFDA44;" d="M247.5,351.5c-57.438,0-104-46.562-104-104s46.562-104,104-104V73.17
		c-6.764,0-13.435,0.401-20,1.154c-33.107,3.799-63.423,16.904-88.257,36.634L86.634,58.349L58.349,86.633l52.61,52.61
		c-19.731,24.833-32.835,55.149-36.634,88.257H0v40h74.324c3.799,33.108,16.904,63.424,36.634,88.257l-52.61,52.61l28.285,28.284
		l52.609-52.609c24.834,19.731,55.15,32.835,88.257,36.634c6.565,0.753,13.236,1.154,20,1.154V351.5z"/>
	<path style="fill:#FF6243;" d="M143.5,247.5c0,57.438,46.562,104,104,104v-208C190.062,143.5,143.5,190.062,143.5,247.5z"/>
	<path style="fill:#FF3501;" d="M351.5,247.5c0-57.438-46.562-104-104-104v208C304.938,351.5,351.5,304.938,351.5,247.5z"/>
</g>
<g>
</g>
<g>
</g>
<g>
</g>
<g>
</g>
<g>
</g>
<g>
</g>
<g>
</g>
<g>
</g>
<g>
</g>
<g>
</g>
<g>
</g>
<g>
</g>
<g>
</g>
<g>
</g>
<g>
</g>
</svg>
