<?xml version="1.0" encoding="iso-8859-1"?>
<!-- Generator: Adobe Illustrator 19.0.0, SVG Export Plug-In . SVG Version: 6.00 Build 0)  -->
<svg version="1.1" id="Layer_1" xmlns="http://www.w3.org/2000/svg" xmlns:xlink="http://www.w3.org/1999/xlink" x="0px" y="0px"
	 viewBox="0 0 512 512" style="enable-background:new 0 0 512 512;" xml:space="preserve">
<polygon style="fill:#F8C963;" points="256.008,69.199 27.786,234.086 27.786,512 484.214,512 484.214,234.086 "/>
<path style="fill:#EFEFEF;" d="M85.361,0c-4.797,0-9.592,1.818-13.243,5.489c-3.666,3.661-5.491,8.443-5.491,13.243v357.417h378.757
	V18.729c0-4.8-1.823-9.582-5.489-13.243C436.247,1.818,431.442,0,426.66,0H85.361z"/>
<rect x="110.336" y="57.19" style="fill:#F67656;" width="167.219" height="167.194"/>
<g>
	<path style="fill:#FFFFFF;" d="M193.938,193.853c-29.266,0-53.074-23.8-53.074-53.079c0-29.261,23.808-53.061,53.074-53.061
		s53.074,23.8,53.074,53.061c0,3.469-2.796,6.252-6.241,6.252c-3.443,0-6.244-2.783-6.244-6.252
		c0-22.374-18.204-40.573-40.586-40.573c-22.374,0-40.579,18.199-40.579,40.573c0,22.4,18.204,40.591,40.579,40.591
		c7.173,0,14.188-1.869,20.291-5.417c2.982-1.72,6.81-0.704,8.54,2.278c1.731,2.982,0.712,6.799-2.271,8.522
		C212.49,191.401,203.308,193.853,193.938,193.853z"/>
	<path style="fill:#FFFFFF;" d="M193.938,170.46c-16.343,0-29.647-13.297-29.647-29.67c0-16.356,13.304-29.652,29.647-29.652
		c16.361,0,29.678,13.297,29.678,29.652C223.619,157.166,210.299,170.46,193.938,170.46z M193.938,123.628
		c-9.464,0-17.16,7.695-17.16,17.165c0,9.469,7.695,17.183,17.16,17.183c9.475,0,17.188-7.713,17.188-17.183
		C211.126,131.323,203.412,123.628,193.938,123.628z"/>
	<path style="fill:#FFFFFF;" d="M229.079,170.46c-4.792,0-9.29-1.861-12.687-5.243c-3.379-3.348-5.266-7.869-5.266-12.705V140.79
		c0-3.453,2.79-6.236,6.239-6.236c3.456,0,6.252,2.783,6.252,6.236v11.722c0,1.469,0.553,2.819,1.569,3.817
		c2.148,2.148,5.686,2.086,7.782,0.026c0.991-1.009,1.556-2.373,1.556-3.843V140.79c0-3.453,2.801-6.236,6.244-6.236
		c3.448,0,6.241,2.783,6.241,6.236v11.722c0,4.792-1.856,9.295-5.217,12.695C238.364,168.609,233.861,170.46,229.079,170.46z"/>
</g>
<g>
	<rect x="296.141" y="168.671" style="fill:#CCCBCA;" width="105.549" height="18.573"/>
	<rect x="296.141" y="205.798" style="fill:#CCCBCA;" width="105.549" height="18.573"/>
	<rect x="110.336" y="242.97" style="fill:#CCCBCA;" width="291.354" height="18.573"/>
	<rect x="110.336" y="280.115" style="fill:#CCCBCA;" width="167.219" height="18.573"/>
	<rect x="296.141" y="131.507" style="fill:#CCCBCA;" width="105.549" height="18.609"/>
	<rect x="296.141" y="94.331" style="fill:#CCCBCA;" width="105.549" height="18.601"/>
	<rect x="296.141" y="57.19" style="fill:#CCCBCA;" width="105.549" height="18.565"/>
</g>
<g>
	<polygon style="fill:#FAD97F;" points="484.214,234.086 484.214,512 256.008,373.076 	"/>
	<polygon style="fill:#FAD97F;" points="256.008,373.076 27.786,512 27.786,234.086 	"/>
</g>
<polygon style="fill:#F8C963;" points="484.214,512 27.786,512 256.008,373.076 "/>
<g>
</g>
<g>
</g>
<g>
</g>
<g>
</g>
<g>
</g>
<g>
</g>
<g>
</g>
<g>
</g>
<g>
</g>
<g>
</g>
<g>
</g>
<g>
</g>
<g>
</g>
<g>
</g>
<g>
</g>
</svg>
