<?xml version="1.0" encoding="iso-8859-1"?>
<!-- Generator: Adobe Illustrator 19.0.0, SVG Export Plug-In . SVG Version: 6.00 Build 0)  -->
<svg version="1.1" id="Layer_1" xmlns="http://www.w3.org/2000/svg" xmlns:xlink="http://www.w3.org/1999/xlink" x="0px" y="0px"
	 viewBox="0 0 512 512" style="enable-background:new 0 0 512 512;" xml:space="preserve">
<g>
	<polygon style="fill:#FF5F5F;" points="0,182.08 255.92,333.36 0,484.56 	"/>
	<polygon style="fill:#FF5F5F;" points="511.84,484.56 255.92,333.36 511.84,182.08 	"/>
</g>
<polygon style="fill:#FF8383;" points="0,484.56 511.84,484.56 255.92,333.36 "/>
<polygon style="fill:#EFEFEF;" points="46.32,27.52 46.32,209.04 256.16,333.6 465.68,209.6 465.68,27.44 "/>
<g>
	<polygon style="fill:#D84C4C;" points="0,182.08 46.16,147.2 46.16,209.36 	"/>
	<polygon style="fill:#D84C4C;" points="512,182.08 465.84,147.2 465.84,209.36 	"/>
</g>
<path style="fill:#002833;" d="M293.68,233.68c-13.52,7.12-27.36,9.84-43.84,9.84c-40.4,0-74.64-29.6-74.64-76.88
	c0-50.8,35.2-94.64,89.92-94.64c42.88,0,71.68,30.08,71.68,71.2c0,36.96-20.72,58.64-43.84,58.64c-9.84,0-18.96-6.64-18.24-21.68
	h-0.96c-8.64,14.56-20,21.68-34.72,21.68c-14.32,0-26.64-11.6-26.64-31.04c0-30.56,24.16-58.4,58.4-58.4c10.56,0,20,2.24,26.4,5.2
	l-8.4,44.64c-3.68,18.72-0.72,27.36,7.36,27.6c12.56,0.24,26.64-16.48,26.64-45.12c0-35.76-21.44-61.36-59.6-61.36
	c-40.16,0-73.92,31.76-73.92,81.76c0,41.12,26.88,66.56,63.28,66.56c14.08,0,27.12-2.96,37.2-8.64L293.68,233.68z M280.16,127.2
	c-2.48-0.72-6.64-1.76-12.32-1.76c-21.68,0-39.2,20.48-39.2,44.32c0,10.8,5.44,18.72,16.24,18.72c14.32,0,27.36-18.24,30.08-33.52
	L280.16,127.2z"/>
<g>
</g>
<g>
</g>
<g>
</g>
<g>
</g>
<g>
</g>
<g>
</g>
<g>
</g>
<g>
</g>
<g>
</g>
<g>
</g>
<g>
</g>
<g>
</g>
<g>
</g>
<g>
</g>
<g>
</g>
</svg>
