<?xml version="1.0" encoding="iso-8859-1"?>
<!-- Generator: Adobe Illustrator 19.0.0, SVG Export Plug-In . SVG Version: 6.00 Build 0)  -->
<svg version="1.1" id="Layer_1" xmlns="http://www.w3.org/2000/svg" xmlns:xlink="http://www.w3.org/1999/xlink" x="0px" y="0px"
	 viewBox="0 0 512.001 512.001" style="enable-background:new 0 0 512.001 512.001;" xml:space="preserve">
<path style="fill:#FFDA79;" d="M494.933,429.559H17.067C7.641,429.559,0,421.918,0,412.493V99.407
	C0,89.982,7.641,82.34,17.067,82.34h477.867c9.425,0,17.067,7.641,17.067,17.067v313.086
	C512,421.918,504.359,429.559,494.933,429.559z"/>
<g>
	<path style="fill:#FFD155;" d="M494.933,82.34H256v347.219h238.933c9.425,0,17.067-7.641,17.067-17.067V99.407
		C512,89.982,504.359,82.34,494.933,82.34z"/>
	<path style="fill:#FFD155;" d="M512,99.407c0-9.425-7.641-17.067-17.067-17.067h-5.093L256,235.547L22.159,82.34h-5.093
		C7.641,82.34,0,89.982,0,99.407v9.222l150.435,98.561L0,406.782v5.711c0,9.425,7.641,17.067,17.067,17.067h8.508l153.473-203.624
		l67.599,44.289c5.681,3.722,13.026,3.722,18.706,0l67.6-44.289l153.474,203.624c3.243,0,25.574,2.469,25.574-17.067v-5.712
		L361.565,207.19L512,108.63V99.407z"/>
</g>
<path style="fill:#FFC72D;" d="M512,99.407c0-9.425-7.641-17.067-17.067-17.067h-5.093L256,235.547v37.47
	c3.256,0,6.514-0.931,9.354-2.791l67.6-44.289L486.427,429.56c3.243,0,25.574,2.469,25.574-17.067v-5.712L361.565,207.19L512,108.63
	V99.407z"/>
<g>
</g>
<g>
</g>
<g>
</g>
<g>
</g>
<g>
</g>
<g>
</g>
<g>
</g>
<g>
</g>
<g>
</g>
<g>
</g>
<g>
</g>
<g>
</g>
<g>
</g>
<g>
</g>
<g>
</g>
</svg>
