<?xml version="1.0" encoding="iso-8859-1"?>
<!-- Generator: Adobe Illustrator 19.0.0, SVG Export Plug-In . SVG Version: 6.00 Build 0)  -->
<svg version="1.1" id="Layer_1" xmlns="http://www.w3.org/2000/svg" xmlns:xlink="http://www.w3.org/1999/xlink" x="0px" y="0px"
	 viewBox="0 0 512 512" style="enable-background:new 0 0 512 512;" xml:space="preserve">
<path style="fill:#F1F2F2;" d="M494.933,401.335H17.067C7.641,401.335,0,393.694,0,384.268V71.183
	c0-9.426,7.641-17.067,17.067-17.067h477.867c9.426,0,17.067,7.641,17.067,17.067v313.085
	C512,393.694,504.359,401.335,494.933,401.335z"/>
<g>
	<path style="fill:#E6E7E8;" d="M494.933,54.116H256v347.218h238.933c9.426,0,17.067-7.641,17.067-17.067V71.183
		C512,61.757,504.359,54.116,494.933,54.116z"/>
	<path style="fill:#E6E7E8;" d="M512,71.183c0-9.426-7.641-17.067-17.067-17.067h-5.093L256,207.323L22.159,54.116h-5.093
		C7.641,54.116,0,61.757,0,71.183v9.222l150.435,98.561L0,378.557v5.711c0,9.426,7.641,17.067,17.067,17.067h8.508l153.472-203.623
		l67.6,44.289c5.681,3.721,13.027,3.721,18.706,0l67.6-44.289l153.474,203.623h8.507c9.426,0,17.067-7.641,17.067-17.067v-5.712
		l-150.435-199.59L512,80.405V71.183z"/>
</g>
<path style="fill:#D1D3D4;" d="M512,71.183c0-9.426-7.641-17.067-17.067-17.067h-5.093L256,207.323v37.47
	c3.257,0,6.513-0.931,9.353-2.792l67.599-44.289l153.474,203.623h8.507c9.426,0,17.067-7.641,17.067-17.067v-5.712L361.565,178.966
	L512,80.405V71.183z"/>
<path style="fill:#80D0E1;" d="M292.718,452.625L256,415.908l-36.718,36.718c-11.233,11.232-30.56,3.281-30.56-12.658V275.645
	c0-15.976,19.424-23.928,30.633-12.585c9.745,9.858,22.757,15.287,36.64,15.287c13.89,0,26.906-5.429,36.652-15.287
	c5.104-5.163,12.82-6.734,19.535-3.974c6.715,2.758,11.099,9.3,11.099,16.559v164.322
	C323.28,455.941,303.918,463.827,292.718,452.625z"/>
<path style="fill:#51B3DA;" d="M312.18,259.086c-6.714-2.759-14.43-1.189-19.535,3.974c-9.743,9.857-22.758,15.285-36.646,15.286
	v137.561l36.718,36.718c11.2,11.202,30.561,3.314,30.561-12.658V275.645C323.28,268.385,318.895,261.845,312.18,259.086z"/>
<path style="fill:#FFDA79;" d="M256.006,314.152c-69.545,0-110.967-77.632-73.091-135.292c16.205-24.707,43.527-39.465,73.08-39.465
	c29.56,0,56.886,14.757,73.098,39.475c22.485,34.23,17.866,80.225-10.984,109.362l0,0
	C301.585,304.946,279.529,314.152,256.006,314.152z"/>
<path style="fill:#FFD155;" d="M329.092,178.869c-16.211-24.717-43.534-39.474-73.092-39.475V314.15c0.002,0,0.004,0,0.006,0
	c23.523,0,45.579-9.205,62.102-25.921C346.958,259.094,351.577,213.099,329.092,178.869z"/>
<g>
</g>
<g>
</g>
<g>
</g>
<g>
</g>
<g>
</g>
<g>
</g>
<g>
</g>
<g>
</g>
<g>
</g>
<g>
</g>
<g>
</g>
<g>
</g>
<g>
</g>
<g>
</g>
<g>
</g>
</svg>
