<?xml version="1.0" encoding="iso-8859-1"?>
<!-- Generator: Adobe Illustrator 19.0.0, SVG Export Plug-In . SVG Version: 6.00 Build 0)  -->
<svg version="1.1" id="Layer_1" xmlns="http://www.w3.org/2000/svg" xmlns:xlink="http://www.w3.org/1999/xlink" x="0px" y="0px"
	 viewBox="0 0 512 512" style="enable-background:new 0 0 512 512;" xml:space="preserve">
<path style="fill:#D2BA9C;" d="M112.417,96c0,0.568,0.012,1.129,0.017,1.694L111.304,96H83.478C37.448,96,0,133.448,0,179.478
	s37.448,83.478,83.478,83.478h71.869c7.376,24.562,12.722,50.036,12.722,77.913L279.374,352L257.113,96H112.417z M83.478,229.565
	c-27.618,0-50.087-22.469-50.087-50.087s22.469-50.087,50.087-50.087h31.441c5.213,35.439,17.729,67.596,29.308,100.174H83.478z"/>
<path style="fill:#BD9F79;" d="M401.809,96H257.113v256l89.043-11.13C346.156,250.907,401.809,185.963,401.809,96z"/>
<polygon style="fill:#F9EBDB;" points="36.174,349.217 58.76,416 255.443,416 277.704,349.217 "/>
<g>
	<polygon style="fill:#E8D6BD;" points="255.443,349.217 255.443,416 453.704,416 475.826,349.217 	"/>
	<polygon style="fill:#E8D6BD;" points="0,332.522 0,365.913 255.722,365.913 266.991,349.217 256,332.522 	"/>
</g>
<rect x="256" y="332.522" style="fill:#D2BA9C;" width="256" height="33.391"/>
<g>
</g>
<g>
</g>
<g>
</g>
<g>
</g>
<g>
</g>
<g>
</g>
<g>
</g>
<g>
</g>
<g>
</g>
<g>
</g>
<g>
</g>
<g>
</g>
<g>
</g>
<g>
</g>
<g>
</g>
</svg>
