<?xml version="1.0" encoding="iso-8859-1"?>
<!-- Generator: Adobe Illustrator 19.0.0, SVG Export Plug-In . SVG Version: 6.00 Build 0)  -->
<svg version="1.1" id="Layer_1" xmlns="http://www.w3.org/2000/svg" xmlns:xlink="http://www.w3.org/1999/xlink" x="0px" y="0px"
	 viewBox="0 0 511.999 511.999" style="enable-background:new 0 0 511.999 511.999;" xml:space="preserve">
<path style="fill:#FFDA79;" d="M256.001,390.462c-74.142,0-134.461-60.32-134.461-134.461s60.32-134.461,134.461-134.461
	s134.461,60.32,134.461,134.461S330.143,390.462,256.001,390.462z"/>
<g>
	<path style="fill:#FFD155;" d="M256.001,121.539v268.922c74.142,0,134.461-60.32,134.461-134.461S330.143,121.539,256.001,121.539z
		"/>
	<path style="fill:#FFD155;" d="M252.026,307.755c-17.347-0.578-31.515-9.541-31.515-18.794c0-4.915,4.337-12.143,9.83-12.143
		c6.071,0,10.987,8.53,21.685,10.408v-23.419c-13.299-5.06-28.913-11.276-28.913-29.781c0-18.359,13.589-27.178,28.913-29.346
		v-4.048c0-2.024,2.313-3.904,5.493-3.904c2.747,0,5.494,1.88,5.494,3.904v3.614c8.962,0.289,25.877,2.602,25.877,12.577
		c0,3.904-2.602,11.854-8.963,11.854c-4.771,0-7.517-4.626-16.914-5.349v21.107c13.155,4.915,28.479,11.71,28.479,31.226
		c0,17.927-11.565,28.768-28.479,31.515v4.193c0,2.024-2.748,3.904-5.494,3.904c-3.18,0-5.493-1.878-5.493-3.904V307.755z
		 M253.472,240.966v-17.203c-6.506,1.302-9.252,4.626-9.252,8.095C244.219,236.051,247.977,238.653,253.472,240.966z
		 M261.567,267.71v19.372c4.915-1.157,8.819-3.904,8.819-9.108C270.386,273.204,266.771,270.168,261.567,267.71z"/>
</g>
<path style="fill:#C7E9F4;" d="M451.517,36.757L391.822,2.291c-8.163-4.715-18.6-1.917-23.313,6.246
	c-4.713,8.162-1.916,18.6,6.246,23.313l4.537,2.619H256.001c-9.425,0-17.066,7.641-17.066,17.066v36.658
	c0,9.425,7.641,17.066,17.066,17.066c9.425,0,17.066-7.641,17.066-17.066v-19.59h106.224l-4.536,2.619
	c-8.162,4.713-10.959,15.15-6.246,23.313c4.716,8.169,15.157,10.957,23.313,6.246l59.696-34.465
	C462.873,59.762,462.871,43.309,451.517,36.757z"/>
<path style="fill:#65C6BB;" d="M256.001,406.741c-9.425,0-17.066,7.641-17.066,17.066v19.591H132.711l4.536-2.619
	c8.162-4.713,10.959-15.15,6.246-23.313c-4.713-8.162-15.15-10.96-23.313-6.246l-59.696,34.465c-11.23,6.482-11.486,22.93,0,29.559
	l59.696,34.465c8.158,4.711,18.598,1.919,23.313-6.246c4.713-8.162,1.916-18.6-6.246-23.313l-4.536-2.619h123.291
	c9.425,0,17.066-7.641,17.066-17.066v-36.658C273.067,414.382,265.426,406.741,256.001,406.741z"/>
<path style="fill:#FFC72D;" d="M263.013,244.436v-21.107c9.397,0.722,12.143,5.349,16.914,5.349c6.361,0,8.963-7.951,8.963-11.854
	c0-9.975-16.914-12.288-25.877-12.577v-3.614c0-2.024-2.748-3.904-5.494-3.904c-0.537,0-1.038,0.071-1.518,0.17v118.204
	c0.48,0.099,0.981,0.17,1.518,0.17c2.747,0,5.494-1.878,5.494-3.904v-4.193c16.914-2.747,28.479-13.588,28.479-31.515
	C291.492,256.146,276.168,249.351,263.013,244.436z M261.567,287.082V267.71c5.204,2.458,8.819,5.494,8.819,10.264
	C270.386,283.179,266.482,285.926,261.567,287.082z"/>
<path style="fill:#80D0E1;" d="M451.517,36.757L391.822,2.291c-8.163-4.715-18.6-1.917-23.313,6.246
	c-4.713,8.162-1.916,18.6,6.246,23.313l4.537,2.619H256.001v70.79c9.425,0,17.066-7.641,17.066-17.066v-19.59h106.224l-4.536,2.619
	c-8.162,4.713-10.959,15.15-6.246,23.313c4.716,8.169,15.157,10.956,23.313,6.246l59.696-34.465
	C462.873,59.762,462.871,43.309,451.517,36.757z"/>
<path style="fill:#20B8AE;" d="M256.001,406.741v70.79c9.425,0,17.066-7.641,17.066-17.066v-36.658
	C273.067,414.382,265.426,406.741,256.001,406.741z"/>
<g>
</g>
<g>
</g>
<g>
</g>
<g>
</g>
<g>
</g>
<g>
</g>
<g>
</g>
<g>
</g>
<g>
</g>
<g>
</g>
<g>
</g>
<g>
</g>
<g>
</g>
<g>
</g>
<g>
</g>
</svg>
