<?xml version="1.0" encoding="iso-8859-1"?>
<!-- Generator: Adobe Illustrator 19.0.0, SVG Export Plug-In . SVG Version: 6.00 Build 0)  -->
<svg version="1.1" id="Capa_1" xmlns="http://www.w3.org/2000/svg" xmlns:xlink="http://www.w3.org/1999/xlink" x="0px" y="0px"
	 viewBox="0 0 340 340" style="enable-background:new 0 0 340 340;" xml:space="preserve">
<g id="XMLID_476_">
	<polygon id="XMLID_479_" style="fill:#DEDFE8;" points="315,279.411 315,0 25,0 25,340 250,340 	"/>
	<polygon id="XMLID_483_" style="fill:#C9C7D7;" points="170,0 170,340 250,340 315,280 315,0 	"/>
	<g id="XMLID_484_">
		<g id="XMLID_486_">
			<path id="XMLID_487_" style="fill:#6DA8D6;" d="M170,212.97c-30.958,0-56.144-25.186-56.144-56.144v-28.602
				c0-30.958,25.186-56.144,56.144-56.144s56.144,25.186,56.144,56.144v28.602C226.144,187.784,200.958,212.97,170,212.97z
				 M170,105.766c-12.384,0-22.458,10.075-22.458,22.458v28.602c0,12.383,10.074,22.458,22.458,22.458
				c12.384,0,22.458-10.075,22.458-22.458v-28.602C192.458,115.841,182.384,105.766,170,105.766z"/>
		</g>
		<rect id="XMLID_41_" x="99.118" y="148.133" style="fill:#F9E375;" width="141.765" height="99.788"/>
		<path id="XMLID_494_" style="fill:#2974A8;" d="M170,72.079v33.687c12.384,0,22.458,10.075,22.458,22.458v28.602
			c0,12.383-10.074,22.458-22.458,22.458v33.687c30.958,0,56.144-25.186,56.144-56.144v-28.602
			C226.144,97.265,200.958,72.079,170,72.079z"/>
		<rect id="XMLID_497_" x="170" y="148.133" style="fill:#F5D361;" width="70.882" height="99.788"/>
	</g>
	<polygon id="XMLID_501_" style="fill:#A4A5B5;" points="250,280 315,280 250,340 	"/>
</g>
<g>
</g>
<g>
</g>
<g>
</g>
<g>
</g>
<g>
</g>
<g>
</g>
<g>
</g>
<g>
</g>
<g>
</g>
<g>
</g>
<g>
</g>
<g>
</g>
<g>
</g>
<g>
</g>
<g>
</g>
</svg>
