<?xml version="1.0" encoding="iso-8859-1"?>
<!-- Generator: Adobe Illustrator 19.0.0, SVG Export Plug-In . SVG Version: 6.00 Build 0)  -->
<svg version="1.1" id="Layer_1" xmlns="http://www.w3.org/2000/svg" xmlns:xlink="http://www.w3.org/1999/xlink" x="0px" y="0px"
	 viewBox="0 0 512.002 512.002" style="enable-background:new 0 0 512.002 512.002;" xml:space="preserve">
<path style="fill:#BDFDFF;" d="M29.771,256C10.275,294.188-0.002,336.72,0,379.9c0,13.685,11.095,24.78,24.782,24.78
	c13.685,0,24.778-11.095,24.778-24.78c-0.002-25.451,4.371-50.617,12.755-74.375c30.398,36.792,70.134,65.295,115.167,82.066
	c0.01,0.003,0.02,0.007,0.03,0.012c30.445,11.333,62.429,17.08,95.069,17.08c17.08,0,34.287-1.631,51.154-4.837
	c0.008-0.002,0.018-0.002,0.026-0.003c0.177-0.03,0.354-0.061,0.529-0.096c77.512-14.898,144.717-62.768,184.381-131.335
	c2.22-3.838,3.329-8.123,3.329-12.406c0-4.285-1.11-8.572-3.33-12.41C469.028,175.07,401.883,127.219,324.436,112.29
	c-0.035-0.007-0.069-0.01-0.106-0.017c-0.02-0.003-0.038-0.01-0.058-0.015c-23.209-4.459-47.113-5.884-70.426-4.3
	c-75.356,5.123-144.266,41.135-191.537,98.494c-8.379-23.752-12.747-48.909-12.748-74.353c0-13.685-11.095-24.78-24.782-24.78
	C11.093,107.32,0,118.415,0,132.1c0.002,43.183,10.28,85.715,29.772,123.898C29.771,255.998,29.771,256,29.771,256"/>
<path id="SVGCleanerId_0" style="fill:#B3D8F4;" d="M319.587,400.191c-8.942,0-17.301-4.847-21.696-12.824
	c-1.522-2.762-2.984-5.556-4.406-8.369c-4.976-9.838-9.347-19.966-13.082-30.327c-0.15-0.415-0.289-0.833-0.436-1.247
	c-0.714-2.009-1.403-4.028-2.07-6.053c-0.244-0.753-0.487-1.507-0.729-2.26c-0.596-1.867-1.171-3.742-1.726-5.622
	c-0.18-0.615-0.372-1.226-0.548-1.84c-0.7-2.43-1.368-4.87-2.001-7.318c-0.145-0.568-0.279-1.138-0.423-1.707
	c-0.487-1.944-0.955-3.892-1.403-5.848c-0.177-0.778-0.352-1.556-0.522-2.338c-0.439-2.002-0.854-4.009-1.247-6.023
	c-0.104-0.524-0.215-1.046-0.314-1.571c-0.472-2.49-0.907-4.989-1.31-7.492c-0.107-0.659-0.2-1.322-0.301-1.981
	c-0.297-1.926-0.572-3.856-0.826-5.79c-0.104-0.776-0.203-1.551-0.301-2.329c-0.273-2.219-0.52-4.441-0.738-6.667
	c-0.033-0.339-0.074-0.674-0.106-1.011c-0.24-2.542-0.436-5.088-0.603-7.637c-0.046-0.717-0.084-1.432-0.126-2.148
	c-0.111-1.936-0.203-3.874-0.274-5.813c-0.028-0.75-0.058-1.498-0.079-2.25c-0.073-2.572-0.122-5.146-0.122-7.723H29.771
	C10.275,294.188-0.002,336.72,0,379.9c0,13.685,11.095,24.78,24.782,24.78c13.685,0,24.778-11.095,24.778-24.78
	c-0.002-25.451,4.371-50.617,12.755-74.375c30.398,36.792,70.134,65.295,115.167,82.066c0.01,0.003,0.02,0.007,0.03,0.012
	c30.445,11.333,62.429,17.08,95.069,17.08c17.08,0,34.287-1.631,51.154-4.837c-0.319,0.055-0.654,0.104-0.978,0.145
	C321.697,400.125,320.638,400.191,319.587,400.191z"/>
<path id="SVGCleanerId_1" style="fill:#78B9EB;" d="M264.323,248.277c0.021-0.752,0.05-1.502,0.079-2.252
	c0.071-1.938,0.164-3.876,0.274-5.81c0.041-0.717,0.079-1.436,0.126-2.151c0.168-2.549,0.365-5.093,0.603-7.634
	c0.031-0.342,0.074-0.682,0.107-1.024c0.218-2.222,0.466-4.439,0.737-6.653c0.096-0.781,0.197-1.561,0.301-2.341
	c0.254-1.928,0.529-3.852,0.823-5.772c0.104-0.666,0.197-1.335,0.306-1.999c0.401-2.501,0.834-4.994,1.305-7.482
	c0.104-0.534,0.216-1.066,0.319-1.599c0.392-2.001,0.805-3.998,1.242-5.988c0.172-0.788,0.349-1.576,0.527-2.362
	c0.443-1.939,0.909-3.874,1.393-5.803c0.145-0.582,0.284-1.166,0.433-1.746c0.631-2.443,1.297-4.875,1.994-7.297
	c0.18-0.631,0.377-1.257,0.562-1.887c0.552-1.86,1.12-3.717,1.71-5.566c0.245-0.768,0.492-1.536,0.743-2.305
	c0.658-1.997,1.338-3.988,2.04-5.969c0.155-0.443,0.304-0.887,0.461-1.328c3.735-10.355,8.105-20.478,13.077-30.311
	c1.422-2.813,2.884-5.607,4.406-8.369c5.215-9.471,15.924-14.419,26.437-12.362c-0.02-0.003-0.038-0.01-0.058-0.015
	c-23.209-4.459-47.113-5.884-70.426-4.3c-75.356,5.123-144.266,41.135-191.537,98.494c-8.376-23.747-12.744-48.904-12.745-74.348
	c0-13.685-11.095-24.78-24.782-24.78C11.093,107.32,0,118.415,0,132.1c0.002,43.183,10.28,85.715,29.772,123.898V256h234.43
	C264.2,253.424,264.25,250.851,264.323,248.277z"/>
<g>
	<path id="SVGCleanerId_0_1_" style="fill:#B3D8F4;" d="M319.587,400.191c-8.942,0-17.301-4.847-21.696-12.824
		c-1.522-2.762-2.984-5.556-4.406-8.369c-4.976-9.838-9.347-19.966-13.082-30.327c-0.15-0.415-0.289-0.833-0.436-1.247
		c-0.714-2.009-1.403-4.028-2.07-6.053c-0.244-0.753-0.487-1.507-0.729-2.26c-0.596-1.867-1.171-3.742-1.726-5.622
		c-0.18-0.615-0.372-1.226-0.548-1.84c-0.7-2.43-1.368-4.87-2.001-7.318c-0.145-0.568-0.279-1.138-0.423-1.707
		c-0.487-1.944-0.955-3.892-1.403-5.848c-0.177-0.778-0.352-1.556-0.522-2.338c-0.439-2.002-0.854-4.009-1.247-6.023
		c-0.104-0.524-0.215-1.046-0.314-1.571c-0.472-2.49-0.907-4.989-1.31-7.492c-0.107-0.659-0.2-1.322-0.301-1.981
		c-0.297-1.926-0.572-3.856-0.826-5.79c-0.104-0.776-0.203-1.551-0.301-2.329c-0.273-2.219-0.52-4.441-0.738-6.667
		c-0.033-0.339-0.074-0.674-0.106-1.011c-0.24-2.542-0.436-5.088-0.603-7.637c-0.046-0.717-0.084-1.432-0.126-2.148
		c-0.111-1.936-0.203-3.874-0.274-5.813c-0.028-0.75-0.058-1.498-0.079-2.25c-0.073-2.572-0.122-5.146-0.122-7.723H29.771
		C10.275,294.188-0.002,336.72,0,379.9c0,13.685,11.095,24.78,24.782,24.78c13.685,0,24.778-11.095,24.778-24.78
		c-0.002-25.451,4.371-50.617,12.755-74.375c30.398,36.792,70.134,65.295,115.167,82.066c0.01,0.003,0.02,0.007,0.03,0.012
		c30.445,11.333,62.429,17.08,95.069,17.08c17.08,0,34.287-1.631,51.154-4.837c-0.319,0.055-0.654,0.104-0.978,0.145
		C321.697,400.125,320.638,400.191,319.587,400.191z"/>
</g>
<g>
	<path id="SVGCleanerId_1_1_" style="fill:#78B9EB;" d="M264.323,248.277c0.021-0.752,0.05-1.502,0.079-2.252
		c0.071-1.938,0.164-3.876,0.274-5.81c0.041-0.717,0.079-1.436,0.126-2.151c0.168-2.549,0.365-5.093,0.603-7.634
		c0.031-0.342,0.074-0.682,0.107-1.024c0.218-2.222,0.466-4.439,0.737-6.653c0.096-0.781,0.197-1.561,0.301-2.341
		c0.254-1.928,0.529-3.852,0.823-5.772c0.104-0.666,0.197-1.335,0.306-1.999c0.401-2.501,0.834-4.994,1.305-7.482
		c0.104-0.534,0.216-1.066,0.319-1.599c0.392-2.001,0.805-3.998,1.242-5.988c0.172-0.788,0.349-1.576,0.527-2.362
		c0.443-1.939,0.909-3.874,1.393-5.803c0.145-0.582,0.284-1.166,0.433-1.746c0.631-2.443,1.297-4.875,1.994-7.297
		c0.18-0.631,0.377-1.257,0.562-1.887c0.552-1.86,1.12-3.717,1.71-5.566c0.245-0.768,0.492-1.536,0.743-2.305
		c0.658-1.997,1.338-3.988,2.04-5.969c0.155-0.443,0.304-0.887,0.461-1.328c3.735-10.355,8.105-20.478,13.077-30.311
		c1.422-2.813,2.884-5.607,4.406-8.369c5.215-9.471,15.924-14.419,26.437-12.362c-0.02-0.003-0.038-0.01-0.058-0.015
		c-23.209-4.459-47.113-5.884-70.426-4.3c-75.356,5.123-144.266,41.135-191.537,98.494c-8.376-23.747-12.744-48.904-12.745-74.348
		c0-13.685-11.095-24.78-24.782-24.78C11.093,107.32,0,118.415,0,132.1c0.002,43.183,10.28,85.715,29.772,123.898V256h234.43
		C264.2,253.424,264.25,250.851,264.323,248.277z"/>
</g>
<path style="fill:#9BC9FF;" d="M508.668,243.59c-39.641-68.525-106.787-116.377-184.234-131.306
	c-0.035-0.007-0.069-0.01-0.106-0.017c-10.513-2.055-21.222,2.891-26.437,12.362c-1.522,2.762-2.984,5.557-4.406,8.369
	c-4.973,9.833-9.342,19.956-13.077,30.311c-0.159,0.441-0.307,0.887-0.461,1.328c-0.704,1.981-1.384,3.97-2.04,5.969
	c-0.251,0.767-0.499,1.535-0.743,2.305c-0.59,1.85-1.158,3.705-1.71,5.566c-0.185,0.629-0.38,1.256-0.562,1.887
	c-0.697,2.422-1.363,4.854-1.994,7.297c-0.149,0.58-0.287,1.165-0.433,1.746c-0.484,1.93-0.95,3.864-1.393,5.803
	c-0.178,0.786-0.357,1.574-0.527,2.362c-0.438,1.992-0.851,3.988-1.242,5.988c-0.104,0.534-0.216,1.066-0.319,1.599
	c-0.471,2.486-0.904,4.981-1.305,7.482c-0.107,0.664-0.202,1.333-0.306,1.999c-0.294,1.92-0.568,3.844-0.823,5.772
	c-0.104,0.78-0.205,1.559-0.301,2.341c-0.271,2.214-0.52,4.432-0.737,6.653c-0.035,0.342-0.076,0.682-0.107,1.024
	c-0.24,2.541-0.436,5.085-0.603,7.634c-0.046,0.717-0.084,1.434-0.126,2.151c-0.111,1.934-0.203,3.872-0.274,5.81
	c-0.028,0.75-0.058,1.5-0.079,2.252c-0.073,2.572-0.122,5.146-0.122,7.723h247.799C512,251.715,510.89,247.429,508.668,243.59z"/>
<g>
</g>
<g>
</g>
<g>
</g>
<g>
</g>
<g>
</g>
<g>
</g>
<g>
</g>
<g>
</g>
<g>
</g>
<g>
</g>
<g>
</g>
<g>
</g>
<g>
</g>
<g>
</g>
<g>
</g>
</svg>
