<?xml version="1.0" encoding="iso-8859-1"?>
<!-- Generator: Adobe Illustrator 19.0.0, SVG Export Plug-In . SVG Version: 6.00 Build 0)  -->
<svg version="1.1" id="Layer_1" xmlns="http://www.w3.org/2000/svg" xmlns:xlink="http://www.w3.org/1999/xlink" x="0px" y="0px"
	 viewBox="0 0 512.001 512.001" style="enable-background:new 0 0 512.001 512.001;" xml:space="preserve">
<path style="fill:#2D2D30;" d="M148.795,327.05c0-4.234-1.683-8.296-4.676-11.29l-34.349-34.348c-6.236-6.236-16.344-6.236-22.58,0
	L53.322,315.28c-2.994,2.994-4.676,7.055-4.676,11.29c0,4.233,1.683,8.296,4.676,11.29l34.349,34.349
	c2.994,2.995,7.055,4.676,11.29,4.676s8.296-1.681,11.29-4.676l33.869-33.869C147.112,335.346,148.795,331.284,148.795,327.05z"/>
<path style="fill:#898890;" d="M308.333,282.856c0-4.086-1.559-8.173-4.676-11.29l-63.221-63.222
	c-2.994-2.995-7.055-4.676-11.29-4.676c-4.234,0-8.296,1.681-11.29,4.676L17.77,408.429c-11.459,11.459-17.77,26.695-17.77,42.9
	c0,16.205,6.311,31.441,17.77,42.9S44.466,512,60.671,512c16.206,0,31.442-6.311,42.9-17.77l200.085-200.085
	C306.774,291.029,308.333,286.943,308.333,282.856z"/>
<g>
	<path style="fill:#57565C;" d="M308.333,282.856c0-4.086-1.559-8.173-4.676-11.29l-31.55-31.551L17.832,494.29
		c11.453,11.421,26.662,17.712,42.839,17.712c16.206,0,31.442-6.311,42.9-17.77l200.085-200.085
		C306.774,291.029,308.333,286.943,308.333,282.856z"/>
	<path style="fill:#57565C;" d="M381.608,268.205c0-4.234-1.683-8.296-4.676-11.29L255.087,135.069
		c-2.994-2.995-7.055-4.676-11.29-4.676c-4.234,0-8.296,1.681-11.29,4.676l-27.004,27.004
		c-19.289,19.289-29.912,44.934-29.912,72.212s10.622,52.924,29.911,72.213c39.818,39.818,104.607,39.818,144.425,0l27.004-27.004
		C379.925,276.501,381.608,272.439,381.608,268.205z"/>
</g>
<path style="fill:#FFDA44;" d="M475.764,52.203c0,4.086-1.559,8.173-4.676,11.29l-80.797,80.797c-6.236,6.236-16.344,6.236-22.58,0
	c-6.236-6.234-6.236-16.345,0-22.58l80.797-80.797c6.236-6.236,16.344-6.236,22.58,0C474.205,44.031,475.764,48.116,475.764,52.203z
	"/>
<path style="fill:#FFCD00;" d="M512.001,169.238c0,8.818-7.149,15.966-15.966,15.966h-80.797c-8.818,0-15.966-7.149-15.966-15.966
	c0-8.818,7.149-15.966,15.966-15.966h80.797C504.852,153.271,512.001,160.42,512.001,169.238z"/>
<path style="fill:#FFDA44;" d="M358.73,96.763V15.966C358.73,7.149,351.581,0,342.763,0s-15.966,7.149-15.966,15.966v80.797
	c0,8.818,7.149,15.966,15.966,15.966C351.581,112.731,358.73,105.582,358.73,96.763z"/>
<path style="fill:#FFCD00;" d="M475.764,52.203c0-4.059-1.542-8.117-4.619-11.227L367.774,144.347
	c6.24,6.175,16.302,6.158,22.517-0.057l80.797-80.797C474.205,60.375,475.764,56.289,475.764,52.203z"/>
<path style="fill:#3E3D42;" d="M381.608,268.205c0-4.234-1.683-8.296-4.676-11.29l-60.923-60.923L205.502,306.498
	c39.818,39.818,104.607,39.818,144.425,0l27.004-27.004C379.925,276.501,381.608,272.439,381.608,268.205z"/>
<path style="fill:#ACABB1;" d="M420.75,245.157c0-11.145-4.34-21.623-12.221-29.505L296.349,103.471
	c-7.881-7.881-18.359-12.222-29.505-12.222s-21.624,4.341-29.506,12.222c-7.881,7.881-12.221,18.359-12.221,29.505
	s4.34,21.624,12.221,29.505l112.181,112.181c16.269,16.268,42.741,16.268,59.01,0C416.411,266.781,420.75,256.303,420.75,245.157z"
	/>
<path style="fill:#898890;" d="M420.75,245.157c0-11.145-4.34-21.623-12.221-29.505l-56.03-56.03l-59.01,59.01l56.03,56.031
	c16.269,16.268,42.741,16.268,59.01,0C416.411,266.781,420.75,256.303,420.75,245.157z"/>
<path style="fill:#57565C;" d="M174.252,327.886c-4.605-4.606-12.072-4.606-16.677,0L95.07,390.39
	c-4.606,4.605-4.606,12.072,0,16.677l5.035,5.035l79.181-79.181L174.252,327.886z"/>
<path style="fill:#49484C;" d="M122.386,417.704L184.89,355.2c4.606-4.606,4.606-12.072,0-16.677l-5.603-5.603L100.106,412.1
	l5.603,5.603C110.314,422.31,117.781,422.31,122.386,417.704z"/>
<g>
</g>
<g>
</g>
<g>
</g>
<g>
</g>
<g>
</g>
<g>
</g>
<g>
</g>
<g>
</g>
<g>
</g>
<g>
</g>
<g>
</g>
<g>
</g>
<g>
</g>
<g>
</g>
<g>
</g>
</svg>
