<?xml version="1.0" encoding="iso-8859-1"?>
<!-- Generator: Adobe Illustrator 19.0.0, SVG Export Plug-In . SVG Version: 6.00 Build 0)  -->
<svg version="1.1" id="Layer_1" xmlns="http://www.w3.org/2000/svg" xmlns:xlink="http://www.w3.org/1999/xlink" x="0px" y="0px"
	 viewBox="0 0 512 512" style="enable-background:new 0 0 512 512;" xml:space="preserve">
<path style="fill:#C61469;" d="M270.26,86.371c-3.764-6.929-8.585-13.202-14.26-18.589c-12.375-11.748-28.756-19.313-46.862-20.382
	C198.299,19.507,171.267,0,139.636,0S80.974,19.507,70.135,47.4C31.071,49.704,0,82.213,0,121.847
	c0,22.606,10.38,43.664,27.266,57.606c-1.597,6.116-2.416,12.449-2.416,18.873c0,41.123,33.455,74.58,74.575,74.58
	c5.778,0,11.45-0.667,16.936-1.938c8.29-1.919,16.15-5.229,23.273-9.801c7.123,4.572,14.983,7.882,23.273,9.801
	c5.486,1.269,11.159,1.938,16.936,1.938c41.123,0,74.578-33.457,74.578-74.58c0-6.425-0.818-12.758-2.417-18.876
	c1.381-1.14,2.701-2.343,3.992-3.576c5.682-5.421,10.494-11.691,14.23-18.576c5.803-10.687,9.045-22.826,9.045-35.451
	C279.273,109.008,275.997,96.929,270.26,86.371z"/>
<path style="fill:#FFB655;" d="M488.727,325.818h-31.03h-62.061h-23.273h-23.273H256h-93.091h-23.273h-23.273H54.303h-31.03
	C10.42,325.818,0,336.237,0,349.091c0,12.853,10.42,23.273,23.273,23.273h9.306l8.127,117.962C41.546,502.53,51.692,512,63.924,512
	H256h183.234c11.674,0,21.541-8.65,23.071-20.222l15.788-119.414h10.634c12.853,0,23.273-10.42,23.273-23.273
	C512,336.237,501.58,325.818,488.727,325.818z"/>
<path style="fill:#D9CCBC;" d="M512,121.847c0-39.632-31.071-72.142-70.135-74.446C431.026,19.507,403.994,0,372.364,0
	s-58.663,19.507-69.502,47.4c-18.106,1.067-34.487,8.633-46.862,20.382c5.675,5.388,10.498,11.66,14.26,18.589
	c5.736,10.558,9.013,22.637,9.013,35.475c0,12.626-3.243,24.764-9.042,35.454c-3.736,6.886-8.549,13.155-14.23,18.576
	c1.292,1.232,2.613,2.436,3.994,3.578c-1.596,6.116-2.416,12.449-2.416,18.874c0,41.123,33.455,74.58,74.575,74.58
	c5.778,0,11.45-0.667,16.936-1.936c8.29-1.919,16.15-5.229,23.273-9.801c7.123,4.572,14.983,7.882,23.273,9.801
	c5.486,1.269,11.158,1.936,16.936,1.936c41.123,0,74.578-33.457,74.578-74.58c0-6.425-0.818-12.758-2.417-18.876
	C501.62,165.509,512,144.452,512,121.847z M372.364,189.203c-25.665,0-46.545-20.88-46.545-46.545s20.88-46.545,46.545-46.545
	c25.665,0,46.545,20.88,46.545,46.545C418.909,168.324,398.029,189.203,372.364,189.203z"/>
<path style="fill:#64C37D;" d="M162.909,325.818v-54.849c-8.29-1.919-16.15-5.229-23.273-9.801
	c-7.123,4.572-14.983,7.882-23.273,9.801v54.849h23.273H162.909z"/>
<path style="fill:#95D6A6;" d="M395.636,325.818v-54.849c-8.29-1.919-16.15-5.229-23.273-9.801
	c-7.123,4.572-14.983,7.882-23.273,9.801v54.849h23.273H395.636z"/>
<path style="fill:#F072AE;" d="M372.364,96.112c-25.665,0-46.545,20.88-46.545,46.545s20.88,46.545,46.545,46.545
	c25.665,0,46.545-20.88,46.545-46.545C418.909,116.994,398.029,96.112,372.364,96.112z"/>
<path style="fill:#FF7956;" d="M139.636,96.112c-25.665,0-46.545,20.88-46.545,46.545s20.88,46.545,46.545,46.545
	s46.545-20.88,46.545-46.545C186.182,116.994,165.302,96.112,139.636,96.112z"/>
<path style="fill:#EE8700;" d="M162.909,325.818h-23.273h-23.273H54.303h-31.03C10.42,325.818,0,336.237,0,349.091
	c0,12.853,10.42,23.273,23.273,23.273h9.306l8.127,117.962C41.546,502.53,51.692,512,63.924,512H256V325.818H162.909z"/>
<g>
</g>
<g>
</g>
<g>
</g>
<g>
</g>
<g>
</g>
<g>
</g>
<g>
</g>
<g>
</g>
<g>
</g>
<g>
</g>
<g>
</g>
<g>
</g>
<g>
</g>
<g>
</g>
<g>
</g>
</svg>
