<?xml version="1.0" encoding="iso-8859-1"?>
<!-- Generator: Adobe Illustrator 19.0.0, SVG Export Plug-In . SVG Version: 6.00 Build 0)  -->
<svg version="1.1" id="Layer_1" xmlns="http://www.w3.org/2000/svg" xmlns:xlink="http://www.w3.org/1999/xlink" x="0px" y="0px"
	 viewBox="0 0 512 512" style="enable-background:new 0 0 512 512;" xml:space="preserve">
<g>
	<g>
		<path style="fill:#5ABA63;" d="M255.991,199.746c-4.235,0-7.94-3.098-8.574-7.411c-0.104-0.703-0.121-1.388-0.061-2.057
			l-0.017-1.224c-0.703-37.506,7.359-61.553,23.951-71.498c12.948-7.758,29.67-6.023,49.69,5.189
			c4.191,2.343,5.684,7.637,3.341,11.811s-7.637,5.658-11.811,3.341c-14.214-7.958-25.079-9.771-32.299-5.45
			c-6.118,3.662-16.271,15.846-15.516,56.277c0.121,6.508-2.378,10.188-7.437,10.926
			C256.833,199.72,256.408,199.746,255.991,199.746"/>
		<path style="fill:#5ABA63;" d="M256.009,234.305c-0.165,0-0.321-0.009-0.495-0.017c-4.773-0.26-8.435-4.356-8.175-9.147
			c1.31-24.012-2.621-65.736-18.788-75.403c-6.812-4.053-16.471-2.3-28.776,5.198c-4.07,2.499-9.424,1.189-11.924-2.89
			c-2.508-4.096-1.206-9.433,2.89-11.932c18.267-11.125,33.992-12.895,46.722-5.268c30.364,18.189,27.613,83.838,27.197,91.266
			C264.409,230.73,260.573,234.305,256.009,234.305"/>
		<path style="fill:#5ABA63;" d="M256,260.22c-4.799,0-8.678-3.879-8.678-8.678V95.46c0-4.799,3.879-8.678,8.678-8.678
			c4.799,0,8.678,3.879,8.678,8.678v156.082C264.678,256.341,260.799,260.22,256,260.22"/>
	</g>
	<path style="fill:#91CF96;" d="M394.847,225.534c-0.182,0-0.356-0.009-0.538-0.017c-41.915-2.621-86.242-63.948-86.242-95.44
		c0-4.799,3.879-8.678,8.678-8.678c48.067,0,86.78,52.224,86.78,95.458c0,2.395-0.989,4.686-2.734,6.326
		C399.178,224.693,397.052,225.534,394.847,225.534"/>
	<g>
		<path style="fill:#E86C59;" d="M257.39,104.144c-0.512,0-1.007,0-1.527-0.009c-4.79-0.078-8.617-4.018-8.539-8.817
			c0.078-4.738,3.94-8.539,8.678-8.539h0.13h0.104c2.274,0,4.591-1.145,6.899-3.419c6.205-6.109,10.223-18.397,10.223-31.293
			c0-7.229-1.25-14.267-3.601-20.341c-1.041-2.69-0.677-5.736,0.981-8.105C281.532,8.166,294.445,0,308.07,0
			c2.838,0,5.493,1.38,7.116,3.714c12.722,18.215,13.737,45.742,2.482,66.942C310.985,83.239,294.306,104.144,257.39,104.144"/>
		<path style="fill:#E86C59;" d="M254.61,104.144c-36.925,0-53.595-20.905-60.277-33.488c-11.255-21.2-10.24-48.727,2.482-66.942
			C198.437,1.38,201.093,0,203.93,0c13.624,0,26.537,8.166,37.333,23.621c1.657,2.369,2.022,5.406,0.981,8.097
			c-2.352,6.101-3.601,13.138-3.601,20.35c0,12.895,4.018,25.183,10.223,31.293c2.334,2.308,4.773,3.454,6.994,3.419h0.009h0.13
			c4.738,0,8.6,3.801,8.678,8.539c0.078,4.799-3.749,8.739-8.539,8.817C255.625,104.144,255.113,104.144,254.61,104.144"/>
	</g>
	<path style="fill:#91CF96;" d="M125.831,216.949c-4.799,0-8.678-3.879-8.678-8.678c0-44.119,28.464-69.424,78.102-69.424
		c4.799,0,8.678,3.879,8.678,8.678C203.932,191.644,175.468,216.949,125.831,216.949"/>
	<polygon style="fill:#7F5B53;" points="394.847,512 117.153,512 108.475,477.288 403.525,477.288 	"/>
	<polygon style="fill:#AF8066;" points="373.153,477.288 403.525,295.051 108.475,295.051 138.847,477.288 	"/>
	<g>
		<path style="fill:#D9AA94;" d="M221.288,355.797h-8.678c-4.79,0-8.678-3.879-8.678-8.678c0-4.799,3.888-8.678,8.678-8.678h8.678
			c4.79,0,8.678,3.879,8.678,8.678C229.966,351.918,226.078,355.797,221.288,355.797"/>
		<path style="fill:#D9AA94;" d="M264.678,425.22H256c-4.79,0-8.678-3.879-8.678-8.678c0-4.799,3.888-8.678,8.678-8.678h8.678
			c4.79,0,8.678,3.879,8.678,8.678C273.356,421.341,269.468,425.22,264.678,425.22"/>
		<path style="fill:#D9AA94;" d="M384.676,408.146c-0.477-0.078-0.903-0.286-1.397-0.286h-83.89c-4.79,0-8.678,3.888-8.678,8.678
			c0,4.799,3.888,8.678,8.678,8.678h82.441L384.676,408.146z"/>
		<path style="fill:#D9AA94;" d="M177.898,338.441h-60.746c-0.495,0-0.929,0.2-1.397,0.286l2.846,17.07h59.297
			c4.79,0,8.678-3.879,8.678-8.678C186.576,342.32,182.689,338.441,177.898,338.441"/>
	</g>
	<polygon style="fill:#7F5B53;" points="73.763,295.051 438.237,295.051 438.237,251.661 73.763,251.661 	"/>
	<path style="fill:#D13834;" d="M256,104.136c-19.465,0-34.712-22.875-34.712-52.068S236.535,0,256,0s34.712,22.875,34.712,52.068
		S275.465,104.136,256,104.136"/>
</g>
<g>
</g>
<g>
</g>
<g>
</g>
<g>
</g>
<g>
</g>
<g>
</g>
<g>
</g>
<g>
</g>
<g>
</g>
<g>
</g>
<g>
</g>
<g>
</g>
<g>
</g>
<g>
</g>
<g>
</g>
</svg>
