<?xml version="1.0" encoding="iso-8859-1"?>
<!-- Generator: Adobe Illustrator 19.0.0, SVG Export Plug-In . SVG Version: 6.00 Build 0)  -->
<svg version="1.1" id="Layer_1" xmlns="http://www.w3.org/2000/svg" xmlns:xlink="http://www.w3.org/1999/xlink" x="0px" y="0px"
	 viewBox="0 0 512 512" style="enable-background:new 0 0 512 512;" xml:space="preserve">
<g>
	<polygon style="fill:#D9AA94;" points="47.729,329.763 464.271,329.763 464.271,295.051 47.729,295.051 	"/>
	<polygon style="fill:#AF8066;" points="56.407,503.322 455.593,503.322 455.593,329.763 56.407,329.763 	"/>
	<path style="fill:#F0EDE0;" d="M481.627,512H30.373c-4.799,0-8.678-3.888-8.678-8.678s3.879-8.678,8.678-8.678h451.254
		c4.799,0,8.678,3.888,8.678,8.678S486.426,512,481.627,512"/>
	<path style="fill:#5ABA63;" d="M403.915,217.36c-3.011,0-5.927-1.562-7.533-4.356c-6.153-10.709-19.126-20.584-23.604-23.483
		c-4.027-2.603-5.181-7.975-2.577-12.002s7.984-5.172,12.002-2.569c0.807,0.521,19.734,12.895,29.227,29.41
		c2.395,4.148,0.963,9.459-3.202,11.845C406.866,216.987,405.382,217.36,403.915,217.36"/>
	<path style="fill:#91CF96;" d="M371.636,191.046c-9.928,0-21.356-1.198-31.31-6.682c-14.744-8.114-22.676-23.309-23.569-45.16
		c-0.2-4.79,3.523-8.834,8.313-9.025c22.406-0.946,38.14,3.636,48.128,13.937c10.561,10.908,12.479,25.912,12.965,37.767
		c0.095,2.291-0.729,4.539-2.291,6.231c-1.562,1.692-3.732,2.699-6.022,2.794C375.87,190.986,373.788,191.046,371.636,191.046"/>
	<g>
		<path style="fill:#5ABA63;" d="M151.856,208.271c-1.354,0-2.734-0.321-4.018-0.989c-10.396-5.45-16.853-8.435-16.965-8.487
			c-4.348-2.005-6.248-7.159-4.244-11.507c2.005-4.348,7.159-6.257,11.516-4.252c0,0,6.786,3.124,17.746,8.869
			c4.244,2.23,5.892,7.472,3.662,11.715C158,206.579,154.98,208.271,151.856,208.271"/>
		<path style="fill:#5ABA63;" d="M152.026,234.305c-4.521,0-8.34-3.506-8.652-8.088c-2.196-32.239,3.679-58.984,7.975-78.51
			l0.451-2.039c1.024-4.686,5.632-7.654,10.327-6.621c4.686,1.033,7.645,5.658,6.621,10.335l-0.451,2.048
			c-4.07,18.501-9.633,43.841-7.602,73.607c0.321,4.782-3.289,8.921-8.071,9.251C152.425,234.296,152.217,234.305,152.026,234.305"
			/>
	</g>
	<path style="fill:#C52A6A;" d="M160.347,156.203c-10.917,0-20.011-6.482-23.621-15.829c-8.053,1.788-16.384-0.538-22.823-6.96
		c-6.543-6.552-8.886-14.865-7.064-22.866c-9.285-3.636-15.724-12.705-15.724-23.578c0-10.856,6.413-19.907,15.69-23.561
		c-1.918-8.14,0.443-16.601,7.099-23.266c6.656-6.639,14.935-8.895,22.962-6.89c3.74-9.311,12.852-15.898,23.483-15.898
		c10.657,0,19.794,6.613,23.517,15.95c8.183-2.039,16.67,0.2,23.309,6.838c6.63,6.63,8.886,15.126,6.838,23.318
		c9.337,3.723,15.95,12.852,15.95,23.509c0,10.631-6.578,19.742-15.898,23.483c2.031,8.044-0.243,16.315-6.89,22.962
		c-7.073,7.064-15.516,8.765-23.196,6.96C180.367,149.721,171.264,156.203,160.347,156.203"/>
	<path style="fill:#91CF96;" d="M124.509,200.894c-18.606,0-41.524-10.361-50.436-42.366c-1.276-4.617,1.432-9.398,6.04-10.683
		c18.189-5.068,33.228-2.386,44.709,7.966c8.018,7.229,13.928,17.946,18.05,32.777c0.616,2.213,0.321,4.591-0.807,6.595
		c-1.128,2.005-3.011,3.48-5.233,4.087C133.135,200.304,128.952,200.894,124.509,200.894"/>
	<g>
		<path style="fill:#5ABA63;" d="M403.568,191.064c-3.124,0-6.144-1.692-7.697-4.651c-2.23-4.235-0.581-9.485,3.653-11.715
			c10.917-5.719,17.816-8.982,17.816-8.982c4.322-2.048,9.511-0.2,11.55,4.131c2.048,4.339,0.2,9.502-4.131,11.559
			c-0.078,0.043-6.708,3.176-17.165,8.669C406.302,190.743,404.922,191.064,403.568,191.064"/>
		<path style="fill:#5ABA63;" d="M403.534,225.627c-0.2,0-0.399-0.009-0.599-0.017c-4.782-0.33-8.392-4.478-8.07-9.251
			c2.161-31.492-4.113-66.352-8.044-84.332c-1.024-4.686,1.944-9.311,6.621-10.335c4.712-1.033,9.311,1.944,10.327,6.621
			c4.139,18.883,10.726,55.591,8.418,89.227C411.874,222.121,408.055,225.627,403.534,225.627"/>
	</g>
	<path style="fill:#F9D70B;" d="M395.212,138.847c-10.908,0-20.003-6.474-23.621-15.82c-1.111,0.252-2.222,0.434-3.341,0.538
		c-7.316,0.686-14.362-2.005-19.864-7.515c-7.289-7.289-8.044-14.943-7.402-20.081c0.13-0.955,0.304-1.909,0.538-2.864
		c-9.329-3.723-15.924-12.852-15.924-23.491c0-10.648,6.604-19.768,15.933-23.5c-0.252-1.007-0.443-2.013-0.573-3.02
		c-0.929-7.368,1.701-14.579,7.428-20.306c6.621-6.621,15.1-8.895,23.318-6.83C375.426,6.621,384.555,0,395.212,0
		c10.63,0,19.742,6.587,23.483,15.898c0.937-0.234,1.883-0.417,2.82-0.538c5.12-0.651,12.791,0.095,20.142,7.428
		c6.665,6.673,9.016,15.134,7.107,23.266c9.268,3.653,15.681,12.705,15.681,23.561c0,10.882-6.456,19.968-15.768,23.595
		c0.234,1.033,0.408,2.065,0.512,3.107c0.694,7.177-1.987,14.188-7.533,19.742c-6.439,6.43-14.839,8.721-22.814,6.96
		C415.223,132.365,406.129,138.847,395.212,138.847"/>
	<path style="fill:#91CF96;" d="M431.373,183.623c-4.278,0-8.539-0.555-12.652-1.701c-2.213-0.625-4.096-2.091-5.233-4.096
		c-1.119-2.005-1.415-4.374-0.79-6.595c12.427-44.631,40.951-46.792,62.75-40.743c4.608,1.284,7.316,6.066,6.031,10.683
		c-6.144,22.068-18.562,32.386-27.908,37.15C446.707,181.827,439.018,183.623,431.373,183.623"/>
	<path style="fill:#AF6D2D;" d="M201.922,263.218c-3.879-6.231-13.46-11.559-24.021-11.559c0-14.379-11.654-26.034-26.034-26.034
		c-7.55,0-14.284,3.263-19.039,8.392c-3.671-9.936-13.138-17.07-24.35-17.07c-14.379,0-26.034,11.655-26.034,26.034
		c-14.848,0-26.789,12.418-25.999,27.44c0.738,14.076,13.373,24.628,27.466,24.628h215.483c0-14.379-11.655-26.034-26.034-26.034
		c0-14.379-11.654-26.034-26.034-26.034c-11.733,0-21.643,7.758-24.906,18.415c-1.406,4.608-5.832,7.619-10.657,7.619
		C207.666,269.015,204.091,266.698,201.922,263.218"/>
	<path style="fill:#864D18;" d="M429.559,242.983c0-14.379-11.655-26.034-26.034-26.034c-11.724,0-21.643,7.758-24.906,18.415
		c-1.406,4.608-5.832,7.619-10.648,7.619c-4.105,0-7.68-2.317-9.849-5.797c-3.879-6.239-13.451-11.559-24.021-11.559
		c0-14.379-11.654-26.034-26.034-26.034c-7.55,0-14.284,3.263-19.039,8.392c-3.662-9.945-13.138-17.07-24.35-17.07
		c-14.379,0-26.034,11.655-26.034,26.034c-14.839,0-26.78,12.418-25.999,27.431c0.382,7.281,3.983,13.581,9.277,17.998
		c0.148-0.338,0.391-0.616,0.495-0.981c3.263-10.657,13.182-18.415,24.906-18.415c14.379,0,26.034,11.655,26.034,26.034
		c14.379,0,26.034,11.655,26.034,26.034h130.169c14.379,0,26.034-11.654,26.034-26.034
		C455.593,254.638,443.939,242.983,429.559,242.983"/>
	<polygon style="fill:#D9AA94;" points="455.593,407.864 351.458,468.61 256,416.542 160.542,468.61 56.407,407.864 56.407,355.797 
		160.542,416.542 256,364.475 351.458,416.542 455.593,355.797 	"/>
	<g>
		<path style="fill:#FFFFFF;" d="M151.864,86.78c0-4.643,3.766-8.409,8.409-8.409c4.634,0,8.4,3.766,8.4,8.409
			c0,4.643-3.766,8.409-8.4,8.409C155.631,95.189,151.864,91.422,151.864,86.78"/>
		<path style="fill:#FFFFFF;" d="M403.699,69.424c0-4.643-3.766-8.409-8.409-8.409c-4.643,0-8.4,3.766-8.4,8.409
			s3.758,8.409,8.4,8.409C399.933,77.833,403.699,74.066,403.699,69.424"/>
	</g>
</g>
<g>
</g>
<g>
</g>
<g>
</g>
<g>
</g>
<g>
</g>
<g>
</g>
<g>
</g>
<g>
</g>
<g>
</g>
<g>
</g>
<g>
</g>
<g>
</g>
<g>
</g>
<g>
</g>
<g>
</g>
</svg>
