<?xml version="1.0" encoding="iso-8859-1"?>
<!-- Generator: Adobe Illustrator 19.0.0, SVG Export Plug-In . SVG Version: 6.00 Build 0)  -->
<svg version="1.1" id="Layer_1" xmlns="http://www.w3.org/2000/svg" xmlns:xlink="http://www.w3.org/1999/xlink" x="0px" y="0px"
	 viewBox="0 0 512 512" style="enable-background:new 0 0 512 512;" xml:space="preserve">
<g>
	<g>
		<path style="fill:#5ABA63;" d="M264.542,256c-2.927,0-5.777-1.502-7.364-4.207c-2.389-4.062-1.033-9.293,3.029-11.682
			c9.958-5.862,19.874-18.603,22.852-23.023c2.637-3.9,7.936-4.932,11.853-2.295c3.908,2.637,4.932,7.945,2.295,11.853
			c-0.521,0.768-13.047,19.174-28.348,28.177C267.503,255.625,266.01,256,264.542,256"/>
		<path style="fill:#5ABA63;" d="M256,307.204c-0.853,0-1.724-0.137-2.586-0.401c-4.489-1.434-6.972-6.229-5.547-10.718
			c14.822-46.66,6.05-86.588,0.247-113.007l-0.452-2.057c-1.007-4.599,1.903-9.148,6.511-10.163
			c4.591-0.981,9.148,1.911,10.163,6.519l0.444,2.031c5.82,26.487,15.565,70.818-0.649,121.839
			C262.972,304.883,259.618,307.204,256,307.204"/>
	</g>
	<path style="fill:#F0EDE0;" d="M256,187.733c-14.967,0-27.204-9.643-30.805-23.091c-10.496,3.533-22.511,2.022-32.384-7.851
		c-9.182-9.19-11.699-20.881-7.68-31.966c-13.406-3.763-23.262-16.094-23.262-30.694s9.865-26.94,23.287-30.703
		c-3.849-10.342-2.628-22.195,7.654-32.486c10.274-10.291,22.135-11.511,32.478-7.654C229.052,9.873,241.391,0,256,0
		c14.583,0,26.906,9.83,30.686,23.219c2.21-0.819,4.463-1.374,6.733-1.673c6.391-0.845,15.966,0.128,25.233,9.395
		c9.242,9.242,11.887,21.239,8.038,32.435c13.355,3.652,22.912,15.863,22.912,30.754c0,14.916-9.574,27.127-22.963,30.771
		c3.729,11.017,1.092,22.801-7.987,31.889c-7.04,7.031-15.607,10.325-24.695,9.463c-2.415-0.222-4.813-0.742-7.168-1.536
		C283.17,178.133,270.933,187.733,256,187.733"/>
	<path style="fill:#91CF96;" d="M290.133,230.4c-4.719,0-8.533-3.823-8.533-8.533c0-39.083,20.659-59.733,59.733-59.733
		c4.719,0,8.533,3.823,8.533,8.533C349.867,214.758,317.687,230.4,290.133,230.4"/>
	<path style="fill:#5ABA63;" d="M262.45,280.529c-2.782,0-5.513-1.357-7.151-3.866c-8.235-12.578-21.282-22.221-21.41-22.315
		c-3.797-2.79-4.625-8.124-1.843-11.93c2.799-3.797,8.141-4.617,11.93-1.835c0.64,0.469,15.701,11.597,25.609,26.743
		c2.586,3.942,1.476,9.233-2.466,11.81C265.676,280.077,264.046,280.529,262.45,280.529"/>
	<path style="fill:#91CF96;" d="M238.933,256c-27.554,0-59.733-15.642-59.733-59.733c0-4.71,3.814-8.533,8.533-8.533
		c39.074,0,59.733,20.651,59.733,59.733C247.467,252.177,243.652,256,238.933,256"/>
	<polygon style="fill:#AF8066;" points="145.067,503.467 366.933,503.467 366.933,332.8 145.067,332.8 	"/>
	<g>
		<polygon style="fill:#D9AA94;" points="366.933,409.6 307.2,469.333 256,418.133 204.8,469.333 145.067,409.6 145.067,358.4 
			204.8,418.133 256,366.933 307.2,418.133 366.933,358.4 		"/>
		<polygon style="fill:#D9AA94;" points="136.533,332.8 375.467,332.8 375.467,298.667 136.533,298.667 		"/>
	</g>
	<path style="fill:#F0EDE0;" d="M409.6,512H102.4c-4.71,0-8.533-3.823-8.533-8.533c0-4.71,3.823-8.533,8.533-8.533h307.2
		c4.719,0,8.533,3.823,8.533,8.533C418.133,508.177,414.319,512,409.6,512"/>
	<path style="fill:#F9D70B;" d="M256,128c-18.825,0-34.133-15.309-34.133-34.133S237.175,59.733,256,59.733
		c18.825,0,34.133,15.309,34.133,34.133S274.825,128,256,128"/>
</g>
<g>
</g>
<g>
</g>
<g>
</g>
<g>
</g>
<g>
</g>
<g>
</g>
<g>
</g>
<g>
</g>
<g>
</g>
<g>
</g>
<g>
</g>
<g>
</g>
<g>
</g>
<g>
</g>
<g>
</g>
</svg>
