<?xml version="1.0" encoding="iso-8859-1"?>
<!-- Generator: Adobe Illustrator 19.0.0, SVG Export Plug-In . SVG Version: 6.00 Build 0)  -->
<svg version="1.1" id="Layer_1" xmlns="http://www.w3.org/2000/svg" xmlns:xlink="http://www.w3.org/1999/xlink" x="0px" y="0px"
	 viewBox="0 0 511.996 511.996" style="enable-background:new 0 0 511.996 511.996;" xml:space="preserve">
<g>
	<g>
		<path style="fill:#91CF96;" d="M333.714,237.711c-29.522,0-64-16.759-64-64c0-5.047,4.087-9.143,9.143-9.143
			c41.865,0,64,22.126,64,64C342.857,233.615,338.77,237.711,333.714,237.711"/>
		<path style="fill:#91CF96;" d="M399.491,265.974c-4.91,0-9.152-0.448-12.325-0.942c-2.386-0.375-4.544-1.682-5.979-3.639
			c-1.426-1.957-2.03-4.398-1.655-6.802c6.363-40.869,32.795-59.803,74.441-53.349c4.992,0.777,8.411,5.449,7.634,10.441
			c-4.389,28.233-19.584,41.371-31.561,47.424C419.376,264.493,408.359,265.974,399.491,265.974"/>
		<path style="fill:#91CF96;" d="M196.562,210.282c-4.187,0-7.963-2.898-8.923-7.159c-3.785-17.051-1.947-32.613,5.303-44.983
			c8.686-14.802,24.613-24.869,47.36-29.925c4.928-1.088,9.819,2.011,10.917,6.939c6.208,27.986-4.123,45.413-13.879,55.104
			c-12.626,12.544-29.723,17.792-38.784,19.803C197.888,210.209,197.221,210.282,196.562,210.282"/>
		<path style="fill:#91CF96;" d="M160,283.425c-20.946,0-56,0-63.899-53.522c-0.741-4.992,2.715-9.646,7.707-10.377
			c56.128-8.311,62.053,31.854,65.234,53.422c0.393,2.633-0.384,5.294-2.121,7.305C165.184,282.273,162.661,283.425,160,283.425"/>
	</g>
	<g>
		<path style="fill:#5ABA63;" d="M364.848,265.139c-1.573,0-3.173-0.402-4.626-1.262c-15.89-9.353-32.686-28.489-33.39-29.294
			c-3.319-3.803-2.935-9.582,0.869-12.901c3.794-3.328,9.573-2.935,12.901,0.869c0.146,0.174,15.579,17.728,28.891,25.563
			c4.352,2.56,5.806,8.165,3.246,12.517C371.038,263.53,367.984,265.139,364.848,265.139"/>
		<path style="fill:#5ABA63;" d="M361.143,319.996c-5.056,0-9.143-4.096-9.143-9.143c0-82.633,12.407-108.187,28.635-133.001
			c2.761-4.224,8.421-5.413,12.654-2.651c4.233,2.761,5.413,8.43,2.651,12.654c-15.022,22.985-25.655,45.257-25.655,122.999
			C370.286,315.9,366.199,319.996,361.143,319.996"/>
		<path style="fill:#5ABA63;" d="M362.571,285.938c-2.176,0-4.37-0.777-6.117-2.35c-3.749-3.374-4.05-9.161-0.677-12.91
			c12.937-14.373,27.867-22.418,28.489-22.747c4.453-2.377,9.966-0.695,12.361,3.749c2.368,4.453,0.704,9.984-3.749,12.37
			c-0.119,0.073-12.809,6.976-23.515,18.862C367.563,284.914,365.067,285.938,362.571,285.938"/>
		<path style="fill:#5ABA63;" d="M180.777,245.711c-0.421,0-0.85-0.027-1.28-0.091c-5.001-0.695-8.475-5.312-7.781-10.313
			c2.77-19.831,16.942-38.866,17.554-39.662c3.045-4.041,8.768-4.837,12.782-1.81c4.041,3.026,4.855,8.75,1.829,12.791
			c-0.11,0.165-11.95,16.119-14.062,31.205C189.189,242.401,185.266,245.711,180.777,245.711"/>
		<path style="fill:#5ABA63;" d="M187.661,319.996c-5.056,0-9.143-4.096-9.143-9.143c0-79.735-16.402-104.823-32.265-129.088
			c-2.77-4.233-1.582-9.893,2.651-12.654c4.215-2.77,9.893-1.582,12.654,2.642c16.521,25.271,35.246,53.925,35.246,139.099
			C196.804,315.9,192.717,319.996,187.661,319.996"/>
	</g>
	<path style="fill:#F9D70B;" d="M158.735,108.216c-2.176,0-5.961,0.914-5.861,0.805c7.817-7.808,11.026-19.785,1.033-29.787
		c-10.094-10.094-21.522-6.318-29.33,1.49c-0.101,0.101,0.805-3.685,0.805-5.861c0-11.054-8.96-20.005-20.005-20.005
		c-11.054,0-20.014,8.951-20.014,20.005c0,2.176,0.905,5.961,0.805,5.861c-7.808-7.808-19.785-11.493-29.787-1.49
		c-10.094,10.094-6.327,21.979,1.49,29.787c0.101,0.11-3.685-0.805-5.861-0.805c-11.054,0-20.014,8.96-20.014,20.014
		c0,11.045,8.96,20.005,20.014,20.005c2.176,0,5.961-0.905,5.861-0.805c-7.817,7.817-11.493,19.328-1.49,29.33
		c9.618,9.618,21.979,6.784,29.787-1.033c0.101-0.101-0.805,3.685-0.805,5.861c0,11.054,8.96,19.557,20.014,19.557
		c11.045,0,20.005-8.503,20.005-19.557c0-2.176-0.905-5.961-0.805-5.861c7.808,7.817,19.758,10.606,29.33,1.033
		c9.71-9.719,6.784-21.513-1.033-29.33c-0.101-0.101,3.685,0.805,5.861,0.805c11.054,0,19.547-8.96,19.547-20.005
		C178.282,117.176,169.788,108.216,158.735,108.216"/>
	<path style="fill:#5ABA63;" d="M187.429,301.711c-2.176,0-4.361-0.768-6.098-2.331c-11.538-10.331-25.07-16.75-25.216-16.823
		c-4.562-2.149-6.537-7.589-4.389-12.151c2.149-4.571,7.543-6.537,12.151-4.407c0.64,0.302,16.046,7.57,29.65,19.758
		c3.758,3.374,4.078,9.152,0.713,12.91C192.439,300.687,189.934,301.711,187.429,301.711"/>
	<path style="fill:#7F5B53;" d="M452.571,333.046c0,7.945-6.437,14.382-14.382,14.382H101.239c-7.945,0-14.382-6.437-14.382-14.382
		v-7.817c0-7.936,6.437-14.373,14.382-14.373H438.19c7.945,0,14.382,6.437,14.382,14.373V333.046z"/>
	<polygon style="fill:#AF8066;" points="370.286,502.854 169.143,502.854 114.286,347.425 425.143,347.425 	"/>
	<path style="fill:#D9AA94;" d="M391.432,442.939l-17.819-10.322c-7.47-4.48-16.951-3.749-23.634,1.829l-13.906,11.584
		c-7.552,6.299-16.795,10.679-26.624,11.09c-9.326,0.393-17.691-2.249-22.418-7.936l-35.602-37.76
		c-10.853-10.853-19.621-11.383-35.694-4.754c-9.445,3.895-17.554,13.897-28.306,13.897c-13.001,0-22.318-4.882-27.429-9.143
		l-33.353-28.983l42.496,120.411h201.143L391.432,442.939z"/>
	<path style="fill:#7F5B53;" d="M434.286,511.996H96c-5.047,0-9.143-4.096-9.143-9.143s4.096-9.143,9.143-9.143h338.286
		c5.047,0,9.143,4.096,9.143,9.143S439.333,511.996,434.286,511.996"/>
	<path style="fill:#FFFFFF;" d="M128,127.996c0-12.626-10.231-22.857-22.857-22.857s-22.857,10.231-22.857,22.857
		s10.231,22.857,22.857,22.857S128,140.623,128,127.996"/>
	<path style="fill:#E12E36;" d="M297.143,91.712c0,13.815,10.624,25.015,24.439,25.015c2.715,0,7.451-1.143,7.323-1.015
		c-9.765,9.774-13.431,24.521-1.289,36.663c11.968,11.968,26.898,8.485,36.663-1.289c0.128-0.128-1.006,4.608-1.006,7.333
		c0,13.815,11.2,24.439,25.015,24.439s25.006-10.624,25.006-24.439c0-2.725-1.134-7.461-1.006-7.333
		c9.765,9.774,25.216,13.312,37.239,1.289c12.498-12.498,7.899-26.889-1.865-36.663c-0.128-0.128,4.608,1.015,7.323,1.015
		c13.815,0,25.015-11.2,25.015-25.015c0-13.815-11.2-25.015-25.015-25.015c-2.715,0-7.451,1.143-7.323,1.015
		c9.765-9.774,14.482-24.622,1.865-37.239c-12.507-12.498-27.474-7.909-37.239,1.865c-0.128,0.128,1.006-4.608,1.006-7.333
		C413.294,11.191,402.103,0,388.288,0s-25.015,11.191-25.015,25.006c0,2.725,1.134,7.461,1.006,7.333
		c-9.765-9.774-24.037-14.482-36.663-1.865c-12.498,12.498-8.475,27.465,1.289,37.239c0.128,0.128-4.608-1.015-7.323-1.015
		C307.767,66.697,297.143,77.897,297.143,91.712"/>
	<path style="fill:#FFFFFF;" d="M360.856,91.425c0-15.15,12.279-27.429,27.429-27.429c15.15,0,27.429,12.279,27.429,27.429
		s-12.279,27.429-27.429,27.429C373.135,118.853,360.856,106.575,360.856,91.425"/>
</g>
<g>
</g>
<g>
</g>
<g>
</g>
<g>
</g>
<g>
</g>
<g>
</g>
<g>
</g>
<g>
</g>
<g>
</g>
<g>
</g>
<g>
</g>
<g>
</g>
<g>
</g>
<g>
</g>
<g>
</g>
</svg>
