<?xml version="1.0" encoding="iso-8859-1"?>
<!-- Generator: Adobe Illustrator 19.0.0, SVG Export Plug-In . SVG Version: 6.00 Build 0)  -->
<svg version="1.1" id="Layer_1" xmlns="http://www.w3.org/2000/svg" xmlns:xlink="http://www.w3.org/1999/xlink" x="0px" y="0px"
	 viewBox="0 0 512.007 512.007" style="enable-background:new 0 0 512.007 512.007;" xml:space="preserve">
<path style="fill:#FF4F19;" d="M364.298,16.527c-22.035-22.035-57.76-22.035-79.795,0l-28.499,28.498l-28.498-28.499
	c-22.035-22.035-57.76-22.035-79.795,0s-22.035,57.76,0,79.795l108.295,108.295L364.3,96.321
	C386.333,74.288,386.333,38.562,364.298,16.527z"/>
<path style="fill:#AF2E08;" d="M364.298,16.527c-22.035-22.035-57.76-22.035-79.795,0l-28.499,28.498v159.592L364.298,96.323
	C386.333,74.288,386.333,38.562,364.298,16.527z"/>
<path style="fill:#4E894D;" d="M381.749,337.354c0,46.336-37.494,83.83-83.83,83.83h-27.943v-27.943
	c0-46.336,37.494-83.83,83.83-83.83h27.943V337.354z"/>
<path style="fill:#6DC180;" d="M214.089,365.297c-46.336,0-83.83-37.494-83.83-83.83v-27.943h27.943
	c46.336,0,83.83,37.494,83.83,83.83v27.943H214.089z"/>
<rect x="235.05" y="183.672" style="fill:#5CA15D;" width="41.915" height="328.335"/>
<g>
</g>
<g>
</g>
<g>
</g>
<g>
</g>
<g>
</g>
<g>
</g>
<g>
</g>
<g>
</g>
<g>
</g>
<g>
</g>
<g>
</g>
<g>
</g>
<g>
</g>
<g>
</g>
<g>
</g>
</svg>
