<?xml version="1.0" encoding="iso-8859-1"?>
<!-- Generator: Adobe Illustrator 19.0.0, SVG Export Plug-In . SVG Version: 6.00 Build 0)  -->
<svg version="1.1" id="Layer_1" xmlns="http://www.w3.org/2000/svg" xmlns:xlink="http://www.w3.org/1999/xlink" x="0px" y="0px"
	 viewBox="0 0 512 512" style="enable-background:new 0 0 512 512;" xml:space="preserve">
<g>
	<path style="fill:#91CF96;" d="M255.924,338.441c-4.799,0-8.678-3.888-8.678-8.678V225.636
		c-0.364-18.224-2.56-180.623,33.159-217.062C285.984,2.89,292.345,0,299.313,0c4.799,0,8.678,3.888,8.678,8.678
		s-3.879,8.678-8.678,8.678c-1.38,0-3.558,0.347-6.508,3.367c-25.964,26.485-29.158,156.776-28.203,204.739v104.3
		C264.602,334.553,260.723,338.441,255.924,338.441"/>
	<g>
		<path style="fill:#5ABA63;" d="M203.932,329.763c0-121.856-173.559,8.678-173.559,8.678c0-50.619,71.593-130.169,156.203-130.169
			C188.928,209.174,256,197.042,256,329.763H203.932z"/>
		<path style="fill:#5ABA63;" d="M308.068,329.763c0-121.856,173.559,8.678,173.559,8.678c0-50.619-71.593-130.169-156.203-130.169
			C323.072,209.174,256,197.042,256,329.763H308.068z"/>
	</g>
	<path style="fill:#7F5B53;" d="M429.559,342.149c0,7.541-6.109,13.65-13.65,13.65H96.091c-7.541,0-13.65-6.109-13.65-13.65v-7.42
		c0-7.533,6.109-13.642,13.65-13.642h319.818c7.541,0,13.65,6.109,13.65,13.642V342.149z"/>
	<polygon style="fill:#AF8066;" points="351.458,503.322 160.542,503.322 108.475,355.797 403.525,355.797 	"/>
	<path style="fill:#D9AA94;" d="M371.529,446.454l-16.913-9.797c-7.09-4.252-16.089-3.558-22.433,1.736l-13.199,10.995
		c-7.168,5.979-15.941,10.136-25.27,10.526c-8.852,0.373-16.792-2.135-21.278-7.533l-33.792-35.84
		c-10.301-10.301-18.623-10.804-33.879-4.513c-8.964,3.697-16.662,13.191-26.867,13.191c-12.34,0-21.183-4.634-26.034-8.678
		l-31.657-27.509l40.335,114.289h190.915L371.529,446.454z"/>
	<path style="fill:#7F5B53;" d="M412.203,512H91.119c-4.79,0-8.678-3.888-8.678-8.678s3.888-8.678,8.678-8.678h321.085
		c4.79,0,8.678,3.888,8.678,8.678S416.994,512,412.203,512"/>
	<path style="fill:#E12E36;" d="M299.425,8.678c83.604,1.276,77.989,78.102,77.989,78.102s-76.826,5.615-78.102-77.989"/>
</g>
<g>
</g>
<g>
</g>
<g>
</g>
<g>
</g>
<g>
</g>
<g>
</g>
<g>
</g>
<g>
</g>
<g>
</g>
<g>
</g>
<g>
</g>
<g>
</g>
<g>
</g>
<g>
</g>
<g>
</g>
</svg>
