<?xml version="1.0" encoding="iso-8859-1"?>
<!-- Generator: Adobe Illustrator 19.0.0, SVG Export Plug-In . SVG Version: 6.00 Build 0)  -->
<svg version="1.1" id="Layer_1" xmlns="http://www.w3.org/2000/svg" xmlns:xlink="http://www.w3.org/1999/xlink" x="0px" y="0px"
	 viewBox="0 0 512 512" style="enable-background:new 0 0 512 512;" xml:space="preserve">
<g>
	<g>
		<path style="fill:#5ABA63;" d="M361.999,243.661c-1.467,0-2.951-0.373-4.304-1.154c-10.414-5.962-17.868-8.773-17.937-8.791
			c-4.486-1.684-6.777-6.673-5.103-11.16c1.657-4.495,6.647-6.804,11.134-5.111c0.356,0.121,8.765,3.254,20.532,10.014
			c4.165,2.378,5.606,7.689,3.211,11.837C367.935,242.09,365.01,243.661,361.999,243.661"/>
		<path style="fill:#5ABA63;" d="M360.144,260.339c-0.312,0-0.625-0.017-0.937-0.052c-4.764-0.512-8.218-4.799-7.697-9.554
			c4.053-37.419,6.344-54.741,18.449-73.242c2.621-4.018,8.018-5.129,12.01-2.517c4.018,2.621,5.137,8.001,2.517,12.01
			c-9.936,15.195-11.889,30.173-15.724,65.605C368.275,257.041,364.518,260.339,360.144,260.339"/>
	</g>
	<path style="fill:#E12E36;" d="M377.219,190.915c-15.16,0-27.587-9.737-31.293-23.335c-11.212,3.792-23.196,1.102-32.43-8.131
		c-9.233-9.233-11.915-21.218-8.123-32.421c-13.607-3.714-23.344-16.141-23.344-31.301c0-15.143,9.719-27.561,23.3-31.267
		c-3.922-11.394-1.232-23.595,8.166-32.994c9.511-9.528,21.27-12.114,32.534-7.923C349.901,9.962,362.415,0,377.219,0
		c14.848,0,27.396,10.04,31.223,23.682c10.518-3.914,22.571-2.681,33.037,7.784c10.457,10.466,11.689,22.528,7.784,33.046
		c13.642,3.818,23.682,16.367,23.682,31.215c0,14.839-10.023,27.388-23.647,31.223c4.087,11.273,1.519,23.161-7.819,32.499
		c-10.058,10.04-22.311,11.576-32.942,7.984C404.885,181.109,392.432,190.915,377.219,190.915"/>
	<path style="fill:#91CF96;" d="M331.94,235.322c-9.884,0-19.621-2.274-27.917-6.63c-10.986-5.78-25.192-18.232-30.494-44.752
		c-0.946-4.703,2.109-9.268,6.804-10.214c26.737-5.354,60.728-0.981,70.951,50.15c0.946,4.703-2.109,9.268-6.804,10.205
		C340.349,234.914,336.132,235.322,331.94,235.322"/>
	<g>
		<path style="fill:#5ABA63;" d="M183.661,241.898c-0.399,0-0.807-0.026-1.215-0.087c-4.747-0.66-8.044-5.042-7.385-9.797
			c2.69-19.282,20.871-36.821,22.936-38.747c3.497-3.272,8.982-3.089,12.245,0.382c3.28,3.497,3.115,8.982-0.364,12.271
			c-4.365,4.122-16.063,17.278-17.634,28.507C191.645,238.766,187.922,241.898,183.661,241.898"/>
		<path style="fill:#5ABA63;" d="M186.567,260.339c-4.261,0-7.975-3.133-8.583-7.463c-5.771-41.047-12.123-56.849-21.816-71.68
			c-2.629-4.009-1.501-9.381,2.517-12.01c4.001-2.629,9.398-1.501,12.01,2.517c12.6,19.265,19.005,39.875,24.472,78.744
			c0.668,4.747-2.638,9.138-7.376,9.806C187.374,260.313,186.966,260.339,186.567,260.339"/>
	</g>
	<path style="fill:#F9D70B;" d="M117.373,208.271c-12.331,0-22.537-7.55-26.207-18.311c-1.553,0.408-3.133,0.703-4.721,0.85
		c-7.906,0.677-15.672-2.196-21.704-8.227c-7.541-7.532-9.928-16.991-7.246-26.112c-10.743-3.801-18.441-14.058-18.441-26.086
		c0-12.028,7.715-22.294,18.467-26.086c-0.746-2.499-1.128-5.042-1.128-7.576c0-6.951,2.89-13.512,8.348-18.97
		c7.975-7.975,16.427-8.843,22.103-8.114c1.484,0.182,2.959,0.495,4.417,0.937c3.792-10.769,14.067-18.51,26.112-18.51
		c12.019,0,22.268,7.706,26.086,18.423c1.362-0.408,2.742-0.703,4.131-0.885c5.58-0.72,13.954,0.113,21.981,8.149
		c7.576,7.567,10.049,17.26,7.506,26.476c10.683,3.705,18.18,13.885,18.18,26.155c0,12.288-7.515,22.476-18.232,26.181
		c2.447,9.068-0.017,18.58-7.454,26.017c-7.446,7.446-16.983,9.91-26.017,7.454C139.848,200.765,129.661,208.271,117.373,208.271"/>
	<path style="fill:#91CF96;" d="M203.932,208.271c-1.631,0-3.254-0.469-4.66-1.354c-1.944-1.241-3.315-3.193-3.818-5.441
		c-3.593-16.184-1.848-30.954,5.042-42.696c8.235-14.05,23.352-23.604,44.943-28.412c4.66-0.989,9.311,1.918,10.361,6.595
		c9.364,42.149-19.682,64.356-49.985,71.107C205.199,208.202,204.557,208.271,203.932,208.271"/>
	<polygon style="fill:#7F5B53;" points="394.847,512 117.152,512 108.474,477.288 403.525,477.288 	"/>
	<polygon style="fill:#AF8066;" points="373.152,477.288 403.525,295.051 108.474,295.051 138.847,477.288 	"/>
	<g>
		<path style="fill:#D9AA94;" d="M221.288,355.797h-8.678c-4.79,0-8.678-3.879-8.678-8.678c0-4.799,3.888-8.678,8.678-8.678h8.678
			c4.79,0,8.678,3.879,8.678,8.678C229.966,351.918,226.078,355.797,221.288,355.797"/>
		<path style="fill:#D9AA94;" d="M264.678,425.22H256c-4.79,0-8.678-3.879-8.678-8.678c0-4.799,3.888-8.678,8.678-8.678h8.678
			c4.79,0,8.678,3.879,8.678,8.678C273.355,421.341,269.468,425.22,264.678,425.22"/>
		<path style="fill:#D9AA94;" d="M384.676,408.146c-0.477-0.078-0.903-0.286-1.397-0.286h-83.89c-4.79,0-8.678,3.888-8.678,8.678
			c0,4.799,3.888,8.678,8.678,8.678h82.441L384.676,408.146z"/>
		<path style="fill:#D9AA94;" d="M177.898,338.441h-60.746c-0.495,0-0.929,0.2-1.397,0.286l2.846,17.07h59.297
			c4.79,0,8.678-3.879,8.678-8.678C186.576,342.32,182.688,338.441,177.898,338.441"/>
	</g>
	<polygon style="fill:#7F5B53;" points="73.762,295.051 438.237,295.051 438.237,251.661 73.762,251.661 	"/>
	<g>
		<path style="fill:#FFFFFF;" d="M377.219,130.169c-19.144,0-34.712-15.568-34.712-34.712s15.568-34.712,34.712-34.712
			s34.712,15.568,34.712,34.712S396.363,130.169,377.219,130.169"/>
		<path style="fill:#FFFFFF;" d="M117.152,160.542c-16.748,0-30.373-13.624-30.373-30.373s13.624-30.373,30.373-30.373
			s30.373,13.624,30.373,30.373S133.901,160.542,117.152,160.542"/>
	</g>
</g>
<g>
</g>
<g>
</g>
<g>
</g>
<g>
</g>
<g>
</g>
<g>
</g>
<g>
</g>
<g>
</g>
<g>
</g>
<g>
</g>
<g>
</g>
<g>
</g>
<g>
</g>
<g>
</g>
<g>
</g>
</svg>
