<?xml version="1.0" encoding="iso-8859-1"?>
<!-- Generator: Adobe Illustrator 19.0.0, SVG Export Plug-In . SVG Version: 6.00 Build 0)  -->
<svg version="1.1" id="Layer_1" xmlns="http://www.w3.org/2000/svg" xmlns:xlink="http://www.w3.org/1999/xlink" x="0px" y="0px"
	 viewBox="0 0 512 512" style="enable-background:new 0 0 512 512;" xml:space="preserve">
<rect x="235.243" y="290.595" style="fill:#6DC180;" width="41.514" height="69.189"/>
<path style="fill:#E592BF;" d="M408.216,152.216c0-22.048-12.894-41.082-31.55-49.982c6.898-19.485,2.557-42.061-13.033-57.651
	c-15.59-15.59-38.166-19.931-57.651-13.032C297.082,12.894,278.048,0,256,0s-41.082,12.894-49.982,31.55
	c-19.485-6.898-42.061-2.557-57.651,13.032s-19.932,38.166-13.032,57.651c-18.656,8.9-31.55,27.934-31.55,49.982
	s12.894,41.082,31.55,49.982c-6.898,19.485-2.557,42.061,13.034,57.651c15.591,15.591,38.166,19.932,57.651,13.034
	c8.9,18.656,27.933,31.55,49.982,31.55s41.082-12.894,49.982-31.55c19.485,6.898,42.061,2.557,57.651-13.034
	c15.591-15.591,19.932-38.166,13.032-57.651C395.322,193.298,408.216,174.264,408.216,152.216z"/>
<path style="fill:#E176AF;" d="M408.216,152.216c0-22.048-12.894-41.082-31.55-49.982c6.898-19.485,2.557-42.061-13.033-57.651
	c-15.59-15.59-38.166-19.931-57.651-13.032C297.082,12.894,278.048,0,256,0v304.432c22.048,0,41.082-12.894,49.982-31.55
	c19.485,6.898,42.061,2.557,57.651-13.034c15.591-15.591,19.932-38.166,13.032-57.651
	C395.322,193.298,408.216,174.264,408.216,152.216z"/>
<circle style="fill:#FFEA8A;" cx="256" cy="152.216" r="41.514"/>
<polygon style="fill:#FFAF33;" points="394.378,512 117.622,512 103.784,415.135 408.216,415.135 "/>
<polygon style="fill:#FF9408;" points="256,415.135 256,512 394.378,512 408.216,415.135 "/>
<rect x="76.108" y="345.946" style="fill:#FFDB2D;" width="359.784" height="83.027"/>
<rect x="256" y="345.946" style="fill:#FFAF33;" width="179.892" height="83.027"/>
<path style="fill:#FFDB2D;" d="M256,110.703v83.027c22.927,0,41.514-18.587,41.514-41.514
	C297.514,129.288,278.927,110.703,256,110.703z"/>
<g>
</g>
<g>
</g>
<g>
</g>
<g>
</g>
<g>
</g>
<g>
</g>
<g>
</g>
<g>
</g>
<g>
</g>
<g>
</g>
<g>
</g>
<g>
</g>
<g>
</g>
<g>
</g>
<g>
</g>
</svg>
