<?xml version="1.0" encoding="iso-8859-1"?>
<!-- Generator: Adobe Illustrator 19.0.0, SVG Export Plug-In . SVG Version: 6.00 Build 0)  -->
<svg version="1.1" id="Layer_1" xmlns="http://www.w3.org/2000/svg" xmlns:xlink="http://www.w3.org/1999/xlink" x="0px" y="0px"
	 viewBox="0 0 512 512" style="enable-background:new 0 0 512 512;" xml:space="preserve">
<g>
	<g>
		<path style="fill:#5ABA63;" d="M255.841,256c-2.927,0-5.769-1.502-7.364-4.207c-2.389-4.062-1.033-9.293,3.029-11.682
			c11.998-7.057,23.262-22.98,23.373-23.142c2.714-3.849,8.013-4.787,11.887-2.082c3.857,2.697,4.796,8.013,2.091,11.87
			c-0.538,0.777-13.457,19.106-28.698,28.066C258.802,255.625,257.309,256,255.841,256"/>
		<path style="fill:#5ABA63;" d="M252.008,276.417c-0.828,0-1.664-0.119-2.492-0.375c-4.514-1.374-7.049-6.144-5.675-10.65
			c8.388-27.503,1.391-58.496-3.243-79.01l-1.203-5.359c-1.007-4.599,1.911-9.148,6.511-10.163
			c4.582-0.981,9.156,1.911,10.163,6.519l1.169,5.239c4.727,20.915,12.638,55.927,2.927,87.757
			C259.048,274.045,255.66,276.417,252.008,276.417"/>
	</g>
	<path style="fill:#FFCC5D;" d="M247.733,187.733c-14.959,0-27.204-9.643-30.805-23.091c-10.479,3.533-22.502,2.031-32.384-7.851
		c-9.182-9.182-11.699-20.873-7.68-31.957c-13.406-3.763-23.262-16.102-23.262-30.694c0-14.609,9.865-26.948,23.287-30.703
		c-3.84-10.351-2.628-22.204,7.654-32.495c10.283-10.274,22.135-11.486,32.486-7.654C220.785,9.873,233.132,0,247.733,0
		c14.575,0,26.906,9.839,30.686,23.219c2.21-0.819,4.471-1.374,6.741-1.673c6.383-0.836,15.957,0.137,25.225,9.395
		c9.242,9.242,11.895,21.248,8.038,32.435c13.355,3.661,22.912,15.872,22.912,30.763c0,14.908-9.574,27.119-22.955,30.763
		c3.729,11.017,1.092,22.81-7.996,31.889c-9.088,9.088-20.873,11.725-31.889,7.996C274.86,178.159,262.641,187.733,247.733,187.733"
		/>
	<path style="fill:#91CF96;" d="M281.866,230.4c-4.71,0-8.533-3.823-8.533-8.533c0-39.083,20.651-59.733,59.733-59.733
		c4.71,0,8.533,3.823,8.533,8.533C341.6,214.758,309.42,230.4,281.866,230.4"/>
	<path style="fill:#AF6D2D;" d="M279.623,292.965c-3.814-6.127-13.235-11.366-23.62-11.366c0-14.14-11.46-25.6-25.6-25.6
		c-7.424,0-14.046,3.209-18.722,8.252c-3.61-9.771-12.919-16.785-23.945-16.785c-14.14,0-25.6,11.46-25.6,25.6
		c-14.601,0-26.342,12.211-25.566,26.982c0.725,13.841,13.15,24.218,27.008,24.218h211.891c0-14.14-11.46-25.6-25.6-25.6
		c0-14.14-11.46-25.6-25.6-25.6c-11.537,0-21.282,7.629-24.491,18.108c-1.382,4.531-5.734,7.492-10.479,7.492l0,0
		C285.272,298.665,281.756,296.387,279.623,292.965"/>
	<path style="fill:#7F5B53;" d="M426.667,344.98c0,7.415-6.007,13.423-13.423,13.423H98.756c-7.415,0-13.423-6.007-13.423-13.423
		v-7.296c0-7.407,6.007-13.414,13.423-13.414h314.487c7.415,0,13.423,6.007,13.423,13.414V344.98z"/>
	<polygon style="fill:#AF8066;" points="349.867,503.467 162.133,503.467 110.933,358.4 401.067,358.4 	"/>
	<path style="fill:#D9AA94;" d="M369.603,447.546l-16.631-9.634c-6.972-4.181-15.821-3.499-22.059,1.707l-12.979,10.812
		c-7.049,5.879-15.676,9.967-24.849,10.351c-8.704,0.367-16.512-2.099-20.924-7.407l-33.229-35.243
		c-10.129-10.129-18.313-10.624-33.314-4.437c-8.815,3.635-16.384,12.971-26.419,12.971c-12.134,0-20.83-4.557-25.6-8.533
		l-31.13-27.051l39.663,112.384h187.733L369.603,447.546z"/>
	<path style="fill:#7F5B53;" d="M409.6,512H93.867c-4.71,0-8.533-3.823-8.533-8.533c0-4.71,3.823-8.533,8.533-8.533H409.6
		c4.71,0,8.533,3.823,8.533,8.533C418.133,508.177,414.31,512,409.6,512"/>
	<path style="fill:#FFFFFF;" d="M247.733,128c-18.825,0-34.133-15.309-34.133-34.133s15.309-34.133,34.133-34.133
		s34.133,15.309,34.133,34.133S266.557,128,247.733,128"/>
</g>
<g>
</g>
<g>
</g>
<g>
</g>
<g>
</g>
<g>
</g>
<g>
</g>
<g>
</g>
<g>
</g>
<g>
</g>
<g>
</g>
<g>
</g>
<g>
</g>
<g>
</g>
<g>
</g>
<g>
</g>
</svg>
