<?xml version="1.0" encoding="iso-8859-1"?>
<!-- Generator: Adobe Illustrator 19.0.0, SVG Export Plug-In . SVG Version: 6.00 Build 0)  -->
<svg version="1.1" id="Layer_1" xmlns="http://www.w3.org/2000/svg" xmlns:xlink="http://www.w3.org/1999/xlink" x="0px" y="0px"
	 viewBox="0 0 512 512" style="enable-background:new 0 0 512 512;" xml:space="preserve">
<g>
	<g>
		<path style="fill:#5ABA63;" d="M239.613,227.995C181.149,128.858,89.284,84.653,56.403,95.457
			c62.681,42.201,84.74,158.104,156.559,225.627h43.034C255.997,268.79,255.189,254.776,239.613,227.995"/>
		<path style="fill:#5ABA63;" d="M272.387,227.995c58.463-99.137,150.328-143.343,183.209-132.539
			c-62.681,42.201-84.74,158.104-156.559,225.627h-43.034C256.003,268.79,256.811,254.776,272.387,227.995"/>
	</g>
	<g>
		<path style="fill:#91CF96;" d="M149.861,128.347c-10.483-7.532-20.74-13.737-30.555-18.796c-1.675,3.193-1.328,7.185,1.293,9.954
			c20.879,22.051,36.048,53.812,52.103,87.431c19.126,40.04,39.025,81.243,71.194,114.15h12.106c0-4.452-0.009-8.539-0.035-12.47
			c-30-30.868-49.169-70.569-67.601-109.16C176.094,173.759,164.301,149.148,149.861,128.347"/>
		<path style="fill:#91CF96;" d="M323.635,199.454c-18.432,38.591-37.602,78.293-67.601,109.16
			c-0.026,3.931-0.035,8.018-0.035,12.47h12.106c32.169-32.907,52.068-74.11,71.194-114.15
			c16.054-33.618,31.223-65.38,52.103-87.431c2.621-2.76,2.968-6.751,1.293-9.954c-9.815,5.059-20.072,11.264-30.555,18.796
			C347.699,149.156,335.906,173.758,323.635,199.454"/>
		<path style="fill:#91CF96;" d="M256,329.763c-4.79,0-8.678-3.888-8.678-8.678V121.492c0-4.79,3.888-8.678,8.678-8.678
			c4.79,0,8.678,3.888,8.678,8.678v199.593C264.678,325.875,260.79,329.763,256,329.763"/>
	</g>
	<path style="fill:#F9D70B;" d="M282.034,95.458c0,14.379-11.655,26.034-26.034,26.034s-26.034-11.655-26.034-26.034
		S241.621,69.424,256,69.424S282.034,81.078,282.034,95.458"/>
	<g>
		<path style="fill:#F0EDE0;" d="M308.068,78.102c-11.412,0-21.712,1.796-29.462,4.677c2.117,3.766,3.428,8.053,3.428,12.679
			s-1.31,8.912-3.428,12.679c7.749,2.881,18.05,4.677,29.462,4.677c23.96,0,43.39-7.767,43.39-17.356S332.028,78.102,308.068,78.102
			"/>
		<path style="fill:#F0EDE0;" d="M256,69.424c4.625,0,8.912,1.31,12.678,3.428c2.881-7.749,4.677-18.05,4.677-29.462
			C273.356,19.43,265.589,0,256,0c-9.589,0-17.356,19.43-17.356,43.39c0,11.412,1.796,21.712,4.677,29.462
			C247.088,70.734,251.375,69.424,256,69.424"/>
		<path style="fill:#F0EDE0;" d="M229.966,95.458c0-4.625,1.31-8.912,3.428-12.679c-7.749-2.881-18.05-4.677-29.462-4.677
			c-23.96,0-43.39,7.767-43.39,17.356s19.43,17.356,43.39,17.356c11.412,0,21.712-1.796,29.462-4.677
			C231.276,104.37,229.966,100.083,229.966,95.458"/>
	</g>
	<g>
		<path style="fill:#CBC7B5;" d="M243.325,72.849c-1.822-4.886-3.133-10.873-3.914-17.434c-2.386-3.029-4.981-6.075-7.958-9.051
			c-16.939-16.939-36.17-25.183-42.956-18.406c-6.777,6.777,1.467,26.008,18.415,42.956c2.977,2.977,6.014,5.571,9.042,7.958
			c6.569,0.772,12.548,2.091,17.434,3.914C235.732,78.611,239.16,75.192,243.325,72.849"/>
		<path style="fill:#CBC7B5;" d="M323.499,27.959c-6.777-6.777-26.008,1.467-42.956,18.406c-2.977,2.977-5.563,6.023-7.958,9.051
			c-0.772,6.561-2.091,12.548-3.914,17.434c4.174,2.343,7.593,5.762,9.936,9.936c4.886-1.822,10.874-3.141,17.434-3.914
			c3.029-2.395,6.075-4.981,9.051-7.958C322.032,53.967,330.276,34.736,323.499,27.959"/>
	</g>
	<path style="fill:#7F5B53;" d="M429.559,342.149c0,7.541-6.109,13.65-13.65,13.65H96.091c-7.541,0-13.65-6.109-13.65-13.65v-7.42
		c0-7.533,6.109-13.642,13.65-13.642h319.818c7.541,0,13.65,6.109,13.65,13.642V342.149z"/>
	<polygon style="fill:#AF8066;" points="351.458,503.322 160.542,503.322 108.475,355.797 403.525,355.797 	"/>
	<path style="fill:#D9AA94;" d="M371.529,446.454l-16.913-9.797c-7.09-4.252-16.089-3.558-22.433,1.736l-13.199,10.995
		c-7.168,5.979-15.941,10.136-25.27,10.526c-8.852,0.373-16.792-2.135-21.278-7.533l-33.792-35.84
		c-10.301-10.301-18.623-10.804-33.879-4.513c-8.964,3.697-16.662,13.191-26.867,13.191c-12.34,0-21.183-4.634-26.034-8.678
		l-31.657-27.509l40.335,114.289h190.915L371.529,446.454z"/>
	<path style="fill:#7F5B53;" d="M412.203,512H91.119c-4.79,0-8.678-3.888-8.678-8.678s3.888-8.678,8.678-8.678h321.085
		c4.79,0,8.678,3.888,8.678,8.678S416.994,512,412.203,512"/>
</g>
<g>
</g>
<g>
</g>
<g>
</g>
<g>
</g>
<g>
</g>
<g>
</g>
<g>
</g>
<g>
</g>
<g>
</g>
<g>
</g>
<g>
</g>
<g>
</g>
<g>
</g>
<g>
</g>
<g>
</g>
</svg>
