<?xml version="1.0" encoding="iso-8859-1"?>
<!-- Generator: Adobe Illustrator 19.0.0, SVG Export Plug-In . SVG Version: 6.00 Build 0)  -->
<svg version="1.1" id="Layer_1" xmlns="http://www.w3.org/2000/svg" xmlns:xlink="http://www.w3.org/1999/xlink" x="0px" y="0px"
	 viewBox="0 0 512 512" style="enable-background:new 0 0 512 512;" xml:space="preserve">
<path style="fill:#2C3E50;" d="M342.173,256.992c-9.426,0-17.067-7.642-17.067-17.067V103.928h-38.014
	c-9.426,0-17.067-7.642-17.067-17.067s7.642-17.067,17.067-17.067h55.081c9.426,0,17.067,7.642,17.067,17.067v153.064
	C359.24,249.35,351.6,256.992,342.173,256.992z"/>
<path style="fill:#36495E;" d="M276.46,103.928H180.46c-10.618,0-18.653-9.603-16.805-20.04l12.35-69.793
	C177.445,5.942,184.53,0,192.809,0h71.301c8.279,0,15.364,5.942,16.805,14.094l12.35,69.793
	C295.116,94.343,287.058,103.928,276.46,103.928z"/>
<path style="fill:#2C3E50;" d="M293.265,83.887l-12.35-69.793C279.474,5.942,272.389,0,264.11,0h-35.651v103.928h48
	C287.058,103.928,295.116,94.343,293.265,83.887z"/>
<path style="fill:#36495E;" d="M264.114,401.651H192.81c-9.421,0-17.06-7.634-17.067-17.053c0,0-12.349-81.292-12.349-144.677
	c0-9.426,7.642-17.067,17.067-17.067h96.002c9.426,0,17.067,7.642,17.067,17.067c0,63.304-12.349,144.665-12.349,144.665
	C281.182,394.009,273.54,401.651,264.114,401.651z"/>
<path style="fill:#2C3E50;" d="M276.463,222.852H228.46v178.799h35.654c9.426,0,17.067-7.642,17.067-17.067
	c0,0,12.349-81.359,12.349-144.665C293.53,230.493,285.889,222.852,276.463,222.852z"/>
<path style="fill:#6A82A1;" d="M287.091,256.992H169.827c-9.426,0-17.067-7.642-17.067-17.067V86.86
	c0-9.426,7.642-17.067,17.067-17.067h117.265c9.426,0,17.067,7.642,17.067,17.067v153.064
	C304.159,249.35,296.518,256.992,287.091,256.992z"/>
<path style="fill:#F1F2F2;" d="M213.445,503.06l-49.001-90.705c-7.607-14.082,4.822-22.054,22.608-39.84
	c3.201-3.202,7.541-5,12.069-5h58.67c4.526,0,8.868,1.798,12.069,5c17.795,17.794,30.208,25.769,22.609,39.838l-48.99,90.705
	C237.052,514.958,219.898,515.003,213.445,503.06z"/>
<path style="fill:#36495E;" d="M287.091,69.793h-58.633v187.198h58.633c9.426,0,17.067-7.642,17.067-17.067V86.86
	C304.159,77.435,296.518,69.793,287.091,69.793z"/>
<path style="fill:#E6E7E8;" d="M269.859,372.516c-3.201-3.202-7.541-5-12.069-5h-29.332V512c5.903-0.001,11.804-2.988,15.019-8.942
	l48.99-90.705C300.066,398.284,287.655,390.31,269.859,372.516z"/>
<g>
</g>
<g>
</g>
<g>
</g>
<g>
</g>
<g>
</g>
<g>
</g>
<g>
</g>
<g>
</g>
<g>
</g>
<g>
</g>
<g>
</g>
<g>
</g>
<g>
</g>
<g>
</g>
<g>
</g>
</svg>
