<?xml version="1.0" encoding="iso-8859-1"?>
<!-- Generator: Adobe Illustrator 19.0.0, SVG Export Plug-In . SVG Version: 6.00 Build 0)  -->
<svg version="1.1" id="Layer_1" xmlns="http://www.w3.org/2000/svg" xmlns:xlink="http://www.w3.org/1999/xlink" x="0px" y="0px"
	 viewBox="0 0 512 512" style="enable-background:new 0 0 512 512;" xml:space="preserve">
<path style="fill:#FFDA44;" d="M330.927,137.366L256,112.39l-74.927,24.976l-62.439,224.78L205.392,512h31.876V357.122
	c-11.195-6.479-18.732-18.576-18.732-32.44c0-20.69,16.774-37.463,37.463-37.463s37.463,16.774,37.463,37.463
	c0,13.864-7.536,25.961-18.732,32.44V512h31.876l86.758-149.854L330.927,137.366z"/>
<path style="fill:#FF9811;" d="M330.927,137.366L256,112.39V287.22c20.69,0,37.463,16.774,37.463,37.463
	c0,13.864-7.536,25.961-18.732,32.44V512h31.876l86.758-149.854L330.927,137.366z"/>
<rect x="181.073" style="fill:#78B9EB;" width="149.854" height="137.366"/>
<rect x="256" style="fill:#3C5D76;" width="74.927" height="137.366"/>
<g>
</g>
<g>
</g>
<g>
</g>
<g>
</g>
<g>
</g>
<g>
</g>
<g>
</g>
<g>
</g>
<g>
</g>
<g>
</g>
<g>
</g>
<g>
</g>
<g>
</g>
<g>
</g>
<g>
</g>
</svg>
