<?xml version="1.0" encoding="iso-8859-1"?>
<!-- Generator: Adobe Illustrator 19.0.0, SVG Export Plug-In . SVG Version: 6.00 Build 0)  -->
<svg version="1.1" id="Layer_1" xmlns="http://www.w3.org/2000/svg" xmlns:xlink="http://www.w3.org/1999/xlink" x="0px" y="0px"
	 viewBox="0 0 512 512" style="enable-background:new 0 0 512 512;" xml:space="preserve">
<path style="fill:#A1A1A1;" d="M300.502,352.423h-32.135c-9.334,0-16.901-7.567-16.901-16.901c0-9.334,7.567-16.901,16.901-16.901
	h32.135c36.967,0,67.041-30.075,67.041-67.041s-30.075-67.04-67.041-67.04h-32.135c-9.334,0-16.901-7.567-16.901-16.901
	s7.567-16.901,16.901-16.901h32.135c55.605,0,100.843,45.237,100.843,100.842S356.106,352.423,300.502,352.423z"/>
<path style="fill:#625F69;" d="M271.677,466.931h-20.844v-71.488h-76.618v71.488h-20.844c-18.668,0-33.802,15.133-33.802,33.802l0,0
	c0,6.223,5.044,11.267,11.267,11.267h163.376c6.223,0,11.267-5.044,11.267-11.267l0,0
	C305.479,482.065,290.345,466.931,271.677,466.931z"/>
<path style="fill:#A1A1A1;" d="M249.174,401.581h-73.303c-22.231,0-40.766-17.009-42.671-39.159l-22.546-273.41h203.74
	l-22.547,273.411C289.942,384.572,271.406,401.581,249.174,401.581z"/>
<path style="fill:#DE9833;" d="M314.393,89.012c0-24.031-17.467-43.971-40.394-47.847C264.041,17.008,240.273,0,212.524,0
	s-51.517,17.008-61.475,41.165c-22.928,3.876-40.394,23.816-40.394,47.847"/>
<path style="fill:#F3A938;" d="M212.524,0c-27.75,0-51.517,17.008-61.475,41.165c-22.928,3.876-40.394,23.816-40.394,47.847h101.87
	V0z"/>
<path style="fill:#827E8C;" d="M212.524,395.443h-38.309v71.488h-20.844c-18.668,0-33.802,15.133-33.802,33.802l0,0
	c0,6.223,5.044,11.267,11.267,11.267h81.688V395.443z"/>
<path style="fill:#D6D6D6;" d="M212.524,401.581h-36.651c-22.231,0-40.766-17.009-42.671-39.159l-22.547-273.41h101.87V401.581z"/>
<g>
</g>
<g>
</g>
<g>
</g>
<g>
</g>
<g>
</g>
<g>
</g>
<g>
</g>
<g>
</g>
<g>
</g>
<g>
</g>
<g>
</g>
<g>
</g>
<g>
</g>
<g>
</g>
<g>
</g>
</svg>
