<?xml version="1.0" encoding="iso-8859-1"?>
<!-- Generator: Adobe Illustrator 19.0.0, SVG Export Plug-In . SVG Version: 6.00 Build 0)  -->
<svg version="1.1" id="Layer_1" xmlns="http://www.w3.org/2000/svg" xmlns:xlink="http://www.w3.org/1999/xlink" x="0px" y="0px"
	 viewBox="0 0 512 512" style="enable-background:new 0 0 512 512;" xml:space="preserve">
<path style="fill:#449CC2;" d="M345.83,512l-182.579-0.605c-6.455-0.022-11.869-4.879-12.588-11.293l-48.113-429.25l306.901,1.018
	l-50.958,428.92C357.731,507.2,352.285,512.02,345.83,512z"/>
<path style="fill:#81C5E0;" d="M256.002,511.701l-92.75-0.308c-6.455-0.022-11.869-4.879-12.588-11.293L102.551,70.852
	l153.453,0.508L256.002,511.701z"/>
<path style="fill:#DE9833;" d="M409.452,71.887c0-31.997-25.939-57.936-57.936-57.936c-14.761,0-28.225,5.53-38.456,14.619
	C299.936,11.218,279.128,0,255.694,0c-23.29,0-43.981,11.085-57.118,28.256c-10.186-8.9-23.504-14.304-38.092-14.304
	c-31.997,0-57.936,25.939-57.936,57.936"/>
<polygon style="fill:#8E572E;" points="409.452,71.887 102.549,71.887 114.873,178.636 397.128,178.636 "/>
<polygon style="fill:#AF6A3A;" points="256.002,71.887 102.549,71.887 114.873,178.636 256.002,178.636 "/>
<path style="fill:#F3A938;" d="M255.694,0c-23.29,0-43.981,11.085-57.118,28.256c-10.186-8.9-23.504-14.304-38.092-14.304
	c-31.997,0-57.936,25.939-57.936,57.936h153.453L255.694,0z"/>
<g>
</g>
<g>
</g>
<g>
</g>
<g>
</g>
<g>
</g>
<g>
</g>
<g>
</g>
<g>
</g>
<g>
</g>
<g>
</g>
<g>
</g>
<g>
</g>
<g>
</g>
<g>
</g>
<g>
</g>
</svg>
