<?xml version="1.0" encoding="iso-8859-1"?>
<!-- Generator: Adobe Illustrator 19.0.0, SVG Export Plug-In . SVG Version: 6.00 Build 0)  -->
<svg version="1.1" id="Layer_1" xmlns="http://www.w3.org/2000/svg" xmlns:xlink="http://www.w3.org/1999/xlink" x="0px" y="0px"
	 viewBox="0 0 512 512" style="enable-background:new 0 0 512 512;" xml:space="preserve">
<path style="fill:#F1CB30;" d="M442.182,46.545h-69.818V23.273C372.364,10.42,361.944,0,349.091,0H256
	c-12.853,0-23.273,10.42-23.273,23.273v7.758h-69.818c-12.853,0-23.273,10.42-23.273,23.273v23.273H69.818
	c-12.853,0-23.273,10.42-23.273,23.273v117.707c2.465-0.872,5.08-1.344,7.756-1.344l15.517-0.002l23.273-0.002l46.545-0.005
	l23.273-0.002l23.273-0.002h3.992c6.173,0,12.093,2.451,16.457,6.817l26.096,26.093L256,273.385l23.273-23.273l26.095-26.095
	c4.364-4.366,10.283-6.817,16.455-6.817h3.995h23.273h23.273h46.545h23.273h15.515c2.675,0,5.292,0.472,7.758,1.344V69.818
	C465.455,56.965,455.035,46.545,442.182,46.545z"/>
<path style="fill:#FF3F62;" d="M475.606,225.609c-2.714-3.269-6.239-5.682-10.152-7.067c-2.465-0.872-5.083-1.344-7.758-1.344
	h-15.515h-23.273h-46.545h-23.273h-23.273h-3.994c-6.173,0-12.093,2.451-16.455,6.817l-26.096,26.096L256,273.385l-23.273-23.273
	l-26.095-26.095c-4.364-4.366-10.285-6.817-16.457-6.817h-3.994l-23.273,0.002l-23.273,0.002l-46.545,0.005l-23.273,0.002
	l-15.517,0.003c-2.676,0-5.291,0.472-7.756,1.344c-3.913,1.386-7.438,3.798-10.152,7.067c-4.422,5.328-6.24,12.345-4.965,19.15
	l46.545,248.242C80.038,504.024,89.65,512,100.848,512H256h155.152c11.2,0,20.81-7.976,22.874-18.984l46.545-248.255
	C481.846,237.956,480.028,230.937,475.606,225.609z"/>
<g>
	<path style="fill:#E69629;" d="M139.636,124.121v93.083l23.273-0.002l23.273-0.002h3.992c6.173-0.002,12.093,2.451,16.458,6.817
		l26.095,26.093V77.576V54.303V31.03h-69.818c-12.853,0-23.273,10.42-23.273,23.273v23.273v23.273V124.121z"/>
	<path style="fill:#E69629;" d="M325.818,69.818V217.2h23.273h23.273h46.545h23.273h15.515c2.675,0,5.292,0.472,7.758,1.344V69.818
		c0-12.853-10.42-23.273-23.273-23.273h-69.818h-23.273C336.238,46.545,325.818,56.965,325.818,69.818z"/>
</g>
<path style="fill:#D8143A;" d="M232.727,250.112l-26.095-26.095c-4.366-4.366-10.285-6.817-16.458-6.817h-3.992l-23.273,0.002
	l-23.273,0.002l-46.545,0.005l-23.273,0.002l-15.517,0.003c-2.676,0-5.291,0.472-7.756,1.344c-3.913,1.386-7.438,3.798-10.152,7.067
	c-4.422,5.328-6.24,12.347-4.965,19.15l46.545,248.242C80.038,504.024,89.65,512,100.848,512H256V273.385L232.727,250.112z"/>
<g>
</g>
<g>
</g>
<g>
</g>
<g>
</g>
<g>
</g>
<g>
</g>
<g>
</g>
<g>
</g>
<g>
</g>
<g>
</g>
<g>
</g>
<g>
</g>
<g>
</g>
<g>
</g>
<g>
</g>
</svg>
