<?xml version="1.0" encoding="iso-8859-1"?>
<!-- Generator: Adobe Illustrator 19.0.0, SVG Export Plug-In . SVG Version: 6.00 Build 0)  -->
<svg version="1.1" id="Layer_1" xmlns="http://www.w3.org/2000/svg" xmlns:xlink="http://www.w3.org/1999/xlink" x="0px" y="0px"
	 viewBox="0 0 512 512" style="enable-background:new 0 0 512 512;" xml:space="preserve">
<path style="fill:#DEDEE0;" d="M477.547,255.531c10.359-23.198,15.776-48.462,15.776-73.993C493.323,81.437,411.89,0,311.796,0
	C292.506,0,273.734,3.013,256,8.704c-36.15,11.602-67.961,34.392-90.874,65.885C73.441,78.4,0,155.704,0,250.182
	c0,49.675,20.23,96.251,55.882,129.536C57.328,452.907,117.31,512,190.833,512c23.245,0,45.552-5.899,65.167-16.718
	c12.094-6.671,23.167-15.21,32.796-25.401c23.311,15.278,50.593,23.498,78.913,23.498C447.271,493.379,512,428.646,512,349.08
	C512,314.712,499.614,281.485,477.547,255.531z"/>
<path style="fill:#FFB655;" d="M256,155.152c-55.608,0-100.848,45.241-100.848,100.848S200.392,356.848,256,356.848
	S356.848,311.608,356.848,256S311.608,155.152,256,155.152z"/>
<path style="fill:#EE8700;" d="M155.152,256c0,55.608,45.241,100.848,100.848,100.848V155.152
	C200.392,155.152,155.152,200.392,155.152,256z"/>
<path style="fill:#D6D5D8;" d="M155.152,256c0-55.608,45.241-100.848,100.848-100.848V8.704
	c-36.15,11.602-67.961,34.392-90.874,65.885C73.441,78.4,0,155.704,0,250.182c0,49.675,20.23,96.251,55.882,129.536
	C57.328,452.907,117.31,512,190.833,512c23.245,0,45.552-5.899,65.167-16.718V356.848C200.392,356.848,155.152,311.608,155.152,256z
	"/>
<g>
</g>
<g>
</g>
<g>
</g>
<g>
</g>
<g>
</g>
<g>
</g>
<g>
</g>
<g>
</g>
<g>
</g>
<g>
</g>
<g>
</g>
<g>
</g>
<g>
</g>
<g>
</g>
<g>
</g>
</svg>
