<?xml version="1.0" encoding="iso-8859-1"?>
<!-- Generator: Adobe Illustrator 19.0.0, SVG Export Plug-In . SVG Version: 6.00 Build 0)  -->
<svg version="1.1" id="Layer_1" xmlns="http://www.w3.org/2000/svg" xmlns:xlink="http://www.w3.org/1999/xlink" x="0px" y="0px"
	 viewBox="0 0 512 512" style="enable-background:new 0 0 512 512;" xml:space="preserve">
<g>
	<path style="fill:#E6E6E6;" d="M478.895,348.021c14.931,0,27.03,12.112,27.03,27.044s-12.099,27.044-27.03,27.044
		s-27.044-12.112-27.044-27.044S463.964,348.021,478.895,348.021z"/>
	<path style="fill:#E6E6E6;" d="M511.967,207.083c1.146,49.03-27.745,91.45-69.559,110.158
		c-27.381,12.261-50.554,32.156-67.765,56.731c-37.227,53.157-98.936,87.916-168.751,87.916
		c-114.731,0-207.543-93.837-205.87-208.946C1.627,141.679,92.713,51.119,203.977,50.121c34.961-0.324,67.913,8.066,96.859,23.132
		c26.747,13.933,56.596,21.001,86.702,19.248c3.291-0.189,6.609-0.243,9.954-0.148C459.755,93.944,510.512,144.822,511.967,207.083z
		"/>
</g>
<path style="fill:#CCCCCC;" d="M40.486,252.943c1.516-105.097,82.873-191.706,185.657-201.828
	c-7.285-0.711-14.675-1.064-22.164-0.995C92.715,51.118,1.629,141.677,0.024,252.942c-1.673,115.108,91.14,208.946,205.87,208.946
	c6.825,0,13.57-0.343,20.226-0.993C120.914,450.632,38.913,361.199,40.486,252.943z"/>
<path style="fill:#F7B239;" d="M237.077,119.99c48.247,0,87.35,39.102,87.35,87.35c0,48.234-39.102,87.35-87.35,87.35
	c-48.234,0-87.336-39.116-87.336-87.35C149.743,159.092,188.845,119.99,237.077,119.99z"/>
<path style="fill:#E09B2D;" d="M202.344,207.339c0-39.079,25.657-72.152,61.038-83.313c-8.302-2.618-17.135-4.037-26.303-4.037
	c-48.234,0-87.336,39.102-87.336,87.35c0,48.234,39.102,87.35,87.336,87.35c9.168,0,18.001-1.419,26.303-4.038
	C228.001,279.486,202.344,246.408,202.344,207.339z"/>
<g>
	<circle style="fill:#CCCCCC;" cx="396.891" cy="240.684" r="10.116"/>
	<circle style="fill:#CCCCCC;" cx="235.437" cy="364.155" r="10.116"/>
	<circle style="fill:#CCCCCC;" cx="92.246" cy="160.739" r="10.116"/>
</g>
<g>
</g>
<g>
</g>
<g>
</g>
<g>
</g>
<g>
</g>
<g>
</g>
<g>
</g>
<g>
</g>
<g>
</g>
<g>
</g>
<g>
</g>
<g>
</g>
<g>
</g>
<g>
</g>
<g>
</g>
</svg>
