<?xml version="1.0" encoding="iso-8859-1"?>
<!-- Generator: Adobe Illustrator 19.0.0, SVG Export Plug-In . SVG Version: 6.00 Build 0)  -->
<svg version="1.1" id="Layer_1" xmlns="http://www.w3.org/2000/svg" xmlns:xlink="http://www.w3.org/1999/xlink" x="0px" y="0px"
	 viewBox="0 0 496.485 496.485" style="enable-background:new 0 0 496.485 496.485;" xml:space="preserve">
<path style="fill:#B3D8F4;" d="M406.216,219.673c3.171-7.97,4.935-16.648,4.935-25.733c0-32.69-22.589-60.194-52.975-67.752
	L266.581,8.944C262.17,3.299,255.406,0,248.242,0s-13.93,3.299-18.339,8.944l-91.595,117.243
	c-30.386,7.557-52.975,35.061-52.975,67.752c0,9.086,1.764,17.763,4.935,25.733c-29.628,8.074-51.481,35.205-51.481,67.357
	c0,31.811,21.394,58.703,50.544,67.091c6.127,1.763,12.587,2.728,19.274,2.728h5.171h23.841h110.625h110.625h23.841h5.171
	c6.687,0,13.148-0.965,19.274-2.728c29.15-8.387,50.544-35.28,50.544-67.091C457.697,254.878,435.844,227.747,406.216,219.673z"/>
<path style="fill:#78B9EB;" d="M229.904,8.944l-91.595,117.243c-30.386,7.557-52.975,35.061-52.975,67.752
	c0,9.086,1.764,17.763,4.935,25.733c-29.628,8.074-51.481,35.205-51.481,67.357c0,31.811,21.394,58.703,50.544,67.091
	c6.127,1.763,12.587,2.728,19.274,2.728h5.171h23.841h110.625V0C241.079,0,234.313,3.299,229.904,8.944z"/>
<path style="fill:#A78966;" d="M387.879,356.848h-5.171h-23.841H248.242H137.618h-23.841h-5.171c-6.687,0-13.148-0.965-19.274-2.728
	l27.586,124.14c2.366,10.648,11.812,18.224,22.719,18.224h108.606h108.606c10.907,0,20.353-7.576,22.719-18.224l27.586-124.14
	C401.026,355.883,394.566,356.848,387.879,356.848z"/>
<path style="fill:#806749;" d="M137.618,356.848h-23.841h-5.171c-6.687,0-13.148-0.965-19.274-2.728l27.586,124.14
	c2.366,10.648,11.812,18.224,22.719,18.224h108.606V356.848H137.618z"/>
<g>
</g>
<g>
</g>
<g>
</g>
<g>
</g>
<g>
</g>
<g>
</g>
<g>
</g>
<g>
</g>
<g>
</g>
<g>
</g>
<g>
</g>
<g>
</g>
<g>
</g>
<g>
</g>
<g>
</g>
</svg>
