<?xml version="1.0" encoding="iso-8859-1"?>
<!-- Generator: Adobe Illustrator 19.0.0, SVG Export Plug-In . SVG Version: 6.00 Build 0)  -->
<svg version="1.1" id="Layer_1" xmlns="http://www.w3.org/2000/svg" xmlns:xlink="http://www.w3.org/1999/xlink" x="0px" y="0px"
	 viewBox="0 0 511.998 511.998" style="enable-background:new 0 0 511.998 511.998;" xml:space="preserve">
<path style="fill:#91CC04;" d="M412.659,176.848c6.124-15.223,9.314-31.567,9.314-48.066C421.973,57.771,364.205,0,293.197,0
	c-12.822-0.002-25.324,1.871-37.198,5.427c-25.473,7.629-48.049,23.035-64.627,44.516C127.866,54.542,77.575,108.67,77.575,174.544
	c0,34.181,13.49,66.302,37.374,89.783c2.726,51.479,45.464,92.52,97.606,92.52c6.869,0,13.615-0.735,20.171-2.107
	c8.118-1.699,15.931-4.406,23.273-8.048c8.356-4.146,16.109-9.477,23.004-15.889c0.09,0.051,0.18,0.098,0.268,0.147
	c15.483,8.788,33.044,13.481,51.2,13.481c57.319,0,103.952-46.635,103.952-103.956C434.423,217.349,426.638,194.94,412.659,176.848z
	"/>
<path style="fill:#A78966;" d="M255.999,346.692c-7.342,3.641-15.155,6.347-23.273,8.048v133.986
	c0,12.853,10.42,23.273,23.273,23.273c12.853,0,23.273-10.42,23.273-23.273V330.952c-0.088-0.051-0.178-0.098-0.268-0.147
	C272.109,337.216,264.356,342.547,255.999,346.692z"/>
<g>
	<path style="fill:#317F46;" d="M224.963,186.18c-6.113,0-12.119,2.482-16.448,6.81c-4.344,4.344-6.825,10.333-6.825,16.463
		c0,6.127,2.482,12.117,6.825,16.46c4.329,4.329,10.318,6.813,16.448,6.813c6.127,0,12.131-2.484,16.46-6.813
		c4.329-4.329,6.813-10.333,6.813-16.46c0-6.13-2.484-12.119-6.813-16.463C237.094,188.663,231.09,186.18,224.963,186.18z"/>
	<path style="fill:#317F46;" d="M318.069,186.18c-6.128,0-12.133,2.482-16.462,6.81c-4.329,4.329-6.825,10.333-6.825,16.463
		c0,6.127,2.496,12.131,6.825,16.46c4.329,4.329,10.333,6.813,16.462,6.813c6.111,0,12.117-2.484,16.446-6.813
		c4.329-4.343,6.827-10.333,6.827-16.46c0-6.13-2.498-12.119-6.827-16.463C330.185,188.663,324.181,186.18,318.069,186.18z"/>
	<path style="fill:#317F46;" d="M287.968,115.414c-4.329-4.329-10.333-6.81-16.46-6.81c-6.128,0-12.119,2.482-16.448,6.81
		c-4.344,4.344-6.825,10.333-6.825,16.463c0,6.127,2.482,12.117,6.825,16.46c4.329,4.329,10.333,6.813,16.448,6.813
		c6.127,0,12.131-2.484,16.46-6.813c4.329-4.343,6.827-10.333,6.827-16.46C294.796,125.747,292.297,119.758,287.968,115.414z"/>
</g>
<path style="fill:#79AB03;" d="M255.061,148.337c-4.344-4.343-6.825-10.333-6.825-16.46c0-6.13,2.482-12.119,6.825-16.463
	c0.298-0.298,0.622-0.566,0.939-0.847V5.427c-25.473,7.63-48.049,23.035-64.627,44.516
	c-63.507,4.599-113.797,58.728-113.797,124.601c0,34.181,13.49,66.302,37.374,89.783c2.726,51.479,45.464,92.52,97.606,92.52
	c6.869,0,13.615-0.735,20.171-2.107c8.118-1.699,15.931-4.406,23.273-8.048V149.184C255.684,148.904,255.36,148.635,255.061,148.337
	z M241.423,225.913c-4.329,4.329-10.333,6.813-16.46,6.813c-6.128,0-12.119-2.484-16.448-6.813
	c-4.344-4.343-6.825-10.333-6.825-16.46c0-6.13,2.482-12.119,6.825-16.463c4.329-4.329,10.333-6.81,16.448-6.81
	c6.127,0,12.131,2.482,16.46,6.81c4.329,4.344,6.813,10.333,6.813,16.463C248.235,215.58,245.751,221.584,241.423,225.913z"/>
<g>
</g>
<g>
</g>
<g>
</g>
<g>
</g>
<g>
</g>
<g>
</g>
<g>
</g>
<g>
</g>
<g>
</g>
<g>
</g>
<g>
</g>
<g>
</g>
<g>
</g>
<g>
</g>
<g>
</g>
</svg>
