<?xml version="1.0" encoding="iso-8859-1"?>
<!-- Generator: Adobe Illustrator 19.0.0, SVG Export Plug-In . SVG Version: 6.00 Build 0)  -->
<svg version="1.1" id="Layer_1" xmlns="http://www.w3.org/2000/svg" xmlns:xlink="http://www.w3.org/1999/xlink" x="0px" y="0px"
	 viewBox="0 0 512 512" style="enable-background:new 0 0 512 512;" xml:space="preserve">
<path style="fill:#D1D3D4;" d="M320.688,98.179H191.312c-11.898,0-20.776-10.964-18.331-22.588l12.773-60.716
	C187.577,6.206,195.226,0,204.084,0h103.831c8.859,0,16.508,6.206,18.331,14.875l12.771,60.716
	C341.468,87.235,332.565,98.179,320.688,98.179z M214.394,60.716h83.212l-4.893-23.252h-73.428L214.394,60.716z"/>
<path style="fill:#BCBEC0;" d="M339.018,75.591l-12.771-60.716C324.423,6.206,316.774,0,307.916,0H256v37.463h36.714l4.891,23.252
	H256v37.463h64.688C332.565,98.179,341.468,87.235,339.018,75.591z"/>
<path style="fill:#F1F2F2;" d="M394.291,512H117.709c-10.345,0-18.732-8.387-18.732-18.732V140.163
	c0-10.345,8.387-18.732,18.732-18.732h276.582c10.345,0,18.732,8.387,18.732,18.732v353.105
	C413.023,503.613,404.636,512,394.291,512z"/>
<g>
	<path style="fill:#E6E7E8;" d="M394.291,121.431H256V512h138.291c10.345,0,18.732-8.387,18.732-18.732V140.163
		C413.023,129.818,404.636,121.431,394.291,121.431z"/>
	<path style="fill:#E6E7E8;" d="M430.537,158.895H81.463c-10.345,0-18.732-8.387-18.732-18.732V79.447
		c0-10.345,8.387-18.732,18.732-18.732h349.073c10.345,0,18.732,8.387,18.732,18.732v60.716
		C449.269,150.508,440.882,158.895,430.537,158.895z"/>
	<path style="fill:#E6E7E8;" d="M256,451.271c-10.345,0-18.732-8.387-18.732-18.732V238.356c0-10.345,8.387-18.732,18.732-18.732
		c10.345,0,18.732,8.387,18.732,18.732v194.183C274.732,442.884,266.345,451.271,256,451.271z"/>
	<path style="fill:#E6E7E8;" d="M192.142,451.271c-10.345,0-18.732-8.387-18.732-18.732V238.356
		c0-10.345,8.387-18.732,18.732-18.732s18.732,8.387,18.732,18.732v194.183C210.874,442.884,202.487,451.271,192.142,451.271z"/>
</g>
<g>
	<path style="fill:#D1D3D4;" d="M430.537,60.716H256v98.179h174.537c10.345,0,18.732-8.387,18.732-18.732V79.447
		C449.269,69.103,440.882,60.716,430.537,60.716z"/>
	<path style="fill:#D1D3D4;" d="M256,219.624v231.646c10.345,0,18.732-8.387,18.732-18.732V238.356
		C274.732,228.011,266.345,219.624,256,219.624z"/>
	<path style="fill:#D1D3D4;" d="M319.858,451.271c-10.345,0-18.732-8.387-18.732-18.732V238.356
		c0-10.345,8.387-18.732,18.732-18.732c10.345,0,18.732,8.387,18.732,18.732v194.183
		C338.589,442.884,330.203,451.271,319.858,451.271z"/>
</g>
<g>
</g>
<g>
</g>
<g>
</g>
<g>
</g>
<g>
</g>
<g>
</g>
<g>
</g>
<g>
</g>
<g>
</g>
<g>
</g>
<g>
</g>
<g>
</g>
<g>
</g>
<g>
</g>
<g>
</g>
</svg>
