<?xml version="1.0" encoding="iso-8859-1"?>
<!-- Generator: Adobe Illustrator 19.0.0, SVG Export Plug-In . SVG Version: 6.00 Build 0)  -->
<svg version="1.1" id="Layer_1" xmlns="http://www.w3.org/2000/svg" xmlns:xlink="http://www.w3.org/1999/xlink" x="0px" y="0px"
	 viewBox="0 0 512 512" style="enable-background:new 0 0 512 512;" xml:space="preserve">
<g>
	<path style="fill:#A7AFBA;" d="M319.654,74.724h-16.605V41.514c0-13.735-11.174-24.908-24.908-24.908h-44.281
		c-13.735,0-24.908,11.173-24.908,24.908v33.211h-16.605V41.514C192.346,18.622,210.968,0,233.859,0h44.281
		c22.891,0,41.514,18.622,41.514,41.514V74.724z"/>
	<path style="fill:#A7AFBA;" d="M433.124,107.935v370.854c0,18.266-14.945,33.211-33.211,33.211h-55.351l-33.211-404.065H433.124z"
		/>
</g>
<polygon style="fill:#BEC3CC;" points="344.562,107.935 344.562,512 256,512 222.789,107.935 "/>
<polygon style="fill:#D8DBE2;" points="256,107.935 256,512 167.438,512 134.227,107.935 "/>
<path style="fill:#EDEDEF;" d="M167.438,107.935V512h-55.351c-18.266,0-33.211-14.945-33.211-33.211V107.935H167.438z"/>
<path style="fill:#BEC3CC;" d="M410.984,63.654H101.016c-18.266,0-33.211,14.945-33.211,33.211v33.211h376.389V96.865
	C444.195,78.599,429.25,63.654,410.984,63.654z"/>
<path style="fill:#A7AFBA;" d="M449.73,138.378H62.27c-4.585,0-8.303-3.717-8.303-8.303c0-4.585,3.717-8.303,8.303-8.303H449.73
	c4.586,0,8.303,3.717,8.303,8.303C458.032,134.661,454.316,138.378,449.73,138.378z"/>
<g>
</g>
<g>
</g>
<g>
</g>
<g>
</g>
<g>
</g>
<g>
</g>
<g>
</g>
<g>
</g>
<g>
</g>
<g>
</g>
<g>
</g>
<g>
</g>
<g>
</g>
<g>
</g>
<g>
</g>
</svg>
