<?xml version="1.0" encoding="iso-8859-1"?>
<!-- Generator: Adobe Illustrator 19.0.0, SVG Export Plug-In . SVG Version: 6.00 Build 0)  -->
<svg version="1.1" id="Layer_1" xmlns="http://www.w3.org/2000/svg" xmlns:xlink="http://www.w3.org/1999/xlink" x="0px" y="0px"
	 viewBox="0 0 512 512" style="enable-background:new 0 0 512 512;" xml:space="preserve">
<g>
	<path style="fill:#CCCCCC;" d="M199.239,502.197c-1.598,0-3.217-0.368-4.735-1.141c-5.147-2.62-7.195-8.917-4.575-14.064
		l21.474-42.181c0.498-0.979,1.148-1.874,1.924-2.651c4.086-4.084,10.713-4.088,14.797-0.007c3.39,3.39,3.97,8.523,1.735,12.505
		l-21.293,41.823C206.72,500.108,203.047,502.196,199.239,502.197z"/>
	<path style="fill:#CCCCCC;" d="M312.733,502.197c-3.808,0-7.48-2.087-9.327-5.716l-21.473-42.166
		c-2.61-5.126-0.598-11.412,4.512-14.051c5.108-2.638,11.387-0.671,14.056,4.424l0.015,0.029l21.528,42.273
		c2.62,5.145,0.573,11.444-4.574,14.065C315.95,501.829,314.33,502.197,312.733,502.197z"/>
	<path style="fill:#CCCCCC;" d="M255.986,508.163c-5.777,0-10.458-4.681-10.458-10.458v-41.803c0-5.777,4.681-10.458,10.458-10.458
		c5.777,0,10.458,4.681,10.458,10.458v41.803C266.444,503.482,261.763,508.163,255.986,508.163z"/>
</g>
<path style="fill:#E6E6E6;" d="M392.541,114.149c-13.944,0-22.896,3.277-28.307,9.287c-28.111-24.444-67.573-67.559-71.38-119.599
	h-73.723c-3.807,52.039-43.269,95.155-71.366,119.599c-2.831-3.151-6.651-5.55-11.643-7.111c-4.532-1.436-10.026-2.175-16.677-2.175
	C53.476,114.149,0,187.23,0,277.392c0,90.163,53.476,163.244,119.445,163.244c11.03,0,36.771-2.886,65.3-7.795
	c10.988,9.37,23.091,16.635,35.976,21.362c11.225,4.141,23.05,6.345,35.265,6.345H256c12.201,0,24.026-2.203,35.251-6.331
	c12.884-4.741,24.988-12.006,35.976-21.39l0.014,0.014c28.53,4.908,54.271,7.795,65.3,7.795
	c65.984,0,119.459-73.081,119.459-163.244C512,187.23,458.524,114.149,392.541,114.149z"/>
<g>
	<path style="fill:#CCCCCC;" d="M428.098,171.195v0.014C428.126,171.181,428.098,171.195,428.098,171.195z M147.766,123.436
		c-5.41-6.01-14.362-9.287-28.32-9.287C53.476,114.149,0,187.23,0,277.392c0,90.163,53.476,163.244,119.445,163.244
		c7.934,0,23.454-1.492,42.153-4.154c-53.029-16.663-92.575-81.559-92.575-159.09c0-67.162,29.672-124.844,72.077-149.905"/>
	<path style="fill:#CCCCCC;" d="M241.652,3.837c-1.506,27.554-8.562,101.792-41.428,143.61c0,0-11.95-31.291-52.458-24.012
		c28.097-24.444,67.559-67.559,71.366-119.599C219.132,3.837,241.652,3.837,241.652,3.837z"/>
</g>
<g>
</g>
<g>
</g>
<g>
</g>
<g>
</g>
<g>
</g>
<g>
</g>
<g>
</g>
<g>
</g>
<g>
</g>
<g>
</g>
<g>
</g>
<g>
</g>
<g>
</g>
<g>
</g>
<g>
</g>
</svg>
