<?xml version="1.0" encoding="iso-8859-1"?>
<!-- Generator: Adobe Illustrator 19.0.0, SVG Export Plug-In . SVG Version: 6.00 Build 0)  -->
<svg version="1.1" id="Layer_1" xmlns="http://www.w3.org/2000/svg" xmlns:xlink="http://www.w3.org/1999/xlink" x="0px" y="0px"
	 viewBox="0 0 512.001 512.001" style="enable-background:new 0 0 512.001 512.001;" xml:space="preserve">
<path style="fill:#FF4F19;" d="M256,165.648l87.669-87.669c17.839-17.839,17.839-46.761,0-64.598
	c-17.839-17.839-46.761-17.839-64.598,0L256,36.451l-23.072-23.072c-17.839-17.839-46.761-17.839-64.598,0
	c-17.839,17.839-17.839,46.761,0,64.598L256,165.648"/>
<rect x="45.177" y="165.648" style="fill:#E17858;" width="421.647" height="346.353"/>
<rect x="256" y="165.648" style="fill:#FF4F19;" width="210.824" height="346.353"/>
<rect x="45.177" y="316.236" style="fill:#F2F2F4;" width="421.647" height="45.176"/>
<rect x="256" y="316.236" style="fill:#CFCDD2;" width="210.824" height="45.176"/>
<rect x="233.412" y="165.648" style="fill:#DFDFE1;" width="45.176" height="346.353"/>
<path style="fill:#AF2E08;" d="M343.67,13.379c-17.839-17.839-46.759-17.839-64.598,0L256,36.451v129.197l87.669-87.669
	C361.509,60.14,361.509,31.218,343.67,13.379z"/>
<g>
</g>
<g>
</g>
<g>
</g>
<g>
</g>
<g>
</g>
<g>
</g>
<g>
</g>
<g>
</g>
<g>
</g>
<g>
</g>
<g>
</g>
<g>
</g>
<g>
</g>
<g>
</g>
<g>
</g>
</svg>
