<?xml version="1.0" encoding="iso-8859-1"?>
<!-- Generator: Adobe Illustrator 19.0.0, SVG Export Plug-In . SVG Version: 6.00 Build 0)  -->
<svg version="1.1" id="Layer_1" xmlns="http://www.w3.org/2000/svg" xmlns:xlink="http://www.w3.org/1999/xlink" x="0px" y="0px"
	 viewBox="0 0 512 512" style="enable-background:new 0 0 512 512;" xml:space="preserve">
<path style="fill:#00A3AA;" d="M427.408,491.687c0,11.218-9.094,20.312-20.312,20.312H104.902c-11.218,0-20.312-9.094-20.312-20.312
	V206.403h342.816v285.284H427.408z"/>
<path style="fill:#006D71;" d="M255.406,206.403V512h151.718c11.202,0,20.284-9.082,20.284-20.284V206.403H255.406z"/>
<path style="fill:#FFDC35;" d="M236.903,161.532l2.024-20.159c0.093-0.933,2.351-23.128,7.4-48.4
	c7.323-36.65,16.52-60.103,28.115-71.699C288.16,7.556,306.399,0,325.801,0c19.4,0,37.64,7.556,51.359,21.274
	c28.319,28.319,28.319,74.399,0,102.718c-11.596,11.596-35.048,20.793-71.699,28.115c-25.272,5.049-47.467,7.307-48.4,7.4
	L236.903,161.532z M325.801,33.126c-10.553,0-20.474,4.109-27.936,11.571c-9.793,9.793-18.583,47.573-23.339,79.205
	c31.646-4.765,69.436-13.56,79.211-23.334c15.403-15.404,15.403-40.467,0-55.871C346.274,37.236,336.354,33.126,325.801,33.126z"/>
<path style="fill:#FFEA8D;" d="M274.504,161.532l-20.159-2.024c-0.933-0.093-23.128-2.351-48.4-7.4
	c-36.65-7.323-60.103-16.52-71.699-28.115c-28.319-28.319-28.319-74.398,0-102.718C147.965,7.556,166.204,0,185.604,0
	c19.402,0,37.641,7.556,51.359,21.274c11.596,11.596,20.793,35.048,28.115,71.699c5.049,25.272,7.307,47.467,7.4,48.4
	L274.504,161.532z M185.604,33.126c-10.552,0-20.473,4.109-27.936,11.571c-15.403,15.404-15.403,40.467,0,55.871
	c9.793,9.793,47.573,18.583,79.205,23.339c-4.765-31.646-13.56-69.436-23.334-79.211C206.079,37.236,196.158,33.126,185.604,33.126z
	"/>
<g>
	<rect x="84.59" y="332.411" style="fill:#006D71;" width="342.816" height="60.208"/>
	<rect x="84.59" y="207.638" style="fill:#006D71;" width="342.816" height="20.485"/>
</g>
<g>
	<rect x="255.108" y="206.4" style="fill:#006060;" width="172.298" height="21.719"/>
	<rect x="255.108" y="330.985" style="fill:#006060;" width="172.298" height="61.666"/>
</g>
<rect x="84.59" y="314.741" style="fill:#FFDC35;" width="342.816" height="60.208"/>
<rect x="225.308" y="206.4" style="fill:#FFEA8D;" width="60.208" height="305.597"/>
<path style="fill:#00D9E1;" d="M458.261,145.311c0-11.218-9.094-20.312-20.312-20.312h-363.9c-11.218,0-20.312,9.094-20.312,20.312
	v41.653c0,11.218,9.094,20.312,20.312,20.312h363.9c11.218,0,20.312-9.094,20.312-20.312V145.311z"/>
<path style="fill:#00A3AA;" d="M458.261,145.283c0-11.202-9.082-20.284-20.284-20.284H255.406v82.276h182.572
	c11.202,0,20.284-9.082,20.284-20.284v-41.708H458.261z"/>
<g>
</g>
<g>
</g>
<g>
</g>
<g>
</g>
<g>
</g>
<g>
</g>
<g>
</g>
<g>
</g>
<g>
</g>
<g>
</g>
<g>
</g>
<g>
</g>
<g>
</g>
<g>
</g>
<g>
</g>
</svg>
