<?xml version="1.0" encoding="iso-8859-1"?>
<!-- Generator: Adobe Illustrator 19.0.0, SVG Export Plug-In . SVG Version: 6.00 Build 0)  -->
<svg version="1.1" id="Layer_1" xmlns="http://www.w3.org/2000/svg" xmlns:xlink="http://www.w3.org/1999/xlink" x="0px" y="0px"
	 viewBox="0 0 512 512" style="enable-background:new 0 0 512 512;" xml:space="preserve">
<circle style="fill:#D6E5F6;" cx="116.364" cy="349.091" r="93.091"/>
<circle style="fill:#A4C6EC;" cx="395.636" cy="349.091" r="93.091"/>
<path style="fill:#385C8E;" d="M511.991,348.734c-0.025-8.164-0.901-16.13-2.534-23.822l-28.63-257.663
	c-1.308-11.787-11.27-20.703-23.13-20.703h-62.061c-12.851,0-23.273,10.42-23.273,23.273s10.422,23.273,23.273,23.273h41.23
	l17.276,155.479c-17.203-10.052-37.185-15.843-58.506-15.843c-56.194,0-103.208,40.043-114.021,93.091h-51.229
	c-10.811-53.048-57.827-93.091-114.022-93.091c-21.319,0-41.303,5.79-58.506,15.843L75.134,93.091h41.23
	c12.854,0,23.273-10.42,23.273-23.273s-10.418-23.273-23.273-23.273H54.303c-11.858,0-21.819,8.917-23.13,20.703L2.544,324.912
	c-1.632,7.691-2.509,15.658-2.535,23.822c0,0.085-0.006,0.169-0.006,0.254c0,0.034-0.003,0.07-0.003,0.102
	c0,64.163,52.202,116.364,116.364,116.364c56.196,0,103.211-40.042,114.022-93.091h51.229
	c10.813,53.049,57.827,93.091,114.021,93.091c64.164,0,116.364-52.201,116.364-116.364c0-0.033-0.002-0.068-0.002-0.102
	C511.997,348.903,511.994,348.818,511.991,348.734z M116.364,418.909c-38.146,0-69.226-30.754-69.79-68.769l1.939-17.459
	c7.402-30.602,35.007-53.408,67.851-53.408c38.499,0,69.818,31.322,69.818,69.818C186.182,387.589,154.861,418.909,116.364,418.909z
	 M395.636,418.909c-38.496,0-69.818-31.32-69.818-69.818s31.322-69.818,69.818-69.818c32.846,0,60.449,22.806,67.851,53.408
	l1.941,17.459C464.863,388.155,433.783,418.909,395.636,418.909z"/>
<path style="fill:#1D3366;" d="M511.998,348.988c-0.002-0.085-0.005-0.169-0.008-0.254c-0.025-8.164-0.901-16.13-2.534-23.822
	l-28.63-257.663c-1.308-11.787-11.27-20.703-23.13-20.703h-62.061c-12.851,0-23.273,10.42-23.273,23.273
	s10.422,23.273,23.273,23.273h41.23l17.276,155.479c-17.203-10.052-37.185-15.843-58.506-15.843
	c-56.194,0-103.208,40.043-114.021,93.091H256v46.545h25.616c10.813,53.049,57.827,93.091,114.021,93.091
	c64.164,0,116.364-52.201,116.364-116.364C512,349.058,511.998,349.023,511.998,348.988z M395.636,418.909
	c-38.496,0-69.818-31.32-69.818-69.818s31.322-69.818,69.818-69.818c32.846,0,60.449,22.806,67.851,53.408l1.941,17.459
	C464.863,388.155,433.783,418.909,395.636,418.909z"/>
<g>
</g>
<g>
</g>
<g>
</g>
<g>
</g>
<g>
</g>
<g>
</g>
<g>
</g>
<g>
</g>
<g>
</g>
<g>
</g>
<g>
</g>
<g>
</g>
<g>
</g>
<g>
</g>
<g>
</g>
</svg>
