<?xml version="1.0" encoding="iso-8859-1"?>
<!-- Generator: Adobe Illustrator 19.0.0, SVG Export Plug-In . SVG Version: 6.00 Build 0)  -->
<svg version="1.1" id="Layer_1" xmlns="http://www.w3.org/2000/svg" xmlns:xlink="http://www.w3.org/1999/xlink" x="0px" y="0px"
	 viewBox="0 0 512 512" style="enable-background:new 0 0 512 512;" xml:space="preserve">
<polygon style="fill:#98E1E2;" points="107.264,381.669 120.391,512 256.001,512 278.262,359.408 "/>
<polygon style="fill:#74D1D2;" points="404.736,381.669 256.001,359.408 256.001,512 391.609,512 "/>
<path style="fill:#98E1E2;" d="M256.001,66.783c-36.161,0-36.161,25.558-72.321,25.558s-36.161-25.558-72.321-25.558
	c-24.954,0-32.688,12.172-46.969,19.715l8.504,85.022c0.91,9.08,5.014,23.187,9.121,31.349l9.229,19.74l187.018,22.261
	L256.001,66.783z"/>
<path style="fill:#74D1D2;" d="M400.641,66.783c-36.161,0-36.161,25.558-72.321,25.558c-36.159,0-36.161-25.558-72.319-25.558
	V244.87l164.755-22.261l11.718-24.686c2.738-5.441,5.474-14.846,6.081-20.899l9.056-90.525
	C433.329,78.955,425.597,66.783,400.641,66.783z"/>
<path style="fill:#C8FEFF;" d="M256.001,0h-200.3l8.688,86.498c14.281-7.543,22.015-19.715,46.969-19.715
	c36.161,0,36.161,25.558,72.32,25.558s36.162-25.558,72.322-25.558l22.261-33.391L256.001,0z"/>
<path style="fill:#98E1E2;" d="M256.001,0v66.783c36.159,0,36.159,25.558,72.32,25.558s36.161-25.558,72.321-25.558
	c24.956,0,32.688,12.172,46.969,19.716L456.299,0H256.001z"/>
<polygon style="fill:#74D1D2;" points="91.244,222.609 107.264,381.669 206.363,381.669 226.007,302.139 201.081,222.609 "/>
<polygon style="fill:#3C95AB;" points="420.756,222.609 310.919,222.609 286,302.139 305.637,381.669 404.736,381.669 "/>
<polygon style="fill:#51C0C2;" points="201.081,222.609 206.363,381.669 305.637,381.669 310.919,222.609 "/>
<g>
</g>
<g>
</g>
<g>
</g>
<g>
</g>
<g>
</g>
<g>
</g>
<g>
</g>
<g>
</g>
<g>
</g>
<g>
</g>
<g>
</g>
<g>
</g>
<g>
</g>
<g>
</g>
<g>
</g>
</svg>
