<?xml version="1.0" encoding="iso-8859-1"?>
<!-- Generator: Adobe Illustrator 19.0.0, SVG Export Plug-In . SVG Version: 6.00 Build 0)  -->
<svg version="1.1" id="Layer_1" xmlns="http://www.w3.org/2000/svg" xmlns:xlink="http://www.w3.org/1999/xlink" x="0px" y="0px"
	 viewBox="0 0 512 512" style="enable-background:new 0 0 512 512;" xml:space="preserve">
<path style="fill:#B87FD9;" d="M512,100.848C512,45.241,466.759,0,411.151,0c-31.161,0-59.062,14.212-77.576,36.489
	C315.062,14.212,287.161,0,256,0s-59.062,14.212-77.576,36.489C159.91,14.212,132.009,0,100.848,0C45.241,0,0,45.241,0,100.848
	c0,53.2,41.415,96.88,93.693,100.566C83.513,217.161,77.576,235.895,77.576,256c0,53.2,41.415,96.88,93.693,100.566
	c-10.179,15.746-16.117,34.481-16.117,54.585C155.152,466.759,200.392,512,256,512s100.848-45.241,100.848-100.848
	c0-20.105-5.938-38.839-16.117-54.585C393.01,352.88,434.424,309.2,434.424,256c0-20.105-5.938-38.839-16.117-54.585
	C470.585,197.728,512,154.048,512,100.848z"/>
<path style="fill:#A258CD;" d="M512,100.848C512,45.241,466.759,0,411.151,0c-31.161,0-59.062,14.212-77.576,36.489
	C315.062,14.212,287.161,0,256,0s-59.062,14.212-77.576,36.489C159.91,14.212,132.009,0,100.848,0C45.241,0,0,45.241,0,100.848
	c0,53.2,41.415,96.88,93.693,100.566C83.513,217.161,77.576,235.895,77.576,256c0,53.2,41.415,96.88,93.693,100.566
	c-10.179,15.746-16.117,34.481-16.117,54.585C155.152,466.759,200.392,512,256,512s100.848-45.241,100.848-100.848
	c0-20.105-5.938-38.839-16.117-54.585C393.01,352.88,434.424,309.2,434.424,256c0-20.105-5.938-38.839-16.117-54.585
	C470.585,197.728,512,154.048,512,100.848z"/>
<g>
	<path style="fill:#B87FD9;" d="M310.303,100.848c0-29.943-24.36-54.303-54.303-54.303v108.606
		C285.943,155.152,310.303,130.791,310.303,100.848z"/>
	<path style="fill:#B87FD9;" d="M411.151,46.545c-29.943,0-54.303,24.36-54.303,54.303s24.36,54.303,54.303,54.303
		c29.943,0,54.303-24.36,54.303-54.303S441.094,46.545,411.151,46.545z"/>
	<path style="fill:#B87FD9;" d="M333.576,201.697c-29.943,0-54.303,24.36-54.303,54.303c0,29.943,24.36,54.303,54.303,54.303
		s54.303-24.36,54.303-54.303C387.879,226.057,363.518,201.697,333.576,201.697z"/>
	<path style="fill:#B87FD9;" d="M310.303,411.151c0-29.943-24.36-54.303-54.303-54.303v108.606
		C285.943,465.455,310.303,441.094,310.303,411.151z"/>
</g>
<g>
	<path style="fill:#933EC5;" d="M155.152,100.848c0-29.943-24.36-54.303-54.303-54.303s-54.303,24.36-54.303,54.303
		s24.36,54.303,54.303,54.303S155.152,130.791,155.152,100.848z"/>
	<path style="fill:#933EC5;" d="M201.697,100.848c0,29.943,24.36,54.303,54.303,54.303V46.545
		C226.057,46.545,201.697,70.906,201.697,100.848z"/>
	<path style="fill:#933EC5;" d="M232.727,256c0-29.943-24.36-54.303-54.303-54.303s-54.303,24.36-54.303,54.303
		c0,29.943,24.36,54.303,54.303,54.303S232.727,285.943,232.727,256z"/>
	<path style="fill:#933EC5;" d="M201.697,411.151c0,29.943,24.36,54.303,54.303,54.303V356.848
		C226.057,356.848,201.697,381.209,201.697,411.151z"/>
</g>
<path style="fill:#6D2C93;" d="M201.697,411.151c0-29.943,24.36-54.303,54.303-54.303V155.152c-29.943,0-54.303-24.36-54.303-54.303
	S226.057,46.545,256,46.545V0c-31.161,0-59.062,14.212-77.576,36.489C159.91,14.212,132.009,0,100.848,0
	C45.241,0,0,45.241,0,100.848c0,53.2,41.415,96.88,93.693,100.566C83.513,217.161,77.576,235.895,77.576,256
	c0,53.2,41.415,96.88,93.693,100.566c-10.179,15.746-16.117,34.481-16.117,54.585C155.152,466.759,200.392,512,256,512v-46.545
	C226.057,465.455,201.697,441.094,201.697,411.151z M100.848,155.152c-29.943,0-54.303-24.36-54.303-54.303
	s24.36-54.303,54.303-54.303s54.303,24.36,54.303,54.303S130.791,155.152,100.848,155.152z M178.424,310.303
	c-29.943,0-54.303-24.36-54.303-54.303c0-29.943,24.36-54.303,54.303-54.303s54.303,24.36,54.303,54.303
	C232.727,285.943,208.367,310.303,178.424,310.303z"/>
<g>
</g>
<g>
</g>
<g>
</g>
<g>
</g>
<g>
</g>
<g>
</g>
<g>
</g>
<g>
</g>
<g>
</g>
<g>
</g>
<g>
</g>
<g>
</g>
<g>
</g>
<g>
</g>
<g>
</g>
</svg>
