<?xml version="1.0" encoding="iso-8859-1"?>
<!-- Generator: Adobe Illustrator 19.0.0, SVG Export Plug-In . SVG Version: 6.00 Build 0)  -->
<svg version="1.1" id="Layer_1" xmlns="http://www.w3.org/2000/svg" xmlns:xlink="http://www.w3.org/1999/xlink" x="0px" y="0px"
	 viewBox="0 0 511.999 511.999" style="enable-background:new 0 0 511.999 511.999;" xml:space="preserve">
<path style="fill:#B27214;" d="M255.626,209.13c-5.075,0-9.19-4.115-9.19-9.19V43.757c0-5.075,4.115-9.19,9.19-9.19
	c5.075,0,9.19,4.115,9.19,9.19V199.94C264.815,205.017,260.702,209.13,255.626,209.13z"/>
<path style="fill:#564C89;" d="M368.983,231.37c-3.627,0-7.181,0.343-10.624,1.005c6.458-9.178,10.244-20.365,10.244-32.435
	c0-31.197-25.291-56.489-56.501-56.489c-30.668,0-55.617,24.463-56.437,54.946l-0.078-0.005
	c-0.822-30.481-25.772-54.941-56.462-54.941c-31.197,0-56.489,25.291-56.489,56.489c0,11.984,3.737,23.122,10.121,32.263
	c-3.161-0.551-6.421-0.833-9.742-0.833c-31.197,0-56.489,25.291-56.489,56.489s25.291,56.501,56.489,56.501
	c1.642,0,3.259-0.074,4.865-0.208c-3.37,7.23-5.245,15.305-5.245,23.821c0,31.197,25.291,56.501,56.489,56.501
	c3.517,0,6.984-0.331,10.317-0.943c-6.274,9.08-9.925,20.096-9.925,31.969c0,31.21,25.291,56.489,56.489,56.489
	c7.695,0,15.023-1.532,21.713-4.326c20.414-8.504,34.775-28.649,34.775-52.163c0-11.8-3.627-22.755-9.815-31.81
	c3.063,0.515,6.213,0.784,9.423,0.784c31.21,0,56.501-25.303,56.501-56.501c0-8.541-1.899-16.64-5.281-23.882v-0.012
	c1.863,0.184,3.75,0.282,5.661,0.282c31.197,0,56.489-25.303,56.489-56.501C425.472,256.662,400.181,231.37,368.983,231.37z"/>
<path style="fill:#9AD14B;" d="M255.626,127.449c-35.192,0-67.051-14.263-90.124-37.336C142.441,67.051,128.178,35.192,128.178,0
	C198.562,0,255.626,57.052,255.626,127.449z"/>
<path style="fill:#90BC42;" d="M255.626,127.449L128.178,0C198.562,0,255.626,57.052,255.626,127.449z"/>
<path style="fill:#423D72;" d="M358.65,287.859c0-22.977,13.726-42.735,33.418-51.56c-4.203-1.885-8.672-3.283-13.343-4.096
	c-3.161-0.55-6.421-0.833-9.742-0.833c-15.711,0-29.921,6.42-40.161,16.773c-16.221-9.929-27.055-27.796-27.055-48.203
	c0-22.977,13.726-42.735,33.418-51.56c-4.203-1.885-8.672-3.283-13.343-4.096c-3.161-0.55-6.421-0.833-9.742-0.833
	c-31.197,0-56.489,25.291-56.489,56.49c0,12.274,3.927,23.626,10.577,32.895c-0.029-0.005-0.059-0.013-0.088-0.018
	c-3.161-0.551-6.421-0.833-9.742-0.833c-15.586,0-29.699,6.313-39.919,16.523c-16.552-9.852-27.65-27.909-27.65-48.566
	c0-22.977,13.726-42.735,33.418-51.56c-4.203-1.885-8.672-3.283-13.343-4.096c-3.161-0.55-6.421-0.833-9.742-0.833
	c-31.197,0-56.489,25.291-56.489,56.49c0,11.997,3.751,23.114,10.129,32.265c-0.002,0-0.005-0.001-0.007-0.001
	c-3.161-0.55-6.421-0.833-9.742-0.833c-31.197,0-56.489,25.291-56.489,56.49c0,31.197,25.291,56.5,56.489,56.5
	c1.642,0,3.259-0.074,4.865-0.208c0.009,0,0.016-0.001,0.025-0.002c-3.373,7.241-5.269,15.31-5.269,23.823
	c0,31.197,25.291,56.501,56.489,56.501c1.642,0,3.259-0.074,4.865-0.208c1.848-0.157,3.665-0.414,5.456-0.746
	c-6.258,9.093-9.929,20.107-9.929,31.98c0,31.197,25.291,56.501,56.489,56.501c1.642,0,3.259-0.074,4.865-0.208
	c6.445-0.549,12.578-2.187,18.225-4.721c-19.695-8.829-33.423-28.594-33.423-51.571c0-20.105,10.51-37.746,26.33-47.754
	c10.237,10.327,24.426,16.728,40.112,16.728c1.642,0,3.259-0.074,4.865-0.208c6.445-0.549,12.578-2.187,18.225-4.721
	c-19.695-8.829-33.423-28.594-33.423-51.571c0-18.543,8.944-34.986,22.745-45.283c10.341,13.186,26.404,21.669,44.458,21.669
	c1.642,0,3.259-0.074,4.865-0.208c6.445-0.549,12.578-2.187,18.225-4.721C372.378,330.603,358.65,310.837,358.65,287.859z
	 M132.683,287.859c0-20.206,10.618-37.92,26.572-47.901c10.217,10.184,24.308,16.482,39.872,16.482c1.642,0,3.259-0.074,4.865-0.208
	c2.275-0.194,4.509-0.531,6.699-0.988c-6.796,9.326-10.816,20.805-10.816,33.227c0,8.315,1.811,16.204,5.037,23.314
	c-1.903-0.192-3.832-0.301-5.785-0.301c-17.889,0-33.823,8.324-44.174,21.3C141.422,322.464,132.683,306.187,132.683,287.859z
	 M256.006,399.011c-15.835,0-30.14,6.524-40.397,17.021c-16.089-9.956-26.817-27.749-26.817-48.058
	c0-18.511,8.913-34.929,22.674-45.228c10.322,13.506,26.588,22.228,44.897,22.228c1.429,0,2.837-0.065,4.237-0.168
	c-3.186,7.071-4.972,14.909-4.972,23.168c0,11.804,3.626,22.76,9.816,31.825C262.375,399.28,259.22,399.011,256.006,399.011z
	 M312.115,311.484c-17.532,0-33.198,7.988-43.559,20.522c-12.516-10.359-20.49-26.015-20.49-43.533
	c0-19.759,10.139-37.143,25.502-47.24c10.093,9.428,23.637,15.208,38.535,15.208c1.642,0,3.259-0.074,4.865-0.208
	c1.959-0.167,3.884-0.446,5.781-0.809c-6.453,9.182-10.254,20.362-10.254,32.436c0,8.549,1.91,16.651,5.309,23.916
	C315.932,311.589,314.035,311.484,312.115,311.484z"/>
<g>
</g>
<g>
</g>
<g>
</g>
<g>
</g>
<g>
</g>
<g>
</g>
<g>
</g>
<g>
</g>
<g>
</g>
<g>
</g>
<g>
</g>
<g>
</g>
<g>
</g>
<g>
</g>
<g>
</g>
</svg>
