<?xml version="1.0" encoding="iso-8859-1"?>
<!-- Generator: Adobe Illustrator 19.0.0, SVG Export Plug-In . SVG Version: 6.00 Build 0)  -->
<svg version="1.1" id="Layer_1" xmlns="http://www.w3.org/2000/svg" xmlns:xlink="http://www.w3.org/1999/xlink" x="0px" y="0px"
	 viewBox="0 0 512 512" style="enable-background:new 0 0 512 512;" xml:space="preserve">
<path style="fill:#F2F2F4;" d="M80.842,256H0c0,89.295,72.389,161.684,161.684,161.684h80.842L80.842,256z"/>
<path style="fill:#DFDFE1;" d="M431.158,256L269.474,417.684h80.842C439.611,417.684,512,345.296,512,256H431.158z"/>
<path style="fill:#FF4F19;" d="M441.406,109.136c-37.725-37.725-98.89-37.725-136.615,0L256,157.928l-48.791-48.791
	c-37.726-37.726-98.89-37.726-136.615-0.001s-37.725,98.89,0,136.615L256,431.158l185.406-185.406
	C479.132,208.026,479.132,146.861,441.406,109.136z"/>
<path style="fill:#AF2E08;" d="M441.406,109.136c-37.725-37.725-98.89-37.725-136.615,0L256,157.928v273.23l185.406-185.406
	C479.132,208.026,479.132,146.861,441.406,109.136z"/>
<g>
</g>
<g>
</g>
<g>
</g>
<g>
</g>
<g>
</g>
<g>
</g>
<g>
</g>
<g>
</g>
<g>
</g>
<g>
</g>
<g>
</g>
<g>
</g>
<g>
</g>
<g>
</g>
<g>
</g>
</svg>
