<?xml version="1.0" encoding="iso-8859-1"?>
<!-- Generator: Adobe Illustrator 19.0.0, SVG Export Plug-In . SVG Version: 6.00 Build 0)  -->
<svg version="1.1" id="Layer_1" xmlns="http://www.w3.org/2000/svg" xmlns:xlink="http://www.w3.org/1999/xlink" x="0px" y="0px"
	 viewBox="0 0 512 512" style="enable-background:new 0 0 512 512;" xml:space="preserve">
<path style="fill:#FF4F19;" d="M480.246,91.182c-42.337-42.337-110.979-42.337-153.316,0l-54.756,54.757l-54.756-54.756
	c-42.337-42.337-110.979-42.337-153.316,0s-42.337,110.979,0,153.316l208.072,208.072l208.072-208.072
	C522.585,202.161,522.585,133.519,480.246,91.182z"/>
<line style="fill:none;stroke:#000000;stroke-width:30;stroke-miterlimit:10;" x1="196.571" y1="376.962" x2="196.571" y2="376.962"/>
<path style="fill:#CFCDD2;" d="M136.087,218.198c-54.195,0-98.285,44.091-98.285,98.285c0,18.896,5.372,36.556,14.654,51.556
	L0,420.495l32.076,32.076l52.456-52.456c14.998,9.28,32.659,14.654,51.556,14.654c54.195,0,98.285-44.091,98.285-98.285
	S190.282,218.198,136.087,218.198z M136.087,369.406c-29.182,0-52.923-23.741-52.923-52.923s23.741-52.923,52.923-52.923
	s52.923,23.741,52.923,52.923S165.269,369.406,136.087,369.406z"/>
<path style="fill:#AF2E08;" d="M480.246,91.182c-42.337-42.337-110.979-42.337-153.316,0l-54.756,54.757v306.632l208.072-208.072
	C522.585,202.161,522.585,133.519,480.246,91.182z"/>
<g>
</g>
<g>
</g>
<g>
</g>
<g>
</g>
<g>
</g>
<g>
</g>
<g>
</g>
<g>
</g>
<g>
</g>
<g>
</g>
<g>
</g>
<g>
</g>
<g>
</g>
<g>
</g>
<g>
</g>
</svg>
