<?xml version="1.0" encoding="iso-8859-1"?>
<!-- Generator: Adobe Illustrator 19.0.0, SVG Export Plug-In . SVG Version: 6.00 Build 0)  -->
<svg version="1.1" id="Layer_1" xmlns="http://www.w3.org/2000/svg" xmlns:xlink="http://www.w3.org/1999/xlink" x="0px" y="0px"
	 viewBox="0 0 512 512" style="enable-background:new 0 0 512 512;" xml:space="preserve">
<path style="fill:#20B8AE;" d="M295.761,85.579h-79.523c-9.425,0-17.066-7.641-17.066-17.066V17.066
	C199.171,7.641,206.812,0,216.237,0h79.523c9.425,0,17.066,7.641,17.066,17.066v51.447
	C312.827,77.938,305.187,85.579,295.761,85.579z"/>
<path style="fill:#1DA49C;" d="M295.761,0H256v85.579h39.761c9.425,0,17.066-7.641,17.066-17.066V17.066
	C312.827,7.641,305.187,0,295.761,0z"/>
<path style="fill:#65C6BB;" d="M327.487,353.599H184.513c-9.425,0-17.066-7.641-17.066-17.066V68.513
	c0-9.425,7.641-17.066,17.066-17.066h142.973c9.425,0,17.066,7.641,17.066,17.066v268.019
	C344.553,345.958,336.912,353.599,327.487,353.599z"/>
<path style="fill:#20B8AE;" d="M327.487,51.447H256v302.152h71.487c9.425,0,17.066-7.641,17.066-17.066V68.513
	C344.553,59.088,336.912,51.447,327.487,51.447z"/>
<path style="fill:#65C6BB;" d="M204.927,494.922v-72.924c0-9.425,7.641-17.066,17.066-17.066h68.011
	c9.425,0,17.066,7.641,17.066,17.066v45.054c0,6.927-4.186,13.165-10.595,15.792l-68.011,27.87
	C217.289,515.29,204.927,507.097,204.927,494.922z"/>
<g>
	<path style="fill:#20B8AE;" d="M290.006,404.932H256v94.498l40.478-16.587c6.409-2.627,10.595-8.865,10.595-15.792v-45.054
		C307.072,412.573,299.431,404.932,290.006,404.932z"/>
	<path style="fill:#20B8AE;" d="M344.551,319.47v17.066c0,1.775-0.273,3.561-0.842,5.291l-27.864,85.468
		c-2.298,7.02-8.84,11.776-16.224,11.776h-87.243c-7.384,0-13.926-4.756-16.224-11.776l-27.864-85.468
		c-0.569-1.729-0.842-3.516-0.842-5.291V319.47H344.551z"/>
</g>
<path style="fill:#1DA49C;" d="M256,319.47V439.07h43.621c7.384,0,13.926-4.756,16.224-11.776l27.864-85.468
	c0.569-1.729,0.842-3.516,0.842-5.291V319.47H256z"/>
<g>
</g>
<g>
</g>
<g>
</g>
<g>
</g>
<g>
</g>
<g>
</g>
<g>
</g>
<g>
</g>
<g>
</g>
<g>
</g>
<g>
</g>
<g>
</g>
<g>
</g>
<g>
</g>
<g>
</g>
</svg>
