<?xml version="1.0" encoding="iso-8859-1"?>
<!-- Generator: Adobe Illustrator 19.0.0, SVG Export Plug-In . SVG Version: 6.00 Build 0)  -->
<svg version="1.1" id="Layer_1" xmlns="http://www.w3.org/2000/svg" xmlns:xlink="http://www.w3.org/1999/xlink" x="0px" y="0px"
	 viewBox="0 0 512 512" style="enable-background:new 0 0 512 512;" xml:space="preserve">
<polygon style="fill:#F2F2F4;" points="71.398,206.725 71.398,504.927 440.6,504.927 440.6,206.725 255.999,36.324 "/>
<polygon style="fill:#DFDFE1;" points="255.999,36.324 255.999,504.927 440.6,504.927 440.6,206.725 "/>
<rect x="92.698" y="64.724" style="fill:#F2F2F4;" width="42.6" height="99.401"/>
<path style="fill:#FF4F19;" d="M255.999,391.326l82.67-82.67c16.821-16.821,16.821-44.094,0-60.914
	c-16.821-16.821-44.094-16.821-60.914,0l-21.756,21.756l-21.756-21.756c-16.821-16.821-44.094-16.821-60.914,0
	c-16.821,16.821-16.821,44.094,0,60.914L255.999,391.326z"/>
<path style="fill:#AF2E08;" d="M338.669,247.741c-16.821-16.821-44.094-16.821-60.914,0l-21.756,21.756v121.83l82.67-82.67
	C355.491,291.835,355.491,264.562,338.669,247.741z"/>
<polygon style="fill:#CFCDD2;" points="482.803,279.036 255.999,65.573 29.197,279.036 0,248.015 255.999,7.073 512,248.015 "/>
<polygon style="fill:#AEADB3;" points="255.999,7.073 255.999,65.573 482.803,279.036 512,248.015 "/>
<g>
</g>
<g>
</g>
<g>
</g>
<g>
</g>
<g>
</g>
<g>
</g>
<g>
</g>
<g>
</g>
<g>
</g>
<g>
</g>
<g>
</g>
<g>
</g>
<g>
</g>
<g>
</g>
<g>
</g>
</svg>
