<?xml version="1.0" encoding="iso-8859-1"?>
<!-- Generator: Adobe Illustrator 19.0.0, SVG Export Plug-In . SVG Version: 6.00 Build 0)  -->
<svg version="1.1" id="Layer_1" xmlns="http://www.w3.org/2000/svg" xmlns:xlink="http://www.w3.org/1999/xlink" x="0px" y="0px"
	 viewBox="0 0 512 512" style="enable-background:new 0 0 512 512;" xml:space="preserve">
<path style="fill:#99E2FF;" d="M313.63,60.631h106.401V135.2c30.6,0,55.402,24.816,55.402,55.402v265.997
	c0,30.6-24.802,55.402-55.402,55.402H91.982c-30.6,0-55.415-24.802-55.415-55.402V190.601c0-30.586,24.816-55.402,55.415-55.402
	V60.631h157.374"/>
<path style="fill:#73CAE5;" d="M435.528,190.601v93.175H76.472v-93.175c0-8.547,6.949-15.496,15.51-15.496h14.507
	c14.02,0,25.385-11.365,25.385-25.385V119.69h117.482h64.274h66.496v30.031c0,14.02,11.365,25.385,25.385,25.385h14.521
	C428.579,175.105,435.528,182.054,435.528,190.601z"/>
<path style="fill:#F7B239;" d="M435.528,246.03v210.568c0,8.547-6.949,15.51-15.496,15.51H91.982c-8.561,0-15.51-6.963-15.51-15.51
	V246.03H435.528z"/>
<g>
	<path style="fill:#E09B2D;" d="M316.949,359.069c12.855,0,23.285,10.417,23.285,23.271s-10.43,23.271-23.285,23.271
		c-12.841,0-23.272-10.417-23.272-23.271S304.107,359.069,316.949,359.069z"/>
	<path style="fill:#E09B2D;" d="M157.367,290.352c14.074,0,25.493,11.419,25.493,25.493c0,14.074-11.419,25.493-25.493,25.493
		s-25.479-11.419-25.479-25.493C131.888,301.771,143.293,290.352,157.367,290.352z"/>
</g>
<path style="fill:#F7B239;" d="M313.63,119.69v52.544c0,16.268-13.194,29.462-29.462,29.462h-5.351
	c-16.268,0-29.462-13.194-29.462-29.462V119.69V50.124h64.274V119.69z"/>
<path style="fill:#F95428;" d="M451.051,7.327v65.145c0,4.046-3.281,7.327-7.327,7.327h-23.693H313.63h-64.274H91.982H68.276
	c-4.046,0-7.327-3.281-7.327-7.327V7.327C60.949,3.281,64.23,0,68.276,0h375.45C447.77,0,451.051,3.281,451.051,7.327z"/>
<path style="fill:#E54728;" d="M153.046,0v79.798h-7.323h-25.12h-15.174H68.276l0,0c-4.046,0-7.327-3.281-7.327-7.327V7.327
	C60.949,3.281,64.23,0,68.276,0H153.046z"/>
<path style="fill:#E09B2D;" d="M76.61,246.03v210.568c0,8.547,6.949,15.51,15.51,15.51h36.695V246.03L76.61,246.03L76.61,246.03z"/>
<g>
</g>
<g>
</g>
<g>
</g>
<g>
</g>
<g>
</g>
<g>
</g>
<g>
</g>
<g>
</g>
<g>
</g>
<g>
</g>
<g>
</g>
<g>
</g>
<g>
</g>
<g>
</g>
<g>
</g>
</svg>
