<?xml version="1.0" encoding="iso-8859-1"?>
<!-- Generator: Adobe Illustrator 19.0.0, SVG Export Plug-In . SVG Version: 6.00 Build 0)  -->
<svg version="1.1" id="Layer_1" xmlns="http://www.w3.org/2000/svg" xmlns:xlink="http://www.w3.org/1999/xlink" x="0px" y="0px"
	 viewBox="0 0 512 512" style="enable-background:new 0 0 512 512;" xml:space="preserve">
<g>
	<path style="fill:#F7B239;" d="M462.391,326.597v38.699c0,18.076-14.666,32.742-32.742,32.742H82.351
		c-18.076,0-32.742-14.666-32.742-32.742v-38.699l191.438-42.599L462.391,326.597z"/>
	<path style="fill:#F7B239;" d="M462.379,227.367L246.43,280.41L49.609,227.367c0-58.378,44.118-106.455,100.833-112.712
		c2.955-0.323,5.945-0.538,8.972-0.634c1.196-0.036,2.393-0.06,3.601-0.06h185.959c1.208,0,2.405,0.024,3.601,0.06
		c3.027,0.096,6.017,0.311,8.972,0.634c26.294,2.895,49.884,14.786,67.625,32.526C449.687,167.698,462.379,196.049,462.379,227.367z
		"/>
</g>
<path style="fill:#F95428;" d="M497.465,241.902c-8.972-8.984-21.377-14.533-35.074-14.533h-67.625H377.72H152.188h-39.477H49.609
	c-12.609,0-24.117,4.701-32.861,12.453C6.472,248.901,0,262.191,0,276.978c0,13.697,5.551,26.114,14.535,35.086
	c8.972,8.984,21.377,14.535,35.074,14.535h288.634h56.523h67.625c27.394,0,49.609-22.215,49.609-49.621
	C512,263.279,506.449,250.874,497.465,241.902z"/>
<g>
	<path style="fill:#F4DE3B;" d="M152.188,227.367v45.96c0,10.898-8.84,19.738-19.738,19.738s-19.738-8.84-19.738-19.738v-45.96
		H152.188z"/>
	<path style="fill:#F4DE3B;" d="M377.72,227.367v45.96c0,10.898-8.84,19.738-19.738,19.738s-19.738-8.84-19.738-19.738v-45.96
		H377.72z"/>
	<path style="fill:#F4DE3B;" d="M338.243,227.367v117.832c0,10.91-8.84,19.738-19.738,19.738c-0.909,0-1.818-0.06-2.692-0.191
		c-4.378-0.586-8.302-2.608-11.269-5.587c-3.565-3.577-5.778-8.505-5.778-13.96V227.367L338.243,227.367L338.243,227.367z"/>
</g>
<path style="fill:#E54728;" d="M69.978,276.976c0-25.059,18.595-45.774,42.734-49.122v-0.486H49.609
	C22.215,227.369,0,249.583,0,276.978c0,13.697,5.551,26.114,14.535,35.086c8.972,8.984,21.377,14.535,35.074,14.535h69.978
	c-13.697,0-26.102-5.552-35.074-14.535C75.528,303.091,69.978,290.674,69.978,276.976z"/>
<g>
	<path style="fill:#E09B2D;" d="M127.165,365.296v-38.699H49.609v38.699c0,18.076,14.666,32.742,32.742,32.742h77.556
		C141.831,398.038,127.165,383.372,127.165,365.296z"/>
	<path style="fill:#E09B2D;" d="M245.54,114.022c1.196-0.036,2.393-0.06,3.601-0.06h-86.126c-1.208,0-2.404,0.024-3.601,0.06
		c-60.961,1.902-109.805,51.93-109.805,113.346h63.103h23.023C135.735,165.951,184.578,115.924,245.54,114.022z"/>
</g>
<g>
	<path style="fill:#E2C939;" d="M315.813,227.367v137.379c-4.378-0.586-8.302-2.608-11.269-5.587
		c-3.565-3.577-5.778-8.505-5.778-13.96V227.367L315.813,227.367L315.813,227.367z"/>
	<path style="fill:#E2C939;" d="M129.994,227.367v65.603c-4.378-0.586-8.302-2.608-11.269-5.587
		c-3.565-3.577-5.778-8.505-5.778-13.96v-46.056H129.994z"/>
	<path style="fill:#E2C939;" d="M355.688,227.367v65.603c-4.378-0.586-8.302-2.608-11.269-5.587
		c-3.565-3.577-5.778-8.505-5.778-13.96v-46.056H355.688z"/>
</g>
<g>
	<path style="fill:#B27214;" d="M168.386,113.962V154.3c0,4.953-4.019,8.972-8.972,8.972c-4.953,0-8.972-4.019-8.972-8.972v-39.644
		c2.955-0.323,5.945-0.538,8.972-0.634c1.196-0.036,2.393-0.06,3.601-0.06H168.386z"/>
	<path style="fill:#B27214;" d="M264.972,113.962V154.3c0,4.953-4.019,8.972-8.972,8.972c-4.953,0-8.972-4.019-8.972-8.972v-40.338
		H264.972z"/>
	<path style="fill:#B27214;" d="M361.546,114.656V154.3c0,4.953-4.019,8.972-8.972,8.972c-4.953,0-8.972-4.019-8.972-8.972v-40.338
		h5.371c1.208,0,2.405,0.024,3.601,0.06C355.601,114.117,358.591,114.333,361.546,114.656z"/>
</g>
<g>
</g>
<g>
</g>
<g>
</g>
<g>
</g>
<g>
</g>
<g>
</g>
<g>
</g>
<g>
</g>
<g>
</g>
<g>
</g>
<g>
</g>
<g>
</g>
<g>
</g>
<g>
</g>
<g>
</g>
</svg>
