<?xml version="1.0" encoding="iso-8859-1"?>
<!-- Generator: Adobe Illustrator 19.0.0, SVG Export Plug-In . SVG Version: 6.00 Build 0)  -->
<svg version="1.1" id="Layer_1" xmlns="http://www.w3.org/2000/svg" xmlns:xlink="http://www.w3.org/1999/xlink" x="0px" y="0px"
	 viewBox="0 0 512 512" style="enable-background:new 0 0 512 512;" xml:space="preserve">
<polygon style="fill:#DEDAD2;" points="409.6,0 102.4,0 91.022,70.542 256,81.92 420.978,70.542 "/>
<polygon style="fill:#4D3A2D;" points="420.704,105.577 91.296,105.576 95.386,173.842 134.992,314.477 112.236,455.111 
	115.645,512 396.355,512 399.764,455.111 382.481,314.477 416.614,173.842 "/>
<polygon style="fill:#BDB5A5;" points="432.356,70.542 79.644,70.542 68.267,116.053 443.733,116.053 "/>
<polygon style="fill:#735643;" points="399.764,455.111 416.614,173.842 95.386,173.842 112.236,455.111 "/>
<g>
	<path style="fill:#AE8372;" d="M402.608,463.644H109.392c-4.713,0-8.533-3.82-8.533-8.533c0-4.714,3.821-8.533,8.533-8.533h293.217
		c4.714,0,8.533,3.82,8.533,8.533C411.142,459.825,407.322,463.644,402.608,463.644z"/>
	<path style="fill:#AE8372;" d="M418.089,182.376H93.911c-4.713,0-8.533-3.82-8.533-8.533s3.821-8.533,8.533-8.533h324.178
		c4.714,0,8.533,3.82,8.533,8.533S422.803,182.376,418.089,182.376z"/>
</g>
<g>
</g>
<g>
</g>
<g>
</g>
<g>
</g>
<g>
</g>
<g>
</g>
<g>
</g>
<g>
</g>
<g>
</g>
<g>
</g>
<g>
</g>
<g>
</g>
<g>
</g>
<g>
</g>
<g>
</g>
</svg>
