<?xml version="1.0" encoding="iso-8859-1"?>
<!-- Generator: Adobe Illustrator 19.0.0, SVG Export Plug-In . SVG Version: 6.00 Build 0)  -->
<svg version="1.1" id="Layer_1" xmlns="http://www.w3.org/2000/svg" xmlns:xlink="http://www.w3.org/1999/xlink" x="0px" y="0px"
	 viewBox="0 0 512 512" style="enable-background:new 0 0 512 512;" xml:space="preserve">
<path style="fill:#FFB655;" d="M479.47,129.15l-3.143-3.143l0,0c4.794-24.313-2.202-50.51-21.002-69.31l0,0
	c-14.529-14.527-33.848-22.529-54.406-22.529c-5.087,0-10.096,0.494-14.978,1.452l-3.092-3.092C361.875,11.552,333.987,0,304.324,0
	c-29.661,0-57.546,11.55-78.517,32.523L32.525,225.805C-10.773,269.1-10.769,339.551,32.53,382.85l3.125,3.125
	c-4.783,24.321,2.228,50.534,21.043,69.351c14.51,14.512,33.808,22.504,54.336,22.504c0.002,0,0,0,0.002,0
	c5.098,0,10.12-0.495,15.011-1.459l3.102,3.102c20.973,20.973,48.863,32.526,78.526,32.528c0.003,0,0.005,0,0.007,0
	c29.658,0,57.541-11.55,78.512-32.523l193.282-193.282C522.773,242.9,522.769,172.449,479.47,129.15z M56.653,346.591l6.483-6.483
	l138.489-138.489L63.136,340.108L56.653,346.591z M139.619,472.347c2.187-0.878,4.332-1.859,6.43-2.937
	C143.949,470.488,141.805,471.469,139.619,472.347z M455.32,165.378l-6.48,6.481L455.32,165.378c2.038-2.038,3.933-4.167,5.689-6.37
	C459.254,161.212,457.36,163.34,455.32,165.378z"/>
<path style="fill:#EE8700;" d="M56.653,346.591l6.483-6.483L340.116,63.129l6.476-6.475c4.044-4.044,8.47-7.559,13.181-10.557
	c8-5.092,16.841-8.647,26.168-10.477l-3.092-3.092C361.875,11.552,333.987,0,304.324,0c-29.661,0-57.546,11.55-78.517,32.523
	L32.525,225.805C-10.773,269.1-10.769,339.551,32.53,382.85l3.125,3.125c1.804-9.169,5.297-18.059,10.453-26.192
	C49.075,355.103,52.575,350.669,56.653,346.591z"/>
<path style="fill:#E07188;" d="M455.325,56.697L455.325,56.697c-14.529-14.529-33.85-22.529-54.406-22.529
	c-5.087,0-10.096,0.494-14.978,1.452c-9.327,1.83-18.17,5.386-26.168,10.477c-4.712,2.998-9.138,6.514-13.181,10.557l-6.476,6.475
	L63.136,340.108l-6.483,6.483c-4.078,4.078-7.58,8.511-10.545,13.192c-5.157,8.133-8.649,17.023-10.453,26.192
	c-4.783,24.321,2.228,50.534,21.043,69.351c14.51,14.512,33.808,22.504,54.336,22.504c0.002,0,0,0,0.002,0
	c5.098,0,10.12-0.495,15.011-1.459c9.319-1.835,18.154-5.397,26.153-10.491c4.712-3,9.138-6.517,13.181-10.563l144.967-144.967
	L448.84,171.858l6.48-6.481c4.078-4.078,7.58-8.511,10.547-13.19c5.159-8.13,8.653-17.018,10.46-26.182
	C481.121,101.694,474.125,75.497,455.325,56.697z"/>
<path style="fill:#FF3F62;" d="M455.325,56.697c-14.529-14.527-33.848-22.529-54.406-22.529c-5.087,0-10.096,0.494-14.978,1.452
	c-9.327,1.83-18.17,5.386-26.168,10.477c-4.712,2.998-9.138,6.514-13.181,10.557l-6.476,6.475L63.136,340.108l-6.483,6.483
	c-4.078,4.078-7.58,8.511-10.545,13.192c-5.157,8.133-8.649,17.023-10.453,26.192c-4.783,24.321,2.228,50.534,21.043,69.351
	L455.325,56.697L455.325,56.697z"/>
<g>
</g>
<g>
</g>
<g>
</g>
<g>
</g>
<g>
</g>
<g>
</g>
<g>
</g>
<g>
</g>
<g>
</g>
<g>
</g>
<g>
</g>
<g>
</g>
<g>
</g>
<g>
</g>
<g>
</g>
</svg>
