<?xml version="1.0" encoding="iso-8859-1"?>
<!-- Generator: Adobe Illustrator 19.0.0, SVG Export Plug-In . SVG Version: 6.00 Build 0)  -->
<svg version="1.1" id="Layer_1" xmlns="http://www.w3.org/2000/svg" xmlns:xlink="http://www.w3.org/1999/xlink" x="0px" y="0px"
	 viewBox="0 0 512 512" style="enable-background:new 0 0 512 512;" xml:space="preserve">
<path style="fill:#DE9833;" d="M329.723,512h-73.718h-73.728c-13.65,0-25.104-10.289-26.563-23.86L104.721,13.897
	C103.922,6.475,109.738,0,117.203,0h138.794h138.8c7.465,0,13.281,6.475,12.484,13.897l-50.994,474.242
	C354.827,501.711,343.371,512,329.723,512z"/>
<path style="fill:#F3A938;" d="M256.004,512h-73.728c-13.65,0-25.104-10.289-26.563-23.86L104.721,13.897
	C103.922,6.475,109.738,0,117.203,0h138.794L256.004,512z"/>
<path style="fill:#625F69;" d="M394.797,0H117.204c-7.465,0-13.281,6.475-12.484,13.897l13.375,124.383
	c17.018,5.699,35.616,8.844,55.104,8.844c43.817,0,83.132-15.885,110.064-41.054c19.774,24.732,53.669,41.054,92.183,41.054
	c6.004,0,11.89-0.411,17.632-1.173l14.2-132.054C408.078,6.475,402.261,0,394.797,0z"/>
<path style="fill:#A1A1A1;" d="M281.127,308.771h-61.599c-6.934,0-12.555-5.621-12.555-12.555v-61.599
	c0-6.934,5.621-12.555,12.555-12.555h61.599c6.934,0,12.555,5.621,12.555,12.555v61.599
	C293.682,303.15,288.061,308.771,281.127,308.771z"/>
<path style="fill:#D6D6D6;" d="M256.016,308.771h-36.489c-6.934,0-12.555-5.621-12.555-12.555v-61.599
	c0-6.934,5.621-12.555,12.555-12.555h36.489V308.771z"/>
<path style="fill:#A1A1A1;" d="M290.327,453.162l-60.2,13.056c-6.776,1.47-13.462-2.832-14.93-9.608l-13.056-60.2
	c-1.47-6.776,2.832-13.462,9.608-14.931l60.2-13.056c6.776-1.47,13.462,2.832,14.93,9.608l13.056,60.2
	C301.406,445.007,297.105,451.693,290.327,453.162z"/>
<path style="fill:#D6D6D6;" d="M255.994,460.608l-25.867,5.61c-6.776,1.47-13.462-2.832-14.93-9.608l-13.056-60.2
	c-1.47-6.776,2.832-13.462,9.608-14.931l44.265-9.6L255.994,460.608z"/>
<path style="fill:#827E8C;" d="M255.996,0H117.203c-7.465,0-13.281,6.475-12.484,13.897l13.375,124.383
	c17.018,5.699,35.616,8.844,55.104,8.844c30.72,0,59.227-7.808,82.806-21.149L255.996,0z"/>
<path style="fill:#A1A1A1;" d="M250.534,156.05l-50.356-35.479c-5.669-3.994-7.026-11.827-3.032-17.494l35.479-50.356
	c3.994-5.669,11.827-7.026,17.494-3.032l50.356,35.479c5.669,3.994,7.026,11.827,3.032,17.494l-35.479,50.356
	C264.035,158.686,256.202,160.043,250.534,156.05z"/>
<path style="fill:#D6D6D6;" d="M250.534,156.05l-50.356-35.479c-5.669-3.994-7.026-11.827-3.032-17.494l35.479-50.356
	c3.994-5.669,11.827-7.026,17.494-3.032l5.881,4.143l0.014,104.39C254.102,157.954,252.222,157.24,250.534,156.05z"/>
<g>
</g>
<g>
</g>
<g>
</g>
<g>
</g>
<g>
</g>
<g>
</g>
<g>
</g>
<g>
</g>
<g>
</g>
<g>
</g>
<g>
</g>
<g>
</g>
<g>
</g>
<g>
</g>
<g>
</g>
</svg>
