<?xml version="1.0" encoding="iso-8859-1"?>
<!-- Generator: Adobe Illustrator 19.0.0, SVG Export Plug-In . SVG Version: 6.00 Build 0)  -->
<svg version="1.1" id="Layer_1" xmlns="http://www.w3.org/2000/svg" xmlns:xlink="http://www.w3.org/1999/xlink" x="0px" y="0px"
	 viewBox="0 0 512 512" style="enable-background:new 0 0 512 512;" xml:space="preserve">
<polygon style="fill:#C8FEFF;" points="54.539,0 62.26,87.511 256,159.123 278.261,79.561 256,0 "/>
<polygon style="fill:#98E1E2;" points="256,0 256,159.123 449.74,87.511 457.461,0 "/>
<path style="fill:#8E4238;" d="M183.652,92.34c-36.174,0-36.174-25.558-72.348-25.558c-26.113,0-33.414,13.32-49.044,20.728
	L99.715,512H256l22.261-222.609L256,66.783C219.826,66.783,219.826,92.34,183.652,92.34z"/>
<path style="fill:#700D00;" d="M400.696,66.783c-36.174,0-36.174,25.558-72.348,25.558S292.174,66.783,256,66.783V512h156.285
	L449.74,87.511C434.109,80.102,426.809,66.783,400.696,66.783z"/>
<polygon style="fill:#FFFFFF;" points="239.304,189.217 239.304,260.474 177.595,224.846 160.899,253.763 222.609,289.391 
	160.899,325.02 177.595,353.937 239.304,318.308 239.304,389.565 256,389.565 267.13,289.391 256,189.217 "/>
<polygon style="fill:#C8FEFF;" points="351.101,253.763 334.405,224.846 272.696,260.474 272.696,189.217 256,189.217 256,389.565 
	272.696,389.565 272.696,318.308 334.405,353.937 351.101,325.02 289.391,289.391 "/>
<g>
</g>
<g>
</g>
<g>
</g>
<g>
</g>
<g>
</g>
<g>
</g>
<g>
</g>
<g>
</g>
<g>
</g>
<g>
</g>
<g>
</g>
<g>
</g>
<g>
</g>
<g>
</g>
<g>
</g>
</svg>
