<?xml version="1.0" encoding="iso-8859-1"?>
<!-- Generator: Adobe Illustrator 19.0.0, SVG Export Plug-In . SVG Version: 6.00 Build 0)  -->
<svg version="1.1" id="Layer_1" xmlns="http://www.w3.org/2000/svg" xmlns:xlink="http://www.w3.org/1999/xlink" x="0px" y="0px"
	 viewBox="0 0 512 512" style="enable-background:new 0 0 512 512;" xml:space="preserve">
<path style="fill:#E17858;" d="M309.167,142.233c-29.224-29.224-76.606-29.224-105.829,0l-37.797,37.796l-37.796-37.797
	c-29.224-29.224-76.606-29.224-105.829,0s-29.224,76.604,0,105.829l143.626,143.626l143.626-143.626
	C338.392,218.838,338.392,171.456,309.167,142.233z"/>
<path style="fill:#762204;" d="M490.082,142.233c-29.224-29.224-76.606-29.224-105.829,0l-37.797,37.796l-37.797-37.797
	c-29.223-29.224-76.606-29.224-105.829,0s-29.224,76.604,0,105.829l143.626,143.626l143.625-143.626
	C519.306,218.838,519.306,171.456,490.082,142.233z"/>
<path style="fill:#FF4F19;" d="M256.012,120.321c-19.07,0.061-38.123,7.362-52.672,21.913l-5.407,5.407
	c-24.213,29.396-22.586,72.937,4.9,100.422l53.168,53.168l53.167-53.168c27.487-27.487,29.113-71.034,4.894-100.43l-5.4-5.4
	C294.117,127.688,275.074,120.388,256.012,120.321z"/>
<path style="fill:#AF2E08;" d="M314.061,147.632l-5.4-5.4c-14.544-14.544-33.587-21.844-52.65-21.911c-0.004,0-0.008,0-0.012,0
	v180.907v0.001l53.167-53.168C336.655,220.575,338.28,177.028,314.061,147.632z"/>
<g>
</g>
<g>
</g>
<g>
</g>
<g>
</g>
<g>
</g>
<g>
</g>
<g>
</g>
<g>
</g>
<g>
</g>
<g>
</g>
<g>
</g>
<g>
</g>
<g>
</g>
<g>
</g>
<g>
</g>
</svg>
