<?xml version="1.0" encoding="iso-8859-1"?>
<!-- Generator: Adobe Illustrator 19.0.0, SVG Export Plug-In . SVG Version: 6.00 Build 0)  -->
<svg version="1.1" id="Layer_1" xmlns="http://www.w3.org/2000/svg" xmlns:xlink="http://www.w3.org/1999/xlink" x="0px" y="0px"
	 viewBox="0 0 512 512" style="enable-background:new 0 0 512 512;" xml:space="preserve">
<path style="fill:#7F4122;" d="M464,288l-32-108H80L48,288h104c4.416,0,8,3.584,8,8v48c0,4.416,3.584,8,8,8h176c4.416,0,8-3.584,8-8
	v-48c0-4.416,3.584-8,8-8H464z"/>
<path style="fill:#A35425;" d="M459.84,170.48c-2.304-6.28-8.272-10.456-14.96-10.48H67.12c-6.712-0.008-12.72,4.176-15.04,10.48
	L0,312h160v-16c0-4.416-3.584-8-8-8H48l32-108h352l32,108H360c-4.416,0-8,3.584-8,8v16h160L459.84,170.48z"/>
<path style="fill:#E2E7F0;" d="M352,328v-32c0-4.416,3.584-8,8-8h56V136c0-17.672-14.328-32-32-32H128c-17.672,0-32,14.328-32,32
	v152h56c4.416,0,8,3.584,8,8v32H352z"/>
<g>
	<path style="fill:#C9D5E3;" d="M384,96H128c-17.672,0-32,14.328-32,32v8c0-17.672,14.328-32,32-32h256c17.672,0,32,14.328,32,32v-8
		C416,110.328,401.672,96,384,96z"/>
	<path style="fill:#C9D5E3;" d="M384,80H128c-17.672,0-32,14.328-32,32v8c0-17.672,14.328-32,32-32h256c17.672,0,32,14.328,32,32v-8
		C416,94.328,401.672,80,384,80z"/>
</g>
<path style="fill:#E2E7F0;" d="M384,88H128c-17.672,0-32,14.328-32,32v8c0-17.672,14.328-32,32-32h256c17.672,0,32,14.328,32,32v-8
	C416,102.328,401.672,88,384,88z"/>
<path style="fill:#C9D5E3;" d="M384,64H128c-17.672,0-32,14.328-32,32v8c0-17.672,14.328-32,32-32h256c17.672,0,32,14.328,32,32v-8
	C416,78.328,401.672,64,384,64z"/>
<path style="fill:#E2E7F0;" d="M384,72H128c-17.672,0-32,14.328-32,32v8c0-17.672,14.328-32,32-32h256c17.672,0,32,14.328,32,32v-8
	C416,86.328,401.672,72,384,72z"/>
<g>
	<path style="fill:#9DACBA;" d="M208,144h96c4.416,0,8,3.584,8,8l0,0c0,4.416-3.584,8-8,8h-96c-4.416,0-8-3.584-8-8l0,0
		C200,147.584,203.584,144,208,144z"/>
	<path style="fill:#9DACBA;" d="M176,224h160c4.416,0,8,3.584,8,8l0,0c0,4.416-3.584,8-8,8H176c-4.416,0-8-3.584-8-8l0,0
		C168,227.584,171.584,224,176,224z"/>
	<path style="fill:#9DACBA;" d="M176,256h160c4.416,0,8,3.584,8,8l0,0c0,4.416-3.584,8-8,8H176c-4.416,0-8-3.584-8-8l0,0
		C168,259.584,171.584,256,176,256z"/>
	<path style="fill:#9DACBA;" d="M176,192h160c4.416,0,8,3.584,8,8l0,0c0,4.416-3.584,8-8,8H176c-4.416,0-8-3.584-8-8l0,0
		C168,195.584,171.584,192,176,192z"/>
</g>
<path style="fill:#C97629;" d="M352,312v32c0,4.416-3.584,8-8,8H168c-4.416,0-8-3.584-8-8v-32H0v112c0,13.256,10.744,24,24,24h464
	c13.256,0,24-10.744,24-24V312H352z"/>
<path style="fill:#A35425;" d="M160,328h192l0,0v16c0,4.416-3.584,8-8,8H168c-4.416,0-8-3.584-8-8V328L160,328z"/>
<path style="fill:#B06328;" d="M496,352v72c0,4.416-3.584,8-8,8H40c-8.84,0-16,7.16-16,16h464c13.256,0,24-10.744,24-24v-88l0,0
	C503.16,336,496,343.16,496,352z"/>
<g>
	<path style="fill:#DA8C36;" d="M0,312h160l0,0l0,0c0,8.84-7.16,16-16,16H16C7.16,328,0,320.84,0,312L0,312L0,312z"/>
	<path style="fill:#DA8C36;" d="M352,312h160l0,0l0,0c0,8.84-7.16,16-16,16H368C359.16,328,352,320.84,352,312L352,312L352,312z"/>
</g>
<path style="fill:#C9D5E3;" d="M400,160v104c0,4.416-3.584,8-8,8h-32c-8.84,0-16,7.16-16,16v16c0,4.416-3.584,8-8,8H176
	c-4.416,0-8-3.584-8-8l0,0c0-8.84-7.16-16-16-16l0,0c4.416,0,8,3.584,8,8v32h192v-32c0-4.416,3.584-8,8-8h56V144
	C407.16,144,400,151.16,400,160z"/>
<g>
</g>
<g>
</g>
<g>
</g>
<g>
</g>
<g>
</g>
<g>
</g>
<g>
</g>
<g>
</g>
<g>
</g>
<g>
</g>
<g>
</g>
<g>
</g>
<g>
</g>
<g>
</g>
<g>
</g>
</svg>
