<?xml version="1.0" encoding="iso-8859-1"?>
<!-- Generator: Adobe Illustrator 19.0.0, SVG Export Plug-In . SVG Version: 6.00 Build 0)  -->
<svg version="1.1" id="Layer_1" xmlns="http://www.w3.org/2000/svg" xmlns:xlink="http://www.w3.org/1999/xlink" x="0px" y="0px"
	 viewBox="0 0 512 512" style="enable-background:new 0 0 512 512;" xml:space="preserve">
<polygon style="fill:#6DA8D6;" points="356.174,105.739 356.174,178.087 244.87,178.087 256,105.739 "/>
<rect x="155.826" y="105.739" style="fill:#9EC8E8;" width="100.174" height="72.348"/>
<path style="fill:#4284B2;" d="M389.888,166.957H256V512h190.342l9.06-277.337C456.626,197.421,427.142,166.957,389.888,166.957z"/>
<polygon style="fill:#082947;" points="403.133,298.696 397.797,461.913 256,461.913 256,298.696 "/>
<path style="fill:#6DA8D6;" d="M122.112,166.957c-37.254,0-66.738,30.464-65.514,67.706L65.658,512H256V166.957H122.112z"/>
<polygon style="fill:#274B6D;" points="256,298.696 256,461.913 114.203,461.913 108.867,298.696 "/>
<polygon style="fill:#082947;" points="322.783,0 300.522,58.435 322.783,116.87 389.565,116.87 389.565,0 "/>
<polygon style="fill:#274B6D;" points="256,0 233.739,58.435 256,116.87 322.783,116.87 322.783,0 "/>
<polygon style="fill:#082947;" points="189.217,0 166.956,58.435 189.217,116.87 256,116.87 256,0 "/>
<rect x="122.435" style="fill:#274B6D;" width="66.783" height="116.87"/>
<g>
</g>
<g>
</g>
<g>
</g>
<g>
</g>
<g>
</g>
<g>
</g>
<g>
</g>
<g>
</g>
<g>
</g>
<g>
</g>
<g>
</g>
<g>
</g>
<g>
</g>
<g>
</g>
<g>
</g>
</svg>
