<?xml version="1.0" encoding="iso-8859-1"?>
<!-- Generator: Adobe Illustrator 19.0.0, SVG Export Plug-In . SVG Version: 6.00 Build 0)  -->
<svg version="1.1" id="Layer_1" xmlns="http://www.w3.org/2000/svg" xmlns:xlink="http://www.w3.org/1999/xlink" x="0px" y="0px"
	 viewBox="0 0 512 512" style="enable-background:new 0 0 512 512;" xml:space="preserve">
<path style="fill:#625F69;" d="M443.544,452.406h-83.55c-11.765,0-21.304-9.538-21.304-21.304c0-11.765,9.538-21.304,21.304-21.304
	h83.55c14.254,0,25.848-11.595,25.848-25.848V133.374c0-19.957-16.236-36.193-36.193-36.193h-71.924
	c-11.765,0-21.304-9.538-21.304-21.304s9.538-21.304,21.304-21.304h71.924c43.451,0,78.801,35.351,78.801,78.801V383.95
	C512,421.697,481.292,452.406,443.544,452.406z"/>
<path style="fill:#449CC2;" d="M11.265,422.75l21.978-299.667L1.092,34.102C-4.116,17.291,10.061,0.824,27.459,3.476l335.237,51.076
	l14.202,402.744c0,28.449-23.062,51.511-51.511,51.511H91.239C44.643,508.805,7.857,469.223,11.265,422.75z"/>
<path style="fill:#81C5E0;" d="M11.265,422.75l21.978-299.667L1.092,34.102C-4.116,17.291,10.061,0.824,27.459,3.476l205.439,31.301
	l0.004,474.03H91.239C44.643,508.805,7.857,469.223,11.265,422.75z"/>
<g>
</g>
<g>
</g>
<g>
</g>
<g>
</g>
<g>
</g>
<g>
</g>
<g>
</g>
<g>
</g>
<g>
</g>
<g>
</g>
<g>
</g>
<g>
</g>
<g>
</g>
<g>
</g>
<g>
</g>
</svg>
