<?xml version="1.0" encoding="iso-8859-1"?>
<!-- Generator: Adobe Illustrator 19.0.0, SVG Export Plug-In . SVG Version: 6.00 Build 0)  -->
<svg version="1.1" id="Layer_1" xmlns="http://www.w3.org/2000/svg" xmlns:xlink="http://www.w3.org/1999/xlink" x="0px" y="0px"
	 viewBox="0 0 511.999 511.999" style="enable-background:new 0 0 511.999 511.999;" xml:space="preserve">
<path style="fill:#F95428;" d="M511.609,356.781L484.401,134.52c-3.408-27.948-27.164-48.963-55.315-48.963
	c-8.093,0-15.823,1.74-22.813,4.873c-6.642-23.684-28.368-40.623-53.633-40.623h-0.014c-18.172,0-34.474,8.745-44.684,22.451
	c-8.122-20.986-28.513-35.533-51.936-35.533c-23.437,0-43.828,14.547-51.95,35.533l-0.014,0.014
	c4.499,5.983,7.766,12.916,9.545,20.483c-3.611,0.985-7.146,2.058-10.547,3.266c-22.123,7.923-39.501,20.438-48.8,35.509
	c18.908,11.488,32.391,31.211,35.259,54.593l1.492,12.38c3.658-7.494,8.525-14.254,14.329-20.049
	c-2.326,5.091-3.93,10.6-4.642,16.413l-27.193,222.275c-1.378,11.283,0.957,22.074,6.004,31.24
	c8.76,15.924,25.685,26.889,45.438,26.889h62.146c19.753,0,36.678-10.964,45.453-26.889h61.102
	c22.364,0,41.102-14.083,48.455-33.459h18.085C491.29,414.924,515.381,387.673,511.609,356.781z"/>
<path style="fill:#E54728;" d="M242.012,194.869c0.769-6.28,2.567-12.212,5.207-17.636c6.08-12.458,16.637-22.197,29.454-27.327
	c-6.413-2.569-13.385-4-20.666-4c-3.925,0-8.476-0.302-13.347-0.686c-3.262-43.248,40.178-46.725,40.178-46.725l-0.783-2.146
	c-8.194-1.711-16.954-2.625-26.062-2.625c-14.938,0-28.963,2.48-41.087,6.787l-0.218-1.726c-1.218-9.935-4.975-18.97-10.645-26.512
	c-10.181-13.72-26.497-22.465-44.655-22.465h-0.029c-25.264,0-46.99,16.94-53.633,40.623c-6.991-3.133-14.706-4.873-22.799-4.873
	c-28.165,0-51.907,21.015-55.329,48.963L0.389,356.782c-3.771,30.892,20.333,58.143,51.457,58.143h18.071
	c7.353,19.376,26.091,33.459,48.469,33.459h61.087h0.014c8.76,15.924,25.685,26.889,45.438,26.889h41.334
	c-19.753,0-36.678-10.964-45.438-26.889c-5.047-9.166-7.382-19.956-6.004-31.24L242.012,194.869z"/>
<g>
</g>
<g>
</g>
<g>
</g>
<g>
</g>
<g>
</g>
<g>
</g>
<g>
</g>
<g>
</g>
<g>
</g>
<g>
</g>
<g>
</g>
<g>
</g>
<g>
</g>
<g>
</g>
<g>
</g>
</svg>
