<?xml version="1.0" encoding="iso-8859-1"?>
<!-- Generator: Adobe Illustrator 19.0.0, SVG Export Plug-In . SVG Version: 6.00 Build 0)  -->
<svg version="1.1" id="Layer_1" xmlns="http://www.w3.org/2000/svg" xmlns:xlink="http://www.w3.org/1999/xlink" x="0px" y="0px"
	 viewBox="0 0 512 512" style="enable-background:new 0 0 512 512;" xml:space="preserve">
<path style="fill:#A5001E;" d="M418.458,166.102c-7.93-39.64-35.157-65.254-69.367-65.254c-8.083,0-15.984,1.426-23.389,4.08
	C323.783,68.135,293.264,38.788,256,38.788s-67.784,29.347-69.702,66.141c-7.405-2.655-15.306-4.08-23.389-4.08
	c-34.209,0-61.437,25.614-69.367,65.254l-27.29,136.443h3.565h20.17h23.734h51.548h23.408h23.406h87.836h23.406h23.408h51.548
	h23.732h20.17h3.565L418.458,166.102z"/>
<g>
	<path style="fill:#FF0C38;" d="M349.091,147.394c-7.059,0-13.688,3.267-18.061,8.622l15.701,146.53h51.548l-25.463-127.314
		C371.886,170.583,366.373,147.394,349.091,147.394z"/>
	<path style="fill:#FF0C38;" d="M162.909,147.394c-17.282,0-22.795,23.189-23.724,27.837l-25.463,127.314h51.548l15.701-146.53
		C176.597,150.661,169.968,147.394,162.909,147.394z"/>
	<path style="fill:#FF0C38;" d="M283.645,150.663l-2.493-23.273l-1.747-16.305c-0.088-0.824-0.132-1.651-0.132-2.479
		c0-12.833-10.44-23.273-23.273-23.273c-12.834,0-23.273,10.44-23.273,23.273c0,0.829-0.043,1.655-0.132,2.479l-1.747,16.305
		l-2.493,23.273l-2.492,23.273l-13.782,128.61h87.836l-13.781-128.61L283.645,150.663z"/>
</g>
<path style="fill:#C3C3C7;" d="M488.727,302.545h-42.98h-3.565h-20.17h-23.734h-51.548h-23.408h-23.406H256h-43.919h-23.406h-23.408
	h-51.546H89.988h-20.17h-3.565h-42.98C10.42,302.545,0,312.965,0,325.818s10.42,23.273,23.273,23.273h28.374l26.624,106.493
	c2.589,10.359,11.899,17.628,22.578,17.628H256h155.152c10.679,0,19.988-7.269,22.578-17.628l26.624-106.493h28.374
	c12.853,0,23.273-10.42,23.273-23.273S501.58,302.545,488.727,302.545z"/>
<path style="fill:#A9A8AE;" d="M212.081,302.545h-23.406h-23.408h-51.546H89.988h-20.17h-3.565h-42.98
	C10.42,302.545,0,312.965,0,325.818s10.42,23.273,23.273,23.273h28.374l26.624,106.493c2.589,10.359,11.899,17.628,22.578,17.628
	H256V302.545H212.081z"/>
<g>
</g>
<g>
</g>
<g>
</g>
<g>
</g>
<g>
</g>
<g>
</g>
<g>
</g>
<g>
</g>
<g>
</g>
<g>
</g>
<g>
</g>
<g>
</g>
<g>
</g>
<g>
</g>
<g>
</g>
</svg>
