<?xml version="1.0" encoding="iso-8859-1"?>
<!-- Generator: Adobe Illustrator 19.0.0, SVG Export Plug-In . SVG Version: 6.00 Build 0)  -->
<svg version="1.1" id="Layer_1" xmlns="http://www.w3.org/2000/svg" xmlns:xlink="http://www.w3.org/1999/xlink" x="0px" y="0px"
	 viewBox="0 0 512 512" style="enable-background:new 0 0 512 512;" xml:space="preserve">
<polygon style="fill:#F95428;" points="309.016,48.586 309.016,88.134 254.305,106.585 202.984,88.134 202.984,48.586 
	262.78,27.491 "/>
<path style="fill:#F7B239;" d="M320.36,15.457v33.129h-11.344H202.984H191.64V15.457C191.64,6.915,198.555,0,207.097,0h97.794
	C313.434,0,320.36,6.915,320.36,15.457z"/>
<path style="fill:#E09B2D;" d="M242.125,0h-35.027c-8.542,0-15.457,6.915-15.457,15.457v33.129h11.344h23.683V15.457
	C226.667,6.915,233.582,0,242.125,0z"/>
<rect x="202.99" y="48.586" style="fill:#E54728;" width="31.638" height="39.547"/>
<path style="fill:#F95428;" d="M361.523,348.941v141.375c0,11.977-9.706,21.683-21.672,21.683H172.149
	c-11.977,0-21.672-9.706-21.672-21.683V348.941c0-21.186,2.237-42.259,6.633-62.869c4.395-20.61,10.96-40.756,19.615-60.1
	c10.045-22.44,17.265-45.976,21.559-70.044l58.846-45.389l56.575,45.389c0.588,3.322,1.243,6.644,1.943,9.943
	c4.395,20.61,10.96,40.756,19.615,60.1C352.574,264.661,361.523,306.558,361.523,348.941z"/>
<path style="fill:#E54728;" d="M200.193,490.317V348.941c0-21.186,2.237-42.259,6.633-62.869
	c4.395-20.61,18.802-106.077,23.096-130.144h-31.638c-4.294,24.067-11.514,47.603-21.559,70.044
	c-8.655,19.344-15.22,39.491-19.615,60.1c-4.395,20.61-6.633,41.683-6.633,62.869v141.375c0,11.977,9.695,21.683,21.672,21.683
	h49.716C209.888,512,200.193,502.294,200.193,490.317z"/>
<g>
	<path style="fill:#F7B239;" d="M325.682,303.191l-15.604,151.036H201.922l-15.604-151.036
		c22.214-9.683,45.942-14.531,69.682-14.531C279.728,288.66,303.457,293.508,325.682,303.191z"/>
	<path style="fill:#F7B239;" d="M313.705,155.929H198.284c3.119-17.435,4.7-35.14,4.7-52.937V88.134h106.032v14.858
		C309.016,120.788,310.598,138.494,313.705,155.929z"/>
</g>
<path style="fill:#E09B2D;" d="M234.622,88.134h-31.638v14.858c0,17.796-1.582,35.502-4.7,52.937h31.638
	c3.119-17.435,4.7-35.14,4.7-52.937V88.134z"/>
<g>
</g>
<g>
</g>
<g>
</g>
<g>
</g>
<g>
</g>
<g>
</g>
<g>
</g>
<g>
</g>
<g>
</g>
<g>
</g>
<g>
</g>
<g>
</g>
<g>
</g>
<g>
</g>
<g>
</g>
</svg>
