<?xml version="1.0" encoding="iso-8859-1"?>
<!-- Generator: Adobe Illustrator 19.0.0, SVG Export Plug-In . SVG Version: 6.00 Build 0)  -->
<svg version="1.1" id="Layer_1" xmlns="http://www.w3.org/2000/svg" xmlns:xlink="http://www.w3.org/1999/xlink" x="0px" y="0px"
	 viewBox="0 0 465.454 465.454" style="enable-background:new 0 0 465.454 465.454;" xml:space="preserve">
<path style="fill:#DF6246;" d="M418.908,171.087c-13.638-8.752-29.502-14.305-46.545-15.608c-2.563-0.195-5.143-0.327-7.758-0.327
	h-54.303H287.03h-23.273h-54.303c-2.614,0-5.194,0.132-7.758,0.327c-17.043,1.303-32.908,6.856-46.545,15.608
	c-8.105,5.202-15.417,11.526-21.72,18.759l-27.879-27.878c-4.363-4.364-10.282-6.817-16.455-6.817s-12.093,2.453-16.455,6.817
	L6.817,227.793c-9.089,9.087-9.089,23.824,0,32.912l101.789,101.79v64.171c0,12.853,10.42,23.273,23.273,23.273H287.03h155.152
	c12.853,0,23.273-10.42,23.273-23.273V256C465.454,220.378,446.871,189.033,418.908,171.087z"/>
<g>
	<path style="fill:#A78966;" d="M395.636,77.575h-23.273v77.903c17.043,1.303,32.908,6.856,46.545,15.608V54.303
		C418.908,67.155,408.488,77.575,395.636,77.575z"/>
	<path style="fill:#A78966;" d="M201.696,77.575h-23.273c-12.853,0-23.273-10.42-23.273-23.273v116.784
		c13.638-8.752,29.502-14.305,46.545-15.608V77.575z"/>
</g>
<path style="fill:#806749;" d="M178.423,77.575h23.273h170.667h23.273c12.853,0,23.273-10.42,23.273-23.273V38.787
	c0-12.853-10.42-23.273-23.273-23.273H178.423c-12.853,0-23.273,10.42-23.273,23.273v15.515
	C155.151,67.155,165.571,77.575,178.423,77.575z"/>
<path style="fill:#77757F;" d="M287.03,124.121c-12.853,0-23.273,10.42-23.273,23.273v7.758h23.273h23.273v-7.758
	C310.302,134.541,299.882,124.121,287.03,124.121z"/>
<path style="fill:#DD512A;" d="M263.757,155.151h-54.303c-2.614,0-5.194,0.132-7.758,0.327
	c-17.043,1.303-32.908,6.856-46.545,15.608c-8.105,5.202-15.417,11.526-21.72,18.759l-27.879-27.878
	c-4.363-4.364-10.282-6.817-16.455-6.817s-12.093,2.453-16.455,6.817L6.817,227.793c-9.089,9.087-9.089,23.824,0,32.912
	l101.789,101.79v64.171c0,12.853,10.42,23.273,23.273,23.273H287.03V155.151H263.757z"/>
<g>
</g>
<g>
</g>
<g>
</g>
<g>
</g>
<g>
</g>
<g>
</g>
<g>
</g>
<g>
</g>
<g>
</g>
<g>
</g>
<g>
</g>
<g>
</g>
<g>
</g>
<g>
</g>
<g>
</g>
</svg>
