<?xml version="1.0" encoding="iso-8859-1"?>
<!-- Generator: Adobe Illustrator 19.0.0, SVG Export Plug-In . SVG Version: 6.00 Build 0)  -->
<svg version="1.1" id="Layer_1" xmlns="http://www.w3.org/2000/svg" xmlns:xlink="http://www.w3.org/1999/xlink" x="0px" y="0px"
	 viewBox="0 0 512 512" style="enable-background:new 0 0 512 512;" xml:space="preserve">
<path style="fill:#FFDB2D;" d="M423.611,236.441H259.92V72.752C259.92,32.637,292.556,0,332.67,0s72.752,32.637,72.752,72.752
	v18.186h18.189c40.115,0,72.75,32.637,72.75,72.752S463.726,236.441,423.611,236.441z M299.327,197.034h124.284
	c18.386,0,33.343-14.959,33.343-33.345s-14.957-33.345-33.343-33.345h-57.596V72.752c0-18.386-14.959-33.345-33.345-33.345
	s-33.343,14.959-33.343,33.345L299.327,197.034L299.327,197.034z"/>
<path style="fill:#FFAF33;" d="M423.611,90.938h-18.188l-39.407,39.407h57.594c18.386,0,33.343,14.959,33.343,33.345
	s-14.957,33.345-33.343,33.345H299.327l-39.407,39.407h163.691c40.115,0,72.75-32.637,72.75-72.752S463.726,90.938,423.611,90.938z"
	/>
<g>
	
		<rect x="89.614" y="399.407" transform="matrix(-0.7071 -0.7071 0.7071 -0.7071 -87.3164 802.0535)" style="fill:#FFDB2D;" width="65.677" height="39.406"/>
	
		<rect x="33.88" y="455.144" transform="matrix(-0.7071 -0.7071 0.7071 -0.7071 -221.872 857.7927)" style="fill:#FFDB2D;" width="65.677" height="39.406"/>
</g>
<rect x="132.937" y="168.433" transform="matrix(-0.7071 -0.7071 0.7071 -0.7071 18.4038 692.5803)" style="fill:#FFEA8A;" width="39.406" height="348.09"/>
<g>
</g>
<g>
</g>
<g>
</g>
<g>
</g>
<g>
</g>
<g>
</g>
<g>
</g>
<g>
</g>
<g>
</g>
<g>
</g>
<g>
</g>
<g>
</g>
<g>
</g>
<g>
</g>
<g>
</g>
</svg>
