<?xml version="1.0" encoding="iso-8859-1"?>
<!-- Generator: Adobe Illustrator 19.0.0, SVG Export Plug-In . SVG Version: 6.00 Build 0)  -->
<svg version="1.1" id="Layer_1" xmlns="http://www.w3.org/2000/svg" xmlns:xlink="http://www.w3.org/1999/xlink" x="0px" y="0px"
	 viewBox="0 0 512 512" style="enable-background:new 0 0 512 512;" xml:space="preserve">
<path style="fill:#F9EBDB;" d="M178.087,58.435c-36.73,0-66.783,30.052-66.783,66.783l166.957,22.261L256,58.435H178.087z"/>
<g>
	<path style="fill:#F7CD95;" d="M333.913,58.435H256v89.043l144.696-22.261C400.696,88.487,370.643,58.435,333.913,58.435z"/>
	<path style="fill:#F7CD95;" d="M126.314,292.174H83.478C37.448,292.174,0,254.726,0,208.696s37.448-83.478,83.478-83.478h38.957
		v33.391H83.478c-27.618,0-50.087,22.469-50.087,50.087s22.469,50.087,50.087,50.087h42.835V292.174z"/>
</g>
<polygon style="fill:#F9EBDB;" points="36.174,386.783 58.76,453.565 255.443,453.565 277.704,386.783 "/>
<g>
	<polygon style="fill:#E8D6BD;" points="255.443,386.783 255.443,453.565 453.704,453.565 475.826,386.783 	"/>
	<polygon style="fill:#E8D6BD;" points="0,370.087 0,403.478 255.722,403.478 266.991,386.783 256,370.087 	"/>
</g>
<rect x="256" y="370.087" style="fill:#D2BA9C;" width="256" height="33.391"/>
<polygon style="fill:#F7CD95;" points="111.304,125.217 111.304,192 256,284.34 256,125.217 "/>
<polygon style="fill:#FF9A52;" points="256,125.217 256,284.34 400.696,192 400.696,125.217 "/>
<path style="fill:#BD9F79;" d="M183.652,217.558c-36.174,0-36.174-25.558-72.348-25.558v33.391
	c0,79.913,64.782,144.696,144.696,144.696l22.261-89.043L256,192C219.826,192,219.826,217.558,183.652,217.558z"/>
<path style="fill:#AD8063;" d="M328.348,217.558C292.174,217.558,292.174,192,256,192v178.087
	c79.913,0,144.696-64.782,144.696-144.696V192C364.522,192,364.522,217.558,328.348,217.558z"/>
<g>
</g>
<g>
</g>
<g>
</g>
<g>
</g>
<g>
</g>
<g>
</g>
<g>
</g>
<g>
</g>
<g>
</g>
<g>
</g>
<g>
</g>
<g>
</g>
<g>
</g>
<g>
</g>
<g>
</g>
</svg>
