<?xml version="1.0" encoding="iso-8859-1"?>
<!-- Generator: Adobe Illustrator 19.0.0, SVG Export Plug-In . SVG Version: 6.00 Build 0)  -->
<svg version="1.1" id="Layer_1" xmlns="http://www.w3.org/2000/svg" xmlns:xlink="http://www.w3.org/1999/xlink" x="0px" y="0px"
	 viewBox="0 0 512 512" style="enable-background:new 0 0 512 512;" xml:space="preserve">
<path style="fill:#F2D23D;" d="M486.909,185.08c-13.574-16.764-31.786-29.328-52.089-36.107
	C395.943,92.743,328.666,57.813,256,56.471c-1.446-0.028-2.89-0.064-4.339-0.064c-76.677,0-147.197,37.031-186.288,97.221
	C25.909,171.947,0,211.958,0,256s25.909,84.053,65.373,102.372c39.091,60.19,109.611,97.221,186.288,97.221
	c1.449,0,2.893-0.038,4.339-0.064c72.666-1.342,139.943-36.272,178.82-92.502c20.303-6.779,38.513-19.343,52.089-36.107
	C503.088,306.938,512,281.751,512,256S503.088,205.062,486.909,185.08z"/>
<path style="fill:#EEBF00;" d="M65.373,358.372c39.091,60.19,109.611,97.221,186.288,97.221c1.449,0,2.893-0.038,4.339-0.064V56.471
	c-1.446-0.028-2.89-0.064-4.339-0.064c-76.677,0-147.197,37.031-186.288,97.221C25.909,171.947,0,211.958,0,256
	S25.909,340.053,65.373,358.372z"/>
<g>
</g>
<g>
</g>
<g>
</g>
<g>
</g>
<g>
</g>
<g>
</g>
<g>
</g>
<g>
</g>
<g>
</g>
<g>
</g>
<g>
</g>
<g>
</g>
<g>
</g>
<g>
</g>
<g>
</g>
</svg>
