<?xml version="1.0" encoding="iso-8859-1"?>
<!-- Generator: Adobe Illustrator 19.0.0, SVG Export Plug-In . SVG Version: 6.00 Build 0)  -->
<svg version="1.1" id="Layer_1" xmlns="http://www.w3.org/2000/svg" xmlns:xlink="http://www.w3.org/1999/xlink" x="0px" y="0px"
	 viewBox="0 0 512 512" style="enable-background:new 0 0 512 512;" xml:space="preserve">
<g>
	<path style="fill:#FAD97F;" d="M502.968,206.628c-6.019-6.049-13.934-9.057-21.816-9.057H335.401v61.724h145.751
		c7.882,0,15.8-3.034,21.816-9.057c6.021-6.026,9.032-13.908,9.032-21.801C512,220.521,508.987,212.639,502.968,206.628z"/>
	<path style="fill:#FAD97F;" d="M485.517,268.344c-6.029-6.039-13.924-9.05-21.834-9.05h-156.49v61.709h156.49
		c7.91,0,15.805-3,21.834-9.034c6.008-6.026,9.032-13.908,9.032-21.814C494.551,282.263,491.525,274.371,485.517,268.344z"/>
	<path style="fill:#FAD97F;" d="M468.401,330.038c-6.042-6.001-13.919-9.032-21.85-9.032H278.925v61.714h167.626
		c7.933,0,15.808-3.026,21.85-9.05c6.026-6.008,9.05-13.883,9.05-21.801C477.45,343.969,474.424,336.087,468.401,330.038z"/>
	<path style="fill:#FAD97F;" d="M451.282,391.78c-6.031-6.049-13.924-9.06-21.832-9.06H250.867v61.716H429.45
		c7.908,0,15.8-3,21.832-9.024c6.011-6.031,9.042-13.919,9.042-21.832C460.324,405.688,457.293,397.806,451.282,391.78z"/>
	<path style="fill:#FAD97F;" d="M360.317,67.971c-6.029-6.075-13.919-9.075-21.829-9.075c-7.854,0-15.795,3-21.78,9.075
		c-6.057,6.008-9.065,13.891-9.065,21.783v-3.141c0,14.917-2.834,30.134-8.975,44.759c-6.134,14.641-14.661,27.067-25.293,37.558
		c-8.957,8.824-19.738,16.118-32.1,21.192c-12.367,5.082-25.137,7.45-37.724,7.45h-15.035v246.866h149.972v-220.15l14.062-34.767
		c5.432-13.509,9.682-27.717,12.567-42.575c2.875-14.792,4.25-29.601,4.25-44.168V89.754
		C369.367,81.864,366.374,73.979,360.317,67.971z"/>
</g>
<path style="fill:#3F4A5A;" d="M0,435.039c0,4.626,1.764,9.249,5.294,12.774c3.528,3.533,8.154,5.292,12.777,5.292h159.153
	c4.626,0,9.249-1.761,12.774-5.292c3.533-3.525,5.299-8.151,5.299-12.774v-228.06c0-4.626-1.766-9.249-5.299-12.774
	c-3.525-3.533-8.151-5.299-12.774-5.299H18.071c-4.623,0-9.249,1.766-12.777,5.299C1.764,197.729,0,202.353,0,206.979V435.039z"/>
<path style="fill:#FFFFFF;" d="M160.026,406.52c0,7.918-6.441,14.326-14.341,14.326c-7.918,0-14.349-6.408-14.349-14.326
	c0-7.933,6.433-14.349,14.349-14.349C153.585,392.169,160.026,398.587,160.026,406.52z"/>
<g>
</g>
<g>
</g>
<g>
</g>
<g>
</g>
<g>
</g>
<g>
</g>
<g>
</g>
<g>
</g>
<g>
</g>
<g>
</g>
<g>
</g>
<g>
</g>
<g>
</g>
<g>
</g>
<g>
</g>
</svg>
