<?xml version="1.0" encoding="iso-8859-1"?>
<!-- Generator: Adobe Illustrator 19.0.0, SVG Export Plug-In . SVG Version: 6.00 Build 0)  -->
<svg version="1.1" id="Layer_1" xmlns="http://www.w3.org/2000/svg" xmlns:xlink="http://www.w3.org/1999/xlink" x="0px" y="0px"
	 viewBox="0 0 512 512" style="enable-background:new 0 0 512 512;" xml:space="preserve">
<path d="M407.176,512H104.808c-20.096,0-36.544-16.448-36.544-36.544V36.544C68.264,16.448,84.696,0,104.808,0h302.384
	c20.096,0,36.544,16.448,36.544,36.544v438.912C443.72,495.552,427.288,512,407.176,512z"/>
<g>
	<polygon style="fill:#32BEA6;" points="171.848,132.704 133.048,105.664 142.216,92.544 167.912,110.448 201.304,62.752 
		214.392,71.936 	"/>
	<polygon style="fill:#32BEA6;" points="171.848,236.048 133.048,208.992 142.216,195.872 167.912,213.792 201.304,166.08 
		214.392,175.264 	"/>
	<polygon style="fill:#32BEA6;" points="171.864,339.376 133.048,312.336 142.216,299.216 167.896,317.12 201.304,269.408 
		214.392,278.592 	"/>
	<polygon style="fill:#32BEA6;" points="171.848,442.704 133.048,415.664 142.216,402.544 167.912,420.448 201.304,372.752 
		214.392,381.936 	"/>
</g>
<g>
	<rect x="255.912" y="90.96" style="fill:#FFFFFF;" width="122" height="16"/>
	<rect x="255.912" y="195.664" style="fill:#FFFFFF;" width="122" height="16"/>
	<rect x="255.912" y="300.336" style="fill:#FFFFFF;" width="122" height="16"/>
	<rect x="255.912" y="405.04" style="fill:#FFFFFF;" width="122" height="16"/>
</g>
<g>
</g>
<g>
</g>
<g>
</g>
<g>
</g>
<g>
</g>
<g>
</g>
<g>
</g>
<g>
</g>
<g>
</g>
<g>
</g>
<g>
</g>
<g>
</g>
<g>
</g>
<g>
</g>
<g>
</g>
</svg>
