<?xml version="1.0" encoding="iso-8859-1"?>
<!-- Generator: Adobe Illustrator 19.0.0, SVG Export Plug-In . SVG Version: 6.00 Build 0)  -->
<svg version="1.1" id="Capa_1" xmlns="http://www.w3.org/2000/svg" xmlns:xlink="http://www.w3.org/1999/xlink" x="0px" y="0px"
	 viewBox="0 0 370 370" style="enable-background:new 0 0 370 370;" xml:space="preserve">
<g id="XMLID_815_">
	<g id="XMLID_816_">
		<path id="XMLID_819_" style="fill:#F9E375;" d="M236.928,220c-10.391,17.916-29.769,30-51.928,30c-33.084,0-60-26.916-60-60v-90
			c0-33.084,26.916-60,60-60s60,26.916,60,60h40C285,44.86,240.14,0,185,0S85,44.86,85,100v90c0,55.14,44.86,100,100,100
			c44.692,0,82.628-29.472,95.4-70H236.928z"/>
		<g id="XMLID_820_">
			<path id="XMLID_823_" style="fill:#FA9702;" d="M236.928,220c-10.391,17.916-29.769,30-51.928,30v40
				c44.692,0,82.628-29.472,95.4-70H236.928z"/>
			<path id="XMLID_826_" style="fill:#F5D361;" d="M245,100h40C285,44.86,240.14,0,185,0v40C218.084,40,245,66.916,245,100z"/>
		</g>
	</g>
	<g id="XMLID_827_">
		<g id="XMLID_828_">
			<circle id="XMLID_831_" style="fill:#D77258;" cx="185" cy="245" r="125"/>
			<path id="XMLID_834_" style="fill:#D14F4E;" d="M185,120v250c69.036,0,125-55.964,125-125S254.036,120,185,120z"/>
		</g>
		<g id="XMLID_835_">
			<path id="XMLID_838_" style="fill:#F9E375;" d="M216.25,231.607c0-17.259-13.991-31.25-31.25-31.25s-31.25,13.991-31.25,31.25
				c0,11.565,6.287,21.655,15.625,27.059v30.977h31.25v-30.977C209.963,253.262,216.25,243.172,216.25,231.607z"/>
			<path id="XMLID_841_" style="fill:#F5D361;" d="M185,200.357v89.286h15.625v-30.977c9.338-5.404,15.625-15.494,15.625-27.059
				C216.25,214.348,202.259,200.357,185,200.357z"/>
		</g>
	</g>
</g>
<g>
</g>
<g>
</g>
<g>
</g>
<g>
</g>
<g>
</g>
<g>
</g>
<g>
</g>
<g>
</g>
<g>
</g>
<g>
</g>
<g>
</g>
<g>
</g>
<g>
</g>
<g>
</g>
<g>
</g>
</svg>
