<?xml version="1.0" encoding="iso-8859-1"?>
<!-- Generator: Adobe Illustrator 19.0.0, SVG Export Plug-In . SVG Version: 6.00 Build 0)  -->
<svg version="1.1" id="Capa_1" xmlns="http://www.w3.org/2000/svg" xmlns:xlink="http://www.w3.org/1999/xlink" x="0px" y="0px"
	 viewBox="0 0 380 380" style="enable-background:new 0 0 380 380;" xml:space="preserve">
<g id="XMLID_784_">
	<g id="XMLID_785_">
		<g id="XMLID_791_">
			<g id="XMLID_787_">
				<path id="XMLID_788_" style="fill:#F9E375;" d="M190,277.115c-48.192,0-87.4-39.208-87.4-87.4v-78.66
					c0-48.192,39.208-87.4,87.4-87.4s87.4,39.208,87.4,87.4v78.66C277.4,237.907,238.192,277.115,190,277.115z M190,58.615
					c-28.915,0-52.44,23.525-52.44,52.44v78.66c0,28.915,23.525,52.44,52.44,52.44s52.44-23.525,52.44-52.44v-78.66
					C242.44,82.14,218.915,58.615,190,58.615z"/>
			</g>
		</g>
		<path id="XMLID_797_" style="fill:#F5D361;" d="M190,23.655v34.96c28.915,0,52.44,23.525,52.44,52.44v78.66
			c0,28.915-23.525,52.44-52.44,52.44v34.96c48.192,0,87.4-39.208,87.4-87.4v-78.66C277.4,62.863,238.192,23.655,190,23.655z"/>
	</g>
	<g id="XMLID_800_">
		<g id="XMLID_799_">
			<rect id="XMLID_51_" x="256.5" y="174.231" style="fill:#2974A8;" width="76" height="47.5"/>
			<polygon id="XMLID_50_" style="fill:#2974A8;" points="308.75,156.845 380,197.981 308.75,239.117 			"/>
		</g>
	</g>
	<g id="XMLID_801_">
		<rect id="XMLID_46_" x="47.5" y="272.459" style="fill:#6DA8D6;" width="76" height="47.5"/>
		<polygon id="XMLID_45_" style="fill:#6DA8D6;" points="71.25,255.073 0,296.209 71.25,337.345 		"/>
	</g>
	<g id="XMLID_802_">
		<g id="XMLID_803_">
			<circle id="XMLID_804_" style="fill:#98D9D5;" cx="190" cy="247.095" r="109.25"/>
			<path id="XMLID_807_" style="fill:#6DA8D6;" d="M190,137.845v218.5c60.337,0,109.25-48.913,109.25-109.25
				S250.337,137.845,190,137.845z"/>
		</g>
		<g id="XMLID_808_">
			<path id="XMLID_811_" style="fill:#F9E375;" d="M217.313,235.39c0-15.084-12.228-27.313-27.313-27.313
				s-27.313,12.228-27.313,27.313c0,10.108,5.495,18.926,13.656,23.649v27.074h27.313v-27.074
				C211.818,254.316,217.313,245.497,217.313,235.39z"/>
			<path id="XMLID_814_" style="fill:#F5D361;" d="M190,208.077v78.036h13.656v-27.074c8.161-4.723,13.656-13.542,13.656-23.649
				C217.313,220.305,205.084,208.077,190,208.077z"/>
		</g>
	</g>
</g>
<g>
</g>
<g>
</g>
<g>
</g>
<g>
</g>
<g>
</g>
<g>
</g>
<g>
</g>
<g>
</g>
<g>
</g>
<g>
</g>
<g>
</g>
<g>
</g>
<g>
</g>
<g>
</g>
<g>
</g>
</svg>
