<?xml version="1.0" encoding="iso-8859-1"?>
<!-- Generator: Adobe Illustrator 19.0.0, SVG Export Plug-In . SVG Version: 6.00 Build 0)  -->
<svg version="1.1" id="Layer_1" xmlns="http://www.w3.org/2000/svg" xmlns:xlink="http://www.w3.org/1999/xlink" x="0px" y="0px"
	 viewBox="0 0 511.999 511.999" style="enable-background:new 0 0 511.999 511.999;" xml:space="preserve">
<rect x="143.853" y="135.426" transform="matrix(-0.7071 -0.7071 0.7071 -0.7071 37.5938 709.4789)" style="fill:#DFDFE1;" width="43.764" height="423.054"/>
<path style="fill:#FF4F19;" d="M511.309,159.91c0-32.538-26.377-58.913-58.915-58.913h-42.081V58.915
	C410.314,26.377,383.937,0,351.399,0c-32.536,0-58.913,26.377-58.913,58.913v159.91h159.909
	C484.932,218.823,511.309,192.446,511.309,159.91z"/>
<path style="fill:#AF2E08;" d="M511.309,159.91c0-32.538-26.377-58.913-58.915-58.913h-40.716L293.852,218.823h158.543
	C484.932,218.823,511.309,192.446,511.309,159.91z"/>
<g>
</g>
<g>
</g>
<g>
</g>
<g>
</g>
<g>
</g>
<g>
</g>
<g>
</g>
<g>
</g>
<g>
</g>
<g>
</g>
<g>
</g>
<g>
</g>
<g>
</g>
<g>
</g>
<g>
</g>
</svg>
