<?xml version="1.0" encoding="iso-8859-1"?>
<!-- Generator: Adobe Illustrator 19.0.0, SVG Export Plug-In . SVG Version: 6.00 Build 0)  -->
<svg version="1.1" id="Layer_1" xmlns="http://www.w3.org/2000/svg" xmlns:xlink="http://www.w3.org/1999/xlink" x="0px" y="0px"
	 viewBox="0 0 512 512" style="enable-background:new 0 0 512 512;" xml:space="preserve">
<rect x="15.059" y="104.087" style="fill:#DFDFE1;" width="481.882" height="264.855"/>
<rect x="256" y="104.087" style="fill:#CFCDD2;" width="240.941" height="264.855"/>
<path style="fill:#F2F2F4;" d="M486.293,108.53L256,338.824L25.707,108.53C16.22,99.043,0,105.763,0,119.179v325.057h512V119.179
	C512,105.763,495.78,99.043,486.293,108.53z"/>
<path style="fill:#DFDFE1;" d="M486.293,108.53L256,338.824v105.412h256V119.179C512,105.763,495.78,99.043,486.293,108.53z"/>
<path style="fill:#FF4F19;" d="M367.58,84.792c-22.704-22.703-59.512-22.703-82.217,0L256,114.155l-29.363-29.363
	c-22.704-22.703-59.512-22.703-82.217,0c-22.703,22.703-22.703,59.512,0,82.217L256,278.588l111.58-111.58
	C390.283,144.306,390.283,107.496,367.58,84.792z"/>
<polygon style="fill:#DFDFE1;" points="196.677,279.501 164.734,247.558 0,412.291 0,444.235 31.944,444.235 "/>
<polygon style="fill:#CFCDD2;" points="347.266,247.558 315.323,279.501 480.056,444.235 512,444.235 512,412.291 "/>
<path style="fill:#AF2E08;" d="M367.58,84.792c-22.704-22.703-59.512-22.703-82.217,0L256,114.155v164.433l111.58-111.58
	C390.283,144.306,390.283,107.496,367.58,84.792z"/>
<g>
</g>
<g>
</g>
<g>
</g>
<g>
</g>
<g>
</g>
<g>
</g>
<g>
</g>
<g>
</g>
<g>
</g>
<g>
</g>
<g>
</g>
<g>
</g>
<g>
</g>
<g>
</g>
<g>
</g>
</svg>
