<?xml version="1.0" encoding="iso-8859-1"?>
<!-- Generator: Adobe Illustrator 19.0.0, SVG Export Plug-In . SVG Version: 6.00 Build 0)  -->
<svg version="1.1" id="Layer_1" xmlns="http://www.w3.org/2000/svg" xmlns:xlink="http://www.w3.org/1999/xlink" x="0px" y="0px"
	 viewBox="0 0 512 512" style="enable-background:new 0 0 512 512;" xml:space="preserve">
<path style="fill:#DFDFE1;" d="M350.316,377.263V134.737c0-44.648-36.194-80.842-80.842-80.842H80.842v323.368
	c0,44.648,36.194,80.842,80.842,80.842h269.474v-80.842H350.316z"/>
<path style="fill:#CFCDD2;" d="M350.316,377.263V134.737c0-44.648-36.194-80.842-80.842-80.842h-53.895v404.211h215.579v-80.842
	H350.316z"/>
<path style="fill:#AEADB3;" d="M350.316,377.263c0,44.684,36.158,80.842,80.842,80.842S512,421.947,512,377.263H350.316z"/>
<path style="fill:#F2F2F4;" d="M80.842,53.895C36.158,53.895,0,90.053,0,134.737h188.632c0-44.684,36.158-80.842,80.842-80.842
	H80.842z"/>
<path style="fill:#FF4F19;" d="M215.579,331.723l-46.308-46.308c-12.875-12.875-12.877-33.826-0.003-46.704
	c12.746-12.746,33.403-12.88,46.31-0.393c12.906-12.485,33.562-12.353,46.308,0.392l0.003,0.001
	c12.874,12.878,12.873,33.828-0.003,46.704L215.579,331.723z"/>
<path style="fill:#AF2E08;" d="M261.889,238.712l-0.003-0.001c-12.746-12.745-33.401-12.877-46.308-0.392v93.405l46.308-46.308
	C274.762,272.54,274.763,251.59,261.889,238.712z"/>
<g>
</g>
<g>
</g>
<g>
</g>
<g>
</g>
<g>
</g>
<g>
</g>
<g>
</g>
<g>
</g>
<g>
</g>
<g>
</g>
<g>
</g>
<g>
</g>
<g>
</g>
<g>
</g>
<g>
</g>
</svg>
