<?xml version="1.0" encoding="iso-8859-1"?>
<!-- Generator: Adobe Illustrator 19.0.0, SVG Export Plug-In . SVG Version: 6.00 Build 0)  -->
<svg version="1.1" id="Layer_1" xmlns="http://www.w3.org/2000/svg" xmlns:xlink="http://www.w3.org/1999/xlink" x="0px" y="0px"
	 viewBox="0 0 512 512" style="enable-background:new 0 0 512 512;" xml:space="preserve">
<polygon style="fill:#F2F2F4;" points="451.765,512 60.235,512 60.235,0 331.294,0 451.765,120.471 "/>
<polygon style="fill:#DFDFE1;" points="331.294,120.471 331.294,0 256,0 256,512 451.765,512 451.765,120.471 "/>
<path style="fill:#FF4F19;" d="M256,376.471l87.669-87.669c17.839-17.839,17.839-46.761,0-64.598
	c-17.839-17.839-46.761-17.839-64.599,0L256,247.273l-23.072-23.07c-17.839-17.839-46.761-17.839-64.598,0
	c-17.839,17.839-17.839,46.761,0,64.598L256,376.471z"/>
<path style="fill:#AF2E08;" d="M343.669,224.202c-17.839-17.839-46.761-17.839-64.599,0L256,247.273v129.197l87.669-87.669
	C361.508,270.962,361.508,242.04,343.669,224.202z"/>
<g>
</g>
<g>
</g>
<g>
</g>
<g>
</g>
<g>
</g>
<g>
</g>
<g>
</g>
<g>
</g>
<g>
</g>
<g>
</g>
<g>
</g>
<g>
</g>
<g>
</g>
<g>
</g>
<g>
</g>
</svg>
