<?xml version="1.0" encoding="iso-8859-1"?>
<!-- Generator: Adobe Illustrator 19.0.0, SVG Export Plug-In . SVG Version: 6.00 Build 0)  -->
<svg version="1.1" id="Layer_1" xmlns="http://www.w3.org/2000/svg" xmlns:xlink="http://www.w3.org/1999/xlink" x="0px" y="0px"
	 viewBox="0 0 512 512" style="enable-background:new 0 0 512 512;" xml:space="preserve">
<rect y="60.235" style="fill:#DFDFE1;" width="512" height="391.529"/>
<rect x="256" y="60.235" style="fill:#CFCDD2;" width="256" height="391.529"/>
<polygon style="fill:#F2F2F4;" points="0,60.235 256,316.235 512,60.235 "/>
<polygon style="fill:#AEADB3;" points="339.736,247.558 307.793,279.501 480.056,451.765 512,451.765 512,419.82 "/>
<polygon style="fill:#CFCDD2;" points="204.207,279.501 172.264,247.558 0,419.82 0,451.765 31.944,451.765 "/>
<polygon style="fill:#DFDFE1;" points="256,60.235 256,316.235 512,60.235 "/>
<path style="fill:#FF4F19;" d="M256,346.353l87.669-87.669c17.839-17.839,17.839-46.761,0-64.598
	c-17.839-17.839-46.761-17.839-64.598,0L256,217.156l-23.072-23.07c-17.839-17.839-46.761-17.839-64.598,0
	c-17.839,17.839-17.839,46.761,0,64.598L256,346.353z"/>
<path style="fill:#AF2E08;" d="M343.669,194.084c-17.839-17.839-46.759-17.839-64.598,0l-23.07,23.07v129.197l87.668-87.668
	C361.508,240.845,361.508,211.923,343.669,194.084z"/>
<g>
</g>
<g>
</g>
<g>
</g>
<g>
</g>
<g>
</g>
<g>
</g>
<g>
</g>
<g>
</g>
<g>
</g>
<g>
</g>
<g>
</g>
<g>
</g>
<g>
</g>
<g>
</g>
<g>
</g>
</svg>
