<?xml version="1.0" encoding="iso-8859-1"?>
<!-- Generator: Adobe Illustrator 19.0.0, SVG Export Plug-In . SVG Version: 6.00 Build 0)  -->
<svg version="1.1" id="Layer_1" xmlns="http://www.w3.org/2000/svg" xmlns:xlink="http://www.w3.org/1999/xlink" x="0px" y="0px"
	 viewBox="0 0 512 512" style="enable-background:new 0 0 512 512;" xml:space="preserve">
<polygon style="fill:#B27214;" points="412.322,120.487 412.322,176.372 289.161,202.858 157.85,176.372 157.85,120.487 
	292.951,95.815 "/>
<g>
	<path style="fill:#E56AB4;" d="M443.682,94.044v26.443h-31.36H157.85h-31.345V94.044c0-29.598,23.999-53.597,53.597-53.597h209.969
		C419.669,40.446,443.682,64.446,443.682,94.044z"/>
	<path style="fill:#E56AB4;" d="M443.682,176.372v26.443c0,29.612-24.014,53.611-53.611,53.611H263.566h-15.133h-68.332
		c-29.598,0-53.597-23.999-53.597-53.611v-26.443h31.345h254.473H443.682z"/>
</g>
<g>
	<path style="fill:#BC3987;" d="M244.043,256.426h-63.941c-29.598,0-53.597-23.999-53.597-53.61v-26.443h63.941v26.443
		C190.446,232.427,214.445,256.426,244.043,256.426z"/>
	<path style="fill:#BC3987;" d="M244.043,40.446c-29.598,0-53.597,24.001-53.597,53.599v26.442h-63.941V94.045
		c0-29.598,23.999-53.599,53.597-53.599C180.102,40.446,244.043,40.446,244.043,40.446z"/>
</g>
<rect x="157.85" y="120.494" style="fill:#995C0D;" width="49.732" height="55.885"/>
<polygon style="fill:#F7B239;" points="480.655,335.614 480.655,391.499 375.364,417.89 285.818,391.499 285.818,335.614 
	379.154,314.637 "/>
<rect x="280.134" y="335.607" style="fill:#E09B2D;" width="54.734" height="55.885"/>
<g>
	<path style="fill:#2BA5F7;" d="M512,391.499v26.443c0,29.612-23.999,53.61-53.597,53.61H263.566
		c11.907,0,22.891-3.878,31.786-10.43c13.129-9.689,21.683-25.221,21.811-42.755c0.014-0.142,0.014-0.284,0.014-0.426v-26.443H512
		V391.499z"/>
	<path style="fill:#2BA5F7;" d="M512,309.171v26.442H317.178v-26.442c0-17.705-8.582-33.392-21.825-43.168
		c-8.895-6.55-19.879-10.431-31.786-10.431h194.836C488.001,255.574,512,279.573,512,309.171z"/>
</g>
<g>
	<path style="fill:#2197D8;" d="M391.066,471.553H263.566c11.907,0,22.891-3.878,31.786-10.43
		c13.129-9.689,21.683-25.221,21.811-42.755c0.014-0.142,0.014-0.284,0.014-0.426v-26.443h20.291v26.443
		C337.468,447.554,361.468,471.553,391.066,471.553z"/>
	<path style="fill:#2197D8;" d="M391.066,255.574c-29.598,0-53.597,24.001-53.597,53.599v26.442h-20.291v-26.442
		c0-17.705-8.582-33.392-21.825-43.168c-8.895-6.55-19.879-10.431-31.786-10.431L391.066,255.574L391.066,255.574z"/>
</g>
<polygon style="fill:#F95428;" points="285.818,335.614 285.818,391.499 159.385,423.573 31.345,391.499 31.345,335.614 
	174.542,304.216 "/>
<g>
	<path style="fill:#9AD14B;" d="M317.178,391.499v26.443c0,29.612-23.999,53.611-53.611,53.611h-15.133H53.597
		C23.999,471.554,0,447.554,0,417.942v-26.443h31.345h163.491h31.345h59.636L317.178,391.499L317.178,391.499z"/>
	<path style="fill:#9AD14B;" d="M317.178,309.171v26.443h-31.36h-59.636h-31.345H31.345H0v-26.443
		c0-29.598,23.999-53.597,53.597-53.597h126.504h68.332h15.133C293.178,255.574,317.178,279.573,317.178,309.171z"/>
</g>
<g>
	<path style="fill:#90BC42;" d="M117.538,471.553H53.597C23.999,471.553,0,447.554,0,417.944V391.5h63.941v26.443
		C63.941,447.554,87.941,471.553,117.538,471.553z"/>
	<path style="fill:#90BC42;" d="M117.538,255.574c-29.598,0-53.597,24.001-53.597,53.599v26.442H0v-26.442
		c0-29.598,23.999-53.599,53.597-53.599L117.538,255.574L117.538,255.574z"/>
</g>
<rect x="31.345" y="335.607" style="fill:#E54728;" width="52.73" height="55.885"/>
<g>
</g>
<g>
</g>
<g>
</g>
<g>
</g>
<g>
</g>
<g>
</g>
<g>
</g>
<g>
</g>
<g>
</g>
<g>
</g>
<g>
</g>
<g>
</g>
<g>
</g>
<g>
</g>
<g>
</g>
</svg>
