<?xml version="1.0" encoding="iso-8859-1"?>
<!-- Generator: Adobe Illustrator 19.0.0, SVG Export Plug-In . SVG Version: 6.00 Build 0)  -->
<svg version="1.1" id="Capa_1" xmlns="http://www.w3.org/2000/svg" xmlns:xlink="http://www.w3.org/1999/xlink" x="0px" y="0px"
	 viewBox="0 0 320.339 320.339" style="enable-background:new 0 0 320.339 320.339;" xml:space="preserve">
<g id="XMLID_905_">
	<path id="XMLID_43_" style="fill:#D77258;" d="M11.413,308.925L11.413,308.925c-15.218-15.218-15.218-40.12,0-55.338l94.074-94.074
		c15.218-15.218,40.12-15.218,55.338,0l0,0c15.218,15.218,15.218,40.12,0,55.338l-94.074,94.074
		C51.533,324.143,26.631,324.143,11.413,308.925z"/>
	<circle id="XMLID_40_" style="fill:#D77258;" cx="180.589" cy="139.749" r="139.749"/>
	<circle id="XMLID_37_" style="fill:#DEDFE8;" cx="180.589" cy="139.749" r="95.029"/>
	<path id="XMLID_34_" style="fill:#D14F4E;" d="M180.589,0v279.499c77.181,0,139.749-62.568,139.749-139.749S257.771,0,180.589,0z"
		/>
	<path id="XMLID_3_" style="fill:#C9C7D7;" d="M180.589,44.72v190.059c52.483,0,95.029-42.546,95.029-95.029
		S233.073,44.72,180.589,44.72z"/>
</g>
<g>
</g>
<g>
</g>
<g>
</g>
<g>
</g>
<g>
</g>
<g>
</g>
<g>
</g>
<g>
</g>
<g>
</g>
<g>
</g>
<g>
</g>
<g>
</g>
<g>
</g>
<g>
</g>
<g>
</g>
</svg>
