<?xml version="1.0" encoding="iso-8859-1"?>
<!-- Generator: Adobe Illustrator 19.0.0, SVG Export Plug-In . SVG Version: 6.00 Build 0)  -->
<svg version="1.1" id="Layer_1" xmlns="http://www.w3.org/2000/svg" xmlns:xlink="http://www.w3.org/1999/xlink" x="0px" y="0px"
	 viewBox="0 0 512 512" style="enable-background:new 0 0 512 512;" xml:space="preserve">
<path style="fill:#666666;" d="M512,74.659v362.697C512,478.4,478.416,512,437.356,512H74.659C33.6,512,0,478.4,0,437.356V74.659
	C0,33.6,33.6,0,74.659,0h362.697C478.416,0,512,33.6,512,74.659z"/>
<path style="fill:#F2F2F2;" d="M469.262,74.659v362.697c0,17.592-14.313,31.906-31.906,31.906H74.659
	c-17.592,0-31.906-14.313-31.906-31.906V74.659c0-17.592,14.313-31.906,31.906-31.906h362.697
	C454.949,42.753,469.262,57.067,469.262,74.659z"/>
<path style="fill:#F95428;" d="M365.199,227.241c-4.895-18.711-14.686-36.413-29.357-51.083c-1.414-1.414-2.86-2.782-4.32-4.103
	c-17.546-15.805-38.853-25.145-60.843-28.007c-33.569-4.381-68.723,6.325-94.521,32.108c-25.783,25.8-36.49,60.954-32.108,94.521
	c2.86,21.991,12.2,43.297,28.005,60.843c1.321,1.459,2.689,2.905,4.103,4.319c14.671,14.671,32.372,24.462,51.083,29.359
	c37.547,9.853,79.182,0.062,108.601-29.359C365.261,306.423,375.052,264.788,365.199,227.241z"/>
<g>
	<path style="fill:#E54728;" d="M365.199,227.241L227.241,365.199c-18.711-4.895-36.413-14.686-51.083-29.357
		c-1.414-1.414-2.782-2.86-4.103-4.32l0.016-0.016l159.436-159.436l0.016-0.016c1.461,1.321,2.906,2.689,4.32,4.103
		C350.513,190.829,360.304,208.53,365.199,227.241z"/>
	<path style="fill:#E54728;" d="M270.679,144.05v0.016L144.05,270.679c-4.383-33.569,6.325-68.723,32.108-94.521
		C201.956,150.375,237.11,139.667,270.679,144.05z"/>
</g>
<g>
</g>
<g>
</g>
<g>
</g>
<g>
</g>
<g>
</g>
<g>
</g>
<g>
</g>
<g>
</g>
<g>
</g>
<g>
</g>
<g>
</g>
<g>
</g>
<g>
</g>
<g>
</g>
<g>
</g>
</svg>
