<?xml version="1.0" encoding="iso-8859-1"?>
<!-- Generator: Adobe Illustrator 19.0.0, SVG Export Plug-In . SVG Version: 6.00 Build 0)  -->
<svg version="1.1" id="Layer_1" xmlns="http://www.w3.org/2000/svg" xmlns:xlink="http://www.w3.org/1999/xlink" x="0px" y="0px"
	 viewBox="0 0 512.001 512.001" style="enable-background:new 0 0 512.001 512.001;" xml:space="preserve">
<g>
	<polygon style="fill:#F67656;" points="163.601,283.201 75.506,467.954 143.715,443.792 167.904,512.001 255.991,327.282 	"/>
	<polygon style="fill:#F67656;" points="348.387,283.201 436.482,467.954 368.286,443.792 344.094,512.001 255.991,327.282 	"/>
</g>
<path style="fill:#FAD97F;" d="M243.614,14.401c6.825,4.529,17.974,4.529,24.796,0l18.004-11.96
	c6.799-4.529,15.979-2.568,20.367,4.329l11.574,18.271c4.383,6.912,14.566,11.448,22.633,10.074l21.327-3.61
	c8.061-1.367,15.639,4.137,16.827,12.232l3.172,21.353c1.188,8.095,8.648,16.399,16.576,18.447l20.925,5.391
	c7.923,2.048,12.6,10.168,10.396,18.056l-5.793,20.751c-2.207,7.88,1.231,18.496,7.649,23.593l16.983,13.471
	c6.413,5.089,7.388,14.392,2.173,20.703l-13.786,16.64c-5.228,6.313-6.395,17.4-2.596,24.663l10.012,19.128
	c3.781,7.247,0.901,16.159-6.438,19.817l-19.361,9.608c-7.324,3.64-12.913,13.286-12.401,21.473l1.347,21.553
	c0.507,8.161-5.755,15.127-13.939,15.488l-21.586,0.911c-8.169,0.335-17.19,6.894-20.047,14.574l-7.516,20.232
	c-2.86,7.688-11.413,11.487-19.026,8.474l-20.104-7.951c-7.626-3.008-18.516-0.681-24.253,5.169l-15.107,15.414
	c-5.737,5.85-15.094,5.85-20.833,0.01l-15.124-15.424c-5.74-5.847-16.632-8.174-24.253-5.169l-20.104,7.951
	c-7.603,3.016-16.161-0.786-19.016-8.474l-7.526-20.232c-2.857-7.68-11.881-14.241-20.05-14.574l-21.581-0.911
	c-8.184-0.361-14.449-7.327-13.939-15.488l1.357-21.553c0.512-8.184-5.076-17.833-12.401-21.473l-19.366-9.608
	c-7.332-3.658-10.212-12.57-6.436-19.817l10.017-19.128c3.794-7.263,2.632-18.35-2.596-24.655l-13.793-16.655
	c-5.22-6.303-4.239-15.608,2.173-20.695l16.983-13.471c6.415-5.097,9.864-15.706,7.647-23.585l-5.804-20.767
	c-2.204-7.887,2.476-16,10.401-18.04l20.936-5.407c7.923-2.04,15.388-10.345,16.581-18.44l3.167-21.353
	c1.193-8.097,8.765-13.601,16.832-12.232l21.325,3.61c8.064,1.377,18.26-3.159,22.628-10.074L205.221,6.77
	c4.38-6.897,13.56-8.855,20.365-4.329L243.614,14.401z"/>
<path style="fill:#F8C963;" d="M399.845,197.769c0,79.424-64.41,143.823-143.844,143.823c-79.444,0-143.844-64.399-143.844-143.823
	c0-79.432,64.399-143.826,143.844-143.826C335.436,53.945,399.845,118.337,399.845,197.769z"/>
<g>
	<rect x="239.746" y="130.663" style="fill:#FFFFFF;" width="32.54" height="134.195"/>
	<path style="fill:#FFFFFF;" d="M215.341,187.6v-32.52c13.455,0,24.392-10.952,24.392-24.407h32.54
		C272.273,162.064,246.722,187.6,215.341,187.6z"/>
	<rect x="215.349" y="248.603" style="fill:#FFFFFF;" width="81.321" height="32.527"/>
</g>
<g>
</g>
<g>
</g>
<g>
</g>
<g>
</g>
<g>
</g>
<g>
</g>
<g>
</g>
<g>
</g>
<g>
</g>
<g>
</g>
<g>
</g>
<g>
</g>
<g>
</g>
<g>
</g>
<g>
</g>
</svg>
