<?xml version="1.0" encoding="iso-8859-1"?>
<!-- Generator: Adobe Illustrator 19.0.0, SVG Export Plug-In . SVG Version: 6.00 Build 0)  -->
<svg version="1.1" id="Layer_1" xmlns="http://www.w3.org/2000/svg" xmlns:xlink="http://www.w3.org/1999/xlink" x="0px" y="0px"
	 viewBox="0 0 512 512" style="enable-background:new 0 0 512 512;" xml:space="preserve">
<path style="fill:#D6E5F6;" d="M410.678,59.819c-5.218-4.423-12.12-6.324-18.868-5.201l-279.273,46.545
	c-11.222,1.871-19.447,11.581-19.447,22.958v201.697c0,11.376,8.225,21.085,19.447,22.955l279.273,46.545
	c1.274,0.213,2.554,0.318,3.826,0.318c5.468,0,10.809-1.929,15.042-5.516c5.221-4.422,8.231-10.918,8.231-17.757V77.576
	C418.909,70.734,415.899,64.239,410.678,59.819z"/>
<path style="fill:#7075E0;" d="M322.219,344.412c-3.542-5.603-9.308-9.43-15.847-10.521L120.19,302.86
	c-7.627-1.271-15.394,1.333-20.717,6.948c-5.322,5.613-7.506,13.507-5.827,21.059l31.03,139.636
	c2.366,10.648,11.812,18.224,22.719,18.224h124.121c10.391,0,19.523-6.889,22.378-16.879l31.03-108.606
	C326.744,356.867,325.761,350.019,322.219,344.412z M253.961,442.182h-87.898l-19.496-87.737l126.442,21.073L253.961,442.182z"/>
<path style="fill:#A7C7FC;" d="M410.678,390.121c5.221-4.422,8.231-10.918,8.231-17.757V224.97H93.091v100.848
	c0,11.376,8.225,21.085,19.447,22.955l279.273,46.545c1.274,0.213,2.554,0.318,3.826,0.318
	C401.104,395.636,406.446,393.708,410.678,390.121z"/>
<g>
	<path style="fill:#D8143A;" d="M116.364,100.848H23.273C10.42,100.848,0,111.267,0,124.121v201.697
		c0,12.851,10.42,23.273,23.273,23.273h93.091c12.853,0,23.273-10.422,23.273-23.273V124.121
		C139.636,111.267,129.216,100.848,116.364,100.848z"/>
	<path style="fill:#D8143A;" d="M488.727,23.273h-93.091c-12.853,0-23.273,10.418-23.273,23.273v356.848
		c0,12.851,10.42,23.273,23.273,23.273h93.091c12.853,0,23.273-10.422,23.273-23.273V46.545
		C512,33.691,501.58,23.273,488.727,23.273z"/>
</g>
<g>
	<path style="fill:#8D1858;" d="M0,325.818c0,12.851,10.42,23.273,23.273,23.273h93.091c12.853,0,23.273-10.422,23.273-23.273
		V224.97H0V325.818z"/>
	<path style="fill:#8D1858;" d="M512,403.394V224.97H372.364v178.424c0,12.851,10.42,23.273,23.273,23.273h93.091
		C501.58,426.667,512,416.245,512,403.394z"/>
</g>
<g>
</g>
<g>
</g>
<g>
</g>
<g>
</g>
<g>
</g>
<g>
</g>
<g>
</g>
<g>
</g>
<g>
</g>
<g>
</g>
<g>
</g>
<g>
</g>
<g>
</g>
<g>
</g>
<g>
</g>
</svg>
