<?xml version="1.0" encoding="iso-8859-1"?>
<!-- Generator: Adobe Illustrator 19.0.0, SVG Export Plug-In . SVG Version: 6.00 Build 0)  -->
<svg version="1.1" id="Layer_1" xmlns="http://www.w3.org/2000/svg" xmlns:xlink="http://www.w3.org/1999/xlink" x="0px" y="0px"
	 viewBox="0 0 512 512" style="enable-background:new 0 0 512 512;" xml:space="preserve">
<path style="fill:#6A82A1;" d="M175.603,510.167H91.957c-10.27,0-18.597-8.326-18.597-18.597V324.681
	c0-10.27,8.326-18.597,18.597-18.597h83.646c10.27,0,18.597,8.326,18.597,18.597V491.57
	C194.2,501.841,185.874,510.167,175.603,510.167z"/>
<path style="fill:#36495E;" d="M175.603,306.085H133.78v204.082h41.824c10.27,0,18.597-8.326,18.597-18.597V324.681
	C194.2,314.411,185.874,306.085,175.603,306.085z"/>
<path style="fill:#FFDA79;" d="M322.635,401.143l-93.621-57.865H50.46c-27.824,0-50.46-22.636-50.46-50.46V140.843
	c0-27.823,22.636-50.46,50.46-50.46h178.554l93.621-57.865c12.382-7.652,28.375,1.286,28.375,15.819v336.985
	C351.01,399.955,334.927,408.739,322.635,401.143z"/>
<path style="fill:#FFD155;" d="M322.635,32.52l-93.621,57.865h-95.233v252.893h95.233l93.621,57.865
	c12.292,7.596,28.375-1.188,28.375-15.819V48.339C351.01,33.805,335.017,24.868,322.635,32.52z"/>
<circle style="fill:#6A82A1;" cx="79.754" cy="170.134" r="15.25"/>
<path style="fill:#FFD155;" d="M418.135,310.697c-10.27,0-18.597-8.326-18.597-18.597V141.562c0-10.27,8.326-18.597,18.597-18.597
	c51.758,0,93.865,42.108,93.865,93.865S469.892,310.697,418.135,310.697z"/>
<path style="fill:#FFC72D;" d="M363.637,426.398c-0.491-0.245-0.968-0.513-1.434-0.801l-39.566-24.454
	c-5.484-3.388-8.82-9.374-8.82-15.819V48.339c0-6.444,3.336-12.431,8.82-15.819l39.566-24.454c0.466-0.288,0.945-0.555,1.434-0.802
	c33.59-16.861,73.094,7.595,73.094,45.098v328.938C436.731,418.855,397.185,443.234,363.637,426.398z"/>
<g>
</g>
<g>
</g>
<g>
</g>
<g>
</g>
<g>
</g>
<g>
</g>
<g>
</g>
<g>
</g>
<g>
</g>
<g>
</g>
<g>
</g>
<g>
</g>
<g>
</g>
<g>
</g>
<g>
</g>
</svg>
