<?xml version="1.0" encoding="iso-8859-1"?>
<!-- Generator: Adobe Illustrator 19.0.0, SVG Export Plug-In . SVG Version: 6.00 Build 0)  -->
<svg version="1.1" id="Layer_1" xmlns="http://www.w3.org/2000/svg" xmlns:xlink="http://www.w3.org/1999/xlink" x="0px" y="0px"
	 viewBox="0 0 512 512" style="enable-background:new 0 0 512 512;" xml:space="preserve">
<path style="fill:#A4C6EC;" d="M278.114,481.361L231.91,311.94c-2.391-8.766-9.666-15.34-18.627-16.834l-93.091-15.515
	c-7.734-1.291-15.607,1.404-20.927,7.17c-5.322,5.764-7.379,13.819-5.477,21.431l46.545,186.182
	C142.921,504.733,152.23,512,162.909,512H256c0.009,0,0.022,0,0.033,0c12.853,0,23.273-10.418,23.273-23.273
	C279.305,486.153,278.886,483.676,278.114,481.361z"/>
<path style="fill:#F5F5F6;" d="M410.68,366.85c5.221-4.422,8.229-10.916,8.229-17.759V54.303c0-6.839-3.008-13.337-8.229-17.757
	c-5.219-4.422-12.122-6.322-18.868-5.199L112.539,77.892c-11.222,1.871-19.448,11.581-19.448,22.956v201.697
	c0,11.379,8.226,21.087,19.448,22.958l279.273,46.545c1.272,0.213,2.552,0.315,3.824,0.315
	C401.105,372.364,406.446,370.437,410.68,366.85z"/>
<path style="fill:#D6E5F6;" d="M410.68,366.85c5.221-4.422,8.229-10.916,8.229-17.759V201.697H93.091v100.848
	c0,11.379,8.226,21.087,19.448,22.958l279.273,46.545c1.272,0.213,2.552,0.315,3.824,0.315
	C401.105,372.364,406.446,370.437,410.68,366.85z"/>
<g>
	<path style="fill:#D8145D;" d="M116.364,77.576H23.273C10.422,77.576,0,87.997,0,100.848v201.697
		c0,12.854,10.422,23.273,23.273,23.273h93.091c12.854,0,23.273-10.418,23.273-23.273V100.848
		C139.636,87.997,129.218,77.576,116.364,77.576z"/>
	<path style="fill:#D8145D;" d="M488.727,0h-93.091c-12.851,0-23.273,10.422-23.273,23.273v356.848
		c0,12.854,10.422,23.273,23.273,23.273h93.091c12.854,0,23.273-10.418,23.273-23.273V23.273C512,10.422,501.582,0,488.727,0z"/>
</g>
<g>
	<path style="fill:#A90140;" d="M0,302.545c0,12.854,10.422,23.273,23.273,23.273h93.091c12.854,0,23.273-10.418,23.273-23.273
		V201.697H0V302.545z"/>
	<path style="fill:#A90140;" d="M512,380.121V201.697H372.364v178.424c0,12.854,10.422,23.273,23.273,23.273h93.091
		C501.582,403.394,512,392.975,512,380.121z"/>
</g>
<g>
</g>
<g>
</g>
<g>
</g>
<g>
</g>
<g>
</g>
<g>
</g>
<g>
</g>
<g>
</g>
<g>
</g>
<g>
</g>
<g>
</g>
<g>
</g>
<g>
</g>
<g>
</g>
<g>
</g>
</svg>
