<?xml version="1.0" encoding="iso-8859-1"?>
<!-- Generator: Adobe Illustrator 19.0.0, SVG Export Plug-In . SVG Version: 6.00 Build 0)  -->
<svg version="1.1" id="Layer_1" xmlns="http://www.w3.org/2000/svg" xmlns:xlink="http://www.w3.org/1999/xlink" x="0px" y="0px"
	 viewBox="0 0 512 512" style="enable-background:new 0 0 512 512;" xml:space="preserve">
<path style="fill:#BD9F79;" d="M413.398,389.565h-47.405v-33.391h47.405c21.811,0,41.703-18.367,43.44-40.11l19.584-245.222
	c0.804-10.059-2.339-19.478-8.843-26.525c-6.506-7.046-15.646-10.926-25.737-10.926h-95.691L368.412,0h73.43
	c19.516,0,37.368,7.694,50.268,21.664c12.9,13.971,19.149,32.38,17.596,51.836l-19.584,245.224
	C487.002,357.786,452.584,389.565,413.398,389.565z"/>
<path style="fill:#E8D6BD;" d="M2.061,0v1.113l45.393,66.955L13.401,456.557C10.749,487.05,33.623,512,64.231,512h140.96l22.261-256
	L205.192,0H2.061z"/>
<path style="fill:#D2BA9C;" d="M408.113,456.557L368.412,0h-163.22v512h152.091C387.89,512,410.764,487.05,408.113,456.557z"/>
<g>
</g>
<g>
</g>
<g>
</g>
<g>
</g>
<g>
</g>
<g>
</g>
<g>
</g>
<g>
</g>
<g>
</g>
<g>
</g>
<g>
</g>
<g>
</g>
<g>
</g>
<g>
</g>
<g>
</g>
</svg>
