<?xml version="1.0" encoding="iso-8859-1"?>
<!-- Generator: Adobe Illustrator 19.0.0, SVG Export Plug-In . SVG Version: 6.00 Build 0)  -->
<svg version="1.1" id="Layer_1" xmlns="http://www.w3.org/2000/svg" xmlns:xlink="http://www.w3.org/1999/xlink" x="0px" y="0px"
	 viewBox="0 0 512 512" style="enable-background:new 0 0 512 512;" xml:space="preserve">
<polygon style="fill:#3C95AB;" points="178.087,0 178.087,66.783 256.001,66.783 278.261,33.391 256.001,0 "/>
<rect x="256.001" style="fill:#296B94;" width="77.913" height="66.783"/>
<path style="fill:#C8FEFF;" d="M256.001,66.783h-66.783v33.391l-51.977,102.984c-0.01,0.02,141.02,87.924,141.02,87.924
	L256.001,66.783z"/>
<path style="fill:#98E1E2;" d="M374.76,203.158l-51.977-102.984V66.783h-66.783v224.299
	C256.001,291.082,374.77,203.178,374.76,203.158z"/>
<path style="fill:#F9EBDB;" d="M196.156,224.299c-29.606,0-29.939-20.683-58.925-21.12c-5.573,11.054-10.131,30.206-10.131,42.576
	V512h128.9l22.261-154.421l-22.261-154.421C226.079,203.158,226.079,224.299,196.156,224.299z"/>
<path style="fill:#F7CD95;" d="M384.9,245.756c0-12.37-4.558-31.524-10.131-42.576c-28.986,0.437-29.319,21.12-58.925,21.12
	c-29.922,0-29.922-21.141-59.845-21.141V512h128.899V245.756H384.9z"/>
<g>
</g>
<g>
</g>
<g>
</g>
<g>
</g>
<g>
</g>
<g>
</g>
<g>
</g>
<g>
</g>
<g>
</g>
<g>
</g>
<g>
</g>
<g>
</g>
<g>
</g>
<g>
</g>
<g>
</g>
</svg>
