<?xml version="1.0" encoding="iso-8859-1"?>
<!-- Generator: Adobe Illustrator 19.0.0, SVG Export Plug-In . SVG Version: 6.00 Build 0)  -->
<svg version="1.1" id="Layer_1" xmlns="http://www.w3.org/2000/svg" xmlns:xlink="http://www.w3.org/1999/xlink" x="0px" y="0px"
	 viewBox="0 0 511.999 511.999" style="enable-background:new 0 0 511.999 511.999;" xml:space="preserve">
<path style="fill:#A1A1A1;" d="M202.976,45.072v43.482c0,1.819-0.402,3.616-1.179,5.26l-38.628,81.889
	c-5.681,13.265-8.611,27.546-8.611,41.976v281.988c0,6.811,5.521,12.331,12.331,12.331h178.22c6.811,0,12.331-5.521,12.331-12.331
	V217.681c0-14.43-2.93-28.711-8.611-41.975l-38.626-81.889c-0.776-1.645-1.179-3.442-1.179-5.26V45.072"/>
<path style="fill:#D6D6D6;" d="M202.976,45.072v43.482c0,1.819-0.402,3.616-1.179,5.26l-38.628,81.889
	c-5.681,13.265-8.611,27.546-8.611,41.976v281.988c0,6.811,5.521,12.331,12.331,12.331h89.105l0.047-466.928h-53.066V45.072z"/>
<path style="fill:#449CC2;" d="M278.438,187.247c15.529,19.423,42.148,32.241,72.395,32.241c2.226,0,4.423-0.092,6.607-0.228v-1.58
	c0-14.431-2.93-28.711-8.611-41.975l-38.626-81.889c-0.776-1.645-1.179-3.442-1.179-5.26V45.072H202.976v43.482
	c0,1.819-0.402,3.616-1.179,5.26l-38.628,81.889c-5.247,12.25-8.114,25.367-8.527,38.667c11.717,3.315,24.283,5.117,37.357,5.117
	C226.411,219.488,257.287,207.014,278.438,187.247z"/>
<path style="fill:#81C5E0;" d="M256.042,45.072h-53.066v43.482c0,1.819-0.402,3.616-1.179,5.26l-38.628,81.889
	c-5.247,12.25-8.114,25.367-8.527,38.667c11.717,3.315,24.283,5.117,37.357,5.117c23.698,0,45.719-5.917,64.042-16.056V45.072z"/>
<path style="fill:#A1A1A1;" d="M190.758,0h130.483c6.811,0,12.331,5.521,12.331,12.331v29.041c0,6.811-5.521,12.331-12.331,12.331
	H190.758c-6.811,0-12.331-5.521-12.331-12.331V12.331C178.427,5.521,183.949,0,190.758,0z"/>
<path style="fill:#D6D6D6;" d="M190.758,0h65.285v53.704h-65.285c-6.811,0-12.331-5.521-12.331-12.331V12.331
	C178.427,5.521,183.949,0,190.758,0z"/>
<g>
</g>
<g>
</g>
<g>
</g>
<g>
</g>
<g>
</g>
<g>
</g>
<g>
</g>
<g>
</g>
<g>
</g>
<g>
</g>
<g>
</g>
<g>
</g>
<g>
</g>
<g>
</g>
<g>
</g>
</svg>
