<?xml version="1.0" encoding="iso-8859-1"?>
<!-- Generator: Adobe Illustrator 19.0.0, SVG Export Plug-In . SVG Version: 6.00 Build 0)  -->
<svg version="1.1" id="Layer_1" xmlns="http://www.w3.org/2000/svg" xmlns:xlink="http://www.w3.org/1999/xlink" x="0px" y="0px"
	 viewBox="0 0 512 512" style="enable-background:new 0 0 512 512;" xml:space="preserve">
<path style="fill:#F6E27D;" d="M434.424,409.242V302.545c0-74.122-45.438-137.826-109.92-164.74l42.76-53.448
	c3.302-4.127,5.1-9.256,5.1-14.539C372.364,31.32,341.043,0,302.545,0h-93.091c-38.499,0-69.818,31.322-69.818,69.818
	c0,5.283,1.798,10.412,5.1,14.539l42.76,53.448c-64.483,26.914-109.92,90.618-109.92,164.74v106.696
	c-24.211,18.958-38.788,48.31-38.788,79.486c0,12.854,10.42,23.273,23.273,23.273h387.879c12.853,0,23.273-10.418,23.273-23.273
	C473.212,457.551,458.634,428.2,434.424,409.242z"/>
<path style="fill:#F2D23D;" d="M434.424,409.242V302.545c0-74.122-45.438-137.826-109.92-164.74l42.76-53.448
	c3.302-4.127,5.1-9.256,5.1-14.539C372.364,31.32,341.043,0,302.545,0H256v124.121v46.545V512h193.939
	c12.853,0,23.273-10.418,23.273-23.273C473.212,457.551,458.634,428.2,434.424,409.242z"/>
<path style="fill:#A90140;" d="M399.515,170.667h-287.03c-12.853,0-23.273-10.42-23.273-23.273c0-12.851,10.42-23.273,23.273-23.273
	h287.03c12.853,0,23.273,10.422,23.273,23.273C422.788,160.247,412.368,170.667,399.515,170.667z"/>
<g>
</g>
<g>
</g>
<g>
</g>
<g>
</g>
<g>
</g>
<g>
</g>
<g>
</g>
<g>
</g>
<g>
</g>
<g>
</g>
<g>
</g>
<g>
</g>
<g>
</g>
<g>
</g>
<g>
</g>
</svg>
