<?xml version="1.0" encoding="iso-8859-1"?>
<!-- Generator: Adobe Illustrator 19.0.0, SVG Export Plug-In . SVG Version: 6.00 Build 0)  -->
<svg version="1.1" id="Layer_1" xmlns="http://www.w3.org/2000/svg" xmlns:xlink="http://www.w3.org/1999/xlink" x="0px" y="0px"
	 viewBox="0 0 512 512" style="enable-background:new 0 0 512 512;" xml:space="preserve">
<rect x="233.412" y="368.941" style="fill:#AEADB3;" width="45.176" height="90.353"/>
<rect y="37.647" style="fill:#DFDFE1;" width="512" height="346.353"/>
<rect x="256" y="37.647" style="fill:#CFCDD2;" width="256" height="346.353"/>
<rect y="37.647" style="fill:#B4D8F1;" width="512" height="286.118"/>
<rect x="256" y="37.647" style="fill:#98C8ED;" width="256" height="286.118"/>
<rect x="150.588" y="429.176" style="fill:#DFDFE1;" width="210.824" height="45.176"/>
<rect x="256" y="429.176" style="fill:#CFCDD2;" width="105.412" height="45.176"/>
<path style="fill:#FF4F19;" d="M256,250.297l-51.756-51.754c-14.39-14.393-14.39-37.81-0.003-52.2
	c14.252-14.246,37.335-14.387,51.759-0.44c14.425-13.949,37.51-13.806,51.754,0.437l0.005,0.003
	c14.387,14.392,14.387,37.807,0,52.198L256,250.297z"/>
<path style="fill:#AF2E08;" d="M307.759,146.342l-0.005-0.003c-14.244-14.243-37.329-14.387-51.754-0.437v104.395l51.759-51.757
	C322.146,184.15,322.146,160.733,307.759,146.342z"/>
<g>
</g>
<g>
</g>
<g>
</g>
<g>
</g>
<g>
</g>
<g>
</g>
<g>
</g>
<g>
</g>
<g>
</g>
<g>
</g>
<g>
</g>
<g>
</g>
<g>
</g>
<g>
</g>
<g>
</g>
</svg>
