<?xml version="1.0" encoding="iso-8859-1"?>
<!-- Generator: Adobe Illustrator 19.0.0, SVG Export Plug-In . SVG Version: 6.00 Build 0)  -->
<svg version="1.1" id="Layer_1" xmlns="http://www.w3.org/2000/svg" xmlns:xlink="http://www.w3.org/1999/xlink" x="0px" y="0px"
	 viewBox="0 0 512 512" style="enable-background:new 0 0 512 512;" xml:space="preserve">
<path style="fill:#FF6243;" d="M430.545,354.909h-5.818h-23.99h-61.846h-23.417h-23.415H256h-36.059h-23.415h-23.417h-61.847h-23.99
	h-5.818c-6.442,0-12.704-0.776-18.719-2.195l31.052,124.203c2.589,10.359,11.899,17.628,22.578,17.628h93.091h0.029h93.06h93.091
	c10.679,0,19.988-7.269,22.578-17.628l31.052-124.203C443.249,354.133,436.987,354.909,430.545,354.909z"/>
<path style="fill:#FFB655;" d="M452.799,195.115C442.667,95.471,358.274,17.455,256,17.455S69.333,95.471,59.201,195.115
	C25.074,204.825,0,236.255,0,273.455c0,38.471,26.818,70.775,62.736,79.259c6.015,1.421,12.277,2.195,18.719,2.195h5.818h23.99
	h61.847h23.417h23.415H256h36.059h23.415h23.417h61.846h23.99h5.818c6.442,0,12.704-0.776,18.719-2.195
	C485.182,344.23,512,311.926,512,273.455C512,236.255,486.926,204.825,452.799,195.115z"/>
<path style="fill:#FF0C38;" d="M424.727,354.909h-23.99L377.465,448h-48.918l3.449-31.03l6.895-62.061h-23.417h-23.415l-3.449,31.03
	L281.715,448h-51.43l-6.099-54.879l-4.245-38.212h-23.415h-23.417l6.895,62.061l3.449,31.03h-48.918l-23.273-93.091h-23.99h-5.818
	c-6.442,0-12.705-0.774-18.719-2.195l31.052,124.203c2.589,10.359,11.899,17.628,22.578,17.628h93.091h0.031h93.058h93.091
	c10.679,0,19.988-7.269,22.578-17.628l31.052-124.203c-6.015,1.42-12.277,2.195-18.719,2.195L424.727,354.909L424.727,354.909z"/>
<path style="fill:#EE8700;" d="M256,17.455c-102.274,0-186.669,78.016-196.799,177.661C25.074,204.825,0,236.255,0,273.455
	c0,38.471,26.818,70.775,62.736,79.259c6.015,1.42,12.277,2.195,18.719,2.195h5.818h23.99h61.847h23.417h23.415H256V17.455"/>
<g>
</g>
<g>
</g>
<g>
</g>
<g>
</g>
<g>
</g>
<g>
</g>
<g>
</g>
<g>
</g>
<g>
</g>
<g>
</g>
<g>
</g>
<g>
</g>
<g>
</g>
<g>
</g>
<g>
</g>
</svg>
