<?xml version="1.0" encoding="iso-8859-1"?>
<!-- Generator: Adobe Illustrator 19.0.0, SVG Export Plug-In . SVG Version: 6.00 Build 0)  -->
<svg version="1.1" id="Layer_1" xmlns="http://www.w3.org/2000/svg" xmlns:xlink="http://www.w3.org/1999/xlink" x="0px" y="0px"
	 viewBox="0 0 512 512" style="enable-background:new 0 0 512 512;" xml:space="preserve">
<polygon style="fill:#F7CD95;" points="55.652,322.783 100.174,512 204.058,512 204.058,300.522 "/>
<polygon style="fill:#BD9F79;" points="307.942,300.522 307.942,512 411.826,512 456.348,322.783 "/>
<polygon style="fill:#D2BA9C;" points="189.217,322.783 204.058,512 307.942,512 322.783,322.783 256,300.522 "/>
<path style="fill:#FF9A52;" d="M46.819,146.318c-7.973,21.857-12.621,45.313-13.325,69.758C13.786,224.641,0,244.272,0,267.13
	c0,30.736,24.917,55.652,55.652,55.652H256l22.261-220.99L46.819,146.318z"/>
<path style="fill:#DC774E;" d="M478.506,216.076c-0.705-24.445-5.353-47.901-13.325-69.758L256,101.792v220.99h200.348
	c30.736,0,55.652-24.917,55.652-55.652C512,244.272,498.214,224.641,478.506,216.076z"/>
<path style="fill:#8E4238;" d="M46.819,146.318c1.665-0.002,2.942-0.004,3.268-0.004c51.478,0,51.478,36.371,102.957,36.371
	S204.522,146.314,256,146.314l22.261-73.157L256,0C159.858,0,77.959,60.951,46.819,146.318z"/>
<path style="fill:#700D00;" d="M256,0v146.314c51.478,0,51.478,36.371,102.957,36.371s51.478-36.371,102.957-36.371
	c0.326,0,1.603,0.001,3.268,0.004C434.041,60.951,352.142,0,256,0z"/>
<g>
</g>
<g>
</g>
<g>
</g>
<g>
</g>
<g>
</g>
<g>
</g>
<g>
</g>
<g>
</g>
<g>
</g>
<g>
</g>
<g>
</g>
<g>
</g>
<g>
</g>
<g>
</g>
<g>
</g>
</svg>
