<?xml version="1.0" encoding="iso-8859-1"?>
<!-- Generator: Adobe Illustrator 19.0.0, SVG Export Plug-In . SVG Version: 6.00 Build 0)  -->
<svg version="1.1" id="Layer_1" xmlns="http://www.w3.org/2000/svg" xmlns:xlink="http://www.w3.org/1999/xlink" x="0px" y="0px"
	 viewBox="0 0 512 512" style="enable-background:new 0 0 512 512;" xml:space="preserve">
<g>
	<path style="fill:#EF5352;" d="M183.652,428.522h-77.913C47.435,428.522,0,381.087,0,322.783V189.217
		C0,130.913,47.435,83.478,105.739,83.478h77.913v33.391h-77.913c-39.893,0-72.348,32.455-72.348,72.348v133.565
		c0,39.893,32.455,72.348,72.348,72.348h77.913V428.522z"/>
	<polygon style="fill:#EF5352;" points="144.696,33.391 144.696,478.609 328.348,478.609 350.609,256 328.348,33.391 	"/>
</g>
<rect x="328.348" y="33.391" style="fill:#B75548;" width="183.652" height="445.217"/>
<g>
	<rect x="395.13" y="361.739" style="fill:#EF5352;" width="33.391" height="33.391"/>
	<rect x="328.348" y="306.087" style="fill:#EF5352;" width="33.391" height="33.391"/>
</g>
<rect x="228.174" y="116.87" style="fill:#B75548;" width="33.391" height="33.391"/>
<g>
</g>
<g>
</g>
<g>
</g>
<g>
</g>
<g>
</g>
<g>
</g>
<g>
</g>
<g>
</g>
<g>
</g>
<g>
</g>
<g>
</g>
<g>
</g>
<g>
</g>
<g>
</g>
<g>
</g>
</svg>
