<?xml version="1.0" encoding="iso-8859-1"?>
<!-- Generator: Adobe Illustrator 19.0.0, SVG Export Plug-In . SVG Version: 6.00 Build 0)  -->
<svg version="1.1" id="Layer_1" xmlns="http://www.w3.org/2000/svg" xmlns:xlink="http://www.w3.org/1999/xlink" x="0px" y="0px"
	 viewBox="0 0 512 512" style="enable-background:new 0 0 512 512;" xml:space="preserve">
<path style="fill:#F7B239;" d="M259.633,387.478c0,41.361-33.587,76.889-77.086,76.889c-49.489,0-86.158-46.002-75.119-94.246
	c3.867-16.912,6.791-34.007,8.744-51.233c1.927-17.2,2.91-34.531,2.91-51.889v-35.986l53.671-44.141l45.163,44.141
	c-2.071,4.405,29.064,65.68,29.064,65.68c1.573,24.712,5.152,49.267,10.684,73.428C259.003,375.968,259.633,381.775,259.633,387.478
	z"/>
<path style="fill:#E09B2D;" d="M149.602,318.888c1.927-17.2,2.91-34.531,2.91-51.889v-22.444h78.58
	c1.652-4.615,1.862-9.138,3.933-13.542l-63.582-20.543l-52.36,20.543v0.891v12.651v22.444c0,17.357-0.983,34.688-2.91,51.889
	c-1.953,17.226-4.877,34.321-8.744,51.233c-11.038,48.244,25.63,94.246,75.119,94.246c5.774,0,11.365-0.642,16.733-1.825
	c-40.673-8.94-68.176-49.794-58.422-92.421C144.725,353.209,147.649,336.114,149.602,318.888z"/>
<path style="fill:#F95428;" d="M182.547,47.633c69.259,0,129.538,38.399,160.739,95.059c10.383,21.238,24.804,93.342-125.369,88.321
	h-98.835H16.905C6.955,231.013,87.501,47.633,182.547,47.633z"/>
<path style="fill:#E54728;" d="M71.753,212.554c8.06-80.645,68.377-145.891,146.591-161.404c-11.58-2.292-23.544-3.517-35.796-3.517
	c-95.046,0-173.206,72.314-182.462,164.921c-0.996,9.898,6.87,18.459,16.82,18.459h71.667
	C78.622,231.013,70.756,222.452,71.753,212.554z"/>
<path style="fill:#F7B239;" d="M413.397,409.122c0,29.72-24.135,55.245-55.389,55.245c-35.567,0-61.918-33.05-53.973-67.725
	c2.779-12.153,4.877-24.437,6.28-36.812c1.39-12.363,2.084-24.804,2.084-37.284v-25.853l37.992-53.449l53.226,53.449v25.853
	c0,24.948,2.806,49.791,8.364,74.096C412.939,400.85,413.397,405.019,413.397,409.122z"/>
<path style="fill:#E09B2D;" d="M338.501,359.83c1.39-12.363,2.084-24.804,2.084-37.284v-8.508h63.032v-17.344l-53.881-23.952
	L312.4,296.693v0.642v16.702v8.508c0,12.481-0.695,24.922-2.084,37.284c-1.403,12.376-3.5,24.66-6.28,36.812
	c-7.945,34.675,18.406,67.725,53.973,67.725c4.908,0,9.641-0.631,14.131-1.808c-28.093-7.318-46.772-36.003-39.918-65.917
	C335.001,384.489,337.098,372.205,338.501,359.83z"/>
<path style="fill:#F95428;" d="M511.931,281.118c0.826,8.351-5.808,15.574-14.185,15.574h-94.128H312.4h-65.418h-28.71
	c41.007-108.51,134.769-154.695,139.737-154.695C438.188,141.997,504.117,202.997,511.931,281.118z"/>
<path style="fill:#E54728;" d="M262.644,281.118c1.77-17.751,6.555-34.636,13.831-50.106
	c20.713-44.103,61.644-76.829,110.851-86.241c-9.493-1.821-19.294-2.774-29.317-2.774c-4.969,0-9.872,0.236-14.722,0.695
	c-55.612,5.244-102.65,39.946-125.369,88.321c-7.276,15.47-12.061,32.355-13.831,50.106c-0.826,8.351,5.795,15.574,14.185,15.574
	h28.71h29.847C268.439,296.693,261.818,289.469,262.644,281.118z"/>
<g>
</g>
<g>
</g>
<g>
</g>
<g>
</g>
<g>
</g>
<g>
</g>
<g>
</g>
<g>
</g>
<g>
</g>
<g>
</g>
<g>
</g>
<g>
</g>
<g>
</g>
<g>
</g>
<g>
</g>
</svg>
