<?xml version="1.0" encoding="iso-8859-1"?>
<!-- Generator: Adobe Illustrator 19.0.0, SVG Export Plug-In . SVG Version: 6.00 Build 0)  -->
<svg version="1.1" id="Layer_1" xmlns="http://www.w3.org/2000/svg" xmlns:xlink="http://www.w3.org/1999/xlink" x="0px" y="0px"
	 viewBox="0 0 512 512" style="enable-background:new 0 0 512 512;" xml:space="preserve">
<path style="fill:#4D4D4D;" d="M489.898,193.691c12.893,20.26,25.785,60.78-38.678,106.813h-48.685
	c8.792-7.023-294.506-7.023-285.715,0H86.553c0,0-88.395-36.824-53.4-95.762c22.028-37.106,82.869-82.882,233.898-82.882
	C418.067,121.861,477.006,173.431,489.898,193.691z"/>
<path style="fill:#666666;" d="M101.836,238.305c22.028-37.108,82.869-82.882,233.898-82.882c56.859,0,100.661,7.312,133.872,17.51
	c-29.592-22.884-90.903-51.072-202.555-51.072c-151.029,0-211.87,45.775-233.898,82.882c-34.994,58.938,53.4,95.762,53.4,95.762
	h21.418C94.436,284.554,86.91,263.442,101.836,238.305z"/>
<path style="fill:#F7B239;" d="M416.226,277.494c0,8.202-4.899,15.987-13.691,23.01H300.744
	c6.913-39.12-29.002-63.751-65.777-78.486c8.055-0.467,16.306-0.7,24.717-0.7C346.138,221.319,416.226,246.466,416.226,277.494z"/>
<path style="fill:#E09B2D;" d="M234.966,222.019c36.775,14.735,72.69,39.366,65.777,78.486H116.82
	c-8.792-7.023-13.691-14.808-13.691-23.01C103.129,249.486,160.25,226.267,234.966,222.019z"/>
<path style="fill:#666666;" d="M402.535,294.365h48.685H512c-35.412,59.392-99.458,95.774-168.6,95.774H212.582
	c-40.655,0-80.328-8.718-116.587-25.049C59.748,348.76,26.927,324.816,0,294.365h86.553h30.267h183.924L402.535,294.365
	L402.535,294.365z"/>
<path style="fill:#4D4D4D;" d="M226.969,365.092c-36.247-16.332-69.068-40.276-95.995-70.727H116.82H86.553H0
	c26.927,30.451,59.748,54.395,95.995,70.727c36.259,16.331,75.932,25.047,116.587,25.047H343.4c0.023,0,0.047-0.001,0.07-0.001
	C302.845,390.126,263.203,381.41,226.969,365.092z"/>
<g>
</g>
<g>
</g>
<g>
</g>
<g>
</g>
<g>
</g>
<g>
</g>
<g>
</g>
<g>
</g>
<g>
</g>
<g>
</g>
<g>
</g>
<g>
</g>
<g>
</g>
<g>
</g>
<g>
</g>
</svg>
