<?xml version="1.0" encoding="iso-8859-1"?>
<!-- Generator: Adobe Illustrator 19.0.0, SVG Export Plug-In . SVG Version: 6.00 Build 0)  -->
<svg version="1.1" id="Layer_1" xmlns="http://www.w3.org/2000/svg" xmlns:xlink="http://www.w3.org/1999/xlink" x="0px" y="0px"
	 viewBox="0 0 512 512" style="enable-background:new 0 0 512 512;" xml:space="preserve">
<path style="fill:#4AAEE2;" d="M430.418,67.516H81.582c-18.567,0-33.758,15.191-33.758,33.758v376.967
	c0,18.567,15.191,33.758,33.758,33.758h348.835c18.567,0,33.758-15.191,33.758-33.758V101.275
	C464.176,82.708,448.985,67.516,430.418,67.516z"/>
<rect x="81.582" y="101.275" style="fill:#FFFFFF;" width="348.835" height="376.967"/>
<polygon style="fill:#FFA72E;" points="368.527,281.375 314.188,336.84 325.553,413.662 256,379.116 186.458,413.662 
	197.812,336.84 143.473,281.375 220.036,268.434 256,199.612 291.964,268.434 "/>
<path style="fill:#BEC3CC;" d="M340.396,33.758h-36.65C296.791,14.088,278.044,0,256,0s-40.791,14.088-47.745,33.758h-36.65
	c-18.567,0-33.758,15.191-33.758,33.758v67.516h236.308V67.516C374.154,48.949,358.963,33.758,340.396,33.758z M256,67.516
	c-9.317,0-16.879-7.562-16.879-16.879S246.683,33.758,256,33.758c9.329,0,16.879,7.562,16.879,16.879S265.329,67.516,256,67.516z"/>
<g>
</g>
<g>
</g>
<g>
</g>
<g>
</g>
<g>
</g>
<g>
</g>
<g>
</g>
<g>
</g>
<g>
</g>
<g>
</g>
<g>
</g>
<g>
</g>
<g>
</g>
<g>
</g>
<g>
</g>
</svg>
