<?xml version="1.0" encoding="iso-8859-1"?>
<!-- Generator: Adobe Illustrator 19.0.0, SVG Export Plug-In . SVG Version: 6.00 Build 0)  -->
<svg version="1.1" id="Layer_1" xmlns="http://www.w3.org/2000/svg" xmlns:xlink="http://www.w3.org/1999/xlink" x="0px" y="0px"
	 viewBox="0 0 512 512" style="enable-background:new 0 0 512 512;" xml:space="preserve">
<rect x="426.112" y="164.506" style="fill:#F67656;" width="16.96" height="301.107"/>
<rect x="443.085" y="164.506" style="fill:#E66847;" width="16.993" height="301.107"/>
<rect x="460.083" y="164.506" style="fill:#D65A38;" width="16.963" height="301.107"/>
<polygon style="fill:#EFEFEF;" points="477.059,164.511 460.04,135.101 443.113,135.094 426.14,164.511 "/>
<polygon style="fill:#CCCBCA;" points="477.059,164.511 460.076,164.511 454.4,135.094 460.04,135.101 "/>
<polygon style="fill:#3F4A5A;" points="460.04,135.101 451.558,120.42 443.113,135.094 "/>
<rect x="460.058" y="465.638" style="fill:#CCCBCA;" width="16.968" height="16.968"/>
<polygon style="fill:#EFEFEF;" points="460.065,482.583 426.122,482.601 426.122,465.633 460.065,465.633 "/>
<path style="fill:#333C49;" d="M477.02,486.551v-3.95h-16.98v3.95c0,6.482-2.458,13.007-7.424,17.992
	c-2.801,2.757-6.062,4.79-9.539,5.975c2.747,0.975,5.599,1.482,8.481,1.482c6.533,0,13.018-2.493,18.033-7.457
	C474.557,499.574,477.02,493.033,477.02,486.551z"/>
<g>
	<path style="fill:#3F4A5A;" d="M460.04,486.551v-3.95h-33.946l0.003,3.95c0,6.482,2.501,13.007,7.468,17.992
		c2.76,2.739,6.029,4.741,9.513,5.975c3.474-1.185,6.738-3.218,9.539-5.975C457.582,499.558,460.04,493.033,460.04,486.551z"/>
	<path style="fill:#3F4A5A;" d="M51.827,33.759c-4.319,0-8.643,1.641-11.935,4.941c-3.3,3.302-4.951,7.619-4.951,11.935v444.49
		c0,4.324,1.651,8.632,4.951,11.932c3.292,3.3,7.616,4.943,11.935,4.943h331.965c4.319,0,8.64-1.644,11.93-4.943
		c3.3-3.3,4.951-7.608,4.951-11.932V50.634c0-4.316-1.651-8.65-4.951-11.935c-3.29-3.3-7.613-4.941-11.93-4.941
		C383.793,33.759,51.827,33.759,51.827,33.759z"/>
</g>
<rect x="74.342" y="33.759" style="fill:#FFFFFF;" width="286.95" height="438.861"/>
<g>
	<rect x="104.428" y="309.709" style="fill:#CCCBCA;" width="226.765" height="18.934"/>
	<rect x="104.428" y="347.571" style="fill:#CCCBCA;" width="226.765" height="18.918"/>
	<rect x="104.428" y="385.434" style="fill:#CCCBCA;" width="113.382" height="18.934"/>
</g>
<rect x="155.743" y="120.422" style="fill:#3F4A5A;" width="124.134" height="18.926"/>
<g>
	<polygon style="fill:#F67656;" points="117.804,279.736 104.428,266.363 163.768,207.012 190.098,233.344 242.755,180.695 
		269.079,207.012 315.046,161.044 328.422,174.428 269.079,233.769 242.755,207.455 190.098,260.106 163.768,233.769 	"/>
	<polygon style="fill:#F67656;" points="331.197,203.479 312.271,203.479 312.271,177.196 285.993,177.196 285.993,158.277 
		331.197,158.277 	"/>
</g>
<path style="fill:#3F4A5A;" d="M251.566,33.759C251.566,15.099,236.449,0,217.812,0c-18.652,0-33.761,15.099-33.761,33.759h-28.134
	v39.375h123.776V33.759H251.566z M203.341,33.759c0-7.985,6.487-14.484,14.472-14.484c7.974,0,14.467,6.5,14.467,14.484H203.341z"/>
<g>
</g>
<g>
</g>
<g>
</g>
<g>
</g>
<g>
</g>
<g>
</g>
<g>
</g>
<g>
</g>
<g>
</g>
<g>
</g>
<g>
</g>
<g>
</g>
<g>
</g>
<g>
</g>
<g>
</g>
</svg>
