<?xml version="1.0" encoding="iso-8859-1"?>
<!-- Generator: Adobe Illustrator 19.0.0, SVG Export Plug-In . SVG Version: 6.00 Build 0)  -->
<svg version="1.1" id="Layer_1" xmlns="http://www.w3.org/2000/svg" xmlns:xlink="http://www.w3.org/1999/xlink" x="0px" y="0px"
	 viewBox="0 0 512 512" style="enable-background:new 0 0 512 512;" xml:space="preserve">
<g>
	<rect x="45.176" y="233.412" style="fill:#CFCDD2;" width="75.294" height="45.176"/>
	<rect x="45.176" y="143.059" style="fill:#CFCDD2;" width="75.294" height="45.176"/>
	<rect x="45.176" y="414.118" style="fill:#CFCDD2;" width="75.294" height="45.176"/>
	<rect x="45.176" y="323.765" style="fill:#CFCDD2;" width="75.294" height="45.176"/>
	<rect x="45.176" y="52.706" style="fill:#CFCDD2;" width="75.294" height="45.176"/>
</g>
<rect x="105.412" style="fill:#F2F2F4;" width="361.412" height="512"/>
<rect x="286.118" style="fill:#DFDFE1;" width="180.706" height="512"/>
<path style="fill:#FF4F19;" d="M286.118,346.353l87.669-87.669c17.839-17.839,17.839-46.761,0-64.598
	c-17.839-17.839-46.761-17.839-64.599,0l-23.07,23.07l-23.072-23.07c-17.839-17.839-46.761-17.839-64.599,0s-17.839,46.761,0,64.598
	L286.118,346.353z"/>
<path style="fill:#AF2E08;" d="M373.787,194.084c-17.839-17.839-46.761-17.839-64.599,0l-23.07,23.072v129.197l87.669-87.669
	C391.626,240.845,391.626,211.923,373.787,194.084z"/>
<g>
</g>
<g>
</g>
<g>
</g>
<g>
</g>
<g>
</g>
<g>
</g>
<g>
</g>
<g>
</g>
<g>
</g>
<g>
</g>
<g>
</g>
<g>
</g>
<g>
</g>
<g>
</g>
<g>
</g>
</svg>
