<?xml version="1.0" encoding="iso-8859-1"?>
<!-- Generator: Adobe Illustrator 19.0.0, SVG Export Plug-In . SVG Version: 6.00 Build 0)  -->
<svg version="1.1" id="Layer_1" xmlns="http://www.w3.org/2000/svg" xmlns:xlink="http://www.w3.org/1999/xlink" x="0px" y="0px"
	 viewBox="0 0 512 512" style="enable-background:new 0 0 512 512;" xml:space="preserve">
<path style="fill:#D8143A;" d="M422.054,387.459H89.946c-11.463,0-20.757,9.293-20.757,20.757v83.027
	c0,11.463,9.293,20.757,20.757,20.757h332.108c11.463,0,20.757-9.293,20.757-20.757v-83.027
	C442.811,396.753,433.517,387.459,422.054,387.459z"/>
<path style="fill:#8D1858;" d="M422.054,387.459H256V512h166.054c11.463,0,20.757-9.293,20.757-20.757v-83.027
	C442.811,396.753,433.517,387.459,422.054,387.459z"/>
<path style="fill:#D6E5F6;" d="M422.054,110.757H89.946c-11.463,0-20.757,9.293-20.757,20.757v276.703
	c0,11.463,9.293,20.757,20.757,20.757h332.108c11.463,0,20.757-9.294,20.757-20.757V131.513
	C442.811,120.049,433.517,110.757,422.054,110.757z"/>
<path style="fill:#A7C7FC;" d="M422.054,110.757H256v318.216h166.054c11.463,0,20.757-9.294,20.757-20.757V131.513
	C442.811,120.049,433.517,110.757,422.054,110.757z"/>
<path style="fill:#989DE9;" d="M339.027,69.188H318.27V62.27C318.27,27.934,290.336,0,256,0s-62.27,27.934-62.27,62.27v6.918
	h-20.757c-11.463,0-20.757,9.293-20.757,20.757v83.028c0,11.463,9.294,20.757,20.757,20.757h166.054
	c11.463,0,20.757-9.294,20.757-20.757v-83.03C359.784,78.48,350.49,69.188,339.027,69.188z"/>
<path style="fill:#7075E0;" d="M339.027,69.188H318.27V62.27C318.27,27.934,290.336,0,256,0v193.73h83.027
	c11.463,0,20.757-9.294,20.757-20.757v-83.03C359.784,78.48,350.49,69.188,339.027,69.188z"/>
<g>
</g>
<g>
</g>
<g>
</g>
<g>
</g>
<g>
</g>
<g>
</g>
<g>
</g>
<g>
</g>
<g>
</g>
<g>
</g>
<g>
</g>
<g>
</g>
<g>
</g>
<g>
</g>
<g>
</g>
</svg>
