<?xml version="1.0" encoding="iso-8859-1"?>
<!-- Generator: Adobe Illustrator 19.0.0, SVG Export Plug-In . SVG Version: 6.00 Build 0)  -->
<svg version="1.1" id="Layer_1" xmlns="http://www.w3.org/2000/svg" xmlns:xlink="http://www.w3.org/1999/xlink" x="0px" y="0px"
	 viewBox="0 0 512 512" style="enable-background:new 0 0 512 512;" xml:space="preserve">
<path style="fill:#2C3E50;" d="M426.476,304.739H331.26c-10.345,0-18.732-8.387-18.732-18.732c0-10.345,8.387-18.732,18.732-18.732
	h76.484v-36.9c0-10.345,8.387-18.732,18.732-18.732h33.3c10.345,0,18.732,8.387,18.732,18.732s-8.387,18.732-18.732,18.732h-14.568
	v36.9C445.208,296.353,436.821,304.739,426.476,304.739z"/>
<path style="fill:#36495E;" d="M256,304.739c-10.345,0-18.732-8.387-18.732-18.732v-55.632c0-10.345,8.387-18.732,18.732-18.732
	c10.345,0,18.732,8.387,18.732,18.732v55.632C274.732,296.353,266.345,304.739,256,304.739z"/>
<path style="fill:#2C3E50;" d="M256,211.643v93.095c10.345,0,18.732-8.387,18.732-18.732v-55.632
	C274.732,220.03,266.345,211.643,256,211.643z"/>
<path style="fill:#36495E;" d="M331.26,434.463h-56.529v-84.489c0-10.345-8.387-18.732-18.732-18.732
	c-10.345,0-18.732,8.387-18.732,18.732v84.489H180.74c-10.345,0-18.732,8.387-18.732,18.732v40.073
	c0,10.345,8.387,18.732,18.732,18.732c10.345,0,18.732-8.387,18.732-18.732v-21.342h37.797v21.342
	c0,10.345,8.387,18.732,18.732,18.732c10.345,0,18.732-8.387,18.732-18.732v-21.342h37.797v21.342
	c0,10.345,8.387,18.732,18.732,18.732c10.345,0,18.732-8.387,18.732-18.732v-40.073C349.992,442.85,341.605,434.463,331.26,434.463z
	"/>
<path style="fill:#2C3E50;" d="M331.26,434.463h-56.529v-84.489c0-10.345-8.387-18.732-18.732-18.732V512
	c10.345,0,18.732-8.387,18.732-18.732v-21.342h37.797v21.342c0,10.345,8.387,18.732,18.732,18.732
	c10.345,0,18.732-8.387,18.732-18.732v-40.073C349.992,442.85,341.605,434.463,331.26,434.463z"/>
<path style="fill:#36495E;" d="M180.74,304.739H85.524c-10.345,0-18.732-8.387-18.732-18.732v-36.9H52.224
	c-10.345,0-18.732-8.387-18.732-18.732s8.387-18.732,18.732-18.732h33.3c10.345,0,18.732,8.387,18.732,18.732v36.9h76.484
	c10.345,0,18.732,8.387,18.732,18.732C199.471,296.353,191.086,304.739,180.74,304.739z"/>
<g>
	<path style="fill:#6A82A1;" d="M356.426,249.107H155.574c-10.345,0-18.732-8.387-18.732-18.732V50.548
		C136.843,22.675,159.517,0,187.39,0h137.222c27.872,0,50.547,22.675,50.547,50.548v179.827
		C375.157,240.721,366.771,249.107,356.426,249.107z"/>
	<path style="fill:#6A82A1;" d="M361.006,368.706H150.994c-24.364,0-44.184-19.821-44.184-44.184V311.46
		c0-24.364,19.821-44.184,44.184-44.184h210.012c24.364,0,44.184,19.821,44.184,44.184v13.062
		C405.191,348.886,385.37,368.706,361.006,368.706z"/>
</g>
<g>
	<path style="fill:#36495E;" d="M324.61,0H256v249.107h100.426c10.345,0,18.732-8.387,18.732-18.732V50.548
		C375.157,22.675,352.483,0,324.61,0z"/>
	<path style="fill:#36495E;" d="M361.006,267.275H256v101.431h105.006c24.364,0,44.184-19.821,44.184-44.184V311.46
		C405.191,287.096,385.37,267.275,361.006,267.275z"/>
</g>
<g>
</g>
<g>
</g>
<g>
</g>
<g>
</g>
<g>
</g>
<g>
</g>
<g>
</g>
<g>
</g>
<g>
</g>
<g>
</g>
<g>
</g>
<g>
</g>
<g>
</g>
<g>
</g>
<g>
</g>
</svg>
