<?xml version="1.0" encoding="iso-8859-1"?>
<!-- Generator: Adobe Illustrator 19.0.0, SVG Export Plug-In . SVG Version: 6.00 Build 0)  -->
<svg version="1.1" id="Layer_1" xmlns="http://www.w3.org/2000/svg" xmlns:xlink="http://www.w3.org/1999/xlink" x="0px" y="0px"
	 viewBox="0 0 512 512" style="enable-background:new 0 0 512 512;" xml:space="preserve">
<path style="fill:#F2D23D;" d="M166.957,107.597l-89.043-0.003c-5.905,0-11.565,2.345-15.74,6.521
	c-4.176,4.173-6.521,9.835-6.521,15.74v315.362c0,5.904,2.345,11.565,6.521,15.74l44.522,44.522
	c4.345,4.348,10.043,6.521,15.74,6.521c5.697,0,11.395-2.173,15.74-6.521l44.522-44.522c4.176-4.175,6.521-9.836,6.521-15.74
	V129.858C189.217,117.564,179.25,107.597,166.957,107.597z"/>
<path style="fill:#385C8E;" d="M434.087,50.087c-12.294,0-22.261,9.967-22.261,22.261v89.043c0,12.294,9.967,22.261,22.261,22.261
	c12.294,0,22.261-9.967,22.261-22.261V72.348C456.348,60.054,446.381,50.087,434.087,50.087z"/>
<path style="fill:#4D80C9;" d="M300.522,0c-36.825,0-66.783,29.959-66.783,66.783v378.435c0,5.904,2.345,11.565,6.521,15.74
	l44.522,44.522c4.347,4.347,10.043,6.521,15.74,6.521c5.697,0,11.395-2.173,15.74-6.521l44.522-44.522
	c4.175-4.175,6.521-9.836,6.521-15.74V66.783C367.304,29.959,337.346,0,300.522,0z"/>
<path style="fill:#E69629;" d="M166.957,107.597l-44.522-0.001V512c5.697,0,11.395-2.173,15.74-6.521l44.522-44.522
	c4.176-4.175,6.521-9.836,6.521-15.74V129.858C189.217,117.564,179.25,107.597,166.957,107.597z"/>
<path style="fill:#385C8E;" d="M300.522,0v512c5.697,0,11.395-2.173,15.74-6.521l44.522-44.522c4.175-4.175,6.521-9.836,6.521-15.74
	V66.783C367.304,29.959,337.346,0,300.522,0z"/>
<path style="fill:#D8143A;" d="M166.957,0.003H77.913c-12.294,0-22.261,9.967-22.261,22.261v107.591
	c0,12.294,9.967,22.261,22.259,22.261l89.043,0.003c0.001,0,0.001,0,0.001,0c5.904,0,11.565-2.345,15.74-6.521
	c4.176-4.175,6.521-9.836,6.521-15.74V22.264C189.217,9.97,179.25,0.003,166.957,0.003z"/>
<path style="fill:#8D1858;" d="M166.957,0.003h-44.522v152.114l44.52,0.001c0.001,0,0.001,0,0.001,0
	c5.904,0,11.565-2.345,15.74-6.521c4.176-4.175,6.521-9.836,6.521-15.74V22.264C189.217,9.97,179.25,0.003,166.957,0.003z"/>
<g>
</g>
<g>
</g>
<g>
</g>
<g>
</g>
<g>
</g>
<g>
</g>
<g>
</g>
<g>
</g>
<g>
</g>
<g>
</g>
<g>
</g>
<g>
</g>
<g>
</g>
<g>
</g>
<g>
</g>
</svg>
