<?xml version="1.0" encoding="iso-8859-1"?>
<!-- Generator: Adobe Illustrator 19.0.0, SVG Export Plug-In . SVG Version: 6.00 Build 0)  -->
<svg version="1.1" id="Layer_1" xmlns="http://www.w3.org/2000/svg" xmlns:xlink="http://www.w3.org/1999/xlink" x="0px" y="0px"
	 viewBox="0 0 511.999 511.999" style="enable-background:new 0 0 511.999 511.999;" xml:space="preserve">
<path style="fill:#1F5985;" d="M44.559,438.27l-41.15,41.151c-4.545,4.545-4.545,11.915,0,16.46c4.545,4.545,11.915,4.546,16.46,0
	l41.15-41.15L44.559,438.27z"/>
<path style="fill:#CCC4C1;" d="M61.015,386.863l50.396,1.015l1.014,50.395C76.286,474.412,42.3,485.388,28.1,471.188
	C13.9,456.989,24.876,423.003,61.015,386.863z"/>
<rect x="35.512" y="252.588" transform="matrix(-0.7071 0.7071 -0.7071 -0.7071 563.3865 344.5222)" style="fill:#4C5870;" width="349.657" height="72.708"/>
<path style="fill:#EBEDEC;" d="M508.591,109.211c-4.546-4.544-11.914-4.544-16.461,0l-8.23,8.23l-42.905-42.904l-16.46,16.46
	l42.905,42.904L352.08,249.261c-4.545,4.545-4.545,11.915,0,16.461c2.273,2.272,5.252,3.409,8.23,3.409
	c2.978,0,5.957-1.137,8.23-3.409l140.049-140.049C513.136,121.127,513.136,113.757,508.591,109.211z"/>
<path style="fill:#269AF2;" d="M282.948,147.209L403.152,27.005c19.06-19.06,50.072-19.06,69.133,0
	c19.06,19.06,19.06,50.072,0,69.133L352.08,216.342L282.948,147.209z"/>
<g>
</g>
<g>
</g>
<g>
</g>
<g>
</g>
<g>
</g>
<g>
</g>
<g>
</g>
<g>
</g>
<g>
</g>
<g>
</g>
<g>
</g>
<g>
</g>
<g>
</g>
<g>
</g>
<g>
</g>
</svg>
