<?xml version="1.0" encoding="iso-8859-1"?>
<!-- Generator: Adobe Illustrator 19.0.0, SVG Export Plug-In . SVG Version: 6.00 Build 0)  -->
<svg version="1.1" id="Layer_1" xmlns="http://www.w3.org/2000/svg" xmlns:xlink="http://www.w3.org/1999/xlink" x="0px" y="0px"
	 viewBox="0 0 512 512" style="enable-background:new 0 0 512 512;" xml:space="preserve">
<g>
	<path style="fill:#B27214;" d="M74.199,377.09c-2.915,0-5.794-1.326-7.677-3.838c-3.172-4.235-2.311-10.24,1.924-13.414
		c0.401-0.301,40.768-30.716,89.923-81.754c16.493-17.112,32.309-34.836,47.015-52.688c0.08-0.107,0.165-0.213,0.249-0.317
		c27.678-33.582,51.683-67.939,71.35-102.119c0.514-0.89,1.021-1.766,1.514-2.641c21.374-37.546,37.719-75.311,48.601-112.289
		c1.495-5.077,6.825-7.982,11.898-6.488c5.077,1.494,7.981,6.82,6.488,11.897c-11.3,38.396-28.226,77.531-50.31,116.318
		c-0.505,0.896-1.045,1.835-1.588,2.774c-20.131,34.986-44.666,70.128-72.915,104.435c-0.079,0.105-0.16,0.207-0.243,0.308
		c-15.092,18.339-31.328,36.542-48.256,54.105c-50.308,52.235-90.549,82.532-92.237,83.796
		C78.212,376.468,76.198,377.09,74.199,377.09z"/>
	<path style="fill:#B27214;" d="M219.812,307.876l-16.149-74.663c-0.144-0.666-0.217-1.344-0.217-2.025l9.611-0.006l9.335-2.019
		l16.149,74.663L219.812,307.876z"/>
	
		<rect x="130.658" y="315.114" transform="matrix(-0.1428 -0.9898 0.9898 -0.1428 -125.9293 540.3273)" style="fill:#B27214;" width="80.723" height="19.164"/>
</g>
<path style="fill:#564C89;" d="M342.449,362.577c18.359,58.578-4.868,118.012-51.884,132.743
	c-20.621,6.452-42.391,3.245-61.874-7.346c-24.952-13.543-46.173-39.171-56.47-72.057c-7.704-24.556-8.087-49.277-2.466-70.779
	c1.431-5.494,3.258-10.77,5.455-15.791c9.697-22.192,26.625-39.197,48.894-46.173C271.12,268.456,324.103,303.999,342.449,362.577z"
	/>
<path style="fill:#423D72;" d="M250.79,415.917c-7.704-24.556-8.087-49.277-2.466-70.779c1.431-5.494,3.258-10.77,5.455-15.791
	c7.149-16.361,18.24-29.887,32.492-38.668c-19.564-10.71-41.444-13.991-62.167-7.505c-22.269,6.976-39.197,23.981-48.894,46.173
	c-2.197,5.021-4.024,10.297-5.455,15.791c0,0.003-0.001,0.005-0.001,0.008c0-0.003,0.001-0.005,0.001-0.008
	c-21.796,9.697-40.717,31.02-49.494,59.064c-14.386,45.917,3.807,92.499,40.653,104.035c23.431,7.346,48.741-1.239,67.777-20.263
	c-0.006-0.003-0.013-0.008-0.019-0.012c0.006,0.004,0.013,0.008,0.019,0.012c19.483,10.591,41.254,13.798,61.874,7.346
	c5.857-1.835,11.344-4.366,16.427-7.5C282.159,474.24,261.05,448.685,250.79,415.917z"/>
<path style="fill:#90BC42;" d="M512,378.981c-21.668-11.997-40.871-25.245-57.875-39.286h-0.026
	c-3.552-100.611-43.72-178.481-78.458-227.605C429.237,156.142,504.334,241.69,512,378.981z"/>
<g>
	<path style="fill:#9AD14B;" d="M445.565,439.949C298.091,299.029,312.119,123.793,320.883,69.379
		c1.75-10.872,3.283-16.915,3.283-16.915s24.045,20.863,51.462,59.613l0.013,0.013c34.738,49.124,74.906,126.994,78.458,227.605
		C455.223,370.971,452.796,404.457,445.565,439.949z"/>
	<path style="fill:#9AD14B;" d="M286.848,125.019c-0.511,0.907-1.035,1.814-1.559,2.721C268.565,145.422,162.933,248.5,0,215.307
		C120.465,89.233,274.698,122.17,286.848,125.019z"/>
</g>
<g>
	<path style="fill:#90BC42;" d="M445.565,439.949C298.091,299.029,312.119,123.793,320.883,69.379l3.283-16.915L445.565,439.949z"/>
	<path style="fill:#90BC42;" d="M286.848,125.019L0,215.307C120.465,89.233,274.698,122.17,286.848,125.019z"/>
</g>
<g>
</g>
<g>
</g>
<g>
</g>
<g>
</g>
<g>
</g>
<g>
</g>
<g>
</g>
<g>
</g>
<g>
</g>
<g>
</g>
<g>
</g>
<g>
</g>
<g>
</g>
<g>
</g>
<g>
</g>
</svg>
