<?xml version="1.0" encoding="iso-8859-1"?>
<!-- Generator: Adobe Illustrator 19.0.0, SVG Export Plug-In . SVG Version: 6.00 Build 0)  -->
<svg version="1.1" id="Layer_1" xmlns="http://www.w3.org/2000/svg" xmlns:xlink="http://www.w3.org/1999/xlink" x="0px" y="0px"
	 viewBox="0 0 512 512" style="enable-background:new 0 0 512 512;" xml:space="preserve">
<path style="fill:#F95428;" d="M434.485,170.47L254.044,318.682L77.528,170.47C81.807,75.597,160.074,0,256.007,0
	S430.206,75.597,434.485,170.47z"/>
<g>
	<path style="fill:#E54728;" d="M172.391,115.108c31.298-51.734,88.089-86.319,152.971-86.319c11.022,0,21.806,1.009,32.276,2.919
		C328.787,11.718,293.767,0,256.007,0c-95.933,0-174.2,75.599-178.479,170.472h9.461c11.149-32.415,41.914-55.694,78.11-55.694
		C167.557,114.777,169.988,114.897,172.391,115.108z"/>
	<rect x="115.994" y="149.873" style="fill:#E54728;" width="282.656" height="115.81"/>
</g>
<g>
	<path style="fill:#E09B2D;" d="M236.901,156.508c6.87,12.052,10.796,26.002,10.796,40.88c0,14.866-3.926,28.815-10.809,40.867
		c-15.363-7.197-40.422-22.783-40.422-40.867C196.466,179.29,221.538,163.692,236.901,156.508z"/>
	<path style="fill:#E09B2D;" d="M327.796,156.508c6.883,12.052,10.809,26.002,10.809,40.88c0,14.866-3.926,28.815-10.809,40.867
		c-15.363-7.197-35.803-22.783-35.803-40.867C291.993,179.303,312.433,163.705,327.796,156.508z"/>
</g>
<path style="fill:#F7B239;" d="M346.914,114.79c-16.789,0-32.414,5.012-45.447,13.622l-0.013-0.013
	c-13.034-8.611-28.658-13.622-45.447-13.622s-32.427,5.012-45.461,13.622c-13.034-8.611-28.658-13.622-45.447-13.622
	c-36.196,0-66.961,23.28-78.11,55.694l18.53,12.118l23.385-12.118c8.205-11.045,21.356-18.203,36.196-18.203
	c6.831,0,13.308,1.518,19.105,4.24c-6.883,12.052-10.809,26.002-10.809,40.88c0,14.866,3.926,28.828,10.809,40.88
	c2.146,3.756,4.58,7.328,7.276,10.691c4.92,1.296,10.089,1.99,15.402,1.99h77.155h21.095c11.895,0,23.031-3.442,32.414-9.435
	c-3.402-0.707-6.661-1.819-9.749-3.258c-15.363-7.197-26.002-22.783-26.002-40.867s10.639-33.683,26.002-40.88
	c5.81-2.722,12.288-4.24,19.119-4.24c14.826,0,27.978,7.158,36.183,18.203l22.743,16.043l19.171-16.043
	C413.862,138.07,383.097,114.79,346.914,114.79z M256.007,242.495c-6.831,0-13.308-1.518-19.119-4.24
	c-15.363-7.197-26.002-22.783-26.002-40.867c0-18.098,10.652-33.696,26.015-40.88c5.797-2.722,12.275-4.24,19.105-4.24
	c6.831,0,13.308,1.518,19.105,4.24l0.013,0.013c-6.883,12.052-10.809,26.002-10.809,40.867c0,14.866,3.926,28.815,10.796,40.867
	C269.315,240.977,262.837,242.495,256.007,242.495z"/>
<g>
	<path style="fill:#F95428;" d="M434.485,170.47h7.982l-14.447,141.328l-180.52,40.252L83.992,311.798h-0.013L69.532,170.47h7.996
		h9.461h41.914h15.612l2.172,25.256c2.238,25.936,20.65,46.887,44.793,53.234c4.92,1.296,10.089,1.989,15.402,1.989h77.155h21.095
		c11.895,0,23.031-3.442,32.414-9.435c15.389-9.801,26.093-26.394,27.768-45.788l2.185-25.256h15.598h41.914L434.485,170.47
		L434.485,170.47z"/>
	<polygon style="fill:#F95428;" points="414.791,441.336 407.568,512 104.445,512 97.222,441.336 263.204,411.592 	"/>
</g>
<polygon style="fill:#E6E6E6;" points="428.021,311.798 414.791,441.336 97.222,441.336 83.979,311.798 83.992,311.798 "/>
<polygon style="fill:#CCCCCC;" points="157.417,441.336 97.222,441.336 83.979,311.798 144.174,311.798 "/>
<g>
	<polygon style="fill:#E54728;" points="164.641,512 104.445,512 97.222,441.336 157.417,441.336 	"/>
	<polygon style="fill:#E54728;" points="129.727,170.47 144.174,311.798 83.979,311.798 69.532,170.47 	"/>
</g>
<g>
</g>
<g>
</g>
<g>
</g>
<g>
</g>
<g>
</g>
<g>
</g>
<g>
</g>
<g>
</g>
<g>
</g>
<g>
</g>
<g>
</g>
<g>
</g>
<g>
</g>
<g>
</g>
<g>
</g>
</svg>
