<?xml version="1.0" encoding="iso-8859-1"?>
<!-- Generator: Adobe Illustrator 19.0.0, SVG Export Plug-In . SVG Version: 6.00 Build 0)  -->
<svg version="1.1" id="Layer_1" xmlns="http://www.w3.org/2000/svg" xmlns:xlink="http://www.w3.org/1999/xlink" x="0px" y="0px"
	 viewBox="0 0 512 512" style="enable-background:new 0 0 512 512;" xml:space="preserve">
<path style="fill:#F4DE3B;" d="M256,330.783v0.013c-56.002,0-106.704-22.701-143.393-59.403L256,128.013V330.783z"/>
<path style="fill:#F7B239;" d="M458.796,128H512c0,141.378-114.622,256-256,256C114.609,384,0,269.378,0,128h53.204
	C53.204,183.989,458.796,184.002,458.796,128z"/>
<path style="fill:#F4DE3B;" d="M458.796,128c0,53.923-21.046,102.944-55.386,139.261c-1.335,1.399-2.669,2.772-4.03,4.132
	c-1.36,1.36-2.733,2.695-4.132,4.029c-35.033,33.096-81.847,53.846-133.486,55.296c-1.912,0.051-3.837,0.077-5.762,0.077
	c-1.938,0-3.863-0.026-5.788-0.077c-51.639-1.45-98.453-22.201-133.46-55.296c-1.399-1.322-2.785-2.669-4.145-4.029
	c-1.36-1.36-2.695-2.733-4.017-4.132C74.25,230.931,53.204,181.91,53.204,128h202.783l0.013,0.013V128H458.796z"/>
<path style="fill:#F7B239;" d="M403.409,267.261c-1.335,1.399-2.669,2.772-4.03,4.132c-1.36,1.36-2.733,2.695-4.132,4.029
	L261.762,141.936v188.782c-1.912,0.051-3.837,0.077-5.762,0.077c-1.938,0-3.863-0.026-5.788-0.077V141.962l-133.46,133.46
	c-1.399-1.322-2.785-2.669-4.145-4.029c-1.36-1.36-2.695-2.733-4.017-4.132L247.851,128h8.136l0.013,0.013V128h8.149
	L403.409,267.261z"/>
<g>
</g>
<g>
</g>
<g>
</g>
<g>
</g>
<g>
</g>
<g>
</g>
<g>
</g>
<g>
</g>
<g>
</g>
<g>
</g>
<g>
</g>
<g>
</g>
<g>
</g>
<g>
</g>
<g>
</g>
</svg>
