<?xml version="1.0" encoding="iso-8859-1"?>
<!-- Generator: Adobe Illustrator 19.0.0, SVG Export Plug-In . SVG Version: 6.00 Build 0)  -->
<svg version="1.1" id="Layer_1" xmlns="http://www.w3.org/2000/svg" xmlns:xlink="http://www.w3.org/1999/xlink" x="0px" y="0px"
	 viewBox="0 0 512 512" style="enable-background:new 0 0 512 512;" xml:space="preserve">
<path id="SVGCleanerId_0" style="fill:#FFB655;" d="M278.588,167.121v21.115c0,0.565-0.044,1.12-0.086,1.675
	c-0.858,11.69-10.594,20.914-22.502,20.914c-11.909,0-21.644-9.224-22.502-20.914c-0.041-0.556-0.086-1.11-0.086-1.675v-21.115
	c-84.856,11.103-150.588,83.867-150.588,171.702C82.824,434.313,160.51,512,256,512s173.176-77.687,173.176-173.176
	C429.176,250.988,363.445,178.224,278.588,167.121z"/>
<path style="fill:#A4E276;" d="M256,103.426c-11.619-10.88-18.191-20.558-18.805-21.481c-4.891-7.35-5.051-16.876-0.408-24.386
	c0.306-0.495,2.105-3.351,5.265-7.525c-5.254,4.137-8.639,10.54-8.639,17.744v99.345v21.115c0,0.565,0.044,1.12,0.086,1.675
	c0.858,11.69,10.594,20.914,22.502,20.914c11.909,0,21.644-9.224,22.502-20.914c0.041-0.556,0.086-1.11,0.086-1.675v-21.115V120.59
	C269.723,115.271,262.153,109.187,256,103.426z"/>
<path id="SVGCleanerId_1" style="fill:#64C37D;" d="M237.195,81.944c0.614,0.923,7.188,10.601,18.805,21.481
	c6.153,5.762,13.723,11.845,22.588,17.163c14.092,8.454,31.432,14.941,51.536,14.941c57.308,0,90.276-53.85,91.651-56.144
	c4.857-8.096,4.167-18.36-1.732-25.733C415.652,48.161,375.803,0.002,330.124,0c-45.088,0.002-76.234,34.388-88.073,50.034
	c-3.159,4.173-4.959,7.029-5.265,7.525C232.144,65.068,232.303,74.594,237.195,81.944z"/>
<path id="SVGCleanerId_2" style="fill:#EE8700;" d="M233.498,189.911c-0.041-0.556-0.086-1.11-0.086-1.675v-21.115
	c-84.856,11.103-150.588,83.867-150.588,171.702C82.824,434.313,160.51,512,256,512V210.825
	C244.091,210.825,234.356,201.602,233.498,189.911z"/>
<path style="fill:#A4E276;" d="M420.043,53.653C415.652,48.161,375.803,0.002,330.124,0c-45.088,0.002-76.234,34.388-88.073,50.034
	c-5.254,4.135-8.639,10.538-8.639,17.742v99.345v21.114c0,0.565,0.044,1.12,0.086,1.675c0.858,11.69,10.594,20.914,22.502,20.914
	c11.909,0,21.644-9.224,22.502-20.914c0.041-0.556,0.086-1.11,0.086-1.675V167.12v-46.532c14.092,8.454,31.432,14.941,51.536,14.941
	c57.308,0,90.276-53.85,91.651-56.144C426.632,71.29,425.942,61.026,420.043,53.653z"/>
<g>
	<path id="SVGCleanerId_0_1_" style="fill:#FFB655;" d="M278.588,167.121v21.115c0,0.565-0.044,1.12-0.086,1.675
		c-0.858,11.69-10.594,20.914-22.502,20.914c-11.909,0-21.644-9.224-22.502-20.914c-0.041-0.556-0.086-1.11-0.086-1.675v-21.115
		c-84.856,11.103-150.588,83.867-150.588,171.702C82.824,434.313,160.51,512,256,512s173.176-77.687,173.176-173.176
		C429.176,250.988,363.445,178.224,278.588,167.121z"/>
</g>
<g>
	<path id="SVGCleanerId_1_1_" style="fill:#64C37D;" d="M237.195,81.944c0.614,0.923,7.188,10.601,18.805,21.481
		c6.153,5.762,13.723,11.845,22.588,17.163c14.092,8.454,31.432,14.941,51.536,14.941c57.308,0,90.276-53.85,91.651-56.144
		c4.857-8.096,4.167-18.36-1.732-25.733C415.652,48.161,375.803,0.002,330.124,0c-45.088,0.002-76.234,34.388-88.073,50.034
		c-3.159,4.173-4.959,7.029-5.265,7.525C232.144,65.068,232.303,74.594,237.195,81.944z"/>
</g>
<g>
	<path id="SVGCleanerId_2_1_" style="fill:#EE8700;" d="M233.498,189.911c-0.041-0.556-0.086-1.11-0.086-1.675v-21.115
		c-84.856,11.103-150.588,83.867-150.588,171.702C82.824,434.313,160.51,512,256,512V210.825
		C244.091,210.825,234.356,201.602,233.498,189.911z"/>
</g>
<g>
</g>
<g>
</g>
<g>
</g>
<g>
</g>
<g>
</g>
<g>
</g>
<g>
</g>
<g>
</g>
<g>
</g>
<g>
</g>
<g>
</g>
<g>
</g>
<g>
</g>
<g>
</g>
<g>
</g>
</svg>
