<?xml version="1.0" encoding="iso-8859-1"?>
<!-- Generator: Adobe Illustrator 19.0.0, SVG Export Plug-In . SVG Version: 6.00 Build 0)  -->
<svg version="1.1" id="Layer_1" xmlns="http://www.w3.org/2000/svg" xmlns:xlink="http://www.w3.org/1999/xlink" x="0px" y="0px"
	 viewBox="0 0 512 512" style="enable-background:new 0 0 512 512;" xml:space="preserve">
<path style="fill:#989DE9;" d="M358.4,234.057H153.601c-12.118,0-21.943-9.825-21.943-21.943v-87.771C131.659,55.78,187.439,0,256,0
	c68.563,0,124.343,55.78,124.343,124.343v87.771C380.343,224.233,370.518,234.057,358.4,234.057z M175.544,190.171h160.913v-65.829
	c0-44.364-36.093-80.457-80.457-80.457c-44.363,0-80.456,36.093-80.456,80.457V190.171z"/>
<path style="fill:#7075E0;" d="M256,0v43.886c44.364,0,80.457,36.093,80.457,80.457v65.829H256v43.886h102.4
	c12.118,0,21.943-9.825,21.943-21.943v-87.771C380.343,55.78,324.563,0,256,0z"/>
<path style="fill:#F2D23D;" d="M402.286,190.171H109.714c-12.118,0-21.943,9.825-21.943,21.943v277.943
	c0,12.118,9.825,21.943,21.943,21.943h292.571c12.118,0,21.943-9.825,21.943-21.943V212.114
	C424.229,199.996,414.404,190.171,402.286,190.171z"/>
<path style="fill:#E69629;" d="M402.286,190.171H256V512h146.286c12.118,0,21.943-9.825,21.943-21.943V212.114
	C424.229,199.996,414.404,190.171,402.286,190.171z"/>
<path style="fill:#1D3366;" d="M256,394.971c-12.118,0-21.943-9.825-21.943-21.943v-43.886c0-12.118,9.825-21.943,21.943-21.943
	c12.118,0,21.943,9.825,21.943,21.943v43.886C277.943,385.147,268.118,394.971,256,394.971z"/>
<g>
</g>
<g>
</g>
<g>
</g>
<g>
</g>
<g>
</g>
<g>
</g>
<g>
</g>
<g>
</g>
<g>
</g>
<g>
</g>
<g>
</g>
<g>
</g>
<g>
</g>
<g>
</g>
<g>
</g>
</svg>
