<?xml version="1.0" encoding="iso-8859-1"?>
<!-- Generator: Adobe Illustrator 19.0.0, SVG Export Plug-In . SVG Version: 6.00 Build 0)  -->
<svg version="1.1" id="Layer_1" xmlns="http://www.w3.org/2000/svg" xmlns:xlink="http://www.w3.org/1999/xlink" x="0px" y="0px"
	 viewBox="0 0 512 512" style="enable-background:new 0 0 512 512;" xml:space="preserve">
<path style="fill:#D8DBE2;" d="M385.407,129.407v123.78h-45.011v-123.78c0-46.53-37.866-84.396-84.396-84.396
	c-46.541,0-84.396,37.865-84.396,84.396v123.78h-45.011v-123.78C126.593,58.053,184.646,0,256,0S385.407,58.053,385.407,129.407z"/>
<path style="fill:#A7AFBA;" d="M399.473,219.429H112.527c-18.567,0-33.758,15.191-33.758,33.758v225.055
	c0,18.567,15.191,33.758,33.758,33.758h286.945c18.567,0,33.758-15.191,33.758-33.758V253.187
	C433.231,234.62,418.04,219.429,399.473,219.429z"/>
<path style="fill:#D8DBE2;" d="M292.571,336.457c0,13.019-6.819,24.452-17.07,30.934l9.756,64.152h-58.514l9.756-64.152
	c-10.262-6.482-17.07-17.914-17.07-30.934c0-20.199,16.373-36.571,36.571-36.571C276.199,299.886,292.571,316.258,292.571,336.457z"
	/>
<g>
	<circle style="fill:#BEC3CC;" cx="340.396" cy="461.363" r="8.44"/>
	<circle style="fill:#BEC3CC;" cx="374.154" cy="427.604" r="8.44"/>
</g>
<g>
</g>
<g>
</g>
<g>
</g>
<g>
</g>
<g>
</g>
<g>
</g>
<g>
</g>
<g>
</g>
<g>
</g>
<g>
</g>
<g>
</g>
<g>
</g>
<g>
</g>
<g>
</g>
<g>
</g>
</svg>
