<?xml version="1.0" encoding="iso-8859-1"?>
<!-- Generator: Adobe Illustrator 19.0.0, SVG Export Plug-In . SVG Version: 6.00 Build 0)  -->
<svg version="1.1" id="Layer_1" xmlns="http://www.w3.org/2000/svg" xmlns:xlink="http://www.w3.org/1999/xlink" x="0px" y="0px"
	 viewBox="0 0 512 512" style="enable-background:new 0 0 512 512;" xml:space="preserve">
<path style="fill:#81CF9B;" d="M423.433,177.805c0-9.411-7.698-17.103-17.106-17.103H105.673c-9.405,0-17.106,7.693-17.106,17.103
	v200.189c0,9.408,7.7,17.103,17.106,17.103h300.654c9.408,0,17.106-7.695,17.106-17.103L423.433,177.805L423.433,177.805z"/>
<rect x="138.804" y="160.699" style="fill:#90DEA9;" width="234.419" height="234.394"/>
<g>
	<path style="fill:#3F4A5A;" d="M287.361,258.447c0,17.313-14.044,31.36-31.36,31.36s-31.36-14.047-31.36-31.36
		c0-17.321,14.044-31.355,31.36-31.355S287.361,241.126,287.361,258.447z"/>
	<rect x="242.92" y="283.725" style="fill:#3F4A5A;" width="26.181" height="44.992"/>
</g>
<g>
	<path style="fill:#D9D8D7;" d="M373.206,160.699h-43.538v-43.494c0-19.684-7.66-38.18-21.568-52.091
		c-13.921-13.916-32.427-21.576-52.101-21.576c-19.676,0-38.18,7.66-52.088,21.568c-13.921,13.921-21.588,32.417-21.588,52.101
		v43.497h-43.525v-43.499c0-31.316,12.191-60.746,34.332-82.877C195.265,12.193,224.698,0,256.001,0
		c31.306,0,60.736,12.193,82.872,34.327c22.139,22.129,34.332,51.561,34.332,82.877V160.699z"/>
	<rect x="242.92" y="395.085" style="fill:#D9D8D7;" width="26.181" height="49.101"/>
	<rect x="88.57" y="459.034" style="fill:#D9D8D7;" width="139.494" height="26.184"/>
	<rect x="283.931" y="459.034" style="fill:#D9D8D7;" width="139.494" height="26.184"/>
	<path style="fill:#D9D8D7;" d="M256.001,512c-21.988,0-39.877-17.887-39.877-39.88s17.889-39.872,39.877-39.872
		s39.875,17.879,39.875,39.872S277.989,512,256.001,512z M256.001,458.424c-7.557,0-13.704,6.141-13.704,13.696
		s6.147,13.696,13.704,13.696c7.552,0,13.693-6.141,13.693-13.696S263.553,458.424,256.001,458.424z"/>
</g>
<g>
</g>
<g>
</g>
<g>
</g>
<g>
</g>
<g>
</g>
<g>
</g>
<g>
</g>
<g>
</g>
<g>
</g>
<g>
</g>
<g>
</g>
<g>
</g>
<g>
</g>
<g>
</g>
<g>
</g>
</svg>
