<?xml version="1.0" encoding="iso-8859-1"?>
<!-- Generator: Adobe Illustrator 19.0.0, SVG Export Plug-In . SVG Version: 6.00 Build 0)  -->
<svg version="1.1" id="Layer_1" xmlns="http://www.w3.org/2000/svg" xmlns:xlink="http://www.w3.org/1999/xlink" x="0px" y="0px"
	 viewBox="0 0 512.005 512.005" style="enable-background:new 0 0 512.005 512.005;" xml:space="preserve">
<polygon style="fill:#082947;" points="484.669,105.461 429.975,160.155 375.29,121.094 445.608,66.4 "/>
<polygon style="fill:#274B6D;" points="445.608,66.4 383.102,128.906 351.853,82.032 406.546,27.339 "/>
<polygon style="fill:#55A7A2;" points="226.591,440.161 181.249,488.566 86.721,409.662 157.031,354.976 "/>
<polygon style="fill:#98D9D5;" points="429.975,160.155 415.039,238.965 328.417,167.967 390.914,121.094 "/>
<polygon style="fill:#C1E8E6;" points="390.914,121.094 336.229,175.779 273.043,96.969 351.853,82.032 "/>
<polygon style="fill:#55A7A2;" points="415.039,238.965 369.704,287.361 281.55,214.832 344.041,167.967 "/>
<polygon style="fill:#98D9D5;" points="344.041,167.967 289.362,222.645 224.647,142.304 273.043,96.969 "/>
<polygon style="fill:#F9DCA7;" points="369.704,287.361 226.591,440.161 149.219,362.788 199.761,265.374 297.175,214.832 "/>
<g>
	<polygon style="fill:#98D9D5;" points="157.031,354.976 94.533,417.474 23.442,330.758 71.847,285.417 	"/>
	
		<rect x="113.498" y="405.042" transform="matrix(-0.7071 0.7071 -0.7071 -0.7071 547.9033 694.7205)" style="fill:#98D9D5;" width="33.144" height="111.585"/>
</g>
<rect x="34.598" y="326.128" transform="matrix(-0.7071 0.7071 -0.7071 -0.7071 357.4109 615.7973)" style="fill:#C1E8E6;" width="33.144" height="111.585"/>
<polygon style="fill:#F2EBD9;" points="297.175,214.832 149.219,362.788 71.847,285.417 224.647,142.304 "/>
<rect x="368.274" y="49.828" transform="matrix(-0.7071 -0.7071 0.7071 -0.7071 713.7438 428.4417)" style="fill:#082947;" width="154.662" height="33.144"/>
<g>
</g>
<g>
</g>
<g>
</g>
<g>
</g>
<g>
</g>
<g>
</g>
<g>
</g>
<g>
</g>
<g>
</g>
<g>
</g>
<g>
</g>
<g>
</g>
<g>
</g>
<g>
</g>
<g>
</g>
</svg>
