<?xml version="1.0" encoding="iso-8859-1"?>
<!-- Generator: Adobe Illustrator 19.0.0, SVG Export Plug-In . SVG Version: 6.00 Build 0)  -->
<svg version="1.1" id="Layer_1" xmlns="http://www.w3.org/2000/svg" xmlns:xlink="http://www.w3.org/1999/xlink" x="0px" y="0px"
	 viewBox="0 0 512 512" style="enable-background:new 0 0 512 512;" xml:space="preserve">
<path style="fill:#A78966;" d="M256.001,157.367c-8.057,0-15.858,1.117-23.273,3.164v328.197c0,12.853,10.42,23.273,23.273,23.273
	c12.853,0,23.273-10.42,23.273-23.273V160.531C271.859,158.484,264.059,157.367,256.001,157.367z"/>
<path style="fill:#91CC04;" d="M429.182,117.637c-36.301-36.299-88.401-47.369-134.364-33.261
	c15.816-22.834,42.186-37.831,72.006-37.831c12.853,0,23.273-10.42,23.273-23.273S379.677,0,366.824,0
	c-45.999,0-86.66,23.284-110.823,58.681C231.837,23.284,191.177,0,145.178,0c-12.853,0-23.273,10.42-23.273,23.273
	s10.42,23.273,23.273,23.273c29.82,0,56.19,14.995,72.004,37.829c-45.964-14.106-98.064-3.036-134.366,33.261
	c-9.089,9.089-9.089,23.824,0,32.912c9.086,9.089,23.822,9.089,32.912,0.002c21.077-21.077,50.314-29.122,77.635-24.171
	c-42.467,22.531-71.46,67.207-71.46,118.536c0,12.853,10.42,23.273,23.273,23.273c12.853,0,23.273-10.42,23.273-23.273
	c0-40.215,27.265-74.164,64.278-84.387c7.415-2.046,15.216-3.164,23.273-3.164s15.858,1.117,23.273,3.164
	c37.011,10.221,64.278,44.17,64.278,84.387c0,12.853,10.42,23.273,23.273,23.273c12.853,0,23.273-10.42,23.273-23.273
	c0-51.327-28.993-96.005-71.46-118.536c27.321-4.951,56.557,3.095,77.635,24.171c4.544,4.543,10.501,6.816,16.455,6.816
	c5.955,0,11.913-2.273,16.457-6.817C438.274,141.461,438.273,126.725,429.182,117.637z"/>
<path style="fill:#79AB03;" d="M145.178,0c-12.853,0-23.273,10.42-23.273,23.273s10.42,23.273,23.273,23.273
	c29.82,0,56.19,14.995,72.004,37.829c-45.964-14.106-98.064-3.036-134.366,33.261c-9.089,9.089-9.089,23.824,0,32.912
	c9.087,9.089,23.822,9.089,32.912,0.002c21.077-21.079,50.314-29.122,77.635-24.171c-42.467,22.531-71.46,67.207-71.46,118.536
	c0,12.853,10.42,23.273,23.273,23.273c12.853,0,23.273-10.42,23.273-23.273c0-40.215,27.265-74.164,64.278-84.387
	c7.415-2.046,15.216-3.164,23.273-3.164V58.681C231.837,23.284,191.177,0,145.178,0z"/>
<g>
</g>
<g>
</g>
<g>
</g>
<g>
</g>
<g>
</g>
<g>
</g>
<g>
</g>
<g>
</g>
<g>
</g>
<g>
</g>
<g>
</g>
<g>
</g>
<g>
</g>
<g>
</g>
<g>
</g>
</svg>
