<?xml version="1.0" encoding="iso-8859-1"?>
<!-- Generator: Adobe Illustrator 19.0.0, SVG Export Plug-In . SVG Version: 6.00 Build 0)  -->
<svg version="1.1" id="Layer_1" xmlns="http://www.w3.org/2000/svg" xmlns:xlink="http://www.w3.org/1999/xlink" x="0px" y="0px"
	 viewBox="0 0 512 512" style="enable-background:new 0 0 512 512;" xml:space="preserve">
<path style="fill:#F7B239;" d="M476.378,150.187V332.26H32.868V150.187c0-6.395,5.184-11.578,11.578-11.578h420.354
	C471.194,138.608,476.378,143.792,476.378,150.187z"/>
<path style="fill:#E09B2D;" d="M95.736,336.716H32.868V150.187c0-6.395,5.184-11.578,11.578-11.578h51.29V336.716z"/>
<path style="fill:#F2F2F2;" d="M476.741,319.376H512c0,29.838-24.178,54.016-54.016,54.016H54.016
	c-14.913,0-28.423-6.048-38.189-15.814C6.048,347.798,0,334.288,0,319.376h32.868H476.741z"/>
<path style="fill:#E6E6E6;" d="M91.404,319.376H32.868H0c0,14.913,6.048,28.423,15.827,38.202
	c9.766,9.766,23.277,15.814,38.189,15.814h91.404c-14.913,0-28.423-6.048-38.189-15.814
	C97.452,347.798,91.404,334.288,91.404,319.376z"/>
<g>
	<rect x="32.868" y="169.849" style="fill:#E09B2D;" width="443.51" height="12.521"/>
	<rect x="32.868" y="205.108" style="fill:#E09B2D;" width="443.51" height="12.521"/>
	<rect x="32.868" y="240.355" style="fill:#E09B2D;" width="443.51" height="12.521"/>
	<rect x="32.868" y="275.627" style="fill:#E09B2D;" width="443.51" height="12.521"/>
</g>
<path style="fill:#F95428;" d="M304.037,192.963v18.406v18.469c0,6.461-2.454,12.346-6.498,16.778
	c-4.558,4.983-11.106,8.114-18.393,8.114c-6.874,0-13.097-2.78-17.605-7.287c-0.275-0.275-0.538-0.551-0.789-0.826
	c-4.044-4.432-6.498-10.317-6.498-16.778v-18.469v-35.259v-37.501h99.568v37.501v16.853c0,7.3-3.13,13.848-8.139,18.406
	c-4.432,4.019-10.305,6.486-16.753,6.486c-6.436,0-12.321-2.467-16.741-6.486C307.18,206.811,304.037,200.262,304.037,192.963z"/>
<g>
</g>
<g>
</g>
<g>
</g>
<g>
</g>
<g>
</g>
<g>
</g>
<g>
</g>
<g>
</g>
<g>
</g>
<g>
</g>
<g>
</g>
<g>
</g>
<g>
</g>
<g>
</g>
<g>
</g>
</svg>
