<?xml version="1.0" encoding="iso-8859-1"?>
<!-- Generator: Adobe Illustrator 19.0.0, SVG Export Plug-In . SVG Version: 6.00 Build 0)  -->
<svg version="1.1" id="Layer_1" xmlns="http://www.w3.org/2000/svg" xmlns:xlink="http://www.w3.org/1999/xlink" x="0px" y="0px"
	 viewBox="0 0 512 512" style="enable-background:new 0 0 512 512;" xml:space="preserve">
<path style="fill:#36495E;" d="M256,449.073c-10.345,0-18.732-8.387-18.732-18.732v-69.335c0-10.345,8.387-18.732,18.732-18.732
	c10.345,0,18.732,8.387,18.732,18.732v69.335C274.732,440.686,266.345,449.073,256,449.073z"/>
<path style="fill:#2C3E50;" d="M256,342.273v106.798c10.345,0,18.732-8.387,18.732-18.732v-69.335
	C274.732,350.66,266.345,342.273,256,342.273z"/>
<path style="fill:#F1F2F2;" d="M447.809,325.039H64.191c-10.345,0-18.732-8.387-18.732-18.732V73.43
	c0-10.345,8.387-18.732,18.732-18.732h383.617c10.345,0,18.732,8.387,18.732,18.732v232.878
	C466.541,316.652,458.154,325.039,447.809,325.039z"/>
<path style="fill:#E6E7E8;" d="M447.809,54.698H256v270.341h191.809c10.345,0,18.732-8.387,18.732-18.732V73.43
	C466.541,63.085,458.154,54.698,447.809,54.698z"/>
<g>
	<path style="fill:#6A82A1;" d="M479.021,379.737H32.979c-10.345,0-18.732-8.387-18.732-18.732v-54.698
		c0-10.345,8.387-18.732,18.732-18.732h446.042c10.345,0,18.732,8.387,18.732,18.732v54.698
		C497.753,371.351,489.366,379.737,479.021,379.737z"/>
	<path style="fill:#6A82A1;" d="M329.822,512H182.178c-10.345,0-18.732-8.387-18.732-18.732v-62.927
		c0-10.345,8.387-18.732,18.732-18.732h147.643c10.345,0,18.732,8.387,18.732,18.732v62.927
		C348.553,503.613,340.167,512,329.822,512z"/>
	<path style="fill:#6A82A1;" d="M479.021,92.161H32.979c-10.345,0-18.732-8.387-18.732-18.732V18.732
		C14.247,8.387,22.634,0,32.979,0h446.042c10.345,0,18.732,8.387,18.732,18.732V73.43C497.753,83.774,489.366,92.161,479.021,92.161
		z"/>
</g>
<path style="fill:#FFDA79;" d="M316.325,249.325l-28.973-68.738l-25.335,45.991c-6.005,10.903-20.828,13.034-29.652,4.207
	l-30.398-30.397l-33.459,51.257c-5.654,8.664-17.264,11.099-25.925,5.447c-8.664-5.654-11.102-17.262-5.446-25.925l46.073-70.582
	c6.49-9.944,20.516-11.423,28.93-3.007l29.089,29.089l31.961-58.02c7.528-13.668,27.596-12.649,33.668,1.762l28.356,67.273
	l7.283-14.259c4.707-9.214,15.993-12.867,25.203-8.161c9.213,4.705,12.867,15.989,8.161,25.202l-25.592,50.102
	C343.019,264.756,322.501,263.981,316.325,249.325z"/>
<g>
	<path style="fill:#36495E;" d="M479.021,287.575H256v92.161h223.021c10.345,0,18.732-8.387,18.732-18.732v-54.698
		C497.753,295.962,489.366,287.575,479.021,287.575z"/>
	<path style="fill:#36495E;" d="M329.822,411.609H256V512h73.822c10.345,0,18.732-8.387,18.732-18.732v-62.927
		C348.553,419.996,340.167,411.609,329.822,411.609z"/>
	<path style="fill:#36495E;" d="M479.021,0H256v92.161h223.021c10.345,0,18.732-8.387,18.732-18.732V18.732
		C497.753,8.387,489.366,0,479.021,0z"/>
</g>
<path style="fill:#FFD155;" d="M367.698,175.266c-9.21-4.708-20.496-1.054-25.203,8.161l-7.283,14.259l-28.356-67.273
	c-6.073-14.411-26.141-15.43-33.668-1.762L256,159.854v73.276c2.409-1.601,4.496-3.793,6.015-6.552l25.335-45.991l28.973,68.738
	c6.176,14.656,26.695,15.431,33.943,1.245l25.592-50.102C380.566,191.254,376.912,179.972,367.698,175.266z"/>
<g>
</g>
<g>
</g>
<g>
</g>
<g>
</g>
<g>
</g>
<g>
</g>
<g>
</g>
<g>
</g>
<g>
</g>
<g>
</g>
<g>
</g>
<g>
</g>
<g>
</g>
<g>
</g>
<g>
</g>
</svg>
