<?xml version="1.0" encoding="iso-8859-1"?>
<!-- Generator: Adobe Illustrator 19.0.0, SVG Export Plug-In . SVG Version: 6.00 Build 0)  -->
<svg version="1.1" id="Layer_1" xmlns="http://www.w3.org/2000/svg" xmlns:xlink="http://www.w3.org/1999/xlink" x="0px" y="0px"
	 viewBox="0 0 512.001 512.001" style="enable-background:new 0 0 512.001 512.001;" xml:space="preserve">
<path style="fill:#6A82A1;" d="M493.379,420.449H18.621C8.337,420.449,0,412.112,0,401.828V219.996
	c0-10.284,8.337-18.621,18.621-18.621h474.758c10.284,0,18.621,8.337,18.621,18.621V401.83
	C512,412.112,503.664,420.449,493.379,420.449z"/>
<path style="fill:#36495E;" d="M493.379,201.375H256.001V420.45h237.38c10.284,0,18.621-8.337,18.621-18.621V219.996
	C512,209.712,503.664,201.375,493.379,201.375z"/>
<path style="fill:#F1F2F2;" d="M409.397,420.449H102.603c-6.483,0-12.498-3.372-15.882-8.901c-3.385-5.529-3.648-12.42-0.699-18.192
	l108.584-212.505c-73.1-55.362-36.577-179.334,61.395-179.334c97.729,0,134.639,123.886,61.396,179.336L425.98,393.357
	C432.296,405.72,423.306,420.449,409.397,420.449z M133.028,383.208h245.944L276.497,182.658
	c-4.676-9.151-1.054-20.361,8.095-25.047c58.339-29.874,37.176-118.854-28.592-118.854c-65.854,0-86.898,88.997-28.592,118.854
	c9.148,4.685,12.77,15.896,8.095,25.047L133.028,383.208z"/>
<path style="fill:#E6E7E8;" d="M425.978,393.356L317.397,180.852C390.639,125.403,353.73,1.517,256.001,1.517v37.242
	c65.767,0,86.932,88.98,28.592,118.854c-9.148,4.685-12.77,15.896-8.095,25.047l102.475,200.549H255.999v37.242h153.397
	C423.306,420.449,432.296,405.72,425.978,393.356z"/>
<path style="fill:#36495E;" d="M493.379,510.484H18.621C8.337,510.484,0,502.147,0,491.864V383.209h512v108.655
	C512,502.147,503.664,510.484,493.379,510.484z"/>
<path style="fill:#2C3E50;" d="M256.001,383.208v127.275h237.38c10.284,0,18.621-8.337,18.621-18.621V383.208H256.001z"/>
<g>
</g>
<g>
</g>
<g>
</g>
<g>
</g>
<g>
</g>
<g>
</g>
<g>
</g>
<g>
</g>
<g>
</g>
<g>
</g>
<g>
</g>
<g>
</g>
<g>
</g>
<g>
</g>
<g>
</g>
</svg>
