<?xml version="1.0" encoding="iso-8859-1"?>
<!-- Generator: Adobe Illustrator 19.0.0, SVG Export Plug-In . SVG Version: 6.00 Build 0)  -->
<svg version="1.1" id="Layer_1" xmlns="http://www.w3.org/2000/svg" xmlns:xlink="http://www.w3.org/1999/xlink" x="0px" y="0px"
	 viewBox="0 0 512 512" style="enable-background:new 0 0 512 512;" xml:space="preserve">
<path style="fill:#E6E6E6;" d="M311.054,265.38v-33.906c0-21.342-15.784-39.065-36.291-42.115v-87.504h-18.698v87.505
	c-20.51,3.053-36.296,20.774-36.296,42.114v33.906c0,0.012,0.001,0.024,0.001,0.036v81.127h18.698v-63.016
	c0-4.859,3.939-8.798,8.798-8.798l0,0c4.859,0,8.798,3.939,8.798,8.798v63.016h18.698v-63.016c0-4.859,3.939-8.798,8.798-8.798l0,0
	c4.859,0,8.798,3.939,8.798,8.798v63.016h18.698V265.38H311.054z"/>
<path style="fill:#F95428;" d="M288.088,20.768v87.745c0,11.467-9.301,20.768-20.768,20.768h-3.817
	c-11.467,0-20.768-9.301-20.768-20.768V20.768C242.735,9.301,252.036,0,263.503,0h3.817C278.787,0,288.088,9.301,288.088,20.768z"/>
<path style="fill:#F7B239;" d="M425.439,426.262l-181.785,37.088l-157.08-37.088c8.452-16.679,19.309-31.937,32.099-45.337
	c2.954-3.091,6.008-6.096,9.175-8.975c6.706-6.146,13.849-11.805,21.391-16.941c3.814-2.605,7.716-5.073,11.718-7.392h0.012
	c10.459-6.058,21.553-11.157,33.159-15.146c4.662-1.608,9.399-3.042,14.211-4.288c15.233-3.939,31.201-6.033,47.669-6.033
	c16.081,0,31.688,1.995,46.596,5.759c4.824,1.222,9.574,2.618,14.248,4.201c6.943,2.344,13.7,5.086,20.244,8.177
	c3.79,1.795,7.517,3.715,11.157,5.734c7.903,4.413,15.445,9.349,22.6,14.797c4.014,3.054,7.916,6.27,11.668,9.636
	C400.071,386.147,414.693,405.058,425.439,426.262z"/>
<path style="fill:#E6E6E6;" d="M465.241,426.262l-32.436,58.426C423.444,501.541,405.681,512,386.397,512H125.603
	c-19.284,0-37.048-10.459-46.409-27.312l-32.436-58.426h39.815h338.865H465.241z"/>
<path style="fill:#CCCCCC;" d="M161.052,484.688l-32.436-58.426H86.574H46.759l32.436,58.426
	C88.556,501.541,106.319,512,125.603,512h81.858C188.177,512,170.414,501.541,161.052,484.688z"/>
<path style="fill:#E09B2D;" d="M297.143,326.63c-13.247-2.927-27.01-4.481-41.137-4.481c-73.996,0-138.119,42.346-169.433,104.113
	h82.273C194.182,376.287,241,339.036,297.143,326.63z"/>
<g>
	<path style="fill:#B27214;" d="M127.847,371.949c-3.166,2.88-6.22,5.884-9.175,8.975l1.259,0.773
		c10.87,6.619,29.032,21.179,28.459,44.415v0.15h12.466C161.13,413.759,157.104,390.398,127.847,371.949z"/>
	<path style="fill:#B27214;" d="M160.968,347.616h-0.012c-4.001,2.319-7.903,4.787-11.718,7.392
		c3.939,2.206,43.43,25.293,41.062,70.929l-0.012,0.324h12.466C204.897,382.146,174.543,356.716,160.968,347.616z"/>
	<path style="fill:#B27214;" d="M348.252,346.02c-3.64-2.019-7.367-3.939-11.157-5.734l-0.224,0.623
		c-14.722,39.865-70.755,54.063-89.565,57.753c-1.633-10.06-4.612-19.272-8.265-27.512c37.546-3.727,73.373-35.103,75.018-36.562
		l2.792-2.481c-4.675-1.583-9.424-2.979-14.248-4.201c-9.823,7.891-40.663,30.665-69.758,31.139
		c-8.95-15.395-19.347-26.066-24.507-30.865c-4.812,1.247-9.549,2.68-14.211,4.288l3.129,2.543
		c0.449,0.362,44.278,36.774,38.369,90.563l-0.075,0.686h12.528c0.548-5.198,0.686-10.247,0.474-15.121
		c7.841-1.471,22.725-4.812,38.893-11.344C318.584,387.232,339.576,368.645,348.252,346.02z"/>
	<path style="fill:#B27214;" d="M370.852,360.817l-0.436,4.488c-0.461,4.687-1.783,9.274-4.064,13.401
		c-7.579,13.7-25.018,29.606-46.846,42.159l-10.122,5.398h25.23c30.69-19.733,44.752-40.65,47.606-54.363l0.299-1.446
		C378.768,367.087,374.866,363.871,370.852,360.817z"/>
</g>
<g>
</g>
<g>
</g>
<g>
</g>
<g>
</g>
<g>
</g>
<g>
</g>
<g>
</g>
<g>
</g>
<g>
</g>
<g>
</g>
<g>
</g>
<g>
</g>
<g>
</g>
<g>
</g>
<g>
</g>
</svg>
