<?xml version="1.0" encoding="iso-8859-1"?>
<!-- Generator: Adobe Illustrator 19.0.0, SVG Export Plug-In . SVG Version: 6.00 Build 0)  -->
<svg version="1.1" id="Layer_1" xmlns="http://www.w3.org/2000/svg" xmlns:xlink="http://www.w3.org/1999/xlink" x="0px" y="0px"
	 viewBox="0 0 512 512" style="enable-background:new 0 0 512 512;" xml:space="preserve">
<path style="fill:#A8DA64;" d="M174.766,4.514c37.636-11.238,73.993-0.767,81.205,23.388c7.212,24.154-17.451,52.846-55.086,64.084
	c-28.47,8.5-74.302-5.071-94.939-12.186c-2.551-0.88-4.521-2.934-5.293-5.519s-0.252-5.386,1.399-7.519
	C115.408,49.495,146.296,13.014,174.766,4.514z"/>
<path style="fill:#7FA24D;" d="M174.766,4.514c37.636-11.238,73.993-0.767,81.205,23.388
	c-87.436,12.524-155.32,46.377-155.32,46.377c-0.772-2.585-0.251-5.384,1.401-7.519C115.409,49.494,146.296,13.014,174.766,4.514z"
	/>
<path style="fill:#533F29;" d="M328.659,7.905c-1-2.697-3.158-4.8-5.88-5.733c-2.72-0.932-5.716-0.593-8.16,0.92
	c-17.997,11.137-53.6,40.633-55.299,100.391l21.496,3.683c0,0,18.505-41.778,53.352-60.857c4.168-2.282,6.042-7.277,4.388-11.731
	L328.659,7.905z"/>
<path style="fill:#FFDC35;" d="M377.289,268.348c-22.41-26.874-34.727-60.762-34.727-95.754l0,0
	c0-43.869-35.563-79.432-79.432-79.432s-79.432,35.563-79.432,79.432c0,35.07-12.265,68.82-34.725,95.753
	c-21.485,25.764-34.411,58.915-34.411,95.085C114.562,445.484,181.078,512,263.13,512s148.568-66.517,148.568-148.568
	C411.699,327.261,398.773,294.111,377.289,268.348z"/>
<path style="fill:#FFAE33;" d="M377.289,268.348c-22.41-26.874-34.727-60.762-34.727-95.754c0-43.869-35.563-79.432-79.432-79.432
	V512c82.052,0,148.568-66.517,148.568-148.568C411.699,327.261,398.773,294.113,377.289,268.348z"/>
<g>
</g>
<g>
</g>
<g>
</g>
<g>
</g>
<g>
</g>
<g>
</g>
<g>
</g>
<g>
</g>
<g>
</g>
<g>
</g>
<g>
</g>
<g>
</g>
<g>
</g>
<g>
</g>
<g>
</g>
</svg>
