<?xml version="1.0" encoding="iso-8859-1"?>
<!-- Generator: Adobe Illustrator 19.0.0, SVG Export Plug-In . SVG Version: 6.00 Build 0)  -->
<svg version="1.1" id="Layer_1" xmlns="http://www.w3.org/2000/svg" xmlns:xlink="http://www.w3.org/1999/xlink" x="0px" y="0px"
	 viewBox="0 0 512 512" style="enable-background:new 0 0 512 512;" xml:space="preserve">
<path style="fill:#D9FB69;" d="M364.606,192.011v-52.375c0-51.897-36.599-95.382-85.333-106.069V23.273
	C279.273,10.42,268.853,0,256,0c-12.853,0-23.273,10.42-23.273,23.273v10.296c-48.735,10.685-85.333,54.173-85.333,106.068v52.373
	c-43.942,33.704-69.818,85.723-69.818,141.566C77.576,431.959,157.617,512,256,512s178.424-80.041,178.424-178.424
	C434.424,277.732,408.548,225.713,364.606,192.011z"/>
<path style="fill:#368B4C;" d="M256,0c-12.853,0-23.273,10.42-23.273,23.273v10.296v20.734c0,1.078,0.099,2.132,0.24,3.17
	c1.55,11.351,11.258,20.103,23.032,20.103c11.774,0,21.482-8.754,23.032-20.101c0.141-1.038,0.24-2.091,0.24-3.171V33.569V23.273
	C279.273,10.42,268.853,0,256,0z"/>
<path style="fill:#B2FA09;" d="M232.968,57.474c-0.141-1.04-0.24-2.093-0.24-3.171V33.569
	c-48.735,10.687-85.333,54.173-85.333,106.069v52.373c-43.942,33.702-69.818,85.721-69.818,141.565
	C77.576,431.959,157.617,512,256,512V77.576C244.226,77.576,234.518,68.824,232.968,57.474z"/>
<g>
</g>
<g>
</g>
<g>
</g>
<g>
</g>
<g>
</g>
<g>
</g>
<g>
</g>
<g>
</g>
<g>
</g>
<g>
</g>
<g>
</g>
<g>
</g>
<g>
</g>
<g>
</g>
<g>
</g>
</svg>
