<?xml version="1.0" encoding="iso-8859-1"?>
<!-- Generator: Adobe Illustrator 19.0.0, SVG Export Plug-In . SVG Version: 6.00 Build 0)  -->
<svg version="1.1" id="Layer_1" xmlns="http://www.w3.org/2000/svg" xmlns:xlink="http://www.w3.org/1999/xlink" x="0px" y="0px"
	 viewBox="0 0 512 512" style="enable-background:new 0 0 512 512;" xml:space="preserve">
<path style="fill:#C7E9F4;" d="M242.965,218.547H122.202c-6.379,0-12.277-3.404-15.466-8.93l-40-69.275
	c-4.932-8.542-2.006-19.463,6.534-24.396l90.576-52.298c8.542-4.929,19.463-2.004,24.395,6.538l70.19,121.572
	C265.301,203.654,256.687,218.547,242.965,218.547z"/>
<path style="fill:#80D0E1;" d="M134.028,80.865l-30.933,17.861l64.021,110.89c11.59,20.074,42.971,2.99,30.934-17.858
	L134.028,80.865z"/>
<path style="fill:#6A82A1;" d="M61.186,62.33l-1.981-43.637C58.55,4.236,74.503-4.943,86.669,2.838l36.797,23.535
	c11.262,7.202,10.894,23.822-0.693,30.511L87.958,76.987C76.421,83.648,61.796,75.751,61.186,62.33z"/>
<path style="fill:#FFDA79;" d="M367.672,218.547c-129.112,0-129.335,3.015-136.231-8.93c-7.066-12.239-6.022-7.428,78.572-153.948
	c4.926-8.533,15.858-11.471,24.399-6.535l90.57,52.293c8.539,4.93,11.469,15.857,6.538,24.399l-48.382,83.791
	C379.947,215.143,374.051,218.547,367.672,218.547z"/>
<path style="fill:#FFD155;" d="M424.981,101.427l-90.57-52.293c-8.542-4.935-19.473-1.997-24.399,6.535
	c-24.316,42.117-41.719,71.711-54.019,92.819v70.059h111.679c6.379,0,12.277-3.404,15.466-8.93l48.382-83.791
	C436.45,117.284,433.52,106.356,424.981,101.427z"/>
<path style="fill:#20B8AE;" d="M402.717,512h-293.45c-9.863,0-17.86-7.996-17.86-17.86v-68.558c0-9.863,7.996-17.86,17.86-17.86
	h293.45c9.863,0,17.86,7.996,17.86,17.86v68.558C420.577,504.003,412.58,512,402.717,512z"/>
<path style="fill:#1DA49C;" d="M402.717,407.722H255.993V512h146.724c9.863,0,17.86-7.996,17.86-17.86v-68.558
	C420.577,415.719,412.58,407.722,402.717,407.722z"/>
<path style="fill:#65C6BB;" d="M420.577,443.441H91.407V200.69c0-9.863,7.996-17.86,17.86-17.86h293.45
	c9.863,0,17.86,7.996,17.86,17.86L420.577,443.441L420.577,443.441z"/>
<g>
	<path style="fill:#20B8AE;" d="M420.577,200.69c0-9.863-7.996-17.86-17.86-17.86H255.993v260.611h164.584V200.69z"/>
	<circle style="fill:#20B8AE;" cx="208.148" cy="274.217" r="22.975"/>
	<circle style="fill:#20B8AE;" cx="303.84" cy="274.217" r="22.975"/>
	<circle style="fill:#20B8AE;" cx="208.148" cy="352.061" r="22.975"/>
	<circle style="fill:#20B8AE;" cx="303.84" cy="352.061" r="22.975"/>
</g>
<path style="fill:#FFDA79;" d="M60.694,51.483c0.789,17.401,2.825,62.249,3.665,80.734c0.611,13.463,15.283,21.291,26.77,14.657
	l90.577-52.294c11.577-6.683,11.965-23.303,0.693-30.511c-15.672-10.024-55.305-35.373-68.081-43.545L60.694,51.483z"/>
<path style="fill:#FF9392;" d="M407.122,132.364l-90.577-52.294c-8.542-4.932-11.469-15.853-6.537-24.396l11.872-20.564
	c19.341-33.5,62.33-45.019,95.832-25.679v0.001c33.58,19.388,45.067,62.25,25.677,95.832l-11.872,20.562
	C426.569,134.4,415.63,137.274,407.122,132.364z"/>
<g>
	<circle style="fill:#1DA49C;" cx="303.84" cy="274.217" r="22.975"/>
	<circle style="fill:#1DA49C;" cx="303.84" cy="352.061" r="22.975"/>
</g>
<g>
</g>
<g>
</g>
<g>
</g>
<g>
</g>
<g>
</g>
<g>
</g>
<g>
</g>
<g>
</g>
<g>
</g>
<g>
</g>
<g>
</g>
<g>
</g>
<g>
</g>
<g>
</g>
<g>
</g>
</svg>
