<?xml version="1.0" encoding="iso-8859-1"?>
<!-- Generator: Adobe Illustrator 19.0.0, SVG Export Plug-In . SVG Version: 6.00 Build 0)  -->
<svg version="1.1" id="Layer_1" xmlns="http://www.w3.org/2000/svg" xmlns:xlink="http://www.w3.org/1999/xlink" x="0px" y="0px"
	 viewBox="0 0 512 512" style="enable-background:new 0 0 512 512;" xml:space="preserve">
<path style="fill:#2C3E50;" d="M343.893,261.44c-9.426,0-17.067-7.642-17.067-17.067V105.321h-39.113
	c-9.426,0-17.067-7.642-17.067-17.067s7.642-17.067,17.067-17.067h56.181c9.426,0,17.067,7.642,17.067,17.067v156.119
	C360.961,253.8,353.32,261.44,343.893,261.44z"/>
<path style="fill:#E6E7E8;" d="M212.757,502.802c-45.193-87.194-50.873-92.968-50.873-117.66V244.373
	c0-9.426,7.642-17.067,17.067-17.067h97.917c9.426,0,17.067,7.642,17.067,17.067v140.768c0,24.851-6.484,32.023-50.873,117.66
	C236.698,515.079,219.107,515.053,212.757,502.802z"/>
<path style="fill:#D1D3D4;" d="M276.867,227.306H227.91v284.693c5.986,0.001,11.972-3.061,15.152-9.198
	c44.388-85.637,50.873-92.809,50.873-117.66V244.373C293.935,234.948,286.293,227.306,276.867,227.306z"/>
<path style="fill:#6A82A1;" d="M174.047,428.236h107.738c7.69-15.681,10.763-24.376,11.751-34.134H162.258
	C163.193,403.752,166.165,412.212,174.047,428.236z"/>
<path style="fill:#36495E;" d="M276.867,105.321h-97.917c-10.617,0-18.653-9.603-16.807-20.04l12.596-71.187
	C176.184,5.942,183.269,0,191.547,0h72.725c8.279,0,15.364,5.942,16.805,14.094l12.596,71.187
	C295.524,95.737,287.467,105.321,276.867,105.321z"/>
<path style="fill:#2C3E50;" d="M293.674,85.281l-12.596-71.187C279.636,5.942,272.55,0,264.272,0h-36.363v105.321h48.958
	C287.467,105.321,295.524,95.737,293.674,85.281z"/>
<path style="fill:#6A82A1;" d="M287.713,261.44H168.106c-9.426,0-17.067-7.642-17.067-17.067V88.254
	c0-9.426,7.642-17.067,17.067-17.067h119.607c9.426,0,17.067,7.642,17.067,17.067v156.119
	C304.78,253.8,297.139,261.44,287.713,261.44z"/>
<g>
	<path style="fill:#36495E;" d="M287.713,71.187H227.91V261.44h59.803c9.426,0,17.067-7.642,17.067-17.067V88.254
		C304.78,78.829,297.139,71.187,287.713,71.187z"/>
	<path style="fill:#36495E;" d="M293.536,394.101H227.91v34.134h53.875C289.475,412.554,292.546,403.859,293.536,394.101z"/>
</g>
<g>
</g>
<g>
</g>
<g>
</g>
<g>
</g>
<g>
</g>
<g>
</g>
<g>
</g>
<g>
</g>
<g>
</g>
<g>
</g>
<g>
</g>
<g>
</g>
<g>
</g>
<g>
</g>
<g>
</g>
</svg>
