<?xml version="1.0" encoding="iso-8859-1"?>
<!-- Generator: Adobe Illustrator 19.0.0, SVG Export Plug-In . SVG Version: 6.00 Build 0)  -->
<svg version="1.1" id="Layer_1" xmlns="http://www.w3.org/2000/svg" xmlns:xlink="http://www.w3.org/1999/xlink" x="0px" y="0px"
	 viewBox="0 0 512.001 512.001" style="enable-background:new 0 0 512.001 512.001;" xml:space="preserve">
<path style="fill:#6A82A1;" d="M240.845,502.79l-18.818-36.306c-5.879-11.343,2.368-24.92,15.152-24.92h37.638
	c12.776,0,21.036,13.57,15.152,24.921l-18.82,36.306C264.795,515.049,247.22,515.091,240.845,502.79z"/>
<path style="fill:#36495E;" d="M274.818,441.564h-18.817v70.437c5.986-0.003,11.971-3.079,15.147-9.209l18.82-36.306
	C295.854,455.135,287.593,441.564,274.818,441.564z"/>
<path style="fill:#FFDA79;" d="M304.958,383.418h-97.914c-12.776,0-21.035,13.569-15.153,24.92l30.137,58.145l4.775,9.214
	c29.743,0,28.728,0,58.391,0l4.77-9.2c0.002-0.005,0.005-0.008,0.007-0.012l30.141-58.147
	C325.99,396.996,317.744,383.418,304.958,383.418z"/>
<path style="fill:#FFD155;" d="M304.958,383.418h-48.957v92.279c7.182,0,14.343,0,29.192,0l4.77-9.2
	c0.002-0.005,0.005-0.008,0.007-0.012l30.141-58.147C325.99,396.996,317.744,383.418,304.958,383.418z"/>
<path style="fill:#FFAFAE;" d="M304.958,105.319h-97.914c-9.425,0-17.067-7.641-17.067-17.067V66.023
	C189.978,29.618,219.596,0,256.001,0s66.023,29.618,66.023,66.023v22.229C322.025,97.678,314.384,105.319,304.958,105.319z"/>
<path style="fill:#FF9392;" d="M256.001,0v105.319h48.957c9.425,0,17.067-7.641,17.067-17.067V66.023
	C322.025,29.618,292.407,0,256.001,0z"/>
<path style="fill:#65C6BB;" d="M322.025,71.186H189.978c0,349.107-0.063,329.478,0.084,330.969c0.052,0.535,0.2,1.446,0.3,1.918
	c0.357,1.659,0.917,3.083,1.675,4.547l0,0l4.629,8.932h10.378c11.799,0,96.523,0,108.291,0l4.63-8.932l0,0l0.146-0.28
	c0.345-0.664,0.493-1.037,0.687-1.522c0.76-1.9,1.199-3.941,1.22-6.174C322.029,399.306,322.025,72.751,322.025,71.186z"/>
<g>
	<path style="fill:#20B8AE;" d="M322.025,71.186h-66.023v346.366c25.762,0,53.026,0,59.334,0l4.63-8.932l0,0l0.146-0.28
		c0.345-0.664,0.493-1.037,0.687-1.522c0.76-1.9,1.199-3.941,1.22-6.174C322.029,399.306,322.025,72.751,322.025,71.186z"/>
	<rect x="238.936" y="71.18" style="fill:#20B8AE;" width="34.134" height="346.365"/>
</g>
<rect x="256.002" y="71.18" style="fill:#1DA49C;" width="17.063" height="346.365"/>
<g>
</g>
<g>
</g>
<g>
</g>
<g>
</g>
<g>
</g>
<g>
</g>
<g>
</g>
<g>
</g>
<g>
</g>
<g>
</g>
<g>
</g>
<g>
</g>
<g>
</g>
<g>
</g>
<g>
</g>
</svg>
