<?xml version="1.0" encoding="iso-8859-1"?>
<!-- Generator: Adobe Illustrator 19.0.0, SVG Export Plug-In . SVG Version: 6.00 Build 0)  -->
<svg version="1.1" id="Layer_1" xmlns="http://www.w3.org/2000/svg" xmlns:xlink="http://www.w3.org/1999/xlink" x="0px" y="0px"
	 viewBox="0 0 512 512" style="enable-background:new 0 0 512 512;" xml:space="preserve">
<polygon style="fill:#F2484B;" points="142.445,47.468 428.915,333.951 424.957,361.647 452.653,357.689 512,417.04 464.52,464.52 
	79.129,94.956 "/>
<polygon style="fill:#BD1515;" points="87.042,87.042 464.52,464.52 417.04,512 357.69,452.654 361.647,424.957 333.951,428.915 
	47.468,142.445 "/>
<rect x="376.519" y="326.155" transform="matrix(-0.7071 -0.7071 0.7071 -0.7071 393.3084 949.5167)" style="fill:#FFFFFF;" width="33.573" height="134.294"/>
<polygon style="fill:#F2484B;" points="23.737,71.221 0,0 71.221,23.737 63.306,63.306 "/>
<polygon style="fill:#F2EBD9;" points="142.442,47.473 71.221,23.737 23.737,71.221 47.473,142.442 "/>
<polygon style="fill:#55A7A2;" points="464.533,142.445 178.051,428.914 150.353,424.957 154.311,452.654 94.961,512 47.48,464.52 
	417.044,79.129 "/>
<polygon style="fill:#98D9D5;" points="424.958,87.042 47.48,464.52 0,417.04 59.346,357.69 87.043,361.647 83.087,333.949 
	369.557,47.468 "/>
<rect x="51.55" y="376.511" transform="matrix(-0.7071 -0.7071 0.7071 -0.7071 -75.4761 755.3328)" style="fill:#FFFFFF;" width="134.294" height="33.573"/>
<polygon style="fill:#98D9D5;" points="440.779,23.737 512,0 488.263,71.221 448.694,63.306 "/>
<polygon style="fill:#F2EBD9;" points="464.527,142.442 488.263,71.221 440.779,23.737 369.558,47.473 "/>
<g>
</g>
<g>
</g>
<g>
</g>
<g>
</g>
<g>
</g>
<g>
</g>
<g>
</g>
<g>
</g>
<g>
</g>
<g>
</g>
<g>
</g>
<g>
</g>
<g>
</g>
<g>
</g>
<g>
</g>
</svg>
