<?xml version="1.0" encoding="iso-8859-1"?>
<!-- Generator: Adobe Illustrator 19.0.0, SVG Export Plug-In . SVG Version: 6.00 Build 0)  -->
<svg version="1.1" id="Layer_1" xmlns="http://www.w3.org/2000/svg" xmlns:xlink="http://www.w3.org/1999/xlink" x="0px" y="0px"
	 viewBox="0 0 512 512" style="enable-background:new 0 0 512 512;" xml:space="preserve">
<circle style="fill:#CCCCCC;" cx="256" cy="23.845" r="23.845"/>
<path style="fill:#B3B3B3;" d="M252.739,23.845c0-9.478,5.543-17.641,13.553-21.485C263.173,0.863,259.692,0,256,0
	c-13.17,0-23.845,10.675-23.845,23.845S242.83,47.69,256,47.69c3.692,0,7.173-0.863,10.293-2.361
	C258.283,41.486,252.739,33.323,252.739,23.845z"/>
<polygon style="fill:#CCCCCC;" points="356.823,454.71 366.226,512 145.762,512 155.177,454.71 262.726,428.114 "/>
<g>
	<path style="fill:#E6E6E6;" d="M356.969,329.688c-17.107-12.742-28.688-31.292-32.295-51.897l-46.663-17.205l-90.685,17.205
		c-3.62,20.605-15.188,39.155-32.295,51.897c-22.121,16.484-35.633,38.385-35.633,62.45c0,24.114,13.549,46.076,35.78,62.572
		h201.645c22.231-16.496,35.78-38.458,35.78-62.572C392.603,368.073,379.09,346.172,356.969,329.688z"/>
	<path style="fill:#E6E6E6;" d="M182.789,184.061c-16.044,11.947-25.838,27.832-25.838,45.281L276.788,245.3l78.261-15.958
		c0-17.45-9.795-33.334-25.838-45.281c-6.982-5.185-12.669-11.727-16.802-19.113c25.765-12.143,42.64-32.356,42.64-55.26
		c0-37.15-44.352-67.256-99.049-67.256c-54.71,0-99.049,30.106-99.049,67.256c0,22.904,16.875,43.117,42.628,55.26
		C195.458,172.334,189.759,178.876,182.789,184.061z"/>
</g>
<path style="fill:#CCCCCC;" d="M156.951,229.342h198.099c0,19.039-11.666,36.208-30.375,48.449H187.326
	C168.604,265.55,156.951,248.382,156.951,229.342z"/>
<polygon style="fill:#B3B3B3;" points="210.608,454.71 201.193,512 145.762,512 155.177,454.71 178.35,446.456 "/>
<g>
	<path style="fill:#CCCCCC;" d="M174.828,392.138c0,24.114,13.549,46.076,35.78,62.572h-55.431
		c-22.231-16.496-35.78-38.458-35.78-62.572c0-24.065,13.512-45.966,35.633-62.45c17.107-12.742,28.675-31.292,32.295-51.897
		l16.704-6.811l38.727,6.811c-3.62,20.605-15.188,39.155-32.295,51.897C188.341,346.172,174.828,368.073,174.828,392.138z"/>
	<path style="fill:#CCCCCC;" d="M212.382,109.688c0-30.62,30.118-56.446,71.328-64.578c-8.792-1.749-18.086-2.678-27.709-2.678
		c-54.71,0-99.049,30.106-99.049,67.256c0,22.904,16.875,43.117,42.628,55.26c-4.121,7.386-9.819,13.928-16.789,19.113
		c-16.044,11.947-25.838,27.832-25.838,45.281l33.016,12.901l22.415-12.901c0-17.45,9.795-33.334,25.838-45.281
		c6.97-5.185,12.669-11.727,16.789-19.113C229.257,152.805,212.382,132.592,212.382,109.688z"/>
</g>
<path style="fill:#B3B3B3;" d="M242.757,277.791h-55.431c-18.722-12.241-30.375-29.409-30.375-48.449h55.431
	C212.382,248.382,224.035,265.55,242.757,277.791z"/>
<g>
</g>
<g>
</g>
<g>
</g>
<g>
</g>
<g>
</g>
<g>
</g>
<g>
</g>
<g>
</g>
<g>
</g>
<g>
</g>
<g>
</g>
<g>
</g>
<g>
</g>
<g>
</g>
<g>
</g>
</svg>
