<?xml version="1.0" encoding="iso-8859-1"?>
<!-- Generator: Adobe Illustrator 19.0.0, SVG Export Plug-In . SVG Version: 6.00 Build 0)  -->
<svg version="1.1" id="Layer_1" xmlns="http://www.w3.org/2000/svg" xmlns:xlink="http://www.w3.org/1999/xlink" x="0px" y="0px"
	 viewBox="0 0 512 512" style="enable-background:new 0 0 512 512;" xml:space="preserve">
<path style="fill:#C9D5E3;" d="M480,120H376l-24.88-49.68C346.352,61.928,337.64,56.536,328,56H184
	c-9.64,0.536-18.352,5.928-23.12,14.32L136,120H32c-17.672,0-32,14.328-32,32v272c0,17.672,14.328,32,32,32h448
	c17.672,0,32-14.328,32-32V152C512,134.328,497.672,120,480,120z"/>
<circle style="fill:#F15642;" cx="48" cy="176" r="16"/>
<path style="fill:#ECF0F9;" d="M192,72h128c4.416,0,8,3.584,8,8v16c0,4.416-3.584,8-8,8H192c-4.416,0-8-3.584-8-8V80
	C184,75.584,187.584,72,192,72z"/>
<rect y="232" style="fill:#DE333F;" width="512" height="112"/>
<circle style="fill:#E2E7F0;" cx="256" cy="288" r="120"/>
<path style="fill:#123247;" d="M186.16,353.76c34.488,40.272,95.088,44.96,135.36,10.472s44.96-95.088,10.472-135.36
	c-1.776-2.072-3.64-4.072-5.592-5.992L186.16,353.76z"/>
<path style="fill:#35495C;" d="M326.4,222.88c-34.488-40.272-95.088-44.96-135.36-10.472s-44.96,95.088-10.472,135.36
	c1.776,2.072,3.64,4.072,5.592,5.992L326.4,222.88z"/>
<path style="fill:#3C5366;" d="M216.48,288.56c0.04-22.088,17.984-39.968,40.072-39.928c10.92,0.016,21.352,4.504,28.888,12.408
	l23.44-21.84c-28.28-27.96-73.864-27.704-101.824,0.576c-26.384,26.68-27.848,69.144-3.376,97.584l23.44-21.84
	C220.328,308.176,216.528,298.56,216.48,288.56z"/>
<path style="fill:#35495C;" d="M296,288c-0.04,22.088-17.984,39.968-40.072,39.928c-10.92-0.016-21.352-4.504-28.888-12.408
	l-23.44,21.84c27.936,28.304,73.52,28.6,101.824,0.672c27.168-26.816,28.688-70.176,3.456-98.832l-23.44,21.84
	C292.2,268.392,295.968,278.008,296,288z"/>
<path style="fill:#D5E3EF;" d="M464,136H48c-8.84,0-16-7.16-16-16h448C480,128.84,472.84,136,464,136z"/>
<path style="fill:#B0C4D9;" d="M496,168v256c0,8.84-7.16,16-16,16H48c-8.84,0-16,7.16-16,16h448c17.672,0,32-14.328,32-32V152l0,0
	C503.16,152,496,159.16,496,168z"/>
<rect x="496" y="232" style="fill:#C61C31;" width="16" height="112"/>
<g>
</g>
<g>
</g>
<g>
</g>
<g>
</g>
<g>
</g>
<g>
</g>
<g>
</g>
<g>
</g>
<g>
</g>
<g>
</g>
<g>
</g>
<g>
</g>
<g>
</g>
<g>
</g>
<g>
</g>
</svg>
