<?xml version="1.0" encoding="iso-8859-1"?>
<!-- Generator: Adobe Illustrator 19.0.0, SVG Export Plug-In . SVG Version: 6.00 Build 0)  -->
<svg version="1.1" id="Layer_1" xmlns="http://www.w3.org/2000/svg" xmlns:xlink="http://www.w3.org/1999/xlink" x="0px" y="0px"
	 viewBox="0 0 512 512" style="enable-background:new 0 0 512 512;" xml:space="preserve">
<rect x="406.588" y="45.176" style="fill:#AEADB3;" width="45.176" height="82.824"/>
<polygon style="fill:#DFDFE1;" points="331.294,105.412 331.294,45.176 180.706,45.176 180.706,105.412 0,105.412 0,466.824 
	512,466.824 512,105.412 "/>
<polygon style="fill:#CFCDD2;" points="331.294,105.412 331.294,45.176 256,45.176 256,466.824 512,466.824 512,105.412 "/>
<rect y="165.647" style="fill:#88888F;" width="512" height="301.176"/>
<rect x="256" y="165.647" style="fill:#56545A;" width="256" height="301.176"/>
<circle style="fill:#B4D8F1;" cx="256" cy="316.235" r="90.353"/>
<path style="fill:#FF4F19;" d="M82.824,263.529c-16.607,0-30.118-13.511-30.118-30.118s13.511-30.118,30.118-30.118
	s30.118,13.511,30.118,30.118S99.43,263.529,82.824,263.529z"/>
<path style="fill:#98C8ED;" d="M319.889,252.347L192.11,380.125c35.284,35.284,92.493,35.286,127.779,0
	C355.174,344.84,355.174,287.631,319.889,252.347z"/>
<g>
</g>
<g>
</g>
<g>
</g>
<g>
</g>
<g>
</g>
<g>
</g>
<g>
</g>
<g>
</g>
<g>
</g>
<g>
</g>
<g>
</g>
<g>
</g>
<g>
</g>
<g>
</g>
<g>
</g>
</svg>
