<?xml version="1.0" encoding="iso-8859-1"?>
<!-- Generator: Adobe Illustrator 19.0.0, SVG Export Plug-In . SVG Version: 6.00 Build 0)  -->
<svg version="1.1" id="Layer_1" xmlns="http://www.w3.org/2000/svg" xmlns:xlink="http://www.w3.org/1999/xlink" x="0px" y="0px"
	 viewBox="0 0 512 512" style="enable-background:new 0 0 512 512;" xml:space="preserve">
<path style="fill:#FFB655;" d="M505.18,262.813c-9.09-9.086-23.827-9.081-32.912,0.008c-3.452,3.454-6.367,6.313-9.123,8.637
	c-9.492-63.514-47.605-117.789-100.752-149.262c-1.001-0.698-2.062-1.308-3.168-1.845C328.74,103.011,293.508,93.094,256,93.094
	s-72.74,9.917-103.224,27.257c-1.106,0.537-2.167,1.147-3.168,1.845C96.464,153.667,58.353,207.94,48.858,271.45
	c-2.757-2.324-5.672-5.185-9.126-8.637c-9.089-9.09-23.825-9.092-32.914-0.005c-9.089,9.087-9.09,23.822-0.005,32.912
	c10.322,10.324,23.747,23.751,46.091,28.413c5.104,1.064,10.674,1.671,16.778,1.68c0.048,0,0.093,0.002,0.14,0.002
	c0.003,0,0.005,0,0.008,0c0.04,0,0.078-0.002,0.118-0.002c2.845-0.005,5.57-0.143,8.189-0.393
	c22.429-2.136,36.861-12.753,47.695-22.874c0.002,0,0.002-0.002,0.002-0.002c2.499-2.337,4.816-4.647,6.986-6.819
	c11.376-11.376,16.977-16.423,29.971-16.455h0.239c12.992,0.033,18.593,5.078,29.968,16.454c2.171,2.172,4.487,4.482,6.986,6.819
	c0.002,0,0.003,0.002,0.003,0.002c12.119,11.321,28.728,23.268,56.004,23.268c0.006,0,0.006,0,0.009,0c0.003,0,0.008,0,0.011,0
	c27.274,0,43.883-11.948,56.004-23.268c0.002-0.002,0.003-0.003,0.005-0.005c2.499-2.335,4.813-4.644,6.983-6.816
	c11.41-11.413,17.008-16.458,30.092-16.458c0.002,0,0.002,0,0.002,0s0,0,0.002,0c13.081,0,18.676,5.046,30.089,16.457
	c2.171,2.171,4.484,4.481,6.983,6.816c0.002,0.003,0.003,0.005,0.006,0.006c10.833,10.121,25.263,20.736,47.689,22.874
	c2.619,0.25,5.343,0.388,8.189,0.393c0.042,0,0.081,0.002,0.121,0.002c0.009,0,0.009,0,0.019,0c0.04,0,0.079-0.002,0.121-0.002
	c6.105-0.008,11.675-0.614,16.78-1.677c22.35-4.659,35.776-18.088,46.095-28.413C514.275,286.635,514.27,271.899,505.18,262.813z
	 M442.187,279.271c0,0-0.008,0-0.009,0c-0.022,0-0.039-0.002-0.061-0.002h0.065c0.006,0,0.012,0.002,0.019,0.002
	C442.196,279.271,442.191,279.271,442.187,279.271z"/>
<g>
	<path style="fill:#806749;" d="M139.637,141.278v15.94v5.689c0,7.159,3.238,13.557,8.324,17.825
		c4.043,3.396,9.255,5.447,14.949,5.447c12.853,0,23.273-10.42,23.273-23.273v-7.529v-14.1c0-3.727-0.898-7.236-2.456-10.361
		c-3.814-7.647-11.691-12.912-20.817-12.912c-3.637,0-7.067,0.858-10.133,2.346c-1.106,0.537-2.167,1.147-3.168,1.845
		C143.585,126.404,139.637,133.375,139.637,141.278z"/>
	<path style="fill:#806749;" d="M328.275,130.919c-1.558,3.123-2.456,6.633-2.456,10.359v14.1v7.529
		c0,12.853,10.42,23.273,23.273,23.273c5.694,0,10.904-2.051,14.949-5.447c5.086-4.268,8.324-10.667,8.324-17.825v-5.689v-15.94
		c0-7.903-3.949-14.874-9.972-19.082c-1.001-0.698-2.062-1.308-3.168-1.845c-3.067-1.488-6.498-2.346-10.133-2.346
		C339.965,118.005,332.088,123.271,328.275,130.919z"/>
	<path style="fill:#806749;" d="M256,93.094c-12.853,0-23.273,10.42-23.273,23.273v1.446v23.496v21.599
		c0,12.853,10.42,23.273,23.273,23.273c12.853,0,23.273-10.42,23.273-23.273v-21.599v-23.496v-1.446
		C279.273,103.514,268.853,93.094,256,93.094z"/>
</g>
<path style="fill:#A9A8AE;" d="M442.187,279.271c0.005,0,0.009,0,0.014,0c-0.006,0-0.012-0.002-0.019-0.002h-0.065
	c0.022,0,0.039,0.002,0.061,0.002C442.179,279.27,442.187,279.27,442.187,279.271z"/>
<path style="fill:#EE8700;" d="M52.905,324.135c5.104,1.064,10.674,1.671,16.777,1.68c0.048,0,0.093,0.002,0.14,0.002
	c0.003,0,0.005,0,0.008,0c0.04,0,0.078-0.002,0.118-0.002c2.845-0.005,5.57-0.143,8.189-0.393
	c22.429-2.136,36.861-12.753,47.695-22.874c0.002,0,0.002-0.002,0.002-0.002c2.499-2.337,4.816-4.647,6.986-6.819
	c11.376-11.376,16.977-16.423,29.971-16.455h0.239c12.992,0.033,18.593,5.078,29.968,16.454c2.171,2.172,4.487,4.482,6.986,6.819
	c0.002,0.002,0.003,0.002,0.003,0.002c12.119,11.321,28.728,23.268,56.004,23.268c0.006,0,0.006,0,0.009,0V186.179
	c-12.853,0-23.273-10.42-23.273-23.273v-21.597v-23.496v-1.446c0-12.853,10.42-23.273,23.273-23.273
	c-37.508,0-72.74,9.919-103.224,27.257c3.067-1.488,6.498-2.346,10.133-2.346c9.126,0,17.003,5.266,20.817,12.912
	c1.558,3.123,2.456,6.633,2.456,10.361v14.1v7.529c0,12.853-10.42,23.273-23.273,23.273c-5.694,0-10.904-2.051-14.949-5.447
	c-5.084-4.268-8.322-10.667-8.322-17.825v-5.689v-15.94c0-7.903,3.949-14.874,9.972-19.082
	C96.464,153.667,58.353,207.94,48.858,271.45c-2.757-2.324-5.672-5.185-9.126-8.637c-9.089-9.09-23.825-9.092-32.914-0.005
	c-9.089,9.087-9.09,23.822-0.005,32.912C17.137,306.046,30.561,319.471,52.905,324.135z"/>
<path style="fill:#DEDEE0;" d="M442.313,325.815c-0.042,0-0.081,0.002-0.121,0.002c-0.009,0-0.009,0-0.019,0
	c-0.04,0-0.079-0.002-0.121-0.002c-2.845-0.005-5.57-0.143-8.189-0.393c-22.426-2.136-36.856-12.752-47.689-22.874
	c-0.003-0.002-0.005-0.003-0.006-0.006c-2.499-2.335-4.813-4.644-6.983-6.816c-11.411-11.411-17.008-16.457-30.089-16.457
	c-0.002,0-0.002,0-0.002,0s0,0-0.002,0c-13.084,0-18.68,5.046-30.092,16.458c-2.171,2.171-4.484,4.479-6.983,6.816
	c-0.002,0-0.003,0.002-0.005,0.005c-12.119,11.32-28.729,23.267-56.004,23.268c-0.003,0-0.008,0-0.011,0s-0.003,0-0.009,0
	c-0.964,0-1.885-0.048-2.822-0.078c-25.592-0.799-41.491-12.271-53.18-23.191c0,0-0.002-0.002-0.003-0.003
	c-2.499-2.335-4.814-4.647-6.986-6.819c-11.374-11.376-16.975-16.421-29.968-16.454h-0.239
	c-12.994,0.033-18.595,5.078-29.971,16.455c-2.171,2.172-4.487,4.482-6.986,6.819c0,0,0,0.002-0.002,0.002
	c-10.834,10.121-25.266,20.738-47.695,22.874c-2.619,0.25-5.343,0.388-8.189,0.393c-0.04,0-0.078,0.002-0.118,0.002
	c-0.003,0-0.005,0-0.008,0c-0.047,0-0.092-0.002-0.14-0.002c-6.104-0.009-11.672-0.614-16.778-1.68l28.894,79.453
	c3.344,9.197,12.085,15.318,21.872,15.318h149.498h155.162c9.787,0,18.527-6.122,21.872-15.32l28.891-79.448
	C453.988,325.201,448.418,325.807,442.313,325.815z"/>
<path style="fill:#D6D5D8;" d="M199.988,302.549c0,0-0.002-0.002-0.003-0.003c-2.499-2.335-4.814-4.647-6.986-6.819
	c-11.374-11.376-16.975-16.421-29.968-16.454h-0.239c-12.994,0.033-18.595,5.078-29.971,16.455
	c-2.171,2.172-4.487,4.482-6.986,6.819c0,0,0,0.002-0.002,0.002c-10.834,10.121-25.266,20.738-47.695,22.874
	c-2.619,0.25-5.343,0.388-8.189,0.393c-0.04,0-0.078,0.002-0.118,0.002c-0.003,0-0.005,0-0.008,0c-0.047,0-0.092-0.002-0.14-0.002
	c-6.104-0.009-11.672-0.614-16.778-1.68l28.894,79.453c3.344,9.197,12.085,15.318,21.872,15.318h149.498v-93.167
	C227.577,324.94,211.678,313.468,199.988,302.549z"/>
<g>
</g>
<g>
</g>
<g>
</g>
<g>
</g>
<g>
</g>
<g>
</g>
<g>
</g>
<g>
</g>
<g>
</g>
<g>
</g>
<g>
</g>
<g>
</g>
<g>
</g>
<g>
</g>
<g>
</g>
</svg>
