<?xml version="1.0" encoding="iso-8859-1"?>
<!-- Generator: Adobe Illustrator 19.0.0, SVG Export Plug-In . SVG Version: 6.00 Build 0)  -->
<svg version="1.1" id="Layer_1" xmlns="http://www.w3.org/2000/svg" xmlns:xlink="http://www.w3.org/1999/xlink" x="0px" y="0px"
	 viewBox="0 0 512.001 512.001" style="enable-background:new 0 0 512.001 512.001;" xml:space="preserve">
<path style="fill:#9AD14B;" d="M207.543,124.336l-38.913-14.018l33.166,80.979c10.505-5.782,22.033-9.935,34.236-12.122
	c6.48-1.163,13.146-1.768,19.963-1.768c19.648,0,38.122,5.037,54.199,13.89l33.178-80.979l-38.913,14.03l23.08-89.866
	l-46.265,26.593L256.704,0l-12.913,32.224l-11.843,29.537l-47.475-27.28L207.543,124.336"/>
<path style="fill:#F7B239;" d="M368.581,289.981v109.445c0,1.035-0.012,2.059-0.047,3.094c-0.372,13.82-3.234,27.012-8.155,39.157
	c-1.396,3.455-2.966,6.829-4.7,10.109c-7.445,14.169-17.834,26.547-30.351,36.33c-2.78,2.187-5.665,4.234-8.655,6.154
	c-14.553,9.33-31.386,15.391-49.488,17.171c-3.688,0.372-7.41,0.558-11.191,0.558c-3.769,0-7.503-0.186-11.18-0.558
	c-18.101-1.78-34.934-7.841-49.488-17.171c-2.978-1.908-5.875-3.955-8.655-6.154c-12.517-9.772-22.906-22.161-30.351-36.33
	c-1.733-3.281-3.304-6.654-4.7-10.109c-4.921-12.145-7.783-25.337-8.155-39.146c-0.035-1.035-0.047-2.071-0.047-3.106V289.981
	c0-1.035,0.012-2.071,0.047-3.106c0.372-13.82,3.234-27.012,8.155-39.146c1.396-3.455,2.966-6.829,4.7-10.109
	c7.445-14.158,17.834-26.535,30.339-36.33c2.792-2.175,5.677-4.234,8.667-6.142c2.106-1.349,4.269-2.641,6.468-3.851
	c12.983-7.154,27.536-11.808,43.008-13.343c3.676-0.361,7.41-0.547,11.191-0.547s7.515,0.186,11.203,0.547
	c15.461,1.536,30.014,6.189,42.996,13.343c2.199,1.21,4.362,2.49,6.468,3.851c3.001,1.908,5.898,3.967,8.678,6.142
	c3.606,2.827,7.026,5.863,10.26,9.097c7.98,7.98,14.774,17.159,20.079,27.233c1.733,3.281,3.304,6.654,4.688,10.121
	c4.932,12.133,7.794,25.325,8.167,39.146C368.569,287.921,368.581,288.945,368.581,289.981z"/>
<path style="fill:#E09B2D;" d="M202.75,399.426V289.981c0-42.519,23.58-79.536,58.375-98.684c7.674-4.226,15.9-7.571,24.534-9.924
	c-9.453-2.578-19.396-3.965-29.665-3.965c-19.648,0-38.122,5.037-54.199,13.89c-34.795,19.148-58.375,56.165-58.375,98.684v109.445
	c0,62.179,50.407,112.574,112.574,112.574c10.27,0,20.214-1.382,29.667-3.958C237.884,495.025,202.75,451.336,202.75,399.426z"/>
<g>
	<polygon style="fill:#90BC42;" points="255.82,94.182 233.182,133.572 207.543,124.336 184.474,34.481 231.949,61.761 
		243.792,32.224 256.704,0 	"/>
	<path style="fill:#90BC42;" d="M236.032,179.174c-12.203,2.187-23.732,6.34-34.236,12.122l-33.166-80.979l38.913,14.018
		l16.112,5.805L236.032,179.174z"/>
</g>
<path style="fill:#B27214;" d="M368.581,301.73v-11.75c0-1.035-0.012-2.059-0.047-3.094l-23.65-23.662l15.484-15.484
	c-1.384-3.467-2.955-6.84-4.688-10.121l-18.206,18.206l-33.329-33.341l21.196-21.196c-2.78-2.175-5.677-4.234-8.678-6.142
	l-19.928,19.939l-33.329-33.341l3.792-3.792c-3.688-0.361-7.422-0.547-11.203-0.547s-7.515,0.186-11.191,0.547l3.792,3.792
	l-33.341,33.341l-19.928-19.939c-2.99,1.908-5.875,3.967-8.667,6.142l21.196,21.196l-33.341,33.341l-18.194-18.206
	c-1.733,3.281-3.304,6.654-4.7,10.109l15.495,15.495l-23.65,23.65c-0.035,1.035-0.047,2.071-0.047,3.106v11.75l31.096-31.107
	l33.341,33.341l-33.329,33.341l-31.107-31.107v14.809l23.697,23.697l-23.697,23.708v14.809l31.107-31.107l33.329,33.329
	l-33.341,33.341l-31.096-31.107v11.75c0,1.035,0.012,2.071,0.047,3.106l23.65,23.65l-15.495,15.495
	c1.396,3.455,2.966,6.829,4.7,10.109l18.194-18.206l33.352,33.341l-21.196,21.196c2.78,2.199,5.677,4.246,8.655,6.154l19.939-19.939
	l33.329,33.329l-3.781,3.781c3.676,0.372,7.41,0.558,11.18,0.558c3.781,0,7.503-0.186,11.191-0.558l-3.781-3.781l33.329-33.329
	l19.939,19.939c2.99-1.919,5.875-3.967,8.655-6.154l-21.196-21.196l33.341-33.341l18.206,18.206c1.733-3.281,3.304-6.654,4.7-10.109
	l-15.495-15.495l23.65-23.662c0.035-1.035,0.047-2.059,0.047-3.094v-11.75l-31.107,31.107l-33.329-33.341l33.341-33.329
	l31.096,31.096v-14.797l-23.697-23.708l23.697-23.697v-14.797l-31.096,31.096l-33.341-33.341l33.329-33.341L368.581,301.73z
	 M255.995,189.144l33.341,33.341l-33.341,33.341l-33.329-33.341L255.995,189.144z M222.666,303.964l33.341-33.329l33.329,33.329
	l-33.341,33.341L222.666,303.964z M289.347,385.443l-33.341,33.341l-33.341-33.341l33.329-33.341L289.347,385.443z M181.926,263.224
	l33.329-33.341l33.341,33.341l-33.329,33.341L181.926,263.224z M181.926,344.703l33.341-33.329l33.329,33.329l-33.341,33.341
	L181.926,344.703z M181.926,426.182l33.329-33.329l33.341,33.341l-33.329,33.329L181.926,426.182z M255.995,500.262l-33.329-33.341
	l33.341-33.329l33.329,33.329L255.995,500.262z M330.075,426.182l-33.341,33.341l-33.329-33.329l33.341-33.341L330.075,426.182z
	 M330.075,344.703l-33.329,33.341l-33.341-33.341l33.329-33.341L330.075,344.703z M296.734,296.565l-33.329-33.341l33.329-33.341
	l33.341,33.341L296.734,296.565z"/>
<g>
</g>
<g>
</g>
<g>
</g>
<g>
</g>
<g>
</g>
<g>
</g>
<g>
</g>
<g>
</g>
<g>
</g>
<g>
</g>
<g>
</g>
<g>
</g>
<g>
</g>
<g>
</g>
<g>
</g>
</svg>
