<?xml version="1.0" encoding="iso-8859-1"?>
<!-- Generator: Adobe Illustrator 19.0.0, SVG Export Plug-In . SVG Version: 6.00 Build 0)  -->
<svg version="1.1" id="Layer_1" xmlns="http://www.w3.org/2000/svg" xmlns:xlink="http://www.w3.org/1999/xlink" x="0px" y="0px"
	 viewBox="0 0 512.001 512.001" style="enable-background:new 0 0 512.001 512.001;" xml:space="preserve">
<path style="fill:#FFC477;" d="M376.575,164.195c-19.697-24.623-43.575-42.398-69.766-52.396l-20.578,16.463l-16.521,13.217
	c-0.019,0.015-0.038,0.028-0.057,0.042c-0.202,0.159-0.413,0.301-0.619,0.453c-0.083,0.06-0.164,0.121-0.246,0.18
	c-0.197,0.14-0.383,0.293-0.584,0.427c-0.127,0.086-0.26,0.159-0.391,0.243c-0.24,0.154-0.486,0.3-0.731,0.445
	c-0.195,0.114-0.383,0.24-0.579,0.347c-0.132,0.072-0.272,0.132-0.405,0.2c-0.114,0.06-0.228,0.113-0.342,0.17
	c-0.203,0.099-0.399,0.206-0.606,0.3c-0.152,0.07-0.303,0.142-0.458,0.208c-0.212,0.092-0.429,0.168-0.644,0.253
	c-0.142,0.057-0.287,0.105-0.432,0.158c-0.247,0.091-0.492,0.189-0.742,0.272c-0.026,0.007-0.048,0.019-0.075,0.028
	c-0.24,0.078-0.481,0.146-0.723,0.215c-0.372,0.107-0.743,0.208-1.116,0.294c-0.104,0.023-0.206,0.05-0.31,0.072
	c-0.186,0.041-0.374,0.075-0.563,0.11c-0.455,0.086-0.908,0.154-1.366,0.211c-0.127,0.016-0.253,0.042-0.38,0.057
	c-0.089,0.009-0.18,0.015-0.271,0.023c-0.682,0.063-1.365,0.104-2.047,0.105c-0.003,0-0.006,0-0.009,0c-0.004,0-0.009,0-0.013,0
	h-0.001l0,0c-0.004,0-0.009,0-0.013,0c-0.003,0-0.006,0-0.009,0c-0.683,0-1.366-0.041-2.048-0.105
	c-0.089-0.009-0.18-0.015-0.269-0.023c-0.127-0.013-0.252-0.041-0.377-0.057c-0.458-0.057-0.914-0.123-1.372-0.211
	c-0.187-0.035-0.374-0.069-0.56-0.11c-0.102-0.022-0.206-0.048-0.309-0.072c-0.374-0.086-0.746-0.187-1.119-0.294
	c-0.241-0.069-0.481-0.138-0.72-0.215c-0.421-0.137-0.837-0.294-1.252-0.458c-0.212-0.085-0.429-0.161-0.639-0.252
	c-0.155-0.067-0.309-0.139-0.461-0.211c-0.202-0.092-0.396-0.196-0.594-0.294c-0.118-0.059-0.237-0.114-0.354-0.176
	c-0.135-0.069-0.272-0.127-0.402-0.199c-0.197-0.108-0.389-0.236-0.584-0.35c-0.244-0.142-0.484-0.287-0.724-0.439
	c-0.129-0.083-0.263-0.158-0.392-0.244c-0.203-0.136-0.392-0.288-0.59-0.432c-0.085-0.06-0.167-0.121-0.252-0.183
	c-0.202-0.149-0.407-0.285-0.604-0.442c-0.02-0.016-0.041-0.029-0.061-0.045l-16.521-13.217l-20.578-16.463
	c-26.191,9.997-50.071,27.774-69.766,52.396c-30.732,38.409-47.657,89.196-47.657,143.003s16.925,104.593,47.655,143.006
	C167.306,490.054,210.126,512,256.002,512s88.696-21.944,120.574-61.794c30.729-38.413,47.652-89.199,47.652-143.006
	S407.305,202.607,376.575,164.195z"/>
<path style="fill:#FFB655;" d="M376.575,164.195c-19.697-24.623-43.575-42.398-69.766-52.396l-20.578,16.463l-16.521,13.217
	c-0.019,0.015-0.038,0.028-0.057,0.042c-0.202,0.159-0.413,0.301-0.619,0.453c-0.083,0.06-0.164,0.121-0.246,0.18
	c-0.197,0.14-0.383,0.293-0.584,0.426c-0.127,0.086-0.26,0.159-0.391,0.243c-0.24,0.154-0.486,0.3-0.731,0.445
	c-0.195,0.114-0.383,0.24-0.579,0.347c-0.132,0.072-0.272,0.132-0.405,0.2c-0.114,0.059-0.228,0.113-0.342,0.17
	c-0.203,0.099-0.399,0.206-0.606,0.3c-0.152,0.07-0.303,0.142-0.458,0.208c-0.212,0.092-0.429,0.168-0.645,0.253
	c-0.142,0.057-0.287,0.105-0.432,0.158c-0.247,0.091-0.492,0.189-0.742,0.271c-0.026,0.007-0.048,0.019-0.075,0.028
	c-0.24,0.078-0.481,0.146-0.723,0.215c-0.372,0.107-0.743,0.208-1.116,0.294c-0.104,0.023-0.206,0.05-0.31,0.072
	c-0.186,0.041-0.374,0.075-0.563,0.11c-0.455,0.086-0.908,0.154-1.366,0.209c-0.127,0.016-0.253,0.042-0.38,0.057
	c-0.089,0.009-0.18,0.015-0.271,0.023c-0.682,0.063-1.365,0.104-2.047,0.105c11.482,0.001,22.601,2.038,33.164,5.828l-33.186,33.188
	l-0.001,0.001l-33.186-33.188c10.563-3.79,21.682-5.827,33.166-5.828c-0.683-0.001-1.366-0.041-2.048-0.105
	c-0.089-0.009-0.18-0.015-0.269-0.023c-0.127-0.013-0.252-0.041-0.377-0.057c-0.458-0.057-0.914-0.123-1.372-0.209
	c-0.187-0.035-0.374-0.069-0.56-0.11c-0.102-0.022-0.206-0.048-0.309-0.072c-0.374-0.086-0.746-0.187-1.119-0.294
	c-0.241-0.069-0.481-0.138-0.72-0.215c-0.421-0.138-0.837-0.294-1.252-0.458c-0.212-0.085-0.429-0.161-0.639-0.252
	c-0.155-0.067-0.309-0.139-0.461-0.211c-0.202-0.092-0.396-0.196-0.594-0.294c-0.118-0.059-0.237-0.114-0.354-0.176
	c-0.135-0.069-0.272-0.127-0.402-0.199c-0.197-0.108-0.389-0.236-0.584-0.35c-0.244-0.142-0.484-0.287-0.724-0.439
	c-0.129-0.083-0.263-0.158-0.392-0.244c-0.203-0.136-0.392-0.288-0.59-0.432c-0.085-0.06-0.167-0.121-0.252-0.184
	c-0.202-0.149-0.407-0.285-0.604-0.442c-0.02-0.016-0.041-0.029-0.061-0.045l-16.521-13.217l-20.578-16.463
	c-26.191,9.999-50.071,27.774-69.766,52.396c-30.732,38.412-47.657,89.199-47.657,143.006s16.925,104.593,47.655,143.006
	C167.306,490.054,210.126,512,256.002,512s88.696-21.944,120.574-61.794c30.729-38.413,47.652-89.199,47.652-143.006
	S407.305,202.607,376.575,164.195z"/>
<path style="fill:#64C37D;" d="M242.294,141.478c0.02,0.016,0.041,0.029,0.061,0.045c0.197,0.157,0.402,0.293,0.604,0.442
	c0.085,0.063,0.167,0.124,0.252,0.184c0.199,0.143,0.388,0.296,0.59,0.432c0.129,0.086,0.263,0.161,0.392,0.244
	c0.24,0.152,0.48,0.297,0.724,0.439c0.196,0.116,0.388,0.243,0.584,0.35c0.132,0.072,0.269,0.13,0.402,0.199
	c0.117,0.06,0.236,0.117,0.354,0.176c0.197,0.098,0.393,0.202,0.594,0.294c0.154,0.07,0.306,0.143,0.461,0.211
	c0.211,0.091,0.427,0.167,0.639,0.252c0.415,0.164,0.831,0.32,1.252,0.458c0.238,0.078,0.478,0.146,0.72,0.215
	c0.373,0.107,0.745,0.208,1.119,0.294c0.102,0.025,0.206,0.05,0.309,0.072c0.186,0.039,0.373,0.075,0.56,0.11
	c0.458,0.086,0.913,0.154,1.372,0.209c0.126,0.016,0.25,0.044,0.377,0.057c0.089,0.009,0.18,0.015,0.269,0.023
	c0.683,0.063,1.366,0.104,2.048,0.105c0.003,0,0.006,0,0.009,0c0.004,0,0.009-0.001,0.013-0.001h0.001h0.001
	c0.004,0,0.009,0.001,0.013,0.001c0.003,0,0.006,0,0.009,0c0.683-0.001,1.366-0.041,2.047-0.105
	c0.091-0.009,0.181-0.015,0.271-0.023c0.127-0.015,0.253-0.041,0.38-0.057c0.458-0.057,0.911-0.124,1.366-0.209
	c0.189-0.035,0.377-0.069,0.563-0.11c0.104-0.022,0.206-0.048,0.31-0.072c0.373-0.088,0.745-0.187,1.116-0.294
	c0.241-0.069,0.483-0.138,0.723-0.215c0.42-0.138,0.834-0.294,1.246-0.458c0.216-0.085,0.433-0.161,0.645-0.253
	c0.154-0.066,0.306-0.138,0.458-0.208c0.206-0.094,0.402-0.199,0.606-0.3c0.114-0.057,0.228-0.111,0.342-0.17
	c0.135-0.069,0.275-0.129,0.405-0.2c0.197-0.107,0.386-0.234,0.579-0.347c0.246-0.145,0.492-0.29,0.731-0.445
	c0.13-0.083,0.263-0.157,0.391-0.243c0.202-0.135,0.388-0.285,0.584-0.426c0.082-0.059,0.162-0.12,0.246-0.18
	c0.206-0.152,0.417-0.293,0.619-0.453c0.019-0.015,0.038-0.028,0.057-0.042l16.521-13.217l20.578-16.463l36.043-28.834
	c9.465-7.57,10.998-21.378,3.427-30.841c-7.573-9.463-21.383-10.998-30.841-3.426l-37.493,29.994V21.943
	C277.945,9.825,268.121,0,256.002,0c-12.118,0-21.943,9.825-21.943,21.943V78.69l-37.493-29.994
	c-9.463-7.572-23.273-6.037-30.841,3.426c-7.57,9.463-6.037,23.273,3.427,30.841l36.043,28.834l20.578,16.463L242.294,141.478z"/>
<path style="fill:#76B46D;" d="M262.873,145.174c0.25-0.082,0.494-0.18,0.742-0.271c0.145-0.054,0.29-0.102,0.432-0.158
	c-0.413,0.164-0.827,0.32-1.246,0.458C262.825,145.193,262.847,145.182,262.873,145.174z"/>
<g>
	
		<rect x="213.694" y="264.89" transform="matrix(0.7071 -0.7071 0.7071 0.7071 -142.2421 270.9988)" style="fill:#FFC477;" width="84.619" height="84.621"/>
	<path style="fill:#FFC477;" d="M222.816,462.286c10.569,3.792,21.697,5.828,33.186,5.828s22.614-2.036,33.183-5.827l-33.185-33.185
		L222.816,462.286z"/>
</g>
<g>
	<path style="fill:#ECB45C;" d="M165.131,276.172l59.837-59.837l-40.596-40.596c-20.177,18.467-35.931,44.509-44.776,74.897
		L165.131,276.172z"/>
	<path style="fill:#ECB45C;" d="M380.343,307.201c0-0.809-0.015-1.612-0.023-2.418l-2.422,2.421l2.422,2.421
		C380.33,308.817,380.343,308.011,380.343,307.201z"/>
</g>
<path style="fill:#EE8700;" d="M256.002,146.287L256.002,146.287h-0.003c-0.004,0-0.009,0.001-0.013,0.001c-0.003,0-0.006,0-0.009,0
	c-11.483,0.001-22.603,2.038-33.166,5.828l33.186,33.188l33.189-33.189c-10.563-3.79-21.682-5.825-33.164-5.828
	c-0.003,0-0.006,0-0.009,0C256.011,146.288,256.007,146.287,256.002,146.287z"/>
<path style="fill:#FFC477;" d="M372.406,250.635c-8.847-30.388-24.599-56.43-44.778-74.897l-40.596,40.597l59.835,59.838
	L372.406,250.635z"/>
<path style="fill:#ECB45C;" d="M165.131,338.235l-25.533,25.533c8.846,30.389,24.599,56.43,44.776,74.895l40.593-40.593
	L165.131,338.235z"/>
<path style="fill:#FFC477;" d="M287.031,398.072l40.593,40.593c20.179-18.466,35.934-44.506,44.779-74.892l-25.537-25.537
	L287.031,398.072z"/>
<path style="fill:#ECB45C;" d="M131.66,307.201c0,0.809,0.015,1.615,0.023,2.421l2.418-2.418l-2.418-2.417
	C131.673,305.59,131.66,306.393,131.66,307.201z"/>
<path style="fill:#FFB655;" d="M376.575,164.195c-19.697-24.623-43.575-42.398-69.766-52.396l-20.578,16.463l-16.521,13.217
	c-0.019,0.015-0.038,0.028-0.057,0.042c-0.202,0.159-0.413,0.301-0.619,0.453c-0.083,0.06-0.164,0.121-0.246,0.18
	c-0.197,0.14-0.383,0.293-0.584,0.426c-0.127,0.086-0.26,0.159-0.391,0.243c-0.24,0.154-0.486,0.3-0.731,0.445
	c-0.195,0.114-0.383,0.24-0.579,0.347c-0.132,0.072-0.272,0.132-0.405,0.2c-0.114,0.059-0.228,0.113-0.342,0.17
	c-0.203,0.099-0.399,0.206-0.606,0.3c-0.152,0.07-0.303,0.142-0.458,0.208c-0.212,0.092-0.429,0.168-0.645,0.253
	c-0.142,0.057-0.287,0.105-0.432,0.158c-0.247,0.091-0.492,0.189-0.742,0.271c-0.026,0.007-0.048,0.019-0.075,0.028
	c-0.24,0.078-0.481,0.146-0.723,0.215c-0.372,0.107-0.743,0.208-1.116,0.294c-0.104,0.023-0.206,0.05-0.31,0.072
	c-0.186,0.041-0.374,0.075-0.563,0.11c-0.455,0.086-0.908,0.154-1.366,0.209c-0.127,0.016-0.253,0.042-0.38,0.057
	c-0.089,0.009-0.18,0.015-0.271,0.023c-0.682,0.063-1.365,0.104-2.047,0.105c11.482,0.001,22.601,2.038,33.164,5.828l-33.186,33.188
	v62.066l59.834,59.837l-59.834,59.835v62.066l33.183,33.183c-10.569,3.792-21.694,5.827-33.183,5.827v43.886
	c45.875,0,88.696-21.944,120.574-61.794c30.73-38.414,47.654-89.2,47.654-143.007S407.305,202.607,376.575,164.195z
	 M327.623,438.664l-40.593-40.593l59.835-59.837l25.537,25.537C363.557,394.158,347.802,420.2,327.623,438.664z M346.867,276.172
	l-59.835-59.838l40.596-40.597c20.179,18.466,35.932,44.507,44.778,74.897L346.867,276.172z M377.899,307.204l2.422-2.421
	c0.009,0.806,0.023,1.609,0.023,2.418c0,0.81-0.015,1.616-0.023,2.424L377.899,307.204z"/>
<g>
	<polygon style="fill:#EE8700;" points="196.163,307.204 255.999,367.04 256.002,367.039 256.002,247.368 255.999,247.367 	"/>
	<path style="fill:#EE8700;" d="M222.816,462.286c10.569,3.792,21.697,5.828,33.186,5.828v-39.01l-0.001-0.001L222.816,462.286z"/>
</g>
<path style="fill:#E69629;" d="M131.66,307.201c0,0.809,0.015,1.615,0.023,2.421l2.418-2.418l-2.418-2.417
	C131.673,305.59,131.66,306.393,131.66,307.201z"/>
<g>
	<path style="fill:#EE8700;" d="M165.131,338.235l-25.533,25.533c8.846,30.389,24.599,56.43,44.776,74.895l40.593-40.593
		L165.131,338.235z"/>
	<path style="fill:#EE8700;" d="M224.969,216.335l-40.596-40.596c-20.177,18.467-35.931,44.509-44.776,74.897l25.536,25.536
		L224.969,216.335z"/>
</g>
<path style="fill:#CC7400;" d="M222.816,462.286l33.183-33.183l0.001,0.001v-62.066l-0.001,0.001l-59.837-59.837l59.837-59.837
	l0.001,0.001v-62.066l-0.001,0.001l-33.186-33.188c10.563-3.79,21.682-5.827,33.166-5.828c-0.683-0.001-1.366-0.041-2.048-0.105
	c-0.089-0.009-0.18-0.015-0.269-0.023c-0.127-0.013-0.252-0.041-0.377-0.057c-0.458-0.057-0.914-0.123-1.372-0.209
	c-0.187-0.035-0.374-0.069-0.56-0.11c-0.102-0.022-0.206-0.048-0.309-0.072c-0.374-0.086-0.746-0.187-1.119-0.294
	c-0.241-0.069-0.481-0.138-0.72-0.215c-0.421-0.138-0.837-0.294-1.252-0.458c-0.212-0.085-0.429-0.161-0.639-0.252
	c-0.155-0.067-0.309-0.139-0.461-0.211c-0.202-0.092-0.396-0.196-0.594-0.294c-0.118-0.059-0.237-0.114-0.354-0.176
	c-0.135-0.069-0.272-0.127-0.402-0.199c-0.197-0.108-0.389-0.236-0.584-0.35c-0.244-0.142-0.484-0.287-0.724-0.439
	c-0.129-0.083-0.263-0.158-0.392-0.244c-0.203-0.136-0.392-0.288-0.59-0.432c-0.085-0.06-0.167-0.121-0.252-0.184
	c-0.202-0.149-0.407-0.285-0.604-0.442c-0.02-0.016-0.041-0.029-0.061-0.045l-16.521-13.217l-20.578-16.463
	c-26.191,9.999-50.071,27.774-69.766,52.396c-30.732,38.412-47.657,89.199-47.657,143.006s16.925,104.593,47.655,143.006
	C167.306,490.054,210.126,512,256.002,512v-43.886C244.513,468.114,233.385,466.078,222.816,462.286z M131.682,309.622
	c-0.009-0.806-0.023-1.612-0.023-2.421c0-0.807,0.015-1.611,0.023-2.414l2.418,2.417L131.682,309.622z M184.374,175.74
	l40.596,40.596l-59.837,59.837l-25.536-25.536C148.443,220.249,164.196,194.207,184.374,175.74z M139.599,363.768l25.533-25.534
	l59.837,59.837l-40.593,40.593C164.199,420.199,148.444,394.157,139.599,363.768z"/>
<g>
</g>
<g>
</g>
<g>
</g>
<g>
</g>
<g>
</g>
<g>
</g>
<g>
</g>
<g>
</g>
<g>
</g>
<g>
</g>
<g>
</g>
<g>
</g>
<g>
</g>
<g>
</g>
<g>
</g>
</svg>
