<?xml version="1.0" encoding="iso-8859-1"?>
<!-- Generator: Adobe Illustrator 19.0.0, SVG Export Plug-In . SVG Version: 6.00 Build 0)  -->
<svg version="1.1" id="Layer_1" xmlns="http://www.w3.org/2000/svg" xmlns:xlink="http://www.w3.org/1999/xlink" x="0px" y="0px"
	 viewBox="0 0 512 512" style="enable-background:new 0 0 512 512;" xml:space="preserve">
<ellipse style="fill:#E2E7F0;" cx="256" cy="464" rx="152" ry="48"/>
<path style="fill:#C9D5E3;" d="M377.76,435.36C350,424,305.92,416,256,416v48L377.76,435.36z"/>
<path style="fill:#DE333F;" d="M256,0c-75.112,0-136,60.888-136,136c0,104,117.68,313.36,122.72,320.88
	c4.896,7.36,14.824,9.352,22.184,4.456c1.768-1.176,3.28-2.688,4.456-4.456C274.32,449.36,392,240,392,136
	C392,60.888,331.112,0,256,0z M256,176c-22.088,0-40-17.912-40-40s17.912-40,40-40s40,17.912,40,40S278.088,176,256,176z"/>
<path style="fill:#C61C31;" d="M392,136c0-4.416-3.584-8-8-8s-8,3.584-8,8l0,0c0,104-117.68,313.36-122.72,320.88
	c-1.368,2.008-3.176,3.672-5.28,4.88c7.272,4.216,16.568,2.088,21.28-4.88C274.32,449.36,392,240,392,136L392,136z"/>
<g>
	<path style="fill:#F04B4D;" d="M128,144c-4.416,0-8-3.584-8-8C120,60.888,180.888,0,256,0c4.416,0,8,3.584,8,8s-3.584,8-8,8
		c-66.272,0-120,53.728-120,120C136,140.416,132.416,144,128,144z"/>
	<path style="fill:#F04B4D;" d="M312,136c0-4.416-3.584-8-8-8s-8,3.584-8,8c0.184,20.128-14.616,37.264-34.56,40
		c-7.824,1.264-13.544,8.072-13.44,16v112c0,4.416,3.584,8,8,8c4.416,0,8-3.584,8-8V197.84c-0.136-3.696,2.28-7,5.84-8
		C294.488,183.552,311.808,161.44,312,136z"/>
</g>
<path style="fill:#C61C31;" d="M256,48c-4.416,0-8,3.584-8,8v18.16c0.136,3.696-2.28,7-5.84,8
	c-24.648,6.288-41.968,28.4-42.16,53.84c0,4.416,3.584,8,8,8s8-3.584,8-8c-0.184-20.128,14.616-37.264,34.56-40
	c7.824-1.264,13.544-8.072,13.44-16V56C264,51.584,260.416,48,256,48z"/>
<g>
</g>
<g>
</g>
<g>
</g>
<g>
</g>
<g>
</g>
<g>
</g>
<g>
</g>
<g>
</g>
<g>
</g>
<g>
</g>
<g>
</g>
<g>
</g>
<g>
</g>
<g>
</g>
<g>
</g>
</svg>
