<?xml version="1.0" encoding="iso-8859-1"?>
<!-- Generator: Adobe Illustrator 19.0.0, SVG Export Plug-In . SVG Version: 6.00 Build 0)  -->
<svg version="1.1" id="Layer_1" xmlns="http://www.w3.org/2000/svg" xmlns:xlink="http://www.w3.org/1999/xlink" x="0px" y="0px"
	 viewBox="0 0 511.996 511.996" style="enable-background:new 0 0 511.996 511.996;" xml:space="preserve">
<g>
	<path style="fill:#864D18;" d="M201.721,183.142c-2.083-0.538-4.226-0.911-6.465-0.911c-7.55,0-14.284,3.263-19.039,8.392
		c-3.671-9.936-13.138-17.07-24.35-17.07c-14.379,0-26.034,11.654-26.034,26.034c-14.848,0-26.789,12.427-25.999,27.44
		c0.738,14.076,13.373,24.628,27.466,24.628h111.824C220.977,230.81,208.568,207.449,201.721,183.142L201.721,183.142z"/>
	<path style="fill:#AF6D2D;" d="M394.845,225.623c0-14.379-11.654-26.034-26.034-26.034c-11.724,0-21.643,7.758-24.906,18.415
		c-1.406,4.608-5.832,7.619-10.648,7.619c-4.105,0-7.68-2.317-9.849-5.797c-3.679-5.918-12.496-10.952-22.406-11.464
		c-7.02,15.204-16.375,29.783-28.134,43.294h148.011C420.879,237.277,409.225,225.623,394.845,225.623"/>
	<path style="fill:#91CF96;" d="M272.87,260.335h-33.749c-2.508,0-4.894-1.085-6.543-2.985
		c-67.419-77.451-59.817-187.158,17.694-255.202c3.28-2.864,8.166-2.864,11.455,0c77.503,68.044,85.105,177.751,17.686,255.202
		C277.765,259.25,275.378,260.335,272.87,260.335"/>
	<polygon style="fill:#7F5B53;" points="394.845,511.996 117.15,511.996 108.472,477.284 403.523,477.284 	"/>
	<polygon style="fill:#AF8066;" points="373.15,477.284 403.523,295.047 108.472,295.047 138.845,477.284 	"/>
	<g>
		<path style="fill:#D9AA94;" d="M221.286,355.792h-8.678c-4.79,0-8.678-3.879-8.678-8.678c0-4.799,3.888-8.678,8.678-8.678h8.678
			c4.79,0,8.678,3.879,8.678,8.678C229.964,351.913,226.076,355.792,221.286,355.792"/>
		<path style="fill:#D9AA94;" d="M264.676,425.216h-8.678c-4.79,0-8.678-3.879-8.678-8.678c0-4.799,3.888-8.678,8.678-8.678h8.678
			c4.79,0,8.678,3.879,8.678,8.678C273.354,421.337,269.466,425.216,264.676,425.216"/>
		<path style="fill:#D9AA94;" d="M384.674,408.142c-0.477-0.078-0.903-0.286-1.397-0.286h-83.89c-4.79,0-8.678,3.888-8.678,8.678
			c0,4.799,3.888,8.678,8.678,8.678h82.441L384.674,408.142z"/>
		<path style="fill:#D9AA94;" d="M177.896,338.436H117.15c-0.495,0-0.929,0.2-1.397,0.286l2.846,17.07h59.297
			c4.79,0,8.678-3.879,8.678-8.678C186.574,342.315,182.686,338.436,177.896,338.436"/>
	</g>
	<g>
		<path style="fill:#5ABA63;" d="M255.998,260.335c-4.799,0-8.678-3.879-8.678-8.678V121.487c0-4.799,3.879-8.678,8.678-8.678
			s8.678,3.879,8.678,8.678v130.169C264.676,256.456,260.797,260.335,255.998,260.335"/>
		<path style="fill:#5ABA63;" d="M255.989,173.555c-2.222,0-4.443-0.85-6.135-2.543l-26.025-26.034
			c-3.393-3.393-3.393-8.878,0-12.271c3.393-3.393,8.878-3.393,12.271,0l26.025,26.034c3.393,3.393,3.393,8.878,0,12.271
			C260.432,172.705,258.211,173.555,255.989,173.555"/>
		<path style="fill:#5ABA63;" d="M255.989,216.945c-2.222,0-4.443-0.85-6.135-2.543l-26.025-26.034
			c-3.393-3.393-3.393-8.878,0-12.271c3.393-3.393,8.878-3.393,12.271,0l26.025,26.034c3.393,3.393,3.393,8.878,0,12.271
			C260.432,216.094,258.211,216.945,255.989,216.945"/>
		<path style="fill:#5ABA63;" d="M255.989,130.165c-2.222,0-4.443-0.85-6.135-2.543l-26.025-26.034
			c-3.393-3.393-3.393-8.878,0-12.271c3.393-3.393,8.878-3.393,12.271,0l26.025,26.034c3.393,3.393,3.393,8.878,0,12.271
			C260.432,129.315,258.211,130.165,255.989,130.165"/>
		<path style="fill:#5ABA63;" d="M255.998,173.555c-2.222,0-4.443-0.85-6.135-2.543c-3.393-3.393-3.393-8.878,0-12.271
			l26.025-26.034c3.393-3.393,8.878-3.393,12.271,0c3.393,3.393,3.393,8.878,0,12.271l-26.025,26.034
			C260.441,172.705,258.219,173.555,255.998,173.555"/>
		<path style="fill:#5ABA63;" d="M255.998,216.945c-2.222,0-4.443-0.85-6.135-2.543c-3.393-3.393-3.393-8.878,0-12.271
			l26.025-26.034c3.393-3.393,8.878-3.393,12.271,0c3.393,3.393,3.393,8.878,0,12.271l-26.025,26.034
			C260.441,216.094,258.219,216.945,255.998,216.945"/>
		<path style="fill:#5ABA63;" d="M255.998,130.165c-2.222,0-4.443-0.85-6.135-2.543c-3.393-3.393-3.393-8.878,0-12.271
			l26.025-26.034c3.393-3.393,8.878-3.393,12.271,0c3.393,3.393,3.393,8.878,0,12.271l-26.025,26.034
			C260.441,129.315,258.219,130.165,255.998,130.165"/>
	</g>
	<polygon style="fill:#7F5B53;" points="73.761,295.047 438.235,295.047 438.235,251.657 73.761,251.657 	"/>
</g>
<g>
</g>
<g>
</g>
<g>
</g>
<g>
</g>
<g>
</g>
<g>
</g>
<g>
</g>
<g>
</g>
<g>
</g>
<g>
</g>
<g>
</g>
<g>
</g>
<g>
</g>
<g>
</g>
<g>
</g>
</svg>
