<?xml version="1.0" encoding="iso-8859-1"?>
<!-- Generator: Adobe Illustrator 19.0.0, SVG Export Plug-In . SVG Version: 6.00 Build 0)  -->
<svg version="1.1" id="Layer_1" xmlns="http://www.w3.org/2000/svg" xmlns:xlink="http://www.w3.org/1999/xlink" x="0px" y="0px"
	 viewBox="0 0 511.999 511.999" style="enable-background:new 0 0 511.999 511.999;" xml:space="preserve">
<path style="fill:#B6E892;" d="M454.657,25.051c-1.074-9.669-8.049-17.648-17.485-20.008
	c-4.107-1.026-101.277-24.406-164.716,39.033c-6.105,6.105-11.589,12.72-16.453,19.823l-0.002-0.002
	c-4.701-6.856-10.142-13.509-16.455-19.82C203.127,7.659,155.46,0.015,121.886,0.015c-26.632,0-46.235,4.824-47.056,5.027
	c-9.438,2.361-16.413,10.341-17.488,20.009c-0.123,1.105-2.968,27.39-0.047,59.53c4.146,45.607,17.48,79.963,39.632,102.113
	c36.419,36.419,84.086,44.063,117.662,44.063c6.527,0,12.631-0.292,18.138-0.731v41.497H256h23.272v-41.475
	c5.5,0.438,11.605,0.725,18.157,0.725c34.574,0,81.567-8.002,117.643-44.079c22.152-22.15,35.487-56.506,39.632-102.113
	C457.625,52.441,454.78,26.156,454.657,25.051z"/>
<path style="fill:#FFB655;" d="M387.874,271.522h-34.908h-73.695H256h-23.272h-73.695h-34.908
	c-12.852,0-23.272,10.418-23.272,23.272c0,12.852,10.42,23.272,23.272,23.272h14.078l19.248,173.231
	c1.309,11.787,11.271,20.703,23.129,20.703h75.418h75.418c11.859,0,21.821-8.916,23.129-20.703l19.247-173.231h14.078
	c12.852,0,23.272-10.42,23.272-23.272C411.146,281.941,400.727,271.522,387.874,271.522z"/>
<path style="fill:#EE8700;" d="M232.728,271.522h-73.695h-34.908c-12.852,0-23.272,10.418-23.272,23.272
	c0,12.852,10.42,23.272,23.272,23.272h14.078l19.248,173.231c1.309,11.787,11.271,20.703,23.129,20.703h75.418V271.522H232.728
	L232.728,271.522z"/>
<path style="fill:#7ED63E;" d="M256,63.897c-4.701-6.856-10.142-13.509-16.455-19.82C203.127,7.659,155.461,0.015,121.886,0.015
	c-26.632,0-46.235,4.824-47.056,5.027c-9.438,2.361-16.413,10.341-17.488,20.009c-0.123,1.105-2.968,27.39-0.047,59.53
	c4.146,45.605,17.48,79.963,39.632,102.113c36.419,36.419,84.086,44.063,117.662,44.063c6.527,0,12.631-0.292,18.138-0.731v41.497
	H256L256,63.897L256,63.897z"/>
<g>
</g>
<g>
</g>
<g>
</g>
<g>
</g>
<g>
</g>
<g>
</g>
<g>
</g>
<g>
</g>
<g>
</g>
<g>
</g>
<g>
</g>
<g>
</g>
<g>
</g>
<g>
</g>
<g>
</g>
</svg>
