<?xml version="1.0" encoding="iso-8859-1"?>
<!-- Generator: Adobe Illustrator 19.0.0, SVG Export Plug-In . SVG Version: 6.00 Build 0)  -->
<svg version="1.1" id="Layer_1" xmlns="http://www.w3.org/2000/svg" xmlns:xlink="http://www.w3.org/1999/xlink" x="0px" y="0px"
	 viewBox="0 0 512 512" style="enable-background:new 0 0 512 512;" xml:space="preserve">
<g transform="translate(-1)">
	<polygon style="fill:#AF8066;" points="144.188,503.322 369.815,503.322 369.815,329.763 144.188,329.763 	"/>
	<polygon style="fill:#D9AA94;" points="369.815,407.864 309.069,468.61 257.001,416.542 204.934,468.61 144.188,407.864 
		144.188,355.797 204.934,416.542 257.001,364.475 309.069,416.542 369.815,355.797 	"/>
	<path style="fill:#F0EDE0;" d="M413.205,512H100.798c-4.79,0-8.678-3.888-8.678-8.678s3.888-8.678,8.678-8.678h312.407
		c4.79,0,8.678,3.888,8.678,8.678S417.995,512,413.205,512"/>
	<g>
		<path style="fill:#5ABA63;" d="M294.734,102.357c5.068,31.709,6.803,66.187,4.929,99.293
			c16.722-28.273,36.118-52.103,56.129-71.411c8.565-47.633,16.957-91.848,40.057-121.561
			C371.777,8.679,327.901,43.321,294.734,102.357"/>
		<path style="fill:#5ABA63;" d="M218.882,102.037C185.759,43.235,142.126,8.68,118.157,8.68
			c23.049,29.653,31.458,73.858,40.005,121.518c20.124,19.413,39.632,43.407,56.415,71.897
			C212.435,168.615,213.962,133.833,218.882,102.037"/>
	</g>
	<g>
		<path style="fill:#91CF96;" d="M187.919,295.051h44.83c-10.049-26.633-16.011-59.158-18.18-93.089
			C156.105,102.825,64.24,58.62,31.368,69.424C94.049,111.616,116.108,227.528,187.919,295.051"/>
		<path style="fill:#91CF96;" d="M299.674,201.521c-1.927,34.295-7.741,67.02-17.746,93.531h44.145
			c71.819-67.523,93.878-183.435,156.559-225.627C449.803,58.63,358.155,102.688,299.674,201.521"/>
		<path style="fill:#91CF96;" d="M281.95,295.051C314.596,208.479,302.525,55.478,257,0c-45.802,52.276-57.7,206.345-24.272,295.051
			H281.95z"/>
	</g>
	<g>
		<path style="fill:#5ABA63;" d="M257.001,303.729c-4.79,0-8.678-3.888-8.678-8.678V104.136c0-4.79,3.888-8.678,8.678-8.678
			c4.79,0,8.678,3.888,8.678,8.678v190.915C265.679,299.841,261.792,303.729,257.001,303.729"/>
		<path style="fill:#5ABA63;" d="M232.752,295.051c-1.935-5.12-3.671-10.518-5.302-16.046
			c-28.039-30.33-46.41-68.487-64.121-105.594c-12.271-25.687-24.064-50.289-38.504-71.099
			c-10.483-7.532-20.74-13.737-30.564-18.796c-1.666,3.193-1.319,7.194,1.302,9.954c20.879,22.051,36.04,53.803,52.103,87.422
			c19.126,40.04,39.025,81.252,71.194,114.159H232.752z"/>
		<path style="fill:#5ABA63;" d="M354.752,174.983c-19.144,36.421-38.964,73.902-67.636,104.309
			c-1.597,5.432-3.289,10.735-5.181,15.759h14.024c32.343-32.794,53.647-72.973,74.162-111.998
			c21.66-41.22,42.123-80.158,72.496-100.612c3.315-2.23,4.443-6.326,3.22-9.945c-11.42,3.619-24.168,9.442-37.584,17.382
			C387.468,112.884,371.422,143.248,354.752,174.983"/>
	</g>
	<polygon style="fill:#D9AA94;" points="135.51,329.763 378.493,329.763 378.493,295.051 135.51,295.051 	"/>
</g>
<g>
</g>
<g>
</g>
<g>
</g>
<g>
</g>
<g>
</g>
<g>
</g>
<g>
</g>
<g>
</g>
<g>
</g>
<g>
</g>
<g>
</g>
<g>
</g>
<g>
</g>
<g>
</g>
<g>
</g>
</svg>
