<?xml version="1.0" encoding="iso-8859-1"?>
<!-- Generator: Adobe Illustrator 19.0.0, SVG Export Plug-In . SVG Version: 6.00 Build 0)  -->
<svg version="1.1" id="Layer_1" xmlns="http://www.w3.org/2000/svg" xmlns:xlink="http://www.w3.org/1999/xlink" x="0px" y="0px"
	 viewBox="0 0 512 512" style="enable-background:new 0 0 512 512;" xml:space="preserve">
<g>
	<g>
		<polygon style="fill:#91CF96;" points="423.724,123.586 317.793,247.172 423.724,247.172 		"/>
		<polygon style="fill:#91CF96;" points="88.276,123.586 194.207,247.172 88.276,247.172 		"/>
	</g>
	<polygon style="fill:#5ABA63;" points="256,0 169.71,218.43 194.207,247.172 317.793,247.172 342.29,218.43 	"/>
	<g>
		<path style="fill:#91CF96;" d="M229.517,256c-4.873,0-8.828-3.946-8.828-8.828v-44.138c0-4.882,3.955-8.828,8.828-8.828
			s8.828,3.946,8.828,8.828v44.138C238.345,252.054,234.39,256,229.517,256"/>
		<path style="fill:#91CF96;" d="M273.655,256c-4.873,0-8.828-3.946-8.828-8.828v-88.276c0-4.882,3.955-8.828,8.828-8.828
			c4.873,0,8.828,3.946,8.828,8.828v88.276C282.483,252.054,278.528,256,273.655,256"/>
	</g>
	<g>
		<polygon style="fill:#7F5B53;" points="70.621,291.31 441.379,291.31 441.379,247.172 70.621,247.172 		"/>
		<polygon style="fill:#7F5B53;" points="397.241,512 114.759,512 105.931,476.69 406.069,476.69 		"/>
	</g>
	<polygon style="fill:#AF8066;" points="375.172,476.69 406.069,291.31 105.931,291.31 136.828,476.69 	"/>
	<g>
		<path style="fill:#D9AA94;" d="M220.69,353.103h-8.828c-4.873,0-8.828-3.946-8.828-8.828c0-4.882,3.955-8.828,8.828-8.828h8.828
			c4.873,0,8.828,3.946,8.828,8.828C229.517,349.158,225.562,353.103,220.69,353.103"/>
		<path style="fill:#D9AA94;" d="M264.828,423.724H256c-4.873,0-8.828-3.946-8.828-8.828c0-4.882,3.955-8.828,8.828-8.828h8.828
			c4.873,0,8.828,3.946,8.828,8.828C273.655,419.778,269.7,423.724,264.828,423.724"/>
		<path style="fill:#D9AA94;" d="M386.895,406.356c-0.486-0.079-0.918-0.291-1.421-0.291h-85.336c-4.873,0-8.828,3.955-8.828,8.828
			c0,4.882,3.955,8.828,8.828,8.828h83.862L386.895,406.356z"/>
		<path style="fill:#D9AA94;" d="M176.552,335.448h-61.793c-0.503,0-0.945,0.203-1.421,0.291l2.895,17.364h60.319
			c4.873,0,8.828-3.946,8.828-8.828C185.379,339.394,181.425,335.448,176.552,335.448"/>
	</g>
</g>
<g>
</g>
<g>
</g>
<g>
</g>
<g>
</g>
<g>
</g>
<g>
</g>
<g>
</g>
<g>
</g>
<g>
</g>
<g>
</g>
<g>
</g>
<g>
</g>
<g>
</g>
<g>
</g>
<g>
</g>
</svg>
