<?xml version="1.0" encoding="iso-8859-1"?>
<!-- Generator: Adobe Illustrator 19.0.0, SVG Export Plug-In . SVG Version: 6.00 Build 0)  -->
<svg version="1.1" id="Layer_1" xmlns="http://www.w3.org/2000/svg" xmlns:xlink="http://www.w3.org/1999/xlink" x="0px" y="0px"
	 viewBox="0 0 512 512" style="enable-background:new 0 0 512 512;" xml:space="preserve">
<g>
	<path style="fill:#91CF96;" d="M256,273.067c-2.039,0-4.087-0.725-5.709-2.185c-40.653-36.574-62.865-84.873-62.558-135.987
		c0.307-50.441,22.554-97.587,62.635-132.77c3.217-2.833,8.047-2.833,11.264,0c40.081,35.183,62.327,82.33,62.635,132.77
		c0.307,51.115-21.905,99.413-62.558,135.987C260.087,272.341,258.039,273.067,256,273.067"/>
	<g>
		<path style="fill:#5ABA63;" d="M256,324.267c-4.71,0-8.533-3.823-8.533-8.533V119.467c0-4.71,3.823-8.533,8.533-8.533
			c4.71,0,8.533,3.823,8.533,8.533v196.267C264.533,320.444,260.71,324.267,256,324.267"/>
		<path style="fill:#5ABA63;" d="M255.996,170.658c-2.185,0-4.369-0.836-6.033-2.5l-25.6-25.591c-3.328-3.337-3.328-8.738,0-12.075
			c3.337-3.328,8.738-3.328,12.075,0l25.591,25.6c3.337,3.337,3.337,8.73,0,12.066C260.365,169.822,258.18,170.658,255.996,170.658"
			/>
		<path style="fill:#5ABA63;" d="M255.996,213.329c-2.185,0-4.369-0.836-6.033-2.5l-25.6-25.591c-3.328-3.337-3.328-8.738,0-12.075
			c3.337-3.328,8.738-3.328,12.075,0l25.591,25.6c3.337,3.337,3.337,8.73,0,12.066C260.365,212.493,258.18,213.329,255.996,213.329"
			/>
		<path style="fill:#5ABA63;" d="M255.996,127.996c-2.185,0-4.369-0.836-6.033-2.5l-25.6-25.591c-3.328-3.337-3.328-8.738,0-12.075
			c3.337-3.328,8.738-3.328,12.075,0l25.591,25.6c3.337,3.337,3.337,8.73,0,12.066C260.365,127.159,258.18,127.996,255.996,127.996"
			/>
	</g>
	<polygon style="fill:#AF8066;" points="145.067,503.467 366.933,503.467 366.933,332.8 145.067,332.8 	"/>
	<g>
		<polygon style="fill:#D9AA94;" points="366.933,409.6 307.2,469.333 256,418.133 204.8,469.333 145.067,409.6 145.067,358.4 
			204.8,418.133 256,366.933 307.2,418.133 366.933,358.4 		"/>
		<polygon style="fill:#D9AA94;" points="136.533,332.8 375.467,332.8 375.467,298.667 136.533,298.667 		"/>
	</g>
	<g>
		<path style="fill:#5ABA63;" d="M255.996,170.658c-2.185,0-4.369-0.836-6.033-2.5c-3.337-3.337-3.337-8.73,0-12.066l25.591-25.6
			c3.337-3.328,8.738-3.328,12.075,0c3.328,3.337,3.328,8.738,0,12.075l-25.6,25.591
			C260.365,169.822,258.18,170.658,255.996,170.658"/>
		<path style="fill:#5ABA63;" d="M255.996,213.329c-2.185,0-4.369-0.836-6.033-2.5c-3.337-3.337-3.337-8.73,0-12.066l25.591-25.6
			c3.337-3.328,8.738-3.328,12.075,0c3.328,3.337,3.328,8.738,0,12.075l-25.6,25.591
			C260.365,212.493,258.18,213.329,255.996,213.329"/>
		<path style="fill:#5ABA63;" d="M255.996,127.996c-2.185,0-4.369-0.836-6.033-2.5c-3.337-3.337-3.337-8.73,0-12.066l25.591-25.6
			c3.337-3.328,8.738-3.328,12.075,0c3.328,3.337,3.328,8.738,0,12.075l-25.6,25.591
			C260.365,127.159,258.18,127.996,255.996,127.996"/>
	</g>
	<path style="fill:#F0EDE0;" d="M409.6,512H102.4c-4.71,0-8.533-3.823-8.533-8.533c0-4.71,3.823-8.533,8.533-8.533h307.2
		c4.719,0,8.533,3.823,8.533,8.533C418.133,508.177,414.319,512,409.6,512"/>
</g>
<g>
</g>
<g>
</g>
<g>
</g>
<g>
</g>
<g>
</g>
<g>
</g>
<g>
</g>
<g>
</g>
<g>
</g>
<g>
</g>
<g>
</g>
<g>
</g>
<g>
</g>
<g>
</g>
<g>
</g>
</svg>
