<?xml version="1.0" encoding="iso-8859-1"?>
<!-- Generator: Adobe Illustrator 19.0.0, SVG Export Plug-In . SVG Version: 6.00 Build 0)  -->
<svg version="1.1" id="Layer_1" xmlns="http://www.w3.org/2000/svg" xmlns:xlink="http://www.w3.org/1999/xlink" x="0px" y="0px"
	 viewBox="0 0 512.081 512.081" style="enable-background:new 0 0 512.081 512.081;" xml:space="preserve">
<g transform="translate(-1)">
	<g>
		<path style="fill:#91CF96;" d="M173.987,163.537c-10.761,0-22.51-1.627-35.2-4.882c-4.8-1.234-7.735-6.053-6.647-10.889
			c5.467-24.046,16.942-41.563,34.121-52.032c19.099-11.639,45.339-13.998,73.911-6.647c4.855,1.179,8.64,6.235,7.534,11.109
			l-0.274,1.307c-1.819,8.841-7.351,35.749-32.247,51.301C203.738,159.953,189.95,163.537,173.987,163.537"/>
		<path style="fill:#91CF96;" d="M62.246,202.26c-8.512,0-16.366-1.399-23.534-4.224c-23.927-9.399-32.731-31.378-36.05-39.653
			c-0.311-0.759-0.549-1.39-0.759-1.838c-1.006-2.203-1.097-4.727-0.247-7.003c0.841-2.267,2.551-4.105,4.754-5.111l1.591-0.841
			c25.499-13.641,48.421-17.243,68.041-10.597c18.231,6.153,32.722,20.736,43.063,43.374c2.075,4.553,0.11,9.938-4.416,12.069
			C95.197,197.643,77.66,202.26,62.246,202.26"/>
		<path style="fill:#91CF96;" d="M98.478,101.609c-20.864,0-38.903-4.709-53.915-14.107C22.766,73.86,8.32,50.975,1.637,19.487
			l-0.393-1.792C0.092,12.777,3.136,7.858,8.046,6.697c7.662-1.801,34.926-7.214,63.762-1.006
			c28.041,6.034,64.174,24.658,76.983,79.131c1.143,4.864-1.838,9.755-6.702,10.962C126.437,99.67,111.872,101.609,98.478,101.609"
			/>
	</g>
	<path style="fill:#5ABA63;" d="M151.378,154.08c1.381-0.878,2.843-1.801,4.178-2.651c8.439-5.385,15.726-10.048,23.342-13.87
		c4.507-2.286,6.318-7.781,4.05-12.288c-2.267-4.507-7.771-6.318-12.279-4.059c-7.57,3.822-14.83,8.384-22.354,13.175
		c-3.575-33.947,1.097-73.774,25.499-114.048c2.624-4.315,1.234-9.947-3.081-12.562c-4.306-2.606-9.929-1.225-12.562,3.081
		c-12.562,20.745-20.306,41.362-24.64,61.275c-3.045-1.966-6.034-3.922-8.969-5.851c-18.386-12.114-35.758-23.543-57.545-28.946
		C62.098,36.128,57.151,39.1,55.935,44S57.7,53.865,62.6,55.081c18.761,4.654,34.121,14.766,51.913,26.478
		c5.083,3.337,10.359,6.757,15.799,10.149c-2.313,20.608-1.225,40.155,1.774,57.902c-0.027,1.115,0.165,2.194,0.558,3.273
		c1.81,9.847,4.187,19.081,6.848,27.63c-7.406-3.136-15.461-5.632-24.384-8.347c-0.073-0.046-0.119-0.119-0.192-0.155
		c-15.049-7.607-29.111-12.315-44.233-14.811c-4.965-0.923-9.682,2.542-10.505,7.525c-0.832,4.983,2.542,9.691,7.525,10.514
		c12.745,2.112,24.713,6.107,37.504,12.416c0.786,0.567,1.627,1.106,2.615,1.408l1.618,0.494
		c17.774,5.394,30.693,9.362,40.667,19.154c8.713,19.52,16.878,31.259,17.134,31.616c1.783,2.505,4.599,3.84,7.451,3.84
		c1.838,0,3.685-0.558,5.294-1.701c4.114-2.926,5.074-8.64,2.149-12.745C181.732,229.161,160.53,198.679,151.378,154.08"/>
	<g>
		<path style="fill:#91CF96;" d="M340.094,163.529c-15.963,0-29.751-3.584-41.198-10.734
			c-24.896-15.552-30.427-42.459-32.247-51.301l-0.274-1.307c-1.106-4.873,1.902-9.728,6.757-10.907l0.777-0.201
			c28.562-7.369,54.802-5.001,73.911,6.656c17.179,10.469,28.654,27.977,34.121,52.023c1.088,4.837-1.847,9.655-6.647,10.889
			C362.604,161.901,350.855,163.529,340.094,163.529"/>
		<path style="fill:#91CF96;" d="M451.836,202.251c-15.415,0-32.951-4.617-52.443-13.824c-4.526-2.13-6.491-7.515-4.416-12.069
			c10.341-22.638,24.832-37.221,43.063-43.374c19.648-6.638,42.533-3.054,68.041,10.597l1.591,0.841
			c4.535,2.13,6.583,7.561,4.507,12.114c-0.21,0.448-0.448,1.079-0.759,1.838c-3.319,8.274-12.123,30.254-36.05,39.653
			C468.201,200.843,460.348,202.251,451.836,202.251"/>
		<path style="fill:#91CF96;" d="M415.603,101.599c-13.394,0-27.95-1.938-43.611-5.824c-4.864-1.207-7.845-6.098-6.702-10.962
			c12.809-54.473,48.942-73.097,76.983-79.131c28.818-6.217,56.091-0.795,63.762,1.006c4.91,1.161,7.954,6.08,6.802,10.999
			l-0.393,1.792c-6.683,31.488-21.129,54.373-42.926,68.014C454.506,96.891,436.458,101.599,415.603,101.599"/>
	</g>
	<path style="fill:#5ABA63;" d="M451.487,55.073c4.901-1.216,7.881-6.181,6.665-11.081c-1.216-4.91-6.199-7.854-11.072-6.665
		c-21.797,5.403-39.177,16.841-57.563,28.946c-2.935,1.929-5.925,3.895-8.969,5.851c-4.334-19.913-12.069-40.53-24.64-61.275
		c-2.624-4.334-8.238-5.669-12.562-3.081c-4.315,2.615-5.696,8.247-3.081,12.562c13.979,23.067,21.577,45.861,24.896,67.447
		c0.027,0.256,0.055,0.503,0.101,0.759c2.414,16.192,2.405,31.671,0.905,46.089c-7.671-4.891-15.049-9.536-22.747-13.422
		c-4.526-2.267-10.021-0.448-12.288,4.059s-0.457,10.002,4.05,12.288c7.616,3.822,14.903,8.485,23.342,13.87
		c1.472,0.942,3.072,1.947,4.599,2.917c-3.557,17.189-8.923,32.21-14.235,44.261c-0.311,0.585-0.585,1.152-0.768,1.774
		c-7.808,17.317-15.241,28.023-16.174,29.349c-2.917,4.114-1.957,9.819,2.158,12.736c1.609,1.143,3.456,1.701,5.294,1.701
		c2.853,0,5.659-1.344,7.451-3.84c0.256-0.357,8.411-12.096,17.134-31.616c9.975-9.792,22.894-13.76,40.658-19.154l1.627-0.494
		c0.987-0.302,1.819-0.841,2.615-1.408c12.782-6.309,24.759-10.304,37.495-12.416c4.983-0.823,8.357-5.531,7.534-10.514
		c-0.823-4.983-5.55-8.421-10.514-7.525c-15.122,2.496-29.175,7.205-44.233,14.811c-0.073,0.037-0.119,0.11-0.192,0.155
		c-8.923,2.715-16.978,5.211-24.375,8.347c2.651-8.549,5.029-17.783,6.839-27.63c0.393-1.079,0.585-2.158,0.558-3.273
		c2.999-17.746,4.096-37.294,1.783-57.902c5.431-3.392,10.706-6.802,15.79-10.149C417.357,69.839,432.717,59.727,451.487,55.073"/>
	<g>
		<polygon style="fill:#7F5B53;" points="65.005,280.734 449.005,280.734 449.005,235.019 65.005,235.019 		"/>
		<polygon style="fill:#7F5B53;" points="403.291,509.305 110.719,509.305 101.576,472.734 412.434,472.734 		"/>
	</g>
	<polygon style="fill:#AF8066;" points="380.434,472.734 412.434,280.734 101.576,280.734 133.576,472.734 	"/>
	<g>
		<path style="fill:#D9AA94;" d="M220.434,344.734h-9.143c-5.047,0-9.143-4.087-9.143-9.143s4.096-9.143,9.143-9.143h9.143
			c5.047,0,9.143,4.087,9.143,9.143S225.48,344.734,220.434,344.734"/>
		<path style="fill:#D9AA94;" d="M266.148,417.876h-9.143c-5.047,0-9.143-4.087-9.143-9.143c0-5.056,4.096-9.143,9.143-9.143h9.143
			c5.047,0,9.143,4.087,9.143,9.143C275.291,413.79,271.195,417.876,266.148,417.876"/>
		<path style="fill:#D9AA94;" d="M392.574,399.888c-0.503-0.082-0.951-0.302-1.472-0.302h-88.384c-5.047,0-9.143,4.096-9.143,9.143
			c0,5.056,4.096,9.143,9.143,9.143h86.857L392.574,399.888z"/>
		<path style="fill:#D9AA94;" d="M174.719,326.448h-64c-0.521,0-0.978,0.21-1.472,0.302l2.999,17.984h62.473
			c5.047,0,9.143-4.087,9.143-9.143S179.766,326.448,174.719,326.448"/>
	</g>
</g>
<g>
</g>
<g>
</g>
<g>
</g>
<g>
</g>
<g>
</g>
<g>
</g>
<g>
</g>
<g>
</g>
<g>
</g>
<g>
</g>
<g>
</g>
<g>
</g>
<g>
</g>
<g>
</g>
<g>
</g>
</svg>
