<?xml version="1.0" encoding="iso-8859-1"?>
<!-- Generator: Adobe Illustrator 19.0.0, SVG Export Plug-In . SVG Version: 6.00 Build 0)  -->
<svg version="1.1" id="Layer_1" xmlns="http://www.w3.org/2000/svg" xmlns:xlink="http://www.w3.org/1999/xlink" x="0px" y="0px"
	 viewBox="0 0 512 512" style="enable-background:new 0 0 512 512;" xml:space="preserve">
<g>
	<polygon style="fill:#91CF96;" points="300.139,291.31 211.863,291.31 256.001,0 	"/>
	<g>
		<polygon style="fill:#5ABA63;" points="344.277,197.149 344.277,35.313 283.578,182.001 295.69,261.935 		"/>
		<polygon style="fill:#5ABA63;" points="216.314,261.935 228.425,182.001 167.727,35.313 167.727,197.149 		"/>
	</g>
	<g>
		<polygon style="fill:#91CF96;" points="79.449,79.448 150.07,291.31 211.863,291.31 216.312,261.932 		"/>
		<polygon style="fill:#91CF96;" points="295.688,261.934 300.137,291.312 361.93,291.312 432.551,79.45 		"/>
	</g>
	<path style="fill:#5ABA63;" d="M256.001,298.819c-4.882,0-8.828-3.955-8.828-8.828v-51.65c0-4.873,3.946-8.828,8.828-8.828
		c4.882,0,8.828,3.955,8.828,8.828v51.65C264.828,294.864,260.883,298.819,256.001,298.819"/>
	<polygon style="fill:#AF8066;" points="141.242,503.172 370.759,503.172 370.759,326.621 141.242,326.621 	"/>
	<g>
		<polygon style="fill:#D9AA94;" points="370.759,406.069 308.966,467.862 256.001,414.897 203.035,467.862 141.242,406.069 
			141.242,353.103 203.035,414.897 256.001,361.931 308.966,414.897 370.759,353.103 		"/>
		<polygon style="fill:#D9AA94;" points="132.415,326.621 379.587,326.621 379.587,291.31 132.415,291.31 		"/>
	</g>
	<path style="fill:#F0EDE0;" d="M414.897,512H97.104c-4.873,0-8.828-3.955-8.828-8.828c0-4.873,3.955-8.828,8.828-8.828h317.793
		c4.882,0,8.828,3.955,8.828,8.828C423.725,508.045,419.779,512,414.897,512"/>
</g>
<g>
</g>
<g>
</g>
<g>
</g>
<g>
</g>
<g>
</g>
<g>
</g>
<g>
</g>
<g>
</g>
<g>
</g>
<g>
</g>
<g>
</g>
<g>
</g>
<g>
</g>
<g>
</g>
<g>
</g>
</svg>
