<?xml version="1.0" encoding="iso-8859-1"?>
<!-- Generator: Adobe Illustrator 19.0.0, SVG Export Plug-In . SVG Version: 6.00 Build 0)  -->
<svg version="1.1" id="Layer_1" xmlns="http://www.w3.org/2000/svg" xmlns:xlink="http://www.w3.org/1999/xlink" x="0px" y="0px"
	 viewBox="0 0 512 512" style="enable-background:new 0 0 512 512;" xml:space="preserve">
<path style="fill:#C61469;" d="M400.237,125.86c0-40.938-32.094-74.519-72.445-76.899C316.594,20.152,288.671,0,256,0
	s-60.596,20.152-71.792,48.96c-40.351,2.38-72.445,35.962-72.445,76.899c0,23.35,10.72,45.103,28.163,59.503
	c-1.651,6.318-2.497,12.861-2.497,19.496c0,42.478,34.558,77.035,77.035,77.035c5.968,0,11.827-0.689,17.494-2.002
	c8.563-1.981,16.682-5.399,24.04-10.122c7.358,4.725,15.477,8.141,24.04,10.122c5.667,1.313,11.526,2.002,17.494,2.002
	c42.476,0,77.032-34.558,77.032-77.035c0-6.637-0.845-13.178-2.495-19.496C389.515,170.964,400.237,149.212,400.237,125.86z"/>
<path style="fill:#FFB655;" d="M256,99.278c-26.511,0-48.079,21.568-48.079,48.079s21.568,48.079,48.079,48.079
	s48.079-21.568,48.079-48.079S282.511,99.278,256,99.278z"/>
<path style="fill:#A4E276;" d="M438.751,392.871c-1.526-2.547-38.133-62.342-101.681-62.342c-22.522,0-41.64,7.521-57.031,17.331
	v-67.966c-8.563-1.981-16.682-5.399-24.04-10.122c-7.358,4.725-15.477,8.141-24.04,10.122v67.966
	c-15.392-9.811-34.51-17.331-57.031-17.331c-63.548,0-100.155,59.796-101.681,62.342c-5.17,8.616-4.436,19.538,1.84,27.384
	c4.888,6.109,49.212,59.692,99.841,59.692c22.522,0,41.64-7.521,57.031-17.331v25.344c0,13.278,10.763,24.04,24.04,24.04
	c13.276,0,24.04-10.762,24.04-24.04v-28.229c16.398,11.119,36.175,20.216,57.028,20.216c63.551-0.002,100.157-59.796,101.684-62.339
	C443.321,409.994,443.321,400.484,438.751,392.871z"/>
<path style="fill:#EE8700;" d="M207.921,147.357c0,26.511,21.568,48.079,48.079,48.079V99.278
	C229.489,99.278,207.921,120.847,207.921,147.357z"/>
<path style="fill:#64C37D;" d="M231.96,279.894v67.966c-15.392-9.811-34.51-17.331-57.031-17.331
	c-63.548,0-100.155,59.796-101.681,62.342c-5.17,8.616-4.436,19.538,1.84,27.384c4.888,6.109,49.212,59.692,99.841,59.692
	c22.522,0,41.64-7.521,57.031-17.331v25.344c0,13.278,10.763,24.04,24.04,24.04V269.771
	C248.642,274.494,240.522,277.913,231.96,279.894z"/>
<path style="fill:#A71159;" d="M256,195.436c-26.511,0-48.079-21.568-48.079-48.079S229.489,99.278,256,99.278V0
	c-32.673,0-60.596,20.152-71.792,48.96c-40.351,2.38-72.445,35.962-72.445,76.899c0,23.35,10.722,45.105,28.163,59.503
	c-1.651,6.318-2.497,12.861-2.497,19.498c0,42.478,34.558,77.035,77.035,77.035c5.968,0,11.827-0.689,17.494-2.002
	c8.563-1.981,16.682-5.399,24.04-10.122v-74.335H256z"/>
<g>
</g>
<g>
</g>
<g>
</g>
<g>
</g>
<g>
</g>
<g>
</g>
<g>
</g>
<g>
</g>
<g>
</g>
<g>
</g>
<g>
</g>
<g>
</g>
<g>
</g>
<g>
</g>
<g>
</g>
</svg>
