<?xml version="1.0" encoding="iso-8859-1"?>
<!-- Generator: Adobe Illustrator 19.0.0, SVG Export Plug-In . SVG Version: 6.00 Build 0)  -->
<svg version="1.1" id="Layer_1" xmlns="http://www.w3.org/2000/svg" xmlns:xlink="http://www.w3.org/1999/xlink" x="0px" y="0px"
	 viewBox="0 0 512 512" style="enable-background:new 0 0 512 512;" xml:space="preserve">
<g>
	<path style="fill:#E54728;" d="M144.76,376.156H91.698c-5.192,0-9.401-4.209-9.401-9.401s4.209-9.401,9.401-9.401h53.063
		c5.192,0,9.401,4.209,9.401,9.401S149.953,376.156,144.76,376.156z"/>
	<path style="fill:#E54728;" d="M128.547,343.728h-45.28c-5.192,0-9.401-4.209-9.401-9.401s4.209-9.401,9.401-9.401h45.28
		c5.192,0,9.401,4.209,9.401,9.401S133.74,343.728,128.547,343.728z"/>
	<path style="fill:#E54728;" d="M137.812,310.144H85.918c-5.192,0-9.401-4.209-9.401-9.401s4.209-9.401,9.401-9.401h51.894
		c5.192,0,9.401,4.209,9.401,9.401S143.004,310.144,137.812,310.144z"/>
	<path style="fill:#E54728;" d="M151.709,275.401h-51.383c-5.192,0-9.401-4.209-9.401-9.401s4.209-9.401,9.401-9.401h51.383
		c5.192,0,9.401,4.209,9.401,9.401S156.901,275.401,151.709,275.401z"/>
	<path style="fill:#E54728;" d="M449.165,150.46h-58.313c-5.192,0-9.401-4.209-9.401-9.401s4.209-9.401,9.401-9.401h58.313
		c24.28,0,44.033-19.753,44.033-44.033c0-11.752-4.579-22.81-12.894-31.135c-8.317-8.305-19.378-12.885-31.139-12.885H17.518
		c-5.192,0-9.401-4.209-9.401-9.401s4.209-9.401,9.401-9.401h431.647c16.779,0,32.559,6.532,44.434,18.392
		C505.468,55.079,512,70.856,512,87.625C512,122.273,483.813,150.46,449.165,150.46z"/>
</g>
<path style="fill:#F95428;" d="M200.35,86.496C89.665,86.496-0.051,176.244,0,286.941c0.051,110.926,91.342,200.256,202.268,200.256
	H259.4c27.939,0,50.589-22.65,50.589-50.589v-2.657h-83.917c-28.095,0-55.693-8.377-78.533-24.737
	c-90.723-64.987-28.537-193.012,52.811-193.012h101.855c65.91,0,119.34-53.43,119.34-119.34V86.496H200.35z"/>
<path style="fill:#E54728;" d="M66.432,286.846c0-87.365,55.921-161.652,133.917-189.058l34.24-11.292h-34.24
	C89.665,86.496-0.051,176.244,0,286.941c0.051,110.926,91.342,200.256,202.268,200.256H259.4l-32.986-6.307
	c-48.999-9.371-93.099-36.559-122.272-77.028C80.412,370.943,66.432,330.53,66.432,286.846z"/>
<path style="fill:#333333;" d="M362.21,123.08c-1.97,0-3.9-0.8-5.3-2.2c-1.4-1.4-2.2-3.33-2.2-5.3c0-1.98,0.8-3.91,2.2-5.31
	c1.399-1.39,3.33-2.19,5.3-2.19c1.979,0,3.91,0.8,5.31,2.19c1.391,1.4,2.19,3.33,2.19,5.31c0,1.97-0.8,3.9-2.19,5.3
	C366.12,122.28,364.189,123.08,362.21,123.08z"/>
<path style="fill:#E54728;" d="M342.151,185.144c-2.024,0-4.064-0.652-5.782-1.994l-31.209-24.396
	c-3.161-2.471-4.406-6.676-3.1-10.469s4.877-6.34,8.888-6.34h60.038c5.192,0,9.401,4.209,9.401,9.401s-4.209,9.401-9.401,9.401
	H338.24l9.708,7.588c4.091,3.198,4.814,9.106,1.618,13.196C347.712,183.903,344.945,185.143,342.151,185.144z"/>
<g>
</g>
<g>
</g>
<g>
</g>
<g>
</g>
<g>
</g>
<g>
</g>
<g>
</g>
<g>
</g>
<g>
</g>
<g>
</g>
<g>
</g>
<g>
</g>
<g>
</g>
<g>
</g>
<g>
</g>
</svg>
