<?xml version="1.0" encoding="iso-8859-1"?>
<!-- Generator: Adobe Illustrator 19.0.0, SVG Export Plug-In . SVG Version: 6.00 Build 0)  -->
<svg version="1.1" id="Layer_1" xmlns="http://www.w3.org/2000/svg" xmlns:xlink="http://www.w3.org/1999/xlink" x="0px" y="0px"
	 viewBox="0 0 512 512" style="enable-background:new 0 0 512 512;" xml:space="preserve">
<path style="fill:#576D7E;" d="M331.28,468.694L272,409.334v-41.36c0-8.84-7.16-16-16-16s-16,7.16-16,16v41.36l-59.28,59.28
	c-6.248,6.248-6.248,16.392,0,22.64s16.392,6.248,22.64,0l36.64-36.64v25.36c0,8.84,7.16,16,16,16s16-7.16,16-16v-25.36l36.72,36.72
	c6.56,5.92,16.68,5.408,22.6-1.152C336.832,484.07,336.816,474.782,331.28,468.694z"/>
<path style="fill:#E2E7F0;" d="M496,63.974v272c0,17.672-14.328,32-32,32H48c-17.672,0-32-14.328-32-32v-272L496,63.974L496,63.974z
	"/>
<path style="fill:#C97629;" d="M16,15.974h480c8.84,0,16,7.16,16,16v16c0,8.84-7.16,16-16,16H16c-8.84,0-16-7.16-16-16v-16
	C0,23.134,7.16,15.974,16,15.974z"/>
<path style="fill:#3CB54A;" d="M168,135.974c-44.184,0-80,35.816-80,80s35.816,80,80,80s80-35.816,80-80h-80V135.974z"/>
<g>
	<path style="fill:#3689C9;" d="M184,119.974v80h80C264,155.79,228.184,119.974,184,119.974z"/>
	<circle style="fill:#3689C9;" cx="348" cy="147.974" r="12"/>
</g>
<circle style="fill:#3CB54A;" cx="348" cy="235.974" r="12"/>
<g>
	<path style="fill:#748B9E;" d="M408,183.974h-64c-4.416,0-8-3.584-8-8s3.584-8,8-8h64c4.416,0,8,3.584,8,8
		S412.416,183.974,408,183.974z"/>
	<path style="fill:#748B9E;" d="M408,271.974h-64c-4.416,0-8-3.584-8-8s3.584-8,8-8h64c4.416,0,8,3.584,8,8
		S412.416,271.974,408,271.974z"/>
	<path style="fill:#748B9E;" d="M376,295.974h-32c-4.416,0-8-3.584-8-8s3.584-8,8-8h32c4.416,0,8,3.584,8,8
		S380.416,295.974,376,295.974z"/>
</g>
<path style="fill:#C9D5E3;" d="M16,63.974L16,63.974c0,8.84,7.16,16,16,16h432c8.84,0,16,7.16,16,16v240c0,8.84-7.16,16-16,16H64
	c-8.84,0-16,7.16-16,16h416c17.672,0,32-14.328,32-32v-272L16,63.974L16,63.974z"/>
<path style="fill:#B06328;" d="M32,47.974h448c8.84,0,16,7.16,16,16H16C16,55.134,23.16,47.974,32,47.974z"/>
<g>
	<path style="fill:#3F556B;" d="M279.04,439.014c-4.48-4.48-7.04-26.64-7.04-32.96v-38.08h-32v16l0,0c8.84,0,16,7.16,16,16v96
		c8.84,0,16-7.16,16-16v-25.36l36.72,36.72c6.248,6.248,16.376,6.256,22.624,0.016c0.008-0.008,0.008-0.008,0.016-0.016
		L279.04,439.014z"/>
	<path style="fill:#3F556B;" d="M192,495.974c4.24-0.016,8.296-1.712,11.28-4.72l36.72-36.64v-22.64l-59.28,59.28
		C183.704,494.254,187.76,495.95,192,495.974z"/>
</g>
<g>
</g>
<g>
</g>
<g>
</g>
<g>
</g>
<g>
</g>
<g>
</g>
<g>
</g>
<g>
</g>
<g>
</g>
<g>
</g>
<g>
</g>
<g>
</g>
<g>
</g>
<g>
</g>
<g>
</g>
</svg>
