<?xml version="1.0" encoding="iso-8859-1"?>
<!-- Generator: Adobe Illustrator 19.0.0, SVG Export Plug-In . SVG Version: 6.00 Build 0)  -->
<svg version="1.1" id="Layer_1" xmlns="http://www.w3.org/2000/svg" xmlns:xlink="http://www.w3.org/1999/xlink" x="0px" y="0px"
	 viewBox="0 0 512 512" style="enable-background:new 0 0 512 512;" xml:space="preserve">
<polygon style="fill:#C9E3F7;" points="368.485,512 275.2,418.715 275.2,294.4 236.8,294.4 236.8,418.715 143.515,512 197.82,512 
	236.8,473.02 236.8,512 275.2,512 275.2,473.02 314.18,512 "/>
<g>
	<polygon style="fill:#78B9EB;" points="275.2,418.715 275.2,294.4 256,294.4 256,512 275.2,512 275.2,473.02 314.18,512 
		368.485,512 	"/>
	<rect x="6.4" style="fill:#78B9EB;" width="499.2" height="307.2"/>
</g>
<rect x="256" style="fill:#3C5D76;" width="249.6" height="307.2"/>
<rect x="83.2" y="39.315" style="fill:#FFFFFF;" width="345.6" height="229.478"/>
<rect x="275.2" y="76.8" style="fill:#FF5023;" width="38.4" height="153.6"/>
<rect x="352" y="102.4" style="fill:#D80027;" width="38.4" height="128"/>
<rect x="198.4" y="128" style="fill:#FF9811;" width="38.4" height="102.4"/>
<rect x="121.6" y="89.6" style="fill:#FFDA44;" width="38.4" height="140.8"/>
<g>
</g>
<g>
</g>
<g>
</g>
<g>
</g>
<g>
</g>
<g>
</g>
<g>
</g>
<g>
</g>
<g>
</g>
<g>
</g>
<g>
</g>
<g>
</g>
<g>
</g>
<g>
</g>
<g>
</g>
</svg>
