<?xml version="1.0" encoding="iso-8859-1"?>
<!-- Generator: Adobe Illustrator 19.0.0, SVG Export Plug-In . SVG Version: 6.00 Build 0)  -->
<svg version="1.1" id="Layer_1" xmlns="http://www.w3.org/2000/svg" xmlns:xlink="http://www.w3.org/1999/xlink" x="0px" y="0px"
	 viewBox="0 0 512 512" style="enable-background:new 0 0 512 512;" xml:space="preserve">
<path style="fill:#F1F2F2;" d="M394.989,505.553H117.011c-10.345,0-18.732-8.387-18.732-18.732v-84.467
	c0-10.345,8.387-18.732,18.732-18.732h277.979c10.345,0,18.732,8.387,18.732,18.732v84.468
	C413.721,497.166,405.335,505.553,394.989,505.553z"/>
<path style="fill:#E6E7E8;" d="M394.989,383.622H256v121.931h138.989c10.345,0,18.732-8.387,18.732-18.732v-84.468
	C413.721,392.008,405.335,383.622,394.989,383.622z"/>
<path style="fill:#6A82A1;" d="M457.187,421.086H54.813C24.588,421.086,0,396.498,0,366.275V159.689
	c0-30.224,24.588-54.814,54.813-54.814h62.203c10.345,0,18.732,8.387,18.732,18.732v70.303h240.504v-70.303
	c0-10.345,8.387-18.732,18.732-18.732h62.203c30.224,0,54.813,24.588,54.813,54.814v206.586
	C512,396.498,487.411,421.086,457.187,421.086z"/>
<path style="fill:#36495E;" d="M457.187,104.875h-62.203c-10.345,0-18.732,8.387-18.732,18.732v70.303H256v227.177h201.187
	c30.224,0,54.813-24.589,54.813-54.813V159.688C512,129.465,487.411,104.875,457.187,104.875z"/>
<path style="fill:#F1F2F2;" d="M394.983,231.373H117.017c-10.345,0-18.732-8.387-18.732-18.732V25.179
	c0-10.345,8.387-18.732,18.732-18.732h277.967c10.345,0,18.732,8.387,18.732,18.732v187.462
	C413.715,222.987,405.329,231.373,394.983,231.373z"/>
<path style="fill:#E6E7E8;" d="M394.983,6.447H256v224.925h138.983c10.345,0,18.732-8.387,18.732-18.732V25.179
	C413.715,14.834,405.329,6.447,394.983,6.447z"/>
<path style="fill:#36495E;" d="M423.704,231.373H88.296c-10.345,0-18.732-8.387-18.732-18.732s8.387-18.732,18.732-18.732h335.407
	c10.345,0,18.732,8.387,18.732,18.732C442.435,222.987,434.049,231.373,423.704,231.373z"/>
<path style="fill:#2C3E50;" d="M423.704,193.909H256v37.463h167.704c10.345,0,18.732-8.387,18.732-18.732
	C442.435,202.296,434.049,193.909,423.704,193.909z"/>
<g>
	<circle style="fill:#FFD155;" cx="362.758" cy="294.6" r="17.874"/>
	<circle style="fill:#FFD155;" cx="412.859" cy="294.6" r="17.874"/>
</g>
<g>
</g>
<g>
</g>
<g>
</g>
<g>
</g>
<g>
</g>
<g>
</g>
<g>
</g>
<g>
</g>
<g>
</g>
<g>
</g>
<g>
</g>
<g>
</g>
<g>
</g>
<g>
</g>
<g>
</g>
</svg>
