<?xml version="1.0" encoding="iso-8859-1"?>
<!-- Generator: Adobe Illustrator 19.0.0, SVG Export Plug-In . SVG Version: 6.00 Build 0)  -->
<svg version="1.1" id="Layer_1" xmlns="http://www.w3.org/2000/svg" xmlns:xlink="http://www.w3.org/1999/xlink" x="0px" y="0px"
	 viewBox="0 0 512 512" style="enable-background:new 0 0 512 512;" xml:space="preserve">
<path style="fill:#2C3E50;" d="M494.14,411.899h-81.768c-9.864,0-17.86-7.997-17.86-17.86v-55.205c0-9.864,7.997-17.86,17.86-17.86
	h81.768c9.864,0,17.86,7.997,17.86,17.86v55.206C512,403.903,504.003,411.899,494.14,411.899z"/>
<path style="fill:#36495E;" d="M494.135,356.693H275.437c-18.463,0-24.731-24.761-8.517-33.56
	c69.546-37.732,69.543-137.461,0-175.193c-16.227-8.805-9.929-33.56,8.517-33.56h218.698c9.864,0,17.86,7.997,17.86,17.86v206.591
	C511.995,348.696,503.999,356.693,494.135,356.693z"/>
<g>
	<path style="fill:#2C3E50;" d="M429.385,221.498h-34.117c-9.864,0-17.86-7.997-17.86-17.86c0-9.864,7.997-17.86,17.86-17.86h34.117
		c9.864,0,17.86,7.997,17.86,17.86C447.245,213.502,439.248,221.498,429.385,221.498z"/>
	<path style="fill:#2C3E50;" d="M429.385,285.296h-34.117c-9.864,0-17.86-7.997-17.86-17.86s7.997-17.86,17.86-17.86h34.117
		c9.864,0,17.86,7.997,17.86,17.86S439.248,285.296,429.385,285.296z"/>
</g>
<path style="fill:#36495E;" d="M99.628,411.899H17.86c-9.864,0-17.86-7.997-17.86-17.86v-55.205c0-9.864,7.997-17.86,17.86-17.86
	h81.768c9.864,0,17.86,7.997,17.86,17.86v55.206C117.489,403.903,109.492,411.899,99.628,411.899z"/>
<path style="fill:#6A82A1;" d="M163.522,356.693H17.865c-9.864,0-17.86-7.997-17.86-17.86V132.241c0-9.864,7.997-17.86,17.86-17.86
	h145.657c18.463,0,24.731,24.761,8.517,33.56c-69.547,37.734-69.543,137.464,0,175.193
	C188.266,331.939,181.97,356.693,163.522,356.693z"/>
<path style="fill:#FFD155;" d="M219.479,370.972c-22.149,0-44.29-5.481-64.48-16.445c-94.489-51.264-94.469-186.728,0.006-237.985
	c40.369-21.923,88.58-21.922,128.956,0.004c94.47,51.255,94.499,186.703,0,237.981l0,0
	C263.774,365.49,241.624,370.972,219.479,370.972z"/>
<path style="fill:#FFC72D;" d="M283.96,116.546c-20.187-10.962-42.33-16.444-64.474-16.445v270.871
	c22.142-0.001,44.29-5.483,64.474-16.445C378.458,303.249,378.43,167.802,283.96,116.546z"/>
<path style="fill:#FFDA79;" d="M219.487,299.969c-35.529,0-64.433-28.904-64.433-64.432s28.904-64.432,64.433-64.432
	c35.528,0,64.431,28.904,64.431,64.432S255.015,299.969,219.487,299.969z"/>
<path style="fill:#FFD155;" d="M219.487,171.105h-0.001V299.97h0.001c35.528,0,64.431-28.904,64.431-64.432
	C283.918,200.009,255.015,171.105,219.487,171.105z"/>
<g>
</g>
<g>
</g>
<g>
</g>
<g>
</g>
<g>
</g>
<g>
</g>
<g>
</g>
<g>
</g>
<g>
</g>
<g>
</g>
<g>
</g>
<g>
</g>
<g>
</g>
<g>
</g>
<g>
</g>
</svg>
