<?xml version="1.0" encoding="iso-8859-1"?>
<!-- Generator: Adobe Illustrator 19.0.0, SVG Export Plug-In . SVG Version: 6.00 Build 0)  -->
<svg version="1.1" id="Layer_1" xmlns="http://www.w3.org/2000/svg" xmlns:xlink="http://www.w3.org/1999/xlink" x="0px" y="0px"
	 viewBox="0 0 512 512" style="enable-background:new 0 0 512 512;" xml:space="preserve">
<path style="fill:#9AD14B;" d="M367.446,143.033c-15.378-12.119-63.253,67.692-81.93,61.032
	c-18.83-6.711-46.055-19.174-67.109-19.174c-41.942,0-42.955-66.197-73.865-41.858c5.305-4.359,64.633-54.368,58.497-112.66h105.91
	C302.813,88.666,362.14,138.674,367.446,143.033z"/>
<path style="fill:#90BC42;" d="M253.367,30.373c3.042,28.839-9.958,55.659-24.493,75.921c-31.422,4.781-60.21,17.756-84.332,36.739
	c5.305-4.359,64.633-54.368,58.497-112.66C203.038,30.373,253.367,30.373,253.367,30.373z"/>
<path style="fill:#F7B239;" d="M411.625,126.722c55.441,0,100.375,74.412,100.375,166.21s-44.934,166.21-100.375,166.21
	c-7.849,0-15.493-1.496-22.818-4.321c-7.325-2.825-14.356-6.98-20.978-12.298c-30.961,24.531-69.721,39.104-111.829,39.104
	s-80.868-14.573-111.842-39.104c-13.244,10.649-28.098,16.618-43.796,16.618C44.934,459.141,0,384.729,0,292.931
	s44.934-166.21,100.362-166.21c15.698,0,30.552,5.97,43.796,16.618c0,0,0.013-0.013,0.038-0.038c0.115-0.077,0.23-0.166,0.345-0.268
	c30.91-24.34,69.516-38.798,111.458-38.798c21.054,0,41.265,3.643,60.095,10.355c18.677,6.66,35.972,16.324,51.351,28.443
	c0.115,0.102,0.23,0.192,0.345,0.268c0.026,0.026,0.038,0.038,0.038,0.038C381.073,132.691,395.927,126.722,411.625,126.722z"/>
<g>
	<path style="fill:#E09B2D;" d="M80.484,292.931c0,68.097,24.723,126.632,60.12,152.314c-12.323,8.936-25.937,13.896-40.242,13.896
		C44.934,459.141,0,384.729,0,292.931s44.934-166.21,100.362-166.21c14.305,0,27.919,4.96,40.242,13.896
		C105.207,166.299,80.484,224.834,80.484,292.931z"/>
	<path style="fill:#E09B2D;" d="M382.469,180.168c-4.629,2.573-6.295,8.41-3.723,13.038c16.405,29.512,25.076,63.996,25.076,99.724
		c0,35.727-8.671,70.213-25.076,99.726c-2.572,4.628-0.906,10.466,3.723,13.038c1.475,0.821,3.072,1.208,4.649,1.208
		c3.368,0,6.636-1.778,8.39-4.931c17.984-32.356,27.491-70.062,27.491-109.041c0-38.98-9.507-76.685-27.491-109.04
		C392.933,179.261,387.094,177.597,382.469,180.168z"/>
	<path style="fill:#E09B2D;" d="M129.517,180.168c-4.626-2.567-10.464-0.905-13.038,3.721
		c-17.985,32.353-27.491,70.058-27.491,109.041c0,38.982,9.507,76.687,27.491,109.041c1.753,3.154,5.02,4.931,8.388,4.931
		c1.576,0,3.174-0.39,4.649-1.208c4.628-2.573,6.295-8.41,3.721-13.038c-16.405-29.512-25.076-63.996-25.076-99.726
		s8.671-70.214,25.076-99.723C135.811,188.578,134.145,182.741,129.517,180.168z"/>
</g>
<g>
</g>
<g>
</g>
<g>
</g>
<g>
</g>
<g>
</g>
<g>
</g>
<g>
</g>
<g>
</g>
<g>
</g>
<g>
</g>
<g>
</g>
<g>
</g>
<g>
</g>
<g>
</g>
<g>
</g>
</svg>
