<?xml version="1.0" encoding="iso-8859-1"?>
<!-- Generator: Adobe Illustrator 19.0.0, SVG Export Plug-In . SVG Version: 6.00 Build 0)  -->
<svg version="1.1" id="Layer_1" xmlns="http://www.w3.org/2000/svg" xmlns:xlink="http://www.w3.org/1999/xlink" x="0px" y="0px"
	 viewBox="0 0 512 512" style="enable-background:new 0 0 512 512;" xml:space="preserve">
<path style="fill:#7FA24D;" d="M346.896,24.593c-1.46-3.934-4.609-7.004-8.579-8.365c-3.97-1.36-8.339-0.866-11.907,1.342
	c-26.26,16.25-78.208,59.288-80.69,146.482l31.366,5.373c0,0,27.002-60.96,77.848-88.797c6.081-3.33,8.816-10.618,6.403-17.118
	L346.896,24.593z"/>
<path style="fill:#A8DA64;" d="M5.541,99.356c8.049-13.205,19.332-26.339,31.643-35.642c16.112-12.04,34.623-17.756,53.555-11.824
	c3.526,1.087,6.964,2.537,10.25,4.274c0.842,0.469,1.686,0.94,2.535,1.413c0.688,0.411,1.377,0.824,2.071,1.238
	c0.779,0.495,1.561,0.991,2.346,1.489c0.748,0.504,1.499,1.009,2.253,1.516c5.954,4.173,11.91,9.208,16.908,16.053
	c10.932,15.147,10.113,31.032,2.453,41.702c-3.247,4.552-7.876,8.303-13.334,10.427c-11.311,4.503-23.274,1.07-31.821-5.946
	C70.441,112.891,62.47,91.491,67.032,71.024c1.085-4.876,2.955-9.688,5.563-14.135c1.32-2.214,2.811-4.334,4.459-6.326
	c1.672-1.969,3.477-3.817,5.407-5.497c14.281-12.257,33.253-15.194,51.882-13.951c25.386,1.633,47.209,10.113,65.822,24.857
	c11.7,9.339,20.742,20.136,27.788,30.625c11.038,16.448,19.227,35.296,24.789,54.584c3.95,13.863,5.026,22.185,5.117,22.747
	c1.113,9.271-5.501,17.689-14.773,18.801c-9.271,1.113-17.689-5.502-18.802-14.773c0.053,0.587-0.522-6.314-3.422-18.23
	c-3.939-15.983-10.124-32.245-18.838-46.375c-5.338-8.666-12.09-17.314-20.605-24.673c-11.842-10.28-24.043-15.581-37.87-18.782
	c0.059,0.011-0.364-0.078,0.089,0.015c-2.572-0.511-6.604-1.362-11.568-1.865c-11.08-1.189-24.48-0.605-33.279,6.393
	c-14.497,11.44-10.005,37.322,3.769,44.527c-0.086-0.038,0.41,0.202-0.152-0.066c8.854,4.035,17.24-6.03,8.334-19.642
	c-5.463-8.342-17.172-17.037-25.685-20.128c-4.644-1.702-9.343-2.302-13.931-2.005c-9.213,0.586-17.772,4.761-24.713,9.464
	C27.82,89.274,15.567,108.991,17.07,106.777c-2.127,3.134-6.392,3.948-9.526,1.822C4.509,106.538,3.658,102.457,5.541,99.356z"/>
<path style="fill:#FF4B00;" d="M195.907,325.313c0,85.331-13.447,171.209-67.546,171.209S0,410.643,0,325.313
	c0-85.331,67.254-168.077,121.352-168.077S195.907,239.982,195.907,325.313z"/>
<path style="fill:#E83E03;" d="M316.093,325.313c0,85.331,13.447,171.209,67.546,171.209S512,410.644,512,325.313
	s-67.254-168.077-121.352-168.077S316.093,239.982,316.093,325.313z"/>
<ellipse style="fill:#FF9900;" cx="256.003" cy="317.284" rx="133.13" ry="179.243"/>
<path style="fill:#FF6700;" d="M389.132,317.283c0,98.991-59.605,179.239-133.132,179.239V138.044
	C329.527,138.044,389.132,218.292,389.132,317.283z"/>
<g>
	<path style="fill:#D47100;" d="M256.513,138.052c-0.171-0.001-0.342-0.009-0.514-0.009v0.05
		C256.171,138.07,256.342,138.056,256.513,138.052z"/>
	<path style="fill:#D47100;" d="M256.001,496.473v0.05c0.171,0,0.342-0.008,0.514-0.009
		C256.342,496.509,256.171,496.495,256.001,496.473z"/>
</g>
<g>
</g>
<g>
</g>
<g>
</g>
<g>
</g>
<g>
</g>
<g>
</g>
<g>
</g>
<g>
</g>
<g>
</g>
<g>
</g>
<g>
</g>
<g>
</g>
<g>
</g>
<g>
</g>
<g>
</g>
</svg>
