<?xml version="1.0" encoding="iso-8859-1"?>
<!-- Generator: Adobe Illustrator 19.0.0, SVG Export Plug-In . SVG Version: 6.00 Build 0)  -->
<svg version="1.1" id="Layer_1" xmlns="http://www.w3.org/2000/svg" xmlns:xlink="http://www.w3.org/1999/xlink" x="0px" y="0px"
	 viewBox="0 0 512.001 512.001" style="enable-background:new 0 0 512.001 512.001;" xml:space="preserve">
<path style="fill:#FFD155;" d="M329.796,265.325H182.204c-10.797,0-19.127-9.518-17.708-20.214L185.62,86.043
	c1.179-8.879,8.751-15.51,17.708-15.51h105.346c8.956,0,16.527,6.633,17.708,15.51l21.123,159.068
	C348.924,255.815,340.585,265.325,329.796,265.325z"/>
<path style="fill:#FFC72D;" d="M347.502,245.111L326.38,86.043c-1.179-8.879-8.751-15.51-17.708-15.51H256v194.792h73.795
	C340.584,265.325,348.923,255.815,347.502,245.111z"/>
<path style="fill:#F1F2F2;" d="M238.657,498.469l-45.372-183.936c-2.778-11.263,5.764-22.14,17.342-22.14h90.744
	c11.599,0,20.115,10.898,17.342,22.14l-45.372,183.936C268.892,516.507,243.109,516.514,238.657,498.469z"/>
<path style="fill:#E6E7E8;" d="M301.371,292.395h-45.373v219.607c7.558-0.001,15.117-4.512,17.342-13.531l45.373-183.936
	C321.487,303.293,312.971,292.395,301.371,292.395z"/>
<g>
	<path style="fill:#FFDA79;" d="M327.915,106.257h-143.83c-29.295,0-53.129-23.833-53.129-53.129
		C130.956,23.834,154.789,0,184.085,0h143.83c29.295,0,53.129,23.833,53.129,53.129C381.043,82.423,357.209,106.257,327.915,106.257
		z"/>
	<path style="fill:#FFDA79;" d="M410.009,328.119H101.991c-14.451,0-22.909-16.317-14.62-28.126l34.62-49.316
		c9.265-13.198,24.425-21.079,40.551-21.079h186.915c16.127,0,31.286,7.88,40.552,21.079l34.62,49.314
		C432.931,311.822,424.436,328.119,410.009,328.119z"/>
</g>
<g>
	<path style="fill:#FFD155;" d="M327.915,0H256v106.257h71.915c29.295,0,53.129-23.833,53.129-53.129S357.209,0,327.915,0z"/>
	<path style="fill:#FFD155;" d="M424.628,299.993l-34.62-49.314c-9.266-13.199-24.425-21.079-40.552-21.079H256v98.519h154.009
		C424.436,328.119,432.931,311.822,424.628,299.993z"/>
</g>
<g>
</g>
<g>
</g>
<g>
</g>
<g>
</g>
<g>
</g>
<g>
</g>
<g>
</g>
<g>
</g>
<g>
</g>
<g>
</g>
<g>
</g>
<g>
</g>
<g>
</g>
<g>
</g>
<g>
</g>
</svg>
