<?xml version="1.0" encoding="iso-8859-1"?>
<!-- Generator: Adobe Illustrator 19.0.0, SVG Export Plug-In . SVG Version: 6.00 Build 0)  -->
<svg version="1.1" id="Layer_1" xmlns="http://www.w3.org/2000/svg" xmlns:xlink="http://www.w3.org/1999/xlink" x="0px" y="0px"
	 viewBox="0 0 512 512" style="enable-background:new 0 0 512 512;" xml:space="preserve">
<polygon style="fill:#CCCBCA;" points="240.712,334.4 240.712,496.717 240.712,496.717 255.992,512 271.268,496.717 271.268,334.4 
	"/>
<g>
	<rect x="207.096" y="303.846" style="fill:#E66847;" width="97.792" height="30.556"/>
	<rect x="170.852" y="59.581" style="fill:#E66847;" width="170.266" height="184.678"/>
</g>
<g>
	<path style="fill:#F67656;" d="M379.438,34.058c0,14.029-11.484,25.523-25.541,25.523H158.095
		c-14.052,0-25.533-11.492-25.533-25.523v-8.527C132.562,11.492,144.046,0,158.095,0h195.802c14.054,0,25.541,11.492,25.541,25.531
		V34.058z"/>
	<path style="fill:#F67656;" d="M379.438,278.326c0,14.024-11.484,25.521-25.541,25.521H158.095
		c-14.052,0-25.533-11.497-25.533-25.521v-8.527c0-14.072,11.482-25.546,25.533-25.546h195.802
		c14.054,0,25.541,11.474,25.541,25.546V278.326z"/>
</g>
<g>
</g>
<g>
</g>
<g>
</g>
<g>
</g>
<g>
</g>
<g>
</g>
<g>
</g>
<g>
</g>
<g>
</g>
<g>
</g>
<g>
</g>
<g>
</g>
<g>
</g>
<g>
</g>
<g>
</g>
</svg>
