<?xml version="1.0" encoding="iso-8859-1"?>
<!-- Generator: Adobe Illustrator 19.0.0, SVG Export Plug-In . SVG Version: 6.00 Build 0)  -->
<svg version="1.1" id="Layer_1" xmlns="http://www.w3.org/2000/svg" xmlns:xlink="http://www.w3.org/1999/xlink" x="0px" y="0px"
	 viewBox="0 0 512 512" style="enable-background:new 0 0 512 512;" xml:space="preserve">
<path style="fill:#FFDA79;" d="M314.517,170.231H197.1c-13.77,0-22.846-14.406-16.891-26.828l58.9-122.89
	c7.385-15.41,29.898-13.618,34.821,2.674c3.479,9.527,42.636,89.79,57.423,120.099C337.403,155.691,328.371,170.231,314.517,170.231
	z M273.972,23.329c0.035,0.12,0.07,0.24,0.102,0.361C274.046,23.587,274.014,23.467,273.972,23.329z"/>
<g>
	<path style="fill:#FFD155;" d="M331.353,143.286c-14.788-30.309-53.944-110.572-57.423-120.099
		c-2.626-8.692-10.259-13.253-17.929-13.281v160.325h58.517C328.371,170.231,337.403,155.691,331.353,143.286z M273.972,23.329
		c0.035,0.12,0.07,0.24,0.102,0.361C274.041,23.569,274.007,23.449,273.972,23.329z"/>
	<path style="fill:#FFD155;" d="M391.363,266.186c-20.911-42.926-42.71-87.415-65.14-133.418c-14.493,0-127.273,0-140.916,0
		l-5.094,10.628c-0.001,0.003-0.003,0.004-0.004,0.006l-58.9,122.89c-5.952,12.417,3.116,26.828,16.891,26.828h236.322
		C388.318,293.121,397.427,278.636,391.363,266.186z"/>
</g>
<g>
	<path style="fill:#FFC72D;" d="M391.363,266.186c-20.911-42.926-42.71-87.415-65.14-133.418c-7.204,0-38.695,0-70.221,0v160.353
		h118.522C388.317,293.121,397.427,278.636,391.363,266.186z"/>
	<path style="fill:#FFC72D;" d="M450.776,392.364c-1.419-5.214-6.868-18.307-59.413-126.177c-1.641-3.368-3.301-6.775-4.971-10.2
		c-0.001,0-260.142,0-260.143,0l-4.94,10.306l-58.901,122.89c-5.952,12.417,3.116,26.828,16.891,26.828h353.401
		C445.04,416.011,454.01,404.264,450.776,392.364z"/>
</g>
<path style="fill:#FFBE00;" d="M450.776,392.364c-1.419-5.214-6.868-18.307-59.413-126.177c-1.641-3.368-3.301-6.775-4.971-10.2
	c0,0-65.249,0-130.391,0v160.025h176.7C445.04,416.011,454.01,404.264,450.776,392.364z"/>
<path style="fill:#6A82A1;" d="M493.268,502.096H18.732C8.387,502.096,0,493.709,0,483.364v-86.085
	c0-10.345,8.387-18.732,18.732-18.732h474.537c10.345,0,18.732,8.387,18.732,18.732v86.085
	C512,493.709,503.613,502.096,493.268,502.096z"/>
<path style="fill:#36495E;" d="M493.268,378.549H256v123.548h237.268c10.345,0,18.732-8.387,18.732-18.732V397.28
	C512,386.934,503.613,378.549,493.268,378.549z"/>
<g>
</g>
<g>
</g>
<g>
</g>
<g>
</g>
<g>
</g>
<g>
</g>
<g>
</g>
<g>
</g>
<g>
</g>
<g>
</g>
<g>
</g>
<g>
</g>
<g>
</g>
<g>
</g>
<g>
</g>
</svg>
