<?xml version="1.0" encoding="iso-8859-1"?>
<!-- Generator: Adobe Illustrator 19.0.0, SVG Export Plug-In . SVG Version: 6.00 Build 0)  -->
<svg version="1.1" id="Layer_1" xmlns="http://www.w3.org/2000/svg" xmlns:xlink="http://www.w3.org/1999/xlink" x="0px" y="0px"
	 viewBox="0 0 512 512" style="enable-background:new 0 0 512 512;" xml:space="preserve">
<path style="fill:#FFC72D;" d="M449.909,389.778H323.367c-7.5,0-14.203-4.687-16.776-11.732l-15.973-43.721
	c-1.696-4.638-1.393-9.771,0.832-14.179l60.217-119.261c3.037-6.017,9.203-9.81,15.943-9.81c6.739,0,12.906,3.794,15.943,9.81
	l82.297,162.983C471.84,375.722,463.211,389.778,449.909,389.778z"/>
<path style="fill:#FFBE00;" d="M449.909,389.778H323.367c-7.5,0-14.203-4.687-16.776-11.732l-15.973-43.721
	c-1.696-4.638-1.393-9.771,0.832-14.179l60.217-119.261c3.037-6.017,9.203-9.81,15.943-9.81c6.739,0,12.906,3.794,15.943,9.81
	l82.297,162.983C471.84,375.722,463.211,389.778,449.909,389.778z"/>
<path style="fill:#E6E7E8;" d="M494.14,226.795H367.602c-23.601,0-23.626-35.721,0-35.721H494.14c9.864,0,17.86,7.997,17.86,17.86
	C512,218.798,504.003,226.795,494.14,226.795z"/>
<path style="fill:#FFD155;" d="M323.367,389.778H196.826c-8.059,0-15.118-5.396-17.234-13.172l-16.242-59.694
	c-0.972-3.566-0.811-7.345,0.457-10.816l60.486-165.584c2.574-7.045,9.276-11.733,16.777-11.733c7.501,0,14.203,4.687,16.776,11.732
	l82.297,225.279C344.394,377.423,335.771,389.778,323.367,389.778z"/>
<path style="fill:#FFC72D;" d="M340.143,365.788l-82.297-225.279c-0.479-1.311-1.101-2.54-1.846-3.673v252.941h67.367
	C335.771,389.778,344.394,377.423,340.143,365.788z"/>
<path style="fill:#FFDA79;" d="M196.826,389.778H32.231c-11.766,0-20.323-11.203-17.234-22.549l82.299-302.46
	c2.115-7.775,9.176-13.171,17.234-13.171s15.118,5.396,17.234,13.171l82.296,302.459
	C217.15,378.582,208.585,389.778,196.826,389.778z"/>
<path style="fill:#6A82A1;" d="M464.279,460.401H17.86c-9.864,0-17.86-7.997-17.86-17.86v-70.624c0-9.864,7.997-17.86,17.86-17.86
	h446.419c9.864,0,17.86,7.997,17.86,17.86v70.624C482.14,452.406,474.143,460.401,464.279,460.401z"/>
<g>
	<path style="fill:#F1F2F2;" d="M241.065,87.32H114.53c-23.601,0-23.626-35.721,0-35.721h126.537c9.864,0,17.86,7.997,17.86,17.86
		C258.927,79.323,250.929,87.32,241.065,87.32z"/>
	<path style="fill:#F1F2F2;" d="M367.602,164.498H241.065c-23.601,0-23.626-35.721,0-35.721h126.537
		c9.864,0,17.86,7.997,17.86,17.86C385.462,156.502,377.467,164.498,367.602,164.498z"/>
</g>
<path style="fill:#E6E7E8;" d="M367.602,128.778H256v35.721h111.602c9.864,0,17.86-7.997,17.86-17.86
	C385.462,136.774,377.467,128.778,367.602,128.778z"/>
<path style="fill:#36495E;" d="M464.279,354.058H256v106.345h208.279c9.864,0,17.86-7.997,17.86-17.86v-70.624
	C482.14,362.053,474.143,354.058,464.279,354.058z"/>
<g>
</g>
<g>
</g>
<g>
</g>
<g>
</g>
<g>
</g>
<g>
</g>
<g>
</g>
<g>
</g>
<g>
</g>
<g>
</g>
<g>
</g>
<g>
</g>
<g>
</g>
<g>
</g>
<g>
</g>
</svg>
