<?xml version="1.0" encoding="iso-8859-1"?>
<!-- Generator: Adobe Illustrator 19.0.0, SVG Export Plug-In . SVG Version: 6.00 Build 0)  -->
<svg version="1.1" id="Layer_1" xmlns="http://www.w3.org/2000/svg" xmlns:xlink="http://www.w3.org/1999/xlink" x="0px" y="0px"
	 viewBox="0 0 512 512" style="enable-background:new 0 0 512 512;" xml:space="preserve">
<path style="fill:#9AD14B;" d="M257.031,225.35c-5.044,0-9.133-4.088-9.133-9.133V9.133c0-5.045,4.089-9.133,9.133-9.133
	s9.133,4.088,9.133,9.133v207.084C266.164,221.261,262.075,225.35,257.031,225.35z"/>
<path style="fill:#90BC42;" d="M159.285,52.532l97.746,138.113c-60.106-45.372-68.143-31.563-91.828-59.181
	C141.531,103.834,159.285,52.532,159.285,52.532z"/>
<path style="fill:#9AD14B;" d="M354.777,52.532c0,0,17.754,51.302-5.918,78.932c-23.685,27.618-31.721,13.809-91.828,59.181
	L354.777,52.532z"/>
<path style="fill:#F95428;" d="M257.031,177.25c-64.247-0.548-117.327,51.57-117.911,115.817
	c-0.365,41.609,21.006,78.25,53.445,99.232c1.181,0.779,2.375,1.522,3.58,2.241c24.403,14.588,41.488,38.845,47.966,66.536
	L256.008,512l11.909-50.986c6.576-28.129,24.464-52.069,49.086-67.157c0.828-0.499,1.644-1.023,2.448-1.547
	c32.16-20.823,53.433-57.013,53.433-98.172C372.885,229.929,321.107,177.811,257.031,177.25z"/>
<path style="fill:#E6E6E6;" d="M256.008,376.542c22.905,0,44.507,5.699,63.443,15.757v0.012c-0.804,0.524-1.62,1.047-2.448,1.546
	c-24.622,15.087-42.51,39.028-49.086,67.157L256.008,512l-11.897-50.925c-6.478-27.691-23.563-51.948-47.966-66.536
	c-1.206-0.718-2.399-1.461-3.58-2.241C211.489,382.24,233.091,376.542,256.008,376.542z"/>
<path style="fill:#CCCCCC;" d="M251.625,461.075L256.008,512l-11.897-50.925c-6.478-27.691-23.563-51.948-47.966-66.536
	c-1.206-0.718-2.399-1.461-3.58-2.241c10.606-5.638,22.065-9.912,34.12-12.579c1.827,4.639,3.824,8.853,5.942,12.579
	c0.438,0.779,0.877,1.522,1.315,2.241C242.942,409.128,249.238,433.384,251.625,461.075z"/>
<path style="fill:#E54728;" d="M256.008,177.25c-23.526,0.012-42.864,51.923-43.083,115.817c-0.11,34.23,5.2,65.099,13.76,86.653
	c-12.055,2.667-23.514,6.941-34.12,12.579c-32.44-20.981-53.811-57.622-53.445-99.232
	C139.705,229.174,192.225,177.263,256.008,177.25z"/>
<g>
</g>
<g>
</g>
<g>
</g>
<g>
</g>
<g>
</g>
<g>
</g>
<g>
</g>
<g>
</g>
<g>
</g>
<g>
</g>
<g>
</g>
<g>
</g>
<g>
</g>
<g>
</g>
<g>
</g>
</svg>
