<?xml version="1.0" encoding="iso-8859-1"?>
<!-- Generator: Adobe Illustrator 19.0.0, SVG Export Plug-In . SVG Version: 6.00 Build 0)  -->
<svg version="1.1" id="Layer_1" xmlns="http://www.w3.org/2000/svg" xmlns:xlink="http://www.w3.org/1999/xlink" x="0px" y="0px"
	 viewBox="0 0 511.998 511.998" style="enable-background:new 0 0 511.998 511.998;" xml:space="preserve">
<path style="fill:#D8143A;" d="M376.8,172.214c-0.576-0.788-1.165-1.569-1.755-2.349c-0.394-0.523-0.785-1.049-1.188-1.569
	c-4.312-5.565-9.02-10.923-14.126-16.029c-5.083-5.081-10.437-9.795-16.018-14.134c-0.518-0.405-1.043-0.797-1.567-1.193
	c-0.779-0.593-1.564-1.181-2.355-1.758c-28.684-20.992-63.157-32.337-99.379-32.337c-45.067,0-87.438,17.552-119.308,49.422
	c-48.676,48.677-54.582,108.865-60.29,167.073C55.28,375.75,50.052,429.034,6.816,472.268C2.273,476.814,0,482.77,0,488.725
	s2.273,11.913,6.817,16.455c4.543,4.546,10.501,6.817,16.455,6.817c5.958,0,11.912-2.273,16.457-6.817
	c43.233-43.234,96.515-48.461,152.923-53.997c58.21-5.71,118.4-11.613,167.076-60.29C419.224,331.4,424.909,238.165,376.8,172.214z"
	/>
<path style="fill:#64C37D;" d="M428.858,116.054l47.236-47.23c9.087-9.089,9.087-23.827-0.003-32.915
	c-9.084-9.087-23.82-9.087-32.912,0l-47.234,47.236c-2.832-27.888-14.893-55.007-36.214-76.328c-9.09-9.089-23.823-9.089-32.914,0
	c-9.09,9.089-9.089,23.823,0.002,32.912c25.822,25.823,30.13,65.112,12.972,95.455c0.791,0.577,1.576,1.165,2.355,1.758
	c0.524,0.396,1.049,0.788,1.567,1.193c5.582,4.34,10.935,9.053,16.018,14.134c5.106,5.106,9.815,10.463,14.126,16.029
	c0.403,0.52,0.794,1.046,1.188,1.569c0.59,0.78,1.179,1.561,1.755,2.349c30.346-17.166,69.646-12.859,95.471,12.968
	c4.544,4.544,10.501,6.817,16.455,6.817c5.955,0,11.913-2.273,16.455-6.817c9.089-9.089,9.089-23.822,0-32.912
	C483.863,130.951,456.745,118.888,428.858,116.054z"/>
<path style="fill:#B8002B;" d="M343.712,138.135c-0.518-0.405-1.043-0.797-1.567-1.193c-0.779-0.593-1.564-1.181-2.355-1.758
	c-28.684-20.992-63.157-32.337-99.379-32.337c-45.067,0-87.438,17.552-119.308,49.422c-48.676,48.677-54.582,108.865-60.29,167.073
	C55.28,375.752,50.052,429.035,6.816,472.27C2.273,476.814,0,482.77,0,488.725s2.273,11.913,6.817,16.455L359.73,152.269
	C354.647,147.188,349.293,142.474,343.712,138.135z"/>
<g>
</g>
<g>
</g>
<g>
</g>
<g>
</g>
<g>
</g>
<g>
</g>
<g>
</g>
<g>
</g>
<g>
</g>
<g>
</g>
<g>
</g>
<g>
</g>
<g>
</g>
<g>
</g>
<g>
</g>
</svg>
