<?xml version="1.0" encoding="iso-8859-1"?>
<!-- Generator: Adobe Illustrator 19.0.0, SVG Export Plug-In . SVG Version: 6.00 Build 0)  -->
<svg version="1.1" id="Layer_1" xmlns="http://www.w3.org/2000/svg" xmlns:xlink="http://www.w3.org/1999/xlink" x="0px" y="0px"
	 viewBox="0 0 512 512" style="enable-background:new 0 0 512 512;" xml:space="preserve">
<path style="fill:#E69629;" d="M266.458,2.827C263.227,0.942,259.613,0,256,0s-7.227,0.942-10.458,2.827L84.337,96.863h41.193
	h41.193H256h89.276h41.193h41.193L266.458,2.827z"/>
<g>
	<path style="fill:#A78966;" d="M463.563,470.465l-207.566,0.011l-207.563,0.011c-11.463,0-20.755,9.293-20.755,20.758
		c0,11.463,9.295,20.756,20.758,20.755l207.56-0.011l207.568-0.011c11.463,0,20.755-9.293,20.755-20.758
		C484.321,479.757,475.026,470.465,463.563,470.465z"/>
	<path style="fill:#A78966;" d="M48.437,428.974l207.56-0.011l207.568-0.011c11.463,0,20.755-9.293,20.755-20.758
		c0-11.463-9.295-20.756-20.758-20.755l-207.566,0.011l-207.563,0.011c-11.463,0-20.755,9.293-20.755,20.758
		C27.679,419.682,36.974,428.974,48.437,428.974z"/>
</g>
<path style="fill:#DEDEE0;" d="M484.321,117.62c0-11.463-9.293-20.756-20.756-20.756h-35.902h-41.193h-41.193H256h-89.276h-41.192
	H84.337H48.436c-11.463,0-20.756,9.293-20.756,20.756c0,82.009,43.468,154.046,108.566,194.312
	c-2.986,3.595-4.784,8.213-4.784,13.252c0,11.463,9.293,20.756,20.756,20.756H256h103.782c11.463,0,20.756-9.293,20.756-20.756
	c0-5.04-1.798-9.657-4.784-13.252C440.853,271.666,484.321,199.628,484.321,117.62z"/>
<path style="fill:#D5851F;" d="M166.724,96.863H256V0c-3.613,0-7.227,0.942-10.458,2.827L84.337,96.863h41.195H166.724z"/>
<path style="fill:#D6D5D8;" d="M166.724,96.863h-41.192H84.337H48.436c-11.463,0-20.756,9.293-20.756,20.756
	c0,82.009,43.468,154.046,108.566,194.312c-2.986,3.595-4.784,8.213-4.784,13.252c0,11.463,9.293,20.756,20.756,20.756H256V96.863
	H166.724z"/>
<g>
	<path style="fill:#806749;" d="M27.679,408.219c0,11.463,9.295,20.756,20.758,20.755l207.56-0.011V387.45l-207.563,0.011
		C36.971,387.461,27.679,396.755,27.679,408.219z"/>
	<path style="fill:#806749;" d="M48.434,470.487c-11.463,0-20.755,9.293-20.755,20.758c0,11.463,9.295,20.756,20.758,20.755
		l207.56-0.011v-41.513L48.434,470.487z"/>
</g>
<g>
</g>
<g>
</g>
<g>
</g>
<g>
</g>
<g>
</g>
<g>
</g>
<g>
</g>
<g>
</g>
<g>
</g>
<g>
</g>
<g>
</g>
<g>
</g>
<g>
</g>
<g>
</g>
<g>
</g>
</svg>
