<?xml version="1.0" encoding="iso-8859-1"?>
<!-- Generator: Adobe Illustrator 19.0.0, SVG Export Plug-In . SVG Version: 6.00 Build 0)  -->
<svg version="1.1" id="Layer_1" xmlns="http://www.w3.org/2000/svg" xmlns:xlink="http://www.w3.org/1999/xlink" x="0px" y="0px"
	 viewBox="0 0 512 512" style="enable-background:new 0 0 512 512;" xml:space="preserve">
<path style="fill:#A78966;" d="M420.822,159.062c5.416-19.538,9.472-36.437,11.54-45.371c0.922-3.98,1.452-6.394,1.525-6.737
	c1.693-7.744-0.675-15.816-6.281-21.422c-5.604-5.604-13.675-7.973-21.422-6.281c-0.343,0.074-2.754,0.605-6.735,1.525
	c-11.022,2.551-34.167,8.128-59.428,15.552C314.289,85.016,285.868,78.717,256,78.717c-115.493,0-209.455,93.961-209.455,209.455
	c0,24.472,4.233,47.97,11.981,69.818h24.84h1.967h23.499H255.73h147.439h23.498h1.969h24.84
	c7.748-21.848,11.981-45.346,11.981-69.818C465.455,239.505,448.77,194.665,420.822,159.062z"/>
<path style="fill:#C3C3C7;" d="M488.727,357.99h-35.254h-24.84h-1.967h-23.499H255.729H108.831H85.333h-1.969h-24.84H23.273
	C10.42,357.99,0,368.41,0,381.262s10.42,23.273,23.273,23.273h42.345l12.274,73.644c1.87,11.222,11.579,19.447,22.956,19.447h154.88
	H256h155.152c11.377,0,21.087-8.225,22.956-19.447l12.274-73.644h42.346c12.853,0,23.273-10.42,23.273-23.273
	S501.58,357.99,488.727,357.99z"/>
<path style="fill:#806749;" d="M85.333,357.99h23.499H255.73h147.439h23.498h1.969h24.84c7.748-21.848,11.981-45.346,11.981-69.818
	c0-48.666-16.685-93.508-44.632-129.109c-1.306,4.707-2.687,9.564-4.143,14.502c-1.423,4.828-2.813,9.382-4.178,13.729
	c-3.558,11.334-6.924,21.079-10.097,29.48c-12.33,32.645-21.76,45.042-28.354,51.636c-17.271,17.271-40.235,26.784-64.659,26.784
	c-24.424,0-47.388-9.512-64.659-26.784c-35.652-35.652-35.652-93.665,0.002-129.317c3.668-3.668,9.132-8.214,18.868-13.647
	c8.99-5.016,21.642-10.791,39.897-17.332c10.176-3.646,22.077-7.528,36.08-11.653c0.151-0.043,0.296-0.087,0.445-0.13
	C314.289,85.016,285.868,78.717,256,78.717c-115.493,0-209.455,93.961-209.455,209.455c0,24.472,4.233,47.97,11.981,69.818h24.84
	H85.333z"/>
<path style="fill:#D6D5D8;" d="M427.607,85.534c5.606,5.604,7.973,13.677,6.281,21.422c-0.074,0.343-0.605,2.755-1.525,6.737
	l33.258-33.258h9.875c12.853,0,23.273-10.42,23.273-23.273c0-11.67-8.6-21.305-19.802-22.986
	c-1.68-11.202-11.315-19.802-22.986-19.802c-12.853,0-23.273,10.42-23.273,23.273v9.875L399.452,80.78
	c3.98-0.92,6.392-1.451,6.735-1.524C413.932,77.561,422.003,79.93,427.607,85.534z"/>
<path style="fill:#A9A8AE;" d="M108.833,357.99H85.333h-1.969h-24.84H23.273C10.42,357.99,0,368.41,0,381.262
	s10.42,23.273,23.273,23.273h42.345l12.274,73.644c1.87,11.222,11.579,19.447,22.956,19.447h154.88V357.99H108.833z"/>
<g>
</g>
<g>
</g>
<g>
</g>
<g>
</g>
<g>
</g>
<g>
</g>
<g>
</g>
<g>
</g>
<g>
</g>
<g>
</g>
<g>
</g>
<g>
</g>
<g>
</g>
<g>
</g>
<g>
</g>
</svg>
