<?xml version="1.0" encoding="iso-8859-1"?>
<!-- Generator: Adobe Illustrator 19.0.0, SVG Export Plug-In . SVG Version: 6.00 Build 0)  -->
<svg version="1.1" id="Layer_1" xmlns="http://www.w3.org/2000/svg" xmlns:xlink="http://www.w3.org/1999/xlink" x="0px" y="0px"
	 viewBox="0 0 512.002 512.002" style="enable-background:new 0 0 512.002 512.002;" xml:space="preserve">
<polygon style="fill:#98D9D5;" points="0,417.365 71.026,488.39 287.492,287.486 259.992,228.093 208.686,208.679 "/>
<polygon style="fill:#C1E8E6;" points="208.686,208.679 287.377,287.369 488.389,71.027 417.363,0.001 "/>
<polygon style="fill:#55A7A2;" points="71.026,488.39 94.637,512.001 303.322,303.315 307.463,275.564 279.711,279.704 "/>
<g>
	
		<rect x="379.164" y="39.621" transform="matrix(0.7071 0.7071 -0.7071 0.7071 248.2977 -225.0925)" style="fill:#98D9D5;" width="33.391" height="295.109"/>
	
		<rect x="364.376" y="50.114" transform="matrix(-0.7071 -0.7071 0.7071 -0.7071 631.7896 395.3155)" style="fill:#98D9D5;" width="66.782" height="33.391"/>
	
		<rect x="312.482" y="97.409" transform="matrix(-0.7071 -0.7071 0.7071 -0.7071 490.7574 431.4881)" style="fill:#98D9D5;" width="44.521" height="33.391"/>
	
		<rect x="257.322" y="152.561" transform="matrix(-0.7071 -0.7071 0.7071 -0.7071 357.5956 486.6333)" style="fill:#98D9D5;" width="44.521" height="33.391"/>
</g>
<g>
	
		<rect x="198.901" y="215.591" transform="matrix(-0.7071 -0.7071 0.7071 -0.7071 232.2965 560.7924)" style="fill:#55A7A2;" width="66.782" height="33.391"/>
	
		<rect x="147.002" y="262.886" transform="matrix(-0.7071 -0.7071 0.7071 -0.7071 91.2564 596.9617)" style="fill:#55A7A2;" width="44.521" height="33.391"/>
	
		<rect x="91.831" y="318.046" transform="matrix(-0.7071 -0.7071 0.7071 -0.7071 -41.9306 652.1142)" style="fill:#55A7A2;" width="44.521" height="33.391"/>
	
		<rect x="33.426" y="381.078" transform="matrix(-0.7071 -0.7071 0.7071 -0.7071 -167.2045 726.2883)" style="fill:#55A7A2;" width="66.782" height="33.391"/>
</g>
<g>
</g>
<g>
</g>
<g>
</g>
<g>
</g>
<g>
</g>
<g>
</g>
<g>
</g>
<g>
</g>
<g>
</g>
<g>
</g>
<g>
</g>
<g>
</g>
<g>
</g>
<g>
</g>
<g>
</g>
</svg>
