<?xml version="1.0" encoding="iso-8859-1"?>
<!-- Generator: Adobe Illustrator 19.0.0, SVG Export Plug-In . SVG Version: 6.00 Build 0)  -->
<svg version="1.1" id="Layer_1" xmlns="http://www.w3.org/2000/svg" xmlns:xlink="http://www.w3.org/1999/xlink" x="0px" y="0px"
	 viewBox="0 0 512 512" style="enable-background:new 0 0 512 512;" xml:space="preserve">
<path style="fill:#B3B3B3;" d="M256,512c-5.297,0-9.588-4.292-9.588-9.589V9.588C246.412,4.292,250.703,0,256,0
	s9.589,4.292,9.589,9.588v492.823C265.589,507.708,261.297,512,256,512z"/>
<path style="fill:#9AD14B;" d="M256,32.268c19.674,0,35.641,15.951,35.641,35.641S275.674,103.551,256,103.551
	c-19.69,0-35.641-15.951-35.641-35.641S236.31,32.268,256,32.268z"/>
<path style="fill:#90BC42;" d="M247.205,67.91c0-14.939,9.186-27.717,22.215-33.019c-4.143-1.686-8.672-2.623-13.42-2.623
	c-19.69,0-35.641,15.953-35.641,35.641c0,19.69,15.951,35.641,35.641,35.641c4.748,0,9.277-0.937,13.42-2.623
	C256.39,95.625,247.205,82.847,247.205,67.91z"/>
<path style="fill:#F95428;" d="M473.339,341.568c5.408,5.395,8.745,12.849,8.745,21.095c0,16.467-13.36,29.814-29.827,29.814
	l-192.979,58.161L59.73,392.476c-8.233,0-15.687-3.337-21.082-8.732c-5.395-5.395-8.732-12.849-8.732-21.082
	c0-16.479,13.347-29.827,29.814-29.827l201.466-35.607l191.062,35.607C460.491,332.836,467.944,336.173,473.339,341.568z"/>
<path style="fill:#E54728;" d="M116.209,362.661c0-16.479,13.347-29.827,29.814-29.827H59.73c-16.467,0-29.814,13.347-29.814,29.827
	c0,8.233,3.337,15.687,8.732,21.082c5.395,5.395,12.849,8.732,21.082,8.732h86.293c-8.233,0-15.687-3.337-21.082-8.732
	C119.546,378.348,116.209,370.894,116.209,362.661z"/>
<path style="fill:#F95428;" d="M473.352,207.776c-5.395-5.395-12.849-8.732-21.095-8.732l-56.83-32.212l-120.809,5.753
	L59.743,199.043c-16.479,0-29.827,13.347-29.827,29.814c0,8.233,3.337,15.687,8.732,21.095c5.395,5.395,12.849,8.732,21.095,8.732
	l251.311,48.133l90.127-11.506l51.077-36.627c16.479,0,29.827-13.36,29.827-29.827C482.084,220.624,478.747,213.17,473.352,207.776z
	"/>
<polygon style="fill:#F4DE3B;" points="390.559,199.044 330.918,258.685 290.519,299.084 250.119,258.685 190.479,199.044 "/>
<polygon style="fill:#F7B239;" points="500.826,392.476 500.826,466.627 256,466.627 11.174,466.627 11.174,392.476 59.73,392.476 
	452.257,392.476 "/>
<path style="fill:#E54728;" d="M116.209,228.871c0-16.479,13.347-29.827,29.814-29.827H59.73c-16.467,0-29.814,13.347-29.814,29.827
	c0,8.233,3.337,15.687,8.732,21.082s12.849,8.732,21.082,8.732h86.293c-8.233,0-15.687-3.337-21.082-8.732
	C119.546,244.558,116.209,237.104,116.209,228.871z"/>
<g>
	<polygon style="fill:#F7B239;" points="500.826,258.685 500.826,332.836 452.257,332.836 59.73,332.836 11.174,332.836 
		11.174,258.685 59.743,258.685 250.119,258.685 290.519,299.084 330.918,258.685 452.257,258.685 	"/>
	<polygon style="fill:#F7B239;" points="500.826,124.893 500.826,199.044 452.257,199.044 390.559,199.044 190.479,199.044 
		59.743,199.044 11.174,199.044 11.174,124.893 256,124.893 	"/>
</g>
<g>
	<polygon style="fill:#E09B2D;" points="80.872,258.685 80.872,332.836 73.958,332.836 65.176,332.836 36.696,332.836 
		18.088,332.836 11.174,332.836 11.174,258.685 46.022,258.685 	"/>
	<polygon style="fill:#E09B2D;" points="80.872,124.893 80.872,199.044 73.958,199.044 65.176,199.044 36.696,199.044 
		18.088,199.044 11.174,199.044 11.174,124.893 46.022,124.893 	"/>
	<polygon style="fill:#E09B2D;" points="80.872,392.476 80.872,466.627 73.958,466.627 65.176,466.627 36.696,466.627 
		18.088,466.627 11.174,466.627 11.174,392.476 46.022,392.476 	"/>
</g>
<g>
</g>
<g>
</g>
<g>
</g>
<g>
</g>
<g>
</g>
<g>
</g>
<g>
</g>
<g>
</g>
<g>
</g>
<g>
</g>
<g>
</g>
<g>
</g>
<g>
</g>
<g>
</g>
<g>
</g>
</svg>
