<?xml version="1.0" encoding="iso-8859-1"?>
<!-- Generator: Adobe Illustrator 19.0.0, SVG Export Plug-In . SVG Version: 6.00 Build 0)  -->
<svg version="1.1" id="Layer_1" xmlns="http://www.w3.org/2000/svg" xmlns:xlink="http://www.w3.org/1999/xlink" x="0px" y="0px"
	 viewBox="0 0 511.998 511.998" style="enable-background:new 0 0 511.998 511.998;" xml:space="preserve">
<g>
	<path style="fill:#FFB655;" d="M411.142,7.734h-62.059h-93.089c-0.002,0-0.002,0-0.003,0l0,0h-93.086h-62.059
		C45.24,7.734,0,52.973,0,108.58v46.544c0,12.852,10.42,23.272,23.272,23.272h232.719l0,0h232.725
		c12.852,0,23.272-10.42,23.272-23.272V108.58C511.988,52.975,466.748,7.734,411.142,7.734z"/>
	<path style="fill:#FFB655;" d="M488.715,333.603H255.991H23.272C10.42,333.603,0,344.023,0,356.875v46.544
		c0,55.608,45.24,100.846,100.846,100.846h155.145h155.151c55.607,0,100.846-45.238,100.846-100.846v-46.544
		C511.988,344.021,501.568,333.603,488.715,333.603z"/>
</g>
<path style="fill:#E07188;" d="M481.361,233.953c-10.995,3.665-19.677,6.561-39.167,6.561c-0.003,0-0.009,0-0.014,0
	c-19.494,0.002-28.183-2.895-39.184-6.561c-12.582-4.194-26.844-8.947-53.869-8.95c-0.014,0-0.026-0.003-0.037-0.003
	c-27.052,0.002-41.317,4.757-53.906,8.954c-10.998,3.666-19.685,6.561-39.176,6.561c0,0-0.005,0-0.006,0
	c-19.496,0.002-28.186-2.895-39.187-6.561c-12.581-4.194-26.842-8.946-53.861-8.95c-0.014,0-0.026-0.003-0.039-0.003
	c-27.052,0.002-41.317,4.757-53.905,8.954c-11,3.666-19.684,6.561-39.178,6.561c-0.008,0-0.014,0-0.02,0
	c-19.485,0-28.172-2.895-39.167-6.561l-0.008-0.003c-12.192-4.065-25.368,2.527-29.435,14.72
	c-4.063,12.192,2.529,25.373,14.722,29.438c12.584,4.195,26.848,8.95,53.884,8.95c0.012,0,0.019,0,0.025,0
	c27.041,0,41.307-4.754,53.892-8.95c10.995-3.666,19.684-6.561,39.158-6.564c0.009,0,0.019,0.002,0.026,0.002
	c19.496,0,28.186,2.897,39.187,6.563c12.587,4.195,26.856,8.952,53.903,8.95c0.005,0,0.005,0,0.009,0
	c27.041,0,41.307-4.754,53.892-8.95c10.997-3.666,19.685-6.561,39.164-6.564c0.009,0,0.017,0.002,0.026,0.002
	c19.496,0,28.186,2.897,39.187,6.563c12.587,4.195,26.856,8.952,53.9,8.95c0.006,0,0.009,0,0.016,0
	c27.039,0,41.305-4.754,53.886-8.95c12.193-4.066,18.782-17.246,14.716-29.439S493.556,229.887,481.361,233.953z"/>
<g>
	<path style="fill:#806749;" d="M139.633,31.006v23.272V77.55c0,12.852,10.42,23.272,23.272,23.272
		c12.852,0,23.272-10.42,23.272-23.272V54.278V31.006c0-12.852-10.42-23.272-23.272-23.272
		C150.053,7.734,139.633,18.153,139.633,31.006z"/>
	<path style="fill:#806749;" d="M325.81,31.006v23.272V77.55c0,12.852,10.42,23.272,23.272,23.272
		c12.852,0,23.272-10.42,23.272-23.272V54.278V31.006c0-12.852-10.42-23.272-23.272-23.272
		C336.23,7.734,325.81,18.153,325.81,31.006z"/>
	<path style="fill:#806749;" d="M255.994,7.734c-0.002,0-0.002,0-0.003,0c-0.413,0-0.813,0.04-1.219,0.062
		c-0.386,0.02-0.777,0.02-1.157,0.057c-0.455,0.047-0.897,0.133-1.342,0.206c-0.321,0.051-0.652,0.082-0.968,0.147
		c-0.462,0.096-0.908,0.23-1.358,0.351c-0.29,0.078-0.588,0.135-0.873,0.225c-0.335,0.102-0.653,0.239-0.981,0.357
		c-0.388,0.141-0.782,0.265-1.159,0.424c-0.149,0.064-0.289,0.146-0.434,0.211c-6.049,2.71-10.739,7.911-12.73,14.314
		c-0.095,0.299-0.157,0.614-0.236,0.918c-0.116,0.436-0.247,0.867-0.338,1.313c-0.053,0.258-0.076,0.526-0.119,0.788
		c-0.216,1.269-0.354,2.568-0.354,3.899v23.272V77.55c0,1.03,0.09,2.037,0.22,3.03c0.073,0.557,0.143,1.117,0.253,1.66
		c0.006,0.028,0.017,0.056,0.023,0.085c0.188,0.903,0.442,1.78,0.734,2.641c0.405,1.205,0.897,2.371,1.485,3.48
		c0.034,0.064,0.061,0.132,0.096,0.195c3.537,6.513,10.099,11.136,17.797,12.016c0.096,0.011,0.189,0.033,0.285,0.043
		c0.478,0.048,0.967,0.054,1.454,0.073c0.309,0.012,0.613,0.047,0.926,0.047c0.002,0,0.002,0,0.003,0
		c12.852,0,23.272-10.42,23.272-23.272V54.276V31.004C279.266,18.153,268.846,7.734,255.994,7.734z"/>
</g>
<g>
	<path style="fill:#EE8700;" d="M23.272,333.603C10.42,333.603,0,344.023,0,356.875v46.544c0,55.608,45.24,100.846,100.846,100.846
		h155.145V333.603L23.272,333.603L23.272,333.603z"/>
	<path style="fill:#EE8700;" d="M23.272,178.396h232.719v-77.574c-0.313,0-0.616-0.034-0.926-0.047
		c-0.487-0.019-0.976-0.025-1.454-0.073c-0.098-0.011-0.189-0.033-0.285-0.043c-7.698-0.88-14.258-5.503-17.797-12.016
		c-0.034-0.064-0.061-0.132-0.095-0.195c-0.588-1.109-1.08-2.274-1.485-3.48c-0.292-0.861-0.546-1.738-0.734-2.641
		c-0.006-0.029-0.017-0.056-0.023-0.085c-0.11-0.545-0.18-1.103-0.253-1.66c-0.13-0.994-0.22-2-0.22-3.03V54.28V31.007
		c0-1.331,0.138-2.63,0.354-3.902c0.043-0.262,0.067-0.531,0.119-0.788c0.092-0.445,0.222-0.875,0.338-1.313
		c0.081-0.304,0.143-0.617,0.236-0.918c1.991-6.403,6.681-11.604,12.73-14.314c0.147-0.065,0.285-0.147,0.434-0.211
		c0.377-0.16,0.771-0.284,1.159-0.424c0.327-0.118,0.645-0.254,0.981-0.357c0.285-0.09,0.583-0.147,0.873-0.225
		c0.45-0.121,0.895-0.254,1.358-0.351c0.316-0.065,0.647-0.095,0.968-0.147c0.445-0.073,0.887-0.158,1.342-0.206
		c0.38-0.037,0.771-0.037,1.157-0.057c0.406-0.022,0.808-0.062,1.219-0.062h-93.082c12.852,0,23.272,10.42,23.272,23.272v23.272
		v23.272c0,12.852-10.42,23.272-23.272,23.272c-12.852,0-23.272-10.42-23.272-23.272V54.276V31.004
		c0-12.852,10.42-23.272,23.272-23.272h-62.059C45.24,7.732,0,52.972,0,108.578v46.544C0,167.978,10.42,178.396,23.272,178.396z"/>
</g>
<g>
	<path style="fill:#D5851F;" d="M232.722,31.006c0-1.331,0.138-2.63,0.354-3.902C232.86,28.376,232.722,29.675,232.722,31.006z"/>
	<path style="fill:#D5851F;" d="M233.195,26.317c0.092-0.445,0.222-0.875,0.338-1.313C233.415,25.441,233.285,25.872,233.195,26.317
		z"/>
	<path style="fill:#D5851F;" d="M235.435,88.448c-0.588-1.109-1.08-2.274-1.485-3.48C234.355,86.173,234.847,87.338,235.435,88.448z
		"/>
	<path style="fill:#D5851F;" d="M232.942,80.582c-0.13-0.994-0.22-2-0.22-3.03C232.722,78.58,232.812,79.587,232.942,80.582z"/>
	<path style="fill:#D5851F;" d="M255.064,100.776c-0.487-0.019-0.976-0.025-1.454-0.073
		C254.09,100.751,254.579,100.757,255.064,100.776z"/>
	<path style="fill:#D5851F;" d="M246.933,9.563c0.377-0.16,0.771-0.284,1.159-0.424C247.704,9.279,247.31,9.405,246.933,9.563z"/>
	<path style="fill:#D5851F;" d="M233.217,82.327c-0.006-0.029-0.017-0.056-0.023-0.085C233.201,82.27,233.21,82.298,233.217,82.327z
		"/>
	<path style="fill:#D5851F;" d="M251.304,8.207c0.316-0.065,0.647-0.095,0.968-0.147C251.951,8.112,251.62,8.142,251.304,8.207z"/>
	<path style="fill:#D5851F;" d="M235.531,88.643c3.537,6.513,10.099,11.136,17.797,12.016
		C245.628,99.78,239.069,95.156,235.531,88.643z"/>
	<path style="fill:#D5851F;" d="M246.499,9.774c-6.049,2.71-10.739,7.911-12.73,14.314C235.759,17.683,240.448,12.484,246.499,9.774
		z"/>
	<path style="fill:#D5851F;" d="M253.614,7.855c0.38-0.037,0.771-0.037,1.157-0.057C254.385,7.816,253.994,7.816,253.614,7.855z"/>
	<path style="fill:#D5851F;" d="M249.073,8.781c0.285-0.09,0.583-0.147,0.873-0.225C249.656,8.634,249.358,8.693,249.073,8.781z"/>
</g>
<g>
</g>
<g>
</g>
<g>
</g>
<g>
</g>
<g>
</g>
<g>
</g>
<g>
</g>
<g>
</g>
<g>
</g>
<g>
</g>
<g>
</g>
<g>
</g>
<g>
</g>
<g>
</g>
<g>
</g>
</svg>
