<?xml version="1.0" encoding="iso-8859-1"?>
<!-- Generator: Adobe Illustrator 19.0.0, SVG Export Plug-In . SVG Version: 6.00 Build 0)  -->
<svg version="1.1" id="Layer_1" xmlns="http://www.w3.org/2000/svg" xmlns:xlink="http://www.w3.org/1999/xlink" x="0px" y="0px"
	 viewBox="0 0 512 512" style="enable-background:new 0 0 512 512;" xml:space="preserve">
<path style="fill:#FF3F62;" d="M209.455,93.091h-26.83L170.35,19.447C168.481,8.225,158.771,0,147.394,0h-31.03h-31.03
	C73.956,0,64.247,8.225,62.377,19.447L50.103,93.091h-26.83C10.42,93.091,0,103.511,0,116.364v93.091v279.273
	C0,501.58,10.42,512,23.273,512h93.091h93.091c12.853,0,23.273-10.42,23.273-23.273V209.455v-93.091
	C232.727,103.511,222.307,93.091,209.455,93.091z"/>
<path style="fill:#830018;" d="M209.455,93.091h-26.83H159.03h-23.594h-19.073H97.291H73.697H50.103h-26.83
	C10.42,93.091,0,103.511,0,116.364v93.091c0-12.853,10.42-23.273,23.273-23.273h23.273h69.818h69.818h23.273
	c12.853,0,23.273,10.42,23.273,23.273v-93.091C232.727,103.511,222.307,93.091,209.455,93.091z"/>
<g>
	<path style="fill:#D8143A;" d="M62.377,19.447L50.103,93.091h23.594h23.594h19.073V0h-31.03C73.956,0,64.247,8.225,62.377,19.447z"
		/>
	<path style="fill:#D8143A;" d="M46.545,186.182H23.273C10.42,186.182,0,196.602,0,209.455v279.273C0,501.58,10.42,512,23.273,512
		h93.091V186.182H46.545z"/>
</g>
<path style="fill:#70001E;" d="M73.697,93.091H50.103h-26.83C10.42,93.091,0,103.511,0,116.364v93.091
	c0-12.853,10.42-23.273,23.273-23.273h23.273h69.818V93.091H97.291H73.697z"/>
<path style="fill:#F4D853;" d="M488.727,93.091h-26.83l-12.274-73.644C447.753,8.225,438.044,0,426.667,0h-31.03h-31.03
	c-11.377,0-21.087,8.225-22.956,19.447l-12.274,73.644h-26.83c-12.853,0-23.273,10.42-23.273,23.273v93.091v279.273
	c0,12.853,10.42,23.273,23.273,23.273h93.091h93.091C501.58,512,512,501.58,512,488.727V209.455v-93.091
	C512,103.511,501.58,93.091,488.727,93.091z"/>
<path style="fill:#FFB655;" d="M488.727,93.091h-26.83h-23.594h-23.594h-19.073h-19.073H352.97h-23.594h-26.83
	c-12.853,0-23.273,10.42-23.273,23.273v93.091c0-12.853,10.42-23.273,23.273-23.273h23.273h69.818h69.818h23.273
	c12.853,0,23.273,10.42,23.273,23.273v-93.091C512,103.511,501.58,93.091,488.727,93.091z"/>
<path style="fill:#EE8700;" d="M302.545,186.182h23.273h69.818V93.091h-19.073H352.97h-23.594h-26.83
	c-12.853,0-23.273,10.42-23.273,23.273v93.091C279.273,196.602,289.693,186.182,302.545,186.182z"/>
<g>
	<path style="fill:#EEBF00;" d="M376.564,93.091h19.073V0h-31.03c-11.377,0-21.087,8.225-22.956,19.447l-12.274,73.644h23.594
		H376.564z"/>
	<path style="fill:#EEBF00;" d="M325.818,186.182h-23.273c-12.853,0-23.273,10.42-23.273,23.273v279.273
		c0,12.853,10.42,23.273,23.273,23.273h93.091V186.182H325.818z"/>
</g>
<g>
</g>
<g>
</g>
<g>
</g>
<g>
</g>
<g>
</g>
<g>
</g>
<g>
</g>
<g>
</g>
<g>
</g>
<g>
</g>
<g>
</g>
<g>
</g>
<g>
</g>
<g>
</g>
<g>
</g>
</svg>
