<?xml version="1.0" encoding="iso-8859-1"?>
<!-- Generator: Adobe Illustrator 19.0.0, SVG Export Plug-In . SVG Version: 6.00 Build 0)  -->
<svg version="1.1" id="Layer_1" xmlns="http://www.w3.org/2000/svg" xmlns:xlink="http://www.w3.org/1999/xlink" x="0px" y="0px"
	 viewBox="0 0 512.001 512.001" style="enable-background:new 0 0 512.001 512.001;" xml:space="preserve">
<path style="fill:#185F8D;" d="M88.087,24.645l230.953,336.79l23.322-49.1L109.957,1.564C101.284,8.053,93.918,15.858,88.087,24.645
	z"/>
<path style="fill:#4284B2;" d="M485.724,347.012c-23.781-31.796-58.739-50.779-93.515-50.779c-18.525,0-35.764,5.569-49.851,16.106
	c-8.707,6.512-15.848,14.588-21.275,23.885L88.087,24.645C80.48,36.087,75.444,49.2,73.417,63.254
	c-3.584,24.837,2.675,49.518,17.617,69.506l243.989,326.78c0.029,0.039,0.056,0.078,0.086,0.118
	c23.781,31.796,58.74,50.779,93.515,50.779c18.525,0,35.764-5.569,49.851-16.106c20.653-15.447,32.539-39.669,33.469-68.206
	C512.83,398.9,503.519,370.804,485.724,347.012z M480.613,425.104c-0.613,18.827-8.04,34.497-20.914,44.125
	c-8.626,6.451-19.372,9.862-31.076,9.862c-24.573,0-50.786-14.64-68.412-38.207c-13.548-18.114-20.648-39.181-19.992-59.32
	c0.613-18.827,8.04-34.496,20.914-44.124c8.626-6.451,19.372-9.862,31.076-9.862c24.573,0,50.786,14.64,68.411,38.207
	C474.169,383.901,481.269,404.967,480.613,425.104z"/>
<path style="fill:#77C0BC;" d="M423.916,24.645l-230.953,336.79l-23.322-49.1L402.046,1.564
	C410.719,8.053,418.085,15.858,423.916,24.645z"/>
<path style="fill:#98D9D5;" d="M438.586,63.254c-2.027-14.054-7.063-27.167-14.67-38.609L190.918,336.223
	c-5.426-9.296-12.568-17.373-21.275-23.885c-14.087-10.536-31.326-16.106-49.851-16.106c-34.775,0-69.734,18.983-93.515,50.779
	C8.483,370.804-0.829,398.9,0.058,426.125c0.93,28.537,12.817,52.76,33.469,68.206c14.087,10.536,31.326,16.106,49.851,16.106
	c34.775,0,69.734-18.983,93.515-50.779c0.029-0.039,0.057-0.078,0.086-0.118l243.989-326.78
	C435.911,112.772,442.17,88.091,438.586,63.254z M151.791,440.884c-17.625,23.567-43.84,38.207-68.412,38.207
	c-11.705,0-22.451-3.411-31.076-9.862c-12.873-9.628-20.3-25.298-20.914-44.125c-0.656-20.137,6.444-41.204,19.992-59.319
	c17.625-23.567,43.84-38.207,68.411-38.207c11.705,0,22.451,3.411,31.076,9.862c12.873,9.628,20.3,25.297,20.914,44.124
	C172.439,401.703,165.339,422.77,151.791,440.884z"/>
<g>
</g>
<g>
</g>
<g>
</g>
<g>
</g>
<g>
</g>
<g>
</g>
<g>
</g>
<g>
</g>
<g>
</g>
<g>
</g>
<g>
</g>
<g>
</g>
<g>
</g>
<g>
</g>
<g>
</g>
</svg>
