<?xml version="1.0" encoding="iso-8859-1"?>
<!-- Generator: Adobe Illustrator 19.0.0, SVG Export Plug-In . SVG Version: 6.00 Build 0)  -->
<svg version="1.1" id="Layer_1" xmlns="http://www.w3.org/2000/svg" xmlns:xlink="http://www.w3.org/1999/xlink" x="0px" y="0px"
	 viewBox="0 0 512 512" style="enable-background:new 0 0 512 512;" xml:space="preserve">
<path style="fill:#E6E7E8;" d="M223.161,376.8l-91.893-66.214c-4.659-3.356-7.419-8.749-7.419-14.49V84.269
	c0-5.667,2.691-10.999,7.25-14.366l89.888-66.387c11.778-8.698,28.469-0.257,28.469,14.366v272.537l21.128,29.888
	c4.367,6.178,4.367,14.438,0,20.617l-22.398,31.693C242.469,380.706,231.227,382.612,223.161,376.8z"/>
<path style="fill:#D1D3D4;" d="M226.159,399.983c-3.14-4.348-6.934-8.108-11.277-11.174c-8.055-5.688-9.978-16.841-4.284-24.898
	l51.932-73.472V17.883c0-14.644,16.708-23.052,28.47-14.366l89.888,66.386c4.559,3.367,7.25,8.699,7.25,14.366v211.826
	c0,5.741-2.76,11.133-7.418,14.489l-129.637,93.432C243.092,409.776,231.935,407.983,226.159,399.983z"/>
<path style="fill:#2C3E50;" d="M324.923,344.251c-46.248,0-83.874,37.455-83.874,83.874c0,46.248,37.627,83.875,83.874,83.875
	s83.874-37.627,83.874-83.875C408.798,381.877,371.171,344.251,324.923,344.251z M324.923,458.891
	c-16.964,0-30.765-13.801-30.765-30.765s13.801-30.765,30.765-30.765c16.964,0,30.765,13.801,30.765,30.765
	S341.887,458.891,324.923,458.891z"/>
<path style="fill:#36495E;" d="M187.078,344.251c-46.248,0-83.875,37.626-83.875,83.874S140.83,512,187.078,512
	s83.874-37.627,83.874-83.875C270.952,381.796,233.405,344.251,187.078,344.251z M187.077,458.891
	c-16.964,0-30.765-13.801-30.765-30.765s13.801-30.765,30.765-30.765s30.766,13.801,30.766,30.765
	C217.843,445.09,204.041,458.891,187.077,458.891z"/>
<g>
</g>
<g>
</g>
<g>
</g>
<g>
</g>
<g>
</g>
<g>
</g>
<g>
</g>
<g>
</g>
<g>
</g>
<g>
</g>
<g>
</g>
<g>
</g>
<g>
</g>
<g>
</g>
<g>
</g>
</svg>
