<?xml version="1.0" encoding="iso-8859-1"?>
<!-- Generator: Adobe Illustrator 19.0.0, SVG Export Plug-In . SVG Version: 6.00 Build 0)  -->
<svg version="1.1" id="Layer_1" xmlns="http://www.w3.org/2000/svg" xmlns:xlink="http://www.w3.org/1999/xlink" x="0px" y="0px"
	 viewBox="0 0 512 512" style="enable-background:new 0 0 512 512;" xml:space="preserve">
<path style="fill:#EDEDEF;" d="M512,52.044v292.571l-256,22.506L0,344.615V52.044c0-18.567,15.191-33.758,33.758-33.758h444.484
	C496.809,18.286,512,33.477,512,52.044z"/>
<polygon style="fill:#A7AFBA;" points="320.703,400.879 331.956,485.275 180.044,485.275 191.297,400.879 256,378.374 "/>
<g>
	<path style="fill:#BEC3CC;" d="M399.473,493.714H112.527c-4.661,0-8.44-3.778-8.44-8.44s3.779-8.44,8.44-8.44h286.945
		c4.661,0,8.44,3.778,8.44,8.44S404.133,493.714,399.473,493.714z"/>
	<path style="fill:#BEC3CC;" d="M0,344.615v22.506c0,18.567,15.191,33.758,33.758,33.758h444.484
		c18.567,0,33.758-15.191,33.758-33.758v-22.506H0z"/>
</g>
<g>
	<path style="fill:#FFA72E;" d="M137.846,181.451l76.451,22.505L256,63.297C190.745,63.297,137.846,116.196,137.846,181.451z"/>
	<path style="fill:#FFA72E;" d="M256,63.297l41.703,140.659l76.451-22.505C374.154,116.196,321.255,63.297,256,63.297z"/>
</g>
<g>
	<path style="fill:#FF8B00;" d="M214.297,181.451h-76.451c0,65.255,52.899,118.154,118.154,118.154L214.297,181.451z"/>
	<path style="fill:#FF8B00;" d="M256,63.297c23.034,0,41.703,52.899,41.703,118.154L256,203.956l-41.703-22.505
		C214.297,116.196,232.966,63.297,256,63.297z"/>
	<path style="fill:#FF8B00;" d="M297.703,181.451L256,299.604c65.255,0,118.154-52.899,118.154-118.154H297.703z"/>
</g>
<path style="fill:#FFA72E;" d="M214.297,181.451h83.405c0,65.255-18.668,118.154-41.703,118.154
	C232.966,299.604,214.297,246.705,214.297,181.451z"/>
<path style="fill:#FFFFFF;" d="M256,54.857c-69.804,0-126.593,56.789-126.593,126.593S186.196,308.044,256,308.044
	s126.593-56.789,126.593-126.593S325.804,54.857,256,54.857z M365.392,173.011h-59.366c-0.711-29.333-5.108-56.742-12.581-77.916
	c-2.803-7.942-5.799-14.371-8.878-19.578C328.636,87.412,361.811,126.135,365.392,173.011z M256,291.165
	c-12.982,0-31.575-39.181-33.143-101.275h66.285C287.575,251.984,268.982,291.165,256,291.165z M222.857,173.011
	c1.568-62.094,20.16-101.275,33.143-101.275c12.982,0,31.575,39.181,33.143,101.275H222.857z M227.433,75.516
	c-3.08,5.208-6.075,11.636-8.878,19.578c-7.473,21.174-11.869,48.584-12.581,77.916h-59.366
	C150.189,126.135,183.364,87.412,227.433,75.516z M146.608,189.89h59.366c0.711,29.333,5.108,56.742,12.581,77.916
	c2.803,7.942,5.799,14.371,8.878,19.578C183.364,275.489,150.189,236.766,146.608,189.89z M284.567,287.385
	c3.08-5.208,6.075-11.636,8.878-19.578c7.473-21.174,11.869-48.584,12.581-77.916h59.366
	C361.811,236.766,328.636,275.489,284.567,287.385z"/>
<g>
</g>
<g>
</g>
<g>
</g>
<g>
</g>
<g>
</g>
<g>
</g>
<g>
</g>
<g>
</g>
<g>
</g>
<g>
</g>
<g>
</g>
<g>
</g>
<g>
</g>
<g>
</g>
<g>
</g>
</svg>
