<?xml version="1.0" encoding="iso-8859-1"?>
<!-- Generator: Adobe Illustrator 19.0.0, SVG Export Plug-In . SVG Version: 6.00 Build 0)  -->
<svg version="1.1" id="Capa_1" xmlns="http://www.w3.org/2000/svg" xmlns:xlink="http://www.w3.org/1999/xlink" x="0px" y="0px"
	 viewBox="0 0 360 360" style="enable-background:new 0 0 360 360;" xml:space="preserve">
<g id="XMLID_1234_">
	<rect id="XMLID_73_" y="30" style="fill:#6DA8D6;" width="360" height="300"/>
	<rect id="XMLID_1238_" x="180" y="30" style="fill:#2974A8;" width="180" height="300"/>
	<g id="XMLID_1239_">
		<rect id="XMLID_66_" x="31.765" y="72.904" style="fill:#DEDFE8;" width="296.471" height="192.548"/>
		<rect id="XMLID_1243_" x="180" y="72.904" style="fill:#C9C7D7;" width="148.235" height="192.548"/>
	</g>
	<circle id="XMLID_1246_" style="fill:#DEDFE8;" cx="180" cy="300" r="20"/>
	<path id="XMLID_1249_" style="fill:#C9C7D7;" d="M180,280v40c11.046,0,20-8.954,20-20S191.046,280,180,280z"/>
	<g id="XMLID_1250_">
		<path id="XMLID_1256_" style="fill:#F9E375;" d="M175,217.445v-14.89l-9.559-3.414c-0.696-2.274-1.605-4.455-2.704-6.52
			l4.347-9.177l-10.529-10.528l-9.177,4.347c-2.065-1.098-4.245-2.008-6.519-2.704L137.445,165h-14.89l-3.414,9.559
			c-2.274,0.696-4.455,1.605-6.519,2.704l-9.177-4.347l-10.529,10.528l4.347,9.177c-1.098,2.065-2.008,4.245-2.704,6.52L85,202.555
			v14.89l9.559,3.414c0.696,2.274,1.605,4.455,2.704,6.52l-4.347,9.177l10.529,10.529l9.177-4.347
			c2.065,1.098,4.245,2.008,6.519,2.704l3.414,9.559h14.89l3.414-9.559c2.274-0.696,4.455-1.605,6.519-2.704l9.177,4.347
			l10.529-10.529l-4.347-9.177c1.098-2.065,2.008-4.246,2.704-6.52L175,217.445z M130,230c-11.046,0-20-8.954-20-20s8.954-20,20-20
			s20,8.954,20,20S141.046,230,130,230z"/>
		<path id="XMLID_1264_" style="fill:#F9E375;" d="M270,164.099v-18.198l-11.684-4.173c-0.851-2.78-1.962-5.444-3.304-7.968
			l5.313-11.217l-12.868-12.868l-11.217,5.313c-2.524-1.343-5.189-2.454-7.968-3.304L224.099,100h-18.198l-4.173,11.684
			c-2.779,0.851-5.444,1.962-7.968,3.304l-11.217-5.313l-12.868,12.868l5.313,11.217c-1.342,2.524-2.454,5.189-3.304,7.968
			L160,145.901v18.198l11.684,4.173c0.851,2.779,1.962,5.444,3.304,7.968l-5.313,11.217l12.868,12.868l11.217-5.313
			c2.524,1.343,5.189,2.454,7.968,3.305L205.901,210h18.198l4.173-11.684c2.779-0.851,5.444-1.962,7.968-3.305l11.217,5.313
			l12.868-12.868l-5.313-11.217c1.343-2.524,2.454-5.189,3.304-7.968L270,164.099z M215,180c-13.807,0-25-11.193-25-25
			s11.193-25,25-25s25,11.193,25,25S228.807,180,215,180z"/>
		<path id="XMLID_1272_" style="fill:#F5D361;" d="M270,164.099v-18.198l-11.684-4.173c-0.851-2.78-1.962-5.444-3.304-7.968
			l5.313-11.217l-12.868-12.868l-11.217,5.313c-2.524-1.343-5.189-2.454-7.968-3.304L224.099,100h-18.198l-4.173,11.684
			c-2.779,0.851-5.444,1.962-7.968,3.304l-11.217-5.313L180,112.218v85.563l2.543,2.543l11.217-5.313
			c2.524,1.343,5.189,2.454,7.968,3.305L205.901,210h18.198l4.173-11.684c2.779-0.851,5.444-1.962,7.968-3.305l11.217,5.313
			l12.868-12.868l-5.313-11.217c1.343-2.524,2.454-5.189,3.304-7.968L270,164.099z M215,180c-13.807,0-25-11.193-25-25
			s11.193-25,25-25s25,11.193,25,25S228.807,180,215,180z"/>
	</g>
</g>
<g>
</g>
<g>
</g>
<g>
</g>
<g>
</g>
<g>
</g>
<g>
</g>
<g>
</g>
<g>
</g>
<g>
</g>
<g>
</g>
<g>
</g>
<g>
</g>
<g>
</g>
<g>
</g>
<g>
</g>
</svg>
