<?xml version="1.0" encoding="iso-8859-1"?>
<!-- Generator: Adobe Illustrator 19.0.0, SVG Export Plug-In . SVG Version: 6.00 Build 0)  -->
<svg version="1.1" id="Capa_1" xmlns="http://www.w3.org/2000/svg" xmlns:xlink="http://www.w3.org/1999/xlink" x="0px" y="0px"
	 viewBox="0 0 343.923 343.923" style="enable-background:new 0 0 343.923 343.923;" xml:space="preserve">
<g id="XMLID_461_">
	<path id="XMLID_464_" style="fill:#F9E375;" d="M274.462,51.538c-35.941,0-66.942-21.078-81.365-51.538h-42.27
		c-14.423,30.46-45.424,51.538-81.365,51.538c-13.384,0-26.084-2.926-37.5-8.166v172.397c0,70.485,140,128.154,140,128.154
		s140-57.669,140-128.154V43.373C300.545,48.613,287.846,51.538,274.462,51.538z"/>
	<path id="XMLID_468_" style="fill:#F5D361;" d="M274.462,51.538c-35.941,0-66.942-21.078-81.365-51.538h-21.135v343.923
		c0,0,140-57.669,140-128.154V43.373C300.545,48.613,287.846,51.538,274.462,51.538z"/>
	<polygon id="XMLID_472_" style="fill:#D77258;" points="232.17,134.053 203.885,105.769 172.066,137.589 140.246,105.769 
		111.962,134.053 143.781,165.873 111.962,197.693 140.246,225.977 172.066,194.158 203.885,225.977 232.17,197.693 200.35,165.873 
			"/>
	<polygon id="XMLID_475_" style="fill:#D14F4E;" points="232.17,134.053 203.885,105.769 172.066,137.589 171.962,137.485 
		171.962,194.262 172.066,194.158 203.885,225.977 232.17,197.693 200.35,165.873 	"/>
</g>
<g>
</g>
<g>
</g>
<g>
</g>
<g>
</g>
<g>
</g>
<g>
</g>
<g>
</g>
<g>
</g>
<g>
</g>
<g>
</g>
<g>
</g>
<g>
</g>
<g>
</g>
<g>
</g>
<g>
</g>
</svg>
