<?xml version="1.0" encoding="iso-8859-1"?>
<!-- Generator: Adobe Illustrator 19.0.0, SVG Export Plug-In . SVG Version: 6.00 Build 0)  -->
<svg version="1.1" id="Layer_1" xmlns="http://www.w3.org/2000/svg" xmlns:xlink="http://www.w3.org/1999/xlink" x="0px" y="0px"
	 viewBox="0 0 512 512" style="enable-background:new 0 0 512 512;" xml:space="preserve">
<path style="fill:#32BEA6;" d="M256,0C177.328,82.672,46.672,64,46.672,64s0,92,0,224S256,512,256,512s209.328-92,209.328-224
	s0-224,0-224S334.672,82.672,256,0z"/>
<path style="fill:#FFFFFF;" d="M239.776,381.136V352.08c-20.512-0.928-40.4-6.432-52.032-13.152l9.2-35.808
	c12.864,7.024,30.912,13.456,50.816,13.456c17.44,0,29.392-6.736,29.392-18.96c0-11.632-9.792-18.992-32.448-26.64
	c-32.752-11.024-55.104-26.32-55.104-56c0-26.944,18.992-48.048,51.744-54.48v-29.12h29.984v26.944
	c20.512,0.928,34.288,5.184,44.384,10.096l-8.88,34.592c-7.952-3.36-22.032-10.416-44.096-10.416
	c-19.888,0-26.32,8.576-26.32,17.152c0,10.096,10.72,16.528,36.736,26.32c36.416,12.864,51.12,29.68,51.12,57.248
	c0,27.248-19.296,50.496-54.48,56.624v31.2L239.776,381.136L239.776,381.136z"/>
<g>
</g>
<g>
</g>
<g>
</g>
<g>
</g>
<g>
</g>
<g>
</g>
<g>
</g>
<g>
</g>
<g>
</g>
<g>
</g>
<g>
</g>
<g>
</g>
<g>
</g>
<g>
</g>
<g>
</g>
</svg>
