<?xml version="1.0" encoding="iso-8859-1"?>
<!-- Generator: Adobe Illustrator 19.0.0, SVG Export Plug-In . SVG Version: 6.00 Build 0)  -->
<svg version="1.1" id="Layer_1" xmlns="http://www.w3.org/2000/svg" xmlns:xlink="http://www.w3.org/1999/xlink" x="0px" y="0px"
	 viewBox="0 0 512 512" style="enable-background:new 0 0 512 512;" xml:space="preserve">
<path style="fill:#DFDFE1;" d="M222.316,161.684V74.105c0-18.573,15.111-33.684,33.684-33.684s33.684,15.111,33.684,33.684v87.579
	h40.421V74.105C330.105,33.244,296.862,0,256,0s-74.105,33.244-74.105,74.105v87.579H222.316z"/>
<path style="fill:#CFCDD2;" d="M256,0v40.421c18.573,0,33.684,15.111,33.684,33.684v87.579h40.421V74.105
	C330.105,33.244,296.862,0,256,0z"/>
<polygon style="fill:#F2F2F4;" points="67.368,512 444.632,512 431.158,134.737 80.842,134.737 "/>
<polygon style="fill:#DFDFE1;" points="256,512 444.632,512 431.158,134.737 256,134.737 "/>
<path style="fill:#FF4F19;" d="M256,404.211l78.441-78.441c15.961-15.961,15.961-41.839,0-57.798
	c-15.961-15.961-41.838-15.961-57.798,0L256,288.613l-20.643-20.642c-15.961-15.961-41.838-15.961-57.798,0
	c-15.961,15.961-15.961,41.838,0,57.798L256,404.211z"/>
<path style="fill:#AF2E08;" d="M334.441,267.97c-15.961-15.961-41.837-15.961-57.798,0L256,288.613v115.597l78.441-78.441
	C350.402,309.809,350.402,283.931,334.441,267.97z"/>
<g>
</g>
<g>
</g>
<g>
</g>
<g>
</g>
<g>
</g>
<g>
</g>
<g>
</g>
<g>
</g>
<g>
</g>
<g>
</g>
<g>
</g>
<g>
</g>
<g>
</g>
<g>
</g>
<g>
</g>
</svg>
