<?xml version="1.0" encoding="iso-8859-1"?>
<!-- Generator: Adobe Illustrator 19.0.0, SVG Export Plug-In . SVG Version: 6.00 Build 0)  -->
<svg version="1.1" id="Layer_1" xmlns="http://www.w3.org/2000/svg" xmlns:xlink="http://www.w3.org/1999/xlink" x="0px" y="0px"
	 viewBox="0 0 512 512" style="enable-background:new 0 0 512 512;" xml:space="preserve">
<rect x="102.4" y="21.943" style="fill:#D6E5F6;" width="307.2" height="468.114"/>
<rect x="256" y="21.943" style="fill:#A4C6EC;" width="153.6" height="468.114"/>
<path style="fill:#385C8E;" d="M299.886,219.429h-87.771c-12.118,0-21.943-9.825-21.943-21.943V153.6
	c0-36.298,29.529-65.829,65.829-65.829s65.829,29.532,65.829,65.829v43.886C321.829,209.604,312.004,219.429,299.886,219.429z
	 M234.057,175.543h43.886V153.6c0-12.099-9.844-21.943-21.943-21.943c-12.099,0-21.943,9.844-21.943,21.943V175.543z"/>
<path style="fill:#1D3366;" d="M256,87.771v43.886c12.099,0,21.943,9.844,21.943,21.943v21.943H256v43.886h43.886
	c12.118,0,21.943-9.825,21.943-21.943V153.6C321.829,117.304,292.299,87.771,256,87.771z"/>
<path style="fill:#F6E27D;" d="M321.829,175.543H190.171c-12.118,0-21.943,9.825-21.943,21.943v117.029
	c0,12.12,9.825,21.943,21.943,21.943h131.657c12.118,0,21.943-9.823,21.943-21.943V197.486
	C343.771,185.367,333.947,175.543,321.829,175.543z"/>
<path style="fill:#385C8E;" d="M409.6,0H102.4C90.282,0,80.457,9.825,80.457,21.943v380.343v87.771
	c0,12.12,9.825,21.943,21.943,21.943h307.2c12.118,0,21.943-9.823,21.943-21.943v-87.771V21.943C431.543,9.825,421.718,0,409.6,0z
	 M387.657,43.886v336.457H124.343V43.886H387.657z"/>
<path style="fill:#F2D23D;" d="M343.771,314.514V197.486c0-12.118-9.825-21.943-21.943-21.943H256v160.914h65.829
	C333.947,336.457,343.771,326.634,343.771,314.514z"/>
<path style="fill:#1D3366;" d="M409.6,0H256v43.886h131.657v336.457H256V512h153.6c12.118,0,21.943-9.823,21.943-21.943v-87.771
	V21.943C431.543,9.825,421.718,0,409.6,0z"/>
<g>
</g>
<g>
</g>
<g>
</g>
<g>
</g>
<g>
</g>
<g>
</g>
<g>
</g>
<g>
</g>
<g>
</g>
<g>
</g>
<g>
</g>
<g>
</g>
<g>
</g>
<g>
</g>
<g>
</g>
</svg>
