<?xml version="1.0" encoding="iso-8859-1"?>
<!-- Generator: Adobe Illustrator 19.0.0, SVG Export Plug-In . SVG Version: 6.00 Build 0)  -->
<svg version="1.1" id="Layer_1" xmlns="http://www.w3.org/2000/svg" xmlns:xlink="http://www.w3.org/1999/xlink" x="0px" y="0px"
	 viewBox="0 0 512 512" style="enable-background:new 0 0 512 512;" xml:space="preserve">
<path style="fill:#DFDFE1;" d="M412.444,483.556C412.444,499.265,399.71,512,384,512H128c-15.71,0-28.444-12.735-28.444-28.444
	V28.444C99.556,12.735,112.29,0,128,0h256c15.71,0,28.444,12.735,28.444,28.444V483.556z"/>
<path style="fill:#CFCDD2;" d="M384,0H256v512h128c15.71,0,28.444-12.735,28.444-28.444V28.444C412.444,12.735,399.71,0,384,0z"/>
<rect x="142.222" y="85.333" style="fill:#B4D8F1;" width="227.556" height="284.444"/>
<rect x="256" y="85.333" style="fill:#98C8ED;" width="113.778" height="284.444"/>
<circle style="fill:#AEADB3;" cx="256" cy="440.889" r="28.444"/>
<path style="fill:#FF4F19;" d="M255.983,286.153l-48.88-48.879c-13.591-13.594-13.591-35.709-0.003-49.301
	c13.46-13.454,35.261-13.588,48.883-0.415c13.623-13.174,35.426-13.039,48.879,0.412l0.004,0.003
	c13.588,13.592,13.588,35.706,0,49.298L255.983,286.153z"/>
<path style="fill:#AF2E08;" d="M304.866,187.974l-0.004-0.003c-13.453-13.451-35.255-13.588-48.879-0.412v98.596l48.883-48.882
	C318.454,223.68,318.454,201.564,304.866,187.974z"/>
<g>
</g>
<g>
</g>
<g>
</g>
<g>
</g>
<g>
</g>
<g>
</g>
<g>
</g>
<g>
</g>
<g>
</g>
<g>
</g>
<g>
</g>
<g>
</g>
<g>
</g>
<g>
</g>
<g>
</g>
</svg>
