<?xml version="1.0" encoding="iso-8859-1"?>
<!-- Generator: Adobe Illustrator 19.0.0, SVG Export Plug-In . SVG Version: 6.00 Build 0)  -->
<svg version="1.1" id="Layer_1" xmlns="http://www.w3.org/2000/svg" xmlns:xlink="http://www.w3.org/1999/xlink" x="0px" y="0px"
	 viewBox="0 0 306.388 306.388" style="enable-background:new 0 0 306.388 306.388;" xml:space="preserve">
<g>
	<path style="fill:#324D5B;" d="M86.172,0h134.045c15.865,0,28.724,12.868,28.724,28.733v248.931
		c0,15.875-12.859,28.724-28.724,28.724H86.172c-15.865,0-28.724-12.849-28.724-28.724V28.733C57.448,12.868,70.306,0,86.172,0z"/>
	<path style="fill:#576E78;" d="M172.342,277.664h-38.299c-5.295,0-9.575,4.299-9.575,9.575c0,5.295,4.28,9.575,9.575,9.575h38.299
		c5.295,0,9.575-4.28,9.575-9.575C181.918,281.963,177.638,277.664,172.342,277.664z M76.597,38.308V268.09H229.79V38.308H76.597z"
		/>
</g>
<g>
</g>
<g>
</g>
<g>
</g>
<g>
</g>
<g>
</g>
<g>
</g>
<g>
</g>
<g>
</g>
<g>
</g>
<g>
</g>
<g>
</g>
<g>
</g>
<g>
</g>
<g>
</g>
<g>
</g>
</svg>
