<?xml version="1.0" encoding="iso-8859-1"?>
<!-- Generator: Adobe Illustrator 19.0.0, SVG Export Plug-In . SVG Version: 6.00 Build 0)  -->
<svg version="1.1" id="Layer_1" xmlns="http://www.w3.org/2000/svg" xmlns:xlink="http://www.w3.org/1999/xlink" x="0px" y="0px"
	 viewBox="0 0 512 512" style="enable-background:new 0 0 512 512;" xml:space="preserve">
<path style="fill:#6A82A1;" d="M398.116,512H113.884c-24.687,0-44.773-20.084-44.773-44.773V44.773
	C69.111,20.084,89.197,0,113.884,0h284.231c24.688,0,44.773,20.084,44.773,44.773v422.456C442.889,491.916,422.803,512,398.116,512z
	"/>
<path style="fill:#36495E;" d="M398.116,0H254.149v512h143.967c24.688,0,44.773-20.084,44.773-44.773V44.773
	C442.889,20.084,422.803,0,398.116,0z"/>
<path style="fill:#FFDA79;" d="M372.075,400.023H139.925c-10.345,0-18.732-8.387-18.732-18.732v-266.21
	c0-10.345,8.387-18.732,18.732-18.732h232.151c10.345,0,18.732,8.387,18.732,18.732v266.21
	C390.807,391.636,382.42,400.023,372.075,400.023z"/>
<path style="fill:#FFD155;" d="M372.075,96.35H254.148v303.673h117.927c10.345,0,18.732-8.387,18.732-18.732v-266.21
	C390.807,104.736,382.42,96.35,372.075,96.35z"/>
<g>
	<path style="fill:#36495E;" d="M273.869,66.907H234.43c-10.345,0-18.732-8.387-18.732-18.732s8.387-18.732,18.732-18.732h39.439
		c10.345,0,18.732,8.387,18.732,18.732S284.214,66.907,273.869,66.907z"/>
	<circle style="fill:#36495E;" cx="256" cy="456.354" r="25.15"/>
</g>
<g>
	<path style="fill:#FFD155;" d="M299.89,231.78h-87.781c-10.345,0-18.732-8.387-18.732-18.732s8.387-18.732,18.732-18.732h87.781
		c10.345,0,18.732,8.387,18.732,18.732C318.621,223.393,310.236,231.78,299.89,231.78z"/>
	<path style="fill:#FFD155;" d="M299.89,302.058h-87.781c-10.345,0-18.732-8.387-18.732-18.732c0-10.345,8.387-18.732,18.732-18.732
		h87.781c10.345,0,18.732,8.387,18.732,18.732C318.621,293.671,310.236,302.058,299.89,302.058z"/>
</g>
<g>
	<path style="fill:#2C3E50;" d="M273.869,29.444h-19.719v37.463h19.719c10.345,0,18.732-8.387,18.732-18.732
		S284.214,29.444,273.869,29.444z"/>
	<path style="fill:#2C3E50;" d="M256,431.208c-0.626,0-1.238,0.049-1.851,0.094v50.109c0.613,0.045,1.226,0.094,1.851,0.094
		c13.889,0,25.148-11.259,25.148-25.148C281.148,442.467,269.889,431.208,256,431.208z"/>
</g>
<g>
	<path style="fill:#FFC72D;" d="M299.89,194.316h-45.742v37.463h45.742c10.345,0,18.732-8.387,18.732-18.732
		C318.621,202.702,310.236,194.316,299.89,194.316z"/>
	<path style="fill:#FFC72D;" d="M299.89,264.594h-45.742v37.463h45.742c10.345,0,18.732-8.387,18.732-18.732
		C318.621,272.981,310.236,264.594,299.89,264.594z"/>
</g>
<g>
</g>
<g>
</g>
<g>
</g>
<g>
</g>
<g>
</g>
<g>
</g>
<g>
</g>
<g>
</g>
<g>
</g>
<g>
</g>
<g>
</g>
<g>
</g>
<g>
</g>
<g>
</g>
<g>
</g>
</svg>
