<?xml version="1.0" encoding="iso-8859-1"?>
<!-- Generator: Adobe Illustrator 19.0.0, SVG Export Plug-In . SVG Version: 6.00 Build 0)  -->
<svg version="1.1" id="Layer_1" xmlns="http://www.w3.org/2000/svg" xmlns:xlink="http://www.w3.org/1999/xlink" x="0px" y="0px"
	 viewBox="0 0 512 512" style="enable-background:new 0 0 512 512;" xml:space="preserve">
<rect x="102.4" y="21.943" style="fill:#D6E5F6;" width="307.2" height="468.114"/>
<rect x="256" y="21.943" style="fill:#A4C6EC;" width="153.6" height="468.114"/>
<path style="fill:#D8145D;" d="M102.4,325.595c-5.616,0-11.232-2.142-15.515-6.428c-8.569-8.568-8.569-22.462,0-31.032
	l122.568-122.571c4.115-4.115,9.696-6.428,15.515-6.428l0,0c5.821,0,11.402,2.313,15.517,6.428l46.547,46.55l107.053-107.052
	c8.568-8.568,22.462-8.568,31.032,0c8.569,8.569,8.569,22.464,0,31.032L302.548,258.662c-4.115,4.115-9.697,6.426-15.515,6.426l0,0
	c-5.821,0-11.402-2.311-15.517-6.426l-46.548-46.548L117.915,319.169C113.631,323.454,108.016,325.595,102.4,325.595z"/>
<path style="fill:#A90140;" d="M425.115,105.064c-8.568-8.568-22.462-8.568-31.032,0L287.03,212.116L256,181.083v62.065
	l15.515,15.517c4.115,4.115,9.696,6.426,15.517,6.426c5.818,0,11.402-2.311,15.515-6.426l122.568-122.568
	C433.686,127.527,433.686,113.635,425.115,105.064z"/>
<path style="fill:#385C8E;" d="M409.6,0H102.4C90.281,0,80.457,9.825,80.457,21.943v380.343v87.771
	c0,12.12,9.825,21.943,21.943,21.943h307.2c12.118,0,21.943-9.823,21.943-21.943v-87.771V21.943C431.542,9.825,421.718,0,409.6,0z
	 M387.657,43.886v336.457H124.342V43.886H387.657z"/>
<path style="fill:#1D3366;" d="M409.6,0H256v43.886h131.657v336.457H256V512h153.6c12.118,0,21.943-9.823,21.943-21.943v-87.771
	V21.943C431.542,9.825,421.718,0,409.6,0z"/>
<g>
</g>
<g>
</g>
<g>
</g>
<g>
</g>
<g>
</g>
<g>
</g>
<g>
</g>
<g>
</g>
<g>
</g>
<g>
</g>
<g>
</g>
<g>
</g>
<g>
</g>
<g>
</g>
<g>
</g>
</svg>
