<?xml version="1.0" encoding="iso-8859-1"?>
<!-- Generator: Adobe Illustrator 19.0.0, SVG Export Plug-In . SVG Version: 6.00 Build 0)  -->
<svg version="1.1" id="Layer_1" xmlns="http://www.w3.org/2000/svg" xmlns:xlink="http://www.w3.org/1999/xlink" x="0px" y="0px"
	 viewBox="0 0 512 512" style="enable-background:new 0 0 512 512;" xml:space="preserve">
<path style="fill:#77757F;" d="M209.455,512c76.995,0,139.636-62.641,139.636-139.636V69.818c0-12.833,10.44-23.273,23.273-23.273
	s23.273,10.44,23.273,23.273c0,12.853,10.42,23.273,23.273,23.273c12.853,0,23.273-10.42,23.273-23.273
	C442.182,31.32,410.863,0,372.364,0s-69.818,31.322-69.818,69.818v279.273H93.091c-12.853,0-23.273,10.42-23.273,23.273
	C69.818,449.359,132.459,512,209.455,512z"/>
<path style="fill:#57575C;" d="M93.091,349.091c-12.853,0-23.273,10.42-23.273,23.273C69.818,449.359,132.459,512,209.455,512
	V349.091H93.091z"/>
<g>
</g>
<g>
</g>
<g>
</g>
<g>
</g>
<g>
</g>
<g>
</g>
<g>
</g>
<g>
</g>
<g>
</g>
<g>
</g>
<g>
</g>
<g>
</g>
<g>
</g>
<g>
</g>
<g>
</g>
</svg>
