<?xml version="1.0" encoding="iso-8859-1"?>
<!-- Generator: Adobe Illustrator 19.0.0, SVG Export Plug-In . SVG Version: 6.00 Build 0)  -->
<svg version="1.1" id="Layer_1" xmlns="http://www.w3.org/2000/svg" xmlns:xlink="http://www.w3.org/1999/xlink" x="0px" y="0px"
	 viewBox="0 0 512 512" style="enable-background:new 0 0 512 512;" xml:space="preserve">
<path style="fill:#DEDEE0;" d="M512,255.999c0-12.853-10.42-23.273-23.273-23.273H256H23.273C10.42,232.726,0,243.146,0,255.999
	c0,91.951,48.738,172.721,121.727,217.868c-3.348,4.031-5.364,9.208-5.364,14.859c0,12.853,10.42,23.273,23.273,23.273H256h116.364
	c12.853,0,23.273-10.42,23.273-23.273c0-5.651-2.015-10.828-5.364-14.859C463.262,428.72,512,347.949,512,255.999z"/>
<g>
	<path style="fill:#8CB7E8;" d="M163.852,6.818c-9.087-9.09-23.825-9.087-32.914-0.002c-12.699,12.701-30.095,30.093-30.09,63.001
		c-0.005,32.912,17.388,50.303,30.089,63.002c11.411,11.411,16.457,17.008,16.457,30.09c0,12.853,10.42,23.273,23.273,23.273
		c12.853,0,23.273-10.42,23.273-23.273c0-32.915-17.392-50.306-30.093-63.004c-11.41-11.41-16.454-17.005-16.452-30.089
		c-0.002-13.079,5.044-18.676,16.457-30.089C172.941,30.641,172.941,15.907,163.852,6.818z"/>
	<path style="fill:#8CB7E8;" d="M272.458,6.818c-9.087-9.09-23.825-9.087-32.914-0.002c-12.701,12.699-30.095,30.092-30.092,63.001
		c-0.005,32.912,17.388,50.303,30.089,63.002C250.954,144.231,256,149.827,256,162.91c0,12.853,10.42,23.273,23.273,23.273
		c12.853,0,23.273-10.42,23.273-23.273c0-32.915-17.392-50.306-30.092-63.004C261.042,88.496,255.998,82.901,256,69.817
		c-0.002-13.079,5.044-18.676,16.457-30.089C281.547,30.641,281.547,15.907,272.458,6.818z"/>
	<path style="fill:#8CB7E8;" d="M381.065,6.818c-9.087-9.09-23.825-9.087-32.914-0.002c-12.701,12.699-30.095,30.092-30.092,63.001
		c-0.005,32.912,17.388,50.303,30.089,63.002c11.413,11.411,16.458,17.008,16.458,30.09c0,12.853,10.42,23.273,23.273,23.273
		c12.853,0,23.273-10.42,23.273-23.273c0-32.915-17.392-50.306-30.092-63.004c-11.411-11.41-16.455-17.005-16.454-30.089
		c-0.002-13.079,5.044-18.676,16.457-30.089C390.153,30.641,390.153,15.907,381.065,6.818z"/>
</g>
<path style="fill:#D6D5D8;" d="M23.273,232.726C10.42,232.726,0,243.146,0,255.999c0,91.951,48.738,172.721,121.727,217.868
	c-3.348,4.031-5.364,9.208-5.364,14.859c0,12.853,10.42,23.273,23.273,23.273H256V232.726H23.273z"/>
<g>
</g>
<g>
</g>
<g>
</g>
<g>
</g>
<g>
</g>
<g>
</g>
<g>
</g>
<g>
</g>
<g>
</g>
<g>
</g>
<g>
</g>
<g>
</g>
<g>
</g>
<g>
</g>
<g>
</g>
</svg>
