<?xml version="1.0" encoding="iso-8859-1"?>
<!-- Generator: Adobe Illustrator 19.0.0, SVG Export Plug-In . SVG Version: 6.00 Build 0)  -->
<svg version="1.1" id="Layer_1" xmlns="http://www.w3.org/2000/svg" xmlns:xlink="http://www.w3.org/1999/xlink" x="0px" y="0px"
	 viewBox="0 0 512 512" style="enable-background:new 0 0 512 512;" xml:space="preserve">
<path style="fill:#F2F2F2;" d="M367.075,84.819l9.836,16.943l-4.147,19.143l4.147,19.143l-9.836,16.943l-1.993,19.5l-14.616,13.038
	l-7.913,17.922l-4.987,2.211H174.448l-4.999-2.211l-7.913-17.922l-14.616-13.038l-1.993-19.5l-9.836-16.932l4.158-19.155
	l-4.158-19.143l9.836-16.943l1.993-19.5l14.616-13.05l7.913-17.911l17.934-7.924l13.038-14.616l19.489-1.981L236.852,0l19.143,4.146
	L275.15,0l16.943,9.836l19.489,1.981l13.05,14.616l17.922,7.924l7.913,17.911l14.616,13.05L367.075,84.819z"/>
<g>
	<circle style="fill:#E6E6E6;" cx="256.012" cy="120.03" r="85.671"/>
	<polygon style="fill:#E6E6E6;" points="371.383,424.762 371.383,503.361 140.631,503.361 140.631,424.762 261.766,390.358 	"/>
	<polygon style="fill:#E6E6E6;" points="337.566,206.208 371.383,206.208 371.383,284.818 254.855,321.25 140.631,284.818 
		140.631,206.208 174.448,206.208 	"/>
</g>
<polygon style="fill:#F95428;" points="371.383,284.818 371.383,424.762 267.524,424.762 140.631,424.762 140.631,284.818 "/>
<g>
	<rect x="140.635" y="424.762" style="fill:#CCCCCC;" width="65.008" height="78.599"/>
	<rect x="140.635" y="206.208" style="fill:#CCCCCC;" width="65.008" height="78.611"/>
</g>
<rect x="140.635" y="284.818" style="fill:#E54728;" width="65.008" height="139.944"/>
<g>
	<path style="fill:#CCCCCC;" d="M378.984,214.846H133.016c-4.772,0-8.639-3.867-8.639-8.639s3.867-8.639,8.639-8.639h245.968
		c4.772,0,8.639,3.867,8.639,8.639S383.756,214.846,378.984,214.846z"/>
	<path style="fill:#CCCCCC;" d="M378.984,512H133.016c-4.772,0-8.639-3.867-8.639-8.639c0-4.772,3.867-8.639,8.639-8.639h245.968
		c4.772,0,8.639,3.867,8.639,8.639C387.622,508.133,383.756,512,378.984,512z"/>
</g>
<g>
	<path style="fill:#666666;" d="M315.601,327.147h-119.2c-4.772,0-8.639-3.867-8.639-8.639c0-4.772,3.867-8.639,8.639-8.639h119.2
		c4.772,0,8.639,3.867,8.639,8.639C324.24,323.28,320.372,327.147,315.601,327.147z"/>
	<path style="fill:#666666;" d="M315.601,363.429h-119.2c-4.772,0-8.639-3.867-8.639-8.639s3.867-8.639,8.639-8.639h119.2
		c4.772,0,8.639,3.867,8.639,8.639S320.372,363.429,315.601,363.429z"/>
	<path style="fill:#666666;" d="M315.601,399.699h-119.2c-4.772,0-8.639-3.867-8.639-8.639c0-4.772,3.867-8.639,8.639-8.639h119.2
		c4.772,0,8.639,3.867,8.639,8.639C324.24,395.832,320.372,399.699,315.601,399.699z"/>
</g>
<g>
</g>
<g>
</g>
<g>
</g>
<g>
</g>
<g>
</g>
<g>
</g>
<g>
</g>
<g>
</g>
<g>
</g>
<g>
</g>
<g>
</g>
<g>
</g>
<g>
</g>
<g>
</g>
<g>
</g>
</svg>
