<?xml version="1.0" encoding="iso-8859-1"?>
<!-- Generator: Adobe Illustrator 19.0.0, SVG Export Plug-In . SVG Version: 6.00 Build 0)  -->
<svg version="1.1" id="Layer_1" xmlns="http://www.w3.org/2000/svg" xmlns:xlink="http://www.w3.org/1999/xlink" x="0px" y="0px"
	 viewBox="0 0 511.999 511.999" style="enable-background:new 0 0 511.999 511.999;" xml:space="preserve">
<g>
	<path style="fill:#625F69;" d="M459.704,213.214c-37.424,37.424-98.1,37.424-135.525,0s-37.424-98.1,0-135.525
		S458.909,3.638,496.332,41.06S497.128,175.79,459.704,213.214z"/>
	<path style="fill:#625F69;" d="M317.186,161.602L256,222.788L64.564,414.225c-17.44,17.44-18.459,44.697-2.275,60.881l0,0
		c16.184,16.184,43.441,15.164,60.881-2.275L256,339.999l119.792-119.792L317.186,161.602z"/>
</g>
<path style="fill:#827E8C;" d="M256,222.788L64.564,414.225c-17.44,17.44-18.459,44.697-2.275,60.881l0,0
	c16.184,16.184,43.441,15.164,60.881-2.275L256,339.999V222.788z"/>
<path style="fill:#D6D6D6;" d="M187.821,77.69c37.424,37.424,37.424,98.1,0,135.525s-98.1,37.424-135.525,0
	S-21.756,78.485,15.668,41.06S150.396,40.265,187.821,77.69z"/>
<path style="fill:#A1A1A1;" d="M194.814,161.602l252.623,252.623c17.44,17.44,18.459,44.697,2.275,60.881l0,0
	c-16.184,16.184-43.441,15.164-60.881-2.275L136.208,220.207"/>
<path style="fill:#D6D6D6;" d="M256,339.999l-0.004-117.213l-45.522-45.522c11.823-33.68,4.274-72.646-22.655-99.574
	C150.396,40.265,53.092,3.638,15.668,41.06s-0.796,134.728,36.628,172.152c26.928,26.928,65.894,34.477,99.574,22.655L256,339.999z"
	/>
<g>
</g>
<g>
</g>
<g>
</g>
<g>
</g>
<g>
</g>
<g>
</g>
<g>
</g>
<g>
</g>
<g>
</g>
<g>
</g>
<g>
</g>
<g>
</g>
<g>
</g>
<g>
</g>
<g>
</g>
</svg>
