<?xml version="1.0" encoding="iso-8859-1"?>
<!-- Generator: Adobe Illustrator 19.0.0, SVG Export Plug-In . SVG Version: 6.00 Build 0)  -->
<svg version="1.1" id="Layer_1" xmlns="http://www.w3.org/2000/svg" xmlns:xlink="http://www.w3.org/1999/xlink" x="0px" y="0px"
	 viewBox="0 0 512 512" style="enable-background:new 0 0 512 512;" xml:space="preserve">
<path style="fill:#ECB45C;" d="M488.918,146.512H319.649c-6.138,0-12.023,2.445-16.354,6.795L191.88,265.177
	c-26.614,26.612-26.991,69.685-1.133,96.768H73.441c-38.182,0-69.246,31.065-69.246,69.246c0,38.182,31.064,69.246,69.246,69.246
	h200.044c3.596,0,7-0.823,10.035-2.29c2.273-1.097,4.404-2.588,6.291-4.473L452.314,331.17h36.604
	c12.747,0,23.082-10.335,23.082-23.082V169.595C512,156.846,501.667,146.512,488.918,146.512z"/>
<path style="fill:#EFC27B;" d="M224.524,330.462c4.358,4.359,10.156,6.76,16.319,6.76c6.166,0,11.961-2.399,16.319-6.76
	l38.699-38.698c9.013-9.014,23.628-9.013,32.643,0.002s9.014,23.628,0,32.643l-76.94,76.94c-4.329,4.33-10.199,6.76-16.321,6.76
	H73.441c-12.727,0-23.082,10.355-23.082,23.082c0,12.727,10.355,23.082,23.082,23.082h190.482l162.51-162.509
	c4.329-4.329,10.199-6.76,16.322-6.76h23.082v-92.328H329.239l-104.683,105.11C215.523,306.818,215.523,321.461,224.524,330.462z"/>
<path style="fill:#ECB45C;" d="M488.918,146.512H319.649c-6.138,0-12.023,2.445-16.354,6.795L191.88,265.177
	c-26.614,26.612-26.991,69.685-1.133,96.768H73.441c-38.182,0-69.246,31.065-69.246,69.246c0,38.182,31.064,69.246,69.246,69.246
	h200.044c3.596,0,7-0.823,10.035-2.29c2.273-1.097,4.404-2.588,6.291-4.473L452.314,331.17h36.604
	c12.747,0,23.082-10.335,23.082-23.082V169.595C512,156.846,501.667,146.512,488.918,146.512z M465.836,285.004h-23.082
	c-6.121,0-11.993,2.433-16.322,6.76L263.925,454.273H73.441c-12.727,0-23.082-10.355-23.082-23.082s10.355-23.082,23.082-23.082
	h161.802c6.123,0,11.993-2.431,16.321-6.76l76.94-76.94c9.014-9.013,9.014-23.628,0-32.643c-9.013-9.013-23.628-9.014-32.643-0.002
	l-38.699,38.698c-4.358,4.359-10.155,6.76-16.319,6.76c-6.164,0-11.961-2.401-16.319-6.76c-9-9-9-23.644,0.031-32.677
	l104.683-105.11h136.598V285.004z"/>
<path style="fill:#64C37D;" d="M204.041,12.913c-0.494-0.055-12.347-1.35-29.554-1.35c-41.128,0-97.202,7.045-130.769,40.612
	c-62.923,62.923-39.732,159.3-38.715,163.37c1.034,4.136,3.167,7.819,6.072,10.724L217.808,19.536
	C214.183,15.912,209.373,13.505,204.041,12.913z"/>
<path style="fill:#A4E276;" d="M223.882,30.255c-1.039-4.156-3.179-7.825-6.074-10.719L11.075,226.27
	c2.907,2.905,6.586,5.036,10.721,6.071c0.814,0.205,20.251,4.989,46.678,4.989c33.301,0,80.576-7.582,116.697-43.702
	C248.092,130.707,224.902,34.327,223.882,30.255z"/>
<g>
</g>
<g>
</g>
<g>
</g>
<g>
</g>
<g>
</g>
<g>
</g>
<g>
</g>
<g>
</g>
<g>
</g>
<g>
</g>
<g>
</g>
<g>
</g>
<g>
</g>
<g>
</g>
<g>
</g>
</svg>
