<?xml version="1.0" encoding="iso-8859-1"?>
<!-- Generator: Adobe Illustrator 19.0.0, SVG Export Plug-In . SVG Version: 6.00 Build 0)  -->
<svg version="1.1" id="Layer_1" xmlns="http://www.w3.org/2000/svg" xmlns:xlink="http://www.w3.org/1999/xlink" x="0px" y="0px"
	 viewBox="0 0 512 512" style="enable-background:new 0 0 512 512;" xml:space="preserve">
<path style="fill:#6A82A1;" d="M396.599,512H115.401c-10.345,0-18.732-8.387-18.732-18.732v-71.967
	c0-10.345,8.387-18.732,18.732-18.732h281.198c10.345,0,18.732,8.387,18.732,18.732v71.967C415.331,503.613,406.944,512,396.599,512
	z"/>
<path style="fill:#36495E;" d="M396.599,402.569H256V512h140.599c10.345,0,18.732-8.387,18.732-18.732v-71.967
	C415.331,410.956,406.944,402.569,396.599,402.569z"/>
<path style="fill:#FFDA79;" d="M301.384,349.723h-90.768c-9.692,0-17.784-7.394-18.656-17.046l-11.88-131.538
	C101.491,132.366,149.378,0,256,0c106.498,0,154.694,132.226,75.918,201.139L320.04,332.675
	C319.168,342.329,311.077,349.723,301.384,349.723z"/>
<g>
	<path style="fill:#FFD155;" d="M256,0v349.723h45.384c9.693,0,17.784-7.394,18.656-17.047l11.878-131.537
		C410.694,132.226,362.499,0,256,0z"/>
	<circle style="fill:#FFD155;" cx="256" cy="114.888" r="45.231"/>
	<path style="fill:#FFD155;" d="M455.925,440.033H56.075c-10.345,0-18.732-8.387-18.732-18.732v-90.309
		c0-10.345,8.387-18.732,18.732-18.732h399.85c10.345,0,18.732,8.387,18.732,18.732v90.309
		C474.656,431.646,466.27,440.033,455.925,440.033z"/>
</g>
<g>
	<path style="fill:#FFC72D;" d="M256,69.668v90.452c24.977,0,45.226-20.248,45.226-45.226S280.978,69.668,256,69.668z"/>
	<path style="fill:#FFC72D;" d="M455.925,312.26H256v127.773h199.925c10.345,0,18.732-8.387,18.732-18.732v-90.309
		C474.656,320.647,466.27,312.26,455.925,312.26z"/>
</g>
<g>
</g>
<g>
</g>
<g>
</g>
<g>
</g>
<g>
</g>
<g>
</g>
<g>
</g>
<g>
</g>
<g>
</g>
<g>
</g>
<g>
</g>
<g>
</g>
<g>
</g>
<g>
</g>
<g>
</g>
</svg>
