<?xml version="1.0" encoding="iso-8859-1"?>
<!-- Generator: Adobe Illustrator 19.0.0, SVG Export Plug-In . SVG Version: 6.00 Build 0)  -->
<svg version="1.1" id="Layer_1" xmlns="http://www.w3.org/2000/svg" xmlns:xlink="http://www.w3.org/1999/xlink" x="0px" y="0px"
	 viewBox="0 0 512.001 512.001" style="enable-background:new 0 0 512.001 512.001;" xml:space="preserve">
<path style="fill:#D8143A;" d="M147.53,266.621c2.189-8.453-0.471-17.005-6.221-22.767l79.308-79.311l13.541,3.51
	c12.715,3.296,25.692-4.339,28.989-17.053c3.296-12.712-4.338-25.692-17.053-28.988L145.371,95.898
	c-8.159-2.115-16.825,0.246-22.786,6.207L6.965,217.73c-6.033,6.033-8.369,14.835-6.128,23.065
	c1.107,4.067,3.249,7.686,6.129,10.567c2.947,2.947,6.67,5.121,10.849,6.205l100.727,26.109
	C131.254,286.97,144.234,279.335,147.53,266.621z"/>
<path style="fill:#8D1858;" d="M409.888,389.403c5.958-5.958,8.317-14.626,6.204-22.783l-26.11-100.725
	c-3.291-12.709-16.273-20.349-28.988-17.053c-12.712,3.298-20.347,16.274-17.053,28.988l3.512,13.544l-79.311,79.311
	c-5.761-5.75-14.312-8.411-22.764-6.22c-12.714,3.296-20.349,16.274-17.054,28.988l26.107,100.73
	c1.084,4.179,3.256,7.902,6.205,10.851c2.879,2.881,6.5,5.021,10.567,6.131c8.232,2.242,17.032-0.1,23.065-6.131L409.888,389.403z"
	/>
<path style="fill:#D8143A;" d="M268.156,370.67L141.325,243.839c-9.286-9.286-24.344-9.287-33.632-0.002l-67.266,67.265
	c-4.46,4.46-6.966,10.508-6.965,16.815c0,6.308,2.505,12.357,6.965,16.817l126.831,126.832c9.287,9.287,24.346,9.287,33.633,0
	l67.265-67.265C277.442,395.015,277.442,379.957,268.156,370.67z"/>
<path style="fill:#8D1858;" d="M268.156,370.67l-63.414-63.415L103.844,408.151l63.414,63.415c9.287,9.287,24.346,9.287,33.633,0
	l67.265-67.265C277.442,395.015,277.442,379.957,268.156,370.67z"/>
<path style="fill:#D6E5F6;" d="M448.396,214.217c0.002-6.307-2.503-12.357-6.963-16.817L314.599,70.566
	c-9.287-9.287-24.346-9.287-33.632,0L107.693,243.837c-4.46,4.46-6.966,10.508-6.966,16.817c-0.002,6.307,2.505,12.355,6.966,16.817
	l126.832,126.831c9.287,9.287,24.346,9.287,33.633,0l173.273-173.269C445.89,226.572,448.398,220.524,448.396,214.217z"/>
<path style="fill:#A7C7FC;" d="M448.396,214.217c0.002-6.307-2.503-12.357-6.963-16.817l-63.417-63.417L171.11,340.887
	l63.415,63.414c9.287,9.287,24.346,9.287,33.633,0l173.273-173.269C445.89,226.572,448.398,220.524,448.396,214.217z"/>
<path style="fill:#D8143A;" d="M511.778,22.658c-0.669-12.105-10.332-21.769-22.435-22.435
	c-5.341-0.296-131.696-6.337-208.377,70.344c-9.287,9.287-9.287,24.346-0.002,33.632L407.8,231.033
	c4.46,4.46,10.51,6.965,16.815,6.965c6.308,0,12.357-2.505,16.817-6.965C518.111,154.353,512.073,27.998,511.778,22.658z"/>
<path style="fill:#8D1858;" d="M511.778,22.658c-0.335-6.053-2.917-11.496-6.931-15.509L344.381,167.615l63.419,63.419
	c4.46,4.46,10.51,6.965,16.815,6.965c6.308,0,12.357-2.505,16.817-6.965C518.111,154.353,512.073,27.998,511.778,22.658z"/>
<g>
</g>
<g>
</g>
<g>
</g>
<g>
</g>
<g>
</g>
<g>
</g>
<g>
</g>
<g>
</g>
<g>
</g>
<g>
</g>
<g>
</g>
<g>
</g>
<g>
</g>
<g>
</g>
<g>
</g>
</svg>
