<?xml version="1.0" encoding="iso-8859-1"?>
<!-- Generator: Adobe Illustrator 19.0.0, SVG Export Plug-In . SVG Version: 6.00 Build 0)  -->
<svg version="1.1" id="Layer_1" xmlns="http://www.w3.org/2000/svg" xmlns:xlink="http://www.w3.org/1999/xlink" x="0px" y="0px"
	 viewBox="0 0 512 512" style="enable-background:new 0 0 512 512;" xml:space="preserve">
<path style="fill:#666666;" d="M431.197,121.41C540.2,192.013,533.727,340.034,442.92,413.628c-1.704,1.375-3.432,2.713-5.199,4.025
	c-56.306,41.744-167.656,46.375-226.814-43.485c-50.854-77.266-103.236-76.534-132.954-78.276
	c-29.73-1.741-98.554-3.483-71.966-85.241C32.589,128.906,168.672,22.793,353.263,83.679
	C384.747,94.065,409.96,107.643,431.197,121.41z"/>
<path style="fill:#F95428;" d="M480.247,260.623c2.625,49.315-18.764,97.343-57.189,128.486c-1.363,1.098-2.751,2.183-4.126,3.205
	c-19.004,14.083-46.766,22.5-74.237,22.5c-0.013,0-0.013,0-0.013,0c-25.869,0-74.212-7.546-107.425-57.997
	c-24.758-37.617-52.444-62.969-84.635-77.506c-27.749-12.518-52.495-13.83-68.862-14.701c-1.363-0.076-6.347-0.353-6.347-0.353
	c-11.244-0.631-37.567-2.12-43.75-11.168c-3.521-5.149-2.65-17.364,2.335-32.671c9.048-27.812,34.21-57.921,67.297-80.547
	c28.506-19.471,76.307-42.69,142.216-42.69c31.838,0,64.773,5.54,97.86,16.455c24.771,8.164,47.22,19.055,70.679,34.248
	C454.252,173.93,477.761,213.97,480.247,260.623z"/>
<path style="fill:#F2F2F2;" d="M361.023,228.924c27.169,0,49.201,22.033,49.201,49.214s-22.033,49.214-49.201,49.214
	c-27.181,0-49.214-22.033-49.214-49.214S333.842,228.924,361.023,228.924z"/>
<g>
	<polygon style="fill:#E54728;" points="448.88,420.972 448.879,420.973 448.878,420.974 	"/>
	<path style="fill:#E54728;" d="M187.847,129.885c-4.519-2.621-10.312-1.083-12.934,3.439l-54.89,94.637
		c-2.622,4.521-1.083,10.312,3.439,12.934c1.494,0.868,3.128,1.28,4.74,1.28c3.263,0,6.441-1.691,8.196-4.717l54.89-94.637
		C193.907,138.298,192.369,132.508,187.847,129.885z"/>
	<path style="fill:#E54728;" d="M267.8,131.778c-4.518-2.621-10.312-1.083-12.934,3.439l-72.424,124.869
		c-2.622,4.521-1.083,10.312,3.439,12.934c1.494,0.868,3.128,1.28,4.74,1.28c3.263,0,6.441-1.691,8.196-4.717l72.424-124.869
		C273.861,140.191,272.323,134.401,267.8,131.778z"/>
	<path style="fill:#E54728;" d="M347.778,149.593c-4.511-2.639-10.307-1.118-12.947,3.393l-95.137,162.724
		c-2.639,4.511-1.119,10.308,3.393,12.947c1.502,0.878,3.145,1.295,4.767,1.295c3.252,0,6.418-1.678,8.178-4.689l95.137-162.724
		C353.81,158.028,352.291,152.231,347.778,149.593z"/>
	<path style="fill:#E54728;" d="M334.234,341.832c-4.511-2.641-10.308-1.119-12.947,3.393l-9.353,15.998
		c-2.639,4.511-1.119,10.308,3.393,12.947c1.502,0.878,3.146,1.295,4.769,1.295c3.252,0,6.418-1.678,8.178-4.689l9.353-15.998
		C340.265,350.268,338.746,344.471,334.234,341.832z"/>
	<path style="fill:#E54728;" d="M424.268,187.414c-4.51-2.641-10.307-1.119-12.947,3.393l-11.724,20.054
		c-2.639,4.511-1.119,10.308,3.393,12.947c1.502,0.878,3.145,1.295,4.767,1.295c3.252,0,6.418-1.678,8.178-4.689l11.724-20.054
		C430.3,195.849,428.781,190.052,424.268,187.414z"/>
</g>
<g>
</g>
<g>
</g>
<g>
</g>
<g>
</g>
<g>
</g>
<g>
</g>
<g>
</g>
<g>
</g>
<g>
</g>
<g>
</g>
<g>
</g>
<g>
</g>
<g>
</g>
<g>
</g>
<g>
</g>
</svg>
