<?xml version="1.0" encoding="iso-8859-1"?>
<!-- Generator: Adobe Illustrator 19.0.0, SVG Export Plug-In . SVG Version: 6.00 Build 0)  -->
<svg version="1.1" id="Layer_1" xmlns="http://www.w3.org/2000/svg" xmlns:xlink="http://www.w3.org/1999/xlink" x="0px" y="0px"
	 viewBox="0 0 512 512" style="enable-background:new 0 0 512 512;" xml:space="preserve">
<path style="fill:#2C3E50;" d="M339.26,164.215c-6.974-6.975-6.974-18.283,0.001-25.258l21.042-21.041
	c6.975-6.975,18.284-6.975,25.258,0c6.974,6.975,6.974,18.283,0,25.258l-21.042,21.041
	C357.544,171.189,346.236,171.19,339.26,164.215z"/>
<path style="fill:#36495E;" d="M294.075,146.992c-24.909-5.82-51.24-5.82-76.15,0c-11.196,2.614-21.924-5.893-21.924-17.393V67.523
	c0-9.864,7.997-17.86,17.86-17.86h84.276c9.864,0,17.86,7.997,17.86,17.86v62.076C315.999,141.144,305.223,149.598,294.075,146.992z
	"/>
<path style="fill:#2C3E50;" d="M298.139,49.663H256v92.964c12.81,0,25.62,1.455,38.075,4.365
	c11.148,2.606,21.923-5.848,21.923-17.393V67.523C315.999,57.66,308.003,49.663,298.139,49.663z"/>
<path style="fill:#6A82A1;" d="M256,512c-111.684,0-202.545-90.862-202.545-202.545c0-94.863,65.832-176.126,156.348-197.249
	c30.22-7.061,62.173-7.061,92.398,0.001c90.428,21.103,156.343,102.295,156.343,197.247C458.545,421.138,367.684,512,256,512z"/>
<path style="fill:#36495E;" d="M302.201,112.207c-15.112-3.53-30.658-5.296-46.201-5.296V512
	c111.684,0,202.545-90.862,202.545-202.545C458.545,214.502,392.629,133.311,302.201,112.207z"/>
<path style="fill:#F1F2F2;" d="M256,461.429c-83.799,0-151.975-68.176-151.975-151.975S172.201,157.48,256,157.48
	s151.975,68.176,151.975,151.975S339.799,461.429,256,461.429z"/>
<path style="fill:#E6E7E8;" d="M256,157.48v303.948c83.799,0,151.975-68.176,151.975-151.975S339.799,157.48,256,157.48z"/>
<g>
	<path style="fill:#6A82A1;" d="M256,327.316c-9.864,0-17.86-7.997-17.86-17.86v-60.393c0-9.864,7.997-17.86,17.86-17.86
		c9.864,0,17.86,7.997,17.86,17.86v60.393C273.86,319.319,265.864,327.316,256,327.316z"/>
	<path style="fill:#6A82A1;" d="M326.785,85.378H185.215c-9.864,0-17.86-7.997-17.86-17.86V17.86c0-9.864,7.997-17.86,17.86-17.86
		h141.569c9.864,0,17.86,7.997,17.86,17.86v49.657C344.645,77.381,336.648,85.378,326.785,85.378z"/>
</g>
<g>
	<path style="fill:#36495E;" d="M256,231.2v96.114c9.864,0,17.86-7.997,17.86-17.86v-60.393C273.86,239.197,265.864,231.2,256,231.2
		z"/>
	<path style="fill:#36495E;" d="M326.785,0H256v85.378h70.785c9.864,0,17.86-7.997,17.86-17.86V17.86
		C344.645,7.997,336.648,0,326.785,0z"/>
</g>
<g>
</g>
<g>
</g>
<g>
</g>
<g>
</g>
<g>
</g>
<g>
</g>
<g>
</g>
<g>
</g>
<g>
</g>
<g>
</g>
<g>
</g>
<g>
</g>
<g>
</g>
<g>
</g>
<g>
</g>
</svg>
