<?xml version="1.0" encoding="iso-8859-1"?>
<!-- Generator: Adobe Illustrator 19.0.0, SVG Export Plug-In . SVG Version: 6.00 Build 0)  -->
<svg version="1.1" id="Layer_1" xmlns="http://www.w3.org/2000/svg" xmlns:xlink="http://www.w3.org/1999/xlink" x="0px" y="0px"
	 viewBox="0 0 512 512" style="enable-background:new 0 0 512 512;" xml:space="preserve">
<path style="fill:#FF4F19;" d="M446.658,346.971c5.792-21.054,7.705-42.949,5.755-64.563L288.44,118.437
	c-21.612-1.95-43.508-0.036-64.563,5.755c-45.004,12.38-80.155,47.591-93.326,92.371L60.748,453.897
	c-10.11,34.375,21.829,66.315,56.204,56.204l237.334-69.805C399.067,427.126,434.276,391.975,446.658,346.971z"/>
<path style="fill:#AF2E08;" d="M446.658,346.971c5.792-21.054,7.705-42.949,5.755-64.563l-81.986-81.986L72.168,498.682
	c11.017,11.017,27.597,16.475,44.784,11.42l237.334-69.805C399.067,427.126,434.276,391.975,446.658,346.971z"/>
<g>
	<path style="fill:#6DC180;" d="M378.786,21.34c-35.388,35.388-35.388,92.656,0,128.043l21.34,21.34l21.34-21.34
		c35.388-35.388,35.388-92.656,0-128.043L400.126,0L378.786,21.34z"/>
	<path style="fill:#6DC180;" d="M273.146,164.528c2.76,14.892,22.225,24.953,30.259,39.444c7.382,13.314,5.014,35.113,16.687,46.785
		s33.471,9.304,46.784,16.685c14.492,8.035,24.554,27.5,39.447,30.26c16.068,2.977,31.514-11.432,46.088-15.301
		c-3.676-40.745-21.103-80.483-52.293-111.672s-70.928-48.616-111.672-52.293C284.58,133.013,270.169,148.459,273.146,164.528z"/>
</g>
<path style="fill:#F2F2F4;" d="M186.714,288.103c-11.767-11.767-11.767-30.913,0-42.681c11.767-11.767,30.913-11.767,42.681,0
	c11.767,11.767,11.767,30.913,0,42.681C217.627,299.87,198.481,299.87,186.714,288.103z"/>
<path style="fill:#CFCDD2;" d="M282.747,384.135c-11.767-11.767-11.767-30.913,0-42.681c11.767-11.767,30.913-11.767,42.681,0
	c11.767,11.767,11.767,30.913,0,42.681C313.66,395.903,294.514,395.903,282.747,384.135z"/>
<path style="fill:#DFDFE1;" d="M170.708,400.141c-11.767-11.767-11.767-30.913,0-42.681s30.913-11.767,42.681,0
	c11.767,11.767,11.767,30.913,0,42.681C201.621,411.908,182.477,411.908,170.708,400.141z"/>
<path style="fill:#5CA15D;" d="M400.12,170.73l-80.027,80.027c11.672,11.672,33.471,9.304,46.784,16.685
	c14.492,8.035,24.555,27.5,39.447,30.26c16.068,2.977,31.514-11.432,46.088-15.301C448.735,241.658,431.31,201.92,400.12,170.73z"/>
<g>
</g>
<g>
</g>
<g>
</g>
<g>
</g>
<g>
</g>
<g>
</g>
<g>
</g>
<g>
</g>
<g>
</g>
<g>
</g>
<g>
</g>
<g>
</g>
<g>
</g>
<g>
</g>
<g>
</g>
</svg>
