<?xml version="1.0" encoding="iso-8859-1"?>
<!-- Generator: Adobe Illustrator 19.0.0, SVG Export Plug-In . SVG Version: 6.00 Build 0)  -->
<svg version="1.1" id="Layer_1" xmlns="http://www.w3.org/2000/svg" xmlns:xlink="http://www.w3.org/1999/xlink" x="0px" y="0px"
	 viewBox="0 0 512 512" style="enable-background:new 0 0 512 512;" xml:space="preserve">
<path style="fill:#90BC42;" d="M407.167,0c0,41.742-16.922,79.529-44.277,106.884c-27.355,27.355-65.142,44.277-106.884,44.277
	C256.006,67.676,323.683,0,407.167,0z"/>
<path style="fill:#9AD14B;" d="M256.006,151.161h-0.012c-41.754,0-79.529-16.922-106.884-44.277S104.833,41.742,104.833,0
	C188.317,0,256.006,67.676,256.006,151.161z"/>
<path style="fill:#90BC42;" d="M255.994,151.161c-41.754,0-79.529-16.922-106.884-44.277S104.833,41.742,104.833,0L255.994,151.161z
	"/>
<path style="fill:#9AD14B;" d="M256.006,151.161c41.754,0,79.529-16.922,106.884-44.277C390.245,79.529,407.167,41.742,407.167,0
	L256.006,151.161z"/>
<path style="fill:#F95428;" d="M424.603,234.951C438.207,329.554,378.38,480.458,256.006,512
	C133.62,480.458,73.793,329.554,87.397,234.951c13.592-94.603,168.61-92.35,168.61-92.35S411.012,140.349,424.603,234.951z"/>
<path style="fill:#E54728;" d="M163.314,234.951c9.24-64.31,83.825-83.857,130.65-89.783c-22.054-2.792-37.957-2.566-37.957-2.566
	s-155.018-2.253-168.61,92.35C73.793,329.554,133.62,480.458,256.006,512c13.408-3.455,26.065-8.346,37.957-14.436
	C197.31,448.064,151.2,319.189,163.314,234.951z"/>
<g>
	<circle style="fill:#C93824;" cx="362.113" cy="242.751" r="9.184"/>
	<circle style="fill:#C93824;" cx="202.956" cy="338.456" r="9.184"/>
	<circle style="fill:#C93824;" cx="309.044" cy="338.456" r="9.184"/>
	<circle style="fill:#C93824;" cx="149.9" cy="242.751" r="9.184"/>
	<circle style="fill:#C93824;" cx="256" cy="242.751" r="9.184"/>
	<circle style="fill:#C93824;" cx="256" cy="433.769" r="9.184"/>
</g>
<g>
</g>
<g>
</g>
<g>
</g>
<g>
</g>
<g>
</g>
<g>
</g>
<g>
</g>
<g>
</g>
<g>
</g>
<g>
</g>
<g>
</g>
<g>
</g>
<g>
</g>
<g>
</g>
<g>
</g>
</svg>
