<?xml version="1.0" encoding="iso-8859-1"?>
<!-- Generator: Adobe Illustrator 19.0.0, SVG Export Plug-In . SVG Version: 6.00 Build 0)  -->
<svg version="1.1" id="Layer_1" xmlns="http://www.w3.org/2000/svg" xmlns:xlink="http://www.w3.org/1999/xlink" x="0px" y="0px"
	 viewBox="0 0 512 512" style="enable-background:new 0 0 512 512;" xml:space="preserve">
<path style="fill:#D8145D;" d="M333.576,0H178.424c-12.851,0-23.273,10.422-23.273,23.273v93.091
	c0,12.853,10.422,23.273,23.273,23.273h155.152c12.854,0,23.273-10.42,23.273-23.273V23.273C356.848,10.422,346.43,0,333.576,0z
	 M310.303,93.091H201.697V46.545h108.606V93.091z"/>
<path style="fill:#A90140;" d="M333.576,0H256v46.545h54.303v46.545H256v46.545h77.576c12.854,0,23.273-10.42,23.273-23.273V23.273
	C356.848,10.422,346.43,0,333.576,0z"/>
<path style="fill:#D8145D;" d="M488.727,93.091H23.273C10.422,93.091,0,103.511,0,116.364v372.364C0,501.582,10.422,512,23.273,512
	h465.455C501.582,512,512,501.582,512,488.727V116.364C512,103.511,501.582,93.091,488.727,93.091z"/>
<path style="fill:#A90140;" d="M488.727,93.091H256V512h232.727C501.582,512,512,501.582,512,488.727V116.364
	C512,103.511,501.582,93.091,488.727,93.091z"/>
<path style="fill:#DC85A6;" d="M488.727,93.091H23.273C10.422,93.091,0,103.511,0,116.364V224.97
	c0,10.681,7.27,19.988,17.628,22.579l186.182,46.545c1.846,0.461,3.741,0.694,5.644,0.694h93.091c1.904,0,3.8-0.233,5.646-0.694
	l186.182-46.545C504.733,244.958,512,235.65,512,224.97V116.364C512,103.511,501.582,93.091,488.727,93.091z"/>
<path style="fill:#CE5C82;" d="M488.727,93.091H256v201.697h46.545c1.904,0,3.8-0.233,5.646-0.694l186.182-46.545
	C504.733,244.958,512,235.65,512,224.97V116.364C512,103.511,501.582,93.091,488.727,93.091z"/>
<path style="fill:#F6E27D;" d="M302.545,248.242h-93.091c-12.851,0-23.273,10.422-23.273,23.273v93.091
	c0,12.854,10.422,23.273,23.273,23.273h93.091c12.854,0,23.273-10.418,23.273-23.273v-93.091
	C325.818,258.664,315.4,248.242,302.545,248.242z"/>
<path style="fill:#F2D23D;" d="M302.545,248.242H256v139.636h46.545c12.854,0,23.273-10.418,23.273-23.273v-93.091
	C325.818,258.664,315.4,248.242,302.545,248.242z"/>
<g>
</g>
<g>
</g>
<g>
</g>
<g>
</g>
<g>
</g>
<g>
</g>
<g>
</g>
<g>
</g>
<g>
</g>
<g>
</g>
<g>
</g>
<g>
</g>
<g>
</g>
<g>
</g>
<g>
</g>
</svg>
