<?xml version="1.0" encoding="iso-8859-1"?>
<!-- Generator: Adobe Illustrator 19.0.0, SVG Export Plug-In . SVG Version: 6.00 Build 0)  -->
<svg version="1.1" id="Layer_1" xmlns="http://www.w3.org/2000/svg" xmlns:xlink="http://www.w3.org/1999/xlink" x="0px" y="0px"
	 viewBox="0 0 511.999 511.999" style="enable-background:new 0 0 511.999 511.999;" xml:space="preserve">
<path style="fill:#E6E6E6;" d="M456.358,260.642c-6.79-15.955-16.346-30.671-28.2-43.329c-11.939-12.747-26.1-23.286-41.693-31.143
	c-7.542-3.801-15.448-6.902-23.534-9.331c-4.145-1.244-8.35-2.296-12.589-3.165c-2.007-0.412-4.021-0.778-6.043-1.109
	c-0.533-0.087-1.065-0.171-1.598-0.249c-0.237-0.035-1.247-0.054-1.373-0.199c-0.064-0.074,0.021-0.367,0-0.464
	c-0.178-0.811,0-1.86,0-2.69c0-1.14,0-2.279,0-3.42c0-0.829,0.146-1.812,0-2.63c-0.017-0.092,0.056-0.334,0-0.412
	c-0.252-0.347-2.503-0.346-2.96-0.406c-5.942-0.777-11.949-1.11-17.94-1.112c-3.584-0.001-7.17,0-10.754,0
	c-7.561,0-15.12,0-22.681,0c-9.323,0-18.646,0-27.969,0c-8.873,0-17.745,0-26.618,0c-6.21,0-12.419,0-18.63,0
	c-2.784,0-5.568,0-8.353,0c-10.504,0-21.015-0.229-31.464,1.064c-0.903,0.111-1.997,0.105-2.86,0.384
	c-0.724,0.234-0.3-0.065-0.436,0.429c-0.192,0.7,0,1.735,0,2.46c0,2.072,0,4.143,0,6.216c0,0.109,0.058,0.458,0,0.553
	c-0.173,0.282-2.264,0.362-2.69,0.43c-2.036,0.324-4.062,0.704-6.085,1.105c-3.929,0.777-7.821,1.765-11.668,2.876
	c-16.496,4.767-32.156,12.514-45.98,22.696c-14.247,10.495-26.553,23.5-36.256,38.297c-9.495,14.48-16.367,30.678-20.218,47.556
	c-2.788,12.215-3.694,24.562-3.694,37.054c0,8.007,0,16.014,0,24.021c0,11.039,3.039,21.706,9.503,30.734
	c7.358,10.277,18.483,17.604,30.854,20.229c5.746,1.219,11.51,1.111,17.334,1.111c7.924,0,15.847,0,23.771,0
	c9.168,0,18.337,0,27.505,0c5.597,0,11.194,0,16.793,0c1.417,0,2.834,0,4.251,0c4.54,0,9.082,0,13.623,0c7.125,0,14.251,0,21.376,0
	c8.763,0,17.525,0,26.288,0c9.453,0,18.906,0,28.359,0c9.196,0,18.392,0,27.588,0c7.993,0,15.984,0,23.977,0
	c5.842,0,11.682,0,17.524,0c2.743,0,5.486,0,8.229,0c2.674,0,5.348,0,8.021,0c8.133,0,16.266,0,24.399,0c9.093,0,18.185,0,27.278,0
	c5.235,0,10.471,0.002,15.706,0c10.686-0.004,21.124-3.135,29.876-9.319c10.32-7.292,17.718-18.366,20.424-30.716
	c1.722-7.862,1.181-16.131,1.181-24.129c0-8.476,0.237-17.011-0.295-25.474C466.598,292.097,462.786,275.835,456.358,260.642
	C455.838,259.418,463.815,278.267,456.358,260.642z"/>
<path style="fill:#333333;" d="M341.327,162.497v235.701H170.664V162.497c0.581-0.088,1.162-0.177,1.743-0.253
	c0.206-0.025,0.412-0.051,0.617-0.076c0.932-0.126,1.876-0.24,2.82-0.328c0.266-0.038,0.545-0.076,0.823-0.1
	c0.944-0.1,1.9-0.189,2.857-0.265c0.327-0.025,0.654-0.051,0.993-0.076c0.968-0.076,1.961-0.139,2.941-0.189
	c0.303-0.025,0.605-0.038,0.92-0.051c0.896-0.051,1.791-0.088,2.699-0.1c0.254-0.012,0.508-0.025,0.763-0.025
	c1.174-0.038,2.36-0.051,3.547-0.051h17.649h111.569c1.186,0,2.372,0.012,3.547,0.051c0.266,0,0.52,0.012,0.775,0.025
	c0.896,0.012,1.779,0.051,2.651,0.1c0.339,0.012,0.666,0.025,0.993,0.051c0.896,0.038,1.779,0.1,2.663,0.165
	c0.496,0.038,1.005,0.076,1.501,0.126c0.835,0.063,1.67,0.139,2.506,0.24c0.351,0.025,0.69,0.063,1.041,0.114
	c0.835,0.076,1.67,0.177,2.506,0.303c0.303,0.025,0.605,0.063,0.896,0.114C340.238,162.334,340.783,162.409,341.327,162.497z"/>
<path style="fill:#CCCCCC;" d="M90.071,347.202v-29.221c0-20.53,4.2-40.079,11.778-57.824c0.412-0.944,0.811-1.876,1.235-2.796
	c0.496-1.089,0.993-2.167,1.513-3.244c0.484-0.993,0.968-1.985,1.477-2.966c1.174-2.312,2.409-4.576,3.704-6.815
	c1.053-1.816,2.143-3.619,3.268-5.387c0.145-0.23,0.303-0.472,0.448-0.702c0.569-0.884,1.15-1.755,1.743-2.627
	c0.654-0.98,1.332-1.949,2.009-2.917c2.058-2.881,4.212-5.701,6.464-8.425c4.745-5.75,9.926-11.136,15.482-16.099
	c0.593-0.533,1.186-1.065,1.792-1.586c0.884-0.763,1.767-1.513,2.663-2.264c0.024-0.012,0.036-0.024,0.061-0.048
	c2.724-2.239,5.52-4.382,8.401-6.44c1.925-1.368,3.886-2.687,5.883-3.97c0.993-0.629,1.997-1.259,3.014-1.876
	c1.005-0.617,2.034-1.223,3.062-1.816c0.061-0.024,0.121-0.061,0.182-0.109c0.968-0.545,1.937-1.089,2.917-1.622
	c0.98-0.533,1.961-1.053,2.954-1.561c0.109-0.061,0.23-0.121,0.351-0.182c0.063-0.033,0.13-0.064,0.194-0.097v-14.49
	c-1.949,0.266-3.886,0.581-5.798,0.932c-0.956,0.169-1.9,0.351-2.845,0.545c-0.182,0.036-0.351,0.073-0.508,0.097
	c-1.114,0.23-2.215,0.472-3.305,0.726c-0.024,0.012-0.061,0.012-0.085,0.024c-1.15,0.266-2.3,0.545-3.438,0.835
	c-0.109,0.024-0.206,0.048-0.303,0.073c-1.114,0.291-2.215,0.593-3.317,0.908c-1.126,0.315-2.251,0.654-3.365,0.993
	c-0.206,0.061-0.412,0.133-0.617,0.194c-0.835,0.266-1.67,0.533-2.494,0.811c-0.387,0.133-0.775,0.254-1.15,0.387
	c-0.787,0.278-1.574,0.557-2.348,0.835c-0.157,0.048-0.303,0.109-0.448,0.157c-1.053,0.387-2.094,0.787-3.123,1.186
	c-0.048,0.024-0.097,0.048-0.145,0.061c-1.005,0.399-1.997,0.799-2.99,1.21c-0.291,0.133-0.581,0.254-0.859,0.375
	c-0.92,0.387-1.84,0.799-2.76,1.21c-1.029,0.472-2.058,0.944-3.075,1.428c-0.061,0.036-0.109,0.061-0.169,0.085
	c-1.017,0.496-2.046,1.005-3.05,1.513c-0.121,0.061-0.242,0.121-0.351,0.182c-0.993,0.508-1.973,1.029-2.954,1.561
	c-0.98,0.533-1.949,1.077-2.917,1.622c-0.061,0.048-0.121,0.085-0.182,0.109c-1.029,0.593-2.058,1.198-3.062,1.816
	c-1.017,0.617-2.021,1.247-3.014,1.876c-1.997,1.283-3.958,2.603-5.883,3.97c-2.881,2.058-5.677,4.2-8.401,6.44
	c-0.024,0.024-0.036,0.036-0.061,0.048c-0.896,0.75-1.779,1.501-2.663,2.264c-0.605,0.52-1.198,1.053-1.791,1.586
	c-5.556,4.963-10.737,10.35-15.482,16.099c-2.251,2.724-4.406,5.544-6.464,8.425c-0.678,0.968-1.356,1.937-2.009,2.917
	c-0.593,0.872-1.174,1.743-1.743,2.627c-0.145,0.23-0.303,0.472-0.448,0.702c-1.126,1.767-2.215,3.571-3.268,5.387
	c-1.295,2.239-2.53,4.503-3.704,6.815c-0.508,0.98-0.993,1.973-1.477,2.966c-0.521,1.077-1.017,2.155-1.513,3.244
	c-0.424,0.92-0.823,1.852-1.235,2.796c-7.578,17.745-11.778,37.294-11.778,57.824V347.2c0,28.168,22.829,50.997,50.997,50.997
	h45.998C112.9,398.199,90.071,375.369,90.071,347.202z"/>
<path style="fill:#F95428;" d="M506.35,224.981c-6.741-12.521-14.753-24.353-23.867-35.271
	c-8.787-10.525-18.594-20.197-29.239-28.838c-10.17-8.255-21.106-15.568-32.626-21.803c-11.646-6.303-23.887-11.503-36.511-15.499
	c-12.896-4.082-26.187-6.905-39.628-8.425c-8.375-0.948-16.786-1.346-25.212-1.346c-3.496,0-6.992,0-10.487,0
	c-6.096,0-12.193,0-18.289,0c-7.605,0-15.212,0-22.817,0c-8.143,0-16.286,0-24.428,0c-7.593,0-15.188,0-22.781,0
	c-5.993,0-11.986,0-17.979,0c-3.332,0-6.665,0-9.996,0c-9.492,0-18.966,0.531-28.382,1.755c-13.466,1.749-26.761,4.812-39.636,9.133
	c-12.218,4.101-24.054,9.335-35.314,15.604c-11.202,6.238-21.832,13.499-31.723,21.658c-9.911,8.177-19.075,17.255-27.351,27.083
	c-9.499,11.279-18.09,23.614-24.858,36.734c-6.366,12.34-6.958,26.99-1.549,39.783c2.455,5.809,5.896,10.829,11.299,14.227
	c4.146,2.607,8.971,4.039,13.863,4.181c9.876,0.284,19.526-4.682,24.848-13.038c1.626-2.553,2.687-5.387,3.952-8.122
	c1.639-3.543,3.429-7.018,5.348-10.417c3.738-6.622,7.973-12.97,12.693-18.934c9.362-11.827,20.481-22.213,32.951-30.702
	c11.907-8.107,25.011-14.445,38.76-18.738c13.66-4.264,27.911-6.484,42.216-6.671c6.263-0.082,12.531-0.011,18.794-0.011
	c1.898,0,3.796,0,5.694,0c5.216,0,10.432,0,15.649,0c7.334,0,14.668,0,22.003,0c8.122,0,16.246,0,24.368,0
	c7.471,0,14.941,0,22.412,0c5.391,0,10.782,0,16.173,0c2.708,0,5.418-0.029,8.125,0.017c14.414,0.245,28.738,2.534,42.486,6.885
	c14.038,4.442,27.406,11.078,39.475,19.505c12.018,8.392,22.73,18.543,31.792,30.061c4.618,5.87,8.805,12.1,12.454,18.617
	c1.825,3.26,3.548,6.575,5.124,9.963c1.356,2.914,2.481,5.943,4.241,8.648c5.52,8.482,15.513,13.367,25.588,12.751
	c5.038-0.309,9.95-1.992,14.098-4.87c5.395-3.742,8.694-9.115,10.966-15.178C513.797,251.06,512.753,236.876,506.35,224.981
	C495.214,204.294,514.8,240.68,506.35,224.981z"/>
<g>
</g>
<g>
</g>
<g>
</g>
<g>
</g>
<g>
</g>
<g>
</g>
<g>
</g>
<g>
</g>
<g>
</g>
<g>
</g>
<g>
</g>
<g>
</g>
<g>
</g>
<g>
</g>
<g>
</g>
</svg>
