<?xml version="1.0" encoding="iso-8859-1"?>
<!-- Generator: Adobe Illustrator 19.0.0, SVG Export Plug-In . SVG Version: 6.00 Build 0)  -->
<svg version="1.1" id="Layer_1" xmlns="http://www.w3.org/2000/svg" xmlns:xlink="http://www.w3.org/1999/xlink" x="0px" y="0px"
	 viewBox="0 0 512 512" style="enable-background:new 0 0 512 512;" xml:space="preserve">
<path style="fill:#6A82A1;" d="M398.116,512H113.883c-24.687,0-44.771-20.084-44.771-44.773V44.773
	C69.111,20.084,89.196,0,113.883,0h284.232c24.687,0,44.773,20.084,44.773,44.773v422.455C442.888,491.916,422.803,512,398.116,512z
	"/>
<path style="fill:#36495E;" d="M398.116,0H255.999v512h142.116c24.687,0,44.773-20.084,44.773-44.773V44.773
	C442.888,20.084,422.803,0,398.116,0z"/>
<path style="fill:#C7E9F4;" d="M372.075,411.744H139.924c-10.345,0-18.732-8.387-18.732-18.732V70.813
	c0-10.345,8.387-18.732,18.732-18.732h232.151c10.345,0,18.732,8.387,18.732,18.732v322.199
	C390.806,403.357,382.42,411.744,372.075,411.744z"/>
<path style="fill:#80D0E1;" d="M372.075,52.082H255.999v359.663h116.075c10.345,0,18.732-8.387,18.732-18.732V70.813
	C390.806,60.467,382.42,52.082,372.075,52.082z"/>
<path style="fill:#65C6BB;" d="M224.62,275.783l-24.984-24.984c-7.315-7.315-7.315-19.175,0-26.49c7.314-7.315,19.175-7.315,26.49,0
	l11.739,11.739l48.007-48.006c7.315-7.315,19.175-7.315,26.49,0s7.315,19.175,0,26.49l-61.253,61.251
	C243.795,283.099,231.937,283.1,224.62,275.783z"/>
<path style="fill:#20B8AE;" d="M312.363,188.041c-7.314-7.315-19.174-7.315-26.49,0l-29.873,29.872v52.981l56.364-56.362
	C319.678,207.218,319.678,195.357,312.363,188.041z"/>
<path style="fill:#36495E;" d="M277.57,479.845h-39.44c-10.345,0-18.732-8.387-18.732-18.732c0-10.345,8.387-18.732,18.732-18.732
	h39.44c10.345,0,18.732,8.387,18.732,18.732C296.301,471.458,287.916,479.845,277.57,479.845z"/>
<path style="fill:#2C3E50;" d="M277.57,442.382h-21.57v37.463h21.57c10.345,0,18.732-8.387,18.732-18.732
	C296.301,450.769,287.916,442.382,277.57,442.382z"/>
<g>
</g>
<g>
</g>
<g>
</g>
<g>
</g>
<g>
</g>
<g>
</g>
<g>
</g>
<g>
</g>
<g>
</g>
<g>
</g>
<g>
</g>
<g>
</g>
<g>
</g>
<g>
</g>
<g>
</g>
</svg>
