<?xml version="1.0" encoding="iso-8859-1"?>
<!-- Generator: Adobe Illustrator 19.0.0, SVG Export Plug-In . SVG Version: 6.00 Build 0)  -->
<svg version="1.1" id="Layer_1" xmlns="http://www.w3.org/2000/svg" xmlns:xlink="http://www.w3.org/1999/xlink" x="0px" y="0px"
	 viewBox="0 0 512 512" style="enable-background:new 0 0 512 512;" xml:space="preserve">
<path style="fill:#9AD14B;" d="M511.955,347.667c-0.802,12.287-11.371,21.677-23.681,21.677H465.05
	c-7.524-108.903-412.581-79.828-418.101,0H23.738c-12.322,0-22.891-9.39-23.693-21.677c-0.092-1.409-0.046-2.794,0.172-4.18
	c2.05-13.1,18.792-22.685,22.834-35.19c4.077-12.562-3.871-30.151,2.153-41.912c5.966-11.692,24.861-15.585,32.682-26.304
	c7.707-10.558,5.611-29.739,15.036-39.164s28.606-7.329,39.175-15.036c10.718-7.821,14.601-26.716,26.304-32.694
	c11.749-6.001,29.338,1.924,41.901-2.13c2.84-0.928,5.531-2.496,8.153-4.42c8.886-6.493,16.925-16.845,27.048-18.425
	c12.917-2.027,27.174,10.97,40.503,10.97c13.329,0,27.586-12.997,40.504-10.97c13.1,2.05,22.697,18.792,35.201,22.845
	c12.562,4.054,30.14-3.871,41.901,2.13c11.703,5.978,15.597,24.872,26.315,32.694c10.558,7.707,29.739,5.611,39.164,15.036
	c9.424,9.424,7.329,28.606,15.036,39.164c7.821,10.718,26.716,14.612,32.694,26.304c6.001,11.761-1.924,29.35,2.13,41.912
	c4.054,12.505,20.796,22.09,22.845,35.19C512.001,344.873,512.047,346.258,511.955,347.667z"/>
<path style="fill:#F7B239;" d="M46.949,369.344c7.524-108.903,98.241-194.902,209.056-194.902c110.803,0,201.521,86,209.045,194.902
	c0.332,4.844,0.504,9.734,0.504,14.658H46.446C46.446,379.078,46.617,374.188,46.949,369.344z"/>
<path style="fill:#90BC42;" d="M188.454,146.638l-15.7,44.992C102.683,222,52.469,289.517,46.949,369.344H23.737
	c-12.322,0-22.891-9.39-23.693-21.677c-0.092-1.409-0.046-2.794,0.172-4.18c2.05-13.1,18.792-22.685,22.834-35.19
	c4.077-12.562-3.871-30.151,2.153-41.912c5.966-11.692,24.861-15.585,32.682-26.304c7.707-10.558,5.611-29.739,15.036-39.164
	s28.606-7.329,39.175-15.036c10.718-7.821,14.6-26.716,26.304-32.694c11.749-6.001,29.338,1.924,41.901-2.13
	C183.141,150.131,185.832,148.562,188.454,146.638z"/>
<g>
	<path style="fill:#E09B2D;" d="M280.051,175.82c-7.891-0.901-15.913-1.378-24.046-1.378c-110.815,0-201.533,86-209.056,194.902
		c-0.332,4.844-0.504,9.734-0.504,14.658h48.093c0-4.924,0.172-9.814,0.504-14.658C102.015,268.435,180.419,187.202,280.051,175.82z
		"/>
	<path style="fill:#E09B2D;" d="M173.161,250.37c-18.346,0-33.272,14.926-33.272,33.272c0,18.345,14.926,33.271,33.272,33.271
		c4.744,0,8.589-3.845,8.589-8.589c0-4.743-3.844-8.589-8.589-8.589c-8.875,0-16.095-7.22-16.095-16.094
		c0-8.875,7.22-16.095,16.095-16.095s16.095,7.22,16.095,16.095c0,4.743,3.844,8.589,8.589,8.589s8.589-3.845,8.589-8.589
		C206.433,265.295,191.507,250.37,173.161,250.37z"/>
	<path style="fill:#E09B2D;" d="M333.214,259.297c-15.285,0-27.719,12.434-27.719,27.718c0,4.743,3.844,8.589,8.589,8.589
		c4.744,0,8.589-3.845,8.589-8.589c0-5.813,4.729-10.541,10.542-10.541s10.541,4.728,10.541,10.541
		c0,5.813-4.728,10.542-10.541,10.542c-4.744,0-8.589,3.845-8.589,8.589s3.844,8.589,8.589,8.589
		c15.284,0,27.718-12.434,27.718-27.719C360.932,271.732,348.498,259.297,333.214,259.297z"/>
	<circle style="fill:#E09B2D;" cx="380.93" cy="334.071" r="8.589"/>
	<circle style="fill:#E09B2D;" cx="279.184" cy="335.078" r="8.589"/>
	<circle style="fill:#E09B2D;" cx="127.053" cy="345.156" r="8.589"/>
	<circle style="fill:#E09B2D;" cx="255.217" cy="257.69" r="8.589"/>
</g>
<g>
</g>
<g>
</g>
<g>
</g>
<g>
</g>
<g>
</g>
<g>
</g>
<g>
</g>
<g>
</g>
<g>
</g>
<g>
</g>
<g>
</g>
<g>
</g>
<g>
</g>
<g>
</g>
<g>
</g>
</svg>
