<?xml version="1.0" encoding="iso-8859-1"?>
<!-- Generator: Adobe Illustrator 19.0.0, SVG Export Plug-In . SVG Version: 6.00 Build 0)  -->
<svg version="1.1" id="Layer_1" xmlns="http://www.w3.org/2000/svg" xmlns:xlink="http://www.w3.org/1999/xlink" x="0px" y="0px"
	 viewBox="0 0 512 512" style="enable-background:new 0 0 512 512;" xml:space="preserve">
<path style="fill:#806749;" d="M341.333,0h-42.667H256c-11.782,0-21.333,9.552-21.333,21.333S244.218,42.667,256,42.667h21.333
	v42.667h21.333H320V42.667h21.333c11.782,0,21.333-9.552,21.333-21.333S353.115,0,341.333,0z"/>
<g>
	<path style="fill:#A78966;" d="M447.041,100.324c-0.831-2.672-2.173-5.119-3.913-7.226c-3.914-4.742-9.835-7.764-16.462-7.764
		h-85.333H320h-21.333h-21.333H256h-85.333c-11.028,0-21.67,1.682-31.684,4.804c-11.682,3.642-22.51,9.242-32.095,16.415
		c-9.586,7.174-17.929,15.919-24.644,25.852c-1.919,2.837-3.705,5.773-5.349,8.795C68.673,156.311,64,173.621,64,192v85.333
		c0,11.782,9.552,21.333,21.333,21.333h85.333c11.782,0,21.333-9.552,21.333-21.333v-64h64h85.333h85.333
		c11.782,0,21.333-9.552,21.333-21.333v-85.333C448,104.458,447.664,102.327,447.041,100.324z"/>
	<path style="fill:#A78966;" d="M320,192v-21.333V128v-21.333c0-11.782,9.552-21.333,21.333-21.333H320h-21.333h-21.333H256
		c11.782,0,21.333,9.552,21.333,21.333V128v42.667V192c0,11.782-9.552,21.333-21.333,21.333h85.333
		C329.552,213.333,320,203.782,320,192z"/>
	<path style="fill:#A78966;" d="M234.667,192v-21.333V128v-21.333c0-11.782,9.552-21.333,21.333-21.333h-85.333
		C111.851,85.333,64,133.185,64,192v85.333c0,11.782,9.552,21.333,21.333,21.333h85.333c11.782,0,21.333-9.552,21.333-21.333v-64h64
		C244.218,213.333,234.667,203.782,234.667,192z"/>
	<path style="fill:#A78966;" d="M426.667,85.333h-85.333c11.782,0,21.333,9.552,21.333,21.333V128v42.667V192
		c0,11.782-9.552,21.333-21.333,21.333h85.333c11.782,0,21.333-9.552,21.333-21.333v-85.333
		C448,94.885,438.448,85.333,426.667,85.333z"/>
</g>
<polygon style="fill:#EE8700;" points="320,42.667 298.667,42.667 277.333,42.667 277.333,85.333 298.667,85.333 320,85.333 "/>
<g>
	<path style="fill:#FFB655;" d="M341.333,85.333c-11.782,0-21.333,9.552-21.333,21.333V128v42.667V192
		c0,11.782,9.552,21.333,21.333,21.333s21.333-9.552,21.333-21.333v-21.333V128v-21.333
		C362.667,94.885,353.115,85.333,341.333,85.333z"/>
	<path style="fill:#FFB655;" d="M256,85.333c-11.782,0-21.333,9.552-21.333,21.333V128v42.667V192
		c0,11.782,9.552,21.333,21.333,21.333s21.333-9.552,21.333-21.333v-21.333V128v-21.333C277.333,94.885,267.782,85.333,256,85.333z"
		/>
</g>
<path style="fill:#806749;" d="M341.333,0h-42.667H256c-11.782,0-21.333,9.552-21.333,21.333S244.218,42.667,256,42.667h21.333
	h21.333H320h21.333c11.782,0,21.333-9.552,21.333-21.333S353.115,0,341.333,0z"/>
<path style="fill:#B3D8F4;" d="M145.553,350.544c-3.984-5.769-10.544-9.21-17.553-9.21s-13.569,3.442-17.553,9.21
	c-0.455,0.657-11.271,16.351-22.234,35.248C66.51,423.205,64,439.214,64,448c0,35.29,28.71,64,64,64s64-28.71,64-64
	c0-8.786-2.51-24.795-24.213-62.208C156.824,366.893,146.008,351.201,145.553,350.544z"/>
<path style="fill:#8CB7E8;" d="M128,341.333c-7.009,0-13.569,3.442-17.553,9.21c-0.455,0.657-11.271,16.351-22.234,35.248
	C66.51,423.205,64,439.214,64,448c0,35.29,28.71,64,64,64V341.333z"/>
<g>
</g>
<g>
</g>
<g>
</g>
<g>
</g>
<g>
</g>
<g>
</g>
<g>
</g>
<g>
</g>
<g>
</g>
<g>
</g>
<g>
</g>
<g>
</g>
<g>
</g>
<g>
</g>
<g>
</g>
</svg>
