<?xml version="1.0" encoding="iso-8859-1"?>
<!-- Generator: Adobe Illustrator 19.0.0, SVG Export Plug-In . SVG Version: 6.00 Build 0)  -->
<svg version="1.1" id="Layer_1" xmlns="http://www.w3.org/2000/svg" xmlns:xlink="http://www.w3.org/1999/xlink" x="0px" y="0px"
	 viewBox="0 0 512 512" style="enable-background:new 0 0 512 512;" xml:space="preserve">
<path style="fill:#F1F2F2;" d="M256,512C114.842,512,0,397.158,0,256S114.842,0,256,0s256,114.842,256,256S397.158,512,256,512z"/>
<path style="fill:#E6E7E8;" d="M256,0v512c141.158,0,256-114.84,256-256S397.158,0,256,0z"/>
<path style="fill:#FFAFAE;" d="M256,428.954c-95.367,0-172.954-77.587-172.954-172.954S160.633,83.046,256,83.046
	S428.954,160.633,428.954,256S351.367,428.954,256,428.954z M256,120.51c-74.71,0-135.49,60.781-135.49,135.49
	S181.29,391.49,256,391.49S391.49,330.71,391.49,256S330.71,120.51,256,120.51z"/>
<path style="fill:#FF9392;" d="M256,83.046v37.463c74.71,0,135.49,60.781,135.49,135.49S330.71,391.49,256,391.49v37.463
	c95.367,0,172.954-77.587,172.954-172.954S351.367,83.046,256,83.046z"/>
<path style="fill:#FFAFAE;" d="M256,345.908c-49.575,0-89.907-40.333-89.907-89.908s40.332-89.908,89.907-89.908
	s89.907,40.333,89.907,89.908S305.575,345.908,256,345.908z M256,203.555c-28.917,0-52.444,23.527-52.444,52.445
	s23.527,52.445,52.444,52.445s52.444-23.527,52.444-52.445S284.917,203.555,256,203.555z"/>
<path style="fill:#FF9392;" d="M256,166.092v37.463c28.917,0,52.444,23.526,52.444,52.445S284.917,308.445,256,308.445v37.463
	c49.575,0,89.907-40.332,89.907-89.908S305.575,166.092,256,166.092z"/>
<path style="fill:#6A82A1;" d="M241.424,267.765c-6.497-8.05-5.24-19.843,2.81-26.342L467.41,61.279
	c8.047-6.496,19.843-5.24,26.342,2.811c6.497,8.05,5.24,19.843-2.81,26.342L267.766,270.576
	C259.718,277.072,247.924,275.818,241.424,267.765z"/>
<path style="fill:#36495E;" d="M493.752,64.09c-6.499-8.051-18.293-9.307-26.342-2.811L256,231.927v42.797
	c4.135,0.003,8.298-1.35,11.766-4.148L490.942,90.432C498.991,83.933,500.249,72.141,493.752,64.09z"/>
<g>
</g>
<g>
</g>
<g>
</g>
<g>
</g>
<g>
</g>
<g>
</g>
<g>
</g>
<g>
</g>
<g>
</g>
<g>
</g>
<g>
</g>
<g>
</g>
<g>
</g>
<g>
</g>
<g>
</g>
</svg>
