<?xml version="1.0" encoding="iso-8859-1"?>
<!-- Generator: Adobe Illustrator 19.0.0, SVG Export Plug-In . SVG Version: 6.00 Build 0)  -->
<svg version="1.1" id="Layer_1" xmlns="http://www.w3.org/2000/svg" xmlns:xlink="http://www.w3.org/1999/xlink" x="0px" y="0px"
	 viewBox="0 0 512 512" style="enable-background:new 0 0 512 512;" xml:space="preserve">
<g>
	<path style="fill:#A1A1A1;" d="M400.86,106.085c-3.198-3.426-7.677-5.37-12.364-5.37H120.919c-4.687,0-9.164,1.945-12.364,5.37
		c-3.199,3.426-4.834,8.025-4.513,12.702l25.853,377.452c0.608,8.873,7.983,15.76,16.877,15.76h215.871
		c8.895,0,16.269-6.887,16.877-15.76l25.853-377.452C405.693,114.111,404.059,109.51,400.86,106.085z"/>
	<path style="fill:#A1A1A1;" d="M135.138,64.936l11.12-55.86C147.307,3.799,151.938,0,157.318,0h197.365
		c5.379,0,10.01,3.799,11.061,9.076l11.12,55.86"/>
</g>
<path style="fill:#449CC2;" d="M129.895,496.24c0.608,8.873,7.983,15.76,16.877,15.76h215.871c8.895,0,16.269-6.887,16.877-15.76
	l6.414-93.632H123.482L129.895,496.24z"/>
<path style="fill:#D6D6D6;" d="M256,100.715H120.919c-4.687,0-9.164,1.945-12.364,5.37c-3.199,3.426-4.834,8.025-4.513,12.702
	l25.853,377.452c0.608,8.873,7.983,15.76,16.877,15.76H256V100.715z"/>
<path style="fill:#81C5E0;" d="M129.895,496.24c0.608,8.873,7.983,15.76,16.877,15.76H256V402.608H123.482L129.895,496.24z"/>
<path style="fill:#449CC2;" d="M405.373,118.787c0.32-4.676-1.314-9.276-4.513-12.702c-3.198-3.426-7.677-5.37-12.364-5.37H120.919
	c-4.687,0-9.164,1.945-12.364,5.37c-3.199,3.426-4.834,8.025-4.513,12.702l5.382,78.569h290.568L405.373,118.787z"/>
<path style="fill:#DE9833;" d="M406.593,48.493H105.407c-9.342,0-16.916,7.574-16.916,16.916v52.222
	c0,9.342,7.574,16.916,16.916,16.916h301.187c9.342,0,16.916-7.574,16.916-16.916V65.41
	C423.51,56.067,415.936,48.493,406.593,48.493z"/>
<path style="fill:#81C5E0;" d="M256,100.715H120.919c-4.687,0-9.164,1.945-12.364,5.37c-3.199,3.426-4.834,8.025-4.513,12.702
	l5.382,78.569H256V100.715z"/>
<path style="fill:#D6D6D6;" d="M135.138,64.936l11.12-55.86C147.307,3.799,151.938,0,157.318,0H256v64.936H135.138z"/>
<path style="fill:#F3A938;" d="M256,48.493H105.407c-9.342,0-16.916,7.574-16.916,16.916v52.222c0,9.342,7.574,16.916,16.916,16.916
	H256V48.493z"/>
<path style="fill:#8E572E;" d="M245.286,257.128l29.322-21.991c4.01-3.008,9.523-3.008,13.533,0l29.322,21.991
	c2.84,2.13,4.511,5.472,4.511,9.022v65.41c0,6.229-5.049,11.278-11.278,11.278h-58.643c-6.229,0-11.278-5.049-11.278-11.278v-65.41
	C240.775,262.6,242.447,259.258,245.286,257.128z"/>
<path style="fill:#AF6A3A;" d="M245.286,257.128l10.713-8.034L256,342.837h-3.947c-6.229,0-11.278-5.049-11.278-11.278v-65.41
	C240.775,262.6,242.447,259.258,245.286,257.128z"/>
<rect x="264.458" y="134.552" style="fill:#625F69;" width="33.833" height="129.128"/>
<g>
</g>
<g>
</g>
<g>
</g>
<g>
</g>
<g>
</g>
<g>
</g>
<g>
</g>
<g>
</g>
<g>
</g>
<g>
</g>
<g>
</g>
<g>
</g>
<g>
</g>
<g>
</g>
<g>
</g>
</svg>
