<?xml version="1.0" encoding="iso-8859-1"?>
<!-- Generator: Adobe Illustrator 19.0.0, SVG Export Plug-In . SVG Version: 6.00 Build 0)  -->
<svg version="1.1" id="Layer_1" xmlns="http://www.w3.org/2000/svg" xmlns:xlink="http://www.w3.org/1999/xlink" x="0px" y="0px"
	 viewBox="0 0 512 512" style="enable-background:new 0 0 512 512;" xml:space="preserve">
<path style="fill:#FF9392;" d="M412.989,355.011c-9.864,0-17.86-7.997-17.86-17.86c0-9.864,7.997-17.86,17.86-17.86
	c34.898,0,63.29-28.391,63.29-63.29s-28.392-63.29-63.29-63.29c-9.864,0-17.86-7.997-17.86-17.86c0-9.864,7.997-17.86,17.86-17.86
	C467.583,156.989,512,201.404,512,256S467.583,355.011,412.989,355.011z"/>
<path style="fill:#FFAFAE;" d="M341.389,444.371H143.567c-49.329,0-89.461-40.131-89.461-89.461V85.49
	c0-9.864,7.997-17.86,17.86-17.86h341.021c9.864,0,17.86,7.997,17.86,17.86v269.42C430.849,404.239,390.718,444.371,341.389,444.371
	z"/>
<path style="fill:#FFDA79;" d="M171.081,67.629v119.49c0,9.864,7.997,17.86,17.86,17.86c9.864,0,17.86-7.997,17.86-17.86V67.629
	H171.081z"/>
<path style="fill:#FFD155;" d="M225.393,283.836h-72.904c-6.576,0-11.907-5.331-11.907-11.907v-72.903
	c0-6.576,5.331-11.907,11.907-11.907h72.904c6.576,0,11.907,5.331,11.907,11.907v72.903
	C237.3,278.505,231.969,283.836,225.393,283.836z"/>
<path style="fill:#FF9392;" d="M467.095,444.371H17.86c-9.864,0-17.86-7.997-17.86-17.86s7.997-17.86,17.86-17.86h449.235
	c9.864,0,17.86,7.997,17.86,17.86S476.959,444.371,467.095,444.371z"/>
<path style="fill:#FF7876;" d="M412.989,355.011c-9.864,0-17.86-7.997-17.86-17.86c0-9.864,7.997-17.86,17.86-17.86
	c34.898,0,63.29-28.391,63.29-63.29s-28.392-63.29-63.29-63.29c-9.864,0-17.86-7.997-17.86-17.86c0-9.864,7.997-17.86,17.86-17.86
	C467.583,156.989,512,201.404,512,256S467.583,355.011,412.989,355.011z"/>
<path style="fill:#FF9392;" d="M412.989,67.629H256v376.742h85.389c49.329,0,89.461-40.131,89.461-89.461V85.49
	C430.849,75.626,422.852,67.629,412.989,67.629z"/>
<path style="fill:#FF7876;" d="M467.095,408.65H256v35.721h211.095c9.864,0,17.86-7.997,17.86-17.86S476.959,408.65,467.095,408.65z
	"/>
<g>
</g>
<g>
</g>
<g>
</g>
<g>
</g>
<g>
</g>
<g>
</g>
<g>
</g>
<g>
</g>
<g>
</g>
<g>
</g>
<g>
</g>
<g>
</g>
<g>
</g>
<g>
</g>
<g>
</g>
</svg>
