<?xml version="1.0" encoding="iso-8859-1"?>
<!-- Generator: Adobe Illustrator 19.0.0, SVG Export Plug-In . SVG Version: 6.00 Build 0)  -->
<svg version="1.1" id="Layer_1" xmlns="http://www.w3.org/2000/svg" xmlns:xlink="http://www.w3.org/1999/xlink" x="0px" y="0px"
	 viewBox="0 0 512 512" style="enable-background:new 0 0 512 512;" xml:space="preserve">
<g>
	<path style="fill:#65C6BB;" d="M219.38,464.937L47.062,292.616c-45.996-45.993-59.669-114.56-34.831-174.68l30.906-74.813
		c17.953-43.459,74.371-54.673,107.59-21.455l34.809,34.81c18.703,18.703,24.423,46.649,14.573,71.197l-14.965,37.292
		c-4.26,10.612-1.787,22.694,6.299,30.78l124.807,124.807c8.086,8.087,20.166,10.557,30.779,6.3l37.292-14.965
		c24.55-9.851,52.496-4.132,71.198,14.572l34.809,34.809c33.249,33.247,21.966,89.653-21.453,107.591l-74.813,30.906
		C333.956,524.597,265.393,510.948,219.38,464.937z"/>
	<path style="fill:#65C6BB;" d="M468.685,248.546C501.879,124.2,387.902,10.092,263.455,43.313
		c-23.892,6.384-33.588-29.785-9.657-36.173c152.165-40.629,291.72,98.757,251.06,251.062
		C498.439,282.254,462.278,272.548,468.685,248.546z"/>
	<path style="fill:#65C6BB;" d="M373.143,223.037c13.642-51.095-33.065-97.829-84.182-84.183
		c-23.896,6.375-33.588-29.784-9.657-36.174c78.892-21.057,151.098,51.042,130.013,130.015
		C402.893,256.748,366.735,247.038,373.143,223.037z"/>
</g>
<g>
	<path style="fill:#20B8AE;" d="M490.327,361.271l-34.809-34.809c-18.703-18.704-46.649-24.423-71.198-14.572l-37.292,14.965
		c-10.613,4.257-22.694,1.787-30.779-6.3l-63.051-63.051L132.572,378.128l86.806,86.807c46.013,46.012,114.576,59.66,174.681,34.831
		l74.813-30.906C512.293,450.924,523.574,394.517,490.327,361.271z"/>
	<path style="fill:#20B8AE;" d="M504.858,258.202c20.418-76.479-4.615-149.692-53.858-198.499l-26.487,26.487
		c40.34,39.919,60.861,99.839,44.173,162.355C462.278,272.548,498.44,282.254,504.858,258.202z"/>
	<path style="fill:#20B8AE;" d="M409.315,232.696c10.632-39.819-2.461-77.883-28.163-103.147l-26.488,26.488
		c16.795,16.363,25.39,41.114,18.477,67.001C366.735,247.038,402.893,256.748,409.315,232.696z"/>
</g>
<g>
</g>
<g>
</g>
<g>
</g>
<g>
</g>
<g>
</g>
<g>
</g>
<g>
</g>
<g>
</g>
<g>
</g>
<g>
</g>
<g>
</g>
<g>
</g>
<g>
</g>
<g>
</g>
<g>
</g>
</svg>
