<?xml version="1.0" encoding="iso-8859-1"?>
<!-- Generator: Adobe Illustrator 19.0.0, SVG Export Plug-In . SVG Version: 6.00 Build 0)  -->
<svg version="1.1" id="Layer_1" xmlns="http://www.w3.org/2000/svg" xmlns:xlink="http://www.w3.org/1999/xlink" x="0px" y="0px"
	 viewBox="0 0 512.002 512.002" style="enable-background:new 0 0 512.002 512.002;" xml:space="preserve">
<path style="fill:#FF4F19;" d="M492.589,53.781c-25.883-25.883-67.848-25.883-93.731,0l-33.475,33.475L331.907,53.78
	c-25.883-25.883-67.848-25.883-93.731,0s-25.883,67.848,0,93.731l127.207,127.207L492.591,147.51
	C518.472,121.631,518.472,79.666,492.589,53.781z"/>
<path style="fill:#AF2E08;" d="M492.589,53.783c-25.883-25.883-67.848-25.883-93.732,0l-33.475,33.475v187.463l127.207-127.207
	C518.472,121.631,518.472,79.664,492.589,53.783z"/>
<path style="fill:#B4D8F1;" d="M330.569,309.533l-46.421,46.421L121.681,193.486l46.421-46.421L63.656,42.623L28.841,77.437
	c-38.456,38.456-38.454,100.804,0,139.26l232.096,232.096c38.456,38.454,100.804,38.454,139.258,0l34.814-34.814L330.569,309.533z"
	/>
<g>
	<path style="fill:#98C8ED;" d="M168.101,147.066L63.656,42.623L28.841,77.437c-3.957,3.957-7.482,8.176-10.625,12.588
		l103.463,103.463L168.101,147.066z"/>
	<path style="fill:#98C8ED;" d="M330.569,309.533l-46.421,46.421l0,0l103.463,103.463c4.41-3.143,8.631-6.668,12.586-10.625
		l34.814-34.814L330.569,309.533z"/>
</g>
<g>
</g>
<g>
</g>
<g>
</g>
<g>
</g>
<g>
</g>
<g>
</g>
<g>
</g>
<g>
</g>
<g>
</g>
<g>
</g>
<g>
</g>
<g>
</g>
<g>
</g>
<g>
</g>
<g>
</g>
</svg>
