<?xml version="1.0" encoding="iso-8859-1"?>
<!-- Generator: Adobe Illustrator 19.0.0, SVG Export Plug-In . SVG Version: 6.00 Build 0)  -->
<svg version="1.1" id="Layer_1" xmlns="http://www.w3.org/2000/svg" xmlns:xlink="http://www.w3.org/1999/xlink" x="0px" y="0px"
	 viewBox="0 0 511.998 511.998" style="enable-background:new 0 0 511.998 511.998;" xml:space="preserve">
<path style="fill:#4D80C9;" d="M482.932,120.34c-0.943-0.948-65.648-65.648-65.648-65.648c-9.376-9.381-24.584-9.381-33.965,0
	l-98.251,98.25c-4.506,4.504-7.037,10.614-7.035,16.983c0,6.371,2.528,12.478,7.035,16.98l48.745,48.745l-98.235,98.235
	l-48.745-48.745c-9.379-9.378-24.584-9.378-33.965,0l-98.215,98.21c-4.504,4.506-7.037,10.614-7.034,16.983
	c-0.002,6.371,2.53,12.479,7.034,16.982c6.624,6.625,64.74,64.742,65.625,65.622c18.989,18.991,45.797,29.028,77.523,29.028
	c63.469,0,143.366-40.468,208.516-105.615c46.638-46.636,80.908-100.581,96.501-151.902
	C519.985,197.956,512.916,150.32,482.932,120.34z"/>
<g>
	<path style="fill:#F2D23D;" d="M134.075,226.054c-6.147,0.002-12.292-2.342-16.983-7.034
		c-13.61-13.606-21.104-31.701-21.103-50.948c0-19.244,7.493-37.337,21.103-50.948c28.092-28.09,73.802-28.092,101.894,0
		c9.378,9.378,9.381,24.585,0.003,33.965c-9.378,9.378-24.585,9.381-33.965,0.003c-9.367-9.363-24.601-9.368-33.968-0.003
		c-4.538,4.536-7.037,10.569-7.035,16.983c-0.002,6.417,2.499,12.446,7.035,16.982c9.378,9.379,9.379,24.584,0.002,33.966
		C146.369,223.709,140.22,226.054,134.075,226.054z"/>
	<path style="fill:#F2D23D;" d="M66.144,293.985c-6.147,0-12.293-2.344-16.982-7.037c-65.55-65.547-65.55-172.204,0-237.754
		c65.547-65.548,172.208-65.55,237.753,0c9.381,9.378,9.381,24.585,0,33.963c-9.378,9.381-24.585,9.379-33.963,0.002
		c-46.822-46.82-123.006-46.82-169.828,0c-46.819,46.822-46.82,123.008,0,169.828c9.379,9.376,9.381,24.585,0,33.965
		C78.436,291.641,72.289,293.985,66.144,293.985z"/>
</g>
<path style="fill:#385C8E;" d="M417.284,54.692c-9.376-9.381-24.584-9.381-33.965,0l-98.251,98.25
	c-4.506,4.504-7.037,10.614-7.035,16.983c0,6.371,2.528,12.478,7.035,16.98l48.745,48.745l-49.097,49.097l121.604,121.605
	c0-0.002,0-0.002,0-0.002c46.638-46.636,80.908-100.581,96.501-151.902c17.164-56.496,10.095-104.132-19.889-134.112
	C481.989,119.394,417.284,54.692,417.284,54.692z"/>
<g>
	<path style="fill:#E69629;" d="M185.024,151.091c9.378,9.378,24.585,9.375,33.965-0.003c9.378-9.378,9.375-24.585-0.003-33.965
		c-28.092-28.092-73.802-28.09-101.894,0c0,0,0,0,0,0.002l33.965,33.965c0-0.002,0-0.002,0-0.002
		C160.423,141.725,175.658,141.73,185.024,151.091z"/>
	<path style="fill:#E69629;" d="M252.952,83.16c9.378,9.378,24.584,9.379,33.963-0.002c9.381-9.376,9.381-24.585,0-33.963
		c-65.547-65.55-172.206-65.548-237.753,0h-0.002L83.126,83.16c0-0.002,0-0.002,0-0.002
		C129.946,36.339,206.131,36.339,252.952,83.16z"/>
</g>
<g>
</g>
<g>
</g>
<g>
</g>
<g>
</g>
<g>
</g>
<g>
</g>
<g>
</g>
<g>
</g>
<g>
</g>
<g>
</g>
<g>
</g>
<g>
</g>
<g>
</g>
<g>
</g>
<g>
</g>
</svg>
