<?xml version="1.0" encoding="iso-8859-1"?>
<!-- Generator: Adobe Illustrator 19.0.0, SVG Export Plug-In . SVG Version: 6.00 Build 0)  -->
<svg version="1.1" id="Layer_1" xmlns="http://www.w3.org/2000/svg" xmlns:xlink="http://www.w3.org/1999/xlink" x="0px" y="0px"
	 viewBox="0 0 512 512" style="enable-background:new 0 0 512 512;" xml:space="preserve">
<polygon style="fill:#A2A9AF;" points="17.893,360.522 17.893,406.857 256,446.542 290.751,289.448 "/>
<polygon style="fill:#7A7674;" points="256,282.943 256,446.542 494.107,406.857 494.107,360.522 "/>
<polygon style="fill:#EE3840;" points="328.835,354.386 328.835,512 359.258,496.126 389.683,512 389.683,354.386 "/>
<polygon style="fill:#BEC8D6;" points="17.893,314.187 17.893,360.522 256,400.207 290.751,285.218 "/>
<polygon style="fill:#A2A9AF;" points="256,285.218 256,400.207 494.107,360.522 494.107,314.187 "/>
<polygon style="fill:#EBEDEC;" points="17.893,0 17.893,314.187 256,353.872 290.751,196.778 256,39.685 "/>
<polygon style="fill:#BEC8D6;" points="256,39.685 256,353.872 494.107,314.187 494.107,0 "/>
<g>
	<path style="fill:#4C5870;" d="M209.68,169.598c-0.632,0-1.273-0.052-1.917-0.16L62.32,145.199
		c-6.311-1.052-10.574-7.021-9.523-13.331c1.052-6.311,7.022-10.571,13.331-9.523l145.443,24.24
		c6.311,1.052,10.574,7.021,9.523,13.331C220.148,165.582,215.24,169.598,209.68,169.598z"/>
	<path style="fill:#4C5870;" d="M302.321,179.294c-5.561,0-10.468-4.016-11.413-9.682c-1.051-6.31,3.211-12.279,9.523-13.331
		l145.437-24.24c6.304-1.054,12.279,3.211,13.331,9.523c1.051,6.31-3.211,12.279-9.523,13.331l-145.437,24.24
		C303.595,179.242,302.953,179.294,302.321,179.294z"/>
	<path style="fill:#4C5870;" d="M209.676,106.947c-0.632,0-1.274-0.052-1.918-0.16L62.324,82.548
		c-6.311-1.052-10.574-7.021-9.523-13.331c1.052-6.31,7.019-10.574,13.332-9.523l145.434,24.24
		c6.311,1.052,10.574,7.021,9.523,13.331C220.144,102.931,215.236,106.947,209.676,106.947z"/>
	<path style="fill:#4C5870;" d="M302.322,111.796c-5.561,0-10.468-4.016-11.413-9.682c-1.051-6.31,3.211-12.279,9.523-13.331
		l145.437-24.24c6.303-1.058,12.279,3.211,13.331,9.523c1.051,6.31-3.211,12.279-9.523,13.331L304.24,111.636
		C303.596,111.743,302.955,111.796,302.322,111.796z"/>
	<path style="fill:#4C5870;" d="M209.674,232.249c-0.632,0-1.273-0.052-1.917-0.16L62.323,207.851
		c-6.311-1.052-10.574-7.021-9.523-13.331c1.052-6.31,7.02-10.574,13.331-9.523l145.435,24.239
		c6.311,1.052,10.574,7.021,9.523,13.331C220.143,228.233,215.235,232.249,209.674,232.249z"/>
	<path style="fill:#4C5870;" d="M302.321,246.792c-5.561,0-10.468-4.016-11.413-9.682c-1.051-6.31,3.211-12.279,9.523-13.331
		l145.438-24.239c6.303-1.056,12.279,3.211,13.331,9.523c1.051,6.31-3.211,12.279-9.523,13.331l-145.438,24.239
		C303.595,246.74,302.953,246.792,302.321,246.792z"/>
	<path style="fill:#4C5870;" d="M209.68,294.899c-0.632,0-1.273-0.052-1.917-0.16L62.328,270.502
		c-6.311-1.052-10.574-7.021-9.523-13.331c1.052-6.31,7.02-10.57,13.331-9.523l145.435,24.239
		c6.311,1.052,10.574,7.021,9.523,13.331C220.148,290.883,215.24,294.899,209.68,294.899z"/>
	<path style="fill:#4C5870;" d="M302.321,302.17c-5.561,0-10.468-4.016-11.413-9.682c-1.051-6.31,3.211-12.279,9.523-13.331
		l72.719-12.12c6.3-1.053,12.279,3.211,13.331,9.523c1.051,6.31-3.211,12.279-9.523,13.331l-72.719,12.12
		C303.595,302.118,302.953,302.17,302.321,302.17z"/>
</g>
<g>
</g>
<g>
</g>
<g>
</g>
<g>
</g>
<g>
</g>
<g>
</g>
<g>
</g>
<g>
</g>
<g>
</g>
<g>
</g>
<g>
</g>
<g>
</g>
<g>
</g>
<g>
</g>
<g>
</g>
</svg>
