<?xml version="1.0" encoding="iso-8859-1"?>
<!-- Generator: Adobe Illustrator 19.0.0, SVG Export Plug-In . SVG Version: 6.00 Build 0)  -->
<svg version="1.1" id="Layer_1" xmlns="http://www.w3.org/2000/svg" xmlns:xlink="http://www.w3.org/1999/xlink" x="0px" y="0px"
	 viewBox="0 0 512 512" style="enable-background:new 0 0 512 512;" xml:space="preserve">
<polygon style="fill:#E6E2E0;" points="372.48,0 49.92,0 49.92,512 462.08,512 462.08,89.6 398.08,64 "/>
<rect x="113.92" y="51.2" style="fill:#FFFFFF;" width="184.32" height="184.32"/>
<path style="fill:#BEC8D6;" d="M247.04,197.12h-81.92c-7.068,0-12.8-5.731-12.8-12.8c0-7.069,5.732-12.8,12.8-12.8h81.92
	c7.068,0,12.8,5.731,12.8,12.8C259.84,191.389,254.108,197.12,247.04,197.12z"/>
<circle style="fill:#269AF2;" cx="206.08" cy="120.32" r="25.6"/>
<g>
	<path style="fill:#181818;" d="M398.08,312.32H113.92c-7.068,0-12.8-5.731-12.8-12.8s5.732-12.8,12.8-12.8h284.16
		c7.068,0,12.8,5.731,12.8,12.8S405.148,312.32,398.08,312.32z"/>
	<path style="fill:#181818;" d="M398.08,376.32H113.92c-7.068,0-12.8-5.731-12.8-12.8s5.732-12.8,12.8-12.8h284.16
		c7.068,0,12.8,5.731,12.8,12.8S405.148,376.32,398.08,376.32z"/>
	<path style="fill:#181818;" d="M398.08,440.32H113.92c-7.068,0-12.8-5.731-12.8-12.8s5.732-12.8,12.8-12.8h284.16
		c7.068,0,12.8,5.731,12.8,12.8S405.148,440.32,398.08,440.32z"/>
</g>
<polygon style="fill:#CCC4C1;" points="372.48,0 372.48,89.6 462.08,89.6 "/>
<g>
</g>
<g>
</g>
<g>
</g>
<g>
</g>
<g>
</g>
<g>
</g>
<g>
</g>
<g>
</g>
<g>
</g>
<g>
</g>
<g>
</g>
<g>
</g>
<g>
</g>
<g>
</g>
<g>
</g>
</svg>
