<?xml version="1.0" encoding="iso-8859-1"?>
<!-- Generator: Adobe Illustrator 19.0.0, SVG Export Plug-In . SVG Version: 6.00 Build 0)  -->
<svg version="1.1" id="Layer_1" xmlns="http://www.w3.org/2000/svg" xmlns:xlink="http://www.w3.org/1999/xlink" x="0px" y="0px"
	 viewBox="0 0 512.001 512.001" style="enable-background:new 0 0 512.001 512.001;" xml:space="preserve">
<polygon style="fill:#B4D8F1;" points="256,240.942 45.177,240.942 128,347.429 128,489.413 173.177,489.413 173.177,347.429 "/>
<polygon style="fill:#98C8ED;" points="466.824,240.942 256,240.942 338.824,347.429 338.824,489.413 384,489.413 384,347.429 "/>
<path style="fill:#FF4F19;" d="M343.67,13.379c-17.839-17.839-46.761-17.839-64.599,0L256,36.451l-23.072-23.072
	c-17.839-17.839-46.761-17.839-64.598,0c-17.839,17.839-17.839,46.761,0,64.598L256,165.648l87.669-87.669
	C361.509,60.14,361.509,31.218,343.67,13.379z"/>
<rect x="90.353" y="466.824" style="fill:#98C8ED;" width="120.471" height="45.176"/>
<rect x="301.177" y="466.824" style="fill:#7AB9E8;" width="120.471" height="45.176"/>
<path style="fill:#AF2E08;" d="M343.67,13.379c-17.839-17.839-46.759-17.839-64.598,0L256,36.451v129.197l87.669-87.669
	C361.509,60.14,361.509,31.218,343.67,13.379z"/>
<polygon style="fill:#98C8ED;" points="150.589,376.471 256,240.942 150.589,240.942 "/>
<polygon style="fill:#7AB9E8;" points="361.412,240.942 361.412,376.471 466.824,240.942 "/>
<g>
</g>
<g>
</g>
<g>
</g>
<g>
</g>
<g>
</g>
<g>
</g>
<g>
</g>
<g>
</g>
<g>
</g>
<g>
</g>
<g>
</g>
<g>
</g>
<g>
</g>
<g>
</g>
<g>
</g>
</svg>
