<?xml version="1.0" encoding="iso-8859-1"?>
<!-- Generator: Adobe Illustrator 19.0.0, SVG Export Plug-In . SVG Version: 6.00 Build 0)  -->
<svg version="1.1" id="Layer_1" xmlns="http://www.w3.org/2000/svg" xmlns:xlink="http://www.w3.org/1999/xlink" x="0px" y="0px"
	 viewBox="0 0 512 512" style="enable-background:new 0 0 512 512;" xml:space="preserve">
<path style="fill:#CCCCCC;" d="M115.287,241.28H10.633C4.761,241.28,0,236.521,0,230.647s4.761-10.633,10.633-10.633h104.654
	c5.872,0,10.633,4.759,10.633,10.633S121.16,241.28,115.287,241.28z"/>
<path style="fill:#F7B239;" d="M430.914,96.166c0,3.247-1.304,6.196-3.445,8.337c-2.141,2.127-5.076,3.445-8.351,3.445h-8.648
	c-8.308,0-15.057,6.734-15.057,15.057v24.74c-2.566-0.198-54.925,30.142-57.534,30.142l-157.374-5.671
	c-1.716,0-12.434-24.726-14.135-24.627v-24.584c0-8.322-6.749-15.057-15.057-15.057h-8.663c-6.508,0-11.782-5.274-11.782-11.782
	c0-21.21,8.592-40.393,22.472-54.287c13.88-13.894,33.077-22.486,54.273-22.486h146.556
	C396.561,19.393,430.914,53.76,430.914,96.166z"/>
<g>
	<rect x="78.963" y="433.543" style="fill:#CCCCCC;" width="64.821" height="59.065"/>
	<rect x="415.354" y="433.543" style="fill:#CCCCCC;" width="64.821" height="59.065"/>
</g>
<path style="fill:#2BA5F7;" d="M511.799,424.68c1.815,13.71-8.847,25.875-22.67,25.875h-8.946h-64.821H143.785H78.963h-8.946
	c-13.823,0-24.485-12.165-22.656-25.875l25.307-190.664c6.352-47.85,45.979-84.004,93.701-86.428
	c1.701-0.099,3.417-0.142,5.132-0.142h216.155c2.609,0,5.189,0.099,7.755,0.298c46.532,3.601,84.826,39.301,91.064,86.272
	L511.799,424.68z"/>
<path style="fill:#2197D8;" d="M96.983,424.68l25.307-190.664c6.352-47.85,45.979-84.004,93.701-86.428
	c1.701-0.099,3.417-0.142,5.132-0.142h-49.622c-1.716,0-3.431,0.041-5.132,0.142c-47.723,2.424-87.35,38.578-93.701,86.428
	L47.361,424.68c-1.829,13.71,8.833,25.875,22.656,25.875h8.946h40.676C105.816,450.555,95.155,438.39,96.983,424.68z"/>
<g>
	<circle style="fill:#B27214;" cx="294.998" cy="64.765" r="10.633"/>
	<circle style="fill:#B27214;" cx="199.908" cy="76.502" r="10.633"/>
	<circle style="fill:#B27214;" cx="248.254" cy="104.889" r="10.633"/>
	<circle style="fill:#B27214;" cx="347.258" cy="111.748" r="10.633"/>
</g>
<g>
</g>
<g>
</g>
<g>
</g>
<g>
</g>
<g>
</g>
<g>
</g>
<g>
</g>
<g>
</g>
<g>
</g>
<g>
</g>
<g>
</g>
<g>
</g>
<g>
</g>
<g>
</g>
<g>
</g>
</svg>
