<?xml version="1.0" encoding="iso-8859-1"?>
<!-- Generator: Adobe Illustrator 19.0.0, SVG Export Plug-In . SVG Version: 6.00 Build 0)  -->
<svg version="1.1" id="Layer_1" xmlns="http://www.w3.org/2000/svg" xmlns:xlink="http://www.w3.org/1999/xlink" x="0px" y="0px"
	 viewBox="0 0 512 512" style="enable-background:new 0 0 512 512;" xml:space="preserve">
<g>
	<rect x="228.174" y="61.217" style="fill:#DFDFE1;" width="33.391" height="66.783"/>
	
		<rect x="101.292" y="123.543" transform="matrix(-0.7071 -0.7071 0.7071 -0.7071 130.755 334.6378)" style="fill:#DFDFE1;" width="66.782" height="33.391"/>
	
		<rect x="338.366" y="106.852" transform="matrix(-0.7071 -0.7071 0.7071 -0.7071 506.9606 490.4758)" style="fill:#DFDFE1;" width="33.391" height="66.782"/>
</g>
<g>
	<polygon style="fill:#B4D8F1;" points="472.648,387.819 417.555,332.727 393.944,356.338 449.036,411.431 433.296,427.172 
		456.908,450.783 512,395.69 488.389,372.078 	"/>
	<path style="fill:#B4D8F1;" d="M303.435,194.994L413.62,305.18c13.04,13.04,13.04,34.183,0,47.222
		c-13.04,13.04-34.183,13.04-47.222,0L256.213,242.216L303.435,194.994z"/>
</g>
<path style="fill:#98C8ED;" d="M303.435,194.994l-23.611,23.611L413.62,352.402c13.04-13.04,13.04-34.183,0-47.222L303.435,194.994z
	"/>
<path style="fill:#FFEA8A;" d="M275.888,261.892l90.509,90.509c13.04,13.04,34.183,13.04,47.222,0
	c13.04-13.04,13.04-34.183,0-47.222l-43.287-43.287L275.888,261.892L275.888,261.892z"/>
<path style="fill:#FFDB2D;" d="M323.11,261.892l90.509,90.509c13.04-13.04,13.04-34.183,0-47.222l-43.287-43.287L323.11,261.892
	L323.11,261.892z"/>
<polygon style="fill:#B4D8F1;" points="39.352,387.819 94.445,332.727 118.056,356.338 62.964,411.431 78.704,427.172 
	55.093,450.783 0,395.69 23.611,372.078 "/>
<path style="fill:#98C8ED;" d="M90.036,338.485c1.54,5.093,4.319,9.892,8.344,13.916c13.04,13.04,34.183,13.04,47.223,0
	L255.79,242.216l-34.741-34.741L90.036,338.485z"/>
<path style="fill:#FFDB2D;" d="M166.629,261.892l-76.593,76.593c1.54,5.093,4.319,9.892,8.344,13.916
	c13.04,13.04,34.183,13.04,47.222,0l90.509-90.509L166.629,261.892L166.629,261.892z"/>
<path style="fill:#B4D8F1;" d="M208.565,194.994l23.611,23.611L98.38,352.403c-13.04-13.04-13.04-34.183,0-47.222L208.565,194.994z"
	/>
<path style="fill:#FFEA8A;" d="M188.89,261.892l-90.509,90.509c-13.04-13.04-13.04-34.183,0-47.222l43.287-43.287L188.89,261.892
	L188.89,261.892z"/>
<g>
</g>
<g>
</g>
<g>
</g>
<g>
</g>
<g>
</g>
<g>
</g>
<g>
</g>
<g>
</g>
<g>
</g>
<g>
</g>
<g>
</g>
<g>
</g>
<g>
</g>
<g>
</g>
<g>
</g>
</svg>
