<?xml version="1.0" encoding="iso-8859-1"?>
<!-- Generator: Adobe Illustrator 19.0.0, SVG Export Plug-In . SVG Version: 6.00 Build 0)  -->
<svg version="1.1" id="Layer_1" xmlns="http://www.w3.org/2000/svg" xmlns:xlink="http://www.w3.org/1999/xlink" x="0px" y="0px"
	 viewBox="0 0 512.001 512.001" style="enable-background:new 0 0 512.001 512.001;" xml:space="preserve">
<path style="fill:#B8002B;" d="M494.256,273.744c0-0.042-0.006-0.084-0.006-0.126c-0.273-131.339-73.18-203.363-205.301-202.635
	l16.119-41.47c4.333-11.149-1.193-23.7-12.342-28.035c-11.158-4.333-23.702,1.193-28.036,12.343l-22.637,58.242
	c-7-0.716-14.011-1.086-20.978-1.086c-60.335,0-108.411,15.082-142.892,44.833c-40.104,34.599-60.439,87.738-60.439,157.934
	c0,131.375,106.882,238.257,238.257,238.257c131.103,0,237.804-106.44,238.245-237.441c0.001-0.069,0.012-0.137,0.012-0.207
	c0-0.121-0.003-0.241-0.003-0.362C494.253,273.909,494.256,273.826,494.256,273.744z"/>
<path style="fill:#D8143A;" d="M494.256,273.743c0-0.042-0.006-0.084-0.006-0.126c-0.273-131.339-73.18-203.363-205.301-202.635
	l-6.889,17.728l5.154,3.972l29.545,22.772l24.255,18.694c8.388,6.465,11.26,19.456,5.811,28.535
	c-4.163,6.935-11.358,10.596-18.642,10.596c-4.616,0-9.267-1.47-13.207-4.505l-37.317-28.76v38.485
	c0,10.571-7.364,20.018-17.781,21.824c-13.672,2.371-25.538-8.091-25.538-21.323v-38.988l-37.317,28.76
	c-3.941,3.037-8.592,4.505-13.207,4.505c-6.488,0-12.905-2.902-17.172-8.439c-7.302-9.475-5.542-23.075,3.933-30.379l24.679-19.02
	l29.528-22.759l13.212-10.184l4.056-10.436c-7-0.716-14.011-1.086-20.978-1.086c-60.335,0-108.411,15.082-142.892,44.833
	c-40.104,34.599-60.439,87.738-60.439,157.934c0,131.376,106.882,238.257,238.257,238.257c131.103,0,237.804-106.44,238.245-237.441
	c0.001-0.069,0.012-0.137,0.012-0.205c0-0.121-0.003-0.241-0.003-0.362C494.253,273.909,494.256,273.826,494.256,273.743z"/>
<path style="fill:#64C37D;" d="M224.785,92.682l-29.528,22.759l-24.679,19.02c-9.475,7.304-11.234,20.905-3.933,30.379
	c4.267,5.536,10.683,8.439,17.172,8.439c4.615,0,9.267-1.47,13.207-4.505l37.317-28.76V179c0,11.962,9.698,21.66,21.66,21.66
	s21.66-9.698,21.66-21.66v-38.988l37.317,28.76c3.941,3.037,8.59,4.505,13.207,4.505c6.486,0,12.903-2.904,17.172-8.439
	c7.302-9.475,5.542-23.075-3.933-30.378l-24.662-19.007l-29.545-22.772l-5.154-3.972l6.883-17.712l16.125-41.486
	c4.333-11.149-1.193-23.7-12.342-28.035C281.569-2.856,269.025,2.67,264.69,13.82l-22.637,58.242l-4.056,10.436L224.785,92.682z"/>
<path style="fill:#B8002B;" d="M234.339,178.999v-38.988l-37.317,28.76c-3.941,3.037-8.592,4.505-13.207,4.505
	c-6.488,0-12.905-2.902-17.172-8.439c-7.302-9.475-5.542-23.075,3.933-30.378l24.679-19.02l29.528-22.759l13.212-10.184
	l4.056-10.436c-7-0.716-14.011-1.086-20.978-1.086c-60.335,0-108.411,15.082-142.892,44.833
	c-40.104,34.599-60.439,87.738-60.439,157.934c0,131.376,106.882,238.257,238.257,238.257v-311.34
	C244.037,200.658,234.339,190.961,234.339,178.999z"/>
<g>
</g>
<g>
</g>
<g>
</g>
<g>
</g>
<g>
</g>
<g>
</g>
<g>
</g>
<g>
</g>
<g>
</g>
<g>
</g>
<g>
</g>
<g>
</g>
<g>
</g>
<g>
</g>
<g>
</g>
</svg>
