<?xml version="1.0" encoding="iso-8859-1"?>
<!-- Generator: Adobe Illustrator 19.0.0, SVG Export Plug-In . SVG Version: 6.00 Build 0)  -->
<svg version="1.1" id="Layer_1" xmlns="http://www.w3.org/2000/svg" xmlns:xlink="http://www.w3.org/1999/xlink" x="0px" y="0px"
	 viewBox="0 0 512 512" style="enable-background:new 0 0 512 512;" xml:space="preserve">
<polygon style="fill:#181818;" points="398.389,99.282 398.389,412.718 256,436.984 113.611,412.718 113.611,99.282 256,75.016 "/>
<g>
	<path style="fill:#269AF2;" d="M398.389,412.718v63.539c0,19.728-16.015,35.743-35.743,35.743H149.354
		c-19.752,0-35.743-16.015-35.743-35.743v-63.539H398.389z"/>
	<path style="fill:#269AF2;" d="M398.389,35.743v63.539H113.611V35.743C113.611,16.027,129.602,0,149.354,0h213.293
		C382.374,0,398.389,16.027,398.389,35.743z"/>
</g>
<g>
	<circle style="fill:#FFFFFF;" cx="180.256" cy="49.641" r="12.133"/>
	<path style="fill:#FFFFFF;" d="M289.771,61.774h-67.543c-6.701,0-12.133-5.432-12.133-12.133s5.432-12.133,12.133-12.133h67.543
		c6.701,0,12.133,5.432,12.133,12.133S296.472,61.774,289.771,61.774z"/>
	<path style="fill:#FFFFFF;" d="M268.625,474.492h-25.251c-6.701,0-12.133-5.432-12.133-12.133c0-6.701,5.432-12.133,12.133-12.133
		h25.251c6.701,0,12.133,5.432,12.133,12.133C280.758,469.06,275.326,474.492,268.625,474.492z"/>
</g>
<g>
</g>
<g>
</g>
<g>
</g>
<g>
</g>
<g>
</g>
<g>
</g>
<g>
</g>
<g>
</g>
<g>
</g>
<g>
</g>
<g>
</g>
<g>
</g>
<g>
</g>
<g>
</g>
<g>
</g>
</svg>
