<?xml version="1.0" encoding="iso-8859-1"?>
<!-- Generator: Adobe Illustrator 19.0.0, SVG Export Plug-In . SVG Version: 6.00 Build 0)  -->
<svg version="1.1" id="Layer_1" xmlns="http://www.w3.org/2000/svg" xmlns:xlink="http://www.w3.org/1999/xlink" x="0px" y="0px"
	 viewBox="0 0 512 512" style="enable-background:new 0 0 512 512;" xml:space="preserve">
<g>
	<path style="fill:#A78966;" d="M46.545,414.906v73.821c0,12.853,10.42,23.273,23.273,23.273s23.273-10.42,23.273-23.273v-73.821
		c-7.284,2.583-15.115,4.003-23.273,4.003S53.83,417.489,46.545,414.906z"/>
	<path style="fill:#A78966;" d="M232.727,292.447v196.281C232.727,501.58,243.147,512,256,512c12.853,0,23.273-10.42,23.273-23.273
		V292.447c-7.522,1.533-15.306,2.341-23.273,2.341C248.031,294.788,240.249,293.98,232.727,292.447z"/>
	<path style="fill:#A78966;" d="M418.909,414.906v73.821c0,12.853,10.42,23.273,23.273,23.273c12.853,0,23.273-10.42,23.273-23.273
		v-73.821c-7.284,2.583-15.115,4.003-23.273,4.003C434.024,418.909,426.193,417.489,418.909,414.906z"/>
</g>
<path style="fill:#79AB03;" d="M69.818,248.242C31.32,248.242,0,279.563,0,318.061v31.03c0,30.34,19.458,56.208,46.545,65.815
	c7.284,2.583,15.115,4.003,23.273,4.003s15.988-1.42,23.273-4.003c27.088-9.607,46.545-35.475,46.545-65.815v-31.03
	C139.636,279.563,108.316,248.242,69.818,248.242z"/>
<g>
	<path style="fill:#91CC04;" d="M442.182,248.242c-38.499,0-69.818,31.32-69.818,69.818v31.03c0,30.34,19.458,56.208,46.545,65.815
		c7.284,2.583,15.115,4.003,23.273,4.003c8.158,0,15.988-1.42,23.273-4.003C492.542,405.299,512,379.431,512,349.091v-31.03
		C512,279.563,480.681,248.242,442.182,248.242z"/>
	<path style="fill:#91CC04;" d="M256,0c-64.163,0-116.364,52.202-116.364,116.364v62.061c0,56.194,40.043,103.21,93.091,114.022
		c7.522,1.533,15.304,2.341,23.273,2.341c7.967,0,15.751-0.808,23.273-2.341c53.048-10.813,93.091-57.828,93.091-114.022v-62.061
		C372.364,52.202,320.163,0,256,0z"/>
</g>
<path style="fill:#79AB03;" d="M139.636,116.364v62.061c0,56.194,40.043,103.211,93.091,114.022
	c7.522,1.533,15.304,2.341,23.273,2.341V0C191.837,0,139.636,52.202,139.636,116.364z"/>
<g>
</g>
<g>
</g>
<g>
</g>
<g>
</g>
<g>
</g>
<g>
</g>
<g>
</g>
<g>
</g>
<g>
</g>
<g>
</g>
<g>
</g>
<g>
</g>
<g>
</g>
<g>
</g>
<g>
</g>
</svg>
