<?xml version="1.0" encoding="iso-8859-1"?>
<!-- Generator: Adobe Illustrator 19.0.0, SVG Export Plug-In . SVG Version: 6.00 Build 0)  -->
<svg version="1.1" id="Layer_1" xmlns="http://www.w3.org/2000/svg" xmlns:xlink="http://www.w3.org/1999/xlink" x="0px" y="0px"
	 viewBox="0 0 512 512" style="enable-background:new 0 0 512 512;" xml:space="preserve">
<g>
	<path style="fill:#2C3E50;" d="M318.812,221.237c-9.425,0-17.067-7.641-17.067-17.067V77.042c0-9.425,7.641-17.067,17.067-17.067
		c9.425,0,17.067,7.641,17.067,17.067v127.128C335.879,213.596,328.238,221.237,318.812,221.237z"/>
	<path style="fill:#2C3E50;" d="M345.13,512c-9.425,0-17.067-7.641-17.067-17.067v-31.834c0-9.425,7.641-17.067,17.067-17.067
		s17.067,7.641,17.067,17.067v31.834C362.197,504.359,354.555,512,345.13,512z"/>
</g>
<g>
	<path style="fill:#36495E;" d="M193.188,221.237c-9.425,0-17.067-7.641-17.067-17.067V77.042c0-9.425,7.641-17.067,17.067-17.067
		c9.425,0,17.067,7.641,17.067,17.067v127.128C210.255,213.596,202.613,221.237,193.188,221.237z"/>
	<path style="fill:#36495E;" d="M166.87,512c-9.425,0-17.067-7.641-17.067-17.067v-31.834c0-9.425,7.641-17.067,17.067-17.067
		c9.425,0,17.067,7.641,17.067,17.067v31.834C183.937,504.359,176.295,512,166.87,512z"/>
</g>
<path style="fill:#6A82A1;" d="M338.682,480.166H173.318c-27.187,0-49.306-22.118-49.306-49.306V236.41
	c0-27.187,22.118-49.306,49.306-49.306h165.365c27.187,0,49.306,22.118,49.306,49.306v194.45
	C387.988,458.047,365.87,480.166,338.682,480.166z"/>
<path style="fill:#36495E;" d="M338.682,187.104H256v293.061h82.682c27.187,0,49.306-22.118,49.306-49.306V236.41
	C387.988,209.224,365.87,187.104,338.682,187.104z"/>
<path style="fill:#6A82A1;" d="M331.708,94.109H180.292c-9.425,0-17.067-7.641-17.067-17.067V17.067
	C163.226,7.641,170.867,0,180.292,0h151.415c9.425,0,17.067,7.641,17.067,17.067v59.976
	C348.774,86.468,341.133,94.109,331.708,94.109z"/>
<g>
	<path style="fill:#36495E;" d="M299.284,318.094h-86.57c-9.425,0-17.067-7.641-17.067-17.067c0-9.425,7.641-17.067,17.067-17.067
		h86.57c9.425,0,17.067,7.641,17.067,17.067C316.351,310.453,308.71,318.094,299.284,318.094z"/>
	<path style="fill:#36495E;" d="M299.284,383.311h-86.57c-9.425,0-17.067-7.641-17.067-17.067s7.641-17.067,17.067-17.067h86.57
		c9.425,0,17.067,7.641,17.067,17.067S308.71,383.311,299.284,383.311z"/>
	<path style="fill:#36495E;" d="M331.708,0H256v94.109h75.708c9.425,0,17.067-7.641,17.067-17.067V17.067
		C348.774,7.641,341.133,0,331.708,0z"/>
</g>
<g>
	<path style="fill:#2C3E50;" d="M299.284,283.961H256v34.133h43.284c9.425,0,17.067-7.641,17.067-17.067
		C316.351,291.602,308.71,283.961,299.284,283.961z"/>
	<path style="fill:#2C3E50;" d="M299.284,349.177H256v34.133h43.284c9.425,0,17.067-7.641,17.067-17.067
		C316.351,356.817,308.71,349.177,299.284,349.177z"/>
</g>
<g>
</g>
<g>
</g>
<g>
</g>
<g>
</g>
<g>
</g>
<g>
</g>
<g>
</g>
<g>
</g>
<g>
</g>
<g>
</g>
<g>
</g>
<g>
</g>
<g>
</g>
<g>
</g>
<g>
</g>
</svg>
