<?xml version="1.0" encoding="iso-8859-1"?>
<!-- Generator: Adobe Illustrator 19.0.0, SVG Export Plug-In . SVG Version: 6.00 Build 0)  -->
<svg version="1.1" id="Layer_1" xmlns="http://www.w3.org/2000/svg" xmlns:xlink="http://www.w3.org/1999/xlink" x="0px" y="0px"
	 viewBox="0 0 512.002 512.002" style="enable-background:new 0 0 512.002 512.002;" xml:space="preserve">
<g>
	<path style="fill:#D8143A;" d="M360.491,0h-208.98c-0.165,0-0.328,0.015-0.493,0.018c-0.354,0.007-0.708,0.018-1.059,0.04
		c-0.271,0.018-0.541,0.04-0.811,0.066c-0.336,0.033-0.67,0.069-1.004,0.116c-0.283,0.04-0.564,0.083-0.845,0.131
		c-0.314,0.055-0.629,0.116-0.94,0.182c-0.293,0.063-0.584,0.129-0.877,0.202c-0.296,0.074-0.587,0.154-0.878,0.24
		c-0.301,0.088-0.599,0.179-0.897,0.276c-0.28,0.094-0.556,0.192-0.831,0.294c-0.301,0.111-0.601,0.23-0.9,0.354
		c-0.27,0.113-0.538,0.23-0.802,0.351c-0.288,0.132-0.572,0.27-0.854,0.409c-0.271,0.139-0.543,0.281-0.807,0.43
		c-0.261,0.142-0.518,0.29-0.773,0.442c-0.275,0.165-0.544,0.338-0.812,0.511c-0.237,0.156-0.47,0.313-0.7,0.475
		c-0.266,0.189-0.529,0.382-0.791,0.582c-0.222,0.17-0.44,0.339-0.655,0.516c-0.25,0.207-0.498,0.419-0.74,0.634
		c-0.21,0.189-0.42,0.377-0.624,0.571c-0.232,0.218-0.453,0.445-0.675,0.672c-0.203,0.207-0.404,0.414-0.599,0.63
		c-0.207,0.228-0.405,0.463-0.606,0.698c-0.192,0.228-0.384,0.458-0.569,0.695c-0.187,0.237-0.364,0.48-0.541,0.725
		c-0.177,0.247-0.357,0.491-0.526,0.744c-0.169,0.255-0.331,0.516-0.493,0.778c-0.156,0.253-0.314,0.506-0.462,0.764
		c-0.162,0.283-0.313,0.577-0.462,0.869c-0.127,0.247-0.26,0.49-0.379,0.741c-0.159,0.333-0.303,0.675-0.443,1.016
		c-0.081,0.19-0.172,0.371-0.248,0.563c-0.015,0.033-0.025,0.069-0.036,0.104c-0.149,0.385-0.278,0.778-0.407,1.168
		c-0.065,0.195-0.139,0.384-0.199,0.581c-0.127,0.42-0.235,0.845-0.339,1.272c-0.041,0.17-0.096,0.341-0.134,0.515
		c-0.099,0.448-0.177,0.9-0.251,1.352c-0.109,0.655-0.197,1.315-0.255,1.982c-0.007,0.091-0.023,0.182-0.03,0.273
		c-0.038,0.538-0.055,1.079-0.06,1.623c-0.002,0.074-0.008,0.149-0.008,0.225v0.066v142.727c0,62.81,45.025,115.282,104.49,126.891
		c8.036,1.568,16.327,2.414,24.816,2.414c8.429,0,16.728-0.844,24.816-2.434c40.54-7.968,75.589-35.11,93.016-73.637
		c0.002-0.003,0.003-0.005,0.005-0.008c7.612-16.825,11.47-34.735,11.47-53.228V24.816C385.307,11.111,374.196,0,360.491,0z"/>
	<path style="fill:#D8143A;" d="M126.695,24.816v0.012c0-0.074,0.007-0.151,0.008-0.225C126.7,24.674,126.695,24.745,126.695,24.816
		z"/>
	<path style="fill:#D8143A;" d="M141.601,2.065c-0.147,0.063-0.285,0.139-0.428,0.205c0.265-0.121,0.533-0.24,0.802-0.351
		C141.853,1.969,141.726,2.01,141.601,2.065z"/>
</g>
<path style="fill:#B8002B;" d="M356.115,234.949c-1.625,0.328-3.263,0.486-4.889,0.486c-4.53,0-8.97-1.256-12.845-3.6
	c-1.438-0.87-2.803-1.879-4.058-3.047l-14.509-13.498L176.328,81.8l-24.816-23.087l-16.903-15.725
	c-5.129-4.77-7.892-11.359-7.913-18.093v142.727c0,62.81,45.025,115.282,104.49,126.891c8.036,1.568,16.327,2.415,24.816,2.415
	c8.429,0,16.728-0.844,24.816-2.434c40.54-7.968,75.589-35.11,93.016-73.637C370.54,228.13,363.946,233.376,356.115,234.949z"/>
<path style="fill:#A4E276;" d="M444.658,389.022c-1.575-2.629-39.365-64.357-104.966-64.357c-23.25,0-42.985,7.764-58.874,17.893
	v-48.066c-8.088,1.59-16.387,2.434-24.816,2.434c-8.489,0-16.781-0.845-24.816-2.414v48.046
	c-15.889-10.128-35.625-17.891-58.873-17.891c-65.603,0-103.393,61.728-104.968,64.357c-5.337,8.894-4.579,20.169,1.899,28.269
	c5.046,6.307,50.802,61.621,103.067,61.621c23.25,0,42.985-7.764,58.874-17.891v26.163c0,13.707,11.111,24.816,24.816,24.816
	c13.705,0,24.816-11.109,24.816-24.816v-29.143c16.928,11.478,37.344,20.869,58.873,20.869
	c65.603-0.002,103.391-61.728,104.968-64.354C449.373,406.698,449.373,396.881,444.658,389.022z"/>
<path style="fill:#64C37D;" d="M231.185,294.51v48.046c-15.889-10.128-35.625-17.891-58.873-17.891
	c-65.603,0-103.393,61.728-104.968,64.357c-5.337,8.894-4.579,20.169,1.899,28.269c5.046,6.307,50.802,61.621,103.067,61.621
	c23.25,0,42.985-7.764,58.874-17.891v26.163c0,13.707,11.111,24.816,24.816,24.816V296.925
	C247.512,296.925,239.221,296.078,231.185,294.51z"/>
<g>
</g>
<g>
</g>
<g>
</g>
<g>
</g>
<g>
</g>
<g>
</g>
<g>
</g>
<g>
</g>
<g>
</g>
<g>
</g>
<g>
</g>
<g>
</g>
<g>
</g>
<g>
</g>
<g>
</g>
</svg>
