<?xml version="1.0" encoding="iso-8859-1"?>
<!-- Generator: Adobe Illustrator 19.0.0, SVG Export Plug-In . SVG Version: 6.00 Build 0)  -->
<svg version="1.1" id="Layer_1" xmlns="http://www.w3.org/2000/svg" xmlns:xlink="http://www.w3.org/1999/xlink" x="0px" y="0px"
	 viewBox="0 0 512.002 512.002" style="enable-background:new 0 0 512.002 512.002;" xml:space="preserve">
<g>
	<path style="fill:#EE8700;" d="M362.262,36.459c-8.643-3.58-18.595-1.601-25.213,5.016l-14.735,14.737l-50.04-49.52
		c-9.015-8.921-23.531-8.922-32.546-0.002l-49.497,48.982l-15.883-14.777c-6.738-6.269-16.552-7.947-24.996-4.272
		c-8.439,3.677-13.896,12.007-13.896,21.21v133.126c0,58.555,41.974,107.47,97.408,118.291c7.491,1.462,15.221,2.25,23.134,2.25
		c7.856,0,15.594-0.787,23.134-2.269c37.786-7.428,70.458-32.726,86.706-68.634c0.003-0.006,0.008-0.014,0.011-0.02
		c7.095-15.684,10.693-32.379,10.693-49.62V57.832C376.544,48.477,370.909,40.04,362.262,36.459z"/>
	<path style="fill:#EE8700;" d="M272.274,6.691c-9.015-8.921-23.531-8.922-32.546-0.002l-49.497,48.982l16.951,15.77l51.755,48.147
		l12.314-12.315l18.347-18.347l16.358-16.358l16.358-16.359L272.274,6.691z"/>
</g>
<path style="fill:#D8143A;" d="M362.262,36.459c-8.643-3.58-18.595-1.601-25.213,5.016l-14.735,14.737L305.956,72.57l-16.358,16.358
	l-18.347,18.347l-12.314,12.315l16.338,15.198c0.003,0.005,0.006,0.006,0.009,0.009l0.605,0.56l16.947,15.768l20.661,19.223
	l38.687,35.993l8.347,7.764c7.273,6.766,9.416,17.419,5.321,26.472c-0.005,0.006-0.008,0.014-0.011,0.022
	c0.003-0.006,0.008-0.014,0.011-0.02c7.095-15.684,10.693-32.379,10.693-49.62V57.832C376.544,48.477,370.909,40.04,362.262,36.459z
	"/>
<path style="fill:#B8002B;" d="M360.53,214.105l-8.347-7.764l-38.687-35.993l-20.661-19.225l-16.947-15.768l-0.605-0.56
	c-0.003-0.003-0.006-0.005-0.009-0.009l-16.338-15.198l-51.755-48.147l-16.951-15.77l-15.883-14.777
	c-6.738-6.269-16.552-7.947-24.996-4.272c-8.439,3.677-13.896,12.007-13.896,21.21v133.126c0,58.555,41.974,107.47,97.408,118.291
	c7.491,1.462,15.221,2.25,23.134,2.25c7.856,0,15.594-0.787,23.134-2.269c37.786-7.428,70.458-32.726,86.706-68.634
	c0.003-0.008,0.006-0.015,0.011-0.022C369.946,231.524,367.804,220.871,360.53,214.105z"/>
<path style="fill:#A4E276;" d="M431.872,397.357c-1.468-2.449-36.697-59.997-97.852-59.997c-21.674,0-40.072,7.238-54.884,16.68
	v-44.807c-7.54,1.482-15.278,2.269-23.134,2.269c-7.913,0-15.643-0.788-23.134-2.25v44.79c-14.812-9.44-33.21-16.68-54.881-16.68
	c-61.158,0-96.387,57.546-97.857,59.995c-4.974,8.291-4.268,18.802,1.772,26.352c4.704,5.879,47.359,57.446,96.082,57.446
	c21.674,0,40.072-7.238,54.884-16.677v24.39c0,12.776,10.358,23.134,23.134,23.134c12.776,0,23.134-10.358,23.134-23.134v-27.166
	c15.781,10.7,34.813,19.455,54.881,19.455c61.158,0,96.386-57.543,97.855-59.992C436.268,413.835,436.269,404.683,431.872,397.357z"
	/>
<path style="fill:#64C37D;" d="M232.867,309.249v44.79c-14.811-9.44-33.21-16.678-54.881-16.678
	c-61.158,0-96.387,57.546-97.857,59.995c-4.974,8.291-4.268,18.801,1.772,26.352c4.704,5.879,47.359,57.446,96.082,57.446
	c21.674,0,40.072-7.238,54.884-16.677v24.39c0,12.776,10.358,23.134,23.134,23.134V311.503
	C248.088,311.501,240.358,310.713,232.867,309.249z"/>
<g>
</g>
<g>
</g>
<g>
</g>
<g>
</g>
<g>
</g>
<g>
</g>
<g>
</g>
<g>
</g>
<g>
</g>
<g>
</g>
<g>
</g>
<g>
</g>
<g>
</g>
<g>
</g>
<g>
</g>
</svg>
