<?xml version="1.0" encoding="iso-8859-1"?>
<!-- Generator: Adobe Illustrator 19.0.0, SVG Export Plug-In . SVG Version: 6.00 Build 0)  -->
<svg version="1.1" id="Layer_1" xmlns="http://www.w3.org/2000/svg" xmlns:xlink="http://www.w3.org/1999/xlink" x="0px" y="0px"
	 viewBox="0 0 512.001 512.001" style="enable-background:new 0 0 512.001 512.001;" xml:space="preserve">
<path style="fill:#A9825A;" d="M493.532,182.978c24.625-24.625,24.625-64.549,0-89.173c-15.852-15.852-38.042-21.482-58.411-16.924
	c4.558-20.37-1.072-42.559-16.924-58.411c-24.625-24.625-64.549-24.625-89.173,0s-24.625,64.549,0,89.173
	c1.056,1.056,2.15,2.049,3.259,3.015l-74.569,74.569c-66.108-9.788-162.107,32.108-209.241,79.242
	c-60.496,60.496-64.976,154.099-10.007,209.067c54.969,54.969,148.572,50.489,209.067-10.007
	c47.133-47.134,89.028-143.132,79.242-209.241l74.569-74.569c0.965,1.109,1.96,2.203,3.015,3.259
	C428.984,207.602,468.908,207.602,493.532,182.978z"/>
<path style="fill:#7E6142;" d="M326.776,254.288l74.569-74.569c0.965,1.109,1.958,2.203,3.015,3.259
	c24.625,24.625,64.549,24.625,89.173,0s24.625-64.549,0-89.173c-15.852-15.852-38.042-21.482-58.411-16.924L38.467,473.534
	c54.969,54.969,148.572,50.489,209.067-10.007C294.667,416.394,336.563,320.395,326.776,254.288z"/>
<path style="fill:#FBDBAC;" d="M326.776,254.287l74.569-74.569c0.965,1.109,1.96,2.203,3.015,3.259
	c24.625,24.625,64.549,24.625,89.173,0s24.625-64.549,0-89.173C477.68,77.951,455.49,72.322,435.121,76.88
	c4.558-20.37-1.072-42.559-16.924-58.411c-24.625-24.625-64.549-24.625-89.173,0s-24.625,64.549,0,89.173
	c1.056,1.056,2.149,2.049,3.259,3.015l-74.569,74.569L326.776,254.287z"/>
<path style="fill:#E5C395;" d="M493.532,182.978c24.625-24.625,24.623-64.549,0-89.173c-15.852-15.852-38.042-21.482-58.411-16.924
	L292.245,219.756l34.531,34.531l74.569-74.569c0.965,1.109,1.958,2.204,3.015,3.259
	C428.984,207.602,468.907,207.602,493.532,182.978z"/>
<g>
</g>
<g>
</g>
<g>
</g>
<g>
</g>
<g>
</g>
<g>
</g>
<g>
</g>
<g>
</g>
<g>
</g>
<g>
</g>
<g>
</g>
<g>
</g>
<g>
</g>
<g>
</g>
<g>
</g>
</svg>
