<?xml version="1.0" encoding="iso-8859-1"?>
<!-- Generator: Adobe Illustrator 19.0.0, SVG Export Plug-In . SVG Version: 6.00 Build 0)  -->
<svg version="1.1" id="Layer_1" xmlns="http://www.w3.org/2000/svg" xmlns:xlink="http://www.w3.org/1999/xlink" x="0px" y="0px"
	 viewBox="0 0 512 512" style="enable-background:new 0 0 512 512;" xml:space="preserve">
<rect x="182.5" y="354.712" style="fill:#181818;" width="147" height="124.991"/>
<path style="fill:#BEC8D6;" d="M512,348.793c0,16.67-13.513,30.184-30.184,30.184H30.184C13.513,378.978,0,365.464,0,348.793V50.346
	c0-16.67,13.513-30.184,30.184-30.184h451.633c16.67,0,30.184,13.513,30.184,30.184L512,348.793L512,348.793z"/>
<g>
	<path style="fill:#4C5870;" d="M256,93.408c-58.538,0-106.161,47.623-106.161,106.161S197.462,305.731,256,305.731
		c19.788,0,39.101-5.485,55.848-15.862c5.696-3.529,7.453-11.008,3.924-16.704c-3.529-5.694-11.007-7.452-16.704-3.922
		c-12.907,7.997-27.8,12.224-43.069,12.224c-45.158,0-81.896-36.738-81.896-81.896s36.738-81.896,81.896-81.896
		s81.896,36.738,81.896,81.896c0,7.684-1.804,14.113-5.08,18.103c-2.198,2.678-4.99,4.152-7.863,4.152
		c-6.276,0-13.029-6.964-13.029-22.255c0-30.836-25.087-55.923-55.923-55.923s-55.923,25.087-55.923,55.923
		s25.087,55.922,55.923,55.922c17.617,0,33.346-8.196,43.604-20.964c6.979,7.64,16.186,11.562,25.349,11.562
		c10.126,0,19.828-4.746,26.62-13.023c6.927-8.441,10.588-20.023,10.588-33.497C362.161,141.033,314.538,93.408,256,93.408z
		 M256,231.227c-17.457,0-31.658-14.201-31.658-31.657c0-17.457,14.201-31.658,31.658-31.658s31.658,14.201,31.658,31.658
		C287.658,217.026,273.457,231.227,256,231.227z"/>
	<path style="fill:#4C5870;" d="M386.798,491.838H125.202c-6.7,0-12.133-5.432-12.133-12.133c0-6.701,5.433-12.133,12.133-12.133
		h261.594c6.7,0,12.133,5.432,12.133,12.133C398.929,486.406,393.497,491.838,386.798,491.838z"/>
</g>
<g>
</g>
<g>
</g>
<g>
</g>
<g>
</g>
<g>
</g>
<g>
</g>
<g>
</g>
<g>
</g>
<g>
</g>
<g>
</g>
<g>
</g>
<g>
</g>
<g>
</g>
<g>
</g>
<g>
</g>
</svg>
