<?xml version="1.0" encoding="iso-8859-1"?>
<!-- Generator: Adobe Illustrator 19.0.0, SVG Export Plug-In . SVG Version: 6.00 Build 0)  -->
<svg version="1.1" id="Layer_1" xmlns="http://www.w3.org/2000/svg" xmlns:xlink="http://www.w3.org/1999/xlink" x="0px" y="0px"
	 viewBox="0 0 512 512" style="enable-background:new 0 0 512 512;" xml:space="preserve">
<path style="fill:#6A82A1;" d="M454.063,450.637H57.937c-9.864,0-17.86-7.997-17.86-17.86v-140.09c0-3.776,1.197-7.455,3.418-10.508
	l23.782-32.683c3.36-4.62,8.729-7.353,14.442-7.353h348.563c5.713,0,11.082,2.733,14.442,7.353l23.782,32.683
	c2.222,3.053,3.419,6.732,3.419,10.508v140.089C471.924,442.641,463.927,450.637,454.063,450.637z"/>
<path style="fill:#36495E;" d="M468.505,282.179l-23.782-32.683c-3.36-4.62-8.729-7.353-14.442-7.353H256v208.495h198.063
	c9.864,0,17.86-7.997,17.86-17.86v-140.09C471.924,288.912,470.727,285.233,468.505,282.179z"/>
<path style="fill:#22313F;" d="M494.14,277.864h-58.026c-9.864,0-17.86-7.997-17.86-17.86v-81.369c0-9.864,7.997-17.86,17.86-17.86
	h58.026c9.864,0,17.86,7.997,17.86,17.86v81.369C512,269.867,504.003,277.864,494.14,277.864z"/>
<path style="fill:#F1F2F2;" d="M400.68,196.495H111.32c-9.864,0-17.86-7.997-17.86-17.86V79.223c0-9.864,7.997-17.86,17.86-17.86
	H400.68c9.864,0,17.86,7.997,17.86,17.86v99.411C418.541,188.499,410.544,196.495,400.68,196.495z"/>
<path style="fill:#E6E7E8;" d="M400.68,61.363H256v135.132h144.68c9.864,0,17.86-7.997,17.86-17.86V79.223
	C418.541,69.359,410.544,61.363,400.68,61.363z"/>
<path style="fill:#2C3E50;" d="M75.887,277.864H17.86c-9.864,0-17.86-7.997-17.86-17.86v-81.369c0-9.864,7.997-17.86,17.86-17.86
	h58.026c9.864,0,17.86,7.997,17.86,17.86v81.369C93.747,269.867,85.752,277.864,75.887,277.864z"/>
<g>
	<path style="fill:#36495E;" d="M146.562,356.847h-21.897c-9.864,0-17.86-7.997-17.86-17.86s7.997-17.86,17.86-17.86h21.897
		c9.864,0,17.86,7.997,17.86,17.86S156.426,356.847,146.562,356.847z"/>
	<path style="fill:#36495E;" d="M226.82,356.847h-21.897c-9.864,0-17.86-7.997-17.86-17.86s7.997-17.86,17.86-17.86h21.897
		c9.864,0,17.86,7.997,17.86,17.86S236.683,356.847,226.82,356.847z"/>
	<path style="fill:#36495E;" d="M146.562,407.375h-21.897c-9.864,0-17.86-7.997-17.86-17.86s7.997-17.86,17.86-17.86h21.897
		c9.864,0,17.86,7.997,17.86,17.86C164.422,399.378,156.426,407.375,146.562,407.375z"/>
	<path style="fill:#36495E;" d="M307.077,407.375H204.924c-9.864,0-17.86-7.997-17.86-17.86s7.997-17.86,17.86-17.86h102.154
		c9.864,0,17.86,7.997,17.86,17.86S316.941,407.375,307.077,407.375z"/>
	<path style="fill:#36495E;" d="M453.974,277.864H58.026v-117.09h395.946v117.09H453.974z"/>
</g>
<g>
	<rect x="256" y="160.78" style="fill:#2C3E50;" width="197.977" height="117.093"/>
	<path style="fill:#2C3E50;" d="M307.077,356.847H285.18c-9.864,0-17.86-7.997-17.86-17.86s7.997-17.86,17.86-17.86h21.897
		c9.864,0,17.86,7.997,17.86,17.86S316.941,356.847,307.077,356.847z"/>
	<path style="fill:#2C3E50;" d="M387.335,356.847h-21.897c-9.864,0-17.86-7.997-17.86-17.86s7.997-17.86,17.86-17.86h21.897
		c9.864,0,17.86,7.997,17.86,17.86S397.199,356.847,387.335,356.847z"/>
	<path style="fill:#2C3E50;" d="M387.335,407.375h-21.897c-9.864,0-17.86-7.997-17.86-17.86s7.997-17.86,17.86-17.86h21.897
		c9.864,0,17.86,7.997,17.86,17.86C405.196,399.378,397.199,407.375,387.335,407.375z"/>
	<path style="fill:#2C3E50;" d="M307.077,371.654H256v35.721h51.077c9.864,0,17.86-7.997,17.86-17.86
		C324.938,379.65,316.941,371.654,307.077,371.654z"/>
</g>
<g>
</g>
<g>
</g>
<g>
</g>
<g>
</g>
<g>
</g>
<g>
</g>
<g>
</g>
<g>
</g>
<g>
</g>
<g>
</g>
<g>
</g>
<g>
</g>
<g>
</g>
<g>
</g>
<g>
</g>
</svg>
