<?xml version="1.0" encoding="iso-8859-1"?>
<!-- Generator: Adobe Illustrator 19.0.0, SVG Export Plug-In . SVG Version: 6.00 Build 0)  -->
<svg version="1.1" id="Layer_1" xmlns="http://www.w3.org/2000/svg" xmlns:xlink="http://www.w3.org/1999/xlink" x="0px" y="0px"
	 viewBox="0 0 512 512" style="enable-background:new 0 0 512 512;" xml:space="preserve">
<path style="fill:#616164;" d="M255.999,0L255.999,0c-8.534,0-15.453,6.919-15.453,15.453v61.811
	c0,8.534,6.919,15.453,15.453,15.453l0,0c8.534,0,15.453-6.919,15.453-15.453V15.453C271.452,6.919,264.533,0,255.999,0z"/>
<path style="fill:#555558;" d="M293.601,512c-29.254,0-53.055-23.8-53.055-53.055V224.579c0-8.534,6.919-15.453,15.453-15.453
	c8.534,0,15.453,6.919,15.453,15.453v234.366c0,12.213,9.936,22.149,22.149,22.149c12.213,0,22.149-9.936,22.149-22.149v-21.118
	c0-8.534,6.919-15.453,15.453-15.453c8.534,0,15.453,6.919,15.453,15.453v21.118C346.655,488.2,322.855,512,293.601,512z"/>
<path style="fill:#BFF8FA;" d="M91.964,245.548c40.648,0,74.369,29.576,80.867,68.378c15.927-29.605,47.196-49.733,83.168-49.733
	c35.838,0,67.009,19.975,82.991,49.398c6.636-38.636,40.277-68.042,80.808-68.042c16.439,0,31.734,4.855,44.569,13.181
	c0.654-3.091,1.007-6.27,1.007-9.548c0-115.634-93.74-209.373-209.373-209.373S46.627,133.547,46.627,249.181
	c0,3.23,0.344,6.364,0.979,9.414C60.396,250.35,75.615,245.548,91.964,245.548z"/>
<path style="fill:#00DAE2;" d="M255.871,39.948c-0.042-0.046-0.083-0.092-0.125-0.138h-0.002v0.278
	c-89.885,98.408-87.255,226.567-82.692,273.442c15.992-29.387,47.135-49.339,82.947-49.339c35.649,0,66.675,19.769,82.73,48.937
	c4.538-47.2,6.9-174.911-82.73-273.04v-0.282C255.956,39.854,255.914,39.902,255.871,39.948z"/>
<path style="fill:#009191;" d="M255.999,39.807v224.385c35.838,0,67.009,19.975,82.991,49.398
	c6.636-38.636,40.277-68.042,80.808-68.042c16.439,0,31.734,4.855,44.569,13.181c0.654-3.091,1.007-6.27,1.007-9.548
	C465.372,133.548,371.633,39.807,255.999,39.807z"/>
<path style="fill:#00A3AA;" d="M255.999,40.09v-0.282c-0.042,0.047-0.085,0.094-0.127,0.141l0,0v224.245
	c0.042,0,0.085-0.002,0.127-0.002c35.649,0,66.675,19.769,82.73,48.937C343.267,265.93,345.629,138.219,255.999,40.09z"/>
<g>
</g>
<g>
</g>
<g>
</g>
<g>
</g>
<g>
</g>
<g>
</g>
<g>
</g>
<g>
</g>
<g>
</g>
<g>
</g>
<g>
</g>
<g>
</g>
<g>
</g>
<g>
</g>
<g>
</g>
</svg>
