<?xml version="1.0" encoding="iso-8859-1"?>
<!-- Generator: Adobe Illustrator 19.0.0, SVG Export Plug-In . SVG Version: 6.00 Build 0)  -->
<svg version="1.1" id="Layer_1" xmlns="http://www.w3.org/2000/svg" xmlns:xlink="http://www.w3.org/1999/xlink" x="0px" y="0px"
	 viewBox="0 0 512 512" style="enable-background:new 0 0 512 512;" xml:space="preserve">
<path style="fill:#4C9CD6;" d="M16.115,208.1H336.01c8.837,0,15.995,7.158,15.995,15.995v271.911
	c0,8.837-7.158,15.995-15.995,15.995H16.115c-8.837,0-15.995-7.158-15.995-15.995V224.094C0.12,215.257,7.286,208.1,16.115,208.1z"
	/>
<g>
	<rect x="0.048" y="464.008" style="fill:#3689C9;" width="351.885" height="15.995"/>
	<rect x="0.048" y="256.076" style="fill:#3689C9;" width="351.885" height="15.995"/>
</g>
<path style="fill:#576D7E;" d="M208.052,328.06c0-17.666-14.315-31.99-31.99-31.99c-17.666,0-31.99,14.315-31.99,31.99
	c0,10.557,5.206,20.433,13.915,26.399l-12.316,61.58c-0.936,3.359,1.04,6.846,4.399,7.773c0.648,0.176,1.32,0.256,1.999,0.224
	h47.984c3.487,0.168,6.446-2.519,6.622-5.998c0.032-0.672-0.04-1.344-0.224-1.999l-12.316-61.58
	C202.845,348.486,208.052,338.609,208.052,328.06z"/>
<path style="fill:#3689C9;" d="M336.01,240.089v255.916h-303.9c-8.837,0-15.995,7.158-15.995,15.995H336.01
	c8.837,0,15.995-7.158,15.995-15.995V224.094l0,0C343.175,224.094,336.01,231.252,336.01,240.089z"/>
<path style="fill:#3F556B;" d="M173.983,362.449c-14.571-9.997-18.282-29.902-8.285-44.473
	c7.166-10.445,19.826-15.683,32.277-13.348c-13.164-11.788-33.381-10.676-45.169,2.487c-11.788,13.164-10.676,33.381,2.487,45.169
	c0.856,0.768,1.759,1.496,2.695,2.167l-12.316,61.58c-0.936,3.359,1.04,6.846,4.399,7.773c0.648,0.176,1.32,0.256,1.999,0.224h9.597
	L173.983,362.449z"/>
<path style="fill:#B2C4D0;" d="M377.516,0.168c-68.697,3.519-121.48,62.859-121.48,131.637V208.1h47.984v-77.175
	c-0.632-42.842,31.862-78.926,74.536-82.773c44.066-3.007,82.221,30.286,85.228,74.352c0.128,1.871,0.192,3.751,0.184,5.622v71.976
	c0,4.415,3.583,7.997,7.997,7.997h31.99c4.415,0,7.997-3.583,7.997-7.997v-71.976C512.048,57.453,454.827,0.088,384.162,0
	C381.947,0,379.731,0.048,377.516,0.168z"/>
<g>
	<path style="fill:#8FAEBF;" d="M329.132,59.269c-25.872,16.099-41.458,44.545-41.107,75.015v41.826
		c0,8.837-7.158,15.995-15.995,15.995l0,0c-8.837,0-15.995,7.158-15.995,15.995h47.984v-79.974
		c0.016-24.448,11.212-47.544,30.39-62.699c1.855-1.216,2.375-3.703,1.16-5.558c-1.216-1.855-3.703-2.375-5.558-1.16L329.132,59.269
		z"/>
	<path style="fill:#8FAEBF;" d="M383.994,0.168c-0.56,0-0.8,0.72-0.8,1.839c0.2,8.061,6.374,14.707,14.395,15.515
		c59.261,8.477,98.368,47.424,98.368,110.604v47.984c0,8.837-7.158,15.995-15.995,15.995h-7.997c-4.415,0-7.997,3.583-7.997,7.997
		l0,0c0,4.415,3.583,7.997,7.997,7.997h31.99c4.415,0,7.997-3.583,7.997-7.997v-71.976C511.952,57.453,454.667,0.168,383.994,0.168z
		"/>
</g>
<path style="fill:#70B7E5;" d="M16.115,208.1H336.01l0,0l0,0c0,8.837-7.158,15.995-15.995,15.995H32.109
	C23.28,224.094,16.115,216.929,16.115,208.1L16.115,208.1L16.115,208.1z"/>
<g>
</g>
<g>
</g>
<g>
</g>
<g>
</g>
<g>
</g>
<g>
</g>
<g>
</g>
<g>
</g>
<g>
</g>
<g>
</g>
<g>
</g>
<g>
</g>
<g>
</g>
<g>
</g>
<g>
</g>
</svg>
