<?xml version="1.0" encoding="iso-8859-1"?>
<!-- Generator: Adobe Illustrator 19.0.0, SVG Export Plug-In . SVG Version: 6.00 Build 0)  -->
<svg version="1.1" id="Layer_1" xmlns="http://www.w3.org/2000/svg" xmlns:xlink="http://www.w3.org/1999/xlink" x="0px" y="0px"
	 viewBox="0 0 512 512" style="enable-background:new 0 0 512 512;" xml:space="preserve">
<rect x="112.941" style="fill:#DFDFE1;" width="45.176" height="90.353"/>
<rect x="353.882" style="fill:#CFCDD2;" width="45.176" height="90.353"/>
<rect x="45.176" y="75.294" style="fill:#F2F2F4;" width="421.647" height="436.706"/>
<rect x="256" y="75.294" style="fill:#DFDFE1;" width="210.824" height="436.706"/>
<rect x="45.176" y="75.294" style="fill:#E17858;" width="421.647" height="105.412"/>
<g>
	<rect x="256" y="75.294" style="fill:#FF4F19;" width="210.824" height="105.412"/>
	<path style="fill:#FF4F19;" d="M256,421.647l87.669-87.669c17.839-17.839,17.839-46.761,0-64.598
		c-17.839-17.839-46.761-17.839-64.599,0L256,292.45l-23.072-23.07c-17.839-17.839-46.761-17.839-64.598,0
		c-17.839,17.839-17.839,46.761,0,64.598L256,421.647z"/>
</g>
<path style="fill:#AF2E08;" d="M343.669,269.378c-17.839-17.839-46.761-17.839-64.599,0L256,292.45v129.197l87.669-87.669
	C361.508,316.139,361.508,287.217,343.669,269.378z"/>
<g>
</g>
<g>
</g>
<g>
</g>
<g>
</g>
<g>
</g>
<g>
</g>
<g>
</g>
<g>
</g>
<g>
</g>
<g>
</g>
<g>
</g>
<g>
</g>
<g>
</g>
<g>
</g>
<g>
</g>
</svg>
