<?xml version="1.0" encoding="iso-8859-1"?>
<!-- Generator: Adobe Illustrator 19.0.0, SVG Export Plug-In . SVG Version: 6.00 Build 0)  -->
<svg version="1.1" id="Layer_1" xmlns="http://www.w3.org/2000/svg" xmlns:xlink="http://www.w3.org/1999/xlink" x="0px" y="0px"
	 viewBox="0 0 512 512" style="enable-background:new 0 0 512 512;" xml:space="preserve">
<path style="fill:#3F4A5A;" d="M512,414.346c0,4.626-1.766,9.249-5.292,12.774c-3.528,3.525-8.159,5.292-12.774,5.292H18.066
	c-4.616,0-9.249-1.766-12.774-5.292S0,418.97,0,414.346V97.654c0-4.616,1.766-9.236,5.292-12.767s8.159-5.299,12.774-5.299h475.866
	c4.618,0,9.247,1.772,12.774,5.299c3.525,3.528,5.292,8.151,5.292,12.767v316.692H512z"/>
<g>
	<path style="fill:#333C49;" d="M490.593,276.613c0,2.783-2.268,5.059-5.061,5.059h-1.239c-2.801,0-5.064-2.276-5.064-5.059v-41.216
		c0-2.783,2.263-5.059,5.064-5.059h1.239c2.793,0,5.061,2.276,5.061,5.059V276.613z"/>
	<path style="fill:#333C49;" d="M35.041,256.038c0,4.393-3.533,7.892-7.967,7.892c-4.342,0-7.939-3.5-7.939-7.892
		c0-4.383,3.597-7.967,7.939-7.967C31.508,248.072,35.041,251.653,35.041,256.038z"/>
</g>
<path style="fill:#3F4A5A;" d="M29.834,256.003c0,1.518-1.229,2.708-2.749,2.708c-1.5,0-2.701-1.19-2.701-2.708
	c0-1.516,1.201-2.737,2.701-2.737C28.603,253.266,29.834,254.487,29.834,256.003z"/>
<rect x="54.17" y="108.288" style="fill:#FFFFFF;" width="403.635" height="295.45"/>
<rect x="77.716" y="131.814" style="fill:#F67656;" width="356.557" height="248.371"/>
<rect x="213.837" y="215.142" style="fill:#FFFFFF;" width="84.334" height="56.22"/>
<polygon style="fill:#3F4A5A;" points="247.084,231.191 267.955,243.238 247.084,255.283 "/>
<rect x="77.716" y="348.8" style="fill:#E66847;" width="136.115" height="11.768"/>
<rect x="213.837" y="348.8" style="fill:#FFFFFF;" width="220.442" height="11.768"/>
<path style="fill:#3F4A5A;" d="M224.724,354.67c0,6.019-4.879,10.893-10.888,10.893c-6.013,0-10.89-4.874-10.89-10.893
	c0-6.008,4.879-10.883,10.89-10.883C219.845,343.788,224.724,348.662,224.724,354.67z"/>
<g>
</g>
<g>
</g>
<g>
</g>
<g>
</g>
<g>
</g>
<g>
</g>
<g>
</g>
<g>
</g>
<g>
</g>
<g>
</g>
<g>
</g>
<g>
</g>
<g>
</g>
<g>
</g>
<g>
</g>
</svg>
