<?xml version="1.0" encoding="iso-8859-1"?>
<!-- Generator: Adobe Illustrator 19.0.0, SVG Export Plug-In . SVG Version: 6.00 Build 0)  -->
<svg version="1.1" id="Layer_1" xmlns="http://www.w3.org/2000/svg" xmlns:xlink="http://www.w3.org/1999/xlink" x="0px" y="0px"
	 viewBox="0 0 512 512" style="enable-background:new 0 0 512 512;" xml:space="preserve">
<polygon style="fill:#FFFFFF;" points="267.636,162.909 267.636,139.636 190.061,139.636 190.061,162.909 190.061,186.182 
	267.636,186.182 "/>
<path style="fill:#E69629;" d="M178.424,93.091h23.594h53.661h23.594h11.636c4.167,0,8.069,1.109,11.453,3.027l11.503-69.019
	c1.125-6.748-0.777-13.649-5.199-18.87C304.246,3.01,297.75,0,290.909,0H166.788c-6.841,0-13.337,3.01-17.757,8.231
	c-4.422,5.219-6.322,12.122-5.199,18.87l10.999,65.991h11.958H178.424z"/>
<g>
	<path style="fill:#AF2E08;" d="M346.559,364.172c-2.321-6.928-5.246-13.621-8.719-20.007c-4.358-8.007-9.602-15.512-15.602-22.398
		c-0.461-0.526-0.906-1.066-1.375-1.584c-0.25-0.278-0.514-0.542-0.765-0.816c-0.898-0.979-1.803-1.952-2.734-2.903
		c-1.179-1.206-2.385-2.386-3.615-3.545c-0.428-0.405-0.874-0.793-1.309-1.192c-0.861-0.788-1.724-1.575-2.61-2.34
		c-0.523-0.453-1.06-0.891-1.59-1.336c-0.822-0.689-1.649-1.373-2.493-2.042c-0.568-0.451-1.147-0.894-1.724-1.336
		c-0.833-0.636-1.673-1.266-2.521-1.88c-0.6-0.434-1.202-0.863-1.809-1.288c-0.861-0.6-1.733-1.19-2.611-1.769
		c-0.613-0.405-1.226-0.81-1.845-1.204c-0.917-0.583-1.846-1.147-2.78-1.705c-0.6-0.358-1.195-0.725-1.8-1.074
		c-1.04-0.599-2.098-1.171-3.156-1.741c-0.52-0.279-1.032-0.571-1.559-0.846c-1.592-0.827-3.204-1.628-4.842-2.388
		c-0.545-0.253-1.072-0.529-1.59-0.819c-0.169-0.096-0.33-0.2-0.496-0.299c-0.344-0.203-0.684-0.411-1.013-0.63
		c-0.189-0.127-0.371-0.259-0.557-0.391c-0.296-0.209-0.586-0.424-0.872-0.645c-0.186-0.146-0.366-0.295-0.549-0.445
		c-0.273-0.227-0.54-0.459-0.801-0.698c-0.171-0.158-0.343-0.315-0.509-0.478c-0.261-0.251-0.509-0.51-0.756-0.773
		c-0.152-0.161-0.304-0.321-0.451-0.486c-0.262-0.295-0.51-0.599-0.756-0.906c-0.115-0.144-0.236-0.284-0.349-0.431
		c-0.349-0.459-0.684-0.929-1.001-1.413c-0.334-0.514-0.647-1.038-0.939-1.576c-0.518-0.956-0.973-1.949-1.354-2.974
		c-0.382-1.024-0.694-2.077-0.931-3.156c-0.354-1.615-0.538-3.285-0.538-4.982v-36.949v-23.273v-23.273h-77.576v23.273v23.273
		v36.948c0,1.697-0.185,3.367-0.538,4.982c-0.236,1.078-0.549,2.132-0.931,3.156c-0.382,1.024-0.836,2.017-1.354,2.974
		c-0.292,0.538-0.607,1.064-0.939,1.576c-0.315,0.483-0.652,0.954-1.001,1.413c-0.112,0.147-0.233,0.287-0.349,0.431
		c-0.245,0.307-0.493,0.611-0.756,0.906c-0.147,0.164-0.299,0.324-0.451,0.486c-0.247,0.262-0.495,0.521-0.756,0.773
		c-0.166,0.163-0.338,0.32-0.509,0.478c-0.261,0.239-0.528,0.47-0.801,0.698c-0.182,0.151-0.361,0.299-0.549,0.445
		c-0.285,0.222-0.576,0.436-0.872,0.645c-0.186,0.132-0.368,0.265-0.557,0.391c-0.329,0.22-0.67,0.427-1.013,0.63
		c-0.166,0.099-0.327,0.205-0.496,0.299c-0.518,0.292-1.047,0.566-1.59,0.819c-1.638,0.762-3.25,1.561-4.842,2.388
		c-0.528,0.273-1.04,0.565-1.559,0.846c-1.06,0.569-2.116,1.143-3.156,1.741c-0.607,0.349-1.199,0.714-1.8,1.074
		c-0.934,0.559-1.863,1.123-2.78,1.705c-0.619,0.394-1.233,0.799-1.845,1.204c-0.877,0.58-1.75,1.168-2.611,1.769
		c-0.607,0.424-1.209,0.853-1.809,1.288c-0.849,0.616-1.688,1.244-2.521,1.88c-0.577,0.442-1.156,0.884-1.724,1.336
		c-0.844,0.669-1.671,1.353-2.493,2.042c-0.532,0.445-1.067,0.883-1.59,1.336c-0.884,0.765-1.749,1.55-2.61,2.34
		c-0.434,0.399-0.88,0.787-1.309,1.192c-1.23,1.159-2.436,2.34-3.615,3.545c-0.931,0.95-1.835,1.924-2.734,2.903
		c-0.251,0.275-0.515,0.54-0.765,0.816c-0.469,0.52-0.914,1.058-1.375,1.584c-5.998,6.886-11.244,14.39-15.602,22.398
		c-3.474,6.384-6.398,13.079-8.72,20.007c-0.929,2.771-1.761,5.579-2.493,8.418c-2.568,9.944-3.918,20.28-3.918,30.805
		c0,16.519,3.193,32.559,9.489,47.68c2.057,4.94,4.437,9.748,7.117,14.381h215.031c2.68-4.634,5.06-9.444,7.117-14.383
		c6.298-15.12,9.489-31.161,9.489-47.678c0-10.525-1.35-20.862-3.916-30.804C348.32,369.749,347.488,366.943,346.559,364.172z"/>
	<path style="fill:#AF2E08;" d="M84.77,494.888c-5.232-8.229-9.768-16.913-13.521-25.918C75,477.974,79.538,486.658,84.77,494.888z"
		/>
</g>
<g>
	<path style="fill:#8CB7E8;" d="M430.545,186.182H314.182v-23.273v-46.545c0-8.685-4.768-16.247-11.819-20.246
		c-3.384-1.918-7.286-3.027-11.453-3.027h-11.636h-23.594h-53.661h-23.594h-11.636H154.83h-19.073
		c-12.853,0-23.273,10.42-23.273,23.273s10.42,23.273,23.273,23.273h7.758v23.273v46.545v46.127
		c-52.289,30.273-85.333,86.751-85.333,147.813c0,22.691,4.395,44.753,13.067,65.576c3.753,9.005,8.29,17.689,13.521,25.918
		c1.579,2.484,3.215,4.931,4.92,7.328c4.364,6.138,11.432,9.784,18.964,9.784h240.389c7.533,0,14.601-3.646,18.967-9.787
		c7.356-10.344,13.559-21.53,18.438-33.246c1.085-2.602,2.101-5.224,3.052-7.863c6.65-18.48,10.017-37.852,10.017-57.71
		c0-15.959-2.278-31.598-6.546-46.545h37.575c12.853,0,23.273-10.42,23.273-23.273V209.455
		C453.818,196.602,443.398,186.182,430.545,186.182z M343.481,451.072c-2.057,4.939-4.437,9.747-7.117,14.383H121.333
		c-2.679-4.633-5.059-9.441-7.117-14.381c-6.296-15.121-9.489-31.161-9.489-47.68c0-10.525,1.35-20.862,3.916-30.804
		c0.734-2.841,1.565-5.648,2.493-8.419c2.321-6.928,5.246-13.621,8.72-20.007c3.128-5.747,6.703-11.244,10.69-16.434
		c1.569-2.042,3.218-4.02,4.912-5.964c0.706-0.808,1.415-1.612,2.14-2.402c0.858-0.934,1.714-1.865,2.6-2.773
		c0.042-0.043,0.09-0.085,0.133-0.129c1.179-1.206,2.385-2.386,3.615-3.545c0.428-0.405,0.874-0.793,1.309-1.192
		c0.861-0.788,1.724-1.575,2.61-2.34c0.523-0.453,1.06-0.891,1.59-1.336c0.822-0.689,1.649-1.373,2.493-2.042
		c0.568-0.452,1.145-0.894,1.724-1.336c0.833-0.636,1.673-1.264,2.521-1.88c0.6-0.434,1.202-0.863,1.809-1.288
		c0.861-0.6,1.733-1.188,2.611-1.769c0.613-0.405,1.224-0.81,1.845-1.204c0.917-0.583,1.846-1.147,2.78-1.705
		c0.6-0.358,1.195-0.725,1.8-1.074c1.04-0.599,2.098-1.171,3.156-1.741c0.52-0.281,1.032-0.571,1.559-0.846
		c1.592-0.827,3.204-1.628,4.842-2.388c0.545-0.253,1.072-0.529,1.59-0.819c0.169-0.096,0.33-0.2,0.496-0.299
		c0.343-0.203,0.684-0.411,1.013-0.63c0.189-0.127,0.371-0.261,0.557-0.391c0.295-0.209,0.588-0.424,0.872-0.645
		c0.186-0.146,0.368-0.295,0.549-0.445c0.273-0.227,0.54-0.459,0.801-0.698c0.171-0.158,0.343-0.315,0.509-0.478
		c0.261-0.251,0.509-0.51,0.756-0.773c0.152-0.161,0.304-0.321,0.451-0.486c0.262-0.295,0.51-0.599,0.756-0.906
		c0.115-0.144,0.236-0.284,0.349-0.431c0.721-0.946,1.372-1.944,1.939-2.99c0.518-0.956,0.973-1.949,1.354-2.974
		c0.382-1.024,0.694-2.077,0.931-3.156c0.354-1.615,0.538-3.285,0.538-4.982v-36.949v-23.273v-23.273v-23.273v-23.273h77.576v23.273
		v23.273v23.273v23.273v36.948c0,1.697,0.185,3.367,0.538,4.982c0.236,1.078,0.549,2.132,0.931,3.156
		c0.382,1.024,0.836,2.017,1.354,2.974c0.568,1.044,1.218,2.043,1.939,2.99c0.112,0.147,0.233,0.287,0.349,0.431
		c0.245,0.307,0.493,0.611,0.756,0.906c0.147,0.164,0.299,0.324,0.452,0.486c0.247,0.262,0.495,0.521,0.756,0.773
		c0.166,0.163,0.338,0.32,0.509,0.478c0.261,0.239,0.527,0.47,0.801,0.698c0.18,0.151,0.362,0.299,0.549,0.445
		c0.284,0.222,0.576,0.436,0.872,0.645c0.186,0.13,0.368,0.265,0.557,0.391c0.329,0.22,0.672,0.427,1.013,0.63
		c0.166,0.099,0.327,0.205,0.496,0.299c0.518,0.292,1.047,0.566,1.59,0.819c1.638,0.762,3.25,1.561,4.842,2.388
		c0.527,0.273,1.039,0.565,1.559,0.846c1.06,0.569,2.116,1.143,3.156,1.741c0.607,0.349,1.199,0.714,1.8,1.074
		c0.934,0.559,1.863,1.123,2.78,1.705c0.621,0.394,1.233,0.799,1.845,1.204c0.877,0.58,1.75,1.168,2.611,1.769
		c0.607,0.424,1.209,0.853,1.809,1.288c0.849,0.616,1.688,1.244,2.521,1.88c0.579,0.442,1.156,0.884,1.724,1.336
		c0.844,0.669,1.671,1.353,2.493,2.042c0.532,0.445,1.069,0.883,1.59,1.336c0.884,0.765,1.749,1.55,2.61,2.34
		c0.434,0.399,0.88,0.787,1.309,1.192c1.23,1.159,2.436,2.34,3.615,3.545c0.043,0.043,0.092,0.085,0.133,0.129
		c0.884,0.908,1.742,1.84,2.6,2.773c0.725,0.79,1.434,1.593,2.14,2.402c1.694,1.944,3.344,3.922,4.912,5.964
		c3.986,5.19,7.562,10.687,10.69,16.434c3.474,6.384,6.398,13.079,8.72,20.007c0.929,2.771,1.761,5.579,2.493,8.419
		c2.566,9.942,3.916,20.278,3.916,30.804C352.97,419.913,349.777,435.952,343.481,451.072z M407.273,310.303h-35.536
		c-14.471-22.219-34.062-41.121-57.555-54.722v-22.854h93.091V310.303z"/>
	<path style="fill:#8CB7E8;" d="M184.194,285.114c0.262-0.295,0.51-0.599,0.756-0.906
		C184.705,284.514,184.457,284.819,184.194,285.114z"/>
	<path style="fill:#8CB7E8;" d="M322.237,321.767c-0.706-0.808-1.415-1.612-2.14-2.402c0.251,0.275,0.515,0.54,0.765,0.816
		C321.331,320.703,321.776,321.241,322.237,321.767z"/>
	<path style="fill:#8CB7E8;" d="M181.678,287.547c0.273-0.227,0.54-0.459,0.801-0.698
		C182.216,287.089,181.949,287.32,181.678,287.547z"/>
	<path style="fill:#8CB7E8;" d="M272.398,283.777c-0.721-0.946-1.372-1.944-1.939-2.99c0.292,0.538,0.607,1.064,0.939,1.576
		C271.714,282.847,272.05,283.318,272.398,283.777z"/>
	<path style="fill:#8CB7E8;" d="M272.747,284.208c0.245,0.307,0.493,0.611,0.756,0.906
		C273.24,284.819,272.992,284.514,272.747,284.208z"/>
	<path style="fill:#8CB7E8;" d="M297.083,299.737c0.877,0.58,1.75,1.168,2.611,1.769
		C298.831,300.905,297.959,300.317,297.083,299.737z"/>
	<path style="fill:#8CB7E8;" d="M313.75,312.919c1.23,1.159,2.436,2.34,3.615,3.545C316.186,315.257,314.981,314.078,313.75,312.919
		z"/>
	<path style="fill:#8CB7E8;" d="M171.756,293.168c1.592-0.827,3.204-1.628,4.842-2.388
		C174.961,291.542,173.349,292.341,171.756,293.168z"/>
	<path style="fill:#8CB7E8;" d="M176.598,290.78c0.545-0.253,1.072-0.529,1.59-0.819
		C177.672,290.251,177.143,290.527,176.598,290.78z"/>
	<path style="fill:#8CB7E8;" d="M178.686,289.66c0.344-0.203,0.684-0.411,1.013-0.63
		C179.371,289.251,179.029,289.457,178.686,289.66z"/>
	<path style="fill:#8CB7E8;" d="M274.711,286.372c-0.261-0.251-0.509-0.51-0.756-0.773
		C274.201,285.862,274.451,286.121,274.711,286.372z"/>
	<path style="fill:#8CB7E8;" d="M180.258,288.639c0.295-0.209,0.586-0.424,0.872-0.645
		C180.846,288.216,180.553,288.428,180.258,288.639z"/>
	<path style="fill:#8CB7E8;" d="M279.507,289.961c0.518,0.292,1.047,0.566,1.59,0.819
		C280.554,290.527,280.025,290.251,279.507,289.961z"/>
	<path style="fill:#8CB7E8;" d="M287.5,294.014c1.06,0.569,2.116,1.143,3.156,1.741C289.617,295.157,288.559,294.583,287.5,294.014z
		"/>
	<path style="fill:#8CB7E8;" d="M275.22,286.85c0.261,0.239,0.528,0.47,0.801,0.698C275.746,287.32,275.481,287.089,275.22,286.85z"
		/>
	<path style="fill:#8CB7E8;" d="M292.456,296.828c0.934,0.559,1.863,1.123,2.78,1.705
		C294.319,297.951,293.39,297.388,292.456,296.828z"/>
	<path style="fill:#8CB7E8;" d="M281.099,290.78c1.638,0.762,3.25,1.561,4.842,2.388
		C284.348,292.341,282.736,291.542,281.099,290.78z"/>
	<path style="fill:#8CB7E8;" d="M276.568,287.994c0.285,0.222,0.576,0.436,0.872,0.645
		C277.144,288.428,276.851,288.216,276.568,287.994z"/>
	<path style="fill:#8CB7E8;" d="M309.831,309.388c0.884,0.765,1.749,1.55,2.61,2.34C311.58,310.939,310.717,310.153,309.831,309.388
		z"/>
	<path style="fill:#8CB7E8;" d="M277.997,289.03c0.329,0.22,0.67,0.427,1.013,0.63C278.668,289.457,278.326,289.251,277.997,289.03z
		"/>
	<path style="fill:#8CB7E8;" d="M305.748,306.01c0.844,0.669,1.671,1.353,2.493,2.042
		C307.419,307.363,306.59,306.679,305.748,306.01z"/>
	<path style="fill:#8CB7E8;" d="M301.501,302.794c0.849,0.616,1.688,1.244,2.521,1.88
		C303.189,304.038,302.35,303.411,301.501,302.794z"/>
	<path style="fill:#8CB7E8;" d="M137.599,319.365c-0.725,0.79-1.434,1.593-2.14,2.402c0.461-0.526,0.906-1.066,1.375-1.584
		C137.083,319.905,137.346,319.642,137.599,319.365z"/>
	<path style="fill:#8CB7E8;" d="M149.456,308.052c0.822-0.689,1.649-1.373,2.493-2.042
		C151.107,306.679,150.278,307.363,149.456,308.052z"/>
	<path style="fill:#8CB7E8;" d="M183.743,285.6c-0.247,0.262-0.495,0.521-0.756,0.773
		C183.246,286.121,183.496,285.862,183.743,285.6z"/>
	<path style="fill:#8CB7E8;" d="M158.005,301.507c0.861-0.6,1.733-1.19,2.611-1.769
		C159.738,300.317,158.866,300.905,158.005,301.507z"/>
	<path style="fill:#8CB7E8;" d="M153.674,304.676c0.833-0.636,1.673-1.266,2.521-1.88
		C155.347,303.411,154.508,304.038,153.674,304.676z"/>
	<path style="fill:#8CB7E8;" d="M145.256,311.727c0.861-0.788,1.724-1.575,2.61-2.34
		C146.98,310.153,146.117,310.939,145.256,311.727z"/>
	<path style="fill:#8CB7E8;" d="M187.238,280.787c-0.568,1.044-1.218,2.043-1.939,2.99c0.349-0.459,0.684-0.929,1.001-1.413
		C186.632,281.851,186.945,281.325,187.238,280.787z"/>
	<path style="fill:#8CB7E8;" d="M167.041,295.756c1.04-0.599,2.098-1.171,3.156-1.741
		C169.138,294.583,168.08,295.157,167.041,295.756z"/>
	<path style="fill:#8CB7E8;" d="M140.331,316.464c1.179-1.206,2.385-2.386,3.615-3.545
		C142.716,314.078,141.511,315.257,140.331,316.464z"/>
	<path style="fill:#8CB7E8;" d="M162.461,298.535c0.917-0.583,1.846-1.147,2.78-1.705
		C164.307,297.388,163.378,297.951,162.461,298.535z"/>
</g>
<path style="fill:#A78966;" d="M308.666,8.231C304.246,3.01,297.75,0,290.909,0h-62.061h-62.061c-6.841,0-13.337,3.01-17.757,8.231
	c-4.422,5.219-6.322,12.122-5.199,18.87l10.999,65.991h11.958h11.636h23.594h26.83h26.83h23.594h11.636
	c4.169,0,8.069,1.109,11.453,3.027l11.503-69.019C314.99,20.351,313.088,13.45,308.666,8.231z"/>
<path style="fill:#DF6246;" d="M349.054,372.59c-0.734-2.841-1.565-5.648-2.493-8.419c-2.321-6.928-5.246-13.621-8.72-20.005
	c-0.991-1.821-2.042-3.609-3.123-5.376c-0.244-0.399-0.493-0.793-0.74-1.188c-1.022-1.629-2.071-3.241-3.168-4.821
	c-0.073-0.105-0.143-0.214-0.216-0.32c-2.589-3.707-5.378-7.278-8.353-10.693c-0.706-0.808-1.415-1.612-2.14-2.402
	c-0.898-0.979-1.803-1.952-2.734-2.903c-1.179-1.206-2.385-2.386-3.615-3.545c-0.428-0.405-0.874-0.793-1.309-1.192
	c-0.861-0.788-1.724-1.575-2.61-2.34c-0.523-0.452-1.06-0.891-1.59-1.336c-0.822-0.689-1.649-1.373-2.493-2.042
	c-0.568-0.452-1.147-0.894-1.724-1.336c-0.833-0.636-1.673-1.264-2.521-1.88c-0.6-0.434-1.202-0.863-1.809-1.288
	c-0.861-0.6-1.733-1.19-2.611-1.769c-0.613-0.405-1.226-0.81-1.845-1.204c-0.917-0.583-1.846-1.147-2.78-1.705
	c-0.6-0.358-1.195-0.725-1.8-1.074c-1.04-0.599-2.098-1.171-3.156-1.741c-0.52-0.279-1.032-0.571-1.559-0.844
	c-1.592-0.827-3.204-1.628-4.842-2.388c-0.545-0.253-1.072-0.529-1.59-0.819c-0.169-0.096-0.33-0.2-0.496-0.299
	c-0.344-0.203-0.684-0.411-1.013-0.63c-0.189-0.127-0.371-0.259-0.557-0.393c-0.295-0.209-0.586-0.424-0.872-0.645
	c-0.186-0.146-0.366-0.295-0.549-0.445c-0.273-0.227-0.54-0.459-0.801-0.698c-0.171-0.158-0.343-0.315-0.509-0.478
	c-0.261-0.251-0.509-0.51-0.756-0.773c-0.152-0.161-0.304-0.32-0.451-0.486c-0.262-0.295-0.51-0.599-0.756-0.906
	c-0.115-0.144-0.236-0.284-0.349-0.431c-0.349-0.459-0.684-0.929-1.001-1.413c-0.009-0.014-0.016-0.028-0.025-0.04
	c-0.324-0.5-0.63-1.012-0.915-1.536c-0.518-0.956-0.973-1.949-1.354-2.974c-0.382-1.024-0.694-2.077-0.931-3.156
	c-0.354-1.617-0.538-3.285-0.538-4.982v-36.949v-23.273v-23.273H228.85h-38.788v23.273v23.273v36.949
	c0,1.697-0.185,3.367-0.538,4.982c-0.236,1.078-0.549,2.132-0.931,3.156c-0.382,1.024-0.836,2.017-1.354,2.974
	c-0.285,0.524-0.59,1.036-0.915,1.536c-0.008,0.014-0.016,0.028-0.025,0.04c-0.315,0.484-0.652,0.954-1.001,1.413
	c-0.112,0.147-0.233,0.287-0.349,0.431c-0.245,0.307-0.493,0.611-0.756,0.906c-0.147,0.166-0.299,0.324-0.451,0.486
	c-0.247,0.262-0.495,0.521-0.756,0.773c-0.166,0.163-0.338,0.32-0.509,0.478c-0.261,0.239-0.528,0.47-0.801,0.698
	c-0.182,0.151-0.362,0.299-0.549,0.445c-0.285,0.222-0.576,0.436-0.872,0.645c-0.186,0.132-0.368,0.265-0.557,0.393
	c-0.329,0.22-0.67,0.427-1.013,0.63c-0.166,0.099-0.327,0.205-0.496,0.299c-0.518,0.292-1.047,0.566-1.59,0.819
	c-1.638,0.762-3.25,1.561-4.842,2.388c-0.528,0.273-1.04,0.565-1.559,0.844c-1.06,0.569-2.116,1.143-3.156,1.741
	c-0.607,0.349-1.199,0.715-1.8,1.074c-0.934,0.559-1.863,1.123-2.78,1.705c-0.619,0.394-1.233,0.799-1.845,1.204
	c-0.877,0.58-1.75,1.168-2.611,1.769c-0.607,0.424-1.209,0.853-1.809,1.288c-0.849,0.616-1.688,1.244-2.521,1.88
	c-0.577,0.442-1.156,0.884-1.724,1.336c-0.844,0.669-1.671,1.353-2.493,2.042c-0.532,0.445-1.067,0.883-1.59,1.336
	c-0.884,0.765-1.749,1.552-2.61,2.34c-0.434,0.399-0.88,0.787-1.309,1.192c-1.23,1.159-2.436,2.34-3.615,3.545
	c-0.931,0.95-1.835,1.924-2.734,2.903c-0.725,0.79-1.434,1.593-2.14,2.402c-2.976,3.416-5.764,6.986-8.353,10.693
	c-0.074,0.105-0.144,0.214-0.217,0.321c-1.095,1.579-2.146,3.19-3.167,4.817c-0.248,0.396-0.498,0.791-0.742,1.19
	c-1.081,1.767-2.132,3.555-3.123,5.376c-3.474,6.385-6.398,13.079-8.72,20.005c-0.929,2.771-1.761,5.579-2.493,8.419
	c-2.568,9.942-3.918,20.278-3.918,30.804c0,16.517,3.193,32.559,9.489,47.68c2.057,4.94,4.437,9.748,7.117,14.381h107.515h107.515
	c2.68-4.634,5.06-9.444,7.117-14.383c6.298-15.12,9.489-31.161,9.489-47.678C352.97,392.868,351.62,382.532,349.054,372.59z"/>
<path style="fill:#B3D8F4;" d="M430.545,186.182H314.182v-23.273v-46.545c0-8.685-4.768-16.247-11.819-20.246
	c-3.384-1.918-7.284-3.027-11.453-3.027h-11.636h-23.594h-26.83h-26.83h-23.594h-11.636H154.83h-19.073
	c-12.853,0-23.273,10.42-23.273,23.273s10.42,23.273,23.273,23.273h7.758v23.273v46.545v46.125
	c-52.289,30.273-85.333,86.751-85.333,147.814c0,22.691,4.395,44.753,13.067,65.576c3.753,9.005,8.29,17.689,13.521,25.918
	c1.579,2.484,3.215,4.931,4.92,7.328c4.364,6.138,11.432,9.784,18.964,9.784h120.194h120.194c7.533,0,14.601-3.646,18.967-9.787
	c7.356-10.344,13.559-21.53,18.438-33.246c1.085-2.602,2.101-5.224,3.052-7.863c6.65-18.48,10.017-37.854,10.017-57.71
	c0-15.959-2.278-31.598-6.546-46.545h37.575c12.853,0,23.273-10.42,23.273-23.273V209.455
	C453.818,196.602,443.398,186.182,430.545,186.182z M343.481,451.072c-2.057,4.939-4.437,9.747-7.117,14.383H228.848H121.333
	c-2.679-4.633-5.059-9.441-7.117-14.381c-6.296-15.121-9.489-31.162-9.489-47.68c0-10.525,1.35-20.862,3.916-30.804
	c0.734-2.841,1.565-5.648,2.493-8.419c2.321-6.928,5.246-13.621,8.72-20.005c0.991-1.821,2.043-3.607,3.123-5.376
	c0.244-0.399,0.493-0.794,0.742-1.19c1.019-1.629,2.073-3.236,3.167-4.817c0.073-0.105,0.144-0.214,0.217-0.321
	c1.114-1.6,2.253-3.182,3.441-4.729c1.569-2.042,3.218-4.02,4.912-5.964c0.461-0.526,0.906-1.066,1.375-1.584
	c0.25-0.278,0.514-0.542,0.765-0.816c0.858-0.934,1.714-1.865,2.6-2.773c0.042-0.043,0.09-0.085,0.133-0.129
	c1.179-1.206,2.385-2.386,3.615-3.545c0.428-0.405,0.874-0.793,1.309-1.192c0.861-0.788,1.724-1.575,2.61-2.34
	c0.523-0.451,1.06-0.891,1.59-1.336c0.822-0.689,1.649-1.373,2.493-2.042c0.568-0.451,1.147-0.894,1.724-1.336
	c0.833-0.636,1.673-1.264,2.521-1.88c0.6-0.434,1.202-0.863,1.809-1.288c0.861-0.6,1.733-1.19,2.611-1.769
	c0.613-0.405,1.226-0.81,1.845-1.204c0.917-0.583,1.846-1.147,2.78-1.705c0.6-0.358,1.195-0.725,1.8-1.074
	c1.04-0.599,2.098-1.171,3.156-1.741c0.52-0.279,1.032-0.571,1.559-0.844c1.592-0.827,3.204-1.628,4.842-2.388
	c0.545-0.253,1.072-0.529,1.59-0.819c0.169-0.096,0.33-0.2,0.496-0.299c0.344-0.203,0.684-0.411,1.013-0.63
	c0.189-0.127,0.371-0.259,0.557-0.393c0.295-0.209,0.586-0.424,0.872-0.645c0.186-0.146,0.366-0.295,0.549-0.445
	c0.273-0.227,0.54-0.459,0.801-0.698c0.171-0.158,0.343-0.315,0.509-0.478c0.261-0.251,0.509-0.51,0.756-0.773
	c0.152-0.161,0.304-0.32,0.451-0.486c0.262-0.295,0.51-0.599,0.756-0.906c0.115-0.144,0.236-0.284,0.349-0.431
	c0.36-0.472,0.701-0.957,1.024-1.454c0.324-0.5,0.63-1.012,0.915-1.536c0.518-0.956,0.973-1.949,1.354-2.974
	c0.382-1.024,0.694-2.077,0.931-3.156c0.354-1.617,0.538-3.285,0.538-4.982v-36.952v-23.273v-23.273v-23.273v-23.273h38.788h38.788
	v23.273v23.273v23.273v23.273v36.949c0,1.697,0.185,3.367,0.538,4.982c0.236,1.078,0.549,2.132,0.931,3.156
	c0.382,1.024,0.836,2.017,1.354,2.974c0.285,0.524,0.591,1.035,0.915,1.536c0.323,0.497,0.664,0.982,1.024,1.454
	c0.112,0.147,0.233,0.287,0.349,0.431c0.245,0.307,0.493,0.611,0.756,0.906c0.147,0.166,0.299,0.324,0.452,0.486
	c0.247,0.262,0.495,0.521,0.756,0.773c0.166,0.163,0.338,0.32,0.509,0.478c0.261,0.239,0.527,0.47,0.801,0.698
	c0.182,0.151,0.362,0.299,0.549,0.445c0.285,0.222,0.576,0.436,0.872,0.645c0.186,0.132,0.368,0.265,0.557,0.393
	c0.329,0.22,0.67,0.427,1.013,0.63c0.166,0.099,0.327,0.205,0.496,0.299c0.518,0.292,1.047,0.566,1.59,0.819
	c1.638,0.762,3.25,1.561,4.842,2.388c0.527,0.273,1.039,0.565,1.559,0.844c1.06,0.569,2.116,1.143,3.156,1.741
	c0.607,0.349,1.199,0.715,1.8,1.074c0.934,0.559,1.863,1.123,2.78,1.705c0.619,0.394,1.233,0.799,1.845,1.204
	c0.877,0.58,1.75,1.168,2.611,1.769c0.607,0.424,1.209,0.853,1.809,1.288c0.849,0.616,1.688,1.244,2.521,1.88
	c0.577,0.442,1.156,0.884,1.724,1.336c0.844,0.669,1.671,1.353,2.493,2.042c0.532,0.445,1.067,0.883,1.59,1.336
	c0.884,0.765,1.749,1.552,2.61,2.34c0.434,0.399,0.88,0.787,1.309,1.192c1.23,1.159,2.436,2.34,3.615,3.545
	c0.043,0.043,0.092,0.085,0.133,0.129c0.884,0.908,1.742,1.839,2.6,2.773c0.251,0.275,0.515,0.54,0.765,0.816
	c0.469,0.52,0.914,1.058,1.375,1.584c1.694,1.944,3.344,3.922,4.912,5.964c1.188,1.547,2.327,3.129,3.441,4.729
	c0.073,0.105,0.143,0.214,0.216,0.32c1.094,1.581,2.149,3.19,3.168,4.821c0.248,0.396,0.496,0.79,0.74,1.188
	c1.08,1.769,2.132,3.556,3.123,5.376c3.474,6.384,6.398,13.079,8.719,20.005c0.929,2.771,1.761,5.579,2.493,8.419
	c2.566,9.942,3.916,20.278,3.916,30.804C352.97,419.911,349.777,435.952,343.481,451.072z M407.273,310.303h-35.536
	c-14.471-22.219-34.062-41.121-57.555-54.723v-22.852h93.091V310.303z"/>
<g>
	<path style="fill:#8CB7E8;" d="M270.459,280.787c0.285,0.524,0.59,1.036,0.915,1.536
		C271.05,281.822,270.744,281.311,270.459,280.787z"/>
	<path style="fill:#8CB7E8;" d="M330.592,332.46c0.073,0.105,0.143,0.214,0.216,0.32
		C330.735,332.674,330.665,332.566,330.592,332.46z"/>
	<path style="fill:#8CB7E8;" d="M333.976,337.6c0.247,0.396,0.496,0.79,0.74,1.188C334.473,338.39,334.224,337.996,333.976,337.6z"
		/>
	<path style="fill:#8CB7E8;" d="M320.864,320.183c-0.25-0.278-0.514-0.542-0.765-0.816c0.725,0.79,1.434,1.593,2.14,2.402
		C321.778,321.241,321.331,320.703,320.864,320.183z"/>
</g>
<g>
	<path style="fill:#AF2E08;" d="M119.858,344.165c0.991-1.821,2.042-3.609,3.123-5.376
		C121.901,340.558,120.849,342.343,119.858,344.165z"/>
	<path style="fill:#AF2E08;" d="M123.722,337.599c1.021-1.628,2.07-3.238,3.167-4.817
		C125.794,334.362,124.742,335.97,123.722,337.599z"/>
	<path style="fill:#AF2E08;" d="M140.198,316.593c-0.884,0.908-1.742,1.839-2.6,2.773c0.898-0.979,1.803-1.952,2.734-2.903
		C140.288,316.508,140.241,316.549,140.198,316.593z"/>
	<path style="fill:#AF2E08;" d="M186.323,282.323c-0.323,0.496-0.664,0.982-1.024,1.454c0.349-0.459,0.684-0.929,1.001-1.413
		C186.307,282.351,186.314,282.335,186.323,282.323z"/>
	<path style="fill:#AF2E08;" d="M130.548,327.731c-1.188,1.547-2.327,3.129-3.441,4.729c2.589-3.707,5.378-7.277,8.353-10.693
		C133.765,323.711,132.115,325.689,130.548,327.731z"/>
</g>
<path style="fill:#806749;" d="M149.031,8.231c-4.422,5.219-6.322,12.122-5.199,18.87l10.999,65.991h11.958h11.636h23.594h26.83V0
	h-62.061C159.947,0,153.451,3.01,149.031,8.231z"/>
<path style="fill:#DD512A;" d="M190.061,186.182v23.273v23.273v36.949c0,1.697-0.185,3.367-0.538,4.982
	c-0.236,1.078-0.549,2.132-0.931,3.156c-0.382,1.024-0.836,2.017-1.354,2.974c-0.285,0.524-0.59,1.036-0.915,1.536
	c-0.008,0.014-0.016,0.028-0.025,0.04c-0.315,0.484-0.652,0.954-1.001,1.413c-0.112,0.147-0.233,0.287-0.349,0.431
	c-0.245,0.307-0.493,0.611-0.756,0.906c-0.147,0.166-0.299,0.324-0.451,0.486c-0.247,0.262-0.495,0.521-0.756,0.773
	c-0.166,0.163-0.338,0.32-0.509,0.478c-0.261,0.239-0.528,0.47-0.801,0.698c-0.182,0.151-0.361,0.299-0.549,0.445
	c-0.285,0.222-0.576,0.436-0.872,0.645c-0.186,0.132-0.368,0.265-0.557,0.393c-0.329,0.22-0.67,0.427-1.013,0.63
	c-0.166,0.099-0.327,0.205-0.496,0.299c-0.518,0.292-1.047,0.566-1.59,0.819c-1.638,0.762-3.25,1.561-4.842,2.388
	c-0.528,0.273-1.04,0.565-1.559,0.844c-1.06,0.569-2.116,1.143-3.156,1.741c-0.607,0.349-1.199,0.715-1.8,1.074
	c-0.934,0.559-1.863,1.123-2.78,1.705c-0.619,0.394-1.233,0.799-1.845,1.204c-0.877,0.58-1.75,1.168-2.611,1.769
	c-0.607,0.424-1.209,0.853-1.809,1.288c-0.849,0.616-1.688,1.244-2.521,1.88c-0.577,0.442-1.156,0.884-1.724,1.336
	c-0.844,0.669-1.671,1.353-2.493,2.042c-0.532,0.445-1.067,0.883-1.59,1.336c-0.884,0.765-1.749,1.552-2.61,2.34
	c-0.434,0.399-0.88,0.787-1.309,1.192c-1.23,1.159-2.436,2.34-3.615,3.545c-0.931,0.95-1.835,1.924-2.734,2.903
	c-0.725,0.79-1.434,1.593-2.14,2.402c-2.976,3.416-5.764,6.986-8.353,10.693c-0.074,0.105-0.144,0.214-0.217,0.321
	c-1.095,1.579-2.146,3.19-3.167,4.817c-0.248,0.396-0.498,0.791-0.742,1.19c-1.081,1.767-2.132,3.555-3.123,5.376
	c-3.474,6.385-6.398,13.079-8.72,20.005c-0.929,2.771-1.761,5.579-2.493,8.419c-2.566,9.942-3.916,20.278-3.916,30.804
	c0,16.517,3.193,32.559,9.489,47.68c2.057,4.94,4.437,9.748,7.117,14.381h107.515V186.182H190.061z"/>
<path style="fill:#8CB7E8;" d="M121.333,465.455c-2.679-4.633-5.059-9.441-7.117-14.381c-6.296-15.121-9.489-31.162-9.489-47.68
	c0-10.525,1.35-20.862,3.916-30.804c0.734-2.841,1.565-5.648,2.493-8.419c2.321-6.928,5.246-13.621,8.72-20.005
	c0.991-1.821,2.043-3.607,3.123-5.376c0.244-0.399,0.493-0.794,0.742-1.19c1.019-1.629,2.073-3.236,3.167-4.817
	c0.073-0.105,0.144-0.214,0.217-0.321c1.114-1.6,2.253-3.182,3.441-4.729c1.569-2.042,3.218-4.02,4.912-5.964
	c0.461-0.526,0.906-1.066,1.375-1.584c0.25-0.278,0.514-0.542,0.765-0.816c0.858-0.934,1.714-1.865,2.6-2.773
	c0.042-0.043,0.09-0.085,0.133-0.129c1.179-1.206,2.385-2.386,3.615-3.545c0.428-0.405,0.874-0.793,1.309-1.192
	c0.861-0.788,1.724-1.575,2.61-2.34c0.523-0.451,1.06-0.891,1.59-1.336c0.822-0.689,1.649-1.373,2.493-2.042
	c0.568-0.451,1.147-0.894,1.724-1.336c0.833-0.636,1.673-1.264,2.521-1.88c0.6-0.434,1.202-0.863,1.809-1.288
	c0.861-0.6,1.733-1.19,2.611-1.769c0.613-0.405,1.226-0.81,1.845-1.204c0.917-0.583,1.846-1.147,2.78-1.705
	c0.6-0.358,1.195-0.725,1.8-1.074c1.04-0.599,2.098-1.171,3.156-1.741c0.52-0.279,1.032-0.571,1.559-0.844
	c1.592-0.827,3.204-1.628,4.842-2.388c0.545-0.253,1.072-0.529,1.59-0.819c0.169-0.096,0.33-0.2,0.496-0.299
	c0.344-0.203,0.684-0.411,1.013-0.63c0.189-0.127,0.371-0.259,0.557-0.393c0.295-0.209,0.586-0.424,0.872-0.645
	c0.186-0.146,0.366-0.295,0.549-0.445c0.273-0.227,0.54-0.459,0.801-0.698c0.171-0.158,0.343-0.315,0.509-0.478
	c0.261-0.251,0.509-0.51,0.756-0.773c0.152-0.161,0.304-0.32,0.451-0.486c0.262-0.295,0.51-0.599,0.756-0.906
	c0.115-0.144,0.236-0.284,0.349-0.431c0.36-0.472,0.701-0.957,1.024-1.454c0.324-0.5,0.63-1.012,0.915-1.536
	c0.518-0.956,0.973-1.949,1.354-2.974c0.382-1.024,0.694-2.077,0.931-3.156c0.354-1.617,0.538-3.285,0.538-4.982v-36.952v-23.273
	v-23.273v-23.273v-23.273h38.788V93.091h-26.83h-23.592h-11.636H154.83h-19.073c-12.853,0-23.273,10.42-23.273,23.273
	s10.42,23.273,23.273,23.273h7.758v23.273v46.545v46.125c-52.289,30.273-85.333,86.751-85.333,147.814
	c0,22.691,4.395,44.753,13.067,65.576c3.753,9.005,8.29,17.689,13.521,25.918c1.579,2.484,3.215,4.931,4.92,7.328
	c4.364,6.138,11.432,9.784,18.964,9.784h120.194v-46.545H121.333z"/>
<g>
	<path style="fill:#AF2E08;" d="M126.888,332.781c0.073-0.105,0.144-0.214,0.217-0.321
		C127.032,332.566,126.962,332.674,126.888,332.781z"/>
	<path style="fill:#AF2E08;" d="M186.323,282.323c0.324-0.5,0.63-1.012,0.915-1.536
		C186.953,281.311,186.647,281.822,186.323,282.323z"/>
	<path style="fill:#AF2E08;" d="M122.981,338.789c0.244-0.399,0.493-0.794,0.742-1.19
		C123.474,337.994,123.224,338.39,122.981,338.789z"/>
	<path style="fill:#AF2E08;" d="M136.833,320.183c-0.469,0.52-0.914,1.058-1.375,1.584c0.706-0.808,1.415-1.612,2.14-2.402
		C137.346,319.642,137.083,319.905,136.833,320.183z"/>
</g>
<g>
</g>
<g>
</g>
<g>
</g>
<g>
</g>
<g>
</g>
<g>
</g>
<g>
</g>
<g>
</g>
<g>
</g>
<g>
</g>
<g>
</g>
<g>
</g>
<g>
</g>
<g>
</g>
<g>
</g>
</svg>
