<?xml version="1.0" encoding="iso-8859-1"?>
<!-- Generator: Adobe Illustrator 19.0.0, SVG Export Plug-In . SVG Version: 6.00 Build 0)  -->
<svg version="1.1" id="Layer_1" xmlns="http://www.w3.org/2000/svg" xmlns:xlink="http://www.w3.org/1999/xlink" x="0px" y="0px"
	 viewBox="0 0 512 512" style="enable-background:new 0 0 512 512;" xml:space="preserve">
<polygon style="fill:#F7B239;" points="288.547,0 281.373,52.099 201.918,52.099 194.744,0 "/>
<polygon style="fill:#E09B2D;" points="194.744,0 201.918,52.099 240.244,52.099 233.07,0 "/>
<path style="fill:#99E2FF;" d="M382.913,196.243c-9.39-12.66-23.81-19.931-39.584-19.931h-45.368V95.204h-0.922
	c6.947,0,13.234-2.815,17.786-7.365c4.551-4.552,7.366-10.84,7.366-17.775c0-13.893-11.258-25.151-25.151-25.151h-15.666h-79.455
	h-56.962c-13.067,0-18.959,16.36-8.899,24.696l21.139,17.51c3.162,2.611,6.731,4.635,10.528,6c3.797,1.367,7.845,2.084,11.941,2.084
	h5.677v233.861c-39.2,20.374-65.981,61.347-65.981,108.57c0,21.043,5.33,40.841,14.696,58.136
	C139.519,505.856,150.214,512,161.7,512h159.891c11.498,0,22.205-6.167,27.679-16.277c9.498-17.558,14.827-37.691,14.66-59.094
	c-0.18-21.151-5.809-41.069-15.546-58.423l42.075-138.297C395.058,224.831,392.303,208.914,382.913,196.243z M356.432,229.561
	l-35.128,115.494c-7.126-6.144-14.947-11.486-23.343-15.881V211.883h45.368c4.384,0,8.396,2.013,11.007,5.533
	C356.947,220.939,357.714,225.369,356.432,229.561z"/>
<rect x="218.878" y="95.204" style="fill:#73CAE5;" width="45.548" height="197.619"/>
<path style="fill:#F4DE3B;" d="M330.394,436.893c0.108,14.492-3.318,28.84-9.941,41.572H162.838
	c-6.599-12.66-9.941-26.397-9.941-40.829c0-33.26,18.361-63.454,47.908-78.808l18.073-9.39v-82.964h45.548v83l17.989,9.414
	C311.746,374.242,330.131,404.124,330.394,436.893z"/>
<path style="fill:#E0C734;" d="M218.878,266.474h9.354v82.965l-10.647,9.39c-17.414,15.353-28.242,45.548-28.242,78.808
	c0,14.432,1.976,28.17,5.857,40.829h-32.362c-6.599-12.66-9.941-26.397-9.941-40.829c0-33.26,18.361-63.454,47.908-78.808
	l18.073-9.39L218.878,266.474L218.878,266.474z"/>
<g>
</g>
<g>
</g>
<g>
</g>
<g>
</g>
<g>
</g>
<g>
</g>
<g>
</g>
<g>
</g>
<g>
</g>
<g>
</g>
<g>
</g>
<g>
</g>
<g>
</g>
<g>
</g>
<g>
</g>
</svg>
