<?xml version="1.0" encoding="iso-8859-1"?>
<!-- Generator: Adobe Illustrator 19.0.0, SVG Export Plug-In . SVG Version: 6.00 Build 0)  -->
<svg version="1.1" id="Layer_1" xmlns="http://www.w3.org/2000/svg" xmlns:xlink="http://www.w3.org/1999/xlink" x="0px" y="0px"
	 viewBox="0 0 512.001 512.001" style="enable-background:new 0 0 512.001 512.001;" xml:space="preserve">
<g>
	<path style="fill:#D8143A;" d="M425.385,6.482c-8.644-8.643-22.658-8.643-31.302,0c-1.833,1.833-3.252,3.913-4.309,6.127
		c-2.213,1.055-4.294,2.475-6.127,4.307L200.283,200.282L90.518,310.047c-0.087,0.084-0.173,0.168-0.258,0.254l-73.344,73.348
		c-1.831,1.831-3.251,3.913-4.306,6.125c-2.213,1.055-4.295,2.476-6.128,4.307c-8.643,8.644-8.643,22.658,0,31.302
		c115.493,115.49,303.41,115.488,418.901,0C540.873,309.889,540.873,121.972,425.385,6.482z"/>
	<path style="fill:#D8143A;" d="M394.081,37.785L394.081,37.785c-6.811-6.811-8.231-16.95-4.307-25.177
		c-2.213,1.055-4.294,2.475-6.127,4.307L200.283,200.282L90.518,310.047c-0.087,0.084-0.173,0.168-0.258,0.254l-73.344,73.348
		c-1.831,1.831-3.251,3.913-4.306,6.125c8.225-3.924,18.362-2.503,25.175,4.307c98.23,98.23,258.064,98.228,356.294-0.001
		C492.309,295.847,492.309,136.014,394.081,37.785z"/>
</g>
<path style="fill:#64C37D;" d="M394.083,6.483c-1.833,1.833-3.252,3.913-4.309,6.127c-3.924,8.225-2.504,18.364,4.307,25.175v0.001
	c98.228,98.228,98.228,258.061-0.001,356.294c-98.23,98.23-258.064,98.23-356.294,0.001c-6.811-6.81-16.949-8.231-25.175-4.307
	c-2.213,1.055-4.295,2.476-6.128,4.307c-8.643,8.644-8.643,22.658,0,31.302c115.493,115.49,303.41,115.488,418.901,0
	c115.49-115.494,115.49-303.411,0.001-418.901C416.741-2.161,402.727-2.161,394.083,6.483z"/>
<g>
	<path style="fill:#6A563D;" d="M235.313,320.051c5.833,0.01,11.539-2.357,15.661-6.479c4.113-4.113,6.482-9.819,6.471-15.652
		c0-5.823-2.358-11.539-6.471-15.652c-4.121-4.121-9.838-6.481-15.659-6.481c-5.823,0-11.53,2.368-15.643,6.481
		c-4.121,4.121-6.488,9.828-6.488,15.652c0,5.821,2.367,11.529,6.488,15.65C223.795,317.693,229.492,320.051,235.313,320.051z"/>
	<path style="fill:#6A563D;" d="M238.749,364.573c-4.111,4.111-6.481,9.819-6.491,15.652c0.001,5.821,2.368,11.529,6.49,15.652
		c4.121,4.121,9.819,6.479,15.641,6.479c5.833-0.01,11.53-2.368,15.652-6.49s6.49-9.829,6.49-15.652
		c0-5.821-2.359-11.519-6.481-15.64c-4.123-4.121-9.829-6.49-15.65-6.49C248.566,358.094,242.87,360.452,238.749,364.573z"/>
	<path style="fill:#6A563D;" d="M172.408,382.958c5.833,0.01,11.529-2.346,15.65-6.469c4.121-4.121,6.49-9.829,6.481-15.662
		c0-5.823-2.368-11.529-6.482-15.641c-4.121-4.121-9.816-6.479-15.649-6.49c-5.823,0-11.53,2.368-15.652,6.49
		c-4.121,4.121-6.479,9.817-6.479,15.64c-0.01,5.833,2.358,11.541,6.479,15.662C160.868,380.6,166.575,382.968,172.408,382.958z"/>
	<path style="fill:#6A563D;" d="M343.4,312.089c-4.121-4.121-9.839-6.481-15.659-6.479c-5.823,0-11.53,2.368-15.643,6.479
		c-0.001,0.001-0.003,0.003-0.004,0.004c-0.184,0.184-0.345,0.39-0.524,0.58c-0.317,0.341-0.643,0.676-0.937,1.037
		c-0.006,0.006-0.009,0.013-0.015,0.021c-2.286,2.805-3.862,6.153-4.576,9.689c-0.037,0.186-0.052,0.375-0.086,0.561
		c-0.093,0.527-0.184,1.052-0.239,1.585c-0.072,0.722-0.109,1.446-0.109,2.175c-0.001,5.821,2.367,11.529,6.488,15.65
		c4.121,4.123,9.819,6.481,15.641,6.481c1.458,0.003,2.908-0.143,4.328-0.429c0.217-0.043,0.428-0.112,0.643-0.162
		c0.49-0.114,0.98-0.221,1.461-0.367c0.484-0.148,0.953-0.332,1.427-0.512c0.204-0.077,0.412-0.137,0.612-0.22
		c2.671-1.105,5.126-2.727,7.186-4.785c0.001,0,0.004-0.003,0.004-0.003c4.111-4.113,6.481-9.819,6.471-15.652
		C349.871,321.919,347.513,316.201,343.4,312.089z"/>
	<path style="fill:#6A563D;" d="M364.572,238.748c-4.121,4.121-6.479,9.817-6.488,15.65c-0.001,5.823,2.367,11.53,6.488,15.652
		c4.121,4.121,9.819,6.479,15.641,6.479c5.833,0.012,11.539-2.358,15.661-6.479c4.121-4.121,6.481-9.819,6.481-15.662
		c0-5.821-2.359-11.519-6.481-15.64c-4.121-4.123-9.829-6.491-15.65-6.49C374.391,232.269,368.694,234.627,364.572,238.748z"/>
	<path style="fill:#6A563D;" d="M360.827,194.538c5.833,0.01,11.539-2.357,15.661-6.479c4.121-4.121,6.491-9.829,6.479-15.662
		c0.001-5.823-2.358-11.519-6.479-15.641c-4.121-4.121-9.829-6.49-15.65-6.49c-5.833,0.01-11.53,2.368-15.652,6.49
		s-6.479,9.817-6.488,15.65c0.012,5.832,2.367,11.529,6.488,15.65C349.307,192.181,355.006,194.538,360.827,194.538z"/>
	<path style="fill:#6A563D;" d="M320.353,235.012c0.01-5.832-2.349-11.529-6.471-15.652c-4.121-4.121-9.828-6.49-15.661-6.479
		c-5.821-0.001-11.52,2.358-15.641,6.479c-4.123,4.123-6.481,9.819-6.488,15.652c0,5.823,2.367,11.53,6.487,15.652
		c4.123,4.121,9.82,6.479,15.643,6.479c5.843,0,11.539-2.358,15.661-6.479C318.005,246.542,320.363,240.845,320.353,235.012z"/>
</g>
<g>
	<path style="fill:#B8002B;" d="M37.786,394.081c98.23,98.23,258.064,98.228,356.294-0.001l-50.684-50.683
		c-2.06,2.06-4.517,3.68-7.186,4.785c-0.201,0.083-0.409,0.143-0.612,0.22c-0.472,0.18-0.943,0.364-1.427,0.512
		c-0.481,0.146-0.971,0.254-1.461,0.367c-0.215,0.05-0.425,0.12-0.643,0.162c-1.42,0.285-2.869,0.432-4.328,0.429
		c-5.821,0-11.52-2.358-15.641-6.481c-4.121-4.121-6.49-9.829-6.49-15.65c0-0.727,0.037-1.453,0.109-2.175
		c0.055-0.533,0.148-1.058,0.239-1.585c0.034-0.186,0.047-0.375,0.086-0.561c0.713-3.536,2.29-6.884,4.574-9.689
		c0.006-0.006,0.009-0.013,0.015-0.021c0.294-0.36,0.62-0.695,0.937-1.037c0.179-0.19,0.339-0.395,0.524-0.58L200.28,200.284
		L90.515,310.048c-0.087,0.084-0.173,0.168-0.258,0.254L16.913,383.65c-1.831,1.831-3.251,3.913-4.306,6.125
		C20.837,385.85,30.974,387.271,37.786,394.081z M276.53,380.213c0,5.823-2.368,11.53-6.49,15.652s-9.819,6.479-15.652,6.49
		c-5.821-0.001-11.52-2.358-15.641-6.479s-6.488-9.83-6.49-15.652c0.012-5.833,2.38-11.541,6.491-15.652
		c4.121-4.121,9.817-6.479,15.65-6.49c5.821,0,11.529,2.368,15.65,6.49C274.171,368.695,276.53,374.392,276.53,380.213z
		 M219.674,282.268c4.111-4.111,9.819-6.481,15.643-6.481c5.821,0,11.538,2.359,15.659,6.481c4.113,4.111,6.471,9.829,6.471,15.652
		c0.012,5.833-2.358,11.539-6.471,15.652c-4.121,4.123-9.828,6.49-15.661,6.479c-5.821,0-11.52-2.358-15.641-6.479
		s-6.488-9.829-6.488-15.65C213.184,292.097,215.552,286.39,219.674,282.268z M156.755,345.187c4.121-4.121,9.829-6.49,15.652-6.49
		c5.833,0.01,11.529,2.368,15.649,6.49c4.113,4.113,6.482,9.819,6.482,15.641c0.01,5.833-2.359,11.541-6.481,15.662
		c-4.123,4.123-9.817,6.479-15.65,6.469c-5.832,0.01-11.539-2.358-15.652-6.469c-4.121-4.121-6.488-9.829-6.479-15.662
		C150.276,355.004,152.634,349.308,156.755,345.187z"/>
	<path style="fill:#B8002B;" d="M335.597,348.402c-0.472,0.18-0.943,0.364-1.427,0.512
		C334.656,348.765,335.125,348.581,335.597,348.402z"/>
	<path style="fill:#B8002B;" d="M332.709,349.282c-0.215,0.05-0.425,0.12-0.643,0.162
		C332.284,349.4,332.495,349.332,332.709,349.282z"/>
	<path style="fill:#B8002B;" d="M310.633,313.711c0.294-0.36,0.62-0.695,0.937-1.037
		C311.253,313.016,310.928,313.351,310.633,313.711z"/>
	<path style="fill:#B8002B;" d="M306.044,323.42c0.713-3.536,2.29-6.884,4.574-9.689
		C308.334,316.536,306.756,319.883,306.044,323.42z"/>
	<path style="fill:#B8002B;" d="M305.719,325.566c0.055-0.533,0.148-1.058,0.239-1.585
		C305.867,324.508,305.774,325.033,305.719,325.566z"/>
	<path style="fill:#B8002B;" d="M336.21,348.182c2.671-1.105,5.126-2.725,7.186-4.785v-0.001
		C341.336,345.455,338.88,347.077,336.21,348.182z"/>
</g>
<polygon style="fill:#D8143A;" points="343.396,343.397 343.396,343.397 343.402,343.392 "/>
<g>
</g>
<g>
</g>
<g>
</g>
<g>
</g>
<g>
</g>
<g>
</g>
<g>
</g>
<g>
</g>
<g>
</g>
<g>
</g>
<g>
</g>
<g>
</g>
<g>
</g>
<g>
</g>
<g>
</g>
</svg>
