<?xml version="1.0" encoding="iso-8859-1"?>
<!-- Generator: Adobe Illustrator 19.0.0, SVG Export Plug-In . SVG Version: 6.00 Build 0)  -->
<svg version="1.1" id="Layer_1" xmlns="http://www.w3.org/2000/svg" xmlns:xlink="http://www.w3.org/1999/xlink" x="0px" y="0px"
	 viewBox="0 0 512 512" style="enable-background:new 0 0 512 512;" xml:space="preserve">
<path style="fill:#F2F2F4;" d="M380.343,75.277V0h-58.514v75.277c0,16.622-9.392,31.819-24.26,39.253l0,0
	c-20.993,10.496-34.254,31.953-34.254,55.425V512h175.543V169.955c0-23.472-13.261-44.929-34.254-55.425l0,0
	C389.734,107.096,380.343,91.9,380.343,75.277z"/>
<rect x="351.086" y="204.8" style="fill:#DFDFE1;" width="87.771" height="146.286"/>
<rect x="117.029" y="343.771" style="fill:#B4D8F1;" width="43.886" height="146.286"/>
<rect x="87.771" y="468.114" style="fill:#98C8ED;" width="102.4" height="43.886"/>
<rect x="138.971" y="468.114" style="fill:#7AB9E8;" width="51.2" height="43.886"/>
<path style="fill:#AF2E08;" d="M73.143,299.886c0,36.356,29.472,65.829,65.829,65.829s65.829-29.472,65.829-65.829v-0.007v-80.45
	H73.143V299.886z"/>
<path style="fill:#762204;" d="M138.971,219.429v146.286c36.356,0,65.829-29.474,65.829-65.829v-0.007v-80.45H138.971z"/>
<g>
	<rect x="263.314" y="336.457" style="fill:#5CA15D;" width="175.543" height="175.543"/>
	<path style="fill:#5CA15D;" d="M404.601,114.53c-14.867-7.434-24.259-22.63-24.259-39.253V0h-58.514v75.277
		c0,16.622-9.392,31.819-24.259,39.253c-20.995,10.496-34.256,31.953-34.256,55.425v49.474h175.543v-49.474
		C438.857,146.483,425.596,125.026,404.601,114.53z"/>
</g>
<g>
	<rect x="351.086" y="336.457" style="fill:#4E894D;" width="87.771" height="175.543"/>
	<path style="fill:#4E894D;" d="M404.601,114.53c-14.867-7.434-24.259-22.63-24.259-39.253V0h-29.257v219.429h87.771v-49.474
		C438.857,146.483,425.596,125.026,404.601,114.53z"/>
</g>
<g>
</g>
<g>
</g>
<g>
</g>
<g>
</g>
<g>
</g>
<g>
</g>
<g>
</g>
<g>
</g>
<g>
</g>
<g>
</g>
<g>
</g>
<g>
</g>
<g>
</g>
<g>
</g>
<g>
</g>
</svg>
